<?xml version="1.0" encoding="UTF-8" standalone="no"?>
<!-- Created with Inkscape (http://www.inkscape.org/) -->

<svg
   width="20.144463"
   height="24"
   viewBox="0 0 5.3298891 6.35"
   version="1.1"
   id="svg55895"
   inkscape:version="1.2.1 (9c6d41e4, 2022-07-14)"
   sodipodi:docname="anettes-coven.svg"
   xmlns:inkscape="http://www.inkscape.org/namespaces/inkscape"
   xmlns:sodipodi="http://sodipodi.sourceforge.net/DTD/sodipodi-0.dtd"
   xmlns="http://www.w3.org/2000/svg"
   xmlns:svg="http://www.w3.org/2000/svg">
  <sodipodi:namedview
     id="namedview55897"
     pagecolor="#505050"
     bordercolor="#eeeeee"
     borderopacity="1"
     inkscape:showpageshadow="0"
     inkscape:pageopacity="0"
     inkscape:pagecheckerboard="0"
     inkscape:deskcolor="#505050"
     inkscape:document-units="mm"
     showgrid="false"
     inkscape:zoom="0.7046647"
     inkscape:cx="-43.992554"
     inkscape:cy="219.25321"
     inkscape:window-width="1390"
     inkscape:window-height="941"
     inkscape:window-x="0"
     inkscape:window-y="25"
     inkscape:window-maximized="0"
     inkscape:current-layer="layer1" />
  <defs
     id="defs55892">
    <clipPath
       clipPathUnits="userSpaceOnUse"
       id="clipPath7381">
      <path
         d="m 380.183,189.861 h 24.7 v 24.699 h -24.7 z"
         id="path7379" />
    </clipPath>
  </defs>
  <g
     inkscape:label="Layer 1"
     inkscape:groupmode="layer"
     id="layer1"
     transform="translate(-116.65667,-90.974701)">
    <g
       id="g7375"
       transform="matrix(0.34260302,0,0,-0.34260302,-15.348492,163.66401)">
      <g
         id="g7377"
         clip-path="url(#clipPath7381)">
        <g
           id="g7383"
           transform="translate(392.019,197.808)">
          <path
             d="M 0,0 C -0.01,0.016 -0.018,0.026 -0.024,0.034 -0.028,0.03 -0.03,0.025 -0.033,0.021 -0.022,0.014 -0.012,0.006 0,0"
             style="fill:#000000;fill-opacity:1;fill-rule:nonzero;stroke:none"
             id="path7385" />
        </g>
        <g
           id="g7387"
           transform="translate(391.96,197.788)">
          <path
             d="M 0,0 C 0.006,0.015 0.017,0.027 0.026,0.041 0.019,0.045 0.012,0.05 0.005,0.054 0.002,0.036 -0.002,0.018 0,0"
             style="fill:#000000;fill-opacity:1;fill-rule:nonzero;stroke:none"
             id="path7389" />
        </g>
        <g
           id="g7391"
           transform="translate(391.966,197.861)">
          <path
             d="m 0,0 c -0.002,-0.006 -0.001,-0.012 -0.002,-0.019 0.007,-0.004 0.014,-0.009 0.021,-0.013 0.003,0.005 0.006,0.009 0.009,0.013 C 0.012,0.001 0.006,0.001 0,0"
             style="fill:#000000;fill-opacity:1;fill-rule:nonzero;stroke:none"
             id="path7393" />
        </g>
        <g
           id="g7395"
           transform="translate(399.024,196.627)">
          <path
             d="m 0,0 c 0.004,-0.177 -0.083,-0.302 -0.186,-0.44 -0.057,-0.076 -0.101,-0.15 -0.178,-0.21 -0.073,-0.057 -0.161,-0.097 -0.241,-0.141 -0.199,-0.107 -0.415,-0.119 -0.637,-0.136 -0.437,-0.035 -0.868,-0.005 -1.291,0.108 -0.333,0.089 -0.665,0.178 -0.995,0.279 -0.128,0.039 -0.261,0.08 -0.378,0.147 -0.104,0.06 -0.178,0.15 -0.278,0.214 -0.267,0.17 -0.51,0.375 -0.781,0.54 -0.139,0.084 -0.304,0.107 -0.443,0.194 -0.015,0.009 -0.031,0.022 -0.046,0.034 0.032,0.214 0.059,0.426 0.086,0.479 0.071,0.139 0.157,0.238 0.257,0.356 0.088,0.104 0.152,0.212 0.254,0.307 0.128,0.117 0.269,0.206 0.418,0.281 0.06,0.061 0.127,0.11 0.211,0.143 0.143,0.057 0.313,0.132 0.464,0.165 0.192,0.041 0.388,0.034 0.583,0.034 0.153,0 0.314,0.02 0.462,-0.026 C -2.563,2.279 -2.408,2.222 -2.247,2.19 -2.171,2.174 -2.095,2.166 -2.02,2.142 -1.898,2.104 -1.786,2.039 -1.671,1.985 -1.415,1.866 -1.168,1.717 -0.931,1.563 -0.729,1.432 -0.547,1.28 -0.395,1.091 -0.257,0.92 -0.121,0.758 -0.034,0.553 0.037,0.388 -0.004,0.175 0,0 m -7.447,-0.311 c -0.37,-0.22 -0.757,-0.416 -1.152,-0.587 -0.19,-0.083 -0.369,-0.183 -0.556,-0.268 -0.136,-0.061 -0.273,-0.088 -0.422,-0.086 -0.31,0.005 -0.669,0.028 -0.968,0.123 -0.338,0.107 -0.662,0.325 -0.925,0.559 -0.133,0.119 -0.177,0.274 -0.233,0.439 -0.041,0.118 -0.063,0.219 -0.047,0.345 0.021,0.162 0.099,0.301 0.164,0.448 0.061,0.136 0.107,0.279 0.184,0.408 0.227,0.383 0.538,0.718 0.997,0.795 0.194,0.032 0.423,-0.009 0.617,-0.032 0.139,-0.016 0.275,-0.045 0.416,-0.058 0.216,-0.02 0.431,-0.046 0.647,-0.07 0.276,-0.03 0.559,-0.083 0.822,-0.171 C -7.741,1.481 -7.575,1.442 -7.416,1.377 -7.275,1.318 -7.144,1.069 -7.003,1.011 -6.813,0.933 -6.62,0.557 -6.429,0.236 -6.442,0.227 -6.455,0.217 -6.468,0.21 -6.792,0.032 -7.129,-0.121 -7.447,-0.311 M 1.766,0.518 C 1.747,0.686 1.685,0.847 1.643,1.011 1.598,1.186 1.555,1.347 1.453,1.5 1.348,1.656 1.224,1.803 1.112,1.955 0.977,2.141 0.795,2.268 0.617,2.409 0.305,2.657 -0.042,2.894 -0.4,3.069 -0.588,3.161 -0.764,3.272 -0.956,3.355 -1.152,3.438 -1.361,3.489 -1.563,3.556 -1.928,3.678 -2.32,3.669 -2.701,3.669 -3.02,3.67 -3.404,3.727 -3.704,3.597 -3.841,3.538 -3.967,3.456 -4.105,3.396 -4.237,3.338 -4.376,3.295 -4.507,3.236 -4.668,3.164 -4.825,3.079 -4.995,3.028 -5.157,2.979 -5.318,2.946 -5.478,2.887 -5.567,2.853 -5.661,2.819 -5.755,2.781 -5.764,2.937 -5.773,3.093 -5.784,3.249 -5.813,3.689 -5.81,4.124 -5.867,4.562 -5.905,4.858 -5.96,5.151 -6,5.447 c -0.033,0.242 -0.037,0.486 -0.06,0.729 -0.016,0.176 -0.039,0.351 -0.063,0.527 0.053,0.041 0.101,0.088 0.143,0.142 0.325,0.005 0.649,-0.002 0.976,0.038 0.247,0.03 0.499,0.017 0.747,0.015 0.202,-10e-4 0.392,0.024 0.592,0.052 0.169,0.023 0.338,0.061 0.509,0.066 0.134,0.004 0.269,-0.002 0.403,-0.001 0.225,0.001 0.444,-0.051 0.667,-0.06 0.203,-0.008 0.407,0.01 0.61,0.002 0.184,-0.007 0.147,-0.154 0.181,-0.305 0.042,-0.186 0.064,-0.356 0.226,-0.485 0.138,-0.11 0.341,-0.09 0.472,0.017 0.085,0.069 0.053,0.168 0.053,0.272 -0.001,0.128 -0.013,0.26 0.004,0.386 0.022,0.164 0.091,0.318 0.106,0.483 0.015,0.174 -0.004,0.348 0.005,0.521 0.008,0.169 0.083,0.327 0.082,0.496 0,0.108 -0.032,0.232 -0.088,0.327 -0.067,0.111 -0.21,0.176 -0.337,0.176 -0.121,0 -0.221,-0.132 -0.255,-0.243 C -1.054,8.513 -1.047,8.418 -1.09,8.33 -1.147,8.213 -1.235,8.077 -1.35,8.014 -1.454,7.957 -1.564,7.957 -1.68,7.955 -1.819,7.953 -1.962,7.951 -2.1,7.956 -2.29,7.962 -2.478,7.989 -2.669,7.987 -2.845,7.985 -3.016,7.994 -3.191,8.008 c -0.134,0.011 -0.268,0 -0.401,0.009 -0.155,0.009 -0.306,0.051 -0.462,0.056 -0.121,0.004 -0.242,-0.006 -0.364,10e-4 -0.453,0.027 -0.893,0.127 -1.351,0.111 -0.143,-0.004 -0.402,0.085 -0.63,0.143 0.023,0.033 0.042,0.068 0.054,0.108 0.021,0.065 0.029,0.135 0.031,0.204 0.014,0.444 -0.056,0.885 -0.064,1.329 -0.004,0.226 0.008,0.451 -0.004,0.676 -0.005,0.093 -0.012,0.186 -0.019,0.279 0.039,0.036 0.075,0.076 0.105,0.121 0.04,0 0.081,0 0.122,0 0.188,0 0.362,-0.007 0.548,-0.036 0.094,-0.014 0.187,-0.028 0.28,-0.049 0.081,-0.019 0.157,-0.058 0.241,-0.06 0.09,-0.002 0.159,-0.035 0.248,-0.05 0.155,-0.025 0.369,-0.03 0.512,0.037 0.093,0.044 0.194,0.089 0.295,0.112 0.077,0.019 0.16,0.027 0.239,0.039 0.055,0.009 0.214,0.035 0.263,0.002 0.065,-0.042 0.033,-0.19 0.014,-0.251 -0.023,-0.075 -0.064,-0.15 -0.038,-0.232 0.021,-0.066 0.095,-0.164 0.152,-0.2 0.122,-0.078 0.363,-0.179 0.494,-0.071 0.078,0.066 0.066,0.202 0.068,0.292 0.003,0.15 0.008,0.307 0.002,0.457 -0.007,0.153 -0.076,0.293 -0.091,0.445 -0.015,0.158 -0.052,0.309 -0.085,0.464 -0.063,0.291 -0.106,0.6 -0.114,0.897 -0.002,0.089 0.004,0.215 -0.034,0.297 -0.026,0.058 -0.045,0.051 -0.105,0.052 -0.151,0.004 -0.335,-0.005 -0.418,-0.147 -0.034,-0.058 -0.084,-0.107 -0.117,-0.165 -0.047,-0.085 -0.04,-0.21 -0.042,-0.302 0,-0.044 -0.003,-0.09 0,-0.135 0.002,-0.038 0.025,-0.085 0.026,-0.12 10e-4,-0.056 -0.023,-0.087 -0.068,-0.12 -0.137,-0.099 -0.385,-0.094 -0.545,-0.114 -0.137,-0.018 -0.262,-0.007 -0.399,0.009 -0.144,0.017 -0.289,10e-4 -0.433,0.004 -0.14,0.003 -0.27,0.046 -0.408,0.058 -0.09,0.008 -0.181,0.002 -0.271,0.002 -0.152,-10e-4 -0.301,-0.005 -0.449,-0.015 -0.007,0.006 -0.014,0.012 -0.021,0.017 0,0.074 10e-4,0.148 -0.002,0.222 -0.007,0.236 -0.03,0.468 -0.03,0.704 0,0.105 10e-4,0.186 0.022,0.285 0.012,0.052 0,0.102 0.013,0.154 0.009,0.036 0.021,0.055 0.023,0.093 0.007,0.149 0,0.301 -0.001,0.451 0,0.085 -0.004,0.106 0.061,0.165 0.225,0.205 0.535,0.329 0.675,0.609 0.038,0.077 0.108,0.152 0.141,0.228 0.011,0.026 0.019,0.057 0.014,0.086 -0.017,0.093 -0.128,0.149 -0.208,0.175 -0.133,0.043 -0.241,0.027 -0.374,0.005 -0.085,-0.014 -0.168,-0.001 -0.254,-0.004 -0.083,-0.003 -0.106,-0.024 -0.175,-0.052 -0.138,-0.057 -0.283,-0.089 -0.418,-0.152 -0.094,-0.045 -0.182,-0.027 -0.283,-0.007 -0.135,0.027 -0.283,0.073 -0.409,0.129 -0.19,0.084 -0.371,0.243 -0.58,0.277 -0.164,0.027 -0.281,0.007 -0.399,-0.105 -0.062,-0.059 -0.134,-0.084 -0.165,-0.17 -0.047,-0.126 -0.062,-0.389 0.009,-0.511 0.108,-0.184 0.285,-0.168 0.455,-0.243 0.348,-0.155 0.638,-0.599 0.704,-0.967 0.018,-0.102 0.024,-0.203 0.052,-0.304 0.041,-0.146 0.101,-0.287 0.13,-0.437 0.033,-0.175 0.045,-0.355 0.05,-0.535 -0.133,-0.065 -0.241,-0.169 -0.311,-0.299 -0.166,-0.014 -0.331,-0.031 -0.497,-0.058 -0.164,-0.025 -0.329,-0.035 -0.494,-0.056 -0.153,-0.021 -0.312,-0.01 -0.464,-0.035 -0.088,-0.014 -0.212,-0.059 -0.282,0.012 -0.057,0.058 -0.095,0.093 -0.165,0.136 -0.091,0.057 -0.115,0.146 -0.15,0.245 -0.024,0.068 -0.049,0.133 -0.064,0.203 -0.022,0.102 -0.027,0.218 -0.102,0.299 -0.056,0.062 -0.147,0.111 -0.214,0.163 -0.061,0.048 -0.109,0.086 -0.186,0.093 -0.026,0.003 -0.076,0.006 -0.099,10e-4 -0.063,-0.014 -0.052,-0.051 -0.064,-0.108 -0.029,-0.137 -0.067,-0.282 -0.049,-0.423 0.011,-0.086 0.054,-0.161 0.058,-0.249 0.005,-0.114 -0.007,-0.229 -0.004,-0.343 0.003,-0.132 0.062,-0.238 0.083,-0.365 0.02,-0.122 0.026,-0.255 0.032,-0.379 0.008,-0.155 0.087,-0.277 0.113,-0.427 0.013,-0.075 -0.006,-0.151 10e-4,-0.225 0.008,-0.075 0.057,-0.136 0.1,-0.199 0.032,-0.046 0.108,-0.177 0.167,-0.197 0.149,-0.05 0.309,0.24 0.331,0.346 0.022,0.105 0.029,0.216 0.032,0.323 0.004,0.097 0.009,0.132 0.087,0.186 0.207,0.145 0.427,0.142 0.67,0.143 0.198,10e-4 0.39,-10e-4 0.585,-0.042 0.163,-0.034 0.324,-0.084 0.489,-0.115 0.094,-0.017 0.188,-0.015 0.283,-0.015 0.042,-0.031 0.087,-0.059 0.136,-0.081 0.003,-0.032 0.004,-0.064 0.008,-0.096 0.06,-0.49 0.058,-0.978 0.058,-1.471 0,-0.34 0.012,-0.683 0.001,-1.024 C -7.369,8.166 -7.44,8.118 -7.503,8.061 -7.547,8.056 -7.592,8.051 -7.636,8.043 -7.681,8.034 -7.726,8.025 -7.77,8.013 -7.916,7.975 -8.059,7.99 -8.207,7.987 -8.366,7.985 -8.52,7.956 -8.681,7.957 -9.063,7.959 -9.45,7.94 -9.832,7.956 c -0.176,0.007 -0.349,0.032 -0.527,0.031 -0.174,-0.002 -0.321,0.004 -0.491,0.038 -0.125,0.025 -0.249,0.049 -0.373,0.075 -0.105,0.022 -0.221,0.037 -0.272,0.144 -0.121,0.253 0.002,0.719 -0.289,0.873 -0.135,0.071 -0.326,-0.032 -0.425,-0.116 -0.161,-0.134 -0.133,-0.28 -0.169,-0.47 -0.035,-0.183 -0.061,-0.352 -0.059,-0.54 0.002,-0.217 0,-0.435 0,-0.652 10e-4,-0.396 -0.028,-0.79 -0.028,-1.187 0,-0.115 -0.014,-0.238 0,-0.352 0.012,-0.095 0.062,-0.162 0.126,-0.229 0.086,-0.091 0.186,-0.206 0.317,-0.213 0.089,-0.005 0.18,0.036 0.256,0.08 0.089,0.051 0.24,0.131 0.271,0.243 0.028,0.102 0.002,0.243 0.002,0.345 0,0.164 -0.043,0.384 0.057,0.526 0.023,0.033 0.057,0.062 0.078,0.095 0.027,0.042 0.032,0.095 0.078,0.124 0.052,0.033 0.149,0.014 0.209,0.014 0.059,0 0.118,10e-4 0.177,0 0.079,-0.001 0.151,0.008 0.229,0.022 0.103,0.02 0.214,0.007 0.319,0.007 0.324,0 0.648,-0.001 0.972,0 0.362,0 0.721,-0.029 1.083,-0.029 0.244,10e-4 0.485,0.004 0.727,0.014 C -7.496,6.724 -7.413,6.661 -7.321,6.615 -7.326,6.196 -7.381,5.781 -7.399,5.361 -7.408,5.145 -7.41,4.934 -7.434,4.719 -7.455,4.52 -7.464,4.327 -7.463,4.126 -7.461,3.795 -7.465,3.463 -7.464,3.131 -7.528,3.159 -7.594,3.184 -7.663,3.204 -8.126,3.337 -8.584,3.505 -9.058,3.597 -9.425,3.668 -9.796,3.7 -10.17,3.698 c -0.147,-10e-4 -0.295,-10e-4 -0.442,0 -0.185,0.002 -0.353,-0.027 -0.535,-0.05 -0.194,-0.024 -0.377,-0.065 -0.569,-0.103 -0.227,-0.045 -0.454,-0.083 -0.669,-0.174 -0.374,-0.158 -0.653,-0.43 -0.864,-0.774 -0.088,-0.145 -0.142,-0.302 -0.191,-0.464 -0.047,-0.159 -0.051,-0.318 -0.081,-0.48 -0.056,-0.296 -0.158,-0.577 -0.189,-0.878 -0.018,-0.176 -0.012,-0.352 -0.013,-0.528 -0.002,-0.208 0.002,-0.382 0.072,-0.582 0.144,-0.411 0.259,-0.843 0.477,-1.223 0.152,-0.265 0.352,-0.479 0.58,-0.679 0.145,-0.126 0.303,-0.224 0.465,-0.327 0.092,-0.059 0.18,-0.122 0.283,-0.166 0.109,-0.046 0.224,-0.078 0.335,-0.12 0.164,-0.063 0.312,-0.114 0.488,-0.13 0.169,-0.015 0.339,-0.019 0.508,-0.006 0.187,0.014 0.37,0.046 0.55,0.094 0.228,0.06 0.447,0.084 0.679,0.119 0.392,0.06 0.781,0.167 1.143,0.33 0.171,0.078 0.335,0.161 0.512,0.225 0.165,0.059 0.318,0.123 0.469,0.213 0.229,0.135 0.381,0.296 0.53,0.516 0.062,0.092 0.124,0.188 0.204,0.265 0.049,0.048 0.169,0.156 0.248,0.123 0.073,-0.03 0.1,-0.165 0.149,-0.228 0.059,-0.077 0.193,-0.141 0.274,-0.198 0.155,-0.107 0.339,-0.188 0.512,-0.264 0.208,-0.092 0.43,-0.149 0.644,-0.229 0.184,-0.069 0.362,-0.132 0.555,-0.172 0.398,-0.084 0.801,-0.15 1.204,-0.213 0.371,-0.059 0.734,-0.129 1.111,-0.152 0.45,-0.027 0.905,-0.034 1.356,-0.034 0.189,0 0.394,-0.024 0.582,0.007 0.192,0.032 0.355,0.137 0.503,0.259 0.144,0.119 0.267,0.259 0.391,0.399 0.129,0.147 0.268,0.29 0.386,0.446 0.116,0.154 0.182,0.32 0.23,0.506 0.037,0.148 0.093,0.301 0.107,0.454 0.031,0.347 -0.019,0.694 -0.058,1.038"
             style="fill:#000000;fill-opacity:1;fill-rule:nonzero;stroke:none"
             id="path7397" />
        </g>
      </g>
    </g>
  </g>
</svg>
