<?xml version="1.0" encoding="UTF-8" standalone="no"?>
<!-- Created with Inkscape (http://www.inkscape.org/) -->

<svg
   width="17.293837"
   height="24"
   viewBox="0 0 4.5756609 6.35"
   version="1.1"
   id="svg56037"
   inkscape:version="1.2.1 (9c6d41e4, 2022-07-14)"
   sodipodi:docname="city-of-sins.svg"
   xmlns:inkscape="http://www.inkscape.org/namespaces/inkscape"
   xmlns:sodipodi="http://sodipodi.sourceforge.net/DTD/sodipodi-0.dtd"
   xmlns="http://www.w3.org/2000/svg"
   xmlns:svg="http://www.w3.org/2000/svg">
  <sodipodi:namedview
     id="namedview56039"
     pagecolor="#505050"
     bordercolor="#eeeeee"
     borderopacity="1"
     inkscape:showpageshadow="0"
     inkscape:pageopacity="0"
     inkscape:pagecheckerboard="0"
     inkscape:deskcolor="#505050"
     inkscape:document-units="mm"
     showgrid="false"
     inkscape:zoom="0.7046647"
     inkscape:cx="170.29376"
     inkscape:cy="264.66488"
     inkscape:window-width="1390"
     inkscape:window-height="941"
     inkscape:window-x="0"
     inkscape:window-y="25"
     inkscape:window-maximized="0"
     inkscape:current-layer="layer1" />
  <defs
     id="defs56034">
    <clipPath
       clipPathUnits="userSpaceOnUse"
       id="clipPath7501">
      <path
         d="m 429.582,189.861 h 24.699 v 24.699 h -24.699 z"
         id="path7499" />
    </clipPath>
  </defs>
  <g
     inkscape:label="Layer 1"
     inkscape:groupmode="layer"
     id="layer1"
     transform="translate(-60.241176,-78.665123)">
    <g
       id="g7495"
       transform="matrix(0.28434155,0,0,-0.28434155,-62.149062,139.13424)">
      <g
         id="g7497"
         clip-path="url(#clipPath7501)">
        <g
           id="g7503"
           transform="translate(445.573,203.201)">
          <path
             d="m 0,0 c -0.187,-0.11 -0.38,-0.22 -0.591,-0.094 -0.093,0.056 -0.168,0.134 -0.255,0.198 -0.128,0.095 -0.293,0.191 -0.459,0.162 -0.393,-0.069 -0.275,-0.5 -0.06,-0.691 -0.12,-0.165 -0.287,-0.158 -0.502,0.027 0.002,0.024 0.003,0.048 0.002,0.072 -0.015,0.04 -0.012,0.077 -0.029,0.117 -0.037,0.084 -0.107,0.155 -0.193,0.19 -0.132,0.054 -0.258,0.012 -0.35,-0.074 -0.076,0.574 -0.768,0.748 -1.282,0.645 -0.389,-0.078 -0.771,-0.23 -1.094,-0.46 -0.234,-0.167 -0.448,-0.305 -0.746,-0.284 -0.125,0.008 -0.245,0.039 -0.359,0.085 -0.295,0.203 -0.522,0.446 -0.286,0.812 0.093,0.144 0.207,0.278 0.203,0.46 -0.007,0.326 -0.319,0.491 -0.602,0.409 -0.149,0.384 -0.54,0.617 -0.945,0.571 0.128,0.478 -0.553,0.51 -1.013,0.455 0.955,0.526 2.031,0.762 3.112,0.881 0.294,0.032 0.588,0.057 0.883,0.079 0.307,0.023 0.684,0.104 0.984,0.016 C -3.067,3.425 -3.281,2.97 -3.498,2.675 -3.58,2.563 -3.713,2.411 -3.673,2.258 c 0.091,-0.347 0.759,-0.164 0.993,-0.15 0.369,0.022 0.594,-0.11 0.883,-0.313 0.128,-0.09 0.161,-0.084 0.297,-10e-4 0.057,0.034 0.108,0.087 0.168,0.115 0.097,0.045 0.074,0.043 0.151,-0.029 0.096,-0.09 0.136,-0.257 0.2,-0.372 C -0.868,1.306 -0.73,1.259 -0.558,1.124 -0.354,0.963 -0.414,0.69 -0.275,0.496 -0.238,0.445 -0.197,0.411 -0.146,0.376 -0.121,0.359 -0.091,0.349 -0.065,0.335 0.039,0.323 0.089,0.268 0.086,0.17 0.144,0.077 0.116,0.021 0,0"
             style="fill:#000000;fill-opacity:1;fill-rule:nonzero;stroke:none"
             id="path7505" />
        </g>
        <g
           id="g7507"
           transform="translate(443.237,198.795)">
          <path
             d="m 0,0 c -0.002,-0.015 -0.003,-0.03 -0.004,-0.045 -0.002,-0.016 -0.004,-0.032 -0.006,-0.048 -0.081,-0.12 -0.163,-0.239 -0.249,-0.355 -0.102,-0.138 -0.34,-0.187 -0.489,-0.105 -0.048,0.027 -0.098,0.049 -0.151,0.069 0,0.096 -0.015,0.191 -0.044,0.285 0.003,0.218 0.009,0.472 0.065,0.687 0.049,0.091 0.111,0.17 0.189,0.23 0.098,0.075 0.189,0.107 0.272,0.11 C -0.339,0.803 -0.252,0.762 -0.153,0.706 -0.094,0.614 -0.054,0.514 -0.034,0.408 0.002,0.27 0.01,0.137 0,0 m -0.142,-3.282 c 0.069,-0.33 0.003,-0.675 -0.025,-1.006 -0.009,-0.111 -0.129,-0.171 -0.227,-0.16 -0.02,0.003 -0.089,0 -0.117,0.005 -0.025,-0.005 -0.053,-0.006 -0.085,0.002 -0.006,10e-4 -0.011,0.003 -0.016,0.004 -0.115,0.027 -0.169,0.13 -0.155,0.224 -0.021,0.035 -0.033,0.076 -0.025,0.122 0.032,0.188 0.063,0.371 0.12,0.545 0.035,0.207 0.082,0.41 0.22,0.569 0.165,0.191 0.465,-0.062 0.299,-0.253 -0.002,-0.003 -0.003,-0.006 -0.005,-0.008 0.007,-0.014 0.013,-0.029 0.016,-0.044 m -1.323,2.995 c -0.004,-0.029 -0.007,-0.055 -0.01,-0.08 -0.205,0.011 -0.411,-0.003 -0.593,-0.04 -0.029,-0.006 -0.059,-0.005 -0.09,-0.001 -0.014,0.177 -0.023,0.356 -0.008,0.533 0.004,0.041 0.009,0.082 0.015,0.122 0.008,0.014 0.01,0.029 0.008,0.047 0.016,0.091 0.038,0.182 0.074,0.266 0.091,0.22 0.127,0.258 0.382,0.267 0.075,0.035 0.132,0.047 0.176,0.037 0.02,-0.032 0.038,-0.068 0.054,-0.111 0.021,-0.055 0.035,-0.115 0.047,-0.177 0.027,-0.291 -0.014,-0.575 -0.055,-0.863 m -0.927,-0.007 c -0.048,0.044 -0.085,0.097 -0.1,0.153 -0.124,0.463 -0.116,0.915 -0.081,1.373 0.112,-0.152 0.216,-0.31 0.228,-0.505 V 0.723 C -2.442,0.409 -2.435,0.007 -2.392,-0.294 m -1.75,0.991 C -4.16,0.605 -4.284,0.555 -4.368,0.592 c -0.161,0.071 -0.311,0.07 -0.485,0.056 -0.079,-0.006 -0.173,0.057 -0.173,0.144 10e-4,0.509 -0.049,1.015 -0.08,1.523 -0.004,0.068 0.035,0.142 0.103,0.164 0.422,0.135 0.793,0.032 0.845,-0.451 0.011,-0.105 -0.055,-0.712 -0.053,-0.943 0.006,-0.031 0.013,-0.062 0.02,-0.092 0.147,-0.042 0.147,-0.233 0.049,-0.296 m -2.083,0.477 c 0.037,-0.033 0.06,-0.08 0.05,-0.137 L -6.19,0.953 C -6.202,0.882 -6.265,0.837 -6.331,0.826 -6.339,0.822 -6.349,0.821 -6.358,0.817 c -0.083,0.463 -0.125,0.93 -0.125,1.402 0.003,0.048 0.006,0.096 0.008,0.144 0.002,-0.003 0.005,-0.006 0.007,-0.009 0,0.004 0,0.008 0.001,0.012 0.024,0.203 0.337,0.147 0.313,-0.055 -0.044,-0.376 -0.128,-0.76 -0.071,-1.137 m -2.464,5.893 c 10e-4,-0.165 -0.203,-0.214 -0.283,-0.12 -0.054,-0.062 -0.121,-0.106 -0.2,-0.111 -0.38,-0.024 -0.304,0.691 -0.301,0.915 0.005,0.291 0.04,0.955 0.507,0.668 0.438,-0.269 0.274,-0.93 0.277,-1.352 m -2.067,-0.109 c -0.083,-0.022 -0.149,0.019 -0.185,0.078 -0.061,0.015 -0.116,0.06 -0.131,0.133 -0.082,0.393 -0.232,1.213 0.365,1.266 0.07,0.006 0.139,-0.037 0.164,-0.103 0.127,-0.339 0.279,-1.24 -0.213,-1.374 M 3.283,-3.699 C 3.227,-3.584 3.121,-3.515 2.988,-3.543 2.981,-3.544 2.976,-3.547 2.969,-3.549 2.966,-3.46 2.958,-3.371 2.947,-3.281 c -10e-4,0.005 -0.004,0.008 -0.005,0.012 0.009,-0.002 0.017,-0.003 0.026,-0.005 0.092,-0.016 0.145,0.13 0.051,0.162 -0.008,0.003 -0.015,0.003 -0.022,0.005 0,0.001 0,0.002 0,0.002 -0.019,0.004 -0.037,0.007 -0.056,0.011 -10e-4,0 -0.002,0 -0.003,0 -0.006,0.03 -0.026,0.058 -0.063,0.069 C 2.784,-3 2.69,-3.008 2.603,-3.045 2.572,-3.059 2.54,-3.096 2.548,-3.134 c 0.016,-0.075 0.059,-0.125 0.135,-0.145 0.01,-0.003 0.02,-0.004 0.03,-0.006 -0.002,-0.042 -0.005,-0.084 -0.008,-0.126 0,0 0,0 -10e-4,0 -0.02,0.01 -0.042,0.012 -0.062,0.006 C 2.483,-3.396 2.249,-3.428 2.328,-3.613 2.344,-3.65 2.382,-3.673 2.425,-3.689 2.453,-3.68 2.48,-3.677 2.506,-3.677 2.493,-3.711 2.479,-3.745 2.465,-3.779 2.387,-3.764 2.3,-3.83 2.333,-3.919 2.344,-3.948 2.364,-3.966 2.388,-3.976 2.383,-3.987 2.379,-3.998 2.374,-4.01 2.3,-4.027 2.228,-4.049 2.158,-4.083 2.121,-4.102 2.084,-4.149 2.108,-4.193 2.14,-4.254 2.18,-4.314 2.246,-4.334 2.205,-4.438 2.163,-4.542 2.122,-4.646 1.992,-4.675 1.855,-4.671 1.721,-4.635 1.702,-4.63 1.684,-4.622 1.667,-4.614 1.563,-4.665 1.46,-4.72 1.356,-4.771 1.123,-4.885 0.814,-4.672 0.805,-4.425 0.766,-3.429 0.679,-2.436 0.545,-1.448 0.53,-1.332 0.559,-1.24 0.612,-1.169 0.576,-0.956 0.534,-0.743 0.479,-0.528 0.445,-0.392 0.372,-0.291 0.28,-0.219 0.267,-0.175 0.25,-0.135 0.232,-0.097 0.24,0.331 0.188,0.811 -0.111,0.976 -0.232,1.099 -0.399,1.171 -0.624,1.153 -1,1.122 -1.136,0.721 -1.178,0.277 -1.176,0.534 -1.206,0.788 -1.314,0.952 -1.386,1.114 -1.511,1.234 -1.708,1.246 -1.899,1.257 -2.036,1.195 -2.137,1.091 -2.215,1.231 -2.34,1.345 -2.501,1.406 -2.52,1.414 -2.54,1.414 -2.558,1.409 c 0.021,0.238 0.046,0.478 0.062,0.722 0.022,0.363 0.033,0.727 0.039,1.091 -0.016,0.544 -0.032,1.089 -0.047,1.633 -0.003,0.098 -0.027,0.184 -0.066,0.259 -0.022,0.178 -0.05,0.353 -0.087,0.524 -0.007,0.033 -0.016,0.061 -0.025,0.091 0.049,-0.001 0.098,-0.003 0.148,-0.002 0.057,0 0.089,0.066 0.072,0.115 -0.019,0.056 -0.038,0.112 -0.057,0.168 -0.016,0.045 -0.067,0.065 -0.11,0.051 -0.064,-0.021 -0.13,-0.03 -0.196,-0.032 -0.002,0.002 -0.004,0.004 -0.006,0.006 0.072,0.113 0.083,0.293 0.032,0.432 0.007,0.032 0.014,0.063 0.018,0.097 0.012,0.09 -0.101,0.125 -0.148,0.073 -0.006,0.003 -0.01,0.007 -0.016,0.01 C -2.995,6.671 -3.057,6.639 -3.066,6.584 -3.083,6.483 -3.084,6.352 -3.121,6.257 -3.168,6.137 -3.196,6.099 -3.323,6.138 -3.405,6.163 -3.458,6.194 -3.536,6.177 -3.546,6.179 -3.555,6.181 -3.567,6.179 -3.691,6.163 -3.768,6.095 -3.779,5.967 -3.783,5.918 -3.758,5.88 -3.71,5.868 -3.626,5.846 -3.542,5.828 -3.457,5.811 L -3.506,5.676 C -3.597,5.381 -3.934,5.274 -4.146,5.406 -4.668,5.232 -5.398,5.42 -5.864,5.529 -6.053,5.574 -6.168,5.706 -6.202,5.894 -6.369,6.818 -6.392,7.75 -6.48,8.683 c -0.072,0.773 -0.18,1.538 -0.206,2.312 -0.056,0.256 -0.109,0.513 -0.153,0.772 l 0.143,1.116 c 0.185,-0.01 0.378,0.009 0.382,0.182 0.001,0.031 -0.024,0.056 -0.048,0.07 -0.087,0.047 -0.189,0.063 -0.293,0.064 0.012,0.095 0.025,0.19 0.037,0.285 0.043,0.013 0.082,0.029 0.109,0.051 0.034,0.026 0.041,0.06 0.032,0.1 -0.04,0.172 -0.164,0.166 -0.316,0.194 -0.008,0.007 -0.018,0.014 -0.031,0.019 -0.154,0.056 -0.378,0.003 -0.31,-0.218 0.02,-0.064 0.071,-0.107 0.136,-0.135 -0.02,-0.069 -0.035,-0.14 -0.051,-0.21 -0.146,-0.01 -0.293,-0.021 -0.44,-0.031 -0.045,-0.003 -0.083,-0.048 -0.077,-0.093 0.03,-0.233 0.243,-0.256 0.442,-0.257 -0.045,-0.267 -0.081,-0.535 -0.127,-0.793 -0.006,-0.032 -0.017,-0.075 -0.029,-0.125 -0.061,-0.096 -0.131,-0.188 -0.212,-0.274 -0.377,-0.398 -0.843,-0.528 -1.378,-0.511 -0.668,0.021 -1.157,-0.195 -1.804,-0.342 -0.003,-10e-4 -0.007,-10e-4 -0.011,-10e-4 -0.009,-0.018 -0.017,-0.034 -0.028,-0.052 -0.61,-0.972 -0.833,-2.302 -1.195,-3.39 -0.367,-1.102 -0.457,-2.262 -0.807,-3.368 0,0 0,-0.001 0,-0.001 v 0 C -12.738,3.974 -12.759,3.9 -12.784,3.827 -12.789,3.815 -12.795,3.806 -12.8,3.794 -12.821,3 -12.737,2.208 -12.514,1.421 c 0.005,-0.039 0.011,-0.078 0.016,-0.117 0.016,-0.126 0.061,-0.228 0.121,-0.313 0.027,-0.076 0.052,-0.152 0.081,-0.228 0.055,-0.14 0.115,-0.279 0.172,-0.418 0.129,-0.485 0.268,-0.968 0.421,-1.447 0.036,-0.111 0.095,-0.197 0.167,-0.264 0.016,-0.044 0.036,-0.088 0.063,-0.131 0.057,-0.093 0.109,-0.188 0.164,-0.281 0.061,-0.14 0.123,-0.281 0.187,-0.42 0.006,-0.018 0.013,-0.036 0.02,-0.055 0.021,-0.057 0.047,-0.106 0.076,-0.152 0.206,-0.443 0.419,-0.882 0.645,-1.317 0.101,-0.195 0.257,-0.313 0.427,-0.369 0.052,-0.066 0.103,-0.133 0.154,-0.2 0.189,-0.295 0.39,-0.582 0.614,-0.852 0.093,-0.114 0.191,-0.222 0.291,-0.327 0.019,-0.024 0.037,-0.048 0.055,-0.072 0.057,-0.073 0.12,-0.128 0.186,-0.17 0.304,-0.287 0.632,-0.541 0.978,-0.767 0.604,-0.342 1.199,-0.662 1.813,-0.937 0.012,0.008 0.024,0.015 0.035,0.024 0.313,-0.114 0.631,-0.216 0.953,-0.305 0.1,-0.049 0.196,-0.073 0.287,-0.076 0.021,-0.005 0.042,-0.01 0.064,-0.016 0.087,-0.086 0.202,-0.148 0.346,-0.169 0.286,-0.042 0.573,-0.084 0.859,-0.127 0.322,-0.075 0.646,-0.143 0.973,-0.201 0.05,-0.009 0.099,-0.011 0.146,-0.009 0.221,-0.032 0.444,-0.058 0.667,-0.078 0.017,-0.023 0.036,-0.045 0.056,-0.066 1.009,-0.067 2.04,-0.01 2.94,0.33 0.184,0.091 0.368,0.181 0.571,0.244 0.053,0.016 0.104,0.024 0.154,0.026 0.107,0.086 0.169,0.201 0.192,0.326 0.05,-0.029 0.135,0 0.133,0.079 -0.002,0.093 -0.002,0.185 -0.003,0.278 0.176,0.085 0.31,0.24 0.331,0.471 0.051,0.562 0.101,1.124 0.152,1.686 -0.008,0.002 -0.015,0.006 -0.022,0.009 0.025,0.055 0.025,0.125 0.023,0.266 -0.002,0.087 -0.007,0.173 -0.011,0.26 0.069,-0.006 0.134,0.02 0.171,0.103 0.026,0.059 0.014,0.125 -0.034,0.169 -0.012,0.011 -0.113,0.05 -0.158,0.054 -0.003,0.045 -0.007,0.09 -0.011,0.135 0.011,0.004 0.022,0.007 0.033,0.012 0.058,0.029 0.077,0.1 0.026,0.146 -0.014,0.013 -0.028,0.025 -0.041,0.038 0.007,0.002 0.013,0.005 0.02,0.009 0.02,-0.002 0.039,-0.003 0.059,-0.005 0.066,0.036 0.146,0.042 0.215,0.016 0.022,0.024 0.034,0.06 0.02,0.088"
             style="fill:#000000;fill-opacity:1;fill-rule:nonzero;stroke:none"
             id="path7509" />
        </g>
      </g>
    </g>
    <g
       id="g56090"
       transform="matrix(0.28434155,0,0,-0.28434155,-62.149062,139.13424)">
      <g
         id="g56088"
         clip-path="url(#clipPath7501)">
        <g
           id="g56082"
           transform="translate(445.573,203.201)">
          <path
             d="m 0,0 c -0.187,-0.11 -0.38,-0.22 -0.591,-0.094 -0.093,0.056 -0.168,0.134 -0.255,0.198 -0.128,0.095 -0.293,0.191 -0.459,0.162 -0.393,-0.069 -0.275,-0.5 -0.06,-0.691 -0.12,-0.165 -0.287,-0.158 -0.502,0.027 0.002,0.024 0.003,0.048 0.002,0.072 -0.015,0.04 -0.012,0.077 -0.029,0.117 -0.037,0.084 -0.107,0.155 -0.193,0.19 -0.132,0.054 -0.258,0.012 -0.35,-0.074 -0.076,0.574 -0.768,0.748 -1.282,0.645 -0.389,-0.078 -0.771,-0.23 -1.094,-0.46 -0.234,-0.167 -0.448,-0.305 -0.746,-0.284 -0.125,0.008 -0.245,0.039 -0.359,0.085 -0.295,0.203 -0.522,0.446 -0.286,0.812 0.093,0.144 0.207,0.278 0.203,0.46 -0.007,0.326 -0.319,0.491 -0.602,0.409 -0.149,0.384 -0.54,0.617 -0.945,0.571 0.128,0.478 -0.553,0.51 -1.013,0.455 0.955,0.526 2.031,0.762 3.112,0.881 0.294,0.032 0.588,0.057 0.883,0.079 0.307,0.023 0.684,0.104 0.984,0.016 C -3.067,3.425 -3.281,2.97 -3.498,2.675 -3.58,2.563 -3.713,2.411 -3.673,2.258 c 0.091,-0.347 0.759,-0.164 0.993,-0.15 0.369,0.022 0.594,-0.11 0.883,-0.313 0.128,-0.09 0.161,-0.084 0.297,-10e-4 0.057,0.034 0.108,0.087 0.168,0.115 0.097,0.045 0.074,0.043 0.151,-0.029 0.096,-0.09 0.136,-0.257 0.2,-0.372 C -0.868,1.306 -0.73,1.259 -0.558,1.124 -0.354,0.963 -0.414,0.69 -0.275,0.496 -0.238,0.445 -0.197,0.411 -0.146,0.376 -0.121,0.359 -0.091,0.349 -0.065,0.335 0.039,0.323 0.089,0.268 0.086,0.17 0.144,0.077 0.116,0.021 0,0"
             style="fill:#000000;fill-opacity:1;fill-rule:nonzero;stroke:none"
             id="path56080" />
        </g>
        <g
           id="g56086"
           transform="translate(443.237,198.795)">
          <path
             d="m 0,0 c -0.002,-0.015 -0.003,-0.03 -0.004,-0.045 -0.002,-0.016 -0.004,-0.032 -0.006,-0.048 -0.081,-0.12 -0.163,-0.239 -0.249,-0.355 -0.102,-0.138 -0.34,-0.187 -0.489,-0.105 -0.048,0.027 -0.098,0.049 -0.151,0.069 0,0.096 -0.015,0.191 -0.044,0.285 0.003,0.218 0.009,0.472 0.065,0.687 0.049,0.091 0.111,0.17 0.189,0.23 0.098,0.075 0.189,0.107 0.272,0.11 C -0.339,0.803 -0.252,0.762 -0.153,0.706 -0.094,0.614 -0.054,0.514 -0.034,0.408 0.002,0.27 0.01,0.137 0,0 m -0.142,-3.282 c 0.069,-0.33 0.003,-0.675 -0.025,-1.006 -0.009,-0.111 -0.129,-0.171 -0.227,-0.16 -0.02,0.003 -0.089,0 -0.117,0.005 -0.025,-0.005 -0.053,-0.006 -0.085,0.002 -0.006,10e-4 -0.011,0.003 -0.016,0.004 -0.115,0.027 -0.169,0.13 -0.155,0.224 -0.021,0.035 -0.033,0.076 -0.025,0.122 0.032,0.188 0.063,0.371 0.12,0.545 0.035,0.207 0.082,0.41 0.22,0.569 0.165,0.191 0.465,-0.062 0.299,-0.253 -0.002,-0.003 -0.003,-0.006 -0.005,-0.008 0.007,-0.014 0.013,-0.029 0.016,-0.044 m -1.323,2.995 c -0.004,-0.029 -0.007,-0.055 -0.01,-0.08 -0.205,0.011 -0.411,-0.003 -0.593,-0.04 -0.029,-0.006 -0.059,-0.005 -0.09,-0.001 -0.014,0.177 -0.023,0.356 -0.008,0.533 0.004,0.041 0.009,0.082 0.015,0.122 0.008,0.014 0.01,0.029 0.008,0.047 0.016,0.091 0.038,0.182 0.074,0.266 0.091,0.22 0.127,0.258 0.382,0.267 0.075,0.035 0.132,0.047 0.176,0.037 0.02,-0.032 0.038,-0.068 0.054,-0.111 0.021,-0.055 0.035,-0.115 0.047,-0.177 0.027,-0.291 -0.014,-0.575 -0.055,-0.863 m -0.927,-0.007 c -0.048,0.044 -0.085,0.097 -0.1,0.153 -0.124,0.463 -0.116,0.915 -0.081,1.373 0.112,-0.152 0.216,-0.31 0.228,-0.505 V 0.723 C -2.442,0.409 -2.435,0.007 -2.392,-0.294 m -1.75,0.991 C -4.16,0.605 -4.284,0.555 -4.368,0.592 c -0.161,0.071 -0.311,0.07 -0.485,0.056 -0.079,-0.006 -0.173,0.057 -0.173,0.144 10e-4,0.509 -0.049,1.015 -0.08,1.523 -0.004,0.068 0.035,0.142 0.103,0.164 0.422,0.135 0.793,0.032 0.845,-0.451 0.011,-0.105 -0.055,-0.712 -0.053,-0.943 0.006,-0.031 0.013,-0.062 0.02,-0.092 0.147,-0.042 0.147,-0.233 0.049,-0.296 m -2.083,0.477 c 0.037,-0.033 0.06,-0.08 0.05,-0.137 L -6.19,0.953 C -6.202,0.882 -6.265,0.837 -6.331,0.826 -6.339,0.822 -6.349,0.821 -6.358,0.817 c -0.083,0.463 -0.125,0.93 -0.125,1.402 0.003,0.048 0.006,0.096 0.008,0.144 0.002,-0.003 0.005,-0.006 0.007,-0.009 0,0.004 0,0.008 0.001,0.012 0.024,0.203 0.337,0.147 0.313,-0.055 -0.044,-0.376 -0.128,-0.76 -0.071,-1.137 m -2.464,5.893 c 10e-4,-0.165 -0.203,-0.214 -0.283,-0.12 -0.054,-0.062 -0.121,-0.106 -0.2,-0.111 -0.38,-0.024 -0.304,0.691 -0.301,0.915 0.005,0.291 0.04,0.955 0.507,0.668 0.438,-0.269 0.274,-0.93 0.277,-1.352 m -2.067,-0.109 c -0.083,-0.022 -0.149,0.019 -0.185,0.078 -0.061,0.015 -0.116,0.06 -0.131,0.133 -0.082,0.393 -0.232,1.213 0.365,1.266 0.07,0.006 0.139,-0.037 0.164,-0.103 0.127,-0.339 0.279,-1.24 -0.213,-1.374 M 3.283,-3.699 C 3.227,-3.584 3.121,-3.515 2.988,-3.543 2.981,-3.544 2.976,-3.547 2.969,-3.549 2.966,-3.46 2.958,-3.371 2.947,-3.281 c -10e-4,0.005 -0.004,0.008 -0.005,0.012 0.009,-0.002 0.017,-0.003 0.026,-0.005 0.092,-0.016 0.145,0.13 0.051,0.162 -0.008,0.003 -0.015,0.003 -0.022,0.005 0,0.001 0,0.002 0,0.002 -0.019,0.004 -0.037,0.007 -0.056,0.011 -10e-4,0 -0.002,0 -0.003,0 -0.006,0.03 -0.026,0.058 -0.063,0.069 C 2.784,-3 2.69,-3.008 2.603,-3.045 2.572,-3.059 2.54,-3.096 2.548,-3.134 c 0.016,-0.075 0.059,-0.125 0.135,-0.145 0.01,-0.003 0.02,-0.004 0.03,-0.006 -0.002,-0.042 -0.005,-0.084 -0.008,-0.126 0,0 0,0 -10e-4,0 -0.02,0.01 -0.042,0.012 -0.062,0.006 C 2.483,-3.396 2.249,-3.428 2.328,-3.613 2.344,-3.65 2.382,-3.673 2.425,-3.689 2.453,-3.68 2.48,-3.677 2.506,-3.677 2.493,-3.711 2.479,-3.745 2.465,-3.779 2.387,-3.764 2.3,-3.83 2.333,-3.919 2.344,-3.948 2.364,-3.966 2.388,-3.976 2.383,-3.987 2.379,-3.998 2.374,-4.01 2.3,-4.027 2.228,-4.049 2.158,-4.083 2.121,-4.102 2.084,-4.149 2.108,-4.193 2.14,-4.254 2.18,-4.314 2.246,-4.334 2.205,-4.438 2.163,-4.542 2.122,-4.646 1.992,-4.675 1.855,-4.671 1.721,-4.635 1.702,-4.63 1.684,-4.622 1.667,-4.614 1.563,-4.665 1.46,-4.72 1.356,-4.771 1.123,-4.885 0.814,-4.672 0.805,-4.425 0.766,-3.429 0.679,-2.436 0.545,-1.448 0.53,-1.332 0.559,-1.24 0.612,-1.169 0.576,-0.956 0.534,-0.743 0.479,-0.528 0.445,-0.392 0.372,-0.291 0.28,-0.219 0.267,-0.175 0.25,-0.135 0.232,-0.097 0.24,0.331 0.188,0.811 -0.111,0.976 -0.232,1.099 -0.399,1.171 -0.624,1.153 -1,1.122 -1.136,0.721 -1.178,0.277 -1.176,0.534 -1.206,0.788 -1.314,0.952 -1.386,1.114 -1.511,1.234 -1.708,1.246 -1.899,1.257 -2.036,1.195 -2.137,1.091 -2.215,1.231 -2.34,1.345 -2.501,1.406 -2.52,1.414 -2.54,1.414 -2.558,1.409 c 0.021,0.238 0.046,0.478 0.062,0.722 0.022,0.363 0.033,0.727 0.039,1.091 -0.016,0.544 -0.032,1.089 -0.047,1.633 -0.003,0.098 -0.027,0.184 -0.066,0.259 -0.022,0.178 -0.05,0.353 -0.087,0.524 -0.007,0.033 -0.016,0.061 -0.025,0.091 0.049,-0.001 0.098,-0.003 0.148,-0.002 0.057,0 0.089,0.066 0.072,0.115 -0.019,0.056 -0.038,0.112 -0.057,0.168 -0.016,0.045 -0.067,0.065 -0.11,0.051 -0.064,-0.021 -0.13,-0.03 -0.196,-0.032 -0.002,0.002 -0.004,0.004 -0.006,0.006 0.072,0.113 0.083,0.293 0.032,0.432 0.007,0.032 0.014,0.063 0.018,0.097 0.012,0.09 -0.101,0.125 -0.148,0.073 -0.006,0.003 -0.01,0.007 -0.016,0.01 C -2.995,6.671 -3.057,6.639 -3.066,6.584 -3.083,6.483 -3.084,6.352 -3.121,6.257 -3.168,6.137 -3.196,6.099 -3.323,6.138 -3.405,6.163 -3.458,6.194 -3.536,6.177 -3.546,6.179 -3.555,6.181 -3.567,6.179 -3.691,6.163 -3.768,6.095 -3.779,5.967 -3.783,5.918 -3.758,5.88 -3.71,5.868 -3.626,5.846 -3.542,5.828 -3.457,5.811 L -3.506,5.676 C -3.597,5.381 -3.934,5.274 -4.146,5.406 -4.668,5.232 -5.398,5.42 -5.864,5.529 -6.053,5.574 -6.168,5.706 -6.202,5.894 -6.369,6.818 -6.392,7.75 -6.48,8.683 c -0.072,0.773 -0.18,1.538 -0.206,2.312 -0.056,0.256 -0.109,0.513 -0.153,0.772 l 0.143,1.116 c 0.185,-0.01 0.378,0.009 0.382,0.182 0.001,0.031 -0.024,0.056 -0.048,0.07 -0.087,0.047 -0.189,0.063 -0.293,0.064 0.012,0.095 0.025,0.19 0.037,0.285 0.043,0.013 0.082,0.029 0.109,0.051 0.034,0.026 0.041,0.06 0.032,0.1 -0.04,0.172 -0.164,0.166 -0.316,0.194 -0.008,0.007 -0.018,0.014 -0.031,0.019 -0.154,0.056 -0.378,0.003 -0.31,-0.218 0.02,-0.064 0.071,-0.107 0.136,-0.135 -0.02,-0.069 -0.035,-0.14 -0.051,-0.21 -0.146,-0.01 -0.293,-0.021 -0.44,-0.031 -0.045,-0.003 -0.083,-0.048 -0.077,-0.093 0.03,-0.233 0.243,-0.256 0.442,-0.257 -0.045,-0.267 -0.081,-0.535 -0.127,-0.793 -0.006,-0.032 -0.017,-0.075 -0.029,-0.125 -0.061,-0.096 -0.131,-0.188 -0.212,-0.274 -0.377,-0.398 -0.843,-0.528 -1.378,-0.511 -0.668,0.021 -1.157,-0.195 -1.804,-0.342 -0.003,-10e-4 -0.007,-10e-4 -0.011,-10e-4 -0.009,-0.018 -0.017,-0.034 -0.028,-0.052 -0.61,-0.972 -0.833,-2.302 -1.195,-3.39 -0.367,-1.102 -0.457,-2.262 -0.807,-3.368 0,0 0,-0.001 0,-0.001 v 0 C -12.738,3.974 -12.759,3.9 -12.784,3.827 -12.789,3.815 -12.795,3.806 -12.8,3.794 -12.821,3 -12.737,2.208 -12.514,1.421 c 0.005,-0.039 0.011,-0.078 0.016,-0.117 0.016,-0.126 0.061,-0.228 0.121,-0.313 0.027,-0.076 0.052,-0.152 0.081,-0.228 0.055,-0.14 0.115,-0.279 0.172,-0.418 0.129,-0.485 0.268,-0.968 0.421,-1.447 0.036,-0.111 0.095,-0.197 0.167,-0.264 0.016,-0.044 0.036,-0.088 0.063,-0.131 0.057,-0.093 0.109,-0.188 0.164,-0.281 0.061,-0.14 0.123,-0.281 0.187,-0.42 0.006,-0.018 0.013,-0.036 0.02,-0.055 0.021,-0.057 0.047,-0.106 0.076,-0.152 0.206,-0.443 0.419,-0.882 0.645,-1.317 0.101,-0.195 0.257,-0.313 0.427,-0.369 0.052,-0.066 0.103,-0.133 0.154,-0.2 0.189,-0.295 0.39,-0.582 0.614,-0.852 0.093,-0.114 0.191,-0.222 0.291,-0.327 0.019,-0.024 0.037,-0.048 0.055,-0.072 0.057,-0.073 0.12,-0.128 0.186,-0.17 0.304,-0.287 0.632,-0.541 0.978,-0.767 0.604,-0.342 1.199,-0.662 1.813,-0.937 0.012,0.008 0.024,0.015 0.035,0.024 0.313,-0.114 0.631,-0.216 0.953,-0.305 0.1,-0.049 0.196,-0.073 0.287,-0.076 0.021,-0.005 0.042,-0.01 0.064,-0.016 0.087,-0.086 0.202,-0.148 0.346,-0.169 0.286,-0.042 0.573,-0.084 0.859,-0.127 0.322,-0.075 0.646,-0.143 0.973,-0.201 0.05,-0.009 0.099,-0.011 0.146,-0.009 0.221,-0.032 0.444,-0.058 0.667,-0.078 0.017,-0.023 0.036,-0.045 0.056,-0.066 1.009,-0.067 2.04,-0.01 2.94,0.33 0.184,0.091 0.368,0.181 0.571,0.244 0.053,0.016 0.104,0.024 0.154,0.026 0.107,0.086 0.169,0.201 0.192,0.326 0.05,-0.029 0.135,0 0.133,0.079 -0.002,0.093 -0.002,0.185 -0.003,0.278 0.176,0.085 0.31,0.24 0.331,0.471 0.051,0.562 0.101,1.124 0.152,1.686 -0.008,0.002 -0.015,0.006 -0.022,0.009 0.025,0.055 0.025,0.125 0.023,0.266 -0.002,0.087 -0.007,0.173 -0.011,0.26 0.069,-0.006 0.134,0.02 0.171,0.103 0.026,0.059 0.014,0.125 -0.034,0.169 -0.012,0.011 -0.113,0.05 -0.158,0.054 -0.003,0.045 -0.007,0.09 -0.011,0.135 0.011,0.004 0.022,0.007 0.033,0.012 0.058,0.029 0.077,0.1 0.026,0.146 -0.014,0.013 -0.028,0.025 -0.041,0.038 0.007,0.002 0.013,0.005 0.02,0.009 0.02,-0.002 0.039,-0.003 0.059,-0.005 0.066,0.036 0.146,0.042 0.215,0.016 0.022,0.024 0.034,0.06 0.02,0.088"
             style="fill:#000000;fill-opacity:1;fill-rule:nonzero;stroke:none"
             id="path56084" />
        </g>
      </g>
    </g>
  </g>
</svg>
