<?xml version="1.0" encoding="UTF-8" standalone="no"?>
<!-- Created with Inkscape (http://www.inkscape.org/) -->

<svg
   width="23.876556"
   height="24"
   viewBox="0 0 6.3173387 6.35"
   version="1.1"
   id="svg56859"
   inkscape:version="1.2.1 (9c6d41e4, 2022-07-14)"
   sodipodi:docname="for-greater-good.svg"
   xmlns:inkscape="http://www.inkscape.org/namespaces/inkscape"
   xmlns:sodipodi="http://sodipodi.sourceforge.net/DTD/sodipodi-0.dtd"
   xmlns="http://www.w3.org/2000/svg"
   xmlns:svg="http://www.w3.org/2000/svg">
  <sodipodi:namedview
     id="namedview56861"
     pagecolor="#505050"
     bordercolor="#eeeeee"
     borderopacity="1"
     inkscape:showpageshadow="0"
     inkscape:pageopacity="0"
     inkscape:pagecheckerboard="0"
     inkscape:deskcolor="#505050"
     inkscape:document-units="mm"
     showgrid="false"
     inkscape:zoom="0.7046647"
     inkscape:cx="114.94829"
     inkscape:cy="232.02524"
     inkscape:window-width="1390"
     inkscape:window-height="941"
     inkscape:window-x="0"
     inkscape:window-y="25"
     inkscape:window-maximized="0"
     inkscape:current-layer="layer1" />
  <defs
     id="defs56856">
    <clipPath
       clipPathUnits="userSpaceOnUse"
       id="clipPath28793">
      <path
         d="M 45.631,419.821 H 70.33 V 444.52 H 45.631 Z"
         id="path28791" />
    </clipPath>
  </defs>
  <g
     inkscape:label="Layer 1"
     inkscape:groupmode="layer"
     id="layer1"
     transform="translate(-74.70617,-87.452809)">
    <g
       id="g28787"
       transform="matrix(0.2957362,0,0,-0.2957362,60.717926,218.43633)">
      <g
         id="g28789"
         clip-path="url(#clipPath28793)">
        <g
           id="g28795"
           transform="translate(53.8945,432.759)">
          <path
             d="m 0,0 c -0.004,0.009 -0.008,0.017 -0.011,0.026 0.015,-0.02 0.017,-0.053 0.022,-0.077 0.033,-0.159 0.047,-0.322 0.072,-0.483 0.02,-0.124 0.038,-0.248 0.056,-0.373 0.007,-0.054 0.004,-0.144 0.041,-0.19 0.058,-0.069 0.111,-0.016 0.156,0.029 0.075,0.075 0.155,0.122 0.25,0.173 0.104,0.057 0.164,0.13 0.207,0.234 0.031,0.078 0.077,0.177 0.075,0.26 C 0.867,-0.321 0.78,-0.232 0.747,-0.156 0.726,-0.105 0.682,0.012 0.708,0.072 0.722,0.105 0.797,0.122 0.83,0.145 0.882,0.182 0.911,0.221 0.979,0.239 1.049,0.257 1.112,0.27 1.182,0.293 1.256,0.318 1.329,0.309 1.404,0.322 1.46,0.332 1.507,0.364 1.55,0.396 1.604,0.435 1.61,0.485 1.596,0.546 1.587,0.584 1.567,0.62 1.559,0.658 1.546,0.71 1.546,0.764 1.535,0.816 1.528,0.848 1.518,0.902 1.489,0.924 1.395,0.994 1.185,0.89 1.094,0.875 0.9,0.844 0.693,0.871 0.503,0.9 0.434,0.911 0.363,0.913 0.295,0.924 0.244,0.932 0.189,0.955 0.141,0.975 0.002,1.031 -0.159,1.009 -0.306,1.044 -0.399,1.066 -0.48,1.11 -0.574,1.127 -0.68,1.147 -0.787,1.158 -0.892,1.179 -1.009,1.203 -1.121,1.2 -1.239,1.209 c -0.116,0.009 -0.232,0.032 -0.35,0.042 -0.316,0.025 -0.64,0.008 -0.957,0.007 -0.152,0 -0.302,0.018 -0.454,0.028 -0.15,0.011 -0.299,0.008 -0.449,0.008 -0.152,0 -0.31,-0.01 -0.461,0.004 -0.12,0.012 -0.237,0.015 -0.358,0.014 -0.151,-0.001 -0.3,0.017 -0.45,0.019 C -4.884,1.333 -5.051,1.33 -5.217,1.33 -5.395,1.33 -5.588,1.312 -5.763,1.34 -5.858,1.354 -5.965,1.408 -6.061,1.4 -6.066,1.347 -6.062,1.302 -6.08,1.247 -6.137,1.074 -6.247,0.91 -6.327,0.744 -6.41,0.572 -6.484,0.397 -6.568,0.225 -6.591,0.179 -6.62,0.131 -6.555,0.105 c 0.104,-0.042 0.228,0.001 0.329,0.026 0.158,0.039 0.327,0.092 0.492,0.099 0.108,0.005 0.21,-0.008 0.317,-0.016 0.084,-0.006 0.175,0.012 0.258,-0.004 -0.048,-0.074 -0.091,-0.149 -0.144,-0.221 -0.103,-0.141 -0.17,-0.288 -0.245,-0.44 -0.037,-0.075 -0.069,-0.148 -0.111,-0.22 -0.034,-0.058 -0.067,-0.122 -0.081,-0.186 -0.008,-0.034 -0.008,-0.068 -0.022,-0.1 -0.128,-0.298 -0.227,-0.604 -0.336,-0.908 -0.051,-0.139 -0.138,-0.296 -0.141,-0.444 -0.001,-0.059 -0.014,-0.115 0.039,-0.156 0.111,-0.084 0.292,-0.072 0.425,-0.072 0.14,0 0.275,0.009 0.407,0.054 0.08,0.028 0.058,0.095 0.071,0.164 0.046,0.255 0.106,0.51 0.183,0.758 0.058,0.188 0.114,0.388 0.218,0.559 0.067,0.11 0.136,0.218 0.206,0.327 0.057,0.087 0.09,0.17 0.13,0.265 0.029,0.07 0.054,0.141 0.084,0.21 0.03,0.071 0.077,0.14 0.097,0.213 0.005,-0.023 0.01,-0.055 0.033,-0.069 0.04,-0.025 0.181,0.029 0.218,0.038 0.098,0.023 0.197,0.03 0.295,0.047 0.165,0.03 0.324,0.079 0.492,0.092 0.132,0.011 0.266,0.003 0.398,0.003 0.106,0 0.212,0.004 0.318,-0.004 0.292,-0.022 0.583,-0.003 0.875,-0.015 0.116,-0.004 0.227,-0.03 0.342,-0.034 0.135,-0.005 0.254,-0.027 0.383,-0.055 0.076,-0.016 0.146,-0.012 0.223,-0.02 0.073,-0.007 0.136,-0.034 0.207,-0.046 0.082,-0.015 0.176,-0.003 0.259,-0.003 0.04,0 0.083,-0.006 0.122,0.002 0.049,0.01 0.088,0.056 0.142,0.049 C -0.098,-0.019 -0.13,-0.023 0,0"
             style="fill:#231f20;fill-opacity:1;fill-rule:nonzero;stroke:none"
             id="path28797" />
        </g>
        <g
           id="g28799"
           transform="translate(50.8044,434.855)">
          <path
             d="M 0,0 C 0.087,-0.022 0.117,-0.023 0.198,0.012 0.272,0.043 0.347,0.08 0.409,0.127 0.538,0.227 0.56,0.437 0.487,0.574 0.432,0.677 0.32,0.768 0.212,0.825 0.038,0.918 -0.151,0.889 -0.332,0.819 -0.401,0.792 -0.496,0.787 -0.554,0.745 -0.616,0.699 -0.64,0.601 -0.659,0.534 -0.688,0.436 -0.742,0.303 -0.721,0.201 c 0.037,-0.173 0.232,-0.213 0.385,-0.276 0.037,-0.016 0.072,-0.04 0.11,-0.052 C -0.161,-0.147 -0.086,-0.156 0,0"
             style="fill:#231f20;fill-opacity:1;fill-rule:nonzero;stroke:none"
             id="path28801" />
        </g>
        <g
           id="g28803"
           transform="translate(52.8666,434.787)">
          <path
             d="M 0,0 C -0.072,-0.057 0.02,-0.069 0.078,-0.082 0.212,-0.111 0.321,-0.115 0.411,-0.008 0.583,0.197 0.581,0.517 0.346,0.687 0.21,0.785 -0.07,0.752 -0.227,0.717 -0.367,0.685 -0.435,0.648 -0.499,0.533 -0.532,0.475 -0.567,0.415 -0.531,0.351 -0.495,0.287 -0.414,0.219 -0.362,0.168 -0.221,0.025 -0.059,0.016 0.132,-0.05"
             style="fill:#231f20;fill-opacity:1;fill-rule:nonzero;stroke:none"
             id="path28805" />
        </g>
        <g
           id="g28807"
           transform="translate(66.3524,434.465)">
          <path
             d="m 0,0 c -0.084,0.12 0.057,0.108 0.149,0.109 0.21,0.001 0.373,-0.03 0.466,-0.241 0.176,-0.399 0.048,-0.928 -0.368,-1.127 -0.242,-0.115 -0.645,0.038 -0.865,0.151 -0.195,0.101 -0.282,0.188 -0.333,0.4 -0.026,0.107 -0.055,0.219 0.024,0.313 0.078,0.092 0.225,0.177 0.322,0.245 0.267,0.186 0.511,0.144 0.821,0.186"
             style="fill:#231f20;fill-opacity:1;fill-rule:nonzero;stroke:none"
             id="path28809" />
        </g>
        <g
           id="g28811"
           transform="translate(59.0663,435.125)">
          <path
             d="M 0,0 C 0,0.085 -0.012,0.182 0.002,0.267 0.024,0.398 0.084,0.522 0.114,0.652 0.139,0.763 0.149,0.879 0.165,0.992 0.196,1.203 0.236,1.413 0.29,1.62 0.355,1.869 0.433,2.114 0.483,2.367 0.509,2.499 0.528,2.629 0.543,2.762 0.553,2.848 0.578,2.92 0.601,3.002 0.613,3.046 0.621,3.089 0.602,3.13 0.574,3.191 0.483,3.253 0.419,3.258 0.354,3.262 0.299,3.237 0.238,3.218 0.148,3.188 0.06,3.175 -0.036,3.173 -0.24,3.17 -0.443,3.23 -0.647,3.223 -0.832,3.217 -0.987,3.097 -1.17,3.079 -1.301,3.066 -1.434,3.079 -1.566,3.065 -1.681,3.053 -1.796,3.034 -1.912,3.038 -2.009,3.041 -2.105,3.075 -2.201,3.09 -2.302,3.106 -2.387,3.081 -2.486,3.078 -2.495,3.046 -2.434,2.955 -2.428,2.943 -2.354,2.794 -2.298,2.638 -2.229,2.487 -2.171,2.36 -2.108,2.235 -2.061,2.103 -2.02,1.987 -1.989,1.869 -1.952,1.752 -1.883,1.533 -1.801,1.326 -1.715,1.115 -1.661,0.981 -1.661,0.84 -1.618,0.705 -1.58,0.584 -1.588,0.456 -1.555,0.334 -1.529,0.245 -1.474,0.171 -1.458,0.082 -1.432,0.075 -1.405,0.075 -1.382,0.069 -1.359,0.063 -1.341,0.061 -1.315,0.06 c 0.091,-0.005 0.156,-0.029 0.247,0.002 0.121,0.041 0.242,0.086 0.37,0.095 0.141,0.01 0.307,0.015 0.443,-0.014 0.056,-0.012 0.12,0.009 0.174,-0.009 -0.027,-0.062 -0.026,-0.141 -0.047,-0.211 -0.018,-0.056 -0.03,-0.102 -0.031,-0.161 -0.001,-0.068 0.009,-0.133 -0.01,-0.198 -0.01,-0.033 -0.023,-0.062 -0.028,-0.097 -0.005,-0.039 0.006,-0.078 0.001,-0.116 -0.004,-0.028 -0.014,-0.053 -0.04,-0.063 -0.023,-0.009 -0.08,0.001 -0.104,0.001 -0.13,-0.001 -0.25,0.032 -0.379,0.04 -0.082,0.005 -0.159,-0.019 -0.241,-0.021 -0.084,-0.001 -0.173,-0.005 -0.257,0.003 -0.058,0.005 -0.11,0.017 -0.168,0.017 -0.072,0 -0.126,0.038 -0.195,0.042 -0.013,0.001 -0.087,0.008 -0.096,-0.004 -0.02,-0.024 0.06,-0.123 0.072,-0.146 0.051,-0.104 0.087,-0.194 0.084,-0.308 0,-0.033 0.018,-0.139 -0.013,-0.155 -0.01,0.035 -0.036,0.037 -0.066,0.039 -0.076,0.007 -0.151,0.02 -0.226,0.03 -0.077,0.011 -0.165,-0.006 -0.239,0.01 -0.043,0.009 -0.117,0.043 -0.142,0.085 -0.018,0.03 -0.015,0.11 -0.019,0.139 -0.012,0.083 -0.021,0.166 -0.029,0.25 -0.016,0.163 -0.043,0.325 -0.052,0.489 -0.006,0.113 10e-4,0.226 -0.02,0.338 -0.043,0.234 -0.16,0.448 -0.237,0.672 -0.032,0.091 -0.051,0.185 -0.079,0.278 -0.038,0.125 -0.075,0.251 -0.122,0.374 -0.04,0.106 -0.096,0.204 -0.128,0.313 -0.07,0.241 -0.145,0.486 -0.201,0.731 -0.036,0.153 -0.079,0.302 -0.131,0.45 -0.021,0.062 -0.057,0.041 -0.116,0.05 -0.157,0.021 -0.307,0.015 -0.464,-10e-4 -0.198,-0.02 -0.371,0.038 -0.544,0.132 -0.031,0.016 -0.06,0.034 -0.093,0.042 -0.035,0.008 -0.045,0.004 -0.071,0.034 -0.056,0.064 -0.107,0.128 -0.17,0.184 -0.039,0.036 -0.087,0.066 -0.11,0.116 0.159,0.021 0.293,0.131 0.453,0.153 0.104,0.015 0.212,0.007 0.317,0.016 0.085,0.007 0.17,0.019 0.255,0.03 0.059,0.007 0.132,0.031 0.194,0.021 0.042,-0.007 0.096,-0.079 0.137,-0.058 0.005,0.025 -0.024,0.037 -0.034,0.057 -0.026,0.053 -0.02,0.153 -0.027,0.206 -0.012,0.088 -0.041,0.172 -0.051,0.26 -0.013,0.106 -0.025,0.21 -0.044,0.315 -0.04,0.22 -0.103,0.43 -0.177,0.641 -0.052,0.15 -0.115,0.294 -0.156,0.447 -0.036,0.132 -0.065,0.265 -0.09,0.399 -0.032,0.169 -0.062,0.342 -0.108,0.507 -0.059,0.212 -0.143,0.419 -0.226,0.623 -0.029,0.073 -0.062,0.141 -0.085,0.216 -0.033,0.103 -0.103,0.186 -0.141,0.288 0.051,0.026 0.127,0.027 0.183,0.046 0.107,0.035 0.212,0.074 0.325,0.078 0.078,0.003 0.156,-0.005 0.234,-10e-4 0.043,0.002 0.112,0.035 0.153,0.023 0.048,-0.014 0.026,-0.065 0.031,-0.118 0.012,-0.127 0.049,-0.248 0.09,-0.368 0.11,-0.319 0.195,-0.647 0.317,-0.962 0.108,-0.28 0.168,-0.574 0.27,-0.856 0.071,-0.197 0.148,-0.396 0.189,-0.602 0.031,-0.158 0.067,-0.321 0.118,-0.474 0.032,-0.095 0.07,-0.182 0.094,-0.28 0.024,-0.095 0.058,-0.093 0.141,-0.123 0.07,-0.026 0.136,-0.063 0.209,-0.081 0.078,-0.018 0.169,-0.012 0.248,-0.005 0.078,0.006 0.147,0.023 0.225,0.014 0.07,-0.007 0.139,-0.023 0.209,-0.032 0.118,-0.015 0.262,-0.015 0.381,10e-4 0.14,0.018 0.28,0.004 0.418,0.025 0.097,0.015 0.186,0.015 0.281,-0.013 0.109,-0.033 0.196,-0.059 0.312,-0.057 0.173,0.003 0.346,0.001 0.52,0.001 0.038,0 0.135,-0.021 0.159,0.009 C 0.553,3.884 0.518,3.985 0.515,4.012 0.494,4.202 0.586,4.399 0.636,4.579 0.705,4.83 0.758,5.082 0.813,5.337 0.854,5.525 0.926,5.702 0.985,5.885 1.036,6.039 1.057,6.202 1.074,6.364 1.086,6.479 1.095,6.594 1.113,6.709 1.138,6.872 1.188,7.028 1.22,7.188 1.239,7.279 1.255,7.371 1.273,7.463 1.289,7.541 1.316,7.618 1.324,7.698 1.346,7.704 1.365,7.696 1.38,7.673 1.431,7.63 1.487,7.594 1.547,7.563 1.627,7.522 1.732,7.475 1.823,7.463 1.91,7.45 2.002,7.464 2.09,7.463 2.141,7.461 2.174,7.454 2.19,7.398 2.222,7.282 2.169,7.12 2.153,7.006 2.126,6.814 2.101,6.621 2.055,6.432 2.005,6.227 1.923,6.032 1.869,5.828 1.833,5.695 1.82,5.561 1.816,5.423 1.805,5.062 1.679,4.73 1.538,4.403 1.501,4.318 1.479,4.227 1.44,4.143 1.419,4.098 1.409,4.042 1.423,3.989 1.499,3.971 1.605,3.985 1.679,3.998 1.756,4.011 1.831,4.035 1.909,4.044 2.005,4.055 2.107,4.032 2.201,4.021 2.331,4.006 2.458,4.006 2.588,4.007 2.651,4.008 2.701,3.989 2.76,3.987 2.781,3.913 2.758,3.816 2.745,3.743 2.727,3.643 2.707,3.542 2.684,3.443 2.668,3.386 2.656,3.329 2.648,3.27 2.646,3.22 2.644,3.17 2.641,3.119 2.636,3.08 2.628,3.028 2.585,3.016 2.548,3.017 2.51,3.02 2.472,3.024 2.409,3.034 2.345,3.039 2.281,3.041 2.178,3.042 2.077,3.036 1.975,3.044 1.865,3.052 1.753,3.049 1.644,3.061 1.572,3.069 1.513,3.084 1.44,3.076 1.368,3.067 1.267,3.054 1.285,2.958 1.293,2.918 1.329,2.884 1.339,2.844 1.36,2.764 1.342,2.662 1.342,2.579 1.343,2.409 1.331,2.237 1.292,2.071 1.215,1.744 1.157,1.413 1.084,1.085 1.05,0.937 0.999,0.793 0.962,0.646 0.933,0.532 0.902,0.42 0.868,0.308 0.815,0.132 0.808,-0.045 0.773,-0.224 0.747,-0.352 0.683,-0.457 0.635,-0.577 0.543,-0.808 0.49,-1.057 0.434,-1.298 0.385,-1.506 0.381,-1.722 0.316,-1.927 0.279,-2.04 0.226,-2.149 0.202,-2.265 0.175,-2.394 0.156,-2.535 0.104,-2.657 c -0.009,-0.02 -0.039,-0.111 -0.06,-0.13 -0.032,-0.028 -0.041,-0.009 -0.089,0 -0.07,0.012 -0.144,0.004 -0.215,0.004 -0.039,0 -0.095,-0.01 -0.133,10e-4 0.001,0.033 0.019,0.069 0.026,0.101 0.028,0.118 0.042,0.24 0.065,0.359 0.026,0.127 0.068,0.254 0.081,0.384 0.008,0.074 0.014,0.146 0.027,0.22 0.028,0.155 0.065,0.315 0.115,0.465 0.039,0.117 0.056,0.233 0.078,0.354 0.023,0.127 0.064,0.249 0.088,0.375 0.021,0.112 0.037,0.224 0.059,0.336 0.018,0.095 0.034,0.192 0.05,0.287 C 0.208,0.165 0.182,0.229 0.177,0.295 0.119,0.227 0.062,0.164 0,0"
             style="fill:#231f20;fill-opacity:1;fill-rule:nonzero;stroke:none"
             id="path28813" />
        </g>
        <g
           id="g28815"
           transform="translate(62.1251,433.808)">
          <path
             d="M 0,0 C 0.045,-0.007 0.125,-0.032 0.176,-0.019 0.253,0.001 0.327,0.066 0.397,0.104 0.555,0.191 0.733,0.229 0.894,0.313 1.042,0.39 1.176,0.49 1.318,0.577 1.542,0.715 1.784,0.817 2.007,0.957 2.17,1.058 2.328,1.149 2.502,1.228 2.725,1.33 2.934,1.452 3.095,1.64 3.208,1.771 3.31,1.887 3.446,1.995 3.663,2.169 3.841,2.381 4.038,2.576 4.11,2.647 4.16,2.746 4.241,2.809 4.267,2.829 4.336,2.868 4.372,2.862 4.411,2.856 4.4,2.836 4.405,2.793 4.419,2.658 4.443,2.519 4.471,2.386 4.507,2.217 4.576,2.058 4.631,1.894 4.653,1.829 4.724,1.678 4.716,1.599 4.664,1.599 4.634,1.588 4.588,1.559 4.467,1.482 4.371,1.373 4.249,1.298 4.188,1.26 4.128,1.244 4.058,1.233 3.956,1.219 3.875,1.186 3.782,1.142 3.694,1.101 3.609,1.056 3.518,1.023 3.444,0.995 3.368,0.975 3.295,0.944 3.226,0.914 3.161,0.879 3.091,0.852 3.013,0.821 2.932,0.811 2.852,0.786 2.733,0.749 2.614,0.694 2.505,0.633 2.411,0.579 2.334,0.504 2.241,0.448 2.191,0.418 2.146,0.398 2.094,0.374 2.031,0.346 2,0.311 1.951,0.263 1.807,0.122 1.636,-0.024 1.463,-0.126 1.299,-0.223 1.142,-0.327 0.973,-0.418 0.831,-0.495 0.707,-0.589 0.583,-0.691 0.528,-0.736 0.469,-0.772 0.416,-0.818 0.354,-0.871 0.28,-0.936 0.204,-0.969 0.185,-0.977 0.123,-0.98 0.138,-1.015 c 0.011,-0.025 0.1,-0.03 0.117,-0.031 0.155,-0.01 0.307,-0.042 0.462,-0.061 0.235,-0.029 0.472,-0.017 0.709,-0.018 0.329,-10e-4 0.656,0.024 0.985,0.021 0.158,-10e-4 0.309,-0.04 0.466,-0.057 0.174,-0.019 0.353,-0.039 0.527,-0.044 0.302,-0.009 0.608,0.021 0.909,-0.009 0.176,-0.018 0.356,-0.062 0.525,-0.111 0.18,-0.052 0.333,-0.153 0.519,-0.184 0.053,-0.01 0.107,-0.011 0.161,-0.012 0.033,-0.001 0.077,-0.01 0.108,0.002 0.101,0.039 0.082,0.212 0.08,0.293 C 5.702,-0.981 5.678,-0.74 5.646,-0.497 5.609,-0.212 5.539,0.066 5.506,0.352 5.459,0.749 5.392,1.127 5.27,1.508 5.174,1.807 5.091,2.115 5.014,2.418 4.979,2.556 4.921,2.683 4.899,2.824 4.892,2.869 4.885,2.915 4.879,2.96 4.877,2.977 4.882,3.02 4.878,3.037 4.848,3.163 4.73,3.262 4.699,3.388 4.769,3.355 4.862,3.381 4.936,3.378 5.042,3.373 5.137,3.321 5.242,3.316 5.317,3.313 5.417,3.298 5.49,3.323 5.549,3.344 5.626,3.452 5.685,3.394 5.733,3.347 5.738,3.25 5.743,3.19 5.757,3.04 5.797,2.89 5.835,2.744 5.927,2.392 6.042,2.045 6.134,1.693 6.18,1.518 6.222,1.341 6.258,1.164 6.304,0.935 6.327,0.703 6.364,0.472 6.418,0.143 6.471,-0.18 6.5,-0.513 6.509,-0.62 6.515,-0.726 6.513,-0.834 6.512,-0.997 6.533,-1.158 6.534,-1.321 6.536,-1.55 6.533,-1.779 6.533,-2.008 6.533,-2.121 6.542,-2.237 6.529,-2.35 6.524,-2.399 6.526,-2.472 6.476,-2.489 6.426,-2.507 6.311,-2.452 6.257,-2.443 6.139,-2.424 6.022,-2.397 5.904,-2.378 5.747,-2.353 5.596,-2.341 5.443,-2.293 5.232,-2.228 5.039,-2.122 4.826,-2.067 4.624,-2.015 4.421,-1.993 4.223,-1.925 4.085,-1.878 3.953,-1.823 3.807,-1.808 3.7,-1.797 3.592,-1.803 3.486,-1.792 3.386,-1.782 3.293,-1.75 3.192,-1.757 3.099,-1.763 3.009,-1.783 2.919,-1.807 2.799,-1.838 2.679,-1.837 2.556,-1.836 2.308,-1.834 2.051,-1.857 1.806,-1.824 1.511,-1.785 1.212,-1.781 0.925,-1.702 0.807,-1.669 0.687,-1.646 0.566,-1.628 0.419,-1.605 0.27,-1.606 0.124,-1.581 c -0.137,0.023 -0.27,0.065 -0.407,0.092 -0.108,0.022 -0.22,0.025 -0.328,0.047 -0.12,0.025 -0.238,0.056 -0.358,0.076 -0.071,0.012 -0.145,0.013 -0.215,0.027 -0.016,0.041 0.035,0.064 0.061,0.084 0.092,0.071 0.192,0.125 0.28,0.202 0.121,0.106 0.217,0.234 0.31,0.364 0.07,0.099 0.146,0.196 0.209,0.3 0.043,0.07 0.082,0.143 0.122,0.216 0.038,0.07 0.06,0.151 0.108,0.216 0.042,0.055 0.098,0.119 0.15,0.162 0.064,0.053 0.163,0.032 0.24,0.032"
             style="fill:#231f20;fill-opacity:1;fill-rule:nonzero;stroke:none"
             id="path28817" />
        </g>
        <g
           id="g28819"
           transform="translate(57.1592,429.275)">
          <path
             d="m 0,0 v 0.014 c 0,-0.435 -0.027,-0.86 -0.079,-1.293 -0.038,-0.316 -0.065,-0.633 -0.083,-0.951 -0.014,-0.237 -0.043,-0.473 -0.052,-0.711 -0.007,-0.208 -0.008,-0.412 -0.022,-0.62 -0.015,-0.214 -0.021,-0.429 -0.04,-0.643 -0.015,-0.175 -0.035,-0.348 -0.038,-0.523 -0.004,-0.176 -0.011,-0.35 -0.017,-0.525 -0.005,-0.147 -0.002,-0.291 -0.023,-0.436 -0.014,-0.092 -0.029,-0.182 -0.037,-0.275 -0.013,-0.154 -0.005,-0.312 -0.026,-0.466 -0.017,-0.119 -0.061,-0.23 -0.079,-0.349 -0.012,-0.084 -0.015,-0.169 -0.037,-0.251 -0.025,-0.094 -0.034,-0.191 -0.06,-0.285 -0.03,-0.114 -0.019,-0.231 -0.019,-0.348 0,-0.043 -0.007,-0.093 0,-0.136 0.007,-0.048 0.027,-0.044 0.08,-0.04 0.109,0.007 0.218,0.092 0.322,0.126 0.14,0.046 0.293,0.094 0.439,0.111 0.026,0.003 0.056,-0.007 0.07,0.02 0.005,0.009 -0.003,0.105 -0.003,0.103 -0.001,0.066 -0.001,0.131 0.003,0.197 0.012,0.213 0.078,0.412 0.109,0.621 0.025,0.167 0.029,0.354 0.026,0.523 -0.002,0.133 0.021,0.264 0.02,0.396 -0.001,0.139 0.001,0.278 -0.001,0.416 -0.001,0.134 0.021,0.266 0.021,0.4 0,0.04 -0.006,0.09 -0.001,0.129 0.007,0.049 0.014,0.036 0.057,0.039 0.104,0.006 0.204,0.024 0.309,0.021 0.056,-0.002 0.108,-0.009 0.164,-0.017 0.088,-0.011 0.149,0.019 0.234,0.033 0.131,0.021 0.27,-0.018 0.402,-0.018 0.063,0.001 0.126,0.001 0.189,0.001 0.047,-0.001 0.103,-0.011 0.149,0.003 0.038,0.011 0.062,0.042 0.098,0.057 0.033,0.014 0.068,0.018 0.103,0.025 C 2.257,-4.636 2.35,-4.599 2.429,-4.6 2.49,-4.601 2.517,-4.622 2.564,-4.655 2.604,-4.683 2.596,-4.667 2.64,-4.677 2.679,-4.685 2.721,-4.721 2.745,-4.753 2.767,-4.782 2.764,-4.8 2.763,-4.84 2.762,-5.038 2.776,-5.216 2.837,-5.405 2.9,-5.6 2.918,-5.805 2.961,-6.005 2.987,-6.13 3.006,-6.258 3.024,-6.384 3.048,-6.543 3.094,-6.699 3.12,-6.857 3.143,-6.999 3.131,-7.139 3.153,-7.28 3.16,-7.325 3.168,-7.586 3.275,-7.557 c 0.013,0.004 0.033,0.028 0.048,0.034 0.08,0.031 0.192,-0.011 0.268,-0.031 0.159,-0.042 0.324,-0.055 0.489,-0.047 0.051,0.003 0.067,0.026 0.115,0.042 0.057,0.02 0.112,0.017 0.17,0.019 0.038,0.001 0.083,-0.009 0.115,0.021 0.044,0.04 0.015,0.11 0,0.155 -0.073,0.227 -0.177,0.437 -0.233,0.671 -0.053,0.215 -0.087,0.435 -0.146,0.648 -0.039,0.138 -0.082,0.275 -0.115,0.415 -0.033,0.142 -0.074,0.277 -0.118,0.416 -0.05,0.158 -0.082,0.322 -0.138,0.479 -0.013,0.036 -0.033,0.056 -0.003,0.078 0.012,0.009 0.094,0.001 0.109,0 0.057,-0.002 0.111,-0.019 0.167,-0.029 0.153,-0.029 0.319,-0.012 0.474,-0.012 0.142,0 0.294,-0.017 0.432,0.019 0.058,0.015 0.115,0.033 0.172,0.051 0.045,0.014 0.105,0.022 0.145,0.044 0.052,0.03 0.007,0.047 -0.011,0.091 C 5.161,-4.362 5.192,-4.19 5.191,-4.052 5.19,-4.018 5.189,-3.985 5.196,-3.951 5.2,-3.925 5.229,-3.858 5.208,-3.832 5.19,-3.809 5.055,-3.827 5.031,-3.828 4.91,-3.83 4.794,-3.874 4.673,-3.884 4.608,-3.889 4.541,-3.88 4.48,-3.907 4.437,-3.926 4.402,-3.942 4.354,-3.947 4.262,-3.956 4.175,-3.967 4.084,-3.983 3.997,-3.999 3.829,-3.984 3.765,-3.91 3.736,-3.876 3.714,-3.817 3.71,-3.773 3.694,-3.62 3.718,-3.476 3.681,-3.324 3.649,-3.19 3.633,-3.055 3.612,-2.919 c -0.014,0.098 -0.06,0.192 -0.075,0.291 -0.013,0.087 -0.009,0.176 -0.029,0.264 -0.013,0.055 -0.014,0.097 -0.014,0.154 0,0.04 -0.001,0.079 0,0.118 0,0.048 -0.016,0.077 -0.034,0.121 -0.079,0.191 -0.109,0.389 -0.155,0.589 -0.027,0.117 -0.078,0.224 -0.092,0.342 -0.018,0.156 -0.085,0.29 -0.131,0.438 -0.016,0.053 -0.021,0.097 -0.028,0.15 -0.018,0.14 -0.046,0.28 -0.073,0.418 C 2.962,0.061 2.937,0.155 2.92,0.252 2.901,0.371 2.89,0.492 2.864,0.61 2.786,0.957 2.688,1.298 2.589,1.64 2.564,1.724 2.557,1.811 2.541,1.897 2.526,1.973 2.54,2.052 2.523,2.126 2.488,2.132 2.444,2.092 2.412,2.078 2.346,2.048 2.274,2.029 2.205,2.012 2.144,1.996 2.077,1.986 2.013,1.991 1.943,1.995 1.881,2.054 1.816,2.053 1.795,1.997 1.845,1.85 1.854,1.8 1.876,1.684 1.9,1.569 1.919,1.454 1.951,1.263 1.994,1.075 2.015,0.882 2.031,0.741 2.031,0.604 2.032,0.463 2.034,0.234 2.059,0.007 2.069,-0.221 2.074,-0.353 2.069,-0.485 2.071,-0.617 2.074,-0.777 2.103,-0.936 2.12,-1.095 2.137,-1.258 2.141,-1.421 2.155,-1.584 2.168,-1.728 2.193,-1.87 2.207,-2.013 2.222,-2.165 2.228,-2.319 2.25,-2.47 2.263,-2.566 2.289,-2.658 2.291,-2.754 2.293,-2.855 2.286,-2.944 2.308,-3.044 2.367,-3.301 2.424,-3.571 2.541,-3.809 2.404,-3.819 2.273,-3.772 2.137,-3.768 1.953,-3.763 1.757,-3.753 1.574,-3.773 1.419,-3.79 1.279,-3.868 1.123,-3.888 1.074,-3.894 1.061,-3.907 1.017,-3.928 0.983,-3.945 0.946,-3.948 0.912,-3.962 0.876,-3.977 0.844,-3.998 0.808,-4.013 0.789,-4.02 0.766,-4.02 0.749,-4.026 0.716,-4.038 0.709,-4.061 0.671,-4.066 0.597,-4.077 0.574,-4.039 0.572,-3.973 c -0.004,0.163 0.007,0.318 0.032,0.478 0.025,0.154 0.021,0.311 0.047,0.465 0.019,0.114 0.037,0.219 0.04,0.336 0.008,0.292 0.041,0.582 0.039,0.875 -0.001,0.42 0,0.841 0,1.262 0,0.214 -0.012,0.444 0.038,0.648 C 0.788,0.172 0.792,0.238 0.79,0.328 0.788,0.411 0.781,0.491 0.764,0.572 0.756,0.611 0.757,0.651 0.749,0.689 0.683,0.704 0.597,0.694 0.53,0.692 0.467,0.69 0.405,0.677 0.342,0.672 0.267,0.666 0.197,0.68 0.123,0.686 0.003,0.696 -0.109,0.695 -0.225,0.661 -0.321,0.633 -0.4,0.631 -0.499,0.632 -0.581,0.632 -0.682,0.613 -0.761,0.634 -0.809,0.647 -0.911,0.74 -0.946,0.666 -0.962,0.633 -0.947,0.57 -0.949,0.533 -0.953,0.429 -0.966,0.325 -0.972,0.22 -0.978,0.111 -0.981,0.001 -0.991,-0.108 c -0.007,-0.073 -0.03,-0.139 -0.036,-0.21 0.044,-0.007 0.123,0.014 0.159,0.021 0.086,0.015 0.172,0.033 0.258,0.05 0.072,0.014 0.139,0.039 0.208,0.061 0.057,0.018 0.114,0.018 0.171,0.032 0.066,0.015 0.127,0.042 0.193,0.055 0.025,0.005 0.029,-0.009 0.042,0.017 C 0.027,-0.037 -0.086,0.012 0,0"
             style="fill:#231f20;fill-opacity:1;fill-rule:nonzero;stroke:none"
             id="path28821" />
        </g>
      </g>
    </g>
  </g>
</svg>
