<?xml version="1.0" encoding="UTF-8" standalone="no"?>
<!-- Created with Inkscape (http://www.inkscape.org/) -->

<svg
   width="19.617842"
   height="24"
   viewBox="0 0 5.1905538 6.35"
   version="1.1"
   id="svg57117"
   inkscape:version="1.2.1 (9c6d41e4, 2022-07-14)"
   sodipodi:docname="in-the-clutches-of-chaos.svg"
   xmlns:inkscape="http://www.inkscape.org/namespaces/inkscape"
   xmlns:sodipodi="http://sodipodi.sourceforge.net/DTD/sodipodi-0.dtd"
   xmlns="http://www.w3.org/2000/svg"
   xmlns:svg="http://www.w3.org/2000/svg">
  <sodipodi:namedview
     id="namedview57119"
     pagecolor="#505050"
     bordercolor="#eeeeee"
     borderopacity="1"
     inkscape:showpageshadow="0"
     inkscape:pageopacity="0"
     inkscape:pagecheckerboard="0"
     inkscape:deskcolor="#505050"
     inkscape:document-units="mm"
     showgrid="false"
     inkscape:zoom="0.7046647"
     inkscape:cx="69.536618"
     inkscape:cy="200.80472"
     inkscape:window-width="1390"
     inkscape:window-height="941"
     inkscape:window-x="0"
     inkscape:window-y="25"
     inkscape:window-maximized="0"
     inkscape:current-layer="layer1" />
  <defs
     id="defs57114">
    <clipPath
       clipPathUnits="userSpaceOnUse"
       id="clipPath38553">
      <path
         d="m 328.137,256.001 h 24.699 V 280.7 h -24.699 z"
         id="path38551" />
    </clipPath>
  </defs>
  <g
     inkscape:label="Layer 1"
     inkscape:groupmode="layer"
     id="layer1"
     transform="translate(-86.577088,-95.633276)">
    <g
       id="g38547"
       transform="matrix(0.28962125,0,0,-0.28962125,-9.4398838,176.52831)">
      <g
         id="g38549"
         clip-path="url(#clipPath38553)">
        <g
           id="g38555"
           transform="translate(340.073,262.481)">
          <path
             d="m 0,0 c -0.003,0.073 -0.006,0.122 -0.056,0.179 -0.08,0.093 -0.152,0.189 -0.245,0.272 -0.175,0.158 -0.385,0.286 -0.6,0.394 -0.223,0.11 -0.443,0.234 -0.674,0.328 -0.179,0.073 -0.371,0.099 -0.554,0.158 -0.159,0.051 -0.304,0.133 -0.455,0.2 C -2.876,1.66 -3.195,1.729 -3.51,1.797 -3.637,1.825 -3.763,1.855 -3.89,1.882 -4.018,1.909 -4.12,1.963 -4.226,2.033 -4.328,2.099 -4.412,2.179 -4.5,2.26 c -0.106,0.099 -0.227,0.181 -0.342,0.271 -0.151,0.121 -0.32,0.198 -0.49,0.292 -0.179,0.098 -0.357,0.202 -0.532,0.306 -0.188,0.112 -0.363,0.236 -0.529,0.373 -0.165,0.136 -0.336,0.27 -0.464,0.436 -0.152,0.198 -0.257,0.416 -0.386,0.626 -0.075,0.121 -0.162,0.234 -0.248,0.35 -0.091,0.123 -0.209,0.226 -0.299,0.349 -0.086,0.119 -0.119,0.255 -0.149,0.393 -0.019,0.09 -0.018,0.182 -0.046,0.27 -0.019,0.059 -0.05,0.113 -0.064,0.173 -0.013,0.057 -0.016,0.115 -0.024,0.173 -0.033,0.225 -0.124,0.449 -0.211,0.66 -0.061,0.147 -0.131,0.288 -0.164,0.443 -0.039,0.181 -0.057,0.37 -0.072,0.553 -0.011,0.137 0.003,0.274 -0.009,0.411 -0.011,0.137 -0.017,0.272 -0.018,0.409 -10e-4,0.263 0.086,0.516 0.133,0.775 0.049,0.269 0.119,0.534 0.237,0.787 0.13,0.275 0.203,0.564 0.309,0.847 0.053,0.142 0.113,0.273 0.18,0.409 0.041,0.085 0.063,0.178 0.108,0.26 0.019,0.034 0.04,0.069 0.067,0.098 0.021,0.023 0.059,0.037 0.052,0.071 -0.005,-0.158 0.01,-0.315 -0.013,-0.472 -0.026,-0.174 -0.066,-0.346 -0.095,-0.519 -0.034,-0.208 -0.044,-0.421 -0.045,-0.631 0,-0.199 0.048,-0.405 0.019,-0.604 C -7.607,9.685 -7.638,9.602 -7.637,9.516 -7.636,9.433 -7.612,9.353 -7.575,9.277 -7.512,9.145 -7.466,9 -7.417,8.862 -7.39,8.784 -7.365,8.705 -7.341,8.626 -7.314,8.538 -7.314,8.46 -7.31,8.37 -7.306,8.273 -7.238,8.178 -7.189,8.094 -7.175,8.07 -7.164,8.035 -7.144,8.017 -7.128,8.002 -7.091,7.988 -7.071,7.972 -7.044,7.951 -7.022,7.924 -6.994,7.904 -6.953,7.876 -6.902,7.879 -6.859,7.858 -6.776,7.816 -6.69,7.734 -6.636,7.665 -6.562,7.57 -6.562,7.44 -6.53,7.332 c 0.057,-0.19 0.181,-0.377 0.278,-0.553 0.057,-0.105 0.13,-0.202 0.179,-0.311 0.053,-0.118 0.09,-0.242 0.163,-0.351 0.111,-0.166 0.248,-0.315 0.357,-0.482 0.1,-0.15 0.201,-0.3 0.31,-0.446 0.152,-0.204 0.375,-0.368 0.596,-0.505 0.125,-0.078 0.236,-0.164 0.345,-0.257 0.045,-0.038 0.1,-0.084 0.153,-0.113 C -4.09,4.282 -4.028,4.267 -3.971,4.229 -3.906,4.187 -3.829,4.172 -3.762,4.135 -3.725,4.114 -3.698,4.083 -3.663,4.059 -3.515,3.953 -3.368,3.833 -3.206,3.747 -3.12,3.701 -3.047,3.681 -2.95,3.666 -2.878,3.655 -2.814,3.638 -2.742,3.66 -2.519,3.729 -2.28,3.933 -2.325,4.164 -2.359,4.331 -2.481,4.519 -2.589,4.656 -2.725,4.828 -2.857,4.989 -3.022,5.138 -3.146,5.25 -3.26,5.37 -3.384,5.481 c -0.159,0.141 -0.181,0.311 -0.271,0.485 -0.054,0.103 -0.103,0.208 -0.16,0.309 -0.058,0.101 -0.13,0.196 -0.173,0.303 -0.041,0.105 -0.077,0.207 -0.128,0.308 -0.055,0.111 -0.116,0.22 -0.178,0.328 -0.093,0.163 -0.183,0.325 -0.283,0.484 -0.038,0.06 -0.071,0.121 -0.11,0.179 -0.05,0.074 -0.108,0.145 -0.141,0.228 -0.021,0.053 -0.029,0.108 -0.04,0.164 -0.019,0.092 -0.06,0.169 -0.094,0.257 -0.065,0.165 -0.073,0.344 -0.125,0.512 -0.05,0.163 -0.055,0.353 -0.054,0.522 0.001,0.202 0.009,0.402 -0.021,0.602 -0.013,0.091 -0.018,0.179 -0.023,0.27 -0.006,0.102 -0.029,0.203 -0.038,0.305 -0.011,0.127 -0.018,0.266 -0.001,0.393 0.014,0.101 0.055,0.196 0.071,0.297 0.006,0.04 0.008,0.082 0.016,0.121 0.015,0.063 0.052,0.12 0.07,0.182 0.022,0.084 0.019,0.173 0.029,0.259 0.028,0.249 0.096,0.499 0.223,0.723 0.054,0.095 0.087,0.194 0.134,0.291 0.038,0.079 0.102,0.141 0.15,0.216 0.049,0.077 0.081,0.163 0.123,0.243 0.026,0.049 0.044,0.124 0.092,0.159 0.05,-0.007 0.044,-0.093 0.045,-0.125 0.002,-0.101 -0.006,-0.202 0.003,-0.303 0.008,-0.088 0.014,-0.174 0.016,-0.263 0.003,-0.131 0.033,-0.262 0.049,-0.392 0.034,-0.281 0.073,-0.56 0.099,-0.841 0.025,-0.273 0.049,-0.545 0.125,-0.811 0.029,-0.101 0.085,-0.195 0.116,-0.296 0.035,-0.109 0.066,-0.218 0.108,-0.324 0.05,-0.124 0.113,-0.242 0.171,-0.362 0.064,-0.13 0.163,-0.233 0.252,-0.347 0.124,-0.158 0.271,-0.314 0.435,-0.438 0.05,-0.037 0.102,-0.085 0.163,-0.107 C -2.682,8.993 -2.632,9.008 -2.578,8.999 -2.501,8.987 -2.443,8.935 -2.393,8.884 -2.32,8.811 -2.24,8.751 -2.156,8.688 -1.983,8.56 -1.858,8.391 -1.743,8.218 -1.671,8.109 -1.648,7.979 -1.588,7.864 -1.52,7.733 -1.496,7.583 -1.409,7.461 -1.331,7.351 -1.279,7.208 -1.261,7.078 -1.255,7.035 -1.264,6.991 -1.255,6.949 -1.24,6.885 -1.201,6.825 -1.184,6.761 -1.143,6.611 -1.164,6.457 -1.097,6.313 -1.025,6.159 -0.968,6.001 -0.895,5.848 -0.837,5.723 -0.772,5.599 -0.705,5.479 -0.666,5.411 -0.61,5.351 -0.568,5.284 -0.526,5.217 -0.487,5.147 -0.455,5.076 -0.347,4.844 -0.263,4.6 -0.097,4.394 -0.033,4.314 0.031,4.235 0.094,4.156 0.123,4.12 0.171,4.091 0.192,4.051 0.206,4.027 0.2,3.985 0.219,3.965 0.254,3.927 0.334,3.95 0.378,3.956 0.507,3.975 0.651,3.99 0.762,4.054 0.853,4.106 0.873,4.189 0.864,4.287 0.856,4.369 0.845,4.447 0.846,4.53 0.846,4.596 0.851,4.663 0.845,4.728 0.826,4.936 0.747,5.138 0.687,5.338 0.657,5.441 0.64,5.542 0.625,5.647 0.608,5.767 0.568,5.884 0.542,6.003 0.496,6.206 0.439,6.408 0.392,6.611 0.35,6.788 0.257,6.952 0.216,7.13 0.175,7.307 0.143,7.484 0.097,7.661 0.07,7.761 0.067,7.861 0.062,7.963 0.058,8.058 0.041,8.151 0.032,8.245 0.014,8.416 0.018,8.591 0.021,8.763 0.022,8.831 0.042,8.894 0.045,8.961 0.047,9.019 0.043,9.071 0.054,9.129 0.078,9.253 0.045,9.382 0.077,9.505 c 0.018,0.071 0.054,0.137 0.075,0.207 0.034,0.117 0.043,0.239 0.09,0.353 0.046,0.111 0.094,0.216 0.118,0.333 0.03,0.15 0.035,0.301 0.032,0.453 -0.002,0.188 -0.028,0.372 -0.055,0.558 -0.022,0.161 -0.011,0.323 -0.032,0.484 -0.02,0.155 -0.054,0.307 -0.067,0.462 -0.013,0.151 -0.023,0.302 -0.037,0.452 -0.027,0.298 -0.078,0.598 -0.123,0.895 -0.018,0.116 -0.027,0.232 -0.056,0.346 -0.013,0.048 -0.061,0.13 -0.041,0.18 0.033,-0.025 0.044,-0.064 0.06,-0.099 0.034,-0.071 0.094,-0.124 0.143,-0.187 0.132,-0.171 0.247,-0.356 0.36,-0.538 0.11,-0.176 0.209,-0.346 0.273,-0.54 C 0.884,12.66 0.993,12.466 1.073,12.266 1.148,12.082 1.171,11.892 1.267,11.715 1.326,11.606 1.386,11.506 1.427,11.39 1.46,11.294 1.494,11.199 1.537,11.106 1.618,10.931 1.68,10.755 1.733,10.571 1.786,10.389 1.887,10.216 1.968,10.043 2.043,9.882 2.085,9.716 2.172,9.559 2.217,9.479 2.276,9.408 2.324,9.33 2.378,9.242 2.398,9.144 2.423,9.047 2.476,8.839 2.548,8.631 2.624,8.43 2.664,8.325 2.718,8.225 2.751,8.118 2.788,7.998 2.807,7.869 2.82,7.745 2.829,7.653 2.85,7.562 2.859,7.47 2.869,7.37 2.857,7.272 2.86,7.173 2.867,6.971 2.939,6.762 2.988,6.565 3.012,6.47 3.038,6.374 3.054,6.276 3.066,6.2 3.064,6.119 3.08,6.044 3.097,5.962 3.143,5.887 3.168,5.807 3.201,5.704 3.173,5.614 3.166,5.508 3.162,5.429 3.16,5.345 3.141,5.267 3.126,5.21 3.098,5.158 3.084,5.101 3.057,4.991 3.057,4.903 3.08,4.791 3.108,4.657 3.107,4.521 3.127,4.387 3.146,4.259 3.197,4.123 3.269,4.012 3.323,3.929 3.382,3.846 3.433,3.761 3.479,3.684 3.496,3.614 3.587,3.573 3.727,3.51 3.861,3.434 3.992,3.354 4.248,3.198 4.561,3.173 4.856,3.13 4.973,3.113 5.084,3.074 5.201,3.061 5.306,3.051 5.414,3.063 5.519,3.072 5.604,3.081 5.683,3.091 5.766,3.111 5.926,3.151 6.069,3.232 6.229,3.274 6.33,3.301 6.424,3.307 6.515,3.361 6.577,3.398 6.624,3.444 6.663,3.5 6.703,3.556 6.74,3.614 6.78,3.67 6.827,3.736 6.823,3.8 6.841,3.874 6.87,3.993 6.957,4.063 7.027,4.163 7.078,4.235 7.115,4.314 7.166,4.386 7.229,4.477 7.305,4.554 7.389,4.628 7.475,4.705 7.565,4.778 7.652,4.854 7.78,4.965 7.818,5.091 7.895,5.23 7.964,5.356 8.088,5.483 8.219,5.557 8.353,5.633 8.441,5.69 8.513,5.82 8.604,5.983 8.641,6.166 8.713,6.336 8.854,6.665 8.917,7.039 8.849,7.389 8.832,7.479 8.835,7.566 8.824,7.656 8.81,7.762 8.782,7.867 8.767,7.973 8.756,8.047 8.742,8.122 8.74,8.197 8.738,8.263 8.724,8.325 8.72,8.388 8.801,8.29 8.814,8.142 8.854,8.029 8.926,7.821 9.029,7.625 9.097,7.416 9.162,7.217 9.232,7.016 9.279,6.814 9.325,6.622 9.335,6.427 9.348,6.232 9.361,6.034 9.37,5.838 9.369,5.639 9.369,5.532 9.384,5.417 9.366,5.311 9.357,5.259 9.34,5.209 9.331,5.157 9.318,5.076 9.319,4.992 9.305,4.911 9.277,4.732 9.196,4.585 9.113,4.423 9.034,4.268 9.029,4.105 8.978,3.944 8.933,3.804 8.796,3.692 8.722,3.564 8.665,3.466 8.633,3.37 8.557,3.281 8.47,3.177 8.389,3.073 8.305,2.968 8.244,2.891 8.168,2.828 8.108,2.75 8.063,2.692 8.026,2.633 7.959,2.592 7.922,2.568 7.871,2.558 7.836,2.531 7.778,2.488 7.744,2.409 7.69,2.358 7.608,2.281 7.522,2.212 7.441,2.134 7.275,1.971 7.115,1.822 7.006,1.621 6.927,1.474 6.868,1.287 6.728,1.181 6.684,1.148 6.653,1.147 6.601,1.133 6.537,1.115 6.495,1.088 6.443,1.051 6.335,0.977 6.223,0.961 6.107,0.907 6.018,0.866 5.941,0.804 5.855,0.758 5.813,0.736 5.775,0.711 5.725,0.709 5.694,0.708 5.669,0.72 5.638,0.707 5.6,0.691 5.581,0.631 5.569,0.606 5.533,0.528 5.481,0.457 5.446,0.38 5.401,0.282 5.416,0.151 5.427,0.049 5.437,-0.044 5.481,-0.184 5.424,-0.272 5.391,-0.322 5.359,-0.325 5.355,-0.391 5.346,-0.539 5.377,-0.686 5.378,-0.834 5.38,-1.053 5.424,-1.254 5.496,-1.46 5.555,-1.629 5.689,-1.771 5.793,-1.918 5.818,-1.955 5.847,-1.991 5.864,-2.032 5.882,-2.077 5.889,-2.124 5.909,-2.169 5.942,-2.24 5.987,-2.301 6.003,-2.378 6.016,-2.443 6.017,-2.511 6.03,-2.576 6.038,-2.619 6.058,-2.664 6.053,-2.709 6.05,-2.737 6.043,-2.755 6.03,-2.779 6,-2.832 5.998,-2.808 6.015,-2.889 6.061,-3.102 6.119,-3.303 6.181,-3.512 6.225,-3.659 6.269,-3.806 6.311,-3.954 6.335,-4.042 6.355,-4.162 6.305,-4.246 6.26,-4.243 6.218,-4.229 6.173,-4.226 6.153,-4.224 6.12,-4.231 6.102,-4.224 6.065,-4.21 6.028,-4.139 6.002,-4.109 5.927,-4.025 5.86,-3.935 5.786,-3.849 5.69,-3.736 5.575,-3.545 5.403,-3.53 5.286,-3.52 5.281,-3.607 5.192,-3.641 5.12,-3.668 5.041,-3.635 4.968,-3.63 4.896,-3.625 4.866,-3.634 4.839,-3.7 4.833,-3.78 4.831,-3.86 4.835,-3.941 4.838,-3.999 4.838,-4.058 4.836,-4.116 4.833,-4.228 4.822,-4.338 4.793,-4.446 4.774,-4.518 4.754,-4.586 4.751,-4.661 4.748,-4.712 4.755,-4.766 4.751,-4.817 4.743,-4.91 4.729,-4.999 4.731,-5.093 4.608,-4.881 4.38,-4.806 4.171,-4.68 4.032,-4.597 3.945,-4.464 3.817,-4.369 3.74,-4.312 3.654,-4.264 3.579,-4.205 3.477,-4.125 3.412,-4.007 3.338,-3.907 3.268,-3.813 3.196,-3.72 3.123,-3.629 3.008,-3.486 2.878,-3.357 2.764,-3.213 2.632,-3.047 2.509,-2.877 2.357,-2.723 2.25,-2.616 1.77,-2.133 1.638,-2.448 1.612,-2.511 1.622,-2.573 1.605,-2.636 1.595,-2.671 1.594,-2.661 1.573,-2.68 1.559,-2.677 1.547,-2.682 1.538,-2.695 1.533,-2.718 1.527,-2.741 1.522,-2.763 1.514,-2.826 1.544,-2.915 1.496,-2.966 1.369,-2.934 1.279,-2.775 1.209,-2.679 1.131,-2.571 1.078,-2.44 1.019,-2.324 0.966,-2.218 0.909,-2.112 0.856,-2.007 0.737,-1.773 0.611,-1.543 0.508,-1.303 0.458,-1.189 0.395,-1.081 0.364,-0.962 0.345,-0.891 0.303,-0.846 0.26,-0.788 0.214,-0.726 0.214,-0.649 0.165,-0.588 0.132,-0.546 0.084,-0.528 0.046,-0.49 0.013,-0.457 0,-0.408 -0.01,-0.365 c -0.013,0.057 -0.012,0.114 -0.015,0.172 -0.008,0.196 -0.06,0.361 -0.127,0.548"
             style="fill:#231f20;fill-opacity:1;fill-rule:nonzero;stroke:none"
             id="path38557" />
        </g>
        <g
           id="g38559"
           transform="translate(348.485,271.299)">
          <path
             d="M 0,0 C 0.001,0.046 0.009,0.072 0.02,0.115 0.032,0.158 0.026,0.215 0.034,0.26 0.046,0.325 0.058,0.389 0.06,0.455 0.068,0.722 0.07,0.997 0.061,1.264 0.055,1.419 0.007,1.575 -0.015,1.728 -0.035,1.87 -0.088,1.997 -0.129,2.134 -0.186,2.322 -0.268,2.498 -0.333,2.683 -0.396,2.863 -0.458,3.044 -0.547,3.213 -0.625,3.362 -0.713,3.506 -0.785,3.658 -0.846,3.787 -0.929,3.916 -1.011,4.032 -1.206,4.307 -1.439,4.545 -1.662,4.796 -1.787,4.936 -1.932,5.053 -2.053,5.197 -2.14,5.3 -2.237,5.399 -2.343,5.482 -2.471,5.582 -2.581,5.702 -2.71,5.803 -2.821,5.891 -2.927,5.982 -3.044,6.064 -3.589,6.446 -4.167,6.795 -4.777,7.062 -4.888,7.11 -5.005,7.156 -5.12,7.195 -5.229,7.232 -5.335,7.277 -5.444,7.315 -5.5,7.334 -5.556,7.342 -5.61,7.366 -5.669,7.391 -5.724,7.42 -5.784,7.442 -5.888,7.48 -5.997,7.5 -6.105,7.525 -6.366,7.585 -6.624,7.658 -6.887,7.713 -6.994,7.736 -7.105,7.731 -7.211,7.756 -7.386,7.796 -7.564,7.822 -7.739,7.861 -8.22,7.969 -8.71,8.013 -9.202,8.013 -9.326,8.013 -9.449,8.02 -9.572,8 -9.643,7.988 -9.71,7.97 -9.78,7.953 -9.856,7.936 -9.926,7.939 -10.002,7.931 -10.265,7.902 -10.523,7.8 -10.776,7.728 -10.892,7.695 -11.01,7.654 -11.121,7.608 -11.182,7.582 -11.238,7.547 -11.3,7.523 -11.371,7.496 -11.445,7.482 -11.517,7.456 -11.747,7.373 -12.006,7.341 -12.217,7.21 -12.272,7.175 -12.333,7.158 -12.392,7.131 -12.447,7.105 -12.496,7.071 -12.553,7.046 -12.654,7.003 -12.735,6.94 -12.83,6.887 -12.888,6.856 -12.948,6.826 -13.004,6.789 -13.063,6.75 -13.105,6.694 -13.158,6.647 -13.239,6.576 -13.339,6.535 -13.425,6.471 -13.545,6.383 -13.654,6.282 -13.758,6.177 -13.843,6.091 -13.929,6.006 -14.014,5.921 -14.1,5.836 -14.2,5.754 -14.265,5.651 c -0.079,-0.124 -0.191,-0.22 -0.273,-0.343 -0.062,-0.092 -0.128,-0.187 -0.201,-0.27 -0.053,-0.06 -0.106,-0.118 -0.159,-0.177 -0.033,-0.036 -0.054,-0.08 -0.082,-0.119 -0.039,-0.053 -0.085,-0.098 -0.128,-0.147 -0.146,-0.163 -0.28,-0.334 -0.411,-0.509 -0.059,-0.08 -0.117,-0.16 -0.173,-0.243 -0.022,-0.03 -0.076,-0.129 -0.061,-0.173 0.009,-0.025 0.055,-0.033 0.079,-0.043 0.076,-0.03 0.154,-0.049 0.221,-0.098 0.11,-0.08 0.026,-0.201 0.056,-0.312 0.011,-0.042 0.046,-0.078 0.061,-0.122 0.023,-0.068 0.02,-0.131 0.02,-0.203 -10e-4,-0.091 -0.017,-0.177 -0.021,-0.267 -0.005,-0.1 0.009,-0.201 -0.004,-0.3 -0.007,-0.056 -0.017,-0.104 -0.015,-0.16 0.002,-0.062 -0.011,-0.08 -0.035,-0.132 -0.026,-0.055 -0.041,-0.117 -0.064,-0.173 -0.011,-0.029 -0.028,-0.056 -0.035,-0.087 -0.014,-0.062 -0.003,-0.13 -0.005,-0.194 -0.004,-0.163 0.095,-0.309 0.101,-0.474 10e-4,-0.043 10e-4,-0.091 0,-0.135 -0.003,-0.076 -0.032,-0.115 -0.062,-0.181 -0.017,-0.037 -0.016,-0.055 -0.018,-0.093 -0.003,-0.043 -0.018,-0.08 -0.021,-0.123 -0.006,-0.067 0.005,-0.136 0.002,-0.203 -0.003,-0.054 -0.071,-0.119 -0.002,-0.15 0.025,-0.011 0.07,-0.003 0.095,-0.003 0.081,0.001 0.162,-0.005 0.242,-0.004 0.108,0.002 0.159,0.055 0.234,0.127 0.066,0.065 0.132,0.126 0.162,0.216 0.021,0.065 0.029,0.128 0.062,0.189 0.048,0.091 0.074,0.174 0.094,0.276 0.01,0.052 0.016,0.13 0.039,0.184 0.03,0.071 0.067,0.118 0.076,0.198 0.009,0.085 0.036,0.143 0.087,0.21 0.028,0.036 0.043,0.044 0.051,0.093 0.007,0.04 -0.003,0.081 0.007,0.12 0.009,0.041 0.042,0.068 0.053,0.108 0.012,0.046 0.006,0.111 0.005,0.159 -0.002,0.069 -0.108,0.122 -0.08,0.194 0.043,0.008 0.106,10e-4 0.144,0.025 0.05,0.03 0.046,0.069 0.067,0.117 0.031,0.072 0.058,0.148 0.104,0.212 0.069,0.094 0.069,0.234 0.078,0.349 0.006,0.071 0.022,0.152 0.045,0.22 0.012,0.039 0.071,0.083 0.072,0.122 0.003,0.085 -0.25,0.143 -0.315,0.163 -0.085,0.025 -0.205,0.028 -0.217,0.135 -0.01,0.083 0.022,0.122 0.079,0.179 0.037,0.029 0.068,0.063 0.094,0.101 0.007,0.025 0.015,0.049 0.025,0.072 0.024,0.047 0.035,0.096 0.058,0.143 0.034,0.071 0.084,0.089 0.145,0.131 0.083,0.056 0.111,0.167 0.173,0.242 0.061,0.076 0.13,0.128 0.178,0.215 0.053,0.095 0.094,0.129 0.19,0.181 0.113,0.062 0.216,0.145 0.336,0.196 0.046,0.01 0.087,0.032 0.122,0.063 0.03,0.038 0.058,0.077 0.084,0.117 0.056,0.067 0.12,0.13 0.195,0.176 0.096,0.059 0.21,0.103 0.311,0.156 0.089,0.045 0.192,0.095 0.287,0.124 0.056,0.017 0.12,0.029 0.177,0.038 0.019,-0.003 0.037,-0.002 0.055,0.004 0.011,0.008 0.024,0.014 0.038,0.018 0.09,-10e-4 0.105,-0.244 0.115,-0.302 0.017,-0.099 -0.023,-0.18 -0.034,-0.276 -0.009,-0.075 0.006,-0.139 0.081,-0.161 0.101,-0.03 0.201,-0.086 0.309,-0.095 0.018,-0.093 0.023,-0.181 0.023,-0.275 0,-0.063 0.012,-0.135 -0.003,-0.196 -0.006,-0.026 -0.017,-0.046 -0.037,-0.062 -0.006,-0.006 -0.035,-0.015 -0.038,-0.022 -0.015,-0.04 0.093,-0.095 0.114,-0.108 0.12,-0.074 0.266,-0.153 0.413,-0.123 0.137,0.028 0.241,0.108 0.353,0.187 0.11,0.079 0.237,0.139 0.342,0.225 0.08,0.066 0.121,0.137 0.08,0.237 -0.037,0.088 -0.093,0.168 -0.122,0.259 -0.048,0.153 0.004,0.354 0.078,0.49 0.032,0.058 0.041,0.114 0.054,0.178 0.005,0.024 0.005,0.05 0.024,0.062 0.005,0.004 0.06,-0.001 0.059,-0.001 0.045,-0.001 0.09,-0.002 0.136,-0.002 0.116,0 0.246,0.021 0.347,0.084 0.069,0.043 0.069,0.088 0.094,0.155 0.016,0.042 0.053,0.056 0.086,0.087 0.028,0.027 0.046,0.047 0.081,0.066 0.062,0.035 0.129,0.028 0.198,0.026 0.115,-0.003 0.22,-0.002 0.333,0.018 0.081,0.014 0.156,0.017 0.237,0.02 0.034,0.001 0.071,-0.003 0.104,0.01 0.041,0.016 0.051,0.05 0.085,0.075 0.084,0.062 0.208,0.028 0.299,0.004 0.096,-0.025 0.175,-0.084 0.266,-0.124 0.105,-0.045 0.221,-0.056 0.332,-0.073 0.162,-0.026 0.323,-0.065 0.485,-0.087 0.078,-0.01 0.175,-0.016 0.227,-0.08 C -6.674,5.924 -6.688,5.828 -6.709,5.761 -6.728,5.702 -6.759,5.647 -6.779,5.588 -6.801,5.519 -6.807,5.45 -6.809,5.377 -6.811,5.339 -6.829,5.292 -6.826,5.257 -6.822,5.214 -6.744,5.166 -6.707,5.15 -6.65,5.125 -6.588,5.109 -6.531,5.081 -6.491,5.062 -6.468,5.058 -6.426,5.054 -6.372,5.048 -6.335,5.034 -6.286,5.007 -6.241,4.982 -6.197,4.954 -6.152,4.928 -6.133,4.917 -6.073,4.892 -6.056,4.873 -6.026,4.837 -6.05,4.804 -6.076,4.767 -6.096,4.739 -6.12,4.713 -6.149,4.694 -6.21,4.657 -6.279,4.67 -6.336,4.636 -6.414,4.589 -6.399,4.478 -6.424,4.399 -6.442,4.34 -6.477,4.287 -6.496,4.229 -6.53,4.123 -6.501,4.014 -6.515,3.906 -6.52,3.871 -6.521,3.803 -6.537,3.772 -6.547,3.753 -6.567,3.757 -6.575,3.728 -6.588,3.681 -6.559,3.613 -6.555,3.565 -6.55,3.516 -6.549,3.471 -6.565,3.424 -6.605,3.307 -6.69,3.213 -6.694,3.082 -6.696,3.007 -6.652,2.965 -6.603,2.91 c 0.028,-0.032 0.067,-0.078 0.106,-0.097 0.059,-0.029 0.092,0.013 0.134,0.046 0.106,0.081 0.178,0.173 0.248,0.287 0.074,0.122 0.158,0.228 0.253,0.334 0.105,0.118 0.182,0.208 0.356,0.167 C -5.43,3.63 -5.348,3.553 -5.354,3.467 -5.358,3.412 -5.403,3.36 -5.416,3.306 -5.43,3.25 -5.433,3.214 -5.467,3.166 -5.513,3.101 -5.534,3.025 -5.557,2.949 -5.581,2.871 -5.585,2.81 -5.571,2.729 -5.566,2.7 -5.564,2.673 -5.565,2.643 -5.567,2.555 -5.627,2.46 -5.665,2.38 -5.685,2.336 -5.706,2.283 -5.732,2.242 -5.753,2.21 -5.755,2.212 -5.793,2.211 -5.832,2.209 -5.84,2.211 -5.864,2.18 -5.905,2.125 -5.936,2.044 -5.941,1.977 -5.952,1.833 -5.891,1.656 -5.808,1.538 -5.717,1.408 -5.569,1.59 -5.489,1.455 -5.442,1.378 -5.446,1.274 -5.447,1.187 -5.448,1.146 -5.461,1.085 -5.435,1.052 -5.432,1.049 -5.352,1.019 -5.356,1.021 -5.267,0.978 -5.19,0.907 -5.099,0.866 c 0.042,-0.019 0.081,-0.033 0.126,-0.024 0.051,0.01 0.063,0.041 0.105,0.067 0.072,0.044 0.171,0.061 0.248,0.096 0.051,0.024 0.104,0.045 0.148,0.082 0.05,0.042 0.086,0.098 0.133,0.145 0.114,0.116 0.272,0.109 0.418,0.07 C -3.861,1.285 -3.8,1.267 -3.742,1.245 -3.689,1.225 -3.574,1.182 -3.538,1.126 -3.623,1.127 -3.705,1.142 -3.783,1.09 -3.883,1.023 -3.949,0.917 -4.053,0.852 -4.158,0.787 -4.281,0.796 -4.387,0.737 -4.482,0.684 -4.537,0.594 -4.602,0.51 -4.655,0.44 -4.713,0.373 -4.778,0.314 -4.813,0.281 -4.861,0.255 -4.884,0.214 -4.905,0.174 -4.895,0.125 -4.913,0.082 -4.93,0.039 -4.976,0.011 -4.992,-0.033 c -0.015,-0.043 -0.003,-0.138 0.001,-0.176 0.01,-0.083 0.031,-0.164 0.048,-0.246 0.019,-0.092 0.037,-0.192 0.027,-0.287 -0.007,-0.06 -0.04,-0.112 -0.058,-0.168 -0.041,-0.132 -0.117,-0.28 -0.118,-0.418 0,-0.098 0.025,-0.187 0.055,-0.279 0.059,-0.18 0.121,-0.36 0.183,-0.539 0.03,-0.086 0.051,-0.209 0.128,-0.265 0.058,-0.041 0.135,-0.042 0.205,-0.041 0.146,10e-4 0.288,0.059 0.435,0.068 0.148,0.008 0.327,-0.013 0.474,-0.032 0.271,-0.036 0.548,-0.083 0.764,-0.265 0.077,-0.065 0.192,-0.229 0.209,-0.334 0.003,-0.028 0.005,-0.055 0.007,-0.082 -0.041,-0.054 -0.092,-0.097 -0.152,-0.13 -0.145,-0.14 -0.165,-0.334 -0.217,-0.521 -0.023,-0.083 -0.035,-0.164 -0.081,-0.239 -0.044,-0.074 -0.093,-0.141 -0.126,-0.222 -0.05,-0.123 -0.09,-0.249 -0.05,-0.378 0.034,-0.113 0.052,-0.235 0.058,-0.352 0.003,-0.076 -0.011,-0.159 0.003,-0.233 0.052,0.009 0.092,0.033 0.139,0.055 0.088,0.042 0.189,0.07 0.272,0.12 0.197,0.117 0.287,0.357 0.427,0.529 0.069,0.083 0.151,0.16 0.207,0.253 0.064,0.106 0.096,0.233 0.129,0.35 0.033,0.117 0.056,0.242 0.118,0.347 0.057,0.097 0.148,0.169 0.212,0.259 0.126,0.178 0.149,0.4 0.222,0.6 0.024,0.065 0.057,0.122 0.086,0.183 0.045,0.098 0.057,0.203 0.063,0.31 0.01,0.185 -0.019,0.371 -0.02,0.556 0,0.105 -0.015,0.258 0.056,0.348 0.027,0.034 0.081,0.043 0.101,0.086 0.036,0.076 0.021,0.179 0.034,0.26 0.025,0.159 0.077,0.313 0.086,0.474 0.008,0.136 -0.029,0.257 -0.08,0.381 -0.029,0.071 -0.025,0.118 0.043,0.168 0.076,0.055 0.21,0.077 0.3,0.04 0.046,-0.019 0.083,-0.061 0.12,-0.093 0.071,-0.062 0.125,-0.118 0.161,-0.207 0.072,-0.185 0.096,-0.391 0.149,-0.582 0.036,0.007 0.079,0.077 0.098,0.097 0.052,0.053 0.134,0.092 0.179,0.149 0.071,0.088 0.072,0.206 0.071,0.315 -0.001,0.052 -0.003,0.103 -0.005,0.155 -0.004,0.2 0.019,0.397 0.068,0.591"
             style="fill:#231f20;fill-opacity:1;fill-rule:nonzero;stroke:none"
             id="path38561" />
        </g>
        <g
           id="g38563"
           transform="translate(339.109,262.831)">
          <path
             d="m 0,0 c -0.018,0.041 -0.024,0.065 -0.058,0.093 -0.031,0.026 -0.067,0.051 -0.099,0.076 -0.068,0.051 -0.147,0.084 -0.219,0.128 -0.088,0.053 -0.18,0.106 -0.282,0.13 -0.059,0.014 -0.109,0.005 -0.169,0.006 -0.106,0.001 -0.207,0.041 -0.315,0.042 -0.219,0.001 -0.427,0.062 -0.638,0.118 -0.198,0.052 -0.373,0.138 -0.56,0.216 -0.152,0.064 -0.313,0.1 -0.466,0.161 -0.139,0.056 -0.272,0.124 -0.411,0.176 -0.183,0.07 -0.368,0.113 -0.541,0.209 -0.108,0.061 -0.204,0.138 -0.302,0.213 -0.13,0.098 -0.258,0.203 -0.38,0.31 -0.083,0.072 -0.196,0.161 -0.254,0.255 0.05,-0.018 0.068,-0.145 0.083,-0.191 0.053,-0.168 0.162,-0.325 0.263,-0.466 0.092,-0.129 0.217,-0.205 0.346,-0.292 0.146,-0.098 0.295,-0.188 0.44,-0.287 0.146,-0.099 0.296,-0.167 0.449,-0.25 0.162,-0.087 0.321,-0.179 0.479,-0.273 0.159,-0.094 0.325,-0.156 0.494,-0.23 0.153,-0.067 0.278,-0.146 0.447,-0.173 0.106,-0.017 0.213,-0.03 0.321,-0.031 0.103,-0.001 0.202,-0.017 0.305,-0.02 0.161,-0.004 0.32,0.005 0.479,-0.023 0.102,-0.017 0.198,-0.047 0.305,-0.036 0.036,0.004 0.054,0.018 0.085,0.035 C -0.154,-0.078 -0.107,-0.078 0,0"
             style="fill:#231f20;fill-opacity:1;fill-rule:nonzero;stroke:none"
             id="path38565" />
        </g>
      </g>
    </g>
  </g>
</svg>
