<?xml version="1.0" encoding="UTF-8" standalone="no"?>
<!-- Created with Inkscape (http://www.inkscape.org/) -->

<svg
   width="18.310583"
   height="24"
   viewBox="0 0 4.8446752 6.35"
   version="1.1"
   id="svg55077"
   inkscape:version="1.2.1 (9c6d41e4, 2022-07-14)"
   sodipodi:docname="inexorable-fate.svg"
   xmlns:inkscape="http://www.inkscape.org/namespaces/inkscape"
   xmlns:sodipodi="http://sodipodi.sourceforge.net/DTD/sodipodi-0.dtd"
   xmlns="http://www.w3.org/2000/svg"
   xmlns:svg="http://www.w3.org/2000/svg">
  <sodipodi:namedview
     id="namedview55079"
     pagecolor="#505050"
     bordercolor="#eeeeee"
     borderopacity="1"
     inkscape:showpageshadow="0"
     inkscape:pageopacity="0"
     inkscape:pagecheckerboard="0"
     inkscape:deskcolor="#505050"
     inkscape:document-units="mm"
     showgrid="false"
     inkscape:zoom="0.7046647"
     inkscape:cx="39.73521"
     inkscape:cy="332.78238"
     inkscape:window-width="1390"
     inkscape:window-height="941"
     inkscape:window-x="0"
     inkscape:window-y="25"
     inkscape:window-maximized="0"
     inkscape:current-layer="layer1" />
  <defs
     id="defs55074">
    <clipPath
       clipPathUnits="userSpaceOnUse"
       id="clipPath4137">
      <path
         d="m 159.816,419.821 h 24.7 v 24.699 h -24.7 z"
         id="path4135" />
    </clipPath>
  </defs>
  <g
     inkscape:label="Layer 1"
     inkscape:groupmode="layer"
     id="layer1"
     transform="translate(-94.593514,-60.985877)">
    <g
       id="g4131"
       transform="matrix(0.28205206,0,0,-0.28205206,48.902012,186.01754)">
      <g
         id="g4133"
         clip-path="url(#clipPath4137)">
        <g
           id="g4139"
           transform="translate(178.673,433.755)">
          <path
             d="M 0,0 C -0.377,1.136 -0.946,1.675 -1.983,2.28 -3.041,2.898 -4.518,2.693 -5.537,2.045 -5.811,1.871 -6.051,1.66 -6.302,1.457 -6.341,1.426 -6.504,1.313 -6.63,1.222 c -0.001,0.044 0,0.089 -0.002,0.134 -0.008,0.205 -0.022,0.426 -0.051,0.63 l -0.099,-0.189 0.134,0.326 c 0.127,0.4 0.102,0.674 -0.029,1.055 -0.138,0.402 -0.049,0.541 -0.007,0.983 0.001,0.012 0.002,0.024 0.003,0.035 -0.376,0.058 0.628,0.739 0.938,0.705 0.395,-0.044 0.79,-0.006 1.186,0.011 0.922,0.283 1.827,0.478 2.829,0.478 0.715,0 1.845,1.339 1.885,2.096 C -0.733,7.406 -1.628,7.37 -2.516,7.252 -3.37,7.138 -4.25,7.141 -5.114,7.058 -5.326,7.022 -5.537,6.996 -5.751,6.976 -5.963,6.942 -6.173,6.9 -6.381,6.845 -6.767,6.743 -6.768,6.86 -6.626,7.021 c 0.023,0.247 0.053,0.492 0.081,0.741 0.021,0.19 0.045,0.38 0.045,0.572 0,0.261 0.071,0.552 -0.148,0.038 0.203,0.478 0.347,1.194 -0.394,1.165 C -7.712,9.51 -8.524,8.672 -8.768,8.098 -8.935,7.706 -8.973,7.354 -8.995,6.988 -8.969,6.972 -8.944,6.959 -8.919,6.942 -8.665,6.77 -9.733,6.079 -10.014,6.269 c -0.645,0.438 -1.272,0.225 -1.981,0.143 -0.579,-0.066 -1.168,-0.016 -1.749,0.004 -0.667,0.022 -1.333,0.042 -1.997,0.037 -0.553,-0.519 -1.021,-1.309 -0.922,-1.755 1.605,0.192 3.208,0.078 4.843,0.068 0.821,-0.005 2.504,0.342 3.12,-0.353 C -8.622,4.325 -8.871,4.098 -9.166,3.936 -9.157,3.49 -9.147,3.038 -9.198,2.602 -9.274,1.964 -9.215,1.595 -9.062,1.032 -9.201,0.223 -9.15,-0.585 -9.177,-1.428 c -0.031,-0.959 1.148,-0.401 1.513,-0.078 0.054,0.047 0.089,0.081 0.111,0.104 0.053,0.023 0.137,0.063 0.265,0.13 0.124,0.064 0.254,0.133 0.376,0.202 0.38,0.212 0.719,0.505 1.054,0.782 0.774,0.638 1.639,0.209 2.379,-0.296 0.745,-0.508 0.922,-1.05 1.202,-1.881 0.043,-0.128 0.17,-0.967 0.254,-1.261 -0.057,-0.05 -0.113,-0.1 -0.167,-0.15 -0.198,-0.181 -0.359,-0.436 -0.549,-0.622 0.06,0.068 -0.2,-0.098 -0.276,-0.162 -0.395,-0.331 -0.665,-0.716 -0.98,-1.116 -0.16,-0.203 -0.337,-0.395 -0.494,-0.601 -0.009,-0.012 -0.453,-0.571 -0.333,-0.456 -0.339,-0.362 -0.703,-0.701 -1.036,-1.072 0.218,0.243 -0.157,-0.143 -0.249,-0.218 -0.023,-0.019 -0.047,-0.036 -0.071,-0.054 -0.236,-0.339 -0.5,-0.657 -0.827,-0.948 -0.687,-0.614 -1.411,-1.145 -2.033,-1.831 -0.602,-0.664 -1.177,-1.327 -1.863,-1.905 10e-4,-10e-4 0.002,-0.002 0.003,-0.003 0.022,-0.011 0.043,-0.022 0.064,-0.033 0.385,-0.201 0.896,0.005 1.348,0.368 0.362,0.186 0.752,0.339 1.098,0.547 0.633,0.382 1.222,0.866 1.753,1.378 0.072,0.069 0.138,0.158 0.183,0.229 0.225,0.183 0.574,0.341 0.771,0.497 0.526,0.416 0.952,0.902 1.4,1.393 0.378,0.413 0.808,0.744 1.147,1.198 0.199,0.267 0.392,0.529 0.599,0.791 0.09,0.103 0.173,0.213 0.251,0.326 0.021,0.016 0.044,0.034 0.071,0.055 0.234,0.185 0.466,0.38 0.667,0.601 0.045,0.053 0.084,0.099 0.117,0.139 0.149,0.091 0.294,0.189 0.431,0.297 0.568,0.464 0.994,1.068 1.277,1.741 C 0.755,-2.202 0.369,-1.111 0,0"
             style="fill:#000000;fill-opacity:1;fill-rule:nonzero;stroke:none"
             id="path4141" />
        </g>
      </g>
    </g>
  </g>
</svg>
