<?xml version="1.0" encoding="UTF-8" standalone="no"?>
<!-- Created with Inkscape (http://www.inkscape.org/) -->

<svg
   width="19.215496"
   height="24"
   viewBox="0 0 5.0841 6.35"
   version="1.1"
   id="svg57225"
   inkscape:version="1.2.1 (9c6d41e4, 2022-07-14)"
   sodipodi:docname="music-of-the-damned.svg"
   xmlns:inkscape="http://www.inkscape.org/namespaces/inkscape"
   xmlns:sodipodi="http://sodipodi.sourceforge.net/DTD/sodipodi-0.dtd"
   xmlns="http://www.w3.org/2000/svg"
   xmlns:svg="http://www.w3.org/2000/svg">
  <sodipodi:namedview
     id="namedview57227"
     pagecolor="#505050"
     bordercolor="#eeeeee"
     borderopacity="1"
     inkscape:showpageshadow="0"
     inkscape:pageopacity="0"
     inkscape:pagecheckerboard="0"
     inkscape:deskcolor="#505050"
     inkscape:document-units="mm"
     showgrid="false"
     inkscape:zoom="0.7046647"
     inkscape:cx="105.01448"
     inkscape:cy="253.31196"
     inkscape:window-width="1390"
     inkscape:window-height="941"
     inkscape:window-x="0"
     inkscape:window-y="25"
     inkscape:window-maximized="0"
     inkscape:current-layer="layer1" />
  <defs
     id="defs57222">
    <clipPath
       clipPathUnits="userSpaceOnUse"
       id="clipPath38667">
      <path
         d="m 302.631,79.859 h 24.699 v 24.7 h -24.699 z"
         id="path38665" />
    </clipPath>
  </defs>
  <g
     inkscape:label="Layer 1"
     inkscape:groupmode="layer"
     id="layer1"
     transform="translate(-77.435935,-81.966635)">
    <g
       id="g38661"
       transform="matrix(0.3075881,0,0,-0.3075881,-16.906281,113.50395)">
      <g
         id="g38663"
         clip-path="url(#clipPath38667)">
        <g
           id="g38669"
           transform="translate(315.324,86.0605)">
          <path
             d="M 0,0 0.032,0.244 C 0.027,0.236 0.022,0.228 0.018,0.221 0.01,0.147 0.002,0.074 0,0"
             style="fill:#231f20;fill-opacity:1;fill-rule:nonzero;stroke:none"
             id="path38671" />
        </g>
        <g
           id="g38673"
           transform="translate(315.317,85.8945)">
          <path
             d="m 0,0 c 0.001,0.036 0.002,0.072 0.003,0.108 0,0.019 0.003,0.038 0.004,0.058 L -0.014,0.009 C -0.009,0.006 -0.005,0.003 0,0"
             style="fill:#231f20;fill-opacity:1;fill-rule:nonzero;stroke:none"
             id="path38675" />
        </g>
        <g
           id="g38677"
           transform="translate(322.603,102.07)">
          <path
             d="m 0,0 c -0.184,0.107 -0.366,0.221 -0.55,0.328 -0.052,0.03 -0.113,0.058 -0.156,0.101 0.05,0.027 0.124,0.009 0.164,0.032 C -0.63,0.456 -0.716,0.431 -0.803,0.419 -1.038,0.386 -1.277,0.375 -1.513,0.356 -2.036,0.316 -2.56,0.307 -3.083,0.274 -3.455,0.25 -3.837,0.203 -4.196,0.093 -4.301,0.061 -4.396,0.009 -4.501,-0.023 -4.642,-0.065 -4.781,-0.112 -4.922,-0.153 -5.146,-0.217 -5.38,-0.227 -5.607,-0.28 -5.819,-0.331 -6.03,-0.386 -6.238,-0.45 c -0.298,-0.09 -0.596,-0.091 -0.906,-0.082 -0.231,0.007 -0.457,0.028 -0.686,0.058 -0.135,0.017 -0.195,-0.035 -0.305,-0.106 -0.069,-0.045 -0.145,-0.077 -0.218,-0.117 -0.084,-0.046 -0.162,-0.102 -0.242,-0.155 -0.17,-0.113 -0.347,-0.218 -0.528,-0.31 -0.202,-0.102 -0.407,-0.187 -0.623,-0.251 -0.133,-0.039 -0.274,-0.101 -0.412,-0.121 -0.089,-0.014 -0.214,-0.006 -0.294,0.039 -0.056,0.032 -0.083,0.099 -0.137,0.131 0.005,-0.029 0.011,-0.052 0.006,-0.081 -0.006,-0.031 -0.008,-0.045 -0.003,-0.077 0.015,-0.109 0.038,-0.211 0.08,-0.316 0.033,-0.084 0.07,-0.167 0.113,-0.247 0.053,-0.101 0.082,-0.204 0.115,-0.313 0.023,-0.075 0.043,-0.152 0.068,-0.227 0.055,-0.172 0.143,-0.331 0.197,-0.504 0.048,-0.153 0.089,-0.308 0.143,-0.46 0.065,-0.185 0.149,-0.362 0.22,-0.545 0.12,-0.309 0.199,-0.64 0.295,-0.956 0.098,-0.324 0.207,-0.645 0.318,-0.964 0.149,-0.428 0.339,-0.831 0.52,-1.245 0.093,-0.212 0.198,-0.411 0.31,-0.613 0.083,-0.151 0.161,-0.304 0.263,-0.444 0.226,-0.314 0.489,-0.599 0.695,-0.927 0.197,-0.314 0.36,-0.65 0.545,-0.971 0.106,-0.184 0.221,-0.358 0.311,-0.552 0.075,-0.161 0.145,-0.325 0.207,-0.493 0.099,-0.268 0.17,-0.55 0.254,-0.824 0.064,-0.21 0.132,-0.419 0.189,-0.631 0.076,-0.283 0.101,-0.567 0.135,-0.857 0.037,-0.31 0.096,-0.618 0.111,-0.931 0.025,-0.521 0.186,-1.018 0.258,-1.531 0.012,-0.07 0.018,-0.139 0.019,-0.21 0.005,-0.036 -0.001,-0.07 -0.016,-0.102 -0.032,-0.028 -0.07,-0.015 -0.107,-0.004 0.005,-0.021 0.011,-0.042 0.017,-0.063 0.005,-0.061 -0.005,-0.104 -0.026,-0.161 -0.032,-0.091 -0.035,-0.183 -0.059,-0.275 -0.022,-0.082 -0.077,-0.141 -0.109,-0.216 -0.021,-0.05 -0.018,-0.106 -0.039,-0.157 -0.022,-0.053 -0.068,-0.093 -0.106,-0.135 -0.088,-0.098 -0.187,-0.186 -0.268,-0.289 -0.073,-0.093 -0.152,-0.174 -0.236,-0.256 -0.105,-0.102 -0.218,-0.142 -0.36,-0.124 -0.093,0.012 -0.131,0.008 -0.206,-0.052 -0.066,-0.052 -0.133,-0.092 -0.209,-0.127 -0.132,-0.061 -0.258,-0.088 -0.402,-0.065 -0.1,0.016 -0.183,0.095 -0.245,0.17 -0.033,0.041 -0.045,0.079 -0.068,0.124 -0.019,0.037 -0.054,0.07 -0.077,0.105 -0.023,0.035 -0.038,0.071 -0.065,0.103 -0.034,0.038 -0.091,0.08 -0.105,0.131 -0.011,0.041 0.02,0.049 0.038,0.086 0.025,0.052 0.009,0.102 0.018,0.155 0.008,0.04 0.035,0.068 0.052,0.104 0.026,0.058 0.023,0.112 0.062,0.164 0.054,0.071 0.129,0.127 0.186,0.197 0.076,0.092 0.107,0.204 0.17,0.303 0.024,0.038 0.049,0.074 0.074,0.11 -0.923,-0.709 -1.747,-1.727 -1.884,-2.961 0.025,-0.018 0.049,-0.036 0.069,-0.063 0.028,-0.037 0.048,-0.074 0.08,-0.108 0.09,-0.096 0.199,-0.178 0.289,-0.273 0.022,-0.023 0.024,-0.053 0.045,-0.08 0.019,-0.024 0.051,-0.048 0.077,-0.065 0.078,-0.048 0.175,-0.073 0.264,-0.075 0.188,-0.004 0.374,-0.001 0.563,0.022 0.066,0.008 0.121,0.032 0.188,0.027 0.051,-0.003 0.103,-0.025 0.154,-0.018 0.016,0.003 0.062,0.014 0.075,0.023 0.025,0.018 0.017,0.053 0.043,0.074 0.054,0.043 0.155,0.049 0.219,0.044 0.145,-0.011 0.269,0.047 0.407,0.089 0.242,0.073 0.497,0.098 0.745,0.143 0.22,0.04 0.493,0.092 0.691,0.206 0.134,0.076 0.244,0.194 0.356,0.3 0.111,0.106 0.206,0.218 0.295,0.342 0.133,0.184 0.259,0.382 0.319,0.602 0.051,0.19 0.192,0.329 0.368,0.406 0.109,0.048 0.228,0.081 0.338,0.125 0.132,0.053 0.261,0.113 0.389,0.173 0.187,0.088 0.388,0.171 0.562,0.283 0.077,0.05 0.172,0.105 0.219,0.187 0.033,0.056 0.05,0.12 0.068,0.182 0.056,0.192 0.132,0.381 0.18,0.575 0.034,0.133 0.053,0.289 0.017,0.424 -0.093,0.353 -0.288,0.632 -0.529,0.898 -0.1,0.111 -0.135,0.236 -0.174,0.376 -0.026,0.095 -0.024,0.191 -0.066,0.281 -0.063,0.136 -0.198,0.241 -0.302,0.344 -0.138,0.136 -0.298,0.222 -0.452,0.337 -0.192,0.145 -0.398,0.276 -0.579,0.436 -0.117,0.105 -0.244,0.209 -0.338,0.336 -0.103,0.139 -0.124,0.322 -0.149,0.489 -0.003,0.021 -0.017,0.059 -0.011,0.08 0.007,0.03 0.038,0.032 0.05,0.054 0.022,0.038 -0.023,0.12 -0.036,0.162 -0.017,0.056 -0.039,0.112 -0.047,0.17 -0.006,0.04 -0.006,0.076 -0.019,0.115 -0.009,0.028 -0.013,0.064 -0.031,0.088 -0.027,0.038 -0.105,0.071 -0.145,0.1 -0.076,0.056 -0.159,0.111 -0.225,0.178 -0.069,0.069 -0.139,0.15 -0.202,0.226 -0.033,0.04 -0.075,0.09 -0.095,0.136 -0.02,0.046 -0.031,0.078 -0.065,0.121 -0.075,0.097 -0.144,0.177 -0.204,0.286 -0.041,0.075 -0.08,0.153 -0.127,0.225 -0.107,0.159 -0.225,0.278 -0.289,0.463 -0.038,0.109 -0.081,0.23 -0.103,0.343 -0.016,0.085 -0.009,0.169 -0.006,0.255 0.003,0.078 -0.002,0.157 0.003,0.236 0.004,0.064 0.013,0.127 0.012,0.192 -0.004,0.188 -0.084,0.376 -0.138,0.554 -0.06,0.196 -0.115,0.391 -0.195,0.58 -0.078,0.184 -0.177,0.353 -0.284,0.521 -0.088,0.137 -0.183,0.229 -0.306,0.333 -0.065,0.055 -0.113,0.137 -0.164,0.205 -0.107,0.142 -0.185,0.319 -0.273,0.473 -0.065,0.112 -0.125,0.225 -0.176,0.344 -0.07,0.163 -0.112,0.337 -0.153,0.508 -0.041,0.165 -0.074,0.327 -0.084,0.497 -0.006,0.119 -0.008,0.238 -0.014,0.356 -0.011,0.206 -0.075,0.378 -0.19,0.546 -0.07,0.103 -0.178,0.217 -0.194,0.346 -0.013,0.096 0.029,0.214 0.051,0.307 0.046,0.198 0.149,0.4 0.257,0.572 0.055,0.09 0.12,0.161 0.203,0.225 0.086,0.066 0.134,0.134 0.16,0.238 0.067,-0.002 0.134,-0.019 0.202,-0.023 0.138,-0.006 0.29,-0.017 0.428,-0.005 0.207,0.019 0.39,0.125 0.591,0.159 0.03,0.005 0.035,0.007 0.064,-0.003 0.116,-0.044 0.222,-0.135 0.322,-0.201 0.151,-0.101 0.309,-0.186 0.465,-0.278 0.118,-0.071 0.301,-0.154 0.38,-0.274 0.031,-0.046 0.027,-0.119 0.056,-0.159 0.029,-0.039 0.081,-0.033 0.129,-0.035 0.46,-0.017 0.888,0.12 1.331,0.214 0.303,0.064 0.605,0.109 0.913,0.121 0.3,0.011 0.583,-0.027 0.876,-0.085 0.172,-0.034 0.325,-0.086 0.491,-0.128 0.039,-0.01 0.048,-0.013 0.086,0 -0.013,0.04 -0.037,0.075 -0.071,0.103 -0.074,0.086 -0.148,0.173 -0.222,0.26 -0.234,0.284 -0.454,0.584 -0.666,0.883 -0.139,0.196 -0.261,0.407 -0.414,0.592 -0.077,0.095 -0.163,0.181 -0.258,0.257 -0.049,0.029 -0.088,0.066 -0.119,0.113 -0.049,0.101 0.084,0.104 0.151,0.123 0.158,0.046 0.313,0.103 0.473,0.143 0.26,0.064 0.535,0.1 0.803,0.094 0.119,-0.002 0.269,-0.028 0.377,0.042 0.045,0.029 0.072,0.08 0.114,0.114 0.057,0.046 0.088,0.081 0.13,0.139 0.031,0.042 0.074,0.093 0.124,0.105 0.109,0.028 0.234,0.021 0.345,0.022 0.228,0.004 0.459,0.034 0.687,0.004 0.222,-0.029 0.437,-0.111 0.653,-0.174 -0.058,0.02 -0.117,0.046 -0.157,0.063 C 0.318,-0.18 0.159,-0.092 0,0"
             style="fill:#231f20;fill-opacity:1;fill-rule:nonzero;stroke:none"
             id="path38679" />
        </g>
        <g
           id="g38681"
           transform="translate(313.081,86.7425)">
          <path
             d="M 0,0 C -0.015,-0.06 -0.028,-0.143 -0.057,-0.197 -0.075,-0.23 -0.103,-0.25 -0.124,-0.28 -0.15,-0.318 -0.154,-0.361 -0.197,-0.384 -0.22,-0.397 -0.255,-0.399 -0.281,-0.407 c -0.034,-0.011 -0.048,-0.027 -0.077,-0.045 -0.011,-0.006 -0.027,-0.013 -0.043,-0.019 0.018,0.006 0.04,0.013 0.068,0.021 -0.127,-0.111 -0.33,-0.107 -0.475,-0.04 -0.077,0.035 -0.129,0.053 -0.215,0.039 -0.072,-0.011 -0.115,-0.013 -0.181,0.017 -0.037,0.017 -0.075,0.014 -0.109,0.04 -0.048,0.035 -0.069,0.099 -0.114,0.139 -0.047,0.042 -0.056,0.073 -0.059,0.131 -0.004,0.063 -0.018,0.136 0.002,0.203 0.028,0.095 0.086,0.181 0.116,0.276 0.031,0.101 0.089,0.206 0.155,0.29 0.06,0.076 0.173,0.146 0.266,0.178 0.101,0.034 0.168,0 0.266,-0.024 0.23,-0.058 0.417,-0.222 0.538,-0.424 C -0.081,0.273 0.031,0.127 0,0 m 0.196,-3.07 c 0.024,-0.014 0.223,-0.186 0.183,-0.048 0.076,0.024 -0.013,0.11 -0.029,0.163 -0.024,0.08 -0.044,0.166 -0.076,0.243 0.039,-0.027 0.12,-0.026 0.169,-0.036 0.081,-0.018 0.148,0.009 0.225,0.036 0.09,0.031 0.063,0.048 0.082,0.13 0.012,0.051 0.062,0.061 0.073,0.109 0.018,0.08 -0.066,0.151 -0.037,0.24 0.008,0.024 0.031,0.071 0.052,0.088 0.025,0.019 0.072,0.011 0.091,0.029 0.036,0.033 -0.024,0.162 -0.037,0.202 -0.022,0.069 0.003,0.133 -0.01,0.209 -0.015,0.091 -0.106,0.245 0.015,0.286 0.097,0.033 0.167,0.004 0.262,0.006 0.044,0 0.07,0.021 0.118,0.008 0.053,-0.014 0.099,-0.072 0.157,-0.062 0.05,0.008 0.121,0.083 0.152,0.119 0.046,0.054 0.069,0.125 0.119,0.18 0.092,0.104 0.171,0.215 0.28,0.299 0.076,0.058 0.119,0.136 0.161,0.219 0.034,0.066 0.075,0.127 0.115,0.189 0.013,0.124 0.031,0.249 0.061,0.372 L 2.275,-0.438 c 0.01,0.015 0.02,0.03 0.029,0.046 0.022,0.038 0.044,0.076 0.067,0.114 0.035,0.059 0.073,0.116 0.114,0.172 0.074,0.099 0.208,0.185 0.245,0.304 0.034,0.104 0.049,0.214 0.078,0.319 0.069,0.258 0.19,0.512 0.206,0.781 C 3.023,1.458 2.995,1.619 2.974,1.777 2.956,1.921 2.925,2.074 2.864,2.206 2.79,2.364 2.702,2.512 2.673,2.688 2.65,2.83 2.65,2.959 2.587,3.091 2.523,3.228 2.433,3.346 2.327,3.453 2.228,3.553 2.127,3.628 2.064,3.757 2.003,3.88 1.91,3.962 1.82,4.066 1.73,4.17 1.64,4.259 1.527,4.339 1.382,4.442 1.236,4.51 1.071,4.572 0.967,4.611 0.855,4.662 0.746,4.687 0.655,4.708 0.561,4.71 0.47,4.721 0.061,4.775 -0.345,4.818 -0.757,4.836 -1.13,4.852 -1.533,4.873 -1.876,4.706 -1.945,4.672 -2.019,4.643 -2.086,4.605 -2.166,4.561 -2.209,4.494 -2.275,4.438 -2.397,4.333 -2.549,4.281 -2.663,4.163 -2.779,4.042 -2.889,3.906 -2.986,3.769 -3.092,3.62 -3.163,3.436 -3.251,3.275 -3.334,3.125 -3.42,2.971 -3.486,2.813 -3.556,2.646 -3.597,2.468 -3.641,2.293 -3.683,2.127 -3.724,1.96 -3.751,1.791 -3.784,1.583 -3.77,1.367 -3.784,1.157 -3.802,0.884 -3.818,0.632 -3.733,0.369 c 0.038,-0.117 0.087,-0.23 0.136,-0.344 0.066,-0.151 0.151,-0.342 0.275,-0.457 0.105,-0.098 0.222,-0.188 0.332,-0.28 0.039,-0.033 0.057,-0.042 0.101,-0.019 0.064,0.034 0.123,0.083 0.183,0.126 0.084,0.061 0.135,0.078 0.241,0.066 0.063,-0.006 0.133,0.015 0.192,-0.01 0.059,-0.024 0.116,-0.079 0.139,-0.137 0.031,-0.075 0.048,-0.162 0.072,-0.24 0.024,-0.08 0.052,-0.16 0.074,-0.24 0.019,-0.069 0.055,-0.199 0.03,-0.27 -0.013,-0.039 -0.056,-0.094 -0.091,-0.111 -0.023,-0.012 -0.072,-0.002 -0.074,-0.035 -10e-4,-0.026 0.03,-0.03 0.042,-0.049 0.032,-0.05 0.026,-0.063 0.088,-0.099 0.035,-0.021 0.077,-0.032 0.09,-0.075 0.002,-0.007 -0.008,-0.052 -0.006,-0.06 0.004,-0.02 0.021,-0.04 0.032,-0.058 0.044,-0.068 0.111,-0.146 0.176,-0.193 0.081,-0.059 0.171,-0.106 0.248,-0.171 0.046,-0.039 0.09,-0.062 0.14,-0.092 0.048,-0.029 0.073,-0.116 0.118,-0.131 0.001,0.079 -0.046,0.137 -0.08,0.202 -0.052,0.101 -0.068,0.227 -0.105,0.336 0.036,-0.04 0.07,-0.016 0.113,-0.033 0.077,-0.029 0.156,-0.106 0.232,-0.146 0.096,-0.051 0.197,-0.093 0.277,-0.166 0.075,-0.068 0.157,-0.122 0.235,-0.187 0.033,-0.027 0.086,-0.062 0.091,-0.108 -0.048,-0.025 -0.118,-0.043 -0.172,-0.049 -0.101,-0.01 -0.125,0.004 -0.089,-0.112 0.024,-0.076 -0.009,-0.115 -0.014,-0.191 -0.001,-0.019 0.008,-0.079 -0.006,-0.097 -0.045,-0.061 -0.104,0.004 -0.087,-0.103 0.01,-0.069 0.054,-0.134 0.113,-0.171 0.027,-0.017 0.057,-0.016 0.088,-0.03 0.043,-0.02 0.059,-0.046 0.087,-0.082 0.024,-0.031 0.04,-0.045 0.074,-0.046 0.019,0 0.036,0.02 0.056,0.015 0.021,-0.006 0.052,-0.046 0.074,-0.054 0.025,-0.01 0.105,-0.016 0.122,0.016 0.024,0.046 -0.054,0.101 -0.075,0.129 -0.029,0.038 -0.049,0.093 -0.05,0.139 0.023,0.004 0.072,-0.02 0.1,-0.025 0.03,-0.004 0.062,-0.012 0.091,-0.023 0.047,-0.018 0.076,-0.05 0.115,-0.077 0.035,-0.024 0.082,-0.039 0.096,-0.084 0.054,0 0.084,0.012 0.083,0.059 -0.001,0.032 -0.025,0.092 -0.04,0.119 -0.019,0.036 -0.038,0.064 -0.054,0.102 -0.016,0.036 -0.042,0.048 -0.054,0.087 -0.035,0.108 0.119,0.05 0.17,0.02"
             style="fill:#231f20;fill-opacity:1;fill-rule:nonzero;stroke:none"
             id="path38683" />
        </g>
        <g
           id="g38685"
           transform="translate(315.342,86.2811)">
          <path
             d="m 0,0 c 0.005,0.008 0.01,0.015 0.014,0.023 l 0.047,0.35 C 0.031,0.25 0.013,0.125 0,0"
             style="fill:#231f20;fill-opacity:1;fill-rule:nonzero;stroke:none"
             id="path38687" />
        </g>
        <g
           id="g38689"
           transform="translate(306.761,91.4615)">
          <path
             d="M 0,0 C -0.077,-0.002 -0.04,-0.003 0,0"
             style="fill:#231f20;fill-opacity:1;fill-rule:nonzero;stroke:none"
             id="path38691" />
        </g>
      </g>
    </g>
  </g>
</svg>
