<?xml version="1.0" encoding="UTF-8" standalone="no"?>
<!-- Created with Inkscape (http://www.inkscape.org/) -->

<svg
   width="21.26886"
   height="24"
   viewBox="0 0 5.6273858 6.35"
   version="1.1"
   id="svg55269"
   inkscape:version="1.2.1 (9c6d41e4, 2022-07-14)"
   sodipodi:docname="spectral-predators.svg"
   xmlns:inkscape="http://www.inkscape.org/namespaces/inkscape"
   xmlns:sodipodi="http://sodipodi.sourceforge.net/DTD/sodipodi-0.dtd"
   xmlns="http://www.w3.org/2000/svg"
   xmlns:svg="http://www.w3.org/2000/svg">
  <sodipodi:namedview
     id="namedview55271"
     pagecolor="#505050"
     bordercolor="#eeeeee"
     borderopacity="1"
     inkscape:showpageshadow="0"
     inkscape:pageopacity="0"
     inkscape:pagecheckerboard="0"
     inkscape:deskcolor="#505050"
     inkscape:document-units="mm"
     showgrid="false"
     inkscape:zoom="0.7046647"
     inkscape:cx="96.499796"
     inkscape:cy="297.30452"
     inkscape:window-width="1390"
     inkscape:window-height="941"
     inkscape:window-x="0"
     inkscape:window-y="25"
     inkscape:window-maximized="0"
     inkscape:current-layer="layer1" />
  <defs
     id="defs55266">
    <clipPath
       clipPathUnits="userSpaceOnUse"
       id="clipPath3951">
      <path
         d="m 65.154,392.122 h 24.699 v 24.699 H 65.154 Z"
         id="path3949" />
    </clipPath>
  </defs>
  <g
     inkscape:label="Layer 1"
     inkscape:groupmode="layer"
     id="layer1"
     transform="translate(-79.672591,-70.188316)">
    <g
       id="g3945"
       transform="matrix(0.26953599,0,0,-0.26953599,61.325465,182.3382)">
      <g
         id="g3947"
         clip-path="url(#clipPath3951)">
        <g
           id="g3953"
           transform="translate(81.7373,399.673)">
          <path
             d="M 0,0 C -0.045,0.162 -0.033,0.331 -0.056,0.496 -0.079,0.657 -0.107,0.822 -0.143,0.981 -0.342,1.055 -0.372,0.644 -0.405,0.546 -0.447,0.424 -0.551,0.316 -0.604,0.197 -0.638,0.119 -0.688,0.056 -0.728,-0.019 -0.76,-0.079 -0.777,-0.145 -0.812,-0.204 -0.891,-0.337 -1.018,-0.437 -1.104,-0.565 -1.2,-0.706 -1.306,-0.827 -1.384,-0.982 c -0.076,-0.153 -0.13,-0.317 -0.233,-0.457 -0.045,-0.06 -0.105,-0.108 -0.147,-0.169 -0.031,-0.044 -0.044,-0.097 -0.071,-0.143 -0.067,-0.109 -0.161,-0.2 -0.227,-0.311 -0.058,-0.098 -0.136,-0.179 -0.19,-0.275 -0.054,-0.097 -0.083,-0.2 -0.129,-0.299 -0.043,-0.09 -0.081,-0.189 -0.111,-0.284 -0.04,-0.13 -0.077,-0.26 -0.123,-0.389 -0.058,-0.164 -0.146,-0.313 -0.207,-0.477 -0.039,-0.108 -0.091,-0.226 -0.15,-0.324 -0.059,-0.1 -0.112,-0.206 -0.173,-0.304 -0.104,-0.167 -0.248,-0.301 -0.36,-0.461 -0.074,-0.107 -0.186,-0.153 -0.293,-0.221 -0.067,-0.041 -0.11,-0.096 -0.172,-0.141 -0.049,-0.035 -0.112,-0.038 -0.162,-0.074 -0.03,-0.021 -0.059,-0.07 -0.093,-0.082 -0.052,-0.019 -0.088,0.007 -0.138,0.019 -0.07,0.018 -0.134,0.023 -0.204,0.032 -0.049,0.006 -0.086,0.043 -0.125,0.054 -0.074,0.02 -0.178,0.01 -0.255,0.006 -0.058,-0.003 -0.078,-0.035 -0.123,-0.053 -0.035,-0.014 -0.058,-0.005 -0.089,-0.027 -0.03,-0.021 -0.049,-0.047 -0.08,-0.066 -0.029,-0.018 -0.055,-0.024 -0.087,-0.037 -0.086,-0.035 -0.184,-0.022 -0.277,-0.022 -0.04,0 -0.092,-0.009 -0.131,-0.001 -0.043,0.008 -0.06,0.04 -0.094,0.054 -0.086,0.035 -0.198,-0.022 -0.285,0.011 -0.036,0.013 -0.063,0.055 -0.095,0.075 -0.032,0.021 -0.062,0.026 -0.094,0.053 -0.066,0.058 -0.073,0.053 -0.148,0.07 -0.018,0.004 -0.086,0.02 -0.101,0.028 -0.092,0.055 -0.206,0.148 -0.285,0.229 -0.082,0.082 -0.159,0.163 -0.211,0.269 -0.017,0.035 -0.025,0.07 -0.047,0.1 -0.01,0.015 -0.027,0.019 -0.037,0.033 -0.022,0.032 -0.018,0.084 -0.036,0.119 -0.049,0.095 -0.109,0.164 -0.135,0.273 -0.016,0.069 -0.026,0.133 -0.038,0.201 -0.016,0.092 -0.039,0.2 -0.085,0.282 -0.042,0.075 -0.05,0.132 -0.065,0.216 -0.018,0.105 -0.053,0.191 -0.052,0.299 10e-4,0.077 0,0.155 0,0.232 v 0.357 c 0,0.067 0.014,0.153 -0.001,0.218 -0.015,0.066 -0.053,0.109 -0.058,0.177 -0.007,0.119 -0.069,0.223 -0.139,0.323 -0.06,0.086 -0.136,0.163 -0.203,0.238 -0.068,0.077 -0.123,0.15 -0.217,0.197 -0.112,0.055 -0.227,0.003 -0.344,0.033 -0.073,0.019 -0.153,0.059 -0.226,0.082 -0.064,0.02 -0.114,0.055 -0.172,0.088 -0.107,0.06 -0.216,0.091 -0.31,0.174 -0.073,0.067 -0.125,0.149 -0.196,0.217 -0.061,0.058 -0.105,0.116 -0.144,0.191 -0.042,0.081 -0.107,0.151 -0.141,0.235 -0.04,0.095 -0.061,0.197 -0.106,0.29 -0.044,0.09 -0.082,0.167 -0.111,0.263 -0.024,0.082 -0.062,0.157 -0.074,0.243 -0.018,0.12 -0.005,0.246 -0.006,0.367 -0.002,0.234 0.059,0.47 0.023,0.704 -0.015,0.091 -0.04,0.161 -0.048,0.244 -0.014,0.039 -0.016,0.076 0.004,0.11 0.011,0.067 0.036,0.135 0.047,0.205 0.015,0.096 0.069,0.181 0.085,0.278 0.004,0.028 -0.01,0.103 0.003,0.126 0.02,0.036 0.024,0.021 0.06,0.026 0.057,0.009 0.091,-0.015 0.139,-0.036 0.109,-0.048 0.225,-0.058 0.351,-0.052 0.154,0.007 0.292,0.098 0.454,0.089 0.092,-0.005 0.176,-0.031 0.269,-0.03 0.088,0 0.188,0.011 0.274,-10e-4 C -8.179,2.389 -8.047,2.28 -7.924,2.199 -7.81,2.124 -7.664,2.051 -7.576,1.947 -7.525,1.888 -7.459,1.816 -7.434,1.74 -7.405,1.651 -7.42,1.513 -7.444,1.424 -7.488,1.263 -7.6,1.187 -7.761,1.164 -7.894,1.145 -8.049,1.154 -8.176,1.201 c -0.077,0.028 -0.163,0.077 -0.216,0.141 -0.003,0.005 -0.009,0.014 -0.014,0.024 0.058,10e-4 0.116,0.002 0.173,0.002 0.073,0 0.154,-0.01 0.226,0 0.058,0.007 0.107,0.065 0.167,0.068 0,0.037 0.031,0.069 0.067,0.081 C -7.816,1.516 -7.858,1.512 -7.901,1.501 -7.985,1.479 -8.091,1.497 -8.179,1.497 -8.273,1.496 -8.371,1.508 -8.459,1.54 -8.554,1.574 -8.642,1.623 -8.737,1.657 -8.871,1.706 -9.001,1.776 -9.091,1.883 -9.138,1.94 -9.189,1.991 -9.239,2.043 -9.253,2.058 -9.284,2.092 -9.292,2.11 -9.306,2.14 -9.287,2.172 -9.333,2.181 -9.35,2.12 -9.341,2.024 -9.326,1.968 -9.317,1.934 -9.324,1.898 -9.316,1.861 -9.309,1.823 -9.284,1.788 -9.267,1.754 -9.224,1.666 -9.149,1.621 -9.069,1.573 -9.023,1.545 -8.987,1.505 -8.937,1.486 -8.904,1.473 -8.869,1.469 -8.836,1.454 -8.821,1.447 -8.791,1.422 -8.775,1.416 -8.73,1.398 -8.676,1.394 -8.629,1.389 -8.585,1.385 -8.544,1.37 -8.5,1.368 c 0.005,-0.001 0.01,0 0.015,-0.001 C -8.49,1.318 -8.493,1.266 -8.498,1.225 -8.511,1.12 -8.468,1.007 -8.414,0.92 c 0.129,-0.204 0.369,-0.423 0.616,-0.457 0.115,-0.016 0.266,-0.02 0.376,0.022 0.088,0.033 0.139,0.108 0.198,0.178 0.127,0.152 0.241,0.338 0.264,0.538 0.027,0.23 0.003,0.463 -0.068,0.681 C -7.094,2.085 -7.117,2.3 -7.268,2.46 -7.375,2.573 -7.478,2.682 -7.608,2.768 -7.754,2.865 -7.874,2.99 -8.012,3.098 -8.136,3.194 -8.276,3.271 -8.415,3.347 -8.554,3.423 -8.667,3.435 -8.824,3.435 -8.981,3.436 -9.101,3.431 -9.231,3.332 -9.33,3.258 -9.425,3.17 -9.495,3.067 -9.599,2.916 -9.595,2.744 -9.662,2.58 -9.682,2.53 -9.682,2.496 -9.742,2.501 -9.769,2.503 -9.81,2.53 -9.83,2.547 c -0.051,0.046 -0.068,0.13 -0.089,0.193 -0.042,0.129 -0.111,0.244 -0.138,0.378 -0.027,0.133 -0.052,0.266 -0.08,0.399 -0.032,0.15 -0.092,0.294 -0.126,0.444 -0.045,0.194 -0.129,0.374 -0.177,0.565 -0.03,0.118 -0.02,0.235 -0.056,0.353 -0.099,0.324 -0.189,0.646 -0.325,0.957 -0.064,0.148 -0.132,0.288 -0.218,0.423 -0.069,0.108 -0.114,0.224 -0.174,0.337 -0.157,0.294 -0.378,0.548 -0.528,0.845 -0.1,0.199 -0.238,0.375 -0.35,0.567 -0.106,0.18 -0.181,0.377 -0.272,0.565 -0.258,0.535 -0.503,1.075 -0.768,1.606 -0.165,0.33 -0.266,0.693 -0.377,1.043 -0.058,0.183 -0.123,0.368 -0.16,0.557 0.014,-0.387 0.14,-0.762 0.147,-1.151 0.005,-0.23 0.076,-0.439 0.092,-0.666 0.016,-0.222 0.049,-0.441 0.085,-0.66 0.043,-0.261 0.1,-0.514 0.208,-0.756 0.062,-0.136 0.123,-0.273 0.168,-0.415 0.029,-0.091 0.06,-0.188 0.105,-0.273 0.097,-0.179 0.246,-0.328 0.349,-0.504 0.045,-0.08 0.081,-0.158 0.121,-0.24 0.082,-0.175 0.228,-0.299 0.339,-0.455 0.098,-0.139 0.16,-0.298 0.262,-0.437 0.089,-0.12 0.186,-0.228 0.292,-0.333 0.098,-0.097 0.224,-0.177 0.288,-0.301 0.061,-0.119 0.088,-0.257 0.089,-0.39 0.002,-0.262 -0.086,-0.455 -0.243,-0.653 -0.208,-0.265 -0.282,-0.574 -0.254,-0.908 0.014,-0.168 0.006,-0.399 0.102,-0.544 0.089,-0.136 0.2,-0.303 0.319,-0.415 0.048,-0.046 0.093,-0.112 0.151,-0.144 0.051,-0.027 0.11,-0.037 0.162,-0.069 0.076,-0.046 0.161,-0.107 0.225,-0.168 0.078,-0.075 0.186,-0.086 0.235,-0.177 0.027,-0.051 0.038,-0.107 0.051,-0.166 0.022,-0.108 0.002,-0.221 -0.031,-0.324 -0.028,-0.087 -0.029,-0.179 -0.057,-0.268 -0.027,-0.085 -0.052,-0.14 -0.053,-0.233 -0.002,-0.099 0.005,-0.195 0.016,-0.293 0.024,-0.215 -0.026,-0.46 0.039,-0.668 0.073,-0.23 0.262,-0.4 0.359,-0.617 0.052,-0.118 0.125,-0.196 0.205,-0.298 0.073,-0.093 0.114,-0.228 0.207,-0.304 0.129,-0.105 0.336,-0.157 0.496,-0.191 0.087,-0.019 0.129,-0.026 0.199,-0.08 0.095,-0.075 0.17,-0.127 0.29,-0.151 0.144,-0.028 0.305,-0.094 0.41,-0.198 0.088,-0.087 0.253,-0.19 0.258,-0.321 0.004,-0.102 0.041,-0.184 0.055,-0.283 0.013,-0.09 0.028,-0.176 0.044,-0.265 0.015,-0.086 0.017,-0.172 0.034,-0.257 0.018,-0.083 0.041,-0.165 0.057,-0.249 0.03,-0.163 0.059,-0.329 0.102,-0.49 0.033,-0.123 0.027,-0.243 0.071,-0.365 0.104,-0.285 0.247,-0.554 0.425,-0.798 0.078,-0.108 0.128,-0.234 0.203,-0.345 0.066,-0.096 0.145,-0.19 0.219,-0.28 0.063,-0.077 0.134,-0.171 0.226,-0.216 0.064,-0.031 0.139,-0.072 0.203,-0.093 0.056,-0.017 0.056,-0.006 0.098,-0.048 0.025,-0.024 0.043,-0.056 0.071,-0.078 0.036,-0.029 0.072,-0.042 0.115,-0.055 0.069,-0.022 0.182,-0.063 0.229,-0.121 0.04,-0.048 0.067,-0.163 0.086,-0.222 0.016,-0.05 0.02,-0.106 0.042,-0.155 0.045,-0.103 0.147,-0.204 0.227,-0.282 0.119,-0.116 0.225,-0.242 0.348,-0.353 0.064,-0.058 0.128,-0.054 0.204,-0.081 0.077,-0.027 0.131,-0.095 0.207,-0.119 -0.01,0.031 -0.04,0.061 -0.058,0.09 -0.043,0.07 -0.069,0.134 -0.089,0.213 -0.024,0.093 -0.065,0.187 -0.083,0.281 -0.013,0.063 -0.003,0.127 -0.007,0.191 0.012,-0.104 0.067,-0.216 0.135,-0.296 0.049,-0.057 0.162,-0.161 0.245,-0.158 -10e-4,0.073 -0.054,0.142 -0.058,0.219 -0.003,0.06 0.002,0.121 0,0.182 0.035,-0.112 0.066,-0.185 0.131,-0.283 0.05,-0.075 0.207,-0.184 0.307,-0.145 0.003,0.038 -0.04,0.078 -0.058,0.11 -0.031,0.054 -0.043,0.104 -0.06,0.162 -0.023,0.083 -0.05,0.183 -0.021,0.268 0.023,-0.059 0.04,-0.119 0.063,-0.179 0.021,-0.053 0.022,-0.127 0.06,-0.172 0.037,-0.046 0.091,-0.047 0.139,-0.081 0.043,-0.03 0.077,-0.093 0.137,-0.081 0.032,0.108 -0.069,0.192 -0.086,0.289 -0.02,0.107 0.006,0.231 0,0.34 0.032,-0.026 0.022,-0.046 0.036,-0.083 0.022,-0.061 0.07,-0.095 0.111,-0.142 0.075,-0.086 0.143,-0.275 0.289,-0.257 0.019,0.056 -0.019,0.09 -0.028,0.143 -0.006,0.036 0.002,0.08 10e-4,0.117 0,0.06 -0.004,0.115 0.016,0.173 0.023,0.066 0.078,0.124 0.071,0.196 0.023,-0.024 0.035,-0.049 0.051,-0.077 0.028,-0.048 0.062,-0.076 0.097,-0.118 0.028,-0.034 0.044,-0.074 0.07,-0.108 0.032,-0.042 0.072,-0.069 0.097,-0.116 0.03,0.058 -0.033,0.165 -0.052,0.223 -0.035,0.105 -0.025,0.205 -0.031,0.313 0.027,-0.045 0.021,-0.079 0.033,-0.126 0.012,-0.045 0.047,-0.071 0.071,-0.111 0.018,-0.029 0.019,-0.069 0.041,-0.097 0.023,-0.031 0.06,-0.04 0.085,-0.066 0.028,-0.028 0.043,-0.087 0.087,-0.084 0.024,0.089 -0.022,0.171 -0.024,0.26 -10e-4,0.076 -10e-4,0.147 0.015,0.22 0.048,0.23 0.089,0.453 0.138,0.683 0.042,-0.009 0.104,-0.147 0.124,-0.189 0.035,-0.071 0.086,-0.15 0.145,-0.201 0.052,-0.045 0.131,-0.071 0.191,-0.104 0.074,-0.04 0.126,-0.107 0.2,-0.147 0.086,-0.046 0.179,-0.062 0.269,-0.093 0.051,-0.018 0.084,-0.068 0.132,-0.081 -0.03,0.13 -0.139,0.24 -0.194,0.363 -0.041,0.09 -0.097,0.176 -0.146,0.264 -0.04,0.073 -0.06,0.151 -0.094,0.222 -0.039,0.083 -0.058,0.173 -0.079,0.258 -0.018,0.073 -0.052,0.144 -0.06,0.219 -0.009,0.067 -0.004,0.121 -0.022,0.185 -0.067,0.24 0.116,0.394 0.184,0.602 0.014,0.043 0.019,0.088 0.04,0.129 0.031,0.064 0.078,0.115 0.109,0.179 0.069,0.147 0.092,0.302 0.156,0.45 0.042,0.096 0.073,0.187 0.128,0.277 0.039,0.065 0.071,0.135 0.105,0.203 0.063,0.131 0.15,0.249 0.218,0.379 0.044,0.085 0.102,0.161 0.164,0.233 0.062,0.073 0.113,0.16 0.179,0.229 0.051,0.054 0.116,0.097 0.168,0.15 0.078,0.079 0.154,0.159 0.236,0.234 0.191,0.175 0.411,0.344 0.573,0.549 0.086,0.109 0.138,0.243 0.238,0.341 0.025,0.024 0.052,0.037 0.062,0.07 0.02,0.064 -0.008,0.152 -0.023,0.212 C 0.074,-0.212 0.031,-0.111 0,0"
             style="fill:#000000;fill-opacity:1;fill-rule:nonzero;stroke:none"
             id="path3955" />
        </g>
        <g
           id="g3957"
           transform="translate(72.0096,400.687)">
          <path
             d="M 0,0 -0.292,0.729 C -0.291,0.713 -0.289,0.699 -0.287,0.684 -0.284,0.675 -0.285,0.666 -0.28,0.657 -0.193,0.436 -0.1,0.216 0,0"
             style="fill:#000000;fill-opacity:1;fill-rule:nonzero;stroke:none"
             id="path3959" />
        </g>
        <g
           id="g3961"
           transform="translate(80.2012,404.615)">
          <path
             d="m 0,0 c -0.105,-0.021 -0.2,-0.022 -0.307,-0.023 -0.076,0 -0.174,0.018 -0.247,-0.004 -0.048,-0.014 -0.1,-0.06 -0.146,-0.082 -0.061,-0.03 -0.111,-0.068 -0.169,-0.104 -0.097,-0.061 -0.197,-0.112 -0.299,-0.165 -0.059,-0.031 -0.092,-0.062 -0.138,-0.105 -0.057,-0.051 -0.123,-0.085 -0.181,-0.135 -0.096,-0.086 -0.198,-0.161 -0.29,-0.249 -0.104,-0.1 -0.228,-0.176 -0.317,-0.293 -0.016,-0.021 -0.029,-0.038 -0.043,-0.054 l 0.154,0.288 C -2.077,-1.019 -2.25,-1.135 -2.275,-1.278 -2.281,-1.315 -2.284,-1.353 -2.287,-1.39 -2.324,-1.463 -2.365,-1.536 -2.395,-1.609 -2.415,-1.658 -2.419,-1.684 -2.42,-1.742 l 0.116,0.217 C -2.33,-1.66 -2.333,-1.78 -2.333,-1.917 c 0,-0.105 -0.004,-0.21 0,-0.314 0.003,-0.075 0.031,-0.115 0.065,-0.181 0.073,-0.138 0.107,-0.279 0.256,-0.359 0.053,-0.028 0.089,-0.084 0.145,-0.102 0.03,-0.01 0.058,-0.003 0.088,-0.012 0.032,-0.009 0.057,-0.037 0.088,-0.047 0.093,-0.028 0.259,-0.018 0.356,-0.007 0.064,0.007 0.143,0.031 0.204,0.052 0.074,0.026 0.139,0.033 0.212,0.051 0.128,0.031 0.245,0.112 0.35,0.19 0.082,0.06 0.123,0.128 0.188,0.204 0.042,0.049 0.195,0.148 0.141,0.232 -0.023,-0.006 -0.046,-0.07 -0.073,-0.093 -0.064,-0.056 -0.136,-0.109 -0.207,-0.155 -0.082,-0.054 -0.164,-0.104 -0.244,-0.159 -0.081,-0.055 -0.186,-0.11 -0.285,-0.118 -0.162,-0.012 -0.333,0 -0.497,0.002 -0.136,10e-4 -0.173,0.081 -0.174,0.203 -0.001,0.079 0.035,0.124 0.052,0.198 0.012,0.051 0,0.101 0.012,0.152 0.025,0.106 0.047,0.226 0.108,0.32 0.083,0.127 0.204,0.225 0.344,0.286 0.071,0.03 0.149,0.043 0.219,0.071 0.068,0.028 0.13,0.072 0.204,0.083 0.181,0.027 0.362,-0.035 0.541,0.034 0.101,0.038 0.15,0.058 0.263,0.052 C 0.078,-1.337 0.146,-1.342 0.197,-1.37 0.313,-1.434 0.299,-1.583 0.318,-1.692 0.329,-1.753 0.356,-1.76 0.343,-1.823 0.34,-1.835 0.322,-1.854 0.319,-1.872 0.315,-1.894 0.319,-1.923 0.32,-1.946 0.322,-2.09 0.231,-2.19 0.203,-2.326 0.193,-2.372 0.191,-2.43 0.175,-2.473 0.158,-2.516 0.114,-2.54 0.086,-2.58 0.048,-2.635 0.024,-2.702 -0.007,-2.761 -0.019,-2.784 -0.036,-2.823 -0.052,-2.845 -0.069,-2.87 -0.095,-2.882 -0.111,-2.907 -0.137,-2.945 -0.147,-2.991 -0.182,-3.025 -0.228,-3.07 -0.29,-3.083 -0.351,-3.105 -0.438,-3.138 -0.526,-3.153 -0.615,-3.178 -0.663,-3.191 -0.709,-3.218 -0.758,-3.23 -0.889,-3.26 -1,-3.287 -1.137,-3.287 c -0.148,-10e-4 -0.298,-0.011 -0.438,0.022 -0.049,0.012 -0.098,-0.004 -0.145,0.005 -0.045,0.009 -0.073,0.047 -0.111,0.057 -0.023,-0.046 0.015,-0.116 0.037,-0.158 0.021,-0.042 0.057,-0.067 0.088,-0.101 0.046,-0.051 0.066,-0.114 0.117,-0.159 0.022,-0.019 0.053,-0.031 0.073,-0.051 0.025,-0.026 0.032,-0.058 0.057,-0.083 0.097,-0.099 0.226,-0.198 0.372,-0.204 0.076,-0.002 0.166,-0.01 0.241,0 0.078,0.01 0.156,0.039 0.233,0.053 0.088,0.016 0.13,0.001 0.205,0.058 0.053,0.04 0.09,0.072 0.152,0.101 0.052,0.025 0.091,0.054 0.137,0.087 0.061,0.045 0.133,0.073 0.2,0.111 0.115,0.066 0.172,0.165 0.203,0.291 0.015,0.061 -0.003,0.123 0.009,0.184 0.005,0.023 0.023,0.023 0.029,0.047 0.007,0.035 -0.004,0.074 0.004,0.111 0.008,0.043 0.037,0.081 0.047,0.123 0.01,0.047 0.006,0.094 0.005,0.142 -0.001,0.056 0.002,0.102 0.035,0.151 0.096,0.143 0.248,0.221 0.36,0.349 0.045,0.051 0.085,0.114 0.131,0.167 0.026,0.031 0.053,0.061 0.073,0.096 0.043,0.073 0.082,0.159 0.109,0.24 0.057,0.174 0.109,0.39 0.073,0.575 -0.018,0.09 -0.005,0.197 -0.057,0.268 -0.058,0.078 -0.087,0.16 -0.139,0.242 -0.049,0.078 -0.111,0.125 -0.175,0.189 -0.067,0.067 -0.122,0.131 -0.206,0.176 -0.11,0.06 -0.194,0.133 -0.315,0.177 C 0.182,0.011 0.09,0.018 0,0"
             style="fill:#000000;fill-opacity:1;fill-rule:nonzero;stroke:none"
             id="path3963" />
        </g>
        <g
           id="g3965"
           transform="translate(75.3894,395.969)">
          <path
             d="m 0,0 c 0.008,-0.037 0.027,-0.051 0.031,-0.092 0.01,-0.085 0.013,-0.166 0.042,-0.248 0.031,-0.085 0.087,-0.165 0.125,-0.247 0.031,-0.069 0.074,-0.09 0.118,-0.147 0.028,-0.035 0.04,-0.079 0.064,-0.117 0.033,-0.053 0.164,-0.133 0.146,-0.203 l 0.059,0.466 c -0.015,-0.303 0.34,-0.322 0.568,-0.293 0.047,0.007 0.088,0.032 0.131,0.046 0.036,0.011 0.085,0.009 0.118,0.028 0.022,0.012 0.057,0.054 0.075,0.072 0.039,0.041 0.035,0.069 0.061,0.119 0.026,0.052 0.074,0.065 0.104,0.115 0.028,0.047 0.053,0.099 0.08,0.146 0.056,0.097 0.088,0.207 0.087,0.321 C 1.807,0.187 1.828,0.42 1.773,0.63 1.761,0.675 1.725,0.721 1.72,0.775 1.715,0.829 1.71,0.842 1.696,0.889 1.667,0.985 1.632,1.097 1.634,1.197 1.636,1.307 1.606,1.415 1.568,1.517 1.528,1.621 1.509,1.735 1.459,1.831 1.393,1.957 1.322,2.31 1.167,2.053 1.139,2.006 1.137,1.991 1.138,1.933 1.139,1.877 1.128,1.852 1.116,1.803 1.096,1.724 1.069,1.65 1.05,1.57 1.023,1.46 1.012,1.344 0.993,1.233 0.976,1.132 0.949,1.031 0.933,0.929 0.914,0.814 0.936,0.709 0.905,0.594 0.889,0.533 0.87,0.47 0.84,0.41 0.81,0.352 0.782,0.257 0.7,0.255 0.637,0.254 0.644,0.272 0.643,0.33 0.641,0.372 0.637,0.421 0.642,0.462 0.65,0.528 0.678,0.603 0.7,0.665 0.731,0.751 0.73,0.821 0.73,0.913 V 1.481 C 0.73,1.607 0.751,1.752 0.728,1.875 0.712,1.956 0.701,2.044 0.614,1.978 0.547,1.927 0.521,1.831 0.49,1.751 0.46,1.671 0.423,1.591 0.408,1.504 0.397,1.438 0.406,1.403 0.372,1.342 0.357,1.314 0.339,1.283 0.329,1.25 0.304,1.156 0.305,1.058 0.264,0.971 0.223,0.885 0.178,0.811 0.14,0.725 0.118,0.677 0.105,0.625 0.082,0.577 0.057,0.525 0.014,0.476 0.003,0.42 -0.014,0.334 0.002,0.229 0.002,0.141 0.002,0.098 -0.009,0.04 0,0"
             style="fill:#000000;fill-opacity:1;fill-rule:nonzero;stroke:none"
             id="path3967" />
        </g>
        <g
           id="g3969"
           transform="translate(85.3309,413.065)">
          <path
             d="M 0,0 C 0.031,0.031 0.056,0.064 0.055,0.089 0.031,0.069 0.014,0.036 0,0"
             style="fill:#000000;fill-opacity:1;fill-rule:nonzero;stroke:none"
             id="path3971" />
        </g>
        <g
           id="g3973"
           transform="translate(72.584,407.75)">
          <path
             d="m 0,0 c 0.006,-0.227 0.09,-0.449 0.135,-0.671 0.042,-0.202 0.085,-0.408 0.172,-0.596 0.148,-0.324 0.345,-0.616 0.558,-0.898 0.153,-0.202 0.294,-0.419 0.467,-0.605 0.163,-0.174 0.366,-0.29 0.534,-0.46 0.135,-0.138 0.273,-0.271 0.399,-0.417 0.064,-0.075 0.123,-0.2 0.24,-0.183 l -0.042,10e-4 c -0.22,0.418 -0.301,0.526 -0.35,0.597 -0.072,0.106 -0.142,0.197 -0.222,0.3 C 1.809,-2.827 1.686,-2.74 1.613,-2.636 1.549,-2.544 1.518,-2.422 1.46,-2.335 1.294,-2.083 1.096,-1.809 1.013,-1.5 0.981,-1.379 0.955,-0.791 1.052,-0.775 1.093,-0.93 1.09,-0.963 1.2,-1.086 1.265,-1.16 1.39,-1.361 1.501,-1.368 c 0.202,-0.014 0.232,0.384 0.23,0.531 -0.003,0.239 0.026,0.432 0.082,0.65 0.054,0.21 0.254,0.36 0.367,0.549 C 2.275,0.52 2.363,0.679 2.446,0.842 2.561,1.068 2.545,1.313 2.61,1.56 2.631,1.64 2.752,1.848 2.571,1.822 2.539,1.818 2.37,1.646 2.33,1.609 2.273,1.554 2.161,1.448 2.136,1.379 2.112,1.314 2.132,1.239 2.116,1.169 2.106,1.13 2.074,1.123 2.064,1.091 2.05,1.182 1.945,1.27 1.927,1.354 1.901,1.473 1.908,1.579 1.866,1.692 1.833,1.78 1.748,1.861 1.728,1.952 1.701,2.071 1.724,2.251 1.746,2.369 1.818,2.753 1.937,3.189 2.135,3.531 2.303,3.82 2.41,4.078 2.535,4.386 2.636,4.638 2.814,4.908 2.799,5.19 2.616,5.022 2.426,4.875 2.25,4.7 2.053,4.505 1.81,4.377 1.665,4.135 1.544,3.933 1.347,3.766 1.264,3.546 1.197,3.369 1.241,3.19 1.185,3.025 1.077,3.048 1.121,3.585 1.148,3.688 1.192,3.858 1.263,4.058 1.347,4.213 1.486,4.47 1.593,4.7 1.673,4.979 1.683,5.013 1.717,5.017 1.726,5.053 1.738,5.107 1.716,5.164 1.728,5.217 1.745,5.293 1.835,5.314 1.786,5.405 1.685,5.379 1.574,5.257 1.499,5.181 1.382,5.062 1.225,4.975 1.129,4.838 1.039,4.708 1.008,4.549 0.92,4.417 0.852,4.316 0.771,4.228 0.714,4.118 0.564,3.834 0.41,3.526 0.278,3.235 0.207,3.078 0.205,2.922 0.162,2.759 0.125,2.621 0.054,2.497 0.016,2.36 -0.07,2.054 -0.066,1.733 -0.064,1.419 -0.061,0.939 -0.012,0.477 0,0"
             style="fill:#000000;fill-opacity:1;fill-rule:nonzero;stroke:none"
             id="path3975" />
        </g>
        <g
           id="g3977"
           transform="translate(76.5295,410.201)">
          <path
             d="m 0,0 c 0.082,-0.115 0.182,-0.23 0.246,-0.368 0.126,-0.274 0.099,-0.548 0.099,-0.845 0.034,0.037 0.057,0.063 0.074,0.08 -0.004,-0.003 -0.007,-0.007 -0.012,-0.01 0.022,0.066 0.053,0.134 0.058,0.207 0.165,0.052 0.391,0.009 0.567,0.009 h 0.399 c 0.133,0 0.267,0.003 0.4,0 0.182,-0.004 0.164,0.024 0.171,0.2 0.005,0.134 0.059,0.215 0.058,0.359 -10e-4,0.137 0,0.275 0,0.413 0,0.112 0.033,0.296 0.003,0.403 C 2.054,0.478 2.024,0.535 1.99,0.549 1.907,0.582 1.919,0.522 1.854,0.507 1.68,0.468 1.368,0.338 1.258,0.558 1.21,0.655 1.217,0.739 1.132,0.829 1.049,0.917 0.997,0.991 0.932,1.09 0.882,1.165 0.798,1.234 0.758,1.315 0.701,1.427 0.681,1.538 0.616,1.644 0.567,1.724 0.476,1.837 0.456,1.928 0.443,1.985 0.474,2.049 0.462,2.106 0.449,2.169 0.385,2.185 0.403,2.26 0.335,2.031 0.258,1.808 0.173,1.585 0.11,1.421 -0.007,1.22 -0.043,1.061 -0.07,0.939 -0.078,0.849 -0.127,0.732 -0.173,0.62 -0.195,0.456 -0.173,0.331 -0.155,0.233 -0.054,0.076 0,0"
             style="fill:#000000;fill-opacity:1;fill-rule:nonzero;stroke:none"
             id="path3979" />
        </g>
        <g
           id="g3981"
           transform="translate(76.9488,409.069)">
          <path
             d="M 0,0 C 0.033,0.029 0.051,0.053 0,0"
             style="fill:#000000;fill-opacity:1;fill-rule:nonzero;stroke:none"
             id="path3983" />
        </g>
        <g
           id="g3985"
           transform="translate(78.0051,412.53)">
          <path
             d="M 0,0 C 0.085,-0.109 0.13,-0.218 0.184,-0.343 0.227,-0.444 0.285,-0.515 0.3,-0.625 0.312,-0.716 0.308,-0.824 0.301,-0.923 0.061,-0.722 0.064,-0.782 0.069,-0.941 0.074,-1.081 0.076,-1.08 0.212,-1.084 0.445,-1.09 0.596,-1.07 0.789,-1.222 0.913,-1.319 1.032,-1.435 1.145,-1.541 1.213,-1.604 1.22,-1.71 1.269,-1.774 c 0.108,-0.139 0.216,0.155 0.241,0.28 0.032,0.008 0.064,0.016 0.097,0.023 C 1.53,-1.307 1.454,-1.114 1.363,-0.945 1.265,-0.765 1.239,-0.57 1.183,-0.371 1.138,-0.213 1.212,-0.004 1.152,0.142 1.088,0.294 0.968,0.263 0.839,0.287 0.722,0.308 0.579,0.452 0.538,0.571 0.501,0.679 0.528,0.794 0.486,0.906 0.453,0.994 0.435,1.059 0.414,1.146 0.395,1.23 0.36,1.288 0.354,1.375 0.349,1.464 0.373,1.561 0.359,1.648 0.345,1.736 0.301,1.799 0.297,1.889 0.294,1.955 0.327,2.038 0.255,2.058 0.221,1.965 0.213,1.868 0.171,1.775 0.131,1.687 0.074,1.608 0.039,1.515 -0.009,1.387 -0.046,1.316 -0.045,1.175 -0.044,1.111 -0.035,1.037 -0.043,0.974 -0.052,0.908 -0.087,0.88 -0.097,0.827 -0.12,0.704 -0.102,0.559 -0.102,0.432 -0.102,0.248 -0.116,0.15 0,0"
             style="fill:#000000;fill-opacity:1;fill-rule:nonzero;stroke:none"
             id="path3987" />
        </g>
        <g
           id="g3989"
           transform="translate(79.2293,413.731)">
          <path
             d="M 0,0 C -0.003,-0.016 -0.006,-0.032 0.068,-0.048 0.049,-0.022 0.027,-0.003 0,0"
             style="fill:#000000;fill-opacity:1;fill-rule:nonzero;stroke:none"
             id="path3991" />
        </g>
        <g
           id="g3993"
           transform="translate(79.1469,414.808)">
          <path
             d="m 0,0 c 0.04,-0.093 0.067,-0.184 0.114,-0.274 0.133,-0.257 0.072,-0.61 0.072,-0.896 v 0.038 c -0.014,0.002 -0.025,0.004 -0.036,0.006 0.039,-0.052 0.065,-0.133 0.09,-0.175 0.072,-0.121 0.169,-0.235 0.235,-0.363 0.1,-0.194 0.157,-0.314 0.343,-0.426 0.084,-0.05 0.234,-0.227 0.343,-0.191 0.138,0.046 0.027,0.376 0.009,0.476 -0.042,0.24 0.041,0.429 0.046,0.661 0.004,0.156 0.001,0.314 -10e-4,0.469 -0.002,0.085 0.01,0.157 -0.04,0.232 C 1.126,-0.373 1.06,-0.374 0.999,-0.32 0.889,-0.224 0.825,-0.064 0.775,0.066 0.704,0.248 0.604,0.439 0.473,0.582 0.345,0.722 0.223,0.914 0.182,1.094 0.17,1.15 0.233,1.278 0.128,1.277 0.043,1.277 0.07,1.155 0.059,1.099 0.021,0.92 -0.023,0.691 -0.1,0.523 -0.157,0.4 -0.194,0.293 -0.116,0.167 -0.075,0.103 -0.033,0.078 0,0"
             style="fill:#000000;fill-opacity:1;fill-rule:nonzero;stroke:none"
             id="path3995" />
        </g>
        <g
           id="g3997"
           transform="translate(80.5963,414.871)">
          <path
             d="m 0,0 c -0.014,-0.152 0.116,-0.26 0.154,-0.394 0.03,-0.103 0.039,-0.179 0.082,-0.28 0.029,-0.071 0.077,-0.367 0.154,-0.402 0.117,-0.052 0.201,0.193 0.255,0.255 0.094,0.11 0.405,0.196 0.382,0.371 -0.007,0.053 -0.052,0.058 -0.064,0.11 -0.01,0.044 0.008,0.095 -0.002,0.141 C 0.947,-0.134 0.883,-0.034 0.852,0.034 0.743,0.275 0.629,0.51 0.522,0.752 0.487,0.829 0.468,0.905 0.423,0.978 0.353,1.09 0.371,1.092 0.223,1.092 0.089,1.092 0.065,1.114 0.05,0.979 0.039,0.877 0.037,0.735 0.061,0.638 0.102,0.472 0.168,0.379 0.166,0.206 c -0.002,-0.105 0,-0.21 0,-0.315 L 0.109,0.006 C 0.071,0.016 0.035,0.014 0,0"
             style="fill:#000000;fill-opacity:1;fill-rule:nonzero;stroke:none"
             id="path3999" />
        </g>
        <g
           id="g4001"
           transform="translate(88.5904,402.796)">
          <path
             d="M 0,0 C -0.01,-0.016 -0.017,-0.033 -0.027,-0.049 -0.017,-0.037 -0.008,-0.019 0,0"
             style="fill:#000000;fill-opacity:1;fill-rule:nonzero;stroke:none"
             id="path4003" />
        </g>
        <g
           id="g4005"
           transform="translate(88.6521,403.092)">
          <path
             d="M 0,0 C -0.011,-0.068 -0.026,-0.211 -0.062,-0.296 0.045,-0.118 0.101,0.098 0.116,0.303 0.121,0.383 0.13,0.482 0.135,0.585 0.12,0.545 0.106,0.506 0.091,0.464 0.035,0.313 0.025,0.158 0,0"
             style="fill:#000000;fill-opacity:1;fill-rule:nonzero;stroke:none"
             id="path4007" />
        </g>
        <g
           id="g4009"
           transform="translate(88.9405,405.502)">
          <path
             d="m 0,0 c -0.019,0.269 -0.128,0.532 -0.162,0.8 -0.017,0.138 -0.005,0.269 -0.065,0.399 -0.079,0.169 -0.129,0.33 -0.19,0.505 -0.08,0.229 -0.224,0.423 -0.33,0.638 C -0.882,2.613 -0.975,2.91 -1.146,3.159 -1.233,3.287 -1.304,3.415 -1.387,3.543 -1.501,3.721 -1.675,3.819 -1.749,4.032 -1.85,4.32 -2.048,4.583 -2.318,4.746 -2.657,4.949 -2.919,4.813 -3.266,4.716 -3.375,4.685 -3.482,4.673 -3.573,4.603 -3.657,4.538 -3.734,4.465 -3.819,4.401 -3.891,4.346 -3.989,4.292 -4.052,4.23 -4.128,4.157 -4.139,4.061 -4.203,3.977 -4.256,3.906 -4.359,3.856 -4.395,3.774 -4.436,3.683 -4.427,3.582 -4.475,3.487 -4.517,3.405 -4.556,3.296 -4.611,3.224 -4.656,3.166 -4.713,3.148 -4.749,3.088 -4.819,2.973 -4.903,2.751 -4.924,2.617 -4.959,2.384 -4.806,2.168 -4.708,2.11 -4.722,2.099 -4.73,2.081 -4.741,2.062 -4.804,1.957 -4.888,1.88 -4.978,1.798 -5.103,1.687 -5.225,1.558 -5.331,1.429 -5.494,1.229 -5.776,0.998 -6.058,1.074 c -0.087,0.023 -0.058,0.112 -0.059,0.188 0,0.068 -0.022,0.182 0.005,0.245 0.016,0.038 0.055,0.053 0.083,0.079 0.063,0.056 0.073,0.14 0.133,0.198 0.045,0.044 0.101,0.058 0.132,0.115 0.037,0.068 0.014,0.151 0.042,0.22 0.061,0.154 0.203,0.254 0.3,0.38 0.049,0.063 0.05,0.128 0.07,0.201 0.018,0.061 0.051,0.114 0.066,0.177 0.051,0.208 0.107,0.395 0.102,0.612 -0.003,0.143 0.035,0.299 0.101,0.426 0.055,0.107 0.111,0.228 0.197,0.311 0.059,0.057 0.082,0.112 0.124,0.181 0.038,0.063 0.094,0.115 0.143,0.169 0.109,0.117 0.242,0.223 0.368,0.321 0.131,0.103 0.208,0.246 0.313,0.372 0.146,0.176 0.262,0.37 0.343,0.584 0.075,0.196 0.161,0.382 0.225,0.581 0.057,0.174 0.05,0.353 0.103,0.528 0.017,0.054 0.029,0.112 0.037,0.168 0.005,0.036 0.027,0.086 0.025,0.119 C -3.265,7.265 -3.344,7.113 -3.368,7.08 -3.448,6.967 -3.534,6.854 -3.607,6.739 -3.651,6.671 -3.675,6.593 -3.725,6.528 -3.76,6.483 -3.806,6.443 -3.843,6.4 -3.891,6.342 -3.938,6.286 -3.989,6.232 -4.048,6.169 -4.092,6.094 -4.149,6.032 -4.215,5.959 -4.308,5.921 -4.376,5.846 -4.431,5.784 -4.472,5.728 -4.543,5.685 -4.58,5.662 -4.626,5.654 -4.659,5.632 -4.693,5.61 -4.735,5.556 -4.768,5.525 -4.898,5.406 -5.028,5.275 -5.119,5.125 -5.206,4.983 -5.297,4.825 -5.358,4.668 -5.416,4.519 -5.492,4.374 -5.536,4.22 -5.582,4.058 -5.607,3.888 -5.65,3.724 -5.688,3.582 -5.749,3.445 -5.768,3.299 -5.778,3.22 -5.807,3.145 -5.84,3.071 -5.915,2.904 -5.951,2.729 -6.017,2.558 -6.074,2.409 -6.197,2.2 -6.351,2.142 -6.415,2.118 -6.471,2.122 -6.54,2.122 c -0.028,0 -0.08,-0.012 -0.104,-0.003 -0.033,0.014 -0.028,0.036 -0.054,0.062 -0.043,0.042 -0.084,0.047 -0.116,0.102 -0.018,0.031 -0.032,0.049 -0.054,0.078 -0.011,0.015 -0.01,0.038 -0.02,0.053 -0.01,0.014 -0.028,0.021 -0.038,0.035 -0.02,0.026 -0.03,0.07 -0.043,0.101 -0.144,0.327 -0.136,0.695 -0.139,1.052 -0.002,0.156 0.029,0.313 0.051,0.467 0.016,0.112 0.029,0.214 0.066,0.32 0.091,0.257 0.218,0.486 0.379,0.707 0.043,0.059 0.078,0.118 0.145,0.152 0.064,0.033 0.137,0.056 0.204,0.08 0.06,0.022 0.112,0.03 0.176,0.029 0.076,-0.001 0.194,0.025 0.261,-0.006 C -5.831,5.317 -5.888,5.306 -5.915,5.287 -6.007,5.218 -6.029,5.102 -6.087,5.006 -6.18,4.848 -6.299,4.715 -6.409,4.569 -6.545,4.389 -6.693,4.185 -6.752,3.964 -6.787,3.835 -6.818,3.681 -6.817,3.548 -6.816,3.471 -6.845,3.341 -6.758,3.3 c 0.084,-0.038 0.131,0.055 0.181,0.111 0.049,0.054 0.107,0.099 0.155,0.155 0.062,0.073 0.103,0.161 0.145,0.247 0.063,0.126 0.126,0.243 0.167,0.378 0.026,0.086 0.065,0.158 0.082,0.247 0.022,0.119 0.05,0.228 0.084,0.343 0.034,0.116 0.055,0.231 0.09,0.347 0.037,0.122 0.044,0.252 0.117,0.36 0.057,0.085 0.128,0.153 0.182,0.241 0.044,0.073 0.097,0.136 0.152,0.2 0.097,0.114 0.214,0.223 0.341,0.303 0.119,0.073 0.252,0.094 0.374,0.159 0.157,0.083 0.262,0.205 0.386,0.329 0.102,0.102 0.21,0.197 0.313,0.299 0.068,0.067 0.114,0.144 0.176,0.216 0.039,0.045 0.096,0.086 0.128,0.133 0.032,0.046 0.049,0.127 0.075,0.195 C -3.644,7.528 -3.684,7.495 -3.701,7.48 -3.802,7.381 -3.92,7.304 -4.034,7.22 -4.172,7.118 -4.318,7.029 -4.457,6.931 -4.528,6.881 -4.594,6.826 -4.665,6.777 -4.761,6.711 -4.87,6.669 -4.959,6.593 -5.121,6.454 -5.261,6.286 -5.446,6.173 -5.534,6.119 -5.599,6.056 -5.703,6.034 -5.795,6.015 -5.836,5.976 -5.905,5.911 -6.032,5.792 -6.157,5.67 -6.279,5.546 -6.456,5.367 -6.572,5.144 -6.756,4.97 -6.908,4.825 -7.017,4.645 -7.112,4.459 -7.251,4.186 -7.391,3.937 -7.486,3.643 -7.623,3.218 -7.725,2.799 -7.721,2.351 -7.72,2.228 -7.743,2.085 -7.715,1.965 -7.697,1.882 -7.626,1.764 -7.575,1.7 -7.53,1.645 -7.469,1.609 -7.422,1.556 c 0.064,-0.07 0.109,-0.155 0.173,-0.226 0.063,-0.072 0.131,-0.138 0.19,-0.214 0.061,-0.079 0.1,-0.169 0.192,-0.213 0.063,-0.031 0.108,-0.034 0.15,-0.096 0.057,-0.082 0.12,-0.237 0.145,-0.331 0.032,-0.12 0.019,-0.245 0.018,-0.369 -0.002,-0.094 -0.008,-0.193 0.005,-0.287 0.011,-0.076 0.039,-0.148 0.054,-0.223 0.024,-0.112 0.034,-0.227 0.05,-0.34 0.016,-0.118 0.057,-0.231 0.067,-0.35 0.008,-0.091 0.024,-0.18 0.046,-0.269 0.013,-0.051 0.029,-0.1 0.04,-0.151 0.013,-0.055 0.015,-0.193 0.058,-0.23 0.108,-0.091 0.32,-0.025 0.453,-0.057 0.059,-0.015 0.115,-0.039 0.173,-0.055 0.04,-0.01 0.129,-0.014 0.16,-0.037 0.044,-0.033 0.049,-0.112 0.056,-0.171 0.021,-0.176 -0.065,-0.359 -0.111,-0.524 -0.022,-0.077 -0.024,-0.153 -0.034,-0.232 -0.01,-0.079 -0.03,-0.137 -0.056,-0.213 -0.028,-0.083 -0.034,-0.161 -0.086,-0.233 -0.063,-0.086 -0.06,-0.126 -0.088,-0.239 0.049,0 0.13,0.015 0.176,10e-4 0.052,-0.015 0.094,-0.092 0.11,-0.14 0.059,-0.173 0.091,-0.39 0.062,-0.573 -0.016,-0.095 -0.051,-0.199 -0.071,-0.295 -0.007,-0.034 -0.01,-0.073 -0.019,-0.107 -0.017,-0.058 -0.062,-0.104 -0.078,-0.162 -0.05,-0.178 -0.111,-0.412 -0.035,-0.594 0.013,-0.03 0.083,-0.125 0.117,-0.138 0.07,-0.027 0.136,0.068 0.177,0.112 0.048,0.052 0.054,0.096 0.076,0.162 0.025,0.076 0.066,0.149 0.104,0.219 0.094,0.171 0.203,0.311 0.329,0.458 0.104,0.121 0.184,0.23 0.247,0.372 0.043,0.099 0.112,0.215 0.181,0.298 0.083,0.1 0.14,0.207 0.191,0.328 0.028,0.067 0.059,0.139 0.092,0.199 -0.08,0.027 -0.206,0.006 -0.289,0.005 -0.068,0 -0.122,0.018 -0.188,0.027 -0.045,0.007 -0.078,0 -0.121,0.019 -0.115,0.051 -0.181,0.148 -0.21,0.269 -0.025,0.105 0.042,0.207 0.111,0.28 0.067,0.072 0.14,0.123 0.219,0.181 0.051,0.037 0.063,0.078 0.092,0.131 0.048,0.09 0.128,0.103 0.188,0.172 0.08,0.092 0.148,0.199 0.23,0.293 0.084,0.097 0.212,0.161 0.265,0.281 -0.068,-0.081 -0.172,-0.131 -0.264,-0.181 -0.076,-0.04 -0.144,-0.064 -0.228,-0.08 -0.049,-0.009 -0.128,-0.052 -0.175,-0.048 -0.021,0.043 -0.053,0.075 -0.073,0.119 -0.027,0.062 -0.047,0.149 -0.051,0.215 -0.007,0.116 0.027,0.179 0.067,0.282 0.041,0.106 0.093,0.206 0.131,0.314 0.055,0.157 0.088,0.316 0.176,0.459 0.049,0.081 0.062,0.16 0.086,0.25 0.014,0.053 0.044,0.11 0.038,0.167 -0.018,0.17 -0.216,-0.112 -0.262,-0.154 -0.188,-0.17 -0.415,-0.301 -0.588,-0.489 -0.132,-0.145 -0.234,-0.275 -0.406,-0.381 -0.127,-0.077 -0.282,-0.096 -0.349,0.063 -0.1,0.235 -0.087,0.458 -0.087,0.708 0,0.173 -0.023,0.336 0.059,0.492 0.068,0.13 0.076,0.295 0.151,0.423 0.082,0.141 0.172,0.285 0.264,0.423 0.051,0.076 0.1,0.15 0.144,0.23 0.033,0.053 0.061,0.108 0.085,0.166 0.013,0.038 0.023,0.077 0.032,0.116 0.029,0.057 0.079,0.113 0.117,0.165 0.05,0.067 0.09,0.151 0.146,0.213 0.057,0.064 0.088,0.081 0.104,0.174 0.008,0.05 0.015,0.109 0.004,0.161 0.041,-0.017 0.068,0.002 0.056,0.07 0.179,0 0.173,-0.053 0.294,-0.182 0.108,-0.116 0.234,-0.2 0.352,-0.302 0.108,-0.093 0.166,-0.222 0.273,-0.31 0.352,-0.289 0.385,-0.809 0.569,-1.21 0.115,-0.25 0.208,-0.493 0.346,-0.734 0.077,-0.133 0.13,-0.276 0.183,-0.421 0.103,-0.285 0.041,-0.656 0.041,-0.958 0,-0.336 0.034,-0.692 0.003,-1.026 -0.026,-0.284 -0.201,-0.538 -0.233,-0.802 -0.014,-0.122 0.005,-0.195 -0.041,-0.301 -0.036,-0.081 -0.06,-0.166 -0.103,-0.241 -0.08,-0.141 -0.215,-0.248 -0.283,-0.398 -0.046,-0.1 -0.065,-0.21 -0.115,-0.309 -0.04,-0.079 -0.114,-0.141 -0.075,-0.233 0.257,0.062 0.487,0.521 0.59,0.741 0.2,0.427 0.363,0.869 0.579,1.29 0.165,0.319 0.086,0.66 0.206,0.99 0.061,0.17 0.103,0.287 0.101,0.469 -0.002,0.218 -0.002,0.437 0.001,0.655 0.002,0.17 -0.052,0.324 -0.059,0.492 -0.01,0.205 -0.01,0.404 -0.069,0.604 -0.041,0.14 -0.088,0.301 -0.156,0.429 -0.047,0.091 -0.121,0.16 -0.163,0.256 -0.049,0.114 -0.059,0.238 -0.124,0.346 -0.117,0.193 -0.281,0.354 -0.414,0.525 -0.152,0.193 -0.27,0.465 -0.499,0.573 -0.125,0.058 -0.155,0.059 -0.232,0.173 -0.061,0.092 -0.137,0.168 -0.187,0.284 -0.037,0.088 -0.034,0.17 -0.083,0.244 -0.08,0.12 -0.166,0.065 -0.188,0.212 -0.029,0.195 0.015,0.407 0.128,0.56 0.113,0.154 0.229,0.347 0.444,0.357 0.23,0.012 0.399,-0.126 0.575,-0.272 C -2.871,3.587 -2.812,3.552 -2.687,3.5 -2.556,3.446 -2.458,3.345 -2.347,3.26 -2.083,3.059 -1.785,2.74 -1.648,2.447 -1.566,2.271 -1.467,2.114 -1.374,1.945 -1.245,1.713 -1.197,1.442 -1.091,1.2 -1,0.996 -0.963,0.771 -0.863,0.572 c 0.113,-0.227 0.254,-0.444 0.332,-0.687 0.06,-0.189 0.211,-0.382 0.246,-0.573 0.036,-0.192 -0.017,-0.329 0.069,-0.514 0.074,-0.159 0.075,-0.403 0.063,-0.623 0.042,0.111 0.081,0.22 0.11,0.34 0.058,0.245 0.04,0.492 0.04,0.744 0,0.244 0.02,0.498 0.003,0.741"
             style="fill:#000000;fill-opacity:1;fill-rule:nonzero;stroke:none"
             id="path4011" />
        </g>
        <g
           id="g4013"
           transform="translate(73.9827,401.195)">
          <path
             d="M 0,0 C -0.006,0 -0.012,-0.003 -0.019,-0.005 0.01,-0.004 0.038,-0.004 0.068,-0.004 0.003,0.012 0.001,0.006 0,0"
             style="fill:#000000;fill-opacity:1;fill-rule:nonzero;stroke:none"
             id="path4015" />
        </g>
      </g>
    </g>
  </g>
</svg>
