<?xml version="1.0" encoding="UTF-8" standalone="no"?>
<!-- Created with Inkscape (http://www.inkscape.org/) -->

<svg
   width="24.60215"
   height="24"
   viewBox="0 0 6.5093188 6.35"
   version="1.1"
   id="svg55613"
   inkscape:version="1.2.1 (9c6d41e4, 2022-07-14)"
   sodipodi:docname="the-watcher.svg"
   xmlns:inkscape="http://www.inkscape.org/namespaces/inkscape"
   xmlns:sodipodi="http://sodipodi.sourceforge.net/DTD/sodipodi-0.dtd"
   xmlns="http://www.w3.org/2000/svg"
   xmlns:svg="http://www.w3.org/2000/svg">
  <sodipodi:namedview
     id="namedview55615"
     pagecolor="#505050"
     bordercolor="#eeeeee"
     borderopacity="1"
     inkscape:showpageshadow="0"
     inkscape:pageopacity="0"
     inkscape:pagecheckerboard="0"
     inkscape:deskcolor="#505050"
     inkscape:document-units="mm"
     showgrid="false"
     inkscape:zoom="0.7046647"
     inkscape:cx="43.992554"
     inkscape:cy="285.9516"
     inkscape:window-width="1390"
     inkscape:window-height="941"
     inkscape:window-x="0"
     inkscape:window-y="25"
     inkscape:window-maximized="0"
     inkscape:current-layer="layer1" />
  <defs
     id="defs55610">
    <clipPath
       clipPathUnits="userSpaceOnUse"
       id="clipPath3835">
      <path
         d="m 159.816,392.122 h 24.7 v 24.699 h -24.7 z"
         id="path3833" />
    </clipPath>
  </defs>
  <g
     inkscape:label="Layer 1"
     inkscape:groupmode="layer"
     id="layer1"
     transform="translate(-93.414759,-73.242158)">
    <g
       id="g3829"
       transform="matrix(0.27282176,0,0,-0.27282176,49.692135,186.65451)">
      <g
         id="g3831"
         clip-path="url(#clipPath3835)">
        <g
           id="g3837"
           transform="translate(184.05,406.988)">
          <path
             d="M 0,0 C 0.022,-0.017 0.044,-0.034 0.07,-0.049 0.045,-0.036 0.023,-0.018 0,0"
             style="fill:#000000;fill-opacity:1;fill-rule:nonzero;stroke:none"
             id="path3839" />
        </g>
        <g
           id="g3841"
           transform="translate(184.05,406.988)">
          <path
             d="M 0,0 C -0.011,0.008 -0.022,0.016 -0.033,0.023 -0.023,0.014 -0.011,0.008 0,0"
             style="fill:#000000;fill-opacity:1;fill-rule:nonzero;stroke:none"
             id="path3843" />
        </g>
        <g
           id="g3845"
           transform="translate(183.737,403.349)">
          <path
             d="M 0,0 C 0.005,-0.027 0.006,-0.053 0.003,-0.079 0.004,-0.052 0.003,-0.026 0,0"
             style="fill:#000000;fill-opacity:1;fill-rule:nonzero;stroke:none"
             id="path3847" />
        </g>
        <g
           id="g3849"
           transform="translate(183.737,403.352)">
          <path
             d="m 0,0 c 0,-0.001 0,-0.002 0,-0.002 0,0 0,0.001 0,0.002"
             style="fill:#000000;fill-opacity:1;fill-rule:nonzero;stroke:none"
             id="path3851" />
        </g>
        <g
           id="g3853"
           transform="translate(179.037,413.06)">
          <path
             d="M 0,0 C 0.082,-0.122 0.165,-0.245 0.245,-0.367 0.164,-0.241 0.104,-0.107 0,0"
             style="fill:#000000;fill-opacity:1;fill-rule:nonzero;stroke:none"
             id="path3855" />
        </g>
        <g
           id="g3857"
           transform="translate(164.124,407.322)">
          <path
             d="m 0,0 c -0.024,-0.026 -0.064,-0.027 -0.09,-0.048 -0.015,-0.011 -0.041,-0.063 -0.05,-0.068 -0.038,-0.018 -0.088,-0.01 -0.128,-0.008 -0.056,0.002 -0.104,0.012 -0.154,0.023 -0.004,0.27 0.011,0.559 0.13,0.778 0.083,-0.086 0.15,-0.181 0.196,-0.29 0.057,-0.1 0.104,-0.198 0.15,-0.292 C 0.041,0.058 0.024,0.025 0,0 m 7.284,-4.949 c -0.015,0.142 -0.068,0.264 -0.114,0.396 -0.022,0.063 -0.066,0.149 -0.058,0.219 0.006,0.065 0.043,0.11 0.049,0.178 0.014,0.15 0.017,0.281 0.052,0.431 0.021,0.085 0.049,0.171 0.025,0.259 -0.018,0.066 -0.063,0.13 -0.081,0.203 -0.055,0.225 -0.185,0.397 -0.382,0.49 -0.167,0.08 -0.285,0.218 -0.446,0.297 -0.146,0.071 -0.2,0.162 -0.318,0.264 -0.057,0.049 -0.112,0.094 -0.157,0.155 -0.12,0.162 -0.202,0.346 -0.324,0.508 -0.138,0.184 -0.285,0.423 -0.472,0.562 -0.088,0.065 -0.207,0.109 -0.302,0.166 -0.074,0.045 -0.136,0.101 -0.213,0.148 -0.127,0.079 -0.236,0.164 -0.385,0.197 -0.135,0.03 -0.271,0.051 -0.403,0.096 -0.171,0.06 -0.353,0.042 -0.539,0.042 -0.087,0 -0.209,0.021 -0.295,0.002 C 2.849,-0.351 2.829,-0.382 2.742,-0.38 2.671,-0.379 2.599,-0.386 2.528,-0.382 2.45,-0.378 2.392,-0.341 2.314,-0.337 2.212,-0.331 2.148,-0.344 2.056,-0.296 c 0,0 -10e-4,0.001 -0.002,0.001 C 1.952,-0.161 1.82,-0.031 1.73,0.085 1.536,0.336 1.343,0.57 1.144,0.815 0.891,1.128 0.613,1.354 0.331,1.639 0.14,1.831 0.011,2.103 -0.242,2.212 -1.097,2.583 -1.453,1.545 -1.374,0.749 -1.403,0.697 -1.421,0.648 -1.421,0.605 -1.419,0.436 -1.41,0.271 -1.385,0.108 -1.47,0.121 -1.554,0.134 -1.646,0.134 -1.818,0.134 -2.043,0.092 -2.187,0.2 -2.301,0.285 -2.376,0.422 -2.505,0.495 -2.599,0.549 -2.702,0.622 -2.811,0.645 -2.898,0.663 -3,0.648 -3.09,0.649 c -0.088,0 -0.217,0.004 -0.291,-0.053 -0.063,-0.049 -0.087,-0.18 -0.097,-0.257 -0.038,-0.294 -0.04,-0.586 -0.04,-0.889 0,-0.225 -0.029,-0.472 0.021,-0.692 0.031,-0.138 0.056,-0.274 0.107,-0.405 0.047,-0.118 0.064,-0.215 0.146,-0.317 0.088,-0.108 0.146,-0.234 0.262,-0.321 0.05,-0.038 0.212,-0.202 0.272,-0.148 0.036,0.033 0.006,0.248 0.006,0.294 0,0.042 -0.005,0.088 -10e-4,0.13 0.005,0.045 0.025,0.061 0.035,0.094 0.026,0.092 0.003,0.195 0.008,0.291 0.003,0.052 0.022,0.08 0.035,0.129 0.013,0.05 0,0.1 0.012,0.15 0.023,0.096 0.103,0.291 0.211,0.306 0.073,0.01 0.216,-0.063 0.282,-0.094 0.147,-0.07 0.238,-0.191 0.405,-0.229 0.128,-0.029 0.151,-0.085 0.256,-0.146 0.164,-0.095 0.305,-0.307 0.505,-0.34 -0.123,-0.079 -0.277,-0.092 -0.408,-0.162 -0.059,-0.032 -0.114,-0.076 -0.182,-0.088 -0.058,-0.01 -0.123,0.013 -0.181,0.005 -0.081,-0.01 -0.119,-0.057 -0.188,-0.09 -0.065,-0.031 -0.141,-0.056 -0.21,-0.08 -0.11,-0.038 -0.205,-0.097 -0.311,-0.145 -0.1,-0.044 -0.205,-0.056 -0.312,-0.107 -0.08,-0.039 -0.174,-0.089 -0.257,-0.119 C -3.143,-2.682 -3.287,-2.727 -3.422,-2.793 -3.581,-2.871 -3.626,-3.09 -3.69,-3.25 -3.731,-3.352 -3.771,-3.489 -3.777,-3.597 -3.782,-3.698 -3.766,-3.8 -3.779,-3.901 -3.79,-3.982 -3.818,-4.05 -3.819,-4.132 -3.82,-4.181 -3.81,-4.231 -3.822,-4.279 c -0.023,-0.092 -0.047,-0.158 -0.04,-0.261 0.006,-0.095 0.057,-0.186 0.077,-0.267 0.011,-0.044 0.008,-0.082 0.029,-0.121 0.013,-0.024 0.047,-0.04 0.061,-0.065 0.05,-0.088 0.079,-0.183 0.143,-0.267 0.059,-0.075 0.158,-0.133 0.227,-0.202 0.185,-0.185 0.325,-0.394 0.461,-0.618 0.144,0.037 0.054,0.319 0.072,0.425 0.016,0.087 0.077,0.173 0.091,0.256 0.008,0.055 -0.005,0.108 0.007,0.163 0.003,0.015 0.03,0.029 0.035,0.051 0.018,0.072 -0.001,0.183 -0.002,0.259 -10e-4,0.113 0.033,0.193 0.045,0.302 0.011,0.1 0.004,0.158 0.041,0.256 0.035,0.092 0.074,0.183 0.119,0.268 0.058,0.11 0.117,0.224 0.192,0.32 0.099,0.127 0.172,0.153 0.332,0.142 0.092,-0.007 0.161,-0.046 0.257,-0.044 0.072,10e-4 0.143,0 0.215,0 0.151,0 0.287,-0.004 0.429,0.033 0.087,0.023 0.17,0.018 0.257,0.043 0.104,0.029 0.117,0.018 0.129,-0.075 0.024,-0.178 -0.146,-0.188 -0.27,-0.247 -0.138,-0.065 -0.211,-0.183 -0.3,-0.302 -0.049,-0.066 -0.108,-0.118 -0.161,-0.18 -0.089,-0.107 -0.149,-0.233 -0.245,-0.336 -0.114,-0.121 -0.239,-0.235 -0.356,-0.353 -0.062,-0.064 -0.135,-0.101 -0.198,-0.156 -0.001,-0.014 -0.005,-0.027 -0.006,-0.041 0,-0.015 -0.009,-0.03 -0.021,-0.045 l 0.005,-0.002 c 0.014,-0.005 0.017,-0.013 0.017,-0.023 0.004,-0.006 0.006,-0.012 0.011,-0.017 0.003,-0.003 0,-0.009 0,-0.014 10e-4,-0.002 0.003,-0.003 0.003,-0.004 0.089,-0.345 -0.062,-0.685 0.008,-1.043 0.029,-0.142 0.075,-0.283 0.134,-0.419 0.234,-0.169 0.435,-0.383 0.633,-0.598 0.005,0.001 0.01,0.002 0.015,0.004 0.016,-0.014 0.034,-0.028 0.052,-0.043 0.084,-0.077 0.173,-0.151 0.266,-0.218 -0.058,0.028 -0.115,0.055 -0.172,0.084 0.062,-0.067 0.125,-0.133 0.19,-0.196 0.114,-0.111 0.236,-0.211 0.36,-0.309 -0.176,0.341 -0.254,0.708 -0.315,1.086 -0.05,0.308 -0.092,0.735 0.048,1.052 0.02,0.104 0.05,0.205 0.093,0.302 0.018,0.022 0.036,0.045 0.058,0.063 0.081,0.066 0.174,0.115 0.246,0.193 0.087,0.095 0.157,0.133 0.264,0.199 0.097,0.06 0.165,0.154 0.266,0.214 0.064,0.039 0.117,0.091 0.18,0.131 0.16,0.037 0.322,0.066 0.467,0.137 0.184,0.09 0.432,0.251 0.561,0.451 0.069,0.015 0.138,0.03 0.203,0.048 0.167,0.045 0.332,0.126 0.496,0.184 0.089,0.031 0.18,0.07 0.259,0.122 0.358,-0.091 0.946,0.409 1.067,0.485 0.121,0.076 0.547,0.315 0.811,0.363 0.196,0.036 0.403,0.014 0.605,0.007 C 4.787,-3.214 4.958,-3.297 5.142,-3.359 5.257,-3.398 5.389,-3.393 5.51,-3.415 5.609,-3.432 5.759,-3.437 5.834,-3.518 5.902,-3.592 5.907,-3.827 5.916,-3.929 5.93,-4.075 5.935,-4.224 5.968,-4.369 5.994,-4.487 6.044,-4.586 6.045,-4.71 6.047,-4.98 6.261,-5.278 6.431,-5.477 6.558,-5.625 6.69,-5.732 6.852,-5.84 6.923,-5.887 6.99,-5.958 7.061,-5.994 c 0.075,0.149 0.224,0.157 0.231,0.345 0.007,0.224 0.016,0.478 -0.008,0.7"
             style="fill:#000000;fill-opacity:1;fill-rule:nonzero;stroke:none"
             id="path3859" />
        </g>
        <g
           id="g3861"
           transform="translate(183.87,405.861)">
          <path
             d="M 0,0 C -0.104,0.166 -0.187,0.341 -0.277,0.515 -0.367,0.688 -0.473,0.861 -0.522,1.052 -0.56,1.203 -0.588,1.351 -0.638,1.499 -0.881,2.222 -1.157,3.095 -1.78,3.596 -2.063,3.825 -2.371,4.044 -2.712,4.18 -2.864,4.241 -3.024,4.315 -3.179,4.365 -3.33,4.412 -3.441,4.431 -3.581,4.519 c -0.496,0.312 -1.021,0.607 -1.372,1.093 -0.261,0.362 -0.27,0.877 -0.621,1.178 -0.284,0.244 -0.59,0.6 -0.595,1 C -6.171,8.054 -5.937,7.771 -5.88,7.704 -5.732,7.532 -5.464,7.385 -5.242,7.33 -4.901,7.245 -4.563,7.017 -4.296,6.799 -4.158,6.686 -4.006,6.563 -3.885,6.431 -3.87,6.414 -3.86,6.395 -3.847,6.378 -3.895,6.48 -3.943,6.582 -3.992,6.684 -4.11,6.928 -4.263,7.216 -4.437,7.426 -4.594,7.613 -4.837,7.78 -5.029,7.933 -5.161,8.038 -5.321,8.1 -5.476,8.167 -5.552,8.199 -5.629,8.21 -5.706,8.238 -5.798,8.272 -5.874,8.329 -5.958,8.381 -6.133,8.489 -6.312,8.594 -6.479,8.713 -6.826,8.962 -7.115,9.347 -7.529,9.49 -7.819,9.591 -8.085,9.783 -8.397,9.83 -8.671,9.872 -8.937,9.774 -9.205,9.737 -9.504,9.697 -9.626,9.497 -9.856,9.33 -9.999,9.226 -10.143,9.124 -10.282,9.014 -10.539,8.809 -10.763,8.537 -10.982,8.758 -11.007,8.588 -11.027,8.53 -11.134,8.39 -11.32,8.148 -11.459,7.874 -11.64,7.629 -11.909,7.266 -12.198,6.936 -12.553,6.659 -12.667,6.57 -12.792,6.432 -12.878,6.314 -12.92,6.257 -12.928,6.198 -12.956,6.135 -13.01,6.012 -13.102,5.909 -13.154,5.781 c -0.07,-0.171 -0.194,-0.37 -0.229,-0.549 -0.028,-0.141 -0.041,-0.287 -0.061,-0.429 -0.02,-0.136 -0.045,-0.242 -0.008,-0.374 0.038,-0.135 0.112,-0.316 0.183,-0.44 0.04,-0.07 0.105,-0.126 0.149,-0.193 0.039,-0.06 0.052,-0.13 0.091,-0.187 0.048,-0.069 0.141,-0.102 0.194,-0.168 0.041,-0.051 0.067,-0.114 0.106,-0.169 0.047,-0.065 0.095,-0.131 0.145,-0.193 0.058,-0.074 0.128,-0.102 0.192,-0.163 0.022,-0.02 0.013,-0.057 0.041,-0.081 0.026,-0.023 0.067,-0.031 0.097,-0.048 0.087,-0.05 0.133,-0.127 0.194,-0.203 0.096,-0.121 0.143,-0.223 0.197,-0.371 0.024,-0.066 0.066,-0.122 0.089,-0.187 0.024,-0.072 0.041,-0.149 0.07,-0.223 0.108,-0.28 0.269,-0.552 0.447,-0.791 0.05,-0.067 0.1,-0.082 0.162,-0.143 0.106,-0.105 0.146,-0.255 0.263,-0.352 0.054,-0.044 0.111,-0.083 0.159,-0.128 0.054,-0.052 0.073,-0.111 0.168,-0.085 -0.009,0.14 -0.169,0.263 -0.231,0.388 -0.127,0.256 -0.259,0.496 -0.364,0.761 -0.071,0.179 -0.156,0.347 -0.233,0.522 -0.06,0.135 -0.132,0.262 -0.19,0.397 -0.056,0.128 -0.13,0.225 -0.157,0.366 -0.024,0.123 -0.045,0.23 -0.095,0.345 -0.096,0.222 -0.139,0.421 -0.138,0.668 10e-4,0.282 -0.019,0.55 0.021,0.831 0.047,0.318 0.117,0.584 0.265,0.872 0.071,0.139 0.125,0.275 0.184,0.417 0.037,0.087 0.087,0.157 0.123,0.235 0.052,0.111 0.294,0.596 0.476,0.528 0.038,-0.014 0.062,-0.163 0.067,-0.21 0.005,-0.048 -0.019,-0.092 -0.033,-0.133 -0.01,-0.032 -0.045,-0.104 -0.059,-0.148 -0.04,-0.135 -0.089,-0.246 -0.107,-0.387 -0.027,-0.201 -0.106,-0.373 -0.134,-0.572 -0.037,-0.27 -0.1,-0.543 -0.122,-0.814 -0.011,-0.141 0.02,-0.3 0.038,-0.44 0.018,-0.147 0.012,-0.301 0.044,-0.446 0.096,-0.429 0.269,-0.874 0.559,-1.202 0.047,-0.054 0.152,-0.242 0.235,-0.319 l 0.039,0.356 c -0.048,0.184 -0.046,0.367 -0.052,0.557 -0.012,0.374 -0.126,0.732 -0.137,1.103 -0.004,0.148 -0.025,0.298 -0.024,0.446 0,0.143 0.046,0.299 0.067,0.441 0.073,0.496 0.275,1.051 0.695,1.358 0.168,0.123 0.325,0.312 0.508,0.406 0.078,0.041 0.141,0.037 0.218,0.063 0.076,0.026 0.141,0.081 0.213,0.119 0.063,0.033 0.168,0.064 0.239,0.087 0.085,0.028 0.181,0.085 0.272,0.097 0.28,0.035 0.569,10e-4 0.85,0.031 0.225,0.023 0.473,-0.026 0.67,-0.145 0.095,-0.058 0.187,-0.135 0.265,-0.211 0.098,-0.094 0.114,-0.217 0.202,-0.315 0.124,-0.139 0.191,-0.323 0.278,-0.48 0.083,-0.151 0.135,-0.31 0.189,-0.469 0.031,-0.093 0.061,-0.163 0.086,-0.258 0.032,-0.121 0.117,-0.225 0.114,-0.35 -0.002,-0.136 -0.035,-0.25 -0.023,-0.392 0.005,-0.058 0.013,-0.108 0.023,-0.166 0.004,-0.065 0.015,-0.129 0.031,-0.192 0.034,-0.071 0.069,-0.142 0.102,-0.212 0.042,-0.16 -0.012,-0.341 0.054,-0.5 0.044,-0.105 0.134,-0.22 0.191,-0.321 0.071,-0.129 0.153,-0.265 0.258,-0.371 0.106,-0.107 0.149,-0.23 0.288,-0.298 0.311,-0.153 0.607,-0.334 0.914,-0.489 0.477,-0.241 0.882,-0.507 1.223,-0.913 0.076,-0.09 0.129,-0.199 0.196,-0.295 0.131,-0.187 0.308,-0.37 0.403,-0.579 0.058,-0.126 0.039,-0.216 0.049,-0.341 0.019,-0.21 0.045,-0.39 0.015,-0.599 -0.023,-0.154 -0.054,-0.287 -0.029,-0.438 0.026,-0.154 0.03,-0.352 0.087,-0.498 0.023,-0.059 0.059,-0.1 0.08,-0.156 0.025,-0.066 0.028,-0.136 0.069,-0.198 0.051,-0.08 0.094,-0.152 0.154,-0.227 0.068,-0.087 0.095,-0.166 0.184,-0.236 0.128,-0.1 0.24,-0.196 0.338,-0.329 0.085,-0.115 0.15,-0.242 0.203,-0.369 0.068,-0.161 0.243,-0.397 0.249,-0.59 0.007,0.166 -0.049,0.33 -0.063,0.496 -0.018,0.227 -0.034,0.446 -0.098,0.666 -0.026,0.093 -0.054,0.175 -0.101,0.255 -0.045,0.078 -0.059,0.052 -0.095,0.17 -0.056,0.18 -0.135,0.345 -0.185,0.526 -0.07,0.251 -0.098,0.465 -0.105,0.731 -0.011,0.344 0.012,0.711 -0.046,1.051 C -1.327,0.154 -1.359,0.332 -1.431,0.487 -1.504,0.645 -1.533,0.824 -1.63,0.969 -1.738,1.129 -1.838,1.343 -1.995,1.457 -2.154,1.573 -2.329,1.666 -2.49,1.779 -2.706,1.93 -2.911,2.127 -3.109,2.302 -3.329,2.496 -3.571,2.664 -3.772,2.876 -4.074,3.195 -4.294,3.63 -4.243,4.08 -4.166,3.74 -3.879,3.287 -3.57,3.104 -3.421,3.016 -3.271,3.019 -3.108,2.993 -2.943,2.966 -2.796,2.898 -2.647,2.825 -2.521,2.763 -2.404,2.717 -2.275,2.669 -2.019,2.573 -1.812,2.348 -1.577,2.212 -1.469,2.149 -1.418,2.046 -1.332,1.958 -1.205,1.828 -1.076,1.72 -0.963,1.575 -0.825,1.396 -0.74,1.191 -0.627,0.997 c 0.11,-0.188 0.136,-0.37 0.21,-0.566 0.083,-0.222 0.151,-0.503 0.359,-0.642 0.085,-0.056 0.109,-0.035 0.187,-0.067 0.03,-0.013 0.053,-0.031 0.075,-0.051 C 0.122,-0.231 0.063,-0.101 0,0"
             style="fill:#000000;fill-opacity:1;fill-rule:nonzero;stroke:none"
             id="path3863" />
        </g>
        <g
           id="g3865"
           transform="translate(173.705,409.16)">
          <path
             d="M 0,0 C -0.013,0.068 -0.135,0.664 0.04,0.641 0.053,0.64 0.078,0.609 0.109,0.562 0.096,0.547 0.087,0.531 0.088,0.516 0.093,0.44 0.203,0.357 0.245,0.289 0.368,0.085 0.436,-0.129 0.429,-0.365 0.414,-0.855 0.291,-1.333 0.208,-1.813 c -0.133,-0.764 0.344,-1.429 0.986,-1.79 0.411,-0.23 0.752,-0.602 0.911,-1.05 0.198,-0.559 0.034,-1.045 0.035,-1.611 0,-0.24 0.097,-0.489 0.22,-0.71 -0.036,0.037 -0.073,0.074 -0.109,0.112 -0.208,0.215 -0.433,0.414 -0.593,0.669 -0.219,0.348 -0.209,0.61 -0.239,1 -0.044,0.562 -0.31,1.113 -0.666,1.539 -0.38,0.455 -1.011,1.097 -0.992,1.742 0.266,0.034 0.328,0.662 0.334,0.833 C 0.109,-0.712 0.069,-0.358 0,0"
             style="fill:#000000;fill-opacity:1;fill-rule:nonzero;stroke:none"
             id="path3867" />
        </g>
        <g
           id="g3869"
           transform="translate(173.543,414.714)">
          <path
             d="M 0,0 C 0.043,0.054 0.422,0.53 0.517,0.382 0.524,0.371 0.516,0.332 0.5,0.278 0.48,0.278 0.462,0.274 0.452,0.264 0.397,0.212 0.404,0.074 0.378,-0.002 0.301,-0.227 0.182,-0.417 -0.004,-0.563 c -0.384,-0.304 -0.83,-0.518 -1.251,-0.762 -0.67,-0.389 -0.872,-1.183 -0.736,-1.907 0.087,-0.462 0.022,-0.962 -0.219,-1.372 -0.3,-0.511 -0.778,-0.699 -1.21,-1.063 -0.184,-0.155 -0.313,-0.389 -0.403,-0.625 0.005,0.051 0.01,0.103 0.016,0.155 0.03,0.297 0.039,0.598 0.131,0.885 0.125,0.391 0.333,0.552 0.611,0.826 0.403,0.395 0.654,0.953 0.751,1.499 0.104,0.584 0.19,1.481 0.696,1.881 0.197,-0.182 0.717,0.174 0.852,0.279 C -0.475,-0.541 -0.23,-0.283 0,0"
             style="fill:#000000;fill-opacity:1;fill-rule:nonzero;stroke:none"
             id="path3871" />
        </g>
        <g
           id="g3873"
           transform="translate(167.02,407.602)">
          <path
             d="M 0,0 C 0.135,-0.104 0.269,-0.169 0.435,-0.213 0.615,-0.261 0.78,-0.326 0.956,-0.389 1.137,-0.454 1.354,-0.461 1.543,-0.47 1.722,-0.478 1.892,-0.571 2.053,-0.645 2.158,-0.693 2.243,-0.743 2.325,-0.823 2.486,-0.98 2.7,-1.149 2.82,-1.34 2.851,-1.389 2.87,-1.447 2.903,-1.499 2.961,-1.589 3.035,-1.663 3.1,-1.75 3.211,-1.895 3.326,-2.084 3.464,-2.198 3.52,-2.245 3.559,-2.278 3.629,-2.311 3.79,-2.389 3.871,-2.488 3.991,-2.609 4.057,-2.677 4.103,-2.718 4.155,-2.802 4.254,-2.964 4.441,-3.145 4.462,-3.335 4.473,-3.43 4.44,-3.511 4.486,-3.6 4.525,-3.674 4.598,-3.716 4.636,-3.794 4.663,-3.852 4.67,-3.911 4.686,-3.971 4.713,-4.068 4.707,-4.149 4.723,-4.247 4.745,-4.382 4.807,-4.51 4.837,-4.643 4.865,-4.767 4.878,-4.894 4.9,-5.019 4.964,-5.384 4.927,-5.765 4.932,-6.135 4.933,-6.205 4.94,-6.278 4.925,-6.347 4.901,-6.454 4.83,-6.544 4.809,-6.653 4.791,-6.743 4.806,-6.849 4.805,-6.937 4.803,-7.075 4.77,-7.173 4.716,-7.295 4.661,-7.416 4.631,-7.543 4.599,-7.672 4.557,-7.846 4.565,-8.015 4.536,-8.188 4.457,-8.659 4.449,-9.135 4.384,-9.609 c -0.046,-0.33 -0.009,-0.686 -0.011,-1.018 -0.003,-0.305 0.05,-0.635 0.118,-0.931 0.091,-0.397 0.039,-0.745 -0.039,-1.136 -0.072,-0.36 -0.442,-0.571 -0.595,-0.896 -0.078,-0.165 -0.098,-0.36 -0.148,-0.533 -0.05,-0.171 -0.065,-0.304 -0.064,-0.483 10e-4,-0.104 -0.008,-0.213 -10e-4,-0.316 0.006,-0.088 0.039,-0.167 0.053,-0.254 0.035,0.005 0.073,0.262 0.1,0.316 0.035,0.067 0.076,0.105 0.094,0.182 0.018,0.069 0.027,0.123 0.063,0.186 0.035,0.058 0.072,0.104 0.091,0.171 0.018,0.063 0.018,0.131 0.052,0.189 0.104,0.176 0.306,0.305 0.448,0.452 0.073,0.076 0.125,0.166 0.197,0.242 0.091,0.097 0.143,0.14 0.178,0.27 0.041,0.149 0.047,0.281 0.053,0.435 0.005,0.132 0.046,0.254 0.044,0.387 -0.003,0.286 0.002,0.572 -0.001,0.858 -0.002,0.171 0.043,0.332 0.046,0.503 0.002,0.196 -0.003,0.377 0.031,0.57 0.032,0.183 0.019,0.4 0.007,0.584 0.045,-0.102 0.131,-0.182 0.176,-0.288 0.059,-0.135 0.084,-0.281 0.085,-0.426 0.001,-0.209 0.013,-0.4 0.038,-0.605 0.018,-0.147 0.02,-0.326 0,-0.472 -0.067,-0.486 -0.043,-0.986 -0.133,-1.465 -0.018,-0.094 -0.063,-0.208 -0.109,-0.293 -0.05,-0.093 -0.115,-0.153 -0.142,-0.258 -0.022,-0.086 -0.033,-0.133 -0.084,-0.212 -0.053,-0.083 -0.097,-0.159 -0.119,-0.258 -0.045,-0.202 -0.077,-0.412 -0.054,-0.622 0.01,-0.094 0.058,-0.123 0.105,-0.192 0.028,-0.041 0.041,-0.165 0.103,-0.168 0.052,0.162 -0.006,0.342 0.053,0.512 0.059,0.172 0.136,0.345 0.211,0.512 0.077,0.171 0.134,0.357 0.225,0.522 0.102,0.186 0.266,0.339 0.379,0.524 0.103,0.17 0.165,0.336 0.238,0.519 0.072,0.18 0.15,0.345 0.18,0.538 0.023,0.154 0.007,0.316 0.009,0.471 10e-4,0.289 -0.049,0.579 -0.118,0.86 -0.028,0.113 -0.035,0.229 -0.062,0.341 -0.037,0.16 -0.141,0.304 -0.183,0.466 -0.054,0.21 -0.092,0.419 -0.057,0.638 0.04,0.244 0.031,0.483 0.196,0.683 C 6.114,-8.732 5.984,-8.993 6.1,-9.219 6.146,-9.31 6.201,-9.387 6.243,-9.48 6.271,-9.544 6.321,-9.597 6.35,-9.659 6.387,-9.74 6.383,-9.797 6.399,-9.883 c 0.036,-0.197 0.111,-0.383 0.142,-0.582 0.03,-0.197 0.072,-0.397 0.097,-0.595 0.026,-0.205 0.008,-0.418 0.008,-0.625 0,-0.128 0.021,-0.274 -0.009,-0.399 -0.024,-0.099 -0.029,-0.171 -0.032,-0.277 -0.005,-0.125 -0.052,-0.249 -0.098,-0.366 -0.037,-0.095 -0.083,-0.156 -0.078,-0.262 0.005,-0.119 0.051,-0.231 0.1,-0.336 0.058,-0.124 0.203,-0.277 0.334,-0.33 0.09,-0.037 0.175,-0.062 0.264,-0.109 0.065,-0.034 0.244,-0.159 0.321,-0.125 -0.07,0.098 -0.124,0.19 -0.18,0.298 -0.052,0.102 -0.121,0.174 -0.152,0.284 -0.062,0.223 -0.04,0.477 -0.072,0.704 -0.026,0.189 -0.055,0.36 -0.055,0.551 0.001,0.388 0.045,0.777 0.098,1.162 0.026,0.19 0.031,0.372 0.031,0.563 0,0.109 0.007,0.22 0.003,0.329 -0.005,0.145 -0.052,0.262 -0.079,0.404 -0.027,0.136 -0.03,0.279 -0.06,0.414 -0.029,0.133 -0.115,0.239 -0.154,0.366 -0.047,0.149 -0.073,0.301 -0.139,0.445 -0.036,0.079 -0.077,0.144 -0.103,0.226 -0.027,0.084 -0.032,0.167 -0.068,0.248 -0.121,0.268 -0.172,0.537 -0.232,0.824 -0.031,0.144 -0.023,0.28 -0.023,0.425 0,0.222 -0.09,0.414 -0.154,0.621 -0.058,0.186 -0.081,0.372 -0.147,0.556 -0.088,0.246 -0.175,0.501 -0.241,0.755 -0.043,0.168 -0.036,0.34 -0.069,0.508 -0.054,0.279 -0.154,0.555 -0.253,0.821 -0.114,0.301 -0.257,0.598 -0.349,0.906 -0.054,0.185 -0.142,0.343 -0.238,0.51 -0.098,0.17 -0.174,0.352 -0.274,0.519 -0.084,0.143 -0.172,0.283 -0.255,0.426 -0.132,0.225 -0.3,0.397 -0.483,0.58 C 3.657,-0.301 3.559,-0.2 3.384,-0.103 3.181,0.01 2.996,0.15 2.788,0.254 2.528,0.384 2.206,0.515 1.922,0.59 1.8,0.622 1.665,0.679 1.54,0.689 1.439,0.698 1.36,0.699 1.259,0.718 1.195,0.731 1.128,0.728 1.065,0.737 0.963,0.752 0.869,0.799 0.768,0.813 0.633,0.831 0.509,0.813 0.381,0.772 0.269,0.736 0.156,0.726 0.043,0.698 -0.072,0.669 -0.186,0.618 -0.302,0.599 -0.391,0.585 -0.402,0.573 -0.461,0.503 -0.508,0.447 -0.554,0.391 -0.599,0.332 -0.652,0.263 -0.823,0.058 -0.927,0.089 c 0.086,-0.104 0.111,-0.252 0.241,-0.317 0.087,-0.044 0.231,-0.102 0.324,-0.112 0.11,-0.012 0.102,0.042 0.179,0.094 0.038,0.027 0.048,0.024 0.091,0.033 C 0.089,-0.176 0.333,-0.214 0,0"
             style="fill:#000000;fill-opacity:1;fill-rule:nonzero;stroke:none"
             id="path3875" />
        </g>
        <g
           id="g3877"
           transform="translate(166.806,403.271)">
          <path
             d="m 0,0 c -0.072,-0.015 -0.176,-0.164 -0.206,-0.223 -0.031,-0.059 -0.038,-0.135 -0.062,-0.197 -0.023,-0.06 -0.063,-0.113 -0.077,-0.176 -0.035,-0.15 0.003,-0.368 0.001,-0.524 -0.002,-0.223 0.072,-0.421 0.084,-0.635 0.012,-0.192 0.136,-0.339 0.186,-0.515 C -0.032,-2.417 0.012,-2.563 0.073,-2.7 0.157,-2.89 0.265,-3.067 0.345,-3.261 0.419,-3.44 0.423,-3.633 0.481,-3.816 0.508,-3.9 0.546,-3.97 0.557,-4.056 0.572,-4.166 0.599,-4.23 0.643,-4.336 0.734,-4.553 0.701,-4.747 0.736,-4.966 0.772,-5.189 0.89,-5.44 0.848,-5.667 0.811,-5.869 0.834,-6.061 0.817,-6.264 0.8,-6.455 0.725,-6.677 0.675,-6.864 0.629,-7.036 0.526,-7.178 0.428,-7.325 0.358,-7.43 0.286,-7.529 0.213,-7.63 0.131,-7.746 0.09,-7.898 0.033,-8.028 c -0.081,-0.188 -0.194,-0.343 -0.238,-0.548 -0.031,-0.143 -0.071,-0.287 -0.097,-0.427 -0.021,-0.106 0,-0.249 0.023,-0.345 0.012,-0.048 0.027,-0.104 0.047,-0.154 0.023,-0.057 0.048,-0.15 0.086,-0.195 -0.116,0.052 -0.198,0.257 -0.249,0.361 -0.061,0.124 -0.147,0.233 -0.205,0.36 -0.061,0.132 -0.127,0.255 -0.129,0.398 -0.001,0.121 -0.006,0.245 0,0.366 0.005,0.119 0.04,0.253 0.075,0.367 0.037,0.117 0.044,0.239 0.097,0.342 0.108,0.213 0.024,0.503 -0.01,0.724 -0.06,-0.008 -0.034,-0.119 -0.033,-0.17 0.002,-0.116 0.008,-0.187 -0.064,-0.278 -0.096,-0.121 -0.162,-0.261 -0.254,-0.384 -0.086,-0.115 -0.095,-0.219 -0.142,-0.341 -0.064,-0.164 -0.054,-0.309 -0.055,-0.485 0.005,0.154 -0.052,0.279 -0.077,0.43 -0.021,0.124 0.003,0.249 -0.018,0.372 -0.05,0.283 -0.117,0.573 -0.119,0.864 -0.001,0.141 0.018,0.251 0.096,0.374 0.05,0.079 0.109,0.136 0.15,0.222 0.041,0.084 0.076,0.182 0.14,0.249 0.062,0.066 0.11,0.118 0.166,0.198 0.081,0.115 0.155,0.179 0.188,0.324 0.03,0.13 0.067,0.259 0.096,0.389 0.066,0.294 0.02,0.636 0.021,0.936 0.002,0.333 -0.045,0.671 -0.127,0.995 -0.044,0.177 -0.112,0.347 -0.162,0.522 -0.039,0.135 -0.04,0.392 -0.131,0.494 -0.045,-0.145 0.011,-0.302 -0.048,-0.453 -0.051,-0.132 -0.146,-0.254 -0.171,-0.395 -0.036,-0.202 0.058,-0.45 -0.013,-0.642 -0.062,0.016 -0.034,0.16 -0.042,0.217 -0.023,0.154 -0.058,0.303 -0.076,0.455 -0.032,0.263 -0.188,0.491 -0.218,0.752 -0.011,0.097 0.017,0.195 -0.008,0.29 -0.02,0.08 -0.033,0.129 -0.033,0.215 0,0.098 0.013,0.165 0.033,0.259 0.016,0.07 0.005,0.139 0.02,0.21 0.037,0.179 0.104,0.276 0.247,0.391 0.062,0.049 0.146,0.127 0.215,0.161 0.054,0.028 0.13,0.035 0.189,0.056 0.098,0.035 0.244,0.071 0.325,0.148 C -0.339,-0.278 -0.251,-0.129 0,0"
             style="fill:#000000;fill-opacity:1;fill-rule:nonzero;stroke:none"
             id="path3879" />
        </g>
        <g
           id="g3881"
           transform="translate(179.765,404.913)">
          <path
             d="m 0,0 c 0.002,-0.009 0.004,-0.018 0.006,-0.028 -0.064,0.293 -0.219,0.645 -0.115,0.929 0.042,0.116 0.058,0.144 0.181,0.168 0.082,0.017 0.2,0.071 0.279,0.02 C 0.463,1.016 0.564,0.807 0.628,0.69 0.695,0.571 0.703,0.399 0.732,0.266 0.766,0.109 0.801,-0.047 0.835,-0.204 0.897,-0.483 0.952,-0.738 1.074,-0.997 1.138,-1.131 1.218,-1.257 1.282,-1.39 1.324,-1.48 1.373,-1.569 1.411,-1.661 1.43,-1.707 1.43,-1.767 1.453,-1.809 1.482,-1.861 1.546,-1.887 1.585,-1.933 1.631,-1.988 1.663,-2.049 1.713,-2.102 1.817,-2.214 1.874,-2.356 1.98,-2.464 2.054,-2.54 2.148,-2.588 2.231,-2.652 2.33,-2.729 2.403,-2.835 2.486,-2.928 2.619,-3.075 2.739,-3.216 2.849,-3.379 2.971,-3.56 3.142,-3.705 3.272,-3.881 3.398,-4.051 3.469,-4.188 3.513,-4.389 3.535,-4.492 3.548,-4.604 3.579,-4.703 3.6,-4.77 3.655,-4.821 3.667,-4.888 3.638,-4.775 3.616,-4.66 3.591,-4.546 3.553,-4.367 3.48,-4.209 3.433,-4.035 3.385,-3.852 3.323,-3.676 3.272,-3.494 3.224,-3.324 3.133,-3.213 3.045,-3.061 2.969,-2.93 2.855,-2.844 2.78,-2.713 2.721,-2.608 2.64,-2.524 2.564,-2.43 2.437,-2.272 2.302,-2.117 2.185,-1.948 2.061,-1.769 1.974,-1.561 1.886,-1.363 1.762,-1.085 1.673,-0.817 1.607,-0.52 1.561,-0.311 1.521,-0.11 1.44,0.085 1.399,0.183 1.395,0.287 1.366,0.387 1.325,0.528 1.261,0.702 1.2,0.833 1.137,0.967 1.092,1.149 0.989,1.259 0.918,1.334 0.825,1.404 0.75,1.48 0.679,1.552 0.587,1.595 0.506,1.657 0.361,1.768 0.252,1.795 0.08,1.732 -0.026,1.693 -0.138,1.584 -0.211,1.502 -0.379,1.313 -0.368,1.059 -0.415,0.841 -0.427,0.788 -0.435,0.735 -0.446,0.681 -0.455,0.644 -0.476,0.593 -0.476,0.556 c 0,-0.058 0.02,-0.119 0.019,-0.174 -0.002,-0.05 -0.026,-0.116 -0.027,-0.163 0,-0.263 0.127,-0.559 0.292,-0.744 0.174,-0.194 0.389,-0.37 0.447,-0.635 C 0.22,-1 0.169,-0.84 0.159,-0.677 0.15,-0.546 0.139,-0.435 0.111,-0.305 0.093,-0.224 0.088,-0.105 0.053,-0.03 0.03,0.02 -0.033,0.074 0,0"
             style="fill:#000000;fill-opacity:1;fill-rule:nonzero;stroke:none"
             id="path3883" />
        </g>
        <g
           id="g3885"
           transform="translate(177.34,403.628)">
          <path
             d="M 0,0 C 0.02,-0.04 0.064,-0.097 0.076,-0.138 0.095,-0.2 0.081,-0.26 0.084,-0.325 0.089,-0.421 0.127,-0.506 0.13,-0.602 0.131,-0.673 0.129,-0.744 0.129,-0.815 c 0,-0.064 0.003,-0.129 0,-0.193 C 0.125,-1.076 0.107,-1.099 0.084,-1.156 0.066,-1.205 0.048,-1.275 0.042,-1.328 0.036,-1.382 0.074,-1.486 0.01,-1.497 c -0.018,0.055 -0.008,0.108 -0.009,0.165 -0.003,0.111 -0.042,0.212 -0.046,0.323 -0.001,0.063 -0.005,0.097 -0.019,0.151 -0.017,0.062 -0.011,0.127 -0.026,0.193 -0.009,0.044 -0.037,0.134 -0.059,0.174 -0.04,0.073 -0.05,0.059 -0.129,0.063 -0.126,0.005 -0.18,-0.032 -0.258,-0.128 -0.063,-0.077 -0.096,-0.208 -0.108,-0.301 -0.018,-0.137 -0.001,-0.293 0.001,-0.432 0.002,-0.118 0.036,-0.219 0.042,-0.34 0.005,-0.121 0.052,-0.274 0.085,-0.389 0.023,-0.077 0.085,-0.149 0.119,-0.223 0.059,-0.126 0.115,-0.257 0.181,-0.375 0.144,-0.256 0.306,-0.527 0.302,-0.836 -0.002,-0.165 -0.002,-0.33 0,-0.495 0,-0.052 0.011,-0.112 -0.009,-0.16 C 0.052,-4.166 0.017,-4.196 0,-4.266 c -0.035,-0.148 -0.107,-0.275 -0.139,-0.427 -0.035,-0.162 -0.076,-0.301 -0.075,-0.462 0,-0.125 -0.008,-0.252 -0.001,-0.377 0.005,-0.092 0.037,-0.259 0.096,-0.333 0.057,-0.072 0.15,-0.104 0.215,-0.17 0.083,-0.085 0.177,-0.127 0.236,-0.227 0.067,-0.112 0.077,-0.209 -0.096,-0.167 -0.143,0.035 -0.258,0.149 -0.369,0.236 -0.072,0.058 -0.099,0.097 -0.147,0.17 -0.024,0.038 -0.077,0.077 -0.098,0.114 -0.017,0.033 -0.032,0.125 -0.041,0.163 -0.015,0.06 -0.03,0.101 -0.048,0.154 -0.046,0.141 -0.091,0.255 -0.09,0.403 0,0.138 -0.044,0.253 -0.043,0.386 0.002,0.248 0.137,0.431 0.204,0.653 0.037,0.121 0.056,0.255 0.086,0.376 0.032,0.128 0.061,0.251 0.054,0.386 -0.015,0.281 -0.187,0.547 -0.276,0.813 -0.12,0.359 -0.255,0.686 -0.434,1.02 -0.046,0.086 -0.047,0.158 -0.067,0.248 -0.015,0.065 -0.056,0.128 -0.072,0.192 -0.041,0.169 -0.01,0.386 -0.01,0.56 0,0.096 -0.021,0.215 0.006,0.309 0.015,0.048 0.061,0.086 0.082,0.129 0.024,0.048 0.026,0.093 0.045,0.14 0.042,0.103 0.13,0.284 0.251,0.322 C -0.597,0.388 -0.48,0.281 -0.376,0.226 -0.321,0.197 -0.266,0.16 -0.216,0.13 -0.169,0.102 -0.111,0.033 -0.05,0.04 -0.023,-0.064 -0.068,-0.161 0,0"
             style="fill:#000000;fill-opacity:1;fill-rule:nonzero;stroke:none"
             id="path3887" />
        </g>
      </g>
    </g>
  </g>
</svg>
