<?xml version="1.0" encoding="UTF-8" standalone="no"?>
<!-- Created with Inkscape (http://www.inkscape.org/) -->

<svg
   width="21.178364"
   height="24"
   viewBox="0 0 5.6034421 6.35"
   version="1.1"
   id="svg55511"
   inkscape:version="1.2.1 (9c6d41e4, 2022-07-14)"
   sodipodi:docname="trapped-spirits.svg"
   xmlns:inkscape="http://www.inkscape.org/namespaces/inkscape"
   xmlns:sodipodi="http://sodipodi.sourceforge.net/DTD/sodipodi-0.dtd"
   xmlns="http://www.w3.org/2000/svg"
   xmlns:svg="http://www.w3.org/2000/svg">
  <sodipodi:namedview
     id="namedview55513"
     pagecolor="#505050"
     bordercolor="#eeeeee"
     borderopacity="1"
     inkscape:showpageshadow="0"
     inkscape:pageopacity="0"
     inkscape:pagecheckerboard="0"
     inkscape:deskcolor="#505050"
     inkscape:document-units="mm"
     showgrid="false"
     inkscape:zoom="0.7046647"
     inkscape:cx="120.62474"
     inkscape:cy="288.78983"
     inkscape:window-width="1390"
     inkscape:window-height="941"
     inkscape:window-x="0"
     inkscape:window-y="29"
     inkscape:window-maximized="0"
     inkscape:current-layer="layer1" />
  <defs
     id="defs55508">
    <clipPath
       clipPathUnits="userSpaceOnUse"
       id="clipPath4125">
      <path
         d="m 112.016,392.122 h 24.699 v 24.699 h -24.699 z"
         id="path4123" />
    </clipPath>
  </defs>
  <g
     inkscape:label="Layer 1"
     inkscape:groupmode="layer"
     id="layer1"
     transform="translate(-73.242177,-72.369743)">
    <g
       id="g4119"
       transform="matrix(0.26498189,0,0,-0.26498189,43.103521,182.66819)">
      <g
         id="g4121"
         clip-path="url(#clipPath4125)">
        <g
           id="g4127"
           transform="translate(132.24,400.938)">
          <path
             d="M 0,0 C -0.004,-0.503 -0.072,-1.005 -0.203,-1.508 -0.22,-1.64 -0.238,-1.772 -0.256,-1.905 -0.505,-2.955 -0.987,-3.87 -1.7,-4.649 c -0.57,-0.879 -1.324,-1.572 -2.265,-2.079 -0.926,-0.59 -1.927,-0.909 -3.001,-0.958 -1.072,-0.24 -2.145,-0.192 -3.218,0.144 -1.57,0.582 -2.416,0.904 -3.618,2.107 -1.161,1.162 -1.159,1.386 -1.674,2.607 -0.506,0.962 -0.737,1.998 -0.695,3.11 -0.042,0.36 0.006,0.72 0.143,1.078 0.181,1.344 0.116,1.567 0.961,3.012 0.348,0.594 0.781,1.153 1.27,1.642 0.488,0.488 1.036,0.949 1.647,1.272 1.259,0.73 2.617,1.097 4.074,1.102 0.715,-0.096 1.43,-0.193 2.145,-0.289 C -4.563,7.716 -3.377,7.024 -2.369,6.024 -1.949,5.479 -1.528,4.935 -1.107,4.39 -0.792,3.895 -0.556,3.378 -0.396,2.84 -0.113,2.012 0.03,1.146 0.032,0.241 0.022,0.161 0.011,0.08 0,0 M 2.642,-0.518 C 2.635,-0.479 2.595,-0.441 2.581,-0.403 2.566,-0.361 2.567,-0.328 2.545,-0.288 2.502,-0.208 2.421,-0.147 2.364,-0.078 2.274,0.034 2.198,0.093 2.075,0.163 2.003,0.204 1.931,0.243 1.858,0.281 1.801,0.312 1.778,0.306 1.72,0.32 1.577,0.355 1.571,0.457 1.513,0.572 1.473,0.649 1.443,0.673 1.433,0.763 1.427,0.815 1.436,0.872 1.436,0.925 1.435,1.059 1.444,1.101 1.558,1.188 1.664,1.269 1.77,1.346 1.843,1.461 1.979,1.676 2.138,1.87 2.243,2.106 2.445,2.562 2.611,3.129 2.386,3.607 2.336,3.713 2.256,3.81 2.194,3.908 2.154,3.971 2.072,4.123 2.001,4.171 1.968,4.193 1.92,4.197 1.883,4.216 1.867,4.224 1.852,4.234 1.836,4.245 1.857,4.168 1.854,4.078 1.854,4.002 1.854,3.908 1.877,3.773 1.81,3.692 1.76,3.631 1.663,3.608 1.591,3.589 1.581,3.63 1.594,3.67 1.586,3.712 1.57,3.79 1.506,3.857 1.465,3.924 1.427,3.986 1.39,4.108 1.324,4.141 1.274,4.167 1.18,4.159 1.125,4.178 0.969,4.231 0.818,4.36 0.718,4.488 0.609,4.628 0.459,4.857 0.416,5.034 0.367,5.234 0.28,5.422 0.22,5.623 0.168,5.797 0.187,5.974 0.184,6.154 0.182,6.273 0.207,6.384 0.278,6.478 0.371,6.602 0.453,6.676 0.48,6.834 0.504,6.977 0.531,7.118 0.555,7.261 0.586,7.441 0.57,7.606 0.49,7.767 0.438,7.872 0.399,7.994 0.328,8.088 0.28,8.152 0.224,8.208 0.176,8.273 0.093,8.386 0.031,8.471 0.033,8.614 0.034,8.682 0.048,8.716 0.07,8.776 0.098,8.85 0.115,8.936 0.146,9.008 0.188,9.107 0.278,9.129 0.373,9.156 0.479,9.186 0.573,9.204 0.678,9.158 0.753,9.125 0.91,8.948 0.975,8.959 1.032,9.105 0.943,9.342 0.896,9.48 0.842,9.637 0.726,9.736 0.566,9.783 0.441,9.819 0.313,9.878 0.185,9.899 0.049,9.921 -0.114,9.915 -0.25,9.897 -0.552,9.856 -0.809,9.789 -1.031,9.566 -1.195,9.4 -1.328,9.186 -1.378,8.961 -1.401,8.857 -1.404,8.746 -1.44,8.644 -1.496,8.484 -1.612,8.326 -1.718,8.196 -1.88,7.998 -2.043,7.928 -2.297,7.974 -2.5,8.01 -2.774,8.228 -2.881,8.396 -2.949,8.505 -2.994,8.67 -2.958,8.798 c 0.03,0.107 0.13,0.174 0.181,0.271 0.091,0.172 0.151,0.379 0.114,0.575 -0.028,0.151 -0.119,0.274 -0.178,0.412 -0.044,0.102 -0.048,0.199 -0.044,0.309 0.002,0.075 0.01,0.124 -0.03,0.189 -0.075,0.122 -0.221,0.183 -0.307,0.298 -0.137,0.186 -0.035,0.33 -0.036,0.536 -0.002,0.226 -0.133,0.326 -0.262,0.497 -0.117,0.156 -0.222,0.295 -0.371,0.422 -0.145,0.123 -0.296,0.252 -0.446,0.369 -0.161,0.126 -0.344,0.221 -0.508,0.345 -0.107,0.08 -0.209,0.164 -0.308,0.251 0.062,-0.159 0.103,-0.334 0.105,-0.371 0.008,-0.106 -0.031,-0.201 -0.036,-0.306 -0.003,-0.096 10e-4,-0.194 10e-4,-0.29 0,-0.162 0.034,-0.355 -0.012,-0.512 -0.019,-0.083 -0.063,-0.147 -0.133,-0.193 -0.026,-0.01 -0.052,-0.022 -0.077,-0.036 -0.039,-0.051 0.016,-0.082 -0.047,-0.135 -0.033,-0.028 -0.176,-0.077 -0.224,-0.087 -0.149,-0.032 -0.278,0.154 -0.344,0.26 -0.032,0.051 -0.043,0.104 -0.061,0.166 -0.028,0.097 -0.08,0.188 -0.09,0.289 -0.015,0.158 0.014,0.303 -0.024,0.459 -0.029,0.119 -0.092,0.296 -0.025,0.415 -0.047,0.027 -0.17,-0.068 -0.213,-0.096 C -6.406,12.787 -6.53,12.639 -6.555,12.556 -6.569,12.507 -6.556,12.46 -6.558,12.41 -6.563,12.318 -6.595,12.232 -6.6,12.139 c -0.005,-0.1 0.014,-0.163 -0.042,-0.257 -0.041,-0.07 -0.112,-0.11 -0.14,-0.188 -0.018,-0.047 -0.01,-0.1 -0.029,-0.148 -0.035,-0.091 -0.11,-0.142 -0.191,-0.192 -0.171,-0.106 -0.34,-0.272 -0.542,-0.305 -0.173,-0.028 -0.349,-0.046 -0.525,-0.045 -0.154,0 -0.349,-0.043 -0.45,0.104 -0.027,0.04 -0.032,0.087 -0.053,0.128 -0.051,0.097 -0.158,0.184 -0.233,0.26 -0.092,0.091 -0.225,0.169 -0.257,0.303 -0.021,0.09 0,0.2 0,0.292 10e-4,0.26 0.029,0.51 0.04,0.769 0.012,0.272 0.027,0.58 -0.074,0.838 -0.1,0.255 -0.31,0.422 -0.461,0.64 -0.062,0.092 -0.112,0.187 -0.19,0.268 -0.116,0.119 -0.266,0.193 -0.414,0.266 -0.131,0.065 -0.29,0.096 -0.414,0.169 -0.065,0.039 -0.057,0.045 -0.083,0.109 -0.019,0.044 -0.031,0.131 -0.073,0.161 0.009,-0.163 0,-0.285 0.054,-0.442 0.034,-0.102 0.052,-0.197 0.108,-0.292 0.061,-0.104 0.106,-0.18 0.109,-0.307 0.003,-0.22 -0.01,-0.403 -0.147,-0.579 -0.114,-0.147 -0.199,-0.269 -0.35,-0.383 -0.112,-0.084 -0.138,-0.181 -0.213,-0.29 -0.048,-0.069 -0.112,-0.126 -0.165,-0.194 -0.133,-0.165 -0.205,-0.345 -0.302,-0.53 -0.105,-0.199 -0.218,-0.331 -0.184,-0.569 0.032,-0.229 0.05,-0.491 0.142,-0.705 0.033,-0.074 0.089,-0.119 0.128,-0.188 0.038,-0.066 0.061,-0.138 0.101,-0.206 0.106,-0.179 0.163,-0.368 0.203,-0.571 0.024,-0.122 0.043,-0.17 -0.044,-0.266 -0.066,-0.072 -0.145,-0.136 -0.226,-0.19 -0.125,-0.084 -0.224,-0.166 -0.324,-0.28 -0.032,-0.037 -0.042,-0.055 -0.084,-0.082 -0.094,-0.062 -0.19,-0.029 -0.287,-0.051 -0.09,-0.021 -0.224,-0.042 -0.272,-0.118 -0.033,-0.053 -0.05,-0.205 -0.065,-0.261 -0.03,-0.108 -0.039,-0.204 -0.039,-0.314 0,-0.189 0.044,-0.347 0.112,-0.517 -0.08,-0.026 -0.182,0.166 -0.22,0.211 -0.1,0.118 -0.211,0.22 -0.303,0.345 -0.2,0.273 -0.182,0.558 -0.192,0.878 -0.003,0.099 0.003,0.102 -0.075,0.154 -0.061,0.04 -0.125,0.093 -0.192,0.123 -0.114,0.052 -0.28,0.044 -0.398,0.056 -0.144,0.016 -0.287,0.042 -0.431,0.054 0.272,-0.106 0.326,-0.539 0.338,-0.794 0.006,-0.116 10e-4,-0.233 -0.022,-0.348 -0.026,-0.133 -0.095,-0.251 -0.125,-0.382 -0.026,-0.111 0,-0.234 -0.003,-0.348 -0.004,-0.131 -0.075,-0.24 -0.082,-0.368 -0.005,-0.105 0.032,-0.201 -0.013,-0.304 -0.08,-0.185 -0.34,-0.33 -0.486,-0.457 -0.218,-0.192 -0.489,-0.398 -0.787,-0.259 -0.159,0.074 -0.262,0.183 -0.44,0.227 -0.191,0.047 -0.403,0.063 -0.591,-0.006 -0.172,-0.064 -0.318,-0.18 -0.461,-0.292 -0.139,-0.108 -0.286,-0.215 -0.321,-0.399 -0.026,-0.135 -0.032,-0.39 0.003,-0.522 0.054,0.033 0.092,0.165 0.139,0.223 0.091,0.113 0.213,0.166 0.345,0.082 0.272,-0.174 0.415,-0.518 0.419,-0.825 0.003,-0.169 -0.019,-0.22 -0.166,-0.31 -0.18,-0.111 -0.329,-0.218 -0.475,-0.373 -0.155,-0.165 -0.237,-0.349 -0.268,-0.574 -0.025,-0.187 0.088,-0.266 0.16,-0.417 0.046,-0.093 0.027,-0.203 0.028,-0.304 10e-4,-0.14 0.017,-0.274 -0.088,-0.382 -0.245,-0.253 -0.599,-0.341 -0.934,-0.34 -0.136,0 -0.15,-0.024 -0.238,0.072 -0.083,0.088 -0.083,0.165 -0.136,0.264 -0.037,-0.078 0.035,-0.238 0.05,-0.321 0.03,-0.169 0.033,-0.344 0.065,-0.512 0.022,-0.114 0.086,-0.17 0.135,-0.266 0.063,-0.128 0.058,-0.29 0.144,-0.408 0.038,-0.052 0.09,-0.074 0.131,-0.123 0.034,-0.04 0.055,-0.102 0.075,-0.15 0.074,-0.18 0.069,-0.361 0.093,-0.55 0.021,-0.166 0.091,-0.349 0.044,-0.515 -0.053,-0.183 -0.131,-0.325 -0.14,-0.52 -0.008,-0.189 0.002,-0.381 0.002,-0.571 0,-0.166 -0.049,-0.408 0.041,-0.554 0.074,-0.119 0.196,-0.185 0.305,-0.264 0.102,-0.075 0.197,-0.159 0.299,-0.234 0.224,-0.165 0.473,-0.285 0.677,-0.479 0.125,-0.118 0.199,-0.293 0.263,-0.45 0.016,-0.038 0.034,-0.15 0.061,-0.233 -0.104,0.073 -0.308,0.12 -0.37,0.143 -0.155,0.056 -0.324,0.098 -0.486,0.131 -0.039,0.011 -0.079,0.014 -0.118,0.01 -0.038,-0.003 -0.074,-0.015 -0.106,-0.035 -0.077,0.007 -0.055,0.054 -0.107,0.101 -0.013,-0.051 0.05,-0.136 0.069,-0.18 0.051,-0.112 0.086,-0.228 0.125,-0.345 0.09,-0.264 0.246,-0.438 0.417,-0.656 0.163,-0.206 0.359,-0.294 0.607,-0.369 0.103,-0.031 0.211,-0.028 0.314,-0.058 0.117,-0.034 0.202,-0.091 0.291,-0.171 0.104,-0.094 0.213,-0.184 0.312,-0.283 0.095,-0.095 0.159,-0.216 0.254,-0.31 0.105,-0.102 0.228,-0.164 0.307,-0.293 0.055,-0.09 0.05,-0.193 0.1,-0.28 0.042,-0.075 0.131,-0.117 0.201,-0.159 0.114,-0.067 0.23,-0.14 0.349,-0.197 0.253,-0.122 0.547,-0.145 0.786,-0.292 0.17,-0.104 0.339,-0.216 0.517,-0.306 0.075,-0.038 0.156,-0.058 0.231,-0.093 0.086,-0.039 0.149,-0.102 0.239,-0.134 0.301,-0.11 0.704,-0.024 0.964,-0.228 0.089,-0.069 0.14,-0.155 0.162,-0.265 0.017,-0.089 0.004,-0.141 0.062,-0.204 0.116,-0.126 0.372,-0.166 0.531,-0.192 0.181,-0.029 0.432,-0.119 0.612,-0.093 0.072,0.011 0.133,0.036 0.208,0.039 0.095,0.004 0.201,-0.023 0.293,0.004 0.013,0.123 0.385,0.072 0.472,0.089 0.078,0.015 0.136,0.036 0.22,0.019 0.12,-0.025 0.185,-0.115 0.279,-0.183 0.079,-0.057 0.151,-0.086 0.241,-0.117 0.149,-0.053 0.262,-0.145 0.399,-0.219 0.168,-0.091 0.242,-10e-4 0.392,0.09 0.142,0.085 0.172,0.249 0.318,0.315 0.096,0.043 0.164,0.11 0.256,0.156 0.09,0.045 0.197,0.036 0.294,0.035 0.174,-0.003 0.323,0.014 0.488,0.036 0.152,0.02 0.211,0.054 0.325,0.15 0.151,0.126 0.289,0.166 0.486,0.155 0.195,-0.01 0.306,-0.208 0.439,-0.336 0.073,-0.07 0.006,-0.04 0.144,-0.054 0.139,-0.015 0.324,-0.076 0.452,-0.007 0.086,0.045 0.091,0.066 0.115,0.156 0.02,0.071 0.026,0.145 0.047,0.216 0.04,0.138 0.145,0.258 0.285,0.3 0.084,0.025 0.194,0.043 0.279,0.026 0.057,-0.011 0.09,-0.055 0.137,-0.069 0.092,-0.029 0.185,0.055 0.257,0.109 0.032,0.023 0.087,0.052 0.117,0.077 0.005,0.009 0.009,0.018 0.013,0.028 0.088,0.126 0.198,0.229 0.218,0.121 0.01,0.002 0.021,0.005 0.031,0.007 0.004,0.065 0.039,0.068 0.073,0.112 0.053,0.07 0.082,0.145 0.15,0.21 0.184,0.176 0.346,0.383 0.502,0.581 0.203,0.255 0.558,0.441 0.865,0.53 0.131,0.038 0.259,0.104 0.388,0.151 0.052,0.02 0.104,0.039 0.153,0.067 0.05,0.028 0.121,0.05 0.166,0.083 0.086,0.066 0.142,0.18 0.229,0.251 0.063,0.052 0.083,0.11 0.132,0.169 0.037,0.045 0.118,0.07 0.146,0.12 0.043,0.079 0.002,0.236 -0.021,0.304 -0.016,0.046 -0.027,0.136 -0.056,0.174 -0.033,0.043 -0.081,0.042 -0.115,0.08 -0.059,0.067 -0.131,0.217 -0.106,0.307 0.018,0.065 0.117,0.152 0.161,0.198 0.076,0.079 0.167,0.152 0.259,0.211 0.054,0.034 0.116,0.036 0.168,0.066 0.085,0.048 0.148,0.1 0.239,0.139 0.296,0.131 0.408,0.523 0.523,0.802 0.066,0.159 0.055,0.302 0.055,0.472 0,0.048 0.013,0.109 0.003,0.155 -0.017,0.085 -0.089,0.173 -0.113,0.253 -0.018,0.056 -0.043,0.145 -0.044,0.205 -0.001,0.097 0.061,0.122 0.118,0.19 0.041,0.049 0.077,0.098 0.122,0.142 0.058,0.058 0.124,0.074 0.202,0.103 0.087,0.032 0.174,0.099 0.26,0.125 0.088,0.028 0.198,0.007 0.289,0.008 0.166,0.001 0.184,-0.055 0.271,-0.186 0.022,0.012 0.061,0.022 0.081,0.037 0.035,0.028 0.058,0.072 0.098,0.103 0.091,0.07 0.135,0.107 0.154,0.228 0.008,0.059 0.021,0.058 0.037,0.102 0.017,0.05 0.043,0.025 0.031,0.094"
             style="fill:#000000;fill-opacity:1;fill-rule:nonzero;stroke:none"
             id="path4129" />
        </g>
      </g>
    </g>
  </g>
</svg>
