<?xml version="1.0" encoding="UTF-8" standalone="no"?>
<!-- Created with Inkscape (http://www.inkscape.org/) -->

<svg
   width="17.29491"
   height="24"
   viewBox="0 0 4.5759451 6.35"
   version="1.1"
   id="svg57035"
   inkscape:version="1.2.1 (9c6d41e4, 2022-07-14)"
   sodipodi:docname="union-and-disillusion.svg"
   xmlns:inkscape="http://www.inkscape.org/namespaces/inkscape"
   xmlns:sodipodi="http://sodipodi.sourceforge.net/DTD/sodipodi-0.dtd"
   xmlns="http://www.w3.org/2000/svg"
   xmlns:svg="http://www.w3.org/2000/svg">
  <sodipodi:namedview
     id="namedview57037"
     pagecolor="#505050"
     bordercolor="#eeeeee"
     borderopacity="1"
     inkscape:showpageshadow="0"
     inkscape:pageopacity="0"
     inkscape:pagecheckerboard="0"
     inkscape:deskcolor="#505050"
     inkscape:document-units="mm"
     showgrid="false"
     inkscape:zoom="0.7046647"
     inkscape:cx="59.602815"
     inkscape:cy="233.44436"
     inkscape:window-width="1390"
     inkscape:window-height="941"
     inkscape:window-x="0"
     inkscape:window-y="25"
     inkscape:window-maximized="0"
     inkscape:current-layer="layer1" />
  <defs
     id="defs57032">
    <clipPath
       clipPathUnits="userSpaceOnUse"
       id="clipPath33471">
      <path
         d="M 288.631,247.321 H 313.33 V 272.02 H 288.631 Z"
         id="path33469" />
    </clipPath>
  </defs>
  <g
     inkscape:label="Layer 1"
     inkscape:groupmode="layer"
     id="layer1"
     transform="translate(-89.274057,-87.094243)">
    <g
       id="g33465"
       transform="matrix(0.29706213,0,0,-0.29706213,2.3587283,167.37261)">
      <g
         id="g33467"
         clip-path="url(#clipPath33471)">
        <g
           id="g33473"
           transform="translate(307.987,270.153)">
          <path
             d="M 0,0 C -0.04,-0.09 -0.098,-0.149 -0.117,-0.203 -0.164,-0.282 -0.218,-0.348 -0.253,-0.401 -0.319,-0.503 -0.367,-0.64 -0.479,-0.794 -0.574,-0.92 -0.67,-1.042 -0.769,-1.165 -0.817,-1.224 -0.873,-1.294 -0.916,-1.344 -0.961,-1.396 -1.004,-1.449 -1.046,-1.503 -1.133,-1.614 -1.207,-1.716 -1.298,-1.844 -1.413,-1.991 -1.534,-2.11 -1.64,-2.219 l -0.077,-0.079 -0.037,-0.037 -0.017,-0.018 c 0,-10e-4 0,-0.002 -0.002,-0.005 -0.008,-0.014 -0.046,-0.073 -0.132,-0.169 -0.038,-0.043 -0.118,-0.108 -0.131,-0.124 L -2.12,-2.727 -2.289,-2.88 -2.911,-3.456 c -0.124,-0.112 -0.22,-0.197 -0.275,-0.263 l -0.109,-0.138 -0.12,-0.146 c -0.024,-0.028 -0.028,-0.038 -0.042,-0.059 l -0.039,-0.065 -0.093,-0.169 -0.185,-0.332 -0.054,-0.115 c -0.021,-0.043 -0.043,-0.085 -0.066,-0.127 -0.044,-0.082 -0.103,-0.169 -0.15,-0.238 l -0.243,-0.347 -0.076,-0.11 -0.043,-0.059 c -0.027,-0.038 -0.054,-0.068 -0.078,-0.093 -0.047,-0.05 -0.078,-0.076 -0.091,-0.086 -0.006,-0.004 -0.008,-0.004 -0.007,0.001 0.004,0.007 -0.007,-0.006 -0.011,-0.011 l -0.015,-0.016 c -0.037,-0.036 -0.051,-0.056 -0.047,-0.017 0.003,0.009 0.004,0.098 -0.002,0.031 l -0.015,-0.101 -0.014,-0.102 c -0.005,-0.029 -0.011,-0.078 -0.015,-0.091 -0.009,-0.042 -0.012,-0.097 -0.012,-0.168 0,-0.071 0.003,-0.156 0.001,-0.253 -0.001,-0.022 -0.002,-0.054 -0.003,-0.069 L -4.72,-6.646 -4.727,-6.742 c -0.012,-0.26 0.018,-0.552 0.053,-0.855 0.016,-0.156 0.035,-0.329 0.02,-0.507 -0.011,-0.128 -0.005,-0.286 -0.03,-0.471 -0.031,-0.194 -0.092,-0.327 -0.125,-0.462 l -0.112,-0.436 -0.062,-0.21 -0.03,-0.114 c -0.014,-0.05 -0.031,-0.094 -0.048,-0.134 l -0.047,-0.109 -0.028,-0.059 c -0.012,-0.023 -0.024,-0.046 -0.036,-0.067 -0.053,-0.087 -0.104,-0.148 -0.139,-0.201 -0.017,-0.024 -0.06,-0.086 -0.124,-0.135 -0.015,-0.012 -0.03,-0.022 -0.044,-0.031 l -0.02,-0.013 c -0.009,-0.005 -0.01,-0.006 -0.007,-0.005 0.006,0.002 0.01,0.004 0.007,0 -0.004,-0.005 -0.033,-0.046 -0.09,-0.096 -0.054,-0.046 -0.096,-0.071 -0.137,-0.096 l -0.419,-0.228 c -0.25,-0.123 -0.475,-0.29 -0.759,-0.451 l -0.196,-0.113 -0.178,-0.111 c -0.118,-0.075 -0.236,-0.154 -0.354,-0.235 l -0.695,-0.485 c -0.152,-0.112 -0.299,-0.199 -0.387,-0.262 l -0.142,-0.108 -0.156,-0.112 c -0.012,-0.007 -0.086,-0.067 -0.136,-0.099 -0.053,-0.035 -0.101,-0.064 -0.141,-0.087 -0.086,-0.048 -0.123,-0.069 -0.158,-0.095 -0.094,-0.062 -0.217,-0.159 -0.396,-0.264 l -0.069,-0.039 -0.037,-0.019 -0.016,-0.008 0.005,10e-4 c 0.009,0.003 -10e-4,-0.004 -0.011,-0.013 -0.01,-0.009 -0.024,-0.021 -0.032,-0.03 0.005,-0.001 0.01,0.003 0.013,0.003 0.014,0.009 -0.005,-0.027 -0.03,-0.131 l -0.022,-0.086 -0.006,-0.025 c -0.002,-0.01 0.005,0.012 0.005,0.012 0.003,0.011 0.004,0.015 0.005,0.014 10e-4,-0.002 0,-0.024 -10e-4,-0.062 l -0.003,-0.071 -0.009,-0.091 c -0.027,-0.233 -0.077,-0.397 -0.094,-0.501 -0.042,-0.236 -0.071,-0.505 -0.107,-0.809 -0.041,-0.308 -0.089,-0.599 -0.138,-0.899 l -0.079,-0.445 c -0.024,-0.148 -0.057,-0.306 -0.08,-0.414 -0.024,-0.127 -0.046,-0.284 -0.085,-0.466 -0.019,-0.092 -0.045,-0.189 -0.078,-0.289 l -0.026,-0.075 -0.021,-0.055 -0.044,-0.114 c -0.061,-0.153 -0.131,-0.32 -0.222,-0.484 l -0.254,-0.435 c -0.112,-0.171 -0.235,-0.308 -0.347,-0.426 l -0.163,-0.166 c -0.058,-0.059 -0.117,-0.116 -0.178,-0.172 -0.12,-0.111 -0.242,-0.218 -0.37,-0.316 -0.128,-0.099 -0.254,-0.192 -0.398,-0.288 -0.279,-0.188 -0.57,-0.325 -0.852,-0.445 -0.283,-0.122 -0.552,-0.228 -0.851,-0.339 -0.302,-0.103 -0.61,-0.156 -0.892,-0.212 l -0.074,0.136 c 0.255,0.195 0.507,0.344 0.726,0.525 0.218,0.178 0.455,0.385 0.682,0.565 0.225,0.187 0.434,0.372 0.613,0.56 0.084,0.093 0.177,0.201 0.262,0.308 0.085,0.108 0.17,0.214 0.248,0.323 0.039,0.054 0.077,0.109 0.114,0.164 l 0.121,0.177 c 0.075,0.111 0.132,0.212 0.168,0.298 l 0.141,0.361 c 0.036,0.105 0.071,0.215 0.104,0.343 l 0.025,0.098 0.012,0.051 0.006,0.032 c 0.007,0.042 0.013,0.09 0.02,0.145 0.013,0.109 0.02,0.247 0.036,0.414 l 0.054,0.466 0.054,0.434 c 0.037,0.287 0.083,0.582 0.124,0.861 0.042,0.283 0.083,0.604 0.172,0.947 l 0.103,0.366 c 0.007,0.012 0.01,0.074 0.031,0.218 0.006,0.036 0.014,0.077 0.026,0.124 l 0.018,0.066 0.01,0.028 0.043,0.126 c 0.066,0.177 0.164,0.422 0.378,0.653 0.051,0.056 0.111,0.11 0.172,0.157 0.05,0.038 0.096,0.07 0.147,0.102 0.052,0.032 0.105,0.063 0.181,0.099 l 0.03,0.014 0.009,0.003 0.013,0.005 0.029,0.012 c 0.084,0.036 0.204,0.109 0.366,0.197 0.092,0.051 0.188,0.093 0.235,0.113 l 0.052,0.023 c 0.014,0.006 -0.003,-0.007 0.049,0.024 l 0.219,0.127 c 0.072,0.04 0.145,0.083 0.234,0.129 0.169,0.086 0.289,0.129 0.388,0.175 l 0.438,0.198 0.426,0.175 c 0.144,0.057 0.291,0.112 0.441,0.162 l 0.226,0.074 0.214,0.061 c 0.258,0.079 0.556,0.194 0.859,0.287 l 0.395,0.131 c 0.025,0.009 0.047,0.021 0.051,0.021 0.001,-0.004 0.02,0.014 0.069,0.059 0.196,0.145 0.076,0.024 0.148,0.102 0.055,0.065 0.103,0.115 0.131,0.153 0.007,0.01 0.014,0.019 0.02,0.029 l 0.008,0.015 0.014,0.025 0.047,0.092 c 0.04,0.077 0.087,0.253 0.132,0.389 l 0.054,0.206 0.052,0.221 c 0.039,0.151 0.08,0.299 0.086,0.4 0.008,0.111 -0.019,0.249 -0.028,0.418 -0.011,0.119 -0.042,0.24 -0.087,0.374 -0.09,0.277 -0.2,0.562 -0.28,0.892 L -5.6,-6.71 -5.612,-6.645 c -0.003,0.022 -0.006,0.026 -0.01,0.041 l -0.055,0.189 c -0.021,0.075 -0.043,0.167 -0.057,0.274 l -0.031,0.252 -0.015,0.121 c -0.009,0.006 -0.002,0.171 0.023,0.25 0.048,0.182 0.115,0.289 0.161,0.374 l 0.017,0.03 c 0.007,0.011 0.007,0.013 0.022,0.034 0.023,0.035 0.045,0.064 0.063,0.087 0.036,0.047 0.057,0.073 0.057,0.08 0.001,0.003 -0.003,0.002 -0.01,-0.005 -0.002,0.002 0.01,0.025 0.014,0.036 l 0.037,0.082 c 0.021,0.047 0.061,0.126 0.098,0.199 l 0.116,0.217 c 0.058,0.111 0.089,0.176 0.14,0.308 0.044,0.106 0.09,0.193 0.131,0.264 l 0.106,0.187 c 0.035,0.065 0.078,0.138 0.127,0.217 0.025,0.04 0.052,0.081 0.082,0.123 0.028,0.039 0.065,0.091 0.091,0.118 l 0.169,0.191 0.086,0.095 c 0.028,0.031 0.055,0.062 0.097,0.102 0.153,0.148 0.291,0.245 0.394,0.325 l 0.071,0.055 0.097,0.071 0.199,0.144 0.199,0.142 0.193,0.132 0.182,0.12 0.092,0.061 c 0.044,0.03 0.024,0.01 0.039,0.018 0.021,0.007 0.075,0.066 0.175,0.152 l 0.04,0.032 0.026,0.018 0.049,0.034 0.094,0.063 c 0.123,0.079 0.231,0.149 0.32,0.218 0.11,0.09 0.241,0.201 0.37,0.294 0.066,0.047 0.134,0.093 0.202,0.137 l 0.184,0.119 c 0.118,0.078 0.241,0.155 0.364,0.231 0.097,0.057 0.21,0.173 0.359,0.276 0.073,0.049 0.136,0.075 0.187,0.108 0.075,0.061 0.145,0.085 0.19,0.117 z"
             style="fill:#231f20;fill-opacity:1;fill-rule:nonzero;stroke:none"
             id="path33475" />
        </g>
      </g>
    </g>
  </g>
</svg>
