<?xml version="1.0" encoding="UTF-8" standalone="no"?>
<!-- Created with Inkscape (http://www.inkscape.org/) -->

<svg
   width="21.399111"
   height="24"
   viewBox="0 0 5.6618481 6.35"
   version="1.1"
   id="svg8965"
   inkscape:version="1.2.1 (9c6d41e4, 2022-07-14)"
   sodipodi:docname="bloodthirsty-spirits.svg"
   xmlns:inkscape="http://www.inkscape.org/namespaces/inkscape"
   xmlns:sodipodi="http://sodipodi.sourceforge.net/DTD/sodipodi-0.dtd"
   xmlns="http://www.w3.org/2000/svg"
   xmlns:svg="http://www.w3.org/2000/svg">
  <sodipodi:namedview
     id="namedview8967"
     pagecolor="#505050"
     bordercolor="#eeeeee"
     borderopacity="1"
     inkscape:showpageshadow="0"
     inkscape:pageopacity="0"
     inkscape:pagecheckerboard="0"
     inkscape:deskcolor="#505050"
     inkscape:document-units="mm"
     showgrid="false"
     inkscape:zoom="0.7046647"
     inkscape:cx="-26.963178"
     inkscape:cy="142.62102"
     inkscape:window-width="1390"
     inkscape:window-height="941"
     inkscape:window-x="0"
     inkscape:window-y="25"
     inkscape:window-maximized="0"
     inkscape:current-layer="layer1" />
  <defs
     id="defs8962">
    <clipPath
       clipPathUnits="userSpaceOnUse"
       id="clipPath2697">
      <path
         d="m 159.654,670.311 h 22.76 v 22.76 h -22.76 z"
         id="path2695" />
    </clipPath>
  </defs>
  <g
     inkscape:label="Layer 1"
     inkscape:groupmode="layer"
     id="layer1"
     transform="translate(-112.43962,-110.96912)">
    <g
       id="g2691"
       transform="matrix(0.30063441,0,0,-0.30063441,63.84339,318.95396)">
      <g
         id="g2693"
         clip-path="url(#clipPath2697)">
        <g
           id="g2699"
           transform="translate(173.2886,672.7108)">
          <path
             d="M 0,0 0.135,0.081 0.033,-0.039 C 0.014,-0.022 0.006,-0.009 0,0 m -0.002,0.111 v 0 L 0.129,0.082 H 0.128 Z M 5.701,9.589 C 5.701,9.535 5.7,9.481 5.7,9.427 5.7,9.287 5.684,9.044 5.665,8.906 v 0 C 5.621,8.584 5.578,8.267 5.51,7.955 v 0 C 5.463,7.738 5.375,7.536 5.259,7.324 5.208,7.232 5.155,7.139 5.102,7.044 L 5.087,7.018 5.084,6.987 C 4.999,6.042 4.596,5.123 3.928,4.444 3.321,3.826 2.486,3.42 1.677,3.056 1.366,2.915 1.048,2.789 0.725,2.689 L 0.681,2.675 0.68,2.674 0.652,2.666 C 0.546,2.634 0.44,2.605 0.334,2.58 L 0.313,2.576 0.273,2.552 C 0.047,2.445 -0.178,2.342 -0.395,2.289 -0.564,2.248 -0.718,2.207 -0.861,2.208 H -0.89 c -0.081,0.002 -0.192,0.034 -0.325,0.035 -0.016,0 -0.032,-10e-4 -0.049,-0.002 v 0 C -1.296,2.239 -1.32,2.232 -1.335,2.229 -1.35,2.226 -1.357,2.225 -1.357,2.225 -1.456,2.235 -1.553,2.238 -1.649,2.238 -1.785,2.238 -1.917,2.232 -2.047,2.229 -2.131,2.227 -2.215,2.227 -2.3,2.227 c -0.053,0 -0.106,0 -0.159,0 v 0 c -0.14,0 -0.383,0.016 -0.521,0.035 -0.322,0.044 -0.638,0.088 -0.95,0.156 -0.217,0.047 -0.419,0.135 -0.63,0.251 v 0 C -4.577,2.678 -4.597,2.69 -4.62,2.703 l -0.025,0.013 -0.027,0.003 c -1.282,0.142 -2.428,0.906 -3.209,1.947 -0.6,0.8 -0.955,1.745 -1.156,2.732 L -9.044,7.43 -9.063,7.456 C -9.182,7.61 -9.303,7.75 -9.367,7.887 -9.475,8.114 -9.578,8.341 -9.631,8.56 -9.673,8.73 -9.714,8.883 -9.713,9.026 v 0.03 0 c 0.002,0.08 0.034,0.192 0.035,0.324 0,0.016 0,0.033 -0.002,0.05 v 0 c -0.002,0.032 -0.008,0.056 -0.011,0.071 -0.004,0.015 -0.004,0.021 -0.004,0.022 0.009,0.098 0.012,0.195 0.012,0.291 0,0.136 -0.006,0.269 -0.009,0.399 -0.002,0.082 -0.002,0.165 -0.002,0.249 0,0.054 0,0.109 0,0.164 0.001,0.14 0.016,0.383 0.035,0.521 0.044,0.322 0.088,0.639 0.156,0.95 0.047,0.218 0.135,0.42 0.251,0.631 v 0 c 0.012,0.023 0.027,0.048 0.042,0.076 l 0.016,0.029 0.001,0.033 c 0.03,0.673 0.233,1.335 0.603,1.899 0.39,0.597 0.921,1.088 1.479,1.552 v 0 c 0.511,0.426 1.035,0.827 1.651,1.011 0.351,0.105 0.725,0.138 1.109,0.144 l 0.037,10e-4 0.048,0.028 c 0.226,0.107 0.451,0.21 0.668,0.262 0.169,0.042 0.322,0.083 0.465,0.082 l 0.03,-10e-4 c 0.081,-0.001 0.192,-0.033 0.324,-0.034 0.016,0 0.033,0 0.05,0.002 v 0 c 0.032,0.002 0.055,0.008 0.071,0.012 0.015,0.003 0.021,0.003 0.022,0.003 0.098,-0.009 0.196,-0.012 0.292,-0.012 0.135,0 0.268,0.006 0.397,0.009 0.084,0.002 0.168,0.002 0.253,0.002 0.053,0 0.106,0 0.16,0 0.14,-0.001 0.383,-0.017 0.52,-0.035 0.322,-0.044 0.639,-0.088 0.95,-0.156 C 0.154,17.588 0.355,17.5 0.567,17.384 0.671,17.327 0.775,17.267 0.88,17.207 l 0.019,-0.01 0.021,-0.005 c 0.05,-0.011 0.093,-0.018 0.129,-0.026 v 0 C 2.175,16.893 3.1,16.237 3.813,15.372 4.525,14.507 5.021,13.434 5.279,12.34 l 0.006,-0.025 0.014,-0.021 c 0.03,-0.044 0.055,-0.087 0.075,-0.128 v 0 C 5.481,11.939 5.585,11.711 5.638,11.493 5.68,11.323 5.72,11.17 5.72,11.027 l -10e-4,-0.03 v 0 c -0.001,-0.08 -0.033,-0.192 -0.035,-0.324 0,-0.017 10e-4,-0.033 0.002,-0.05 v 0 C 5.689,10.591 5.695,10.567 5.698,10.552 5.702,10.537 5.702,10.531 5.702,10.53 v 0 c -0.01,-0.098 -0.013,-0.196 -0.013,-0.291 0,-0.136 0.006,-0.27 0.009,-0.399 v 0 C 5.7,9.757 5.701,9.673 5.701,9.589 M 7.19,9.98 c -0.007,0.821 -0.205,1.542 -0.469,2.291 -0.245,0.691 -0.376,1.448 -0.724,2.152 -0.32,0.644 -0.817,1.259 -1.38,1.81 -0.562,0.551 -1.189,1.036 -1.771,1.415 -1.365,0.887 -2.972,1.211 -4.544,1.332 h -0.001 c -0.033,0.002 -0.066,0.004 -0.098,0.004 l -0.007,-0.001 c -0.066,0.028 -0.137,0.051 -0.217,0.063 -0.277,0.043 -0.548,0.063 -0.814,0.063 -1.283,-0.001 -2.444,-0.46 -3.606,-1.012 -1.465,-0.695 -2.408,-1.612 -3.385,-2.868 -0.408,-0.523 -0.824,-1.081 -1.156,-1.685 -0.332,-0.604 -0.58,-1.255 -0.646,-1.962 -0.01,-0.112 -0.015,-0.223 -0.015,-0.334 0,-0.624 0.15,-1.218 0.295,-1.797 0.146,-0.581 0.287,-1.148 0.286,-1.717 0,-0.122 -0.006,-0.243 -0.02,-0.366 -0.004,-0.039 -0.007,-0.077 -0.007,-0.114 0,-0.134 0.029,-0.256 0.082,-0.36 0.042,-0.082 0.101,-0.149 0.167,-0.207 0.009,-0.05 0.022,-0.101 0.042,-0.154 V 6.532 c 0.26,-0.691 0.512,-1.388 0.775,-2.082 0.014,-0.24 0.023,-0.483 0.031,-0.725 0.006,-0.192 0.013,-0.385 0.023,-0.579 0.009,-0.163 0.006,-0.35 0.046,-0.54 v 0 c 0.017,-0.08 0.05,-0.161 0.111,-0.232 0.059,-0.072 0.157,-0.131 0.271,-0.133 v 0 h 0.011 l 0.016,-0.096 0.019,0.099 c 0.101,0.01 0.189,0.056 0.25,0.118 0.068,0.07 0.112,0.155 0.133,0.246 0.008,0.036 0.012,0.073 0.016,0.109 0.119,-0.098 0.242,-0.182 0.341,-0.27 C -8.684,2.384 -8.626,2.322 -8.588,2.258 -8.551,2.194 -8.53,2.131 -8.53,2.049 -8.53,2.024 -8.532,1.998 -8.536,1.97 -8.545,1.916 -8.549,1.862 -8.549,1.81 c 0,-0.07 0.009,-0.137 0.023,-0.202 0.004,-0.307 0.009,-0.613 0.013,-0.92 0,-0.068 0.033,-0.137 0.081,-0.177 0.048,-0.041 0.104,-0.06 0.161,-0.06 0.046,0 0.095,0.013 0.138,0.042 0.043,0.029 0.078,0.077 0.093,0.129 v 0 c 0.031,0.103 0.053,0.207 0.07,0.312 0.135,-0.063 0.279,-0.1 0.425,-0.101 0.174,0 0.35,0.051 0.494,0.165 0.07,0.056 0.13,0.127 0.179,0.21 0.017,-0.028 0.034,-0.055 0.049,-0.083 0.147,-0.277 0.202,-0.607 0.257,-0.948 0.018,-0.118 0.087,-0.215 0.172,-0.273 0.085,-0.059 0.184,-0.085 0.281,-0.085 0.12,0 0.244,0.039 0.34,0.132 v 0 c 0.272,0.266 0.425,0.614 0.45,0.978 0.1,-0.036 0.199,-0.07 0.3,-0.102 0.028,-0.165 0.045,-0.33 0.045,-0.497 0,-0.016 0,-0.032 -0.001,-0.048 V 0.28 0.278 c 0,-0.067 0.032,-0.138 0.081,-0.179 0.049,-0.041 0.106,-0.058 0.16,-0.058 0.055,0 0.112,0.017 0.16,0.058 0.05,0.041 0.082,0.11 0.082,0.178 v 0.002 0.002 c -10e-4,0.123 -0.002,0.247 -0.003,0.37 0.007,-0.001 0.013,-0.003 0.02,-0.004 0.011,-0.007 0.018,-0.012 0.023,-0.016 l 0.006,-0.01 c 0.012,-0.032 0.024,-0.074 0.041,-0.124 v 0 C -4.405,0.484 -4.4,0.472 -4.396,0.462 -4.391,0.369 -4.391,0.27 -4.388,0.168 c 0.004,-0.121 0.013,-0.247 0.045,-0.374 0.031,-0.126 0.086,-0.252 0.177,-0.366 0.043,-0.055 0.116,-0.086 0.176,-0.084 0.068,0.001 0.123,0.026 0.167,0.066 0.044,0.039 0.079,0.099 0.08,0.175 v 0 0.001 0 0.001 c 0,0.118 -0.001,0.235 -0.002,0.353 0.071,0.014 0.139,0.042 0.198,0.083 0.086,0.06 0.157,0.15 0.186,0.264 0.008,0.031 0.014,0.064 0.021,0.096 0.019,-0.013 0.039,-0.026 0.058,-0.041 0.036,-0.028 0.075,-0.053 0.114,-0.076 -0.009,-0.083 -0.016,-0.167 -0.016,-0.253 0.001,-0.47 0.14,-0.961 0.385,-1.347 0.123,-0.194 0.273,-0.361 0.45,-0.483 0.177,-0.122 0.384,-0.196 0.607,-0.196 0.1,0 0.203,0.015 0.306,0.045 0.14,0.042 0.258,0.103 0.354,0.181 0.169,0.137 0.263,0.321 0.316,0.509 0.079,0.284 0.078,0.589 0.105,0.865 0.012,0.138 0.031,0.268 0.064,0.381 0.033,0.114 0.079,0.21 0.146,0.289 0.005,0.006 0.014,0.015 0.025,0.026 L -0.413,0.23 C -0.399,0.169 -0.362,0.121 -0.32,0.09 -0.277,0.059 -0.226,0.041 -0.17,0.041 l 0.035,0.002 c 0.042,0.006 0.079,0.026 0.113,0.051 V 0.087 0.086 L 0.109,0.082 H 0.121 L -0.022,0.076 v -0.003 0 c 0.01,-0.22 0.004,-0.478 0.031,-0.737 0.026,-0.26 0.085,-0.526 0.241,-0.757 0.22,-0.325 0.569,-0.5 0.918,-0.5 0.345,-0.002 0.693,0.178 0.891,0.536 0.129,0.23 0.162,0.48 0.162,0.718 0,0.204 -0.024,0.403 -0.042,0.583 C 2.169,0.004 2.145,0.12 2.124,0.248 2.102,0.374 2.084,0.51 2.084,0.612 c 0,0.041 0.003,0.076 0.008,0.1 C 2.097,0.737 2.104,0.749 2.104,0.749 2.106,0.752 2.117,0.764 2.136,0.777 2.137,0.778 2.138,0.778 2.139,0.779 2.14,0.778 2.141,0.777 2.142,0.777 2.181,0.758 2.228,0.745 2.278,0.744 2.292,0.629 2.306,0.515 2.319,0.4 2.326,0.347 2.346,0.293 2.388,0.247 2.43,0.2 2.499,0.167 2.569,0.168 2.709,0.17 2.817,0.279 2.82,0.419 V 0.418 c 0,0.237 0,0.473 0.001,0.709 0.087,0.058 0.17,0.122 0.25,0.194 C 3.088,1.296 3.108,1.274 3.132,1.258 3.177,1.227 3.228,1.214 3.275,1.214 c 0.06,0 0.119,0.019 0.168,0.061 0.05,0.042 0.085,0.113 0.085,0.185 v 0 C 3.531,1.611 3.533,1.762 3.535,1.913 3.617,2.032 3.709,2.158 3.793,2.262 3.797,2.151 3.802,2.03 3.809,1.913 3.815,1.816 3.821,1.724 3.827,1.646 3.833,1.569 3.839,1.508 3.845,1.467 3.911,0.984 4.07,0.601 4.388,0.223 4.516,0.07 4.703,0.007 4.88,0.007 5.035,0.007 5.19,0.053 5.319,0.142 5.447,0.23 5.552,0.367 5.58,0.54 5.693,1.218 5.867,1.924 5.923,2.634 5.931,2.742 5.935,2.847 5.935,2.949 5.934,3.269 5.904,3.56 5.904,3.841 c 0,0.061 0.005,0.12 0.008,0.18 0.139,0.043 0.271,0.116 0.382,0.223 0.144,0.138 0.249,0.331 0.296,0.57 0.324,1.638 0.6,3.356 0.6,5.046 0,0.04 0,0.08 0,0.12"
             style="fill:#100f0d;fill-opacity:1;fill-rule:nonzero;stroke:none"
             id="path2701" />
        </g>
      </g>
    </g>
  </g>
</svg>
