<?xml version="1.0" encoding="UTF-8" standalone="no"?>
<!-- Created with Inkscape (http://www.inkscape.org/) -->

<svg
   width="20.788256"
   height="24"
   viewBox="0 0 5.500226 6.35"
   version="1.1"
   id="svg9615"
   inkscape:version="1.2.1 (9c6d41e4, 2022-07-14)"
   sodipodi:docname="impending-evils.svg"
   xmlns:inkscape="http://www.inkscape.org/namespaces/inkscape"
   xmlns:sodipodi="http://sodipodi.sourceforge.net/DTD/sodipodi-0.dtd"
   xmlns="http://www.w3.org/2000/svg"
   xmlns:svg="http://www.w3.org/2000/svg">
  <sodipodi:namedview
     id="namedview9617"
     pagecolor="#505050"
     bordercolor="#eeeeee"
     borderopacity="1"
     inkscape:showpageshadow="0"
     inkscape:pageopacity="0"
     inkscape:pagecheckerboard="0"
     inkscape:deskcolor="#505050"
     inkscape:document-units="mm"
     showgrid="false"
     inkscape:zoom="0.7046647"
     inkscape:cx="-100.75714"
     inkscape:cy="31.93008"
     inkscape:window-width="1390"
     inkscape:window-height="941"
     inkscape:window-x="0"
     inkscape:window-y="25"
     inkscape:window-maximized="0"
     inkscape:current-layer="layer1" />
  <defs
     id="defs9612">
    <clipPath
       clipPathUnits="userSpaceOnUse"
       id="clipPath2961">
      <path
         d="m 159.654,528.062 h 22.76 v 22.76 h -22.76 z"
         id="path2959" />
    </clipPath>
  </defs>
  <g
     inkscape:label="Layer 1"
     inkscape:groupmode="layer"
     id="layer1"
     transform="translate(-131.66961,-140.25611)">
    <g
       id="g2955"
       transform="matrix(0.34072667,0,0,-0.34072667,76.143973,327.23363)">
      <g
         id="g2957"
         clip-path="url(#clipPath2961)">
        <g
           id="g2963"
           transform="translate(167.3536,532.9176)">
          <path
             d="M 0,0 V 0 0.007 C -0.001,0.12 -0.03,0.208 -0.032,0.29 -0.035,0.365 -0.035,0.439 -0.054,0.524 -0.096,0.717 -0.173,0.863 -0.325,0.993 h -0.001 c -0.106,0.092 -0.228,0.157 -0.37,0.19 -0.097,0.021 -0.183,0.023 -0.255,0.042 v 0 c -0.072,0.019 -0.145,0.039 -0.23,0.044 v 0 C -1.201,1.27 -1.221,1.27 -1.24,1.27 -1.388,1.27 -1.525,1.245 -1.66,1.228 -1.802,1.208 -1.989,1.223 -2.156,1.131 -2.323,1.037 -2.431,0.897 -2.493,0.743 -2.556,0.588 -2.577,0.418 -2.577,0.253 V 0.25 0.011 l 0.142,0.192 c 0.061,0.082 0.1,0.129 0.128,0.159 0.028,0.031 0.043,0.044 0.062,0.066 v 0 c 0.067,0.075 0.129,0.152 0.197,0.204 0.06,0.048 0.165,0.087 0.239,0.087 v 0 h 0.002 c 0.036,0.002 0.097,-0.021 0.17,-0.03 0.073,-0.007 0.141,-0.009 0.204,-0.017 v 0 c 0.104,-0.013 0.214,-0.027 0.29,-0.066 0.116,-0.059 0.194,-0.147 0.245,-0.254 0.051,-0.107 0.074,-0.234 0.074,-0.363 0,-0.075 -0.008,-0.15 -0.021,-0.222 -0.015,-0.076 -0.023,-0.136 -0.04,-0.183 -0.016,-0.048 -0.037,-0.085 -0.084,-0.128 -0.069,-0.064 -0.192,-0.086 -0.314,-0.095 -0.029,-0.003 -0.057,-0.004 -0.085,-0.004 -0.166,0 -0.308,0.041 -0.489,0.091 -0.119,0.034 -0.207,0.091 -0.297,0.163 -0.089,0.072 -0.178,0.159 -0.294,0.241 l -0.041,0.029 -0.043,-0.025 c -0.038,-0.02 -0.059,-0.055 -0.069,-0.085 -0.01,-0.03 -0.012,-0.059 -0.013,-0.087 10e-4,-0.046 0.008,-0.088 0.016,-0.119 0.021,-0.08 0.041,-0.161 0.061,-0.245 0.018,-0.077 0.033,-0.15 0.067,-0.221 0.034,-0.071 0.09,-0.137 0.173,-0.186 0.088,-0.053 0.196,-0.102 0.304,-0.123 v 0 c 0.145,-0.027 0.283,-0.022 0.404,-0.045 v 0 c 0.067,-0.013 0.132,-0.024 0.206,-0.026 v 0 h 0.012 c 0.105,10e-4 0.186,0.026 0.265,0.034 l 0.032,0.001 c 0.028,0 0.06,-0.003 0.097,-0.003 0.023,0 0.048,0.001 0.075,0.006 0.194,0.035 0.383,0.103 0.539,0.217 0.156,0.113 0.278,0.274 0.331,0.483 0.029,0.113 0.033,0.224 0.033,0.33 C 0.001,-0.152 0,-0.092 0,-0.034 Z"
             style="fill:#231f20;fill-opacity:1;fill-rule:nonzero;stroke:none"
             id="path2965" />
        </g>
        <g
           id="g2967"
           transform="translate(165.4016,532.4733)">
          <path
             d="M 0,0 Z"
             style="fill:#231f20;fill-opacity:1;fill-rule:nonzero;stroke:none"
             id="path2969" />
        </g>
        <g
           id="g2971"
           transform="translate(164.5905,535.6507)">
          <path
             d="M 0,0 V -0.001 Z"
             style="fill:#231f20;fill-opacity:1;fill-rule:nonzero;stroke:none"
             id="path2973" />
        </g>
        <g
           id="g2975"
           transform="translate(162.9624,535.3664)">
          <path
             d="M 0,0 Z"
             style="fill:#231f20;fill-opacity:1;fill-rule:nonzero;stroke:none"
             id="path2977" />
        </g>
        <g
           id="g2979"
           transform="translate(164.5558,535.8384)">
          <path
             d="m 0,0 v 0 l -0.001,-0.001 z m 0.404,-0.34 c 0.034,0.044 0.071,0.091 0.1,0.151 0.056,0.119 0.081,0.238 0.112,0.349 0.023,0.092 0.078,0.204 0.079,0.335 0,0.015 0,0.031 -0.002,0.048 C 0.675,0.691 0.606,0.812 0.513,0.903 0.421,0.994 0.306,1.059 0.188,1.108 L -0.032,1.199 0.09,0.994 C 0.129,0.929 0.15,0.888 0.163,0.861 0.176,0.833 0.181,0.819 0.191,0.798 0.225,0.728 0.26,0.664 0.275,0.604 0.281,0.583 0.285,0.555 0.285,0.527 0.285,0.49 0.278,0.451 0.267,0.425 0.26,0.403 0.227,0.367 0.197,0.315 v 0 C 0.171,0.266 0.15,0.219 0.126,0.179 V 0.178 C 0.086,0.109 0.046,0.038 0,0 -0.078,-0.067 -0.165,-0.093 -0.26,-0.093 -0.39,-0.094 -0.533,-0.039 -0.649,0.037 -0.698,0.07 -0.737,0.093 -0.764,0.116 -0.79,0.14 -0.807,0.162 -0.823,0.205 c -0.006,0.019 -0.01,0.04 -0.01,0.064 0,0.05 0.016,0.111 0.035,0.17 0.047,0.144 0.122,0.238 0.225,0.369 0.056,0.071 0.119,0.114 0.194,0.155 0.075,0.041 0.162,0.078 0.255,0.136 l 0.042,0.027 -0.006,0.049 C -0.092,1.21 -0.11,1.238 -0.129,1.255 -0.157,1.282 -0.187,1.295 -0.215,1.305 -0.243,1.314 -0.268,1.32 -0.288,1.323 V 1.322 c -0.063,0.009 -0.125,0.019 -0.189,0.03 V 1.351 C -0.529,1.36 -0.578,1.369 -0.632,1.369 -0.701,1.37 -0.777,1.351 -0.846,1.298 v 0 C -0.909,1.251 -0.976,1.189 -1.024,1.117 -1.087,1.021 -1.123,0.923 -1.174,0.848 -1.202,0.805 -1.23,0.762 -1.253,0.709 -1.287,0.629 -1.293,0.56 -1.311,0.504 -1.319,0.471 -1.35,0.429 -1.367,0.358 -1.385,0.278 -1.395,0.195 -1.395,0.113 c -10e-4,-0.218 0.075,-0.438 0.271,-0.585 0.122,-0.091 0.257,-0.131 0.374,-0.182 v 0 c 0.084,-0.036 0.157,-0.041 0.213,-0.063 0.052,-0.019 0.105,-0.041 0.173,-0.053 v 0 c 0.049,-0.009 0.096,-0.014 0.141,-0.014 0.094,0 0.184,0.022 0.277,0.069 0.097,0.049 0.182,0.117 0.247,0.209 0.045,0.064 0.07,0.123 0.103,0.165 z"
             style="fill:#231f20;fill-opacity:1;fill-rule:nonzero;stroke:none"
             id="path2981" />
        </g>
        <g
           id="g2983"
           transform="translate(166.1665,539.5067)">
          <path
             d="M 0,0 0.017,0.047 0.022,0.08 0.04,-0.131 c 0.003,-0.047 0.004,-0.078 0.004,-0.1 0,-0.032 -0.002,-0.042 -0.002,-0.065 V -0.312 -0.347 C 0.042,-0.386 0.041,-0.422 0.035,-0.452 0.029,-0.487 0,-0.539 -0.025,-0.56 v 0 c -0.007,-0.009 -0.041,-0.023 -0.082,-0.05 v 0 c -0.036,-0.025 -0.065,-0.049 -0.094,-0.068 v 0 c -0.05,-0.035 -0.1,-0.067 -0.139,-0.077 -0.024,-0.006 -0.046,-0.008 -0.068,-0.008 -0.066,0 -0.13,0.025 -0.189,0.07 -0.059,0.044 -0.111,0.106 -0.149,0.172 -0.021,0.034 -0.037,0.061 -0.047,0.082 -0.009,0.021 -0.014,0.036 -0.014,0.058 l 0.001,0.02 c 0.003,0.039 0.042,0.09 0.09,0.139 0.078,0.08 0.157,0.117 0.271,0.171 0.058,0.028 0.112,0.036 0.176,0.039 0.063,0.002 0.135,-0.002 0.22,0.007 z m 0.035,-0.453 v 0.001 z m -1.113,-0.525 v 0 c 0.049,-0.056 0.096,-0.084 0.124,-0.115 0.029,-0.03 0.059,-0.064 0.103,-0.096 0.092,-0.069 0.19,-0.108 0.308,-0.106 h 0.005 c 0.085,0 0.169,0.019 0.247,0.061 v 0 c 0.054,0.03 0.091,0.061 0.125,0.077 0.038,0.019 0.079,0.039 0.121,0.072 v 0 c 0.08,0.063 0.138,0.137 0.195,0.202 0.05,0.059 0.141,0.124 0.184,0.24 0.018,0.052 0.027,0.104 0.027,0.155 -0.001,0.165 -0.086,0.304 -0.183,0.416 L 0.02,0.107 0.021,0.092 c -0.004,0.046 -0.025,0.074 -0.042,0.095 -0.02,0.022 -0.04,0.038 -0.057,0.049 h 0.001 C -0.117,0.263 -0.155,0.29 -0.195,0.319 -0.226,0.341 -0.256,0.363 -0.293,0.382 -0.329,0.401 -0.374,0.415 -0.422,0.415 -0.441,0.415 -0.459,0.413 -0.478,0.409 -0.538,0.398 -0.606,0.379 -0.666,0.344 -0.743,0.298 -0.801,0.244 -0.857,0.211 -0.891,0.192 -0.925,0.171 -0.96,0.141 -1.013,0.096 -1.04,0.051 -1.07,0.02 -1.083,0.004 -1.119,-0.015 -1.157,-0.061 h -10e-4 c -0.098,-0.122 -0.17,-0.271 -0.171,-0.432 0,-0.077 0.018,-0.157 0.056,-0.233 0.055,-0.106 0.134,-0.18 0.195,-0.252"
             style="fill:#231f20;fill-opacity:1;fill-rule:nonzero;stroke:none"
             id="path2985" />
        </g>
        <g
           id="g2987"
           transform="translate(171.303,532.0991)">
          <path
             d="M 0,0 C -0.034,0.071 -0.083,0.14 -0.121,0.21 -0.342,0.616 -0.761,0.893 -1.21,0.983 -1.341,1.009 -1.477,1.033 -1.61,1.041 -1.773,1.05 -1.93,1.02 -2.091,1.012 -2.382,0.998 -2.686,0.948 -2.892,0.718 -3.025,0.57 -3.102,0.334 -3.102,0.136 c 0,-0.034 0,-0.075 0.003,-0.118 l -0.046,0.147 c -0.006,-0.106 -0.062,-0.199 -0.066,-0.306 -0.006,-0.142 0.048,-0.243 0.118,-0.363 0.101,-0.176 0.261,-0.373 0.462,-0.442 0.019,0.183 -0.018,0.373 0.015,0.553 0.033,0.18 0.057,0.359 0.18,0.51 0.139,0.17 0.286,0.264 0.512,0.261 0.213,-0.004 0.426,0.022 0.628,-0.058 0.172,-0.068 0.324,-0.204 0.437,-0.345 0.119,-0.149 0.167,-0.257 0.185,-0.449 0.01,-0.103 0.032,-0.219 0.033,-0.324 0,-0.081 -0.025,-0.16 -0.027,-0.242 0,-0.061 0.005,-0.111 -0.015,-0.168 -0.017,-0.049 -0.053,-0.074 -0.076,-0.116 -0.02,-0.035 -0.024,-0.07 -0.05,-0.099 -0.035,-0.039 -0.106,-0.051 -0.155,-0.068 -0.087,-0.03 -0.173,-0.057 -0.264,-0.075 -0.185,-0.037 -0.453,-0.049 -0.634,0.021 -0.098,0.039 -0.171,0.137 -0.276,0.16 -0.029,-0.038 0.036,-0.186 0.059,-0.233 0.041,-0.086 0.112,-0.141 0.203,-0.175 0.04,-0.014 0.087,-0.031 0.128,-0.038 0.029,10e-4 0.058,0.002 0.087,0.003 0.016,-0.002 0.028,-0.011 0.034,-0.025 0.152,-0.034 0.312,-0.067 0.466,-0.099 0.19,-0.039 0.36,-0.022 0.551,0.008 0.115,0.018 0.29,0.067 0.37,0.152 0.112,0.121 0.164,0.267 0.246,0.408 0.082,0.142 0.108,0.311 0.115,0.474 0.01,0.245 0.013,0.486 -0.063,0.718 C 0.037,-0.128 0.029,-0.061 0,0"
             style="fill:#231f20;fill-opacity:1;fill-rule:nonzero;stroke:none"
             id="path2989" />
        </g>
        <g
           id="g2991"
           transform="translate(174.9469,534.2817)">
          <path
             d="m 0,0 c -0.115,0.07 -0.235,0.14 -0.359,0.191 -0.15,0.061 -0.31,0.078 -0.466,0.121 -0.281,0.077 -0.588,0.118 -0.867,-0.07 -0.181,-0.121 -0.341,-0.356 -0.414,-0.574 -0.013,-0.038 -0.027,-0.082 -0.041,-0.13 l 0.011,0.176 c -0.044,-0.115 -0.132,-0.199 -0.175,-0.316 -0.058,-0.155 -0.043,-0.282 -0.022,-0.437 0.032,-0.224 0.111,-0.493 0.276,-0.632 0.085,0.195 0.12,0.416 0.217,0.603 0.098,0.188 0.187,0.377 0.359,0.504 0.194,0.143 0.368,0.2 0.582,0.124 0.201,-0.07 0.411,-0.11 0.574,-0.262 0.138,-0.129 0.233,-0.327 0.288,-0.518 0.057,-0.201 0.063,-0.336 0.01,-0.553 -0.028,-0.116 -0.05,-0.251 -0.088,-0.366 -0.03,-0.09 -0.083,-0.169 -0.114,-0.258 -0.023,-0.067 -0.036,-0.124 -0.077,-0.181 -0.033,-0.047 -0.077,-0.064 -0.114,-0.102 -0.032,-0.033 -0.048,-0.07 -0.084,-0.093 -0.048,-0.032 -0.119,-0.023 -0.172,-0.026 -0.094,-0.006 -0.185,-0.007 -0.278,10e-4 -0.189,0.018 -0.448,0.089 -0.593,0.224 -0.08,0.074 -0.113,0.205 -0.204,0.263 -0.041,-0.032 -0.034,-0.215 -0.03,-0.274 0.008,-0.108 0.055,-0.192 0.129,-0.257 0.032,-0.028 0.071,-0.062 0.107,-0.083 0.028,-0.008 0.056,-0.016 0.084,-0.024 0.014,-0.007 0.022,-0.02 0.023,-0.038 0.132,-0.085 0.271,-0.173 0.406,-0.257 0.166,-0.103 0.332,-0.138 0.525,-0.166 0.116,-0.016 0.3,-0.018 0.407,0.051 0.151,0.097 0.254,0.241 0.383,0.37 0.13,0.131 0.217,0.308 0.284,0.485 0.099,0.267 0.19,0.53 0.204,0.81 0.004,0.076 0.02,0.154 0.015,0.229 -0.006,0.09 -0.027,0.181 -0.037,0.27 C 0.688,-0.679 0.393,-0.241 0,0"
             style="fill:#231f20;fill-opacity:1;fill-rule:nonzero;stroke:none"
             id="path2993" />
        </g>
        <g
           id="g2995"
           transform="translate(178.6044,537.9139)">
          <path
             d="M 0,0 C -0.075,0.587 -0.423,1.087 -0.881,1.365 -1.015,1.446 -1.156,1.526 -1.3,1.585 -1.475,1.656 -1.661,1.677 -1.842,1.727 -2.17,1.817 -2.527,1.867 -2.85,1.656 -3.059,1.52 -3.242,1.255 -3.324,1.008 -3.339,0.965 -3.355,0.914 -3.37,0.86 l 0.01,0.201 C -3.41,0.931 -3.511,0.836 -3.56,0.704 -3.626,0.528 -3.608,0.383 -3.581,0.208 c 0.038,-0.256 0.133,-0.562 0.326,-0.721 0.097,0.22 0.136,0.471 0.247,0.682 0.112,0.213 0.212,0.427 0.411,0.57 0.225,0.16 0.427,0.223 0.675,0.135 0.234,-0.082 0.479,-0.129 0.67,-0.304 0.162,-0.147 0.273,-0.373 0.339,-0.591 0.069,-0.229 0.077,-0.382 0.017,-0.628 -0.031,-0.131 -0.055,-0.284 -0.098,-0.415 -0.034,-0.101 -0.095,-0.19 -0.131,-0.292 -0.026,-0.075 -0.04,-0.14 -0.087,-0.204 -0.038,-0.054 -0.089,-0.072 -0.132,-0.116 -0.036,-0.036 -0.055,-0.078 -0.096,-0.105 -0.055,-0.035 -0.138,-0.024 -0.2,-0.027 -0.108,-0.006 -0.215,-0.006 -0.322,0.004 -0.22,0.022 -0.522,0.106 -0.692,0.26 -0.093,0.085 -0.132,0.234 -0.24,0.301 -0.046,-0.036 -0.037,-0.244 -0.031,-0.312 0.01,-0.122 0.065,-0.217 0.152,-0.292 0.038,-0.033 0.083,-0.072 0.125,-0.096 0.033,-0.009 0.065,-0.019 0.098,-0.028 0.017,-0.008 0.026,-0.023 0.027,-0.044 0.155,-0.097 0.316,-0.198 0.474,-0.295 0.193,-0.119 0.388,-0.16 0.612,-0.193 0.134,-0.02 0.349,-0.024 0.472,0.053 0.174,0.109 0.293,0.272 0.441,0.417 0.151,0.147 0.25,0.348 0.325,0.548 0.113,0.302 0.216,0.601 0.229,0.918 0.004,0.087 0.023,0.174 0.016,0.261 C 0.038,-0.205 0.013,-0.101 0,0"
             style="fill:#231f20;fill-opacity:1;fill-rule:nonzero;stroke:none"
             id="path2997" />
        </g>
        <g
           id="g2999"
           transform="translate(179.1008,542.6429)">
          <path
             d="M 0,0 C -0.019,0.332 -0.048,0.658 -0.185,0.962 -0.222,1.045 -0.243,1.135 -0.291,1.213 -0.349,1.305 -0.425,1.391 -0.488,1.48 -0.849,1.997 -1.469,2.314 -2.104,2.373 -2.289,2.39 -2.481,2.404 -2.667,2.395 -2.894,2.385 -3.108,2.323 -3.33,2.29 -3.733,2.231 -4.147,2.12 -4.402,1.781 -4.566,1.561 -4.641,1.232 -4.614,0.965 -4.61,0.918 -4.603,0.863 -4.594,0.806 l -0.084,0.192 c 0.006,-0.144 -0.059,-0.277 -0.05,-0.423 0.01,-0.193 0.1,-0.321 0.213,-0.474 0.164,-0.223 0.413,-0.469 0.7,-0.533 0.002,0.249 -0.074,0.502 -0.053,0.749 0.021,0.248 0.03,0.494 0.181,0.714 0.17,0.25 0.361,0.397 0.675,0.424 0.296,0.026 0.587,0.089 0.879,0.01 0.248,-0.068 0.478,-0.23 0.653,-0.406 0.185,-0.184 0.266,-0.324 0.318,-0.581 0.028,-0.138 0.074,-0.291 0.089,-0.433 0.012,-0.11 -0.013,-0.22 -0.004,-0.331 0.007,-0.082 0.022,-0.149 0.002,-0.23 -0.016,-0.067 -0.063,-0.107 -0.09,-0.166 -0.023,-0.051 -0.023,-0.098 -0.056,-0.141 -0.044,-0.058 -0.139,-0.084 -0.205,-0.114 -0.117,-0.053 -0.234,-0.1 -0.357,-0.138 -0.251,-0.076 -0.622,-0.13 -0.882,-0.06 -0.142,0.039 -0.257,0.162 -0.406,0.177 -0.034,-0.055 0.076,-0.246 0.114,-0.306 0.069,-0.11 0.175,-0.176 0.306,-0.208 0.057,-0.013 0.125,-0.03 0.182,-0.034 0.041,0.005 0.081,0.011 0.121,0.016 0.023,0 0.039,-0.01 0.05,-0.029 0.217,-0.024 0.442,-0.047 0.661,-0.069 0.269,-0.026 0.501,0.021 0.763,0.088 0.157,0.041 0.394,0.132 0.492,0.257 0.14,0.179 0.193,0.384 0.287,0.586 C 0,-0.453 0.013,-0.221 0,0"
             style="fill:#231f20;fill-opacity:1;fill-rule:nonzero;stroke:none"
             id="path3001" />
        </g>
        <g
           id="g3003"
           transform="translate(168.8989,545.3224)">
          <path
             d="m 0,0 -0.204,0.125 c 0.1,-0.13 0.126,-0.297 0.229,-0.427 0.136,-0.174 0.303,-0.235 0.508,-0.304 0.298,-0.101 0.691,-0.167 1.001,-0.04 C 1.373,-0.413 1.137,-0.227 0.996,0.017 0.854,0.263 0.702,0.498 0.699,0.802 0.695,1.145 0.777,1.407 1.053,1.637 1.312,1.854 1.542,2.103 1.867,2.219 2.142,2.317 2.462,2.315 2.74,2.266 3.032,2.214 3.199,2.136 3.416,1.931 3.531,1.821 3.674,1.707 3.78,1.585 3.863,1.49 3.912,1.371 3.993,1.274 4.053,1.202 4.11,1.149 4.144,1.06 4.172,0.987 4.154,0.919 4.168,0.846 4.18,0.785 4.21,0.74 4.208,0.678 4.205,0.597 4.133,0.509 4.09,0.438 4.016,0.313 3.938,0.193 3.848,0.078 3.662,-0.157 3.352,-0.449 3.064,-0.553 2.906,-0.609 2.719,-0.57 2.57,-0.652 c 0.004,-0.073 0.23,-0.18 0.305,-0.212 0.137,-0.057 0.278,-0.05 0.421,0.006 0.062,0.024 0.137,0.053 0.193,0.087 0.034,0.031 0.068,0.062 0.102,0.094 0.021,0.014 0.043,0.016 0.066,0.005 0.217,0.119 0.442,0.244 0.661,0.367 0.268,0.15 0.454,0.345 0.655,0.579 0.119,0.14 0.281,0.379 0.291,0.56 C 5.278,1.092 5.193,1.318 5.149,1.567 5.105,1.819 4.966,2.044 4.81,2.242 4.576,2.539 4.337,2.824 4.011,3.019 3.923,3.072 3.844,3.142 3.748,3.184 3.635,3.232 3.507,3.262 3.391,3.305 2.717,3.552 1.933,3.444 1.302,3.085 1.118,2.98 0.93,2.868 0.762,2.739 0.557,2.582 0.398,2.384 0.212,2.208 -0.125,1.891 -0.44,1.518 -0.456,1.036 -0.466,0.724 -0.322,0.368 -0.122,0.135 -0.088,0.095 -0.046,0.048 0,0"
             style="fill:#231f20;fill-opacity:1;fill-rule:nonzero;stroke:none"
             id="path3005" />
        </g>
        <g
           id="g3007"
           transform="translate(169.4309,537.2044)">
          <path
             d="M 0,0 Z"
             style="fill:#231f20;fill-opacity:1;fill-rule:nonzero;stroke:none"
             id="path3009" />
        </g>
        <g
           id="g3011"
           transform="translate(169.404,537.1248)">
          <path
             d="m 0,0 z m -0.961,-0.047 c 0.051,0 0.1,0.001 0.146,0.001 0.005,0 0.01,0 0.015,0 0.001,-0.036 0.008,-0.072 0.024,-0.103 0.027,-0.054 0.071,-0.087 0.107,-0.107 0.037,-0.021 0.07,-0.034 0.098,-0.048 h 0.001 c 0.063,-0.031 0.144,-0.053 0.233,-0.054 0.068,0.001 0.149,0.013 0.214,0.081 0.042,0.046 0.066,0.097 0.084,0.145 0.018,0.048 0.029,0.093 0.038,0.129 L 0.001,0 c 0.007,0.011 0.023,0.046 0.026,0.079 0.002,0.016 0.002,0.03 0.002,0.043 0,0.022 -0.001,0.041 -0.002,0.054 C 0.026,0.203 0.023,0.232 0.015,0.262 0.007,0.292 -0.007,0.321 -0.024,0.347 v 0.001 c -0.021,0.032 -0.043,0.06 -0.069,0.085 -0.04,0.036 -0.091,0.059 -0.137,0.068 -0.046,0.008 -0.088,0.008 -0.134,0.008 h 0.001 -0.027 c -0.035,0 -0.069,0 -0.103,0 -0.015,0 -0.03,0 -0.045,0 h 0.001 -0.004 C -0.582,0.509 -0.617,0.504 -0.647,0.498 -0.677,0.492 -0.702,0.485 -0.728,0.479 H -0.729 C -0.745,0.476 -0.761,0.473 -0.781,0.468 -0.809,0.461 -0.852,0.448 -0.888,0.411 -0.925,0.375 -0.941,0.328 -0.949,0.282 -0.956,0.247 -0.958,0.214 -0.958,0.182 c 0,-0.002 0,-0.003 0.001,-0.005 h -0.004 z"
             style="fill:#231f20;fill-opacity:1;fill-rule:nonzero;stroke:none"
             id="path3013" />
        </g>
        <g
           id="g3015"
           transform="translate(168.4545,537.4067)">
          <path
             d="M 0,0 Z"
             style="fill:#231f20;fill-opacity:1;fill-rule:nonzero;stroke:none"
             id="path3017" />
        </g>
        <g
           id="g3019"
           transform="translate(166.8712,537.6483)">
          <path
             d="M 0,0 Z"
             style="fill:#231f20;fill-opacity:1;fill-rule:nonzero;stroke:none"
             id="path3021" />
        </g>
        <g
           id="g3023"
           transform="translate(169.6882,535.0057)">
          <path
             d="M 0,0 V 0 C 0.069,0.02 0.167,0.034 0.244,0.105 0.269,0.13 0.284,0.155 0.298,0.179 0.312,0.202 0.323,0.224 0.331,0.236 0.425,0.38 0.538,0.526 0.667,0.624 0.819,0.742 1.03,0.827 1.174,1.022 1.261,1.143 1.321,1.271 1.395,1.379 1.429,1.428 1.477,1.478 1.528,1.534 1.578,1.59 1.63,1.651 1.665,1.728 1.716,1.844 1.707,1.965 1.709,2.06 V 2.091 C 1.709,2.306 1.683,2.518 1.674,2.723 1.661,2.994 1.571,3.245 1.49,3.486 1.473,3.532 1.462,3.594 1.438,3.657 V 3.658 C 1.37,3.832 1.225,3.94 1.11,4.037 1.072,4.068 1.027,4.094 0.987,4.121 0.947,4.146 0.912,4.173 0.901,4.188 H 0.9 0.901 L 0.894,4.205 C 0.89,4.214 0.888,4.224 0.875,4.242 v 0 C 0.767,4.391 0.627,4.494 0.472,4.563 0.239,4.668 -0.025,4.704 -0.283,4.728 -0.54,4.751 -0.791,4.763 -0.991,4.81 h -0.001 c -0.011,0.002 -0.041,0.013 -0.074,0.023 -0.034,0.01 -0.07,0.02 -0.111,0.021 -0.021,0 -0.046,-0.002 -0.073,-0.019 v 0 C -1.27,4.823 -1.275,4.812 -1.281,4.804 -1.289,4.789 -1.292,4.779 -1.296,4.768 -1.307,4.729 -1.314,4.679 -1.321,4.625 -1.327,4.571 -1.331,4.518 -1.331,4.479 L -1.33,4.454 -1.325,4.425 C -1.312,4.379 -1.284,4.342 -1.251,4.316 -1.203,4.277 -1.148,4.258 -1.096,4.243 -1.044,4.229 -0.994,4.222 -0.959,4.215 -0.889,4.201 -0.819,4.193 -0.756,4.18 -0.693,4.168 -0.639,4.15 -0.601,4.122 -0.54,4.079 -0.471,4.001 -0.376,3.951 -0.336,3.93 -0.301,3.919 -0.272,3.908 -0.244,3.896 -0.221,3.886 -0.192,3.865 -0.122,3.815 -0.057,3.75 0.015,3.684 0.034,3.668 0.056,3.653 0.084,3.639 0.112,3.625 0.141,3.612 0.184,3.61 0.186,3.61 0.189,3.611 0.192,3.612 0.269,3.531 0.346,3.448 0.441,3.372 v 0 C 0.601,3.244 0.761,3.123 0.875,2.975 0.947,2.882 0.985,2.789 1.007,2.689 1.029,2.589 1.034,2.481 1.033,2.364 1.033,2.307 1.032,2.248 1.032,2.187 c 0,-0.03 0,-0.061 0,-0.091 0,-0.033 0,-0.066 10e-4,-0.099 V 1.986 C 1.033,1.948 1.03,1.927 1.023,1.905 1.017,1.883 1.005,1.857 0.987,1.818 0.946,1.73 0.921,1.666 0.866,1.61 0.833,1.576 0.799,1.548 0.761,1.514 0.724,1.48 0.685,1.441 0.651,1.387 0.606,1.318 0.55,1.245 0.494,1.193 0.441,1.143 0.364,1.1 0.293,1.027 0.196,0.924 0.135,0.82 0.045,0.759 -0.086,0.666 -0.286,0.606 -0.458,0.576 v 0 C -0.603,0.55 -0.757,0.56 -0.926,0.533 -1.004,0.521 -1.086,0.517 -1.175,0.503 v 0 C -1.243,0.492 -1.289,0.48 -1.332,0.48 c -0.017,0 -0.033,0.002 -0.051,0.006 -0.062,0.012 -0.12,0.017 -0.17,0.027 -0.05,0.01 -0.09,0.023 -0.122,0.049 L -1.697,0.584 C -1.708,0.596 -1.724,0.614 -1.748,0.629 -1.782,0.649 -1.816,0.655 -1.84,0.658 -1.864,0.661 -1.879,0.662 -1.89,0.665 -1.924,0.674 -1.987,0.704 -2.041,0.739 -2.096,0.773 -2.145,0.817 -2.155,0.834 -2.183,0.878 -2.203,0.922 -2.23,0.971 -2.256,1.02 -2.288,1.073 -2.34,1.123 v 0 c -0.044,0.043 -0.068,0.065 -0.082,0.098 -0.013,0.032 -0.021,0.078 -0.026,0.13 -0.006,0.051 -0.009,0.107 -0.021,0.162 -0.021,0.104 -0.038,0.224 -0.038,0.336 0,0.06 0.005,0.118 0.015,0.17 0.012,0.062 0.022,0.128 0.041,0.179 0.009,0.026 0.02,0.047 0.031,0.062 0.012,0.016 0.024,0.025 0.039,0.032 h 10e-4 -10e-4 c 0.046,0.02 0.089,0.041 0.135,0.065 0.095,0.049 0.174,0.11 0.25,0.145 v 0 c 0.091,0.043 0.179,0.06 0.278,0.06 0.03,0 0.061,-0.002 0.093,-0.005 l 0.356,-0.033 -0.309,0.18 c -0.173,0.101 -0.389,0.144 -0.595,0.145 -0.076,0 -0.15,-0.006 -0.221,-0.018 -0.12,-0.02 -0.194,-0.063 -0.281,-0.103 v 0 C -2.698,2.717 -2.716,2.711 -2.741,2.699 -2.765,2.688 -2.793,2.669 -2.817,2.643 -2.873,2.583 -2.931,2.513 -2.965,2.425 -2.993,2.352 -3.038,2.267 -3.062,2.172 -3.104,2.004 -3.117,1.822 -3.138,1.664 -3.155,1.538 -3.171,1.417 -3.171,1.285 L -3.17,1.244 c 0.002,-0.093 0.019,-0.183 0.036,-0.266 0.013,-0.056 0.013,-0.131 0.032,-0.21 0.022,-0.086 0.064,-0.155 0.116,-0.208 0.078,-0.082 0.174,-0.13 0.265,-0.174 0.092,-0.043 0.179,-0.082 0.245,-0.133 0.192,-0.147 0.44,-0.2 0.638,-0.267 0.143,-0.048 0.297,-0.108 0.456,-0.141 0.077,-0.015 0.158,-0.02 0.241,-0.02 0.12,0 0.241,0.011 0.342,0.02 C -0.522,-0.129 -0.263,-0.069 0,0"
             style="fill:#231f20;fill-opacity:1;fill-rule:nonzero;stroke:none"
             id="path3025" />
        </g>
        <g
           id="g3027"
           transform="translate(169.9325,535.1109)">
          <path
             d="M 0,0 Z"
             style="fill:#231f20;fill-opacity:1;fill-rule:nonzero;stroke:none"
             id="path3029" />
        </g>
        <g
           id="g3031"
           transform="translate(168.9963,534.6832)">
          <path
             d="M 0,0 Z"
             style="fill:#231f20;fill-opacity:1;fill-rule:nonzero;stroke:none"
             id="path3033" />
        </g>
        <g
           id="g3035"
           transform="translate(169.1204,534.683)">
          <path
             d="M 0,0 Z"
             style="fill:#231f20;fill-opacity:1;fill-rule:nonzero;stroke:none"
             id="path3037" />
        </g>
        <g
           id="g3039"
           transform="translate(169.3148,534.6066)">
          <path
             d="M 0,0 Z"
             style="fill:#231f20;fill-opacity:1;fill-rule:nonzero;stroke:none"
             id="path3041" />
        </g>
        <g
           id="g3043"
           transform="translate(169.3735,533.0878)">
          <path
             d="m 0,0 c 0.039,-0.008 0.102,-0.034 0.173,-0.036 l 0.016,10e-4 c 0.017,-0.011 0.041,-0.028 0.072,-0.05 l 0.126,-0.091 v 0.155 c 0,0.097 -0.006,0.186 -0.026,0.284 -0.009,0.047 -0.012,0.098 -0.012,0.151 0,0.086 0.008,0.177 0.008,0.27 V 0.713 C 0.352,0.887 0.289,1.028 0.271,1.163 0.254,1.286 0.23,1.4 0.151,1.518 0.079,1.625 0.025,1.778 -0.113,1.886 v 0 c -0.053,0.042 -0.117,0.073 -0.194,0.076 -0.019,0.001 -0.047,0.004 -0.076,0.004 -0.015,0 -0.031,0 -0.048,-0.003 C -0.464,1.957 -0.486,1.945 -0.499,1.939 L -0.513,1.933 h -0.003 v 0 l -0.235,0.034 0.168,-0.168 c 0.007,-0.007 0.021,-0.029 0.035,-0.055 0.015,-0.027 0.029,-0.058 0.05,-0.088 0.012,-0.018 0.024,-0.029 0.03,-0.037 l 0.011,-0.014 c 0.01,-0.016 0.017,-0.059 0.032,-0.108 0.056,-0.178 0.125,-0.358 0.14,-0.526 0.012,-0.134 0.049,-0.255 0.062,-0.369 0.002,-0.016 0.003,-0.033 0.003,-0.05 0,-0.041 -0.004,-0.087 -0.004,-0.138 0,-0.029 0.001,-0.061 0.007,-0.095 l 0.002,-0.01 0.005,-0.01 C -0.201,0.279 -0.196,0.259 -0.193,0.238 -0.194,0.212 -0.195,0.186 -0.196,0.161 L -0.197,0.146 -0.192,0.132 C -0.18,0.099 -0.161,0.065 -0.122,0.04 -0.105,0.029 -0.097,0.027 -0.086,0.023 -0.054,0.013 -0.014,0.003 0,0"
             style="fill:#231f20;fill-opacity:1;fill-rule:nonzero;stroke:none"
             id="path3045" />
        </g>
        <g
           id="g3047"
           transform="translate(168.9295,534.3765)">
          <path
             d="M 0,0 Z"
             style="fill:#231f20;fill-opacity:1;fill-rule:nonzero;stroke:none"
             id="path3049" />
        </g>
        <g
           id="g3051"
           transform="translate(169.3053,532.7601)">
          <path
             d="M 0,0 C 0,0 0,0 0,0 0,0 0,0 0,0 Z"
             style="fill:#231f20;fill-opacity:1;fill-rule:nonzero;stroke:none"
             id="path3053" />
        </g>
        <g
           id="g3055"
           transform="translate(173.121,534.3652)">
          <path
             d="m 0,0 -0.037,0.088 c -0.079,0.131 -0.205,0.221 -0.302,0.336 -0.042,0.049 -0.061,0.111 -0.106,0.158 -0.058,0.06 -0.13,0.116 -0.191,0.173 -0.263,0.249 -0.55,0.459 -0.834,0.689 -0.226,0.183 -0.473,0.314 -0.739,0.429 -0.392,-0.19 -0.381,-0.239 -0.364,-0.3 0.032,-0.113 0.109,-0.156 0.184,-0.242 0.061,-0.07 0.142,-0.117 0.21,-0.182 0.069,-0.066 0.137,-0.128 0.21,-0.188 0.167,-0.138 0.321,-0.275 0.505,-0.389 0.168,-0.105 0.332,-0.231 0.476,-0.371 0.137,-0.134 0.287,-0.239 0.439,-0.354 0.105,-0.08 0.242,-0.178 0.368,-0.221 0.076,-0.026 0.078,0.015 0.102,0.084 0.027,0.077 0.032,0.148 0.053,0.222 C -0.019,-0.043 0.003,-0.035 0,0"
             style="fill:#231f20;fill-opacity:1;fill-rule:nonzero;stroke:none"
             id="path3057" />
        </g>
        <g
           id="g3059"
           transform="translate(173.1412,538.8224)">
          <path
             d="m 0,0 c -0.113,-0.016 -0.226,-0.004 -0.338,-0.022 -0.13,-0.02 -0.26,-0.04 -0.391,-0.051 -0.165,-0.014 -0.327,-0.005 -0.493,-0.024 -0.166,-0.019 -0.368,-0.045 -0.527,-0.099 -0.078,-0.027 -0.318,-0.082 -0.335,-0.182 0.061,-0.063 -0.006,-0.312 0.151,-0.333 0.125,-0.017 0.262,0.021 0.386,0.031 0.213,0.017 0.422,0.062 0.635,0.061 0.589,-0.003 1.173,-0.032 1.755,-0.119 0.215,-0.032 0.43,-0.057 0.645,-0.093 0.133,-0.023 0.268,-0.032 0.401,-0.053 0.064,-0.01 0.133,-0.039 0.197,-0.035 0.022,0.158 0,0.347 -0.044,0.499 C 2.009,-0.307 1.925,-0.305 1.815,-0.286 1.441,-0.221 1.107,0.022 0.716,0.016 0.478,0.012 0.235,0.033 0,0"
             style="fill:#231f20;fill-opacity:1;fill-rule:nonzero;stroke:none"
             id="path3061" />
        </g>
        <g
           id="g3063"
           transform="translate(173.6683,542.7875)">
          <path
             d="M 0,0 C -0.114,-0.054 -0.227,-0.107 -0.34,-0.163 -0.621,-0.305 -0.9,-0.445 -1.175,-0.596 -1.307,-0.668 -1.428,-0.75 -1.543,-0.847 -1.645,-0.933 -1.732,-1.035 -1.837,-1.117 -1.974,-1.223 -2.113,-1.316 -2.239,-1.436 -2.355,-1.547 -2.486,-1.628 -2.609,-1.729 -2.74,-1.838 -2.817,-1.987 -2.924,-2.118 -2.999,-2.211 -3.071,-2.3 -3.136,-2.401 c -0.117,-0.182 -0.188,-0.361 -0.187,-0.577 -0.043,-0.101 0.059,-0.105 0.166,-0.074 0.104,0.031 0.124,0.048 0.14,0.149 0.008,0.051 0.019,0.119 0.04,0.165 0.018,0.038 0.055,0.072 0.081,0.104 0.079,0.099 0.153,0.199 0.238,0.292 0.127,0.14 0.274,0.268 0.432,0.373 0.297,0.199 0.576,0.424 0.882,0.609 0.254,0.155 0.481,0.342 0.73,0.504 0.227,0.148 0.468,0.243 0.703,0.372 0.083,0.047 0.169,0.077 0.26,0.105 0.105,0.033 0.179,0.083 0.275,0.134 0.143,0.076 0.303,0.132 0.451,0.2 C 1.131,-0.02 1.241,-0.013 1.24,0.059 1.238,0.246 0.953,0.256 0.833,0.257 0.645,0.258 0.463,0.21 0.287,0.15 0.187,0.116 0.096,0.045 0,0"
             style="fill:#231f20;fill-opacity:1;fill-rule:nonzero;stroke:none"
             id="path3065" />
        </g>
        <g
           id="g3067"
           transform="translate(168.1844,540.3296)">
          <path
             d="M 0,0 C 0.002,0.002 0.007,0.002 0.009,0.003 0.002,0.004 0.001,0.002 0,0"
             style="fill:#231f20;fill-opacity:1;fill-rule:nonzero;stroke:none"
             id="path3069" />
        </g>
        <g
           id="g3071"
           transform="translate(168.8266,539.7257)">
          <path
             d="M 0,0 C 0.038,0.136 0.025,0.278 0.025,0.419 0.024,0.606 0.056,0.786 0.055,0.974 0.054,1.218 0.073,1.462 0.092,1.706 0.104,1.871 0.101,2.045 0.131,2.208 0.158,2.349 0.21,2.488 0.251,2.625 0.323,2.865 0.442,3.104 0.578,3.312 0.707,3.511 0.796,3.728 0.912,3.935 1.008,4.104 1.148,4.249 1.233,4.422 1.296,4.55 1.322,4.67 1.362,4.804 1.384,4.876 1.404,4.931 1.357,4.99 1.302,5.059 1.221,5.093 1.142,5.119 1.025,5.158 0.903,5.18 0.777,5.166 0.711,5.159 0.648,5.134 0.584,5.12 0.482,5.097 0.433,5.081 0.376,4.984 0.302,4.861 0.203,4.743 0.158,4.605 0.031,4.216 -0.045,3.808 -0.143,3.409 -0.188,3.224 -0.212,3.033 -0.24,2.845 -0.29,2.501 -0.34,2.157 -0.381,1.811 -0.436,1.349 -0.427,0.886 -0.429,0.422 -0.43,0.285 -0.425,0.16 -0.405,0.027 c 0.001,-0.01 0.002,-0.019 0.004,-0.028 0.034,0 0.066,-0.002 0.085,-0.002 C -0.211,-0.004 -0.105,-0.014 0,0"
             style="fill:#231f20;fill-opacity:1;fill-rule:nonzero;stroke:none"
             id="path3073" />
        </g>
        <g
           id="g3075"
           transform="translate(167.2113,535.2372)">
          <path
             d="m 0,0 c -0.075,0 -0.137,-0.01 -0.205,-0.045 -0.106,-0.054 -0.232,-0.198 -0.288,-0.304 -0.088,-0.166 -0.138,-0.35 -0.209,-0.52 -0.041,-0.098 -0.141,-0.247 -0.054,-0.34 0.107,-0.114 0.291,-0.008 0.424,0 0.126,0.008 0.309,0.04 0.41,0.129 0.049,0.043 0.051,0.114 0.066,0.175 0.031,0.127 0.065,0.252 0.099,0.378 0.027,0.097 0.043,0.199 0.097,0.286 0.041,0.064 0.095,0.133 0.107,0.211 C 0.165,-0.042 0.075,0 0,0"
             style="fill:#231f20;fill-opacity:1;fill-rule:nonzero;stroke:none"
             id="path3077" />
        </g>
        <g
           id="g3079"
           transform="translate(165.4422,536.3419)">
          <path
             d="m 0,0 c -0.064,-0.017 -0.122,-0.016 -0.189,-0.015 -0.057,0 -0.117,0.017 -0.141,-0.044 -0.014,-0.035 -0.002,-0.099 -0.002,-0.137 0,-0.086 -0.027,-0.214 0.048,-0.274 0.073,-0.059 0.27,-0.038 0.354,-0.03 0.068,0.006 0.128,0.03 0.197,0.032 0.043,0.001 0.099,-0.011 0.139,0.002 0.088,0.028 0.174,0.141 0.198,0.225 C 0.628,-0.154 0.602,-0.048 0.566,0.045 0.455,0.044 0.345,0.041 0.233,0.022 0.153,0.009 0.078,0.021 0,0"
             style="fill:#231f20;fill-opacity:1;fill-rule:nonzero;stroke:none"
             id="path3081" />
        </g>
        <g
           id="g3083"
           transform="translate(166.1772,538.6706)">
          <path
             d="m 0,0 c -0.023,-0.006 -0.165,-0.026 -0.185,-0.052 -0.022,-0.027 -0.006,-0.129 -0.005,-0.158 0.001,-0.104 0.026,-0.247 0.067,-0.343 0.055,-0.127 0.098,-0.266 0.176,-0.38 0.026,-0.04 0.032,-0.044 0.077,-0.049 0.05,-0.006 0.113,0.028 0.166,0.03 0.026,0.001 0.067,-0.011 0.092,-0.003 0.031,0.01 0.038,0.037 0.063,0.056 0.047,0.034 0.073,0.021 0.084,0.097 l 0.121,0.06 C 0.669,-0.653 0.58,-0.551 0.533,-0.483 0.452,-0.368 0.385,-0.251 0.293,-0.145 0.201,-0.038 0.148,0.041 0,0"
             style="fill:#231f20;fill-opacity:1;fill-rule:nonzero;stroke:none"
             id="path3085" />
        </g>
      </g>
    </g>
  </g>
</svg>
