<?xml version="1.0" encoding="UTF-8" standalone="no"?>
<!-- Created with Inkscape (http://www.inkscape.org/) -->

<svg
   width="24.180017"
   height="24"
   viewBox="0 0 6.3976295 6.35"
   version="1.1"
   id="svg8204"
   inkscape:version="1.2.1 (9c6d41e4, 2022-07-14)"
   sodipodi:docname="return-to-for-the-greater-good.svg"
   xmlns:inkscape="http://www.inkscape.org/namespaces/inkscape"
   xmlns:sodipodi="http://sodipodi.sourceforge.net/DTD/sodipodi-0.dtd"
   xmlns="http://www.w3.org/2000/svg"
   xmlns:svg="http://www.w3.org/2000/svg">
  <sodipodi:namedview
     id="namedview8206"
     pagecolor="#505050"
     bordercolor="#eeeeee"
     borderopacity="1"
     inkscape:showpageshadow="0"
     inkscape:pageopacity="0"
     inkscape:pagecheckerboard="0"
     inkscape:deskcolor="#505050"
     inkscape:document-units="mm"
     showgrid="false"
     inkscape:zoom="0.7046647"
     inkscape:cx="49.669013"
     inkscape:cy="132.68722"
     inkscape:window-width="1390"
     inkscape:window-height="941"
     inkscape:window-x="0"
     inkscape:window-y="25"
     inkscape:window-maximized="0"
     inkscape:current-layer="layer1" />
  <defs
     id="defs8201">
    <clipPath
       clipPathUnits="userSpaceOnUse"
       id="clipPath1545">
      <path
         d="m 150.565,410.504 h 22.058 v 21.884 h -22.058 z"
         id="path1543" />
    </clipPath>
  </defs>
  <g
     inkscape:label="Layer 1"
     inkscape:groupmode="layer"
     id="layer1"
     transform="translate(-92.171603,-113.59743)">
    <g
       id="g1539"
       transform="matrix(0.29701017,0,0,-0.29701017,47.343777,241.88447)">
      <g
         id="g1541"
         clip-path="url(#clipPath1545)">
        <g
           id="g1547"
           transform="matrix(0.1531793,0,0,-0.1519643,161.59476,421.35873)">
          <g
             id="g1549"
             transform="translate(-4.7603,-25.4648)">
            <path
               d="M 0,0 C 0.26,0.572 0.571,1.184 0.818,1.883 V 1.882 1.884 1.883 C 1.026,2.475 1.175,3.04 1.34,3.558 V 3.557 C 1.65,4.539 2.02,5.484 2.421,6.465 V 6.466 C 2.594,6.893 2.667,7.289 2.727,7.624 2.785,7.96 2.832,8.237 2.903,8.459 3.029,8.861 3.066,9.22 3.1,9.517 c 0.031,0.297 0.06,0.533 0.11,0.709 0.025,0.094 0.09,0.236 0.186,0.44 0.016,0.035 0.035,0.084 0.053,0.123 0.355,0.024 0.566,0.066 0.645,0.061 l 0.12,-0.02 h 10e-4 c 0.547,-0.182 1.192,-0.435 1.98,-0.497 H 6.194 c 0.302,-0.021 0.634,-0.039 0.976,-0.039 0.439,0 0.895,0.029 1.349,0.123 H 8.52 8.534 c 0.014,0 0.051,-0.002 0.085,-0.004 C 8.773,9.732 9.012,9.202 9.096,8.789 L 9.097,8.786 C 9.197,8.354 9.245,7.839 9.326,7.272 V 7.271 C 9.475,6.256 9.667,5.236 9.931,4.225 L 9.932,4.224 c -0.001,0 -0.001,0 -0.001,10e-4 0.314,-1.202 0.673,-2.332 0.892,-3.443 0.115,-0.579 0.197,-1.161 0.265,-1.765 v -0.003 c 0.061,-0.502 0.19,-0.879 0.285,-1.209 l -0.064,0.013 c -0.074,0.022 -0.191,0.066 -0.352,0.119 l -0.003,0.001 c -0.521,0.168 -1.041,0.245 -1.568,0.254 H 9.385 L 9.28,-1.807 C 8.225,-1.817 7.354,-2.053 6.66,-2.043 L 6.539,-2.041 H 6.538 C 6.312,-2.036 6.024,-1.946 5.636,-1.792 5.25,-1.646 4.772,-1.436 4.157,-1.371 H 4.156 C 3.411,-1.302 2.792,-1.362 2.307,-1.305 H 2.306 C 1.851,-1.258 1.329,-1.171 0.731,-1.169 L 0.547,-1.173 C 0.083,-1.195 -0.29,-1.29 -0.586,-1.36 -0.382,-0.884 -0.193,-0.42 0,0"
               style="fill:#110f0d;fill-opacity:1;fill-rule:nonzero;stroke:none"
               id="path1551" />
          </g>
        </g>
        <g
           id="g1553"
           transform="matrix(0.1531793,0,0,-0.1519643,161.59476,421.35873)">
          <g
             id="g1555"
             transform="translate(-40.312,-1.2265)">
            <path
               d="M 0,0 0.005,0.003 C 0.004,0.002 0.004,0.002 0.003,0.001 Z"
               style="fill:#110f0d;fill-opacity:1;fill-rule:nonzero;stroke:none"
               id="path1557" />
          </g>
        </g>
        <g
           id="g1559"
           transform="matrix(0.1531793,0,0,-0.1519643,161.59476,421.35873)">
          <g
             id="g1561"
             transform="translate(19.374,30.9146)">
            <path
               d="M 0,0 C 0.003,0 0.005,-0.001 0.008,-0.001 H 0 Z"
               style="fill:#110f0d;fill-opacity:1;fill-rule:nonzero;stroke:none"
               id="path1563" />
          </g>
        </g>
        <g
           id="g1565"
           transform="matrix(0.1531793,0,0,-0.1519643,161.59476,421.35873)">
          <g
             id="g1567"
             transform="translate(14.4014,36.899)">
            <path
               d="M 0,0 H 0.001 Z"
               style="fill:#110f0d;fill-opacity:1;fill-rule:nonzero;stroke:none"
               id="path1569" />
          </g>
        </g>
        <g
           id="g1571"
           transform="matrix(0.1531793,0,0,-0.1519643,161.59476,421.35873)">
          <g
             id="g1573"
             transform="translate(-47.333,1.7613)">
            <path
               d="M 0,0 C 0,-0.001 0.001,-0.002 0.001,-0.004 Z"
               style="fill:#110f0d;fill-opacity:1;fill-rule:nonzero;stroke:none"
               id="path1575" />
          </g>
        </g>
        <g
           id="g1577"
           transform="matrix(0.1531793,0,0,-0.1519643,161.59476,421.35873)">
          <g
             id="g1579"
             transform="translate(-5.0127,15.6705)">
            <path
               d="M 0,0 0.006,-0.001 H 0.003 C 0.001,0 0.001,0 0,0"
               style="fill:#110f0d;fill-opacity:1;fill-rule:nonzero;stroke:none"
               id="path1581" />
          </g>
        </g>
        <g
           id="g1583"
           transform="matrix(0.1531793,0,0,-0.1519643,161.59476,421.35873)">
          <g
             id="g1585"
             transform="translate(-44.8838,-2.3471)">
            <path
               d="M 0,0 H 0.005 0.002 Z"
               style="fill:#110f0d;fill-opacity:1;fill-rule:nonzero;stroke:none"
               id="path1587" />
          </g>
        </g>
        <g
           id="g1589"
           transform="matrix(0.1531793,0,0,-0.1519643,161.59476,421.35873)">
          <g
             id="g1591"
             transform="translate(12.0039,-26.9721)">
            <path
               d="M 0,0 V -0.001 Z"
               style="fill:#110f0d;fill-opacity:1;fill-rule:nonzero;stroke:none"
               id="path1593" />
          </g>
        </g>
        <g
           id="g1595"
           transform="matrix(0.1531793,0,0,-0.1519643,161.59476,421.35873)">
          <g
             id="g1597"
             transform="translate(-1.8486,-10.1908)">
            <path
               d="M 0,0 V 0.001 L -0.002,-0.005 C -0.001,-0.003 -0.001,-0.001 0,0"
               style="fill:#110f0d;fill-opacity:1;fill-rule:nonzero;stroke:none"
               id="path1599" />
          </g>
        </g>
        <g
           id="g1601"
           transform="matrix(0.1531793,0,0,-0.1519643,161.59476,421.35873)">
          <g
             id="g1603"
             transform="translate(39.583,-10.8285)">
            <path
               d="M 0,0 C 0.984,-0.009 1.75,0.141 2.184,1.125 3.006,2.995 2.407,5.471 0.461,6.402 -0.671,6.944 -2.559,6.226 -3.588,5.695 -4.503,5.223 -4.908,4.818 -5.149,3.823 -5.271,3.323 -5.408,2.798 -5.037,2.358 -4.672,1.925 -3.98,1.53 -3.527,1.213 -2.596,0.561 -1.722,0.505 -0.735,0.437 -1.015,-0.042 -0.407,0.004 0,0 m 11.067,14.698 c -0.004,0.037 -0.009,0.156 -0.032,0.319 -0.028,0.163 -0.059,0.392 -0.25,0.682 -0.124,0.19 -0.356,0.391 -0.625,0.481 L 10.161,16.179 10.16,16.18 C 9.983,16.24 9.84,16.25 9.722,16.251 9.376,16.243 9.173,16.167 8.982,16.112 8.804,16.055 8.645,16.003 8.637,16.003 8.046,15.906 7.503,15.781 7.001,15.701 6.314,15.591 5.552,15.534 4.702,15.274 H 4.704 4.702 L 4.699,15.273 C 3.59,14.92 2.7,14.434 1.858,14.225 1.008,14.001 0.028,13.899 -1.036,13.541 L -1.038,13.54 c -0.684,-0.239 -1.234,-0.454 -1.731,-0.502 h 0.001 C -3.157,12.993 -3.66,13.023 -4.266,12.966 h -0.001 0.001 C -4.826,12.899 -5.192,12.79 -5.413,12.8 l -0.065,0.002 h -0.001 c -0.332,0.021 -0.687,0.098 -1.086,0.205 h -0.003 c -0.602,0.156 -1.159,0.17 -1.654,0.171 -0.104,0 -0.208,-0.001 -0.307,-0.002 h -0.114 c -0.596,0 -1.234,0.028 -1.899,0.029 -0.525,-10e-4 -1.069,-0.018 -1.623,-0.093 h -0.002 c -1.299,-0.178 -2.745,-0.189 -4.256,-0.6 l 0.005,10e-4 -0.004,-10e-4 c -0.5,-0.138 -1.026,-0.239 -1.57,-0.324 -0.579,-0.093 -1.282,-0.087 -2.081,-0.219 -0.729,-0.126 -1.364,-0.326 -1.935,-0.439 -0.393,-0.084 -0.917,-0.094 -1.545,-0.22 h 0.001 -0.001 c -0.593,-0.124 -1.134,-0.267 -1.634,-0.349 -0.238,-0.042 -0.595,-0.046 -1.043,-0.133 l -0.534,-0.107 -0.196,-0.508 c -0.049,-0.127 -0.08,-0.276 -0.08,-0.427 -0.001,-0.241 0.08,-0.461 0.171,-0.608 0.091,-0.15 0.185,-0.242 0.261,-0.31 0.151,-0.132 0.254,-0.188 0.261,-0.197 v 0.001 c 0.518,-0.391 0.963,-0.633 1.255,-0.897 0.465,-0.408 0.874,-0.941 1.298,-1.538 l -0.001,0.001 c 0.346,-0.485 0.685,-0.925 0.941,-1.345 l 10e-4,-0.002 c 0.181,-0.293 0.355,-0.622 0.548,-0.973 l 0.001,-0.001 c 0.05,-0.087 0.113,-0.236 0.197,-0.431 0.086,-0.194 0.195,-0.437 0.386,-0.694 0,0.001 -0.001,0.002 -0.001,0.002 l 0.002,-0.002 h -0.001 c 0.233,-0.307 0.519,-0.644 0.864,-0.931 h -0.001 l 0.001,-10e-4 v 10e-4 c 0.22,-0.183 0.468,-0.285 0.68,-0.335 0.215,-0.051 0.401,-0.06 0.557,-0.06 0.247,0.001 0.436,0.021 0.524,0.02 l -0.005,0.742 c 0.914,-0.49 1.751,-0.667 2.34,-0.985 0.598,-0.309 1.212,-0.761 1.926,-1.202 h -10e-4 l -0.012,0.008 0.013,-0.008 c 1.134,-0.693 2.263,-1.174 3.221,-1.774 0.779,-0.485 1.559,-0.938 2.43,-1.333 0.987,-0.448 1.818,-0.952 2.433,-1.671 0.532,-0.619 1.059,-1.22 1.777,-1.793 v -10e-4 c 0.495,-0.396 0.649,-0.546 0.818,-0.724 0.172,-0.183 0.394,-0.447 0.874,-0.922 0.089,-0.086 0.211,-0.248 0.369,-0.458 0.161,-0.208 0.36,-0.469 0.672,-0.712 l 0.004,-0.003 10e-4,-0.001 c 0.192,-0.138 0.39,-0.267 0.73,-0.383 0.116,-0.035 0.25,-0.072 0.449,-0.074 l 0.201,0.016 h -0.001 0.001 c 0.108,0.02 0.249,0.049 0.427,0.151 0.178,0.098 0.367,0.307 0.446,0.496 0.055,0.125 0.076,0.229 0.087,0.304 0.014,0.1 0.014,0.155 0.015,0.19 l 0.003,0.056 v 0.002 c 0.062,0.59 0.167,1.205 0.293,1.804 l 0.001,0.002 c 0.135,0.66 0.438,1.368 0.718,2.188 0.017,0.053 0.084,0.219 0.156,0.407 0.072,0.192 0.154,0.415 0.217,0.662 0.041,0.167 0.077,0.343 0.078,0.568 L 1.577,-2.799 1.485,-1.902 0.585,-1.907 0.584,-1.908 H 0.583 l -0.059,0.035 -0.001,10e-4 c -0.16,0.096 -0.237,0.153 -0.444,0.231 -0.061,0.02 -0.15,0.043 -0.276,0.053 -0.385,0.213 -0.787,0.332 -1.151,0.382 -0.339,0.051 -0.595,0.149 -1.012,0.345 l -0.003,0.002 c -0.382,0.176 -0.805,0.401 -1.31,0.588 -0.406,0.148 -0.745,0.24 -0.994,0.35 L -4.669,0.08 c -0.265,0.111 -0.583,0.286 -0.988,0.444 h 0.001 l -0.002,0.001 c 0,0 0.001,0 0.001,-0.001 -0.517,0.195 -0.923,0.242 -1.185,0.33 -0.467,0.144 -0.966,0.375 -1.429,0.636 -0.296,0.156 -0.652,0.502 -1.214,0.851 v 10e-4 c -0.294,0.176 -0.555,0.29 -0.793,0.397 l -0.128,0.081 c -0.047,0.038 -0.127,0.119 -0.254,0.244 -0.709,0.695 -1.555,1.424 -2.472,1.967 l -10e-4,0.001 c -0.741,0.436 -1.485,0.932 -2.328,1.387 l 0.01,-0.005 -0.01,0.005 c -0.577,0.312 -1.107,0.709 -1.67,1.17 l 0.002,-0.001 c -0.073,0.06 -0.132,0.1 -0.199,0.151 0.103,0.014 0.215,0.034 0.315,0.046 0.564,0.069 1.152,0.085 1.765,0.085 0.426,0 0.863,-0.008 1.312,-0.008 l 0.125,0.001 h -0.006 0.008 -0.001 0.092 c 1.383,0 2.802,-0.099 4.279,-0.1 l 0.248,0.001 h -10e-4 c 0.898,0.011 1.64,0.207 2.281,0.272 0.817,0.089 1.631,0.18 2.39,0.201 0.177,0.006 0.358,0.008 0.541,0.008 0.695,0 1.422,-0.031 2.175,-0.031 0.525,0 1.062,0.015 1.61,0.071 l -0.003,-10e-4 0.003,10e-4 h 0.001 -0.001 C 0.723,8.377 1.62,8.599 2.444,8.839 2.954,8.989 3.38,9.188 3.755,9.346 4.13,9.506 4.451,9.625 4.759,9.677 H 4.761 C 4.886,9.699 5.052,9.707 5.248,9.713 5.247,9.599 5.241,9.48 5.238,9.346 V 9.347 C 5.218,8.255 5.108,7.16 4.962,6.045 V 6.044 C 4.8,4.784 4.474,3.475 4.306,2.055 V 2.056 C 4.092,0.233 3.788,-1.467 3.24,-3.169 2.78,-4.599 2.39,-6.061 2.025,-7.491 L 2.024,-7.494 C 1.899,-8.021 1.605,-8.645 1.469,-9.485 1.437,-9.691 1.4,-9.917 1.372,-10.154 l -0.006,-0.051 -0.001,-0.05 -0.004,-0.207 c -0.028,-0.08 -0.103,-0.224 -0.254,-0.444 -0.169,-0.262 -0.423,-0.607 -0.557,-1.131 l -0.495,-2.019 1.841,0.867 0.044,10e-4 c 0.106,0.004 0.315,-0.029 0.617,-0.032 l 0.107,0.002 H 2.663 2.668 2.664 c 0.399,0.018 0.711,0.114 0.945,0.179 0.236,0.069 0.396,0.105 0.492,0.108 0.241,0.013 0.455,0.034 0.612,0.034 0.06,0 0.105,-0.004 0.139,-0.008 l 0.032,-0.023 c 0.086,-0.062 0.209,-0.169 0.424,-0.283 0.144,-0.073 0.347,-0.162 0.642,-0.165 0.305,-0.01 0.671,0.147 0.874,0.362 l 0.002,0.002 c 0.339,0.348 0.425,0.697 0.486,0.961 0.054,0.267 0.066,0.492 0.078,0.615 l -10e-4,-0.002 c 0.051,0.588 0.222,1.239 0.403,1.926 v 0.001 c 0.42,1.609 0.958,3.229 1.399,4.923 0.217,0.83 0.422,1.674 0.594,2.531 0.229,1.139 0.333,2.237 0.504,3.272 v 10e-4 c 0.253,1.54 0.505,3.081 0.644,4.687 v 0.003 c 0.04,0.481 0.068,0.967 0.068,1.469 L 11,7.502 v 0.067 c -0.002,0.653 0.091,1.379 0.098,2.196 v 10e-4 c 10e-4,0.206 0.002,0.412 0.002,0.618 0,0.796 -0.007,1.588 -0.007,2.373 v 0.232 c 10e-4,0.275 0.012,0.579 0.013,0.91 0,0.252 -0.007,0.519 -0.039,0.799 m -29.493,32.151 c -0.136,0.155 -0.254,0.227 -0.355,0.287 l -0.004,0.003 -0.002,10e-4 c -0.234,0.128 -0.418,0.173 -0.567,0.214 -0.147,0.037 -0.261,0.063 -0.3,0.076 -0.262,0.081 -0.544,0.172 -0.849,0.252 l -0.004,10e-4 c -0.453,0.115 -0.882,0.135 -1.267,0.136 -0.375,-0.001 -0.714,-0.02 -1.003,-0.019 -0.356,-10e-4 -0.768,0.023 -1.213,0.023 -0.322,0 -0.666,-0.02 -1.021,-0.074 0.112,0.417 0.214,0.815 0.329,1.182 V 48.93 c 0.204,0.652 0.409,1.307 0.575,2.014 v 0.002 c 0.14,0.606 0.337,1.234 0.525,1.904 0.298,1.074 0.457,2.115 0.69,3.066 0.228,0.955 0.699,1.921 1.074,3.072 0.012,0.039 0.046,0.132 0.081,0.255 0.033,0.125 0.073,0.286 0.074,0.505 0,0.14 -0.019,0.309 -0.085,0.489 -0.065,0.181 -0.186,0.367 -0.34,0.509 l 0.001,-0.001 -0.002,0.002 c 0,0 0,-10e-4 10e-4,-10e-4 -0.178,0.167 -0.398,0.271 -0.578,0.316 -0.182,0.046 -0.324,0.049 -0.425,0.05 -0.105,-0.001 -0.17,-0.005 -0.184,-0.005 h -0.002 -0.002 c -0.319,0.003 -0.452,0.014 -0.494,0.034 l -0.002,0.001 c -0.013,0.004 -0.018,0.006 -0.153,0.075 -0.128,0.067 -0.395,0.164 -0.654,0.173 h -0.002 c -0.168,0.009 -0.337,0.013 -0.506,0.013 -0.695,0 -1.397,-0.08 -2.087,-0.261 0.001,0 0.002,10e-4 0.003,10e-4 l -0.003,-10e-4 c -0.17,-0.045 -0.316,-0.092 -0.442,-0.123 -0.076,-0.02 -0.136,-0.031 -0.183,-0.037 l -0.174,0.122 -0.166,0.046 c -0.103,0.029 -0.219,0.047 -0.34,0.047 -0.189,10e-4 -0.384,-0.047 -0.543,-0.127 -0.162,-0.079 -0.285,-0.183 -0.376,-0.283 -0.185,-0.203 -0.267,-0.388 -0.332,-0.553 -0.121,-0.329 -0.161,-0.617 -0.191,-0.85 -0.018,-0.152 -0.03,-0.282 -0.035,-0.33 v -0.003 l -0.001,-0.002 v -0.002 c -0.116,-0.818 -0.059,-1.468 -0.15,-1.965 v -10e-4 c -0.108,-0.662 -0.325,-1.396 -0.452,-2.23 v -0.002 c -0.086,-0.596 -0.169,-1.175 -0.286,-1.713 v -0.003 c -0.211,-1.012 -0.299,-1.936 -0.553,-2.71 -0.307,-0.951 -0.391,-1.859 -0.392,-2.773 -0.091,-0.019 -0.187,-0.047 -0.257,-0.081 -0.112,-0.053 -0.181,-0.101 -0.252,-0.149 l -0.106,-0.074 c -0.046,0.003 -0.155,0.018 -0.307,0.059 -0.172,0.044 -0.381,0.111 -0.634,0.162 h 10e-4 -10e-4 c -0.165,0.031 -0.249,0.047 -0.272,0.054 l -0.048,0.034 c -0.084,0.059 -0.252,0.191 -0.534,0.276 l 0.009,-0.003 -0.009,0.003 h -10e-4 c -0.22,0.063 -0.404,0.072 -0.552,0.072 -0.223,-0.002 -0.378,-0.02 -0.431,-0.018 h -0.002 -0.003 c -0.104,-10e-4 -0.209,-0.002 -0.315,-0.002 -0.181,0 -0.365,0.001 -0.552,0.003 h -0.002 -0.024 c -0.629,-0.007 -1.127,-0.116 -1.469,-0.109 -0.092,0 -0.172,0.006 -0.24,0.017 h -0.002 c -0.1,0.015 -0.216,0.046 -0.388,0.087 -0.169,0.04 -0.399,0.088 -0.675,0.088 -0.1,0 -0.206,-0.006 -0.313,-0.02 h 0.002 -0.002 c -0.272,-0.036 -0.479,-0.065 -0.665,-0.07 h -0.003 -0.08 c -0.182,-10e-4 -0.389,0.017 -0.617,0.04 -0.014,0.646 -0.091,1.205 -0.088,1.669 l 10e-4,0.045 v -10e-4 c 0.002,0.252 0.003,0.502 0.003,0.751 v 0.684 c 0,0.173 0,0.345 0.001,0.516 v 0.048 c -0.004,0.692 -0.098,1.265 -0.095,1.741 l 0.001,0.058 v 10e-4 c 0.002,0.127 0.003,0.256 0.003,0.388 -0.001,0.716 -0.029,1.483 -0.138,2.222 -0.169,1.088 -0.462,1.993 -0.502,2.816 -0.01,0.192 -0.013,0.391 -0.013,0.599 l 10e-4,0.25 0.026,0.727 -0.119,0.232 c -0.11,0.236 -0.379,0.468 -0.609,0.546 -0.23,0.084 -0.383,0.077 -0.462,0.08 l -0.046,-10e-4 c -0.545,0.064 -1.203,0.264 -1.84,0.474 l -0.002,0.001 c -0.111,0.033 -0.336,0.15 -0.618,0.289 -0.285,0.135 -0.64,0.308 -1.129,0.348 -0.058,0.004 -0.123,0.012 -0.236,0.012 -0.112,-0.003 -0.301,-0.001 -0.557,-0.124 -0.261,-0.12 -0.473,-0.395 -0.542,-0.586 -0.053,-0.131 -0.073,-0.235 -0.088,-0.325 v 10e-4 l -10e-4,-0.003 c 0,0 10e-4,0.001 10e-4,0.002 -0.022,-0.138 -0.026,-0.256 -0.027,-0.359 0.002,-0.213 0.017,-0.368 0.016,-0.434 0,-0.208 -0.01,-0.445 -0.01,-0.707 0,-0.347 0.017,-0.748 0.134,-1.181 0.094,-0.328 0.136,-0.781 0.28,-1.332 v 0.002 c 0.068,-0.24 0.087,-0.596 0.15,-1.061 0.111,-0.711 0.318,-1.229 0.365,-1.629 0.086,-0.593 0.052,-1.318 0.118,-2.134 l 10e-4,-0.002 c 0.043,-0.483 0.117,-0.921 0.179,-1.342 0.086,-0.572 0.077,-1.208 0.1,-1.93 v 0.001 c 0.027,-0.824 0.06,-1.638 0.075,-2.443 v -10e-4 c 0.019,-0.886 0.118,-1.719 0.185,-2.517 v 0.001 c 0.082,-0.966 0.113,-1.965 0.183,-2.995 0.064,-0.932 0.068,-1.874 0.104,-2.869 v -10e-4 c 0.043,-1.171 0.183,-2.283 0.242,-3.349 v -0.001 c 0.086,-1.507 0.214,-3.009 0.396,-4.514 0.168,-1.39 0.257,-2.765 0.308,-4.147 -0.29,0.053 -0.469,0.066 -0.535,0.094 l -0.004,0.002 c -0.288,0.087 -0.633,0.223 -1.078,0.312 -0.399,0.078 -0.805,0.161 -1.222,0.238 h 10e-4 c -0.027,0.004 -0.148,0.032 -0.289,0.059 -0.145,0.027 -0.312,0.058 -0.533,0.06 -0.079,0 -0.167,-0.005 -0.273,-0.023 l -0.907,-0.156 0.088,-0.917 c 0.056,-0.485 0.16,-0.788 0.17,-0.975 0.042,-0.471 0.056,-0.974 0.086,-1.505 0.031,-0.528 0.089,-1.009 0.107,-1.441 l -0.001,-0.012 -0.006,-0.082 c -0.006,-0.07 -0.015,-0.165 -0.015,-0.288 0.004,-0.147 0,-0.34 0.128,-0.63 l 0.001,-0.001 10e-4,-0.003 c 0.084,-0.182 0.24,-0.385 0.457,-0.519 0.215,-0.136 0.458,-0.183 0.639,-0.181 0.389,0.012 0.58,0.127 0.735,0.197 0.114,0.059 0.191,0.103 0.235,0.128 0.03,0.003 0.071,0.006 0.131,0.005 0.181,0.003 0.451,-0.032 0.787,-0.035 h 0.009 0.085 c 0.405,-10e-4 0.62,-0.014 0.919,-0.098 0.466,-0.136 0.923,-0.183 1.355,-0.183 0.216,0 0.426,0.012 0.633,0.028 h -10e-4 10e-4 c 0.353,0.032 0.604,0.074 0.775,0.071 l 0.093,-0.003 -0.012,0.001 0.012,-0.001 c 0.207,-0.013 0.511,-0.08 0.925,-0.096 h -0.002 c 0.145,-0.003 0.374,-0.024 0.642,-0.025 0.188,10e-4 0.397,0.009 0.638,0.064 l 0.604,0.14 0.139,0.605 c 0.07,0.343 0.063,0.531 0.079,0.564 v 0.002 l 10e-4,0.002 c 0.092,0.449 0.131,0.889 0.141,1.321 v 10e-4 l 0.002,0.185 c 0.002,0.393 -0.036,0.779 -0.136,1.179 l 0.004,-0.013 -0.003,0.013 h -10e-4 c 0,0 10e-4,0 0,0 -0.124,0.503 -0.154,1.124 -0.153,1.789 0,0.328 0.006,0.667 0.006,1.012 0,1.259 -0.003,2.517 -0.003,3.772 0,0.712 0.001,1.424 0.004,2.135 v 0.001 0.074 c -0.001,1.417 -0.149,2.761 -0.184,4.052 -0.018,0.635 -0.115,1.181 -0.203,1.709 v 0.001 c -0.105,0.594 -0.088,1.326 -0.216,2.166 -0.065,0.408 -0.099,0.808 -0.12,1.209 0.059,-0.029 0.126,-0.061 0.206,-0.096 l 0.003,-10e-4 10e-4,-10e-4 c 0.263,-0.099 0.411,-0.119 0.428,-0.129 0.066,-0.033 0.127,-0.071 0.271,-0.136 0.148,-0.069 0.353,-0.124 0.535,-0.145 h 0.001 c 0.239,-0.029 0.526,-0.117 0.875,-0.232 0.347,-0.112 0.757,-0.251 1.252,-0.308 h -0.003 0.004 c 0.432,-0.048 0.861,-0.061 1.28,-0.061 0.518,0 1.022,0.021 1.49,0.035 h 10e-4 -10e-4 c 0.133,0.006 0.25,0.02 0.37,0.032 -0.23,-0.758 -0.4,-1.512 -0.561,-2.214 -0.102,-0.447 -0.104,-0.839 -0.104,-1.161 v -0.146 l -0.002,-0.245 V 37.73 c -0.001,-0.289 -0.103,-0.676 -0.184,-1.211 v 0.002 -0.005 0.003 c -0.111,-0.775 -0.14,-1.509 -0.207,-2.182 -0.06,-0.622 -0.178,-1.293 -0.242,-2.024 -0.068,-0.802 -0.086,-1.559 -0.162,-2.266 -0.072,-0.694 -0.219,-1.47 -0.235,-2.329 v 0.001 c -0.003,-0.133 -0.004,-0.264 -0.004,-0.393 0,-0.269 0.004,-0.53 0.004,-0.784 0,-0.224 -0.003,-0.441 -0.012,-0.652 -0.042,-1.024 -0.159,-2.101 -0.17,-3.237 v -10e-4 c -0.004,-0.662 -0.009,-1.27 -0.074,-1.859 -0.092,-0.829 -0.285,-1.692 -0.443,-2.623 -0.086,-0.517 -0.197,-1.048 -0.299,-1.606 l 10e-4,0.003 -0.008,-0.033 -0.024,-0.094 c -0.02,-0.077 -0.046,-0.173 -0.073,-0.282 -0.052,-0.221 -0.113,-0.465 -0.117,-0.79 0.003,-0.139 0.008,-0.302 0.092,-0.526 l 0.237,-0.616 0.66,-0.019 h 0.032 c 0.37,0.004 0.616,0.119 0.775,0.187 0.144,0.067 0.225,0.103 0.246,0.109 l 0.044,0.002 c 0.138,10e-4 0.323,-0.026 0.511,-0.074 0.316,-0.079 0.593,-0.158 0.791,-0.247 l 0.015,-0.01 0.142,-0.086 c 0.135,-0.067 0.319,-0.209 0.75,-0.226 l 0.191,0.016 0.663,0.107 0.147,0.657 c 0.066,0.303 0.064,0.55 0.068,0.734 10e-4,0.186 0.007,0.307 0.02,0.365 V 15.74 c 0.089,0.478 0.123,0.852 0.203,1.119 v -0.001 c 0.464,1.6 0.93,3.218 1.303,4.881 v 10e-4 c 0.14,0.638 0.19,1.225 0.276,1.729 v 0.002 c 0.065,0.386 0.18,0.817 0.277,1.309 v -0.001 0.002 -10e-4 c 0.127,0.643 0.265,1.321 0.356,2.019 l -10e-4,-0.004 c 10e-4,0.002 10e-4,0.002 10e-4,0.004 0.035,0.271 0.05,0.398 0.093,0.538 0.174,0.592 0.534,1.281 0.653,2.23 v 0.002 c 0.028,0.339 0.24,0.808 0.408,1.491 v -10e-4 10e-4 c 0.227,0.987 0.365,1.852 0.678,2.605 l 0.001,10e-4 c 0.027,0.071 0.074,0.165 0.13,0.323 0.054,0.157 0.102,0.379 0.1,0.603 v 0.033 -0.006 l -0.001,0.159 c 0,0.121 0.002,0.245 0.002,0.374 v 0.003 0.003 c 0.002,0.265 0.005,0.335 0.041,0.496 v 0.003 c 0.129,0.589 0.102,1.035 0.152,1.31 0.018,0.131 0.071,0.31 0.142,0.536 0.071,0.226 0.159,0.498 0.21,0.83 v 0.001 -0.001 c 0.098,0.654 0.173,1.256 0.307,1.811 l -0.001,-0.002 c 0.114,0.475 0.128,0.906 0.132,1.275 0.002,0.369 -0.005,0.681 0.023,0.955 l 0.014,0.056 0.004,0.007 0.035,0.012 c 0.1,0.03 0.258,0.049 0.383,0.048 l 0.157,-0.01 h -0.003 c 0.46,-0.083 0.896,-0.138 1.345,-0.181 h -0.003 c 0.05,-0.006 0.069,-0.009 0.285,-0.106 h 0.002 c 0.308,-0.135 0.59,-0.165 0.795,-0.176 0.208,-0.008 0.351,-0.005 0.429,-0.013 0.377,-0.017 0.934,-0.232 1.715,-0.265 v -10e-4 h 0.004 l 0.038,-0.004 0.141,-0.011 c 0.113,-0.009 0.254,-0.02 0.409,-0.02 0.074,0 0.152,0.002 0.242,0.012 0.093,0.011 0.196,0.021 0.364,0.085 0.109,0.047 0.271,0.115 0.447,0.326 l 0.004,0.005 0.002,0.002 c 0.228,0.301 0.245,0.575 0.248,0.744 -0.002,0.218 -0.039,0.35 -0.066,0.458 -0.022,0.084 -0.04,0.139 -0.044,0.16 l -0.008,0.135 0.001,0.139 v 0.004 0.047 c -0.001,0.401 -0.037,0.765 -0.035,1.066 -0.002,0.258 0.029,0.446 0.067,0.549 0.022,0.03 0.055,0.074 0.111,0.174 0.053,0.1 0.134,0.275 0.136,0.53 0.007,0.271 -0.127,0.557 -0.261,0.705 m -31.835,-60.932 c -0.124,-0.54 -0.277,-1.065 -0.447,-1.587 -0.248,-0.029 -0.494,-0.049 -0.746,-0.049 -0.341,0 -0.693,0.023 -1.067,0.062 -0.158,0.016 -0.315,0.024 -0.47,0.024 -1,10e-4 -1.875,-0.334 -2.65,-0.755 l 10e-4,0.001 c -0.128,-0.071 -0.194,-0.106 -0.202,-0.108 -0.017,-0.004 -0.044,-0.007 -0.15,-0.032 -0.113,-0.025 -0.326,-0.112 -0.465,-0.224 -0.095,-0.073 -0.164,-0.145 -0.223,-0.21 l -10e-4,-0.002 c -0.284,-0.325 -0.497,-0.587 -0.714,-0.781 -0.045,-0.042 -0.151,-0.121 -0.293,-0.249 -0.139,-0.129 -0.325,-0.319 -0.46,-0.61 l -0.564,-1.217 1.33,-0.182 c 0.186,-0.023 0.443,-0.124 0.786,-0.282 0.343,-0.151 0.771,-0.358 1.331,-0.439 h 0.002 c 0.633,-0.082 1.152,-0.039 1.537,-0.077 0.361,-0.031 0.744,-0.085 1.151,-0.137 0.053,-0.005 0.168,-0.029 0.317,-0.057 0.018,-0.003 0.043,-0.006 0.063,-0.01 -0.047,-0.275 -0.15,-0.624 -0.214,-1.105 v 0.001 c -0.062,-0.503 -0.114,-0.973 -0.195,-1.416 -0.176,-0.959 -0.455,-1.894 -0.79,-2.856 -0.226,-0.653 -0.531,-1.352 -0.752,-2.156 -0.178,-0.652 -0.318,-1.304 -0.438,-1.948 -0.15,-0.798 -0.287,-1.581 -0.485,-2.286 l 0.006,0.023 -0.006,-0.023 c -0.259,-0.921 -0.636,-1.862 -1.022,-2.816 v -0.001 c -0.119,-0.3 -0.288,-0.642 -0.428,-1.084 l 10e-4,0.003 c -0.035,-0.116 -0.115,-0.273 -0.236,-0.484 -0.119,-0.212 -0.279,-0.475 -0.407,-0.823 l -0.298,-0.816 0.77,-0.403 c 0.297,-0.151 0.528,-0.184 0.701,-0.219 0.17,-0.028 0.29,-0.053 0.301,-0.059 0.479,-0.156 1.063,-0.386 1.798,-0.417 h -10e-4 10e-4 l 0.212,-0.004 c 0.271,10e-4 0.503,0.015 0.696,0.014 l 0.146,-0.003 0.124,-0.033 c 0.124,-0.029 0.287,-0.086 0.576,-0.092 0.102,10e-4 0.226,0.01 0.37,0.052 h 10e-4 c 0.13,0.038 0.278,0.104 0.413,0.211 0.135,0.105 0.248,0.249 0.317,0.387 0.137,0.282 0.131,0.484 0.135,0.603 -0.002,0.135 -0.009,0.2 -0.008,0.217 0.042,0.458 0.186,0.949 0.374,1.493 0.527,1.541 0.925,3.063 1.468,4.466 v -10e-4 c 0.544,1.417 0.824,2.802 1.273,4.031 0.326,0.907 0.711,1.885 0.925,2.963 v -0.002 c 0.144,0.728 0.303,1.45 0.52,2.094 0.118,0.355 0.284,0.76 0.418,1.246 0.029,0.011 0.054,0.019 0.087,0.031 0.421,0.163 0.695,0.306 0.863,0.34 l 0.002,0.001 c 0.07,0.017 0.191,0.03 0.338,0.029 0.152,0 0.328,-0.012 0.512,-0.027 h -10e-4 c 0.214,-0.014 0.504,-0.078 0.919,-0.082 0.102,0 0.211,0.005 0.324,0.018 h -0.001 0.002 -10e-4 c 0.399,0.045 0.727,0.118 0.994,0.151 h 10e-4 c 0.224,0.029 0.491,0.045 0.758,0.045 0.271,0 0.543,-0.016 0.772,-0.047 0.805,-0.097 1.457,-0.033 1.936,-0.115 0.229,-0.035 0.464,-0.058 0.708,-0.058 0.336,0 0.689,0.045 1.04,0.149 l 0.001,0.001 c 0.505,0.151 0.769,0.226 1.116,0.226 h 0.042 c 0.396,-0.007 0.789,-0.009 1.181,-0.009 0.313,0 0.622,0.001 0.932,0.002 0,-0.012 -0.002,-0.025 -0.002,-0.037 10e-4,-0.556 0.122,-1.052 0.252,-1.494 0.131,-0.441 0.275,-0.834 0.365,-1.158 0.314,-1.136 0.556,-2.297 0.816,-3.496 0.218,-0.991 0.569,-1.848 0.833,-2.662 0.199,-0.607 0.296,-1.299 0.372,-2.039 v -10e-4 c 0.056,-0.522 0.099,-1.078 0.189,-1.664 v -10e-4 c 0.137,-0.861 0.376,-1.605 0.509,-2.284 l 0.001,-0.003 c 0.082,-0.41 0.158,-0.839 0.247,-1.28 v -0.003 0.003 c 0.097,-0.465 0.209,-0.795 0.225,-1.009 l 0.068,-0.667 0.644,-0.185 c 0.102,-0.03 0.217,-0.049 0.34,-0.049 0.222,-0.003 0.462,0.071 0.639,0.187 0.093,0.06 0.169,0.126 0.232,0.194 0.177,0.14 0.361,0.266 0.56,0.368 l 0.004,0.002 0.003,10e-4 c 0.316,0.17 0.759,0.346 0.967,0.368 0.069,0.01 0.153,0.015 0.252,0.015 0.204,10e-4 0.471,-0.024 0.795,-0.025 l 0.086,0.001 c 0.121,0.004 0.282,0.004 0.511,0.072 0.225,0.063 0.517,0.25 0.679,0.494 0.111,0.158 0.174,0.318 0.214,0.464 v 10e-4 -10e-4 c 0.066,0.236 0.084,0.458 0.084,0.662 -0.001,0.349 -0.053,0.658 -0.104,0.928 -0.052,0.269 -0.104,0.504 -0.123,0.647 v 0.002 c -0.128,0.891 -0.247,1.824 -0.478,2.779 v 0.001 c -0.262,1.067 -0.653,1.984 -0.879,2.849 -0.138,0.524 -0.195,1.071 -0.213,1.676 v -0.001 c -0.063,1.904 -0.713,3.58 -1.382,5.138 -0.058,0.128 -0.112,0.293 -0.171,0.471 0.24,-0.056 0.518,-0.126 0.883,-0.171 h -0.005 0.005 0.001 V -22.5 c 0.126,-0.014 0.247,-0.02 0.363,-0.02 0.515,0.004 0.935,0.099 1.234,0.13 0.412,0.048 0.836,0.06 1.288,0.06 0.131,0 0.265,-0.001 0.4,-0.002 h 0.02 c 0.246,0 0.444,0.037 0.577,0.061 0.135,0.024 0.207,0.035 0.248,0.036 l 0.724,0.022 0.198,0.697 c 0.062,0.218 0.079,0.416 0.079,0.595 -0.003,0.433 -0.092,0.781 -0.127,0.994 -0.087,0.478 -0.183,0.968 -0.296,1.455 l -0.006,0.025 -0.007,0.024 c -0.061,0.208 -0.104,0.422 -0.134,0.641 -0.008,0.218 -0.016,0.436 -0.028,0.652 l -0.003,0.047 -0.007,0.046 c -0.011,0.069 -0.025,0.187 -0.069,0.346 -0.048,0.155 -0.121,0.372 -0.334,0.602 -0.139,0.151 -0.354,0.288 -0.582,0.347 l -0.141,0.038 -0.145,-0.004 c -0.205,-0.006 -0.412,-0.021 -0.619,-0.045 l -0.014,-0.002 -0.014,-0.002 c -0.257,-0.038 -0.513,-0.06 -0.769,-0.066 h -0.12 c -0.21,0 -0.433,0.004 -0.669,0.005 -0.222,0 -0.456,-0.005 -0.701,-0.023 h -0.001 c -0.444,-0.035 -0.981,-0.021 -1.578,-0.083 h -0.003 c -0.135,-0.016 -0.234,-0.031 -0.328,-0.044 0.032,0.186 0.048,0.36 0.048,0.513 -0.002,0.349 -0.036,0.637 -0.034,0.792 v 0.003 l 0.001,0.083 c -0.001,0.82 -0.061,1.675 -0.263,2.532 l 0.001,-0.002 c -0.35,1.494 -0.622,3.041 -0.972,4.605 v 0.001 c -0.175,0.773 -0.419,1.452 -0.578,2.083 l -0.001,0.002 c -0.138,0.541 -0.285,1.081 -0.449,1.625 l -0.001,10e-4 c -0.208,0.663 -0.241,1.453 -0.422,2.395 v 10e-4 c -0.171,0.816 -0.522,1.366 -0.697,1.828 -0.392,0.973 -0.631,2.087 -0.896,3.232 v 10e-4 c -0.205,0.834 -0.217,1.874 -0.575,3.019 V 6.745 6.746 c -0.205,0.623 -0.433,1.104 -0.505,1.48 v 10e-4 c -0.121,0.561 -0.205,1.28 -0.519,2.025 l 0.001,-0.002 -0.013,0.033 -0.042,0.11 c -0.033,0.088 -0.075,0.195 -0.128,0.31 -0.037,0.079 -0.075,0.158 -0.145,0.267 -0.043,0.062 -0.091,0.135 -0.207,0.241 l -0.003,0.003 -0.002,0.002 c -0.075,0.065 -0.172,0.14 -0.313,0.207 -0.137,0.067 -0.327,0.11 -0.484,0.108 -0.187,-0.002 -0.306,-0.04 -0.364,-0.056 L -35.19,11.45 c -0.061,-0.011 -0.15,-0.017 -0.264,-0.017 -0.15,0 -0.343,0.011 -0.57,0.012 h -10e-4 c -0.024,-0.003 -0.187,0.017 -0.407,0.019 -0.128,-0.001 -0.283,-0.005 -0.488,-0.062 l -0.764,-0.214 0.041,-0.791 c 0.012,-0.204 0.054,-0.344 0.084,-0.446 0.032,-0.102 0.055,-0.168 0.061,-0.19 l 0.002,-0.005 0.001,-0.004 V 9.749 c 0.114,-0.481 0.182,-1.037 0.299,-1.645 l 10e-4,-10e-4 c 0.138,-0.68 0.32,-1.244 0.363,-1.705 V 6.397 6.395 c 0.035,-0.333 0.064,-0.698 0.136,-1.103 l 10e-4,-0.002 c 0.137,-0.759 0.319,-1.552 0.574,-2.315 V 2.974 c 0.122,-0.36 0.196,-0.769 0.276,-1.222 -0.082,0.011 -0.147,0.011 -0.206,0.014 -0.196,-0.002 -0.34,-0.023 -0.358,-0.023 l -0.032,10e-4 c -0.767,-0.008 -1.337,-0.169 -1.791,-0.188 h -0.003 l -0.05,-0.001 c -0.167,-0.01 -0.489,0.078 -1.001,0.097 h -10e-4 c -0.203,0.004 -0.426,0.012 -0.665,0.012 -0.206,0 -0.423,-0.006 -0.649,-0.027 h -10e-4 -0.002 c -0.194,-0.021 -0.338,-0.041 -0.456,-0.057 0.076,0.271 0.129,0.56 0.128,0.88 l -10e-4,0.064 10e-4,0.018 0.007,0.093 c 0.006,0.08 0.014,0.183 0.014,0.306 0,0.085 -0.003,0.179 -0.021,0.298 -0.021,0.118 -0.045,0.265 -0.166,0.473 -0.079,0.134 -0.224,0.304 -0.444,0.415 l -1.093,0.552 -0.182,-0.685 c -0.236,-0.033 -0.462,-0.066 -0.667,-0.093 h -0.002 -0.001 l -0.178,-0.008 c -0.103,0 -0.237,0.005 -0.398,0.005 -0.173,0 -0.38,-0.005 -0.622,-0.057 h -0.002 c -0.22,-0.05 -0.412,-0.124 -0.629,-0.241 -0.21,-0.125 -0.449,-0.258 -0.678,-0.622 0,10e-4 0,10e-4 10e-4,10e-4 l -0.002,-0.002 10e-4,0.001 c -0.111,-0.196 -0.137,-0.327 -0.162,-0.439 -0.022,-0.112 -0.032,-0.204 -0.039,-0.287 -0.012,-0.158 -0.015,-0.301 -0.017,-0.305 -0.057,-0.405 -0.1,-0.801 -0.139,-1.195 -0.07,-0.721 -0.199,-1.496 -0.247,-2.332 v 0.001 c -0.029,-0.613 -0.005,-1.096 -0.077,-1.459 -0.158,-0.893 -0.667,-1.854 -1.074,-3.001 L -47.75,-6.04 c -0.176,-0.513 -0.266,-0.966 -0.38,-1.338 -0.18,-0.593 -0.348,-1.162 -0.549,-1.688 -0.147,-0.403 -0.427,-0.885 -0.624,-1.54 -0.326,-1.122 -0.683,-2.282 -0.958,-3.477 m -0.43,20.954 c -0.117,0.235 -0.299,0.434 -0.493,0.573 l 10e-4,-0.001 -10e-4,0.001 c -0.214,0.151 -0.553,0.421 -1.096,0.523 h 10e-4 -0.003 c -0.269,0.046 -0.48,0.049 -0.626,0.06 -0.148,0.009 -0.225,0.023 -0.27,0.038 l -0.002,0.001 c -0.391,0.129 -0.716,0.195 -1.017,0.273 V 8.34 h -0.002 l -0.028,0.019 c -0.045,0.031 -0.155,0.133 -0.34,0.266 0,0 10e-4,0 10e-4,-10e-4 l -0.004,0.003 c 10e-4,-0.001 0.002,-0.001 0.003,-0.002 -0.04,0.028 -0.071,0.044 -0.104,0.063 0.021,0.058 0.042,0.112 0.059,0.153 0,0.014 0.117,0.196 0.265,0.425 0.136,0.238 0.355,0.541 0.379,1.091 l 0.001,0.032 c -0.003,0.372 -0.089,0.671 -0.176,0.931 -0.088,0.258 -0.185,0.48 -0.251,0.643 v 0.001 l -0.001,0.002 c -0.13,0.321 -0.308,0.635 -0.549,0.909 -0.24,0.275 -0.536,0.503 -0.865,0.682 0,-0.001 10e-4,-0.001 10e-4,-0.001 l 0.014,-0.008 -0.015,0.009 c -0.434,0.237 -0.697,0.397 -0.939,0.64 l 0.002,-0.002 c -0.073,0.072 -0.173,0.18 -0.339,0.302 -0.162,0.114 -0.422,0.278 -0.822,0.283 -0.209,0.002 -0.434,-0.058 -0.613,-0.158 -0.18,-0.1 -0.317,-0.227 -0.424,-0.356 l -0.002,-0.003 -0.001,-10e-4 c -0.294,-0.378 -0.327,-0.696 -0.367,-0.927 -0.03,-0.231 -0.037,-0.418 -0.044,-0.453 l -0.001,-0.003 c -0.08,-0.579 -0.165,-1.152 -0.256,-1.729 v -0.001 c -0.08,-0.507 -0.141,-0.984 -0.208,-1.445 -0.002,10e-4 -0.004,10e-4 -0.006,0.002 l 0.006,-10e-4 -0.006,10e-4 h -0.002 c -0.174,0.035 -0.32,0.04 -0.438,0.04 -0.151,-0.001 -0.261,-0.008 -0.317,-0.008 h -0.005 -0.003 -0.003 c -0.185,0 -0.444,0.019 -0.745,0.02 -0.194,0 -0.408,-0.008 -0.642,-0.05 l 0.013,0.003 -0.014,-0.003 h 10e-4 -10e-4 C -62.453,9.616 -62.721,9.51 -62.88,9.502 -63.143,9.47 -63.516,9.495 -64.031,9.391 V 9.39 c -0.593,-0.127 -1.082,-0.216 -1.618,-0.234 h -0.001 c -0.669,-0.028 -1.192,-0.151 -1.606,-0.162 h -0.001 c -0.37,-0.015 -0.746,-0.018 -1.129,-0.018 -0.382,0 -0.77,0.003 -1.165,0.003 -0.598,0 -1.213,-0.008 -1.842,-0.056 h 0.002 c -0.211,-0.016 -0.434,-0.021 -0.669,-0.021 -0.235,0 -0.482,0.005 -0.74,0.006 h -0.002 -0.049 c -0.38,0 -0.74,-0.012 -1.078,-0.012 -0.232,0 -0.453,0.005 -0.661,0.022 h -0.002 c -0.643,0.046 -1.354,0.261 -2.204,0.417 h 0.001 c -0.536,0.093 -0.978,0.124 -1.326,0.209 l -0.017,0.005 -0.079,0.025 c -0.067,0.02 -0.155,0.048 -0.254,0.076 -0.161,0.042 -0.345,0.086 -0.571,0.11 -0.01,0.021 -0.025,0.047 -0.032,0.066 -0.123,0.281 -0.239,0.609 -0.387,0.97 v -10e-4 c -0.181,0.437 -0.367,0.901 -0.69,1.401 v 10e-4 -10e-4 c -0.325,0.504 -0.645,1.006 -0.949,1.505 V 13.7 c -0.395,0.645 -0.649,1.501 -0.922,2.398 v 0.001 c -0.345,1.118 -0.619,2.275 -0.829,3.432 l -0.001,0.001 c -10e-4,0.003 -0.005,0.051 -0.011,0.149 -0.008,0.097 -0.011,0.25 -0.075,0.469 -0.043,0.145 -0.125,0.321 -0.256,0.478 -0.174,0.212 -0.419,0.357 -0.641,0.432 0,-10e-4 10e-4,-10e-4 0.002,-10e-4 l -0.003,10e-4 h 0.001 c -0.78,0.267 -1.534,0.309 -2.229,0.31 -0.125,0 -0.274,0.002 -0.439,0.002 -0.292,0 -0.631,-0.007 -0.998,-0.069 -0.363,-0.065 -0.772,-0.187 -1.154,-0.476 l -0.002,-0.001 -0.003,-0.002 c -0.219,-0.164 -0.402,-0.418 -0.485,-0.658 -0.086,-0.241 -0.094,-0.443 -0.095,-0.586 10e-4,-0.147 0.01,-0.243 0.01,-0.294 v -0.001 -0.001 c 0.015,-0.533 0.163,-0.986 0.312,-1.384 0.15,-0.394 0.31,-0.742 0.406,-1.009 0.503,-1.391 0.967,-2.834 1.586,-4.278 l 0.005,-0.026 c 0.009,-0.046 0.019,-0.144 0.049,-0.286 v -0.002 0.002 c 0.11,-0.491 0.323,-0.863 0.493,-1.16 v 10e-4 c 0.161,-0.275 0.3,-0.592 0.486,-0.971 l -0.001,0.003 0.002,-0.004 c 0.273,-0.549 0.545,-1.133 0.918,-1.73 -0.241,-0.02 -0.469,-0.036 -0.676,-0.036 l -0.181,0.004 -0.002,0.001 c -0.586,0.02 -1.324,0.238 -2.103,0.435 l 0.003,-10e-4 -0.005,0.002 c 0,-0.001 0.001,-0.001 0.002,-0.001 h -10e-4 c -0.288,0.066 -0.736,0.228 -1.321,0.235 -0.252,0 -0.536,-0.037 -0.825,-0.151 l 0.004,10e-4 -0.004,-0.002 v 0.001 c -0.176,-0.071 -0.385,-0.188 -0.558,-0.406 -0.177,-0.215 -0.26,-0.518 -0.254,-0.736 0.003,-0.265 0.07,-0.43 0.116,-0.546 0.049,-0.116 0.089,-0.19 0.11,-0.234 0.378,-0.768 0.722,-1.587 1.126,-2.424 l -10e-4,0.001 c 0.421,-0.86 0.908,-1.603 1.111,-2.238 l 0.018,-0.118 c 0.007,-0.073 0.007,-0.202 0.024,-0.382 l 0.08,-0.824 0.825,-0.069 0.176,-0.007 c 0.386,0.002 0.687,0.09 0.93,0.159 0.241,0.071 0.431,0.128 0.524,0.14 l 0.002,0.001 c 0.277,0.044 0.597,0.06 0.942,0.06 0.454,0 0.949,-0.027 1.46,-0.028 0.558,0 1.127,-0.008 1.704,-0.008 0.214,0 0.429,0.002 0.645,0.004 0.749,0.013 1.418,0.091 2.022,0.089 h 0.063 0.001 l 0.188,-0.001 c 0.524,0 1.048,0.017 1.592,0.069 0.244,0.023 0.507,0.031 0.784,0.031 0.401,0 0.831,-0.017 1.278,-0.017 h 0.045 c 0.2,0 0.402,-10e-4 0.607,-10e-4 0.49,0 0.997,0.005 1.52,0.042 h -0.001 c 0.732,0.052 1.401,0.129 2.027,0.128 h 0.028 -0.001 c 0.839,-0.003 1.708,-0.031 2.595,-0.031 0.649,0 1.308,0.015 1.971,0.068 0.624,0.053 1.168,0.161 1.638,0.196 h -0.001 c 0.481,0.041 1.054,0.021 1.74,0.156 0.018,0.003 0.038,0.006 0.056,0.009 l -0.38,-0.868 0.701,0.922 c 0.338,0.054 0.697,0.104 1.095,0.177 h -0.001 l 0.002,10e-4 c -10e-4,0 -10e-4,-10e-4 -10e-4,-10e-4 0.635,0.128 1.033,0.345 1.306,0.4 0.22,0.054 0.53,0.074 0.909,0.102 0.378,0.031 0.834,0.071 1.327,0.269 l 0.002,10e-4 c 0.233,0.098 0.445,0.175 0.497,0.178 h 10e-4 c 0.235,0.039 0.566,0.048 0.973,0.108 0.597,0.093 1.195,0.171 1.741,0.171 0.253,0 0.494,-0.017 0.718,-0.053 l 0.007,-0.001 0.033,-0.008 0.12,-0.035 c 0.098,-0.03 0.225,-0.071 0.369,-0.115 0.291,-0.084 0.632,-0.188 1.067,-0.193 0.281,0.001 0.652,0.05 1.006,0.313 V 3.378 l 0.001,10e-4 h -0.001 c 0.333,0.265 0.419,0.526 0.489,0.704 0.061,0.181 0.086,0.322 0.1,0.391 V 4.473 l 10e-4,0.005 c 0,-10e-4 -10e-4,-0.003 -10e-4,-0.004 0.072,0.368 0.078,0.611 0.108,0.718 l 0.01,0.029 0.036,0.098 c 0.033,0.087 0.087,0.215 0.13,0.398 v 0.002 c 0.03,0.134 0.054,0.283 0.054,0.456 10e-4,0.209 -0.041,0.461 -0.159,0.696 m -27.042,-11.31 c 0.075,-0.268 0.156,-0.499 0.202,-0.655 l -10e-4,0.001 c 0.041,-0.138 0.099,-0.371 0.21,-0.636 0.114,-0.261 0.278,-0.59 0.647,-0.87 l 0.002,-10e-4 0.002,-0.002 c 0.333,-0.235 0.623,-0.302 0.841,-0.362 0.219,-0.053 0.382,-0.091 0.424,-0.11 0.54,-0.209 1.133,-0.369 1.777,-0.371 0.521,-10e-4 1.076,0.115 1.593,0.391 0.632,0.346 1.279,0.831 1.696,1.583 0.217,0.41 0.311,0.851 0.312,1.292 -0.003,0.721 -0.256,1.511 -0.946,2.054 h -10e-4 c -0.401,0.308 -0.823,0.508 -1.205,0.671 h -10e-4 c -0.243,0.104 -0.543,0.205 -0.875,0.204 -0.08,0.085 -0.156,0.173 -0.251,0.245 -0.281,0.219 -0.661,0.336 -0.965,0.329 -0.254,-0.001 -0.446,-0.057 -0.574,-0.095 l -0.002,-0.001 -0.003,-0.001 c -0.372,-0.128 -0.554,-0.265 -0.597,-0.272 -0.217,-0.091 -0.519,-0.188 -0.854,-0.332 -0.331,-0.146 -0.717,-0.341 -1.055,-0.717 -0.224,-0.248 -0.406,-0.586 -0.482,-0.957 v 0.001 -0.001 c -0.033,-0.155 -0.044,-0.303 -0.045,-0.442 0.002,-0.368 0.077,-0.676 0.151,-0.946 m 10.494,-0.158 c 0.074,-0.171 0.148,-0.295 0.199,-0.386 v 10e-4 l 0.001,-0.002 c -0.001,0 -0.001,0.001 -0.001,0.001 0.196,-0.353 0.471,-0.691 0.828,-0.92 0.357,-0.231 0.722,-0.337 1.094,-0.421 0.43,-0.095 1.002,-0.188 1.613,-0.189 0.298,0 0.607,0.022 0.92,0.09 0.313,0.069 0.639,0.182 0.949,0.404 0.864,0.618 1.289,1.593 1.281,2.515 -0.001,0.786 -0.279,1.556 -0.798,2.177 -0.217,0.261 -0.494,0.477 -0.798,0.609 -0.303,0.133 -0.615,0.178 -0.892,0.177 -0.31,0 -0.584,-0.05 -0.841,-0.105 h -0.002 c -0.045,-0.011 -0.128,-0.027 -0.231,-0.051 -0.105,-0.028 -0.228,-0.054 -0.413,-0.147 -0.105,-0.058 -0.254,-0.146 -0.403,-0.343 -0.019,-0.006 -0.035,-0.01 -0.054,-0.016 -0.461,-0.156 -0.994,-0.417 -1.452,-0.882 -0.091,-0.092 -0.251,-0.238 -0.422,-0.409 -0.171,-0.175 -0.359,-0.368 -0.527,-0.659 l -10e-4,-0.003 c -0.133,-0.23 -0.202,-0.508 -0.2,-0.752 10e-4,-0.289 0.078,-0.519 0.15,-0.689 m 98.574,23.353 c -0.167,-0.502 -0.368,-1.02 -0.391,-1.537 -0.019,-0.443 0.345,-0.921 0.274,-1.339 -0.213,-1.249 -0.556,-2.475 -0.848,-3.71 -0.084,0.017 -0.167,0.034 -0.251,0.051 -0.021,0.245 -0.044,0.49 -0.066,0.734 C 29.794,12.55 29.594,12.12 29.614,11.702 29.672,10.54 29.831,9.383 29.933,8.223 30.096,6.369 30.358,4.546 29.707,2.682 28.98,0.601 28.391,-1.541 28.283,-3.777 c -0.04,-0.831 -0.171,-1.66 -0.289,-2.485 -0.092,-0.646 -0.208,-1.291 -0.351,-1.927 -0.088,-0.388 -0.26,-0.756 -0.374,-1.14 -0.175,-0.586 -0.354,-1.173 -0.486,-1.77 -0.046,-0.205 0.148,-0.502 0.057,-0.65 -0.819,-1.335 -0.984,-2.877 -1.419,-4.332 -0.064,-0.213 -0.127,-0.452 -0.266,-0.615 -0.614,-0.721 -1.265,-1.41 -1.88,-2.132 -0.118,-0.138 -0.129,-0.368 -0.248,-0.732 -0.992,-1.139 -2.203,-2.358 -3.212,-3.727 -1.395,-1.892 -2.632,-3.9 -3.953,-5.847 -0.222,-0.329 -0.52,-0.607 -0.783,-0.909 -0.595,-0.688 -1.188,-1.376 -1.808,-2.092 0.166,-0.07 0.266,-0.112 0.347,-0.146 -1.312,-1.796 -2.622,-3.589 -3.948,-5.406 -0.075,0.228 -0.134,0.406 -0.192,0.583 -0.062,0.013 -0.123,0.025 -0.184,0.037 -0.301,-0.722 -0.666,-1.424 -0.884,-2.17 -0.183,-0.632 -0.488,-1.031 -1.104,-1.279 -0.408,-0.165 -0.765,-0.472 -1.113,-0.755 -0.318,-0.26 -0.56,-0.617 -0.892,-0.853 -0.932,-0.662 -1.849,-1.367 -2.853,-1.901 -1.426,-0.758 -2.52,-1.867 -3.604,-3.008 -0.593,-0.625 -1.169,-1.267 -1.781,-1.873 -0.205,-0.203 -0.479,-0.398 -0.752,-0.46 -1.897,-0.428 -3.803,-0.812 -5.702,-1.23 -0.313,-0.068 -0.643,-0.179 -0.899,-0.362 -0.947,-0.675 -1.839,-1.431 -2.805,-2.078 -1.132,-0.758 -2.313,-1.445 -3.486,-2.142 -0.588,-0.35 -1.172,-0.801 -1.816,-0.947 -1.848,-0.418 -3.726,-0.709 -5.594,-1.038 -0.194,-0.033 -0.403,0.008 -0.603,0.032 -0.659,0.078 -1.35,0.335 -1.97,0.216 -1.881,-0.36 -3.603,0.247 -5.334,0.735 -0.9,0.253 -1.625,0.025 -2.364,-0.362 -0.094,-0.05 -0.064,-0.338 -0.122,-0.717 -1.445,-0.306 -3.053,-0.74 -4.689,-0.956 -0.972,-0.128 -1.99,0.098 -2.989,0.145 -0.425,0.02 -0.869,0.057 -1.277,-0.036 -0.747,-0.171 -1.473,-0.612 -2.209,-0.617 -1.293,-0.009 -2.586,0.281 -3.883,0.334 -0.58,0.024 -0.681,0.596 -1.086,0.698 -0.759,0.192 -1.546,0.28 -2.321,0.411 -0.002,-0.027 -0.004,-0.054 -0.007,-0.08 0.196,-0.099 0.391,-0.198 0.722,-0.365 -1.49,-0.291 -1.798,-0.193 -2.645,0.727 -0.136,0.149 -0.272,0.349 -0.446,0.403 -0.941,0.29 -1.568,1.072 -2.415,1.504 -0.29,0.149 -0.559,0.344 -0.827,0.532 -0.577,0.405 -1.093,0.965 -1.732,1.202 -2.005,0.743 -4.056,1.363 -6.087,2.037 -0.411,0.135 -0.815,0.293 -1.222,0.441 0.019,0.072 0.038,0.144 0.058,0.216 l 1.127,-0.218 c 0.031,0.068 0.062,0.137 0.092,0.205 -0.374,0.197 -0.728,0.477 -1.126,0.571 -0.583,0.137 -1.203,0.982 -1.804,0.005 -0.025,-0.041 -0.197,-0.016 -0.288,0.015 -1.752,0.57 -3.549,1.043 -5.034,2.215 -0.767,0.605 -1.43,1.462 -2.298,1.792 -1.103,0.42 -1.88,1.124 -2.661,1.907 -0.138,0.138 -0.315,0.238 -0.471,0.358 -0.895,0.687 -1.83,1.328 -2.667,2.079 -0.518,0.464 -0.885,1.095 -1.343,1.682 -0.337,-0.402 -0.436,-0.52 -0.668,-0.798 -0.519,0.591 -0.969,1.139 -1.455,1.653 -1.358,1.435 -2.586,3.001 -4.25,4.128 -0.302,0.205 -0.52,0.546 -0.749,0.846 -0.736,0.968 -1.438,1.961 -2.19,2.915 -1.668,2.117 -3.362,4.21 -4.461,6.707 -0.17,0.385 -0.476,0.712 -0.727,1.06 -0.036,0.051 -0.115,0.071 -0.236,0.142 0.046,-0.227 0.081,-0.394 0.116,-0.562 -0.417,0.277 -0.793,0.599 -0.918,0.999 -0.486,1.559 -0.897,3.141 -1.328,4.717 -0.278,1.016 -0.417,2.09 -0.836,3.042 -0.896,2.041 -1.913,4.031 -2.928,6.018 -0.207,0.405 -0.738,0.654 -0.914,1.064 -0.381,0.891 -0.715,1.821 -0.912,2.768 -0.367,1.765 -0.606,3.556 -0.935,5.329 -0.091,0.49 -0.407,0.945 -0.464,1.435 -0.326,2.786 -0.13,5.631 -1.065,8.35 -0.63,1.832 -0.342,3.787 0.003,5.559 0.57,2.922 0.606,5.827 0.663,8.761 0.014,0.712 0.289,1.433 0.526,2.121 0.443,1.283 0.949,2.545 1.421,3.819 0.041,0.108 0.073,0.247 0.042,0.351 -0.162,0.541 -0.285,1.125 0.243,1.484 0.996,0.679 1.307,1.621 1.275,2.751 -0.004,0.174 0.061,0.349 0.091,0.524 0.502,2.997 1.727,5.732 3.131,8.386 0.887,1.675 1.933,3.267 2.893,4.904 0.447,0.764 0.869,1.542 1.289,2.321 0.433,0.802 0.714,1.732 1.301,2.395 1.122,1.268 2.351,2.463 3.652,3.55 1.475,1.234 3.144,2.19 4.261,3.88 0.78,1.181 2.05,2.027 2.964,3.134 1.451,1.756 2.771,3.62 4.189,5.405 0.254,0.32 0.697,0.634 1.082,0.676 1.205,0.131 2.425,0.179 3.639,0.174 25.771,-0.101 51.542,-0.213 77.313,-0.325 0.557,-0.003 1.117,0.001 1.67,-0.053 0.226,-0.021 0.517,-0.13 0.644,-0.299 1.19,-1.603 2.348,-3.231 3.526,-4.843 0.174,-0.238 0.386,-0.463 0.623,-0.635 0.872,-0.632 1.763,-1.238 2.647,-1.855 0.161,-0.112 0.308,-0.284 0.487,-0.328 2.105,-0.519 3.828,-1.475 4.578,-3.692 0.258,-0.764 0.619,-1.498 0.994,-2.214 0.539,-1.029 1.055,-2.085 1.723,-3.027 1.23,-1.735 2.569,-3.39 3.847,-5.09 0.209,-0.278 0.375,-0.602 0.498,-0.929 1.455,-3.858 2.904,-7.713 4.83,-11.38 0.517,-0.985 0.803,-2.262 0.708,-3.363 -0.202,-2.361 0.024,-4.582 1.066,-6.712 0.145,-0.295 0.245,-0.61 0.371,-0.914 0.528,-1.276 0.98,-2.593 1.621,-3.81 0.31,-0.589 0.577,-1.068 0.356,-1.731"
               style="fill:#110f0d;fill-opacity:1;fill-rule:nonzero;stroke:none"
               id="path1605" />
          </g>
        </g>
        <g
           id="g1607"
           transform="matrix(0.1531793,0,0,-0.1519643,161.59476,421.35873)">
          <g
             id="g1609"
             transform="translate(22.5703,-3.0434)">
            <path
               d="M 0,0 V 0 H -0.003 Z"
               style="fill:#110f0d;fill-opacity:1;fill-rule:nonzero;stroke:none"
               id="path1611" />
          </g>
        </g>
        <g
           id="g1613"
           transform="matrix(0.1531793,0,0,-0.1519643,161.59476,421.35873)">
          <g
             id="g1615"
             transform="translate(4.834,-10.2221)">
            <path
               d="m 0,0 0.001,-0.004 v 0.003 C 0,-0.001 0.001,0 0,0"
               style="fill:#110f0d;fill-opacity:1;fill-rule:nonzero;stroke:none"
               id="path1617" />
          </g>
        </g>
        <g
           id="g1619"
           transform="matrix(0.1531793,0,0,-0.1519643,161.59476,421.35873)">
          <g
             id="g1621"
             transform="translate(13.2295,-2.1523)">
            <path
               d="M 0,0 0.002,-0.001 Z"
               style="fill:#110f0d;fill-opacity:1;fill-rule:nonzero;stroke:none"
               id="path1623" />
          </g>
        </g>
        <g
           id="g1625"
           transform="matrix(0.1531793,0,0,-0.1519643,161.59476,421.35873)">
          <g
             id="g1627"
             transform="translate(4.0322,-9.1503)">
            <path
               d="M 0,0 0.004,-0.001 H 0.001 C 0.001,0 0,0 0,0"
               style="fill:#110f0d;fill-opacity:1;fill-rule:nonzero;stroke:none"
               id="path1629" />
          </g>
        </g>
        <g
           id="g1631"
           transform="matrix(0.1531793,0,0,-0.1519643,161.59476,421.35873)">
          <g
             id="g1633"
             transform="translate(-39.4546,60.2633)">
            <path
               d="M 0,0 C 0.63,0.581 1.242,1.179 1.892,1.742 2.109,1.931 2.4,2.112 2.69,2.17 4.705,2.568 6.729,2.926 8.747,3.313 9.079,3.378 9.429,3.48 9.702,3.65 c 1.006,0.629 1.953,1.332 2.978,1.934 1.203,0.705 2.457,1.345 3.703,1.992 0.625,0.325 1.245,0.745 1.929,0.881 1.963,0.39 3.958,0.66 5.941,0.966 0.206,0.031 0.429,-0.007 0.641,-0.029 0.7,-0.074 1.434,-0.313 2.093,-0.203 1.997,0.336 3.826,-0.229 5.665,-0.682 0.955,-0.237 1.726,-0.024 2.511,0.337 0.1,0.046 0.067,0.314 0.129,0.667 1.535,0.284 3.242,0.688 4.98,0.888 1.033,0.12 2.114,-0.09 3.175,-0.134 0.452,-0.018 0.924,-0.053 1.356,0.034 0.794,0.158 1.565,0.568 2.347,0.573 1.373,0.009 2.746,-0.261 4.123,-0.311 0.617,-0.022 0.725,-0.553 1.154,-0.649 0.807,-0.179 1.642,-0.26 2.465,-0.382 0.003,0.025 0.005,0.05 0.008,0.074 -0.208,0.092 -0.415,0.184 -0.768,0.339 1.584,0.272 1.911,0.18 2.81,-0.676 0.144,-0.138 0.29,-0.325 0.475,-0.374 1,-0.27 1.665,-0.998 2.564,-1.4 0.309,-0.138 0.593,-0.319 0.878,-0.494 0.613,-0.377 1.162,-0.898 1.84,-1.118 2.13,-0.692 4.307,-1.269 6.466,-1.895 C 69.601,3.861 70.03,3.715 70.462,3.577 70.442,3.511 70.421,3.443 70.401,3.376 70.001,3.443 69.603,3.512 69.204,3.579 69.17,3.516 69.138,3.452 69.106,3.389 69.502,3.206 69.879,2.945 70.302,2.857 70.92,2.729 71.58,1.943 72.218,2.853 c 0.027,0.038 0.208,0.014 0.306,-0.013 1.861,-0.531 3.769,-0.972 5.347,-2.062 0.815,-0.563 1.518,-1.36 2.439,-1.667 0.676,-0.225 1.231,-0.544 1.742,-0.907 H -2.155 C -1.388,-1.247 -0.687,-0.634 0,0"
               style="fill:#110f0d;fill-opacity:1;fill-rule:nonzero;stroke:none"
               id="path1635" />
          </g>
        </g>
      </g>
    </g>
  </g>
</svg>
