<?xml version="1.0" encoding="UTF-8" standalone="no"?>
<!-- Created with Inkscape (http://www.inkscape.org/) -->

<svg
   width="24.179985"
   height="24"
   viewBox="0 0 6.3976209 6.35"
   version="1.1"
   id="svg8645"
   inkscape:version="1.2.1 (9c6d41e4, 2022-07-14)"
   sodipodi:docname="return-to-before-the-black-throne.svg"
   xmlns:inkscape="http://www.inkscape.org/namespaces/inkscape"
   xmlns:sodipodi="http://sodipodi.sourceforge.net/DTD/sodipodi-0.dtd"
   xmlns="http://www.w3.org/2000/svg"
   xmlns:svg="http://www.w3.org/2000/svg">
  <sodipodi:namedview
     id="namedview8647"
     pagecolor="#505050"
     bordercolor="#eeeeee"
     borderopacity="1"
     inkscape:showpageshadow="0"
     inkscape:pageopacity="0"
     inkscape:pagecheckerboard="0"
     inkscape:deskcolor="#505050"
     inkscape:document-units="mm"
     showgrid="false"
     inkscape:zoom="0.7046647"
     inkscape:cx="-100.75714"
     inkscape:cy="29.09185"
     inkscape:window-width="1390"
     inkscape:window-height="941"
     inkscape:window-x="0"
     inkscape:window-y="25"
     inkscape:window-maximized="0"
     inkscape:current-layer="layer1" />
  <defs
     id="defs8642">
    <clipPath
       clipPathUnits="userSpaceOnUse"
       id="clipPath1727">
      <path
         d="m 105.111,355.009 h 22.058 v 21.884 h -22.058 z"
         id="path1725" />
    </clipPath>
  </defs>
  <g
     inkscape:label="Layer 1"
     inkscape:groupmode="layer"
     id="layer1"
     transform="translate(-131.97186,-141.00705)">
    <g
       id="g1721"
       transform="matrix(0.29700995,0,0,-0.29700995,100.64457,252.81143)">
      <g
         id="g1723"
         clip-path="url(#clipPath1727)">
        <g
           id="g1729"
           transform="matrix(0.1531793,0,0,-0.1519643,116.14006,365.86371)">
          <g
             id="g1731"
             transform="translate(-29.0879,-19.9789)">
            <path
               d="m 0,0 c -0.509,0.21 -1.053,0.333 -1.579,0.492 -0.631,0.191 -1.217,0.431 -1.804,0.726 -1.755,0.879 -3.354,2.202 -4.533,3.765 -1.003,1.332 -1.748,2.877 -2.207,4.48 -0.067,0.239 -0.114,0.492 -0.165,0.742 0.433,0.017 0.875,-0.032 1.327,-0.164 0.764,-0.224 1.553,-0.534 2.29,-0.842 C -5.807,8.837 -5.275,8.186 -4.56,7.62 -3.87,7.073 -3.559,6.347 -3.21,5.552 -2.837,4.704 -2.133,3.963 -1.591,3.218 -1.37,2.913 -1.151,2.587 -0.878,2.325 -0.454,1.917 0.086,1.645 0.54,1.272 1.167,0.759 1.634,0.095 2.184,-0.496 1.99,-0.633 1.794,-0.769 1.599,-0.904 1.137,-0.502 0.559,-0.231 0,0"
               style="fill:#110f0d;fill-opacity:1;fill-rule:nonzero;stroke:none"
               id="path1733" />
          </g>
        </g>
        <g
           id="g1735"
           transform="matrix(0.1531793,0,0,-0.1519643,116.14006,365.86371)">
          <g
             id="g1737"
             transform="translate(-10.9653,15.8365)">
            <path
               d="M 0,0 C 0.528,1.673 1.394,3.214 2.307,4.705 2.812,5.53 3.276,6.392 3.866,7.161 3.979,7.31 4.106,7.451 4.227,7.597 4.336,7.442 4.431,7.282 4.501,7.118 4.725,6.604 4.851,6.054 4.969,5.509 5.233,4.29 5.032,3.076 4.841,1.86 4.359,-1.219 2.077,-3.76 -0.121,-5.808 c -0.291,-0.27 -0.59,-0.53 -0.892,-0.787 0.002,0.383 -0.003,0.766 0.005,1.148 C -0.91,-3.624 -0.546,-1.735 0,0"
               style="fill:#110f0d;fill-opacity:1;fill-rule:nonzero;stroke:none"
               id="path1739" />
          </g>
        </g>
        <g
           id="g1741"
           transform="matrix(0.1531793,0,0,-0.1519643,116.14006,365.86371)">
          <g
             id="g1743"
             transform="translate(-15.5156,-6.0077)">
            <path
               d="M 0,0 C -0.182,0.812 -0.297,1.635 -0.361,2.46 0.479,1.177 1.494,0 2.568,-1.087 3.02,-1.544 3.464,-2.008 3.907,-2.471 3.169,-3.11 2.421,-3.736 1.655,-4.344 0.892,-2.988 0.339,-1.518 0,0"
               style="fill:#110f0d;fill-opacity:1;fill-rule:nonzero;stroke:none"
               id="path1745" />
          </g>
        </g>
        <g
           id="g1747"
           transform="matrix(0.1531793,0,0,-0.1519643,116.14006,365.86371)">
          <g
             id="g1749"
             transform="translate(15.0723,-29.4447)">
            <path
               d="M 0,0 C 0.843,0.015 1.703,0.039 2.54,-0.051 3.444,-0.15 4.204,-0.556 4.969,-1.031 5.615,-1.435 6.256,-1.854 6.795,-2.401 6.901,-2.51 6.992,-2.633 7.093,-2.749 5.8,-3.194 4.428,-3.511 3.082,-3.524 2.385,-3.531 1.662,-3.542 0.96,-3.475 0.479,-2.31 -0.055,-1.167 -0.616,-0.038 -0.412,-0.022 -0.208,-0.004 0,0"
               style="fill:#110f0d;fill-opacity:1;fill-rule:nonzero;stroke:none"
               id="path1751" />
          </g>
        </g>
        <g
           id="g1753"
           transform="matrix(0.1531793,0,0,-0.1519643,116.14006,365.86371)">
          <g
             id="g1755"
             transform="translate(15.2119,-32.7929)">
            <path
               d="M 0,0 C -0.11,0.023 -0.223,0.044 -0.333,0.072 -0.639,0.71 -0.937,1.353 -1.24,1.995 -1.422,2.394 -1.616,2.787 -1.806,3.183 -1.607,3.217 -1.409,3.249 -1.21,3.272 Z"
               style="fill:#110f0d;fill-opacity:1;fill-rule:nonzero;stroke:none"
               id="path1757" />
          </g>
        </g>
        <g
           id="g1759"
           transform="matrix(0.1531793,0,0,-0.1519643,116.14006,365.86371)">
          <g
             id="g1761"
             transform="translate(29.0586,-30.6596)">
            <path
               d="m 0,0 c -0.045,-0.124 -0.089,-0.244 -0.133,-0.371 -0.208,-0.601 -0.288,-1.053 -0.741,-1.522 -0.305,-0.316 -0.698,-0.685 -1.102,-0.877 -0.338,-0.163 -0.723,-0.18 -1.105,-0.116 0.731,0.647 1.433,1.329 2.136,1.997 C -0.632,-0.591 -0.315,-0.296 0,0"
               style="fill:#110f0d;fill-opacity:1;fill-rule:nonzero;stroke:none"
               id="path1763" />
          </g>
        </g>
        <g
           id="g1765"
           transform="matrix(0.1531793,0,0,-0.1519643,116.14006,365.86371)">
          <g
             id="g1767"
             transform="translate(-28.9321,7.6734)">
            <path
               d="m 0,0 c -0.143,-0.133 -0.288,-0.259 -0.436,-0.4 -0.064,-0.062 -0.201,-0.199 -0.139,-0.294 0.126,-0.194 0.459,0.161 0.501,0.265 C -0.014,-0.278 0.001,-0.137 0,0 m 77.628,-8.441 c -0.383,1.036 -0.552,2.126 -0.951,3.154 -0.444,1.144 -1.039,2.138 -1.861,3.052 -0.808,0.896 -1.9,1.575 -3.034,1.986 -0.662,0.24 -1.396,0.263 -2.09,0.314 -0.934,0.068 -1.766,0.036 -2.648,-0.292 -1.185,-0.44 -2.238,-1.036 -3.118,-1.946 -0.457,-0.472 -0.879,-0.983 -0.461,-1.595 0.363,-0.527 1.635,-1.561 2.207,-0.809 0.218,0.29 0.298,0.382 0.683,0.454 0.481,0.091 1.147,0.242 1.637,0.111 0.687,-0.183 0.958,-0.948 1.016,-1.581 0.066,-0.706 -0.123,-1.324 -0.657,-1.808 -0.844,-0.764 -2.279,-0.581 -3.298,-0.323 -0.793,0.201 -1.515,0.317 -2.339,0.285 -0.974,-0.04 -1.934,-0.387 -2.873,-0.633 -1.552,-0.409 -2.845,-1.432 -4.146,-2.33 -1.401,-0.966 -2.645,-2.088 -3.723,-3.407 -1.248,-1.525 -2.022,-3.199 -2.858,-4.961 -0.377,-0.795 -0.793,-1.57 -1.156,-2.372 -0.371,-0.812 -0.708,-1.623 -1.121,-2.417 -0.743,-1.432 -1.487,-2.9 -2.417,-4.221 -0.45,-0.639 -0.988,-1.156 -1.599,-1.639 -0.61,-0.482 -1.258,-1.007 -2.021,-1.218 -0.578,-0.16 -1.163,-0.212 -1.748,-0.192 -0.652,1.425 -1.281,2.861 -1.931,4.286 0.732,0.925 1.577,1.78 2.5,2.495 1.304,1.01 2.641,1.948 3.828,3.105 0.716,0.697 1.366,1.509 1.976,2.302 0.617,0.798 1.046,1.786 1.375,2.731 0.34,0.977 0.608,2.037 0.812,3.05 0.152,0.759 0.191,1.469 0.183,2.245 -0.016,1.652 0.099,3.288 -0.256,4.914 -0.197,0.893 -0.523,1.719 -0.872,2.559 -0.386,0.93 -0.717,1.874 -1.066,2.819 -0.828,2.244 -1.921,4.358 -2.858,6.556 -0.417,0.979 -0.785,1.973 -1.239,2.937 -0.11,0.235 -0.213,0.471 -0.321,0.707 1.046,2.365 2.379,4.58 4.1,6.53 0.886,1.004 1.815,2.018 2.912,2.803 0.974,0.699 2.054,1.337 3.132,1.849 1.737,0.825 3.735,1.366 5.673,1.335 0.985,-0.017 1.86,-0.423 2.699,-0.889 0.818,-0.453 1.534,-0.986 2.125,-1.725 1.219,-1.523 1.926,-3.337 1.981,-5.294 0.022,-0.729 0.028,-1.487 -0.094,-2.206 C 63.564,11.398 63.219,10.543 62.854,9.729 62.218,8.311 61.264,7.054 59.879,6.306 59.251,5.967 58.664,5.798 57.946,5.765 57.478,5.743 56.896,5.69 56.44,5.759 55.479,5.903 54.845,6.65 54.255,7.365 53.927,7.763 53.641,8.164 53.456,8.646 53.337,8.951 53.098,9.672 52.653,9.531 52.142,9.371 51.946,8.571 51.847,8.137 51.619,7.138 51.768,6.157 52.201,5.229 52.416,4.769 52.786,4.442 53.141,4.094 53.473,3.766 53.794,3.427 54.138,3.111 54.936,2.376 56,1.781 57.069,1.555 c 3.406,-0.725 6.785,1.254 9.164,3.508 0.553,0.523 1.043,1.083 1.508,1.686 0.606,0.787 1.247,1.587 1.731,2.458 0.728,1.308 1.157,2.743 1.451,4.205 0.298,1.477 0.343,2.984 0.349,4.484 0.008,1.676 -0.212,3.32 -0.779,4.902 -0.994,2.764 -3.47,4.826 -6.122,5.945 -0.92,0.388 -1.892,0.614 -2.863,0.823 -1.134,0.246 -2.267,0.408 -3.43,0.414 -2.513,0.016 -5.038,-0.408 -7.339,-1.466 -2.318,-1.068 -4.48,-2.538 -6.239,-4.396 -1.935,-2.043 -3.712,-4.393 -4.823,-6.997 -0.175,-0.412 -0.328,-0.835 -0.471,-1.261 -0.086,0.385 -0.164,0.77 -0.222,1.16 -0.138,0.914 -0.126,1.855 -0.165,2.777 -0.032,0.75 -0.027,1.404 0.084,2.145 0.202,1.355 0.526,2.725 1.064,3.99 0.354,0.827 0.897,1.662 1.494,2.33 0.613,0.685 1.259,1.389 2.022,1.906 0.683,0.462 1.383,0.915 2.122,1.281 0.312,0.155 0.566,0.208 0.905,0.211 -0.8,-0.008 -1.531,-0.212 -2.308,-0.396 -0.787,-0.187 -1.565,-0.43 -2.336,-0.671 C 40.934,30.301 40.043,29.939 39.261,29.348 38.806,29.003 38.308,28.691 37.884,28.31 37.443,27.912 37.04,27.437 36.668,26.975 35.973,26.11 35.292,25.193 35.016,24.103 34.898,23.639 34.781,23.172 34.758,22.691 34.736,22.157 34.738,21.633 34.69,21.099 34.625,20.374 34.503,19.651 34.604,18.922 34.69,18.3 34.859,17.697 34.999,17.087 35.394,15.36 35.75,13.578 36.388,11.919 36.72,11.058 37.096,10.213 37.494,9.379 37.349,8.415 37.283,7.442 37.201,6.474 37.078,5.002 36.899,3.541 36.749,2.073 c -0.248,-2.416 -0.299,-4.844 -0.287,-7.27 0.007,-1.317 0.038,-2.631 -0.047,-3.945 -0.077,-1.172 -0.337,-2.272 -0.713,-3.381 -0.425,-1.251 -1.013,-2.411 -1.836,-3.44 -0.357,-0.445 -0.753,-0.85 -1.166,-1.236 -0.522,1.128 -1.047,2.253 -1.563,3.383 -0.711,1.56 -1.433,3.113 -2.082,4.7 -0.272,0.672 -0.541,1.345 -0.811,2.017 -0.198,0.523 -0.409,1.041 -0.63,1.554 -0.078,0.15 -0.407,0.841 -0.686,0.581 -0.073,-0.191 -0.133,-0.386 -0.183,-0.585 -0.128,-0.386 -0.27,-0.767 -0.422,-1.146 -0.879,-2.058 -2.467,-3.725 -4.144,-5.234 -0.357,0.372 -0.705,0.751 -1.044,1.148 -1.41,1.647 -2.609,3.365 -3.431,5.379 -0.424,1.037 -0.643,2.126 -0.728,3.239 -0.023,0.445 -0.033,0.892 -0.037,1.338 0.501,0.789 1.148,1.49 1.742,2.206 1.573,1.898 3.086,3.789 4.354,5.909 0.569,0.951 1.099,1.908 1.612,2.893 0.444,0.851 0.884,1.576 0.983,2.547 0.194,1.927 -0.052,3.947 -0.993,5.66 0.635,0.601 1.284,1.187 1.906,1.812 0.768,0.769 1.451,1.645 2.04,2.557 0.37,0.574 0.693,1.173 1,1.782 0.341,0.679 0.737,1.401 0.942,2.138 0.152,0.543 0.217,1.087 0.284,1.647 0.077,0.652 0.18,1.308 0.184,1.965 0.007,1.242 -0.43,2.503 -0.986,3.605 -0.328,0.651 -0.723,1.3 -1.112,1.917 -0.391,0.622 -0.899,1.085 -1.447,1.571 -0.906,0.804 -1.946,1.561 -3.033,2.099 -0.679,0.336 -1.443,0.531 -2.176,0.709 -0.53,0.129 -1.037,0.24 -1.587,0.278 -0.95,0.065 -1.955,0.022 -2.902,-0.069 -1.103,-0.106 -2.097,-0.415 -3.124,-0.814 -0.843,-0.33 -1.659,-0.722 -2.421,-1.215 C 11.356,37.824 10.657,37.146 9.929,36.451 8.914,35.483 8.008,34.557 7.6,33.177 7.336,32.289 7.25,31.328 7.336,30.405 7.37,30.047 7.523,29.779 7.723,29.481 c 0.307,-0.459 0.66,-1.003 1.11,-1.336 0.369,-0.274 0.804,-0.373 1.238,-0.491 0.433,-0.117 0.859,-0.255 1.29,-0.384 0.885,-0.269 1.647,-0.278 2.488,0.116 0.756,0.353 1.66,0.848 2.117,1.575 0.138,0.221 0.324,0.435 -0.022,0.456 -0.815,0.047 -1.617,-0.229 -2.428,-0.003 -1.049,0.292 -1.66,1.663 -1.299,2.653 0.741,2.03 3.687,2.557 5.508,1.879 1.637,-0.609 2.77,-2.149 3.451,-3.686 0.526,-1.186 0.587,-2.56 0.362,-3.825 -0.201,-1.136 -0.619,-2.349 -1.265,-3.315 -0.166,-0.248 -0.35,-0.488 -0.538,-0.725 -0.777,0.207 -1.588,0.316 -2.389,0.266 -0.89,-0.055 -1.762,-0.27 -2.655,-0.329 C 13.835,22.274 13.134,22.155 12.347,21.786 11.488,21.385 10.707,20.838 9.861,20.408 9.298,20.121 8.694,19.932 8.131,19.648 7.264,19.213 6.535,18.481 5.829,17.829 5.229,17.275 4.673,16.674 4.146,16.052 3.761,15.597 3.438,15.124 3.29,14.537 3.017,13.456 3.269,12.255 3.822,11.303 c 0.145,-0.251 0.392,-0.698 0.636,-0.876 0.109,-0.08 0.214,-0.114 0.345,-0.058 -0.152,0.253 -0.366,0.544 -0.432,0.857 -0.154,0.704 0.205,1.639 0.434,2.287 0.145,0.407 0.27,0.821 0.495,1.191 0.281,0.46 0.73,0.785 1.151,1.112 0.669,0.519 1.419,0.916 2.183,1.278 1.017,0.479 2.185,0.947 3.29,1.181 1.374,0.29 2.855,0.228 4.275,0.137 C 15.816,17.973 15.434,17.533 15.044,17.1 14.72,16.739 14.398,16.388 14.127,15.985 13.757,15.433 13.533,14.797 13.209,14.216 11.304,10.788 10.255,6.904 9.799,3.022 9.687,2.06 9.671,1.099 9.664,0.13 9.652,-1.348 9.588,-2.77 9.985,-4.212 c 0.24,-0.873 0.541,-1.739 0.877,-2.593 -0.195,-0.712 -0.332,-1.438 -0.383,-2.174 -0.135,-1.968 0.234,-3.932 0.614,-5.853 0.345,-1.738 1.048,-3.282 1.983,-4.758 -1.035,-0.806 -2.078,-1.602 -3.132,-2.384 -0.388,0.167 -0.8,0.271 -1.198,0.419 -0.689,0.256 -1.436,0.678 -2.022,1.121 -0.764,0.58 -1.208,1.437 -1.739,2.212 -0.506,0.742 -0.898,1.523 -0.98,2.434 -0.061,0.678 -0.048,1.426 0.005,2.101 0.041,0.513 0.359,0.913 0.6,1.354 0.341,0.625 0.723,1.254 1.005,1.908 0.336,0.779 0.41,1.574 0.385,2.415 -0.022,0.771 -0.282,1.297 -0.542,1.999 -0.245,0.655 -0.455,1.248 -0.969,1.751 -0.551,0.541 -1.253,0.746 -1.981,0.934 -0.649,0.168 -1.169,0.181 -1.833,0.122 -0.15,-0.015 -0.69,0.065 -0.786,-0.112 0.043,-0.09 0.333,-0.168 0.425,-0.198 C 0.518,-3.573 0.736,-3.588 0.929,-3.682 1.2,-3.811 1.37,-4.03 1.537,-4.267 1.909,-4.792 2.042,-5.35 2.099,-5.979 2.136,-6.395 2.202,-6.964 2.014,-7.344 1.517,-8.348 0.64,-9.131 -0.192,-9.846 c -0.588,-0.506 -1.122,-1.069 -1.584,-1.691 -0.495,-0.665 -1.03,-1.456 -1.071,-2.315 -0.027,-0.567 -0.022,-1.181 0.108,-1.732 0.174,-0.745 0.371,-1.561 0.708,-2.249 0.334,-0.682 0.969,-1.263 1.506,-1.78 0.647,-0.622 1.404,-1.055 2.21,-1.442 0.8,-0.383 1.706,-0.565 2.54,-0.864 0.854,-0.306 1.675,-0.935 2.316,-1.574 0.206,-0.204 0.392,-0.429 0.561,-0.668 -0.359,-0.29 -0.718,-0.579 -1.074,-0.872 -0.474,0.268 -0.937,0.554 -1.444,0.756 -0.461,0.183 -0.945,0.284 -1.389,0.51 -0.505,0.256 -0.906,0.652 -1.37,0.967 -0.549,0.375 -1.129,0.691 -1.672,1.079 -0.963,0.688 -2.101,1.113 -3.006,1.873 -0.415,0.349 -0.786,0.755 -1.239,1.056 -0.381,0.251 -0.764,0.427 -1.087,0.761 -0.322,0.335 -0.515,0.757 -0.795,1.123 -0.316,0.411 -0.688,0.772 -0.993,1.193 -0.309,0.427 -0.561,0.917 -1.027,1.198 -0.324,0.197 -0.691,0.362 -1.071,0.401 -0.465,0.048 -0.941,0.009 -1.407,0.012 -0.185,10e-4 -0.363,-0.001 -0.541,-0.006 -0.022,0.18 -0.05,0.359 -0.066,0.542 -0.256,2.99 0.178,6.167 1.672,8.797 0.931,1.639 2.4,3.093 3.939,4.175 0.657,0.462 1.314,0.933 2.009,1.338 0.662,0.387 1.283,0.529 2.053,0.483 C -0.718,1.185 -0.009,0.692 0,0.001 0.109,0.102 0.216,0.204 0.318,0.332 0.704,0.812 1.129,1.251 1.412,1.803 1.638,2.246 1.764,2.815 1.661,3.315 1.564,3.773 1.189,4.174 0.917,4.548 0.22,5.505 -1.208,5.871 -2.34,5.864 -2.993,5.86 -3.547,5.79 -4.165,5.585 -4.98,5.315 -5.64,4.893 -6.339,4.398 -7.783,3.382 -9.109,2.143 -10.32,0.863 c -1.314,-1.386 -2.575,-2.887 -3.238,-4.706 -0.29,-0.795 -0.504,-1.589 -0.609,-2.428 -0.112,-0.893 -0.092,-1.797 -0.088,-2.695 0.005,-0.969 0.109,-1.923 0.289,-2.875 0.174,-0.913 0.345,-1.873 0.621,-2.781 -0.471,-0.182 -0.925,-0.403 -1.322,-0.659 -0.781,-0.504 -1.446,-1.25 -2.055,-1.941 -0.571,-0.649 -0.986,-1.423 -1.403,-2.177 -0.373,-0.673 -0.753,-1.483 -0.8,-2.257 -0.023,-0.393 0.062,-0.779 0.079,-1.171 0.023,-0.511 0.042,-0.969 0.221,-1.456 0.359,-0.977 0.912,-1.674 1.871,-2.109 0.823,-0.373 1.788,-0.514 2.688,-0.383 0.342,0.05 0.78,0.193 1.028,0.445 0.098,0.101 0.145,0.226 0.289,0.271 -0.652,-0.046 -1.164,0.148 -1.722,0.489 -0.479,0.291 -0.769,0.711 -1.047,1.187 -0.329,0.563 -0.289,1.2 -0.254,1.836 0.017,0.307 0.014,0.654 0.112,0.951 0.093,0.28 0.258,0.547 0.388,0.809 0.336,0.683 0.809,1.271 1.381,1.774 0.565,0.494 1.189,0.907 1.852,1.187 0.084,-0.239 0.169,-0.478 0.264,-0.714 0.399,-0.994 0.94,-1.927 1.457,-2.863 0.589,-1.067 1.051,-2.214 1.711,-3.241 0.451,-0.701 0.967,-1.336 1.536,-1.946 0.555,-0.595 1.273,-1.013 1.913,-1.51 0.536,-0.415 1.097,-0.799 1.703,-1.105 0.689,-0.346 1.561,-0.679 2.159,-1.237 -0.233,-0.161 -0.467,-0.321 -0.699,-0.484 -1.204,-0.846 -2.409,-1.649 -3.655,-2.43 -0.088,-0.056 -0.984,-0.506 -0.864,-0.721 0.043,-0.077 0.269,-0.123 0.349,-0.146 0.343,-0.097 0.64,-0.234 0.977,-0.368 3.253,-1.302 6.424,-2.787 9.736,-3.95 1.392,-0.468 2.793,-0.91 4.202,-1.325 1.339,-0.42 2.672,-0.858 3.999,-1.317 2.732,-0.904 5.51,-1.666 8.28,-2.451 2.483,-0.704 4.989,-1.292 7.49,-1.928 2.507,-0.637 4.981,-1.389 7.497,-1.996 2.13,-0.514 4.244,-1.08 6.363,-1.645 1.49,-0.397 3.008,-0.722 4.487,-1.155 0.957,-0.281 1.856,-0.688 2.75,-1.113 -0.136,0.153 -0.242,0.309 -0.347,0.521 -0.255,0.513 -0.567,0.995 -0.862,1.486 -0.447,0.743 -0.803,1.485 -1.115,2.299 -0.26,0.677 -0.493,1.364 -0.72,2.053 1.167,0.062 2.34,0.39 3.408,0.795 1.06,0.402 2.049,0.957 2.993,1.58 0.035,0.024 0.069,0.052 0.106,0.076 0.093,-0.137 0.184,-0.277 0.284,-0.41 0.274,-0.366 0.557,-0.783 0.953,-1.03 0.347,-0.218 0.708,-0.257 1.115,-0.232 0.92,0.057 1.886,0.944 2.561,1.521 0.882,0.755 1.546,1.896 2.029,2.937 0.246,0.525 0.324,1.08 0.409,1.649 0.1,0.669 0.19,1.329 0.248,2.002 0.009,0.101 0.007,0.202 0.012,0.303 1.695,1.361 3.912,2.622 6.047,1.725 1.601,-0.671 2.468,-2.518 2.462,-4.182 -0.007,-1.839 -1.076,-3.398 -2.656,-4.28 -0.685,-0.383 -1.365,-0.619 -2.152,-0.67 -0.562,-0.035 -1.042,-0.022 -1.312,0.527 -0.218,0.439 -0.296,0.985 -0.282,1.472 0.007,0.211 0.173,0.584 0.089,0.787 -0.289,0.042 -0.825,-0.897 -0.888,-1.007 -0.521,-0.908 -0.735,-2.161 0.012,-3.036 0.349,-0.407 1.08,-0.82 1.549,-1.038 0.652,-0.3 1.331,-0.333 2.035,-0.337 1.731,-0.009 3.686,0.62 5.012,1.751 1.29,1.101 2.468,2.506 3.026,4.126 0.276,0.799 0.532,1.658 0.64,2.497 0.097,0.75 0.08,1.523 0.039,2.277 -0.16,2.903 -2.465,5.361 -5.092,6.359 -0.981,0.373 -2.068,0.398 -3.106,0.378 -1.05,-0.02 -2.03,-0.617 -2.859,-1.215 -1.098,-0.79 -1.965,-1.864 -2.849,-2.88 -0.275,1.783 -0.408,3.623 0.329,5.313 0.32,0.736 0.58,1.573 1.249,2.074 0.524,0.392 1.392,0.565 2.019,0.685 0.257,0.048 0.544,0.11 0.79,-0.011 0.242,-0.119 0.38,-0.365 0.565,-0.547 0.143,-0.143 0.257,-0.18 0.312,-0.385 0.056,-0.201 0.125,-0.475 0.109,-0.687 -0.012,0.444 0.054,0.913 -0.014,1.352 -0.069,0.443 -0.303,0.842 -0.527,1.22 -0.157,0.265 -0.31,0.543 -0.55,0.743 -0.57,0.476 -1.613,0.713 -2.34,0.499 -0.848,-0.249 -1.568,-0.918 -2.037,-1.631 -0.585,-0.888 -1.138,-1.729 -1.536,-2.727 -0.336,-0.837 -0.45,-1.869 -0.466,-2.766 -0.008,-0.481 -0.027,-0.973 -0.005,-1.453 0.028,-0.567 0.185,-1.121 0.24,-1.685 0.071,-0.691 0.062,-1.391 0.051,-2.091 -0.55,-0.617 -1.117,-1.216 -1.744,-1.769 -1.367,-1.205 -2.882,-2.171 -4.56,-2.874 -0.127,0.224 -0.243,0.454 -0.375,0.685 -0.247,0.43 -0.583,0.802 -0.862,1.212 -0.41,0.605 -0.823,1.19 -1.302,1.745 -0.35,0.408 -0.731,0.74 -1.214,0.978 -0.293,0.129 -0.597,0.219 -0.913,0.268 -0.377,0.088 -0.749,0.198 -1.114,0.328 -0.504,0.135 -1.035,0.169 -1.557,0.145 -0.943,-0.045 -1.787,-0.5 -2.647,-0.843 -0.018,-0.007 -0.036,-0.015 -0.055,-0.022 -0.167,0.324 -0.333,0.648 -0.5,0.973 1.312,0.419 2.576,0.963 3.82,1.599 1.705,0.869 3.619,1.912 4.849,3.414 0.635,0.777 1.108,1.746 1.258,2.746 0.079,0.528 0.064,1.063 0.073,1.595 0.013,0.649 0.124,1.288 0.259,1.921 0.102,0.479 0.202,0.974 0.36,1.437 0.263,0.776 0.69,1.481 1.098,2.185 0.405,0.701 0.863,1.327 1.365,1.962 0.634,0.804 1.247,1.648 2.06,2.284 1.067,0.834 2.287,1.49 3.551,1.972 1.217,0.463 2.607,0.649 3.904,0.753 0.568,0.046 1.126,0.047 1.694,0.042 0.863,-0.008 1.788,0.007 2.629,-0.219 1.203,-0.322 2.342,-0.778 3.598,-0.862 1.15,-0.077 2.409,-0.026 3.504,0.344 0.622,0.211 1.377,0.398 1.882,0.836 0.977,0.847 0.333,2.516 -0.027,3.488 M 49.749,-51.623 c 0.081,-0.076 0.313,-0.313 0.379,-0.093 -0.17,0.082 -0.341,0.163 -0.512,0.245 0.043,-0.05 0.078,-0.101 0.133,-0.152 M 99.85,0.254 c -0.167,-0.502 -0.368,-1.02 -0.391,-1.537 -0.019,-0.443 0.345,-0.921 0.274,-1.339 -0.213,-1.249 -0.556,-2.475 -0.848,-3.71 -0.084,0.017 -0.167,0.034 -0.251,0.051 -0.021,0.245 -0.044,0.49 -0.066,0.734 -0.259,-0.405 -0.459,-0.835 -0.439,-1.253 0.058,-1.162 0.217,-2.319 0.319,-3.479 0.163,-1.854 0.426,-3.677 -0.226,-5.541 -0.726,-2.081 -1.316,-4.222 -1.424,-6.459 -0.04,-0.831 -0.171,-1.659 -0.289,-2.485 -0.092,-0.646 -0.208,-1.291 -0.351,-1.927 -0.088,-0.388 -0.26,-0.756 -0.374,-1.14 -0.175,-0.586 -0.354,-1.173 -0.486,-1.77 -0.046,-0.205 0.148,-0.502 0.057,-0.65 -0.819,-1.335 -0.983,-2.877 -1.419,-4.332 -0.063,-0.213 -0.127,-0.452 -0.266,-0.615 -0.614,-0.721 -1.265,-1.41 -1.879,-2.132 -0.119,-0.138 -0.13,-0.368 -0.249,-0.732 -0.992,-1.139 -2.203,-2.358 -3.211,-3.727 -1.396,-1.892 -2.633,-3.899 -3.954,-5.847 -0.222,-0.329 -0.52,-0.607 -0.783,-0.909 -0.594,-0.688 -1.188,-1.376 -1.807,-2.092 0.165,-0.07 0.265,-0.112 0.346,-0.146 -1.312,-1.796 -2.622,-3.589 -3.948,-5.406 -0.075,0.228 -0.134,0.406 -0.192,0.584 -0.062,0.012 -0.122,0.024 -0.184,0.036 -0.301,-0.722 -0.666,-1.424 -0.884,-2.17 -0.183,-0.632 -0.488,-1.031 -1.104,-1.279 -0.407,-0.165 -0.765,-0.472 -1.113,-0.755 -0.318,-0.26 -0.56,-0.617 -0.892,-0.852 -0.932,-0.663 -1.849,-1.368 -2.853,-1.902 -1.425,-0.758 -2.52,-1.867 -3.604,-3.008 -0.593,-0.625 -1.169,-1.267 -1.78,-1.873 -0.205,-0.203 -0.48,-0.398 -0.753,-0.46 -1.897,-0.428 -3.803,-0.812 -5.701,-1.23 -0.314,-0.068 -0.644,-0.179 -0.9,-0.361 -0.947,-0.676 -1.839,-1.432 -2.805,-2.079 -1.131,-0.758 -2.313,-1.445 -3.486,-2.142 -0.588,-0.35 -1.172,-0.8 -1.816,-0.946 -1.848,-0.419 -3.726,-0.71 -5.594,-1.039 -0.193,-0.033 -0.402,0.008 -0.603,0.032 -0.659,0.078 -1.35,0.335 -1.97,0.216 -1.881,-0.36 -3.603,0.247 -5.334,0.735 -0.9,0.253 -1.625,0.025 -2.364,-0.362 -0.094,-0.05 -0.064,-0.338 -0.122,-0.717 -1.445,-0.306 -3.052,-0.74 -4.689,-0.956 -0.972,-0.128 -1.99,0.098 -2.988,0.145 -0.426,0.02 -0.87,0.057 -1.278,-0.036 -0.747,-0.171 -1.472,-0.612 -2.209,-0.617 -1.293,-0.009 -2.586,0.281 -3.883,0.334 -0.58,0.024 -0.681,0.596 -1.085,0.698 -0.76,0.193 -1.546,0.28 -2.322,0.411 -0.002,-0.027 -0.004,-0.054 -0.007,-0.08 0.196,-0.099 0.391,-0.198 0.723,-0.365 -1.491,-0.291 -1.799,-0.193 -2.645,0.727 -0.137,0.149 -0.273,0.349 -0.447,0.403 -0.941,0.29 -1.568,1.072 -2.415,1.504 -0.29,0.149 -0.558,0.344 -0.826,0.532 -0.578,0.405 -1.094,0.965 -1.732,1.202 -2.006,0.743 -4.057,1.363 -6.088,2.037 -0.411,0.135 -0.815,0.293 -1.222,0.441 0.019,0.072 0.038,0.144 0.058,0.216 l 1.128,-0.218 c 0.03,0.069 0.061,0.137 0.091,0.205 -0.374,0.197 -0.728,0.477 -1.126,0.571 -0.583,0.137 -1.203,0.982 -1.804,0.005 -0.025,-0.041 -0.197,-0.016 -0.288,0.015 -1.752,0.57 -3.549,1.044 -5.034,2.215 -0.767,0.605 -1.43,1.462 -2.297,1.792 -1.104,0.42 -1.881,1.124 -2.662,1.907 -0.138,0.138 -0.314,0.238 -0.471,0.358 -0.895,0.687 -1.83,1.328 -2.667,2.079 -0.518,0.464 -0.885,1.095 -1.343,1.682 -0.337,-0.402 -0.436,-0.52 -0.668,-0.798 -0.518,0.591 -0.969,1.139 -1.455,1.653 -1.357,1.435 -2.586,3.001 -4.25,4.128 -0.302,0.205 -0.52,0.546 -0.749,0.846 -0.735,0.968 -1.438,1.961 -2.189,2.915 -1.668,2.117 -3.363,4.21 -4.462,6.707 -0.17,0.385 -0.476,0.712 -0.726,1.06 -0.037,0.051 -0.116,0.071 -0.237,0.142 0.047,-0.227 0.081,-0.394 0.116,-0.562 -0.417,0.277 -0.793,0.599 -0.918,0.999 -0.486,1.559 -0.897,3.141 -1.328,4.717 -0.278,1.016 -0.417,2.09 -0.836,3.042 -0.896,2.041 -1.913,4.031 -2.928,6.018 -0.207,0.405 -0.738,0.654 -0.913,1.064 -0.382,0.891 -0.716,1.821 -0.913,2.768 -0.367,1.765 -0.605,3.556 -0.935,5.329 -0.091,0.49 -0.407,0.945 -0.464,1.435 -0.326,2.786 -0.13,5.632 -1.065,8.35 -0.63,1.832 -0.342,3.787 0.004,5.559 0.569,2.922 0.605,5.828 0.662,8.761 0.014,0.712 0.289,1.433 0.526,2.121 0.443,1.283 0.949,2.545 1.421,3.819 0.041,0.108 0.073,0.247 0.042,0.351 -0.162,0.541 -0.285,1.125 0.244,1.484 0.996,0.679 1.306,1.621 1.274,2.751 -0.004,0.174 0.061,0.349 0.091,0.524 0.502,2.997 1.727,5.732 3.131,8.386 0.887,1.675 1.933,3.267 2.893,4.904 0.447,0.764 0.869,1.542 1.289,2.321 0.433,0.802 0.715,1.732 1.301,2.395 1.122,1.268 2.352,2.463 3.652,3.55 1.475,1.234 3.144,2.19 4.261,3.88 0.78,1.181 2.05,2.027 2.964,3.134 1.451,1.756 2.771,3.62 4.189,5.405 0.254,0.32 0.697,0.634 1.082,0.676 1.206,0.131 2.425,0.179 3.639,0.174 25.771,-0.1 51.542,-0.213 77.313,-0.325 0.557,-0.003 1.117,0.001 1.671,-0.053 0.225,-0.021 0.516,-0.13 0.643,-0.299 1.191,-1.603 2.348,-3.231 3.526,-4.843 0.174,-0.238 0.386,-0.463 0.624,-0.635 0.872,-0.632 1.762,-1.238 2.646,-1.855 0.161,-0.112 0.309,-0.284 0.487,-0.328 2.105,-0.519 3.828,-1.475 4.578,-3.692 0.258,-0.764 0.62,-1.498 0.995,-2.214 0.539,-1.029 1.054,-2.085 1.722,-3.027 1.23,-1.735 2.57,-3.39 3.847,-5.09 0.209,-0.278 0.375,-0.602 0.498,-0.929 1.455,-3.858 2.904,-7.713 4.83,-11.38 0.518,-0.985 0.803,-2.262 0.708,-3.363 -0.202,-2.361 0.024,-4.582 1.066,-6.712 0.145,-0.295 0.246,-0.61 0.372,-0.914 0.527,-1.276 0.979,-2.593 1.62,-3.81 0.31,-0.589 0.577,-1.068 0.356,-1.731"
               style="fill:#110f0d;fill-opacity:1;fill-rule:nonzero;stroke:none"
               id="path1769" />
          </g>
        </g>
        <g
           id="g1771"
           transform="matrix(0.1531793,0,0,-0.1519643,116.14006,365.86371)">
          <g
             id="g1773"
             transform="translate(12.3838,-27.6176)">
            <path
               d="m 0,0 c -0.194,0.353 -0.39,0.707 -0.586,1.06 0.338,0.086 0.673,0.181 1.003,0.286 L 0.795,0.324 C 0.528,0.217 0.263,0.109 0,0"
               style="fill:#110f0d;fill-opacity:1;fill-rule:nonzero;stroke:none"
               id="path1775" />
          </g>
        </g>
        <g
           id="g1777"
           transform="matrix(0.1531793,0,0,-0.1519643,116.14006,365.86371)">
          <g
             id="g1779"
             transform="translate(6.6377,-15.641)">
            <path
               d="m 0,0 c -0.274,0.552 -0.548,1.106 -0.815,1.66 0.187,0.143 0.375,0.285 0.554,0.435 1.391,1.158 2.381,2.678 3.243,4.256 1.051,1.927 1.373,4.073 1.424,6.245 0.046,1.929 -0.273,3.806 -0.485,5.719 -0.215,1.941 -0.35,3.891 -0.357,5.845 -0.005,1.491 0.169,2.973 0.493,4.424 0.422,-0.793 0.791,-1.61 1.227,-2.397 C 6.042,24.824 6.669,23.403 7.097,21.903 7.571,20.237 7.848,18.565 8.16,16.864 8.421,15.443 8.424,13.891 8.3,12.457 8.045,9.535 6.43,6.988 4.535,4.833 3.985,4.208 3.563,3.493 3.002,2.877 2.505,2.331 1.963,1.819 1.438,1.297 0.977,0.837 0.498,0.408 0,0"
               style="fill:#110f0d;fill-opacity:1;fill-rule:nonzero;stroke:none"
               id="path1781" />
          </g>
        </g>
        <g
           id="g1783"
           transform="matrix(0.1531793,0,0,-0.1519643,116.14006,365.86371)">
          <g
             id="g1785"
             transform="translate(-39.4546,60.2633)">
            <path
               d="M 0,0 C 0.63,0.581 1.242,1.179 1.892,1.742 2.109,1.931 2.4,2.112 2.69,2.17 4.705,2.568 6.729,2.926 8.747,3.313 9.079,3.378 9.429,3.48 9.702,3.65 c 1.006,0.629 1.953,1.332 2.978,1.934 1.203,0.705 2.457,1.345 3.703,1.992 0.625,0.325 1.245,0.745 1.929,0.881 1.963,0.39 3.958,0.66 5.941,0.966 0.206,0.031 0.429,-0.007 0.641,-0.029 0.7,-0.074 1.434,-0.313 2.093,-0.203 1.997,0.336 3.826,-0.229 5.665,-0.682 0.955,-0.237 1.726,-0.024 2.511,0.337 0.1,0.046 0.067,0.314 0.129,0.667 1.535,0.284 3.242,0.688 4.98,0.888 1.033,0.12 2.114,-0.09 3.175,-0.134 0.452,-0.018 0.924,-0.053 1.356,0.034 0.794,0.158 1.565,0.568 2.347,0.573 1.373,0.009 2.746,-0.261 4.123,-0.311 0.617,-0.022 0.725,-0.553 1.154,-0.649 0.807,-0.179 1.642,-0.26 2.465,-0.382 0.003,0.025 0.005,0.05 0.008,0.074 -0.208,0.092 -0.415,0.184 -0.768,0.339 1.584,0.272 1.911,0.18 2.81,-0.676 0.144,-0.138 0.29,-0.325 0.475,-0.374 1,-0.27 1.665,-0.998 2.564,-1.4 0.309,-0.138 0.593,-0.319 0.878,-0.494 0.613,-0.377 1.162,-0.898 1.84,-1.118 2.13,-0.692 4.307,-1.269 6.466,-1.895 C 69.601,3.861 70.03,3.715 70.462,3.577 70.442,3.511 70.421,3.443 70.401,3.376 70.001,3.443 69.603,3.512 69.204,3.579 69.17,3.516 69.138,3.452 69.106,3.389 69.502,3.206 69.879,2.945 70.302,2.857 70.92,2.729 71.58,1.943 72.218,2.853 c 0.027,0.038 0.208,0.014 0.306,-0.013 1.861,-0.531 3.769,-0.972 5.347,-2.062 0.815,-0.563 1.518,-1.36 2.439,-1.667 0.676,-0.225 1.231,-0.544 1.742,-0.907 H -2.155 C -1.388,-1.247 -0.687,-0.634 0,0"
               style="fill:#110f0d;fill-opacity:1;fill-rule:nonzero;stroke:none"
               id="path1787" />
          </g>
        </g>
      </g>
    </g>
  </g>
</svg>
