<?xml version="1.0" encoding="UTF-8" standalone="no"?>
<!-- Created with Inkscape (http://www.inkscape.org/) -->

<svg
   width="24.179976"
   height="24"
   viewBox="0 0 6.3976185 6.35"
   version="1.1"
   id="svg7583"
   inkscape:version="1.2.1 (9c6d41e4, 2022-07-14)"
   sodipodi:docname="return-to-at-deaths-doorstep.svg"
   xmlns:inkscape="http://www.inkscape.org/namespaces/inkscape"
   xmlns:sodipodi="http://sodipodi.sourceforge.net/DTD/sodipodi-0.dtd"
   xmlns="http://www.w3.org/2000/svg"
   xmlns:svg="http://www.w3.org/2000/svg">
  <sodipodi:namedview
     id="namedview7585"
     pagecolor="#505050"
     bordercolor="#eeeeee"
     borderopacity="1"
     inkscape:showpageshadow="0"
     inkscape:pageopacity="0"
     inkscape:pagecheckerboard="0"
     inkscape:deskcolor="#505050"
     inkscape:document-units="mm"
     showgrid="false"
     inkscape:zoom="0.7046647"
     inkscape:cx="-9.9338025"
     inkscape:cy="178.09889"
     inkscape:window-width="1390"
     inkscape:window-height="941"
     inkscape:window-x="0"
     inkscape:window-y="25"
     inkscape:window-maximized="0"
     inkscape:current-layer="layer1" />
  <defs
     id="defs7580">
    <clipPath
       clipPathUnits="userSpaceOnUse"
       id="clipPath1443">
      <path
         d="m 39.282,438.441 h 22.057 v 21.883 H 39.282 Z"
         id="path1441" />
    </clipPath>
  </defs>
  <g
     inkscape:label="Layer 1"
     inkscape:groupmode="layer"
     id="layer1"
     transform="translate(-107.94152,-101.58228)">
    <g
       id="g1437"
       transform="matrix(0.29700995,0,0,-0.29700995,96.166139,238.16658)">
      <g
         id="g1439"
         clip-path="url(#clipPath1443)">
        <g
           id="g1445"
           transform="matrix(0.1531793,0,0,-0.1519643,50.31089,449.29501)">
          <g
             id="g1447"
             transform="translate(38.3594,30.1764)">
            <path
               d="m 0,0 v 0 c -0.707,1.195 -1.744,2.423 -3.303,2.826 -0.771,0.196 -1.551,0.423 -2.384,0.57 L -5.68,3.395 -5.687,3.396 c -0.909,0.159 -1.819,0.218 -2.726,0.218 h -0.022 -10e-4 -0.241 c -0.427,0 -0.867,-0.004 -1.333,-0.07 -0.493,-0.07 -0.979,-0.167 -1.456,-0.274 h 10e-4 -0.002 c -0.914,-0.209 -1.595,-0.607 -2.312,-1.034 -0.186,-0.112 -0.423,-0.224 -0.672,-0.413 -0.254,-0.197 -0.428,-0.347 -0.628,-0.45 L -15.08,1.372 c -0.233,-0.126 -0.37,-0.258 -0.468,-0.315 -0.248,-0.155 -0.528,-0.301 -0.816,-0.472 h -10e-4 c -0.63,-0.375 -1.275,-0.732 -1.928,-1.04 -0.596,-0.282 -1.259,-0.503 -1.927,-0.777 l 10e-4,10e-4 c -0.536,-0.221 -1.066,-0.448 -1.555,-0.54 -0.051,-0.008 -0.131,-0.013 -0.231,-0.013 l -0.177,0.001 c -0.149,-0.001 -0.325,-0.002 -0.527,-0.059 l -0.541,-0.154 0.218,-0.52 0.122,-0.188 0.174,-0.141 c 0.1,-0.067 0.246,-0.153 0.486,-0.287 l 0.027,-0.128 0.287,-0.083 c 0.246,-0.061 0.375,-0.049 0.399,-0.063 l -0.003,0.001 c 0.392,-0.11 0.769,-0.186 1.201,-0.185 l 0.192,0.005 h -0.001 c 0.652,0.032 1.341,0.213 1.946,0.45 l -0.724,-2.001 1.852,2.264 0.192,0.234 0.051,0.05 c 0.009,0.013 0.018,0.023 0.03,0.04 0.003,10e-4 0.006,0.003 0.009,0.004 0.5,0.23 0.909,0.523 1.299,0.728 h 10e-4 c 0.276,0.147 0.554,0.289 0.831,0.414 0.362,0.164 0.78,0.25 1.259,0.393 h 10e-4 c 0.353,0.112 0.634,0.217 0.887,0.237 0.109,0.009 0.222,0.012 0.342,0.012 0.183,0 0.38,-0.008 0.59,-0.008 h 0.023 0.026 c 1.188,0.001 2.39,-0.307 3.354,-0.955 0.78,-0.517 1.295,-1.461 1.615,-2.431 0.077,-0.232 0.115,-0.43 0.115,-0.593 C -6.453,-4.967 -6.5,-5.128 -6.67,-5.34 L -6.671,-5.341 C -6.785,-5.48 -6.923,-5.619 -7.052,-5.717 l -0.001,-0.001 -0.129,-0.07 C -7.23,-5.806 -7.318,-5.826 -7.448,-5.862 -7.544,-5.89 -7.664,-5.898 -7.823,-5.898 h -0.009 c -0.025,0.002 -0.058,0.006 -0.077,0.006 l -0.16,-0.004 h -0.007 l -0.004,-0.791 -0.057,-0.042 0.056,-0.074 -0.001,-0.093 h 0.013 0.066 l 0.011,-0.01 c 0.067,-0.064 0.158,-0.129 0.255,-0.171 0.095,-0.043 0.18,-0.062 0.255,-0.076 h -0.002 l 0.005,-0.001 c -0.001,0 -0.002,0.001 -0.003,0.001 0.172,-0.035 0.348,-0.051 0.523,-0.051 0.741,0.004 1.477,0.265 2.035,0.67 h -10e-4 10e-4 c 0.172,0.126 0.346,0.263 0.513,0.413 h 10e-4 c 0.245,0.226 0.615,0.478 0.919,0.844 0.086,0.104 0.141,0.215 0.204,0.323 l -10e-4,-0.033 0.118,-0.008 -0.117,0.016 0.251,-0.034 0.372,-0.615 0.037,0.028 0.003,-0.004 c 0.149,0.106 0.418,0.208 0.708,0.408 0.741,0.522 1.409,1.157 1.915,1.948 H 0 c 0.309,0.485 0.449,1.042 0.449,1.59 C 0.448,-1.077 0.294,-0.5 0,0 m -11.836,15.309 v 0.001 c -0.004,0.465 -0.141,0.874 -0.312,1.226 -0.172,0.355 -0.378,0.663 -0.554,0.96 -0.392,0.658 -0.87,1.182 -1.396,1.678 -0.674,0.63 -1.53,0.978 -2.229,1.314 h -10e-4 c -0.629,0.296 -1.282,0.344 -1.886,0.345 -0.381,0 -0.747,-0.021 -1.086,-0.023 -1.202,-0.015 -2.3,-0.494 -3.262,-0.961 l -10e-4,-0.001 c -0.432,-0.216 -0.804,-0.531 -1.103,-0.732 h -0.001 c -0.295,-0.203 -0.63,-0.435 -0.906,-0.788 l -0.001,-10e-4 c -0.453,-0.584 -0.804,-1.147 -1.087,-1.85 l 0.001,0.001 c -0.189,-0.464 -0.424,-0.936 -0.66,-1.406 h -0.001 c -0.26,-0.533 -0.703,-1.08 -0.925,-1.851 -0.124,-0.451 -0.16,-0.664 -0.352,-0.929 l 10e-4,10e-4 c -0.205,-0.283 -0.362,-0.558 -0.525,-0.794 -0.5,-0.729 -0.899,-1.397 -1.447,-1.99 -0.411,-0.448 -0.85,-0.914 -1.288,-1.257 L -30.859,8.251 C -30.989,8.149 -31.09,8.049 -31.17,7.96 l -0.219,-0.244 10e-4,10e-4 c -0.002,-0.01 -0.111,-0.081 -0.265,-0.168 -0.148,-0.094 -0.368,-0.215 -0.518,-0.506 -0.102,-0.226 -0.102,-0.402 -0.106,-0.578 10e-4,-0.283 0.04,-0.572 0.041,-0.69 0.014,-0.426 0.101,-0.718 0.095,-0.921 C -32.142,4.746 -32.154,4.657 -32.2,4.539 -32.368,4.103 -32.736,3.61 -33.093,3.173 -33.194,3.032 -33.484,2.889 -33.827,2.677 -34.278,2.376 -35.006,2.04 -35.506,1.494 l -0.601,-0.672 0.889,-0.154 c 0.118,-0.02 0.236,-0.029 0.35,-0.029 0.684,0.006 1.248,0.304 1.709,0.528 0.189,0.093 0.324,0.133 0.488,0.165 0.162,0.031 0.361,0.05 0.63,0.084 0.002,0 0.003,0.001 0.005,0.001 0.131,-0.033 0.263,-0.061 0.389,-0.062 0.398,0.004 0.757,0.121 1.051,0.273 l 0.061,-10e-4 0.001,0.03 c 0.844,0.474 1.39,1.085 1.972,1.719 0.496,0.542 1.083,1.109 1.541,1.794 0,-0.001 0,-0.001 -10e-4,-0.001 l 10e-4,0.001 c 0.353,0.533 0.777,1.051 0.983,1.828 0.059,0.227 0.143,0.47 0.217,0.745 V 7.742 l 0.001,0.004 c 0,-0.001 0,-0.002 -0.001,-0.003 0.053,0.198 0.057,0.375 0.057,0.512 v 0.139 l 0.008,0.173 v 10e-4 c 0.076,0.752 0.589,1.557 0.902,2.495 0.256,0.791 0.699,1.275 1.398,1.878 0.215,0.186 0.582,0.468 0.971,0.693 0.387,0.228 0.807,0.383 1.055,0.376 0.112,-10e-4 0.18,-0.022 0.235,-0.055 l 0.002,-10e-4 c 0.012,0 0.12,-0.113 0.203,-0.276 0.088,-0.162 0.168,-0.36 0.236,-0.524 0.09,-0.216 0.111,-0.425 0.111,-0.71 0,-0.096 -0.002,-0.2 -0.004,-0.311 v -0.002 l -0.002,-0.036 -0.081,-0.045 c -0.282,-0.166 -0.438,-0.279 -0.606,-0.321 l -0.799,-0.212 0.56,-0.609 c 0.201,-0.223 0.491,-0.3 0.707,-0.295 0.246,0.002 0.448,0.067 0.622,0.128 0.173,0.063 0.32,0.131 0.397,0.16 0.196,0.076 0.444,0.164 0.694,0.294 0.248,0.131 0.51,0.305 0.705,0.592 v -0.001 l 10e-4,0.001 h -10e-4 c 0.326,0.483 0.382,1.001 0.38,1.437 0,0.283 -0.021,0.545 -0.02,0.782 0,0.074 0.008,0.14 0.012,0.21 0.098,0.02 0.182,0.043 0.234,0.057 l 0.12,0.022 0.116,-0.019 c 0.727,-0.187 1.504,-0.344 1.897,-0.69 0.31,-0.259 0.551,-0.574 0.73,-0.94 0.205,-0.413 0.472,-0.865 0.557,-1.174 0.022,-0.074 0.039,-0.19 0.039,-0.305 0,-0.112 -0.016,-0.227 -0.044,-0.306 l -0.055,-0.102 c -0.021,-0.021 -0.037,-0.043 -0.058,-0.064 l 0.673,-0.737 c 0.016,0.013 0.024,0.03 0.039,0.045 l 0.005,-0.005 c 0.292,0.3 0.539,0.605 0.778,0.935 0.589,0.814 0.825,1.646 1.044,2.519 0.145,0.579 0.168,1.117 0.168,1.656 z m -25.22,-16.105 c -0.006,0.021 -0.013,0.033 -0.018,0.055 -0.062,0.24 -0.095,0.515 -0.115,0.697 -0.112,0.95 -0.176,1.928 -0.301,2.914 -0.093,0.729 -0.319,1.38 -0.435,1.987 -0.126,0.636 -0.15,1.327 -0.262,2.055 l -0.01,0.143 c -0.002,0.195 0.062,0.417 0.155,0.689 0.09,0.272 0.208,0.593 0.226,0.985 0.009,0.199 0.012,0.398 0.012,0.594 0,0.5 -0.019,0.99 -0.019,1.461 v 0.133 l 10e-4,0.123 c -10e-4,0.856 -0.071,1.775 -0.248,2.625 -0.243,1.163 -0.484,2.398 -1.014,3.56 -0.433,0.94 -1.059,1.636 -1.617,2.348 -0.244,0.301 -0.462,0.771 -0.94,1.159 -0.457,0.346 -0.935,0.444 -1.176,0.609 h -10e-4 c -0.55,0.33 -1.066,0.945 -1.851,1.354 -0.44,0.223 -0.905,0.287 -1.344,0.287 -0.606,-10e-4 -1.182,-0.119 -1.666,-0.183 l 0.015,0.002 -0.016,-0.002 c -1.25,-0.171 -2.31,-0.659 -3.372,-1.076 l 0.013,0.006 -0.014,-0.006 c -0.774,-0.306 -1.513,-0.611 -2.267,-1.068 -0.774,-0.465 -1.215,-1.104 -1.56,-1.826 -0.272,-0.557 -0.293,-1.078 -0.292,-1.553 0,-0.106 10e-4,-0.213 10e-4,-0.321 0,-0.22 -0.013,-0.479 -0.013,-0.754 0.002,-0.388 0.021,-0.808 0.166,-1.222 0.14,-0.413 0.449,-0.823 0.936,-1.042 l 10e-4,-10e-4 c 0.088,-0.04 0.22,-0.133 0.383,-0.245 0.165,-0.106 0.373,-0.242 0.675,-0.28 h 0.001 l 0.23,-0.012 c 0.143,0.001 0.262,0.01 0.356,0.009 l 0.112,-0.005 1.271,-0.124 -0.848,0.954 c -0.162,0.173 -0.315,0.345 -0.325,0.393 l -0.002,0.004 -0.015,0.179 c 0,0.126 0.015,0.286 0.018,0.462 V 15.27 c 0.004,0.149 0.051,0.264 0.161,0.417 0.108,0.149 0.282,0.312 0.479,0.491 0.38,0.348 0.814,0.73 1.204,0.988 0.223,0.149 0.555,0.239 0.94,0.285 0.383,0.047 0.808,0.053 1.212,0.088 0.174,0.016 0.341,0.023 0.503,0.023 0.74,-0.001 1.384,-0.15 2.151,-0.426 0.809,-0.292 1.425,-0.566 2.071,-1.049 0.558,-0.415 1.006,-1.107 1.478,-1.792 v -10e-4 c 0.415,-0.596 0.718,-1.275 1.059,-1.993 v 10e-4 c 0.303,-0.64 0.59,-1.229 0.764,-1.85 0.125,-0.447 0.177,-0.929 0.176,-1.42 0,-0.214 -0.009,-0.428 -0.026,-0.643 -0.047,-0.647 -0.042,-1.307 -0.203,-1.77 V 6.618 C -40.309,6.459 -40.369,6.317 -40.428,6.14 -40.485,5.963 -40.534,5.751 -40.54,5.505 l -0.002,-0.12 c 0,-0.184 0.01,-0.351 0.01,-0.498 V 4.886 l 10e-4,-0.126 c 0,-0.135 -10e-4,-0.271 -10e-4,-0.407 0,-0.481 0.02,-0.99 0.163,-1.526 0.092,-0.4 0.211,-0.727 0.355,-1.056 0.18,-0.499 0.372,-1 0.612,-1.476 v 0.001 l 10e-4,-0.002 c 0,0.001 -10e-4,0.001 -10e-4,0.001 0.084,-0.164 0.177,-0.283 0.245,-0.381 0.07,-0.096 0.109,-0.169 0.114,-0.189 l 0.319,0.104 c 0.267,-0.35 0.53,-0.692 0.75,-1.035 0.031,-0.092 0.06,-0.184 0.102,-0.273 0.079,-0.16 0.181,-0.325 0.357,-0.461 l 1.63,-1.239 -0.875,1.851 c -0.089,0.185 -0.191,0.36 -0.296,0.532 m -18.505,11.034 v -0.009 c 10e-4,-0.26 0.07,-0.467 0.122,-0.632 0.055,-0.165 0.095,-0.29 0.103,-0.376 v 10e-4 c 0.031,-0.301 0.151,-0.573 0.315,-0.775 0.163,-0.204 0.351,-0.344 0.533,-0.471 l 0.537,-0.372 0.219,0.616 c 0.036,0.103 0.042,0.193 0.042,0.256 l -0.003,0.061 0.101,0.169 0.01,0.023 c 0.073,0.152 0.143,0.308 0.205,0.48 l 0.009,0.008 c 0.024,0.022 0.104,0.073 0.215,0.158 V 9.374 c 0.192,0.15 0.334,0.249 0.458,0.306 0.125,0.055 0.238,0.085 0.436,0.087 h 0.059 c 0.316,-0.003 0.428,-0.012 0.603,-0.117 l 0.002,-0.002 c 0.186,-0.113 0.379,-0.249 0.5,-0.37 l 0.002,-0.001 c 0.373,-0.36 0.671,-0.959 0.773,-1.484 v 10e-4 c 0.131,-0.642 0.297,-1.241 0.294,-1.776 v -0.05 0.001 l -0.002,-0.143 c 0,-0.103 0.004,-0.235 0.05,-0.387 0.045,-0.151 0.143,-0.308 0.27,-0.426 V 5.012 c 0.131,-0.124 0.297,-0.259 0.48,-0.383 0.098,-0.065 0.198,-0.125 0.303,-0.18 0.179,-0.281 0.432,-0.545 0.797,-0.699 l -0.009,0.004 0.009,-0.004 h 10e-4 c 0.255,-0.106 0.496,-0.119 0.688,-0.119 0.11,0 0.209,0.004 0.293,0.005 h 10e-4 c 0.181,0.002 0.362,0.002 0.545,0.002 h 0.366 c 0.68,0 1.361,-0.002 2.043,-0.002 0.322,0 0.644,0 0.966,0.002 0.001,0 0.002,-10e-4 0.004,-10e-4 l 0.054,10e-4 h 0.007 l -0.011,1 h -0.055 c -0.27,0.002 -0.47,0.039 -0.73,0.141 -0.281,0.112 -0.505,0.316 -0.842,0.591 -0.291,0.242 -0.422,0.424 -0.494,0.737 -0.057,0.242 -0.034,0.605 -0.158,1.039 -0.162,0.526 -0.399,0.939 -0.507,1.322 -0.195,0.666 -0.589,1.121 -0.968,1.547 -0.381,0.422 -0.738,0.964 -1.268,1.431 -0.459,0.4 -1.009,0.643 -1.508,0.828 h -10e-4 c -0.476,0.175 -0.956,0.259 -1.456,0.258 l -0.121,-10e-4 h 0.001 -0.003 0.002 c -0.565,-0.013 -1.087,-0.069 -1.592,-0.07 h -10e-4 c -0.58,-0.004 -1.019,-0.217 -1.421,-0.408 -0.203,-0.096 -0.379,-0.206 -0.524,-0.354 -0.145,-0.147 -0.239,-0.3 -0.343,-0.47 l 10e-4,0.001 c -0.056,-0.093 -0.144,-0.214 -0.23,-0.373 -0.084,-0.157 -0.17,-0.366 -0.172,-0.619 m -2.483,-5.704 v 0 C -58.263,4.491 -58.48,4.44 -58.695,4.377 l -0.022,-0.006 -0.022,-0.009 c -0.166,-0.066 -0.332,-0.13 -0.498,-0.19 -0.302,-0.085 -0.649,-0.121 -1.008,-0.12 -0.297,0 -0.603,0.022 -0.898,0.054 h -10e-4 c -0.54,0.057 -1.063,0.099 -1.508,0.227 h -10e-4 c -0.37,0.105 -0.758,0.266 -1.188,0.405 l 0.004,-0.001 -0.004,0.001 h -10e-4 c -0.611,0.198 -1.218,0.365 -1.793,0.561 l 0.001,-0.001 c -0.458,0.156 -0.929,0.335 -1.47,0.436 -0.686,0.127 -1.354,0.119 -1.949,0.174 -0.569,0.051 -1.116,0.053 -1.658,0.053 h -0.035 c -0.67,-0.001 -1.38,-0.025 -2.101,-0.342 h 10e-4 L -72.849,5.618 C -72.88,5.604 -72.959,5.578 -73.06,5.545 -73.161,5.51 -73.288,5.467 -73.429,5.371 -73.594,5.254 -73.702,5.124 -73.804,4.998 -73.902,4.874 -73.986,4.753 -74.044,4.674 V 4.673 4.674 c -0.316,-0.432 -0.607,-0.906 -0.743,-1.488 -0.026,-0.131 -0.15,-0.35 -0.286,-0.57 h -0.001 V 2.615 c 0.01,-0.008 -0.099,-0.083 -0.271,-0.297 l 0.001,10e-4 -0.001,-0.002 V 2.318 C -75.37,2.282 -75.387,2.254 -75.406,2.223 -75.42,2.211 -75.434,2.204 -75.448,2.192 h -0.001 L -75.46,2.185 -75.512,2.146 C -75.556,2.11 -75.626,2.06 -75.699,1.944 -75.747,1.868 -75.79,1.753 -75.79,1.627 l 0.032,-0.192 0.149,-0.448 0.455,0.123 c 0.172,0.049 0.261,0.135 0.328,0.202 l 0.149,0.191 c 0.008,0.012 0.013,0.02 0.02,0.032 0.156,0.113 0.336,0.228 0.537,0.358 V 1.892 c 0.486,0.315 0.925,0.628 1.388,0.883 0.352,0.198 0.846,0.378 1.217,0.42 h 0.001 c 0.144,0.018 0.302,0.024 0.468,0.024 0.27,0.001 0.563,-0.017 0.866,-0.017 h 0.059 -0.002 0.036 c 0.465,-0.003 0.768,-0.061 1.136,-0.267 0.331,-0.187 0.665,-0.447 1.051,-0.696 0.368,-0.231 0.71,-0.354 0.95,-0.509 h -10e-4 l 0.002,-10e-4 c 0.226,-0.139 0.477,-0.361 0.717,-0.58 0.243,-0.229 0.515,-0.368 0.808,-0.46 l 0.001,-0.001 c 0.224,-0.07 0.512,-0.226 0.894,-0.305 0.345,-0.067 0.688,-0.089 1.024,-0.089 0.498,0 0.981,0.049 1.432,0.088 0.821,0.07 1.61,0.222 2.382,0.359 h 0.001 c 0.845,0.154 1.648,0.345 2.434,0.404 0.302,0.023 0.619,0.039 0.94,0.039 1.193,0.003 2.414,-0.221 3.171,-0.892 h 0.001 c 0.423,-0.367 0.73,-0.859 0.82,-1.377 l -0.077,-0.06 -0.107,-0.129 c -0.026,-0.048 -0.073,-0.117 -0.077,-0.271 l 0.078,-0.27 0.193,-0.179 c 0.127,-0.064 0.199,-0.059 0.25,-0.062 l 0.181,0.025 0.109,0.033 0.337,0.065 0.086,0.292 c 0.007,0.025 0.003,0.041 0.008,0.064 0.25,0.211 0.477,0.431 0.677,0.634 0.52,0.534 1.026,1.168 1.327,1.919 0.139,0.352 0.248,0.723 0.249,1.129 0.001,0.295 -0.062,0.603 -0.201,0.901 l -0.001,0.001 c -0.34,0.726 -0.896,1.469 -1.751,1.835 l 10e-4,-10e-4 -10e-4,10e-4 h -10e-4 c -0.648,0.271 -1.285,0.337 -1.889,0.337 -0.468,-0.001 -0.921,-0.038 -1.368,-0.056 h -10e-4 C -55.221,5.081 -56.196,5.094 -57.197,4.82 -57.544,4.722 -57.813,4.593 -58.044,4.534 m -4.113,-13.395 c -0.077,-0.696 -0.174,-1.407 -0.181,-2.155 -0.002,-0.181 -0.003,-0.363 -0.003,-0.544 0,-0.566 0.007,-1.128 0.007,-1.683 0,-1.076 0.017,-2.15 0.017,-3.216 0,-0.83 -0.01,-1.655 -0.046,-2.477 -0.036,-0.838 -0.161,-1.706 -0.189,-2.617 -0.009,-0.307 -0.012,-0.615 -0.012,-0.922 10e-4,-0.757 0.02,-1.508 0.02,-2.248 0,-0.797 -0.001,-1.593 -0.003,-2.391 v 0.001 -0.046 c 0,-0.97 0.075,-1.908 0.074,-2.826 v -0.051 c -10e-4,-0.552 -0.008,-1.109 -0.008,-1.669 0,-0.358 0.002,-0.716 0.012,-1.076 v -10e-4 c 0.021,-0.773 0.083,-1.531 0.116,-2.273 v -10e-4 c 0.095,-2.035 0.27,-4.052 0.359,-6.06 0.026,-0.582 0.035,-1.17 0.035,-1.76 0,-0.977 -0.023,-1.962 -0.023,-2.95 0,-0.616 0.014,-1.227 0.014,-1.829 0,-1.068 -0.044,-2.108 -0.269,-3.11 -0.307,-1.371 -0.547,-2.75 -0.663,-4.16 -0.058,-0.701 -0.165,-1.424 -0.207,-2.177 -0.081,-1.466 -0.302,-2.963 -0.56,-4.432 -0.236,-1.366 -0.146,-2.672 -0.25,-3.917 v -0.001 c -0.039,-0.491 -0.048,-0.979 -0.049,-1.461 10e-4,-0.544 0.013,-1.08 0.013,-1.606 v -0.128 0.001 c -10e-4,-0.108 -0.002,-0.216 -0.002,-0.326 0,-0.375 0.01,-0.766 0.073,-1.174 l 10e-4,-0.001 c 0.08,-0.497 0.218,-0.929 0.27,-1.32 h -0.001 c 0.094,-0.679 0.226,-1.307 0.224,-1.898 v -0.044 l 0.5,-0.006 -0.5,0.004 c 0.002,-0.023 -0.013,-0.159 -0.014,-0.308 10e-4,-0.083 0.004,-0.175 0.029,-0.288 0.028,-0.108 0.078,-0.262 0.244,-0.397 0.108,-0.088 0.263,-0.135 0.391,-0.133 l 0.125,0.012 0.136,0.024 5.814,5.063 -0.976,-0.037 c 0.017,0.059 0.035,0.12 0.041,0.189 v -0.001 0.002 -0.001 l 0.007,0.154 c -10e-4,0.141 -0.012,0.256 -0.011,0.327 v 0.001 c -0.002,0.799 -0.003,1.598 -0.003,2.398 0,0.971 10e-4,1.942 0.003,2.914 v 0.002 0.008 c -0.001,0.787 -0.061,1.538 -0.074,2.277 -0.005,0.208 -0.007,0.416 -0.007,0.624 0,0.749 0.026,1.5 0.065,2.254 0.054,1.052 0.047,2.087 0.103,3.099 0.058,1.054 0.131,2.115 0.181,3.18 0.026,0.6 0.001,1.168 0.026,1.708 0.029,0.615 0.078,1.24 0.11,1.875 0.055,1.063 0.128,2.135 0.159,3.217 0.025,0.905 0.075,1.819 0.075,2.749 0,0.307 -0.006,0.616 -0.019,0.926 -0.065,1.479 -0.199,2.927 -0.198,4.362 v 0.068 c 10e-4,0.551 0.011,1.109 0.011,1.672 0,0.434 -0.006,0.871 -0.026,1.31 -0.051,1.085 -0.046,2.186 -0.11,3.307 -0.021,0.37 -0.027,0.745 -0.027,1.124 0,0.518 0.011,1.043 0.012,1.575 v 0.042 c 0,1.394 -0.07,2.765 -0.07,4.127 v 0.094 0.125 c 0,1.639 -0.071,3.258 -0.07,4.867 v 0.123 0.156 c 0,1.239 -0.034,2.474 -0.089,3.708 -0.053,1.177 -0.122,2.343 -0.121,3.495 v 0.189 0.069 c 0,0.716 -0.072,1.392 -0.072,2.04 -0.005,0.51 0.188,1.056 0.28,1.742 v 0.001 c 0.042,0.354 0.152,0.736 0.226,1.182 v 0.001 c 0.031,0.194 0.071,0.403 0.104,0.624 l 0.177,0.845 -0.586,0.027 -0.05,0.002 c -0.222,-0.002 -0.385,-0.065 -0.491,-0.099 -0.11,-0.039 -0.164,-0.049 -0.178,-0.048 h -0.004 c -0.042,-0.005 -0.171,0.033 -0.381,0.081 -0.31,0.063 -0.627,0.103 -0.937,0.125 l -0.137,0.005 c -0.344,-0.001 -0.636,-0.088 -0.884,-0.164 -0.248,-0.078 -0.456,-0.145 -0.643,-0.168 h -10e-4 c -0.092,-0.016 -0.276,0.01 -0.548,-0.029 h -0.003 -10e-4 c -0.126,-0.024 -0.198,-0.046 -0.218,-0.048 l -2.138,0.384 1.757,-1.273 c 0.008,-0.029 0.018,-0.117 0.047,-0.258 l 10e-4,-0.003 c 0.146,-0.639 0.234,-1.295 0.234,-1.939 0,-0.246 -0.013,-0.49 -0.04,-0.731 m 1.59,-68.594 0.128,0.035 0.038,0.018 0.198,0.137 0.015,0.015 0.143,0.032 0.002,0.001 c 0.459,0.107 0.977,0.154 1.506,0.221 0.892,0.115 1.811,0.136 2.743,0.136 0.509,0 1.023,-0.006 1.537,-0.006 h 0.02 c 0.517,0 1.03,0.009 1.536,0.009 0.38,0 0.757,-0.005 1.128,-0.022 0.75,-0.035 1.52,-0.11 2.315,-0.124 1.482,-0.025 2.981,-0.135 4.506,-0.135 h 0.079 c 0.575,0.001 1.151,0.002 1.726,0.002 1.035,0 2.072,-0.002 3.108,-0.002 0.933,0 1.866,0.001 2.799,0.001 0.466,0 0.933,0 1.399,-0.001 0.374,0 0.745,0.006 1.11,0.006 0.412,0 0.818,-0.007 1.218,-0.035 0.874,-0.062 1.753,-0.106 2.639,-0.106 l 0.126,10e-4 h 0.075 c 0.781,0 1.577,-0.057 2.398,-0.072 0.323,-0.006 0.646,-0.008 0.968,-0.008 0.776,0 1.547,0.012 2.313,0.012 0.937,0 1.874,0 2.811,0.003 h 0.021 c 0.885,0 1.786,-0.089 2.722,-0.124 0.403,-0.016 0.803,-0.02 1.2,-0.02 0.457,0 0.911,0.005 1.359,0.005 l 0.167,-0.002 c 0.131,-0.006 0.373,0.033 0.567,0.164 l 0.003,-0.005 0.191,0.115 -0.258,0.429 0.472,-0.165 0.108,0.309 -3.443,3.857 -0.193,0.015 h -0.004 l -0.056,0.017 c -0.055,0.016 -0.144,0.048 -0.279,0.057 h -0.001 l -0.237,0.007 c -0.176,-0.001 -0.338,-0.008 -0.483,-0.008 h -0.019 -0.027 c -0.515,0 -0.966,-0.06 -1.44,-0.124 h 0.001 c -0.365,-0.049 -0.745,-0.065 -1.144,-0.079 -0.644,-0.022 -1.263,-0.071 -1.866,-0.07 -0.735,0.001 -1.473,0.066 -2.216,0.163 h -10e-4 c -0.395,0.051 -0.788,0.065 -1.173,0.065 -0.494,0 -0.976,-0.022 -1.432,-0.022 -1.148,0 -2.296,-0.001 -3.444,-0.001 -0.573,0 -1.147,0 -1.72,0.001 h -0.001 -0.029 c -0.973,0 -1.918,-0.07 -2.841,-0.069 h -0.073 c -0.462,0.002 -0.925,0.002 -1.387,0.002 -0.616,0 -1.231,-0.001 -1.846,-0.001 -0.621,0 -1.242,0.001 -1.863,0.001 h -0.622 -10e-4 -0.053 c -1.171,0 -2.308,0.062 -3.468,0.201 h -10e-4 c -1.61,0.192 -3.207,0.272 -4.823,0.272 -0.727,0 -1.47,0.021 -2.221,0.021 -0.646,0 -1.298,-0.015 -1.951,-0.075 h 10e-4 -0.002 0.001 c -0.123,-0.012 -0.231,-0.028 -0.288,-0.03 l -0.176,-0.007 -6.42,-5.59 z m 39.455,78.812 0.013,0.027 0.01,0.028 c 0.109,0.335 0.107,0.548 0.155,0.639 0.113,0.269 0.196,0.468 0.324,0.66 0.344,0.52 0.738,1.009 1.166,1.492 h 10e-4 c 0.39,0.443 0.839,0.762 1.387,1.11 0.301,0.193 0.589,0.394 0.853,0.535 0.156,0.086 0.4,0.158 0.674,0.274 h -0.001 c 0.173,0.079 0.404,0.098 0.749,0.178 h 0.002 c 0.38,0.102 0.619,0.261 0.791,0.3 l -0.209,0.976 -0.205,-0.013 c -0.119,0 -0.26,0.009 -0.415,0.01 h -0.045 c -0.585,10e-4 -1.134,-0.061 -1.719,-0.252 -0.514,-0.167 -0.978,-0.346 -1.421,-0.418 h -0.002 c -0.21,-0.036 -0.468,-0.05 -0.764,-0.116 0,0.001 0,0.001 0.001,0.001 l -0.001,-0.001 c -0.309,-0.074 -0.444,-0.136 -0.575,-0.134 h 0.002 C -20.806,6.644 -21.262,6.592 -21.701,6.441 -22.14,6.293 -22.559,6.04 -22.917,5.663 -23.179,5.389 -23.425,5.09 -23.642,4.771 h -0.001 l -0.199,-0.26 -0.024,-0.055 -0.06,-0.19 -0.011,-0.052 c -0.101,-0.205 -0.223,-0.426 -0.34,-0.588 -0.151,-0.209 -0.312,-0.357 -0.547,-0.557 l 0.002,10e-4 c -0.182,-0.16 -0.256,-0.277 -0.291,-0.298 -0.068,-0.063 -0.252,-0.145 -0.477,-0.28 l 0.002,10e-4 C -26,2.24 -26.446,1.984 -26.869,1.768 -27.562,1.399 -28.507,1.247 -29.356,0.611 -29.479,0.517 -29.654,0.393 -29.83,0.246 -30.005,0.097 -30.187,-0.07 -30.325,-0.307 l -0.033,-0.057 -0.356,-1.358 0.827,0.217 c 0.183,0.049 0.303,0.135 0.388,0.193 l 0.153,0.106 h 0.001 c 0.163,0.083 0.324,0.128 0.57,0.194 h -0.001 c 0.388,0.109 0.7,0.213 0.956,0.21 l 0.158,-0.012 h 10e-4 c 0.1,-0.014 0.266,-0.064 0.319,-0.094 0.019,0.005 0.129,-0.126 0.411,-0.229 h -10e-4 0.002 -0.001 c 0.003,-10e-4 0.006,-10e-4 0.008,-0.002 l -0.011,-10e-4 0.038,-0.471 0.329,-0.098 0.243,-0.072 0.025,-0.005 c 0.124,-0.024 0.245,-0.032 0.362,-0.032 0.114,0 0.222,0.007 0.327,0.021 h -0.001 0.001 c 0.491,0.066 0.921,0.257 1.284,0.407 0.455,0.192 0.914,0.399 1.353,0.734 h 10e-4 c 0.387,0.297 0.791,0.624 1.14,1.026 l 0.002,0.003 10e-4,0.001 c 0.155,0.182 0.296,0.368 0.429,0.561 l -0.004,0.002 c 0.11,0.127 0.214,0.264 0.292,0.42 m 3.67,-7.122 h -0.5 l -0.281,0.414 c -0.47,-0.318 -0.682,-0.457 -0.762,-0.507 l -0.283,-0.054 -0.018,-0.146 c -0.143,0.007 -0.311,0.025 -0.517,0.026 -0.179,0 -0.388,-0.019 -0.604,-0.099 -0.32,-0.122 -0.562,-0.272 -0.768,-0.351 -0.409,-0.165 -0.889,-0.22 -1.413,-0.254 -1.374,-0.091 -2.741,-0.14 -4.112,-0.14 -0.337,0 -0.674,0.003 -1.011,0.009 -2.649,0.047 -5.314,0.471 -7.99,0.83 -1.596,0.216 -3.194,0.389 -4.819,0.462 -1.689,0.077 -3.396,0.169 -5.106,0.177 -0.215,10e-4 -0.43,10e-4 -0.645,10e-4 h -0.942 c -0.942,-10e-4 -1.877,0.004 -2.808,0.043 -0.871,0.037 -1.752,0.091 -2.65,0.091 l -0.197,-0.001 h -10e-4 c -0.159,-0.002 -0.312,-0.01 -0.451,-0.01 -0.232,-0.003 -0.409,0.032 -0.482,0.081 v 10e-4 l -10e-4,0.001 -0.075,0.086 c -0.04,0.059 -0.089,0.16 -0.168,0.287 l -1.617,2.562 0.707,-2.946 c 0.062,-0.255 0.08,-0.537 0.08,-0.841 0,-0.174 -0.006,-0.354 -0.01,-0.54 v -0.022 c -0.003,-0.262 0.106,-0.478 0.176,-0.594 0.073,-0.121 0.098,-0.167 0.106,-0.201 0.125,-0.469 0.163,-1.011 0.241,-1.578 0.092,-0.651 0.174,-1.306 0.258,-1.963 0.183,-1.434 0.399,-2.851 0.509,-4.257 0.14,-1.8 0.21,-3.597 0.258,-5.41 0.007,-0.277 0.011,-0.553 0.011,-0.83 0,-2.056 -0.192,-4.115 -0.403,-6.19 -0.279,-2.758 -0.502,-5.532 -0.585,-8.31 -0.093,-3.108 -0.006,-6.199 -0.101,-9.267 -0.052,-1.696 -0.198,-3.401 -0.284,-5.126 -0.029,-0.612 -0.041,-1.224 -0.041,-1.833 0,-0.735 0.017,-1.469 0.037,-2.199 0.062,-2.115 0.1,-4.251 0.307,-6.389 0.091,-0.949 0.22,-1.896 0.408,-2.839 0.172,-0.863 0.286,-1.694 0.297,-2.552 0.005,-0.412 0.025,-0.836 0.025,-1.251 0.001,-0.65 -0.051,-1.276 -0.247,-1.783 v -10e-4 l -10e-4,-0.001 -0.013,-0.027 -0.052,-0.103 c -0.04,-0.088 -0.103,-0.203 -0.107,-0.409 -0.008,-0.149 0.07,-0.369 0.221,-0.494 h -10e-4 10e-4 c 0.13,-0.111 0.245,-0.139 0.334,-0.159 0.091,-0.018 0.167,-0.021 0.237,-0.021 0.174,10e-4 0.346,0.024 0.353,0.021 h 10e-4 c 0.734,0.004 1.451,0.042 2.179,0.107 1.968,0.179 3.919,0.386 5.857,0.385 h 0.099 c 1.174,-0.004 2.34,-0.027 3.514,-0.062 0.619,-0.019 1.246,-0.056 1.884,-0.073 0.706,-0.017 1.386,10e-4 2.043,-0.04 1.239,-0.077 2.449,-0.06 3.633,-0.156 0.93,-0.074 1.882,-0.257 2.89,-0.336 0.472,-0.037 0.946,-0.052 1.417,-0.052 0.87,0 1.735,0.05 2.58,0.104 h -0.001 c 1.445,0.091 2.931,0.243 4.367,0.539 0.656,0.135 1.302,0.321 1.922,0.522 h 10e-4 c 0.188,0.064 0.306,0.11 0.368,0.115 l 0.053,0.002 c 0.047,0.001 0.12,-0.005 0.222,-0.006 h 0.023 -10e-4 c 0.111,0.002 0.232,0.02 0.352,0.079 0.12,0.057 0.227,0.159 0.287,0.263 0.121,0.213 0.112,0.376 0.116,0.492 l -0.004,0.198 v 0.002 l -10e-4,0.177 c 0,0.85 0.068,1.72 0.124,2.598 v 0.001 c 0.081,1.291 0.163,2.581 0.314,3.847 0.173,1.443 0.136,2.849 0.27,4.205 0.094,0.959 0.105,1.904 0.105,2.839 0,0.327 -0.001,0.652 -0.001,0.976 0,0.991 0.01,1.984 0.01,2.98 0,0.394 -0.002,0.788 -0.006,1.182 -0.016,1.356 -0.14,2.689 -0.208,4.002 -0.156,2.973 -0.166,5.954 -0.166,8.945 v 1.359 10.068 0.044 c 0,0.463 -0.009,0.921 -0.009,1.374 0,0.324 0.005,0.644 0.019,0.962 0.037,0.827 0.153,1.668 0.266,2.523 0.185,1.406 0.341,2.812 0.498,4.215 0.153,1.359 0.305,2.716 0.476,4.068 v -10e-4 c 0.06,0.48 0.091,0.958 0.091,1.439 0,0.17 -0.004,0.34 -0.011,0.511 l -0.001,0.003 c -0.026,0.506 -0.129,0.942 -0.143,1.325 -0.006,0.139 -0.008,0.279 -0.008,0.419 0,0.791 0.078,1.608 0.079,2.462 m 3.848,-68.898 0.341,0.617 c 0.09,0.167 0.092,0.313 0.093,0.396 l -0.002,0.109 v -0.002 l -10e-4,0.227 c 0,0.188 10e-4,0.378 10e-4,0.569 0,0.151 0,0.304 -0.002,0.456 v 0.077 c -10e-4,0.742 0.113,1.448 0.271,2.217 v 0.001 c 0.342,1.681 0.722,3.392 0.956,5.126 0.232,1.716 0.367,3.465 0.401,5.196 0.017,0.998 0.16,2.029 0.206,3.101 v 10e-4 c 0.051,1.271 0.141,2.552 0.191,3.844 v 0.001 c 0.105,2.754 0.278,4.911 0.374,7.623 0.041,1.182 0.07,2.363 0.072,3.55 v 0.001 0.031 c 0,1.499 -0.138,2.962 -0.202,4.412 -0.115,2.589 -0.121,5.196 -0.331,7.821 -0.109,1.34 -0.246,2.656 -0.251,3.96 0,0.117 -10e-4,0.234 -10e-4,0.351 0,0.943 0.013,1.89 0.013,2.841 0,0.252 -10e-4,0.505 -0.003,0.759 -0.019,1.936 -0.154,3.853 -0.154,5.746 0,0.592 0.014,1.183 0.047,1.771 v -10e-4 c 0.062,1.088 0.106,2.178 0.238,3.224 0.086,0.685 0.117,1.342 0.161,1.998 0.029,0.428 0.072,0.862 0.136,1.276 0.019,0.137 0.061,0.392 0.097,0.475 l 0.004,0.01 0.545,0.829 -1.002,-0.064 c -0.207,-0.015 -0.351,-0.08 -0.442,-0.113 -0.093,-0.036 -0.129,-0.042 -0.136,-0.041 h -10e-4 -0.001 -0.003 c -0.094,-0.004 -0.239,0.049 -0.5,0.125 h 10e-4 -10e-4 c -0.298,0.081 -0.586,0.142 -0.859,0.208 h 0.002 c -0.32,0.08 -0.621,0.133 -0.886,0.206 -0.027,0 -0.157,0.082 -0.415,0.091 l -0.144,-0.014 h 0.001 l -0.004,-10e-4 0.003,10e-4 c -0.143,-0.032 -0.23,-0.09 -0.3,-0.146 l -0.169,-0.18 c -0.061,-0.089 -0.107,-0.192 -0.14,-0.315 -0.015,-0.019 -0.022,-0.026 -0.041,-0.048 l -0.291,-0.355 0.25,-0.243 0.005,-0.088 c 0.001,-0.146 -0.017,-0.315 -0.019,-0.464 l 0.005,-0.099 v 0.004 -0.004 c 0.096,-0.866 0.267,-1.651 0.265,-2.42 v -0.054 10e-4 l -0.001,-0.195 c 0,-0.707 0.044,-1.414 0.108,-2.106 v -10e-4 c 0.023,-0.249 0.029,-0.505 0.029,-0.771 0,-0.189 -0.003,-0.385 -0.003,-0.584 l 10e-4,-0.183 c 0.01,-0.691 0.133,-1.312 0.147,-1.885 0.032,-1.023 0.142,-2.004 0.141,-2.962 v -0.049 C -14.795,-19 -14.795,-19.2 -14.795,-19.4 v -0.704 c 0,-0.885 -0.005,-1.764 -0.049,-2.637 -0.031,-0.616 -0.094,-1.23 -0.163,-1.858 -0.088,-0.829 -0.06,-1.623 -0.104,-2.378 v 0.008 -0.007 c -0.039,-0.687 -0.012,-1.344 -0.05,-1.966 v 0.001 c -0.039,-0.641 -0.057,-1.275 -0.057,-1.915 v -0.101 c 0.006,-1.612 0.007,-3.224 0.007,-4.836 0,-3.023 -0.006,-6.047 -0.006,-9.072 v -2.982 -0.559 c 0,-1.173 -0.008,-2.341 -0.111,-3.48 -0.105,-1.153 -0.128,-2.286 -0.186,-3.408 -0.065,-1.249 -0.23,-2.525 -0.435,-3.775 v 0.001 c -0.098,-0.586 -0.185,-1.176 -0.255,-1.769 -0.074,-0.638 -0.05,-1.219 -0.129,-1.739 l -0.001,-10e-4 c -0.1,-0.684 -0.206,-1.378 -0.275,-2.085 v -10e-4 c -0.054,-0.562 -0.077,-1.088 -0.165,-1.583 v -0.001 c -0.143,-0.798 -0.265,-1.616 -0.272,-2.464 v 0.002 c -0.002,-0.265 -0.045,-0.566 -0.078,-0.891 -0.009,-0.09 -0.014,-0.171 -0.02,-0.252 l -0.682,-0.073 z m 46.153,52.414 c -0.167,-0.502 -0.369,-1.02 -0.391,-1.537 -0.02,-0.443 0.345,-0.921 0.273,-1.339 -0.212,-1.249 -0.555,-2.475 -0.847,-3.71 -0.084,0.017 -0.167,0.034 -0.251,0.051 -0.022,0.245 -0.044,0.49 -0.067,0.734 -0.258,-0.405 -0.459,-0.835 -0.438,-1.253 0.058,-1.162 0.217,-2.319 0.318,-3.479 0.163,-1.854 0.426,-3.677 -0.225,-5.541 -0.727,-2.081 -1.317,-4.222 -1.424,-6.459 -0.04,-0.831 -0.171,-1.659 -0.289,-2.485 -0.092,-0.646 -0.208,-1.291 -0.352,-1.927 -0.088,-0.388 -0.26,-0.756 -0.374,-1.139 -0.175,-0.587 -0.353,-1.174 -0.485,-1.771 -0.046,-0.205 0.147,-0.502 0.056,-0.65 -0.819,-1.335 -0.983,-2.877 -1.418,-4.332 -0.064,-0.213 -0.127,-0.452 -0.266,-0.615 -0.614,-0.721 -1.266,-1.41 -1.88,-2.132 -0.118,-0.138 -0.13,-0.368 -0.248,-0.732 -0.992,-1.139 -2.203,-2.358 -3.212,-3.727 -1.395,-1.892 -2.633,-3.899 -3.953,-5.847 -0.223,-0.329 -0.521,-0.607 -0.783,-0.909 -0.595,-0.688 -1.189,-1.376 -1.808,-2.092 0.165,-0.07 0.266,-0.112 0.347,-0.146 -1.313,-1.796 -2.622,-3.589 -3.948,-5.406 -0.076,0.228 -0.134,0.406 -0.193,0.584 -0.061,0.012 -0.122,0.024 -0.183,0.036 -0.301,-0.721 -0.666,-1.424 -0.884,-2.17 -0.184,-0.632 -0.488,-1.03 -1.105,-1.279 -0.407,-0.165 -0.764,-0.472 -1.112,-0.755 -0.318,-0.26 -0.561,-0.617 -0.893,-0.852 -0.931,-0.663 -1.848,-1.368 -2.852,-1.902 -1.426,-0.758 -2.521,-1.866 -3.605,-3.008 -0.592,-0.625 -1.169,-1.267 -1.78,-1.873 -0.205,-0.203 -0.479,-0.398 -0.753,-0.46 -1.896,-0.428 -3.803,-0.812 -5.701,-1.23 -0.313,-0.068 -0.644,-0.179 -0.899,-0.361 -0.948,-0.676 -1.839,-1.432 -2.805,-2.079 -1.132,-0.758 -2.314,-1.445 -3.486,-2.142 -0.588,-0.35 -1.172,-0.8 -1.817,-0.946 -1.847,-0.419 -3.725,-0.71 -5.594,-1.038 -0.193,-0.034 -0.402,0.007 -0.602,0.031 -0.659,0.078 -1.351,0.335 -1.971,0.217 -1.881,-0.361 -3.602,0.246 -5.334,0.734 -0.899,0.253 -1.625,0.025 -2.363,-0.362 -0.095,-0.05 -0.065,-0.338 -0.122,-0.717 -1.445,-0.306 -3.053,-0.74 -4.689,-0.956 -0.973,-0.128 -1.991,0.098 -2.989,0.145 -0.426,0.02 -0.87,0.057 -1.277,-0.036 -0.747,-0.171 -1.473,-0.612 -2.21,-0.617 -1.293,-0.009 -2.585,0.281 -3.882,0.334 -0.581,0.024 -0.682,0.596 -1.086,0.698 -0.76,0.193 -1.546,0.28 -2.321,0.411 -0.003,-0.027 -0.005,-0.054 -0.007,-0.08 0.195,-0.099 0.391,-0.198 0.722,-0.364 -1.491,-0.292 -1.799,-0.194 -2.645,0.727 -0.136,0.148 -0.272,0.348 -0.447,0.402 -0.941,0.29 -1.567,1.072 -2.414,1.504 -0.291,0.149 -0.559,0.344 -0.827,0.532 -0.577,0.405 -1.094,0.965 -1.732,1.202 -2.005,0.743 -4.056,1.363 -6.087,2.037 -0.411,0.136 -0.815,0.293 -1.222,0.441 0.019,0.072 0.038,0.144 0.057,0.217 l 1.128,-0.219 c 0.03,0.069 0.061,0.137 0.092,0.205 -0.374,0.197 -0.728,0.477 -1.127,0.571 -0.582,0.137 -1.203,0.983 -1.803,0.005 -0.025,-0.041 -0.197,-0.016 -0.289,0.015 -1.752,0.57 -3.549,1.044 -5.034,2.215 -0.767,0.605 -1.43,1.462 -2.297,1.792 -1.103,0.42 -1.881,1.124 -2.662,1.907 -0.138,0.138 -0.314,0.238 -0.471,0.358 -0.894,0.687 -1.83,1.328 -2.667,2.079 -0.517,0.464 -0.884,1.095 -1.342,1.682 -0.337,-0.402 -0.436,-0.52 -0.668,-0.797 -0.519,0.59 -0.969,1.138 -1.456,1.652 -1.357,1.435 -2.585,3.001 -4.249,4.128 -0.302,0.205 -0.521,0.546 -0.749,0.846 -0.736,0.968 -1.438,1.961 -2.19,2.915 -1.668,2.117 -3.362,4.21 -4.461,6.707 -0.17,0.385 -0.477,0.712 -0.727,1.06 -0.037,0.051 -0.115,0.071 -0.237,0.142 0.047,-0.227 0.081,-0.394 0.116,-0.562 -0.416,0.278 -0.792,0.599 -0.917,0.999 -0.486,1.559 -0.898,3.141 -1.328,4.717 -0.278,1.016 -0.418,2.09 -0.836,3.042 -0.896,2.041 -1.914,4.031 -2.929,6.018 -0.206,0.405 -0.738,0.654 -0.913,1.064 -0.381,0.891 -0.716,1.821 -0.913,2.768 -0.367,1.765 -0.605,3.556 -0.935,5.329 -0.09,0.49 -0.406,0.946 -0.463,1.435 -0.326,2.786 -0.131,5.632 -1.065,8.35 -0.63,1.832 -0.343,3.787 0.003,5.559 0.57,2.922 0.605,5.828 0.663,8.761 0.014,0.712 0.289,1.433 0.526,2.121 0.443,1.283 0.948,2.545 1.421,3.819 0.04,0.108 0.073,0.247 0.041,0.351 -0.162,0.541 -0.285,1.125 0.244,1.485 0.996,0.678 1.306,1.62 1.275,2.751 -0.004,0.173 0.061,0.348 0.09,0.523 0.503,2.997 1.727,5.732 3.132,8.386 0.886,1.675 1.932,3.267 2.893,4.904 0.447,0.764 0.869,1.542 1.289,2.321 0.432,0.802 0.714,1.732 1.301,2.395 1.122,1.268 2.351,2.463 3.651,3.55 1.476,1.234 3.144,2.19 4.262,3.88 0.78,1.181 2.049,2.027 2.964,3.134 1.451,1.756 2.771,3.62 4.189,5.406 0.254,0.319 0.697,0.633 1.082,0.675 1.205,0.131 2.425,0.179 3.638,0.174 25.771,-0.1 51.543,-0.213 77.313,-0.325 0.558,-0.003 1.117,10e-4 1.671,-0.053 0.226,-0.021 0.517,-0.13 0.644,-0.299 1.19,-1.603 2.347,-3.231 3.526,-4.843 0.174,-0.238 0.386,-0.463 0.623,-0.635 0.872,-0.632 1.763,-1.238 2.646,-1.855 0.162,-0.112 0.309,-0.284 0.488,-0.328 2.104,-0.519 3.828,-1.475 4.578,-3.692 0.258,-0.764 0.619,-1.498 0.994,-2.214 0.539,-1.029 1.055,-2.085 1.723,-3.027 1.229,-1.735 2.569,-3.39 3.846,-5.09 0.209,-0.278 0.375,-0.602 0.498,-0.929 1.456,-3.858 2.905,-7.713 4.831,-11.38 0.517,-0.985 0.802,-2.261 0.708,-3.363 -0.203,-2.361 0.024,-4.582 1.066,-6.712 0.144,-0.295 0.245,-0.61 0.371,-0.914 0.527,-1.276 0.98,-2.593 1.62,-3.81 0.311,-0.588 0.577,-1.068 0.357,-1.731"
               style="fill:#110f0d;fill-opacity:1;fill-rule:nonzero;stroke:none"
               id="path1449" />
          </g>
        </g>
        <g
           id="g1451"
           transform="matrix(0.1531793,0,0,-0.1519643,50.31089,449.29501)">
          <g
             id="g1453"
             transform="translate(-39.4546,60.2633)">
            <path
               d="M 0,0 C 0.63,0.581 1.242,1.179 1.892,1.742 2.109,1.931 2.4,2.112 2.69,2.17 4.705,2.568 6.729,2.926 8.747,3.313 9.079,3.378 9.429,3.48 9.702,3.65 c 1.006,0.629 1.953,1.332 2.978,1.934 1.203,0.705 2.457,1.345 3.703,1.992 0.625,0.325 1.245,0.745 1.929,0.881 1.963,0.39 3.958,0.66 5.941,0.966 0.206,0.031 0.429,-0.007 0.641,-0.029 0.7,-0.074 1.434,-0.313 2.093,-0.203 1.997,0.336 3.826,-0.229 5.665,-0.682 0.955,-0.237 1.726,-0.024 2.511,0.337 0.1,0.046 0.067,0.314 0.129,0.667 1.535,0.284 3.242,0.688 4.98,0.888 1.033,0.12 2.114,-0.09 3.175,-0.134 0.452,-0.018 0.924,-0.053 1.356,0.034 0.794,0.158 1.565,0.568 2.347,0.573 1.373,0.009 2.746,-0.261 4.123,-0.311 0.617,-0.022 0.725,-0.553 1.154,-0.649 0.807,-0.179 1.642,-0.26 2.465,-0.382 0.003,0.025 0.005,0.05 0.008,0.074 -0.208,0.092 -0.415,0.184 -0.768,0.339 1.584,0.272 1.911,0.18 2.81,-0.676 0.144,-0.138 0.29,-0.325 0.475,-0.374 1,-0.27 1.665,-0.998 2.564,-1.4 0.309,-0.138 0.593,-0.319 0.878,-0.494 0.613,-0.377 1.162,-0.898 1.84,-1.118 2.13,-0.692 4.307,-1.269 6.466,-1.895 C 69.601,3.861 70.03,3.715 70.462,3.577 70.442,3.511 70.421,3.443 70.401,3.376 70.001,3.443 69.603,3.512 69.204,3.579 69.17,3.516 69.138,3.452 69.106,3.389 69.502,3.206 69.879,2.945 70.302,2.857 70.92,2.729 71.58,1.943 72.218,2.853 c 0.027,0.038 0.208,0.014 0.306,-0.013 1.861,-0.531 3.769,-0.972 5.347,-2.062 0.815,-0.563 1.518,-1.36 2.439,-1.667 0.676,-0.225 1.231,-0.544 1.742,-0.907 H -2.155 C -1.388,-1.247 -0.687,-0.634 0,0"
               style="fill:#110f0d;fill-opacity:1;fill-rule:nonzero;stroke:none"
               id="path1455" />
          </g>
        </g>
      </g>
    </g>
  </g>
</svg>
