<?xml version="1.0" encoding="UTF-8" standalone="no"?>
<!-- Created with Inkscape (http://www.inkscape.org/) -->

<svg
   width="23.700583"
   height="24"
   viewBox="0 0 6.2707791 6.35"
   version="1.1"
   id="svg9053"
   inkscape:version="1.2.1 (9c6d41e4, 2022-07-14)"
   sodipodi:docname="unspeakable-fate.svg"
   xmlns:inkscape="http://www.inkscape.org/namespaces/inkscape"
   xmlns:sodipodi="http://sodipodi.sourceforge.net/DTD/sodipodi-0.dtd"
   xmlns="http://www.w3.org/2000/svg"
   xmlns:svg="http://www.w3.org/2000/svg">
  <sodipodi:namedview
     id="namedview9055"
     pagecolor="#505050"
     bordercolor="#eeeeee"
     borderopacity="1"
     inkscape:showpageshadow="0"
     inkscape:pageopacity="0"
     inkscape:pagecheckerboard="0"
     inkscape:deskcolor="#505050"
     inkscape:document-units="mm"
     showgrid="false"
     inkscape:zoom="0.7046647"
     inkscape:cx="-96.499796"
     inkscape:cy="129.84899"
     inkscape:window-width="1390"
     inkscape:window-height="941"
     inkscape:window-x="0"
     inkscape:window-y="25"
     inkscape:window-maximized="0"
     inkscape:current-layer="layer1" />
  <defs
     id="defs9050">
    <clipPath
       clipPathUnits="userSpaceOnUse"
       id="clipPath2405">
      <path
         d="m 159.985,641.612 h 22.76 v 22.76 h -22.76 z"
         id="path2403" />
    </clipPath>
  </defs>
  <g
     inkscape:label="Layer 1"
     inkscape:groupmode="layer"
     id="layer1"
     transform="translate(-130.53338,-114.34839)">
    <g
       id="g2399"
       transform="matrix(0.33038189,0,0,-0.33038189,77.052739,333.26006)">
      <g
         id="g2401"
         clip-path="url(#clipPath2405)">
        <g
           id="g2407"
           transform="matrix(0.1580564,0,0,-0.1580576,171.36539,652.99188)">
          <g
             id="g2409"
             transform="translate(59.9805,-0.5107)">
            <path
               d="m 0,0 c 0.016,-0.746 -0.293,-1.513 -0.522,-2.228 -0.52,-1.621 -1.037,-3.223 -1.734,-4.78 -0.601,-1.345 -1.079,-2.832 -1.902,-4.051 -0.878,-1.299 -1.581,-2.691 -2.496,-3.971 -0.434,-0.606 -0.873,-1.201 -1.356,-1.77 -0.641,-0.756 -1.088,-1.465 -1.609,-2.277 -0.768,-1.198 -1.865,-2.178 -2.724,-3.313 -0.637,-0.843 -1.327,-1.602 -2.027,-2.37 -0.771,-0.845 -1.713,-1.637 -2.353,-2.587 -0.338,-0.501 -0.56,-0.843 -0.989,-1.286 -0.307,-0.318 -0.374,-0.806 -0.637,-1.095 -0.273,-0.3 -0.462,-0.344 -0.666,-0.695 -0.149,-0.255 -0.297,-0.54 -0.47,-0.802 -0.955,-1.446 -1.809,-2.969 -2.793,-4.419 -1.055,-1.554 -2.189,-2.963 -3.427,-4.385 -0.588,-0.676 -1.26,-1.204 -1.817,-1.918 -0.415,-0.53 -0.822,-1.064 -1.231,-1.598 -1.253,-1.633 -2.797,-2.728 -4.544,-3.825 -3.766,-2.365 -7.079,-5.305 -10.755,-7.841 -1.172,-0.809 -2.14,-1.74 -3.333,-2.541 -1.21,-0.812 -2.375,-1.673 -3.539,-2.538 -0.68,0.623 -1.484,1.019 -2.197,1.598 -0.652,0.529 -1.209,1.171 -1.829,1.736 -1.854,1.687 -3.605,3.197 -4.84,5.425 -0.424,0.766 -0.982,1.818 -1.529,2.499 -0.305,0.38 -0.835,0.612 -0.572,1.131 0.064,0.126 0.29,0.23 0.395,0.352 0.317,0.367 0.438,0.654 0.838,0.981 0.677,0.551 1.375,1.305 2.194,1.626 0.793,-0.749 1.562,-1.404 2.43,-2.07 0.836,-0.64 1.354,-1.58 1.933,-2.439 0.379,-0.561 0.808,-1.081 1.187,-1.64 0.351,-0.519 0.524,-1.06 0.917,-1.555 0.682,-0.859 0.799,-0.486 1.579,0.029 0.226,0.149 0.466,0.244 0.689,0.392 0.335,0.222 0.73,0.426 1.023,0.7 0.134,0.247 0.288,0.48 0.463,0.699 0.156,0.14 0.339,0.23 0.547,0.269 0.426,0.255 0.925,0.486 1.069,0.947 0.191,0.609 0.296,1.197 0.29,1.848 -0.014,1.535 -0.16,3.03 -0.416,4.552 -0.111,0.668 -0.239,1.338 -0.361,2.004 -0.074,0.402 -0.362,1.14 -0.372,1.527 -0.015,0.521 0.541,0.748 0.923,1.036 0.817,0.617 1.655,1.148 2.542,1.663 1.783,1.032 3.538,1.939 5.083,3.314 1.708,1.52 3.398,3.023 4.996,4.657 0.925,0.946 1.948,1.738 2.842,2.724 2.213,2.44 4.015,5.224 6.318,7.591 2.221,2.282 4.371,4.506 6.457,6.911 0.817,0.917 1.66,1.808 2.529,2.675 0.818,0.958 1.602,1.943 2.349,2.957 1.085,1.39 1.933,2.76 2.845,4.252 0.795,1.3 1.42,2.659 2.099,4.022 1.013,2.033 1.927,3.918 2.578,6.103 0.918,3.079 1.945,6.062 2.61,9.212 0.609,2.893 0.988,5.815 1.668,8.697 -0.026,-0.835 -0.187,-1.637 -0.243,-2.468 -0.121,-1.834 0.17,-3.726 0.22,-5.567 0.066,-2.453 0.841,-4.845 0.957,-7.274 0.057,-1.172 0.312,-2.322 0.429,-3.492 0.109,-1.101 0.054,-2.2 0.166,-3.305 C -0.015,3.005 -0.015,2.007 0.003,0.98 0.011,0.587 0.109,0.118 0.036,-0.264 0.021,-0.735 -0.221,-0.936 -0.692,-0.868 -1.636,-1.069 -2.593,-1.176 -3.564,-1.188"
               style="fill:#100f0d;fill-opacity:1;fill-rule:nonzero;stroke:none"
               id="path2411" />
          </g>
        </g>
        <g
           id="g2413"
           transform="matrix(0.1580564,0,0,-0.1580576,171.36539,652.99188)">
          <g
             id="g2415"
             transform="translate(-4.1772,-46.1348)">
            <path
               d="M 0,0 C 0.291,0.048 0.598,0.618 0.837,0.814 1.081,1.014 1.253,1.225 1.473,1.427 2.038,1.946 2.803,2.382 3.1,3.144 3.436,4.006 3.138,5.508 2.904,6.416 2.693,7.234 2.663,7.998 2.435,8.839 c -0.344,1.262 -0.517,2.579 -0.528,3.882 -0.005,0.617 -0.214,1.165 -0.256,1.775 -0.05,0.72 0.012,1.468 0.012,2.19 v 3.93 c 10e-4,1.754 0.243,3.45 0.237,5.196 -0.007,2.128 0.197,4.227 0.232,6.347 0.015,0.943 0.174,1.87 0.222,2.81 0.055,1.099 -0.014,2.193 0.074,3.293 0.181,2.273 0.185,4.524 0.186,6.802 v 2.555 c 0,1.212 0.161,2.592 -0.053,3.795 -0.237,1.325 -0.185,2.619 -0.185,3.974 0,2.864 -0.011,5.618 -0.505,8.423 -0.183,1.042 -0.357,2.167 -0.663,3.172 -0.642,2.116 -2.137,4.137 -3.587,5.79 -1.717,1.959 -3.399,4.315 -5.587,5.791 -1.121,0.756 -2.457,1.271 -3.686,1.83 -1.801,0.818 -3.789,1.132 -5.662,1.772 -1.524,0.52 -3.124,0.819 -4.634,1.35 -1.241,0.437 -2.455,1.077 -3.667,1.607 -1.125,0.491 -2.089,1.218 -3.203,1.72 -1.67,0.752 -3.415,1.4 -5.111,2.091 -1.607,0.656 -3.039,1.547 -4.594,2.284 -0.997,0.473 -1.963,0.776 -2.895,1.403 -0.886,0.595 -1.845,1.071 -2.834,1.48 -1.139,0.471 -2.054,1.021 -3.066,1.746 -0.679,0.486 -1.378,0.816 -1.946,1.452 -0.477,0.535 -0.876,1.084 -1.259,1.672 -0.359,0.552 -0.968,1.387 -1.513,1.734 -0.892,0.567 -2.559,0.348 -3.154,-0.468 -0.276,-0.379 -0.366,-0.727 -0.407,-1.159 -0.104,-1.12 -0.376,-2.19 -0.223,-3.324 0.091,-0.673 0.153,-1.458 0.484,-2.058 0.44,-0.798 1.028,-1.484 1.57,-2.21 1.716,-2.301 4.104,-3.1 6.61,-4.284 1.74,-0.824 3.451,-1.637 5.23,-2.36 1.998,-0.809 3.844,-1.789 5.887,-2.492 1.218,-0.419 2.432,-0.901 3.624,-1.393 1.104,-0.455 2.001,-1.052 3.061,-1.579 2.29,-1.138 4.793,-1.892 7.154,-2.865 1.205,-0.496 2.422,-0.998 3.679,-1.346 2.97,-0.825 5.874,-2.559 8.242,-4.508 2.511,-2.067 4.005,-5.127 5.004,-8.158 0.366,-1.112 0.44,-2.33 0.767,-3.461 0.431,-1.491 0.633,-3.106 0.712,-4.652 0.106,-2.068 0.45,-4.094 0.481,-6.176 C -3.278,45.656 -3.206,43.049 -3.5,40.508 -4.07,35.595 -4.309,30.65 -4.874,25.739 -5.649,19.008 -5.92,12.266 -5.28,5.523 -5.134,3.991 -5.074,2.704 -3.563,1.89 -2.959,1.564 -2.426,1.3 -1.796,1.081 -1.402,0.944 0.067,0.387 0,0"
               style="fill:#100f0d;fill-opacity:1;fill-rule:nonzero;stroke:none"
               id="path2417" />
          </g>
        </g>
        <g
           id="g2419"
           transform="matrix(0.1580564,0,0,-0.1580576,171.36539,652.99188)">
          <g
             id="g2421"
             transform="translate(-11.5439,9.9448)">
            <path
               d="M 0,0 C 0.287,0.057 0.835,0.804 0.932,1.089 1.077,1.514 0.941,2.159 0.95,2.612 0.961,3.219 0.892,3.311 0.336,3.534 -0.198,3.749 -0.618,3.797 -1.188,3.801 -1.752,3.805 -2.2,3.606 -2.753,3.57 -3.431,3.525 -4.149,3.217 -4.812,3.036 -6.334,2.62 -7.752,1.977 -9.26,1.485 c -2.157,-0.704 -4.329,-1.499 -6.143,-2.917 -0.828,-0.647 -1.233,-1.182 -1.479,-2.209 -0.174,-0.729 -0.478,-1.832 -0.238,-2.574 0.128,-0.395 0.516,-0.801 0.841,-1.035 0.181,-0.131 0.402,-0.242 0.596,-0.356 0.397,-0.234 0.372,-0.203 0.819,-0.122 1.989,0.364 4.024,1.444 5.836,2.354 1.543,0.776 3.353,1.497 4.702,2.574 0.52,0.414 0.859,1.026 1.244,1.552 C -2.777,-0.831 -2.209,-0.294 0,0"
               style="fill:#100f0d;fill-opacity:1;fill-rule:nonzero;stroke:none"
               id="path2423" />
          </g>
        </g>
        <g
           id="g2425"
           transform="matrix(0.1580564,0,0,-0.1580576,171.36539,652.99188)">
          <g
             id="g2427"
             transform="translate(-42.6724,47.2515)">
            <path
               d="m 0,0 c 1.028,0.372 1.812,1.18 2.787,1.669 1.026,0.517 2.131,0.894 3.159,1.413 1.405,0.709 2.757,1.532 4.092,2.323 1.055,0.626 1.76,1.298 1.843,2.558 0.031,0.473 0.354,0.821 0.249,1.311 -0.062,0.291 -0.221,0.48 -0.258,0.796 -0.046,0.387 -0.005,0.71 -0.11,1.098 -0.153,0.57 -0.131,1.104 -0.299,1.663 -0.247,0.824 -0.543,0.716 -1.364,0.713 C 8.485,13.539 6.603,13.273 5.237,12.365 4.275,11.726 3.147,11.408 2.15,10.818 1.655,10.525 1.164,10.403 0.648,10.178 0.146,9.958 -0.258,9.504 -0.711,9.209 -1.355,8.79 -1.954,8.271 -2.498,7.723 -2.772,7.445 -3.054,7.175 -3.327,6.896 -3.755,6.457 -3.971,5.939 -4.335,5.453 -4.703,4.961 -5.429,4.257 -5.238,3.55 -5.072,2.935 -4.656,2.401 -4.167,2.001 -3.521,1.47 -3.165,1.302 -2.378,1.165 -1.99,1.098 -1.665,1.008 -1.278,0.957 -0.912,0.909 -0.645,0.723 -0.285,0.667 -0.269,0.603 -0.253,0.539 0,0"
               style="fill:#100f0d;fill-opacity:1;fill-rule:nonzero;stroke:none"
               id="path2429" />
          </g>
        </g>
      </g>
    </g>
  </g>
</svg>
