<svg width="23" height="24" viewBox="0 0 23 24" fill="#000000" xmlns="http://www.w3.org/2000/svg">
  <path d="M9.19762 16.1282C9.22079 16.1789 9.24841 16.2288 9.27692 16.2778C9.16377 15.9918 9.1709 16.0711 9.19762 16.1282Z"/>
  <path d="M9.36349 16.5023C9.37329 16.5031 9.38309 16.5049 9.39289 16.5058C9.3822 16.5014 9.36973 16.4942 9.35815 16.4871C9.35993 16.4924 9.36171 16.4969 9.36349 16.5023Z"/>
  <path d="M13.6307 6.49211C13.3866 6.51794 13.13 6.4832 12.8832 6.50012C12.7843 6.50725 12.689 6.5224 12.5936 6.53843C12.4644 6.50903 12.3379 6.47607 12.2025 6.44311C12.0965 6.41816 11.9709 6.3852 11.8533 6.37451C11.7223 6.36292 11.7027 6.39411 11.6689 6.3264C11.6457 6.28185 11.6421 6.23552 11.6154 6.18919C11.5504 6.07694 11.4978 5.95844 11.4452 5.8453C11.3722 5.6876 11.3446 5.52991 11.2973 5.37044C11.2483 5.20561 11.1842 5.04258 11.1343 4.87775C11.1307 4.86528 11.129 4.85192 11.1254 4.83944C11.1298 4.70759 11.1316 4.57573 11.1245 4.44566C11.1058 4.09107 10.9864 3.74183 10.9632 3.38724C10.9463 3.13511 10.9401 2.85625 10.9704 2.6059C11.0301 2.11322 11.1316 1.63212 11.2938 1.15993C11.3508 0.995113 11.3757 0.864147 11.3748 0.695763C11.3748 0.633398 11.3668 0.568362 11.3775 0.505997C11.3864 0.458778 11.4604 0.35543 11.4426 0.309993C11.4149 0.236937 11.1468 0.27792 11.0791 0.269011C10.9089 0.245847 10.7227 0.19061 10.5445 0.191501C10.5392 0.163882 10.5267 0.138046 10.4955 0.116664C10.4964 0.121118 10.4964 0.125574 10.4973 0.130919L10.4946 0.115773C10.4946 0.115773 10.4946 0.115773 10.4955 0.116664C10.4723 -0.114976 10.4029 0.0623164 10.4029 0.105972C10.4029 0.140718 10.4029 0.174574 10.4029 0.208429C10.3601 0.223575 10.3423 0.250302 10.2924 0.27792C10.2202 0.318903 10.1284 0.319794 10.0509 0.350977C9.9663 0.384832 9.89057 0.436504 9.80683 0.470359C9.67853 0.521142 9.53064 0.520251 9.397 0.560342C9.27138 0.59687 9.14487 0.639634 9.0148 0.656562C8.97916 0.661017 8.90521 0.64409 8.89185 0.6824C8.87581 0.726055 8.96045 0.785747 8.98183 0.821384C9.06825 0.960368 9.10745 1.11895 9.16893 1.26595C9.23396 1.4183 9.33731 1.55016 9.40057 1.70251C9.52351 1.9974 9.62151 2.3021 9.73912 2.59877C9.8389 2.8518 10.0019 3.07542 10.0892 3.33557C10.1222 3.43357 10.1543 3.53335 10.1846 3.63403C10.1712 3.78994 10.1748 3.94496 10.1596 4.10176C10.1356 4.34587 10.0964 4.59177 10.0625 4.83677C10.0394 5.0105 10.01 5.18334 9.96363 5.35618C9.91641 5.53258 9.83979 5.717 9.83801 5.8943C9.83623 6.01635 9.83979 6.13841 9.83979 6.25958C9.83979 6.30412 9.84959 6.35045 9.84157 6.3941C9.8291 6.46538 9.69368 6.48854 9.5743 6.52151C9.25802 6.60971 8.94441 6.70326 8.6415 6.80304C8.51766 6.84402 8.39828 6.88946 8.28067 6.93579C8.20673 6.934 8.13189 6.93311 8.06418 6.94202C8.1016 6.9536 8.1408 6.9643 8.17911 6.97588C8.16307 6.98211 8.14615 6.98835 8.13011 6.99459C8.07665 7.01597 7.99023 7.06319 7.91896 7.06764C8.11675 7.05072 8.32344 7.06497 8.52568 7.06408C8.55775 7.07121 8.58983 7.08012 8.62279 7.08635C8.88739 7.13624 9.10032 7.21197 9.34711 7.28859C9.45313 7.32156 9.57786 7.36254 9.69635 7.3759C9.82732 7.39105 9.84692 7.35185 9.88077 7.43738C9.90394 7.49529 9.9075 7.5532 9.93423 7.61289C9.99927 7.75633 10.0518 7.90778 10.1044 8.05211C10.1774 8.25257 10.2051 8.45392 10.2523 8.65705C10.3013 8.86731 10.3654 9.07578 10.4153 9.28604C10.4652 9.49541 10.4634 9.70834 10.5089 9.91949C10.573 10.2162 10.6523 10.503 10.6871 10.8024C10.7173 11.0616 10.7761 11.3191 10.8082 11.5784C10.8483 11.8964 10.8572 12.2145 10.8759 12.5326C10.9125 13.1268 10.949 13.7202 10.957 14.3144C10.9615 14.5835 11.0114 14.8516 11.006 15.1207C11.0042 15.1955 10.9784 15.2926 11.0541 15.3595C11.0541 15.3532 11.0532 15.3479 11.0523 15.3408C11.0532 15.347 11.0541 15.3541 11.055 15.3604C11.055 15.3604 11.055 15.3595 11.0541 15.3595C11.0773 15.6552 11.1468 15.4281 11.1468 15.3719C11.1477 15.1902 11.1468 15.0075 11.1468 14.8249C11.1468 14.367 11.1584 13.9171 11.1993 13.46C11.243 12.9673 11.2332 12.4738 11.2768 11.9802C11.3018 11.6995 11.2831 11.4216 11.3339 11.1418C11.3873 10.8532 11.3686 10.5654 11.3909 10.2759C11.4141 9.96403 11.4533 9.64954 11.4871 9.3386C11.5103 9.11587 11.5397 8.89582 11.586 8.67487C11.6332 8.45036 11.7098 8.21515 11.7116 7.98886C11.7134 7.83294 11.7098 7.67792 11.7098 7.5229C11.7098 7.46678 11.7 7.40619 11.7081 7.35096C11.7205 7.26097 11.8559 7.23157 11.9753 7.18881C12.2916 7.07566 12.6052 6.95628 12.9081 6.82977C12.9901 6.79502 13.0694 6.7576 13.1478 6.72018C13.2609 6.7184 13.3812 6.72642 13.4854 6.71484C13.4133 6.69702 13.3376 6.68009 13.2618 6.66405C13.3144 6.63733 13.367 6.61149 13.4195 6.58476C13.473 6.55804 13.5594 6.49834 13.6307 6.49211Z"/>
  <path d="M8.45404 17.5079C8.69816 17.482 8.95474 17.5177 9.20153 17.4998C9.30042 17.4927 9.39575 17.4776 9.49108 17.4615C9.62026 17.4909 9.74677 17.5239 9.88219 17.5569C9.98821 17.5827 10.1129 17.6148 10.2314 17.6255C10.3624 17.637 10.382 17.6059 10.4159 17.6736C10.439 17.7181 10.4426 17.7644 10.4693 17.8108C10.5343 17.923 10.5869 18.0415 10.6395 18.1547C10.7125 18.3124 10.7402 18.4701 10.7874 18.6295C10.8364 18.7944 10.9005 18.9583 10.9504 19.1222C10.954 19.1356 10.9558 19.1481 10.9593 19.1605C10.9549 19.2933 10.9531 19.4242 10.9602 19.5543C10.9789 19.9089 11.0983 20.2581 11.1215 20.6127C11.1384 20.8649 11.1446 21.1437 11.1143 21.3941C11.0546 21.8867 10.9531 22.3678 10.7909 22.84C10.7339 23.0049 10.709 23.1358 10.7099 23.3042C10.7099 23.3666 10.7179 23.4316 10.7072 23.494C10.6983 23.5412 10.6243 23.6445 10.6422 23.69C10.6698 23.763 10.9379 23.722 11.0056 23.731C11.1758 23.7541 11.362 23.8094 11.5402 23.8085C11.5455 23.8361 11.5571 23.8619 11.5892 23.8833C11.5883 23.8789 11.5883 23.8744 11.5874 23.8691C11.5883 23.8744 11.5892 23.8797 11.5901 23.8842C11.5901 23.8842 11.5892 23.8842 11.5892 23.8833C11.6124 24.1149 11.6819 23.9377 11.6819 23.894C11.6819 23.8593 11.6819 23.8254 11.6819 23.7915C11.7237 23.7764 11.7424 23.7497 11.7923 23.722C11.8645 23.6811 11.9563 23.6802 12.0338 23.649C12.1184 23.6151 12.1941 23.5635 12.2779 23.5296C12.4062 23.4788 12.5541 23.4797 12.6877 23.4405C12.8124 23.4031 12.9398 23.3603 13.0699 23.3434C13.1056 23.339 13.1795 23.3559 13.1929 23.3176C13.2089 23.2739 13.1243 23.2142 13.102 23.1786C13.0165 23.0405 12.9773 22.881 12.9158 22.734C12.8507 22.5817 12.7474 22.4498 12.6841 22.2975C12.5612 22.0026 12.4632 21.6979 12.3456 21.4012C12.2458 21.1482 12.0828 20.9246 11.9955 20.6644C11.9625 20.5664 11.9304 20.4666 11.9001 20.3659C11.9135 20.21 11.9108 20.055 11.9251 19.8982C11.9491 19.6541 11.9883 19.4082 12.0222 19.1641C12.0454 18.9895 12.0748 18.8166 12.1211 18.6438C12.1683 18.4674 12.2449 18.283 12.2467 18.1057C12.2485 17.9836 12.2449 17.8616 12.2449 17.7404C12.2449 17.6967 12.2351 17.6495 12.2431 17.6059C12.2556 17.5346 12.391 17.5114 12.5104 17.4785C12.8267 17.3903 13.1403 17.2967 13.4432 17.1969C13.567 17.1559 13.6864 17.1105 13.804 17.0642C13.878 17.066 13.9528 17.0669 14.0205 17.0579C13.9831 17.0464 13.9439 17.0357 13.9056 17.0241C13.9216 17.0179 13.9386 17.0116 13.9546 17.0054C14.0081 16.984 14.0945 16.9368 14.1658 16.9323C13.968 16.9493 13.7613 16.935 13.559 16.9359C13.527 16.9288 13.4949 16.9199 13.4619 16.9136C13.1973 16.8637 12.9844 16.788 12.7376 16.7114C12.6316 16.6793 12.5069 16.6374 12.3884 16.6241C12.2574 16.6089 12.2378 16.649 12.2039 16.5626C12.1808 16.5047 12.1772 16.4468 12.1505 16.3871C12.0854 16.2436 12.0329 16.0931 11.9803 15.9479C11.9073 15.7474 11.8796 15.5461 11.8324 15.3429C11.7834 15.1327 11.7193 14.9242 11.6694 14.7139C11.6195 14.5046 11.6213 14.2916 11.5758 14.0814C11.5117 13.7838 11.4324 13.4969 11.3977 13.1976C11.3674 12.9383 11.3086 12.6808 11.2765 12.4216C11.2364 12.1035 11.2275 11.7855 11.2088 11.4674C11.1722 10.8732 11.1357 10.2798 11.1277 9.68556C11.1232 9.4165 11.0734 9.14834 11.0787 8.87928C11.0805 8.80444 11.1063 8.70733 11.0306 8.64051C11.0306 8.64675 11.0315 8.65209 11.0324 8.65922C11.0315 8.65298 11.0306 8.64585 11.0297 8.63962C11.0297 8.63962 11.0297 8.64051 11.0306 8.64051C11.0074 8.34472 10.9379 8.57191 10.9379 8.62804C10.937 8.80979 10.9379 8.99242 10.9379 9.17506C10.9379 9.633 10.9264 10.0829 10.8854 10.54C10.8417 11.0326 10.8515 11.5262 10.8079 12.0198C10.7829 12.3004 10.8016 12.5784 10.7508 12.8581C10.6974 13.1468 10.7161 13.4346 10.6938 13.7241C10.6707 14.0359 10.6315 14.3504 10.5976 14.6614C10.5744 14.8841 10.545 15.1042 10.4987 15.3251C10.4515 15.5496 10.3749 15.7848 10.3731 16.012C10.3713 16.167 10.3749 16.322 10.3749 16.478C10.3749 16.5332 10.3847 16.5938 10.3767 16.649C10.3642 16.739 10.2288 16.7693 10.1094 16.8112C9.7931 16.9243 9.4795 17.0437 9.17658 17.1702C9.09462 17.205 9.01533 17.2424 8.93692 17.2798C8.82378 17.2816 8.7035 17.2736 8.59927 17.2851C8.67143 17.303 8.74716 17.3199 8.82289 17.3359C8.77032 17.3626 8.71776 17.3885 8.66519 17.4152C8.61174 17.4419 8.52532 17.5016 8.45404 17.5079Z"/>
  <path d="M10.9142 16.8776C10.9151 16.8785 10.9151 16.8794 10.9151 16.8794C10.9143 16.8696 10.9134 16.8598 10.9125 16.8509C10.9134 16.8607 10.9142 16.8678 10.9142 16.8776Z"/>
  <path d="M14.3326 9.23419C14.3353 9.2333 14.3371 9.2333 14.3397 9.2333C14.3299 9.23241 14.3201 9.23241 14.3103 9.23152C14.3166 9.23152 14.3246 9.2333 14.3326 9.23419Z"/>
  <path d="M9.73224 11.6089C9.68591 11.6196 9.6868 11.5973 9.65116 11.5893C9.59503 11.5768 9.54158 11.5706 9.48278 11.5679C9.21283 11.5581 8.94021 11.5697 8.67026 11.5697H6.78774C5.72487 11.5697 4.66199 11.5697 3.59912 11.5697C3.39688 11.5697 3.17772 11.5937 2.97726 11.5608C2.81155 11.534 2.66811 11.5305 2.49883 11.5305C2.21908 11.5314 1.93844 11.5305 1.65869 11.5305H0.470202C0.382892 11.5305 0.219853 11.4993 0.137888 11.5269C0.0532503 11.5545 0.0283045 11.7193 0.00959507 11.8102C-0.00644154 11.8842 0.00246821 11.9635 0.00246821 12.0392C0.00246821 12.1087 0.00335913 12.1782 0.00246821 12.2477C0.00157729 12.3243 0.0176134 12.3448 0.0327591 12.4071C0.0630505 12.5274 -0.0251511 12.874 0.0764141 12.9435C0.138779 12.9862 0.401601 12.8945 0.422983 12.8891C0.643041 12.8303 0.847954 12.7769 1.07514 12.7412C1.30054 12.7065 1.52684 12.6619 1.75313 12.637C2.04179 12.6049 2.34114 12.629 2.6298 12.629H3.61605C4.0526 12.629 4.49628 12.6512 4.93283 12.6316C5.16091 12.6218 5.39522 12.5595 5.62152 12.5301C5.86919 12.4989 6.11865 12.4793 6.35475 12.3982C6.51868 12.3412 6.67637 12.3189 6.84476 12.2771C6.90712 12.2619 6.96325 12.2379 7.02294 12.2165C7.13876 12.1746 7.23765 12.1693 7.35793 12.1541C7.55037 12.1301 7.7339 12.0597 7.92901 12.0436C8.0769 12.0321 8.2141 12.0223 8.36111 11.9964C8.57404 11.9581 8.76113 11.9136 8.9705 11.8432C9.06404 11.8111 9.16294 11.7425 9.25827 11.7282C9.35003 11.7149 9.44358 11.6997 9.73224 11.6089Z"/>
  <path d="M12.5964 11.5305H21.7729C21.8914 11.5305 22.0099 11.5314 22.1284 11.5305C22.2603 11.5305 22.4482 11.4904 22.5649 11.5635C22.5543 11.7381 22.483 11.9011 22.483 12.0793C22.483 12.1372 22.4812 12.1871 22.4919 12.245C22.4955 12.2673 22.5427 12.4018 22.5257 12.4374C22.5026 12.4856 22.4901 12.4695 22.4393 12.4731C22.2148 12.4864 21.9858 12.4722 21.7622 12.4722H20.6486C20.0231 12.4722 19.3861 12.5132 18.7669 12.4232C18.2787 12.3519 17.7896 12.2976 17.3023 12.2183C16.7944 12.1345 16.2875 12.0392 15.7717 12.0401C15.3601 12.041 14.9484 12.0374 14.5377 12.041C14.3105 12.0437 14.1047 11.9706 13.8829 11.9314C13.7225 11.9038 13.5586 11.8904 13.3974 11.8646C13.2824 11.8459 13.1844 11.8004 13.0748 11.7737C12.9412 11.7407 12.8307 11.706 12.7069 11.6472C12.6133 11.6035 12.4646 11.5679 12.5964 11.5305Z"/>
  <path d="M11.8116 7.13636C11.8116 7.12567 11.8116 7.11497 11.8116 7.10428C12.0539 7.05528 12.3167 7.01163 12.5626 6.98846C12.9021 6.9555 13.2379 6.89937 13.5783 6.89937C13.9685 6.89937 14.3195 6.99826 14.6465 7.21387C14.7498 7.28247 14.8986 7.34483 14.9815 7.43571C15.0233 7.48025 15.0456 7.54975 15.0777 7.59875C15.1169 7.66022 15.1712 7.70477 15.2033 7.76891C15.3173 7.99966 15.3013 8.30792 15.3031 8.55738C15.3049 8.76229 15.2363 8.94939 15.0955 9.10173C14.9494 9.26032 14.8104 9.34763 14.5966 9.41267C14.43 9.46256 14.2206 9.47414 14.0478 9.44296C13.9391 9.42425 13.8197 9.38772 13.7235 9.33426C13.6299 9.28259 13.556 9.18726 13.5364 9.32981C13.5123 9.50176 13.6201 9.68172 13.7235 9.80289C13.7876 9.87862 13.8304 9.92227 13.9382 9.95256C14.0879 9.99355 14.2509 10.0025 14.4041 10.0007C14.6946 9.998 14.9244 9.96949 15.1784 9.81358C15.2924 9.74409 15.3761 9.65321 15.4688 9.55967C15.5802 9.44919 15.7263 9.34852 15.8234 9.23092C15.9873 9.02957 16.1174 8.73467 16.1584 8.47898C16.1949 8.25714 16.1352 8.02728 16.08 7.81435C16.0096 7.54084 15.851 7.30385 15.7058 7.06419C15.6434 6.96263 15.5472 6.82453 15.4608 6.74079C15.3592 6.6419 15.222 6.59468 15.0964 6.53855C14.7997 6.40491 14.4202 6.38976 14.095 6.39066C13.932 6.39155 13.7484 6.41025 13.5863 6.38175C13.3947 6.34878 13.2014 6.30602 13.0081 6.28107C12.8379 6.2588 12.6624 6.27305 12.4913 6.27305C12.2134 6.27305 11.9327 6.26325 11.6548 6.27127C11.4418 6.27751 11.2342 6.31136 11.0213 6.31136C10.7995 6.31225 10.5821 6.37551 10.3602 6.39066"/>
  <path d="M10.6346 16.7485H9.83274C9.4051 16.7485 8.96409 16.7823 8.54179 16.7093C8.2273 16.6558 7.95289 16.5347 7.68294 16.3681C7.46467 16.2327 7.24461 15.9155 7.15819 15.6669C7.11988 15.5547 7.10117 15.4469 7.10295 15.3284C7.10384 15.2081 7.0789 15.062 7.10384 14.9435C7.14037 14.7742 7.30252 14.604 7.44507 14.5114C7.54485 14.4463 7.65443 14.4116 7.77203 14.3982C7.81747 14.3929 7.86291 14.4 7.90656 14.3911C7.9422 14.3831 7.96893 14.3573 8.00546 14.3528C8.0598 14.3457 8.12128 14.3786 8.17206 14.3947C8.24066 14.4161 8.32084 14.4223 8.38499 14.4588C8.2469 14.2129 7.97784 13.9474 7.70343 13.853C7.56089 13.804 7.34706 13.7835 7.20006 13.8022C7.04148 13.8227 6.89269 13.9439 6.77687 14.0437C6.22094 14.5221 6.08374 15.2277 6.08374 15.9333C6.08374 16.1364 6.06324 16.3102 6.14521 16.4981C6.24143 16.72 6.35547 16.8741 6.53187 17.0416C6.82498 17.3196 7.24817 17.3588 7.63661 17.3757C7.86202 17.3864 8.07762 17.4158 8.30481 17.4158C8.45894 17.4149 8.61396 17.4158 8.76809 17.4158H9.84967"/>
  <path d="M12.5964 3.40916C13.1782 3.29423 13.7733 3.27196 14.364 3.28889C15.0251 3.3067 15.6754 3.45371 16.3294 3.53389C17.3441 3.65773 18.366 4.19317 18.8845 5.0939C19.1002 5.46897 19.175 5.8886 19.2463 6.31001C19.3202 6.7421 19.4013 7.18667 19.4244 7.62501C19.4342 7.8023 19.4066 7.98049 19.4316 8.15778C19.4654 8.39476 19.4619 8.62462 19.4619 8.86517C19.4628 9.43803 19.4628 10.01 19.4619 10.5829C19.4619 10.9134 19.4227 11.235 19.4227 11.5656C19.4236 11.8934 19.4227 12.2213 19.4227 12.5491C19.4227 12.8627 19.4307 13.1772 19.4236 13.4908C19.4182 13.7439 19.3781 14.0058 19.3425 14.2544C19.3247 14.3746 19.2685 14.5199 19.2284 14.6384C19.1884 14.7568 19.1411 14.8513 19.0699 14.952C19.0013 15.0491 18.9647 15.1649 18.8943 15.2602C18.832 15.3457 18.7037 15.4464 18.6164 15.5088C18.4008 15.6647 18.0694 15.7173 17.8154 15.7565C17.4546 15.8126 17.1205 15.9685 16.7517 15.964C16.4969 15.9614 16.2421 15.964 15.9864 15.964C15.8251 15.964 15.6639 15.9587 15.5026 15.9623C15.3289 15.9658 15.1614 16.005 14.9877 16.0032C14.8834 16.0024 14.7774 15.9988 14.6732 16.0015C14.5529 16.005 14.4433 16.0442 14.3221 16.0424C14.103 16.0398 13.8838 16.0487 13.6646 16.0416C13.7038 16.0335 13.7769 16.0754 13.817 16.0906C13.9604 16.1431 14.119 16.1502 14.2669 16.1894C14.4139 16.2278 14.5502 16.2215 14.6972 16.2474C14.8825 16.2794 15.0661 16.3195 15.2549 16.3177C16.0692 16.3088 16.9014 16.381 17.705 16.2286C18.1139 16.1511 18.5246 16.1502 18.9166 16.0006C19.0895 15.9355 19.2525 15.9195 19.4138 15.8188C19.6098 15.6968 19.8574 15.5622 20.0027 15.3769C20.204 15.1186 20.4544 14.8254 20.5515 14.5065C20.6753 14.1038 20.7172 13.6744 20.7172 13.2574C20.7181 12.3184 20.7172 11.3794 20.7172 10.4403C20.7172 9.45585 20.7724 8.4598 20.6388 7.48424C20.5693 6.97285 20.5185 6.48463 20.335 5.99907C20.1407 5.48501 20.073 4.94778 19.7577 4.48807C19.6098 4.27425 19.4512 4.07023 19.3033 3.85729C19.1919 3.69782 19.0797 3.55616 18.9068 3.45727C18.4631 3.20247 17.9714 3.10803 17.4805 2.99399C17.0109 2.8853 16.5485 2.71691 16.0612 2.70088C15.5008 2.68306 14.9119 2.67237 14.3524 2.70622C13.8687 2.73473 13.3688 2.83897 12.9118 3.00379C12.7942 3.04655 12.6891 3.10179 12.5741 3.15168C12.4521 3.20425 12.3158 3.2283 12.1982 3.29067C12.1002 3.34234 12.0093 3.51696 12.5964 3.40916Z"/>
  <path d="M8.80266 21.8013C8.22089 21.9162 7.62575 21.9385 7.03507 21.9216C6.37401 21.9029 5.72363 21.7568 5.06969 21.6766C4.05493 21.5527 3.03305 21.0173 2.51453 20.1166C2.29893 19.7415 2.22409 19.3219 2.15281 18.9005C2.07887 18.4684 1.99779 18.0238 1.97374 17.5855C1.96483 17.4082 1.99245 17.23 1.9675 17.0527C1.93365 16.8157 1.93721 16.5858 1.93721 16.3453C1.93632 15.7724 1.93632 15.1996 1.93721 14.6276C1.93721 14.2971 1.97641 13.9754 1.97552 13.6449C1.97552 13.317 1.97641 12.9892 1.97641 12.6613C1.97641 12.3477 1.96839 12.0332 1.97552 11.7196C1.98087 11.4666 2.02096 11.2047 2.05659 10.9561C2.07441 10.8358 2.12965 10.6906 2.16974 10.5721C2.21072 10.4536 2.25794 10.3592 2.32922 10.2585C2.39782 10.1614 2.43435 10.0456 2.50384 9.95024C2.5662 9.86472 2.69539 9.76404 2.78181 9.70079C2.9983 9.54577 3.32972 9.49231 3.58364 9.454C3.94446 9.39787 4.27856 9.24196 4.6474 9.24641C4.9022 9.24909 5.15701 9.24641 5.4127 9.24641C5.57307 9.24641 5.73521 9.25176 5.89647 9.2482C6.0702 9.24463 6.2377 9.20543 6.41143 9.20721C6.51566 9.20811 6.62168 9.21167 6.72592 9.209C6.8462 9.20543 6.95578 9.16623 7.07694 9.16801C7.29611 9.17069 7.51528 9.16178 7.73445 9.1689C7.69524 9.17692 7.62219 9.13505 7.5821 9.1199C7.43777 9.06734 7.28007 9.06021 7.13218 9.02101C6.98429 8.9827 6.84887 8.98894 6.70187 8.9631C6.51655 8.93103 6.33302 8.89094 6.14415 8.89272C5.32984 8.90163 4.49772 8.82946 3.69411 8.98181C3.28518 9.05932 2.87446 9.06021 2.48246 9.20989C2.30962 9.27492 2.14658 9.29096 1.98532 9.39074C1.78932 9.51369 1.54164 9.64822 1.39642 9.83353C1.19507 10.0919 0.944723 10.385 0.847612 10.704C0.723774 11.1067 0.681901 11.5361 0.68101 11.953C0.680119 12.8921 0.68101 13.8311 0.68101 14.7701C0.68101 15.7546 0.625773 16.7507 0.759411 17.7262C0.829794 18.2376 0.880577 18.7258 1.06411 19.2114C1.25833 19.7254 1.32604 20.2627 1.64142 20.7224C1.78843 20.9362 1.94701 21.1402 2.0958 21.3532C2.20716 21.5126 2.31942 21.6543 2.49226 21.7532C2.93594 22.008 3.42772 22.1015 3.91862 22.2165C4.38814 22.3252 4.85053 22.4935 5.33786 22.5096C5.89825 22.5274 6.48715 22.5381 7.04665 22.5042C7.53042 22.4757 8.03023 22.3715 8.48728 22.2067C8.60488 22.1639 8.71001 22.1087 8.82493 22.0588C8.94699 22.0062 9.0833 21.9822 9.2009 21.9198C9.29891 21.8681 9.38978 21.6935 8.80266 21.8013Z"/>
</svg>
