<svg width="8" height="24" viewBox="0 0 8 24" fill="#000000" xmlns="http://www.w3.org/2000/svg">
  <path d="M6.32091 3.07744C6.27511 3.21972 6.17375 3.33082 6.11918 3.47018C6.0646 3.60857 6.00126 3.72844 5.88821 3.83174C5.79465 3.9175 5.67673 3.96135 5.55881 3.99839C5.47305 4.02567 5.39606 4.08805 5.31323 4.11143C5.25378 4.128 5.17094 4.1202 5.11539 4.11923C4.98091 4.11728 4.84642 4.11826 4.71193 4.11826C4.53749 4.11826 4.33575 4.14847 4.17008 4.08707C4.09894 4.06076 4.01025 4.03639 3.94593 4.00131C3.86602 3.95745 3.83581 3.90386 3.73446 3.90191C3.58438 3.89801 3.48107 4.01983 3.34854 4.07635C3.14973 4.16114 2.92168 4.2469 2.70826 4.28198C2.20831 4.36579 1.56706 4.43596 1.24156 3.94966C1.18114 3.86097 1.18309 3.67386 1.16749 3.56764C1.14995 3.44094 1.11779 3.3123 1.11389 3.18464C1.10707 2.91664 0.984279 2.62525 1.03788 2.35724C1.06419 2.22958 1.14703 2.12238 1.21232 2.01323C1.26397 1.92747 1.29711 1.86899 1.39261 1.82611C1.60896 1.72574 1.83409 1.67214 2.06895 1.67214C2.15471 1.67214 2.27848 1.64972 2.36229 1.66921C2.40127 1.67896 2.4042 1.70819 2.44318 1.71697C2.5036 1.73061 2.56305 1.73158 2.62639 1.74718C2.78232 1.78713 2.93045 1.83683 3.08053 1.89726C3.14193 1.92162 3.18481 1.9762 3.2579 1.9762C3.31638 1.9762 3.40993 1.91285 3.45574 1.88654C3.5376 1.83878 3.60679 1.80662 3.69255 1.76862C3.79878 1.72184 3.92644 1.6926 4.02682 1.63998C4.1311 1.5854 4.20809 1.52401 4.32503 1.4899C4.39618 1.46943 4.47609 1.44897 4.59109 1.24236H5.19238C5.39217 1.24236 5.56564 1.22969 5.7508 1.31837C5.82974 1.35541 5.94279 1.40024 6.00028 1.46846C6.02855 1.50159 6.06071 1.58735 6.08312 1.62828C6.1913 1.82709 6.27608 2.05221 6.32968 2.27051C6.35892 2.38843 6.33748 2.5044 6.36184 2.62232C6.394 2.7802 6.37061 2.92248 6.32091 3.07744ZM7.64045 3.0443C7.62876 2.88448 7.59855 2.6691 7.55469 2.51902C7.50791 2.35335 7.47673 2.19157 7.43775 2.02492C7.40948 1.90018 7.33932 1.79298 7.29351 1.67408C7.25161 1.56299 7.22724 1.44604 7.18923 1.33299C7.13076 1.15758 7.05377 0.96169 6.9417 0.80966C6.73899 0.531914 6.37256 0.414968 6.06753 0.288277C5.61729 0.100189 5.1076 0.17328 4.62812 0.169382C4.38643 0.166458 4.17008 0.187898 3.94106 0.267811C3.84361 0.300946 3.75492 0.317513 3.66137 0.346749C3.61264 0.361367 3.56878 0.363317 3.56196 0.427637C3.11367 0.275607 2.84762 0.097265 2.53576 0.017352C2.335 -0.0342991 2.10599 0.0465886 1.89548 0.0407413C1.63918 0.034894 1.45596 0.122603 1.2133 0.187897C0.96966 0.253192 0.731871 0.262938 0.518444 0.408145C0.358618 0.515346 0.297221 0.728772 0.212436 0.898344C0.111082 1.10105 0.128625 1.32422 0.0750243 1.53862C0.019475 1.75692 0.000958411 1.94599 -1.61388e-05 2.17306C-0.000990688 2.51805 0.0477368 2.84549 0.0964642 3.18659C0.156886 3.61831 0.211461 4.05491 0.402473 4.4535C0.575943 4.81311 0.8303 5.23411 1.24741 5.3306C1.39359 5.36373 1.531 5.38615 1.68011 5.40369C1.78926 5.41636 1.80193 5.42902 1.88184 5.4797C2.03095 5.57521 2.17908 5.67559 2.19272 5.87147C2.20636 6.07125 2.18785 6.28078 2.18785 6.48154C2.18785 6.70861 2.19467 6.88987 2.27166 7.10622C2.33695 7.28652 2.38081 7.44732 2.48898 7.60714C2.55525 7.7046 2.6761 7.78256 2.7297 7.88197C2.78525 7.98332 2.74626 8.15679 2.74626 8.27178V8.63432C2.74626 8.85164 2.73652 9.06994 2.74431 9.28629C2.74919 9.43052 2.77648 9.59912 2.79792 9.74433C2.83008 9.96945 2.88465 10.1907 2.90804 10.4177C2.94117 10.7374 2.96067 11.0444 2.96067 11.366C2.96067 11.67 2.96261 11.9741 2.95969 12.2782C2.95774 12.5471 2.9977 12.8112 3.00549 13.0783C3.01719 13.4359 3.03083 13.8131 2.9938 14.1698C2.98113 14.2926 2.96164 14.4095 2.95969 14.5333C2.95774 14.6366 2.97041 14.7369 2.95092 14.8402C2.87783 15.2349 2.90512 15.6413 2.84274 16.038C2.81936 16.1822 2.81546 16.3333 2.79012 16.4775C2.77648 16.5545 2.72775 16.6354 2.74431 16.7163C2.75698 16.7786 2.79597 16.8098 2.84274 16.8537C2.88075 16.8888 2.97138 16.9238 2.9977 16.9589C3.02596 16.9969 3.00355 17.1022 3.00452 17.147C3.00452 17.2464 2.97626 17.3234 2.96067 17.4199C2.91096 17.722 2.8788 18.029 2.82715 18.3301C2.80474 18.4597 2.78037 18.5932 2.73749 18.718C2.69851 18.833 2.64978 18.9197 2.62737 19.0435C2.61178 19.1244 2.60106 19.1877 2.57377 19.2676C2.5114 19.4489 2.53869 19.6389 2.48898 19.8251C2.4539 19.9557 2.44513 20.0716 2.4461 20.2051C2.4461 20.2812 2.44415 20.3572 2.44513 20.4332C2.4461 20.5394 2.48119 20.6252 2.48996 20.7265C2.5036 20.9049 2.3886 21.0559 2.32916 21.206C2.24827 21.4068 2.26776 21.5335 2.40322 21.7137C2.48021 21.8161 2.57962 21.8677 2.67512 21.9408C2.71508 21.971 2.73067 21.9642 2.76088 22.0129C2.80571 22.085 2.80474 22.1952 2.83202 22.2741C2.88952 22.4427 2.90317 22.6366 2.92656 22.816C2.97528 23.1921 2.9899 23.5449 3.32417 23.7525C3.3768 23.7847 3.43332 23.8168 3.48497 23.849C3.52395 23.8724 3.57073 23.886 3.60679 23.9114C3.62336 23.923 3.6448 23.9757 3.65649 23.9805C3.76954 24.0312 3.94301 23.9698 4.05508 23.9455C4.1808 23.9182 4.30262 23.8909 4.42249 23.848C4.56672 23.7964 4.59498 23.734 4.6671 23.6034C4.69536 23.5508 4.74117 23.4718 4.75384 23.4202C4.76358 23.3793 4.75189 23.3393 4.76066 23.2993C4.76553 23.2808 4.79477 23.2584 4.79672 23.2487C4.82303 23.12 4.78405 22.9797 4.80939 22.851C4.82693 22.7653 4.84837 22.7058 4.84837 22.6152C4.84934 22.5333 4.82108 22.5158 4.80354 22.4456C4.77625 22.3306 4.81231 22.1981 4.85909 22.1006C4.93023 21.9506 5.00137 21.7966 5.06862 21.6504C5.11734 21.5461 5.15535 21.3668 5.23234 21.282C5.27425 21.2352 5.39606 21.1573 5.44966 21.1319C5.50814 21.1047 5.55881 21.1202 5.62216 21.1134C5.71767 21.1047 5.68745 21.0754 5.7586 21.0355C5.80732 21.0082 5.90478 21.0218 5.95546 21.0277C6.01685 21.2002 6.09482 21.3405 6.1796 21.5013C6.21566 21.5705 6.27316 21.6796 6.33943 21.7264C6.42324 21.7849 6.65226 21.7742 6.75848 21.7586C6.85204 21.744 6.95339 21.7235 7.0489 21.705C7.12589 21.6904 7.28279 21.6523 7.34224 21.5968C7.41338 21.5296 7.39779 21.2781 7.37732 21.1768C7.35978 21.0871 7.33737 21.0374 7.33834 20.9409C7.33834 20.8708 7.33834 20.8006 7.33834 20.7295V19.2628C7.33834 19.0571 7.33152 18.8632 7.37148 18.6624C7.38804 18.5806 7.38804 18.4919 7.37148 18.411C7.27207 17.9354 7.22237 17.4248 7.16779 16.9492C7.16 16.881 7.13076 16.8468 7.12199 16.7796C7.11225 16.6938 7.11225 16.6471 7.08009 16.5633C7.04208 16.4629 7.01089 16.3235 6.92026 16.2504C6.84132 16.1871 6.64836 16.2163 6.54506 16.2202C6.45248 16.2231 6.34917 16.2358 6.26049 16.265C6.17668 16.2914 6.18155 16.2553 6.17863 16.3703C6.17668 16.4648 6.15914 16.4833 6.13575 16.5603C6.11918 16.612 6.15914 16.6938 6.08507 16.7182C6.07338 16.7221 6.00808 16.6938 5.98956 16.6909C5.93889 16.6831 5.86775 16.6929 5.81707 16.6929H5.52373C5.28594 16.6929 4.79964 16.7845 4.80646 16.4346C4.81231 16.1276 4.80646 15.8197 4.80646 15.5117C4.80646 15.3909 4.81328 15.2671 4.80744 15.1463C4.80256 15.0449 4.76651 14.9533 4.76066 14.8519C4.73922 14.4485 4.76358 14.0372 4.76358 13.6338C4.76358 12.9633 4.71973 12.2976 4.7207 11.6281C4.7207 11.2227 4.7207 10.8173 4.7207 10.4109V8.42576C4.7207 8.25814 4.69634 8.06226 4.71973 7.89269C4.74896 7.67341 4.93413 7.52138 5.04133 7.31283C5.22552 6.95225 5.15145 6.51662 5.08421 6.13362C5.05497 5.9621 5.04328 5.7555 5.06082 5.58008C5.07056 5.4797 5.14171 5.45534 5.23429 5.41538C5.44577 5.3228 5.65724 5.23996 5.87067 5.15615C6.09969 5.06747 6.34138 5.02069 6.56747 4.92323C6.62789 4.89692 6.68149 4.85209 6.73704 4.8248C6.79064 4.79947 6.85984 4.78972 6.91149 4.75171C6.97094 4.70883 7.01869 4.64646 7.08203 4.60066C7.14148 4.55778 7.17169 4.52464 7.21555 4.46714C7.28572 4.37456 7.36465 4.29173 7.42605 4.1933C7.49037 4.08902 7.51766 3.97305 7.57418 3.86585C7.69015 3.64852 7.65897 3.28891 7.64045 3.0443Z"/>
</svg>
