<svg width="20" height="24" viewBox="0 0 20 24" fill="#000000" xmlns="http://www.w3.org/2000/svg">
  <path d="M17.8393 16.1818C17.7023 16.0523 17.5337 15.9564 17.3949 15.8287C17.3287 15.7672 17.2719 15.6843 17.2001 15.6303C17.08 15.539 16.8769 15.6005 16.7483 15.6442C16.5722 15.7048 16.3849 15.7234 16.2144 15.8073C16.0728 15.8772 15.961 15.921 15.8296 15.8213C15.6731 15.7039 15.5278 15.5511 15.3852 15.4169C15.2799 15.3182 15.1514 15.2483 15.0554 15.1421C14.8094 14.8691 14.4899 14.6632 14.2187 14.4153C13.738 13.9765 13.2442 13.5535 12.7774 13.0989C12.5753 12.9023 12.3982 12.6852 12.2054 12.4802C12.0945 12.3628 11.9827 12.2631 11.8504 12.1728C11.8122 12.1458 11.7265 12.1262 11.7433 12.0638C11.4544 12.1709 11.5215 12.2045 11.5578 12.2501C11.6026 12.3041 11.6324 12.3712 11.6706 12.4299C11.7311 12.5231 11.7703 12.6312 11.8336 12.7225C11.8746 12.7802 11.9361 12.8296 11.9808 12.8837C12.0992 13.0271 12.2082 13.1837 12.3172 13.3337C12.5035 13.5899 12.7076 13.8302 12.8948 14.0846C13.3197 14.6613 13.7343 15.2464 14.1545 15.8269C14.2542 15.9638 14.3445 16.0952 14.4125 16.2526C14.4489 16.3356 14.4787 16.3849 14.5337 16.4623C14.6259 16.5936 14.7256 16.7874 14.7414 16.9495C14.7507 17.0436 14.7042 17.0958 14.6669 17.1778C14.6026 17.3203 14.5812 17.4871 14.5327 17.6353C14.5048 17.7191 14.4787 17.8011 14.4917 17.8915C14.5057 17.9884 14.5243 17.9735 14.6138 18.021C14.6939 18.0638 14.7955 18.1141 14.8588 18.1784C14.9697 18.2912 15.0498 18.4477 15.1532 18.5697C15.211 18.6378 15.2259 18.7067 15.2744 18.7729C15.2986 18.8064 15.2902 18.8455 15.3489 18.8371C15.4504 18.8222 15.5343 18.5753 15.6023 18.4999C15.6545 18.4412 15.7402 18.3154 15.8054 18.2763C15.8669 18.2399 15.9414 18.2194 16.0076 18.1794C16.3411 17.9791 16.7147 17.748 16.997 17.4815C17.2598 17.2337 17.4936 16.9439 17.6884 16.6421C17.7498 16.5461 17.8589 16.4306 17.8905 16.3188C17.912 16.2405 17.8933 16.2331 17.8393 16.1818Z"/>
  <path d="M7.34473 12.2194C7.20219 12.3349 7.03914 12.4206 6.90498 12.5473C6.71585 12.7253 6.56119 12.9386 6.37764 13.1231C6.14752 13.3551 5.88292 13.5424 5.64813 13.7697C5.49906 13.9141 5.32577 14.0287 5.17111 14.1666C5.03135 14.2896 4.87483 14.393 4.73508 14.5169C4.66613 14.5775 4.59626 14.6306 4.52452 14.6883C4.47327 14.7293 4.39594 14.7619 4.35402 14.8122C4.32048 14.8542 4.30557 14.8998 4.27203 14.9427C4.14066 15.1104 3.91985 15.2567 3.75121 15.3899C3.65339 15.4663 3.54717 15.5278 3.45214 15.607C3.37202 15.6731 3.30587 15.7402 3.21456 15.7905C3.17823 15.811 3.16891 15.8082 3.13537 15.838C3.04965 15.9135 3.09251 15.9256 2.98164 15.88C2.76642 15.7896 2.52232 15.7607 2.30244 15.6731C2.19064 15.6284 2.12728 15.5613 2.01455 15.6265C1.83287 15.7318 1.68659 15.9172 1.56641 16.0859C1.48814 16.1977 1.33535 16.3067 1.31205 16.4446C1.29901 16.5144 1.28131 16.4399 1.31578 16.5303C1.34187 16.6011 1.46951 16.7036 1.51703 16.7623C1.63442 16.9057 1.75647 17.0203 1.84684 17.1843C1.90368 17.2887 1.97262 17.3865 2.05647 17.4759C2.4217 17.8645 2.72449 18.3238 3.13444 18.6676C3.32357 18.826 3.50245 18.9657 3.72047 19.0775C3.80618 19.1213 3.89097 19.1707 3.97202 19.2229C4.01954 19.2545 4.10712 19.3552 4.15743 19.3635C4.29346 19.384 4.32793 19.194 4.43041 19.1166C4.56924 19.0114 4.72949 18.962 4.90464 18.9555C4.98197 18.9527 5.14502 18.9583 5.18229 18.8781C5.22049 18.7924 5.17949 18.5986 5.17856 18.5092C5.17856 18.4514 5.17483 18.3918 5.1767 18.334C5.17856 18.2791 5.2326 18.1523 5.2149 18.1002C5.21117 18.0899 5.17577 18.0685 5.16738 18.0601C5.0416 17.9315 4.86458 17.8551 4.73974 17.721C4.61955 17.5915 4.56178 17.4321 4.47979 17.2794C4.4388 17.2039 4.40433 17.1564 4.39874 17.0688C4.38756 16.9039 4.40526 16.8023 4.49936 16.6588C4.6475 16.4315 4.81427 16.2219 4.97825 16.0067C5.13477 15.8026 5.28105 15.5883 5.44223 15.388C5.52142 15.2911 5.61273 15.2073 5.69285 15.1113C5.81677 14.966 5.91366 14.802 6.03478 14.6548C6.08975 14.5877 6.12143 14.5169 6.17081 14.4452C6.23137 14.3566 6.31615 14.2812 6.37112 14.1889C6.43261 14.0846 6.45497 13.9719 6.53323 13.874C6.63199 13.7501 6.69535 13.6355 6.77827 13.4986C6.88634 13.3187 7.02237 13.1445 7.14815 12.9759C7.21243 12.8902 7.27206 12.8166 7.31585 12.7169C7.34753 12.6442 7.39598 12.5836 7.42765 12.5147C7.50592 12.3433 7.55809 12.1485 7.51803 12.1048C7.42672 12.128 7.41275 12.1644 7.34473 12.2194Z"/>
  <path d="M19.7851 7.57807C19.7851 7.38614 19.7888 7.21005 19.7534 7.02278C19.7106 6.79824 19.7609 6.5616 19.7404 6.3352C19.7208 6.11345 19.7031 5.90942 19.7031 5.68488C19.704 5.42121 19.7031 5.15661 19.7031 4.89294V4.0507C19.7031 3.88765 19.7357 3.69107 19.6994 3.53175C19.5093 3.50566 19.1842 3.48982 19.0258 3.6128C18.8991 3.71063 18.8599 3.88672 18.791 4.02275C18.7463 4.11312 18.6727 4.18207 18.6158 4.26499C18.5152 4.41126 18.4388 4.58176 18.3466 4.73456C18.2394 4.9153 18.0531 5.07183 18.014 5.28798C17.822 5.32525 17.5984 5.29357 17.4028 5.29357H15.0875C14.7344 5.29357 14.3813 5.29357 14.0282 5.29357C13.6089 5.29357 13.1971 5.33549 12.7788 5.33456C12.2673 5.33363 11.7549 5.33456 11.2425 5.33456C11.276 5.10816 11.2965 4.88176 11.3338 4.65536C11.4185 4.13734 11.5043 3.61187 11.4977 3.0864C11.4931 2.7864 11.5248 2.51714 11.5807 2.22272C11.6198 2.01775 11.6291 1.80906 11.6617 1.60315C11.6943 1.40005 11.7884 1.42147 11.9552 1.35812C12.0772 1.31153 12.1918 1.237 12.3167 1.19973C12.4248 1.16805 12.558 1.15967 12.6409 1.07302C12.5887 0.909977 12.4415 0.755318 12.3474 0.614634C12.2692 0.496309 12.1816 0.318355 12.0707 0.222392C11.9552 0.120838 11.754 0.161833 11.6105 0.136677C11.3971 0.098478 11.1726 0.0463039 10.9564 0.0388504C10.7841 0.0332603 10.6098 0.0425751 10.4375 0.0425751C10.0527 0.0416434 9.66697 0.0425751 9.28218 0.0425751C8.64677 -0.064569 8.3654 0.0574836 8.0654 0.114317C7.93589 0.13854 7.80453 0.155311 7.67409 0.174877C7.54924 0.19351 7.53993 0.179535 7.51291 0.285747C7.49986 0.337922 7.5185 0.416183 7.5185 0.473948C7.5185 0.636061 7.50452 0.797243 7.48775 0.959357C7.46725 1.15594 7.40576 1.36278 7.44396 1.56123C7.51477 1.92552 8.06167 1.72334 8.33559 1.79508C8.49304 1.83701 8.6682 1.85285 8.78373 1.98421C8.8741 2.08577 8.83031 2.25161 8.83031 2.38577C8.83125 2.76683 8.83404 3.14417 8.79305 3.5215C8.74553 3.95473 8.78839 4.42151 8.78932 4.85661C8.79025 5.00754 8.7828 5.15568 8.77348 5.30475C8.53311 5.28798 8.29366 5.29357 8.04956 5.29357C7.1216 5.29357 6.1983 5.28705 5.27127 5.24885C4.82872 5.23021 4.39362 5.21158 3.95013 5.21158H2.69235C2.23862 5.21158 1.76439 5.26655 1.32836 5.12214C1.31532 5.00381 1.24451 4.91251 1.23985 4.78953C1.23333 4.6507 1.24637 4.51002 1.24265 4.3712C1.24078 4.31437 1.24451 4.01436 1.19234 3.9566C1.15134 3.91281 1.09637 3.9361 1.04513 3.94914C0.96221 3.97057 0.898856 3.97616 0.812209 3.98269C0.660343 3.9948 0.517796 4.05536 0.367794 4.08144C0.273694 4.09728 0.129282 4.07772 0.0510201 4.13828C0.0510201 4.18579 0.0612677 4.23144 0.0817649 4.27523C0.0929451 4.33859 0.0957409 4.40288 0.0901508 4.46623C0.103194 4.54356 0.123691 4.60878 0.133008 4.68797C0.153505 4.88176 0.173071 5.06065 0.174003 5.25817C0.174003 5.8824 0.220587 6.51408 0.103194 7.12993C0.0789705 7.25477 0.0342491 7.37682 0.016547 7.5026C-0.010472 7.69639 0.00257146 7.91068 0.0072299 8.1054C0.01282 8.30665 0.0398395 8.50417 0.0612683 8.70448C0.0649951 8.73988 0.0594044 9.03802 0.130213 9.0697C0.169344 9.0874 0.215928 9.06038 0.255991 9.06597C0.298848 9.0725 0.346365 9.09672 0.388291 9.10976C0.534566 9.15542 0.574629 9.18709 0.645437 9.02964C0.70227 8.90293 0.746991 8.79113 0.794507 8.66162C0.833638 8.55727 0.90724 8.47435 0.94544 8.37C0.966868 8.31037 0.97246 8.25727 1.00134 8.1995C1.1383 7.92 1.25756 7.63583 1.33116 7.3349C1.36284 7.20819 1.41781 7.11502 1.48675 7.00881C1.55104 6.90912 1.56688 6.81502 1.68334 6.75818C1.74855 6.72651 1.84731 6.7116 1.92651 6.69762C2.01968 6.68178 2.10632 6.6939 2.20042 6.6911C2.31409 6.68831 2.4231 6.66035 2.53583 6.65104C2.97466 6.61657 3.43305 6.64731 3.8728 6.64731H5.91786C6.40513 6.64731 6.89427 6.65849 7.38154 6.65104C7.70856 6.64545 8.02999 6.59048 8.35608 6.57278C8.46509 6.56625 8.5741 6.56439 8.68311 6.56439C8.67286 6.70135 8.67379 6.83924 8.65795 6.97527C8.63466 7.1849 8.59087 7.3908 8.57224 7.60136C8.54335 7.91907 8.50981 8.25075 8.5005 8.56938C8.49584 8.73243 8.52379 8.87777 8.46137 9.0315C8.4418 9.07809 8.43062 9.1051 8.41944 9.15542C8.37845 9.33709 8.41758 9.61287 8.30857 9.77126C8.25546 9.84859 8.14646 9.88493 8.06913 9.93151C7.96198 9.99487 7.8744 10.048 7.75421 10.0955C7.64055 10.1402 7.42719 10.1244 7.39179 10.2576C7.35825 10.3843 7.39458 10.5734 7.39458 10.7029C7.39458 10.7924 7.35079 11.0384 7.40017 11.1054C7.44769 11.1707 7.59955 11.1707 7.67595 11.1902C7.96105 11.2629 8.24335 11.1967 8.52565 11.2461C8.66727 11.2703 8.6859 11.3076 8.65702 11.4464C8.61509 11.6542 8.58435 11.8452 8.58435 12.0586C8.58435 12.761 8.56292 13.4673 8.58249 14.1688C8.59832 14.739 8.72969 15.2971 8.79118 15.8617C8.82566 16.1831 8.87038 16.5241 8.96261 16.8353C9.02504 17.0468 9.10609 17.2602 9.15082 17.4754C9.18436 17.6384 9.17877 17.8061 9.20578 17.9692C9.22908 18.1052 9.26821 18.2273 9.31107 18.3586C9.47038 18.8599 9.49927 19.3788 9.64554 19.8819C9.803 20.4223 9.95859 20.9664 10.0937 21.5133C10.1915 21.9112 10.2716 22.3183 10.3993 22.7077C10.4654 22.9118 10.5623 23.1037 10.6275 23.3087C10.6667 23.4326 10.7021 23.5547 10.7505 23.6748C10.7692 23.7214 10.8633 23.987 10.9126 24C10.9592 23.877 10.9956 23.755 11.003 23.6264C11.0123 23.4606 11.0636 23.2956 11.0897 23.1345C11.1018 23.0553 11.0766 22.9817 11.0962 22.9006C11.112 22.8363 11.1195 22.7953 11.1269 22.7301C11.1334 22.6714 11.1586 22.6602 11.1716 22.6099C11.1838 22.5605 11.1623 22.4991 11.167 22.4478C11.1763 22.3481 11.2098 22.2596 11.2108 22.1581C11.2117 22.0779 11.2098 21.9978 11.2098 21.9186V20.0627C11.2098 19.7804 11.2043 19.5111 11.263 19.2326C11.2862 19.1207 11.2862 19.0266 11.2909 18.9148C11.2974 18.7742 11.3366 18.6419 11.3347 18.4984C11.3319 18.3009 11.3421 18.1145 11.3654 17.9179C11.3878 17.7307 11.3626 17.5443 11.3831 17.3571C11.4027 17.1838 11.412 17.0207 11.4139 16.8465C11.4167 16.6443 11.453 16.4468 11.4586 16.2456C11.4791 15.4769 11.426 14.7204 11.3654 13.9564C11.3431 13.6769 11.2937 13.403 11.2611 13.1253C11.2201 12.7694 11.194 12.4145 11.1269 12.0613C11.0785 11.8051 10.9965 11.5126 11.0505 11.2489C11.1549 11.2163 11.3077 11.2424 11.4185 11.2424C11.7502 11.2452 12.0595 11.1846 12.3847 11.1287C12.408 11.125 12.654 11.1092 12.6819 11.071C12.7108 11.0318 12.6875 10.853 12.6875 10.825C12.6875 10.6936 12.6875 10.5632 12.6875 10.4328C12.6866 10.361 12.6875 10.2883 12.6903 10.2166C12.6605 10.1644 12.6456 10.1635 12.585 10.1402C12.4518 10.089 12.3158 10.0489 12.1872 9.98369C12.026 9.90077 11.8863 9.83648 11.7046 9.80387C11.481 9.76288 11.3133 9.74797 11.1064 9.65294C11.0319 9.61846 10.8139 9.58772 10.7636 9.51039C10.7291 9.45728 10.7803 9.36877 10.7897 9.31753C10.8102 9.21132 10.8167 9.10324 10.84 8.99703C10.8651 8.88616 10.9117 8.7874 10.9415 8.67746C10.9788 8.53957 10.9639 8.39329 10.9639 8.25075C10.9639 7.93863 10.935 7.61534 10.9732 7.30602C11.0039 7.05912 11.0356 6.81222 11.0673 6.56532H11.1195C11.4381 6.56532 11.7549 6.57744 12.0717 6.53551C12.3717 6.49638 12.6698 6.46284 12.9726 6.44234C13.1757 6.4293 13.3853 6.406 13.5875 6.37153C13.9071 6.31749 14.2164 6.32029 14.5406 6.31936C15.3354 6.31936 16.131 6.31936 16.9258 6.31936C17.2705 6.31936 17.7494 6.24762 18.0633 6.43116C18.2702 6.55321 18.2748 6.84856 18.3484 7.05446C18.4025 7.20912 18.4565 7.36285 18.5143 7.51751C18.5758 7.67869 18.5832 7.83521 18.6671 7.99267C18.7071 8.06814 18.7565 8.16689 18.8301 8.21814C18.9112 8.27311 18.9475 8.23398 19.0379 8.21534C19.282 8.16689 19.5363 8.17528 19.7832 8.11752C19.8075 7.94515 19.7851 7.75323 19.7851 7.57807Z"/>
</svg>
