<?xml version="1.0" encoding="UTF-8" standalone="no"?>
<!-- Created with Inkscape (http://www.inkscape.org/) -->

<svg
   width="35.922581"
   height="24"
   viewBox="0 0 9.5045162 6.35"
   version="1.1"
   id="svg18110"
   inkscape:version="1.2.1 (9c6d41e4, 2022-07-14)"
   sodipodi:docname="mystic.svg"
   xmlns:inkscape="http://www.inkscape.org/namespaces/inkscape"
   xmlns:sodipodi="http://sodipodi.sourceforge.net/DTD/sodipodi-0.dtd"
   xmlns="http://www.w3.org/2000/svg"
   xmlns:svg="http://www.w3.org/2000/svg">
  <sodipodi:namedview
     id="namedview18112"
     pagecolor="#505050"
     bordercolor="#eeeeee"
     borderopacity="1"
     inkscape:showpageshadow="0"
     inkscape:pageopacity="0"
     inkscape:pagecheckerboard="0"
     inkscape:deskcolor="#505050"
     inkscape:document-units="mm"
     showgrid="false"
     inkscape:zoom="0.70199214"
     inkscape:cx="-72.650386"
     inkscape:cy="115.38591"
     inkscape:window-width="1390"
     inkscape:window-height="938"
     inkscape:window-x="0"
     inkscape:window-y="25"
     inkscape:window-maximized="0"
     inkscape:current-layer="layer1" />
  <defs
     id="defs18107" />
  <g
     inkscape:label="Layer 1"
     inkscape:groupmode="layer"
     id="layer1"
     transform="translate(-124.34446,-117.81995)">
    <g
       fill="#231f20"
       fill-opacity="1"
       id="g8790"
       transform="matrix(0.87397849,0,0,0.87397849,-180.98201,54.9136)">
      <g
         id="use8788"
         transform="translate(348.86801,78.101997)">
        <path
           d="m 11.359375,1.140625 h -10.875 L 5.921875,-6.125 Z m -5.4375,-0.375 c 0.3125,0 0.613281,-0.03125 0.90625,-0.09375 0.300781,-0.0625 0.582031,-0.15625 0.84375,-0.28125 C 7.941406,0.273438 8.1875,0.132812 8.40625,-0.03125 8.625,-0.207031 8.816406,-0.40625 8.984375,-0.625 8.921875,-0.988281 8.796875,-1.328125 8.609375,-1.640625 8.429688,-1.953125 8.207031,-2.222656 7.9375,-2.453125 7.664062,-2.679688 7.359375,-2.859375 7.015625,-2.984375 6.671875,-3.117188 6.304688,-3.1875 5.921875,-3.1875 c -0.386719,0 -0.757813,0.070312 -1.109375,0.203125 -0.34375,0.125 -0.652344,0.304687 -0.921875,0.53125 -0.261719,0.230469 -0.480469,0.5 -0.65625,0.8125 -0.179687,0.3125 -0.304687,0.652344 -0.375,1.015625 0.164063,0.21875 0.359375,0.417969 0.578125,0.59375 0.21875,0.164062 0.457031,0.304688 0.71875,0.421875 0.269531,0.125 0.550781,0.21875 0.84375,0.28125 0.300781,0.0625 0.609375,0.09375 0.921875,0.09375 z m -1.5625,-2.234375 c 0,-0.238281 0.035156,-0.460938 0.109375,-0.671875 C 4.550781,-2.347656 4.664062,-2.53125 4.8125,-2.6875 4.957031,-2.84375 5.125,-2.960938 5.3125,-3.046875 5.5,-3.140625 5.703125,-3.1875 5.921875,-3.1875 c 0.21875,0 0.421875,0.046875 0.609375,0.140625 0.1875,0.085937 0.347656,0.203125 0.484375,0.359375 0.144531,0.15625 0.257813,0.339844 0.34375,0.546875 0.082031,0.210937 0.125,0.433594 0.125,0.671875 0,0.230469 -0.042969,0.449219 -0.125,0.65625 -0.085937,0.210938 -0.199219,0.390625 -0.34375,0.546875 -0.136719,0.15625 -0.296875,0.28125 -0.484375,0.375 C 6.34375,0.203125 6.140625,0.25 5.921875,0.25 5.703125,0.25 5.5,0.203125 5.3125,0.109375 5.125,0.015625 4.957031,-0.109375 4.8125,-0.265625 4.664062,-0.421875 4.550781,-0.601562 4.46875,-0.8125 4.394531,-1.019531 4.359375,-1.238281 4.359375,-1.46875 Z m 0,0"
           id="path18134" />
      </g>
    </g>
  </g>
</svg>
