<?xml version="1.0" encoding="UTF-8" standalone="no"?>
<!-- Created with Inkscape (http://www.inkscape.org/) -->

<svg
   width="24"
   height="24"
   viewBox="0 0 6.3500001 6.3500001"
   version="1.1"
   id="svg18179"
   inkscape:version="1.2.1 (9c6d41e4, 2022-07-14)"
   sodipodi:docname="rogue.svg"
   xmlns:inkscape="http://www.inkscape.org/namespaces/inkscape"
   xmlns:sodipodi="http://sodipodi.sourceforge.net/DTD/sodipodi-0.dtd"
   xmlns="http://www.w3.org/2000/svg"
   xmlns:svg="http://www.w3.org/2000/svg">
  <sodipodi:namedview
     id="namedview18181"
     pagecolor="#505050"
     bordercolor="#eeeeee"
     borderopacity="1"
     inkscape:showpageshadow="0"
     inkscape:pageopacity="0"
     inkscape:pagecheckerboard="0"
     inkscape:deskcolor="#505050"
     inkscape:document-units="mm"
     showgrid="false"
     inkscape:zoom="0.70199214"
     inkscape:cx="-39.886486"
     inkscape:cy="122.50849"
     inkscape:window-width="1390"
     inkscape:window-height="938"
     inkscape:window-x="0"
     inkscape:window-y="25"
     inkscape:window-maximized="0"
     inkscape:current-layer="layer1" />
  <defs
     id="defs18176" />
  <g
     inkscape:label="Layer 1"
     inkscape:groupmode="layer"
     id="layer1"
     transform="translate(-116.15524,-116.15524)">
    <g
       fill="#231f20"
       fill-opacity="1"
       id="g9394"
       transform="matrix(0.77854406,0,0,0.77854406,-154.75006,31.748798)">
      <g
         id="use9392"
         transform="translate(347.58899,114.822)">
        <path
           d="M 4.453125,-6.40625 8.53125,-3.546875 4.453125,1.75 0.375,-3.546875 Z m 0,0.515625 L 2.4375,-4.375 4.453125,-1.53125 5.25,-2.765625 l -0.359375,-0.25 -0.421875,0.375 -1.25,-1.625 1.234375,-0.90625 1.21875,0.90625 L 5.46875,-3.9375 5.828125,-3.578125 6.46875,-4.375 Z m -2.40625,3.3125 2.40625,3.4375 2.40625,-3.4375 -2.40625,-1.734375 -0.59375,0.484375 0.328125,0.40625 0.265625,-0.15625 1.625,1.234375 -1.625,2.234375 L 2.8125,-2.34375 3.296875,-2.765625 3.015625,-3.234375 Z m 0,0"
           id="path18203" />
      </g>
    </g>
  </g>
</svg>
