<?xml version="1.0" encoding="UTF-8" standalone="no"?>
<!-- Created with Inkscape (http://www.inkscape.org/) -->

<svg
   width="21.603294"
   height="24"
   viewBox="0 0 5.7158716 6.35"
   version="1.1"
   id="svg5805"
   inkscape:version="1.2.1 (9c6d41e4, 2022-07-14)"
   sodipodi:docname="decaying-reality.svg"
   xmlns:inkscape="http://www.inkscape.org/namespaces/inkscape"
   xmlns:sodipodi="http://sodipodi.sourceforge.net/DTD/sodipodi-0.dtd"
   xmlns="http://www.w3.org/2000/svg"
   xmlns:svg="http://www.w3.org/2000/svg">
  <sodipodi:namedview
     id="namedview5807"
     pagecolor="#505050"
     bordercolor="#eeeeee"
     borderopacity="1"
     inkscape:showpageshadow="0"
     inkscape:pageopacity="0"
     inkscape:pagecheckerboard="0"
     inkscape:deskcolor="#505050"
     inkscape:document-units="mm"
     showgrid="false"
     inkscape:zoom="0.7046647"
     inkscape:cx="-97.918911"
     inkscape:cy="214.99587"
     inkscape:window-width="1390"
     inkscape:window-height="941"
     inkscape:window-x="0"
     inkscape:window-y="25"
     inkscape:window-maximized="0"
     inkscape:current-layer="layer1" />
  <defs
     id="defs5802">
    <clipPath
       clipPathUnits="userSpaceOnUse"
       id="clipPath2093">
      <path
         d="m 159.654,613.321 h 22.76 v 22.76 h -22.76 z"
         id="path2091" />
    </clipPath>
  </defs>
  <g
     inkscape:label="Layer 1"
     inkscape:groupmode="layer"
     id="layer1"
     transform="translate(-131.18631,-91.819945)">
    <g
       id="g2087"
       transform="matrix(0.32721622,0,0,-0.32721622,78.312558,299.34983)">
      <g
         id="g2089"
         clip-path="url(#clipPath2093)">
        <g
           id="g2095"
           transform="translate(178.3816,630.7462)">
          <path
             d="M 0,0 C 0.012,0.008 0.025,0.017 0.037,0.025 0.13,-0.021 0.156,-0.125 0.203,-0.203 0.257,-0.291 0.311,-0.367 0.355,-0.461 0.411,-0.582 0.49,-0.711 0.526,-0.836 0.559,-0.955 0.558,-1.093 0.575,-1.215 0.6,-1.387 0.657,-1.555 0.667,-1.725 0.679,-1.932 0.666,-2.143 0.666,-2.351 0.666,-2.717 0.571,-3.089 0.428,-3.435 0.323,-3.69 0.041,-3.964 -0.285,-3.981 c -0.09,-0.005 -0.174,0.01 -0.262,-0.009 -0.087,-0.017 -0.141,-0.037 -0.238,-0.032 -0.174,0.008 -0.332,0.061 -0.499,0.106 -0.263,0.071 -0.572,0.149 -0.678,0.396 -0.042,0.099 -0.066,0.271 -0.038,0.38 0.023,0.088 0.111,0.205 0.156,0.29 0.078,0.148 0.159,0.256 0.277,0.379 0.096,0.1 0.156,0.222 0.236,0.334 0.139,0.198 0.283,0.399 0.439,0.587 0.193,0.232 0.256,0.485 0.321,0.766 0.052,0.224 0.045,0.438 0.048,0.669 0.001,0.164 -0.089,0.321 -0.04,0.489 0.065,0.01 0.177,-0.109 0.23,-0.144 0.08,-0.051 0.139,-0.102 0.189,-0.174 0.045,-0.065 0.062,-0.156 0.107,-0.215 C -0.003,-0.205 0.056,-0.249 0,0"
             style="fill:#100f0d;fill-opacity:1;fill-rule:nonzero;stroke:none"
             id="path2097" />
        </g>
        <g
           id="g2099"
           transform="translate(178.9048,626.8918)">
          <path
             d="m 0,0 c -0.085,-0.017 -0.133,-0.112 -0.2,-0.157 -0.091,-0.062 -0.196,-0.103 -0.298,-0.141 -0.067,-0.026 -0.118,-0.037 -0.192,-0.038 -0.056,0 -0.131,0.02 -0.165,-0.022 -0.064,-0.08 0.116,-0.239 0.154,-0.303 0.105,-0.172 0.127,-0.352 0.13,-0.554 0.002,-0.105 -0.041,-0.217 -0.089,-0.316 -0.041,-0.084 -0.115,-0.18 -0.144,-0.262 0.076,-0.035 0.192,0.023 0.258,0.053 0.087,0.04 0.169,0.108 0.237,0.168 0.085,0.076 0.2,0.151 0.262,0.231 0.044,0.057 0.114,0.179 0.134,0.242 0.015,0.05 -0.006,0.089 0.005,0.135 0.012,0.046 0.043,0.08 0.053,0.126 0.017,0.084 -0.012,0.179 -0.05,0.254 -0.029,0.058 -0.065,0.109 -0.106,0.163 -0.032,0.041 -0.084,0.083 -0.11,0.127 C -0.15,-0.243 -0.163,-0.181 0,0"
             style="fill:#100f0d;fill-opacity:1;fill-rule:nonzero;stroke:none"
             id="path2101" />
        </g>
        <g
           id="g2103"
           transform="translate(176.3839,632.5896)">
          <path
             d="M 0,0 C 0.095,0.021 0.154,-0.05 0.22,-0.098 0.407,-0.234 0.504,-0.322 0.57,-0.53 0.639,-0.746 0.761,-0.953 0.813,-1.172 0.853,-1.339 0.872,-1.512 0.894,-1.681 0.942,-2.055 0.924,-2.468 0.907,-2.844 0.897,-3.071 0.74,-3.386 0.584,-3.562 0.398,-3.771 0.227,-3.99 -0.002,-4.16 c -0.147,-0.108 -0.32,-0.204 -0.496,-0.275 -0.133,-0.053 -0.274,-0.049 -0.414,-0.077 -0.131,-0.027 -0.259,-0.062 -0.389,-0.093 -0.14,-0.034 -0.266,-0.047 -0.411,-0.045 -0.255,0.003 -0.503,0.219 -0.714,0.335 -0.113,0.062 -0.231,0.127 -0.33,0.206 -0.044,0.04 -0.09,0.079 -0.136,0.117 -0.045,0.037 -0.077,0.08 -0.095,0.132 -0.068,0.051 -0.052,0.073 -0.153,0.008 -0.196,-0.128 -0.281,-0.376 -0.472,-0.498 -0.087,-0.056 -0.244,-0.095 -0.343,-0.133 -0.199,-0.077 -0.395,-0.124 -0.613,-0.129 -0.16,-0.003 -0.322,0.003 -0.483,0.003 -0.224,0 -0.479,-0.032 -0.699,0.008 -0.116,0.021 -0.24,0.067 -0.351,0.106 -0.053,0.02 -0.163,0.099 -0.215,0.093 -0.125,-0.154 -0.104,-0.392 -0.163,-0.566 -0.069,-0.202 -0.167,-0.368 -0.324,-0.529 -0.143,-0.147 -0.259,-0.246 -0.47,-0.319 -0.192,-0.066 -0.386,-0.132 -0.586,-0.177 -0.203,-0.046 -0.411,-0.087 -0.619,-0.115 -0.2,-0.028 -0.409,-0.023 -0.607,-0.058 -0.025,-0.235 0.023,-0.471 -0.027,-0.706 -0.049,-0.231 -0.124,-0.519 -0.305,-0.696 -0.258,-0.251 -0.573,-0.43 -0.943,-0.529 -0.096,-0.026 -0.169,-0.032 -0.151,-0.133 0.019,-0.102 0.158,-0.212 0.205,-0.31 0.124,-0.256 0.265,-0.5 0.273,-0.785 0.003,-0.133 -0.02,-0.262 -0.052,-0.391 -0.012,-0.051 -0.035,-0.081 -0.048,-0.127 -0.015,-0.053 -0.001,-0.136 0.002,-0.191 0.003,-0.07 0.034,-0.085 0.05,-0.145 0.038,-0.141 -0.056,-0.32 0.006,-0.456 0.074,10e-4 0.068,-0.034 0.11,-0.067 0.108,-0.083 0.244,-0.143 0.361,-0.222 0.166,-0.113 0.314,-0.23 0.371,-0.412 0.061,-0.192 0.065,-0.363 0.03,-0.562 -0.021,-0.116 -0.141,-0.302 -0.021,-0.401 0.078,-0.065 0.281,-0.084 0.375,-0.123 0.095,-0.039 0.183,-0.084 0.263,-0.145 0.252,-0.191 0.49,-0.34 0.599,-0.624 0.08,-0.209 0.078,-0.495 0.037,-0.713 -0.011,-0.06 -0.166,-0.283 -0.143,-0.347 0.011,-0.029 0.087,-0.058 0.118,-0.074 0.248,-0.128 0.53,-0.178 0.793,-0.276 0.097,-0.036 0.212,-0.079 0.289,-0.145 0.044,-0.038 0.146,-0.121 0.178,-0.168 0.114,-0.166 -0.002,-0.416 0.22,-0.508 0.151,-0.064 0.324,-0.071 0.479,-0.126 0.131,-0.046 0.182,-0.141 0.258,-0.244 0.066,-0.088 0.22,-0.261 0.197,-0.382 -0.009,-0.045 -0.046,-0.066 -0.053,-0.119 -0.029,-0.204 0.012,-0.418 -0.003,-0.624 -0.012,-0.174 -0.025,-0.377 -0.118,-0.533 -0.106,-0.178 -0.34,-0.218 -0.541,-0.274 -0.222,-0.062 -0.421,-0.057 -0.63,0.014 -0.213,0.072 -0.478,0.053 -0.703,0.075 -0.405,0.04 -0.729,0.159 -0.965,0.459 -0.092,0.116 -0.104,0.206 -0.277,0.21 -0.263,0.005 -0.507,0.006 -0.766,0.047 -0.25,0.041 -0.538,0.173 -0.749,0.296 -0.226,0.131 -0.462,0.194 -0.576,0.427 -0.064,0.131 -0.107,0.286 -0.136,0.426 -0.024,0.11 0,0.202 -0.051,0.31 -0.031,0.068 -0.046,0.096 -0.124,0.126 -0.14,0.054 -0.278,0.091 -0.414,0.159 -0.111,0.054 -0.239,0.084 -0.339,0.154 -0.194,0.134 -0.372,0.312 -0.525,0.482 -0.307,0.342 -0.504,0.738 -0.746,1.113 -0.096,0.149 -0.185,0.256 -0.188,0.435 0,0.05 0.032,0.16 -0.003,0.204 -0.078,0.102 -0.25,0.031 -0.315,0.174 -0.05,0.111 -0.059,0.243 -0.104,0.359 -0.057,0.144 -0.116,0.283 -0.158,0.431 -0.057,0.202 -0.044,0.436 -0.036,0.645 0.006,0.149 0.082,0.313 0.193,0.421 0.036,0.036 0.083,0.064 0.087,0.111 0.007,0.07 -0.104,0.222 -0.145,0.277 -0.17,0.224 -0.269,0.49 -0.396,0.735 -0.146,0.28 -0.215,0.576 -0.212,0.884 10e-4,0.148 -0.016,0.295 0.026,0.44 0.035,0.119 0.254,0.23 0.305,0.344 -0.063,0.01 -0.124,-10e-4 -0.163,0.057 -0.068,0.098 -0.253,0.295 -0.289,0.39 -0.129,0.342 -0.179,0.69 -0.035,1.127 0.111,0.339 0.451,0.684 0.748,0.916 0.135,0.105 0.284,0.125 0.428,0.204 0.088,0.049 0.166,0.102 0.264,0.138 0.042,0.015 0.111,0.023 0.137,0.06 0.024,0.032 0.005,0.078 -0.002,0.112 -0.024,0.131 -0.076,0.257 -0.1,0.39 -0.029,0.156 -0.063,0.31 -0.094,0.465 -0.09,0.446 -0.024,0.871 0.204,1.279 0.217,0.389 0.532,0.674 1.019,0.777 0.196,0.042 0.336,0.117 0.523,0.185 0.178,0.064 0.318,0.043 0.493,0.065 0.038,0.129 -0.013,0.267 0.002,0.398 0.017,0.147 0.122,0.311 0.195,0.443 0.089,0.159 0.224,0.295 0.356,0.426 0.149,0.149 0.312,0.32 0.5,0.432 0.351,0.21 0.776,0.456 1.207,0.481 0.413,0.023 0.809,0.127 1.227,0.124 0.092,0.001 0.183,0.001 0.274,0.001 0.052,-0.002 0.102,-0.012 0.15,-0.029 0.108,0.028 0.218,0.218 0.282,0.291 0.247,0.286 0.578,0.412 0.955,0.52 0.217,0.062 0.451,0.101 0.662,0.179 0.18,0.066 0.358,0.137 0.554,0.163 0.243,0.031 0.556,-0.004 0.775,-0.099 0.057,-0.025 0.103,-0.068 0.157,-0.094 0.133,-0.064 0.113,-0.04 0.285,0.018 0.327,0.111 0.686,0.188 1.036,0.184 0.402,-0.005 0.846,-0.077 1.198,-0.244 0.197,-0.094 0.459,-0.127 0.611,-0.282 0.101,-0.103 0.14,-0.227 0.2,-0.349 C -0.419,0.673 -0.355,0.596 -0.33,0.505 -0.289,0.348 -0.377,0.277 -0.177,0.176 -0.112,0.143 -0.066,0.132 -0.011,0.084 0.029,0.049 0.033,0.01 0,0"
             style="fill:#100f0d;fill-opacity:1;fill-rule:nonzero;stroke:none"
             id="path2105" />
        </g>
        <g
           id="g2107"
           transform="translate(171.1996,616.1663)">
          <path
             d="M 0,0 C 0,-0.078 -0.014,-0.168 0.011,-0.242 0.021,-0.273 0.043,-0.294 0.049,-0.334 0.055,-0.374 0.048,-0.42 0.048,-0.461 0.047,-0.641 0.012,-0.755 -0.049,-0.923 -0.07,-0.981 -0.123,-1.064 -0.051,-1.092 c 0.06,-0.024 0.221,0.003 0.289,0.003 0.219,0 0.455,0.015 0.644,0.101 0.444,0.202 1.066,0.393 1.278,0.838 0.044,0.092 0.117,0.203 0.125,0.301 C 2.294,0.268 2.35,0.404 2.333,0.521 2.308,0.694 2.188,0.858 2.082,1.002 1.964,1.007 1.966,0.793 1.94,0.722 1.915,0.654 1.848,0.61 1.796,0.556 1.754,0.513 1.74,0.464 1.704,0.419 1.662,0.366 1.586,0.327 1.533,0.282 1.465,0.224 1.398,0.166 1.331,0.109 1.164,-0.028 0.975,-0.128 0.761,-0.189 0.585,-0.239 0.261,-0.238 0,0"
             style="fill:#100f0d;fill-opacity:1;fill-rule:nonzero;stroke:none"
             id="path2109" />
        </g>
        <g
           id="g2111"
           transform="translate(174.196,627.8135)">
          <path
             d="m 0,0 c 0.012,-0.069 -0.041,-0.122 -0.049,-0.189 -0.008,-0.062 -0.003,-0.107 -0.022,-0.167 -0.049,-0.159 10e-4,-0.31 -0.101,-0.461 -0.101,-0.15 -0.149,-0.324 -0.254,-0.474 -0.025,-0.034 -0.065,-0.058 -0.089,-0.094 -0.014,-0.02 -0.005,-0.051 -0.019,-0.072 -0.042,-0.067 -0.129,-0.11 -0.166,-0.18 0.027,-0.047 0.213,-0.074 0.273,-0.083 0.072,-0.01 0.161,0.002 0.234,0.002 0.196,0 0.395,0.016 0.575,0.091 0.068,0.029 0.127,0.1 0.189,0.14 0.078,0.051 0.145,0.106 0.214,0.167 0.113,0.1 0.195,0.21 0.267,0.33 0.057,0.095 0.132,0.194 0.08,0.31 -0.045,0.1 -0.174,0.201 -0.275,0.261 C 0.726,-0.341 0.58,-0.296 0.44,-0.241 0.376,-0.216 0.336,-0.219 0.262,-0.211 0.165,-0.2 0.103,-0.166 0,0"
             style="fill:#100f0d;fill-opacity:1;fill-rule:nonzero;stroke:none"
             id="path2113" />
        </g>
        <g
           id="g2115"
           transform="translate(173.0546,627.7297)">
          <path
             d="m 0,0 c -0.013,-0.002 -0.026,-0.005 -0.04,-0.007 -0.041,-0.101 -0.008,-0.262 -0.008,-0.37 0,-0.176 -0.001,-0.333 -0.041,-0.504 -0.024,-0.103 -0.091,-0.143 -0.139,-0.239 -0.038,-0.074 -0.056,-0.14 -0.104,-0.209 -0.044,-0.064 -0.095,-0.118 -0.144,-0.179 -0.049,-0.061 -0.091,-0.065 -0.146,-0.11 0.025,0.074 -0.048,0.205 -0.079,0.275 -0.048,0.114 -0.081,0.23 -0.118,0.347 -0.04,0.126 -0.116,0.244 -0.167,0.365 -0.024,0.058 -0.05,0.115 -0.073,0.172 -0.011,0.027 -0.073,0.114 -0.074,0.133 -0.008,0.151 0.341,0.298 0.466,0.357 C -0.545,0.09 -0.087,0.165 0,0"
             style="fill:#100f0d;fill-opacity:1;fill-rule:nonzero;stroke:none"
             id="path2117" />
        </g>
        <g
           id="g2119"
           transform="translate(170.724,627.3526)">
          <path
             d="m 0,0 c 0.147,-0.02 0.323,-0.164 0.428,-0.25 0.156,-0.13 0.232,-0.278 0.273,-0.461 0.04,-0.176 0.108,-0.319 0.107,-0.499 0,-0.148 0.032,-0.317 -0.046,-0.452 -0.022,0.067 -0.244,0.217 -0.3,0.256 -0.116,0.082 -0.237,0.183 -0.367,0.244 -0.199,0.094 -0.39,0.201 -0.594,0.278 -0.077,0.028 -0.255,0.031 -0.256,0.12 0,0.03 0.146,0.195 0.173,0.222 0.146,0.14 0.409,0.25 0.448,0.451 C -0.121,-0.089 -0.108,-0.086 0,0"
             style="fill:#100f0d;fill-opacity:1;fill-rule:nonzero;stroke:none"
             id="path2121" />
        </g>
      </g>
    </g>
  </g>
</svg>
