<?xml version="1.0" encoding="UTF-8" standalone="no"?>
<!-- Created with Inkscape (http://www.inkscape.org/) -->

<svg
   width="29.200254"
   height="24.000002"
   viewBox="0 0 7.7259007 6.3500005"
   version="1.1"
   id="svg5955"
   inkscape:version="1.2.1 (9c6d41e4, 2022-07-14)"
   sodipodi:docname="maddening-delusions.svg"
   xmlns:inkscape="http://www.inkscape.org/namespaces/inkscape"
   xmlns:sodipodi="http://sodipodi.sourceforge.net/DTD/sodipodi-0.dtd"
   xmlns="http://www.w3.org/2000/svg"
   xmlns:svg="http://www.w3.org/2000/svg">
  <sodipodi:namedview
     id="namedview5957"
     pagecolor="#505050"
     bordercolor="#eeeeee"
     borderopacity="1"
     inkscape:showpageshadow="0"
     inkscape:pageopacity="0"
     inkscape:pagecheckerboard="0"
     inkscape:deskcolor="#505050"
     inkscape:document-units="mm"
     showgrid="false"
     inkscape:zoom="0.7046647"
     inkscape:cx="-254.02152"
     inkscape:cy="149.7166"
     inkscape:window-width="1390"
     inkscape:window-height="941"
     inkscape:window-x="0"
     inkscape:window-y="25"
     inkscape:window-maximized="0"
     inkscape:current-layer="layer1" />
  <defs
     id="defs5952">
    <clipPath
       clipPathUnits="userSpaceOnUse"
       id="clipPath2293">
      <path
         d="m 159.654,584.871 h 22.76 v 22.76 h -22.76 z"
         id="path2291" />
    </clipPath>
  </defs>
  <g
     inkscape:label="Layer 1"
     inkscape:groupmode="layer"
     id="layer1"
     transform="translate(-172.2344,-109.09175)">
    <g
       id="g2287"
       transform="matrix(0.38283444,0,0,-0.38283444,110.73101,340.09331)">
      <g
         id="g2289"
         clip-path="url(#clipPath2293)">
        <g
           id="g2295"
           transform="translate(173.1986,595.0595)">
          <path
             d="m 0,0 c 0.024,-0.104 0.019,-0.223 0.038,-0.33 0.02,-0.116 0.096,-0.281 0.151,-0.383 0.073,-0.133 0.14,-0.175 0.264,-0.248 0.075,-0.044 0.223,-0.05 0.27,-0.121 0.02,-0.031 0.032,-0.113 0.039,-0.151 0.024,-0.119 0.033,-0.245 0.033,-0.363 0.002,-0.265 -0.011,-0.53 0.012,-0.795 0.028,-0.31 0.052,-0.614 0.075,-0.925 0.012,-0.157 0.068,-0.3 0.103,-0.452 0.041,-0.179 0.019,-0.358 0.026,-0.54 C 1.018,-4.483 1.048,-4.66 1.049,-4.833 1.05,-4.993 1.019,-5.163 1.038,-5.324 1.055,-5.461 1.082,-5.598 1.089,-5.739 1.096,-5.888 1.07,-6 1.017,-6.138 0.961,-6.282 0.925,-6.439 0.872,-6.582 0.825,-6.713 0.733,-6.815 0.699,-6.954 0.65,-7.157 0.474,-7.406 0.533,-7.622 0.62,-7.941 0.938,-8.16 1.244,-8.228 c 0.191,-0.043 0.314,-0.024 0.454,0.121 0.165,0.171 0.235,0.428 0.267,0.654 0.034,0.249 0.058,0.508 0.012,0.76 -0.013,0.074 -0.031,0.125 -0.028,0.202 0.003,0.064 0.01,0.106 0.004,0.172 -0.016,0.161 -0.041,0.315 -0.08,0.472 -0.063,0.259 -0.092,0.529 -0.156,0.79 -0.026,0.106 -0.047,0.228 -0.057,0.338 -0.011,0.134 0.007,0.266 0.006,0.398 0,0.101 -0.023,0.191 -0.011,0.293 0.012,0.104 0.025,0.197 0.02,0.302 -0.005,0.087 -0.042,0.153 -0.047,0.237 -0.006,0.08 0.006,0.116 -0.018,0.201 -0.014,0.049 -0.013,0.085 -0.015,0.136 -0.006,0.119 -0.011,0.244 -0.021,0.363 -0.02,0.215 -0.03,0.426 -0.068,0.642 -0.047,0.26 -0.083,0.517 -0.031,0.783 0.064,0.322 0.08,0.648 0.247,0.939 0.048,0.082 0.088,0.18 0.152,0.25 0.073,0.08 0.181,0.134 0.252,0.217 C 2.181,0.108 2.161,0.161 2.182,0.226 2.221,0.341 2.33,0.315 2.409,0.272 2.667,0.133 2.916,-0.107 3.22,-0.01 3.331,0.026 3.484,0.081 3.576,-0.017 3.685,-0.132 3.657,-0.339 3.657,-0.481 3.657,-0.672 3.63,-0.871 3.578,-1.057 3.552,-1.153 3.481,-1.236 3.434,-1.323 3.373,-1.437 3.371,-1.57 3.316,-1.685 3.265,-1.79 3.259,-1.855 3.274,-1.976 c 0.015,-0.113 0.08,-0.207 0.148,-0.294 0.13,-0.163 0.324,-0.453 0.55,-0.472 0.214,-0.017 0.347,0.261 0.396,0.438 0.053,0.195 0.147,0.388 0.177,0.588 0.035,0.23 0.037,0.466 0.068,0.697 0.026,0.186 0.025,0.366 0.048,0.549 0.018,0.149 -0.002,0.293 -0.035,0.437 C 4.572,0.203 4.512,0.445 4.508,0.685 4.506,0.769 4.519,0.852 4.521,0.937 4.523,1.045 4.482,1.143 4.489,1.251 4.498,1.382 4.521,1.511 4.531,1.64 4.554,1.93 4.575,2.246 4.47,2.524 4.367,2.301 4.227,2.125 4.029,1.998 3.931,1.935 3.826,1.867 3.72,1.821 3.668,1.798 3.619,1.8 3.565,1.784 3.479,1.758 3.402,1.691 3.317,1.658 2.841,1.472 2.544,1.005 2.072,0.816 1.969,0.774 1.877,0.741 1.781,0.679 1.69,0.62 1.583,0.592 1.492,0.539 1.365,0.465 1.277,0.325 1.117,0.286 0.945,0.243 0.763,0.246 0.591,0.194 0.513,0.17 0.44,0.134 0.359,0.11 0.256,0.08 0.151,0.017 0,0"
             style="fill:#100f0d;fill-opacity:1;fill-rule:nonzero;stroke:none"
             id="path2297" />
        </g>
        <g
           id="g2299"
           transform="translate(168.226,595.7809)">
          <path
             d="M 0,0 C -0.024,-0.08 -0.019,-0.17 -0.037,-0.252 -0.056,-0.34 -0.13,-0.466 -0.183,-0.543 -0.254,-0.645 -0.318,-0.676 -0.439,-0.731 -0.511,-0.764 -0.655,-0.767 -0.7,-0.821 -0.72,-0.845 -0.731,-0.908 -0.739,-0.937 -0.761,-1.028 -0.77,-1.124 -0.771,-1.214 -0.772,-1.417 -0.759,-1.62 -0.782,-1.822 -0.809,-2.059 -0.833,-2.292 -0.855,-2.53 -0.866,-2.65 -0.92,-2.758 -0.954,-2.874 c -0.04,-0.137 -0.019,-0.274 -0.026,-0.413 -0.007,-0.134 -0.036,-0.269 -0.037,-0.401 -0.001,-0.123 0.03,-0.253 0.011,-0.376 -0.016,-0.105 -0.043,-0.21 -0.049,-0.317 -0.007,-0.114 0.018,-0.2 0.07,-0.306 0.054,-0.111 0.089,-0.231 0.14,-0.341 0.046,-0.1 0.135,-0.179 0.167,-0.286 0.048,-0.156 0.219,-0.348 0.162,-0.512 -0.084,-0.244 -0.392,-0.408 -0.69,-0.458 -0.185,-0.031 -0.303,-0.016 -0.439,0.096 -0.16,0.133 -0.228,0.33 -0.258,0.503 -0.034,0.19 -0.057,0.389 -0.013,0.581 0.013,0.057 0.031,0.096 0.028,0.155 -0.003,0.049 -0.011,0.08 -0.004,0.131 0.016,0.123 0.04,0.241 0.077,0.36 0.062,0.199 0.089,0.404 0.152,0.603 0.025,0.082 0.046,0.175 0.055,0.258 0.011,0.104 -0.008,0.204 -0.007,0.306 10e-4,0.077 0.023,0.145 0.012,0.224 -0.012,0.079 -0.025,0.151 -0.02,0.231 0.005,0.066 0.041,0.116 0.046,0.18 0.006,0.062 -0.006,0.089 0.017,0.154 0.014,0.038 0.012,0.065 0.015,0.104 0.006,0.091 0.01,0.186 0.02,0.278 0.019,0.164 0.029,0.325 0.066,0.491 0.045,0.197 0.081,0.394 0.03,0.598 -0.062,0.247 -0.077,0.496 -0.24,0.72 -0.046,0.064 -0.085,0.139 -0.147,0.193 -0.07,0.061 -0.175,0.104 -0.243,0.168 -0.055,0.051 -0.034,0.091 -0.055,0.141 -0.038,0.089 -0.143,0.07 -0.22,0.038 C -2.584,0.124 -2.825,-0.057 -3.119,0.02 -3.227,0.048 -3.375,0.091 -3.465,0.017 -3.57,-0.07 -3.543,-0.228 -3.543,-0.337 c 0,-0.146 0.026,-0.299 0.076,-0.442 0.026,-0.073 0.095,-0.137 0.14,-0.204 0.059,-0.087 0.061,-0.189 0.115,-0.278 0.049,-0.081 0.055,-0.131 0.04,-0.223 -0.014,-0.086 -0.077,-0.158 -0.144,-0.223 -0.126,-0.124 -0.313,-0.345 -0.532,-0.357 -0.208,-0.011 -0.337,0.202 -0.383,0.338 -0.052,0.15 -0.143,0.299 -0.173,0.452 -0.034,0.176 -0.035,0.357 -0.066,0.533 -0.024,0.143 -0.024,0.28 -0.046,0.421 -0.017,0.114 0.002,0.224 0.034,0.334 0.052,0.18 0.11,0.365 0.115,0.548 0.001,0.065 -0.011,0.128 -0.013,0.193 -0.003,0.082 0.038,0.157 0.031,0.24 -0.009,0.1 -0.031,0.199 -0.041,0.298 -0.022,0.222 -0.043,0.464 0.059,0.676 0.1,-0.172 0.236,-0.307 0.428,-0.406 0.094,-0.049 0.196,-0.102 0.299,-0.138 0.05,-0.018 0.098,-0.017 0.15,-0.03 0.084,-0.021 0.158,-0.072 0.24,-0.098 0.462,-0.146 0.75,-0.506 1.206,-0.655 0.101,-0.033 0.19,-0.059 0.282,-0.107 0.089,-0.047 0.193,-0.069 0.281,-0.11 C -1.322,0.367 -1.237,0.26 -1.083,0.228 -0.916,0.194 -0.739,0.194 -0.572,0.153 -0.497,0.135 -0.426,0.106 -0.348,0.087 -0.248,0.063 -0.146,0.014 0,0"
             style="fill:#100f0d;fill-opacity:1;fill-rule:nonzero;stroke:none"
             id="path2301" />
        </g>
        <g
           id="g2303"
           transform="translate(163.8611,597.3743)">
          <path
             d="M 0,0 C 0.034,-0.038 0.01,-0.078 0.009,-0.129 0.007,-0.21 0.012,-0.299 0.014,-0.38 0.02,-0.552 -0.005,-0.725 -0.013,-0.898 -0.024,-1.131 0.027,-1.355 0.07,-1.579 0.104,-1.753 0.08,-1.957 0.068,-2.133 0.058,-2.268 0.057,-2.406 0.025,-2.539 c -0.028,-0.119 -0.124,-0.188 -0.164,-0.296 -0.08,-0.214 0.037,-0.44 0.093,-0.648 0.016,-0.061 0.005,-0.099 0.01,-0.156 0.007,-0.072 0.053,-0.105 0.081,-0.166 0.028,-0.06 0.01,-0.117 0.024,-0.177 C 0.086,-4.054 0.147,-4.119 0.182,-4.188 0.309,-4.435 0.443,-4.664 0.58,-4.903 0.691,-5.097 0.813,-5.257 0.876,-5.471 0.919,-5.615 0.949,-5.759 0.868,-5.889 0.826,-5.956 0.773,-6.061 0.715,-6.114 0.669,-6.156 0.584,-6.181 0.525,-6.205 0.337,-6.282 0.192,-6.254 0.086,-6.08 c -0.045,0.074 -0.091,0.134 -0.117,0.219 -0.009,0.029 -0.012,0.058 -0.022,0.088 -0.027,0.082 -0.03,0.145 -0.048,0.226 -0.021,0.092 -0.091,0.174 -0.106,0.268 -0.015,0.092 -0.009,0.205 -0.017,0.302 -0.019,0.224 -0.043,0.448 -0.079,0.671 -0.074,0.455 0.109,0.937 -0.035,1.376 -0.033,0.098 -0.046,0.205 -0.062,0.305 -0.02,0.124 0.043,0.257 0.045,0.385 0.003,0.234 0.024,0.472 0.051,0.704 0.03,0.253 0.073,0.495 0.142,0.734 0.024,0.083 0.016,0.191 0.05,0.277 C -0.07,-0.421 -0.076,-0.321 0,0"
             style="fill:#100f0d;fill-opacity:1;fill-rule:nonzero;stroke:none"
             id="path2305" />
        </g>
        <g
           id="g2307"
           transform="translate(178.9433,601.6635)">
          <path
             d="M 0,0 C -0.012,0.05 -0.008,0.099 -0.017,0.148 -0.031,0.214 -0.062,0.277 -0.088,0.339 -0.118,0.41 -0.15,0.474 -0.204,0.53 -0.272,0.602 -0.311,0.601 -0.407,0.616 -0.503,0.631 -0.595,0.655 -0.686,0.679 -0.767,0.7 -0.861,0.687 -0.908,0.539 c 0.031,-0.034 0.074,-0.036 0.111,-0.055 0.033,-0.016 0.066,-0.049 0.09,-0.075 0.02,-0.022 0.053,-0.058 0.069,-0.082 0.03,-0.05 0.011,-0.067 0.025,-0.124 0.007,-0.03 0.033,-0.04 0.041,-0.07 0.009,-0.037 -0.003,-0.093 -0.002,-0.132 0,-0.09 -0.018,-0.126 -0.056,-0.203 -0.054,-0.11 -0.153,-0.221 -0.278,-0.251 -0.206,-0.051 -0.479,-0.012 -0.665,0.065 -0.106,0.045 -0.235,0.072 -0.333,0.134 -0.107,0.068 -0.211,0.144 -0.318,0.216 -0.05,0.032 -0.098,0.043 -0.153,0.064 -0.086,0.034 -0.16,0.093 -0.246,0.126 -0.09,0.035 -0.168,0.053 -0.25,0.108 -0.063,0.044 -0.126,0.09 -0.192,0.13 -0.158,0.095 -0.34,0.187 -0.482,0.304 -0.139,0.115 -0.29,0.246 -0.444,0.337 -0.282,0.168 -0.635,0.195 -0.95,0.253 C -5.078,1.309 -5.216,1.338 -5.353,1.362 -5.547,1.396 -5.76,1.415 -5.948,1.479 -6.301,1.6 -6.694,1.708 -7.068,1.726 -7.26,1.736 -7.455,1.725 -7.647,1.725 -7.942,1.725 -8.249,1.749 -8.543,1.721 -8.743,1.702 -8.948,1.695 -9.144,1.659 -9.371,1.619 -9.587,1.57 -9.818,1.544 c -0.295,-0.033 -0.581,-0.102 -0.874,-0.162 -0.384,-0.079 -0.75,-0.236 -1.134,-0.318 -0.123,-0.026 -0.246,-0.04 -0.366,-0.08 -0.151,-0.05 -0.26,-0.149 -0.408,-0.209 -0.081,-0.032 -0.156,-0.081 -0.231,-0.126 -0.062,-0.038 -0.12,-0.053 -0.186,-0.081 -0.13,-0.057 -0.26,-0.123 -0.388,-0.187 -0.127,-0.064 -0.276,-0.131 -0.391,-0.213 -0.099,-0.07 -0.156,-0.154 -0.265,-0.207 -0.152,-0.074 -0.311,-0.174 -0.447,-0.274 -0.072,-0.053 -0.139,-0.08 -0.214,-0.12 -0.063,-0.033 -0.097,-0.094 -0.156,-0.133 -0.268,-0.172 -0.577,-0.3 -0.864,-0.443 -0.143,-0.071 -0.378,-0.231 -0.393,-0.41 0.165,-0.066 0.336,0.09 0.473,0.154 0.058,0.027 0.116,0.043 0.171,0.078 0.095,0.059 0.17,0.13 0.276,0.171 0.143,0.054 0.267,0.145 0.4,0.221 0.147,0.083 0.31,0.127 0.459,0.204 0.088,0.045 0.184,0.056 0.274,0.099 0.096,0.047 0.171,0.086 0.273,0.114 0.156,0.044 0.305,0.134 0.461,0.186 0.147,0.049 0.287,0.111 0.434,0.161 0.153,0.052 0.318,0.085 0.468,0.147 0.239,0.098 0.481,0.207 0.736,0.256 0.099,0.019 0.185,0.054 0.278,0.083 0.097,0.031 0.193,0.035 0.288,0.055 0.015,0.003 0.063,0.022 0.082,0.028 0.042,0.013 0.084,0.026 0.126,0.042 0.086,0.033 0.189,0.056 0.283,0.072 0.237,0.039 0.129,-0.225 0.038,-0.319 -0.047,-0.047 -0.123,-0.037 -0.179,-0.061 -0.026,-0.011 -0.053,-0.045 -0.082,-0.059 -0.037,-0.017 -0.076,-0.023 -0.111,-0.045 -0.053,-0.033 -0.117,-0.076 -0.149,-0.131 -0.042,-0.073 -0.082,-0.194 -0.102,-0.276 -0.011,-0.043 -0.021,-0.092 -0.029,-0.142 0.527,0.051 1.279,0.052 1.494,-0.244 -10e-4,-0.001 -0.002,-0.002 -0.003,-0.003 -0.219,-0.142 -0.325,-0.16 -0.581,-0.168 -0.415,-0.012 -0.818,-0.199 -0.953,-0.601 0.114,-0.122 0.097,-0.324 -0.011,-0.451 v -0.318 c 0,-0.099 -0.014,-0.214 0.003,-0.311 0.018,-0.102 0.075,-0.211 0.129,-0.31 0.308,0.179 0.627,0.195 0.954,0.171 0.313,0.081 0.62,0.119 0.894,-0.057 0.085,10e-4 0.171,-0.011 0.258,-0.041 0.063,-0.022 0.111,-0.072 0.136,-0.131 -0.345,-0.373 -1.21,-0.008 -1.494,-0.586 -0.049,-0.1 -0.058,-0.197 -0.04,-0.286 -0.02,-0.013 -0.04,-0.028 -0.059,-0.04 0.055,-0.063 0.109,-0.126 0.154,-0.196 0.082,-0.126 0.214,-0.203 0.343,-0.284 0.18,-0.112 0.338,-0.24 0.535,-0.321 0.301,-0.125 0.64,-0.161 0.931,-0.305 0.23,-0.114 0.453,-0.221 0.705,-0.277 0.336,-0.076 0.713,-0.095 1.057,-0.062 0.53,0.051 1.04,0.264 1.349,0.711 0.164,0.237 0.383,0.424 0.534,0.672 0.128,0.21 0.227,0.444 0.278,0.686 0.029,0.136 0.066,0.283 0.08,0.421 0.004,0.048 0.005,0.098 0.005,0.149 0.032,0.108 0.031,0.232 -0.005,0.347 0.002,0.033 0.003,0.067 0.007,0.099 -0.016,10e-4 -0.032,10e-4 -0.048,0.002 -0.077,0.148 -0.218,0.266 -0.422,0.29 -0.633,0.076 -1.248,0.136 -1.874,0.29 -0.14,0.034 -0.27,0.078 -0.396,0.123 0.045,0.056 0.103,0.101 0.175,0.121 0.459,0.13 0.937,0.173 1.413,0.182 0.401,0.008 0.813,-0.079 1.219,-0.115 0.002,0.057 0.003,0.114 -0.005,0.168 -0.022,0.139 -0.094,0.27 -0.108,0.409 -0.01,0.09 -0.032,0.166 -0.037,0.259 -0.004,0.085 -0.036,0.182 -0.065,0.26 -0.024,0.062 -0.042,0.116 -0.083,0.167 -0.058,0.069 -0.106,0.043 -0.186,0.063 -0.072,0.019 -0.142,0.044 -0.207,0.063 -0.067,0.019 -0.183,0.016 -0.239,0.057 -0.056,0.04 -0.054,0.186 -0.03,0.244 0.038,0.094 0.165,0.146 0.25,0.148 0.314,0.007 0.595,-0.114 0.886,-0.232 0.276,-0.112 0.52,-0.293 0.79,-0.415 0.124,-0.055 0.258,-0.086 0.386,-0.132 0.057,-0.021 0.113,-0.043 0.164,-0.073 0.086,-0.052 0.172,-0.067 0.263,-0.111 0.146,-0.069 0.288,-0.148 0.438,-0.217 0.191,-0.087 0.363,-0.057 0.566,-0.079 0.076,-0.008 0.14,-0.038 0.218,-0.04 0.079,-0.003 0.159,0.001 0.237,0.001 h 0.413 c 0.202,0 0.468,-0.009 0.638,0.12 0.061,0.047 0.107,0.113 0.146,0.176 0.064,0.104 0.082,0.14 0.083,0.26 C 0.019,-0.078 0.012,-0.048 0,0"
             style="fill:#100f0d;fill-opacity:1;fill-rule:nonzero;stroke:none"
             id="path2309" />
        </g>
        <g
           id="g2311"
           transform="translate(177.8322,599.4233)">
          <path
             d="M 0,0 C -0.055,-0.048 -0.099,-0.109 -0.154,-0.156 -0.349,-0.321 -0.537,-0.488 -0.73,-0.657 -0.841,-0.755 -0.932,-0.846 -1.022,-0.964 -1.097,-1.063 -1.198,-1.13 -1.274,-1.223 -1.375,-1.346 -1.508,-1.436 -1.61,-1.56 c -0.135,-0.163 -0.33,-0.266 -0.504,-0.388 -0.087,-0.06 -0.172,-0.123 -0.258,-0.183 -0.071,-0.051 -0.123,-0.113 -0.187,-0.163 -0.106,-0.084 -0.237,-0.152 -0.351,-0.23 -0.064,-0.044 -0.112,-0.069 -0.181,-0.107 -0.05,-0.027 -0.065,-0.06 -0.107,-0.1 -0.087,-0.082 -0.223,-0.128 -0.327,-0.182 -0.068,-0.037 -0.157,-0.111 -0.225,-0.136 -0.154,-0.057 -0.328,-0.12 -0.488,-0.156 -0.191,-0.042 -0.374,-0.072 -0.561,-0.131 -0.306,-0.096 -0.631,-0.091 -0.949,-0.091 -0.221,0 -0.442,10e-4 -0.662,-10e-4 -0.14,-10e-4 -0.266,0.038 -0.406,0.038 -0.138,-10e-4 -0.285,-0.015 -0.422,0.008 -0.142,0.024 -0.289,0.01 -0.428,0.037 -0.839,0.167 -1.671,0.378 -2.488,0.637 -0.306,0.097 -0.596,0.221 -0.879,0.364 -0.173,0.087 -0.366,0.18 -0.527,0.285 -0.055,0.035 -0.103,0.077 -0.156,0.114 -0.068,0.048 -0.137,0.065 -0.212,0.097 -0.064,0.028 -0.114,0.066 -0.169,0.106 -0.06,0.044 -0.128,0.076 -0.188,0.121 -0.091,0.067 -0.171,0.152 -0.265,0.204 -0.275,0.153 -0.573,0.272 -0.846,0.431 -0.135,0.079 -0.261,0.145 -0.414,0.182 -0.178,0.042 -0.356,0.112 -0.541,0.121 -0.235,0.011 -0.607,0.045 -0.73,-0.189 -0.06,-0.112 -0.067,-0.353 -0.004,-0.466 0.09,-0.162 0.28,-0.125 0.449,-0.125 -0.257,-0.085 -0.255,-0.095 -0.253,-0.105 0.132,-0.039 0.494,-0.02 0.546,0.134 -0.073,0.012 -0.146,0.038 -0.221,0.047 -0.055,0.007 -0.099,-0.014 -0.147,0.015 -0.079,0.047 -0.105,0.154 -0.171,0.205 0.072,0.029 0.119,0.086 0.201,0.104 0.053,0.011 0.121,0.015 0.175,0.004 0.114,-0.024 0.183,-0.103 0.278,-0.165 0.08,-0.052 0.173,-0.086 0.258,-0.136 0.11,-0.065 0.219,-0.126 0.333,-0.186 0.141,-0.074 0.269,-0.163 0.417,-0.223 0.078,-0.031 0.156,-0.066 0.233,-0.097 0.07,-0.028 0.106,-0.062 0.167,-0.108 0.099,-0.074 0.205,-0.119 0.294,-0.202 0.075,-0.071 0.148,-0.093 0.245,-0.124 0.138,-0.043 0.253,-0.125 0.387,-0.174 0.131,-0.048 0.264,-0.101 0.392,-0.157 0.095,-0.04 0.176,-0.097 0.272,-0.131 0.147,-0.051 0.254,-0.142 0.392,-0.212 0.196,-0.102 0.401,-0.24 0.61,-0.305 0.184,-0.057 0.361,-0.103 0.541,-0.171 0.143,-0.054 0.315,-0.11 0.465,-0.125 0.205,-0.02 0.396,-0.095 0.598,-0.131 0.284,-0.051 0.581,-0.055 0.87,-0.055 0.129,0 0.266,0.014 0.393,-0.008 0.286,-0.049 0.578,-0.05 0.864,-0.103 0.132,-0.024 0.248,-0.037 0.384,-0.037 0.283,0 0.567,0 0.85,0 0.264,0 0.54,0.038 0.779,0.148 0.089,0.041 0.187,0.055 0.276,0.078 0.042,0.011 0.064,0.024 0.114,0.032 0.06,0.01 0.093,0.037 0.149,0.058 0.098,0.038 0.216,0.024 0.317,0.053 0.034,0.01 0.066,0.033 0.1,0.048 0.027,0.011 0.074,0.018 0.097,0.029 0.026,0.014 0.044,0.052 0.072,0.072 0.045,0.033 0.123,0.051 0.175,0.075 0.088,0.04 0.159,0.087 0.232,0.149 0.097,0.083 0.197,0.163 0.293,0.248 0.113,0.101 0.24,0.209 0.363,0.299 0.101,0.074 0.209,0.135 0.297,0.229 0.198,0.212 0.386,0.416 0.613,0.596 0.089,0.071 0.169,0.151 0.26,0.219 0.103,0.077 0.218,0.138 0.314,0.224 0.087,0.077 0.184,0.147 0.266,0.221 0.039,0.036 0.083,0.062 0.123,0.097 0.047,0.041 0.064,0.099 0.109,0.142 0.072,0.068 0.11,0.117 0.158,0.206 0.039,0.073 0.084,0.138 0.12,0.208 0.049,0.095 0.091,0.207 0.121,0.311 0.018,0.065 0.036,0.134 0.063,0.197 0.021,0.045 0.058,0.088 0.07,0.131 C 0.167,0.159 0.041,0.036 0,0"
             style="fill:#100f0d;fill-opacity:1;fill-rule:nonzero;stroke:none"
             id="path2313" />
        </g>
        <g
           id="g2315"
           transform="translate(180.1165,600.0782)">
          <path
             d="M 0,0 C -0.007,-0.001 -0.015,-0.003 -0.022,-0.003 -0.351,-0.025 -0.695,0.223 -1.092,0.129 -1.14,0.118 -1.182,0.135 -1.216,0.167 -1.545,0.182 -1.901,0.234 -2.285,0.331 -2.909,0.489 -4.644,1.342 -5.2,0.155 c -0.08,-0.169 -0.099,-0.368 -0.023,-0.532 0.862,-0.136 1.636,0.006 2.32,0.11 -0.133,0.013 -0.267,0.023 -0.4,0.031 -0.222,-0.025 -0.578,-0.038 -0.868,0.008 -0.207,-0.005 -0.43,0.014 -0.501,0.161 -0.14,0.291 0.391,0.465 0.584,0.492 0.673,0.092 1.51,-0.271 2.14,-0.455 0.077,-0.022 0.106,-0.08 0.101,-0.139 0.02,-0.005 0.04,-0.012 0.06,-0.018 0.062,-0.006 0.123,-0.014 0.183,-0.025 0.506,-0.093 0.943,-0.229 1.355,-0.218 0.094,0.003 0.184,0.008 0.272,0.012 0.005,0.004 0.011,0.008 0.016,0.012 0.248,0.197 0.448,0.234 0.662,0.252 0.007,0.028 0.013,0.058 0.016,0.089 C 0.499,-0.058 0.231,-0.058 0,0"
             style="fill:#100f0d;fill-opacity:1;fill-rule:nonzero;stroke:none"
             id="path2317" />
        </g>
        <g
           id="g2319"
           transform="translate(167.0326,599.7211)">
          <path
             d="m 0,0 c -0.046,0.044 -0.093,0.082 -0.139,0.12 -0.093,0.011 -0.184,0.018 -0.274,0.024 0.127,-0.121 0.155,-0.278 -0.02,-0.484 -0.569,-0.671 -2.04,0.35 -2.638,0.464 -0.03,0.005 -0.05,0.02 -0.067,0.037 -0.24,0.042 -0.47,0.083 -0.694,0.076 C -3.854,0.199 -3.891,0.17 -3.947,0.168 -4.457,0.15 -4.905,-0.084 -5.399,-0.178 c -0.19,-0.037 -0.537,-0.086 -0.675,0.103 -0.027,0.038 -0.038,0.073 -0.042,0.107 -0.041,-0.003 -0.083,-0.008 -0.124,-0.008 -0.211,-0.001 -0.17,-0.568 0.034,-0.602 0.038,-0.006 0.076,-0.012 0.115,-0.018 0.032,-0.08 0.082,-0.136 0.148,-0.128 0.005,0 0.009,-0.001 0.014,-0.001 0.551,0.193 1.209,0.282 1.978,0.182 0.487,-0.064 1.009,-0.243 1.601,-0.315 0.353,-0.043 0.716,-0.086 1.103,-0.167 0.337,0.012 0.692,0.048 1.066,0.12 C 0.226,-0.826 0.279,-0.263 0,0"
             style="fill:#100f0d;fill-opacity:1;fill-rule:nonzero;stroke:none"
             id="path2321" />
        </g>
      </g>
    </g>
  </g>
</svg>
