<?xml version="1.0" encoding="UTF-8" standalone="no"?>
<!-- Created with Inkscape (http://www.inkscape.org/) -->

<svg
   width="23.868452"
   height="24"
   viewBox="0 0 6.3151946 6.35"
   version="1.1"
   id="svg4973"
   inkscape:version="1.2.1 (9c6d41e4, 2022-07-14)"
   sodipodi:docname="return-to-the-last-king.svg"
   xmlns:inkscape="http://www.inkscape.org/namespaces/inkscape"
   xmlns:sodipodi="http://sodipodi.sourceforge.net/DTD/sodipodi-0.dtd"
   xmlns="http://www.w3.org/2000/svg"
   xmlns:svg="http://www.w3.org/2000/svg">
  <sodipodi:namedview
     id="namedview4975"
     pagecolor="#505050"
     bordercolor="#eeeeee"
     borderopacity="1"
     inkscape:showpageshadow="0"
     inkscape:pageopacity="0"
     inkscape:pagecheckerboard="0"
     inkscape:deskcolor="#505050"
     inkscape:document-units="mm"
     showgrid="false"
     inkscape:zoom="0.7046647"
     inkscape:cx="75.213076"
     inkscape:cy="134.10633"
     inkscape:window-width="1390"
     inkscape:window-height="941"
     inkscape:window-x="0"
     inkscape:window-y="25"
     inkscape:window-maximized="0"
     inkscape:current-layer="layer1" />
  <defs
     id="defs4970">
    <clipPath
       clipPathUnits="userSpaceOnUse"
       id="clipPath415">
      <path
         d="m 150.565,468.38 h 22.058 v 22.058 h -22.058 z"
         id="path413" />
    </clipPath>
  </defs>
  <g
     inkscape:label="Layer 1"
     inkscape:groupmode="layer"
     id="layer1"
     transform="translate(-85.078811,-113.22196)">
    <g
       id="g409"
       transform="matrix(0.29480768,0,0,-0.29480768,40.597016,257.7305)">
      <g
         id="g411"
         clip-path="url(#clipPath415)">
        <g
           id="g417"
           transform="translate(167.0353,484.75)">
          <path
             d="m 0,0 c -0.075,0.026 -0.145,0.023 -0.225,0.024 -0.114,0.001 -0.226,-0.029 -0.339,-0.041 -0.155,-0.017 -0.318,-0.029 -0.474,-0.028 -0.108,0.001 -0.215,0.001 -0.323,0.001 -0.143,-0.001 -0.279,0.025 -0.422,0.022 -0.115,-0.003 -0.22,0.039 -0.335,0.046 -0.157,0.009 -0.311,0.017 -0.468,0.021 -0.159,0.003 -0.316,0.023 -0.477,0.023 -0.104,0 -0.2,-0.004 -0.303,-0.017 C -3.438,0.042 -3.511,0.041 -3.584,0.042 -3.605,0.026 -3.625,0.01 -3.646,-0.004 -3.755,-0.082 -3.864,-0.188 -3.962,-0.28 -4.085,-0.395 -4.229,-0.473 -4.356,-0.582 -4.439,-0.653 -4.474,-0.714 -4.488,-0.825 -4.507,-0.966 -4.522,-1.12 -4.565,-1.257 -4.634,-1.475 -4.793,-1.68 -4.826,-1.906 c 0.006,-0.007 0.013,-0.012 0.019,-0.019 0.047,-0.053 0.099,-0.127 0.13,-0.189 0.04,-0.085 0.014,-0.179 0.031,-0.266 0.017,-0.087 0.052,-0.17 0.061,-0.258 0.021,-0.192 -0.054,-0.373 -0.065,-0.561 -0.008,-0.129 -0.055,-0.232 -0.111,-0.348 -0.03,-0.061 -0.053,-0.124 -0.078,-0.187 0.011,0.024 0.02,0.049 0.031,0.073 0.016,0.036 0.03,0.081 0.053,0.113 0.028,0.037 0.088,0.077 0.123,0.108 0.073,0.066 0.166,0.104 0.248,0.156 0.219,0.139 0.437,0.267 0.643,0.425 0.063,0.049 0.113,0.107 0.172,0.159 0.054,0.047 0.118,0.074 0.173,0.118 0.089,0.07 0.138,0.167 0.214,0.246 0.185,0.191 0.388,0.369 0.609,0.516 0.101,0.068 0.184,0.15 0.292,0.209 0.142,0.079 0.276,0.162 0.427,0.224 0.128,0.052 0.239,0.136 0.359,0.203 0.165,0.093 0.334,0.177 0.506,0.253 0.145,0.062 0.287,0.135 0.419,0.221 0.033,0.02 0.055,0.034 0.079,0.057 0.022,0.022 0.037,0.045 0.062,0.064 0.069,0.052 0.129,0.11 0.197,0.162 0.059,0.044 0.128,0.107 0.182,0.159 0.03,0.029 0.072,0.064 0.094,0.099 0.013,0.02 0.052,0.105 0.048,0.126 C 0.084,-0.009 0.025,-0.009 0,0"
             style="fill:#110f0d;fill-opacity:1;fill-rule:nonzero;stroke:none"
             id="path419" />
        </g>
        <g
           id="g421"
           transform="translate(159.4076,483.3355)">
          <path
             d="M 0,0 C 0.047,0.028 0.092,0.044 0.143,0.065 0.223,0.096 0.293,0.149 0.369,0.188 0.49,0.25 0.623,0.271 0.745,0.332 0.86,0.39 0.977,0.422 1.107,0.44 1.241,0.458 1.365,0.443 1.493,0.425 1.541,0.433 1.589,0.436 1.632,0.424 1.655,0.418 1.676,0.408 1.697,0.398 1.774,0.387 1.845,0.367 1.913,0.337 c 0.053,-0.002 0.107,0 0.158,0 0.083,0 0.184,-0.02 0.257,0.026 C 2.461,0.445 2.53,0.581 2.609,0.71 2.722,0.892 2.837,1.096 2.842,1.315 2.8,1.305 2.759,1.296 2.717,1.285 2.43,1.21 2.127,1.168 1.832,1.168 1.48,1.168 1.128,1.167 0.776,1.168 0.393,1.169 0.011,1.123 -0.373,1.157 c -0.224,0.02 -0.448,0.002 -0.672,0.01 -0.144,0.006 -0.288,0.048 -0.431,0.063 -0.152,0.017 -0.302,0.029 -0.455,0.028 -0.115,-0.001 -0.227,0.024 -0.342,0.023 -0.116,-10e-4 -0.225,0 -0.339,0.017 -0.169,0.025 -0.356,0.005 -0.527,0.005 h -0.33 c -0.039,0 -0.094,-0.01 -0.132,-10e-4 -0.03,0.007 -0.047,0.02 -0.079,0.024 -0.05,0.007 -0.097,0.003 -0.148,0.015 -0.088,0.02 -0.155,0.07 -0.239,0.1 C -4.131,1.463 -4.188,1.46 -4.255,1.46 -4.31,1.46 -4.321,1.456 -4.361,1.431 -4.392,1.413 -4.447,1.384 -4.454,1.342 -4.466,1.26 -4.301,1.237 -4.368,1.236 c 0.131,-0.107 0.22,-0.252 0.33,-0.379 0.096,-0.111 0.156,-0.259 0.269,-0.353 0.065,-0.055 0.144,-0.092 0.211,-0.143 0.071,-0.054 0.122,-0.127 0.195,-0.179 0.054,-0.038 0.116,-0.06 0.172,-0.094 0.075,-0.046 0.138,-0.099 0.22,-0.133 0.255,-0.105 0.45,-0.303 0.664,-0.472 0.102,-0.081 0.207,-0.163 0.297,-0.258 0.055,-0.058 0.099,-0.124 0.152,-0.182 0.067,-0.072 0.147,-0.129 0.217,-0.198 0.096,-0.094 0.202,-0.185 0.311,-0.265 0.135,-0.099 0.241,-0.218 0.343,-0.35 0.069,-0.088 0.149,-0.141 0.235,-0.211 0.011,-0.009 0.023,-0.018 0.034,-0.026 -0.018,0.045 -0.034,0.092 -0.048,0.143 -0.05,0.188 -0.019,0.353 0.009,0.544 0.032,0.217 0.041,0.446 0.106,0.657 0.03,0.1 0.093,0.17 0.145,0.258 0.053,0.091 0.141,0.142 0.223,0.205 0.092,0.069 0.184,0.141 0.283,0.2"
             style="fill:#110f0d;fill-opacity:1;fill-rule:nonzero;stroke:none"
             id="path423" />
        </g>
        <g
           id="g425"
           transform="translate(160.7791,480.0358)">
          <path
             d="m 0,0 c -0.082,-0.009 -0.144,-0.005 -0.217,0.031 -0.088,0.043 -0.185,0.072 -0.276,0.112 -0.053,0.024 -0.108,0.056 -0.165,0.071 -0.053,0.013 -0.109,0.012 -0.162,0.024 -0.196,0.043 -0.33,0.223 -0.516,0.278 -0.005,0.002 -0.011,0.003 -0.016,0.004 0.02,-0.039 0.038,-0.081 0.065,-0.114 0.021,-0.025 0.048,-0.045 0.069,-0.07 0.112,-0.137 0.206,-0.28 0.33,-0.406 0.055,-0.057 0.123,-0.079 0.186,-0.122 0.049,-0.033 0.079,-0.088 0.129,-0.12 0.021,-0.013 0.048,-0.017 0.069,-0.032 0.019,-0.014 0.022,-0.034 0.042,-0.046 0.041,-0.026 0.09,-0.015 0.136,-0.016 0.096,-0.002 0.234,0.071 0.293,0.151 0.045,0.059 0.088,0.128 0.139,0.182 0.031,0.032 0.069,0.047 0.106,0.069 C 0.24,0.012 0.265,0.033 0.29,0.054 0.279,0.05 0.268,0.045 0.257,0.041 0.177,0.016 0.083,0.01 0,0"
             style="fill:#110f0d;fill-opacity:1;fill-rule:nonzero;stroke:none"
             id="path427" />
        </g>
        <g
           id="g429"
           transform="translate(160.7688,481.6403)">
          <path
             d="m 0,0 c -0.013,-0.065 -0.095,-0.14 -0.14,-0.186 -0.037,-0.036 -0.078,-0.065 -0.112,-0.105 -0.042,-0.049 -0.072,-0.097 -0.13,-0.124 -0.072,-0.035 -0.181,-0.096 -0.255,-0.062 -0.06,0.028 -0.104,0.084 -0.162,0.118 -0.086,0.049 -0.159,0.092 -0.209,0.179 -0.043,0.075 -0.145,0.129 -0.179,0.208 -0.024,0.057 -0.006,0.191 0.015,0.243 0.028,0.071 0.089,0.116 0.14,0.17 0.026,0.027 0.056,0.047 0.069,0.084 0.011,0.033 0.046,0.034 0.075,0.042 0.023,0.007 0.046,0.018 0.07,0.02 0.024,0.002 0.05,0 0.074,0 h 0.055 0.021 c 0.026,0 0.053,-0.006 0.079,-0.005 0.01,0.001 0.017,0.001 0.027,-0.001 0.031,-0.008 0.059,-0.017 0.091,-0.02 0.033,-0.003 0.067,-0.004 0.101,-0.01 0.065,-0.011 0.08,-0.04 0.119,-0.095 0.031,-0.044 0.06,-0.092 0.095,-0.133 0.034,-0.04 0.095,-0.064 0.124,-0.102 C 0.007,0.17 0.014,0.067 0,0 M 1.296,0.438 C 1.28,0.467 1.265,0.478 1.245,0.504 1.173,0.597 1.147,0.717 1.066,0.807 0.985,0.896 0.848,0.93 0.829,1.067 0.82,1.127 0.859,1.142 0.874,1.191 0.879,1.209 0.878,1.229 0.877,1.249 0.822,1.277 0.78,1.288 0.785,1.246 0.663,1.322 0.545,1.423 0.414,1.482 0.384,1.495 0.353,1.506 0.322,1.517 0.252,1.522 0.156,1.535 0.099,1.517 0.055,1.502 0.06,1.46 0.031,1.428 0.023,1.42 -0.011,1.406 -0.022,1.398 -0.052,1.378 -0.071,1.356 -0.11,1.355 -0.115,1.331 -0.116,1.316 -0.131,1.298 c -0.02,0.041 0.008,0.097 -0.004,0.14 -0.016,0.058 -0.058,0.021 -0.109,0.037 L -0.252,1.512 C -0.327,1.538 -0.366,1.492 -0.428,1.465 -0.471,1.446 -0.496,1.457 -0.54,1.449 -0.572,1.444 -0.595,1.409 -0.622,1.404 -0.662,1.398 -0.687,1.457 -0.718,1.483 -0.748,1.467 -0.778,1.452 -0.81,1.441 -0.879,1.414 -0.929,1.393 -0.988,1.344 -1.058,1.285 -1.132,1.232 -1.199,1.17 -1.263,1.112 -1.312,1.038 -1.372,0.976 -1.474,0.869 -1.563,0.721 -1.621,0.585 -1.68,0.446 -1.666,0.257 -1.664,0.108 c 10e-4,-0.071 0.009,-0.122 0.044,-0.185 0.036,-0.065 0.062,-0.141 0.104,-0.201 0.041,-0.059 0.118,-0.083 0.169,-0.135 0.075,-0.077 0.087,-0.191 0.155,-0.272 0.05,-0.06 0.138,-0.11 0.198,-0.159 0.06,-0.051 0.107,-0.071 0.184,-0.089 0.061,-0.013 0.103,-0.042 0.159,-0.062 0.094,-0.034 0.198,-0.038 0.294,-0.072 0.061,-0.022 0.112,-0.056 0.176,-0.066 0.091,-0.014 0.189,-0.021 0.282,-0.027 0.12,-0.008 0.197,0.03 0.299,0.089 0.106,0.062 0.212,0.112 0.285,0.215 0.105,0.146 0.191,0.303 0.281,0.459 0.079,0.136 0.162,0.265 0.248,0.396 0.041,0.06 0.09,0.125 0.107,0.198 C 1.335,0.254 1.325,0.322 1.324,0.381 1.308,0.397 1.307,0.418 1.296,0.438"
             style="fill:#110f0d;fill-opacity:1;fill-rule:nonzero;stroke:none"
             id="path431" />
        </g>
        <g
           id="g433"
           transform="translate(167.3041,485.4359)">
          <path
             d="M 0,0 C -0.094,0.121 -0.161,0.227 -0.299,0.303 -0.39,0.353 -0.489,0.377 -0.581,0.421 -0.641,0.449 -0.698,0.485 -0.755,0.517 -0.8,0.543 -0.839,0.577 -0.886,0.598 -0.983,0.643 -1.124,0.632 -1.222,0.605 -1.29,0.587 -1.35,0.556 -1.42,0.544 -1.49,0.532 -1.552,0.517 -1.62,0.496 -1.698,0.471 -1.792,0.458 -1.874,0.443 -2.045,0.413 -2.21,0.365 -2.38,0.33 -2.699,0.265 -2.928,0.007 -3.166,-0.193 c -0.061,-0.051 -0.12,-0.102 -0.186,-0.147 0.242,0.013 0.485,0.014 0.727,0.02 0.558,0.014 1.116,-0.012 1.673,-0.033 0.29,-0.012 0.581,-0.022 0.871,-0.024 0.057,-0.001 0.116,0.002 0.172,-0.01 0.07,-0.014 0.135,-0.054 0.207,-0.062 C 0.312,-0.451 0.326,-0.451 0.339,-0.45 0.314,-0.387 0.294,-0.32 0.26,-0.268 0.188,-0.159 0.078,-0.1 0,0"
             style="fill:#110f0d;fill-opacity:1;fill-rule:nonzero;stroke:none"
             id="path435" />
        </g>
        <g
           id="g437"
           transform="translate(169.4102,484.5086)">
          <path
             d="m 0,0 c -0.048,-0.067 -0.091,-0.119 -0.175,-0.117 -0.071,0 -0.131,0.009 -0.179,0.07 C -0.391,0 -0.384,0.047 -0.449,0.066 -0.482,0.075 -0.546,0.064 -0.582,0.063 -0.627,0.062 -0.655,0.049 -0.697,0.034 -0.74,0.018 -0.778,0.026 -0.82,0.014 -0.89,-0.005 -0.966,-0.074 -1.028,-0.112 -1.09,-0.15 -1.159,-0.182 -1.231,-0.185 c -0.018,-0.001 -0.073,-0.01 -0.086,0.004 -0.015,0.015 -0.001,0.062 -0.007,0.082 -0.06,0.001 -0.073,0.057 -0.107,0.098 -0.048,0.06 -0.1,0.106 -0.136,0.175 -0.021,0.04 -0.039,0.085 -0.068,0.121 -0.017,0.021 -0.037,0.034 -0.055,0.051 -0.01,-0.02 -0.024,-0.039 -0.042,-0.059 -0.113,-0.133 -0.23,-0.266 -0.35,-0.392 -0.2,-0.211 -0.395,-0.421 -0.616,-0.61 -0.158,-0.136 -0.321,-0.255 -0.498,-0.367 -0.184,-0.117 -0.353,-0.25 -0.525,-0.382 -0.141,-0.109 -0.292,-0.197 -0.398,-0.342 -0.098,-0.134 -0.236,-0.253 -0.364,-0.357 -0.062,-0.05 -0.126,-0.104 -0.198,-0.132 -0.042,-0.016 -0.074,-0.027 -0.115,-0.052 -0.091,-0.055 -0.176,-0.115 -0.26,-0.181 -0.078,-0.059 -0.164,-0.094 -0.239,-0.157 -0.038,-0.032 -0.068,-0.045 -0.112,-0.066 -0.081,-0.037 -0.149,-0.106 -0.223,-0.155 -0.142,-0.092 -0.291,-0.171 -0.428,-0.271 -0.211,-0.154 -0.374,-0.346 -0.57,-0.515 -0.11,-0.095 -0.205,-0.207 -0.302,-0.315 -0.187,-0.206 -0.421,-0.392 -0.636,-0.568 -0.251,-0.205 -0.487,-0.428 -0.738,-0.634 -0.062,-0.05 -0.131,-0.095 -0.189,-0.149 -0.034,-0.032 -0.055,-0.075 -0.086,-0.109 0,-0.064 -0.024,-0.134 -0.025,-0.19 -0.003,-0.13 0.019,-0.262 0.012,-0.391 -0.002,-0.031 -0.008,-0.06 -0.019,-0.089 -0.02,-0.05 -0.052,-0.091 -0.066,-0.144 -0.023,-0.087 -0.013,-0.186 -0.019,-0.276 -0.007,-0.106 -0.015,-0.212 -0.014,-0.318 0,-0.059 -0.006,-0.12 -10e-4,-0.179 0.004,-0.047 0.022,-0.086 0.025,-0.134 0.004,-0.082 -0.014,-0.125 -0.041,-0.201 -0.085,-0.229 0.039,-0.47 -0.011,-0.703 -0.043,-0.205 -0.019,-0.442 -0.017,-0.651 0.001,-0.105 -0.023,-0.204 -0.022,-0.309 0,-0.069 0,-0.137 0,-0.206 0,-0.139 -0.005,-0.279 -0.001,-0.418 0.002,-0.081 0.03,-0.173 0.009,-0.253 -0.01,-0.036 -0.03,-0.068 -0.04,-0.104 -0.027,-0.105 -0.013,-0.215 -0.014,-0.322 -10e-4,-0.141 0.024,-0.28 0.023,-0.423 0,-0.114 0.021,-0.222 0.023,-0.335 0.002,-0.096 0.024,-0.187 0.023,-0.282 -0.002,-0.13 -0.013,-0.256 0.027,-0.38 0.027,-0.082 0.022,-0.163 0.056,-0.244 0.038,-0.091 0.004,-0.161 0,-0.253 -0.002,-0.037 0.02,-0.087 0.002,-0.122 -0.005,-0.01 -0.01,-0.015 -0.015,-0.02 0.037,-0.002 0.074,-0.004 0.109,-0.005 0.131,-0.004 0.262,-0.007 0.394,-0.011 0.142,-0.006 0.283,0.015 0.427,0.011 0.257,-0.008 0.481,-0.066 0.713,-0.175 0.212,-0.1 0.44,-0.155 0.658,-0.241 0.034,-0.014 0.076,-0.021 0.106,-0.038 -0.021,0.012 -0.045,0.017 -0.066,0.029 0.049,-0.008 0.12,-0.042 0.153,-0.077 0.067,-0.071 -0.035,-0.189 -0.107,-0.217 -0.038,-0.015 -0.081,-0.015 -0.12,-0.017 -0.221,-0.009 -0.441,0.006 -0.661,-0.009 -0.233,-0.016 -0.468,0.006 -0.7,-0.015 -0.25,-0.023 -0.509,-0.008 -0.761,-0.007 -0.302,10e-4 -0.602,0.016 -0.904,0.021 -0.186,0.003 -0.37,0.024 -0.557,0.022 -0.18,-0.002 -0.355,-0.014 -0.532,-0.036 -0.342,-0.041 -0.678,-0.033 -1.023,-0.032 -0.139,10e-4 -0.37,-0.054 -0.499,0.046 -0.039,0.03 -0.093,0.141 -0.057,0.188 0.022,0.029 0.084,0.024 0.118,0.033 0.169,0.041 0.328,0.114 0.495,0.164 0.043,0.013 0.085,0.028 0.126,0.046 0.062,0.027 0.119,0.063 0.179,0.092 0.193,0.091 0.411,0.125 0.623,0.121 0.076,-0.002 0.138,0.009 0.212,0.017 0.058,0.007 0.126,-0.004 0.185,-0.006 0.052,-0.002 0.105,-0.004 0.157,-0.004 0.053,-0.001 0.094,-0.02 0.146,-0.028 0.07,-0.01 0.134,0.01 0.202,0.019 0.087,0.011 0.174,0.015 0.256,0.044 -0.006,0.054 0.027,0.126 0.028,0.177 0.002,0.085 0.005,0.173 0.001,0.258 -0.003,0.056 -0.035,0.107 -0.051,0.161 -0.027,0.087 -0.049,0.184 -0.058,0.274 -0.012,0.126 0.001,0.248 -0.02,0.373 -0.011,0.064 -0.039,0.138 -0.027,0.204 0.024,0.132 0.054,0.266 0.076,0.4 0.017,0.103 0.078,0.191 0.08,0.294 10e-4,0.104 -0.021,0.202 -0.023,0.305 -10e-4,0.073 -0.028,0.143 -0.045,0.214 -0.033,0.136 -0.023,0.272 -0.023,0.411 v 0.339 c 0,0.264 -0.02,0.537 0.002,0.8 0.026,0.309 0.021,0.62 0.021,0.931 v 0.702 c 0,0.119 0,0.238 0,0.357 0,0.046 -0.008,0.08 -0.017,0.123 -0.019,0.089 -0.014,0.19 -0.021,0.281 -0.007,0.102 -0.015,0.204 -0.02,0.306 -0.002,0.039 -0.005,0.076 -0.007,0.111 -0.018,0.017 -0.036,0.037 -0.059,0.059 -0.044,0.043 -0.067,0.066 -0.099,0.117 -0.06,0.1 -0.185,0.184 -0.269,0.264 -0.127,0.12 -0.255,0.239 -0.383,0.358 -0.17,0.159 -0.294,0.345 -0.447,0.519 -0.069,0.078 -0.14,0.156 -0.206,0.237 -0.07,0.087 -0.126,0.183 -0.206,0.262 -0.171,0.167 -0.342,0.316 -0.54,0.45 -0.162,0.109 -0.297,0.228 -0.427,0.37 -0.127,0.138 -0.219,0.307 -0.354,0.436 -0.171,0.163 -0.29,0.395 -0.494,0.519 -0.168,0.103 -0.318,0.23 -0.483,0.338 -0.097,0.064 -0.184,0.137 -0.265,0.218 -0.041,0.041 -0.094,0.08 -0.141,0.114 -0.067,0.05 -0.12,0.109 -0.18,0.167 -0.105,0.104 -0.224,0.187 -0.318,0.302 -0.074,0.091 -0.126,0.196 -0.214,0.272 -0.052,0.044 -0.086,0.102 -0.135,0.149 -0.07,0.068 -0.153,0.106 -0.214,0.185 -0.071,0.091 -0.05,0.202 -0.102,0.298 -0.018,0.035 -0.045,0.058 -0.052,0.099 -0.01,0.051 0.019,0.085 0.025,0.133 0.001,0.009 0.003,0.017 0.005,0.024 0.018,0.062 0.071,0.066 0.145,0.052 0.056,-0.011 0.093,-0.019 0.154,-0.018 0.276,0.006 0.552,0.013 0.828,0.02 0.298,0.007 0.597,0.014 0.895,0.022 0.284,0.008 0.566,-0.01 0.849,-0.007 0.213,0.003 0.427,0.02 0.641,0.013 0.297,-0.009 0.598,-0.049 0.893,-0.075 0.589,-0.053 1.176,-0.048 1.767,-0.033 0.582,0.016 1.163,0.028 1.745,0.054 0.017,0.142 0.101,0.243 0.201,0.346 0.049,0.05 0.073,0.059 0.142,0.078 0.122,0.031 0.237,0.083 0.361,0.112 0.099,0.024 0.198,0.026 0.297,0.045 0.114,0.023 0.222,0.047 0.338,0.054 0.174,0.01 0.277,0.094 0.41,0.193 0.088,0.065 0.137,0.145 0.204,0.225 0.066,0.076 0.165,0.132 0.244,0.194 0.064,0.049 0.1,0.034 0.175,0.069 0.107,0.051 0.207,0.121 0.325,0.146 0.099,0.021 0.193,0.037 0.289,0.073 0.134,0.05 0.279,0.053 0.42,0.072 0.088,0.013 0.173,0.018 0.262,0.016 0.085,-0.001 0.175,0.032 0.258,0.026 0.067,-0.005 0.115,-0.065 0.178,-0.084 0.101,-0.03 0.212,0.02 0.283,-0.077 0.053,-0.072 0.096,-0.123 0.167,-0.18 0.054,-0.044 0.053,-0.113 0.101,-0.165 0.129,-0.139 0.315,-0.192 0.448,-0.325 0.064,-0.063 0.14,-0.093 0.214,-0.14 0.087,-0.056 0.063,-0.15 0.113,-0.228 0.031,-0.048 0.079,-0.076 0.11,-0.124 10e-4,-0.022 0.012,-0.039 0.031,-0.051 0.023,-0.008 0.044,-0.018 0.065,-0.03 0.04,-0.035 0.053,-0.105 0.088,-0.147 0.032,-0.039 0.071,-0.075 0.11,-0.106 0.06,-0.047 0.119,-0.123 0.189,-0.152 0.113,-0.048 0.251,0.005 0.369,-0.029 0.073,-0.022 0.131,-0.037 0.21,-0.025 0.081,0.012 0.156,0.043 0.239,0.044 C -0.176,0.291 -0.063,0.199 0.07,0.17 0.088,0.123 0.026,0.037 0,0 m 2.892,-6.166 c -0.035,0.169 -0.112,0.316 -0.08,0.511 0.032,0.189 -0.09,0.374 -0.204,0.54 V -5.227 L 2.569,-5.23 c -0.006,0.091 -0.029,0.185 -0.014,0.272 0.049,0.287 0.116,0.57 0.166,0.857 0.014,0.08 0.011,0.17 -0.008,0.249 -0.064,0.264 -0.135,0.526 -0.209,0.787 -0.061,0.216 -0.122,0.433 -0.197,0.645 -0.044,0.127 -0.111,0.247 -0.174,0.366 -0.026,0.049 -0.071,0.087 -0.104,0.132 -0.015,0.019 -0.024,0.043 -0.032,0.066 -0.049,0.134 0.06,0.274 -0.016,0.409 -0.025,0.046 -0.039,0.101 -0.046,0.154 -0.02,0.15 -0.032,0.301 -0.05,0.451 -0.003,0.025 -0.01,0.053 -0.024,0.074 -0.083,0.115 -0.169,0.227 -0.25,0.343 C 1.597,-0.405 1.604,-0.37 1.601,-0.33 1.413,-0.162 1.328,0.103 1.131,0.293 0.954,0.465 0.841,0.703 0.699,0.912 0.606,1.049 0.508,1.183 0.418,1.322 0.338,1.443 0.209,1.524 0.197,1.7 0.19,1.795 0.087,1.896 0.007,1.971 -0.155,2.121 -0.33,2.256 -0.501,2.398 -0.504,2.372 -0.507,2.343 -0.511,2.314 -0.521,2.31 -0.532,2.305 -0.542,2.301 -0.61,2.4 -0.676,2.501 -0.744,2.599 -0.789,2.663 -0.836,2.726 -0.882,2.789 -0.916,2.836 -0.951,2.882 -0.984,2.93 -1.038,3.01 -1.09,3.093 -1.145,3.173 -1.164,3.2 -1.19,3.222 -1.21,3.249 -1.292,3.356 -1.368,3.468 -1.456,3.57 -1.478,3.596 -1.533,3.597 -1.574,3.603 -1.634,3.611 -1.697,3.601 -1.754,3.618 -1.992,3.687 -2.231,3.756 -2.464,3.84 -2.559,3.874 -2.652,3.934 -2.724,4.004 -2.946,4.219 -3.223,4.363 -3.432,4.6 -3.542,4.724 -3.72,4.793 -3.874,4.874 -4.045,4.963 -4.224,5.04 -4.401,5.119 -4.497,5.162 -4.594,5.219 -4.695,5.234 -4.894,5.263 -5.098,5.263 -5.298,5.282 -5.53,5.304 -5.77,5.286 -5.985,5.404 -6.215,5.53 -6.466,5.507 -6.713,5.51 -6.731,5.51 -6.753,5.507 -6.765,5.496 -6.876,5.393 -7.002,5.437 -7.124,5.46 -7.143,5.463 -7.153,5.509 -7.173,5.546 -7.23,5.554 -7.302,5.571 -7.375,5.572 -7.529,5.574 -7.684,5.568 -7.838,5.566 -7.999,5.564 -8.16,5.55 -8.319,5.563 -8.469,5.575 -8.617,5.615 -8.766,5.642 -8.768,5.643 -8.77,5.651 -8.772,5.651 -8.833,5.657 -8.9,5.682 -8.953,5.664 -9.092,5.616 -9.231,5.562 -9.357,5.488 -9.423,5.449 -9.529,5.429 -9.527,5.312 -9.526,5.296 -9.554,5.274 -9.573,5.263 -9.65,5.221 -9.729,5.181 -9.807,5.14 c 0.001,0.012 0.002,0.024 0.002,0.037 -0.022,0.004 -0.047,0.017 -0.067,0.013 -0.113,-0.023 -0.225,-0.055 -0.339,-0.075 -0.045,-0.008 -0.096,0.019 -0.142,0.011 -0.177,-0.03 -0.353,-0.067 -0.529,-0.101 -0.216,-0.042 -0.433,-0.083 -0.649,-0.126 -0.03,-0.005 -0.061,-0.027 -0.089,-0.023 -0.198,0.029 -0.368,-0.08 -0.552,-0.118 -0.032,-0.007 -0.058,-0.049 -0.086,-0.075 0.005,-0.005 0.011,-0.01 0.017,-0.015 l 0.168,0.054 c 0.004,-0.01 0.008,-0.021 0.012,-0.032 -0.117,-0.079 -0.234,-0.158 -0.351,-0.238 -0.005,0.017 -0.011,0.033 -0.016,0.05 -0.041,-0.003 -0.09,0.007 -0.123,-0.012 -0.101,-0.057 -0.196,-0.125 -0.293,-0.189 -0.158,-0.104 -0.308,-0.222 -0.475,-0.31 -0.119,-0.063 -0.268,-0.071 -0.39,-0.132 -0.287,-0.143 -0.573,-0.293 -0.76,-0.572 -0.069,-0.102 -0.148,-0.197 -0.238,-0.317 -0.021,0.042 -0.032,0.065 -0.039,0.08 -0.217,-0.183 -0.296,-0.437 -0.431,-0.655 -0.123,-0.199 -0.25,-0.403 -0.412,-0.568 -0.197,-0.2 -0.438,-0.357 -0.652,-0.542 -0.211,-0.182 -0.251,-0.449 -0.316,-0.701 -0.026,-0.103 -0.049,-0.206 -0.074,-0.309 -0.012,0.003 -0.024,0.006 -0.036,0.009 0.003,0.03 0.007,0.061 0.01,0.091 -0.051,-0.049 -0.07,-0.112 -0.103,-0.165 -0.071,-0.113 -0.148,-0.222 -0.224,-0.331 -0.019,-0.028 -0.048,-0.05 -0.067,-0.079 -0.119,-0.176 -0.238,-0.353 -0.354,-0.532 -0.02,-0.032 -0.028,-0.072 -0.037,-0.11 -0.047,-0.2 -0.087,-0.402 -0.141,-0.6 -0.05,-0.182 -0.115,-0.361 -0.174,-0.541 l -0.028,0.008 c -0.006,0.019 -0.012,0.037 -0.016,0.047 -0.021,-0.114 -0.052,-0.23 -0.063,-0.347 -0.015,-0.151 -0.008,-0.303 -0.022,-0.454 -0.014,-0.155 0.017,-0.315 -0.067,-0.463 -0.047,-0.083 -0.088,-0.176 -0.103,-0.269 -0.068,-0.404 -0.119,-0.81 -0.33,-1.177 -0.153,-0.265 -0.164,-0.565 -0.112,-0.857 0.086,-0.477 0.17,-0.955 0.359,-1.406 0.011,-0.027 0.04,-0.045 0.057,-0.07 0.063,-0.096 0.124,-0.193 0.186,-0.289 -0.007,-0.006 -0.014,-0.011 -0.021,-0.016 -0.023,0.01 -0.045,0.021 -0.068,0.031 0.104,-0.138 0.123,-0.309 0.075,-0.438 -0.055,-0.145 -0.05,-0.256 0.013,-0.382 0.006,0.011 0.013,0.023 0.034,0.061 0.01,-0.111 0.018,-0.194 0.026,-0.278 0.008,-0.089 0.009,-0.178 0.024,-0.266 0.086,-0.495 0.284,-0.955 0.457,-1.423 0.173,-0.47 0.487,-0.857 0.737,-1.28 0.132,-0.224 0.313,-0.427 0.533,-0.589 0.247,-0.181 0.497,-0.355 0.67,-0.629 0.122,-0.192 0.311,-0.344 0.481,-0.503 0.269,-0.253 0.541,-0.503 0.822,-0.742 0.437,-0.371 0.863,-0.764 1.458,-0.872 0.04,-0.007 0.082,-10e-4 0.122,-0.008 0.14,-0.024 0.289,-0.03 0.417,-0.083 0.131,-0.055 0.241,-0.159 0.362,-0.238 0.02,-0.014 0.05,-0.012 0.075,-0.016 0.04,-0.007 0.088,0 0.117,-0.021 0.235,-0.168 0.481,-0.31 0.764,-0.386 0.202,-0.054 0.397,-0.131 0.595,-0.202 0.065,-0.023 0.125,-0.082 0.189,-0.083 0.243,-0.006 0.459,-0.115 0.691,-0.163 0.342,-0.069 0.68,-0.162 1.013,0.037 0.036,0.021 0.095,0.01 0.143,0.005 0.048,-0.005 0.097,-0.034 0.142,-0.028 0.449,0.055 0.896,0.115 1.344,0.173 0.226,0.029 0.452,0.053 0.677,0.082 0.179,0.022 0.358,0.041 0.535,0.073 0.223,0.04 0.443,0.091 0.665,0.137 0.011,0.003 0.023,-10e-4 0.034,0.001 0.104,0.017 0.221,0.01 0.309,0.056 0.266,0.139 0.522,0.299 0.781,0.451 0.079,0.047 0.146,0.137 0.255,0.056 0.011,-0.008 0.044,0.009 0.064,0.02 0.268,0.137 0.559,0.206 0.853,0.251 0.208,0.033 0.298,0.195 0.417,0.33 0.012,0.013 0.005,0.043 0.008,0.082 -0.042,-0.037 -0.072,-0.063 -0.101,-0.09 -0.009,0.006 -0.018,0.011 -0.027,0.017 0.031,0.053 0.052,0.118 0.096,0.156 0.184,0.153 0.364,0.311 0.545,0.466 0.268,0.229 0.475,0.527 0.798,0.697 0.123,0.065 0.217,0.185 0.326,0.278 0.022,0.018 0.052,0.028 0.08,0.039 0.247,0.094 0.483,0.199 0.601,0.465 0.1,0.227 0.201,0.454 0.318,0.673 0.057,0.106 0.142,0.202 0.23,0.286 0.354,0.336 0.731,0.65 0.957,1.1 0.078,0.156 0.184,0.297 0.275,0.446 0.028,0.046 0.052,0.095 0.071,0.146 0.079,0.214 0.166,0.427 0.232,0.646 0.061,0.203 0.102,0.412 0.146,0.62 0.033,0.155 0.047,0.314 0.087,0.466 0.054,0.206 0.159,0.404 0.179,0.612 0.019,0.212 0.064,0.415 0.112,0.619 0.02,0.085 0.066,0.175 0.05,0.252"
             style="fill:#110f0d;fill-opacity:1;fill-rule:nonzero;stroke:none"
             id="path439" />
        </g>
      </g>
    </g>
  </g>
</svg>
