<?xml version="1.0" encoding="UTF-8" standalone="no"?>
<!-- Created with Inkscape (http://www.inkscape.org/) -->

<svg
   width="22.183884"
   height="24"
   viewBox="0 0 5.8694859 6.35"
   version="1.1"
   id="svg5337"
   inkscape:version="1.2.1 (9c6d41e4, 2022-07-14)"
   sodipodi:docname="return-to-delusory-evils.svg"
   xmlns:inkscape="http://www.inkscape.org/namespaces/inkscape"
   xmlns:sodipodi="http://sodipodi.sourceforge.net/DTD/sodipodi-0.dtd"
   xmlns="http://www.w3.org/2000/svg"
   xmlns:svg="http://www.w3.org/2000/svg">
  <sodipodi:namedview
     id="namedview5339"
     pagecolor="#505050"
     bordercolor="#eeeeee"
     borderopacity="1"
     inkscape:showpageshadow="0"
     inkscape:pageopacity="0"
     inkscape:pagecheckerboard="0"
     inkscape:deskcolor="#505050"
     inkscape:document-units="mm"
     showgrid="false"
     inkscape:zoom="0.7046647"
     inkscape:cx="261.11709"
     inkscape:cy="217.8341"
     inkscape:window-width="1390"
     inkscape:window-height="941"
     inkscape:window-x="0"
     inkscape:window-y="25"
     inkscape:window-maximized="0"
     inkscape:current-layer="layer1" />
  <defs
     id="defs5334">
    <clipPath
       clipPathUnits="userSpaceOnUse"
       id="clipPath1705">
      <path
         d="m 159.654,698.92 h 22.76 v 22.76 h -22.76 z"
         id="path1703" />
    </clipPath>
  </defs>
  <g
     inkscape:label="Layer 1"
     inkscape:groupmode="layer"
     id="layer1"
     transform="translate(-36.114562,-91.068994)">
    <g
       id="g1699"
       transform="matrix(0.33749526,0,0,-0.33749526,-18.797251,334.06718)">
      <g
         id="g1701"
         clip-path="url(#clipPath1705)">
        <g
           id="g1707"
           transform="translate(180.031,716.8011)">
          <path
             d="m 0,0 c -0.185,0.045 -0.335,-0.087 -0.412,-0.249 -0.061,-0.129 -0.197,-0.402 0.071,-0.595 -0.112,0.027 -0.18,-0.103 -0.229,-0.178 -0.123,-0.19 -0.231,-0.355 -0.469,-0.413 -0.14,-0.034 -0.306,-0.008 -0.45,-0.008 -0.198,0 -0.396,0 -0.595,0 H -3.46 c -0.363,0 -0.726,-0.002 -1.09,0.001 -0.146,10e-4 -0.292,-0.004 -0.439,-0.012 -0.039,0.32 -0.093,0.64 -0.132,0.961 -0.059,0.481 -0.063,0.954 -0.063,1.439 0,0.209 -0.015,0.422 -0.003,0.631 0.005,0.104 0.029,0.197 0.103,0.275 -0.099,-0.004 -0.054,0.12 -0.2,0.189 -0.113,0.053 -0.232,0.09 -0.349,0.148 -0.048,0.025 -0.092,0.047 -0.137,0.075 -0.044,0.027 -0.135,0.122 -0.178,0.13 -0.174,0.031 -0.037,-0.361 -0.035,-0.472 0.006,-0.273 0.145,-0.534 0.15,-0.816 0.005,-0.221 0.058,-0.433 0.089,-0.653 0.037,-0.263 0.011,-0.545 0.011,-0.81 0,-0.385 -0.001,-0.77 -0.002,-1.155 -0.181,-0.015 -0.362,-0.029 -0.544,-0.037 -0.5,-0.021 -0.992,-0.044 -1.494,-0.044 h -1.451 -1.622 c 0.096,0.23 0.178,0.469 0.272,0.688 0.224,0.526 0.354,1.06 0.349,1.636 -0.003,0.324 -0.001,0.648 -0.001,0.971 -0.094,0.088 -0.136,0.199 -0.153,0.3 -0.013,0.079 0.002,0.121 -0.033,0.2 -0.016,0.033 -0.04,0.065 -0.053,0.1 -0.025,0.069 -0.03,0.133 -0.071,0.198 -0.046,0.073 -0.104,0.122 -0.142,0.202 -0.055,0.115 -0.094,0.208 -0.197,0.288 -0.111,0.087 -0.344,0.262 -0.491,0.201 -0.108,-0.045 -0.131,-0.148 -0.072,-0.243 0.099,-0.158 0.285,-0.269 0.414,-0.396 0.133,-0.13 0.284,-0.377 0.348,-0.55 0.047,-0.126 0.028,-0.212 0.048,-0.338 0.012,-0.077 0.046,-0.132 0.053,-0.21 0.006,-0.061 -0.001,-0.129 -0.001,-0.19 0,-0.122 -0.004,-0.195 -0.037,-0.308 -0.028,-0.093 -0.057,-0.207 -0.065,-0.303 -0.007,-0.069 0.016,-0.131 -0.005,-0.197 -0.025,-0.075 -0.105,-0.129 -0.134,-0.203 -0.023,-0.059 -0.02,-0.125 -0.044,-0.186 -0.06,-0.159 -0.153,-0.316 -0.225,-0.471 -0.204,-0.436 -0.475,-0.854 -0.829,-1.189 h -0.851 c -0.781,0 -1.576,-0.045 -2.355,-0.001 -0.286,0.016 -0.66,0.151 -0.886,0.325 -0.139,0.107 -0.24,0.247 -0.335,0.398 -0.058,0.093 -0.11,0.188 -0.173,0.277 -0.083,0.117 -0.191,0.202 -0.277,0.31 -0.096,0.121 -0.252,0.347 -0.322,0.065 -0.042,-0.166 -0.008,-0.392 0.023,-0.553 0.036,-0.191 0.11,-0.321 0.228,-0.489 0.081,-0.114 0.114,-0.229 0.152,-0.361 0.074,-0.26 0.149,-0.534 0.444,-0.61 0.18,-0.046 0.405,-0.01 0.589,-0.01 h 1.022 c 0.612,0 1.228,0.034 1.833,-0.062 0.01,-0.002 0.021,-0.003 0.031,-0.005 -0.027,-0.019 -0.053,-0.039 -0.08,-0.058 -0.062,-0.04 -0.118,-0.085 -0.178,-0.127 -0.049,-0.035 -0.111,-0.057 -0.16,-0.092 -0.073,-0.054 -0.092,-0.14 -0.162,-0.197 -0.054,-0.044 -0.106,-0.064 -0.161,-0.118 -0.134,-0.131 -0.288,-0.216 -0.427,-0.337 -0.078,-0.068 -0.114,-0.149 -0.207,-0.205 -0.081,-0.048 -0.173,-0.075 -0.256,-0.12 -0.147,-0.083 -0.267,-0.206 -0.408,-0.3 -0.178,-0.118 -0.347,-0.232 -0.513,-0.365 -0.147,-0.117 -0.316,-0.21 -0.476,-0.308 -0.158,-0.097 -0.295,-0.291 -0.424,-0.426 -0.329,-0.345 -0.547,-0.719 -0.711,-1.166 -0.069,-0.188 -0.146,-0.376 -0.199,-0.57 -0.055,-0.201 -0.137,-0.398 -0.158,-0.608 -0.02,-0.198 -0.018,-0.42 -0.006,-0.618 0.015,-0.262 0.114,-0.481 0.204,-0.72 0.131,-0.346 0.203,-0.696 0.401,-1.012 0.15,-0.238 0.42,-0.451 0.655,-0.599 0.258,-0.163 0.491,-0.26 0.784,-0.349 0.202,-0.062 0.401,-0.075 0.608,-0.113 0.244,-0.045 0.486,-0.076 0.735,-0.065 0.178,0.008 0.37,0.035 0.545,0.064 0.172,0.028 0.348,0.029 0.52,0.064 0.135,0.027 0.268,0.016 0.395,0.074 0.08,0.037 0.166,0.064 0.25,0.1 0.287,0.125 0.571,0.254 0.809,0.487 0.064,0.064 0.095,0.13 0.148,0.201 0.051,0.067 0.106,0.1 0.145,0.18 0.036,0.072 0.068,0.146 0.108,0.219 0.034,0.064 0.091,0.111 0.126,0.171 0.023,0.04 0.008,0.095 0.019,0.139 0.017,0.065 0.067,0.121 0.081,0.19 0.02,0.101 0.031,0.187 0.066,0.285 0.084,0.239 0.205,0.47 0.193,0.728 -0.006,0.117 -0.023,0.234 -0.049,0.347 -0.024,0.106 -0.099,0.181 -0.127,0.29 -0.067,0.262 -0.119,0.484 -0.282,0.706 -0.207,0.281 -0.701,0.442 -1.022,0.551 -0.308,0.104 -0.652,0.129 -0.977,0.102 -0.312,-0.026 -0.673,-0.289 -0.861,-0.529 -0.117,-0.15 -0.229,-0.379 -0.226,-0.572 0.002,-0.215 -0.016,-0.382 0.098,-0.574 0.107,-0.181 0.222,-0.285 0.4,-0.375 0.172,-0.085 0.369,-0.151 0.576,-0.101 0.145,0.035 0.305,0.138 0.457,0.163 -0.165,0.14 -0.382,0.205 -0.534,0.357 -0.158,0.157 -0.244,0.357 -0.188,0.58 0.025,0.098 0.071,0.216 0.127,0.302 0.081,0.126 0.173,0.097 0.314,0.097 0.111,0 0.19,-0.007 0.293,-0.037 0.09,-0.027 0.235,-0.006 0.31,-0.072 0.042,-0.038 0.051,-0.087 0.091,-0.128 0.056,-0.058 0.11,-0.081 0.166,-0.161 0.047,-0.067 0.096,-0.136 0.136,-0.208 0.1,-0.181 0.156,-0.409 0.215,-0.608 0.077,-0.266 0.005,-0.524 -0.053,-0.783 -0.077,-0.34 -0.258,-0.567 -0.597,-0.7 -0.221,-0.086 -0.484,-0.102 -0.722,-0.1 -0.362,0.002 -0.723,10e-4 -1.085,0.002 -0.447,0 -0.815,0.073 -1.206,0.299 -0.239,0.138 -0.388,0.305 -0.508,0.549 -0.297,0.603 -0.125,1.407 0.098,2.011 0.106,0.289 0.233,0.598 0.421,0.843 0.184,0.239 0.35,0.494 0.591,0.68 0.366,0.282 0.757,0.527 1.182,0.709 0.33,0.142 0.63,0.313 0.936,0.5 0.268,0.165 0.503,0.319 0.69,0.575 0.163,0.222 0.373,0.42 0.5,0.659 0.009,0.018 0.02,0.034 0.03,0.052 0.273,0.001 0.548,0.012 0.818,0.012 1.222,0 2.444,0.004 3.667,0 0.302,-10e-4 0.615,-0.026 0.913,0.029 0.068,0.013 0.134,0.025 0.201,0.037 0,-0.156 0,-0.311 10e-4,-0.467 0.002,-0.241 -0.032,-0.476 -0.05,-0.715 -0.007,-0.098 -0.034,-0.19 -0.06,-0.282 h -0.063 c -0.373,0 -0.746,10e-4 -1.119,0 -0.294,0 -0.593,0.02 -0.886,-0.011 -0.089,-0.009 -0.179,-0.041 -0.269,-0.039 -0.054,-0.391 0.062,-0.451 0.247,-0.449 0.218,0.002 0.436,0 0.653,0 h 1.285 c 0.032,0 0.064,0 0.096,0 -0.017,-0.381 -0.038,-0.764 -0.035,-1.144 0.003,-0.298 -0.026,-0.618 -0.085,-0.91 -0.067,-0.335 -0.208,-0.643 -0.254,-0.982 -0.018,-0.131 -0.024,-0.253 -0.048,-0.382 -0.024,-0.136 -0.056,-0.281 -0.064,-0.418 -0.014,-0.213 -0.022,-0.45 0.052,-0.653 0.027,-0.076 0.079,-0.154 0.042,-0.235 -0.082,0.047 -0.245,0.067 -0.338,0.095 -0.17,0.05 -0.344,0.036 -0.519,0.036 -0.335,0 -0.647,-0.015 -0.973,-0.1 -0.239,-0.062 -0.463,-0.114 -0.696,-0.211 -0.127,-0.052 -0.292,-0.105 -0.404,-0.187 -0.087,-0.063 -0.142,-0.166 -0.207,-0.248 -0.158,-0.197 -0.235,-0.476 -0.349,-0.701 -0.188,-0.371 -0.339,-0.676 -0.353,-1.102 -0.013,-0.428 0.013,-0.945 0.201,-1.338 0.066,-0.138 0.155,-0.193 0.251,-0.303 0.095,-0.111 0.143,-0.25 0.211,-0.377 0.064,-0.123 0.156,-0.233 0.181,-0.373 0.02,-0.113 0.018,-0.238 0.032,-0.352 0.022,-0.182 -0.007,-0.427 0.133,-0.569 0.102,-0.103 0.256,-0.128 0.37,-0.211 0.087,-0.063 0.14,-0.163 0.232,-0.221 0.061,-0.039 0.129,-0.053 0.189,-0.095 0.037,-0.026 0.074,-0.075 0.11,-0.103 0.122,-0.095 0.218,-0.134 0.37,-0.156 0.31,-0.045 0.523,-0.05 0.839,0.029 0.291,0.074 0.551,0.17 0.828,0.28 0.163,0.064 0.347,0.086 0.516,0.135 0.183,0.052 0.369,0.09 0.553,0.141 0.17,0.047 0.334,0.125 0.502,0.18 0.62,0.205 0.982,0.697 1.145,1.307 0.058,0.217 0.112,0.69 0.379,0.744 0.316,0.063 0.644,0.122 0.959,0.134 0.151,0.005 0.31,0.037 0.461,0.05 0.181,0.015 0.398,0.09 0.564,0.153 0.203,0.078 0.311,0.165 0.259,0.391 -0.178,0.056 -0.45,0.007 -0.64,0.007 h -0.802 -0.697 c -0.168,0 -0.428,0.043 -0.595,-0.008 0.005,-0.088 -0.06,-0.079 -0.098,-0.139 -0.033,-0.049 -0.035,-0.145 -0.059,-0.202 -0.08,-0.189 -0.218,-0.423 -0.35,-0.589 -0.096,-0.12 -0.181,-0.254 -0.296,-0.358 -0.233,-0.209 -0.437,-0.489 -0.716,-0.642 -0.455,-0.249 -0.978,-0.315 -1.49,-0.309 -0.216,0.002 -0.406,0.053 -0.618,0.101 -0.201,0.045 -0.42,0.07 -0.617,0.136 -0.196,0.066 -0.393,0.199 -0.512,0.367 -0.141,0.197 -0.337,0.346 -0.348,0.607 -0.01,0.232 -0.006,0.454 0.066,0.673 0.063,0.191 0.151,0.363 0.226,0.548 0.111,0.276 0.13,0.601 0.259,0.869 0.07,0.145 0.206,0.387 0.348,0.445 0.193,0.081 0.424,0.098 0.628,0.138 0.189,0.037 0.355,-0.029 0.541,-0.047 0.298,-0.029 0.609,-0.079 0.905,-0.129 0.074,-0.012 0.246,-0.093 0.323,-0.062 0.01,0.158 -0.1,0.305 -0.097,0.473 0.002,0.142 0,0.284 0,0.425 0,0.445 0.047,0.892 0.136,1.328 0.067,0.328 0.064,0.67 0.161,0.992 0.097,0.324 0.144,0.656 0.251,0.975 0.142,0.426 0.201,0.824 0.201,1.27 0,0.277 0.002,0.554 -0.004,0.829 0.765,0.002 1.531,0.003 2.296,-0.002 0.252,-10e-4 0.653,0.028 0.803,0.25 0.066,0.098 0.152,0.252 0.154,0.374 0,0.066 -0.047,0.112 -0.057,0.175 -0.009,0.056 0.039,0.161 -0.045,0.182 -0.095,0.025 -0.219,-0.184 -0.28,-0.232 -0.094,-0.072 -0.256,-0.139 -0.369,-0.151 -0.196,-0.02 -0.382,-0.056 -0.58,-0.087 -0.344,-0.055 -0.72,-0.012 -1.069,-0.012 h -0.881 c -0.007,0.085 -0.013,0.169 -0.025,0.254 -0.027,0.213 -0.087,0.431 -0.096,0.646 -0.005,0.122 0.014,0.241 -0.008,0.362 -0.018,0.098 -0.034,0.185 -0.037,0.281 0.091,0 0.182,-10e-4 0.275,0.003 0.192,0.006 0.379,0.051 0.572,0.054 0.184,0.003 0.369,0 0.553,-0.003 0.204,-0.003 0.356,0.057 0.552,0.093 0.185,0.033 0.386,0.01 0.572,0.008 0.103,-0.002 0.172,0.023 0.271,0.044 0.229,0.049 0.486,0.087 0.718,0.107 0.107,0.009 0.206,0.031 0.313,0.045 0.12,0.015 0.241,-0.009 0.359,0.015 0.258,0.052 0.463,0.381 0.546,0.628 0.077,0.228 0.188,0.475 0.211,0.712 0.011,0.111 0.066,0.224 0.052,0.335 C 0.052,-0.171 0.016,-0.085 0,0"
             style="fill:#100f0d;fill-opacity:1;fill-rule:nonzero;stroke:none"
             id="path1709" />
        </g>
        <g
           id="g1711"
           transform="translate(171.8191,712.9119)">
          <path
             d="M 0,0 C 0.011,-0.001 0.022,0 0.032,0 0.033,0 0.033,0 0.033,0 0.022,0 0.011,0 0,0"
             style="fill:#100f0d;fill-opacity:1;fill-rule:nonzero;stroke:none"
             id="path1713" />
        </g>
      </g>
    </g>
  </g>
</svg>
