<?xml version="1.0" encoding="UTF-8" standalone="no"?>
<!-- Created with Inkscape (http://www.inkscape.org/) -->

<svg
   width="23.868502"
   height="24"
   viewBox="0 0 6.3152078 6.35"
   version="1.1"
   id="svg4479"
   inkscape:version="1.2.1 (9c6d41e4, 2022-07-14)"
   sodipodi:docname="return-to-echoes-of-the-past.svg"
   xmlns:inkscape="http://www.inkscape.org/namespaces/inkscape"
   xmlns:sodipodi="http://sodipodi.sourceforge.net/DTD/sodipodi-0.dtd"
   xmlns="http://www.w3.org/2000/svg"
   xmlns:svg="http://www.w3.org/2000/svg">
  <sodipodi:namedview
     id="namedview4481"
     pagecolor="#505050"
     bordercolor="#eeeeee"
     borderopacity="1"
     inkscape:showpageshadow="0"
     inkscape:pageopacity="0"
     inkscape:pagecheckerboard="0"
     inkscape:deskcolor="#505050"
     inkscape:document-units="mm"
     showgrid="false"
     inkscape:zoom="0.7046647"
     inkscape:cx="80.889535"
     inkscape:cy="132.68722"
     inkscape:window-width="1390"
     inkscape:window-height="941"
     inkscape:window-x="0"
     inkscape:window-y="25"
     inkscape:window-maximized="0"
     inkscape:current-layer="layer1" />
  <defs
     id="defs4476">
    <clipPath
       clipPathUnits="userSpaceOnUse"
       id="clipPath271">
      <path
         d="m 39.282,440.808 h 22.057 v 22.058 H 39.282 Z"
         id="path269" />
    </clipPath>
  </defs>
  <g
     inkscape:label="Layer 1"
     inkscape:groupmode="layer"
     id="layer1"
     transform="translate(-83.57691,-113.59743)">
    <g
       id="g265"
       transform="matrix(0.29481097,0,0,-0.29481097,71.902328,249.97894)">
      <g
         id="g267"
         clip-path="url(#clipPath271)">
        <g
           id="g273"
           transform="translate(49.5939,449.7732)">
          <path
             d="M 0,0 C 0.068,0 0.136,0 0.204,0 0.316,-0.001 0.344,-0.019 0.341,0.102 0.339,0.181 0.364,0.233 0.377,0.307 0.391,0.391 0.384,0.455 0.418,0.538 0.464,0.651 0.573,0.731 0.68,0.784 0.748,0.817 0.848,0.848 0.92,0.853 0.995,0.858 1.053,0.826 1.124,0.818 1.25,0.805 1.444,0.717 1.493,0.582 1.531,0.479 1.483,0.401 1.464,0.307 1.459,0.28 1.461,0.232 1.465,0.204 1.475,0.143 1.458,0.151 1.516,0.135 1.585,0.115 1.885,0.11 1.929,0.17 1.893,0.201 1.908,0.28 1.909,0.324 1.91,0.377 1.892,0.411 1.883,0.451 1.871,0.502 1.881,0.555 1.867,0.606 1.858,0.641 1.833,0.689 1.816,0.723 1.775,0.806 1.714,0.891 1.667,0.967 1.601,1.073 1.519,1.104 1.399,1.127 1.272,1.151 1.112,1.125 0.982,1.125 0.799,1.125 0.676,1.127 0.513,1.04 0.443,1.002 0.38,0.944 0.311,0.903 0.236,0.858 0.157,0.827 0.102,0.76 0.026,0.669 -0.014,0.59 -0.043,0.475 -0.06,0.411 -0.113,0.341 -0.102,0.273 -0.111,0.305 -0.121,0.303 -0.13,0.301 -0.143,0.218 -0.182,0.155 -0.171,0.068 -0.159,-0.034 -0.095,0 0,0"
             style="fill:#110f0d;fill-opacity:1;fill-rule:nonzero;stroke:none"
             id="path275" />
        </g>
        <g
           id="g277"
           transform="translate(49.7541,456.9637)">
          <path
             d="M 0,0 C 0.053,-0.064 0.079,-0.013 0.119,0.035 0.193,0.124 0.311,0.157 0.389,0.242 0.41,0.265 0.419,0.3 0.444,0.319 0.473,0.342 0.491,0.329 0.522,0.342 0.561,0.359 0.577,0.378 0.584,0.403 0.586,0.399 0.589,0.396 0.591,0.392 0.608,0.354 0.607,0.305 0.632,0.271 0.644,0.254 0.671,0.249 0.683,0.233 0.716,0.194 0.744,0.149 0.77,0.105 0.823,0.01 0.818,-0.143 0.894,-0.211 0.969,-0.279 1.111,-0.284 1.203,-0.313 1.29,-0.34 1.388,-0.429 1.477,-0.4 c 0.117,0.039 0.081,0.185 0.104,0.279 0.021,0.085 0.111,0.18 0.035,0.232 C 1.658,0.176 1.707,0.246 1.758,0.303 1.805,0.354 1.87,0.399 1.882,0.474 1.893,0.552 1.86,0.558 1.801,0.586 1.719,0.625 1.639,0.681 1.578,0.752 L 1.51,0.65 C 1.465,0.64 1.432,0.589 1.404,0.555 1.342,0.477 1.282,0.399 1.217,0.323 V 0.322 C 1.196,0.353 1.177,0.388 1.165,0.431 1.13,0.557 1.094,0.693 1.008,0.795 0.945,0.872 0.831,0.928 0.753,0.991 0.641,1.081 0.547,1.184 0.442,1.282 0.376,1.344 0.342,1.455 0.309,1.535 0.284,1.596 0.282,1.642 0.283,1.707 0.284,1.777 0.292,1.802 0.25,1.844 0.198,1.895 0.117,1.971 0.045,1.98 -0.104,1.999 -0.057,1.869 -0.058,1.758 -0.058,1.699 -0.061,1.656 -0.041,1.604 -0.028,1.568 0.002,1.533 0.012,1.493 0.005,1.503 -0.005,1.515 -0.024,1.536 -0.015,1.482 0.005,1.439 0.01,1.383 0.016,1.325 0.035,1.315 0.046,1.265 0.068,1.168 0.056,1.072 0.145,0.999 0.217,0.94 0.311,0.876 0.363,0.791 0.304,0.757 0.238,0.705 0.207,0.686 0.094,0.616 -0.016,0.447 -0.155,0.44 -0.19,0.367 -0.122,0.327 -0.092,0.27 -0.051,0.193 -0.054,0.066 0,0"
             style="fill:#110f0d;fill-opacity:1;fill-rule:nonzero;stroke:none"
             id="path279" />
        </g>
        <g
           id="g281"
           transform="translate(51.6037,454.6114)">
          <path
             d="M 0,0 C 0.029,0.063 0.06,0.121 0.104,0.175 0.129,0.205 0.179,0.223 0.169,0.27 0.024,0.297 -0.13,0.306 -0.271,0.368 -0.316,0.388 -0.427,0.457 -0.477,0.45 -0.532,0.442 -0.559,0.323 -0.57,0.276 -0.592,0.19 -0.568,0.1 -0.586,0.012 -0.604,-0.082 -0.629,-0.18 -0.655,-0.272 c -0.046,-0.165 -0.149,-0.134 -0.298,-0.135 -0.033,0 -0.07,-0.005 -0.103,0 -0.033,0.004 -0.049,0.02 -0.075,0.027 -0.033,0.01 -0.061,0.002 -0.096,0.007 -0.03,0.003 -0.053,0.023 -0.074,0.027 -0.058,0.012 -0.118,-0.002 -0.164,0.041 -0.065,0.061 0.002,0.089 0.028,0.169 0.015,0.047 -0.004,0.095 0.005,0.14 0.008,0.04 0.031,0.071 0.045,0.108 0.027,0.07 0.038,0.144 0.063,0.214 C -1.297,0.4 -1.261,0.454 -1.343,0.498 -1.404,0.531 -1.5,0.514 -1.669,0.514 -1.667,0.41 -1.712,0.31 -1.745,0.211 -1.777,0.113 -1.814,0.01 -1.832,-0.093 c -0.016,-0.089 -0.003,-0.175 -0.024,-0.264 -0.014,-0.057 -0.007,-0.115 -0.02,-0.169 -0.011,-0.047 -0.043,-0.066 -0.066,-0.102 -0.043,-0.067 -0.03,-0.144 -0.064,-0.215 0.139,-0.041 0.285,0.024 0.422,-0.041 0.116,-0.054 0.249,-0.123 0.375,-0.137 0.036,-0.004 0.072,-0.004 0.109,-0.003 0.009,-0.038 0.014,-0.078 0.027,-0.108 0.023,-0.058 0.064,-0.105 0.088,-0.161 0.116,-0.261 0,-0.638 -0.264,-0.754 -0.221,-0.098 -0.499,-0.163 -0.725,-0.043 0.057,-0.062 0.048,-0.119 0.064,-0.192 0.022,-0.1 0.141,-0.102 0.224,-0.102 0.084,10e-4 0.213,0.027 0.29,-0.006 0.023,-0.018 0.045,-0.037 0.068,-0.056 0.023,-0.009 0.046,-0.01 0.07,-0.005 0.022,0.005 0.065,-0.036 0.097,-0.035 0.041,0.003 0.102,0.044 0.14,0.061 0.055,0.024 0.054,-0.002 0.109,0.045 0.057,0.048 0.092,0.122 0.149,0.171 0.033,0.028 0.053,0.035 0.089,0.06 0.07,0.046 0.088,0.102 0.132,0.169 0.049,0.074 0.082,0.125 0.109,0.21 0.044,0.139 0.024,0.293 0.025,0.441 0.001,0.041 0.015,0.097 -0.006,0.133 -0.011,0.019 -0.04,0.027 -0.053,0.045 -0.008,0.009 -0.013,0.02 -0.017,0.031 0.003,0 0.006,0 0.009,0.001 0.034,0.012 0.024,0.056 0.038,0.079 0.012,0.021 0.033,0.033 0.047,0.053 0.03,0.041 0.036,0.093 0.058,0.137 0.044,0.088 0.088,0.18 0.137,0.265 0.037,0.065 0.083,0.133 0.096,0.213 0.009,0.057 -0.008,0.113 0.006,0.17 C -0.076,-0.131 -0.031,-0.067 0,0"
             style="fill:#110f0d;fill-opacity:1;fill-rule:nonzero;stroke:none"
             id="path283" />
        </g>
        <g
           id="g285"
           transform="translate(49.3894,448.6791)">
          <path
             d="m 0,0 c 0,-0.037 -0.017,-0.134 -0.002,-0.169 0.019,-0.046 0.052,-0.035 0.1,-0.034 0.112,0.004 0.228,0.047 0.339,0.063 0.108,0.016 0.214,0 0.322,0.005 0.096,0.005 0.183,0.035 0.279,0.037 0.08,0.001 0.16,-0.001 0.24,-0.001 0.151,0 0.343,0.031 0.49,-0.007 0.095,-0.025 0.226,-0.039 0.314,0.031 0.066,0.052 0.032,0.237 0.032,0.316 0,0.132 -0.009,0.268 0.002,0.399 C 2.087,0.599 1.942,0.605 1.892,0.592 1.758,0.555 1.628,0.526 1.49,0.505 1.223,0.464 0.972,0.447 0.702,0.447 0.564,0.447 0.427,0.448 0.29,0.447 0.218,0.446 0.197,0.468 0.138,0.482 0.08,0.496 -0.008,0.481 -0.034,0.412 -0.045,0.361 -0.01,0.327 0.002,0.28 0.022,0.199 0,0.084 0,0"
             style="fill:#110f0d;fill-opacity:1;fill-rule:nonzero;stroke:none"
             id="path287" />
        </g>
        <g
           id="g289"
           transform="translate(50.9634,458.3961)">
          <path
             d="m 0,0 c 0.045,-0.048 0.136,-0.066 0.199,-0.066 0.104,0 0.157,-0.003 0.219,0.099 C 0.495,0.159 0.49,0.363 0.472,0.515 0.454,0.666 0.263,0.681 0.136,0.644 L 0.131,0.615 V 0.581 C 0.037,0.509 -0.031,0.42 -0.043,0.305 -0.046,0.275 -0.04,0.236 -0.04,0.206 -0.041,0.147 -0.043,0.046 0,0"
             style="fill:#110f0d;fill-opacity:1;fill-rule:nonzero;stroke:none"
             id="path291" />
        </g>
        <g
           id="g293"
           transform="translate(58.4228,453.3372)">
          <path
             d="m 0,0 c 0.001,-0.182 -0.001,-0.361 -0.035,-0.542 -0.082,-0.444 -0.237,-0.873 -0.374,-1.307 -0.113,-0.358 -0.271,-0.672 -0.507,-0.985 -0.113,-0.15 -0.25,-0.285 -0.358,-0.437 -0.102,-0.145 -0.206,-0.289 -0.325,-0.425 -0.13,-0.148 -0.271,-0.266 -0.445,-0.376 -0.209,-0.131 -0.364,-0.29 -0.524,-0.463 -0.093,-0.101 -0.208,-0.2 -0.272,-0.317 -0.055,-0.1 -0.087,-0.213 -0.113,-0.322 -0.054,-0.229 0.009,-0.455 0.075,-0.678 0.043,-0.148 0.067,-0.304 0.18,-0.428 0.058,-0.064 0.14,-0.109 0.194,-0.174 0.039,-0.046 0.053,-0.089 0.115,-0.114 0.111,-0.045 0.349,-0.054 0.446,0.022 0.07,0.055 0.122,0.137 0.182,0.199 0.076,0.08 0.06,0.169 0.057,0.271 -0.004,0.153 -0.071,0.291 -0.137,0.43 -0.037,0.077 -0.097,0.244 -0.071,0.336 0.031,0.112 0.28,0.087 0.386,0.105 0.107,0.019 0.224,-0.003 0.328,0.02 0.009,0.025 0.007,0.052 0.01,0.077 0.068,-0.105 0.077,-0.232 0.132,-0.343 0.046,-0.091 0.059,-0.151 0.068,-0.249 0.008,-0.091 0.034,-0.17 0.034,-0.268 -0.001,-0.136 0.02,-0.284 0.002,-0.419 -0.023,-0.178 -0.165,-0.405 -0.266,-0.556 -0.066,-0.1 -0.151,-0.149 -0.265,-0.201 -0.07,-0.032 -0.141,-0.083 -0.217,-0.101 -0.141,-0.035 -0.305,0.008 -0.45,-0.011 -0.116,-0.015 -0.196,-0.031 -0.315,-0.018 -0.239,0.026 -0.475,0.097 -0.662,0.233 -0.176,0.128 -0.254,0.327 -0.436,0.448 -0.23,0.153 -0.369,0.314 -0.412,0.591 -0.016,0.099 -0.002,0.206 -0.002,0.306 -0.001,0.224 0.016,0.425 0.105,0.638 0.075,0.182 0.162,0.362 0.248,0.541 0.137,0.283 0.347,0.505 0.552,0.751 0.185,0.221 0.386,0.43 0.593,0.636 0.022,0.05 0.043,0.099 0.067,0.146 0.053,0.102 0.108,0.205 0.156,0.308 0.083,0.175 0.147,0.373 0.236,0.546 0.018,0.036 0.035,0.041 0.044,0.082 0.008,0.035 -0.001,0.084 -0.001,0.12 0,0.128 0.008,0.251 -0.025,0.376 -0.034,0.131 -0.066,0.274 -0.11,0.401 -0.03,0.083 -0.093,0.178 -0.144,0.254 -0.042,0.064 -0.097,0.113 -0.163,0.154 -0.036,0.008 -0.067,0.024 -0.095,0.048 -0.025,0.036 -0.053,0.07 -0.085,0.1 -0.122,0.085 -0.299,0.135 -0.442,0.133 -0.088,-0.001 -0.178,0.01 -0.265,-0.007 -0.07,-0.013 -0.137,-0.042 -0.207,-0.054 -0.081,-0.015 -0.14,-0.002 -0.217,-0.038 -0.097,-0.044 -0.185,-0.1 -0.285,-0.14 -0.182,-0.073 -0.691,-0.339 -0.476,-0.606 0.036,-0.045 0.07,-0.08 0.102,-0.127 0.026,-0.039 0.064,-0.094 0.117,-0.085 -0.097,0.003 -0.165,-0.04 -0.262,-0.034 -0.103,0.006 -0.226,0.055 -0.316,0.109 -0.136,0.083 -0.17,0.254 -0.221,0.395 -0.049,0.134 -0.083,0.323 -0.004,0.452 0.128,0.204 0.369,0.352 0.573,0.467 0.252,0.141 0.511,0.279 0.795,0.343 0.242,0.055 0.485,0.039 0.73,0.042 0.205,0.002 0.454,-0.013 0.639,-0.107 0.09,-0.045 0.179,-0.09 0.243,-0.169 0.037,-0.047 0.059,-0.106 0.102,-0.148 0.089,-0.085 0.18,-0.116 0.243,-0.227 0.117,-0.205 0.234,-0.41 0.306,-0.633 0.056,-0.173 0.088,-0.343 0.103,-0.518 0.014,0.057 0.023,0.116 0.045,0.165 0.04,0.088 0.059,0.153 0.077,0.248 0.03,0.153 0.086,0.31 0.096,0.467 0.012,0.192 -0.002,0.391 -0.002,0.584 0,0.205 -0.012,0.397 -0.034,0.6 -0.021,0.2 -0.041,0.385 -0.14,0.561 -0.057,0.099 -0.141,0.215 -0.239,0.276 -0.064,0.032 -0.128,0.065 -0.19,0.099 -0.068,0.052 -0.136,0.102 -0.205,0.151 -0.124,0.071 -0.28,0.078 -0.408,0.144 -0.034,0.018 -0.068,0.034 -0.104,0.048 -0.331,0.14 -0.701,0.164 -1.031,0.316 -0.136,0.063 -0.277,0.105 -0.411,0.169 -0.127,0.061 -0.228,0.163 -0.341,0.242 -0.055,0.039 -0.118,0.057 -0.17,0.103 -0.048,0.042 -0.09,0.093 -0.136,0.138 -0.093,0.092 -0.159,0.177 -0.211,0.294 -0.06,0.131 -0.128,0.207 -0.13,0.357 -0.002,0.123 0.004,0.23 0.027,0.348 0.028,0.141 0.02,0.28 0.073,0.418 0.055,0.142 0.137,0.269 0.232,0.386 0.176,0.218 0.402,0.418 0.688,0.456 0.138,0.018 0.268,0.069 0.405,0.014 0.105,-0.042 0.244,-0.087 0.328,-0.163 0.101,-0.09 0.237,-0.243 0.26,-0.375 0.01,-0.057 0.014,-0.184 0,-0.241 C -2.877,4.196 -2.958,4.177 -3.01,4.232 -3.096,4.324 -3.009,4.496 -3.169,4.516 -3.257,4.527 -3.352,4.514 -3.441,4.515 -3.557,4.517 -3.622,4.489 -3.724,4.439 -3.819,4.391 -3.895,4.332 -3.947,4.236 -4,4.136 -4.059,4.037 -4.057,3.923 -4.055,3.819 -4.087,3.666 -4.051,3.567 -4.03,3.509 -3.969,3.444 -3.935,3.391 -3.892,3.325 -3.838,3.274 -3.783,3.218 -3.563,2.999 -3.262,2.918 -2.967,2.862 -2.783,2.826 -2.599,2.851 -2.414,2.811 -2.263,2.778 -2.123,2.781 -1.98,2.713 -1.867,2.66 -1.756,2.607 -1.632,2.579 -1.548,2.56 -1.467,2.548 -1.389,2.51 -1.243,2.441 -1.114,2.333 -0.987,2.235 -0.735,2.04 -0.512,1.802 -0.35,1.527 -0.184,1.245 -0.049,0.897 -0.007,0.584 0.019,0.392 -0.001,0.193 0,0 M -5.699,5.677 C -5.735,5.431 -5.756,5.182 -5.782,4.936 -5.843,4.373 -5.917,3.807 -5.829,3.242 c 0.047,-0.302 0.088,-0.617 0.08,-0.92 -0.03,-1.109 -0.06,-2.218 -0.089,-3.326 -0.007,-0.231 -0.038,-0.47 -0.015,-0.701 0.024,-0.239 0.037,-0.47 0.027,-0.711 -0.012,-0.29 0.072,-0.57 0.078,-0.858 0.006,-0.305 0.042,-0.616 0.032,-0.921 -0.027,-0.798 -0.095,-1.592 -0.118,-2.39 -0.009,-0.355 -0.019,-0.71 -0.028,-1.065 -0.005,-0.177 -0.022,-0.356 -0.014,-0.533 0.002,-0.054 0.025,-0.101 0.036,-0.154 0.05,-0.236 -0.019,-0.486 0.002,-0.724 0.016,-0.184 0.059,-0.368 0.092,-0.55 0.005,-0.027 0.085,-0.257 0.022,-0.296 -0.052,-0.032 -0.355,0.005 -0.43,0.007 -0.153,0.004 -0.311,0.016 -0.463,0.01 -0.371,-0.015 -0.741,-0.04 -1.111,-0.06 -0.365,-0.02 -0.735,-0.023 -1.096,-0.06 -0.181,-0.018 -0.45,-0.131 -0.632,-0.095 -0.23,0.046 -0.267,0.346 -0.325,0.468 -0.03,0.063 -0.043,0.123 -0.085,0.183 -0.024,0.035 -0.053,0.05 -0.065,0.09 -0.019,0.067 0.018,0.136 -0.003,0.204 -0.019,0.062 -0.032,0.096 -0.036,0.162 -0.006,0.127 -0.083,0.248 -0.095,0.375 -0.021,0.205 0.012,0.423 0.02,0.628 0.005,0.102 -0.04,0.187 -0.048,0.287 -0.008,0.119 0.009,0.241 0.013,0.36 0.004,0.145 0.011,0.286 -0.015,0.431 -0.028,0.158 -0.005,0.29 0.027,0.445 0.068,0.33 0.03,0.685 0.039,1.019 0.009,0.342 -0.002,0.688 0.039,1.028 0.063,0.528 0.102,1.063 0.071,1.594 -0.013,0.22 -0.022,0.44 -0.035,0.66 -0.021,0.144 -0.031,0.287 -0.029,0.43 0.013,0.151 0.014,0.301 0.005,0.452 -0.061,0.473 -0.178,0.936 -0.16,1.412 0.022,0.604 0.033,1.208 0.049,1.811 0.006,0.227 -10e-4,0.455 0.016,0.682 0.006,0.093 0.045,0.182 0.06,0.274 0.03,0.186 -0.043,0.378 -0.039,0.566 0.002,0.078 0.003,0.155 0.006,0.232 0.007,0.276 0.018,0.552 0.026,0.828 0.007,0.237 0.036,0.481 -0.023,0.717 -0.043,0.172 -0.073,0.325 -0.033,0.499 0.049,0.208 0.117,0.4 0.112,0.613 0,0.029 -0.004,0.057 -0.009,0.084 -0.021,0.109 -0.073,0.209 -0.108,0.319 -0.037,0.12 0.034,0.195 0.209,0.239 0.115,0.028 0.229,0.016 0.341,0.052 0.088,0.028 0.146,0.051 0.249,0.049 0.137,-0.003 0.273,-0.009 0.409,-0.012 0.228,-0.005 0.431,-0.035 0.642,-0.092 0.073,-0.019 0.141,-0.036 0.221,-0.041 0.057,-0.004 0.114,-10e-4 0.172,0 0.275,0.004 0.53,-0.036 0.803,-0.049 0.17,-0.009 0.346,-0.038 0.515,-0.056 0.184,-0.021 0.352,-0.052 0.522,-0.1 0.081,-0.023 0.191,-0.039 0.254,-0.082 0.063,-0.042 0.059,-0.096 0.08,-0.151 0.033,-0.088 0.077,-0.167 0.076,-0.26 C -5.59,6.056 -5.672,5.865 -5.699,5.677 m -5.159,-11.505 c -0.031,-0.132 -0.062,-0.264 -0.088,-0.397 -0.019,-0.098 -0.057,-0.16 -0.098,-0.253 -0.071,-0.163 -0.154,-0.298 -0.254,-0.452 -0.126,-0.195 -0.245,-0.383 -0.406,-0.559 -0.13,-0.142 -0.295,-0.24 -0.435,-0.372 -0.038,-0.036 -0.071,-0.07 -0.118,-0.095 -0.155,-0.086 -0.354,-0.161 -0.531,-0.173 -0.116,-0.008 -0.278,-0.05 -0.393,-0.016 -0.055,0.016 -0.107,0.04 -0.157,0.068 -0.037,0.021 -0.072,0.045 -0.106,0.07 -0.097,0.072 -0.216,0.104 -0.28,0.217 -0.014,0.024 -0.011,0.058 -0.022,0.084 -0.013,0.031 -0.035,0.047 -0.051,0.074 -0.034,0.056 -0.047,0.129 -0.066,0.193 -0.007,0.026 -0.01,0.06 -0.023,0.084 -0.014,0.026 -0.038,0.035 -0.051,0.057 -0.029,0.05 -0.039,0.12 -0.056,0.177 -0.047,0.16 -0.123,0.329 -0.123,0.497 10e-4,0.167 0.109,0.222 0.204,0.335 0.084,0.099 0.166,0.167 0.262,0.251 -0.078,-0.133 -0.119,-0.238 -0.148,-0.393 -0.033,-0.177 -0.014,-0.336 0.035,-0.506 0.049,-0.166 0.22,-0.302 0.398,-0.299 0.066,10e-4 0.117,0.038 0.176,0.063 0.102,0.045 0.214,0.07 0.321,0.102 0.138,0.041 0.291,0.069 0.422,0.129 0.188,0.085 0.337,0.183 0.473,0.346 0.114,0.137 0.126,0.297 0.205,0.449 0.066,0.127 0.104,0.248 0.146,0.383 0.042,0.132 0.045,0.213 0.003,0.349 -0.033,0.105 -0.068,0.181 -0.131,0.273 -0.067,0.098 -0.124,0.203 -0.185,0.305 -0.062,0.107 -0.107,0.2 -0.212,0.271 -0.102,0.07 -0.21,0.132 -0.308,0.207 -0.058,0.045 -0.108,0.098 -0.159,0.151 -0.199,0.209 -0.434,0.37 -0.669,0.536 -0.238,0.168 -0.528,0.274 -0.757,0.453 -0.096,0.075 -0.187,0.132 -0.252,0.231 -0.049,0.076 -0.082,0.156 -0.122,0.235 -0.044,0.089 -0.077,0.168 -0.105,0.264 -0.022,0.075 -0.069,0.163 -0.076,0.241 -0.007,0.086 0.039,0.168 0.031,0.256 -0.007,0.071 0.004,0.14 0.019,0.213 0.016,0.077 0.057,0.142 0.095,0.214 0.051,0.099 0.096,0.21 0.177,0.297 0.071,0.075 0.15,0.142 0.214,0.224 0.02,0.025 0.039,0.047 0.059,0.067 -0.055,0.025 -0.106,0.056 -0.148,0.095 -0.069,0.063 -0.156,0.08 -0.227,0.151 -0.054,0.054 -0.1,0.124 -0.163,0.169 -0.123,0.087 -0.264,0.169 -0.399,0.235 -0.095,0.046 -0.167,0.132 -0.265,0.166 -0.065,0.023 -0.14,0.032 -0.207,0.049 -0.136,0.036 -0.305,0.049 -0.44,0.007 -0.255,-0.08 -0.47,-0.274 -0.63,-0.476 -0.102,-0.129 -0.118,-0.273 -0.154,-0.427 -0.024,-0.106 -0.086,-0.19 -0.12,-0.29 -0.047,-0.138 -0.023,-0.295 -0.018,-0.437 0.005,-0.147 0.014,-0.304 0.075,-0.44 0.041,-0.094 0.118,-0.225 0.201,-0.283 -0.029,0.023 -0.072,0.031 -0.105,0.051 -0.05,0.029 -0.092,0.072 -0.127,0.117 -0.066,0.081 -0.116,0.173 -0.181,0.254 -0.058,0.072 -0.132,0.126 -0.189,0.197 -0.089,0.11 -0.084,0.204 -0.084,0.335 0.001,0.18 -0.006,0.352 0.034,0.529 0.036,0.155 0.062,0.305 0.136,0.444 0.09,0.17 0.159,0.362 0.286,0.507 0.155,0.176 0.287,0.323 0.491,0.442 0.112,0.065 0.218,0.109 0.349,0.11 0.12,0.002 0.241,-0.001 0.361,-0.001 0.169,0 0.334,0.007 0.498,-0.026 0.114,-0.023 0.19,-0.042 0.298,-0.091 0.125,-0.056 0.244,-0.137 0.374,-0.178 0.113,-0.035 0.215,-0.093 0.315,-0.156 0.049,-0.031 0.105,-0.084 0.163,-0.097 0.056,-0.013 0.122,-0.005 0.181,-0.016 0.128,-0.024 0.25,-0.072 0.371,-0.119 0.117,-0.045 0.226,-0.054 0.346,-0.068 0.009,-0.001 0.018,-0.002 0.027,-0.003 0.18,-0.022 0.381,-0.121 0.554,-0.025 0.054,0.03 0.096,0.075 0.155,0.099 0.169,0.068 0.387,0.011 0.518,0.168 0.026,0.031 0.038,0.07 0.064,0.103 0.036,0.045 0.087,0.076 0.122,0.122 0.05,0.066 0.109,0.177 0.068,0.254 -0.026,0.049 -0.086,0.102 -0.12,0.135 -0.053,0.05 -0.133,0.112 -0.205,0.147 -0.082,0.039 -0.186,0.065 -0.274,0.084 -0.04,0.008 -0.22,-0.015 -0.163,0.069 0.01,0.015 0.134,0.067 0.154,0.072 0.05,0.011 0.096,0.015 0.146,0.029 0.045,0.012 0.114,0.038 0.158,0.036 0.058,-0.001 0.114,-0.026 0.175,-0.028 0.064,-0.002 0.096,-0.008 0.155,-0.033 0.131,-0.058 0.186,-0.151 0.281,-0.255 0.088,-0.097 0.074,-0.228 0.082,-0.349 0.005,-0.066 0.033,-0.126 0.038,-0.191 0.006,-0.073 -0.002,-0.15 -0.002,-0.223 0,-0.093 0.019,-0.21 -0.032,-0.294 -0.06,-0.098 -0.21,-0.158 -0.303,-0.223 -0.087,-0.061 -0.151,-0.138 -0.226,-0.205 -0.079,-0.07 -0.194,-0.103 -0.291,-0.145 -0.078,-0.035 -0.188,-0.081 -0.272,-0.095 -0.082,-0.013 -0.163,-0.033 -0.246,-0.032 -0.099,10e-4 -0.193,0.033 -0.292,0.035 -0.093,0.001 -0.188,-0.001 -0.282,-0.001 -0.075,0 -0.154,0.006 -0.232,0.003 -0.011,-0.015 -0.023,-0.028 -0.03,-0.037 -0.066,-0.081 -0.12,-0.163 -0.176,-0.25 -0.107,-0.163 -0.274,-0.342 -0.263,-0.53 0.016,-0.251 0.031,-0.482 0.102,-0.723 0.066,-0.222 0.165,-0.379 0.395,-0.49 0.13,-0.063 0.212,-0.162 0.329,-0.239 0.103,-0.068 0.208,-0.111 0.335,-0.139 0.138,-0.03 0.264,-0.087 0.402,-0.117 0.114,-0.024 0.211,-0.055 0.319,-0.096 0.064,-0.025 0.106,-0.054 0.162,-0.092 0.065,-0.044 0.141,-0.055 0.208,-0.094 0.084,-0.048 0.157,-0.133 0.218,-0.202 0.213,-0.238 0.314,-0.532 0.405,-0.827 0.097,-0.314 0.032,-0.696 -0.043,-1.022 m -3.659,9.515 c 0.012,0.018 0.032,0.008 0.044,0.02 0.035,0.035 0.066,0.075 0.084,0.126 0.077,0.205 0.094,0.429 0.175,0.634 0.061,0.151 0.156,0.29 0.233,0.434 0.065,0.123 0.138,0.205 0.255,0.281 0.167,0.108 0.296,0.25 0.473,0.343 0.151,0.079 0.313,0.217 0.479,0.246 0.162,0.029 0.355,0.01 0.521,0.015 0.154,0.005 0.264,-0.037 0.412,-0.068 0.143,-0.031 0.258,-0.019 0.386,-0.092 0.061,-0.035 0.132,-0.052 0.192,-0.083 0.059,-0.032 0.074,-0.081 0.106,-0.141 0.017,-0.03 0.047,-0.064 0.059,-0.093 0.039,-0.09 0.085,-0.182 0.126,-0.276 0.048,-0.11 0.11,-0.227 0.143,-0.342 0.021,-0.072 0.041,-0.238 0.019,-0.309 -0.031,0.02 -0.03,0.07 -0.052,0.101 -0.041,0.055 -0.101,0.099 -0.143,0.157 -0.085,0.118 -0.19,0.181 -0.317,0.251 -0.13,0.071 -0.267,0.171 -0.41,0.206 -0.109,0.026 -0.182,0.112 -0.299,0.114 -0.159,0.003 -0.339,-0.011 -0.488,-0.054 -0.352,-0.102 -0.706,-0.379 -0.889,-0.696 -0.126,-0.218 -0.248,-0.453 -0.272,-0.708 -0.01,-0.114 0.015,-0.194 0.041,-0.3 0.006,-0.023 0.022,-0.093 0.006,-0.114 -0.017,-0.023 -0.032,0.002 -0.05,-0.012 -0.029,-0.021 -0.038,-0.02 -0.049,-0.06 -0.007,-0.028 -0.004,-0.059 0.004,-0.09 0.007,-0.033 0.019,-0.066 0.025,-0.094 0.036,-0.149 0.032,-0.336 0.092,-0.478 0.066,-0.153 0.182,-0.241 0.334,-0.305 0.096,-0.042 0.169,-0.1 0.275,-0.121 0.103,-0.021 0.214,-0.023 0.32,-0.018 0.215,0.009 0.492,0.141 0.59,0.343 0.036,0.072 0.05,0.238 0.009,0.308 -0.043,0.073 -0.164,0.067 -0.192,0.132 -0.007,0.018 0.005,0.063 0,0.085 -0.005,0.022 -0.027,0.029 -0.033,0.053 -0.014,0.059 0.013,0.108 -0.019,0.167 0.066,0.026 0.134,-0.011 0.197,-0.029 0.078,-0.022 0.157,-0.028 0.232,-0.059 0.153,-0.063 0.263,-0.125 0.367,-0.257 0.151,-0.193 0.073,-0.509 -0.089,-0.689 -0.229,-0.254 -0.57,-0.32 -0.883,-0.394 -0.407,-0.094 -0.889,-0.019 -1.277,0.126 -0.193,0.072 -0.411,0.17 -0.532,0.349 -0.083,0.123 -0.122,0.312 -0.151,0.457 -0.032,0.162 -0.06,0.298 -0.059,0.465 0,0.106 -0.017,0.211 -0.016,0.316 10e-4,0.043 -0.005,0.116 0.021,0.153 M 2.595,-2.567 c -0.035,0.169 -0.112,0.317 -0.079,0.511 0.032,0.19 -0.09,0.374 -0.205,0.541 v -0.113 c -0.013,0 -0.026,-0.001 -0.039,-0.002 -0.005,0.091 -0.028,0.184 -0.014,0.271 0.049,0.287 0.116,0.571 0.167,0.858 0.014,0.08 0.01,0.169 -0.009,0.249 C 2.353,0.011 2.281,0.273 2.208,0.534 2.147,0.751 2.085,0.968 2.011,1.18 1.966,1.306 1.9,1.426 1.836,1.546 1.811,1.594 1.766,1.632 1.732,1.677 1.718,1.697 1.708,1.721 1.7,1.744 1.652,1.878 1.761,2.017 1.685,2.153 1.659,2.199 1.645,2.254 1.639,2.306 1.619,2.456 1.606,2.607 1.589,2.757 1.586,2.783 1.579,2.811 1.564,2.831 1.482,2.946 1.395,3.058 1.314,3.174 1.3,3.195 1.308,3.23 1.304,3.269 1.117,3.438 1.032,3.702 0.835,3.893 0.657,4.064 0.545,4.303 0.403,4.511 0.309,4.649 0.212,4.783 0.121,4.922 0.042,5.043 -0.087,5.124 -0.1,5.3 -0.107,5.395 -0.209,5.495 -0.29,5.57 -0.451,5.721 -0.627,5.856 -0.797,5.998 -0.8,5.972 -0.804,5.943 -0.807,5.913 -0.818,5.909 -0.828,5.905 -0.839,5.9 -0.906,6 -0.972,6.1 -1.041,6.199 -1.085,6.263 -1.133,6.325 -1.179,6.388 -1.213,6.435 -1.248,6.481 -1.28,6.529 -1.335,6.61 -1.387,6.692 -1.441,6.773 -1.46,6.8 -1.487,6.822 -1.507,6.848 -1.588,6.956 -1.665,7.067 -1.752,7.169 -1.774,7.195 -1.83,7.197 -1.871,7.202 -1.93,7.21 -1.994,7.201 -2.05,7.217 -2.289,7.286 -2.527,7.356 -2.761,7.44 -2.855,7.474 -2.948,7.534 -3.02,7.604 -3.243,7.818 -3.52,7.963 -3.728,8.199 -3.838,8.324 -4.016,8.392 -4.17,8.473 -4.342,8.563 -4.52,8.64 -4.697,8.719 -4.794,8.762 -4.89,8.819 -4.992,8.833 -5.191,8.862 -5.394,8.862 -5.595,8.881 -5.826,8.904 -6.067,8.885 -6.281,9.003 -6.511,9.13 -6.762,9.106 -7.01,9.11 -7.027,9.11 -7.05,9.107 -7.061,9.096 -7.172,8.992 -7.299,9.036 -7.42,9.059 -7.439,9.063 -7.45,9.108 -7.47,9.146 -7.526,9.153 -7.599,9.17 -7.671,9.172 -7.826,9.174 -7.98,9.168 -8.134,9.166 -8.295,9.163 -8.457,9.15 -8.616,9.163 c -0.15,0.012 -0.297,0.051 -0.446,0.079 -0.003,0 -0.004,0.008 -0.007,0.009 -0.06,0.005 -0.127,0.03 -0.18,0.012 C -9.388,9.216 -9.527,9.161 -9.654,9.087 -9.719,9.049 -9.826,9.029 -9.823,8.912 -9.823,8.896 -9.851,8.874 -9.87,8.863 -9.947,8.82 -10.025,8.78 -10.103,8.74 c 0,0.012 10e-4,0.024 0.002,0.036 -0.023,0.005 -0.047,0.018 -0.068,0.014 -0.113,-0.024 -0.225,-0.056 -0.338,-0.076 -0.046,-0.007 -0.097,0.019 -0.142,0.012 -0.177,-0.03 -0.353,-0.068 -0.529,-0.102 -0.217,-0.042 -0.433,-0.083 -0.649,-0.125 -0.031,-0.006 -0.061,-0.028 -0.089,-0.024 -0.199,0.029 -0.368,-0.079 -0.552,-0.117 -0.033,-0.007 -0.058,-0.049 -0.087,-0.075 0.006,-0.005 0.012,-0.01 0.018,-0.015 l 0.168,0.054 c 0.004,-0.011 0.008,-0.022 0.012,-0.033 -0.117,-0.079 -0.234,-0.158 -0.351,-0.237 -0.006,0.016 -0.011,0.033 -0.017,0.049 -0.041,-0.003 -0.09,0.007 -0.122,-0.011 -0.101,-0.057 -0.197,-0.125 -0.294,-0.189 -0.157,-0.105 -0.308,-0.222 -0.474,-0.31 -0.12,-0.063 -0.268,-0.071 -0.39,-0.132 -0.287,-0.144 -0.573,-0.293 -0.761,-0.573 -0.068,-0.102 -0.147,-0.197 -0.237,-0.316 -0.021,0.042 -0.032,0.064 -0.04,0.08 -0.217,-0.183 -0.295,-0.438 -0.43,-0.656 -0.123,-0.199 -0.25,-0.402 -0.413,-0.567 -0.197,-0.2 -0.437,-0.357 -0.651,-0.542 -0.212,-0.183 -0.251,-0.45 -0.316,-0.702 -0.026,-0.102 -0.049,-0.205 -0.074,-0.308 -0.012,0.003 -0.025,0.005 -0.037,0.008 0.004,0.031 0.007,0.061 0.011,0.092 -0.051,-0.05 -0.07,-0.112 -0.104,-0.165 -0.07,-0.113 -0.147,-0.222 -0.223,-0.331 -0.02,-0.029 -0.049,-0.051 -0.068,-0.079 -0.119,-0.177 -0.238,-0.354 -0.353,-0.533 -0.02,-0.031 -0.028,-0.072 -0.037,-0.109 -0.047,-0.2 -0.087,-0.402 -0.142,-0.6 -0.05,-0.183 -0.115,-0.361 -0.173,-0.541 l -0.029,0.008 c -0.006,0.018 -0.012,0.036 -0.015,0.046 -0.022,-0.113 -0.052,-0.229 -0.064,-0.347 -0.014,-0.15 -0.008,-0.303 -0.021,-0.453 -0.014,-0.155 0.017,-0.316 -0.067,-0.463 -0.047,-0.083 -0.088,-0.176 -0.104,-0.269 -0.067,-0.405 -0.119,-0.81 -0.33,-1.178 -0.152,-0.264 -0.164,-0.564 -0.111,-0.856 0.086,-0.477 0.17,-0.956 0.358,-1.407 0.011,-0.026 0.041,-0.044 0.057,-0.069 0.064,-0.096 0.125,-0.193 0.187,-0.29 -0.008,-0.005 -0.014,-0.01 -0.021,-0.015 -0.023,0.01 -0.046,0.021 -0.069,0.031 0.105,-0.138 0.124,-0.31 0.075,-0.439 -0.054,-0.145 -0.049,-0.256 0.013,-0.381 0.007,0.011 0.013,0.022 0.035,0.06 0.01,-0.11 0.018,-0.194 0.025,-0.277 0.008,-0.089 0.01,-0.179 0.025,-0.267 0.086,-0.495 0.284,-0.954 0.456,-1.422 0.173,-0.47 0.488,-0.857 0.738,-1.28 0.132,-0.224 0.313,-0.428 0.533,-0.589 0.247,-0.181 0.497,-0.355 0.669,-0.629 0.122,-0.193 0.311,-0.345 0.481,-0.504 0.269,-0.252 0.541,-0.502 0.823,-0.741 0.436,-0.371 0.863,-0.764 1.458,-0.872 0.04,-0.007 0.082,-10e-4 0.122,-0.008 0.14,-0.024 0.288,-0.03 0.416,-0.083 0.131,-0.055 0.241,-0.159 0.362,-0.239 0.02,-0.013 0.05,-0.011 0.076,-0.015 0.039,-0.007 0.088,-0.001 0.117,-0.022 0.235,-0.168 0.48,-0.31 0.764,-0.386 0.201,-0.054 0.397,-0.131 0.594,-0.201 0.065,-0.024 0.126,-0.082 0.189,-0.084 0.243,-0.005 0.46,-0.115 0.692,-0.162 0.341,-0.07 0.68,-0.163 1.013,0.037 0.036,0.021 0.095,0.009 0.143,0.004 0.048,-0.004 0.096,-0.033 0.142,-0.028 0.448,0.055 0.896,0.116 1.344,0.173 0.225,0.029 0.451,0.054 0.677,0.082 0.178,0.023 0.358,0.042 0.535,0.074 0.222,0.04 0.443,0.091 0.664,0.137 0.011,0.002 0.023,-10e-4 0.035,0.001 0.104,0.016 0.22,0.01 0.309,0.056 0.266,0.139 0.521,0.298 0.78,0.451 0.08,0.046 0.147,0.136 0.256,0.055 0.01,-0.008 0.043,0.01 0.063,0.02 0.269,0.138 0.559,0.206 0.853,0.252 0.209,0.032 0.299,0.195 0.418,0.329 0.011,0.014 0.005,0.043 0.008,0.082 -0.042,-0.037 -0.072,-0.063 -0.102,-0.089 -0.009,0.005 -0.018,0.011 -0.026,0.016 0.031,0.053 0.051,0.119 0.096,0.156 0.183,0.154 0.364,0.312 0.545,0.466 0.268,0.229 0.474,0.527 0.797,0.697 0.123,0.065 0.217,0.186 0.326,0.278 0.022,0.019 0.053,0.029 0.08,0.039 0.248,0.094 0.484,0.2 0.601,0.465 0.1,0.227 0.202,0.455 0.319,0.673 0.057,0.106 0.141,0.203 0.229,0.287 0.355,0.336 0.732,0.65 0.958,1.1 0.078,0.155 0.184,0.296 0.275,0.446 0.028,0.046 0.052,0.095 0.07,0.145 0.08,0.215 0.166,0.428 0.232,0.646 0.061,0.203 0.102,0.413 0.147,0.621 0.033,0.154 0.047,0.313 0.087,0.466 0.054,0.205 0.159,0.404 0.178,0.611 0.02,0.213 0.065,0.415 0.113,0.62 0.019,0.084 0.066,0.174 0.049,0.251"
             style="fill:#110f0d;fill-opacity:1;fill-rule:nonzero;stroke:none"
             id="path295" />
        </g>
        <g
           id="g297"
           transform="translate(51.7501,446.509)">
          <path
             d="m 0,0 c -0.043,0.115 -0.102,0.244 -0.187,0.334 -0.07,0.075 -0.181,0.131 -0.282,0.135 -0.096,0.004 -0.184,0.072 -0.278,0.07 0.045,-0.029 0.041,-0.075 0.073,-0.105 0.047,-0.046 0.09,-0.032 0.086,-0.067 -0.016,-0.088 0.065,-0.127 0.117,-0.182 0.127,-0.131 0.125,-0.27 0.19,-0.426 0.075,-0.181 0.087,-0.368 0.07,-0.565 -0.008,-0.092 -0.057,-0.186 -0.087,-0.273 -0.033,-0.093 -0.075,-0.198 -0.137,-0.275 -0.05,-0.061 -0.134,-0.162 -0.2,-0.201 -0.041,-0.023 -0.189,-0.019 -0.189,-0.084 0.093,-0.005 0.263,0.075 0.339,0.121 0.073,0.044 0.125,0.106 0.186,0.164 0.053,0.05 0.124,0.079 0.17,0.136 0.091,0.112 0.136,0.249 0.206,0.373 0.066,0.117 0.067,0.292 0.053,0.428 C 0.115,-0.272 0.051,-0.136 0,0"
             style="fill:#110f0d;fill-opacity:1;fill-rule:nonzero;stroke:none"
             id="path299" />
        </g>
        <g
           id="g301"
           transform="translate(50.9839,445.8965)">
          <path
             d="M 0,0 C 0.065,0.047 0.087,0.055 0.045,0.126 -0.01,0.22 -0.111,0.314 -0.18,0.4 -0.271,0.513 -0.374,0.631 -0.478,0.734 -0.558,0.813 -0.637,0.895 -0.717,0.973 -0.75,1.005 -0.791,1.027 -0.827,1.055 -0.928,1.135 -0.98,1.243 -1.049,1.354 -1.109,1.421 -1.141,1.41 -1.219,1.363 -1.321,1.302 -1.428,1.249 -1.529,1.183 -1.542,1.174 -1.633,1.125 -1.643,1.112 -1.675,1.073 -1.657,1.082 -1.638,1.04 -1.603,0.962 -1.557,0.93 -1.493,0.878 -1.425,0.822 -1.359,0.781 -1.28,0.749 -1.208,0.72 -1.139,0.723 -1.069,0.704 -0.966,0.676 -0.851,0.532 -0.777,0.46 -0.582,0.269 -0.702,0.057 -0.811,-0.148 -0.864,-0.249 -0.956,-0.333 -1.032,-0.417 -1.105,-0.499 -1.206,-0.532 -1.291,-0.598 -1.349,-0.644 -1.394,-0.69 -1.459,-0.726 -1.544,-0.773 -1.612,-0.83 -1.697,-0.869 c -0.085,-0.04 -0.069,-0.088 -0.027,-0.162 0.024,-0.044 0.046,-0.065 0.062,-0.111 0.019,-0.051 0.025,-0.11 0.042,-0.163 0.025,-0.08 0.056,-0.164 0.1,-0.236 0.046,-0.007 0.137,0.084 0.164,0.116 0.044,0.05 0.095,0.102 0.138,0.155 0.081,0.098 0.18,0.176 0.267,0.269 0.073,0.077 0.151,0.151 0.226,0.225 0.065,0.064 0.108,0.144 0.173,0.204 0.132,0.122 0.279,0.256 0.389,0.4 C -0.108,-0.101 -0.073,-0.053 0,0"
             style="fill:#110f0d;fill-opacity:1;fill-rule:nonzero;stroke:none"
             id="path303" />
        </g>
      </g>
    </g>
  </g>
</svg>
