<?xml version="1.0" encoding="UTF-8" standalone="no"?>
<!-- Created with Inkscape (http://www.inkscape.org/) -->

<svg
   width="25.958593"
   height="24"
   viewBox="0 0 6.8682112 6.3500001"
   version="1.1"
   id="svg10499"
   inkscape:version="1.2.1 (9c6d41e4, 2022-07-14)"
   sodipodi:docname="chilling_cold.svg"
   xmlns:inkscape="http://www.inkscape.org/namespaces/inkscape"
   xmlns:sodipodi="http://sodipodi.sourceforge.net/DTD/sodipodi-0.dtd"
   xmlns="http://www.w3.org/2000/svg"
   xmlns:svg="http://www.w3.org/2000/svg">
  <sodipodi:namedview
     id="namedview10501"
     pagecolor="#505050"
     bordercolor="#eeeeee"
     borderopacity="1"
     inkscape:showpageshadow="0"
     inkscape:pageopacity="0"
     inkscape:pagecheckerboard="0"
     inkscape:deskcolor="#505050"
     inkscape:document-units="mm"
     showgrid="false"
     inkscape:zoom="0.70199214"
     inkscape:cx="-290.60154"
     inkscape:cy="106.8388"
     inkscape:window-width="1390"
     inkscape:window-height="938"
     inkscape:window-x="0"
     inkscape:window-y="25"
     inkscape:window-maximized="0"
     inkscape:current-layer="layer1" />
  <defs
     id="defs10496">
    <clipPath
       clipPathUnits="userSpaceOnUse"
       id="clipPath1546">
      <path
         d="m 213.043,100.174 h 24.699 v 24.699 h -24.699 z"
         id="path1544" />
    </clipPath>
  </defs>
  <g
     inkscape:label="Layer 1"
     inkscape:groupmode="layer"
     id="layer1"
     transform="translate(-182.09099,-120.15433)">
    <g
       id="g1540"
       transform="matrix(0.36211551,0,0,-0.36211551,103.84769,163.45551)">
      <g
         id="g1542"
         clip-path="url(#clipPath1546)">
        <g
           id="g1548"
           transform="translate(217.281,119.234)">
          <path
             d="M 0,0 C 0.023,-0.009 0.044,-0.014 0.066,-0.018 0.064,-0.013 0.062,-0.008 0.061,-0.003 0.043,-0.002 0.023,0 0,0"
             style="fill:#231f20;fill-opacity:1;fill-rule:nonzero;stroke:none"
             id="path1550" />
        </g>
        <g
           id="g1552"
           transform="translate(217.281,119.234)">
          <path
             d="M 0,0 C 0.023,-0.009 0.044,-0.014 0.066,-0.018 0.064,-0.013 0.062,-0.008 0.061,-0.003 0.043,-0.002 0.023,0 0,0 Z"
             style="fill:none;stroke:#231f20;stroke-width:0.172;stroke-linecap:butt;stroke-linejoin:miter;stroke-miterlimit:10;stroke-dasharray:none;stroke-opacity:1"
             id="path1554" />
        </g>
        <g
           id="g1556"
           transform="translate(217.178,119.061)">
          <path
             d="m 0,0 c -0.006,0.009 -0.012,0.017 -0.019,0.026 -0.008,0.009 -0.039,0.021 -0.053,0.036 -0.03,0.03 -0.035,0.092 -0.075,0.117 -0.086,0.055 -0.294,-0.049 -0.258,0.129 -0.009,-0.089 -0.206,0.004 -0.264,0 -0.072,-0.006 -0.103,-0.05 -0.116,-0.105 -0.039,-0.179 0.054,-0.362 0.081,-0.535 0.014,-0.089 0.007,-0.176 0.032,-0.264 0.045,-0.157 0.097,-0.314 0.139,-0.471 0.086,-0.32 0.141,-0.643 0.24,-0.961 C -0.14,-2.522 0.052,-2.999 0.268,-3.472 0.392,-3.744 0.489,-4.023 0.6,-4.3 0.685,-4.513 0.797,-4.706 0.911,-4.906 1.028,-5.109 1.109,-5.319 1.203,-5.532 1.318,-5.794 1.456,-6.044 1.59,-6.297 1.782,-6.658 1.94,-7.032 2.119,-7.399 2.264,-7.695 2.431,-7.963 2.613,-8.24 c 0.496,-0.754 1.016,-1.501 1.471,-2.277 0.23,-0.393 0.431,-0.798 0.655,-1.193 0.234,-0.413 0.497,-0.812 0.754,-1.213 0.107,-0.166 0.23,-0.332 0.318,-0.51 0.016,-0.033 0.025,-0.064 0.031,-0.1 0.021,-0.117 0.028,-0.237 0.063,-0.352 0.04,-0.132 0.079,-0.238 0.081,-0.376 0,-0.074 -0.014,-0.152 0.003,-0.224 0.016,-0.065 0.062,-0.124 0.091,-0.184 0.102,-0.21 0.195,-0.388 0.345,-0.572 0.133,-0.163 0.222,-0.357 0.368,-0.512 0.062,-0.066 0.194,-0.202 0.308,-0.166 0.059,0.019 0.047,0.023 0.062,0.085 0.011,0.044 0.037,0.112 0.05,0.16 0.043,0.155 0.046,0.345 0.023,0.503 -0.03,0.212 -0.05,0.427 -0.1,0.636 -0.05,0.206 -0.153,0.393 -0.209,0.598 -0.035,0.129 -0.037,0.26 -0.052,0.392 -0.018,0.164 -0.082,0.311 -0.163,0.453 -0.143,0.248 -0.32,0.476 -0.445,0.734 -0.134,0.276 -0.327,0.518 -0.467,0.791 -0.064,0.126 -0.116,0.258 -0.187,0.381 -0.069,0.119 -0.151,0.231 -0.219,0.351 -0.072,0.128 -0.154,0.25 -0.224,0.378 -0.114,0.209 -0.239,0.43 -0.306,0.656 -0.029,0.099 -0.074,0.203 -0.156,0.273 -0.087,0.074 -0.172,0.132 -0.229,0.23 -0.033,0.056 -0.07,0.109 -0.106,0.163 -0.259,0.392 -0.372,0.864 -0.68,1.231 -0.074,0.088 -0.173,0.157 -0.232,0.256 -0.054,0.092 -0.078,0.202 -0.117,0.301 -0.075,0.194 -0.193,0.363 -0.289,0.547 -0.073,0.141 -0.136,0.282 -0.234,0.41 -0.128,0.168 -0.208,0.341 -0.282,0.536 -0.093,0.243 -0.215,0.472 -0.333,0.705 -0.102,0.2 -0.208,0.4 -0.294,0.605 -0.026,0.063 -0.053,0.127 -0.062,0.194 -0.004,0.028 0.002,0.06 -0.005,0.087 -0.015,0.058 -0.063,0.121 -0.091,0.175 -0.038,0.073 -0.076,0.147 -0.114,0.22 -0.287,0.554 -0.678,1.056 -0.939,1.622 -0.037,0.08 -0.08,0.158 -0.108,0.241 -0.035,0.099 -0.025,0.182 -0.034,0.282 -0.01,0.105 -0.052,0.212 -0.087,0.312 -0.023,0.065 -0.049,0.127 -0.082,0.186 -0.05,0.089 -0.114,0.169 -0.147,0.266 -0.09,0.264 0.002,0.581 -0.166,0.818 C 0.044,-0.093 0.029,-0.044 0,0"
             style="fill:#231f20;fill-opacity:1;fill-rule:nonzero;stroke:none"
             id="path1558" />
        </g>
        <g
           id="g1560"
           transform="translate(217.178,119.061)">
          <path
             d="m 0,0 c -0.006,0.009 -0.012,0.017 -0.019,0.026 -0.008,0.009 -0.039,0.021 -0.053,0.036 -0.03,0.03 -0.035,0.092 -0.075,0.117 -0.086,0.055 -0.294,-0.049 -0.258,0.129 -0.009,-0.089 -0.206,0.004 -0.264,0 -0.072,-0.006 -0.103,-0.05 -0.116,-0.105 -0.039,-0.179 0.054,-0.362 0.081,-0.535 0.014,-0.089 0.007,-0.176 0.032,-0.264 0.045,-0.157 0.097,-0.314 0.139,-0.471 0.086,-0.32 0.141,-0.643 0.24,-0.961 C -0.14,-2.522 0.052,-2.999 0.268,-3.472 0.392,-3.744 0.489,-4.023 0.6,-4.3 0.685,-4.513 0.797,-4.706 0.911,-4.906 1.028,-5.109 1.109,-5.319 1.203,-5.532 1.318,-5.794 1.456,-6.044 1.59,-6.297 1.782,-6.658 1.94,-7.032 2.119,-7.399 2.264,-7.695 2.431,-7.963 2.613,-8.24 c 0.496,-0.754 1.016,-1.501 1.471,-2.277 0.23,-0.393 0.431,-0.798 0.655,-1.193 0.234,-0.413 0.497,-0.812 0.754,-1.213 0.107,-0.166 0.23,-0.332 0.318,-0.51 0.016,-0.033 0.025,-0.064 0.031,-0.1 0.021,-0.117 0.028,-0.237 0.063,-0.352 0.04,-0.132 0.079,-0.238 0.081,-0.376 0,-0.074 -0.014,-0.152 0.003,-0.224 0.016,-0.065 0.062,-0.124 0.091,-0.184 0.102,-0.21 0.195,-0.388 0.345,-0.572 0.133,-0.163 0.222,-0.357 0.368,-0.512 0.062,-0.066 0.194,-0.202 0.308,-0.166 0.059,0.019 0.047,0.023 0.062,0.085 0.011,0.044 0.037,0.112 0.05,0.16 0.043,0.155 0.046,0.345 0.023,0.503 -0.03,0.212 -0.05,0.427 -0.1,0.636 -0.05,0.206 -0.153,0.393 -0.209,0.598 -0.035,0.129 -0.037,0.26 -0.052,0.392 -0.018,0.164 -0.082,0.311 -0.163,0.453 -0.143,0.248 -0.32,0.476 -0.445,0.734 -0.134,0.276 -0.327,0.518 -0.467,0.791 -0.064,0.126 -0.116,0.258 -0.187,0.381 -0.069,0.119 -0.151,0.231 -0.219,0.351 -0.072,0.128 -0.154,0.25 -0.224,0.378 -0.114,0.209 -0.239,0.43 -0.306,0.656 -0.029,0.099 -0.074,0.203 -0.156,0.273 -0.087,0.074 -0.172,0.132 -0.229,0.23 -0.033,0.056 -0.07,0.109 -0.106,0.163 -0.259,0.392 -0.372,0.864 -0.68,1.231 -0.074,0.088 -0.173,0.157 -0.232,0.256 -0.054,0.092 -0.078,0.202 -0.117,0.301 -0.075,0.194 -0.193,0.363 -0.289,0.547 -0.073,0.141 -0.136,0.282 -0.234,0.41 -0.128,0.168 -0.208,0.341 -0.282,0.536 -0.093,0.243 -0.215,0.472 -0.333,0.705 -0.102,0.2 -0.208,0.4 -0.294,0.605 -0.026,0.063 -0.053,0.127 -0.062,0.194 -0.004,0.028 0.002,0.06 -0.005,0.087 -0.015,0.058 -0.063,0.121 -0.091,0.175 -0.038,0.073 -0.076,0.147 -0.114,0.22 -0.287,0.554 -0.678,1.056 -0.939,1.622 -0.037,0.08 -0.08,0.158 -0.108,0.241 -0.035,0.099 -0.025,0.182 -0.034,0.282 -0.01,0.105 -0.052,0.212 -0.087,0.312 -0.023,0.065 -0.049,0.127 -0.082,0.186 -0.05,0.089 -0.114,0.169 -0.147,0.266 -0.09,0.264 0.002,0.581 -0.166,0.818 C 0.044,-0.093 0.029,-0.044 0,0 Z"
             style="fill:none;stroke:#231f20;stroke-width:0.172;stroke-linecap:butt;stroke-linejoin:miter;stroke-miterlimit:10;stroke-dasharray:none;stroke-opacity:1"
             id="path1562" />
        </g>
        <g
           id="g1564"
           transform="translate(234.821,118.091)">
          <path
             d="M 0,0 C -0.078,0.001 -0.103,0.049 -0.164,0.084 -0.259,0.137 -0.369,0.116 -0.458,0.187 -0.557,0.267 -0.669,0.352 -0.803,0.337 -0.845,0.332 -0.882,0.31 -0.925,0.308 -1.093,0.303 -1.276,0.409 -1.442,0.44 c -0.366,0.069 -0.743,0.057 -1.115,0.068 -0.644,0.019 -1.28,0.09 -1.92,0.152 -0.845,0.081 -1.687,0.077 -2.536,0.087 -0.97,0.013 -1.937,0.084 -2.904,0.137 -0.683,0.038 -1.367,0.063 -2.047,0.136 -0.64,0.068 -1.268,0.176 -1.914,0.182 -0.479,0.004 -0.967,-0.033 -1.444,0.009 -0.07,0.006 -0.133,0.017 -0.198,0.044 -0.205,0.085 -0.317,0.195 -0.548,0.125 -0.036,-0.032 -0.079,-0.047 -0.127,-0.046 -0.035,0.008 -0.07,0.006 -0.105,-0.005 -0.063,-0.017 -0.132,-0.069 -0.195,-0.091 -0.082,-0.029 -0.141,-0.02 -0.226,-0.029 -0.056,-0.006 -0.085,-0.002 -0.129,-0.042 -0.018,-0.026 -0.035,-0.053 -0.051,-0.081 -0.023,-0.004 -0.046,-0.009 -0.069,-0.015 -0.05,-0.115 0.269,-0.126 0.337,-0.159 0.176,-0.085 0.312,-0.244 0.506,-0.291 0.086,-0.021 0.169,-0.012 0.249,-0.053 0.108,-0.054 0.199,-0.091 0.319,-0.119 0.444,-0.107 0.912,-0.053 1.364,-0.049 0.408,0.003 0.788,-0.092 1.185,-0.163 0.22,-0.039 0.442,-0.018 0.664,-0.023 0.249,-0.005 0.498,-0.025 0.746,-0.042 0.25,-0.018 0.5,-0.013 0.751,-0.012 0.206,0 0.418,0.014 0.622,-0.015 0.169,-0.024 0.333,-0.074 0.504,-0.088 0.175,-0.014 0.352,-0.002 0.527,-0.016 0.291,-0.023 0.583,-0.049 0.874,-0.063 0.349,-0.017 0.7,-0.004 1.05,-0.005 0.385,0 0.769,0 1.154,0.002 0.372,0.001 0.732,-0.026 1.102,-0.056 0.615,-0.05 1.236,0.004 1.846,-0.104 0.05,-0.008 0.124,-0.042 0.174,-0.032 0.025,0.005 0.012,0.03 0.043,0.028 0.038,-0.003 0.064,-0.062 0.089,-0.083 0.112,-0.093 0.26,-0.084 0.399,-0.104 0.133,-0.019 0.229,-0.072 0.348,-0.125 0.042,-0.019 0.085,-0.031 0.128,-0.041 0.12,-0.027 0.251,-0.078 0.372,-0.036 0.042,0.015 0.081,0.044 0.129,0.031 0.061,-0.016 0.116,-0.099 0.151,-0.144 0.048,-0.062 0.078,-0.129 0.076,-0.206 -0.003,-0.105 -0.029,-0.193 -0.136,-0.244 -0.089,-0.042 -0.189,-0.063 -0.284,-0.091 -0.195,-0.058 -0.359,-0.219 -0.493,-0.356 -0.104,-0.106 -0.168,-0.23 -0.247,-0.352 -0.087,-0.134 -0.195,-0.254 -0.282,-0.387 -0.076,-0.117 -0.132,-0.238 -0.194,-0.362 -0.081,-0.163 -0.183,-0.314 -0.26,-0.478 -0.048,-0.101 -0.092,-0.2 -0.165,-0.287 -0.07,-0.083 -0.112,-0.19 -0.165,-0.284 -0.136,-0.246 -0.272,-0.492 -0.406,-0.739 -0.368,-0.674 -0.79,-1.321 -1.175,-1.986 -0.132,-0.228 -0.281,-0.448 -0.41,-0.677 -0.118,-0.208 -0.209,-0.424 -0.306,-0.641 -0.167,-0.378 -0.382,-0.732 -0.581,-1.096 -0.256,-0.466 -0.539,-0.918 -0.803,-1.38 -0.2,-0.351 -0.422,-0.687 -0.548,-1.07 -0.194,-0.594 -0.605,-1.109 -0.923,-1.65 -0.091,-0.154 -0.193,-0.302 -0.271,-0.463 -0.041,-0.085 -0.061,-0.21 -0.132,-0.278 -0.036,-0.033 -0.085,-0.033 -0.123,-0.06 -0.055,-0.039 -0.065,-0.114 -0.089,-0.173 -0.028,-0.068 -0.062,-0.132 -0.103,-0.193 -0.075,-0.113 -0.129,-0.235 -0.187,-0.357 -0.062,-0.13 -0.135,-0.255 -0.173,-0.395 -0.026,-0.094 -0.049,-0.184 -0.084,-0.276 -0.018,-0.049 -0.043,-0.099 -0.053,-0.15 -0.012,-0.064 0,-0.13 -0.007,-0.194 -0.008,-0.082 -0.028,-0.158 -0.026,-0.241 0.001,-0.064 0.005,-0.068 0.051,-0.109 0.055,-0.05 0.108,-0.058 0.177,-0.087 0.076,-0.031 0.101,0.007 0.16,0.051 0.084,0.062 0.165,0.109 0.24,0.184 0.065,0.065 0.151,0.12 0.2,0.198 0.033,0.053 0.058,0.115 0.102,0.161 0.027,0.027 0.062,0.031 0.087,0.051 0.048,0.038 0.079,0.091 0.125,0.131 0.041,0.036 0.097,0.048 0.114,0.104 0.015,0.049 0.009,0.105 0.026,0.158 0.025,0.08 0.037,0.164 0.066,0.243 0.046,0.123 0.143,0.237 0.219,0.345 0.081,0.116 0.178,0.23 0.24,0.356 0.05,0.101 0.09,0.207 0.152,0.303 0.079,0.122 0.181,0.229 0.243,0.361 0.029,0.061 0.068,0.122 0.095,0.183 0.029,0.067 0.036,0.144 0.055,0.214 0.036,0.133 0.063,0.271 0.112,0.4 0.064,0.168 0.131,0.319 0.154,0.496 0.01,0.078 0.019,0.1 0.061,0.174 0.059,0.101 0.107,0.214 0.15,0.322 0.1,0.251 0.252,0.473 0.391,0.708 0.21,0.353 0.487,0.668 0.686,1.027 0.216,0.389 0.514,0.714 0.782,1.071 0.124,0.167 0.241,0.341 0.362,0.51 0.095,0.132 0.178,0.274 0.229,0.426 0.078,0.232 0.208,0.425 0.34,0.633 0.098,0.156 0.203,0.3 0.314,0.449 0.143,0.191 0.249,0.393 0.347,0.606 0.155,0.336 0.339,0.66 0.462,1.006 0.081,0.226 0.214,0.433 0.332,0.643 0.055,0.107 0.116,0.212 0.184,0.312 0.065,0.08 0.131,0.16 0.196,0.24 0.32,0.42 0.621,0.853 0.897,1.299 0.107,0.173 0.22,0.367 0.372,0.51 0.045,0.042 0.101,0.071 0.145,0.112 0.029,0.027 0.051,0.059 0.072,0.091 0.124,0.197 0.229,0.408 0.333,0.614 0.069,0.136 0.193,0.293 0.22,0.443 0.017,0.097 -0.045,0.182 -0.033,0.277 C -0.396,-0.315 0.024,-0.236 0,0"
             style="fill:#231f20;fill-opacity:1;fill-rule:nonzero;stroke:none"
             id="path1566" />
        </g>
        <g
           id="g1568"
           transform="translate(234.821,118.091)">
          <path
             d="M 0,0 C -0.078,0.001 -0.103,0.049 -0.164,0.084 -0.259,0.137 -0.369,0.116 -0.458,0.187 -0.557,0.267 -0.669,0.352 -0.803,0.337 -0.845,0.332 -0.882,0.31 -0.925,0.308 -1.093,0.303 -1.276,0.409 -1.442,0.44 c -0.366,0.069 -0.743,0.057 -1.115,0.068 -0.644,0.019 -1.28,0.09 -1.92,0.152 -0.845,0.081 -1.687,0.077 -2.536,0.087 -0.97,0.013 -1.937,0.084 -2.904,0.137 -0.683,0.038 -1.367,0.063 -2.047,0.136 -0.64,0.068 -1.268,0.176 -1.914,0.182 -0.479,0.004 -0.967,-0.033 -1.444,0.009 -0.07,0.006 -0.133,0.017 -0.198,0.044 -0.205,0.085 -0.317,0.195 -0.548,0.125 -0.036,-0.032 -0.079,-0.047 -0.127,-0.046 -0.035,0.008 -0.07,0.006 -0.105,-0.005 -0.063,-0.017 -0.132,-0.069 -0.195,-0.091 -0.082,-0.029 -0.141,-0.02 -0.226,-0.029 -0.056,-0.006 -0.085,-0.002 -0.129,-0.042 -0.018,-0.026 -0.035,-0.053 -0.051,-0.081 -0.023,-0.004 -0.046,-0.009 -0.069,-0.015 -0.05,-0.115 0.269,-0.126 0.337,-0.159 0.176,-0.085 0.312,-0.244 0.506,-0.291 0.086,-0.021 0.169,-0.012 0.249,-0.053 0.108,-0.054 0.199,-0.091 0.319,-0.119 0.444,-0.107 0.912,-0.053 1.364,-0.049 0.408,0.003 0.788,-0.092 1.185,-0.163 0.22,-0.039 0.442,-0.018 0.664,-0.023 0.249,-0.005 0.498,-0.025 0.746,-0.042 0.25,-0.018 0.5,-0.013 0.751,-0.012 0.206,0 0.418,0.014 0.622,-0.015 0.169,-0.024 0.333,-0.074 0.504,-0.088 0.175,-0.014 0.352,-0.002 0.527,-0.016 0.291,-0.023 0.583,-0.049 0.874,-0.063 0.349,-0.017 0.7,-0.004 1.05,-0.005 0.385,0 0.769,0 1.154,0.002 0.372,0.001 0.732,-0.026 1.102,-0.056 0.615,-0.05 1.236,0.004 1.846,-0.104 0.05,-0.008 0.124,-0.042 0.174,-0.032 0.025,0.005 0.012,0.03 0.043,0.028 0.038,-0.003 0.064,-0.062 0.089,-0.083 0.112,-0.093 0.26,-0.084 0.399,-0.104 0.133,-0.019 0.229,-0.072 0.348,-0.125 0.042,-0.019 0.085,-0.031 0.128,-0.041 0.12,-0.027 0.251,-0.078 0.372,-0.036 0.042,0.015 0.081,0.044 0.129,0.031 0.061,-0.016 0.116,-0.099 0.151,-0.144 0.048,-0.062 0.078,-0.129 0.076,-0.206 -0.003,-0.105 -0.029,-0.193 -0.136,-0.244 -0.089,-0.042 -0.189,-0.063 -0.284,-0.091 -0.195,-0.058 -0.359,-0.219 -0.493,-0.356 -0.104,-0.106 -0.168,-0.23 -0.247,-0.352 -0.087,-0.134 -0.195,-0.254 -0.282,-0.387 -0.076,-0.117 -0.132,-0.238 -0.194,-0.362 -0.081,-0.163 -0.183,-0.314 -0.26,-0.478 -0.048,-0.101 -0.092,-0.2 -0.165,-0.287 -0.07,-0.083 -0.112,-0.19 -0.165,-0.284 -0.136,-0.246 -0.272,-0.492 -0.406,-0.739 -0.368,-0.674 -0.79,-1.321 -1.175,-1.986 -0.132,-0.228 -0.281,-0.448 -0.41,-0.677 -0.118,-0.208 -0.209,-0.424 -0.306,-0.641 -0.167,-0.378 -0.382,-0.732 -0.581,-1.096 -0.256,-0.466 -0.539,-0.918 -0.803,-1.38 -0.2,-0.351 -0.422,-0.687 -0.548,-1.07 -0.194,-0.594 -0.605,-1.109 -0.923,-1.65 -0.091,-0.154 -0.193,-0.302 -0.271,-0.463 -0.041,-0.085 -0.061,-0.21 -0.132,-0.278 -0.036,-0.033 -0.085,-0.033 -0.123,-0.06 -0.055,-0.039 -0.065,-0.114 -0.089,-0.173 -0.028,-0.068 -0.062,-0.132 -0.103,-0.193 -0.075,-0.113 -0.129,-0.235 -0.187,-0.357 -0.062,-0.13 -0.135,-0.255 -0.173,-0.395 -0.026,-0.094 -0.049,-0.184 -0.084,-0.276 -0.018,-0.049 -0.043,-0.099 -0.053,-0.15 -0.012,-0.064 0,-0.13 -0.007,-0.194 -0.008,-0.082 -0.028,-0.158 -0.026,-0.241 0.001,-0.064 0.005,-0.068 0.051,-0.109 0.055,-0.05 0.108,-0.058 0.177,-0.087 0.076,-0.031 0.101,0.007 0.16,0.051 0.084,0.062 0.165,0.109 0.24,0.184 0.065,0.065 0.151,0.12 0.2,0.198 0.033,0.053 0.058,0.115 0.102,0.161 0.027,0.027 0.062,0.031 0.087,0.051 0.048,0.038 0.079,0.091 0.125,0.131 0.041,0.036 0.097,0.048 0.114,0.104 0.015,0.049 0.009,0.105 0.026,0.158 0.025,0.08 0.037,0.164 0.066,0.243 0.046,0.123 0.143,0.237 0.219,0.345 0.081,0.116 0.178,0.23 0.24,0.356 0.05,0.101 0.09,0.207 0.152,0.303 0.079,0.122 0.181,0.229 0.243,0.361 0.029,0.061 0.068,0.122 0.095,0.183 0.029,0.067 0.036,0.144 0.055,0.214 0.036,0.133 0.063,0.271 0.112,0.4 0.064,0.168 0.131,0.319 0.154,0.496 0.01,0.078 0.019,0.1 0.061,0.174 0.059,0.101 0.107,0.214 0.15,0.322 0.1,0.251 0.252,0.473 0.391,0.708 0.21,0.353 0.487,0.668 0.686,1.027 0.216,0.389 0.514,0.714 0.782,1.071 0.124,0.167 0.241,0.341 0.362,0.51 0.095,0.132 0.178,0.274 0.229,0.426 0.078,0.232 0.208,0.425 0.34,0.633 0.098,0.156 0.203,0.3 0.314,0.449 0.143,0.191 0.249,0.393 0.347,0.606 0.155,0.336 0.339,0.66 0.462,1.006 0.081,0.226 0.214,0.433 0.332,0.643 0.055,0.107 0.116,0.212 0.184,0.312 0.065,0.08 0.131,0.16 0.196,0.24 0.32,0.42 0.621,0.853 0.897,1.299 0.107,0.173 0.22,0.367 0.372,0.51 0.045,0.042 0.101,0.071 0.145,0.112 0.029,0.027 0.051,0.059 0.072,0.091 0.124,0.197 0.229,0.408 0.333,0.614 0.069,0.136 0.193,0.293 0.22,0.443 0.017,0.097 -0.045,0.182 -0.033,0.277 C -0.396,-0.315 0.024,-0.236 0,0 Z"
             style="fill:none;stroke:#231f20;stroke-width:0.172;stroke-linecap:butt;stroke-linejoin:miter;stroke-miterlimit:10;stroke-dasharray:none;stroke-opacity:1"
             id="path1570" />
        </g>
        <g
           id="g1572"
           transform="translate(216.364,111.152)">
          <path
             d="m 0,0 c 0.016,0.096 0.11,0.18 0.176,0.244 0.126,0.122 0.248,0.239 0.365,0.37 0.163,0.184 0.349,0.33 0.54,0.485 0.34,0.277 0.701,0.506 1.069,0.745 0.094,0.061 0.187,0.125 0.279,0.189 0.036,0.026 0.089,0.05 0.115,0.086 0.007,0.01 10e-4,0.037 0.007,0.042 0.014,0.013 0.034,0.008 0.052,0.015 0.165,0.066 0.275,0.186 0.422,0.28 C 3.207,2.572 3.377,2.699 3.583,2.774 3.87,2.877 4.167,2.946 4.452,3.05 4.768,3.166 5.118,3.27 5.455,3.312 5.63,3.334 5.807,3.311 5.98,3.287 6.13,3.267 6.254,3.267 6.405,3.28 6.593,3.297 6.79,3.3 6.979,3.285 7.207,3.268 7.432,3.174 7.651,3.114 7.755,3.085 7.857,3.056 7.962,3.032 8.225,2.971 8.487,2.86 8.727,2.738 8.806,2.699 8.868,2.643 8.938,2.591 9.163,2.423 9.452,2.344 9.699,2.213 9.988,2.059 10.293,1.906 10.566,1.728 10.615,1.696 10.657,1.66 10.695,1.614 10.77,1.522 10.833,1.46 10.938,1.396 11.182,1.25 11.33,1.012 11.516,0.808 11.577,0.741 11.653,0.678 11.733,0.633 11.791,0.601 11.858,0.588 11.915,0.555 11.97,0.523 12.012,0.478 12.064,0.442 12.101,0.416 12.155,0.397 12.18,0.357 12.323,0.132 11.829,-0.028 11.671,0.038 11.561,0.084 11.493,0.191 11.407,0.267 11.32,0.345 11.204,0.379 11.094,0.417 10.978,0.457 10.877,0.517 10.77,0.575 10.623,0.654 10.471,0.723 10.322,0.799 10.125,0.898 9.934,1.005 9.734,1.097 9.398,1.251 9.085,1.454 8.748,1.602 8.392,1.758 8.001,1.816 7.648,1.976 7.409,2.085 7.206,2.256 6.954,2.339 6.537,2.475 6.102,2.43 5.671,2.43 5.569,2.43 5.463,2.437 5.36,2.433 5.175,2.426 4.994,2.343 4.819,2.293 4.711,2.261 4.601,2.236 4.494,2.204 4.308,2.149 4.161,2.031 3.989,1.949 3.683,1.804 3.313,1.715 3.048,1.496 2.948,1.414 2.868,1.327 2.759,1.255 2.718,1.228 2.679,1.195 2.643,1.163 2.413,0.96 2.195,0.745 1.989,0.52 1.901,0.425 1.814,0.334 1.749,0.223 1.726,0.184 1.703,0.151 1.67,0.119 1.482,-0.058 1.25,-0.207 1.043,-0.362 0.879,-0.485 0.719,-0.649 0.501,-0.659 0.361,-0.666 0.195,-0.574 0.09,-0.486 c -0.082,0.068 -0.174,0.125 -0.225,0.217 -0.044,0.079 -0.071,0.137 -0.07,0.226 0,0.071 -0.013,0.25 0.205,0.043"
             style="fill:#231f20;fill-opacity:1;fill-rule:nonzero;stroke:none"
             id="path1574" />
        </g>
        <g
           id="g1576"
           transform="translate(216.364,111.152)">
          <path
             d="m 0,0 c 0.016,0.096 0.11,0.18 0.176,0.244 0.126,0.122 0.248,0.239 0.365,0.37 0.163,0.184 0.349,0.33 0.54,0.485 0.34,0.277 0.701,0.506 1.069,0.745 0.094,0.061 0.187,0.125 0.279,0.189 0.036,0.026 0.089,0.05 0.115,0.086 0.007,0.01 10e-4,0.037 0.007,0.042 0.014,0.013 0.034,0.008 0.052,0.015 0.165,0.066 0.275,0.186 0.422,0.28 C 3.207,2.572 3.377,2.699 3.583,2.774 3.87,2.877 4.167,2.946 4.452,3.05 4.768,3.166 5.118,3.27 5.455,3.312 5.63,3.334 5.807,3.311 5.98,3.287 6.13,3.267 6.254,3.267 6.405,3.28 6.593,3.297 6.79,3.3 6.979,3.285 7.207,3.268 7.432,3.174 7.651,3.114 7.755,3.085 7.857,3.056 7.962,3.032 8.225,2.971 8.487,2.86 8.727,2.738 8.806,2.699 8.868,2.643 8.938,2.591 9.163,2.423 9.452,2.344 9.699,2.213 9.988,2.059 10.293,1.906 10.566,1.728 10.615,1.696 10.657,1.66 10.695,1.614 10.77,1.522 10.833,1.46 10.938,1.396 11.182,1.25 11.33,1.012 11.516,0.808 11.577,0.741 11.653,0.678 11.733,0.633 11.791,0.601 11.858,0.588 11.915,0.555 11.97,0.523 12.012,0.478 12.064,0.442 12.101,0.416 12.155,0.397 12.18,0.357 12.323,0.132 11.829,-0.028 11.671,0.038 11.561,0.084 11.493,0.191 11.407,0.267 11.32,0.345 11.204,0.379 11.094,0.417 10.978,0.457 10.877,0.517 10.77,0.575 10.623,0.654 10.471,0.723 10.322,0.799 10.125,0.898 9.934,1.005 9.734,1.097 9.398,1.251 9.085,1.454 8.748,1.602 8.392,1.758 8.001,1.816 7.648,1.976 7.409,2.085 7.206,2.256 6.954,2.339 6.537,2.475 6.102,2.43 5.671,2.43 5.569,2.43 5.463,2.437 5.36,2.433 5.175,2.426 4.994,2.343 4.819,2.293 4.711,2.261 4.601,2.236 4.494,2.204 4.308,2.149 4.161,2.031 3.989,1.949 3.683,1.804 3.313,1.715 3.048,1.496 2.948,1.414 2.868,1.327 2.759,1.255 2.718,1.228 2.679,1.195 2.643,1.163 2.413,0.96 2.195,0.745 1.989,0.52 1.901,0.425 1.814,0.334 1.749,0.223 1.726,0.184 1.703,0.151 1.67,0.119 1.482,-0.058 1.25,-0.207 1.043,-0.362 0.879,-0.485 0.719,-0.649 0.501,-0.659 0.361,-0.666 0.195,-0.574 0.09,-0.486 c -0.082,0.068 -0.174,0.125 -0.225,0.217 -0.044,0.079 -0.071,0.137 -0.07,0.226 0,0.071 -0.013,0.25 0.205,0.043 z"
             style="fill:none;stroke:#231f20;stroke-width:0.172;stroke-linecap:butt;stroke-linejoin:miter;stroke-miterlimit:10;stroke-dasharray:none;stroke-opacity:1"
             id="path1578" />
        </g>
        <g
           id="g1580"
           transform="translate(223.534,111.752)">
          <path
             d="M 0,0 C 0.074,0.015 0.133,-0.018 0.2,-0.046 0.382,-0.123 0.566,-0.195 0.748,-0.274 1.365,-0.54 1.974,-0.83 2.587,-1.106 2.69,-1.154 2.792,-1.201 2.895,-1.249 c 0.209,-0.11 0.419,-0.218 0.631,-0.323 0.294,-0.112 0.588,-0.094 0.897,-0.089 0.249,0.004 0.501,0.007 0.75,0.025 0.428,0.033 0.833,0.173 1.244,0.29 0.361,0.103 0.726,0.199 1.079,0.326 0.211,0.076 0.419,0.162 0.63,0.239 0.409,0.149 0.833,0.245 1.224,0.438 0.232,0.115 0.471,0.231 0.716,0.315 0.221,0.076 0.397,0.289 0.549,0.459 0.055,0.062 0.116,0.128 0.175,0.186 0.021,0.021 0.014,0.032 0.043,0.043 0.069,0.024 0.131,-0.012 0.179,-0.051 C 11.04,0.587 11.074,0.563 11.099,0.538 11.149,0.49 11.165,0.429 11.205,0.376 11.26,0.304 11.365,0.264 11.402,0.173 11.451,0.053 11.385,-0.131 11.324,-0.232 11.267,-0.325 11.16,-0.375 11.076,-0.437 10.969,-0.516 10.87,-0.598 10.773,-0.689 10.666,-0.789 10.566,-0.888 10.441,-0.965 10.279,-1.067 10.096,-1.13 9.923,-1.209 9.553,-1.379 9.184,-1.541 8.801,-1.681 8.593,-1.758 8.385,-1.828 8.181,-1.918 7.971,-2.01 7.768,-2.117 7.558,-2.208 7.265,-2.335 6.949,-2.385 6.652,-2.501 6.365,-2.612 6.096,-2.71 5.789,-2.746 5.557,-2.773 5.32,-2.783 5.086,-2.796 4.816,-2.812 4.546,-2.806 4.282,-2.738 4.065,-2.683 3.858,-2.623 3.648,-2.545 3.513,-2.494 3.375,-2.457 3.238,-2.411 3.095,-2.363 2.965,-2.292 2.825,-2.235 2.647,-2.164 2.5,-2.054 2.335,-1.956 2.165,-1.855 1.991,-1.787 1.838,-1.66 1.744,-1.582 1.657,-1.486 1.545,-1.432 1.441,-1.383 1.32,-1.36 1.212,-1.322 1.062,-1.27 0.925,-1.19 0.773,-1.143 0.602,-1.089 0.429,-1.05 0.257,-1.002 c -0.167,0.047 -0.311,0.171 -0.482,0.197 -0.09,0.014 -0.175,0.029 -0.264,0.048 -0.106,0.022 -0.213,0.014 -0.321,0.014 h -0.225 c -0.062,0 -0.196,-0.027 -0.253,-0.002 -0.031,0.013 -0.018,0.003 -0.029,0.028 0.002,0.021 0.003,0.042 0.004,0.064 -0.004,0.037 -0.012,0.074 -0.024,0.11 -0.015,0.076 -0.006,0.157 -0.007,0.235 0,0.031 -0.008,0.078 -10e-4,0.109 0.015,0.073 0.111,0.145 0.163,0.187 0.122,0.099 0.278,0.129 0.432,0.127 0.168,-0.002 0.336,-0.001 0.503,-0.001 0.115,0 0.225,0.007 0.335,-0.021 C 0.155,0.075 0.16,0.053 0.207,0.007 0.248,-0.032 0.327,-0.058 0,0"
             style="fill:#231f20;fill-opacity:1;fill-rule:nonzero;stroke:none"
             id="path1582" />
        </g>
        <g
           id="g1584"
           transform="translate(223.534,111.752)">
          <path
             d="M 0,0 C 0.074,0.015 0.133,-0.018 0.2,-0.046 0.382,-0.123 0.566,-0.195 0.748,-0.274 1.365,-0.54 1.974,-0.83 2.587,-1.106 2.69,-1.154 2.792,-1.201 2.895,-1.249 c 0.209,-0.11 0.419,-0.218 0.631,-0.323 0.294,-0.112 0.588,-0.094 0.897,-0.089 0.249,0.004 0.501,0.007 0.75,0.025 0.428,0.033 0.833,0.173 1.244,0.29 0.361,0.103 0.726,0.199 1.079,0.326 0.211,0.076 0.419,0.162 0.63,0.239 0.409,0.149 0.833,0.245 1.224,0.438 0.232,0.115 0.471,0.231 0.716,0.315 0.221,0.076 0.397,0.289 0.549,0.459 0.055,0.062 0.116,0.128 0.175,0.186 0.021,0.021 0.014,0.032 0.043,0.043 0.069,0.024 0.131,-0.012 0.179,-0.051 C 11.04,0.587 11.074,0.563 11.099,0.538 11.149,0.49 11.165,0.429 11.205,0.376 11.26,0.304 11.365,0.264 11.402,0.173 11.451,0.053 11.385,-0.131 11.324,-0.232 11.267,-0.325 11.16,-0.375 11.076,-0.437 10.969,-0.516 10.87,-0.598 10.773,-0.689 10.666,-0.789 10.566,-0.888 10.441,-0.965 10.279,-1.067 10.096,-1.13 9.923,-1.209 9.553,-1.379 9.184,-1.541 8.801,-1.681 8.593,-1.758 8.385,-1.828 8.181,-1.918 7.971,-2.01 7.768,-2.117 7.558,-2.208 7.265,-2.335 6.949,-2.385 6.652,-2.501 6.365,-2.612 6.096,-2.71 5.789,-2.746 5.557,-2.773 5.32,-2.783 5.086,-2.796 4.816,-2.812 4.546,-2.806 4.282,-2.738 4.065,-2.683 3.858,-2.623 3.648,-2.545 3.513,-2.494 3.375,-2.457 3.238,-2.411 3.095,-2.363 2.965,-2.292 2.825,-2.235 2.647,-2.164 2.5,-2.054 2.335,-1.956 2.165,-1.855 1.991,-1.787 1.838,-1.66 1.744,-1.582 1.657,-1.486 1.545,-1.432 1.441,-1.383 1.32,-1.36 1.212,-1.322 1.062,-1.27 0.925,-1.19 0.773,-1.143 0.602,-1.089 0.429,-1.05 0.257,-1.002 c -0.167,0.047 -0.311,0.171 -0.482,0.197 -0.09,0.014 -0.175,0.029 -0.264,0.048 -0.106,0.022 -0.213,0.014 -0.321,0.014 h -0.225 c -0.062,0 -0.196,-0.027 -0.253,-0.002 -0.031,0.013 -0.018,0.003 -0.029,0.028 0.002,0.021 0.003,0.042 0.004,0.064 -0.004,0.037 -0.012,0.074 -0.024,0.11 -0.015,0.076 -0.006,0.157 -0.007,0.235 0,0.031 -0.008,0.078 -10e-4,0.109 0.015,0.073 0.111,0.145 0.163,0.187 0.122,0.099 0.278,0.129 0.432,0.127 0.168,-0.002 0.336,-0.001 0.503,-0.001 0.115,0 0.225,0.007 0.335,-0.021 C 0.155,0.075 0.16,0.053 0.207,0.007 0.248,-0.032 0.327,-0.058 0,0 Z"
             style="fill:none;stroke:#231f20;stroke-width:0.172;stroke-linecap:butt;stroke-linejoin:miter;stroke-miterlimit:10;stroke-dasharray:none;stroke-opacity:1"
             id="path1586" />
        </g>
        <g
           id="g1588"
           transform="translate(219.652,115.305)">
          <path
             d="M 0,0 C 0.056,0.002 0.111,0.006 0.163,0.005 0.327,0.002 0.458,0.043 0.604,0.115 0.744,0.184 0.893,0.3 1.055,0.312 1.124,0.317 1.185,0.275 1.251,0.264 1.281,0.258 1.31,0.259 1.34,0.261 1.505,0.273 1.679,0.309 1.839,0.352 2.012,0.399 2.177,0.47 2.349,0.52 2.766,0.64 3.149,0.554 3.562,0.492 3.858,0.447 4.151,0.396 4.43,0.283 4.615,0.208 4.784,0.096 4.964,0.011 5.065,-0.037 5.167,-0.08 5.268,-0.128 5.508,-0.243 5.744,-0.365 5.985,-0.48 6.233,-0.598 6.471,-0.744 6.727,-0.846 6.941,-0.932 7.158,-1.024 7.381,-1.089 7.653,-1.168 7.929,-1.203 8.21,-1.232 c 0.462,-0.047 0.96,-0.102 1.416,0.003 0.162,0.037 0.286,0.074 0.411,0.185 0.029,0.026 0.063,0.066 0.065,0.107 0.002,0.061 -0.052,0.091 -0.081,0.14 C 9.967,-0.705 9.937,-0.592 9.864,-0.516 9.821,-0.471 9.827,-0.482 9.779,-0.501 9.668,-0.543 9.576,-0.568 9.449,-0.566 9.15,-0.563 8.843,-0.601 8.554,-0.51 8.32,-0.436 8.107,-0.31 7.889,-0.198 7.742,-0.124 7.588,-0.07 7.438,-0.005 7.345,0.035 7.247,0.071 7.152,0.107 6.936,0.19 6.713,0.276 6.504,0.375 6.415,0.417 6.324,0.456 6.237,0.503 6.105,0.575 5.984,0.666 5.841,0.716 5.588,0.806 5.333,0.888 5.077,0.97 4.828,1.05 4.588,1.15 4.332,1.207 4.084,1.263 3.833,1.34 3.578,1.348 3.359,1.356 3.139,1.35 2.919,1.35 2.727,1.35 2.539,1.357 2.35,1.328 2.262,1.315 2.174,1.323 2.087,1.305 2.006,1.288 1.929,1.255 1.847,1.241 1.638,1.206 1.442,1.154 1.239,1.091 0.972,1.009 0.743,0.813 0.465,0.773 0.376,0.76 0.292,0.761 0.213,0.711 0.009,0.584 -0.213,0.26 -0.175,0.012 -0.12,-0.001 -0.06,-0.002 0,0"
             style="fill:#231f20;fill-opacity:1;fill-rule:nonzero;stroke:none"
             id="path1590" />
        </g>
        <g
           id="g1592"
           transform="translate(219.652,115.305)">
          <path
             d="M 0,0 C 0.056,0.002 0.111,0.006 0.163,0.005 0.327,0.002 0.458,0.043 0.604,0.115 0.744,0.184 0.893,0.3 1.055,0.312 1.124,0.317 1.185,0.275 1.251,0.264 1.281,0.258 1.31,0.259 1.34,0.261 1.505,0.273 1.679,0.309 1.839,0.352 2.012,0.399 2.177,0.47 2.349,0.52 2.766,0.64 3.149,0.554 3.562,0.492 3.858,0.447 4.151,0.396 4.43,0.283 4.615,0.208 4.784,0.096 4.964,0.011 5.065,-0.037 5.167,-0.08 5.268,-0.128 5.508,-0.243 5.744,-0.365 5.985,-0.48 6.233,-0.598 6.471,-0.744 6.727,-0.846 6.941,-0.932 7.158,-1.024 7.381,-1.089 7.653,-1.168 7.929,-1.203 8.21,-1.232 c 0.462,-0.047 0.96,-0.102 1.416,0.003 0.162,0.037 0.286,0.074 0.411,0.185 0.029,0.026 0.063,0.066 0.065,0.107 0.002,0.061 -0.052,0.091 -0.081,0.14 C 9.967,-0.705 9.937,-0.592 9.864,-0.516 9.821,-0.471 9.827,-0.482 9.779,-0.501 9.668,-0.543 9.576,-0.568 9.449,-0.566 9.15,-0.563 8.843,-0.601 8.554,-0.51 8.32,-0.436 8.107,-0.31 7.889,-0.198 7.742,-0.124 7.588,-0.07 7.438,-0.005 7.345,0.035 7.247,0.071 7.152,0.107 6.936,0.19 6.713,0.276 6.504,0.375 6.415,0.417 6.324,0.456 6.237,0.503 6.105,0.575 5.984,0.666 5.841,0.716 5.588,0.806 5.333,0.888 5.077,0.97 4.828,1.05 4.588,1.15 4.332,1.207 4.084,1.263 3.833,1.34 3.578,1.348 3.359,1.356 3.139,1.35 2.919,1.35 2.727,1.35 2.539,1.357 2.35,1.328 2.262,1.315 2.174,1.323 2.087,1.305 2.006,1.288 1.929,1.255 1.847,1.241 1.638,1.206 1.442,1.154 1.239,1.091 0.972,1.009 0.743,0.813 0.465,0.773 0.376,0.76 0.292,0.761 0.213,0.711 0.009,0.584 -0.213,0.26 -0.175,0.012 -0.12,-0.001 -0.06,-0.002 0,0 Z"
             style="fill:none;stroke:#231f20;stroke-width:0.172;stroke-linecap:butt;stroke-linejoin:miter;stroke-miterlimit:10;stroke-dasharray:none;stroke-opacity:1"
             id="path1594" />
        </g>
      </g>
    </g>
  </g>
</svg>
