<?xml version="1.0" encoding="UTF-8" standalone="no"?>
<!-- Created with Inkscape (http://www.inkscape.org/) -->

<svg
   width="18.36977"
   height="24"
   viewBox="0 0 4.8603349 6.3500001"
   version="1.1"
   id="svg12189"
   inkscape:version="1.2.1 (9c6d41e4, 2022-07-14)"
   sodipodi:docname="cult_of_umordhoth.svg"
   xmlns:inkscape="http://www.inkscape.org/namespaces/inkscape"
   xmlns:sodipodi="http://sodipodi.sourceforge.net/DTD/sodipodi-0.dtd"
   xmlns="http://www.w3.org/2000/svg"
   xmlns:svg="http://www.w3.org/2000/svg">
  <sodipodi:namedview
     id="namedview12191"
     pagecolor="#505050"
     bordercolor="#eeeeee"
     borderopacity="1"
     inkscape:showpageshadow="0"
     inkscape:pageopacity="0"
     inkscape:pagecheckerboard="0"
     inkscape:deskcolor="#505050"
     inkscape:document-units="mm"
     showgrid="false"
     inkscape:zoom="0.70199214"
     inkscape:cx="31.339382"
     inkscape:cy="-89.744595"
     inkscape:window-width="1390"
     inkscape:window-height="938"
     inkscape:window-x="0"
     inkscape:window-y="25"
     inkscape:window-maximized="0"
     inkscape:current-layer="layer1" />
  <defs
     id="defs12186">
    <clipPath
       clipPathUnits="userSpaceOnUse"
       id="clipPath2926">
      <path
         d="m 464.933,209.901 h 24.7 V 234.6 h -24.7 z"
         id="path2924" />
    </clipPath>
  </defs>
  <g
     inkscape:label="Layer 1"
     inkscape:groupmode="layer"
     id="layer1"
     transform="translate(-96.914252,-172.25546)">
    <g
       id="g2920"
       transform="matrix(0.33122628,0,0,-0.33122628,-58.824421,248.99251)">
      <g
         id="g2922"
         clip-path="url(#clipPath2926)">
        <g
           id="g2928"
           transform="translate(480.645,224.529)">
          <path
             d="M 0,0 C 0.006,0.003 0.012,0.006 0.019,0.009 0.091,0.04 0.164,0.051 0.242,0.065 0.248,0.067 0.254,0.068 0.26,0.069 Z M 2.64,0.02 C 2.601,0.052 2.555,0.076 2.515,0.108 2.47,0.144 2.436,0.192 2.392,0.229 2.347,0.268 2.286,0.289 2.233,0.316 2.156,0.355 2.078,0.399 1.995,0.423 1.928,0.442 1.854,0.447 1.785,0.458 1.697,0.473 1.61,0.495 1.52,0.495 1.337,0.496 1.157,0.543 0.974,0.54 0.815,0.538 0.654,0.521 0.494,0.514 0.305,0.505 0.128,0.53 -0.062,0.496 -0.216,0.468 -0.332,0.435 -0.467,0.351 -0.525,0.315 -0.589,0.284 -0.643,0.243 -0.72,0.184 -0.78,0.102 -0.849,0.034 -0.913,-0.028 -0.986,-0.075 -1.053,-0.133 -1.13,-0.201 -1.195,-0.284 -1.264,-0.36 c -0.05,-0.057 -0.116,-0.109 -0.162,-0.171 -0.007,0.011 -0.012,-0.017 -0.038,-0.042 -0.022,-0.022 -0.048,-0.019 -0.068,-0.035 -0.031,-0.024 -0.004,-0.069 0.024,-0.094 0.033,-0.029 0.097,-0.07 0.134,-0.091 0.036,-0.02 0.056,-0.026 0.091,-0.06 0.019,-0.018 0.057,-0.071 0.082,-0.085 0.03,-0.017 0.047,-0.005 0.076,-0.012 0.036,-0.009 0.072,-0.045 0.107,-0.061 0.095,-0.044 0.195,-0.087 0.301,-0.077 0.068,0.005 0.147,-10e-4 0.212,0.022 0.041,0.015 0.066,0.049 0.104,0.067 0.103,0.05 0.243,-0.041 0.353,-0.04 0.145,0.002 0.29,-0.005 0.434,0 0.049,10e-4 0.077,0.019 0.122,0.026 0.033,0.006 0.067,-0.004 0.1,10e-4 0.056,0.01 0.117,0.039 0.172,0.059 0.066,0.024 0.103,0.047 0.171,0.064 0.059,0.014 0.107,0.022 0.17,0.022 0.151,-0.001 0.302,0 0.453,0 0.111,0 0.272,-0.028 0.321,0.085 0.025,0.056 0.05,0.111 0.084,0.164 0.026,0.043 0.066,0.1 0.1,0.135 0.048,0.05 0.114,0.051 0.155,0.111 0.036,0.053 0.056,0.113 0.125,0.132 0.047,0.012 0.094,-0.01 0.142,-0.004 0.028,0.004 0.05,0.015 0.074,0.03 0.033,0.019 0.161,0.089 0.163,0.13 0.002,0.045 -0.069,0.08 -0.098,0.104"
             style="fill:#231f20;fill-opacity:1;fill-rule:nonzero;stroke:none"
             id="path2930" />
        </g>
        <g
           id="g2932"
           transform="translate(479.181,219.456)">
          <path
             d="M 0,0 C -0.004,0.102 -0.015,0.21 -0.073,0.296 -0.135,0.389 -0.244,0.451 -0.342,0.498 -0.38,0.517 -0.417,0.535 -0.46,0.515 -0.501,0.494 -0.503,0.454 -0.534,0.424 -0.562,0.396 -0.603,0.385 -0.634,0.363 -0.664,0.341 -0.686,0.312 -0.719,0.294 -0.783,0.26 -0.869,0.264 -0.937,0.233 -1.024,0.194 -1.078,0.147 -1.18,0.144 -1.239,0.142 -1.299,0.144 -1.357,0.145 -1.503,0.149 -1.689,0.168 -1.81,0.26 -1.986,0.394 -2.166,0.659 -2.409,0.633 -2.474,0.626 -2.564,0.582 -2.629,0.598 c -0.027,0.006 -0.037,0.011 -0.048,0.037 -0.044,0.1 0.095,0.273 0.122,0.366 0.035,0.125 0.082,0.232 0.134,0.35 0.073,0.168 0.157,0.314 0.257,0.469 0.116,0.181 0.194,0.37 0.285,0.565 0.087,0.189 0.166,0.368 0.223,0.569 0.083,0.293 0.132,0.59 0.169,0.893 0.044,0.362 0.102,0.722 0.165,1.081 0.028,0.157 0.035,0.317 0.061,0.475 0.004,0.025 0.004,0.096 0.022,0.114 0.014,0.014 0.044,0.005 0.061,0.017 0.015,0.012 0.009,0.023 0.018,0.039 0.035,0.06 0.036,0.175 0.052,0.244 0.039,0.167 0.085,0.332 0.144,0.493 0.083,0.226 0.149,0.461 0.185,0.699 0.035,0.23 0.1,0.456 0.131,0.685 0.003,0.021 0.032,0.235 -0.024,0.232 C -0.717,7.924 -0.686,7.889 -0.705,7.871 -0.741,7.837 -0.791,7.814 -0.829,7.779 -0.958,7.664 -1.058,7.548 -1.138,7.393 -1.189,7.294 -1.228,7.192 -1.275,7.091 -1.325,6.983 -1.396,6.872 -1.433,6.76 -1.454,6.699 -1.453,6.644 -1.475,6.581 -1.527,6.43 -1.614,6.285 -1.656,6.132 -1.68,6.047 -1.668,5.967 -1.676,5.879 -1.689,5.733 -1.728,5.596 -1.779,5.46 -1.825,5.338 -1.88,5.219 -1.918,5.094 -1.951,4.983 -1.956,4.87 -1.984,4.759 -2.015,4.635 -2.074,4.521 -2.104,4.397 -2.133,4.279 -2.147,4.159 -2.177,4.041 -2.292,3.603 -2.446,3.185 -2.627,2.771 -2.757,2.474 -2.874,2.166 -2.947,1.85 -2.969,1.754 -2.969,1.654 -2.99,1.558 -3.001,1.51 -3.02,1.464 -3.042,1.419 -3.164,1.175 -3.317,0.954 -3.394,0.688 -3.442,0.526 -3.459,0.379 -3.554,0.234 -3.608,0.152 -3.671,0.088 -3.749,0.029 c -0.094,-0.072 -0.193,-0.147 -0.272,-0.236 -0.101,-0.113 -0.12,-0.27 -0.209,-0.388 -0.089,-0.119 -0.213,-0.193 -0.239,-0.354 -0.008,-0.05 0.003,-0.043 0.05,-0.049 0.098,-0.012 0.193,-0.008 0.274,0.04 0.09,0.055 0.16,0.109 0.231,0.19 0.059,0.067 0.135,0.082 0.205,0.134 0.065,0.05 0.127,0.093 0.208,0.116 0.078,0.023 0.125,0.058 0.197,0.095 0.081,0.04 0.173,0.025 0.26,0.026 0.145,0.002 0.286,-0.065 0.43,-0.087 0.116,-0.018 0.221,-0.098 0.316,-0.165 0.091,-0.064 0.24,-0.175 0.345,-0.182 0.06,-0.003 0.079,0.047 0.135,0.064 0.044,0.012 0.1,0.006 0.147,0.019 0.094,0.027 0.174,0.078 0.263,0.116 0.082,0.035 0.156,0.092 0.241,0.114 0.11,0.028 0.217,0.036 0.329,0.035 0.104,0 0.228,-0.015 0.33,0.006 0.047,0.01 0.087,0.038 0.134,0.048 0.044,0.01 0.09,0.006 0.135,0.014 0.158,0.03 0.244,0.249 0.24,0.394 C 0.001,-0.014 0,-0.007 0,0"
             style="fill:#231f20;fill-opacity:1;fill-rule:nonzero;stroke:none"
             id="path2934" />
        </g>
        <g
           id="g2936"
           transform="translate(482.573,230.839)">
          <path
             d="M 0,0 C -0.032,0.035 -0.069,0.086 -0.114,0.033 -0.147,0.059 -0.172,0.093 -0.202,0.122 -0.244,0.163 -0.292,0.178 -0.339,0.211 -0.416,0.266 -0.461,0.32 -0.553,0.348 -0.644,0.377 -0.735,0.414 -0.824,0.449 -0.96,0.503 -1.117,0.509 -1.261,0.5 -1.306,0.497 -1.351,0.483 -1.396,0.487 -1.423,0.488 -1.447,0.497 -1.472,0.506 -1.596,0.552 -1.716,0.608 -1.84,0.652 -2.03,0.72 -2.213,0.772 -2.414,0.775 -2.546,0.778 -2.678,0.809 -2.809,0.821 -2.913,0.831 -3.017,0.826 -3.121,0.826 -3.3,0.827 -3.495,0.848 -3.672,0.828 -3.784,0.815 -3.92,0.797 -4.022,0.751 -4.118,0.708 -4.226,0.657 -4.326,0.63 -4.408,0.608 -4.477,0.614 -4.555,0.644 -4.778,0.728 -4.968,0.672 -5.193,0.616 -5.344,0.578 -5.494,0.56 -5.649,0.543 -5.952,0.508 -6.258,0.434 -6.557,0.367 -6.82,0.309 -7.075,0.224 -7.34,0.174 -7.572,0.132 -7.763,-0.021 -7.996,-0.055 -8.089,-0.068 -8.166,-0.067 -8.252,-0.107 -8.365,-0.158 -8.46,-0.238 -8.57,-0.294 -8.668,-0.345 -8.772,-0.375 -8.863,-0.44 c -0.106,-0.075 -0.208,-0.168 -0.305,-0.252 -0.258,-0.224 -0.507,-0.46 -0.748,-0.704 -0.099,-0.101 -0.195,-0.211 -0.326,-0.266 -0.118,-0.049 -0.174,-0.165 -0.236,-0.271 -0.206,-0.354 -0.409,-0.719 -0.671,-1.034 -0.252,-0.304 -0.468,-0.632 -0.629,-0.996 -0.056,-0.126 -0.104,-0.253 -0.142,-0.386 -0.037,-0.127 -0.105,-0.235 -0.145,-0.359 -0.054,-0.161 -0.031,-0.351 -0.051,-0.518 -0.012,-0.103 -0.053,-0.203 -0.056,-0.307 -10e-4,-0.029 0.004,-0.058 0.002,-0.087 -0.009,-0.102 -0.036,-0.203 -0.044,-0.305 -0.018,-0.216 -0.011,-0.432 -0.015,-0.648 -0.005,-0.297 -0.02,-0.593 -0.025,-0.89 -0.004,-0.227 -0.011,-0.45 -0.037,-0.676 -0.051,-0.448 -0.101,-0.898 -0.093,-1.349 0.004,-0.256 0.049,-0.511 0.078,-0.765 0.028,-0.251 0.067,-0.494 0.124,-0.74 0.116,-0.503 0.291,-1 0.454,-1.489 0.149,-0.448 0.274,-0.905 0.429,-1.349 0.103,-0.295 0.22,-0.575 0.347,-0.859 0.047,-0.105 0.109,-0.197 0.163,-0.299 0.05,-0.093 0.096,-0.205 0.169,-0.285 0.069,-0.077 0.14,-0.138 0.202,-0.223 0.057,-0.077 0.116,-0.15 0.177,-0.223 0.122,-0.145 0.273,-0.282 0.379,-0.44 0.055,-0.083 0.102,-0.144 0.179,-0.206 0.077,-0.063 0.143,-0.128 0.211,-0.199 0.095,-0.097 0.222,-0.139 0.319,-0.228 0.157,-0.142 0.32,-0.288 0.5,-0.399 0.058,-0.036 0.112,-0.08 0.177,-0.1 0.073,-0.022 0.147,-0.022 0.213,-0.066 -0.037,0.079 -0.097,0.144 -0.143,0.217 -0.082,0.131 -0.144,0.277 -0.206,0.418 -0.081,0.183 -0.131,0.378 -0.172,0.574 -0.048,0.231 -0.027,0.481 -0.025,0.716 0.002,0.214 0.054,0.426 0.106,0.633 0.063,0.257 0.152,0.517 0.279,0.75 0.097,0.179 0.201,0.351 0.278,0.54 0.062,0.151 0.112,0.303 0.193,0.445 0.122,0.214 0.219,0.439 0.344,0.652 0.112,0.191 0.206,0.391 0.323,0.58 0.055,0.088 0.143,0.165 0.215,0.241 0.061,0.064 0.113,0.135 0.169,0.203 0.005,-0.003 0.007,-0.006 0.011,-0.009 0.011,0.007 0.019,0.016 0.028,0.026 0.328,0.339 0.606,0.746 0.848,1.151 0.071,0.119 0.13,0.238 0.178,0.368 0.034,0.089 0.095,0.198 0.122,0.292 0.013,0.043 0.011,0.083 0.028,0.126 0.021,0.057 0.026,0.098 0.025,0.157 -0.001,0.042 0.015,0.115 -0.018,0.147 -0.052,0.05 -0.066,-0.016 -0.088,-0.056 -0.02,-0.039 -0.046,-0.062 -0.071,-0.095 -0.033,-0.044 -0.045,-0.098 -0.066,-0.15 -0.031,-0.075 -0.068,-0.146 -0.115,-0.211 -0.04,-0.056 -0.068,-0.107 -0.126,-0.145 -0.061,-0.04 -0.09,-0.093 -0.134,-0.155 -0.083,-0.116 -0.176,-0.225 -0.26,-0.34 -0.262,-0.36 -0.518,-0.751 -0.901,-0.99 -0.193,-0.121 -0.405,-0.209 -0.593,-0.336 -0.055,-0.037 -0.102,-0.083 -0.156,-0.122 -0.139,-0.101 -0.323,-0.152 -0.487,-0.19 -0.109,-0.025 -0.181,-0.048 -0.281,-0.098 -0.117,-0.059 -0.228,-0.121 -0.347,-0.177 -0.13,-0.061 -0.25,-0.139 -0.364,-0.224 -0.049,-0.037 -0.066,-0.068 -0.103,-0.111 -0.027,-0.031 -0.071,-0.043 -0.102,-0.069 -0.057,-0.046 -0.117,-0.097 -0.171,-0.147 -0.04,-0.038 -0.062,-0.089 -0.099,-0.129 -0.022,-0.024 -0.048,-0.046 -0.082,-0.047 -0.155,-0.007 -0.234,0.288 -0.292,0.392 -0.056,0.1 -0.13,0.188 -0.185,0.288 -0.088,0.157 -0.16,0.342 -0.207,0.516 -0.049,0.188 -0.05,0.385 -0.09,0.575 -0.094,0.439 -0.229,0.867 -0.288,1.313 -0.029,0.217 -0.032,0.431 -0.035,0.65 -0.003,0.221 -0.024,0.442 -0.027,0.663 -0.006,0.402 0.032,0.797 0.071,1.197 0.042,0.429 0.038,0.857 0.137,1.279 0.044,0.189 0.087,0.378 0.132,0.567 0.06,0.253 0.141,0.486 0.24,0.726 0.114,0.274 0.149,0.605 0.319,0.853 0.052,0.076 0.122,0.134 0.18,0.205 0.04,0.048 0.073,0.101 0.102,0.155 0.137,0.261 0.279,0.509 0.459,0.743 0.168,0.217 0.333,0.439 0.507,0.651 0.24,0.292 0.545,0.517 0.851,0.735 0.691,0.496 1.413,0.978 2.215,1.274 0.261,0.097 0.501,0.213 0.779,0.251 0.253,0.035 0.497,0.064 0.752,0.063 0.308,-0.002 0.616,-0.004 0.924,0 0.186,0.003 0.37,-0.021 0.552,-0.05 0.161,-0.026 0.325,-0.069 0.489,-0.065 0.102,0.003 0.198,0.034 0.297,0.053 0.066,0.012 0.132,0.018 0.198,0.019 0.124,0.001 0.238,-0.026 0.358,-0.052 0.177,-0.038 0.36,-0.058 0.527,-0.134 0.082,-0.037 0.16,-0.085 0.24,-0.126 0.062,-0.032 0.314,-0.139 0.152,-0.214 0.005,0 0.01,0 0.015,-0.001 -0.037,-0.014 -0.09,-0.023 -0.118,-0.029 0.027,0.006 0.067,0.015 0.1,0.03 C -0.922,-0.397 -0.95,-0.398 -0.999,-0.431 -1.121,-0.513 -1.238,-0.599 -1.364,-0.676 -1.8,-0.944 -2.182,-1.264 -2.541,-1.627 -2.7,-1.789 -2.88,-1.928 -3.043,-2.086 -3.197,-2.235 -3.313,-2.427 -3.427,-2.607 -3.518,-2.75 -3.584,-2.92 -3.689,-3.053 c -0.02,-0.026 -0.039,-0.043 -0.067,-0.06 -0.06,-0.036 -0.107,-0.059 -0.152,-0.117 -0.118,-0.152 -0.218,-0.321 -0.326,-0.481 -0.155,-0.229 -0.373,-0.462 -0.461,-0.73 -0.074,-0.227 -0.152,-0.445 -0.205,-0.68 -0.025,-0.108 -0.052,-0.214 -0.08,-0.322 -0.021,-0.079 -0.016,-0.169 -0.045,-0.245 0.07,-0.033 0.161,0.135 0.193,0.176 0.177,0.223 0.328,0.462 0.507,0.683 0.078,0.096 0.146,0.198 0.234,0.284 0.071,0.069 0.121,0.128 0.149,0.225 0.068,-0.006 0.09,0.063 0.135,0.098 0.276,0.218 0.488,0.517 0.75,0.757 0.881,0.809 1.785,1.589 2.619,2.445 0.15,0.155 0.32,0.317 0.492,0.448 0.049,0.037 0.156,0.085 0.189,0.139 0.04,0.068 -0.014,0.097 -0.046,0.155 C 0.164,-0.217 0.154,-0.157 0.111,-0.102 0.08,-0.061 0.034,-0.037 0,0"
             style="fill:#231f20;fill-opacity:1;fill-rule:nonzero;stroke:none"
             id="path2938" />
        </g>
        <g
           id="g2940"
           transform="translate(484.507,220.518)">
          <path
             d="M 0,0 C 0.03,0.062 0.071,0.12 0.094,0.185 0.116,0.249 0.12,0.32 0.137,0.386 0.197,0.618 0.272,0.847 0.321,1.082 0.315,0.885 0.32,0.687 0.32,0.49 c 0,-0.047 0,-0.094 0,-0.141 C 0.32,0.296 0.335,0.26 0.342,0.216 0.367,0.063 0.348,-0.109 0.348,-0.264 0.349,-0.458 0.342,-0.664 0.305,-0.854 0.276,-1.003 0.259,-1.14 0.212,-1.286 0.191,-1.35 0.188,-1.417 0.171,-1.481 0.147,-1.575 0.091,-1.656 0.062,-1.749 0.027,-1.862 0.016,-1.978 -0.015,-2.091 c -0.031,-0.11 -0.082,-0.237 -0.132,-0.34 -0.038,-0.077 -0.087,-0.127 -0.15,-0.182 -0.178,-0.155 -0.275,-0.38 -0.454,-0.536 -0.2,-0.174 -0.283,-0.434 -0.481,-0.606 -0.177,-0.154 -0.367,-0.291 -0.553,-0.432 -0.094,-0.071 -0.186,-0.143 -0.276,-0.218 -0.095,-0.08 -0.181,-0.178 -0.282,-0.249 -0.239,-0.169 -0.531,-0.319 -0.687,-0.58 -0.061,-0.104 -0.143,-0.197 -0.215,-0.294 -0.098,-0.132 -0.189,-0.27 -0.291,-0.399 -0.07,-0.089 -0.15,-0.171 -0.22,-0.261 -0.073,-0.094 -0.119,-0.2 -0.182,-0.3 -0.04,-0.064 -0.095,-0.101 -0.15,-0.15 -0.079,-0.071 -0.142,-0.165 -0.195,-0.257 -0.119,-0.208 -0.246,-0.383 -0.458,-0.504 -0.101,-0.058 -0.204,-0.108 -0.295,-0.182 -0.089,-0.073 -0.19,-0.17 -0.303,-0.202 -0.045,-0.013 -0.09,-0.009 -0.135,-0.009 -0.108,-0.001 -0.211,-0.038 -0.317,-0.057 -0.121,-0.023 -0.242,-0.035 -0.362,-0.067 -0.296,-0.077 -0.565,-0.15 -0.86,-0.046 -0.122,0.043 -0.238,0.048 -0.365,0.026 -0.161,-0.028 -0.316,-0.018 -0.478,-0.013 -0.178,0.005 -0.397,0.028 -0.566,0.085 -0.104,0.035 -0.199,0.099 -0.294,0.153 -0.037,0.021 -0.124,0.059 -0.14,0.1 0.232,0.052 0.475,0.085 0.713,0.114 0.362,0.043 0.721,0.115 1.085,0.12 0.254,0.003 0.475,0.14 0.703,0.235 0.201,0.085 0.363,0.232 0.556,0.331 0.231,0.119 0.434,0.211 0.63,0.384 0.09,0.079 0.169,0.168 0.259,0.247 0.052,0.039 0.101,0.08 0.148,0.124 0.034,0.035 0.041,0.041 0.021,0.018 0.257,0.273 0.503,0.562 0.772,0.822 0.077,0.073 0.174,0.115 0.251,0.187 0.088,0.082 0.136,0.197 0.21,0.289 0.123,0.154 0.249,0.303 0.367,0.462 0.104,0.14 0.212,0.279 0.343,0.395 0.204,0.181 0.367,0.393 0.527,0.613 0.179,0.248 0.373,0.476 0.58,0.702 0.151,0.166 0.335,0.315 0.468,0.495 0.087,0.118 0.18,0.222 0.283,0.329 0.151,0.155 0.295,0.316 0.432,0.484 0.089,0.109 0.198,0.222 0.24,0.359 0.04,0.129 0.045,0.263 0.089,0.393 0.055,0.163 0.104,0.336 0.172,0.494 C -0.004,-0.01 -0.002,-0.005 0,0"
             style="fill:#231f20;fill-opacity:1;fill-rule:nonzero;stroke:none"
             id="path2942" />
        </g>
        <g
           id="g2944"
           transform="translate(479.522,216.281)">
          <path
             d="M 0,0 C -0.025,0.015 -0.05,0.029 -0.077,0.039 -0.146,0.064 -0.2,0.092 -0.265,0.125 -0.322,0.154 -0.401,0.161 -0.463,0.178 -0.502,0.189 -0.543,0.192 -0.581,0.207 -0.615,0.22 -0.645,0.245 -0.678,0.261 -0.769,0.304 -0.86,0.31 -0.939,0.378 -0.967,0.402 -0.991,0.435 -1.027,0.448 -1.07,0.464 -1.126,0.455 -1.17,0.454 -1.21,0.454 -1.241,0.446 -1.279,0.437 -1.329,0.424 -1.385,0.43 -1.439,0.428 -1.529,0.425 -1.619,0.416 -1.707,0.397 -1.838,0.369 -1.938,0.258 -2.07,0.245 -2.139,0.238 -2.195,0.287 -2.258,0.307 -2.356,0.338 -2.463,0.342 -2.563,0.372 -2.7,0.414 -2.866,0.445 -3.008,0.408 -3.137,0.375 -3.27,0.402 -3.396,0.428 -3.521,0.454 -3.644,0.462 -3.772,0.463 -3.867,0.464 -3.944,0.427 -4.035,0.406 -4.106,0.39 -4.133,0.356 -4.193,0.319 -4.24,0.289 -4.292,0.278 -4.345,0.264 -4.47,0.231 -4.629,0.161 -4.71,0.053 -4.759,-0.013 -4.829,-0.111 -4.845,-0.195 -4.884,-0.4 -4.67,-0.351 -4.543,-0.38 c 0.175,-0.042 0.367,-0.094 0.55,-0.102 0.143,-0.006 0.273,0.002 0.415,-0.021 0.058,-0.009 0.113,-0.001 0.17,-0.005 0.062,-0.004 0.125,-0.025 0.186,-0.037 0.094,-0.02 0.176,-0.017 0.271,-0.02 0.078,-0.002 0.152,-0.027 0.23,-0.031 0.158,-0.008 0.32,0.001 0.478,0.001 0.151,0 0.312,-0.016 0.46,0.013 0.171,0.034 0.326,0.077 0.491,0.131 0.158,0.052 0.314,0.088 0.481,0.085 0.119,-0.002 0.232,-0.029 0.355,-0.029 0.29,0.001 0.582,0.03 0.864,0.09 -0.037,0.061 -0.125,0.104 -0.186,0.14 C 0.142,-0.117 0.08,-0.048 0,0"
             style="fill:#231f20;fill-opacity:1;fill-rule:nonzero;stroke:none"
             id="path2946" />
        </g>
      </g>
    </g>
    <g
       id="g12278"
       transform="matrix(0.33122628,0,0,-0.33122628,-58.824421,248.99251)">
      <g
         id="g12276"
         clip-path="url(#clipPath2926)">
        <g
           id="g12258"
           transform="translate(480.645,224.529)">
          <path
             d="M 0,0 C 0.006,0.003 0.012,0.006 0.019,0.009 0.091,0.04 0.164,0.051 0.242,0.065 0.248,0.067 0.254,0.068 0.26,0.069 Z M 2.64,0.02 C 2.601,0.052 2.555,0.076 2.515,0.108 2.47,0.144 2.436,0.192 2.392,0.229 2.347,0.268 2.286,0.289 2.233,0.316 2.156,0.355 2.078,0.399 1.995,0.423 1.928,0.442 1.854,0.447 1.785,0.458 1.697,0.473 1.61,0.495 1.52,0.495 1.337,0.496 1.157,0.543 0.974,0.54 0.815,0.538 0.654,0.521 0.494,0.514 0.305,0.505 0.128,0.53 -0.062,0.496 -0.216,0.468 -0.332,0.435 -0.467,0.351 -0.525,0.315 -0.589,0.284 -0.643,0.243 -0.72,0.184 -0.78,0.102 -0.849,0.034 -0.913,-0.028 -0.986,-0.075 -1.053,-0.133 -1.13,-0.201 -1.195,-0.284 -1.264,-0.36 c -0.05,-0.057 -0.116,-0.109 -0.162,-0.171 -0.007,0.011 -0.012,-0.017 -0.038,-0.042 -0.022,-0.022 -0.048,-0.019 -0.068,-0.035 -0.031,-0.024 -0.004,-0.069 0.024,-0.094 0.033,-0.029 0.097,-0.07 0.134,-0.091 0.036,-0.02 0.056,-0.026 0.091,-0.06 0.019,-0.018 0.057,-0.071 0.082,-0.085 0.03,-0.017 0.047,-0.005 0.076,-0.012 0.036,-0.009 0.072,-0.045 0.107,-0.061 0.095,-0.044 0.195,-0.087 0.301,-0.077 0.068,0.005 0.147,-10e-4 0.212,0.022 0.041,0.015 0.066,0.049 0.104,0.067 0.103,0.05 0.243,-0.041 0.353,-0.04 0.145,0.002 0.29,-0.005 0.434,0 0.049,10e-4 0.077,0.019 0.122,0.026 0.033,0.006 0.067,-0.004 0.1,10e-4 0.056,0.01 0.117,0.039 0.172,0.059 0.066,0.024 0.103,0.047 0.171,0.064 0.059,0.014 0.107,0.022 0.17,0.022 0.151,-0.001 0.302,0 0.453,0 0.111,0 0.272,-0.028 0.321,0.085 0.025,0.056 0.05,0.111 0.084,0.164 0.026,0.043 0.066,0.1 0.1,0.135 0.048,0.05 0.114,0.051 0.155,0.111 0.036,0.053 0.056,0.113 0.125,0.132 0.047,0.012 0.094,-0.01 0.142,-0.004 0.028,0.004 0.05,0.015 0.074,0.03 0.033,0.019 0.161,0.089 0.163,0.13 0.002,0.045 -0.069,0.08 -0.098,0.104"
             style="fill:#231f20;fill-opacity:1;fill-rule:nonzero;stroke:none"
             id="path12256" />
        </g>
        <g
           id="g12262"
           transform="translate(479.181,219.456)">
          <path
             d="M 0,0 C -0.004,0.102 -0.015,0.21 -0.073,0.296 -0.135,0.389 -0.244,0.451 -0.342,0.498 -0.38,0.517 -0.417,0.535 -0.46,0.515 -0.501,0.494 -0.503,0.454 -0.534,0.424 -0.562,0.396 -0.603,0.385 -0.634,0.363 -0.664,0.341 -0.686,0.312 -0.719,0.294 -0.783,0.26 -0.869,0.264 -0.937,0.233 -1.024,0.194 -1.078,0.147 -1.18,0.144 -1.239,0.142 -1.299,0.144 -1.357,0.145 -1.503,0.149 -1.689,0.168 -1.81,0.26 -1.986,0.394 -2.166,0.659 -2.409,0.633 -2.474,0.626 -2.564,0.582 -2.629,0.598 c -0.027,0.006 -0.037,0.011 -0.048,0.037 -0.044,0.1 0.095,0.273 0.122,0.366 0.035,0.125 0.082,0.232 0.134,0.35 0.073,0.168 0.157,0.314 0.257,0.469 0.116,0.181 0.194,0.37 0.285,0.565 0.087,0.189 0.166,0.368 0.223,0.569 0.083,0.293 0.132,0.59 0.169,0.893 0.044,0.362 0.102,0.722 0.165,1.081 0.028,0.157 0.035,0.317 0.061,0.475 0.004,0.025 0.004,0.096 0.022,0.114 0.014,0.014 0.044,0.005 0.061,0.017 0.015,0.012 0.009,0.023 0.018,0.039 0.035,0.06 0.036,0.175 0.052,0.244 0.039,0.167 0.085,0.332 0.144,0.493 0.083,0.226 0.149,0.461 0.185,0.699 0.035,0.23 0.1,0.456 0.131,0.685 0.003,0.021 0.032,0.235 -0.024,0.232 C -0.717,7.924 -0.686,7.889 -0.705,7.871 -0.741,7.837 -0.791,7.814 -0.829,7.779 -0.958,7.664 -1.058,7.548 -1.138,7.393 -1.189,7.294 -1.228,7.192 -1.275,7.091 -1.325,6.983 -1.396,6.872 -1.433,6.76 -1.454,6.699 -1.453,6.644 -1.475,6.581 -1.527,6.43 -1.614,6.285 -1.656,6.132 -1.68,6.047 -1.668,5.967 -1.676,5.879 -1.689,5.733 -1.728,5.596 -1.779,5.46 -1.825,5.338 -1.88,5.219 -1.918,5.094 -1.951,4.983 -1.956,4.87 -1.984,4.759 -2.015,4.635 -2.074,4.521 -2.104,4.397 -2.133,4.279 -2.147,4.159 -2.177,4.041 -2.292,3.603 -2.446,3.185 -2.627,2.771 -2.757,2.474 -2.874,2.166 -2.947,1.85 -2.969,1.754 -2.969,1.654 -2.99,1.558 -3.001,1.51 -3.02,1.464 -3.042,1.419 -3.164,1.175 -3.317,0.954 -3.394,0.688 -3.442,0.526 -3.459,0.379 -3.554,0.234 -3.608,0.152 -3.671,0.088 -3.749,0.029 c -0.094,-0.072 -0.193,-0.147 -0.272,-0.236 -0.101,-0.113 -0.12,-0.27 -0.209,-0.388 -0.089,-0.119 -0.213,-0.193 -0.239,-0.354 -0.008,-0.05 0.003,-0.043 0.05,-0.049 0.098,-0.012 0.193,-0.008 0.274,0.04 0.09,0.055 0.16,0.109 0.231,0.19 0.059,0.067 0.135,0.082 0.205,0.134 0.065,0.05 0.127,0.093 0.208,0.116 0.078,0.023 0.125,0.058 0.197,0.095 0.081,0.04 0.173,0.025 0.26,0.026 0.145,0.002 0.286,-0.065 0.43,-0.087 0.116,-0.018 0.221,-0.098 0.316,-0.165 0.091,-0.064 0.24,-0.175 0.345,-0.182 0.06,-0.003 0.079,0.047 0.135,0.064 0.044,0.012 0.1,0.006 0.147,0.019 0.094,0.027 0.174,0.078 0.263,0.116 0.082,0.035 0.156,0.092 0.241,0.114 0.11,0.028 0.217,0.036 0.329,0.035 0.104,0 0.228,-0.015 0.33,0.006 0.047,0.01 0.087,0.038 0.134,0.048 0.044,0.01 0.09,0.006 0.135,0.014 0.158,0.03 0.244,0.249 0.24,0.394 C 0.001,-0.014 0,-0.007 0,0"
             style="fill:#231f20;fill-opacity:1;fill-rule:nonzero;stroke:none"
             id="path12260" />
        </g>
        <g
           id="g12266"
           transform="translate(482.573,230.839)">
          <path
             d="M 0,0 C -0.032,0.035 -0.069,0.086 -0.114,0.033 -0.147,0.059 -0.172,0.093 -0.202,0.122 -0.244,0.163 -0.292,0.178 -0.339,0.211 -0.416,0.266 -0.461,0.32 -0.553,0.348 -0.644,0.377 -0.735,0.414 -0.824,0.449 -0.96,0.503 -1.117,0.509 -1.261,0.5 -1.306,0.497 -1.351,0.483 -1.396,0.487 -1.423,0.488 -1.447,0.497 -1.472,0.506 -1.596,0.552 -1.716,0.608 -1.84,0.652 -2.03,0.72 -2.213,0.772 -2.414,0.775 -2.546,0.778 -2.678,0.809 -2.809,0.821 -2.913,0.831 -3.017,0.826 -3.121,0.826 -3.3,0.827 -3.495,0.848 -3.672,0.828 -3.784,0.815 -3.92,0.797 -4.022,0.751 -4.118,0.708 -4.226,0.657 -4.326,0.63 -4.408,0.608 -4.477,0.614 -4.555,0.644 -4.778,0.728 -4.968,0.672 -5.193,0.616 -5.344,0.578 -5.494,0.56 -5.649,0.543 -5.952,0.508 -6.258,0.434 -6.557,0.367 -6.82,0.309 -7.075,0.224 -7.34,0.174 -7.572,0.132 -7.763,-0.021 -7.996,-0.055 -8.089,-0.068 -8.166,-0.067 -8.252,-0.107 -8.365,-0.158 -8.46,-0.238 -8.57,-0.294 -8.668,-0.345 -8.772,-0.375 -8.863,-0.44 c -0.106,-0.075 -0.208,-0.168 -0.305,-0.252 -0.258,-0.224 -0.507,-0.46 -0.748,-0.704 -0.099,-0.101 -0.195,-0.211 -0.326,-0.266 -0.118,-0.049 -0.174,-0.165 -0.236,-0.271 -0.206,-0.354 -0.409,-0.719 -0.671,-1.034 -0.252,-0.304 -0.468,-0.632 -0.629,-0.996 -0.056,-0.126 -0.104,-0.253 -0.142,-0.386 -0.037,-0.127 -0.105,-0.235 -0.145,-0.359 -0.054,-0.161 -0.031,-0.351 -0.051,-0.518 -0.012,-0.103 -0.053,-0.203 -0.056,-0.307 -10e-4,-0.029 0.004,-0.058 0.002,-0.087 -0.009,-0.102 -0.036,-0.203 -0.044,-0.305 -0.018,-0.216 -0.011,-0.432 -0.015,-0.648 -0.005,-0.297 -0.02,-0.593 -0.025,-0.89 -0.004,-0.227 -0.011,-0.45 -0.037,-0.676 -0.051,-0.448 -0.101,-0.898 -0.093,-1.349 0.004,-0.256 0.049,-0.511 0.078,-0.765 0.028,-0.251 0.067,-0.494 0.124,-0.74 0.116,-0.503 0.291,-1 0.454,-1.489 0.149,-0.448 0.274,-0.905 0.429,-1.349 0.103,-0.295 0.22,-0.575 0.347,-0.859 0.047,-0.105 0.109,-0.197 0.163,-0.299 0.05,-0.093 0.096,-0.205 0.169,-0.285 0.069,-0.077 0.14,-0.138 0.202,-0.223 0.057,-0.077 0.116,-0.15 0.177,-0.223 0.122,-0.145 0.273,-0.282 0.379,-0.44 0.055,-0.083 0.102,-0.144 0.179,-0.206 0.077,-0.063 0.143,-0.128 0.211,-0.199 0.095,-0.097 0.222,-0.139 0.319,-0.228 0.157,-0.142 0.32,-0.288 0.5,-0.399 0.058,-0.036 0.112,-0.08 0.177,-0.1 0.073,-0.022 0.147,-0.022 0.213,-0.066 -0.037,0.079 -0.097,0.144 -0.143,0.217 -0.082,0.131 -0.144,0.277 -0.206,0.418 -0.081,0.183 -0.131,0.378 -0.172,0.574 -0.048,0.231 -0.027,0.481 -0.025,0.716 0.002,0.214 0.054,0.426 0.106,0.633 0.063,0.257 0.152,0.517 0.279,0.75 0.097,0.179 0.201,0.351 0.278,0.54 0.062,0.151 0.112,0.303 0.193,0.445 0.122,0.214 0.219,0.439 0.344,0.652 0.112,0.191 0.206,0.391 0.323,0.58 0.055,0.088 0.143,0.165 0.215,0.241 0.061,0.064 0.113,0.135 0.169,0.203 0.005,-0.003 0.007,-0.006 0.011,-0.009 0.011,0.007 0.019,0.016 0.028,0.026 0.328,0.339 0.606,0.746 0.848,1.151 0.071,0.119 0.13,0.238 0.178,0.368 0.034,0.089 0.095,0.198 0.122,0.292 0.013,0.043 0.011,0.083 0.028,0.126 0.021,0.057 0.026,0.098 0.025,0.157 -0.001,0.042 0.015,0.115 -0.018,0.147 -0.052,0.05 -0.066,-0.016 -0.088,-0.056 -0.02,-0.039 -0.046,-0.062 -0.071,-0.095 -0.033,-0.044 -0.045,-0.098 -0.066,-0.15 -0.031,-0.075 -0.068,-0.146 -0.115,-0.211 -0.04,-0.056 -0.068,-0.107 -0.126,-0.145 -0.061,-0.04 -0.09,-0.093 -0.134,-0.155 -0.083,-0.116 -0.176,-0.225 -0.26,-0.34 -0.262,-0.36 -0.518,-0.751 -0.901,-0.99 -0.193,-0.121 -0.405,-0.209 -0.593,-0.336 -0.055,-0.037 -0.102,-0.083 -0.156,-0.122 -0.139,-0.101 -0.323,-0.152 -0.487,-0.19 -0.109,-0.025 -0.181,-0.048 -0.281,-0.098 -0.117,-0.059 -0.228,-0.121 -0.347,-0.177 -0.13,-0.061 -0.25,-0.139 -0.364,-0.224 -0.049,-0.037 -0.066,-0.068 -0.103,-0.111 -0.027,-0.031 -0.071,-0.043 -0.102,-0.069 -0.057,-0.046 -0.117,-0.097 -0.171,-0.147 -0.04,-0.038 -0.062,-0.089 -0.099,-0.129 -0.022,-0.024 -0.048,-0.046 -0.082,-0.047 -0.155,-0.007 -0.234,0.288 -0.292,0.392 -0.056,0.1 -0.13,0.188 -0.185,0.288 -0.088,0.157 -0.16,0.342 -0.207,0.516 -0.049,0.188 -0.05,0.385 -0.09,0.575 -0.094,0.439 -0.229,0.867 -0.288,1.313 -0.029,0.217 -0.032,0.431 -0.035,0.65 -0.003,0.221 -0.024,0.442 -0.027,0.663 -0.006,0.402 0.032,0.797 0.071,1.197 0.042,0.429 0.038,0.857 0.137,1.279 0.044,0.189 0.087,0.378 0.132,0.567 0.06,0.253 0.141,0.486 0.24,0.726 0.114,0.274 0.149,0.605 0.319,0.853 0.052,0.076 0.122,0.134 0.18,0.205 0.04,0.048 0.073,0.101 0.102,0.155 0.137,0.261 0.279,0.509 0.459,0.743 0.168,0.217 0.333,0.439 0.507,0.651 0.24,0.292 0.545,0.517 0.851,0.735 0.691,0.496 1.413,0.978 2.215,1.274 0.261,0.097 0.501,0.213 0.779,0.251 0.253,0.035 0.497,0.064 0.752,0.063 0.308,-0.002 0.616,-0.004 0.924,0 0.186,0.003 0.37,-0.021 0.552,-0.05 0.161,-0.026 0.325,-0.069 0.489,-0.065 0.102,0.003 0.198,0.034 0.297,0.053 0.066,0.012 0.132,0.018 0.198,0.019 0.124,0.001 0.238,-0.026 0.358,-0.052 0.177,-0.038 0.36,-0.058 0.527,-0.134 0.082,-0.037 0.16,-0.085 0.24,-0.126 0.062,-0.032 0.314,-0.139 0.152,-0.214 0.005,0 0.01,0 0.015,-0.001 -0.037,-0.014 -0.09,-0.023 -0.118,-0.029 0.027,0.006 0.067,0.015 0.1,0.03 C -0.922,-0.397 -0.95,-0.398 -0.999,-0.431 -1.121,-0.513 -1.238,-0.599 -1.364,-0.676 -1.8,-0.944 -2.182,-1.264 -2.541,-1.627 -2.7,-1.789 -2.88,-1.928 -3.043,-2.086 -3.197,-2.235 -3.313,-2.427 -3.427,-2.607 -3.518,-2.75 -3.584,-2.92 -3.689,-3.053 c -0.02,-0.026 -0.039,-0.043 -0.067,-0.06 -0.06,-0.036 -0.107,-0.059 -0.152,-0.117 -0.118,-0.152 -0.218,-0.321 -0.326,-0.481 -0.155,-0.229 -0.373,-0.462 -0.461,-0.73 -0.074,-0.227 -0.152,-0.445 -0.205,-0.68 -0.025,-0.108 -0.052,-0.214 -0.08,-0.322 -0.021,-0.079 -0.016,-0.169 -0.045,-0.245 0.07,-0.033 0.161,0.135 0.193,0.176 0.177,0.223 0.328,0.462 0.507,0.683 0.078,0.096 0.146,0.198 0.234,0.284 0.071,0.069 0.121,0.128 0.149,0.225 0.068,-0.006 0.09,0.063 0.135,0.098 0.276,0.218 0.488,0.517 0.75,0.757 0.881,0.809 1.785,1.589 2.619,2.445 0.15,0.155 0.32,0.317 0.492,0.448 0.049,0.037 0.156,0.085 0.189,0.139 0.04,0.068 -0.014,0.097 -0.046,0.155 C 0.164,-0.217 0.154,-0.157 0.111,-0.102 0.08,-0.061 0.034,-0.037 0,0"
             style="fill:#231f20;fill-opacity:1;fill-rule:nonzero;stroke:none"
             id="path12264" />
        </g>
        <g
           id="g12270"
           transform="translate(484.507,220.518)">
          <path
             d="M 0,0 C 0.03,0.062 0.071,0.12 0.094,0.185 0.116,0.249 0.12,0.32 0.137,0.386 0.197,0.618 0.272,0.847 0.321,1.082 0.315,0.885 0.32,0.687 0.32,0.49 c 0,-0.047 0,-0.094 0,-0.141 C 0.32,0.296 0.335,0.26 0.342,0.216 0.367,0.063 0.348,-0.109 0.348,-0.264 0.349,-0.458 0.342,-0.664 0.305,-0.854 0.276,-1.003 0.259,-1.14 0.212,-1.286 0.191,-1.35 0.188,-1.417 0.171,-1.481 0.147,-1.575 0.091,-1.656 0.062,-1.749 0.027,-1.862 0.016,-1.978 -0.015,-2.091 c -0.031,-0.11 -0.082,-0.237 -0.132,-0.34 -0.038,-0.077 -0.087,-0.127 -0.15,-0.182 -0.178,-0.155 -0.275,-0.38 -0.454,-0.536 -0.2,-0.174 -0.283,-0.434 -0.481,-0.606 -0.177,-0.154 -0.367,-0.291 -0.553,-0.432 -0.094,-0.071 -0.186,-0.143 -0.276,-0.218 -0.095,-0.08 -0.181,-0.178 -0.282,-0.249 -0.239,-0.169 -0.531,-0.319 -0.687,-0.58 -0.061,-0.104 -0.143,-0.197 -0.215,-0.294 -0.098,-0.132 -0.189,-0.27 -0.291,-0.399 -0.07,-0.089 -0.15,-0.171 -0.22,-0.261 -0.073,-0.094 -0.119,-0.2 -0.182,-0.3 -0.04,-0.064 -0.095,-0.101 -0.15,-0.15 -0.079,-0.071 -0.142,-0.165 -0.195,-0.257 -0.119,-0.208 -0.246,-0.383 -0.458,-0.504 -0.101,-0.058 -0.204,-0.108 -0.295,-0.182 -0.089,-0.073 -0.19,-0.17 -0.303,-0.202 -0.045,-0.013 -0.09,-0.009 -0.135,-0.009 -0.108,-0.001 -0.211,-0.038 -0.317,-0.057 -0.121,-0.023 -0.242,-0.035 -0.362,-0.067 -0.296,-0.077 -0.565,-0.15 -0.86,-0.046 -0.122,0.043 -0.238,0.048 -0.365,0.026 -0.161,-0.028 -0.316,-0.018 -0.478,-0.013 -0.178,0.005 -0.397,0.028 -0.566,0.085 -0.104,0.035 -0.199,0.099 -0.294,0.153 -0.037,0.021 -0.124,0.059 -0.14,0.1 0.232,0.052 0.475,0.085 0.713,0.114 0.362,0.043 0.721,0.115 1.085,0.12 0.254,0.003 0.475,0.14 0.703,0.235 0.201,0.085 0.363,0.232 0.556,0.331 0.231,0.119 0.434,0.211 0.63,0.384 0.09,0.079 0.169,0.168 0.259,0.247 0.052,0.039 0.101,0.08 0.148,0.124 0.034,0.035 0.041,0.041 0.021,0.018 0.257,0.273 0.503,0.562 0.772,0.822 0.077,0.073 0.174,0.115 0.251,0.187 0.088,0.082 0.136,0.197 0.21,0.289 0.123,0.154 0.249,0.303 0.367,0.462 0.104,0.14 0.212,0.279 0.343,0.395 0.204,0.181 0.367,0.393 0.527,0.613 0.179,0.248 0.373,0.476 0.58,0.702 0.151,0.166 0.335,0.315 0.468,0.495 0.087,0.118 0.18,0.222 0.283,0.329 0.151,0.155 0.295,0.316 0.432,0.484 0.089,0.109 0.198,0.222 0.24,0.359 0.04,0.129 0.045,0.263 0.089,0.393 0.055,0.163 0.104,0.336 0.172,0.494 C -0.004,-0.01 -0.002,-0.005 0,0"
             style="fill:#231f20;fill-opacity:1;fill-rule:nonzero;stroke:none"
             id="path12268" />
        </g>
        <g
           id="g12274"
           transform="translate(479.522,216.281)">
          <path
             d="M 0,0 C -0.025,0.015 -0.05,0.029 -0.077,0.039 -0.146,0.064 -0.2,0.092 -0.265,0.125 -0.322,0.154 -0.401,0.161 -0.463,0.178 -0.502,0.189 -0.543,0.192 -0.581,0.207 -0.615,0.22 -0.645,0.245 -0.678,0.261 -0.769,0.304 -0.86,0.31 -0.939,0.378 -0.967,0.402 -0.991,0.435 -1.027,0.448 -1.07,0.464 -1.126,0.455 -1.17,0.454 -1.21,0.454 -1.241,0.446 -1.279,0.437 -1.329,0.424 -1.385,0.43 -1.439,0.428 -1.529,0.425 -1.619,0.416 -1.707,0.397 -1.838,0.369 -1.938,0.258 -2.07,0.245 -2.139,0.238 -2.195,0.287 -2.258,0.307 -2.356,0.338 -2.463,0.342 -2.563,0.372 -2.7,0.414 -2.866,0.445 -3.008,0.408 -3.137,0.375 -3.27,0.402 -3.396,0.428 -3.521,0.454 -3.644,0.462 -3.772,0.463 -3.867,0.464 -3.944,0.427 -4.035,0.406 -4.106,0.39 -4.133,0.356 -4.193,0.319 -4.24,0.289 -4.292,0.278 -4.345,0.264 -4.47,0.231 -4.629,0.161 -4.71,0.053 -4.759,-0.013 -4.829,-0.111 -4.845,-0.195 -4.884,-0.4 -4.67,-0.351 -4.543,-0.38 c 0.175,-0.042 0.367,-0.094 0.55,-0.102 0.143,-0.006 0.273,0.002 0.415,-0.021 0.058,-0.009 0.113,-0.001 0.17,-0.005 0.062,-0.004 0.125,-0.025 0.186,-0.037 0.094,-0.02 0.176,-0.017 0.271,-0.02 0.078,-0.002 0.152,-0.027 0.23,-0.031 0.158,-0.008 0.32,0.001 0.478,0.001 0.151,0 0.312,-0.016 0.46,0.013 0.171,0.034 0.326,0.077 0.491,0.131 0.158,0.052 0.314,0.088 0.481,0.085 0.119,-0.002 0.232,-0.029 0.355,-0.029 0.29,0.001 0.582,0.03 0.864,0.09 -0.037,0.061 -0.125,0.104 -0.186,0.14 C 0.142,-0.117 0.08,-0.048 0,0"
             style="fill:#231f20;fill-opacity:1;fill-rule:nonzero;stroke:none"
             id="path12272" />
        </g>
      </g>
    </g>
  </g>
</svg>
