<?xml version="1.0" encoding="UTF-8" standalone="no"?>
<!-- Created with Inkscape (http://www.inkscape.org/) -->

<svg
   width="23.023138"
   height="24"
   viewBox="0 0 6.0915386 6.3499999"
   version="1.1"
   id="svg11535"
   inkscape:version="1.2.1 (9c6d41e4, 2022-07-14)"
   sodipodi:docname="dark_cult.svg"
   xmlns:inkscape="http://www.inkscape.org/namespaces/inkscape"
   xmlns:sodipodi="http://sodipodi.sourceforge.net/DTD/sodipodi-0.dtd"
   xmlns="http://www.w3.org/2000/svg"
   xmlns:svg="http://www.w3.org/2000/svg">
  <sodipodi:namedview
     id="namedview11537"
     pagecolor="#505050"
     bordercolor="#eeeeee"
     borderopacity="1"
     inkscape:showpageshadow="0"
     inkscape:pageopacity="0"
     inkscape:pagecheckerboard="0"
     inkscape:deskcolor="#505050"
     inkscape:document-units="mm"
     showgrid="false"
     inkscape:zoom="0.70199214"
     inkscape:cx="72.650386"
     inkscape:cy="178.06467"
     inkscape:window-width="1390"
     inkscape:window-height="938"
     inkscape:window-x="0"
     inkscape:window-y="25"
     inkscape:window-maximized="0"
     inkscape:current-layer="layer1" />
  <defs
     id="defs11532">
    <clipPath
       clipPathUnits="userSpaceOnUse"
       id="clipPath2842">
      <path
         d="m 419.367,249.57 h 24.7 v 24.7 h -24.7 z"
         id="path2840" />
    </clipPath>
  </defs>
  <g
     inkscape:label="Layer 1"
     inkscape:groupmode="layer"
     id="layer1"
     transform="translate(-85.756164,-101.43464)">
    <g
       id="g2836"
       transform="matrix(0.3009764,0,0,-0.3009764,-41.101516,183.24153)">
      <g
         id="g2838"
         clip-path="url(#clipPath2842)">
        <g
           id="g2844"
           transform="translate(440.089,260.726)">
          <path
             d="M 0,0 C -0.018,-0.126 -0.041,-0.251 -0.071,-0.374 -0.111,-0.537 -0.184,-0.698 -0.234,-0.859 -0.262,-0.95 -0.297,-1.04 -0.31,-1.134 -0.321,-1.216 -0.312,-1.295 -0.341,-1.373 -0.382,-1.486 -0.439,-1.594 -0.481,-1.707 -0.542,-1.871 -0.561,-2.047 -0.623,-2.213 -0.708,-2.441 -0.762,-2.681 -0.84,-2.912 -0.893,-3.067 -0.91,-3.219 -0.99,-3.364 -1.045,-3.464 -1.061,-3.582 -1.116,-3.677 -1.214,-3.849 -1.295,-4.034 -1.425,-4.186 -1.516,-4.292 -1.476,-4.221 -1.549,-4.244 -1.63,-4.268 -1.63,-4.321 -1.669,-4.398 -1.746,-4.555 -1.871,-4.681 -1.982,-4.815 -2.288,-5.186 -2.598,-5.58 -2.966,-5.893 -3.181,-6.075 -3.393,-6.262 -3.596,-6.456 -3.85,-6.698 -4.116,-6.867 -4.402,-7.066 -4.534,-7.159 -4.654,-7.22 -4.808,-7.257 -5.04,-7.313 -5.263,-7.429 -5.496,-7.494 -5.761,-7.567 -6.012,-7.72 -6.281,-7.776 -6.442,-7.81 -6.635,-7.806 -6.8,-7.822 c -0.231,-0.022 -0.417,-0.08 -0.636,0.02 -0.09,0.041 -0.159,0.056 -0.23,0.121 -0.093,0.086 -0.169,0.165 -0.289,0.214 -0.127,0.051 -0.265,0.084 -0.398,0.118 -0.191,0.048 -0.364,0.034 -0.555,-0.003 -0.186,-0.036 -0.352,-0.029 -0.53,0.042 -0.112,0.044 -0.215,0.119 -0.336,0.137 -0.122,0.018 -0.242,-0.008 -0.36,0.039 -0.127,0.051 -0.254,0.113 -0.384,0.167 -0.112,0.046 -0.193,0.142 -0.297,0.208 -0.105,0.067 -0.224,0.104 -0.325,0.179 -0.258,0.192 -0.554,0.383 -0.849,0.515 -0.203,0.091 -0.366,0.215 -0.559,0.326 -0.163,0.094 -0.336,0.168 -0.505,0.25 -0.382,0.184 -0.79,0.372 -1.143,0.606 -0.184,0.121 -0.365,0.253 -0.522,0.408 -0.16,0.158 -0.277,0.36 -0.406,0.543 -0.301,0.424 -0.504,0.906 -0.76,1.358 -0.189,0.332 -0.312,0.706 -0.427,1.069 -0.144,0.452 -0.32,0.894 -0.431,1.356 -0.09,0.374 -0.23,0.727 -0.28,1.11 -0.043,0.324 -0.069,0.66 -0.069,0.987 0,0.321 0.048,0.636 0.075,0.956 0.021,0.242 0.029,0.467 0.09,0.705 0.113,0.442 0.223,0.881 0.397,1.302 0.129,0.312 0.362,0.529 0.534,0.814 0.132,0.218 0.277,0.412 0.425,0.618 0.139,0.192 0.241,0.44 0.425,0.596 0.087,0.073 0.164,0.048 0.26,0.086 0.136,0.053 0.238,0.219 0.342,0.314 0.222,0.202 0.459,0.385 0.707,0.555 0.318,0.218 0.72,0.275 1.054,0.478 0.221,0.135 0.468,0.412 0.754,0.381 -0.065,0.029 -0.106,0.052 -0.174,0.046 0.034,0.04 0.084,0.045 0.126,0.071 0.062,0.037 0.112,0.093 0.164,0.143 0.142,0.135 0.338,0.263 0.51,0.357 0.111,0.06 0.239,0.089 0.355,0.138 0.136,0.059 0.255,0.119 0.4,0.154 0.203,0.049 0.384,0.163 0.586,0.217 0.256,0.07 0.528,0.086 0.791,0.099 0.508,0.027 1.073,0.036 1.542,-0.184 0.156,-0.073 0.311,-0.142 0.467,-0.212 0.196,-0.088 0.359,-0.193 0.58,-0.215 C -6.413,9.341 -6.158,9.268 -5.91,9.165 -5.664,9.063 -5.406,8.994 -5.162,8.889 -4.876,8.766 -4.645,8.581 -4.383,8.421 -4.151,8.279 -3.901,8.165 -3.669,8.023 -3.464,7.897 -3.227,7.738 -3.058,7.568 -2.901,7.41 -2.771,7.216 -2.628,7.045 -2.492,6.882 -2.33,6.752 -2.192,6.593 -2.051,6.431 -1.932,6.243 -1.815,6.062 -1.57,5.685 -1.377,5.28 -1.191,4.87 -0.989,4.427 -0.754,3.999 -0.564,3.55 -0.407,3.179 -0.242,2.773 -0.2,2.37 -0.18,2.179 -0.179,1.974 -0.134,1.787 -0.103,1.657 -0.079,1.523 -0.032,1.397 0.072,1.117 0.062,0.815 0.048,0.519 0.039,0.347 0.025,0.173 0,0 M 1.117,0.857 C 1.035,1.296 1.026,1.742 0.94,2.183 0.81,2.851 0.696,3.525 0.537,4.188 0.406,4.736 0.248,5.286 0.028,5.806 c -0.223,0.527 -0.644,0.97 -1.025,1.389 -0.412,0.453 -0.868,0.874 -1.294,1.315 -0.204,0.211 -0.428,0.398 -0.646,0.596 -0.224,0.203 -0.436,0.425 -0.686,0.598 -0.229,0.159 -0.479,0.298 -0.729,0.421 -0.276,0.136 -0.568,0.293 -0.868,0.374 -0.284,0.077 -0.587,0.096 -0.876,0.156 -0.326,0.067 -0.646,0.155 -0.97,0.228 -0.783,0.175 -1.572,0.278 -2.366,0.097 -0.529,-0.121 -1.009,-0.352 -1.524,-0.516 -0.314,-0.099 -0.642,-0.193 -0.927,-0.362 -0.066,-0.039 -0.114,-0.054 -0.19,-0.072 -0.188,-0.043 -0.363,-0.132 -0.527,-0.231 -0.206,-0.125 -0.399,-0.264 -0.612,-0.379 -0.136,-0.074 -0.274,-0.131 -0.399,-0.226 -0.241,-0.183 -0.515,-0.251 -0.781,-0.386 -0.177,-0.089 -0.354,-0.179 -0.526,-0.278 -0.179,-0.104 -0.323,-0.137 -0.428,-0.325 -0.112,-0.202 -0.34,-0.333 -0.501,-0.496 -0.258,-0.26 -0.501,-0.554 -0.742,-0.829 -0.207,-0.236 -0.358,-0.48 -0.514,-0.751 -0.298,-0.515 -0.473,-1.096 -0.708,-1.644 -0.213,-0.497 -0.302,-1.029 -0.355,-1.566 -0.053,-0.548 -0.09,-1.086 -0.012,-1.635 0.075,-0.541 0.267,-1.038 0.406,-1.563 0.171,-0.64 0.374,-1.262 0.59,-1.89 0.181,-0.53 0.44,-1.033 0.713,-1.521 0.128,-0.228 0.223,-0.476 0.377,-0.688 0.177,-0.245 0.402,-0.492 0.615,-0.707 0.351,-0.355 0.728,-0.709 1.168,-0.953 0.525,-0.292 1.089,-0.549 1.574,-0.906 0.965,-0.711 2.018,-1.334 3.163,-1.705 0.335,-0.109 0.674,-0.205 1.017,-0.288 0.261,-0.063 0.517,-0.088 0.78,-0.135 0.265,-0.048 0.513,-0.103 0.785,-0.103 0.345,0 0.645,0.113 0.972,0.207 0.197,0.056 0.397,0.108 0.591,0.174 0.265,0.091 0.483,0.238 0.722,0.38 0.573,0.341 1.143,0.642 1.647,1.087 0.414,0.366 0.825,0.74 1.252,1.091 0.455,0.375 0.903,0.741 1.292,1.189 0.349,0.403 0.614,0.866 0.876,1.329 0.23,0.407 0.479,0.865 0.569,1.327 0.056,0.292 0.082,0.589 0.139,0.88 0.045,0.229 0.092,0.436 0.097,0.671 0.011,0.551 0.052,1.154 -0.05,1.697"
             style="fill:#231f20;fill-opacity:1;fill-rule:nonzero;stroke:none"
             id="path2846" />
        </g>
        <g
           id="g2848"
           transform="translate(431.568,271.695)">
          <path
             d="m 0,0 c -0.003,-0.002 -0.005,-0.003 -0.008,-0.005 0.005,-0.006 0.011,-0.012 0.016,-0.018 0.01,0.01 0.018,0.021 0.028,0.031 C 0.024,0.005 0.012,0.003 0,0"
             style="fill:#231f20;fill-opacity:1;fill-rule:nonzero;stroke:none"
             id="path2850" />
        </g>
        <g
           id="g2852"
           transform="translate(431.421,271.805)">
          <path
             d="M 0,0 C -0.085,-0.125 -0.067,-0.247 0.139,-0.114 0.098,-0.067 0.056,-0.019 0,0"
             style="fill:#231f20;fill-opacity:1;fill-rule:nonzero;stroke:none"
             id="path2854" />
        </g>
        <g
           id="g2856"
           transform="translate(426.304,263.936)">
          <path
             d="m 0,0 c -0.011,0.012 -0.021,0.023 -0.031,0.036 -0.142,0.187 -0.275,0.351 -0.442,0.521 -0.095,0.097 -0.223,0.168 -0.33,0.252 -0.15,0.119 -0.28,0.254 -0.426,0.376 -0.175,0.146 -0.374,0.277 -0.565,0.4 -0.071,0.045 -0.163,0.071 -0.164,0.162 0.095,0.027 0.246,0.02 0.348,0.013 0.099,-0.008 0.188,-0.049 0.286,-0.062 0.137,-0.018 0.255,-0.004 0.394,-0.04 0.348,-0.091 0.705,-0.1 1.064,-0.13 C 0.495,1.499 0.833,1.469 1.198,1.472 1.575,1.475 1.945,1.411 2.324,1.413 c 0.32,0.002 0.639,0 0.958,0.002 C 3.93,1.42 4.588,1.319 5.232,1.255 5.515,1.227 5.825,1.233 6.103,1.171 6.185,1.153 6.249,1.115 6.324,1.078 6.502,0.99 6.701,0.949 6.898,0.921 7.14,0.886 7.385,0.955 7.624,0.888 7.882,0.816 8.107,0.711 8.384,0.739 c 0.299,0.03 0.574,0.175 0.861,0.256 0.339,0.095 0.7,0.108 1.048,0.136 0.281,0.022 0.558,0.003 0.838,0.042 0.154,0.018 0.306,0.046 0.457,0.085 0.097,0.02 0.187,0.055 0.272,0.107 C 12.145,1.42 11.928,1.162 11.841,1.024 11.695,0.795 11.571,0.558 11.446,0.316 11.286,0.006 11.096,-0.261 10.902,-0.544 10.556,-1.046 10.157,-1.519 9.828,-2.033 9.656,-2.301 9.48,-2.588 9.358,-2.884 9.266,-3.106 9.116,-3.293 9.017,-3.514 8.955,-3.653 8.884,-3.733 8.789,-3.841 8.559,-4.102 8.417,-4.374 8.257,-4.688 7.884,-5.416 7.413,-6.081 7.079,-6.83 6.898,-7.235 6.672,-7.614 6.489,-8.018 6.33,-8.367 6.276,-8.725 6.172,-9.096 6.128,-9.253 6.034,-9.81 5.823,-9.855 5.835,-9.864 5.844,-9.876 5.847,-9.895 5.784,-9.918 5.714,-9.91 5.649,-9.921 5.572,-9.933 5.642,-9.98 5.53,-9.955 5.414,-9.929 5.461,-9.87 5.415,-9.796 5.352,-9.694 5.275,-9.625 5.221,-9.511 5.143,-9.349 5.115,-9.168 5.052,-9 4.952,-8.73 4.793,-8.492 4.72,-8.21 4.618,-7.813 4.633,-7.426 4.46,-7.047 4.107,-6.27 3.799,-5.508 3.292,-4.83 2.85,-4.239 2.469,-3.6 2.029,-3.007 1.665,-2.517 1.337,-1.985 0.863,-1.597 0.659,-1.43 0.52,-1.181 0.42,-0.941 0.314,-0.688 0.306,-0.396 0.153,-0.163 0.113,-0.102 0.051,-0.055 0,0 m -2.472,0.932 c 0.091,-0.092 0.136,-0.211 0.198,-0.33 0.126,-0.24 0.271,-0.449 0.493,-0.608 0.142,-0.102 0.207,-0.191 0.309,-0.325 0.079,-0.104 0.186,-0.153 0.262,-0.252 0.153,-0.201 0.338,-0.379 0.495,-0.579 0.082,-0.105 0.139,-0.243 0.222,-0.338 0.039,-0.044 0.099,-0.067 0.142,-0.123 0.054,-0.072 0.104,-0.147 0.155,-0.221 C 0.01,-2.142 0.207,-2.446 0.403,-2.75 1.08,-3.798 1.952,-4.717 2.474,-5.875 2.674,-6.32 2.922,-6.704 3.19,-7.102 3.328,-7.308 3.464,-7.513 3.549,-7.75 3.615,-7.933 3.673,-8.114 3.75,-8.292 3.894,-8.627 3.979,-9.019 4.188,-9.323 4.254,-9.418 4.335,-9.5 4.395,-9.599 c 0.189,-0.315 0.323,-0.695 0.45,-1.038 0.112,-0.303 0.154,-0.646 0.295,-0.936 0.079,-0.162 0.155,-0.308 0.216,-0.478 0.092,-0.257 0.16,-0.514 0.259,-0.768 0.043,-0.112 0.073,-0.358 0.182,-0.41 0.064,0.199 0.11,0.396 0.186,0.592 0.11,0.285 0.25,0.569 0.321,0.867 0.072,0.299 0.111,0.633 0.222,0.92 0.1,0.26 0.161,0.589 0.287,0.824 0.141,0.265 0.313,0.55 0.461,0.824 0.352,0.654 0.68,1.321 1.005,1.991 0.415,0.856 0.872,1.68 1.311,2.52 0.446,0.856 0.748,1.821 1.34,2.581 0.478,0.615 1.038,1.174 1.487,1.81 0.156,0.22 0.268,0.442 0.45,0.646 0.234,0.262 0.441,0.544 0.668,0.81 0.326,0.381 0.72,0.701 1.137,0.975 0.212,0.139 0.349,0.308 0.521,0.489 0.098,0.104 0.212,0.164 0.228,0.309 0.03,0.288 -0.434,0.105 -0.589,0.07 C 14.671,2.962 14.495,2.924 14.332,2.905 14.16,2.885 14.001,2.912 13.831,2.86 13.644,2.803 13.5,2.74 13.3,2.728 13.094,2.716 12.903,2.666 12.707,2.6 12.467,2.52 12.284,2.499 12.035,2.5 11.905,2.501 11.828,2.514 11.709,2.547 11.452,2.617 11.139,2.6 10.871,2.629 10.516,2.668 10.162,2.714 9.808,2.762 9.14,2.853 8.465,2.895 7.792,2.867 7.15,2.841 6.522,2.66 5.882,2.752 5.735,2.773 5.591,2.803 5.449,2.846 5.233,2.911 5.029,3.008 4.809,3.06 4.467,3.143 4.112,3.125 3.763,3.119 3.317,3.111 2.87,3.098 2.424,3.077 2.186,3.066 1.954,3.081 1.719,3.041 1.52,3.006 1.328,2.937 1.127,2.909 0.647,2.841 0.12,2.9 -0.365,2.9 -0.93,2.9 -1.51,2.928 -2.071,2.894 -2.226,2.885 -2.364,2.827 -2.522,2.856 -2.804,2.907 -3.105,2.954 -3.395,2.959 -3.543,2.961 -3.694,2.939 -3.84,2.97 -3.937,2.991 -4.001,3.016 -4.107,3.015 -4.278,3.014 -4.295,3.041 -4.434,3.116 -4.503,3.154 -4.627,3.199 -4.708,3.189 -4.819,3.175 -4.826,3.191 -4.811,3.074 -4.798,2.967 -4.685,2.796 -4.64,2.705 -4.468,2.352 -4.243,2.166 -3.95,1.914 -3.725,1.721 -3.514,1.505 -3.262,1.346 -3.036,1.203 -2.77,1.135 -2.55,0.994 -2.521,0.976 -2.495,0.955 -2.472,0.932"
             style="fill:#231f20;fill-opacity:1;fill-rule:nonzero;stroke:none"
             id="path2858" />
        </g>
        <g
           id="g2860"
           transform="translate(431.983,257.286)">
          <path
             d="M 0,0 C 0.002,0.001 0.003,0.001 0.004,0.002 0.001,0.005 -0.001,0.008 -0.004,0.011 -0.009,0.006 -0.013,0.001 -0.017,-0.004 -0.012,-0.003 -0.006,-0.001 0,0"
             style="fill:#231f20;fill-opacity:1;fill-rule:nonzero;stroke:none"
             id="path2862" />
        </g>
        <g
           id="g2864"
           transform="translate(432.054,257.233)">
          <path
             d="M 0,0 C 0.041,0.06 0.032,0.119 -0.067,0.055 -0.047,0.032 -0.027,0.009 0,0"
             style="fill:#231f20;fill-opacity:1;fill-rule:nonzero;stroke:none"
             id="path2866" />
        </g>
        <g
           id="g2868"
           transform="translate(434.471,261.027)">
          <path
             d="M 0,0 C 0.087,-0.147 0.129,-0.304 0.063,-0.516 0.002,-0.712 -0.064,-0.72 -0.25,-0.722 c -0.12,-0.001 -0.289,-0.05 -0.405,-0.007 -0.061,0.023 -0.062,0.049 -0.133,0.071 -0.068,0.02 -0.167,0.009 -0.238,0.007 -0.154,-0.003 -0.308,-0.005 -0.462,-0.008 -0.312,-0.008 -0.63,0.035 -0.941,0.061 -0.137,0.011 -0.286,0.006 -0.42,0.033 -0.04,0.008 -0.071,0.026 -0.108,0.043 -0.086,0.041 -0.183,0.059 -0.278,0.071 -0.117,0.015 -0.235,-0.02 -0.35,0.01 -0.125,0.033 -0.234,0.082 -0.368,0.066 -0.143,-0.017 -0.275,-0.089 -0.413,-0.13 -0.162,-0.049 -0.336,-0.058 -0.504,-0.074 -0.135,-0.013 -0.269,-0.007 -0.403,-0.028 -0.074,-0.01 -0.148,-0.025 -0.22,-0.044 -0.046,-0.011 -0.09,-0.029 -0.13,-0.054 -0.137,-0.029 -0.035,0.097 0.006,0.164 0.069,0.112 0.126,0.227 0.185,0.345 0.075,0.151 0.164,0.281 0.255,0.419 0.163,0.245 0.351,0.476 0.506,0.726 0.08,0.131 0.163,0.271 0.22,0.414 0.067,0.172 0.172,0.319 0.266,0.476 0.082,0.138 0.141,0.307 0.201,0.459 0.047,0.123 0.088,0.246 0.142,0.366 0.073,0.163 0.129,0.336 0.214,0.493 0.071,0.133 0.172,0.239 0.247,0.368 0.099,0.17 0.297,0.523 0.54,0.454 C -2.704,3.94 -2.665,3.768 -2.586,3.668 -2.478,3.532 -2.384,3.39 -2.297,3.237 -2.2,3.064 -2.07,2.913 -1.962,2.747 -1.853,2.581 -1.806,2.397 -1.716,2.223 -1.658,2.114 -1.578,2.045 -1.487,1.966 -1.174,1.694 -0.986,1.309 -0.736,0.983 -0.661,0.884 -0.564,0.806 -0.488,0.708 -0.406,0.6 -0.351,0.474 -0.27,0.364 -0.173,0.234 -0.071,0.12 0,0 M 1,-0.62 C 0.944,-0.532 0.888,-0.449 0.85,-0.375 0.734,-0.149 0.651,0.097 0.557,0.333 0.519,0.428 0.38,0.581 0.503,0.669 0.43,0.827 0.304,0.959 0.228,1.118 0.137,1.305 0.11,1.516 0.034,1.71 -0.093,2.036 -0.272,2.325 -0.427,2.637 -0.502,2.789 -0.563,2.963 -0.65,3.109 -0.752,3.281 -0.889,3.436 -0.995,3.605 -1.116,3.798 -1.221,3.992 -1.381,4.155 -1.533,4.309 -1.668,4.445 -1.798,4.62 -1.908,4.769 -1.992,4.935 -2.103,5.083 -2.156,5.152 -2.2,5.204 -2.277,5.241 -2.399,5.3 -2.515,5.353 -2.639,5.433 -2.699,5.472 -2.756,5.508 -2.805,5.559 -2.81,5.564 -2.815,5.57 -2.819,5.575 -2.849,5.544 -2.876,5.51 -2.901,5.474 -2.995,5.336 -3.047,5.085 -3.207,4.997 -3.27,4.962 -3.353,4.969 -3.421,4.953 -3.675,4.897 -3.765,4.669 -3.896,4.471 -4.02,4.283 -4.142,4.1 -4.241,3.897 -4.478,3.414 -4.779,2.97 -5.035,2.498 -5.199,2.196 -5.329,1.869 -5.499,1.572 -5.566,1.454 -5.661,1.359 -5.728,1.241 -5.808,1.098 -5.867,0.949 -5.96,0.813 -6.009,0.739 -6.081,0.676 -6.128,0.602 -6.208,0.477 -6.229,0.319 -6.3,0.187 c -0.168,-0.317 -0.683,-1.07 -0.21,-1.342 0.346,-0.198 0.825,-0.127 1.199,-0.081 0.207,0.026 0.419,0.036 0.625,-0.008 0.23,-0.049 0.443,-0.159 0.673,-0.212 0.267,-0.061 0.527,-0.071 0.787,-0.165 0.171,-0.062 0.346,-0.11 0.516,-0.174 0.318,-0.121 0.594,-0.082 0.923,-0.118 0.176,-0.02 0.346,-0.094 0.526,-0.044 0.102,0.028 0.179,0.099 0.288,0.11 0.259,0.027 0.535,-0.011 0.796,-0.007 0.234,0.003 0.457,0.129 0.681,0.189 0.139,0.037 0.288,0.065 0.406,0.153 0.121,0.091 0.279,0.273 0.281,0.429 C 1.192,-0.935 1.096,-0.771 1,-0.62"
             style="fill:#231f20;fill-opacity:1;fill-rule:nonzero;stroke:none"
             id="path2870" />
        </g>
        <g
           id="g2872"
           transform="translate(431.659,270.038)">
          <path
             d="m 0,0 c -0.081,-0.014 -0.147,-0.046 -0.229,-0.057 -0.095,-0.013 -0.16,-0.026 -0.248,-0.076 -0.407,-0.231 -0.62,-0.721 -0.664,-1.175 -0.017,-0.172 -0.032,-0.304 0.087,-0.436 0.14,-0.155 0.356,-0.275 0.537,-0.376 0.403,-0.226 0.995,-0.161 1.315,0.191 0.213,0.235 0.256,0.74 0.121,1.02 -0.049,0.102 -0.123,0.236 -0.19,0.327 -0.018,0.025 -0.065,0.037 -0.086,0.064 -0.028,0.036 -0.034,0.087 -0.068,0.121 -0.061,0.061 -0.131,0.088 -0.19,0.154 -0.047,0.053 -0.09,0.128 -0.156,0.16 -0.155,0.076 -0.287,0.103 -0.458,0.026"
             style="fill:#231f20;fill-opacity:1;fill-rule:nonzero;stroke:none"
             id="path2874" />
        </g>
        <g
           id="g2876"
           transform="translate(426.171,259.175)">
          <path
             d="m 0,0 c -0.14,0.131 -0.277,0.111 -0.453,0.115 -0.307,0.007 -0.517,-0.117 -0.639,-0.403 -0.105,-0.246 -0.161,-0.541 -0.073,-0.799 0.135,-0.394 0.398,-0.464 0.776,-0.458 0.164,0.003 0.361,-0.029 0.523,-0.01 0.193,0.024 0.28,0.175 0.387,0.315 0.095,0.123 0.162,0.18 0.169,0.33 0.008,0.183 0.018,0.421 -0.044,0.596 -0.064,0.181 -0.181,0.181 -0.349,0.243 -0.177,0.065 -0.269,0.132 -0.469,0.128"
             style="fill:#231f20;fill-opacity:1;fill-rule:nonzero;stroke:none"
             id="path2878" />
        </g>
        <g
           id="g2880"
           transform="translate(436.701,257.269)">
          <path
             d="M 0,0 C 0.17,-0.043 0.337,-0.022 0.508,-0.043 0.628,-0.057 0.745,-0.134 0.86,-0.145 1.155,-0.173 1.421,0.101 1.417,0.382 1.416,0.4 1.376,0.411 1.376,0.435 c 0,0.037 0.028,0.075 0.041,0.11 0.1,0.267 0.121,0.831 -0.199,0.994 C 1.061,1.62 0.907,1.618 0.733,1.62 0.484,1.623 0.265,1.432 0.075,1.294 -0.078,1.183 -0.221,1.132 -0.296,0.945 -0.43,0.612 -0.417,0.106 0,0"
             style="fill:#231f20;fill-opacity:1;fill-rule:nonzero;stroke:none"
             id="path2882" />
        </g>
      </g>
    </g>
  </g>
</svg>
