<?xml version="1.0" encoding="UTF-8" standalone="no"?>
<!-- Created with Inkscape (http://www.inkscape.org/) -->

<svg
   width="22.806055"
   height="24"
   viewBox="0 0 6.0341021 6.35"
   version="1.1"
   id="svg11825"
   inkscape:version="1.2.1 (9c6d41e4, 2022-07-14)"
   sodipodi:docname="locked_doors.svg"
   xmlns:inkscape="http://www.inkscape.org/namespaces/inkscape"
   xmlns:sodipodi="http://sodipodi.sourceforge.net/DTD/sodipodi-0.dtd"
   xmlns="http://www.w3.org/2000/svg"
   xmlns:svg="http://www.w3.org/2000/svg">
  <sodipodi:namedview
     id="namedview11827"
     pagecolor="#505050"
     bordercolor="#eeeeee"
     borderopacity="1"
     inkscape:showpageshadow="0"
     inkscape:pageopacity="0"
     inkscape:pagecheckerboard="0"
     inkscape:deskcolor="#505050"
     inkscape:document-units="mm"
     showgrid="false"
     inkscape:zoom="0.70199214"
     inkscape:cx="51.282625"
     inkscape:cy="75.499421"
     inkscape:window-width="1390"
     inkscape:window-height="938"
     inkscape:window-x="0"
     inkscape:window-y="25"
     inkscape:window-maximized="0"
     inkscape:current-layer="layer1" />
  <defs
     id="defs11822">
    <clipPath
       clipPathUnits="userSpaceOnUse"
       id="clipPath2890">
      <path
         d="m 459.583,249.57 h 24.7 v 24.7 h -24.7 z"
         id="path2888" />
    </clipPath>
  </defs>
  <g
     inkscape:label="Layer 1"
     inkscape:groupmode="layer"
     id="layer1"
     transform="translate(-91.490931,-128.64148)">
    <g
       id="g2884"
       transform="matrix(0.34202951,0,0,-0.34202951,-66.9071,221.36282)">
      <g
         id="g2886"
         clip-path="url(#clipPath2890)">
        <g
           id="g2892"
           transform="translate(476.667,253.532)">
          <path
             d="m 0,0 c 0.009,-0.057 0.017,-0.115 0.025,-0.172 0.027,-0.193 0.047,-0.387 0.07,-0.581 0.009,-0.075 0.009,-0.182 0.035,-0.253 0.034,0.007 0.022,0.06 0.025,0.091 0.027,0.286 0.148,0.567 0.227,0.842 0.108,0.378 0.153,0.771 0.255,1.15 0.03,0.109 0.07,0.213 0.1,0.321 C 0.775,1.542 0.794,1.69 0.832,1.834 0.858,1.931 0.908,2.015 0.933,2.109 0.99,2.325 0.915,2.524 1.042,2.721 1.17,2.917 1.167,3.166 1.174,3.392 1.187,3.744 1.198,4.094 1.2,4.446 1.202,4.759 1.149,5.071 1.096,5.379 1.053,5.63 1.024,5.897 0.901,6.125 0.812,6.29 0.737,6.425 0.734,6.619 0.727,7.026 0.792,7.462 0.722,7.865 0.708,7.946 0.675,8.023 0.66,8.104 0.618,8.321 0.732,8.581 0.817,8.777 0.858,8.869 0.93,8.933 0.979,9.02 1.03,9.11 1.07,9.203 1.119,9.294 1.156,9.362 1.184,9.434 1.23,9.496 1.274,9.556 1.296,9.537 1.301,9.625 1.306,9.731 1.245,9.789 1.215,9.89 1.194,9.961 1.161,10.035 1.147,10.109 c -0.012,0.067 0.006,0.135 -0.006,0.2 -0.011,0.058 -0.055,0.082 -0.073,0.127 -0.042,0.102 -0.056,0.234 -0.091,0.341 -0.076,0.229 -0.22,0.429 -0.261,0.67 -0.034,0.195 -0.005,0.349 0.054,0.532 0.071,0.218 0.048,0.455 0.048,0.681 0,0.28 0,0.559 -0.001,0.839 0,0.217 -0.016,0.426 0.048,0.636 0.024,0.081 0.022,0.103 0.016,0.198 -0.017,0.295 -0.04,0.589 -0.069,0.883 -0.054,0.55 -0.127,1.098 -0.201,1.646 -0.033,0.012 -0.068,0.013 -0.104,0.003 -0.095,-0.009 -0.187,0.007 -0.275,0.047 -0.189,0.105 -0.376,0.214 -0.561,0.328 -0.24,0.148 -0.559,0.182 -0.836,0.141 -0.077,-0.011 -0.151,-0.035 -0.229,-0.036 -0.123,-10e-4 -0.241,0.046 -0.364,0.048 -0.145,0.003 -0.288,-0.026 -0.432,-0.039 -0.38,-0.034 -0.72,0.051 -1.095,0.101 -0.303,0.041 -0.61,0.051 -0.916,0.074 -0.483,0.035 -0.958,0.05 -1.441,-0.01 -0.205,-0.034 -0.41,-0.061 -0.616,-0.08 -0.183,-0.005 -0.366,-0.009 -0.548,-0.013 -0.267,-0.022 -0.462,-0.077 -0.667,-0.236 -0.036,-0.027 -0.102,-0.011 -0.079,-0.076 0.017,-0.048 0.086,-0.025 0.125,-0.026 0.132,-0.003 0.255,-0.009 0.386,-0.03 0.23,-0.036 0.451,-0.106 0.682,-0.131 0.306,-0.033 0.562,-0.04 0.841,-0.185 0.257,-0.133 0.491,-0.21 0.771,-0.286 0.129,-0.026 0.251,-0.072 0.365,-0.138 0.086,-0.059 0.173,-0.116 0.262,-0.17 0.078,-0.047 0.219,-0.055 0.307,-0.057 0.053,-0.001 0.099,0.002 0.147,0.026 0.017,0.009 0.015,0.046 0.025,0.05 0.046,0.02 0.132,-0.01 0.183,-0.015 0.255,-0.027 0.517,-0.007 0.774,-0.009 0.254,-0.002 0.489,0.056 0.738,0.002 0.453,-0.098 0.881,0.038 1.33,0.039 0.027,0 0.262,0.027 0.296,-0.006 0.024,-0.023 0.007,-0.046 0.012,-0.072 0.01,-0.052 -0.001,-0.158 -0.001,-0.201 v -0.498 c 0,-0.487 0.001,-0.974 0.002,-1.461 0.001,-0.227 0.001,-0.455 0.001,-0.682 0.001,-0.212 0.048,-0.489 -0.006,-0.694 -0.018,0.022 -0.044,0.035 -0.072,0.03 C -0.43,12.592 -0.395,12.251 -0.405,12.204 -0.41,12.181 -0.437,12.147 -0.441,12.111 -0.451,12.018 -0.43,11.925 -0.43,11.832 -0.429,11.64 -0.44,11.462 -0.47,11.273 -0.51,11.026 -0.502,10.8 -0.592,10.566 -0.633,10.458 -0.646,10.365 -0.722,10.279 -0.858,10.125 -0.717,9.976 -0.721,9.801 -0.722,9.751 -0.736,9.707 -0.747,9.66 -0.769,9.573 -0.779,9.519 -0.721,9.442 -0.632,9.326 -0.552,9.254 -0.497,9.112 -0.449,8.987 -0.415,8.856 -0.35,8.738 -0.175,8.421 -0.17,8.057 -0.229,7.711 -0.294,7.34 -0.182,6.942 -0.163,6.569 -0.155,6.42 -0.151,6.271 -0.149,6.121 -0.148,6.008 -0.121,5.903 -0.121,5.789 -0.121,5.442 -0.101,5.091 -0.12,4.745 -0.123,4.686 -0.131,4.629 -0.144,4.572 -0.172,4.447 -0.192,4.328 -0.19,4.199 -0.184,3.826 -0.107,3.457 -0.102,3.084 -0.095,2.547 -0.161,2.011 -0.162,1.473 -0.162,1.227 -0.178,0.982 -0.129,0.74 -0.08,0.493 -0.037,0.248 0,0 m -9.764,0.535 c 0.014,0.077 0.026,0.154 0.035,0.231 0.029,0.226 0.05,0.459 0.048,0.687 -0.003,0.205 -0.02,0.439 0.056,0.634 0.028,0.071 0.049,0.135 0.057,0.212 0.006,0.068 -0.005,0.137 0.007,0.205 0.026,0.152 0.069,0.305 0.103,0.456 0.015,0.07 0.028,0.167 0.073,0.223 0.061,0.076 0.079,0.093 0.058,0.187 -0.024,0.109 -0.016,0.236 -0.018,0.348 -0.003,0.229 0.005,0.459 0.005,0.689 v 0.646 c 0,0.393 0.015,0.804 0.053,1.198 0.032,0.334 0.132,0.702 0.074,1.035 -0.051,0.285 -0.026,0.598 0.04,0.881 0.053,0.231 0.115,0.465 0.231,0.674 0.07,0.124 0.23,0.155 0.296,0.27 0.025,0.044 0.007,0.145 0.007,0.197 v 0.317 c 0,0.071 -0.012,0.153 0.003,0.221 0.016,0.075 0.052,0.119 0.038,0.203 -0.02,0.123 -0.133,0.195 -0.192,0.302 -0.093,0.168 -0.218,0.328 -0.247,0.527 -0.046,0.31 -0.043,0.614 -0.14,0.912 -0.056,0.169 -0.036,0.342 -0.022,0.517 0.037,0.451 0.105,0.9 0.148,1.35 0.068,0.715 0.181,1.438 0.026,2.151 -0.064,0.296 -0.05,0.596 -0.086,0.893 -0.013,0.109 -0.066,0.223 -0.092,0.332 -0.028,0.113 -0.046,0.234 -0.086,0.344 C -9.307,17.359 -9.33,17.341 -9.36,17.346 -9.389,17.291 -9.396,17.217 -9.409,17.158 -9.41,17.154 -9.41,17.15 -9.411,17.146 -9.436,17.023 -9.455,16.9 -9.479,16.777 c -0.062,-0.314 -0.163,-0.618 -0.262,-0.922 -0.077,-0.236 -0.125,-0.471 -0.148,-0.718 -0.012,-0.119 -0.019,-0.238 -0.04,-0.356 -0.024,-0.13 -0.066,-0.253 -0.098,-0.38 -0.04,-0.155 -0.057,-0.31 -0.055,-0.469 0.001,-0.098 0.003,-0.192 -0.013,-0.289 -0.021,-0.135 -0.08,-0.259 -0.1,-0.39 -0.027,-0.175 0.033,-0.338 0.038,-0.511 0.003,-0.114 -0.035,-0.241 -0.05,-0.354 -0.015,-0.113 -0.029,-0.226 -0.041,-0.339 -0.072,-0.677 -0.166,-1.36 -0.198,-2.04 -0.023,-0.49 -0.005,-0.978 0.026,-1.467 0.009,-0.129 -10e-4,-0.158 0.083,-0.252 0.11,-0.124 0.042,-0.35 0.043,-0.495 0.001,-0.269 -0.015,-0.541 0.012,-0.808 0.022,-0.216 0.013,-0.434 0.013,-0.651 0,-0.236 -0.002,-0.472 0,-0.708 10e-4,-0.113 0.006,-0.22 -0.025,-0.33 -0.022,-0.08 -0.026,-0.138 -0.025,-0.221 0.006,-0.451 -0.008,-0.902 -10e-4,-1.352 0.005,-0.235 0.07,-0.491 10e-4,-0.723 -0.022,-0.074 -0.045,-0.14 -0.048,-0.219 -0.011,-0.259 0,-0.521 0,-0.78 0,-0.248 -10e-4,-0.497 0,-0.745 0,-0.267 -0.02,-0.538 0.026,-0.801 0.038,-0.212 0.074,-0.425 0.11,-0.637 0.021,-0.123 0.072,-0.224 0.122,-0.339 0.057,-0.131 0.099,-0.261 0.143,-0.396 -0.021,0.494 0.118,0.968 0.202,1.45"
             style="fill:#231f20;fill-opacity:1;fill-rule:nonzero;stroke:none"
             id="path2894" />
        </g>
        <g
           id="g2896"
           transform="translate(464.379,263.601)">
          <path
             d="m 0,0 c -0.111,-0.005 -0.225,0.001 -0.334,0.002 -0.085,0.001 -0.169,0.017 -0.216,-0.052 -0.042,-0.062 -0.028,-0.142 -0.027,-0.211 0,-0.175 -0.059,-0.342 -0.061,-0.514 -0.001,-0.061 -0.021,-0.119 0.045,-0.136 0.035,-0.009 0.076,0.001 0.114,-0.005 0.046,-0.007 0.085,-0.021 0.133,-0.021 0.077,0 0.146,0.018 0.218,0.04 0.074,0.023 0.145,0.029 0.224,0.023 0.098,-0.008 0.144,-0.059 0.231,-0.085 0.041,-0.012 0.09,-0.011 0.133,-0.013 0.077,-0.003 0.164,-0.009 0.24,0.005 0.088,0.017 0.149,0.028 0.245,0.028 0.092,-0.001 0.179,0.001 0.27,-0.014 0.128,-0.021 0.259,-0.014 0.39,-0.013 0.161,0.001 0.317,-0.03 0.478,-0.029 0.204,0.001 0.423,0.004 0.625,-0.028 0.071,-0.012 0.141,-0.024 0.213,-0.029 0.431,-0.029 0.861,-0.028 1.292,-0.074 0.294,-0.031 0.585,-0.063 0.878,-0.106 0.147,-0.023 0.297,-0.033 0.446,-0.042 0.1,-0.006 0.189,-0.03 0.287,-0.047 0.176,-0.029 0.341,0.004 0.517,0.03 0.218,0.031 0.436,0.062 0.652,0.101 0.79,0.142 1.594,0.246 2.398,0.298 0.408,0.027 0.817,0.06 1.226,0.082 0.204,0.011 0.409,0.018 0.614,0.02 0.09,0.001 0.178,-0.003 0.268,-0.006 0.029,0 0.052,0 0.081,0.006 0.141,0.026 0.287,0.07 0.427,0.103 0.291,0.067 0.581,0.045 0.878,0.04 0.199,-0.003 0.398,-0.014 0.596,-0.011 0.127,0.001 0.277,-0.007 0.4,0.018 0.027,0.006 0.049,0.012 0.071,0.027 0.034,0.023 0.05,0.061 0.083,0.085 0.108,0.075 0.326,0.026 0.453,0.023 0.102,-0.003 0.204,-0.016 0.304,-0.005 0.032,0.003 0.058,0.008 0.091,0.005 0.073,-0.006 0.133,-0.035 0.191,-0.077 0.063,-0.047 0.096,-0.087 0.126,-0.155 0.042,-0.095 0.091,-0.247 0.235,-0.182 0.173,0.08 0.191,0.311 0.303,0.444 0.055,0.065 0.115,0.025 0.189,0.026 0.089,0.002 0.197,0.072 0.227,0.152 0.045,0.121 0.029,0.267 0.028,0.393 0,0.12 -0.002,0.241 0,0.361 0.001,0.074 -0.007,0.081 -0.09,0.08 -0.092,-0.002 -0.185,0 -0.277,0.001 -0.057,0 -0.118,0.015 -0.174,0.001 -0.023,-0.006 -0.04,-0.022 -0.061,-0.028 -0.065,-0.016 -0.161,0.001 -0.228,0.001 -0.09,0 -0.181,0 -0.272,0 -0.102,0 -0.204,0 -0.306,0 -0.156,0.001 -0.273,0.013 -0.422,-0.039 -0.047,-0.016 -0.091,-0.032 -0.141,-0.037 -0.055,-0.005 -0.112,0 -0.167,0 C 13.86,0.437 13.678,0.411 13.495,0.399 12.956,0.361 12.417,0.318 11.883,0.238 11.655,0.204 11.427,0.169 11.195,0.17 11.011,0.17 10.832,0.185 10.648,0.2 10.509,0.211 10.374,0.205 10.235,0.211 10.144,0.217 10.054,0.226 9.964,0.239 9.789,0.245 9.614,0.235 9.44,0.209 9.085,0.173 8.728,0.18 8.373,0.145 7.986,0.107 7.615,0.001 7.232,-0.052 6.935,-0.093 6.63,-0.082 6.331,-0.112 6.124,-0.133 5.924,-0.141 5.718,-0.115 5.26,-0.056 4.805,-0.001 4.343,0.021 3.723,0.051 3.099,0.095 2.478,0.074 2.145,0.063 1.814,0.017 1.481,-0.002 1.418,-0.006 1.356,-0.014 1.294,-0.028 1.206,-0.047 1.121,-0.08 1.03,-0.087 0.892,-0.096 0.756,-0.053 0.626,-0.017 0.436,0.035 0.269,0.027 0.083,0.006 0.055,0.003 0.028,0.001 0,0"
             style="fill:#231f20;fill-opacity:1;fill-rule:nonzero;stroke:none"
             id="path2898" />
        </g>
        <g
           id="g2900"
           transform="translate(474.882,260.774)">
          <path
             d="m 0,0 c -0.006,0.001 -0.012,0.002 -0.018,0.003 -0.067,0.011 -0.128,0.005 -0.196,-0.014 -0.03,-0.009 -0.054,-0.037 -0.081,-0.053 -0.163,-0.099 -0.145,-0.324 -0.158,-0.493 -0.015,-0.195 0.043,-0.381 0.069,-0.573 0.012,-0.097 0.033,-0.191 0.057,-0.287 0.027,-0.113 0.048,-0.223 0.046,-0.34 -0.002,-0.079 -0.008,-0.159 -0.011,-0.239 -0.001,-0.034 0,-0.067 -0.008,-0.101 -0.004,-0.019 -0.032,-0.058 -0.015,-0.079 0.013,-0.017 0.052,-0.009 0.07,-0.009 0.097,-0.003 0.193,-0.008 0.29,-0.012 0.135,-0.005 0.27,-0.008 0.405,-0.015 0.061,-0.004 0.077,0.009 0.083,0.072 0.02,0.213 -0.022,0.425 -0.011,0.638 0.005,0.109 -0.002,0.207 -0.024,0.314 -0.026,0.126 -0.025,0.253 -0.035,0.38 -0.011,0.147 -0.011,0.289 -0.006,0.436 0.003,0.055 0.024,0.145 0.009,0.199 C 0.457,-0.14 0.384,-0.089 0.352,-0.072 0.249,-0.018 0.114,-0.016 0,0"
             style="fill:#231f20;fill-opacity:1;fill-rule:nonzero;stroke:none"
             id="path2902" />
        </g>
        <g
           id="g2904"
           transform="translate(469.314,264.65)">
          <path
             d="m 0,0 c 0,-0.317 0.029,-0.632 0.049,-0.948 0.017,-0.28 0.037,-0.558 0.035,-0.838 -0.002,-0.18 0.007,-0.342 0.035,-0.518 0.019,-0.122 0.042,-0.237 0.07,-0.356 0.02,-0.088 0.049,-0.122 0.085,-0.195 0.042,-0.085 0.017,-0.209 0.095,-0.271 0.047,-0.039 0.134,-0.034 0.188,-0.037 0.096,-0.005 0.186,-0.002 0.278,0.035 0.037,0.024 0.077,0.036 0.119,0.035 0.026,-0.007 0.052,-0.005 0.077,0.005 0.062,0.048 0.032,0.256 0.032,0.321 0,0.582 0.057,1.19 -0.084,1.752 -0.048,0.192 -0.085,0.381 -0.106,0.58 -0.011,0.097 0.01,0.205 -0.01,0.3 C 0.769,-0.138 0.68,-0.1 0.582,-0.101 0.438,-0.102 0.309,-0.114 0,0"
             style="fill:#231f20;fill-opacity:1;fill-rule:nonzero;stroke:none"
             id="path2906" />
        </g>
        <g
           id="g2908"
           transform="translate(474.056,264.529)">
          <path
             d="M 0,0 C -0.035,-0.034 -0.028,-0.094 -0.029,-0.142 -0.033,-0.261 -0.028,-0.381 -0.022,-0.5 -0.001,-0.866 0,-1.226 0,-1.592 c 0,-0.221 0,-0.443 0,-0.663 0,-0.193 -0.025,-0.382 0.006,-0.57 0.006,-0.039 0.024,-0.068 0.028,-0.108 0.005,-0.04 0.014,-0.069 0.028,-0.108 0.024,-0.067 0.015,-0.13 0.107,-0.134 0.078,-0.003 0.157,10e-4 0.235,10e-4 0.096,-10e-4 0.144,0.016 0.222,0.074 0.078,0.058 0.09,0.098 0.112,0.193 0.031,0.131 0.097,0.244 0.102,0.381 0.004,0.097 0.006,0.185 0.02,0.282 0.01,0.064 0.01,0.112 0.037,0.171 0.013,0.028 0.02,0.043 0.024,0.075 0.027,0.191 0.029,0.392 0.037,0.584 0.018,0.379 0.068,0.768 0.051,1.147 C 1.002,-0.113 0.983,0.036 0.979,0.191 0.978,0.268 0.974,0.27 0.91,0.27 0.828,0.27 0.751,0.237 0.668,0.234 0.552,0.23 0.436,0.236 0.32,0.235 0.195,0.234 0.08,0.269 -0.046,0.269 -0.04,0.269 -0.034,0.269 0,0"
             style="fill:#231f20;fill-opacity:1;fill-rule:nonzero;stroke:none"
             id="path2910" />
        </g>
        <g
           id="g2912"
           transform="translate(479.731,263.532)">
          <path
             d="M 0,0 C -0.119,0.037 -0.019,-0.49 -0.014,-0.518 0,-0.599 0.027,-0.69 0.024,-0.772 c -0.011,0.014 -0.028,0.022 -0.046,0.019 -0.029,-0.154 -0.041,-0.299 -0.033,-0.458 0.005,-0.107 0.052,-0.213 0.022,-0.319 -0.019,-0.069 -0.06,-0.171 0.038,-0.189 0.087,-0.015 0.191,0.005 0.278,0.003 0.086,-0.001 0.152,-0.034 0.235,-0.05 0.06,-0.012 0.121,0.006 0.181,-0.009 0.074,-0.019 0.139,-0.081 0.216,-0.037 0.069,0.039 0.074,0.13 0.079,0.198 0.004,0.049 0.021,0.092 0.027,0.14 0.008,0.075 -0.007,0.137 -0.022,0.209 -0.018,0.084 -0.007,0.178 -0.011,0.264 -0.007,0.185 -0.023,0.369 -0.05,0.552 C 0.918,-0.31 0.914,-0.167 0.864,-0.035 0.846,0.016 0.836,0.052 0.828,0.103 0.803,0.106 0.78,0.109 0.755,0.111 0.752,0.136 0.75,0.16 0.747,0.185 0.707,0.181 0.683,0.152 0.645,0.14 0.565,0.113 0.475,0.104 0.392,0.08 0.258,0.042 0.137,0.024 -0.003,0.026 -0.07,0.027 -0.138,0.029 -0.205,0.025 -0.194,0.03 -0.188,0.04 0,0"
             style="fill:#231f20;fill-opacity:1;fill-rule:nonzero;stroke:none"
             id="path2914" />
        </g>
        <g
           id="g2916"
           transform="translate(463.199,263.125)">
          <path
             d="m 0,0 c -0.015,-0.007 -0.03,-0.013 -0.044,-0.02 -0.036,0.046 -0.009,0.179 -0.009,0.234 0.002,0.271 -0.03,0.54 -0.028,0.811 0,0.146 0,0.292 0.001,0.439 0,0.028 -0.016,0.108 0.001,0.131 0.016,0.024 0.092,0.026 0.123,0.033 C 0.216,1.666 0.395,1.712 0.571,1.72 0.677,1.724 0.777,1.736 0.882,1.745 0.939,1.75 0.954,1.752 0.967,1.702 0.979,1.655 0.966,1.584 0.965,1.536 0.965,1.417 0.958,1.323 0.939,1.212 0.926,1.135 0.926,1.041 0.945,0.966 0.973,0.856 1.003,0.786 1.074,0.697 1.164,0.584 1.286,0.507 1.383,0.402 1.431,0.35 1.455,0.307 1.523,0.274 1.566,0.252 1.618,0.243 1.633,0.194 1.596,0.191 1.587,0.168 1.557,0.154 1.518,0.134 1.471,0.124 1.428,0.114 1.352,0.096 1.3,0.051 1.234,0.013 1.128,-0.048 1.171,-0.176 1.053,-0.228 0.892,-0.301 0.748,-0.4 0.573,-0.442 0.485,-0.463 0.383,-0.432 0.298,-0.455 0.272,-0.462 0.268,-0.479 0.243,-0.484 0.217,-0.49 0.186,-0.479 0.16,-0.482 0.119,-0.487 0.083,-0.525 0.039,-0.509 c -0.058,0.022 -0.035,0.081 -0.045,0.131 -0.017,0.085 -0.007,0.175 -0.027,0.259 -0.006,0.024 -0.018,0.036 -0.021,0.065 C -0.057,-0.028 -0.053,0.001 0,0"
             style="fill:#231f20;fill-opacity:1;fill-rule:nonzero;stroke:none"
             id="path2918" />
        </g>
      </g>
    </g>
    <g
       id="g11982"
       transform="matrix(0.34202951,0,0,-0.34202951,-66.9071,221.36282)">
      <g
         id="g11980"
         clip-path="url(#clipPath2890)">
        <g
           id="g11954"
           transform="translate(476.667,253.532)">
          <path
             d="m 0,0 c 0.009,-0.057 0.017,-0.115 0.025,-0.172 0.027,-0.193 0.047,-0.387 0.07,-0.581 0.009,-0.075 0.009,-0.182 0.035,-0.253 0.034,0.007 0.022,0.06 0.025,0.091 0.027,0.286 0.148,0.567 0.227,0.842 0.108,0.378 0.153,0.771 0.255,1.15 0.03,0.109 0.07,0.213 0.1,0.321 C 0.775,1.542 0.794,1.69 0.832,1.834 0.858,1.931 0.908,2.015 0.933,2.109 0.99,2.325 0.915,2.524 1.042,2.721 1.17,2.917 1.167,3.166 1.174,3.392 1.187,3.744 1.198,4.094 1.2,4.446 1.202,4.759 1.149,5.071 1.096,5.379 1.053,5.63 1.024,5.897 0.901,6.125 0.812,6.29 0.737,6.425 0.734,6.619 0.727,7.026 0.792,7.462 0.722,7.865 0.708,7.946 0.675,8.023 0.66,8.104 0.618,8.321 0.732,8.581 0.817,8.777 0.858,8.869 0.93,8.933 0.979,9.02 1.03,9.11 1.07,9.203 1.119,9.294 1.156,9.362 1.184,9.434 1.23,9.496 1.274,9.556 1.296,9.537 1.301,9.625 1.306,9.731 1.245,9.789 1.215,9.89 1.194,9.961 1.161,10.035 1.147,10.109 c -0.012,0.067 0.006,0.135 -0.006,0.2 -0.011,0.058 -0.055,0.082 -0.073,0.127 -0.042,0.102 -0.056,0.234 -0.091,0.341 -0.076,0.229 -0.22,0.429 -0.261,0.67 -0.034,0.195 -0.005,0.349 0.054,0.532 0.071,0.218 0.048,0.455 0.048,0.681 0,0.28 0,0.559 -0.001,0.839 0,0.217 -0.016,0.426 0.048,0.636 0.024,0.081 0.022,0.103 0.016,0.198 -0.017,0.295 -0.04,0.589 -0.069,0.883 -0.054,0.55 -0.127,1.098 -0.201,1.646 -0.033,0.012 -0.068,0.013 -0.104,0.003 -0.095,-0.009 -0.187,0.007 -0.275,0.047 -0.189,0.105 -0.376,0.214 -0.561,0.328 -0.24,0.148 -0.559,0.182 -0.836,0.141 -0.077,-0.011 -0.151,-0.035 -0.229,-0.036 -0.123,-10e-4 -0.241,0.046 -0.364,0.048 -0.145,0.003 -0.288,-0.026 -0.432,-0.039 -0.38,-0.034 -0.72,0.051 -1.095,0.101 -0.303,0.041 -0.61,0.051 -0.916,0.074 -0.483,0.035 -0.958,0.05 -1.441,-0.01 -0.205,-0.034 -0.41,-0.061 -0.616,-0.08 -0.183,-0.005 -0.366,-0.009 -0.548,-0.013 -0.267,-0.022 -0.462,-0.077 -0.667,-0.236 -0.036,-0.027 -0.102,-0.011 -0.079,-0.076 0.017,-0.048 0.086,-0.025 0.125,-0.026 0.132,-0.003 0.255,-0.009 0.386,-0.03 0.23,-0.036 0.451,-0.106 0.682,-0.131 0.306,-0.033 0.562,-0.04 0.841,-0.185 0.257,-0.133 0.491,-0.21 0.771,-0.286 0.129,-0.026 0.251,-0.072 0.365,-0.138 0.086,-0.059 0.173,-0.116 0.262,-0.17 0.078,-0.047 0.219,-0.055 0.307,-0.057 0.053,-0.001 0.099,0.002 0.147,0.026 0.017,0.009 0.015,0.046 0.025,0.05 0.046,0.02 0.132,-0.01 0.183,-0.015 0.255,-0.027 0.517,-0.007 0.774,-0.009 0.254,-0.002 0.489,0.056 0.738,0.002 0.453,-0.098 0.881,0.038 1.33,0.039 0.027,0 0.262,0.027 0.296,-0.006 0.024,-0.023 0.007,-0.046 0.012,-0.072 0.01,-0.052 -0.001,-0.158 -0.001,-0.201 v -0.498 c 0,-0.487 0.001,-0.974 0.002,-1.461 0.001,-0.227 0.001,-0.455 0.001,-0.682 0.001,-0.212 0.048,-0.489 -0.006,-0.694 -0.018,0.022 -0.044,0.035 -0.072,0.03 C -0.43,12.592 -0.395,12.251 -0.405,12.204 -0.41,12.181 -0.437,12.147 -0.441,12.111 -0.451,12.018 -0.43,11.925 -0.43,11.832 -0.429,11.64 -0.44,11.462 -0.47,11.273 -0.51,11.026 -0.502,10.8 -0.592,10.566 -0.633,10.458 -0.646,10.365 -0.722,10.279 -0.858,10.125 -0.717,9.976 -0.721,9.801 -0.722,9.751 -0.736,9.707 -0.747,9.66 -0.769,9.573 -0.779,9.519 -0.721,9.442 -0.632,9.326 -0.552,9.254 -0.497,9.112 -0.449,8.987 -0.415,8.856 -0.35,8.738 -0.175,8.421 -0.17,8.057 -0.229,7.711 -0.294,7.34 -0.182,6.942 -0.163,6.569 -0.155,6.42 -0.151,6.271 -0.149,6.121 -0.148,6.008 -0.121,5.903 -0.121,5.789 -0.121,5.442 -0.101,5.091 -0.12,4.745 -0.123,4.686 -0.131,4.629 -0.144,4.572 -0.172,4.447 -0.192,4.328 -0.19,4.199 -0.184,3.826 -0.107,3.457 -0.102,3.084 -0.095,2.547 -0.161,2.011 -0.162,1.473 -0.162,1.227 -0.178,0.982 -0.129,0.74 -0.08,0.493 -0.037,0.248 0,0 m -9.764,0.535 c 0.014,0.077 0.026,0.154 0.035,0.231 0.029,0.226 0.05,0.459 0.048,0.687 -0.003,0.205 -0.02,0.439 0.056,0.634 0.028,0.071 0.049,0.135 0.057,0.212 0.006,0.068 -0.005,0.137 0.007,0.205 0.026,0.152 0.069,0.305 0.103,0.456 0.015,0.07 0.028,0.167 0.073,0.223 0.061,0.076 0.079,0.093 0.058,0.187 -0.024,0.109 -0.016,0.236 -0.018,0.348 -0.003,0.229 0.005,0.459 0.005,0.689 v 0.646 c 0,0.393 0.015,0.804 0.053,1.198 0.032,0.334 0.132,0.702 0.074,1.035 -0.051,0.285 -0.026,0.598 0.04,0.881 0.053,0.231 0.115,0.465 0.231,0.674 0.07,0.124 0.23,0.155 0.296,0.27 0.025,0.044 0.007,0.145 0.007,0.197 v 0.317 c 0,0.071 -0.012,0.153 0.003,0.221 0.016,0.075 0.052,0.119 0.038,0.203 -0.02,0.123 -0.133,0.195 -0.192,0.302 -0.093,0.168 -0.218,0.328 -0.247,0.527 -0.046,0.31 -0.043,0.614 -0.14,0.912 -0.056,0.169 -0.036,0.342 -0.022,0.517 0.037,0.451 0.105,0.9 0.148,1.35 0.068,0.715 0.181,1.438 0.026,2.151 -0.064,0.296 -0.05,0.596 -0.086,0.893 -0.013,0.109 -0.066,0.223 -0.092,0.332 -0.028,0.113 -0.046,0.234 -0.086,0.344 C -9.307,17.359 -9.33,17.341 -9.36,17.346 -9.389,17.291 -9.396,17.217 -9.409,17.158 -9.41,17.154 -9.41,17.15 -9.411,17.146 -9.436,17.023 -9.455,16.9 -9.479,16.777 c -0.062,-0.314 -0.163,-0.618 -0.262,-0.922 -0.077,-0.236 -0.125,-0.471 -0.148,-0.718 -0.012,-0.119 -0.019,-0.238 -0.04,-0.356 -0.024,-0.13 -0.066,-0.253 -0.098,-0.38 -0.04,-0.155 -0.057,-0.31 -0.055,-0.469 0.001,-0.098 0.003,-0.192 -0.013,-0.289 -0.021,-0.135 -0.08,-0.259 -0.1,-0.39 -0.027,-0.175 0.033,-0.338 0.038,-0.511 0.003,-0.114 -0.035,-0.241 -0.05,-0.354 -0.015,-0.113 -0.029,-0.226 -0.041,-0.339 -0.072,-0.677 -0.166,-1.36 -0.198,-2.04 -0.023,-0.49 -0.005,-0.978 0.026,-1.467 0.009,-0.129 -10e-4,-0.158 0.083,-0.252 0.11,-0.124 0.042,-0.35 0.043,-0.495 0.001,-0.269 -0.015,-0.541 0.012,-0.808 0.022,-0.216 0.013,-0.434 0.013,-0.651 0,-0.236 -0.002,-0.472 0,-0.708 10e-4,-0.113 0.006,-0.22 -0.025,-0.33 -0.022,-0.08 -0.026,-0.138 -0.025,-0.221 0.006,-0.451 -0.008,-0.902 -10e-4,-1.352 0.005,-0.235 0.07,-0.491 10e-4,-0.723 -0.022,-0.074 -0.045,-0.14 -0.048,-0.219 -0.011,-0.259 0,-0.521 0,-0.78 0,-0.248 -10e-4,-0.497 0,-0.745 0,-0.267 -0.02,-0.538 0.026,-0.801 0.038,-0.212 0.074,-0.425 0.11,-0.637 0.021,-0.123 0.072,-0.224 0.122,-0.339 0.057,-0.131 0.099,-0.261 0.143,-0.396 -0.021,0.494 0.118,0.968 0.202,1.45"
             style="fill:#231f20;fill-opacity:1;fill-rule:nonzero;stroke:none"
             id="path11952" />
        </g>
        <g
           id="g11958"
           transform="translate(464.379,263.601)">
          <path
             d="m 0,0 c -0.111,-0.005 -0.225,0.001 -0.334,0.002 -0.085,0.001 -0.169,0.017 -0.216,-0.052 -0.042,-0.062 -0.028,-0.142 -0.027,-0.211 0,-0.175 -0.059,-0.342 -0.061,-0.514 -0.001,-0.061 -0.021,-0.119 0.045,-0.136 0.035,-0.009 0.076,0.001 0.114,-0.005 0.046,-0.007 0.085,-0.021 0.133,-0.021 0.077,0 0.146,0.018 0.218,0.04 0.074,0.023 0.145,0.029 0.224,0.023 0.098,-0.008 0.144,-0.059 0.231,-0.085 0.041,-0.012 0.09,-0.011 0.133,-0.013 0.077,-0.003 0.164,-0.009 0.24,0.005 0.088,0.017 0.149,0.028 0.245,0.028 0.092,-0.001 0.179,0.001 0.27,-0.014 0.128,-0.021 0.259,-0.014 0.39,-0.013 0.161,0.001 0.317,-0.03 0.478,-0.029 0.204,0.001 0.423,0.004 0.625,-0.028 0.071,-0.012 0.141,-0.024 0.213,-0.029 0.431,-0.029 0.861,-0.028 1.292,-0.074 0.294,-0.031 0.585,-0.063 0.878,-0.106 0.147,-0.023 0.297,-0.033 0.446,-0.042 0.1,-0.006 0.189,-0.03 0.287,-0.047 0.176,-0.029 0.341,0.004 0.517,0.03 0.218,0.031 0.436,0.062 0.652,0.101 0.79,0.142 1.594,0.246 2.398,0.298 0.408,0.027 0.817,0.06 1.226,0.082 0.204,0.011 0.409,0.018 0.614,0.02 0.09,0.001 0.178,-0.003 0.268,-0.006 0.029,0 0.052,0 0.081,0.006 0.141,0.026 0.287,0.07 0.427,0.103 0.291,0.067 0.581,0.045 0.878,0.04 0.199,-0.003 0.398,-0.014 0.596,-0.011 0.127,0.001 0.277,-0.007 0.4,0.018 0.027,0.006 0.049,0.012 0.071,0.027 0.034,0.023 0.05,0.061 0.083,0.085 0.108,0.075 0.326,0.026 0.453,0.023 0.102,-0.003 0.204,-0.016 0.304,-0.005 0.032,0.003 0.058,0.008 0.091,0.005 0.073,-0.006 0.133,-0.035 0.191,-0.077 0.063,-0.047 0.096,-0.087 0.126,-0.155 0.042,-0.095 0.091,-0.247 0.235,-0.182 0.173,0.08 0.191,0.311 0.303,0.444 0.055,0.065 0.115,0.025 0.189,0.026 0.089,0.002 0.197,0.072 0.227,0.152 0.045,0.121 0.029,0.267 0.028,0.393 0,0.12 -0.002,0.241 0,0.361 0.001,0.074 -0.007,0.081 -0.09,0.08 -0.092,-0.002 -0.185,0 -0.277,0.001 -0.057,0 -0.118,0.015 -0.174,0.001 -0.023,-0.006 -0.04,-0.022 -0.061,-0.028 -0.065,-0.016 -0.161,0.001 -0.228,0.001 -0.09,0 -0.181,0 -0.272,0 -0.102,0 -0.204,0 -0.306,0 -0.156,0.001 -0.273,0.013 -0.422,-0.039 -0.047,-0.016 -0.091,-0.032 -0.141,-0.037 -0.055,-0.005 -0.112,0 -0.167,0 C 13.86,0.437 13.678,0.411 13.495,0.399 12.956,0.361 12.417,0.318 11.883,0.238 11.655,0.204 11.427,0.169 11.195,0.17 11.011,0.17 10.832,0.185 10.648,0.2 10.509,0.211 10.374,0.205 10.235,0.211 10.144,0.217 10.054,0.226 9.964,0.239 9.789,0.245 9.614,0.235 9.44,0.209 9.085,0.173 8.728,0.18 8.373,0.145 7.986,0.107 7.615,0.001 7.232,-0.052 6.935,-0.093 6.63,-0.082 6.331,-0.112 6.124,-0.133 5.924,-0.141 5.718,-0.115 5.26,-0.056 4.805,-0.001 4.343,0.021 3.723,0.051 3.099,0.095 2.478,0.074 2.145,0.063 1.814,0.017 1.481,-0.002 1.418,-0.006 1.356,-0.014 1.294,-0.028 1.206,-0.047 1.121,-0.08 1.03,-0.087 0.892,-0.096 0.756,-0.053 0.626,-0.017 0.436,0.035 0.269,0.027 0.083,0.006 0.055,0.003 0.028,0.001 0,0"
             style="fill:#231f20;fill-opacity:1;fill-rule:nonzero;stroke:none"
             id="path11956" />
        </g>
        <g
           id="g11962"
           transform="translate(474.882,260.774)">
          <path
             d="m 0,0 c -0.006,0.001 -0.012,0.002 -0.018,0.003 -0.067,0.011 -0.128,0.005 -0.196,-0.014 -0.03,-0.009 -0.054,-0.037 -0.081,-0.053 -0.163,-0.099 -0.145,-0.324 -0.158,-0.493 -0.015,-0.195 0.043,-0.381 0.069,-0.573 0.012,-0.097 0.033,-0.191 0.057,-0.287 0.027,-0.113 0.048,-0.223 0.046,-0.34 -0.002,-0.079 -0.008,-0.159 -0.011,-0.239 -0.001,-0.034 0,-0.067 -0.008,-0.101 -0.004,-0.019 -0.032,-0.058 -0.015,-0.079 0.013,-0.017 0.052,-0.009 0.07,-0.009 0.097,-0.003 0.193,-0.008 0.29,-0.012 0.135,-0.005 0.27,-0.008 0.405,-0.015 0.061,-0.004 0.077,0.009 0.083,0.072 0.02,0.213 -0.022,0.425 -0.011,0.638 0.005,0.109 -0.002,0.207 -0.024,0.314 -0.026,0.126 -0.025,0.253 -0.035,0.38 -0.011,0.147 -0.011,0.289 -0.006,0.436 0.003,0.055 0.024,0.145 0.009,0.199 C 0.457,-0.14 0.384,-0.089 0.352,-0.072 0.249,-0.018 0.114,-0.016 0,0"
             style="fill:#231f20;fill-opacity:1;fill-rule:nonzero;stroke:none"
             id="path11960" />
        </g>
        <g
           id="g11966"
           transform="translate(469.314,264.65)">
          <path
             d="m 0,0 c 0,-0.317 0.029,-0.632 0.049,-0.948 0.017,-0.28 0.037,-0.558 0.035,-0.838 -0.002,-0.18 0.007,-0.342 0.035,-0.518 0.019,-0.122 0.042,-0.237 0.07,-0.356 0.02,-0.088 0.049,-0.122 0.085,-0.195 0.042,-0.085 0.017,-0.209 0.095,-0.271 0.047,-0.039 0.134,-0.034 0.188,-0.037 0.096,-0.005 0.186,-0.002 0.278,0.035 0.037,0.024 0.077,0.036 0.119,0.035 0.026,-0.007 0.052,-0.005 0.077,0.005 0.062,0.048 0.032,0.256 0.032,0.321 0,0.582 0.057,1.19 -0.084,1.752 -0.048,0.192 -0.085,0.381 -0.106,0.58 -0.011,0.097 0.01,0.205 -0.01,0.3 C 0.769,-0.138 0.68,-0.1 0.582,-0.101 0.438,-0.102 0.309,-0.114 0,0"
             style="fill:#231f20;fill-opacity:1;fill-rule:nonzero;stroke:none"
             id="path11964" />
        </g>
        <g
           id="g11970"
           transform="translate(474.056,264.529)">
          <path
             d="M 0,0 C -0.035,-0.034 -0.028,-0.094 -0.029,-0.142 -0.033,-0.261 -0.028,-0.381 -0.022,-0.5 -0.001,-0.866 0,-1.226 0,-1.592 c 0,-0.221 0,-0.443 0,-0.663 0,-0.193 -0.025,-0.382 0.006,-0.57 0.006,-0.039 0.024,-0.068 0.028,-0.108 0.005,-0.04 0.014,-0.069 0.028,-0.108 0.024,-0.067 0.015,-0.13 0.107,-0.134 0.078,-0.003 0.157,10e-4 0.235,10e-4 0.096,-10e-4 0.144,0.016 0.222,0.074 0.078,0.058 0.09,0.098 0.112,0.193 0.031,0.131 0.097,0.244 0.102,0.381 0.004,0.097 0.006,0.185 0.02,0.282 0.01,0.064 0.01,0.112 0.037,0.171 0.013,0.028 0.02,0.043 0.024,0.075 0.027,0.191 0.029,0.392 0.037,0.584 0.018,0.379 0.068,0.768 0.051,1.147 C 1.002,-0.113 0.983,0.036 0.979,0.191 0.978,0.268 0.974,0.27 0.91,0.27 0.828,0.27 0.751,0.237 0.668,0.234 0.552,0.23 0.436,0.236 0.32,0.235 0.195,0.234 0.08,0.269 -0.046,0.269 -0.04,0.269 -0.034,0.269 0,0"
             style="fill:#231f20;fill-opacity:1;fill-rule:nonzero;stroke:none"
             id="path11968" />
        </g>
        <g
           id="g11974"
           transform="translate(479.731,263.532)">
          <path
             d="M 0,0 C -0.119,0.037 -0.019,-0.49 -0.014,-0.518 0,-0.599 0.027,-0.69 0.024,-0.772 c -0.011,0.014 -0.028,0.022 -0.046,0.019 -0.029,-0.154 -0.041,-0.299 -0.033,-0.458 0.005,-0.107 0.052,-0.213 0.022,-0.319 -0.019,-0.069 -0.06,-0.171 0.038,-0.189 0.087,-0.015 0.191,0.005 0.278,0.003 0.086,-0.001 0.152,-0.034 0.235,-0.05 0.06,-0.012 0.121,0.006 0.181,-0.009 0.074,-0.019 0.139,-0.081 0.216,-0.037 0.069,0.039 0.074,0.13 0.079,0.198 0.004,0.049 0.021,0.092 0.027,0.14 0.008,0.075 -0.007,0.137 -0.022,0.209 -0.018,0.084 -0.007,0.178 -0.011,0.264 -0.007,0.185 -0.023,0.369 -0.05,0.552 C 0.918,-0.31 0.914,-0.167 0.864,-0.035 0.846,0.016 0.836,0.052 0.828,0.103 0.803,0.106 0.78,0.109 0.755,0.111 0.752,0.136 0.75,0.16 0.747,0.185 0.707,0.181 0.683,0.152 0.645,0.14 0.565,0.113 0.475,0.104 0.392,0.08 0.258,0.042 0.137,0.024 -0.003,0.026 -0.07,0.027 -0.138,0.029 -0.205,0.025 -0.194,0.03 -0.188,0.04 0,0"
             style="fill:#231f20;fill-opacity:1;fill-rule:nonzero;stroke:none"
             id="path11972" />
        </g>
        <g
           id="g11978"
           transform="translate(463.199,263.125)">
          <path
             d="m 0,0 c -0.015,-0.007 -0.03,-0.013 -0.044,-0.02 -0.036,0.046 -0.009,0.179 -0.009,0.234 0.002,0.271 -0.03,0.54 -0.028,0.811 0,0.146 0,0.292 0.001,0.439 0,0.028 -0.016,0.108 0.001,0.131 0.016,0.024 0.092,0.026 0.123,0.033 C 0.216,1.666 0.395,1.712 0.571,1.72 0.677,1.724 0.777,1.736 0.882,1.745 0.939,1.75 0.954,1.752 0.967,1.702 0.979,1.655 0.966,1.584 0.965,1.536 0.965,1.417 0.958,1.323 0.939,1.212 0.926,1.135 0.926,1.041 0.945,0.966 0.973,0.856 1.003,0.786 1.074,0.697 1.164,0.584 1.286,0.507 1.383,0.402 1.431,0.35 1.455,0.307 1.523,0.274 1.566,0.252 1.618,0.243 1.633,0.194 1.596,0.191 1.587,0.168 1.557,0.154 1.518,0.134 1.471,0.124 1.428,0.114 1.352,0.096 1.3,0.051 1.234,0.013 1.128,-0.048 1.171,-0.176 1.053,-0.228 0.892,-0.301 0.748,-0.4 0.573,-0.442 0.485,-0.463 0.383,-0.432 0.298,-0.455 0.272,-0.462 0.268,-0.479 0.243,-0.484 0.217,-0.49 0.186,-0.479 0.16,-0.482 0.119,-0.487 0.083,-0.525 0.039,-0.509 c -0.058,0.022 -0.035,0.081 -0.045,0.131 -0.017,0.085 -0.007,0.175 -0.027,0.259 -0.006,0.024 -0.018,0.036 -0.021,0.065 C -0.057,-0.028 -0.053,0.001 0,0"
             style="fill:#231f20;fill-opacity:1;fill-rule:nonzero;stroke:none"
             id="path11976" />
        </g>
      </g>
    </g>
  </g>
</svg>
