<?xml version="1.0" encoding="UTF-8" standalone="no"?>
<!-- Created with Inkscape (http://www.inkscape.org/) -->

<svg
   width="6.8354125mm"
   height="6.8284059mm"
   viewBox="0 0 6.8354125 6.8284059"
   version="1.1"
   id="svg9979"
   inkscape:version="1.2.1 (9c6d41e4, 2022-07-14)"
   sodipodi:docname="ancient_evils.svg"
   xmlns:inkscape="http://www.inkscape.org/namespaces/inkscape"
   xmlns:sodipodi="http://sodipodi.sourceforge.net/DTD/sodipodi-0.dtd"
   xmlns="http://www.w3.org/2000/svg"
   xmlns:svg="http://www.w3.org/2000/svg">
  <sodipodi:namedview
     id="namedview9981"
     pagecolor="#505050"
     bordercolor="#eeeeee"
     borderopacity="1"
     inkscape:showpageshadow="0"
     inkscape:pageopacity="0"
     inkscape:pagecheckerboard="0"
     inkscape:deskcolor="#505050"
     inkscape:document-units="mm"
     showgrid="false"
     inkscape:zoom="0.70199214"
     inkscape:cx="-21.367761"
     inkscape:cy="262.1112"
     inkscape:window-width="1390"
     inkscape:window-height="938"
     inkscape:window-x="0"
     inkscape:window-y="25"
     inkscape:window-maximized="0"
     inkscape:current-layer="layer1" />
  <defs
     id="defs9976">
    <clipPath
       clipPathUnits="userSpaceOnUse"
       id="clipPath1462">
      <path
         d="m 180.869,100.174 h 24.699 v 24.699 h -24.699 z"
         id="path1460" />
    </clipPath>
  </defs>
  <g
     inkscape:label="Layer 1"
     inkscape:groupmode="layer"
     id="layer1"
     transform="translate(-110.78407,-79.12768)">
    <g
       id="g1456"
       transform="matrix(0.35277777,0,0,-0.35277777,45.873599,122.04713)">
      <g
         id="g1458"
         clip-path="url(#clipPath1462)">
        <g
           id="g1464"
           transform="translate(189.532,116.64)">
          <path
             d="m 0,0 c 0.017,-0.007 0.034,-0.015 0.051,-0.024 0.343,-0.17 0.662,-0.386 0.867,-0.719 0.031,-0.05 0.057,-0.109 0.121,-0.11 0.012,0.08 -0.021,0.175 -0.034,0.255 C 0.894,0.073 0.72,0.721 0.59,1.387 0.543,1.628 0.511,1.874 0.471,2.117 0.441,2.299 0.411,2.48 0.381,2.662 0.368,2.74 0.312,2.871 0.381,2.932 0.31,2.723 0.204,2.516 0.089,2.326 0.034,2.236 -0.033,2.177 -0.097,2.094 -0.161,2.01 -0.221,1.944 -0.262,1.846 -0.338,1.664 -0.413,1.592 -0.595,1.522 -0.724,1.473 -0.822,1.407 -0.913,1.305 -1.005,1.202 -1.096,1.11 -1.221,1.045 -1.38,0.962 -1.559,0.951 -1.733,0.923 -1.779,0.916 -1.9,0.928 -1.896,0.856 -1.895,0.83 -1.812,0.764 -1.794,0.75 -1.71,0.681 -1.599,0.659 -1.512,0.595 -1.416,0.523 -1.325,0.472 -1.211,0.428 -1.112,0.39 -1.01,0.386 -0.915,0.335 -0.829,0.289 -0.744,0.245 -0.654,0.205 -0.438,0.112 -0.215,0.093 0,0"
             style="fill:#231f20;fill-opacity:1;fill-rule:nonzero;stroke:none"
             id="path1466" />
        </g>
        <g
           id="g1468"
           transform="translate(197.432,117.964)">
          <path
             d="M 0,0 C -0.061,0.026 -0.096,0.062 -0.151,0.11 -0.25,0.194 -0.375,0.207 -0.471,0.283 -0.525,0.327 -0.56,0.397 -0.604,0.45 -0.662,0.519 -0.73,0.579 -0.786,0.649 -0.878,0.762 -0.946,0.893 -1.037,1.008 -1.143,1.142 -1.227,1.298 -1.255,1.466 -1.227,1.379 -1.262,1.252 -1.286,1.168 -1.365,0.883 -1.463,0.583 -1.597,0.32 -1.625,0.264 -1.658,0.213 -1.697,0.164 c -0.065,-0.08 -0.13,-0.146 -0.166,-0.246 -0.056,-0.157 -0.072,-0.33 -0.123,-0.491 -0.051,-0.162 -0.115,-0.321 -0.196,-0.471 -0.083,-0.153 -0.136,-0.323 -0.201,-0.485 -0.023,-0.057 -0.149,-0.197 -0.126,-0.255 0.123,0.019 0.208,-0.096 0.343,-0.076 0.089,0.012 0.16,0.064 0.244,0.087 0.083,0.023 0.173,0.014 0.255,0.044 0.116,0.043 0.248,0.064 0.343,0.142 0.063,0.052 0.119,0.106 0.168,0.171 0.06,0.078 0.107,0.174 0.177,0.242 0.049,0.047 0.097,0.056 0.155,0.084 0.055,0.027 0.095,0.073 0.146,0.104 0.114,0.069 0.245,0.146 0.368,0.194 0.16,0.061 0.27,0.146 0.408,0.25 0.123,0.093 0.262,0.257 0.404,0.311 0.073,0.028 0.179,0.034 0.26,0.041 -0.095,0.026 -0.15,0.089 -0.255,0.085 C 0.457,-0.107 0.408,-0.137 0.356,-0.128 0.295,-0.119 0.252,-0.068 0.199,-0.043 0.145,-0.018 0.092,-0.03 0.04,-0.014 0.025,-0.01 0.012,-0.005 0,0"
             style="fill:#231f20;fill-opacity:1;fill-rule:nonzero;stroke:none"
             id="path1470" />
        </g>
        <g
           id="g1472"
           transform="translate(197.141,111.195)">
          <path
             d="m 0,0 c -0.152,0.051 -0.274,0.114 -0.404,0.212 -0.075,0.057 -0.164,0.187 -0.259,0.199 0.187,0.012 0.369,0.048 0.56,0.049 C 0.241,0.462 0.553,0.417 0.889,0.353 1.165,0.3 1.447,0.204 1.726,0.178 1.893,0.162 2.06,0.162 2.228,0.168 2.435,0.175 2.649,0.235 2.855,0.267 3.013,0.292 3.165,0.344 3.318,0.383 3.435,0.412 3.515,0.634 3.637,0.596 3.588,0.477 3.475,0.391 3.407,0.285 3.296,0.111 3.247,-0.08 3.124,-0.249 3.081,-0.309 3.021,-0.373 2.993,-0.443 2.973,-0.493 2.968,-0.535 2.939,-0.585 2.905,-0.643 2.848,-0.675 2.815,-0.726 2.779,-0.781 2.773,-0.858 2.766,-0.921 2.754,-1.039 2.711,-1.151 2.701,-1.267 2.695,-1.347 2.719,-1.428 2.732,-1.507 2.753,-1.634 2.873,-1.969 2.629,-1.87 2.556,-1.84 2.467,-1.733 2.406,-1.677 2.317,-1.594 2.225,-1.533 2.133,-1.462 2.031,-1.383 1.989,-1.298 1.871,-1.24 1.75,-1.181 1.647,-1.104 1.529,-1.036 1.384,-0.951 1.231,-0.859 1.134,-0.728 1.017,-0.569 0.883,-0.361 0.692,-0.292 0.457,-0.206 0.237,-0.08 0,0"
             style="fill:#231f20;fill-opacity:1;fill-rule:nonzero;stroke:none"
             id="path1474" />
        </g>
        <g
           id="g1476"
           transform="translate(194.522,109.372)">
          <path
             d="m 0,0 c 0.003,-0.001 0.007,-0.002 0.01,-0.004 0.023,-0.011 0.067,-0.188 0.082,-0.215 0.133,-0.231 0.233,-0.5 0.329,-0.749 0.02,-0.053 0.036,-0.106 0.046,-0.161 0.014,-0.083 0.009,-0.168 0.032,-0.249 0.075,-0.265 0.316,-0.51 0.469,-0.735 C 1.225,-2.494 1.544,-2.806 1.834,-3.158 1.948,-3.296 1.86,-3.442 1.676,-3.402 1.569,-3.379 1.477,-3.312 1.366,-3.297 1.261,-3.282 1.155,-3.301 1.05,-3.287 0.917,-3.268 0.833,-3.209 0.696,-3.229 0.39,-3.275 0.069,-3.296 -0.193,-3.467 -0.39,-3.596 -0.54,-3.767 -0.727,-3.908 -0.832,-3.987 -0.95,-4.045 -0.965,-4.187 c -0.049,0.194 0.009,0.419 0.064,0.604 0.042,0.14 0.091,0.277 0.057,0.419 -0.023,0.099 -0.046,0.187 -0.036,0.289 0.02,0.211 0.123,0.403 0.17,0.608 0.09,0.384 0.162,0.769 0.301,1.138 0.041,0.108 0.066,0.22 0.119,0.324 0.079,0.158 0.096,0.313 0.115,0.487 C -0.168,-0.256 -0.09,0.024 0,0"
             style="fill:#231f20;fill-opacity:1;fill-rule:nonzero;stroke:none"
             id="path1478" />
        </g>
        <g
           id="g1480"
           transform="translate(189.426,110.084)">
          <path
             d="m 0,0 c -0.236,-0.27 -0.462,-0.522 -0.77,-0.705 -0.14,-0.083 -0.232,-0.197 -0.329,-0.326 -0.053,-0.072 -0.125,-0.132 -0.172,-0.209 -0.03,-0.049 -0.044,-0.158 -0.106,-0.176 -0.036,0.073 -0.018,0.218 -0.021,0.299 -0.006,0.182 -0.042,0.51 -0.248,0.577 -0.079,0.025 -0.15,-0.004 -0.223,0.051 -0.039,0.029 -0.053,0.079 -0.091,0.107 -0.045,0.032 -0.103,0.031 -0.149,0.062 -0.057,0.038 -0.094,0.102 -0.136,0.155 -0.104,0.129 -0.186,0.226 -0.32,0.328 -0.061,0.047 -0.226,0.146 -0.229,0.231 0.094,0.051 0.204,0.018 0.306,0.017 0.096,-0.002 0.184,0.018 0.278,0.034 0.25,0.042 0.479,0.129 0.728,0.173 0.217,0.039 0.421,0.124 0.638,0.164 0.173,0.031 0.334,0.066 0.494,0.143 0.136,0.066 0.282,0.171 0.441,0.152 C 0.723,1.005 0.166,0.191 0,0"
             style="fill:#231f20;fill-opacity:1;fill-rule:nonzero;stroke:none"
             id="path1482" />
        </g>
        <g
           id="g1484"
           transform="translate(197.687,113.595)">
          <path
             d="M 0,0 C -0.045,0.121 -0.106,0.228 -0.192,0.308 -0.32,0.426 -0.388,0.511 -0.452,0.679 -0.528,0.882 -0.587,1.11 -0.688,1.303 -0.794,1.503 -0.939,1.649 -1.155,1.715 -1.286,1.754 -1.553,1.681 -1.624,1.561 -1.732,1.378 -1.809,1.194 -1.754,0.985 c 0.056,-0.212 0.137,-0.433 0.207,-0.641 0.09,-0.269 0.189,-0.522 0.205,-0.809 0.014,-0.244 0.008,-0.531 -0.042,-0.772 C -1.402,-1.32 -1.438,-1.38 -1.435,-1.466 -1.427,-1.752 -1.437,-2.03 -1.55,-2.302 -1.749,-2.785 -2.135,-3.132 -2.53,-3.45 -2.735,-3.616 -2.976,-3.807 -3.228,-3.887 -3.48,-3.966 -3.755,-3.935 -4.013,-3.971 -4.381,-4.023 -4.716,-4.086 -5.09,-4.074 c -0.328,0.011 -0.651,0.053 -0.954,0.19 -0.479,0.218 -0.823,0.785 -1.022,1.252 -0.087,0.206 -0.182,0.41 -0.252,0.622 -0.069,0.207 -0.092,0.42 -0.129,0.634 -0.02,0.112 -0.047,0.224 -0.049,0.338 -0.002,0.104 0.023,0.208 0.021,0.312 -0.003,0.171 -0.022,0.331 -0.01,0.505 0.027,0.373 0.022,0.747 0.058,1.119 0.023,0.237 0.054,0.385 0.164,0.604 0.069,0.139 0.157,0.264 0.231,0.4 0.084,0.154 0.188,0.245 0.31,0.365 -0.014,0.005 -0.028,0.008 -0.042,0.01 0.033,0.197 0.403,0.264 0.563,0.324 0.071,0.027 0.143,0.051 0.216,0.068 0.118,0.027 0.238,0.034 0.358,0.049 0.179,0.021 0.353,0.071 0.531,0.092 0.095,0.011 0.185,0.01 0.273,-0.029 0.079,-0.035 0.143,-0.098 0.231,-0.112 0.197,-0.032 0.383,0.16 0.543,0.256 0.059,0.035 0.127,0.058 0.185,0.095 0.076,0.05 0.132,0.115 0.21,0.161 0.141,0.081 0.239,0.226 0.24,0.401 0.001,0.169 -0.083,0.217 -0.239,0.252 C -3.928,3.896 -4.157,3.77 -4.428,3.78 -4.543,3.785 -4.707,3.806 -4.802,3.876 -4.852,3.913 -4.872,3.963 -4.932,3.99 -4.998,4.02 -5.087,4.022 -5.157,4.01 -5.231,3.999 -5.304,3.985 -5.379,3.973 -5.505,3.952 -5.63,3.931 -5.476,3.864 -5.521,3.867 -5.568,3.852 -5.613,3.845 -5.843,3.807 -6.059,3.746 -6.266,3.634 -6.559,3.475 -6.771,3.22 -7.037,3.025 -7.329,2.812 -7.64,2.575 -7.856,2.279 -8.02,2.054 -8.222,1.877 -8.371,1.638 -8.573,1.314 -8.715,1.016 -8.818,0.645 -8.888,0.389 -8.965,0.133 -8.982,-0.134 c -0.025,-0.369 0.104,-0.735 0.134,-1.101 0.028,-0.332 0.076,-0.653 0.129,-0.982 0.047,-0.289 0.052,-0.585 0.219,-0.834 0.352,-0.525 0.658,-1.079 1.129,-1.507 0.366,-0.331 0.794,-0.704 1.249,-0.891 0.253,-0.104 0.504,-0.186 0.779,-0.188 0.335,-0.002 0.659,0.083 0.992,0.103 0.357,0.021 0.603,0.083 0.918,0.257 0.291,0.161 0.59,0.277 0.865,0.468 0.266,0.186 0.531,0.369 0.817,0.52 0.276,0.146 0.557,0.267 0.806,0.46 0.212,0.165 0.411,0.342 0.543,0.582 0.095,0.172 0.173,0.365 0.255,0.543 0.162,0.35 0.293,0.736 0.323,1.123 0.018,0.222 0.008,0.442 -0.022,0.662 C 0.119,-0.656 0.107,-0.289 0,0"
             style="fill:#231f20;fill-opacity:1;fill-rule:nonzero;stroke:none"
             id="path1486" />
        </g>
        <g
           id="g1488"
           transform="translate(194.287,113.536)">
          <path
             d="M 0,0 C -0.079,0.083 -0.248,0.256 -0.358,0.296 -0.502,0.348 -0.648,0.225 -0.794,0.306 -0.851,0.338 -0.91,0.378 -0.958,0.418 -1.043,0.487 -1.075,0.529 -1.191,0.503 -1.254,0.489 -1.284,0.456 -1.343,0.436 -1.411,0.413 -1.452,0.393 -1.5,0.329 -1.51,0.316 -1.517,0.301 -1.522,0.29 c -0.006,-0.025 -0.007,-0.018 0,0 0.005,0.018 0.014,0.054 0.025,0.121 -0.124,-0.027 -0.169,-0.237 -0.205,-0.333 -0.11,-0.298 -0.269,-0.66 -0.211,-0.988 0.04,-0.232 0.125,-0.336 0.334,-0.427 0.085,-0.037 0.167,-0.07 0.232,-0.141 0.057,-0.062 0.086,-0.12 0.17,-0.151 0.198,-0.074 0.445,0.002 0.652,-0.002 0.207,-0.005 0.351,0.036 0.508,0.183 0.093,0.088 0.165,0.244 0.218,0.359 0.095,0.203 0.07,0.435 0.003,0.644 C 0.158,-0.299 0.106,-0.111 0,0"
             style="fill:#231f20;fill-opacity:1;fill-rule:nonzero;stroke:none"
             id="path1490" />
        </g>
        <g
           id="g1492"
           transform="translate(194.538,106.712)">
          <path
             d="M 0,0 0.518,0.281 C 0.339,0.263 0.166,0.1 0,0"
             style="fill:#231f20;fill-opacity:1;fill-rule:nonzero;stroke:none"
             id="path1494" />
        </g>
        <g
           id="g1496"
           transform="translate(194.461,106.671)">
          <path
             d="M 0,0 C 0.025,0.012 0.051,0.026 0.077,0.042 Z"
             style="fill:#231f20;fill-opacity:1;fill-rule:nonzero;stroke:none"
             id="path1498" />
        </g>
        <g
           id="g1500"
           transform="translate(196.414,104.706)">
          <path
             d="m 0,0 c 0.013,-0.097 0.012,-0.17 0.004,-0.27 -0.009,-0.107 0.012,-0.242 -0.021,-0.347 -0.031,-0.097 -0.093,-0.185 -0.129,-0.282 -0.055,-0.15 -0.11,-0.233 -0.219,-0.345 -0.095,-0.097 -0.174,-0.201 -0.307,-0.25 -0.092,-0.034 -0.198,-0.037 -0.295,-0.052 -0.194,-0.032 -0.446,-0.116 -0.64,-0.083 -0.133,0.023 -0.273,0.105 -0.4,0.154 -0.149,0.057 -0.297,0.308 -0.368,0.442 -0.054,0.103 -0.067,0.213 -0.087,0.325 -0.015,0.076 -0.034,0.152 -0.054,0.227 -0.03,0.111 -0.07,0.226 -0.063,0.342 0.013,0.233 0.187,0.439 0.357,0.583 0.088,0.074 0.194,0.123 0.28,0.198 0.109,0.095 0.183,0.211 0.31,0.288 0.171,0.104 0.322,0.111 0.507,0.047 0.084,-0.03 0.166,-0.062 0.254,-0.077 0.117,-0.02 0.248,0.017 0.36,-0.015 C -0.356,0.84 -0.266,0.665 -0.169,0.549 -0.042,0.396 -0.026,0.192 0,0 M 0.017,1.31 C -0.214,1.554 -0.668,1.809 -1.039,1.898 -1.27,1.953 -1.539,1.984 -1.784,1.953 -1.86,1.943 -1.953,1.935 -2.037,1.919 l 0.084,0.046 C -1.955,1.964 -1.957,1.963 -1.959,1.962 -1.989,1.948 -2.018,1.933 -2.048,1.918 -2.079,1.912 -2.108,1.905 -2.135,1.897 -2.278,1.852 -2.314,1.775 -2.429,1.707 l 0.207,0.112 C -2.469,1.662 -2.673,1.46 -2.842,1.24 -3.337,0.597 -3.4,-0.302 -3.32,-1.01 c 0.035,-0.304 0.09,-0.537 0.383,-0.729 0.342,-0.224 0.777,-0.347 1.151,-0.532 0.332,-0.165 0.673,-0.123 1.067,-0.129 0.379,-0.006 0.553,0.039 0.794,0.318 C 0.977,-1.04 0.9,0.376 0.017,1.31"
             style="fill:#231f20;fill-opacity:1;fill-rule:nonzero;stroke:none"
             id="path1502" />
        </g>
        <g
           id="g1504"
           transform="translate(187.165,108.68)">
          <path
             d="M 0,0 C -0.057,-0.064 -0.116,-0.144 -0.186,-0.192 -0.24,-0.228 -0.298,-0.246 -0.349,-0.289 -0.444,-0.37 -0.525,-0.487 -0.638,-0.545 -0.7,-0.577 -0.769,-0.595 -0.831,-0.628 c -0.115,-0.061 -0.214,-0.141 -0.34,-0.182 -0.115,-0.036 -0.228,-0.011 -0.344,-0.044 -0.115,-0.032 -0.21,-0.079 -0.333,-0.078 -0.113,0.001 -0.237,0.033 -0.343,0.076 -0.201,0.08 -0.182,0.18 -0.16,0.368 0.024,0.212 0.057,0.431 0.114,0.638 0.056,0.204 0.163,0.374 0.251,0.564 0.113,0.243 0.226,0.496 0.513,0.547 0.033,0.145 0.247,0.154 0.387,0.138 C -0.968,1.386 -0.849,1.335 -0.733,1.31 -0.693,1.301 -0.638,1.306 -0.6,1.292 -0.521,1.264 -0.448,1.167 -0.389,1.112 -0.174,0.91 0.177,0.713 0.177,0.382 0.178,0.228 0.101,0.115 0,0 M 0.474,1.87 C 0.363,1.868 0.27,1.841 0.165,1.885 0.027,1.941 -0.061,2.057 -0.209,2.101 -0.331,2.138 -0.447,2.131 -0.573,2.128 -1.131,2.111 -1.68,2.033 -2.198,1.806 c -1.06,-0.464 -1.01,-1.747 -0.933,-2.72 0.043,-0.543 0.751,-0.957 1.249,-0.961 0.405,-0.004 0.88,0 1.273,0.105 0.383,0.101 0.622,0.368 0.873,0.659 0.212,0.246 0.385,0.517 0.617,0.746 0.237,0.232 0.288,0.533 0.343,0.851 C 1.335,1.13 1.1,1.676 0.474,1.87"
             style="fill:#231f20;fill-opacity:1;fill-rule:nonzero;stroke:none"
             id="path1506" />
        </g>
        <g
           id="g1508"
           transform="translate(189.098,119.185)">
          <path
             d="m 0,0 c -0.001,-0.171 -0.066,-0.261 -0.155,-0.401 -0.124,-0.192 -0.27,-0.258 -0.488,-0.296 -0.155,-0.027 -0.318,-0.071 -0.475,-0.04 -0.061,0.012 -0.119,0.038 -0.179,0.056 -0.08,0.024 -0.197,0.016 -0.269,0.061 -0.056,0.034 -0.085,0.108 -0.133,0.15 -0.051,0.045 -0.112,0.056 -0.156,0.107 -0.066,0.077 -0.07,0.253 -0.086,0.351 -0.024,0.161 -0.006,0.304 0.048,0.457 0.092,0.258 0.271,0.425 0.425,0.64 -0.115,0 0.11,0.101 0.186,0.112 0.07,0.011 0.137,0.028 0.208,0.027 C -0.937,1.22 -0.853,1.152 -0.743,1.083 -0.482,0.919 -0.365,0.657 -0.152,0.443 -0.014,0.304 0.002,0.195 0,0 M 0.719,0.993 C 0.653,1.042 0.57,1.063 0.498,1.1 0.378,1.162 0.266,1.241 0.162,1.327 -0.026,1.482 -0.186,1.582 -0.415,1.657 -0.615,1.722 -0.728,1.794 -0.939,1.787 -1.261,1.776 -1.569,1.759 -1.886,1.695 -2.62,1.548 -2.949,1.014 -2.841,0.278 c 0.051,-0.341 0.067,-0.789 0.208,-1.102 0.151,-0.334 0.543,-0.643 0.885,-0.74 0.16,-0.045 0.326,-0.052 0.485,-0.103 0.133,-0.043 0.237,-0.132 0.365,-0.183 0.241,-0.094 0.527,0.03 0.732,0.159 0.198,0.125 0.327,0.308 0.5,0.46 0.195,0.171 0.322,0.223 0.367,0.464 0.012,0.068 0.032,0.134 0.055,0.2 0.03,0.087 0.063,0.174 0.085,0.262 0.038,0.144 0.009,0.279 0.024,0.422 0.011,0.1 0.043,0.174 0.027,0.279 C 0.859,0.627 0.93,0.834 0.719,0.993"
             style="fill:#231f20;fill-opacity:1;fill-rule:nonzero;stroke:none"
             id="path1510" />
        </g>
        <g
           id="g1512"
           transform="translate(199.202,119.665)">
          <path
             d="m 0,0 c 0.024,-0.208 -0.097,-0.408 -0.193,-0.584 -0.217,-0.396 -0.608,-0.614 -1.054,-0.647 -0.293,-0.022 -0.839,0.021 -0.902,0.384 -0.027,0.159 -0.062,0.319 -0.08,0.479 -0.01,0.091 10e-4,0.179 0.017,0.269 0.016,0.088 0.01,0.217 0.05,0.3 0.036,0.073 0.11,0.144 0.155,0.214 0.051,0.08 0.113,0.134 0.183,0.197 0.029,0.027 0.072,0.079 0.118,0.108 -0.12,-0.035 -0.121,-0.026 -0.121,-0.016 0.039,0.018 0.096,0.005 0.128,0.029 0.051,0.037 0.019,0.105 0.048,0.154 0.037,0.061 0.121,0.07 0.18,0.095 0.164,0.071 0.326,0.097 0.508,0.076 0.335,-0.04 0.522,-0.311 0.744,-0.533 C -0.065,0.37 -0.025,0.215 0,0 M 0.666,0.469 C 0.554,0.588 0.48,0.735 0.384,0.865 0.234,1.071 0.054,1.248 -0.155,1.398 -0.23,1.452 -0.308,1.507 -0.389,1.558 -0.487,1.62 -0.59,1.676 -0.695,1.715 -0.834,1.767 -1.01,1.703 -1.158,1.678 -1.241,1.665 -1.324,1.65 -1.408,1.637 -1.498,1.623 -1.5,1.607 -1.565,1.559 -1.646,1.499 -1.731,1.492 -1.788,1.4 -1.834,1.326 -1.838,1.259 -1.929,1.231 -2.002,1.209 -2.068,1.223 -2.14,1.185 -2.235,1.136 -2.322,1.059 -2.406,0.994 -2.655,0.803 -2.805,0.517 -2.923,0.229 -3.129,-0.276 -3.192,-0.865 -3.02,-1.394 c 0.087,-0.269 0.282,-0.435 0.461,-0.643 0.232,-0.269 0.344,-0.364 0.719,-0.349 0.612,0.025 1.219,0.028 1.814,0.191 0.117,0.032 0.179,0.114 0.236,0.217 0.111,0.197 0.177,0.422 0.235,0.64 0.073,0.272 0.252,0.495 0.347,0.76 0.072,0.203 0.063,0.333 0.028,0.539 C 0.788,0.145 0.798,0.33 0.666,0.469"
             style="fill:#231f20;fill-opacity:1;fill-rule:nonzero;stroke:none"
             id="path1514" />
        </g>
        <g
           id="g1516"
           transform="translate(202.518,109.861)">
          <path
             d="m 0,0 c -0.103,-0.216 -0.242,-0.499 -0.456,-0.631 -0.154,-0.096 -0.353,-0.136 -0.528,-0.166 -0.168,-0.029 -0.264,-0.003 -0.419,0.064 -0.199,0.085 -0.415,0.092 -0.613,0.185 -0.047,0.022 -0.126,0.047 -0.161,0.088 -0.061,0.073 -0.056,0.264 -0.07,0.349 -0.025,0.149 -0.039,0.255 0.021,0.403 0.078,0.193 0.147,0.434 0.277,0.598 0.064,0.08 0.12,0.092 0.205,0.147 -0.028,0.08 0.053,0.149 0.205,0.137 0.084,-0.007 0.156,0.017 0.236,0.015 C -1.245,1.187 -1.194,1.17 -1.135,1.177 -1.076,1.183 -1.02,1.208 -0.96,1.206 -0.843,1.202 -0.69,1.164 -0.574,1.131 -0.438,1.093 -0.333,1.02 -0.233,0.921 -0.128,0.817 -0.042,0.685 0.028,0.554 0.129,0.366 0.089,0.185 0,0 M 0.356,1.46 C 0.055,1.901 -0.514,2.152 -1.034,2.127 -1.283,2.115 -1.544,2.134 -1.788,2.064 -2.002,2.003 -2.147,1.863 -2.326,1.737 -2.497,1.617 -2.634,1.564 -2.743,1.375 -2.826,1.232 -2.923,1.1 -3.02,0.966 -3.198,0.721 -3.322,0.416 -3.166,0.119 c -0.01,-0.477 0.167,-0.986 0.464,-1.33 0.538,-0.624 1.384,-0.693 2.138,-0.551 0.637,0.121 1.303,0.532 1.396,1.211 C 0.925,0.131 0.746,0.887 0.356,1.46"
             style="fill:#231f20;fill-opacity:1;fill-rule:nonzero;stroke:none"
             id="path1518" />
        </g>
        <g
           id="g1520"
           transform="translate(188.97,119.974)">
          <path
             d="m 0,0 c 0.01,-0.059 0.023,-0.116 0.036,-0.162 0.039,-0.131 0.144,-0.109 0.257,-0.104 0.212,0.01 0.43,0.015 0.635,0.077 0.235,0.07 0.457,0.188 0.682,0.283 C 1.916,0.223 2.224,0.269 2.548,0.327 2.574,0.332 2.6,0.337 2.625,0.342 2.867,0.39 3.102,0.466 3.344,0.513 3.557,0.555 3.812,0.594 4.028,0.584 4.23,0.575 4.434,0.525 4.634,0.499 4.824,0.474 5.011,0.487 5.2,0.466 5.393,0.444 5.587,0.391 5.775,0.343 5.972,0.292 6.16,0.213 6.345,0.128 6.518,0.05 6.702,-0.068 6.89,-0.102 7.017,-0.125 7.127,-0.091 7.207,-0.213 7.243,-0.267 7.257,-0.334 7.31,-0.374 7.358,-0.41 7.429,-0.446 7.481,-0.478 7.602,-0.549 7.599,-0.48 7.637,-0.38 7.672,-0.288 7.759,-0.142 7.822,-0.07 7.907,0.027 8.032,0.175 8.137,0.247 8.153,0.258 8.238,0.284 8.245,0.3 8.261,0.338 8.21,0.42 8.186,0.448 8.158,0.48 8.127,0.487 8.092,0.516 7.999,0.592 8.008,0.737 7.915,0.805 7.862,0.844 7.806,0.824 7.756,0.862 7.704,0.903 7.711,0.96 7.682,1.01 7.656,1.055 7.632,1.06 7.577,1.09 7.439,1.165 7.299,1.234 7.157,1.299 6.687,1.513 6.136,1.55 5.626,1.596 5.075,1.645 4.516,1.647 3.963,1.68 3.697,1.695 3.435,1.683 3.169,1.681 2.895,1.679 2.619,1.697 2.347,1.66 2.097,1.626 1.846,1.565 1.605,1.494 1.338,1.416 1.048,1.341 0.799,1.212 0.6,1.109 0.296,0.95 0.138,0.763 0.087,0.702 0.02,0.617 0.01,0.536 0.005,0.485 0.027,0.438 0.022,0.386 0.017,0.332 -0.012,0.282 -0.016,0.227 -0.02,0.162 -0.013,0.08 0,0"
             style="fill:#231f20;fill-opacity:1;fill-rule:nonzero;stroke:none"
             id="path1522" />
        </g>
        <g
           id="g1524"
           transform="translate(185.588,110.169)">
          <path
             d="M 0,0 C 0.104,0.011 0.209,0.015 0.311,0.033 0.442,0.056 0.563,0.056 0.696,0.028 0.782,0.01 0.896,-0.064 0.979,-0.01 0.951,0.038 0.882,0.065 0.838,0.118 0.783,0.184 0.757,0.266 0.71,0.337 0.591,0.515 0.461,0.689 0.372,0.886 0.268,1.116 0.165,1.373 0.015,1.575 c -0.12,0.161 -0.188,0.357 -0.184,0.558 0.008,0.38 -0.182,0.729 -0.14,1.111 0.028,0.258 0.128,0.5 0.207,0.744 0.099,0.304 0.191,0.611 0.269,0.921 C 0.216,5.103 0.244,5.285 0.32,5.472 0.426,5.735 0.505,6.02 0.638,6.271 0.714,6.415 0.805,6.552 0.881,6.697 0.958,6.844 0.991,7.006 1.083,7.144 1.189,7.301 1.239,7.487 1.34,7.647 1.364,7.686 1.412,7.778 1.447,7.775 1.413,7.872 1.502,7.931 1.532,8.014 1.559,8.09 1.55,8.191 1.57,8.271 1.598,8.385 1.592,8.546 1.537,8.661 1.475,8.79 1.32,8.802 1.191,8.777 1.087,8.758 1.026,8.708 0.958,8.627 0.89,8.547 0.826,8.443 0.788,8.344 0.77,8.297 0.77,8.251 0.757,8.203 0.721,8.076 0.63,7.947 0.57,7.829 0.511,7.715 0.451,7.601 0.387,7.489 0.279,7.3 0.153,7.111 0.097,6.897 0.078,6.823 0.067,6.747 0.036,6.676 -0.012,6.569 -0.097,6.487 -0.154,6.385 -0.216,6.274 -0.254,6.152 -0.312,6.039 -0.488,5.696 -0.658,5.327 -0.87,5.005 -1.176,4.54 -1.262,3.936 -1.207,3.39 c 0.052,-0.525 0.019,-1.05 0.035,-1.578 10e-4,-0.05 0.003,-0.1 0.004,-0.15 0.01,-0.416 0.126,-0.817 0.14,-1.233 0.007,-0.18 0.045,-0.354 0.064,-0.532 0.01,-0.091 -0.003,-0.335 0.097,-0.384 0.07,-0.035 0.132,0.044 0.173,0.078 0.07,0.06 0.125,0.108 0.206,0.159 0.134,0.085 0.193,0.192 0.342,0.226 C -0.098,-0.013 -0.049,-0.005 0,0"
             style="fill:#231f20;fill-opacity:1;fill-rule:nonzero;stroke:none"
             id="path1526" />
        </g>
        <g
           id="g1528"
           transform="translate(198.735,117.784)">
          <path
             d="m 0,0 c -0.003,0.02 -0.006,0.039 -0.01,0.059 0.004,-0.117 0.054,-0.17 0.145,-0.235 0.106,-0.075 0.225,-0.116 0.327,-0.197 0.152,-0.121 0.264,-0.284 0.371,-0.445 0.164,-0.245 0.283,-0.516 0.421,-0.776 0.16,-0.302 0.3,-0.626 0.411,-0.95 0.166,-0.483 0.227,-0.993 0.31,-1.494 0.055,-0.331 0.104,-0.647 0.117,-0.981 0.01,-0.254 -0.018,-0.514 -0.042,-0.766 -0.016,-0.161 0.024,-0.312 0.222,-0.288 0.205,0.026 0.41,0.048 0.616,0.062 0.178,0.011 0.328,-0.064 0.471,-0.157 0.087,-0.057 0.306,-0.155 0.416,-0.125 0,0.085 -0.026,0.17 -0.04,0.254 -0.044,0.264 -0.086,0.528 -0.14,0.79 -0.108,0.534 -0.208,1.064 -0.297,1.6 C 3.24,-3.293 3.206,-2.917 3.115,-2.568 3.008,-2.157 2.699,-1.823 2.491,-1.465 2.322,-1.174 2.143,-0.9 1.962,-0.617 1.79,-0.349 1.694,-0.048 1.496,0.208 1.324,0.432 1.124,0.64 0.941,0.857 0.894,0.912 0.857,0.977 0.789,1.007 0.734,1.031 0.671,1.022 0.614,1.043 0.655,1.054 0.695,1.046 0.729,1.019 0.687,1.058 0.644,0.907 0.585,0.915 0.507,0.926 0.401,0.875 0.346,0.829 0.163,0.679 -0.027,0.412 -0.035,0.164 -0.045,0.16 0.01,0.004 0,0"
             style="fill:#231f20;fill-opacity:1;fill-rule:nonzero;stroke:none"
             id="path1530" />
        </g>
        <g
           id="g1532"
           transform="translate(200.342,108.827)">
          <path
             d="m 0,0 c -0.079,-0.109 -0.135,-0.21 -0.192,-0.328 -0.111,-0.233 -0.26,-0.455 -0.382,-0.682 -0.125,-0.23 -0.252,-0.457 -0.37,-0.691 -0.13,-0.257 -0.288,-0.492 -0.456,-0.722 -0.052,-0.071 -0.086,-0.153 -0.157,-0.208 -0.065,-0.051 -0.145,-0.077 -0.212,-0.134 -0.075,-0.064 -0.159,-0.117 -0.234,-0.181 -0.142,-0.118 -0.322,-0.289 -0.504,-0.345 -0.118,-0.037 -0.268,-0.039 -0.389,-0.059 -0.11,-0.019 -0.234,-0.058 -0.345,-0.062 -0.129,-0.004 -0.295,0.045 -0.42,0.071 -0.079,0.017 -0.152,0.043 -0.22,0.085 -0.03,0.018 -0.07,0.022 -0.094,0.05 -0.04,0.048 -0.026,0.094 -0.075,0.138 -0.036,-0.089 0.033,-0.121 0.072,-0.183 0.071,-0.113 0.118,-0.285 0.164,-0.412 0.137,-0.381 0.223,-0.776 0.289,-1.173 0.014,-0.079 0.012,-0.193 0.051,-0.266 0.142,-0.028 0.302,0.15 0.403,0.207 0.257,0.146 0.546,0.23 0.82,0.339 0.296,0.118 0.709,0.162 0.935,0.399 0.143,0.149 0.254,0.323 0.402,0.471 0.087,0.088 0.18,0.168 0.256,0.267 0.256,0.332 0.516,0.656 0.781,0.981 0.127,0.157 0.255,0.308 0.341,0.493 0.057,0.123 0.086,0.284 0.162,0.396 0.035,0.052 0.095,0.083 0.132,0.131 0.048,0.063 0.061,0.159 0.093,0.231 0.041,0.091 0.085,0.162 0.146,0.235 0.099,0.119 0.147,0.301 0.148,0.447 0,0.054 0.029,0.139 0.013,0.189 -0.028,0.085 -0.075,0.041 -0.15,0.033 -0.254,-0.03 -0.493,0.094 -0.71,0.209 C 0.128,0.016 0.019,0.178 -0.186,0.181 -0.19,0.191 -0.194,0.202 0,0"
             style="fill:#231f20;fill-opacity:1;fill-rule:nonzero;stroke:none"
             id="path1534" />
        </g>
        <g
           id="g1536"
           transform="translate(187.017,106.788)">
          <path
             d="m 0,0 c 0.034,-0.026 0.067,-0.054 0.099,-0.083 0.214,-0.194 0.4,-0.422 0.618,-0.61 0.083,-0.072 0.18,-0.128 0.262,-0.203 0.064,-0.058 0.11,-0.18 0.183,-0.219 0.067,-0.035 0.145,0.01 0.216,0.002 0.087,-0.01 0.142,-0.057 0.217,-0.106 0.248,-0.162 0.501,-0.316 0.759,-0.461 0.274,-0.155 0.571,-0.26 0.847,-0.41 0.193,-0.105 0.353,-0.234 0.572,-0.283 0.324,-0.072 0.668,-0.166 1.001,-0.132 0.215,0.022 0.431,0.098 0.647,0.048 0.291,-0.067 0.441,-0.283 0.618,-0.496 0.205,-0.248 0.483,-0.106 0.504,0.191 0.016,0.242 -0.023,0.514 0.05,0.75 0.039,0.126 0.119,0.241 0.147,0.373 0.026,0.12 0.025,0.252 0.045,0.373 C 6.81,-1.101 6.777,-0.87 6.866,-0.725 6.759,-0.828 6.72,-0.887 6.651,-1.013 6.495,-1.299 6.016,-1.293 5.734,-1.308 5.225,-1.336 4.701,-1.285 4.197,-1.232 4.039,-1.216 3.887,-1.176 3.732,-1.145 3.606,-1.12 3.475,-1.132 3.351,-1.108 3.246,-1.088 3.171,-1.014 3.08,-0.964 2.999,-0.919 2.92,-0.892 2.831,-0.867 2.607,-0.803 2.482,-0.699 2.291,-0.567 2.028,-0.385 1.772,-0.231 1.54,-0.004 1.375,0.157 1.205,0.296 1.013,0.423 0.818,0.55 0.605,0.688 0.46,0.872 0.378,0.976 0.342,1.07 0.305,1.192 0.273,1.292 0.227,1.32 0.112,1.322 -0.053,1.324 -0.101,1.145 -0.21,1.03 -0.322,0.911 -0.439,0.812 -0.536,0.676 -0.576,0.62 -0.59,0.556 -0.664,0.54 -0.627,0.451 -0.502,0.379 -0.432,0.319 -0.295,0.2 -0.142,0.11 0,0"
             style="fill:#231f20;fill-opacity:1;fill-rule:nonzero;stroke:none"
             id="path1538" />
        </g>
      </g>
    </g>
  </g>
</svg>
