<?xml version="1.0" encoding="UTF-8" standalone="no"?>
<!-- Created with Inkscape (http://www.inkscape.org/) -->

<svg
   width="5.9481983mm"
   height="6.6861186mm"
   viewBox="0 0 5.9481983 6.6861186"
   version="1.1"
   id="svg9427"
   inkscape:version="1.2.1 (9c6d41e4, 2022-07-14)"
   sodipodi:docname="striking_fear.svg"
   xmlns:inkscape="http://www.inkscape.org/namespaces/inkscape"
   xmlns:sodipodi="http://sodipodi.sourceforge.net/DTD/sodipodi-0.dtd"
   xmlns="http://www.w3.org/2000/svg"
   xmlns:svg="http://www.w3.org/2000/svg">
  <sodipodi:namedview
     id="namedview9429"
     pagecolor="#505050"
     bordercolor="#eeeeee"
     borderopacity="1"
     inkscape:showpageshadow="0"
     inkscape:pageopacity="0"
     inkscape:pagecheckerboard="0"
     inkscape:deskcolor="#505050"
     inkscape:document-units="mm"
     showgrid="false"
     inkscape:zoom="0.70199214"
     inkscape:cx="-58.405212"
     inkscape:cy="76.923938"
     inkscape:window-width="1390"
     inkscape:window-height="938"
     inkscape:window-x="0"
     inkscape:window-y="25"
     inkscape:window-maximized="0"
     inkscape:current-layer="layer1" />
  <defs
     id="defs9424">
    <clipPath
       clipPathUnits="userSpaceOnUse"
       id="clipPath1602">
      <path
         d="m 148.696,100.174 h 24.699 v 24.699 h -24.699 z"
         id="path1600" />
    </clipPath>
  </defs>
  <g
     inkscape:label="Layer 1"
     inkscape:groupmode="layer"
     id="layer1"
     transform="translate(-120.65027,-128.19629)">
    <g
       id="g1596"
       transform="matrix(0.35277777,0,0,-0.35277777,66.624755,170.85727)">
      <g
         id="g1598"
         clip-path="url(#clipPath1602)">
        <g
           id="g1604"
           transform="translate(159.539,111.827)">
          <path
             d="m 0,0 c 0,-0.1 -0.04,-0.16 -0.12,-0.18 -0.13,-0.03 -0.2,0.03 -0.2,0.18 0,0.09 0.04,0.139 0.12,0.16 C -0.07,0.219 0,0.17 0,0 m -0.21,-4.886 c 0.2,-0.16 0.42,-0.349 0.67,-0.57 0.05,-0.089 0.159,-0.219 0.329,-0.379 0.08,0.03 0.12,0.07 0.12,0.11 0.01,0.2 0.03,0.4 0.05,0.599 0.01,0.3 -0.02,0.49 -0.08,0.58 -0.17,0.22 -0.439,0.32 -0.819,0.289 -0.19,0.011 -0.51,-0.069 -0.51,-0.229 0,-0.05 0.04,-0.11 0.13,-0.18 -0.02,-0.08 0.02,-0.15 0.11,-0.22 m -0.619,4.716 c 0,-0.22 0.11,-0.46 0.33,-0.72 0.189,-0.219 0.399,-0.379 0.619,-0.489 0.09,-0.05 0.22,-0.07 0.4,-0.06 0.219,0.02 0.339,0.03 0.349,0.03 0.11,-0.05 0.29,-0.11 0.55,-0.17 0.639,-0.03 1.339,0.47 2.098,1.499 0.06,0.08 0.09,0.17 0.09,0.259 0,0.2 -0.12,0.43 -0.36,0.69 -0.09,0.13 -0.2,0.27 -0.33,0.42 -0.419,0.23 -0.849,0.339 -1.299,0.339 -0.669,0 -1.198,-0.25 -1.578,-0.759 0,-0.05 0,-0.12 -0.01,-0.2 0.13,0 0.18,-0.06 0.16,-0.189 C 0.14,0.4 0.08,0.36 0,0.36 c -0.04,0 -0.16,0.029 -0.23,0.029 -0.16,0 -0.32,-0.08 -0.489,-0.239 -0.07,-0.09 -0.11,-0.2 -0.11,-0.32 m -0.49,1.399 0.55,0.479 c 0.14,0.11 0.359,0.22 0.659,0.34 0.09,0.09 0.24,0.19 0.44,0.289 0.529,0.031 1.279,0.08 2.258,0.151 0.04,0 0.269,-0.13 0.389,-0.17 0.36,-0.11 0.68,-0.34 0.949,-0.69 0.25,-0.319 0.4,-0.669 0.46,-1.049 0.03,-0.139 0.02,-0.36 -0.04,-0.649 l -0.18,-0.879 c -0.12,-0.36 -0.329,-0.63 -0.629,-0.809 -0.34,-0.12 -0.919,-0.35 -1.739,-0.7 -0.11,-0.05 -0.169,-0.15 -0.169,-0.29 0,0.02 0.029,-0.129 0.08,-0.449 0.019,-0.14 0.119,-0.21 0.299,-0.22 0.13,0.01 0.26,0.01 0.4,0.01 0.24,-0.01 0.549,0.11 0.919,0.36 0.11,0.069 0.24,0.08 0.39,0.019 0.169,-0.079 0.249,-0.199 0.249,-0.359 0,-0.01 -0.06,-0.2 -0.18,-0.56 -0.049,-0.02 -0.119,-0.04 -0.209,-0.06 -0.11,0.02 -0.25,0.011 -0.43,-0.04 -0.04,0.051 -0.14,0.07 -0.29,0.07 -0.519,0 -0.919,-0.13 -1.209,-0.389 -0.039,-0.04 -0.049,-0.13 -0.03,-0.27 0.03,-0.2 0.04,-0.3 0.04,-0.3 -0.01,-0.369 0.07,-0.56 0.24,-0.579 0.05,0.07 0.14,0.15 0.26,0.249 0.11,0.05 0.27,0.2 0.5,0.45 0.229,0.24 0.389,0.36 0.499,0.36 0.11,0 0.21,-0.09 0.29,-0.28 -0.44,-0.549 -1.019,-1.338 -1.738,-2.358 -0.011,-0.11 -0.04,-0.27 -0.08,-0.48 -0.15,-0.409 -0.22,-0.749 -0.22,-1.018 0,-0.05 0.02,-0.27 0.06,-0.67 0.01,-0.27 -0.09,-0.589 -0.32,-0.589 -0.03,0 -0.06,0.01 -0.1,0.03 -0.23,0.11 -0.2,0.359 -0.23,0.589 -0.07,0.08 -0.16,0.22 -0.269,0.43 0,0.04 0.109,0.3 0.139,0.379 0.05,0.2 0.06,0.36 0.03,0.48 -0.209,0.75 -0.469,1.229 -0.779,1.448 l -0.12,0.32 c -0.02,0.03 -0.34,0.3 -0.959,0.82 -0.26,0.209 -0.39,0.429 -0.39,0.659 0,0.13 0.04,0.26 0.13,0.38 l 0.05,0.419 c 0.02,0.06 0.06,0.11 0.13,0.15 0.12,0.06 0.4,0.07 0.839,0.03 0.02,0 0.11,0.04 0.26,0.12 0.15,0.08 0.25,0.12 0.31,0.13 0.11,-0.05 0.28,-0.09 0.499,-0.12 0,0.11 0.09,0.409 0.09,0.559 0,0.25 -0.08,0.43 -0.719,0.66 l -0.65,0.21 c -0.429,0.249 -0.759,0.729 -0.999,1.439 -0.179,0.539 -0.249,0.948 -0.199,1.239 0.05,0.219 0.209,0.459 0.469,0.709"
             style="fill:#231f20;fill-opacity:1;fill-rule:nonzero;stroke:none"
             id="path1606" />
        </g>
        <g
           id="g1608"
           transform="translate(162.227,113.634)">
          <path
             d="M 0,0 C -0.012,-0.012 -0.024,-0.025 -0.036,-0.037 0.036,0 0.027,-0.001 0,0"
             style="fill:#231f20;fill-opacity:1;fill-rule:nonzero;stroke:none"
             id="path1610" />
        </g>
        <g
           id="g1612"
           transform="translate(162.227,113.634)">
          <path
             d="M 0,0 C 0.001,0.001 0.003,0.003 0.004,0.004 -0.005,0.003 -0.015,0.003 -0.024,0.002 -0.015,0.001 -0.007,0 0,0"
             style="fill:#231f20;fill-opacity:1;fill-rule:nonzero;stroke:none"
             id="path1614" />
        </g>
        <g
           id="g1616"
           transform="translate(166.806,114.459)">
          <path
             d="m 0,0 c 0.001,-0.177 -0.034,-0.334 -0.041,-0.504 -0.003,-0.086 0.044,-0.22 -0.078,-0.192 -0.057,0.013 -0.113,0.08 -0.149,0.122 -0.054,0.064 -0.068,0.104 -0.139,0.158 -0.098,0.076 -0.163,0.163 -0.264,0.236 -0.205,0.148 -0.429,0.286 -0.611,0.463 -0.091,0.09 -0.171,0.161 -0.124,0.301 0.036,0.108 0.148,0.158 0.218,0.238 0.044,0.049 0.075,0.088 0.128,0.131 0.113,0.092 0.222,0.188 0.335,0.282 0.096,0.079 0.231,0.149 0.313,0.241 0.029,0.032 0.028,0.079 0.054,0.11 0.069,0.082 0.207,0.005 0.265,-0.052 0.058,-0.058 0.038,-0.11 0.056,-0.181 C -0.015,1.268 -0.002,1.173 0.002,1.089 0.02,0.728 -0.001,0.361 0,0 m -2.753,1.904 c -0.103,0.089 -0.222,0.166 -0.318,0.262 -0.029,0.03 -0.078,0.06 -0.069,0.109 0.067,0.019 0.157,0.007 0.226,0.006 0.088,-0.001 0.159,0.014 0.246,0.031 0.113,0.022 0.229,0.002 0.343,0.007 0.145,0.006 0.287,0.066 0.428,0.098 0.184,0.04 0.356,0.046 0.54,0.069 0.124,0.015 0.245,0.047 0.363,0.086 0.08,0.027 0.169,0.066 0.256,0.059 C -0.647,2.624 -0.655,2.58 -0.683,2.508 -0.725,2.402 -0.755,2.324 -0.857,2.268 -1.03,2.172 -1.197,2.038 -1.348,1.912 -1.494,1.789 -1.621,1.651 -1.78,1.543 -1.917,1.451 -2.053,1.359 -2.189,1.267 -2.37,1.486 -2.536,1.715 -2.753,1.904 M 3.155,5.007 C 3.139,5.037 3.115,5.088 3.086,5.108 3.055,5.13 3.011,5.132 2.977,5.148 2.905,5.181 2.825,5.201 2.745,5.216 2.702,5.225 2.656,5.206 2.614,5.217 2.584,5.225 2.565,5.251 2.53,5.257 2.483,5.188 2.434,5.12 2.383,5.055 2.33,4.989 2.277,4.922 2.228,4.854 2.205,4.823 2.179,4.763 2.15,4.735 2.11,4.698 2.058,4.661 2.013,4.632 1.954,4.593 1.881,4.57 1.819,4.534 1.676,4.453 1.545,4.352 1.409,4.259 1.177,4.099 0.917,3.944 0.631,3.908 0.534,3.896 0.459,3.883 0.369,3.841 0.268,3.795 0.183,3.737 0.074,3.709 -0.084,3.669 -0.239,3.663 -0.393,3.604 -0.464,3.577 -0.544,3.547 -0.622,3.527 -0.637,3.525 -0.652,3.522 -0.668,3.521 -0.695,3.519 -0.722,3.517 -0.749,3.515 l 0.01,-0.008 C -0.903,3.493 -1.062,3.514 -1.229,3.48 -1.485,3.429 -1.744,3.338 -1.982,3.234 -2.167,3.153 -2.307,3.092 -2.509,3.066 -2.709,3.04 -2.913,3.019 -3.112,2.987 -3.228,2.968 -3.343,2.92 -3.461,2.914 -3.568,2.909 -3.677,2.917 -3.784,2.917 -3.841,2.917 -3.948,2.938 -4.002,2.919 -4.066,2.897 -4.045,2.911 -4.06,2.842 -4.076,2.765 -4.04,2.662 -4.021,2.592 -3.948,2.327 -3.807,2.074 -3.66,1.844 -3.574,1.71 -3.466,1.593 -3.356,1.48 -3.27,1.392 -3.188,1.289 -3.095,1.209 -2.969,1.098 -2.941,0.933 -2.964,0.77 -2.981,0.657 -3.043,0.596 -3.128,0.527 -3.411,0.296 -3.653,0.019 -3.942,-0.205 -4.18,-0.39 -4.367,-0.608 -4.575,-0.821 c 0.131,0.009 0.284,-0.087 0.36,-0.177 0.067,-0.08 0.137,-0.155 0.209,-0.233 0.053,-0.058 0.103,-0.162 0.177,-0.183 0.216,0.251 0.513,0.441 0.763,0.656 0.174,0.15 0.32,0.325 0.499,0.473 0.047,0.039 0.101,0.091 0.157,0.117 0.041,0.019 0.107,0.006 0.151,0.006 0.101,0 0.204,-0.002 0.295,-0.053 0.028,-0.016 0.047,-0.036 0.069,-0.06 0.155,-0.168 0.295,-0.342 0.473,-0.488 0.091,-0.076 0.165,-0.138 0.265,-0.199 0.086,-0.052 0.135,-0.122 0.209,-0.19 0.072,-0.066 0.16,-0.091 0.236,-0.148 0.038,-0.029 0.063,-0.067 0.107,-0.091 0.094,-0.053 0.113,0.016 0.207,0.004 0.042,-0.006 0.078,-0.029 0.126,-0.032 0.091,-0.007 0.169,-0.019 0.261,-0.031 0.123,-0.016 0.36,-0.041 0.485,-0.003 0.034,0.214 -0.009,0.439 0.027,0.658 0.062,0.376 0.059,0.754 0.107,1.132 0.039,0.312 0.058,0.627 0.09,0.941 0.03,0.296 -0.007,0.596 0.025,0.892 0.029,0.059 0.061,0.118 0.089,0.178 0.065,0.134 0.107,0.276 0.174,0.408 0.172,0.339 0.432,0.673 0.718,0.922 0.239,0.207 0.492,0.387 0.743,0.578 0.105,0.08 0.194,0.175 0.3,0.254 0.071,0.053 0.149,0.093 0.222,0.144 0.065,0.044 0.207,0.118 0.226,0.203 0.013,0.052 -0.016,0.106 -0.04,0.15"
             style="fill:#231f20;fill-opacity:1;fill-rule:nonzero;stroke:none"
             id="path1618" />
        </g>
        <g
           id="g1620"
           transform="translate(156.457,115.217)">
          <path
             d="m 0,0 c -0.05,-0.076 -0.217,-0.266 -0.318,-0.161 -0.016,0.016 -0.03,0.211 -0.036,0.24 -0.021,0.099 0.005,0.197 -0.008,0.295 -0.009,0.069 -0.034,0.094 -0.059,0.157 -0.027,0.07 -0.021,0.14 -0.04,0.21 -0.083,0.307 -0.176,0.621 -0.266,0.927 -0.061,0.21 -0.13,0.393 -0.158,0.612 -0.003,0.026 -0.008,0.053 -0.012,0.079 0.028,-0.041 0.07,-0.079 0.105,-0.103 0.034,-0.023 0.066,-0.023 0.101,-0.034 0.026,-0.007 0.037,-10e-4 0.06,-0.016 0.015,-0.008 0.049,-0.062 0.059,-0.073 0.097,-0.102 0.194,-0.202 0.29,-0.304 0.086,-0.092 0.164,-0.19 0.237,-0.291 C 0.083,1.363 0.278,1.21 0.446,1.074 0.479,1.046 0.52,1.021 0.546,0.986 0.644,0.856 0.627,0.546 0.47,0.471 0.37,0.423 0.304,0.392 0.227,0.305 0.143,0.21 0.069,0.106 0,0 M 3.424,-1.311 C 3.328,-1.136 3.218,-0.969 3.104,-0.805 2.794,-0.36 2.422,0.073 2.009,0.424 1.813,0.591 1.788,0.974 1.93,1.175 1.963,1.221 1.997,1.265 2.021,1.316 2.053,1.385 2.059,1.464 2.099,1.528 2.177,1.655 2.31,1.664 2.314,1.835 2.317,1.971 2.268,1.986 2.18,2.08 2.111,2.154 2.033,2.133 1.933,2.133 1.881,2.133 1.82,2.126 1.768,2.132 1.715,2.138 1.673,2.164 1.619,2.167 1.537,2.171 1.373,2.192 1.307,2.147 1.266,2.119 1.263,2.072 1.249,2.03 1.221,1.945 1.171,1.869 1.139,1.785 1.095,1.668 1.049,1.535 1.034,1.405 0.905,1.503 0.777,1.603 0.662,1.715 0.519,1.856 0.452,2.02 0.356,2.19 0.293,2.301 0.229,2.413 0.158,2.519 0.136,2.553 0.123,2.576 0.085,2.591 0.038,2.609 0.032,2.587 0.015,2.631 -0.015,2.708 0.028,2.969 0.121,2.996 0.169,3.01 0.222,2.954 0.259,2.931 0.471,2.799 0.767,2.767 1.009,2.728 1.088,2.716 1.161,2.682 1.217,2.63 1.229,2.631 1.241,2.632 1.252,2.631 1.348,2.62 1.43,2.594 1.529,2.595 1.618,2.596 1.711,2.604 1.8,2.6 1.887,2.596 1.964,2.559 2.045,2.531 2.173,2.488 2.287,2.406 2.416,2.355 2.581,2.289 2.762,2.326 2.877,2.466 2.935,2.536 2.972,2.619 3.031,2.689 3.089,2.758 3.095,2.821 3.065,2.907 3.026,3.017 2.952,3.112 2.84,3.148 2.717,3.189 2.582,3.196 2.457,3.232 2.248,3.291 2.038,3.345 1.829,3.401 1.486,3.494 1.132,3.616 0.781,3.667 0.661,3.685 0.534,3.696 0.42,3.74 0.291,3.79 0.176,3.859 0.04,3.891 -0.053,3.913 -0.147,3.93 -0.242,3.941 -0.321,3.951 -0.452,3.933 -0.523,3.963 -0.571,3.983 -0.554,3.971 -0.586,4.016 -0.628,4.075 -0.667,4.131 -0.725,4.176 -0.795,4.229 -0.878,4.28 -0.956,4.32 -1.043,4.365 -1.139,4.378 -1.227,4.423 -1.361,4.49 -1.507,4.561 -1.63,4.646 -1.717,4.706 -1.797,4.758 -1.895,4.796 -2.007,4.84 -2.117,4.884 -2.159,5 -2.173,5.038 -2.175,5.083 -2.195,5.119 -2.216,5.157 -2.257,5.181 -2.283,5.215 -2.325,5.269 -2.358,5.328 -2.414,5.371 -2.548,5.474 -2.727,5.507 -2.864,5.607 -2.973,5.686 -3.153,5.778 -3.246,5.643 -3.319,5.536 -3.315,5.454 -3.313,5.325 c 0.002,-0.096 0.029,-0.199 0.117,-0.25 0.029,-0.016 0.065,-0.019 0.091,-0.039 0.092,-0.072 0.09,-0.223 0.165,-0.314 0.072,-0.087 0.108,-0.196 0.189,-0.275 0.059,-0.058 0.133,-0.11 0.201,-0.156 0.059,-0.041 0.138,-0.059 0.192,-0.104 0.063,-0.051 0.122,-0.139 0.174,-0.202 0.068,-0.084 0.126,-0.177 0.191,-0.264 0.007,-0.054 0.021,-0.109 0.04,-0.163 0.028,-0.082 0.094,-0.396 0.069,-0.229 0.039,-0.175 0.111,-0.345 0.15,-0.52 0.099,-0.431 0.168,-0.87 0.269,-1.3 0.043,-0.184 0.112,-0.357 0.147,-0.545 0.049,-0.263 0.1,-0.518 0.16,-0.779 0.065,-0.286 0.097,-0.601 0.206,-0.874 0.022,-0.053 0.055,-0.101 0.072,-0.156 0.024,-0.075 0.006,-0.148 0.017,-0.224 0.012,-0.077 0.071,-0.117 0.1,-0.187 0.019,-0.051 0.041,-0.1 0.066,-0.148 0.066,-0.098 0.242,-0.101 0.338,-0.043 0.104,0.064 0.148,0.187 0.237,0.267 0.112,0.102 0.219,0.212 0.33,0.316 0.136,0.128 0.284,0.241 0.431,0.355 0.121,0.094 0.275,0.182 0.318,0.339 0.031,0.111 0.042,0.244 0.181,0.276 C 1.214,0.123 1.261,0.06 1.316,0.019 1.377,-0.026 1.447,-0.06 1.5,-0.115 c 0.037,-0.037 0.065,-0.08 0.096,-0.123 0.112,-0.157 0.25,-0.294 0.334,-0.471 0.047,-0.097 0.081,-0.2 0.126,-0.299 0.058,-0.126 0.108,-0.223 0.252,-0.248 0.033,-0.006 0.075,-10e-4 0.105,-0.018 0.083,-0.044 0.06,-0.169 0.06,-0.247 0,-0.108 0.02,-0.24 -0.006,-0.344 C 2.46,-1.891 2.41,-1.957 2.413,-1.979 c 0.008,-0.055 0.117,-0.009 0.151,0.004 0.049,0.019 0.077,0.071 0.125,0.093 0.037,0.017 0.063,0.013 0.1,0.018 0.27,0.035 0.491,0.218 0.718,0.357 0.009,0.074 -0.05,0.137 -0.083,0.196"
             style="fill:#231f20;fill-opacity:1;fill-rule:nonzero;stroke:none"
             id="path1622" />
        </g>
      </g>
    </g>
  </g>
</svg>
