<svg width="25" height="24" viewBox="0 0 25 24" fill="#000000" xmlns="http://www.w3.org/2000/svg">
  <path d="M10.9848 0.700147C10.9302 0.783616 10.8801 0.870424 10.8345 0.961683C10.81 1.01176 10.8011 1.06741 10.77 1.11415C10.7455 1.14865 10.7277 1.15978 10.7143 1.20541C10.6843 1.30224 10.6609 1.40574 10.6331 1.50479C10.6119 1.58269 10.5897 1.63723 10.5997 1.71958C10.6086 1.79971 10.5841 1.88429 10.5741 1.96665C10.5363 2.31054 10.5719 2.7635 10.7566 3.07289C10.8245 3.18864 10.9191 3.28101 11.0204 3.36448C11.1139 3.44238 11.2185 3.5047 11.2752 3.62045C11.3253 3.72284 11.3654 3.80853 11.4633 3.87308C11.5802 3.94876 11.7182 3.93874 11.8462 3.92205C12.0409 3.89645 12.2323 3.83635 12.4238 3.79406C12.6575 3.74064 12.8456 3.66051 13.0225 3.49024C13.1026 3.41345 13.1883 3.33665 13.2629 3.25207C13.3352 3.1686 13.382 3.0651 13.4499 2.97829C13.5812 2.8069 13.6035 2.5398 13.6113 2.32724C13.6157 2.2293 13.6535 2.1436 13.6814 2.05346C13.7259 1.911 13.7559 1.75186 13.7326 1.6005C13.7148 1.48698 13.7003 1.39795 13.7237 1.28554C13.7737 1.05183 13.6958 0.824794 13.52 0.665646C13.4132 0.569935 13.3119 0.46866 13.2084 0.368497C13.106 0.269447 12.9847 0.206011 12.8545 0.165946C12.712 0.121429 12.5773 0.0591052 12.436 0.0134754C12.347 -0.0154605 12.249 0.0112495 12.16 0.0112495C12.0687 0.0112495 11.9897 0.000120457 11.8996 0.020153C11.8039 0.0401856 11.7271 0.112525 11.6325 0.133671C11.6102 0.139235 11.5857 0.134784 11.5624 0.140348C11.4856 0.155929 11.4077 0.212688 11.3442 0.259431C11.2563 0.322867 11.1907 0.417465 11.1239 0.504273C11.0749 0.568822 11.0282 0.633372 10.9848 0.700147Z"/>
  <path d="M10.8608 6.05973C10.6849 6.12317 10.804 6.52827 10.8074 6.68074C10.8107 6.81318 10.784 6.95118 10.7673 7.08251C10.7328 7.35517 10.695 7.62895 10.7206 7.90495C10.7484 8.20878 10.8675 8.50037 10.8764 8.80531C10.8808 8.98115 10.8263 9.15142 10.8496 9.32615C10.8619 9.41741 10.8819 9.50199 10.8819 9.59548C10.8841 9.88595 10.863 10.1786 10.8563 10.4702C10.8407 11.0545 10.833 11.6388 10.8407 12.2231C10.8463 12.705 10.8686 13.1924 11.0567 13.6432C11.1802 13.9403 11.3026 14.2163 11.3182 14.5446C11.336 14.9074 11.2803 15.2513 11.3961 15.6008C11.4451 15.7488 11.5063 15.8735 11.5152 16.0326C11.523 16.1628 11.5107 16.293 11.5207 16.4232C11.5463 16.7816 11.5808 17.1589 11.7033 17.4994C11.74 17.6029 11.7823 17.6909 11.7956 17.801C11.8123 17.9446 11.7901 18.0915 11.7945 18.234C11.7979 18.3386 11.819 18.4354 11.8357 18.5378C11.8758 18.7926 11.78 18.9963 11.7545 19.2389C11.7255 19.516 11.8635 19.8533 11.9203 20.1237C11.9681 20.3496 12.0305 20.5744 12.0249 20.8048C12.0238 20.8983 12.036 20.9851 12.075 21.0719C12.1328 21.1988 12.1952 21.3167 12.2419 21.4503C12.3276 21.6929 12.3543 21.9355 12.4166 22.1826C12.4567 22.3429 12.4945 22.5276 12.558 22.6801C12.6181 22.8236 12.7105 22.9539 12.7728 23.093C12.8128 23.1809 12.8195 23.3011 12.8418 23.399C12.8596 23.4803 12.8919 23.5337 12.9208 23.6094C12.9642 23.7262 12.9286 23.911 13.041 24C13.0354 23.9143 13.031 23.823 13.0488 23.7407C13.0543 23.714 13.0799 23.6761 13.0866 23.6383C13.0989 23.576 13.0699 23.5036 13.0833 23.4424C13.1111 23.3133 13.1712 23.1942 13.1834 23.0574C13.1979 22.896 13.1345 22.7469 13.1311 22.5866C13.13 22.4486 13.0922 22.3139 13.0855 22.1759C13.0766 22.0357 13.0955 21.8944 13.0888 21.753C13.0777 21.5338 13.0187 21.3312 13.0777 21.1131C13.1233 20.9461 13.2012 20.7915 13.2346 20.6201C13.2869 20.3407 13.2925 20.0447 13.2892 19.762C13.2836 19.3202 13.2636 18.8806 13.2747 18.4365C13.2825 18.1093 13.386 17.7955 13.376 17.4649C13.3648 17.1166 13.3203 16.7527 13.2769 16.4065C13.1857 15.6831 13.1912 14.9342 13.2524 14.2141C13.2758 13.9359 13.3482 13.7133 13.4205 13.4495C13.5118 13.1234 13.5273 12.8185 13.5184 12.4802C13.5073 12.0361 13.4472 11.5954 13.4083 11.1536C13.3904 10.9588 13.3526 10.7429 13.386 10.5493C13.3971 10.4803 13.4105 10.4279 13.406 10.3567C13.3804 9.88818 13.3593 9.42298 13.3426 8.95332C13.3381 8.82979 13.3303 8.70626 13.317 8.58272C13.2947 8.38462 13.2736 8.18541 13.2591 7.98508C13.2213 7.46201 13.2758 6.91891 13.3348 6.39917C13.3437 6.32572 13.3726 6.19885 13.3237 6.13096C13.2502 6.0308 13.13 6.01855 12.9909 6.05751C12.8429 6.09868 12.7483 6.1343 12.5914 6.13319C12.45 6.13207 12.3087 6.13319 12.1673 6.13319C12.0249 6.13319 11.868 6.14654 11.7277 6.12762C11.6331 6.11427 11.5508 6.1087 11.454 6.1087C11.3026 6.1087 11.1501 6.1087 10.9988 6.1087C10.932 6.1087 10.8574 6.10202 10.7918 6.10759C10.7484 6.11093 10.6282 6.14209 10.8608 6.05973Z"/>
  <path d="M7.96895 5.77871C7.97563 5.77648 7.98342 5.77537 7.9901 5.77426C8.10807 5.75422 8.22826 5.74532 8.34623 5.72529C8.44083 5.70971 8.53654 5.67521 8.62335 5.63403C8.76135 5.56837 8.91382 5.54054 9.0585 5.49046C9.24436 5.42591 9.46027 5.40588 9.61941 5.28902C9.74851 5.19331 9.93103 5.15881 10.0835 5.1143C10.3083 5.05086 10.5342 5.00523 10.7546 4.92733C10.9538 4.85721 11.1497 4.796 11.3578 4.7526C11.4913 4.72477 11.6082 4.67581 11.734 4.62684C11.833 4.589 11.9232 4.59011 12.0278 4.57676C12.1858 4.55561 12.3427 4.50108 12.4952 4.45545C12.6799 4.3998 12.8491 4.4087 13.035 4.38867C13.2397 4.36641 13.4256 4.30075 13.6348 4.29853C13.7127 4.29741 13.7973 4.30743 13.8763 4.29407C13.9687 4.27961 14.0555 4.22952 14.1512 4.23398C14.2224 4.23843 14.2848 4.28072 14.356 4.2874C14.4161 4.29296 14.474 4.27515 14.5307 4.26069C14.8423 4.18056 15.2096 4.10933 15.47 3.9257C15.5613 3.86226 15.6726 3.85447 15.7783 3.83221C15.8818 3.81107 15.9708 3.77879 16.0688 3.74095C16.1155 3.72315 16.2379 3.67974 16.298 3.70311C16.347 3.72203 16.3426 3.75431 16.3615 3.7966C16.4004 3.88341 16.4906 3.96354 16.5095 4.05591C16.5329 4.17499 16.5062 4.31522 16.5173 4.43764C16.5295 4.56563 16.5551 4.6925 16.5674 4.82048C16.593 5.08202 16.5885 5.36915 16.534 5.62513C16.5195 5.69413 16.5095 5.75979 16.5106 5.83102C16.5106 5.8555 16.5251 5.90447 16.5062 5.92339C16.485 5.94787 16.3214 5.92895 16.2947 5.92895C16.1433 5.92784 16.0009 5.96457 15.8518 5.98126C15.746 5.9935 15.6414 5.98905 15.5357 6.01131C15.243 6.07363 14.9648 6.17268 14.6665 6.21609C14.4283 6.24947 14.1891 6.2862 13.9509 6.32293C13.6805 6.36522 13.4089 6.36522 13.1385 6.40194C12.671 6.46649 12.2192 6.65012 11.7596 6.7603C11.6883 6.77811 11.6182 6.79926 11.5492 6.82263C11.3344 6.89163 11.1163 6.98845 10.8881 6.99958C10.749 7.00737 10.6144 6.95952 10.4764 6.96842C10.2727 6.98178 10.1124 7.11421 9.91879 7.16429C9.74183 7.20881 9.5582 7.22328 9.37902 7.25555C9.24213 7.28004 9.11081 7.31565 8.97169 7.31899C8.78695 7.32344 8.61 7.38243 8.42748 7.37241C8.3351 7.36796 8.24718 7.39356 8.16594 7.43473C8.10918 7.46367 8.03795 7.51264 7.97452 7.52377C7.90774 7.53601 7.861 7.5004 7.80313 7.47146C7.69629 7.41804 7.57498 7.35683 7.51266 7.25333C7.4737 7.18878 7.50041 7.1565 7.52045 7.08416C7.54493 7.00069 7.53937 6.87716 7.58166 6.80371C7.59835 6.77477 7.61616 6.77811 7.63285 6.74918C7.65511 6.71134 7.65845 6.64233 7.66958 6.59893C7.72189 6.40528 7.77864 6.21386 7.83763 6.02244C7.8699 5.91894 7.86434 5.80876 7.96895 5.77871Z"/>
  <path d="M3.49213 6.62033C3.4376 6.7038 3.38752 6.7906 3.34189 6.88186C3.3174 6.93195 3.3085 6.98759 3.27734 7.03433C3.25285 7.06883 3.23505 7.07996 3.22169 7.12559C3.19164 7.22242 3.16827 7.32592 3.14045 7.42497C3.1193 7.50287 3.09704 7.55741 3.10706 7.63976C3.11596 7.71989 3.09148 7.80447 3.08146 7.88683C3.04362 8.23072 3.07924 8.68368 3.26398 8.99307C3.33187 9.10882 3.42647 9.20119 3.52774 9.28466C3.62123 9.36256 3.72584 9.42489 3.7826 9.54063C3.83268 9.64302 3.87275 9.72871 3.97069 9.79326C4.08754 9.86894 4.22555 9.85892 4.35353 9.84223C4.54829 9.81663 4.73971 9.75654 4.93114 9.71424C5.16485 9.66082 5.35293 9.58069 5.52989 9.41042C5.61002 9.33363 5.69571 9.25683 5.77028 9.17225C5.84262 9.08878 5.88936 8.98528 5.95725 8.89847C6.08857 8.72709 6.11083 8.45998 6.11862 8.24742C6.12307 8.14948 6.16091 8.06379 6.18874 7.97364C6.23325 7.83118 6.2633 7.67204 6.23993 7.52068C6.22212 7.40716 6.20765 7.31813 6.23103 7.20572C6.28111 6.97201 6.2032 6.74498 6.02736 6.58583C5.92052 6.49012 5.81925 6.38884 5.71574 6.28868C5.61336 6.18963 5.49205 6.12619 5.36184 6.08613C5.21938 6.04161 5.08472 5.97929 4.94338 5.93366C4.85434 5.90472 4.75641 5.93143 4.66737 5.93143C4.57611 5.93143 4.4971 5.9203 4.40695 5.94033C4.31124 5.96037 4.23445 6.03271 4.13985 6.05385C4.11759 6.05942 4.09311 6.05496 4.06974 6.06053C3.99294 6.07611 3.91504 6.13287 3.8516 6.17961C3.76368 6.24305 3.69802 6.33765 3.63125 6.42445C3.58228 6.489 3.53553 6.55355 3.49213 6.62033Z"/>
  <path d="M3.37182 12.0202C3.33955 12.0236 3.30728 12.0269 3.27611 12.0313C2.77085 12.0981 3.20489 12.5767 3.34178 12.8037C3.48534 13.0408 3.5421 13.26 3.58217 13.5304C3.6367 13.9022 3.74354 14.265 3.77136 14.6411C3.79807 14.9939 3.80586 15.3478 3.8259 15.7006C3.85595 16.2449 3.97614 16.769 4.01843 17.3099C4.0329 17.5013 4.02845 17.725 4.11971 17.9009C4.17758 18.0122 4.31781 18.0945 4.39126 18.1969C4.61162 18.5052 4.54707 18.9504 4.5415 19.3054C4.53705 19.5191 4.52592 19.7272 4.59492 19.9342C4.6617 20.1323 4.75518 20.3193 4.82307 20.5174C4.87649 20.6743 4.94104 20.8713 4.96441 21.0371C4.98111 21.154 4.97332 21.2697 4.99669 21.3843C5.0234 21.5134 5.09685 21.6247 5.11911 21.7538C5.11243 21.6626 5.11688 21.5713 5.11577 21.48C5.11466 21.3654 5.10353 21.2419 5.12356 21.1272C5.14582 20.9993 5.21705 20.8913 5.25934 20.77C5.34058 20.5385 5.38176 20.2914 5.43852 20.0544C5.48526 19.8574 5.49861 19.6482 5.49973 19.4467C5.50195 19.2865 5.47079 19.104 5.50195 18.9481C5.5487 18.7155 5.55537 18.4807 5.58765 18.2437C5.62104 17.9888 5.69338 17.7473 5.76572 17.5013C5.81134 17.3444 5.86365 17.1396 5.87144 16.976C5.89815 16.4508 5.85475 15.911 5.85475 15.3835C5.85475 15.0885 5.85697 14.7981 5.8247 14.5031C5.80244 14.3039 5.78018 14.1058 5.76572 13.9055C5.72899 13.3824 5.78241 12.8393 5.84251 12.3196C5.85141 12.245 5.87923 12.1182 5.83138 12.0514C5.75792 11.9501 5.63773 11.939 5.4975 11.9779C5.34948 12.0191 5.256 12.0536 5.09796 12.0525C4.95774 12.0514 4.81639 12.0536 4.67505 12.0536C4.53149 12.0536 4.37568 12.067 4.23545 12.048C3.96946 12.0102 3.64894 11.9946 3.37182 12.0202Z"/>
  <path d="M0.476232 11.6988C0.48291 11.6966 0.4907 11.6955 0.497378 11.6944C0.615347 11.6743 0.735542 11.6654 0.853512 11.6454C0.94811 11.6298 1.04382 11.5953 1.13063 11.5541C1.26974 11.4885 1.4211 11.4606 1.56578 11.4106C1.75164 11.346 1.96754 11.326 2.12669 11.2091C2.25579 11.1134 2.43831 11.0789 2.59078 11.0344C2.81559 10.971 3.04151 10.9253 3.26187 10.8474C3.46108 10.7773 3.65696 10.7161 3.86507 10.6727C3.99862 10.6449 4.11548 10.5959 4.24124 10.5469C4.34029 10.5091 4.43044 10.5102 4.53505 10.4969C4.69308 10.4757 4.85001 10.4212 5.00248 10.3756C5.18722 10.3199 5.35638 10.3288 5.54224 10.3088C5.74702 10.2865 5.93288 10.2209 6.14211 10.2186C6.22001 10.2175 6.30459 10.2275 6.38361 10.2142C6.47598 10.1997 6.56279 10.1496 6.6585 10.1541C6.72973 10.1585 6.79205 10.2008 6.86328 10.2075C6.92338 10.2131 6.98125 10.1953 7.03801 10.1808C7.34962 10.1007 7.71689 10.0294 7.97731 9.8458C8.06857 9.78237 8.17986 9.77458 8.28559 9.75232C8.38909 9.73117 8.47812 9.6989 8.57606 9.66106C8.6228 9.64325 8.74523 9.59985 8.80532 9.62322C8.85429 9.64214 8.84984 9.67441 8.86876 9.7167C8.90771 9.80351 8.99786 9.88364 9.01566 9.97601C9.04015 10.0951 9.01344 10.2353 9.02457 10.3577C9.03681 10.4857 9.06241 10.6126 9.07465 10.7406C9.10025 11.0021 9.0958 11.2893 9.04126 11.5452C9.02679 11.6142 9.01678 11.6799 9.01789 11.7511C9.01789 11.7756 9.03236 11.8246 9.01344 11.8435C8.99229 11.868 8.82869 11.8491 8.80198 11.8491C8.65063 11.8479 8.50817 11.8847 8.35904 11.9014C8.25331 11.9136 8.1487 11.9092 8.04297 11.9314C7.75027 11.9937 7.47205 12.0928 7.17378 12.1362C6.93562 12.1696 6.69634 12.2063 6.45818 12.243C6.18774 12.2853 5.91618 12.2853 5.64574 12.322C5.17832 12.3866 4.72647 12.5702 4.26684 12.6804C4.19561 12.6982 4.1255 12.7194 4.05649 12.7427C3.8417 12.8117 3.62357 12.9086 3.39542 12.9197C3.25631 12.9275 3.12164 12.8796 2.98364 12.8885C2.77998 12.9019 2.61972 13.0343 2.42607 13.0844C2.24911 13.1289 2.06548 13.1434 1.8863 13.1757C1.74941 13.2001 1.61809 13.2358 1.47897 13.2391C1.29423 13.2435 1.11727 13.3025 0.934755 13.2925C0.842383 13.2881 0.754462 13.3137 0.673219 13.3548C0.61646 13.3838 0.545233 13.4327 0.481797 13.4439C0.415022 13.4561 0.368279 13.4205 0.310407 13.3916C0.203567 13.3381 0.0822585 13.2769 0.019935 13.1734C-0.0190172 13.1089 0.00769291 13.0766 0.0277255 13.0043C0.0522097 12.9208 0.0466451 12.7973 0.0889361 12.7238C0.10563 12.6949 0.123437 12.6982 0.14013 12.6693C0.162389 12.6314 0.165728 12.5624 0.176857 12.519C0.229164 12.3254 0.285923 12.134 0.344908 11.9425C0.377182 11.839 0.371618 11.7289 0.476232 11.6988Z"/>
  <path d="M20.5254 4.94882C20.5799 5.03229 20.6311 5.1191 20.6756 5.21036C20.7001 5.26044 20.709 5.31608 20.7402 5.36283C20.7647 5.39733 20.7825 5.40846 20.7958 5.45408C20.8259 5.55202 20.8492 5.65441 20.8771 5.75346C20.8982 5.83136 20.9205 5.8859 20.9104 5.96825C20.9015 6.04838 20.926 6.13297 20.936 6.21532C20.9739 6.55921 20.9383 7.01217 20.7535 7.32156C20.6856 7.43731 20.591 7.52968 20.4898 7.61315C20.3963 7.69105 20.2917 7.75338 20.2349 7.86912C20.1848 7.97151 20.1448 8.0572 20.0468 8.12175C19.93 8.19743 19.792 8.18742 19.664 8.17072C19.4692 8.14512 19.2778 8.08503 19.0864 8.04274C18.8527 7.99043 18.6646 7.90919 18.4876 7.73891C18.4075 7.66212 18.3218 7.58533 18.2472 7.50074C18.1749 7.41728 18.1281 7.31377 18.0603 7.22697C17.9289 7.05558 17.9067 6.78848 17.8989 6.57591C17.8944 6.47797 17.8566 6.39228 17.8288 6.30213C17.7843 6.15968 17.7542 6.00053 17.7776 5.84917C17.7954 5.73565 17.8098 5.64662 17.7865 5.53421C17.7364 5.3005 17.8143 5.07347 17.9901 4.91432C18.097 4.81861 18.1983 4.71733 18.3018 4.61717C18.4041 4.51812 18.5255 4.45468 18.6557 4.41462C18.7981 4.3701 18.9328 4.30778 19.0741 4.26215C19.1632 4.23321 19.2611 4.25992 19.3501 4.25992C19.4414 4.25992 19.5204 4.24879 19.6106 4.26883C19.7063 4.28886 19.7831 4.3612 19.8777 4.38234C19.8999 4.38791 19.9244 4.38346 19.9478 4.38902C20.0246 4.4046 20.1025 4.46136 20.1659 4.5081C20.2538 4.57154 20.3195 4.66614 20.3863 4.75295C20.4352 4.81749 20.482 4.88204 20.5254 4.94882Z"/>
  <path d="M20.6495 10.3084C20.8442 10.3796 20.7129 10.8393 20.6962 10.9862C20.6595 11.2945 20.5871 11.5894 20.5805 11.9043C20.5771 12.0557 20.5248 12.1592 20.4925 12.2983C20.4669 12.4085 20.4892 12.522 20.487 12.6322C20.4814 12.8225 20.4146 12.9917 20.3724 13.1753C20.3345 13.3467 20.3468 13.5225 20.2944 13.6906C20.2599 13.8041 20.2065 13.8954 20.1832 14.0111C20.1286 14.2827 20.0886 14.572 20.0618 14.8469C20.0107 15.3744 20.0418 15.9042 20.0518 16.4328C20.063 17.0516 19.9183 17.6125 19.6957 18.1834C19.6033 18.4183 19.5755 18.6564 19.58 18.908C19.5844 19.0949 19.59 19.2752 19.5499 19.4588C19.531 19.5479 19.5421 19.6258 19.531 19.7137C19.5221 19.7872 19.482 19.8495 19.4798 19.9252C19.4776 20.022 19.5187 20.2512 19.3952 20.2791C19.3841 20.1789 19.3173 20.0932 19.2884 19.9975C19.2516 19.8818 19.2561 19.7805 19.2394 19.6647C19.2205 19.5379 19.1481 19.4366 19.1448 19.3053C19.1415 19.1706 19.1281 19.0549 19.0992 18.9224C19.0035 18.4928 18.8599 18.0755 18.7597 17.6481C18.6996 17.3944 18.6785 17.1629 18.575 16.9181C18.4793 16.6921 18.3569 16.4339 18.4225 16.1857C18.457 16.05 18.4759 15.9398 18.477 15.7973C18.4826 15.0528 18.427 14.3071 18.486 13.5637C18.5171 13.1809 18.5984 12.8147 18.5716 12.4263C18.5516 12.1514 18.5127 11.8788 18.4303 11.615C18.3502 11.3579 18.3513 11.0452 18.2055 10.817C18.1599 10.7458 18.1087 10.6879 18.1009 10.6C18.0931 10.5288 18.112 10.4486 18.1543 10.3919C18.3357 10.1526 18.6907 10.383 18.9189 10.3819C19.0602 10.3808 19.2016 10.3819 19.3429 10.3819C19.4854 10.3819 19.6423 10.3952 19.7825 10.3763C19.8771 10.363 19.9595 10.3574 20.0563 10.3574C20.2076 10.3574 20.3601 10.3574 20.5115 10.3574C20.5782 10.3574 20.6528 10.3507 20.7185 10.3563C20.7619 10.3596 20.8821 10.3908 20.6495 10.3084Z"/>
  <path d="M23.5412 10.0274C23.5345 10.0252 23.5267 10.0241 23.52 10.023C23.402 10.0029 23.2818 9.99402 23.1639 9.97399C23.0693 9.95841 22.9736 9.92391 22.8868 9.88273C22.7488 9.81707 22.5963 9.78925 22.4516 9.73917C22.2657 9.67462 22.0498 9.65458 21.8907 9.53773C21.7616 9.44202 21.5791 9.40752 21.4266 9.363C21.2018 9.29956 20.9759 9.25393 20.7555 9.17603C20.5563 9.10591 20.3604 9.0447 20.1523 9.0013C20.0188 8.97348 19.9019 8.92451 19.7761 8.87554C19.6771 8.8377 19.587 8.83881 19.4823 8.82546C19.3243 8.80431 19.1674 8.74978 19.0149 8.70415C18.8302 8.6485 18.661 8.65741 18.4751 8.63737C18.2704 8.61512 18.0845 8.54945 17.8753 8.54723C17.7974 8.54612 17.7128 8.55613 17.6338 8.54278C17.5414 8.52831 17.4546 8.47823 17.3589 8.48268C17.2877 8.48713 17.2253 8.52942 17.1541 8.5361C17.094 8.54166 17.0361 8.52386 16.9794 8.50939C16.6678 8.42926 16.3005 8.35803 16.0401 8.1744C15.9488 8.11096 15.8375 8.10317 15.7318 8.08092C15.6283 8.05977 15.5393 8.0275 15.4413 7.98966C15.3946 7.97185 15.2722 7.92845 15.2121 7.95182C15.1631 7.97074 15.1675 8.00301 15.1486 8.0453C15.1097 8.13211 15.0195 8.21224 15.0017 8.30461C14.9772 8.42369 15.0039 8.56392 14.9928 8.68634C14.9806 8.81433 14.955 8.9412 14.9427 9.06919C14.9171 9.33072 14.9216 9.61786 14.9761 9.87383C14.9906 9.94283 15.0006 10.0085 14.9995 10.0797C14.9995 10.1042 14.985 10.1532 15.0039 10.1721C15.0251 10.1966 15.1887 10.1777 15.2154 10.1777C15.3668 10.1765 15.5092 10.2133 15.6583 10.23C15.7641 10.2422 15.8687 10.2378 15.9744 10.26C16.2671 10.3223 16.5453 10.4214 16.8436 10.4648C17.0818 10.4982 17.321 10.5349 17.5592 10.5716C17.8297 10.6139 18.1012 10.6139 18.3716 10.6506C18.8391 10.7152 19.2909 10.8988 19.7506 11.009C19.8218 11.0268 19.8919 11.048 19.9609 11.0713C20.1757 11.1403 20.3938 11.2372 20.622 11.2483C20.7611 11.2561 20.8957 11.2082 21.0337 11.2171C21.2374 11.2305 21.3977 11.3629 21.5913 11.413C21.7683 11.4575 21.9519 11.472 22.1311 11.5043C22.268 11.5287 22.3993 11.5644 22.5384 11.5677C22.7232 11.5721 22.9001 11.6311 23.0826 11.6211C23.175 11.6167 23.2629 11.6423 23.3442 11.6834C23.4009 11.7124 23.4722 11.7613 23.5356 11.7725C23.6024 11.7847 23.6491 11.7491 23.707 11.7202C23.8138 11.6667 23.9351 11.6055 23.9975 11.502C24.0364 11.4375 24.0097 11.4052 23.9897 11.3329C23.9652 11.2494 23.9707 11.1259 23.9285 11.0524C23.9118 11.0235 23.894 11.0268 23.8773 10.9979C23.855 10.96 23.8517 10.891 23.8405 10.8476C23.7882 10.654 23.7315 10.4626 23.6725 10.2711C23.6402 10.1676 23.6458 10.0575 23.5412 10.0274Z"/>
</svg>
