<?xml version="1.0" encoding="UTF-8" standalone="no"?>
<!-- Created with Inkscape (http://www.inkscape.org/) -->

<svg
   width="23.999214"
   height="24"
   viewBox="0 0 6.3497919 6.35"
   version="1.1"
   id="svg7214"
   inkscape:version="1.2.1 (9c6d41e4, 2022-07-14)"
   sodipodi:docname="expansion_icon.svg"
   xmlns:inkscape="http://www.inkscape.org/namespaces/inkscape"
   xmlns:sodipodi="http://sodipodi.sourceforge.net/DTD/sodipodi-0.dtd"
   xmlns="http://www.w3.org/2000/svg"
   xmlns:svg="http://www.w3.org/2000/svg">
  <sodipodi:namedview
     id="namedview7216"
     pagecolor="#505050"
     bordercolor="#eeeeee"
     borderopacity="1"
     inkscape:showpageshadow="0"
     inkscape:pageopacity="0"
     inkscape:pagecheckerboard="0"
     inkscape:deskcolor="#505050"
     inkscape:document-units="mm"
     showgrid="false"
     inkscape:zoom="0.70199214"
     inkscape:cx="133.90463"
     inkscape:cy="47.009073"
     inkscape:window-width="1390"
     inkscape:window-height="938"
     inkscape:window-x="0"
     inkscape:window-y="25"
     inkscape:window-maximized="0"
     inkscape:current-layer="layer1" />
  <defs
     id="defs7211">
    <clipPath
       clipPathUnits="userSpaceOnUse"
       id="clipPath5689">
      <path
         d="m 219.983,389.292 h 30.569 v 30.569 h -30.569 z"
         id="path5687" />
    </clipPath>
  </defs>
  <g
     inkscape:label="Layer 1"
     inkscape:groupmode="layer"
     id="layer1"
     transform="translate(-69.611951,-135.94681)">
    <g
       id="g5683"
       transform="matrix(0.20772678,0,0,-0.20772678,23.915383,223.16318)">
      <g
         id="g5685"
         clip-path="url(#clipPath5689)">
        <g
           id="g5691"
           transform="translate(230.934,403.427)">
          <path
             d="M 0,0 C 0.78,0 1.413,0.632 1.413,1.413 1.413,2.193 0.78,2.825 0,2.825 -0.78,2.825 -1.413,2.193 -1.413,1.413 -1.413,0.632 -0.78,0 0,0"
             style="fill:#231f20;fill-opacity:1;fill-rule:nonzero;stroke:none"
             id="path5693" />
        </g>
        <g
           id="g5695"
           transform="translate(234.397,396.611)">
          <path
             d="M 0,0 V 4.041 L -2.696,2.021 Z"
             style="fill:#231f20;fill-opacity:1;fill-rule:nonzero;stroke:none"
             id="path5697" />
        </g>
        <g
           id="g5699"
           transform="translate(244.472,412.977)">
          <path
             d="m 0,0 v -17.5 h -6.749 v 9.235 l -1.765,2.83 -5.029,3.365 -4.858,-3.392 -1.942,-3.264 -0.656,0.438 2.091,3.477 0.035,-0.023 -0.004,0.008 5.298,3.605 0.014,0.027 5.528,-3.605 -0.004,-0.008 0.035,0.023 1.257,-2.004 v 6.401 c -0.021,0.13 -0.034,0.262 -0.034,0.397 0,1.629 1.518,2.95 3.391,2.95 C -1.518,2.96 0,1.639 0,0.01 0,0.007 -0.001,0.003 -0.001,0 Z m -7.713,-17.5 h -2.059 -0.303 -6.751 -0.153 v 0 h -2.572 v 9.119 l 1.547,2.374 4.466,3.169 4.547,-3.143 1.34,-2.322 z M -9.204,6.884 c -8.441,0 -15.284,-6.843 -15.284,-15.284 0,-8.442 6.843,-15.285 15.284,-15.285 8.442,0 15.285,6.843 15.285,15.285 0,8.441 -6.843,15.284 -15.285,15.284"
             style="fill:#231f20;fill-opacity:1;fill-rule:nonzero;stroke:none"
             id="path5701" />
        </g>
      </g>
    </g>
  </g>
</svg>
