<?xml version="1.0" encoding="UTF-8" standalone="no"?>
<!-- Created with Inkscape (http://www.inkscape.org/) -->

<svg
   width="23.869074"
   height="24"
   viewBox="0 0 6.315359 6.35"
   version="1.1"
   id="svg6952"
   inkscape:version="1.2.1 (9c6d41e4, 2022-07-14)"
   sodipodi:docname="return_to_undimensioned_and_unseen.svg"
   xmlns:inkscape="http://www.inkscape.org/namespaces/inkscape"
   xmlns:sodipodi="http://sodipodi.sourceforge.net/DTD/sodipodi-0.dtd"
   xmlns="http://www.w3.org/2000/svg"
   xmlns:svg="http://www.w3.org/2000/svg">
  <sodipodi:namedview
     id="namedview6954"
     pagecolor="#505050"
     bordercolor="#eeeeee"
     borderopacity="1"
     inkscape:showpageshadow="0"
     inkscape:pageopacity="0"
     inkscape:pagecheckerboard="0"
     inkscape:deskcolor="#505050"
     inkscape:document-units="mm"
     showgrid="false"
     inkscape:zoom="0.70199214"
     inkscape:cx="21.367761"
     inkscape:cy="176.64015"
     inkscape:window-width="1390"
     inkscape:window-height="938"
     inkscape:window-x="0"
     inkscape:window-y="25"
     inkscape:window-maximized="0"
     inkscape:current-layer="layer1" />
  <defs
     id="defs6949">
    <clipPath
       clipPathUnits="userSpaceOnUse"
       id="clipPath617">
      <path
         d="m 150.565,412.872 h 22.058 v 22.057 h -22.058 z"
         id="path615" />
    </clipPath>
  </defs>
  <g
     inkscape:label="Layer 1"
     inkscape:groupmode="layer"
     id="layer1"
     transform="translate(-99.492991,-101.73369)">
    <g
       id="g611"
       transform="matrix(0.2948087,0,0,-0.2948087,55.011243,229.87831)">
      <g
         id="g613"
         clip-path="url(#clipPath617)">
        <g
           id="g619"
           transform="translate(169.963,420.905)">
          <path
             d="m 0,0 c -0.127,-0.204 -0.282,-0.34 -0.355,-0.583 -0.119,-0.4 -0.155,-0.728 -0.469,-1.042 -0.232,-0.234 -0.507,-0.42 -0.739,-0.656 -0.287,-0.292 -0.522,-0.632 -0.775,-0.955 -0.015,-0.012 -0.03,-0.025 -0.046,-0.037 -0.353,-0.262 -0.791,-0.558 -1.055,-0.949 -0.121,-0.071 -0.235,-0.144 -0.336,-0.233 -0.194,0.011 -0.406,-0.009 -0.568,-0.077 -0.21,-0.087 -0.3,-0.297 -0.487,-0.388 -0.16,-0.076 -0.37,0.009 -0.526,-0.011 -0.213,-0.027 -0.396,-0.144 -0.575,-0.229 -0.184,-0.089 -0.431,-0.337 -0.602,-0.397 -0.221,-0.079 -0.473,0.106 -0.695,0.094 -0.183,-0.01 -0.268,-0.106 -0.436,-0.176 -0.138,-0.059 -0.306,-0.064 -0.432,-0.128 -0.134,-0.18 -0.559,-0.186 -0.751,-0.165 -0.221,0.024 -0.445,0.155 -0.658,0.216 -0.256,0.073 -0.502,0.013 -0.737,0.073 -0.466,0.12 -0.463,0.614 -0.369,0.979 0.094,0.37 0.273,0.734 0.283,1.124 0.012,0.428 -0.104,0.914 -0.143,1.347 -0.025,0.274 -0.147,0.541 -0.336,0.719 -0.003,0.009 -0.005,0.018 -0.009,0.027 -0.041,0.105 -0.109,0.182 -0.191,0.237 -0.134,0.261 -0.354,0.378 -0.632,0.227 -0.223,-0.121 -0.452,-0.449 -0.725,-0.433 -0.149,0.009 -0.186,-0.197 -0.096,-0.284 0.155,-0.148 0.174,-0.318 0.116,-0.518 -0.012,-0.042 -0.007,-0.078 0.008,-0.106 -0.008,-0.044 -0.014,-0.087 -0.017,-0.129 -0.024,-0.324 0.06,-1.086 0.556,-0.895 0.342,0.131 0.419,0.713 -0.057,0.626 -0.003,-0.044 -0.018,-0.128 -0.014,-0.161 -0.092,0.348 0.167,0.454 0.427,0.304 0.453,-0.26 0.373,-0.958 -0.023,-1.233 -0.525,-0.366 -1.274,0.049 -1.484,0.551 -0.156,0.373 -0.072,0.789 -0.13,1.181 -0.055,0.374 -0.202,0.679 -0.005,1.038 0.266,0.484 0.671,1.177 1.285,1.305 0.333,0.069 0.812,-0.195 1.089,-0.367 0.65,-0.403 0.784,-1.381 0.906,-2.064 0.082,-0.457 0.063,-0.879 0.015,-1.338 -0.019,-0.179 -0.097,-0.447 0.02,-0.609 0.413,-0.572 1.343,-0.081 1.836,-0.011 -0.336,0.166 -0.877,0.481 -0.913,0.881 -0.029,0.329 0.071,0.571 -0.018,0.916 -0.12,0.468 -0.122,0.923 -0.17,1.4 -0.039,0.393 -0.122,0.752 -0.119,1.16 0.002,0.231 0.084,0.556 -0.055,0.774 -0.222,0.351 -0.778,0.318 -1.149,0.348 -0.242,0.019 -0.513,0.015 -0.728,0.152 -0.453,0.289 -0.375,0.768 -0.622,1.149 -0.191,-0.007 -0.293,-0.169 -0.456,-0.189 -0.166,-0.019 -0.365,0.065 -0.524,0.115 -0.31,0.098 -0.746,0.23 -1.021,0.408 -0.186,0.12 -0.248,0.28 -0.393,0.434 -0.288,0.306 -0.162,0.018 -0.467,0.085 -0.237,0.051 -0.552,0.5 -0.754,0.919 -0.049,-0.197 -0.156,-0.438 -0.052,-0.585 0.033,-0.047 0.204,-0.049 0.255,-0.1 0.109,-0.108 0.207,-0.207 0.29,-0.357 0.203,-0.373 0.207,-0.665 0.103,-1.067 -0.083,-0.32 -0.153,-0.506 -0.028,-0.808 0.149,-0.363 0.609,-0.734 0.573,-1.17 -0.009,-0.106 0.167,-0.483 0.116,-0.566 -0.051,-0.04 -0.21,-0.337 -0.588,-0.42 -1.799,-0.388 -1.855,2.143 -0.759,1.327 -0.794,0.143 -0.299,-0.99 0.524,-0.911 0.096,0.01 0.395,0.131 0.38,0.379 -0.014,0.243 -0.138,0.521 -0.29,0.661 -0.173,0.159 -0.374,0.286 -0.513,0.479 -0.26,0.359 -0.205,0.645 -0.118,1.042 0.073,0.33 0.138,0.769 -0.165,0.944 0.003,0.019 0.006,0.039 0.01,0.058 -0.413,0.165 -1.246,0.333 -0.934,1.022 0.081,0.177 0.279,0.201 0.264,0.41 -0.01,0.137 -0.172,0.25 -0.21,0.391 -0.05,0.188 -0.05,0.393 -0.011,0.595 0.037,0.01 0.07,0.037 0.089,0.087 0.119,0.319 0.4,0.63 0.658,0.846 0.307,0.256 0.526,0.064 0.613,-0.215 -0.086,-0.138 -0.141,-0.292 -0.141,-0.443 -10e-4,-0.053 0.151,-0.67 0.151,-0.67 0.703,-0.157 0.999,-0.928 1.408,-1.426 0.65,-0.79 1.458,-0.442 2.357,-0.469 1.079,-0.032 0.405,-1.234 1.463,-1.371 0.405,-0.053 0.8,0.243 1.142,0.203 0.342,-0.041 0.459,-0.548 0.507,-0.808 0.145,-0.806 -0.081,-1.585 -0.271,-2.354 -0.192,-0.778 0.451,-1.627 0.782,-2.331 0.448,-0.958 1.545,-0.28 2.149,0.133 0.194,0.132 0.575,0.492 0.821,0.526 0.152,0.022 0.301,-0.067 0.445,-0.097 -0.103,0.707 -1.203,0.184 -1.54,0.114 -0.624,-0.129 -1.161,0.042 -1.652,0.478 -0.584,0.521 -0.09,1.95 0.699,2.105 0.422,0.083 0.262,-0.402 0.626,-0.434 0.35,-0.03 0.647,0.38 0.505,0.698 -0.173,0.385 -0.658,0.398 -0.495,0.945 0.103,0.347 0.284,0.284 0.469,0.301 -0.084,-0.067 -0.123,-0.172 -0.157,-0.31 -0.088,-0.363 0.099,-0.464 0.324,-0.705 0.339,-0.364 0.349,-0.775 0.022,-1.169 -0.534,0.129 -1.227,-1.115 -1.13,0.152 -0.311,0.052 -0.561,-0.229 -0.652,-0.52 -0.154,-0.499 0.366,-0.753 0.832,-0.835 0.72,-0.127 1.146,0.246 1.717,0.573 0.212,0.122 0.508,0.266 0.762,0.232 -0.136,0.111 -0.313,0.147 -0.441,0.276 -0.253,0.255 -0.279,0.606 -0.255,0.937 0.027,0.362 0.115,0.541 -0.002,0.9 -0.12,0.365 -0.307,0.737 -0.31,1.13 C -5.395,2.076 -5.652,2.826 -6.104,2.804 -6.284,2.796 -6.396,2.685 -6.628,2.733 -6.814,2.771 -7.111,2.896 -7.19,3.085 -7.378,3.532 -6.824,3.891 -7.411,4.24 -7.599,4.352 -8.205,4.515 -8.285,4.253 -8.83,4.637 -8.812,4.181 -9.228,3.837 c -0.394,0.445 -0.975,0.124 -1.118,0.867 -0.048,0.248 0.024,0.696 0.295,0.82 0.18,0.082 0.291,-0.026 0.421,-0.079 -0.398,0.035 -0.487,-1.054 0.262,-1.039 0.273,0.005 0.273,0.19 0.436,0.321 0.366,0.293 0.774,0.232 1.205,0.068 0.431,-0.163 0.726,-0.444 0.962,-0.822 0.176,-0.283 0.188,-0.519 0.471,-0.657 0.678,-0.329 2.074,-0.273 2.448,-1.03 0.105,-0.213 0.038,-0.37 0.053,-0.58 0.015,-0.215 0.102,-0.446 0.168,-0.659 0.201,-0.639 0.304,-0.991 0.852,-1.216 -0.509,0.252 -0.632,0.843 -0.476,1.42 0.068,0.252 0.198,0.357 0.335,0.57 0.236,0.365 0.072,0.112 -0.038,0.481 -0.102,0.344 0.033,1.035 0.158,1.361 C -3.266,3.9 -3.224,4.324 -3.526,4.676 -3.755,4.943 -4.1,5.108 -4.42,5.19 -4.609,5.238 -5.074,5.247 -5.009,5.59 -5.279,5.231 -6.069,5.246 -6.463,5.32 -6.706,5.366 -7.06,5.473 -7.218,5.669 -7.39,5.883 -7.337,6.358 -7.54,6.541 -7.83,6.803 -8.166,6.669 -8.346,7.142 -8.52,7.599 -8.436,7.906 -8.437,8.357 -8.438,8.673 -8.56,9.05 -8.721,9.313 c -0.246,0.4 -0.342,0.43 -0.838,0.36 -0.917,-0.131 -1.762,-0.235 -2.656,-0.533 -0.171,-0.057 -0.368,-0.185 -0.564,-0.19 -0.147,-0.004 -0.278,0.072 -0.43,0.072 -0.378,10e-4 -0.664,-0.32 -0.578,-0.699 1.096,-0.04 1.842,-0.681 2.487,-1.449 0.741,-0.882 -0.522,-1.819 -1.357,-1.832 -0.373,-0.005 -0.622,0.043 -0.688,0.435 -0.037,0.222 -0.022,0.467 0.099,0.589 -0.225,-0.477 0.421,-0.575 0.721,-0.528 0.387,0.06 1.037,0.439 0.914,0.93 -0.069,0.279 -0.6,0.755 -0.823,0.935 -0.4,0.322 -0.8,0.18 -1.282,0.189 -0.499,0.01 -1.206,0.081 -1.265,0.705 -0.044,0.464 0.319,0.855 0.716,0.986 0.308,0.102 0.613,0.206 0.914,0.349 0.08,0.038 0.165,0.07 0.251,0.1 0.226,-0.03 0.416,-0.012 0.643,0.084 0.176,0.075 0.308,0.13 0.451,0.162 0.038,0.006 0.077,0.013 0.115,0.019 0.082,0.01 0.17,0.014 0.276,0.007 0.149,-0.009 0.295,-0.024 0.443,0.005 0.463,0.089 0.83,0.34 1.327,0.359 0.388,0.015 0.782,0.157 1.168,0.179 0.096,-0.021 0.188,-0.054 0.275,-0.102 0.6,-0.333 0.517,-0.903 0.529,-1.496 0.012,-0.618 0.275,-1.468 0.803,-1.845 0.117,-0.083 0.235,-0.139 0.356,-0.176 0.141,-0.323 0.502,-0.356 0.845,-0.285 0.202,-0.088 0.421,-0.156 0.605,-0.113 0.029,-0.02 0.063,-0.04 0.108,-0.057 0.473,-0.176 0.987,0.089 1.473,-0.103 0.033,-0.014 0.068,-0.014 0.1,-0.006 0.58,-0.508 0.69,-1.121 1.056,-1.77 0.003,-0.005 0.007,-0.01 0.009,-0.015 0.08,0.257 0.188,0.52 0.134,0.787 C -2.416,5.527 -2.486,5.712 -2.571,5.857 -2.615,5.932 -2.73,6.029 -2.74,6.115 -2.754,6.243 -2.602,6.367 -2.599,6.491 -2.597,6.6 -2.658,6.684 -2.701,6.785 -2.868,7.182 -3.035,7.563 -3.103,7.977 -3.143,8.222 -3.23,8.291 -3.346,8.489 -3.458,8.678 -3.297,8.78 -3.358,8.949 -3.435,9.161 -3.973,9.358 -4.14,9.204 -4.227,9.125 -4.237,8.95 -4.315,8.858 -4.424,8.729 -4.577,8.683 -4.71,8.586 -4.809,8.513 -4.936,8.356 -5.064,8.319 c -0.302,-0.09 -0.854,0.142 -1.041,0.347 -0.127,0.14 -0.35,0.608 -0.327,0.806 0.02,0.172 0.081,0.175 0.222,0.293 0.084,0.07 0.11,0.102 0.181,0.181 0.262,0.298 0.738,0.295 0.85,-0.011 C -5.13,9.8 -5.253,9.275 -5.505,9.319 -5.646,9.344 -5.752,9.42 -5.729,9.558 -5.75,9.319 -5.4,9.463 -5.421,9.659 c -0.03,0.279 -0.441,0.185 -0.561,0.04 -0.599,-0.722 1.303,-1.426 1.407,-0.407 0.027,0.274 -0.035,0.44 0.279,0.469 0.13,0.012 0.249,-0.021 0.38,-0.024 0.1,-0.002 0.223,0.062 0.322,0.04 0.126,-0.029 0.322,-0.176 0.431,-0.249 0.24,-0.162 0.28,-0.351 0.348,-0.634 0.2,-0.841 0.422,-1.596 0.918,-2.322 C -1.447,5.913 -1.112,5.296 -1.263,4.49 -1.345,4.05 -1.433,3.599 -1.621,3.193 -1.632,3.168 -1.645,3.144 -1.658,3.12 -1.758,2.888 -1.89,2.635 -1.847,2.397 -1.769,1.963 -1.524,1.41 -1.364,1.02 -1.128,0.442 -0.858,0.25 -0.309,0.565 -0.135,0.664 0.171,0.804 0.363,0.983 0.29,0.642 0.195,0.313 0,0 M 2.259,2.44 C 2.291,2.63 2.169,2.814 2.055,2.981 V 2.868 C 2.042,2.868 2.029,2.867 2.016,2.866 2.01,2.956 1.987,3.05 2.002,3.137 2.051,3.424 2.117,3.708 2.168,3.994 2.182,4.075 2.179,4.164 2.16,4.243 2.096,4.507 2.025,4.769 1.951,5.03 1.89,5.247 1.829,5.463 1.754,5.676 1.71,5.802 1.643,5.922 1.58,6.041 1.554,6.09 1.509,6.128 1.476,6.173 1.461,6.193 1.452,6.216 1.443,6.239 1.395,6.374 1.504,6.513 1.428,6.649 1.402,6.694 1.389,6.75 1.382,6.802 1.362,6.952 1.35,7.103 1.332,7.253 1.329,7.279 1.322,7.307 1.308,7.327 1.225,7.442 1.138,7.554 1.057,7.67 1.043,7.691 1.051,7.726 1.047,7.765 0.86,7.934 0.775,8.198 0.578,8.389 0.4,8.56 0.288,8.799 0.146,9.007 0.053,9.144 -0.045,9.279 -0.136,9.418 -0.215,9.539 -0.344,9.62 -0.357,9.796 c -0.006,0.095 -0.109,0.195 -0.189,0.27 -0.162,0.151 -0.338,0.286 -0.508,0.428 -0.003,-0.026 -0.006,-0.055 -0.01,-0.085 -0.01,-0.004 -0.021,-0.008 -0.031,-0.013 -0.068,0.1 -0.134,0.2 -0.202,0.299 -0.045,0.064 -0.092,0.126 -0.138,0.189 -0.034,0.047 -0.069,0.093 -0.102,0.141 -0.054,0.08 -0.106,0.163 -0.161,0.243 -0.019,0.028 -0.046,0.05 -0.066,0.076 -0.081,0.108 -0.157,0.219 -0.245,0.321 -0.022,0.026 -0.077,0.028 -0.119,0.033 -0.059,0.008 -0.123,-0.001 -0.179,0.015 -0.238,0.069 -0.477,0.138 -0.71,0.223 -0.095,0.034 -0.188,0.094 -0.26,0.164 -0.222,0.214 -0.499,0.359 -0.708,0.595 -0.11,0.125 -0.288,0.193 -0.442,0.274 -0.172,0.09 -0.35,0.166 -0.527,0.246 -0.096,0.043 -0.193,0.1 -0.295,0.114 -0.199,0.029 -0.402,0.029 -0.602,0.048 -0.232,0.023 -0.472,0.004 -0.687,0.122 -0.23,0.126 -0.481,0.103 -0.728,0.107 -0.018,0 -0.041,-0.003 -0.052,-0.014 -0.111,-0.104 -0.237,-0.06 -0.359,-0.037 -0.019,0.004 -0.029,0.049 -0.05,0.087 -0.056,0.007 -0.128,0.024 -0.201,0.025 -0.154,0.003 -0.309,-0.003 -0.463,-0.005 -0.161,-0.003 -0.322,-0.016 -0.482,-0.003 -0.15,0.012 -0.297,0.051 -0.446,0.079 -0.003,0 -0.004,0.008 -0.007,0.009 -0.06,0.005 -0.127,0.03 -0.18,0.012 -0.139,-0.047 -0.278,-0.102 -0.404,-0.176 -0.066,-0.038 -0.172,-0.058 -0.17,-0.175 0,-0.016 -0.027,-0.038 -0.047,-0.049 -0.076,-0.043 -0.155,-0.083 -0.233,-0.124 10e-4,0.013 10e-4,0.025 0.002,0.037 -0.023,0.005 -0.047,0.018 -0.068,0.013 -0.113,-0.023 -0.224,-0.055 -0.338,-0.075 -0.045,-0.008 -0.097,0.019 -0.142,0.012 -0.177,-0.03 -0.353,-0.068 -0.529,-0.102 -0.216,-0.042 -0.433,-0.083 -0.649,-0.125 -0.03,-0.006 -0.061,-0.028 -0.089,-0.024 -0.199,0.029 -0.368,-0.079 -0.552,-0.117 -0.033,-0.007 -0.058,-0.049 -0.086,-0.075 0.005,-0.005 0.011,-0.01 0.017,-0.015 l 0.168,0.054 c 0.004,-0.011 0.008,-0.022 0.012,-0.033 -0.117,-0.079 -0.234,-0.158 -0.351,-0.237 -0.005,0.016 -0.011,0.033 -0.016,0.049 -0.042,-0.003 -0.09,0.007 -0.123,-0.011 -0.101,-0.057 -0.196,-0.125 -0.293,-0.19 -0.158,-0.104 -0.308,-0.221 -0.475,-0.309 -0.12,-0.064 -0.268,-0.071 -0.39,-0.132 -0.287,-0.144 -0.573,-0.294 -0.76,-0.573 -0.069,-0.102 -0.148,-0.197 -0.238,-0.316 -0.021,0.042 -0.032,0.064 -0.04,0.08 -0.217,-0.183 -0.295,-0.438 -0.43,-0.656 -0.123,-0.199 -0.25,-0.402 -0.412,-0.567 -0.198,-0.2 -0.438,-0.358 -0.652,-0.542 -0.212,-0.183 -0.251,-0.45 -0.316,-0.702 -0.026,-0.102 -0.049,-0.205 -0.074,-0.308 -0.012,0.003 -0.024,0.005 -0.036,0.008 0.003,0.031 0.007,0.061 0.01,0.092 -0.051,-0.05 -0.07,-0.112 -0.103,-0.165 -0.071,-0.113 -0.148,-0.222 -0.224,-0.331 -0.019,-0.029 -0.048,-0.051 -0.068,-0.079 -0.119,-0.177 -0.237,-0.354 -0.353,-0.533 -0.02,-0.031 -0.028,-0.072 -0.037,-0.109 -0.047,-0.2 -0.087,-0.402 -0.141,-0.6 -0.051,-0.183 -0.115,-0.361 -0.174,-0.541 l -0.029,0.008 c -0.006,0.018 -0.012,0.036 -0.015,0.046 -0.021,-0.113 -0.052,-0.229 -0.064,-0.347 -0.014,-0.15 -0.008,-0.303 -0.021,-0.454 -0.014,-0.154 0.017,-0.315 -0.067,-0.463 -0.047,-0.082 -0.088,-0.175 -0.103,-0.268 -0.068,-0.405 -0.119,-0.81 -0.331,-1.178 -0.152,-0.264 -0.164,-0.565 -0.111,-0.856 0.086,-0.477 0.17,-0.956 0.358,-1.407 0.011,-0.026 0.041,-0.045 0.058,-0.069 0.063,-0.096 0.124,-0.194 0.186,-0.29 -0.007,-0.005 -0.014,-0.01 -0.021,-0.015 -0.023,0.01 -0.046,0.02 -0.068,0.031 0.104,-0.139 0.123,-0.31 0.074,-0.439 -0.054,-0.145 -0.049,-0.256 0.014,-0.382 0.006,0.012 0.013,0.023 0.034,0.061 0.01,-0.11 0.018,-0.194 0.025,-0.277 0.008,-0.089 0.01,-0.179 0.025,-0.267 0.086,-0.495 0.284,-0.954 0.457,-1.423 0.173,-0.469 0.487,-0.856 0.737,-1.28 0.132,-0.223 0.313,-0.427 0.533,-0.588 0.247,-0.182 0.497,-0.356 0.67,-0.629 0.121,-0.193 0.311,-0.345 0.48,-0.504 0.269,-0.253 0.542,-0.502 0.823,-0.741 0.437,-0.372 0.863,-0.765 1.458,-0.872 0.04,-0.007 0.082,-10e-4 0.122,-0.008 0.14,-0.024 0.288,-0.03 0.417,-0.084 0.131,-0.054 0.24,-0.158 0.362,-0.238 0.02,-0.013 0.049,-0.011 0.075,-0.015 0.039,-0.007 0.088,-0.001 0.117,-0.022 0.235,-0.168 0.48,-0.31 0.764,-0.386 0.202,-0.054 0.397,-0.131 0.594,-0.202 0.065,-0.023 0.126,-0.081 0.189,-0.083 0.244,-0.006 0.46,-0.115 0.692,-0.162 0.341,-0.07 0.68,-0.163 1.013,0.036 0.036,0.022 0.095,0.01 0.143,0.005 0.048,-0.004 0.097,-0.033 0.142,-0.028 0.448,0.055 0.896,0.116 1.344,0.173 0.225,0.029 0.452,0.054 0.677,0.082 0.179,0.023 0.358,0.042 0.535,0.073 0.223,0.04 0.443,0.092 0.664,0.138 0.011,0.002 0.024,-10e-4 0.035,0.001 0.104,0.016 0.221,0.009 0.309,0.056 0.266,0.139 0.522,0.298 0.781,0.451 0.079,0.046 0.146,0.136 0.255,0.055 0.011,-0.008 0.043,0.01 0.063,0.02 0.269,0.138 0.559,0.206 0.854,0.252 0.208,0.032 0.298,0.195 0.417,0.329 0.012,0.013 0.005,0.043 0.008,0.082 -0.042,-0.037 -0.072,-0.063 -0.102,-0.089 -0.009,0.005 -0.017,0.011 -0.026,0.016 0.031,0.053 0.052,0.119 0.096,0.156 0.184,0.154 0.364,0.312 0.545,0.466 0.268,0.229 0.475,0.527 0.798,0.697 0.123,0.065 0.217,0.185 0.326,0.278 0.022,0.019 0.052,0.028 0.08,0.039 0.247,0.094 0.483,0.2 0.6,0.465 0.101,0.227 0.202,0.454 0.319,0.673 0.057,0.106 0.142,0.203 0.23,0.287 0.354,0.336 0.731,0.65 0.957,1.1 0.078,0.155 0.184,0.296 0.275,0.446 0.028,0.046 0.052,0.095 0.071,0.145 0.079,0.215 0.166,0.428 0.231,0.646 0.061,0.203 0.103,0.413 0.147,0.621 0.033,0.154 0.047,0.313 0.087,0.466 0.054,0.205 0.159,0.404 0.179,0.611 0.019,0.213 0.064,0.415 0.112,0.62 0.02,0.084 0.066,0.174 0.05,0.251 C 2.304,2.098 2.226,2.246 2.259,2.44"
             style="fill:#231f20;fill-opacity:1;fill-rule:nonzero;stroke:none"
             id="path621" />
        </g>
      </g>
    </g>
  </g>
</svg>
