<?xml version="1.0" encoding="UTF-8" standalone="no"?>
<!-- Created with Inkscape (http://www.inkscape.org/) -->

<svg
   width="23.867979"
   height="24"
   viewBox="0 0 6.3150693 6.35"
   version="1.1"
   id="svg7122"
   inkscape:version="1.2.1 (9c6d41e4, 2022-07-14)"
   sodipodi:docname="return_to_lost_in_time_and_space.svg"
   xmlns:inkscape="http://www.inkscape.org/namespaces/inkscape"
   xmlns:sodipodi="http://sodipodi.sourceforge.net/DTD/sodipodi-0.dtd"
   xmlns="http://www.w3.org/2000/svg"
   xmlns:svg="http://www.w3.org/2000/svg">
  <sodipodi:namedview
     id="namedview7124"
     pagecolor="#505050"
     bordercolor="#eeeeee"
     borderopacity="1"
     inkscape:showpageshadow="0"
     inkscape:pageopacity="0"
     inkscape:pagecheckerboard="0"
     inkscape:deskcolor="#505050"
     inkscape:document-units="mm"
     showgrid="false"
     inkscape:zoom="0.70199214"
     inkscape:cx="-8.5471042"
     inkscape:cy="266.38475"
     inkscape:window-width="1390"
     inkscape:window-height="938"
     inkscape:window-x="0"
     inkscape:window-y="25"
     inkscape:window-maximized="0"
     inkscape:current-layer="layer1" />
  <defs
     id="defs7119">
    <clipPath
       clipPathUnits="userSpaceOnUse"
       id="clipPath649">
      <path
         d="m 150.565,385.3 h 22.058 v 22.058 h -22.058 z"
         id="path647" />
    </clipPath>
  </defs>
  <g
     inkscape:label="Layer 1"
     inkscape:groupmode="layer"
     id="layer1"
     transform="translate(-107.40814,-77.988766)">
    <g
       id="g643"
       transform="matrix(0.2948089,0,0,-0.2948089,62.926068,197.9738)">
      <g
         id="g645"
         clip-path="url(#clipPath649)">
        <g
           id="g651"
           transform="translate(170.593,396.488)">
          <path
             d="m 0,0 c -0.017,-0.017 -0.039,-0.027 -0.063,-0.027 -0.053,0 -0.096,-0.002 -0.131,-0.005 -0.072,-0.014 -0.146,-0.026 -0.213,-0.035 -0.253,-0.05 -0.51,-0.132 -0.681,-0.192 -0.511,-0.178 -1.008,-0.287 -1.534,-0.404 l -0.164,-0.036 c -0.072,-0.016 -0.147,-0.032 -0.226,-0.048 -0.421,-0.088 -0.945,-0.197 -1.284,-0.439 -0.133,-0.095 -0.253,-0.223 -0.38,-0.358 -0.164,-0.173 -0.332,-0.353 -0.539,-0.47 -0.1,-0.057 -0.195,-0.095 -0.288,-0.132 -0.156,-0.061 -0.291,-0.115 -0.413,-0.244 -0.047,-0.049 -0.101,-0.107 -0.157,-0.168 -0.034,-0.037 -0.07,-0.076 -0.104,-0.113 0.038,-0.058 0.078,-0.107 0.125,-0.149 0.123,-0.114 0.259,-0.215 0.391,-0.314 0.127,-0.094 0.258,-0.192 0.38,-0.302 0.011,-0.01 0.019,-0.022 0.024,-0.035 0.08,-0.221 0.281,-0.396 0.564,-0.495 0.007,-0.002 0.014,-0.004 0.02,-0.004 0.004,0 0.007,0.001 0.011,0.002 0.007,0.002 0.015,0.002 0.022,0.002 0.017,0 0.034,-0.004 0.049,-0.014 0.111,-0.074 0.216,-0.139 0.313,-0.194 0.043,-0.024 0.081,-0.048 0.118,-0.071 0.105,-0.065 0.196,-0.121 0.351,-0.167 0.108,-0.032 0.206,-0.079 0.29,-0.14 0.013,-0.009 0.023,-0.021 0.03,-0.035 L -3.483,-4.6 c 0.004,-0.009 0.009,-0.018 0.013,-0.028 0.039,-0.096 0.083,-0.224 0.071,-0.363 -0.003,-0.026 -0.016,-0.049 -0.038,-0.064 -0.015,-0.011 -0.032,-0.016 -0.05,-0.016 -0.008,0 -0.016,10e-4 -0.023,0.003 -0.022,0.006 -0.043,0.013 -0.064,0.019 l -0.012,0.004 c -0.015,0.005 -0.028,0.014 -0.039,0.025 -0.178,0.199 -0.432,0.301 -0.822,0.332 -0.017,10e-4 -0.032,0.007 -0.045,0.016 -0.037,0.027 -0.065,0.059 -0.09,0.088 l -0.017,0.019 c -0.114,0.127 -0.268,0.188 -0.431,0.253 -0.094,0.037 -0.192,0.076 -0.285,0.128 -0.227,0.129 -0.415,0.318 -0.593,0.595 l -0.016,0.024 c -0.136,0.212 -0.204,0.318 -0.425,0.437 -0.032,0.017 -0.059,0.031 -0.082,0.043 -0.032,0.017 -0.058,0.03 -0.082,0.045 -0.232,-0.269 -0.467,-0.569 -0.676,-0.835 l -0.013,-0.017 c -0.143,-0.183 -0.182,-0.396 -0.224,-0.622 -0.045,-0.238 -0.09,-0.484 -0.258,-0.712 -0.108,-0.146 -0.228,-0.274 -0.344,-0.397 -0.105,-0.111 -0.213,-0.226 -0.31,-0.353 -0.184,-0.242 -0.198,-0.312 -0.249,-0.57 L -8.596,-6.593 C -8.613,-6.68 -8.63,-6.768 -8.647,-6.858 -8.715,-7.215 -8.785,-7.584 -8.9,-7.943 l -0.017,-0.052 -0.002,-0.008 c 0.024,-0.163 0.04,-0.326 -0.002,-0.519 -0.022,-0.102 -0.049,-0.209 -0.078,-0.323 -0.046,-0.181 -0.094,-0.369 -0.125,-0.552 -0.007,-0.042 -0.044,-0.073 -0.087,-0.073 -10e-4,0 -0.003,0 -0.004,0 l -0.026,0.002 c -0.016,0 -0.032,10e-4 -0.048,0.002 -0.043,10e-4 -0.079,0.04 -0.085,0.082 l -10e-4,0.003 c -0.004,0.008 -0.007,0.017 -0.012,0.026 -0.015,0.027 -0.014,0.059 -10e-4,0.084 -0.004,0.041 -0.007,0.083 -0.01,0.126 -0.017,0.095 -0.037,0.188 -0.057,0.281 -0.055,0.258 -0.112,0.525 -0.112,0.831 0,0.456 0,0.757 -0.157,1.151 -0.076,0.19 -0.123,0.405 -0.169,0.613 -0.057,0.26 -0.116,0.529 -0.23,0.734 -0.046,0.081 -0.111,0.152 -0.18,0.226 -0.051,0.055 -0.105,0.113 -0.151,0.177 -0.131,0.181 -0.193,0.392 -0.253,0.597 -0.044,0.15 -0.085,0.292 -0.152,0.422 -0.104,0.204 -0.264,0.37 -0.434,0.546 -0.113,0.117 -0.23,0.238 -0.329,0.372 -0.126,0.169 -0.253,0.287 -0.388,0.411 -0.094,0.086 -0.189,0.175 -0.286,0.282 -0.066,-0.044 -0.135,-0.085 -0.208,-0.127 -0.049,-0.029 -0.1,-0.058 -0.152,-0.09 -0.212,-0.131 -0.348,-0.336 -0.48,-0.534 -0.165,-0.248 -0.335,-0.505 -0.655,-0.622 -0.276,-0.101 -0.367,-0.241 -0.482,-0.418 -0.077,-0.119 -0.165,-0.254 -0.32,-0.392 -0.152,-0.134 -0.331,-0.235 -0.504,-0.333 -0.156,-0.089 -0.318,-0.18 -0.457,-0.296 -0.016,-0.014 -0.037,-0.022 -0.058,-0.022 -0.003,0 -0.006,0 -0.01,0.001 -0.024,0.002 -0.046,0.015 -0.061,0.035 -0.002,0.002 -0.005,0.007 -0.007,0.009 -0.021,0.036 -0.015,0.082 0.015,0.111 0.025,0.023 0.045,0.045 0.063,0.068 0.057,0.073 0.096,0.147 0.137,0.225 0.072,0.136 0.146,0.276 0.313,0.399 0.057,0.041 0.105,0.071 0.144,0.094 0.093,0.057 0.135,0.082 0.193,0.208 0.014,0.028 0.015,0.069 0.015,0.117 0.002,0.067 0.003,0.143 0.041,0.22 0.138,0.277 0.555,0.52 0.831,0.68 l 0.044,0.026 c 0.225,0.131 0.246,0.201 0.283,0.328 0.022,0.074 0.049,0.166 0.116,0.284 0.086,0.153 0.291,0.351 0.609,0.59 -0.132,0.096 -0.269,0.186 -0.403,0.273 l -0.026,0.018 c -0.88,0.576 -1.806,0.955 -2.755,1.126 -0.151,0.027 -0.3,0.058 -0.444,0.089 -0.091,0.018 -0.182,0.038 -0.273,0.055 -0.012,0.003 -0.025,0.008 -0.035,0.016 l -0.013,0.01 c -0.165,0.111 -0.375,0.163 -0.661,0.165 -0.01,0 -0.019,0.001 -0.028,0.004 -0.251,0.086 -0.461,0.145 -0.661,0.185 -0.005,0 -0.01,0.001 -0.015,0.002 -0.016,0.002 -0.03,0.008 -0.043,0.018 -0.028,0.024 -0.066,0.054 -0.107,0.079 -0.034,0.021 -0.049,0.062 -0.038,0.1 0.009,0.03 0.033,0.054 0.065,0.062 l 0.035,0.008 0.076,0.018 c 0.105,0.018 0.212,0.042 0.315,0.067 0.167,0.031 0.336,0.06 0.5,0.087 l 0.1,0.017 c 0.269,0.027 0.521,0.075 0.788,0.126 0.143,0.027 0.291,0.056 0.441,0.08 1.029,0.169 2.14,0.735 2.89,1.18 0.268,0.16 0.569,0.346 0.808,0.566 -0.056,0.024 -0.12,0.049 -0.194,0.069 -0.229,0.062 -0.315,0.1 -0.304,0.253 0.003,0.042 0.006,0.095 -0.055,0.197 -0.048,0.081 -0.221,0.161 -0.348,0.22 -0.058,0.027 -0.112,0.052 -0.155,0.077 l -0.07,0.039 c -0.206,0.115 -0.319,0.179 -0.367,0.466 -0.015,0.087 -0.016,0.161 -0.017,0.227 -0.002,0.149 -0.002,0.224 -0.157,0.333 -0.049,0.036 -0.097,0.068 -0.143,0.1 -0.009,0.007 -0.017,0.015 -0.024,0.024 -0.147,0.218 -0.32,0.369 -0.528,0.461 -0.014,0.007 -0.027,0.018 -0.036,0.031 -0.018,0.025 -0.035,0.051 -0.053,0.078 -0.023,0.032 -0.018,0.078 0.007,0.109 0.016,0.019 0.032,0.038 0.047,0.058 0.017,0.023 0.043,0.037 0.071,0.037 0.01,0 0.02,-0.002 0.029,-0.005 l 0.024,-0.009 c 0.067,-0.023 0.136,-0.047 0.203,-0.079 0.326,-0.155 0.536,-0.343 0.779,-0.562 0.028,-0.024 0.06,-0.049 0.093,-0.074 0.102,-0.078 0.219,-0.168 0.265,-0.299 0.029,-0.08 0.023,-0.146 0.019,-0.2 -0.006,-0.067 -0.008,-0.097 0.046,-0.148 0.1,-0.094 0.332,-0.136 0.537,-0.173 0.144,-0.026 0.281,-0.051 0.385,-0.093 0.306,-0.125 0.368,-0.218 0.477,-0.415 0.017,-0.031 0.036,-0.065 0.058,-0.102 0.084,0.063 0.162,0.124 0.218,0.202 0.082,0.116 0.159,0.25 0.234,0.38 0.107,0.187 0.218,0.379 0.348,0.523 0.538,0.594 0.786,1.18 1.073,1.859 0.06,0.14 0.12,0.283 0.185,0.43 0.156,0.354 0.156,0.611 0.156,1.037 0,0.279 0.057,0.521 0.113,0.756 0.019,0.082 0.039,0.165 0.056,0.249 0.002,0.039 0.006,0.077 0.01,0.114 -0.014,0.026 -0.014,0.059 0.003,0.086 0.003,0.006 0.006,0.012 0.008,0.018 l 0.003,0.006 c 0.004,0.029 0.009,0.054 0.014,0.08 0.008,0.039 0.04,0.067 0.079,0.071 l 0.013,0.001 c 0.002,0 0.004,0 0.005,0 l 0.008,10e-4 0.022,0.002 c 0.003,0 0.006,10e-4 0.009,10e-4 0.043,0 0.081,-0.032 0.087,-0.075 C -9.108,8.585 -9.053,8.39 -9,8.201 -8.971,8.098 -8.944,8.001 -8.921,7.907 -8.88,7.732 -8.896,7.579 -8.919,7.437 -8.913,7.42 -8.906,7.403 -8.901,7.387 -8.785,7.061 -8.715,6.725 -8.647,6.402 -8.63,6.32 -8.614,6.24 -8.596,6.161 l 0.009,-0.042 c 0.05,-0.232 0.063,-0.295 0.247,-0.512 0.096,-0.115 0.205,-0.219 0.309,-0.32 0.116,-0.112 0.236,-0.227 0.344,-0.36 0.17,-0.208 0.216,-0.433 0.26,-0.651 0.042,-0.203 0.081,-0.395 0.223,-0.558 l 0.018,-0.022 c 0.225,-0.26 0.477,-0.552 0.725,-0.808 0.117,0.151 0.227,0.312 0.32,0.472 0.017,0.027 0.046,0.044 0.076,0.044 0.006,0 0.012,-10e-4 0.017,-0.002 0.017,-0.003 0.033,-0.005 0.049,-0.005 0.046,0 0.156,0.014 0.2,0.141 0.06,0.174 0.084,0.355 0.109,0.546 0.015,0.113 0.031,0.231 0.055,0.346 0.01,0.05 0.004,0.097 -0.018,0.139 -0.014,0.027 -0.014,0.059 10e-4,0.086 0.07,0.121 0.152,0.215 0.251,0.289 0.01,0.008 0.018,0.016 0.027,0.026 0.009,0.008 0.019,0.015 0.03,0.019 0.043,0.018 0.088,0.033 0.134,0.047 0.082,0.027 0.161,0.052 0.23,0.096 0.013,0.008 0.023,0.015 0.033,0.023 l 0.012,0.009 c 0.006,0.005 0.014,0.009 0.021,0.012 l 0.01,0.003 c 0.005,0.002 0.011,0.004 0.017,0.007 0.172,0.091 0.308,0.249 0.403,0.47 0.003,0.006 0.006,0.011 0.009,0.016 0.006,0.009 0.012,0.016 0.02,0.022 0.012,0.009 0.026,0.014 0.041,0.017 v 0 c 0.004,0 0.008,0 0.012,0 H -4.4 c 0.048,0 0.087,-0.039 0.087,-0.088 0,-0.003 0,-0.006 -0.001,-0.009 0,-0.041 0,-0.082 -0.001,-0.123 C -4.317,5.201 -4.321,5.017 -4.383,4.918 -4.462,4.793 -4.604,4.719 -4.741,4.648 -4.836,4.599 -4.927,4.551 -4.981,4.494 -5.137,4.328 -5.153,4.156 -5.129,3.914 l 0.006,-0.057 c 0.04,-0.386 0.036,-0.469 -0.315,-0.808 -0.2,-0.192 -0.424,-0.408 -0.539,-0.637 0.02,-0.02 0.04,-0.039 0.058,-0.056 0.122,-0.116 0.257,-0.165 0.413,-0.221 0.093,-0.033 0.188,-0.068 0.287,-0.119 0.207,-0.107 0.376,-0.269 0.54,-0.426 0.127,-0.123 0.247,-0.238 0.38,-0.324 0.339,-0.221 0.864,-0.32 1.286,-0.399 0.079,-0.015 0.154,-0.029 0.225,-0.044 L -2.622,0.79 c 0.525,-0.105 1.021,-0.205 1.531,-0.366 0.119,-0.037 0.301,-0.091 0.497,-0.136 0.169,-0.017 0.323,-0.042 0.47,-0.075 0.02,-0.001 0.039,-0.001 0.059,-0.002 0.046,0 0.084,-0.036 0.087,-0.082 V 0.118 C 0.024,0.1 0.025,0.081 0.025,0.064 0.026,0.04 0.017,0.017 0,0 M 1.709,-1.331 C 1.674,-1.162 1.597,-1.015 1.63,-0.82 1.662,-0.631 1.54,-0.446 1.425,-0.28 V -0.392 C 1.412,-0.393 1.399,-0.394 1.386,-0.395 1.38,-0.304 1.357,-0.211 1.372,-0.123 1.421,0.163 1.488,0.447 1.539,0.734 1.553,0.814 1.549,0.903 1.53,0.983 1.467,1.247 1.395,1.509 1.321,1.77 1.261,1.986 1.199,2.203 1.125,2.415 1.08,2.542 1.014,2.661 0.95,2.781 0.925,2.829 0.88,2.868 0.846,2.912 0.832,2.932 0.822,2.956 0.814,2.979 0.766,3.113 0.875,3.252 0.799,3.388 0.773,3.434 0.759,3.489 0.752,3.541 0.733,3.691 0.72,3.842 0.703,3.992 0.7,4.018 0.693,4.046 0.678,4.066 0.596,4.181 0.509,4.293 0.428,4.41 0.414,4.43 0.421,4.465 0.418,4.505 0.231,4.673 0.146,4.938 -0.052,5.128 -0.229,5.299 -0.341,5.538 -0.483,5.747 -0.577,5.884 -0.674,6.018 -0.765,6.157 -0.844,6.278 -0.973,6.359 -0.986,6.535 -0.993,6.63 -1.095,6.73 -1.176,6.805 -1.337,6.956 -1.513,7.091 -1.683,7.233 -1.686,7.207 -1.69,7.178 -1.693,7.149 L -1.725,7.136 c -0.067,0.099 -0.134,0.199 -0.202,0.298 -0.044,0.064 -0.092,0.126 -0.138,0.19 -0.034,0.046 -0.069,0.092 -0.101,0.14 -0.055,0.081 -0.107,0.163 -0.162,0.244 -0.018,0.027 -0.045,0.049 -0.065,0.076 -0.081,0.107 -0.158,0.218 -0.245,0.32 -0.022,0.027 -0.078,0.028 -0.119,0.034 -0.06,0.007 -0.123,-0.002 -0.18,0.014 -0.238,0.07 -0.477,0.139 -0.71,0.223 -0.094,0.034 -0.187,0.094 -0.26,0.164 -0.222,0.214 -0.499,0.359 -0.707,0.595 -0.111,0.125 -0.288,0.193 -0.443,0.274 -0.171,0.09 -0.35,0.167 -0.527,0.246 -0.096,0.043 -0.192,0.1 -0.294,0.115 -0.199,0.029 -0.402,0.029 -0.603,0.048 -0.232,0.022 -0.472,0.003 -0.686,0.121 -0.23,0.127 -0.481,0.103 -0.729,0.107 -0.017,0 -0.04,-0.003 -0.052,-0.014 -0.11,-0.104 -0.237,-0.059 -0.359,-0.037 -0.018,0.004 -0.029,0.05 -0.049,0.087 -0.056,0.007 -0.129,0.025 -0.202,0.026 -0.154,0.002 -0.308,-0.004 -0.463,-0.006 -0.16,-0.003 -0.322,-0.016 -0.481,-0.003 -0.15,0.012 -0.298,0.051 -0.446,0.079 -0.003,0 -0.005,0.009 -0.007,0.009 -0.06,0.006 -0.128,0.03 -0.18,0.012 -0.139,-0.047 -0.278,-0.102 -0.405,-0.176 -0.065,-0.038 -0.172,-0.058 -0.17,-0.175 0.001,-0.016 -0.027,-0.038 -0.046,-0.049 -0.077,-0.043 -0.156,-0.083 -0.234,-0.123 10e-4,0.012 0.002,0.024 0.003,0.036 -0.023,0.005 -0.047,0.018 -0.068,0.014 -0.113,-0.024 -0.225,-0.056 -0.338,-0.075 -0.046,-0.008 -0.097,0.018 -0.142,0.011 -0.177,-0.03 -0.353,-0.067 -0.529,-0.101 -0.217,-0.042 -0.433,-0.083 -0.65,-0.126 -0.03,-0.006 -0.061,-0.027 -0.088,-0.023 -0.199,0.028 -0.368,-0.08 -0.552,-0.118 -0.033,-0.007 -0.058,-0.049 -0.087,-0.075 0.006,-0.005 0.012,-0.01 0.017,-0.015 l 0.168,0.054 c 0.005,-0.011 0.009,-0.022 0.013,-0.032 -0.117,-0.08 -0.234,-0.159 -0.351,-0.238 -0.006,0.017 -0.011,0.033 -0.017,0.049 -0.041,-0.003 -0.09,0.007 -0.122,-0.011 C -13.835,9.268 -13.93,9.2 -14.027,9.136 -14.184,9.031 -14.335,8.914 -14.501,8.826 -14.621,8.763 -14.77,8.755 -14.891,8.694 -15.178,8.55 -15.464,8.401 -15.652,8.121 -15.72,8.02 -15.799,7.925 -15.89,7.805 c -0.02,0.042 -0.031,0.064 -0.039,0.08 -0.217,-0.183 -0.295,-0.437 -0.431,-0.656 -0.123,-0.198 -0.25,-0.402 -0.412,-0.567 -0.197,-0.2 -0.438,-0.357 -0.651,-0.542 -0.212,-0.183 -0.251,-0.449 -0.316,-0.702 -0.026,-0.102 -0.05,-0.205 -0.074,-0.308 -0.012,0.003 -0.025,0.006 -0.037,0.008 0.004,0.031 0.007,0.061 0.011,0.092 -0.051,-0.05 -0.07,-0.112 -0.104,-0.165 -0.07,-0.113 -0.147,-0.222 -0.223,-0.331 -0.02,-0.029 -0.049,-0.051 -0.068,-0.079 -0.119,-0.177 -0.238,-0.354 -0.354,-0.533 -0.02,-0.031 -0.027,-0.072 -0.036,-0.109 -0.048,-0.2 -0.087,-0.402 -0.142,-0.6 -0.05,-0.183 -0.115,-0.361 -0.173,-0.541 l -0.029,0.008 c -0.006,0.018 -0.012,0.036 -0.015,0.047 -0.022,-0.114 -0.053,-0.23 -0.064,-0.348 -0.015,-0.15 -0.008,-0.303 -0.022,-0.453 -0.013,-0.155 0.018,-0.315 -0.066,-0.463 -0.047,-0.083 -0.088,-0.176 -0.104,-0.269 -0.068,-0.405 -0.119,-0.81 -0.33,-1.177 -0.152,-0.265 -0.164,-0.565 -0.111,-0.857 0.086,-0.477 0.17,-0.956 0.358,-1.407 0.011,-0.026 0.041,-0.044 0.057,-0.069 0.063,-0.096 0.124,-0.193 0.186,-0.29 -0.007,-0.005 -0.014,-0.01 -0.021,-0.015 -0.022,0.01 -0.045,0.021 -0.068,0.031 0.104,-0.138 0.123,-0.31 0.075,-0.439 -0.055,-0.144 -0.05,-0.256 0.013,-0.381 0.007,0.011 0.013,0.023 0.035,0.061 0.01,-0.111 0.017,-0.195 0.025,-0.278 0.008,-0.089 0.01,-0.179 0.025,-0.266 0.086,-0.496 0.284,-0.955 0.456,-1.423 0.173,-0.47 0.488,-0.857 0.738,-1.28 0.131,-0.224 0.312,-0.428 0.532,-0.589 0.247,-0.181 0.498,-0.355 0.67,-0.629 0.122,-0.193 0.311,-0.345 0.481,-0.504 0.269,-0.252 0.541,-0.502 0.822,-0.741 0.437,-0.371 0.863,-0.764 1.459,-0.872 0.039,-0.007 0.082,-0.001 0.122,-0.008 0.14,-0.024 0.288,-0.03 0.416,-0.083 0.131,-0.055 0.241,-0.159 0.362,-0.239 0.02,-0.013 0.05,-0.011 0.075,-0.015 0.04,-0.007 0.088,0 0.117,-0.021 0.235,-0.169 0.481,-0.31 0.764,-0.386 0.202,-0.055 0.398,-0.132 0.595,-0.202 0.065,-0.024 0.125,-0.082 0.189,-0.084 0.243,-0.005 0.46,-0.114 0.692,-0.162 0.341,-0.07 0.68,-0.163 1.012,0.037 0.036,0.021 0.096,0.009 0.144,0.005 0.048,-0.005 0.096,-0.034 0.142,-0.028 0.448,0.054 0.895,0.115 1.343,0.172 0.226,0.029 0.452,0.054 0.678,0.083 0.178,0.022 0.358,0.041 0.535,0.073 0.222,0.04 0.442,0.091 0.664,0.137 0.011,0.002 0.023,-0.001 0.035,10e-4 0.103,0.017 0.22,0.01 0.309,0.056 0.266,0.139 0.521,0.298 0.78,0.451 0.079,0.046 0.147,0.136 0.256,0.055 0.01,-0.008 0.043,0.01 0.063,0.02 0.269,0.138 0.559,0.206 0.853,0.252 0.208,0.033 0.299,0.195 0.418,0.33 0.011,0.013 0.004,0.042 0.008,0.081 -0.043,-0.037 -0.072,-0.063 -0.102,-0.089 l -0.027,0.017 c 0.032,0.052 0.052,0.118 0.097,0.155 0.183,0.154 0.363,0.312 0.545,0.467 0.268,0.229 0.474,0.527 0.797,0.697 0.123,0.065 0.217,0.185 0.326,0.277 0.022,0.019 0.052,0.029 0.08,0.039 0.248,0.094 0.484,0.2 0.601,0.465 0.1,0.227 0.202,0.455 0.319,0.673 0.057,0.106 0.141,0.203 0.229,0.287 0.354,0.336 0.732,0.65 0.958,1.1 0.077,0.156 0.184,0.297 0.275,0.446 0.028,0.046 0.051,0.095 0.07,0.145 0.08,0.215 0.166,0.428 0.232,0.646 0.061,0.204 0.102,0.413 0.146,0.621 0.033,0.155 0.048,0.314 0.087,0.466 0.054,0.206 0.16,0.404 0.179,0.611 0.02,0.213 0.065,0.416 0.113,0.62 0.019,0.084 0.065,0.175 0.049,0.252"
             style="fill:#231f20;fill-opacity:1;fill-rule:nonzero;stroke:none"
             id="path653" />
        </g>
        <g
           id="g655"
           transform="translate(162.533,396.68)">
          <path
             d="m 0,0 c -0.501,-0.294 -0.9,-0.776 -1.265,-1.244 -0.016,-0.022 -0.042,-0.034 -0.069,-0.034 -0.004,0 -0.008,0 -0.012,0 -0.031,0.004 -0.057,0.025 -0.07,0.053 -0.187,0.442 -0.583,1.184 -1.134,1.184 h -0.008 -0.001 c -0.039,0 -0.074,0.025 -0.085,0.063 -0.011,0.038 0.004,0.079 0.038,0.1 0.29,0.182 0.534,0.433 0.77,0.676 0.187,0.192 0.381,0.392 0.595,0.553 0.015,0.012 0.034,0.018 0.053,0.018 0.006,0 0.012,-10e-4 0.017,-0.002 0.025,-0.005 0.047,-0.02 0.059,-0.042 0.088,-0.151 0.2,-0.301 0.332,-0.446 0.005,-0.005 0.009,-0.01 0.012,-0.016 C -0.601,0.569 -0.329,0.317 -0.005,0.155 0.024,0.14 0.042,0.111 0.044,0.079 0.045,0.047 0.028,0.016 0,0 M 4.713,0.047 C 4.35,0.132 3.976,0.221 3.663,0.407 3.278,0.637 2.864,0.889 2.442,1.169 2.308,1.257 2.163,1.323 2.023,1.387 1.918,1.435 1.811,1.484 1.71,1.542 1.622,1.448 1.522,1.38 1.406,1.335 1.32,1.302 1.238,1.296 1.158,1.29 1.042,1.282 0.95,1.275 0.86,1.188 0.818,1.147 0.808,1.097 0.795,1.033 0.783,0.975 0.769,0.909 0.727,0.848 L 0.721,0.84 C 0.664,0.757 0.615,0.686 0.52,0.628 0.497,0.614 0.47,0.608 0.377,0.608 c -0.186,0 -0.271,0 -0.271,0.096 0,0.01 0.002,0.02 0.005,0.029 C 0.075,0.799 0.045,0.855 0.02,0.908 0.017,0.915 0.014,0.922 0.013,0.93 -0.039,1.209 0.01,1.435 0.163,1.622 0.175,1.636 0.191,1.646 0.209,1.651 0.554,1.742 0.932,1.871 1.152,2.137 1.061,2.266 0.964,2.39 0.862,2.52 0.707,2.718 0.546,2.923 0.407,3.149 0.294,3.332 0.187,3.529 0.083,3.72 -0.118,4.089 -0.326,4.471 -0.585,4.774 -0.768,4.988 -0.931,5.264 -1.055,5.566 -1.089,5.495 -1.128,5.427 -1.168,5.357 -1.227,5.253 -1.288,5.145 -1.341,5.016 -1.386,4.905 -1.401,4.828 -1.414,4.76 -1.437,4.639 -1.457,4.535 -1.615,4.355 -2.16,3.735 -2.55,3.198 -2.774,2.759 -2.88,2.553 -2.991,2.381 -3.118,2.227 -3.095,2.219 -3.072,2.213 -3.048,2.207 -2.989,2.192 -2.933,2.181 -2.88,2.171 -2.677,2.132 -2.502,2.098 -2.354,1.861 -2.306,1.785 -2.282,1.673 -2.258,1.564 -2.241,1.482 -2.208,1.33 -2.174,1.313 -2.15,1.302 -2.132,1.281 -2.125,1.256 -2.118,1.23 -2.123,1.203 -2.138,1.181 -2.188,1.111 -2.201,1.073 -2.209,1.048 -2.234,0.977 -2.266,0.95 -2.352,0.929 -2.359,0.928 -2.366,0.927 -2.373,0.927 -2.399,0.927 -2.425,0.939 -2.441,0.96 -2.654,1.223 -3.01,1.548 -3.326,1.77 -3.376,1.804 -3.437,1.829 -3.499,1.85 -3.662,1.715 -3.844,1.588 -4.052,1.442 L -4.119,1.395 C -4.382,1.211 -4.673,1.098 -4.954,0.988 -5.103,0.931 -5.243,0.876 -5.38,0.812 -6.181,0.433 -7.083,0.119 -7.959,-0.089 c 0.851,-0.18 1.618,-0.412 2.449,-0.845 0.136,-0.071 0.276,-0.131 0.424,-0.195 0.282,-0.121 0.573,-0.246 0.836,-0.449 0.039,-0.03 0.076,-0.06 0.113,-0.089 0.1,0.066 0.179,0.132 0.253,0.223 0.024,0.031 0.048,0.077 0.073,0.126 0.041,0.08 0.087,0.171 0.159,0.236 0.221,0.198 0.452,0.214 0.67,0.214 0.038,0 0.077,0 0.12,-0.001 0.047,0.023 0.11,0.037 0.168,0.037 0.086,0 0.157,-0.03 0.2,-0.084 0.046,-0.059 0.058,-0.139 0.035,-0.238 -0.043,-0.181 -0.312,-0.29 -0.632,-0.404 -0.068,-0.024 -0.127,-0.045 -0.161,-0.061 -0.288,-0.136 -0.369,-0.231 -0.479,-0.454 0.061,-0.045 0.128,-0.084 0.198,-0.125 0.14,-0.082 0.285,-0.167 0.407,-0.31 0.008,-0.01 0.014,-0.021 0.018,-0.032 0.044,-0.151 0.095,-0.31 0.179,-0.447 0.067,-0.11 0.162,-0.202 0.29,-0.283 0.014,-0.009 0.025,-0.021 0.032,-0.035 0.293,-0.591 0.582,-1.068 0.861,-1.418 0.169,-0.213 0.239,-0.462 0.307,-0.704 0.03,-0.105 0.061,-0.214 0.099,-0.318 0.053,-0.143 0.115,-0.263 0.174,-0.378 0.039,-0.075 0.077,-0.149 0.111,-0.226 0.123,0.332 0.285,0.635 0.467,0.87 0.26,0.335 0.468,0.757 0.669,1.164 0.104,0.211 0.212,0.428 0.324,0.63 0.139,0.249 0.3,0.475 0.456,0.695 0.044,0.062 0.087,0.123 0.13,0.185 -0.015,0.009 -0.03,0.018 -0.043,0.025 -0.205,0.122 -0.215,0.15 -0.257,0.407 l -0.014,0.086 c -0.039,0.234 -0.138,0.368 -0.331,0.448 -0.102,0.042 -0.201,0.06 -0.296,0.078 -0.204,0.037 -0.415,0.076 -0.495,0.382 -0.036,0.081 -0.059,0.26 -0.007,0.384 0.044,0.105 0.134,0.163 0.253,0.163 0.032,0 0.067,-0.004 0.104,-0.012 0.111,-0.026 0.197,-0.16 0.288,-0.301 0.045,-0.07 0.091,-0.142 0.124,-0.171 0.117,-0.102 0.192,-0.126 0.305,-0.162 0.048,-0.016 0.103,-0.033 0.167,-0.059 0.293,-0.118 0.533,-0.304 0.702,-0.543 0.158,0.15 0.347,0.245 0.529,0.336 0.14,0.071 0.285,0.143 0.419,0.241 0.423,0.31 0.837,0.587 1.221,0.84 0.313,0.206 0.688,0.304 1.051,0.398 0.104,0.027 0.207,0.054 0.308,0.083 0.098,0.029 0.198,0.056 0.298,0.081 -0.1,0.023 -0.199,0.047 -0.296,0.072 C 4.92,-0.002 4.816,0.022 4.713,0.047"
             style="fill:#231f20;fill-opacity:1;fill-rule:nonzero;stroke:none"
             id="path657" />
        </g>
      </g>
    </g>
  </g>
</svg>
