<?xml version="1.0" encoding="UTF-8" standalone="no"?>
<!-- Created with Inkscape (http://www.inkscape.org/) -->

<svg
   width="24.472589"
   height="24"
   viewBox="0 0 6.4750395 6.35"
   version="1.1"
   id="svg8042"
   inkscape:version="1.2.1 (9c6d41e4, 2022-07-14)"
   sodipodi:docname="yog_sothoths_emissaries.svg"
   xmlns:inkscape="http://www.inkscape.org/namespaces/inkscape"
   xmlns:sodipodi="http://sodipodi.sourceforge.net/DTD/sodipodi-0.dtd"
   xmlns="http://www.w3.org/2000/svg"
   xmlns:svg="http://www.w3.org/2000/svg">
  <sodipodi:namedview
     id="namedview8044"
     pagecolor="#505050"
     bordercolor="#eeeeee"
     borderopacity="1"
     inkscape:showpageshadow="0"
     inkscape:pageopacity="0"
     inkscape:pagecheckerboard="0"
     inkscape:deskcolor="#505050"
     inkscape:document-units="mm"
     showgrid="false"
     inkscape:zoom="0.70199214"
     inkscape:cx="68.376834"
     inkscape:cy="125.35753"
     inkscape:window-width="1390"
     inkscape:window-height="938"
     inkscape:window-x="0"
     inkscape:window-y="25"
     inkscape:window-maximized="0"
     inkscape:current-layer="layer1" />
  <defs
     id="defs8039">
    <clipPath
       clipPathUnits="userSpaceOnUse"
       id="clipPath3191">
      <path
         d="m 159.654,593.871 h 22.76 v 22.76 h -22.76 z"
         id="path3189" />
    </clipPath>
  </defs>
  <g
     inkscape:label="Layer 1"
     inkscape:groupmode="layer"
     id="layer1"
     transform="translate(-86.903135,-115.23953)">
    <g
       id="g3185"
       transform="matrix(0.3213888,0,0,-0.3213888,35.209353,312.79915)">
      <g
         id="g3187"
         clip-path="url(#clipPath3191)">
        <g
           id="g3193"
           transform="translate(173.905,610.806)">
          <path
             d="M 0,0 C 0.031,0.005 0.058,-0.015 0.086,-0.027 0.155,-0.058 0.223,-0.086 0.291,-0.119 0.37,-0.156 0.453,-0.183 0.532,-0.22 0.663,-0.281 0.789,-0.351 0.921,-0.41 1.255,-0.557 1.566,-0.734 1.839,-0.978 2.057,-1.173 2.255,-1.373 2.424,-1.612 2.557,-1.8 2.693,-1.989 2.794,-2.197 2.844,-2.3 2.882,-2.41 2.93,-2.514 c 0.053,-0.114 0.096,-0.213 0.121,-0.335 0.021,-0.101 0.054,-0.198 0.07,-0.3 0.018,-0.108 0.03,-0.216 0.05,-0.324 0.021,-0.122 0.028,-0.24 0.026,-0.363 C 3.196,-3.983 3.209,-4.128 3.215,-4.275 3.226,-4.551 3.161,-4.831 3.111,-5.102 3.053,-5.406 3.013,-5.713 2.962,-6.018 2.941,-6.138 2.897,-6.253 2.87,-6.371 2.843,-6.491 2.815,-6.61 2.775,-6.727 2.745,-6.813 2.722,-6.902 2.69,-6.988 2.643,-7.119 2.577,-7.239 2.511,-7.36 2.455,-7.465 2.417,-7.576 2.371,-7.686 2.318,-7.813 2.25,-7.934 2.183,-8.054 2.046,-8.298 1.894,-8.521 1.709,-8.73 1.625,-8.824 1.525,-8.899 1.438,-8.988 1.372,-9.056 1.315,-9.128 1.242,-9.188 1.047,-9.349 0.823,-9.493 0.583,-9.576 0.44,-9.625 0.299,-9.653 0.159,-9.712 c -0.158,-0.068 -0.331,-0.111 -0.5,-0.145 -0.148,-0.029 -0.298,-0.052 -0.447,-0.076 -0.083,-0.012 -0.166,-0.022 -0.248,-0.033 -0.13,-0.017 -0.257,-0.05 -0.385,-0.076 -0.153,-0.032 -0.309,-0.06 -0.464,-0.078 -0.175,-0.022 -0.351,-0.02 -0.526,-0.044 -0.327,-0.046 -0.668,-0.042 -0.995,0.01 -0.299,0.046 -0.588,0.13 -0.873,0.231 -0.137,0.048 -0.274,0.091 -0.403,0.156 -0.138,0.069 -0.27,0.153 -0.403,0.23 -0.123,0.071 -0.226,0.165 -0.337,0.251 -0.104,0.081 -0.212,0.156 -0.316,0.238 -0.273,0.213 -0.537,0.45 -0.74,0.732 -0.31,0.431 -0.508,0.933 -0.681,1.432 -0.098,0.285 -0.156,0.582 -0.244,0.87 -0.036,0.114 -0.075,0.226 -0.105,0.341 -0.02,0.076 -0.034,0.153 -0.054,0.228 -0.018,0.07 -0.046,0.139 -0.061,0.21 -0.024,0.117 -0.035,0.24 -0.053,0.358 -0.018,0.114 -0.028,0.228 -0.028,0.343 10e-4,0.13 0.002,0.259 0.018,0.388 0.016,0.132 0.056,0.255 0.079,0.385 0.041,0.235 0.096,0.469 0.151,0.702 0.047,0.2 0.116,0.381 0.209,0.564 0.049,0.097 0.1,0.193 0.144,0.293 0.053,0.121 0.125,0.223 0.203,0.33 0.157,0.215 0.337,0.443 0.557,0.598 0.21,0.148 0.448,0.252 0.676,0.365 0.157,0.078 0.307,0.175 0.461,0.259 0.076,0.041 0.146,0.093 0.227,0.123 0.078,0.03 0.145,0.072 0.219,0.108 0.086,0.043 0.181,0.061 0.272,0.091 0.091,0.03 0.173,0.068 0.26,0.107 0.09,0.04 0.193,0.052 0.287,0.081 0.085,0.026 0.173,0.047 0.261,0.068 0.082,0.019 0.169,0.029 0.253,0.034 0.058,0.004 0.134,0.012 0.192,-0.001 0.004,-0.038 0,-0.078 10e-4,-0.116 0,-0.051 0.013,-0.059 0.033,-0.102 0.02,-0.043 0.017,-0.095 0.032,-0.14 0.018,-0.054 0.031,-0.114 0.051,-0.167 0.027,-0.071 0.097,-0.138 0.143,-0.197 0.064,-0.082 0.087,-0.171 0.14,-0.257 0.091,-0.148 0.182,-0.297 0.25,-0.457 0.08,-0.189 0.179,-0.371 0.247,-0.564 0.062,-0.176 0.084,-0.367 0.063,-0.552 -0.005,-0.05 -0.015,-0.101 -0.03,-0.148 -0.019,-0.049 -0.037,-0.098 -0.054,-0.148 -0.015,-0.056 -0.023,-0.113 -0.025,-0.171 -0.025,-0.207 -0.167,-0.375 -0.223,-0.573 -0.05,-0.175 -0.161,-0.32 -0.187,-0.503 -0.031,-0.212 -0.017,-0.427 -0.035,-0.64 -0.01,-0.11 -0.027,-0.219 -0.038,-0.329 -0.011,-0.114 -0.008,-0.23 -0.018,-0.344 -0.015,-0.199 0.009,-0.387 0.051,-0.581 0.047,-0.219 0.104,-0.422 0.199,-0.625 0.059,-0.127 0.137,-0.233 0.211,-0.351 0.063,-0.102 0.124,-0.193 0.207,-0.28 0.156,-0.166 0.297,-0.344 0.447,-0.515 0.098,-0.112 0.178,-0.213 0.249,-0.344 0.046,-0.085 0.092,-0.165 0.143,-0.247 -0.015,0.097 0.031,0.19 0.085,0.269 0.055,0.079 0.124,0.148 0.178,0.228 0.067,0.097 0.132,0.196 0.206,0.289 0.159,0.198 0.235,0.445 0.33,0.678 0.048,0.117 0.101,0.232 0.144,0.351 0.057,0.156 0.075,0.322 0.104,0.485 0.025,0.139 0.03,0.279 0.048,0.419 0.018,0.138 0.014,0.277 -0.006,0.415 -0.019,0.14 -0.055,0.277 -0.084,0.414 -0.027,0.125 -0.043,0.253 -0.081,0.375 -0.057,0.185 -0.089,0.377 -0.154,0.56 -0.066,0.187 -0.164,0.375 -0.262,0.548 -0.1,0.177 -0.236,0.342 -0.316,0.529 -0.085,0.199 -0.202,0.37 -0.212,0.594 -0.005,0.093 -0.005,0.186 0.014,0.277 0.023,0.109 0.074,0.201 0.127,0.297 0.084,0.151 0.157,0.322 0.221,0.482 0.028,0.069 0.075,0.127 0.098,0.198 0.017,0.054 0.025,0.113 0.029,0.169 0.004,0.052 0.021,0.094 0.037,0.143 0.017,0.05 0.023,0.102 0.045,0.151 0.038,0.083 0.08,0.162 0.13,0.24 0.05,0.079 0.127,0.143 0.171,0.225 0.025,0.047 0.037,0.065 0.089,0.072 0.044,0.006 0.069,0.023 0.106,0.042 0.034,0.017 0.092,0.022 0.132,0.009 0.024,-0.008 0.037,-0.026 0.053,-0.043 0.022,-0.025 0.038,-0.035 0.064,-0.055 0.021,-0.016 0.04,-0.043 0.064,-0.054 C 0.03,-0.104 0.133,-0.102 0,0"
             style="fill:#231f20;fill-opacity:1;fill-rule:nonzero;stroke:none"
             id="path3195" />
        </g>
        <g
           id="g3197"
           transform="translate(168.673,611.898)">
          <path
             d="M 0,0 C 0,0.085 0.004,0.171 0.002,0.256 0,0.329 -0.029,0.393 -0.052,0.462 c -0.04,0.121 -0.083,0.24 -0.13,0.359 -0.035,0.089 -0.065,0.18 -0.13,0.254 -0.046,0.052 -0.098,0.098 -0.151,0.143 -0.141,0.121 -0.3,0.222 -0.464,0.308 -0.056,0.029 -0.11,0.062 -0.167,0.091 -0.108,0.056 -0.235,0.076 -0.352,0.109 -0.248,0.07 -0.498,0.154 -0.729,0.268 -0.23,0.112 -0.411,0.293 -0.597,0.465 -0.075,0.068 -0.15,0.138 -0.227,0.204 -0.027,0.023 -0.072,0.05 -0.088,0.074 0.02,-0.009 0.027,-0.027 0.039,-0.043 0.064,-0.078 0.123,-0.153 0.181,-0.236 0.078,-0.109 0.154,-0.218 0.243,-0.318 0.101,-0.114 0.213,-0.214 0.325,-0.317 0.166,-0.155 0.344,-0.315 0.482,-0.496 0.142,-0.185 0.185,-0.39 0.236,-0.612 0.046,-0.197 0.089,-0.386 0.221,-0.545 0.057,-0.068 0.13,-0.126 0.195,-0.187 0.052,-0.05 0.081,-0.065 0.151,-0.083 0.202,-0.052 0.414,-0.123 0.625,-0.097 0.053,0.006 0.148,0.007 0.187,0.044 C -0.185,-0.136 -0.176,-0.085 0,0"
             style="fill:#231f20;fill-opacity:1;fill-rule:nonzero;stroke:none"
             id="path3199" />
        </g>
        <g
           id="g3201"
           transform="translate(174.813,611.988)">
          <path
             d="m 0,0 c 0,0.196 0.025,0.389 0.064,0.581 0.074,0.367 0.456,0.575 0.797,0.651 0.162,0.037 0.321,0.05 0.478,0.11 0.189,0.072 0.38,0.19 0.51,0.349 0.068,0.082 0.102,0.2 0.14,0.298 C 2.04,2.116 2.101,2.241 2.18,2.353 2.231,2.427 2.288,2.495 2.348,2.563 2.381,2.599 2.451,2.661 2.457,2.718 2.445,2.708 2.443,2.696 2.437,2.682 2.409,2.617 2.381,2.549 2.353,2.483 2.237,2.207 2.133,1.93 1.985,1.667 1.873,1.468 1.79,1.264 1.765,1.036 1.748,0.873 1.732,0.694 1.634,0.555 1.532,0.41 1.376,0.306 1.252,0.18 1.108,0.034 0.964,-0.102 0.772,-0.182 0.567,-0.268 0.37,-0.202 0.183,-0.106 0.044,-0.035 -0.112,0.064 -0.272,0.073"
             style="fill:#231f20;fill-opacity:1;fill-rule:nonzero;stroke:none"
             id="path3203" />
        </g>
        <g
           id="g3205"
           transform="translate(172.833,612.388)">
          <path
             d="M 0,0 C 0.021,0.006 0.042,0.034 0.05,0.055 0.076,0.122 0.063,0.157 0.114,0.222 0.188,0.317 0.279,0.366 0.318,0.486 0.361,0.62 0.368,0.778 0.367,0.919 0.366,1.045 0.331,1.142 0.273,1.251 0.201,1.386 0.16,1.506 0.131,1.658 0.095,1.844 0.091,2.021 0.091,2.21 0.091,2.184 0.093,2.165 0.081,2.143 0.071,2.125 0.057,2.111 0.047,2.091 0.016,2.024 -0.003,1.95 -0.033,1.881 -0.111,1.702 -0.189,1.504 -0.312,1.35 -0.443,1.188 -0.578,1.039 -0.639,0.835 -0.681,0.695 -0.72,0.55 -0.756,0.407 -0.779,0.316 -0.797,0.25 -0.737,0.172 c 0.075,-0.095 0.2,-0.23 0.318,-0.274 C -0.28,-0.154 -0.195,-0.038 0,0"
             style="fill:#231f20;fill-opacity:1;fill-rule:nonzero;stroke:none"
             id="path3207" />
        </g>
        <g
           id="g3209"
           transform="translate(171.126,612.315)">
          <path
             d="M 0,0 C -0.026,0.004 -0.025,0.027 -0.036,0.047 -0.072,0.12 -0.117,0.189 -0.152,0.262 -0.211,0.384 -0.25,0.514 -0.303,0.638 -0.358,0.764 -0.406,0.892 -0.45,1.021 -0.529,1.253 -0.58,1.506 -0.724,1.708 -0.79,1.801 -0.868,1.886 -0.947,1.966 c -0.099,0.1 -0.211,0.183 -0.29,0.3 C -1.234,2.21 -1.264,2.152 -1.269,2.095 -1.285,1.897 -1.223,1.7 -1.241,1.502 -1.252,1.387 -1.298,1.281 -1.306,1.166 -1.31,1.102 -1.309,1.039 -1.308,0.975 -1.307,0.826 -1.322,0.672 -1.282,0.527 c 0.034,-0.124 0.096,-0.244 0.176,-0.346 0.092,-0.117 0.213,-0.239 0.354,-0.293 0.161,-0.062 0.33,-0.042 0.497,-0.07 0.04,-0.007 0.079,-0.019 0.12,-0.014 C -0.042,-0.184 0.013,-0.191 0,0"
             style="fill:#231f20;fill-opacity:1;fill-rule:nonzero;stroke:none"
             id="path3211" />
        </g>
        <g
           id="g3213"
           transform="translate(176.685,609.39)">
          <path
             d="M 0,0 C 0.156,0.004 0.297,0.087 0.442,0.142 0.639,0.217 0.832,0.291 1.023,0.38 1.272,0.497 1.527,0.609 1.743,0.782 1.844,0.863 1.935,0.945 2.012,1.05 2.041,1.089 2.07,1.123 2.115,1.146 2.148,1.162 2.256,1.21 2.292,1.178 2.346,1.13 2.2,1.021 2.185,1.006 2.08,0.901 2.059,0.843 2.026,0.695 2.013,0.584 1.981,0.478 1.931,0.378 1.893,0.323 1.847,0.276 1.793,0.236 1.689,0.152 1.625,0.072 1.567,-0.049 1.52,-0.148 1.476,-0.244 1.386,-0.313 1.265,-0.405 1.101,-0.432 0.957,-0.463 0.813,-0.493 0.662,-0.548 0.513,-0.522 0.36,-0.494 0.247,-0.388 0.131,-0.293 0.085,-0.255 -0.065,-0.167 -0.086,-0.091 -0.057,-0.091 -0.031,-0.145 0,0"
             style="fill:#231f20;fill-opacity:1;fill-rule:nonzero;stroke:none"
             id="path3215" />
        </g>
        <g
           id="g3217"
           transform="translate(177.302,607.318)">
          <path
             d="m 0,0 c 0.103,-0.002 0.205,-0.009 0.309,-0.017 0.19,-0.014 0.376,-0.059 0.568,-0.071 0.186,-0.011 0.37,-0.024 0.556,-0.04 0.351,-0.028 0.76,0.022 1.08,-0.154 C 2.547,-0.3 2.659,-0.35 2.66,-0.408 2.662,-0.485 2.563,-0.552 2.508,-0.588 2.39,-0.665 2.239,-0.67 2.104,-0.693 1.85,-0.735 1.577,-0.792 1.319,-0.759 1.018,-0.721 0.731,-0.606 0.434,-0.546 0.339,-0.526 0.252,-0.493 0.164,-0.454 0.123,-0.435 0.049,-0.412 0.023,-0.367 0.003,-0.331 -0.004,-0.263 0,-0.222 0.041,-0.205 0.086,-0.195 0,0"
             style="fill:#231f20;fill-opacity:1;fill-rule:nonzero;stroke:none"
             id="path3219" />
        </g>
        <g
           id="g3221"
           transform="translate(176.049,601.669)">
          <path
             d="M 0,0 C 0,0.01 0,0.021 0,0.031 -0.006,0 0.019,-0.022 0.034,-0.045 0.113,-0.162 0.183,-0.282 0.269,-0.394 0.446,-0.625 0.684,-0.786 0.892,-0.986 1.133,-1.218 1.33,-1.483 1.548,-1.736 1.716,-1.932 1.903,-2.113 2.052,-2.326 2.155,-2.473 2.241,-2.632 2.338,-2.784 2.449,-2.957 2.566,-3.126 2.68,-3.297 2.764,-3.422 2.846,-3.547 2.927,-3.674 2.941,-3.714 2.965,-3.745 2.999,-3.766 2.964,-3.73 2.918,-3.708 2.876,-3.682 2.743,-3.601 2.613,-3.516 2.487,-3.425 2.053,-3.111 1.625,-2.782 1.23,-2.42 1.051,-2.257 0.872,-2.095 0.694,-1.932 0.603,-1.847 0.509,-1.764 0.43,-1.669 c -0.075,0.092 -0.141,0.19 -0.221,0.277 -0.088,0.096 -0.182,0.184 -0.276,0.273 -0.086,0.081 -0.226,0.179 -0.242,0.302 -0.011,0.087 -0.036,0.171 -0.039,0.259 -0.004,0.088 0.016,0.175 0.038,0.26 0.017,0.07 0.03,0.162 0.068,0.224 C -0.201,-0.009 -0.141,-0.018 0,0"
             style="fill:#231f20;fill-opacity:1;fill-rule:nonzero;stroke:none"
             id="path3223" />
        </g>
        <g
           id="g3225"
           transform="translate(176.576,602.65)">
          <path
             d="M 0,0 C 0.037,0.006 0.077,-0.023 0.107,-0.039 0.189,-0.088 0.271,-0.137 0.352,-0.186 0.487,-0.257 0.622,-0.327 0.757,-0.396 1.004,-0.527 1.253,-0.66 1.495,-0.8 1.852,-1.006 2.191,-1.242 2.551,-1.444 2.754,-1.558 2.963,-1.66 3.164,-1.777 3.273,-1.839 3.384,-1.898 3.472,-1.988 3.528,-2.045 3.602,-2.163 3.461,-2.144 3.223,-2.111 2.981,-1.989 2.756,-1.909 2.363,-1.77 1.986,-1.624 1.614,-1.434 1.239,-1.242 0.87,-1.05 0.48,-0.892 c -0.097,0.04 -0.192,0.082 -0.286,0.128 -0.099,0.041 -0.193,0.091 -0.283,0.148 -0.049,0.042 -0.103,0.08 -0.079,0.146 0.024,0.035 0.042,0.073 0.055,0.113 0.015,0.048 0.029,0.095 0.042,0.143 C -0.027,-0.111 0.049,-0.123 0,0"
             style="fill:#231f20;fill-opacity:1;fill-rule:nonzero;stroke:none"
             id="path3227" />
        </g>
        <g
           id="g3229"
           transform="translate(177.375,604.43)">
          <path
             d="m 0,0 c 0.008,0.061 0.207,-0.017 0.21,-0.018 0.152,-0.046 0.303,-0.096 0.451,-0.155 0.286,-0.113 0.579,-0.208 0.866,-0.32 0.52,-0.204 1.011,-0.485 1.506,-0.742 0.151,-0.078 0.302,-0.157 0.451,-0.237 0.025,-0.013 0.136,-0.055 0.133,-0.088 -0.073,-0.017 -0.16,0.004 -0.231,0.015 -0.224,0.035 -0.446,0.089 -0.67,0.126 -0.197,0.033 -0.394,0.061 -0.591,0.091 -0.349,0.053 -0.694,0.112 -1.039,0.187 -0.234,0.051 -0.47,0.093 -0.689,0.194 -0.084,0.039 -0.161,0.066 -0.25,0.09 -0.105,0.029 -0.19,0.126 -0.204,0.235 -0.017,0.132 0.064,0.279 0.132,0.386 0.032,0.049 0.077,0.098 0.096,0.153 C 0.191,-0.027 0.183,0.031 0,0"
             style="fill:#231f20;fill-opacity:1;fill-rule:nonzero;stroke:none"
             id="path3231" />
        </g>
        <g
           id="g3233"
           transform="translate(177.993,605.792)">
          <path
             d="M 0,0 C -0.017,0.053 0.039,0.033 0.067,0.026 0.162,-0.001 0.253,-0.05 0.346,-0.082 0.561,-0.156 0.782,-0.213 1,-0.28 1.246,-0.357 1.5,-0.42 1.744,-0.505 1.989,-0.591 2.227,-0.694 2.463,-0.8 2.589,-0.856 2.709,-0.926 2.836,-0.978 2.877,-0.995 2.921,-1.012 2.966,-1.017 2.764,-1.052 2.548,-1.039 2.345,-1.034 c -0.412,0.011 -0.823,0.035 -1.233,0.087 -0.32,0.041 -0.629,0.106 -0.945,0.164 -0.19,0.036 -0.407,0.029 -0.589,0.093 0.02,0.039 0.058,0.057 0.058,0.109 0,0.073 -0.001,0.126 0.037,0.197 0.08,0.148 0.198,0.28 0.327,0.384"
             style="fill:#231f20;fill-opacity:1;fill-rule:nonzero;stroke:none"
             id="path3235" />
        </g>
        <g
           id="g3237"
           transform="translate(175.086,600.797)">
          <path
             d="M 0,0 C 0.027,0.002 0.031,0.022 0.054,0.033 0.072,0.041 0.089,0.035 0.103,0.05 0.074,0.068 0.036,0.047 0.008,0.035 c -0.31,-0.129 -0.671,-0.136 -1,-0.182 -0.416,-0.057 -0.822,-0.168 -1.235,-0.242 -0.512,-0.092 -1.016,-0.13 -1.533,-0.064 -0.239,0.03 -0.477,0.07 -0.717,0.093 -0.222,0.022 -0.445,0.027 -0.668,0.037 -0.413,0.018 -0.833,0.065 -1.235,0.165 -0.338,0.084 -0.666,0.22 -0.992,0.339 -0.127,0.046 -0.285,0.094 -0.379,0.196 0.026,0.021 0.048,-0.013 0.067,-0.032 0.088,-0.084 0.158,-0.157 0.264,-0.222 0.373,-0.229 0.77,-0.422 1.167,-0.605 0.399,-0.184 0.811,-0.294 1.247,-0.343 0.528,-0.06 1.058,-0.137 1.59,-0.14 0.499,-0.002 0.996,0 1.492,0.061 0.244,0.03 0.489,0.051 0.734,0.079 0.175,0.02 0.363,0.041 0.52,0.129 0.135,0.075 0.232,0.192 0.357,0.279 0.108,0.075 0.198,0.084 0.314,0.13 C 0.154,-0.228 0.126,-0.099 0,0"
             style="fill:#231f20;fill-opacity:1;fill-rule:nonzero;stroke:none"
             id="path3239" />
        </g>
        <g
           id="g3241"
           transform="translate(167.092,610.618)">
          <path
             d="m 0,0 c -0.032,-0.009 -0.034,-0.023 -0.059,-0.036 -0.019,-0.011 -0.04,-0.011 -0.055,-0.026 0.038,-0.003 0.079,0.021 0.11,0.037 0.345,0.17 0.774,0.262 1.162,0.359 0.49,0.124 0.968,0.263 1.465,0.361 C 3.238,0.816 3.855,0.872 4.486,0.83 4.778,0.811 5.067,0.779 5.358,0.752 5.628,0.727 5.898,0.708 6.168,0.68 6.667,0.628 7.172,0.537 7.642,0.395 8.039,0.277 8.411,0.115 8.778,-0.047 8.92,-0.109 9.098,-0.183 9.191,-0.276 9.157,-0.282 9.138,-0.254 9.118,-0.237 9.029,-0.158 8.958,-0.091 8.842,-0.021 8.437,0.226 7.985,0.442 7.522,0.634 7.057,0.827 6.558,0.958 6.023,1.029 5.375,1.115 4.719,1.183 4.058,1.169 3.44,1.155 2.823,1.111 2.216,1.001 1.918,0.946 1.619,0.891 1.323,0.825 1.111,0.778 0.883,0.723 0.704,0.628 0.549,0.547 0.449,0.447 0.311,0.357 0.192,0.28 0.086,0.25 -0.046,0.188 -0.217,0.106 -0.164,0.03 0,0"
             style="fill:#231f20;fill-opacity:1;fill-rule:nonzero;stroke:none"
             id="path3243" />
        </g>
        <g
           id="g3245"
           transform="translate(172.47,607.337)">
          <path
             d="M 0,0 C 0.031,-0.029 0.048,-0.029 0.073,-0.07 0.152,-0.196 0.233,-0.322 0.31,-0.45 0.511,-0.784 0.545,-1.211 0.548,-1.593 0.55,-1.854 0.501,-2.099 0.433,-2.35 0.387,-2.523 0.337,-2.686 0.236,-2.836 0.164,-2.935 0.087,-3.029 0.006,-3.12 c -0.058,-0.069 -0.115,-0.138 -0.173,-0.206 -0.035,-0.037 -0.118,-0.139 -0.177,-0.143 -0.005,0.023 0.008,0.045 0.005,0.066 -0.006,0.044 -0.063,0.092 -0.09,0.122 -0.062,0.072 -0.13,0.14 -0.194,0.21 -0.194,0.21 -0.37,0.436 -0.515,0.683 -0.129,0.22 -0.225,0.435 -0.196,0.697 0.027,0.234 0.118,0.469 0.21,0.686 0.097,0.229 0.187,0.498 0.351,0.689 0.067,0.077 0.149,0.127 0.231,0.187 0.088,0.064 0.17,0.135 0.258,0.199 0.08,0.059 0.18,0.11 0.283,0.11 C 0.002,0.168 0.003,0.157 0,0"
             style="fill:#231f20;fill-opacity:1;fill-rule:nonzero;stroke:none"
             id="path3247" />
        </g>
        <g
           id="g3249"
           transform="translate(166.947,609.807)">
          <path
             d="m 0,0 c -0.149,0.134 -0.364,0.218 -0.546,0.292 -0.25,0.102 -0.508,0.176 -0.762,0.265 -0.319,0.112 -0.631,0.246 -0.944,0.375 -0.312,0.129 -0.613,0.28 -0.92,0.418 -0.23,0.104 -0.459,0.202 -0.681,0.321 -0.314,0.17 -0.638,0.332 -0.993,0.398 -0.008,-0.04 0.09,-0.091 0.119,-0.115 0.116,-0.095 0.224,-0.2 0.344,-0.292 0.182,-0.14 0.376,-0.268 0.575,-0.383 0.259,-0.151 0.534,-0.271 0.799,-0.409 0.174,-0.09 0.323,-0.209 0.488,-0.313 0.126,-0.079 0.256,-0.153 0.387,-0.224 0.124,-0.069 0.254,-0.128 0.372,-0.208 0.084,-0.059 0.147,-0.136 0.227,-0.2 0.113,-0.091 0.236,-0.165 0.346,-0.26 0.058,-0.051 0.113,-0.061 0.19,-0.042 0.076,0.019 0.151,0.071 0.22,0.105 0.083,0.041 0.205,0.08 0.269,0.148 0.042,0.045 0.065,0.096 0.09,0.151 0.013,0.027 0.034,0.083 0.075,0.082"
             style="fill:#231f20;fill-opacity:1;fill-rule:nonzero;stroke:none"
             id="path3251" />
        </g>
        <g
           id="g3253"
           transform="translate(165.748,607.555)">
          <path
             d="M 0,0 C -0.112,0 -0.221,0.019 -0.334,0.018 -0.532,0.016 -0.724,0.025 -0.922,0.036 -1.323,0.06 -1.723,0.055 -2.125,0.055 -2.485,0.054 -2.852,0.033 -3.211,0.073 -3.486,0.105 -3.758,0.157 -4.033,0.184 -4.215,0.201 -4.396,0.212 -4.577,0.237 -4.661,0.248 -4.82,0.306 -4.903,0.266 c 0.014,-0.037 0.077,-0.052 0.11,-0.067 0.116,-0.053 0.228,-0.104 0.349,-0.144 0.273,-0.09 0.568,-0.13 0.847,-0.195 0.169,-0.04 0.335,-0.084 0.501,-0.135 0.531,-0.163 1.093,-0.194 1.625,-0.36 0.189,-0.059 0.386,-0.115 0.584,-0.129 0.09,-0.007 0.18,-0.016 0.271,-0.018 0.04,-0.002 0.1,-0.011 0.136,0.01 0.039,0.024 0.048,0.062 0.059,0.107 0.026,0.102 0.071,0.182 0.132,0.269 0.12,0.174 0.275,0.39 0.249,0.617 C -0.069,0.221 -0.092,0.208 0,0"
             style="fill:#231f20;fill-opacity:1;fill-rule:nonzero;stroke:none"
             id="path3255" />
        </g>
        <g
           id="g3257"
           transform="translate(165.657,605.575)">
          <path
             d="m 0,0 c -0.017,-0.027 -0.05,-0.018 -0.077,-0.017 -0.132,0.002 -0.269,-0.022 -0.397,-0.046 -0.524,-0.1 -1.026,-0.29 -1.543,-0.419 -0.257,-0.065 -0.515,-0.125 -0.77,-0.2 -0.22,-0.064 -0.438,-0.13 -0.662,-0.179 -0.13,-0.028 -0.261,-0.054 -0.391,-0.085 -0.051,-0.012 -0.189,-0.016 -0.208,-0.073 0.021,-0.037 0.139,-0.044 0.173,-0.048 0.348,-0.046 0.709,-0.043 1.06,-0.041 0.23,0 0.46,0.002 0.691,-0.002 0.205,-0.003 0.41,-0.016 0.616,-0.017 0.252,-10e-4 0.501,0.001 0.753,-0.023 0.066,-0.006 0.13,-0.01 0.196,-0.012 0.103,-0.004 0.197,-0.024 0.299,-0.034 0.097,-0.009 0.208,-0.027 0.271,0.062 0.054,0.074 0.065,0.163 0.085,0.251 0.023,0.104 0.059,0.205 0.075,0.31 0.019,0.125 0.015,0.254 0.012,0.38 C 0.182,-0.13 0.2,-0.009 0,0"
             style="fill:#231f20;fill-opacity:1;fill-rule:nonzero;stroke:none"
             id="path3259" />
        </g>
        <g
           id="g3261"
           transform="translate(165.857,603.231)">
          <path
             d="M 0,0 C -0.004,-0.025 -0.031,-0.031 -0.052,-0.039 -0.121,-0.058 -0.191,-0.073 -0.262,-0.083 -0.387,-0.1 -0.51,-0.127 -0.631,-0.165 -1.22,-0.342 -1.723,-0.704 -2.281,-0.957 -2.618,-1.11 -2.964,-1.239 -3.313,-1.361 -3.595,-1.459 -3.868,-1.576 -4.146,-1.683 -4.275,-1.73 -4.403,-1.775 -4.532,-1.82 c -0.067,-0.023 -0.131,-0.053 -0.191,-0.089 -0.032,-0.026 -0.05,-0.059 -0.078,-0.087 -0.028,0.014 -0.082,0.036 -0.117,0.035 0.035,0.001 0.044,-0.022 0.07,-0.034 0.024,-0.01 0.056,-0.004 0.082,-0.004 0.075,0.001 0.15,-10e-4 0.226,0.004 0.228,0.016 0.468,0.014 0.692,0.054 0.22,0.039 0.418,0.124 0.632,0.18 0.32,0.083 0.653,0.138 0.978,0.194 0.371,0.064 0.739,0.127 1.106,0.214 0.306,0.072 0.599,0.181 0.902,0.262 0.089,0.023 0.18,0.035 0.269,0.056 0.029,0.007 0.076,0.037 0.104,0.034 0.012,-0.022 0.018,-0.067 0.037,-0.082 0.017,-0.013 0.081,-0.022 0.094,-0.025 0.048,-0.012 0.149,-0.043 0.198,-0.019 0.088,0.043 0.022,0.249 0.003,0.312 -0.098,0.318 -0.36,0.564 -0.493,0.866 -0.011,0.025 -0.037,0.066 -0.001,0.08 C 0.015,0.145 0.053,0.005 0,0"
             style="fill:#231f20;fill-opacity:1;fill-rule:nonzero;stroke:none"
             id="path3263" />
        </g>
        <g
           id="g3265"
           transform="translate(166.693,600.942)">
          <path
             d="M 0,0 C 0.004,-0.028 0.017,-0.034 0.036,-0.058 0.117,-0.153 0.197,-0.249 0.28,-0.343 0.377,-0.453 0.485,-0.564 0.563,-0.69 0.591,-0.736 0.632,-0.791 0.648,-0.843 0.423,-0.93 0.185,-0.971 -0.026,-1.096 -0.104,-1.149 -0.18,-1.207 -0.252,-1.268 -0.355,-1.352 -0.466,-1.425 -0.584,-1.487 -0.814,-1.609 -1.064,-1.68 -1.287,-1.816 -1.533,-1.966 -1.772,-2.113 -2.039,-2.225 -2.257,-2.317 -2.473,-2.396 -2.68,-2.511 -2.853,-2.607 -3.02,-2.712 -3.197,-2.803 -3.265,-2.838 -3.35,-2.87 -3.411,-2.92 c 0.087,0.17 0.269,0.278 0.416,0.389 0.375,0.285 0.739,0.591 1.098,0.895 0.411,0.348 0.833,0.684 1.248,1.027 0.169,0.139 0.316,0.298 0.473,0.449 0.074,0.071 0.146,0.14 0.215,0.216 C 0.059,0.053 0.071,0.039 0,0"
             style="fill:#231f20;fill-opacity:1;fill-rule:nonzero;stroke:none"
             id="path3267" />
        </g>
        <g
           id="g3269"
           transform="translate(169.109,599.234)">
          <path
             d="m 0,0 c -0.053,0.07 -0.094,-0.052 -0.118,-0.079 -0.343,-0.382 -0.456,-0.938 -0.605,-1.412 -0.085,-0.272 -0.171,-0.541 -0.304,-0.796 -0.124,-0.239 -0.28,-0.459 -0.405,-0.698 -0.089,-0.171 -0.161,-0.35 -0.242,-0.524 -0.002,-0.003 -0.145,-0.25 -0.114,-0.271 0.027,0.052 0.079,0.089 0.119,0.129 0.074,0.074 0.129,0.147 0.181,0.238 0.101,0.176 0.19,0.345 0.326,0.497 0.159,0.178 0.323,0.347 0.474,0.532 0.158,0.194 0.313,0.39 0.487,0.57 0.211,0.22 0.459,0.401 0.643,0.647 0.124,0.167 0.228,0.351 0.369,0.506 0.04,0.045 0.138,0.109 0.165,0.166 C 0.79,-0.437 0.636,-0.313 0.469,-0.214 0.328,-0.131 0.177,-0.039 0.015,-0.001 -0.018,0.007 -0.162,0.014 -0.179,0.042 -0.123,0.028 -0.07,0.008 0,0"
             style="fill:#231f20;fill-opacity:1;fill-rule:nonzero;stroke:none"
             id="path3271" />
        </g>
        <g
           id="g3273"
           transform="translate(171.652,598.907)">
          <path
             d="M 0,0 H -0.173 C -0.056,-0.002 0.062,0.013 0.179,0.022 0.392,0.038 0.604,0.055 0.817,0.056 0.945,0.057 1.075,0.062 1.202,0.039 1.214,0.009 1.137,-0.035 1.119,-0.049 0.976,-0.166 0.877,-0.345 0.795,-0.509 0.644,-0.812 0.555,-1.145 0.454,-1.466 0.363,-1.754 0.264,-2.038 0.174,-2.326 0.111,-2.524 0.05,-2.723 0.004,-2.927 c -0.044,-0.197 -0.065,-0.4 -0.111,-0.597 -0.034,-0.146 -0.068,-0.291 -0.107,-0.435 -0.037,0.061 -0.023,0.287 -0.025,0.324 -0.008,0.144 -0.022,0.286 -0.04,0.429 -0.043,0.344 -0.091,0.673 -0.101,1.02 -0.007,0.263 -0.008,0.527 -0.019,0.79 -0.014,0.36 -0.066,0.717 -0.102,1.076 -0.016,0.158 -0.04,0.324 -0.044,0.483 0.089,0.009 0.194,-0.044 0.273,-0.072"
             style="fill:#231f20;fill-opacity:1;fill-rule:nonzero;stroke:none"
             id="path3275" />
        </g>
        <g
           id="g3277"
           transform="translate(175.031,599.507)">
          <path
             d="m 0,0 c 0.002,0.014 -0.003,0.019 -0.014,0.017 -0.017,-0.05 -0.006,-0.124 -0.003,-0.175 0.01,-0.242 0.07,-0.505 0.119,-0.739 0.072,-0.339 0.161,-0.674 0.258,-1.007 0.076,-0.26 0.13,-0.511 0.168,-0.78 0.034,-0.25 0.076,-0.495 0.132,-0.741 0.036,-0.16 0.078,-0.322 0.098,-0.485 0.005,-0.047 0.027,-0.139 0,-0.18 -0.035,0.047 -0.057,0.1 -0.067,0.159 -0.036,0.155 -0.083,0.308 -0.14,0.458 -0.154,0.408 -0.385,0.792 -0.588,1.177 -0.182,0.343 -0.361,0.685 -0.555,1.022 -0.103,0.18 -0.189,0.385 -0.321,0.548 -0.013,0.015 -0.071,0.061 -0.071,0.091 0,0.02 0.032,0.08 0.04,0.093 0.065,0.103 0.187,0.178 0.28,0.249 C -0.533,-0.194 -0.396,-0.133 0,0"
             style="fill:#231f20;fill-opacity:1;fill-rule:nonzero;stroke:none"
             id="path3279" />
        </g>
      </g>
    </g>
  </g>
</svg>
