<svg width="23" height="24" viewBox="0 0 23 24" fill="#000000" xmlns="http://www.w3.org/2000/svg">
  <path d="M7.30129 22.9709C7.00108 22.2834 6.51604 21.721 6.22329 21.721C5.9007 21.721 5.55916 21.144 5.35596 20.2568C4.93791 18.4276 4.90525 18.3941 4.15966 19.0151C3.59903 19.4821 3.56958 19.4079 3.80825 18.1262C3.95153 17.3573 4.15846 16.4925 4.26826 16.2044C4.38938 15.8869 4.2418 15.6814 3.892 15.6814C3.44645 15.6814 3.36563 15.4331 3.53467 14.5834C3.76112 13.4449 3.39421 13.169 2.64903 13.9183C1.97623 14.5949 1.63056 13.9091 2.19131 13.0114C2.81119 12.0179 2.95991 10.1902 2.42074 10.1936C2.20268 10.1942 1.5688 10.4343 1.01218 10.7265L1.73411e-05 11.2576L0.648196 10.1238C1.02245 9.46911 1.94397 8.69785 2.82904 8.29836C4.24679 7.6593 4.46233 7.64948 5.70552 8.17194C7.20829 8.8035 7.59919 8.71286 6.80648 7.91562C6.51545 7.62235 5.66878 6.40888 4.92561 5.2185C4.18244 4.02754 2.97994 2.5283 2.25335 1.88693L0.932437 0.719634L2.93407 1.27557C4.03503 1.58154 5.4518 2.06589 6.08264 2.35107C7.96311 3.20316 9.03134 2.92664 7.97344 1.86269C7.66003 1.54806 7.908 1.54979 8.94753 1.87019C10.0123 2.19867 10.3745 2.19925 10.483 1.87077C10.5846 1.5648 10.8934 1.5446 11.5616 1.79976C12.7383 2.25006 12.8709 2.1115 12.4157 0.907267C11.9634 -0.290043 12.1339 -0.297547 13.6384 0.856466C14.2939 1.35929 15.0326 1.77148 15.2795 1.77148C16.2725 1.77148 19.8744 4.76072 20.4754 6.08388C20.8164 6.83436 20.9386 7.4994 20.7486 7.56637C20.5586 7.63391 20.4031 7.83423 20.4031 8.01262C20.4031 8.191 20.6367 8.247 20.9214 8.13674C21.2245 8.02012 21.6211 8.27818 21.8772 8.75964C22.2399 9.44085 22.2129 9.65791 21.7233 10.0181C21.0529 10.5111 20.9048 11.1058 21.5523 10.7034C21.8548 10.5152 21.8898 10.6895 21.6763 11.3223C21.5127 11.8066 21.4019 12.9595 21.43 13.8843C21.4702 15.2051 21.302 15.7345 20.6476 16.3534C19.9146 17.0455 19.6959 17.086 18.8378 16.6853C18.3005 16.4342 17.8602 15.9683 17.8585 15.6496C17.8499 14.7 17.4205 14.5447 16.4883 15.1589C16.005 15.4776 15.52 15.6491 15.4109 15.5394C14.9729 15.0989 13.8858 16.1167 13.4828 17.344C13.0477 18.67 13.2647 20.6208 13.8094 20.2821C13.9742 20.1797 14.4196 20.3323 14.7996 20.6215C15.1796 20.9106 15.8587 21.1524 16.3093 21.1588C16.9137 21.1684 17.1266 21.3857 17.1221 21.994C17.1089 23.8874 15.6635 24.3945 12.2326 23.7087C10.153 23.2931 9.83326 23.1132 9.42972 22.1335C9.00151 21.0949 8.93836 16.6247 9.3063 13.4842C9.38896 12.7793 9.36141 12.5322 9.24546 12.9352C9.12893 13.3376 8.82012 13.9743 8.55894 14.3501C8.20076 14.8651 8.18124 15.2484 8.47915 15.906C8.76788 16.5433 8.75181 17.643 8.42061 19.9812C8.17034 21.7425 7.93959 23.4166 7.90687 23.7015C7.87473 23.9864 7.60265 23.6572 7.30244 22.9694L7.30129 22.9709ZM8.21108 9.45931C8.08767 9.25783 7.82248 9.0933 7.62215 9.0933C7.42239 9.0933 7.35983 9.25783 7.48324 9.4593C7.60722 9.66078 7.87184 9.82531 8.07217 9.82531C8.2725 9.82531 8.33507 9.66078 8.21108 9.45931ZM16.9458 9.45932C16.8224 9.25784 16.5572 9.09331 16.3569 9.09331C16.1566 9.09331 16.0946 9.25784 16.218 9.45931C16.342 9.66079 16.6066 9.82532 16.8069 9.82532C17.0072 9.82532 17.0698 9.66079 16.9458 9.45932V9.45932ZM9.83553 5.40728C9.64611 5.05166 8.95729 4.64409 8.30522 4.5015C7.65314 4.35948 7.01713 4.08123 6.892 3.88379C6.74448 3.65057 6.58548 3.65345 6.43853 3.89361C6.31454 4.09566 6.98384 5.12267 7.92522 6.17623L9.63808 8.0917L9.90901 7.07335C10.0577 6.51337 10.0244 5.76405 9.83496 5.40843L9.83553 5.40728Z"/>
</svg>
