<?xml version="1.0" encoding="UTF-8" standalone="no"?>
<!-- Created with Inkscape (http://www.inkscape.org/) -->

<svg
   width="20.942459"
   height="24"
   viewBox="0 0 5.5410256 6.35"
   version="1.1"
   id="svg12563"
   inkscape:version="1.2.1 (9c6d41e4, 2022-07-14)"
   sodipodi:docname="the_devourer_below.svg"
   xmlns:inkscape="http://www.inkscape.org/namespaces/inkscape"
   xmlns:sodipodi="http://sodipodi.sourceforge.net/DTD/sodipodi-0.dtd"
   xmlns="http://www.w3.org/2000/svg"
   xmlns:svg="http://www.w3.org/2000/svg">
  <sodipodi:namedview
     id="namedview12565"
     pagecolor="#505050"
     bordercolor="#eeeeee"
     borderopacity="1"
     inkscape:showpageshadow="0"
     inkscape:pageopacity="0"
     inkscape:pagecheckerboard="0"
     inkscape:deskcolor="#505050"
     inkscape:document-units="mm"
     showgrid="false"
     inkscape:zoom="0.70199214"
     inkscape:cx="59.82973"
     inkscape:cy="71.225869"
     inkscape:window-width="1390"
     inkscape:window-height="938"
     inkscape:window-x="0"
     inkscape:window-y="25"
     inkscape:window-maximized="0"
     inkscape:current-layer="layer1" />
  <defs
     id="defs12560">
    <clipPath
       clipPathUnits="userSpaceOnUse"
       id="clipPath6488">
      <path
         d="m 55.717,183.207 h 24.7 v 24.699 h -24.7 z"
         id="path6486" />
    </clipPath>
  </defs>
  <g
     inkscape:label="Layer 1"
     inkscape:groupmode="layer"
     id="layer1"
     transform="translate(-89.374103,-129.64648)">
    <g
       id="g6482"
       transform="matrix(0.32938572,0,0,-0.32938572,69.612305,197.30082)">
      <g
         id="g6484"
         clip-path="url(#clipPath6488)">
        <g
           id="g6490"
           transform="translate(62.8226,191.443)">
          <path
             d="m 0,0 c -0.012,-0.004 -0.025,-0.008 -0.038,-0.012 -0.181,-0.056 -0.363,-0.152 -0.533,-0.238 -0.114,-0.058 -0.233,-0.106 -0.345,-0.172 -0.147,-0.086 -0.165,-0.234 -0.215,-0.379 -0.029,-0.083 -0.071,-0.153 -0.133,-0.214 -0.061,-0.062 -0.147,-0.1 -0.202,-0.167 -0.044,-0.053 -0.065,-0.135 -0.065,-0.201 0.002,-0.094 -0.01,-0.196 0.003,-0.289 0.01,-0.071 0.028,-0.145 0.04,-0.216 0.012,-0.068 0.005,-0.136 0.015,-0.202 0.016,-0.089 0.079,-0.197 0.114,-0.281 0.03,-0.073 0.06,-0.133 0.113,-0.192 0.125,-0.136 0.215,-0.299 0.341,-0.437 0.085,-0.094 0.18,-0.176 0.272,-0.263 0.077,-0.072 0.143,-0.154 0.217,-0.229 0.069,-0.069 0.131,-0.137 0.216,-0.187 0.108,-0.064 0.23,-0.109 0.342,-0.167 0.239,-0.122 0.473,-0.206 0.722,-0.305 0.217,-0.086 0.421,-0.172 0.646,-0.235 0.196,-0.055 0.382,-0.117 0.56,-0.218 0.121,-0.069 0.24,-0.132 0.37,-0.181 0.165,-0.063 0.33,-0.118 0.49,-0.194 0.146,-0.07 0.291,-0.099 0.448,-0.13 0.228,-0.046 0.454,-0.091 0.678,-0.15 0.238,-0.062 0.456,-0.064 0.702,-0.063 0.253,0.001 0.509,-0.012 0.762,0.005 0.229,0.016 0.46,0.055 0.686,0.095 0.199,0.034 0.384,0.108 0.58,0.153 0.206,0.048 0.416,0.058 0.62,0.118 0.221,0.066 0.445,0.144 0.674,0.171 0.194,0.022 0.376,0.071 0.561,0.129 0.254,0.08 0.52,0.127 0.771,0.213 0.21,0.072 0.412,0.164 0.613,0.256 0.166,0.076 0.33,0.135 0.485,0.233 0.199,0.126 0.381,0.279 0.555,0.438 0.276,0.252 0.556,0.496 0.789,0.789 0.217,0.274 0.406,0.578 0.446,0.933 0.016,0.137 0.026,0.274 0.031,0.413 0.005,0.125 0.068,0.25 0.032,0.377 -0.02,0.07 -0.073,0.14 -0.115,0.202 -0.041,0.061 -0.097,0.104 -0.145,0.159 -0.043,0.05 -0.067,0.113 -0.112,0.161 -0.048,0.051 -0.114,0.083 -0.175,0.121 -0.098,0.063 -0.158,0.143 -0.246,0.214 -0.075,0.06 -0.17,0.093 -0.252,0.144 -0.066,0.04 -0.121,0.096 -0.189,0.134 -0.053,0.029 -0.103,0.044 -0.155,0.079 -0.145,0.096 -0.301,0.073 -0.479,0.073 h -0.322 c -0.063,0 -0.151,0.012 -0.211,-0.005 10e-4,-0.049 0.055,-0.056 0.1,-0.075 0.075,-0.032 0.136,-0.076 0.204,-0.117 0.054,-0.032 0.119,-0.058 0.169,-0.095 0.048,-0.035 0.074,-0.078 0.118,-0.113 0.037,-0.029 0.086,-0.045 0.127,-0.069 0.079,-0.045 0.147,-0.103 0.225,-0.149 0.113,-0.066 0.186,-0.114 0.274,-0.204 0.086,-0.086 0.21,-0.134 0.29,-0.225 0.107,-0.123 0.107,-0.322 0.107,-0.47 10e-4,-0.172 -0.058,-0.315 -0.118,-0.479 C 11.403,-1.863 11.35,-2.032 11.257,-2.169 11.186,-2.274 11.115,-2.291 10.992,-2.345 10.835,-2.413 10.705,-2.501 10.536,-2.551 10.355,-2.604 10.162,-2.64 9.977,-2.682 9.796,-2.723 9.611,-2.731 9.429,-2.767 9.212,-2.811 8.996,-2.859 8.781,-2.905 7.568,-3.164 6.295,-3.524 5.025,-3.421 4.857,-3.407 4.689,-3.383 4.522,-3.36 4.344,-3.335 4.175,-3.345 3.995,-3.34 3.832,-3.336 3.66,-3.314 3.502,-3.281 3.361,-3.252 3.213,-3.254 3.075,-3.216 2.991,-3.193 2.918,-3.146 2.836,-3.118 2.563,-3.024 2.267,-3.082 1.987,-3.021 1.795,-2.978 1.608,-2.918 1.416,-2.877 1.293,-2.85 1.185,-2.806 1.07,-2.755 c -0.119,0.054 -0.243,0.079 -0.365,0.12 -0.13,0.042 -0.227,0.115 -0.362,0.143 -0.143,0.029 -0.254,0.109 -0.381,0.18 -0.123,0.069 -0.226,0.149 -0.323,0.251 -0.069,0.072 -0.167,0.167 -0.215,0.255 -0.102,0.19 -0.082,0.431 -0.032,0.631 0.031,0.124 0.026,0.295 0.087,0.407 0.021,0.037 0.054,0.055 0.086,0.081 0.09,0.076 0.136,0.193 0.197,0.29 0.084,0.135 0.187,0.133 0.324,0.193 C 0.215,-0.147 0.32,-0.07 0.439,0.004 0.419,0.074 0.336,0.053 0.277,0.053 0.17,0.053 0.096,0.03 0,0"
             style="fill:#231f20;fill-opacity:1;fill-rule:nonzero;stroke:none"
             id="path6492" />
        </g>
        <g
           id="g6494"
           transform="translate(63.5963,190.719)">
          <path
             d="m 0,0 c 0.006,0.023 0.012,0.046 0.018,0.069 0.06,0.236 0.136,0.469 0.183,0.708 0.037,0.192 0.041,0.389 0.04,0.585 0,0.077 -0.002,0.136 0.034,0.204 0.069,0.131 0.022,0.235 0.021,0.382 -0.001,0.206 -0.021,0.368 -0.099,0.559 -0.056,0.14 -0.136,0.236 -0.228,0.356 -0.136,0.178 -0.277,0.346 -0.427,0.514 -0.111,0.124 -0.224,0.248 -0.35,0.356 -0.19,0.163 -0.397,0.246 -0.627,0.345 -0.291,0.125 -0.552,0.295 -0.818,0.467 -0.219,0.142 -0.419,0.323 -0.589,0.52 -0.16,0.184 -0.307,0.375 -0.408,0.598 -0.055,0.12 -0.074,0.248 -0.119,0.37 -0.033,0.09 -0.078,0.173 -0.107,0.264 -0.179,0.555 -0.142,1.168 -0.032,1.735 0.083,0.425 0.248,0.908 0.567,1.212 0.057,0.054 0.099,0.122 0.158,0.175 0.052,0.047 0.11,0.086 0.163,0.133 0.113,0.101 0.254,0.173 0.335,0.307 C -2.312,9.793 -2.378,9.739 -2.412,9.676 -2.529,9.46 -2.59,9.218 -2.711,9.005 -2.749,8.939 -2.794,8.877 -2.824,8.807 -2.864,8.712 -2.872,8.612 -2.879,8.51 -2.887,8.366 -2.905,8.223 -2.934,8.081 -2.992,7.795 -2.969,7.483 -2.906,7.198 -2.875,7.055 -2.808,6.926 -2.747,6.794 -2.676,6.643 -2.629,6.489 -2.534,6.349 -2.322,6.039 -2.047,5.711 -1.721,5.515 -1.583,5.431 -1.435,5.355 -1.292,5.28 -1.206,5.234 -1.115,5.198 -1.029,5.151 -0.96,5.113 -0.9,5.06 -0.831,5.023 -0.722,4.967 -0.601,4.899 -0.488,4.855 -0.326,4.792 -0.147,4.79 -0.002,4.685 0.051,4.646 0.096,4.599 0.151,4.564 0.232,4.514 0.324,4.486 0.404,4.434 0.484,4.384 0.554,4.321 0.622,4.257 0.756,4.132 0.894,4.042 1.002,3.889 1.065,3.799 1.123,3.706 1.182,3.613 1.235,3.531 1.304,3.462 1.357,3.381 1.437,3.256 1.476,3.118 1.525,2.98 1.582,2.817 1.667,2.671 1.673,2.493 1.675,2.436 1.664,2.379 1.673,2.321 1.686,2.241 1.723,2.167 1.739,2.088 1.792,1.817 1.717,1.548 1.741,1.272 1.761,1.03 1.755,0.79 1.754,0.548 1.753,0.331 1.801,0.146 1.834,-0.064 1.859,-0.23 1.898,-0.393 1.921,-0.559 1.941,-0.703 1.916,-0.848 1.925,-0.992 1.93,-1.072 1.953,-1.168 1.976,-1.246 1.989,-1.292 2.046,-1.388 1.997,-1.423 1.98,-1.435 1.945,-1.418 1.926,-1.422 1.895,-1.428 1.884,-1.451 1.857,-1.465 1.782,-1.502 1.696,-1.466 1.615,-1.483 1.573,-1.491 1.544,-1.522 1.505,-1.534 1.465,-1.545 1.424,-1.539 1.383,-1.538 c -0.074,0 -0.128,0.003 -0.199,0.021 -0.164,0.041 -0.314,0.123 -0.475,0.17 -0.157,0.046 -0.318,0.058 -0.477,0.094 -0.085,0.019 -0.127,0.076 -0.205,0.11 -0.04,0.018 -0.07,0.022 -0.105,0.05 -0.033,0.027 -0.084,0.063 -0.112,0.095 -0.037,0.041 -0.028,0.095 -0.027,0.146 0,0.049 0.002,0.083 0.014,0.128 0.013,0.051 0.011,0.105 0.031,0.155 C -0.097,-0.383 -0.049,-0.194 0,0"
             style="fill:#231f20;fill-opacity:1;fill-rule:nonzero;stroke:none"
             id="path6496" />
        </g>
        <g
           id="g6498"
           transform="translate(71.2298,189.858)">
          <path
             d="M 0,0 C -0.128,0.187 -0.215,0.408 -0.297,0.618 -0.381,0.836 -0.522,1.025 -0.613,1.24 -0.729,1.515 -0.862,1.78 -0.929,2.074 -0.99,2.339 -0.962,2.619 -0.962,2.89 c 0,0.23 0.016,0.455 0.028,0.684 0.006,0.134 0.04,0.247 0.08,0.373 0.04,0.128 0.06,0.259 0.098,0.387 0.039,0.13 0.088,0.263 0.142,0.387 0.061,0.137 0.159,0.249 0.22,0.386 0.183,0.413 0.516,0.738 0.923,0.935 0.148,0.072 0.305,0.114 0.457,0.176 0.107,0.043 0.211,0.093 0.319,0.134 0.115,0.042 0.227,0.022 0.339,0.077 0.1,0.048 0.187,0.122 0.292,0.159 C 1.999,6.611 2.066,6.616 2.13,6.639 2.229,6.674 2.319,6.728 2.414,6.773 2.556,6.838 2.734,6.861 2.888,6.83 2.939,6.82 2.989,6.803 3.042,6.794 3.257,6.76 3.484,6.782 3.697,6.727 3.819,6.696 3.927,6.698 4.039,6.636 4.191,6.553 4.287,6.426 4.419,6.32 4.539,6.222 4.656,6.121 4.769,6.015 4.842,5.947 4.912,5.875 4.98,5.801 5.025,5.75 5.07,5.699 5.116,5.648 5.18,5.574 5.245,5.501 5.309,5.426 5.435,5.277 5.491,5.127 5.543,4.942 5.583,4.803 5.585,4.69 5.585,4.547 5.584,4.438 5.597,4.325 5.578,4.218 5.564,4.136 5.546,4.055 5.534,3.974 5.526,3.92 5.538,3.862 5.522,3.81 5.502,3.745 5.451,3.688 5.428,3.623 5.39,3.518 5.388,3.353 5.303,3.273 5.289,3.331 5.299,3.397 5.299,3.457 5.299,3.591 5.307,3.726 5.295,3.86 5.263,4.211 5.082,4.581 4.897,4.873 4.826,4.986 4.744,5.091 4.671,5.202 4.576,5.348 4.495,5.518 4.345,5.617 4.205,5.71 4.042,5.743 3.9,5.832 3.734,5.937 3.564,6.025 3.366,6.041 3.138,6.06 2.947,5.999 2.729,5.943 2.545,5.896 2.357,5.851 2.178,5.784 2.031,5.729 1.889,5.663 1.742,5.608 1.387,5.474 1.073,5.153 0.873,4.84 0.708,4.583 0.562,4.308 0.447,4.026 0.4,3.911 0.33,3.804 0.293,3.684 0.256,3.561 0.268,3.432 0.266,3.305 0.264,3.156 0.302,3.016 0.333,2.871 0.356,2.76 0.382,2.652 0.426,2.547 0.532,2.293 0.642,2.046 0.777,1.805 0.9,1.585 1.097,1.471 1.275,1.303 1.388,1.197 1.502,1.116 1.584,0.982 1.649,0.876 1.654,0.741 1.67,0.623 1.688,0.496 1.751,0.351 1.723,0.222 1.687,0.056 1.472,-0.051 1.348,-0.148 1.256,-0.221 1.164,-0.296 1.055,-0.342 0.912,-0.403 0.754,-0.393 0.611,-0.445 0.524,-0.477 0.513,-0.485 0.467,-0.405 0.419,-0.322 0.354,-0.304 0.276,-0.257 0.205,-0.215 0.136,-0.164 0.081,-0.103 0.051,-0.07 0.024,-0.035 0,0"
             style="fill:#231f20;fill-opacity:1;fill-rule:nonzero;stroke:none"
             id="path6500" />
        </g>
        <g
           id="g6502"
           transform="translate(69.8295,190.011)">
          <path
             d="m 0,0 c -0.019,0.04 -0.032,0.082 -0.05,0.122 -0.075,0.17 -0.206,0.322 -0.326,0.46 -0.157,0.18 -0.292,0.358 -0.418,0.562 -0.249,0.402 -0.547,0.815 -0.706,1.264 -0.172,0.487 -0.264,1.018 -0.306,1.531 -0.021,0.264 -0.044,0.528 -0.044,0.793 0,0.275 0.023,0.548 0.03,0.823 0.012,0.488 0.149,0.913 0.358,1.352 0.09,0.191 0.171,0.363 0.294,0.535 0.052,0.075 0.104,0.139 0.133,0.225 0.069,0.199 0.24,0.356 0.351,0.533 0.323,0.51 0.654,1.016 0.931,1.553 0.268,0.521 0.515,1.039 0.56,1.63 0.017,0.225 0.023,0.429 -0.072,0.637 -0.095,0.207 -0.168,0.413 -0.246,0.628 -0.147,0.409 -0.289,0.825 -0.569,1.166 -0.146,0.178 -0.299,0.363 -0.455,0.533 -0.137,0.15 -0.295,0.291 -0.461,0.408 -0.217,0.153 -0.465,0.237 -0.718,0.311 -0.203,0.059 -0.399,0.095 -0.585,0.2 -0.14,0.079 -0.258,0.085 -0.423,0.086 -0.251,0.002 -0.495,0 -0.745,0.02 -0.143,0.011 -0.286,0.006 -0.429,0.006 -0.091,0 -0.194,0.019 -0.283,-0.008 -0.138,-0.041 -0.166,-0.172 -0.272,-0.248 -0.041,-0.028 -0.09,-0.038 -0.134,-0.058 0.072,-0.022 0.13,-0.02 0.202,-0.033 0.123,-0.023 0.239,-0.071 0.364,-0.089 0.155,-0.023 0.309,-0.058 0.464,-0.085 0.066,-0.012 0.13,-0.036 0.197,-0.045 0.125,-0.018 0.234,0.001 0.358,-0.036 0.088,-0.027 0.125,-0.068 0.2,-0.113 0.059,-0.033 0.123,-0.056 0.185,-0.083 0.179,-0.08 0.354,-0.189 0.517,-0.297 0.143,-0.094 0.304,-0.13 0.449,-0.218 0.076,-0.046 0.157,-0.088 0.226,-0.145 0.053,-0.043 0.094,-0.099 0.145,-0.144 0.052,-0.047 0.116,-0.073 0.17,-0.115 0.054,-0.042 0.097,-0.093 0.145,-0.14 0.089,-0.09 0.202,-0.18 0.261,-0.295 0.085,-0.164 0.143,-0.355 0.169,-0.538 0.012,-0.081 0.029,-0.147 0.028,-0.231 -0.003,-0.115 0.031,-0.223 0.03,-0.339 -0.001,-0.101 -0.012,-0.208 0.005,-0.307 0.014,-0.082 0.025,-0.153 0.024,-0.236 C -0.448,11.463 -0.477,11.39 -0.517,11.291 -0.553,11.202 -0.53,11.112 -0.576,11.022 -0.628,10.918 -0.643,10.807 -0.707,10.707 -0.743,10.65 -0.792,10.604 -0.822,10.543 -0.861,10.461 -0.86,10.379 -0.875,10.292 -0.889,10.21 -0.921,10.123 -0.95,10.044 -1.003,9.904 -1.087,9.788 -1.163,9.661 -1.294,9.439 -1.406,9.208 -1.553,8.995 -1.744,8.717 -1.971,8.462 -2.17,8.189 -2.339,7.958 -2.508,7.727 -2.672,7.493 -2.919,7.139 -3.165,6.782 -3.361,6.397 -3.57,5.987 -3.582,5.522 -3.701,5.083 -3.813,4.665 -3.764,4.21 -3.764,3.781 c 10e-4,-0.447 0.036,-0.89 0.078,-1.335 0.034,-0.352 0.039,-0.721 0.12,-1.065 0.097,-0.412 0.282,-0.8 0.495,-1.163 0.075,-0.128 0.186,-0.228 0.233,-0.372 0.039,-0.12 0.075,-0.244 0.112,-0.366 0.05,-0.167 0.054,-0.352 0.142,-0.506 0.042,-0.073 0.104,-0.141 0.182,-0.173 0.078,-0.032 0.133,-0.071 0.203,-0.118 0.044,-0.03 0.078,-0.041 0.128,-0.056 0.041,0.003 0.077,-0.009 0.109,-0.036 0.026,-0.028 0.057,-0.046 0.094,-0.054 0.079,-0.016 0.189,0.004 0.269,0.004 h 0.415 c 0.166,0 0.335,-0.009 0.501,-0.003 0.093,0.004 0.18,0.044 0.27,0.066 0.076,0.019 0.166,0.047 0.239,0.078 0.048,0.021 0.092,0.047 0.132,0.08 0.055,0.026 0.111,0.05 0.168,0.071 0.074,0.035 0.142,0.083 0.213,0.124 0.095,0.054 0.168,0.025 0.267,0.043 0.029,0.088 -0.01,0.199 -0.066,0.267 -0.074,0.09 -0.145,0.171 -0.208,0.272 C 0.28,-0.377 0.238,-0.285 0.172,-0.21 0.118,-0.151 0.057,-0.103 0.016,-0.032 0.01,-0.021 0.005,-0.011 0,0"
             style="fill:#231f20;fill-opacity:1;fill-rule:nonzero;stroke:none"
             id="path6504" />
        </g>
      </g>
    </g>
  </g>
</svg>
