<?xml version="1.0" encoding="UTF-8" standalone="no"?>
<!-- Created with Inkscape (http://www.inkscape.org/) -->

<svg
   width="27.048878"
   height="24"
   viewBox="0 0 7.1566821 6.35"
   version="1.1"
   id="svg6563"
   inkscape:version="1.2.1 (9c6d41e4, 2022-07-14)"
   sodipodi:docname="abyssal-gifts.svg"
   xmlns:inkscape="http://www.inkscape.org/namespaces/inkscape"
   xmlns:sodipodi="http://sodipodi.sourceforge.net/DTD/sodipodi-0.dtd"
   xmlns="http://www.w3.org/2000/svg"
   xmlns:svg="http://www.w3.org/2000/svg">
  <sodipodi:namedview
     id="namedview6565"
     pagecolor="#505050"
     bordercolor="#eeeeee"
     borderopacity="1"
     inkscape:showpageshadow="0"
     inkscape:pageopacity="0"
     inkscape:pagecheckerboard="0"
     inkscape:deskcolor="#505050"
     inkscape:document-units="mm"
     showgrid="false"
     inkscape:zoom="0.7046647"
     inkscape:cx="-7.0955732"
     inkscape:cy="237.7017"
     inkscape:window-width="1390"
     inkscape:window-height="941"
     inkscape:window-x="0"
     inkscape:window-y="25"
     inkscape:window-maximized="0"
     inkscape:current-layer="layer1" />
  <defs
     id="defs6560">
    <clipPath
       clipPathUnits="userSpaceOnUse"
       id="clipPath1733">
      <path
         d="m 56.886,195.155 h 28.8 v 28.8 h -28.8 z"
         id="path1731" />
    </clipPath>
  </defs>
  <g
     inkscape:label="Layer 1"
     inkscape:groupmode="layer"
     id="layer1"
     transform="translate(-107.18651,-85.812366)">
    <g
       id="g1727"
       transform="matrix(0.293671,0,0,-0.293671,89.837247,150.50537)">
      <g
         id="g1729"
         clip-path="url(#clipPath1733)">
        <g
           id="g1735"
           transform="translate(67.45,203.089)">
          <path
             d="m 0,0 c -0.002,-0.006 -0.004,-0.012 -0.006,-0.018 -0.045,0.002 -0.079,-0.024 -0.112,-0.053 -0.141,-0.119 -0.228,-0.332 -0.313,-0.491 -0.098,-0.181 -0.175,-0.371 -0.264,-0.556 -0.091,-0.188 -0.187,-0.373 -0.268,-0.566 -0.173,-0.407 -0.401,-0.79 -0.576,-1.197 -0.069,-0.161 -0.201,-0.284 -0.293,-0.432 -0.066,-0.105 -0.14,-0.192 -0.242,-0.263 -0.071,-0.05 -0.132,-0.097 -0.213,-0.127 -0.152,-0.056 -0.254,-0.157 -0.379,-0.255 -0.121,-0.096 -0.276,-0.146 -0.419,-0.203 -0.102,-0.041 -0.202,-0.083 -0.307,-0.116 -0.1,-0.03 -0.195,-0.087 -0.301,-0.089 -0.062,-0.001 -0.111,0.04 -0.172,0.036 -0.036,-0.002 -0.071,-0.021 -0.105,-0.032 -0.051,-0.016 -0.104,-0.021 -0.158,-0.028 -0.057,-0.008 -0.147,-0.051 -0.202,-0.02 -0.011,0.052 0.03,0.083 0.055,0.124 0.09,0.147 0.156,0.315 0.211,0.478 0.183,0.533 0.158,1.096 0.221,1.648 0.019,0.169 0.038,0.314 0.09,0.477 0.067,0.205 0.105,0.409 0.19,0.608 0.068,0.161 0.133,0.33 0.184,0.497 0.034,0.108 0.04,0.21 0.054,0.32 0.013,0.094 0.042,0.173 0.076,0.262 0.024,0.064 0.035,0.122 0.042,0.189 0.005,0.045 10e-4,0.084 0.022,0.125 0.033,0.065 0.075,0.127 0.108,0.191 0.014,0.028 0.027,0.056 0.037,0.086 0.012,0.034 0.009,0.078 0.022,0.109 0.013,0.031 0.039,0.056 0.055,0.086 0.007,0.012 -10e-4,0.028 0.009,0.04 0.009,0.013 0.03,0.015 0.039,0.028 0.018,0.025 0.012,0.076 0.016,0.105 0.014,0.132 -0.007,0.29 -0.069,0.409 -0.041,0.081 -0.071,0.191 -0.129,0.259 -0.023,0.027 -0.057,0.046 -0.085,0.067 -0.058,0.047 -0.09,0.1 -0.125,0.164 -0.09,0.163 -0.35,0.261 -0.529,0.229 C -3.936,2.073 -4.031,2.024 -4.127,1.992 -4.251,1.952 -4.37,1.924 -4.487,1.865 -4.622,1.797 -5.118,1.493 -5.2,1.803 c -0.019,0.07 0.03,0.11 0.055,0.166 0.028,0.063 0.035,0.125 0.073,0.186 0.03,0.048 0.067,0.092 0.1,0.137 0.129,0.183 0.247,0.37 0.353,0.566 0.038,0.071 0.09,0.131 0.117,0.208 0.036,0.101 0.036,0.234 0.105,0.319 0.027,0.033 0.066,0.05 0.095,0.08 0.039,0.039 0.065,0.089 0.079,0.142 0.021,0.075 0.025,0.171 0.031,0.248 0.01,0.117 -0.029,0.207 -0.078,0.31 -0.04,0.084 -0.073,0.172 -0.113,0.256 -0.055,0.115 -0.096,0.254 -0.178,0.354 -0.037,0.046 -0.083,0.074 -0.131,0.106 -0.053,0.032 -0.103,0.067 -0.15,0.107 C -4.878,5.023 -4.918,5.055 -4.96,5.083 -5.063,5.133 -5.183,5.1 -5.285,5.07 -5.453,5.021 -5.604,4.965 -5.758,4.88 -5.8,4.857 -5.849,4.813 -5.899,4.806 c -0.093,-0.012 -0.188,0.09 -0.234,0.151 -0.06,0.078 -0.117,0.174 -0.109,0.275 0.009,0.093 0.051,0.186 0.084,0.272 0.075,0.191 0.175,0.363 0.259,0.55 0.081,0.181 0.109,0.386 0.129,0.581 0.008,0.073 0.044,0.182 0.024,0.251 C -5.828,6.896 -5.86,7.005 -5.927,7.047 -5.976,7.076 -6.028,7.076 -6.082,7.089 -6.118,7.098 -6.168,7.121 -6.208,7.124 -6.28,7.128 -6.366,7.089 -6.436,7.076 -6.511,7.062 -6.561,7.035 -6.632,7.011 -6.691,6.991 -6.747,6.995 -6.806,6.986 -6.852,6.98 -6.886,6.968 -6.933,6.97 -7.012,6.974 -7.15,6.963 -7.195,7.042 c -0.044,0.078 0.013,0.134 0.04,0.204 0.065,0.167 0.092,0.313 0.095,0.483 0.002,0.088 0.031,0.155 0.073,0.233 0.069,0.129 0.213,0.307 0.116,0.457 -0.053,0.082 -0.233,0.097 -0.318,0.097 -0.107,-0.002 -0.309,-0.04 -0.39,0.035 -0.189,0.174 -0.012,0.51 -0.135,0.714 -0.076,0.126 -0.157,0.101 -0.3,0.101 -0.11,-10e-4 -0.263,-0.038 -0.302,0.097 -0.032,0.11 0.002,0.287 0.002,0.403 0,0.066 0,0.133 0,0.2 0,0.029 0.005,0.071 10e-4,0.101 -0.007,0.057 -0.03,0.068 -0.04,0.11 -0.011,0.048 -0.03,0.14 -0.013,0.191 0.017,0.054 0.059,0.066 0.091,0.109 0.082,0.11 0.072,0.183 0.236,0.189 0.124,0.005 0.25,0 0.375,0 0.127,0 0.322,-0.038 0.439,0.01 0.105,0.042 0.206,0.141 0.314,0.189 0.122,0.055 0.161,0.042 0.241,-0.08 0.037,-0.056 0.032,-0.117 0.055,-0.171 0.031,-0.071 0.079,-0.12 0.102,-0.2 0.034,-0.114 0.076,-0.232 0.198,-0.249 0.137,-0.02 0.237,0.082 0.36,0.121 0.122,0.04 0.224,-0.027 0.346,-0.012 0.094,0.012 0.16,0.071 0.231,0.128 0.098,0.081 0.171,0.125 0.309,0.127 0.341,0.004 0.266,-0.27 0.411,-0.483 0.042,-0.062 0.113,-0.105 0.158,-0.167 0.064,-0.088 0.065,-0.131 0.174,-0.176 0.2,-0.083 0.395,-0.031 0.559,0.12 0.123,0.112 0.173,0.273 0.253,0.413 0.077,0.138 0.213,0.249 0.339,0.343 0.073,0.055 0.177,0.185 0.282,0.135 0.106,-0.05 0.079,-0.227 0.079,-0.323 0,-0.062 -0.016,-0.143 -0.002,-0.202 0.014,-0.056 0.04,-0.091 0.053,-0.147 0.03,-0.126 0.017,-0.207 0.147,-0.276 0.373,-0.199 0.375,0.312 0.39,0.554 0.007,0.113 -0.009,0.215 -0.042,0.322 -0.081,0.27 -0.124,0.558 -0.219,0.82 -0.04,0.111 -0.087,0.214 -0.117,0.328 -0.044,0.169 -0.058,0.345 -0.089,0.516 -0.028,0.158 -0.05,0.319 -0.088,0.475 -0.051,0.211 -0.114,0.403 -0.122,0.621 -0.01,0.27 -10e-4,0.544 -0.059,0.809 -0.036,0.16 -0.059,0.298 -0.045,0.463 0.014,0.169 0.036,0.34 0.054,0.509 0.016,0.146 0.029,0.285 0.081,0.424 0.069,0.185 0.187,0.334 0.312,0.483 0.118,0.14 0.225,0.299 0.356,0.427 0.182,0.176 0.392,0.253 0.628,0.328 0.44,0.139 0.875,0.252 1.338,0.256 0.33,0.003 0.662,-0.004 0.992,-0.004 0.235,-10e-4 0.465,-0.009 0.698,-0.034 0.331,-0.034 0.68,-0.183 1.011,-0.113 0.174,0.037 0.354,0.056 0.532,0.043 0.238,-0.017 0.483,-0.046 0.72,-0.076 0.173,-0.021 0.306,-0.079 0.46,-0.156 0.099,-0.049 0.169,-0.051 0.269,-0.086 0.224,-0.076 0.446,-0.185 0.658,-0.29 0.306,-0.152 0.628,-0.271 0.933,-0.422 0.205,-0.102 0.418,-0.208 0.617,-0.32 0.217,-0.121 0.47,-0.141 0.686,-0.269 0.2,-0.118 0.388,-0.249 0.589,-0.366 0.283,-0.164 0.545,-0.363 0.815,-0.546 0.166,-0.112 0.355,-0.189 0.518,-0.302 0.176,-0.121 0.334,-0.256 0.523,-0.359 0.228,-0.124 0.423,-0.274 0.639,-0.417 0.375,-0.247 0.748,-0.491 1.115,-0.751 0.371,-0.262 0.747,-0.537 1.103,-0.82 0.223,-0.178 0.477,-0.292 0.702,-0.462 0.204,-0.154 0.39,-0.323 0.608,-0.458 0.203,-0.125 0.422,-0.302 0.583,-0.48 0.316,-0.349 0.614,-0.721 0.884,-1.11 0.165,-0.237 0.336,-0.53 0.419,-0.808 C 15.939,8.248 15.947,7.846 15.978,7.484 16.019,7.018 15.979,6.542 15.99,6.074 15.998,5.701 15.954,5.355 15.872,4.993 15.771,4.547 15.796,4.096 15.654,3.657 15.593,3.471 15.556,3.273 15.511,3.084 15.442,2.796 15.392,2.499 15.362,2.204 15.308,1.687 15.252,1.17 15.196,0.654 15.175,0.465 15.145,0.294 15.1,0.11 15.047,-0.106 15.02,-0.367 14.886,-0.55 14.754,-0.73 14.717,-0.911 14.664,-1.13 14.622,-1.306 14.639,-1.502 14.501,-1.639 14.467,-1.672 14.419,-1.692 14.386,-1.726 14.335,-1.778 14.313,-1.856 14.259,-1.902 14.167,-1.982 14.087,-1.989 14.01,-2.09 13.946,-2.174 13.893,-2.266 13.822,-2.343 13.741,-2.431 13.64,-2.473 13.558,-2.553 13.466,-2.644 13.39,-2.766 13.3,-2.864 c -0.177,-0.19 -0.31,-0.414 -0.41,-0.653 -0.049,-0.114 -0.088,-0.23 -0.121,-0.35 -0.046,-0.166 -0.134,-0.196 -0.298,-0.285 -0.057,-0.031 -0.117,-0.053 -0.173,-0.085 -0.065,-0.036 -0.126,-0.077 -0.203,-0.08 -0.198,-0.009 -0.167,0.277 -0.19,0.401 -0.03,0.157 -0.085,0.302 -0.131,0.454 -0.042,0.139 -0.078,0.259 -0.151,0.384 0.003,-0.006 -0.049,0.1 -0.068,0.107 -0.022,0.009 -0.1,-0.034 -0.113,-0.04 C 11.38,-3.036 11.31,-3.054 11.251,-3.085 11.186,-3.118 11.143,-3.182 11.078,-3.214 11.012,-3.247 10.938,-3.25 10.869,-3.288 10.701,-3.383 10.515,-3.442 10.324,-3.469 10.147,-3.495 9.969,-3.493 9.79,-3.484 9.697,-3.479 9.61,-3.495 9.517,-3.496 9.391,-3.497 9.258,-3.484 9.132,-3.477 9.01,-3.47 8.89,-3.454 8.768,-3.441 8.551,-3.42 8.336,-3.426 8.119,-3.415 7.804,-3.399 7.493,-3.293 7.176,-3.307 7.052,-3.313 6.929,-3.324 6.805,-3.325 6.555,-3.327 6.308,-3.293 6.059,-3.266 5.724,-3.23 5.383,-3.214 5.052,-3.147 4.744,-3.086 4.447,-2.981 4.14,-2.917 3.886,-2.864 3.629,-2.826 3.376,-2.771 3.096,-2.712 2.822,-2.645 2.539,-2.6 2.148,-2.539 1.756,-2.468 1.362,-2.427 1.229,-2.413 1.126,-2.388 1.01,-2.32 c -0.17,0.1 -0.341,0.207 -0.506,0.316 -0.192,0.125 -0.389,0.253 -0.529,0.439 -0.059,0.078 -0.119,0.18 -0.163,0.27 -0.038,0.08 -0.058,0.16 0.03,0.219 0.126,0.084 0.377,-0.031 0.49,-0.066 0.099,-0.034 0.198,-0.067 0.297,-0.1 0.256,-0.078 0.516,-0.135 0.78,-0.172 0.434,-0.079 0.832,-0.194 1.251,-0.331 0.815,-0.267 1.63,-0.538 2.485,-0.636 0.122,-0.013 0.244,-0.026 0.366,-0.039 0.185,-0.031 0.372,-0.045 0.56,-0.042 0.188,0.014 0.376,0.057 0.562,0.084 0.257,0.038 0.515,0.046 0.772,0.074 0.219,0.024 0.433,0.062 0.653,0.072 0.227,0.011 0.435,0.037 0.658,0.072 0.196,0.03 0.391,0.038 0.588,0.053 0.333,0.026 0.665,0.083 0.996,0.128 0.136,0.018 0.271,0.008 0.406,0.026 0.093,0.012 0.186,0.034 0.279,0.052 0.111,0.022 0.24,0.024 0.346,0.065 0.138,0.053 0.26,0.18 0.385,0.261 0.052,0.033 0.102,0.067 0.146,0.11 0.103,0.102 0.179,0.234 0.251,0.358 0.12,0.209 0.162,0.42 0.245,0.641 0.098,0.261 0.238,0.482 0.286,0.761 0.034,0.191 0.063,0.404 0.119,0.59 0.068,0.227 0.251,0.414 0.342,0.636 0.159,0.389 0.311,0.806 0.356,1.225 0.024,0.227 -0.002,0.45 0.017,0.676 0.013,0.141 0.032,0.282 0.047,0.423 0.041,0.381 0.079,0.762 0.122,1.143 0.032,0.282 0.029,0.565 0.043,0.848 0.023,0.442 -0.088,0.808 -0.233,1.22 -0.167,0.478 -0.46,0.922 -0.697,1.371 -0.25,0.473 -0.503,0.931 -0.865,1.327 -0.302,0.33 -0.621,0.657 -0.964,0.945 -0.225,0.189 -0.498,0.306 -0.712,0.515 -0.235,0.231 -0.504,0.419 -0.772,0.61 C 9.179,12.016 8.974,12.275 8.716,12.48 8.506,12.647 8.267,12.778 8.052,12.941 7.84,13.103 7.613,13.243 7.402,13.405 7.198,13.561 6.949,13.733 6.705,13.819 6.54,13.878 6.386,13.966 6.22,14.02 6.002,14.091 5.803,14.149 5.595,14.251 5.407,14.343 5.202,14.39 5.012,14.482 4.883,14.543 4.768,14.611 4.636,14.664 4.473,14.729 4.363,14.853 4.191,14.912 3.969,14.989 3.76,15.09 3.535,15.16 3.34,15.22 3.137,15.306 2.936,15.339 c -0.157,0.027 -0.29,0.038 -0.441,0.084 -0.146,0.044 -0.301,0.038 -0.451,0.058 -0.111,0.016 -0.193,0.067 -0.301,0.085 -0.314,0.052 -0.626,0.074 -0.939,0.132 -0.215,0.043 -0.432,0.074 -0.651,0.093 -0.28,-0.004 -0.513,-0.12 -0.754,-0.249 -0.238,-0.127 -0.45,-0.254 -0.632,-0.462 -0.214,-0.246 -0.361,-0.548 -0.448,-0.861 -0.176,-0.636 -0.078,-1.254 0.137,-1.864 0.089,-0.251 0.202,-0.494 0.261,-0.754 0.025,-0.176 0.059,-0.35 0.102,-0.522 0.06,-0.18 0.128,-0.357 0.205,-0.532 0.133,-0.314 0.317,-0.598 0.479,-0.898 C -0.423,9.512 -0.333,9.36 -0.224,9.248 -0.128,9.148 -0.062,9.128 0.075,9.14 0.317,9.162 0.501,9.275 0.711,9.386 0.83,9.45 0.997,9.544 1.145,9.551 1.33,9.56 1.482,9.37 1.569,9.233 1.621,9.172 1.646,9.102 1.644,9.024 1.61,8.928 1.564,8.838 1.507,8.753 1.475,8.684 1.442,8.615 1.41,8.545 1.358,8.429 1.325,8.307 1.31,8.181 1.314,8.114 1.33,8.085 1.385,8.044 1.504,7.954 1.654,7.9 1.789,7.842 2.021,7.744 2.244,7.632 2.47,7.521 2.735,7.39 2.995,7.249 3.264,7.124 3.455,7.036 3.643,6.953 3.829,6.852 4.118,6.695 4.405,6.529 4.692,6.369 5.089,6.149 5.454,5.88 5.853,5.663 6.235,5.454 6.627,5.275 7.017,5.083 7.235,4.975 7.421,4.844 7.619,4.704 7.809,4.57 8.017,4.466 8.206,4.331 8.328,4.244 8.441,4.15 8.571,4.074 8.664,4.019 8.739,3.958 8.817,3.883 9.093,3.62 9.399,3.365 9.736,3.183 9.858,3.118 9.957,3.045 10.054,2.946 10.126,2.873 10.196,2.803 10.277,2.74 10.38,2.662 10.438,2.567 10.52,2.469 10.584,2.391 10.659,2.329 10.716,2.247 10.753,2.194 10.788,2.143 10.832,2.097 10.867,2.061 10.906,2.035 10.931,1.99 10.965,1.93 10.974,1.856 11.003,1.793 11.055,1.68 11.112,1.593 11.131,1.465 11.151,1.335 11.165,1.176 11.129,1.049 11.099,0.944 11.03,0.903 10.95,0.838 10.817,0.733 10.698,0.618 10.531,0.567 10.435,0.537 10.326,0.528 10.227,0.506 10.031,0.462 9.865,0.409 9.662,0.408 9.419,0.406 9.17,0.434 8.928,0.45 8.657,0.469 8.385,0.489 8.122,0.56 8.005,0.592 7.901,0.624 7.777,0.635 7.595,0.65 7.407,0.646 7.224,0.648 6.447,0.66 5.705,0.942 4.965,1.154 4.425,1.309 3.883,1.462 3.32,1.334 3.071,1.277 2.821,1.201 2.593,1.084 2.471,1.009 2.345,0.942 2.214,0.882 2.127,0.849 2.04,0.815 1.954,0.779 1.828,0.729 1.708,0.666 1.579,0.625 1.426,0.578 1.294,0.542 1.152,0.467 0.997,0.385 0.842,0.3 0.684,0.226 0.592,0.182 0.528,0.169 0.435,0.144 0.38,0.129 0.332,0.105 0.279,0.087 0.236,0.072 0.19,0.073 0.149,0.054 0.089,0.027 0.054,-0.009 -0.017,-0.011 c -0.02,0.003 -0.041,0.005 -0.062,0.007 -0.1,-0.084 -0.161,-0.194 -0.182,-0.329"
             style="fill:#000000;fill-opacity:1;fill-rule:nonzero;stroke:none"
             id="path1737" />
        </g>
      </g>
    </g>
  </g>
</svg>
