<svg width="28" height="24" viewBox="0 0 28 24" fill="#000000" xmlns="http://www.w3.org/2000/svg">
  <path d="M9.29327 19.0929C9.29105 19.0995 9.28883 19.1062 9.28661 19.1128C9.23666 19.1106 9.19892 19.1395 9.16229 19.1717C9.00579 19.3038 8.90923 19.5402 8.81488 19.7167C8.70611 19.9176 8.62064 20.1284 8.52186 20.3338C8.42085 20.5424 8.3143 20.7478 8.2244 20.962C8.03238 21.4137 7.77931 21.8389 7.58507 22.2906C7.50849 22.4693 7.36197 22.6058 7.25986 22.7701C7.1866 22.8866 7.10447 22.9832 6.99125 23.062C6.91245 23.1175 6.84474 23.1697 6.75484 23.203C6.58613 23.2651 6.47291 23.3772 6.33417 23.486C6.19987 23.5926 6.02783 23.6481 5.86911 23.7113C5.75589 23.7568 5.6449 23.8034 5.52836 23.8401C5.41736 23.8734 5.31192 23.9366 5.19427 23.9389C5.12545 23.94 5.07106 23.8945 5.00336 23.8989C4.9634 23.9011 4.92455 23.9222 4.88681 23.9344C4.83021 23.9522 4.77138 23.9577 4.71144 23.9655C4.64818 23.9744 4.54828 24.0221 4.48724 23.9877C4.47503 23.93 4.52053 23.8956 4.54828 23.8501C4.64818 23.6869 4.72143 23.5004 4.78248 23.3195C4.9856 22.7279 4.95785 22.103 5.02777 21.4903C5.04886 21.3028 5.06995 21.1418 5.12767 20.9609C5.20204 20.7334 5.24421 20.5069 5.33856 20.2861C5.41403 20.1074 5.48618 19.9198 5.54279 19.7344C5.58052 19.6145 5.58718 19.5013 5.60272 19.3792C5.61715 19.2749 5.64934 19.1872 5.68708 19.0884C5.71372 19.0174 5.72593 18.953 5.7337 18.8787C5.73925 18.8287 5.73481 18.7854 5.75811 18.7399C5.79474 18.6678 5.84136 18.5989 5.87799 18.5279C5.89353 18.4968 5.90796 18.4658 5.91905 18.4325C5.93237 18.3947 5.92904 18.3459 5.94347 18.3115C5.9579 18.2771 5.98676 18.2493 6.00452 18.216C6.01229 18.2027 6.00341 18.1849 6.01451 18.1716C6.0245 18.1572 6.04781 18.155 6.0578 18.1405C6.07778 18.1128 6.07112 18.0562 6.07556 18.024C6.0911 17.8775 6.06779 17.7021 5.99897 17.57C5.95346 17.4801 5.92017 17.358 5.85579 17.2826C5.83026 17.2526 5.79252 17.2315 5.76144 17.2082C5.69707 17.156 5.66155 17.0972 5.6227 17.0262C5.52281 16.8452 5.23422 16.7365 5.03554 16.772C4.92455 16.792 4.81911 16.8464 4.71255 16.8819C4.57492 16.9263 4.44284 16.9573 4.31298 17.0228C4.16313 17.0983 3.6126 17.4357 3.52159 17.0917C3.5005 17.014 3.55489 16.9696 3.58264 16.9074C3.61371 16.8375 3.62148 16.7687 3.66366 16.701C3.69696 16.6477 3.73803 16.5988 3.77466 16.5489C3.91784 16.3458 4.04881 16.1382 4.16646 15.9207C4.20864 15.8419 4.26636 15.7753 4.29633 15.6898C4.33628 15.5777 4.33628 15.4301 4.41287 15.3357C4.44284 15.2991 4.48613 15.2802 4.51831 15.2469C4.5616 15.2036 4.59046 15.1481 4.606 15.0893C4.62931 15.0061 4.63375 14.8995 4.64041 14.8141C4.65151 14.6842 4.60822 14.5843 4.55383 14.47C4.50943 14.3767 4.47281 14.2791 4.42841 14.1858C4.36736 14.0582 4.32186 13.9039 4.23084 13.7929C4.18977 13.7419 4.13872 13.7108 4.08544 13.6753C4.02661 13.6397 3.97111 13.6009 3.91895 13.5565C3.87899 13.5177 3.83459 13.4821 3.78797 13.4511C3.67365 13.3956 3.54046 13.4322 3.42725 13.4655C3.24078 13.5199 3.07317 13.582 2.90224 13.6764C2.85563 13.7019 2.80124 13.7507 2.74574 13.7585C2.64252 13.7718 2.53708 13.6586 2.48602 13.5909C2.41942 13.5043 2.35616 13.3978 2.36503 13.2857C2.37502 13.1824 2.42164 13.0792 2.45827 12.9838C2.54151 12.7718 2.65251 12.5809 2.74574 12.3733C2.83565 12.1724 2.86673 11.9449 2.88893 11.7284C2.8978 11.6474 2.93776 11.5264 2.91556 11.4498C2.82455 11.4387 2.78903 11.3178 2.71466 11.2711C2.66028 11.2389 2.60256 11.2389 2.54262 11.2245C2.50267 11.2145 2.44717 11.189 2.40277 11.1857C2.32286 11.1812 2.2274 11.2245 2.14971 11.2389C2.06646 11.2545 2.01096 11.2845 1.93216 11.3111C1.86667 11.3333 1.80452 11.3289 1.73903 11.3388C1.68797 11.3455 1.65023 11.3588 1.59807 11.3566C1.51038 11.3522 1.35721 11.3644 1.30726 11.2767C1.25843 11.1901 1.32169 11.128 1.35166 11.0503C1.42381 10.8649 1.45378 10.7028 1.45711 10.5142C1.45933 10.4165 1.49151 10.3421 1.53813 10.2555C1.61472 10.1124 1.77455 9.91479 1.66688 9.7483C1.60806 9.65729 1.40827 9.64064 1.31392 9.64064C1.19516 9.64286 0.970953 9.68504 0.881048 9.60179C0.67127 9.40866 0.867728 9.03572 0.731206 8.8093C0.646851 8.66944 0.556946 8.69719 0.398225 8.69719C0.276132 8.6983 0.106311 8.73937 0.0630239 8.58953C0.0275059 8.46743 0.0652436 8.27098 0.0652436 8.14222C0.0652436 8.06897 0.0652436 7.9946 0.0652436 7.92024C0.0652436 7.88805 0.0707937 7.84143 0.066354 7.80813C0.0585844 7.74487 0.0330559 7.73266 0.0219565 7.68604C0.00974719 7.63276 -0.0113422 7.53065 0.00752677 7.47404C0.0263957 7.4141 0.0730137 7.40079 0.108532 7.35306C0.199547 7.23097 0.188447 7.14994 0.370477 7.14328C0.508109 7.13773 0.647961 7.14328 0.786703 7.14328C0.927665 7.14328 1.1441 7.18546 1.27397 7.13218C1.39051 7.08556 1.50261 6.97568 1.62249 6.9224C1.7579 6.86136 1.80119 6.87578 1.88998 7.0112C1.93105 7.07335 1.9255 7.14106 1.95103 7.201C1.98544 7.2798 2.03871 7.33419 2.06424 7.42298C2.10198 7.54952 2.1486 7.68049 2.28401 7.69936C2.43607 7.72156 2.54706 7.60834 2.68359 7.56506C2.819 7.52066 2.93221 7.59502 3.06763 7.57838C3.17196 7.56506 3.24522 7.49957 3.32402 7.4363C3.43279 7.3464 3.51382 7.29756 3.66699 7.29534C4.04548 7.2909 3.96224 7.59502 4.12318 7.83144C4.16979 7.90026 4.2486 7.94798 4.29855 8.0168C4.36958 8.11448 4.37069 8.1622 4.49167 8.21215C4.71366 8.30427 4.9301 8.24656 5.11213 8.07896C5.24865 7.95464 5.30415 7.77594 5.39294 7.62055C5.47841 7.46738 5.62936 7.34418 5.76921 7.23984C5.85024 7.1788 5.96567 7.03451 6.08222 7.09C6.19987 7.1455 6.1699 7.34196 6.1699 7.44851C6.1699 7.51733 6.15214 7.60723 6.16768 7.67272C6.18322 7.73488 6.21208 7.77372 6.22651 7.83588C6.25981 7.97573 6.24538 8.06564 6.38967 8.14222C6.80368 8.3631 6.8059 7.79592 6.82254 7.52732C6.83031 7.4019 6.81256 7.28868 6.77593 7.16992C6.68602 6.87024 6.63829 6.55057 6.53285 6.25977C6.48845 6.13657 6.43629 6.02224 6.40299 5.89571C6.35415 5.70813 6.33861 5.51278 6.3042 5.32298C6.27313 5.14761 6.24871 4.96891 6.20653 4.79576C6.14992 4.56157 6.08 4.34846 6.07112 4.10649C6.06002 3.80681 6.07001 3.50268 6.00563 3.20855C5.96567 3.03096 5.94014 2.87779 5.95568 2.69465C5.97122 2.50707 5.99564 2.31727 6.01562 2.12969C6.03338 1.96764 6.04781 1.81336 6.10552 1.65908C6.18211 1.45374 6.31308 1.28836 6.45183 1.12298C6.5828 0.967585 6.70156 0.791105 6.84696 0.649033C7.04897 0.453684 7.28206 0.36822 7.544 0.284974C8.03238 0.130693 8.5152 0.00526935 9.0291 0.000829599C9.39538 -0.00250021 9.76388 0.00526903 10.1302 0.00526903C10.391 0.00637897 10.6463 0.0152589 10.9049 0.0430073C11.2723 0.0807452 11.6597 0.246127 12.027 0.168431C12.2202 0.127364 12.42 0.106273 12.6175 0.120703C12.8817 0.139572 13.1536 0.17176 13.4167 0.205058C13.6087 0.228367 13.7563 0.292743 13.9273 0.378209C14.0371 0.432596 14.1148 0.434816 14.2258 0.473664C14.4745 0.558019 14.7209 0.679001 14.9562 0.795545C15.2958 0.964255 15.6532 1.09634 15.9917 1.26394C16.2193 1.37715 16.4557 1.49481 16.6766 1.61912C16.9174 1.75342 17.1982 1.77562 17.438 1.91769C17.66 2.04867 17.8686 2.19407 18.0917 2.32393C18.4059 2.50596 18.6967 2.72684 18.9963 2.92996C19.1806 3.05427 19.3904 3.13973 19.5713 3.26516C19.7666 3.39946 19.942 3.5493 20.1518 3.66363C20.4049 3.80126 20.6213 3.96775 20.861 4.12647C21.2773 4.40062 21.6913 4.67145 22.0986 4.96003C22.5104 5.25084 22.9277 5.55607 23.3229 5.87018C23.5704 6.06775 23.8523 6.19428 24.1021 6.38297C24.3285 6.5539 24.5349 6.74148 24.7769 6.89132C25.0022 7.03007 25.2453 7.22653 25.424 7.42409C25.7747 7.81146 26.1055 8.22436 26.4052 8.65613C26.5883 8.91918 26.7781 9.24439 26.8702 9.55295C26.9846 9.9381 26.9934 10.3843 27.0278 10.7861C27.0734 11.3033 27.029 11.8317 27.0412 12.3511C27.05 12.7651 27.0012 13.1492 26.9102 13.551C26.7981 14.046 26.8258 14.5466 26.6682 15.0338C26.6005 15.2403 26.5595 15.46 26.5095 15.6698C26.4329 15.9895 26.3774 16.3191 26.3441 16.6466C26.2842 17.2204 26.222 17.7942 26.1599 18.367C26.1366 18.5767 26.1033 18.7665 26.0533 18.9708C25.9945 19.2105 25.9645 19.5002 25.8158 19.7033C25.6693 19.9031 25.6282 20.104 25.5694 20.3471C25.5228 20.5424 25.5416 20.76 25.3885 20.9121C25.3507 20.9487 25.2975 20.9709 25.2608 21.0086C25.2042 21.0663 25.1798 21.1529 25.1199 21.204C25.0178 21.2928 24.929 21.3005 24.8435 21.4126C24.7725 21.5059 24.7136 21.608 24.6348 21.6935C24.5449 21.7911 24.4328 21.8377 24.3418 21.9265C24.2397 22.0275 24.1553 22.163 24.0554 22.2717C23.859 22.4826 23.7114 22.7312 23.6004 22.9965C23.546 23.1231 23.5027 23.2518 23.4661 23.385C23.415 23.5692 23.3173 23.6025 23.1353 23.7013C23.072 23.7357 23.0054 23.7602 22.9433 23.7957C22.8711 23.8356 22.8034 23.8811 22.718 23.8845C22.4982 23.8945 22.5326 23.577 22.5071 23.4394C22.4738 23.2651 22.4127 23.1042 22.3617 22.9355C22.3151 22.7812 22.2751 22.648 22.1941 22.5093C22.1974 22.5159 22.1397 22.3983 22.1186 22.3905C22.0942 22.3805 22.0076 22.4282 21.9932 22.4349C21.9244 22.4626 21.8467 22.4826 21.7812 22.517C21.709 22.5537 21.6613 22.6247 21.5892 22.6602C21.5159 22.6968 21.4338 22.7002 21.3572 22.7423C21.1707 22.8478 20.9643 22.9133 20.7523 22.9432C20.5558 22.9721 20.3582 22.9699 20.1596 22.9599C20.0563 22.9543 19.9598 22.9721 19.8565 22.9732C19.7167 22.9743 19.5691 22.9599 19.4292 22.9521C19.2938 22.9444 19.1606 22.9266 19.0252 22.9122C18.7843 22.8889 18.5457 22.8955 18.3048 22.8833C17.9552 22.8655 17.61 22.7479 17.2582 22.7634C17.1205 22.7701 16.984 22.7823 16.8464 22.7834C16.5689 22.7856 16.2948 22.7479 16.0184 22.7179C15.6465 22.678 15.2681 22.6602 14.9007 22.5858C14.5588 22.5181 14.2292 22.4016 13.8884 22.3306C13.6065 22.2717 13.3212 22.2296 13.0404 22.1685C12.7296 22.103 12.4255 22.0287 12.1114 21.9787C11.6774 21.911 11.2423 21.8322 10.805 21.7867C10.6574 21.7711 10.5431 21.7434 10.4143 21.6679C10.2256 21.5569 10.0358 21.4382 9.85267 21.3172C9.63957 21.1784 9.42091 21.0364 9.26552 20.8299C9.20003 20.7433 9.13343 20.6301 9.0846 20.5302C9.04242 20.4414 9.02022 20.3526 9.1179 20.2872C9.25775 20.1939 9.53634 20.3216 9.66177 20.3604C9.77165 20.3982 9.88153 20.4348 9.99142 20.4714C10.2756 20.558 10.5641 20.6213 10.8572 20.6623C11.3389 20.75 11.7806 20.8776 12.2457 21.0297C13.1503 21.3261 14.0549 21.6269 15.0039 21.7356C15.1393 21.7501 15.2747 21.7645 15.4101 21.7789C15.6155 21.8133 15.823 21.8289 16.0317 21.8255C16.2404 21.81 16.449 21.7623 16.6555 21.7323C16.9407 21.6901 17.2271 21.6812 17.5124 21.6502C17.7554 21.6235 17.993 21.5813 18.2371 21.5702C18.4891 21.558 18.72 21.5292 18.9675 21.4903C19.185 21.457 19.4015 21.4482 19.6201 21.4315C19.9897 21.4026 20.3582 21.3394 20.7256 21.2894C20.8766 21.2695 21.0264 21.2806 21.1763 21.2606C21.2795 21.2473 21.3827 21.2228 21.4859 21.2029C21.6091 21.1784 21.7523 21.1762 21.87 21.1307C22.0231 21.0719 22.1586 20.9309 22.2973 20.841C22.355 20.8044 22.4105 20.7667 22.4593 20.7189C22.5737 20.6057 22.658 20.4592 22.7379 20.3216C22.8711 20.0896 22.9178 19.8554 23.0099 19.6101C23.1187 19.3204 23.274 19.0751 23.3273 18.7654C23.3651 18.5534 23.3972 18.317 23.4594 18.1106C23.5349 17.8586 23.738 17.6511 23.839 17.4047C24.0155 16.9729 24.1842 16.51 24.2341 16.045C24.2608 15.793 24.2319 15.5455 24.253 15.2947C24.2674 15.1382 24.2885 14.9817 24.3052 14.8252C24.3507 14.4023 24.3929 13.9794 24.4406 13.5565C24.4761 13.2435 24.4728 12.9294 24.4883 12.6153C24.5138 12.1247 24.3906 11.7184 24.2297 11.2611C24.0443 10.7306 23.7191 10.2378 23.4561 9.73942C23.1786 9.21442 22.8978 8.70607 22.496 8.26654C22.1608 7.90026 21.8067 7.53731 21.426 7.21765C21.1763 7.00787 20.8732 6.87801 20.6357 6.64603C20.3749 6.38963 20.0763 6.18096 19.7788 5.96897C19.4814 5.75586 19.2538 5.46838 18.9675 5.24085C18.7344 5.05549 18.4691 4.91008 18.2305 4.72916C17.9952 4.54935 17.7432 4.39396 17.509 4.21415C17.2826 4.041 17.0062 3.85009 16.7354 3.75464C16.5523 3.68915 16.3813 3.59148 16.1971 3.53154C15.9551 3.45274 15.7342 3.38836 15.5034 3.27515C15.2947 3.17303 15.0672 3.12086 14.8563 3.01875C14.7131 2.95104 14.5854 2.87557 14.4389 2.81674C14.258 2.7446 14.1359 2.60696 13.945 2.54148C13.6986 2.45601 13.4666 2.34391 13.2169 2.26621C13.0005 2.19962 12.7751 2.10416 12.552 2.06754C12.3778 2.03757 12.2302 2.02536 12.0626 1.9743C11.9005 1.92546 11.7285 1.93212 11.562 1.90992C11.4388 1.89216 11.3478 1.83556 11.2279 1.81558C10.8794 1.75786 10.5331 1.73344 10.1857 1.66907C9.94702 1.62134 9.70616 1.58693 9.46309 1.56584C9.1523 1.57028 8.89369 1.69903 8.62619 1.84222C8.36203 1.98318 8.12672 2.12414 7.92471 2.35501C7.68719 2.62805 7.52402 2.96325 7.42746 3.31066C7.23211 4.01658 7.34089 4.70253 7.57952 5.37959C7.67831 5.65818 7.80373 5.9279 7.86922 6.21648C7.89696 6.41183 7.9347 6.60496 7.98243 6.79587C8.04903 6.99566 8.1245 7.19212 8.20997 7.38636C8.35759 7.73488 8.56182 8.0501 8.74163 8.38308C8.82376 8.53514 8.92366 8.70385 9.04464 8.82817C9.15119 8.93916 9.22445 8.96136 9.37651 8.94804C9.64512 8.92362 9.84934 8.7982 10.0824 8.67499C10.2145 8.60396 10.3999 8.49962 10.5641 8.49185C10.7695 8.48187 10.9382 8.69275 11.0348 8.84481C11.0925 8.91252 11.1202 8.99022 11.118 9.07679C11.0803 9.18334 11.0292 9.28324 10.9659 9.37758C10.9304 9.45417 10.8938 9.53076 10.8583 9.60845C10.8006 9.7372 10.7639 9.87262 10.7473 10.0125C10.7517 10.0868 10.7695 10.119 10.8305 10.1645C10.9626 10.2644 11.1291 10.3244 11.2789 10.3887C11.5364 10.4975 11.784 10.6218 12.0348 10.745C12.3289 10.8904 12.6175 11.0469 12.9161 11.1857C13.1281 11.2833 13.3368 11.3755 13.5432 11.4876C13.864 11.6618 14.1825 11.8461 14.5011 12.0237C14.9417 12.2679 15.3469 12.5664 15.7897 12.8073C16.2137 13.0393 16.6488 13.2379 17.0817 13.4511C17.3237 13.5709 17.5301 13.7163 17.7499 13.8717C17.9608 14.0205 18.1916 14.1359 18.4014 14.2857C18.5368 14.3823 18.6622 14.4866 18.8065 14.571C18.9098 14.632 18.993 14.6997 19.0796 14.783C19.3859 15.0749 19.7256 15.3579 20.0996 15.5599C20.235 15.6321 20.3449 15.7131 20.4526 15.823C20.5325 15.904 20.6102 15.9817 20.7001 16.0516C20.8144 16.1382 20.8788 16.2437 20.9698 16.3524C21.0408 16.439 21.1241 16.5078 21.1874 16.5988C21.2284 16.6577 21.2673 16.7143 21.3161 16.7653C21.355 16.8053 21.3982 16.8341 21.426 16.8841C21.4637 16.9507 21.4737 17.0328 21.5059 17.1028C21.5636 17.2282 21.6269 17.3247 21.648 17.4668C21.6702 17.6111 21.6857 17.7876 21.6458 17.9285C21.6125 18.0451 21.5359 18.0906 21.4471 18.1627C21.2995 18.2793 21.1674 18.4069 20.982 18.4635C20.8755 18.4968 20.7545 18.5068 20.6446 18.5312C20.4271 18.5801 20.2428 18.6389 20.0175 18.64C19.7478 18.6422 19.4714 18.6112 19.2028 18.5934C18.902 18.5723 18.6001 18.5501 18.3082 18.4713C18.1783 18.4358 18.0629 18.4003 17.9253 18.3881C17.7232 18.3714 17.5146 18.3758 17.3115 18.3736C16.449 18.3603 15.6255 18.0473 14.8041 17.812C14.2047 17.64 13.6032 17.4701 12.9783 17.6122C12.7019 17.6755 12.4244 17.7598 12.1713 17.8897C12.0359 17.9729 11.8961 18.0473 11.7507 18.1139C11.6541 18.1505 11.5575 18.1883 11.4621 18.2282C11.3222 18.2837 11.189 18.3536 11.0459 18.3992C10.876 18.4513 10.7295 18.4913 10.5719 18.5745C10.3999 18.6655 10.2278 18.7599 10.0525 18.842C9.95035 18.8909 9.87931 18.9053 9.77609 18.933C9.71504 18.9497 9.66176 18.9763 9.60294 18.9963C9.55521 19.013 9.50415 19.0118 9.45865 19.0329C9.39205 19.0629 9.3532 19.1029 9.2744 19.1051C9.2522 19.1017 9.22889 19.0995 9.20558 19.0973C9.09459 19.1905 9.02688 19.3126 9.00357 19.4625"/>
</svg>
