<svg width="17" height="24" viewBox="0 0 17 24" fill="#000000" xmlns="http://www.w3.org/2000/svg">
  <path d="M10.4653 6.3489C10.3339 6.45824 10.2006 6.56662 10.0596 6.6635C9.99626 6.70666 9.92912 6.74119 9.86006 6.77476C9.78237 6.81216 9.71139 6.86684 9.6337 6.90136C9.57903 6.9263 9.53012 6.93014 9.47161 6.94069C9.40447 6.9522 9.36994 6.97522 9.31527 7.01167C9.23182 7.06921 9.14838 7.12389 9.06781 7.18527C9.02369 7.21884 8.98916 7.25049 8.93449 7.26584C8.89325 7.27831 8.85009 7.2831 8.80884 7.29653C8.75897 7.31475 8.51151 7.44616 8.50383 7.16225C8.50288 7.21596 8.4319 7.16417 8.41655 7.1517C8.37915 7.11909 8.34654 7.07305 8.31105 7.03756C8.22952 6.95891 8.14032 6.88506 8.054 6.81216C7.91108 6.69035 7.79023 6.58101 7.68473 6.42467C7.59553 6.29327 7.51208 6.16282 7.40754 6.04293C7.21858 5.82521 7.08622 5.57775 6.99702 5.30343C6.95578 5.17779 6.88768 5.05693 6.81383 4.94663C6.77258 4.88429 6.73614 4.81715 6.69202 4.75672C6.63063 4.67424 6.55869 4.60134 6.50498 4.5131C6.36591 4.28866 6.23355 4.05847 6.24122 3.78607C6.24314 3.71318 6.25177 3.64412 6.26328 3.57218C6.27767 3.48106 6.28918 3.36692 6.3333 3.28348C6.35344 3.24415 6.38797 3.20771 6.41291 3.17318C6.47717 3.08494 6.53184 2.9919 6.59035 2.90078C6.71887 2.6984 6.88384 2.52192 7.04594 2.3464C7.13322 2.25144 7.18501 2.13251 7.27421 2.03947C7.38548 1.92342 7.49769 1.80256 7.63581 1.71816C7.77489 1.63376 7.93027 1.60498 8.08469 1.5647C8.20266 1.53305 8.30433 1.5177 8.4271 1.52058C8.56522 1.52345 8.69566 1.56278 8.83378 1.56566C8.90763 1.56758 8.97381 1.55894 9.04575 1.57812C9.14646 1.60498 9.24621 1.63472 9.34596 1.66541C9.51093 1.71624 9.66631 1.8016 9.82745 1.86491C10.0327 1.94452 10.191 2.08935 10.3838 2.19198C10.5315 2.26967 10.682 2.33297 10.8154 2.43368C10.8863 2.48739 10.9669 2.5248 11.0398 2.57563C11.1242 2.63414 11.2009 2.7032 11.2786 2.7713C11.3755 2.8557 11.4283 2.96409 11.5079 3.06384C11.5952 3.17222 11.6278 3.31417 11.669 3.44462C11.7246 3.62206 11.7563 3.78895 11.7553 3.97406C11.7544 4.14287 11.7707 4.29538 11.692 4.45076C11.6297 4.57449 11.5491 4.68671 11.4964 4.81619C11.457 4.91114 11.4167 5.00226 11.3851 5.1001C11.341 5.23725 11.246 5.35043 11.1702 5.47032C11.082 5.6094 10.9813 5.74368 10.8739 5.86837C10.7338 6.03142 10.6322 6.21078 10.4653 6.3489ZM16.9376 9.54188C16.9069 9.3865 16.8455 9.23879 16.7841 9.093C16.717 8.93475 16.6748 8.77265 16.5932 8.61919C16.5462 8.53095 16.4964 8.44558 16.4676 8.34871C16.4561 8.30747 16.4484 8.27582 16.4283 8.24033C16.3947 8.18374 16.3659 8.13098 16.3429 8.06768C16.3266 8.0226 16.3266 7.96889 16.2767 7.95738C16.2144 7.94299 16.1386 7.96889 16.082 7.98807C16.0072 8.01205 15.9372 8.02835 15.871 8.07248C15.8192 8.107 15.7856 8.13194 15.7233 8.1329C15.5881 8.13482 15.449 8.17223 15.3185 8.21539C15.2389 8.24129 15.1708 8.29308 15.0951 8.32665C15.0174 8.36118 14.9406 8.3631 14.8629 8.39187C14.7766 8.42352 14.7076 8.47532 14.6155 8.4945C14.5272 8.51176 14.4515 8.53766 14.3671 8.56739C14.2884 8.59617 14.2088 8.60576 14.1282 8.6259C14.0515 8.64413 13.9786 8.6729 13.9028 8.69208C13.7973 8.71798 13.6899 8.73141 13.5844 8.75634C13.5019 8.77649 13.4319 8.7784 13.3475 8.77745C13.2075 8.77649 13.0674 8.77649 12.9284 8.77649C12.8679 8.77745 12.8027 8.78416 12.7442 8.77457C12.6003 8.75059 12.4574 8.694 12.3145 8.66331C12.1879 8.63549 12.0594 8.61247 11.9309 8.59425C11.6872 8.56068 11.4225 8.53958 11.176 8.56643C11.0743 8.57699 10.9765 8.61727 10.8768 8.62686C10.7617 8.63837 10.7367 8.57411 10.6715 8.50025C10.6456 8.47148 10.6053 8.4523 10.5948 8.41585C10.6216 8.41393 10.6542 8.39667 10.6792 8.38803C10.7367 8.36885 10.777 8.34104 10.8269 8.30459C10.9122 8.2432 10.9938 8.18086 11.0734 8.1118C11.129 8.06384 11.1904 8.04946 11.2499 8.01205C11.3966 7.92285 11.5386 7.81447 11.6671 7.70033C11.7822 7.59866 11.9126 7.47973 12.0037 7.35504C12.0661 7.26967 12.1495 7.20062 12.2234 7.12484C12.3088 7.03852 12.3778 6.94165 12.4459 6.84286C12.5505 6.69131 12.6598 6.54265 12.75 6.38151C12.8065 6.28176 12.8305 6.16762 12.8766 6.06307C12.9188 5.96812 12.9638 5.86837 13.0147 5.77725C13.0914 5.63913 13.1931 5.52212 13.2286 5.36482C13.2564 5.24301 13.2209 5.11832 13.2612 4.99939C13.2823 4.93608 13.3082 4.88813 13.3485 4.83633C13.4003 4.77015 13.3945 4.69246 13.4118 4.61285C13.4348 4.50255 13.4712 4.40472 13.476 4.29058C13.4818 4.18124 13.477 4.07189 13.477 3.96255C13.477 3.81868 13.4789 3.68152 13.4511 3.54053C13.4137 3.34295 13.2842 3.19236 13.1605 3.03986C12.9264 2.75211 12.7097 2.46341 12.3999 2.2524C12.2867 2.17471 12.1553 2.09606 12.0623 1.99535C11.9961 1.92534 11.9625 1.83038 11.9155 1.74789C11.8138 1.56662 11.6095 1.45248 11.4513 1.32491C11.3189 1.21653 11.1827 1.12157 11.0379 1.03046C10.8844 0.933582 10.7367 0.814649 10.5717 0.736958C10.2293 0.576782 9.87541 0.438665 9.52628 0.294793C9.40351 0.243959 9.27786 0.19792 9.15605 0.144208C9.03136 0.0904965 8.91914 0.0818635 8.78391 0.0789861C8.86639 0.145167 8.84913 0.148045 8.81268 0.130781C8.79829 0.124067 8.78582 0.10968 8.76952 0.103925C8.74266 0.0952924 8.71485 0.104884 8.68799 0.103925C8.64387 0.102006 8.59591 0.0818643 8.55563 0.0674772C8.45588 0.0300706 8.35133 -0.0169284 8.24295 0.00609106C8.16909 0.0214373 8.10387 0.0655586 8.03002 0.0847414C7.96672 0.101047 7.90917 0.131739 7.84395 0.145167C7.75091 0.163391 7.65979 0.163391 7.56483 0.16435C7.43055 0.16531 7.30107 0.202716 7.16679 0.204634C7.08047 0.206552 7.00086 0.206552 6.91933 0.235326C6.84931 0.260264 6.78601 0.293835 6.71983 0.326446C6.59514 0.386872 6.48196 0.447297 6.37262 0.531701C6.27479 0.606514 6.16641 0.662145 6.07145 0.739836C5.74342 1.00456 5.50747 1.3652 5.26481 1.70665C5.11423 1.91862 4.95213 2.13635 4.84279 2.37421C4.75839 2.55933 4.69125 2.76458 4.65 2.96408C4.60876 3.16263 4.65288 3.35062 4.66823 3.5482C4.68165 3.71318 4.66727 3.87527 4.64041 4.03832C4.60972 4.22152 4.59245 4.40951 4.54162 4.58887C4.4975 4.74233 4.44475 4.88908 4.43515 5.05022C4.42269 5.2315 4.45338 5.4099 4.48599 5.5883C4.5138 5.7408 4.55505 5.88467 4.63561 6.01799C4.75934 6.22229 4.88883 6.42083 5.05764 6.5906C5.19767 6.7316 5.32716 6.88506 5.47486 7.01934C5.69067 7.21788 5.94101 7.37806 6.17696 7.55166C6.43592 7.74349 6.70257 7.9334 6.95578 8.1329C6.98935 8.15976 7.12843 8.24608 7.10349 8.30459C7.08718 8.34391 6.97208 8.40146 6.93372 8.41489C6.85987 8.44175 6.77258 8.43407 6.69489 8.43407C6.59514 8.43311 6.49827 8.41777 6.39852 8.41297C6.27767 8.40722 6.15681 8.41873 6.03596 8.39858C5.84605 8.36693 5.66382 8.36693 5.47103 8.36789C5.29167 8.36885 5.11902 8.32953 4.93966 8.32185C4.65768 8.3113 4.37856 8.30363 4.09658 8.30363C3.94311 8.30363 3.78965 8.30843 3.63619 8.30459C3.52013 8.30171 3.40599 8.28349 3.2909 8.28061C3.03097 8.27486 2.76912 8.29308 2.5092 8.28061C2.26845 8.27006 2.01716 8.1751 1.80519 8.0648C1.64885 7.98328 1.50593 7.87777 1.34288 7.81063C1.17119 7.73965 0.98512 7.69553 0.808638 7.63703C0.755885 7.61976 0.659012 7.5718 0.599545 7.59003C0.57173 7.5977 0.552547 7.62647 0.535283 7.64662C0.481571 7.7128 0.453756 7.79624 0.428818 7.87585C0.383738 8.01493 0.328108 8.15017 0.283028 8.28924C0.250417 8.39091 0.237948 8.49738 0.210133 8.60001C0.176563 8.72373 0.157381 8.83883 0.137239 8.96448C0.118056 9.07766 0.0672216 9.16878 0.0221419 9.2714C-0.0248561 9.37883 0.0135087 9.49776 0.0403647 9.6071C0.0835261 9.7855 0.142993 9.93897 0.260008 10.0828C0.377983 10.2267 0.499794 10.3667 0.61585 10.5125C0.655175 10.5615 0.693541 10.6113 0.729989 10.6631C0.738621 10.6746 0.782741 10.7514 0.800965 10.759C0.873859 10.7888 1.01677 10.62 1.05993 10.5787C1.07144 10.5672 1.12228 10.5068 1.1453 10.4972C1.15585 10.4934 1.17407 10.5001 1.18558 10.4972C1.29396 10.4665 1.387 10.3783 1.48004 10.3121C1.53855 10.2699 1.59034 10.2133 1.65748 10.1816C1.76011 10.1337 1.88288 10.0934 1.9951 10.0761C2.15335 10.0502 2.32792 10.0637 2.48714 10.08C2.67609 10.1001 2.85832 10.1538 3.05015 10.1577C3.17388 10.1605 3.29953 10.1452 3.42422 10.1586C3.53932 10.1701 3.65441 10.1999 3.76951 10.22C3.88077 10.2392 3.9786 10.2603 4.08123 10.3054C4.16468 10.3418 4.24716 10.3648 4.33732 10.3792C4.4083 10.3917 4.48119 10.407 4.55409 10.4128C4.64233 10.4195 4.73057 10.4003 4.81977 10.3926C4.93295 10.383 4.98762 10.4253 5.08929 10.4665C5.17465 10.501 5.25426 10.502 5.34538 10.4895C5.50748 10.4684 5.67341 10.4713 5.83646 10.4559C5.94964 10.4454 6.03021 10.3936 6.13284 10.3504C6.19902 10.3226 6.26328 10.3255 6.3333 10.3274C6.51362 10.3322 6.68338 10.2622 6.8637 10.2871C6.98743 10.3044 7.0891 10.3418 7.21379 10.3102C7.30107 10.2871 7.35095 10.243 7.41233 10.1826C7.467 10.1279 7.52839 10.08 7.58114 10.0243C7.59936 10.0042 7.63485 9.94185 7.65979 9.93897C7.67897 10.0435 7.70679 10.1509 7.70775 10.2574C7.70871 10.3495 7.71542 10.3994 7.74515 10.4886C7.76338 10.5432 7.77489 10.5826 7.77489 10.6382C7.77489 10.7312 7.75474 10.8252 7.74515 10.9173C7.73268 11.0276 7.72885 11.1369 7.70775 11.2463C7.67226 11.4304 7.6454 11.6203 7.64157 11.8083C7.63581 12.0922 7.64348 12.3771 7.64061 12.662C7.63773 13.0591 7.71158 13.46 7.74419 13.8551C7.75187 13.9482 7.7864 14.0508 7.7816 14.1429C7.77681 14.2215 7.74995 14.2983 7.75091 14.3788C7.75283 14.5381 7.72405 14.6896 7.70967 14.8488C7.67705 15.2258 7.57347 15.5931 7.5351 15.971C7.51208 16.2002 7.47851 16.4266 7.45453 16.6558C7.41713 17.028 7.42384 17.4021 7.39411 17.7752C7.38068 17.9449 7.39411 18.1147 7.37205 18.2825C7.35095 18.4504 7.3356 18.6182 7.32505 18.7861C7.3145 18.9482 7.29915 19.1141 7.29723 19.2762C7.29532 19.4441 7.30395 19.61 7.2886 19.7778C7.27038 19.9783 7.25983 20.1778 7.25311 20.3792C7.24832 20.5365 7.21475 20.689 7.21091 20.8463C7.20132 21.2357 7.21187 21.6261 7.21187 22.0155C7.21187 22.3416 7.2253 22.6591 7.15816 22.9804C7.11692 23.1751 7.09773 23.3813 7.02676 23.5684C7.01045 23.6125 6.9318 23.7075 6.95194 23.764C6.96537 23.7995 7.00374 23.7842 7.04018 23.7832C7.21571 23.7813 7.39219 23.7842 7.56771 23.7832C7.67322 23.7823 7.77585 23.788 7.88039 23.8091C7.96576 23.8254 8.04441 23.8667 8.12497 23.8993C8.2065 23.9329 8.28995 23.9741 8.37915 23.9798C8.49904 23.9875 8.61701 23.9683 8.73691 23.9818C8.96614 24.0077 9.19538 23.9981 9.42557 23.999C9.68358 24.0009 9.93583 23.929 10.1929 23.9338C10.3205 23.9367 10.4327 23.9223 10.5564 23.8897C10.6437 23.8667 10.729 23.8686 10.8182 23.8695C10.9468 23.8705 11.0858 23.883 11.2134 23.8695C11.2326 23.7909 11.2163 23.6911 11.2172 23.6125C11.2182 23.5243 11.222 23.4379 11.1961 23.3526C11.1693 23.2643 11.1559 23.1876 11.152 23.0965C11.1491 23.0111 11.1252 22.968 11.1002 22.8912C11.0657 22.7848 11.0695 22.6562 11.0599 22.5459C11.0494 22.426 11.0465 22.3081 11.0446 22.1882C11.0436 22.0903 11.0293 21.9963 11.0168 21.9004C11.0024 21.7863 11.0053 21.6741 11.0005 21.5599C10.9947 21.4189 10.9525 21.2856 10.941 21.1456C10.9305 21.0247 10.9324 20.9029 10.9218 20.7811C10.8969 20.4953 10.8739 20.2047 10.8384 19.9198C10.8163 19.7433 10.7914 19.5716 10.7866 19.3932C10.7828 19.2647 10.7674 19.1477 10.7444 19.0211C10.6696 18.6077 10.6485 18.1876 10.612 17.7704C10.5804 17.4136 10.5027 17.0577 10.4212 16.7086C10.3176 16.2731 10.2351 15.8271 10.166 15.384C10.0797 14.8325 10.05 14.2791 9.98475 13.7266C9.95789 13.5012 9.94543 13.2777 9.93008 13.0523C9.92145 12.9411 9.92816 12.8308 9.92624 12.7205C9.92337 12.5852 9.89459 12.45 9.88596 12.3157C9.87924 12.2179 9.88308 12.121 9.885 12.0241C9.88692 11.9321 9.87541 11.8371 9.88308 11.746C9.88788 11.6904 9.91186 11.6472 9.93296 11.5964C10.0001 11.44 9.9905 11.2463 9.98955 11.0813C9.98955 11.0017 9.979 10.9096 10.0049 10.8406C10.0701 10.667 10.2063 10.5403 10.2917 10.3783C10.3368 10.2929 10.3742 10.2075 10.3991 10.1154C10.4097 10.0771 10.4116 10.0243 10.4317 9.99268C10.4634 9.94184 10.5104 9.93513 10.5641 9.92362C10.6523 9.9054 10.7396 9.88526 10.8278 9.86895C11.0763 9.82387 11.341 9.85744 11.5884 9.89101C11.8532 9.92746 12.1409 9.97925 12.4085 9.95527C12.5025 9.94664 12.5879 9.93417 12.6828 9.94664C12.8229 9.96486 12.9543 10.0128 13.0895 10.0473C13.1835 10.0713 13.2727 10.0742 13.3638 10.1107C13.4703 10.1538 13.5566 10.2171 13.6698 10.2421C13.7436 10.2593 13.8319 10.2814 13.9076 10.2852C13.9594 10.2871 13.9863 10.2823 14.0352 10.3044C14.0822 10.3245 14.1263 10.3447 14.1752 10.3581C14.2654 10.383 14.3565 10.3946 14.4428 10.4348C14.5464 10.4828 14.6443 10.5471 14.7431 10.6037C14.8457 10.6622 14.9569 10.6948 15.0577 10.759C15.168 10.8291 15.2629 10.8252 15.3886 10.8492C15.6542 10.9 15.9094 10.9998 16.1818 11.0142C16.2643 11.019 16.3477 11.0142 16.4302 11.0142C16.5108 11.0151 16.5731 11.0401 16.6479 11.0602C16.7371 11.0851 16.8273 11.0631 16.8867 11.1456C16.9184 11.1408 16.9002 10.9729 16.9002 10.9528C16.8982 10.8559 16.904 10.7696 16.9213 10.6727C16.9424 10.549 16.9673 10.4348 16.9654 10.3082C16.9644 10.2094 16.9654 10.1107 16.9654 10.0119C16.9654 9.8536 16.9692 9.70302 16.9376 9.54188Z"/>
</svg>
