<?xml version="1.0" encoding="UTF-8" standalone="no"?>
<!-- Created with Inkscape (http://www.inkscape.org/) -->

<svg
   width="16.965534"
   height="24"
   viewBox="0 0 4.4887976 6.35"
   version="1.1"
   id="svg6667"
   inkscape:version="1.2.1 (9c6d41e4, 2022-07-14)"
   sodipodi:docname="abyssal-tribute.svg"
   xmlns:inkscape="http://www.inkscape.org/namespaces/inkscape"
   xmlns:sodipodi="http://sodipodi.sourceforge.net/DTD/sodipodi-0.dtd"
   xmlns="http://www.w3.org/2000/svg"
   xmlns:svg="http://www.w3.org/2000/svg">
  <sodipodi:namedview
     id="namedview6669"
     pagecolor="#505050"
     bordercolor="#eeeeee"
     borderopacity="1"
     inkscape:showpageshadow="0"
     inkscape:pageopacity="0"
     inkscape:pagecheckerboard="0"
     inkscape:deskcolor="#505050"
     inkscape:document-units="mm"
     showgrid="false"
     inkscape:zoom="0.7046647"
     inkscape:cx="32.639637"
     inkscape:cy="104.30493"
     inkscape:window-width="1390"
     inkscape:window-height="941"
     inkscape:window-x="0"
     inkscape:window-y="25"
     inkscape:window-maximized="0"
     inkscape:current-layer="layer1" />
  <defs
     id="defs6664">
    <clipPath
       clipPathUnits="userSpaceOnUse"
       id="clipPath1801">
      <path
         d="m 56.886,163.703 h 28.8 v 28.8 h -28.8 z"
         id="path1799" />
    </clipPath>
  </defs>
  <g
     inkscape:label="Layer 1"
     inkscape:groupmode="layer"
     id="layer1"
     transform="translate(-96.505286,-121.10691)">
    <g
       id="g1795"
       transform="matrix(0.25377303,0,0,-0.25377303,80.659161,169.47944)">
      <g
         id="g1797"
         clip-path="url(#clipPath1801)">
        <g
           id="g1803"
           transform="translate(73.3532,183.994)">
          <path
             d="m 0,0 c -0.137,-0.114 -0.276,-0.227 -0.423,-0.328 -0.066,-0.045 -0.136,-0.081 -0.208,-0.116 -0.081,-0.039 -0.155,-0.096 -0.236,-0.132 -0.057,-0.026 -0.108,-0.03 -0.169,-0.041 -0.07,-0.012 -0.106,-0.036 -0.163,-0.074 -0.087,-0.06 -0.174,-0.117 -0.258,-0.181 -0.046,-0.035 -0.082,-0.068 -0.139,-0.084 -0.043,-0.013 -0.088,-0.018 -0.131,-0.032 -0.052,-0.019 -0.31,-0.156 -0.318,0.14 -10e-4,-0.056 -0.075,-0.002 -0.091,0.011 -0.039,0.034 -0.073,0.082 -0.11,0.119 -0.085,0.082 -0.178,0.159 -0.268,0.235 -0.149,0.127 -0.275,0.241 -0.385,0.404 -0.093,0.137 -0.18,0.273 -0.289,0.398 -0.197,0.227 -0.335,0.485 -0.428,0.771 -0.043,0.131 -0.114,0.257 -0.191,0.372 -0.043,0.065 -0.081,0.135 -0.127,0.198 -0.064,0.086 -0.139,0.162 -0.195,0.254 -0.145,0.234 -0.283,0.474 -0.275,0.758 0.002,0.076 0.011,0.148 0.023,0.223 0.015,0.095 0.027,0.214 0.073,0.301 0.021,0.041 0.057,0.079 0.083,0.115 0.067,0.092 0.124,0.189 0.185,0.284 0.134,0.211 0.306,0.395 0.475,0.578 0.091,0.099 0.145,0.223 0.238,0.32 0.116,0.121 0.233,0.247 0.377,0.335 0.145,0.088 0.307,0.118 0.468,0.16 0.123,0.033 0.229,0.049 0.357,0.046 C -1.981,5.031 -1.845,4.99 -1.701,4.987 -1.624,4.985 -1.555,4.994 -1.48,4.974 -1.375,4.946 -1.271,4.915 -1.167,4.883 -0.995,4.83 -0.833,4.741 -0.665,4.675 -0.451,4.592 -0.286,4.441 -0.085,4.334 0.069,4.253 0.226,4.187 0.365,4.082 0.439,4.026 0.523,3.987 0.599,3.934 0.687,3.873 0.767,3.801 0.848,3.73 0.949,3.642 1.004,3.529 1.087,3.425 1.178,3.312 1.212,3.164 1.255,3.028 1.313,2.843 1.346,2.669 1.345,2.476 1.344,2.3 1.361,2.141 1.279,1.979 1.214,1.85 1.13,1.733 1.075,1.598 1.034,1.499 0.992,1.404 0.959,1.302 0.913,1.159 0.814,1.041 0.735,0.916 0.643,0.771 0.538,0.631 0.426,0.501 0.28,0.331 0.174,0.144 0,0 m 6.748,-3.329 c -0.032,0.162 -0.096,0.316 -0.16,0.468 -0.07,0.165 -0.114,0.334 -0.199,0.494 -0.049,0.092 -0.101,0.181 -0.131,0.282 -0.012,0.043 -0.02,0.076 -0.041,0.113 -0.035,0.059 -0.065,0.114 -0.089,0.18 C 6.111,-1.745 6.111,-1.689 6.059,-1.677 5.994,-1.662 5.915,-1.689 5.856,-1.709 5.778,-1.734 5.705,-1.751 5.636,-1.797 5.582,-1.833 5.547,-1.859 5.482,-1.86 5.341,-1.862 5.196,-1.901 5.06,-1.946 4.977,-1.973 4.906,-2.027 4.827,-2.062 4.746,-2.098 4.666,-2.1 4.585,-2.13 4.495,-2.163 4.423,-2.217 4.327,-2.237 4.235,-2.255 4.156,-2.282 4.068,-2.313 3.986,-2.343 3.903,-2.353 3.819,-2.374 3.739,-2.393 3.663,-2.423 3.584,-2.443 3.474,-2.47 3.362,-2.484 3.252,-2.51 3.166,-2.531 3.093,-2.533 3.005,-2.532 2.859,-2.531 2.713,-2.531 2.568,-2.531 2.505,-2.532 2.437,-2.539 2.376,-2.529 2.226,-2.504 2.077,-2.445 1.928,-2.413 1.796,-2.384 1.662,-2.36 1.528,-2.341 1.274,-2.306 0.998,-2.284 0.741,-2.312 0.635,-2.323 0.533,-2.365 0.429,-2.375 0.309,-2.387 0.283,-2.32 0.215,-2.243 c -0.027,0.03 -0.069,0.05 -0.08,0.088 0.028,0.002 0.062,0.02 0.088,0.029 0.06,0.02 0.102,0.049 0.154,0.087 0.089,0.064 0.174,0.129 0.257,0.201 0.058,0.05 0.122,0.065 0.184,0.104 0.153,0.093 0.301,0.206 0.435,0.325 0.12,0.106 0.256,0.23 0.351,0.36 0.065,0.089 0.152,0.161 0.229,0.24 0.089,0.09 0.161,0.191 0.232,0.294 0.109,0.158 0.223,0.313 0.317,0.481 C 2.441,0.07 2.466,0.189 2.514,0.298 2.558,0.397 2.605,0.501 2.658,0.596 2.738,0.74 2.844,0.862 2.881,1.026 2.91,1.153 2.873,1.283 2.915,1.407 2.937,1.473 2.964,1.523 3.006,1.577 3.06,1.646 3.054,1.727 3.072,1.81 3.096,1.925 3.134,2.027 3.139,2.146 3.145,2.26 3.14,2.374 3.14,2.488 3.14,2.638 3.142,2.781 3.113,2.928 3.074,3.134 2.939,3.291 2.81,3.45 2.566,3.75 2.34,4.051 2.017,4.271 1.899,4.352 1.762,4.434 1.665,4.539 1.596,4.612 1.561,4.711 1.512,4.797 1.406,4.986 1.193,5.105 1.028,5.238 0.89,5.351 0.748,5.45 0.597,5.545 0.437,5.646 0.283,5.77 0.111,5.851 -0.246,6.018 -0.615,6.162 -0.979,6.312 -1.107,6.365 -1.238,6.413 -1.365,6.469 -1.495,6.525 -1.612,6.534 -1.753,6.537 -1.667,6.468 -1.685,6.465 -1.723,6.483 -1.738,6.49 -1.751,6.505 -1.768,6.511 -1.796,6.52 -1.825,6.51 -1.853,6.511 -1.899,6.513 -1.949,6.534 -1.991,6.549 -2.095,6.588 -2.204,6.637 -2.317,6.613 -2.394,6.597 -2.462,6.551 -2.539,6.531 -2.605,6.514 -2.665,6.482 -2.733,6.468 -2.83,6.449 -2.925,6.449 -3.024,6.448 -3.164,6.447 -3.299,6.408 -3.439,6.406 -3.529,6.404 -3.612,6.404 -3.697,6.374 -3.77,6.348 -3.836,6.313 -3.905,6.279 -4.035,6.216 -4.153,6.153 -4.267,6.065 -4.369,5.987 -4.482,5.929 -4.581,5.848 -4.923,5.572 -5.169,5.196 -5.422,4.84 -5.579,4.619 -5.748,4.392 -5.862,4.144 -5.95,3.951 -6.02,3.737 -6.063,3.529 -6.106,3.322 -6.06,3.126 -6.044,2.92 -6.03,2.748 -6.045,2.579 -6.073,2.409 -6.105,2.218 -6.123,2.022 -6.176,1.835 -6.222,1.675 -6.277,1.522 -6.287,1.354 -6.3,1.165 -6.268,0.979 -6.234,0.793 c 0.029,-0.159 0.072,-0.309 0.156,-0.448 0.129,-0.213 0.264,-0.42 0.44,-0.597 0.146,-0.147 0.281,-0.307 0.435,-0.447 0.225,-0.207 0.486,-0.374 0.732,-0.555 0.27,-0.2 0.548,-0.398 0.812,-0.606 0.035,-0.028 0.18,-0.118 0.154,-0.179 -0.017,-0.041 -0.137,-0.101 -0.177,-0.115 -0.077,-0.028 -0.168,-0.02 -0.249,-0.02 -0.104,10e-4 -0.205,0.017 -0.309,0.022 -0.126,0.006 -0.252,-0.006 -0.378,0.015 -0.198,0.033 -0.388,0.033 -0.589,0.032 -0.187,-10e-4 -0.367,0.04 -0.554,0.048 -0.294,0.011 -0.585,0.019 -0.879,0.019 -0.16,0 -0.32,-0.005 -0.48,-0.001 -0.121,0.003 -0.24,0.022 -0.36,0.025 -0.271,0.006 -0.544,-0.013 -0.815,0 -0.251,0.011 -0.513,0.11 -0.734,0.225 -0.163,0.085 -0.312,0.195 -0.482,0.265 -0.179,0.074 -0.373,0.12 -0.557,0.181 -0.055,0.018 -0.156,0.068 -0.218,0.049 -0.029,-0.008 -0.049,-0.038 -0.067,-0.059 -0.056,-0.069 -0.085,-0.156 -0.111,-0.239 -0.047,-0.145 -0.105,-0.286 -0.152,-0.431 -0.034,-0.106 -0.047,-0.217 -0.076,-0.324 -0.035,-0.129 -0.055,-0.249 -0.076,-0.38 -0.02,-0.118 -0.073,-0.213 -0.12,-0.32 -0.049,-0.112 -0.009,-0.236 0.019,-0.35 0.045,-0.186 0.107,-0.346 0.229,-0.496 0.123,-0.15 0.25,-0.296 0.371,-0.448 0.041,-0.051 0.081,-0.103 0.119,-0.157 0.009,-0.012 0.055,-0.092 0.074,-0.1 0.076,-0.031 0.225,0.145 0.27,0.188 0.012,0.012 0.065,0.075 0.089,0.085 0.011,0.004 0.03,-0.003 0.042,0 0.113,0.032 0.21,0.124 0.307,0.193 0.061,0.044 0.115,0.103 0.185,0.136 0.107,0.05 0.235,0.092 0.352,0.11 0.165,0.027 0.347,0.013 0.513,-0.004 0.197,-0.021 0.387,-0.077 0.587,-0.081 0.129,-0.003 0.26,0.013 0.39,-10e-4 0.12,-0.012 0.24,-0.043 0.36,-0.064 0.116,-0.02 0.218,-0.042 0.325,-0.089 0.087,-0.038 0.173,-0.062 0.267,-0.077 0.074,-0.013 0.15,-0.029 0.226,-0.035 0.092,-0.007 0.184,0.013 0.277,0.021 0.118,0.01 0.175,-0.034 0.281,-0.077 0.089,-0.036 0.172,-0.037 0.267,-0.024 0.169,0.022 0.342,0.019 0.512,0.035 0.118,0.011 0.202,0.065 0.309,0.11 0.069,0.029 0.136,0.026 0.209,0.024 0.188,-0.005 0.365,0.068 0.553,0.042 0.129,-0.018 0.235,-0.057 0.365,-0.024 0.091,0.024 0.143,0.07 0.207,0.133 0.057,0.057 0.121,0.107 0.176,0.165 0.019,0.021 0.056,0.086 0.082,0.089 0.02,-0.109 0.049,-0.221 0.05,-0.332 10e-4,-0.096 0.008,-0.148 0.039,-0.241 0.019,-0.057 0.031,-0.098 0.031,-0.156 0,-0.097 -0.021,-0.195 -0.031,-0.291 -0.013,-0.115 -0.017,-0.229 -0.039,-0.343 -0.037,-0.192 -0.065,-0.39 -0.069,-0.586 -0.006,-0.296 0.002,-0.593 -10e-4,-0.89 -0.003,-0.414 0.074,-0.832 0.108,-1.244 0.008,-0.097 0.044,-0.204 0.039,-0.3 -0.005,-0.082 -0.033,-0.162 -0.032,-0.246 0.002,-0.166 -0.028,-0.324 -0.043,-0.49 -0.034,-0.393 -0.142,-0.776 -0.182,-1.17 -0.024,-0.239 -0.059,-0.475 -0.084,-0.714 -0.039,-0.388 -0.032,-0.778 -0.063,-1.167 -0.014,-0.177 0,-0.354 -0.023,-0.529 -0.022,-0.175 -0.038,-0.35 -0.049,-0.525 -0.011,-0.169 -0.027,-0.342 -0.029,-0.511 -0.002,-0.175 0.007,-0.348 -0.009,-0.523 -0.019,-0.209 -0.03,-0.417 -0.037,-0.627 -0.005,-0.164 -0.04,-0.323 -0.044,-0.487 -0.01,-0.406 10e-4,-0.813 10e-4,-1.219 0,-0.34 0.014,-0.671 -0.056,-1.006 -0.043,-0.203 -0.063,-0.418 -0.137,-0.613 -0.017,-0.046 -0.099,-0.145 -0.078,-0.204 0.014,-0.037 0.054,-0.021 0.092,-0.02 0.183,0.002 0.367,-0.001 0.55,0 0.11,0.001 0.217,-0.005 0.326,-0.027 0.089,-0.017 0.171,-0.06 0.255,-0.094 0.085,-0.035 0.172,-0.078 0.265,-0.084 0.125,-0.008 0.248,0.012 0.373,-0.002 0.239,-0.027 0.478,-0.017 0.718,-0.018 0.269,-0.002 0.532,0.073 0.8,0.068 0.133,-0.003 0.25,0.012 0.379,0.046 0.091,0.024 0.18,0.022 0.273,0.021 0.134,-0.001 0.279,-0.014 0.412,0 0.02,0.082 0.003,0.186 0.004,0.268 0.001,0.092 0.005,0.182 -0.022,0.271 -0.028,0.092 -0.042,0.172 -0.046,0.267 -0.003,0.089 -0.028,0.134 -0.054,0.214 -0.036,0.111 -0.032,0.245 -0.042,0.36 -0.011,0.125 -0.014,0.248 -0.016,0.373 -0.001,0.102 -0.016,0.2 -0.029,0.3 -0.015,0.119 -0.012,0.236 -0.017,0.355 -0.006,0.147 -0.05,0.286 -0.062,0.432 -0.011,0.126 -0.009,0.253 -0.02,0.38 -0.026,0.298 -0.05,0.601 -0.087,0.898 -0.023,0.184 -0.049,0.363 -0.054,0.549 -0.004,0.134 -0.02,0.256 -0.044,0.388 -0.078,0.431 -0.1,0.869 -0.138,1.304 -0.033,0.372 -0.114,0.743 -0.199,1.107 -0.108,0.454 -0.194,0.919 -0.266,1.381 -0.09,0.575 -0.121,1.152 -0.189,1.728 -0.028,0.235 -0.041,0.468 -0.057,0.703 -0.009,0.116 -0.002,0.231 -0.004,0.346 -0.003,0.141 -0.033,0.282 -0.042,0.422 -0.007,0.102 -0.003,0.203 -0.001,0.304 0.002,0.096 -0.01,0.195 -0.002,0.29 0.005,0.058 0.03,0.103 0.052,0.156 0.07,0.163 0.06,0.365 0.059,0.537 0,0.083 -0.011,0.179 0.016,0.251 0.068,0.181 0.21,0.313 0.299,0.482 0.047,0.089 0.086,0.178 0.112,0.274 0.011,0.04 0.013,0.095 0.034,0.128 0.033,0.053 0.082,0.06 0.138,0.072 0.092,0.019 0.183,0.04 0.275,0.057 0.259,0.047 0.535,0.012 0.793,-0.023 0.276,-0.038 0.576,-0.092 0.855,-0.067 0.098,0.009 0.187,0.022 0.286,0.009 C 2.458,-3.77 2.595,-3.82 2.736,-3.856 2.834,-3.881 2.927,-3.884 3.022,-3.922 3.133,-3.967 3.223,-4.033 3.341,-4.059 3.418,-4.077 3.51,-4.1 3.589,-4.104 3.643,-4.106 3.671,-4.101 3.722,-4.124 3.771,-4.145 3.817,-4.166 3.868,-4.18 3.962,-4.206 4.057,-4.218 4.147,-4.26 4.255,-4.31 4.357,-4.377 4.46,-4.436 4.567,-4.497 4.683,-4.531 4.788,-4.598 4.903,-4.671 5.002,-4.667 5.133,-4.692 5.41,-4.745 5.676,-4.849 5.96,-4.864 c 0.086,-0.005 0.173,0 0.259,0 0.084,-0.001 0.149,-0.027 0.227,-0.048 0.093,-0.026 0.187,-0.003 0.249,-0.089 0.033,0.005 0.014,0.18 0.014,0.201 -0.002,0.101 0.004,0.191 0.022,0.292 0.022,0.129 0.048,0.248 0.046,0.38 -0.001,0.103 0,0.206 0,0.309 0,0.165 0.004,0.322 -0.029,0.49"
             style="fill:#000000;fill-opacity:1;fill-rule:nonzero;stroke:none"
             id="path1805" />
        </g>
      </g>
    </g>
  </g>
</svg>
