<?xml version="1.0" encoding="UTF-8" standalone="no"?>
<!-- Created with Inkscape (http://www.inkscape.org/) -->

<svg
   width="15.421274"
   height="24"
   viewBox="0 0 4.0802121 6.35"
   version="1.1"
   id="svg6745"
   inkscape:version="1.2.1 (9c6d41e4, 2022-07-14)"
   sodipodi:docname="brotherhood-of-the-beast.svg"
   xmlns:inkscape="http://www.inkscape.org/namespaces/inkscape"
   xmlns:sodipodi="http://sodipodi.sourceforge.net/DTD/sodipodi-0.dtd"
   xmlns="http://www.w3.org/2000/svg"
   xmlns:svg="http://www.w3.org/2000/svg">
  <sodipodi:namedview
     id="namedview6747"
     pagecolor="#505050"
     bordercolor="#eeeeee"
     borderopacity="1"
     inkscape:showpageshadow="0"
     inkscape:pageopacity="0"
     inkscape:pagecheckerboard="0"
     inkscape:deskcolor="#505050"
     inkscape:document-units="mm"
     showgrid="false"
     inkscape:zoom="0.7046647"
     inkscape:cx="28.382293"
     inkscape:cy="138.36368"
     inkscape:window-width="1390"
     inkscape:window-height="941"
     inkscape:window-x="0"
     inkscape:window-y="25"
     inkscape:window-maximized="0"
     inkscape:current-layer="layer1" />
  <defs
     id="defs6742">
    <clipPath
       clipPathUnits="userSpaceOnUse"
       id="clipPath1749">
      <path
         d="m 56.886,132.25 h 28.8 v 28.8 h -28.8 z"
         id="path1747" />
    </clipPath>
  </defs>
  <g
     inkscape:label="Layer 1"
     inkscape:groupmode="layer"
     id="layer1"
     transform="translate(-97.460526,-112.47101)">
    <g
       id="g1743"
       transform="matrix(0.25343887,0,0,-0.25343887,81.433965,152.81278)">
      <g
         id="g1745"
         clip-path="url(#clipPath1749)">
        <g
           id="g1751"
           transform="translate(73.8586,159.059)">
          <path
             d="M 0,0 C 0.005,0.027 0.01,0.053 0.014,0.08 0.002,0.071 -0.011,0.062 -0.023,0.053 0.132,0.032 0.248,0.004 0.393,-0.061 c 0.12,-0.055 0.229,-0.083 0.359,-0.105 0.209,-0.035 0.411,-0.134 0.609,-0.21 0.188,-0.072 0.357,-0.192 0.54,-0.278 0.14,-0.066 0.268,-0.118 0.395,-0.207 0.345,-0.24 0.69,-0.506 0.982,-0.81 0.195,-0.204 0.424,-0.383 0.608,-0.594 0.232,-0.266 0.433,-0.53 0.638,-0.818 0.181,-0.252 0.361,-0.518 0.391,-0.834 0.012,-0.125 0.073,-0.219 0.11,-0.335 0.042,-0.136 0.081,-0.286 0.117,-0.425 0.075,-0.284 0.121,-0.596 0.165,-0.887 0.061,-0.402 0.08,-0.8 0.11,-1.204 0.03,-0.409 0.074,-0.801 0.056,-1.214 C 5.46,-8.286 5.386,-8.548 5.263,-8.822 5.183,-9.002 5.042,-9.138 4.924,-9.293 4.872,-9.361 4.807,-9.417 4.753,-9.486 4.669,-9.593 4.608,-9.737 4.511,-9.833 4.437,-9.905 4.359,-9.95 4.301,-10.042 4.227,-10.159 4.165,-10.277 4.071,-10.38 3.887,-10.582 3.726,-10.811 3.564,-11.031 3.369,-11.297 3.213,-11.606 2.926,-11.786 2.827,-11.848 2.717,-11.903 2.614,-11.959 2.472,-12.036 2.328,-12.043 2.185,-12.104 2.006,-12.18 1.867,-12.271 1.669,-12.295 1.51,-12.315 1.36,-12.355 1.202,-12.384 1.019,-12.419 0.878,-12.482 0.709,-12.55 c -0.128,-0.051 -0.264,-0.059 -0.394,-0.103 0.264,-0.027 0.499,-0.13 0.764,-0.165 0.234,-0.031 0.518,-0.152 0.72,-0.276 0.359,-0.22 0.701,-0.462 1.014,-0.744 0.235,-0.212 0.486,-0.443 0.65,-0.718 0.04,-0.067 0.059,-0.144 0.098,-0.211 0.047,-0.081 0.106,-0.113 0.163,-0.184 0.045,-0.055 0.062,-0.104 0.094,-0.164 0.079,-0.149 0.202,-0.269 0.286,-0.416 0.083,-0.145 0.143,-0.294 0.235,-0.434 0.072,-0.109 0.146,-0.22 0.19,-0.344 0.053,-0.154 0.088,-0.344 0.117,-0.506 0.055,-0.312 0.175,-0.593 0.267,-0.894 0.163,-0.533 0.159,-1.053 0.154,-1.605 -0.002,-0.206 -0.054,-0.394 -0.043,-0.601 0.011,-0.203 -0.054,-0.421 -0.086,-0.621 -0.029,-0.19 -0.059,-0.379 -0.089,-0.568 -0.027,-0.172 -0.027,-0.352 -0.125,-0.497 -0.044,-0.064 -0.096,-0.096 -0.127,-0.17 -0.025,-0.06 -0.037,-0.12 -0.067,-0.179 -0.059,-0.117 -0.139,-0.241 -0.218,-0.346 -0.058,-0.076 -0.124,-0.13 -0.177,-0.213 -0.052,-0.08 -0.07,-0.151 -0.145,-0.22 -0.127,-0.117 -0.295,-0.209 -0.439,-0.307 -0.278,-0.188 -0.588,-0.314 -0.856,-0.514 -0.128,-0.095 -0.247,-0.181 -0.36,-0.285 -0.05,-0.047 -0.045,-0.052 -0.113,-0.095 -0.06,-0.015 -0.112,-0.043 -0.157,-0.085 -0.039,-0.06 -0.084,-0.115 -0.135,-0.164 -0.057,-0.046 -0.11,-0.052 -0.169,-0.084 -0.082,-0.044 -0.137,-0.096 -0.213,-0.146 -0.101,-0.068 -0.202,-0.08 -0.31,-0.125 -0.11,-0.045 -0.184,-0.091 -0.306,-0.101 -0.11,-0.008 -0.219,-0.022 -0.329,-0.003 -0.163,0.027 -0.33,0.063 -0.494,0.078 -0.119,0.01 -0.23,-0.037 -0.349,-0.038 -0.168,-0.002 -0.306,0.005 -0.473,-0.036 -0.149,-0.036 -0.283,-0.138 -0.432,-0.187 -0.149,-0.049 -0.279,-0.084 -0.432,-0.083 -0.061,0.001 -0.086,-0.008 -0.141,-0.016 -0.131,-0.02 -0.223,-0.022 -0.356,-0.007 -0.19,0.02 -0.37,0.005 -0.564,0.036 -0.179,0.028 -0.314,0.075 -0.485,0.128 -0.106,0.033 -0.174,0.032 -0.275,0.092 -0.12,0.07 -0.214,0.087 -0.351,0.106 -0.281,0.04 -0.538,0.11 -0.812,0.177 -0.116,0.028 -0.252,0.052 -0.35,0.128 -0.07,0.054 -0.103,0.168 -0.206,0.161 0.125,-0.031 0.307,0.031 0.436,0.033 0.4,0.006 0.816,-0.038 1.191,-0.184 0.381,-0.147 0.878,-0.383 1.296,-0.312 0.315,0.053 0.632,0.224 0.93,0.339 0.202,0.078 0.425,0.125 0.636,0.184 0.212,0.06 0.407,0.147 0.623,0.203 0.394,0.1 0.719,0.401 0.969,0.704 0.275,0.332 0.616,0.577 0.881,0.921 0.107,0.139 0.216,0.253 0.337,0.381 0.113,0.119 0.278,0.322 0.342,0.474 0.024,0.057 0.018,0.109 0.032,0.167 0.022,0.09 0.076,0.162 0.095,0.254 0.028,0.138 0.042,0.281 0.064,0.42 0.047,0.303 0.112,0.601 0.092,0.908 -0.014,0.224 -0.058,0.442 -0.05,0.67 0.005,0.122 0,0.254 -0.026,0.382 -0.064,0.309 -0.081,0.636 -0.198,0.924 -0.035,0.085 -0.037,0.163 -0.087,0.246 -0.042,0.071 -0.088,0.131 -0.122,0.209 -0.063,0.143 -0.169,0.229 -0.278,0.336 -0.138,0.135 -0.236,0.334 -0.381,0.459 -0.086,0.074 -0.198,0.142 -0.299,0.205 -0.386,0.242 -0.679,0.592 -1.146,0.657 -0.207,0.028 -0.467,0.004 -0.661,-0.073 -0.146,-0.059 -0.264,-0.171 -0.408,-0.229 -0.141,-0.057 -0.276,-0.025 -0.416,-0.047 -0.088,-0.013 -0.147,-0.048 -0.219,-0.094 -0.084,-0.054 -0.176,-0.068 -0.258,-0.12 -0.094,-0.061 -0.162,-0.131 -0.267,-0.178 -0.108,-0.047 -0.204,-0.104 -0.305,-0.164 -0.28,-0.166 -0.394,-0.464 -0.532,-0.743 -0.067,-0.135 -0.173,-0.239 -0.251,-0.365 -0.085,-0.137 -0.111,-0.226 -0.237,-0.327 -0.134,-0.108 -0.233,-0.274 -0.344,-0.405 -0.122,-0.143 -0.215,-0.297 -0.312,-0.457 -0.223,-0.37 -0.278,-0.808 -0.499,-1.186 -0.123,-0.21 -0.218,-0.441 -0.353,-0.644 -0.097,-0.144 -0.211,-0.277 -0.31,-0.417 -0.143,-0.204 -0.209,-0.468 -0.318,-0.692 -0.132,-0.269 -0.285,-0.52 -0.395,-0.8 -0.122,-0.312 -0.188,-0.653 -0.302,-0.968 -0.065,-0.18 -0.084,-0.368 -0.111,-0.557 -0.011,-0.071 -0.003,-0.227 -0.119,-0.171 -0.016,0.312 0.021,0.621 -0.016,0.935 -0.041,0.354 -0.022,0.688 -0.038,1.04 -0.029,0.648 -0.002,1.269 0.095,1.91 0.029,0.193 0.092,0.356 0.138,0.543 0.036,0.149 0.032,0.304 0.078,0.45 0.084,0.272 0.176,0.523 0.218,0.81 0.039,0.261 0.052,0.543 0.131,0.796 0.14,0.443 0.463,0.834 0.727,1.208 0.118,0.167 0.235,0.331 0.355,0.498 0.067,0.095 0.128,0.225 0.198,0.315 0.064,0.083 0.157,0.138 0.229,0.215 0.103,0.109 0.184,0.22 0.299,0.318 0.045,0.039 0.085,0.088 0.132,0.123 0.062,0.046 0.137,0.05 0.196,0.091 0.028,0.02 0.041,0.061 0.069,0.081 0.062,0.044 0.137,0.039 0.206,0.067 0.104,0.042 0.214,0.102 0.313,0.154 0.174,0.09 0.909,0.751 0.564,0.914 -0.162,0.076 -0.405,0.074 -0.575,0.1 -0.25,0.039 -0.503,0.065 -0.748,0.128 -0.234,0.062 -0.518,0.173 -0.763,0.166 -0.206,-0.005 -0.351,-0.277 -0.491,-0.405 -0.123,-0.112 -0.264,-0.241 -0.409,-0.323 -0.186,-0.106 -0.446,-0.178 -0.653,-0.243 -0.119,-0.038 -0.234,-0.024 -0.355,-0.048 -0.103,-0.021 -0.21,-0.06 -0.311,-0.094 -0.224,-0.075 -0.531,-0.209 -0.715,-0.368 -0.306,-0.266 -0.65,-0.559 -0.844,-0.923 -0.101,-0.19 -0.126,-0.417 -0.216,-0.613 -0.08,-0.176 -0.155,-0.357 -0.244,-0.528 -0.134,-0.257 -0.299,-0.473 -0.39,-0.752 -0.053,-0.166 -0.068,-0.352 -0.093,-0.525 -0.036,-0.256 0.112,-0.488 0.177,-0.738 0.078,-0.3 0.203,-0.586 0.254,-0.893 0.045,-0.279 0.139,-0.525 0.202,-0.799 0.063,-0.269 0.208,-0.505 0.298,-0.764 0.082,-0.234 0.182,-0.463 0.282,-0.689 0.086,-0.193 0.236,-0.391 0.246,-0.608 -0.119,10e-4 -0.222,0.164 -0.301,0.249 -0.18,0.192 -0.334,0.404 -0.508,0.603 -0.266,0.307 -0.478,0.674 -0.712,1.008 -0.088,0.126 -0.166,0.254 -0.246,0.385 -0.06,0.099 -0.155,0.189 -0.205,0.29 -0.044,0.088 -0.043,0.175 -0.062,0.27 -0.035,0.169 -0.117,0.328 -0.181,0.487 -0.163,0.405 -0.412,0.786 -0.511,1.216 -0.047,0.208 -0.028,0.467 -0.042,0.681 -0.016,0.267 0.031,0.513 0.073,0.777 0.032,0.204 0.055,0.411 0.093,0.613 0.054,0.283 0.197,0.496 0.324,0.747 0.176,0.345 0.297,0.722 0.515,1.044 0.126,0.186 0.193,0.39 0.337,0.562 0.18,0.215 0.398,0.393 0.577,0.609 0.239,0.289 0.49,0.59 0.84,0.747 0.291,0.131 0.583,0.244 0.881,0.354 0.056,0.021 0.113,0.056 0.172,0.065 0.057,0.008 0.119,-0.019 0.176,-0.01 0.122,0.019 0.226,0.112 0.348,0.13 0.078,0.012 0.162,-0.009 0.241,10e-4 0.07,0.009 0.14,0.027 0.209,0.039 0.172,0.029 0.337,0.062 0.512,0.066 0.154,0.003 0.311,-0.011 0.465,-0.005 0.122,0.005 0.232,0.036 0.355,0.034 0.118,-0.001 0.231,0.035 0.348,0.037 0.113,0.003 0.266,-0.049 0.372,0.013 0.066,0.038 0.083,0.097 0.159,0.129 0.18,0.075 0.41,0.055 0.599,0.042 0.256,-0.017 0.482,-0.1 0.73,-0.157 0.204,-0.046 0.417,-0.076 0.625,-0.104 0.193,-0.026 0.376,0.042 0.567,0.067 0.24,0.032 0.485,-0.003 0.722,0.035 0.38,0.061 0.766,0.173 1.096,0.376 0.284,0.174 0.623,0.284 0.892,0.481 0.185,0.136 0.23,0.365 0.397,0.51 0.071,0.062 0.137,0.084 0.206,0.16 0.095,0.104 0.17,0.228 0.265,0.334 0.134,0.148 0.292,0.272 0.423,0.422 0.111,0.129 0.166,0.269 0.228,0.423 0.065,0.161 0.191,0.29 0.254,0.45 0.091,0.231 0.092,0.54 0.13,0.785 0.048,0.309 0.112,0.615 0.067,0.929 -0.027,0.194 -0.124,0.378 -0.186,0.564 -0.084,0.25 -0.17,0.487 -0.239,0.744 -0.078,0.291 -0.158,0.557 -0.263,0.84 C 2.796,-4.31 2.746,-4.044 2.657,-3.788 2.604,-3.632 2.577,-3.489 2.488,-3.349 2.396,-3.203 2.303,-3.096 2.179,-2.972 2.046,-2.839 1.948,-2.7 1.77,-2.626 1.635,-2.571 1.565,-2.535 1.442,-2.451 1.38,-2.409 1.303,-2.39 1.241,-2.35 1.156,-2.297 1.102,-2.211 1.031,-2.143 0.9,-2.018 0.684,-1.94 0.507,-1.899 0.373,-1.868 0.26,-1.814 0.126,-1.791 c -0.223,0.038 -0.424,0.082 -0.635,0.155 -0.098,0.033 -0.155,0.071 -0.262,0.087 -0.165,0.026 -0.315,0.015 -0.481,0.011 -0.148,-0.003 -0.324,0.014 -0.458,-0.063 -0.175,-0.099 -0.225,-0.308 -0.423,-0.397 -0.189,-0.085 -0.373,-0.18 -0.584,-0.2 -0.139,-0.013 -0.123,-0.028 -0.225,-0.126 -0.081,-0.078 -0.197,-0.142 -0.288,-0.208 -0.153,-0.111 -0.267,-0.224 -0.403,-0.355 -0.191,-0.184 -0.313,-0.314 -0.425,-0.559 -0.071,-0.156 -0.165,-0.335 -0.205,-0.501 -0.053,-0.218 0.05,-0.344 0.061,-0.556 0.007,-0.126 -0.036,-0.247 -0.053,-0.37 -0.014,-0.108 -0.009,-0.208 -0.008,-0.316 0.001,-0.204 -0.089,-0.405 -0.077,-0.608 0.012,-0.18 0.064,-0.439 0.158,-0.595 0.135,-0.224 0.332,-0.409 0.483,-0.621 0.049,-0.069 0.084,-0.15 0.132,-0.22 0.106,-0.157 0.261,-0.287 0.391,-0.423 0.156,-0.164 0.304,-0.306 0.496,-0.428 0.199,-0.127 0.402,-0.238 0.589,-0.385 0.131,-0.103 0.358,-0.2 0.403,-0.362 -0.181,-0.09 -0.416,-0.076 -0.616,-0.072 -0.079,0.001 -0.164,0.024 -0.236,0.057 -0.181,0.082 -0.283,0.263 -0.452,0.35 -0.187,0.096 -0.387,0.174 -0.575,0.273 -0.21,0.11 -0.385,0.248 -0.587,0.367 -0.168,0.098 -0.304,0.196 -0.45,0.325 -0.141,0.125 -0.28,0.251 -0.448,0.339 -0.168,0.089 -0.271,0.253 -0.356,0.422 -0.038,0.077 -0.04,0.161 -0.06,0.244 -0.034,0.141 -0.106,0.246 -0.163,0.376 -0.087,0.204 -0.066,0.399 -0.092,0.611 -0.02,0.165 -0.093,0.311 -0.129,0.475 -0.094,0.42 -0.189,0.914 -0.098,1.342 0.061,0.292 0.321,0.485 0.43,0.761 0.088,0.221 0.115,0.45 0.257,0.647 0.095,0.13 0.214,0.245 0.318,0.368 0.256,0.301 0.383,0.756 0.77,0.923 0.171,0.074 0.37,0.126 0.55,0.165 0.191,0.042 0.375,0.014 0.565,0.039 0.243,0.032 0.401,0.218 0.634,0.27 0.135,0.03 0.271,-0.007 0.406,0.022 0.324,0.069 0.554,0.31 0.84,0.447 0.125,0.06 0.271,0.105 0.401,0.145 0.163,0.075 0.327,0.071 0.494,-0.011 0.426,-0.217 0.841,-0.454 1.245,-0.71"
             style="fill:#000000;fill-opacity:1;fill-rule:nonzero;stroke:none"
             id="path1753" />
        </g>
      </g>
    </g>
  </g>
</svg>
