<svg width="16" height="24" viewBox="0 0 16 24" fill="#000000" xmlns="http://www.w3.org/2000/svg">
  <path d="M10.1748 0.113549C10.1796 0.0876861 10.1844 0.0627813 10.1882 0.0369185C10.1767 0.0455395 10.1643 0.0541608 10.1528 0.0627817C10.3012 0.0828971 10.4123 0.109716 10.5512 0.171978C10.6662 0.224662 10.7706 0.251484 10.8951 0.272557C11.0953 0.306083 11.2888 0.400912 11.4785 0.473711C11.6585 0.542678 11.8204 0.657623 11.9957 0.740001C12.1298 0.803221 12.2524 0.853032 12.3741 0.938283C12.7045 1.16817 13.035 1.42297 13.3147 1.71416C13.5015 1.90957 13.7209 2.08103 13.8971 2.28314C14.1193 2.53794 14.3119 2.79082 14.5082 3.06669C14.6816 3.30808 14.854 3.56287 14.8828 3.86556C14.8943 3.9853 14.9527 4.07534 14.9881 4.18645C15.0284 4.31672 15.0657 4.4604 15.1002 4.59355C15.172 4.86559 15.2161 5.16444 15.2583 5.44319C15.3167 5.82825 15.3349 6.20949 15.3636 6.59647C15.3924 6.98825 15.4345 7.36374 15.4173 7.75934C15.4048 8.05054 15.3339 8.3015 15.2161 8.56396C15.1395 8.73638 15.0044 8.86665 14.8914 9.01512C14.8416 9.08026 14.7793 9.1339 14.7276 9.19999C14.6471 9.30248 14.5887 9.44042 14.4958 9.53237C14.4249 9.60134 14.3502 9.64445 14.2946 9.73257C14.2237 9.84464 14.1644 9.95767 14.0743 10.0563C13.8981 10.2498 13.7438 10.4692 13.5887 10.6799C13.4019 10.9347 13.2525 11.2307 12.9775 11.4031C12.8827 11.4625 12.7773 11.5152 12.6787 11.5688C12.5427 11.6426 12.4047 11.6493 12.2678 11.7077C12.0963 11.7805 11.9631 11.8677 11.7735 11.8907C11.6212 11.9098 11.4775 11.9481 11.3262 11.9759C11.1509 12.0094 11.0158 12.0698 10.8539 12.1349C10.7313 12.1838 10.601 12.1914 10.4765 12.2336C10.7294 12.2595 10.9545 12.3581 11.2083 12.3916C11.4325 12.4213 11.7045 12.5372 11.898 12.656C12.2419 12.8668 12.5695 13.0986 12.8693 13.3687C13.0944 13.5718 13.3348 13.793 13.4919 14.0564C13.5302 14.1206 13.5484 14.1944 13.5858 14.2585C13.6308 14.3361 13.6873 14.3668 13.7419 14.4348C13.785 14.4875 13.8013 14.5344 13.832 14.5919C13.9076 14.7346 14.0255 14.8496 14.1059 14.9904C14.1854 15.1293 14.2429 15.272 14.331 15.4061C14.4 15.5105 14.4709 15.6168 14.513 15.7356C14.5638 15.8831 14.5973 16.0651 14.6251 16.2203C14.6778 16.5191 14.7927 16.7883 14.8808 17.0766C15.037 17.5872 15.0332 18.0853 15.0284 18.614C15.0264 18.8113 14.9766 18.9914 14.9872 19.1897C14.9977 19.3842 14.9354 19.593 14.9048 19.7846C14.877 19.9666 14.8483 20.1476 14.8195 20.3286C14.7937 20.4934 14.7937 20.6658 14.6998 20.8047C14.6577 20.866 14.6079 20.8967 14.5782 20.9675C14.5542 21.025 14.5427 21.0825 14.514 21.139C14.4575 21.2511 14.3808 21.3698 14.3052 21.4704C14.2496 21.5432 14.1864 21.5949 14.1356 21.6744C14.0858 21.7511 14.0686 21.8191 13.9967 21.8852C13.8751 21.9973 13.7142 22.0854 13.5762 22.1793C13.3099 22.3593 13.013 22.48 12.7563 22.6716C12.6337 22.7626 12.5197 22.845 12.4114 22.9446C12.3635 22.9896 12.3683 22.9944 12.3032 23.0356C12.2457 23.05 12.1959 23.0768 12.1528 23.117C12.1155 23.1745 12.0723 23.2272 12.0235 23.2741C11.9689 23.3182 11.9181 23.3239 11.8616 23.3546C11.7831 23.3967 11.7304 23.4465 11.6576 23.4944C11.5608 23.5596 11.4641 23.5711 11.3606 23.6142C11.2553 23.6573 11.1844 23.7013 11.0675 23.7109C10.9622 23.7186 10.8578 23.732 10.7524 23.7138C10.5963 23.6879 10.4363 23.6534 10.2792 23.6391C10.1652 23.6295 10.0589 23.6745 9.9449 23.6755C9.78397 23.6774 9.65179 23.6707 9.49182 23.7099C9.3491 23.7444 9.22074 23.8421 9.07802 23.8891C8.93529 23.936 8.81077 23.9695 8.66421 23.9686C8.60578 23.9676 8.58183 23.9762 8.52915 23.9839C8.40367 24.0031 8.31554 24.005 8.18815 23.9906C8.00615 23.9714 7.83373 23.9858 7.6479 23.9561C7.47644 23.9293 7.34713 23.8843 7.18333 23.8335C7.0818 23.8019 7.01666 23.8029 6.91991 23.7454C6.80497 23.6783 6.71493 23.6621 6.5837 23.6439C6.31453 23.6055 6.06836 23.5385 5.8059 23.4743C5.69479 23.4475 5.56452 23.4245 5.47064 23.3517C5.40359 23.3 5.37198 23.1908 5.27332 23.1975C5.39305 23.2272 5.56739 23.1678 5.69095 23.1659C6.07411 23.1601 6.47258 23.2023 6.83179 23.3421C7.19674 23.4829 7.67281 23.709 8.0732 23.641C8.37493 23.5902 8.67858 23.4264 8.96403 23.3163C9.15752 23.2415 9.37113 23.1965 9.57324 23.14C9.77631 23.0825 9.9631 22.9992 10.17 22.9456C10.5474 22.8498 10.8587 22.5614 11.0982 22.2712C11.3616 21.9532 11.6882 21.7185 11.9421 21.389C12.0446 21.2559 12.149 21.1467 12.2649 21.024C12.3731 20.9101 12.5312 20.7156 12.5925 20.57C12.6155 20.5154 12.6097 20.4656 12.6231 20.41C12.6442 20.3238 12.6959 20.2549 12.7141 20.1667C12.7409 20.0346 12.7544 19.8976 12.7754 19.7644C12.8205 19.4742 12.8827 19.1888 12.8636 18.8947C12.8501 18.6801 12.808 18.4713 12.8157 18.2529C12.8204 18.136 12.8157 18.0096 12.7908 17.887C12.7295 17.591 12.7132 17.2778 12.6011 17.0019C12.5676 16.9205 12.5657 16.8458 12.5178 16.7663C12.4775 16.6983 12.4335 16.6408 12.4009 16.5661C12.3406 16.4291 12.239 16.3467 12.1346 16.2442C12.0024 16.1149 11.9085 15.9243 11.7697 15.8046C11.6873 15.7337 11.58 15.6685 11.4833 15.6082C11.1135 15.3764 10.8329 15.0411 10.3855 14.9789C10.1872 14.9521 9.93819 14.975 9.75236 15.0488C9.61251 15.1053 9.49948 15.2126 9.36155 15.2682C9.22649 15.3228 9.09717 15.2921 8.96307 15.3132C8.87878 15.3256 8.82226 15.3592 8.75329 15.4032C8.67283 15.4549 8.58471 15.4684 8.50616 15.5182C8.41612 15.5766 8.35099 15.6436 8.25041 15.6887C8.14696 15.7337 8.055 15.7883 7.95825 15.8458C7.69005 16.0048 7.58085 16.2902 7.44866 16.5575C7.38449 16.6868 7.28295 16.7864 7.20824 16.9071C7.12682 17.0383 7.10191 17.1236 6.98122 17.2203C6.85286 17.3238 6.75803 17.4828 6.65171 17.6083C6.53485 17.7452 6.44576 17.8927 6.35285 18.046C6.13924 18.4004 6.08656 18.82 5.87487 19.182C5.75705 19.3832 5.66605 19.6045 5.53674 19.7989C5.44382 19.9369 5.33462 20.0643 5.23979 20.1984C5.10282 20.3938 5.0396 20.6466 4.93519 20.8612C4.80875 21.1189 4.66219 21.3593 4.55683 21.6275C4.43997 21.9264 4.37675 22.253 4.26755 22.5547C4.20528 22.7272 4.18709 22.9072 4.16122 23.0883C4.15069 23.1563 4.15835 23.3057 4.04723 23.2521C4.03191 22.9532 4.06735 22.6572 4.03191 22.3565C3.99264 22.0174 4.01083 21.6974 3.99551 21.3603C3.96773 20.7396 3.99359 20.1447 4.08651 19.5307C4.11429 19.3458 4.17463 19.1897 4.2187 19.0106C4.25318 18.8679 4.24935 18.7194 4.29341 18.5795C4.37387 18.319 4.462 18.0786 4.50223 17.8037C4.53958 17.5537 4.55204 17.2835 4.62771 17.0412C4.76181 16.6168 5.07121 16.2423 5.32409 15.8841C5.43712 15.7241 5.54919 15.567 5.66413 15.407C5.72831 15.316 5.78674 15.1915 5.85379 15.1053C5.9151 15.0258 6.00418 14.9731 6.07315 14.8994C6.17181 14.795 6.2494 14.6886 6.35955 14.5948C6.40266 14.5574 6.44097 14.5105 6.48599 14.4769C6.54538 14.4329 6.61722 14.4291 6.67374 14.3898C6.70056 14.3706 6.71301 14.3313 6.73983 14.3122C6.79922 14.27 6.87106 14.2748 6.93716 14.248C7.03678 14.2078 7.14214 14.1503 7.23697 14.1005C7.40364 14.0143 8.10768 13.3811 7.77722 13.225C7.62204 13.1522 7.38927 13.1541 7.22644 13.1292C6.98697 13.0919 6.74462 13.0669 6.50994 13.0066C6.2858 12.9472 6.01376 12.8409 5.77908 12.8476C5.58176 12.8524 5.44286 13.1129 5.30876 13.2355C5.19094 13.3428 5.05588 13.4664 4.91699 13.5449C4.73882 13.6465 4.48977 13.7154 4.29149 13.7777C4.17751 13.8141 4.06735 13.8007 3.95145 13.8237C3.85278 13.8438 3.75029 13.8811 3.65355 13.9137C3.43898 13.9856 3.14491 14.1139 2.96866 14.2662C2.67555 14.521 2.34604 14.8017 2.16021 15.1503C2.06347 15.3323 2.03952 15.5498 1.95331 15.7375C1.87668 15.9061 1.80484 16.0795 1.71959 16.2433C1.59123 16.4895 1.43318 16.6964 1.34602 16.9636C1.29525 17.1226 1.28088 17.3008 1.25693 17.4665C1.22245 17.7117 1.36421 17.9339 1.42648 18.1734C1.50119 18.4608 1.62093 18.7347 1.66978 19.0288C1.71288 19.296 1.80292 19.5317 1.86327 19.7941C1.92362 20.0518 2.06251 20.2779 2.14872 20.526C2.22726 20.7501 2.32305 20.9695 2.41884 21.1859C2.50122 21.3708 2.6449 21.5605 2.65448 21.7683C2.54049 21.7674 2.44183 21.6112 2.36616 21.5298C2.19374 21.3459 2.04623 21.1428 1.87955 20.9522C1.62476 20.6581 1.42169 20.3066 1.19754 19.9867C1.11325 19.866 1.03854 19.7434 0.961906 19.6179C0.904433 19.5231 0.813435 19.4368 0.765541 19.3401C0.723394 19.2558 0.724352 19.1725 0.706152 19.0815C0.672626 18.9196 0.59408 18.7673 0.532776 18.615C0.376642 18.227 0.13813 17.8621 0.0433002 17.4502C-0.00172012 17.251 0.0164788 17.0029 0.00306853 16.7979C-0.0122575 16.5421 0.0327637 16.3065 0.0729946 16.0536C0.103647 15.8582 0.125677 15.6599 0.162077 15.4664C0.213802 15.1954 0.350779 14.9913 0.47243 14.7509C0.641017 14.4204 0.75692 14.0593 0.965737 13.7509C1.08643 13.5727 1.15061 13.3773 1.28854 13.2125C1.46096 13.0066 1.66978 12.8361 1.84124 12.6292C2.07017 12.3524 2.3106 12.064 2.64586 11.9137C2.9246 11.7882 3.2043 11.6799 3.48975 11.5746C3.54339 11.5545 3.59799 11.5209 3.6545 11.5123C3.7091 11.5046 3.76849 11.5305 3.82309 11.5219C3.93995 11.5037 4.03957 11.4146 4.15643 11.3974C4.23115 11.3859 4.31161 11.406 4.38728 11.3964C4.45433 11.3878 4.52138 11.3705 4.58748 11.359C4.75223 11.3313 4.91028 11.2997 5.07791 11.2958C5.22543 11.293 5.37581 11.3064 5.52333 11.3006C5.64019 11.2958 5.74555 11.2661 5.86337 11.2681C5.9764 11.269 6.08464 11.2345 6.19672 11.2326C6.30496 11.2297 6.45151 11.2795 6.55305 11.2202C6.61627 11.1838 6.63255 11.1272 6.70535 11.0966C6.87777 11.0247 7.09808 11.0439 7.27912 11.0564C7.52434 11.0726 7.74082 11.1521 7.97837 11.2067C8.17378 11.2508 8.37781 11.2795 8.57704 11.3064C8.76192 11.3313 8.93721 11.2661 9.12016 11.2422C9.35005 11.2115 9.58473 11.2451 9.81175 11.2087C10.1757 11.1502 10.5455 11.0429 10.8616 10.8485C11.1336 10.6818 11.4583 10.5765 11.716 10.3878C11.8932 10.2575 11.9363 10.0381 12.0963 9.89924C12.1643 9.83985 12.2275 9.81878 12.2936 9.74598C12.3846 9.64636 12.4565 9.52759 12.5475 9.42605C12.6758 9.28428 12.8272 9.16551 12.9526 9.02182C13.059 8.89826 13.1116 8.76415 13.171 8.61664C13.2333 8.46242 13.354 8.33886 13.4143 8.1856C13.5015 7.96433 13.5025 7.66834 13.5389 7.43366C13.5848 7.13768 13.6461 6.84456 13.603 6.54379C13.5772 6.35796 13.4843 6.18171 13.4249 6.00355C13.3444 5.76408 13.262 5.53706 13.1959 5.29089C13.1212 5.01214 13.0446 4.75735 12.944 4.48627C12.853 4.24201 12.8051 3.98721 12.7199 3.742C12.6691 3.59257 12.6432 3.45559 12.558 3.32149C12.4699 3.18163 12.3808 3.07914 12.262 2.96037C12.1346 2.83297 12.0407 2.69982 11.8702 2.62894C11.7409 2.57626 11.6739 2.54177 11.556 2.46131C11.4967 2.42108 11.4229 2.40288 11.3635 2.36457C11.2821 2.3138 11.2304 2.23142 11.1624 2.16628C11.0369 2.04655 10.83 1.97183 10.6604 1.93256C10.5321 1.90287 10.4238 1.85114 10.2955 1.82911C10.0819 1.79271 9.88934 1.75056 9.68723 1.68064C9.59336 1.64903 9.53876 1.61263 9.43626 1.5973C9.27821 1.5724 9.13453 1.58294 8.97552 1.58677C8.83376 1.58964 8.66517 1.57336 8.53681 1.64711C8.36918 1.74194 8.32129 1.94214 8.13163 2.02739C7.95059 2.10881 7.77434 2.19981 7.57223 2.21897C7.43908 2.23142 7.45441 2.24579 7.35671 2.33966C7.27912 2.41437 7.168 2.47568 7.08084 2.5389C6.93428 2.64522 6.82508 2.75346 6.69481 2.87895C6.51186 3.05519 6.395 3.17972 6.28771 3.4144C6.2197 3.56383 6.12966 3.73529 6.09135 3.8943C6.04058 4.10312 6.13924 4.22381 6.14978 4.42688C6.15648 4.54757 6.1153 4.66347 6.09901 4.78129C6.0856 4.88474 6.09039 4.98053 6.09135 5.08398C6.09231 5.27939 6.0061 5.47192 6.01759 5.66637C6.02909 5.83879 6.0789 6.08688 6.16894 6.23631C6.29825 6.45088 6.48695 6.62809 6.63159 6.83116C6.67853 6.89725 6.71205 6.97484 6.75803 7.04189C6.85957 7.19228 7.00804 7.3168 7.13256 7.44707C7.28199 7.60416 7.42376 7.74018 7.60767 7.85704C7.79829 7.97869 7.99274 8.08502 8.17186 8.22583C8.29734 8.32449 8.51478 8.4174 8.55789 8.57258C8.38451 8.65879 8.15941 8.64538 7.96783 8.64155C7.89216 8.64059 7.81074 8.61856 7.74177 8.58695C7.5684 8.5084 7.47069 8.33503 7.30881 8.25169C7.12969 8.15973 6.93811 8.08502 6.75803 7.99019C6.55688 7.88482 6.38925 7.75263 6.19576 7.63865C6.03483 7.54477 5.90456 7.4509 5.76471 7.32734C5.62965 7.2076 5.49651 7.08691 5.33558 7.00261C5.17466 6.91736 5.076 6.76027 4.99458 6.59839C4.95818 6.52463 4.95626 6.44417 4.9371 6.36467C4.90454 6.22961 4.83557 6.12903 4.78097 6.00451C4.69763 5.8091 4.71775 5.62231 4.69284 5.41924C4.67369 5.26119 4.60376 5.12134 4.56928 4.96425C4.47924 4.56194 4.38824 4.08875 4.47541 3.67878C4.53384 3.39907 4.78289 3.2142 4.88729 2.94983C4.97159 2.73814 4.99745 2.51878 5.13347 2.33008C5.22447 2.20556 5.33846 2.0954 5.43808 1.97758C5.68329 1.68926 5.80494 1.25342 6.17564 1.09346C6.33944 1.02257 6.53006 0.972766 6.70248 0.935409C6.88543 0.895178 7.06168 0.921999 7.24368 0.898052C7.47644 0.8674 7.62779 0.689234 7.85097 0.639424C7.98029 0.610688 8.11056 0.64613 8.23987 0.618352C8.55022 0.552258 8.77054 0.321408 9.04449 0.190179C9.16422 0.132706 9.30408 0.0896013 9.4286 0.0512861C9.58473 -0.0205548 9.74183 -0.0167236 9.90179 0.0618225C10.3098 0.269682 10.7074 0.496701 11.0944 0.741918"/>
</svg>
