<?xml version="1.0" encoding="UTF-8" standalone="no"?>
<!-- Created with Inkscape (http://www.inkscape.org/) -->

<svg
   width="33.167358"
   height="24"
   viewBox="0 0 8.77553 6.35"
   version="1.1"
   id="svg6833"
   inkscape:version="1.2.1 (9c6d41e4, 2022-07-14)"
   sodipodi:docname="sands-of-egypt.svg"
   xmlns:inkscape="http://www.inkscape.org/namespaces/inkscape"
   xmlns:sodipodi="http://sodipodi.sourceforge.net/DTD/sodipodi-0.dtd"
   xmlns="http://www.w3.org/2000/svg"
   xmlns:svg="http://www.w3.org/2000/svg">
  <sodipodi:namedview
     id="namedview6835"
     pagecolor="#505050"
     bordercolor="#eeeeee"
     borderopacity="1"
     inkscape:showpageshadow="0"
     inkscape:pageopacity="0"
     inkscape:pagecheckerboard="0"
     inkscape:deskcolor="#505050"
     inkscape:document-units="mm"
     showgrid="false"
     inkscape:zoom="0.7046647"
     inkscape:cx="49.669013"
     inkscape:cy="121.3343"
     inkscape:window-width="1390"
     inkscape:window-height="941"
     inkscape:window-x="0"
     inkscape:window-y="25"
     inkscape:window-maximized="0"
     inkscape:current-layer="layer1" />
  <defs
     id="defs6830">
    <clipPath
       clipPathUnits="userSpaceOnUse"
       id="clipPath1833">
      <path
         d="m 56.886,100.798 h 28.8 v 28.8 h -28.8 z"
         id="path1831" />
    </clipPath>
  </defs>
  <g
     inkscape:label="Layer 1"
     inkscape:groupmode="layer"
     id="layer1"
     transform="translate(-92.109075,-116.60123)">
    <g
       id="g1827"
       transform="matrix(0.32277814,0,0,-0.32277814,73.487229,156.95951)">
      <g
         id="g1829"
         clip-path="url(#clipPath1833)">
        <g
           id="g1835"
           transform="translate(83.8967,109.073)">
          <path
             d="M 0,0 C -0.16,0.254 -0.387,0.245 -0.6,0.378 -1.04,0.65 -1.506,0.832 -1.958,1.075 -2.582,1.41 -3.181,1.787 -3.765,2.227 -4.185,2.542 -4.592,2.866 -4.994,3.218 -5.456,3.622 -5.9,4.07 -6.383,4.43 c -0.403,0.3 -0.751,0.687 -1.136,1.019 -0.319,0.275 -0.624,0.589 -0.917,0.911 -0.249,0.275 -0.516,0.56 -0.792,0.787 -0.137,0.114 -0.287,0.191 -0.42,0.312 -0.171,0.156 -0.323,0.339 -0.497,0.49 -0.372,0.324 -0.734,0.689 -1.126,0.966 -0.103,0.073 -0.183,0.181 -0.29,0.248 -0.104,0.064 -0.217,0.102 -0.326,0.149 -0.219,0.093 -0.442,0.163 -0.655,0.274 -0.111,0.058 -0.44,0.138 -0.527,0.002 -0.021,-0.033 -0.044,-0.114 -0.037,-0.159 0.012,-0.077 0.018,-0.041 0.05,-0.087 0.047,-0.068 0.134,-0.142 0.197,-0.208 0.181,-0.19 0.336,-0.395 0.504,-0.604 0.085,-0.106 0.143,-0.231 0.238,-0.329 0.088,-0.091 0.186,-0.167 0.275,-0.256 0.121,-0.122 0.214,-0.256 0.347,-0.359 0.368,-0.285 0.646,-0.845 0.87,-1.308 0.087,-0.18 0.193,-0.448 0.154,-0.669 -0.018,-0.106 -0.08,-0.177 -0.13,-0.27 -0.119,-0.223 -0.266,-0.414 -0.376,-0.653 -0.273,-0.588 -0.662,-0.893 -1.185,-0.974 -0.259,-0.04 -0.513,-0.032 -0.772,-0.086 -0.359,-0.076 -0.717,-0.169 -1.079,-0.217 -1.046,-0.14 -2.085,0.171 -3.127,0.17 -0.18,0 -0.574,0.02 -0.474,-0.367 0.058,-0.224 0.34,-0.255 0.48,-0.357 0.192,-0.139 0.359,-0.316 0.535,-0.485 0.234,-0.224 0.426,-0.505 0.665,-0.715 0.433,-0.382 0.849,-0.8 1.281,-1.182 0.484,-0.428 0.985,-0.825 1.463,-1.266 0.17,-0.158 0.323,-0.301 0.512,-0.42 0.147,-0.093 0.299,-0.207 0.433,-0.33 0.106,-0.099 0.174,-0.202 0.293,-0.277 0.083,-0.052 0.186,-0.097 0.261,-0.165 0.165,-0.15 0.272,-0.337 0.374,-0.563 0.033,-0.072 0.082,-0.213 0.05,-0.307 -0.032,-0.092 -0.126,-0.057 -0.199,-0.057 -0.408,0.003 -0.816,-0.013 -1.224,-0.002 -0.084,0.002 -0.157,0.036 -0.237,0.049 -0.087,0.015 -0.169,0.002 -0.256,0.011 -0.19,0.018 -0.388,0.067 -0.576,0.109 -0.178,0.04 -0.387,0.095 -0.565,0.08 -0.194,-0.015 -0.38,-0.131 -0.564,-0.2 -0.168,-0.062 -0.229,-0.188 -0.329,-0.351 -0.021,-0.036 -0.147,-0.194 -0.145,-0.243 0.005,-0.118 0.203,-0.037 0.2,-0.182 -0.002,-0.107 -0.287,-0.061 -0.332,-0.061 -0.251,0.005 -0.483,0.115 -0.73,0.168 -0.276,0.061 -0.544,0.144 -0.826,0.137 -0.477,-0.011 -0.957,0.242 -1.44,0.112 -0.152,-0.04 -0.28,-0.137 -0.438,-0.164 -0.131,-0.022 -0.252,-0.001 -0.382,-0.005 -0.33,-0.012 -0.647,-0.149 -0.981,-0.131 -0.169,0.009 -0.319,0.086 -0.484,0.117 -0.201,0.037 -0.41,0.012 -0.612,0.01 -0.252,-0.002 -0.493,0.066 -0.742,0.062 -0.303,-0.004 -0.595,0.032 -0.896,0.06 -0.16,0.014 -0.315,0.055 -0.475,0.063 -0.198,0.011 -0.398,-0.024 -0.596,0.002 -0.179,0.023 -0.326,0.108 -0.488,0.185 -0.098,0.047 -0.21,0.047 -0.161,0.225 0.156,0.039 0.253,0.08 0.384,0.192 0.197,0.168 0.414,0.246 0.633,0.362 0.259,0.138 0.514,0.278 0.767,0.434 0.292,0.18 0.606,0.278 0.891,0.478 0.207,0.145 0.445,0.264 0.642,0.427 0.119,0.099 0.226,0.233 0.341,0.342 0.156,0.146 0.294,0.339 0.426,0.517 0.176,0.236 0.255,0.578 0.388,0.856 0.09,0.189 0.132,0.407 0.23,0.586 0.101,0.185 0.162,0.378 0.251,0.57 0.097,0.211 0.249,0.385 0.363,0.586 0.145,0.254 0.305,0.491 0.455,0.741 0.112,0.185 0.224,0.366 0.377,0.495 0.133,0.111 0.26,0.272 0.408,0.346 0.128,0.063 0.262,0.048 0.389,0.119 0.101,0.056 0.206,0.162 0.286,0.251 0.254,0.28 0.468,0.548 0.667,0.896 0.336,0.588 0.678,1.176 1.027,1.754 0.172,0.286 0.295,0.609 0.454,0.907 0.162,0.303 0.286,0.708 0.48,0.969 0.124,0.167 0.283,0.21 0.434,0.323 0.186,0.139 0.292,0.376 0.502,0.461 0.1,0.04 0.193,0.075 0.276,0.162 0.076,0.079 0.118,0.189 0.193,0.269 0.114,0.12 0.283,0.156 0.422,0.206 0.205,0.072 0.42,0.14 0.633,0.103 0.285,-0.05 0.61,-0.294 0.864,-0.465 0.244,-0.165 0.469,-0.347 0.724,-0.487 0.272,-0.149 0.55,-0.28 0.819,-0.436 C -9.274,8.671 -8.563,8.224 -7.943,7.52 -7.632,7.166 -7.322,6.809 -7.014,6.451 -6.663,6.042 -6.297,5.688 -5.909,5.342 -5.454,4.937 -5.041,4.486 -4.625,4.017 -4.35,3.709 -4.086,3.369 -3.794,3.088 -3.489,2.794 -3.11,2.645 -2.803,2.351 -2.581,2.138 -2.356,1.959 -2.122,1.772 -1.905,1.601 -1.728,1.382 -1.503,1.23 -1.312,1.101 -1.178,0.87 -0.986,0.754 -0.893,0.697 -0.795,0.678 -0.704,0.61 -0.608,0.538 -0.525,0.463 -0.421,0.408 -0.161,0.271 0.084,0.051 0,0"
             style="fill:#000000;fill-opacity:1;fill-rule:nonzero;stroke:none"
             id="path1837" />
        </g>
        <g
           id="g1839"
           transform="translate(69.697,119.847)">
          <path
             d="m 0,0 c -0.049,0.03 -0.112,0.126 -0.15,0.191 -0.075,0.125 -0.128,0.206 -0.228,0.287 -0.167,0.136 -0.326,0.311 -0.5,0.419 -0.218,0.136 -0.469,0.156 -0.696,0.206 -0.513,0.113 -1.028,0.139 -1.541,0.233 -0.253,0.046 -0.493,0.205 -0.743,0.289 -0.267,0.09 -0.506,0.247 -0.748,0.477 -0.148,0.139 -0.239,0.276 -0.346,0.494 -0.09,0.183 -0.11,0.241 -0.138,0.479 -0.021,0.181 -0.03,0.339 -0.027,0.527 0.003,0.193 0.063,0.267 0.121,0.414 0.051,0.13 0.116,0.29 0.187,0.387 0.05,0.068 0.113,0.082 0.171,0.123 0.122,0.087 0.255,-0.003 0.371,0.077 C -4.282,4.707 -4.354,4.811 -4.4,4.878 -4.442,4.94 -4.483,4.971 -4.535,5.003 -4.595,5.041 -4.65,5.117 -4.707,5.152 -4.826,5.224 -5,5.163 -5.123,5.163 -5.222,5.163 -5.327,5.188 -5.425,5.171 -5.523,5.154 -5.584,5.027 -5.663,4.936 -5.784,4.797 -5.91,4.673 -5.962,4.401 -6.016,4.121 -6.035,3.745 -6.038,3.449 -6.039,3.298 -6.036,3.147 -6.037,2.996 c 0,-0.125 -0.017,-0.293 0.002,-0.413 0.03,-0.198 0.163,-0.408 0.258,-0.506 0.111,-0.113 0.235,-0.19 0.356,-0.26 0.121,-0.07 0.238,-0.202 0.366,-0.226 0.128,-0.025 0.253,0.018 0.381,-0.029 0.084,-0.031 0.17,-0.036 0.255,-0.062 0.075,-0.024 0.148,-0.081 0.223,-0.099 0.171,-0.041 0.336,-0.13 0.505,-0.205 0.193,-0.087 0.395,-0.141 0.586,-0.24 0.16,-0.083 0.324,-0.059 0.487,-0.113 0.198,-0.066 0.4,-0.003 0.6,-0.076 0.28,-0.101 0.566,-0.184 0.842,-0.321 0.112,-0.055 0.225,-0.104 0.338,-0.154 0.094,-0.041 0.192,-0.03 0.284,-0.096 0.087,-0.063 0.165,-0.17 0.26,-0.193 0.045,-0.012 0.093,0.012 0.138,-0.008 C -0.047,-0.056 -0.07,-0.196 0,0"
             style="fill:#000000;fill-opacity:1;fill-rule:nonzero;stroke:none"
             id="path1841" />
        </g>
        <g
           id="g1843"
           transform="translate(65.897,117.278)">
          <path
             d="M 0,0 C -0.023,0.217 -0.255,0.238 -0.347,0.278 -0.638,0.402 -0.95,0.431 -1.248,0.353 -1.455,0.299 -1.645,0.303 -1.853,0.285 -1.985,0.275 -2.111,0.195 -2.244,0.18 -2.635,0.135 -2.972,0.327 -3.326,0.596 -3.458,0.697 -3.568,0.749 -3.666,0.935 -3.735,1.067 -3.794,1.217 -3.84,1.381 -3.903,1.607 -3.901,1.805 -3.9,2.056 -3.899,2.29 -3.868,2.496 -3.739,2.598 -3.66,2.66 -3.47,2.668 -3.42,2.514 -3.464,2.644 -3.623,2.739 -3.699,2.78 -3.824,2.848 -4.114,3.103 -4.216,2.924 -4.281,2.81 -4.33,2.498 -4.362,2.338 -4.414,2.086 -4.41,1.836 -4.375,1.589 -4.354,1.436 -4.292,0.996 -4.471,1.128 -4.517,1.162 -4.535,1.261 -4.579,1.3 -4.631,1.346 -4.7,1.35 -4.758,1.398 -5.032,1.627 -5.325,1.77 -5.627,1.779 -5.772,1.783 -6.319,1.897 -6.346,1.514 -6.1,1.415 -5.847,1.409 -5.599,1.313 -5.51,1.278 -5.473,1.191 -5.4,1.116 -5.325,1.039 -5.271,1.072 -5.197,1.012 -5.141,0.966 -5.102,0.83 -5.05,0.766 -5.007,0.713 -4.946,0.673 -4.9,0.631 c 0.136,-0.125 0.24,-0.261 0.391,-0.33 0.13,-0.058 0.224,-0.09 0.357,-0.109 0.191,-0.028 0.402,-0.089 0.591,-0.166 0.187,-0.078 0.377,-0.094 0.561,-0.187 0.206,-0.104 0.387,-0.123 0.599,-0.117 0.215,0.005 0.42,-0.097 0.639,-0.096 0.4,0.004 0.8,0 1.2,0 0.145,0 0.361,0.075 0.503,0.005 0.084,-0.042 0.153,-0.173 0.234,-0.231 0.18,-0.126 0.449,-0.181 0.607,-0.414 -0.19,0.276 -0.411,0.444 -0.603,0.726 -0.119,0.174 -0.221,0.287 -0.366,0.382 -0.136,0.096 -0.276,0.163 -0.421,0.2 -0.2,0.031 -0.364,-0.098 -0.492,-0.387"
             style="fill:#000000;fill-opacity:1;fill-rule:nonzero;stroke:none"
             id="path1845" />
        </g>
        <g
           id="g1847"
           transform="translate(79.8469,119.988)">
          <path
             d="m 0,0 c -0.003,-0.026 -0.006,-0.052 -0.008,-0.077 -0.2,-0.107 -0.403,-0.078 -0.613,-0.118 -0.106,-0.02 -0.21,-0.096 -0.318,-0.099 -0.148,-0.004 -0.225,0.151 -0.35,0.276 -0.084,0.085 -0.171,0.105 -0.26,0.164 -0.105,0.07 -0.194,0.196 -0.29,0.301 -0.18,0.198 -0.368,0.348 -0.562,0.489 -0.118,0.086 -0.205,0.182 -0.333,0.19 -0.114,0.007 -0.224,0.016 -0.338,0.042 -0.212,0.047 -0.416,0.047 -0.629,0.047 -0.212,0 -0.466,0.088 -0.657,-0.089 C -4.583,0.92 -4.766,0.99 -5.003,0.914 -5.224,0.843 -5.435,0.824 -5.662,0.837 -5.948,0.853 -6.265,0.966 -6.529,1.174 -6.694,1.305 -6.943,1.537 -7.05,1.826 -7.133,2.049 -7.196,2.537 -7.152,2.808 -7.108,3.087 -6.891,3.09 -6.767,3.079 -6.841,3.192 -6.888,3.309 -6.975,3.39 -7.023,3.434 -7.056,3.449 -7.107,3.479 -7.192,3.527 -7.352,3.687 -7.442,3.656 -7.507,3.634 -7.516,3.523 -7.571,3.466 -7.632,3.401 -7.725,3.432 -7.791,3.368 -7.921,3.242 -7.972,3.042 -8.037,2.804 -8.129,2.469 -8.145,1.957 -8.015,1.656 c 0.059,-0.135 0.144,-0.288 0.216,-0.395 0.074,-0.109 0.144,-0.238 0.222,-0.318 0.086,-0.089 0.21,-0.136 0.3,-0.207 0.103,-0.081 0.2,-0.142 0.302,-0.219 0.159,-0.123 0.313,-0.236 0.473,-0.369 0.188,-0.157 0.376,-0.167 0.575,-0.276 0.434,-0.237 0.916,-0.403 1.354,-0.066 0.107,0.083 0.164,0.26 0.263,0.367 0.049,0.053 0.117,0.092 0.17,0.131 0.194,0.14 0.403,0.335 0.613,0.353 0.117,0.011 0.268,0.041 0.382,-0.019 0.058,-0.03 0.103,-0.121 0.16,-0.153 0.043,-0.024 0.091,-0.016 0.135,-0.038 0.228,-0.114 0.454,-0.34 0.684,-0.428 0.157,-0.061 0.3,0.01 0.456,-0.108 0.133,-0.099 0.214,-0.169 0.356,-0.188 0.217,-0.029 0.373,-0.234 0.575,-0.354 0.063,-0.038 0.107,-0.086 0.176,-0.046 0.095,0.18 0.2,0.336 0.314,0.469 C -0.112,0.048 0.085,0.242 0,0"
             style="fill:#000000;fill-opacity:1;fill-rule:nonzero;stroke:none"
             id="path1849" />
        </g>
        <g
           id="g1851"
           transform="translate(66.8734,108.55)">
          <path
             d="M 0,0 C 0.056,-0.012 0.076,-0.048 0.058,-0.108 -0.095,-0.156 -0.109,0.012 -0.213,0.093 -0.27,0.137 -0.342,0.124 -0.4,0.16 c -0.068,0.042 -0.109,0.109 -0.171,0.159 -0.12,0.097 -0.231,0.146 -0.35,0.25 -0.176,0.155 -0.302,0.374 -0.474,0.529 -0.291,0.263 -0.646,0.49 -0.906,0.821 -0.316,0.399 -0.667,0.682 -0.988,1.06 C -3.572,3.313 -3.86,3.621 -4.167,3.914 -4.358,4.097 -4.594,4.128 -4.808,4.284 -4.925,4.369 -5.295,4.888 -5.402,4.617 -5.457,4.478 -5.36,4.375 -5.323,4.257 -5.298,4.176 -5.192,3.813 -5.205,3.742 -5.223,3.637 -5.541,3.347 -5.639,3.315 -5.744,3.281 -5.852,3.421 -5.956,3.428 -6.006,3.431 -6.051,3.394 -6.088,3.393 -6.124,3.392 -6.258,3.461 -6.284,3.434 -6.396,3.313 -6.251,2.788 -6.197,2.652 -6.08,2.361 -5.927,2.112 -5.778,1.856 -5.586,1.526 -5.351,1.282 -5.18,0.928 -5.088,0.737 -4.843,0.485 -4.837,0.246 -4.828,-0.159 -5.209,0.123 -5.354,0.132 -5.432,0.137 -5.546,0.146 -5.62,0.131 -5.677,0.12 -5.712,0.071 -5.772,0.076 -5.846,0.082 -5.923,0.181 -5.996,0.179 -6.065,0.177 -6.045,0.152 -6.094,0.135 -6.162,0.112 -6.201,0.081 -6.272,0.069 -6.386,0.049 -6.505,0.011 -6.628,-0.029 c -0.233,-0.076 -0.458,-0.193 -0.707,-0.206 -0.314,-0.017 -0.641,0.137 -0.955,0.262 -0.208,0.082 -0.377,0.216 -0.569,0.369 -0.11,0.087 -0.322,0.199 -0.322,0.402 0.062,0.047 0.102,0.125 0.158,0.182 0.089,0.089 0.191,0.105 0.284,0.169 0.122,0.085 0.239,0.178 0.375,0.242 0.296,0.138 0.41,0.505 0.571,0.872 0.067,0.155 0.101,0.31 0.161,0.487 0.101,0.301 0.289,0.451 0.455,0.679 0.096,0.131 0.203,0.211 0.309,0.315 0.128,0.124 0.203,0.262 0.323,0.407 0.111,0.133 0.234,0.326 0.298,0.5 0.097,0.264 0.11,0.515 0.349,0.55 0.363,0.054 0.797,-0.336 1.109,-0.596 0.264,-0.22 0.548,-0.386 0.813,-0.608 0.258,-0.217 0.539,-0.303 0.808,-0.495 0.161,-0.115 0.327,-0.14 0.493,-0.219 0.162,-0.075 0.221,-0.201 0.346,-0.342 0.207,-0.231 0.427,-0.339 0.623,-0.611 0.133,-0.185 0.264,-0.3 0.407,-0.46 0.148,-0.167 0.241,-0.367 0.411,-0.504 0.152,-0.124 0.3,-0.204 0.439,-0.365 C -0.249,0.77 -0.083,0.573 0.099,0.308 0.184,0.184 0.404,0.079 0.432,-0.093 0.459,-0.259 0.369,-0.295 0.273,-0.33 0.068,-0.405 -0.058,-0.329 0,0"
             style="fill:#000000;fill-opacity:1;fill-rule:nonzero;stroke:none"
             id="path1853" />
        </g>
        <g
           id="g1855"
           transform="translate(84.8469,112.792)">
          <path
             d="M 0,0 H 0.033 C -0.022,0.001 -0.095,-0.027 -0.148,-0.007 -0.232,0.026 -0.3,0.134 -0.38,0.19 c -0.193,0.134 -0.39,0.125 -0.581,0.291 -0.157,0.137 -0.297,0.33 -0.456,0.46 -0.129,0.107 -0.254,0.23 -0.391,0.294 -0.117,0.055 -0.219,0.195 -0.333,0.246 -0.1,0.045 -0.197,-0.02 -0.297,0.031 -0.071,0.036 -0.157,0.134 -0.223,0.191 -0.273,0.234 -0.525,0.624 -0.84,0.542 -0.086,-0.023 -0.082,0.02 -0.102,-0.139 -0.014,-0.117 0.01,-0.178 0.04,-0.263 0.027,-0.077 0.08,-0.135 0.115,-0.196 C -3.349,1.476 -3.291,1.206 -3.186,1.058 -3.131,0.98 -3.057,0.982 -2.999,0.917 -2.925,0.834 -2.878,0.706 -2.8,0.629 -2.748,0.577 -2.69,0.549 -2.647,0.47 -2.626,0.414 -2.606,0.356 -2.588,0.296 -2.562,0.285 -2.535,0.275 -2.509,0.265 -2.361,-0.205 -2.897,-0.093 -3,-0.093 c -0.114,0 -0.239,-0.03 -0.351,-0.003 -0.109,0.027 -0.177,0.094 -0.299,0.096 -0.093,0.001 -0.204,-0.001 -0.204,-0.234 10e-4,-0.209 0.166,-0.269 0.149,-0.5 -0.156,-0.073 -0.259,0.057 -0.394,0.082 -0.086,0.017 -0.141,0.049 -0.226,0.083 -0.072,0.029 -0.143,-0.01 -0.214,0.029 -0.094,0.053 -0.193,0.201 -0.288,0.271 -0.1,0.073 -0.177,0.053 -0.274,0.08 -0.073,0.02 -0.12,0.104 -0.195,0.117 0.014,0.102 0.085,0.1 0.134,0.161 0.063,0.077 0.11,0.186 0.162,0.285 0.097,0.186 0.194,0.334 0.301,0.488 0.086,0.123 0.128,0.318 0.21,0.446 0.1,0.154 0.174,0.271 0.25,0.468 0.076,0.194 0.154,0.419 0.236,0.583 0.085,0.17 0.177,0.414 0.305,0.451 0.091,0.027 0.202,-0.002 0.296,-0.005 0.148,-0.004 0.258,-0.147 0.401,-0.211 0.128,-0.058 0.23,-0.16 0.351,-0.239 0.119,-0.078 0.231,-0.072 0.351,-0.183 0.118,-0.107 0.238,-0.194 0.361,-0.28 0.126,-0.088 0.232,-0.22 0.349,-0.304 0.155,-0.11 0.291,-0.355 0.454,-0.45 C -0.984,1.05 -0.923,1.053 -0.797,0.836 -0.676,0.625 -0.546,0.458 -0.4,0.325 -0.337,0.268 -0.224,0.136 -0.163,0.108 -0.117,0.238 -0.031,0.284 0,0"
             style="fill:#000000;fill-opacity:1;fill-rule:nonzero;stroke:none"
             id="path1857" />
        </g>
      </g>
    </g>
  </g>
</svg>
