<?xml version="1.0" encoding="UTF-8" standalone="no"?>
<!-- Created with Inkscape (http://www.inkscape.org/) -->

<svg
   width="23.600483"
   height="24"
   viewBox="0 0 6.2442944 6.35"
   version="1.1"
   id="svg7049"
   inkscape:version="1.2.1 (9c6d41e4, 2022-07-14)"
   sodipodi:docname="the-nights-ursurper.svg"
   xmlns:inkscape="http://www.inkscape.org/namespaces/inkscape"
   xmlns:sodipodi="http://sodipodi.sourceforge.net/DTD/sodipodi-0.dtd"
   xmlns="http://www.w3.org/2000/svg"
   xmlns:svg="http://www.w3.org/2000/svg">
  <sodipodi:namedview
     id="namedview7051"
     pagecolor="#505050"
     bordercolor="#eeeeee"
     borderopacity="1"
     inkscape:showpageshadow="0"
     inkscape:pageopacity="0"
     inkscape:pagecheckerboard="0"
     inkscape:deskcolor="#505050"
     inkscape:document-units="mm"
     showgrid="false"
     inkscape:zoom="0.7046647"
     inkscape:cx="99.338025"
     inkscape:cy="141.20191"
     inkscape:window-width="1390"
     inkscape:window-height="941"
     inkscape:window-x="0"
     inkscape:window-y="25"
     inkscape:window-maximized="0"
     inkscape:current-layer="layer1" />
  <defs
     id="defs7046">
    <clipPath
       clipPathUnits="userSpaceOnUse"
       id="clipPath1765">
      <path
         d="m 56.886,37.894 h 28.8 v 28.8 h -28.8 z"
         id="path1763" />
    </clipPath>
  </defs>
  <g
     inkscape:label="Layer 1"
     inkscape:groupmode="layer"
     id="layer1"
     transform="translate(-78.731203,-111.3446)">
    <g
       id="g1759"
       transform="matrix(0.24813466,0,0,-0.24813466,64.164766,127.49542)">
      <g
         id="g1761"
         clip-path="url(#clipPath1765)">
        <g
           id="g1767"
           transform="translate(81.2137,41.3307)">
          <path
             d="m 0,0 -0.15,0.9 c 0,-0.269 0,-0.539 0,-0.808 C -0.117,0.045 -0.072,0.01 0,0"
             style="fill:#000000;fill-opacity:1;fill-rule:nonzero;stroke:none"
             id="path1769" />
        </g>
        <g
           id="g1771"
           transform="translate(81.0637,54.9308)">
          <path
             d="M 0,0 C 0.003,0.014 0.006,0.028 0.009,0.041 0.159,0.085 0.191,0.011 0.299,-0.063 0.421,-0.146 0.447,-0.19 0.45,-0.35 0.452,-0.463 0.468,-0.598 0.442,-0.709 0.416,-0.821 0.322,-0.938 0.264,-1.036 0.212,-1.123 0.165,-1.213 0.1,-1.292 0.023,-1.384 -0.074,-1.447 -0.153,-1.54 -0.226,-1.626 -0.28,-1.655 -0.385,-1.7 -0.582,-1.784 -0.786,-1.865 -0.988,-1.939 -1.173,-2.007 -1.384,-2.013 -1.556,-2.097 -1.827,-2.23 -2.123,-2.224 -2.394,-2.343 -2.715,-2.486 -3.076,-2.566 -3.379,-2.75 c -0.301,-0.183 -0.623,-0.341 -0.91,-0.547 -0.167,-0.12 -0.34,-0.25 -0.501,-0.378 -0.106,-0.084 -0.191,-0.192 -0.307,-0.264 -0.185,-0.115 -0.328,-0.206 -0.483,-0.365 -0.087,-0.089 -0.173,-0.193 -0.272,-0.269 -0.066,-0.051 -0.136,-0.076 -0.195,-0.134 -0.095,-0.093 -0.176,-0.2 -0.254,-0.307 -0.116,-0.159 -0.265,-0.303 -0.351,-0.484 -0.063,-0.131 -0.063,-0.279 -0.12,-0.413 -0.051,-0.12 -0.118,-0.215 -0.143,-0.347 -0.045,-0.234 -0.074,-0.465 -0.135,-0.697 -0.021,-0.08 -0.052,-0.378 -0.142,-0.43 0.036,0.069 0.053,0.154 0.086,0.228 0.089,0.201 0.214,0.405 0.32,0.599 0.177,0.323 0.388,0.634 0.635,0.908 0.165,0.183 0.306,0.387 0.501,0.542 0.101,0.066 0.197,0.139 0.289,0.219 0.077,0.098 0.164,0.188 0.26,0.269 0.266,0.202 0.597,0.376 0.899,0.521 0.405,0.195 0.81,0.157 1.241,0.21 0.374,0.046 0.74,0.018 1.116,0.036 0.188,0.01 0.362,0.048 0.552,0.052 0.224,0.004 0.441,0.038 0.655,0.1 0.382,0.112 0.718,0.251 1.061,0.455 0.602,0.36 1.146,0.845 1.329,1.548 0.12,0.464 0.174,0.926 -0.125,1.327 -0.056,0.076 -0.125,0.147 -0.18,0.222 C 1.394,-0.075 1.372,0.001 1.29,0.054 1.218,0.1 1.129,0.104 1.051,0.136 0.968,0.171 0.892,0.207 0.802,0.227 0.577,0.277 0.329,0.25 0.1,0.25 -0.1,0.25 -0.445,0.349 0,0"
             style="fill:#000000;fill-opacity:1;fill-rule:nonzero;stroke:none"
             id="path1773" />
        </g>
        <g
           id="g1775"
           transform="translate(81.9637,48.6307)">
          <path
             d="M 0,0 C 0,-0.109 0.013,-0.221 -0.022,-0.324 -0.102,-0.557 -0.303,-0.695 -0.504,-0.809 -0.68,-0.909 -0.837,-1.005 -1.042,-1.042 -1.196,-1.071 -1.343,-1.106 -1.496,-1.138 -1.851,-1.21 -2.207,-1.273 -2.561,-1.35 -2.788,-1.399 -3.017,-1.429 -3.245,-1.471 -3.44,-1.506 -3.637,-1.49 -3.83,-1.532 -4.192,-1.609 -4.476,-1.799 -4.796,-1.96 -5.328,-2.227 -5.729,-2.625 -6.156,-3.026 -6.352,-3.21 -6.491,-3.394 -6.663,-3.601 -6.738,-3.691 -6.804,-3.759 -6.841,-3.875 -6.87,-3.966 -6.88,-4.063 -6.911,-4.152 -6.935,-4.222 -6.989,-4.278 -7.004,-4.35 -7.015,-4.405 -7,-4.48 -7,-4.539 c 0.001,-0.153 -0.006,-0.285 0.05,-0.432 0.093,-0.244 0.159,-0.496 0.287,-0.729 0.104,-0.191 0.364,-0.298 0.547,-0.405 -0.078,-0.006 -0.192,0.098 -0.237,0.153 -0.108,0.133 -0.144,0.361 -0.149,0.524 -0.005,0.184 -0.047,0.478 0.027,0.652 0.092,0.215 0.317,0.413 0.473,0.58 0.232,0.251 0.481,0.498 0.761,0.698 0.249,0.18 0.592,0.289 0.879,0.399 0.317,0.122 0.616,0.205 0.958,0.2 0.338,-0.005 0.666,0.052 1.002,0.05 0.593,-0.003 1.163,-0.096 1.754,-10e-4 0.377,0.061 0.752,0.171 1.109,0.3 0.36,0.13 0.677,0.292 0.846,0.656 0.119,0.255 0.348,0.433 0.445,0.696 0.03,0.083 0.073,0.275 0.153,0.331 C 1.817,-1.063 1.645,-1.11 1.46,-1.186 1.363,-1.226 1.333,-1.296 1.254,-1.354 1.183,-1.406 0.998,-1.442 0.905,-1.445 c -0.043,0.134 0.147,0.313 0.184,0.441 0.079,0.276 0.136,0.517 0.113,0.808 C 1.171,0.2 0.867,0.66 0.581,0.921 0.524,0.973 0.345,1.191 0.259,1.106 0.226,1.074 0.206,0.893 0.2,0.853 0.185,0.759 0.169,0.676 0.137,0.585 0.084,0.429 -0.011,0.274 -0.04,0.11 -0.046,0.078 -0.038,-0.009 -0.058,-0.039 -0.102,-0.105 -0.175,-0.089 0,0"
             style="fill:#000000;fill-opacity:1;fill-rule:nonzero;stroke:none"
             id="path1777" />
        </g>
        <g
           id="g1779"
           transform="translate(68.9137,48.5307)">
          <path
             d="m 0,0 c -0.026,0.102 0.117,0.254 0.152,0.346 0.107,0.281 0.085,0.682 -0.034,0.95 -0.164,0.371 -0.31,0.777 -0.619,1.055 -0.255,0.229 -0.592,0.426 -0.907,0.563 -0.376,0.163 -0.791,0.261 -1.188,0.363 -0.449,0.115 -0.912,0.087 -1.351,0.25 -0.389,0.144 -0.716,0.372 -1.059,0.598 -0.367,0.241 -0.641,0.477 -0.844,0.873 -0.054,0.105 -0.091,0.215 -0.132,0.324 -0.059,0.159 -0.05,0.295 -0.08,0.462 -0.035,0.191 -0.043,0.324 0.04,0.514 0.07,0.157 0.278,0.243 0.434,0.292 0.13,0.042 0.277,0.06 0.413,0.06 0.145,0 0.146,-0.001 0.211,-0.114 0.05,-0.087 0.09,-0.134 0.114,-0.236 0.016,-0.068 0.03,-0.188 0.139,-0.141 0.11,0.047 0.11,0.289 0.112,0.38 0.007,0.333 -0.234,0.626 -0.56,0.711 C -5.342,7.298 -5.515,7.319 -5.7,7.276 -5.773,7.259 -5.847,7.241 -5.919,7.225 -6.004,7.206 -6.076,7.216 -6.16,7.205 -6.383,7.176 -6.571,6.994 -6.751,6.879 -6.834,6.827 -6.929,6.789 -7.002,6.723 -7.087,6.645 -7.141,6.536 -7.201,6.438 -7.444,6.039 -7.436,5.498 -7.496,5.052 -7.52,4.867 -7.467,4.773 -7.38,4.619 -7.255,4.401 -7.161,4.206 -6.975,4.025 -6.797,3.853 -6.667,3.633 -6.473,3.477 -6.239,3.288 -5.999,3.101 -5.729,2.97 -5.438,2.829 -5.153,2.636 -4.85,2.537 c 0.213,-0.07 0.427,-0.128 0.626,-0.233 0.16,-0.085 0.32,-0.193 0.489,-0.259 0.112,-0.043 0.24,-0.063 0.356,-0.095 0.143,-0.038 0.291,-0.063 0.436,-0.089 0.092,-0.016 0.217,-0.068 0.307,-0.066 0.082,0.001 0.155,0.051 0.238,0.057 C -2.287,1.86 -2.159,1.861 -2.05,1.84 -1.837,1.799 -1.635,1.731 -1.423,1.701 -1.28,1.682 -1.152,1.575 -1.039,1.489 -0.974,1.44 -0.896,1.396 -0.847,1.331 -0.808,1.279 -0.823,1.252 -0.801,1.199 -0.755,1.089 -0.634,0.985 -0.603,0.871 -0.582,0.792 -0.597,0.727 -0.564,0.649 -0.534,0.579 -0.493,0.515 -0.451,0.453 -0.394,0.368 -0.367,0.288 -0.32,0.198 -0.283,0.126 -0.221,0.074 -0.185,0 -0.134,-0.105 -0.07,-0.222 -0.109,-0.341 -0.122,-0.344 -0.136,-0.347 0,0"
             style="fill:#000000;fill-opacity:1;fill-rule:nonzero;stroke:none"
             id="path1781" />
        </g>
        <g
           id="g1783"
           transform="translate(68.8137,43.7807)">
          <path
             d="m 0,0 c -0.237,0.47 -0.601,0.937 -1.051,1.24 -0.448,0.301 -0.908,0.596 -1.277,0.999 -0.31,0.339 -0.661,0.65 -1.061,0.873 -0.167,0.093 -0.304,0.233 -0.466,0.332 -0.117,0.072 -0.226,0.107 -0.34,0.191 -0.293,0.218 -0.732,0.406 -1.085,0.496 -0.148,0.038 -0.289,0.002 -0.436,0.03 -0.076,0.015 -0.13,0.037 -0.209,0.04 C -6.072,4.206 -6.171,4.175 -6.309,4.147 -6.368,4.149 -6.428,4.151 -6.488,4.153 -6.543,4.146 -6.597,4.132 -6.65,4.111 -6.75,4.095 -6.848,4.1 -6.95,4.1 -7.165,4.101 -7.337,4.114 -7.54,4.199 -7.665,4.251 -7.705,4.315 -7.799,4.402 -7.868,4.466 -7.954,4.509 -8.027,4.569 -8.198,4.709 -8.266,4.903 -8.376,5.09 -8.462,5.235 -8.447,5.343 -8.449,5.507 -8.45,5.631 -8.492,5.735 -8.502,5.854 c -0.008,0.087 0.021,0.151 0.04,0.234 0.04,0.176 0.12,0.285 0.244,0.416 -0.1,-0.026 -0.104,0.04 -0.181,0.05 C -8.51,6.568 -8.515,6.483 -8.575,6.404 -8.628,6.335 -8.693,6.317 -8.753,6.264 -8.788,6.232 -8.838,6.16 -8.864,6.114 -8.894,6.061 -8.9,5.992 -8.969,6.002 -9.026,6.009 -9.064,6.106 -9.088,6.149 -9.128,6.224 -9.168,6.318 -9.189,6.4 -9.209,6.482 -9.186,6.565 -9.21,6.646 -9.275,6.633 -9.275,6.556 -9.308,6.502 -9.377,6.388 -9.504,6.307 -9.588,6.203 -9.74,6.012 -9.884,5.808 -9.989,5.586 c -0.093,-0.198 -0.141,-0.375 -0.113,-0.6 0.024,-0.203 0.132,-0.438 0.245,-0.607 0.109,-0.163 0.242,-0.34 0.379,-0.48 0.069,-0.07 0.16,-0.09 0.238,-0.144 C -9.144,3.689 -9.077,3.603 -8.974,3.542 -8.667,3.359 -8.365,3.157 -8.118,2.897 -8.324,2.943 -8.532,2.771 -8.615,2.6 -8.694,2.437 -8.703,2.239 -8.701,2.062 c 0.002,-0.173 -0.051,-0.447 0.012,-0.61 0.033,0.008 0.059,0.073 0.075,0.108 0.046,0.097 0.081,0.173 0.159,0.251 0.222,0.222 0.488,0.381 0.808,0.432 0.253,0.04 0.529,0.004 0.786,0.008 0.36,0.006 0.727,-0.179 1.076,-0.262 0.631,-0.15 1.114,-0.6 1.636,-0.951 0.352,-0.237 0.569,-0.587 0.849,-0.892 0.093,-0.1 0.234,-0.121 0.35,-0.196 0.125,-0.081 0.266,-0.145 0.4,-0.212 0.259,-0.13 0.613,-0.192 0.804,-0.427 0.06,-0.074 0.141,-0.169 0.197,-0.26 0.082,-0.132 0.112,-0.311 0.149,-0.463 0.055,-0.226 0.126,-0.446 0.15,-0.679 0.02,-0.2 0.129,-0.364 0.161,-0.555 0.073,0.017 0.037,0.128 0.028,0.189 -0.031,0.203 -0.039,0.436 -0.099,0.636 -0.062,0.208 -0.179,0.406 -0.288,0.592 -0.171,0.293 -0.302,0.589 -0.502,0.863 -0.125,0.173 -0.275,0.304 -0.412,0.463 -0.149,0.173 -0.285,0.353 -0.448,0.513 -0.173,0.17 -0.358,0.352 -0.502,0.549 -0.094,0.128 -0.322,0.364 -0.231,0.538 0.077,0.011 0.221,0.029 0.296,0.007 0.124,-0.039 0.251,-0.309 0.345,-0.395 0.108,-0.1 0.24,-0.166 0.352,-0.262 0.106,-0.091 0.19,-0.209 0.303,-0.292 0.133,-0.096 0.306,-0.183 0.458,-0.244 0.196,-0.078 0.378,-0.105 0.566,-0.21 0.166,-0.094 0.32,-0.214 0.486,-0.304 0.352,-0.189 0.643,-0.499 0.849,-0.844 0.156,-0.005 0.155,0.275 0.134,0.372 C 0.222,-0.367 0.152,-0.251 0.108,-0.149 -0.059,0.238 -0.333,0.56 -0.5,0.95"
             style="fill:#000000;fill-opacity:1;fill-rule:nonzero;stroke:none"
             id="path1785" />
        </g>
        <g
           id="g1787"
           transform="translate(75.9647,57.692)">
          <path
             d="m 0,0 c -0.184,-0.142 -0.363,-0.288 -0.538,-0.446 -0.113,-0.101 -0.181,-0.23 -0.281,-0.34 -0.084,-0.092 -0.176,-0.161 -0.235,-0.271 -0.093,-0.176 -0.204,-0.391 -0.348,-0.532 -0.188,-0.183 -0.327,-0.44 -0.452,-0.676 -0.051,-0.097 -0.092,-0.208 -0.148,-0.298 -0.027,-0.043 -0.09,-0.099 -0.099,-0.148 -0.158,-0.292 -0.175,-0.199 -0.35,-0.2 -0.114,-10e-4 -0.193,0.027 -0.3,0.064 -0.327,0.113 -0.683,0.156 -1.025,0.211 -0.203,0.033 -0.403,0.025 -0.608,0.024 -0.322,-10e-4 -0.646,0.08 -0.966,0.042 -0.296,-0.035 -0.587,-0.094 -0.887,-0.092 -0.091,0 -0.167,-0.021 -0.228,0.046 -0.039,0.043 -0.053,0.144 -0.083,0.193 -0.038,0.06 -0.092,0.101 -0.124,0.166 -0.056,0.116 -0.09,0.249 -0.133,0.369 -0.145,0.396 -0.273,0.819 -0.498,1.18 -0.309,0.496 -0.688,0.942 -1.019,1.424 -0.167,0.242 -0.367,0.493 -0.501,0.755 -0.055,0.108 -0.107,0.383 -0.273,0.379 0.012,0.067 0.219,0.141 0.283,0.188 0.164,0.119 0.258,0.175 0.45,0.237 0.094,0.031 0.17,0.075 0.261,0.115 0.095,0.043 0.195,0.046 0.29,0.084 0.093,0.037 0.166,0.098 0.264,0.13 0.05,0.016 0.1,0.023 0.148,0.045 0.136,0.062 0.227,0.184 0.357,0.251 0.153,0.08 0.344,0.109 0.49,0.196 0.177,0.107 0.311,0.265 0.51,0.345 0.159,0.063 0.311,0.148 0.454,0.245 0.163,0.111 0.314,0.232 0.478,0.34 0.124,0.083 0.199,0.199 0.309,0.3 0.305,0.283 0.595,0.604 0.917,0.866 0.082,0.067 0.158,0.184 0.244,0.237 0.058,0.036 0.172,0.01 0.24,0.01 0.113,0 0.135,0.002 0.213,-0.049 0.09,-0.06 0.133,-0.157 0.2,-0.24 0.49,-0.616 1,-1.232 1.54,-1.804 C -1.085,2.961 -0.606,2.729 -0.247,2.338 0.046,2.018 0.36,1.724 0.655,1.408 0.711,1.348 0.912,1.225 0.905,1.136 0.9,1.077 0.794,0.981 0.76,0.936 0.653,0.795 0.575,0.638 0.487,0.486 0.415,0.365 0.309,0.28 0.196,0.2 0.112,0.14 0.083,0.064 0,0 m 5.099,-16.414 v 0.145 c -0.062,0.089 -0.074,0.224 -0.108,0.332 -0.137,0.45 -0.353,0.837 -0.531,1.268 -0.168,0.408 -0.301,0.847 -0.426,1.271 -0.041,0.14 -0.071,0.265 -0.098,0.405 -0.033,0.165 -0.104,0.318 -0.132,0.48 -0.08,0.455 -0.208,0.921 -0.352,1.363 -0.16,0.489 -0.391,0.967 -0.526,1.462 -0.088,0.325 -0.174,0.668 -0.327,0.974 -0.088,0.178 -0.13,0.37 -0.189,0.557 -0.047,0.15 -0.107,0.296 -0.149,0.448 -0.065,0.234 -0.147,0.467 -0.223,0.697 -0.043,0.129 -0.138,0.239 -0.18,0.366 -0.038,0.112 -0.042,0.23 -0.068,0.344 -0.042,0.19 -0.151,0.381 -0.196,0.561 -0.035,0.142 -0.101,0.271 -0.157,0.419 -0.025,0.063 -0.058,0.148 -0.088,0.213 -0.035,0.077 -0.028,0.118 -0.047,0.201 -0.005,0.021 -0.039,0.046 -0.042,0.058 -0.008,0.037 0,0.081 -0.01,0.115 -0.02,0.072 -0.039,0.138 -0.062,0.213 -0.035,0.115 -0.114,0.237 -0.142,0.358 -0.016,0.07 0.038,0.154 -0.024,0.201 -0.043,0.032 -0.212,0.002 -0.273,0.002 -0.109,-0.001 -0.16,-0.009 -0.251,0.049 -0.093,0.059 -0.101,0.073 -0.199,0.101 -0.083,0.024 -0.149,0.015 -0.092,0.15 0.042,0.101 0.18,0.18 0.254,0.259 0.111,0.117 0.146,0.261 0.237,0.389 0.089,0.126 0.17,0.26 0.252,0.391 0.091,0.144 0.188,0.276 0.239,0.44 0.059,0.188 0.183,0.334 0.256,0.519 0.055,0.14 0.144,0.247 0.203,0.387 0.08,0.191 0.227,0.332 0.302,0.525 0.127,0.327 0.31,0.628 0.524,0.909 0.081,0.107 0.176,0.207 0.221,0.331 0.022,0.061 0.019,0.098 0.051,0.16 0.03,0.056 0.08,0.116 0.096,0.181 0.025,0.104 0.029,0.184 0.071,0.287 0.033,0.079 0.062,0.177 0.041,0.27 C 2.865,1.773 2.377,1.981 2.139,2.259 1.909,2.527 1.653,2.745 1.41,2.998 1.106,3.313 0.852,3.686 0.563,4.016 0.47,4.123 0.377,4.21 0.273,4.302 0.136,4.425 0.026,4.578 -0.114,4.695 -0.277,4.83 -0.482,4.909 -0.647,5.041 -0.823,5.182 -0.922,5.396 -1.105,5.533 -1.274,5.66 -1.388,5.804 -1.537,5.953 -1.676,6.091 -1.832,6.256 -2.006,6.345 -2.098,6.392 -2.143,6.424 -2.221,6.488 -2.328,6.575 -2.465,6.622 -2.572,6.715 -2.692,6.818 -2.805,6.936 -2.951,7.004 -3.104,7.075 -3.263,7.117 -3.413,7.2 -3.534,7.267 -3.702,7.42 -3.854,7.394 -3.889,7.388 -3.888,7.35 -3.917,7.34 -4.01,7.307 -4.102,7.291 -4.195,7.26 -4.404,7.191 -4.557,7.037 -4.748,6.938 -4.915,6.851 -5.094,6.796 -5.258,6.705 -5.466,6.59 -5.665,6.483 -5.883,6.391 -6.164,6.275 -6.433,6.162 -6.65,5.942 -6.885,5.704 -7.158,5.519 -7.408,5.296 -7.826,4.925 -8.239,4.557 -8.655,4.185 -8.811,4.046 -8.985,3.928 -9.151,3.801 -9.33,3.665 -9.559,3.583 -9.713,3.426 c -0.131,-0.132 -0.298,-0.174 -0.44,-0.292 -0.16,-0.132 -0.285,-0.323 -0.43,-0.473 -0.137,-0.144 -0.178,-0.394 -0.268,-0.573 -0.061,-0.122 -0.17,-0.235 -0.148,-0.376 0.031,-0.203 0.205,-0.396 0.301,-0.575 0.123,-0.232 0.16,-0.507 0.308,-0.723 0.143,-0.207 0.193,-0.448 0.347,-0.648 0.212,-0.276 0.386,-0.618 0.631,-0.868 0.176,-0.181 0.307,-0.392 0.463,-0.592 0.112,-0.144 0.224,-0.285 0.34,-0.424 0.076,-0.091 0.194,-0.192 0.253,-0.298 0.024,-0.044 0.024,-0.105 0.05,-0.155 0.046,-0.086 0.123,-0.158 0.184,-0.233 0.064,-0.078 0.117,-0.154 0.155,-0.25 -0.129,-0.03 -0.356,-0.03 -0.485,0.004 -0.15,0.039 -0.288,0.039 -0.448,0.039 -0.188,0 -0.291,0 -0.451,-0.1 -0.063,-0.04 -0.126,-0.072 -0.165,-0.138 -0.056,-0.095 -0.06,-0.212 -0.119,-0.322 -0.273,-0.504 -0.544,-1.008 -0.798,-1.523 -0.111,-0.226 -0.178,-0.468 -0.293,-0.695 -0.118,-0.231 -0.249,-0.458 -0.364,-0.689 -0.114,-0.23 -0.141,-0.494 -0.257,-0.728 -0.148,-0.299 -0.264,-0.608 -0.405,-0.909 -0.134,-0.283 -0.237,-0.582 -0.388,-0.856 -0.131,-0.24 -0.281,-0.431 -0.36,-0.695 -0.071,-0.24 -0.138,-0.492 -0.262,-0.711 -0.114,-0.2 -0.225,-0.361 -0.291,-0.586 -0.06,-0.202 -0.129,-0.399 -0.197,-0.599 -0.088,-0.261 -0.246,-0.464 -0.291,-0.742 -0.028,-0.171 -0.101,-0.295 -0.15,-0.455 -0.034,-0.113 -0.025,-0.246 -0.07,-0.353 -0.014,-0.035 -0.061,-0.074 -0.078,-0.106 -0.029,-0.058 -0.032,-0.136 -0.059,-0.195 -0.066,-0.141 -0.167,-0.291 -0.265,-0.41 -0.067,-0.081 -0.131,-0.173 -0.188,-0.25 -0.046,-0.063 -0.107,-0.117 -0.152,-0.177 -0.069,-0.09 -0.068,-0.222 -0.097,-0.338 -0.029,-0.118 -0.139,-0.244 -0.096,-0.382 0.04,-0.128 0.175,-0.191 0.245,-0.296 0.046,-0.068 0.074,-0.174 0.109,-0.242 0.062,-0.123 0.142,-0.24 0.216,-0.356 0.102,-0.16 0.18,-0.236 0.324,-0.343 0.143,-0.107 0.255,-0.259 0.401,-0.368 0.239,-0.178 0.478,-0.247 0.669,-0.492 0.092,-0.116 0.193,-0.225 0.282,-0.343 0.089,-0.117 0.146,-0.246 0.249,-0.352 0.083,-0.085 0.15,-0.151 0.253,-0.2 0.04,-0.02 0.125,-0.052 0.14,-0.084 -0.058,0.063 -0.043,0.165 -0.055,0.245 -0.021,0.137 -0.04,0.253 -0.038,0.39 0.002,0.285 -0.038,0.563 0.069,0.825 0.052,0.126 0.052,0.264 0.079,0.397 0.03,0.144 0.097,0.252 0.152,0.385 0.059,0.142 0.092,0.294 0.15,0.436 0.063,0.154 0.146,0.296 0.201,0.454 0.106,0.304 0.197,0.601 0.325,0.898 0.129,0.3 0.252,0.618 0.35,0.93 0.092,0.287 0.209,0.544 0.334,0.82 0.153,0.337 0.29,0.676 0.437,1.015 0.134,0.307 0.281,0.614 0.353,0.942 0.036,0.164 0.075,0.321 0.125,0.481 0.055,0.18 0.137,0.345 0.196,0.52 0.043,0.128 0.045,0.265 0.078,0.395 0.027,0.11 0.078,0.212 0.112,0.32 0.094,0.301 0.225,0.59 0.301,0.894 0.17,0.676 0.433,1.359 0.593,2.012 0.051,0.208 0.123,0.436 0.193,0.626 0.034,0.093 0.036,0.069 0.129,0.1 0.034,0.012 0.074,0.038 0.106,0.046 0.084,0.019 0.172,-0.013 0.257,0.001 0.066,0.011 0.117,0.045 0.183,0.055 0.205,0.029 0.421,-0.031 0.627,0.008 0.291,0.055 0.565,0.141 0.864,0.142 0.281,10e-4 0.517,-0.147 0.79,-0.154 0.254,-0.008 0.495,-0.021 0.746,-0.077 0.281,-0.064 0.548,-0.148 0.838,-0.174 0.28,-0.024 0.543,0.01 0.823,-0.058 0.218,-0.053 0.39,-0.091 0.613,-0.089 0.173,0.002 0.331,-0.051 0.505,-0.05 0.197,0.001 0.556,0.07 0.679,-0.117 0.067,-0.101 0.079,-0.248 0.103,-0.364 0.064,-0.298 0.13,-0.61 0.254,-0.888 0.236,-0.529 0.563,-1.01 0.742,-1.566 0.05,-0.155 0.039,-0.312 0.095,-0.466 0.118,-0.32 0.307,-0.61 0.429,-0.93 0.167,-0.436 0.318,-0.877 0.46,-1.318 0.104,-0.323 0.283,-0.611 0.404,-0.926 0.103,-0.269 0.147,-0.557 0.232,-0.832 0.084,-0.272 0.198,-0.535 0.309,-0.797 0.111,-0.263 0.284,-0.493 0.359,-0.771 0.023,-0.085 0.04,-0.17 0.059,-0.256 0.033,-0.151 0.118,-0.292 0.144,-0.442 0.018,-0.104 -10e-4,-0.215 0.013,-0.322 0.021,-0.153 0.092,-0.36 0.03,-0.511 -0.011,-0.026 -0.047,-0.045 -0.06,-0.072 -0.027,-0.056 -0.037,-0.109 -0.054,-0.169 -0.048,-0.17 -0.146,-0.305 -0.18,-0.48 -0.067,-0.346 -0.072,-0.711 -0.247,-1.027 -0.041,-0.074 -0.105,-0.124 -0.152,-0.19 -0.087,-0.12 -0.046,-0.297 -0.055,-0.439 0.124,0.115 0.273,0.099 0.406,0.189 0.098,0.066 0.17,0.158 0.276,0.217 0.088,0.048 0.185,0.081 0.276,0.126 0.176,0.085 0.317,0.219 0.495,0.301 0.184,0.084 0.37,0.164 0.553,0.25 0.221,0.102 0.439,0.199 0.628,0.354 0.049,0.041 0.073,0.114 0.123,0.151 0.017,0.013 0.112,0.036 0.123,0.049 0.023,0.026 0.015,0.041 0.028,0.072 z"
             style="fill:#000000;fill-opacity:1;fill-rule:nonzero;stroke:none"
             id="path1789" />
        </g>
      </g>
    </g>
  </g>
</svg>
