<?xml version="1.0" encoding="UTF-8" standalone="no"?>
<!-- Created with Inkscape (http://www.inkscape.org/) -->

<svg
   width="26.696217"
   height="24"
   viewBox="0 0 7.0633739 6.35"
   version="1.1"
   id="svg6961"
   inkscape:version="1.2.1 (9c6d41e4, 2022-07-14)"
   sodipodi:docname="the-eternal-slumber.svg"
   xmlns:inkscape="http://www.inkscape.org/namespaces/inkscape"
   xmlns:sodipodi="http://sodipodi.sourceforge.net/DTD/sodipodi-0.dtd"
   xmlns="http://www.w3.org/2000/svg"
   xmlns:svg="http://www.w3.org/2000/svg">
  <sodipodi:namedview
     id="namedview6963"
     pagecolor="#505050"
     bordercolor="#eeeeee"
     borderopacity="1"
     inkscape:showpageshadow="0"
     inkscape:pageopacity="0"
     inkscape:pagecheckerboard="0"
     inkscape:deskcolor="#505050"
     inkscape:document-units="mm"
     showgrid="false"
     inkscape:zoom="0.7046647"
     inkscape:cx="-129.13943"
     inkscape:cy="166.74597"
     inkscape:window-width="1390"
     inkscape:window-height="941"
     inkscape:window-x="0"
     inkscape:window-y="25"
     inkscape:window-maximized="0"
     inkscape:current-layer="layer1" />
  <defs
     id="defs6958">
    <clipPath
       clipPathUnits="userSpaceOnUse"
       id="clipPath1817">
      <path
         d="m 56.886,69.346 h 28.8 v 28.8 h -28.8 z"
         id="path1815" />
    </clipPath>
  </defs>
  <g
     inkscape:label="Layer 1"
     inkscape:groupmode="layer"
     id="layer1"
     transform="translate(-139.14847,-104.58606)">
    <g
       id="g1811"
       transform="matrix(0.24968843,0,0,-0.24968843,124.88079,128.67138)">
      <g
         id="g1813"
         clip-path="url(#clipPath1817)">
        <g
           id="g1819"
           transform="translate(74.5948,81.7885)">
          <path
             d="m 0,0 c 0.135,-0.095 0.293,-0.12 0.431,-0.202 0.112,-0.066 0.234,-0.161 0.369,-0.163 0.061,0 0.129,0.023 0.188,0.033 0.086,0.013 0.173,0.056 0.259,0.075 0.145,0.033 0.273,0.128 0.418,0.157 0.067,0.013 0.119,0.036 0.184,0.053 0.091,0.024 0.174,0.026 0.257,0.079 C 2.227,0.11 2.302,0.245 2.381,0.36 2.474,0.495 2.535,0.654 2.567,0.814 2.595,0.953 2.639,1.075 2.634,1.218 2.628,1.358 2.623,1.514 2.606,1.652 2.6,1.698 2.586,1.743 2.579,1.789 2.573,1.836 2.559,1.879 2.553,1.926 2.541,2.021 2.48,2.119 2.445,2.208 2.427,2.255 2.41,2.267 2.378,2.299 2.365,2.312 2.372,2.33 2.355,2.344 2.34,2.355 2.314,2.351 2.299,2.363 2.272,2.383 2.258,2.423 2.23,2.447 2.201,2.472 2.171,2.494 2.142,2.518 2.091,2.559 2.026,2.602 1.97,2.63 1.933,2.649 1.905,2.663 1.873,2.688 1.863,2.695 1.83,2.722 1.821,2.726 1.787,2.742 1.804,2.733 1.763,2.739 1.73,2.743 1.698,2.755 1.667,2.76 1.61,2.767 1.61,2.775 1.562,2.799 1.53,2.815 1.497,2.812 1.462,2.824 1.448,2.829 1.432,2.841 1.418,2.844 1.385,2.849 1.359,2.834 1.325,2.847 1.291,2.86 1.278,2.873 1.261,2.882 1.043,2.864 0.852,2.784 0.646,2.656 0.544,2.593 0.422,2.56 0.301,2.528 0.369,2.524 0.574,2.499 0.303,2.523 L 0.307,2.5 C 0.271,2.472 0.222,2.472 0.185,2.448 0.145,2.421 0.11,2.396 0.07,2.371 -0.055,2.294 -0.145,2.186 -0.224,2.066 -0.251,2.025 -0.274,1.972 -0.292,1.928 -0.317,1.865 -0.369,1.8 -0.389,1.739 -0.431,1.61 -0.463,1.466 -0.465,1.33 -0.467,1.246 -0.458,1.161 -0.438,1.079 -0.422,1.013 -0.414,0.942 -0.394,0.879 -0.336,0.694 -0.275,0.517 -0.201,0.334 -0.153,0.216 -0.11,0.077 0,0 M -7.884,2.795 C -7.918,2.733 -7.931,2.665 -7.957,2.599 -7.985,2.528 -8.001,2.452 -8.017,2.377 -8.047,2.244 -8.056,2.113 -8.06,1.977 -8.064,1.848 -8.095,1.735 -8.066,1.607 -8.039,1.49 -8.008,1.379 -7.991,1.259 c 0.017,-0.124 0.03,-0.251 0.092,-0.363 0.033,-0.057 0.065,-0.112 0.11,-0.16 0.027,-0.029 0.058,-0.053 0.082,-0.085 0.053,-0.067 0.067,-0.143 0.099,-0.22 0.036,-0.086 0.115,-0.179 0.201,-0.213 0.159,-0.064 0.254,-0.217 0.429,-0.242 0.102,-0.015 0.182,-0.071 0.287,-0.06 0.072,0.008 0.142,0.037 0.213,0.049 0.183,0.03 0.389,0.045 0.56,0.115 0.033,0.014 0.073,0.009 0.104,0.021 0.029,0.012 0.038,0.031 0.063,0.046 0.041,0.025 0.079,0.045 0.12,0.071 0.051,0.031 0.107,0.064 0.163,0.09 0.088,0.042 0.168,0.108 0.253,0.161 0.109,0.068 0.194,0.161 0.285,0.251 0.088,0.085 0.156,0.15 0.203,0.265 0.023,0.059 0.045,0.125 0.062,0.185 0.02,0.068 0.008,0.134 0.013,0.204 0.002,0.035 0.012,0.069 0.018,0.104 0.009,0.063 -0.007,0.097 -0.012,0.155 -0.011,0.106 -0.011,0.222 -0.036,0.327 -0.01,0.037 -0.03,0.07 -0.036,0.108 C -4.73,2.145 -4.721,2.223 -4.737,2.3 -4.749,2.361 -4.768,2.418 -4.787,2.476 -4.812,2.551 -4.817,2.647 -4.852,2.716 -4.889,2.79 -4.982,2.853 -5.04,2.912 -5.104,2.977 -5.188,3.046 -5.254,3.119 -5.551,3.328 -5.863,3.479 -6.203,3.628 -6.207,3.621 -6.212,3.615 -6.217,3.611 -6.247,3.627 -6.26,3.645 -6.279,3.661 -6.298,3.669 -6.318,3.678 -6.337,3.687 -6.401,3.697 -6.466,3.676 -6.528,3.672 -6.601,3.667 -6.674,3.669 -6.75,3.656 -6.852,3.637 -6.921,3.583 -7.011,3.531 -7.067,3.499 -7.128,3.477 -7.182,3.441 -7.289,3.372 -7.364,3.265 -7.469,3.198 -7.614,3.106 -7.798,2.95 -7.884,2.795 M 8.695,0.394 C 8.669,0.644 8.613,0.926 8.519,1.159 8.43,1.381 8.392,1.641 8.241,1.833 8.127,1.977 8.028,2.1 7.865,2.196 7.777,2.247 7.676,2.288 7.583,2.329 7.508,2.363 7.429,2.366 7.354,2.398 7.262,2.438 7.232,2.469 7.129,2.456 7.053,2.447 6.973,2.444 6.896,2.451 6.767,2.462 6.671,2.466 6.543,2.44 6.413,2.414 6.215,2.413 6.105,2.345 6.126,2.311 6.281,2.303 6.315,2.296 6.459,2.269 6.568,2.185 6.694,2.115 6.865,2.02 6.974,1.873 7.077,1.711 7.147,1.6 7.255,1.494 7.309,1.373 7.348,1.289 7.374,1.208 7.417,1.124 7.493,0.98 7.531,0.805 7.563,0.645 7.584,0.54 7.608,0.438 7.608,0.333 7.609,0.201 7.57,0.093 7.51,-0.027 7.472,-0.105 7.476,-0.207 7.446,-0.292 7.416,-0.38 7.391,-0.483 7.348,-0.564 7.31,-0.636 7.286,-0.691 7.263,-0.768 7.231,-0.879 7.16,-0.959 7.108,-1.058 7.06,-1.149 7.022,-1.194 6.955,-1.269 6.924,-1.304 6.908,-1.348 6.878,-1.383 6.832,-1.437 6.765,-1.446 6.709,-1.488 6.638,-1.542 6.586,-1.625 6.524,-1.689 6.435,-1.781 6.32,-1.871 6.216,-1.945 6.117,-2.014 6.018,-2.095 5.916,-2.159 5.79,-2.237 5.656,-2.284 5.531,-2.37 5.445,-2.428 5.362,-2.493 5.284,-2.561 5.226,-2.612 5.179,-2.678 5.117,-2.723 5.046,-2.776 4.98,-2.775 4.901,-2.804 4.83,-2.831 4.745,-2.863 4.684,-2.909 4.584,-2.986 4.534,-3.049 4.41,-3.095 4.288,-3.141 4.154,-3.153 4.026,-3.179 3.941,-3.196 3.856,-3.222 3.769,-3.231 3.596,-3.249 3.45,-3.19 3.281,-3.163 3.003,-3.119 2.761,-3.237 2.49,-3.242 2.37,-3.244 2.261,-3.261 2.143,-3.286 1.92,-3.334 1.692,-3.34 1.467,-3.388 1.3,-3.423 1.132,-3.424 0.964,-3.452 0.857,-3.469 0.755,-3.502 0.648,-3.514 0.563,-3.524 0.478,-3.519 0.393,-3.532 0.287,-3.549 0.18,-3.573 0.076,-3.596 -0.07,-3.629 -0.159,-3.708 -0.291,-3.767 c -0.255,-0.114 -0.619,-0.111 -0.89,-0.084 -0.178,0.018 -0.352,0.041 -0.532,0.044 -0.178,0.003 -0.381,0.042 -0.557,0.013 -0.152,-0.025 -0.297,-0.067 -0.452,-0.077 -0.171,-0.012 -0.335,-0.018 -0.503,-0.051 -0.199,-0.038 -0.38,0.008 -0.578,0.036 -0.245,0.034 -0.474,0.059 -0.716,0.114 -0.392,0.088 -0.829,0.156 -1.228,0.092 -0.205,-0.032 -0.368,-0.017 -0.569,0.038 -0.199,0.056 -0.412,0.058 -0.603,0.134 -0.164,0.065 -0.334,0.08 -0.501,0.136 -0.163,0.055 -0.327,0.112 -0.495,0.149 -0.266,0.059 -0.543,0.047 -0.81,0.092 -0.193,0.032 -0.35,0.195 -0.511,0.292 -0.185,0.111 -0.394,0.214 -0.588,0.31 -0.22,0.108 -0.449,0.2 -0.671,0.305 -0.18,0.085 -0.368,0.136 -0.556,0.201 -0.124,0.043 -0.258,0.052 -0.38,0.098 -0.132,0.05 -0.276,0.136 -0.39,0.221 -0.292,0.215 -0.43,0.583 -0.73,0.794 -0.116,0.081 -0.231,0.162 -0.347,0.243 -0.097,0.068 -0.172,0.159 -0.26,0.238 -0.186,0.166 -0.313,0.389 -0.42,0.612 -0.05,0.103 -0.109,0.204 -0.138,0.314 -0.033,0.13 -0.13,0.196 -0.199,0.309 -0.068,0.111 -0.114,0.265 -0.146,0.391 -0.048,0.191 -0.093,0.405 -0.116,0.601 -0.037,0.309 0.147,0.602 0.182,0.904 0.023,0.196 -0.004,0.352 0.103,0.525 0.094,0.149 0.205,0.235 0.322,0.361 0.078,0.084 0.171,0.113 0.269,0.169 0.102,0.058 0.194,0.151 0.275,0.235 0.177,0.182 0.438,0.284 0.686,0.326 0.159,0.027 0.337,-0.017 0.494,-0.041 0.086,-0.013 0.172,-0.016 0.255,-0.048 0.086,-0.033 0.181,-0.046 0.263,-0.082 0.083,-0.037 0.124,-0.104 0.221,-0.115 -0.114,0.222 -0.287,0.352 -0.474,0.513 -0.064,0.056 -0.118,0.111 -0.197,0.146 -0.189,0.085 -0.362,0.171 -0.526,0.296 -0.195,0.147 -0.421,0.064 -0.637,0.021 -0.158,-0.032 -0.297,-0.054 -0.43,-0.152 -0.074,-0.055 -0.117,-0.118 -0.166,-0.195 -0.132,-0.207 -0.387,-0.308 -0.536,-0.506 -0.074,-0.101 -0.149,-0.177 -0.238,-0.267 -0.104,-0.106 -0.179,-0.23 -0.247,-0.362 -0.119,-0.228 -0.253,-0.466 -0.282,-0.725 -0.01,-0.092 -0.004,-0.188 -0.025,-0.278 -0.024,-0.11 -0.057,-0.205 -0.058,-0.319 0,-0.131 0.034,-0.263 0.047,-0.392 0.011,-0.113 0.017,-0.223 0.023,-0.335 0.019,-0.336 0.199,-0.629 0.347,-0.922 0.088,-0.174 0.155,-0.357 0.248,-0.529 0.098,-0.18 0.215,-0.349 0.305,-0.534 0.155,-0.319 0.363,-0.606 0.538,-0.914 0.167,-0.292 0.349,-0.571 0.555,-0.838 0.115,-0.149 0.236,-0.297 0.4,-0.395 0.156,-0.094 0.327,-0.165 0.492,-0.24 0.144,-0.065 0.279,-0.106 0.43,-0.148 0.061,-0.018 0.111,-0.044 0.162,-0.069 0.044,-0.159 0.06,-0.304 0.091,-0.466 0.028,-0.147 0.071,-0.312 0.13,-0.455 0.063,-0.153 0.175,-0.291 0.253,-0.44 0.041,-0.079 0.216,-0.356 0.321,-0.357 -0.017,0.119 -0.014,0.257 0.008,0.362 0.035,0.165 0.017,0.353 0.05,0.527 0.031,0.164 0.054,0.332 0.088,0.494 0.005,-0.003 0.01,-0.006 0.015,-0.009 0.124,-0.068 0.26,-0.113 0.393,-0.165 0.042,-0.208 0.1,-0.414 0.159,-0.609 0.137,-0.451 0.429,-0.86 0.804,-1.187 0.146,-0.128 0.273,-0.285 0.378,-0.437 0.058,0.091 -0.028,0.203 -0.03,0.302 -0.005,0.255 0.035,0.518 0.051,0.772 0.011,0.185 0.018,0.372 0.026,0.559 0.168,-0.061 0.329,-0.14 0.499,-0.193 0.047,-0.163 0.102,-0.323 0.178,-0.464 0.111,-0.206 0.288,-0.378 0.404,-0.582 0.104,-0.184 0.146,-0.368 0.273,-0.543 0.073,-0.101 0.517,-0.803 0.674,-0.763 0.003,0.07 -0.041,0.136 -0.054,0.205 -0.016,0.09 -0.007,0.179 -0.025,0.271 -0.034,0.173 -0.055,0.332 -0.058,0.508 -0.004,0.306 -0.013,0.612 -0.02,0.918 0.033,-0.005 0.067,-0.01 0.1,-0.016 0.125,-0.022 0.248,-0.046 0.372,-0.068 0.131,-0.21 0.288,-0.404 0.431,-0.609 0.147,-0.213 0.237,-0.431 0.355,-0.655 0.12,-0.226 0.267,-0.444 0.403,-0.664 0.129,-0.208 0.274,-0.489 0.501,-0.633 0.012,0.122 -0.05,0.268 -0.078,0.39 -0.046,0.201 -0.093,0.401 -0.139,0.601 -0.111,0.476 -0.263,0.963 -0.313,1.447 0.236,-0.012 0.473,-0.021 0.71,-0.031 0.025,-0.304 0.123,-0.61 0.248,-0.9 0.188,-0.436 0.429,-0.859 0.804,-1.186 0.146,-0.128 0.272,-0.285 0.378,-0.437 0.058,0.091 -0.028,0.203 -0.03,0.302 -0.005,0.254 0.034,0.518 0.05,0.772 0.023,0.357 0.024,0.721 0.064,1.078 0.016,0.141 0.064,0.282 0.117,0.422 0.054,0 0.109,-10e-4 0.165,-0.003 0.242,-0.009 0.484,0.013 0.726,0.01 0.003,-0.013 0.007,-0.027 0.01,-0.04 0.137,-0.581 0.241,-1.148 0.151,-1.744 -0.018,-0.117 -0.173,-0.867 0.021,-0.924 0.13,0.31 0.268,0.613 0.417,0.918 0.257,0.532 0.369,1.101 0.534,1.658 0.016,0.052 0.027,0.104 0.04,0.157 0.241,0.018 0.484,0.013 0.722,0.05 l 0.01,0.002 c 0.058,-0.232 0.115,-0.464 0.163,-0.697 0.1,-0.486 0.093,-1.011 0.097,-1.504 0.001,-0.122 -0.03,-0.264 0.038,-0.376 0.102,0.073 0.159,0.248 0.2,0.35 0.061,0.151 0.161,0.268 0.225,0.414 0.092,0.209 0.101,0.436 0.217,0.64 0.079,0.095 0.133,0.201 0.163,0.316 0.018,0.184 0.023,0.369 0.015,0.555 0.005,0.196 0.037,0.387 0.072,0.578 0.101,0.036 0.203,0.07 0.308,0.093 0.111,0.023 0.222,0.044 0.334,0.064 0.036,-0.147 0.072,-0.295 0.103,-0.444 0.1,-0.486 0.093,-1.011 0.096,-1.504 10e-4,-0.122 -0.029,-0.263 0.039,-0.375 0.102,0.072 0.159,0.248 0.2,0.35 0.06,0.15 0.161,0.268 0.225,0.414 0.092,0.208 0.101,0.436 0.217,0.639 0.079,0.096 0.133,0.201 0.163,0.316 0.017,0.185 0.022,0.37 0.014,0.555 0.004,0.124 0.018,0.247 0.037,0.368 0.081,0.019 0.162,0.036 0.246,0.052 0.105,0.02 0.209,0.046 0.313,0.073 0.098,-0.197 0.172,-0.407 0.259,-0.611 0.076,-0.177 0.093,-0.369 0.168,-0.537 0.049,-0.108 0.08,-0.248 0.085,-0.37 0.124,0.003 0.275,0.292 0.308,0.373 0.062,0.155 0.166,0.3 0.21,0.458 0.04,0.147 0.058,0.317 0.06,0.469 0.003,0.148 -0.005,0.283 0.006,0.426 0.03,0.004 0.059,0.008 0.089,0.016 0.134,0.032 0.258,0.091 0.385,0.141 0.161,0.064 0.297,0.171 0.448,0.255 0.159,0.089 0.295,0.193 0.442,0.303 0.281,0.21 0.587,0.36 0.881,0.549 0.311,0.199 0.569,0.498 0.812,0.771 0.4,0.448 0.728,0.959 0.93,1.525 0.046,0.129 0.11,0.243 0.121,0.383 0.009,0.107 0.016,0.226 0.005,0.333 M 9.687,5.387 C 9.828,5.013 9.884,4.677 9.97,4.302 10.007,4.144 10.036,4.004 10.1,3.861 10.28,3.459 10.605,3.045 10.622,2.586 10.633,2.279 10.673,1.952 10.754,1.653 10.888,1.156 10.816,0.605 10.821,0.092 10.823,-0.115 10.797,-0.312 10.554,-0.349 10.399,-0.373 10.215,-0.344 10.093,-0.452 9.959,-0.57 9.921,-0.922 9.902,-1.083 9.866,-1.408 9.847,-1.746 9.829,-2.071 9.802,-2.561 9.662,-3.096 9.456,-3.545 9.102,-4.319 8.195,-4.069 7.615,-4.554 7.197,-4.904 7.156,-5.641 6.921,-6.106 6.697,-6.551 6.254,-6.758 5.907,-7.095 5.726,-7.272 5.582,-7.297 5.349,-7.361 5.205,-7.4 5.049,-7.489 4.952,-7.605 4.834,-7.747 4.779,-7.956 4.693,-8.117 4.548,-8.387 4.367,-8.63 4.199,-8.886 4.027,-9.147 3.926,-9.475 3.621,-9.563 3.43,-9.617 3.269,-9.733 3.08,-9.796 2.746,-9.907 2.371,-9.892 2.022,-9.881 c -0.141,0.004 -0.26,0.059 -0.399,0.072 -0.164,0.014 -0.34,-0.004 -0.505,-0.004 -0.556,0 -1.164,0.08 -1.69,-0.13 -0.207,-0.083 -0.351,-0.234 -0.542,-0.342 -0.118,-0.065 -0.247,-0.103 -0.368,-0.161 -0.121,-0.059 -0.229,-0.152 -0.365,-0.172 -0.124,-0.018 -0.271,0.005 -0.396,0.005 -0.185,0 -0.373,0.013 -0.558,0.005 -0.154,-0.006 -0.24,-0.1 -0.376,-0.136 -0.201,-0.052 -0.517,0.048 -0.71,0.081 -0.174,0.031 -0.333,0.076 -0.495,0.145 -0.337,0.144 -0.641,0.439 -1.013,0.44 -0.398,0.002 -0.791,0.066 -1.184,0.123 -0.268,0.039 -0.45,0.085 -0.697,0.211 -0.17,0.088 -0.299,0.1 -0.479,0.147 -0.106,0.028 -0.164,0.051 -0.29,0.051 -0.157,-0.002 -0.314,0 -0.471,0 -0.17,0 -0.365,-0.025 -0.53,0.015 -0.169,0.041 -0.297,0.15 -0.467,0.202 -0.157,0.047 -0.274,0.115 -0.411,0.198 -0.186,0.112 -0.357,0.198 -0.534,0.317 -0.236,0.159 -0.418,0.299 -0.621,0.501 -0.155,0.154 -0.255,0.324 -0.384,0.485 -0.14,0.177 -0.306,0.302 -0.488,0.443 -0.079,0.062 -0.154,0.112 -0.224,0.185 -0.107,0.113 -0.182,0.141 -0.31,0.222 -0.192,0.121 -0.401,0.207 -0.569,0.37 -0.193,0.186 -0.349,0.398 -0.527,0.597 -0.13,0.146 -0.255,0.285 -0.327,0.467 -0.082,0.212 -0.134,0.448 -0.204,0.665 -0.107,0.332 -0.24,0.573 -0.451,0.855 -0.299,0.399 -0.584,0.837 -0.916,1.209 -0.114,0.127 -0.296,0.191 -0.39,0.332 -0.078,0.117 -0.106,0.274 -0.114,0.412 -0.016,0.297 0.037,0.598 -0.003,0.894 -0.024,0.178 -0.112,0.29 -0.178,0.445 -0.069,0.164 -0.094,0.339 -0.147,0.508 -0.121,0.384 -0.334,0.814 -0.545,1.161 -0.127,0.209 -0.326,0.327 -0.433,0.545 -0.08,0.165 -0.156,0.319 -0.163,0.507 -0.008,0.18 0.042,0.354 0.064,0.531 0.025,0.189 0.027,0.389 0.089,0.572 0.158,0.471 0.612,0.841 0.968,1.162 0.267,0.24 0.764,0.517 0.821,0.898 0.032,0.215 -0.078,0.339 -0.121,0.516 -0.066,0.271 0.253,0.374 0.451,0.492 0.291,0.173 0.659,0.45 0.865,0.724 0.096,0.127 0.05,0.264 0.134,0.386 0.215,0.314 1.32,0.078 1.19,0.584 -0.044,0.169 -0.18,0.33 -0.242,0.48 -0.038,0.093 -0.018,0.212 -0.043,0.312 -0.033,0.13 -0.095,0.244 -0.155,0.363 -0.089,0.174 -0.435,0.666 -0.088,0.78 0.265,0.087 0.592,0.065 0.871,0.065 0.388,0 0.769,0.011 1.153,-0.049 0.101,-0.015 0.724,-0.199 0.788,-0.023 0.07,0.193 -0.215,0.479 -0.296,0.602 -0.082,0.123 -0.133,0.239 -0.244,0.345 -0.041,0.039 -0.129,0.076 -0.16,0.122 -0.056,0.085 -0.05,0.107 -0.008,0.203 0.081,0.184 0.234,0.297 0.436,0.329 0.682,0.108 1.39,0.094 2.073,-0.078 0.523,-0.131 1.106,-0.139 1.605,-0.349 0.088,-0.036 0.592,-0.379 0.713,-0.224 0.055,0.071 -0.043,0.122 -0.06,0.182 -0.031,0.111 -0.016,0.227 -0.064,0.342 -0.087,0.21 -0.272,0.474 -0.411,0.661 -0.152,0.207 -0.324,0.39 -0.47,0.603 -0.163,0.239 -0.36,0.38 -0.58,0.558 -0.113,0.092 -0.395,0.265 -0.35,0.444 0.049,0.195 0.503,0.184 0.641,0.193 0.165,0.011 0.329,0.004 0.494,0.007 0.609,0.009 1.223,-0.21 1.805,-0.368 0.518,-0.141 0.995,-0.357 1.487,-0.565 0.568,-0.24 1.143,-0.504 1.681,-0.805 0.287,-0.161 0.559,-0.352 0.813,-0.562 0.067,-0.055 0.157,-0.184 0.249,-0.166 0.159,0.031 0.107,0.292 0.107,0.399 0,0.319 0.026,0.58 -0.105,0.871 -0.131,0.291 -0.377,0.546 -0.577,0.793 -0.289,0.356 -0.574,0.735 -0.979,0.965 -0.151,0.087 -0.543,0.171 -0.603,0.357 0.185,0.064 0.432,0.012 0.629,0.013 0.18,0.002 0.33,-0.019 0.506,-0.064 0.528,-0.133 1.005,-0.41 1.526,-0.564 1.294,-0.383 2.44,-1.135 3.533,-1.904 0.735,-0.517 1.6,-0.976 2.121,-1.736 C 4.867,10.295 5.012,9.975 5.185,10.124 5.28,10.206 5.124,10.33 5.094,10.426 5.05,10.564 5.036,10.722 4.988,10.854 4.972,10.899 4.915,10.96 4.902,11.001 4.869,11.106 4.888,11.213 4.851,11.323 4.749,11.625 4.504,11.958 4.318,12.213 4.277,12.27 4.168,12.381 4.163,12.455 4.138,12.808 4.757,12.391 4.853,12.32 5.067,12.162 5.32,11.972 5.493,11.77 5.948,11.239 6.444,10.756 6.91,10.235 7.007,10.126 7.123,10.052 7.219,9.958 7.323,9.855 7.429,9.72 7.535,9.61 7.722,9.415 7.876,9.192 8.052,8.988 8.241,8.768 8.437,8.577 8.575,8.319 8.687,8.111 8.797,7.936 8.946,7.753 9.067,7.605 9.22,7.431 9.276,7.242 9.347,7 9.391,6.737 9.453,6.491 9.534,6.163 9.649,5.85 9.74,5.526 9.846,5.15 9.896,4.783 9.889,4.392 9.886,4.234 9.879,4.077 9.902,3.919 9.918,3.811 9.919,3.593 9.957,3.484 9.99,3.388 10.082,3.325 10.154,3.254"
             style="fill:#000000;fill-opacity:1;fill-rule:nonzero;stroke:none"
             id="path1821" />
        </g>
      </g>
    </g>
  </g>
</svg>
