<svg width="24" height="24" viewBox="0 0 24 24" fill="#000000" xmlns="http://www.w3.org/2000/svg">
  <path d="M21.1106 22.2812L20.9699 21.4372C20.9699 21.6895 20.9699 21.9427 20.9699 22.195C21.0008 22.239 21.043 22.2719 21.1106 22.2812Z"/>
  <path d="M20.9699 9.52663C20.9727 9.5135 20.9755 9.50037 20.9783 9.48818C21.119 9.44691 21.149 9.51631 21.2503 9.58571C21.3647 9.66355 21.3891 9.70482 21.3919 9.85487C21.3938 9.96084 21.4088 10.0875 21.3844 10.1916C21.36 10.2966 21.2718 10.4063 21.2175 10.4982C21.1687 10.5798 21.1246 10.6642 21.0637 10.7383C20.9914 10.8246 20.9005 10.8837 20.8264 10.9709C20.7579 11.0515 20.7073 11.0787 20.6088 11.1209C20.424 11.1997 20.2327 11.2757 20.0433 11.3451C19.8698 11.4089 19.6719 11.4145 19.5106 11.4933C19.2564 11.618 18.9788 11.6124 18.7247 11.724C18.4237 11.8581 18.0851 11.9331 17.8009 12.1057C17.5186 12.2773 17.2167 12.4255 16.9475 12.6187C16.7909 12.7312 16.6286 12.8531 16.4777 12.9732C16.3782 13.0519 16.2985 13.1532 16.1897 13.2207C16.0162 13.3286 15.8821 13.4139 15.7368 13.5631C15.6552 13.6465 15.5745 13.7441 15.4817 13.8153C15.4198 13.8632 15.3541 13.8866 15.2988 13.941C15.2097 14.0282 15.1337 14.1286 15.0606 14.2289C14.9518 14.378 14.8121 14.5131 14.7314 14.6828C14.6723 14.8057 14.6723 14.9445 14.6189 15.0702C14.571 15.1827 14.5082 15.2718 14.4848 15.3956C14.4426 15.615 14.4154 15.8317 14.3582 16.0492C14.3385 16.1243 14.3094 16.4037 14.225 16.4525C14.2587 16.3878 14.2747 16.3081 14.3056 16.2387C14.3891 16.0502 14.5063 15.8589 14.6057 15.6769C14.7717 15.374 14.9696 15.0823 15.2013 14.8254C15.356 14.6538 15.4882 14.4624 15.6711 14.3171C15.7658 14.2552 15.8559 14.1867 15.9421 14.1117C16.0144 14.0198 16.096 13.9354 16.186 13.8594C16.4354 13.67 16.7459 13.5068 17.0291 13.3708C17.4089 13.1879 17.7887 13.2236 18.1929 13.1739C18.5437 13.1307 18.8869 13.157 19.2396 13.1401C19.4159 13.1307 19.5791 13.0951 19.7572 13.0913C19.9673 13.0876 20.1708 13.0557 20.3715 12.9975C20.7298 12.8925 21.0449 12.7621 21.3666 12.5708C21.9311 12.2332 22.4413 11.7784 22.6129 11.1191C22.7255 10.6839 22.7761 10.2506 22.4957 9.87456C22.4432 9.80329 22.3785 9.7367 22.3269 9.66637C22.2772 9.59697 22.2566 9.52569 22.1797 9.47599C22.1121 9.43285 22.0287 9.42909 21.9555 9.39908C21.8777 9.36626 21.8064 9.3325 21.722 9.31374C21.511 9.26685 21.2784 9.29217 21.0637 9.29217C20.8761 9.29217 20.5525 9.19933 20.9699 9.52663Z"/>
  <path d="M21.8139 15.435C21.8139 15.5373 21.8261 15.6423 21.7933 15.7389C21.7183 15.9574 21.5297 16.0868 21.3412 16.1938C21.1762 16.2875 21.0289 16.3776 20.8367 16.4123C20.6923 16.4395 20.5544 16.4723 20.4109 16.5023C20.078 16.5698 19.7441 16.6289 19.4121 16.7011C19.1992 16.7471 18.9845 16.7752 18.7706 16.8146C18.5878 16.8474 18.403 16.8324 18.222 16.8718C17.8825 16.944 17.6162 17.1222 17.3161 17.2732C16.8171 17.5236 16.4411 17.8969 16.0406 18.2729C15.8568 18.4455 15.7264 18.618 15.5651 18.8122C15.4948 18.8966 15.4329 18.9604 15.3982 19.0691C15.371 19.1545 15.3616 19.2455 15.3326 19.3289C15.31 19.3946 15.2594 19.4471 15.2453 19.5146C15.235 19.5662 15.2491 19.6365 15.2491 19.6919C15.25 19.8354 15.2435 19.9591 15.296 20.097C15.3832 20.3258 15.4451 20.5622 15.5651 20.7807C15.6627 20.9598 15.9065 21.0602 16.0781 21.1605C16.005 21.1661 15.8981 21.0686 15.8559 21.017C15.7546 20.8923 15.7208 20.6785 15.7161 20.5256C15.7114 20.353 15.6721 20.0773 15.7415 19.9141C15.8277 19.7125 16.0387 19.5268 16.185 19.3702C16.4026 19.1348 16.6361 18.9031 16.8987 18.7156C17.1323 18.5468 17.4539 18.4445 17.7231 18.3414C18.0204 18.227 18.3008 18.1491 18.6215 18.1538C18.9385 18.1585 19.2461 18.1051 19.5612 18.1069C20.1174 18.1097 20.6519 18.197 21.2062 18.1079C21.5598 18.0507 21.9114 17.9475 22.2463 17.8265C22.5839 17.7046 22.8812 17.5527 23.0397 17.2113C23.1513 16.9722 23.366 16.8052 23.457 16.5586C23.4851 16.4807 23.5255 16.3007 23.6005 16.2481C23.518 16.432 23.3566 16.476 23.1831 16.5473C23.0922 16.5848 23.064 16.6505 22.99 16.7049C22.9234 16.7536 22.7499 16.7874 22.6627 16.7902C22.6223 16.6645 22.8005 16.4967 22.8352 16.3766C22.9093 16.1178 22.9628 15.8918 22.9412 15.6189C22.9121 15.2475 22.627 14.8161 22.3588 14.5713C22.3053 14.5225 22.1375 14.3181 22.0568 14.3978C22.0259 14.4278 22.0071 14.5976 22.0015 14.6351C21.9874 14.7232 21.9724 14.8011 21.9424 14.8864C21.8927 15.0327 21.8036 15.1781 21.7764 15.3319C21.7708 15.3619 21.7783 15.4435 21.7595 15.4716C21.7183 15.5335 21.6498 15.5185 21.8139 15.435Z"/>
  <path d="M9.57521 15.5288C9.55083 15.4332 9.68494 15.2906 9.71776 15.2043C9.81811 14.9408 9.79748 14.5647 9.68588 14.3134C9.53207 13.9655 9.39515 13.5847 9.10536 13.324C8.86621 13.1092 8.55016 12.9245 8.25475 12.796C7.90212 12.6431 7.51292 12.5512 7.1406 12.4556C6.71952 12.3477 6.2853 12.374 5.87359 12.2211C5.50878 12.0861 5.2021 11.8722 4.88043 11.6603C4.53624 11.4343 4.27928 11.2129 4.0889 10.8416C4.03826 10.7431 4.00356 10.6399 3.96511 10.5377C3.90977 10.3886 3.91821 10.261 3.89008 10.1044C3.85725 9.92529 3.84975 9.80056 3.92759 9.62237C3.99324 9.47513 4.18831 9.39448 4.33461 9.34853C4.45653 9.30914 4.59439 9.29226 4.72193 9.29226C4.85792 9.29226 4.85886 9.2932 4.91982 9.39917C4.96671 9.48076 5.00422 9.52484 5.02673 9.6205C5.04174 9.68427 5.05487 9.79681 5.15709 9.75273C5.26025 9.70866 5.26025 9.4817 5.26213 9.39636C5.26869 9.08406 5.04267 8.80927 4.73694 8.72956C4.56532 8.68454 4.40307 8.66485 4.22957 8.70518C4.16111 8.72112 4.09171 8.738 4.02419 8.75301C3.94447 8.77082 3.87695 8.76144 3.79817 8.77176C3.58903 8.79896 3.41272 8.96964 3.24391 9.07749C3.16607 9.12626 3.07698 9.1619 3.00852 9.2238C2.9288 9.29695 2.87816 9.39917 2.82189 9.49108C2.59399 9.86527 2.6015 10.3726 2.54523 10.7909C2.52272 10.9644 2.57242 11.0526 2.65402 11.197C2.77124 11.4014 2.8594 11.5843 3.03384 11.7541C3.20077 11.9154 3.32269 12.1217 3.50463 12.268C3.72408 12.4452 3.94916 12.6206 4.20238 12.7435C4.47529 12.8757 4.74257 13.0567 5.02673 13.1496C5.22649 13.2152 5.42718 13.2696 5.61381 13.3681C5.76387 13.4478 5.91392 13.5491 6.07241 13.611C6.17745 13.6513 6.29749 13.6701 6.40628 13.7001C6.54039 13.7357 6.67919 13.7592 6.81518 13.7835C6.90146 13.7985 7.01868 13.8473 7.10309 13.8454C7.17999 13.8445 7.24845 13.7976 7.32629 13.792C7.43039 13.7845 7.55044 13.7835 7.65266 13.8032C7.85242 13.8417 8.04186 13.9055 8.24068 13.9336C8.37479 13.9514 8.49483 14.0518 8.60081 14.1324C8.66177 14.1784 8.73492 14.2196 8.78087 14.2806C8.81745 14.3294 8.80338 14.3547 8.82401 14.4044C8.86715 14.5075 8.98063 14.6051 9.0097 14.712C9.0294 14.7861 9.01533 14.847 9.04628 14.9202C9.07441 14.9858 9.11286 15.0459 9.15225 15.104C9.20571 15.1837 9.23103 15.2587 9.27511 15.3431C9.30981 15.4107 9.36795 15.4594 9.40172 15.5288C9.44955 15.6273 9.50957 15.737 9.47299 15.8486C9.4608 15.8515 9.44767 15.8543 9.57521 15.5288Z"/>
  <path d="M9.48143 19.9835C9.25916 19.5427 8.91779 19.1048 8.49576 18.8206C8.07562 18.5383 7.64421 18.2617 7.29815 17.8837C7.00743 17.5658 6.67825 17.2741 6.30311 17.065C6.1465 16.9778 6.01801 16.8465 5.86608 16.7536C5.75636 16.6861 5.65413 16.6533 5.54722 16.5745C5.27244 16.3701 4.86073 16.1938 4.52967 16.1093C4.39087 16.0737 4.25864 16.1075 4.12078 16.0812C4.0495 16.0671 3.99886 16.0465 3.92477 16.0437C3.78691 16.039 3.69407 16.0681 3.56465 16.0943C3.50931 16.0925 3.45304 16.0906 3.39677 16.0887C3.34519 16.0953 3.29455 16.1084 3.24484 16.1281C3.15106 16.1431 3.05915 16.1384 2.9635 16.1384C2.76186 16.1375 2.60055 16.1253 2.41017 16.0456C2.29295 15.9968 2.25543 15.9368 2.16728 15.8552C2.10257 15.7952 2.02191 15.7548 1.95345 15.6986C1.79308 15.5673 1.72931 15.3853 1.62615 15.21C1.54549 15.074 1.55956 14.9727 1.55768 14.8189C1.55675 14.7026 1.51736 14.6051 1.50798 14.4935C1.50048 14.4119 1.52767 14.3519 1.54549 14.274C1.58301 14.109 1.65803 14.0067 1.77432 13.8839C1.68054 13.9083 1.67679 13.8464 1.60458 13.837C1.50048 13.8239 1.49579 13.9036 1.43952 13.9777C1.38981 14.0424 1.32885 14.0592 1.27258 14.109C1.23976 14.139 1.19287 14.2065 1.16848 14.2496C1.14035 14.2993 1.13472 14.364 1.07001 14.3547C1.01656 14.3481 0.980918 14.2571 0.95841 14.2168C0.920897 14.1465 0.883384 14.0583 0.863689 13.9814C0.844933 13.9045 0.866503 13.8267 0.843995 13.7507C0.783036 13.7629 0.783036 13.8351 0.752088 13.8857C0.687377 13.9927 0.568272 14.0686 0.489494 14.1662C0.346944 14.3453 0.211896 14.5366 0.113424 14.7448C0.0262052 14.9305 -0.0188106 15.0965 0.00744868 15.3075C0.0299566 15.4979 0.131242 15.7183 0.237217 15.8768C0.339441 16.0296 0.464173 16.1956 0.592656 16.3269C0.657367 16.3926 0.742709 16.4113 0.81586 16.462C0.905892 16.5239 0.968727 16.6045 1.06532 16.6617C1.35324 16.8334 1.63646 17.0228 1.86811 17.2666C1.67491 17.2235 1.47985 17.3848 1.40201 17.5452C1.32792 17.698 1.31948 17.8837 1.32135 18.0497C1.32323 18.212 1.27352 18.4689 1.33261 18.6218C1.36355 18.6143 1.38794 18.5533 1.40294 18.5205C1.44608 18.4295 1.47891 18.3583 1.55206 18.2851C1.76026 18.0769 2.00972 17.9278 2.30983 17.88C2.5471 17.8425 2.80594 17.8762 3.04696 17.8725C3.38458 17.8668 3.72877 18.0403 4.05607 18.1182C4.64784 18.2589 5.10081 18.6809 5.59036 19.0101C5.92048 19.2323 6.12399 19.5606 6.38658 19.8466C6.4738 19.9404 6.60603 19.9601 6.71482 20.0304C6.83205 20.1064 6.96429 20.1664 7.08995 20.2292C7.33285 20.3512 7.66485 20.4093 7.84397 20.6297C7.90024 20.6991 7.97621 20.7882 8.02872 20.8735C8.10563 20.9973 8.13376 21.1652 8.16846 21.3077C8.22004 21.5197 8.28663 21.726 8.30914 21.9445C8.32789 22.1321 8.43012 22.2859 8.46013 22.465C8.52859 22.4491 8.49483 22.345 8.48639 22.2878C8.45731 22.0974 8.44981 21.8789 8.39354 21.6913C8.3354 21.4963 8.22567 21.3106 8.12345 21.1361C7.96308 20.8613 7.84022 20.5837 7.65265 20.3268C7.53542 20.1645 7.39475 20.0417 7.26627 19.8926C7.12653 19.7303 6.99899 19.5615 6.84612 19.4115C6.68387 19.252 6.51037 19.0813 6.37533 18.8966C6.28717 18.7765 6.07334 18.5552 6.15869 18.392C6.2309 18.3817 6.36595 18.3648 6.43629 18.3855C6.55258 18.422 6.67168 18.6753 6.75984 18.7559C6.86112 18.8497 6.98492 18.9116 7.08995 19.0016C7.18937 19.087 7.26814 19.1976 7.37412 19.2755C7.49885 19.3655 7.66109 19.4471 7.80365 19.5043C7.98746 19.5774 8.15815 19.6028 8.33446 19.7012C8.49014 19.7894 8.63456 19.9019 8.79024 19.9863C9.12036 20.1636 9.39327 20.4543 9.58646 20.7779C9.73276 20.7826 9.73183 20.52 9.71213 20.429C9.68962 20.3277 9.62398 20.2189 9.58271 20.1233C9.42609 19.7603 9.16913 19.4583 9.01251 19.0926"/>
  <path d="M16.1879 6.93706C16.0153 7.07023 15.8474 7.20715 15.6833 7.35533C15.5773 7.45005 15.5136 7.57103 15.4198 7.67419C15.341 7.76047 15.2547 7.82519 15.1994 7.92835C15.1122 8.09341 15.0081 8.29504 14.873 8.42727C14.6967 8.5989 14.5664 8.83992 14.4491 9.06125C14.4013 9.15222 14.3629 9.25632 14.3103 9.34072C14.285 9.38105 14.2259 9.43357 14.2175 9.47952C14.0693 9.75337 14.0534 9.66615 13.8892 9.66709C13.7823 9.66803 13.7082 9.64177 13.6079 9.60707C13.3012 9.50109 12.9674 9.46076 12.6466 9.40918C12.4562 9.37824 12.2687 9.38574 12.0764 9.38667C11.7744 9.38761 11.4706 9.31165 11.1705 9.34729C10.8929 9.38011 10.62 9.43544 10.3386 9.43357C10.2533 9.43357 10.182 9.45326 10.1248 9.39043C10.0882 9.3501 10.0751 9.25538 10.047 9.20943C10.0113 9.15316 9.96067 9.1147 9.93066 9.05375C9.87814 8.94496 9.84626 8.82023 9.80593 8.70769C9.66994 8.33631 9.5499 7.9396 9.33889 7.60104C9.0491 7.13588 8.69366 6.71761 8.38324 6.26557C8.22662 6.03862 8.03905 5.80322 7.91338 5.55751C7.8618 5.45622 7.81304 5.19832 7.65736 5.20207C7.66861 5.13924 7.86274 5.06984 7.92276 5.02576C8.07657 4.91416 8.16472 4.86164 8.34479 4.80349C8.43294 4.77442 8.50422 4.73315 8.58956 4.69564C8.67866 4.65531 8.77244 4.6525 8.86153 4.61686C8.94875 4.58216 9.01721 4.52496 9.10912 4.49495C9.15601 4.47994 9.2029 4.47337 9.24792 4.45274C9.37546 4.3946 9.46081 4.28018 9.58273 4.21735C9.72621 4.14232 9.90534 4.11512 10.0423 4.03353C10.2083 3.93318 10.3339 3.78501 10.5206 3.70998C10.6697 3.6509 10.8122 3.57118 10.9463 3.48021C11.0992 3.37611 11.2408 3.26263 11.3946 3.16135C11.5109 3.08351 11.5812 2.97472 11.6844 2.88C11.9704 2.61459 12.2424 2.31355 12.5444 2.06784C12.6213 2.005 12.6926 1.89527 12.7732 1.84557C12.8276 1.81181 12.9345 1.83619 12.9983 1.83619C13.1043 1.83619 13.1249 1.83432 13.1981 1.88215C13.2825 1.93842 13.3228 2.02939 13.3856 2.10723C13.8452 2.68493 14.3235 3.26263 14.8299 3.79907C15.1703 4.16014 15.6195 4.37772 15.9562 4.74441C16.231 5.04452 16.5255 5.32024 16.8022 5.61659C16.8547 5.67286 17.0432 5.78822 17.0366 5.87168C17.0319 5.92701 16.9325 6.01705 16.9006 6.05925C16.8003 6.19148 16.7271 6.33872 16.6446 6.48127C16.5771 6.59475 16.4777 6.67447 16.3717 6.74949C16.2929 6.80576 16.2657 6.87704 16.1879 6.93706ZM20.9699 22.3306L20.9699 22.195C20.9117 22.1115 20.9005 21.9846 20.8686 21.8833C20.7401 21.4613 20.5375 21.0983 20.3706 20.6941C20.213 20.3115 20.0883 19.8998 19.9711 19.5021C19.9326 19.3708 19.9045 19.2536 19.8792 19.1223C19.8482 18.9676 19.7816 18.8241 19.7554 18.6721C19.6804 18.2454 19.5603 17.8084 19.4253 17.3939C19.2752 16.9353 19.0586 16.487 18.932 16.0228C18.8494 15.718 18.7688 15.3963 18.6253 15.1093C18.5428 14.9424 18.5034 14.7623 18.448 14.587C18.404 14.4463 18.3477 14.3094 18.3083 14.1668C18.2474 13.9474 18.1705 13.7288 18.0992 13.5131C18.0588 13.3922 17.9698 13.289 17.9304 13.1699C17.8947 13.0649 17.891 12.9542 17.8666 12.8473C17.8272 12.6691 17.725 12.49 17.6828 12.3212C17.65 12.188 17.5881 12.067 17.5355 11.9282C17.5121 11.8691 17.4811 11.7894 17.453 11.7284C17.4202 11.6562 17.4268 11.6178 17.4089 11.5399C17.4042 11.5202 17.3724 11.4968 17.3695 11.4855C17.362 11.4508 17.3695 11.4096 17.3602 11.3777C17.3414 11.3102 17.3236 11.2483 17.302 11.1779C17.2692 11.0701 17.1951 10.9557 17.1688 10.8422C17.1538 10.7765 17.2045 10.6978 17.1463 10.6537C17.106 10.6237 16.9475 10.6518 16.8903 10.6518C16.7881 10.6527 16.7403 10.6603 16.6549 10.6059C16.5677 10.5505 16.5602 10.5374 16.4683 10.5111C16.3904 10.4886 16.3285 10.4971 16.382 10.3705C16.4214 10.2757 16.5508 10.2017 16.6202 10.1276C16.7243 10.0178 16.7571 9.88279 16.8425 9.76275C16.9259 9.64458 17.0019 9.51891 17.0788 9.39605C17.1642 9.26101 17.2551 9.13721 17.303 8.98341C17.3583 8.80709 17.4746 8.67017 17.543 8.49667C17.5946 8.36538 17.6781 8.26503 17.7334 8.13373C17.8084 7.95461 17.9463 7.82237 18.0166 7.64137C18.1358 7.3347 18.3074 7.05241 18.5081 6.78888C18.584 6.68853 18.6731 6.59475 18.7153 6.47846C18.736 6.42125 18.7332 6.38655 18.7632 6.32841C18.7913 6.27589 18.8382 6.21962 18.8532 6.15866C18.8766 6.06112 18.8804 5.9861 18.9198 5.8895C18.9507 5.81541 18.9779 5.72351 18.9582 5.63629C18.8748 5.27428 18.4171 5.07921 18.1939 4.8185C17.9782 4.56716 17.7381 4.36271 17.5102 4.12544C17.2251 3.83002 16.9869 3.48021 16.7159 3.17073C16.6287 3.07038 16.5414 2.98879 16.4439 2.90251C16.3154 2.78715 16.2123 2.64367 16.081 2.53394C15.9281 2.40733 15.7358 2.33324 15.5811 2.20945C15.416 2.07721 15.3232 1.87652 15.1516 1.74803C14.9931 1.62893 14.8862 1.49388 14.7464 1.35415C14.6161 1.22473 14.4698 1.06998 14.3066 0.986517C14.2203 0.942439 14.1781 0.912428 14.1049 0.852407C14.0046 0.770816 13.8761 0.726737 13.7758 0.639518C13.6632 0.542922 13.5573 0.432258 13.4203 0.368485C13.2768 0.301899 13.1277 0.262509 12.9871 0.184669C12.8736 0.121834 12.716 -0.021654 12.5735 0.00272962C12.5406 0.00835661 12.5416 0.043995 12.5144 0.0533733C12.4272 0.0843218 12.3409 0.099327 12.2537 0.1284C12.0577 0.19311 11.9142 0.337537 11.735 0.430382C11.5784 0.511974 11.4106 0.563554 11.2568 0.648897C11.0617 0.756747 10.8751 0.857096 10.6706 0.943377C10.4071 1.05217 10.1548 1.15814 9.95129 1.36446C9.7309 1.58767 9.47487 1.76117 9.24042 1.9703C8.8484 2.31824 8.46108 2.66336 8.07094 3.01223C7.92464 3.14259 7.76146 3.25326 7.60578 3.37236C7.4379 3.4999 7.22314 3.57681 7.07871 3.72405C6.95586 3.84784 6.79924 3.88723 6.66607 3.99789C6.51602 4.12169 6.39879 4.30081 6.2628 4.44149C6.13432 4.57654 6.09587 4.81099 6.01146 4.97887C5.95425 5.09328 5.85203 5.19926 5.87266 5.33149C5.90174 5.52187 6.06492 5.70287 6.15495 5.87075C6.2703 6.08832 6.305 6.34623 6.4438 6.5488C6.57791 6.74293 6.6248 6.96894 6.76923 7.15651C6.96805 7.41535 7.13123 7.73609 7.361 7.97055C7.52606 8.1403 7.64892 8.33818 7.79522 8.52575C7.90026 8.66079 8.00529 8.79303 8.11408 8.92339C8.18536 9.00873 8.29602 9.10345 8.35135 9.20286C8.37386 9.24413 8.37386 9.30133 8.39824 9.34822C8.44138 9.42888 8.5136 9.4964 8.57081 9.56674C8.63083 9.63989 8.68053 9.71117 8.71617 9.8012C8.59519 9.82933 8.3823 9.82933 8.26132 9.79745C8.12065 9.76087 7.99123 9.76087 7.84117 9.76087C7.66486 9.76087 7.56826 9.76087 7.41821 9.85465C7.35913 9.89217 7.30004 9.92218 7.26347 9.98408C7.21095 10.0732 7.2072 10.1829 7.15187 10.2861C6.89584 10.7587 6.64169 11.2314 6.40348 11.7144C6.29938 11.9263 6.23654 12.1533 6.12869 12.3662C6.01803 12.5828 5.89517 12.7957 5.78732 13.0123C5.68041 13.228 5.65509 13.4756 5.5463 13.6951C5.4075 13.9755 5.29871 14.2653 5.16648 14.5476C5.04081 14.813 4.94421 15.0934 4.8026 15.3503C4.67974 15.5754 4.53907 15.7546 4.46498 16.0021C4.39839 16.2272 4.33556 16.4636 4.21927 16.6689C4.11235 16.8565 4.00825 17.0075 3.94636 17.2185C3.89009 17.408 3.82538 17.5927 3.7616 17.7803C3.67907 18.025 3.5309 18.2154 3.48869 18.4761C3.46244 18.6365 3.39397 18.7528 3.34802 18.9029C3.31613 19.0088 3.32457 19.1336 3.28237 19.2339C3.26924 19.2667 3.22516 19.3033 3.20922 19.3333C3.18202 19.3877 3.17921 19.4609 3.15389 19.5162C3.09199 19.6484 2.99727 19.7891 2.90536 19.9007C2.84253 19.9767 2.78251 20.063 2.72905 20.1352C2.68591 20.1942 2.6287 20.2449 2.5865 20.3012C2.52179 20.3856 2.52273 20.5094 2.49553 20.6182C2.46833 20.7288 2.36517 20.847 2.4055 20.9764C2.44301 21.0964 2.56962 21.1555 2.63527 21.254C2.67841 21.3178 2.70467 21.4172 2.73749 21.481C2.79564 21.5963 2.87066 21.706 2.94006 21.8148C3.03572 21.9649 3.10887 22.0362 3.24392 22.1365C3.37803 22.2368 3.48307 22.3794 3.61999 22.4816C3.84413 22.6486 4.06827 22.7133 4.2474 22.943C4.33368 23.0518 4.4284 23.154 4.51187 23.2647C4.59534 23.3744 4.64879 23.4954 4.74539 23.5948C4.82323 23.6745 4.88606 23.7364 4.98266 23.7824C5.02017 23.8012 5.09989 23.8312 5.11396 23.8612C5.05956 23.8021 5.07363 23.7064 5.06238 23.6314C5.04268 23.5029 5.02486 23.3941 5.02674 23.2656C5.02861 22.9984 4.9911 22.7376 5.09145 22.4919C5.14022 22.3738 5.14022 22.2443 5.16554 22.1196C5.19367 21.9846 5.25651 21.8833 5.30809 21.7586C5.36342 21.6254 5.39437 21.4828 5.44876 21.3497C5.50785 21.2052 5.58569 21.0721 5.63727 20.9239C5.73668 20.6388 5.82202 20.3602 5.94206 20.0817C6.06304 19.8004 6.1784 19.5021 6.2703 19.2095C6.35658 18.9404 6.46631 18.6993 6.58354 18.4405C6.72703 18.1245 6.85551 17.8065 6.99337 17.4886C7.11904 17.2007 7.2569 16.9128 7.32443 16.6052C7.35819 16.4514 7.39476 16.3041 7.44166 16.1541C7.49324 15.9853 7.57014 15.8305 7.62547 15.6664C7.6658 15.5464 7.66767 15.4179 7.69862 15.296C7.72394 15.1928 7.77177 15.0971 7.80366 14.9958C7.89182 14.7136 8.01467 14.4425 8.08595 14.1574C8.24538 13.5235 8.49203 12.8829 8.64208 12.2705C8.68991 12.0754 8.75743 11.8616 8.82308 11.6834C8.85497 11.5962 8.85684 11.6187 8.94406 11.5896C8.97595 11.5784 9.01346 11.554 9.04347 11.5465C9.12225 11.5287 9.20478 11.5587 9.2845 11.5456C9.34639 11.5352 9.39422 11.5034 9.45612 11.494C9.64837 11.4668 9.85095 11.5231 10.0441 11.4865C10.317 11.4349 10.574 11.3542 10.8544 11.3533C11.118 11.3524 11.3393 11.4912 11.5953 11.4977C11.8335 11.5052 12.0595 11.5174 12.2949 11.5699C12.5585 11.63 12.8089 11.7087 13.0808 11.7331C13.3434 11.7556 13.5901 11.7238 13.8527 11.7875C14.0571 11.8372 14.2184 11.8729 14.4276 11.871C14.5898 11.8691 14.738 11.9188 14.9012 11.9179C15.0859 11.9169 15.4226 11.8522 15.538 12.0276C15.6008 12.1223 15.612 12.2602 15.6346 12.369C15.6946 12.6485 15.7565 12.9411 15.8728 13.2018C16.0941 13.6979 16.4008 14.149 16.5686 14.6704C16.6155 14.8158 16.6052 14.963 16.6577 15.1074C16.7684 15.4076 16.9456 15.6795 17.0601 15.9796C17.2167 16.3885 17.3583 16.8021 17.4915 17.2157C17.589 17.5186 17.7569 17.7887 17.8703 18.0841C17.9669 18.3364 18.0082 18.6065 18.0879 18.8644C18.1667 19.1195 18.2736 19.3661 18.3777 19.6119C18.4818 19.8585 18.6441 20.0742 18.7144 20.3349C18.736 20.4146 18.7519 20.4944 18.7697 20.575C18.8007 20.7166 18.8804 20.8489 18.9048 20.9895C18.9217 21.0871 18.9038 21.1912 18.917 21.2915C18.9367 21.435 19.0032 21.6291 18.9451 21.7707C18.9348 21.7951 18.901 21.8129 18.8888 21.8383C18.8635 21.8908 18.8541 21.9405 18.8382 21.9968C18.7932 22.1562 18.7013 22.2828 18.6694 22.4469C18.6065 22.7714 18.6019 23.1137 18.4377 23.4101C18.3993 23.4795 18.3393 23.5264 18.2952 23.5883C18.2136 23.7008 18.252 23.8668 18.2436 24C18.3599 23.8921 18.4996 23.9071 18.6244 23.8227C18.7163 23.7608 18.7838 23.6745 18.8832 23.6192C18.9657 23.5742 19.0567 23.5432 19.142 23.501C19.3071 23.4213 19.4393 23.2957 19.6063 23.2188C19.7788 23.14 19.9533 23.065 20.1249 22.9843C20.3322 22.8886 20.5366 22.7977 20.7139 22.6523C20.7598 22.6139 20.7823 22.5454 20.8292 22.5107C20.8451 22.4985 20.9342 22.4769 20.9446 22.4647C20.9661 22.4404 20.9586 22.4263 20.9708 22.3972L20.9699 22.3306Z"/>
</svg>
