<?xml version="1.0" encoding="UTF-8" standalone="no"?>
<!-- Created with Inkscape (http://www.inkscape.org/) -->

<svg
   width="25.509115"
   height="24"
   viewBox="0 0 6.7492866 6.35"
   version="1.1"
   id="svg7336"
   inkscape:version="1.2.1 (9c6d41e4, 2022-07-14)"
   sodipodi:docname="resurgent_evils.svg"
   xmlns:inkscape="http://www.inkscape.org/namespaces/inkscape"
   xmlns:sodipodi="http://sodipodi.sourceforge.net/DTD/sodipodi-0.dtd"
   xmlns="http://www.w3.org/2000/svg"
   xmlns:svg="http://www.w3.org/2000/svg">
  <sodipodi:namedview
     id="namedview7338"
     pagecolor="#505050"
     bordercolor="#eeeeee"
     borderopacity="1"
     inkscape:showpageshadow="0"
     inkscape:pageopacity="0"
     inkscape:pagecheckerboard="0"
     inkscape:deskcolor="#505050"
     inkscape:document-units="mm"
     showgrid="false"
     inkscape:zoom="0.70199214"
     inkscape:cx="229.3473"
     inkscape:cy="64.103282"
     inkscape:window-width="1390"
     inkscape:window-height="938"
     inkscape:window-x="0"
     inkscape:window-y="25"
     inkscape:window-maximized="0"
     inkscape:current-layer="layer1" />
  <defs
     id="defs7333">
    <clipPath
       clipPathUnits="userSpaceOnUse"
       id="clipPath2379">
      <path
         d="m 159.654,707.92 h 22.76 v 22.76 h -22.76 z"
         id="path2377" />
    </clipPath>
  </defs>
  <g
     inkscape:label="Layer 1"
     inkscape:groupmode="layer"
     id="layer1"
     transform="translate(-44.589387,-131.49339)">
    <g
       id="g2373"
       transform="matrix(0.32578326,0,0,-0.32578326,-7.8458594,368.896)">
      <g
         id="g2375"
         clip-path="url(#clipPath2379)">
        <g
           id="g2381"
           transform="translate(164.237,728.191)">
          <path
             d="M 0,0 C 0.009,-0.047 0.093,-0.135 0.12,-0.178 0.296,-0.459 0.474,-0.718 0.673,-0.985 0.94,-1.342 1.136,-1.749 1.392,-2.115 1.511,-2.287 1.645,-2.444 1.782,-2.601 1.912,-2.749 2.01,-2.91 2.116,-3.075 2.076,-3.088 2.046,-3.087 2.006,-3.109 1.951,-3.14 1.93,-3.206 1.877,-3.234 1.835,-3.257 1.778,-3.255 1.729,-3.279 1.681,-3.301 1.634,-3.336 1.591,-3.355 c -0.03,0.042 -0.044,0.091 -0.07,0.134 -0.069,0.117 -0.159,0.216 -0.226,0.336 -0.074,0.131 -0.157,0.238 -0.26,0.348 -0.09,0.096 -0.145,0.195 -0.225,0.297 -0.064,0.083 -0.145,0.147 -0.216,0.222 -0.098,0.102 -0.179,0.219 -0.278,0.32 -0.095,0.099 -0.201,0.187 -0.287,0.293 -0.079,0.096 -0.133,0.206 -0.226,0.29 -0.102,0.093 -0.227,0.183 -0.238,0.325 -0.01,0.119 0.004,0.191 -0.039,0.305 -0.033,0.089 -0.074,0.163 0.005,0.236 0.05,0.047 0.134,0.076 0.191,0.121 C -0.155,-0.029 -0.035,-0.036 0,0"
             style="fill:#231f20;fill-opacity:1;fill-rule:nonzero;stroke:none"
             id="path2383" />
        </g>
        <g
           id="g2385"
           transform="translate(161.945,725.978)">
          <path
             d="M 0,0 C 0.018,-0.098 0.25,-0.227 0.305,-0.269 0.505,-0.421 0.717,-0.554 0.912,-0.711 1.106,-0.866 1.283,-1.039 1.468,-1.203 1.66,-1.373 1.851,-1.549 2.066,-1.69 2.152,-1.746 2.253,-1.79 2.328,-1.86 2.38,-1.908 2.392,-1.97 2.434,-2.017 2.3,-1.977 2.094,-2.338 2.043,-2.406 1.987,-2.481 1.905,-2.524 1.852,-2.6 1.815,-2.653 1.822,-2.707 1.747,-2.68 1.725,-2.671 1.698,-2.619 1.687,-2.605 1.603,-2.5 1.498,-2.419 1.396,-2.333 c -0.349,0.294 -0.7,0.567 -1.076,0.825 -0.203,0.14 -0.397,0.294 -0.605,0.424 -0.14,0.088 -0.297,0.197 -0.308,0.372 -0.008,0.123 0.008,0.242 0.048,0.358 0.018,0.053 0.05,0.124 0.105,0.152 0.052,0.008 0.105,0.008 0.158,-0.001 0.09,0 0.171,0.028 0.282,0.203"
             style="fill:#231f20;fill-opacity:1;fill-rule:nonzero;stroke:none"
             id="path2387" />
        </g>
        <g
           id="g2389"
           transform="translate(174.866,728.665)">
          <path
             d="M 0,0 -0.009,0.036 C -0.087,0.021 -0.136,-0.178 -0.16,-0.24 -0.331,-0.673 -0.54,-1.093 -0.721,-1.523 -0.863,-1.86 -1.02,-2.188 -1.159,-2.526 c -0.052,-0.126 -0.21,-0.369 -0.14,-0.515 0.069,-0.008 0.143,0.013 0.21,0.003 0.18,-0.027 0.286,-0.306 0.448,-0.395 0.019,0.056 0.018,0.1 0.042,0.16 0.071,0.179 0.152,0.353 0.24,0.524 0.246,0.483 0.509,0.99 0.833,1.423 0.129,0.173 0.214,0.325 0.279,0.531 0.03,0.094 0.061,0.191 0.108,0.278 0.014,0.024 0.031,0.061 0.047,0.082 0.028,0.037 0.092,0.069 0.108,0.12 -0.018,0.044 -0.127,0.081 -0.163,0.11 C 0.694,-0.077 0.548,0.015 0.337,0.04 0.232,0.053 0.107,0.064 0.037,-0.035 -0.076,-0.196 0.172,-0.239 0,0"
             style="fill:#231f20;fill-opacity:1;fill-rule:nonzero;stroke:none"
             id="path2391" />
        </g>
        <g
           id="g2393"
           transform="translate(179.213,725.701)">
          <path
             d="m 0,0 c -0.073,0.017 -0.223,-0.072 -0.29,-0.097 -0.316,-0.117 -0.542,-0.411 -0.786,-0.636 -0.522,-0.48 -1.136,-0.844 -1.697,-1.277 -0.067,-0.051 -0.209,-0.123 -0.194,-0.225 0.012,-0.09 0.058,-0.036 0.128,-0.057 0.173,-0.053 0.188,-0.326 0.328,-0.41 0.055,-0.033 0.112,-0.03 0.18,-0.025 0.086,0.006 0.121,0.041 0.197,0.087 0.116,0.07 0.251,0.106 0.377,0.154 0.159,0.06 0.307,0.141 0.449,0.233 0.245,0.159 0.477,0.331 0.696,0.523 0.175,0.153 0.327,0.311 0.529,0.426 0.194,0.111 0.404,0.185 0.605,0.28 0.098,0.046 0.173,0.069 0.191,0.174 0.015,0.086 -0.011,0.15 -0.065,0.216 -0.21,0.254 -0.476,0.48 -0.72,0.701 C -0.092,0.024 -0.078,-0.029 0,0"
             style="fill:#231f20;fill-opacity:1;fill-rule:nonzero;stroke:none"
             id="path2395" />
        </g>
        <g
           id="g2397"
           transform="translate(176.21,714.756)">
          <path
             d="M 0,0 C 0.096,-0.087 0.201,-0.16 0.296,-0.255 0.489,-0.447 0.667,-0.652 0.855,-0.848 1.129,-1.134 1.426,-1.396 1.707,-1.674 1.977,-1.942 2.195,-2.284 2.495,-2.52 2.662,-2.651 2.847,-2.747 2.986,-2.912 2.945,-2.951 2.895,-2.91 2.842,-2.903 2.646,-2.875 2.502,-3.066 2.379,-3.19 2.296,-3.273 2.043,-3.633 1.895,-3.551 c -0.037,0.02 -0.047,0.075 -0.066,0.11 -0.12,0.217 -0.308,0.416 -0.483,0.588 -0.234,0.23 -0.471,0.443 -0.693,0.686 -0.202,0.222 -0.396,0.458 -0.612,0.667 -0.219,0.211 -0.439,0.431 -0.67,0.628 -0.065,0.055 -0.244,0.186 -0.246,0.281 -0.001,0.031 0.071,0.091 0.084,0.112 0.046,0.074 0.061,0.173 0.124,0.237 0.073,0.074 0.174,0.064 0.263,0.101 0.104,0.043 0.188,0.16 0.312,0.137 C -0.088,-0.016 -0.083,-0.028 0,0"
             style="fill:#231f20;fill-opacity:1;fill-rule:nonzero;stroke:none"
             id="path2399" />
        </g>
        <g
           id="g2401"
           transform="translate(174.195,712.78)">
          <path
             d="M 0,0 C -0.006,-0.099 0.027,-0.133 0.077,-0.221 0.261,-0.54 0.447,-0.857 0.634,-1.174 0.842,-1.528 1.027,-1.892 1.227,-2.25 1.275,-2.337 1.332,-2.417 1.395,-2.493 1.421,-2.526 1.563,-2.654 1.54,-2.724 1.491,-2.724 1.453,-2.737 1.408,-2.745 1.29,-2.768 1.178,-2.772 1.071,-2.842 1,-2.889 0.809,-3.124 0.707,-3.088 c -0.062,0.022 -0.016,0.041 -0.032,0.081 -0.041,0.098 -0.091,0.196 -0.136,0.296 -0.173,0.386 -0.34,0.757 -0.544,1.129 -0.131,0.239 -0.292,0.45 -0.435,0.68 -0.04,0.063 -0.067,0.127 -0.097,0.194 -0.029,0.066 -0.084,0.124 -0.098,0.195 -0.017,0.089 0.025,0.119 0.083,0.17 0.216,0.189 0.39,0.34 0.552,0.343"
             style="fill:#231f20;fill-opacity:1;fill-rule:nonzero;stroke:none"
             id="path2403" />
        </g>
        <g
           id="g2405"
           transform="translate(166.292,713.175)">
          <path
             d="m 0,0 c -0.049,-0.006 -0.095,-0.033 -0.134,-0.06 -0.113,-0.077 -0.232,-0.166 -0.329,-0.259 -0.244,-0.234 -0.45,-0.506 -0.673,-0.758 -0.23,-0.261 -0.474,-0.504 -0.675,-0.788 -0.176,-0.248 -0.327,-0.514 -0.526,-0.746 -0.118,-0.138 -0.273,-0.244 -0.371,-0.397 -0.065,-0.1 -0.14,-0.195 -0.176,-0.309 -0.02,-0.067 -0.088,-0.248 -0.162,-0.126 0.003,0.039 0.005,0.079 0.007,0.118 0.004,0.051 -0.005,0.099 -0.028,0.144 -0.053,0.175 -0.133,0.324 -0.173,0.507 -0.031,0.141 -0.061,0.261 -0.155,0.376 -0.075,0.091 -0.173,0.158 -0.249,0.247 -0.103,0.12 0.053,0.16 0.15,0.235 0.099,0.076 0.214,0.126 0.316,0.198 0.224,0.158 0.426,0.345 0.649,0.505 0.194,0.139 0.4,0.253 0.599,0.382 0.174,0.112 0.271,0.221 0.399,0.377 0.23,0.279 0.563,0.442 0.781,0.732 0.161,0.214 0.304,0.446 0.522,0.61 0.079,0.06 0.144,0.131 0.221,0.193 0.051,0.04 0.102,0.048 0.155,0.08 C 0.243,1.319 0.326,1.486 0.444,1.493 0.541,1.499 0.542,1.416 0.596,1.345 0.726,1.175 1.032,1.125 1.213,1.027 0.924,0.925 0.682,0.655 0.485,0.437 0.363,0.29 0.232,0.15 0.092,0.018 0,-0.063 -0.099,-0.136 -0.202,-0.203 -0.296,-0.29 -0.278,-0.359 0,0"
             style="fill:#231f20;fill-opacity:1;fill-rule:nonzero;stroke:none"
             id="path2407" />
        </g>
        <g
           id="g2409"
           transform="translate(163.289,715.586)">
          <path
             d="m 0,0 c 0.009,-0.051 0.068,-0.084 0.097,-0.125 0.035,-0.049 0.146,-0.174 0.145,-0.232 0,-0.02 -0.052,-0.101 -0.062,-0.116 -0.064,-0.099 -0.178,-0.165 -0.268,-0.237 -0.163,-0.133 -0.323,-0.235 -0.516,-0.32 -0.162,-0.071 -0.293,-0.111 -0.428,-0.22 -0.119,-0.097 -0.249,-0.188 -0.363,-0.292 -0.066,-0.059 -0.118,-0.161 -0.219,-0.154 -0.07,0.113 -0.061,0.275 -0.103,0.402 -0.033,0.102 -0.164,0.361 -0.104,0.471 0.024,0.045 0.058,0.045 0.1,0.07 0.365,0.214 0.715,0.473 1.057,0.721 0.14,0.102 0.26,0.17 0.429,0.192 C -0.077,0.18 -0.058,0.156 0,0"
             style="fill:#231f20;fill-opacity:1;fill-rule:nonzero;stroke:none"
             id="path2411" />
        </g>
        <g
           id="g2413"
           transform="translate(177.791,719.774)">
          <path
             d="m 0,0 c -0.02,-0.012 -0.046,-0.022 -0.065,-0.033 0.05,0.063 0.175,0.032 0.244,0.031 0.366,0 0.741,0.022 1.107,0.046 C 1.778,0.077 2.261,0.201 2.752,0.238 3.017,0.257 3.227,0.336 3.471,0.437 3.553,0.472 3.74,0.567 3.838,0.516 3.893,0.488 3.876,0.417 3.871,0.356 3.851,0.113 3.713,-0.109 3.708,-0.355 3.705,-0.479 3.79,-0.591 3.789,-0.706 3.663,-0.743 3.497,-0.707 3.367,-0.718 3.166,-0.734 2.984,-0.794 2.782,-0.789 2.472,-0.78 2.171,-0.654 1.858,-0.673 1.708,-0.682 1.57,-0.754 1.424,-0.783 1.272,-0.813 1.115,-0.82 0.961,-0.84 0.781,-0.865 0.618,-0.869 0.436,-0.869 0.355,-0.87 0.257,-0.888 0.178,-0.866 c -0.042,0.011 -0.064,0.042 -0.099,0.058 -0.073,0.032 -0.102,0.012 -0.154,0.081 -0.035,0.047 -0.087,0.137 -0.083,0.195 0.007,0.074 0.062,0.145 0.075,0.221 C -0.07,-0.235 -0.101,-0.073 0,0"
             style="fill:#231f20;fill-opacity:1;fill-rule:nonzero;stroke:none"
             id="path2415" />
        </g>
        <g
           id="g2417"
           transform="translate(176.012,724.279)">
          <path
             d="M 0,0 C 0.042,0.023 0.08,0.02 0.119,0.038 0.185,0.067 0.227,0.13 0.275,0.186 0.349,0.272 0.425,0.34 0.513,0.413 0.554,0.447 0.595,0.52 0.64,0.545 0.752,0.608 0.834,0.463 0.892,0.397 1.019,0.251 1.086,0.072 1.217,-0.072 1.265,-0.125 1.277,-0.161 1.307,-0.217 1.341,-0.28 1.394,-0.335 1.443,-0.39 1.492,-0.447 1.519,-0.487 1.551,-0.553 1.599,-0.653 1.682,-0.724 1.732,-0.822 1.756,-0.869 1.763,-0.922 1.784,-0.97 1.82,-1.051 1.891,-1.109 1.93,-1.189 1.941,-1.21 1.933,-1.24 1.943,-1.262 1.962,-1.304 1.996,-1.334 2.017,-1.374 2.049,-1.434 2.068,-1.496 2.09,-1.561 2.297,-2.179 2.517,-2.786 2.658,-3.429 2.683,-3.542 2.685,-3.638 2.686,-3.753 2.687,-3.876 2.721,-3.989 2.729,-4.112 2.735,-4.216 2.727,-4.326 2.726,-4.431 2.723,-4.589 2.758,-4.705 2.799,-4.854 2.827,-4.96 2.792,-5.064 2.775,-5.168 2.761,-5.253 2.765,-5.338 2.766,-5.423 2.768,-5.559 2.726,-5.669 2.726,-5.811 2.727,-5.903 2.773,-6.099 2.679,-6.156 2.651,-6.173 2.565,-6.187 2.53,-6.195 2.44,-6.216 2.334,-6.236 2.242,-6.245 c -0.074,-0.008 -0.155,0 -0.229,0.002 -0.074,0.001 -0.101,0.015 -0.118,-0.058 -0.015,-0.061 0.002,-0.151 0.002,-0.214 0,-0.115 -0.03,-0.287 0.006,-0.397 0.122,-0.024 0.256,-0.019 0.379,-0.04 0.196,-0.035 0.388,-0.125 0.583,-0.162 0.1,-0.018 0.146,-0.018 0.248,-0.069 0.089,-0.044 0.134,-0.047 0.228,-0.048 0.1,-0.001 0.204,0.018 0.284,-0.036 0.028,0.037 0.033,0.074 0.049,0.114 0.022,0.057 0.055,0.102 0.082,0.156 0.043,0.086 0.03,0.167 0.044,0.257 0.021,0.138 0.095,0.257 0.11,0.397 0.014,0.119 -0.009,0.238 0.004,0.357 0.012,0.115 0.056,0.221 0.073,0.334 0.036,0.241 0.092,0.484 0.118,0.727 0.012,0.122 0.036,0.233 0.06,0.353 0.028,0.133 0.024,0.257 0.023,0.393 0,0.267 -0.003,0.522 -0.03,0.787 -0.01,0.098 0.003,0.199 -0.015,0.296 C 4.12,-2.97 4.062,-2.852 4.039,-2.725 3.998,-2.502 3.91,-2.295 3.829,-2.082 3.708,-1.764 3.495,-1.492 3.357,-1.183 3.265,-0.977 3.112,-0.808 3.051,-0.59 2.991,-0.377 2.898,-0.218 2.762,-0.045 2.634,0.117 2.551,0.312 2.42,0.476 2.269,0.667 2.133,0.865 1.985,1.059 1.88,1.196 1.768,1.31 1.698,1.465 1.659,1.552 1.631,1.569 1.562,1.637 1.464,1.732 1.419,1.829 1.273,1.852 1.221,1.74 1.079,1.753 0.998,1.664 0.886,1.543 0.797,1.408 0.665,1.303 0.504,1.175 0.309,1.125 0.156,0.986 0.056,0.895 -0.051,0.881 -0.139,0.775 -0.205,0.695 -0.285,0.642 -0.327,0.546 -0.36,0.469 -0.416,0.37 -0.374,0.297 -0.351,0.256 -0.303,0.234 -0.274,0.198 -0.245,0.159 -0.23,0.117 -0.2,0.079 -0.147,0.013 -0.054,-0.1 0,0"
             style="fill:#231f20;fill-opacity:1;fill-rule:nonzero;stroke:none"
             id="path2419" />
        </g>
        <g
           id="g2421"
           transform="translate(174.827,725.583)">
          <path
             d="M 0,0 C 0.009,0.062 0.046,0.114 0.068,0.164 0.12,0.278 0.154,0.404 0.199,0.523 0.246,0.648 0.272,0.783 0.316,0.911 0.349,1.007 0.404,1.09 0.436,1.186 0.453,1.238 0.456,1.292 0.474,1.344 0.479,1.356 0.48,1.4 0.483,1.414 0.485,1.429 0.519,1.438 0.518,1.462 0.514,1.514 0.439,1.549 0.4,1.57 0.342,1.6 0.275,1.613 0.216,1.64 0.104,1.692 0.023,1.771 -0.078,1.837 c -0.109,0.072 -0.237,0.097 -0.35,0.169 -0.113,0.073 -0.215,0.073 -0.328,0.133 -0.308,0.166 -0.673,0.285 -1.01,0.379 -0.146,0.041 -0.292,0.127 -0.444,0.13 -0.14,0.003 -0.26,0.015 -0.397,0.05 -0.141,0.036 -0.282,0.023 -0.42,0.075 -0.167,0.062 -0.294,0.105 -0.474,0.113 -0.126,0.006 -0.25,0.017 -0.371,0.056 -0.176,0.056 -0.289,0.104 -0.476,0.101 -0.174,-0.003 -0.349,0 -0.523,0 C -5.08,3.042 -5.279,3.077 -5.486,3.084 -5.677,3.091 -5.854,3.051 -6.043,3.043 -6.129,3.039 -6.196,3.046 -6.276,3.006 -6.318,2.985 -6.355,2.947 -6.398,2.924 -6.503,2.87 -6.62,2.84 -6.715,2.768 -6.942,2.596 -7.17,2.528 -7.45,2.479 -7.632,2.448 -7.78,2.389 -7.954,2.329 -8.077,2.286 -8.183,2.27 -8.297,2.203 -8.385,2.151 -8.465,2.125 -8.565,2.105 -8.708,2.077 -8.848,1.989 -8.963,1.897 -9.049,1.827 -9.101,1.728 -9.164,1.651 -9.292,1.496 -9.477,1.382 -9.621,1.245 -9.726,1.144 -9.866,1.04 -9.982,0.953 c -0.087,-0.066 -0.194,-0.14 -0.214,-0.26 -0.019,-0.114 0.049,-0.096 0.118,-0.144 0.04,-0.028 0.067,-0.078 0.096,-0.116 0.094,-0.123 0.186,-0.247 0.277,-0.372 0.046,-0.063 0.089,-0.122 0.143,-0.18 0.042,-0.045 0.091,-0.137 0.149,-0.154 0.005,0.067 0.026,0.097 0.084,0.127 0.067,0.034 0.183,-0.006 0.236,0.033 0.088,0.066 0.039,0.235 0.006,0.311 -0.031,0.069 -0.091,0.121 -0.113,0.198 -0.01,0.034 -0.009,0.076 -0.016,0.112 -0.003,0.013 -0.027,0.01 -0.028,0.031 -0.006,0.104 0.145,0.134 0.213,0.177 0.09,0.057 0.141,0.149 0.223,0.211 0.08,0.061 0.17,0.074 0.25,0.138 0.096,0.078 0.191,0.109 0.302,0.16 0.14,0.065 0.264,0.172 0.404,0.231 0.198,0.084 0.423,0.111 0.62,0.203 0.136,0.064 0.275,0.075 0.418,0.117 0.13,0.039 0.241,0.111 0.374,0.141 0.131,0.03 0.265,0.046 0.396,0.078 0.099,0.024 0.191,0.072 0.29,0.092 0.137,0.029 0.288,-0.025 0.421,0.013 0.049,0.014 0.09,0.053 0.134,0.075 0.076,0.039 0.158,0.039 0.241,0.04 0.234,0.003 0.463,0.049 0.697,0.039 0.15,-0.006 0.312,-0.025 0.46,-0.051 C -3.666,2.179 -3.535,2.182 -3.399,2.165 -3.233,2.146 -3.078,2.087 -2.914,2.061 -2.767,2.039 -2.63,2.08 -2.492,2.018 -2.354,1.957 -2.206,1.886 -2.055,1.864 -1.996,1.855 -1.935,1.863 -1.876,1.855 -1.767,1.842 -1.695,1.796 -1.6,1.748 -1.483,1.69 -1.355,1.642 -1.235,1.59 -1.12,1.541 -1.018,1.467 -0.904,1.417 -0.836,1.388 -0.772,1.379 -0.707,1.344 -0.556,1.262 -0.422,1.151 -0.27,1.072 -0.221,1.046 -0.183,1.015 -0.138,0.987 -0.103,0.965 -0.053,0.946 -0.037,0.912 -0.012,0.86 -0.055,0.797 -0.069,0.752 -0.102,0.646 -0.111,0.536 -0.156,0.434 -0.198,0.338 -0.259,0.261 -0.287,0.159 -0.304,0.098 -0.37,-0.036 -0.359,-0.101 -0.34,-0.212 -0.15,-0.091 -0.046,-0.125 -0.045,-0.164 -0.031,-0.211 0,0"
             style="fill:#231f20;fill-opacity:1;fill-rule:nonzero;stroke:none"
             id="path2423" />
        </g>
        <g
           id="g2425"
           transform="translate(163.368,725.385)">
          <path
             d="M 0,0 C -0.045,0 -0.073,0.024 -0.074,0.065 -0.012,-0.012 0.073,-0.081 0.147,-0.149 0.2,-0.198 0.262,-0.228 0.316,-0.274 0.374,-0.324 0.417,-0.392 0.477,-0.439 0.546,-0.493 0.58,-0.534 0.555,-0.634 0.548,-0.662 0.523,-0.669 0.517,-0.695 0.507,-0.741 0.523,-0.778 0.486,-0.816 0.389,-0.76 0.237,-0.593 0.124,-0.596 0.125,-0.667 0.069,-0.734 0.03,-0.79 -0.032,-0.879 -0.071,-0.979 -0.146,-1.058 -0.215,-1.13 -0.279,-1.185 -0.326,-1.272 -0.36,-1.335 -0.404,-1.4 -0.437,-1.462 -0.471,-1.526 -0.481,-1.594 -0.512,-1.661 -0.558,-1.76 -0.638,-1.834 -0.673,-1.94 -0.709,-2.047 -0.735,-2.139 -0.78,-2.242 c -0.05,-0.111 -0.115,-0.224 -0.16,-0.336 -0.017,-0.041 -0.026,-0.085 -0.036,-0.128 -0.023,-0.093 -0.068,-0.138 -0.113,-0.217 -0.07,-0.124 -0.05,-0.28 -0.105,-0.409 -0.015,-0.036 -0.051,-0.073 -0.063,-0.111 -0.02,-0.071 -0.016,-0.155 -0.027,-0.228 -0.019,-0.128 -0.056,-0.258 -0.061,-0.388 -0.003,-0.085 0.002,-0.162 -0.017,-0.246 -0.017,-0.081 -0.055,-0.154 -0.062,-0.237 -0.008,-0.094 0.011,-0.187 -0.007,-0.28 -0.022,-0.108 -0.032,-0.198 -0.031,-0.312 10e-4,-0.152 -0.032,-0.287 -0.042,-0.436 -0.008,-0.138 -10e-4,-0.26 -0.028,-0.394 -0.05,-0.244 -0.009,-0.543 -0.009,-0.791 0,-0.294 0.004,-0.579 0.034,-0.871 0.011,-0.101 0.008,-0.191 0.043,-0.288 0.024,-0.068 0.056,-0.127 0.073,-0.197 0.037,-0.149 0.057,-0.252 0.124,-0.389 0.069,-0.143 0.153,-0.279 0.2,-0.43 0.057,-0.181 0.134,-0.359 0.198,-0.538 0.057,-0.16 0.161,-0.305 0.24,-0.455 0.048,-0.093 0.077,-0.189 0.124,-0.281 0.054,-0.108 0.101,-0.188 0.11,-0.307 0.007,-0.096 0.033,-0.242 0.138,-0.277 0.142,-0.046 0.214,0.025 0.294,0.118 0.031,0.037 0.145,0.16 0.187,0.159 0.082,-0.001 0.053,-0.102 0.053,-0.167 -0.001,-0.188 0.001,-0.283 0.129,-0.417 0.032,-0.033 0.093,-0.065 0.063,-0.118 -0.015,-0.026 -0.067,-0.031 -0.092,-0.045 -0.084,-0.051 -0.141,-0.133 -0.22,-0.193 -0.106,-0.082 -0.198,-0.181 -0.315,-0.246 -0.096,-0.053 -0.215,-0.105 -0.297,-0.175 -0.13,-0.111 -0.162,-0.303 -0.368,-0.253 -0.005,0.077 -0.04,0.107 -0.094,0.16 -0.072,0.072 -0.113,0.144 -0.173,0.225 -0.142,0.187 -0.289,0.375 -0.412,0.578 -0.045,0.074 -0.088,0.147 -0.126,0.223 -0.048,0.098 -0.145,0.201 -0.155,0.313 -0.007,0.071 0.006,0.123 -0.013,0.196 -0.032,0.118 -0.053,0.227 -0.061,0.348 -0.006,0.097 -0.042,0.187 -0.059,0.284 -0.022,0.114 -0.028,0.236 -0.068,0.345 -0.041,0.115 -0.096,0.222 -0.132,0.341 -0.043,0.145 -0.055,0.289 -0.096,0.433 -0.14,0.498 -0.159,1.004 -0.159,1.517 0,0.202 0.017,0.409 -0.02,0.607 -0.043,0.235 -0.019,0.486 -0.019,0.725 0,0.268 0.005,0.524 0.039,0.79 0.017,0.132 0.028,0.264 0.044,0.395 0.018,0.148 0.071,0.281 0.104,0.425 0.061,0.255 0.173,0.496 0.218,0.755 0.025,0.144 0.087,0.243 0.149,0.373 0.057,0.12 0.1,0.247 0.157,0.367 0.116,0.243 0.266,0.471 0.377,0.715 0.047,0.101 0.074,0.205 0.106,0.312 0.033,0.113 0.102,0.217 0.149,0.326 0.091,0.207 0.182,0.427 0.316,0.611 0.121,0.165 0.194,0.352 0.297,0.526 0.067,0.113 0.121,0.19 0.217,0.275 0.046,0.04 0.095,0.095 0.158,0.111 C 0.025,0.177 -0.003,0.096 0,0"
             style="fill:#231f20;fill-opacity:1;fill-rule:nonzero;stroke:none"
             id="path2427" />
        </g>
        <g
           id="g2429"
           transform="translate(174.945,712.385)">
          <path
             d="M 0,0 C -0.037,0.005 -0.049,0.029 -0.04,0.066 -0.037,0.003 -0.042,-0.03 -0.018,-0.086 0.027,-0.193 0.106,-0.322 0.166,-0.424 0.305,-0.662 0.451,-0.898 0.574,-1.146 0.647,-1.294 0.689,-1.452 0.756,-1.598 0.776,-1.643 0.807,-1.695 0.83,-1.741 0.854,-1.789 0.908,-1.831 0.905,-1.891 0.824,-1.912 0.75,-1.89 0.669,-1.92 0.542,-1.965 0.43,-2.037 0.307,-2.086 0.187,-2.135 0.069,-2.122 -0.042,-2.192 c -0.113,-0.072 -0.237,-0.121 -0.354,-0.19 -0.21,-0.123 -0.435,-0.184 -0.662,-0.265 -0.132,-0.048 -0.233,-0.083 -0.374,-0.08 -0.096,0.003 -0.15,0.008 -0.231,-0.038 -0.05,-0.028 -0.064,-0.054 -0.122,-0.071 -0.073,-0.022 -0.124,-0.004 -0.192,-0.046 -0.039,-0.025 -0.046,-0.059 -0.094,-0.075 -0.121,-0.04 -0.273,-0.04 -0.399,-0.066 -0.284,-0.06 -0.596,-0.003 -0.885,-0.018 -0.252,-0.013 -0.505,-0.059 -0.751,-0.079 -0.137,-0.012 -0.259,-0.042 -0.399,-0.041 -0.169,10e-4 -0.338,0 -0.507,0 -0.093,0 -0.185,10e-4 -0.277,-0.002 -0.193,-0.005 -0.333,0.116 -0.517,0.124 -0.294,0.014 -0.555,0.19 -0.842,0.263 -0.168,0.043 -0.3,0.125 -0.463,0.188 -0.18,0.07 -0.369,0.101 -0.547,0.177 -0.131,0.056 -0.231,0.119 -0.373,0.148 -0.189,0.037 -0.344,0.157 -0.511,0.247 -0.21,0.114 -0.412,0.235 -0.621,0.351 -0.058,0.032 -0.132,0.059 -0.182,0.105 -0.029,0.026 -0.041,0.063 -0.067,0.089 -0.087,0.086 -0.229,0.106 -0.305,0.209 -0.104,0.142 -0.214,0.212 -0.37,0.303 -0.139,0.081 -0.244,0.211 -0.387,0.281 -0.041,0.02 -0.077,0.016 -0.121,0.041 -0.066,0.037 -0.131,0.092 -0.187,0.141 -0.084,0.074 -0.154,0.17 -0.241,0.239 -0.111,0.088 -0.267,0.108 -0.28,0.277 -0.007,0.093 0.048,0.123 0.096,0.195 0.028,0.044 0.036,0.088 0.07,0.131 0.052,0.067 0.146,0.123 0.208,0.184 0.091,0.089 0.13,0.208 0.236,0.277 0.071,0.046 0.157,0.119 0.242,0.138 0.066,0.015 0.176,0.016 0.238,-0.014 0.058,-0.029 0.229,-0.191 0.213,-0.253 -0.102,-0.021 -0.079,-0.007 -0.154,-0.077 -0.053,-0.048 -0.126,-0.058 -0.18,-0.106 -0.035,-0.031 -0.058,-0.068 -0.099,-0.093 -0.018,-0.012 -0.052,-0.001 -0.07,-0.016 -0.019,-0.016 -0.028,-0.038 -0.042,-0.055 -0.004,-0.015 -0.008,-0.03 -0.013,-0.045 -0.018,-0.008 -0.034,-0.019 -0.048,-0.032 -0.027,-0.05 -0.032,-0.116 -0.024,-0.176 0.011,-0.092 0.068,-0.11 0.128,-0.194 0.124,-0.172 0.26,-0.326 0.403,-0.477 0.122,-0.129 0.286,-0.205 0.419,-0.315 0.166,-0.136 0.345,-0.252 0.512,-0.386 0.104,-0.084 0.202,-0.117 0.325,-0.165 0.119,-0.047 0.218,-0.125 0.338,-0.172 0.283,-0.11 0.556,-0.238 0.839,-0.345 0.126,-0.047 0.222,-0.074 0.353,-0.077 0.133,-0.003 0.245,-0.078 0.377,-0.082 0.143,-0.005 0.279,-0.028 0.421,-0.039 0.139,-0.011 0.268,-0.061 0.407,-0.075 0.12,-0.012 0.23,-0.027 0.349,-0.054 0.131,-0.029 0.253,-0.014 0.382,-0.036 0.145,-0.025 0.279,-0.084 0.421,-0.108 0.168,-0.027 0.357,-0.057 0.529,-0.044 0.067,0.005 0.13,0.023 0.197,0.032 0.089,0.013 0.186,-0.008 0.273,0.011 0.139,0.03 0.264,0.148 0.401,0.199 0.15,0.055 0.317,0.099 0.471,0.145 0.066,0.02 0.134,0.022 0.201,0.045 0.111,0.039 0.193,0.116 0.293,0.174 0.16,0.092 0.337,0.097 0.497,0.183 0.11,0.059 0.202,0.151 0.315,0.203 0.077,0.036 0.161,0.04 0.238,0.074 0.053,0.024 0.1,0.061 0.153,0.085 0.18,0.078 0.375,0.011 0.552,0.115 0.124,0.074 0.238,0.083 0.371,0.126 0.04,0.014 0.078,0.047 0.117,0.063 0.07,0.028 0.159,0.02 0.226,0.048 0.045,0.02 0.09,0.054 0.122,0.098 0.066,0.091 0.025,0.108 -0.048,0.187 -0.097,0.105 -0.171,0.209 -0.231,0.339 -0.043,0.096 -0.132,0.212 -0.148,0.316 -0.014,0.085 0.028,0.099 0.111,0.118 C -0.204,0.096 -0.074,0.079 0,0"
             style="fill:#231f20;fill-opacity:1;fill-rule:nonzero;stroke:none"
             id="path2431" />
        </g>
      </g>
    </g>
  </g>
</svg>
