<?xml version="1.0" encoding="UTF-8" standalone="no"?>
<!-- Created with Inkscape (http://www.inkscape.org/) -->

<svg
   width="23.869034"
   height="24"
   viewBox="0 0 6.3153484 6.35"
   version="1.1"
   id="svg5880"
   inkscape:version="1.2.1 (9c6d41e4, 2022-07-14)"
   sodipodi:docname="return_to_extracurricular_activity.svg"
   xmlns:inkscape="http://www.inkscape.org/namespaces/inkscape"
   xmlns:sodipodi="http://sodipodi.sourceforge.net/DTD/sodipodi-0.dtd"
   xmlns="http://www.w3.org/2000/svg"
   xmlns:svg="http://www.w3.org/2000/svg">
  <sodipodi:namedview
     id="namedview5882"
     pagecolor="#505050"
     bordercolor="#eeeeee"
     borderopacity="1"
     inkscape:showpageshadow="0"
     inkscape:pageopacity="0"
     inkscape:pagecheckerboard="0"
     inkscape:deskcolor="#505050"
     inkscape:document-units="mm"
     showgrid="false"
     inkscape:zoom="0.70199214"
     inkscape:cx="84.046525"
     inkscape:cy="226.49826"
     inkscape:window-width="1390"
     inkscape:window-height="938"
     inkscape:window-x="0"
     inkscape:window-y="25"
     inkscape:window-maximized="0"
     inkscape:current-layer="layer1" />
  <defs
     id="defs5877">
    <clipPath
       clipPathUnits="userSpaceOnUse"
       id="clipPath305">
      <path
         d="m 39.282,468.38 h 22.057 v 22.058 H 39.282 Z"
         id="path303" />
    </clipPath>
  </defs>
  <g
     inkscape:label="Layer 1"
     inkscape:groupmode="layer"
     id="layer1"
     transform="translate(-82.909243,-88.542067)">
    <g
       id="g299"
       transform="matrix(0.29480893,0,0,-0.29480893,71.234742,233.05104)">
      <g
         id="g301"
         clip-path="url(#clipPath305)">
        <g
           id="g307"
           transform="translate(56.8958,473.837)">
          <path
             d="M 0,0 C -0.01,-0.069 -0.019,-0.134 -0.022,-0.193 -0.031,-0.386 -0.158,-0.532 -0.318,-0.532 H -0.33 c -0.134,0.006 -0.27,0.018 -0.402,0.029 -0.158,0.014 -0.321,0.028 -0.48,0.033 -0.024,0 -0.049,0.001 -0.073,0.001 -0.243,0 -0.493,-0.031 -0.736,-0.061 -0.246,-0.03 -0.501,-0.061 -0.754,-0.061 -0.025,0 -0.049,0 -0.074,0.001 -0.18,0.004 -0.345,0.006 -0.503,0.006 -0.459,0 -0.859,-0.018 -1.224,-0.057 -0.164,-0.018 -0.312,-0.084 -0.468,-0.155 -0.093,-0.043 -0.19,-0.086 -0.291,-0.119 -0.12,-0.039 -0.249,-0.058 -0.406,-0.058 -0.117,0 -0.235,0.01 -0.348,0.02 -0.06,0.006 -0.12,0.011 -0.18,0.015 -0.079,0.005 -0.162,0.007 -0.252,0.007 -0.196,0 -0.396,-0.012 -0.59,-0.023 -0.195,-0.012 -0.396,-0.023 -0.593,-0.023 -0.083,0 -0.159,0.002 -0.233,0.006 -0.214,0.012 -0.433,0.039 -0.645,0.066 -0.207,0.026 -0.421,0.053 -0.629,0.065 -0.34,0.02 -0.682,0.045 -1.014,0.068 -0.658,0.047 -1.339,0.095 -2.015,0.108 l -0.063,0.001 c -0.332,0.004 -0.342,0.077 -0.398,0.48 l -0.005,0.037 c -0.07,0.498 0.101,0.973 0.266,1.431 0.02,0.056 0.04,0.112 0.059,0.167 0.128,0.364 0.331,0.608 0.528,0.843 0.15,0.18 0.305,0.366 0.429,0.609 0.298,0.585 0.623,1.103 0.966,1.651 l 0.107,0.17 c 0.106,0.17 0.209,0.357 0.307,0.538 0.171,0.312 0.348,0.635 0.561,0.902 0.037,0.047 0.077,0.098 0.119,0.152 0.361,0.463 0.85,1.092 1.35,1.178 0.142,0.311 0.141,0.956 0.141,1.432 -10e-4,0.155 -10e-4,0.301 0.004,0.415 0.026,0.621 0.05,1.208 0.166,1.835 0.009,0.052 0.02,0.103 0.03,0.154 0.043,0.221 0.085,0.43 0.07,0.653 -0.007,0.102 -0.028,0.208 -0.049,0.31 -0.022,0.114 -0.046,0.232 -0.051,0.349 -0.002,0.059 0.004,0.123 0.009,0.186 0.012,0.126 0.024,0.256 -0.029,0.327 -0.019,0.025 -0.043,0.04 -0.11,0.04 -0.025,0 -0.052,-0.002 -0.079,-0.004 -0.032,-0.002 -0.063,-0.005 -0.094,-0.005 -0.059,0 -0.106,0.009 -0.148,0.027 -0.113,0.048 -0.228,0.111 -0.226,0.218 0.001,0.116 0.135,0.178 0.311,0.247 0.153,0.06 0.316,0.116 0.473,0.116 0.105,0 0.194,-0.026 0.267,-0.076 0.009,0.001 0.018,0.002 0.027,0.002 0.054,0 0.103,-0.023 0.143,-0.066 0.218,-0.239 0.143,-1.253 0.055,-2.185 -0.016,-0.171 -0.028,-0.307 -0.028,-0.35 0.002,-0.109 0.009,-0.205 0.016,-0.299 C -7.1,10.597 -7.084,10.386 -7.157,10.1 L -7.18,10.012 C -7.244,9.764 -7.295,9.569 -7.308,9.297 -7.332,8.787 -7.357,8.26 -7.337,7.736 V 7.711 C -7.328,7.489 -7.318,7.237 -7.408,7.038 -7.504,6.824 -7.784,6.601 -8.031,6.405 -8.138,6.319 -8.24,6.238 -8.31,6.17 -8.379,6.104 -8.453,6.04 -8.525,5.979 -8.7,5.83 -8.881,5.677 -8.991,5.469 -9.02,5.415 -9.087,5.366 -9.158,5.314 -9.197,5.286 -9.261,5.239 -9.272,5.219 -9.294,5.177 -9.294,5.142 -9.293,5.098 -9.291,5.035 -9.289,4.947 -9.379,4.867 -9.895,4.412 -10.237,3.99 -10.573,3.385 c 0.098,0.035 0.19,0.079 0.285,0.125 0.152,0.073 0.31,0.149 0.502,0.189 0.037,0.007 0.074,0.011 0.11,0.011 0.167,0 0.295,-0.079 0.419,-0.155 0.12,-0.072 0.233,-0.141 0.378,-0.141 0.01,0 0.02,0 0.03,10e-4 0.055,0.003 0.127,0.032 0.197,0.06 0.092,0.037 0.187,0.074 0.279,0.074 0.017,0 0.032,-10e-4 0.048,-0.003 0.132,-0.021 0.212,-0.119 0.283,-0.205 0.057,-0.07 0.111,-0.135 0.182,-0.152 0.018,-0.005 0.038,-0.007 0.061,-0.007 0.065,0 0.141,0.018 0.214,0.035 0.067,0.015 0.136,0.031 0.203,0.036 0.013,10e-4 0.026,10e-4 0.04,10e-4 0.088,0 0.179,-0.018 0.267,-0.036 0.079,-0.015 0.154,-0.03 0.216,-0.03 0.015,0 0.03,10e-4 0.043,0.003 0.121,0.018 0.179,0.084 0.259,0.175 0.055,0.062 0.117,0.133 0.208,0.193 0.227,0.147 0.614,0.244 0.864,0.261 0.083,0.005 0.169,0.008 0.261,0.008 0.166,0 0.329,-0.009 0.486,-0.018 0.124,-0.006 0.242,-0.013 0.362,-0.015 0.044,0.017 0.087,0.035 0.13,0.052 0.18,0.074 0.367,0.151 0.57,0.168 0.048,0.004 0.099,0.006 0.152,0.006 0.191,0 0.385,-0.027 0.572,-0.053 0.024,-0.003 0.047,-0.006 0.071,-0.009 -0.057,0.065 -0.111,0.135 -0.16,0.212 l -0.039,0.06 -0.008,0.014 c -0.083,0.012 -0.163,0.023 -0.207,0.028 -0.2,0.024 -0.4,0.035 -0.63,0.035 -0.294,0 -0.58,0.03 -0.856,0.058 -0.177,0.018 -0.36,0.037 -0.539,0.048 -0.027,0.001 -0.052,0.015 -0.068,0.038 -0.015,0.022 -0.02,0.051 -0.011,0.076 0.077,0.245 0.877,0.412 0.885,0.414 0.058,0.01 0.118,0.015 0.178,0.015 0.228,0 0.436,-0.072 0.638,-0.142 0.103,-0.035 0.203,-0.07 0.303,-0.094 -0.094,0.14 -0.182,0.267 -0.271,0.389 -0.1,-0.003 -0.201,-0.005 -0.303,-0.005 -0.467,0 -0.918,0.035 -1.271,0.099 -0.024,0.004 -0.046,0.018 -0.059,0.039 -0.013,0.021 -0.017,0.046 -0.011,0.07 0.063,0.248 0.524,0.362 0.924,0.362 0.102,0 0.204,-0.007 0.304,-0.021 -0.006,0.007 -0.011,0.014 -0.016,0.02 -0.06,0.078 -0.121,0.156 -0.181,0.234 -0.008,-0.003 -0.016,-0.004 -0.024,-0.004 -0.014,0 -0.028,0.003 -0.04,0.01 -0.171,0.087 -0.364,0.098 -0.53,0.098 -0.062,0 -0.123,-10e-4 -0.185,-0.003 -0.063,-0.002 -0.126,-0.003 -0.189,-0.003 -0.048,0 -0.096,0 -0.143,0.003 -0.04,0.003 -0.073,0.031 -0.081,0.071 -0.018,0.086 0.004,0.17 0.064,0.244 0.104,0.127 0.32,0.215 0.569,0.235 -0.065,0.062 -0.139,0.115 -0.218,0.171 -0.152,0.108 -0.309,0.22 -0.407,0.416 -0.165,0.33 -0.137,0.753 -0.11,1.162 0.02,0.291 0.04,0.593 -0.013,0.842 -0.129,0.592 -0.102,1.372 -0.067,2.057 0.01,0.21 0.006,0.496 10e-4,0.773 -0.004,0.258 -0.008,0.502 0,0.69 0.028,0.713 0.282,1.031 0.822,1.031 0.066,0 0.136,-0.004 0.215,-0.013 0.231,-0.027 0.369,-0.097 0.408,-0.208 0.032,-0.089 -0.003,-0.187 -0.104,-0.291 -0.077,-0.08 -0.17,-0.089 -0.233,-0.089 -0.037,0 -0.073,0.004 -0.108,0.007 -0.03,0.003 -0.061,0.006 -0.091,0.006 -0.046,0 -0.076,-0.008 -0.1,-0.027 -0.159,-0.129 -0.148,-0.406 -0.138,-0.629 l 10e-4,-0.023 c 0.012,-0.312 -0.006,-0.721 -0.024,-1.117 -0.012,-0.27 -0.024,-0.524 -0.025,-0.734 -0.004,-0.595 0.046,-1.168 0.155,-1.802 0.023,-0.136 0.032,-0.29 0.041,-0.454 0.015,-0.275 0.031,-0.56 0.12,-0.738 C -4.564,7.292 -4.406,7.091 -4.169,6.898 -4.04,6.793 -3.939,6.624 -3.842,6.46 -3.8,6.39 -3.76,6.323 -3.72,6.266 -3.633,6.141 -3.487,6.05 -3.332,5.954 -3.148,5.84 -2.957,5.723 -2.847,5.531 c 0.336,-0.585 0.538,-0.991 0.7,-1.318 0.157,-0.316 0.28,-0.565 0.455,-0.83 0.382,-0.582 0.667,-1 1.116,-1.49 0.257,-0.28 0.298,-0.521 0.343,-0.777 0.034,-0.197 0.07,-0.401 0.212,-0.648 C 0.05,0.344 0.025,0.169 0,0 M 4.123,4.505 C 4.087,4.674 4.01,4.822 4.043,5.016 4.075,5.206 3.953,5.39 3.839,5.557 V 5.444 C 3.826,5.443 3.812,5.442 3.799,5.442 3.794,5.532 3.771,5.626 3.786,5.713 3.834,6 3.901,6.284 3.952,6.57 3.966,6.651 3.962,6.74 3.943,6.819 3.88,7.083 3.808,7.345 3.735,7.606 3.674,7.823 3.612,8.039 3.538,8.251 3.493,8.378 3.427,8.498 3.364,8.617 3.338,8.666 3.293,8.704 3.259,8.749 3.245,8.768 3.235,8.792 3.227,8.815 3.179,8.95 3.288,9.089 3.212,9.225 3.186,9.27 3.172,9.326 3.166,9.378 3.146,9.528 3.133,9.679 3.116,9.829 3.113,9.855 3.106,9.883 3.091,9.903 3.009,10.018 2.922,10.13 2.841,10.246 2.827,10.267 2.835,10.302 2.831,10.341 2.644,10.509 2.559,10.774 2.362,10.965 2.184,11.136 2.072,11.375 1.93,11.583 1.836,11.72 1.739,11.855 1.648,11.994 1.569,12.115 1.44,12.196 1.427,12.372 1.42,12.466 1.318,12.567 1.237,12.642 1.076,12.793 0.9,12.928 0.73,13.069 0.727,13.044 0.723,13.015 0.72,12.985 0.709,12.981 0.699,12.977 0.688,12.972 c -0.067,0.1 -0.133,0.2 -0.202,0.299 -0.044,0.064 -0.092,0.126 -0.138,0.189 -0.034,0.047 -0.069,0.093 -0.101,0.141 -0.055,0.081 -0.107,0.163 -0.161,0.243 -0.019,0.028 -0.046,0.05 -0.066,0.076 -0.081,0.108 -0.158,0.219 -0.245,0.321 -0.022,0.026 -0.078,0.028 -0.119,0.033 -0.059,0.008 -0.123,-10e-4 -0.179,0.015 -0.239,0.069 -0.477,0.138 -0.711,0.223 -0.094,0.034 -0.187,0.094 -0.259,0.164 -0.223,0.214 -0.5,0.359 -0.708,0.595 -0.11,0.125 -0.288,0.193 -0.442,0.274 -0.172,0.09 -0.35,0.166 -0.527,0.246 -0.097,0.043 -0.193,0.1 -0.295,0.114 -0.199,0.029 -0.402,0.029 -0.603,0.048 -0.231,0.022 -0.472,0.004 -0.686,0.122 -0.23,0.126 -0.481,0.103 -0.729,0.107 -0.017,0 -0.04,-0.004 -0.051,-0.014 -0.111,-0.104 -0.238,-0.06 -0.36,-0.037 -0.018,0.003 -0.029,0.049 -0.049,0.086 -0.056,0.008 -0.129,0.025 -0.201,0.026 -0.155,0.003 -0.309,-0.003 -0.463,-0.006 -0.161,-0.002 -0.323,-0.015 -0.482,-0.002 -0.15,0.012 -0.298,0.051 -0.446,0.079 -0.003,0 -0.004,0.008 -0.007,0.008 -0.06,0.006 -0.127,0.031 -0.18,0.013 C -7.861,16.288 -8,16.233 -8.126,16.159 -8.192,16.121 -8.299,16.1 -8.296,15.984 c 0,-0.017 -0.028,-0.038 -0.047,-0.049 -0.077,-0.043 -0.155,-0.083 -0.233,-0.124 0,0.012 0.001,0.025 0.002,0.037 -0.023,0.005 -0.047,0.018 -0.068,0.013 -0.113,-0.023 -0.224,-0.055 -0.338,-0.075 -0.045,-0.008 -0.097,0.019 -0.142,0.012 -0.177,-0.03 -0.353,-0.068 -0.529,-0.102 -0.217,-0.042 -0.433,-0.083 -0.649,-0.125 -0.031,-0.006 -0.061,-0.028 -0.089,-0.024 -0.199,0.029 -0.368,-0.079 -0.552,-0.117 -0.033,-0.007 -0.058,-0.049 -0.087,-0.075 0.006,-0.005 0.012,-0.01 0.018,-0.015 l 0.168,0.054 c 0.004,-0.011 0.008,-0.022 0.012,-0.033 -0.117,-0.079 -0.234,-0.158 -0.351,-0.237 -0.006,0.016 -0.011,0.033 -0.017,0.049 -0.041,-0.003 -0.09,0.007 -0.122,-0.011 -0.101,-0.058 -0.196,-0.125 -0.294,-0.189 -0.157,-0.105 -0.308,-0.222 -0.474,-0.31 -0.12,-0.064 -0.269,-0.072 -0.39,-0.132 -0.287,-0.144 -0.573,-0.294 -0.761,-0.573 -0.068,-0.102 -0.147,-0.197 -0.238,-0.316 -0.02,0.042 -0.031,0.064 -0.039,0.08 -0.217,-0.183 -0.295,-0.438 -0.43,-0.656 -0.124,-0.199 -0.25,-0.403 -0.413,-0.567 -0.197,-0.201 -0.437,-0.358 -0.651,-0.542 -0.212,-0.183 -0.251,-0.45 -0.316,-0.702 -0.026,-0.102 -0.049,-0.205 -0.074,-0.308 -0.012,0.003 -0.025,0.005 -0.037,0.008 0.004,0.031 0.007,0.061 0.011,0.092 -0.051,-0.05 -0.07,-0.112 -0.103,-0.165 -0.071,-0.113 -0.148,-0.222 -0.224,-0.332 -0.02,-0.028 -0.049,-0.05 -0.068,-0.079 -0.119,-0.176 -0.238,-0.353 -0.353,-0.532 -0.021,-0.031 -0.028,-0.072 -0.037,-0.109 -0.047,-0.2 -0.087,-0.402 -0.142,-0.6 -0.05,-0.183 -0.115,-0.361 -0.173,-0.541 l -0.029,0.008 c -0.006,0.018 -0.012,0.036 -0.015,0.046 -0.022,-0.113 -0.052,-0.229 -0.064,-0.347 -0.015,-0.15 -0.008,-0.303 -0.021,-0.453 -0.014,-0.155 0.017,-0.316 -0.067,-0.464 -0.047,-0.082 -0.088,-0.175 -0.104,-0.268 -0.067,-0.405 -0.119,-0.811 -0.33,-1.178 -0.152,-0.264 -0.164,-0.565 -0.111,-0.857 0.086,-0.476 0.17,-0.955 0.358,-1.406 0.011,-0.027 0.041,-0.045 0.057,-0.07 0.063,-0.095 0.125,-0.193 0.187,-0.289 -0.008,-0.005 -0.014,-0.01 -0.021,-0.015 -0.023,0.01 -0.046,0.02 -0.069,0.031 0.105,-0.139 0.124,-0.31 0.075,-0.439 -0.055,-0.145 -0.049,-0.256 0.013,-0.381 0.007,0.011 0.013,0.022 0.035,0.06 0.01,-0.11 0.018,-0.194 0.025,-0.277 0.008,-0.089 0.01,-0.179 0.025,-0.267 0.086,-0.495 0.284,-0.954 0.456,-1.423 0.173,-0.469 0.488,-0.856 0.738,-1.28 0.132,-0.223 0.313,-0.427 0.533,-0.588 0.247,-0.182 0.497,-0.356 0.67,-0.629 0.121,-0.193 0.31,-0.345 0.48,-0.504 0.269,-0.253 0.541,-0.503 0.822,-0.741 0.437,-0.372 0.864,-0.765 1.459,-0.872 0.04,-0.008 0.082,-10e-4 0.122,-0.008 0.14,-0.024 0.288,-0.03 0.416,-0.084 0.131,-0.055 0.241,-0.158 0.362,-0.238 0.02,-0.013 0.05,-0.011 0.076,-0.016 0.039,-0.006 0.088,0 0.117,-0.021 0.235,-0.168 0.48,-0.31 0.764,-0.386 0.201,-0.054 0.397,-0.131 0.594,-0.201 0.065,-0.024 0.126,-0.082 0.189,-0.084 0.243,-0.005 0.46,-0.115 0.692,-0.162 0.341,-0.07 0.68,-0.163 1.013,0.036 0.036,0.022 0.095,0.01 0.143,0.005 0.048,-0.004 0.096,-0.033 0.142,-0.028 0.448,0.055 0.896,0.115 1.344,0.173 0.225,0.029 0.451,0.054 0.677,0.082 0.179,0.023 0.358,0.042 0.535,0.073 0.222,0.04 0.443,0.092 0.664,0.138 0.011,0.002 0.023,-0.001 0.035,10e-4 0.104,0.016 0.22,0.009 0.309,0.056 0.266,0.139 0.521,0.298 0.78,0.451 0.079,0.046 0.147,0.136 0.256,0.055 0.01,-0.008 0.043,0.01 0.063,0.02 0.269,0.138 0.559,0.206 0.853,0.252 0.209,0.032 0.299,0.195 0.418,0.329 0.012,0.013 0.005,0.043 0.008,0.082 -0.042,-0.037 -0.072,-0.063 -0.102,-0.089 -0.009,0.005 -0.018,0.011 -0.026,0.016 0.031,0.053 0.051,0.119 0.096,0.156 0.183,0.154 0.364,0.311 0.545,0.466 0.268,0.229 0.474,0.527 0.797,0.697 0.123,0.065 0.217,0.185 0.326,0.278 0.022,0.019 0.053,0.028 0.081,0.039 0.247,0.094 0.483,0.2 0.6,0.465 0.1,0.227 0.202,0.454 0.319,0.673 0.057,0.106 0.141,0.203 0.23,0.286 0.354,0.337 0.731,0.65 0.957,1.101 0.078,0.155 0.184,0.296 0.275,0.446 0.028,0.045 0.052,0.095 0.07,0.145 0.08,0.215 0.166,0.427 0.232,0.646 0.061,0.203 0.102,0.413 0.147,0.621 0.033,0.154 0.047,0.313 0.087,0.465 0.054,0.206 0.159,0.405 0.178,0.612 0.02,0.212 0.065,0.415 0.113,0.62 0.019,0.084 0.066,0.174 0.05,0.251"
             style="fill:#231f20;fill-opacity:1;fill-rule:nonzero;stroke:none"
             id="path309" />
        </g>
        <g
           id="g311"
           transform="translate(45.2136,474.973)">
          <path
             d="m 0,0 c -0.148,-0.205 -0.344,-0.478 -0.361,-0.689 0.049,-0.003 0.099,-0.006 0.149,-0.009 0.203,-0.011 0.413,-0.023 0.613,-0.09 0.04,-0.014 0.064,-0.052 0.06,-0.094 -0.008,-0.07 0.014,-0.104 0.032,-0.123 0.043,-0.048 0.153,-0.105 0.434,-0.105 0.199,0 0.417,0.028 0.591,0.05 0.116,0.015 0.207,0.026 0.265,0.026 0.007,0 0.014,0 0.021,-10e-4 0.306,-0.017 0.617,-0.056 0.918,-0.093 0.408,-0.051 0.831,-0.103 1.241,-0.103 0.062,0 0.124,0.001 0.186,0.003 0.078,0.003 0.161,0.005 0.255,0.005 0.121,0 0.243,-0.002 0.366,-0.005 0.124,-0.002 0.249,-0.005 0.373,-0.005 0.341,0 0.738,0.017 1.097,0.147 0.402,0.146 0.888,0.308 1.435,0.399 0.116,0.02 0.242,0.029 0.386,0.029 0.217,0 0.441,-0.022 0.657,-0.043 0.149,-0.014 0.289,-0.028 0.426,-0.035 0.059,-0.003 0.12,-0.006 0.183,-0.01 0.207,-0.012 0.44,-0.025 0.671,-0.025 0.425,0 0.742,0.045 0.987,0.141 -0.024,0.038 -0.06,0.072 -0.102,0.112 -0.038,0.036 -0.081,0.076 -0.119,0.125 -0.039,0.05 -0.074,0.105 -0.107,0.171 -0.113,-0.027 -0.227,-0.041 -0.346,-0.041 -0.256,0 -0.508,0.064 -0.775,0.132 L 9.5,-0.122 C 9.266,-0.062 9.001,-0.059 8.744,-0.055 8.433,-0.05 8.11,-0.045 7.824,0.056 7.79,0.068 7.766,0.1 7.765,0.137 7.762,0.232 7.808,0.368 7.87,0.446 7.883,0.462 7.901,0.473 7.921,0.478 8.13,0.523 8.362,0.544 8.65,0.544 8.827,0.544 9.008,0.536 9.183,0.528 9.254,0.525 9.325,0.522 9.396,0.52 9.699,0.509 9.996,0.417 10.283,0.328 10.345,0.308 10.406,0.29 10.466,0.272 10.449,0.317 10.431,0.362 10.411,0.405 10.312,0.618 10.155,0.803 9.997,0.98 9.793,0.891 9.616,0.855 9.382,0.855 9.259,0.855 9.125,0.865 8.998,0.876 8.942,0.88 8.837,0.881 8.715,0.881 8.024,0.882 7.394,0.906 7.282,1.178 7.24,1.28 7.267,1.355 7.296,1.399 7.385,1.532 7.635,1.593 8.083,1.593 8.56,1.593 9.152,1.523 9.505,1.481 9.536,1.477 9.567,1.473 9.595,1.47 9.557,1.528 9.523,1.584 9.494,1.64 9.442,1.74 9.4,1.859 9.358,1.973 9.356,1.978 9.354,1.984 9.352,1.99 9.307,1.98 9.257,1.975 9.203,1.975 9.025,1.975 8.83,2.032 8.642,2.088 8.507,2.128 8.379,2.166 8.279,2.174 8.215,2.18 8.145,2.182 8.064,2.182 7.986,2.182 7.909,2.18 7.832,2.178 7.753,2.175 7.674,2.173 7.596,2.173 7.55,2.173 7.503,2.174 7.457,2.176 7.389,2.179 7.321,2.183 7.252,2.187 7.117,2.196 6.977,2.204 6.84,2.204 6.779,2.204 6.724,2.202 6.67,2.199 6.412,2.184 6.29,2.115 6.135,2.027 6.071,1.991 6.005,1.953 5.923,1.915 5.787,1.852 5.637,1.834 5.492,1.816 5.361,1.8 5.237,1.785 5.123,1.74 4.798,1.61 4.607,1.574 4.232,1.574 H 4.213 C 3.492,1.574 2.788,1.582 2.101,1.675 1.983,1.69 1.874,1.723 1.768,1.755 1.63,1.797 1.5,1.836 1.36,1.836 1.344,1.836 1.328,1.835 1.312,1.834 1.198,1.826 1.06,1.775 0.926,1.725 0.895,1.714 0.864,1.702 0.834,1.691 0.775,1.558 0.717,1.42 0.661,1.287 0.506,0.916 0.344,0.531 0.138,0.201 0.102,0.142 0.052,0.073 0,0"
             style="fill:#231f20;fill-opacity:1;fill-rule:nonzero;stroke:none"
             id="path313" />
        </g>
      </g>
    </g>
  </g>
</svg>
