<?xml version="1.0" encoding="UTF-8" standalone="no"?>
<!-- Created with Inkscape (http://www.inkscape.org/) -->

<svg
   width="23.869524"
   height="24"
   viewBox="0 0 6.3154782 6.35"
   version="1.1"
   id="svg7032"
   inkscape:version="1.2.1 (9c6d41e4, 2022-07-14)"
   sodipodi:docname="return_to_where_doom_awaits.svg"
   xmlns:inkscape="http://www.inkscape.org/namespaces/inkscape"
   xmlns:sodipodi="http://sodipodi.sourceforge.net/DTD/sodipodi-0.dtd"
   xmlns="http://www.w3.org/2000/svg"
   xmlns:svg="http://www.w3.org/2000/svg">
  <sodipodi:namedview
     id="namedview7034"
     pagecolor="#505050"
     bordercolor="#eeeeee"
     borderopacity="1"
     inkscape:showpageshadow="0"
     inkscape:pageopacity="0"
     inkscape:pagecheckerboard="0"
     inkscape:deskcolor="#505050"
     inkscape:document-units="mm"
     showgrid="false"
     inkscape:zoom="0.70199214"
     inkscape:cx="51.282625"
     inkscape:cy="220.80019"
     inkscape:window-width="1390"
     inkscape:window-height="938"
     inkscape:window-x="0"
     inkscape:window-y="25"
     inkscape:window-maximized="0"
     inkscape:current-layer="layer1" />
  <defs
     id="defs7029">
    <clipPath
       clipPathUnits="userSpaceOnUse"
       id="clipPath465">
      <path
         d="m 39.282,385.3 h 22.057 v 22.058 H 39.282 Z"
         id="path463" />
    </clipPath>
  </defs>
  <g
     inkscape:label="Layer 1"
     inkscape:groupmode="layer"
     id="layer1"
     transform="translate(-91.578017,-90.049746)">
    <g
       id="g459"
       transform="matrix(0.29481426,0,0,-0.29481426,79.903334,209.99168)">
      <g
         id="g461"
         clip-path="url(#clipPath465)">
        <g
           id="g467"
           transform="translate(57.3797,397.591)">
          <path
             d="m 0,0 c -0.3,-0.664 -1.433,-0.943 -1.976,-1.157 -0.576,-0.227 -1.24,-0.653 -1.849,-0.694 -0.292,-0.019 -0.525,0.097 -0.788,0.135 0.221,-0.802 0.964,-1.088 1.311,-1.922 0.222,-0.535 0.223,-1.474 0.641,-1.887 0.339,-0.335 0.88,-0.103 1.2,-0.358 0.368,-0.293 0.574,-1.084 0.752,-1.555 -0.884,-0.37 -0.963,0.463 -1.383,0.92 -0.555,0.604 -1.388,0.452 -1.788,1.256 -0.251,0.507 -0.337,1.21 -0.561,1.764 -0.169,0.416 -0.289,0.808 -0.475,1.16 -0.411,-0.041 -1.078,0.211 -1.406,0.168 -0.927,-0.121 -1.683,-0.327 -2.591,-0.39 -0.088,-0.188 -0.197,-0.369 -0.278,-0.573 -0.299,-0.743 -0.181,-1.317 -0.324,-2.058 -0.136,-0.7 -0.572,-1.223 -1.083,-1.543 -0.535,-0.336 -1.539,-0.037 -1.476,-0.992 -0.177,-0.012 -0.414,-0.063 -0.677,-0.12 -0.271,0.078 -0.55,0.114 -0.84,0.113 -0.102,0.102 -0.203,0.207 -0.301,0.318 -0.004,0.025 -0.005,0.049 -0.008,0.074 0.548,-0.045 0.987,0.099 1.525,0.609 0.246,0.234 0.418,0.669 0.675,0.894 0.341,0.297 0.849,0.352 1.158,0.69 0.558,0.61 0.224,1.328 0.511,2.015 0.035,0.084 0.079,0.161 0.129,0.232 -0.505,0.718 -0.893,1.065 -1.717,1.131 -0.56,0.045 -0.89,-0.066 -1.376,0.306 -0.687,0.525 -1.752,1.44 -1.453,2.223 -0.024,0.001 -0.047,0.001 -0.07,0.001 l 0.113,0.095 c 0.083,0.154 0.222,0.303 0.434,0.441 1.255,0.819 2.874,-0.059 4.191,-0.131 0.707,-0.038 1.385,0.23 2.044,0.21 0.738,-0.023 1.21,-0.296 1.95,-0.205 0.958,0.119 1.943,0.173 2.874,-0.106 C -1.848,0.746 -0.734,0.758 0.379,0.644 0.396,0.337 0.253,0.131 0,0 m -4.543,-7.608 c -0.004,-0.093 0.036,-0.23 -0.007,-0.314 -1.091,0.338 -2.212,3.09 -1.74,4.461 0.122,-0.003 0.169,0.07 0.272,0.103 0.089,-0.441 0.44,-1.393 0.687,-2.244 0.115,-0.396 0.185,-0.82 0.368,-1.166 0.192,-0.366 0.489,-0.462 0.554,-0.974 -0.063,-0.041 -0.095,0.104 -0.134,0.134 m -5.841,-0.61 c 0.637,0.768 1.083,1.008 1.48,1.943 0.361,0.85 1.383,2.073 1.35,3.007 0.33,-0.06 0.305,-0.116 0.438,-0.106 -0.644,-1.863 -0.571,-4.754 -3.268,-4.844 m -1.29,12.937 c 0.397,0.283 0.553,0.746 0.897,1.095 0.44,0.446 0.83,0.551 1.44,0.768 0.95,0.337 1.747,0.606 2.828,0.471 0.56,-0.07 0.504,-0.028 0.907,-0.258 0.368,-0.21 0.47,-0.538 0.924,-0.644 0.615,-0.144 1.006,0.126 1.554,-0.33 0.478,-0.397 1.202,-1.645 1.125,-2.259 -0.254,0.278 -0.655,0.407 -1.046,0.363 -0.028,0.845 -1.62,1.32 -2.257,1.602 -0.947,0.42 -2.093,0.702 -3.145,0.497 -0.899,-0.175 -1.475,-0.555 -2.113,-1.117 -0.416,-0.367 -1.055,-1.342 -1.637,-1.343 -0.231,0.811 0.711,0.83 0.523,1.155 M 3.559,-2.077 c 0.032,0.189 -0.09,0.374 -0.205,0.54 V -1.649 C 3.341,-1.65 3.328,-1.651 3.315,-1.652 3.31,-1.561 3.287,-1.468 3.302,-1.38 c 0.048,0.286 0.115,0.57 0.166,0.857 0.014,0.08 0.011,0.169 -0.009,0.249 C 3.396,-0.01 3.324,0.252 3.251,0.513 3.19,0.729 3.128,0.946 3.054,1.158 3.009,1.285 2.943,1.405 2.88,1.524 2.854,1.573 2.809,1.611 2.775,1.656 2.761,1.675 2.751,1.699 2.743,1.722 2.695,1.856 2.804,1.996 2.728,2.131 2.702,2.177 2.689,2.232 2.682,2.285 2.662,2.434 2.649,2.585 2.632,2.736 2.629,2.761 2.622,2.789 2.607,2.809 2.525,2.925 2.438,3.036 2.357,3.153 2.343,3.173 2.351,3.208 2.347,3.248 2.16,3.416 2.075,3.681 1.878,3.871 1.7,4.043 1.588,4.281 1.446,4.49 1.352,4.627 1.255,4.761 1.164,4.9 1.085,5.021 0.956,5.102 0.943,5.278 0.936,5.373 0.834,5.473 0.753,5.549 0.592,5.699 0.416,5.834 0.246,5.976 0.243,5.95 0.239,5.921 0.236,5.892 0.225,5.887 0.215,5.883 0.204,5.879 0.137,5.978 0.071,6.078 0.002,6.177 -0.042,6.241 -0.09,6.303 -0.136,6.367 -0.17,6.413 -0.205,6.459 -0.237,6.507 -0.292,6.588 -0.343,6.671 -0.398,6.751 -0.417,6.778 -0.444,6.8 -0.464,6.827 -0.545,6.934 -0.622,7.046 -0.709,7.148 -0.731,7.174 -0.787,7.175 -0.828,7.181 -0.887,7.189 -0.951,7.179 -1.007,7.195 c -0.239,0.07 -0.477,0.139 -0.711,0.223 -0.094,0.034 -0.187,0.094 -0.259,0.164 -0.222,0.214 -0.5,0.359 -0.708,0.595 -0.11,0.125 -0.288,0.194 -0.442,0.274 -0.172,0.09 -0.35,0.167 -0.527,0.246 -0.097,0.043 -0.193,0.1 -0.295,0.115 -0.199,0.029 -0.402,0.029 -0.603,0.048 -0.231,0.022 -0.472,0.004 -0.686,0.121 -0.23,0.127 -0.481,0.103 -0.728,0.107 -0.018,0 -0.041,-0.003 -0.052,-0.014 C -6.129,8.97 -6.256,9.015 -6.377,9.037 -6.396,9.041 -6.407,9.087 -6.427,9.124 -6.483,9.132 -6.556,9.149 -6.628,9.15 -6.782,9.152 -6.937,9.146 -7.091,9.144 -7.252,9.142 -7.413,9.128 -7.573,9.141 -7.723,9.153 -7.87,9.192 -8.019,9.22 c -0.003,0 -0.004,0.009 -0.007,0.009 -0.06,0.006 -0.127,0.03 -0.18,0.013 C -8.345,9.194 -8.484,9.139 -8.61,9.066 -8.676,9.027 -8.783,9.007 -8.78,8.89 -8.78,8.874 -8.807,8.852 -8.827,8.841 -8.904,8.798 -8.982,8.759 -9.06,8.718 c 0,0.012 0.001,0.024 0.002,0.036 C -9.081,8.759 -9.105,8.772 -9.126,8.768 -9.239,8.744 -9.35,8.712 -9.464,8.693 -9.51,8.685 -9.561,8.712 -9.606,8.704 -9.783,8.674 -9.959,8.637 -10.135,8.603 -10.352,8.561 -10.568,8.52 -10.784,8.477 c -0.03,-0.006 -0.061,-0.027 -0.089,-0.023 -0.199,0.028 -0.368,-0.08 -0.552,-0.118 -0.033,-0.007 -0.058,-0.049 -0.087,-0.075 0.006,-0.005 0.012,-0.01 0.018,-0.015 l 0.168,0.054 c 0.004,-0.011 0.008,-0.021 0.012,-0.032 -0.117,-0.079 -0.234,-0.159 -0.351,-0.238 -0.006,0.017 -0.011,0.033 -0.016,0.049 -0.042,-0.002 -0.091,0.007 -0.123,-0.011 C -11.905,8.011 -12,7.943 -12.097,7.879 -12.255,7.774 -12.406,7.657 -12.572,7.569 -12.692,7.506 -12.84,7.498 -12.962,7.437 -13.249,7.293 -13.535,7.144 -13.723,6.864 -13.791,6.763 -13.87,6.668 -13.96,6.548 -13.981,6.59 -13.992,6.612 -14,6.628 -14.217,6.445 -14.295,6.191 -14.43,5.972 -14.553,5.774 -14.68,5.57 -14.843,5.405 -15.04,5.205 -15.28,5.048 -15.494,4.863 -15.706,4.68 -15.745,4.414 -15.81,4.161 c -0.026,-0.102 -0.049,-0.205 -0.074,-0.308 -0.012,0.003 -0.024,0.006 -0.037,0.008 0.004,0.031 0.007,0.062 0.011,0.092 -0.051,-0.05 -0.07,-0.112 -0.104,-0.165 -0.07,-0.113 -0.147,-0.222 -0.223,-0.331 -0.02,-0.029 -0.049,-0.05 -0.068,-0.079 -0.119,-0.177 -0.238,-0.354 -0.353,-0.533 -0.02,-0.031 -0.028,-0.071 -0.037,-0.109 -0.047,-0.2 -0.087,-0.402 -0.142,-0.6 -0.05,-0.182 -0.115,-0.361 -0.173,-0.541 l -0.029,0.008 C -17.045,1.621 -17.051,1.64 -17.054,1.65 -17.076,1.536 -17.106,1.42 -17.118,1.302 -17.132,1.152 -17.126,1 -17.139,0.849 -17.153,0.694 -17.122,0.534 -17.206,0.386 -17.253,0.303 -17.294,0.21 -17.31,0.117 c -0.067,-0.405 -0.119,-0.81 -0.33,-1.177 -0.152,-0.265 -0.164,-0.565 -0.111,-0.857 0.086,-0.477 0.17,-0.956 0.358,-1.407 0.011,-0.026 0.041,-0.044 0.058,-0.069 0.063,-0.096 0.124,-0.193 0.186,-0.29 l -0.021,-0.015 c -0.023,0.01 -0.046,0.021 -0.069,0.031 0.105,-0.138 0.124,-0.309 0.075,-0.438 -0.054,-0.145 -0.049,-0.257 0.014,-0.382 0.006,0.011 0.012,0.023 0.034,0.061 0.01,-0.111 0.018,-0.194 0.025,-0.278 0.008,-0.089 0.01,-0.179 0.025,-0.266 0.086,-0.496 0.284,-0.955 0.456,-1.423 0.174,-0.47 0.488,-0.857 0.738,-1.28 0.132,-0.224 0.313,-0.427 0.533,-0.589 0.247,-0.181 0.497,-0.355 0.67,-0.629 0.121,-0.192 0.311,-0.345 0.48,-0.504 0.269,-0.252 0.541,-0.502 0.823,-0.741 0.436,-0.371 0.863,-0.764 1.458,-0.872 0.04,-0.007 0.082,-0.001 0.122,-0.008 0.14,-0.024 0.288,-0.03 0.416,-0.083 0.131,-0.055 0.241,-0.159 0.363,-0.239 0.019,-0.013 0.049,-0.011 0.075,-0.015 0.039,-0.007 0.088,0 0.117,-0.021 0.235,-0.169 0.48,-0.31 0.764,-0.386 0.201,-0.054 0.397,-0.131 0.594,-0.202 0.065,-0.024 0.126,-0.082 0.189,-0.083 0.244,-0.006 0.46,-0.115 0.692,-0.163 0.341,-0.07 0.68,-0.163 1.013,0.037 0.036,0.021 0.095,0.009 0.143,0.005 0.048,-0.005 0.096,-0.034 0.142,-0.028 0.448,0.055 0.896,0.115 1.344,0.172 0.225,0.029 0.451,0.054 0.677,0.083 0.179,0.022 0.358,0.041 0.535,0.073 0.222,0.04 0.443,0.091 0.664,0.137 0.011,0.003 0.023,-0.001 0.035,10e-4 0.104,0.017 0.22,0.01 0.309,0.056 0.266,0.139 0.521,0.298 0.78,0.451 0.08,0.046 0.147,0.137 0.256,0.055 0.01,-0.007 0.043,0.01 0.063,0.02 0.269,0.138 0.559,0.206 0.853,0.252 0.209,0.033 0.299,0.195 0.418,0.33 0.012,0.013 0.005,0.042 0.008,0.081 -0.042,-0.036 -0.072,-0.063 -0.102,-0.089 l -0.026,0.017 c 0.031,0.052 0.051,0.118 0.096,0.156 0.183,0.153 0.364,0.311 0.545,0.466 0.268,0.229 0.475,0.527 0.797,0.697 0.123,0.065 0.217,0.185 0.327,0.277 0.021,0.019 0.052,0.029 0.079,0.039 0.248,0.094 0.484,0.2 0.601,0.465 0.1,0.228 0.202,0.455 0.319,0.673 0.057,0.106 0.141,0.203 0.229,0.287 0.355,0.336 0.732,0.65 0.958,1.1 0.078,0.156 0.184,0.297 0.275,0.446 0.028,0.046 0.052,0.095 0.07,0.146 0.08,0.214 0.166,0.427 0.232,0.646 0.061,0.203 0.103,0.412 0.147,0.62 0.033,0.155 0.047,0.314 0.087,0.466 0.054,0.206 0.159,0.404 0.178,0.612 0.02,0.212 0.065,0.415 0.113,0.619 0.02,0.084 0.066,0.175 0.05,0.252 -0.036,0.169 -0.113,0.316 -0.08,0.511"
             style="fill:#231f20;fill-opacity:1;fill-rule:nonzero;stroke:none"
             id="path469" />
        </g>
        <g
           id="g471"
           transform="translate(47.1408,398.148)">
          <path
             d="m 0,0 c -1.181,-0.064 -2.353,0.117 -3.536,0.181 0.799,-0.37 1.847,-1.266 2.307,-1.564 0.512,-0.331 1.607,-0.956 1.901,-1.713 0.287,0.254 0.614,0.48 0.797,0.842 0.019,-0.11 0.024,-0.211 0.017,-0.306 0.745,0.465 1.517,0.478 2.162,0.439 0.075,-0.004 0.653,-0.034 1.175,-0.122 -0.039,0.035 -0.08,0.07 -0.124,0.103 0.308,-0.034 0.63,0.04 0.864,0.289 0.003,-0.093 0.014,-0.179 0.028,-0.261 0.611,0.341 1.192,0.861 1.757,1.043 0.377,0.121 0.716,0.252 1.051,0.366 C 6.764,-0.538 4.742,0.052 4.239,0.101 2.771,0.244 1.472,0.079 0,0"
             style="fill:#231f20;fill-opacity:1;fill-rule:nonzero;stroke:none"
             id="path473" />
        </g>
      </g>
    </g>
  </g>
</svg>
