<svg width="26" height="24" viewBox="0 0 26 24" fill="#000000" xmlns="http://www.w3.org/2000/svg">
  <path d="M13.369 20.7638C13.3704 20.6752 13.3556 20.6 13.3408 20.5262C13.3301 20.4724 13.3193 20.4174 13.3167 20.3583C13.314 20.2992 13.3193 20.2361 13.3234 20.173C13.3314 20.0656 12.7889 18.6489 12.699 18.6892L12.6036 18.7295C12.5056 18.7684 12.7285 19.3378 12.7352 19.3754C12.7433 19.4103 12.3592 20.0911 12.3888 20.1247C12.5123 20.2683 12.511 20.5973 12.5123 20.7155C12.5137 20.8686 12.4452 21.1344 12.4412 21.2875C12.4398 21.3386 12.4291 21.3882 12.417 21.442C12.4049 21.4983 12.3928 21.5547 12.3888 21.6138C12.3861 21.6649 12.3794 21.685 12.3646 21.7226C12.3579 21.7414 12.3512 21.7615 12.3431 21.7871C12.3351 21.8153 12.3297 21.8408 12.323 21.8649C12.3096 21.9227 12.3002 21.9616 12.2666 22.0046C12.2424 22.0355 12.2182 22.0623 12.1954 22.0892C12.143 22.1496 12.088 22.2114 12.0343 22.3054C12.0195 22.3322 11.9967 22.3739 11.9792 22.394C11.9792 22.3927 11.9792 22.3927 11.9779 22.3913C11.9604 22.3779 11.9067 22.3107 11.8785 22.2678C11.8342 22.2006 11.8087 22.1187 11.7832 22.0314C11.7483 21.9213 11.7147 21.8072 11.6355 21.7038C11.5576 21.6017 11.4931 21.4889 11.4246 21.3694C11.3844 21.2996 11.3427 21.2284 11.2998 21.1586C11.2622 21.0995 11.2474 21.0257 11.2313 20.9465C11.2152 20.8632 11.1977 20.7786 11.1547 20.698C11.14 20.6712 11.1212 20.6524 11.1077 20.6363C11.101 20.6296 11.093 20.6202 11.0903 20.6175C11.0836 20.6027 11.0769 20.5678 11.0728 20.5409C11.0675 20.5127 11.0621 20.4845 11.0554 20.4604C11.0419 20.4174 11.0231 20.3744 11.0043 20.3328C10.9829 20.2831 10.9627 20.2361 10.9547 20.1931C10.9359 20.075 10.8996 19.9622 10.8647 19.8521C10.8405 19.7796 10.8164 19.7044 10.7976 19.6278C10.7855 19.5822 10.7774 19.5338 10.7694 19.4841C10.7546 19.3995 10.7385 19.3123 10.7076 19.2263C10.6901 19.178 10.6686 19.131 10.6458 19.0853C10.627 19.045 10.6082 19.0061 10.5934 18.9645C10.5276 18.7818 10.4363 18.614 10.3477 18.4475C10.2336 18.2353 10.1866 18.0232 10.1355 17.7976C10.1087 17.6767 10.0805 17.5505 10.0416 17.4202C10.0013 17.29 9.94084 17.1785 9.8831 17.0725C9.83745 16.9892 9.79448 16.91 9.76091 16.8227C9.73942 16.7676 9.71659 16.7126 9.69377 16.6562C9.64677 16.5407 9.59843 16.4199 9.56217 16.3017C9.51383 16.1446 9.45206 15.9888 9.39432 15.8398L9.32315 15.6598C9.2587 15.4933 9.20767 15.3604 9.23721 15.1952C9.24795 15.1308 9.27884 15.0529 9.30838 14.9777C9.32315 14.9414 9.33658 14.9065 9.34866 14.8729C9.37418 14.8004 9.37686 14.7413 9.37821 14.689C9.37821 14.6554 9.37955 14.6259 9.38626 14.595C9.39163 14.5721 9.39969 14.5574 9.40506 14.5426C9.42655 14.4983 9.44266 14.454 9.44266 14.3694C9.44132 14.3143 9.44132 14.2593 9.44132 14.2042L9.44266 14.1196C9.44266 14.0605 9.43729 13.9961 9.43326 13.9303C9.4252 13.8081 9.41581 13.6819 9.43729 13.5865C9.44669 13.5395 9.46952 13.5248 9.55143 13.4831C9.59977 13.459 9.65348 13.4321 9.70585 13.3864C10.0026 13.1259 10.2242 12.7553 10.4243 12.3968C10.6485 11.9993 10.5451 11.5092 10.4337 11.0822C10.4149 11.0097 10.392 10.9412 10.3692 10.8714C10.3356 10.7666 10.3047 10.6686 10.2859 10.5666C10.251 10.3624 10.1315 10.1476 10.0322 9.98243C9.97441 9.88709 9.90056 9.80249 9.83073 9.72058C9.78239 9.66419 9.73405 9.60913 9.69108 9.55005C9.62663 9.46008 9.63602 9.45202 9.73808 9.35668C9.7891 9.30968 9.85087 9.25194 9.89787 9.17137C9.93144 9.11498 9.95159 9.05724 9.97038 9.00084C9.99053 8.9431 10.0093 8.88938 10.0389 8.84507C10.1127 8.7363 10.1423 8.68662 10.1463 8.53757L10.149 8.47311C10.1557 8.31466 10.1624 8.13607 10.0698 7.98165C9.96501 7.81111 9.94621 7.68086 9.94621 7.45661C9.94487 7.38947 9.94487 7.27802 9.97978 7.24176C9.98381 7.23908 9.99724 7.22565 10.0308 7.22833C10.0362 7.22968 10.0523 7.23773 10.0644 7.24445C10.0912 7.25922 10.1248 7.27802 10.1678 7.28473C10.1973 7.2901 10.2242 7.2901 10.2537 7.2901C10.2645 7.2901 10.2739 7.2901 10.2819 7.2901C10.298 7.30487 10.3235 7.32501 10.3585 7.33307C10.4041 7.34381 10.4498 7.33979 10.4887 7.33576C10.5048 7.33441 10.5196 7.33173 10.533 7.33173C10.5652 7.33441 10.5961 7.34381 10.6324 7.35456C10.6754 7.36798 10.725 7.38141 10.7882 7.38544C10.913 7.39215 11.0111 7.39753 11.1239 7.4217C11.281 7.45392 11.4421 7.50227 11.5979 7.54792L11.6664 7.56806C11.6999 7.57881 11.7348 7.58955 11.7697 7.60163C11.904 7.6446 12.0584 7.69697 12.2062 7.68757C12.2881 7.68354 12.3539 7.654 12.4009 7.60163C12.4895 7.50092 12.4774 7.35456 12.468 7.22565C12.4653 7.18939 12.4626 7.15582 12.4626 7.12359C12.4626 7.09674 12.4653 7.05914 12.4693 7.01483C12.4868 6.79595 12.5056 6.54619 12.3579 6.46696C12.2961 6.43339 12.2129 6.42265 12.1323 6.41325C12.1054 6.40922 12.0799 6.40653 12.0585 6.40251C12.0423 6.38639 12.0155 6.36491 11.9792 6.35551C11.9269 6.34342 11.8664 6.34745 11.8127 6.35148C11.7939 6.35416 11.7751 6.35551 11.7603 6.35551H11.6314C11.5683 6.35417 11.5066 6.35417 11.4434 6.35551C11.4099 6.35551 11.3924 6.34879 11.3615 6.33537C11.3347 6.32462 11.3065 6.31388 11.2716 6.30582C11.2259 6.29374 11.1843 6.30045 11.1507 6.30582C11.1373 6.30717 11.1185 6.30985 11.1118 6.30851C11.101 6.30717 11.0889 6.30045 11.0728 6.29374C11.0513 6.283 11.0258 6.27091 10.9936 6.26285C10.9627 6.2548 10.9332 6.24943 10.9036 6.24405C10.8378 6.23063 10.7801 6.21988 10.725 6.18766L10.678 6.15946C10.6216 6.12723 10.5666 6.095 10.5102 6.0668C10.4592 6.03995 10.4578 6.03861 10.431 5.99429L10.4081 5.95535C10.3907 5.92715 10.3759 5.88955 10.3598 5.85195C10.3356 5.79556 10.3115 5.73647 10.2765 5.69082C10.2 5.59011 10.1006 5.59548 10.0308 5.59816L9.98516 5.60085C9.97307 5.60085 9.9583 5.59816 9.94219 5.59816C9.89922 5.59414 9.85088 5.59011 9.80522 5.60085C9.77299 5.60891 9.74882 5.62636 9.72734 5.64516C9.71525 5.64651 9.70317 5.6465 9.69242 5.64785C9.63871 5.65188 9.57157 5.6559 9.50174 5.70827C9.44937 5.74722 9.41715 5.80227 9.38895 5.84927C9.37149 5.87881 9.35538 5.90567 9.33926 5.92178C9.31107 5.95132 9.28287 5.96609 9.24527 5.98758C9.2211 5.99966 9.19558 6.01309 9.16873 6.03055C9.1177 6.06412 9.07205 6.1044 9.02639 6.14603C8.99148 6.17691 8.95522 6.20914 8.91628 6.236C8.8666 6.26957 8.81826 6.30717 8.76991 6.34342L8.71217 6.38773C8.58461 6.48576 8.4839 6.57573 8.38319 6.68047C8.34559 6.71941 8.27308 6.76775 8.21936 6.80132L8.18445 6.82415C8.06225 6.90472 7.92395 6.99603 7.86755 7.16791C7.79504 7.39484 8.06494 7.61372 8.30396 7.75874L8.32679 7.77217C8.47315 7.85945 8.67323 7.9803 8.77797 8.10787C8.87197 8.22201 8.88942 8.32809 8.83706 8.44895C8.79006 8.55906 8.6504 8.64365 8.51478 8.72556C8.41138 8.78733 8.31873 8.85582 8.22473 8.9243L8.10925 9.00621C8.05823 9.04247 7.9978 9.07604 7.93737 9.10961C7.84069 9.16466 7.74132 9.2224 7.66076 9.29357L7.51842 9.42114L7.69835 9.48291C7.74535 9.49902 7.78966 9.50036 7.82861 9.50171C7.84875 9.50305 7.86755 9.50305 7.88635 9.50708C7.90112 9.5111 7.91455 9.51513 7.92797 9.51916C7.96289 9.53125 8.0072 9.54468 8.06763 9.54736C8.17639 9.55273 8.32142 9.59436 8.42213 9.64807C8.53358 9.70984 8.73634 9.83472 8.85183 9.99317C8.97805 10.1677 9.08682 10.3571 9.1929 10.5907C9.21841 10.6498 9.23453 10.7317 9.25064 10.8109C9.25735 10.8499 9.26541 10.8888 9.27347 10.9237C9.28555 10.9734 9.30032 11.0258 9.31509 11.0782C9.33792 11.1587 9.36075 11.2406 9.37418 11.3199C9.40909 11.5213 9.31778 11.7549 9.22781 11.9577C9.2117 11.9953 9.19693 12.0316 9.18484 12.0665C9.14859 12.1564 9.12173 12.2276 9.05727 12.2988C8.98879 12.3753 8.96596 12.3861 8.86123 12.4116C8.84108 12.4156 8.82363 12.421 8.80483 12.4263C8.76589 12.4384 8.73366 12.4465 8.688 12.4465H8.45435C8.41004 12.4465 8.36707 12.4465 8.32142 12.4465C8.30262 12.4451 8.27979 12.4411 8.25428 12.4317C8.23145 12.4237 8.20996 12.4156 8.18445 12.4102L8.13342 12.3995C8.03003 12.3793 7.94812 12.3632 7.85546 12.3189C7.83532 12.3095 7.80578 12.2853 7.77758 12.2598C7.74401 12.2303 7.70641 12.1981 7.66344 12.1739C7.6245 12.0154 7.62181 12.0034 7.61913 11.9913L7.6057 11.9255L7.54125 11.9067C7.41771 11.8691 7.03501 11.8288 6.90207 12.0208C6.79062 12.1806 6.90207 12.4586 6.97861 12.609C7.06186 12.7755 7.24046 13.0897 7.49559 13.3233C7.67016 13.4831 7.81384 13.6872 7.94677 13.9639C8.12134 14.3304 8.20459 14.6849 8.20996 15.0784C8.21131 15.1791 8.22473 15.2731 8.23682 15.3644C8.24756 15.4383 8.25696 15.5108 8.26099 15.586C8.26368 15.6424 8.2771 15.6853 8.28785 15.7202C8.29322 15.739 8.29993 15.7578 8.30262 15.7807C8.31067 15.8384 8.31067 15.8948 8.31202 15.9526C8.31336 16.017 8.3147 16.0828 8.32276 16.1499C8.33887 16.2708 8.36976 16.3876 8.39796 16.5018C8.42481 16.6052 8.45033 16.7032 8.4651 16.8026C8.47047 16.8428 8.47584 16.8845 8.47987 16.9274C8.49464 17.0456 8.50807 17.1678 8.54835 17.2806C8.60206 17.431 8.68129 17.5961 8.75246 17.7385C8.77663 17.7882 8.79946 17.8392 8.82094 17.8889C8.86123 17.9775 8.90151 18.0702 8.95791 18.1615C9.11636 18.4206 9.26541 18.665 9.37686 18.9416C9.42386 19.0612 9.47757 19.1766 9.52994 19.2921C9.60917 19.4627 9.68302 19.6238 9.73942 19.7943C9.80388 19.9944 9.92607 20.1649 10.0442 20.3301C10.1382 20.4617 10.2269 20.5852 10.2873 20.7209C10.3021 20.7558 10.3209 20.7934 10.341 20.8337C10.3773 20.9048 10.4189 20.9881 10.4323 21.0499C10.4444 21.1089 10.4377 21.1989 10.4323 21.2795C10.4283 21.3305 10.4256 21.3788 10.4256 21.4218C10.4296 21.7414 10.5209 22.0476 10.6082 22.343C10.6297 22.4155 10.6525 22.488 10.6727 22.5605C10.7237 22.7445 10.8687 23.2118 11.0997 23.5609C11.234 23.7623 11.4005 23.9799 11.6892 23.9987C11.7053 24 11.7201 24 11.7348 24C11.8557 24 11.9336 23.9624 12.0289 23.8644C12.0585 23.8348 12.0813 23.7999 12.1041 23.7664C12.1336 23.722 12.1538 23.6938 12.1739 23.6898C12.2276 23.6777 12.2908 23.6938 12.3579 23.7113C12.4693 23.7408 12.609 23.7784 12.7366 23.675C12.8413 23.5891 12.8534 23.4951 12.8628 23.4199C12.8655 23.4011 12.8695 23.3796 12.8735 23.3581C12.887 23.3031 12.9152 23.2427 12.9434 23.1836L12.9702 23.1272C13.0226 23.0104 13.0347 22.9002 13.0454 22.7942C13.0521 22.7297 13.0588 22.6666 13.075 22.6048C13.1273 22.4021 13.1824 22.1832 13.228 21.9589C13.2401 21.8998 13.2535 21.8394 13.267 21.7777C13.3113 21.5789 13.3569 21.3721 13.3704 21.1761C13.3771 21.0901 13.3744 21.0015 13.3717 20.9142C13.3704 20.8645 13.369 20.8135 13.369 20.7638Z"/>
  <path d="M17.4364 12.6841C17.3411 12.5821 17.2753 12.5472 17.1262 12.5485C17.0671 12.5485 17.0013 12.5525 16.9328 12.5579C16.7731 12.5673 16.5931 12.5781 16.4669 12.5405C16.4347 12.5311 16.3957 12.5096 16.3581 12.4908C16.3259 12.4733 16.295 12.4572 16.2682 12.4451C16.1661 12.4008 16.0708 12.3377 15.9808 12.2773C15.8505 12.1886 15.7982 12.0181 15.766 11.8798C15.7579 11.8435 15.7418 11.8033 15.7257 11.7643L15.7096 11.7254C15.7055 11.7119 15.7002 11.6958 15.6948 11.6784C15.6881 11.6542 15.68 11.63 15.6733 11.6112C15.637 11.5186 15.6142 11.43 15.586 11.3225C15.5457 11.1708 15.5471 10.8713 15.5739 10.7156C15.6062 10.533 15.727 10.3288 15.8385 10.1516C15.9768 9.93138 16.1205 9.82127 16.3541 9.68296C16.4736 9.61313 16.5609 9.57016 16.6133 9.55673C16.6321 9.55271 16.6562 9.55136 16.6791 9.55136C16.7301 9.54868 16.808 9.54599 16.8523 9.47885C16.8993 9.40903 16.8671 9.32443 16.8563 9.29757C16.8201 9.20089 16.7502 9.13644 16.6885 9.0787L16.6522 9.04378C16.6146 9.00753 16.5891 8.96321 16.5595 8.91353C16.5475 8.8907 16.534 8.86787 16.5193 8.84505C16.4897 8.79805 16.4508 8.75642 16.4132 8.71748C16.3796 8.68391 16.346 8.64765 16.3299 8.61946C16.3058 8.57514 16.287 8.4704 16.2829 8.40058C16.2735 8.22064 16.3595 8.09308 16.4682 7.9306L16.5166 7.85808C16.5434 7.8178 16.577 7.77483 16.6133 7.73186C16.714 7.60698 16.8268 7.46733 16.8389 7.30485C16.8577 7.04434 16.6321 6.87381 16.4669 6.74892L16.4159 6.71133C16.3716 6.67641 16.3232 6.64821 16.2735 6.61867C16.2171 6.5851 16.1621 6.55422 16.1231 6.51528C16.1043 6.49782 16.0896 6.47633 16.0748 6.45619C16.0493 6.42262 16.0251 6.38905 15.9929 6.35951C15.9231 6.2964 15.8344 6.23731 15.7566 6.18629L15.6317 6.10438C15.5699 6.06543 15.5162 6.03186 15.4625 5.98218C15.3336 5.86401 15.2369 5.83716 15.0959 5.79687C15.0744 5.79016 15.0569 5.77942 15.0355 5.76733C14.9912 5.74182 14.9267 5.70288 14.8354 5.72436C14.7884 5.73645 14.7494 5.77002 14.6944 5.82104C14.6836 5.83044 14.6742 5.8385 14.6675 5.84387C14.6071 5.89087 14.544 5.92713 14.4661 5.96204C14.2848 6.04261 14.0874 6.1084 13.8793 6.15809C13.8122 6.17554 13.741 6.18763 13.6712 6.20106C13.5154 6.22926 13.3556 6.2588 13.2052 6.32594C13.0078 6.41456 12.9957 6.61867 12.989 6.74087C12.985 6.80264 12.9743 6.85501 12.9622 6.91006C12.9568 6.94095 12.9501 6.97183 12.9447 7.0054C12.9367 7.05106 12.9393 7.09268 12.942 7.13028C12.9447 7.15848 12.9461 7.18399 12.9434 7.20145C12.938 7.22831 12.9286 7.25382 12.9192 7.28068C12.8923 7.35587 12.8588 7.44853 12.8897 7.55729C12.9514 7.77349 13.1958 7.75334 13.3274 7.74126C13.357 7.73992 13.3838 7.73723 13.4066 7.73723C13.4832 7.73455 13.5678 7.74126 13.6524 7.74529C13.8498 7.75603 14.0552 7.76677 14.2445 7.7238C14.3788 7.69292 14.5239 7.62443 14.6232 7.57475C14.6568 7.55864 14.6944 7.53447 14.7333 7.50895C14.783 7.47538 14.8448 7.4351 14.8797 7.42973C14.92 7.42167 14.9334 7.43241 14.9374 7.4351C14.9858 7.47404 14.9952 7.63652 15.0006 7.7332C15.0032 7.79766 15.0073 7.85674 15.0167 7.89837C15.0381 8.00042 15.0784 8.08636 15.1174 8.17096C15.1375 8.21527 15.1577 8.25958 15.1751 8.30658C15.1791 8.31732 15.1832 8.34284 15.1845 8.36432C15.1899 8.40058 15.1939 8.43952 15.21 8.47577C15.2329 8.52814 15.2664 8.56574 15.296 8.59931C15.3161 8.62214 15.3336 8.64094 15.3443 8.66108C15.3685 8.71077 15.3873 8.75911 15.4061 8.80879C15.4289 8.86787 15.4531 8.92696 15.4826 8.98336C15.5162 9.04781 15.4705 9.13241 15.4276 9.19283C15.3953 9.23715 15.3671 9.24923 15.3134 9.27206C15.2785 9.28683 15.2423 9.30294 15.2033 9.32712C15.1321 9.37143 15.0502 9.45065 14.9858 9.51377L14.9616 9.53659C14.9025 9.59299 14.8555 9.65744 14.8099 9.72056C14.7736 9.77024 14.736 9.82127 14.693 9.86558C14.6152 9.94481 14.5749 10.024 14.5359 10.1006C14.5225 10.1288 14.5064 10.1583 14.4889 10.1892C14.3654 10.4027 14.2674 10.6672 14.2043 10.9506C14.1989 10.9801 14.1908 11.0056 14.1828 11.0311C14.1667 11.0875 14.1492 11.1439 14.1465 11.2191C14.1412 11.3413 14.16 11.4501 14.1788 11.5548C14.1855 11.5938 14.1922 11.6314 14.1989 11.6703C14.219 11.814 14.2526 12.0006 14.3318 12.1658L14.36 12.2276C14.407 12.3296 14.4554 12.4357 14.5427 12.527L14.5883 12.5727C14.6299 12.6157 14.6689 12.6559 14.7078 12.7016C14.8488 12.8681 15.0986 13.0682 15.3161 13.1179C15.3457 13.1232 15.3698 13.1286 15.3913 13.1326C15.449 13.1434 15.4719 13.1474 15.531 13.1837C15.6021 13.2253 15.6746 13.2454 15.7391 13.2615C15.8035 13.279 15.8599 13.2938 15.9043 13.3273C15.9311 13.3475 15.9633 13.369 15.9983 13.3918C16.0949 13.4549 16.2144 13.5328 16.2144 13.6134C16.2144 13.7087 16.1473 13.8416 16.0936 13.9477L16.0708 13.9947C16.0211 14.0968 16.0036 14.2028 15.9862 14.3049C15.9768 14.364 15.9674 14.4231 15.9513 14.4795C15.9204 14.5855 15.8828 14.6876 15.8452 14.791C15.8264 14.8407 15.8076 14.8904 15.7901 14.94C15.774 14.987 15.7472 15.0287 15.719 15.0743C15.6773 15.1401 15.6303 15.2153 15.6075 15.3147L15.578 15.457C15.5538 15.5658 15.531 15.6759 15.5041 15.7806C15.5001 15.7981 15.4934 15.8129 15.488 15.8276C15.4759 15.8585 15.4598 15.8961 15.4544 15.9445C15.4517 15.974 15.4531 16.0022 15.4544 16.0304C15.4571 16.0506 15.4584 16.0694 15.4558 16.0747C15.4517 16.0814 15.4356 16.0989 15.4262 16.1096C15.4047 16.1298 15.3859 16.1513 15.3739 16.1701C15.3134 16.26 15.2879 16.3419 15.2637 16.4265C15.2584 16.448 15.2517 16.4722 15.2463 16.4964C15.2275 16.5729 15.206 16.6602 15.1671 16.7045C15.159 16.7152 15.0704 16.7931 14.634 16.44C14.5977 16.4104 14.5641 16.3782 14.5306 16.3473C14.4675 16.2882 14.4017 16.2265 14.3184 16.1768C14.1506 16.0761 13.9572 16.0425 13.7262 16.0707C13.643 16.0801 13.5678 16.1043 13.4926 16.1284C13.451 16.1405 13.408 16.1539 13.3664 16.1647C13.2791 16.1848 13.177 16.1808 13.0763 16.1768C12.9783 16.1727 12.8856 16.1727 12.7916 16.1754C12.6963 16.1768 12.6023 16.1781 12.5083 16.1741C12.4264 16.1701 12.3337 16.1445 12.2451 16.1204C12.2021 16.1083 12.1592 16.0962 12.1175 16.0868C11.8423 16.0224 11.3441 16.0694 11.1534 16.3769L11.1212 16.4292C11.0863 16.4883 11.0675 16.5205 11.0178 16.5608L10.9708 16.5984C10.8808 16.6709 10.7962 16.7394 10.7385 16.8697C10.6364 17.0979 10.5599 17.4833 10.6297 17.7908C10.6525 17.8915 10.7049 17.9855 10.7573 18.0755C10.7801 18.1158 10.8029 18.1561 10.8217 18.1964C10.8365 18.2259 10.8499 18.2635 10.8634 18.3011C10.8889 18.3709 10.9157 18.4421 10.952 18.4985C10.9775 18.5374 11.0138 18.5656 11.046 18.5911C11.0675 18.6086 11.0903 18.6261 11.0984 18.6395C11.1172 18.6663 11.1279 18.6905 11.1386 18.7147C11.148 18.7348 11.1561 18.755 11.1709 18.7818C11.2904 19.0155 11.3897 19.1686 11.5361 19.1659L11.6153 19.1632L11.6395 19.0866C11.669 18.99 11.661 18.8839 11.6556 18.7912C11.6529 18.7509 11.6489 18.7107 11.6502 18.6731C11.6516 18.6301 11.6596 18.6073 11.6704 18.5737C11.6784 18.5482 11.6878 18.5213 11.6946 18.4877C11.7214 18.3629 11.7174 18.1507 11.4354 18.0299C11.4421 18.0178 11.4488 18.0043 11.4542 17.9909C11.4743 17.9439 11.4811 17.9036 11.4851 17.8701C11.4878 17.8553 11.4891 17.8405 11.4945 17.8231C11.5119 17.7626 11.5428 17.6968 11.571 17.6337L11.5912 17.5921C11.6207 17.5263 11.6422 17.4592 11.6623 17.396C11.7013 17.2671 11.7322 17.1718 11.8302 17.0979C11.8302 17.102 11.8315 17.106 11.8315 17.1087C11.8423 17.1758 11.8517 17.1973 11.8799 17.2524C11.8973 17.2886 11.9054 17.3182 11.9148 17.3544C11.9215 17.3786 11.9269 17.4028 11.9363 17.4296C11.9873 17.5894 12.0893 17.6552 12.1645 17.6821C12.2975 17.7291 12.4626 17.6995 12.6184 17.5988C12.7245 17.5317 12.7648 17.4994 12.8306 17.384L12.848 17.3544C12.8897 17.2819 12.9259 17.2175 12.9622 17.1355L12.9796 17.0926C12.9877 17.0738 13.0011 17.0389 13.0132 17.016C13.0239 17.0348 13.0307 17.0697 13.036 17.0939C13.0401 17.1114 13.0427 17.1288 13.0468 17.1449C13.1246 17.4242 13.314 17.7156 13.6349 17.7049C13.7168 17.7022 13.745 17.6928 13.792 17.6592C13.8001 17.6539 13.8095 17.6472 13.8229 17.6391C13.8404 17.6284 13.8592 17.6216 13.8766 17.6136C13.9008 17.6028 13.9263 17.5921 13.9505 17.5787C14.031 17.533 14.0821 17.4672 14.1277 17.4095C14.1519 17.3813 14.1734 17.3517 14.2016 17.3276C14.2043 17.3947 14.1895 17.4457 14.1694 17.5156L14.1546 17.5693C14.1009 17.772 14.0458 18.0137 14.0458 18.2729C14.0458 18.3024 14.0431 18.3333 14.0418 18.3656C14.0364 18.4407 14.031 18.5253 14.0472 18.6005C14.0566 18.6449 14.0754 18.6757 14.0888 18.6986C14.0968 18.712 14.1009 18.7187 14.1022 18.7241C14.1062 18.7415 14.1022 18.7805 14.1009 18.8087C14.0982 18.8328 14.0968 18.8557 14.0968 18.8772C14.0968 18.9295 14.0942 18.9846 14.0928 19.0383C14.0888 19.2196 14.0821 19.4076 14.125 19.5862C14.1452 19.6788 14.16 19.7742 14.1734 19.8695C14.1801 19.9152 14.1868 19.9621 14.1935 20.0065C14.207 20.0857 14.2164 20.1649 14.2258 20.2455C14.2392 20.3583 14.2526 20.4711 14.2741 20.5839C14.309 20.7571 14.305 20.9478 14.3009 21.1317C14.2996 21.1948 14.2983 21.2566 14.2983 21.3184L14.2969 21.4272C14.2969 21.501 14.2969 21.5735 14.2983 21.6474C14.2983 21.7172 14.2848 21.779 14.2701 21.8501C14.262 21.8851 14.2553 21.92 14.2486 21.9562C14.2217 22.116 13.6779 22.6531 13.5906 22.8277C13.4912 23.0264 13.4402 23.7972 13.4966 23.8267C13.5288 23.8442 14.7011 22.7901 14.7736 22.6384C14.8542 22.4732 14.9482 22.2154 14.9737 21.9858C14.9804 21.9294 14.9898 21.8756 14.9992 21.8206C15.0073 21.7776 15.014 21.7347 15.0207 21.689C15.0247 21.6621 15.0341 21.6353 15.0435 21.6098C15.0569 21.5722 15.0704 21.5292 15.0771 21.4809C15.0811 21.4433 15.0811 21.4084 15.0798 21.3721C15.0784 21.3385 15.0771 21.309 15.0838 21.2808C15.1375 21.031 15.1321 20.7745 15.1281 20.5248C15.1268 20.4563 15.1254 20.3865 15.1254 20.318V19.3539C15.1254 19.2854 15.1214 19.2115 15.1174 19.1377C15.108 18.9832 15.0999 18.8248 15.1268 18.6999C15.1308 18.6825 15.1375 18.6663 15.1442 18.6502C15.1563 18.6207 15.1711 18.5844 15.1765 18.5388C15.1818 18.4998 15.1765 18.4622 15.1724 18.43C15.1697 18.4139 15.1671 18.387 15.1684 18.379C15.1751 18.3588 15.2167 18.3212 15.2449 18.2971C15.2624 18.281 15.2799 18.2662 15.2933 18.2514C15.3309 18.2152 15.3671 18.1749 15.4034 18.1359C15.4705 18.0634 15.539 17.9882 15.6102 17.9318C15.7364 17.8338 15.8908 17.7264 16.0466 17.6324C16.2695 17.4981 16.3568 17.3786 16.4669 17.1584C16.5099 17.0724 16.5179 17.0107 16.5273 16.9435C16.5287 16.9247 16.5314 16.9032 16.5354 16.8791C16.5502 16.7918 16.6025 16.6763 16.6482 16.5756C16.667 16.5326 16.6858 16.491 16.7019 16.4521L16.7274 16.3889C16.7704 16.2842 16.812 16.1795 16.8577 16.0788L16.8724 16.0479C16.9073 15.9727 16.9396 15.9015 16.9624 15.8129C16.9731 15.7672 16.9785 15.7229 16.9839 15.6773C16.9892 15.6276 16.9946 15.5833 17.0094 15.5443C17.1262 15.2449 17.2363 14.9213 17.2404 14.5855C17.2417 14.5171 17.2538 14.4526 17.2659 14.3841C17.2766 14.3224 17.2874 14.2619 17.2927 14.1961C17.3035 14.0216 17.3209 13.8833 17.3505 13.7382C17.3693 13.6469 17.4001 13.5637 17.4337 13.4764C17.4874 13.3354 17.5425 13.1904 17.5425 13.0118V12.9863C17.5425 12.8775 17.5425 12.7983 17.4364 12.6841Z"/>
  <path d="M15.7109 5.35915C15.7176 5.42764 15.9029 5.50955 15.9526 5.57266C15.9741 5.60086 15.9768 5.64383 15.9996 5.67471C16.0265 5.71231 16.0708 5.73648 16.1003 5.77139C16.1795 5.86673 16.2655 5.93925 16.3528 6.02653C16.4213 6.09501 16.4871 6.19572 16.5636 6.25346C16.7422 6.38909 16.9611 6.4898 17.1705 6.58111C17.2887 6.63213 17.3948 6.66302 17.5224 6.66705C17.6929 6.67376 17.6768 6.62676 17.6741 6.46697C17.6728 6.34477 17.7184 6.25346 17.7506 6.13932C17.7829 6.0225 17.7923 5.88822 17.8352 5.77408C17.8755 5.67068 17.9427 5.59012 17.9762 5.48269C18.0031 5.39675 18.0474 5.30678 18.089 5.22084C18.1723 5.05299 18.2931 4.93885 18.4153 4.79517C18.4825 4.71729 18.5348 4.62867 18.606 4.55347C18.7013 4.45141 18.7389 4.45142 18.8826 4.45276C19.1122 4.4541 19.2922 4.4541 19.4869 4.55347C19.699 4.66224 19.8615 4.79517 20.0039 4.99525C20.0603 5.07448 20.0885 5.15907 20.1395 5.23696C20.212 5.3511 20.3342 5.47866 20.4295 5.574C20.5034 5.64786 20.5772 5.70694 20.643 5.79154C20.6887 5.85062 20.7397 5.90433 20.7854 5.96476C20.8337 6.02921 20.878 6.05473 20.9358 6.11247C21.1171 6.29643 21.2715 6.46831 21.5508 6.46697C21.7844 6.46563 22.0194 6.46428 22.2531 6.46697C22.5391 6.46966 22.8238 6.424 23.0588 6.26689C23.3407 6.07756 23.62 5.91105 23.8644 5.66397C24.0283 5.49612 24.1894 5.32961 24.3452 5.1537C24.5211 4.95363 24.6218 4.71192 24.748 4.47961C24.8863 4.22582 24.9347 3.93041 24.9803 3.64707C25.0179 3.42014 25.0031 3.20797 25.0219 2.98104C25.0313 2.88033 25.0703 2.79036 25.0756 2.69099C25.081 2.60774 25.0756 2.52314 25.0756 2.43989C25.0743 2.16059 25.1119 1.89202 25.1643 1.61675C25.1898 1.4865 25.167 1.35356 25.1871 1.22062C25.2099 1.07023 25.2287 0.930573 25.226 0.777493C25.2247 0.553245 25.2757 0.252456 25.218 0.0349208C25.0475 0.186658 24.936 0.457905 24.8232 0.649926C24.6782 0.897003 24.5385 1.15214 24.4714 1.43278C24.3774 1.82488 24.2176 2.17536 24.0806 2.55134C23.9329 2.95418 23.8094 3.37448 23.5851 3.74376C23.5193 3.85252 23.424 3.93578 23.3636 4.04857C23.3045 4.15734 23.2414 4.23657 23.1621 4.32922C22.9943 4.52661 22.9178 4.80457 22.7365 4.98854C22.5498 5.17653 22.2934 5.23964 22.0288 5.2101C21.8005 5.18324 21.5051 5.05971 21.4232 4.83009C21.3816 4.71192 21.4017 4.57898 21.4004 4.45276C21.3977 4.29968 21.4648 4.23119 21.5266 4.10094C21.6609 3.8203 21.8623 3.55442 22.0436 3.29391C22.2705 2.96627 22.4169 2.6158 22.5324 2.23175C22.5941 2.0263 22.6156 1.83025 22.6613 1.62615C22.6868 1.50932 22.6586 1.36027 22.6586 1.23808C22.6586 1.16019 22.6747 1.0568 22.6479 0.982943C22.57 0.985628 22.5283 1.16959 22.4975 1.23002C22.4317 1.35356 22.3162 1.46904 22.2329 1.58049C22.0449 1.83697 21.8502 2.08136 21.6622 2.33784C21.5038 2.55806 21.3453 2.77425 21.1869 2.99313C21.105 3.10592 20.9935 3.16232 20.8968 3.25632C20.827 3.32211 20.7773 3.40268 20.6968 3.45908C20.5061 3.59068 20.3288 3.69676 20.0911 3.69676C19.8575 3.69676 19.6118 3.57053 19.3969 3.48325C19.3217 3.45237 19.2492 3.38791 19.1727 3.35837C19.1257 3.33823 19.0773 3.33151 19.0303 3.30869C19.0115 3.29929 18.9914 3.26303 18.9726 3.25497C18.943 3.24289 18.9054 3.25632 18.8813 3.24557C18.8155 3.21469 18.7282 3.15158 18.6678 3.10726C18.5993 3.05758 18.5107 2.97433 18.465 2.9045C18.3173 2.68294 18.3858 2.36469 18.3804 2.09882C18.3777 1.98736 18.3388 1.8974 18.3267 1.78863C18.3119 1.65838 18.328 1.51469 18.3294 1.38444C18.3307 1.25822 18.3039 1.16959 18.2837 1.05008C18.2649 0.941315 18.2931 0.839263 18.226 0.74258C18.2596 0.997714 18.1266 1.27702 18.0259 1.5053C17.9292 1.7282 17.8178 1.95782 17.7359 2.18744C17.6768 2.35261 17.5747 2.49092 17.4848 2.63997C17.3733 2.82259 17.2753 3.00118 17.1464 3.17306C16.8926 3.51414 16.7247 3.91563 16.4186 4.2124C16.2333 4.39099 16.0533 4.58167 15.9217 4.80592C15.8613 4.90931 15.7942 5.06642 15.7646 5.17922C15.7512 5.23024 15.6975 5.36452 15.7109 5.35915Z"/>
  <path d="M8.61013 5.68415C8.5967 5.60626 8.47451 5.57001 8.41945 5.51898C8.36708 5.47198 8.32949 5.4129 8.28517 5.35919C8.12806 5.16985 8.02601 4.98454 7.91724 4.76835C7.69971 4.3306 7.59363 3.8257 7.46472 3.36512C7.40832 3.16504 7.26867 2.9945 7.20824 2.7998C7.18944 2.73668 7.19884 2.69371 7.17064 2.63732C7.14781 2.58897 7.10887 2.55272 7.08605 2.50169C7.05113 2.42247 7.00413 2.33653 6.97191 2.25999C6.93565 2.1727 6.92222 2.08274 6.87791 1.9874C6.84434 1.91489 6.81077 1.84103 6.79466 1.76315C6.77854 1.67989 6.8054 1.5859 6.796 1.49996C6.78257 1.39253 6.74766 1.30794 6.70603 1.20723C6.68186 1.14411 6.6926 1.0716 6.60801 1.05817C6.55564 1.31465 6.36899 1.54293 6.34482 1.80612C6.33139 1.9498 6.27768 2.08811 6.24545 2.22373C6.21591 2.34861 6.19442 2.42515 6.19308 2.56212C6.19308 2.68029 6.22396 2.73668 6.24545 2.83739C6.26693 2.93542 6.24276 3.06567 6.24411 3.16638C6.24545 3.35169 6.18905 3.56385 6.04403 3.69545C5.89632 3.83107 5.63179 3.9291 5.43842 3.97341C5.32831 3.99892 5.22357 4.05935 5.11212 4.07412C4.95367 4.0956 4.79253 4.12515 4.63542 4.16677C4.43937 4.22049 4.14395 4.27823 3.92642 4.22854C3.86062 4.21243 3.83511 4.16006 3.77737 4.1332C3.71828 4.10635 3.66323 4.1144 3.60415 4.07412C3.52761 4.02041 3.44972 3.96535 3.37318 3.91164C3.28187 3.84853 3.20802 3.73708 3.14356 3.64711C3.02808 3.48731 2.94348 3.35438 2.8938 3.16101C2.84412 2.96765 2.84546 2.75951 2.80786 2.56078C2.75952 2.30296 2.71521 2.01828 2.71924 1.75509C2.72058 1.63692 2.71924 1.5201 2.71924 1.40193C2.72058 1.35762 2.74609 1.21528 2.71789 1.17768C2.64135 1.07697 2.54467 1.20723 2.52319 1.28377C2.43322 1.61007 2.36742 1.9216 2.36742 2.27342C2.36742 2.61583 2.34593 2.9663 2.36608 3.30872C2.37279 3.43092 2.43187 3.53297 2.46142 3.64979C2.49364 3.77467 2.51916 3.8915 2.56213 4.00161C2.64941 4.22183 2.64001 4.44205 2.45604 4.61393C2.32042 4.73881 2.04515 4.67838 1.89341 4.62333C1.80881 4.5911 1.68796 4.4971 1.62485 4.42728C1.50534 4.293 1.39254 4.15737 1.28512 3.99758C1.13204 3.77065 1.02058 3.52357 0.905102 3.27649C0.793649 3.03747 0.770821 2.78771 0.687567 2.54198C0.598942 2.28416 0.545229 2.01828 0.494203 1.75509C0.455261 1.56038 0.37335 1.36702 0.351865 1.17366C0.33038 0.978949 0.303524 0.801698 0.303524 0.597591C0.303524 0.392141 0.282039 0.198777 0.243098 4.19617e-05C0.138359 0.00541319 0.0739044 0.471367 0.0631619 0.547907C-0.00800686 1.00312 0.00407786 1.45162 4.94398e-05 1.9122C-0.00397898 2.3043 0.145073 2.66954 0.252498 3.0415C0.358579 3.40674 0.445862 3.76259 0.581485 4.11978C0.776192 4.63139 1.05952 5.11077 1.48922 5.4599C1.78598 5.7016 2.07737 5.98762 2.41845 6.15682C2.77698 6.33541 3.1825 6.28841 3.5746 6.28841C3.65517 6.28841 3.74917 6.30318 3.82839 6.2911C3.92508 6.27632 4.00967 6.21053 4.10636 6.19173C4.27421 6.1595 4.43803 6.12324 4.58037 6.02522C4.71599 5.93122 4.85698 5.86811 4.95904 5.73652C5.03021 5.64655 5.12823 5.56732 5.18866 5.47198C5.25848 5.36456 5.27057 5.29473 5.37665 5.21685C5.48945 5.13494 5.59687 5.03691 5.70967 4.97246C5.84798 4.89323 6.13802 4.89592 6.29782 4.9268C6.3663 4.93889 6.50058 4.97649 6.55027 5.02617C6.61875 5.09465 6.62143 5.23028 6.64695 5.3189C6.67783 5.42901 6.68992 5.52167 6.69529 5.63446C6.70066 5.72443 6.73692 5.79694 6.74766 5.88557C6.75706 5.97419 6.796 6.04805 6.79869 6.13667C6.80406 6.24275 6.8148 6.31392 6.85374 6.41463C6.93699 6.62948 7.07127 6.6268 7.23644 6.73422C7.29418 6.66305 7.37341 6.66574 7.45532 6.64023C7.5332 6.61605 7.59094 6.57711 7.6648 6.53952C7.8313 6.45492 7.9723 6.35018 8.13344 6.25753C8.38857 6.11116 8.63833 5.96479 8.61013 5.68415Z"/>
  <path d="M13.369 20.7638C13.3704 20.6752 13.3556 20.6 13.3408 20.5262C13.3301 20.4724 13.3193 20.4174 13.3167 20.3583C13.314 20.2992 13.3193 20.2361 13.3234 20.173C13.3314 20.0656 12.7889 18.6489 12.699 18.6892L12.6036 18.7295C12.5056 18.7684 12.7285 19.3378 12.7352 19.3754C12.7433 19.4103 12.3592 20.0911 12.3888 20.1247C12.5123 20.2683 12.511 20.5973 12.5123 20.7155C12.5137 20.8686 12.4452 21.1344 12.4412 21.2875C12.4398 21.3386 12.4291 21.3882 12.417 21.442C12.4049 21.4983 12.3928 21.5547 12.3888 21.6138C12.3861 21.6649 12.3794 21.685 12.3646 21.7226C12.3579 21.7414 12.3512 21.7615 12.3431 21.7871C12.3351 21.8153 12.3297 21.8408 12.323 21.8649C12.3096 21.9227 12.3002 21.9616 12.2666 22.0046C12.2424 22.0355 12.2182 22.0623 12.1954 22.0892C12.143 22.1496 12.088 22.2114 12.0343 22.3054C12.0195 22.3322 11.9967 22.3739 11.9792 22.394C11.9792 22.3927 11.9792 22.3927 11.9779 22.3913C11.9604 22.3779 11.9067 22.3107 11.8785 22.2678C11.8342 22.2006 11.8087 22.1187 11.7832 22.0314C11.7483 21.9213 11.7147 21.8072 11.6355 21.7038C11.5576 21.6017 11.4931 21.4889 11.4246 21.3694C11.3844 21.2996 11.3427 21.2284 11.2998 21.1586C11.2622 21.0995 11.2474 21.0257 11.2313 20.9465C11.2152 20.8632 11.1977 20.7786 11.1547 20.698C11.14 20.6712 11.1212 20.6524 11.1077 20.6363C11.101 20.6296 11.093 20.6202 11.0903 20.6175C11.0836 20.6027 11.0769 20.5678 11.0728 20.5409C11.0675 20.5127 11.0621 20.4845 11.0554 20.4604C11.0419 20.4174 11.0231 20.3744 11.0043 20.3328C10.9829 20.2831 10.9627 20.2361 10.9547 20.1931C10.9359 20.075 10.8996 19.9622 10.8647 19.8521C10.8405 19.7796 10.8164 19.7044 10.7976 19.6278C10.7855 19.5822 10.7774 19.5338 10.7694 19.4841C10.7546 19.3995 10.7385 19.3123 10.7076 19.2263C10.6901 19.178 10.6686 19.131 10.6458 19.0853C10.627 19.045 10.6082 19.0061 10.5934 18.9645C10.5276 18.7818 10.4363 18.614 10.3477 18.4475C10.2336 18.2353 10.1866 18.0232 10.1355 17.7976C10.1087 17.6767 10.0805 17.5505 10.0416 17.4202C10.0013 17.29 9.94084 17.1785 9.8831 17.0725C9.83745 16.9892 9.79448 16.91 9.76091 16.8227C9.73942 16.7676 9.71659 16.7126 9.69377 16.6562C9.64677 16.5407 9.59843 16.4199 9.56217 16.3017C9.51383 16.1446 9.45206 15.9888 9.39432 15.8398L9.32315 15.6598C9.2587 15.4933 9.20767 15.3604 9.23721 15.1952C9.24795 15.1308 9.27884 15.0529 9.30838 14.9777C9.32315 14.9414 9.33658 14.9065 9.34866 14.8729C9.37418 14.8004 9.37686 14.7413 9.37821 14.689C9.37821 14.6554 9.37955 14.6259 9.38626 14.595C9.39163 14.5721 9.39969 14.5574 9.40506 14.5426C9.42655 14.4983 9.44266 14.454 9.44266 14.3694C9.44132 14.3143 9.44132 14.2593 9.44132 14.2042L9.44266 14.1196C9.44266 14.0605 9.43729 13.9961 9.43326 13.9303C9.4252 13.8081 9.41581 13.6819 9.43729 13.5865C9.44669 13.5395 9.46952 13.5248 9.55143 13.4831C9.59977 13.459 9.65348 13.4321 9.70585 13.3864C10.0026 13.1259 10.2242 12.7553 10.4243 12.3968C10.6485 11.9993 10.5451 11.5092 10.4337 11.0822C10.4149 11.0097 10.392 10.9412 10.3692 10.8714C10.3356 10.7666 10.3047 10.6686 10.2859 10.5666C10.251 10.3624 10.1315 10.1476 10.0322 9.98243C9.97441 9.88709 9.90056 9.80249 9.83073 9.72058C9.78239 9.66419 9.73405 9.60913 9.69108 9.55005C9.62663 9.46008 9.63602 9.45202 9.73808 9.35668C9.7891 9.30968 9.85087 9.25194 9.89787 9.17137C9.93144 9.11498 9.95159 9.05724 9.97038 9.00084C9.99053 8.9431 10.0093 8.88938 10.0389 8.84507C10.1127 8.7363 10.1423 8.68662 10.1463 8.53757L10.149 8.47311C10.1557 8.31466 10.1624 8.13607 10.0698 7.98165C9.96501 7.81111 9.94621 7.68086 9.94621 7.45661C9.94487 7.38947 9.94487 7.27802 9.97978 7.24176C9.98381 7.23908 9.99724 7.22565 10.0308 7.22833C10.0362 7.22968 10.0523 7.23773 10.0644 7.24445C10.0912 7.25922 10.1248 7.27802 10.1678 7.28473C10.1973 7.2901 10.2242 7.2901 10.2537 7.2901C10.2645 7.2901 10.2739 7.2901 10.2819 7.2901C10.298 7.30487 10.3235 7.32501 10.3585 7.33307C10.4041 7.34381 10.4498 7.33979 10.4887 7.33576C10.5048 7.33441 10.5196 7.33173 10.533 7.33173C10.5652 7.33441 10.5961 7.34381 10.6324 7.35456C10.6754 7.36798 10.725 7.38141 10.7882 7.38544C10.913 7.39215 11.0111 7.39753 11.1239 7.4217C11.281 7.45392 11.4421 7.50227 11.5979 7.54792L11.6664 7.56806C11.6999 7.57881 11.7348 7.58955 11.7697 7.60163C11.904 7.6446 12.0584 7.69697 12.2062 7.68757C12.2881 7.68354 12.3539 7.654 12.4009 7.60163C12.4895 7.50092 12.4774 7.35456 12.468 7.22565C12.4653 7.18939 12.4626 7.15582 12.4626 7.12359C12.4626 7.09674 12.4653 7.05914 12.4693 7.01483C12.4868 6.79595 12.5056 6.54619 12.3579 6.46696C12.2961 6.43339 12.2129 6.42265 12.1323 6.41325C12.1054 6.40922 12.0799 6.40653 12.0585 6.40251C12.0423 6.38639 12.0155 6.36491 11.9792 6.35551C11.9269 6.34342 11.8664 6.34745 11.8127 6.35148C11.7939 6.35416 11.7751 6.35551 11.7603 6.35551H11.6314C11.5683 6.35417 11.5066 6.35417 11.4434 6.35551C11.4099 6.35551 11.3924 6.34879 11.3615 6.33537C11.3347 6.32462 11.3065 6.31388 11.2716 6.30582C11.2259 6.29374 11.1843 6.30045 11.1507 6.30582C11.1373 6.30717 11.1185 6.30985 11.1118 6.30851C11.101 6.30717 11.0889 6.30045 11.0728 6.29374C11.0513 6.283 11.0258 6.27091 10.9936 6.26285C10.9627 6.2548 10.9332 6.24943 10.9036 6.24405C10.8378 6.23063 10.7801 6.21988 10.725 6.18766L10.678 6.15946C10.6216 6.12723 10.5666 6.095 10.5102 6.0668C10.4592 6.03995 10.4578 6.03861 10.431 5.99429L10.4081 5.95535C10.3907 5.92715 10.3759 5.88955 10.3598 5.85195C10.3356 5.79556 10.3115 5.73647 10.2765 5.69082C10.2 5.59011 10.1006 5.59548 10.0308 5.59816L9.98516 5.60085C9.97307 5.60085 9.9583 5.59816 9.94219 5.59816C9.89922 5.59414 9.85088 5.59011 9.80522 5.60085C9.77299 5.60891 9.74882 5.62636 9.72734 5.64516C9.71525 5.64651 9.70317 5.6465 9.69242 5.64785C9.63871 5.65188 9.57157 5.6559 9.50174 5.70827C9.44937 5.74722 9.41715 5.80227 9.38895 5.84927C9.37149 5.87881 9.35538 5.90567 9.33926 5.92178C9.31107 5.95132 9.28287 5.96609 9.24527 5.98758C9.2211 5.99966 9.19558 6.01309 9.16873 6.03055C9.1177 6.06412 9.07205 6.1044 9.02639 6.14603C8.99148 6.17691 8.95522 6.20914 8.91628 6.236C8.8666 6.26957 8.81826 6.30717 8.76991 6.34342L8.71217 6.38773C8.58461 6.48576 8.4839 6.57573 8.38319 6.68047C8.34559 6.71941 8.27308 6.76775 8.21936 6.80132L8.18445 6.82415C8.06225 6.90472 7.92395 6.99603 7.86755 7.16791C7.79504 7.39484 8.06494 7.61372 8.30396 7.75874L8.32679 7.77217C8.47315 7.85945 8.67323 7.9803 8.77797 8.10787C8.87197 8.22201 8.88942 8.32809 8.83706 8.44895C8.79006 8.55906 8.6504 8.64365 8.51478 8.72556C8.41138 8.78733 8.31873 8.85582 8.22473 8.9243L8.10925 9.00621C8.05823 9.04247 7.9978 9.07604 7.93737 9.10961C7.84069 9.16466 7.74132 9.2224 7.66076 9.29357L7.51842 9.42114L7.69835 9.48291C7.74535 9.49902 7.78966 9.50036 7.82861 9.50171C7.84875 9.50305 7.86755 9.50305 7.88635 9.50708C7.90112 9.5111 7.91455 9.51513 7.92797 9.51916C7.96289 9.53125 8.0072 9.54468 8.06763 9.54736C8.17639 9.55273 8.32142 9.59436 8.42213 9.64807C8.53358 9.70984 8.73634 9.83472 8.85183 9.99317C8.97805 10.1677 9.08682 10.3571 9.1929 10.5907C9.21841 10.6498 9.23453 10.7317 9.25064 10.8109C9.25735 10.8499 9.26541 10.8888 9.27347 10.9237C9.28555 10.9734 9.30032 11.0258 9.31509 11.0782C9.33792 11.1587 9.36075 11.2406 9.37418 11.3199C9.40909 11.5213 9.31778 11.7549 9.22781 11.9577C9.2117 11.9953 9.19693 12.0316 9.18484 12.0665C9.14859 12.1564 9.12173 12.2276 9.05727 12.2988C8.98879 12.3753 8.96596 12.3861 8.86123 12.4116C8.84108 12.4156 8.82363 12.421 8.80483 12.4263C8.76589 12.4384 8.73366 12.4465 8.688 12.4465H8.45435C8.41004 12.4465 8.36707 12.4465 8.32142 12.4465C8.30262 12.4451 8.27979 12.4411 8.25428 12.4317C8.23145 12.4237 8.20996 12.4156 8.18445 12.4102L8.13342 12.3995C8.03003 12.3793 7.94812 12.3632 7.85546 12.3189C7.83532 12.3095 7.80578 12.2853 7.77758 12.2598C7.74401 12.2303 7.70641 12.1981 7.66344 12.1739C7.6245 12.0154 7.62181 12.0034 7.61913 11.9913L7.6057 11.9255L7.54125 11.9067C7.41771 11.8691 7.03501 11.8288 6.90207 12.0208C6.79062 12.1806 6.90207 12.4586 6.97861 12.609C7.06186 12.7755 7.24046 13.0897 7.49559 13.3233C7.67016 13.4831 7.81384 13.6872 7.94677 13.9639C8.12134 14.3304 8.20459 14.6849 8.20996 15.0784C8.21131 15.1791 8.22473 15.2731 8.23682 15.3644C8.24756 15.4383 8.25696 15.5108 8.26099 15.586C8.26368 15.6424 8.2771 15.6853 8.28785 15.7202C8.29322 15.739 8.29993 15.7578 8.30262 15.7807C8.31067 15.8384 8.31067 15.8948 8.31202 15.9526C8.31336 16.017 8.3147 16.0828 8.32276 16.1499C8.33887 16.2708 8.36976 16.3876 8.39796 16.5018C8.42481 16.6052 8.45033 16.7032 8.4651 16.8026C8.47047 16.8428 8.47584 16.8845 8.47987 16.9274C8.49464 17.0456 8.50807 17.1678 8.54835 17.2806C8.60206 17.431 8.68129 17.5961 8.75246 17.7385C8.77663 17.7882 8.79946 17.8392 8.82094 17.8889C8.86123 17.9775 8.90151 18.0702 8.95791 18.1615C9.11636 18.4206 9.26541 18.665 9.37686 18.9416C9.42386 19.0612 9.47757 19.1766 9.52994 19.2921C9.60917 19.4627 9.68302 19.6238 9.73942 19.7943C9.80388 19.9944 9.92607 20.1649 10.0442 20.3301C10.1382 20.4617 10.2269 20.5852 10.2873 20.7209C10.3021 20.7558 10.3209 20.7934 10.341 20.8337C10.3773 20.9048 10.4189 20.9881 10.4323 21.0499C10.4444 21.1089 10.4377 21.1989 10.4323 21.2795C10.4283 21.3305 10.4256 21.3788 10.4256 21.4218C10.4296 21.7414 10.5209 22.0476 10.6082 22.343C10.6297 22.4155 10.6525 22.488 10.6727 22.5605C10.7237 22.7445 10.8687 23.2118 11.0997 23.5609C11.234 23.7623 11.4005 23.9799 11.6892 23.9987C11.7053 24 11.7201 24 11.7348 24C11.8557 24 11.9336 23.9624 12.0289 23.8644C12.0585 23.8348 12.0813 23.7999 12.1041 23.7664C12.1336 23.722 12.1538 23.6938 12.1739 23.6898C12.2276 23.6777 12.2908 23.6938 12.3579 23.7113C12.4693 23.7408 12.609 23.7784 12.7366 23.675C12.8413 23.5891 12.8534 23.4951 12.8628 23.4199C12.8655 23.4011 12.8695 23.3796 12.8735 23.3581C12.887 23.3031 12.9152 23.2427 12.9434 23.1836L12.9702 23.1272C13.0226 23.0104 13.0347 22.9002 13.0454 22.7942C13.0521 22.7297 13.0588 22.6666 13.075 22.6048C13.1273 22.4021 13.1824 22.1832 13.228 21.9589C13.2401 21.8998 13.2535 21.8394 13.267 21.7777C13.3113 21.5789 13.3569 21.3721 13.3704 21.1761C13.3771 21.0901 13.3744 21.0015 13.3717 20.9142C13.3704 20.8645 13.369 20.8135 13.369 20.7638Z"/>
  <path d="M17.4364 12.6841C17.3411 12.5821 17.2753 12.5472 17.1262 12.5485C17.0671 12.5485 17.0013 12.5525 16.9328 12.5579C16.7731 12.5673 16.5931 12.5781 16.4669 12.5405C16.4347 12.5311 16.3957 12.5096 16.3581 12.4908C16.3259 12.4733 16.295 12.4572 16.2682 12.4451C16.1661 12.4008 16.0708 12.3377 15.9808 12.2773C15.8505 12.1886 15.7982 12.0181 15.766 11.8798C15.7579 11.8435 15.7418 11.8033 15.7257 11.7643L15.7096 11.7254C15.7055 11.7119 15.7002 11.6958 15.6948 11.6784C15.6881 11.6542 15.68 11.63 15.6733 11.6112C15.637 11.5186 15.6142 11.43 15.586 11.3225C15.5457 11.1708 15.5471 10.8713 15.5739 10.7156C15.6062 10.533 15.727 10.3288 15.8385 10.1516C15.9768 9.93138 16.1205 9.82127 16.3541 9.68296C16.4736 9.61313 16.5609 9.57016 16.6133 9.55673C16.6321 9.55271 16.6562 9.55136 16.6791 9.55136C16.7301 9.54868 16.808 9.54599 16.8523 9.47885C16.8993 9.40903 16.8671 9.32443 16.8563 9.29757C16.8201 9.20089 16.7502 9.13644 16.6885 9.0787L16.6522 9.04378C16.6146 9.00753 16.5891 8.96321 16.5595 8.91353C16.5475 8.8907 16.534 8.86787 16.5193 8.84505C16.4897 8.79805 16.4508 8.75642 16.4132 8.71748C16.3796 8.68391 16.346 8.64765 16.3299 8.61946C16.3058 8.57514 16.287 8.4704 16.2829 8.40058C16.2735 8.22064 16.3595 8.09308 16.4682 7.9306L16.5166 7.85808C16.5434 7.8178 16.577 7.77483 16.6133 7.73186C16.714 7.60698 16.8268 7.46733 16.8389 7.30485C16.8577 7.04434 16.6321 6.87381 16.4669 6.74892L16.4159 6.71133C16.3716 6.67641 16.3232 6.64821 16.2735 6.61867C16.2171 6.5851 16.1621 6.55422 16.1231 6.51528C16.1043 6.49782 16.0896 6.47633 16.0748 6.45619C16.0493 6.42262 16.0251 6.38905 15.9929 6.35951C15.9231 6.2964 15.8344 6.23731 15.7566 6.18629L15.6317 6.10438C15.5699 6.06543 15.5162 6.03186 15.4625 5.98218C15.3336 5.86401 15.2369 5.83716 15.0959 5.79687C15.0744 5.79016 15.0569 5.77942 15.0355 5.76733C14.9912 5.74182 14.9267 5.70288 14.8354 5.72436C14.7884 5.73645 14.7494 5.77002 14.6944 5.82104C14.6836 5.83044 14.6742 5.8385 14.6675 5.84387C14.6071 5.89087 14.544 5.92713 14.4661 5.96204C14.2848 6.04261 14.0874 6.1084 13.8793 6.15809C13.8122 6.17554 13.741 6.18763 13.6712 6.20106C13.5154 6.22926 13.3556 6.2588 13.2052 6.32594C13.0078 6.41456 12.9957 6.61867 12.989 6.74087C12.985 6.80264 12.9743 6.85501 12.9622 6.91006C12.9568 6.94095 12.9501 6.97183 12.9447 7.0054C12.9367 7.05106 12.9393 7.09268 12.942 7.13028C12.9447 7.15848 12.9461 7.18399 12.9434 7.20145C12.938 7.22831 12.9286 7.25382 12.9192 7.28068C12.8923 7.35587 12.8588 7.44853 12.8897 7.55729C12.9514 7.77349 13.1958 7.75334 13.3274 7.74126C13.357 7.73992 13.3838 7.73723 13.4066 7.73723C13.4832 7.73455 13.5678 7.74126 13.6524 7.74529C13.8498 7.75603 14.0552 7.76677 14.2445 7.7238C14.3788 7.69292 14.5239 7.62443 14.6232 7.57475C14.6568 7.55864 14.6944 7.53447 14.7333 7.50895C14.783 7.47538 14.8448 7.4351 14.8797 7.42973C14.92 7.42167 14.9334 7.43241 14.9374 7.4351C14.9858 7.47404 14.9952 7.63652 15.0006 7.7332C15.0032 7.79766 15.0073 7.85674 15.0167 7.89837C15.0381 8.00042 15.0784 8.08636 15.1174 8.17096C15.1375 8.21527 15.1577 8.25958 15.1751 8.30658C15.1791 8.31732 15.1832 8.34284 15.1845 8.36432C15.1899 8.40058 15.1939 8.43952 15.21 8.47577C15.2329 8.52814 15.2664 8.56574 15.296 8.59931C15.3161 8.62214 15.3336 8.64094 15.3443 8.66108C15.3685 8.71077 15.3873 8.75911 15.4061 8.80879C15.4289 8.86787 15.4531 8.92696 15.4826 8.98336C15.5162 9.04781 15.4705 9.13241 15.4276 9.19283C15.3953 9.23715 15.3671 9.24923 15.3134 9.27206C15.2785 9.28683 15.2423 9.30294 15.2033 9.32712C15.1321 9.37143 15.0502 9.45065 14.9858 9.51377L14.9616 9.53659C14.9025 9.59299 14.8555 9.65744 14.8099 9.72056C14.7736 9.77024 14.736 9.82127 14.693 9.86558C14.6152 9.94481 14.5749 10.024 14.5359 10.1006C14.5225 10.1288 14.5064 10.1583 14.4889 10.1892C14.3654 10.4027 14.2674 10.6672 14.2043 10.9506C14.1989 10.9801 14.1908 11.0056 14.1828 11.0311C14.1667 11.0875 14.1492 11.1439 14.1465 11.2191C14.1412 11.3413 14.16 11.4501 14.1788 11.5548C14.1855 11.5938 14.1922 11.6314 14.1989 11.6703C14.219 11.814 14.2526 12.0006 14.3318 12.1658L14.36 12.2276C14.407 12.3296 14.4554 12.4357 14.5427 12.527L14.5883 12.5727C14.6299 12.6157 14.6689 12.6559 14.7078 12.7016C14.8488 12.8681 15.0986 13.0682 15.3161 13.1179C15.3457 13.1232 15.3698 13.1286 15.3913 13.1326C15.449 13.1434 15.4719 13.1474 15.531 13.1837C15.6021 13.2253 15.6746 13.2454 15.7391 13.2615C15.8035 13.279 15.8599 13.2938 15.9043 13.3273C15.9311 13.3475 15.9633 13.369 15.9983 13.3918C16.0949 13.4549 16.2144 13.5328 16.2144 13.6134C16.2144 13.7087 16.1473 13.8416 16.0936 13.9477L16.0708 13.9947C16.0211 14.0968 16.0036 14.2028 15.9862 14.3049C15.9768 14.364 15.9674 14.4231 15.9513 14.4795C15.9204 14.5855 15.8828 14.6876 15.8452 14.791C15.8264 14.8407 15.8076 14.8904 15.7901 14.94C15.774 14.987 15.7472 15.0287 15.719 15.0743C15.6773 15.1401 15.6303 15.2153 15.6075 15.3147L15.578 15.457C15.5538 15.5658 15.531 15.6759 15.5041 15.7806C15.5001 15.7981 15.4934 15.8129 15.488 15.8276C15.4759 15.8585 15.4598 15.8961 15.4544 15.9445C15.4517 15.974 15.4531 16.0022 15.4544 16.0304C15.4571 16.0506 15.4584 16.0694 15.4558 16.0747C15.4517 16.0814 15.4356 16.0989 15.4262 16.1096C15.4047 16.1298 15.3859 16.1513 15.3739 16.1701C15.3134 16.26 15.2879 16.3419 15.2637 16.4265C15.2584 16.448 15.2517 16.4722 15.2463 16.4964C15.2275 16.5729 15.206 16.6602 15.1671 16.7045C15.159 16.7152 15.0704 16.7931 14.634 16.44C14.5977 16.4104 14.5641 16.3782 14.5306 16.3473C14.4675 16.2882 14.4017 16.2265 14.3184 16.1768C14.1506 16.0761 13.9572 16.0425 13.7262 16.0707C13.643 16.0801 13.5678 16.1043 13.4926 16.1284C13.451 16.1405 13.408 16.1539 13.3664 16.1647C13.2791 16.1848 13.177 16.1808 13.0763 16.1768C12.9783 16.1727 12.8856 16.1727 12.7916 16.1754C12.6963 16.1768 12.6023 16.1781 12.5083 16.1741C12.4264 16.1701 12.3337 16.1445 12.2451 16.1204C12.2021 16.1083 12.1592 16.0962 12.1175 16.0868C11.8423 16.0224 11.3441 16.0694 11.1534 16.3769L11.1212 16.4292C11.0863 16.4883 11.0675 16.5205 11.0178 16.5608L10.9708 16.5984C10.8808 16.6709 10.7962 16.7394 10.7385 16.8697C10.6364 17.0979 10.5599 17.4833 10.6297 17.7908C10.6525 17.8915 10.7049 17.9855 10.7573 18.0755C10.7801 18.1158 10.8029 18.1561 10.8217 18.1964C10.8365 18.2259 10.8499 18.2635 10.8634 18.3011C10.8889 18.3709 10.9157 18.4421 10.952 18.4985C10.9775 18.5374 11.0138 18.5656 11.046 18.5911C11.0675 18.6086 11.0903 18.6261 11.0984 18.6395C11.1172 18.6663 11.1279 18.6905 11.1386 18.7147C11.148 18.7348 11.1561 18.755 11.1709 18.7818C11.2904 19.0155 11.3897 19.1686 11.5361 19.1659L11.6153 19.1632L11.6395 19.0866C11.669 18.99 11.661 18.8839 11.6556 18.7912C11.6529 18.7509 11.6489 18.7107 11.6502 18.6731C11.6516 18.6301 11.6596 18.6073 11.6704 18.5737C11.6784 18.5482 11.6878 18.5213 11.6946 18.4877C11.7214 18.3629 11.7174 18.1507 11.4354 18.0299C11.4421 18.0178 11.4488 18.0043 11.4542 17.9909C11.4743 17.9439 11.4811 17.9036 11.4851 17.8701C11.4878 17.8553 11.4891 17.8405 11.4945 17.8231C11.5119 17.7626 11.5428 17.6968 11.571 17.6337L11.5912 17.5921C11.6207 17.5263 11.6422 17.4592 11.6623 17.396C11.7013 17.2671 11.7322 17.1718 11.8302 17.0979C11.8302 17.102 11.8315 17.106 11.8315 17.1087C11.8423 17.1758 11.8517 17.1973 11.8799 17.2524C11.8973 17.2886 11.9054 17.3182 11.9148 17.3544C11.9215 17.3786 11.9269 17.4028 11.9363 17.4296C11.9873 17.5894 12.0893 17.6552 12.1645 17.6821C12.2975 17.7291 12.4626 17.6995 12.6184 17.5988C12.7245 17.5317 12.7648 17.4994 12.8306 17.384L12.848 17.3544C12.8897 17.2819 12.9259 17.2175 12.9622 17.1355L12.9796 17.0926C12.9877 17.0738 13.0011 17.0389 13.0132 17.016C13.0239 17.0348 13.0307 17.0697 13.036 17.0939C13.0401 17.1114 13.0427 17.1288 13.0468 17.1449C13.1246 17.4242 13.314 17.7156 13.6349 17.7049C13.7168 17.7022 13.745 17.6928 13.792 17.6592C13.8001 17.6539 13.8095 17.6472 13.8229 17.6391C13.8404 17.6284 13.8592 17.6216 13.8766 17.6136C13.9008 17.6028 13.9263 17.5921 13.9505 17.5787C14.031 17.533 14.0821 17.4672 14.1277 17.4095C14.1519 17.3813 14.1734 17.3517 14.2016 17.3276C14.2043 17.3947 14.1895 17.4457 14.1694 17.5156L14.1546 17.5693C14.1009 17.772 14.0458 18.0137 14.0458 18.2729C14.0458 18.3024 14.0431 18.3333 14.0418 18.3656C14.0364 18.4407 14.031 18.5253 14.0472 18.6005C14.0566 18.6449 14.0754 18.6757 14.0888 18.6986C14.0968 18.712 14.1009 18.7187 14.1022 18.7241C14.1062 18.7415 14.1022 18.7805 14.1009 18.8087C14.0982 18.8328 14.0968 18.8557 14.0968 18.8772C14.0968 18.9295 14.0942 18.9846 14.0928 19.0383C14.0888 19.2196 14.0821 19.4076 14.125 19.5862C14.1452 19.6788 14.16 19.7742 14.1734 19.8695C14.1801 19.9152 14.1868 19.9621 14.1935 20.0065C14.207 20.0857 14.2164 20.1649 14.2258 20.2455C14.2392 20.3583 14.2526 20.4711 14.2741 20.5839C14.309 20.7571 14.305 20.9478 14.3009 21.1317C14.2996 21.1948 14.2983 21.2566 14.2983 21.3184L14.2969 21.4272C14.2969 21.501 14.2969 21.5735 14.2983 21.6474C14.2983 21.7172 14.2848 21.779 14.2701 21.8501C14.262 21.8851 14.2553 21.92 14.2486 21.9562C14.2217 22.116 13.6779 22.6531 13.5906 22.8277C13.4912 23.0264 13.4402 23.7972 13.4966 23.8267C13.5288 23.8442 14.7011 22.7901 14.7736 22.6384C14.8542 22.4732 14.9482 22.2154 14.9737 21.9858C14.9804 21.9294 14.9898 21.8756 14.9992 21.8206C15.0073 21.7776 15.014 21.7347 15.0207 21.689C15.0247 21.6621 15.0341 21.6353 15.0435 21.6098C15.0569 21.5722 15.0704 21.5292 15.0771 21.4809C15.0811 21.4433 15.0811 21.4084 15.0798 21.3721C15.0784 21.3385 15.0771 21.309 15.0838 21.2808C15.1375 21.031 15.1321 20.7745 15.1281 20.5248C15.1268 20.4563 15.1254 20.3865 15.1254 20.318V19.3539C15.1254 19.2854 15.1214 19.2115 15.1174 19.1377C15.108 18.9832 15.0999 18.8248 15.1268 18.6999C15.1308 18.6825 15.1375 18.6663 15.1442 18.6502C15.1563 18.6207 15.1711 18.5844 15.1765 18.5388C15.1818 18.4998 15.1765 18.4622 15.1724 18.43C15.1697 18.4139 15.1671 18.387 15.1684 18.379C15.1751 18.3588 15.2167 18.3212 15.2449 18.2971C15.2624 18.281 15.2799 18.2662 15.2933 18.2514C15.3309 18.2152 15.3671 18.1749 15.4034 18.1359C15.4705 18.0634 15.539 17.9882 15.6102 17.9318C15.7364 17.8338 15.8908 17.7264 16.0466 17.6324C16.2695 17.4981 16.3568 17.3786 16.4669 17.1584C16.5099 17.0724 16.5179 17.0107 16.5273 16.9435C16.5287 16.9247 16.5314 16.9032 16.5354 16.8791C16.5502 16.7918 16.6025 16.6763 16.6482 16.5756C16.667 16.5326 16.6858 16.491 16.7019 16.4521L16.7274 16.3889C16.7704 16.2842 16.812 16.1795 16.8577 16.0788L16.8724 16.0479C16.9073 15.9727 16.9396 15.9015 16.9624 15.8129C16.9731 15.7672 16.9785 15.7229 16.9839 15.6773C16.9892 15.6276 16.9946 15.5833 17.0094 15.5443C17.1262 15.2449 17.2363 14.9213 17.2404 14.5855C17.2417 14.5171 17.2538 14.4526 17.2659 14.3841C17.2766 14.3224 17.2874 14.2619 17.2927 14.1961C17.3035 14.0216 17.3209 13.8833 17.3505 13.7382C17.3693 13.6469 17.4001 13.5637 17.4337 13.4764C17.4874 13.3354 17.5425 13.1904 17.5425 13.0118V12.9863C17.5425 12.8775 17.5425 12.7983 17.4364 12.6841Z"/>
  <path d="M15.7109 5.35915C15.7176 5.42764 15.9029 5.50955 15.9526 5.57266C15.9741 5.60086 15.9768 5.64383 15.9996 5.67471C16.0265 5.71231 16.0708 5.73648 16.1003 5.77139C16.1795 5.86673 16.2655 5.93925 16.3528 6.02653C16.4213 6.09501 16.4871 6.19572 16.5636 6.25346C16.7422 6.38909 16.9611 6.4898 17.1705 6.58111C17.2887 6.63213 17.3948 6.66302 17.5224 6.66705C17.6929 6.67376 17.6768 6.62676 17.6741 6.46697C17.6728 6.34477 17.7184 6.25346 17.7506 6.13932C17.7829 6.0225 17.7923 5.88822 17.8352 5.77408C17.8755 5.67068 17.9427 5.59012 17.9762 5.48269C18.0031 5.39675 18.0474 5.30678 18.089 5.22084C18.1723 5.05299 18.2931 4.93885 18.4153 4.79517C18.4825 4.71729 18.5348 4.62867 18.606 4.55347C18.7013 4.45141 18.7389 4.45142 18.8826 4.45276C19.1122 4.4541 19.2922 4.4541 19.4869 4.55347C19.699 4.66224 19.8615 4.79517 20.0039 4.99525C20.0603 5.07448 20.0885 5.15907 20.1395 5.23696C20.212 5.3511 20.3342 5.47866 20.4295 5.574C20.5034 5.64786 20.5772 5.70694 20.643 5.79154C20.6887 5.85062 20.7397 5.90433 20.7854 5.96476C20.8337 6.02921 20.878 6.05473 20.9358 6.11247C21.1171 6.29643 21.2715 6.46831 21.5508 6.46697C21.7844 6.46563 22.0194 6.46428 22.2531 6.46697C22.5391 6.46966 22.8238 6.424 23.0588 6.26689C23.3407 6.07756 23.62 5.91105 23.8644 5.66397C24.0283 5.49612 24.1894 5.32961 24.3452 5.1537C24.5211 4.95363 24.6218 4.71192 24.748 4.47961C24.8863 4.22582 24.9347 3.93041 24.9803 3.64707C25.0179 3.42014 25.0031 3.20797 25.0219 2.98104C25.0313 2.88033 25.0703 2.79036 25.0756 2.69099C25.081 2.60774 25.0756 2.52314 25.0756 2.43989C25.0743 2.16059 25.1119 1.89202 25.1643 1.61675C25.1898 1.4865 25.167 1.35356 25.1871 1.22062C25.2099 1.07023 25.2287 0.930573 25.226 0.777493C25.2247 0.553245 25.2757 0.252456 25.218 0.0349208C25.0475 0.186658 24.936 0.457905 24.8232 0.649926C24.6782 0.897003 24.5385 1.15214 24.4714 1.43278C24.3774 1.82488 24.2176 2.17536 24.0806 2.55134C23.9329 2.95418 23.8094 3.37448 23.5851 3.74376C23.5193 3.85252 23.424 3.93578 23.3636 4.04857C23.3045 4.15734 23.2414 4.23657 23.1621 4.32922C22.9943 4.52661 22.9178 4.80457 22.7365 4.98854C22.5498 5.17653 22.2934 5.23964 22.0288 5.2101C21.8005 5.18324 21.5051 5.05971 21.4232 4.83009C21.3816 4.71192 21.4017 4.57898 21.4004 4.45276C21.3977 4.29968 21.4648 4.23119 21.5266 4.10094C21.6609 3.8203 21.8623 3.55442 22.0436 3.29391C22.2705 2.96627 22.4169 2.6158 22.5324 2.23175C22.5941 2.0263 22.6156 1.83025 22.6613 1.62615C22.6868 1.50932 22.6586 1.36027 22.6586 1.23808C22.6586 1.16019 22.6747 1.0568 22.6479 0.982943C22.57 0.985628 22.5283 1.16959 22.4975 1.23002C22.4317 1.35356 22.3162 1.46904 22.2329 1.58049C22.0449 1.83697 21.8502 2.08136 21.6622 2.33784C21.5038 2.55806 21.3453 2.77425 21.1869 2.99313C21.105 3.10592 20.9935 3.16232 20.8968 3.25632C20.827 3.32211 20.7773 3.40268 20.6968 3.45908C20.5061 3.59068 20.3288 3.69676 20.0911 3.69676C19.8575 3.69676 19.6118 3.57053 19.3969 3.48325C19.3217 3.45237 19.2492 3.38791 19.1727 3.35837C19.1257 3.33823 19.0773 3.33151 19.0303 3.30869C19.0115 3.29929 18.9914 3.26303 18.9726 3.25497C18.943 3.24289 18.9054 3.25632 18.8813 3.24557C18.8155 3.21469 18.7282 3.15158 18.6678 3.10726C18.5993 3.05758 18.5107 2.97433 18.465 2.9045C18.3173 2.68294 18.3858 2.36469 18.3804 2.09882C18.3777 1.98736 18.3388 1.8974 18.3267 1.78863C18.3119 1.65838 18.328 1.51469 18.3294 1.38444C18.3307 1.25822 18.3039 1.16959 18.2837 1.05008C18.2649 0.941315 18.2931 0.839263 18.226 0.74258C18.2596 0.997714 18.1266 1.27702 18.0259 1.5053C17.9292 1.7282 17.8178 1.95782 17.7359 2.18744C17.6768 2.35261 17.5747 2.49092 17.4848 2.63997C17.3733 2.82259 17.2753 3.00118 17.1464 3.17306C16.8926 3.51414 16.7247 3.91563 16.4186 4.2124C16.2333 4.39099 16.0533 4.58167 15.9217 4.80592C15.8613 4.90931 15.7942 5.06642 15.7646 5.17922C15.7512 5.23024 15.6975 5.36452 15.7109 5.35915Z"/>
  <path d="M8.61013 5.68415C8.5967 5.60626 8.47451 5.57001 8.41945 5.51898C8.36708 5.47198 8.32949 5.4129 8.28517 5.35919C8.12806 5.16985 8.02601 4.98454 7.91724 4.76835C7.69971 4.3306 7.59363 3.8257 7.46472 3.36512C7.40832 3.16504 7.26867 2.9945 7.20824 2.7998C7.18944 2.73668 7.19884 2.69371 7.17064 2.63732C7.14781 2.58897 7.10887 2.55272 7.08605 2.50169C7.05113 2.42247 7.00413 2.33653 6.97191 2.25999C6.93565 2.1727 6.92222 2.08274 6.87791 1.9874C6.84434 1.91489 6.81077 1.84103 6.79466 1.76315C6.77854 1.67989 6.8054 1.5859 6.796 1.49996C6.78257 1.39253 6.74766 1.30794 6.70603 1.20723C6.68186 1.14411 6.6926 1.0716 6.60801 1.05817C6.55564 1.31465 6.36899 1.54293 6.34482 1.80612C6.33139 1.9498 6.27768 2.08811 6.24545 2.22373C6.21591 2.34861 6.19442 2.42515 6.19308 2.56212C6.19308 2.68029 6.22396 2.73668 6.24545 2.83739C6.26693 2.93542 6.24276 3.06567 6.24411 3.16638C6.24545 3.35169 6.18905 3.56385 6.04403 3.69545C5.89632 3.83107 5.63179 3.9291 5.43842 3.97341C5.32831 3.99892 5.22357 4.05935 5.11212 4.07412C4.95367 4.0956 4.79253 4.12515 4.63542 4.16677C4.43937 4.22049 4.14395 4.27823 3.92642 4.22854C3.86062 4.21243 3.83511 4.16006 3.77737 4.1332C3.71828 4.10635 3.66323 4.1144 3.60415 4.07412C3.52761 4.02041 3.44972 3.96535 3.37318 3.91164C3.28187 3.84853 3.20802 3.73708 3.14356 3.64711C3.02808 3.48731 2.94348 3.35438 2.8938 3.16101C2.84412 2.96765 2.84546 2.75951 2.80786 2.56078C2.75952 2.30296 2.71521 2.01828 2.71924 1.75509C2.72058 1.63692 2.71924 1.5201 2.71924 1.40193C2.72058 1.35762 2.74609 1.21528 2.71789 1.17768C2.64135 1.07697 2.54467 1.20723 2.52319 1.28377C2.43322 1.61007 2.36742 1.9216 2.36742 2.27342C2.36742 2.61583 2.34593 2.9663 2.36608 3.30872C2.37279 3.43092 2.43187 3.53297 2.46142 3.64979C2.49364 3.77467 2.51916 3.8915 2.56213 4.00161C2.64941 4.22183 2.64001 4.44205 2.45604 4.61393C2.32042 4.73881 2.04515 4.67838 1.89341 4.62333C1.80881 4.5911 1.68796 4.4971 1.62485 4.42728C1.50534 4.293 1.39254 4.15737 1.28512 3.99758C1.13204 3.77065 1.02058 3.52357 0.905102 3.27649C0.793649 3.03747 0.770821 2.78771 0.687567 2.54198C0.598942 2.28416 0.545229 2.01828 0.494203 1.75509C0.455261 1.56038 0.37335 1.36702 0.351865 1.17366C0.33038 0.978949 0.303524 0.801698 0.303524 0.597591C0.303524 0.392141 0.282039 0.198777 0.243098 4.19617e-05C0.138359 0.00541319 0.0739044 0.471367 0.0631619 0.547907C-0.00800686 1.00312 0.00407786 1.45162 4.94398e-05 1.9122C-0.00397898 2.3043 0.145073 2.66954 0.252498 3.0415C0.358579 3.40674 0.445862 3.76259 0.581485 4.11978C0.776192 4.63139 1.05952 5.11077 1.48922 5.4599C1.78598 5.7016 2.07737 5.98762 2.41845 6.15682C2.77698 6.33541 3.1825 6.28841 3.5746 6.28841C3.65517 6.28841 3.74917 6.30318 3.82839 6.2911C3.92508 6.27632 4.00967 6.21053 4.10636 6.19173C4.27421 6.1595 4.43803 6.12324 4.58037 6.02522C4.71599 5.93122 4.85698 5.86811 4.95904 5.73652C5.03021 5.64655 5.12823 5.56732 5.18866 5.47198C5.25848 5.36456 5.27057 5.29473 5.37665 5.21685C5.48945 5.13494 5.59687 5.03691 5.70967 4.97246C5.84798 4.89323 6.13802 4.89592 6.29782 4.9268C6.3663 4.93889 6.50058 4.97649 6.55027 5.02617C6.61875 5.09465 6.62143 5.23028 6.64695 5.3189C6.67783 5.42901 6.68992 5.52167 6.69529 5.63446C6.70066 5.72443 6.73692 5.79694 6.74766 5.88557C6.75706 5.97419 6.796 6.04805 6.79869 6.13667C6.80406 6.24275 6.8148 6.31392 6.85374 6.41463C6.93699 6.62948 7.07127 6.6268 7.23644 6.73422C7.29418 6.66305 7.37341 6.66574 7.45532 6.64023C7.5332 6.61605 7.59094 6.57711 7.6648 6.53952C7.8313 6.45492 7.9723 6.35018 8.13344 6.25753C8.38857 6.11116 8.63833 5.96479 8.61013 5.68415Z"/>
</svg>
