<svg width="24" height="24" viewBox="0 0 24 24" fill="#000000" xmlns="http://www.w3.org/2000/svg">
  <path d="M12.7325 0.210295C12.7825 0.210295 12.8033 0.204048 12.8054 0.199883C12.7596 0.201965 12.7221 0.205089 12.7325 0.210295Z"/>
  <path d="M11.7006 0.114531C11.6756 0.107243 11.6517 0.102036 11.6361 0.10516C11.659 0.108284 11.6798 0.111408 11.7006 0.114531Z"/>
  <path d="M18.6011 2.24699C18.5844 2.26157 18.6833 2.28448 18.7635 2.31259L18.6011 2.24699Z"/>
  <path d="M20.794 4.37327L20.8242 4.417C20.8377 4.42637 20.8523 4.43366 20.8668 4.43991L20.794 4.37327Z"/>
  <path d="M21.9591 6.13925C21.9914 6.15071 22.0205 6.17466 22.0497 6.20798C22.057 6.20277 22.0622 6.19132 22.0632 6.16945C22.0361 6.12884 21.9872 6.14238 21.9591 6.13925Z"/>
  <path d="M23.3169 9.37857L23.3492 9.43167C23.3408 9.41813 23.3263 9.39523 23.3169 9.37857Z"/>
  <path d="M23.4325 11.9807L23.4439 12.014C23.4544 12.0161 23.4637 12.0172 23.4721 12.0151L23.4325 11.9807Z"/>
  <path d="M9.61707 0.54663C9.62019 0.545588 9.62227 0.544547 9.6254 0.543506C9.67017 0.512268 9.6431 0.527887 9.61707 0.54663Z"/>
  <path d="M0.679921 14.4349C0.671591 14.4214 0.66222 14.4027 0.65389 14.3985C0.641394 14.3933 0.618487 14.3641 0.607033 14.3631C0.600785 14.3621 0.59662 14.3652 0.595579 14.3756C0.593497 14.385 0.59662 14.41 0.593497 14.4131C0.592455 14.4183 0.589332 14.4141 0.591414 14.4381C0.591414 14.4235 0.592455 14.4183 0.594538 14.4172C0.59662 14.4152 0.598703 14.4131 0.600785 14.412C0.603909 14.4079 0.607033 14.4068 0.612239 14.4089C0.622652 14.3954 0.647642 14.4891 0.665343 14.5255C0.684086 14.5661 0.697623 14.5724 0.696581 14.4474C0.694499 14.4537 0.688251 14.4474 0.679921 14.4349Z"/>
  <path d="M5.28957 2.03666C5.30206 2.03978 5.32185 2.03874 5.34163 2.03562C5.33851 2.03249 5.32601 2.03145 5.28957 2.03666Z"/>
  <path d="M8.54562 0.701781L8.4592 0.697616C8.49356 0.70074 8.52167 0.701781 8.54562 0.701781Z"/>
  <path d="M3.83389 3.42361C3.8391 3.42049 3.84431 3.41632 3.84951 3.41008C3.8568 3.38717 3.87138 3.3601 3.90678 3.31949C3.87763 3.35697 3.86409 3.36634 3.83389 3.42361Z"/>
  <path d="M2.72704 4.72104C2.73745 4.71687 2.7489 4.71062 2.75931 4.70542C2.77285 4.69292 2.78951 4.6773 2.80305 4.66481L2.72704 4.72104Z"/>
  <path d="M23.2024 9.2474C23.2159 9.27135 23.2294 9.29321 23.244 9.32029C23.2471 9.33174 23.2471 9.33799 23.2471 9.34528L23.2024 9.2474ZM18.5406 13.7165C18.5406 13.9081 18.5344 14.1122 18.498 14.3006C18.4688 14.4485 18.4521 14.5849 18.4053 14.7296C18.3845 14.7931 18.3813 14.8587 18.3647 14.9233C18.3407 15.016 18.2845 15.0962 18.2564 15.1888C18.221 15.3002 18.2106 15.4158 18.1793 15.5283C18.1491 15.6376 18.0981 15.7636 18.0481 15.8656C18.0117 15.9417 17.9627 15.9906 17.9003 16.0458C17.7243 16.1999 17.6275 16.4217 17.4494 16.5768C17.2516 16.7497 17.1693 17.0079 16.9725 17.1787C16.7976 17.3317 16.6091 17.4671 16.4238 17.6077C16.3311 17.6774 16.2395 17.7482 16.151 17.8232C16.0552 17.9024 15.9708 18.0002 15.8709 18.07C15.6334 18.2376 15.344 18.3865 15.1899 18.6448C15.1284 18.7489 15.0472 18.8405 14.9754 18.9374C14.8785 19.0675 14.7879 19.205 14.688 19.333C14.6182 19.4215 14.538 19.5028 14.4693 19.5913C14.3964 19.685 14.3506 19.7902 14.2892 19.8891C14.2486 19.9536 14.1944 19.989 14.1392 20.038C14.0611 20.1088 13.9987 20.2025 13.9466 20.2931C13.8289 20.4993 13.703 20.6731 13.4926 20.7929C13.3916 20.8502 13.2885 20.9001 13.199 20.9741C13.1105 21.0459 13.0105 21.1417 12.8981 21.174C12.8543 21.1865 12.8095 21.1823 12.7648 21.1834C12.6575 21.1834 12.5555 21.2208 12.4503 21.2396C12.3306 21.2625 12.2098 21.275 12.0911 21.3062C11.7985 21.3822 11.5309 21.4551 11.2383 21.351C11.1175 21.3083 11.003 21.3041 10.877 21.326C10.7166 21.3541 10.5636 21.3437 10.4022 21.3385C10.2251 21.3333 10.0086 21.3104 9.84092 21.2542C9.73679 21.2198 9.64308 21.1563 9.54832 21.1021C9.51292 21.0813 9.42545 21.0438 9.41088 21.0043C9.63995 20.9512 9.88049 20.9189 10.1179 20.8897C10.4761 20.847 10.8332 20.7762 11.1946 20.7721C11.4455 20.7689 11.6642 20.6325 11.8901 20.5378C12.09 20.4545 12.2514 20.3087 12.443 20.2098C12.6721 20.0921 12.8731 20.0005 13.0678 19.8287C13.1563 19.7506 13.2354 19.6621 13.325 19.584C13.376 19.5455 13.4249 19.5038 13.4718 19.4601C13.5041 19.4257 13.5114 19.4195 13.4926 19.4424C13.7467 19.1727 13.9903 18.8853 14.2579 18.6281C14.334 18.5552 14.4308 18.5136 14.5068 18.4417C14.5943 18.3615 14.6422 18.247 14.7151 18.1554C14.8369 18.0023 14.9618 17.8545 15.0785 17.6972C15.1815 17.5587 15.2888 17.4202 15.42 17.3047C15.622 17.1256 15.7834 16.9152 15.9417 16.6976C16.1197 16.4519 16.3113 16.2249 16.5175 16.001C16.6674 15.8365 16.8496 15.6886 16.9808 15.5106C17.0673 15.3929 17.1599 15.2898 17.263 15.1836C17.4119 15.0295 17.5556 14.8702 17.691 14.7036C17.7795 14.5953 17.8878 14.4839 17.9294 14.3475C17.968 14.2205 17.9742 14.0861 18.0169 13.9581C18.0721 13.7967 18.12 13.6249 18.1877 13.4687C18.1908 13.4635 18.1929 13.4583 18.1949 13.4541C18.2241 13.3916 18.2658 13.3354 18.2876 13.2708C18.3105 13.2063 18.3147 13.1365 18.3314 13.0709C18.3907 12.8408 18.4646 12.6138 18.5136 12.3805C18.5063 12.5763 18.5115 12.7721 18.5115 12.9678C18.5115 13.0147 18.5125 13.0615 18.5115 13.1073C18.5115 13.1605 18.5271 13.1959 18.5344 13.2385C18.5583 13.3916 18.5396 13.5613 18.5406 13.7165ZM9.28905 18.1346C9.10787 18.1273 8.91732 18.0752 8.74343 18.0346C8.61744 18.0044 8.40502 18.0533 8.44459 17.8503C8.46021 17.767 8.52893 17.6701 8.57787 17.6045C8.65805 17.4973 8.81632 17.4275 8.94023 17.3953C8.99229 17.3817 9.04435 17.3703 9.09017 17.3411C9.15056 17.3036 9.17659 17.2693 9.2474 17.2536C9.33799 17.2328 9.414 17.1964 9.50876 17.1974C9.63579 17.1985 9.75762 17.2068 9.88153 17.2318C10.0065 17.2589 10.1377 17.2849 10.2668 17.2516C10.4063 17.2151 10.5708 17.2464 10.7072 17.287C10.8072 17.3182 10.9134 17.3213 11.0103 17.3526C11.0727 17.3713 11.1279 17.4202 11.1966 17.414C11.3278 17.4005 11.4268 17.2911 11.5559 17.263C11.6433 17.2443 11.7329 17.2359 11.8224 17.2318C11.8755 17.2307 11.9318 17.2359 11.9817 17.2234C12.0192 17.2141 12.0494 17.2068 12.09 17.2057C12.1327 17.2057 12.1879 17.1964 12.2306 17.212C12.2671 17.2255 12.29 17.2578 12.3181 17.2818C12.3972 17.3494 12.4868 17.3546 12.5773 17.3973C12.6096 17.414 12.6398 17.4379 12.6742 17.4515C12.7117 17.4661 12.7523 17.4702 12.7908 17.4806C12.8522 17.4973 12.9303 17.5035 12.9876 17.5327C13.0511 17.566 13.1042 17.5931 13.174 17.6181C13.2011 17.6285 13.225 17.642 13.25 17.6566C13.3291 17.7035 13.3906 17.7732 13.4697 17.8201C13.5301 17.8555 13.6176 17.8992 13.6551 17.9596C13.375 18.019 13.0844 18.0471 12.7971 18.0481C12.6763 18.0481 12.5638 18.0211 12.4451 18.019C12.2795 18.0169 12.1244 18.0523 11.9682 18.1044C11.8047 18.1575 11.6506 18.2002 11.4819 18.2335C11.3341 18.2626 11.1748 18.247 11.0248 18.247C10.8676 18.247 10.7083 18.2564 10.5511 18.248C10.474 18.2439 10.4001 18.2199 10.323 18.2168C10.2293 18.2137 10.147 18.2179 10.0544 18.1981C9.99398 18.1856 9.93151 18.1647 9.86903 18.1606C9.8128 18.1564 9.75762 18.1647 9.70139 18.1554C9.55978 18.1335 9.43066 18.1408 9.28905 18.1346ZM8.19573 16.6174C8.11867 16.8049 8.01559 16.9756 7.91979 17.1526C7.7938 17.3838 7.70633 17.642 7.64282 17.8961C7.5918 18.1023 7.53973 18.3126 7.53765 18.525C7.53557 18.7572 7.51474 19.0061 7.56264 19.2352C7.60325 19.4299 7.65323 19.6225 7.73341 19.8037C7.79484 19.9443 7.85732 20.089 7.93854 20.2192C7.98331 20.292 8.0437 20.3566 8.08015 20.4337C8.01455 20.3899 7.94062 20.391 7.86877 20.3691C7.80421 20.3493 7.75007 20.3056 7.6928 20.2702C7.5137 20.1598 7.35231 20.0151 7.19716 19.8735C7.10032 19.786 6.97433 19.7443 6.88062 19.6475C6.81293 19.5767 6.74733 19.5121 6.67132 19.4507C6.59427 19.3893 6.54845 19.3278 6.49327 19.2456C6.3881 19.0894 6.2392 18.954 6.11737 18.8093C6.05698 18.7364 5.99867 18.6646 5.94244 18.5885C5.87996 18.5042 5.8102 18.4428 5.74148 18.3678C5.66963 18.2876 5.62381 18.1762 5.57383 18.0835C5.51969 17.9836 5.4593 17.8909 5.41244 17.7878C5.28645 17.5067 5.16983 17.2276 5.06882 16.9361C4.91368 16.4946 4.79081 16.0416 4.64295 15.598C4.48155 15.1128 4.30766 14.6193 4.19208 14.1205C4.13585 13.8768 4.09733 13.6353 4.06921 13.3864C4.0411 13.1344 3.99633 12.8814 3.99112 12.6273C3.98383 12.1796 4.03277 11.7339 4.08379 11.2893C4.10982 11.0654 4.11711 10.8437 4.12024 10.6187C4.12544 10.3241 4.14106 10.0304 4.14627 9.73679C4.14939 9.52229 4.1421 9.30779 4.1598 9.09329C4.16917 8.99229 4.19521 8.89233 4.20354 8.79029C4.20666 8.76217 4.20145 8.73302 4.2025 8.7049C4.20562 8.60182 4.24519 8.50186 4.25768 8.39981C4.27747 8.23425 4.25456 8.04578 4.30766 7.88543C4.34827 7.7636 4.41595 7.65531 4.45136 7.53036C4.48988 7.39812 4.53778 7.27213 4.59297 7.14718C4.75332 6.78586 4.96678 6.46099 5.21668 6.16006C5.477 5.84664 5.679 5.48533 5.88309 5.13338C5.94452 5.02821 5.99971 4.91367 6.11633 4.86473C6.24649 4.80955 6.34124 4.70022 6.44016 4.60026C6.67861 4.35868 6.92643 4.12544 7.18154 3.90261C7.27838 3.81931 7.37938 3.72664 7.48455 3.65271C7.57514 3.58815 7.67822 3.559 7.77506 3.50797C7.88439 3.45175 7.97915 3.37365 8.09056 3.32263C8.17594 3.28306 8.253 3.28306 8.34359 3.27057C8.57579 3.23725 8.7653 3.08522 8.99437 3.04357C9.25781 2.99463 9.51084 2.91029 9.77219 2.85198C10.069 2.78638 10.372 2.71245 10.6729 2.67809C10.8259 2.66039 10.9759 2.64269 11.1248 2.6052C11.3487 2.55001 11.5371 2.49379 11.7579 2.57813C11.8349 2.60624 11.9037 2.61249 11.9849 2.59062C12.0838 2.56355 12.191 2.51461 12.2858 2.47088C12.3878 2.42506 12.5222 2.4084 12.6336 2.39487C12.8096 2.37508 13.0032 2.39591 13.1802 2.39695C13.2833 2.39695 13.3864 2.39174 13.4895 2.40111C13.6196 2.41361 13.7498 2.44485 13.882 2.44693C14.0809 2.45109 14.2621 2.50212 14.4506 2.5698C14.5745 2.61353 14.6932 2.66872 14.8161 2.71349C14.841 2.72286 14.865 2.73119 14.891 2.73328C14.9358 2.7364 14.9806 2.72286 15.0253 2.71974C15.168 2.71141 15.3232 2.71662 15.4585 2.77076C15.547 2.80616 15.6366 2.84261 15.7282 2.87072C15.8188 2.89884 15.8636 2.95298 15.9396 3.00713C15.9864 3.04045 16.0343 3.05398 16.076 3.09459C16.1051 3.12375 16.1301 3.15707 16.1624 3.1831C16.2072 3.13104 16.2447 3.18206 16.2759 3.21642C16.3103 3.25287 16.355 3.27681 16.3863 3.31742C16.429 3.37157 16.4383 3.43196 16.4717 3.49131C16.5029 3.54963 16.556 3.57774 16.5164 3.64542C16.4842 3.69957 16.3779 3.74746 16.33 3.78391C16.1582 3.91302 15.9906 4.07442 15.8417 4.22748C15.0139 5.07715 14.1174 5.85081 13.2438 6.65362C12.9845 6.89103 12.7731 7.18779 12.5003 7.40333C12.4545 7.43977 12.4337 7.50745 12.366 7.5012C12.3379 7.59804 12.2879 7.65531 12.2181 7.72508C12.1619 7.78026 12.1129 7.8417 12.065 7.90417C12.0338 8.02079 11.9963 8.13533 11.9557 8.24779C11.8964 8.4071 11.8516 8.57162 11.8131 8.73718C11.7964 8.8059 11.7954 8.9194 11.761 8.97875C11.7516 8.99437 11.7589 9.00583 11.7433 9.01728C11.7266 9.02977 11.6964 9.0204 11.6829 9.03394C11.6652 9.05164 11.6652 9.12245 11.661 9.14744C11.6361 9.30363 11.6288 9.46294 11.6006 9.61913C11.5382 9.97524 11.4809 10.3324 11.4372 10.6916C11.4007 10.9915 11.3518 11.2851 11.2695 11.5767C11.2133 11.7766 11.1342 11.9536 11.0477 12.1411C10.9582 12.3337 10.8801 12.5222 10.7656 12.7013C10.6666 12.8554 10.5833 13.0001 10.5104 13.1667C10.4584 13.2833 10.4126 13.3906 10.3772 13.5134C10.3511 13.6061 10.2126 13.7779 10.2564 13.8768C10.2678 13.9029 10.2772 13.9081 10.3043 13.9143C10.3678 13.9289 10.4573 13.8852 10.5219 13.8789C10.7635 13.8529 10.9426 14.1163 11.1165 14.2496C11.2362 14.3402 11.4205 14.3589 11.5652 14.3631C11.6236 14.3641 11.6829 14.3652 11.7412 14.3642C11.8422 14.361 11.8964 14.3152 11.9828 14.2756C12.0505 14.2454 12.1348 14.2496 12.1983 14.2152C12.2317 14.1975 12.2535 14.1684 12.2827 14.1465C12.3139 14.1247 12.3545 14.1132 12.3816 14.0861C12.4128 14.0559 12.4149 14.0164 12.4555 13.9966C12.4982 13.9758 12.5347 13.9945 12.5721 14.0122C12.67 14.0601 12.7783 14.1215 12.8397 14.2132C12.897 14.2985 12.9085 14.4058 12.9116 14.5068C12.9126 14.5141 12.9126 14.5203 12.9126 14.5276C12.9168 14.6713 12.8314 14.8889 12.6742 14.9181C12.6305 14.9264 12.5846 14.9233 12.5399 14.9327C12.494 14.942 12.4545 14.9702 12.4087 14.9806C12.3066 15.0014 12.1838 14.9868 12.0807 14.9858C11.9693 14.9858 11.863 14.9931 11.7548 15.0201C11.6694 15.042 11.5965 15.0993 11.5163 15.1336C11.4278 15.1711 11.3476 15.2221 11.2539 15.2482C11.2071 15.2617 11.1519 15.2555 11.1092 15.268C11.0529 15.2846 11.0342 15.3346 10.9748 15.3304C10.8707 15.3242 10.7229 15.2149 10.6323 15.1513C10.5375 15.0847 10.4344 15.0045 10.3189 14.9868C10.1762 14.965 10.0356 14.8983 9.89298 14.9004C9.80552 14.9014 9.71493 14.8869 9.63475 14.9264C9.56394 14.9629 9.51709 14.9983 9.43899 15.0201C9.35881 15.0431 9.29738 15.0857 9.23282 15.1357C9.1641 15.1878 9.08809 15.2024 9.02873 15.269C8.95897 15.3492 8.89025 15.4023 8.79966 15.4575C8.78612 15.4658 8.77154 15.471 8.75697 15.4762C8.74759 15.4939 8.73822 15.5116 8.72885 15.5283C8.60494 15.7397 8.50811 15.9635 8.38732 16.1749C8.30714 16.3165 8.25716 16.4675 8.19573 16.6174ZM16.7372 9.2474C16.7809 9.28488 16.8142 9.33278 16.859 9.36818C16.8996 9.39942 16.9444 9.42337 16.9829 9.45565C17.011 9.4796 17.0818 9.51396 17.0808 9.55873C17.0787 9.59934 16.9517 9.66807 16.9184 9.68785C16.8944 9.70243 16.8736 9.71284 16.8455 9.71701C16.7976 9.72325 16.7507 9.70139 16.7039 9.71388C16.6362 9.73158 16.6164 9.79198 16.58 9.84404C16.5393 9.90339 16.4737 9.90443 16.4269 9.95441C16.3925 9.98877 16.353 10.046 16.3269 10.0877C16.2936 10.1408 16.2686 10.1949 16.2436 10.2512C16.1957 10.3636 16.0354 10.3355 15.925 10.3355C15.7761 10.3355 15.6262 10.3355 15.4762 10.3355C15.4137 10.3355 15.3658 10.3428 15.3075 10.3574C15.2409 10.374 15.2034 10.3959 15.1378 10.4209C15.0837 10.4396 15.0233 10.4698 14.967 10.4782C14.9348 10.4844 14.9014 10.474 14.8681 10.4792C14.8233 10.4875 14.7963 10.5042 14.7473 10.5063C14.6036 10.5104 14.4599 10.5042 14.3163 10.5052C14.208 10.5063 14.0684 10.4167 13.9664 10.4657C13.9289 10.4844 13.9039 10.5177 13.8633 10.5323C13.7987 10.5552 13.7207 10.549 13.653 10.5552C13.5478 10.5646 13.4489 10.5219 13.3541 10.4782C13.3198 10.4615 13.2844 10.4271 13.2479 10.4178C13.2198 10.4105 13.2021 10.423 13.1729 10.4063C13.148 10.3917 13.1105 10.3397 13.0917 10.322C13.0563 10.2876 13.0376 10.2814 13.0011 10.2616C12.9637 10.2408 12.9012 10.2002 12.8689 10.172C12.8408 10.147 12.8137 10.1012 12.845 10.0783C12.8647 10.0627 12.8897 10.0658 12.9126 10.044C12.9376 10.019 12.9428 9.99086 12.9501 10.0023C12.9949 9.94088 13.0605 9.88881 13.1115 9.83259C13.1782 9.75657 13.2427 9.67431 13.3198 9.60767C13.3864 9.5504 13.4583 9.50251 13.5218 9.44107C13.5915 9.37443 13.6498 9.29217 13.7269 9.23386C13.78 9.19325 13.8435 9.16201 13.9008 9.12661C14.0351 9.04331 14.1507 9.01103 14.3027 8.98396C14.4912 8.9496 14.6661 8.97459 14.8546 8.96522C15.0129 8.95793 15.1722 8.94231 15.3304 8.93918C15.5116 8.9371 15.6907 8.98396 15.8719 8.98396C15.9614 8.98396 16.0479 9.00583 16.1353 9.0204C16.203 9.03186 16.2769 9.03706 16.3436 9.05581C16.4258 9.07976 16.5029 9.12349 16.5789 9.16097C16.632 9.18805 16.6914 9.20887 16.7372 9.2474ZM17.9961 22.3777C18.0315 22.334 18.095 22.2548 18.121 22.2205C18.121 22.2173 18.1221 22.2121 18.1231 22.209C18.1241 22.2215 18.1241 22.234 18.1189 22.2507C18.1054 22.2704 18.0679 22.3152 18.0492 22.336C18.0273 22.361 18.0117 22.3756 18.0002 22.3839C17.9857 22.386 17.9763 22.385 17.97 22.3839C17.9763 22.3829 17.9836 22.3808 17.9961 22.3777ZM23.8115 13.1209L23.7823 13.0438L23.724 12.8908C23.6491 12.5399 23.8417 12.9178 23.7105 12.4107C23.6491 12.2254 23.4898 11.8964 23.4918 11.9713C23.5106 12.0473 23.5283 12.1692 23.5033 12.1827L23.4439 12.014C23.4387 12.013 23.4325 12.0119 23.4273 12.0109L23.42 11.9838L23.6678 10.7562L23.4481 9.93359L23.4668 9.95025L23.4377 9.89298L23.3669 9.63058C23.3783 9.63579 23.394 9.65765 23.4117 9.70868C23.4044 9.63162 23.394 9.59414 23.3804 9.55665C23.3492 9.50355 23.3252 9.48481 23.3034 9.37756C23.3002 9.35777 23.3075 9.36399 23.3169 9.37857L23.2169 9.212C23.2461 9.24011 23.2492 9.16202 23.2888 9.27447C23.1815 8.94231 23.0066 8.78924 23.0004 8.64867L23.017 8.67262C22.8504 8.354 22.8973 8.50498 22.841 8.46541L22.8379 8.45708L22.8109 8.24675L22.8764 8.07077L22.8192 8.03017C22.814 7.98123 22.8056 7.88335 22.8286 7.89792C22.7702 7.71987 22.8109 7.93229 22.763 7.83024C22.7754 7.64386 22.7109 7.37834 22.7078 7.21173C22.6807 7.16488 22.664 7.12531 22.6744 7.10344C22.5891 7.05555 22.7921 7.31378 22.612 7.11698C22.6401 7.00557 22.4245 6.88999 22.3267 6.69006C22.4037 6.71714 22.5078 6.89727 22.41 6.69735C22.2694 6.638 22.1715 6.34646 22.0497 6.20798C21.9935 6.23817 21.7956 5.89871 21.5988 5.6613C21.628 5.66442 21.2844 5.17295 21.1459 4.91992L21.1594 4.92096C21.0772 4.91055 20.921 4.65857 20.7887 4.4878C20.8241 4.47322 20.8585 4.49717 20.9376 4.58464L20.8242 4.417C20.7804 4.38889 20.7367 4.34202 20.6565 4.2379L20.7242 4.25352L20.6659 4.1723L20.5836 4.10357L20.5107 4.04526C20.4618 4.00674 20.4107 3.96613 20.3597 3.92552C20.2566 3.84118 20.1515 3.7485 20.0463 3.63292C20.0161 3.64646 20.0827 3.76725 20.038 3.77454L19.8995 3.6475C19.9151 3.64126 19.938 3.64542 19.9776 3.67457C19.9526 3.65583 19.8818 3.61314 19.8422 3.56316L19.9765 3.63292C19.8724 3.51318 19.8932 3.60169 19.8027 3.51318C19.8276 3.49027 19.7506 3.433 19.7818 3.42467C19.8079 3.44446 19.8537 3.51006 19.8984 3.53296C19.8485 3.48402 19.7829 3.41426 19.7527 3.37365C19.7318 3.33096 19.6996 3.26953 19.6954 3.24349C19.6871 3.26536 19.659 3.27161 19.5923 3.19039C19.4288 2.97693 19.5694 3.09251 19.4882 2.95611C19.4309 2.91862 19.3466 2.7666 19.3039 2.79263C19.256 2.72911 19.2664 2.70412 19.2581 2.6708C19.231 2.64477 19.1883 2.59375 19.1435 2.53856C19.0904 2.47296 19.0332 2.40111 18.9863 2.3428C18.8228 2.3022 18.7822 2.30011 18.8374 2.34176L18.8759 2.35634C18.8676 2.3553 18.8593 2.35322 18.8489 2.35113C18.6593 2.31781 18.4698 2.26158 18.2814 2.20015L18.0002 2.1054C17.9107 2.07624 17.8232 2.04709 17.7358 2.01897L17.6618 1.95546L17.5733 1.88465L17.5848 1.87216C17.3661 1.71076 17.1193 1.48897 16.9486 1.39005C16.8871 1.33799 16.8246 1.24427 16.8632 1.25156C16.8382 1.23282 16.8163 1.21512 16.8007 1.20471C16.7622 1.18805 16.7299 1.17555 16.6987 1.16306C16.6705 1.1516 16.6445 1.14015 16.6154 1.12661C16.557 1.0985 16.4883 1.06101 16.3779 0.992289C16.5779 1.05893 16.3248 0.937102 16.5789 1.0683C16.3436 0.93502 16.3009 0.883998 16.0218 0.796533C16.128 0.800698 15.8677 0.659085 15.7407 0.610146L15.9 0.723645C15.8625 0.706985 15.8271 0.690324 15.7928 0.674705C15.7532 0.654921 15.7147 0.635137 15.6772 0.616394C15.6137 0.607023 15.5533 0.597652 15.4918 0.587239L15.5668 0.540382C15.3002 0.470618 15.0514 0.467495 14.8181 0.460206C14.7015 0.457082 14.5901 0.452917 14.4818 0.438339C14.3746 0.423762 14.2725 0.389399 14.1746 0.342542C14.0257 0.352955 14.4631 0.426886 14.3277 0.447712C14.0809 0.391484 13.8373 0.260285 13.7592 0.245707C13.6228 0.205098 13.5436 0.201973 13.4718 0.204056C13.4353 0.206138 13.402 0.208221 13.3645 0.210304C13.3458 0.211345 13.326 0.211345 13.3052 0.210304C13.2823 0.209262 13.2656 0.209262 13.224 0.203015C13.199 0.203015 13.1719 0.204056 13.1407 0.204056C13.1136 0.204056 13.0834 0.201973 13.0501 0.199891C13.0969 0.220716 13.1396 0.274861 12.8679 0.29048C12.6148 0.279026 12.5576 0.200933 12.7179 0.187397C12.7783 0.186355 12.8075 0.192594 12.8054 0.199883C12.8877 0.193635 12.9949 0.187396 12.8949 0.163447L12.8616 0.18323C12.7356 0.160322 12.3868 0.157199 12.4701 0.12492C12.2775 0.14158 12.3868 0.157198 12.5295 0.169693C12.3191 0.146785 12.1577 0.149909 11.9942 0.147827C11.9172 0.141579 11.812 0.131169 11.6996 0.114509C11.7516 0.130128 11.7985 0.15824 11.7464 0.153034C11.2591 0.0832696 11.5267 0.171778 11.1946 0.150953C11.0092 0.103055 11.2685 0.0832705 10.9332 0.0791055C10.7312 0.0395376 10.8947 0.021835 10.9769 0.0124637C10.9405 0.013505 10.904 0.013505 10.8686 0.0124637L10.7937 0.00829896C10.7635 0.00517518 10.7354 0.00309326 10.7062 -3.05176e-05C10.6656 0.0218359 10.626 0.0426606 10.5875 0.0624445C10.5625 0.0738984 10.5386 0.0853512 10.5157 0.0968051C10.4698 0.115548 10.4261 0.134292 10.3845 0.151993C10.3012 0.185314 10.2262 0.213428 10.1668 0.242583L10.3001 0.151993C10.2199 0.206139 10.1512 0.243624 10.0804 0.282151L10.1804 0.273821C10.0939 0.312348 10.0242 0.350873 10.0169 0.335254C9.94504 0.405018 10.1148 0.358162 9.96274 0.482072C9.90235 0.503939 9.82113 0.55392 9.7472 0.596611C9.70972 0.617437 9.67432 0.636178 9.64412 0.648674C9.6285 0.65388 9.61496 0.659086 9.60351 0.660127C9.59622 0.660127 9.59102 0.657004 9.58581 0.651798C9.59102 0.650756 9.61496 0.638261 9.63058 0.629931C9.64724 0.621601 9.66078 0.613271 9.67327 0.608065C9.69618 0.594529 9.70972 0.585157 9.71805 0.57891C9.73263 0.565373 9.72326 0.562248 9.71076 0.560165C9.68681 0.553918 9.65349 0.548713 9.79927 0.46437C9.74512 0.500815 9.6764 0.538301 9.58893 0.577869C9.57331 0.57891 9.5952 0.561207 9.61707 0.54663C9.59312 0.55496 9.55874 0.57058 9.55353 0.571621C9.55041 0.57058 9.54832 0.57058 9.54624 0.571621C9.54312 0.57058 9.54103 0.57162 9.53999 0.572662C9.5327 0.574744 9.51188 0.577867 9.50251 0.580991C9.47856 0.58828 9.4619 0.597652 9.44107 0.608065C9.39942 0.626808 9.34111 0.647633 9.17451 0.650757C9.22345 0.619519 9.08184 0.595569 9.01832 0.602857C9.17659 0.600775 9.09537 0.651799 8.95064 0.677831C8.69865 0.660129 8.67786 0.701781 8.54562 0.701781L8.69657 0.709067C8.67262 0.724686 8.62993 0.731975 8.5737 0.737182C8.51435 0.741347 8.43834 0.745512 8.34983 0.751759C8.34359 0.753842 8.33526 0.756965 8.32693 0.760089C8.32068 0.755924 8.33005 0.748634 8.34775 0.739263C8.41335 0.729892 8.48311 0.730934 8.44146 0.723645C8.42793 0.72781 8.41647 0.730932 8.40294 0.733015L8.34775 0.739263C8.28215 0.764253 8.24883 0.772584 8.19781 0.785079C8.14887 0.79445 8.09785 0.803822 8.04474 0.814234C7.93958 0.834018 7.82816 0.857968 7.72091 0.910031C7.59492 0.928774 7.69176 0.85901 7.58242 0.880876C7.47517 0.931898 7.40125 0.952722 7.3346 0.966258C7.30128 0.973547 7.27005 0.978752 7.23569 0.986041C7.21903 0.989165 7.20237 0.993332 7.18362 0.996456C7.17425 0.99958 7.16384 1.00166 7.15447 1.00479C7.13677 1.00999 7.11906 1.0152 7.10136 1.0204C7.08366 1.03082 7.06596 1.04227 7.04618 1.05372C7.03576 1.05997 7.02431 1.0683 7.01181 1.07559C6.98787 1.09225 6.96183 1.11099 6.93372 1.13286C7.03368 1.11828 7.04201 1.10162 6.8702 1.25364L7.12739 1.07663L7.36376 0.986041L7.25859 1.04227C7.21902 1.06205 7.20028 1.07559 7.13885 1.10266C7.09199 1.13807 7.07533 1.15577 7.04722 1.18076C7.0795 1.15993 7.11282 1.13807 7.1451 1.1162C7.17946 1.1037 7.21382 1.09017 7.2461 1.07767C7.27525 1.06622 7.30233 1.05477 7.32836 1.04435C7.38146 1.02249 7.42832 1.00478 7.46476 0.995413C7.32211 1.07767 7.33461 1.0631 7.41686 1.07143C7.37209 1.07247 7.3294 1.0808 7.28879 1.09225C7.26796 1.09746 7.24714 1.10475 7.22736 1.11203L7.15551 1.13911C7.09928 1.18076 7.04097 1.22345 6.98162 1.26822C6.92435 1.30883 6.86291 1.34632 6.79211 1.37547L6.74525 1.28697C6.49327 1.40255 6.30584 1.57019 6.0726 1.73158C5.99763 1.77219 5.88205 1.82634 5.76751 1.87111L5.91849 1.82217C5.87476 1.88569 5.64568 1.95233 5.50824 2.03355C5.50719 1.9971 5.41243 2.02729 5.34163 2.03562C5.35829 2.0554 5.01676 2.18245 5.0001 2.26367L4.94179 2.28137L4.88869 2.3199L4.77311 2.39279C4.47426 2.6531 4.51279 2.77493 4.23061 3.02899C4.28788 2.92383 4.14627 3.02587 4.31183 2.83116C4.2202 2.91862 4.13377 2.99359 4.14835 3.01129C4.13377 3.01962 4.11399 3.03732 4.09212 3.06023C4.06817 3.0873 4.03902 3.11958 4.00882 3.15499C3.98175 3.20497 3.95259 3.25807 3.92656 3.30701C3.90053 3.35074 3.8745 3.38823 3.84951 3.41114C3.83181 3.46424 3.85263 3.49756 3.77246 3.61522C3.75788 3.6246 3.75788 3.60585 3.75788 3.60585C3.77246 3.61522 3.65479 3.80577 3.75475 3.72143C3.68707 3.78182 3.62147 3.85992 3.55587 3.94947C3.52255 3.9932 3.49027 4.04006 3.45799 4.089C3.4278 4.13377 3.39864 4.17959 3.36845 4.22644C3.31638 4.27226 3.26328 4.31911 3.21226 4.36493C3.15707 4.41179 3.10292 4.45864 3.05086 4.50342C2.94674 4.58984 2.84678 4.66273 2.75931 4.70542C2.64686 4.80954 2.5219 4.92409 2.40945 5.02925C2.3553 5.1844 2.30636 5.32601 2.26367 5.44888C2.25951 5.43014 2.24805 5.44159 2.26783 5.3989C2.11893 5.71336 2.2845 5.63214 2.11581 5.99138C1.99502 6.1611 2.16059 5.78417 2.09811 5.89454C2.06271 5.89871 2.03563 5.93619 2.01168 5.9945C1.99919 6.02262 1.98774 6.05698 1.97524 6.09342C1.96587 6.12674 1.94817 6.18193 1.94713 6.19338C1.944 6.20171 1.92422 6.23191 1.90443 6.26002L1.84612 6.34332C1.80656 6.39643 1.76387 6.44641 1.71805 6.48389L1.75137 6.42871C1.60039 6.56928 1.49001 6.85146 1.28593 7.11386C1.28593 7.11386 1.28801 7.09511 1.27343 7.1024C1.26823 7.11906 1.25365 7.14718 1.2297 7.18675C1.21825 7.25026 1.20471 7.32419 1.19013 7.40333C1.17555 7.47517 1.15785 7.55223 1.13911 7.63032C1.10058 7.78651 1.05581 7.94895 1.01832 8.08952C1.00791 7.98227 1.04123 7.94478 0.980838 7.98852C0.942311 8.127 1.05997 7.97081 0.983962 8.24675C0.962095 8.28319 0.938145 8.32797 0.905866 8.3894C0.877752 8.47582 0.849638 8.54142 0.819442 8.556L0.845473 8.37482L0.877752 8.27174C0.867339 8.28423 0.856927 8.29673 0.848597 8.31131C0.840267 8.32484 0.831936 8.34046 0.820482 8.36962C0.817359 8.3894 0.813194 8.40918 0.809029 8.43001L0.80174 8.47999C0.798616 8.51331 0.796534 8.54871 0.794451 8.58307C0.791328 8.6518 0.788204 8.71844 0.775709 8.77258L0.751759 8.75072C0.700737 9.14952 0.761132 9.17972 0.698656 9.58477C0.697615 9.58997 0.695531 9.5983 0.693449 9.60559C0.698655 9.59726 0.703863 9.59206 0.709069 9.58685C0.713234 9.58268 0.716358 9.57956 0.720523 9.57227C0.721564 9.58164 0.722606 9.58581 0.723647 9.58997C0.723647 9.81072 0.637221 9.76282 0.62785 10.0002L0.544549 10.0544C0.519559 10.2126 0.477908 10.6156 0.408144 10.8947C0.411267 10.727 0.460206 10.3928 0.484155 10.1845C0.444588 10.3376 0.361287 10.7083 0.368576 10.7958C0.382112 10.7333 0.382112 10.65 0.408144 10.5917C0.417515 10.7958 0.360247 11.0457 0.27174 11.3487C0.236337 11.3195 0.195727 11.3924 0.150953 11.5111C0.129086 11.5704 0.106178 11.6413 0.0822295 11.7152C0.0551567 11.8006 0.0270422 11.8901 -3.05176e-05 11.9765C0.00413452 12.0078 0.00934274 12.039 0.014549 12.0692C0.0166316 12.09 0.0197547 12.1109 0.0228785 12.1306C0.0270436 12.1702 0.0312083 12.2087 0.034332 12.2441C0.0384971 12.315 0.0384965 12.3753 0.0280839 12.418C0.064528 12.5513 0.0936846 12.6856 0.119716 12.822C0.13117 12.8908 0.142622 12.9584 0.155117 13.0282C0.166571 13.1021 0.178026 13.1761 0.18948 13.2521C0.236337 13.3958 0.283193 13.5426 0.331091 13.6936C0.378989 13.8404 0.43001 13.9903 0.48728 14.1455C0.504981 13.8935 0.554961 14.3235 0.639303 14.2507C0.664294 14.3142 0.680954 14.3589 0.693449 14.3881C0.696573 14.411 0.699697 14.4422 0.696573 14.4464L0.695532 14.4141C0.696574 14.4287 0.696581 14.436 0.696581 14.4474L0.708027 14.9108C0.695531 15.0233 0.662212 14.7723 0.641387 14.79C0.687202 15.1191 0.620561 14.9348 0.62785 15.1565C0.658046 15.1055 0.698655 15.2617 0.715315 15.4512L0.720523 15.1805C0.781957 15.3971 0.777791 15.4877 0.775709 15.6022C0.784039 15.7292 0.779874 15.8188 0.869422 16.0552L0.80174 15.9198C0.831937 16.0093 0.872547 16.1624 0.918363 16.3269C0.942312 16.4092 0.967302 16.4935 0.991251 16.5758C1.00479 16.6164 1.01728 16.657 1.02978 16.6955C1.04539 16.7382 1.05997 16.7788 1.07351 16.8174C1.09121 16.8569 1.09642 16.8621 1.10683 16.8819C1.11724 16.8975 1.12661 16.9121 1.13494 16.9267C1.15369 16.9558 1.17139 16.9798 1.18909 16.9996C1.19325 17.0433 1.18805 17.1058 1.14119 17.011C1.1995 17.1662 1.27031 17.3276 1.34424 17.49C1.42129 17.6566 1.49939 17.8263 1.57331 17.9867C1.61497 18.044 1.65557 18.0991 1.69514 18.1523C1.7295 18.2022 1.76386 18.2501 1.79614 18.297C1.8607 18.3917 1.91589 18.4813 1.95962 18.5667L1.91485 18.5438C1.98045 18.6291 2.05854 18.6718 2.11269 18.7978C2.09915 18.7978 2.06687 18.776 2.09394 18.8176C2.10644 18.8322 2.13351 18.8624 2.16787 18.8999C2.18349 18.9197 2.20119 18.9405 2.21994 18.9624C2.23972 18.9863 2.25222 18.9998 2.28554 19.0467C2.30949 19.0686 2.33343 19.0915 2.35634 19.1123C2.37404 19.13 2.3907 19.1477 2.40528 19.1644L2.29699 19.0998C2.68017 19.5142 2.96444 19.6485 3.31742 19.9588C3.26536 20.013 3.56941 20.3306 3.72143 20.4888L3.7079 20.4909C3.82348 20.6013 3.93281 20.7002 4.04006 20.7929C4.1421 20.8908 4.24206 20.9814 4.34098 21.0699C4.44094 21.1584 4.53882 21.2448 4.64087 21.3343C4.69085 21.3802 4.74187 21.4249 4.79393 21.4718C4.81996 21.4957 4.84599 21.5197 4.87307 21.5436C4.90222 21.5718 4.93346 21.6009 4.96366 21.629C4.97511 21.6363 4.98761 21.6446 5.00114 21.653C5.08965 21.7456 5.23438 21.8591 5.40515 21.983C5.49158 22.0445 5.58321 22.109 5.67796 22.1757C5.78209 22.2486 5.89038 22.3235 5.99763 22.3975C6.12258 22.4318 6.24649 22.4672 6.36623 22.5006C6.47348 22.5318 6.57657 22.5641 6.67132 22.5963C6.58594 22.5599 6.70152 22.5443 6.80669 22.563C6.93997 22.6141 7.1982 22.612 7.15863 22.6724L7.11073 22.6588C7.12323 22.6724 7.14197 22.6859 7.16384 22.6984C7.17425 22.7046 7.18571 22.7109 7.1982 22.7171C7.21486 22.7234 7.20653 22.7234 7.21174 22.7275C7.20445 22.7286 7.24922 22.7557 7.27942 22.7744C7.31378 22.7942 7.34918 22.815 7.38563 22.8358C7.45852 22.8754 7.53453 22.9171 7.60325 22.9545L7.67926 22.8941C7.7584 22.9639 7.85211 23.0306 7.95415 23.0941C8.00518 23.1264 8.05724 23.1586 8.11139 23.1888C8.17074 23.2221 8.23113 23.2544 8.29152 23.2877L8.47687 23.3471C8.53309 23.3648 8.58932 23.3815 8.64451 23.3981C8.75488 23.4325 8.86213 23.4658 8.96001 23.496C9.15681 23.5595 9.31925 23.623 9.40671 23.6938C9.42962 23.698 9.43483 23.698 9.48168 23.7105C9.54936 23.7188 9.6233 23.7282 9.69618 23.7365C9.76491 23.7449 9.83259 23.7532 9.89506 23.7553L9.87736 23.8011C10.0315 23.8354 10.1543 23.8636 10.2803 23.8917C10.3438 23.9052 10.4074 23.9187 10.4771 23.9333C10.5552 23.9479 10.6396 23.9646 10.7343 23.9833C10.7895 23.9781 10.8905 23.9687 11.005 23.9583L10.9082 24C11.1841 23.9823 11.2466 23.8354 11.5007 23.8146L11.5819 23.8802L11.7912 23.8677L12.0099 23.8594L12.2775 23.8219L12.5326 23.7813C12.7013 23.7521 12.8689 23.7147 13.0324 23.6616C13.0261 23.6741 13.0157 23.697 12.9397 23.7136C13.0053 23.7032 13.1084 23.6886 13.2188 23.672C13.2812 23.6688 13.3448 23.6657 13.4051 23.6626C13.4687 23.6584 13.5291 23.6522 13.579 23.6449C13.678 23.6314 13.7363 23.6095 13.705 23.5772C13.7165 23.6407 14.2048 23.5501 14.462 23.4981L14.4266 23.5512C14.6401 23.4627 14.6453 23.446 14.9483 23.3908C15.0212 23.3877 15.016 23.42 14.9191 23.42C15.1628 23.4148 15.1014 23.3523 15.3971 23.3409L15.2919 23.3846C15.4127 23.371 15.47 23.3606 15.5116 23.3481C15.5533 23.3356 15.5783 23.32 15.6636 23.2919C15.6647 23.2909 15.6688 23.2867 15.672 23.2836C15.6928 23.269 15.7147 23.2523 15.7397 23.2336C15.7594 23.2211 15.7803 23.2076 15.8021 23.193C15.8469 23.1649 15.8948 23.1378 15.9417 23.1139C16.0343 23.067 16.1187 23.0347 16.1457 23.0431C16.1593 23.0024 16.2551 22.8994 16.3852 22.8296C16.4113 22.8327 16.3717 22.8702 16.3519 22.8879C16.4373 22.8421 16.5091 22.7963 16.5727 22.7525C16.6049 22.7296 16.6341 22.7088 16.6633 22.688L16.7039 22.6567L16.7278 22.637C16.7413 22.6297 16.7799 22.6161 16.8142 22.6047C16.8486 22.5932 16.8819 22.5818 16.9163 22.5714C16.984 22.5516 17.0527 22.536 17.1308 22.5287C17.1402 22.5422 17.1599 22.5453 17.1849 22.5443C16.9965 22.5911 16.8319 22.6338 16.7372 22.6578C16.7184 22.6692 16.7039 22.6786 16.6945 22.6838C16.681 22.6921 16.6757 22.6942 16.6799 22.6911C16.6882 22.7078 16.7476 22.6849 16.7538 22.6953C16.7653 22.6994 16.7695 22.7057 16.7757 22.713C16.7799 22.7213 16.7747 22.7338 16.7768 22.7463C16.7768 22.7494 16.7778 22.7536 16.7788 22.7598L16.7799 22.7536C16.7799 22.7515 16.7809 22.7484 16.782 22.7453C16.7955 22.74 16.808 22.7338 16.8215 22.7275C16.8507 22.7151 16.8798 22.7015 16.9111 22.688C16.9735 22.6619 17.0391 22.6338 17.1068 22.6057C17.2412 22.5516 17.3817 22.5026 17.5046 22.4808C17.5171 22.4818 17.5306 22.4829 17.541 22.486L17.516 22.4985C17.5754 22.487 17.6275 22.4693 17.6743 22.4495C17.7149 22.4422 17.7493 22.436 17.7826 22.4297C17.8201 22.4225 17.8336 22.4204 17.9107 22.4006C17.9242 22.4048 17.9575 22.4016 18.0054 22.3923C18.0335 22.3641 18.0679 22.3267 18.1064 22.2829C18.1273 22.2569 18.1512 22.2298 18.1752 22.2017C18.221 22.1455 18.2689 22.0882 18.3022 22.0476C18.2585 22.0257 18.3761 21.8966 18.2408 21.9966C18.2574 21.982 18.2293 22.0195 18.1731 22.0882C18.1616 22.1049 18.147 22.1236 18.1408 22.1351C18.1408 22.1319 18.1418 22.1288 18.1429 22.1257L17.969 22.336L17.8232 22.3756C17.8534 22.3589 17.9138 22.335 17.9586 22.3183C17.9742 22.2954 17.9909 22.2725 18.0075 22.2486C18.0221 22.2298 18.0377 22.21 18.0533 22.1903C18.0804 22.1569 18.1127 22.1247 18.1523 22.0924C18.1731 22.0195 18.197 21.9414 18.2126 21.8997C18.3813 21.8029 18.6364 21.5561 18.6989 21.5447C18.7416 21.4884 18.7864 21.4281 18.8332 21.3666C18.8978 21.3114 18.9634 21.2552 19.028 21.2C19.0977 21.1396 19.1654 21.0792 19.231 21.023C19.358 20.9064 19.4663 20.796 19.5267 20.7033C19.6111 20.6232 19.6465 20.6419 19.6892 20.6263C19.6413 20.6752 19.5788 20.7231 19.558 20.7554C19.7204 20.5878 20.1067 20.3472 20.1129 20.2618C20.3681 20.1161 20.013 20.4024 20.3347 20.164L20.3014 20.2098C20.3868 20.165 20.4649 20.1182 20.5388 20.0703C20.5753 20.0442 20.6107 20.0203 20.6461 19.9963C20.6898 19.964 20.7325 19.9318 20.7752 19.9005L20.8283 19.8016L20.8616 19.7339L20.9241 19.5996C20.9637 19.509 21.0043 19.4195 21.0438 19.3278C21.124 19.1498 21.2188 18.9519 21.3291 18.7749C21.4062 18.7031 21.5186 18.6062 21.6321 18.524C21.5842 18.5615 21.5593 18.5792 21.5436 18.5813C21.6603 18.4782 21.7748 18.3709 21.8883 18.2626L22.057 18.096L22.234 17.919C22.4683 17.5452 22.664 17.2151 22.9035 16.8465L22.9743 16.6289L23.0451 16.4258C23.093 16.2905 23.1441 16.1582 23.1982 16.0281C23.2763 15.824 23.2753 15.7594 23.2836 15.6491C23.2836 15.6199 23.2846 15.5855 23.2846 15.5449L23.3481 15.497L23.3544 15.1992C23.4044 14.7859 23.6303 14.5276 23.6772 13.9997L23.6272 14.058C23.6782 13.8758 23.748 13.4728 23.7792 13.5134C23.7782 13.4926 23.7594 13.4447 23.7938 13.377L23.8219 13.3781L23.8313 13.3094L23.8459 13.2188L23.8115 13.1209Z"/>
  <path d="M9.9461 12.9616C9.96693 12.8668 9.96693 12.7679 9.98879 12.6721C10.0617 12.3587 10.1783 12.0536 10.3064 11.7589C10.4855 11.3476 10.6385 10.9332 10.752 10.499C10.7833 10.3824 10.7968 10.2626 10.8249 10.1449C10.8551 10.0231 10.9134 9.90963 10.9436 9.7878C10.9717 9.67638 10.9769 9.56393 11.0103 9.45459C11.0478 9.33068 11.1019 9.21302 11.1477 9.09224C11.1977 8.95687 11.2362 8.82047 11.2498 8.67677C11.257 8.58827 11.2456 8.50913 11.2695 8.42479C11.3112 8.27381 11.3976 8.12907 11.4497 7.98017C11.4715 7.9177 11.4705 7.86251 11.4903 7.80212C11.5278 7.6907 11.5975 7.58033 11.6475 7.47308C11.6933 7.37416 11.7329 7.27211 11.7829 7.17424C11.8631 7.02117 11.962 6.90455 12.0901 6.79105C12.1234 6.76086 12.164 6.73795 12.1983 6.70983C12.2056 6.69942 12.2119 6.68901 12.2192 6.6786C12.2192 6.66402 12.2181 6.65048 12.24 6.64736C12.291 6.56926 12.3431 6.49325 12.3993 6.42036C12.4441 6.36309 12.4909 6.34019 12.5503 6.30478C12.5774 6.28812 12.5971 6.27042 12.6169 6.24439C12.7211 6.11319 12.7867 5.94451 12.8762 5.8029C12.9897 5.6238 13.1053 5.43429 13.2583 5.28539C13.4197 5.1292 13.5978 4.99175 13.7561 4.83036C14.1122 4.47008 14.4912 4.1525 14.9233 3.88698C15.0483 3.81097 15.1639 3.72558 15.2846 3.64436C15.3346 3.61104 15.3617 3.61 15.4117 3.61C15.3784 3.62458 15.3388 3.63395 15.3117 3.63916C15.3398 3.63395 15.3929 3.62458 15.4283 3.61C15.4242 3.61 15.419 3.60896 15.4148 3.60896C15.5752 3.53503 15.3252 3.42882 15.2638 3.39759C15.1836 3.35698 15.1066 3.30908 15.0254 3.27159C14.8598 3.19662 14.6786 3.17684 14.5027 3.13935C14.3829 3.11332 14.2705 3.08625 14.1476 3.08833C14.082 3.08833 14.0164 3.09458 13.9518 3.10707C13.8519 3.12582 13.7582 3.15706 13.6561 3.15914C13.4937 3.1633 13.3312 3.12061 13.1719 3.09562C12.9907 3.06542 12.8075 3.04252 12.6242 3.0446C12.3181 3.04876 12.013 3.04772 11.7069 3.04564C11.4549 3.04356 11.2112 3.07271 10.9613 3.10707C10.6864 3.14456 10.448 3.26014 10.1887 3.35698C9.39319 3.65061 8.6768 4.12855 7.99165 4.62003C7.68865 4.83661 7.38564 5.05944 7.14719 5.34891C6.97539 5.55924 6.81087 5.77999 6.64426 5.99449C6.46517 6.22669 6.3246 6.47347 6.18923 6.7317C6.16008 6.78585 6.1278 6.83791 6.08823 6.88581C6.03096 6.95557 5.96016 7.01388 5.90913 7.08885C5.74045 7.33459 5.70609 7.66259 5.59259 7.9354C5.49471 8.17384 5.41454 8.40396 5.35518 8.65595C5.31041 8.84337 5.26772 9.0308 5.22399 9.21823C5.12507 9.63682 5.13027 10.0606 5.08862 10.4865C5.04905 10.8832 5.01261 11.2747 5.01782 11.6735C5.02094 11.8932 5.04072 12.1119 5.04489 12.3316C5.04801 12.5482 5.0501 12.7606 5.07925 12.9761C5.13756 13.4187 5.27188 13.8435 5.36456 14.2788C5.40412 14.4672 5.40516 14.6619 5.45515 14.8494C5.49992 15.0212 5.57281 15.2055 5.65923 15.3617C5.71442 15.4606 5.78835 15.548 5.84354 15.647C5.9008 15.7501 5.9789 16.0426 6.13196 16.0354C6.16633 16.0343 6.19236 16.0124 6.21422 15.9885C6.25171 15.9489 6.27253 15.899 6.31314 15.8604C6.36521 15.8115 6.4256 15.7605 6.48183 15.7146C6.51307 15.6897 6.5568 15.6772 6.58283 15.6459C6.61927 15.6032 6.63593 15.573 6.68487 15.5366C6.79837 15.4512 6.91812 15.3742 7.04619 15.3148C7.16385 15.2596 7.27423 15.1982 7.38981 15.1388C7.48977 15.0889 7.56057 15.0659 7.66991 15.041C7.8313 15.0045 8.01456 14.9535 8.15201 14.8525C8.20511 14.814 8.25301 14.7692 8.30716 14.7317C8.49354 14.6057 8.70388 14.5182 8.89547 14.3995C9.18286 14.2194 9.3984 13.9528 9.59832 13.68C9.68058 13.478 9.79616 13.2958 9.89508 13.1C9.91694 13.0553 9.93569 13.0095 9.9461 12.9616Z"/>
  <path d="M14.3829 9.46606C14.3767 9.46919 14.3704 9.47231 14.3642 9.47439L14.6224 9.40671C14.6172 9.40775 14.6109 9.4088 14.6047 9.40984C14.5276 9.42441 14.4548 9.43483 14.3829 9.46606Z"/>
  <path d="M18.1741 22.0882C18.1814 22.0778 18.1845 22.0705 18.195 22.0581C18.1804 22.0695 18.1668 22.0799 18.1523 22.0914C18.1491 22.1028 18.1471 22.1143 18.1439 22.1257C18.1543 22.1132 18.1648 22.0997 18.1741 22.0882Z"/>
  <path d="M18.827 2.3376C18.8364 2.34176 18.8447 2.34697 18.8489 2.35113C18.8426 2.34697 18.8426 2.34489 18.8384 2.34176L18.827 2.3376Z"/>
  <path d="M22.866 7.76254C22.865 7.32313 22.8369 7.8573 22.7859 7.40643L22.8161 7.75109C22.8275 7.68861 22.841 7.60739 22.866 7.76254Z"/>
  <path d="M22.2788 6.43811C22.1955 6.35376 22.1746 6.33294 22.2444 6.45372C22.3621 6.59846 22.2642 6.43602 22.2788 6.43811Z"/>
  <path d="M16.7997 1.17972L16.8267 1.16514L16.8465 1.15785C16.8424 1.15473 16.8382 1.1516 16.8372 1.15056C16.681 1.07976 16.8299 1.16618 16.7997 1.17972Z"/>
  <path d="M14.6172 0.388335C14.5786 0.385211 14.5401 0.383129 14.5026 0.381046C14.5193 0.382087 14.537 0.385211 14.5547 0.386253L14.6172 0.388335Z"/>
  <path d="M2.95401 4.47008L3.02169 4.48257C3.08937 4.41177 3.06542 4.35346 2.95401 4.47008Z"/>
  <path d="M0.67157 9.56083C0.668447 9.56708 0.664282 9.57437 0.661158 9.57853C0.626796 9.62643 0.579939 9.76388 0.582022 9.85239C0.612219 9.74618 0.658034 9.63268 0.670529 9.57958C0.670529 9.57125 0.67157 9.56604 0.67157 9.56083Z"/>
  <path d="M7.78651 23.0503L7.98019 23.1399L7.89376 23.0889L7.78651 23.0503Z"/>
</svg>
