<svg width="24" height="24" viewBox="0 0 24 24" fill="#000000" xmlns="http://www.w3.org/2000/svg">
  <path d="M12.7811 0.347699C12.8294 0.358204 12.8515 0.358204 12.8547 0.354002C12.8095 0.346648 12.7717 0.340345 12.7811 0.347699Z"/>
  <path d="M11.6686 0.0703427C11.6928 0.0724438 11.7127 0.0745449 11.7348 0.0776966C11.7096 0.0703427 11.6844 0.067191 11.6686 0.0703427Z"/>
  <path d="M18.6516 2.23453C18.6296 2.23874 18.7063 2.30702 18.7641 2.37005L18.6516 2.23453Z"/>
  <path d="M20.7948 4.39762L20.8263 4.44069C20.841 4.44909 20.8557 4.45645 20.8715 4.4617L20.7948 4.39762Z"/>
  <path d="M22.0954 6.17093C22.0754 6.15097 22.025 6.15412 22.0009 6.15412C22.0229 6.16042 22.0492 6.18143 22.0649 6.19509C22.0702 6.19719 22.0775 6.20455 22.087 6.21295C22.0954 6.2077 22.0975 6.19404 22.0996 6.17513C22.0986 6.17303 22.0965 6.17198 22.0954 6.17093Z"/>
  <path d="M23.3697 9.39828L23.3876 9.45816C23.3823 9.4424 23.3749 9.41614 23.3697 9.39828Z"/>
  <path d="M19.8272 3.09595C19.8282 3.08754 19.8251 3.07809 19.8209 3.06968C19.8177 3.07493 19.8209 3.08439 19.8272 3.09595Z"/>
  <path d="M23.5851 12.0331L23.5945 12.0677C23.604 12.0698 23.6134 12.0719 23.6218 12.0698L23.5851 12.0331Z"/>
  <path d="M9.59163 0.14807C9.59583 0.14807 9.59688 0.14807 9.60108 0.14807C9.65256 0.133362 9.62315 0.139666 9.59163 0.14807Z"/>
  <path d="M0.283704 14.6311C0.266895 14.6206 0.242732 14.5933 0.240631 14.6111C0.240631 14.6332 0.243783 14.6595 0.266895 14.7225C0.212266 14.5124 0.468602 15.0104 0.3709 14.7004C0.36985 14.7183 0.320474 14.6616 0.283704 14.6311Z"/>
  <path d="M5.28224 2.23381C5.29485 2.23486 5.31376 2.22961 5.33372 2.22331C5.32952 2.2191 5.31691 2.22121 5.28224 2.23381Z"/>
  <path d="M8.49484 0.797349L8.41499 0.833068C8.44756 0.820461 8.47277 0.808905 8.49484 0.797349Z"/>
  <path d="M3.85452 3.39328C3.8167 3.42164 3.79989 3.42794 3.75682 3.47522C3.76207 3.47312 3.76838 3.47102 3.77468 3.46681C3.78834 3.44685 3.80935 3.42374 3.85452 3.39328Z"/>
  <path d="M2.56235 4.81155C2.57075 4.80525 2.58126 4.79685 2.59071 4.78844C2.60122 4.77268 2.61382 4.75482 2.62433 4.73906L2.56235 4.81155Z"/>
  <path d="M23.314 9.32262C23.314 9.33523 23.3119 9.34048 23.3109 9.34784L23.292 9.24173C23.2993 9.26799 23.3067 9.29321 23.314 9.32262ZM19.4574 12.4291C19.3177 12.3367 19.1538 12.3041 19.012 12.2138C18.846 12.1087 18.6769 12.0215 18.4772 12.0047C18.2493 11.9858 18.0581 12.0478 17.8406 12.1034C17.6557 12.1507 17.4677 12.1948 17.2891 12.2621C17.142 12.3178 16.9991 12.3829 16.852 12.4386C16.498 12.572 16.1828 12.8945 15.9822 13.2065C15.8183 13.4639 15.6712 13.7392 15.5567 14.0207C15.5094 14.1363 15.439 14.2445 15.4033 14.3632C15.3655 14.4872 15.3781 14.6164 15.376 14.7435C15.3739 14.8927 15.4117 15.0335 15.4422 15.1774C15.4663 15.2887 15.4926 15.3969 15.5357 15.502C15.6418 15.7562 15.7521 16.0031 15.8866 16.2437C16.0095 16.4654 16.207 16.5788 16.3856 16.7469C16.498 16.853 16.6125 16.9339 16.6945 17.0684C16.7596 17.1745 16.7648 17.309 16.7806 17.4277C16.7985 17.5548 16.8615 17.6998 16.8342 17.8279C16.7974 17.995 16.5831 18.1021 16.4591 18.1988C16.3656 18.2713 16.2742 18.3469 16.165 18.3931C16.0221 18.4541 15.8635 18.4446 15.7206 18.4961C15.6334 18.5287 15.6229 18.5371 15.5767 18.4562C15.5283 18.3732 15.4642 18.3553 15.3855 18.308C15.314 18.266 15.2457 18.2156 15.1901 18.1536C15.1606 18.121 15.1333 18.0864 15.1092 18.0507C14.981 17.8637 14.8938 17.643 14.8129 17.4319C14.7278 17.2144 14.586 17.0253 14.4956 16.8099C14.3801 16.5347 14.2467 16.27 14.1794 15.9758C14.1185 15.71 14.1468 15.4295 14.1468 15.1585C14.1468 14.9284 14.1626 14.7025 14.1742 14.4746C14.1805 14.3401 14.2151 14.2266 14.254 14.1006C14.295 13.9734 14.3139 13.8411 14.3528 13.714C14.3916 13.5837 14.441 13.4503 14.4956 13.3263C14.5555 13.1887 14.6543 13.0763 14.7152 12.9397C14.898 12.5268 15.2321 12.2012 15.6386 12.0047C15.7868 11.9322 15.9433 11.8891 16.0967 11.8282C16.2028 11.7851 16.3068 11.7347 16.415 11.6937C16.5295 11.6517 16.6419 11.6717 16.7543 11.617C16.8541 11.5687 16.9413 11.4952 17.0464 11.4574C17.1105 11.4353 17.1767 11.43 17.2407 11.4069C17.3395 11.3712 17.4298 11.3176 17.5254 11.2735C17.6673 11.2073 17.8459 11.1842 17.9992 11.2157C18.0507 11.2262 18.1011 11.243 18.1537 11.2514C18.369 11.2851 18.597 11.2641 18.8092 11.3187C18.9311 11.3502 19.0393 11.3481 19.1517 11.409C19.304 11.4931 19.3996 11.6191 19.532 11.7263C19.6518 11.824 19.7684 11.9249 19.8818 12.031C19.9554 12.0992 20.0258 12.1707 20.093 12.2453C20.1392 12.2957 20.1834 12.3472 20.2285 12.3987C20.2937 12.4722 20.3588 12.5457 20.4218 12.6203C20.5479 12.7695 20.6046 12.9197 20.6572 13.1046C20.696 13.2444 20.6992 13.3568 20.6981 13.5007C20.6981 13.6089 20.7107 13.7234 20.6918 13.8306C20.6782 13.9115 20.6603 13.9934 20.6477 14.0743C20.6393 14.1279 20.6519 14.1857 20.6351 14.2382C20.6151 14.3033 20.5647 14.36 20.5416 14.4252C20.5027 14.5302 20.5017 14.6952 20.4166 14.775C20.4029 14.7172 20.4124 14.6511 20.4124 14.5912C20.4124 14.4567 20.4197 14.3212 20.4082 14.1878C20.3767 13.8369 20.196 13.4671 20.01 13.174C19.9386 13.0605 19.8566 12.9565 19.7841 12.8451C19.6885 12.6991 19.6076 12.5289 19.4574 12.4291ZM9.52649 2.515C9.61474 2.48874 9.71769 2.5066 9.80909 2.5066C9.95197 2.50765 10.0948 2.5024 10.2377 2.5129C10.4888 2.53181 10.7325 2.53076 10.9836 2.53286C11.1496 2.53391 11.2673 2.53917 11.407 2.61901C11.5929 2.72407 11.7894 2.76084 11.9922 2.81967C12.2453 2.89321 12.4933 2.97725 12.7107 3.13063C12.8767 3.24724 13.0354 3.38802 13.173 3.53825C13.3285 3.70844 13.4808 3.89334 13.6279 4.07193C13.9073 4.41231 14.0502 4.82938 14.1973 5.2391C14.275 5.45447 14.3486 5.66038 14.4431 5.86734C14.5387 6.0764 14.5324 6.2802 14.5156 6.50502C14.4704 7.09649 14.2225 7.61546 13.9546 8.13549C13.6783 8.67443 13.3474 9.17975 13.0238 9.69032C12.9114 9.86681 12.7412 10.0244 12.6729 10.2229C12.6424 10.3101 12.591 10.3742 12.5384 10.4488C12.4155 10.6211 12.3346 10.7934 12.2443 10.9846C12.0352 11.4237 11.8987 11.8503 11.886 12.3377C11.8787 12.613 11.8566 12.8861 11.8566 13.1614C11.8566 13.4261 11.8797 13.6908 11.9008 13.9545C11.9428 14.4683 12.0342 14.9998 12.2065 15.4873C12.3651 15.9369 12.6635 16.3498 12.9135 16.7522C13.0396 16.957 13.174 17.1335 13.3316 17.3153C13.4524 17.4529 13.5827 17.6042 13.6583 17.7744C13.6762 17.8153 13.6899 17.8574 13.7077 17.8973C13.713 17.9078 13.7182 17.9183 13.7245 17.9288C13.7644 17.9992 13.8264 18.0475 13.88 18.1074C13.9462 18.182 13.9882 18.2744 14.0407 18.3585C14.1027 18.4593 14.1731 18.5402 14.2488 18.6306C14.3044 18.6989 14.3444 18.8092 14.3139 18.8974C14.2162 18.9153 14.1416 18.8869 14.047 18.9415C13.9756 18.9815 13.9084 19.0298 13.8338 19.0644C13.7771 19.0855 13.7203 19.1096 13.6657 19.1359C13.6258 19.1685 13.5816 19.1958 13.5333 19.2157C13.4608 19.2462 13.3705 19.2746 13.2938 19.2945C13.2045 19.3166 13.1173 19.3565 13.0238 19.3597C12.8578 19.366 12.6887 19.3576 12.5227 19.3576H12.1077C12.0279 19.3576 11.9165 19.3765 11.8377 19.3607C11.801 19.3534 11.7694 19.3355 11.7442 19.3071C11.7127 19.2798 11.6759 19.2683 11.635 19.2714C11.5856 19.2556 11.5509 19.2451 11.5068 19.2157C11.4375 19.1674 11.3818 19.1285 11.304 19.097C11.2263 19.0655 11.1643 18.9972 11.1223 18.9237C11.034 18.7692 11.0298 18.5843 10.9794 18.4173C10.9426 18.2954 10.9069 18.1715 10.867 18.0507C10.8208 17.9067 10.7094 17.8069 10.6338 17.6788C10.4216 17.3153 10.2356 16.9276 10.139 16.5158C10.057 16.1712 10.0528 15.8014 10.0192 15.4484C9.97613 15.004 9.94146 14.5597 9.94146 14.1132C9.94146 13.6835 9.89209 13.2275 10.0045 12.8105C10.1222 12.3703 10.1348 11.9049 10.3438 11.4952C10.5403 11.1096 10.7861 10.7524 11.034 10.3984C11.1979 10.1641 11.3671 9.933 11.5362 9.70187C11.7348 9.42873 11.9627 9.17239 12.1539 8.89399C12.301 8.68178 12.4124 8.45066 12.5447 8.22899C12.6204 8.10082 12.7044 7.98526 12.757 7.84449C12.7864 7.76569 12.8179 7.67955 12.8326 7.59655C12.8473 7.50936 12.8463 7.42847 12.8851 7.34547C12.9145 7.28454 12.9639 7.23831 13.0007 7.18158C13.0648 7.08178 13.0795 6.96937 13.132 6.86642C13.1772 6.77607 13.1541 6.68572 13.1908 6.59747C13.2308 6.49767 13.2591 6.42413 13.2612 6.31277C13.2623 6.22978 13.2518 6.15834 13.2381 6.07745C13.2203 5.97764 13.2308 5.87049 13.2318 5.76963C13.2329 5.65407 13.2003 5.54587 13.2024 5.43031C13.2034 5.34626 13.1866 5.28007 13.1751 5.19918C13.1488 5.01533 13.09 4.82518 13.0049 4.66024C12.9461 4.54468 12.8336 4.45539 12.7444 4.36609C12.696 4.31776 12.653 4.26734 12.5994 4.22531C12.5447 4.18329 12.4807 4.15703 12.4281 4.1108C12.3777 4.06458 12.3367 4.0089 12.2842 3.96583C12.2149 3.9091 12.134 3.86707 12.0573 3.82085C11.9123 3.7326 11.7516 3.69688 11.6087 3.60233C11.4448 3.49412 11.2694 3.38592 11.0908 3.30608C11.0288 3.27771 10.9647 3.25565 10.9059 3.22203C10.8302 3.17791 10.7935 3.13694 10.7052 3.10962C10.5813 3.0718 10.472 3.09071 10.347 3.07285C10.2808 3.06445 10.2157 3.04028 10.1495 3.02873C9.99504 3.00141 9.84166 2.96675 9.68618 2.94363C9.56011 2.92472 9.44455 2.87745 9.32163 2.85433C9.24914 2.84068 9.19136 2.84278 9.11888 2.82072C9.163 2.80076 9.21237 2.7913 9.2523 2.76294C9.35945 2.6873 9.38677 2.55598 9.52649 2.515ZM4.21697 11.5204C4.16234 11.4006 4.14343 11.2735 4.09826 11.1506C4.06464 11.0602 4.02052 10.9783 3.9911 10.8859C3.81146 10.3312 3.84822 9.71763 3.95853 9.15033C4.04153 8.72485 4.20647 8.2416 4.52689 7.93799C4.58362 7.88336 4.62564 7.81507 4.68447 7.76254C4.73595 7.71422 4.79478 7.6764 4.84731 7.62912C4.96077 7.52827 5.10154 7.45578 5.18243 7.32131C5.15512 7.38749 5.08998 7.44107 5.05637 7.50411C4.9387 7.72157 4.87777 7.9632 4.75591 8.17646C4.71914 8.24265 4.67396 8.30463 4.6435 8.37502C4.60358 8.46852 4.59517 8.57042 4.58887 8.67128C4.57941 8.81625 4.5626 8.95913 4.53319 9.102C4.47541 9.38776 4.49852 9.69977 4.5605 9.98447C4.59307 10.1284 4.65926 10.2566 4.72124 10.3889C4.79163 10.5402 4.8389 10.6947 4.9345 10.8344C5.14566 11.1453 5.42091 11.4731 5.74658 11.6696C5.88526 11.7536 6.03339 11.8293 6.17731 11.9049C6.26346 11.9501 6.35381 11.9868 6.43995 12.0331C6.50929 12.0719 6.56812 12.1245 6.63851 12.1612C6.74671 12.218 6.86858 12.2862 6.98099 12.3293C7.14383 12.3924 7.32242 12.3945 7.4674 12.4995C7.51993 12.5384 7.5651 12.5857 7.62078 12.6203C7.70167 12.6707 7.79307 12.6991 7.87396 12.7506C7.95381 12.801 8.02419 12.8641 8.09248 12.9281C8.2259 13.0532 8.36457 13.1425 8.47278 13.2958C8.53582 13.3862 8.5936 13.4797 8.65243 13.5732C8.70495 13.6541 8.77429 13.7234 8.82682 13.8043C8.90876 13.9293 8.94658 14.068 8.99596 14.2056C9.05374 14.3685 9.13779 14.5155 9.14409 14.6931C9.14619 14.7509 9.13463 14.8076 9.14409 14.8654C9.15775 14.9452 9.19452 15.0187 9.21027 15.0986C9.2628 15.3696 9.18821 15.6396 9.21132 15.9159C9.23234 16.1576 9.22603 16.3981 9.22498 16.6398C9.22393 16.8572 9.27226 17.0421 9.30482 17.2522C9.33004 17.4182 9.36891 17.5821 9.39202 17.7481C9.41198 17.892 9.38782 18.037 9.39622 18.1809C9.40147 18.2618 9.42354 18.3574 9.44665 18.4362C9.46031 18.4814 9.51704 18.577 9.46766 18.6127C9.45085 18.6243 9.41618 18.6075 9.39727 18.6117C9.36576 18.618 9.35525 18.6411 9.32794 18.6547C9.25335 18.6915 9.1672 18.6558 9.08631 18.6726C9.04429 18.681 9.01487 18.7125 8.976 18.723C8.93608 18.7346 8.89511 18.7283 8.85413 18.7283C8.77954 18.7272 8.72492 18.7241 8.65453 18.7062C8.49064 18.6652 8.34041 18.5833 8.17863 18.536C8.02314 18.4908 7.86136 18.4782 7.70167 18.4425C7.61658 18.4236 7.57456 18.3669 7.49681 18.3322C7.45689 18.3143 7.42643 18.3101 7.39176 18.2818C7.35814 18.2555 7.30771 18.2187 7.27935 18.1872C7.24258 18.1463 7.25203 18.0916 7.25203 18.0412C7.25308 17.9918 7.25519 17.9582 7.26674 17.913C7.27935 17.8626 7.27725 17.808 7.29721 17.7576C7.37285 17.5716 7.42012 17.3825 7.4695 17.1882C7.4758 17.165 7.48106 17.143 7.48736 17.1188C7.54829 16.8824 7.62393 16.6503 7.67016 16.4107C7.70798 16.2185 7.71218 16.021 7.71113 15.8256C7.71113 15.7478 7.70903 15.6901 7.74475 15.6218C7.81408 15.4904 7.76681 15.3864 7.76576 15.2383C7.76471 15.0335 7.74474 14.8706 7.667 14.6794C7.61027 14.5397 7.53043 14.443 7.43903 14.3233C7.30246 14.1447 7.16169 13.9766 7.01146 13.8085C6.9001 13.6845 6.78769 13.5606 6.66057 13.4524C6.47042 13.2895 6.26346 13.2065 6.03339 13.1067C5.74238 12.9817 5.48079 12.8115 5.215 12.6392C4.99543 12.4985 4.79583 12.3167 4.62459 12.1192C4.46595 11.9354 4.31782 11.7442 4.21697 11.5204ZM18.5581 19.1884C18.326 19.4815 18.0455 19.7252 17.7692 19.9784C17.5958 20.1371 17.413 20.2904 17.2134 20.4155C17.059 20.5142 16.8941 20.573 16.7281 20.6487C16.5274 20.7411 16.3247 20.8336 16.1156 20.905C15.8645 20.9922 15.5977 21.0384 15.3434 21.1183C15.1585 21.1771 14.9757 21.2254 14.7824 21.2486C14.5524 21.2748 14.3286 21.3536 14.108 21.4187C13.9031 21.4797 13.693 21.4891 13.486 21.5364C13.2906 21.5816 13.1047 21.6562 12.9061 21.6908C12.6803 21.7297 12.4491 21.7696 12.2201 21.7854C11.9669 21.8033 11.7106 21.7885 11.4574 21.7896C11.2116 21.7906 10.9931 21.7896 10.7546 21.7266C10.5298 21.6677 10.3039 21.6226 10.0759 21.5774C9.91835 21.5459 9.77337 21.5175 9.62735 21.4471C9.46766 21.3704 9.30272 21.3158 9.13673 21.2528C9.00752 21.2034 8.88775 21.1403 8.76694 21.0721C8.58834 20.9702 8.40344 20.9092 8.20699 20.8535C7.98112 20.7905 7.77731 20.7044 7.55985 20.6182C7.31086 20.5195 7.07659 20.4354 6.83811 20.3125C6.7257 20.2558 6.60384 20.2096 6.49458 20.1455C6.41054 20.0961 6.34855 20.0289 6.27922 19.9595C6.20463 19.8839 6.13844 19.8019 6.0628 19.7295C5.97035 19.6423 5.87475 19.5603 5.78966 19.4658C5.66359 19.3281 5.57429 19.1653 5.44822 19.0287C5.39465 18.9699 5.36523 18.91 5.33476 18.8365C5.3001 18.7524 5.23706 18.6453 5.22235 18.556C5.2108 18.4887 5.21815 18.4215 5.2066 18.3543C5.19399 18.2818 5.17613 18.2082 5.16563 18.1379C5.15302 18.0444 5.16457 17.9425 5.16352 17.8479C5.16247 17.7817 5.18348 17.6998 5.22761 17.6472C5.28329 17.58 5.36943 17.5411 5.43036 17.4802C5.49235 17.4193 5.53437 17.3489 5.56379 17.2659C5.61316 17.1209 5.63102 16.9717 5.7781 16.8866C5.89051 16.8205 6.01027 16.7732 6.12373 16.7143C6.29392 16.6282 6.47672 16.5326 6.65742 16.4759C6.67002 16.4717 6.68368 16.4675 6.69524 16.4643C6.79189 16.4338 6.86543 16.4107 6.97258 16.4107C7.03142 16.4107 7.11441 16.3897 7.13542 16.4601C7.01566 16.5337 6.9106 16.6114 6.78138 16.6681C6.64481 16.728 6.54186 16.7259 6.45781 16.8614C6.39583 16.9591 6.3496 17.0757 6.25926 17.1514C6.22774 17.1776 6.19517 17.1955 6.17416 17.2323C6.11323 17.3447 6.11848 17.5159 6.08696 17.6399C6.03654 17.8395 6.01658 18.0811 6.11848 18.2713C6.16681 18.3595 6.26556 18.4551 6.33385 18.5266C6.43155 18.6295 6.53345 18.7094 6.65742 18.7776C6.78348 18.8491 6.89589 18.9289 7.03877 18.9583C7.17429 18.9857 7.26989 19.0592 7.40121 19.1012C7.52308 19.1422 7.64704 19.1674 7.76576 19.221C7.88132 19.2725 7.98952 19.3166 8.11244 19.3428C8.30469 19.3838 8.49169 19.4447 8.68394 19.4868C8.96444 19.5488 9.25965 19.4899 9.53385 19.5845C9.61579 19.6128 9.68933 19.6601 9.77337 19.6832C9.911 19.721 10.0591 19.7189 10.1999 19.7473C10.3585 19.7809 10.5308 19.803 10.6937 19.8072C10.8733 19.8114 11.0424 19.8019 11.221 19.8272C11.3881 19.8503 11.5562 19.8734 11.7243 19.887C12.9954 19.99 14.2698 19.6307 15.4832 19.3712C15.6985 19.325 15.9149 19.2777 16.1314 19.2336C16.3141 19.1968 16.499 19.1895 16.6797 19.1474C16.8657 19.1054 17.059 19.0697 17.2397 19.0161C17.4088 18.9667 17.5391 18.8795 17.6956 18.8113C17.8185 18.7577 17.89 18.7398 17.9614 18.6348C18.0539 18.4982 18.1075 18.328 18.1621 18.1788C18.222 18.0139 18.2808 17.871 18.2808 17.6987C18.2808 17.5506 18.2808 17.352 18.1736 17.2291C18.0927 17.1377 17.9688 17.0894 17.8826 17.0033C17.7944 16.914 17.7229 16.8656 17.6095 16.7994C17.5317 16.7532 17.4635 16.6954 17.3836 16.6503C17.3426 16.6261 17.2943 16.6103 17.2565 16.5809C17.2124 16.5463 17.1872 16.5032 17.1388 16.4685C17.0884 16.4317 17.0243 16.4044 16.9697 16.3729C16.9025 16.3319 16.8405 16.2878 16.7659 16.2563C16.7197 16.2374 16.6661 16.23 16.6661 16.1817C16.726 16.1639 16.8132 16.1765 16.8762 16.1765H17.1987C17.3773 16.1765 17.5328 16.1534 17.6788 16.25C17.7303 16.2836 17.7807 16.2994 17.8333 16.3288C17.9015 16.3656 17.9562 16.4212 18.0224 16.4622C18.1043 16.5137 18.1989 16.5463 18.2745 16.6061C18.3627 16.6765 18.4226 16.7574 18.5214 16.8194C18.5823 16.8583 18.6474 16.8898 18.6958 16.9413C18.7409 16.9896 18.7651 17.0526 18.8082 17.102C18.8554 17.1577 18.9122 17.2008 18.9532 17.2617C18.9952 17.3237 19.0477 17.3941 19.0677 17.4644C19.1044 17.5905 19.0414 17.7155 19.0361 17.8416C19.0309 17.9803 19.0204 18.1168 19.0046 18.2545C18.9647 18.6096 18.7756 18.9142 18.5581 19.1884ZM18.1684 22.3579C18.1705 22.3558 18.1726 22.3506 18.1747 22.3474C18.1715 22.36 18.1684 22.3727 18.1568 22.3863C18.0833 22.4367 18.0528 22.4441 18.0371 22.442C18.0728 22.4189 18.1138 22.3926 18.1684 22.3579ZM23.854 13.1151L23.8099 12.9681C23.7616 12.6109 23.9265 13.0038 23.833 12.4859C23.7857 12.2957 23.6502 11.9532 23.646 12.0289C23.6597 12.1066 23.6681 12.2295 23.6418 12.2411L23.5945 12.0677C23.5893 12.0667 23.584 12.0656 23.5788 12.0635L23.5735 12.0352L23.6891 10.805L23.4537 9.95821L23.4727 9.97502L23.4432 9.91724L23.3697 9.65355C23.3823 9.6588 23.397 9.68191 23.4159 9.73234C23.4107 9.67351 23.4012 9.63359 23.3928 9.60837C23.3771 9.53799 23.3508 9.51592 23.3571 9.39301C23.3592 9.3741 23.3644 9.38147 23.3697 9.39828L23.3151 9.21126C23.3361 9.24593 23.3592 9.17029 23.3697 9.289C23.3487 8.93917 23.2174 8.74587 23.2468 8.60719L23.2562 8.63556C23.2163 8.46221 23.1985 8.41389 23.1837 8.39918C23.168 8.38552 23.1606 8.41284 23.1375 8.39288L23.0808 8.17436L23.1249 7.99051L23.0619 7.9569C23.0514 7.90857 23.0304 7.81192 23.0556 7.82453C22.9736 7.65329 23.0409 7.86024 22.981 7.76464C22.9705 7.5913 22.8854 7.35703 22.8539 7.19104C22.8055 7.13011 22.7824 7.08703 22.7908 7.05867C22.7036 7.0198 22.9201 7.25092 22.7299 7.07653C22.7488 6.96307 22.5219 6.86537 22.4074 6.67311C22.4872 6.69307 22.6059 6.86537 22.4914 6.67311C22.3454 6.62584 22.2225 6.34219 22.088 6.21402C22.0817 6.22032 22.0649 6.21297 22.0523 6.20667C21.9767 6.15204 21.8054 5.87259 21.6405 5.67088C21.6678 5.67508 21.3306 5.17292 21.173 4.93129L21.1866 4.93234C21.1026 4.92393 20.9345 4.67915 20.7937 4.51317C20.8294 4.49741 20.8652 4.51947 20.9492 4.60457L20.8273 4.44068C20.7822 4.41441 20.7349 4.36924 20.6498 4.26839L20.7191 4.28099C20.5584 4.06353 20.3609 3.86707 20.1865 3.56346C20.155 3.56977 20.1928 3.70319 20.1476 3.70109L20.0394 3.54665C20.0552 3.54245 20.0783 3.55191 20.1109 3.58973C20.0899 3.56556 20.03 3.50883 20.0016 3.45105L20.1193 3.54875C20.0426 3.40798 20.0436 3.49938 19.9743 3.39327C20.0037 3.37541 19.9407 3.30187 19.9732 3.30187C19.9943 3.32604 20.0247 3.40063 20.0636 3.43319C20.0426 3.39852 20.0216 3.36281 19.9995 3.32709C19.9764 3.28611 19.9543 3.24514 19.9344 3.20942C19.864 3.14849 19.8461 3.12326 19.8272 3.09595C19.8261 3.11906 19.801 3.13273 19.7127 3.076C19.491 2.92052 19.6612 2.98881 19.5425 2.8827C19.4753 2.86379 19.3482 2.74298 19.3156 2.78185C19.2505 2.73562 19.2526 2.70831 19.2358 2.67889C19.1727 2.64843 19.0204 2.54127 18.9279 2.48349C18.8502 2.4152 18.7767 2.35742 18.8166 2.43096L18.8397 2.45933C18.8344 2.45512 18.8281 2.44987 18.8208 2.44462C18.6737 2.32906 18.5361 2.19353 18.4027 2.05381L18.2041 1.8416L18.1054 1.73654L17.9908 1.61888C17.87 1.58841 17.8049 1.57265 17.7156 1.5548L17.7198 1.53904C17.4509 1.49281 17.1283 1.40667 16.9298 1.39616C16.852 1.3762 16.7522 1.32052 16.7911 1.30897C16.7764 1.30686 16.7627 1.30581 16.7543 1.30476C16.7228 1.28795 16.6976 1.2743 16.6734 1.26169C16.6451 1.24698 16.6188 1.23227 16.5915 1.21546C16.5348 1.1808 16.4696 1.13562 16.3625 1.05158C16.5547 1.13982 16.3162 0.990646 16.5547 1.14928C16.3352 0.990646 16.2984 0.934965 16.0294 0.816252C16.1345 0.83201 15.8918 0.661819 15.7689 0.597735L15.9149 0.729055C15.8803 0.708044 15.8477 0.688085 15.8151 0.668124C15.7773 0.643961 15.7416 0.620848 15.7059 0.597735C15.6428 0.580926 15.583 0.565169 15.521 0.54836L15.6029 0.509489C15.3981 0.431748 15.1995 0.39603 15.0125 0.368715C14.918 0.355058 14.8266 0.341401 14.7383 0.328794C14.6942 0.32144 14.6501 0.314086 14.608 0.306732L14.544 0.293074L14.4578 0.271013C14.378 0.279417 14.3401 0.280469 14.2929 0.280469C14.2466 0.279418 14.2004 0.276266 14.1542 0.269963C14.0134 0.326693 14.4557 0.260508 14.3317 0.323542C14.0775 0.346654 13.8044 0.297277 13.7245 0.306732C13.5722 0.311985 13.4934 0.336147 13.422 0.363461C13.3873 0.377119 13.3537 0.391828 13.3138 0.404435C13.2791 0.418092 13.215 0.431747 13.1919 0.437C13.1814 0.434899 13.1709 0.431748 13.1593 0.428596C13.1394 0.423343 13.1184 0.417042 13.0963 0.410738C13.1362 0.441205 13.1656 0.505287 12.8967 0.456962C12.6509 0.387625 12.613 0.297277 12.7738 0.32144C12.8326 0.334047 12.8599 0.347704 12.8557 0.354007C12.9377 0.366614 13.0448 0.384474 12.9524 0.3393L12.9145 0.349804C12.7969 0.299377 12.4565 0.215332 12.5447 0.203776C12.3535 0.175411 12.4565 0.215333 12.592 0.260507C12.4807 0.221636 12.3851 0.194323 12.2937 0.170161C12.196 0.145998 12.1035 0.123936 12.0016 0.0976718C11.9585 0.0955707 11.9144 0.0924196 11.8671 0.089268C11.8251 0.0861163 11.7821 0.0818988 11.7348 0.0776966C11.7884 0.0913539 11.8356 0.117631 11.7831 0.11448C11.2904 0.0661539 11.5635 0.142845 11.2294 0.135491C11.0403 0.09557 11.3009 0.0651032 10.9637 0.0745582C10.7588 0.044092 10.9227 0.0188781 11.0046 0.00627137C10.9584 0.00942305 10.9143 0.0115259 10.8702 0.0104753C10.8481 0.0104753 10.8271 0.00942532 10.8061 0.00942532C10.7777 0.00732421 10.7493 0.00627253 10.722 0.00417141L10.6663 0.0125753L10.6306 0.0157272C10.6065 0.0178283 10.5834 0.01993 10.5613 0.0220311C10.5161 0.0241322 10.472 0.0272839 10.431 0.029385C10.3491 0.0325367 10.2755 0.0356868 10.2146 0.0430407L10.3711 -3.05176e-05C10.2776 0.0262334 10.1988 0.0377894 10.119 0.0514466L10.2167 0.0766602C10.1222 0.0850646 10.0434 0.097671 10.0423 0.0808621C9.94987 0.122884 10.1274 0.13549 9.94146 0.202726C9.81014 0.203777 9.57272 0.286773 9.50548 0.242649C9.91625 0.193273 9.45716 0.195373 9.79123 0.131289C9.7282 0.148098 9.65046 0.160704 9.55486 0.169109C9.54015 0.165957 9.56641 0.156503 9.59163 0.149149C9.56536 0.150199 9.5412 0.151248 9.52019 0.152299C9.48342 0.157552 9.45085 0.161755 9.42354 0.164907C9.32373 0.217435 9.31743 0.224789 9.29432 0.244749C9.27541 0.261558 9.2649 0.278366 9.25125 0.297276C9.22288 0.334046 9.18086 0.379221 9.03273 0.460114C9.06214 0.409687 8.92452 0.453812 8.87094 0.490581C9.01067 0.41389 8.96234 0.497933 8.84573 0.588281C8.61146 0.689135 8.6125 0.736416 8.49484 0.797349L8.63352 0.734309C8.60515 0.783685 8.49274 0.841466 8.35407 0.927612C8.35197 0.928662 8.34882 0.930763 8.34566 0.931814C8.34041 0.928662 8.34461 0.922358 8.34987 0.918156C8.36983 0.895044 8.46123 0.84882 8.41185 0.865629C8.39399 0.884539 8.36562 0.9045 8.34882 0.916056C8.19648 0.99905 7.96326 1.02006 7.7626 1.14403C7.63864 1.17764 7.72794 1.09675 7.62078 1.12932C7.52308 1.19025 7.45374 1.21862 7.39071 1.24068C7.35919 1.25013 7.32872 1.25854 7.29826 1.26904C7.27094 1.27745 7.24258 1.2869 7.21001 1.29741C7.21106 1.29636 7.19635 1.30161 7.18165 1.30581C7.16799 1.31002 7.15328 1.31527 7.13752 1.32052C7.10706 1.33103 7.07344 1.34468 7.03667 1.36044C7.13752 1.37095 7.14908 1.35624 6.94632 1.46445L7.23207 1.35414L7.41382 1.25959C7.35709 1.29846 7.2867 1.34363 7.24048 1.3783C7.21842 1.39301 7.17009 1.41612 7.13542 1.43503C7.17219 1.42347 7.22052 1.40667 7.24783 1.39511C7.34238 1.34468 7.45164 1.28165 7.51572 1.25854C7.38125 1.35519 7.39281 1.33838 7.4758 1.33838C7.39701 1.34994 7.31717 1.38355 7.25624 1.41717C7.13542 1.46655 6.99885 1.54219 6.84021 1.5653L6.81605 1.46655C6.68158 1.49281 6.56287 1.53378 6.4431 1.58106C6.38427 1.60522 6.32439 1.62939 6.26241 1.65565C6.23194 1.66826 6.20043 1.68086 6.16786 1.69452L6.11953 1.71448C6.09432 1.72288 6.07016 1.73234 6.04494 1.74179C5.99452 1.78066 5.94094 1.82164 5.88421 1.86471C5.83378 1.90148 5.7802 1.9393 5.72242 1.97712L5.86109 1.89833C5.83063 1.96977 5.61737 2.08113 5.4976 2.18828C5.49025 2.15151 5.40201 2.20019 5.33372 2.22331C5.35578 2.23906 5.03956 2.43201 5.04376 2.51395L4.83995 2.60746C4.50798 2.82912 4.53109 2.95519 4.21592 3.1716C4.28631 3.0739 4.13188 3.15795 4.32308 2.9846C4.22012 3.06024 4.12347 3.12328 4.13608 3.14324C4.11297 3.15269 4.08985 3.17055 4.04258 3.21047C3.95328 3.30397 3.85558 3.42689 3.77574 3.46786C3.74527 3.51409 3.75577 3.55296 3.64652 3.64541C3.63076 3.65066 3.63601 3.6328 3.63601 3.6328C3.64652 3.64541 3.48368 3.79879 3.60134 3.74416C3.45847 3.81665 3.31559 3.93326 3.14645 4.08349C2.94159 4.36504 2.763 4.64767 2.59071 4.78844C2.43523 5.02061 2.24822 5.30003 2.10745 5.51015C2.1085 5.49124 2.09379 5.49964 2.12426 5.46287C1.89734 5.72971 2.08013 5.69399 1.82275 5.99971C1.66096 6.13418 1.92045 5.80955 1.8301 5.90095C1.80489 5.89675 1.77757 5.91251 1.74921 5.94193C1.73555 5.95663 1.72084 5.97449 1.70614 5.99445C1.68723 6.02282 1.66621 6.05223 1.64415 6.0848C1.6389 6.11212 1.63155 6.14048 1.62524 6.17095C1.62104 6.19091 1.61684 6.21192 1.61264 6.23398C1.60423 6.276 1.59478 6.32118 1.58532 6.3653C1.56431 6.4525 1.53805 6.53864 1.50023 6.60903L1.51073 6.5439C1.46766 6.63424 1.4456 6.75191 1.42354 6.88533C1.41303 6.95151 1.40147 7.0219 1.38887 7.09544C1.38151 7.13116 1.37416 7.16898 1.36681 7.2068C1.35945 7.23831 1.35105 7.27088 1.34264 7.3045L1.33214 7.32341C1.33319 7.32131 1.32794 7.3108 1.31848 7.3129C1.2544 7.53877 1.05479 7.92328 0.908763 8.20903C0.920319 8.10082 0.96129 8.07141 0.891953 8.10187C0.825768 8.23004 0.974949 8.10082 0.842578 8.35611C0.833123 8.36661 0.821567 8.37922 0.805809 8.40023C0.75223 8.49688 0.684994 8.62925 0.63877 8.64081L0.725966 8.37292C0.71336 8.39183 0.700752 8.41074 0.688145 8.4307C0.677639 8.44751 0.669236 8.46537 0.660831 8.48533C0.645073 8.52315 0.633516 8.56622 0.62301 8.60824C0.600948 8.69439 0.586242 8.78263 0.558927 8.84882L0.538965 8.82361C0.427606 9.18395 0.469629 9.23017 0.366674 9.56425C0.361422 9.59997 0.355119 9.64199 0.347765 9.68822L0.37508 9.64619C0.401344 9.89728 0.304692 9.84265 0.315197 10.0906L0.236407 10.1536C0.232204 10.2345 0.223799 10.3763 0.215395 10.5339C0.210142 10.6127 0.204889 10.6957 0.198585 10.7755C0.195433 10.8575 0.192283 10.9373 0.189131 11.0098C0.14921 10.8386 0.182828 10.5024 0.185979 10.2902C0.161817 10.4488 0.098783 10.8281 0.13135 10.9163C0.13135 10.8512 0.122944 10.7682 0.145006 10.7062C0.168118 10.9079 0.174423 11.1685 0.138704 11.4847C0.101935 11.4637 0.0767202 11.5256 0.0567596 11.6286C0.046254 11.6801 0.0367985 11.7421 0.028394 11.8093C0.018939 11.8828 0.00948554 11.9616 3.05176e-05 12.0404C0.00843498 12.0971 0.0168382 12.1549 0.0241921 12.2106C0.031546 12.261 0.0368002 12.3083 0.0399518 12.3535C0.0483563 12.4438 0.0483546 12.5216 0.0357479 12.572C0.0662141 12.6897 0.0914295 12.8073 0.112441 12.926L0.142906 13.1057C0.151311 13.1624 0.159715 13.2191 0.16812 13.2759C0.167069 13.4356 0.166018 13.5994 0.164968 13.7675C0.163917 13.9409 0.164968 14.1195 0.172322 14.3065C0.267922 14.0732 0.181777 14.4945 0.284732 14.4577C0.286833 14.484 0.287883 14.5071 0.288934 14.5229C0.327804 14.5985 0.343562 14.629 0.355119 14.6542C0.366675 14.6794 0.370876 14.6931 0.370876 14.6994L0.361422 14.6689C0.365625 14.6826 0.367725 14.6899 0.370876 14.7015H0.371928L0.517956 15.1438C0.538967 15.2551 0.43391 15.0229 0.418151 15.0461C0.557876 15.3497 0.440214 15.1921 0.511652 15.4022C0.52636 15.3455 0.611456 15.4841 0.681843 15.6617L0.608302 15.399C0.653476 15.4694 0.686044 15.5272 0.709157 15.5776C0.721763 15.6029 0.731218 15.626 0.739622 15.647C0.743824 15.6575 0.746978 15.668 0.75118 15.6785C0.754331 15.689 0.752229 15.688 0.75328 15.6922L0.75118 15.7027L0.75328 15.7279L0.756432 15.7783C0.757482 15.813 0.759584 15.8466 0.765888 15.8844C0.776393 15.9611 0.799504 16.0546 0.856234 16.1954L0.784797 16.0609C0.815263 16.1428 0.854134 16.2763 0.898257 16.4233C0.92137 16.4969 0.945532 16.5736 0.968644 16.6503C0.997009 16.7322 1.02432 16.8142 1.05059 16.8887C1.08105 16.9434 1.09051 16.9549 1.10627 16.9801C1.12203 17.0011 1.13673 17.0222 1.15144 17.0421C1.17981 17.081 1.20817 17.1136 1.23339 17.1377C1.24284 17.1818 1.24284 17.2449 1.18716 17.1535C1.31428 17.4151 1.48132 17.6914 1.6368 17.9551C1.80174 18.2145 1.95932 18.4583 2.04862 18.6663L2.00449 18.6411C2.06438 18.7314 2.14002 18.7808 2.18519 18.91C2.17258 18.91 2.14107 18.8859 2.16418 18.93C2.17258 18.9405 2.18729 18.9583 2.20515 18.9815C2.21461 18.993 2.22406 19.0067 2.23457 19.0203C2.24297 19.0298 2.26714 19.0665 2.28289 19.0907C2.32282 19.1233 2.36694 19.159 2.41001 19.1937C2.44468 19.222 2.4762 19.2525 2.50246 19.2809L2.39215 19.2199C2.78611 19.6244 3.07501 19.7547 3.44061 20.0562C3.38913 20.1108 3.7043 20.4239 3.86083 20.5804L3.84823 20.5836C3.8913 20.6214 3.93227 20.6592 3.97324 20.6949C3.9932 20.7128 4.01316 20.7306 4.03312 20.7474L4.06254 20.7727C4.06569 20.7748 4.06569 20.7748 4.06674 20.7758C4.12872 20.8599 4.18756 20.9397 4.24534 21.0174C4.31047 21.1025 4.3735 21.1855 4.43759 21.2675C4.50167 21.3494 4.56575 21.4314 4.63194 21.5154C4.66451 21.5574 4.69708 21.5994 4.73069 21.6425L4.78742 21.7192C4.81369 21.7549 4.8389 21.7906 4.86516 21.8264C4.91559 21.8379 4.97337 21.8516 5.0322 21.8652C5.14356 21.923 5.31375 21.9818 5.51021 22.0428C5.60896 22.0722 5.71507 22.1027 5.82327 22.1342C5.91993 22.1615 6.01868 22.1899 6.11743 22.2172C6.20463 22.2855 6.29077 22.3527 6.37377 22.4168C6.46727 22.4903 6.55551 22.5628 6.63535 22.6321C6.56917 22.5649 6.68263 22.5933 6.77298 22.6521C6.82551 22.7004 6.9127 22.7488 6.97889 22.7897C7.01146 22.8107 7.03982 22.8296 7.05558 22.8454C7.07869 22.8675 7.0913 22.8874 7.07449 22.8969L7.02091 22.8549C7.02301 22.8738 7.06398 22.9179 7.11441 22.9641C7.14277 22.9725 7.17429 22.982 7.20791 22.9914C7.22892 22.9967 7.25098 23.003 7.27515 23.0093C7.31612 23.0198 7.36129 23.0303 7.40752 23.0387C7.50102 23.0555 7.59977 23.0734 7.68907 23.0902L7.74264 23.0072C7.83299 23.0461 7.93595 23.0776 8.04415 23.1059C8.09878 23.1196 8.15446 23.1322 8.21224 23.1438C8.25952 23.1532 8.30889 23.1627 8.35722 23.1711C8.57258 23.2709 8.79215 23.3728 8.9823 23.46C9.08106 23.5062 9.17035 23.5514 9.24494 23.5955C9.28276 23.6176 9.31638 23.6396 9.3458 23.6617C9.3605 23.6722 9.37416 23.6827 9.38677 23.6932L9.40568 23.71C9.41618 23.7184 9.42669 23.7258 9.43614 23.7331C9.4456 23.7373 9.454 23.7405 9.46451 23.7447C9.54435 23.7531 9.63155 23.7604 9.7198 23.7699C9.79649 23.7783 9.87318 23.7857 9.94251 23.7878L9.92675 23.834C10.0717 23.8644 10.1904 23.8886 10.3102 23.9138C10.3701 23.9254 10.43 23.9369 10.4951 23.9495C10.5686 23.9621 10.6474 23.9758 10.7357 23.9916C10.8061 23.9842 10.9227 23.9716 11.0614 23.9569L10.9647 24C11.24 23.9779 11.3019 23.8287 11.5562 23.8025L11.6381 23.8686C11.7589 23.8571 11.8787 23.8487 12.0006 23.8445L12.3651 23.8487C12.6088 23.8487 12.8505 23.8413 13.0879 23.8025C13.0805 23.813 13.0679 23.834 12.9891 23.8392C13.2161 23.8424 13.8769 23.8361 13.7876 23.7457C13.7907 23.773 13.8853 23.772 14.0124 23.7583C14.0765 23.752 14.1479 23.7415 14.2193 23.73C14.2561 23.7247 14.2929 23.7184 14.3286 23.7132L14.3811 23.7037C14.4084 23.7006 14.4347 23.6964 14.461 23.6932C14.4883 23.6785 14.5145 23.6648 14.5398 23.6512C14.5566 23.6417 14.5734 23.6323 14.5891 23.6239L14.5702 23.6838C14.7488 23.5398 14.7488 23.522 15.0251 23.3833C15.0955 23.3602 15.0997 23.3927 15.0052 23.4201C15.2394 23.3465 15.1617 23.3034 15.4432 23.2089L15.355 23.2814C15.4359 23.2467 15.4863 23.2236 15.521 23.2047C15.5378 23.1952 15.5546 23.1858 15.564 23.1784L15.583 23.1585C15.5935 23.1501 15.6082 23.1406 15.6523 23.127C15.8078 23.0965 16.1282 23.1059 16.1681 23.1459C16.1996 23.1175 16.3341 23.0723 16.4822 23.0744C16.5043 23.0891 16.4507 23.1028 16.4245 23.1101C16.5096 23.1112 16.5862 23.107 16.6556 23.1007C16.6902 23.0975 16.7239 23.0933 16.7554 23.0902C16.7985 23.0849 16.8384 23.0797 16.8783 23.0755C16.9581 23.0177 17.0306 22.9662 17.1031 22.9147C17.1683 22.8706 17.2355 22.8307 17.3153 22.7981C17.329 22.8086 17.3489 22.8055 17.3721 22.796C17.1504 22.9305 16.9602 23.0461 16.8836 23.0933C16.8499 23.0944 16.83 23.0954 16.8237 23.0954C16.8268 23.1059 16.8541 23.1133 16.892 23.1175C16.9392 23.1017 17.0117 23.0692 17.0233 23.0765C17.0327 23.0776 17.038 23.0839 17.0327 23.0965C17.0275 23.1038 17.0285 23.1091 17.0128 23.1238C16.996 23.1396 16.9739 23.1606 16.9434 23.1858C17.0485 23.1101 17.0663 23.087 17.1273 23.0366C17.1809 22.9914 17.2386 22.9431 17.2964 22.8937C17.4162 22.7971 17.5433 22.7025 17.6599 22.6426C17.6736 22.6395 17.6862 22.6363 17.6977 22.6374L17.6767 22.6563C17.7314 22.6279 17.7744 22.5964 17.8143 22.5628C17.8889 22.525 17.9373 22.5019 18.0055 22.4599C18.0518 22.4756 18.2818 22.3222 18.3985 22.256C18.3648 22.2203 18.5203 22.1384 18.3575 22.1867C18.3774 22.1794 18.3386 22.2046 18.2629 22.2508C18.2461 22.2623 18.2262 22.275 18.2157 22.2844C18.2178 22.2823 18.2199 22.2792 18.222 22.276C18.1463 22.3212 18.0476 22.38 17.9362 22.4472C18.014 22.3716 18.1001 22.2991 18.2409 22.2466C18.285 22.1857 18.3333 22.1205 18.3627 22.0859C18.556 22.0512 18.8796 21.9041 18.9437 21.9157C18.9637 21.902 18.9847 21.8873 19.0057 21.8736C19.0361 21.8547 19.0666 21.8348 19.0981 21.8148C19.1654 21.7329 19.2347 21.6457 19.3051 21.5585C19.3671 21.4797 19.4291 21.3998 19.4879 21.3252C19.6034 21.1719 19.7001 21.029 19.7442 20.9176C19.8094 20.8252 19.8598 20.8252 19.8808 20.822C19.8766 20.8336 19.8493 20.8683 19.8304 20.8935C19.8104 20.9208 19.7936 20.9439 19.7862 20.9628C19.8031 20.9407 19.8199 20.9166 19.8398 20.8914C19.8556 20.8704 19.8713 20.8493 19.8892 20.8262L19.9081 20.8126L19.9459 20.7874L20.0195 20.7359C20.0688 20.7012 20.1161 20.6665 20.1581 20.6361C20.2432 20.5741 20.3042 20.5195 20.3094 20.4869C20.5721 20.3535 20.2012 20.6245 20.5363 20.3997L20.5006 20.4449C20.5868 20.405 20.6677 20.3619 20.7423 20.3178C20.7801 20.2947 20.8168 20.2715 20.8526 20.2495C20.8988 20.219 20.945 20.1885 20.9902 20.1581L21.0459 20.0551L21.0795 19.9858C21.1015 19.9396 21.1236 19.8933 21.1446 19.8471C21.1856 19.7547 21.2266 19.6633 21.2686 19.5698C21.3516 19.3849 21.4451 19.1895 21.5659 18.9972C21.6363 18.9079 21.7235 18.806 21.8201 18.7083C21.7781 18.7524 21.7571 18.7745 21.7413 18.7787C21.8401 18.6568 21.9367 18.5318 22.0323 18.4047L22.1742 18.2114L22.3223 18.0055C22.4484 17.6704 22.5755 17.3342 22.7015 17.0001C22.8297 16.6723 22.9852 16.3582 23.147 16.0588C23.1943 15.9685 23.2205 15.9054 23.2373 15.8529C23.2541 15.8014 23.2604 15.7636 23.2762 15.6985C23.2709 15.6585 23.2657 15.6144 23.2583 15.5598L23.313 15.502L23.272 15.2047C23.2657 15.0681 23.2814 14.9442 23.3046 14.8212C23.3277 14.7057 23.3508 14.5901 23.376 14.4651L23.3918 14.4399L23.4191 14.3916C23.4359 14.359 23.4537 14.3243 23.4706 14.2886C23.5031 14.2161 23.5336 14.1373 23.5609 14.0491L23.5 14.0953C23.5882 13.9272 23.7426 13.5459 23.7647 13.5921C23.7679 13.5721 23.7595 13.5207 23.8078 13.4618L23.8351 13.4681L23.9023 13.2916L23.854 13.1151Z"/>
  <path d="M18.2619 22.2508C18.2724 22.2434 18.2776 22.2381 18.2924 22.2287C18.2745 22.235 18.2577 22.2413 18.2398 22.2466C18.2335 22.256 18.2272 22.2665 18.2209 22.276C18.2346 22.2676 18.2493 22.2581 18.2619 22.2508Z"/>
  <path d="M18.8082 2.42252C18.8134 2.43092 18.8187 2.43831 18.8208 2.44462C18.8166 2.43726 18.8187 2.43617 18.8156 2.43197L18.8082 2.42252Z"/>
  <path d="M23.0745 7.68375C23.0188 7.24566 23.0566 7.78145 22.9495 7.33811L23.023 7.67849C23.0262 7.61546 23.0304 7.53141 23.0745 7.68375Z"/>
  <path d="M22.3381 6.42409C22.2467 6.34635 22.2246 6.32744 22.3045 6.443C22.4347 6.57747 22.3234 6.42409 22.3381 6.42409Z"/>
  <path d="M16.7491 1.27533C16.7596 1.26482 16.769 1.25327 16.7774 1.24171C16.769 1.23751 16.7638 1.23436 16.7585 1.23226C16.7501 1.22805 16.7449 1.22595 16.7407 1.2249C16.7333 1.2228 16.7354 1.227 16.7396 1.23436C16.7533 1.25117 16.7585 1.26587 16.7491 1.27533Z"/>
  <path d="M14.6007 0.242632L14.6637 0.251036L14.5786 0.236329L14.4599 0.213216L14.358 0.231076L14.4599 0.214267L14.6007 0.242632Z"/>
  <path d="M2.72623 4.51315L2.79556 4.51C2.84494 4.42491 2.80817 4.37343 2.72623 4.51315Z"/>
  <path d="M0.256367 9.94562C0.28053 9.8206 0.321502 9.69768 0.325704 9.63255C0.288935 9.68928 0.245862 9.84476 0.256367 9.94562Z"/>
  <path d="M7.89287 23.1228L8.10613 23.1469L8.00843 23.1259L7.89287 23.1228Z"/>
</svg>
