<svg width="24" height="24" viewBox="0 0 24 24" fill="#000000" xmlns="http://www.w3.org/2000/svg">
  <path d="M18.8071 2.20816C18.7862 2.1977 18.7673 2.19037 18.7422 2.182L18.8071 2.20816Z"/>
  <path d="M12.6976 0.113007C12.7478 0.1151 12.7688 0.110914 12.7719 0.105681C12.7248 0.106728 12.6871 0.107774 12.6976 0.113007Z"/>
  <path d="M11.6071 0.0481208C11.582 0.0491674 11.5558 0.0523069 11.5422 0.0596326C11.5663 0.0554465 11.5862 0.0523069 11.6071 0.0481208Z"/>
  <path d="M18.7418 2.18097L18.5796 2.11399C18.5618 2.12864 18.6612 2.15271 18.7418 2.18097Z"/>
  <path d="M20.8012 4.18299L20.8388 4.22066C20.8535 4.22799 20.8692 4.23322 20.8859 4.23636L20.8012 4.18299Z"/>
  <path d="M22.1499 5.98093C22.1468 5.97151 22.1426 5.96314 22.1384 5.95581C22.1007 5.90977 22.0683 5.92965 22.0411 5.92128C22.0631 5.93174 22.0788 5.94116 22.1039 5.97256C22.1123 5.98616 22.1217 6.00605 22.1269 6.01651C22.1353 6.01337 22.1447 6.00814 22.1499 5.98093Z"/>
  <path d="M23.4493 9.23558L23.4797 9.29105C23.4713 9.2764 23.4587 9.25233 23.4493 9.23558Z"/>
  <path d="M19.861 2.8884C19.862 2.88003 19.8599 2.87061 19.8547 2.86224C19.8516 2.86747 19.8547 2.87689 19.861 2.8884Z"/>
  <path d="M23.5203 11.8833L23.5265 11.9189C23.5359 11.921 23.5454 11.9241 23.5537 11.9231L23.5203 11.8833Z"/>
  <path d="M9.54399 0.383058C9.54818 0.383058 9.54922 0.383058 9.55341 0.383058C9.60574 0.369453 9.57539 0.374686 9.54399 0.383058Z"/>
  <path d="M0.250521 14.4326C0.242148 14.4211 0.233776 14.4075 0.225404 14.396C0.214939 14.3771 0.204473 14.3593 0.196101 14.3468C0.186682 14.3175 0.176217 14.306 0.165752 14.3499C0.164705 14.3583 0.165752 14.375 0.168892 14.3991C0.169938 14.4148 0.173078 14.4357 0.176217 14.4619C0.165752 14.2453 0.313312 14.7842 0.281916 14.4629C0.278777 14.4713 0.266219 14.4556 0.250521 14.4326Z"/>
  <path d="M5.27153 2.12964C5.26735 2.12755 5.25479 2.13069 5.22339 2.15057C5.23595 2.14848 5.25374 2.14011 5.27153 2.12964Z"/>
  <path d="M8.37482 0.536866L8.28796 0.533727C8.32249 0.536867 8.35075 0.536866 8.37482 0.536866Z"/>
  <path d="M3.66889 3.25681C3.67412 3.25367 3.67936 3.24948 3.68459 3.24425C3.69296 3.22122 3.70761 3.19402 3.74424 3.15425C3.71389 3.19088 3.70029 3.20029 3.66889 3.25681Z"/>
  <path d="M2.64643 4.6926C2.65481 4.68632 2.66527 4.67795 2.67469 4.67062C2.6862 4.65492 2.69876 4.63713 2.70923 4.62143L2.64643 4.6926Z"/>
  <path d="M8.26609 0.560942C8.23888 0.567221 8.21272 0.571407 8.18446 0.575593C8.24307 0.568268 8.32051 0.565128 8.26609 0.560942Z"/>
  <path d="M20.5203 9.75576C20.5077 9.77145 20.2482 9.79762 20.2084 9.80704C20.0964 9.8332 19.9876 9.86669 19.8787 9.89704C19.7197 9.94099 19.5376 10.0038 19.3618 10.0006C18.9756 9.99541 18.7862 9.63541 18.6219 9.44808C18.5497 9.36436 18.468 9.28377 18.3874 9.20319C18.2169 9.03365 18.0913 8.84423 17.9081 8.68411C17.8129 8.60144 17.7449 8.50097 17.6706 8.4005C17.6182 8.32829 17.5607 8.26027 17.5 8.19434C17.41 8.09596 17.3116 8.00701 17.2321 7.89922C17.1138 7.73701 17.0458 7.54758 16.9495 7.37281C16.8334 7.15828 16.69 6.95944 16.5424 6.76583C16.3813 6.55548 16.2086 6.34617 16.0275 6.15361C15.8758 5.99245 15.7021 5.8564 15.5545 5.69314C15.3483 5.46604 15.1715 5.21906 14.9998 4.96685C14.8627 4.76487 14.7236 4.56708 14.5927 4.36091C14.5299 4.26254 14.4776 4.15684 14.397 4.07207C14.3217 3.99149 14.2411 3.91718 14.1532 3.85021C14.0935 3.8052 14.0297 3.76648 13.9742 3.7152C13.9292 3.67334 13.8916 3.60009 13.8413 3.5666C13.7587 3.51218 13.6278 3.51427 13.5347 3.48183C13.4311 3.44625 13.3296 3.41485 13.2249 3.38136C13.0334 3.32171 12.8053 3.29031 12.6305 3.2024C12.4641 3.11868 12.2632 3.04752 12.0769 3.02554C11.9932 3.01612 11.9147 2.97636 11.832 2.95647C11.7368 2.93345 11.6426 2.9481 11.5473 2.93554C11.4636 2.92403 11.3998 2.87798 11.3192 2.84554C11.0816 2.7524 10.0634 3.6252 9.92209 3.72253C9.75569 3.83765 9.61546 3.96951 9.46476 4.10346C9.2879 4.26254 9.19685 4.45614 9.06917 4.65185C8.92684 4.87057 8.74998 5.07255 8.55742 5.24627C8.43184 5.35825 8.33137 5.48383 8.21834 5.60523C8.07916 5.75488 7.91171 5.86791 7.75892 6.00082C7.45124 6.26873 7.20007 6.59315 6.8924 6.8642C6.71867 7.01699 6.51774 7.13735 6.34925 7.29642C6.26866 7.37281 6.20797 7.4513 6.15773 7.54758C6.1389 7.58421 6.1368 7.60724 6.10541 7.63654C6.03948 7.69828 5.93692 7.74224 5.86471 7.80084C5.76424 7.88457 5.66796 7.97352 5.57691 8.06666C5.42516 8.20794 5.26505 8.3398 5.09865 8.46329C4.67271 8.78981 4.2248 9.10482 3.82398 9.46377C3.81037 9.47529 3.6377 9.61029 3.61991 9.66994C3.59793 9.7432 3.16362 9.61761 3.09246 9.48994C3.02339 9.36645 3.03594 9.22621 3.04432 9.0933C3.0506 8.98551 3.45037 8.64644 3.4849 8.5962C3.78107 8.16608 4.2405 7.74538 4.62562 7.35502C4.99818 6.97723 5.41365 6.61722 5.77994 6.23733C6.10122 5.90558 6.35239 5.54558 6.67367 5.21383C7.11531 4.7565 7.61659 4.34103 8.0373 3.87218C8.53649 3.31648 9.18952 2.84763 9.79651 2.34635C10.0215 2.16006 10.2214 1.96122 10.4454 1.77494C10.6505 1.60541 10.8744 1.44633 11.0639 1.26842C11.1685 1.169 11.1863 0.992141 11.3914 1.02668C11.6405 1.06854 11.8917 1.22028 12.1093 1.31342C12.4317 1.45052 12.7299 1.60331 13.0261 1.76448C13.2762 1.90157 13.5525 2.04913 13.7545 2.22286C13.9052 2.35263 13.9826 2.48658 14.081 2.63414C14.3615 3.05694 15.071 3.21287 15.4928 3.55299C15.7146 3.73195 15.881 3.93602 16.06 4.13486C16.3153 4.42056 16.624 4.67591 16.9359 4.93336C17.3786 5.30174 17.522 5.75698 17.8202 6.17768C18.0829 6.5471 18.2744 6.92909 18.5109 7.30688C18.6888 7.59154 18.917 7.86782 19.1043 8.15143C19.2697 8.40155 19.4413 8.6569 19.6935 8.87458C19.9018 9.05458 20.1121 9.2304 20.3235 9.40831C20.4052 9.47843 20.5935 9.66261 20.5203 9.75576ZM18.2985 14.3406C18.2985 14.6525 18.332 14.9842 18.2744 15.2929C18.2326 15.5211 18.1813 15.7241 18.1771 15.9596C18.1698 16.3049 18.1499 16.6492 18.1363 16.9946C18.1216 17.4006 18.0724 17.8067 18.0442 18.2127C18.0023 18.7936 17.9374 19.4058 17.7815 19.9699C17.7083 20.2378 17.5858 20.4691 17.5345 20.7453C17.5115 20.8636 17.5146 21.1775 17.4173 21.2832C17.388 21.2069 17.4089 21.1001 17.4089 21.0195C17.41 20.828 17.4079 20.6354 17.4089 20.4439C17.411 19.7909 17.2771 19.1578 17.2227 18.5068C17.1599 17.7523 17.1515 16.9914 17.1525 16.2348C17.1536 15.9031 17.1274 15.5724 17.1368 15.2406C17.1421 15.0407 17.1651 14.8419 17.1766 14.642C17.1808 14.5844 17.1839 14.5269 17.185 14.4704C17.207 13.4406 17.2405 12.4129 17.2938 11.3842C17.32 10.8808 17.3482 10.3784 17.3796 9.87611C17.388 9.73169 17.3974 9.58831 17.4069 9.44389C17.41 9.39994 17.4267 9.33505 17.4184 9.2911C17.4581 9.26703 17.5021 9.19691 17.5502 9.16028C17.6151 9.109 17.6863 9.07028 17.7564 9.03575C17.8317 8.99807 17.9762 8.94993 18.0567 8.98761C18.176 9.04412 18.2231 9.37796 18.2441 9.53808C18.2608 9.65843 18.2943 9.78506 18.3027 9.90855C18.3205 10.1744 18.3006 10.4548 18.3006 10.7217C18.3006 11.5736 18.2985 12.4244 18.2985 13.2763C18.2985 13.631 18.2985 13.9858 18.2985 14.3406ZM15.8768 8.32934C15.8276 8.38899 15.7471 8.45074 15.6717 8.47062C15.5932 8.49155 15.4729 8.46748 15.3902 8.46748C15.2897 8.46748 15.1882 8.46748 15.0867 8.46748C14.9255 8.46748 14.7612 8.48004 14.6011 8.46225C14.3562 8.43399 14.1605 8.29062 13.9251 8.24876C13.7178 8.21213 13.4635 8.19643 13.2532 8.20899C13.0198 8.22364 12.8105 8.32934 12.5667 8.33562C12.3322 8.34294 12.0957 8.30108 11.8634 8.36388C11.7567 8.39318 11.651 8.42248 11.5442 8.45178C11.3694 8.47376 11.1957 8.46748 11.022 8.43399C10.7363 8.40678 10.482 8.47062 10.2005 8.50516C10.0278 8.52609 9.85511 8.50411 9.68244 8.5219C9.43232 8.54806 9.18743 8.58051 8.93522 8.54911C8.70498 8.51981 8.49044 8.46434 8.25811 8.46643C8.10532 8.46853 7.95357 8.46748 7.80078 8.46748C7.74427 8.46748 7.09019 7.98922 7.08914 7.9348C7.08914 7.8741 7.0881 7.81968 7.09751 7.76108C7.09647 7.76526 7.12054 7.66375 7.12054 7.6627C7.16135 7.57165 7.25135 7.50363 7.31205 7.42514C7.37066 7.34874 7.40101 7.30584 7.50357 7.30793C7.5988 7.30898 7.69717 7.29851 7.79241 7.30584C7.90753 7.31526 8.01009 7.35398 8.12834 7.35188C8.2466 7.35084 8.3659 7.35188 8.48416 7.35188C8.65056 7.35188 8.81696 7.35921 8.98336 7.35502C9.25231 7.34874 9.48046 7.21374 9.75569 7.21793C9.965 7.22002 10.1586 7.21688 10.3648 7.25351C10.4726 7.2713 10.5678 7.26398 10.6714 7.23781C10.9404 7.16874 11.2355 7.21898 11.5107 7.21898C11.6708 7.21793 11.8351 7.20537 11.9953 7.22211C12.1031 7.23363 12.2098 7.26711 12.3197 7.26711C12.5395 7.26921 12.7561 7.21583 12.978 7.22002C13.1014 7.22107 13.2218 7.18653 13.3453 7.17607C13.473 7.1656 13.5975 7.19386 13.7241 7.20746C13.9355 7.23049 14.1406 7.22316 14.3437 7.29537C14.757 7.44188 15.8318 7.68677 15.8538 7.71607C15.9375 7.82177 15.9543 8.2362 15.8768 8.32934ZM15.633 15.3882C15.5796 15.8329 15.5252 16.2735 15.408 16.7078C15.3347 16.9789 15.2625 17.2761 15.1212 17.5231C15.0564 17.6382 14.9517 17.7408 14.8743 17.8496C14.8303 17.9113 14.7675 17.9605 14.7162 18.0149C14.5844 18.1531 14.4912 18.2619 14.3405 18.3823C14.0161 18.6408 13.6226 18.8501 13.2333 18.9966C12.9434 19.1044 12.6336 19.0866 12.3301 19.0855C12.0099 19.0845 11.6886 19.0929 11.3684 19.0876C11.0293 19.0824 10.684 19.028 10.3512 18.9641C9.94511 18.8857 9.65418 18.7674 9.31092 18.5298C9.12882 18.4043 8.93103 18.3027 8.75103 18.1761C8.58882 18.061 8.47998 17.8276 8.39416 17.657C8.21835 17.3054 8.07183 16.9255 7.96509 16.5467C7.87299 16.2233 7.7359 15.8863 7.7202 15.5483C7.70241 15.1977 7.6909 14.8272 7.72438 14.4766C7.76206 14.0894 7.93997 13.7451 8.08962 13.3945C8.16497 13.2198 8.23614 13.0513 8.31463 12.8838C8.31358 12.8828 8.31253 12.8817 8.31149 12.8817C8.05509 12.6473 7.77148 12.5144 7.65636 12.167C7.71078 12.3867 7.61241 12.1868 7.61136 12.1209C7.61031 12.0414 7.62706 11.9535 7.70869 11.9126C7.7945 11.8697 7.91904 11.9053 7.9923 11.944C8.07706 11.989 8.11055 12.0613 8.18172 12.1157C8.25916 12.1753 8.33556 12.2161 8.40986 12.2852C8.46219 12.3344 8.5166 12.3784 8.57312 12.4213C8.62858 12.3459 8.69033 12.2727 8.74579 12.2088C8.78556 12.1638 8.93208 11.9985 9.02417 11.8718C9.12568 11.7326 9.25755 11.6856 9.40615 11.6039C9.51185 11.5464 9.57674 11.4511 9.68558 11.3957C9.78186 11.3454 9.88232 11.3098 9.9807 11.2628C10.0874 11.2104 10.2057 11.1958 10.3198 11.1717C10.4747 11.1403 10.6254 11.0932 10.7813 11.0681C11.2187 10.998 11.6782 10.999 12.1208 11.0147C12.3291 11.0221 12.53 11.0597 12.7404 11.0587C12.9853 11.0566 13.249 11.0221 13.4855 11.0974C13.7199 11.1717 13.9669 11.2303 14.1856 11.3444C14.2306 11.3674 14.2767 11.3998 14.3227 11.4365C14.3479 11.4051 14.3761 11.3768 14.4044 11.3392C14.5048 11.2094 14.6597 10.6924 14.8973 10.8933C14.9695 10.954 14.9852 11.0419 15.027 11.1141C15.0553 11.1633 15.183 11.2648 15.1914 11.3172C15.1997 11.3643 15.1683 11.3674 15.1516 11.4061C15.1171 11.4825 15.0909 11.5683 15.0522 11.6426C14.9936 11.7536 14.9266 11.8687 14.8533 11.9765C15.0459 12.2057 15.2123 12.4579 15.3264 12.7342C15.4143 12.9456 15.4959 13.1632 15.5618 13.382C15.6058 13.5285 15.6654 13.6656 15.6675 13.8205C15.6696 13.8885 15.6644 13.9586 15.6633 14.0277C15.6623 14.4819 15.6864 14.9382 15.633 15.3882ZM6.62553 17.4624C6.53134 17.9501 6.61716 18.4838 6.58786 18.9819C6.55751 19.4989 6.4853 20.0316 6.34506 20.5308C6.29797 20.6721 6.2582 20.8144 6.22576 20.9599C6.2132 21.0467 6.19645 21.1336 6.17657 21.2194C6.13994 21.2498 6.12006 21.2257 6.08134 21.2529C6.0332 21.2864 5.99238 21.4193 5.91808 21.3701C5.78726 21.2843 5.81133 20.9452 5.7904 20.8155C5.76529 20.6522 5.78726 20.4858 5.78412 20.3204C5.77889 20.0546 5.69726 19.8045 5.66482 19.5418C5.55389 18.6659 5.38121 17.7983 5.27656 16.9224C5.21063 16.3656 5.13528 15.8099 5.09237 15.2511C5.07144 14.9957 5.02539 14.7069 5.06307 14.4515C5.07353 14.3783 5.10493 14.3123 5.12167 14.2401C5.19702 13.9304 5.14574 13.5735 5.14365 13.2574C5.14156 12.5939 5.05679 11.9608 5.0233 11.2994C4.99818 10.8002 4.99295 10.2968 5.00237 9.79657C5.00655 9.57889 4.92074 8.95935 4.92283 8.9426C5.00132 8.90074 5.0997 8.94051 5.18342 8.91853C5.29016 8.89028 5.40005 8.83586 5.50993 8.81598C5.60098 8.79923 5.69726 8.83167 5.78726 8.81388C5.86157 8.79923 6.03529 9.93471 6.0311 10.5637C6.02692 11.1152 6.04471 11.7044 6.12006 12.2475C6.14831 12.4495 6.18494 12.6504 6.20273 12.8556C6.2289 13.1559 6.21111 13.4636 6.23413 13.766C6.2896 14.4923 6.41623 15.205 6.50204 15.924C6.53448 16.194 6.56065 16.465 6.58576 16.7371C6.60565 16.9663 6.67053 17.2342 6.62553 17.4624ZM17.904 22.0786C17.905 22.0755 17.9081 22.0713 17.9102 22.0681C17.9071 22.0807 17.9019 22.0922 17.8893 22.1058C17.8506 22.1278 17.8234 22.1393 17.8035 22.1456C17.7888 22.1498 17.7899 22.1435 17.7836 22.1414C17.816 22.1247 17.8537 22.1048 17.904 22.0786ZM23.3783 9.17493C23.3804 9.18644 23.3804 9.19273 23.3804 9.199L23.3396 9.09958C23.3522 9.12365 23.3647 9.14668 23.3783 9.17493ZM23.73 12.3532C23.6986 12.1596 23.5908 11.809 23.5814 11.8833C23.5887 11.9618 23.5866 12.0853 23.5604 12.0947L23.5269 11.9179C23.5217 11.9168 23.5165 11.9147 23.5112 11.9126L23.5081 11.8844L23.2821 10.683L23.4129 9.80389L23.4223 9.82692L23.4181 9.76203L23.4589 9.49203C23.4673 9.5025 23.4725 9.52866 23.4683 9.58203C23.4955 9.5025 23.5008 9.45017 23.5018 9.41145C23.4746 9.36121 23.4516 9.33191 23.4348 9.23458C23.4338 9.2147 23.4399 9.22093 23.4493 9.23558L23.3553 9.06505C23.3836 9.09435 23.3888 9.01586 23.4254 9.12993C23.3291 8.79191 23.1617 8.63283 23.1607 8.48946L23.1753 8.51458C23.0194 8.1912 23.0623 8.33562 23.01 8.30527L22.9932 8.26445L22.9126 8.1012L22.9189 7.91387L22.8509 7.89294C22.831 7.84794 22.7912 7.75794 22.8174 7.76526C22.7044 7.61351 22.8111 7.80294 22.7337 7.72131C22.6855 7.5413 22.5275 7.29223 22.4815 7.152C22.472 7.10909 22.4699 7.07246 22.4836 7.05467C22.4166 6.98874 22.5359 7.27967 22.4197 7.05048C22.4783 6.95106 22.3015 6.77943 22.2627 6.55966C22.3297 6.60676 22.3799 6.80978 22.3412 6.59001C22.2209 6.49373 22.2062 6.18501 22.1267 6.01756C22.1162 6.0207 22.1047 6.01233 22.0869 5.98198C22.0042 5.89512 21.8661 5.62616 21.7185 5.41372C21.728 5.41581 21.6966 5.35197 21.6463 5.25674C21.594 5.15941 21.5239 5.02859 21.4559 4.90406C21.415 4.85801 21.3753 4.81301 21.3387 4.77115C21.3041 4.73138 21.2727 4.6937 21.2455 4.66231L21.2591 4.66126C21.1743 4.6644 20.9766 4.44359 20.8164 4.29707C20.8489 4.27719 20.8866 4.29498 20.9807 4.36719L20.8384 4.22172C20.7903 4.20079 20.7379 4.16312 20.6417 4.07311L20.7107 4.0773L20.6647 4.03125C20.6479 4.0166 20.6312 3.99986 20.6249 3.99567C20.5559 3.90672 20.4868 3.81672 20.4125 3.72044C20.3371 3.61997 20.2618 3.51008 20.1917 3.38136C20.1592 3.38659 20.1948 3.52159 20.1498 3.51741L20.0451 3.36043C20.0608 3.35729 20.0828 3.36776 20.1153 3.40543C20.0943 3.38136 20.0357 3.32276 20.0085 3.26415L20.1236 3.36462C20.0504 3.22334 20.0504 3.31438 19.9824 3.20659C20.0127 3.18985 19.951 3.11554 19.9834 3.11554C20.0033 3.14066 20.0326 3.21496 20.0713 3.24845C20.042 3.20031 20.0117 3.14799 19.9865 3.09775C19.9583 3.04019 19.9321 2.98682 19.9122 2.94601C19.8892 2.92298 19.8673 2.89991 19.861 2.8884C19.8599 2.91142 19.8337 2.92508 19.7469 2.86647C19.5282 2.7074 19.6967 2.77856 19.5805 2.67077C19.5135 2.64984 19.389 2.52844 19.3555 2.56612C19.2916 2.51798 19.2937 2.49077 19.278 2.46146C19.2351 2.43949 19.1619 2.38925 19.0865 2.33693C19.0489 2.31076 19.0112 2.2846 18.9766 2.26158C18.9358 2.23437 18.8992 2.2103 18.8709 2.19251C18.7872 2.17471 18.7694 2.17995 18.8207 2.21344L18.8542 2.226L18.8615 2.23228L18.8542 2.22809L18.8343 2.2239C18.6166 2.18204 18.4262 2.12239 18.221 2.05332C18.1206 2.01878 18.0201 1.9832 17.9207 1.94971L17.771 1.89948C17.7271 1.88587 17.6831 1.87227 17.6402 1.85866C17.6078 1.82936 17.5753 1.80006 17.5429 1.77076L17.5555 1.7582C17.3472 1.58238 17.1138 1.34482 16.9495 1.23493C16.892 1.17842 16.8344 1.08005 16.8731 1.09052C16.8061 1.03296 16.7611 0.994234 16.7182 0.957605C16.5958 0.952373 16.5257 0.94714 16.3373 0.910511C16.5477 0.902139 16.2672 0.878069 16.5518 0.910511C16.285 0.869697 16.2264 0.837253 15.9333 0.855044C16.0359 0.821555 15.7355 0.780741 15.6068 0.781788L15.7921 0.830975C15.6644 0.824696 15.5357 0.808997 15.4373 0.796439L15.4132 0.789113C15.4279 0.783881 15.4352 0.775508 15.4415 0.768182C15.4478 0.758763 15.454 0.749346 15.4697 0.740973C15.4551 0.737834 15.4498 0.736789 15.4478 0.734696C15.4467 0.732603 15.43 0.72737 15.4132 0.72109L15.3661 0.706439C15.3347 0.69702 15.3033 0.688647 15.273 0.679228C15.2112 0.663531 15.1505 0.649926 15.0909 0.638414C14.9705 0.615391 14.8533 0.599693 14.7413 0.583995C14.5163 0.548413 14.3039 0.523297 14.126 0.400853C13.9763 0.395621 14.4044 0.518065 14.2673 0.524344C14.0266 0.440622 13.7974 0.282594 13.7231 0.258524C13.5724 0.195733 13.4907 0.188408 13.4102 0.184222C13.3704 0.182129 13.3306 0.181083 13.2835 0.174804C13.2605 0.171665 13.2343 0.166432 13.2061 0.160153C13.1747 0.152827 13.1559 0.147592 13.0973 0.128754C13.0763 0.126661 13.0481 0.123522 13.0167 0.120383C13.0627 0.144453 13.1025 0.200965 12.8293 0.200965C12.575 0.174802 12.5227 0.0931743 12.6849 0.0889881C12.7456 0.0910812 12.7749 0.100498 12.7718 0.106777C12.8534 0.105731 12.9623 0.104686 12.8628 0.0753828L12.8293 0.093174C12.7048 0.0628247 12.3553 0.0397994 12.439 0.0125897C12.2464 0.0188689 12.3553 0.0398009 12.4965 0.0607315C12.372 0.0408475 12.2674 0.0303829 12.1679 0.0230573C12.0591 0.0157316 11.9555 0.00840655 11.8383 3.43323e-05C11.7996 0.00840655 11.7587 0.0178243 11.7158 0.0272431C11.6813 0.0345687 11.6458 0.0407951 11.6071 0.0481208C11.6615 0.0470743 11.7148 0.0586387 11.6635 0.071197C11.179 0.162245 11.4615 0.159104 11.1392 0.247013C10.9477 0.261664 11.1873 0.159105 10.8671 0.263758C10.663 0.292014 10.8127 0.221895 10.888 0.186314C10.7938 0.222942 10.6861 0.250153 10.6128 0.263758C10.4485 0.279456 10.2779 0.275269 10.167 0.286781L10.324 0.247013C10.2298 0.270036 10.1513 0.281548 10.0717 0.294107L10.1691 0.320271C10.0749 0.327597 9.99535 0.339108 9.9943 0.322363C9.90221 0.363178 10.078 0.377829 9.89174 0.442714C9.76407 0.44062 9.51499 0.521204 9.46371 0.47411C9.8593 0.433295 9.41243 0.427015 9.74313 0.368409C9.68034 0.385153 9.60185 0.396666 9.50767 0.402945C9.49197 0.399806 9.51887 0.390384 9.54399 0.383058C9.49899 0.385151 9.46476 0.387248 9.4365 0.388294C9.43964 0.387248 9.42499 0.387248 9.41348 0.388294C9.40197 0.388294 9.39255 0.389339 9.38313 0.390386C9.36429 0.392479 9.34964 0.39562 9.33708 0.39876C9.31197 0.406085 9.29522 0.415503 9.27429 0.425968C9.23348 0.446899 9.17592 0.469923 9.00533 0.475156C9.05347 0.442714 8.91115 0.421784 8.84731 0.430156C9.00638 0.424923 8.9258 0.478294 8.78033 0.50655C8.52707 0.492946 8.50668 0.534773 8.37482 0.536866L8.52602 0.542133C8.503 0.557831 8.46323 0.565156 8.40881 0.571435C8.35125 0.577715 8.29998 0.580856 8.18276 0.589229C8.1723 0.596554 8.15974 0.605971 8.14613 0.614343C8.13776 0.611204 8.15241 0.596552 8.17648 0.578761C8.15137 0.596552 8.1252 0.614344 8.09799 0.631089C8.07602 0.644694 8.05509 0.655157 8.03206 0.666669C7.98706 0.689693 7.93788 0.711672 7.88764 0.734696C7.78718 0.779696 7.68148 0.829928 7.58624 0.908418C7.46903 0.957604 7.54647 0.866556 7.44496 0.912603C7.35287 0.987953 7.28694 1.02563 7.22624 1.05493C7.17391 1.079 7.12786 1.10098 7.06403 1.13028L7.0567 1.13133C7.04414 1.13551 7.03054 1.1397 7.01589 1.14389C6.98763 1.15331 6.95623 1.16377 6.92065 1.17842C7.02112 1.19203 7.03368 1.17842 6.82646 1.27784L6.96879 1.2297L7.03996 1.20459L7.07554 1.19307L7.08914 1.18679C7.09333 1.18156 7.13414 1.15435 7.16345 1.13342L7.25659 1.06854L7.17077 1.14493C7.14252 1.17005 7.10693 1.2004 7.10065 1.21191C7.09228 1.22133 7.05042 1.24017 7.01693 1.25587C7.05147 1.24645 7.09437 1.23284 7.10693 1.22761C7.15298 1.19412 7.19798 1.16063 7.2388 1.13133C7.2838 1.09888 7.32461 1.07063 7.35705 1.05389C7.23775 1.16691 7.24612 1.15016 7.3288 1.13865C7.28694 1.15016 7.24821 1.16796 7.21159 1.18784C7.17705 1.20668 7.13414 1.23598 7.1174 1.24959C7.08914 1.2611 7.06193 1.27156 7.03263 1.28307C7.00019 1.29563 6.96774 1.30819 6.93426 1.32075C6.86623 1.34482 6.79507 1.36575 6.71658 1.37412L6.6967 1.2747C6.55646 1.29668 6.43297 1.33435 6.30843 1.37936C6.24669 1.40238 6.1839 1.4254 6.11901 1.44947C6.04994 1.47459 6.00285 1.49343 5.87203 1.53424C5.82808 1.58343 5.78098 1.63471 5.73284 1.68808C5.69412 1.72994 5.65121 1.77285 5.60621 1.8168L5.72761 1.7132C5.71087 1.78855 5.52249 1.9382 5.42517 2.06483C5.41051 2.03134 5.33432 2.09511 5.27153 2.12964C5.29665 2.14011 5.02016 2.39239 5.04318 2.4667L5.01911 2.47821C4.99714 2.47507 4.92492 2.49495 4.8705 2.50646C4.50108 2.65402 4.4969 2.78065 4.14422 2.92717C4.23422 2.84659 4.06573 2.89682 4.28864 2.76705C4.17143 2.81938 4.06468 2.86124 4.07305 2.88321C4.05421 2.88531 4.027 2.89786 3.99561 2.91461C3.95375 2.93763 3.90456 2.96484 3.85223 2.9931C3.82084 3.04647 3.7884 3.10089 3.75805 3.15112C3.73398 3.19089 3.70866 3.22436 3.68459 3.24425C3.6668 3.29762 3.68584 3.33217 3.60316 3.44834C3.58851 3.45671 3.58956 3.43787 3.58956 3.43787C3.60316 3.44834 3.48176 3.63567 3.58223 3.55404C3.42735 3.68485 3.27769 3.91404 3.1249 4.13381C2.96687 4.3494 2.81408 4.56184 2.67489 4.67173C2.59536 4.7858 2.50745 4.91243 2.42687 5.02755C2.32431 5.14476 2.23012 5.25046 2.14849 5.34255C2.15267 5.32372 2.13698 5.33104 2.17151 5.29755C1.91302 5.53302 2.09825 5.52151 1.80418 5.78942C1.62627 5.9014 1.92453 5.61465 1.82407 5.69314C1.79162 5.68372 1.75395 5.70674 1.71104 5.74756C1.69011 5.76744 1.66709 5.79256 1.64302 5.82081C1.61371 5.85744 1.58022 5.89616 1.54569 5.93698C1.51743 6.05419 1.50906 6.10233 1.48813 6.17559C1.46825 6.24361 1.44522 6.3085 1.41383 6.36292L1.42534 6.29908C1.33324 6.48536 1.32906 6.7899 1.23069 7.10804C1.23069 7.10804 1.22545 7.08921 1.21499 7.10176C1.21394 7.12165 1.21289 7.14049 1.21394 7.152C1.21394 7.16246 1.20138 7.19804 1.18987 7.22839C1.17731 7.25979 1.16475 7.29328 1.15115 7.32781C1.12289 7.39584 1.09045 7.46909 1.05591 7.5434C0.986843 7.692 0.911495 7.84584 0.845564 7.97771C0.856029 7.86991 0.895797 7.83957 0.827773 7.87201C0.763935 8.00073 0.910447 7.86887 0.782771 8.12631C0.755561 8.15562 0.723119 8.19434 0.677072 8.25504C0.670793 8.27911 0.664514 8.30422 0.658235 8.32725C0.653002 8.34608 0.646723 8.36387 0.639398 8.37957C0.626839 8.41097 0.613235 8.43399 0.598583 8.44027L0.615327 8.2362L0.672886 8.1305C0.650909 8.14306 0.620561 8.18283 0.591258 8.22887C0.587072 8.25294 0.583932 8.27911 0.580792 8.30527L0.576606 8.36178C0.574513 8.39632 0.574512 8.4319 0.575558 8.46643C0.575558 8.53655 0.577652 8.60458 0.568233 8.66109L0.543116 8.64016C0.515906 9.04412 0.578699 9.07342 0.541024 9.48366C0.539978 9.48575 0.538931 9.48994 0.536838 9.49412L0.54835 9.4847C0.552536 9.47843 0.557769 9.47424 0.561955 9.46482C0.564048 9.47424 0.567186 9.48261 0.568233 9.48785C0.564047 9.69506 0.479279 9.65424 0.464628 9.88866L0.380906 9.94204C0.357882 10.0812 0.313928 10.3941 0.260555 10.66C0.256369 10.7102 0.252182 10.752 0.247996 10.7929C0.242763 10.7541 0.238578 10.7165 0.239624 10.6558C0.255322 10.4716 0.297183 10.2382 0.317067 10.0718C0.280438 10.2089 0.206136 10.4988 0.191484 10.6453C0.189391 10.6777 0.192529 10.6861 0.194622 10.6987C0.195669 10.6819 0.19567 10.6652 0.196716 10.6463C0.208228 10.5783 0.212413 10.5291 0.23439 10.48C0.233344 10.5344 0.233345 10.5825 0.224973 10.6526C0.227066 10.8337 0.212414 11.0283 0.175785 11.2638C0.13811 11.2397 0.107761 11.313 0.0815977 11.4302C0.0679928 11.4888 0.0554358 11.5589 0.0428775 11.6332C0.0282261 11.7159 0.0146209 11.8028 -3.05176e-05 11.8875C0.0083417 11.9409 0.0167141 11.9922 0.0250863 12.0424C0.0313655 12.0853 0.0355515 12.1261 0.0397376 12.1638C0.0460168 12.2402 0.047063 12.3061 0.0365978 12.3501C0.0732262 12.4767 0.102528 12.6044 0.128691 12.7331C0.14125 12.798 0.153808 12.8618 0.16532 12.9278L0.183111 13.0262C0.187297 13.0544 0.19567 13.1046 0.19567 13.1067C0.186252 13.2543 0.177878 13.405 0.16846 13.5599C0.160087 13.7221 0.153809 13.8895 0.151716 14.0633C0.258462 13.8341 0.150668 14.2548 0.256367 14.2161C0.256367 14.2673 0.257415 14.3092 0.257415 14.3406C0.27102 14.3898 0.275206 14.4118 0.279392 14.4295C0.282532 14.4463 0.283579 14.4568 0.282532 14.462L0.278346 14.4295C0.280439 14.4442 0.28087 14.4514 0.281916 14.4629L0.333812 14.9256C0.331719 15.0397 0.276253 14.7906 0.257415 14.8094C0.330672 15.1349 0.247997 14.957 0.275207 15.1778C0.300323 15.1244 0.354741 15.2772 0.387183 15.4646L0.369394 15.1935C0.404976 15.2866 0.425907 15.3589 0.438465 15.4196C0.444744 15.4499 0.448929 15.4771 0.452068 15.5022C0.456254 15.5315 0.454163 15.5399 0.460442 15.5849C0.468814 15.6132 0.470906 15.6268 0.472999 15.6414L0.480325 15.6854C0.485558 15.7157 0.491837 15.7471 0.501256 15.7817C0.52114 15.8518 0.553582 15.9365 0.618466 16.0558L0.53265 15.9303C0.639396 16.1469 0.857076 16.7591 1.02347 16.9475C1.02871 16.9914 1.02243 17.0542 0.97638 16.959C1.03289 17.1097 1.10092 17.2677 1.17313 17.4247C1.24952 17.589 1.32592 17.7544 1.39918 17.9134C1.44313 17.971 1.48708 18.0285 1.52999 18.0851C1.56767 18.1363 1.6043 18.1855 1.63883 18.2337C1.70895 18.332 1.7686 18.4252 1.81569 18.512L1.76965 18.4911C1.83767 18.5748 1.91721 18.6167 1.97267 18.7412C1.96011 18.7423 1.92663 18.7203 1.95488 18.7622C1.96744 18.7758 1.99151 18.8019 2.02186 18.8344C2.03651 18.8511 2.05326 18.8689 2.07 18.8888L2.09616 18.9191L2.13802 18.9725C2.17047 18.9966 2.20395 19.0196 2.23535 19.0437C2.25942 19.0615 2.28244 19.0803 2.30128 19.0981L2.18721 19.0468C2.60687 19.4173 2.91664 19.5073 3.2892 19.7951C3.24002 19.8526 3.55293 20.1624 3.70886 20.3163L3.69526 20.3194C3.9234 20.5245 4.12852 20.692 4.3305 20.8552C4.43306 20.9348 4.53352 21.0143 4.63608 21.0949C4.68736 21.1357 4.73969 21.1765 4.79202 21.2184C4.81818 21.2393 4.84539 21.2613 4.87155 21.2822C4.9019 21.3073 4.93225 21.3324 4.9626 21.3576C4.98981 21.3732 5.02016 21.391 5.05155 21.4099C5.21691 21.5784 5.59784 21.8274 5.95052 22.0629C6.13994 22.2178 6.35762 22.3978 6.51983 22.5506C6.45599 22.4815 6.56797 22.514 6.65693 22.5757C6.70193 22.6207 6.77309 22.6657 6.83379 22.7065C6.86414 22.7264 6.89135 22.7452 6.91123 22.762C6.92693 22.7745 6.95728 22.8039 6.95833 22.8164C6.96251 22.8237 6.96147 22.83 6.95309 22.8342L6.94891 22.8321L6.89553 22.7882C6.89658 22.7997 6.91647 22.8237 6.9374 22.8489C6.996 22.8886 7.01379 22.9043 7.05565 22.9294C7.09438 22.9535 7.13833 22.9765 7.18438 22.9996C7.27752 23.0435 7.37903 23.0927 7.46903 23.1356L7.54229 23.0697C7.61659 23.1272 7.70241 23.1827 7.7945 23.235C7.84055 23.2612 7.88869 23.2863 7.93788 23.3114C7.99962 23.3418 8.06137 23.3711 8.12311 23.4014L8.35125 23.4098C8.41509 23.4108 8.47788 23.4119 8.53963 23.4129C8.66312 23.414 8.78452 23.4161 8.89545 23.4171C9.00743 23.4203 9.10999 23.4244 9.19894 23.4349C9.24394 23.4401 9.28476 23.4454 9.32138 23.4537C9.35697 23.4621 9.39673 23.4715 9.39255 23.481C9.39045 23.4747 9.44278 23.4862 9.47732 23.4946C9.51499 23.5029 9.55371 23.5123 9.59348 23.5218C9.67092 23.5406 9.74837 23.5594 9.81849 23.571L9.79651 23.6139C9.9357 23.663 10.0498 23.7028 10.1649 23.7426C10.2224 23.7625 10.281 23.7824 10.3428 23.8022C10.4119 23.8242 10.4841 23.8472 10.5657 23.8734C10.6348 23.8807 10.7499 23.8922 10.8849 23.9069L10.7813 23.9289C11.0565 23.9665 11.1465 23.8336 11.4008 23.8619L11.4689 23.9425L11.6478 23.9676L11.8634 24L12.169 23.9362L12.4379 23.8765C12.6159 23.8347 12.7917 23.7844 12.9602 23.7175C12.956 23.73 12.9476 23.7531 12.8712 23.775C13.0983 23.7363 13.7346 23.5647 13.6278 23.4998C13.6394 23.528 13.7419 23.4987 13.8738 23.4496C13.9397 23.4244 14.0119 23.3941 14.0841 23.3637C14.1197 23.348 14.1553 23.3323 14.1898 23.3177C14.2066 23.3104 14.2244 23.303 14.2401 23.2957L14.2652 23.2853L14.2756 23.2779C14.2809 23.2758 14.3102 23.2685 14.328 23.2643L14.2945 23.3167C14.5048 23.2266 14.509 23.2089 14.8125 23.1503C14.8858 23.1461 14.8816 23.1785 14.7832 23.1796C15.0281 23.1712 14.9653 23.1094 15.2615 23.0937L15.1568 23.1387C15.4048 23.1084 15.3829 23.0948 15.5147 23.0414C15.6686 23.0006 15.9878 22.987 16.0296 23.0247C16.06 22.9933 16.1908 22.9399 16.3383 22.9315C16.3603 22.9451 16.309 22.9629 16.2829 22.9713C16.3729 22.965 16.4524 22.9556 16.5246 22.9441C16.5602 22.9378 16.5937 22.9315 16.6272 22.9252C16.6711 22.9169 16.7141 22.9085 16.7549 22.9001C16.825 22.8342 16.8888 22.7745 16.9516 22.7149C17.0081 22.6647 17.0678 22.6186 17.14 22.5768C17.1546 22.5851 17.1745 22.5788 17.1955 22.5673C17.0071 22.7212 16.8428 22.8551 16.7643 22.919C16.714 22.9252 16.6837 22.9294 16.6753 22.9294C16.6795 22.943 16.7235 22.9472 16.7768 22.9493C16.8606 22.9054 16.9893 22.8216 16.8093 23.0215C16.8082 23.0226 16.8051 23.0236 16.802 23.0247C16.8041 23.0236 16.8061 23.0236 16.8093 23.0226C16.8438 22.988 16.8825 22.9504 16.9223 22.9106C16.9432 22.8865 16.9652 22.8614 16.9882 22.8352C17.0353 22.784 17.0856 22.7285 17.1368 22.672C17.2405 22.56 17.3535 22.4501 17.4602 22.3758C17.4728 22.3706 17.4843 22.3664 17.4958 22.3654L17.4791 22.3863C17.5282 22.3507 17.567 22.313 17.6015 22.2754C17.6695 22.2283 17.7166 22.1958 17.7752 22.1487C17.7805 22.1519 17.7846 22.1529 17.7899 22.1529C17.7941 22.154 17.7962 22.155 17.8014 22.154C17.815 22.1487 17.8296 22.1435 17.8453 22.1372C17.8757 22.1236 17.9102 22.1079 17.9458 22.0912C18.0159 22.0577 18.0902 22.0211 18.1415 21.9959C18.1112 21.9572 18.2723 21.8892 18.107 21.9237C18.1279 21.9185 18.0871 21.9405 18.0065 21.9802C17.9898 21.9897 17.9678 22.0012 17.9573 22.0085C17.9594 22.0064 17.9615 22.0043 17.9636 22.0012L17.7574 22.1016L17.7062 22.1445C17.724 22.1215 17.7428 22.0985 17.748 22.087C17.7564 22.0755 17.8077 22.0451 17.8453 22.0273C17.8862 22.0064 17.9322 21.9886 17.9856 21.974C18.0348 21.9164 18.0902 21.8557 18.1227 21.8243C18.3163 21.8065 18.6522 21.6883 18.714 21.704C18.7401 21.6903 18.7673 21.6757 18.7945 21.66C18.8259 21.6433 18.8584 21.6265 18.8919 21.6087C18.9714 21.5501 19.0541 21.4884 19.1368 21.4277C19.2142 21.368 19.2916 21.3094 19.3649 21.2529C19.5093 21.1388 19.6328 21.0289 19.7019 20.9348C19.7961 20.8573 19.8191 20.8866 19.8798 20.8625C19.8128 20.9191 19.7584 20.9546 19.7312 20.9881C19.7553 20.9693 19.7825 20.9484 19.8118 20.9253C19.8474 20.8981 19.8871 20.8688 19.9269 20.8395C19.9604 20.783 19.9949 20.7244 20.0294 20.6679C20.0567 20.6187 20.0839 20.5706 20.1079 20.5277C20.154 20.4408 20.1833 20.3707 20.1749 20.3403C20.357 20.109 20.1351 20.5109 20.3434 20.1666L20.3308 20.2221C20.4585 20.0693 20.5569 19.9196 20.6417 19.771C20.7317 19.6255 20.8081 19.4811 20.8876 19.3336C21.0477 19.0405 21.2078 18.7329 21.526 18.422C21.4841 18.466 21.4621 18.488 21.4464 18.4922C21.6401 18.2609 21.8284 18.0097 22.0063 17.7659C22.1403 17.6037 22.2753 17.4425 22.4103 17.2803L22.6144 17.0364L22.8373 16.778L22.8791 16.5383L22.92 16.3248C22.9493 16.1846 22.9807 16.0443 23.0162 15.9072C23.0414 15.7963 23.0508 15.7241 23.0529 15.6665C23.0539 15.6372 23.0539 15.6111 23.0518 15.586L23.0497 15.5483C23.0476 15.5399 23.0466 15.5305 23.0445 15.5211C23.0455 15.5127 23.0455 15.5043 23.0466 15.4939C23.0508 15.4803 23.0539 15.4656 23.0581 15.4499L23.1314 15.4175L23.2057 15.1276C23.2548 14.9905 23.3218 14.8775 23.394 14.7655C23.4307 14.7111 23.4683 14.6556 23.506 14.598C23.5248 14.5698 23.5437 14.5405 23.5636 14.5101L23.5908 14.4651L23.6285 14.3971C23.6337 14.3584 23.64 14.3197 23.6462 14.2788C23.6504 14.2454 23.6546 14.2119 23.6567 14.1763C23.6619 14.1051 23.664 14.0298 23.6609 13.9492L23.618 14.013C23.6462 13.8257 23.6651 13.4155 23.7017 13.451C23.6975 13.4312 23.6724 13.3851 23.6986 13.3139L23.7258 13.3108L23.73 13.1245L23.6693 12.8315C23.6494 12.4715 23.7812 12.8765 23.73 12.3532Z"/>
  <path d="M13.4409 13.6582C13.3917 13.7137 13.3456 13.7493 13.309 13.8131C13.2734 13.8748 13.2535 13.9502 13.2117 14.0078C13.0756 14.1972 12.926 14.3824 12.8747 14.6116C12.8192 14.8544 12.656 15.0564 12.5618 15.2856C12.5 15.4363 12.41 15.5116 12.3033 15.6288C12.1829 15.7628 12.0971 15.9156 11.9548 16.0307C11.8962 16.0788 11.8669 16.1039 11.8198 16.1646C11.7329 16.2756 11.6795 16.3352 11.5592 16.2348C11.4127 16.1123 11.285 15.947 11.1584 15.8046C10.9794 15.6027 10.7753 15.4268 10.5943 15.2238C10.4049 15.0103 10.1935 14.8125 9.99255 14.6095C9.78952 14.4054 9.59382 14.1899 9.38033 13.9962C9.26416 13.8916 9.14277 13.7974 9.0266 13.698C8.9837 13.8141 8.94183 13.9303 8.89788 14.0475C8.80579 14.2893 8.71788 14.4892 8.67706 14.7466C8.66137 14.8471 8.6509 14.9465 8.64253 15.0449C8.72206 15.0804 8.79846 15.1202 8.86439 15.1474C8.97114 15.1914 9.08312 15.2531 9.193 15.2845C9.24009 15.2981 9.28196 15.2877 9.31858 15.3264C9.18986 15.3567 9.0266 15.453 8.91253 15.5221C8.82148 15.5775 8.73044 15.6362 8.64043 15.6968C8.65718 15.7973 8.68962 15.8946 8.75241 15.9846C8.85288 16.1291 8.98579 16.2588 9.103 16.3876C9.23172 16.5267 9.36568 16.6586 9.49335 16.7988C9.57289 16.8878 9.63359 16.9799 9.7215 17.0615C9.82824 17.1609 9.91301 17.2509 10.0041 17.3671C10.1715 17.5785 10.3976 17.7533 10.587 17.9427C10.6833 18.039 10.8476 18.1374 10.9669 18.197C11.0904 18.2587 11.2149 18.2483 11.3447 18.2671C11.4399 18.2797 11.533 18.3006 11.6262 18.3174C11.7612 18.0317 11.7852 17.6863 11.9569 17.4111C12.0019 17.4289 12.0762 17.4812 12.1107 17.5168C12.1526 17.5607 12.1693 17.6549 12.1913 17.7093C12.2373 17.815 12.297 17.9144 12.341 18.0201C12.3723 18.0934 12.387 18.175 12.4111 18.2514C12.4142 18.2598 12.4247 18.2807 12.4362 18.3037C12.4467 18.3017 12.4571 18.3017 12.4686 18.2996C12.5555 18.287 12.6089 18.3037 12.6936 18.2608C12.7418 18.2357 12.7805 18.2001 12.8318 18.1813C12.9207 18.1478 12.9689 18.1604 13.0568 18.0997C13.0997 18.0704 13.1457 18.0369 13.1855 18.0013C13.4482 17.7658 13.7266 17.4529 13.9097 17.1536C14.0248 16.9663 14.0866 16.7507 14.1797 16.5487C14.2645 16.3645 14.3545 16.1824 14.4351 15.9951C14.5135 15.813 14.6234 15.6278 14.6653 15.4342C14.6799 15.3682 14.6894 15.3034 14.6967 15.2395C14.4989 15.2657 14.2969 15.2887 14.1106 15.2406C14.1033 15.161 14.2414 15.0354 14.2927 14.9727C14.4078 14.8293 14.5313 14.6671 14.7082 14.6221C14.7124 14.621 14.7176 14.62 14.7228 14.6189C14.726 14.5174 14.727 14.4169 14.7092 14.3217C14.6799 14.1616 14.6192 13.9994 14.5805 13.8414C14.5397 13.676 14.4476 13.5358 14.3754 13.3819C14.2938 13.2061 14.2226 13.023 14.1232 12.8566C14.1148 12.8419 14.1044 12.8283 14.096 12.8147C14.006 12.934 13.916 13.0533 13.826 13.1716C13.7025 13.3348 13.5759 13.5054 13.4409 13.6582Z"/>
  <path d="M9.8997 13.5777C9.98237 13.6603 10.0787 13.7378 10.1467 13.833C10.2032 13.9136 10.2346 13.9848 10.312 14.0486C10.5266 14.2275 10.7317 14.4295 10.963 14.5876C11.0854 14.6702 11.233 14.7393 11.3156 14.8607C11.3941 14.9769 11.414 14.9706 11.5563 14.9706C11.6474 14.9716 11.7562 14.9528 11.841 14.9256C12.0032 14.8733 12.0294 14.6828 12.1089 14.5572C12.1644 14.4693 12.246 14.4044 12.3193 14.3312C12.3737 14.2778 12.426 14.2223 12.471 14.1606C12.5401 14.0664 12.583 13.9628 12.6217 13.8539C12.7421 13.5222 12.9022 13.1779 13.1377 12.911C13.2224 12.8126 13.325 12.7499 13.4066 12.6442C13.4757 12.5521 13.5406 12.4568 13.6086 12.3647C13.5709 12.3501 13.5291 12.3344 13.4799 12.3124C13.3334 12.2454 13.2329 12.19 13.0623 12.1805C12.8875 12.1701 12.7149 12.1366 12.538 12.1387C12.3611 12.1408 12.2272 12.1188 12.0587 12.0717C12.0576 12.0738 12.0566 12.0769 12.0555 12.079C12.0105 12.1795 11.9781 12.2695 11.9519 12.3762C11.9436 12.4097 11.9268 12.529 11.8944 12.5489C11.8065 12.6054 11.7562 12.4401 11.7238 12.3762C11.6359 12.2067 11.5365 12.0497 11.4506 11.8833C11.2497 11.8457 11.0572 11.8404 10.8499 11.8404C10.5433 11.8404 10.0734 12.1366 10.0232 12.1879C9.86725 12.3469 9.74062 12.5207 9.60144 12.6923C9.50934 12.8053 9.41725 12.9236 9.33457 13.0471C9.35655 13.0753 9.37853 13.1036 9.40469 13.1297C9.56167 13.2846 9.74167 13.4196 9.8997 13.5777Z"/>
  <path d="M8.18446 0.575593C8.18237 0.575593 8.18142 0.575567 8.17933 0.576613C8.18142 0.576613 8.18237 0.575593 8.18446 0.575593Z"/>
  <path d="M18.0069 21.9791C18.0185 21.9728 18.0237 21.9676 18.0383 21.9603C18.0206 21.9645 18.0038 21.9686 17.986 21.9728C17.9787 21.9822 17.9703 21.9917 17.964 22C17.9787 21.9927 17.9933 21.9854 18.0069 21.9791Z"/>
  <path d="M18.8071 2.20816C18.8186 2.21339 18.8291 2.21867 18.8343 2.2239C18.8259 2.21867 18.827 2.21658 18.8207 2.21344L18.8071 2.20816Z"/>
  <path d="M22.8092 7.62499C22.6659 7.20638 22.8113 7.72441 22.6177 7.31103L22.758 7.63022C22.7485 7.56743 22.7349 7.48475 22.8092 7.62499Z"/>
  <path d="M22.2854 6.30216C22.2278 6.19751 22.2131 6.17239 22.2477 6.30844C22.322 6.48007 22.2718 6.29693 22.2854 6.30216Z"/>
  <path d="M16.8291 1.02246L16.873 1.00467C16.7244 0.868623 16.8657 1.02037 16.8291 1.02246Z"/>
  <path d="M14.5632 0.490815L14.3278 0.447908L14.5004 0.481397L14.5632 0.490815Z"/>
  <path d="M2.81441 4.39957L2.88348 4.39643C2.93476 4.31375 2.89813 4.26143 2.81441 4.39957Z"/>
  <path d="M0.497297 9.52236C0.50253 9.50562 0.507763 9.49097 0.511949 9.47841C0.511949 9.46899 0.511949 9.46166 0.511949 9.45643C0.507763 9.46585 0.504623 9.46899 0.500437 9.47632C0.494158 9.47946 0.484739 9.49725 0.474274 9.52132C0.464855 9.54225 0.456483 9.56632 0.448111 9.59143C0.432413 9.64167 0.421947 9.69399 0.421947 9.73795C0.437645 9.68562 0.456483 9.63434 0.473227 9.58829C0.4816 9.56422 0.489972 9.54225 0.497297 9.52236Z"/>
  <path d="M7.65836 23.2193L7.85825 23.2978L7.76824 23.2517L7.65836 23.2193Z"/>
</svg>
