<svg width="20" height="24" viewBox="0 0 20 24" fill="#000000" xmlns="http://www.w3.org/2000/svg">
  <path d="M9.57546 5.78352e-05C9.43695 -0.00539521 9.3039 0.376318 9.269 0.485379C9.15776 0.831102 9.20792 1.24662 9.1523 1.60871C9.08469 2.04386 9.00398 2.45938 9.0018 2.89672C9.00071 3.25989 8.85457 3.56744 8.86765 3.93498C8.8971 4.76602 8.68007 5.62106 8.63863 6.4521C8.595 7.29187 8.50012 8.15018 8.49467 8.99104C8.49139 9.49817 8.56228 9.97259 8.63972 10.4677C8.67353 10.6793 8.66262 10.892 8.69643 11.1035C8.74114 11.374 8.84257 11.6194 8.86874 11.8921C8.90801 12.3032 9.05742 12.71 9.03997 13.1266C9.02907 13.3927 8.94836 13.6327 8.95927 13.9021C8.96908 14.1616 9.01162 14.419 9.0138 14.6797C9.01816 15.0592 9.04651 15.4464 9.02034 15.8215C8.98544 16.2992 9.07596 16.7311 9.14576 17.2077C9.21229 17.6647 9.02579 18.0747 9.0825 18.547C9.09777 18.6756 9.1872 19.1741 9.05306 19.2482C8.98108 19.1304 8.81749 19.0028 8.72588 18.8949C8.595 18.74 8.50012 18.6538 8.40633 18.463C8.22747 18.0987 8.01371 17.8893 7.76287 17.5785C7.44332 17.1804 7.13141 16.7507 6.76932 16.3908C6.44105 16.0647 6.37998 15.5543 6.0757 15.2141C5.89793 15.2577 5.83467 15.7779 5.77796 15.9437C5.67217 16.2545 5.85212 16.5141 5.7965 16.8456C5.7387 17.1881 5.71361 17.5698 5.73215 17.9188C5.73979 18.0671 6.14986 18.0638 6.22293 18.1805C6.68207 17.9558 6.1106 17.2033 6.72352 17.9438C7.28845 18.6255 7.64726 19.4467 8.04643 20.2439C8.36052 20.8689 8.67462 21.4938 8.98762 22.1187C9.09341 22.3292 9.1992 22.5375 9.30281 22.7491C9.40642 22.9606 9.53838 23.0861 9.66816 23.2682C9.80885 23.4634 9.88628 23.9247 10.1284 24C10.1764 23.7862 10.1295 23.5419 10.1535 23.3206C10.1927 22.977 10.1873 22.6498 10.2178 22.3074C10.2789 21.6345 10.2625 20.9474 10.3356 20.2799C10.3989 19.7106 10.3432 19.1173 10.376 18.5393C10.3956 18.1892 10.4839 17.8435 10.4011 17.4836C10.3607 17.3124 10.3007 17.1935 10.292 17.0179C10.2811 16.8074 10.34 16.5904 10.3258 16.3745C10.2942 15.9055 10.2505 15.4202 10.2822 14.9512C10.2985 14.7015 10.4032 14.4877 10.3629 14.2303C10.3302 14.0198 10.316 13.8541 10.3138 13.6392C10.3062 12.9903 10.2353 12.3272 10.1448 11.6859C10.1164 11.4831 10.0706 11.2933 10.0335 11.0926C9.98008 10.8102 10.0302 10.5582 10.0193 10.2671C10.0084 9.99222 10.0041 9.72066 10.0073 9.44691C10.0084 9.30513 9.93209 8.91688 10.0521 8.84926C10.2789 9.08701 10.3738 9.484 10.5352 9.77301C10.7784 10.2103 11.1525 10.5713 11.387 11.0065C11.4546 11.133 11.4971 11.2442 11.5855 11.3566C11.604 11.3806 11.6858 11.3969 11.7218 11.4405C11.8428 11.59 11.8995 11.8244 11.9922 11.9957C12.1558 12.2999 12.3794 12.5279 12.5365 12.8485C12.5964 12.9729 12.6335 13.1768 12.7917 13.1474C12.9138 13.1255 12.9825 12.8791 13.0174 12.7842C13.1112 12.5312 13.1919 12.2792 13.289 12.0284C13.5431 11.3675 13.4188 11.6772 13.4264 10.9378C13.2584 11.3904 13.205 10.6684 12.9945 11.1035C12.7731 11.0785 12.5397 10.3598 12.4361 10.1525C12.2845 9.85044 12.0391 9.50144 11.9693 9.17099C11.905 8.86889 11.8188 8.53735 11.7087 8.23634C11.6585 8.09892 11.5702 8.00404 11.5386 7.8579C11.5015 7.69321 11.5015 7.60378 11.4197 7.44456C11.2724 7.16209 11.135 6.87526 10.9911 6.59061C10.8504 6.3125 10.8068 6.05512 10.6988 5.76829C10.5112 5.27315 10.3454 4.76711 10.1644 4.2687C10.0292 3.89462 10.0215 3.50309 9.83939 3.15955C9.78595 2.74512 9.97462 2.41685 10.063 2.19982C10.1829 1.90644 10.2658 1.59889 10.1568 1.28807C10.0139 0.88127 9.57328 0.440664 9.57546 5.78352e-05Z"/>
  <path d="M11.1765 4.88601C11.4993 4.83693 11.9639 5.10959 12.2398 5.25682C12.7906 5.55128 13.313 5.88392 13.8638 6.17293C14.3142 6.40959 14.7221 6.64407 15.1419 6.9309C15.4779 7.16102 15.6033 7.40205 15.8356 7.70633C16.0711 8.01497 16.2707 8.23091 16.3613 8.64534C16.4485 9.03687 16.4769 9.37932 16.5118 9.77848C16.5717 10.4492 17.1934 11.024 17.3068 11.6532C17.3341 11.8103 17.2992 11.9662 17.3243 12.1211C17.3483 12.2716 17.442 12.3261 17.4737 12.4636C17.5435 12.7722 17.4933 13.3546 17.4497 13.6687C17.4257 13.8421 17.3493 13.997 17.2883 14.1616C17.2566 14.2456 17.309 14.3274 17.2599 14.4125C17.2272 14.4681 17.1356 14.4856 17.1029 14.539C17.0145 14.6862 17.0429 14.8171 16.9676 14.9676C16.948 15.008 16.8269 15.0341 16.7931 15.0778C16.7092 15.1857 16.6644 15.3068 16.5903 15.4224C16.4267 15.6787 16.5903 15.9339 16.4038 16.176C16.2075 16.4323 15.9283 16.982 15.9283 16.982L15.4299 17.5742C15.4299 17.5742 13.3446 19.6496 12.7579 19.956C12.3751 20.1556 12.0337 20.4163 11.6389 20.5733C11.4917 20.6311 11.3717 20.6562 11.2038 20.702C11.0849 20.7347 10.7512 20.8144 10.641 20.8798C10.8482 20.7544 11.0903 20.834 11.3139 20.7827C11.5037 20.7402 11.6924 20.6966 11.8876 20.6529C12.1646 20.5908 12.3042 20.5439 12.603 20.5559C12.8658 20.5657 12.9531 20.4828 13.1701 20.4217C13.939 20.2036 14.7482 20.2069 15.4004 19.6801C15.769 19.3824 16.0722 19.0574 16.2816 18.6506C16.4376 18.3452 16.6557 18.1718 16.9022 17.9221C17.4769 17.3386 17.8728 16.633 18.4356 16.0462C19.0507 15.406 19.2895 14.2271 19.4575 13.3502C19.5295 12.974 19.488 12.4679 19.4804 12.0851C19.4728 11.7645 19.2459 11.6609 19.1903 11.3751C19.1488 11.1657 19.2099 10.8844 19.2132 10.6706C19.2306 9.67706 18.9373 8.83511 18.3658 8.00842C17.9317 7.37914 17.4911 6.59391 16.9076 6.0835C16.5336 5.75632 16.069 5.69088 15.6262 5.49675C15.4746 5.42913 15.3415 5.28735 15.1768 5.23719C14.878 5.14558 14.5356 5.11613 14.228 5.01579C13.8823 4.90455 13.6794 4.79549 13.3217 4.78458C13.0829 4.77804 12.8451 4.77586 12.6074 4.7715C12.3729 4.76713 12.1199 4.79222 11.8898 4.76168C11.6346 4.72787 11.4753 4.61663 11.2059 4.58064C11.1983 4.54138 11.1918 4.50212 11.1765 4.88601Z"/>
  <path d="M7.81415 4.83034C7.84032 4.84016 7.8665 4.84997 7.89267 4.85979C7.69091 5.09209 7.2852 5.28512 7.03545 5.36474C6.8784 5.41491 6.67664 5.49016 6.51196 5.52397C6.43235 5.53924 6.35055 5.50216 6.27094 5.51415C6.12479 5.53705 6.07899 5.61776 5.95793 5.64393C5.73217 5.6941 5.5435 5.70065 5.32647 5.76608C5.13343 5.8228 5.03091 5.85115 4.85423 5.9384C4.7419 5.99293 4.61757 5.99947 4.49542 6.07145C4.35692 6.15434 4.21296 6.26013 4.07118 6.32884C3.77344 6.47389 3.48334 6.67456 3.28158 6.99084C3.11689 7.24931 3.00892 7.59285 2.87696 7.87423C2.71446 8.22213 2.52251 8.60603 2.40582 8.96048C2.27385 9.36509 2.03719 9.73263 1.93249 10.1525C1.84524 10.507 1.72855 10.8625 1.67293 11.2377C1.6413 11.4558 1.72201 11.6979 1.69038 11.9149C1.6533 12.1669 1.56496 12.3272 1.57041 12.5933C1.57368 12.7863 1.6184 13.0917 1.58023 13.2771C1.5486 13.432 1.47444 13.5029 1.4559 13.6741C1.40791 14.1092 1.46571 14.5924 1.46789 15.0319C1.47226 15.888 1.758 16.4028 2.31203 16.9895C2.49852 17.1869 2.6752 17.3985 2.86169 17.5905C3.14961 17.8871 3.40263 18.127 3.68401 18.403C3.95339 18.6669 4.2315 18.8981 4.49651 19.1762C4.74626 19.4401 5.13343 19.848 5.44862 19.9898C5.78452 20.1414 6.11389 20.2254 6.46725 20.3104C6.50869 20.3203 6.54468 20.4042 6.60684 20.4217C6.7159 20.4511 6.86095 20.3955 6.9722 20.4086C7.14233 20.4282 7.39753 20.5209 7.5295 20.6518C7.27102 20.7816 6.75517 20.3355 6.49996 20.2723C6.40835 20.2494 6.30038 20.2886 6.20659 20.2701C6.12698 20.2548 6.11389 20.1654 6.02337 20.1403C5.76707 20.0716 5.55877 20.1828 5.30357 20.0542C5.13125 19.9669 4.92512 19.8142 4.75717 19.763C4.55105 19.6997 4.31002 19.691 4.10608 19.6223C3.79089 19.5176 3.50951 19.3736 3.24777 19.1173C2.97293 18.8468 2.63048 18.68 2.31639 18.4455C2.03719 18.2372 1.81144 17.91 1.63367 17.6003C1.43627 17.2578 1.21596 16.9536 1.13308 16.5784C1.04256 16.1683 0.910592 15.6983 0.756817 15.3144C0.697924 15.1671 0.574685 14.8803 0.541967 14.7374C0.51143 14.6055 0.545239 14.4811 0.519064 14.3535C0.500524 14.2619 0.431815 14.2565 0.418728 14.1965C0.322754 13.7799 0.130807 13.3742 0.0544649 12.9794C-0.024059 12.5758 0.00102466 12.0731 0.0162932 11.6554C0.0271993 11.3435 0.195153 11.1471 0.254046 10.8516C0.326026 10.4884 0.371832 10.0969 0.451446 9.72717C0.549601 9.26694 0.67284 8.81979 0.828797 8.40645C0.986935 7.98656 1.14944 7.51106 1.38174 7.13916C1.55841 6.85669 1.90414 6.60803 2.14516 6.39209C2.47562 6.09654 2.86278 5.9155 3.1856 5.60685C3.57168 5.23714 4.10826 5.01138 4.58594 4.81507C4.94257 4.66893 5.39627 4.43445 5.79216 4.43772C6.26657 4.44317 6.74208 4.43118 7.21758 4.42791C7.45534 4.42682 7.69309 4.42681 7.92975 4.42354C8.03445 4.42136 8.1915 4.38646 8.29292 4.41373C8.44016 4.45299 8.45979 4.61549 7.81415 4.83034Z"/>
</svg>
