<?xml version="1.0" encoding="UTF-8" standalone="no"?>
<!-- Created with Inkscape (http://www.inkscape.org/) -->

<svg
   width="21.871222"
   height="24"
   viewBox="0 0 5.7867606 6.35"
   version="1.1"
   id="svg24792"
   inkscape:version="1.2.1 (9c6d41e4, 2022-07-14)"
   sodipodi:docname="bad_luck.svg"
   xmlns:inkscape="http://www.inkscape.org/namespaces/inkscape"
   xmlns:sodipodi="http://sodipodi.sourceforge.net/DTD/sodipodi-0.dtd"
   xmlns="http://www.w3.org/2000/svg"
   xmlns:svg="http://www.w3.org/2000/svg">
  <sodipodi:namedview
     id="namedview24794"
     pagecolor="#505050"
     bordercolor="#eeeeee"
     borderopacity="1"
     inkscape:showpageshadow="0"
     inkscape:pageopacity="0"
     inkscape:pagecheckerboard="0"
     inkscape:deskcolor="#505050"
     inkscape:document-units="mm"
     showgrid="false"
     inkscape:zoom="0.70199214"
     inkscape:cx="22.792278"
     inkscape:cy="-4.2735521"
     inkscape:window-width="1390"
     inkscape:window-height="938"
     inkscape:window-x="0"
     inkscape:window-y="25"
     inkscape:window-maximized="0"
     inkscape:current-layer="layer1" />
  <defs
     id="defs24789">
    <clipPath
       clipPathUnits="userSpaceOnUse"
       id="clipPath4331">
      <path
         d="m 352.339,430.603 h 24.7 v 24.7 h -24.7 z"
         id="path4329" />
    </clipPath>
  </defs>
  <g
     inkscape:label="Layer 1"
     inkscape:groupmode="layer"
     id="layer1"
     transform="translate(-99.057719,-149.60293)">
    <g
       id="g4325"
       transform="matrix(0.29500174,0,0,-0.29500174,-5.6994618,283.48549)">
      <g
         id="g4327"
         clip-path="url(#clipPath4331)">
        <g
           id="g4333"
           transform="translate(373.99,437.12)">
          <path
             d="m 0,0 c -0.247,-0.371 -1.353,-0.665 -1.74,-0.918 -0.26,-0.17 -0.436,-0.468 -0.704,-0.619 -0.388,-0.219 -0.92,-0.235 -1.336,-0.374 -0.789,-0.262 -1.521,-0.933 -2.307,-1.17 -0.343,-0.104 -0.702,-0.28 -1.049,-0.342 -0.366,-0.065 -0.68,-0.202 -1.023,-0.344 -0.125,-0.051 -0.346,-0.074 -0.529,-0.128 -0.039,0.703 -0.137,1.513 -0.137,2.096 0,1.353 -0.309,2.663 -0.311,4.002 -0.001,1.355 0.199,2.703 0.156,4.054 -0.016,0.487 0.166,0.936 0.201,1.411 0.593,0.318 1.316,0.44 1.855,0.869 0.637,0.505 1.365,0.689 2.14,0.914 1.24,0.361 2.495,1.117 3.65,1.661 0.153,0.072 0.465,0.134 0.748,0.219 -0.086,-0.497 -0.01,-1.088 -0.012,-1.57 C -0.402,8.563 -0.451,7.145 -0.395,5.947 -0.357,5.158 -0.328,4.307 -0.205,3.536 -0.089,2.805 0.11,2.155 0.107,1.387 0.105,0.896 0.275,0.413 0,0 m -12.124,-2.851 c -0.48,0.124 -0.858,0.355 -1.283,0.577 -0.621,0.324 -1.211,0.84 -1.898,1.01 -0.549,0.136 -1.058,0.283 -1.576,0.558 -0.255,0.136 -0.912,0.468 -1.041,0.727 -0.195,0.393 0.107,1.059 0.193,1.443 0.198,0.885 0.313,1.821 0.127,2.71 -0.286,1.373 -0.392,2.87 -0.535,4.279 -0.099,0.978 0.311,2.099 0.195,3.064 0.172,-0.111 0.373,-0.214 0.475,-0.274 0.462,-0.271 1.134,-0.242 1.38,-0.617 0.391,-0.236 0.843,-0.561 1.256,-0.762 0.58,-0.283 1.141,-0.277 1.649,-0.638 0.422,-0.3 0.814,-0.362 1.285,-0.539 0.458,-0.172 0.907,-0.4 1.382,-0.517 C -9.99,8.04 -9.412,8.131 -9.631,7.519 -9.808,7.024 -9.805,6.7 -9.716,6.167 -9.553,5.192 -9.753,4.399 -9.929,3.441 c -0.12,-0.647 -0.214,-0.967 -0.032,-1.626 0.244,-0.884 0.48,-1.841 0.548,-2.757 0.032,-0.422 -0.194,-2.071 0.023,-3.015 -0.408,0.089 -0.733,0.35 -1.141,0.487 -0.519,0.173 -1.072,0.485 -1.593,0.619 m -4.413,15.655 c 0.332,0.201 0.703,0.301 1.032,0.482 0.584,0.321 1.151,0.41 1.79,0.622 0.69,0.229 1.108,0.79 1.789,1 0.622,0.191 1.293,0.281 1.897,0.533 0.226,0.095 0.399,0.322 0.612,0.399 0.293,0.107 0.175,0.03 0.421,-0.145 0.442,-0.315 1.068,-0.381 1.572,-0.645 0.636,-0.335 1.09,-0.925 1.769,-1.2 0.698,-0.282 1.306,-0.472 1.972,-0.877 0.3,-0.183 0.562,-0.209 0.875,-0.349 0.286,-0.128 0.502,-0.378 0.787,-0.522 0.238,-0.121 0.55,-0.19 0.863,-0.216 C -1.462,11.698 -1.773,11.433 -2.01,11.324 -2.301,11.191 -2.557,11.064 -2.873,10.969 -3.714,10.716 -4.52,10.335 -5.352,10.04 -6.199,9.739 -7.293,9.546 -8.01,8.995 -8.292,8.779 -8.645,8.39 -9.019,8.393 c -0.372,0.003 -0.876,0.369 -1.248,0.496 -0.617,0.212 -1.184,0.519 -1.825,0.675 -0.695,0.169 -0.932,0.316 -1.499,0.729 -0.263,0.192 -0.57,0.303 -0.872,0.447 -0.589,0.281 -1.151,0.584 -1.733,0.878 -0.426,0.215 -0.892,0.481 -1.378,0.606 0.017,0.023 0.034,0.043 0.05,0.072 0.32,0.012 0.716,0.343 0.987,0.508 M 0.649,1.964 C 0.586,2.752 0.487,3.525 0.386,4.305 0.302,4.951 0.395,5.619 0.282,6.257 0.004,7.825 0.198,9.718 0.185,11.316 c -0.039,0.058 -0.077,0.135 -0.132,0.2 0.064,0.044 0.113,0.093 0.136,0.149 -0.254,0.15 -0.422,0.399 -0.74,0.424 -0.828,0.878 -2.174,1.098 -3.304,1.582 -0.917,0.393 -1.752,1.077 -2.613,1.578 -0.631,0.368 -1.373,0.545 -1.967,0.929 -0.188,0.122 -0.394,0.372 -0.565,0.467 -0.279,0.156 -0.18,0.029 -0.485,-0.116 -0.347,-0.164 -0.785,-0.11 -1.147,-0.272 -0.258,-0.116 -0.411,-0.304 -0.638,-0.474 -0.286,-0.215 -0.591,-0.25 -0.905,-0.399 -0.254,-0.119 -0.467,-0.313 -0.708,-0.446 -0.575,-0.316 -1.064,-0.448 -1.709,-0.655 -0.303,-0.098 -0.617,-0.291 -0.913,-0.435 -0.469,-0.228 -1.018,-0.337 -1.457,-0.619 -0.338,-0.216 -0.997,-0.561 -1.256,-0.94 -0.014,-10e-4 -0.028,0 -0.042,-10e-4 0.005,-0.015 0.008,-0.031 0.012,-0.046 -0.019,-0.031 -0.035,-0.063 -0.048,-0.095 0.023,-0.006 0.045,-0.012 0.067,-0.019 0.008,-0.089 0.004,-0.186 -0.009,-0.289 l -0.008,-0.001 c 10e-4,-0.005 0.005,-0.011 0.006,-0.016 -0.061,-0.448 -0.282,-0.982 -0.354,-1.315 -0.155,-0.72 -0.29,-1.449 -0.289,-2.188 0.002,-1.291 0.022,-2.638 0.187,-3.907 0.147,-1.128 0.239,-2.256 0.279,-3.377 0.019,-0.525 -0.06,-0.99 -0.033,-1.51 0.404,-0.108 0.595,-0.209 0.928,-0.488 0.254,-0.214 0.69,-0.69 0.976,-0.834 0.178,-0.09 0.522,-0.012 0.731,-0.042 0.316,-0.046 0.673,-0.119 0.978,-0.225 0.368,-0.129 0.581,-0.358 0.886,-0.582 0.431,-0.317 0.923,-0.387 1.403,-0.588 0.544,-0.229 1.044,-0.483 1.643,-0.607 0.461,-0.096 1.716,-1.116 2.14,-0.914 0.01,-0.021 0.018,-0.038 0.024,-0.05 0.475,-0.048 0.944,0.376 1.343,0.459 0.566,0.118 1.077,0.463 1.63,0.633 1.027,0.316 1.957,1.09 2.963,1.436 0.459,0.158 0.951,0.279 1.391,0.505 0.345,0.178 0.624,0.685 0.942,0.901 0.351,0.238 0.712,0.046 1.012,0.215 0.181,0.103 0.127,0.261 0.148,0.466 0.089,0.864 0.03,1.292 -0.039,2.154"
             style="fill:#231f20;fill-opacity:1;fill-rule:nonzero;stroke:none"
             id="path4335" />
        </g>
        <g
           id="g4337"
           transform="translate(364.049,448.967)">
          <path
             d="M 0,0 C 0.313,-0.105 1.244,-0.151 1.429,0.113 1.576,0.322 1.504,0.749 1.27,0.885 0.889,1.106 0.489,0.92 0.108,0.665 -0.454,0.686 -0.429,0.143 0,0"
             style="fill:#231f20;fill-opacity:1;fill-rule:nonzero;stroke:none"
             id="path4339" />
        </g>
        <g
           id="g4341"
           transform="translate(369.369,440.775)">
          <path
             d="M 0,0 C 0.004,0.006 0.011,0.009 0.016,0.015 0.02,0.029 0.026,0.044 0.029,0.059 Z"
             style="fill:#231f20;fill-opacity:1;fill-rule:nonzero;stroke:none"
             id="path4343" />
        </g>
        <g
           id="g4345"
           transform="translate(369.321,440.678)">
          <path
             d="M 0,0 0.049,0.097 C 0.027,0.07 0.01,0.039 0,0"
             style="fill:#231f20;fill-opacity:1;fill-rule:nonzero;stroke:none"
             id="path4347" />
        </g>
        <g
           id="g4349"
           transform="translate(369.385,440.789)">
          <path
             d="M 0,0 C -0.131,-0.425 -0.61,-1.005 -0.133,-1.285 0.204,-1.482 0.868,-1.353 1.063,-1.026 1.452,-0.376 0.309,0.325 0,0"
             style="fill:#231f20;fill-opacity:1;fill-rule:nonzero;stroke:none"
             id="path4351" />
        </g>
        <g
           id="g4353"
           transform="translate(359.865,441.28)">
          <path
             d="m 0,0 c -0.279,-0.015 -0.549,-0.352 -0.525,-0.763 0.018,-0.312 0.094,-0.637 0.443,-0.71 0.113,-0.024 0.631,0.337 0.675,0.466 0.069,0.199 -0.068,0.451 -0.142,0.633 C 0.338,-0.098 0.168,0.009 0,0"
             style="fill:#231f20;fill-opacity:1;fill-rule:nonzero;stroke:none"
             id="path4355" />
        </g>
      </g>
    </g>
  </g>
</svg>
