<?xml version="1.0" encoding="UTF-8" standalone="no"?>
<!-- Created with Inkscape (http://www.inkscape.org/) -->

<svg
   width="17.242678"
   height="24"
   viewBox="0 0 4.562125 6.35"
   version="1.1"
   id="svg26123"
   inkscape:version="1.2.1 (9c6d41e4, 2022-07-14)"
   sodipodi:docname="beast_thralls.svg"
   xmlns:inkscape="http://www.inkscape.org/namespaces/inkscape"
   xmlns:sodipodi="http://sodipodi.sourceforge.net/DTD/sodipodi-0.dtd"
   xmlns="http://www.w3.org/2000/svg"
   xmlns:svg="http://www.w3.org/2000/svg">
  <sodipodi:namedview
     id="namedview26125"
     pagecolor="#505050"
     bordercolor="#eeeeee"
     borderopacity="1"
     inkscape:showpageshadow="0"
     inkscape:pageopacity="0"
     inkscape:pagecheckerboard="0"
     inkscape:deskcolor="#505050"
     inkscape:document-units="mm"
     showgrid="false"
     inkscape:zoom="0.70199214"
     inkscape:cx="113.96139"
     inkscape:cy="243.59247"
     inkscape:window-width="1390"
     inkscape:window-height="938"
     inkscape:window-x="0"
     inkscape:window-y="25"
     inkscape:window-maximized="0"
     inkscape:current-layer="layer1" />
  <defs
     id="defs26120">
    <clipPath
       clipPathUnits="userSpaceOnUse"
       id="clipPath16317">
      <path
         d="m 136.15,419.904 h 24.7 v 24.699 h -24.7 z"
         id="path16315" />
    </clipPath>
  </defs>
  <g
     inkscape:label="Layer 1"
     inkscape:groupmode="layer"
     id="layer1"
     transform="translate(-75.022589,-84.172405)">
    <g
       id="g16311"
       transform="matrix(0.30719418,0,0,-0.30719418,31.558445,219.89109)">
      <g
         id="g16313"
         clip-path="url(#clipPath16317)">
        <g
           id="g16319"
           transform="translate(152.241,439.98)">
          <path
             d="M 0,0 C 0.579,-0.241 2.086,1.11 1.799,1.808 1.366,1.909 0.611,1.393 0.209,1.191 -0.325,0.922 -0.659,0.7 -0.951,0.173 -0.515,-0.21 -0.032,-0.224 0.458,0.128 0.307,0.081 0.154,0.039 0,0"
             style="fill:#231f20;fill-opacity:1;fill-rule:nonzero;stroke:none"
             id="path16321" />
        </g>
        <g
           id="g16323"
           transform="translate(153.74,438.349)">
          <path
             d="M 0,0 C -0.737,-0.197 -1.417,-0.132 -1.825,-0.887 -1.992,-1.194 -2.173,-1.618 -2.107,-1.992 -1.206,-2.07 0.744,-1.355 0.447,-0.239 0.246,-0.004 0.023,0.133 0,0"
             style="fill:#231f20;fill-opacity:1;fill-rule:nonzero;stroke:none"
             id="path16325" />
        </g>
        <g
           id="g16327"
           transform="translate(153.567,434.777)">
          <path
             d="m 0,0 c -0.687,-0.006 -1.722,-0.505 -2.061,-1.142 -0.409,-0.769 0.162,-0.784 0.77,-0.543 0.74,0.295 1.391,0.304 1.867,0.913 0.115,0.147 0.396,0.485 0.311,0.658 C 0.694,0.277 0.056,-0.179 0,0"
             style="fill:#231f20;fill-opacity:1;fill-rule:nonzero;stroke:none"
             id="path16329" />
        </g>
        <g
           id="g16331"
           transform="translate(153.839,431.687)">
          <path
             d="m 0,0 c -0.71,-0.38 -1.475,-0.169 -1.829,-1.051 -0.121,-0.301 -0.135,-0.782 0.013,-1.114 0.687,0.149 1.196,0.715 1.871,0.92 0.113,0.181 0.428,0.244 0.518,0.453 C 0.722,-0.447 0.34,0.042 0,0"
             style="fill:#231f20;fill-opacity:1;fill-rule:nonzero;stroke:none"
             id="path16333" />
        </g>
        <g
           id="g16335"
           transform="translate(144.646,440.73)">
          <path
             d="m 0,0 c -0.772,0.175 -1.509,1.272 -2.359,1.026 -0.1,-0.029 -0.179,-0.114 -0.187,-0.217 -0.06,-0.705 1.763,-1.909 2.582,-1.553 0.158,0.068 0.193,0.264 0.093,0.403 -0.001,0 -0.001,0.001 -0.002,0.002 C 0.095,-0.291 0.056,-0.013 0,0"
             style="fill:#231f20;fill-opacity:1;fill-rule:nonzero;stroke:none"
             id="path16337" />
        </g>
        <g
           id="g16339"
           transform="translate(144.934,436.648)">
          <path
             d="M 0,0 C -0.139,0.893 -1.041,1.099 -1.733,1.297 -2.115,1.406 -3.466,1.766 -2.806,0.755 -2.629,0.484 -2.023,0.432 -1.766,0.264 -1.388,0.016 -1.238,-0.137 -0.838,-0.275 -0.452,-0.408 0.231,-0.546 0,0"
             style="fill:#231f20;fill-opacity:1;fill-rule:nonzero;stroke:none"
             id="path16341" />
        </g>
        <g
           id="g16343"
           transform="translate(145.05,433.448)">
          <path
             d="m 0,0 c -0.603,0.776 -2.525,2.156 -2.739,0.412 0.646,-0.221 1.33,-0.43 1.968,-0.639 0.318,-0.105 0.876,-0.334 0.751,0.173 C -0.088,-0.057 -0.161,-0.05 0,0"
             style="fill:#231f20;fill-opacity:1;fill-rule:nonzero;stroke:none"
             id="path16345" />
        </g>
        <g
           id="g16347"
           transform="translate(145.164,430.744)">
          <path
             d="m 0,0 c -0.318,0.118 -3.238,1.53 -2.808,0.114 0.146,-0.482 1.13,-0.623 1.469,-0.803 0.57,-0.302 0.976,-0.699 1.372,-0.282 C 0.599,-0.375 0.194,-0.156 0,0"
             style="fill:#231f20;fill-opacity:1;fill-rule:nonzero;stroke:none"
             id="path16349" />
        </g>
        <g
           id="g16351"
           transform="translate(150.593,439.287)">
          <path
             d="m 0,0 c -0.021,-0.021 -0.031,-0.035 -0.025,-0.038 -0.033,0.012 -0.067,-0.01 -0.095,-0.031 -0.28,-0.211 -2.581,-2.064 -2.501,-2.326 -0.245,0.804 -0.882,1.403 -1.367,2.033 -0.301,0.391 -1.097,0.626 -1.26,1.02 0.157,0.093 0.342,0.158 0.507,0.178 -0.011,-0.227 1.127,-0.794 1.386,-1.063 0.205,-0.214 0.469,-0.462 0.633,-0.699 0.133,-0.192 0.077,-0.378 0.309,-0.523 0.565,0.519 1.114,0.975 1.756,1.424 0.282,0.198 0.763,0.766 1.061,0.386 C 0.417,0.344 0.096,0.096 0,0"
             style="fill:#231f20;fill-opacity:1;fill-rule:nonzero;stroke:none"
             id="path16353" />
        </g>
        <g
           id="g16355"
           transform="translate(145.639,436.471)">
          <path
             d="M 0,0 C 0.384,-0.203 0.872,-0.212 1.25,-0.47 1.622,-0.725 1.736,-1.059 2.008,-1.396 2.344,-1.81 2.819,-1.984 2.933,-2.556 2.785,-0.585 4.33,-0.121 5.475,0.909 5.61,0.06 4.754,-0.216 4.287,-0.789 3.729,-1.473 2.839,-2.068 2.869,-3.023 2.239,-2.529 1.8,-1.998 1.301,-1.316 c -0.364,0.496 -0.904,0.704 -1.403,1.042 0.058,0.08 0.067,0.108 0.162,0.168 C 0.202,-0.159 0.001,-0.168 0,0"
             style="fill:#231f20;fill-opacity:1;fill-rule:nonzero;stroke:none"
             id="path16357" />
        </g>
        <g
           id="g16359"
           transform="translate(150.553,433.555)">
          <path
             d="m 0,0 c -0.467,-0.207 -0.679,-0.878 -1.027,-1.219 -0.354,-0.348 -0.813,-0.418 -1.03,-0.872 -0.823,0.475 -1.685,1.641 -2.681,1.741 -0.023,-0.093 -0.021,-0.236 0.002,-0.326 0.229,-0.152 0.418,-0.316 0.664,-0.48 0.292,-0.195 0.659,-0.342 0.903,-0.585 0.435,-0.434 0.63,-1.129 1.328,-1.225 C -1.712,-2.282 0.467,-0.629 0,0"
             style="fill:#231f20;fill-opacity:1;fill-rule:nonzero;stroke:none"
             id="path16361" />
        </g>
        <g
           id="g16363"
           transform="translate(146.452,430.067)">
          <path
             d="m 0,0 c 0.071,-0.578 1.172,-0.905 1.648,-1.213 0.31,-0.201 0.622,-0.559 0.752,-0.881 0.251,0.503 1.102,1.889 1.765,1.8 C 4.244,-0.85 1.333,-4.019 1.985,-3.252 1.937,-3.229 1.899,-3.206 1.84,-3.193 1.873,-2.025 1.126,-1.525 0.326,-0.969 0.128,-0.832 -0.44,-0.635 -0.401,-0.341 -0.34,0.124 0.174,-0.36 0,0"
             style="fill:#231f20;fill-opacity:1;fill-rule:nonzero;stroke:none"
             id="path16365" />
        </g>
        <g
           id="g16367"
           transform="translate(152.159,427.736)">
          <path
             d="M 0,0 C -0.061,0.016 -0.096,-0.025 -0.111,0.044 0.754,0.258 2.255,1.055 2.916,1.692 3.408,0.089 4.738,-1.052 3.919,-2.888 3.538,-3.743 2.909,-4.615 2.194,-5.207 1.604,-5.696 0.825,-5.847 0.163,-6.206 c 1.085,0.764 2.173,1.881 2.241,3.369 0.066,1.446 -1.346,2.46 -2.512,2.814 C -0.116,-0.092 -0.08,-0.106 0,0"
             style="fill:#231f20;fill-opacity:1;fill-rule:nonzero;stroke:none"
             id="path16369" />
        </g>
        <g
           id="g16371"
           transform="translate(145.667,427.336)">
          <path
             d="m 0,0 c 0.061,0.016 0.096,-0.025 0.111,0.044 -0.865,0.214 -2.366,1.011 -3.027,1.648 -0.492,-1.603 -1.822,-2.744 -1.003,-4.58 0.381,-0.855 1.01,-1.727 1.725,-2.319 0.59,-0.489 1.369,-0.64 2.031,-0.999 -1.085,0.764 -2.173,1.881 -2.241,3.369 -0.066,1.446 1.346,2.46 2.512,2.814 C 0.116,-0.092 0.08,-0.106 0,0"
             style="fill:#231f20;fill-opacity:1;fill-rule:nonzero;stroke:none"
             id="path16373" />
        </g>
        <g
           id="g16375"
           transform="translate(146.67,425.907)">
          <path
             d="m 0,0 c 0,-1.711 1.115,-3.155 1.829,-4.525 0.001,0.792 -0.226,1.592 -0.114,2.381 0.051,0.357 0.234,0.519 0.344,0.852 0.093,0.285 0.035,0.64 0.109,0.929 1.157,-0.795 0.98,-2.991 1.32,-4.162 0.569,0.685 0.779,2.4 1.029,3.354 0.103,0.394 0.182,0.908 0.117,1.345 C 4.577,0.55 4.279,0.914 4.28,1.307 3.712,1.021 2.95,-0.077 2.197,-0.167 1.465,-0.255 0.568,0.929 -0.103,1.195 -0.133,0.74 -0.29,0.091 0,0"
             style="fill:#231f20;fill-opacity:1;fill-rule:nonzero;stroke:none"
             id="path16377" />
        </g>
      </g>
    </g>
  </g>
</svg>
