<?xml version="1.0" encoding="UTF-8" standalone="no"?>
<!-- Created with Inkscape (http://www.inkscape.org/) -->

<svg
   width="20.669346"
   height="24"
   viewBox="0 0 5.4687643 6.35"
   version="1.1"
   id="svg23844"
   inkscape:version="1.2.1 (9c6d41e4, 2022-07-14)"
   sodipodi:docname="extracurricular_activity.svg"
   xmlns:inkscape="http://www.inkscape.org/namespaces/inkscape"
   xmlns:sodipodi="http://sodipodi.sourceforge.net/DTD/sodipodi-0.dtd"
   xmlns="http://www.w3.org/2000/svg"
   xmlns:svg="http://www.w3.org/2000/svg">
  <sodipodi:namedview
     id="namedview23846"
     pagecolor="#505050"
     bordercolor="#eeeeee"
     borderopacity="1"
     inkscape:showpageshadow="0"
     inkscape:pageopacity="0"
     inkscape:pagecheckerboard="0"
     inkscape:deskcolor="#505050"
     inkscape:document-units="mm"
     showgrid="false"
     inkscape:zoom="0.70199214"
     inkscape:cx="-99.716216"
     inkscape:cy="29.914865"
     inkscape:window-width="1390"
     inkscape:window-height="938"
     inkscape:window-x="0"
     inkscape:window-y="25"
     inkscape:window-maximized="0"
     inkscape:current-layer="layer1" />
  <defs
     id="defs23841">
    <clipPath
       clipPathUnits="userSpaceOnUse"
       id="clipPath1009">
      <path
         d="m 55.717,321.301 h 24.7 V 346 h -24.7 z"
         id="path1007" />
    </clipPath>
  </defs>
  <g
     inkscape:label="Layer 1"
     inkscape:groupmode="layer"
     id="layer1"
     transform="translate(-131.51742,-140.4506)">
    <g
       id="g1003"
       transform="matrix(0.31760984,0,0,-0.31760984,112.56711,250.00285)">
      <g
         id="g1005"
         clip-path="url(#clipPath1009)">
        <g
           id="g1011"
           transform="translate(66.923,344.796)">
          <path
             d="m 0,0 c -0.242,0.247 -0.681,0.089 -0.961,-0.02 -0.35,-0.137 -0.519,-0.242 -0.114,-0.414 0.202,-0.086 0.49,0.083 0.641,-0.118 0.144,-0.193 0.042,-0.533 0.051,-0.77 0.012,-0.292 0.116,-0.594 0.137,-0.899 0.026,-0.394 -0.068,-0.75 -0.139,-1.135 -0.156,-0.85 -0.189,-1.633 -0.225,-2.498 -0.028,-0.661 0.067,-2.075 -0.24,-2.636 -0.735,-0.073 -1.52,-1.185 -1.997,-1.785 -0.454,-0.57 -0.784,-1.325 -1.182,-1.961 -0.517,-0.828 -1.015,-1.606 -1.463,-2.485 -0.4,-0.784 -1.005,-1.121 -1.305,-1.974 -0.245,-0.698 -0.542,-1.399 -0.44,-2.132 0.09,-0.645 0.071,-0.597 0.522,-0.605 1.394,-0.027 2.759,-0.161 4.153,-0.242 0.582,-0.034 1.17,-0.148 1.745,-0.18 0.751,-0.041 1.52,0.092 2.285,0.045 0.407,-0.025 0.834,-0.105 1.235,0.026 0.36,0.118 0.678,0.34 1.064,0.381 0.788,0.083 1.603,0.089 2.381,0.07 0.743,-0.019 1.495,0.183 2.242,0.164 0.403,-0.01 0.807,-0.066 1.211,-0.084 0.161,-0.008 0.286,0.153 0.295,0.35 0.013,0.279 0.128,0.645 0.017,0.838 -0.457,0.796 -0.15,1.283 -0.744,1.931 -0.636,0.694 -1.035,1.287 -1.541,2.056 -0.488,0.742 -0.675,1.363 -1.585,2.949 -0.257,0.447 -0.907,0.59 -1.191,0.998 -0.178,0.255 -0.357,0.649 -0.591,0.84 -0.344,0.281 -0.566,0.567 -0.777,0.987 -0.209,0.414 -0.146,1.168 -0.232,1.665 -0.143,0.833 -0.219,1.637 -0.214,2.49 0.004,0.715 0.096,1.819 0.067,2.53 -0.014,0.327 -0.041,0.771 0.232,0.991 0.207,0.167 0.527,-0.066 0.718,0.132 0.327,0.337 -0.062,0.446 -0.343,0.479 C 2.907,0.078 2.471,-0.18 2.426,-1.295 2.405,-1.83 2.453,-2.746 2.425,-3.3 2.377,-4.241 2.343,-5.298 2.514,-6.086 c 0.18,-0.835 -0.212,-1.976 0.158,-2.716 0.191,-0.382 0.582,-0.516 0.853,-0.792 0.46,-0.47 0.88,-1.052 1.296,-1.578 0.437,-0.554 0.784,-1.092 1.164,-1.695 0.225,-0.358 0.561,-0.594 0.774,-0.961 0.163,-0.281 0.252,-0.677 0.398,-0.958 0.326,-0.626 0.959,-1.055 1.258,-1.697 0.163,-0.35 0.228,-0.759 0.47,-1.07 0.133,-0.171 0.321,-0.261 0.363,-0.464 -0.753,-0.349 -1.88,-0.241 -2.683,-0.2 -0.641,0.033 -1.364,0.173 -1.987,0.069 -0.676,-0.113 -1.297,-0.307 -1.944,-0.541 -0.9,-0.326 -1.961,-0.163 -2.9,-0.202 -1.069,-0.044 -2.153,0.203 -3.225,0.265 -0.308,0.018 -2.034,-0.406 -1.952,0.343 -0.359,0.122 -0.756,0.104 -1.124,0.14 -0.06,0.445 0.488,1.052 0.7,1.393 0.495,0.795 0.79,1.806 1.248,2.658 0.5,0.93 0.998,1.551 1.739,2.205 0.149,0.132 0.021,0.258 0.12,0.448 0.052,0.099 0.331,0.242 0.385,0.343 0.227,0.425 0.633,0.679 0.956,0.99 0.319,0.307 1.034,0.763 1.209,1.151 0.116,0.256 0.097,0.604 0.086,0.902 -0.026,0.716 0.007,1.428 0.04,2.148 0.021,0.429 0.107,0.721 0.211,1.125 0.135,0.528 0.039,0.848 0.031,1.366 C 0.153,-3.075 0.633,0.393 -0.054,0.001 0.072,-0.004 0.198,-0.011 0,0"
             style="fill:#231f20;fill-opacity:1;fill-rule:nonzero;stroke:none"
             id="path1013" />
        </g>
        <g
           id="g1015"
           transform="translate(61.9332,330.577)">
          <path
             d="M 0,0 C 0.695,-0.018 1.049,0.398 1.657,0.522 2.155,0.624 2.392,0.097 2.924,0.131 3.138,0.145 3.41,0.344 3.615,0.312 3.883,0.271 3.966,-0.109 4.243,-0.175 4.452,-0.225 4.716,-0.105 4.934,-0.09 5.185,-0.073 5.5,-0.208 5.72,-0.174 6.063,-0.121 6.122,0.163 6.407,0.348 6.693,0.534 7.197,0.664 7.532,0.686 8.437,0.745 9.223,0.53 10.105,0.756 10.797,0.933 11.66,0.734 12.062,0.104 11.679,-0.278 10.866,0.188 10.386,0.229 10.013,0.261 9.629,0.215 9.255,0.232 8.896,0.248 8.532,0.285 8.165,0.263 7.637,0.232 7.485,0.043 7.098,-0.137 6.769,-0.289 6.362,-0.233 6.008,-0.375 5.589,-0.542 5.349,-0.592 4.833,-0.592 3.848,-0.593 2.88,-0.584 1.93,-0.456 1.547,-0.405 1.22,-0.21 0.825,-0.237 0.433,-0.263 -0.064,-0.599 -0.411,-0.54 -0.427,-0.356 -0.393,-0.174 0,0"
             style="fill:#231f20;fill-opacity:1;fill-rule:nonzero;stroke:none"
             id="path1017" />
        </g>
        <g
           id="g1019"
           transform="translate(72.6077,332.447)">
          <path
             d="m 0,0 c -0.62,0.044 -1.152,0.467 -1.8,0.355 -0.251,-0.044 -1.053,-0.279 -1.118,-0.484 0.633,-0.037 1.252,-0.144 1.905,-0.144 0.3,0 0.584,-0.014 0.876,-0.049 0.187,-0.022 0.828,-0.122 0.694,-0.088"
             style="fill:#231f20;fill-opacity:1;fill-rule:nonzero;stroke:none"
             id="path1021" />
        </g>
        <g
           id="g1023"
           transform="translate(72.4639,333.3)">
          <path
             d="M 0,0 C -0.819,-0.068 -1.868,-0.043 -2.65,0.098 -2.537,0.541 -0.806,0.769 0,0"
             style="fill:#231f20;fill-opacity:1;fill-rule:nonzero;stroke:none"
             id="path1025" />
        </g>
        <g
           id="g1027"
           transform="translate(71.0761,334.36)">
          <path
             d="M 0,0 C -0.455,0.232 -0.988,0.115 -1.481,0.144 -1.598,0.71 0.116,0.93 0.232,0.182"
             style="fill:#231f20;fill-opacity:1;fill-rule:nonzero;stroke:none"
             id="path1029" />
        </g>
        <g
           id="g1031"
           transform="translate(74.3713,329.575)">
          <path
             d="m 0,0 c -0.269,-0.002 -3.631,0.555 -3.316,-0.207 0.172,-0.419 1.869,-0.308 2.248,-0.34 0.712,-0.06 1.02,-0.048 1.609,0.285 C 0.494,-0.082 0.4,0.099 0,0"
             style="fill:#231f20;fill-opacity:1;fill-rule:nonzero;stroke:none"
             id="path1033" />
        </g>
        <g
           id="g1035"
           transform="translate(76.1813,327.797)">
          <path
             d="M 0,0 C -0.744,-0.001 -1.54,0.472 -2.347,0.501 -3.017,0.526 -3.702,0.583 -4.338,0.447 -4.406,0.361 -4.458,0.2 -4.455,0.101 -3.762,-0.144 -2.894,0.044 -2.171,-0.139 -1.409,-0.332 -0.823,-0.499 0,0"
             style="fill:#231f20;fill-opacity:1;fill-rule:nonzero;stroke:none"
             id="path1037" />
        </g>
        <g
           id="g1039"
           transform="translate(73.7679,331.398)">
          <path
             d="m 0,0 c -0.602,-0.021 -1.228,0.184 -1.823,0.133 -0.398,-0.034 -0.754,-0.25 -1.145,-0.372 0.282,-0.327 0.764,-0.151 1.159,-0.21 0.368,-0.055 0.69,-0.249 1.067,-0.284 0.383,-0.035 0.738,0.066 1.113,0.095"
             style="fill:#231f20;fill-opacity:1;fill-rule:nonzero;stroke:none"
             id="path1041" />
        </g>
      </g>
    </g>
  </g>
</svg>
