<?xml version="1.0" encoding="UTF-8" standalone="no"?>
<!-- Created with Inkscape (http://www.inkscape.org/) -->

<svg
   width="22.012224"
   height="24"
   viewBox="0 0 5.8240675 6.35"
   version="1.1"
   id="svg25062"
   inkscape:version="1.2.1 (9c6d41e4, 2022-07-14)"
   sodipodi:docname="hideous_abominations.svg"
   xmlns:inkscape="http://www.inkscape.org/namespaces/inkscape"
   xmlns:sodipodi="http://sodipodi.sourceforge.net/DTD/sodipodi-0.dtd"
   xmlns="http://www.w3.org/2000/svg"
   xmlns:svg="http://www.w3.org/2000/svg">
  <sodipodi:namedview
     id="namedview25064"
     pagecolor="#505050"
     bordercolor="#eeeeee"
     borderopacity="1"
     inkscape:showpageshadow="0"
     inkscape:pageopacity="0"
     inkscape:pagecheckerboard="0"
     inkscape:deskcolor="#505050"
     inkscape:document-units="mm"
     showgrid="false"
     inkscape:zoom="0.70199214"
     inkscape:cx="28.490347"
     inkscape:cy="245.01699"
     inkscape:window-width="1390"
     inkscape:window-height="938"
     inkscape:window-x="0"
     inkscape:window-y="25"
     inkscape:window-maximized="0"
     inkscape:current-layer="layer1" />
  <defs
     id="defs25059">
    <clipPath
       clipPathUnits="userSpaceOnUse"
       id="clipPath4447">
      <path
         d="m 360.066,383.512 h 24.699 v 24.699 h -24.699 z"
         id="path4445" />
    </clipPath>
  </defs>
  <g
     inkscape:label="Layer 1"
     inkscape:groupmode="layer"
     id="layer1"
     transform="translate(-97.763659,-83.491018)">
    <g
       id="g4441"
       transform="matrix(0.28351862,0,0,-0.28351862,-4.9117216,198.89569)">
      <g
         id="g4443"
         clip-path="url(#clipPath4447)">
        <g
           id="g4449"
           transform="translate(382.399,395.918)">
          <path
             d="m 0,0 c 0.312,0.815 0.387,1.608 0.138,2.438 -0.419,1.4 -1.31,2.539 -2.075,3.728 -0.463,0.721 -0.908,1.386 -1.508,1.952 -0.412,0.168 -0.785,0.435 -1.049,0.776 -1.201,0.706 -2.66,1.111 -3.905,1.693 -0.91,0.425 -1.833,0.586 -2.841,0.528 -0.139,-0.008 -0.282,-0.021 -0.428,-0.039 -1.812,-0.224 -4.013,-1.225 -3.809,-3.347 0.133,-1.386 0.874,-2.832 2.468,-3.05 0.852,-0.117 3.419,0.406 3.553,1.427 C -7.627,5.94 -6.207,5.515 -4.888,4.104 -4.602,3.798 -4.351,3.478 -4.134,3.148 -3.716,2.906 -3.501,2.449 -3.482,1.982 -3.314,1.749 -3.153,1.511 -3.047,1.248 -2.871,1.124 -2.775,0.911 -2.881,0.64 -2.898,0.598 -2.913,0.556 -2.929,0.513 -2.939,0.355 -2.971,0.198 -3.016,0.044 c 0.072,-0.555 0.092,-1.123 0.065,-1.697 -0.013,-0.262 -0.045,-0.525 -0.09,-0.786 0.083,-0.346 0.022,-0.692 -0.1,-1.019 0.018,-0.059 0.028,-0.125 0.024,-0.2 -0.002,-0.04 -0.006,-0.078 -0.01,-0.117 0.005,-0.114 -0.016,-0.226 -0.062,-0.324 -0.199,-0.7 -0.764,-1.15 -1.211,-1.752 C -4.466,-5.939 -4.542,-6.002 -4.622,-6.047 -4.838,-6.335 -5.07,-6.611 -5.317,-6.87 -5.93,-7.512 -6.703,-8.005 -7.325,-8.632 -7.899,-9.209 -8.593,-9.36 -9.383,-9.49 c -2.064,-0.337 -4.31,-0.536 -5.661,0.343 1.531,-1.127 4.08,-2.926 7.903,-1.728 0.217,0.301 0.541,0.511 0.927,0.63 0.258,0.08 0.579,0.101 0.882,0.156 0.065,0.037 0.13,0.075 0.192,0.114 0.26,0.451 0.574,0.87 0.958,1.233 0.194,0.183 0.404,0.35 0.621,0.505 0.097,0.178 0.223,0.342 0.381,0.492 0.231,0.219 0.498,0.39 0.755,0.575 0.209,0.326 0.413,0.668 0.612,1.032 0.751,1.375 2.008,2.91 2.1,4.485 C 0.338,-0.781 -0.289,-0.756 0,0"
             style="fill:#231f20;fill-opacity:1;fill-rule:nonzero;stroke:none"
             id="path4451" />
        </g>
        <g
           id="g4453"
           transform="translate(367.269,391.531)">
          <path
             d="m 0,0 c -0.614,0.537 -1.237,1.17 -1.715,1.825 -0.336,0.461 -0.484,0.797 -0.515,1.166 -0.063,0.084 -0.124,0.17 -0.18,0.262 -0.14,0.228 -0.091,0.525 0.082,0.716 -0.005,0.13 10e-4,0.262 0.026,0.393 0.042,0.216 0.1,0.43 0.17,0.64 -0.002,0.178 0.027,0.357 0.084,0.524 0.003,0.239 0.054,0.478 0.178,0.708 0.199,0.368 0.538,0.62 0.918,0.775 0.327,0.362 0.696,0.682 1.099,0.94 0.077,0.049 0.157,0.088 0.24,0.118 0.171,0.109 0.353,0.215 0.55,0.318 -1.258,0.707 -2.342,2.302 -2.223,3.836 C -1.975,11.877 -2.592,11.3 -3.077,10.796 -3.46,10.398 -3.806,9.915 -4.1,9.38 -4.121,9.07 -4.185,8.764 -4.303,8.458 -4.342,8.359 -4.399,8.272 -4.468,8.2 -4.538,7.991 -4.651,7.8 -4.81,7.647 -4.843,7.532 -4.873,7.415 -4.901,7.299 -4.925,6.853 -4.963,6.407 -4.968,5.96 -4.969,5.79 -5.03,5.659 -5.122,5.563 -5.126,4.923 -5.038,4.301 -4.843,3.733 -4.539,3.485 -4.265,3.207 -4.107,2.836 -4.022,2.635 -4.011,2.432 -4.094,2.26 -2.578,-0.054 0.056,-1.398 2.886,-1.419 1.797,-1.05 0.917,-0.802 0,0"
             style="fill:#231f20;fill-opacity:1;fill-rule:nonzero;stroke:none"
             id="path4455" />
        </g>
        <g
           id="g4457"
           transform="translate(372.93,400.75)">
          <path
             d="m 0,0 c -0.403,-0.635 -1.409,-0.959 -2.118,-1.205 0.878,-0.123 2.381,-1.124 2.842,-1.82 0.71,-1.07 1.564,-2.506 1.425,-3.765 -0.228,-2.057 -0.716,-3.527 -2.299,-4.895 -0.786,-0.679 -2.055,-0.579 -3.089,-0.836 1.232,-0.088 2.074,-0.653 3.155,0.023 1.027,0.643 2.527,1.622 3.171,2.55 1.981,2.851 2.127,5.998 -0.257,7.89 C 2.152,-1.521 0.82,0.635 0,0"
             style="fill:#231f20;fill-opacity:1;fill-rule:nonzero;stroke:none"
             id="path4459" />
        </g>
      </g>
    </g>
  </g>
</svg>
