<?xml version="1.0" encoding="UTF-8" standalone="no"?>
<!-- Created with Inkscape (http://www.inkscape.org/) -->

<svg
   width="24.133207"
   height="24"
   viewBox="0 0 6.3852443 6.35"
   version="1.1"
   id="svg26783"
   inkscape:version="1.2.1 (9c6d41e4, 2022-07-14)"
   sodipodi:docname="lost_in_time_and_space.svg"
   xmlns:inkscape="http://www.inkscape.org/namespaces/inkscape"
   xmlns:sodipodi="http://sodipodi.sourceforge.net/DTD/sodipodi-0.dtd"
   xmlns="http://www.w3.org/2000/svg"
   xmlns:svg="http://www.w3.org/2000/svg">
  <sodipodi:namedview
     id="namedview26785"
     pagecolor="#505050"
     bordercolor="#eeeeee"
     borderopacity="1"
     inkscape:showpageshadow="0"
     inkscape:pageopacity="0"
     inkscape:pagecheckerboard="0"
     inkscape:deskcolor="#505050"
     inkscape:document-units="mm"
     showgrid="false"
     inkscape:zoom="0.70199214"
     inkscape:cx="219.37567"
     inkscape:cy="289.17703"
     inkscape:window-width="1390"
     inkscape:window-height="938"
     inkscape:window-x="0"
     inkscape:window-y="25"
     inkscape:window-maximized="0"
     inkscape:current-layer="layer1" />
  <defs
     id="defs26780">
    <clipPath
       clipPathUnits="userSpaceOnUse"
       id="clipPath20681">
      <path
         d="m 55.717,236.992 h 24.7 v 24.7 h -24.7 z"
         id="path20679" />
    </clipPath>
  </defs>
  <g
     inkscape:label="Layer 1"
     inkscape:groupmode="layer"
     id="layer1"
     transform="translate(-47.136499,-72.034884)">
    <g
       id="g20675"
       transform="matrix(0.27321229,0,0,-0.27321229,31.722627,143.33892)">
      <g
         id="g20677"
         clip-path="url(#clipPath20681)">
        <g
           id="g20683"
           transform="translate(76.0032,249.668)">
          <path
             d="m 0,0 c -0.58,-0.168 -1.213,-0.275 -1.71,-0.603 -0.531,-0.349 -1.037,-0.69 -1.56,-1.072 -0.517,-0.379 -1.119,-0.455 -1.448,-1.046 -0.327,-0.587 -0.78,-1.096 -1.126,-1.715 -0.421,-0.753 -0.767,-1.648 -1.282,-2.312 -0.297,-0.384 -0.532,-0.884 -0.684,-1.391 -0.103,0.391 -0.316,0.651 -0.474,1.08 -0.164,0.442 -0.21,0.909 -0.503,1.278 -0.417,0.523 -0.794,1.186 -1.116,1.837 -0.161,0.101 -0.303,0.229 -0.408,0.399 -0.112,0.183 -0.18,0.39 -0.242,0.599 -0.327,0.384 -0.822,0.427 -1.056,0.876 -0.115,0.1 -0.236,0.199 -0.367,0.3 -0.497,0.384 -1.082,0.545 -1.598,0.814 -1.221,0.636 -2.334,0.93 -3.635,1.178 1.267,0.255 2.615,0.7 3.806,1.261 0.517,0.244 1.102,0.391 1.598,0.738 0.774,0.542 1.249,0.85 1.688,1.707 0.364,0.711 0.989,1.484 1.501,2.068 0.294,0.334 0.168,0.414 0.332,0.815 0.158,0.389 0.372,0.625 0.474,0.98 0.152,-0.46 0.387,-0.912 0.684,-1.259 C -6.611,5.929 -6.265,5.117 -5.844,4.435 -5.498,3.874 -5.045,3.413 -4.718,2.881 -4.389,2.345 -3.787,2.276 -3.27,1.933 -2.747,1.586 -2.241,1.277 -1.71,0.96 -1.213,0.663 -0.58,0.566 0,0.414 0.282,0.34 0.583,0.273 0.893,0.217 0.583,0.156 0.282,0.082 0,0 M 3.78,0.253 C 3.751,0.253 3.721,0.254 3.69,0.256 3.493,0.301 3.29,0.332 3.085,0.353 2.825,0.412 2.584,0.484 2.434,0.531 1.717,0.757 1.002,0.892 0.271,1.039 -0.335,1.161 -1.171,1.276 -1.705,1.622 -2.109,1.884 -2.423,2.346 -2.873,2.578 -3.206,2.75 -3.524,2.773 -3.797,3.032 -3.922,3.151 -4.086,3.318 -4.229,3.454 -4.642,3.846 -5.071,4.345 -5.451,4.785 -5.85,5.247 -5.67,5.844 -6.071,6.337 -6.33,6.655 -6.643,6.892 -6.907,7.207 -7.175,7.524 -7.184,7.618 -7.26,7.966 c -0.108,0.492 -0.203,1.04 -0.386,1.556 -0.01,0.03 -0.021,0.061 -0.032,0.091 0.031,0.191 0.054,0.374 0.002,0.587 -0.081,0.338 -0.219,0.74 -0.277,1.116 C -7.967,11.314 -7.982,11.313 -7.996,11.312 -7.997,11.306 -7.998,11.301 -8,11.295 l 0.003,0.017 C -8.004,11.311 -8.01,11.31 -8.017,11.31 -8.024,11.274 -8.03,11.238 -8.036,11.198 c -0.009,-0.019 -0.016,-0.04 -0.027,-0.058 0.006,-0.004 0.012,-0.007 0.018,-0.011 -0.008,-0.064 -0.014,-0.132 -0.019,-0.202 -0.083,-0.414 -0.215,-0.802 -0.215,-1.272 0,-0.554 -0.002,-0.904 -0.21,-1.375 -0.484,-1.098 -0.785,-2.028 -1.632,-2.963 -0.271,-0.299 -0.476,-0.78 -0.737,-1.146 -0.18,-0.253 -0.505,-0.366 -0.667,-0.626 -0.308,-0.493 -0.924,-0.879 -1.437,-1.184 -1.122,-0.666 -2.503,-1.323 -3.743,-1.526 -0.535,-0.088 -1.038,-0.211 -1.581,-0.265 -0.253,-0.043 -0.506,-0.085 -0.758,-0.132 -0.136,-0.033 -0.272,-0.063 -0.407,-0.086 -0.045,-0.01 -0.09,-0.022 -0.135,-0.032 0,-0.001 0,-0.002 0,-0.002 0.052,-0.033 0.101,-0.07 0.149,-0.109 0.008,-0.001 0.015,-0.001 0.023,-0.002 0.295,-0.06 0.581,-0.145 0.862,-0.241 0.318,-0.002 0.643,-0.051 0.91,-0.23 0.007,-0.005 0.014,-0.011 0.021,-0.016 0.304,-0.06 0.605,-0.129 0.916,-0.185 1.24,-0.223 2.449,-0.724 3.571,-1.459 0.427,-0.28 0.895,-0.579 1.217,-0.981 0.332,-0.416 0.665,-0.599 0.982,-1.026 0.308,-0.416 0.753,-0.731 0.988,-1.192 0.211,-0.414 0.236,-0.915 0.509,-1.291 0.133,-0.184 0.32,-0.328 0.431,-0.527 0.274,-0.49 0.301,-1.198 0.518,-1.739 0.208,-0.52 0.21,-0.906 0.21,-1.518 0,-0.521 0.133,-0.951 0.215,-1.41 0.005,-0.075 0.012,-0.148 0.019,-0.216 -0.006,-0.004 -0.012,-0.008 -0.018,-0.012 0.01,-0.019 0.018,-0.039 0.027,-0.059 10e-4,-0.009 0.002,-0.017 0.003,-0.026 0.033,-0.001 0.065,-0.003 0.097,-0.005 0.064,0.384 0.186,0.785 0.26,1.126 0.052,0.236 0.029,0.44 -0.003,0.651 0.011,0.034 0.023,0.068 0.033,0.101 0.183,0.57 0.278,1.174 0.386,1.718 0.076,0.383 0.085,0.487 0.353,0.837 0.264,0.347 0.577,0.609 0.836,0.959 0.401,0.544 0.221,1.203 0.62,1.712 0.38,0.486 0.809,1.036 1.222,1.469 0.143,0.15 0.307,0.333 0.432,0.464 0.273,0.287 0.591,0.312 0.924,0.502 0.45,0.256 0.764,0.766 1.168,1.054 0.534,0.382 1.37,0.508 1.976,0.643 0.731,0.163 1.446,0.311 2.163,0.56 0.195,0.069 0.542,0.182 0.887,0.251 C 3.413,0.133 3.505,0.148 3.596,0.165 3.663,0.173 3.724,0.174 3.785,0.174 3.784,0.201 3.782,0.227 3.78,0.253"
             style="fill:#231f20;fill-opacity:1;fill-rule:nonzero;stroke:none"
             id="path20685" />
        </g>
        <g
           id="g20687"
           transform="translate(73.659,256.308)">
          <path
             d="M 0,0 C -0.016,-0.008 -0.031,-0.013 -0.047,-0.019 -0.067,-0.034 -0.086,-0.049 -0.111,-0.065 -0.264,-0.161 -0.439,-0.194 -0.596,-0.257 -0.61,-0.272 -0.625,-0.287 -0.643,-0.3 -0.767,-0.392 -0.86,-0.508 -0.934,-0.637 -0.896,-0.708 -0.88,-0.793 -0.9,-0.891 -0.979,-1.276 -0.985,-1.675 -1.114,-2.049 -1.188,-2.262 -1.387,-2.33 -1.561,-2.297 -1.754,-2.626 -1.996,-2.955 -2.242,-3.225 -2.286,-3.274 -2.334,-3.319 -2.384,-3.361 -2.63,-3.916 -3.244,-4.14 -3.821,-4.293 -3.978,-4.484 -4.056,-4.731 -3.99,-5.087 c 0.047,-0.096 0.102,-0.198 0.165,-0.309 -0.186,0.003 0.275,-0.026 0.316,-0.001 0.103,0.063 0.157,0.145 0.23,0.249 0.095,0.137 0.045,0.316 0.185,0.452 0.234,0.226 0.488,0.117 0.737,0.214 0.461,0.179 0.61,0.642 0.786,1.031 0.148,0.329 0.454,0.625 0.734,0.895 0.447,0.43 0.416,0.484 0.363,1.015 -0.034,0.33 -0.012,0.585 0.219,0.832 0.186,0.198 0.6,0.285 0.753,0.526 C 0.577,-0.057 0.565,0.299 0.57,0.66 0.45,0.382 0.27,0.142 0,0"
             style="fill:#231f20;fill-opacity:1;fill-rule:nonzero;stroke:none"
             id="path20689" />
        </g>
        <g
           id="g20691"
           transform="translate(66.4301,252.334)">
          <path
             d="M 0,0 C -0.21,0.334 -0.457,0.3 -0.822,0.393 -1.3,0.515 -1.441,0.763 -1.68,1.134 -1.95,1.554 -1.895,1.669 -2.385,1.869 -2.703,1.999 -3.353,2 -3.6,2.232 -3.783,2.403 -3.642,2.524 -3.712,2.723 -3.778,2.91 -4.002,3.031 -4.14,3.155 -4.458,3.44 -4.717,3.669 -5.111,3.856 -5.201,3.899 -5.297,3.931 -5.391,3.964 -5.412,3.935 -5.435,3.907 -5.458,3.88 -5.435,3.846 -5.413,3.812 -5.391,3.781 -5.082,3.643 -4.851,3.422 -4.667,3.149 -4.606,3.108 -4.544,3.066 -4.48,3.02 -4.137,2.775 -4.273,2.586 -4.213,2.228 -4.154,1.88 -4.03,1.845 -3.708,1.661 -3.526,1.556 -3.133,1.425 -3.023,1.24 -2.787,0.846 -3.164,0.86 -2.629,0.715 c 0.34,-0.093 0.546,-0.255 0.833,-0.404 0.211,-0.11 0.51,-0.135 0.71,-0.276 0.397,-0.277 0.87,-0.704 1.157,-1.059 0.149,0.036 0.043,0.046 0.209,0.278 C 0.115,-0.672 0.121,-0.192 0,0"
             style="fill:#231f20;fill-opacity:1;fill-rule:nonzero;stroke:none"
             id="path20693" />
        </g>
        <g
           id="g20695"
           transform="translate(65.9025,248.781)">
          <path
             d="m 0,0 c -0.372,0.007 -0.676,0.015 -0.964,-0.243 -0.13,-0.117 -0.191,-0.331 -0.285,-0.45 -0.208,-0.259 -0.455,-0.366 -0.75,-0.564 -0.338,-0.228 -1.031,-0.713 -1.228,-1.06 -0.232,-0.41 -0.054,-0.536 -0.552,-0.826 -0.342,-0.2 -0.906,-0.514 -1.077,-0.858 -0.071,-0.143 -0.012,-0.305 -0.07,-0.429 -0.125,-0.267 -0.225,-0.253 -0.468,-0.43 -0.309,-0.227 -0.343,-0.507 -0.554,-0.778 -0.028,-0.035 -0.059,-0.068 -0.092,-0.1 0,-10e-4 0.001,-0.003 0.002,-0.004 0.002,0.001 0.003,0.002 0.004,0.003 0.381,0.317 0.867,0.484 1.227,0.803 0.477,0.423 0.425,0.825 1.064,1.058 0.694,0.254 0.795,1.079 1.435,1.472 0.419,0.257 0.767,0.395 0.98,0.85 0.202,0.431 0.282,0.589 0.753,0.812 0.2,0.094 0.893,0.267 0.953,0.519 C 0.459,0.117 0.101,0.068 0,0"
             style="fill:#231f20;fill-opacity:1;fill-rule:nonzero;stroke:none"
             id="path20697" />
        </g>
        <g
           id="g20699"
           transform="translate(74.0606,243.989)">
          <path
             d="m 0,0 c 0.038,-0.042 0.073,-0.087 0.118,-0.12 0.442,-0.035 0.843,-0.143 1.13,-0.463 0.03,-0.01 0.061,-0.02 0.092,-0.028 0.012,0.14 -0.027,0.277 -0.083,0.412 C 1.25,-0.183 1.242,-0.167 1.234,-0.151 1.139,-0.084 1.028,-0.028 0.896,0.012 0.612,0.097 0.486,0.204 0.27,0.327 0.138,0.402 0,0.488 -0.137,0.58 -0.168,0.572 -0.203,0.572 -0.243,0.585 -0.613,0.714 -0.913,0.955 -1.034,1.287 -1.349,1.57 -1.71,1.787 -2.023,2.076 -2.345,2.373 -2.395,2.766 -2.6,3.133 -2.81,3.508 -3.14,3.78 -3.55,3.945 -3.819,4.053 -3.95,4.041 -4.187,4.249 -4.323,4.367 -4.505,4.79 -4.666,4.827 -5.152,4.939 -5.012,4.319 -4.981,4.288 -4.86,3.803 -4.477,3.952 -4.032,3.767 -3.737,3.644 -3.595,3.433 -3.54,3.108 -3.456,2.607 -3.511,2.726 -3.072,2.449 -2.915,2.35 -2.794,2.226 -2.653,2.104 -2.503,1.974 -2.47,1.971 -2.273,1.865 -1.953,1.692 -1.854,1.527 -1.667,1.236 -1.478,0.942 -1.255,0.687 -0.946,0.511 -0.63,0.331 -0.254,0.284 0,0"
             style="fill:#231f20;fill-opacity:1;fill-rule:nonzero;stroke:none"
             id="path20701" />
        </g>
        <g
           id="g20703"
           transform="translate(69.4844,250.106)">
          <path
             d="m 0,0 c -0.434,0.217 -0.8,0.557 -1.025,0.953 -0.169,0.185 -0.318,0.381 -0.44,0.59 -0.608,-0.457 -1.074,-1.151 -1.757,-1.58 0.791,0.01 1.331,-1.024 1.57,-1.585 C -1.184,-1.022 -0.66,-0.387 0,0"
             style="fill:#231f20;fill-opacity:1;fill-rule:nonzero;stroke:none"
             id="path20705" />
        </g>
      </g>
    </g>
  </g>
</svg>
