<?xml version="1.0" encoding="UTF-8" standalone="no"?>
<!-- Created with Inkscape (http://www.inkscape.org/) -->

<svg
   width="23.36051"
   height="24"
   viewBox="0 0 6.1808014 6.35"
   version="1.1"
   id="svg26625"
   inkscape:version="1.2.1 (9c6d41e4, 2022-07-14)"
   sodipodi:docname="where_doom_awaits.svg"
   xmlns:inkscape="http://www.inkscape.org/namespaces/inkscape"
   xmlns:sodipodi="http://sodipodi.sourceforge.net/DTD/sodipodi-0.dtd"
   xmlns="http://www.w3.org/2000/svg"
   xmlns:svg="http://www.w3.org/2000/svg">
  <sodipodi:namedview
     id="namedview26627"
     pagecolor="#505050"
     bordercolor="#eeeeee"
     borderopacity="1"
     inkscape:showpageshadow="0"
     inkscape:pageopacity="0"
     inkscape:pagecheckerboard="0"
     inkscape:deskcolor="#505050"
     inkscape:document-units="mm"
     showgrid="false"
     inkscape:zoom="0.70199214"
     inkscape:cx="51.282625"
     inkscape:cy="141.02722"
     inkscape:window-width="1390"
     inkscape:window-height="938"
     inkscape:window-x="0"
     inkscape:window-y="25"
     inkscape:window-maximized="0"
     inkscape:current-layer="layer1" />
  <defs
     id="defs26622">
    <clipPath
       clipPathUnits="userSpaceOnUse"
       id="clipPath19371">
      <path
         d="m 45.717,419.999 h 24.7 v 24.7 h -24.7 z"
         id="path19369" />
    </clipPath>
  </defs>
  <g
     inkscape:label="Layer 1"
     inkscape:groupmode="layer"
     id="layer1"
     transform="translate(-91.631705,-111.13904)">
    <g
       id="g19365"
       transform="matrix(0.32563561,0,0,-0.32563561,75.794808,255.4234)">
      <g
         id="g19367"
         clip-path="url(#clipPath19371)">
        <g
           id="g19373"
           transform="translate(55.957,431.891)">
          <path
             d="m 0,0 c -0.387,-0.766 -1.284,-1.052 -1.607,-1.829 -0.365,-0.876 0.06,-1.791 -0.651,-2.567 -0.394,-0.431 -1.041,-0.501 -1.475,-0.88 -0.327,-0.286 -0.546,-0.84 -0.86,-1.138 -0.686,-0.65 -1.245,-0.833 -1.943,-0.777 0.004,-0.031 0.006,-0.062 0.011,-0.093 0.124,-0.142 0.252,-0.276 0.383,-0.406 0.369,0.002 0.725,-0.045 1.07,-0.143 0.335,0.072 0.637,0.137 0.862,0.152 -0.08,1.217 1.199,0.836 1.881,1.264 0.651,0.408 1.207,1.075 1.379,1.966 0.182,0.944 0.033,1.675 0.413,2.622 C -0.293,-1.222 0.135,-0.772 0,0"
             style="fill:#231f20;fill-opacity:1;fill-rule:nonzero;stroke:none"
             id="path19375" />
        </g>
        <g
           id="g19377"
           transform="translate(66.2268,424.578)">
          <path
             d="M 0,0 C -0.226,0.6 -0.49,1.607 -0.958,1.981 -1.365,2.305 -2.055,2.01 -2.487,2.437 -3.02,2.963 -3.02,4.16 -3.304,4.841 -3.816,6.072 -5.006,6.364 -5.054,7.827 -5.352,7.509 -5.763,7.416 -6.154,7.459 -5.325,6.821 -5.14,5.97 -4.755,5.019 -4.469,4.314 -4.36,3.417 -4.039,2.772 -3.531,1.748 -2.469,1.941 -1.762,1.171 -1.227,0.59 -1.126,-0.472 0,0"
             style="fill:#231f20;fill-opacity:1;fill-rule:nonzero;stroke:none"
             id="path19379" />
        </g>
        <g
           id="g19381"
           transform="translate(48.8478,435.202)">
          <path
             d="M 0,0 C 0.979,-0.01 2.928,-1.718 3.671,-2.2 4.47,-2.718 6.385,-3.796 6.172,-5.057 6.315,-5.045 6.314,-5.11 5.83,-5.079 5.101,-4.003 4.615,-3.494 3.479,-3.403 2.766,-3.346 2.346,-3.487 1.726,-3.013 0.64,-2.182 -1.19,-0.588 0.482,0.503 c 1.6,1.044 3.662,-0.075 5.34,-0.166 0.901,-0.05 1.764,0.292 2.604,0.266 0.941,-0.028 1.542,-0.376 2.485,-0.26 1.221,0.151 2.475,0.22 3.662,-0.136 1.355,-0.405 2.775,-0.389 4.192,-0.535 0.129,-2.34 -6.999,-0.091 -8.127,0.018 -1.871,0.182 -3.525,-0.028 -5.4,-0.129 -1.819,-0.097 -3.622,0.26 -5.452,0.26"
             style="fill:#231f20;fill-opacity:1;fill-rule:nonzero;stroke:none"
             id="path19383" />
        </g>
        <g
           id="g19385"
           transform="translate(60.6142,431.799)">
          <path
             d="M 0,0 C 0.657,0.25 1.057,-0.142 1.643,-0.103 2.419,-0.051 3.264,0.491 3.998,0.781 4.736,1.072 6.327,1.456 6.577,2.427 5.1,2.551 4.15,2.024 2.833,1.602 1.932,1.313 0.999,0.346 0,0"
             style="fill:#231f20;fill-opacity:1;fill-rule:nonzero;stroke:none"
             id="path19387" />
        </g>
        <g
           id="g19389"
           transform="translate(55.1095,430.767)">
          <path
             d="M 0,0 C 1.475,0 2.566,0.339 3.966,0.522 4.478,0.589 5.637,0.093 6.052,0.406 6.996,1.117 3.827,1.282 3.624,1.294 2.546,1.359 1.189,1.314 0,0"
             style="fill:#231f20;fill-opacity:1;fill-rule:nonzero;stroke:none"
             id="path19391" />
        </g>
        <g
           id="g19393"
           transform="translate(52.2565,440.067)">
          <path
             d="m 0,0 c 0.506,0.36 0.705,0.949 1.144,1.394 0.56,0.569 1.057,0.702 1.834,0.979 1.21,0.429 2.226,0.772 3.602,0.6 C 7.294,2.884 7.223,2.937 7.736,2.645 8.205,2.376 8.335,1.959 8.914,1.824 c 0.783,-0.184 1.282,0.161 1.98,-0.42 0.608,-0.506 1.53,-2.096 1.433,-2.879 -0.323,0.355 -0.835,0.519 -1.333,0.463 C 10.958,0.064 8.93,0.67 8.119,1.029 6.912,1.564 5.452,1.923 4.112,1.662 2.967,1.439 2.232,0.955 1.42,0.238 0.89,-0.228 0.075,-1.471 -0.666,-1.472 -0.96,-0.438 0.24,-0.415 0,0"
             style="fill:#231f20;fill-opacity:1;fill-rule:nonzero;stroke:none"
             id="path19395" />
        </g>
        <g
           id="g19397"
           transform="translate(57.5063,429.89)">
          <path
             d="m 0,0 c 0.042,-1.19 -1.261,-2.747 -1.72,-3.83 -0.506,-1.192 -1.074,-1.498 -1.885,-2.475 3.435,0.114 3.342,3.796 4.163,6.171 C 0.388,-0.147 0.42,-0.076 0,0"
             style="fill:#231f20;fill-opacity:1;fill-rule:nonzero;stroke:none"
             id="path19399" />
        </g>
        <g
           id="g19401"
           transform="translate(59.4633,429.775)">
          <path
             d="m 0,0 c -0.132,-0.042 -0.192,-0.134 -0.346,-0.132 -0.602,-1.746 0.826,-5.252 2.216,-5.682 0.055,0.106 0.003,0.281 0.009,0.4 0.05,-0.038 0.09,-0.224 0.17,-0.171 -0.082,0.652 -0.46,0.775 -0.706,1.24 C 1.11,-3.904 1.021,-3.363 0.875,-2.858 0.56,-1.774 0.113,-0.562 0,0"
             style="fill:#231f20;fill-opacity:1;fill-rule:nonzero;stroke:none"
             id="path19403" />
        </g>
      </g>
    </g>
  </g>
</svg>
