<?xml version="1.0" encoding="UTF-8" standalone="no"?>
<!-- Created with Inkscape (http://www.inkscape.org/) -->

<svg
   width="24.341677"
   height="24.000002"
   viewBox="0 0 6.4404019 6.3500005"
   version="1.1"
   id="svg13678"
   inkscape:version="1.2.1 (9c6d41e4, 2022-07-14)"
   sodipodi:docname="mi-go-incursion.svg"
   xmlns:inkscape="http://www.inkscape.org/namespaces/inkscape"
   xmlns:sodipodi="http://sodipodi.sourceforge.net/DTD/sodipodi-0.dtd"
   xmlns="http://www.w3.org/2000/svg"
   xmlns:svg="http://www.w3.org/2000/svg">
  <sodipodi:namedview
     id="namedview13680"
     pagecolor="#505050"
     bordercolor="#eeeeee"
     borderopacity="1"
     inkscape:showpageshadow="0"
     inkscape:pageopacity="0"
     inkscape:pagecheckerboard="0"
     inkscape:deskcolor="#505050"
     inkscape:document-units="mm"
     showgrid="false"
     inkscape:zoom="0.7046647"
     inkscape:cx="95.080681"
     inkscape:cy="13.481589"
     inkscape:window-width="1390"
     inkscape:window-height="941"
     inkscape:window-x="0"
     inkscape:window-y="25"
     inkscape:window-maximized="0"
     inkscape:current-layer="layer1" />
  <defs
     id="defs13675">
    <clipPath
       clipPathUnits="userSpaceOnUse"
       id="clipPath3975">
      <path
         d="M 56.886,41.827 H 92.7 V 77.641 H 56.886 Z"
         id="path3973" />
    </clipPath>
  </defs>
  <g
     inkscape:label="Layer 1"
     inkscape:groupmode="layer"
     id="layer1"
     transform="translate(-80.135046,-145.13727)">
    <g
       id="g3969"
       transform="matrix(0.20008892,0,0,-0.20008892,68.378401,160.15569)">
      <g
         id="g3971"
         clip-path="url(#clipPath3975)">
        <g
           id="g3977"
           transform="translate(89.8518,59.2171)">
          <path
             d="M 0,0 C 0.474,-0.019 0.828,-0.175 1.093,-0.409 1.047,0.258 0.908,0.942 0.69,1.614 0.612,1.764 0.531,1.913 0.451,2.059 -0.035,2.942 -0.52,3.826 -1.005,4.71 -1.083,4.803 -1.162,4.896 -1.244,4.986 -2.068,5.9 -3.393,7.203 -1.7,8.165 c 0.817,0.465 1.556,0.424 2.203,0.102 -0.625,1.342 -1.545,2.586 -2.642,3.704 -0.45,0.399 -0.929,0.773 -1.458,1.106 -1.14,0.717 -2.194,1.588 -3.371,2.254 -1.009,0.572 -2.238,0.559 -3.432,0.454 -0.405,-0.172 -0.852,-0.401 -0.91,-0.768 -0.032,-0.207 0.072,-0.407 0.14,-0.606 0.205,-0.605 0.065,-1.256 -0.076,-1.881 -0.346,-1.53 -0.696,-3.072 -1.42,-4.517 -0.211,-0.422 -0.491,-0.857 -0.89,-1.161 -0.189,10e-4 -0.377,0.002 -0.558,-0.055 -0.595,-0.187 -0.496,-1.075 -0.4,-1.547 0.018,-0.093 0.053,-0.166 0.094,-0.227 0.025,-0.051 0.061,-0.094 0.114,-0.119 0.168,-0.111 0.408,-0.09 0.647,0.035 0.268,0.141 0.452,0.397 0.671,0.597 0.233,0.213 0.494,0.355 0.774,0.457 0.224,-0.016 0.445,-0.054 0.651,-0.117 0.736,-0.225 1.324,-0.682 1.848,-1.158 2.337,-2.125 3.816,-4.883 4.165,-7.766 0.242,-2.005 -0.044,-4.045 0.163,-6.053 0.016,0.043 0.038,0.1 0.045,0.123 0.022,0.082 0.041,0.164 0.061,0.246 0.047,0.192 0.087,0.385 0.146,0.576 0.138,0.444 0.336,0.853 0.734,1.187 0.765,0.642 2.099,0.951 2.782,0.07 0.019,-0.025 0.032,-0.051 0.049,-0.076 0.167,0.934 0.344,1.873 0.303,2.815 -0.03,0.685 -0.274,1.171 -0.481,1.809 C -2.093,-1.289 -1.648,0.068 0,0"
             style="fill:#100f0d;fill-opacity:1;fill-rule:nonzero;stroke:none"
             id="path3979" />
        </g>
        <g
           id="g3981"
           transform="translate(61.5981,56.8665)">
          <path
             d="m 0,0 c -0.207,-0.638 -0.452,-1.124 -0.481,-1.81 -0.042,-0.941 0.136,-1.88 0.302,-2.814 0.018,0.025 0.03,0.051 0.049,0.075 0.684,0.881 2.018,0.572 2.783,-0.07 0.397,-0.333 0.596,-0.743 0.733,-1.187 0.059,-0.19 0.1,-0.383 0.146,-0.575 0.02,-0.082 0.039,-0.164 0.062,-0.246 0.007,-0.023 0.029,-0.08 0.045,-0.123 0.207,2.007 -0.079,4.048 0.163,6.052 0.348,2.884 1.827,5.642 4.165,7.766 0.524,0.477 1.112,0.934 1.847,1.159 0.207,0.063 0.428,0.101 0.652,0.117 0.28,-0.103 0.54,-0.244 0.774,-0.458 0.219,-0.2 0.402,-0.456 0.671,-0.596 0.239,-0.125 0.478,-0.147 0.646,-0.036 0.054,0.026 0.09,0.068 0.115,0.12 0.041,0.061 0.075,0.134 0.094,0.227 0.096,0.471 0.195,1.359 -0.401,1.547 -0.18,0.057 -0.368,0.055 -0.557,0.055 -0.399,0.304 -0.68,0.738 -0.891,1.16 -0.723,1.445 -1.073,2.988 -1.419,4.517 -0.141,0.626 -0.281,1.276 -0.077,1.882 0.068,0.199 0.173,0.399 0.14,0.606 C 9.503,17.735 9.057,17.964 8.652,18.136 7.458,18.241 6.228,18.253 5.219,17.682 4.042,17.015 2.988,16.144 1.848,15.427 1.32,15.094 0.84,14.72 0.39,14.322 c -1.097,-1.118 -2.016,-2.363 -2.642,-3.704 0.648,0.321 1.387,0.363 2.204,-0.102 C 1.644,9.553 0.32,8.251 -0.505,7.337 -0.586,7.246 -0.665,7.154 -0.743,7.06 -1.228,6.177 -1.714,5.293 -2.199,4.409 -2.28,4.263 -2.36,4.115 -2.438,3.964 -2.657,3.292 -2.795,2.608 -2.841,1.942 -2.576,2.175 -2.222,2.331 -1.748,2.351 -0.101,2.419 0.345,1.061 0,0"
             style="fill:#100f0d;fill-opacity:1;fill-rule:nonzero;stroke:none"
             id="path3983" />
        </g>
        <g
           id="g3985"
           transform="translate(76.7391,65.8573)">
          <path
             d="m 0,0 c -0.035,-0.078 -0.06,-0.152 -0.072,-0.237 -0.012,-0.087 0.053,-0.185 0.153,-0.153 0.207,0.065 0.372,0.188 0.501,0.361 C 0.678,0.099 0.462,0.224 0.368,0.096 0.279,-0.023 0.156,-0.106 0.015,-0.15 l 0.153,-0.153 c 0.008,0.061 0.021,0.12 0.047,0.177 C 0.279,0.019 0.065,0.146 0,0"
             style="fill:#100f0d;fill-opacity:1;fill-rule:nonzero;stroke:none"
             id="path3987" />
        </g>
        <g
           id="g3989"
           transform="translate(77.6963,56.5972)">
          <path
             d="m 0,0 c -0.018,-0.199 -0.032,-0.399 -0.038,-0.6 -0.016,-0.56 0.075,-1.124 0.029,-1.683 -0.031,-0.366 -0.134,-0.702 -0.364,-0.992 -0.008,-0.011 -0.018,-0.02 -0.027,-0.031 -0.19,-0.421 -0.362,-0.85 -0.205,-1.236 0.022,-0.054 -0.006,-0.093 -0.048,-0.109 0.001,-0.029 -0.001,-0.061 -0.007,-0.102 -0.02,-0.126 -0.211,-0.072 -0.192,0.052 0.027,0.174 -0.19,0.395 -0.214,0.58 -0.019,0.147 0.029,0.296 0.094,0.426 0.098,0.194 0.272,0.332 0.408,0.497 0.01,0.013 0.019,0.026 0.029,0.039 0.138,0.326 0.261,0.65 0.302,1.027 0.063,0.587 -0.009,1.172 -0.061,1.757 -0.025,0.016 -0.042,0.041 -0.037,0.08 0.001,0.009 0.003,0.017 0.004,0.026 0,0 0,0.001 0,0.001 0.004,0.036 0.01,0.072 0.015,0.108 -0.026,0.341 -0.041,0.681 -0.01,1.022 0.018,0.205 0.128,1.282 0.546,0.925 C 0.662,1.415 0.251,0.549 0,0 m -2.003,-6.799 c 0.008,-0.032 -0.004,-0.066 -0.005,-0.1 -10e-4,-0.05 -0.003,-0.101 -0.011,-0.152 -0.019,-0.101 -0.054,-0.223 -0.119,-0.315 -0.029,-0.041 -0.133,-0.188 -0.202,-0.185 -0.003,0.003 -0.002,0.006 -0.001,0.008 -10e-4,0 -0.002,-10e-4 -0.002,-10e-4 -0.005,-0.01 -0.007,-0.019 -0.014,-0.029 -0.002,0.007 -0.004,0.014 0.014,0.029 0,10e-4 10e-4,0.002 10e-4,0.003 10e-4,0.001 10e-4,0.001 10e-4,0.002 0.016,0.032 0.025,0.066 0.033,0.103 0.013,0.057 0.044,0.117 0.051,0.174 0.006,0.056 -10e-4,0.118 -0.005,0.173 -0.002,0.046 -0.015,0.084 -0.019,0.128 -0.006,0.074 -0.018,0.147 0.012,0.224 0.013,0.035 0.007,0.047 0.047,0.066 0.028,0.013 0.077,0.034 0.107,0.029 0.064,-0.011 0.101,-0.11 0.112,-0.157 m 0.938,-1.693 c -0.01,0.084 -0.045,0.146 -0.071,0.227 -0.032,0.101 -0.095,0.188 -0.138,0.286 -0.026,0.059 -0.068,0.111 -0.089,0.171 -0.008,0.022 -0.002,0.041 -0.023,0.055 l -0.012,-0.016 c -0.133,0.048 -0.014,0.344 0.105,0.396 0.048,0.021 0.159,-0.038 0.206,-0.067 0.035,-0.022 0.06,-0.049 0.097,-0.069 0.047,-0.024 0.059,-0.037 0.087,-0.081 0.05,-0.076 0.069,-0.165 0.078,-0.255 0.009,-0.084 -0.015,-0.156 -0.021,-0.24 -0.005,-0.065 -0.006,-0.128 -0.022,-0.192 -0.02,-0.08 -0.063,-0.156 -0.097,-0.231 -0.011,-0.026 -0.066,-0.197 -0.102,-0.19 0.007,0.075 0.01,0.133 0.002,0.206 m -1.432,1.545 c -0.022,-0.051 -0.052,-0.097 -0.083,-0.142 -0.032,0.045 -0.061,0.091 -0.084,0.142 -0.047,0.107 -0.131,0.235 -0.131,0.352 10e-4,0.118 0.025,0.225 0.107,0.31 0.038,0.04 0.07,0.062 0.108,0.084 0.037,-0.022 0.07,-0.044 0.107,-0.084 0.083,-0.085 0.107,-0.192 0.107,-0.31 0,-0.117 -0.084,-0.245 -0.131,-0.352 m 0.702,0.063 c 0.06,-0.035 0.142,-0.042 0.185,-0.097 0.07,-0.087 0.057,-0.244 0.047,-0.346 C -1.57,-7.4 -1.572,-7.488 -1.598,-7.556 -1.63,-7.641 -1.674,-7.723 -1.709,-7.807 -1.75,-7.902 -1.812,-7.956 -1.877,-8.033 c -0.032,-0.037 -0.088,-0.13 -0.137,-0.142 0.003,0.038 0.029,0.074 0.043,0.109 0.02,0.048 0.021,0.097 0.035,0.148 0.042,0.15 0.06,0.318 0.074,0.473 0.01,0.109 -0.027,0.21 -0.033,0.318 -0.002,0.044 0.003,0.144 0.024,0.182 0.016,0.03 0.052,0.048 0.076,0.061 -0.012,0.007 -0.025,0.013 -0.035,0.023 0.003,0.014 0.011,0.016 0.026,0.007 0.045,-0.009 0.034,-0.017 0.009,-0.03 m -1.842,0.242 c 0.029,0.005 0.078,-0.016 0.106,-0.029 0.04,-0.019 0.034,-0.031 0.048,-0.066 0.029,-0.077 0.018,-0.15 0.011,-0.224 -0.003,-0.044 -0.016,-0.082 -0.019,-0.128 -0.003,-0.055 -0.011,-0.117 -0.004,-0.173 0.007,-0.057 0.038,-0.117 0.051,-0.174 0.008,-0.037 0.016,-0.071 0.032,-0.103 10e-4,-0.001 10e-4,-0.001 10e-4,-0.002 10e-4,-10e-4 10e-4,-0.002 0.002,-0.003 0.017,-0.015 0.016,-0.022 0.014,-0.029 -0.007,0.01 -0.009,0.019 -0.014,0.029 -0.001,0 -0.002,10e-4 -0.002,10e-4 0,-0.002 10e-4,-0.005 -10e-4,-0.008 -0.07,-0.003 -0.174,0.144 -0.203,0.185 -0.064,0.092 -0.1,0.214 -0.118,0.315 -0.009,0.051 -0.01,0.102 -0.011,0.152 -10e-4,0.034 -0.014,0.068 -0.006,0.1 0.011,0.047 0.048,0.146 0.113,0.157 m 2.775,-3.967 c -0.028,-0.017 -0.083,-0.006 -0.114,0.002 -0.045,0.01 -0.042,0.027 -0.065,0.067 -0.05,0.089 -0.058,0.188 -0.072,0.286 -0.008,0.057 -0.005,0.112 -0.015,0.171 -0.011,0.072 -0.02,0.154 -0.042,0.224 -0.023,0.072 -0.069,0.138 -0.098,0.208 -0.018,0.044 -0.035,0.084 -0.06,0.121 0,10e-4 -10e-4,10e-4 -10e-4,0.002 -0.001,0.001 -0.002,0.002 -0.003,0.004 -0.021,0.012 -0.021,0.022 -0.021,0.031 0.009,-0.009 0.014,-0.021 0.021,-0.031 0.001,-0.001 0.002,-0.001 0.003,-0.001 -0.002,0.003 -0.003,0.006 -0.001,0.01 0.068,0.028 0.212,-0.125 0.252,-0.168 0.089,-0.097 0.157,-0.242 0.203,-0.365 0.022,-0.063 0.037,-0.128 0.052,-0.193 0.009,-0.043 0.031,-0.082 0.032,-0.127 0.001,-0.064 -0.009,-0.205 -0.071,-0.241 m -0.089,-0.732 c -0.003,-0.028 -0.016,-0.04 -0.028,-0.061 -0.009,-0.014 -0.027,-0.05 -0.038,-0.06 -0.027,-0.022 -0.104,-0.031 -0.142,-0.024 -0.061,0.012 -0.086,0.075 -0.11,0.125 -0.042,0.086 -0.083,0.174 -0.128,0.256 -0.028,0.051 -0.064,0.094 -0.09,0.143 -0.029,0.056 -0.056,0.116 -0.085,0.172 -0.043,0.086 -0.063,0.168 -0.073,0.263 -0.024,0.064 0.017,-0.013 0.053,-0.039 0.033,-0.025 0.073,-0.023 0.108,-0.039 0.032,-0.014 0.054,-0.035 0.083,-0.054 0.033,-0.021 0.073,-0.039 0.108,-0.056 0.031,-0.015 0.075,-0.021 0.101,-0.038 0.048,-0.029 0.093,-0.092 0.121,-0.14 0.02,-0.034 0.038,-0.054 0.061,-0.086 0.023,-0.03 0.018,-0.037 0.029,-0.069 0.015,-0.047 0.034,-0.071 0.037,-0.125 0.001,-0.031 -0.01,-0.05 -0.013,-0.08 -0.003,-0.03 0.009,-0.058 0.006,-0.088 m -0.156,-0.577 c -0.021,-0.079 -0.03,-0.139 -0.097,-0.19 -0.06,-0.045 -0.133,-0.163 -0.089,-0.027 -0.051,-0.005 -0.115,-0.008 -0.161,0.021 -0.02,0.012 -0.057,0.048 -0.074,0.065 -0.03,0.029 -0.042,0.075 -0.068,0.108 -0.031,0.04 -0.029,0.061 -0.048,0.106 -0.021,0.049 -0.06,0.088 -0.084,0.137 -0.034,0.071 -0.067,0.133 -0.092,0.209 -0.008,0.024 -0.017,0.068 -0.039,0.084 0.035,-0.006 0.04,0.016 0.062,0.023 0.025,0.008 0.047,0.01 0.072,0.012 0.07,0.007 0.126,0.01 0.193,-0.006 0.121,-0.03 0.223,-0.13 0.311,-0.211 0.089,-0.081 0.145,-0.214 0.114,-0.331 m -0.627,-0.67 c -0.027,-0.065 -0.069,-0.098 -0.129,-0.133 -0.031,-0.018 -0.059,-0.018 -0.082,-0.011 0.002,-0.005 0.004,-0.011 0.01,-0.014 -0.055,-10e-4 -0.076,-0.014 -0.113,0.033 -0.039,0.049 -0.068,0.087 -0.12,0.124 -0.029,0.02 -0.057,0.031 -0.081,0.057 -0.029,0.031 -0.033,0.072 -0.055,0.105 -0.025,0.036 -0.043,0.044 -0.05,0.089 -0.007,0.044 -0.003,0.089 -0.015,0.132 -0.024,0.082 -0.037,0.153 -0.047,0.24 -0.003,0.029 -0.032,0.136 -0.013,0.157 0.016,0.018 0.1,-0.003 0.119,-0.008 0.022,-0.006 0.042,-0.027 0.062,-0.037 0.029,-0.014 0.04,-0.009 0.07,-0.014 0.053,-0.007 0.085,-0.055 0.126,-0.083 0.05,-0.033 0.119,-0.065 0.163,-0.104 0.002,-0.008 0.005,-0.016 0.008,-0.024 0.014,-0.007 0.029,-0.015 0.043,-0.023 0.026,-0.017 0.049,-0.04 0.07,-0.062 0.036,-0.037 0.049,-0.076 0.069,-0.123 0.016,-0.038 0.033,-0.074 0.031,-0.124 -0.002,-0.059 -0.044,-0.12 -0.066,-0.177 m -0.707,-0.352 c -0.031,-0.067 -0.071,-0.122 -0.14,-0.147 -0.056,-0.02 -0.122,-0.047 -0.183,-0.038 -0.02,0.002 -0.036,0.009 -0.052,0.017 -0.051,-0.01 -0.098,-0.011 -0.144,-0.003 -0.013,-0.006 -0.026,-0.012 -0.041,-0.014 -0.061,-0.009 -0.127,0.018 -0.183,0.038 -0.069,0.025 -0.11,0.08 -0.141,0.147 -0.028,0.06 -0.004,0.202 0.012,0.27 0.021,0.094 0.051,0.205 0.103,0.287 0.064,0.1 0.133,0.197 0.197,0.297 0.057,0.089 0.089,0.183 0.131,0.277 0.041,-0.094 0.073,-0.188 0.13,-0.277 0.064,-0.1 0.133,-0.197 0.196,-0.297 0.052,-0.082 0.083,-0.193 0.104,-0.287 0.016,-0.068 0.04,-0.21 0.011,-0.27 m -0.955,0.734 c -0.012,-0.043 -0.008,-0.088 -0.015,-0.132 -0.007,-0.045 -0.025,-0.053 -0.05,-0.089 -0.022,-0.033 -0.026,-0.074 -0.055,-0.105 -0.024,-0.026 -0.053,-0.037 -0.081,-0.057 -0.052,-0.037 -0.082,-0.075 -0.12,-0.124 -0.037,-0.047 -0.058,-0.034 -0.113,-0.033 0.005,0.003 0.007,0.009 0.01,0.014 -0.023,-0.007 -0.051,-0.007 -0.083,0.011 -0.06,0.035 -0.102,0.068 -0.128,0.133 -0.023,0.057 -0.064,0.118 -0.066,0.177 -0.002,0.05 0.015,0.086 0.031,0.124 0.02,0.047 0.033,0.086 0.068,0.123 0.022,0.022 0.044,0.045 0.071,0.062 0.014,0.008 0.028,0.016 0.043,0.023 0.003,0.008 0.006,0.016 0.008,0.024 0.044,0.039 0.113,0.071 0.163,0.104 0.04,0.028 0.073,0.076 0.126,0.083 0.03,0.005 0.04,0 0.069,0.014 0.021,0.01 0.041,0.031 0.062,0.037 0.02,0.005 0.104,0.026 0.12,0.008 0.019,-0.021 -0.011,-0.128 -0.014,-0.157 -0.009,-0.087 -0.022,-0.158 -0.046,-0.24 m -0.774,0.265 c -0.026,-0.033 -0.037,-0.079 -0.067,-0.108 -0.017,-0.017 -0.054,-0.053 -0.074,-0.065 -0.047,-0.029 -0.11,-0.026 -0.161,-0.021 0.043,-0.136 -0.029,-0.018 -0.089,0.027 -0.067,0.051 -0.077,0.111 -0.097,0.19 -0.031,0.117 0.025,0.25 0.113,0.331 0.089,0.081 0.19,0.181 0.312,0.211 0.067,0.016 0.123,0.013 0.192,0.006 0.026,-0.002 0.048,-0.004 0.072,-0.012 0.022,-0.007 0.028,-0.029 0.062,-0.023 -0.022,-0.016 -0.031,-0.06 -0.039,-0.084 -0.025,-0.076 -0.057,-0.138 -0.091,-0.209 -0.024,-0.049 -0.063,-0.088 -0.084,-0.137 -0.019,-0.045 -0.017,-0.066 -0.049,-0.106 m -0.616,0.539 c -0.013,0.021 -0.025,0.033 -0.028,0.061 -0.004,0.03 0.009,0.058 0.006,0.088 -0.003,0.03 -0.014,0.049 -0.013,0.08 0.003,0.054 0.021,0.078 0.037,0.125 0.011,0.032 0.005,0.039 0.028,0.069 0.024,0.032 0.042,0.052 0.062,0.086 0.028,0.048 0.073,0.111 0.12,0.14 0.027,0.017 0.071,0.023 0.101,0.038 0.036,0.017 0.075,0.035 0.109,0.056 0.029,0.019 0.051,0.04 0.082,0.054 0.035,0.016 0.076,0.014 0.109,0.039 0.036,0.026 0.076,0.103 0.053,0.039 -0.01,-0.095 -0.03,-0.177 -0.073,-0.263 -0.029,-0.056 -0.056,-0.116 -0.086,-0.172 -0.025,-0.049 -0.062,-0.092 -0.089,-0.143 -0.045,-0.082 -0.086,-0.17 -0.128,-0.256 -0.025,-0.05 -0.049,-0.113 -0.111,-0.125 -0.037,-0.007 -0.114,0.002 -0.141,0.024 -0.011,0.01 -0.03,0.046 -0.038,0.06 m -0.118,0.793 c -0.061,0.036 -0.072,0.177 -0.07,0.241 0,0.045 0.022,0.084 0.032,0.127 0.015,0.065 0.03,0.13 0.052,0.193 0.045,0.123 0.114,0.268 0.203,0.365 0.04,0.043 0.183,0.196 0.252,0.168 0.002,-0.004 0,-0.007 -0.001,-0.01 0.001,0 0.002,0 0.003,0.001 0.007,0.01 0.012,0.022 0.021,0.031 0,-0.009 -0.001,-0.019 -0.021,-0.031 -0.001,-0.002 -0.002,-0.003 -0.003,-0.004 -0.001,-10e-4 -0.001,-10e-4 -0.001,-0.002 -0.025,-0.037 -0.042,-0.077 -0.061,-0.121 -0.028,-0.07 -0.075,-0.136 -0.097,-0.208 -0.022,-0.07 -0.031,-0.152 -0.042,-0.224 -0.01,-0.059 -0.008,-0.114 -0.016,-0.171 -0.013,-0.098 -0.021,-0.197 -0.072,-0.286 -0.023,-0.04 -0.019,-0.057 -0.065,-0.067 -0.031,-0.008 -0.086,-0.019 -0.114,-0.002 m -0.201,5.856 c -0.006,0.041 -0.008,0.073 -0.007,0.102 -0.042,0.016 -0.071,0.055 -0.049,0.109 0.157,0.386 -0.014,0.815 -0.204,1.236 -0.009,0.011 -0.019,0.02 -0.027,0.031 -0.23,0.29 -0.333,0.626 -0.364,0.992 -0.046,0.559 0.045,1.123 0.029,1.683 -0.006,0.201 -0.021,0.401 -0.038,0.6 -0.251,0.549 -0.662,1.415 -0.225,1.787 0.419,0.357 0.529,-0.72 0.547,-0.925 0.03,-0.341 0.016,-0.681 -0.01,-1.022 0.005,-0.036 0.01,-0.072 0.015,-0.108 v -0.001 0 c 10e-4,-0.009 0.003,-0.017 0.004,-0.026 0.005,-0.039 -0.012,-0.064 -0.037,-0.08 -0.052,-0.585 -0.125,-1.17 -0.061,-1.757 0.041,-0.377 0.164,-0.701 0.302,-1.027 0.01,-0.013 0.018,-0.026 0.029,-0.039 0.136,-0.165 0.31,-0.303 0.407,-0.497 0.066,-0.13 0.114,-0.279 0.095,-0.426 -0.024,-0.185 -0.241,-0.406 -0.215,-0.58 0.02,-0.124 -0.172,-0.178 -0.191,-0.052 m 0.294,3.994 c 0.024,0.063 0.111,0.105 0.165,0.043 0.238,-0.273 0.183,-0.633 0.183,-0.975 0.001,-0.251 0,-0.509 0.051,-0.756 0.041,10e-4 0.081,-0.018 0.094,-0.069 0.065,-0.24 0.164,-0.424 0.335,-0.61 0.035,-0.039 0.04,-0.103 0,-0.14 -0.074,-0.069 -0.147,-0.138 -0.221,-0.207 -0.067,-0.064 -0.2,-0.002 -0.165,0.096 0.101,0.284 -0.188,0.585 -0.289,0.827 -0.071,0.17 -0.125,0.349 -0.172,0.527 -0.113,0.43 -0.146,0.845 0.019,1.264 m 0.165,1.509 c 0.04,0.065 0.15,0.084 0.208,0.065 0.046,-0.015 0.116,-0.055 0.152,-0.086 0.038,-0.032 0.057,-0.082 0.099,-0.116 0.07,-0.058 0.116,-0.16 0.16,-0.248 0.04,-0.078 0.042,-0.171 0.074,-0.253 0.019,-0.05 0.051,-0.087 0.058,-0.144 0.01,-0.072 -10e-4,-0.154 0.005,-0.229 0.008,-0.087 0.039,-0.161 0.065,-0.24 0.026,-0.082 0.034,-0.17 0.054,-0.255 0.022,-0.095 0.068,-0.167 0.098,-0.255 0.025,-0.075 0.017,-0.173 0.031,-0.253 0.014,-0.078 0.038,-0.153 0.042,-0.233 0.004,-0.102 0,-0.205 0.004,-0.307 0.003,-0.077 0.025,-0.138 0.034,-0.212 0.013,-0.104 -0.033,-0.305 -0.088,-0.4 -0.047,-0.08 -0.157,-0.179 -0.231,-0.149 -0.032,0.013 -0.057,0.036 -0.083,0.062 -0.024,0.025 -0.052,0.037 -0.074,0.057 -0.051,0.048 -0.047,0.111 -0.061,0.185 -0.025,0.132 -0.059,0.261 -0.072,0.398 -0.011,0.13 -0.054,0.244 -0.051,0.377 0.003,0.141 0.009,0.301 -0.006,0.437 -0.022,0.204 -0.07,0.401 -0.122,0.594 -0.044,0.163 -0.119,0.306 -0.172,0.463 -0.056,0.167 -0.136,0.319 -0.196,0.484 -0.021,0.057 -0.037,0.184 -0.089,0.215 0.21,-0.192 0.059,-0.121 0.161,0.043 m 1.053,-6.162 c 0.009,-0.021 0.007,-0.04 0.002,-0.057 0.036,-0.05 0.028,-0.134 -0.049,-0.156 -0.168,-0.049 -0.298,-0.136 -0.411,-0.269 -0.051,-0.06 -0.144,-0.021 -0.165,0.044 -0.067,0.201 0.005,0.347 0.104,0.524 0.151,0.271 0.217,0.548 0.203,0.857 -0.005,0.111 0.176,0.137 0.194,0.026 0.002,-0.008 0.003,-0.017 0.004,-0.026 v 0 -10e-4 c 0.048,-0.314 -0.004,-0.642 0.118,-0.942 m -1.093,-3.286 c -0.035,-0.007 -0.091,0.164 -0.102,0.19 -0.033,0.075 -0.076,0.151 -0.097,0.231 -0.016,0.064 -0.017,0.127 -0.022,0.192 -0.005,0.084 -0.029,0.156 -0.021,0.24 0.009,0.09 0.028,0.179 0.078,0.255 0.029,0.044 0.041,0.057 0.087,0.081 0.038,0.02 0.062,0.047 0.098,0.069 0.047,0.029 0.157,0.088 0.205,0.067 0.119,-0.052 0.238,-0.348 0.106,-0.396 -0.004,0.005 -0.008,0.01 -0.013,0.016 -0.02,-0.014 -0.014,-0.033 -0.022,-0.055 -0.022,-0.06 -0.063,-0.112 -0.089,-0.171 -0.043,-0.098 -0.107,-0.185 -0.138,-0.286 -0.026,-0.081 -0.062,-0.143 -0.072,-0.227 -0.008,-0.073 -0.004,-0.131 0.002,-0.206 m 1.804,3.199 c -0.007,0.003 -0.012,0.003 -0.019,0.006 v -0.012 c -0.038,-0.012 -0.071,-0.017 -0.083,-0.003 -0.089,0.1 -0.128,0.371 -0.108,0.622 0.013,0.158 0.049,0.268 0.082,0.393 0.06,0.226 0.093,0.468 0.125,0.732 10e-4,0.008 0.002,0.018 0.003,0.026 0,-0.008 0,-0.018 0.002,-0.026 0.031,-0.264 0.065,-0.506 0.124,-0.732 0.033,-0.125 0.07,-0.235 0.083,-0.393 0.02,-0.251 -0.019,-0.522 -0.108,-0.622 -0.012,-0.014 -0.046,-0.009 -0.083,0.003 v 0.012 c -0.007,-0.003 -0.012,-0.003 -0.018,-0.006 m -0.505,-1.096 c 10e-4,0.118 0.025,0.225 0.108,0.31 0.037,0.04 0.069,0.062 0.107,0.084 0.037,-0.022 0.07,-0.044 0.107,-0.084 0.083,-0.085 0.107,-0.192 0.107,-0.31 0.001,-0.117 -0.084,-0.245 -0.131,-0.352 -0.022,-0.051 -0.052,-0.097 -0.083,-0.142 -0.031,0.045 -0.061,0.091 -0.084,0.142 -0.046,0.107 -0.131,0.235 -0.131,0.352 m -0.561,-0.259 c 0.014,0.009 0.023,0.007 0.026,-0.007 -0.011,-0.01 -0.023,-0.016 -0.035,-0.023 0.023,-0.013 0.059,-0.031 0.075,-0.061 0.021,-0.038 0.026,-0.138 0.024,-0.182 -0.005,-0.108 -0.042,-0.209 -0.032,-0.318 0.014,-0.155 0.031,-0.323 0.073,-0.473 0.015,-0.051 0.016,-0.1 0.035,-0.148 0.015,-0.035 0.04,-0.071 0.043,-0.109 -0.049,0.012 -0.105,0.105 -0.137,0.142 -0.065,0.077 -0.127,0.131 -0.167,0.226 -0.036,0.084 -0.079,0.166 -0.111,0.251 -0.026,0.068 -0.029,0.156 -0.036,0.229 -0.01,0.102 -0.022,0.259 0.047,0.346 0.044,0.055 0.125,0.062 0.186,0.097 -0.026,0.013 -0.036,0.021 0.009,0.03 m 2.233,0.96 c -0.113,0.133 -0.242,0.22 -0.41,0.269 -0.077,0.022 -0.085,0.106 -0.05,0.156 -0.005,0.017 -0.006,0.036 0.003,0.057 0.122,0.3 0.07,0.628 0.118,0.942 v 10e-4 c 10e-4,0.009 0.002,0.018 0.003,0.026 0.019,0.111 0.2,0.085 0.195,-0.026 -0.014,-0.309 0.052,-0.586 0.203,-0.857 0.098,-0.177 0.171,-0.323 0.104,-0.524 -0.022,-0.065 -0.114,-0.104 -0.166,-0.044 m -1.786,2.572 c -0.01,0.038 -10e-4,0.082 0.04,0.11 0.01,0.007 0.017,0.016 0.027,0.023 0.01,0.04 0.02,0.085 0.036,0.122 0.013,0.031 0.03,0.044 0.043,0.067 0.042,0.072 0.058,0.173 0.083,0.255 0.023,0.08 0.053,0.159 0.065,0.24 -0.004,0.039 0,0.077 0.01,0.116 0.012,0.04 0.025,0.079 0.038,0.118 0.006,0.048 -0.002,0.089 0.008,0.137 0.013,0.059 0.035,0.117 0.055,0.175 -0.019,0.462 -0.103,0.931 -0.131,1.213 -0.024,0.234 -0.055,0.487 0.148,0.592 0.008,0.01 0.016,0.02 0.026,0.029 0.031,0.026 0.074,0.037 0.108,0.06 0.018,0.012 0.04,0.03 0.063,0.045 0.022,-0.015 0.043,-0.033 0.062,-0.045 0.034,-0.023 0.077,-0.034 0.107,-0.06 0.011,-0.009 0.019,-0.019 0.027,-0.029 0.203,-0.105 0.172,-0.358 0.148,-0.592 -0.028,-0.282 -0.113,-0.751 -0.131,-1.213 0.02,-0.058 0.042,-0.116 0.054,-0.175 0.011,-0.048 0.003,-0.089 0.009,-0.137 0.013,-0.039 0.025,-0.078 0.038,-0.118 0.01,-0.039 0.013,-0.077 0.01,-0.116 0.012,-0.081 0.041,-0.16 0.065,-0.24 0.024,-0.082 0.041,-0.183 0.083,-0.255 0.013,-0.023 0.03,-0.036 0.043,-0.067 0.015,-0.037 0.025,-0.082 0.036,-0.122 0.009,-0.007 0.017,-0.016 0.026,-0.023 0.042,-0.028 0.05,-0.072 0.041,-0.11 0.015,-0.022 0.031,-0.043 0.05,-0.063 0.041,-0.044 0.117,-0.059 0.172,-0.089 0.135,-0.071 0.25,-0.214 0.36,-0.329 0.099,-0.102 0.174,-0.257 0.234,-0.392 0.059,-0.137 0.12,-0.274 0.181,-0.412 0.078,-0.175 0.119,-0.376 0.174,-0.561 0.042,-0.143 0.073,-0.305 0.137,-0.438 0.046,-0.096 0.076,-0.126 0.061,-0.244 -0.008,-0.071 -0.023,-0.148 -0.052,-0.21 -0.032,0.14 -0.073,0.297 -0.132,0.428 -0.112,0.251 -0.198,0.514 -0.32,0.758 -0.049,0.099 -0.077,0.206 -0.126,0.306 -0.039,0.08 -0.086,0.156 -0.127,0.235 -0.076,0.149 -0.166,0.283 -0.279,0.395 -0.114,0.112 -0.314,0.285 -0.458,0.251 -0.14,-0.032 -0.368,-0.096 -0.475,0.105 v 0.09 c -0.006,-0.016 -0.013,-0.03 -0.018,-0.046 -0.007,0.016 -0.014,0.03 -0.019,0.046 v -0.09 c -0.107,-0.201 -0.335,-0.137 -0.475,-0.105 -0.144,0.034 -0.345,-0.139 -0.458,-0.251 -0.114,-0.112 -0.203,-0.246 -0.28,-0.395 -0.041,-0.079 -0.087,-0.155 -0.126,-0.235 -0.049,-0.1 -0.077,-0.207 -0.126,-0.306 -0.122,-0.244 -0.209,-0.507 -0.321,-0.758 -0.058,-0.131 -0.099,-0.288 -0.131,-0.428 -0.029,0.062 -0.044,0.139 -0.053,0.21 -0.014,0.118 0.016,0.148 0.062,0.244 0.064,0.133 0.094,0.295 0.137,0.438 0.055,0.185 0.096,0.386 0.174,0.561 0.061,0.138 0.122,0.275 0.181,0.412 0.059,0.135 0.135,0.29 0.234,0.392 0.11,0.115 0.225,0.258 0.359,0.329 0.055,0.03 0.132,0.045 0.173,0.089 0.019,0.02 0.035,0.041 0.05,0.063 m 1.332,1.518 c 0.004,0.102 0,0.205 0.004,0.307 0.004,0.08 0.028,0.155 0.042,0.233 0.014,0.08 0.006,0.178 0.031,0.253 0.029,0.088 0.076,0.16 0.098,0.255 0.02,0.085 0.028,0.173 0.054,0.255 0.025,0.079 0.056,0.153 0.065,0.24 0.006,0.075 -0.005,0.157 0.004,0.229 0.008,0.057 0.04,0.094 0.059,0.144 0.032,0.082 0.034,0.175 0.073,0.253 0.045,0.088 0.091,0.19 0.161,0.248 0.042,0.034 0.061,0.084 0.099,0.116 0.036,0.031 0.106,0.071 0.152,0.086 0.058,0.019 0.168,0 0.208,-0.065 C -1.018,0.586 -1.168,0.515 -0.958,0.707 -1.01,0.676 -1.026,0.549 -1.047,0.492 -1.107,0.327 -1.187,0.175 -1.243,0.008 c -0.053,-0.157 -0.128,-0.3 -0.172,-0.463 -0.053,-0.193 -0.1,-0.39 -0.122,-0.594 -0.015,-0.136 -0.009,-0.296 -0.006,-0.437 0.004,-0.133 -0.04,-0.247 -0.052,-0.377 -0.012,-0.137 -0.046,-0.266 -0.071,-0.398 -0.014,-0.074 -0.01,-0.137 -0.062,-0.185 -0.021,-0.02 -0.049,-0.032 -0.074,-0.057 -0.025,-0.026 -0.05,-0.049 -0.082,-0.062 -0.075,-0.03 -0.184,0.069 -0.231,0.149 -0.056,0.095 -0.101,0.296 -0.088,0.4 0.009,0.074 0.03,0.135 0.034,0.212 m 1.234,-0.219 c -0.047,-0.178 -0.102,-0.357 -0.172,-0.527 -0.102,-0.242 -0.39,-0.543 -0.289,-0.827 0.035,-0.098 -0.098,-0.16 -0.166,-0.096 -0.073,0.069 -0.147,0.138 -0.22,0.207 -0.04,0.037 -0.036,0.101 0,0.14 0.171,0.186 0.27,0.37 0.335,0.61 0.013,0.051 0.053,0.07 0.094,0.069 0.05,0.247 0.05,0.505 0.051,0.756 0,0.342 -0.055,0.702 0.183,0.975 0.053,0.062 0.14,0.02 0.165,-0.043 0.165,-0.419 0.132,-0.834 0.019,-1.264 m 7.196,0.459 C 6.107,-1.352 5.909,-1.097 5.683,-0.958 5.608,-0.911 5.524,-0.886 5.437,-0.887 5.401,-0.828 5.354,-0.78 5.29,-0.758 5.111,-0.698 5.021,-0.784 4.981,-0.916 4.863,-0.929 4.759,-1 4.74,-1.113 4.692,-1.129 4.644,-1.145 4.596,-1.169 4.351,-1.295 4.111,-1.416 3.861,-1.535 3.806,-1.562 3.672,-1.644 3.591,-1.63 3.487,-1.612 3.325,-1.453 3.268,-1.37 3.133,-1.171 3.131,-0.893 3.119,-0.665 3.1,-0.31 3.051,0.021 2.989,0.368 2.962,0.519 2.931,0.686 2.951,0.84 3,0.912 3.06,0.984 3.143,1.052 3.205,1.101 3.275,1.138 3.347,1.172 3.63,1.239 3.892,1.365 4.187,1.405 4.264,1.434 4.335,1.474 4.4,1.527 4.648,1.511 4.814,1.404 4.899,1.204 5.001,1.099 5.022,1.006 5.154,0.937 5.772,0.611 6.004,1.419 5.713,1.849 5.267,2.51 4.346,2.558 3.731,2.114 3.53,1.969 3.312,1.844 3.1,1.713 3.067,1.71 3.035,1.703 3.002,1.704 2.836,1.706 2.75,1.591 2.732,1.465 2.727,1.46 2.72,1.456 2.714,1.452 2.678,1.424 2.642,1.393 2.607,1.362 2.41,1.373 2.326,1.563 2.266,1.756 2.166,2.083 2.001,2.396 1.859,2.705 1.751,2.938 1.674,3.208 1.893,3.374 2.358,3.455 2.764,3.613 3.249,3.77 3.424,3.827 3.64,3.849 3.83,3.792 3.881,3.594 3.889,3.378 4.08,3.212 4.375,2.956 5.172,2.904 5.068,3.499 5.019,3.783 4.75,3.819 4.558,3.968 4.467,4.038 4.393,4.111 4.31,4.181 4.292,4.275 4.265,4.366 4.202,4.455 3.883,4.895 3.452,4.531 3.081,4.775 2.772,4.979 2.485,4.482 2.792,4.28 2.817,4.263 2.845,4.252 2.873,4.241 2.818,4.22 2.765,4.2 2.712,4.181 2.634,4.172 2.555,4.16 2.478,4.137 2.317,4.089 2.176,4.083 2.013,4.06 1.91,4.045 1.809,4.023 1.713,3.987 1.642,3.961 1.593,3.925 1.512,3.955 1.361,4.01 1.377,4.176 1.413,4.298 c 0.013,0.043 0.056,0.138 0.073,0.17 0.047,0.09 0.1,0.079 0.17,0.133 0.162,0.121 0.188,0.332 0.017,0.45 C 1.67,5.053 1.667,5.055 1.664,5.057 1.78,5.172 1.921,5.255 2.11,5.282 2.295,5.307 2.262,5.242 2.355,5.114 2.425,5.017 2.517,4.954 2.637,4.938 3.178,4.862 3.464,5.726 2.966,5.972 2.777,6.065 2.605,5.941 2.551,5.789 2.518,5.804 2.484,5.817 2.45,5.827 2.23,5.892 1.968,5.857 1.755,5.783 1.209,5.595 0.988,5.112 0.728,4.64 0.695,4.581 0.691,4.524 0.698,4.471 0.609,4.392 0.525,4.316 0.398,4.292 0.259,4.266 0.242,4.358 0.213,4.471 0.198,4.529 0.169,4.597 0.147,4.664 0.164,4.785 0.18,4.906 0.194,5.027 0.195,5.03 0.197,5.032 0.198,5.035 0.271,5.193 0.332,5.273 0.307,5.463 0.295,5.561 0.267,5.629 0.231,5.696 0.228,5.842 0.219,5.988 0.195,6.134 0.168,6.305 -0.072,6.712 -0.059,6.876 -0.038,7.145 0.536,7.142 0.583,6.948 0.622,6.79 0.788,6.717 0.936,6.748 1.904,6.948 0.893,8.105 0.335,8.169 -0.108,8.22 -0.439,7.853 -0.669,7.518 -0.694,7.481 -0.711,7.443 -0.731,7.406 -0.793,7.452 -0.857,7.494 -0.917,7.545 -0.918,7.546 -0.918,7.547 -0.919,7.548 -0.957,7.526 -0.993,7.505 -1.025,7.474 -1.03,7.447 -1.034,7.421 -1.038,7.394 -1.093,7.238 -0.968,6.942 -0.926,6.798 -0.921,6.78 -0.915,6.764 -0.91,6.746 -0.932,6.46 -0.924,6.168 -1.018,5.859 -1.115,5.539 -0.674,5.389 -0.51,5.624 -0.506,5.57 -0.506,5.514 -0.515,5.454 -0.533,5.367 -0.527,5.281 -0.498,5.196 -0.494,5.173 -0.489,5.15 -0.485,5.127 -0.511,5.068 -0.659,4.998 -0.713,4.973 -0.822,4.922 -0.916,4.959 -1.039,4.955 -1.193,4.95 -1.358,4.937 -1.5,5.016 -1.697,5.124 -1.781,5.333 -2.001,5.42 -2.148,5.479 -2.221,5.46 -2.36,5.451 -2.453,5.446 -2.6,5.405 -2.689,5.424 -2.757,5.438 -2.813,5.503 -2.864,5.567 V 5.614 C -2.87,5.606 -2.877,5.598 -2.882,5.59 -2.889,5.598 -2.895,5.606 -2.901,5.614 V 5.567 C -2.953,5.503 -3.008,5.438 -3.076,5.424 -3.166,5.405 -3.312,5.446 -3.405,5.451 -3.544,5.46 -3.618,5.479 -3.765,5.42 -3.984,5.333 -4.068,5.124 -4.265,5.016 -4.408,4.937 -4.572,4.95 -4.726,4.955 -4.85,4.959 -4.943,4.922 -5.052,4.973 c -0.054,0.025 -0.202,0.095 -0.229,0.154 0.005,0.023 0.01,0.046 0.014,0.069 0.029,0.085 0.035,0.171 0.017,0.258 -0.009,0.06 -0.01,0.116 -0.006,0.17 0.165,-0.235 0.606,-0.085 0.508,0.235 -0.094,0.309 -0.085,0.601 -0.107,0.887 0.005,0.018 0.011,0.034 0.016,0.052 0.041,0.144 0.167,0.44 0.111,0.596 C -4.732,7.421 -4.736,7.447 -4.74,7.474 -4.772,7.505 -4.809,7.526 -4.846,7.548 -4.847,7.547 -4.847,7.546 -4.849,7.545 -4.909,7.494 -4.972,7.452 -5.034,7.406 -5.054,7.443 -5.071,7.481 -5.097,7.518 -5.326,7.853 -5.657,8.22 -6.1,8.169 -6.659,8.105 -7.669,6.948 -6.701,6.748 c 0.148,-0.031 0.314,0.042 0.353,0.2 0.047,0.194 0.621,0.197 0.642,-0.072 C -5.693,6.712 -5.933,6.305 -5.961,6.134 -5.984,5.988 -5.994,5.842 -5.996,5.696 -6.032,5.629 -6.06,5.561 -6.073,5.463 -6.098,5.273 -6.036,5.193 -5.963,5.035 -5.962,5.032 -5.96,5.03 -5.959,5.027 -5.946,4.906 -5.929,4.785 -5.912,4.664 -5.935,4.597 -5.963,4.529 -5.978,4.471 -6.007,4.358 -6.025,4.266 -6.163,4.292 c -0.127,0.024 -0.211,0.1 -0.3,0.179 0.007,0.053 0.002,0.11 -0.03,0.169 C -6.753,5.112 -6.975,5.595 -7.52,5.783 -7.733,5.857 -7.995,5.892 -8.215,5.827 -8.25,5.817 -8.284,5.804 -8.316,5.789 -8.37,5.941 -8.542,6.065 -8.731,5.972 -9.229,5.726 -8.943,4.862 -8.402,4.938 c 0.12,0.016 0.212,0.079 0.282,0.176 0.093,0.128 0.059,0.193 0.245,0.168 0.188,-0.027 0.33,-0.11 0.445,-0.225 C -7.433,5.055 -7.435,5.053 -7.438,5.051 -7.609,4.933 -7.584,4.722 -7.422,4.601 -7.351,4.547 -7.298,4.558 -7.251,4.468 -7.234,4.436 -7.192,4.341 -7.179,4.298 -7.142,4.176 -7.126,4.01 -7.277,3.955 -7.358,3.925 -7.407,3.961 -7.478,3.987 -7.575,4.023 -7.675,4.045 -7.778,4.06 -7.941,4.083 -8.082,4.089 -8.244,4.137 -8.321,4.16 -8.399,4.172 -8.477,4.181 -8.53,4.2 -8.583,4.22 -8.638,4.241 c 0.028,0.011 0.056,0.022 0.081,0.039 0.307,0.202 0.02,0.699 -0.289,0.495 -0.371,-0.244 -0.803,0.12 -1.121,-0.32 -0.064,-0.089 -0.09,-0.18 -0.108,-0.274 -0.084,-0.07 -0.157,-0.143 -0.248,-0.213 -0.192,-0.149 -0.461,-0.185 -0.51,-0.469 -0.104,-0.595 0.693,-0.543 0.988,-0.287 0.191,0.166 0.199,0.382 0.25,0.58 0.19,0.057 0.406,0.035 0.581,-0.022 0.485,-0.157 0.89,-0.315 1.356,-0.396 C -7.439,3.208 -7.516,2.938 -7.624,2.705 -7.767,2.396 -7.931,2.083 -8.032,1.756 -8.091,1.563 -8.175,1.373 -8.372,1.362 -8.407,1.393 -8.443,1.424 -8.48,1.452 -8.485,1.456 -8.492,1.46 -8.497,1.465 -8.515,1.591 -8.602,1.706 -8.767,1.704 -8.8,1.703 -8.833,1.71 -8.865,1.713 c -0.212,0.131 -0.43,0.256 -0.631,0.401 -0.616,0.444 -1.536,0.396 -1.982,-0.265 -0.291,-0.43 -0.06,-1.238 0.559,-0.912 0.132,0.069 0.153,0.162 0.254,0.267 0.086,0.2 0.252,0.307 0.5,0.323 0.064,-0.053 0.135,-0.093 0.213,-0.122 0.295,-0.04 0.557,-0.166 0.839,-0.233 C -9.04,1.138 -8.97,1.101 -8.908,1.052 -8.825,0.984 -8.765,0.912 -8.716,0.84 -8.696,0.686 -8.727,0.519 -8.754,0.368 -8.816,0.021 -8.865,-0.31 -8.884,-0.665 -8.897,-0.893 -8.898,-1.171 -9.033,-1.37 -9.09,-1.453 -9.252,-1.612 -9.356,-1.63 c -0.081,-0.014 -0.216,0.068 -0.271,0.095 -0.249,0.119 -0.489,0.24 -0.734,0.366 -0.048,0.024 -0.096,0.04 -0.144,0.056 -0.02,0.113 -0.123,0.184 -0.242,0.197 -0.039,0.132 -0.13,0.218 -0.308,0.158 -0.065,-0.022 -0.111,-0.07 -0.148,-0.129 -0.086,0.001 -0.17,-0.024 -0.245,-0.071 -0.227,-0.139 -0.424,-0.394 -0.578,-0.606 -0.288,-0.398 -0.467,-1.038 0,-1.371 0.159,-0.113 0.37,0.009 0.422,0.171 0.021,0.066 0.048,0.127 0.079,0.187 0.046,-0.007 0.095,0.005 0.124,0.039 0.094,0.112 0.167,0.232 0.23,0.354 0.037,0.025 0.079,0.044 0.121,0.062 0.1,0.012 0.201,0.058 0.295,0.123 0.007,0.004 0.013,0.01 0.02,0.014 0.019,0.013 0.036,0.028 0.053,0.042 0.074,-0.007 0.148,-0.009 0.219,0.004 0.122,0.02 0.237,0.078 0.365,0.063 0.155,-0.018 0.282,-0.128 0.433,-0.166 0.263,-0.066 0.381,-0.193 0.416,-0.457 0.023,-0.167 0.097,-0.32 0.085,-0.489 -0.009,-0.13 -0.07,-0.24 -0.082,-0.371 -0.016,-0.189 -0.062,-0.358 -0.104,-0.545 -0.019,-0.083 -0.031,-0.192 -0.07,-0.267 -0.073,-0.143 -0.256,-0.23 -0.39,-0.312 -0.012,-0.007 -0.022,-0.012 -0.034,-0.018 -0.123,-0.006 -0.248,-0.017 -0.369,-0.036 -0.086,0.11 -0.26,0.162 -0.397,0.084 -0.131,0.013 -0.259,-0.023 -0.387,-0.066 -0.024,0 -0.047,-0.003 -0.07,-0.01 -0.602,-0.176 -1.227,-1.443 -0.418,-1.754 0.326,-0.126 0.557,0.073 0.716,0.339 0.066,0.111 0.122,0.25 0.185,0.381 0.317,-0.059 0.566,0.149 0.842,0.307 0.263,0.151 0.666,0.007 0.717,-0.311 0.023,-0.141 0.01,-0.303 0.029,-0.448 0.024,-0.198 0.061,-0.365 0.125,-0.552 0.006,-0.018 0.012,-0.035 0.018,-0.052 -0.091,-0.173 -0.158,-0.364 -0.222,-0.511 -0.292,-0.676 -0.624,-1.136 -1.088,-1.694 -0.319,-0.385 -0.222,-1.68 0.495,-1.385 0.325,0.133 0.247,0.495 0.249,0.787 0.256,0.225 0.408,0.56 0.508,0.882 0.086,0.071 0.178,0.138 0.273,0.203 0.044,0 0.088,0.008 0.128,0.032 0.097,0.059 0.152,0.11 0.189,0.187 0.167,0.118 0.325,0.24 0.449,0.378 0.137,0.153 0.069,0.344 -0.059,0.438 0.035,0.091 0.066,0.182 0.09,0.272 0.025,-10e-4 0.05,-0.003 0.076,-0.008 0.219,-0.045 0.308,-0.211 0.34,-0.414 0.008,-0.047 0.01,-0.091 0.009,-0.135 -0.53,-0.575 -0.91,-1.231 -1.059,-2.004 -0.086,-0.171 -0.135,-0.34 -0.105,-0.55 0.003,-0.021 0.007,-0.042 0.011,-0.063 -0.05,-0.46 -0.053,-1.032 0.285,-1.211 0.429,-0.228 0.807,0.195 0.834,0.594 0.032,0.464 -0.189,0.879 -0.123,1.362 0.05,0.217 0.112,0.428 0.208,0.643 0.013,0.03 0.027,0.066 0.042,0.103 0.067,0.127 0.144,0.247 0.23,0.363 0.038,0.026 0.08,0.049 0.12,0.072 0.089,0.051 0.182,0.086 0.274,0.128 0.18,0.084 0.372,0.085 0.401,0.1 0.043,-0.023 0.088,-0.045 0.13,-0.056 0.1,-0.023 0.208,-0.021 0.311,-0.047 0.191,-0.049 0.372,-0.144 0.448,-0.337 0.086,-0.219 0.003,-0.51 -0.017,-0.737 -0.015,-0.186 0.007,-0.359 0.033,-0.54 0.034,-0.233 -0.107,-0.412 -0.11,-0.636 -0.002,-0.197 -0.072,-0.366 -0.054,-0.563 0.019,-0.209 0.042,-0.433 0.092,-0.635 0.014,-0.056 0.011,-0.125 0.029,-0.176 0.014,-0.04 0.04,-0.054 0.06,-0.091 0.032,-0.056 0.018,-0.062 0.03,-0.126 0.013,-0.076 0.051,-0.12 0.083,-0.191 0.064,-0.136 0.078,-0.214 0.219,-0.284 0.131,-0.064 0.189,-0.127 0.276,-0.248 0.105,-0.148 0.181,-0.251 0.347,-0.32 0.083,-0.034 0.162,-0.078 0.246,-0.11 0.095,-0.036 0.182,-0.017 0.279,-0.033 0.065,-0.011 0.124,-0.017 0.187,-0.028 0.107,-0.018 0.149,-0.079 0.259,-0.064 0.179,0.022 0.367,0.075 0.549,0.063 v -0.001 c 0.006,0.001 0.012,0 0.019,0.001 0.005,-0.001 0.012,0 0.018,-0.001 v 0.001 c 0.182,0.012 0.37,-0.041 0.549,-0.063 0.11,-0.015 0.152,0.046 0.259,0.064 0.063,0.011 0.122,0.017 0.187,0.028 0.096,0.016 0.184,-0.003 0.279,0.033 0.083,0.032 0.163,0.076 0.246,0.11 0.166,0.069 0.241,0.172 0.347,0.32 0.086,0.121 0.145,0.184 0.276,0.248 0.141,0.07 0.155,0.148 0.218,0.284 0.033,0.071 0.071,0.115 0.084,0.191 0.011,0.064 -0.002,0.07 0.029,0.126 0.021,0.037 0.047,0.051 0.061,0.091 0.018,0.051 0.014,0.12 0.028,0.176 0.051,0.202 0.074,0.426 0.093,0.635 0.018,0.197 -0.052,0.366 -0.055,0.563 -0.002,0.224 -0.143,0.403 -0.11,0.636 0.027,0.181 0.049,0.354 0.033,0.54 -0.019,0.227 -0.102,0.518 -0.016,0.737 0.076,0.193 0.257,0.288 0.448,0.337 0.102,0.026 0.211,0.024 0.311,0.047 0.042,0.011 0.086,0.033 0.129,0.056 0.03,-0.015 0.221,-0.016 0.402,-0.1 0.092,-0.042 0.185,-0.077 0.273,-0.128 0.042,-0.023 0.083,-0.046 0.121,-0.072 0.086,-0.116 0.163,-0.236 0.23,-0.363 0.014,-0.037 0.028,-0.073 0.042,-0.103 0.096,-0.215 0.158,-0.426 0.208,-0.643 0.066,-0.483 -0.155,-0.898 -0.124,-1.362 0.028,-0.399 0.406,-0.822 0.835,-0.594 0.337,0.179 0.335,0.751 0.284,1.211 0.004,0.021 0.009,0.042 0.012,0.063 0.03,0.21 -0.02,0.379 -0.105,0.55 -0.149,0.773 -0.529,1.429 -1.059,2.004 -0.001,0.044 10e-4,0.088 0.009,0.135 0.032,0.203 0.121,0.369 0.34,0.414 0.025,0.005 0.051,0.007 0.076,0.008 C 2.1,-7.12 2.131,-7.211 2.165,-7.302 2.037,-7.396 1.969,-7.587 2.107,-7.74 2.231,-7.878 2.389,-8 2.556,-8.118 c 0.037,-0.077 0.092,-0.128 0.189,-0.187 0.04,-0.024 0.084,-0.032 0.128,-0.032 0.094,-0.065 0.186,-0.132 0.273,-0.203 0.1,-0.322 0.251,-0.657 0.508,-0.882 0.002,-0.292 -0.076,-0.654 0.249,-0.787 0.716,-0.295 0.814,1 0.494,1.385 -0.463,0.558 -0.796,1.018 -1.087,1.694 -0.064,0.147 -0.131,0.338 -0.222,0.511 0.005,0.017 0.011,0.034 0.017,0.052 0.064,0.187 0.102,0.354 0.126,0.552 0.018,0.145 0.006,0.307 0.028,0.448 0.052,0.318 0.455,0.462 0.718,0.311 0.276,-0.158 0.525,-0.366 0.841,-0.307 0.064,-0.131 0.119,-0.27 0.185,-0.381 0.16,-0.266 0.391,-0.465 0.716,-0.339 0.81,0.311 0.185,1.578 -0.418,1.754 -0.022,0.007 -0.046,0.01 -0.069,0.01 -0.129,0.043 -0.256,0.079 -0.387,0.066 -0.137,0.078 -0.311,0.026 -0.397,-0.084 -0.121,0.019 -0.246,0.03 -0.369,0.036 -0.012,0.006 -0.023,0.011 -0.035,0.018 -0.133,0.082 -0.316,0.169 -0.39,0.312 -0.038,0.075 -0.051,0.184 -0.069,0.267 -0.042,0.187 -0.088,0.356 -0.104,0.545 -0.012,0.131 -0.073,0.241 -0.083,0.371 -0.012,0.169 0.063,0.322 0.085,0.489 0.035,0.264 0.154,0.391 0.417,0.457 0.151,0.038 0.278,0.148 0.433,0.166 0.128,0.015 0.243,-0.043 0.365,-0.063 0.071,-0.013 0.145,-0.011 0.218,-0.004 0.018,-0.014 0.035,-0.029 0.053,-0.042 0.008,-0.004 0.014,-0.01 0.021,-0.014 0.094,-0.065 0.196,-0.111 0.295,-0.123 0.042,-0.018 0.084,-0.037 0.121,-0.062 0.063,-0.122 0.136,-0.242 0.23,-0.354 0.029,-0.034 0.078,-0.046 0.123,-0.039 0.032,-0.06 0.059,-0.121 0.08,-0.187 0.052,-0.162 0.263,-0.284 0.421,-0.171 0.467,0.333 0.288,0.973 0.001,1.371"
             style="fill:#100f0d;fill-opacity:1;fill-rule:nonzero;stroke:none"
             id="path3991" />
        </g>
      </g>
    </g>
  </g>
</svg>
