<svg width="34" height="24" viewBox="0 0 34 24" fill="#000000" xmlns="http://www.w3.org/2000/svg">
  <path d="M31.9679 19.4718C31.7727 19.1619 31.4958 19.1729 31.2359 19.0106C30.6992 18.6788 30.1307 18.4568 29.5792 18.1603C28.818 17.7516 28.0872 17.2917 27.3748 16.7549C26.8624 16.3706 26.3659 15.9754 25.8755 15.546C25.3119 15.0531 24.7702 14.5066 24.181 14.0674C23.6893 13.7014 23.2648 13.2293 22.7951 12.8243C22.4059 12.4888 22.0339 12.1057 21.6764 11.7129C21.3726 11.3774 21.0469 11.0297 20.7102 10.7528C20.5431 10.6137 20.3601 10.5198 20.1978 10.3722C19.9892 10.1818 19.8038 9.95859 19.5915 9.77438C19.1377 9.37912 18.6961 8.93384 18.2179 8.59591C18.0922 8.50686 17.9946 8.3751 17.8641 8.29336C17.7372 8.21529 17.5993 8.16893 17.4664 8.11159C17.1992 7.99814 16.9272 7.91274 16.6673 7.77733C16.5319 7.70657 16.1305 7.60897 16.0244 7.77489C15.9988 7.81514 15.9707 7.91396 15.9792 7.96886C15.9939 8.06279 16.0012 8.01888 16.0402 8.07499C16.0976 8.15795 16.2037 8.24823 16.2806 8.32874C16.5014 8.56053 16.6905 8.81062 16.8954 9.06559C16.9991 9.19491 17.0699 9.3474 17.1858 9.46696C17.2931 9.57797 17.4127 9.67069 17.5213 9.77926C17.6689 9.9281 17.7823 10.0916 17.9446 10.2172C18.3935 10.5649 18.7327 11.2481 19.0059 11.8129C19.1121 12.0325 19.2414 12.3595 19.1938 12.6291C19.1719 12.7584 19.0962 12.845 19.0352 12.9584C18.89 13.2305 18.7107 13.4635 18.5765 13.7551C18.2435 14.4724 17.7689 14.8445 17.1309 14.9433C16.8149 14.9921 16.505 14.9823 16.1891 15.0482C15.7511 15.1409 15.3144 15.2544 14.8728 15.313C13.5967 15.4837 12.3292 15.1043 11.058 15.1056C10.8384 15.1056 10.3577 15.0812 10.4797 15.5533C10.5505 15.8265 10.8945 15.8644 11.0653 15.9888C11.2995 16.1584 11.5033 16.3743 11.718 16.5805C12.0034 16.8537 12.2377 17.1966 12.5292 17.4527C13.0575 17.9188 13.565 18.4287 14.092 18.8947C14.6824 19.4169 15.2936 19.9012 15.8768 20.4392C16.0842 20.6319 16.2708 20.8064 16.5014 20.9516C16.6807 21.065 16.8662 21.2041 17.0296 21.3541C17.1589 21.4749 17.2419 21.6006 17.3871 21.6921C17.4883 21.7555 17.614 21.8104 17.7055 21.8934C17.9068 22.0763 18.0373 22.3045 18.1617 22.5802C18.202 22.668 18.2618 22.84 18.2227 22.9547C18.1837 23.0669 18.069 23.0242 17.98 23.0242C17.4822 23.0206 16.9845 23.0401 16.4867 23.0267C16.3843 23.0242 16.2952 22.9828 16.1976 22.9669C16.0915 22.9486 15.9914 22.9645 15.8853 22.9535C15.6535 22.9315 15.412 22.8718 15.1826 22.8205C14.9655 22.7717 14.7105 22.7046 14.4934 22.7229C14.2567 22.7412 14.0298 22.8827 13.8053 22.9669C13.6004 23.0425 13.5259 23.1963 13.4039 23.3951C13.3783 23.439 13.2246 23.6318 13.227 23.6916C13.2331 23.8355 13.4747 23.7367 13.471 23.9136C13.4686 24.0441 13.1209 23.988 13.066 23.988C12.7598 23.9819 12.4768 23.8477 12.1754 23.7831C11.8387 23.7086 11.5118 23.6074 11.1678 23.6159C10.5859 23.6293 10.0003 23.3207 9.41105 23.4793C9.22561 23.5281 9.06946 23.6464 8.87671 23.6794C8.7169 23.7062 8.56928 23.6806 8.41069 23.6855C8.00811 23.7001 7.62138 23.8672 7.21392 23.8453C7.00775 23.8343 6.82475 23.7404 6.62346 23.7025C6.37825 23.6574 6.12328 23.6879 5.87685 23.6903C5.56943 23.6928 5.27542 23.6098 4.97165 23.6147C4.60201 23.6196 4.24578 23.5757 3.87858 23.5415C3.68339 23.5244 3.49429 23.4744 3.2991 23.4646C3.05755 23.4512 2.81356 23.4939 2.57201 23.4622C2.35364 23.4342 2.17431 23.3305 1.97668 23.2365C1.85712 23.1792 1.72049 23.1792 1.78026 22.962C1.97058 22.9145 2.08891 22.8644 2.24873 22.7278C2.48906 22.5228 2.75378 22.4277 3.02095 22.2862C3.33692 22.1178 3.64801 21.947 3.95665 21.7567C4.31288 21.5371 4.69594 21.4176 5.04363 21.1736C5.29616 20.9967 5.58651 20.8515 5.82684 20.6527C5.97201 20.5319 6.10254 20.3684 6.24284 20.2354C6.43315 20.0573 6.6015 19.8219 6.76254 19.6047C6.97725 19.3168 7.07362 18.8996 7.23588 18.5605C7.34567 18.3299 7.39691 18.0639 7.51647 17.8456C7.63968 17.6199 7.7141 17.3844 7.82267 17.1502C7.94101 16.8928 8.12644 16.6805 8.26551 16.4353C8.44241 16.1254 8.6376 15.8363 8.82059 15.5313C8.95722 15.3056 9.09386 15.0848 9.28051 14.9274C9.44276 14.792 9.5977 14.5956 9.77825 14.5053C9.93441 14.4285 10.0979 14.4468 10.2528 14.3602C10.376 14.2919 10.5041 14.1625 10.6017 14.054C10.9116 13.7124 11.1727 13.3854 11.4154 12.9609C11.8253 12.2436 12.2425 11.5262 12.6683 10.8211C12.8781 10.4722 13.0282 10.0781 13.2222 9.7146C13.4198 9.34496 13.5711 8.85088 13.8077 8.53247C13.959 8.32874 14.153 8.27628 14.3372 8.13843C14.5641 7.96886 14.6934 7.67973 14.9496 7.57603C15.0716 7.52724 15.1851 7.48454 15.2863 7.3784C15.379 7.28203 15.4303 7.14783 15.5218 7.05024C15.6608 6.90384 15.867 6.85993 16.0366 6.79893C16.2867 6.71109 16.549 6.62813 16.8088 6.67327C17.1565 6.73427 17.553 7.03194 17.8629 7.24055C18.1605 7.44184 18.435 7.66387 18.7461 7.83466C19.0779 8.01644 19.4171 8.17625 19.7452 8.36656C20.6541 8.89358 21.5215 9.4389 22.2778 10.2977C22.6572 10.7296 23.0354 11.1651 23.4112 11.6019C23.8394 12.1008 24.2859 12.5327 24.7592 12.9548C25.3143 13.4489 25.8181 13.9991 26.3256 14.5712C26.6611 14.947 26.9832 15.3617 27.3394 15.7046C27.7115 16.0632 28.1739 16.245 28.5484 16.6037C28.8192 16.8635 29.0937 17.0819 29.3792 17.31C29.6439 17.5186 29.8598 17.7858 30.1343 17.9712C30.3673 18.1286 30.5308 18.4104 30.765 18.5519C30.8785 18.6215 30.998 18.6446 31.1091 18.7276C31.2262 18.8154 31.3274 18.9069 31.4543 18.974C31.7715 19.1412 32.0704 19.4095 31.9679 19.4718Z"/>
  <path d="M14.645 6.32802C14.5852 6.29142 14.5084 6.17431 14.462 6.09501C14.3705 5.94252 14.3058 5.8437 14.1838 5.74489C13.9801 5.57897 13.7861 5.36548 13.5739 5.23373C13.3079 5.06781 13.0017 5.04342 12.7248 4.98242C12.099 4.84456 11.4707 4.81285 10.8448 4.69817C10.5362 4.64205 10.2434 4.44808 9.93843 4.34561C9.6127 4.23581 9.32113 4.04428 9.0259 3.76369C8.84535 3.59412 8.73434 3.42698 8.6038 3.16104C8.49401 2.93778 8.46961 2.86703 8.43545 2.57668C8.40983 2.35587 8.39885 2.16312 8.40251 1.93377C8.40617 1.69832 8.47937 1.60804 8.55012 1.42871C8.61234 1.27011 8.69164 1.07492 8.77825 0.956587C8.83925 0.873631 8.91611 0.856551 8.98687 0.806533C9.1357 0.700398 9.29795 0.810193 9.43947 0.712597C9.42117 0.585723 9.33333 0.458848 9.27721 0.377112C9.22598 0.301475 9.17596 0.263656 9.11252 0.224618C9.03932 0.17826 8.97223 0.0855437 8.90269 0.0428455C8.75752 -0.0449908 8.54524 0.0294259 8.39519 0.0294259C8.27441 0.0294259 8.14632 -0.00107272 8.02676 0.0196664C7.90721 0.0404055 7.83279 0.195339 7.73642 0.306355C7.5888 0.475927 7.43509 0.627201 7.37165 0.959027C7.30578 1.30061 7.2826 1.75931 7.27894 2.12042C7.27772 2.30463 7.28138 2.48884 7.28016 2.67306C7.28016 2.82555 7.25942 3.0305 7.2826 3.17689C7.3192 3.41844 7.48145 3.67463 7.59734 3.79419C7.73276 3.93204 7.88403 4.02598 8.03164 4.11137C8.17926 4.19677 8.32199 4.3578 8.47815 4.38708C8.6343 4.41758 8.78679 4.36512 8.94295 4.42246C9.04542 4.46028 9.15034 4.46638 9.25403 4.4981C9.34553 4.52738 9.43459 4.59691 9.52608 4.61887C9.73469 4.66889 9.93599 4.77747 10.1422 4.86896C10.3776 4.9751 10.624 5.04098 10.857 5.16175C11.0522 5.26301 11.2523 5.23373 11.4512 5.29961C11.6927 5.38012 11.9391 5.30327 12.1831 5.39232C12.5247 5.51554 12.8736 5.61679 13.2103 5.78393C13.347 5.85102 13.4848 5.9108 13.6227 5.9718C13.7373 6.02181 13.8569 6.0084 13.9691 6.08891C14.0753 6.16577 14.1704 6.2963 14.2863 6.32436C14.3412 6.339 14.3998 6.30972 14.4547 6.33412C14.5877 6.39634 14.5596 6.56713 14.645 6.32802Z"/>
  <path d="M10.0092 9.46207C9.98112 9.19734 9.6981 9.17172 9.58586 9.12292C9.23086 8.97165 8.85023 8.93627 8.48669 9.03143C8.23416 9.0973 8.00237 9.09243 7.74862 9.11438C7.58758 9.12658 7.43387 9.22418 7.27162 9.24248C6.79462 9.29738 6.3835 9.06315 5.95163 8.73498C5.7906 8.61176 5.65641 8.54833 5.53685 8.32142C5.45267 8.16038 5.3807 7.97739 5.32458 7.77732C5.24772 7.50161 5.25016 7.26006 5.25138 6.95385C5.2526 6.66839 5.29042 6.41708 5.44779 6.29264C5.54417 6.21701 5.77596 6.20725 5.83696 6.39512C5.78328 6.23652 5.58931 6.12063 5.49659 6.07061C5.3441 5.98765 4.99031 5.67657 4.86588 5.89494C4.78658 6.03401 4.7268 6.41464 4.68777 6.60983C4.62433 6.91726 4.62921 7.22224 4.67191 7.52357C4.69753 7.71022 4.77316 8.247 4.55479 8.08597C4.49867 8.04449 4.47672 7.92371 4.42304 7.87614C4.3596 7.82002 4.27542 7.81514 4.20467 7.75658C3.8704 7.47721 3.51296 7.30276 3.14453 7.29178C2.96764 7.2869 2.30033 7.14783 2.26739 7.61507C2.56749 7.73584 2.87614 7.74316 3.17869 7.86028C3.28726 7.90297 3.3324 8.00911 3.42146 8.10061C3.51296 8.19454 3.57883 8.15428 3.66911 8.22748C3.73743 8.2836 3.785 8.44951 3.84844 8.52759C3.9009 8.59225 3.97532 8.64104 4.03143 8.69228C4.19735 8.84478 4.32422 9.01069 4.50843 9.09486C4.66703 9.16562 4.7817 9.20466 4.94396 9.22784C5.17697 9.262 5.43437 9.33642 5.66495 9.43035C5.89308 9.52551 6.12487 9.54503 6.34934 9.65848C6.60065 9.78536 6.82146 9.80853 7.08009 9.80122C7.34237 9.79512 7.59246 9.91955 7.85963 9.91833C8.34761 9.91345 8.83559 9.91833 9.32357 9.91833C9.50046 9.91833 9.76397 9.82683 9.93721 9.91223C10.0397 9.96347 10.1239 10.1233 10.2227 10.194C10.4423 10.3478 10.7704 10.4148 10.9632 10.6991C10.7314 10.3624 10.4618 10.1574 10.2276 9.81341C10.0824 9.60114 9.95795 9.46329 9.78105 9.34739C9.61514 9.23028 9.44435 9.14854 9.26745 9.1034C9.02346 9.06559 8.82339 9.22296 8.66724 9.57553"/>
  <path d="M27.0273 6.156C27.0237 6.18772 27.02 6.21944 27.0176 6.24993C26.7736 6.38047 26.5259 6.34509 26.2697 6.39389C26.1404 6.41829 26.0136 6.511 25.8818 6.51466C25.7012 6.51954 25.6073 6.33045 25.4548 6.17796C25.3523 6.07426 25.2462 6.04986 25.1376 5.97789C25.0095 5.89249 24.901 5.73878 24.7838 5.61068C24.5643 5.36913 24.3349 5.18614 24.0982 5.01413C23.9543 4.90921 23.8481 4.7921 23.692 4.78234C23.5529 4.7738 23.4187 4.76282 23.2797 4.7311C23.021 4.67376 22.7722 4.67376 22.5123 4.67376C22.2537 4.67376 21.9438 4.5664 21.7108 4.78234C21.4363 5.03365 21.2131 4.94825 20.9239 5.04097C20.6543 5.12758 20.3969 5.15076 20.12 5.1349C19.7711 5.11538 19.3844 4.97753 19.0623 4.72378C18.861 4.56396 18.5572 4.28094 18.4267 3.92837C18.3254 3.65632 18.2486 3.06099 18.3023 2.73038C18.3559 2.39002 18.6207 2.38636 18.7719 2.39978C18.6817 2.26192 18.6243 2.11919 18.5182 2.02037C18.4596 1.96669 18.4194 1.94839 18.3572 1.9118C18.2535 1.85324 18.0583 1.65805 17.9485 1.69587C17.8692 1.7227 17.8582 1.85812 17.7911 1.92765C17.7167 2.00695 17.6032 1.96913 17.5227 2.04721C17.3641 2.20092 17.3019 2.44491 17.2226 2.73526C17.1104 3.14394 17.0908 3.76856 17.2494 4.13576C17.3214 4.30046 17.4251 4.48711 17.513 4.61764C17.6032 4.75062 17.6886 4.90799 17.7838 5.00559C17.8887 5.11416 18.04 5.1715 18.1498 5.25812C18.2754 5.35693 18.3938 5.43135 18.5182 5.52528C18.7122 5.67534 18.9 5.81319 19.0952 5.97545C19.3246 6.16698 19.5539 6.17918 19.7967 6.31215C20.3262 6.60128 20.9142 6.80379 21.4485 6.39267C21.579 6.29141 21.6486 6.07548 21.7694 5.94495C21.8291 5.88029 21.9121 5.83271 21.9767 5.78513C22.2134 5.61434 22.4684 5.37645 22.7246 5.35449C22.8673 5.34107 23.0515 5.30447 23.1906 5.37767C23.2614 5.41427 23.3162 5.52528 23.3858 5.56432C23.4382 5.5936 23.4968 5.58384 23.5505 5.61068C23.8286 5.74976 24.1043 6.02546 24.3849 6.13282C24.5765 6.20724 24.7509 6.12062 24.9412 6.26457C25.1035 6.38535 25.2023 6.47075 25.3755 6.49392C25.6403 6.5293 25.8306 6.77939 26.077 6.92579C26.1539 6.97214 26.2075 7.0307 26.2917 6.9819C26.4076 6.76231 26.5357 6.572 26.6748 6.40975C26.8907 6.09744 27.131 5.86077 27.0273 6.156Z"/>
  <path d="M11.2003 20.1098C11.2686 20.1244 11.293 20.1683 11.2711 20.2415C11.0844 20.3001 11.0673 20.0951 10.9405 19.9963C10.8709 19.9426 10.7831 19.9585 10.7123 19.9146C10.6294 19.8633 10.5794 19.7816 10.5037 19.7206C10.3573 19.6023 10.2219 19.5425 10.0767 19.4156C9.86204 19.2265 9.70832 18.9594 9.49849 18.7703C9.14349 18.4494 8.7104 18.1725 8.39322 17.7687C8.00771 17.2819 7.57951 16.9367 7.18791 16.4755C6.84266 16.0681 6.49132 15.6923 6.11679 15.3349C5.88378 15.1116 5.59587 15.0738 5.33481 14.8835C5.19207 14.7798 4.74069 14.1467 4.61016 14.4773C4.54306 14.6468 4.66139 14.7725 4.70653 14.9165C4.73703 15.0153 4.86635 15.4581 4.85049 15.5447C4.82853 15.6728 4.44058 16.0266 4.32103 16.0656C4.19293 16.1071 4.06118 15.9363 3.9343 15.9278C3.87331 15.9241 3.81841 15.9693 3.77327 15.9705C3.72935 15.9717 3.56588 15.8875 3.53416 15.9205C3.39753 16.0681 3.57442 16.7086 3.6403 16.8745C3.78303 17.2295 3.96968 17.5332 4.15146 17.8455C4.38569 18.2481 4.67237 18.5458 4.88098 18.9777C4.99322 19.2107 5.29211 19.5181 5.29943 19.8097C5.31041 20.3037 4.84561 19.9597 4.66871 19.9487C4.57356 19.9426 4.43448 19.9317 4.34421 19.95C4.27467 19.9634 4.23197 20.0232 4.15878 20.0171C4.0685 20.0097 3.97456 19.889 3.88551 19.8914C3.80133 19.8938 3.82573 19.9243 3.76595 19.9451C3.683 19.9731 3.63542 20.011 3.5488 20.0256C3.40973 20.05 3.26455 20.0964 3.1145 20.1452C2.83025 20.2379 2.55576 20.3806 2.25199 20.3965C1.86893 20.4172 1.47001 20.2293 1.08694 20.0768C0.833194 19.9768 0.627023 19.8133 0.392792 19.6267C0.258598 19.5205 -3.05176e-05 19.3839 -3.05176e-05 19.1363C0.0756063 19.0789 0.124404 18.9838 0.192721 18.9142C0.301297 18.8056 0.425731 18.7861 0.539186 18.7081C0.68802 18.6044 0.830754 18.4909 0.996667 18.4128C1.35777 18.2445 1.49685 17.7968 1.69326 17.349C1.77499 17.1599 1.81647 16.9708 1.88967 16.7549C2.01288 16.3877 2.24224 16.2047 2.44475 15.9266C2.56186 15.7668 2.6924 15.6692 2.82171 15.5423C2.97786 15.391 3.06936 15.2227 3.21575 15.0458C3.35117 14.8835 3.50122 14.6481 3.5793 14.4358C3.69763 14.1137 3.71349 13.8075 4.00506 13.7648C4.4479 13.6989 4.97736 14.1747 5.35798 14.4919C5.68005 14.7603 6.02652 14.9628 6.3498 15.2336C6.66455 15.4984 7.00736 15.6033 7.33552 15.8375C7.53193 15.9778 7.73444 16.0083 7.93696 16.1047C8.13459 16.1962 8.20657 16.3499 8.35906 16.5219C8.61159 16.8037 8.87998 16.9355 9.11909 17.2673C9.28134 17.493 9.44115 17.6333 9.61561 17.8285C9.79616 18.0322 9.90961 18.2762 10.117 18.4433C10.3024 18.5946 10.483 18.6922 10.6526 18.8886C10.8966 19.1704 11.0991 19.4107 11.3211 19.734C11.4248 19.8853 11.6932 20.0134 11.7273 20.2232C11.7603 20.4257 11.6505 20.4697 11.5334 20.5124C11.2833 20.6039 11.1296 20.5111 11.2003 20.1098Z"/>
  <path d="M33.1271 14.9348H33.1673C33.1002 14.9335 33.0112 14.9677 32.9465 14.9433C32.8441 14.903 32.7611 14.7713 32.6635 14.703C32.4281 14.5395 32.1877 14.5505 31.9547 14.348C31.7632 14.1808 31.5924 13.9454 31.3984 13.7868C31.241 13.6562 31.0886 13.5062 30.9214 13.4281C30.7787 13.361 30.6542 13.1902 30.5152 13.128C30.3932 13.0731 30.2748 13.1524 30.1529 13.0902C30.0662 13.0463 29.9613 12.9267 29.8808 12.8572C29.5478 12.5717 29.2403 12.0959 28.856 12.196C28.7511 12.224 28.756 12.1716 28.7316 12.3655C28.7145 12.5083 28.7438 12.5827 28.7804 12.6864C28.8133 12.7803 28.878 12.8511 28.9207 12.9255C29.0415 13.1341 29.1122 13.4635 29.2403 13.644C29.3074 13.7392 29.3977 13.7368 29.4685 13.8161C29.5587 13.9173 29.6161 14.0735 29.7112 14.1674C29.7747 14.2308 29.8454 14.265 29.8979 14.3614C29.9235 14.4297 29.9479 14.5004 29.9699 14.5736C30.0016 14.5871 30.0345 14.5993 30.0662 14.6115C30.2468 15.1848 29.5929 15.0482 29.4672 15.0482C29.3282 15.0482 29.1757 15.0848 29.039 15.0519C28.9061 15.0189 28.8231 14.9372 28.6743 14.9348C28.5608 14.9335 28.4254 14.936 28.4254 15.2202C28.4266 15.4752 28.6279 15.5484 28.6072 15.8302C28.4169 15.9192 28.2912 15.7607 28.1265 15.7302C28.0216 15.7094 27.9545 15.6704 27.8508 15.6289C27.763 15.5935 27.6764 15.6411 27.5897 15.5935C27.4751 15.5289 27.3543 15.3483 27.2384 15.2629C27.1164 15.1739 27.0225 15.1983 26.9041 15.1653C26.8151 15.1409 26.7577 15.0384 26.6662 15.0226C26.6833 14.8982 26.7699 14.9006 26.8297 14.8262C26.9066 14.7322 26.9639 14.5993 27.0273 14.4785C27.1457 14.2516 27.264 14.071 27.3945 13.8832C27.4995 13.7331 27.5507 13.4952 27.6507 13.3391C27.7727 13.1512 27.863 13.0085 27.9557 12.7681C28.0484 12.5315 28.1436 12.257 28.2436 12.0569C28.3473 11.8495 28.4596 11.5518 28.6157 11.5067C28.7267 11.4738 28.8621 11.5091 28.9768 11.5128C29.1574 11.5177 29.2916 11.6921 29.466 11.7702C29.6222 11.841 29.7466 11.9654 29.8942 12.0618C30.0394 12.1569 30.176 12.1496 30.3224 12.285C30.4664 12.4156 30.6128 12.5217 30.7628 12.6266C30.9165 12.734 31.0459 12.895 31.1886 12.9975C31.3777 13.1317 31.5436 13.4306 31.7424 13.5464C31.9267 13.6538 32.0011 13.6501 32.1548 13.9149C32.3024 14.1723 32.461 14.376 32.6391 14.5383C32.716 14.6078 32.8538 14.7688 32.9282 14.803C32.9844 14.6444 33.0893 14.5883 33.1271 14.9348Z"/>
</svg>
