<svg width="27" height="24" viewBox="0 0 27 24" fill="#000000" xmlns="http://www.w3.org/2000/svg">
  <path d="M16.4703 13.847C16.5977 13.9366 16.7468 13.9602 16.8771 14.0376C16.9828 14.0999 17.0979 14.1896 17.2253 14.1914C17.2829 14.1914 17.347 14.1697 17.4027 14.1603C17.4839 14.148 17.566 14.1074 17.6471 14.0895C17.784 14.0584 17.9048 13.9687 18.0416 13.9414C18.1048 13.9291 18.1539 13.9074 18.2152 13.8913C18.3011 13.8687 18.3795 13.8668 18.4578 13.8168C18.572 13.7432 18.6427 13.6158 18.7173 13.5073C18.8051 13.3799 18.8626 13.2298 18.8928 13.0788C18.9192 12.9476 18.9608 12.8325 18.9561 12.6976C18.9504 12.5654 18.9457 12.4182 18.9296 12.288C18.924 12.2446 18.9108 12.2021 18.9042 12.1587C18.8985 12.1143 18.8853 12.0738 18.8796 12.0294C18.8683 11.9398 18.8107 11.8473 18.7777 11.7633C18.7607 11.7189 18.7447 11.7076 18.7145 11.6774C18.7022 11.6651 18.7088 11.6482 18.6928 11.6349C18.6786 11.6246 18.6541 11.6283 18.6399 11.617C18.6144 11.5981 18.6012 11.5604 18.5748 11.5377C18.5474 11.5142 18.5191 11.4934 18.4918 11.4707C18.4436 11.432 18.3823 11.3915 18.3294 11.365C18.2945 11.3471 18.2681 11.3339 18.2379 11.3103C18.2285 11.3037 18.1973 11.2782 18.1888 11.2744C18.1567 11.2594 18.1728 11.2678 18.1341 11.2622C18.1029 11.2584 18.0727 11.2471 18.0435 11.2424C17.9897 11.2358 17.9897 11.2282 17.9444 11.2056C17.9142 11.1905 17.8831 11.1933 17.85 11.182C17.8368 11.1772 17.8217 11.1659 17.8085 11.1631C17.7774 11.1584 17.7528 11.1725 17.7207 11.1603C17.6887 11.148 17.6764 11.1357 17.6603 11.1272C17.4546 11.1442 17.2744 11.2197 17.08 11.3405C16.9837 11.4 16.8686 11.4311 16.7544 11.4613C16.8186 11.4651 17.012 11.4887 16.7563 11.466L16.7601 11.4877C16.7261 11.5142 16.6798 11.5142 16.6449 11.5368C16.6072 11.5623 16.5741 11.5859 16.5364 11.6095C16.4184 11.6821 16.3335 11.7841 16.2589 11.8973C16.2335 11.936 16.2118 11.986 16.1948 12.0275C16.1712 12.087 16.1221 12.1483 16.1032 12.2059C16.0636 12.3276 16.0334 12.4635 16.0315 12.5919C16.0296 12.6711 16.0381 12.7513 16.057 12.8287C16.0721 12.891 16.0796 12.958 16.0985 13.0175C16.1533 13.1921 16.2108 13.3591 16.2807 13.5318C16.326 13.6431 16.3665 13.7743 16.4703 13.847ZM9.03017 11.2093C8.99809 11.2678 8.98582 11.332 8.96128 11.3943C8.93486 11.4613 8.91976 11.533 8.90466 11.6038C8.87635 11.7293 8.86786 11.8529 8.86408 11.9813C8.86031 12.103 8.83105 12.2097 8.85842 12.3305C8.8839 12.4409 8.91315 12.5456 8.9292 12.6589C8.94524 12.7759 8.95751 12.8957 9.01602 13.0014C9.04716 13.0552 9.07736 13.1071 9.11982 13.1524C9.1453 13.1798 9.17456 13.2024 9.19721 13.2326C9.24723 13.2959 9.26044 13.3676 9.29064 13.4403C9.32461 13.5214 9.39916 13.6092 9.48032 13.6413C9.63037 13.7017 9.72002 13.846 9.88517 13.8696C9.98143 13.8838 10.0569 13.9366 10.156 13.9263C10.224 13.9187 10.29 13.8913 10.357 13.88C10.5297 13.8517 10.7241 13.8376 10.8855 13.7715C10.9166 13.7583 10.9544 13.763 10.9836 13.7517C11.011 13.7403 11.0195 13.7224 11.0431 13.7083C11.0818 13.6847 11.1176 13.6658 11.1563 13.6413C11.2045 13.612 11.2573 13.5809 11.3102 13.5563C11.3932 13.5167 11.4687 13.4544 11.5489 13.4044C11.6518 13.3402 11.732 13.2525 11.8179 13.1675C11.9009 13.0873 11.9651 13.026 12.0094 12.9174C12.0312 12.8618 12.0519 12.7995 12.068 12.7429C12.0868 12.6787 12.0755 12.6164 12.0802 12.5503C12.0821 12.5173 12.0916 12.4852 12.0972 12.4522C12.1057 12.3927 12.0906 12.3607 12.0859 12.3059C12.0755 12.2059 12.0755 12.0964 12.0519 11.9973C12.0425 11.9624 12.0236 11.9313 12.0179 11.8954C12.0066 11.8227 12.0151 11.7491 12 11.6765C11.9887 11.6189 11.9708 11.5651 11.9528 11.5104C11.9292 11.4396 11.9245 11.349 11.8915 11.2839C11.8566 11.2141 11.7688 11.1546 11.7141 11.0989C11.6537 11.0376 11.5744 10.9725 11.5121 10.9036C11.2318 10.7063 10.9374 10.5638 10.6165 10.4232C10.6128 10.4298 10.608 10.4355 10.6033 10.4393C10.575 10.4242 10.5627 10.4072 10.5448 10.3921C10.5269 10.3845 10.508 10.376 10.4901 10.3676C10.4297 10.3581 10.3683 10.3779 10.3098 10.3817C10.2409 10.3864 10.1721 10.3845 10.1003 10.3968C10.0041 10.4147 9.93896 10.4657 9.85403 10.5148C9.80118 10.545 9.74361 10.5657 9.69265 10.5997C9.59168 10.6648 9.5209 10.7658 9.42181 10.829C9.28497 10.9158 9.11133 11.0631 9.03017 11.2093ZM24.6758 13.4752C24.6513 13.2392 24.5985 12.9731 24.5098 12.7532C24.4258 12.5437 24.3899 12.2984 24.2474 12.1172C24.1398 11.9813 24.0464 11.8652 23.8926 11.7746C23.8095 11.7265 23.7142 11.6878 23.6264 11.6491C23.5557 11.617 23.4811 11.6142 23.4103 11.584C23.3235 11.5462 23.2952 11.517 23.198 11.5293C23.1263 11.5377 23.0508 11.5406 22.9781 11.534C22.8564 11.5236 22.7658 11.5198 22.645 11.5443C22.5223 11.5689 22.3355 11.5698 22.2317 11.634C22.2515 11.6661 22.3977 11.6736 22.4298 11.6802C22.5657 11.7057 22.6686 11.785 22.7875 11.8511C22.9489 11.9407 23.0517 12.0794 23.1489 12.2323C23.215 12.3371 23.3169 12.4371 23.3679 12.5513C23.4047 12.6306 23.4292 12.707 23.4698 12.7863C23.5415 12.9222 23.5774 13.0873 23.6076 13.2383C23.6274 13.3374 23.65 13.4336 23.65 13.5327C23.651 13.6573 23.6142 13.7592 23.5576 13.8725C23.5217 13.9461 23.5255 14.0423 23.4972 14.1226C23.4688 14.2056 23.4453 14.3028 23.4047 14.3792C23.3688 14.4472 23.3462 14.4991 23.3245 14.5718C23.2943 14.6765 23.2273 14.752 23.1782 14.8454C23.1329 14.9313 23.097 14.9738 23.0338 15.0445C23.0045 15.0776 22.9894 15.1191 22.9611 15.1521C22.9177 15.2031 22.8545 15.2116 22.8017 15.2512C22.7346 15.3022 22.6856 15.3805 22.6271 15.4409C22.5431 15.5277 22.4346 15.6127 22.3364 15.6825C22.243 15.7476 22.1496 15.824 22.0533 15.8844C21.9344 15.9581 21.8079 16.0024 21.69 16.0836C21.6088 16.1383 21.5305 16.1996 21.4569 16.2638C21.4021 16.3119 21.3578 16.3742 21.2993 16.4167C21.2323 16.4667 21.17 16.4658 21.0954 16.4931C21.0284 16.5186 20.9482 16.5488 20.8906 16.5922C20.7963 16.6649 20.7491 16.7243 20.6321 16.7678C20.5169 16.8112 20.3905 16.8225 20.2697 16.847C20.1895 16.8631 20.1093 16.8876 20.0272 16.8961C19.8639 16.9131 19.7261 16.8574 19.5666 16.8319C19.3043 16.7904 19.0759 16.9018 18.8202 16.9065C18.7069 16.9084 18.6041 16.9244 18.4927 16.948C18.2823 16.9933 18.0671 16.999 17.8548 17.0443C17.6972 17.0773 17.5386 17.0782 17.3801 17.1047C17.2791 17.1207 17.1828 17.1518 17.0819 17.1632C17.0016 17.1726 16.9214 17.1679 16.8412 17.1802C16.7412 17.1962 16.6402 17.2188 16.5421 17.2405C16.4043 17.2717 16.3203 17.3462 16.1957 17.4019C15.9551 17.5095 15.6116 17.5067 15.3558 17.4812C15.1878 17.4642 15.0236 17.4425 14.8538 17.4397C14.6858 17.4368 14.4942 17.4 14.3281 17.4274C14.1847 17.451 14.0478 17.4906 13.9016 17.5001C13.7402 17.5114 13.5854 17.5171 13.4269 17.5482C13.2391 17.5841 13.0683 17.5406 12.8814 17.5142C12.6502 17.4821 12.4341 17.4585 12.2057 17.4066C11.8358 17.3236 11.4234 17.2594 11.0469 17.3198C10.8534 17.35 10.6996 17.3359 10.5099 17.284C10.3221 17.2311 10.1211 17.2292 9.94085 17.1575C9.78608 17.0962 9.62565 17.082 9.46805 17.0292C9.31423 16.9773 9.15946 16.9235 9.00092 16.8885C8.74989 16.8329 8.48849 16.8442 8.23652 16.8017C8.05438 16.7715 7.90622 16.6177 7.75428 16.5262C7.5797 16.4214 7.38246 16.3242 7.19939 16.2336C6.99177 16.1317 6.77566 16.0449 6.56616 15.9458C6.39629 15.8656 6.21888 15.8174 6.04146 15.7561C5.92444 15.7155 5.79799 15.707 5.68285 15.6636C5.55828 15.6164 5.42239 15.5353 5.31481 15.4551C5.03925 15.2522 4.90902 14.9049 4.62591 14.7058C4.51644 14.6293 4.40791 14.5529 4.29844 14.4764C4.2069 14.4123 4.13612 14.3264 4.05308 14.2518C3.87755 14.0952 3.7577 13.8847 3.65672 13.6743C3.60954 13.5771 3.55386 13.4818 3.52649 13.378C3.49535 13.2553 3.40381 13.193 3.33869 13.0864C3.27452 12.9816 3.23111 12.8363 3.20091 12.7174C3.15561 12.5371 3.11315 12.3352 3.09144 12.1502C3.05652 11.8586 3.23017 11.5821 3.2632 11.2971C3.2849 11.1121 3.25942 10.9649 3.3604 10.8017C3.44911 10.661 3.55386 10.5799 3.66427 10.461C3.73788 10.3817 3.82564 10.3543 3.91813 10.3015C4.01438 10.2468 4.10121 10.159 4.17765 10.0797C4.34468 9.90797 4.59099 9.81171 4.82503 9.77207C4.97508 9.74659 5.14306 9.78812 5.29122 9.81076C5.37238 9.82303 5.45353 9.82586 5.53186 9.85606C5.61302 9.8872 5.70267 9.89947 5.78006 9.93345C5.85838 9.96836 5.89707 10.0316 5.98861 10.042C5.88103 9.83247 5.71777 9.70979 5.5413 9.55785C5.4809 9.505 5.42994 9.4531 5.35539 9.42007C5.17703 9.33986 5.01377 9.2587 4.859 9.14073C4.67498 9.00201 4.4617 9.08034 4.25786 9.12092C4.10875 9.15111 3.97758 9.17188 3.85207 9.26436C3.78223 9.31626 3.74165 9.37572 3.69541 9.44838C3.57084 9.64373 3.3302 9.73904 3.18959 9.9259C3.11975 10.0212 3.04897 10.0929 2.96499 10.1779C2.86684 10.2779 2.79606 10.3949 2.73189 10.5195C2.61959 10.7347 2.49313 10.9593 2.46577 11.2037C2.45633 11.2905 2.46199 11.3811 2.44217 11.466C2.41952 11.5698 2.38838 11.6595 2.38744 11.7671C2.38744 11.8907 2.41952 12.0153 2.43179 12.137C2.44217 12.2436 2.44784 12.3474 2.4535 12.4531C2.47143 12.7702 2.64129 13.0467 2.78096 13.3232C2.86401 13.4874 2.92724 13.6601 3.015 13.8225C3.10748 13.9923 3.2179 14.1518 3.30283 14.3264C3.44911 14.6274 3.6454 14.8983 3.81054 15.1889C3.96814 15.4645 4.1399 15.7278 4.3343 15.9798C4.44283 16.1204 4.55701 16.26 4.71178 16.3525C4.859 16.4412 5.02037 16.5082 5.17608 16.579C5.31198 16.6404 5.43938 16.679 5.58188 16.7187C5.63944 16.7357 5.68663 16.7602 5.73476 16.7838C5.77628 16.9338 5.79138 17.0707 5.82063 17.2236C5.84706 17.3623 5.88764 17.518 5.94332 17.6529C6.00277 17.7973 6.10846 17.9276 6.18207 18.0682C6.22076 18.1427 6.38591 18.4041 6.485 18.4051C6.46896 18.2928 6.47179 18.1625 6.49255 18.0635C6.52558 17.9077 6.50859 17.7303 6.53974 17.5661C6.56899 17.4114 6.5907 17.2528 6.62278 17.0999C6.6275 17.1028 6.63222 17.1056 6.63694 17.1084C6.75396 17.1726 6.8823 17.2151 7.00781 17.2641C7.04745 17.4604 7.10219 17.6548 7.15786 17.8389C7.28715 18.2645 7.56271 18.6504 7.9166 18.959C8.05438 19.0798 8.17423 19.228 8.27332 19.3714C8.32806 19.2856 8.2469 19.1799 8.24501 19.0864C8.24029 18.8458 8.27804 18.5976 8.29314 18.3579C8.30352 18.1833 8.31013 18.0068 8.31768 17.8304C8.47622 17.8879 8.62815 17.9625 8.78858 18.0125C8.83294 18.1663 8.88484 18.3173 8.95656 18.4504C9.06132 18.6448 9.22835 18.8071 9.33782 18.9996C9.43597 19.1733 9.4756 19.3469 9.59545 19.512C9.66434 19.6074 10.0833 20.2698 10.2315 20.2321C10.2343 20.166 10.1928 20.1037 10.1805 20.0386C10.1654 19.9537 10.1739 19.8697 10.157 19.7829C10.1249 19.6196 10.1051 19.4696 10.1022 19.3035C10.0984 19.0147 10.09 18.7259 10.0833 18.4372C10.1145 18.4419 10.1466 18.4466 10.1777 18.4523C10.2957 18.473 10.4118 18.4957 10.5288 18.5164C10.6524 18.7146 10.8006 18.8977 10.9355 19.0912C11.0742 19.2922 11.1592 19.4979 11.2705 19.7093C11.3838 19.9226 11.5225 20.1283 11.6508 20.3359C11.7726 20.5322 11.9094 20.7974 12.1236 20.9333C12.135 20.8181 12.0765 20.6804 12.05 20.5652C12.0066 20.3755 11.9623 20.1868 11.9189 19.9981C11.8141 19.5488 11.6707 19.0893 11.6235 18.6325C11.8462 18.6438 12.0698 18.6523 12.2935 18.6618C12.3171 18.9487 12.4096 19.2374 12.5275 19.5111C12.705 19.9226 12.9324 20.3217 13.2863 20.6303C13.4241 20.7511 13.543 20.8993 13.643 21.0427C13.6977 20.9569 13.6166 20.8512 13.6147 20.7577C13.61 20.518 13.6468 20.2689 13.6619 20.0292C13.6836 19.6923 13.6845 19.3488 13.7223 19.0119C13.7374 18.8788 13.7827 18.7458 13.8327 18.6136C13.8836 18.6136 13.9355 18.6146 13.9884 18.6165C14.2168 18.625 14.4451 18.6042 14.6735 18.607C14.6764 18.6193 14.6801 18.6325 14.683 18.6448C14.8122 19.1931 14.9104 19.7282 14.8255 20.2906C14.8085 20.401 14.6622 21.1088 14.8453 21.1626C14.968 20.87 15.0982 20.5841 15.2388 20.2963C15.4813 19.7942 15.587 19.2572 15.7427 18.7316C15.7578 18.6825 15.7682 18.6335 15.7805 18.5834C16.0079 18.5665 16.2372 18.5712 16.4618 18.5363L16.4713 18.5344C16.526 18.7533 16.5798 18.9722 16.6251 19.1921C16.7195 19.6508 16.7129 20.1462 16.7166 20.6115C16.7176 20.7266 16.6883 20.8606 16.7525 20.9663C16.8488 20.8974 16.9026 20.7323 16.9412 20.636C16.9988 20.4935 17.0932 20.3831 17.1536 20.2453C17.2404 20.0481 17.2489 19.8338 17.3584 19.6413C17.4329 19.5517 17.4839 19.4516 17.5122 19.3431C17.5292 19.1695 17.5339 18.9949 17.5263 18.8194C17.5311 18.6344 17.5613 18.4542 17.5943 18.2739C17.6896 18.2399 17.7859 18.2078 17.885 18.1861C17.9897 18.1644 18.0945 18.1446 18.2001 18.1257C18.2341 18.2645 18.2681 18.4041 18.2973 18.5447C18.3917 19.0034 18.3851 19.4988 18.3879 19.9641C18.3889 20.0792 18.3606 20.2123 18.4247 20.318C18.521 20.25 18.5748 20.0839 18.6135 19.9877C18.6701 19.8461 18.7654 19.7348 18.8258 19.597C18.9126 19.4007 18.9211 19.1855 19.0306 18.994C19.1052 18.9034 19.1561 18.8043 19.1844 18.6957C19.2005 18.5212 19.2052 18.3466 19.1976 18.172C19.2014 18.055 19.2146 17.9389 19.2326 17.8247C19.309 17.8068 19.3854 17.7907 19.4647 17.7756C19.5638 17.7568 19.6619 17.7322 19.7601 17.7067C19.8526 17.8926 19.9224 18.0908 20.0045 18.2833C20.0762 18.4504 20.0923 18.6316 20.1631 18.7901C20.2093 18.892 20.2385 19.0242 20.2433 19.1393C20.3603 19.1365 20.5028 18.8637 20.5339 18.7873C20.5924 18.641 20.6906 18.5042 20.7321 18.3551C20.7699 18.2163 20.7868 18.0559 20.7887 17.9125C20.7916 17.7728 20.784 17.6454 20.7944 17.5104C20.8227 17.5067 20.8501 17.5029 20.8784 17.4953C21.0048 17.4652 21.1219 17.4095 21.2417 17.3623C21.3936 17.3019 21.522 17.2009 21.6645 17.1216C21.8145 17.0377 21.9429 16.9395 22.0816 16.8357C22.3468 16.6375 22.6356 16.496 22.913 16.3176C23.2065 16.1298 23.45 15.8476 23.6793 15.59C24.0568 15.1672 24.3663 14.685 24.5569 14.1509C24.6004 14.0291 24.6607 13.9215 24.6711 13.7894C24.6796 13.6884 24.6862 13.5761 24.6758 13.4752ZM25.612 8.76325C25.7451 9.1162 25.7979 9.43328 25.8791 9.78717C25.914 9.93628 25.9414 10.0684 26.0018 10.2033C26.1716 10.5827 26.4783 10.9734 26.4944 11.4066C26.5047 11.6963 26.5425 12.0049 26.6189 12.287C26.7454 12.7561 26.6774 13.276 26.6822 13.7602C26.6841 13.9555 26.6595 14.1414 26.4302 14.1763C26.2839 14.199 26.1103 14.1716 25.9951 14.2735C25.8687 14.3849 25.8328 14.7171 25.8149 14.869C25.7809 15.1757 25.763 15.4947 25.746 15.8014C25.7205 16.2638 25.5884 16.7687 25.394 17.1924C25.0599 17.9228 24.204 17.6869 23.6566 18.1446C23.2622 18.4749 23.2235 19.1704 23.0017 19.6092C22.7903 20.0292 22.3723 20.2245 22.0448 20.5426C21.874 20.7096 21.7381 20.7332 21.5182 20.7936C21.3823 20.8304 21.2351 20.9144 21.1436 21.0239C21.0322 21.1579 20.9803 21.3551 20.8991 21.507C20.7623 21.7618 20.5915 21.9912 20.433 22.2327C20.2706 22.4791 20.1753 22.7886 19.8875 22.8716C19.7072 22.9226 19.5553 23.0321 19.3769 23.0915C19.0618 23.1963 18.7079 23.1821 18.3785 23.1717C18.2454 23.168 18.1331 23.1161 18.002 23.1038C17.8472 23.0906 17.6811 23.1076 17.5254 23.1076C17.0007 23.1076 16.4269 23.0321 15.9305 23.2302C15.7352 23.3086 15.5993 23.4511 15.4191 23.553C15.3077 23.6143 15.186 23.6502 15.0718 23.7049C14.9576 23.7606 14.8557 23.8484 14.7273 23.8672C14.6103 23.8842 14.4716 23.8625 14.3536 23.8625C14.179 23.8625 14.0016 23.8503 13.827 23.8578C13.6817 23.8635 13.6005 23.9522 13.4722 23.9861C13.2825 24.0352 12.9843 23.9409 12.8022 23.9097C12.638 23.8805 12.4879 23.838 12.335 23.7729C12.017 23.637 11.7301 23.3586 11.3791 23.3576C11.0035 23.3558 10.6326 23.2954 10.2617 23.2416C10.0088 23.2048 9.83704 23.1614 9.60395 23.0424C9.44352 22.9594 9.32178 22.9481 9.15191 22.9037C9.05188 22.8773 8.99714 22.8556 8.87824 22.8556C8.73008 22.8575 8.58191 22.8556 8.43375 22.8556C8.27332 22.8556 8.0893 22.8792 7.93359 22.8414C7.7741 22.8027 7.65331 22.6999 7.49288 22.6508C7.34472 22.6065 7.2343 22.5423 7.10502 22.464C6.92949 22.3583 6.76811 22.2771 6.60108 22.1648C6.37836 22.0147 6.20661 21.8826 6.01504 21.692C5.86876 21.5467 5.77439 21.3862 5.65265 21.2343C5.52054 21.0673 5.36388 20.9493 5.19213 20.8162C5.11757 20.7577 5.0468 20.7105 4.98074 20.6417C4.87976 20.535 4.80898 20.5086 4.68819 20.4322C4.507 20.318 4.30976 20.2368 4.15122 20.083C3.96909 19.9075 3.82187 19.7074 3.65389 19.5196C3.53121 19.3818 3.41324 19.2506 3.3453 19.0789C3.26791 18.8788 3.21884 18.6561 3.15278 18.4513C3.05181 18.138 2.92629 17.9106 2.72717 17.6445C2.445 17.2679 2.17605 16.8546 1.86274 16.5035C1.75516 16.3837 1.5834 16.3233 1.49469 16.1902C1.42108 16.0798 1.39466 15.9316 1.38711 15.8014C1.37201 15.5211 1.42203 15.2371 1.38428 14.9577C1.36163 14.7897 1.27859 14.6841 1.2163 14.5378C1.15119 14.383 1.12759 14.2179 1.07758 14.0584C0.963387 13.696 0.762378 13.2902 0.563257 12.9627C0.443406 12.7655 0.25561 12.6541 0.154634 12.4484C0.0791375 12.2927 0.00741584 12.1474 0.000809909 11.97C-0.00673973 11.8001 0.0404447 11.6359 0.0612062 11.4689C0.0847988 11.2905 0.0866869 11.1018 0.145197 10.9291C0.294302 10.4846 0.722744 10.1354 1.0587 9.83247C1.31067 9.60598 1.77969 9.34457 1.83348 8.98502C1.86368 8.78213 1.75987 8.66511 1.7193 8.49807C1.65701 8.24233 1.95805 8.14513 2.14491 8.03377C2.41952 7.87051 2.76681 7.6091 2.96121 7.35053C3.05181 7.23068 3.0084 7.10139 3.08767 6.98626C3.29056 6.68993 4.33336 6.91265 4.21067 6.43513C4.16915 6.27565 4.04081 6.12371 3.9823 5.98216C3.94644 5.89439 3.96531 5.78209 3.94172 5.68772C3.91058 5.56504 3.85207 5.45746 3.79545 5.34516C3.71146 5.18095 3.38493 4.71665 3.7124 4.60907C3.96248 4.52696 4.27107 4.54772 4.53437 4.54772C4.90052 4.54772 5.26007 4.53734 5.62246 4.59397C5.71777 4.60812 6.3057 4.78176 6.3661 4.61567C6.43216 4.43354 6.1632 4.16364 6.08676 4.04756C6.00938 3.93149 5.96125 3.82202 5.8565 3.72198C5.8178 3.68518 5.73476 3.65026 5.7055 3.60685C5.65266 3.52664 5.65832 3.50588 5.69795 3.41528C5.77439 3.24164 5.91878 3.135 6.10941 3.1048C6.75301 3.00288 7.42116 3.01609 8.06571 3.17841C8.55926 3.30203 9.10944 3.30959 9.58035 3.50776C9.6634 3.54174 10.139 3.86543 10.2532 3.71915C10.3051 3.65215 10.2126 3.60402 10.1966 3.5474C10.1673 3.44265 10.1815 3.33318 10.1362 3.22465C10.0541 3.02647 9.87951 2.77734 9.74833 2.60086C9.60489 2.40552 9.44257 2.23282 9.30479 2.03181C9.15097 1.80626 8.96506 1.6732 8.75744 1.50522C8.6508 1.4184 8.38468 1.25514 8.42715 1.08622C8.47339 0.902196 8.90183 0.912576 9.03206 0.904082C9.18777 0.893701 9.34254 0.900307 9.49825 0.897476C10.073 0.888983 10.6524 1.09565 11.2016 1.24476C11.6905 1.37782 12.1406 1.58166 12.6049 1.77795C13.1409 2.00444 13.6836 2.25358 14.1913 2.53764C14.4621 2.68957 14.7188 2.86982 14.9585 3.068C15.0218 3.1199 15.1067 3.24164 15.1935 3.22465C15.3436 3.1954 15.2945 2.94909 15.2945 2.84811C15.2945 2.54707 15.319 2.30077 15.1954 2.02615C15.0718 1.75153 14.8396 1.51088 14.6509 1.27779C14.3781 0.94183 14.1092 0.584166 13.727 0.367114C13.5845 0.285012 13.2146 0.205742 13.1579 0.0302132C13.3325 -0.0301839 13.5656 0.0188883 13.7515 0.0179446C13.9214 0.0160572 14.0629 0.0358742 14.229 0.0783409C14.7273 0.203854 15.1775 0.465261 15.6691 0.610591C16.8903 0.97203 17.9718 1.6817 19.0032 2.4074C19.6969 2.8953 20.5132 3.32846 21.0048 4.04567C21.0633 4.13155 21.2002 4.43354 21.3634 4.29293C21.4531 4.21554 21.3059 4.09852 21.2776 4.00793C21.236 3.8777 21.2228 3.72859 21.1775 3.60402C21.1624 3.56155 21.1086 3.50399 21.0964 3.4653C21.0652 3.36621 21.0832 3.26523 21.0482 3.16142C20.952 2.87642 20.7208 2.56217 20.5453 2.32153C20.5066 2.26774 20.4037 2.16298 20.399 2.09315C20.3754 1.76002 20.9595 2.15355 21.0501 2.22055C21.2521 2.36966 21.4908 2.54896 21.6541 2.73959C22.0835 3.24069 22.5516 3.6965 22.9913 4.18817C23.0829 4.29104 23.1923 4.36087 23.2829 4.44958C23.3811 4.54678 23.4811 4.67418 23.5812 4.77799C23.7576 4.96201 23.903 5.17246 24.069 5.36497C24.2474 5.57259 24.4324 5.75283 24.5626 5.99631C24.6683 6.1926 24.7721 6.35775 24.9127 6.53045C25.0269 6.67012 25.1713 6.83432 25.2241 7.01268C25.2911 7.24106 25.3327 7.48925 25.3912 7.7214C25.4676 8.03094 25.5761 8.32632 25.662 8.63208C25.7621 8.98691 25.8092 9.33325 25.8026 9.70224C25.7998 9.85134 25.7932 9.99951 25.8149 10.1486C25.83 10.2505 25.8309 10.4563 25.8668 10.5591C25.8979 10.6497 25.9848 10.7092 26.0527 10.7762"/>
</svg>
