<?xml version="1.0" encoding="UTF-8" standalone="no"?>
<!-- Created with Inkscape (http://www.inkscape.org/) -->

<svg
   width="24.127775"
   height="24"
   viewBox="0 0 6.383807 6.35"
   version="1.1"
   id="svg53330"
   inkscape:version="1.2.1 (9c6d41e4, 2022-07-14)"
   sodipodi:docname="a-thousand-shapes-of-horror.svg"
   xmlns:inkscape="http://www.inkscape.org/namespaces/inkscape"
   xmlns:sodipodi="http://sodipodi.sourceforge.net/DTD/sodipodi-0.dtd"
   xmlns="http://www.w3.org/2000/svg"
   xmlns:svg="http://www.w3.org/2000/svg">
  <sodipodi:namedview
     id="namedview53332"
     pagecolor="#505050"
     bordercolor="#eeeeee"
     borderopacity="1"
     inkscape:showpageshadow="0"
     inkscape:pageopacity="0"
     inkscape:pagecheckerboard="0"
     inkscape:deskcolor="#505050"
     inkscape:document-units="mm"
     showgrid="false"
     inkscape:zoom="0.7046647"
     inkscape:cx="43.992554"
     inkscape:cy="268.92223"
     inkscape:window-width="1390"
     inkscape:window-height="941"
     inkscape:window-x="0"
     inkscape:window-y="25"
     inkscape:window-maximized="0"
     inkscape:current-layer="layer1" />
  <defs
     id="defs53327">
    <clipPath
       clipPathUnits="userSpaceOnUse"
       id="clipPath52111">
      <path
         d="m 76.75,444.219 h 24.7 v 24.699 h -24.7 z"
         id="path52109" />
    </clipPath>
  </defs>
  <g
     inkscape:label="Layer 1"
     inkscape:groupmode="layer"
     id="layer1"
     transform="translate(-93.637379,-77.886588)">
    <g
       id="g52105"
       transform="matrix(0.31188513,0,0,-0.31188513,69.040233,223.45877)">
      <g
         id="g52107"
         clip-path="url(#clipPath52111)">
        <g
           id="g52113"
           transform="translate(82.3625,448.866)">
          <path
             d="M 0,0 C -0.148,0.192 -0.311,0.375 -0.45,0.573 -0.598,0.783 -0.742,1.001 -0.875,1.221 -1.099,1.591 -1.256,1.987 -1.459,2.366 -1.573,2.58 -1.67,2.792 -1.765,3.014 -1.863,3.242 -1.97,3.464 -2.057,3.696 -2.143,3.925 -2.229,4.152 -2.319,4.379 -2.403,4.592 -2.445,4.813 -2.51,5.03 -2.569,5.226 -2.604,5.416 -2.634,5.615 -2.67,5.853 -2.722,6.089 -2.752,6.328 c -0.023,0.19 -0.003,0.375 -0.002,0.564 10e-4,0.196 -10e-4,0.392 0.009,0.587 0.01,0.184 0.035,0.365 0.063,0.545 0.031,0.2 0.109,0.382 0.145,0.58 0.036,0.196 0.064,0.378 0.126,0.565 0.054,0.161 0.101,0.327 0.144,0.492 0.095,0.367 0.227,0.71 0.358,1.061 0.108,0.289 0.212,0.583 0.353,0.855 0.086,0.165 0.21,0.313 0.316,0.464 0.118,0.17 0.23,0.34 0.376,0.487 0.252,0.254 0.49,0.524 0.728,0.792 0.298,0.335 0.633,0.639 0.947,0.959 0.289,0.295 0.634,0.558 0.987,0.775 0.195,0.12 0.402,0.223 0.598,0.342 0.227,0.137 0.463,0.253 0.704,0.367 0.394,0.187 0.789,0.384 1.203,0.533 0.216,0.077 0.442,0.139 0.667,0.194 0.281,0.068 0.558,0.157 0.844,0.208 0.436,0.078 0.883,0.133 1.331,0.144 0.225,0.006 0.447,0.034 0.673,0.038 0.24,0.004 0.474,-0.026 0.714,-0.049 0.198,-0.018 0.394,-0.039 0.591,-0.068 0.182,-0.028 0.358,-0.088 0.535,-0.146 0.172,-0.057 0.327,-0.143 0.491,-0.223 0.232,-0.114 0.467,-0.218 0.696,-0.341 0.341,-0.183 0.687,-0.353 1.027,-0.538 0.347,-0.189 0.674,-0.416 0.987,-0.659 0.223,-0.173 0.447,-0.346 0.667,-0.523 0.176,-0.14 0.328,-0.311 0.487,-0.471 0.299,-0.3 0.599,-0.6 0.897,-0.9 0.36,-0.361 0.706,-0.729 1.008,-1.14 0.386,-0.524 0.747,-1.064 1.054,-1.635 -0.076,0.29 -0.173,0.573 -0.32,0.848 -0.315,0.59 -0.688,1.147 -1.085,1.687 -0.309,0.419 -0.662,0.794 -1.029,1.163 -0.305,0.306 -0.61,0.612 -0.915,0.918 -0.162,0.163 -0.318,0.338 -0.498,0.481 -0.224,0.18 -0.453,0.357 -0.68,0.533 -0.32,0.249 -0.653,0.48 -1.007,0.672 -0.347,0.189 -0.7,0.363 -1.048,0.55 -0.233,0.126 -0.474,0.231 -0.711,0.348 -0.166,0.082 -0.325,0.169 -0.501,0.227 -0.18,0.06 -0.36,0.121 -0.545,0.149 C 8.431,17.793 8.231,17.815 8.03,17.834 7.784,17.856 7.546,17.887 7.301,17.883 7.071,17.878 6.844,17.851 6.614,17.845 6.157,17.832 5.701,17.777 5.256,17.698 4.964,17.646 4.681,17.555 4.395,17.485 4.165,17.429 3.935,17.366 3.714,17.287 3.292,17.135 2.889,16.934 2.486,16.743 2.241,16.627 1.999,16.509 1.768,16.368 1.568,16.247 1.357,16.142 1.158,16.02 0.798,15.798 0.446,15.53 0.15,15.229 -0.17,14.902 -0.512,14.592 -0.816,14.25 -1.059,13.976 -1.301,13.701 -1.559,13.441 -1.707,13.292 -1.822,13.118 -1.943,12.945 -2.05,12.791 -2.177,12.64 -2.264,12.472 -2.409,12.194 -2.515,11.894 -2.625,11.599 -2.759,11.24 -2.894,10.891 -2.99,10.516 -3.034,10.348 -3.083,10.179 -3.137,10.014 -3.201,9.823 -3.229,9.637 -3.265,9.437 -3.302,9.236 -3.382,9.05 -3.414,8.846 -3.443,8.662 -3.468,8.477 -3.478,8.29 -3.489,8.091 -3.486,7.891 -3.487,7.691 -3.488,7.498 -3.509,7.309 -3.485,7.115 -3.455,6.872 -3.402,6.63 -3.365,6.388 -3.334,6.185 -3.299,5.99 -3.239,5.791 -3.172,5.569 -3.129,5.344 -3.043,5.127 -2.952,4.895 -2.864,4.663 -2.776,4.429 -2.687,4.193 -2.578,3.966 -2.478,3.734 -2.381,3.507 -2.283,3.29 -2.166,3.072 -1.958,2.686 -1.798,2.281 -1.57,1.903 -1.434,1.679 -1.287,1.457 -1.137,1.242 -0.995,1.04 -0.828,0.853 -0.677,0.658 -0.368,0.258 -0.039,-0.137 0.319,-0.494 0.592,-0.766 0.862,-1.036 1.144,-1.296 1.088,-1.24 1.032,-1.185 0.976,-1.129 0.625,-0.778 0.303,-0.392 0,0"
             style="fill:#231f20;fill-opacity:1;fill-rule:nonzero;stroke:none"
             id="path52115" />
        </g>
        <g
           id="g52117"
           transform="translate(99.3211,453.764)">
          <path
             d="M 0,0 C 0,0.04 -0.003,0.08 -0.007,0.119 -0.014,0.074 -0.017,0.03 0,0"
             style="fill:#231f20;fill-opacity:1;fill-rule:nonzero;stroke:none"
             id="path52119" />
        </g>
        <g
           id="g52121"
           transform="translate(98.8114,454.994)">
          <path
             d="M 0,0 C -0.017,0.113 -0.048,0.222 -0.071,0.333 -0.089,0.417 -0.096,0.502 -0.113,0.586 -0.131,0.674 -0.158,0.76 -0.18,0.846 -0.208,0.961 -0.227,1.076 -0.26,1.19 -0.378,1.596 -0.514,1.996 -0.643,2.399 -0.702,2.58 -0.783,2.751 -0.839,2.934 -0.883,3.079 -0.948,3.217 -0.994,3.362 -1.028,3.469 -1.081,3.565 -1.125,3.667 -1.15,3.725 -1.172,3.783 -1.202,3.838 -1.254,3.933 -1.335,4.081 -1.426,4.138 -1.45,4.106 -1.429,4.042 -1.423,4.006 -1.403,3.9 -1.362,3.798 -1.33,3.695 -1.294,3.577 -1.265,3.458 -1.229,3.34 -1.182,3.19 -1.121,3.044 -1.061,2.9 -0.865,2.429 -0.699,1.939 -0.647,1.429 -0.605,1.019 -0.567,0.611 -0.571,0.199 -0.57,0.198 -0.57,0.197 -0.57,0.196 v 0 c 0.02,-0.159 0.015,-0.315 0.008,-0.476 0,-0.002 0,-0.004 0,-0.006 0.021,0 0.043,0 0.064,0 C -0.51,-0.368 -0.524,-0.436 -0.527,-0.46 -0.555,-0.691 -0.586,-0.922 -0.625,-1.152 -0.67,-1.424 -0.749,-1.66 -0.867,-1.912 -0.995,-2.186 -1.062,-2.477 -1.201,-2.748 -1.249,-2.841 -1.304,-2.929 -1.361,-3.016 -1.393,-3.077 -1.426,-3.138 -1.456,-3.2 -1.496,-3.284 -1.53,-3.374 -1.581,-3.452 -1.61,-3.497 -1.646,-3.538 -1.677,-3.582 -1.755,-3.691 -1.81,-3.817 -1.886,-3.929 -1.974,-4.06 -2.082,-4.176 -2.174,-4.304 -2.26,-4.424 -2.355,-4.528 -2.453,-4.638 -2.543,-4.739 -2.63,-4.843 -2.721,-4.944 -2.745,-4.975 -2.768,-5.006 -2.793,-5.037 -2.842,-5.097 -2.887,-5.16 -2.936,-5.22 -3.014,-5.313 -3.106,-5.394 -3.191,-5.479 -3.348,-5.637 -3.505,-5.794 -3.662,-5.952 -3.801,-6.094 -3.953,-6.209 -4.111,-6.328 -4.378,-6.532 -4.676,-6.7 -4.978,-6.85 -4.984,-6.853 -4.99,-6.855 -4.995,-6.858 -5.055,-6.887 -5.114,-6.916 -5.174,-6.944 -5.317,-7.05 -5.468,-7.129 -5.63,-7.202 -5.802,-7.28 -5.968,-7.369 -6.141,-7.447 c -0.15,-0.067 -0.303,-0.125 -0.454,-0.189 -0.263,-0.111 -0.537,-0.232 -0.816,-0.292 -0.312,-0.067 -0.622,-0.138 -0.934,-0.202 -0.296,-0.061 -0.596,-0.076 -0.898,-0.06 -0.193,0.01 -0.387,0.012 -0.579,0.03 -0.171,0.017 -0.342,0.042 -0.512,0.065 -0.188,0.026 -0.37,0.066 -0.554,0.111 -0.142,0.035 -0.278,0.09 -0.415,0.141 -0.197,0.073 -0.367,0.191 -0.547,0.297 -0.143,0.084 -0.285,0.168 -0.422,0.262 -0.068,0.047 -0.129,0.102 -0.21,0.126 -0.032,0.009 -0.059,0.013 -0.086,0.033 -0.004,-0.003 -0.008,-0.006 -0.012,-0.008 0.032,-0.062 0.228,-0.159 0.405,-0.263 0.134,-0.079 0.269,-0.159 0.401,-0.241 0.12,-0.074 0.237,-0.157 0.363,-0.22 0.125,-0.064 0.26,-0.122 0.378,-0.199 0.111,-0.073 0.225,-0.155 0.348,-0.208 0.177,-0.075 0.378,-0.117 0.564,-0.162 0.259,-0.061 0.529,-0.089 0.793,-0.118 0.228,-0.025 0.455,-0.024 0.683,-0.043 0.122,-0.01 0.243,0.004 0.365,10e-4 0.159,-0.004 0.32,-0.03 0.479,-0.013 0.072,0.009 0.141,0.027 0.212,0.042 0.12,0.025 0.242,0.038 0.362,0.062 0.194,0.039 0.386,0.077 0.576,0.132 0.353,0.103 0.711,0.172 1.054,0.305 0.147,0.057 0.288,0.128 0.433,0.188 0.199,0.084 0.399,0.16 0.595,0.25 0.379,0.175 0.76,0.377 1.093,0.63 0.158,0.12 0.309,0.235 0.449,0.377 0.156,0.158 0.314,0.315 0.471,0.472 0.085,0.086 0.177,0.167 0.254,0.26 0.05,0.059 0.095,0.123 0.144,0.183 0.115,0.141 0.22,0.286 0.327,0.433 0.091,0.124 0.18,0.248 0.263,0.377 0.053,0.081 0.114,0.161 0.157,0.247 0.029,0.057 0.052,0.114 0.083,0.17 0.055,0.099 0.105,0.196 0.151,0.299 0.049,0.113 0.112,0.215 0.169,0.323 0.09,0.169 0.174,0.342 0.259,0.514 0.112,0.225 0.221,0.451 0.331,0.677 0.104,0.212 0.21,0.42 0.274,0.648 0.055,0.198 0.12,0.395 0.163,0.595 0.033,0.156 0.047,0.315 0.054,0.474 C 0.08,-0.78 0.085,-0.624 0.064,-0.464 0.044,-0.309 0.023,-0.154 0,0"
             style="fill:#231f20;fill-opacity:1;fill-rule:nonzero;stroke:none"
             id="path52123" />
        </g>
        <g
           id="g52125"
           transform="translate(91.6576,462.201)">
          <path
             d="M 0,0 C 0.393,-0.155 0.786,-0.33 1.164,-0.511 1.42,-0.633 1.682,-0.746 1.937,-0.87 2.192,-0.994 2.43,-1.142 2.671,-1.285 c 0.24,-0.143 0.5,-0.256 0.741,-0.397 0.24,-0.141 0.466,-0.317 0.684,-0.482 0.172,-0.13 0.332,-0.271 0.484,-0.418 0.105,-0.101 0.206,-0.204 0.303,-0.31 0.008,-0.017 0.017,-0.034 0.025,-0.051 -0.007,0.03 -0.014,0.06 -0.021,0.09 C 4.843,-2.676 4.798,-2.501 4.745,-2.328 4.668,-2.18 4.596,-2.032 4.526,-1.883 4.288,-1.622 4.029,-1.375 3.739,-1.155 3.522,-0.989 3.295,-0.813 3.055,-0.673 2.814,-0.532 2.554,-0.418 2.314,-0.275 2.073,-0.133 1.835,0.015 1.58,0.139 1.325,0.263 1.063,0.377 0.808,0.499 0.43,0.68 0.036,0.854 -0.357,1.01 -0.71,1.149 -1.073,1.245 -1.442,1.327 c 0,-0.124 0,-0.249 -0.001,-0.373 0.004,-0.036 0.01,-0.071 0.013,-0.107 0.023,-0.298 0.024,-0.597 0.047,-0.896 0.032,-0.424 0.091,-0.848 0.113,-1.273 0.021,-0.397 0.044,-0.791 0.085,-1.189 0.031,-0.3 0.071,-0.599 0.088,-0.9 0.014,-0.24 0.033,-0.479 0.041,-0.719 0.009,-0.33 -0.019,-0.662 -0.024,-0.992 -10e-4,-0.05 -0.054,-0.225 0.029,-0.239 0.059,-0.011 0.139,0.059 0.18,0.074 0.057,0.021 4.745,0.032 4.803,0.04 -10e-4,0.036 -4.63,0.072 -4.632,0.108 -0.007,0.239 -0.026,0.479 -0.04,0.718 -0.017,0.301 -0.058,0.601 -0.089,0.901 -0.041,0.397 -0.063,0.791 -0.084,1.189 -0.022,0.425 -0.082,0.848 -0.114,1.273 -0.022,0.298 -0.023,0.597 -0.047,0.896 -0.002,0.035 -0.008,0.071 -0.012,0.106 0,0.125 0.001,0.249 0.001,0.374 C -0.716,0.235 -0.353,0.14 0,0"
             style="fill:#231f20;fill-opacity:1;fill-rule:nonzero;stroke:none"
             id="path52127" />
        </g>
        <g
           id="g52129"
           transform="translate(97.2102,454.902)">
          <path
             d="M 0,0 C 0.001,0.005 0.002,0.009 0.003,0.014 0.029,0.17 0.048,0.326 0.069,0.483 0.079,0.557 0.091,0.632 0.101,0.706 0.103,0.73 0.118,0.798 0.13,0.88 c -0.107,0 -0.214,0 -0.321,0 C -1.465,0.879 -2.739,0.876 -4.013,0.875 -4.816,0.873 -5.62,0.873 -6.423,0.871 -6.394,0.776 -6.395,0.644 -6.394,0.62 -6.37,0.197 -6.41,-0.223 -6.439,-0.645 c -0.037,-0.527 -0.084,-1.056 -0.105,-1.584 -0.035,-0.836 -0.076,-1.67 -0.142,-2.504 -0.012,-0.157 -0.03,-0.312 -0.047,-0.468 0.041,-0.47 0.089,-0.94 0.142,-1.409 0.102,0.003 0.196,0.028 0.28,0.08 0.003,0.001 0.006,0.003 0.009,0.004 -0.014,0.148 -0.029,0.297 -0.042,0.445 0.018,0.156 0.035,0.312 0.047,0.469 0.066,0.834 0.108,1.668 0.142,2.504 0.022,0.528 0.068,1.056 0.105,1.584 0.029,0.421 0.07,0.842 0.045,1.265 -0.001,0.024 0.001,0.156 -0.028,0.251 1.928,0.004 3.857,0.006 5.786,0.008 0.082,0 0.165,0 0.247,0"
             style="fill:#231f20;fill-opacity:1;fill-rule:nonzero;stroke:none"
             id="path52131" />
        </g>
        <g
           id="g52133"
           transform="translate(87.5548,463.157)">
          <path
             d="m 0,0 c -0.307,-0.1 -0.577,-0.249 -0.857,-0.395 -0.294,-0.152 -0.589,-0.29 -0.892,-0.428 -0.306,-0.139 -0.544,-0.29 -0.804,-0.488 -0.403,-0.307 -0.825,-0.615 -1.143,-0.994 -0.399,-0.477 -0.79,-1.02 -0.996,-1.586 -0.099,-0.273 -0.178,-0.551 -0.267,-0.827 -0.091,-0.285 -0.179,-0.567 -0.237,-0.859 -0.074,-0.375 -0.106,-0.747 -0.133,-1.126 -0.001,-0.021 10e-4,-0.051 -0.002,-0.079 0.117,0 0.233,0 0.35,0 0.013,0.087 0.027,0.174 0.044,0.26 0.058,0.293 0.147,0.574 0.238,0.859 0.088,0.276 0.167,0.555 0.266,0.828 0.206,0.565 0.597,1.109 0.997,1.585 0.318,0.379 0.739,0.688 1.143,0.995 0.26,0.198 0.497,0.348 0.803,0.487 0.303,0.138 0.599,0.276 0.892,0.429 0.28,0.145 0.55,0.295 0.858,0.395 0.321,0.104 0.65,0.202 0.977,0.293 0.263,0.073 0.525,0.125 0.79,0.169 0.007,0.054 0.015,0.108 0.021,0.162 C 2.049,-0.045 2.05,0.23 2.051,0.505 1.688,0.453 1.334,0.392 0.978,0.293 0.651,0.203 0.322,0.105 0,0"
             style="fill:#231f20;fill-opacity:1;fill-rule:nonzero;stroke:none"
             id="path52135" />
        </g>
        <g
           id="g52137"
           transform="translate(89.5958,455.772)">
          <path
             d="m 0,0 c -1.319,-0.002 -2.638,-0.004 -3.956,-0.005 -0.37,0 -0.74,-0.001 -1.109,-0.002 -0.34,-0.039 -0.68,-0.079 -1.026,-0.081 -0.278,-0.002 -0.563,-0.013 -0.836,-0.058 -0.056,-0.01 -0.118,-0.018 -0.176,-0.021 -0.001,0 -0.002,0 -0.004,0 -0.027,-0.001 -0.054,0.015 -0.08,0.002 -0.032,-0.016 -0.042,-0.106 -0.044,-0.131 -0.012,-0.212 -0.004,-0.413 0.034,-0.625 0.021,-0.117 0.056,-0.229 0.092,-0.341 -10e-4,0.061 0,0.122 0.004,0.185 0.001,0.025 0.011,0.115 0.044,0.131 0.026,0.013 0.053,-0.003 0.08,-0.003 0.059,0.002 0.122,0.011 0.18,0.021 0.272,0.045 0.557,0.057 0.835,0.059 0.347,0.002 5.352,0.079 5.352,0.079 l 0.623,-6.532 c 0,0 -0.009,7.061 -0.013,7.322"
             style="fill:#231f20;fill-opacity:1;fill-rule:nonzero;stroke:none"
             id="path52139" />
        </g>
        <g
           id="g52141"
           transform="translate(89.6513,458.484)">
          <path
             d="m 0,0 c -0.021,0.292 -0.052,0.585 -0.066,0.874 -0.047,0.961 -0.065,1.923 -0.068,2.885 -0.039,0.021 -0.08,0.037 -0.123,0.05 0.052,-0.056 0.074,-0.137 0.037,-0.235 -0.36,-0.95 -0.162,-2.037 -0.162,-3.032 0,-0.676 0.042,-1.372 -0.002,-2.054 0.074,-0.034 -5.517,-0.3 -5.499,-0.374 0.062,0.006 5.763,0.214 5.824,0.224 0.004,0.361 0.073,0.714 0.081,1.08 C 0.016,-0.388 0.008,-0.194 0,0"
             style="fill:#231f20;fill-opacity:1;fill-rule:nonzero;stroke:none"
             id="path52143" />
        </g>
      </g>
    </g>
  </g>
</svg>
