<?xml version="1.0" encoding="UTF-8" standalone="no"?>
<!-- Created with Inkscape (http://www.inkscape.org/) -->

<svg
   width="32.576"
   height="24"
   viewBox="0 0 8.6190667 6.35"
   version="1.1"
   id="svg54056"
   inkscape:version="1.2.1 (9c6d41e4, 2022-07-14)"
   sodipodi:docname="corsairs.svg"
   xmlns:inkscape="http://www.inkscape.org/namespaces/inkscape"
   xmlns:sodipodi="http://sodipodi.sourceforge.net/DTD/sodipodi-0.dtd"
   xmlns="http://www.w3.org/2000/svg"
   xmlns:svg="http://www.w3.org/2000/svg">
  <sodipodi:namedview
     id="namedview54058"
     pagecolor="#505050"
     bordercolor="#eeeeee"
     borderopacity="1"
     inkscape:showpageshadow="0"
     inkscape:pageopacity="0"
     inkscape:pagecheckerboard="0"
     inkscape:deskcolor="#505050"
     inkscape:document-units="mm"
     showgrid="false"
     inkscape:zoom="0.7046647"
     inkscape:cx="141.91146"
     inkscape:cy="320.01035"
     inkscape:window-width="1390"
     inkscape:window-height="941"
     inkscape:window-x="0"
     inkscape:window-y="25"
     inkscape:window-maximized="0"
     inkscape:current-layer="layer1" />
  <defs
     id="defs54053">
    <clipPath
       clipPathUnits="userSpaceOnUse"
       id="clipPath52275">
      <path
         d="m 76.75,285.893 h 24.7 v 24.7 h -24.7 z"
         id="path52273" />
    </clipPath>
  </defs>
  <g
     inkscape:label="Layer 1"
     inkscape:groupmode="layer"
     id="layer1"
     transform="translate(-67.602302,-64.179481)">
    <g
       id="g52269"
       transform="matrix(0.36961249,0,0,-0.36961249,39.025657,177.27172)">
      <g
         id="g52271"
         clip-path="url(#clipPath52275)">
        <g
           id="g52277"
           transform="translate(100.619,300.3)">
          <path
             d="M 0,0 C -0.011,0.098 -0.02,0.197 -0.029,0.295 -0.043,0.454 -0.058,0.618 -0.082,0.79 -0.146,1.246 -0.379,1.685 -0.611,2.095 -0.782,2.396 -1.008,2.654 -1.207,2.88 -1.253,2.933 -1.3,2.986 -1.345,3.039 v 0 c -0.464,0.543 -1.1,1.226 -1.899,1.691 -0.277,0.161 -0.577,0.321 -0.917,0.489 -0.271,0.135 -0.533,0.233 -0.787,0.329 -0.067,0.025 -0.135,0.05 -0.202,0.076 -0.251,0.097 -0.522,0.051 -0.727,-0.096 1.281,-0.169 2.226,-1.208 2.411,-2.472 1.037,-0.753 1.704,-1.989 1.765,-3.356 0.099,-2.223 -1.963,-4.116 -4.115,-4.116 -0.73,0 -1.399,0.191 -1.977,0.519 0.029,0.056 0.06,0.112 0.072,0.176 0.037,0.193 -0.104,0.315 -0.26,0.313 -0.175,-0.003 -0.403,-0.046 -0.524,0.078 -0.138,0.143 -0.261,0.322 -0.402,0.473 -0.058,0.061 -0.13,0.114 -0.206,0.161 -0.01,0.013 -0.019,0.025 -0.029,0.038 -0.088,0.078 -0.193,0.131 -0.305,0.162 -0.646,0.48 -1.442,0.767 -2.33,0.767 -0.625,0 -1.242,-0.165 -1.799,-0.452 -0.161,-0.05 -0.324,-0.116 -0.475,-0.173 -0.1,-0.039 -0.198,-0.076 -0.288,-0.139 -0.193,-0.135 -0.353,-0.296 -0.536,-0.442 -0.07,-0.056 -0.123,-0.095 -0.179,-0.166 -0.037,-0.047 -0.082,-0.155 -0.13,-0.182 -0.11,-0.061 -0.477,0.19 -0.627,0.265 -0.088,0.044 -0.152,0.112 -0.229,0.019 -0.04,-0.05 -0.06,-0.198 -0.063,-0.277 -0.009,-0.249 0.205,-0.418 0.358,-0.569 0.021,-0.02 0.051,-0.045 0.082,-0.071 -0.607,-0.343 -1.293,-0.543 -1.989,-0.543 -2.307,0 -4.015,1.886 -4.115,4.116 -0.063,1.415 0.75,2.695 1.905,3.44 0.056,0.328 0.169,0.641 0.341,0.937 0.146,0.19 0.293,0.38 0.439,0.569 0.351,0.349 0.765,0.59 1.241,0.723 0.188,0.025 0.377,0.051 0.565,0.076 -0.207,0.244 -0.55,0.342 -0.862,0.222 -0.068,-0.026 -0.135,-0.051 -0.203,-0.077 -0.253,-0.095 -0.516,-0.194 -0.786,-0.328 -0.341,-0.168 -0.641,-0.328 -0.917,-0.489 -0.8,-0.465 -1.435,-1.148 -1.9,-1.691 v 0 C -21.989,2.986 -22.035,2.933 -22.082,2.88 -22.281,2.654 -22.506,2.396 -22.677,2.095 -22.91,1.685 -23.142,1.246 -23.206,0.79 -23.23,0.618 -23.245,0.454 -23.259,0.295 -23.268,0.197 -23.277,0.098 -23.288,0 c -0.025,-0.21 -0.02,-0.417 0.012,-0.645 0.006,-1.355 0.696,-2.721 2.108,-4.172 1.189,-1.222 2.834,-1.822 5.03,-1.834 0.088,-0.001 0.178,-0.002 0.271,-0.003 0.067,-0.001 0.14,-0.001 0.21,-0.002 0.196,-0.762 0.59,-1.448 1.131,-1.981 0.026,-0.196 0.049,-0.388 0.061,-0.574 0.011,-0.029 0.02,-0.058 0.031,-0.087 0.044,-0.121 0.074,-0.222 0.151,-0.33 0.056,-0.079 0.082,-0.165 0.133,-0.245 0.058,-0.093 0.134,-0.167 0.2,-0.253 0.033,-0.044 0.06,-0.106 0.087,-0.149 0.037,-0.059 0.068,-0.099 0.116,-0.153 0.059,-0.066 0.093,-0.134 0.153,-0.193 0.027,-0.027 0.036,-0.049 0.068,-0.076 0.029,-0.023 0.063,-0.043 0.093,-0.066 0.056,-0.044 0.118,-0.084 0.177,-0.126 0.065,-0.046 0.1,-0.093 0.164,-0.135 0.234,-0.153 0.565,-0.259 0.851,-0.343 0.093,-0.027 0.285,-0.115 0.352,-0.041 0.039,0.043 0.038,0.117 0.053,0.167 0.022,0.074 0.034,0.135 0.038,0.215 0.004,0.081 0.023,0.168 0.005,0.25 -0.014,0.067 -0.016,0.144 -0.051,0.209 -0.073,0.137 -0.193,0.329 -0.355,0.426 -0.023,0.014 -0.052,0.021 -0.075,0.035 -0.042,0.025 -0.049,0.056 -0.081,0.083 -0.054,0.047 -0.145,0.077 -0.209,0.118 -0.053,0.034 -0.308,0.219 -0.274,0.274 0.065,-0.024 0.145,-0.036 0.215,-0.057 0.105,-0.03 0.189,-0.086 0.279,-0.134 0.108,-0.056 0.203,-0.119 0.298,-0.179 0.2,-0.127 0.368,-0.171 0.628,-0.17 0.126,0 0.201,-0.015 0.303,0.057 0.093,0.066 0.169,0.145 0.266,0.209 0.096,0.064 0.212,0.127 0.319,0.177 0.077,0.036 0.297,0.131 0.253,0.008 -0.03,-0.082 -0.159,-0.183 -0.221,-0.246 -0.104,-0.104 -0.226,-0.218 -0.363,-0.293 -0.053,-0.029 -0.113,-0.05 -0.171,-0.075 -0.101,-0.043 -0.213,-0.136 -0.27,-0.204 -0.023,-0.028 -0.058,-0.08 -0.074,-0.111 -0.022,-0.044 -0.002,-0.086 -0.016,-0.129 -0.014,-0.044 -0.04,-0.071 -0.047,-0.116 -0.01,-0.058 -0.018,-0.098 -0.038,-0.151 -0.02,-0.049 -0.029,-0.102 -0.047,-0.153 -0.012,-0.038 0.002,-0.088 -0.015,-0.124 -0.013,-0.028 -0.031,-0.038 -0.042,-0.069 -0.012,-0.036 -0.004,-0.083 0.021,-0.114 0.088,0.029 0.213,0.018 0.308,0.032 0.079,0.012 0.152,0.036 0.229,0.055 0.226,0.054 0.419,0.165 0.619,0.269 0.162,0.085 0.287,0.207 0.43,0.316 0.099,0.075 0.192,0.156 0.29,0.234 0.098,0.078 0.133,0.16 0.209,0.251 0.052,0.065 0.116,0.115 0.162,0.185 0.059,0.089 0.089,0.177 0.125,0.271 0.083,0.215 0.192,0.439 0.293,0.666 0.061,0.138 0.12,0.276 0.194,0.417 0.067,0.13 0.092,0.256 0.14,0.391 0.032,0.09 0.071,0.18 0.11,0.271 0.008,0.063 0.017,0.127 0.027,0.192 0.272,0.392 0.473,0.831 0.58,1.297 h 0.004 c 0.144,0 0.284,0.002 0.419,0.004 0.092,0.001 0.183,0.002 0.271,0.003 2.195,0.012 3.841,0.612 5.029,1.834 1.412,1.451 2.102,2.817 2.108,4.173 C 0.02,-0.417 0.024,-0.21 0,0"
             style="fill:#100f0d;fill-opacity:1;fill-rule:nonzero;stroke:none"
             id="path52279" />
        </g>
      </g>
    </g>
  </g>
</svg>
