<?xml version="1.0" encoding="UTF-8" standalone="no"?>
<!-- Created with Inkscape (http://www.inkscape.org/) -->

<svg
   width="15.124453"
   height="24"
   viewBox="0 0 4.0016781 6.35"
   version="1.1"
   id="svg54172"
   inkscape:version="1.2.1 (9c6d41e4, 2022-07-14)"
   sodipodi:docname="creatures-of-the-underworld.svg"
   xmlns:inkscape="http://www.inkscape.org/namespaces/inkscape"
   xmlns:sodipodi="http://sodipodi.sourceforge.net/DTD/sodipodi-0.dtd"
   xmlns="http://www.w3.org/2000/svg"
   xmlns:svg="http://www.w3.org/2000/svg">
  <sodipodi:namedview
     id="namedview54174"
     pagecolor="#505050"
     bordercolor="#eeeeee"
     borderopacity="1"
     inkscape:showpageshadow="0"
     inkscape:pageopacity="0"
     inkscape:pagecheckerboard="0"
     inkscape:deskcolor="#505050"
     inkscape:document-units="mm"
     showgrid="false"
     inkscape:zoom="0.7046647"
     inkscape:cx="24.124949"
     inkscape:cy="203.64295"
     inkscape:window-width="1390"
     inkscape:window-height="941"
     inkscape:window-x="0"
     inkscape:window-y="25"
     inkscape:window-maximized="0"
     inkscape:current-layer="layer1" />
  <defs
     id="defs54169">
    <clipPath
       clipPathUnits="userSpaceOnUse"
       id="clipPath52723">
      <path
         d="m 76.75,246.312 h 24.7 v 24.699 h -24.7 z"
         id="path52721" />
    </clipPath>
  </defs>
  <g
     inkscape:label="Layer 1"
     inkscape:groupmode="layer"
     id="layer1"
     transform="translate(-98.600249,-94.93766)">
    <g
       id="g52717"
       transform="matrix(0.2938257,0,0,-0.2938257,74.421218,174.11393)">
      <g
         id="g52719"
         clip-path="url(#clipPath52723)">
        <g
           id="g52725"
           transform="translate(94.2689,261.67)">
          <path
             d="m 0,0 c -0.025,-0.003 -0.05,-0.004 -0.073,-0.008 -0.048,-0.01 -0.105,-0.033 -0.15,-0.047 -0.037,-0.01 -0.069,-0.002 -0.107,-0.013 -0.016,-0.004 -0.029,-0.014 -0.043,-0.024 l 0.397,0.09 C 0.018,0 0.011,0.001 0,0"
             style="fill:#100f0d;fill-opacity:1;fill-rule:nonzero;stroke:none"
             id="path52727" />
        </g>
        <g
           id="g52729"
           transform="translate(94.3393,261.679)">
          <path
             d="M 0,0 -0.046,-0.011 C -0.033,-0.014 -0.025,-0.019 0,0"
             style="fill:#100f0d;fill-opacity:1;fill-rule:nonzero;stroke:none"
             id="path52731" />
        </g>
        <g
           id="g52733"
           transform="translate(93.723,261.539)">
          <path
             d="M 0,0 C 0.046,0.007 0.092,0.012 0.138,0.016 0.149,0.025 0.162,0.031 0.173,0.039 Z"
             style="fill:#100f0d;fill-opacity:1;fill-rule:nonzero;stroke:none"
             id="path52735" />
        </g>
        <g
           id="g52737"
           transform="translate(93.723,261.539)">
          <path
             d="M 0,0 C -0.055,-0.009 -0.111,-0.021 -0.169,-0.038 Z"
             style="fill:#100f0d;fill-opacity:1;fill-rule:nonzero;stroke:none"
             id="path52739" />
        </g>
        <g
           id="g52741"
           transform="translate(91.4871,260.068)">
          <path
             d="M 0,0 C 0.06,0.015 0.186,-0.138 0.249,-0.179 0.229,-0.167 0.21,-0.154 0.188,-0.143 0.139,-0.116 0.006,-0.057 0,0 m 1.601,-1.639 c 0.021,-0.008 0.096,0.001 0.117,0.001 0.091,10e-4 0.189,-0.012 0.277,0.008 0.049,0.012 0.082,0.028 0.135,0.029 C 2.181,-1.6 2.229,-1.61 2.278,-1.595 2.264,-1.541 2.177,-1.516 2.125,-1.499 2.02,-1.463 1.946,-1.424 1.86,-1.342 1.731,-1.219 1.605,-1.098 1.477,-0.977 1.283,-0.796 1.069,-0.66 0.853,-0.513 0.776,-0.461 0.706,-0.434 0.631,-0.398 0.543,-0.355 0.467,-0.294 0.38,-0.254 c -0.044,0.02 -0.083,0.045 -0.123,0.07 0.097,-0.059 0.204,-0.094 0.31,-0.133 0.099,-0.036 0.218,-0.06 0.32,-0.072 0.061,-0.007 0.127,0.003 0.188,0.002 0.073,-0.003 0.133,-0.024 0.204,-0.034 0.122,-0.016 0.304,-0.028 0.425,-0.005 0.059,0.012 0.098,0.048 0.155,0.066 0.07,0.022 0.138,-0.009 0.189,0.058 0.034,0.044 0.039,0.108 0.063,0.158 0.023,0.046 0.051,0.086 0.072,0.14 C 2.222,0.101 2.284,0.221 2.311,0.321 2.269,0.307 2.232,0.245 2.184,0.217 2.137,0.189 2.081,0.172 2.031,0.147 1.921,0.093 1.812,0.068 1.694,0.04 1.611,0.021 1.549,0.011 1.46,0.005 1.372,0 1.303,-0.032 1.21,-0.031 0.91,-0.029 0.578,-0.076 0.318,0.084 0.175,0.171 0.123,0.266 0.28,0.361 0.495,0.491 0.768,0.58 1.025,0.577 1.241,0.574 1.457,0.582 1.672,0.577 1.787,0.574 1.905,0.536 2.005,0.512 2.091,0.491 2.239,0.44 2.316,0.456 2.241,0.5 2.189,0.545 2.104,0.567 2.005,0.593 1.915,0.628 1.816,0.656 1.743,0.677 1.607,0.716 1.571,0.79 1.51,0.913 1.635,0.885 1.702,0.895 1.881,0.922 2.063,0.994 2.239,1.049 2.426,1.108 2.664,1.194 2.824,1.31 2.919,1.38 2.934,1.5 3.018,1.579 2.913,1.571 2.815,1.516 2.707,1.507 2.59,1.497 2.482,1.495 2.374,1.487 2.361,1.475 2.347,1.463 2.333,1.453 2.268,1.408 2.202,1.37 2.138,1.324 2.064,1.27 1.954,1.264 1.868,1.232 1.72,1.178 1.609,1.198 1.458,1.185 1.361,1.176 1.231,1.157 1.139,1.131 1.089,1.117 1.045,1.094 0.998,1.075 0.913,1.04 0.87,1.044 0.781,1.041 0.677,1.037 0.59,0.98 0.488,0.967 0.433,0.96 0.376,0.974 0.32,0.97 0.244,0.965 0.172,0.936 0.095,0.931 -0.019,0.922 -0.144,0.954 -0.255,0.925 -0.335,0.904 -0.417,0.868 -0.502,0.859 -0.694,0.841 -0.899,0.861 -1.093,0.861 c -0.063,0 -0.134,-0.009 -0.197,0 -0.063,0.008 -0.095,0.044 -0.163,0.037 -0.01,-0.058 0.078,-0.115 0.115,-0.16 0.059,-0.073 0.097,-0.161 0.154,-0.234 0.034,-0.042 0.082,-0.067 0.111,-0.114 0.03,-0.049 0.035,-0.086 0.07,-0.128 0.042,-0.052 0.097,-0.096 0.141,-0.149 0.071,-0.088 0.166,-0.164 0.251,-0.238 0.116,-0.1 0.21,-0.217 0.323,-0.32 0.135,-0.123 0.295,-0.242 0.448,-0.337 0.056,-0.035 0.092,-0.087 0.144,-0.126 0.051,-0.038 0.111,-0.053 0.165,-0.085 0.095,-0.056 0.186,-0.123 0.279,-0.182 0.184,-0.116 0.368,-0.249 0.57,-0.336 0.075,-0.031 0.155,-0.04 0.223,-0.081 0.025,-0.015 0.029,-0.035 0.06,-0.047"
             style="fill:#100f0d;fill-opacity:1;fill-rule:nonzero;stroke:none"
             id="path52743" />
        </g>
        <g
           id="g52745"
           transform="translate(90.8405,254.6)">
          <path
             d="M 0,0 C 0,-0.068 -0.009,-0.127 -0.021,-0.186 -0.002,-0.123 0.008,-0.06 0,0"
             style="fill:#100f0d;fill-opacity:1;fill-rule:nonzero;stroke:none"
             id="path52747" />
        </g>
        <g
           id="g52749"
           transform="translate(89.7841,257.389)">
          <path
             d="M 0,0 C -0.024,0.007 -0.048,0.011 -0.075,0.006 -0.048,0.006 -0.025,0.002 0,0"
             style="fill:#100f0d;fill-opacity:1;fill-rule:nonzero;stroke:none"
             id="path52751" />
        </g>
        <g
           id="g52753"
           transform="translate(91.2238,254.715)">
          <path
             d="M 0,0 C 0.007,0.034 0.012,0.068 0.011,0.101 0.011,0.067 0.006,0.034 0,0"
             style="fill:#100f0d;fill-opacity:1;fill-rule:nonzero;stroke:none"
             id="path52755" />
        </g>
        <g
           id="g52757"
           transform="translate(92.3321,253.378)">
          <path
             d="m 0,0 c -0.021,0.196 -0.018,0.399 -0.061,0.592 -0.07,0.304 -0.094,0.626 -0.179,0.926 -0.158,0.56 -0.304,1.111 -0.528,1.649 -0.106,0.253 -0.161,0.526 -0.293,0.769 -0.081,0.148 -0.144,0.293 -0.213,0.447 -0.072,0.163 -0.207,0.284 -0.283,0.448 -0.085,0.185 -0.216,0.357 -0.291,0.542 -0.035,0.085 -0.078,0.147 -0.143,0.216 -0.031,0.033 -0.117,0.154 -0.175,0.137 0.068,-0.171 0.18,-0.358 0.274,-0.524 0.144,-0.256 0.297,-0.503 0.415,-0.773 0.054,-0.123 0.092,-0.258 0.134,-0.383 0.021,-0.062 0.079,-0.103 0.096,-0.165 0.011,-0.038 0.014,-0.079 0.023,-0.116 0.023,-0.094 0.053,-0.185 0.054,-0.284 0,-0.032 -0.01,-0.076 -0.002,-0.109 0.01,-0.042 0.059,-0.049 0.031,-0.1 -0.056,0.014 -0.071,0.065 -0.109,0.103 -0.048,0.048 -0.094,0.081 -0.141,0.132 -0.065,0.072 -0.159,0.121 -0.24,0.171 -0.083,0.051 -0.142,0.111 -0.237,0.144 -0.141,0.049 -0.254,0.15 -0.41,0.16 -0.093,0.006 -0.179,0.021 -0.27,0.029 C -2.487,3.992 -2.433,3.947 -2.374,3.919 -2.276,3.873 -2.183,3.822 -2.09,3.767 -1.973,3.698 -1.864,3.618 -1.773,3.515 -1.744,3.482 -1.719,3.443 -1.69,3.408 -1.65,3.357 -1.586,3.318 -1.55,3.27 -1.456,3.145 -1.345,2.991 -1.277,2.837 -1.218,2.702 -1.18,2.549 -1.108,2.41 -1.069,2.337 -1.076,2.279 -1.055,2.204 -1.05,2.187 -1.034,2.146 -1.027,2.125 -1.016,2.091 -1.004,2.066 -0.992,2.035 -0.976,1.997 -0.961,1.998 -0.955,1.947 -0.951,1.913 -0.956,1.874 -0.956,1.839 c 0,-0.071 0,-0.142 0,-0.214 0,-0.088 0,-0.176 0,-0.265 0,-0.095 -0.024,-0.154 -0.038,-0.243 C -1.001,1.069 -0.987,1.031 -0.999,0.983 -1.01,0.936 -1.037,0.875 -1.053,0.83 -1.094,0.721 -1.188,0.657 -1.208,0.536 c 0.011,0.168 0.027,0.334 0.038,0.501 0.006,0.099 0.043,0.201 0.062,0.3 C -1.129,1.242 -1.173,1.145 -1.207,1.061 -1.262,0.922 -1.275,0.767 -1.366,0.646 -1.422,0.572 -1.485,0.502 -1.542,0.429 -1.595,0.359 -1.66,0.213 -1.774,0.235 c -0.047,0.172 0.146,0.401 0.196,0.556 0.028,0.086 0.05,0.165 0.065,0.244 C -1.558,0.886 -1.662,0.736 -1.739,0.626 -1.79,0.553 -1.835,0.483 -1.875,0.403 -1.906,0.341 -1.924,0.259 -1.986,0.23 c -0.035,0.077 0.029,0.181 0.055,0.246 0.06,0.149 0.098,0.308 0.148,0.46 0.049,0.146 0.041,0.282 0.042,0.433 C -1.733,1.078 -1.845,0.851 -1.92,0.576 -1.953,0.454 -1.967,0.403 -2.063,0.328 -2.11,0.292 -2.154,0.219 -2.199,0.197 c -0.028,0.054 0.015,0.172 0.021,0.219 0.012,0.1 0.015,0.202 0.026,0.303 0.021,0.182 0.019,0.362 0.018,0.545 0.006,-0.202 -0.042,-0.402 -0.08,-0.6 C -2.243,0.517 -2.287,0.34 -2.366,0.215 -2.446,0.088 -2.472,-0.09 -2.597,-0.18 c -0.051,-0.036 -0.112,-0.059 -0.156,-0.105 -0.032,-0.033 -0.041,-0.078 -0.078,-0.108 0,0.038 0,0.075 0,0.113 0.033,0.111 0.055,0.223 0.066,0.338 0.03,0.251 0.024,0.501 0.024,0.752 0,0.169 -0.002,0.328 -0.026,0.496 C -2.775,1.36 -2.775,1.562 -2.839,1.598 -2.883,1.471 -2.892,1.332 -2.925,1.201 -2.973,1.007 -3.052,0.822 -3.101,0.627 -3.129,0.511 -3.155,0.412 -3.208,0.307 -3.22,0.282 -3.226,0.259 -3.232,0.235 -3.238,0.259 -3.244,0.282 -3.257,0.307 -3.309,0.412 -3.335,0.511 -3.364,0.627 -3.412,0.822 -3.491,1.007 -3.54,1.201 -3.572,1.332 -3.582,1.471 -3.626,1.598 -3.689,1.562 -3.69,1.36 -3.697,1.306 -3.721,1.138 -3.723,0.979 -3.723,0.81 c 0,-0.251 -0.006,-0.501 0.024,-0.752 0.011,-0.115 0.033,-0.227 0.066,-0.338 v -0.113 c -0.037,0.03 -0.046,0.075 -0.078,0.108 -0.044,0.046 -0.106,0.069 -0.156,0.105 -0.125,0.09 -0.151,0.268 -0.231,0.395 -0.08,0.125 -0.123,0.302 -0.152,0.449 -0.039,0.198 -0.086,0.398 -0.08,0.6 -0.001,-0.183 -0.004,-0.363 0.017,-0.545 0.012,-0.101 0.015,-0.203 0.027,-0.303 0.006,-0.047 0.049,-0.165 0.021,-0.219 -0.045,0.022 -0.09,0.095 -0.136,0.131 -0.096,0.075 -0.11,0.126 -0.143,0.248 -0.075,0.275 -0.187,0.502 -0.179,0.793 10e-4,-0.151 -0.007,-0.287 0.041,-0.433 0.051,-0.152 0.088,-0.311 0.149,-0.46 0.026,-0.065 0.09,-0.169 0.055,-0.246 -0.063,0.029 -0.08,0.111 -0.111,0.173 -0.04,0.08 -0.085,0.15 -0.137,0.223 -0.077,0.11 -0.18,0.26 -0.226,0.409 0.016,-0.08 0.038,-0.158 0.066,-0.244 0.05,-0.155 0.242,-0.384 0.196,-0.556 -0.114,-0.022 -0.179,0.124 -0.233,0.194 -0.056,0.073 -0.119,0.143 -0.175,0.217 -0.091,0.121 -0.105,0.276 -0.159,0.415 -0.034,0.084 -0.078,0.181 -0.099,0.276 0.019,-0.099 0.056,-0.201 0.062,-0.3 0.01,-0.167 0.027,-0.333 0.037,-0.501 -0.019,0.121 -0.113,0.185 -0.154,0.294 -0.017,0.045 -0.043,0.106 -0.055,0.153 -0.011,0.048 0.003,0.086 -0.005,0.134 -0.013,0.089 -0.038,0.148 -0.037,0.243 0,0.089 0,0.177 0,0.265 v 0.214 c 0,0.035 -0.006,0.074 -0.001,0.108 0.006,0.051 0.021,0.05 0.036,0.088 0.013,0.031 0.025,0.056 0.036,0.09 0.007,0.021 0.023,0.062 0.028,0.079 0.021,0.075 0.014,0.133 0.053,0.206 0.071,0.139 0.11,0.292 0.169,0.427 0.068,0.154 0.179,0.308 0.273,0.433 0.036,0.048 0.1,0.087 0.14,0.138 0.028,0.035 0.054,0.074 0.083,0.107 0.09,0.103 0.2,0.183 0.316,0.252 0.094,0.055 0.187,0.106 0.285,0.152 0.059,0.028 0.113,0.073 0.174,0.092 C -4.008,4.003 -4.093,3.988 -4.187,3.982 -4.342,3.972 -4.455,3.871 -4.597,3.822 -4.691,3.789 -4.75,3.729 -4.833,3.678 -4.914,3.628 -5.009,3.579 -5.074,3.507 -5.12,3.456 -5.167,3.423 -5.215,3.375 -5.252,3.337 -5.267,3.286 -5.323,3.272 c -0.028,0.051 0.021,0.058 0.031,0.1 0.007,0.033 -0.002,0.077 -0.002,0.109 10e-4,0.099 0.031,0.19 0.054,0.284 0.009,0.037 0.012,0.078 0.023,0.116 0.017,0.062 0.075,0.103 0.095,0.165 0.043,0.125 0.081,0.26 0.135,0.383 0.118,0.27 0.271,0.517 0.415,0.773 0.093,0.166 0.206,0.353 0.274,0.524 C -4.356,5.743 -4.442,5.622 -4.473,5.589 -4.538,5.52 -4.581,5.458 -4.616,5.373 -4.691,5.188 -4.822,5.016 -4.908,4.831 -4.983,4.667 -5.119,4.546 -5.191,4.383 -5.259,4.229 -5.322,4.084 -5.403,3.936 -5.536,3.693 -5.59,3.42 -5.696,3.167 -5.92,2.629 -6.066,2.078 -6.224,1.518 -6.309,1.218 -6.334,0.896 -6.403,0.592 -6.446,0.399 -6.443,0.196 -6.464,0 c -0.017,-0.16 -0.008,-0.321 -0.008,-0.482 0,-0.321 -0.019,-0.642 0.045,-0.959 0.025,-0.121 0.019,-0.229 0.024,-0.352 0.005,-0.102 0.036,-0.2 0.039,-0.304 0.011,-0.403 0.085,-0.821 0.221,-1.203 0.04,-0.11 0.084,-0.209 0.109,-0.325 0.016,-0.072 0.03,-0.144 0.06,-0.212 0.045,-0.104 0.1,-0.191 0.172,-0.278 0.06,-0.071 0.096,-0.153 0.149,-0.23 0.055,-0.08 0.108,-0.161 0.162,-0.24 0.055,-0.08 0.123,-0.085 0.193,-0.144 0.046,-0.04 0.062,-0.079 0.11,-0.116 0.053,-0.04 0.096,-0.088 0.144,-0.134 l -0.75,0.428 c 0.462,-0.339 0.958,-0.697 1.499,-0.913 0.304,-0.122 0.633,-0.016 0.945,-0.015 -0.125,-0.003 -0.238,0.032 -0.362,0.037 -0.14,0.004 -0.286,-0.021 -0.406,0.073 -0.085,0.068 -0.149,0.155 -0.239,0.221 -0.118,0.085 -0.222,0.172 -0.346,0.25 -0.06,0.037 -0.146,0.134 -0.05,0.2 0.034,0.024 0.149,0.003 0.178,-0.002 0.163,-0.032 0.535,-0.177 0.642,0.034 -0.096,0.031 -0.197,0.039 -0.292,0.07 -0.06,0.02 -0.109,0.043 -0.175,0.047 -0.157,0.008 -0.277,-0.008 -0.426,0.05 -0.051,0.02 -0.137,0.058 -0.176,0.09 -0.054,0.044 -0.043,0.04 -0.068,0.116 -0.022,0.066 -0.048,0.112 -0.089,0.168 -0.075,0.102 -0.099,0.166 -0.102,0.291 -0.003,0.164 0.046,0.198 0.189,0.255 0.069,0.027 0.127,0.056 0.181,0.107 0.049,0.046 0.104,0.137 0.167,0.165 0.14,0.061 0.223,-0.089 0.343,-0.11 0.129,-0.022 0.302,0.064 0.405,0.133 0.055,0.037 0.109,0.112 0.173,0.129 -0.086,-0.023 -0.179,0.011 -0.263,0.024 -0.099,0.015 -0.2,0.008 -0.3,0.008 -0.112,0 -0.215,-0.006 -0.324,0.026 -0.073,0.021 -0.126,0.048 -0.203,0.047 -0.131,-0.002 -0.226,-0.115 -0.294,-0.217 -0.034,-0.051 -0.121,-0.137 -0.107,-0.203 0.011,0.088 -0.055,0.141 -0.07,0.224 -0.02,0.111 0,0.253 -0.005,0.365 -0.013,0.383 -0.045,0.77 -0.034,1.154 0.003,0.1 -0.019,0.376 0.074,0.444 0.05,-0.05 0.047,-0.18 0.06,-0.245 0.027,-0.128 0.06,-0.252 0.078,-0.381 0.027,-0.206 0.075,-0.408 0.12,-0.61 0.057,0.031 0.022,0.158 0.025,0.216 0.004,0.102 0.035,0.196 0.039,0.299 0.004,0.091 -0.065,0.662 0.062,0.706 0.052,-0.325 0.186,-0.648 0.312,-0.955 0.045,-0.111 0.096,-0.32 0.224,-0.366 0.006,0.044 0.032,0.08 0.04,0.124 0.017,0.091 0,0.19 0.006,0.283 0.01,0.149 0.02,0.306 0.041,0.453 0.007,0.051 0.014,0.129 0.054,0.166 0.043,-0.054 0.062,-0.177 0.078,-0.233 0.036,-0.126 0.075,-0.251 0.104,-0.378 0.037,-0.157 0.026,-0.29 0.045,-0.444 0.008,-0.068 0.011,-0.134 0.062,-0.185 0.032,0.057 0.006,0.181 0.005,0.245 0,0.115 0.013,0.178 0.045,0.296 0.089,0.336 0.049,0.687 0.135,1.023 -0.01,-0.055 0.014,-0.107 0.032,-0.157 0.045,-0.124 0.073,-0.242 0.089,-0.372 0.02,-0.156 0.031,-0.313 0.057,-0.468 0.01,-0.06 0.02,-0.199 0.061,-0.257 0.023,0.063 0.044,0.127 0.065,0.192 0,-0.072 -10e-4,-0.143 -10e-4,-0.215 10e-4,0.09 0.007,0.176 0.015,0.261 0.047,0.154 0.086,0.311 0.103,0.468 0.003,0.035 0.005,0.067 0.007,0.101 0.027,0.115 0.058,0.271 0.134,0.358 0.076,-0.087 0.107,-0.243 0.133,-0.358 0.003,-0.034 0.004,-0.066 0.008,-0.101 0.017,-0.157 0.056,-0.314 0.103,-0.468 0.008,-0.085 0.013,-0.171 0.014,-0.261 0,0.072 0,0.143 0,0.215 0.02,-0.065 0.042,-0.129 0.064,-0.192 0.041,0.058 0.052,0.197 0.062,0.257 0.026,0.155 0.037,0.312 0.057,0.468 0.016,0.13 0.044,0.248 0.089,0.372 0.018,0.05 0.042,0.102 0.032,0.157 0.086,-0.336 0.046,-0.687 0.135,-1.023 0.032,-0.118 0.045,-0.181 0.045,-0.296 -10e-4,-0.064 -0.027,-0.188 0.005,-0.245 0.05,0.051 0.054,0.117 0.062,0.185 0.018,0.154 0.008,0.287 0.044,0.444 0.03,0.127 0.069,0.252 0.105,0.378 0.016,0.056 0.035,0.179 0.078,0.233 0.04,-0.037 0.047,-0.115 0.054,-0.166 0.02,-0.147 0.031,-0.304 0.041,-0.453 0.006,-0.093 -0.011,-0.192 0.006,-0.283 0.008,-0.044 0.034,-0.08 0.04,-0.124 0.127,0.046 0.178,0.255 0.224,0.366 0.126,0.307 0.26,0.63 0.312,0.955 0.127,-0.044 0.057,-0.615 0.061,-0.706 0.005,-0.103 0.036,-0.197 0.04,-0.299 0.002,-0.058 -0.032,-0.185 0.024,-0.216 0.046,0.202 0.094,0.404 0.121,0.61 0.017,0.129 0.051,0.253 0.077,0.381 0.014,0.065 0.011,0.195 0.061,0.245 0.093,-0.068 0.071,-0.344 0.074,-0.444 0.011,-0.384 -0.021,-0.771 -0.035,-1.154 -0.004,-0.112 0.015,-0.254 -0.004,-0.365 -0.015,-0.083 -0.081,-0.136 -0.07,-0.224 0.014,0.066 -0.074,0.152 -0.107,0.203 -0.068,0.102 -0.163,0.215 -0.294,0.217 -0.077,10e-4 -0.13,-0.026 -0.204,-0.047 -0.108,-0.032 -0.211,-0.026 -0.323,-0.026 -0.1,0 -0.201,0.007 -0.3,-0.008 -0.085,-0.013 -0.177,-0.047 -0.263,-0.024 0.064,-0.017 0.118,-0.092 0.172,-0.129 0.104,-0.069 0.276,-0.155 0.406,-0.133 0.12,0.021 0.203,0.171 0.343,0.11 0.063,-0.028 0.117,-0.119 0.167,-0.165 0.054,-0.051 0.112,-0.08 0.181,-0.107 0.143,-0.057 0.192,-0.091 0.188,-0.255 -0.002,-0.125 -0.026,-0.189 -0.101,-0.291 -0.041,-0.056 -0.067,-0.102 -0.089,-0.168 -0.025,-0.076 -0.014,-0.072 -0.068,-0.116 -0.039,-0.032 -0.125,-0.07 -0.176,-0.09 -0.15,-0.058 -0.269,-0.042 -0.426,-0.05 -0.066,-0.004 -0.115,-0.027 -0.175,-0.047 -0.096,-0.031 -0.196,-0.039 -0.292,-0.07 0.106,-0.211 0.478,-0.066 0.642,-0.034 0.029,0.005 0.144,0.026 0.178,0.002 0.096,-0.066 0.01,-0.163 -0.05,-0.2 -0.124,-0.078 -0.228,-0.165 -0.346,-0.25 -0.09,-0.066 -0.154,-0.153 -0.24,-0.221 -0.119,-0.094 -0.265,-0.069 -0.406,-0.073 -0.123,-0.005 -0.236,-0.04 -0.361,-0.037 0.312,-0.001 0.641,-0.107 0.945,0.015 0.541,0.216 1.037,0.574 1.499,0.913 l -0.75,-0.428 c 0.047,0.046 0.091,0.094 0.144,0.134 0.048,0.037 0.064,0.076 0.11,0.116 0.07,0.059 0.137,0.064 0.193,0.144 0.054,0.079 0.107,0.16 0.162,0.24 0.053,0.077 0.088,0.159 0.149,0.23 0.072,0.087 0.127,0.174 0.172,0.278 0.029,0.068 0.044,0.14 0.06,0.212 0.025,0.116 0.069,0.215 0.109,0.325 0.136,0.382 0.209,0.8 0.221,1.203 0.003,0.104 0.034,0.202 0.039,0.304 0.005,0.123 -0.001,0.231 0.023,0.352 0.064,0.317 0.046,0.638 0.046,0.959 C 0.008,-0.321 0.017,-0.16 0,0"
             style="fill:#100f0d;fill-opacity:1;fill-rule:nonzero;stroke:none"
             id="path52759" />
        </g>
        <g
           id="g52761"
           transform="translate(95.8475,263.859)">
          <path
             d="M 0,0 C -0.052,0.202 -0.062,0.41 -0.114,0.612 -0.202,0.953 -0.329,1.334 -0.547,1.61 -0.716,1.823 -0.816,2.084 -0.967,2.308 -1.07,2.46 -1.194,2.595 -1.295,2.748 -1.429,2.952 -1.607,3.115 -1.752,3.311 -1.893,3.503 -2.057,3.642 -2.213,3.816 -2.354,3.975 -2.516,4.132 -2.695,4.247 -2.847,4.345 -2.991,4.461 -3.161,4.524 -3.3,4.576 -3.412,4.648 -3.543,4.72 -3.623,4.763 -3.706,4.801 -3.786,4.844 -3.85,4.878 -3.906,4.93 -3.971,4.962 -4.031,4.992 -4.095,4.996 -4.156,5.019 -4.252,5.055 -4.325,5.126 -4.418,5.17 -4.513,5.214 -4.588,5.201 -4.687,5.217 -4.758,5.229 -4.83,5.254 -4.9,5.272 -4.959,5.287 -5.017,5.3 -5.077,5.311 -5.188,5.332 -5.28,5.397 -5.388,5.42 -5.425,5.427 -5.455,5.416 -5.489,5.422 -5.554,5.434 -5.605,5.474 -5.672,5.488 -5.734,5.502 -5.8,5.492 -5.862,5.502 c -0.137,0.022 -0.25,0.068 -0.392,0.065 -0.015,0 -0.029,10e-4 -0.044,10e-4 0.056,0.004 0.106,0.042 0.154,0.035 C -6.343,5.597 -6.548,5.618 -6.747,5.601 -6.946,5.618 -7.152,5.597 -7.351,5.603 -7.303,5.61 -7.253,5.572 -7.197,5.568 -7.212,5.568 -7.226,5.567 -7.241,5.567 -7.383,5.57 -7.496,5.524 -7.633,5.502 -7.695,5.492 -7.761,5.502 -7.823,5.488 -7.89,5.474 -7.941,5.434 -8.006,5.422 -8.04,5.416 -8.07,5.427 -8.107,5.42 -8.215,5.397 -8.307,5.332 -8.419,5.311 -8.478,5.3 -8.536,5.287 -8.595,5.272 -8.665,5.254 -8.737,5.229 -8.808,5.217 -8.907,5.201 -8.982,5.214 -9.077,5.17 -9.17,5.126 -9.243,5.055 -9.339,5.019 -9.4,4.996 -9.464,4.992 -9.523,4.962 -9.589,4.93 -9.645,4.878 -9.709,4.844 -9.789,4.801 -9.872,4.763 -9.952,4.72 -10.083,4.648 -10.195,4.576 -10.334,4.524 -10.504,4.461 -10.648,4.345 -10.8,4.247 -10.979,4.132 -11.141,3.975 -11.282,3.816 -11.438,3.642 -11.602,3.503 -11.743,3.311 -11.888,3.115 -12.066,2.952 -12.2,2.748 -12.301,2.595 -12.425,2.46 -12.528,2.308 -12.679,2.084 -12.779,1.823 -12.948,1.61 -13.166,1.334 -13.293,0.953 -13.381,0.612 -13.432,0.41 -13.443,0.202 -13.495,0 c -0.065,-0.256 -0.062,-0.472 -0.062,-0.733 -10e-4,-0.23 0.004,-0.454 0.043,-0.68 0.011,-0.064 0.021,-0.138 0.047,-0.198 0.029,-0.066 0.079,-0.098 0.119,-0.156 0.082,-0.12 0.06,-0.359 0.085,-0.504 0.032,-0.185 0.057,-0.37 0.089,-0.555 0.027,-0.151 0.091,-0.304 0.083,-0.458 -0.008,-0.158 -0.059,-0.316 -0.083,-0.472 -0.019,-0.128 -0.027,-0.256 -0.061,-0.381 -0.021,-0.075 -0.054,-0.145 -0.067,-0.223 -0.023,-0.136 -0.006,-0.284 -0.006,-0.422 10e-4,-0.251 -0.005,-0.498 0.043,-0.745 0.038,-0.197 0.079,-0.417 0.162,-0.6 0.152,-0.333 0.302,-0.656 0.478,-0.978 0.108,-0.198 0.188,-0.407 0.291,-0.609 0.083,-0.162 0.13,-0.338 0.212,-0.499 0.102,-0.2 0.161,-0.369 0.205,-0.589 0.043,-0.211 0.136,-0.406 0.199,-0.613 0.069,-0.232 0.168,-0.447 0.25,-0.674 0.074,-0.205 0.18,-0.397 0.247,-0.604 0.032,-0.099 0.049,-0.205 0.089,-0.3 0.035,-0.084 0.108,-0.145 0.14,-0.228 0.021,-0.057 0.085,-0.232 0.005,-0.241 l 0.189,-0.49 c -0.028,0.128 -0.021,0.264 -0.045,0.392 -0.016,0.086 -0.059,0.154 -0.074,0.239 -0.014,0.082 -0.02,0.168 -0.039,0.249 -0.015,0.07 -0.045,0.138 -0.066,0.207 -0.05,0.162 -0.031,0.364 -0.104,0.516 -0.044,0.091 -0.13,0.148 -0.163,0.246 -0.049,0.146 -0.046,0.31 -0.09,0.459 -0.03,0.099 -0.081,0.177 -0.123,0.269 -0.043,0.096 -0.061,0.211 -0.091,0.313 -0.035,0.119 -0.065,0.24 -0.125,0.35 -0.063,0.116 -0.132,0.193 -0.156,0.33 -0.029,0.174 -0.009,0.339 -0.097,0.498 -0.064,0.113 -0.144,0.216 -0.187,0.341 -0.063,0.184 -0.072,0.381 -0.135,0.564 -0.046,0.132 -0.103,0.256 -0.141,0.39 -0.035,0.122 -0.054,0.255 -0.105,0.372 -0.035,0.078 -0.096,0.139 -0.124,0.22 -0.065,0.184 -0.075,0.428 -0.073,0.623 0.002,0.213 -0.023,0.432 0.016,0.642 0.032,0.172 0.062,0.352 0.059,0.528 -0.002,0.078 -0.034,0.143 -0.042,0.219 -0.016,0.157 0.015,0.315 0.03,0.47 0.02,0.206 0.02,0.433 0.005,0.64 -0.016,0.226 -0.103,0.428 -0.14,0.65 -0.019,0.116 -0.045,0.165 -0.108,0.255 -0.06,0.088 -0.071,0.177 -0.073,0.284 -0.002,0.161 0.004,0.319 -0.068,0.47 -0.054,0.114 -0.073,0.191 -0.074,0.32 -10e-4,0.106 0.002,0.213 0.002,0.319 0,0.173 -0.02,0.356 0.007,0.526 0.017,0.112 0.052,0.221 0.061,0.334 0.006,0.066 -0.003,0.12 0.023,0.181 0.093,0.227 0.294,0.4 0.374,0.638 0.033,0.096 0.074,0.168 0.139,0.249 0.083,0.101 0.143,0.215 0.22,0.32 0.092,0.124 0.123,0.269 0.215,0.394 0.078,0.107 0.187,0.19 0.27,0.293 0.064,0.081 0.121,0.173 0.196,0.245 0.055,0.053 0.121,0.092 0.177,0.147 0.058,0.056 0.108,0.112 0.174,0.158 0.141,0.098 0.282,0.197 0.419,0.3 0.166,0.126 0.338,0.252 0.489,0.395 0.091,0.087 0.16,0.203 0.276,0.249 0.077,0.03 0.11,0.041 0.174,0.107 0.045,0.048 0.091,0.106 0.142,0.146 0.097,0.076 0.2,0.146 0.304,0.214 0.098,0.064 0.186,0.139 0.291,0.192 0.079,0.04 0.151,0.08 0.226,0.126 0.078,0.048 0.147,0.027 0.225,0.076 0.118,0.075 0.238,0.141 0.354,0.201 0.051,0.027 0.074,0.037 0.133,0.044 0.078,0.01 0.126,0.048 0.195,0.088 0.061,0.035 0.099,0.048 0.165,0.059 0.106,0.018 0.185,0.078 0.276,0.132 0.139,0.082 0.293,0.145 0.44,0.21 0.125,0.056 0.279,0.074 0.417,0.099 0.137,-0.025 0.291,-0.043 0.416,-0.099 0.147,-0.065 0.302,-0.128 0.44,-0.21 C -5.8,5.183 -5.721,5.123 -5.615,5.105 -5.549,5.094 -5.51,5.081 -5.45,5.046 -5.381,5.006 -5.333,4.968 -5.255,4.958 -5.196,4.951 -5.173,4.941 -5.122,4.914 -5.006,4.854 -4.886,4.788 -4.768,4.713 -4.691,4.664 -4.62,4.685 -4.543,4.637 -4.468,4.591 -4.396,4.551 -4.316,4.511 -4.212,4.458 -4.124,4.383 -4.026,4.319 -3.922,4.251 -3.819,4.181 -3.722,4.105 -3.67,4.065 -3.625,4.007 -3.579,3.959 -3.516,3.893 -3.483,3.882 -3.406,3.852 -3.289,3.806 -3.221,3.69 -3.13,3.603 -2.979,3.46 -2.806,3.334 -2.641,3.208 -2.504,3.105 -2.363,3.006 -2.222,2.908 -2.156,2.862 -2.106,2.806 -2.048,2.75 -1.992,2.695 -1.926,2.656 -1.87,2.603 -1.795,2.531 -1.74,2.439 -1.675,2.358 -1.592,2.255 -1.483,2.172 -1.405,2.065 -1.313,1.94 -1.282,1.795 -1.19,1.671 -1.112,1.566 -1.053,1.452 -0.97,1.351 -0.905,1.27 -0.864,1.198 -0.831,1.102 -0.751,0.864 -0.55,0.691 -0.456,0.464 -0.431,0.403 -0.44,0.349 -0.434,0.283 -0.425,0.17 -0.39,0.061 -0.373,-0.051 c 0.027,-0.17 0.007,-0.353 0.007,-0.526 0,-0.106 0.003,-0.213 0.002,-0.319 -0.001,-0.129 -0.02,-0.206 -0.074,-0.32 -0.072,-0.151 -0.066,-0.309 -0.068,-0.47 -0.002,-0.107 -0.013,-0.196 -0.073,-0.284 -0.063,-0.09 -0.089,-0.139 -0.108,-0.255 -0.037,-0.222 -0.124,-0.424 -0.14,-0.65 -0.015,-0.207 -0.015,-0.434 0.005,-0.64 0.015,-0.155 0.046,-0.313 0.03,-0.47 -0.008,-0.076 -0.04,-0.141 -0.041,-0.219 -0.004,-0.176 0.026,-0.356 0.058,-0.528 0.039,-0.21 0.014,-0.429 0.016,-0.642 0.002,-0.195 -0.008,-0.439 -0.073,-0.623 -0.028,-0.081 -0.089,-0.142 -0.124,-0.22 -0.051,-0.117 -0.07,-0.25 -0.105,-0.372 -0.038,-0.134 -0.095,-0.258 -0.141,-0.39 -0.063,-0.183 -0.072,-0.38 -0.135,-0.564 -0.042,-0.125 -0.123,-0.228 -0.187,-0.341 -0.088,-0.159 -0.068,-0.324 -0.097,-0.498 -0.024,-0.137 -0.093,-0.214 -0.156,-0.33 -0.06,-0.11 -0.09,-0.231 -0.125,-0.35 -0.03,-0.102 -0.048,-0.217 -0.091,-0.313 -0.041,-0.092 -0.093,-0.17 -0.123,-0.269 -0.044,-0.149 -0.041,-0.313 -0.09,-0.459 -0.033,-0.098 -0.119,-0.155 -0.163,-0.246 -0.072,-0.152 -0.054,-0.354 -0.104,-0.516 -0.021,-0.069 -0.051,-0.137 -0.066,-0.207 -0.019,-0.081 -0.025,-0.167 -0.039,-0.249 -0.015,-0.085 -0.057,-0.153 -0.074,-0.239 -0.024,-0.128 -0.017,-0.264 -0.046,-0.392 l 0.19,0.49 c -0.08,0.009 -0.016,0.184 0.006,0.241 0.031,0.083 0.104,0.144 0.139,0.228 0.04,0.095 0.057,0.201 0.089,0.3 0.067,0.207 0.173,0.399 0.247,0.604 0.082,0.227 0.181,0.442 0.251,0.674 0.062,0.207 0.155,0.402 0.198,0.613 0.044,0.22 0.103,0.389 0.205,0.589 0.083,0.161 0.129,0.337 0.212,0.499 0.103,0.202 0.183,0.411 0.291,0.609 0.176,0.322 0.327,0.645 0.478,0.978 0.083,0.183 0.124,0.403 0.162,0.6 0.048,0.247 0.043,0.494 0.043,0.745 0,0.138 0.017,0.286 -0.005,0.422 -0.013,0.078 -0.047,0.148 -0.068,0.223 -0.034,0.125 -0.042,0.253 -0.061,0.381 -0.024,0.156 -0.075,0.314 -0.083,0.472 -0.008,0.154 0.057,0.307 0.083,0.458 0.032,0.185 0.057,0.37 0.089,0.555 0.025,0.145 0.004,0.384 0.086,0.504 0.039,0.058 0.089,0.09 0.118,0.156 0.026,0.06 0.036,0.134 0.047,0.198 0.039,0.226 0.044,0.45 0.043,0.68 C 0.062,-0.472 0.065,-0.256 0,0"
             style="fill:#100f0d;fill-opacity:1;fill-rule:nonzero;stroke:none"
             id="path52763" />
        </g>
        <g
           id="g52765"
           transform="translate(92.9373,251.155)">
          <path
             d="M 0,0 C 0.139,0.084 0.091,0.374 0.12,0.507 0.134,0.573 0.176,0.625 0.198,0.69 0.205,0.71 0.208,0.732 0.213,0.752 L -0.026,0.136 C -0.034,0.086 -0.026,0.04 0,0"
             style="fill:#100f0d;fill-opacity:1;fill-rule:nonzero;stroke:none"
             id="path52767" />
        </g>
        <g
           id="g52769"
           transform="translate(86.713,260.068)">
          <path
             d="M 0,0 C -0.007,-0.057 -0.139,-0.116 -0.188,-0.143 -0.21,-0.154 -0.229,-0.167 -0.249,-0.179 -0.186,-0.138 -0.06,0.015 0,0 M -0.631,-0.398 C -0.706,-0.434 -0.777,-0.461 -0.853,-0.513 -1.069,-0.66 -1.284,-0.796 -1.477,-0.977 -1.606,-1.098 -1.731,-1.219 -1.86,-1.342 -1.946,-1.424 -2.02,-1.463 -2.125,-1.499 -2.177,-1.516 -2.265,-1.541 -2.278,-1.595 -2.23,-1.61 -2.181,-1.6 -2.13,-1.601 c 0.053,-0.001 0.086,-0.017 0.135,-0.029 0.087,-0.02 0.186,-0.007 0.277,-0.008 0.021,0 0.096,-0.009 0.117,-0.001 0.031,0.012 0.035,0.032 0.06,0.047 0.068,0.041 0.148,0.05 0.223,0.081 0.202,0.087 0.386,0.22 0.57,0.336 0.093,0.059 0.184,0.126 0.279,0.182 0.054,0.032 0.114,0.047 0.165,0.085 0.052,0.039 0.088,0.091 0.144,0.126 0.153,0.095 0.313,0.214 0.447,0.337 0.114,0.103 0.207,0.22 0.324,0.32 0.085,0.074 0.18,0.15 0.251,0.238 C 0.906,0.166 0.961,0.21 1.003,0.262 1.038,0.304 1.042,0.341 1.073,0.39 1.102,0.437 1.15,0.462 1.184,0.504 1.241,0.577 1.279,0.665 1.338,0.738 1.375,0.783 1.463,0.84 1.453,0.898 1.385,0.905 1.353,0.869 1.29,0.861 c -0.063,-0.009 -0.134,0 -0.198,0 -0.193,0 -0.398,-0.02 -0.59,-0.002 C 0.417,0.868 0.335,0.904 0.255,0.925 0.144,0.954 0.019,0.922 -0.095,0.931 -0.172,0.936 -0.244,0.965 -0.32,0.97 -0.376,0.974 -0.433,0.96 -0.488,0.967 -0.59,0.98 -0.677,1.037 -0.781,1.041 -0.87,1.044 -0.913,1.04 -0.998,1.075 -1.045,1.094 -1.09,1.117 -1.139,1.131 -1.231,1.157 -1.361,1.176 -1.458,1.185 -1.609,1.198 -1.721,1.178 -1.868,1.232 -1.954,1.264 -2.065,1.27 -2.138,1.324 -2.202,1.37 -2.268,1.408 -2.333,1.453 -2.347,1.463 -2.361,1.475 -2.374,1.487 -2.482,1.495 -2.59,1.497 -2.707,1.507 -2.815,1.516 -2.914,1.571 -3.018,1.579 -2.934,1.5 -2.92,1.38 -2.824,1.31 -2.664,1.194 -2.426,1.108 -2.239,1.049 -2.063,0.994 -1.881,0.922 -1.702,0.895 -1.635,0.885 -1.51,0.913 -1.571,0.79 -1.607,0.716 -1.743,0.677 -1.816,0.656 -1.915,0.628 -2.005,0.593 -2.104,0.567 -2.189,0.545 -2.242,0.5 -2.316,0.456 c 0.077,-0.016 0.225,0.035 0.311,0.056 0.1,0.024 0.218,0.062 0.333,0.065 0.215,0.005 0.431,-0.003 0.647,0 C -0.768,0.58 -0.495,0.491 -0.28,0.361 -0.123,0.266 -0.175,0.171 -0.318,0.084 -0.579,-0.076 -0.91,-0.029 -1.21,-0.031 -1.303,-0.032 -1.373,0 -1.46,0.005 -1.549,0.011 -1.612,0.021 -1.694,0.04 c -0.118,0.028 -0.227,0.053 -0.337,0.107 -0.05,0.025 -0.106,0.042 -0.154,0.07 -0.047,0.028 -0.084,0.09 -0.126,0.104 0.026,-0.1 0.089,-0.22 0.128,-0.325 0.02,-0.054 0.049,-0.094 0.072,-0.14 0.024,-0.05 0.029,-0.114 0.063,-0.158 0.051,-0.067 0.118,-0.036 0.189,-0.058 0.057,-0.018 0.096,-0.054 0.155,-0.066 0.121,-0.023 0.303,-0.011 0.425,0.005 0.071,0.01 0.131,0.031 0.204,0.034 0.061,0.001 0.127,-0.009 0.188,-0.002 0.102,0.012 0.222,0.036 0.32,0.072 0.105,0.039 0.213,0.074 0.31,0.133 -0.04,-0.025 -0.079,-0.05 -0.123,-0.07 -0.087,-0.04 -0.163,-0.101 -0.251,-0.144"
             style="fill:#100f0d;fill-opacity:1;fill-rule:nonzero;stroke:none"
             id="path52771" />
        </g>
        <g
           id="g52773"
           transform="translate(84.477,261.539)">
          <path
             d="M 0,0 0.169,-0.038 C 0.111,-0.021 0.055,-0.009 0,0"
             style="fill:#100f0d;fill-opacity:1;fill-rule:nonzero;stroke:none"
             id="path52775" />
        </g>
        <g
           id="g52777"
           transform="translate(83.9073,261.669)">
          <path
             d="M 0,0 -0.046,0.011 C -0.021,-0.009 -0.014,-0.004 0,0"
             style="fill:#100f0d;fill-opacity:1;fill-rule:nonzero;stroke:none"
             id="path52779" />
        </g>
        <g
           id="g52781"
           transform="translate(84.1544,261.616)">
          <path
             d="m 0,0 c -0.045,0.013 -0.102,0.037 -0.151,0.046 -0.022,0.004 -0.048,0.006 -0.072,0.009 -0.011,0.001 -0.018,0 -0.024,-0.002 l 0.396,-0.09 C 0.136,-0.028 0.123,-0.017 0.107,-0.013 0.069,-0.002 0.037,-0.011 0,0"
             style="fill:#100f0d;fill-opacity:1;fill-rule:nonzero;stroke:none"
             id="path52783" />
        </g>
        <g
           id="g52785"
           transform="translate(84.3037,261.579)">
          <path
             d="M 0,0 C 0.012,-0.008 0.024,-0.014 0.035,-0.024 0.081,-0.027 0.127,-0.032 0.173,-0.039 Z"
             style="fill:#100f0d;fill-opacity:1;fill-rule:nonzero;stroke:none"
             id="path52787" />
        </g>
        <g
           id="g52789"
           transform="translate(88.4159,257.389)">
          <path
             d="M 0,0 C 0.025,0.002 0.048,0.006 0.075,0.006 0.048,0.011 0.024,0.007 0,0"
             style="fill:#100f0d;fill-opacity:1;fill-rule:nonzero;stroke:none"
             id="path52791" />
        </g>
        <g
           id="g52793"
           transform="translate(87.3805,254.414)">
          <path
             d="M 0,0 C -0.012,0.059 -0.021,0.118 -0.021,0.186 -0.029,0.126 -0.019,0.063 0,0"
             style="fill:#100f0d;fill-opacity:1;fill-rule:nonzero;stroke:none"
             id="path52795" />
        </g>
        <g
           id="g52797"
           transform="translate(86.9764,254.715)">
          <path
             d="M 0,0 C -0.007,0.034 -0.011,0.067 -0.011,0.101 -0.012,0.068 -0.007,0.034 0,0"
             style="fill:#100f0d;fill-opacity:1;fill-rule:nonzero;stroke:none"
             id="path52799" />
        </g>
        <g
           id="g52801"
           transform="translate(85.1429,251.662)">
          <path
             d="m 0,0 c 0.029,-0.133 -0.019,-0.423 0.12,-0.507 0.026,0.04 0.034,0.085 0.026,0.135 L -0.093,0.245 C -0.088,0.224 -0.085,0.203 -0.078,0.183 -0.056,0.118 -0.015,0.066 0,0"
             style="fill:#100f0d;fill-opacity:1;fill-rule:nonzero;stroke:none"
             id="path52803" />
        </g>
      </g>
    </g>
  </g>
</svg>
