<?xml version="1.0" encoding="UTF-8" standalone="no"?>
<!-- Created with Inkscape (http://www.inkscape.org/) -->

<svg
   width="28.817017"
   height="24"
   viewBox="0 0 7.6245023 6.35"
   version="1.1"
   id="svg54530"
   inkscape:version="1.2.1 (9c6d41e4, 2022-07-14)"
   sodipodi:docname="dark-side-of-the-moon.svg"
   xmlns:inkscape="http://www.inkscape.org/namespaces/inkscape"
   xmlns:sodipodi="http://sodipodi.sourceforge.net/DTD/sodipodi-0.dtd"
   xmlns="http://www.w3.org/2000/svg"
   xmlns:svg="http://www.w3.org/2000/svg">
  <sodipodi:namedview
     id="namedview54532"
     pagecolor="#505050"
     bordercolor="#eeeeee"
     borderopacity="1"
     inkscape:showpageshadow="0"
     inkscape:pageopacity="0"
     inkscape:pagecheckerboard="0"
     inkscape:deskcolor="#505050"
     inkscape:document-units="mm"
     showgrid="false"
     inkscape:zoom="0.7046647"
     inkscape:cx="95.080681"
     inkscape:cy="148.29748"
     inkscape:window-width="1390"
     inkscape:window-height="941"
     inkscape:window-x="0"
     inkscape:window-y="25"
     inkscape:window-maximized="0"
     inkscape:current-layer="layer1" />
  <defs
     id="defs54527">
    <clipPath
       clipPathUnits="userSpaceOnUse"
       id="clipPath52819">
      <path
         d="m 76.75,206.73 h 24.7 v 24.7 h -24.7 z"
         id="path52817" />
    </clipPath>
  </defs>
  <g
     inkscape:label="Layer 1"
     inkscape:groupmode="layer"
     id="layer1"
     transform="translate(-80.054567,-109.58057)">
    <g
       id="g52813"
       transform="matrix(0.36583819,0,0,-0.36583819,51.352288,193.47321)">
      <g
         id="g52815"
         clip-path="url(#clipPath52819)">
        <g
           id="g52821"
           transform="translate(99.2588,218.249)">
          <path
             d="M 0,0 C 0,0.125 0.003,0.247 -0.018,0.371 -0.067,0.661 -0.152,0.948 -0.237,1.23 -0.308,1.467 -0.375,1.705 -0.443,1.943 -0.475,2.058 -0.505,2.175 -0.546,2.287 -0.594,2.414 -0.654,2.536 -0.687,2.668 -0.716,2.78 -0.73,2.895 -0.76,3.007 -0.795,3.134 -0.83,3.254 -0.882,3.376 -0.96,3.559 -1.023,3.751 -1.088,3.94 -1.177,4.195 -1.278,4.442 -1.406,4.68 -1.476,4.81 -1.525,4.943 -1.601,5.071 -1.687,5.218 -1.763,5.368 -1.858,5.51 -1.946,5.64 -2.01,5.784 -2.096,5.915 -2.214,6.096 -2.291,6.296 -2.403,6.48 -2.562,6.743 -2.694,7.018 -2.862,7.275 -3.034,7.54 -3.223,7.781 -3.449,8.004 c -0.06,0.059 -0.136,0.178 -0.215,0.218 -0.043,0.021 -0.079,0.031 -0.12,0.061 -0.042,0.032 -0.083,0.066 -0.124,0.099 -0.156,0.127 -0.251,0.295 -0.373,0.451 -0.069,0.089 -0.149,0.169 -0.22,0.255 -0.059,0.071 -0.112,0.145 -0.183,0.206 -0.075,0.063 -0.158,0.121 -0.235,0.182 -0.064,0.05 -0.126,0.11 -0.206,0.134 -0.082,0.025 -0.189,0.007 -0.265,0.043 -0.055,0.026 -0.091,0.081 -0.131,0.122 -0.139,0.142 -0.33,0.279 -0.52,0.34 -0.105,0.033 -0.213,0.055 -0.321,0.073 -0.21,0.037 -0.421,0.069 -0.631,0.106 -0.188,0.034 -0.377,0.07 -0.566,0.091 -0.15,0.018 -0.299,0.037 -0.444,0.077 -0.166,0.045 -0.327,0.103 -0.493,0.148 -0.186,0.05 -0.373,0.096 -0.557,0.152 -0.176,0.053 -0.352,0.106 -0.529,0.158 -0.108,0.032 -0.215,0.076 -0.327,0.093 -0.405,0.063 -0.809,0.052 -1.219,0.052 h -1.516 c -0.122,0 -0.245,-10e-4 -0.367,0 -0.026,0.001 -0.052,0.005 -0.076,-10e-4 -0.025,-0.006 -0.037,-0.024 -0.062,-0.034 -0.182,-0.071 -0.365,-0.158 -0.547,-0.239 -0.136,-0.061 -0.27,-0.134 -0.405,-0.201 -0.177,-0.088 -0.358,-0.166 -0.535,-0.253 -0.278,-0.135 -0.558,-0.341 -0.783,-0.552 -0.105,-0.098 -0.199,-0.213 -0.29,-0.323 -0.141,-0.169 -0.293,-0.329 -0.436,-0.496 -0.124,-0.143 -0.271,-0.26 -0.401,-0.397 -0.087,-0.092 -0.171,-0.186 -0.254,-0.281 -0.109,-0.124 -0.216,-0.248 -0.332,-0.364 -0.138,-0.138 -0.299,-0.25 -0.439,-0.386 -0.11,-0.107 -0.23,-0.209 -0.333,-0.321 -0.1,-0.109 -0.188,-0.23 -0.272,-0.351 C -18.278,6.717 -18.384,6.565 -18.48,6.412 -18.605,6.212 -18.708,6 -18.846,5.808 -19.084,5.476 -19.277,5.11 -19.446,4.74 -19.553,4.505 -19.627,4.257 -19.727,4.018 -19.775,3.903 -19.803,3.781 -19.853,3.666 -19.905,3.548 -19.96,3.431 -20.014,3.313 -20.066,3.2 -20.11,3.082 -20.151,2.963 c -0.021,-0.058 -0.03,-0.117 -0.044,-0.177 -0.022,-0.093 -0.062,-0.18 -0.087,-0.272 -0.033,-0.119 -0.06,-0.24 -0.094,-0.358 -0.034,-0.117 -0.083,-0.227 -0.111,-0.345 -0.032,-0.133 -0.072,-0.255 -0.128,-0.381 -0.049,-0.111 -0.067,-0.238 -0.105,-0.354 -0.038,-0.115 -0.055,-0.232 -0.076,-0.351 -0.017,-0.097 0.003,-0.195 0.014,-0.291 0.016,-0.151 0.039,-0.304 0.066,-0.453 0.024,-0.004 0.107,0.056 0.128,0.067 0.112,0.06 0.236,0.103 0.358,0.139 0.179,0.053 0.349,0.133 0.528,0.184 0.18,0.052 0.359,0.106 0.537,0.163 0.237,0.076 0.481,0.132 0.72,0.202 0.209,0.062 0.422,0.111 0.624,0.191 0.131,0.051 0.271,0.083 0.404,0.129 0.12,0.041 0.241,0.078 0.362,0.113 0.099,0.029 0.195,0.064 0.291,0.097 0.113,0.038 0.23,0.045 0.342,0.086 0.106,0.039 0.217,0.064 0.324,0.101 0.076,0.025 0.159,0.022 0.238,0.033 0.118,0.016 0.231,0.029 0.347,0.054 0.096,0.019 0.199,0.048 0.298,0.053 0.132,0.007 0.262,0.027 0.393,0.041 0.073,0.008 0.141,0.037 0.215,0.039 0.086,0.003 0.174,0.009 0.258,0.025 0.04,0.007 0.092,0.005 0.13,0.016 0.047,0.013 0.051,0.062 0.07,0.1 0.036,0.075 0.082,0.122 0.154,0.16 0.042,0.023 0.087,0.042 0.128,0.066 0.036,0.022 0.071,0.054 0.111,0.067 0.06,0.02 0.119,-0.027 0.173,-0.051 0.052,-0.023 0.099,-0.02 0.16,-0.02 h 0.28 c 0.239,0 0.478,0.007 0.717,0 0.222,-0.006 0.445,-0.058 0.666,-0.086 0.262,-0.034 0.525,-0.089 0.789,-0.112 0.151,-0.013 0.305,-0.004 0.456,-0.004 0.066,0 0.132,0 0.198,0 0.048,0 0.112,-0.013 0.157,0.004 -0.002,0.026 0.022,0.034 0.023,0.056 0.003,0.027 -0.009,0.037 -0.021,0.057 0.097,0.033 0.248,-0.002 0.344,-0.021 0.04,-0.008 0.07,-0.028 0.104,-0.05 0.054,-0.035 0.074,-0.076 0.115,-0.127 0.061,-0.073 0.156,-0.141 0.24,-0.181 0.049,-0.023 0.118,-0.021 0.171,-0.021 0.117,0.001 0.231,0.004 0.347,-0.014 0.1,-0.016 0.201,-0.03 0.3,-0.055 0.13,-0.033 0.262,-0.069 0.397,-0.073 0.193,-0.005 0.388,0.014 0.581,-0.001 0.193,-0.016 0.392,-0.059 0.584,-0.086 0.137,-0.019 0.273,-0.038 0.41,-0.057 0.125,-0.017 0.248,-0.055 0.375,-0.057 0.098,-0.002 0.189,0 0.285,-0.014 0.111,-0.017 0.214,-0.025 0.325,-0.025 0.038,0 0.108,-0.017 0.141,-0.001 0.023,0.011 0.039,0.043 0.053,0.066 0.023,0.039 0.02,0.046 0.074,0.064 0.044,0.015 0.086,0.012 0.131,0.012 0.068,0 0.135,0 0.202,0 0.122,10e-4 0.224,-0.027 0.344,-0.046 0.094,-0.015 0.18,-0.041 0.272,-0.063 0.114,-0.027 0.233,-0.025 0.347,-0.051 0.108,-0.024 0.207,-0.078 0.315,-0.099 0.097,-0.019 0.197,-0.024 0.292,-0.049 0.066,-0.017 0.127,-0.007 0.194,-0.015 0.045,-0.006 0.084,-0.025 0.129,-0.034 0.053,-0.011 0.089,-0.01 0.144,-0.032 0.124,-0.049 0.243,-0.109 0.367,-0.157 0.058,-0.022 0.104,-0.061 0.16,-0.084 0.071,-0.029 0.144,-0.032 0.219,-0.04 0.201,-0.02 0.398,-0.037 0.601,-0.036 0.348,0.002 0.73,0.044 1.068,-0.06 C -0.448,0.52 -0.371,0.49 -0.293,0.465 -0.252,0.452 -0.237,0.437 -0.201,0.416 -0.15,0.386 -0.099,0.372 -0.052,0.332 -0.017,0.303 0.012,0.268 0,0"
             style="fill:#231f20;fill-opacity:1;fill-rule:nonzero;stroke:none"
             id="path52823" />
        </g>
        <g
           id="g52825"
           transform="translate(92.144,226.936)">
          <path
             d="M 0,0 C 0.044,-0.005 0.089,-0.018 0.135,-0.024 0.197,-0.033 0.267,-0.047 0.328,-0.063 0.4,-0.082 0.458,-0.136 0.525,-0.167 0.568,-0.186 0.592,-0.213 0.629,-0.242 0.721,-0.313 0.817,-0.387 0.888,-0.48 0.947,-0.558 1.017,-0.616 1.061,-0.705 1.101,-0.787 1.137,-0.885 1.147,-0.975 1.155,-1.047 1.164,-1.157 1.15,-1.23 1.138,-1.295 1.085,-1.35 1.053,-1.405 1.006,-1.487 0.93,-1.551 0.857,-1.612 0.787,-1.67 0.715,-1.719 0.644,-1.775 0.585,-1.821 0.528,-1.87 0.462,-1.911 0.367,-1.971 0.244,-1.976 0.141,-2.016 0.045,-2.053 -0.075,-2.072 -0.176,-2.051 c -0.099,0.02 -0.191,0.053 -0.282,0.092 -0.038,0.015 -0.075,0.026 -0.112,0.044 -0.042,0.021 -0.066,0.046 -0.105,0.071 -0.065,0.041 -0.123,0.076 -0.163,0.143 -0.026,0.043 -0.063,0.078 -0.085,0.123 -0.024,0.053 -0.043,0.109 -0.064,0.163 -0.052,0.128 -0.041,0.255 -0.041,0.392 0,0.165 -0.006,0.324 0.06,0.479 0.027,0.064 0.067,0.119 0.086,0.186 0.021,0.073 0.059,0.135 0.101,0.198 0.044,0.063 0.085,0.106 0.145,0.152 0.054,0.041 0.129,0.069 0.197,0.084 0.042,0.009 0.075,0.009 0.116,0.02 0.038,0.011 0.081,0.005 0.121,0.005 h 0.198 c 0.032,0 0.065,0.002 0.096,10e-4 C 0.146,0.099 0.197,0.072 0.247,0.055 0.344,0.023 0.432,-0.022 0.524,-0.063 0.625,-0.108 0.735,-0.158 0.826,-0.22 0.918,-0.283 0.981,-0.388 1.023,-0.488 1.035,-0.518 1.04,-0.547 1.057,-0.575 1.073,-0.601 1.096,-0.622 1.11,-0.649 1.142,-0.713 1.164,-0.79 1.191,-0.858 c 0.04,-0.101 0.038,-0.213 0.038,-0.321 0,-0.044 0.007,-0.092 0.002,-0.136 C 1.223,-1.385 1.186,-1.465 1.161,-1.53 1.119,-1.643 1.073,-1.733 0.995,-1.825 0.915,-1.919 0.835,-2.013 0.729,-2.076 0.618,-2.143 0.52,-2.219 0.391,-2.247 0.323,-2.262 0.273,-2.278 0.203,-2.277 c -0.07,0 -0.139,0 -0.209,0 -0.24,-10e-4 -0.464,0.123 -0.66,0.257 -0.104,0.072 -0.162,0.159 -0.224,0.269 -0.043,0.078 -0.11,0.158 -0.139,0.242 -0.019,0.057 -0.032,0.109 -0.044,0.168 -0.022,0.105 -0.015,0.21 -0.015,0.317 0,0.055 0.005,0.099 0.015,0.153 0.005,0.023 0.03,0.086 0.025,0.105"
             style="fill:#ffffff;fill-opacity:1;fill-rule:nonzero;stroke:none"
             id="path52827" />
        </g>
        <g
           id="g52829"
           transform="translate(90.0883,219.377)">
          <path
             d="M 0,0 C 0.037,-0.013 0.071,-0.049 0.1,-0.075 0.144,-0.113 0.188,-0.151 0.232,-0.189 0.271,-0.223 0.315,-0.263 0.344,-0.307 0.36,-0.331 0.363,-0.357 0.383,-0.379 0.391,-0.389 0.405,-0.392 0.414,-0.403 0.433,-0.426 0.44,-0.459 0.462,-0.484 0.487,-0.512 0.529,-0.527 0.55,-0.559 0.584,-0.613 0.501,-0.713 0.463,-0.761 0.41,-0.831 0.332,-0.843 0.269,-0.891 0.149,-0.981 0.002,-1.047 -0.139,-1.103 -0.272,-1.156 -0.42,-1.202 -0.56,-1.235 -0.754,-1.28 -0.952,-1.341 -1.15,-1.367 c -0.177,-0.024 -0.361,-0.045 -0.54,-0.044 -0.11,0 -0.22,0.001 -0.33,0 -0.063,0 -0.131,-0.01 -0.192,0.004 0.015,0.018 0.04,0.025 0.063,0.031 0.081,0.019 0.162,0.033 0.244,0.056 0.198,0.056 0.393,0.122 0.588,0.187 0.109,0.037 0.215,0.077 0.327,0.105 0.138,0.033 0.266,0.073 0.391,0.139 0.068,0.037 0.12,0.077 0.18,0.123 0.046,0.035 0.115,0.064 0.146,0.112 0.052,0.08 0.097,0.261 0.06,0.353 -0.039,0.103 -0.097,0.203 -0.149,0.299 C -0.396,0.061 -0.419,0.128 -0.454,0.19 -0.467,0.213 -0.54,0.315 -0.485,0.327 -0.47,0.33 -0.457,0.311 -0.447,0.304 -0.406,0.277 -0.365,0.253 -0.322,0.23 -0.255,0.194 -0.186,0.161 -0.13,0.11 -0.09,0.074 -0.041,0.051 0.001,0.017 0.047,-0.022 0.077,-0.078 0,0"
             style="fill:#231f20;fill-opacity:1;fill-rule:nonzero;stroke:none"
             id="path52831" />
        </g>
        <g
           id="g52833"
           transform="translate(87.8711,220.042)">
          <path
             d="M 0,0 C -0.077,0 -0.153,0.004 -0.23,-0.004 -0.318,-0.013 -0.406,-0.033 -0.495,-0.039 -0.605,-0.046 -0.718,-0.04 -0.828,-0.04 h -0.458 c -0.103,0 -0.207,-0.007 -0.309,0.009 -0.101,0.017 -0.206,0.015 -0.305,0.035 -0.049,0.01 -0.135,0.038 -0.185,0.015 -0.06,-0.029 -0.072,-0.14 -0.021,-0.18 0.031,-0.026 0.059,-0.021 0.101,-0.02 0.047,0 0.071,-0.018 0.114,-0.021 0.053,-0.004 0.099,0.003 0.149,-0.01 0.05,-0.012 0.098,-0.01 0.15,-0.01 h 0.704 c 0.206,0 0.411,0.017 0.614,0.055 0.131,0.025 0.265,0.031 0.396,0.056 0.038,0.008 0.147,-0.003 0.16,0.046 C 0.163,-0.035 0.037,-0.034 0,0"
             style="fill:#231f20;fill-opacity:1;fill-rule:nonzero;stroke:none"
             id="path52835" />
        </g>
        <g
           id="g52837"
           transform="translate(94.7038,219.397)">
          <path
             d="m 0,0 c -0.058,0.01 -0.113,0.038 -0.171,0.05 -0.075,0.016 -0.154,0.018 -0.23,0.036 -0.037,0.009 -0.074,0.021 -0.113,0.016 -0.04,-0.006 -0.069,-0.027 -0.101,-0.053 -0.044,-0.037 -0.058,-0.062 -0.073,-0.112 -0.016,-0.051 -0.054,-0.085 -0.059,-0.139 -0.002,-0.03 -0.004,-0.071 0.004,-0.099 0.042,-0.003 0.078,0.065 0.108,0.088 0.025,0.018 0.067,0.037 0.095,0.047 0.126,0.044 0.272,0.025 0.404,0.025 0.22,0 0.442,-0.039 0.659,-0.075 0.119,-0.02 0.246,-0.034 0.362,-0.065 0.055,-0.015 0.09,-0.039 0.14,-0.063 0.019,-0.009 0.031,-0.022 0.054,-0.021 -0.14,0.021 -0.275,0.093 -0.415,0.124 C 0.51,-0.207 0.358,-0.162 0.205,-0.12 0.134,-0.101 0.063,-0.084 0,-0.061 -0.048,-0.043 -0.099,-0.046 0,0"
             style="fill:#231f20;fill-opacity:1;fill-rule:nonzero;stroke:none"
             id="path52839" />
        </g>
        <g
           id="g52841"
           transform="translate(96.9411,218.793)">
          <path
             d="M 0,0 C 0.018,-0.021 0.065,-0.035 0.09,-0.051 0.121,-0.07 0.151,-0.085 0.181,-0.106 0.247,-0.152 0.316,-0.193 0.383,-0.237 0.418,-0.259 0.452,-0.286 0.482,-0.313 0.521,-0.35 0.569,-0.363 0.605,-0.408 0.655,-0.47 0.694,-0.54 0.643,-0.613 0.612,-0.655 0.547,-0.703 0.502,-0.725 0.475,-0.738 0.432,-0.744 0.402,-0.753 0.359,-0.767 0.312,-0.776 0.267,-0.782 0.209,-0.79 0.155,-0.781 0.096,-0.795 0.039,-0.808 -0.016,-0.829 -0.075,-0.84 c -0.222,-0.042 -0.45,-0.047 -0.676,-0.047 -0.2,0 -0.396,0.02 -0.596,0.02 0.244,0.002 0.48,0.048 0.721,0.081 0.186,0.025 0.407,0.042 0.562,0.157 0.067,0.05 0.065,0.079 0.064,0.163 -0.001,0.068 0.007,0.129 -0.019,0.193 -0.023,0.057 -0.054,0.102 -0.087,0.151 C -0.127,-0.089 -0.165,-0.054 0,0"
             style="fill:#231f20;fill-opacity:1;fill-rule:nonzero;stroke:none"
             id="path52843" />
        </g>
        <g
           id="g52845"
           transform="translate(85.5332,217.16)">
          <path
             d="m 0,0 h -0.456 c -0.345,0 -0.698,0.021 -1.042,-0.003 -0.181,-0.012 -0.362,-0.044 -0.543,-0.063 -0.145,-0.015 -0.293,-0.032 -0.437,-0.054 -0.123,-0.019 -0.246,-0.045 -0.37,-0.062 -0.147,-0.021 -0.291,-0.029 -0.437,-0.059 -0.203,-0.043 -0.421,-0.062 -0.613,-0.145 -0.181,-0.079 -0.363,-0.148 -0.527,-0.26 -0.052,-0.035 -0.104,-0.071 -0.154,-0.109 -0.069,-0.052 -0.153,-0.099 -0.216,-0.157 -0.071,-0.066 -0.111,-0.16 -0.168,-0.236 -0.081,-0.109 -0.113,-0.201 -0.117,-0.34 -0.004,-0.119 0.001,-0.239 0.001,-0.358 0,-0.1 0.022,-0.196 0.02,-0.295 -10e-4,-0.113 0.009,-0.216 0.045,-0.325 0.023,-0.074 0.09,-0.127 0.131,-0.192 0.052,-0.081 0.084,-0.164 0.145,-0.24 0.077,-0.096 0.161,-0.207 0.253,-0.29 0.064,-0.058 0.145,-0.094 0.219,-0.138 0.081,-0.048 0.146,-0.105 0.234,-0.141 0.073,-0.029 0.143,-0.066 0.218,-0.094 0.152,-0.057 0.302,-0.121 0.459,-0.165 0.061,-0.017 0.11,-0.037 0.164,-0.062 -0.039,0.066 -0.104,0.105 -0.163,0.151 -0.111,0.084 -0.201,0.182 -0.293,0.285 -0.206,0.23 -0.404,0.456 -0.441,0.775 -0.016,0.138 -0.018,0.308 0.027,0.439 0.056,0.165 0.16,0.312 0.27,0.446 0.048,0.057 0.094,0.12 0.151,0.169 0.069,0.057 0.151,0.097 0.225,0.146 0.15,0.099 0.326,0.147 0.492,0.212 0.192,0.075 0.375,0.167 0.569,0.234 0.214,0.074 0.433,0.129 0.651,0.187 0.354,0.095 0.706,0.216 1.069,0.269 0.388,0.057 0.779,0.107 1.168,0.161 0.319,0.045 0.651,0.043 0.974,0.031 -0.031,0.019 -0.06,0.019 -0.095,0.025 -0.096,0.018 -0.188,0.029 -0.285,0.041 -0.105,0.012 -0.203,0.04 -0.304,0.067 -0.123,0.032 -0.252,0.032 -0.378,0.049 -0.097,0.013 -0.19,0.026 -0.283,0.056 -0.155,0.049 -0.306,0.043 -0.467,0.05 -0.262,0.011 -0.523,0.015 -0.784,0.015"
             style="fill:#231f20;fill-opacity:1;fill-rule:nonzero;stroke:none"
             id="path52847" />
        </g>
        <g
           id="g52849"
           transform="translate(89.4836,215.991)">
          <path
             d="m 0,0 c -0.001,-0.062 0.02,-0.118 0.021,-0.183 10e-4,-0.126 -0.04,-0.242 -0.081,-0.361 -0.096,-0.276 -0.229,-0.56 -0.408,-0.792 -0.098,-0.127 -0.221,-0.24 -0.349,-0.337 -0.067,-0.05 -0.137,-0.092 -0.201,-0.146 -0.059,-0.05 -0.115,-0.093 -0.186,-0.127 -0.12,-0.058 -0.242,-0.118 -0.354,-0.191 -0.079,-0.051 -0.161,-0.081 -0.244,-0.121 -0.092,-0.043 -0.177,-0.061 -0.213,-0.161 -0.038,-0.103 -0.068,-0.207 -0.111,-0.311 -0.022,-0.053 -0.042,-0.101 -0.071,-0.15 -0.038,-0.065 -0.063,-0.133 -0.099,-0.199 -0.07,-0.127 -0.18,-0.228 -0.284,-0.328 -0.167,-0.16 -0.357,-0.292 -0.561,-0.401 -0.111,-0.06 -0.23,-0.097 -0.346,-0.144 -0.065,-0.027 -0.128,-0.062 -0.197,-0.08 0.091,-0.003 0.187,0.035 0.273,0.058 0.169,0.046 0.334,0.105 0.503,0.151 0.167,0.046 0.332,0.068 0.502,0.096 0.226,0.038 0.451,0.107 0.673,0.167 0.152,0.041 0.305,0.077 0.458,0.116 0.286,0.072 0.558,0.212 0.849,0.26 0.109,0.018 0.219,0.043 0.329,0.056 0.074,0.009 0.147,0.01 0.22,0.023 0.202,0.036 0.406,0.038 0.607,0.072 0.105,0.017 0.211,0.018 0.317,0.034 0.078,0.011 0.154,0.04 0.231,0.056 0.175,0.036 0.379,0.082 0.524,0.191 0.047,0.036 0.096,0.075 0.123,0.126 0.035,0.065 0.027,0.139 0.033,0.21 0.006,0.073 0.025,0.146 0.017,0.22 -0.012,0.097 -0.068,0.189 -0.113,0.273 -0.054,0.1 -0.127,0.187 -0.181,0.287 -0.046,0.083 -0.08,0.171 -0.14,0.246 -0.121,0.151 -0.26,0.26 -0.405,0.385 -0.063,0.055 -0.134,0.1 -0.199,0.153 -0.066,0.053 -0.125,0.113 -0.19,0.166 -0.109,0.089 -0.211,0.19 -0.334,0.26 C 0.349,-0.389 0.275,-0.378 0.21,-0.341 0.153,-0.31 0.104,-0.264 0.048,-0.231 -0.041,-0.179 -0.146,-0.133 0,0"
             style="fill:#231f20;fill-opacity:1;fill-rule:nonzero;stroke:none"
             id="path52851" />
        </g>
        <g
           id="g52853"
           transform="translate(96.4573,215.971)">
          <path
             d="m 0,0 c -0.105,0.001 -0.202,0.022 -0.307,0.034 -0.215,0.026 -0.424,0.068 -0.64,0.067 -0.187,-0.001 -0.374,-0.001 -0.56,0 -0.084,0 -0.164,0 -0.247,-0.015 -0.056,-0.01 -0.143,-0.008 -0.193,-0.035 -0.067,-0.036 -0.082,-0.136 -0.099,-0.203 -0.024,-0.096 -0.012,-0.199 0.022,-0.291 0.036,-0.099 0.106,-0.192 0.181,-0.265 0.047,-0.046 0.095,-0.074 0.149,-0.109 0.025,-0.016 0.051,-0.038 0.059,-0.066 -0.115,-0.041 -0.298,0.019 -0.403,0.068 -0.153,0.072 -0.287,0.15 -0.351,0.31 -0.06,0.151 -0.07,0.285 -0.07,0.445 0,0.072 0.023,0.11 0.077,0.158 0.085,0.075 0.209,0.139 0.316,0.176 0.201,0.069 0.42,0.069 0.631,0.069 0.243,0 0.488,0.014 0.728,-0.025 C -0.58,0.297 -0.443,0.291 -0.321,0.251 -0.223,0.219 -0.127,0.173 -0.034,0.131 0.055,0.091 0.145,0.056 0.232,0.015 0.278,-0.005 0.362,-0.026 0.396,-0.061 0.278,-0.055 0.158,-0.061 0,0"
             style="fill:#231f20;fill-opacity:1;fill-rule:nonzero;stroke:none"
             id="path52855" />
        </g>
        <g
           id="g52857"
           transform="translate(97.9084,215.528)">
          <path
             d="m 0,0 c 0.071,-0.013 0.158,-0.06 0.217,-0.099 0.07,-0.047 0.129,-0.125 0.176,-0.193 0.065,-0.093 0.128,-0.173 0.176,-0.277 0.049,-0.104 0.101,-0.206 0.176,-0.293 0.057,-0.065 0.109,-0.14 0.172,-0.197 0.044,-0.039 0.096,-0.059 0.146,-0.088 0.058,-0.034 0.105,-0.08 0.156,-0.122 0.059,-0.049 0.113,-0.099 0.17,-0.148 C 1.382,-1.428 1.379,-1.439 1.373,-1.45 1.353,-1.491 1.317,-1.496 1.272,-1.512 1.126,-1.563 0.97,-1.569 0.817,-1.572 0.714,-1.574 0.623,-1.614 0.525,-1.639 0.383,-1.674 0.24,-1.717 0.096,-1.742 c -0.351,-0.061 -0.694,-0.093 -1.051,-0.092 -0.174,0 -0.344,0 -0.517,0.02 -0.087,0.01 -0.197,0.009 -0.278,0.041 0.187,-0.008 0.375,0.044 0.559,0.069 0.244,0.035 0.492,0.095 0.725,0.177 0.104,0.036 0.271,0.088 0.32,0.2 0.043,0.098 0.07,0.212 0.083,0.317 0.016,0.12 0.05,0.239 0.045,0.361 -0.003,0.061 -0.023,0.102 -0.037,0.159 -0.017,0.067 -0.028,0.127 -0.058,0.189 -0.036,0.074 -0.098,0.159 -0.11,0.242 C -0.226,-0.039 -0.221,-0.021 -0.226,0 -0.234,0.029 -0.252,0.045 -0.24,0.078 -0.2,0.095 -0.064,0.05 0,0"
             style="fill:#231f20;fill-opacity:1;fill-rule:nonzero;stroke:none"
             id="path52859" />
        </g>
        <g
           id="g52861"
           transform="translate(83.8804,225.323)">
          <path
             d="M 0,0 C -0.004,-0.005 -0.009,-0.01 -0.013,-0.016 0.027,-0.049 0.08,-0.05 0.096,-0.105 0.113,-0.165 0.078,-0.206 0.065,-0.262 0.053,-0.313 0.048,-0.363 0.001,-0.399 c -0.038,-0.028 -0.089,-0.023 -0.134,-0.03 -0.054,-0.008 -0.045,-0.012 -0.089,0.011 -0.088,0.047 -0.107,0.185 -0.076,0.277 0.027,0.082 0.145,0.122 0.217,0.121"
             style="fill:#ffffff;fill-opacity:1;fill-rule:nonzero;stroke:none"
             id="path52863" />
        </g>
        <g
           id="g52865"
           transform="translate(87.8107,223.61)">
          <path
             d="m 0,0 c 0.005,-0.027 0.045,-0.058 0.061,-0.081 0.026,-0.039 0.042,-0.07 0.04,-0.121 -0.005,-0.118 -0.106,-0.113 -0.193,-0.08 -0.042,0.016 -0.087,0.016 -0.115,0.054 -0.02,0.028 -0.026,0.06 -0.035,0.092 -0.005,0.019 -0.025,0.061 -0.022,0.077 0.004,0.024 0.059,0.074 0.078,0.085 0.032,0.02 0.098,0.031 0.125,-0.006"
             style="fill:#ffffff;fill-opacity:1;fill-rule:nonzero;stroke:none"
             id="path52867" />
        </g>
        <g
           id="g52869"
           transform="translate(88.4556,227.097)">
          <path
             d="m 0,0 c 0.037,0.007 0.076,-0.019 0.106,-0.035 0.019,-0.011 0.022,-0.005 0.036,-0.024 0.007,-0.01 0.015,-0.04 0.018,-0.052 0.017,-0.083 0.014,-0.208 -0.1,-0.192 -0.044,0.006 -0.121,0.052 -0.137,0.101 -0.005,0.017 -0.007,0.044 -0.009,0.061 -0.004,0.048 -0.01,0.008 0,0.045 0.008,0.031 0.027,0.067 0.066,0.056"
             style="fill:#ffffff;fill-opacity:1;fill-rule:nonzero;stroke:none"
             id="path52871" />
        </g>
        <g
           id="g52873"
           transform="translate(81.7037,221.453)">
          <path
             d="M 0,0 C 0.114,0 0.25,0.03 0.317,-0.08 0.359,-0.149 0.371,-0.311 0.292,-0.361 0.23,-0.399 0.128,-0.382 0.06,-0.383 c -0.074,-0.001 -0.101,0.012 -0.151,0.07 -0.039,0.045 -0.064,0.097 -0.036,0.152 0.012,0.023 0.027,0.044 0.041,0.066 0.011,0.017 0.047,0.054 0.046,0.075"
             style="fill:#ffffff;fill-opacity:1;fill-rule:nonzero;stroke:none"
             id="path52875" />
        </g>
      </g>
    </g>
  </g>
</svg>
