<?xml version="1.0" encoding="UTF-8" standalone="no"?>
<!-- Created with Inkscape (http://www.inkscape.org/) -->

<svg
   width="23.152702"
   height="24"
   viewBox="0 0 6.125819 6.35"
   version="1.1"
   id="svg54880"
   inkscape:version="1.2.1 (9c6d41e4, 2022-07-14)"
   sodipodi:docname="dreamers-curse.svg"
   xmlns:inkscape="http://www.inkscape.org/namespaces/inkscape"
   xmlns:sodipodi="http://sodipodi.sourceforge.net/DTD/sodipodi-0.dtd"
   xmlns="http://www.w3.org/2000/svg"
   xmlns:svg="http://www.w3.org/2000/svg">
  <sodipodi:namedview
     id="namedview54882"
     pagecolor="#505050"
     bordercolor="#eeeeee"
     borderopacity="1"
     inkscape:showpageshadow="0"
     inkscape:pageopacity="0"
     inkscape:pagecheckerboard="0"
     inkscape:deskcolor="#505050"
     inkscape:document-units="mm"
     showgrid="false"
     inkscape:zoom="0.7046647"
     inkscape:cx="0"
     inkscape:cy="71.66529"
     inkscape:window-width="1390"
     inkscape:window-height="941"
     inkscape:window-x="0"
     inkscape:window-y="25"
     inkscape:window-maximized="0"
     inkscape:current-layer="layer1" />
  <defs
     id="defs54877">
    <clipPath
       clipPathUnits="userSpaceOnUse"
       id="clipPath52287">
      <path
         d="m 76.75,127.567 h 24.7 v 24.7 h -24.7 z"
         id="path52285" />
    </clipPath>
  </defs>
  <g
     inkscape:label="Layer 1"
     inkscape:groupmode="layer"
     id="layer1"
     transform="translate(-105.27012,-129.90529)">
    <g
       id="g52281"
       transform="matrix(0.27061581,0,0,-0.27061581,84.372258,170.93335)">
      <g
         id="g52283"
         clip-path="url(#clipPath52287)">
        <g
           id="g52289"
           transform="translate(99.6613,140.345)">
          <path
             d="M 0,0 C -0.332,0.004 -0.687,0.124 -0.96,0.306 -1.121,0.414 -1.282,0.492 -1.42,0.635 -1.56,0.779 -1.639,0.936 -1.726,1.114 -1.98,1.633 -2.354,2.082 -2.65,2.572 -2.712,2.674 -2.792,2.724 -2.886,2.797 -2.978,2.869 -3.038,2.955 -3.11,3.046 -3.185,3.141 -3.279,3.219 -3.358,3.311 -3.473,3.448 -3.577,3.596 -3.69,3.735 -3.837,3.916 -4.038,4.069 -4.212,4.227 -4.374,4.375 -4.557,4.468 -4.749,4.574 -4.901,4.659 -5.071,4.708 -5.24,4.761 c -0.298,0.092 -0.61,0.168 -0.917,0.224 -0.29,0.053 -0.563,0.19 -0.847,0.268 -0.403,0.112 -0.795,0.243 -1.201,0.344 -0.177,0.044 -0.356,0.116 -0.536,0.142 -0.133,0.02 -0.27,0.021 -0.404,0.039 -0.347,0.047 -0.692,0.09 -1.039,0.131 -0.221,0.026 -0.448,0.026 -0.674,0.021 -10e-4,0.059 -0.003,0.117 -0.003,0.177 0,0.158 0.005,0.316 0.009,0.474 0.274,0 0.549,0 0.824,0 0.648,0 1.293,-0.08 1.943,-0.077 0.486,0.002 0.972,0.001 1.458,0.001 0.174,0 0.352,0.025 0.526,-0.015 0.085,-0.019 0.169,-0.058 0.254,-0.083 0.273,-0.08 0.532,-0.016 0.808,0.005 0.31,0.022 0.618,0.013 0.927,0.016 0.253,0.002 0.483,0.065 0.729,0.081 0.289,0.02 0.576,-0.023 0.867,0.006 0.368,0.035 0.741,0.084 1.103,0.214 0.055,0.019 0.096,0.029 0.142,0.078 C -1.325,6.933 -1.455,6.886 -1.524,6.885 -1.95,6.88 -2.375,6.883 -2.801,6.883 -3.253,6.884 -3.705,6.883 -4.156,6.881 -4.34,6.861 -4.523,6.867 -4.705,6.9 -4.788,6.925 -4.844,6.957 -4.929,6.96 -5.864,7.001 -6.802,6.963 -7.737,6.957 -7.977,6.956 -8.193,7.009 -8.426,7.051 -8.699,7.1 -8.959,7.114 -9.235,7.11 -9.579,7.105 -9.917,7.181 -10.26,7.189 c -0.133,0.003 -0.24,0.033 -0.367,0.065 -0.067,0.018 -0.138,0.021 -0.209,0.02 0.005,0.174 0.011,0.347 0.014,0.52 0.005,0.258 0.074,0.507 0.102,0.762 0.023,0.21 0.009,0.426 0.039,0.634 0.021,0.141 0.02,0.285 0.043,0.426 0.024,0.141 0.013,0.29 0.041,0.429 0.027,0.136 0.079,0.239 0.08,0.38 0,0.07 -0.001,0.14 -0.001,0.21 0.182,0.046 0.142,0.125 0.132,0.211 -0.008,0.063 0.004,0.128 -0.007,0.19 -0.007,0.037 -0.03,0.069 -0.04,0.113 -0.009,0.045 0.013,0.081 -0.033,0.116 -0.025,-0.118 -0.067,-0.233 -0.1,-0.353 -0.088,-0.316 -0.157,-0.636 -0.253,-0.95 -0.134,-0.441 -0.17,-0.891 -0.257,-1.34 -0.087,-0.451 -0.123,-0.911 -0.207,-1.361 h -1.428 c -0.091,0 -0.206,0.031 -0.295,0.004 -0.047,-0.015 -0.081,-0.068 -0.128,-0.083 -0.074,-0.025 -0.154,0.011 -0.231,-0.014 -0.135,-0.043 -0.264,-0.05 -0.402,-0.071 -0.278,-0.043 -0.55,-0.169 -0.829,-0.215 -0.299,-0.049 -0.586,-0.152 -0.887,-0.15 -0.59,0.003 -1.18,0 -1.769,0 -0.128,0 -0.256,-0.001 -0.384,-0.002 0.138,-0.011 0.276,-0.033 0.406,-0.081 0.376,-0.138 0.793,-0.068 1.182,-0.068 1.554,-0.001 3.109,0 4.664,0 -0.022,-0.217 -0.033,-0.436 -0.034,-0.662 -0.008,0 -0.016,-10e-4 -0.024,-10e-4 -0.37,0 -0.74,-0.001 -1.11,10e-4 -0.437,0.003 -0.859,-0.08 -1.293,-0.085 C -13.972,5.832 -14.091,5.815 -14.211,5.778 -14.32,5.745 -14.42,5.759 -14.532,5.74 -14.683,5.714 -14.83,5.671 -14.982,5.648 -15.108,5.629 -15.246,5.632 -15.366,5.593 -15.58,5.524 -15.82,5.484 -16.022,5.382 -16.105,5.34 -16.19,5.308 -16.273,5.269 -16.385,5.217 -16.473,5.118 -16.576,5.052 -16.75,4.941 -16.947,4.87 -17.123,4.762 -17.326,4.638 -17.539,4.521 -17.732,4.381 -17.947,4.225 -18.121,4.016 -18.31,3.83 -18.411,3.73 -18.494,3.639 -18.563,3.515 -18.633,3.387 -18.706,3.258 -18.794,3.141 -18.969,2.908 -19.169,2.686 -19.33,2.443 -19.435,2.286 -19.498,2.108 -19.609,1.954 -19.694,1.836 -19.783,1.729 -19.854,1.602 -19.943,1.444 -20.039,1.3 -20.136,1.148 c -0.088,-0.136 -0.147,-0.285 -0.235,-0.421 -0.14,-0.216 -0.27,-0.398 -0.499,-0.53 -0.24,-0.137 -0.51,-0.236 -0.787,-0.275 -0.153,-0.022 -0.323,-0.014 -0.478,-0.008 -0.092,0.003 -0.214,0.068 -0.302,0.039 -0.016,-0.071 0.173,-0.194 0.221,-0.24 0.148,-0.141 0.333,-0.244 0.503,-0.355 0.219,-0.143 0.651,-0.394 0.924,-0.209 0.136,0.092 0.246,0.287 0.344,0.413 0.115,0.146 0.229,0.291 0.355,0.428 0.101,0.11 0.174,0.232 0.267,0.347 0.05,0.06 0.117,0.11 0.162,0.173 0.074,0.104 0.115,0.233 0.179,0.343 0.076,0.13 0.16,0.256 0.233,0.388 0.184,0.33 0.447,0.61 0.701,0.886 0.067,0.072 0.115,0.1 0.184,0.156 0.103,0.085 0.173,0.204 0.263,0.302 0.178,0.19 0.389,0.342 0.589,0.506 0.217,0.18 0.313,0.442 0.559,0.595 0.157,0.098 0.283,0.207 0.464,0.262 0.141,0.043 0.262,0.116 0.399,0.162 0.193,0.066 0.4,0.055 0.599,0.092 0.608,0.112 1.223,0.204 1.836,0.29 0.351,0.05 0.689,0.143 1.043,0.181 0.373,0.041 0.747,0.1 1.12,0.158 -0.014,-0.079 -0.026,-0.159 -0.035,-0.24 -0.051,-0.488 -0.108,-0.966 -0.106,-1.457 10e-4,-0.387 0,-0.774 0,-1.16 0,-0.979 -0.012,-1.956 0.039,-2.933 0.037,-0.708 0.006,-1.428 0.004,-2.138 -10e-4,-0.2 0.03,-0.389 0.063,-0.587 0.046,-0.279 0.078,-0.559 0.122,-0.838 -0.007,0 -0.015,0 -0.022,-10e-4 -0.518,-0.038 -1.03,-0.195 -1.548,-0.204 -0.45,-0.007 -0.9,0.005 -1.35,0.005 -0.322,0 -0.644,-0.027 -0.962,0.053 -0.281,0.071 -0.567,0.038 -0.846,0.102 -0.585,0.135 -1.196,0.054 -1.787,0.054 h -1.303 l -1.286,-0.348 c 0.645,0 1.29,-0.005 1.935,10e-4 0.239,0.003 0.466,-0.043 0.703,-0.09 0.204,-0.041 0.414,-0.031 0.615,-0.101 0.117,-0.041 0.231,-0.113 0.349,-0.145 0.21,-0.057 0.426,-0.01 0.638,-0.068 0.161,-0.044 0.326,-0.003 0.489,-0.012 0.179,-0.01 0.347,-0.076 0.528,-0.074 0.634,0.008 1.299,-0.094 1.925,0.09 0.263,0.077 0.525,0.025 0.787,0.101 0.276,0.08 0.544,0.089 0.823,0.089 h 0.408 c 0.06,-0.334 0.113,-0.671 0.157,-1.006 0.057,-0.437 0.182,-0.866 0.24,-1.301 0.027,-0.2 0.027,-0.401 0.061,-0.601 0.024,-0.139 0.054,-0.276 0.07,-0.417 0.034,-0.295 0.082,-0.592 0.091,-0.889 0.008,-0.274 0.074,-0.539 0.083,-0.813 0.012,-0.33 0.015,-0.659 0.035,-0.989 0.023,-0.37 0.059,-0.743 0.051,-1.114 0.065,0.042 0.045,0.215 0.055,0.28 0.025,0.161 0.083,0.315 0.108,0.476 0.069,0.439 0.141,0.864 0.14,1.308 -10e-4,0.326 -0.002,0.651 10e-4,0.977 0.001,0.24 -0.038,0.47 -0.046,0.708 -0.01,0.288 0.002,0.579 0.002,0.868 0,0.755 -0.001,1.512 0,2.268 0,0.082 10e-4,0.163 10e-4,0.245 h 2.412 c 0.412,0 0.823,-10e-4 1.235,0 0.208,0 0.403,-0.075 0.608,-0.072 0.271,0.005 0.532,-0.003 0.801,0.069 0.317,0.085 0.656,0.124 0.967,0.247 0.209,0.083 0.444,0.113 0.661,0.159 0.191,0.039 0.367,0.084 0.56,0.085 0.347,0 0.702,-0.035 1.048,0.015 0.25,0.037 0.496,0.055 0.747,0.054 h -8.562 c -0.163,0 -0.327,0 -0.491,0 -0.007,0.085 -0.016,0.169 -0.03,0.254 -0.016,0.097 -0.025,0.193 -0.031,0.289 0.097,-0.174 0.308,-0.155 0.519,-0.126 0.269,0.038 0.514,0.105 0.769,0.197 0.208,0.075 0.417,0.066 0.63,0.107 0.219,0.043 0.415,0.15 0.631,0.202 0.185,0.044 0.364,0.111 0.546,0.161 0.167,0.045 0.356,0.075 0.518,0.138 0.103,0.039 0.199,0.1 0.303,0.14 0.139,0.055 0.168,0.086 0.273,0.182 0.038,0.035 0.106,0.103 0.149,0.132 0.058,0.039 0.136,0.05 0.198,0.093 0.077,0.053 0.139,0.126 0.211,0.182 0.093,0.072 0.175,0.162 0.258,0.246 0.08,0.082 0.104,0.174 0.17,0.26 0.074,0.096 0.151,0.191 0.217,0.296 0.064,0.101 0.097,0.232 0.118,0.348 0.011,0.056 0.061,0.145 0.056,0.196 -0.054,-0.046 -0.09,-0.113 -0.14,-0.165 -0.106,-0.111 -0.236,-0.195 -0.356,-0.29 -0.235,-0.188 -0.502,-0.32 -0.752,-0.483 -0.254,-0.164 -0.562,-0.266 -0.793,-0.459 -0.121,-0.101 -0.191,-0.17 -0.342,-0.238 -0.118,-0.053 -0.237,-0.101 -0.345,-0.171 -0.221,-0.145 -0.455,-0.215 -0.71,-0.277 -0.262,-0.064 -0.519,-0.142 -0.786,-0.196 -0.271,-0.056 -0.555,-0.072 -0.83,-0.116 -0.185,-0.029 -0.341,-0.068 -0.523,-0.073 -10e-4,0.09 -10e-4,0.181 -10e-4,0.274 10e-4,0.304 -0.005,0.605 -0.015,0.905 0.153,0.045 0.303,0.1 0.446,0.15 0.244,0.085 0.471,0.158 0.703,0.275 0.079,0.04 0.158,0.079 0.237,0.119 0.146,0.074 0.316,0.12 0.456,0.202 0.077,0.044 0.124,0.118 0.194,0.171 0.07,0.055 0.15,0.099 0.221,0.153 0.183,0.137 0.337,0.293 0.508,0.444 0.103,0.09 0.139,0.184 0.207,0.306 0.046,0.084 0.125,0.142 0.167,0.226 0.029,0.059 0.035,0.13 0.059,0.191 0.263,0.672 0.248,1.427 0.248,2.145 -10e-4,0.165 -10e-4,0.312 -0.042,0.47 -0.038,0.144 -0.127,0.233 -0.216,0.355 -0.079,0.11 -0.145,0.173 -0.238,0.251 0.019,-0.084 0.04,-0.167 0.057,-0.251 0.031,-0.157 0.01,-0.334 0.01,-0.494 0,-0.152 0.029,-0.335 0.002,-0.483 C -7.359,1.637 -7.414,1.547 -7.442,1.46 -7.476,1.352 -7.503,1.241 -7.537,1.134 -7.612,0.896 -7.735,0.691 -7.849,0.472 -7.897,0.38 -7.941,0.271 -8.008,0.193 -8.068,0.124 -8.137,0.066 -8.191,-0.009 c -0.128,-0.174 -0.298,-0.283 -0.459,-0.42 -0.099,-0.084 -0.215,-0.14 -0.314,-0.222 -0.111,-0.09 -0.17,-0.144 -0.311,-0.194 -0.119,-0.042 -0.223,-0.103 -0.342,-0.15 -0.266,-0.103 -0.545,-0.158 -0.817,-0.245 -0.049,0.658 -0.086,1.308 -0.083,1.97 10e-4,0.257 -0.04,0.508 -0.046,0.764 -0.003,0.115 -0.003,0.23 -0.002,0.346 0.148,0.048 0.292,0.125 0.381,0.188 0.101,0.072 0.236,0.149 0.312,0.246 0.071,0.09 0.168,0.192 0.224,0.29 0.065,0.114 0.108,0.227 0.116,0.362 0.009,0.162 0.078,0.346 0.066,0.508 C -9.472,3.526 -9.496,3.622 -9.52,3.706 -9.562,3.845 -9.584,4.038 -9.671,4.158 -9.742,4.15 -9.803,3.914 -9.823,3.858 -9.868,3.728 -9.875,3.62 -9.875,3.483 -9.875,3.35 -9.881,3.047 -9.657,3.227 -9.66,3.21 -9.663,3.193 -9.668,3.177 -9.7,3.085 -9.761,2.992 -9.797,2.899 -9.874,2.695 -10.019,2.52 -10.132,2.336 c -0.1,-0.16 -0.264,-0.245 -0.432,-0.323 10e-4,0.077 0.002,0.155 0.003,0.233 10e-4,0.391 -0.075,0.764 -0.085,1.154 -0.011,0.439 -0.106,0.881 -0.164,1.316 -0.01,0.072 -0.011,0.145 -0.011,0.218 0.116,0.02 0.235,0.044 0.35,0.042 0.268,-0.003 0.535,-0.001 0.803,-0.001 0.366,0 0.732,0.014 1.095,-0.051 C -8.374,4.888 -8.13,4.837 -7.944,4.763 -7.43,4.558 -6.906,4.372 -6.399,4.148 -6.224,4.07 -6.044,4.001 -5.868,3.929 -5.644,3.836 -5.403,3.79 -5.176,3.7 c 0.203,-0.08 0.429,-0.166 0.623,-0.267 0.128,-0.067 0.215,-0.182 0.317,-0.28 0.125,-0.121 0.162,-0.254 0.233,-0.408 0.031,-0.067 0.069,-0.126 0.107,-0.187 0.102,-0.162 0.165,-0.324 0.238,-0.5 0.092,-0.222 0.215,-0.423 0.333,-0.631 0.103,-0.182 0.192,-0.362 0.396,-0.455 0.073,-0.033 0.15,-0.042 0.226,-0.068 0.12,-0.041 0.132,-0.069 0.215,-0.133 0.078,-0.061 0.182,-0.086 0.267,-0.143 0.034,-0.023 0.071,-0.05 0.107,-0.071 0.048,-0.026 0.083,-0.025 0.13,-0.049 0.071,-0.035 0.124,-0.146 0.127,0.008 -0.017,-0.069 0.075,-0.179 0.112,-0.237 0.066,-0.102 0.123,-0.165 0.229,-0.217 0.23,-0.113 0.437,-0.293 0.679,-0.372 0.206,-0.067 0.599,-0.072 0.806,0.031 0.068,0.034 0.145,0.104 0.191,0.161 C 0.274,0.025 0.11,-0.001 0,0"
             style="fill:#100f0d;fill-opacity:1;fill-rule:nonzero;stroke:none"
             id="path52291" />
        </g>
        <g
           id="g52293"
           transform="translate(92.1874,143.647)">
          <path
             d="M 0,0 C -0.117,-0.131 -0.105,-0.134 -0.094,-0.137 -0.089,-0.205 -0.01,-0.29 0.041,-0.332 0.048,-0.339 0.054,-0.344 0.062,-0.35 0.054,-0.319 0.046,-0.287 0.041,-0.256 0.025,-0.172 0.084,-0.064 0,0"
             style="fill:#100f0d;fill-opacity:1;fill-rule:nonzero;stroke:none"
             id="path52295" />
        </g>
        <g
           id="g52297"
           transform="translate(85.725,140.388)">
          <path
             d="m 0,0 c -0.101,0.077 -0.191,0.149 -0.286,0.234 -0.153,0.138 -0.288,0.367 -0.403,0.538 -0.133,0.196 -0.298,0.39 -0.395,0.607 -0.133,0.293 -0.241,0.617 -0.334,0.924 -0.044,0.145 -0.101,0.307 -0.132,0.453 -0.012,0.059 0.009,0.117 -0.049,0.16 -0.252,0.37 -0.422,0.198 -0.48,0.131 C -2.16,2.953 -2.213,2.891 -2.237,2.767 -2.264,2.635 -2.323,2.493 -2.33,2.358 -2.344,2.1 -2.247,1.871 -2.243,1.62 -2.241,1.471 -2.193,1.337 -2.135,1.201 -2.105,1.129 -2.088,1.058 -2.063,0.985 -2.031,0.889 -1.955,0.841 -1.899,0.763 -1.788,0.609 -1.691,0.428 -1.548,0.298 -1.441,0.201 -1.29,0.132 -1.172,0.045 -0.864,-0.184 -0.578,-0.427 -0.219,-0.567 0.04,-0.668 0.24,-0.816 0.523,-0.815 0.686,-0.814 0.867,-0.849 1.001,-0.74 0.937,-0.61 0.782,-0.564 0.67,-0.49 0.544,-0.405 0.374,-0.339 0.264,-0.238 0.21,-0.187 0.188,-0.139 0.127,-0.096 0.082,-0.063 0.043,-0.033 0,0"
             style="fill:#100f0d;fill-opacity:1;fill-rule:nonzero;stroke:none"
             id="path52299" />
        </g>
        <g
           id="g52301"
           transform="translate(82.4097,139.67)">
          <path
             d="M 0,0 C -0.105,0.127 -0.232,0.241 -0.332,0.371 -0.451,0.523 -0.544,0.714 -0.636,0.884 -0.698,0.998 -0.732,1.116 -0.772,1.237 -0.79,1.292 -0.823,1.344 -0.814,1.404 -0.912,1.303 -0.873,1.28 -0.86,1.229 -0.848,1.182 -0.859,1.132 -0.853,1.084 -0.838,0.974 -0.789,0.849 -0.749,0.745 -0.705,0.629 -0.678,0.556 -0.6,0.463 -0.51,0.354 -0.429,0.234 -0.344,0.12 c 0.096,-0.128 0.196,-0.27 0.302,-0.39 0.086,-0.098 0.145,-0.194 0.223,-0.298 0.148,-0.198 0.359,-0.397 0.546,-0.558 0.118,-0.1 0.272,-0.185 0.409,-0.257 0.148,-0.077 0.28,-0.183 0.428,-0.257 0.315,-0.158 0.606,-0.358 0.924,-0.515 0.146,-0.071 0.282,-0.178 0.437,-0.214 0.173,-0.039 0.33,-0.109 0.496,-0.173 0.175,-0.069 0.381,-0.041 0.567,-0.041 0.071,0 0.366,-0.046 0.383,0.032 C 4.3,-2.536 4.246,-2.503 4.18,-2.476 4.083,-2.437 3.978,-2.425 3.881,-2.386 3.677,-2.302 3.46,-2.235 3.263,-2.136 3.003,-2.005 2.748,-1.872 2.488,-1.744 2.162,-1.582 1.833,-1.417 1.545,-1.191 1.423,-1.096 1.299,-1.038 1.17,-0.957 1.029,-0.868 0.911,-0.745 0.772,-0.652 0.486,-0.459 0.223,-0.269 0,0"
             style="fill:#100f0d;fill-opacity:1;fill-rule:nonzero;stroke:none"
             id="path52303" />
        </g>
        <g
           id="g52305"
           transform="translate(86.3986,144.376)">
          <path
             d="m 0,0 c -0.256,-0.085 -0.306,-0.124 -0.344,-0.169 -0.044,-0.053 -0.057,-0.115 -0.096,-0.168 -0.052,-0.069 -0.071,-0.058 -0.075,-0.156 -0.011,-0.236 -0.006,-0.462 0.064,-0.688 0.088,-0.28 0.289,-0.444 0.538,-0.577 0.186,-0.099 0.404,-0.236 0.628,-0.163 -0.101,0.08 -0.22,0.15 -0.302,0.248 -0.057,0.066 -0.097,0.148 -0.156,0.216 -0.073,0.085 -0.137,0.151 -0.173,0.26 -0.023,0.069 -0.026,0.145 -0.051,0.214 -0.015,0.044 -0.055,0.085 -0.069,0.128 -0.033,0.109 -0.007,0.264 -0.007,0.376 0,0.091 -0.014,0.197 -0.001,0.288 C -0.036,-0.126 0.012,-0.067 0,0"
             style="fill:#100f0d;fill-opacity:1;fill-rule:nonzero;stroke:none"
             id="path52307" />
        </g>
        <g
           id="g52309"
           transform="translate(79.1511,147.228)">
          <path
             d="m 0,0 -1.029,-0.151 c 0.653,0 1.307,-0.001 1.96,0 C 0.705,-0.142 0.477,-0.116 0.252,-0.075 0.172,-0.061 0.08,0.025 0,0"
             style="fill:#100f0d;fill-opacity:1;fill-rule:nonzero;stroke:none"
             id="path52311" />
        </g>
        <g
           id="g52313"
           transform="translate(81.4791,147.079)">
          <path
             d="m 0,0 c -0.466,-0.003 -0.931,-0.003 -1.397,-0.003 0.017,-0.001 0.034,-0.003 0.051,-0.004 0.63,-0.018 1.261,-0.004 1.892,0.002 C 0.362,0.009 0.175,0.001 0,0"
             style="fill:#100f0d;fill-opacity:1;fill-rule:nonzero;stroke:none"
             id="path52315" />
        </g>
      </g>
    </g>
  </g>
</svg>
