<?xml version="1.0" encoding="UTF-8" standalone="no"?>
<!-- Created with Inkscape (http://www.inkscape.org/) -->

<svg
   width="22.929413"
   height="24"
   viewBox="0 0 6.0667403 6.35"
   version="1.1"
   id="svg55060"
   inkscape:version="1.2.1 (9c6d41e4, 2022-07-14)"
   sodipodi:docname="dreamlands.svg"
   xmlns:inkscape="http://www.inkscape.org/namespaces/inkscape"
   xmlns:sodipodi="http://sodipodi.sourceforge.net/DTD/sodipodi-0.dtd"
   xmlns="http://www.w3.org/2000/svg"
   xmlns:svg="http://www.w3.org/2000/svg">
  <sodipodi:namedview
     id="namedview55062"
     pagecolor="#505050"
     bordercolor="#eeeeee"
     borderopacity="1"
     inkscape:showpageshadow="0"
     inkscape:pageopacity="0"
     inkscape:pagecheckerboard="0"
     inkscape:deskcolor="#505050"
     inkscape:document-units="mm"
     showgrid="false"
     inkscape:zoom="0.7046647"
     inkscape:cx="19.867605"
     inkscape:cy="102.88581"
     inkscape:window-width="1390"
     inkscape:window-height="941"
     inkscape:window-x="0"
     inkscape:window-y="25"
     inkscape:window-maximized="0"
     inkscape:current-layer="layer1" />
  <defs
     id="defs55057">
    <clipPath
       clipPathUnits="userSpaceOnUse"
       id="clipPath52323">
      <path
         d="m 76.75,87.986 h 24.7 v 24.699 h -24.7 z"
         id="path52321" />
    </clipPath>
  </defs>
  <g
     inkscape:label="Layer 1"
     inkscape:groupmode="layer"
     id="layer1"
     transform="translate(-99.761598,-121.73391)">
    <g
       id="g52317"
       transform="matrix(0.27656674,0,0,-0.27656674,78.034598,152.66956)">
      <g
         id="g52319"
         clip-path="url(#clipPath52323)">
        <g
           id="g52325"
           transform="translate(86.5272,102.007)">
          <path
             d="M 0,0 C 0.172,0.239 0.417,0.429 0.622,0.639 0.908,0.929 1.229,1.15 1.587,1.345 1.665,1.388 1.731,1.457 1.811,1.494 1.88,1.526 1.963,1.534 2.035,1.564 2.276,1.666 2.526,1.727 2.78,1.791 2.959,1.837 3.158,1.882 3.341,1.888 3.506,1.894 3.622,1.835 3.781,1.811 3.988,1.779 4.177,1.753 4.377,1.694 4.603,1.628 4.855,1.588 5.063,1.48 5.151,1.434 5.229,1.37 5.317,1.327 5.382,1.295 5.46,1.289 5.52,1.249 5.604,1.193 5.671,1.099 5.757,1.039 5.868,0.96 5.969,0.875 6.059,0.773 6.209,0.601 6.262,0.391 6.347,0.181 6.435,-0.035 6.482,-0.247 6.518,-0.477 6.529,-0.55 6.557,-0.599 6.582,-0.666 6.612,-0.746 6.613,-0.835 6.645,-0.915 6.704,-1.06 6.768,-1.2 6.818,-1.351 6.838,-1.41 6.85,-1.468 6.865,-1.528 6.88,-1.585 6.923,-1.635 6.938,-1.681 6.956,-1.737 6.934,-1.791 6.944,-1.846 6.955,-1.907 6.985,-1.948 6.99,-2.011 7.022,-2.356 7.011,-2.754 6.949,-3.088 6.875,-3.489 6.396,-3.729 6.13,-3.99 5.906,-4.208 5.63,-4.34 5.401,-4.546 5.281,-4.654 5.152,-4.718 5.017,-4.802 4.793,-4.943 4.579,-5.128 4.331,-5.189 3.959,-5.279 3.564,-5.291 3.171,-5.276 2.878,-5.265 2.614,-5.065 2.332,-4.995 2.25,-4.975 2.175,-4.979 2.09,-4.966 2.014,-4.953 1.95,-4.917 1.877,-4.898 1.8,-4.877 1.735,-4.886 1.661,-4.849 1.572,-4.805 1.495,-4.748 1.404,-4.707 1.187,-4.609 0.986,-4.46 0.77,-4.353 c -0.104,0.052 -0.139,0.109 -0.22,0.184 -0.086,0.08 -0.21,0.115 -0.306,0.181 -0.148,0.101 -0.207,0.271 -0.288,0.428 -0.11,0.212 -0.167,0.475 -0.213,0.71 -0.082,0.41 -0.321,0.768 -0.302,1.199 0.008,0.185 0.079,0.383 0.118,0.565 0.03,0.134 0.039,0.27 0.066,0.404 0.014,0.07 0.055,0.136 0.024,0.207 -0.07,0.006 -0.152,-0.15 -0.175,-0.209 -0.048,-0.117 -0.036,-0.249 -0.074,-0.372 -0.025,-0.08 -0.034,-0.151 -0.053,-0.229 -0.08,-0.331 -0.033,-0.727 -0.033,-1.074 0,-0.228 -0.023,-0.469 -0.002,-0.696 0.02,-0.223 0.096,-0.456 0.141,-0.676 0.072,-0.352 0.128,-0.715 0.332,-1.02 0.07,-0.105 0.203,-0.236 0.306,-0.308 0.247,-0.171 0.526,-0.24 0.79,-0.371 0.107,-0.053 0.208,-0.097 0.318,-0.142 0.13,-0.054 0.231,-0.155 0.357,-0.209 0.093,-0.04 0.163,-0.055 0.249,-0.118 0.108,-0.08 0.216,-0.15 0.336,-0.213 0.383,-0.204 0.785,-0.204 1.21,-0.193 0.307,0.008 0.579,0.111 0.87,0.191 0.34,0.093 0.652,0.225 0.984,0.343 0.195,0.07 0.411,0.132 0.587,0.241 0.246,0.151 0.552,0.265 0.751,0.47 0.155,0.16 0.364,0.255 0.491,0.45 0.108,0.167 0.219,0.343 0.267,0.538 0.045,0.182 0.06,0.368 0.107,0.55 0.027,0.102 0.043,0.201 0.058,0.305 0.04,0.257 0.115,0.523 0.126,0.782 0.012,0.259 0.029,0.513 0.038,0.77 0.003,0.085 0.03,0.155 0.038,0.237 0.01,0.089 -0.012,0.171 -0.024,0.26 -0.022,0.174 -0.042,0.35 -0.053,0.525 C 7.567,-0.294 7.429,0.1 7.293,0.422 7.209,0.618 7.067,0.858 6.928,1.019 6.867,1.09 6.799,1.152 6.74,1.224 6.657,1.324 6.597,1.439 6.516,1.539 6.207,1.922 5.81,2.204 5.341,2.358 5.186,2.409 5.028,2.47 4.87,2.507 4.736,2.538 4.606,2.53 4.47,2.53 4.055,2.528 3.639,2.53 3.224,2.53 H 2.278 C 2.058,2.53 1.821,2.557 1.606,2.506 1.452,2.47 1.223,2.437 1.079,2.361 0.945,2.291 0.837,2.179 0.698,2.111 0.561,2.044 0.416,1.99 0.299,1.889 0.187,1.792 0.086,1.673 -0.019,1.568 -0.168,1.42 -0.341,1.262 -0.441,1.073 -0.525,0.913 -0.567,0.753 -0.632,0.586 -0.683,0.457 -0.711,0.319 -0.767,0.191 -0.815,0.078 -0.86,-0.038 -0.686,-0.044 c 0.054,-0.002 0.116,-0.007 0.169,-0.001 0.075,0.008 0.126,0.061 0.185,0.079 0.063,0.021 0.119,0.018 0.183,0.046 C -0.103,0.101 -0.054,0.143 0,0"
             style="fill:#100f0d;fill-opacity:1;fill-rule:nonzero;stroke:none"
             id="path52327" />
        </g>
        <g
           id="g52329"
           transform="translate(90.7295,105.609)">
          <path
             d="M 0,0 C -0.004,-0.009 -0.007,-0.019 -0.011,-0.028 -0.061,0.015 -0.039,0.07 -0.04,0.128 -0.044,0.272 -0.075,0.418 -0.086,0.562 -0.107,0.839 -0.158,1.114 -0.204,1.388 -0.252,1.68 -0.256,1.974 -0.311,2.264 -0.342,2.425 -0.373,2.581 -0.385,2.745 -0.395,2.885 -0.446,3.012 -0.464,3.152 -0.503,3.435 -0.493,3.726 -0.535,4.011 -0.554,4.141 -0.59,4.267 -0.6,4.398 -0.613,4.554 -0.61,4.735 -0.653,4.887 -0.728,5.155 -0.773,5.44 -0.856,5.705 -0.913,5.885 -0.95,6.077 -1.029,6.247 -1.08,6.161 -1.082,6.057 -1.094,5.959 -1.124,5.717 -1.103,5.476 -1.118,5.233 -1.133,5.003 -1.158,4.786 -1.158,4.555 -1.157,4.365 -1.148,4.175 -1.178,3.986 -1.242,3.577 -1.319,3.154 -1.33,2.74 -1.336,2.555 -1.372,2.374 -1.374,2.189 -1.376,1.997 -1.371,1.831 -1.415,1.64 -1.477,1.369 -1.461,1.086 -1.501,0.811 -1.512,0.735 -1.531,0.667 -1.543,0.591 -1.555,0.511 -1.599,0.46 -1.621,0.386 -1.659,0.256 -1.66,0.121 -1.715,0.002 c -0.058,-0.125 -0.009,-0.263 -0.068,-0.383 0.127,0.083 0.16,0.246 0.235,0.376 0.083,0.142 0.228,0.508 0.432,0.521 0.168,0.012 0.254,-0.223 0.364,-0.323 0.043,-0.038 0.1,-0.066 0.139,-0.108 0.081,-0.087 0.121,-0.216 0.181,-0.317 C -0.38,-0.319 -0.297,-0.448 0,0"
             style="fill:#100f0d;fill-opacity:1;fill-rule:nonzero;stroke:none"
             id="path52331" />
        </g>
        <g
           id="g52333"
           transform="translate(94.9746,101.321)">
          <path
             d="m 0,0 c 0.164,0.02 0.377,-0.062 0.528,-0.106 0.186,-0.054 0.355,-0.088 0.546,-0.118 0.15,-0.023 0.288,-0.082 0.437,-0.11 0.133,-0.026 0.273,-0.04 0.408,-0.051 0.14,-0.011 0.265,-0.052 0.403,-0.076 0.326,-0.058 0.655,-0.099 0.98,-0.161 0.266,-0.05 0.539,-0.134 0.808,-0.151 0.176,-0.011 0.313,-0.074 0.478,-0.118 0.128,-0.034 0.257,-0.071 0.384,-0.107 0.165,-0.046 0.399,0.005 0.549,-0.085 C 5.467,-1.154 5.214,-1.156 5.127,-1.167 4.873,-1.201 4.626,-1.279 4.374,-1.322 4.245,-1.344 4.114,-1.316 3.986,-1.338 3.875,-1.357 3.764,-1.383 3.654,-1.404 3.415,-1.45 3.177,-1.492 2.935,-1.523 2.715,-1.551 2.494,-1.568 2.274,-1.59 2.104,-1.607 1.939,-1.659 1.767,-1.672 1.658,-1.681 1.562,-1.714 1.451,-1.714 1.308,-1.713 1.16,-1.746 1.018,-1.768 0.877,-1.79 0.741,-1.841 0.597,-1.845 0.552,-1.846 0.399,-1.866 0.366,-1.842 c -0.144,0.106 0.32,0.553 0.356,0.602 0.058,0.08 0.105,0.149 0.168,0.222 0.065,0.077 0.022,0.117 -0.038,0.2 -0.155,0.212 -0.434,0.344 -0.649,0.484 -0.102,0.066 -0.184,0.161 -0.289,0.223 C -0.146,-0.076 -0.238,-0.064 0,0"
             style="fill:#100f0d;fill-opacity:1;fill-rule:nonzero;stroke:none"
             id="path52335" />
        </g>
        <g
           id="g52337"
           transform="translate(90.8581,95.0609)">
          <path
             d="m 0,0 c 0.012,-0.092 0.041,-0.163 0.044,-0.258 0.005,-0.167 -0.001,-0.337 -0.001,-0.504 0,-0.572 0.012,-1.141 -0.032,-1.711 -0.026,-0.326 -0.071,-0.647 -0.128,-0.969 -0.049,-0.277 -0.162,-0.535 -0.213,-0.812 -0.024,-0.129 -0.073,-0.221 -0.132,-0.335 -0.065,-0.125 -0.084,-0.254 -0.136,-0.383 -0.081,-0.199 -0.21,-0.368 -0.295,-0.563 -0.048,-0.11 -0.104,-0.228 -0.149,-0.342 -0.034,-0.088 -0.088,-0.191 -0.073,-0.288 0,0.113 -0.001,0.225 10e-4,0.338 0.003,0.243 -0.061,0.473 -0.086,0.713 -0.022,0.201 -0.103,0.383 -0.142,0.581 -0.043,0.215 -0.047,0.425 -0.113,0.638 -0.083,0.267 -0.162,0.533 -0.239,0.803 -0.061,0.212 -0.18,0.384 -0.259,0.587 -0.146,0.379 -0.235,0.78 -0.352,1.167 -0.068,0.227 -0.103,0.5 -0.097,0.738 0.004,0.169 0.064,0.236 0.156,0.362 0.052,0.073 0.074,0.18 0.166,0.127 0.068,-0.039 0.117,-0.165 0.16,-0.231 0.07,-0.109 0.19,-0.191 0.24,-0.312 0.044,-0.104 0.073,-0.181 0.145,-0.274 0.101,0.038 0.163,0.084 0.246,0.155 0.107,0.093 0.221,0.124 0.341,0.192 0.14,0.08 0.265,0.184 0.407,0.264 C -0.475,-0.28 -0.342,-0.175 0,0"
             style="fill:#100f0d;fill-opacity:1;fill-rule:nonzero;stroke:none"
             id="path52339" />
        </g>
        <g
           id="g52341"
           transform="translate(84.5547,101.836)">
          <path
             d="M 0,0 C 0.013,-0.117 -0.312,-0.144 -0.389,-0.17 -0.658,-0.262 -0.984,-0.297 -1.265,-0.333 -1.615,-0.379 -1.966,-0.417 -2.317,-0.461 -2.546,-0.49 -2.774,-0.543 -3.004,-0.559 -3.149,-0.568 -3.291,-0.585 -3.431,-0.626 -3.739,-0.715 -4.048,-0.812 -4.365,-0.869 -4.534,-0.9 -4.687,-0.96 -4.851,-0.997 c -0.182,-0.041 -0.368,-0.049 -0.55,-0.084 -0.186,-0.036 -0.404,-0.089 -0.594,-0.074 0.217,-0.08 0.47,-0.075 0.699,-0.099 0.32,-0.034 0.637,-0.082 0.956,-0.126 0.376,-0.051 0.708,-0.225 1.08,-0.283 0.38,-0.058 0.759,-0.111 1.14,-0.161 0.229,-0.03 0.456,0.001 0.684,-0.023 0.157,-0.018 0.291,-0.04 0.45,-0.04 0.192,0 0.384,0 0.577,0 0.083,0 0.191,-0.016 0.27,0.007 -0.136,0.153 -0.369,0.227 -0.527,0.354 -0.071,0.057 -0.142,0.116 -0.214,0.171 -0.054,0.043 -0.136,0.05 -0.077,0.125 0.032,0.039 0.126,0.064 0.171,0.091 0.113,0.067 0.248,0.117 0.348,0.205 0.112,0.1 0.24,0.175 0.353,0.272 C -0.046,-0.627 -0.01,-0.568 0,0"
             style="fill:#100f0d;fill-opacity:1;fill-rule:nonzero;stroke:none"
             id="path52343" />
        </g>
        <g
           id="g52345"
           transform="translate(82.1105,102.179)">
          <path
             d="M 0,0 C 0,0.107 0.009,0.18 0.033,0.282 0.089,0.518 0.032,0.787 0.041,1.028 0.061,1.574 0.25,2.112 0.259,2.659 0.26,2.715 0.294,2.967 0.256,3.021 0.206,3.091 0.138,3.022 0.087,2.991 -0.098,2.877 -0.262,2.687 -0.336,2.476 -0.356,2.417 -0.357,2.346 -0.374,2.284 -0.396,2.208 -0.42,2.143 -0.429,2.062 -0.446,1.9 -0.5,1.749 -0.515,1.59 -0.532,1.39 -0.584,1.177 -0.634,0.986 -0.656,0.901 -0.626,0.813 -0.641,0.728 -0.648,0.685 -0.679,0.66 -0.688,0.614 -0.7,0.557 -0.681,0.486 -0.685,0.427 -0.693,0.315 -0.718,0.185 -0.738,0.073 -0.753,-0.011 -0.779,-0.093 -0.81,-0.163 c 0.113,-0.035 0.269,-0.009 0.387,-0.009 0.141,0 0.282,0 0.423,0.172"
             style="fill:#100f0d;fill-opacity:1;fill-rule:nonzero;stroke:none"
             id="path52347" />
        </g>
        <g
           id="g52349"
           transform="translate(82.1963,99.3489)">
          <path
             d="m 0,0 c -0.217,0.038 -0.129,-0.432 -0.129,-0.549 0,-0.369 0.023,-0.752 0.129,-1.11 0.054,-0.183 0.122,-0.379 0.214,-0.546 0.039,-0.068 0.082,-0.151 0.129,-0.214 0.034,-0.047 0.097,-0.072 0.089,-0.14 -0.061,0.119 -0.142,0.21 -0.219,0.32 -0.051,0.073 -0.102,0.12 -0.163,0.182 -0.05,0.051 -0.051,0.1 -0.088,0.158 -0.054,0.082 -0.124,0.137 -0.168,0.228 -0.033,0.069 -0.067,0.135 -0.105,0.202 -0.091,0.161 -0.187,0.341 -0.227,0.523 -0.038,0.18 -0.071,0.376 -0.1,0.559 -0.025,0.151 -0.029,0.298 -0.046,0.448 -0.014,0.12 -0.093,0.162 0.061,0.198 C -0.47,0.294 -0.286,0.304 0,0"
             style="fill:#100f0d;fill-opacity:1;fill-rule:nonzero;stroke:none"
             id="path52351" />
        </g>
        <g
           id="g52353"
           transform="translate(91.6299,92.7453)">
          <path
             d="M 0,0 C 0.198,0.002 0.343,0.101 0.531,0.174 0.761,0.262 0.999,0.393 1.199,0.536 1.316,0.62 1.413,0.701 1.54,0.772 1.647,0.832 1.716,0.901 1.801,0.986 1.869,1.055 1.942,1.118 1.995,1.199 2.037,1.263 2.053,1.344 2.103,1.401 2.108,1.33 2.081,1.274 2.069,1.206 2.04,1.053 2.036,0.926 1.972,0.78 1.884,0.579 1.783,0.455 1.628,0.299 1.47,0.14 1.288,0.019 1.113,-0.119 0.994,-0.212 0.858,-0.273 0.733,-0.36 0.634,-0.428 0.482,-0.504 0.363,-0.517 0.308,-0.522 0.248,-0.512 0.192,-0.514 0.144,-0.516 0.092,-0.555 0.059,-0.555 -0.116,-0.555 -0.043,-0.084 0,0"
             style="fill:#100f0d;fill-opacity:1;fill-rule:nonzero;stroke:none"
             id="path52355" />
        </g>
        <g
           id="g52357"
           transform="translate(88.2424,92.7882)">
          <path
             d="m 0,0 c -0.48,0 -0.947,-0.028 -1.415,0.086 -0.227,0.055 -0.463,0.077 -0.677,0.17 -0.154,0.067 -0.275,0.151 -0.409,0.246 -0.076,-0.074 0.016,-0.184 0.053,-0.258 0.051,-0.105 0.093,-0.236 0.178,-0.317 0.03,-0.029 0.072,-0.047 0.104,-0.076 0.265,-0.243 0.627,-0.324 0.968,-0.419 0.271,-0.076 0.551,-0.096 0.823,-0.171 0.077,-0.021 0.208,-0.131 0.249,-0.036 0.031,0.07 -0.023,0.178 0.005,0.253 C -0.109,-0.519 -0.098,-0.517 0,0"
             style="fill:#100f0d;fill-opacity:1;fill-rule:nonzero;stroke:none"
             id="path52359" />
        </g>
        <g
           id="g52361"
           transform="translate(96.9471,99.0487)">
          <path
             d="M 0,0 C 0,-0.116 -0.026,-0.21 -0.043,-0.323 -0.076,-0.55 -0.072,-0.785 -0.127,-1.009 -0.148,-1.096 -0.179,-1.17 -0.214,-1.251 -0.273,-1.385 -0.282,-1.502 -0.31,-1.643 c -0.021,-0.114 -0.079,-0.209 -0.109,-0.32 -0.022,-0.08 -0.034,-0.149 -0.082,-0.22 0.092,-0.043 0.173,0.074 0.229,0.13 0.15,0.152 0.284,0.318 0.441,0.464 0.152,0.142 0.244,0.273 0.303,0.473 0.063,0.216 0.194,0.376 0.277,0.579 0.017,0.041 0.017,0.067 0.023,0.108 0.006,0.043 0.029,0.09 0.034,0.13 C 0.815,-0.23 0.785,-0.175 0.742,-0.117 0.695,-0.054 0.63,-0.014 0.563,0 0.449,0.022 0.288,0.055 0,0"
             style="fill:#100f0d;fill-opacity:1;fill-rule:nonzero;stroke:none"
             id="path52363" />
        </g>
        <g
           id="g52365"
           transform="translate(97.1186,101.536)">
          <path
             d="m 0,0 c -0.012,0.002 -0.024,0.005 -0.036,0.007 -0.022,0.072 -0.005,0.161 -0.01,0.236 -0.017,0.228 -0.025,0.458 -0.043,0.685 -0.016,0.196 -0.079,0.38 -0.085,0.579 -0.007,0.241 0.001,0.484 0.003,0.725 0,0.083 0.011,0.172 -0.004,0.253 -0.008,0.043 -0.04,0.09 -0.042,0.132 -0.004,0.07 0.015,0.094 0.087,0.088 C -0.024,2.697 0.025,2.562 0.086,2.491 0.163,2.401 0.238,2.323 0.301,2.221 0.439,2.001 0.442,1.712 0.476,1.462 0.512,1.202 0.583,0.946 0.602,0.684 0.614,0.533 0.391,-0.245 0,0"
             style="fill:#100f0d;fill-opacity:1;fill-rule:nonzero;stroke:none"
             id="path52367" />
        </g>
        <g
           id="g52369"
           transform="translate(90.8581,108.054)">
          <path
             d="m 0,0 c 0.199,0 0.402,0.016 0.599,-0.01 0.17,-0.022 0.314,-0.035 0.471,-0.105 0.181,-0.081 0.344,-0.157 0.512,-0.264 0.183,-0.116 0.337,-0.271 0.52,-0.384 0.075,-0.046 0.291,-0.161 0.37,-0.132 -0.033,0.098 -0.102,0.19 -0.161,0.273 -0.143,0.201 -0.306,0.399 -0.51,0.54 C 1.626,0.039 1.451,0.147 1.249,0.214 1.063,0.276 0.865,0.304 0.682,0.37 0.559,0.414 0.441,0.421 0.317,0.46 0.242,0.483 0.19,0.525 0.107,0.517 -0.121,0.493 -0.115,0.119 0,0"
             style="fill:#100f0d;fill-opacity:1;fill-rule:nonzero;stroke:none"
             id="path52371" />
        </g>
        <g
           id="g52373"
           transform="translate(88.7999,108.697)">
          <path
             d="m 0,0 c 0.002,-0.09 -0.032,-0.144 -0.045,-0.23 -0.021,-0.143 0.038,-0.31 0.005,-0.45 -0.04,-0.168 -0.467,-0.149 -0.607,-0.183 -0.181,-0.044 -0.316,-0.123 -0.466,-0.23 -0.099,-0.07 -0.192,-0.13 -0.279,-0.215 -0.073,-0.07 -0.176,-0.106 -0.243,-0.178 0.033,0.069 0.098,0.114 0.144,0.174 0.076,0.099 0.142,0.215 0.203,0.324 0.1,0.177 0.255,0.339 0.397,0.484 0.145,0.148 0.274,0.283 0.454,0.387 0.064,0.037 0.112,0.092 0.173,0.128 C -0.165,0.067 -0.046,0.044 0,0"
             style="fill:#100f0d;fill-opacity:1;fill-rule:nonzero;stroke:none"
             id="path52375" />
        </g>
        <g
           id="g52377"
           transform="translate(92.8306,100.935)">
          <path
             d="m 0,0 c 0.028,-0.093 -0.077,-0.107 -0.132,-0.152 -0.05,-0.04 -0.085,-0.101 -0.136,-0.141 -0.052,-0.04 -0.108,-0.054 -0.161,-0.091 -0.104,-0.071 -0.172,-0.134 -0.292,-0.185 -0.106,-0.045 -0.177,-0.065 -0.291,-0.073 -0.141,-0.01 -0.265,-0.045 -0.411,-0.044 -0.181,0.001 -0.365,-0.023 -0.538,0.041 -0.19,0.07 -0.368,0.111 -0.544,0.215 -0.189,0.111 -0.39,0.158 -0.582,0.257 -0.244,0.126 -0.454,0.264 -0.729,0.298 -0.151,0.019 -0.317,0.014 -0.463,-0.028 -0.137,-0.039 -0.263,-0.103 -0.404,-0.129 -0.345,-0.066 -0.591,-0.224 -0.838,-0.472 -0.227,-0.229 -0.465,-0.461 -0.638,-0.736 0.247,0.165 0.553,0.305 0.84,0.392 0.1,0.03 0.187,0.092 0.292,0.112 0.101,0.019 0.209,0.026 0.311,0.04 0.158,0.023 0.321,0.01 0.481,0.01 0.156,0 0.312,0 0.469,0.001 0.193,0.002 0.383,-0.047 0.57,-0.092 0.164,-0.04 0.321,-0.119 0.488,-0.158 0.137,-0.032 0.228,-0.089 0.349,-0.138 0.245,-0.101 0.512,-0.172 0.776,-0.17 0.182,0.001 0.488,-0.064 0.64,0.041 0.149,0.104 0.21,0.301 0.331,0.441 0.075,0.086 0.151,0.178 0.227,0.258 C -0.339,-0.455 -0.271,-0.312 0,0"
             style="fill:#100f0d;fill-opacity:1;fill-rule:nonzero;stroke:none"
             id="path52379" />
        </g>
        <g
           id="g52381"
           transform="translate(90.5151,110.369)">
          <path
             d="m 0,0 c 0.122,0.021 0.241,0.066 0.362,0.09 0.22,0.043 0.372,0.042 0.591,-0.015 0.129,-0.033 0.251,-0.066 0.373,-0.118 0.089,-0.037 0.156,-0.098 0.237,-0.15 0.158,-0.102 0.351,-0.174 0.518,-0.254 0.056,-0.027 0.114,-0.029 0.174,-0.05 0.154,-0.053 0.29,-0.038 0.447,-0.07 0.261,-0.052 0.528,-0.031 0.795,-0.034 0.196,-0.001 0.353,0.065 0.535,0.129 0.082,0.03 0.143,0.075 0.213,0.129 0.046,0.035 0.206,0.11 0.209,0.165 C 4.41,-0.191 4.386,-0.209 4.335,-0.215 4.23,-0.229 4.132,-0.213 4.027,-0.236 3.817,-0.281 3.592,-0.259 3.386,-0.215 3.161,-0.168 2.915,-0.071 2.703,0.017 2.622,0.05 2.551,0.083 2.466,0.105 2.282,0.152 2.12,0.251 1.935,0.293 1.773,0.329 1.614,0.379 1.459,0.419 1.323,0.455 1.149,0.429 1.007,0.429 0.835,0.429 0.693,0.425 0.526,0.375 0.327,0.316 0.124,0.246 -0.078,0.206 -0.081,0.195 -0.083,0.183 0,0"
             style="fill:#100f0d;fill-opacity:1;fill-rule:nonzero;stroke:none"
             id="path52383" />
        </g>
        <g
           id="g52385"
           transform="translate(88.7141,110.455)">
          <path
             d="M 0,0 C -0.086,0.043 -0.168,0.085 -0.257,0.107 -0.357,0.132 -0.493,0.167 -0.6,0.173 -0.722,0.179 -0.846,0.172 -0.968,0.172 -1.073,0.172 -1.18,0.178 -1.285,0.168 -1.442,0.153 -1.591,0.1 -1.748,0.086 -2.006,0.062 -2.255,-0.038 -2.495,-0.129 c -0.404,-0.152 -0.847,-0.259 -1.273,-0.304 -0.196,-0.02 -0.378,-0.086 -0.577,-0.082 -0.097,0.001 -0.197,-0.008 -0.293,-0.002 -0.162,0.011 -0.324,0.064 -0.469,0.131 -0.069,0.032 -0.192,0.063 -0.235,0.134 0.081,-0.109 0.176,-0.166 0.282,-0.239 0.116,-0.08 0.248,-0.132 0.379,-0.185 0.114,-0.047 0.223,-0.108 0.347,-0.129 0.585,-0.099 1.25,-0.096 1.833,0.021 0.159,0.032 0.314,0.09 0.457,0.15 0.268,0.111 0.54,0.215 0.796,0.357 0.127,0.07 0.269,0.096 0.41,0.128 0.076,0.018 0.153,0.011 0.227,0.03 0.083,0.021 0.133,0.045 0.224,0.024 C -0.315,-0.112 -0.176,-0.112 0,0"
             style="fill:#100f0d;fill-opacity:1;fill-rule:nonzero;stroke:none"
             id="path52387" />
        </g>
        <g
           id="g52389"
           transform="translate(98.8767,99.0487)">
          <path
             d="m 0,0 c 0.1,-0.199 0.085,-0.416 0.086,-0.645 0.001,-0.35 -0.052,-0.647 -0.246,-0.941 -0.122,-0.187 -0.301,-0.348 -0.376,-0.558 -0.056,-0.155 -0.122,-0.299 -0.152,-0.46 -0.033,-0.172 0.029,-0.326 0.077,-0.483 0.052,-0.172 0.171,-0.312 0.214,-0.482 0.053,-0.207 0.12,-0.423 0.142,-0.634 0.014,-0.135 0.039,-0.253 0.009,-0.386 -0.035,-0.161 -0.054,-0.32 -0.124,-0.472 0.054,0.035 0.078,0.084 0.108,0.141 0.108,0.207 0.219,0.399 0.275,0.627 0.036,0.144 0.039,0.296 0.063,0.445 0.024,0.149 0.014,0.292 -0.02,0.437 -0.103,0.433 -0.403,0.852 -0.185,1.289 0.097,0.195 0.237,0.358 0.311,0.567 0.081,0.226 0.179,0.458 0.206,0.7 0.008,0.069 -0.007,0.142 -0.003,0.212 0.005,0.089 0.043,0.128 0.012,0.215 C 0.351,-0.294 0.28,-0.191 0,0"
             style="fill:#100f0d;fill-opacity:1;fill-rule:nonzero;stroke:none"
             id="path52391" />
        </g>
        <g
           id="g52393"
           transform="translate(98.5765,101.579)">
          <path
             d="M 0,0 C 0.026,0.193 0.119,0.387 0.171,0.577 0.235,0.81 0.299,1.053 0.301,1.294 0.302,1.451 0.285,1.589 0.214,1.733 0.172,1.818 0.108,1.887 0.064,1.973 0.019,2.062 -0.041,2.13 -0.088,2.216 -0.14,2.312 -0.147,2.423 -0.193,2.522 -0.29,2.735 -0.329,2.943 -0.376,3.171 c -0.054,0.261 0.062,0.487 0.161,0.72 0.062,0.145 0.12,0.289 0.183,0.43 0.024,0.054 0.084,0.17 0.152,0.177 C 0.157,4.369 0.128,4.21 0.15,4.076 0.173,3.933 0.172,3.797 0.204,3.657 0.246,3.472 0.303,3.309 0.402,3.152 0.487,3.015 0.595,2.904 0.633,2.744 0.669,2.598 0.686,2.473 0.686,2.316 V 1.844 C 0.686,1.66 0.712,1.458 0.678,1.278 0.657,1.171 0.608,1.071 0.58,0.966 0.541,0.815 0.449,0.691 0.383,0.552 0.343,0.468 0.305,0.381 0.257,0.299 0.227,0.246 0.196,0.176 0.161,0.126 0.135,0.088 0.096,0.092 0,0"
             style="fill:#100f0d;fill-opacity:1;fill-rule:nonzero;stroke:none"
             id="path52395" />
        </g>
        <g
           id="g52397"
           transform="translate(78.8088,101.879)">
          <path
             d="M 0,0 C 0.271,-0.036 0.384,0.322 0.473,0.516 0.658,0.921 0.655,1.311 0.597,1.737 0.575,1.893 0.512,2.059 0.472,2.21 0.438,2.335 0.369,2.464 0.346,2.594 0.323,2.727 0.313,2.954 0.345,3.089 0.361,3.155 0.407,3.205 0.43,3.268 0.453,3.331 0.438,3.388 0.499,3.434 0.375,3.442 0.326,3.257 0.288,3.173 0.221,3.024 0.257,2.82 0.257,2.658 c 0,-0.071 0.001,-0.143 0,-0.214 C 0.256,2.36 0.289,2.308 0.302,2.23 0.315,2.154 0.314,2.09 0.333,2.015 0.353,1.94 0.343,1.858 0.343,1.78 0.343,1.629 0.368,1.454 0.339,1.308 0.311,1.164 0.269,0.996 0.214,0.858 0.155,0.706 0.13,0.544 0.091,0.386 0.061,0.265 0.052,0.163 0.038,0.038 0.027,-0.07 -0.06,-0.247 0,0"
             style="fill:#100f0d;fill-opacity:1;fill-rule:nonzero;stroke:none"
             id="path52399" />
        </g>
        <g
           id="g52401"
           transform="translate(79.4091,99.4346)">
          <path
             d="M 0,0 C 0.065,0.077 0.122,0.033 0.193,0 0.266,-0.034 0.35,-0.041 0.419,-0.083 0.546,-0.159 0.591,-0.291 0.644,-0.419 0.689,-0.526 0.745,-0.631 0.768,-0.746 0.852,-1.157 0.762,-1.57 0.611,-1.965 0.486,-2.293 0.43,-2.646 0.429,-3.002 c 0,-0.109 0.006,-0.177 0.032,-0.278 0.028,-0.106 0.068,-0.154 0.115,-0.254 0.034,-0.072 0.059,-0.127 0.102,-0.198 0.019,-0.031 0.057,-0.121 0.052,-0.156 -0.005,0.144 -0.055,0.243 -0.097,0.382 -0.023,0.074 -0.045,0.151 -0.064,0.227 -0.03,0.121 -0.073,0.147 -0.14,0.242 -0.097,0.137 -0.164,0.298 -0.267,0.431 -0.096,0.124 -0.194,0.237 -0.206,0.401 -0.015,0.198 -0.013,0.417 -0.002,0.616 0.011,0.199 0.129,0.406 0.188,0.595 0.073,0.242 0.216,0.716 0.077,0.941 C 0.232,-0.049 0.245,-0.046 0,0"
             style="fill:#100f0d;fill-opacity:1;fill-rule:nonzero;stroke:none"
             id="path52403" />
        </g>
        <g
           id="g52405"
           transform="translate(91.3727,89.8295)">
          <path
             d="M 0,0 C 0.15,0 0.313,-0.023 0.456,0.02 0.679,0.087 0.922,0.146 1.129,0.257 1.552,0.485 1.978,0.66 2.45,0.764 2.606,0.799 2.806,0.771 2.961,0.772 3.148,0.773 3.3,0.75 3.472,0.678 3.628,0.612 3.773,0.541 3.903,0.438 3.979,0.378 4.119,0.255 4.113,0.144 3.992,0.203 3.809,0.196 3.678,0.213 3.464,0.242 3.248,0.292 3.033,0.301 2.677,0.316 2.353,0.127 2.017,0.021 1.947,-0.001 1.87,-0.025 1.802,-0.052 1.691,-0.097 1.621,-0.113 1.504,-0.136 1.365,-0.163 1.256,-0.253 1.111,-0.26 1.043,-0.264 0.972,-0.257 0.904,-0.257 0.712,-0.257 0.523,-0.271 0.343,-0.224 0.236,-0.196 0.142,-0.178 0,0"
             style="fill:#100f0d;fill-opacity:1;fill-rule:nonzero;stroke:none"
             id="path52407" />
        </g>
        <g
           id="g52409"
           transform="translate(88.9714,90.1296)">
          <path
             d="m 0,0 c -0.084,0.082 -0.19,0.107 -0.291,0.138 -0.12,0.038 -0.213,0.077 -0.352,0.076 -0.054,0 -0.113,0.009 -0.166,0.004 C -0.919,0.207 -1.012,0.144 -1.119,0.125 -1.184,0.114 -1.226,0.121 -1.293,0.098 -1.408,0.06 -1.521,0.013 -1.64,-0.013 c -0.232,-0.049 -0.471,-0.03 -0.707,-0.03 -0.252,0 -0.495,0.011 -0.74,0.074 -0.204,0.052 -0.406,0.116 -0.592,0.215 -0.088,0.048 -0.229,0.105 -0.291,0.187 0.092,-0.117 0.283,-0.177 0.404,-0.261 0.159,-0.112 0.31,-0.239 0.456,-0.367 0.073,-0.064 0.158,-0.076 0.248,-0.104 0.098,-0.031 0.182,-0.085 0.285,-0.111 0.185,-0.045 0.377,-0.076 0.563,-0.107 0.084,-0.014 0.157,0.029 0.237,0.042 0.061,0.01 0.121,0 0.184,0.002 0.054,0.002 0.087,0.024 0.135,0.035 0.157,0.037 0.316,0.047 0.47,0.095 0.108,0.034 0.209,0.052 0.306,0.119 0.061,0.042 0.094,0.071 0.171,0.096 0.088,0.028 0.169,0.022 0.254,0.04 C -0.178,-0.071 -0.128,-0.041 0,0"
             style="fill:#100f0d;fill-opacity:1;fill-rule:nonzero;stroke:none"
             id="path52411" />
        </g>
      </g>
    </g>
  </g>
</svg>
