<?xml version="1.0" encoding="UTF-8" standalone="no"?>
<!-- Created with Inkscape (http://www.inkscape.org/) -->

<svg
   width="26.205181"
   height="24"
   viewBox="0 0 6.9334541 6.35"
   version="1.1"
   id="svg55372"
   inkscape:version="1.2.1 (9c6d41e4, 2022-07-14)"
   sodipodi:docname="merging-realities.svg"
   xmlns:inkscape="http://www.inkscape.org/namespaces/inkscape"
   xmlns:sodipodi="http://sodipodi.sourceforge.net/DTD/sodipodi-0.dtd"
   xmlns="http://www.w3.org/2000/svg"
   xmlns:svg="http://www.w3.org/2000/svg">
  <sodipodi:namedview
     id="namedview55374"
     pagecolor="#505050"
     bordercolor="#eeeeee"
     borderopacity="1"
     inkscape:showpageshadow="0"
     inkscape:pageopacity="0"
     inkscape:pagecheckerboard="0"
     inkscape:deskcolor="#505050"
     inkscape:document-units="mm"
     showgrid="false"
     inkscape:zoom="0.7046647"
     inkscape:cx="35.477866"
     inkscape:cy="189.45181"
     inkscape:window-width="1390"
     inkscape:window-height="941"
     inkscape:window-x="0"
     inkscape:window-y="25"
     inkscape:window-maximized="0"
     inkscape:current-layer="layer1" />
  <defs
     id="defs55369">
    <clipPath
       clipPathUnits="userSpaceOnUse"
       id="clipPath52419">
      <path
         d="m 319.75,444.219 h 24.7 v 24.699 h -24.7 z"
         id="path52417" />
    </clipPath>
  </defs>
  <g
     inkscape:label="Layer 1"
     inkscape:groupmode="layer"
     id="layer1"
     transform="translate(-95.757249,-98.732175)">
    <g
       id="g52413"
       transform="matrix(0.29692322,0,0,-0.29692322,0.54288029,237.54378)">
      <g
         id="g52415"
         clip-path="url(#clipPath52419)">
        <g
           id="g52421"
           transform="translate(326.108,456.433)">
          <path
             d="M 0,0 C -0.207,0.207 -0.425,0.627 -0.671,0.892 -0.464,0.579 -0.243,0.28 0,0"
             style="fill:#100f0d;fill-opacity:1;fill-rule:nonzero;stroke:none"
             id="path52423" />
        </g>
        <g
           id="g52425"
           transform="translate(324.444,458.371)">
          <path
             d="M 0,0 C -0.25,0.172 -0.405,0.083 -0.439,-0.273 -0.461,-0.326 -0.482,-0.38 -0.512,-0.434 -0.629,-0.649 -0.773,-0.868 -0.899,-1.057 -1.05,-1.283 -1.214,-1.51 -1.372,-1.729 -1.768,-2.276 -2.178,-2.842 -2.449,-3.489 -2.564,-3.764 -2.72,-4.019 -2.886,-4.29 -2.992,-4.463 -3.101,-4.642 -3.199,-4.825 -3.301,-5.018 -3.408,-5.201 -3.523,-5.394 l -0.251,-0.426 0.449,0.053 c 0.288,0.033 0.597,0.309 0.805,0.534 l 0.053,0.058 c 0.037,0.041 0.072,0.08 0.115,0.119 0.068,0.062 0.137,0.124 0.207,0.185 0.262,0.231 0.533,0.47 0.746,0.765 0.177,0.245 0.349,0.498 0.518,0.748 l 0.101,0.147 c 0.126,0.187 0.305,0.364 0.499,0.399 0.586,0.444 1.494,-0.077 2.011,0.167 C 1.362,-2.422 1.144,-1.711 0.76,-1.397 0.487,-0.947 0.242,-0.474 0,0"
             style="fill:#100f0d;fill-opacity:1;fill-rule:nonzero;stroke:none"
             id="path52427" />
        </g>
        <g
           id="g52429"
           transform="translate(327.34,457.902)">
          <path
             d="M 0,0 C 0.815,2.097 0.472,4.499 2.016,6.385 0.129,5.528 0.129,3.126 -1.352,1.686 -0.939,1.092 -0.477,0.568 0,0"
             style="fill:#100f0d;fill-opacity:1;fill-rule:nonzero;stroke:none"
             id="path52431" />
        </g>
        <g
           id="g52433"
           transform="translate(332.356,454.385)">
          <path
             d="M 0,0 C 0.087,0.125 0.087,0.297 0.258,0.468 -3.172,1.154 -6.431,3.213 -7.424,6.56 -7.592,6.664 -7.784,6.725 -7.992,6.786 -8.172,6.838 -8.347,6.834 -8.515,6.83 -8.638,6.827 -8.755,6.825 -8.858,6.846 L -8.927,6.861 C -9.143,6.908 -9.438,6.973 -9.665,6.819 L -9.799,6.728 -9.755,6.572 c 0.024,-0.084 0.072,-0.142 0.119,-0.198 0.051,-0.06 0.115,-0.135 0.193,-0.29 l 0.052,-0.105 0.117,-0.016 c 0.121,-0.017 0.261,-0.098 0.397,-0.175 0.07,-0.04 0.137,-0.078 0.203,-0.11 0.242,-0.117 0.465,-0.27 0.682,-0.49 0.875,-3.176 3.962,-5.406 7.3,-5.334 C -0.505,-0.142 -0.228,-0.099 0,0"
             style="fill:#100f0d;fill-opacity:1;fill-rule:nonzero;stroke:none"
             id="path52435" />
        </g>
        <g
           id="g52437"
           transform="translate(332.486,463.95)">
          <path
             d="M 0,0 C -0.613,0.141 -0.631,0.83 -1.083,1.061 -1.23,1.504 -1.792,1.92 -2.435,2.199 -2.708,2.317 -2.962,2.476 -3.232,2.645 -3.403,2.753 -3.581,2.864 -3.763,2.964 -3.953,3.067 -4.132,3.175 -4.322,3.291 L -4.751,3.55 -4.703,3.1 c 0.03,-0.288 0.302,-0.6 0.524,-0.811 L -4.122,2.236 C -4.08,2.198 -4.041,2.163 -4.003,2.12 -3.942,2.051 -3.881,1.981 -3.82,1.91 c 0.228,-0.265 0.463,-0.538 0.756,-0.754 0.277,-1.161 0.62,-2.19 0.963,-3.391 0.343,0.343 0.686,0.686 0.967,1.168 C -0.795,-0.684 -0.417,-0.325 0,0"
             style="fill:#100f0d;fill-opacity:1;fill-rule:nonzero;stroke:none"
             id="path52439" />
        </g>
        <g
           id="g52441"
           transform="translate(336.365,465.379)">
          <path
             d="M 0,0 -0.089,0.135 -0.246,0.093 C -0.331,0.07 -0.389,0.022 -0.445,-0.024 -0.506,-0.074 -0.582,-0.137 -0.738,-0.213 l -0.105,-0.051 -0.018,-0.117 c -3.232,-1.225 -7.177,-5.513 -4.604,-9.115 0.343,3.602 2.23,6.861 5.464,8.699 l 0.034,0.059 C 0.082,-0.523 0.151,-0.229 0,0"
             style="fill:#100f0d;fill-opacity:1;fill-rule:nonzero;stroke:none"
             id="path52443" />
        </g>
        <g
           id="g52445"
           transform="translate(338.659,460.053)">
          <path
             d="m 0,0 c -1.413,0.976 -3.128,2.177 -5.015,1.834 -0.171,0 -0.343,-0.343 -0.343,-0.515 1.372,-2.058 4.117,-0.343 5.821,-1.888 C 0.544,-0.407 0.178,-0.127 0,0"
             style="fill:#100f0d;fill-opacity:1;fill-rule:nonzero;stroke:none"
             id="path52447" />
        </g>
        <g
           id="g52449"
           transform="translate(343.572,461.01)">
          <path
             d="M 0,0 C -0.288,-0.034 -0.597,-0.309 -0.805,-0.534 L -0.858,-0.593 C -0.896,-0.634 -0.93,-0.673 -0.972,-0.711 -1.04,-0.773 -1.11,-0.835 -1.18,-0.896 -1.442,-1.127 -1.713,-1.366 -1.926,-1.661 -2.102,-1.905 -2.272,-2.157 -2.441,-2.405 l -0.103,-0.152 c -0.695,-0.341 -1.552,-0.169 -2.41,-0.512 0.686,-0.686 0.858,-1.887 1.715,-2.401 0.515,-0.172 0.515,0.514 0.813,0.76 0.151,0.226 0.315,0.452 0.473,0.671 0.396,0.548 0.806,1.114 1.077,1.761 0.115,0.274 0.272,0.53 0.438,0.801 0.105,0.173 0.215,0.351 0.312,0.535 0.101,0.191 0.208,0.373 0.321,0.564 l 0.254,0.431 z"
             style="fill:#100f0d;fill-opacity:1;fill-rule:nonzero;stroke:none"
             id="path52451" />
        </g>
        <g
           id="g52453"
           transform="translate(337.456,455.619)">
          <path
             d="m 0,0 c -0.039,-2.309 -1.068,-4.368 -2.097,-6.426 1.544,1.372 2.23,3.259 3.453,4.865 C 0.97,-0.909 0.51,-0.38 0,0"
             style="fill:#100f0d;fill-opacity:1;fill-rule:nonzero;stroke:none"
             id="path52455" />
        </g>
        <g
           id="g52457"
           transform="translate(342.09,452.656)">
          <path
             d="m 0,0 c -0.024,0.085 -0.073,0.142 -0.12,0.198 -0.051,0.06 -0.114,0.135 -0.192,0.29 L -0.365,0.593 -0.481,0.61 c -0.121,0.017 -0.262,0.097 -0.398,0.174 -0.069,0.04 -0.137,0.078 -0.202,0.11 -0.243,0.117 -0.465,0.271 -0.632,0.622 -0.901,3.254 -4.503,5.827 -7.934,4.97 2.745,-1.544 6.518,-2.402 7.192,-5.993 0.153,-0.382 0.364,-0.611 0.692,-0.707 0.18,-0.052 0.354,-0.048 0.523,-0.044 0.123,0.003 0.239,0.005 0.343,-0.016 l 0.069,-0.015 c 0.215,-0.047 0.51,-0.112 0.738,0.042 l 0.134,0.091 z"
             style="fill:#100f0d;fill-opacity:1;fill-rule:nonzero;stroke:none"
             id="path52459" />
        </g>
        <g
           id="g52461"
           transform="translate(336.909,446.564)">
          <path
             d="M 0,0 C -0.03,0.287 -0.302,0.6 -0.525,0.811 L -0.582,0.864 C -0.623,0.902 -0.662,0.938 -0.7,0.98 -0.762,1.049 -0.822,1.119 -0.883,1.19 -1.111,1.455 -1.347,1.728 -1.639,1.945 -1.884,2.126 -1.986,2.345 -2.038,2.573 -1.721,3.659 -2.75,4.345 -2.579,5.374 -3.436,4.688 -3.951,3.659 -4.98,3.316 -4.637,2.801 -4.122,2.458 -3.856,2.008 -3.473,1.596 -2.912,1.18 -2.268,0.902 -1.995,0.784 -1.741,0.624 -1.472,0.455 -1.301,0.348 -1.123,0.236 -0.94,0.137 c 0.185,-0.101 0.361,-0.208 0.547,-0.32 l 0.44,-0.267 z"
             style="fill:#100f0d;fill-opacity:1;fill-rule:nonzero;stroke:none"
             id="path52463" />
        </g>
        <g
           id="g52465"
           transform="translate(329.849,451.603)">
          <path
             d="M 0,0 C 1.05,-1.038 1.393,0.677 2.079,1.021 -0.151,1.192 -2.38,1.707 -4.439,2.736 -3.238,1.535 -1.694,0.677 -0.204,0.101 Z"
             style="fill:#100f0d;fill-opacity:1;fill-rule:nonzero;stroke:none"
             id="path52467" />
        </g>
        <g
           id="g52469"
           transform="translate(333.978,457.567)">
          <path
             d="m 0,0 c -0.334,-3.57 -2.564,-6.486 -5.65,-8.182 0.002,-0.123 0.003,-0.239 -0.019,-0.343 l -0.016,-0.068 c -0.049,-0.215 -0.118,-0.509 0.033,-0.738 l 0.09,-0.136 0.156,0.042 c 0.085,0.023 0.143,0.071 0.199,0.118 0.061,0.05 0.137,0.113 0.293,0.188 l 0.106,0.052 0.017,0.116 c 0.019,0.121 0.101,0.261 0.228,0.377 3.2,1.23 6.116,4.661 5.305,8.343 C 0.508,-0.108 0.255,-0.039 0,0"
             style="fill:#100f0d;fill-opacity:1;fill-rule:nonzero;stroke:none"
             id="path52471" />
        </g>
      </g>
    </g>
  </g>
</svg>
