<?xml version="1.0" encoding="UTF-8" standalone="no"?>
<!-- Created with Inkscape (http://www.inkscape.org/) -->

<svg
   width="13.14585"
   height="24"
   viewBox="0 0 3.4781728 6.35"
   version="1.1"
   id="svg55944"
   inkscape:version="1.2.1 (9c6d41e4, 2022-07-14)"
   sodipodi:docname="terror-of-the-vale.svg"
   xmlns:inkscape="http://www.inkscape.org/namespaces/inkscape"
   xmlns:sodipodi="http://sodipodi.sourceforge.net/DTD/sodipodi-0.dtd"
   xmlns="http://www.w3.org/2000/svg"
   xmlns:svg="http://www.w3.org/2000/svg">
  <sodipodi:namedview
     id="namedview55946"
     pagecolor="#505050"
     bordercolor="#eeeeee"
     borderopacity="1"
     inkscape:showpageshadow="0"
     inkscape:pageopacity="0"
     inkscape:pagecheckerboard="0"
     inkscape:deskcolor="#505050"
     inkscape:document-units="mm"
     showgrid="false"
     inkscape:zoom="0.7046647"
     inkscape:cx="-39.73521"
     inkscape:cy="210.73852"
     inkscape:window-width="1390"
     inkscape:window-height="941"
     inkscape:window-x="0"
     inkscape:window-y="25"
     inkscape:window-maximized="0"
     inkscape:current-layer="layer1" />
  <defs
     id="defs55941">
    <clipPath
       clipPathUnits="userSpaceOnUse"
       id="clipPath52635">
      <path
         d="m 319.75,325.475 h 24.7 v 24.699 h -24.7 z"
         id="path52633" />
    </clipPath>
  </defs>
  <g
     inkscape:label="Layer 1"
     inkscape:groupmode="layer"
     id="layer1"
     transform="translate(-115.51785,-93.210856)">
    <g
       id="g52629"
       transform="matrix(0.30590791,0,0,-0.30590791,15.644727,199.68464)">
      <g
         id="g52631"
         clip-path="url(#clipPath52635)">
        <g
           id="g52637"
           transform="translate(334.186,328.802)">
          <path
             d="M 0,0 C -0.099,0.039 -0.208,0.065 -0.304,0.115 -0.354,0.141 -0.434,0.224 -0.491,0.192 -0.507,0.183 -0.523,0.155 -0.539,0.142 -0.584,0.105 -0.648,0.07 -0.697,0.044 c -0.136,-0.073 -0.281,-0.117 -0.421,-0.173 -0.093,-0.036 -0.167,0 -0.256,0.042 -0.158,0.075 -0.3,0.144 -0.469,0.178 C -1.951,0.113 -2.058,0.136 -2.166,0.16 -2.221,0.171 -2.284,0.198 -2.339,0.192 -2.347,0.126 -2.386,0.103 -2.433,0.077 -2.551,0.012 -2.69,-0.015 -2.816,-0.053 -2.941,-0.093 -3.065,-0.137 -3.19,-0.175 -3.315,-0.214 -3.438,-0.234 -3.567,-0.236 -3.602,-0.237 -3.708,-0.218 -3.74,-0.243 -3.771,-0.267 -3.764,-0.28 -3.741,-0.311 c 0.055,-0.076 0.161,-0.127 0.229,-0.176 0.171,-0.125 0.333,-0.266 0.502,-0.396 0.118,-0.091 0.237,-0.181 0.327,-0.312 0.036,-0.053 0.066,-0.111 0.129,-0.122 0.002,0.007 0.004,0.014 -0.004,-0.178 0.073,-0.012 0.091,-0.007 0.175,0.01 0.235,0.049 0.476,0.057 0.712,0.092 0.172,0.024 0.34,0.07 0.511,0.098 0.047,0.006 0.094,0.013 0.141,0.02 0.02,10e-4 0.04,0.002 0.061,0.003 0.013,0.009 0.007,0.028 0.019,0.037 0.017,0.012 0.035,0.023 0.053,0.035 0.031,0.021 0.052,0.05 0.077,0.079 0.083,0.097 0.181,0.174 0.28,0.247 0.203,0.151 0.42,0.263 0.614,0.432 0.133,0.115 0.284,0.202 0.419,0.311 C 0.426,-0.119 0.349,-0.099 0.271,-0.084 0.177,-0.065 0.09,-0.035 0,0"
             style="fill:#231f20;fill-opacity:1;fill-rule:nonzero;stroke:none"
             id="path52639" />
        </g>
        <g
           id="g52641"
           transform="translate(329.63,344.4)">
          <path
             d="M 0,0 C 0.004,0.038 0.019,0.044 0.03,0.078 0.052,0.144 0.063,0.218 0.084,0.285 0.09,0.303 0.118,0.364 0.1,0.382 0.073,0.409 0.063,0.371 0.044,0.361 -0.004,0.339 -0.06,0.36 -0.109,0.342 -0.115,0.384 -0.083,0.438 -0.134,0.445 -0.176,0.451 -0.183,0.373 -0.195,0.332 -0.2,0.313 -0.205,0.28 -0.213,0.247 -0.287,0.272 -0.362,0.296 -0.437,0.281 -0.436,0.252 -0.399,0.213 -0.383,0.192 -0.342,0.139 -0.32,0.13 -0.267,0.108 -0.277,0.058 -0.349,0.056 -0.381,0.054 -0.419,0.052 -0.44,0.028 -0.47,0.021 -0.497,0.015 -0.526,0.036 -0.551,0.023 c -0.043,-0.02 -0.077,-0.076 -0.06,-0.119 0.018,-0.045 0.064,-0.056 0.089,-0.096 0.031,-0.047 0.056,-0.065 0.018,-0.105 -0.044,-0.049 -0.092,-0.013 -0.11,-0.09 -0.034,-0.14 0.142,-0.161 0.217,-0.134 0.007,-0.041 -0.012,-0.08 -0.01,-0.121 0.003,-0.039 0.01,-0.083 0.015,-0.121 0.003,-0.024 0.009,-0.074 0.027,-0.087 0.054,-0.036 0.062,0.034 0.072,0.068 0.014,0.048 0.094,0.222 0.144,0.229 0.025,0.003 0.052,-0.046 0.077,-0.059 0.015,-0.008 0.031,-0.004 0.047,-0.013 0.014,-0.009 0.02,-0.034 0.039,-0.042 0.022,0.047 0.017,0.133 0.023,0.187 0.003,0.028 0.014,0.067 0.005,0.095 -0.01,0.031 -0.048,0.038 -0.062,0.062 -0.041,0.069 0.024,0.101 0.054,0.143 0.016,0.022 0.015,0.048 0.03,0.072 0.01,0.016 0.036,0.032 0.051,0.043 C 0.063,-0.061 -0.008,-0.076 0,0"
             style="fill:#231f20;fill-opacity:1;fill-rule:nonzero;stroke:none"
             id="path52643" />
        </g>
        <g
           id="g52645"
           transform="translate(329.352,344.542)">
          <path
             d="M 0,0 C 0,0.004 0,0.008 0.032,0.02 0.023,0.009 0.013,0.001 0,0"
             style="fill:#231f20;fill-opacity:1;fill-rule:nonzero;stroke:none"
             id="path52647" />
        </g>
        <g
           id="g52649"
           transform="translate(331.004,346.586)">
          <path
             d="m 0,0 c -0.017,-0.146 0.036,-0.329 -0.064,-0.447 -0.056,-0.068 -0.121,-0.057 -0.193,-0.075 -0.028,-0.007 -0.098,-0.004 -0.118,-0.029 -0.004,-0.045 0.037,-0.097 0.05,-0.136 0.012,-0.032 0.017,-0.068 0.031,-0.099 0.025,-0.055 0.103,-0.114 0.068,-0.188 -0.025,-0.052 -0.169,-0.006 -0.216,0.003 -0.035,0.007 -0.052,0.017 -0.08,0.038 -0.022,0.015 -0.026,0.042 -0.058,0.031 -0.027,-0.108 0.121,-0.236 0.158,-0.324 0.018,-0.043 0.041,-0.127 0.026,-0.175 -0.014,-0.048 -0.051,-0.055 -0.092,-0.058 -0.059,-0.004 -0.115,0.017 -0.173,0.022 -0.028,0.003 -0.157,0.018 -0.182,-0.005 -0.07,-0.067 0.09,-0.195 0.12,-0.239 0.051,-0.074 0.112,-0.156 0.143,-0.243 0.038,-0.103 -0.034,-0.132 -0.107,-0.181 -0.033,-0.023 -0.083,-0.033 -0.075,-0.093 0.012,-0.027 0.03,-0.048 0.055,-0.061 0.029,-0.031 0.053,-0.068 0.072,-0.108 0.037,-0.057 0.079,-0.074 0.121,-0.12 0.022,-0.025 0.035,-0.06 0.058,-0.085 -0.056,-0.049 -0.212,0.007 -0.176,-0.143 0.017,-0.073 0.069,-0.077 0.113,-0.114 0.053,-0.044 0.096,-0.103 0.16,0.15 l 0.004,0.042 c -0.019,-0.182 -0.037,-0.364 -0.056,-0.545 -0.007,-0.074 0.004,-0.23 -0.044,-0.284 -0.021,-0.024 -0.052,-0.009 -0.071,-0.036 -0.014,-0.021 -0.015,-0.096 -0.012,-0.121 0.056,-0.015 0.054,-0.032 0.095,-0.082 0.04,-0.049 0.08,-0.089 0.132,-0.103 -0.013,10e-4 -0.025,10e-4 -0.037,-0.006 -0.014,-0.007 -0.023,-0.024 -0.032,-0.037 -0.019,-0.025 -0.041,-0.043 -0.059,-0.065 -0.037,-0.045 -0.082,-0.127 -0.041,-0.188 0.035,-0.053 0.098,-0.075 0.146,-0.101 0.043,-0.023 0.063,-0.072 0.097,-0.114 -0.037,0.018 -0.072,-0.062 -0.082,-0.093 -0.009,-0.027 -0.005,-0.055 -0.012,-0.081 -0.008,-0.028 -0.025,-0.046 -0.032,-0.076 -0.013,-0.061 0.027,-0.072 0.049,-0.119 0.017,-0.037 0.023,-0.066 0.05,-0.102 -0.058,0.001 -0.09,0.041 -0.121,0.093 -0.05,0.081 -0.108,0.156 -0.153,0.242 -0.035,0.067 -0.069,0.112 -0.115,0.17 -0.049,0.063 -0.069,0.125 -0.13,0.174 -0.05,0.04 -0.083,0.112 -0.128,0.162 -0.018,0.021 -0.032,0.045 -0.057,0.065 -0.01,0.007 -0.031,0.019 -0.039,0.028 -0.029,0.035 -0.056,0.068 -0.086,0.101 -0.031,0.032 -0.032,0.078 -0.06,0.112 -0.059,0.074 -0.153,0.124 -0.205,0.205 -0.011,0.017 -0.021,0.064 -0.034,0.077 -0.019,0.018 -0.056,0.011 -0.079,0.021 -0.033,0.014 -0.087,0.066 -0.121,0.063 -0.035,-0.002 -0.065,-0.068 -0.098,-0.083 -0.043,-0.02 -0.098,0.02 -0.143,0.016 -0.045,-0.003 -0.058,-0.021 -0.106,-0.006 -0.039,0.011 -0.075,0.042 -0.114,0.056 -0.029,0.01 -0.061,0.007 -0.087,0.022 -0.023,0.014 -0.027,0.052 -0.062,0.051 -0.006,-0.035 0.02,-0.079 0.029,-0.112 0.015,-0.054 0.02,-0.11 0.032,-0.164 0.014,-0.062 0.01,-0.139 -0.045,-0.184 -0.039,-0.033 -0.15,0.008 -0.202,0.015 -0.034,0.004 -0.049,0.009 -0.076,0.029 -0.025,0.018 -0.045,0.052 -0.07,0.064 -0.024,-0.068 0.002,-0.148 -0.005,-0.222 -0.003,-0.026 0.001,-0.07 -0.014,-0.092 -0.025,-0.036 -0.051,-0.01 -0.079,-0.024 -0.021,-0.011 -0.025,-0.034 -0.05,-0.039 -0.014,-0.003 -0.03,0.01 -0.044,0.008 -0.015,-0.002 -0.016,-0.015 -0.027,-0.017 -0.027,-0.005 -0.063,-10e-4 -0.09,0.01 -0.034,0.014 -0.055,0.051 -0.094,0.024 -0.047,-0.032 -0.019,-0.117 -0.053,-0.162 -0.012,-0.017 -0.033,-0.028 -0.047,-0.043 -0.019,-0.021 -0.031,-0.055 -0.053,-0.063 -0.019,-0.007 -0.065,0.011 -0.085,0.014 -0.049,0.007 -0.098,0.013 -0.148,0.02 -0.036,0.006 -0.088,0.031 -0.108,-0.008 -0.014,-0.027 -10e-4,-0.082 -0.009,-0.113 -0.01,-0.036 -0.025,-0.036 -0.045,-0.061 -0.014,-0.016 -0.017,-0.05 -0.032,-0.065 -0.045,-0.047 -0.112,0.009 -0.172,10e-4 -0.023,-0.003 -0.048,-0.046 -0.063,-0.004 -0.006,0.014 0.033,0.123 0.039,0.136 0.043,0.12 0.151,0.213 0.218,0.313 0.038,0.055 0.097,0.082 0.134,0.137 0.023,0.034 0.054,0.095 0.067,0.134 0.016,0.05 0.011,0.066 0.043,0.105 0.042,0.051 0.083,0.104 0.121,0.159 0.032,0.045 0.085,0.104 0.108,0.154 0.016,0.035 0.02,0.056 0.039,0.087 0.047,0.074 0.116,0.102 0.158,0.185 0.035,0.068 0.074,0.129 0.091,0.207 0.015,0.072 0.044,0.127 0.082,0.187 0.075,0.118 0.146,0.225 0.183,0.369 0.02,0.079 0.021,0.168 0.03,0.249 0.007,0.058 -0.006,0.107 -0.006,0.163 10e-4,0.078 0.032,0.158 0.02,0.236 -0.027,-0.009 -0.005,-0.024 -0.025,-0.049 -0.016,-0.02 -0.03,-0.014 -0.051,-0.02 -0.039,-0.01 -0.075,-0.021 -0.114,-0.002 -0.006,0.108 -0.038,0.222 -0.077,0.319 -0.023,0.056 -0.048,0.11 -0.052,0.173 -0.004,0.061 0.015,0.216 -0.029,0.252 -0.02,-0.049 0.001,-0.12 -0.055,-0.149 -0.042,-0.021 -0.05,0.004 -0.061,0.048 -0.027,0.111 0.007,0.229 -0.006,0.341 -0.007,0.058 -0.004,0.116 -0.009,0.171 -0.003,0.039 -0.024,0.066 -0.029,0.104 -0.005,0.037 0.006,0.071 0.005,0.107 0,0.042 -0.007,0.082 -0.006,0.124 0,0.091 -0.043,0.298 0.109,0.236 0.035,-0.015 0.031,-0.029 0.053,-0.06 0.019,-0.028 0.046,-0.053 0.061,-0.087 0.012,-0.027 0.027,-0.099 0.024,-0.127 -0.003,-0.035 -0.005,-0.035 -0.022,-0.063 0.055,-0.027 0.102,-0.063 0.156,-0.093 0.04,-0.023 0.082,-0.013 0.122,-0.037 0.058,-0.034 0.142,-0.087 0.181,-0.146 -0.012,-0.036 -0.08,-0.04 -0.076,-0.085 0.003,-0.038 0.106,-0.087 0.134,-0.106 0.082,-0.057 0.175,-0.078 0.253,-0.146 0.046,-0.041 0.165,-0.068 0.149,-0.145 -0.017,-0.019 -0.032,-0.04 -0.046,-0.063 -10e-4,-0.037 0.013,-0.065 0.042,-0.084 0.035,-0.036 0.066,-0.037 0.111,-0.045 0.055,-0.008 0.08,0.018 0.132,0.027 0.045,0.006 0.086,-0.013 0.13,-0.008 0.015,0.011 0.031,0.016 0.048,0.014 0.02,-0.003 0.04,-0.007 0.06,-0.012 0.031,0.01 0.031,0.04 0.047,0.075 0.025,0.055 0.058,0.114 0.087,0.166 0.024,0.041 0.027,0.053 0.067,0.058 0.035,-0.009 0.068,-0.004 0.101,0.013 0.035,0.024 0.068,0.05 0.1,0.079 0.038,0.027 0.061,0.045 0.092,0.079 0.023,0.026 0.042,0.055 0.07,0.077 0.021,0.016 0.043,0.029 0.066,0.04 0.019,0.015 0.031,0.037 0.035,0.064 0.028,0.041 0.059,0.059 0.091,0.093 0.045,0.046 0.077,0.095 0.126,0.134 0.039,0.031 0.07,0.045 0.098,0.094 0.024,0.042 0.039,0.075 0.071,0.111 0.049,0.054 0.056,0.114 0.082,0.183 0.022,0.056 0.074,0.208 0.125,0.23 C 0.036,0.336 0.006,0.049 0,0 m 4.841,-3.337 c -0.008,0.068 0.003,0.13 0.027,0.187 -0.693,0.688 -1.596,1.173 -2.385,1.781 -0.13,0.1 -0.193,0.234 -0.207,0.367 C 2.15,-0.982 2.022,-0.964 1.897,-0.985 1.833,-0.995 1.772,-1.015 1.709,-1.029 1.586,-1.056 1.464,-1.049 1.341,-1.069 1.19,-1.093 1.046,-1.178 0.9,-1.228 0.789,-1.267 0.702,-1.324 0.6,-1.386 0.537,-1.424 0.481,-1.433 0.415,-1.453 0.361,-1.468 0.313,-1.494 0.261,-1.513 0.186,-1.541 0.111,-1.524 0.04,-1.565 c 0.027,0.023 0.022,0.088 0.026,0.125 0.006,0.068 0.027,0.12 0.039,0.185 0.018,0.092 0.042,0.185 0.067,0.274 0.014,0.048 0.012,0.097 0.019,0.147 0.007,0.051 0.029,0.094 0.038,0.145 0.016,0.101 0.06,0.194 0.073,0.297 0.014,0.11 0.042,0.21 0.053,0.323 0.011,0.1 0.021,0.2 0.031,0.3 C 0.398,0.347 0.434,0.492 0.422,0.607 0.415,0.666 0.389,0.72 0.383,0.779 0.376,0.839 0.378,0.898 0.375,0.958 0.37,1.068 0.328,1.175 0.325,1.283 0.323,1.326 0.323,1.363 0.319,1.402 0.318,1.416 0.326,1.457 0.318,1.467 0.29,1.501 0.229,1.361 0.212,1.334 0.178,1.279 0.158,1.222 0.136,1.159 0.115,1.094 0.079,1.044 0.043,0.99 -0.039,0.866 -0.082,0.717 -0.161,0.59 -0.236,0.469 -0.259,0.34 -0.313,0.207 -0.358,0.096 -0.459,0.065 -0.532,-0.018 -0.574,-0.065 -0.602,-0.098 -0.656,-0.122 -0.718,-0.15 -0.744,-0.175 -0.795,-0.227 -0.871,-0.305 -0.948,-0.374 -1.03,-0.444 -1.108,-0.51 -1.195,-0.563 -1.272,-0.632 c -0.049,-0.043 -0.09,-0.105 -0.129,-0.159 -0.025,-0.033 -0.054,-0.098 -0.092,-0.104 0.008,0.052 -0.078,0.143 -0.106,0.183 -0.054,0.076 -0.155,0.109 -0.225,0.16 -0.111,0.082 -0.231,0.163 -0.326,0.268 -0.032,0.034 -0.071,0.058 -0.102,0.092 -0.027,0.031 -0.042,0.078 -0.065,0.114 -0.052,0.076 -0.112,0.145 -0.165,0.219 -0.076,0.104 -0.16,0.204 -0.232,0.311 C -2.727,0.47 -2.736,0.486 -2.746,0.506 -2.787,0.589 -2.829,0.649 -2.887,0.718 -2.926,0.764 -2.989,0.81 -3.023,0.857 -3.028,0.582 -3.085,0.304 -3.126,0.036 c -0.012,-0.08 -0.038,-0.15 -0.047,-0.232 -0.008,-0.083 -0.011,-0.161 -0.009,-0.244 0.003,-0.11 0.009,-0.221 0.041,-0.325 0.032,-0.104 0.084,-0.2 0.119,-0.303 0.052,-0.152 0.139,-0.284 0.185,-0.438 0.036,-0.119 0.048,-0.211 0.055,-0.334 0.007,-0.101 0.06,-0.2 0.099,-0.287 0.013,-0.028 0.029,-0.046 0.031,-0.079 0.002,-0.033 -0.009,-0.065 -0.006,-0.099 0.005,-0.064 0.006,-0.033 -0.029,-0.076 -0.023,-0.028 -0.044,-0.05 -0.07,-0.075 -0.073,-0.068 -0.114,-0.162 -0.165,-0.25 -0.049,-0.082 -0.107,-0.149 -0.172,-0.212 -0.054,-0.052 -0.09,-0.087 -0.134,-0.161 -0.058,-0.097 -0.113,-0.175 -0.177,-0.264 -0.052,-0.072 -0.108,-0.146 -0.15,-0.226 -0.027,-0.053 -0.043,-0.103 -0.083,-0.146 -0.049,-0.055 -0.101,-0.083 -0.14,-0.153 -0.032,-0.059 -0.049,-0.124 -0.09,-0.177 -0.04,-0.053 -0.089,-0.104 -0.141,-0.14 -0.064,-0.044 -0.126,-0.082 -0.183,-0.139 -0.059,-0.06 -0.097,-0.139 -0.153,-0.199 -0.021,-0.019 -0.043,-0.038 -0.065,-0.056 -0.019,-0.018 -0.034,-0.04 -0.043,-0.066 -0.027,-0.025 -0.031,-0.025 -0.07,-0.032 0.014,0.015 0.046,-0.063 0.062,-0.087 0.03,-0.046 0.062,-0.095 0.088,-0.145 0.022,-0.041 0.034,-0.106 0.07,-0.133 0.029,-0.022 0.089,-0.015 0.121,-0.019 0.057,-0.008 0.096,-0.009 0.154,0.002 0.151,0.027 0.294,0.091 0.442,0.134 0.163,0.047 0.326,0.09 0.487,0.148 0.14,0.051 0.243,0.146 0.369,0.228 0.144,0.094 0.303,0.142 0.442,0.243 0.118,0.086 0.279,0.166 0.373,0.284 0.089,0.11 0.207,0.259 0.349,0.188 0.053,-0.026 0.11,-0.106 0.153,-0.145 0.051,-0.046 0.097,-0.09 0.143,-0.142 0.055,-0.063 0.117,-0.12 0.165,-0.192 0.058,-0.088 0.099,-0.192 0.143,-0.29 0.09,-0.199 0.23,-0.361 0.366,-0.519 0.064,-0.074 0.127,-0.161 0.2,-0.221 0.052,-0.043 0.115,-0.06 0.168,-0.102 0.066,-0.054 0.13,-0.141 0.188,-0.206 0.056,-0.062 0.107,-0.127 0.16,-0.192 0.049,-0.059 0.107,-0.098 0.158,-0.152 0.035,-0.036 0.05,-0.103 0.093,-0.126 0.051,0.112 0.015,0.305 0.025,0.428 0.007,0.096 0.024,0.192 0.031,0.289 0.011,0.143 0.007,0.288 0.021,0.431 0.02,0.21 0.055,0.412 0.011,0.62 C 0.42,-4.169 0.332,-4.007 0.302,-3.819 0.288,-3.732 0.261,-3.65 0.253,-3.563 0.249,-3.517 0.236,-3.478 0.22,-3.44 0.249,-3.478 0.294,-3.503 0.328,-3.519 0.386,-3.545 0.469,-3.55 0.531,-3.554 0.622,-3.56 0.715,-3.561 0.806,-3.562 c 0.101,-0.002 0.199,0.039 0.3,0.03 0.096,-0.008 0.197,-0.035 0.289,-0.066 0.079,-0.028 0.14,-0.063 0.201,-0.13 0.061,-0.067 0.121,-0.117 0.185,-0.179 0.172,-0.166 0.298,-0.372 0.43,-0.579 0.047,-0.074 0.09,-0.153 0.141,-0.223 0.065,-0.089 0.13,-0.166 0.187,-0.265 C 2.631,-5.135 2.7,-5.313 2.693,-5.512 2.689,-5.637 2.686,-5.785 2.654,-5.904 2.634,-5.979 2.588,-6.005 2.543,-6.053 2.492,-6.107 2.453,-6.172 2.403,-6.227 2.308,-6.33 2.207,-6.417 2.117,-6.527 2.002,-6.667 1.881,-6.806 1.742,-6.915 1.628,-7.004 1.506,-7.072 1.385,-7.145 1.212,-7.25 1.057,-7.363 0.896,-7.491 c -0.65,-0.516 -1.285,-1.047 -1.882,-1.647 -0.151,-0.151 -0.29,-0.318 -0.426,-0.486 -0.085,-0.104 -0.158,-0.22 -0.243,-0.323 -0.092,-0.113 -0.2,-0.204 -0.294,-0.312 -0.134,-0.153 -0.26,-0.321 -0.382,-0.488 -0.16,-0.22 -0.332,-0.432 -0.485,-0.66 -0.12,-0.179 -0.223,-0.367 -0.33,-0.556 -0.14,-0.249 -0.285,-0.484 -0.405,-0.749 -0.197,-0.436 -0.356,-0.879 -0.505,-1.341 -0.067,-0.209 -0.089,-0.415 -0.111,-0.635 -0.029,-0.292 -0.066,-0.578 -0.106,-0.867 -0.036,-0.27 -0.06,-0.542 -0.088,-0.814 -0.006,-0.066 -0.012,-0.135 -0.017,-0.204 0.009,-0.043 0.016,-0.087 0.026,-0.128 0.614,-1.009 1.796,-1.592 3.024,-2.023 0.078,-0.004 0.157,-0.009 0.236,-0.015 0.078,-0.005 0.176,-0.03 0.25,0.012 0.053,0.031 0.035,0.038 0.001,0.071 -0.05,0.048 -0.103,0.073 -0.097,0.16 0.004,0.075 0.017,0.152 0.024,0.227 0.002,0.02 0.003,0.141 0.014,0.168 0.021,0.048 0.077,0.033 0.115,0.035 0.099,0.002 0.167,0.034 0.253,0.093 0.088,0.061 0.162,0.145 0.25,0.206 0.028,0.02 0.066,0.032 0.088,0.061 0.025,0.032 0.028,0.067 0.029,0.103 0.13,-0.002 0.262,0.001 0.353,0.109 0.093,0.11 0.132,0.264 0.211,0.385 0,0 0.001,0.001 0.001,0.002 -0.288,0.002 -0.576,0.006 -0.864,0.014 -1.032,0.029 -2.823,-0.134 -2.832,1.317 -0.005,0.89 0.322,1.636 0.718,2.365 -0.114,0.182 -0.134,0.447 0.012,0.634 0.255,0.328 0.527,0.644 0.812,0.95 0.04,0.066 0.081,0.133 0.121,0.197 0.08,0.128 0.182,0.197 0.288,0.224 0.11,0.108 0.221,0.217 0.335,0.321 0.346,0.319 0.733,0.614 1.019,0.986 -0.09,0.197 -0.041,0.455 0.18,0.613 1.222,0.876 2.657,1.37 3.902,2.208 0.015,0.009 0.029,0.014 0.043,0.022 0.481,0.629 0.767,1.422 1.091,2.156 -0.168,0.577 -0.309,1.159 -0.384,1.763"
             style="fill:#231f20;fill-opacity:1;fill-rule:nonzero;stroke:none"
             id="path52651" />
        </g>
        <g
           id="g52653"
           transform="translate(332.197,329.479)">
          <path
             d="m 0,0 c -0.004,-0.017 -0.007,-0.032 -0.006,-0.046 0.007,-0.085 0.122,0.021 0.162,0.029 0.207,0.039 0.399,-0.174 0.602,-0.156 0.051,0.005 0.087,0.013 0.137,0.003 0.066,-0.012 0.078,0.023 0.14,0.047 0.087,0.034 0.197,0.001 0.288,0.008 0.089,0.007 0.174,0.009 0.263,0.001 0.107,-0.01 0.201,0 0.306,0.023 0.051,0.011 0.113,0.044 0.165,0.038 0.124,-0.016 0.238,-0.174 0.33,-0.258 0.2,-0.185 0.347,-0.421 0.521,-0.636 0.085,-0.104 0.194,-0.142 0.306,-0.078 0.023,0.014 0.034,0.034 0.056,0.052 0.042,0.034 0.099,0.043 0.149,0.05 0.052,0.006 0.122,0.01 0.152,0.07 0.027,0.055 -0.005,0.056 0.054,0.091 0.105,0.062 0.267,0.019 0.379,0.016 0.102,-0.003 0.212,-0.002 0.312,0.031 0.147,0.049 0.208,0.161 0.3,0.293 0.105,0.149 0.216,0.262 0.362,0.351 0.164,0.099 0.331,0.188 0.489,0.3 C 5.528,0.273 5.591,0.321 5.654,0.372 3.778,0.147 1.895,0.016 0,0"
             style="fill:#231f20;fill-opacity:1;fill-rule:nonzero;stroke:none"
             id="path52655" />
        </g>
        <g
           id="g52657"
           transform="translate(331.179,343.259)">
          <path
             d="M 0,0 C -0.002,0.005 -0.001,0.009 -0.002,0.014 0.006,-0.005 0.013,-0.024 0.017,-0.044 0.011,-0.029 0.005,-0.015 0,0"
             style="fill:#231f20;fill-opacity:1;fill-rule:nonzero;stroke:none"
             id="path52659" />
        </g>
      </g>
    </g>
  </g>
</svg>
