<?xml version="1.0" encoding="UTF-8" standalone="no"?>
<!-- Created with Inkscape (http://www.inkscape.org/) -->

<svg
   width="40.424332"
   height="24"
   viewBox="0 0 10.695604 6.35"
   version="1.1"
   id="svg56510"
   inkscape:version="1.2.1 (9c6d41e4, 2022-07-14)"
   sodipodi:docname="weaver-of-the-cosmos.svg"
   xmlns:inkscape="http://www.inkscape.org/namespaces/inkscape"
   xmlns:sodipodi="http://sodipodi.sourceforge.net/DTD/sodipodi-0.dtd"
   xmlns="http://www.w3.org/2000/svg"
   xmlns:svg="http://www.w3.org/2000/svg">
  <sodipodi:namedview
     id="namedview56512"
     pagecolor="#505050"
     bordercolor="#eeeeee"
     borderopacity="1"
     inkscape:showpageshadow="0"
     inkscape:pageopacity="0"
     inkscape:pagecheckerboard="0"
     inkscape:deskcolor="#505050"
     inkscape:document-units="mm"
     showgrid="false"
     inkscape:zoom="0.7046647"
     inkscape:cx="28.382293"
     inkscape:cy="278.85603"
     inkscape:window-width="1390"
     inkscape:window-height="941"
     inkscape:window-x="0"
     inkscape:window-y="25"
     inkscape:window-maximized="0"
     inkscape:current-layer="layer1" />
  <defs
     id="defs56507">
    <clipPath
       clipPathUnits="userSpaceOnUse"
       id="clipPath52567">
      <path
         d="m 319.75,206.73 h 24.7 v 24.7 h -24.7 z"
         id="path52565" />
    </clipPath>
  </defs>
  <g
     inkscape:label="Layer 1"
     inkscape:groupmode="layer"
     id="layer1"
     transform="translate(-97.614511,-75.641299)">
    <g
       id="g52561"
       transform="matrix(0.45581096,0,0,-0.45581096,-48.395414,178.66825)">
      <g
         id="g52563"
         clip-path="url(#clipPath52567)">
        <g
           id="g52569"
           transform="translate(323.111,214.541)">
          <path
             d="M 0,0 C 0.009,0.006 0.02,0.01 0.03,0.014 -0.005,-0.012 -0.04,-0.04 -0.074,-0.068 -0.051,-0.044 -0.027,-0.018 0,0 M 0.277,0.366 C 0.348,0.505 0.437,0.632 0.515,0.768 0.569,0.863 0.611,0.965 0.662,1.061 0.739,1.208 0.826,1.35 0.904,1.497 0.925,1.536 0.946,1.576 0.967,1.615 0.949,1.576 0.931,1.536 0.913,1.497 0.819,1.293 0.731,1.086 0.628,0.886 0.591,0.813 0.538,0.733 0.509,0.655 0.503,0.639 0.496,0.628 0.497,0.611 0.502,0.618 0.51,0.622 0.519,0.623 0.584,0.555 0.62,0.653 0.661,0.724 0.709,0.806 0.748,0.891 0.782,0.98 0.821,1.08 0.843,1.195 0.906,1.285 0.953,1.353 1.004,1.416 1.044,1.489 1.084,1.563 1.121,1.641 1.168,1.712 1.259,1.849 1.348,1.986 1.436,2.125 1.508,2.236 1.557,2.359 1.622,2.472 1.616,2.449 1.61,2.425 1.604,2.402 1.541,2.181 1.462,1.965 1.402,1.743 1.344,1.528 1.294,1.312 1.224,1.101 1.168,0.926 1.091,0.76 1.023,0.591 0.935,0.551 0.847,0.511 0.759,0.472 0.536,0.372 0.338,0.231 0.138,0.092 0.138,0.091 0.138,0.091 0.137,0.091 0.146,0.114 0.15,0.139 0.166,0.17 0.2,0.237 0.243,0.298 0.277,0.366 M 2.618,4.241 C 2.68,4.354 2.724,4.477 2.781,4.593 2.823,4.679 2.87,4.761 2.915,4.845 2.969,4.73 3.023,4.614 3.08,4.5 3.258,4.142 3.442,3.791 3.639,3.443 3.649,3.369 3.661,3.295 3.675,3.221 3.626,3.157 3.578,3.092 3.533,3.025 3.436,2.878 3.349,2.726 3.248,2.582 3.085,2.35 2.917,2.125 2.764,1.886 2.696,1.779 2.634,1.67 2.573,1.56 2.525,1.475 2.468,1.394 2.434,1.303 2.427,1.286 2.423,1.269 2.421,1.252 2.314,1.206 2.21,1.152 2.103,1.106 1.95,1.04 1.799,0.969 1.65,0.895 c 0,0.103 0,0.203 0.018,0.308 0.027,0.158 0.042,0.317 0.071,0.476 0.034,0.187 0.045,0.38 0.07,0.569 0.03,0.227 0.062,0.455 0.087,0.683 0.008,0.013 0.015,0.026 0.022,0.038 0.084,0.143 0.162,0.292 0.236,0.439 0.09,0.178 0.164,0.368 0.273,0.535 0.065,0.098 0.134,0.194 0.191,0.298 M 1.652,6.06 C 1.591,6.299 1.552,6.542 1.488,6.781 1.39,7.148 1.227,7.489 1.083,7.839 1.021,7.988 0.959,8.139 0.901,8.29 0.848,8.428 0.784,8.557 0.75,8.702 0.743,8.731 0.737,8.761 0.73,8.791 0.778,8.765 0.826,8.738 0.876,8.712 1.02,8.635 1.148,8.534 1.293,8.458 1.457,8.371 1.627,8.298 1.786,8.201 1.957,8.098 2.135,8.014 2.316,7.93 2.405,7.888 2.494,7.847 2.583,7.806 2.602,7.735 2.626,7.665 2.641,7.593 2.66,7.505 2.648,7.42 2.657,7.332 2.681,7.097 2.807,6.857 2.879,6.635 2.931,6.476 3,6.317 3.044,6.156 2.931,6.094 2.819,6.039 2.686,6.044 2.624,6.046 2.58,6.069 2.529,6.094 2.522,6.103 2.514,6.111 2.508,6.12 2.498,6.133 2.451,6.209 2.422,6.208 2.401,6.207 2.395,6.19 2.395,6.166 2.324,6.211 2.261,6.265 2.216,6.342 2.162,6.435 2.081,6.513 2.034,6.61 1.973,6.735 1.916,6.864 1.85,6.987 1.684,7.295 1.501,7.602 1.376,7.929 1.317,8.084 1.251,8.219 1.167,8.361 1.141,8.406 1.107,8.5 1.062,8.537 1.064,8.508 1.056,8.471 1.062,8.444 1.074,8.388 1.12,8.336 1.144,8.284 1.232,8.086 1.3,7.882 1.366,7.675 1.41,7.536 1.455,7.395 1.495,7.255 1.534,7.116 1.555,6.973 1.586,6.832 1.626,6.655 1.68,6.484 1.71,6.304 1.739,6.127 1.732,5.945 1.729,5.766 1.704,5.864 1.677,5.961 1.652,6.06 M 3.693,7.339 C 3.822,7.286 3.946,7.226 4.07,7.164 4.038,7.121 4.009,7.071 3.997,7.053 3.934,6.963 3.853,6.885 3.773,6.81 3.721,6.761 3.676,6.712 3.62,6.666 3.578,6.632 3.524,6.601 3.485,6.564 3.458,6.538 3.439,6.505 3.411,6.48 3.353,6.426 3.302,6.37 3.239,6.321 3.192,6.285 3.162,6.239 3.118,6.203 3.099,6.269 3.083,6.335 3.081,6.414 3.075,6.586 3.066,6.756 3.028,6.925 2.986,7.112 2.921,7.293 2.885,7.482 2.872,7.55 2.867,7.618 2.848,7.683 2.893,7.663 2.937,7.642 2.982,7.621 3.213,7.515 3.457,7.435 3.693,7.339 M 13.158,6.647 C 13.102,6.519 13.041,6.392 12.993,6.26 12.953,6.147 12.927,6.031 12.885,5.918 12.82,5.74 12.744,5.564 12.671,5.389 c -0.002,0.192 -10e-4,0.384 0.033,0.572 0.02,0.109 0.06,0.213 0.1,0.316 0.037,0.098 0.066,0.197 0.102,0.294 0.023,0.06 0.062,0.106 0.09,0.16 0.009,0.019 0.026,0.035 0.019,0.06 0.005,0.023 0.008,0.041 0.011,0.06 0.029,0.009 0.058,0.016 0.087,0.025 0.048,0.016 0.097,0.032 0.146,0.047 C 13.233,6.829 13.198,6.737 13.158,6.647 m 0.64,-4.17 c 0.098,-0.14 0.205,-0.268 0.314,-0.401 0.197,-0.242 0.42,-0.456 0.65,-0.664 0.016,-0.05 0.034,-0.101 0.053,-0.147 0.003,-0.008 0.005,-0.016 0.009,-0.024 -0.009,0.005 -0.018,0.01 -0.027,0.015 -0.116,0.06 -0.225,0.131 -0.342,0.19 -0.101,0.052 -0.209,0.092 -0.311,0.145 -0.047,0.024 -0.094,0.045 -0.142,0.067 -0.029,0.043 -0.058,0.087 -0.081,0.133 -0.044,0.086 -0.077,0.178 -0.119,0.264 -0.105,0.213 -0.182,0.432 -0.288,0.644 -0.054,0.107 -0.099,0.219 -0.16,0.323 -0.011,0.019 -0.023,0.038 -0.036,0.058 0.017,-0.019 0.034,-0.038 0.05,-0.057 0.147,-0.177 0.298,-0.356 0.43,-0.546 m 1.393,-1.452 c 0.003,0 0.005,0 0.008,0 0.005,-0.004 0.01,-0.009 0.014,-0.014 z M 4.686,6.859 C 4.762,6.667 4.86,6.482 4.938,6.29 4.99,6.161 5.039,6.03 5.087,5.899 5.065,5.766 5.021,5.639 5.014,5.503 5.009,5.421 4.982,5.339 4.948,5.258 4.86,5.126 4.774,4.992 4.69,4.859 4.545,4.632 4.423,4.39 4.28,4.161 4.216,4.059 4.154,3.955 4.091,3.852 4.052,3.945 4.008,4.037 3.962,4.129 3.882,4.288 3.782,4.431 3.686,4.58 3.684,4.583 3.682,4.586 3.68,4.589 3.656,4.657 3.628,4.723 3.605,4.791 3.567,4.904 3.543,5.022 3.507,5.136 3.487,5.201 3.467,5.257 3.436,5.315 3.428,5.33 3.42,5.355 3.406,5.357 3.403,5.33 3.385,5.315 3.38,5.29 3.376,5.262 3.381,5.227 3.381,5.199 3.381,5.14 3.39,5.084 3.396,5.027 3.348,5.1 3.301,5.173 3.249,5.243 3.227,5.273 3.203,5.302 3.18,5.331 3.218,5.4 3.256,5.469 3.296,5.537 3.37,5.663 3.42,5.797 3.489,5.924 3.536,6.009 3.607,6.084 3.659,6.165 3.7,6.228 3.738,6.292 3.773,6.358 3.835,6.477 3.891,6.602 3.957,6.719 4.033,6.851 4.088,6.986 4.148,7.125 4.326,7.034 4.504,6.942 4.686,6.859 M 12.089,5.368 C 11.971,5.427 11.893,5.518 11.81,5.621 11.68,5.785 11.513,5.928 11.415,6.115 11.38,6.181 11.34,6.255 11.28,6.299 11.306,6.259 11.312,6.214 11.327,6.17 11.344,6.122 11.365,6.076 11.378,6.027 11.416,5.882 11.403,5.729 11.403,5.58 c 0,-0.194 0.032,-0.416 -0.04,-0.6 C 11.326,4.886 11.296,4.79 11.272,4.692 11.262,4.655 11.256,4.616 11.249,4.578 c -0.07,0.065 -0.142,0.13 -0.209,0.197 -0.178,0.18 -0.363,0.347 -0.564,0.5 -0.03,0.023 -0.059,0.047 -0.088,0.07 0.009,0.011 0.019,0.022 0.028,0.033 0.086,0.109 0.151,0.23 0.239,0.337 0.079,0.096 0.153,0.194 0.225,0.295 0.089,0.124 0.172,0.253 0.257,0.381 0.174,0.024 0.346,0.054 0.514,0.1 0.412,0.111 0.831,0.204 1.241,0.321 C 12.881,6.791 12.869,6.769 12.856,6.747 12.758,6.572 12.632,6.418 12.561,6.228 12.51,6.091 12.451,5.962 12.406,5.822 12.371,5.714 12.315,5.606 12.271,5.501 12.252,5.456 12.221,5.404 12.189,5.368 c -0.035,-0.039 -0.05,-0.025 -0.1,0 M 6.159,3.446 C 6.2,3.375 6.239,3.302 6.278,3.231 6.266,3.133 6.255,3.035 6.239,2.937 6.242,2.94 6.243,2.943 6.246,2.946 6.289,2.984 6.342,3.014 6.376,3.062 6.397,3.029 6.418,2.997 6.44,2.965 6.503,2.877 6.564,2.785 6.621,2.691 6.292,2.638 5.941,2.626 5.622,2.522 5.634,2.588 5.647,2.653 5.663,2.717 5.723,2.956 5.778,3.195 5.817,3.438 5.832,3.53 5.835,3.621 5.844,3.713 5.85,3.774 5.863,3.834 5.876,3.894 5.968,3.743 6.072,3.6 6.159,3.446 M 6.074,5.232 c -0.016,0.035 -0.033,0.069 -0.05,0.103 0.151,0.097 0.311,0.182 0.469,0.266 0.113,0.06 0.23,0.104 0.35,0.146 0.113,0.039 0.21,0.1 0.316,0.153 0.096,0.047 0.204,0.063 0.301,0.108 0.084,0.039 0.169,0.093 0.251,0.138 0.04,0.022 0.08,0.04 0.118,0.06 H 7.895 C 7.895,6.204 7.896,6.202 7.896,6.2 7.92,6.086 7.933,5.971 7.959,5.857 7.986,5.738 8.022,5.621 8.058,5.505 7.995,5.454 7.944,5.393 7.894,5.33 7.746,5.144 7.609,4.951 7.495,4.743 7.362,4.502 7.251,4.253 7.115,4.015 6.939,4.22 6.764,4.422 6.607,4.643 6.515,4.772 6.425,4.903 6.328,5.027 6.273,5.098 6.241,5.184 6.187,5.252 6.173,5.213 6.187,5.167 6.197,5.128 6.215,5.064 6.221,5.001 6.238,4.938 6.254,4.872 6.259,4.805 6.268,4.739 6.209,4.907 6.146,5.073 6.074,5.232 M 5.33,6.436 C 5.319,6.459 5.308,6.482 5.296,6.505 5.268,6.557 5.234,6.603 5.199,6.65 5.238,6.636 5.277,6.62 5.316,6.607 5.484,6.551 5.66,6.52 5.83,6.469 6.149,6.371 6.486,6.303 6.817,6.258 7.09,6.22 7.378,6.204 7.654,6.205 c 0.024,0.001 0.048,0 0.072,0 C 7.708,6.198 7.69,6.191 7.675,6.185 7.612,6.164 7.557,6.153 7.493,6.141 7.412,6.126 7.339,6.091 7.262,6.065 7.169,6.034 7.082,6.011 6.994,5.964 6.924,5.926 6.854,5.894 6.778,5.867 6.681,5.833 6.58,5.823 6.483,5.793 6.422,5.774 6.368,5.748 6.304,5.743 6.164,5.732 6.025,5.808 5.918,5.892 5.803,5.982 5.665,6.045 5.562,6.151 5.529,6.185 5.493,6.219 5.458,6.254 5.416,6.315 5.373,6.376 5.33,6.436 M 9.761,5.863 C 9.627,5.98 9.491,6.094 9.356,6.208 c 0.115,0.002 0.23,0.006 0.346,0.017 0.252,0.023 0.503,0.05 0.754,0.082 0.151,0.019 0.304,0.035 0.458,0.054 C 10.79,6.226 10.649,6.104 10.513,5.986 10.366,5.857 10.213,5.732 10.061,5.608 9.96,5.691 9.86,5.776 9.761,5.863 M 9.442,5.092 C 9.231,4.883 9.003,4.681 8.826,4.442 8.779,4.65 8.736,4.86 8.683,5.067 8.648,5.206 8.596,5.336 8.543,5.469 8.496,5.586 8.463,5.707 8.41,5.821 8.35,5.95 8.293,6.079 8.23,6.206 c 0.248,0 0.496,0 0.744,0 0.056,0 0.113,0 0.169,0 C 9.277,6.035 9.421,5.869 9.56,5.702 9.643,5.602 9.724,5.501 9.806,5.401 9.681,5.302 9.555,5.205 9.442,5.092 m 1.355,-0.82 C 10.867,4.203 10.934,4.13 11.001,4.058 10.976,4.019 10.949,3.981 10.916,3.945 10.74,3.757 10.602,3.514 10.485,3.286 10.426,3.172 10.397,3.047 10.352,2.928 10.342,2.9 10.307,2.844 10.311,2.814 10.317,2.772 10.328,2.78 10.37,2.779 c 0.091,-0.002 0.114,0.058 0.166,0.126 0.034,0.045 0.085,0.088 0.11,0.137 0.02,0.04 0.028,0.058 0.062,0.09 0.038,0.036 0.056,0.072 0.08,0.12 0.036,0.076 0.074,0.125 0.126,0.19 0.059,0.076 0.1,0.155 0.167,0.225 0.052,0.054 0.078,0.111 0.122,0.169 0.004,-0.003 0.009,-0.004 0.013,-0.007 -0.004,0.003 -0.007,0.007 -0.01,0.01 0.05,0.064 0.122,0.109 0.175,0.171 0.053,0.06 0.087,0.095 0.163,0.128 0.043,0.02 0.084,0.041 0.125,0.06 C 11.626,3.991 11.574,3.785 11.527,3.578 11.479,3.367 11.458,3.149 11.411,2.937 11.38,2.801 11.346,2.662 11.33,2.523 10.953,2.571 10.58,2.646 10.206,2.707 10.16,2.714 10.114,2.719 10.068,2.725 10.064,2.797 10.056,2.869 10.048,2.941 10.023,3.142 9.997,3.347 9.937,3.541 9.851,3.815 9.84,4.105 9.772,4.383 9.759,4.431 9.745,4.478 9.731,4.525 9.783,4.589 9.833,4.654 9.88,4.723 9.952,4.83 10.032,4.93 10.113,5.03 10.331,4.767 10.554,4.514 10.797,4.272 m 2.406,-1.63 c 0.042,-0.13 0.085,-0.257 0.114,-0.392 0.022,-0.104 0.039,-0.211 0.064,-0.316 -0.209,0.091 -0.427,0.158 -0.64,0.239 -0.271,0.103 -0.534,0.218 -0.823,0.264 -0.059,0.01 -0.118,0.021 -0.177,0.032 0.01,0.206 0.005,0.413 0.005,0.62 0,0.18 -0.011,0.364 0.01,0.543 0.023,0.199 0.013,0.403 0.011,0.603 0.038,0.012 0.077,0.02 0.12,0.017 0.088,-0.006 0.192,-0.018 0.263,-0.074 0.056,-0.046 0.13,-0.107 0.177,-0.163 0.021,-0.025 0.03,-0.054 0.047,-0.082 0.023,-0.035 0.047,-0.052 0.074,-0.081 0.042,-0.048 0.063,-0.109 0.103,-0.16 0.027,-0.034 0.058,-0.066 0.078,-0.106 0.019,-0.037 0.027,-0.081 0.048,-0.117 0.051,-0.092 0.12,-0.179 0.178,-0.267 0.042,-0.064 0.075,-0.132 0.12,-0.195 0.046,-0.066 0.094,-0.133 0.136,-0.201 0.031,-0.05 0.057,-0.099 0.087,-0.147 10e-4,-0.006 0.003,-0.011 0.005,-0.017 m -6.489,0.6 c 0,-0.003 -0.002,-0.006 -0.003,-0.008 0,0.002 -0.001,0.005 -0.002,0.008 z m 1.562,1.12 C 8.352,4.03 8.477,3.718 8.586,3.396 8.652,3.198 8.714,3.001 8.775,2.802 8.707,2.808 8.639,2.814 8.572,2.818 8.345,2.833 8.108,2.83 7.881,2.818 7.75,2.811 7.624,2.799 7.493,2.8 7.404,2.801 7.317,2.794 7.229,2.781 7.139,2.767 7.052,2.746 6.962,2.73 6.957,2.729 6.952,2.729 6.947,2.729 7.002,2.805 7.048,2.891 7.088,2.971 7.124,3.046 7.165,3.119 7.207,3.191 7.36,3.16 7.506,3.118 7.657,3.066 7.737,3.038 7.842,2.983 7.928,2.98 7.976,2.978 7.984,2.989 7.962,3.027 7.944,3.058 7.908,3.095 7.885,3.124 7.858,3.157 7.82,3.181 7.795,3.214 7.784,3.229 7.782,3.248 7.772,3.263 7.753,3.293 7.726,3.301 7.7,3.322 7.657,3.357 7.629,3.397 7.594,3.44 7.55,3.492 7.509,3.547 7.467,3.6 7.51,3.668 7.553,3.737 7.593,3.806 7.833,4.219 7.941,4.681 8.1,5.127 8.11,5.155 8.122,5.183 8.134,5.21 8.193,4.93 8.212,4.642 8.276,4.362 M 9.29,2.776 C 9.288,2.788 9.287,2.799 9.285,2.808 9.27,2.902 9.209,2.994 9.174,3.083 9.096,3.282 9.051,3.492 9.005,3.701 9.068,3.784 9.154,3.852 9.223,3.928 9.316,4.03 9.402,4.137 9.491,4.242 9.535,3.925 9.621,3.618 9.709,3.309 9.763,3.12 9.83,2.936 9.893,2.749 L 9.895,2.745 C 9.694,2.764 9.492,2.772 9.29,2.776 M 3.261,1.551 C 3.243,1.544 3.224,1.538 3.205,1.532 3.229,1.573 3.254,1.614 3.283,1.652 3.384,1.79 3.514,1.903 3.616,2.042 3.695,2.15 3.759,2.265 3.825,2.38 3.834,2.336 3.841,2.291 3.852,2.247 3.868,2.182 3.884,2.117 3.906,2.053 3.973,1.929 4.006,1.999 4.068,2.042 4.119,2.078 4.181,2.109 4.238,2.135 4.331,2.178 4.44,2.242 4.543,2.234 4.506,2.263 4.509,2.317 4.487,2.354 4.437,2.439 4.376,2.515 4.329,2.603 4.267,2.719 4.237,2.846 4.19,2.97 4.347,3.231 4.479,3.5 4.619,3.772 c 0.087,0.169 0.18,0.337 0.27,0.505 0.143,0.204 0.282,0.415 0.45,0.6 C 5.366,4.906 5.395,4.929 5.423,4.954 5.507,4.721 5.596,4.489 5.693,4.261 5.688,4.174 5.678,4.088 5.659,4.009 5.553,3.582 5.451,3.154 5.366,2.722 5.345,2.617 5.327,2.51 5.308,2.404 5.176,2.354 5.044,2.305 4.919,2.241 4.72,2.14 4.512,2.06 4.306,1.974 4.087,1.882 3.875,1.775 3.655,1.686 3.526,1.633 3.391,1.599 3.261,1.551 M -1.49,-1.637 c 0.186,0.109 0.386,0.191 0.569,0.304 0.14,0.087 0.281,0.177 0.419,0.268 0.117,0.078 0.233,0.164 0.337,0.26 0.09,0.082 0.178,0.157 0.277,0.23 0.091,0.068 0.204,0.112 0.302,0.17 0.237,0.141 0.489,0.264 0.744,0.368 C 1.43,0.075 1.69,0.211 1.96,0.326 2.301,0.47 2.616,0.672 2.961,0.804 3.149,0.876 3.322,0.948 3.501,1.041 3.656,1.121 3.811,1.203 3.976,1.26 4.217,1.344 4.48,1.398 4.728,1.455 4.881,1.489 5.031,1.532 5.184,1.561 5.418,1.605 5.656,1.668 5.893,1.69 6.034,1.703 6.177,1.682 6.319,1.695 6.468,1.71 6.617,1.731 6.765,1.751 6.994,1.783 7.215,1.821 7.44,1.869 7.638,1.91 7.833,1.913 8.035,1.913 8.177,1.913 8.317,1.916 8.459,1.901 8.556,1.891 8.652,1.872 8.75,1.871 8.898,1.87 9.047,1.873 9.196,1.872 9.38,1.872 9.56,1.867 9.744,1.857 9.847,1.852 9.95,1.854 10.053,1.849 10.182,1.842 10.31,1.817 10.438,1.803 11.119,1.73 11.779,1.563 12.445,1.408 12.582,1.375 12.723,1.353 12.86,1.319 12.97,1.292 13.079,1.256 13.189,1.23 13.303,1.202 13.419,1.194 13.533,1.167 13.622,1.146 13.71,1.147 13.8,1.129 c 0.23,-0.046 0.455,-0.117 0.679,-0.186 0.396,-0.122 0.785,-0.275 1.176,-0.415 0.498,-0.178 0.994,-0.38 1.476,-0.6 0.41,-0.188 0.824,-0.381 1.209,-0.619 0.272,-0.168 0.525,-0.366 0.795,-0.539 0.099,-0.064 0.201,-0.122 0.299,-0.186 0.052,-0.034 0.104,-0.072 0.162,-0.097 0.025,-0.011 0.116,-0.048 0.151,-0.041 0.015,0.091 0.06,0.099 0.113,0.102 0.016,10e-4 0.029,-0.004 0.043,0.002 -0.035,0.062 -0.148,0.094 -0.207,0.126 -0.173,0.091 -0.343,0.185 -0.519,0.27 -0.279,0.134 -0.564,0.251 -0.841,0.389 -0.253,0.127 -0.502,0.265 -0.756,0.391 -0.261,0.13 -0.508,0.286 -0.771,0.413 -0.426,0.206 -0.839,0.444 -1.254,0.669 -0.035,0.02 -0.07,0.041 -0.105,0.061 -0.012,0.023 -0.045,0.045 -0.059,0.058 -0.032,0.034 -0.063,0.069 -0.094,0.103 0.009,0.005 0.016,0.014 0.018,0.033 0.005,0.035 -0.029,0.082 -0.042,0.112 -0.047,0.108 -0.073,0.222 -0.101,0.336 -0.076,0.311 -0.155,0.622 -0.234,0.932 0.043,-0.042 0.087,-0.084 0.133,-0.126 0.104,-0.098 0.203,-0.201 0.308,-0.297 -0.053,0.084 -0.105,0.168 -0.163,0.249 -0.085,0.12 -0.157,0.238 -0.225,0.368 -0.071,0.138 -0.165,0.261 -0.234,0.399 -0.026,0.053 -0.042,0.112 -0.067,0.165 -0.03,0.066 -0.071,0.126 -0.1,0.192 -0.052,0.121 -0.075,0.253 -0.117,0.378 -0.045,0.13 -0.106,0.273 -0.13,0.409 -0.021,0.117 -0.028,0.235 -0.046,0.352 -0.019,0.121 -0.015,0.245 -0.027,0.366 -0.014,0.133 -0.008,0.271 0.004,0.403 0.019,0.201 0.059,0.39 0.132,0.578 0.042,0.108 0.077,0.212 0.145,0.306 0.192,0.262 0.44,0.469 0.67,0.696 0.062,0.061 0.126,0.109 0.198,0.156 0.085,0.055 0.157,0.123 0.242,0.177 0.181,0.116 0.368,0.221 0.543,0.347 0.085,0.062 0.176,0.104 0.266,0.158 0.091,0.055 0.17,0.122 0.269,0.165 0.109,0.049 0.203,0.101 0.295,0.177 0.066,0.055 0.128,0.116 0.198,0.166 0.158,0.113 0.32,0.225 0.498,0.303 0.128,0.056 0.252,0.109 0.375,0.176 0.088,0.047 0.187,0.075 0.273,0.125 0.037,0.021 0.063,0.059 0.105,0.072 0.01,0.003 0.047,0.016 0.071,0.022 C 18.489,8.92 18.427,8.905 18.362,8.888 18.285,8.866 18.218,8.838 18.157,8.787 18.078,8.721 17.985,8.69 17.892,8.649 17.717,8.574 17.551,8.487 17.38,8.402 17.276,8.351 17.163,8.325 17.065,8.263 16.968,8.201 16.876,8.133 16.774,8.079 16.577,7.977 16.398,7.854 16.206,7.742 16.08,7.668 15.944,7.615 15.819,7.538 15.677,7.451 15.528,7.377 15.387,7.29 15.172,7.158 14.996,7 14.834,6.808 14.711,6.662 14.527,6.586 14.392,6.455 14.312,6.378 14.237,6.298 14.154,6.225 14.078,6.159 13.998,6.102 13.937,6.022 13.869,5.932 13.8,5.837 13.739,5.742 13.681,5.655 13.667,5.555 13.64,5.455 13.586,5.256 13.579,5.059 13.58,4.853 13.58,4.76 13.576,4.666 13.578,4.573 13.581,4.483 13.619,4.4 13.634,4.312 13.652,4.215 13.694,4.145 13.74,4.06 13.804,3.942 13.856,3.818 13.921,3.7 13.983,3.589 14.06,3.491 14.143,3.398 14.149,3.375 14.157,3.353 14.162,3.33 14.229,3.077 14.29,2.829 14.376,2.581 14.45,2.367 14.513,2.15 14.581,1.935 c 0.021,-0.068 0.05,-0.134 0.077,-0.2 -0.053,0.062 -0.105,0.124 -0.161,0.184 -0.078,0.082 -0.159,0.162 -0.233,0.248 -0.089,0.102 -0.167,0.212 -0.254,0.316 -0.114,0.135 -0.247,0.252 -0.362,0.387 -0.093,0.111 -0.182,0.225 -0.281,0.331 -0.084,0.09 -0.171,0.177 -0.259,0.263 -0.03,0.067 -0.061,0.133 -0.089,0.201 -0.014,0.039 -0.028,0.078 -0.044,0.117 -0.053,0.13 -0.106,0.259 -0.132,0.398 -0.031,0.167 -0.083,0.321 -0.127,0.485 -0.021,0.079 -0.032,0.157 -0.038,0.236 0.072,0.119 0.147,0.237 0.217,0.353 0.131,0.218 0.229,0.45 0.358,0.668 0.079,0.134 0.163,0.264 0.239,0.4 0.069,0.124 0.169,0.249 0.221,0.382 0.038,0.097 0.062,0.201 0.098,0.299 0.014,0.039 0.029,0.08 0.044,0.12 0.289,0.102 0.575,0.212 0.856,0.335 0.305,0.133 0.605,0.274 0.9,0.428 0.302,0.157 0.599,0.326 0.903,0.48 0.3,0.153 0.62,0.265 0.931,0.393 0.064,0.026 0.126,0.054 0.19,0.081 C 17.597,8.827 17.56,8.814 17.522,8.802 17.288,8.728 17.058,8.644 16.826,8.565 16.616,8.495 16.399,8.413 16.198,8.322 16.113,8.283 16.022,8.257 15.936,8.219 15.876,8.192 15.818,8.161 15.756,8.14 15.636,8.098 15.514,8.067 15.393,8.031 15.319,8.008 15.25,7.977 15.174,7.959 15.096,7.941 15.019,7.924 14.943,7.899 14.788,7.848 14.625,7.826 14.467,7.783 14.111,7.687 13.758,7.579 13.397,7.496 13.285,7.471 13.178,7.429 13.067,7.399 12.967,7.372 12.863,7.36 12.761,7.345 12.567,7.316 12.377,7.269 12.182,7.243 11.916,7.207 11.648,7.188 11.382,7.153 11.176,7.126 10.97,7.097 10.763,7.077 9.965,6.999 9.161,7.029 8.37,7.165 8.096,7.212 7.822,7.258 7.546,7.295 7.397,7.315 7.248,7.323 7.102,7.355 6.968,7.384 6.839,7.391 6.705,7.414 6.535,7.443 6.363,7.474 6.195,7.516 5.848,7.602 5.503,7.696 5.155,7.78 4.92,7.835 4.684,7.88 4.45,7.937 4.344,7.963 4.234,7.979 4.132,8.022 4.047,8.058 3.964,8.103 3.878,8.141 3.667,8.232 3.453,8.311 3.248,8.416 3.005,8.54 2.76,8.658 2.518,8.784 2.329,8.883 2.125,8.956 1.939,9.06 1.62,9.239 1.301,9.413 0.989,9.603 0.877,9.67 0.757,9.722 0.645,9.789 0.587,9.823 0.531,9.858 0.471,9.889 0.328,9.963 0.177,10.036 0.026,10.094 c -0.157,0.061 -0.323,0.095 -0.476,0.168 -0.081,0.038 -0.159,0.082 -0.241,0.117 -0.089,0.037 -0.184,0.06 -0.273,0.099 -0.193,0.085 -0.389,0.178 -0.569,0.291 -0.161,0.102 -0.307,0.224 -0.469,0.327 -0.124,0.078 -0.239,0.169 -0.362,0.25 -0.05,0.033 -0.1,0.066 -0.149,0.1 -0.018,0.013 -0.044,0.039 -0.065,0.043 0.1,-0.1 0.202,-0.196 0.309,-0.287 0.136,-0.115 0.279,-0.25 0.429,-0.346 0.266,-0.171 0.506,-0.368 0.754,-0.563 0.16,-0.124 0.326,-0.238 0.477,-0.373 C -0.573,9.889 -0.54,9.857 -0.506,9.825 -0.493,9.794 -0.48,9.764 -0.468,9.738 -0.418,9.626 -0.359,9.518 -0.31,9.405 -0.273,9.318 -0.241,9.229 -0.201,9.144 -0.128,8.993 -0.039,8.85 0.032,8.698 0.097,8.561 0.164,8.425 0.229,8.288 0.376,7.983 0.52,7.683 0.681,7.386 0.826,7.119 0.937,6.835 1.083,6.568 1.208,6.341 1.345,6.119 1.448,5.882 1.532,5.688 1.632,5.504 1.723,5.315 1.703,4.518 1.612,3.726 1.438,2.947 1.404,2.888 1.369,2.829 1.33,2.772 1.232,2.631 1.114,2.506 1.012,2.368 0.902,2.219 0.808,2.06 0.711,1.903 0.614,1.745 0.508,1.595 0.405,1.441 0.269,1.236 0.16,1.015 0.045,0.798 -0.085,0.554 -0.219,0.311 -0.346,0.065 c -0.045,-0.088 -0.128,-0.188 -0.142,-0.287 -0.006,-0.047 -0.008,-0.107 0.061,-0.083 0.017,0.006 0.018,0.018 0.032,0.026 0.026,0.016 0.053,0.02 0.082,0.03 0.006,0.002 0.011,0.004 0.016,0.007 -0.031,-0.023 -0.062,-0.045 -0.093,-0.068 -0.116,-0.088 -0.235,-0.182 -0.343,-0.278 -0.045,-0.041 -0.095,-0.074 -0.138,-0.118 -0.034,-0.035 -0.067,-0.073 -0.106,-0.102 -0.1,-0.075 -0.167,-0.175 -0.256,-0.262 -0.178,-0.172 -0.368,-0.331 -0.545,-0.504 -0.091,-0.088 -0.191,-0.168 -0.265,-0.272 -0.065,-0.091 -0.143,-0.177 -0.223,-0.256 -0.024,-0.024 -0.048,-0.048 -0.071,-0.071 0.108,0.068 0.213,0.142 0.321,0.211 0.175,0.11 0.348,0.221 0.526,0.325"
             style="fill:#100f0d;fill-opacity:1;fill-rule:nonzero;stroke:none"
             id="path52571" />
        </g>
        <g
           id="g52573"
           transform="translate(320.536,212.182)">
          <path
             d="M 0,0 C 0.092,0.051 0.165,0.115 0.238,0.186 0.199,0.161 0.161,0.135 0.121,0.114 0.047,0.074 -0.024,0.037 -0.093,-0.012 -0.129,-0.038 -0.165,-0.066 -0.206,-0.083 -0.133,-0.087 -0.061,-0.034 0,0"
             style="fill:#100f0d;fill-opacity:1;fill-rule:nonzero;stroke:none"
             id="path52575" />
        </g>
        <g
           id="g52577"
           transform="translate(341.871,223.815)">
          <path
             d="M 0,0 C 0.157,0.078 0.32,0.142 0.475,0.221 0.715,0.344 0.952,0.462 1.201,0.565 1.229,0.576 1.257,0.586 1.284,0.597 1.174,0.59 1.069,0.564 0.964,0.521 0.814,0.461 0.669,0.378 0.525,0.304 0.233,0.154 -0.057,0.016 -0.36,-0.11 c -0.256,-0.106 -0.51,-0.217 -0.766,-0.325 0.247,0.08 0.492,0.163 0.733,0.26 C -0.26,-0.121 -0.129,-0.064 0,0"
             style="fill:#100f0d;fill-opacity:1;fill-rule:nonzero;stroke:none"
             id="path52579" />
        </g>
        <g
           id="g52581"
           transform="translate(343.39,224.499)">
          <path
             d="m 0,0 c -0.079,-0.028 -0.157,-0.057 -0.235,-0.087 0.015,0.001 0.03,0.002 0.045,0.003 z"
             style="fill:#100f0d;fill-opacity:1;fill-rule:nonzero;stroke:none"
             id="path52583" />
        </g>
        <g
           id="g52585"
           transform="translate(343.745,224.657)">
          <path
             d="m 0,0 -0.354,-0.157 c 0.135,0.048 0.271,0.097 0.404,0.155 C 0.035,0.002 0.017,0 0,0"
             style="fill:#100f0d;fill-opacity:1;fill-rule:nonzero;stroke:none"
             id="path52587" />
        </g>
        <g
           id="g52589"
           transform="translate(341.664,223.465)">
          <path
             d="M 0,0 C 0.006,0.001 0.012,0.002 0.018,0.002 0.015,0.003 0.008,0.002 0,0"
             style="fill:#100f0d;fill-opacity:1;fill-rule:nonzero;stroke:none"
             id="path52591" />
        </g>
        <g
           id="g52593"
           transform="translate(338.926,216.036)">
          <path
             d="m 0,0 c 0.156,-0.169 0.339,-0.313 0.513,-0.461 0.146,-0.123 0.28,-0.261 0.436,-0.371 0.192,-0.134 0.375,-0.273 0.533,-0.447 0.08,-0.087 0.16,-0.168 0.25,-0.244 C 1.86,-1.633 1.993,-1.736 2.121,-1.846 2.154,-1.875 2.19,-1.923 2.237,-1.933 2.239,-1.919 2.233,-1.908 2.219,-1.9 2.158,-1.805 2.157,-1.812 2.156,-1.818 2.113,-1.826 2.072,-1.774 2.047,-1.75 2.005,-1.708 1.964,-1.664 1.922,-1.623 1.783,-1.49 1.613,-1.398 1.476,-1.26 1.349,-1.132 1.225,-1 1.085,-0.886 0.954,-0.779 0.831,-0.681 0.725,-0.548 0.58,-0.365 0.416,-0.177 0.244,-0.017 0.037,0.175 -0.21,0.32 -0.42,0.509 -0.425,0.514 -0.431,0.52 -0.436,0.525 -0.402,0.472 -0.369,0.418 -0.33,0.368 -0.231,0.237 -0.111,0.12 0,0"
             style="fill:#100f0d;fill-opacity:1;fill-rule:nonzero;stroke:none"
             id="path52595" />
        </g>
        <g
           id="g52597"
           transform="translate(327.037,216.521)">
          <path
             d="m 0,0 c 0.002,0.027 -0.008,0.037 -0.016,0.057 -0.002,0.005 -0.003,0.011 -0.005,0.016 0,0 0,0 0,0.001 C -0.022,0.044 -0.026,0.019 0,0"
             style="fill:#100f0d;fill-opacity:1;fill-rule:nonzero;stroke:none"
             id="path52599" />
        </g>
        <g
           id="g52601"
           transform="translate(329.258,217.28)">
          <path
             d="M 0,0 C 0.018,0.003 0.023,0.033 0.026,0.058 0.022,0.059 0.019,0.059 0.016,0.06 -0.003,0.013 -0.002,0.007 0,0"
             style="fill:#100f0d;fill-opacity:1;fill-rule:nonzero;stroke:none"
             id="path52603" />
        </g>
        <g
           id="g52605"
           transform="translate(329.283,217.338)">
          <path
             d="M 0,0 C 0.002,-0.001 0.005,-0.001 0.007,-0.001 0.009,-0.023 0.003,-0.052 0.025,-0.057 0.043,0.008 0.055,0.074 0.066,0.14 0.033,0.108 0.015,0.074 0.004,0.026 0.002,0.02 0.001,0.01 0,0"
             style="fill:#100f0d;fill-opacity:1;fill-rule:nonzero;stroke:none"
             id="path52607" />
        </g>
      </g>
    </g>
  </g>
</svg>
