<?xml version="1.0" encoding="UTF-8" standalone="no"?>
<!-- Created with Inkscape (http://www.inkscape.org/) -->

<svg
   width="26.669552"
   height="24"
   viewBox="0 0 7.0563188 6.35"
   version="1.1"
   id="svg56682"
   inkscape:version="1.2.1 (9c6d41e4, 2022-07-14)"
   sodipodi:docname="where-the-gods-dwell.svg"
   xmlns:inkscape="http://www.inkscape.org/namespaces/inkscape"
   xmlns:sodipodi="http://sodipodi.sourceforge.net/DTD/sodipodi-0.dtd"
   xmlns="http://www.w3.org/2000/svg"
   xmlns:svg="http://www.w3.org/2000/svg">
  <sodipodi:namedview
     id="namedview56684"
     pagecolor="#505050"
     bordercolor="#eeeeee"
     borderopacity="1"
     inkscape:showpageshadow="0"
     inkscape:pageopacity="0"
     inkscape:pagecheckerboard="0"
     inkscape:deskcolor="#505050"
     inkscape:document-units="mm"
     showgrid="false"
     inkscape:zoom="0.7046647"
     inkscape:cx="-36.896981"
     inkscape:cy="105.72404"
     inkscape:window-width="1390"
     inkscape:window-height="941"
     inkscape:window-x="0"
     inkscape:window-y="25"
     inkscape:window-maximized="0"
     inkscape:current-layer="layer1" />
  <defs
     id="defs56679">
    <clipPath
       clipPathUnits="userSpaceOnUse"
       id="clipPath52615">
      <path
         d="m 319.75,167.149 h 24.7 v 24.699 h -24.7 z"
         id="path52613" />
    </clipPath>
  </defs>
  <g
     inkscape:label="Layer 1"
     inkscape:groupmode="layer"
     id="layer1"
     transform="translate(-114.75174,-120.73645)">
    <g
       id="g52609"
       transform="matrix(0.35333494,0,0,-0.35333494,0.99789611,187.51633)">
      <g
         id="g52611"
         clip-path="url(#clipPath52615)">
        <g
           id="g52617"
           transform="translate(340.326,172.263)">
          <path
             d="M 0,0 -0.017,0.04 C -0.006,0.022 0.005,0.004 0.018,-0.011 0.012,-0.007 0.006,-0.004 0,0 M -0.229,0.54 -0.262,0.617 C -0.231,0.587 -0.21,0.563 -0.229,0.54 M 1.492,-0.582 C 1.443,-0.524 1.381,-0.475 1.329,-0.42 1.144,-0.227 0.984,-0.009 0.821,0.199 0.461,0.659 0.156,1.148 -0.177,1.623 -0.546,2.149 -0.816,2.717 -1.087,3.285 -1.271,3.671 -1.456,4.057 -1.618,4.451 -1.796,4.88 -1.957,5.315 -2.131,5.746 -2.299,6.16 -2.438,6.582 -2.624,6.99 c -0.174,0.38 -0.35,0.761 -0.53,1.139 -0.21,0.442 -0.418,0.889 -0.659,1.319 -0.196,0.35 -0.406,0.694 -0.6,1.046 -0.265,0.481 -0.544,0.953 -0.839,1.421 -0.281,0.444 -0.548,0.898 -0.854,1.33 -0.274,0.386 -0.557,0.769 -0.852,1.144 -0.293,0.374 -0.607,0.735 -0.919,1.097 -0.254,0.293 -0.513,0.58 -0.752,0.882 -0.067,0.084 -0.136,0.166 -0.189,0.258 -0.013,0.021 -0.031,0.091 -0.055,0.106 -0.025,0.016 -0.087,-0.023 -0.11,-0.033 -0.106,-0.044 -0.179,-0.128 -0.259,-0.201 -0.113,-0.103 -0.205,-0.21 -0.293,-0.33 -0.165,-0.227 -0.314,-0.467 -0.459,-0.704 -0.183,-0.299 -0.32,-0.621 -0.471,-0.934 -0.375,-0.777 -0.786,-1.539 -1.209,-2.297 -0.197,-0.354 -0.396,-0.703 -0.626,-1.041 -0.2,-0.295 -0.376,-0.597 -0.554,-0.901 -0.21,-0.359 -0.445,-0.705 -0.667,-1.058 -0.184,-0.291 -0.342,-0.595 -0.528,-0.886 -0.181,-0.283 -0.377,-0.56 -0.563,-0.841 -0.222,-0.338 -0.421,-0.673 -0.598,-1.031 -0.216,-0.436 -0.428,-0.874 -0.652,-1.306 -0.187,-0.363 -0.349,-0.73 -0.507,-1.103 -0.185,-0.438 -0.386,-0.87 -0.563,-1.311 -0.146,-0.363 -0.273,-0.732 -0.436,-1.09 -0.095,-0.207 -0.206,-0.409 -0.302,-0.617 -0.072,-0.152 -0.14,-0.306 -0.213,-0.458 -0.098,-0.201 -0.198,-0.399 -0.274,-0.608 -0.07,-0.194 -0.129,-0.395 -0.182,-0.593 -0.029,-0.112 -0.053,-0.229 -0.04,-0.343 0.04,-0.001 0.081,0.099 0.101,0.127 0.044,0.062 0.095,0.119 0.139,0.18 0.11,0.149 0.217,0.302 0.316,0.457 0.021,0.032 0.045,0.062 0.066,0.094 0.528,1.172 1.353,2.302 2.028,3.388 0.883,1.418 1.773,2.829 2.575,4.283 0.827,1.498 1.591,3.021 2.342,4.55 0.381,0.777 0.77,1.553 1.142,2.334 0.189,0.398 0.293,0.845 0.64,1.166 0.094,0.087 0.286,0.094 0.38,0 0.368,-0.369 0.881,-0.768 1.057,-1.25 0.006,-0.016 0.008,-0.031 0.013,-0.046 0.022,-0.045 0.04,-0.091 0.061,-0.135 0.11,-0.227 0.262,-0.438 0.388,-0.658 0.346,-0.606 0.656,-1.229 0.967,-1.85 0.183,-0.365 0.408,-0.713 0.593,-1.079 0.207,-0.409 0.441,-0.804 0.676,-1.201 0.22,-0.369 0.43,-0.742 0.639,-1.115 0.212,-0.38 0.441,-0.751 0.654,-1.129 0.248,-0.44 0.448,-0.895 0.682,-1.34 0.209,-0.395 0.428,-0.789 0.623,-1.191 0.19,-0.391 0.332,-0.799 0.518,-1.192 0.167,-0.352 0.347,-0.698 0.52,-1.047 0.18,-0.364 0.356,-0.729 0.535,-1.092 0.117,-0.237 0.219,-0.475 0.359,-0.703 0.019,-0.03 0.038,-0.06 0.057,-0.09 C -0.335,0.503 -0.363,0.5 -0.382,0.498 -0.474,0.484 -0.57,0.482 -0.663,0.477 -0.901,0.462 -1.135,0.429 -1.373,0.418 -1.678,0.404 -1.984,0.396 -2.288,0.378 -2.626,0.359 -2.966,0.316 -3.302,0.279 -3.691,0.236 -4.073,0.159 -4.461,0.108 c -0.982,-0.13 -1.975,-0.224 -2.967,-0.267 -0.556,-0.025 -1.109,-0.06 -1.664,-0.095 -0.528,-0.032 -1.055,-0.089 -1.583,-0.119 -0.273,-0.015 -0.546,-0.012 -0.819,-0.027 -0.258,-0.013 -0.515,-0.034 -0.772,-0.049 -0.493,-0.028 -0.988,-0.034 -1.481,-0.048 -0.836,-0.025 -1.672,-0.091 -2.489,-0.252 -0.229,-0.045 -0.457,-0.104 -0.669,-0.192 -0.081,-0.033 -0.216,-0.099 -0.31,-0.082 0.241,-0.01 0.481,-0.018 0.721,-0.035 0.427,-0.028 0.854,-0.032 1.281,-0.052 0.442,-0.02 0.883,-0.053 1.324,-0.072 0.442,-0.019 0.885,-0.023 1.328,-0.035 0.991,-0.027 1.982,-0.017 2.974,-0.017 0.607,0 1.214,0 1.821,0.012 0.514,0.011 1.028,0.024 1.543,0.023 0.517,-10e-4 1.033,0.011 1.55,0.022 0.546,0.012 1.092,0.022 1.638,0.052 0.51,0.027 1.019,0.058 1.523,0.136 0.208,0.034 0.416,0.07 0.624,0.108 0.197,0.031 0.394,0.061 0.592,0.091 0.239,0.044 0.469,0.114 0.707,0.159 0.231,0.044 0.472,0.06 0.708,0.046 0.128,-0.007 0.228,-0.026 0.345,-0.068 0.04,-0.015 0.081,-0.034 0.124,-0.039 -0.042,0.029 -0.065,0.074 -0.096,0.11"
             style="fill:#100f0d;fill-opacity:1;fill-rule:nonzero;stroke:none"
             id="path52619" />
        </g>
        <g
           id="g52621"
           transform="translate(331.907,181.642)">
          <path
             d="M 0,0 C 0.019,-0.014 0.03,-0.062 0.038,-0.084 0.09,-0.221 0.121,-0.369 0.165,-0.51 0.323,-1.006 0.41,-1.525 0.501,-2.037 0.586,-2.52 0.604,-3.012 0.645,-3.499 0.669,-3.788 0.688,-4.079 0.688,-4.369 0.688,-4.611 0.636,-4.838 0.604,-5.076 0.575,-5.28 0.551,-5.477 0.507,-5.678 0.48,-5.806 0.47,-5.934 0.44,-6.061 0.397,-6.244 0.363,-6.423 0.303,-6.601 0.242,-6.782 0.195,-6.964 0.147,-7.149 0.102,-7.321 0.015,-7.48 -0.042,-7.649 c -0.033,-0.099 -0.072,-0.202 -0.12,-0.295 -0.026,-0.051 -0.062,-0.113 -0.102,-0.152 0.028,0.235 0.049,0.491 0.003,0.724 -0.039,0.195 -0.055,0.392 -0.082,0.589 -0.024,0.17 -0.012,0.34 -0.031,0.511 -0.017,0.146 -0.046,0.284 -0.051,0.431 -0.008,0.209 -0.037,0.42 -0.059,0.629 -0.021,0.212 -0.032,0.423 -0.039,0.636 -0.005,0.143 -0.022,0.283 -0.021,0.427 0.001,0.177 0,0.351 -0.016,0.527 -0.014,0.157 -0.007,0.314 -0.025,0.472 -0.052,0.473 -0.021,0.947 -0.044,1.421 -0.012,0.246 -0.023,0.49 -0.012,0.737 0.012,0.252 0.032,0.502 0.147,0.731 0.039,0.078 0.085,0.155 0.108,0.24 0.023,0.083 0.03,0.169 0.054,0.252 0.012,0.042 0.023,0.075 0.051,0.11 0.009,0.012 0.024,0.019 0.034,0.034 C -0.218,0.359 -0.189,0.307 0,0"
             style="fill:#100f0d;fill-opacity:1;fill-rule:nonzero;stroke:none"
             id="path52623" />
        </g>
        <g
           id="g52625"
           transform="translate(333.087,181.651)">
          <path
             d="M 0,0 C 0.015,-0.02 0.054,-0.027 0.077,-0.034 0.131,-0.051 0.18,-0.066 0.236,-0.075 0.349,-0.094 0.431,-0.136 0.535,-0.185 0.647,-0.237 0.761,-0.284 0.869,-0.343 1.137,-0.487 1.397,-0.641 1.651,-0.808 1.855,-0.941 2.02,-1.115 2.18,-1.297 2.569,-1.739 2.942,-2.216 3.151,-2.771 3.197,-2.893 3.246,-3.016 3.263,-3.145 3.281,-3.281 3.286,-3.423 3.286,-3.56 3.285,-3.699 3.29,-3.839 3.287,-3.978 3.284,-4.101 3.25,-4.218 3.247,-4.341 3.244,-4.502 3.229,-4.632 3.176,-4.784 3.138,-4.89 3.095,-4.989 3.048,-5.089 2.985,-5.221 2.972,-5.363 2.921,-5.498 2.88,-5.607 2.804,-5.696 2.745,-5.794 2.659,-5.938 2.594,-6.081 2.495,-6.218 2.413,-6.332 2.336,-6.449 2.249,-6.559 2.13,-6.708 2.025,-6.858 1.922,-7.018 1.831,-7.16 1.734,-7.29 1.613,-7.408 1.409,-7.609 1.201,-7.823 0.962,-7.983 0.87,-8.046 0.774,-8.1 0.683,-8.164 0.595,-8.227 0.51,-8.291 0.402,-8.311 0.302,-8.329 0.188,-8.346 0.095,-8.388 0.026,-8.42 -0.018,-8.487 -0.096,-8.507 c 0.087,0.008 0.171,-0.005 0.257,0.015 0.068,0.015 0.131,0.04 0.201,0.053 0.075,0.013 0.149,0.03 0.224,0.044 0.081,0.016 0.163,0.028 0.242,0.049 0.092,0.025 0.163,0.071 0.249,0.109 0.068,0.031 0.123,0.046 0.198,0.059 0.121,0.023 0.234,0.066 0.35,0.108 0.207,0.075 0.324,0.255 0.504,0.371 0.165,0.107 0.33,0.196 0.466,0.342 0.137,0.146 0.298,0.271 0.427,0.424 0.048,0.057 0.081,0.117 0.12,0.18 0.089,0.14 0.213,0.245 0.282,0.398 0.032,0.07 0.053,0.145 0.082,0.217 0.049,0.122 0.109,0.23 0.14,0.359 0.051,0.209 0.065,0.426 0.107,0.636 0.039,0.192 0.085,0.372 0.102,0.567 0.018,0.197 0.049,0.399 0.032,0.597 -0.019,0.225 -0.099,0.441 -0.158,0.658 -0.067,0.248 -0.156,0.483 -0.266,0.715 -0.212,0.446 -0.449,0.882 -0.8,1.234 -0.282,0.282 -0.607,0.533 -0.928,0.768 -0.083,0.06 -0.173,0.109 -0.256,0.17 C 1.361,-0.348 1.245,-0.26 1.123,-0.18 0.899,-0.035 0.664,0.093 0.428,0.218 0.164,0.358 -0.127,0.445 -0.401,0.564 -0.604,0.653 -0.811,0.689 -1.03,0.718 -1.209,0.742 -1.379,0.787 -1.562,0.762 -1.625,0.754 -1.687,0.739 -1.751,0.731 -1.829,0.728 -1.906,0.719 -1.983,0.704 -2.072,0.681 -2.16,0.653 -2.247,0.621 -2.701,0.463 -3.083,0.206 -3.458,-0.089 -3.556,-0.166 -3.658,-0.236 -3.76,-0.307 -3.907,-0.409 -4.03,-0.511 -4.156,-0.638 -4.243,-0.726 -4.333,-0.811 -4.424,-0.895 -4.637,-1.089 -4.885,-1.246 -5.063,-1.476 -5.155,-1.596 -5.23,-1.73 -5.307,-1.86 -5.414,-2.039 -5.532,-2.215 -5.628,-2.4 -5.774,-2.685 -5.877,-3.014 -5.964,-3.321 -6.038,-3.584 -6.111,-3.858 -6.161,-4.127 -6.19,-4.285 -6.184,-4.435 -6.192,-4.594 c -0.009,-0.159 -0.02,-0.317 -0.018,-0.477 0.004,-0.279 0.072,-0.543 0.128,-0.816 0.048,-0.234 0.108,-0.439 0.225,-0.649 0.28,-0.504 0.742,-0.869 1.192,-1.21 0.076,-0.057 0.152,-0.12 0.231,-0.173 0.07,-0.043 0.143,-0.08 0.219,-0.112 0.085,-0.044 0.168,-0.089 0.251,-0.137 0.078,-0.045 0.155,-0.093 0.234,-0.136 0.124,-0.066 0.232,-0.062 0.369,-0.061 0.224,0.002 0.447,0.004 0.67,-0.009 0.141,-0.008 0.282,-0.014 0.423,-0.026 0.088,-0.007 0.183,-0.03 0.273,-0.025 -0.197,0.006 -0.381,-0.011 -0.571,0.061 -0.289,0.11 -0.561,0.265 -0.81,0.448 -0.118,0.087 -0.239,0.153 -0.363,0.228 -0.109,0.065 -0.206,0.149 -0.312,0.219 -0.238,0.158 -0.467,0.319 -0.671,0.52 -0.07,0.068 -0.128,0.142 -0.183,0.223 -0.072,0.107 -0.168,0.206 -0.214,0.328 -0.028,0.074 -0.042,0.157 -0.06,0.234 -0.028,0.114 -0.061,0.227 -0.091,0.341 -0.054,0.21 -0.056,0.428 -0.075,0.643 -0.01,0.11 -0.034,0.215 -0.038,0.326 -0.004,0.146 -0.009,0.3 0.02,0.444 0.051,0.248 0.088,0.492 0.164,0.735 0.081,0.26 0.203,0.508 0.326,0.75 0.121,0.24 0.214,0.499 0.35,0.731 0.129,0.22 0.244,0.455 0.408,0.652 0.067,0.081 0.127,0.168 0.193,0.25 0.083,0.104 0.188,0.171 0.285,0.259 0.169,0.153 0.344,0.293 0.52,0.438 0.099,0.08 0.198,0.161 0.294,0.245 0.096,0.086 0.187,0.181 0.289,0.258 0.081,0.061 0.174,0.099 0.258,0.153 0.095,0.06 0.168,0.111 0.277,0.141 0.073,0.02 0.143,0.051 0.216,0.068 0.094,0.023 0.196,0.031 0.292,0.043 0.081,0.01 0.162,0.004 0.243,0.013 0.061,0.008 0.121,0.028 0.182,0.035 0.067,0.008 0.133,0.002 0.198,-0.008 C -0.796,0.342 -0.723,0.341 -0.652,0.329 -0.534,0.31 -0.421,0.265 -0.304,0.239 -0.217,0.219 -0.13,0.202 -0.043,0.184 0.204,0.13 0.431,0.035 0.665,-0.061"
             style="fill:#100f0d;fill-opacity:1;fill-rule:nonzero;stroke:none"
             id="path52627" />
        </g>
      </g>
    </g>
  </g>
</svg>
