<?xml version="1.0" encoding="UTF-8" standalone="no"?>
<!-- Created with Inkscape (http://www.inkscape.org/) -->

<svg
   width="210mm"
   height="297mm"
   viewBox="0 0 210 297"
   version="1.1"
   id="svg56786"
   inkscape:version="1.2.1 (9c6d41e4, 2022-07-14)"
   sodipodi:docname="whispers-of-hypnos.svg"
   xmlns:inkscape="http://www.inkscape.org/namespaces/inkscape"
   xmlns:sodipodi="http://sodipodi.sourceforge.net/DTD/sodipodi-0.dtd"
   xmlns="http://www.w3.org/2000/svg"
   xmlns:svg="http://www.w3.org/2000/svg">
  <sodipodi:namedview
     id="namedview56788"
     pagecolor="#505050"
     bordercolor="#eeeeee"
     borderopacity="1"
     inkscape:showpageshadow="0"
     inkscape:pageopacity="0"
     inkscape:pagecheckerboard="0"
     inkscape:deskcolor="#505050"
     inkscape:document-units="mm"
     showgrid="false"
     inkscape:zoom="0.7046647"
     inkscape:cx="397.3521"
     inkscape:cy="562.67896"
     inkscape:window-width="1390"
     inkscape:window-height="941"
     inkscape:window-x="0"
     inkscape:window-y="25"
     inkscape:window-maximized="0"
     inkscape:current-layer="layer1" />
  <defs
     id="defs56783">
    <clipPath
       clipPathUnits="userSpaceOnUse"
       id="clipPath52671">
      <path
         d="m 319.75,127.567 h 24.7 v 24.7 h -24.7 z"
         id="path52669" />
    </clipPath>
  </defs>
  <g
     inkscape:label="Layer 1"
     inkscape:groupmode="layer"
     id="layer1">
    <g
       id="g52665"
       transform="matrix(0.44278408,0,0,-0.44278408,-23.226004,218.89046)">
      <g
         id="g52667"
         clip-path="url(#clipPath52671)">
        <g
           id="g52673"
           transform="translate(341.19,138.286)">
          <path
             d="M 0,0 C -0.066,-0.02 -0.051,0.025 -0.09,0.033 -0.173,0.051 -0.252,0.032 -0.336,0.04 -0.403,0.047 -0.458,0.08 -0.524,0.088 -0.604,0.098 -0.679,0.081 -0.761,0.095 -1.01,0.139 -1.318,0.169 -1.545,0.044 c -0.087,-0.048 -0.17,-0.11 -0.257,-0.161 -0.061,-0.035 -0.086,-0.082 -0.136,-0.129 -0.074,-0.069 -0.181,-0.111 -0.251,-0.18 -0.037,-0.038 -0.041,-0.086 -0.08,-0.122 -0.061,-0.056 -0.162,-0.095 -0.23,-0.15 -0.222,-0.182 -0.48,-0.315 -0.727,-0.46 C -3.542,-1.343 -3.921,-1.435 -4.258,-1.577 -4.359,-1.619 -4.462,-1.618 -4.555,-1.669 -4.643,-1.718 -4.717,-1.805 -4.81,-1.833 -4.929,-1.869 -5.057,-1.894 -5.179,-1.919 -5.43,-1.97 -5.664,-2.074 -5.918,-2.113 -6.156,-2.149 -6.382,-2.253 -6.617,-2.274 -6.783,-2.288 -6.955,-2.34 -7.12,-2.37 c -0.256,-0.047 -0.515,-0.042 -0.773,-0.086 -0.117,-0.02 -0.224,-0.032 -0.342,-0.031 -0.145,10e-4 -0.281,-0.04 -0.426,-0.044 -0.427,-0.013 -0.832,-0.081 -1.256,0.012 -0.203,0.044 -0.384,0.139 -0.581,0.206 -0.187,0.063 -0.377,0.108 -0.565,0.167 -0.426,0.132 -0.827,0.34 -1.234,0.519 -0.06,0.026 -0.108,0.029 -0.168,0.048 -0.113,0.034 -0.195,0.119 -0.301,0.166 -0.23,0.103 -0.432,0.211 -0.648,0.342 -0.121,0.073 -0.228,0.177 -0.349,0.247 -0.088,0.05 -0.175,0.091 -0.26,0.15 -0.146,0.1 -0.303,0.194 -0.438,0.32 -0.163,0.152 -0.328,0.309 -0.504,0.441 -0.189,0.141 -0.426,0.237 -0.641,0.33 -0.337,0.146 -0.708,0.206 -1.072,0.228 -0.273,0.017 -0.551,-0.004 -0.825,-0.001 -0.135,0.002 -0.258,-0.018 -0.392,-0.033 -0.069,-0.008 -0.219,0.014 -0.271,-0.054 0.036,-0.022 0.071,-0.032 0.112,-0.041 0.15,-0.034 0.318,-0.061 0.47,-0.079 0.09,-0.011 0.176,-0.008 0.263,-0.033 0.072,-0.022 0.138,-0.055 0.212,-0.073 0.318,-0.076 0.602,-0.203 0.905,-0.322 0.118,-0.047 0.214,-0.111 0.338,-0.148 0.103,-0.031 0.207,-0.078 0.301,-0.129 0.141,-0.076 0.281,-0.169 0.407,-0.267 0.298,-0.234 0.492,-0.715 0.306,-1.076 -0.031,-0.061 -0.04,-0.129 -0.077,-0.189 -0.054,-0.091 -0.136,-0.175 -0.198,-0.262 -0.086,-0.12 -0.194,-0.214 -0.283,-0.336 -0.068,-0.092 -0.133,-0.163 -0.187,-0.263 -0.026,-0.047 -0.059,-0.114 -0.094,-0.152 0.284,0.093 0.556,0.262 0.813,0.412 0.244,0.142 0.431,0.277 0.6,0.505 0.118,0.158 0.181,0.225 0.385,0.224 0.1,-0.001 0.164,-0.011 0.257,-0.034 0.089,-0.022 0.111,-0.034 0.192,-0.075 0.142,-0.072 0.255,-0.141 0.383,-0.234 0.138,-0.101 0.127,-0.213 0.074,-0.365 -0.035,-0.097 -0.051,-0.195 -0.09,-0.289 -0.048,-0.117 -0.095,-0.233 -0.13,-0.355 -0.047,-0.163 -0.141,-0.301 -0.212,-0.456 -0.09,-0.194 -0.187,-0.39 -0.287,-0.579 0.476,0.269 0.817,0.636 1.139,1.075 0.097,0.133 0.161,0.273 0.238,0.412 0.081,0.147 0.273,0.071 0.399,0.033 0.021,-0.007 0.046,-0.028 0.072,-0.035 0.035,-0.01 0.071,0.004 0.109,-0.007 0.054,-0.016 0.148,-0.064 0.184,-0.109 0.044,-0.055 0.033,-0.121 0.031,-0.192 -0.002,-0.115 -0.018,-0.258 -0.042,-0.369 -0.031,-0.149 -0.141,-0.288 -0.218,-0.42 -0.083,-0.144 -0.153,-0.315 -0.255,-0.443 -0.1,-0.125 -0.207,-0.234 -0.318,-0.347 -0.078,-0.079 -0.199,-0.244 -0.315,-0.26 0.102,0.013 0.186,0.009 0.287,0.035 0.17,0.046 0.316,0.094 0.478,0.162 0.264,0.109 0.534,0.27 0.701,0.513 0.074,0.109 0.11,0.257 0.164,0.378 0.047,0.107 0.104,0.199 0.161,0.288 0.06,0.092 0.077,0.227 0.18,0.291 0.129,0.081 0.316,0.051 0.463,0.052 0.206,0.002 0.222,-0.066 0.266,-0.255 0.059,-0.25 0.034,-0.488 -0.02,-0.74 -0.05,-0.234 -0.081,-0.464 -0.162,-0.691 -0.045,-0.128 -0.049,-0.29 -0.112,-0.409 0.136,-0.042 0.392,0.032 0.499,0.132 0.167,0.154 0.122,0.476 0.161,0.676 0.032,0.163 0.039,0.316 0.097,0.475 0.031,0.085 0.061,0.17 0.087,0.256 0.039,0.13 0.087,0.237 0.234,0.278 0.108,0.03 0.318,0.071 0.366,-0.063 0.03,-0.085 0.045,-0.199 0.043,-0.291 -0.003,-0.159 0.032,-0.304 0.041,-0.461 0.005,-0.082 0.021,-0.154 0.034,-0.234 0.019,-0.111 -0.011,-0.231 0.016,-0.341 0.033,-0.137 0.189,-0.273 0.271,-0.38 0.105,-0.137 0.193,-0.227 0.366,-0.258 0.074,-0.013 0.214,-0.03 0.285,-0.003 -0.029,0.079 -0.088,0.147 -0.111,0.227 -0.031,0.113 -0.011,0.237 -0.046,0.357 -0.062,0.212 -0.107,0.444 -0.052,0.653 0.039,0.152 0.03,0.327 0.073,0.472 0.02,0.068 0.044,0.18 0.09,0.239 0.053,0.068 0.157,0.098 0.232,0.136 0.07,0.036 0.139,0.058 0.211,0.085 0.11,0.041 0.193,0.036 0.304,0.052 0.098,0.015 0.18,0.043 0.283,0.046 0.047,10e-4 0.102,0.018 0.145,-0.011 0.059,-0.041 0.125,-0.181 0.168,-0.242 0.197,-0.276 0.274,-0.6 0.357,-0.921 0.051,-0.197 0.208,-0.312 0.373,-0.416 0.141,-0.089 0.257,-0.126 0.419,-0.161 0.058,-0.012 0.126,-0.049 0.183,-0.048 0.005,0.096 -0.145,0.188 -0.207,0.249 -0.086,0.084 -0.175,0.163 -0.24,0.263 -0.115,0.178 -0.178,0.377 -0.228,0.58 -0.035,0.142 -0.073,0.281 -0.054,0.429 0.011,0.085 0.067,0.182 0.107,0.257 0.109,0.205 0.382,0.268 0.578,0.373 0.127,0.068 0.254,0.133 0.388,0.162 0.046,0.01 0.092,0.024 0.138,0.034 0.119,0.027 0.193,-0.036 0.302,-0.078 0.078,-0.031 0.164,-0.038 0.237,-0.081 0.102,-0.06 0.171,-0.169 0.228,-0.268 0.141,-0.249 0.19,-0.588 0.511,-0.632 0.06,-0.008 0.448,-0.111 0.48,-0.011 0.018,0.055 -0.17,0.253 -0.199,0.303 -0.072,0.124 -0.12,0.259 -0.175,0.392 -0.07,0.172 -0.329,0.513 -0.205,0.696 0.041,0.06 0.123,0.137 0.184,0.181 0.081,0.059 0.165,0.116 0.256,0.16 0.173,0.084 0.287,0.227 0.452,0.313 0.055,0.029 0.151,0.096 0.214,0.104 0.073,0.01 0.136,-0.047 0.192,-0.093 0.096,-0.077 0.178,-0.154 0.292,-0.206 0.198,-0.09 0.446,-0.099 0.659,-0.119 0.139,-0.013 0.277,-0.008 0.416,-0.009 0.08,-10e-4 0.16,-0.013 0.219,0.052 -0.004,0.116 -0.277,0.122 -0.342,0.14 -0.099,0.026 -0.237,0.072 -0.324,0.134 -0.116,0.084 -0.189,0.19 -0.222,0.326 -0.026,0.106 -0.088,0.272 -0.056,0.38 0.033,0.107 0.16,0.247 0.256,0.298 0.076,0.04 0.165,0.054 0.237,0.09 0.049,0.025 0.079,0.057 0.14,0.072 0.149,0.038 0.362,0.011 0.512,0.009 0.128,-10e-4 0.159,0.049 0.273,0.097 0.056,0.025 0.115,0.035 0.171,0.062 C 0.1,-0.157 0.148,-0.086 0,0"
             style="fill:#100f0d;fill-opacity:1;fill-rule:nonzero;stroke:none"
             id="path52675" />
        </g>
        <g
           id="g52677"
           transform="translate(327.04,140.773)">
          <path
             d="m 0,0 c -0.011,-0.057 -0.066,-0.08 -0.107,-0.114 -0.16,-0.131 -0.338,-0.213 -0.526,-0.303 -0.632,-0.303 -1.355,-0.336 -2.044,-0.31 -0.378,0.014 -1.029,0.086 -1.2,0.493 -0.035,0.082 -0.047,0.18 -0.153,0.195 -0.03,0.004 -0.06,-0.008 -0.09,-0.013 -0.176,-0.027 -0.354,-0.042 -0.532,-0.061 -0.44,-0.045 -1.043,-0.191 -1.429,0.109 -0.13,0.1 -0.295,0.249 -0.377,0.393 -0.076,0.131 -0.062,0.292 -0.114,0.432 -0.028,0.074 -0.067,0.126 0.035,0.163 0.065,0.024 0.167,0.024 0.238,0.04 0.238,0.055 0.481,0.054 0.724,0.098 0.026,0.078 -0.069,0.253 -0.077,0.338 -0.021,0.203 0.195,0.302 0.345,0.386 0.165,0.093 0.355,0.163 0.536,0.213 0.127,0.036 0.265,0.051 0.391,0.092 0.003,0.112 0.107,0.19 0.162,0.28 0.146,0.24 0.437,0.316 0.696,0.393 0.226,0.066 0.49,0.064 0.722,0.093 0.178,0.022 0.353,0.041 0.533,0.045 0.271,0.006 0.543,-0.006 0.814,-0.002 0.101,10e-4 0.159,-0.047 0.25,-0.047 0.136,-10e-4 0.293,0.088 0.425,0.123 C -0.489,3.113 -0.086,3.147 0.193,3.02 0.308,2.967 0.427,2.905 0.538,2.846 0.639,2.792 0.672,2.787 0.795,2.787 0.985,2.788 1.398,2.869 1.498,2.634 1.545,2.523 1.475,2.487 1.391,2.438 1.237,2.348 1.093,2.206 0.925,2.147 0.839,2.117 0.774,2.078 0.685,2.051 0.606,2.026 0.548,1.957 0.469,1.935 0.414,1.919 0.355,1.944 0.303,1.923 0.302,1.851 0.385,1.808 0.418,1.751 0.466,1.669 0.509,1.553 0.516,1.459 0.528,1.303 0.478,1.248 0.369,1.139 0.318,1.088 0.172,1.033 0.144,0.978 0.208,0.894 0.225,0.832 0.258,0.733 0.304,0.591 0.302,0.604 0.242,0.467 0.13,0.215 -0.058,-0.025 0,0"
             style="fill:#100f0d;fill-opacity:1;fill-rule:nonzero;stroke:none"
             id="path52679" />
        </g>
        <g
           id="g52681"
           transform="translate(328.241,145.233)">
          <path
             d="m 0,0 c 0.151,-0.003 0.288,-0.033 0.44,-0.051 0.404,-0.05 0.809,-0.116 1.214,-0.155 0.177,-0.017 0.36,-0.018 0.537,0 0.22,0.023 0.488,0.021 0.691,0.117 0.153,0.072 0.259,0.248 0.42,0.295 C 3.404,0.235 3.51,0.216 3.607,0.184 3.782,0.127 3.961,0.077 4.141,0.04 4.534,-0.043 4.949,0.002 5.347,0.001 5.641,-0.001 5.937,-0.027 6.229,0.021 6.577,0.08 6.935,0.272 7.247,0.432 7.389,0.504 7.513,0.595 7.647,0.678 7.69,0.705 7.748,0.715 7.758,0.763 7.544,0.812 7.371,0.887 7.169,0.993 6.664,1.256 6.152,1.551 5.567,1.545 5.31,1.542 5.039,1.571 4.785,1.54 4.675,1.526 4.595,1.479 4.5,1.554 4.469,1.578 4.46,1.607 4.431,1.631 4.361,1.687 4.249,1.75 4.175,1.792 3.959,1.911 3.68,1.973 3.443,2.019 3.086,2.089 2.714,2.058 2.353,2.058 2.146,2.058 1.918,2.084 1.713,2.055 1.624,2.042 1.551,2.017 1.46,2.016 1.338,2.013 1.215,2.018 1.093,2.017 0.746,2.014 0.418,1.878 0.191,1.612 0.15,1.565 0.076,1.504 0.052,1.448 0.025,1.387 0.052,1.315 0.039,1.251 -0.431,1.156 -0.92,1.152 -1.389,1.031 -1.624,0.971 -1.854,0.885 -2.087,0.814 -2.157,0.792 -2.28,0.774 -2.315,0.707 -2.327,0.683 -2.32,0.634 -2.322,0.607 -2.509,0.584 -2.719,0.556 -2.855,0.41 -3.031,0.222 -3.003,-0.1 -2.768,-0.211 c 0.113,-0.053 0.252,-0.078 0.376,-0.086 0.323,-0.02 0.652,-0.003 0.976,-0.003 0.231,0 0.466,-0.014 0.697,-0.001 0.086,0.005 0.156,0.033 0.24,0.052 C -0.477,-0.237 -0.474,-0.226 0,0"
             style="fill:#100f0d;fill-opacity:1;fill-rule:nonzero;stroke:none"
             id="path52683" />
        </g>
        <g
           id="g52685"
           transform="translate(337.417,144.847)">
          <path
             d="M 0,0 C -0.009,0.002 -0.018,0.005 -0.026,0.007 -0.009,0.204 0.555,0.272 0.683,0.291 0.94,0.331 1.2,0.344 1.46,0.345 1.722,0.346 1.946,0.36 2.186,0.245 2.311,0.185 2.363,0.127 2.505,0.128 3.127,0.133 3.747,0.185 4.372,0.174 4.615,0.17 4.86,0.149 5.082,0.041 5.219,-0.026 5.42,-0.111 5.531,-0.217 5.602,-0.285 5.606,-0.388 5.701,-0.43 5.873,-0.506 6.09,-0.438 6.256,-0.558 6.275,-0.571 6.385,-0.643 6.387,-0.668 6.392,-0.724 6.196,-0.827 6.152,-0.856 5.681,-1.174 5.017,-1.419 4.46,-1.201 4.413,-1.182 4.354,-1.176 4.309,-1.154 4.263,-1.132 4.212,-1.063 4.157,-1.067 4.124,-1.069 4.082,-1.12 4.056,-1.136 3.941,-1.209 3.778,-1.232 3.648,-1.264 3.394,-1.327 3.122,-1.454 2.854,-1.417 2.803,-1.41 2.752,-1.374 2.701,-1.379 2.65,-1.384 2.587,-1.449 2.539,-1.469 2.387,-1.531 2.191,-1.538 2.031,-1.562 1.724,-1.61 1.38,-1.614 1.077,-1.539 c -0.205,0.05 -0.405,0.167 -0.61,0.206 -0.079,0.016 -0.164,0 -0.245,10e-4 -0.342,0.002 -0.705,0.067 -1.042,0.125 -0.36,0.063 -0.696,0.24 -0.969,0.48 -0.058,0.051 -0.29,0.228 -0.267,0.323 0.015,0.06 0.093,0.076 0.144,0.104 0.429,0.237 0.81,0.521 1.316,0.516 0.186,-0.002 0.373,0.006 0.558,0 C 0.063,0.213 0.156,0.16 0,0"
             style="fill:#100f0d;fill-opacity:1;fill-rule:nonzero;stroke:none"
             id="path52687" />
        </g>
      </g>
    </g>
  </g>
</svg>
