<?xml version="1.0" encoding="UTF-8" standalone="no"?>
<!-- Created with Inkscape (http://www.inkscape.org/) -->

<svg
   width="210mm"
   height="297mm"
   viewBox="0 0 210 297"
   version="1.1"
   id="svg56898"
   inkscape:version="1.2.1 (9c6d41e4, 2022-07-14)"
   sodipodi:docname="zoogs.svg"
   xmlns:inkscape="http://www.inkscape.org/namespaces/inkscape"
   xmlns:sodipodi="http://sodipodi.sourceforge.net/DTD/sodipodi-0.dtd"
   xmlns="http://www.w3.org/2000/svg"
   xmlns:svg="http://www.w3.org/2000/svg">
  <sodipodi:namedview
     id="namedview56900"
     pagecolor="#505050"
     bordercolor="#eeeeee"
     borderopacity="1"
     inkscape:showpageshadow="0"
     inkscape:pageopacity="0"
     inkscape:pagecheckerboard="0"
     inkscape:deskcolor="#505050"
     inkscape:document-units="mm"
     showgrid="false"
     inkscape:zoom="0.7046647"
     inkscape:cx="397.3521"
     inkscape:cy="562.67896"
     inkscape:window-width="1390"
     inkscape:window-height="941"
     inkscape:window-x="0"
     inkscape:window-y="25"
     inkscape:window-maximized="0"
     inkscape:current-layer="layer1" />
  <defs
     id="defs56895">
    <clipPath
       clipPathUnits="userSpaceOnUse"
       id="clipPath52699">
      <path
         d="m 319.75,87.986 h 24.7 v 24.699 h -24.7 z"
         id="path52697" />
    </clipPath>
  </defs>
  <g
     inkscape:label="Layer 1"
     inkscape:groupmode="layer"
     id="layer1">
    <g
       id="g52693"
       transform="matrix(0.32660077,0,0,-0.32660077,17.375747,165.00224)">
      <g
         id="g52695"
         clip-path="url(#clipPath52699)">
        <g
           id="g52701"
           transform="translate(329.313,104.838)">
          <path
             d="M 0,0 C 0.157,0 0.365,0.038 0.517,0.002 0.573,-0.011 0.622,-0.037 0.684,-0.051 0.765,-0.07 0.869,-0.102 0.945,-0.128 1.062,-0.167 1.22,-0.279 1.321,-0.354 1.357,-0.381 1.41,-0.426 1.409,-0.471 1.408,-0.493 1.318,-0.633 1.306,-0.641 1.211,-0.708 0.977,-0.607 0.879,-0.6 c -0.13,0.008 -0.253,0.063 -0.386,0.087 -0.248,0.043 -0.457,0.146 -0.658,0.309 0.031,0.074 0.051,0.11 0.122,0.161"
             style="fill:#100f0d;fill-opacity:1;fill-rule:nonzero;stroke:none"
             id="path52703" />
        </g>
        <g
           id="g52705"
           transform="translate(333.687,104.28)">
          <path
             d="M 0,0 C 0.007,0.074 0.156,0.108 0.214,0.129 0.308,0.163 0.404,0.204 0.49,0.257 0.56,0.301 0.622,0.364 0.707,0.383 0.791,0.401 0.844,0.4 0.92,0.429 1.014,0.464 1.099,0.472 1.201,0.472 1.313,0.472 1.358,0.504 1.373,0.387 1.392,0.236 1.323,0.117 1.202,0.032 1.072,-0.059 0.919,-0.118 0.774,-0.182 0.592,-0.262 0.413,-0.343 0.214,-0.343 c -0.03,0 -0.103,-0.016 -0.132,-0.003 -0.048,0.022 -0.028,0.037 -0.05,0.078 -0.045,0.087 -0.036,0.125 0.022,0.216 0.102,0.161 0.214,0.28 0.418,0.309"
             style="fill:#100f0d;fill-opacity:1;fill-rule:nonzero;stroke:none"
             id="path52707" />
        </g>
        <g
           id="g52709"
           transform="translate(335.411,104.614)">
          <path
             d="m 0,0 c -0.045,-0.183 -0.137,-0.345 -0.267,-0.483 -0.074,-0.079 -0.149,-0.142 -0.236,-0.211 -0.073,-0.059 -0.202,-0.156 -0.288,-0.189 -0.118,-0.044 -0.258,-0.028 -0.379,-0.06 -0.135,-0.036 -0.189,-0.031 -0.324,0.005 -0.152,0.041 -0.39,0.116 -0.501,0.25 -0.04,0.048 -0.13,0.179 -0.15,0.235 -0.037,0.105 0.002,0.2 0.036,0.29 0.027,0.072 0.018,0.064 0.064,0.129 0.025,0.035 0.035,0.072 0.063,0.108 0.035,0.047 0.079,0.078 0.108,0.09 0.041,0.059 0.133,0.085 0.191,0.112 0.115,0.054 0.214,0.105 0.323,0.164 0.197,0.107 0.401,0.127 0.622,0.127 0.207,0 0.405,0.009 0.583,-0.085 C -0.058,0.43 -0.016,0.397 0.012,0.289 0.027,0.235 0.032,0.196 0.033,0.138 0.035,0.074 0.011,0.046 0,0 m -2.4,-2.059 c -0.093,-0.092 -0.197,-0.161 -0.32,-0.194 -0.138,-0.038 -0.297,0.009 -0.437,-0.014 -0.029,-0.004 -0.036,-0.043 -0.068,-0.043 -0.022,-10e-4 -0.064,0.038 -0.084,0.047 -0.067,0.03 -0.109,0.044 -0.163,0.096 -0.047,0.046 -0.094,0.058 -0.141,0.095 -0.049,0.039 -0.092,0.097 -0.139,0.141 -0.074,0.07 -0.176,0.152 -0.23,0.237 0.062,0.063 0.347,0.049 0.431,0.028 0.077,-0.02 0.316,-0.103 0.368,-0.168 L -3.14,-1.92 c 0.062,-0.016 0.134,0.048 0.193,0.065 0.075,0.021 0.159,0.052 0.236,0.066 0.035,0.006 0.074,-0.011 0.109,-0.004 0.03,0.006 0.05,0.029 0.072,0.035 0.049,0.014 0.183,0.032 0.23,0.008 0.105,-0.055 -0.04,-0.25 -0.1,-0.309 m -2.488,1.254 c -0.1,0.001 -0.2,0 -0.3,0 -0.045,0 -0.096,-0.007 -0.139,-0.001 -0.052,0.007 -0.068,0.027 -0.11,0.04 -0.086,0.024 -0.192,0.023 -0.276,0.054 -0.047,0.018 -0.087,0.069 -0.138,0.09 -0.07,0.031 -0.122,0.044 -0.185,0.091 -0.062,0.046 -0.124,0.097 -0.192,0.134 -0.051,0.028 -0.131,0.055 -0.162,0.115 -0.026,0.05 -0.046,0.149 -0.052,0.205 -0.011,0.09 0.001,0.189 0.001,0.28 0,0.171 0.016,0.36 0.17,0.472 0.154,0.112 0.414,0.064 0.473,0.064 0.351,-0.004 0.657,-0.16 0.962,-0.322 0.23,-0.123 0.321,-0.252 0.422,-0.484 0.149,-0.344 -0.099,-0.741 -0.474,-0.738 M 7.844,1.601 C 7.588,1.739 7.276,1.783 6.997,1.854 6.632,1.946 6.266,2.023 5.891,2.059 5.637,2.083 5.383,2.136 5.129,2.151 4.915,2.164 4.702,2.167 4.488,2.184 4.144,2.211 3.803,2.266 3.459,2.294 3.245,2.312 3.043,2.328 2.837,2.388 2.562,2.469 2.266,2.558 1.979,2.579 1.537,2.612 1.086,2.59 0.641,2.585 0.548,2.639 0.453,2.688 0.353,2.722 0.222,2.765 0.117,2.855 -0.013,2.908 -0.138,2.958 -0.259,3.042 -0.396,3.056 -0.498,3.067 -0.55,3.062 -0.644,3.109 -0.709,3.141 -0.772,3.17 -0.848,3.182 -0.99,3.205 -1.118,3.254 -1.244,3.331 -1.375,3.41 -1.424,3.554 -1.529,3.658 -1.575,3.704 -1.616,3.731 -1.647,3.789 -1.698,3.882 -1.725,4.016 -1.81,3.914 -1.874,3.838 -1.892,3.67 -1.964,3.607 -1.992,3.582 -2.036,3.58 -2.068,3.56 -2.114,3.531 -2.146,3.468 -2.196,3.446 -2.313,3.396 -2.512,3.452 -2.575,3.566 -2.602,3.616 -2.607,3.72 -2.625,3.779 -2.66,3.889 -2.64,4.019 -2.674,4.123 -2.794,4.138 -2.865,3.963 -2.893,3.88 -2.916,3.812 -2.939,3.745 -2.956,3.675 -2.983,3.567 -2.986,3.527 -3.096,3.525 -3.196,3.524 -3.38,3.485 -3.459,3.567 -3.54,3.651 -3.498,3.734 -3.65,3.647 -3.827,3.545 -4.027,3.385 -4.232,3.356 -4.302,3.346 -4.304,3.367 -4.357,3.396 -4.465,3.454 -4.573,3.47 -4.694,3.495 -5.054,3.569 -5.387,3.508 -5.733,3.398 -5.857,3.359 -5.934,3.256 -6.059,3.23 -6.197,3.202 -6.328,3.159 -6.464,3.118 -6.61,3.074 -6.742,2.948 -6.854,2.841 -6.994,2.706 -7.101,2.55 -7.278,2.452 -7.479,2.34 -7.658,2.457 -7.854,2.498 c -0.292,0.06 -0.565,0.127 -0.87,0.127 -0.097,0 -0.196,0.004 -0.294,0.002 C -9.137,2.625 -9.233,2.571 -9.348,2.548 -9.573,2.503 -9.806,2.454 -10.034,2.419 -10.152,2.401 -10.272,2.408 -10.392,2.391 -10.564,2.366 -10.737,2.34 -10.909,2.315 -11.074,2.291 -11.24,2.265 -11.405,2.248 -11.62,2.225 -11.835,2.254 -12.05,2.23 -12.279,2.204 -12.499,2.167 -12.726,2.15 -12.867,2.14 -13.001,2.093 -13.14,2.077 c -0.176,-0.02 -0.329,-0.04 -0.501,-0.086 -0.256,-0.067 -0.472,-0.236 -0.724,-0.32 -0.075,-0.025 -0.161,-0.041 -0.245,-0.07 -0.074,-0.025 -0.214,-0.024 -0.26,-0.089 -0.084,-0.12 0.304,-0.212 0.388,-0.216 0.049,-0.003 0.103,0.011 0.151,0.002 0.046,-0.008 0.082,-0.038 0.128,-0.047 0.065,-0.013 0.107,0.01 0.172,-0.022 0.068,-0.032 0.131,-0.089 0.196,-0.13 0.12,-0.076 0.241,-0.158 0.368,-0.221 0.227,-0.114 0.486,-0.184 0.719,-0.29 0.198,-0.09 0.423,-0.191 0.639,-0.228 0.177,-0.031 0.341,-0.084 0.516,-0.092 0.148,-0.006 0.34,-0.035 0.479,-0.085 0.153,-0.055 0.285,-0.166 0.437,-0.227 0.147,-0.059 0.277,-0.132 0.421,-0.193 0.038,-0.016 0.085,-0.035 0.116,-0.062 0.023,-0.02 0.035,-0.058 0.061,-0.079 0.036,-0.028 0.086,-0.032 0.125,-0.053 0.091,-0.048 0.152,-0.082 0.254,-0.107 0.097,-0.025 0.209,-0.01 0.31,-0.01 0.275,0 0.574,-0.043 0.809,-0.205 0.069,-0.047 0.139,-0.075 0.21,-0.115 0.098,-0.055 0.137,-0.193 0.216,-0.271 0.083,-0.082 0.154,-0.143 0.271,-0.182 0.115,-0.038 0.252,-0.049 0.328,-0.152 0.276,-0.378 0.298,-0.888 0.536,-1.285 0.101,-0.169 0.236,-0.306 0.384,-0.431 0.08,-0.067 0.173,-0.125 0.248,-0.197 0.12,-0.112 0.206,-0.314 0.265,-0.464 0.026,-0.066 0.015,-0.122 0.029,-0.189 0.012,-0.062 0.036,-0.098 0.039,-0.162 0.011,-0.211 -0.016,-0.426 -0.053,-0.633 -0.065,-0.366 -0.12,-0.709 -0.119,-1.082 0.001,-0.353 -0.105,-0.718 -0.011,-1.063 0.104,-0.381 0.34,-0.712 0.528,-1.062 0.055,-0.103 0.082,-0.204 0.169,-0.29 0.054,-0.053 0.151,-0.07 0.174,-0.148 0.011,-0.037 -0.003,-0.081 0.007,-0.121 0.013,-0.05 0.035,-0.068 0.034,-0.136 -0.003,-0.172 0.038,-0.3 -0.001,-0.462 -0.029,-0.124 -0.039,-0.23 -0.101,-0.336 -0.076,-0.131 -0.157,-0.301 -0.2,-0.445 -0.095,-0.32 -0.162,-0.648 -0.234,-0.967 -0.064,-0.28 0.074,-0.626 0.235,-0.858 0.057,-0.081 0.115,-0.162 0.17,-0.244 0.115,-0.174 0.156,-0.302 0.217,-0.503 0.02,-0.067 0.031,-0.125 0.042,-0.193 0.009,-0.054 0.039,-0.1 0.046,-0.154 0.009,-0.059 -0.028,-0.117 -0.046,-0.172 -0.038,-0.119 -0.052,-0.245 -0.086,-0.366 -0.052,-0.185 -0.119,-0.385 -0.129,-0.577 -0.006,-0.106 0,-0.163 0.054,-0.244 0.078,-0.116 0.099,-0.263 0.161,-0.39 0.062,-0.125 0.161,-0.191 0.248,-0.296 0.052,0.053 0.067,0.154 0.09,0.223 0.024,0.072 0.07,0.149 0.088,0.219 0.058,0.228 -0.041,0.47 -0.04,0.695 0.001,0.099 -10e-4,0.198 0,0.298 0.001,0.133 -0.029,0.264 -0.013,0.395 0.027,0.222 0.065,0.435 0.101,0.652 0.022,0.132 0.004,0.301 -0.044,0.421 -0.056,0.14 -0.067,0.292 -0.128,0.429 -0.062,0.142 -0.132,0.271 -0.184,0.417 -0.069,0.197 -0.086,0.345 -0.078,0.557 0.012,0.325 0.17,0.694 0.324,0.972 0.062,0.111 0.115,0.255 0.142,0.379 0.018,0.08 0.002,0.158 0.018,0.239 0.018,0.09 0.034,0.136 0.026,0.226 -0.04,0.445 -0.217,0.857 -0.31,1.291 -0.044,0.202 -0.086,0.424 -0.164,0.615 -0.084,0.205 -0.093,0.418 -0.129,0.637 -0.058,0.348 -0.073,0.674 -0.077,1.024 -0.003,0.282 0.085,0.597 0.291,0.796 0.195,0.187 1.022,0.717 1.044,0.09 0.003,-0.097 0.013,-0.227 0.004,-0.323 -0.016,-0.171 -0.187,-0.3 -0.278,-0.437 -0.126,-0.191 -0.27,-0.386 -0.323,-0.61 -0.035,-0.146 -0.022,-0.335 0.017,-0.478 0.025,-0.09 0.039,-0.195 0.067,-0.282 0.034,-0.108 0.121,-0.194 0.181,-0.288 0.153,-0.239 0.312,-0.478 0.416,-0.744 0.029,-0.076 0.06,-0.147 0.096,-0.221 0.067,-0.142 0.078,-0.275 0.106,-0.427 0.043,-0.235 0.023,-0.509 0.013,-0.747 C -3.702,-9.132 -3.78,-9.348 -3.86,-9.536 -3.934,-9.71 -3.953,-9.914 -4,-10.099 c -0.07,-0.282 -0.097,-0.634 -0.043,-0.917 0.098,-0.514 0.159,-1.03 0.228,-1.548 0.029,-0.223 0.037,-0.436 0.033,-0.66 -0.003,-0.18 -0.08,-0.343 -0.089,-0.52 -0.007,-0.152 -0.01,-0.303 0.042,-0.446 0.046,-0.127 0.097,-0.247 0.122,-0.381 0.017,-0.084 0.017,-0.17 0.051,-0.252 0.048,-0.119 0.136,-0.207 0.164,-0.338 0.012,-0.06 -0.006,-0.095 0.05,-0.131 0.081,-0.052 0.296,-0.013 0.397,-0.009 0.124,0.004 0.137,-0.003 0.177,0.1 0.026,0.066 0.028,0.172 0.032,0.245 0.01,0.227 -0.038,0.459 -0.111,0.671 -0.086,0.252 -0.118,0.521 -0.194,0.778 -0.083,0.284 -0.129,0.547 -0.021,0.83 0.089,0.235 0.117,0.434 0.111,0.685 -0.006,0.272 -0.114,0.507 -0.168,0.768 -0.038,0.187 -0.018,0.424 -0.012,0.613 0.01,0.304 0.153,0.617 0.263,0.896 0.078,0.198 0.131,0.377 0.13,0.591 0,0.17 0.006,0.337 -0.025,0.505 -0.023,0.124 -0.073,0.238 -0.096,0.363 -0.044,0.24 -0.07,0.43 -0.213,0.634 -0.126,0.182 -0.137,0.252 -0.14,0.457 -0.005,0.412 0.15,0.815 0.175,1.225 0.023,0.365 -0.298,0.746 -0.048,1.095 0.177,0.246 1.13,0.987 1.236,0.357 0.079,-0.471 0.194,-1.001 0.009,-1.455 -0.076,-0.186 -0.065,-0.375 -0.116,-0.566 -0.039,-0.148 -0.091,-0.322 -0.099,-0.474 -0.007,-0.118 -0.011,-0.249 0.002,-0.367 0.02,-0.185 0.116,-0.322 0.172,-0.496 0.043,-0.131 0.085,-0.268 0.126,-0.4 0.035,-0.115 0.048,-0.232 0.087,-0.345 0.044,-0.128 0.047,-0.248 0.046,-0.382 -0.003,-0.276 0.012,-0.533 -0.059,-0.804 -0.08,-0.301 -0.216,-0.629 -0.371,-0.898 -0.088,-0.152 -0.181,-0.301 -0.216,-0.472 -0.039,-0.192 -0.131,-0.385 -0.13,-0.582 0,-0.183 0.089,-0.343 0.088,-0.53 0,-0.135 0.025,-0.26 0.053,-0.392 0.031,-0.145 0.064,-0.289 0.076,-0.438 0.013,-0.159 0.051,-0.218 -0.044,-0.373 0.152,0.036 0.339,0.143 0.457,0.245 0.092,0.08 0.059,0.176 0.058,0.288 -0.003,0.191 0.016,0.388 -0.007,0.579 -0.028,0.234 -0.119,0.453 -0.117,0.692 0.003,0.353 0.163,0.631 0.28,0.954 0.148,0.407 0.289,0.801 0.371,1.229 0.038,0.197 0.061,0.396 0.098,0.592 0.041,0.216 0.1,0.432 0.1,0.652 0,0.35 -0.153,0.688 -0.212,1.029 -0.04,0.233 -0.041,0.451 -0.04,0.688 10e-4,0.353 -0.035,0.678 0.04,1.028 0.043,0.206 0.131,0.371 0.131,0.584 -0.001,0.099 -0.002,0.186 -0.023,0.282 -0.013,0.064 -0.055,0.187 -0.018,0.25 0.089,0.154 0.4,0.003 0.482,-0.094 0.09,-0.106 0.113,-0.231 0.129,-0.365 0.026,-0.217 0.042,-0.436 0.026,-0.655 -0.021,-0.286 -0.105,-0.61 0.009,-0.887 0.056,-0.137 0.149,-0.253 0.201,-0.393 0.059,-0.159 0.088,-0.32 0.12,-0.485 0.036,-0.186 0.084,-0.394 0.065,-0.584 -0.022,-0.207 -0.147,-0.397 -0.253,-0.573 -0.128,-0.213 -0.294,-0.423 -0.345,-0.672 -0.101,-0.503 0.179,-1.005 0.055,-1.503 -0.05,-0.198 -0.172,-0.376 -0.274,-0.55 -0.044,-0.075 -0.092,-0.126 -0.09,-0.211 0.002,-0.095 0.051,-0.139 0.134,-0.152 0.256,-0.04 0.434,0.204 0.579,0.372 0.25,0.289 0.57,0.596 0.697,0.962 0.077,0.224 0.087,0.474 0.088,0.71 0,0.332 -0.089,0.657 -0.123,0.986 -0.027,0.266 -0.06,0.533 -0.079,0.799 -0.033,0.436 0.013,0.853 -0.101,1.283 -0.061,0.228 -0.168,0.451 -0.205,0.685 -0.028,0.18 -0.009,0.384 -0.004,0.565 0.01,0.397 0.23,0.787 0.437,1.117 0.115,0.183 0.292,0.342 0.448,0.489 0.15,0.141 0.358,0.283 0.475,0.454 0.09,0.129 0.15,0.342 0.177,0.493 0.013,0.074 0.009,0.138 0.04,0.208 0.105,0.239 0.287,0.457 0.41,0.688 0.16,0.3 0.352,0.577 0.645,0.759 0.255,0.159 0.566,0.288 0.854,0.38 0.194,0.062 0.452,0.073 0.62,0.198 0.04,0.03 0.074,0.071 0.114,0.102 0.166,0.126 0.388,0.188 0.583,0.252 0.331,0.107 0.642,0.224 0.958,0.365 0.111,0.049 0.219,0.063 0.337,0.092 0.236,0.058 0.459,0.162 0.7,0.203 0.292,0.05 0.574,0.071 0.862,0.148 C 7.69,0.849 7.815,0.883 7.943,0.91 8.037,0.931 8.187,0.919 8.272,0.959 8.57,1.101 7.965,1.536 7.844,1.601"
             style="fill:#100f0d;fill-opacity:1;fill-rule:nonzero;stroke:none"
             id="path52711" />
        </g>
      </g>
    </g>
  </g>
</svg>
