<?xml version="1.0" encoding="UTF-8" standalone="no"?>
<!-- Created with Inkscape (http://www.inkscape.org/) -->

<svg
   width="7.2273273mm"
   height="6.9845595mm"
   viewBox="0 0 7.2273273 6.9845595"
   version="1.1"
   id="svg8673"
   inkscape:version="1.2.1 (9c6d41e4, 2022-07-14)"
   sodipodi:docname="rats.svg"
   xmlns:inkscape="http://www.inkscape.org/namespaces/inkscape"
   xmlns:sodipodi="http://sodipodi.sourceforge.net/DTD/sodipodi-0.dtd"
   xmlns="http://www.w3.org/2000/svg"
   xmlns:svg="http://www.w3.org/2000/svg">
  <sodipodi:namedview
     id="namedview8675"
     pagecolor="#505050"
     bordercolor="#eeeeee"
     borderopacity="1"
     inkscape:showpageshadow="0"
     inkscape:pageopacity="0"
     inkscape:pagecheckerboard="0"
     inkscape:deskcolor="#505050"
     inkscape:document-units="mm"
     showgrid="false"
     inkscape:zoom="0.70199214"
     inkscape:cx="-15.669691"
     inkscape:cy="109.68784"
     inkscape:window-width="1390"
     inkscape:window-height="938"
     inkscape:window-x="0"
     inkscape:window-y="25"
     inkscape:window-maximized="0"
     inkscape:current-layer="layer1" />
  <defs
     id="defs8670">
    <clipPath
       clipPathUnits="userSpaceOnUse"
       id="clipPath1370">
      <path
         d="m 84.35,100.174 h 24.699 v 24.699 H 84.35 Z"
         id="path1368" />
    </clipPath>
  </defs>
  <g
     inkscape:label="Layer 1"
     inkscape:groupmode="layer"
     id="layer1"
     transform="translate(-109.4574,-119.37828)">
    <g
       id="g1364"
       transform="matrix(0.35277777,0,0,-0.35277777,79.060648,162.36099)">
      <g
         id="g1366"
         clip-path="url(#clipPath1370)">
        <g
           id="g1372"
           transform="translate(103.456,113.579)">
          <path
             d="M 0,0 C 0.298,-0.059 0.185,-0.413 0.093,-0.596 0.038,-0.816 -0.111,-0.981 -0.2,-1.181 -0.346,-1.375 -0.48,-1.605 -0.689,-1.732 -0.921,-1.809 -1.058,-2.046 -1.298,-2.101 -1.609,-2.359 -2.041,-2.332 -2.416,-2.417 -2.731,-2.489 -3,-2.986 -2.998,-3.289 c 0.002,-0.263 0.04,-0.473 0.173,-0.696 0.062,-0.106 0.106,-0.218 0.171,-0.319 0.039,-0.061 0.122,-0.074 0.108,-0.176 -0.135,0.025 -0.226,0.054 -0.372,0.051 -0.159,-0.002 -0.231,0.031 -0.364,0.115 -0.244,0.154 -0.406,0.327 -0.56,0.572 -0.098,0.157 -0.093,0.393 -0.057,0.569 0.054,0.259 0.094,0.535 0.107,0.799 0.005,0.094 0.007,0.183 0.047,0.27 0.138,0.298 0.458,0.331 0.734,0.436 -0.014,-0.014 0,0.07 -0.014,0.056 0.065,0 -0.026,0.027 0.037,0.047 0.088,0.028 0.163,0.125 0.252,0.16 0.072,0.029 0.149,0.041 0.221,0.073 0.402,0.18 0.762,0.408 1.114,0.669 0.227,0.169 0.457,0.433 0.734,0.509 0.154,0.042 0.278,0.173 0.427,0.209 0.081,0.019 0.173,-0.016 0.252,0.012 C 0.014,0.079 -0.002,-0.012 0,0"
             style="fill:#110f0d;fill-opacity:1;fill-rule:nonzero;stroke:none"
             id="path1374" />
        </g>
        <g
           id="g1376"
           transform="translate(93.0828,114.025)">
          <path
             d="m 0,0 c -0.19,-0.018 -0.372,-0.132 -0.448,-0.314 -0.044,-0.107 -0.039,-0.233 -0.054,-0.345 -0.054,-0.416 -0.125,-0.846 -0.014,-1.259 0.061,-0.224 0.089,-0.493 0.3,-0.63 0.072,-0.047 0.161,-0.057 0.232,-0.106 0.09,-0.062 0.14,-0.21 0.251,-0.231 -0.05,0.165 -0.134,0.304 -0.157,0.479 -0.024,0.183 -0.02,0.371 -0.007,0.555 0.017,0.232 0.055,0.474 0.322,0.515 0.246,0.037 0.515,-0.062 0.756,-0.098 0.202,-0.03 0.337,0.011 0.528,0.079 0.179,0.063 0.366,0.092 0.544,0.15 0.225,0.073 0.464,-0.031 0.685,0.039 0.209,0.043 0.462,0.097 0.624,-0.059 0.187,0.169 0.499,0.021 0.708,-0.063 0.189,-0.072 0.375,-0.164 0.553,-0.25 0.283,-0.107 0.45,0.323 0.228,0.487 C 4.842,-0.882 4.585,-0.787 4.368,-0.627 3.97,-0.387 3.499,-0.305 3.04,-0.297 2.775,-0.295 2.523,-0.393 2.258,-0.4 1.92,-0.425 1.586,-0.342 1.249,-0.314 0.907,-0.268 0.559,-0.209 0.254,-0.038 0.174,-0.004 0.086,0.008 0,0"
             style="fill:#110f0d;fill-opacity:1;fill-rule:nonzero;stroke:none"
             id="path1378" />
        </g>
        <g
           id="g1380"
           transform="translate(106.634,115.384)">
          <path
             d="M 0,0 C -0.043,0.351 -0.085,0.71 -0.246,1.031 -0.321,1.26 -0.368,1.498 -0.485,1.712 -0.614,2.032 -0.832,2.301 -1.024,2.584 -1.123,2.73 -1.147,2.97 -1.202,3.137 -1.257,3.304 -1.317,3.505 -1.433,3.64 -1.527,3.75 -1.621,3.801 -1.676,3.944 -1.742,4.115 -1.785,4.293 -1.859,4.461 -1.916,4.589 -1.985,4.729 -2.059,4.847 -2.139,4.975 -2.082,4.921 -2.24,4.981 -2.394,5.039 -2.475,5.136 -2.576,5.263 -2.684,5.399 -2.711,5.396 -2.87,5.441 -3.019,5.483 -3.153,5.583 -3.277,5.673 -3.506,5.838 -3.709,5.988 -3.961,6.117 -4.174,6.226 -4.405,6.273 -4.624,6.365 -4.809,6.442 -4.978,6.484 -5.182,6.437 -5.27,6.417 -5.331,6.369 -5.423,6.357 -5.486,6.348 -5.539,6.354 -5.603,6.334 -5.755,6.287 -5.856,6.278 -6.015,6.275 -6.219,6.271 -6.416,6.202 -6.621,6.189 -6.743,6.181 -6.852,6.149 -6.972,6.127 -7.125,6.098 -7.273,6.099 -7.428,6.102 -7.808,6.108 -8.123,6.025 -8.477,5.887 -8.647,5.82 -8.843,5.754 -8.989,5.642 -9.339,5.374 -9.785,5.282 -10.2,5.151 -10.662,5.006 -11.106,4.824 -11.574,4.695 -11.757,4.644 -11.938,4.581 -12.124,4.544 -12.253,4.517 -12.381,4.506 -12.509,4.472 -12.753,4.409 -12.991,4.381 -13.231,4.298 -13.366,4.252 -13.526,4.205 -13.668,4.18 -13.962,4.129 -14.247,4.041 -14.454,3.804 -14.506,3.745 -14.523,3.66 -14.565,3.593 -14.607,3.525 -14.67,3.472 -14.708,3.402 -14.758,3.31 -14.765,3.201 -14.781,3.099 -14.805,2.957 -14.843,2.818 -14.873,2.677 -14.949,2.311 -14.965,1.868 -14.903,1.5 c 0.023,-0.14 0.088,-0.275 0.152,-0.41 0.046,-0.096 0.091,-0.191 0.121,-0.288 0.072,-0.23 0.141,-0.473 0.271,-0.678 0.162,-0.257 0.468,-0.416 0.727,-0.558 0.072,-0.04 0.18,-0.073 0.241,-0.129 0.201,-0.181 0.475,-0.211 0.728,-0.258 0.207,-0.056 0.432,0.022 0.631,-0.077 0.241,-0.014 0.483,0.032 0.723,-0.012 0.181,-0.039 0.31,0.08 0.456,0.006 0.226,0.047 0.453,0.036 0.68,0.036 0.308,-0.052 0.609,-0.148 0.898,-0.265 0.174,-0.147 0.416,-0.192 0.567,-0.366 0.184,-0.11 0.368,-0.226 0.56,-0.317 0.144,-0.005 0.308,-0.174 0.398,-0.153 0.113,0.001 0.272,-0.104 0.425,-0.076 0.097,-0.034 0.206,-0.043 0.299,-0.086 0.051,-0.023 0.088,-0.064 0.142,-0.08 0.166,-0.049 0.426,-0.001 0.593,0.034 0.177,0.038 0.34,0.082 0.525,0.088 0.128,0.003 0.257,0.035 0.374,0.085 0.123,0.053 0.241,0.071 0.366,0.111 0.15,0.047 0.279,0.143 0.426,0.201 0.199,0.079 0.387,0.16 0.579,0.255 0.187,0.094 0.368,0.198 0.555,0.292 0.146,0.073 0.199,0.188 0.307,0.303 0.014,0.016 0.031,0.034 0.047,0.052 -0.083,0.07 -0.153,0.068 -0.248,0.108 -0.078,0.032 -0.17,0.125 -0.261,0.116 -0.062,-0.007 -0.115,-0.055 -0.179,-0.067 -0.109,-0.022 -0.221,0.026 -0.331,-0.006 -0.097,-0.029 -0.173,-0.13 -0.277,-0.155 -0.081,-0.019 -0.16,0.011 -0.239,-0.005 -0.062,-0.013 -0.108,-0.053 -0.171,-0.063 -0.28,-0.044 -0.543,-0.055 -0.845,-0.054 -0.428,0 -0.822,0.013 -1.199,0.229 -0.155,0.088 -0.319,0.142 -0.476,0.225 -0.116,0.061 -0.188,0.157 -0.291,0.232 -0.224,0.162 -0.486,0.277 -0.733,0.399 C -8.57,0.272 -8.765,0.436 -8.988,0.503 -9.3,0.597 -9.634,0.57 -9.956,0.57 c -0.454,0 -0.908,0.004 -1.362,-0.001 -0.232,-0.002 -0.458,-0.004 -0.684,0.054 -0.164,0.043 -0.317,0.118 -0.477,0.173 -0.318,0.11 -0.509,0.365 -0.8,0.519 -0.237,0.125 -0.357,0.167 -0.346,0.456 0.006,0.152 -0.015,0.309 -0.002,0.46 0.01,0.114 0.063,0.167 0.106,0.268 0.051,0.122 0.066,0.261 0.181,0.345 0.094,0.07 0.23,0.129 0.332,0.186 0.137,0.077 0.301,0.183 0.456,0.216 0.122,0.026 0.198,0.026 0.313,0.069 0.077,0.028 0.12,0.039 0.203,0.058 0.238,0.055 0.453,0.088 0.685,0.172 0.141,0.051 0.29,0.052 0.43,0.107 0.159,0.062 0.283,0.181 0.446,0.24 0.201,0.073 0.424,0.15 0.629,0.206 0.501,0.139 0.946,0.399 1.451,0.531 0.308,0.081 0.611,0.192 0.925,0.246 0.401,0.069 0.812,0.039 1.217,0.04 0.228,0.001 0.474,0.03 0.7,-0.008 0.17,-0.029 0.332,-0.104 0.492,-0.165 0.155,-0.058 0.33,-0.063 0.48,-0.121 0.127,-0.049 0.175,-0.169 0.263,-0.264 0.091,-0.098 0.183,-0.173 0.246,-0.295 0.071,-0.137 0.095,-0.292 0.179,-0.423 0.143,-0.227 0.382,-0.421 0.564,-0.618 0.236,-0.257 0.528,-0.517 0.682,-0.831 0.184,-0.377 0.509,-0.652 0.633,-1.058 0.092,-0.303 0.128,-0.57 0.114,-0.886 -0.012,-0.299 -0.053,-0.594 -0.093,-0.889 0.002,-0.005 0.005,-0.012 0.006,-0.017 0.007,-0.029 -10e-4,-0.056 -10e-4,-0.086 0,-0.097 0.06,-0.174 0.08,-0.266 0.044,-0.203 0.035,-0.414 0.034,-0.62 0,-0.177 0.012,-0.355 -0.015,-0.531 -0.036,-0.236 -0.084,-0.485 -0.159,-0.712 -0.069,-0.211 -0.114,-0.432 -0.192,-0.64 -0.064,-0.169 -0.165,-0.327 -0.237,-0.493 -0.036,-0.085 -0.073,-0.17 -0.11,-0.255 -0.13,-0.303 -0.26,-0.614 -0.375,-0.923 -0.044,-0.117 -0.084,-0.235 -0.128,-0.351 -0.038,-0.099 -0.079,-0.274 -0.156,-0.35 -0.011,-0.01 -0.032,-0.005 -0.044,-0.018 -0.017,-0.018 -0.025,-0.041 -0.038,-0.062 -0.079,-0.127 -0.135,-0.269 -0.201,-0.403 -0.24,-0.492 -0.588,-0.947 -0.988,-1.318 -0.374,-0.346 -0.772,-0.669 -1.175,-0.981 -0.351,-0.271 -0.739,-0.481 -1.114,-0.716 -0.188,-0.119 -0.378,-0.249 -0.581,-0.34 -0.23,-0.101 -0.483,-0.225 -0.732,-0.268 -0.069,-0.012 -0.135,-0.008 -0.203,-0.015 -0.086,-0.009 -0.163,-0.055 -0.242,-0.085 -0.112,-0.045 -0.228,-0.063 -0.341,-0.101 -0.161,-0.054 -0.312,-0.125 -0.479,-0.165 -0.09,-0.022 -0.183,-0.05 -0.27,-0.082 -0.129,-0.048 -0.244,-0.113 -0.378,-0.143 -0.124,-0.029 -0.228,-0.086 -0.338,-0.145 -0.169,-0.091 -0.359,-0.106 -0.531,-0.185 -0.141,-0.064 -0.257,-0.154 -0.381,-0.244 -0.084,-0.061 -0.186,-0.079 -0.274,-0.134 -0.246,-0.157 -0.444,-0.395 -0.616,-0.627 -0.183,-0.248 -0.263,-0.558 -0.194,-0.86 0.031,-0.135 0.057,-0.259 0.129,-0.376 0.033,-0.053 0.081,-0.172 0.153,-0.187 0.03,0.085 0.005,0.226 0.005,0.319 0,0.119 -0.019,0.246 0.034,0.355 0.076,0.157 0.132,0.321 0.25,0.453 0.064,0.074 0.153,0.129 0.222,0.2 0.087,0.088 0.185,0.149 0.288,0.215 0.279,0.178 0.625,0.233 0.947,0.28 0.283,0.041 0.56,0.158 0.837,0.225 0.195,0.048 0.393,0.08 0.591,0.112 0.159,0.025 0.305,0.091 0.464,0.09 0.05,-10e-4 0.1,-0.005 0.148,0.005 0.169,0.032 0.339,0.074 0.508,0.109 0.121,0.025 0.231,0.062 0.356,0.058 0.118,-0.005 0.209,0.033 0.32,0.08 0.486,0.209 0.972,0.435 1.439,0.684 0.539,0.287 1.017,0.65 1.518,0.995 0.215,0.149 0.424,0.306 0.625,0.473 0.088,0.074 0.173,0.172 0.276,0.225 0.033,0.017 0.066,0.028 0.097,0.051 0.156,0.118 0.212,0.347 0.369,0.458 0.154,0.108 0.24,0.349 0.371,0.514 0.101,-0.081 0.065,0.151 0.149,0.191 0.129,0.198 0.303,0.363 0.384,0.591 0.153,0.198 0.258,0.426 0.405,0.628 0.119,0.159 0.117,0.379 0.265,0.522 0.167,0.113 0.099,0.345 0.24,0.505 0.073,0.203 0.158,0.408 0.244,0.613 0.115,0.109 0.103,0.366 0.162,0.434 0.104,0.036 -0.011,0.26 0.113,0.322 0.058,0.215 0.15,0.42 0.173,0.644 0.053,0.226 0.112,0.453 0.118,0.687 0.124,0.226 0.064,0.494 0.137,0.734 0.037,0.249 0.022,0.499 0.032,0.749 C 0.027,-0.548 0.016,-0.273 0,0"
             style="fill:#110f0d;fill-opacity:1;fill-rule:nonzero;stroke:none"
             id="path1382" />
        </g>
        <g
           id="g1384"
           transform="translate(92.2097,114.445)">
          <path
             d="M 0,0 C -0.108,0.058 -0.071,0.302 -0.188,0.411 -0.281,0.561 -0.422,0.672 -0.511,0.824 -0.508,0.59 -0.516,0.339 -0.682,0.181 -0.863,0.009 -1.196,-0.078 -1.427,-0.16 c -0.12,-0.042 -0.197,-0.135 -0.288,-0.218 -0.092,-0.084 -0.195,-0.146 -0.288,-0.227 -0.162,-0.141 -0.299,-0.314 -0.456,-0.461 -0.107,-0.101 -0.225,-0.183 -0.344,-0.271 -0.105,-0.078 -0.175,-0.081 -0.276,-0.132 -0.186,-0.093 -0.306,-0.276 -0.479,-0.387 -0.163,-0.105 -0.314,-0.12 -0.501,-0.125 -0.105,-0.002 -0.294,-0.046 -0.351,0.054 -0.043,0.075 0.058,0.263 0.081,0.334 0.048,0.15 0.08,0.293 0.165,0.429 0.109,0.173 0.24,0.314 0.333,0.498 0.138,0.273 0.289,0.513 0.399,0.797 0.138,0.357 0.18,0.733 0.402,1.052 0.203,0.292 0.414,0.559 0.673,0.799 0.271,0.25 0.521,0.492 0.746,0.789 0.099,0.13 0.216,0.261 0.297,0.404 0.051,0.089 0.092,0.18 0.134,0.271 C -1.184,3.5 -1.185,3.554 -1.192,3.609 -1.218,3.81 -1.183,4.034 -1.294,4.213 -1.361,4.321 -1.446,4.348 -1.566,4.401 -1.583,4.438 -1.582,4.478 -1.595,4.514 -1.605,4.541 -1.628,4.559 -1.637,4.586 -1.65,4.623 -1.615,4.737 -1.693,4.707 -1.71,4.7 -1.719,4.671 -1.734,4.661 -1.745,4.654 -1.803,4.635 -1.814,4.632 -1.89,4.614 -1.982,4.623 -2.06,4.625 -2.156,4.628 -2.183,4.663 -2.186,4.755 -2.189,4.864 -2.172,4.983 -2.214,5.087 -2.27,5.224 -2.375,5.232 -2.505,5.21 -2.596,5.195 -2.673,5.16 -2.755,5.119 -3.022,4.986 -3.298,4.919 -3.44,4.623 -3.569,4.353 -3.481,4.037 -3.301,3.813 -3.136,3.564 -3.012,3.231 -3.135,2.938 -3.226,2.743 -3.438,2.651 -3.576,2.493 -3.761,2.307 -3.97,2.147 -4.19,2.005 -4.506,1.748 -4.61,1.338 -4.748,0.971 -4.774,0.901 -4.828,0.788 -4.791,0.716 -4.754,0.647 -4.657,0.637 -4.588,0.65 c 0.119,0.024 0.17,0.188 0.271,0.251 0.056,0.034 0.135,0.085 0.175,0.141 C -4.133,0.871 -4.228,0.662 -4.3,0.51 -4.375,0.348 -4.586,0.279 -4.716,0.168 c -0.191,-0.162 -0.339,-0.4 -0.376,-0.65 -0.013,-0.086 0,-0.172 -0.009,-0.257 -0.014,-0.144 -0.072,-0.286 -0.114,-0.424 -0.061,-0.296 -0.277,-0.565 -0.573,-0.65 -0.332,-0.164 -0.343,-0.691 -0.034,-0.887 0.119,-0.076 0.242,-0.11 0.374,-0.155 0.095,-0.033 0.175,-0.083 0.266,-0.121 0.048,-0.021 0.091,-0.034 0.144,-0.032 0.092,0.003 0.171,0.044 0.266,0.025 0.269,-0.054 0.456,-0.316 0.725,-0.384 0.157,-0.04 0.315,-0.047 0.466,-0.097 0.135,-0.045 0.237,-0.038 0.382,-0.045 -0.196,0.088 -0.335,0.273 -0.477,0.427 -0.108,0.117 -0.041,0.198 0.08,0.263 0.155,0.082 0.325,0.142 0.484,0.215 0.088,0.041 0.181,0.071 0.267,0.116 0.038,0.02 0.076,0.041 0.11,0.069 0.015,0.013 0.075,0.096 0.086,0.097 0.231,0.021 0.404,0.175 0.603,0.274 0.256,0.041 0.424,0.275 0.671,0.346 0.23,0.069 0.366,0.273 0.55,0.396 0.121,0.159 0.302,0.207 0.399,0.383 0.131,0.154 0.242,0.332 0.292,0.53 C -0.173,-0.233 0.053,-0.118 0,0"
             style="fill:#110f0d;fill-opacity:1;fill-rule:nonzero;stroke:none"
             id="path1386" />
        </g>
      </g>
    </g>
  </g>
</svg>
