<svg width="20" height="24" viewBox="0 0 20 24" fill="#000000" xmlns="http://www.w3.org/2000/svg">
  <path d="M7.51592 11.0215C7.59565 10.9691 7.64563 10.9013 7.91337 10.9429C7.94788 10.7168 7.96335 10.4883 8.00143 10.2622C8.04189 10.0147 8.10972 9.77197 8.15851 9.52684C8.21325 9.25671 8.25014 8.88068 8.41674 8.64625C8.51193 8.51179 8.62498 8.38922 8.69995 8.24047C8.83442 7.97391 8.92248 7.68118 9.00221 7.39439C9.05814 7.19091 9.10692 6.99099 9.15452 6.78512C9.21402 6.52809 9.22592 6.2532 9.31279 6.00331C9.66146 5.00848 9.79354 3.95059 9.98037 2.9165C10.0732 2.40362 10.0696 1.8824 10.1493 1.36952C10.1755 1.19817 10.1958 1.02086 10.2053 0.847121C10.21 0.772153 10.2112 0.690044 10.2124 0.607935C10.116 0.89234 9.96133 1.23268 9.93515 1.29812C9.71143 1.86099 9.60553 2.47739 9.41751 3.05573C9.34016 3.2961 9.31398 3.53529 9.26281 3.78161C9.2283 3.95178 9.14024 4.08744 9.09384 4.25166C9.02482 4.49917 8.9439 4.7455 8.85465 4.98825C8.71661 5.36548 8.58452 5.77007 8.40722 6.13063C8.11329 6.73276 7.98834 7.42057 7.88601 8.07863C7.84793 8.3321 7.76106 8.57485 7.72179 8.82832C7.68252 9.07584 7.63254 9.31859 7.58613 9.56373C7.53377 9.84218 7.46356 10.1111 7.46356 10.3955C7.46475 10.511 7.47546 10.5954 7.49926 10.7073C7.52068 10.8108 7.48498 10.9227 7.51592 11.0215Z"/>
  <path d="M10.2603 0.202859C10.2246 0.325427 10.2162 0.468225 10.2127 0.607452C10.2841 0.398016 10.3257 0.218329 10.2603 0.202859Z"/>
  <path d="M14.6977 0.53593C14.6965 0.55735 14.6977 0.57877 14.6977 0.600189C14.7179 0.449062 14.7322 0.296744 14.7393 0.145617C14.7274 0.275325 14.7012 0.402652 14.6977 0.53593Z"/>
  <path d="M12.721 9.7865C12.7246 9.90192 12.7508 10.0138 12.7769 10.1245C12.7876 10.1673 12.8138 10.2756 12.8674 10.3029C12.9174 10.253 12.9471 10.1578 13.1268 10.2684C13.1399 10.2601 13.153 10.2518 13.1661 10.2434C13.1018 10.2982 13.1268 10.1435 13.1268 10.0923C13.1268 9.87694 13.1637 9.7032 13.2172 9.49376C13.3398 9.01539 13.4076 8.51679 13.5766 8.05389C13.629 7.91109 13.654 7.76115 13.6766 7.61121C13.7099 7.38155 13.7932 7.16973 13.8348 6.94244C13.8801 6.69255 13.9657 6.44979 14.0252 6.20109C14.0538 6.07733 14.0966 5.96071 14.1121 5.83576C14.1252 5.72271 14.1264 5.61443 14.1478 5.50138C14.1906 5.27885 14.2216 5.05751 14.2585 4.83499C14.3096 4.52916 14.4013 4.23405 14.4655 3.93298C14.5631 3.47008 14.4739 3.00004 14.5405 2.53714C14.6036 2.09565 14.6059 1.65536 14.6773 1.21507C14.7107 1.01039 14.6952 0.806905 14.6976 0.599849C14.6428 1.00801 14.5464 1.4126 14.4512 1.80887C14.3227 2.34674 14.2204 2.89413 14.03 3.41534C13.9538 3.62597 13.9336 3.85325 13.8455 4.05912C13.7503 4.28284 13.6825 4.50536 13.5849 4.72908C13.4731 4.98493 13.4338 5.27766 13.3505 5.54303C13.2684 5.80839 13.1839 6.07971 13.0816 6.33674C12.9352 6.70683 12.9328 7.11975 12.8091 7.50411C12.6806 7.90395 12.7222 8.36804 12.7222 8.78334C12.7222 9.11654 12.7103 9.4533 12.721 9.7865Z"/>
  <path d="M14.739 0.145172C14.7437 0.0975729 14.7461 0.0487837 14.7437 -5.50433e-06C14.7437 0.0487837 14.7413 0.0963829 14.739 0.145172Z"/>
  <path d="M15.9136 12.1682C15.9231 12.1039 15.941 12.0396 15.9541 11.9837C16.0362 11.6279 16.173 11.2959 16.3087 10.9579C16.4991 10.4879 16.6764 10.0095 16.8168 9.52283C16.8918 9.26698 16.9644 9.01114 17.037 8.7541C17.1012 8.53158 17.1143 8.3031 17.1691 8.07819C17.2167 7.87828 17.2916 7.68907 17.3071 7.4832C17.3226 7.26663 17.3523 7.06314 17.3499 6.84418C17.3452 6.43364 17.4023 6.01834 17.4868 5.61731C17.5213 5.44953 17.526 5.29721 17.5296 5.12585C17.5332 4.95211 17.5677 4.78076 17.5748 4.60583C17.5808 4.43328 17.607 4.24765 17.632 4.07629C17.6593 3.89303 17.6665 3.70621 17.6986 3.52176C17.7581 3.17785 17.8723 2.80182 17.8462 2.45078C17.8331 3.06124 17.5832 3.61101 17.394 4.18458C17.2107 4.73792 17.0048 5.28531 16.8347 5.84222C16.7145 6.23134 16.58 6.60738 16.4301 6.98579C16.3456 7.1988 16.3051 7.39752 16.2623 7.62005C16.2111 7.88661 16.1112 8.15435 16.0469 8.41853C15.9398 8.86239 15.8434 9.32529 15.7875 9.77749C15.7649 9.96074 15.7613 10.1273 15.7161 10.3082C15.6697 10.4962 15.5911 10.6878 15.5614 10.8794C15.4828 11.3744 15.5245 11.8695 15.5078 12.3693C15.49 12.2836 15.6364 12.1265 15.9136 12.1682Z"/>
  <path d="M19.7677 5.63968C19.7237 5.64325 19.713 5.85983 19.6939 5.90386C19.5999 6.11329 19.4905 6.31797 19.3917 6.52622C19.2584 6.80824 19.1442 7.10217 19.024 7.39014C18.9109 7.66265 18.8705 7.95776 18.7622 8.22908C18.7158 8.3457 18.6408 8.44923 18.6051 8.5706C18.5694 8.6896 18.5623 8.81812 18.542 8.9395C18.5075 9.14298 18.4611 9.34647 18.4195 9.54877C18.3243 10.0081 18.2303 10.4841 18.091 10.9315C18.0208 11.1576 18.022 11.3909 17.9709 11.6205C17.953 11.7038 17.9149 11.7788 17.8887 11.8597C17.8471 11.993 17.84 12.1358 17.8233 12.2738C17.79 12.5392 17.7329 12.7986 17.7007 13.064C17.6626 13.3638 17.546 13.6423 17.5294 13.9434C17.5115 14.2611 17.3866 14.5443 17.3509 14.8525C17.339 14.956 17.2938 15.0441 17.2711 15.1298C17.2497 15.2107 17.2664 15.2928 17.2581 15.3749C17.2688 15.3583 17.2842 15.3487 17.621 15.3916C17.6329 15.3059 17.5865 15.2464 17.5734 15.1667C17.5591 15.0762 17.596 14.9786 17.6222 14.8942C17.6888 14.6871 17.7638 14.4848 17.8257 14.2754C17.9352 13.9053 18.0173 13.5316 18.1172 13.158C18.2053 12.8295 18.3159 12.4999 18.3873 12.1679C18.4492 11.8752 18.5063 11.5896 18.5992 11.304C18.667 11.0993 18.7503 10.9006 18.8241 10.6971C18.9216 10.4282 18.9681 10.1473 19.0359 9.87006C19.0859 9.67015 19.162 9.47975 19.218 9.28221C19.2775 9.06683 19.2941 8.84787 19.3286 8.62772C19.381 8.29453 19.5357 7.99703 19.588 7.66384C19.6142 7.49962 19.6178 7.3354 19.6535 7.17119C19.6939 6.98317 19.738 6.81062 19.7344 6.61666C19.7308 6.43935 19.7546 6.28227 19.7737 6.10972C19.788 5.98597 19.8177 5.7563 19.7677 5.63968Z"/>
  <path d="M15.5526 17.1671C15.2503 17.5336 14.8624 17.7966 14.4495 18.0275C14.3114 18.5118 13.9592 19.0187 13.5391 19.3115C13.1714 19.5673 12.6395 19.6399 12.3301 19.2567C12.0005 18.8462 12.1885 18.2691 12.5741 17.9692C12.9858 17.6503 13.5522 17.4706 14.0722 17.448C14.1234 17.4456 14.1698 17.4563 14.2115 17.4741C14.5827 17.2849 14.9385 17.0648 15.336 16.9244C15.4788 16.8744 15.6692 17.0255 15.5526 17.1671ZM13.1381 20.7573C13.2809 20.774 13.4261 20.7894 13.5701 20.7966C13.739 20.8037 13.9021 20.7763 14.0639 20.837C14.1662 20.8751 14.2067 20.987 14.1484 21.0774C14.0258 21.2666 13.7878 21.3535 13.5843 21.438C13.3797 21.5225 13.1655 21.5855 12.9453 21.6129L12.3575 21.6902C12.3765 21.6688 12.3944 21.6462 12.4122 21.6224C12.0219 21.5843 11.6685 21.4273 11.4733 21.0477C11.4043 20.9144 11.4103 20.7252 11.5066 20.605C11.5757 20.5169 11.6411 20.4467 11.7494 20.4051C11.8934 20.3503 12.0909 20.361 12.1909 20.4955C12.2028 20.5122 12.2147 20.5288 12.2266 20.5467C12.3313 20.6264 12.3789 20.6573 12.5467 20.6811C12.599 20.6883 12.6538 20.6954 12.7073 20.7026L13.1381 20.7573ZM11.3139 19.4912C11.127 19.6506 10.8533 19.7113 10.6153 19.6268C10.3119 19.5185 10.2262 19.2377 10.2215 18.9307C10.0882 18.9628 9.9442 18.964 9.78355 18.9176C9.42893 18.8176 9.22188 18.5487 9.10645 18.2381C8.77088 18.3416 8.40555 18.3535 8.1152 18.1489C7.65348 17.8252 7.76653 17.1838 8.17469 16.872C8.39246 16.7054 8.65664 16.6376 8.90415 16.5269C9.16357 16.4103 9.40632 16.2604 9.67288 16.1592C9.94419 16.0557 10.2227 16.0581 10.4071 16.3092C10.4761 16.4032 10.5118 16.5245 10.5297 16.6376C10.5356 16.6757 10.5404 16.7197 10.5428 16.7613C10.6272 16.7304 10.7094 16.6935 10.7891 16.6638C11.0937 16.5495 11.4067 16.7947 11.3127 17.1112C11.221 17.417 11.2484 17.7145 11.3627 18.0096C11.4709 18.2893 11.6863 18.6379 11.5019 18.9093C11.5281 19.1211 11.4995 19.3317 11.3139 19.4912M7.77248 16.1878C7.58684 16.4317 7.25008 16.59 6.9395 16.4936C6.55751 16.3758 6.38972 15.9974 6.40876 15.6321C6.42304 15.3381 6.50991 15.018 6.64795 14.742C6.65033 14.636 6.67056 14.542 6.71935 14.4302C6.72054 14.4278 6.72054 14.4254 6.72173 14.423C6.7134 14.3504 6.71221 14.279 6.71697 14.2124C6.72411 14.1208 6.7491 14.0399 6.7729 13.9589C6.77171 13.7697 6.77052 13.571 6.8205 13.3878C6.82764 13.3045 6.8443 13.2235 6.88476 13.1379C6.9621 12.9784 7.20486 12.9713 7.24889 13.1617C7.28816 13.3259 7.26079 13.4615 7.26317 13.6257C7.26555 13.8126 7.34647 13.884 7.42263 14.0399C7.45476 14.1041 7.47499 14.1696 7.49046 14.2374C7.56423 14.2624 7.63444 14.3064 7.69751 14.3731C7.85816 14.5432 7.92599 14.9002 7.89029 15.2417C7.96288 15.5642 7.98668 15.9081 7.77248 16.1878M10.2108 14.3885C10.3048 14.0077 10.5071 13.5448 10.8165 13.2818C10.8414 13.2604 10.8688 13.2402 10.8974 13.2223C11.1806 12.644 11.5447 12.1002 12.1326 11.786C12.2409 11.7289 12.3908 11.8503 12.3396 11.9633C12.1814 12.3132 11.9719 12.6285 11.8053 12.976C11.7589 13.0724 11.7101 13.1676 11.6613 13.2628C11.6863 13.2961 11.7054 13.3354 11.7185 13.3806C11.7637 13.4211 11.7946 13.4746 11.8041 13.5401C11.8779 14.0256 11.7232 14.5289 11.4912 14.955C11.302 15.3012 10.9081 15.7177 10.4749 15.4202C10.137 15.1894 10.1227 14.7408 10.2108 14.3885M12.2492 15.2691C12.4324 14.9585 12.6954 14.7039 13.0084 14.5159C13.2321 14.3802 13.5891 14.1898 13.864 14.2767C13.9901 14.1672 14.1056 14.0411 14.2246 13.9316C14.4459 13.7281 14.6827 13.5484 14.9219 13.364C15.0659 13.2545 15.2563 13.4199 15.1599 13.5698C14.9064 13.9625 14.6518 14.4361 14.2614 14.7158C14.2174 14.7479 14.1686 14.7788 14.1186 14.811C14.1056 14.8538 14.0889 14.8966 14.0687 14.9395C14.0306 15.5821 13.6224 16.2175 12.9822 16.4603C12.6562 16.584 12.229 16.64 12.0517 16.2639C11.8981 15.9355 12.0826 15.5547 12.2492 15.2691ZM16.9401 16.0045C16.8782 16.0474 16.8151 16.1009 16.7449 16.1318C16.6819 16.1592 16.6164 16.1533 16.5498 16.1604C16.3844 16.1794 16.2297 16.2175 16.0726 16.2675C15.8989 16.3222 15.7156 16.3794 15.5561 16.471C15.4764 16.5174 15.4098 16.5614 15.3312 16.5864C15.3455 16.3496 15.3634 16.1092 15.3895 15.8724C15.2503 15.4857 14.9255 15.2275 14.7315 14.8776C14.7434 14.8586 14.7565 14.8407 14.766 14.8205C14.8207 14.7134 14.8886 14.6206 14.9719 14.5349C15.0956 14.4076 15.1908 14.2695 15.2932 14.1232C15.5419 13.7638 15.7263 13.3556 15.8263 12.9284C15.8501 12.8249 15.9143 12.4786 15.7108 12.5155C15.6359 12.5286 15.5633 12.594 15.4978 12.6285C15.4181 12.6702 15.3586 12.7107 15.2955 12.7737C15.2325 12.8368 15.1801 12.9106 15.1063 12.9594C14.9838 13.0403 14.8529 13.1081 14.7315 13.1914C14.6291 13.2604 14.5328 13.3366 14.4245 13.3973C14.3697 13.4294 14.3102 13.4592 14.2579 13.496C14.2174 13.5246 14.1805 13.5615 14.1353 13.5817C14.0568 13.6174 13.9735 13.64 13.8914 13.6591C13.5653 13.4044 13.175 13.22 12.7633 13.1117C12.749 13.1129 12.7359 13.1176 12.7216 13.1188C12.4789 13.145 12.2611 13.1509 12.0517 13.1355C12.0528 13.1319 12.0552 13.1283 12.0576 13.1236C12.0731 13.0843 12.0743 13.0415 12.0909 13.001C12.1135 12.9415 12.1504 12.8892 12.1778 12.832C12.2147 12.7559 12.2242 12.6702 12.2623 12.594C12.2932 12.531 12.3384 12.4762 12.3741 12.4155C12.4158 12.3465 12.436 12.2692 12.4741 12.2002C12.5074 12.1407 12.5372 12.0907 12.5562 12.0252C12.6109 11.8348 12.655 11.6468 12.7216 11.46C12.7882 11.2767 12.8275 11.0923 12.8335 10.8971C12.8347 10.8769 12.8561 10.6972 12.8335 10.6817C12.812 10.6663 12.8097 10.6734 12.7894 10.6853C12.7811 10.6901 12.7763 10.7103 12.7692 10.7174C12.7525 10.7377 12.7204 10.7496 12.7002 10.7627C12.6609 10.7876 12.6133 10.8174 12.5776 10.8471C12.5491 10.8698 12.5324 10.9066 12.5074 10.934C12.4658 10.9792 12.4253 11.0185 12.3694 11.0447C12.317 11.0685 12.267 11.0911 12.2194 11.1232C12.1457 11.1732 12.0695 11.2291 12.0052 11.291C11.9267 11.366 11.8339 11.4148 11.7553 11.4921C11.7113 11.5361 11.6792 11.5933 11.628 11.629C11.578 11.6635 11.534 11.6801 11.4912 11.723C11.4495 11.7646 11.421 11.7979 11.396 11.8527C11.371 11.9086 11.3389 11.9479 11.3055 11.9979C11.2365 12.1014 11.2199 12.2299 11.1485 12.3334C11.0961 12.4096 11.0318 12.4619 10.9688 12.5298C10.8926 12.6119 10.8105 12.6857 10.7272 12.763C10.6856 12.8023 10.657 12.8582 10.6118 12.8939C10.582 12.9177 10.5475 12.9356 10.5142 12.9534C10.3976 12.9427 10.2798 12.9379 10.1632 12.9451C9.89065 13.045 9.61338 13.1307 9.32541 13.1759C9.26948 13.1843 9.21474 13.189 9.16 13.1902C9.16357 13.2021 9.16476 13.2152 9.16833 13.2271C9.16952 13.2331 9.17309 13.2378 9.17547 13.2438C9.05409 13.2985 8.93152 13.3497 8.80181 13.383C8.45315 13.4746 8.10925 13.4925 7.77962 13.577C7.75344 13.4437 7.77605 13.2973 7.71179 13.1736C7.62611 13.007 7.60588 12.8118 7.55947 12.6274C7.54401 12.5667 7.52378 12.506 7.51307 12.4441C7.50355 12.381 7.51069 12.3168 7.50474 12.2537C7.4976 12.1799 7.48451 12.1097 7.46309 12.0395C7.44167 11.9669 7.44762 11.8955 7.43572 11.8217C7.42977 11.7801 7.42501 11.6421 7.35123 11.6599C7.29887 11.673 7.2477 11.8027 7.22747 11.8503C7.19772 11.9229 7.18701 11.9943 7.16678 12.0681C7.15131 12.1288 7.11085 12.1799 7.08586 12.2359C7.03826 12.343 7.01089 12.4548 6.95853 12.5607C6.92879 12.619 6.9038 12.6797 6.87881 12.7404C6.85263 12.8023 6.84906 12.8677 6.82407 12.9296C6.7729 13.0581 6.68722 13.1652 6.62534 13.2866C6.55513 13.4235 6.52419 13.5722 6.48373 13.7186C6.45398 13.8269 6.41471 13.9328 6.39686 14.0434C6.38258 14.1267 6.35045 14.1993 6.33141 14.2814C6.31357 14.3552 6.31119 14.4254 6.28263 14.4968C6.21599 14.6598 6.14816 14.8288 6.12198 15.0037C6.11603 15.0359 6.10889 15.0668 6.10175 15.0978C6.06962 15.1465 6.03749 15.1941 6.00536 15.2417C5.70549 15.6832 5.4544 16.1521 5.17356 16.6031C4.3144 17.8169 3.28268 17.8383 2.18671 18.7855C2.17243 18.7986 2.15934 18.8141 2.14625 18.8295C1.95943 18.9354 1.79402 19.0735 1.60481 19.1758C1.34659 19.3139 1.12287 19.5031 0.878924 19.6637C0.753976 19.7458 0.638549 19.841 0.514791 19.9255C0.446962 19.9636 0.385083 20.0088 0.327964 20.0612C0.285125 20.1135 0.237526 20.1623 0.185167 20.2052C0.126858 20.2539 -0.0314097 20.3289 0.00547968 20.4301C0.151847 20.3932 0.285125 20.3396 0.423163 20.2766C0.500511 20.242 0.58143 20.2052 0.663538 20.1814C0.719467 20.1706 0.775397 20.1552 0.830136 20.1361C0.881305 20.11 0.933664 20.0862 0.988403 20.0647C1.14429 20.0136 1.27995 19.9196 1.44179 19.8767C1.59291 19.8374 1.73928 19.8172 1.89517 19.8351C2.11055 19.8601 2.26763 19.9374 2.44137 20.0612C2.59488 20.1706 2.68294 20.3349 2.81383 20.4622C2.86381 20.5122 2.81859 20.5586 2.78646 20.6074C2.75909 20.649 2.73767 20.6835 2.69603 20.7157C2.65557 20.7466 2.54014 20.7882 2.53062 20.8489C2.5806 20.818 2.63653 20.8204 2.68888 20.793C2.81383 20.7276 2.91022 20.6324 3.05659 20.6121C3.2577 20.5836 3.4707 20.7692 3.44452 20.9786C3.42905 21.1012 3.32195 21.2428 3.25413 21.3452C3.14703 21.5034 2.96853 21.5867 2.82573 21.7093C2.70436 21.8128 2.58536 21.8997 2.45089 21.9854C2.37354 22.033 2.26406 22.0699 2.2236 22.1567C2.26644 22.1329 2.31642 22.1329 2.36164 22.121C2.46398 22.0925 2.56989 22.0544 2.66866 22.0151C2.9364 21.9104 3.20772 21.814 3.47784 21.7152C3.5659 21.6843 3.6492 21.6581 3.73131 21.6129C3.84436 21.551 3.93717 21.4772 4.06093 21.4356C4.27394 21.363 4.47981 21.2833 4.70828 21.2726C4.89273 21.2654 5.06052 21.169 5.24258 21.1405C5.34016 21.125 5.43655 21.1452 5.53413 21.1548C5.62933 21.1643 5.7269 21.1988 5.82091 21.1988C5.95895 21.1988 6.11365 21.1464 6.24693 21.1107C6.30405 21.0953 6.36116 21.0691 6.42185 21.0667C6.4635 21.0655 6.50634 21.0738 6.54799 21.0726C6.59678 21.0703 6.64438 21.081 6.69317 21.0738C6.75981 21.0619 6.82645 21.0334 6.89547 21.0441C6.92522 21.0488 6.96091 21.0607 6.98352 21.0822C7.02517 21.1214 7.00851 21.1381 6.9859 21.1905C6.93831 21.2987 6.90856 21.4094 6.82883 21.4975C6.78004 21.551 6.72768 21.5986 6.68246 21.6569C6.61344 21.7438 6.5587 21.8414 6.48135 21.9223C6.30881 22.102 6.12555 22.2876 5.91611 22.4257C5.75665 22.5304 5.61029 22.6577 5.43536 22.7398C5.18189 22.8576 4.92486 22.9552 4.68924 23.1099C4.575 23.1849 4.4691 23.2729 4.36081 23.3562C4.31321 23.3919 4.24776 23.4121 4.20373 23.449C4.2311 23.4455 4.26085 23.4252 4.28584 23.4133C4.35843 23.3788 4.43102 23.3467 4.50241 23.3098C4.68448 23.2182 4.87012 23.148 5.06052 23.0754C5.2283 23.0111 5.39966 22.954 5.57221 22.9064C5.75665 22.854 5.93039 22.7755 6.1077 22.7077C6.28025 22.6422 6.45279 22.5637 6.6301 22.5137C6.76695 22.4756 6.90499 22.4768 7.04659 22.4685C7.212 22.459 7.37265 22.4471 7.52497 22.384C7.61897 22.3447 7.69989 22.3174 7.78557 22.2626C7.89743 22.1912 8.02238 22.1615 8.13662 22.0925C8.1854 22.0639 8.24371 22.0127 8.30083 22.0056C8.35081 21.9996 8.40198 22.008 8.45434 22.0008C8.49361 21.9949 8.53764 21.9937 8.57572 21.9782C8.61261 21.9628 8.64474 21.9354 8.68401 21.9235C8.75065 21.9021 8.85536 21.8806 8.91486 21.9318C8.90534 22.0246 8.82204 22.1627 8.7673 22.2329C8.68996 22.3316 8.6138 22.4292 8.5305 22.522C8.49718 22.5601 8.4591 22.5696 8.41983 22.5982C8.3758 22.6291 8.33653 22.6613 8.29012 22.6898C8.23895 22.722 8.19373 22.7672 8.13781 22.7934C8.08426 22.8183 8.03904 22.841 7.99263 22.8778C7.82722 23.0076 7.65348 23.1158 7.47737 23.2265C7.30244 23.3348 7.16678 23.4883 7.03588 23.6454C6.96329 23.7334 6.87167 23.8144 6.80622 23.9072C6.78837 23.9322 6.77171 23.9691 6.76814 24C6.95139 23.9512 7.10966 23.8703 7.27983 23.787C7.50236 23.6763 7.73678 23.599 7.96764 23.5073C8.27346 23.3848 8.59 23.2717 8.90177 23.1646C9.18737 23.0671 9.4563 22.9231 9.7419 22.8291C10.2072 22.6779 10.6867 22.5792 11.1389 22.3888C11.1604 22.3792 11.1842 22.3709 11.2068 22.3614C11.2603 22.3995 11.3151 22.4352 11.3686 22.4756C11.4305 22.4054 11.5269 22.2912 11.5519 22.1984C11.5911 22.1722 11.6316 22.1472 11.6732 22.127L11.6137 22.0758C11.6233 22.0615 11.6328 22.0461 11.6423 22.0318C11.7613 22.0758 11.8767 22.1032 12.0052 22.0996C12.248 22.0948 12.4836 22.0829 12.7228 22.0449C12.9346 22.0104 13.1405 21.9568 13.3511 21.9175C13.5427 21.883 13.7176 21.8116 13.8914 21.7283C14.0127 21.67 14.1413 21.6296 14.2591 21.5629C14.3959 21.4856 14.5232 21.4011 14.6637 21.3297C14.7672 21.2761 14.8683 21.1964 14.9612 21.125C15.0552 21.0548 15.1539 20.9965 15.2503 20.9299C15.2979 20.8977 15.4812 20.7811 15.4609 20.7204C15.38 20.7097 15.292 20.7133 15.211 20.7168C15.123 20.7192 15.0397 20.7466 14.9528 20.7418C14.8909 20.7383 14.8326 20.718 14.7708 20.7168C14.6994 20.7145 14.6291 20.7216 14.5577 20.7192C14.4376 20.7157 14.3186 20.693 14.1972 20.6942C14.1044 20.6954 14.0246 20.6919 13.933 20.6728C13.8009 20.6454 13.6736 20.624 13.5427 20.5919C13.4772 20.5752 13.4154 20.5824 13.3475 20.5824C13.269 20.5836 13.1917 20.58 13.1143 20.574C13.2309 20.4848 13.3463 20.3944 13.4594 20.3027C14.2127 19.6875 14.7767 19.0223 15.0992 18.1596C15.1301 18.137 15.1611 18.1144 15.1908 18.0894C15.2563 18.0322 15.3003 17.9739 15.3741 17.9251C15.5109 17.8347 15.6264 17.7098 15.7346 17.5872C15.9119 17.3873 16.119 17.2302 16.3189 17.0529C16.4522 16.9351 16.5843 16.8185 16.7128 16.6947C16.7794 16.6209 16.8449 16.546 16.9092 16.4698C16.9984 16.3794 17.0817 16.2842 17.1602 16.1842C17.2423 16.0724 17.3447 15.92 17.3268 15.7701C17.2864 15.7784 17.2364 15.8165 17.2007 15.8355C17.1103 15.8855 17.0258 15.9462 16.9401 16.0045Z"/>
</svg>
