<?xml version="1.0" encoding="UTF-8" standalone="no"?>
<!-- Created with Inkscape (http://www.inkscape.org/) -->

<svg
   width="20.506702"
   height="24"
   viewBox="0 0 5.4257317 6.35"
   version="1.1"
   id="svg17622"
   inkscape:version="1.2.1 (9c6d41e4, 2022-07-14)"
   sodipodi:docname="agility.svg"
   xmlns:inkscape="http://www.inkscape.org/namespaces/inkscape"
   xmlns:sodipodi="http://sodipodi.sourceforge.net/DTD/sodipodi-0.dtd"
   xmlns="http://www.w3.org/2000/svg"
   xmlns:svg="http://www.w3.org/2000/svg">
  <sodipodi:namedview
     id="namedview17624"
     pagecolor="#505050"
     bordercolor="#eeeeee"
     borderopacity="1"
     inkscape:showpageshadow="0"
     inkscape:pageopacity="0"
     inkscape:pagecheckerboard="0"
     inkscape:deskcolor="#505050"
     inkscape:document-units="mm"
     showgrid="false"
     inkscape:zoom="0.70199214"
     inkscape:cx="45.584556"
     inkscape:cy="284.90347"
     inkscape:window-width="1390"
     inkscape:window-height="938"
     inkscape:window-x="0"
     inkscape:window-y="25"
     inkscape:window-maximized="0"
     inkscape:current-layer="layer1" />
  <defs
     id="defs17619" />
  <g
     inkscape:label="Layer 1"
     inkscape:groupmode="layer"
     id="layer1"
     transform="translate(-93.029741,-73.22699)">
    <g
       fill="#231f20"
       fill-opacity="1"
       id="g15594"
       transform="matrix(0.80009846,0,0,0.80009846,-263.10778,-412.00333)">
      <g
         id="use15592"
         transform="translate(444.57401,612.68201)">
        <path
           d="m 5.3125,-0.90625 c -0.125,-0.050781 -0.234375,-0.125 -0.328125,-0.21875 -0.09375,-0.070312 -0.179687,-0.171875 -0.25,-0.296875 -0.0625,-0.125 -0.089844,-0.273437 -0.078125,-0.453125 0,-0.195312 0.023438,-0.367188 0.078125,-0.515625 C 4.785156,-2.546875 4.84375,-2.6875 4.90625,-2.8125 4.976562,-2.9375 5.050781,-3.050781 5.125,-3.15625 c 0.070312,-0.101562 0.140625,-0.207031 0.203125,-0.3125 0.09375,-0.0625 0.203125,-0.144531 0.328125,-0.25 0.125,-0.113281 0.242188,-0.238281 0.359375,-0.375 0.125,-0.132812 0.226563,-0.273438 0.3125,-0.421875 0.082031,-0.144531 0.128906,-0.285156 0.140625,-0.421875 0,-0.132812 -0.00781,-0.25 -0.015625,-0.34375 C 6.441406,-5.382812 6.429688,-5.472656 6.421875,-5.546875 6.410156,-5.617188 6.394531,-5.691406 6.375,-5.765625 6.351562,-5.835938 6.328125,-5.910156 6.296875,-5.984375 c 0.101563,0.03125 0.195313,0.085937 0.28125,0.15625 0.070313,0.054687 0.144531,0.121094 0.21875,0.203125 0.070313,0.085938 0.128906,0.1875 0.171875,0.3125 0.039062,0.136719 0.054688,0.261719 0.046875,0.375 0,0.105469 -0.015625,0.199219 -0.046875,0.28125 -0.023438,0.09375 -0.0625,0.179688 -0.125,0.25 0.00781,0.011719 0.019531,0.011719 0.03125,0 0.00781,0 0.019531,0 0.03125,0 C 6.91406,-4.41406 6.929688,-4.425781 6.953125,-4.4375 6.972656,-4.457031 6.988281,-4.472656 7,-4.484375 7.007812,-4.503906 7.019531,-4.53125 7.03125,-4.5625 c 0.0625,0.054688 0.117188,0.117188 0.171875,0.1875 0.039063,0.0625 0.070313,0.15625 0.09375,0.28125 0.03125,0.117188 0.035156,0.257812 0.015625,0.421875 -0.011719,0.15625 -0.039062,0.28125 -0.078125,0.375 C 7.191406,-3.203125 7.148438,-3.125 7.109375,-3.0625 7.054688,-3 7.003906,-2.957031 6.953125,-2.9375 H 7 c 0.00781,0 0.023438,0.00781 0.046875,0.015625 0.019531,0 0.035156,-0.00391 0.046875,-0.015625 0.03125,-0.00781 0.0625,-0.023438 0.09375,-0.046875 0.03125,-0.03125 0.050781,-0.050781 0.0625,-0.0625 0,0.085937 -0.015625,0.179687 -0.046875,0.28125 -0.023437,0.09375 -0.058594,0.199219 -0.109375,0.3125 -0.054688,0.117187 -0.136719,0.230469 -0.25,0.34375 -0.117188,0.09375 -0.21875,0.167969 -0.3125,0.21875 -0.09375,0.054687 -0.171875,0.09375 -0.234375,0.125 C 6.222656,-1.742188 6.15625,-1.726562 6.09375,-1.71875 6.070312,-1.738281 6.046875,-1.757812 6.015625,-1.78125 5.984375,-1.800781 5.9375,-1.816406 5.875,-1.828125 5.820312,-1.847656 5.75,-1.859375 5.65625,-1.859375 c -0.148438,0 -0.242188,0.027344 -0.28125,0.078125 -0.042969,0.042969 -0.054688,0.0625 -0.03125,0.0625 0.019531,-0.00781 0.050781,-0.015625 0.09375,-0.015625 0.03125,0 0.070312,0 0.125,0 0.0625,0 0.132812,0.00781 0.21875,0.015625 0.195312,0 0.269531,0.152344 0.21875,0.453125 -0.042969,0.179687 -0.121094,0.292969 -0.234375,0.34375 C 5.660156,-0.878906 5.507812,-0.875 5.3125,-0.90625 Z M 3.390625,-2.453125 c 0,-0.113281 0.00781,-0.234375 0.03125,-0.359375 C 3.429688,-2.914062 3.445312,-3.035156 3.46875,-3.171875 3.5,-3.304688 3.535156,-3.445312 3.578125,-3.59375 3.691406,-3.738281 3.789062,-3.894531 3.875,-4.0625 3.96875,-4.226562 4.046875,-4.382812 4.109375,-4.53125 4.179688,-4.695312 4.25,-4.867188 4.3125,-5.046875 c 0,-0.1875 -0.023438,-0.351563 -0.0625,-0.5 -0.042969,-0.144531 -0.085938,-0.269531 -0.125,-0.375 -0.0625,-0.113281 -0.132812,-0.210937 -0.203125,-0.296875 0.082031,0.011719 0.148437,0.027344 0.203125,0.046875 0.0625,0.023437 0.113281,0.054687 0.15625,0.09375 0.039062,0.03125 0.078125,0.074219 0.109375,0.125 0.039063,0.042969 0.085937,0.101563 0.140625,0.171875 0.070312,0.074219 0.125,0.152344 0.15625,0.234375 0.039062,0.085937 0.066406,0.164063 0.078125,0.234375 0.019531,0.085938 0.023437,0.164062 0.015625,0.234375 0.00781,0 0.03125,-0.015625 0.0625,-0.046875 C 4.85156,-5.144531 4.863281,-5.175781 4.875,-5.21875 4.88281,-5.22656 4.890625,-5.238281 4.890625,-5.25 c 0.0625,0.042969 0.113281,0.101562 0.15625,0.171875 0.03125,0.054687 0.0625,0.121094 0.09375,0.203125 0.03125,0.085938 0.046875,0.179688 0.046875,0.28125 0,0.09375 -0.00781,0.179688 -0.015625,0.25 -0.011719,0.074219 -0.023437,0.136719 -0.03125,0.1875 -0.023437,0.074219 -0.039063,0.132812 -0.046875,0.171875 0.019531,0 0.03125,0 0.03125,0 0.00781,-0.00781 0.023438,-0.019531 0.046875,-0.03125 0,-0.00781 0,-0.019531 0,-0.03125 0.00781,-0.00781 0.023437,-0.019531 0.046875,-0.03125 l 0.015625,-0.03125 c 0.019531,0.074219 0.03125,0.136719 0.03125,0.1875 0.00781,0.054687 0.019531,0.105469 0.03125,0.15625 0,0.054687 0,0.101563 0,0.140625 l -0.15625,0.171875 C 5.054688,-3.460938 4.96875,-3.46875 4.875,-3.46875 c -0.09375,0 -0.183594,0.015625 -0.265625,0.046875 -0.085937,0.023437 -0.164063,0.0625 -0.234375,0.125 C 4.3125,-3.234375 4.269531,-3.15625 4.25,-3.0625 4.113281,-2.957031 3.992188,-2.863281 3.890625,-2.78125 3.796875,-2.695312 3.71875,-2.625 3.65625,-2.5625 3.570312,-2.488281 3.503906,-2.414062 3.453125,-2.34375 Z m 2.78125,1.03125 c 0.039063,0.0625 0.082031,0.140625 0.125,0.234375 0.03125,0.074219 0.0625,0.171875 0.09375,0.296875 0.03125,0.117187 0.0625,0.25 0.09375,0.40625 L 5.296875,0.40625 5.015625,0.015625 c -0.15625,0.207031 -0.320313,0.40625 -0.484375,0.59375 -0.148438,0.15625 -0.304688,0.3125 -0.46875,0.46875 -0.167969,0.15625 -0.335938,0.269531 -0.5,0.34375 -0.09375,0.082031 -0.246094,0.144531 -0.453125,0.1875 -0.199219,0.050781 -0.4375,0.082031 -0.71875,0.09375 -0.273437,0.019531 -0.5625,0.019531 -0.875,0 C 1.203125,1.679688 0.894531,1.632812 0.59375,1.5625 0.550781,1.457031 0.535156,1.347656 0.546875,1.234375 0.546875,1.148438 0.570312,1.054688 0.625,0.953125 0.6875,0.859375 0.789062,0.78125 0.9375,0.71875 1.082031,0.632812 1.210938,0.570312 1.328125,0.53125 1.441406,0.488281 1.546875,0.457031 1.640625,0.4375 c 0.09375,-0.011719 0.175781,-0.015625 0.25,-0.015625 0.070313,0.007813 0.15625,0.023437 0.25,0.046875 0.03125,0.019531 0.0625,0.035156 0.09375,0.046875 0.03125,0.007813 0.054687,0.015625 0.078125,0.015625 0.019531,0.007812 0.03125,0.007812 0.03125,0 C 2.332031,0.507812 2.316406,0.488281 2.296875,0.46875 2.273438,0.457031 2.242188,0.4375 2.203125,0.40625 2.160156,0.363281 2.128906,0.34375 2.109375,0.34375 2.085938,0.332031 2.070312,0.328125 2.0625,0.328125 2.125,0.285156 2.1875,0.238281 2.25,0.1875 2.300781,0.132812 2.351562,0.0820312 2.40625,0.03125 2.457031,-0.0195312 2.5,-0.078125 2.53125,-0.140625 2.550781,-0.222656 2.570312,-0.3125 2.59375,-0.40625 2.613281,-0.5 2.628906,-0.609375 2.640625,-0.734375 c 0,-0.1875 0.00391,-0.351563 0.015625,-0.5 0.019531,-0.125 0.03125,-0.238281 0.03125,-0.34375 0.00781,-0.101563 0.015625,-0.160156 0.015625,-0.171875 0,-0.039062 0.00391,-0.097656 0.015625,-0.171875 C 2.738281,-1.992188 2.765625,-2.0625 2.796875,-2.125 c 0.039063,-0.0625 0.09375,-0.113281 0.15625,-0.15625 0.0625,-0.039062 0.144531,-0.0625 0.25,-0.0625 0.0625,0.011719 0.128906,0.046875 0.203125,0.109375 0.070312,0.0625 0.160156,0.132813 0.265625,0.203125 0.101563,0.074219 0.21875,0.140625 0.34375,0.203125 0.132813,0.054687 0.28125,0.078125 0.4375,0.078125 0,0.15625 0.023437,0.296875 0.078125,0.421875 0.050781,0.105469 0.125,0.210937 0.21875,0.3125 0.101562,0.105469 0.257812,0.179687 0.46875,0.21875 0.175781,0.054687 0.320312,0.0625 0.4375,0.03125 0.125,-0.039063 0.222656,-0.097656 0.296875,-0.171875 0.082031,-0.082031 0.140625,-0.164062 0.171875,-0.25 0.039062,-0.09375 0.054688,-0.171875 0.046875,-0.234375 z m 0,0"
           id="path17646" />
      </g>
    </g>
  </g>
</svg>
