<?xml version="1.0" encoding="UTF-8" standalone="no"?>
<!-- Created with Inkscape (http://www.inkscape.org/) -->

<svg
   width="18.188917"
   height="24"
   viewBox="0 0 4.8124844 6.3499999"
   version="1.1"
   id="svg17553"
   inkscape:version="1.2.1 (9c6d41e4, 2022-07-14)"
   sodipodi:docname="combat.svg"
   xmlns:inkscape="http://www.inkscape.org/namespaces/inkscape"
   xmlns:sodipodi="http://sodipodi.sourceforge.net/DTD/sodipodi-0.dtd"
   xmlns="http://www.w3.org/2000/svg"
   xmlns:svg="http://www.w3.org/2000/svg">
  <sodipodi:namedview
     id="namedview17555"
     pagecolor="#505050"
     bordercolor="#eeeeee"
     borderopacity="1"
     inkscape:showpageshadow="0"
     inkscape:pageopacity="0"
     inkscape:pagecheckerboard="0"
     inkscape:deskcolor="#505050"
     inkscape:document-units="mm"
     showgrid="false"
     inkscape:zoom="0.70199214"
     inkscape:cx="-56.980695"
     inkscape:cy="4.2735521"
     inkscape:window-width="1390"
     inkscape:window-height="938"
     inkscape:window-x="0"
     inkscape:window-y="25"
     inkscape:window-maximized="0"
     inkscape:current-layer="layer1" />
  <defs
     id="defs17550" />
  <g
     inkscape:label="Layer 1"
     inkscape:groupmode="layer"
     id="layer1"
     transform="translate(-120.26553,-147.42887)">
    <g
       fill="#231f20"
       fill-opacity="1"
       id="g15542"
       transform="matrix(0.77351634,0,0,0.77351634,-185.34866,-321.63936)">
      <g
         id="use15540"
         transform="translate(394.69101,612.68201)">
        <path
           d="M 2.09375,-3.21875 C 2.070312,-3.257812 2.03125,-3.328125 1.96875,-3.421875 1.90625,-3.523438 1.832031,-3.632812 1.75,-3.75 1.664062,-3.875 1.582031,-4 1.5,-4.125 1.414062,-4.25 1.335938,-4.367188 1.265625,-4.484375 1.253906,-4.503906 1.238281,-4.539062 1.21875,-4.59375 c -0.011719,-0.050781 -0.011719,-0.097656 0,-0.140625 0.00781,-0.050781 0.039062,-0.109375 0.09375,-0.171875 0.0625,-0.070312 0.160156,-0.132812 0.296875,-0.1875 0.101563,-0.039062 0.1875,-0.054688 0.25,-0.046875 0.0625,0.011719 0.113281,0.039063 0.15625,0.078125 0.050781,0.042969 0.09375,0.09375 0.125,0.15625 0.03125,0.054688 0.0625,0.101562 0.09375,0.140625 0.039063,0.042969 0.097656,0.125 0.171875,0.25 0.082031,0.117187 0.160156,0.242187 0.234375,0.375 0.082031,0.136719 0.148437,0.261719 0.203125,0.375 0.0625,0.117187 0.09375,0.179687 0.09375,0.1875 0,0.023437 0.00391,0.058594 0.015625,0.109375 0.00781,0.042969 0.015625,0.09375 0.015625,0.15625 0.00781,0.054688 0.00391,0.109375 -0.015625,0.171875 C 2.941406,-3.085938 2.910156,-3.039062 2.859375,-3 2.753906,-2.945312 2.660156,-2.921875 2.578125,-2.921875 2.503906,-2.921875 2.4375,-2.929688 2.375,-2.953125 2.3125,-2.984375 2.253906,-3.019531 2.203125,-3.0625 2.160156,-3.113281 2.125,-3.164062 2.09375,-3.21875 Z M 2.890625,-4.25 C 2.859375,-4.320312 2.796875,-4.414062 2.703125,-4.53125 2.617188,-4.644531 2.53125,-4.765625 2.4375,-4.890625 2.320312,-5.023438 2.195312,-5.164062 2.0625,-5.3125 c -0.011719,-0.03125 -0.011719,-0.070312 0,-0.125 0.019531,-0.050781 0.046875,-0.097656 0.078125,-0.140625 0.03125,-0.050781 0.070313,-0.097656 0.125,-0.140625 0.0625,-0.050781 0.128906,-0.085938 0.203125,-0.109375 0.144531,-0.050781 0.265625,-0.0625 0.359375,-0.03125 0.09375,0.03125 0.164063,0.09375 0.21875,0.1875 0.050781,0.042969 0.101563,0.117187 0.15625,0.21875 0.0625,0.09375 0.117187,0.199219 0.171875,0.3125 0.0625,0.125 0.117188,0.261719 0.171875,0.40625 -0.054687,0.03125 -0.101563,0.0625 -0.140625,0.09375 -0.03125,0.03125 -0.0625,0.0625 -0.09375,0.09375 -0.03125,0.023437 -0.054688,0.042969 -0.0625,0.0625 -0.011719,0.023437 -0.00781,0.0625 0.015625,0.125 C 3.285156,-4.304688 3.3125,-4.25 3.34375,-4.1875 c 0.039062,0.054688 0.078125,0.105469 0.109375,0.15625 0.039063,0.054688 0.078125,0.089844 0.109375,0.109375 0.03125,0.023437 0.070312,0.03125 0.125,0.03125 0.050781,0 0.097656,0 0.140625,0 0.050781,0 0.09375,0 0.125,0 C 3.984375,-3.890625 4,-3.882812 4,-3.875 4,-3.84375 3.960938,-3.800781 3.890625,-3.75 3.816406,-3.695312 3.707031,-3.65625 3.5625,-3.625 3.488281,-3.613281 3.414062,-3.625 3.34375,-3.65625 3.269531,-3.695312 3.203125,-3.75 3.140625,-3.8125 3.078125,-3.875 3.023438,-3.941406 2.984375,-4.015625 2.941406,-4.097656 2.910156,-4.175781 2.890625,-4.25 Z M 3.75,-4.84375 C 3.71875,-4.882812 3.675781,-4.953125 3.625,-5.046875 3.582031,-5.140625 3.53125,-5.234375 3.46875,-5.328125 3.40625,-5.429688 3.335938,-5.546875 3.265625,-5.671875 3.242188,-5.703125 3.226562,-5.738281 3.21875,-5.78125 c -0.011719,-0.039062 -0.011719,-0.082031 0,-0.125 0.00781,-0.050781 0.035156,-0.097656 0.078125,-0.140625 0.039063,-0.050781 0.101563,-0.097656 0.1875,-0.140625 0.132813,-0.070312 0.253906,-0.097656 0.359375,-0.078125 0.101562,0.011719 0.179688,0.03125 0.234375,0.0625 0.070313,0.023437 0.140625,0.0625 0.203125,0.125 0.070312,0.054687 0.132812,0.117187 0.1875,0.1875 0.050781,0.074219 0.109375,0.15625 0.171875,0.25 l -0.0625,0.03125 C 4.535156,-5.597656 4.507812,-5.597656 4.5,-5.609375 4.488281,-5.617188 4.472656,-5.628906 4.453125,-5.640625 4.429688,-5.660156 4.414062,-5.679688 4.40625,-5.703125 L 4.328125,-5.78125 C 4.335935,-5.738281 4.34375,-5.703125 4.34375,-5.671875 4.35156,-5.617188 4.34766,-5.5625 4.328125,-5.5 4.316406,-5.476562 4.285156,-5.425781 4.234375,-5.34375 4.191406,-5.257812 4.140625,-5.171875 4.078125,-5.078125 4.015625,-4.992188 3.945312,-4.921875 3.875,-4.859375 3.8125,-4.804688 3.769531,-4.800781 3.75,-4.84375 Z M 3.40625,0.328125 C 3.332031,0.222656 3.257812,0.113281 3.1875,0 3.125,-0.125 3.054688,-0.25 2.984375,-0.375 2.859375,-0.425781 2.742188,-0.488281 2.640625,-0.5625 2.546875,-0.613281 2.441406,-0.671875 2.328125,-0.734375 2.222656,-0.796875 2.132812,-0.859375 2.0625,-0.921875 2.019531,-1.023438 1.953125,-1.128906 1.859375,-1.234375 1.773438,-1.347656 1.6875,-1.460938 1.59375,-1.578125 1.5,-1.691406 1.410156,-1.796875 1.328125,-1.890625 1.242188,-1.984375 1.179688,-2.0625 1.140625,-2.125 1.054688,-2.226562 0.96875,-2.320312 0.875,-2.40625 0.78125,-2.5 0.710938,-2.601562 0.671875,-2.71875 0.640625,-2.78125 0.613281,-2.859375 0.59375,-2.953125 c -0.023438,-0.09375 -0.042969,-0.175781 -0.0625,-0.25 -0.023438,-0.09375 -0.042969,-0.1875 -0.0625,-0.28125 -0.03125,-0.082031 -0.054688,-0.164063 -0.0625,-0.25 0,-0.070313 0.003906,-0.148437 0.015625,-0.234375 0.019531,-0.09375 0.070313,-0.175781 0.15625,-0.25 0.164063,-0.113281 0.285156,-0.175781 0.359375,-0.1875 0.070312,-0.00781 0.160156,0.027344 0.265625,0.109375 0.070313,0.054687 0.148437,0.148437 0.234375,0.28125 0.09375,0.136719 0.179688,0.273437 0.265625,0.40625 0.101563,0.167969 0.207031,0.339844 0.3125,0.515625 0.03125,0.074219 0.054687,0.140625 0.078125,0.203125 0.00781,0.054687 0.00781,0.105469 0,0.15625 0,0.054687 -0.039062,0.085937 -0.109375,0.09375 -0.074219,0.054687 -0.148437,0.078125 -0.21875,0.078125 -0.0625,0 -0.125,-0.00781 -0.1875,-0.03125 C 1.523438,-2.613281 1.472656,-2.632812 1.421875,-2.65625 1.367188,-2.6875 1.332031,-2.707031 1.3125,-2.71875 1.28125,-2.71875 1.234375,-2.75 1.171875,-2.8125 1.109375,-2.875 1.039062,-2.945312 0.96875,-3.03125 0.894531,-3.113281 0.8125,-3.21875 0.71875,-3.34375 L 1.015625,-2.8125 0.78125,-2.890625 c 0.0625,0.042969 0.125,0.074219 0.1875,0.09375 0.039062,0.023437 0.082031,0.046875 0.125,0.078125 0.050781,0.023438 0.085938,0.039062 0.109375,0.046875 0.019531,0.03125 0.0625,0.089844 0.125,0.171875 0.070313,0.074219 0.144531,0.152344 0.21875,0.234375 0.082031,0.074219 0.164063,0.140625 0.25,0.203125 C 1.878906,-2.007812 1.945312,-1.984375 2,-1.984375 2.0625,-1.992188 2.117188,-2.019531 2.171875,-2.0625 2.234375,-2.113281 2.289062,-2.164062 2.34375,-2.21875 2.394531,-2.269531 2.445312,-2.316406 2.5,-2.359375 2.550781,-2.410156 2.597656,-2.441406 2.640625,-2.453125 2.710938,-2.460938 2.789062,-2.503906 2.875,-2.578125 2.957031,-2.660156 3.0625,-2.734375 3.1875,-2.796875 3.269531,-2.878906 3.335938,-2.9375 3.390625,-2.96875 3.453125,-3.007812 3.5,-3.03125 3.53125,-3.03125 c 0.03125,0 0.054688,0.011719 0.078125,0.03125 0.019531,0.011719 0.03125,0.027344 0.03125,0.046875 0.00781,0.0625 0.00781,0.15625 0,0.28125 -0.011719,0.117187 -0.011719,0.230469 0,0.34375 0,0.074219 0.00781,0.109375 0.03125,0.109375 0.03125,-0.00781 0.0625,-0.039062 0.09375,-0.09375 C 3.796875,-2.375 3.832031,-2.445312 3.875,-2.53125 3.914062,-2.613281 3.957031,-2.707031 4,-2.8125 c 0.039062,-0.144531 0.082031,-0.253906 0.125,-0.328125 0.039062,-0.082031 0.085938,-0.144531 0.140625,-0.1875 0.050781,-0.050781 0.097656,-0.09375 0.140625,-0.125 C 4.457031,-3.492188 4.507812,-3.550781 4.5625,-3.625 4.65625,-3.71875 4.726562,-3.757812 4.78125,-3.75 c 0.0625,0 0.113281,0.015625 0.15625,0.046875 0.019531,0.011719 0.054688,0.023437 0.109375,0.03125 0.0625,0.011719 0.125,0.015625 0.1875,0.015625 0.0625,0.011719 0.140625,0.015625 0.234375,0.015625 C 5.375,-3.691406 5.289062,-3.742188 5.21875,-3.796875 5.15625,-3.835938 5.097656,-3.878906 5.046875,-3.921875 4.992188,-3.972656 4.96875,-4.019531 4.96875,-4.0625 c -0.011719,-0.070312 -0.011719,-0.128906 0,-0.171875 0.019531,-0.039063 0.070312,-0.054687 0.15625,-0.046875 0.0625,0 0.097656,-0.00391 0.109375,-0.015625 0.019531,-0.00781 0.035156,-0.019531 0.046875,-0.03125 0.00781,-0.019531 0.019531,-0.035156 0.03125,-0.046875 0.019531,-0.019531 0.0625,-0.035156 0.125,-0.046875 0.070312,-0.00781 0.085938,-0.00781 0.046875,0 -0.03125,0 -0.074219,-0.00391 -0.125,-0.015625 C 5.316406,-4.457031 5.28125,-4.488281 5.25,-4.53125 5.21875,-4.570312 5.238281,-4.644531 5.3125,-4.75 5.375,-4.875 5.390625,-4.925781 5.359375,-4.90625 5.328125,-4.882812 5.269531,-4.832031 5.1875,-4.75 c -0.085938,0.085938 -0.179688,0.179688 -0.28125,0.28125 -0.105469,0.105469 -0.203125,0.167969 -0.296875,0.1875 -0.117187,0.042969 -0.21875,0.078125 -0.3125,0.109375 -0.09375,0.03125 -0.179687,0.054687 -0.25,0.0625 -0.074219,0 -0.148437,-0.00781 -0.21875,-0.03125 C 3.753906,-4.160156 3.6875,-4.207031 3.625,-4.28125 3.550781,-4.34375 3.5,-4.390625 3.46875,-4.421875 3.4375,-4.453125 3.421875,-4.476562 3.421875,-4.5 c 0,-0.019531 0.00781,-0.035156 0.03125,-0.046875 0.09375,-0.03125 0.179687,-0.0625 0.265625,-0.09375 C 3.78125,-4.671875 3.835938,-4.707031 3.890625,-4.75 3.953125,-4.789062 3.988281,-4.835938 4,-4.890625 4.125,-5.015625 4.253906,-5.144531 4.390625,-5.28125 4.535156,-5.425781 4.664062,-5.519531 4.78125,-5.5625 4.8125,-5.57031 4.847656,-5.585938 4.890625,-5.609375 c 0.039063,-0.03125 0.082031,-0.050781 0.125,-0.0625 0.039063,-0.019531 0.085937,-0.03125 0.140625,-0.03125 0.0625,0 0.128906,0.023437 0.203125,0.0625 0.070313,0.054687 0.144531,0.117187 0.21875,0.1875 0.082031,0.0625 0.160156,0.125 0.234375,0.1875 0.070312,0.0625 0.132812,0.125 0.1875,0.1875 0.0625,0.0625 0.101562,0.117187 0.125,0.15625 0.03125,0.03125 0.066406,0.078125 0.109375,0.140625 0.050781,0.054688 0.09375,0.132812 0.125,0.234375 0.039063,0.09375 0.054687,0.21875 0.046875,0.375 0,0.148437 -0.042969,0.320313 -0.125,0.515625 -0.15625,0.449219 -0.292969,0.828125 -0.40625,1.140625 -0.117188,0.304687 -0.171875,0.480469 -0.171875,0.53125 0.00781,0.054687 0.015625,0.101563 0.015625,0.140625 0,0.03125 0.015625,0.089844 0.046875,0.171875 0.00781,0 0.023437,0.00781 0.046875,0.015625 0.00781,0.011719 0.019531,0.023438 0.03125,0.03125 0.00781,0.011719 0.023438,0.027344 0.046875,0.046875 C 5.765625,-1.398438 5.59375,-1.21875 5.375,-1.03125 5.164062,-0.84375 4.9375,-0.660156 4.6875,-0.484375 4.445312,-0.316406 4.210938,-0.160156 3.984375,-0.015625 3.753906,0.117188 3.5625,0.234375 3.40625,0.328125 Z M 6.59375,-0.8125 C 6.625,-0.789062 6.632812,-0.757812 6.625,-0.71875 6.613281,-0.6875 6.601562,-0.65625 6.59375,-0.625 6.570312,-0.59375 6.550781,-0.554688 6.53125,-0.515625 6.476562,-0.421875 6.394531,-0.3125 6.28125,-0.1875 6.164062,-0.0703125 6.03125,0.046875 5.875,0.171875 5.71875,0.304688 5.546875,0.441406 5.359375,0.578125 5.179688,0.722656 5.003906,0.859375 4.828125,0.984375 4.390625,1.296875 3.914062,1.613281 3.40625,1.9375 3.289062,1.75 3.195312,1.570312 3.125,1.40625 3.050781,1.269531 2.984375,1.128906 2.921875,0.984375 2.867188,0.847656 2.835938,0.75 2.828125,0.6875 2.804688,0.625 2.8125,0.5625 2.84375,0.5 2.875,0.445312 2.914062,0.398438 2.96875,0.359375 3.019531,0.304688 3.078125,0.265625 3.140625,0.234375 l 0.15625,0.296875 c 0.625,-0.34375 1.117187,-0.648438 1.484375,-0.921875 0.363281,-0.269531 0.632812,-0.5 0.8125,-0.6875 0.207031,-0.207031 0.347656,-0.394531 0.421875,-0.5625 L 5.921875,-1.65625 h 0.15625 c 0.082031,0.136719 0.160156,0.261719 0.234375,0.375 0.0625,0.09375 0.117188,0.1875 0.171875,0.28125 0.0625,0.09375 0.097656,0.15625 0.109375,0.1875 z m 0,0"
           id="path17577" />
      </g>
    </g>
  </g>
</svg>
