<?xml version="1.0" encoding="UTF-8" standalone="no"?>
<!-- Created with Inkscape (http://www.inkscape.org/) -->

<svg
   width="2.8954527mm"
   height="2.9159288mm"
   viewBox="0 0 2.8954527 2.9159288"
   version="1.1"
   id="svg12727"
   inkscape:version="1.2.1 (9c6d41e4, 2022-07-14)"
   sodipodi:docname="intelligence.svg"
   xmlns:inkscape="http://www.inkscape.org/namespaces/inkscape"
   xmlns:sodipodi="http://sodipodi.sourceforge.net/DTD/sodipodi-0.dtd"
   xmlns="http://www.w3.org/2000/svg"
   xmlns:svg="http://www.w3.org/2000/svg">
  <sodipodi:namedview
     id="namedview12729"
     pagecolor="#505050"
     bordercolor="#eeeeee"
     borderopacity="1"
     inkscape:showpageshadow="0"
     inkscape:pageopacity="0"
     inkscape:pagecheckerboard="0"
     inkscape:deskcolor="#505050"
     inkscape:document-units="mm"
     showgrid="false"
     inkscape:zoom="0.2102413"
     inkscape:cx="-9.5128787"
     inkscape:cy="-147.44962"
     inkscape:window-width="1309"
     inkscape:window-height="456"
     inkscape:window-x="0"
     inkscape:window-y="25"
     inkscape:window-maximized="0"
     inkscape:current-layer="layer1" />
  <defs
     id="defs12724" />
  <g
     inkscape:label="Layer 1"
     inkscape:groupmode="layer"
     id="layer1"
     transform="translate(-106.78109,-187.31322)">
    <g
       fill="#231f20"
       fill-opacity="1"
       id="g8066"
       transform="matrix(0.35277777,0,0,0.35277777,12.504524,30.922644)">
      <g
         id="use8064"
         transform="translate(266.79199,449.64001)">
        <path
           d="M 8.59375,0.34375 7.5,0.46875 c -0.0625,0 -0.125,0 -0.1875,0 C 7.257812,0.476562 7.207031,0.488281 7.15625,0.5 7.1875,0.65625 7.210938,0.796875 7.234375,0.921875 7.253906,1.046875 7.269531,1.15625 7.28125,1.25 7.289062,1.351562 7.300781,1.445312 7.3125,1.53125 7.1875,1.476562 7.050781,1.414062 6.90625,1.34375 6.757812,1.28125 6.625,1.222656 6.5,1.171875 6.34375,1.109375 6.195312,1.039062 6.0625,0.96875 L 4.96875,1.9375 C 4.957031,1.820312 4.941406,1.710938 4.921875,1.609375 4.898438,1.503906 4.875,1.410156 4.84375,1.328125 4.8125,1.128906 4.769531,0.941406 4.71875,0.765625 4.675781,0.597656 4.628906,0.46875 4.578125,0.375 4.566406,0.363281 4.5625,0.351562 4.5625,0.34375 c 0,0 -0.00781,-0.007812 -0.015625,-0.015625 C 4.535156,0.273438 4.53125,0.242188 4.53125,0.234375 4.519531,0.222656 4.515625,0.21875 4.515625,0.21875 c 0,-0.011719 0,-0.023438 0,-0.03125 C 4.515625,0.175781 4.507812,0.171875 4.5,0.171875 4.4375,0.00390625 4.375,-0.125 4.3125,-0.21875 4.257812,-0.320312 4.210938,-0.410156 4.171875,-0.484375 c -0.042969,-0.0625 -0.085937,-0.113281 -0.125,-0.15625 L 6.53125,-0.96875 c 0.113281,0.15625 0.210938,0.324219 0.296875,0.5 C 6.921875,-0.300781 7,-0.128906 7.0625,0.046875 7.164062,0.0351562 7.257812,0.0195312 7.34375,0 7.425781,-0.0195312 7.5,-0.0351562 7.5625,-0.046875 7.632812,-0.0664062 7.707031,-0.0820312 7.78125,-0.09375 7.664062,-0.414062 7.597656,-0.695312 7.578125,-0.9375 7.554688,-1.175781 7.554688,-1.375 7.578125,-1.53125 7.597656,-1.71875 7.644531,-1.875 7.71875,-2 7.113281,-1.9375 6.550781,-1.867188 6.03125,-1.796875 5.800781,-1.765625 5.570312,-1.726562 5.34375,-1.6875 5.113281,-1.65625 4.894531,-1.617188 4.6875,-1.578125 4.476562,-1.546875 4.285156,-1.515625 4.109375,-1.484375 3.941406,-1.460938 3.800781,-1.4375 3.6875,-1.40625 c -0.230469,0.042969 -0.402344,0.109375 -0.515625,0.203125 -0.117187,0.085937 -0.199219,0.167969 -0.25,0.25 -0.054687,0.105469 -0.074219,0.210937 -0.0625,0.3125 0,0.105469 0.00391,0.210937 0.015625,0.3125 0,0.09375 0.00391,0.199219 0.015625,0.3125 0.00781,0.1132812 0.023437,0.222656 0.046875,0.328125 0,0.082031 0.054688,0.144531 0.171875,0.1875 0.125,0.039062 0.347656,0.054688 0.671875,0.046875 0.082031,0 0.148438,-0.007813 0.203125,-0.015625 C 4.035156,0.519531 4.113281,0.507812 4.21875,0.5 4.269531,0.570312 4.316406,0.644531 4.359375,0.71875 4.398438,0.789062 4.4375,0.84375 4.46875,0.875 c 0,0.019531 0,0.035156 0,0.046875 0.00781,0.019531 0.015625,0.050781 0.015625,0.09375 C 4.304688,1.035156 4.164062,1.050781 4.0625,1.0625 3.96875,1.082031 3.867188,1.09375 3.765625,1.09375 c -0.1875,0 -0.34375,-0.00781 -0.46875,-0.015625 C 3.171875,1.066406 3.066406,1.039062 2.984375,1 2.898438,0.957031 2.832031,0.898438 2.78125,0.828125 2.726562,0.765625 2.675781,0.675781 2.625,0.5625 2.582031,0.507812 2.503906,0.378906 2.390625,0.171875 2.285156,-0.0234375 2.160156,-0.257812 2.015625,-0.53125 1.867188,-0.800781 1.710938,-1.085938 1.546875,-1.390625 1.378906,-1.691406 1.222656,-1.96875 1.078125,-2.21875 0.941406,-2.46875 0.820312,-2.679688 0.71875,-2.859375 0.625,-3.035156 0.570312,-3.132812 0.5625,-3.15625 0.507812,-3.238281 0.472656,-3.414062 0.453125,-3.6875 c -0.011719,-0.28125 0,-0.617188 0.03125,-1.015625 0.019531,-0.207031 0.0625,-0.367187 0.125,-0.484375 0.070313,-0.125 0.148437,-0.222656 0.234375,-0.296875 0.082031,-0.070313 0.175781,-0.125 0.28125,-0.15625 l 5,-0.6875 c 0.03125,0 0.054688,0.00781 0.078125,0.015625 0.019531,0 0.035156,0.00781 0.046875,0.015625 0.019531,0.011719 0.035156,0.023437 0.046875,0.03125 0.40625,0.71875 0.773437,1.371094 1.109375,1.953125 0.132812,0.242188 0.269531,0.480469 0.40625,0.71875 0.132812,0.230469 0.253906,0.4375 0.359375,0.625 0.113281,0.1875 0.203125,0.339844 0.265625,0.453125 0.070312,0.117187 0.109375,0.171875 0.109375,0.171875 0.00781,0.03125 0.019531,0.058594 0.03125,0.078125 0.00781,0.023437 0.00781,0.042969 0,0.0625 C 8.566406,-2.191406 8.535156,-2.175781 8.484375,-2.15625 8.441406,-2.144531 8.375,-2.132812 8.28125,-2.125 L 8.015625,-2.046875 C 7.972656,-1.984375 7.9375,-1.914062 7.90625,-1.84375 7.882812,-1.78125 7.867188,-1.710938 7.859375,-1.640625 7.835938,-1.566406 7.820312,-1.488281 7.8125,-1.40625 7.976562,-1.125 8.117188,-0.867188 8.234375,-0.640625 8.285156,-0.535156 8.332031,-0.4375 8.375,-0.34375 c 0.050781,0.09375 0.097656,0.183594 0.140625,0.265625 0.039063,0.07421875 0.070313,0.1328125 0.09375,0.1875 0.03125,0.0625 0.046875,0.097656 0.046875,0.109375 0,0.050781 -0.011719,0.085938 -0.03125,0.109375 C 8.613281,0.335938 8.601562,0.34375 8.59375,0.34375 Z m 0,0"
           id="path12751" />
      </g>
    </g>
  </g>
</svg>
