<?xml version="1.0" encoding="UTF-8" standalone="no"?>
<!-- Created with Inkscape (http://www.inkscape.org/) -->

<svg
   width="0.73792374mm"
   height="0.9921875mm"
   viewBox="0 0 0.73792374 0.9921875"
   version="1.1"
   id="svg24695"
   inkscape:version="1.2.1 (9c6d41e4, 2022-07-14)"
   sodipodi:docname="willpower.svg"
   xmlns:inkscape="http://www.inkscape.org/namespaces/inkscape"
   xmlns:sodipodi="http://sodipodi.sourceforge.net/DTD/sodipodi-0.dtd"
   xmlns="http://www.w3.org/2000/svg"
   xmlns:svg="http://www.w3.org/2000/svg">
  <sodipodi:namedview
     id="namedview24697"
     pagecolor="#505050"
     bordercolor="#eeeeee"
     borderopacity="1"
     inkscape:showpageshadow="0"
     inkscape:pageopacity="0"
     inkscape:pagecheckerboard="0"
     inkscape:deskcolor="#505050"
     inkscape:document-units="mm"
     showgrid="false"
     inkscape:zoom="0.2102413"
     inkscape:cx="-57.077272"
     inkscape:cy="-85.615908"
     inkscape:window-width="1309"
     inkscape:window-height="456"
     inkscape:window-x="0"
     inkscape:window-y="25"
     inkscape:window-maximized="0"
     inkscape:current-layer="layer1" />
  <defs
     id="defs24692">
    <clipPath
       id="clip-1134">
      <path
         clip-rule="nonzero"
         d="m 475,207 h 3 v 4 h -3 z m 0,0"
         id="path22740" />
    </clipPath>
    <clipPath
       id="clip-1135">
      <path
         clip-rule="nonzero"
         d="m 451.48437,143.47266 c -2.01562,0 -3.64843,1.63281 -3.64843,3.64843 v 86.23047 c 0,2.01172 1.63281,3.64844 3.64843,3.64844 h 60.1875 c 2.01563,0 3.64844,-1.63672 3.64844,-3.64844 v -86.23047 c 0,-2.01562 -1.63281,-3.64843 -3.64844,-3.64843 z m 0,0"
         id="path22743" />
    </clipPath>
  </defs>
  <g
     inkscape:label="Layer 1"
     inkscape:groupmode="layer"
     id="layer1"
     transform="translate(-119.18612,-170.65645)">
    <g
       clip-path="url(#clip-1134)"
       id="g23644"
       transform="matrix(0.35277777,0,0,0.35277777,-48.624307,97.517547)">
      <g
         clip-path="url(#clip-1135)"
         id="g23642">
        <g
           fill="#231f20"
           fill-opacity="1"
           id="g23640">
          <g
             id="use23638"
             transform="translate(475.55612,209.526)">
            <path
               d="m 2.21875,-1.34375 c 0,0.03125 -0.00781,0.070312 -0.015625,0.109375 0,0.042969 -0.00781,0.085937 -0.015625,0.125 -0.023438,0.042969 -0.039062,0.085937 -0.046875,0.125 -0.011719,0.03125 -0.027344,0.058594 -0.046875,0.078125 L 2.078125,-0.890625 C 2.066406,-0.867188 2.050781,-0.847656 2.03125,-0.828125 2.019531,-0.804688 2.007812,-0.78125 2,-0.75 1.96875,-0.695312 1.9375,-0.640625 1.90625,-0.578125 1.875,-0.523438 1.859375,-0.46875 1.859375,-0.40625 c 0.00781,0.0625 0.019531,0.125 0.03125,0.1875 0,0 0,0.007812 0,0.015625 0.00781,0 0.015625,0.007813 0.015625,0.015625 0.00781,0.023438 0.015625,0.042969 0.015625,0.0625 0.00781,0.011719 0.015625,0.0273438 0.015625,0.046875 0.00781,0.0234375 0.015625,0.0429688 0.015625,0.0625 C 1.941406,-0.015625 1.925781,-0.0078125 1.90625,0 1.894531,0 1.882812,0.00390625 1.875,0.015625 c 0,0 -0.00781,0 -0.015625,0 C 1.773438,0.046875 1.679688,0.09375 1.578125,0.15625 1.484375,0.21875 1.394531,0.28125 1.3125,0.34375 1.226562,0.40625 1.15625,0.460938 1.09375,0.515625 c -0.0625,0.050781 -0.105469,0.082031 -0.125,0.09375 -0.011719,0 -0.015625,0 -0.015625,0 0,-0.011719 0,-0.027344 0,-0.046875 0,-0.023438 0,-0.039062 0,-0.046875 C 0.941406,0.503906 0.9375,0.488281 0.9375,0.46875 c 0,-0.023438 0,-0.042969 0,-0.0625 0,-0.023438 -0.007812,-0.042969 -0.015625,-0.0625 0,-0.023438 0,-0.039062 0,-0.046875 C 0.910156,0.253906 0.898438,0.222656 0.890625,0.203125 0.890625,0.191406 0.878906,0.175781 0.859375,0.15625 0.847656,0.132812 0.835938,0.113281 0.828125,0.09375 0.816406,0.0820312 0.804688,0.0664062 0.796875,0.046875 0.773438,0.00390625 0.757812,-0.0195312 0.75,-0.03125 0.75,-0.0390625 0.753906,-0.0507812 0.765625,-0.0625 0.785156,-0.0703125 0.800781,-0.0820312 0.8125,-0.09375 0.832031,-0.113281 0.84375,-0.125 0.84375,-0.125 0.832031,-0.132812 0.820312,-0.140625 0.8125,-0.140625 c 0,0 -0.007812,0 -0.015625,0 L 0.734375,-0.125 c -0.023437,0 -0.046875,0.007812 -0.078125,0.015625 -0.023438,0 -0.046875,0.007813 -0.078125,0.015625 -0.023437,0 -0.039063,0 -0.046875,0 -0.011719,0 -0.023438,0 -0.03125,0 -0.042969,0 -0.078125,-0.007812 -0.109375,-0.03125 C 0.359375,-0.132812 0.335938,-0.148438 0.328125,-0.171875 0.316406,-0.203125 0.3125,-0.234375 0.3125,-0.265625 v -0.0625 c 0.007812,-0.019531 0.015625,-0.039063 0.015625,-0.0625 0,-0.019531 -0.011719,-0.039063 -0.03125,-0.0625 C 0.285156,-0.472656 0.28125,-0.488281 0.28125,-0.5 c 0,-0.019531 0.003906,-0.03125 0.015625,-0.03125 0,-0.007812 0,-0.015625 0,-0.015625 0,0 -0.007813,-0.003906 -0.015625,-0.015625 0,-0.007812 0,-0.015625 0,-0.015625 0,-0.007813 -0.007812,-0.015625 -0.015625,-0.015625 0,-0.03125 0,-0.046875 0,-0.046875 0.007813,-0.007813 0.019531,-0.03125 0.03125,-0.0625 0.007813,-0.007813 0.007813,-0.019531 0,-0.03125 0,-0.019531 -0.011719,-0.03125 -0.03125,-0.03125 0,0 -0.007813,0 -0.015625,0 -0.011719,0 -0.023438,0 -0.03125,0 C 0.175781,-0.773438 0.148438,-0.800781 0.140625,-0.84375 0.117188,-0.882812 0.125,-0.921875 0.15625,-0.953125 0.164062,-0.972656 0.175781,-0.992188 0.1875,-1.015625 0.207031,-1.035156 0.226562,-1.050781 0.25,-1.0625 0.257812,-1.082031 0.269531,-1.101562 0.28125,-1.125 0.300781,-1.144531 0.320312,-1.164062 0.34375,-1.1875 l 0.015625,-0.015625 c 0.007813,-0.00781 0.019531,-0.019531 0.03125,-0.03125 0.007813,-0.00781 0.019531,-0.023437 0.03125,-0.046875 0.007813,-0.00781 0.007813,-0.023438 0,-0.046875 0,0 -0.007813,-0.00391 -0.015625,-0.015625 C 0.382812,-1.382812 0.375,-1.421875 0.375,-1.453125 0.382812,-1.484375 0.394531,-1.507812 0.40625,-1.53125 V -1.546875 C 0.414062,-1.554688 0.421875,-1.566406 0.421875,-1.578125 0.429688,-1.597656 0.4375,-1.613281 0.4375,-1.625 0.457031,-1.675781 0.472656,-1.722656 0.484375,-1.765625 0.503906,-1.816406 0.523438,-1.851562 0.546875,-1.875 c 0.039063,-0.0625 0.082031,-0.109375 0.125,-0.140625 0.039063,-0.03125 0.085937,-0.054687 0.140625,-0.078125 0.101562,-0.039062 0.191406,-0.066406 0.265625,-0.078125 0.082031,-0.019531 0.164063,-0.03125 0.25,-0.03125 0.082031,0 0.164063,0.00781 0.25,0.015625 0.15625,0.042969 0.28125,0.101562 0.375,0.171875 0.09375,0.074219 0.160156,0.15625 0.203125,0.25 C 2.175781,-1.691406 2.191406,-1.625 2.203125,-1.5625 2.210938,-1.5 2.21875,-1.4375 2.21875,-1.375 Z m 0,0"
               id="path24737" />
          </g>
        </g>
      </g>
    </g>
  </g>
</svg>
