<?xml version="1.0" encoding="UTF-8" standalone="no"?>
<!-- Created with Inkscape (http://www.inkscape.org/) -->

<svg
   width="31.110023"
   height="24"
   viewBox="0 0 8.2311935 6.35"
   version="1.1"
   id="svg43158"
   inkscape:version="1.2.1 (9c6d41e4, 2022-07-14)"
   sodipodi:docname="forgotten-ruins.svg"
   xmlns:inkscape="http://www.inkscape.org/namespaces/inkscape"
   xmlns:sodipodi="http://sodipodi.sourceforge.net/DTD/sodipodi-0.dtd"
   xmlns="http://www.w3.org/2000/svg"
   xmlns:svg="http://www.w3.org/2000/svg">
  <sodipodi:namedview
     id="namedview43160"
     pagecolor="#505050"
     bordercolor="#eeeeee"
     borderopacity="1"
     inkscape:showpageshadow="0"
     inkscape:pageopacity="0"
     inkscape:pagecheckerboard="0"
     inkscape:deskcolor="#505050"
     inkscape:document-units="mm"
     showgrid="false"
     inkscape:zoom="0.7046647"
     inkscape:cx="-61.02193"
     inkscape:cy="220.67233"
     inkscape:window-width="1390"
     inkscape:window-height="941"
     inkscape:window-x="0"
     inkscape:window-y="25"
     inkscape:window-maximized="0"
     inkscape:current-layer="layer1" />
  <defs
     id="defs43155">
    <clipPath
       clipPathUnits="userSpaceOnUse"
       id="clipPath6067">
      <path
         d="m 422.435,419.052 h 24.699 v 24.699 h -24.699 z"
         id="path6065" />
    </clipPath>
  </defs>
  <g
     inkscape:label="Layer 1"
     inkscape:groupmode="layer"
     id="layer1"
     transform="translate(-121.18246,-90.522633)">
    <g
       id="g6061"
       transform="matrix(0.37707461,0,0,-0.37707461,-38.647959,256.36789)">
      <g
         id="g6063"
         clip-path="url(#clipPath6067)">
        <g
           id="g6069"
           transform="translate(441.117,428.927)">
          <path
             d="M 0,0 C -0.073,0.007 -0.188,0.062 -0.244,0.001 L 0.32,-0.025 c 0,0.01 0,0.018 0,0.025 C 0.215,-0.002 0.103,-0.009 0,0"
             style="fill:#231f20;fill-opacity:1;fill-rule:nonzero;stroke:none"
             id="path6071" />
        </g>
        <g
           id="g6073"
           transform="translate(437.017,430.944)">
          <path
             d="M 0,0 C 0,0 0.001,0 0.001,0 -0.004,-0.004 -0.007,-0.006 0,0 m -9.883,-0.156 c 0.039,-0.141 0.101,-0.285 0.121,-0.428 0.022,-0.155 0.002,-0.303 0.056,-0.457 0.039,-0.112 0.092,-0.253 0.191,-0.354 0.037,-0.038 0.032,-0.045 0.102,-0.055 0.094,-0.014 0.2,-0.001 0.301,-0.017 0.163,-0.025 0.299,-0.025 0.464,-0.037 0.26,-0.019 0.547,-0.024 0.795,-0.069 0.32,-0.057 0.667,-0.131 1.002,-0.149 0.364,-0.02 0.721,0.021 1.084,0.021 -0.213,-0.084 -0.03,-0.106 0.219,-0.03 0.077,0.024 0.136,0.016 0.212,0.029 0.136,0.022 0.091,0.156 0.087,0.216 -0.004,0.067 -0.053,0.085 -0.081,0.137 -0.025,0.046 -0.011,0.099 0.002,0.145 0.036,0.13 0.042,0.248 0.007,0.366 0.062,0.002 0.125,0.005 0.187,0.012 0.244,0.026 0.484,0.099 0.72,0.165 0.389,0.108 0.784,0.279 1.185,0.336 0.142,0.02 0.302,0.071 0.446,0.047 0.175,-0.03 0.365,-0.09 0.529,-0.148 0.078,-0.028 0.16,-0.051 0.238,-0.083 0.105,-0.043 0.212,-0.118 0.323,-0.146 0.139,-0.034 0.355,-0.021 0.493,0.015 0.218,0.059 0.479,0.021 0.707,0.022 0.183,0.001 0.314,-0.086 0.492,-0.12 0.224,-0.043 0.532,-0.014 0.746,0.065 0.078,0.029 0.118,0.044 0.199,0.054 0.093,0.011 0.096,0.042 0.159,0.088 0.075,0.054 0.146,0.043 0.241,0.041 0.082,-0.001 0.101,0.025 0.165,0.04 0.128,0.03 0.284,0.004 0.394,-0.032 -0.007,0.068 -0.269,0.106 -0.34,0.131 -0.096,0.033 -0.196,0.117 -0.273,0.182 -0.336,0.278 -0.803,0.196 -1.212,0.194 0,0 0.001,10e-4 0.002,10e-4 C 0.075,0.025 0.071,0.025 0.066,0.025 H 0.065 c -0.052,-0.002 -0.1,-0.002 -0.15,-0.026 -0.04,-0.019 -0.063,-0.038 -0.111,-0.04 -0.056,-0.002 -0.113,0.002 -0.169,0.002 -0.083,0 -0.15,-0.008 -0.23,-0.038 -0.064,-0.024 -0.121,-0.036 -0.187,-0.05 -0.062,-0.013 -0.105,-0.042 -0.171,-0.041 -0.028,0 -0.058,0.004 -0.086,0.001 -0.035,-0.004 -0.066,-0.023 -0.101,-0.024 -0.037,-0.002 -0.072,0.021 -0.108,0.024 -0.035,0.004 -0.067,-0.002 -0.102,0.004 -0.076,0.014 -0.163,0.026 -0.236,0.051 -0.038,0.013 -0.065,0.03 -0.106,0.031 -0.051,0.001 -0.093,0.001 -0.142,0.02 -0.09,0.036 -0.188,0.069 -0.284,0.096 -0.025,0.007 -0.052,0.006 -0.075,0.013 -0.036,0.01 -0.068,0.033 -0.108,0.042 -0.078,0.018 -0.147,0.015 -0.225,0.026 -0.175,0.024 -0.351,0.016 -0.528,0.016 -0.215,0 -0.43,0 -0.645,0 -0.108,0 -0.192,-0.013 -0.297,-0.033 -0.119,-0.022 -0.242,-0.012 -0.36,0.007 -0.096,0.016 -0.199,0.005 -0.296,0.005 -0.094,0 -0.187,0.006 -0.279,-0.011 -0.251,-0.047 -0.503,0.027 -0.739,0.108 -0.003,0.001 -0.007,0.001 -0.011,0.003 0.01,0.238 0.048,0.475 0.043,0.714 -0.005,0.259 0.044,0.516 0.043,0.776 -0.002,0.318 -0.037,0.645 0.006,0.963 0.035,0.252 0.157,0.488 0.12,0.743 -0.035,0.231 -0.17,0.455 -0.177,0.689 -0.001,0.066 0.007,0.134 0.009,0.2 0.014,0.41 -0.136,0.817 -0.219,1.224 -0.064,0.309 -0.021,0.62 -0.07,0.93 -0.023,0.145 -0.055,0.291 -0.056,0.437 -10e-4,0.067 0.025,0.148 -0.037,0.209 C -6.202,7.278 -6.8,7.295 -7.104,7.272 -7.329,7.255 -7.545,7.204 -7.765,7.176 -7.979,7.149 -8.185,7.147 -8.402,7.149 -8.57,7.15 -8.738,7.148 -8.906,7.15 -9.006,7.152 -9.057,7.168 -9.116,7.117 -9.191,7.052 -9.154,6.923 -9.154,6.849 -9.154,6.74 -9.136,6.628 -9.182,6.522 -9.249,6.369 -9.369,6.265 -9.51,6.138 -9.597,6.059 -9.619,5.993 -9.627,5.901 -9.633,5.821 -9.678,5.761 -9.704,5.685 -9.761,5.522 -9.712,5.32 -9.712,5.154 c 0,-0.138 0.032,-0.289 -0.009,-0.425 -0.053,-0.175 -0.03,-0.351 -0.034,-0.53 -0.003,-0.12 0,-0.227 0.05,-0.345 0.051,-0.122 0.124,-0.24 0.168,-0.363 0.05,-0.139 0.136,-0.307 0.132,-0.448 C -9.407,2.971 -9.459,2.907 -9.497,2.84 -9.545,2.757 -9.568,2.676 -9.595,2.591 -9.655,2.394 -9.67,2.211 -9.667,2.01 -9.664,1.751 -9.748,1.511 -9.873,1.264 -9.979,1.051 -10.11,0.873 -10.092,0.645 c 0.001,-0.011 0.004,-0.022 0.006,-0.034 -0.101,0.017 -0.195,0.037 -0.298,0.037 -0.04,0 -0.087,-0.009 -0.126,0.003 -0.04,0.012 -0.058,0.036 -0.101,0.04 -0.042,0.003 -0.073,0.001 -0.114,0.014 -0.067,0.023 -0.138,0.041 -0.208,0.05 -0.045,0.006 -0.129,0.01 -0.173,0 -0.049,-0.011 -0.083,-0.043 -0.138,-0.044 -0.094,-0.002 -0.091,0.031 -0.183,0.022 -0.188,-0.021 -0.357,-0.062 -0.536,-0.113 -0.04,-0.011 -0.064,-0.016 -0.107,-0.016 -0.075,0 -0.159,-0.011 -0.231,0.005 -0.058,0.012 -0.11,0.043 -0.139,0.096 -0.033,0.059 -0.037,0.116 -0.037,0.188 0,0.085 0.005,0.157 0.023,0.236 0.02,0.084 0.056,0.134 0.126,0.182 0.043,0.03 0.071,0.034 0.119,0.045 0.033,0.008 0.073,0.031 0.101,0.036 0.067,0.014 0.148,0.011 0.205,-0.014 0.03,0.107 -0.068,0.23 -0.167,0.266 -0.102,0.038 -0.281,0.018 -0.386,-0.008 -0.07,-0.017 -0.131,-0.039 -0.193,-0.076 -0.057,-0.033 -0.133,-0.043 -0.183,-0.087 -0.115,-0.102 -0.235,-0.213 -0.295,-0.359 -0.029,-0.073 -0.02,-0.17 -0.016,-0.247 0.003,-0.052 0.022,-0.101 0.024,-0.154 10e-4,-0.035 -0.01,-0.076 -0.002,-0.11 0.011,-0.055 0.029,-0.121 0.054,-0.171 0.024,-0.046 0.038,-0.094 0.08,-0.128 0.062,-0.051 0.105,-0.108 0.175,-0.151 0.048,-0.03 0.1,-0.061 0.152,-0.085 0.162,-0.073 0.311,-0.077 0.484,-0.041 0.083,0.018 0.156,0.055 0.233,0.089 0.067,0.029 0.138,0.036 0.195,0.084 0.045,0.039 0.065,0.082 0.119,0.116 0.035,0.022 0.065,0.059 0.111,0.052 0.034,-0.005 0.062,-0.036 0.094,-0.047 0.021,-0.008 0.041,-0.009 0.063,-0.008 0.134,0.003 0.268,0.013 0.403,0.012 0.1,0 0.203,0.007 0.303,0.003 0.142,-0.006 0.259,-0.089 0.381,-0.154 0.094,-0.051 0.207,-0.085 0.324,-0.109 0.023,-0.074 0.047,-0.147 0.067,-0.221"
             style="fill:#231f20;fill-opacity:1;fill-rule:nonzero;stroke:none"
             id="path6075" />
        </g>
        <g
           id="g6077"
           transform="translate(426.752,439.762)">
          <path
             d="M 0,0 C 0.007,-0.004 0.015,-0.007 0.023,-0.008 0.07,-0.013 0.103,0.101 0,0"
             style="fill:#231f20;fill-opacity:1;fill-rule:nonzero;stroke:none"
             id="path6079" />
        </g>
        <g
           id="g6081"
           transform="translate(426.583,439.545)">
          <path
             d="m 0,0 c 0.005,-0.094 0.023,-0.189 0.04,-0.279 0.021,-0.109 0.031,-0.217 0.039,-0.33 0.007,-0.083 0.027,-0.153 0.044,-0.231 0.01,-0.043 0.002,-0.081 0.009,-0.121 0.007,-0.043 0.025,-0.036 0.053,-0.052 0.071,-0.039 0.125,-0.046 0.199,-0.044 0.036,0.002 0.037,0.014 0.067,0.044 0.039,0.041 0.096,0.02 0.141,0.021 0.041,0 0.06,-0.001 0.092,-0.049 0.029,-0.044 0.028,-0.056 0.069,-0.058 0.067,-0.003 0.132,-0.022 0.2,-0.022 0.042,-0.001 0.08,-0.001 0.122,0.012 0.029,0.01 0.057,0.024 0.086,0.03 0.081,0.015 0.167,10e-4 0.249,10e-4 h 0.202 c 0.074,0 0.147,0 0.221,0 0.072,-10e-4 0.141,0.02 0.212,0.022 0.161,0.005 0.322,-10e-4 0.482,-10e-4 0.095,0 0.194,0.013 0.288,-0.004 0.1,-0.017 0.196,-0.041 0.297,-0.039 0.186,0.003 0.371,0 0.557,0 0.141,0 0.283,0.001 0.424,0 0.061,0 0.123,0.012 0.181,-0.024 0.076,-0.046 0.139,-0.094 0.222,-0.085 0.054,0.007 0.1,0.046 0.152,0.062 0.059,0.019 0.121,0.02 0.182,0.039 0.04,0.014 0.077,0.023 0.119,0.028 0.039,0.005 0.068,0.009 0.104,0.042 0.043,0.039 0.072,0.099 0.119,0.128 0.021,0.013 0.038,0.022 0.061,0.025 0.03,0.004 0.023,-0.006 0.036,0.038 0.016,0.057 0.025,0.131 0.05,0.185 0.008,0.019 0.026,0.035 0.033,0.055 0.007,0.02 -0.002,0.067 0.008,0.083 0.008,0.013 0.037,0.004 0.048,0.008 0.018,0.008 0.032,0.026 0.031,0.059 -0.003,0.045 -0.027,0.063 -0.028,0.113 -10e-4,0.033 0,0.066 0,0.099 0,0.07 -10e-4,0.138 0,0.207 0,0.031 0.004,0.057 -0.009,0.081 C 5.373,0.095 5.281,0.044 5.247,0.037 5.22,0.031 5.186,0.026 5.159,0.016 5.14,0.008 5.126,-0.014 5.107,-0.023 5.078,-0.037 5.052,-0.013 5.023,-0.006 4.979,0.005 4.941,0.012 4.9,0.037 4.869,0.055 4.848,0.058 4.815,0.058 4.758,0.057 4.704,0.079 4.647,0.08 4.503,0.085 4.357,0.081 4.213,0.079 4.054,0.077 3.895,0.125 3.736,0.123 3.596,0.121 3.456,0.122 3.316,0.122 3.243,0.122 3.17,0.126 3.097,0.124 3.041,0.121 2.996,0.096 2.943,0.073 2.876,0.045 2.812,0.078 2.744,0.081 2.691,0.083 2.637,0.071 2.584,0.084 2.468,0.113 2.342,0.116 2.227,0.084 2.16,0.066 2.089,0.08 2.022,0.08 1.969,0.08 1.915,0.079 1.861,0.08 1.804,0.081 1.765,0.068 1.712,0.036 1.68,0.016 1.654,0.014 1.622,0.015 1.565,0.017 1.509,0.013 1.452,0.015 1.385,0.016 1.323,0.038 1.257,0.054 1.146,0.08 1.035,0.109 0.923,0.134 0.836,0.154 0.747,0.133 0.659,0.148 0.572,0.163 0.484,0.173 0.397,0.193 0.317,0.211 0.239,0.208 0.159,0.208 0.162,0.212 0.165,0.214 0.168,0.217 0.138,0.232 0.109,0.266 0.079,0.274 0.057,0.28 0.045,0.271 0.03,0.247 0.016,0.223 -0.01,0.191 -0.014,0.162 -0.02,0.126 -0.007,0.106 -0.003,0.075 0.001,0.049 -0.002,0.026 0,0"
             style="fill:#231f20;fill-opacity:1;fill-rule:nonzero;stroke:none"
             id="path6083" />
        </g>
        <g
           id="g6085"
           transform="translate(438.738,439.762)">
          <path
             d="M 0,0 C 0.007,-0.004 0.015,-0.007 0.023,-0.008 0.07,-0.013 0.103,0.101 0,0"
             style="fill:#231f20;fill-opacity:1;fill-rule:nonzero;stroke:none"
             id="path6087" />
        </g>
        <g
           id="g6089"
           transform="translate(438.57,439.545)">
          <path
             d="m 0,0 c 0.005,-0.094 0.023,-0.189 0.04,-0.279 0.021,-0.109 0.031,-0.217 0.04,-0.33 0.006,-0.083 0.026,-0.153 0.043,-0.231 0.01,-0.043 0.002,-0.081 0.009,-0.121 0.007,-0.043 0.025,-0.036 0.053,-0.052 0.071,-0.039 0.125,-0.046 0.199,-0.044 0.036,0.002 0.037,0.014 0.067,0.044 0.039,0.041 0.096,0.02 0.141,0.021 0.041,0 0.061,-0.001 0.092,-0.049 0.029,-0.044 0.028,-0.056 0.069,-0.058 0.067,-0.003 0.132,-0.022 0.2,-0.022 0.042,-0.001 0.08,-0.001 0.122,0.012 0.029,0.01 0.057,0.024 0.086,0.03 0.081,0.015 0.167,10e-4 0.249,10e-4 h 0.202 c 0.074,0 0.147,0 0.221,0 0.072,-10e-4 0.141,0.02 0.212,0.022 0.161,0.005 0.322,-10e-4 0.482,-10e-4 0.095,0 0.194,0.013 0.289,-0.004 0.099,-0.017 0.195,-0.041 0.296,-0.039 0.186,0.003 0.371,0 0.557,0 0.141,0 0.283,0.001 0.424,0 0.061,0 0.123,0.012 0.181,-0.024 0.076,-0.046 0.139,-0.094 0.222,-0.085 0.054,0.007 0.1,0.046 0.152,0.062 0.059,0.019 0.121,0.02 0.181,0.039 0.042,0.014 0.078,0.023 0.12,0.028 0.039,0.005 0.068,0.009 0.105,0.042 0.042,0.039 0.071,0.099 0.118,0.128 0.021,0.013 0.038,0.022 0.061,0.025 0.03,0.004 0.023,-0.006 0.036,0.038 0.016,0.057 0.025,0.131 0.05,0.185 0.008,0.019 0.026,0.035 0.033,0.055 0.007,0.02 -0.002,0.067 0.008,0.083 0.008,0.013 0.037,0.004 0.048,0.008 0.018,0.008 0.032,0.026 0.031,0.059 -0.003,0.045 -0.027,0.063 -0.028,0.113 -10e-4,0.033 0,0.066 0,0.099 0,0.07 -10e-4,0.138 0,0.207 0,0.031 0.004,0.057 -0.009,0.081 C 5.373,0.095 5.282,0.044 5.247,0.037 5.22,0.031 5.186,0.026 5.159,0.016 5.14,0.008 5.126,-0.014 5.107,-0.023 5.078,-0.037 5.052,-0.013 5.023,-0.006 4.978,0.005 4.941,0.012 4.9,0.037 4.869,0.055 4.848,0.058 4.815,0.058 4.758,0.057 4.704,0.079 4.647,0.08 4.503,0.085 4.357,0.081 4.213,0.079 4.054,0.077 3.895,0.125 3.736,0.123 3.596,0.121 3.456,0.122 3.316,0.122 3.243,0.122 3.17,0.126 3.097,0.124 3.041,0.121 2.996,0.096 2.943,0.073 2.876,0.045 2.812,0.078 2.744,0.081 2.691,0.083 2.636,0.071 2.584,0.084 2.468,0.113 2.342,0.116 2.227,0.084 2.16,0.066 2.089,0.08 2.022,0.08 1.969,0.08 1.915,0.079 1.862,0.08 1.804,0.081 1.765,0.068 1.712,0.036 1.68,0.016 1.654,0.014 1.622,0.015 1.565,0.017 1.509,0.013 1.452,0.015 1.385,0.016 1.323,0.038 1.257,0.054 1.146,0.08 1.035,0.109 0.924,0.134 0.836,0.154 0.747,0.133 0.659,0.148 0.572,0.163 0.484,0.173 0.397,0.193 0.317,0.211 0.239,0.208 0.159,0.208 0.162,0.212 0.165,0.214 0.168,0.217 0.138,0.232 0.109,0.266 0.079,0.274 0.057,0.28 0.045,0.271 0.03,0.247 0.016,0.223 -0.01,0.191 -0.014,0.162 -0.02,0.126 -0.007,0.106 -0.003,0.075 0.001,0.049 -0.002,0.026 0,0"
             style="fill:#231f20;fill-opacity:1;fill-rule:nonzero;stroke:none"
             id="path6091" />
        </g>
        <g
           id="g6093"
           transform="translate(427.749,428.866)">
          <path
             d="m 0,0 c 0.009,0 0.018,-0.001 0.027,-0.001 0,0 0.001,0 0.001,0.001 z"
             style="fill:#231f20;fill-opacity:1;fill-rule:nonzero;stroke:none"
             id="path6095" />
        </g>
        <g
           id="g6097"
           transform="translate(427.382,426.976)">
          <path
             d="m 0,0 c 0.117,-0.065 0.261,-0.039 0.393,-0.039 0.191,0 0.4,0.025 0.584,-0.023 0.249,-0.066 0.52,-0.195 0.786,-0.14 0.19,0.039 0.366,0.048 0.56,0.013 0.511,-0.091 1.025,-0.108 1.543,-0.107 0.124,0 0.282,-0.014 0.365,0.104 0.048,0.068 0.018,0.169 0.032,0.251 C 4.276,0.136 4.294,0.205 4.297,0.283 4.303,0.446 4.252,0.593 4.253,0.756 4.255,0.928 4.258,1.047 4.189,1.204 4.107,1.394 4.195,1.674 3.932,1.676 3.809,1.677 3.68,1.664 3.558,1.674 3.462,1.682 3.376,1.716 3.278,1.72 3.203,1.723 3.127,1.719 3.052,1.719 2.932,1.719 2.798,1.701 2.68,1.725 2.488,1.765 2.331,1.846 2.129,1.851 1.772,1.86 1.414,1.841 1.057,1.846 0.834,1.849 0.616,1.885 0.393,1.889 0.302,1.74 0.048,1.787 -0.12,1.68 -0.295,1.568 -0.38,1.431 -0.377,1.23 -0.375,1.021 -0.342,0.823 -0.337,0.616 -0.331,0.384 -0.207,0.115 0,0"
             style="fill:#231f20;fill-opacity:1;fill-rule:nonzero;stroke:none"
             id="path6099" />
        </g>
        <g
           id="g6101"
           transform="translate(430.552,423.689)">
          <path
             d="m 0,0 c -0.047,0.073 -0.084,0.153 -0.16,0.205 -0.112,0.079 -0.298,0.041 -0.431,0.041 -0.145,0 -0.291,0.001 -0.437,0 -0.197,-0.002 -0.383,0.069 -0.579,0.087 -0.1,0.01 -0.198,-0.006 -0.298,0.008 -0.126,0.017 -0.236,0.034 -0.367,0.033 -0.09,0 -0.389,0.052 -0.418,-0.085 0.036,0.071 10e-4,0.043 -0.13,0.042 C -2.863,0.33 -2.955,0.351 -2.993,0.334 -3.07,0.301 -3.094,0.153 -3.067,0.073 c 0.03,-0.088 0.129,-0.162 0.202,-0.212 0.097,-0.068 0.205,-0.097 0.305,-0.161 0.096,-0.061 0.182,-0.113 0.288,-0.152 0.296,-0.108 0.601,-0.074 0.914,-0.074 0.338,0 0.681,-0.019 1.018,-0.001 0.129,0.007 0.193,0.091 0.31,0.13 0.093,0.032 0.207,0.027 0.175,0.17 C 0.127,-0.147 0.045,-0.069 0,0"
             style="fill:#231f20;fill-opacity:1;fill-rule:nonzero;stroke:none"
             id="path6103" />
        </g>
        <g
           id="g6105"
           transform="translate(442.987,427.747)">
          <path
             d="m 0,0 c -0.086,0.124 -0.051,0.184 -0.07,0.317 -0.015,0.111 -0.049,0.132 -0.147,0.168 -0.142,0.053 -0.282,0.114 -0.425,0.165 -0.142,0.052 -0.273,0.041 -0.421,0.04 -0.197,-0.001 -0.394,0 -0.59,0 H -2.565 C -2.868,0.69 -3.191,0.725 -3.488,0.658 -3.55,0.644 -3.577,0.616 -3.63,0.602 -3.679,0.59 -3.752,0.605 -3.804,0.604 -3.563,0.568 -3.673,0.48 -3.802,0.349 -3.89,0.26 -3.93,0.225 -3.934,0.098 c -0.002,-0.07 0.003,-0.142 0.002,-0.213 -0.003,-0.282 0.354,-0.704 0.642,-0.695 0.225,0.007 0.451,-0.002 0.676,0 0.138,0.002 0.264,-0.039 0.4,-0.046 0.1,-0.004 0.202,0.003 0.302,0.003 0.291,-0.002 0.572,0.042 0.863,0.042 0.257,0 0.506,-0.043 0.76,-0.043 0.216,0.001 0.262,0.04 0.335,0.25 0.045,0.131 0.161,0.291 0.098,0.442 C 0.121,-0.106 0.038,-0.055 0,0"
             style="fill:#231f20;fill-opacity:1;fill-rule:nonzero;stroke:none"
             id="path6107" />
        </g>
        <g
           id="g6109"
           transform="translate(441.889,423.805)">
          <path
             d="M 0,0 C -0.077,0.025 -0.15,0.044 -0.224,0.078 -0.268,0.098 -0.301,0.122 -0.342,0.142 -0.51,0.221 -0.754,0.22 -0.936,0.249 -1.047,0.266 -1.148,0.251 -1.259,0.256 -1.399,0.262 -1.53,0.302 -1.672,0.302 -1.779,0.302 -1.866,0.264 -1.97,0.251 -1.972,0.239 -1.975,0.227 -1.977,0.215 -1.96,0.473 -2.255,0.355 -2.448,0.154 -2.48,0.12 -2.498,0.073 -2.531,0.043 -2.574,0.003 -2.643,0.016 -2.668,-0.04 c -0.023,-0.05 -0.005,-0.246 0.013,-0.302 0.044,-0.139 0.203,-0.198 0.324,-0.246 0.078,-0.03 0.126,-0.103 0.193,-0.134 0.044,-0.02 0.101,-0.001 0.146,-0.004 0.164,-0.007 0.338,-0.044 0.495,-0.078 0.178,-0.039 0.391,-0.01 0.573,-0.01 0.131,0 0.277,-0.016 0.407,-0.001 0.095,0.011 0.276,0.059 0.344,0.129 0.066,0.067 0.031,0.067 0.123,0.087 0.079,0.017 0.142,-0.011 0.178,0.083 0.021,0.053 -0.006,0.101 0.037,0.155 0.048,0.061 0.103,0.049 0.092,0.147 C 0.24,-0.07 0.114,-0.037 0,0"
             style="fill:#231f20;fill-opacity:1;fill-rule:nonzero;stroke:none"
             id="path6111" />
        </g>
        <g
           id="g6113"
           transform="translate(445.678,433.011)">
          <path
             d="M 0,0 C -0.004,0.102 -0.005,0.18 -0.041,0.278 -0.097,0.433 -0.193,0.606 -0.303,0.728 -0.457,0.899 -0.645,1.027 -0.874,1.062 -1.036,1.088 -1.183,1.047 -1.329,0.98 -1.401,0.947 -1.444,0.931 -1.499,0.874 -1.546,0.826 -1.58,0.789 -1.613,0.733 -1.638,0.69 -1.669,0.668 -1.671,0.617 -1.674,0.571 -1.679,0.535 -1.65,0.509 c 0.039,-0.036 0.074,-0.015 0.112,-0.004 0.033,0.008 0.07,0.01 0.098,0.03 0.044,0.033 0.073,0.086 0.116,0.119 0.069,0.053 0.123,0.091 0.21,0.091 0.045,0 0.071,0.002 0.107,-0.021 0.027,-0.017 0.044,-0.04 0.069,-0.059 0.056,-0.043 0.13,-0.074 0.167,-0.134 0.039,-0.064 0.022,-0.16 0.022,-0.235 0,-0.118 -0.016,-0.236 -0.069,-0.344 -0.057,-0.116 -0.111,-0.225 -0.248,-0.253 -0.081,-0.016 -0.153,-0.026 -0.236,-0.026 -0.032,0 -0.066,0.002 -0.101,0.002 -0.108,0.004 -0.224,0.004 -0.318,-0.04 -0.039,-0.019 -0.063,-0.053 -0.095,-0.08 -0.102,-0.088 -0.258,-0.101 -0.381,-0.141 -0.144,-0.047 -0.304,-0.072 -0.458,-0.082 0,0.024 -0.002,0.048 -0.002,0.071 -10e-4,0.117 0.039,0.207 0.066,0.32 0.026,0.109 0.022,0.25 0.001,0.361 -0.028,0.155 -0.118,0.291 -0.176,0.439 -0.058,0.151 -0.038,0.34 -0.033,0.494 0.012,0.399 0.187,0.785 0.18,1.185 -0.007,0.375 0.074,0.741 0.1,1.115 0.022,0.306 0.108,0.628 -0.036,0.924 -0.067,0.138 -0.135,0.249 -0.174,0.395 -0.018,0.063 -0.034,0.126 -0.049,0.19 -0.025,0.111 0.02,0.253 -0.086,0.345 -0.116,0.1 -0.245,0.082 -0.399,0.057 C -3.449,5.199 -3.631,5.187 -3.813,5.149 -4.076,5.095 -4.359,5.105 -4.626,5.073 -4.831,5.049 -5.001,4.969 -5.199,4.929 -5.313,4.906 -5.433,4.898 -5.547,4.878 -5.59,4.87 -5.704,4.857 -5.733,4.831 -5.782,4.787 -5.721,4.691 -5.722,4.627 -5.723,4.578 -5.722,4.538 -5.792,4.513 -5.84,4.496 -5.874,4.513 -5.897,4.47 -5.933,4.403 -5.899,4.267 -5.899,4.196 -5.899,3.756 -5.932,3.32 -5.969,2.882 -5.981,2.739 -6.002,2.601 -6.003,2.457 -6.004,2.336 -6.037,2.228 -6.067,2.11 -6.136,1.84 -6.121,1.556 -6.15,1.282 -6.178,1.016 -6.174,0.754 -6.181,0.487 -6.182,0.453 -6.188,0.429 -6.198,0.397 -6.221,0.322 -6.216,0.251 -6.216,0.172 c 0,-0.044 -0.002,-0.088 -0.005,-0.132 -0.197,0.062 -0.41,0.115 -0.611,0.141 -0.189,0.025 -0.386,0.007 -0.576,0.007 -0.331,0 -0.671,0.021 -1.001,0.003 C -8.551,0.183 -8.697,0.129 -8.834,0.091 -8.93,0.065 -9.047,0.037 -9.133,-0.013 -9.237,-0.073 -9.307,-0.15 -9.423,-0.2 c -0.094,-0.041 -0.192,-0.093 -0.292,-0.117 -0.276,-0.067 -0.577,-0.048 -0.853,-0.105 -0.141,-0.029 -0.277,-0.02 -0.419,-0.043 -0.148,-0.023 -0.285,-0.042 -0.436,-0.034 -0.077,0.004 -0.13,0.03 -0.204,0.054 -0.153,0.052 -0.323,0.089 -0.483,0.111 -0.221,0.03 -0.436,0.001 -0.657,0.041 -0.19,0.033 -0.389,-0.003 -0.552,-0.11 -0.102,-0.068 -0.184,-0.131 -0.296,-0.181 -0.099,-0.043 -0.171,-0.043 -0.285,-0.043 0.355,0 0.691,-0.1 1.04,-0.172 0.391,-0.081 0.775,-0.177 1.165,-0.269 0.232,-0.054 0.498,-0.046 0.731,-0.011 0.312,0.047 0.617,0.093 0.929,0.131 0.268,0.033 0.532,0.027 0.795,0.105 0.12,0.036 0.233,0.076 0.356,0.1 0.133,0.026 0.265,0.026 0.393,0.073 0.226,0.083 0.496,0.043 0.734,0.043 0.237,0 0.475,-0.001 0.712,0.001 0.257,0.002 0.487,-0.047 0.722,-0.142 -0.012,-0.056 -0.023,-0.112 -0.03,-0.169 -0.011,-0.099 -0.018,-0.196 -0.048,-0.293 -0.029,-0.094 -0.06,-0.181 -0.063,-0.279 -0.002,-0.105 -0.016,-0.171 -0.048,-0.273 -0.062,-0.197 0.006,-0.41 0.013,-0.61 0.01,-0.276 0.098,-0.551 0.109,-0.827 0.007,-0.208 -0.002,-0.416 -0.002,-0.624 0,-0.063 -0.038,-0.229 0.032,-0.274 0.088,-0.055 0.319,-0.015 0.41,0.008 0.132,0.033 0.262,0.061 0.388,0.105 0.165,0.057 0.292,0.053 0.47,0.054 0.136,0.001 0.259,-0.024 0.392,-0.028 0.083,-0.002 0.166,0.007 0.248,-0.004 0.046,-0.007 0.137,-0.023 0.176,-0.047 0.034,-0.021 0.036,-0.029 0.035,-0.055 0.014,10e-4 0.028,10e-4 0.041,10e-4 0.172,0.001 0.329,-0.021 0.497,-0.027 0.059,-0.003 0.178,-0.014 0.23,0.006 0.071,0.027 0.109,0.122 0.145,0.167 0.096,0.118 0.213,0.167 0.381,0.219 0.113,0.035 0.248,0.052 0.343,0.112 0.049,0.031 0.032,0.04 0.052,0.078 0.026,0.048 0.069,0.088 0.106,0.133 0.047,0.058 0.144,0.065 0.177,0.117 0.026,0.039 0.01,0.155 0.002,0.197 -0.012,0.06 -0.045,0.065 -0.088,0.121 -0.17,0.212 -0.101,0.45 -0.159,0.681 -0.078,0.314 -0.106,0.629 -0.106,0.947 0,0.05 -0.003,0.099 -0.005,0.148 0.096,0 0.192,0 0.288,0 0.084,-0.001 0.207,-0.027 0.281,0.021 0.071,0.046 0.105,0.144 0.178,0.197 0.124,0.09 0.282,0.084 0.427,0.082 0.104,-0.001 0.205,-0.012 0.306,-0.03 0.06,-0.01 0.12,-0.019 0.181,-0.028 0.076,-0.01 0.148,-0.041 0.224,-0.049 0.125,-0.014 0.293,0.001 0.378,0.106 0.024,0.03 0.031,0.058 0.063,0.082 0.024,0.018 0.039,0.023 0.06,0.048 0.028,0.033 0.041,0.071 0.063,0.108 0.014,0.022 0.034,0.04 0.049,0.062 0.018,0.028 0.023,0.051 0.037,0.082 0.017,0.038 0.045,0.058 0.065,0.095 0.015,0.026 0.023,0.068 0.032,0.097 C 0.039,-0.202 0.005,-0.109 0,0"
             style="fill:#231f20;fill-opacity:1;fill-rule:nonzero;stroke:none"
             id="path6115" />
        </g>
        <g
           id="g6117"
           transform="translate(442.419,425.168)">
          <path
             d="M 0,0 C -0.008,0.003 -0.015,0.007 -0.022,0.01 0.01,0.024 0.042,0.038 0.075,0.052 0.179,0.096 0.296,0.109 0.327,0.225 0.356,0.33 0.326,0.498 0.293,0.599 0.232,0.788 0.149,0.783 -0.02,0.824 -0.151,0.856 -0.268,0.901 -0.404,0.911 -0.513,0.919 -0.612,0.95 -0.721,0.956 -0.872,0.965 -1.025,0.942 -1.175,0.952 -1.297,0.959 -1.418,0.992 -1.539,1.009 -1.75,1.04 -1.915,1.004 -2.122,0.994 -2.268,0.988 -2.459,1.027 -2.606,0.993 -2.47,1.174 -2.599,1.138 -2.7,1.116 -2.833,1.086 -2.979,1.05 -3.105,1 -3.314,0.917 -3.488,0.827 -3.493,0.589 -3.495,0.486 -3.502,0.392 -3.468,0.301 -3.509,0.303 -3.55,0.304 -3.591,0.307 c -0.05,0.004 -0.1,0.007 -0.151,0.007 -0.071,0 -0.144,-0.007 -0.215,0.001 -0.089,0.009 -0.173,0.043 -0.253,0.082 -0.054,0.026 -0.106,0.058 -0.162,0.082 -0.056,0.023 -0.116,0.026 -0.171,0.048 -0.052,0.02 -0.103,0.023 -0.15,0.047 -0.022,0.011 -0.041,0.034 -0.063,0.039 -0.03,0.008 -0.047,-0.01 -0.072,0.014 -0.039,0.038 0,0.092 0.027,0.114 0.029,0.024 0.08,0.041 0.112,0.058 0.045,0.024 0.07,0.055 0.098,0.096 0.032,0.047 0.026,0.114 0.026,0.168 0,0.054 0.01,0.119 -0.004,0.171 -0.016,0.057 -0.037,0.119 -0.06,0.17 -0.025,0.057 -0.062,0.079 -0.092,0.13 -0.038,0.064 -0.071,0.114 -0.124,0.167 -0.057,0.057 -0.11,0.092 -0.186,0.128 -0.095,0.046 -0.2,0.088 -0.307,0.092 -0.041,0.002 -0.108,0.01 -0.149,10e-4 C -5.526,1.913 -5.561,1.885 -5.599,1.871 -5.642,1.856 -5.988,1.728 -5.933,1.643 c 0.011,0.006 0.048,0.015 0.056,0.024 0.015,0.016 0.011,0.038 0.031,0.055 0.007,0.007 0.048,0.025 0.058,0.028 0.034,0.008 0.047,-0.013 0.07,-0.018 0.047,-0.01 0.081,-0.008 0.124,-0.027 C -5.551,1.686 -5.511,1.689 -5.471,1.657 -5.392,1.595 -5.329,1.52 -5.288,1.427 -5.254,1.349 -5.261,1.191 -5.272,1.105 -5.278,1.058 -5.301,1.01 -5.331,0.971 -5.361,0.933 -5.374,0.897 -5.422,0.891 c -0.11,-0.015 -0.232,0 -0.343,0 -0.068,0 -0.145,0.01 -0.211,-0.005 C -6.037,0.872 -6.096,0.844 -6.157,0.827 -6.245,0.803 -6.34,0.757 -6.413,0.703 -6.444,0.681 -6.455,0.654 -6.479,0.627 -6.535,0.564 -6.653,0.566 -6.729,0.547 -6.912,0.502 -7.095,0.475 -7.282,0.452 -7.699,0.4 -8.122,0.299 -8.543,0.342 -8.932,0.383 -9.303,0.502 -9.68,0.6 c -0.172,0.045 -0.342,0.114 -0.514,0.162 -0.177,0.05 -0.353,0.111 -0.526,0.172 -0.238,0.083 -0.471,0.179 -0.709,0.258 -0.343,0.113 -0.686,0.085 -1.042,0.085 -0.092,0 -0.217,0.022 -0.307,0.002 -0.059,-0.013 -0.111,-0.041 -0.172,-0.055 -0.14,-0.032 -0.266,-0.044 -0.389,-0.12 -0.062,-0.038 -0.118,-0.095 -0.183,-0.129 -0.009,-0.004 -0.019,-0.007 -0.028,-0.012 -0.167,0.025 -0.328,0.085 -0.493,0.122 -0.172,0.038 -0.34,0.076 -0.509,0.119 -0.053,0.013 -0.11,0.016 -0.161,0 0.01,-0.012 0.019,-0.024 0.029,-0.036 -0.055,-0.131 -0.066,-0.134 -0.078,-0.137 -0.006,-0.023 -0.011,-0.046 -0.016,-0.069 -0.146,-0.022 -0.344,-0.095 -0.468,-0.176 -0.131,-0.086 -0.07,-0.144 -0.048,-0.262 0.017,-0.092 0,-0.171 0.047,-0.257 0.052,-0.096 0.154,-0.148 0.229,-0.223 0.094,-0.094 0.15,-0.16 0.291,-0.165 0.075,-0.003 0.151,0.005 0.226,0.004 0.111,-0.002 0.173,-0.037 0.275,-0.076 0.209,-0.08 0.418,-0.111 0.635,-0.15 0.178,-0.032 0.358,-0.017 0.533,-0.064 0.241,-0.064 0.434,-0.061 0.679,-0.021 0.144,0.024 0.289,0 0.435,0.018 0.179,0.022 0.386,0.034 0.559,0.087 0.05,0.013 0.095,0.036 0.135,0.069 0.027,0.011 0.055,0.013 0.084,0.006 0.022,0.008 0.102,0.037 0.117,0.051 0.073,0.07 0.054,0.201 0.052,0.289 -0.002,0.097 10e-4,0.186 0.016,0.277 0.355,-0.016 0.707,-0.064 1.054,-0.146 0.349,-0.083 0.68,-0.241 1.021,-0.352 0.469,-0.151 0.96,-0.264 1.449,-0.322 0.252,-0.03 0.507,-0.05 0.76,-0.024 0.245,0.026 0.484,0.1 0.72,0.165 0.389,0.109 0.784,0.279 1.185,0.336 0.142,0.02 0.302,0.071 0.446,0.047 0.175,-0.029 0.365,-0.09 0.529,-0.148 0.077,-0.028 0.159,-0.051 0.238,-0.082 0.105,-0.043 0.212,-0.119 0.323,-0.146 0.139,-0.034 0.356,-0.022 0.493,0.015 0.218,0.058 0.479,0.02 0.707,0.021 0.183,0.001 0.314,-0.086 0.492,-0.12 0.224,-0.043 0.531,-0.014 0.746,0.065 0.078,0.029 0.118,0.044 0.199,0.054 0.093,0.012 0.096,0.043 0.159,0.088 0.075,0.055 0.146,0.044 0.241,0.042 0.082,-0.002 0.101,0.024 0.165,0.039 0.128,0.03 0.284,0.004 0.394,-0.032 C 0.333,-0.062 0.07,-0.025 0,0"
             style="fill:#231f20;fill-opacity:1;fill-rule:nonzero;stroke:none"
             id="path6119" />
        </g>
      </g>
    </g>
  </g>
</svg>
