<?xml version="1.0" encoding="UTF-8" standalone="no"?>
<!-- Created with Inkscape (http://www.inkscape.org/) -->

<svg
   width="20.133327"
   height="24"
   viewBox="0 0 5.3269428 6.35"
   version="1.1"
   id="svg44096"
   inkscape:version="1.2.1 (9c6d41e4, 2022-07-14)"
   sodipodi:docname="heart-of-the-elders.svg"
   xmlns:inkscape="http://www.inkscape.org/namespaces/inkscape"
   xmlns:sodipodi="http://sodipodi.sourceforge.net/DTD/sodipodi-0.dtd"
   xmlns="http://www.w3.org/2000/svg"
   xmlns:svg="http://www.w3.org/2000/svg">
  <sodipodi:namedview
     id="namedview44098"
     pagecolor="#505050"
     bordercolor="#eeeeee"
     borderopacity="1"
     inkscape:showpageshadow="0"
     inkscape:pageopacity="0"
     inkscape:pagecheckerboard="0"
     inkscape:deskcolor="#505050"
     inkscape:document-units="mm"
     showgrid="false"
     inkscape:zoom="0.7046647"
     inkscape:cx="197.25694"
     inkscape:cy="274.59868"
     inkscape:window-width="1390"
     inkscape:window-height="941"
     inkscape:window-x="0"
     inkscape:window-y="25"
     inkscape:window-maximized="0"
     inkscape:current-layer="layer1" />
  <defs
     id="defs44093">
    <clipPath
       clipPathUnits="userSpaceOnUse"
       id="clipPath22585">
      <path
         d="m 78.239,404.587 h 24.699 v 24.7 H 78.239 Z"
         id="path22583" />
    </clipPath>
  </defs>
  <g
     inkscape:label="Layer 1"
     inkscape:groupmode="layer"
     id="layer1"
     transform="translate(-52.917432,-76.294087)">
    <g
       id="g22579"
       transform="matrix(0.27605804,0,0,-0.27605804,30.253502,194.5691)">
      <g
         id="g22581"
         clip-path="url(#clipPath22585)">
        <g
           id="g22587"
           transform="translate(91.9787,428.03)">
          <path
             d="M 0,0 C 0.24,0.062 0.563,-0.302 0.69,-0.455 0.878,-0.683 0.955,-0.929 1.052,-1.193 1.121,-1.381 1.199,-1.519 1.173,-1.729 1.153,-1.896 1.075,-2.064 1.027,-2.223 0.918,-2.586 0.847,-2.936 0.68,-3.28 0.432,-3.789 0.118,-4.262 -0.094,-4.785 -0.138,-4.893 -0.22,-4.983 -0.237,-5.102 c -0.016,-0.107 0.041,-0.228 0.03,-0.34 -0.033,-0.323 -0.041,-0.51 0.079,-0.812 0.073,-0.183 0.209,-0.331 0.304,-0.504 0.14,-0.257 0.259,-0.502 0.46,-0.719 C 1.018,-7.89 1.482,-8.265 1.769,-8.754 1.815,-8.832 1.883,-8.951 1.912,-9.041 1.943,-9.135 1.998,-9.235 2.023,-9.309 2.092,-9.512 2.171,-9.702 2.184,-9.921 2.196,-10.15 2.158,-10.42 1.986,-10.589 1.834,-10.74 1.622,-10.83 1.485,-10.97 c -0.296,-0.302 -0.864,-0.669 -0.993,-1.091 -0.066,-0.214 -0.109,-0.511 -0.036,-0.732 0.055,-0.168 0.287,-0.37 0.215,-0.571 -0.152,-0.034 -0.52,0.257 -0.644,0.343 -0.183,0.127 -0.403,0.422 -0.466,0.622 -0.189,0.601 0.151,0.974 0.525,1.385 0.296,0.326 0.768,0.551 0.969,0.968 0.262,0.54 -0.101,1.107 -0.48,1.47 -0.156,0.149 -0.278,0.324 -0.446,0.46 -0.241,0.196 -0.424,0.467 -0.663,0.665 -0.24,0.199 -0.481,0.357 -0.663,0.627 -0.168,0.247 -0.328,0.524 -0.421,0.819 -0.117,0.376 0.075,0.761 0.073,1.128 -0.001,0.38 0.049,0.772 0.157,1.138 0.055,0.19 0.184,0.302 0.307,0.456 0.143,0.179 0.177,0.307 0.368,0.444 0.249,0.18 0.499,0.4 0.649,0.679 0.071,0.132 0.328,0.397 0.305,0.55 -0.018,0.115 -0.238,0.234 -0.319,0.29 -0.285,0.199 -0.506,0.489 -0.673,0.798 -0.072,0.133 -0.14,0.338 -0.111,0.491 0.018,0.097 0.128,0.324 0.222,0.391 0.115,0.081 0.41,0.064 0.506,-0.021 C -0.03,0.246 0.024,0.037 0,0"
             style="fill:#000000;fill-opacity:1;fill-rule:nonzero;stroke:none"
             id="path22589" />
        </g>
        <g
           id="g22591"
           transform="translate(90.3998,425.477)">
          <path
             d="m 0,0 c -0.01,-0.082 -0.103,-0.157 -0.144,-0.228 -0.032,-0.055 -0.063,-0.15 -0.094,-0.215 -0.159,-0.33 -0.27,-0.707 -0.383,-1.055 -0.1,-0.312 -0.109,-0.744 -0.1,-1.07 0.009,-0.291 0.023,-0.661 0.128,-0.929 0.361,-0.925 0.743,-1.782 1.208,-2.647 0.046,-0.086 0.136,-0.163 0.177,-0.243 0.041,-0.079 0.05,-0.16 0.082,-0.251 C 0.94,-6.829 0.97,-7.045 1.037,-7.226 1.157,-7.552 1.029,-7.966 0.893,-8.268 0.802,-8.469 0.724,-8.698 0.605,-8.883 0.502,-9.044 0.412,-9.15 0.407,-9.347 c -0.009,-0.398 0.089,-0.791 0.198,-1.139 0.027,-0.087 0.089,-0.197 0.124,-0.298 0.045,-0.129 0.086,-0.189 0.097,-0.336 0.018,-0.227 0.055,-0.455 0.064,-0.683 0.012,-0.284 -0.133,-0.419 -0.315,-0.609 -0.062,-0.065 -0.107,-0.148 -0.172,-0.21 -0.066,-0.064 -0.146,-0.093 -0.211,-0.156 -0.021,0.154 0.121,0.343 0.141,0.49 0.028,0.192 -0.026,0.54 -0.066,0.731 -0.041,0.192 -0.137,0.422 -0.228,0.582 -0.093,0.164 -0.14,0.343 -0.24,0.517 -0.204,0.357 -0.297,0.716 -0.34,1.153 -0.05,0.496 0.259,1.013 0.54,1.405 0.247,0.343 0.205,0.822 0.169,1.242 -0.007,0.081 0.008,0.227 -0.023,0.303 -0.038,0.09 -0.107,0.103 -0.171,0.17 -0.086,0.091 -0.126,0.215 -0.2,0.314 -0.084,0.112 -0.197,0.205 -0.286,0.314 -0.159,0.194 -0.353,0.351 -0.481,0.56 -0.147,0.24 -0.246,0.503 -0.368,0.759 -0.35,0.739 -0.565,1.522 -0.621,2.344 -0.037,0.538 0.307,1.182 0.722,1.522 0.145,0.12 0.243,0.16 0.415,0.21 0.078,0.023 0.182,0.11 0.246,0.117 0.058,0.006 0.245,-0.094 0.294,-0.129 C -0.2,-0.248 -0.112,-0.398 0,0"
             style="fill:#000000;fill-opacity:1;fill-rule:nonzero;stroke:none"
             id="path22593" />
        </g>
        <g
           id="g22595"
           transform="translate(88.4679,426.853)">
          <path
             d="m 0,0 c -0.019,-0.231 -0.092,-0.48 -0.126,-0.713 -0.036,-0.25 -0.119,-0.476 -0.183,-0.718 -0.058,-0.22 -0.04,-0.445 -0.062,-0.669 -0.076,-0.775 0.008,-1.523 0.077,-2.296 0.047,-0.521 0.093,-0.947 0.307,-1.421 C 0.181,-6.187 0.35,-6.561 0.451,-6.932 0.5,-7.113 0.568,-7.264 0.584,-7.458 0.6,-7.665 0.619,-7.873 0.64,-8.079 0.675,-8.442 0.509,-8.771 0.297,-9.058 c -0.19,-0.258 -0.351,-0.35 -0.628,-0.462 -0.138,-0.056 -0.262,-0.113 -0.442,-0.109 -0.158,0.003 -0.325,0.069 -0.486,0.12 -0.235,0.073 -0.702,0.243 -0.776,0.497 -0.139,0.477 0.143,0.643 0.448,0.911 -0.253,-0.281 -0.395,-0.956 0.157,-0.896 0.413,0.045 0.804,0.048 1.087,0.398 0.135,0.166 0.109,0.375 0.115,0.573 0.003,0.123 0.051,0.148 0.069,0.258 0.023,0.14 -0.058,0.264 -0.114,0.381 -0.167,0.354 -0.392,0.635 -0.592,0.959 -0.098,0.159 -0.165,0.315 -0.236,0.474 -0.084,0.188 -0.085,0.385 -0.158,0.588 -0.075,0.208 -0.091,0.424 -0.167,0.631 -0.08,0.218 -0.048,0.45 -0.111,0.672 -0.027,0.097 -0.081,0.129 -0.101,0.255 -0.02,0.126 -0.053,0.182 -0.094,0.294 -0.041,0.114 -0.031,0.221 -0.048,0.341 -0.019,0.14 -0.096,0.24 -0.125,0.376 -0.039,0.19 -0.061,0.449 -0.056,0.642 0.004,0.182 0.072,0.375 0.106,0.544 0.033,0.162 0.043,0.293 0.099,0.457 0.042,0.12 0.079,0.213 0.126,0.329 0.132,0.331 0.281,0.587 0.51,0.856 0.14,0.164 0.376,0.348 0.613,0.261 C -0.341,0.232 -0.247,-0.046 0,0"
             style="fill:#000000;fill-opacity:1;fill-rule:nonzero;stroke:none"
             id="path22597" />
        </g>
        <g
           id="g22599"
           transform="translate(92.9038,422.768)">
          <path
             d="m 0,0 c 0.002,-0.253 0.057,-0.446 0.09,-0.688 0.031,-0.217 0.026,-0.334 0.251,-0.452 0.161,-0.085 0.353,-0.093 0.515,-0.144 0.203,-0.065 0.399,-0.104 0.602,-0.155 0.204,-0.051 0.477,-0.089 0.686,-0.107 0.091,-0.007 0.189,0.021 0.279,0.007 0.15,-0.024 0.253,-0.087 0.409,-0.093 0.472,-0.016 0.91,-0.233 1.37,-0.364 0.572,-0.164 1.175,-0.385 1.651,-0.749 0.238,-0.181 0.583,-0.347 0.757,-0.596 0.093,-0.132 0.083,-0.288 0.12,-0.442 0.041,-0.17 0.122,-0.327 0.135,-0.503 0.028,-0.366 0.084,-0.729 0.081,-1.098 -10e-4,-0.177 0,-0.355 0.001,-0.533 C 6.95,-6.159 6.897,-6.358 6.869,-6.596 6.836,-6.883 6.806,-7.173 6.756,-7.457 6.698,-7.79 6.674,-8.079 6.561,-8.401 6.451,-8.715 6.313,-9.033 6.16,-9.326 6.07,-9.499 5.895,-9.591 5.783,-9.744 c -0.121,-0.165 -0.152,-0.287 -0.324,-0.42 -0.428,-0.331 -0.823,-0.587 -1.303,-0.803 -0.383,-0.172 -0.786,-0.326 -1.201,-0.45 -0.491,-0.146 -0.949,-0.161 -1.454,-0.161 -0.181,0 -0.38,-0.022 -0.56,-0.002 -0.174,0.02 -0.315,0.123 -0.477,0.166 -0.196,0.052 -0.351,0.085 -0.531,0.201 -0.162,0.104 -0.297,0.232 -0.49,0.28 -0.207,0.052 -0.274,-0.013 -0.345,-0.215 -0.059,-0.17 -0.125,-0.367 -0.128,-0.558 -0.007,-0.401 -0.172,-0.722 -0.171,-1.115 0.001,-0.114 0.005,-0.23 0.001,-0.343 -0.004,-0.133 -0.055,-0.22 -0.079,-0.343 -0.044,-0.219 0.036,-0.463 -0.015,-0.679 -0.019,-0.083 -0.069,-0.118 -0.08,-0.22 -0.013,-0.11 0.002,-0.233 0.002,-0.345 0,-0.113 0.008,-0.23 0.002,-0.343 -0.007,-0.13 -0.072,-0.219 -0.093,-0.343 -0.02,-0.124 -0.032,-0.222 -0.062,-0.343 -0.023,-0.094 -0.067,-0.201 -0.086,-0.276 -0.054,-0.223 -0.101,-0.371 -0.214,-0.558 -0.08,-0.133 -0.14,-0.265 -0.275,-0.368 -0.085,-0.064 -0.429,-0.303 -0.466,-0.103 0.213,0.084 0.546,0.017 0.771,0.019 0.242,10e-4 0.437,-0.072 0.674,-0.084 0.556,-0.028 1.082,-0.171 1.635,-0.174 0.187,0 0.449,-0.048 0.281,0.195 -0.111,0.161 -0.289,0.229 -0.435,0.341 -0.321,0.245 -0.444,0.642 -0.529,1.008 -0.105,0.452 -0.174,0.855 -0.174,1.333 0,0.213 0.003,0.426 0,0.64 -0.003,0.222 0.075,0.431 0.128,0.643 0.047,0.189 0.165,0.433 0.382,0.478 0.167,0.034 0.477,-0.128 0.637,-0.189 0.596,-0.224 1.258,-0.154 1.901,-0.161 0.702,-0.009 1.409,0.309 2.095,0.437 0.291,0.054 0.576,0.193 0.822,0.335 0.255,0.147 0.565,0.188 0.812,0.362 0.997,0.702 1.432,1.919 1.69,3.062 0.06,0.267 0.158,0.514 0.234,0.774 0.058,0.204 0.024,0.4 0.065,0.605 0.078,0.388 0.067,0.764 0.067,1.16 v 0.789 c 0,0.139 -10e-4,0.279 10e-4,0.419 0.003,0.222 -0.077,0.401 -0.091,0.619 -0.033,0.503 -0.16,1.028 -0.425,1.47 -0.287,0.481 -0.605,0.774 -1.075,1.032 -0.252,0.138 -0.529,0.155 -0.792,0.254 -0.24,0.091 -0.46,0.172 -0.709,0.239 -0.211,0.056 -0.408,0.134 -0.623,0.171 -0.339,0.059 -0.685,0.071 -1.011,0.183 -0.317,0.11 -0.66,0.109 -1.008,0.163 -0.144,0.022 -0.279,0.059 -0.42,0.085 -0.153,0.029 -0.299,-0.002 -0.451,0.015 -0.166,0.019 -0.347,0.077 -0.514,0.111 -0.177,0.036 -0.386,0.03 -0.553,0.072 -0.241,0.061 -0.4,0.163 -0.39,0.422 0.009,0.22 0.043,0.415 0.193,0.579 C 0.754,0.465 0.976,0.632 1.175,0.6 0.981,0.601 0.696,0.654 0.51,0.604 0.312,0.551 0.117,0.332 -0.002,0.171 -0.219,-0.122 -0.798,-0.984 0,0"
             style="fill:#000000;fill-opacity:1;fill-rule:nonzero;stroke:none"
             id="path22601" />
        </g>
        <g
           id="g22603"
           transform="translate(86.2145,405.702)">
          <path
             d="m 0,0 c 0.857,0 1.715,0.005 2.572,0 0.404,-0.003 0.777,0.163 1.113,0.365 0.12,0.071 0.3,0.168 0.382,0.285 0.099,0.139 0.08,0.417 0.146,0.593 C 4.282,1.428 4.25,1.598 4.305,1.777 4.334,1.871 4.417,1.957 4.442,2.059 4.479,2.201 4.445,2.343 4.479,2.487 4.54,2.753 4.595,3.032 4.633,3.306 4.666,3.536 4.719,3.749 4.717,3.989 4.715,4.178 4.763,4.434 4.721,4.617 4.696,4.724 4.644,4.767 4.628,4.885 4.613,4.993 4.629,5.121 4.631,5.231 4.633,5.41 4.58,5.56 4.526,5.727 4.5,5.81 4.377,6.057 4.313,6.114 4.172,6.242 3.979,6.092 3.816,6.045 3.62,5.988 3.424,6.003 3.216,6.003 3.137,6.003 3.032,6.023 2.955,6.006 2.867,5.987 2.831,5.94 2.749,5.915 2.553,5.855 2.335,5.882 2.14,5.836 2.058,5.817 2.02,5.761 1.933,5.743 1.856,5.726 1.752,5.746 1.672,5.746 1.478,5.746 1.264,5.719 1.072,5.743 0.665,5.793 0.299,5.95 -0.085,6.089 -0.271,6.157 -0.414,6.257 -0.603,6.325 -0.777,6.388 -0.859,6.507 -1.029,6.585 -1.282,6.699 -1.64,6.914 -1.79,7.168 -2.26,7.959 -2.51,8.91 -2.661,9.82 c -0.046,0.275 -0.088,0.549 -0.084,0.833 0.005,0.319 -0.086,0.602 -0.085,0.925 10e-4,0.233 -0.04,0.511 0.04,0.729 0.072,0.196 0.17,0.386 0.282,0.559 0.23,0.357 0.681,0.548 1.05,0.729 0.073,0.036 0.175,0.089 0.257,0.108 0.093,0.021 0.204,0.07 0.277,0.085 0.096,0.021 0.189,0 0.284,0.016 0.106,0.018 0.168,0.1 0.282,0.104 0.016,0.113 0.073,0.198 0.094,0.293 0.025,0.119 -0.008,0.239 0.026,0.359 0.032,0.116 0.068,0.165 0.066,0.32 -0.001,0.117 0.032,0.278 0.005,0.39 -0.019,0.081 -0.063,0.168 -0.088,0.25 -0.04,0.132 -0.08,0.206 -0.174,0.304 -0.152,0.158 -0.447,0.335 -0.649,0.329 0.088,-0.126 0.047,-0.311 0.049,-0.457 C -1.027,15.46 -1.07,15.357 -1.218,15.184 -1.336,15.045 -1.467,14.91 -1.625,14.815 -1.812,14.703 -1.964,14.572 -2.144,14.45 -2.452,14.241 -2.787,14.07 -3.088,13.851 -3.376,13.642 -3.544,13.295 -3.73,12.996 -3.835,12.828 -3.852,12.66 -3.901,12.479 -3.963,12.253 -4.016,12.06 -4.026,11.827 -4.04,11.491 -4.114,11.169 -4.116,10.828 -4.118,10.567 -4.081,10.285 -4.035,10.032 -4.019,9.941 -3.957,9.872 -3.94,9.781 -3.92,9.672 -3.955,9.565 -3.926,9.453 -3.88,9.275 -3.83,9.091 -3.782,8.912 -3.748,8.786 -3.766,8.697 -3.711,8.576 -3.671,8.488 -3.617,8.416 -3.597,8.318 -3.58,8.23 -3.604,8.137 -3.585,8.044 -3.552,7.891 -3.465,7.751 -3.438,7.596 -3.39,7.327 -3.264,7.157 -3.141,6.904 -2.948,6.509 -2.719,6.183 -2.452,5.838 -2.19,5.5 -1.96,5.248 -1.546,5.125 -1.232,5.031 -0.861,5.018 -0.526,4.985 -0.084,4.941 0.335,4.888 0.78,4.888 1.265,4.889 1.751,4.895 2.236,4.888 2.596,4.883 2.945,4.844 3.098,4.506 3.164,4.359 3.244,4.182 3.261,4.033 3.281,3.853 3.259,3.655 3.259,3.473 3.259,3.067 3.266,2.708 3.004,2.366 2.82,2.125 2.566,1.912 2.313,1.736 2.165,1.634 2.06,1.475 1.922,1.37 1.78,1.262 1.58,1.185 1.426,1.104 1.095,0.931 0.711,0.797 0.345,0.705 0.218,0.674 0.096,0.689 -0.036,0.687 -0.164,0.685 -0.225,0.65 -0.343,0.619 -0.443,0.594 -0.54,0.617 -0.636,0.593 -0.697,0.578 -0.787,0.519 -0.856,0.493 -1.082,0.408 -1.296,0.347 -1.501,0.225 -1.669,0.124 -1.831,-0.027 -2.034,0 -1.627,-0.002 -1.22,-0.002 -0.813,0 -0.702,0 -0.58,0.017 -0.472,-0.007 -0.379,-0.028 -0.183,-0.192 0,0"
             style="fill:#000000;fill-opacity:1;fill-rule:nonzero;stroke:none"
             id="path22605" />
        </g>
      </g>
    </g>
  </g>
</svg>
