<?xml version="1.0" encoding="UTF-8" standalone="no"?>
<!-- Created with Inkscape (http://www.inkscape.org/) -->

<svg
   width="22.995932"
   height="24"
   viewBox="0 0 6.0843402 6.35"
   version="1.1"
   id="svg43960"
   inkscape:version="1.2.1 (9c6d41e4, 2022-07-14)"
   sodipodi:docname="pillars-of-judgement.svg"
   xmlns:inkscape="http://www.inkscape.org/namespaces/inkscape"
   xmlns:sodipodi="http://sodipodi.sourceforge.net/DTD/sodipodi-0.dtd"
   xmlns="http://www.w3.org/2000/svg"
   xmlns:svg="http://www.w3.org/2000/svg">
  <sodipodi:namedview
     id="namedview43962"
     pagecolor="#505050"
     bordercolor="#eeeeee"
     borderopacity="1"
     inkscape:showpageshadow="0"
     inkscape:pageopacity="0"
     inkscape:pagecheckerboard="0"
     inkscape:deskcolor="#505050"
     inkscape:document-units="mm"
     showgrid="false"
     inkscape:zoom="0.7046647"
     inkscape:cx="-21.28672"
     inkscape:cy="193.70915"
     inkscape:window-width="1390"
     inkscape:window-height="941"
     inkscape:window-x="0"
     inkscape:window-y="25"
     inkscape:window-maximized="0"
     inkscape:current-layer="layer1" />
  <defs
     id="defs43957">
    <clipPath
       clipPathUnits="userSpaceOnUse"
       id="clipPath22325">
      <path
         d="m 39.631,404.587 h 24.7 v 24.7 h -24.7 z"
         id="path22323" />
    </clipPath>
  </defs>
  <g
     inkscape:label="Layer 1"
     inkscape:groupmode="layer"
     id="layer1"
     transform="translate(-110.62416,-97.704349)">
    <g
       id="g22319"
       transform="matrix(0.3048924,0,0,-0.3048924,97.774679,228.25665)">
      <g
         id="g22321"
         clip-path="url(#clipPath22325)">
        <g
           id="g22327"
           transform="translate(53.8234,421.886)">
          <path
             d="M 0,0 C 0.009,0.018 0.018,0.036 0.028,0.054 0.091,0.065 0.158,0.018 0.217,0.001 0.319,-0.029 0.444,-0.026 0.546,-0.054 0.888,-0.146 1.269,-0.336 1.589,-0.489 1.844,-0.61 2.057,-0.834 2.259,-1.027 2.555,-1.31 2.786,-1.555 2.878,-1.958 2.967,-2.346 3.032,-2.846 2.892,-3.228 2.831,-3.394 2.787,-3.58 2.708,-3.738 2.603,-3.95 2.434,-4.073 2.286,-4.244 1.711,-4.907 0.735,-5.199 -0.123,-5.228 c -0.307,-0.01 -0.62,-0.028 -0.907,0.079 -0.254,0.096 -0.529,0.237 -0.742,0.401 -0.497,0.385 -0.93,0.947 -0.934,1.611 -10e-4,0.192 0.029,0.429 0.074,0.616 0.021,0.087 0.08,0.164 0.101,0.251 0.019,0.075 0,0.141 0.016,0.213 0.047,0.202 0.158,0.42 0.285,0.583 0.107,0.137 0.348,0.239 0.506,0.32 0.216,0.111 0.442,0.235 0.678,0.287 0.47,0.104 0.887,0.165 1.353,0.054 0.113,-0.026 0.205,-0.063 0.304,-0.109 0.097,-0.044 0.205,-0.036 0.298,-0.074 0.14,-0.057 0.37,-0.204 0.46,-0.34 0.111,-0.168 0.125,-0.462 0.174,-0.662 0.022,-0.091 0.09,-0.211 0.103,-0.29 0.007,-0.044 0.023,-0.065 0.018,-0.111 -0.006,-0.067 -0.08,-0.082 -0.07,-0.16 0.072,0.058 0.109,0.182 0.129,0.267 0.029,0.126 0.053,0.251 0.059,0.383 0.007,0.153 -0.019,0.247 -0.076,0.386 -0.037,0.089 -0.045,0.155 -0.104,0.233 -0.069,0.091 -0.169,0.151 -0.236,0.245 -0.149,0.21 -0.387,0.392 -0.627,0.507 -0.16,0.076 -0.329,0.105 -0.493,0.17 -0.238,0.095 -0.499,0.061 -0.752,0.061 -0.346,0 -0.745,0.059 -1.076,-0.045 -0.153,-0.048 -0.36,-0.05 -0.499,-0.122 -0.161,-0.083 -0.313,-0.248 -0.426,-0.388 -0.08,-0.101 -0.14,-0.203 -0.197,-0.32 C -2.756,-1.291 -2.805,-1.367 -2.877,-1.463 -2.941,-1.549 -2.918,-1.579 -2.962,-1.658 -3.17,-2.03 -3.234,-2.43 -3.306,-2.843 -3.337,-3.017 -3.32,-3.201 -3.32,-3.378 c 0,-0.162 -0.023,-0.338 0.013,-0.495 0.095,-0.423 0.292,-0.775 0.584,-1.093 0.391,-0.427 0.924,-0.563 1.42,-0.818 0.22,-0.113 0.544,-0.12 0.787,-0.119 0.451,0.002 0.875,0.028 1.318,0.109 0.583,0.106 1.185,0.253 1.723,0.507 0.199,0.094 0.393,0.212 0.55,0.367 0.164,0.163 0.206,0.344 0.283,0.554 0.033,0.089 0.057,0.176 0.085,0.264 0.03,0.093 0.088,0.193 0.112,0.288 0.033,0.124 0.004,0.258 0.024,0.385 0.024,0.146 0.046,0.27 0.05,0.418 0.012,0.517 0.064,1.068 -0.185,1.532 C 3.306,-1.222 3.211,-0.957 3.012,-0.738 2.91,-0.625 2.853,-0.489 2.753,-0.378 2.658,-0.272 2.507,-0.213 2.396,-0.123 2.228,0.015 2.09,0.128 1.88,0.199 1.66,0.274 1.445,0.301 1.231,0.355 0.9,0.439 0.556,0.427 0.215,0.43 0.066,0.432 -0.043,0.397 -0.184,0.354 -0.293,0.32 -0.545,0.274 0,0"
             style="fill:#000000;fill-opacity:1;fill-rule:nonzero;stroke:none"
             id="path22329" />
        </g>
        <g
           id="g22331"
           transform="translate(52.969,422.268)">
          <path
             d="m 0,0 c -0.009,-0.019 -0.017,-0.037 -0.026,-0.055 -0.063,-0.014 -0.131,0.031 -0.191,0.046 -0.103,0.025 -0.227,0.018 -0.331,0.042 -0.345,0.079 -0.733,0.255 -1.059,0.395 -0.259,0.112 -0.48,0.327 -0.689,0.512 -0.307,0.272 -0.547,0.508 -0.655,0.908 -0.103,0.384 -0.187,0.881 -0.061,1.268 0.055,0.168 0.092,0.356 0.164,0.516 0.097,0.216 0.261,0.346 0.402,0.522 0.551,0.684 1.514,1.013 2.371,1.075 C 0.231,5.251 0.543,5.281 0.834,5.184 1.091,5.098 1.372,4.968 1.591,4.811 2.102,4.446 2.556,3.901 2.585,3.237 2.594,3.046 2.572,2.808 2.534,2.619 2.516,2.531 2.461,2.452 2.443,2.365 2.427,2.288 2.449,2.223 2.435,2.151 2.396,1.947 2.293,1.725 2.172,1.557 2.071,1.416 1.833,1.306 1.679,1.219 1.467,1.099 1.246,0.967 1.012,0.906 0.547,0.784 0.132,0.707 -0.338,0.8 -0.451,0.823 -0.545,0.856 -0.646,0.898 -0.744,0.939 -0.852,0.926 -0.946,0.961 -1.088,1.012 -1.324,1.15 -1.419,1.283 -1.536,1.446 -1.562,1.74 -1.618,1.938 -1.643,2.028 -1.716,2.145 -1.732,2.224 -1.741,2.268 -1.757,2.288 -1.754,2.334 -1.75,2.402 -1.677,2.419 -1.69,2.496 -1.76,2.436 -1.792,2.311 -1.809,2.224 -1.833,2.098 -1.853,1.972 -1.854,1.84 -1.855,1.687 -1.825,1.594 -1.762,1.458 -1.722,1.37 -1.711,1.304 -1.649,1.228 -1.578,1.14 -1.475,1.084 -1.405,0.993 -1.248,0.788 -1.004,0.616 -0.759,0.51 -0.597,0.439 -0.426,0.417 -0.26,0.358 -0.019,0.272 0.241,0.317 0.494,0.326 0.84,0.339 1.24,0.295 1.567,0.412 1.718,0.465 1.925,0.475 2.062,0.552 2.219,0.641 2.365,0.812 2.472,0.957 2.549,1.06 2.605,1.165 2.657,1.284 2.705,1.395 2.751,1.472 2.819,1.571 2.88,1.659 2.856,1.688 2.898,1.769 3.09,2.149 3.139,2.551 3.196,2.966 3.22,3.141 3.196,3.325 3.189,3.502 3.183,3.664 3.2,3.84 3.158,3.996 3.047,4.415 2.836,4.758 2.533,5.066 2.126,5.478 1.588,5.593 1.083,5.829 0.859,5.933 0.534,5.929 0.291,5.918 -0.159,5.899 -0.582,5.857 -1.021,5.759 -1.6,5.631 -2.195,5.462 -2.723,5.187 -2.919,5.086 -3.109,4.961 -3.259,4.799 -3.417,4.631 -3.452,4.448 -3.521,4.235 -3.551,4.145 -3.571,4.057 -3.596,3.969 -3.622,3.874 -3.677,3.772 -3.698,3.677 -3.725,3.551 -3.691,3.419 -3.707,3.291 -3.725,3.144 -3.742,3.019 -3.74,2.871 c 0.006,-0.517 -0.025,-1.07 0.242,-1.524 0.148,-0.252 0.253,-0.512 0.46,-0.724 0.106,-0.108 0.169,-0.243 0.273,-0.35 0.099,-0.102 0.252,-0.155 0.366,-0.241 0.173,-0.131 0.316,-0.239 0.528,-0.303 0.223,-0.066 0.438,-0.085 0.655,-0.131 0.333,-0.071 0.676,-0.046 1.017,-0.036 0.149,0.004 0.257,0.042 0.397,0.092 C 0.305,-0.309 0.555,-0.253 0,0"
             style="fill:#000000;fill-opacity:1;fill-rule:nonzero;stroke:none"
             id="path22333" />
        </g>
        <g
           id="g22335"
           transform="translate(55.7138,413.196)">
          <path
             d="m 0,0 0.009,-0.06 c -0.045,-0.046 -0.127,-0.046 -0.186,-0.067 -0.1,-0.035 -0.199,-0.109 -0.299,-0.146 -0.332,-0.123 -0.753,-0.189 -1.102,-0.25 -0.278,-0.049 -0.582,0.01 -0.858,0.05 -0.405,0.059 -0.735,0.125 -1.044,0.4 -0.298,0.265 -0.64,0.634 -0.748,1.027 -0.046,0.171 -0.118,0.348 -0.146,0.522 -0.037,0.233 0.029,0.431 0.051,0.656 0.085,0.874 0.71,1.678 1.393,2.199 0.243,0.186 0.488,0.382 0.784,0.461 0.263,0.07 0.569,0.115 0.838,0.104 C -0.681,4.871 -0.002,4.663 0.386,4.125 0.498,3.969 0.611,3.759 0.683,3.58 0.716,3.497 0.713,3.4 0.746,3.317 0.775,3.245 0.828,3.202 0.857,3.134 0.935,2.942 0.971,2.7 0.962,2.494 0.955,2.32 0.817,2.098 0.736,1.94 0.624,1.724 0.512,1.492 0.349,1.312 0.027,0.956 -0.277,0.664 -0.722,0.484 -0.829,0.441 -0.925,0.418 -1.033,0.397 -1.137,0.377 -1.22,0.308 -1.318,0.285 -1.465,0.25 -1.738,0.236 -1.89,0.295 c -0.187,0.072 -0.37,0.303 -0.526,0.439 -0.07,0.061 -0.195,0.119 -0.252,0.176 -0.031,0.032 -0.056,0.04 -0.079,0.08 -0.034,0.059 0.018,0.113 -0.035,0.171 -0.026,-0.089 0.016,-0.212 0.049,-0.293 0.05,-0.119 0.102,-0.235 0.174,-0.346 0.083,-0.128 0.159,-0.19 0.286,-0.27 0.082,-0.051 0.127,-0.1 0.22,-0.13 0.108,-0.033 0.225,-0.024 0.334,-0.062 0.243,-0.085 0.542,-0.095 0.805,-0.05 0.174,0.03 0.329,0.105 0.501,0.147 0.248,0.061 0.441,0.24 0.647,0.387 0.282,0.201 0.641,0.383 0.851,0.66 C 1.181,1.332 1.349,1.453 1.421,1.592 1.504,1.753 1.532,1.976 1.542,2.156 1.55,2.284 1.539,2.403 1.518,2.53 1.497,2.65 1.493,2.74 1.496,2.86 1.498,2.967 1.462,2.978 1.453,3.069 1.406,3.491 1.226,3.854 1.046,4.233 0.969,4.393 0.849,4.533 0.746,4.677 0.652,4.809 0.57,4.966 0.45,5.073 0.126,5.363 -0.238,5.535 -0.66,5.625 -1.227,5.746 -1.74,5.547 -2.291,5.468 -2.536,5.433 -2.805,5.251 -3.002,5.109 -3.368,4.845 -3.698,4.578 -4.012,4.256 -4.426,3.831 -4.831,3.363 -5.122,2.844 -5.23,2.652 -5.32,2.443 -5.358,2.226 c -0.039,-0.228 0.032,-0.4 0.091,-0.616 0.025,-0.091 0.056,-0.176 0.084,-0.263 0.029,-0.094 0.04,-0.209 0.075,-0.3 0.045,-0.121 0.146,-0.212 0.204,-0.328 0.065,-0.132 0.119,-0.247 0.202,-0.369 0.289,-0.429 0.566,-0.908 1.038,-1.142 0.262,-0.129 0.493,-0.289 0.782,-0.353 0.148,-0.033 0.274,-0.11 0.42,-0.143 0.139,-0.031 0.296,0.009 0.438,-10e-4 0.217,-0.015 0.396,-0.027 0.608,0.037 0.223,0.066 0.413,0.169 0.619,0.249 0.318,0.123 0.591,0.333 0.871,0.528 0.122,0.085 0.191,0.176 0.281,0.294 C 0.424,-0.091 0.603,0.093 0,0"
             style="fill:#000000;fill-opacity:1;fill-rule:nonzero;stroke:none"
             id="path22337" />
        </g>
        <g
           id="g22339"
           transform="translate(56.655,412.986)">
          <path
             d="M 0,0 C -0.004,0.02 -0.008,0.04 -0.011,0.06 0.032,0.107 0.114,0.11 0.172,0.133 0.27,0.172 0.367,0.25 0.466,0.291 0.793,0.426 1.211,0.508 1.557,0.582 1.833,0.642 2.139,0.595 2.416,0.565 2.823,0.522 3.155,0.468 3.475,0.205 3.782,-0.048 4.139,-0.404 4.261,-0.793 4.314,-0.962 4.392,-1.136 4.426,-1.309 4.472,-1.541 4.414,-1.741 4.401,-1.967 4.349,-2.843 3.755,-3.67 3.092,-4.217 2.856,-4.412 2.619,-4.617 2.326,-4.707 2.066,-4.787 1.762,-4.843 1.493,-4.842 0.865,-4.841 0.179,-4.66 -0.23,-4.137 c -0.118,0.152 -0.238,0.358 -0.317,0.534 -0.036,0.082 -0.037,0.179 -0.073,0.26 -0.031,0.071 -0.086,0.112 -0.117,0.179 -0.086,0.189 -0.131,0.429 -0.13,0.636 0.001,0.173 0.13,0.401 0.205,0.561 0.104,0.221 0.207,0.457 0.363,0.642 0.308,0.369 0.601,0.672 1.038,0.869 0.106,0.047 0.201,0.074 0.308,0.099 0.103,0.024 0.184,0.096 0.28,0.123 0.147,0.04 0.419,0.064 0.573,0.011 C 2.09,-0.288 2.281,-0.512 2.441,-0.641 2.515,-0.7 2.641,-0.753 2.7,-0.808 2.733,-0.839 2.758,-0.845 2.783,-0.885 2.818,-0.942 2.769,-0.999 2.824,-1.055 2.846,-0.965 2.8,-0.844 2.763,-0.764 2.71,-0.646 2.653,-0.532 2.577,-0.425 2.489,-0.299 2.411,-0.241 2.281,-0.166 2.197,-0.118 2.15,-0.07 2.056,-0.044 1.947,-0.015 1.83,-0.028 1.72,0.005 1.474,0.081 1.174,0.08 0.914,0.025 0.74,-0.012 0.589,-0.092 0.419,-0.141 0.173,-0.211 -0.013,-0.398 -0.213,-0.552 -0.488,-0.764 -0.839,-0.96 -1.038,-1.244 -1.13,-1.375 -1.293,-1.504 -1.36,-1.645 c -0.077,-0.164 -0.096,-0.387 -0.1,-0.568 -0.002,-0.128 0.013,-0.246 0.039,-0.373 0.025,-0.119 0.032,-0.208 0.035,-0.329 10e-4,-0.107 0.038,-0.117 0.051,-0.206 0.063,-0.421 0.256,-0.777 0.451,-1.149 0.082,-0.156 0.208,-0.292 0.316,-0.432 0.099,-0.129 0.187,-0.282 0.311,-0.384 0.334,-0.278 0.705,-0.435 1.13,-0.51 0.571,-0.1 1.076,0.118 1.624,0.219 0.243,0.044 0.505,0.236 0.697,0.386 0.355,0.277 0.675,0.556 0.977,0.89 0.397,0.44 0.784,0.924 1.056,1.453 0.1,0.196 0.182,0.408 0.211,0.627 0.031,0.229 -0.047,0.398 -0.114,0.612 -0.028,0.09 -0.062,0.174 -0.093,0.26 -0.034,0.093 -0.048,0.207 -0.087,0.297 -0.05,0.118 -0.154,0.206 -0.216,0.32 C 4.857,-0.403 4.799,-0.29 4.712,-0.171 4.407,0.246 4.112,0.715 3.631,0.93 3.364,1.05 3.128,1.201 2.837,1.254 2.687,1.281 2.558,1.353 2.412,1.38 2.271,1.406 2.116,1.361 1.973,1.365 1.756,1.371 1.577,1.376 1.368,1.305 1.147,1.23 0.961,1.12 0.758,1.033 0.445,0.897 0.18,0.677 -0.092,0.472 -0.211,0.382 -0.276,0.289 -0.362,0.168 -0.427,0.075 -0.599,-0.115 0,0"
             style="fill:#000000;fill-opacity:1;fill-rule:nonzero;stroke:none"
             id="path22341" />
        </g>
        <g
           id="g22343"
           transform="translate(47.9058,414.351)">
          <path
             d="m 0,0 c 0.02,0.001 0.041,0.001 0.061,0.002 0.04,-0.05 0.03,-0.132 0.044,-0.192 0.023,-0.104 0.085,-0.212 0.11,-0.315 0.083,-0.344 0.099,-0.77 0.118,-1.124 0.016,-0.282 -0.078,-0.576 -0.151,-0.846 -0.106,-0.395 -0.21,-0.715 -0.52,-0.99 -0.298,-0.264 -0.705,-0.561 -1.108,-0.62 -0.175,-0.027 -0.359,-0.077 -0.535,-0.084 -0.237,-0.009 -0.426,0.079 -0.646,0.128 -0.858,0.187 -1.583,0.903 -2.02,1.642 -0.156,0.264 -0.322,0.53 -0.365,0.834 -0.038,0.268 -0.046,0.578 -0.004,0.844 0.099,0.62 0.385,1.269 0.966,1.591 0.167,0.093 0.39,0.181 0.576,0.23 0.086,0.023 0.182,0.01 0.268,0.032 0.076,0.02 0.124,0.069 0.195,0.088 0.2,0.056 0.444,0.063 0.648,0.03 0.172,-0.028 0.377,-0.191 0.523,-0.29 0.202,-0.137 0.419,-0.276 0.578,-0.458 0.316,-0.362 0.57,-0.699 0.696,-1.161 0.031,-0.112 0.042,-0.21 0.05,-0.32 0.008,-0.105 0.066,-0.197 0.078,-0.296 0.017,-0.151 -0.001,-0.423 -0.078,-0.567 -0.094,-0.177 -0.345,-0.331 -0.498,-0.47 -0.069,-0.063 -0.141,-0.18 -0.204,-0.23 -0.036,-0.027 -0.046,-0.051 -0.089,-0.069 -0.062,-0.026 -0.11,0.031 -0.174,-0.015 0.085,-0.036 0.212,-0.009 0.296,0.015 0.125,0.035 0.246,0.074 0.365,0.132 0.137,0.067 0.207,0.135 0.301,0.252 0.061,0.075 0.115,0.114 0.155,0.203 0.047,0.103 0.051,0.22 0.102,0.324 0.113,0.231 0.158,0.527 0.144,0.794 -0.009,0.176 -0.065,0.338 -0.086,0.514 -0.032,0.254 -0.187,0.467 -0.308,0.688 -0.167,0.304 -0.305,0.682 -0.555,0.923 -0.116,0.111 -0.217,0.293 -0.347,0.38 -0.15,0.102 -0.367,0.155 -0.545,0.187 -0.127,0.023 -0.246,0.026 -0.375,0.02 -0.121,-0.006 -0.21,0 -0.33,0.017 C -2.769,1.838 -2.785,1.804 -2.876,1.805 -3.301,1.808 -3.683,1.672 -4.08,1.538 -4.248,1.481 -4.401,1.378 -4.556,1.293 -4.699,1.215 -4.864,1.152 -4.985,1.045 -5.31,0.758 -5.524,0.417 -5.664,0.008 -5.851,-0.54 -5.714,-1.073 -5.7,-1.63 c 0.006,-0.247 0.155,-0.535 0.273,-0.748 0.218,-0.395 0.444,-0.754 0.727,-1.104 0.373,-0.461 0.79,-0.919 1.271,-1.269 0.178,-0.129 0.375,-0.244 0.587,-0.307 0.221,-0.066 0.4,-0.015 0.621,0.018 0.094,0.014 0.182,0.034 0.272,0.052 0.097,0.018 0.212,0.015 0.307,0.039 0.125,0.031 0.228,0.121 0.349,0.164 0.14,0.049 0.259,0.089 0.391,0.157 0.459,0.236 0.968,0.455 1.256,0.896 0.159,0.245 0.345,0.455 0.443,0.735 0.05,0.143 0.142,0.259 0.191,0.4 0.048,0.135 0.027,0.295 0.053,0.435 0.04,0.214 0.073,0.39 0.035,0.608 C 1.037,-1.325 0.957,-1.124 0.902,-0.91 0.817,-0.58 0.641,-0.283 0.481,0.017 0.411,0.149 0.328,0.228 0.222,0.331 0.14,0.411 -0.021,0.61 0,0"
             style="fill:#000000;fill-opacity:1;fill-rule:nonzero;stroke:none"
             id="path22345" />
        </g>
        <g
           id="g22347"
           transform="translate(47.7064,415.2)">
          <path
             d="m 0,0 c -0.02,-0.002 -0.04,-0.003 -0.061,-0.004 -0.042,0.048 -0.035,0.13 -0.051,0.19 -0.027,0.103 -0.093,0.208 -0.122,0.311 -0.097,0.34 -0.129,0.765 -0.163,1.118 -0.026,0.281 0.057,0.578 0.118,0.851 0.091,0.399 0.183,0.723 0.482,1.009 C 0.49,3.751 0.885,4.063 1.286,4.139 1.46,4.172 1.642,4.229 1.817,4.243 2.053,4.261 2.245,4.18 2.468,4.141 3.332,3.987 4.084,3.3 4.55,2.578 4.716,2.32 4.892,2.061 4.947,1.759 4.996,1.493 5.016,1.184 4.984,0.917 4.909,0.293 4.649,-0.367 4.081,-0.712 3.917,-0.811 3.698,-0.907 3.514,-0.964 3.429,-0.99 3.333,-0.98 3.248,-1.006 3.173,-1.029 3.126,-1.08 3.056,-1.102 2.859,-1.165 2.615,-1.182 2.41,-1.157 2.237,-1.136 2.026,-0.981 1.876,-0.887 1.669,-0.759 1.447,-0.628 1.281,-0.452 0.951,-0.103 0.684,0.224 0.54,0.681 0.505,0.791 0.49,0.889 0.477,0.998 0.466,1.103 0.403,1.192 0.388,1.291 0.365,1.441 0.373,1.714 0.443,1.861 0.531,2.042 0.775,2.205 0.922,2.35 0.99,2.416 1.057,2.535 1.118,2.587 1.152,2.616 1.162,2.64 1.204,2.66 1.265,2.689 1.316,2.633 1.378,2.681 1.291,2.714 1.165,2.682 1.082,2.655 0.959,2.616 0.839,2.572 0.723,2.51 0.588,2.437 0.521,2.366 0.432,2.246 0.374,2.168 0.321,2.127 0.285,2.036 0.242,1.931 0.242,1.814 0.196,1.709 0.092,1.473 0.058,1.176 0.082,0.91 0.099,0.734 0.161,0.574 0.189,0.4 0.23,0.147 0.394,-0.06 0.523,-0.276 c 0.178,-0.298 0.332,-0.67 0.591,-0.901 0.12,-0.106 0.228,-0.284 0.361,-0.366 0.154,-0.096 0.373,-0.141 0.552,-0.165 0.128,-0.018 0.247,-0.017 0.375,-0.005 0.121,0.01 0.211,0.007 0.331,-0.005 0.106,-0.01 0.12,0.024 0.211,0.027 0.425,0.013 0.801,0.164 1.193,0.313 0.165,0.064 0.315,0.173 0.466,0.264 0.14,0.083 0.302,0.153 0.419,0.264 0.314,0.299 0.514,0.649 0.638,1.063 C 5.826,0.768 5.668,1.295 5.632,1.851 5.616,2.098 5.456,2.38 5.33,2.588 5.097,2.974 4.857,3.324 4.561,3.662 4.17,4.109 3.735,4.55 3.241,4.881 3.058,5.003 2.857,5.11 2.643,5.165 2.419,5.222 2.242,5.164 2.022,5.123 1.929,5.105 1.842,5.081 1.753,5.06 1.657,5.038 1.542,5.037 1.448,5.009 1.324,4.973 1.225,4.88 1.105,4.832 0.968,4.777 0.85,4.732 0.721,4.66 0.271,4.405 -0.229,4.167 -0.499,3.715 -0.649,3.464 -0.827,3.247 -0.913,2.964 -0.958,2.818 -1.045,2.699 -1.089,2.557 -1.131,2.42 -1.104,2.26 -1.125,2.119 -1.157,1.904 -1.183,1.727 -1.136,1.511 -1.088,1.283 -1,1.085 -0.937,0.874 -0.839,0.547 -0.652,0.258 -0.48,-0.036 -0.404,-0.165 -0.319,-0.241 -0.209,-0.34 -0.124,-0.416 0.045,-0.609 0,0"
             style="fill:#000000;fill-opacity:1;fill-rule:nonzero;stroke:none"
             id="path22349" />
        </g>
      </g>
    </g>
  </g>
</svg>
