<?xml version="1.0" encoding="UTF-8" standalone="no"?>
<!-- Created with Inkscape (http://www.inkscape.org/) -->

<svg
   width="25.670803"
   height="24"
   viewBox="0 0 6.7920665 6.35"
   version="1.1"
   id="svg43578"
   inkscape:version="1.2.1 (9c6d41e4, 2022-07-14)"
   sodipodi:docname="pnakotic-brotherhood.svg"
   xmlns:inkscape="http://www.inkscape.org/namespaces/inkscape"
   xmlns:sodipodi="http://sodipodi.sourceforge.net/DTD/sodipodi-0.dtd"
   xmlns="http://www.w3.org/2000/svg"
   xmlns:svg="http://www.w3.org/2000/svg">
  <sodipodi:namedview
     id="namedview43580"
     pagecolor="#505050"
     bordercolor="#eeeeee"
     borderopacity="1"
     inkscape:showpageshadow="0"
     inkscape:pageopacity="0"
     inkscape:pagecheckerboard="0"
     inkscape:deskcolor="#505050"
     inkscape:document-units="mm"
     showgrid="false"
     inkscape:zoom="0.7046647"
     inkscape:cx="45.411669"
     inkscape:cy="267.50311"
     inkscape:window-width="1390"
     inkscape:window-height="941"
     inkscape:window-x="0"
     inkscape:window-y="25"
     inkscape:window-maximized="0"
     inkscape:current-layer="layer1" />
  <defs
     id="defs43575">
    <clipPath
       clipPathUnits="userSpaceOnUse"
       id="clipPath9565">
      <path
         d="m 321.239,415.945 h 24.699 v 24.699 h -24.699 z"
         id="path9563" />
    </clipPath>
  </defs>
  <g
     inkscape:label="Layer 1"
     inkscape:groupmode="layer"
     id="layer1"
     transform="translate(-93.269409,-78.133909)">
    <g
       id="g9559"
       transform="matrix(0.30113907,0,0,-0.30113907,-3.8685438,210.07576)">
      <g
         id="g9561"
         clip-path="url(#clipPath9565)">
        <g
           id="g9567"
           transform="translate(336.507,425.629)">
          <path
             d="M 0,0 C -0.034,-0.759 0.023,-0.973 0.018,-0.787 0.02,-0.861 0.035,-0.946 0.025,-1.02 0.012,-1.116 0.004,-1.094 -0.099,-1.109 c -0.116,-0.017 -0.206,-0.044 -0.323,-0.046 -0.056,-10e-4 -0.169,-0.026 -0.216,-0.008 -0.089,0.032 -0.05,0.267 -0.053,0.352 -0.004,0.086 0.014,0.155 0.03,0.239 0.019,0.101 0.005,0.204 0.003,0.305 -0.004,0.136 -0.059,0.376 -0.004,0.503 0.026,0.061 0.092,0.084 0.154,0.098 0.033,0.007 0.072,0.003 0.107,0.01 0.015,0.004 0.032,0.031 0.055,0.036 0.157,0.038 0.307,0.002 0.43,-0.074 l 0.1,-0.375 C 0.189,-0.041 -0.026,-0.018 0,0 m -1.939,-1.154 c -0.043,-0.019 -0.151,0 -0.203,-0.002 -0.11,-0.003 -0.195,0.019 -0.304,0.03 -0.098,0.01 -0.104,-0.013 -0.122,0.084 -0.013,0.074 -0.235,-0.071 -0.237,0.004 -0.007,0.263 0.002,0.532 -0.023,0.795 0.026,-0.017 0.042,0.192 0.049,0.164 l 0.088,0.372 c 0.112,0.082 0.25,0.126 0.4,0.096 0.022,-0.004 0.038,-0.031 0.053,-0.033 0.033,-0.006 0.069,0.001 0.101,-0.005 0.059,-0.012 0.121,-0.031 0.149,-0.091 0.057,-0.125 0.018,-0.37 0.022,-0.507 0.003,-0.103 -0.005,-0.207 0.018,-0.308 0.019,-0.084 0.039,-0.152 0.04,-0.24 0.002,-0.085 0.05,-0.321 -0.031,-0.359 m -0.808,-4.533 c -0.04,-0.021 -0.14,-10e-4 -0.188,-0.003 -0.101,-0.004 -0.181,0.019 -0.282,0.031 -0.09,0.011 -0.096,-0.013 -0.112,0.087 -0.013,0.077 -0.218,-0.073 -0.22,0.005 -0.006,0.273 10e-4,0.552 -0.021,0.825 0.023,-0.018 0.038,0.199 0.045,0.17 l 0.082,0.387 c 0.103,0.085 0.231,0.131 0.37,0.1 0.02,-0.005 0.036,-0.032 0.049,-0.035 0.031,-0.006 0.064,0.001 0.094,-0.005 0.054,-0.012 0.112,-0.032 0.138,-0.095 0.053,-0.129 0.017,-0.384 0.02,-0.527 0.003,-0.106 -0.004,-0.215 0.017,-0.319 0.018,-0.087 0.036,-0.158 0.038,-0.249 10e-4,-0.089 0.046,-0.334 -0.03,-0.372 m -0.697,12.361 0.108,0.432 c 0.137,0.095 0.305,0.146 0.488,0.111 C -2.821,7.212 -2.801,7.182 -2.783,7.179 -2.742,7.172 -2.698,7.18 -2.659,7.173 -2.588,7.16 -2.512,7.137 -2.477,7.068 -2.407,6.922 -2.455,6.638 -2.45,6.479 -2.447,6.36 -2.456,6.239 -2.428,6.122 -2.405,6.025 -2.38,5.945 -2.379,5.844 -2.377,5.745 -2.318,5.471 -2.418,5.428 -2.47,5.405 -2.602,5.427 -2.666,5.425 -2.799,5.421 -2.904,5.447 -3.037,5.46 -3.156,5.471 -3.164,5.445 -3.185,5.557 c -0.017,0.086 -0.287,-0.082 -0.29,0.005 -0.008,0.305 0.002,0.617 -0.028,0.921 0.031,-0.019 0.05,0.223 0.059,0.191 m -1.23,-10.96 c -0.012,-0.307 0.011,-0.62 0.018,-0.927 0.002,-0.088 0.017,-0.188 0.007,-0.275 -0.014,-0.114 -0.022,-0.087 -0.125,-0.105 -0.115,-0.021 -0.205,-0.052 -0.322,-0.054 -0.055,-0.002 -0.169,-0.031 -0.216,-0.01 -0.089,0.038 -0.05,0.315 -0.053,0.415 -0.003,0.102 0.015,0.183 0.031,0.282 0.019,0.119 0.005,0.24 0.002,0.36 -0.003,0.16 -0.058,0.443 -0.003,0.593 0.026,0.071 0.091,0.098 0.153,0.115 0.033,0.009 0.072,0.003 0.107,0.012 0.016,0.004 0.032,0.036 0.055,0.042 0.157,0.045 0.307,0.002 0.43,-0.087 l 0.099,-0.443 c 0.006,0.033 -0.209,0.061 -0.183,0.082 m 5.433,-3.972 c 0.073,0.021 0.133,0.05 0.214,0.104 0.033,0.023 0.072,0.032 0.096,0.066 0.017,0.024 0.007,0.052 0.011,0.08 0.03,0.172 -0.015,0.39 -0.022,0.566 -0.057,1.469 -0.114,2.939 -0.114,4.409 0,0.306 -0.12,0.87 0.107,1.097 0.232,0.231 0.646,0.061 0.944,0.126 0.027,0.312 -0.28,0.683 -0.399,0.964 C 1.467,-0.544 1.431,-0.222 1.29,0.041 1.234,0.086 1.179,0.133 1.126,0.181 1.087,0.271 1.078,0.364 1.101,0.461 1.046,0.602 0.994,0.637 0.943,0.787 0.824,1.144 0.701,1.498 0.643,1.861 0.586,2.221 0.42,2.552 0.339,2.898 0.281,3.145 0.19,3.257 0.179,3.541 0.171,3.732 0.184,3.925 0.182,4.116 0.181,4.23 0.119,4.549 0.188,4.64 0.3,4.784 0.326,4.65 0.486,4.713 0.873,4.865 0.728,5.09 0.605,5.449 0.54,5.64 0.382,5.855 0.297,6.055 0.193,6.301 0.15,6.596 0.03,6.862 -0.255,7.49 -0.252,8.158 -0.423,8.842 -0.512,9.199 -0.65,9.535 -0.719,9.901 c -0.038,0.201 0.036,0.414 -0.005,0.609 -0.035,0.167 -0.138,0.288 -0.168,0.457 -0.099,0.559 0.091,1.293 -0.635,1.488 -0.107,0.029 -0.295,0.109 -0.401,0.012 -0.116,-0.107 0.039,-0.328 -0.011,-0.445 -0.104,-0.244 -0.451,-0.143 -0.697,-0.141 -0.123,10e-4 -0.264,0.02 -0.384,0.004 -0.134,-0.018 -0.244,-0.105 -0.335,-0.122 -0.421,-0.078 -0.287,0.009 -0.494,0.276 -0.454,0.584 -0.76,-0.348 -0.885,-0.641 C -4.865,11.091 -4.876,10.802 -5.001,10.515 -5.081,10.331 -5.11,10.107 -5.149,9.904 -5.278,9.246 -5.373,8.577 -5.45,7.917 -5.509,7.411 -5.753,6.924 -5.877,6.398 -5.942,6.123 -5.956,5.861 -6.135,5.632 -6.263,5.469 -6.464,5.389 -6.528,5.186 -6.586,4.999 -6.552,4.663 -6.413,4.525 -6.2,4.312 -5.921,4.528 -5.714,4.31 -5.439,4.018 -5.755,3.992 -5.881,3.778 -5.947,3.666 -5.913,3.508 -5.944,3.384 -5.975,3.266 -6.046,3.212 -6.067,3.049 -6.132,2.536 -6.169,2.144 -6.372,1.679 -6.468,1.461 -6.48,1.186 -6.554,0.947 -6.636,0.685 -6.815,0.464 -6.829,0.152 c -0.012,-0.269 -0.1,-0.372 -0.156,-0.602 -0.06,-0.246 -0.008,-0.534 -0.068,-0.769 -0.065,-0.248 -0.225,-0.648 -0.24,-0.917 -0.021,-0.366 0.175,-0.311 0.468,-0.302 0.659,0.019 0.713,-0.495 0.617,-1.071 -0.037,-0.221 -0.152,-0.355 -0.163,-0.609 -0.008,-0.149 0.002,-0.304 0.003,-0.453 0.002,-0.307 0.016,-0.609 -0.034,-0.914 -0.072,-0.434 -0.226,-0.848 -0.305,-1.283 -0.045,-0.253 -0.108,-0.502 -0.155,-0.755 -0.026,-0.138 -0.055,-0.306 0.051,-0.42 0.148,-0.157 0.426,-0.111 0.62,-0.159 0.267,-0.066 0.526,-0.158 0.793,-0.223 0.483,-0.117 0.977,-0.112 1.47,-0.105 0.221,0.002 0.431,-0.05 0.656,-0.049 0.177,10e-4 0.328,-0.043 0.503,-0.047 0.139,-0.003 0.262,-0.048 0.403,-0.047 0.175,0.001 0.349,0 0.523,0 0.19,0 0.376,0.009 0.561,0.059 0.13,0.034 0.257,0.038 0.385,0.072 0.148,0.04 0.322,0.019 0.477,0.047 0.189,0.036 0.385,-0.009 0.576,0.008 0.157,0.015 0.308,0.072 0.462,0.099 0.055,0.009 0.1,0.018 0.141,0.03"
             style="fill:#231f20;fill-opacity:1;fill-rule:nonzero;stroke:none"
             id="path9569" />
        </g>
        <g
           id="g9571"
           transform="translate(337.724,430.292)">
          <path
             d="M 0,0 C -0.008,-0.001 -0.017,-0.002 -0.025,-0.002 0.032,0.067 0.135,0.112 0.212,0.152 0.321,0.209 0.444,0.218 0.562,0.244 0.702,0.275 0.838,0.31 0.98,0.328 1.443,0.385 1.944,0.362 2.412,0.349 2.584,0.344 2.753,0.304 2.922,0.27 3.099,0.235 3.293,0.231 3.473,0.219 3.875,0.191 4.3,0.142 4.694,0.065 4.973,0.011 5.306,-0.059 5.584,0.042 5.807,0.124 6.072,0.147 6.223,0.348 6.351,0.519 6.318,0.725 6.232,0.914 6.199,0.986 6.168,1.056 6.099,1.098 6.013,1.151 5.886,1.091 5.817,1.161 5.88,1.228 5.929,1.236 6.007,1.268 6.121,1.314 6.227,1.383 6.352,1.394 6.586,1.413 6.871,1.345 7.076,1.233 7.157,1.19 7.286,1.085 7.33,1.001 7.359,0.946 7.343,0.887 7.358,0.826 7.382,0.73 7.391,0.657 7.391,0.553 7.391,0.385 7.414,0.199 7.382,0.035 7.333,-0.226 7.113,-0.371 6.998,-0.592 6.93,-0.723 6.864,-0.87 6.736,-0.957 6.653,-1.014 6.549,-1.034 6.452,-1.043 6.314,-1.056 6.198,-1.087 6.057,-1.086 c -0.263,0.001 -0.526,0.001 -0.788,0 -0.232,-0.002 -0.421,0.051 -0.633,0.142 -0.108,0.046 -0.225,0.056 -0.332,0.101 -0.1,0.043 -0.191,0.083 -0.295,0.115 -0.162,0.05 -0.319,0.095 -0.48,0.141 -0.181,0.053 -0.355,0.11 -0.545,0.109 -0.145,-0.001 -0.291,0 -0.437,0 -0.125,0 -0.25,-0.001 -0.376,0 -0.126,0 -0.21,-0.019 -0.324,-0.053 C 1.758,-0.558 1.605,-0.616 1.523,-0.676 1.404,-0.762 1.402,-0.966 1.462,-1.089 1.515,-1.2 1.61,-1.365 1.712,-1.437 1.818,-1.513 2.027,-1.629 2.159,-1.608 1.981,-1.609 1.821,-1.663 1.637,-1.653 c -0.127,0.007 -0.262,0.06 -0.368,0.126 -0.085,0.053 -0.17,0.103 -0.245,0.18 -0.085,0.085 -0.137,0.168 -0.21,0.262 -0.067,0.087 -0.166,0.168 -0.271,0.173 -0.136,0.006 -0.247,0 -0.376,0.033 -0.118,0.03 -0.288,-0.023 -0.397,-0.077 -0.104,-0.052 -0.272,-0.123 -0.339,-0.224 0.08,0.079 0.083,0.216 0.141,0.313 0.054,0.09 0.113,0.165 0.155,0.258 0.033,0.073 0.092,0.167 0.136,0.23 C -0.102,-0.33 -0.001,-0.183 0,0"
             style="fill:#231f20;fill-opacity:1;fill-rule:nonzero;stroke:none"
             id="path9573" />
        </g>
        <g
           id="g9575"
           transform="translate(324.014,429.824)">
          <path
             d="M 0,0 C 0.043,-0.135 0.179,-0.269 0.297,-0.338 0.369,-0.38 0.459,-0.405 0.535,-0.445 0.575,-0.467 0.81,-0.537 0.818,-0.576 0.848,-0.712 0.197,-0.78 0.115,-0.783 c -0.156,-0.007 -0.313,-0.008 -0.464,0.032 -0.156,0.042 -0.328,0.028 -0.465,0.11 -0.139,0.083 -0.265,0.172 -0.379,0.293 -0.058,0.061 -0.168,0.145 -0.198,0.226 -0.019,0.054 0.003,0.101 -0.006,0.156 -0.011,0.066 -0.037,0.114 -0.044,0.181 -0.024,0.224 0.049,0.495 0.154,0.688 0.159,0.29 0.464,0.422 0.751,0.522 0.122,0.042 0.253,0.026 0.373,0.05 0.091,0.019 0.148,0.047 0.245,0.046 0.083,0 0.166,0 0.249,0 C 0.442,1.522 0.511,1.498 0.615,1.475 0.667,1.464 0.721,1.48 0.775,1.468 0.779,1.467 0.857,1.437 0.864,1.434 0.932,1.409 0.996,1.4 1.07,1.381 1.214,1.345 1.349,1.265 1.49,1.227 1.567,1.206 1.618,1.216 1.687,1.173 1.752,1.133 1.821,1.091 1.893,1.054 2.042,0.976 2.171,0.88 2.314,0.792 2.463,0.7 2.582,0.695 2.757,0.695 c 0.164,0 0.339,0.02 0.502,0.003 C 3.421,0.681 3.578,0.622 3.741,0.61 3.893,0.598 4.049,0.546 4.196,0.513 4.253,0.5 4.307,0.461 4.363,0.444 4.432,0.424 4.506,0.42 4.57,0.381 4.616,0.354 4.642,0.325 4.691,0.303 4.73,0.285 4.777,0.279 4.816,0.261 5.014,0.168 5.218,0.079 5.431,0.012 c 0.066,-0.021 0.132,-0.046 0.198,-0.067 0.089,-0.029 0.155,-0.017 0.246,-0.03 0.053,-0.007 0.126,-0.058 0.178,-0.05 0.044,0.007 0.051,0.059 0.104,0.051 C 6.08,-0.188 5.907,-0.167 5.81,-0.226 5.799,-0.232 5.77,-0.281 5.754,-0.294 5.723,-0.319 5.653,-0.34 5.615,-0.364 5.542,-0.411 5.462,-0.458 5.381,-0.49 5.133,-0.586 4.874,-0.609 4.609,-0.609 4.35,-0.609 4.045,-0.656 3.795,-0.599 3.697,-0.576 3.581,-0.51 3.477,-0.478 3.42,-0.46 3.36,-0.445 3.301,-0.424 3.249,-0.406 3.18,-0.388 3.125,-0.36 3.029,-0.309 2.939,-0.264 2.837,-0.217 2.796,-0.198 2.758,-0.168 2.716,-0.152 2.652,-0.127 2.579,-0.115 2.51,-0.087 2.407,-0.045 2.274,-0.017 2.164,-0.047 2.031,-0.083 2.002,-0.175 1.883,-0.054 1.723,0.107 1.541,0.243 1.358,0.375 1.263,0.444 1.177,0.518 1.049,0.522 0.913,0.526 0.799,0.565 0.659,0.565 c -0.185,-0.001 -0.371,0 -0.556,0 -0.063,0 -0.146,0.014 -0.207,0.002 C -0.161,0.555 -0.201,0.512 -0.246,0.469 -0.373,0.348 -0.342,0.203 -0.216,0.084 -0.148,0.019 0.025,-0.12 0,0"
             style="fill:#231f20;fill-opacity:1;fill-rule:nonzero;stroke:none"
             id="path9577" />
        </g>
        <g
           id="g9579"
           transform="translate(338.415,426.96)">
          <path
             d="M 0,0 C 0.053,0.151 0.177,0.163 0.3,0.233 0.369,0.273 0.419,0.342 0.486,0.384 0.579,0.443 0.675,0.453 0.778,0.479 0.936,0.519 1.07,0.566 1.236,0.567 1.473,0.568 1.726,0.589 1.957,0.544 2.078,0.52 2.185,0.501 2.302,0.457 2.457,0.399 2.612,0.381 2.771,0.338 3.272,0.2 3.775,-0.008 4.304,-0.001 4.549,0.002 4.794,0 5.039,0 5.177,0 5.315,0.001 5.453,0 5.526,0 5.673,-0.032 5.722,0.036 5.649,-0.012 5.551,-0.044 5.475,-0.097 5.411,-0.141 5.362,-0.199 5.297,-0.243 5.201,-0.308 5.087,-0.346 4.995,-0.414 4.873,-0.504 4.738,-0.562 4.594,-0.62 4.498,-0.659 4.404,-0.72 4.302,-0.741 4.173,-0.767 4.047,-0.784 3.911,-0.781 3.74,-0.778 3.577,-0.826 3.401,-0.826 3.145,-0.825 2.841,-0.872 2.59,-0.823 c -0.254,0.05 -0.491,0.215 -0.741,0.291 -0.076,0.023 -0.157,0.033 -0.233,0.054 -0.069,0.019 -0.123,0.055 -0.191,0.077 -0.105,0.033 -0.23,0.074 -0.338,0.093 -0.202,0.036 -0.391,0.047 -0.609,0.047 -0.122,0 -0.274,0.024 -0.392,0.001 -0.09,-0.017 -0.154,-0.065 -0.255,-0.036 C -0.13,-0.205 -0.078,-0.027 0,0"
             style="fill:#231f20;fill-opacity:1;fill-rule:nonzero;stroke:none"
             id="path9581" />
        </g>
        <g
           id="g9583"
           transform="translate(337.097,433.477)">
          <path
             d="m 0,0 c 0.043,0.127 0.143,0.137 0.243,0.197 0.055,0.032 0.096,0.091 0.15,0.126 0.075,0.05 0.153,0.058 0.236,0.08 C 0.757,0.437 0.865,0.477 1,0.477 1.19,0.478 1.395,0.495 1.582,0.458 1.68,0.438 1.767,0.421 1.861,0.385 1.986,0.336 2.112,0.321 2.24,0.285 2.646,0.169 3.051,-0.007 3.479,-0.001 3.677,0.002 3.876,0 4.074,0 4.185,0 4.297,0.001 4.408,0 4.467,0 4.587,-0.027 4.626,0.03 4.567,-0.01 4.488,-0.037 4.426,-0.081 4.374,-0.118 4.335,-0.168 4.282,-0.205 4.205,-0.259 4.113,-0.291 4.038,-0.348 3.94,-0.424 3.83,-0.473 3.714,-0.522 3.636,-0.555 3.561,-0.606 3.477,-0.624 3.374,-0.645 3.271,-0.659 3.162,-0.657 3.023,-0.655 2.892,-0.695 2.749,-0.695 2.543,-0.694 2.297,-0.733 2.094,-0.692 c -0.206,0.042 -0.397,0.18 -0.599,0.244 -0.062,0.02 -0.127,0.028 -0.189,0.046 -0.055,0.016 -0.099,0.046 -0.154,0.065 -0.084,0.028 -0.186,0.062 -0.274,0.078 -0.163,0.03 -0.315,0.04 -0.492,0.04 -0.098,0 -0.221,0.02 -0.317,0 -0.073,-0.014 -0.124,-0.055 -0.206,-0.03 C -0.105,-0.173 -0.063,-0.022 0,0"
             style="fill:#231f20;fill-opacity:1;fill-rule:nonzero;stroke:none"
             id="path9585" />
        </g>
        <g
           id="g9587"
           transform="translate(329.187,427.151)">
          <path
             d="m 0,0 c -0.012,0.002 -0.026,0.01 -0.043,0.02 -0.019,0.011 -0.039,0.022 -0.06,0.029 -0.02,0.006 -0.039,0.005 -0.062,0.003 -0.01,0.012 -0.028,0.03 -0.057,0.038 -0.017,0.005 -0.034,0.007 -0.05,0.007 L -0.275,0.171 C -0.448,0.168 -0.598,0.08 -0.743,-0.005 -0.809,-0.043 -0.87,-0.079 -0.934,-0.108 -1.04,-0.156 -1.146,-0.172 -1.258,-0.188 l -0.05,-0.008 c -0.031,-0.005 -0.061,-0.01 -0.092,-0.016 -0.097,-0.017 -0.198,-0.036 -0.293,-0.022 -0.215,0.03 -0.353,0.079 -0.582,0.16 l -0.253,0.089 c -0.138,0.047 -0.275,0.094 -0.411,0.147 -0.066,0.026 -0.146,0.056 -0.232,0.079 -0.036,0.009 -0.068,0.008 -0.096,0.007 -0.016,0 -0.032,-0.001 -0.048,0.001 -0.016,0.002 -0.031,0.01 -0.049,0.018 -0.021,0.01 -0.046,0.021 -0.075,0.026 -0.092,0.018 -0.19,0.011 -0.285,0.005 C -3.797,0.293 -3.864,0.291 -3.936,0.294 -4.014,0.298 -4.096,0.301 -4.173,0.281 -4.221,0.269 -4.272,0.26 -4.323,0.251 -4.4,0.238 -4.479,0.224 -4.554,0.198 -4.592,0.185 -4.631,0.166 -4.669,0.146 -4.709,0.126 -4.747,0.107 -4.783,0.097 -4.798,0.093 -4.814,0.093 -4.834,0.092 -4.859,0.091 -4.886,0.09 -4.918,0.081 -4.96,0.069 -5.004,0.048 -5.046,0.026 -5.068,0.015 -5.091,0.004 -5.112,-0.005 -5.146,-0.019 -5.185,-0.04 -5.226,-0.062 -5.297,-0.1 -5.375,-0.143 -5.435,-0.151 c -0.011,0 -0.022,0 -0.033,-0.001 L -5.47,-0.323 c 0.014,-0.001 0.028,-0.001 0.042,0.001 0.305,0.009 0.698,0.004 1.095,-0.088 0.124,-0.028 0.251,-0.081 0.375,-0.132 0.057,-0.024 0.113,-0.047 0.168,-0.068 0.024,-0.009 0.045,-0.02 0.065,-0.03 0.038,-0.019 0.078,-0.039 0.135,-0.05 0.074,-0.014 0.151,-0.029 0.212,-0.066 0.017,-0.01 0.032,-0.019 0.046,-0.029 0.031,-0.02 0.063,-0.041 0.104,-0.058 0.043,-0.016 0.084,-0.025 0.124,-0.032 0.025,-0.005 0.049,-0.01 0.073,-0.017 0.06,-0.017 0.119,-0.037 0.177,-0.056 0.098,-0.033 0.199,-0.066 0.305,-0.089 0.19,-0.042 0.356,-0.063 0.501,-0.063 0.107,0 0.203,0.012 0.289,0.034 0.075,0.019 0.147,0.048 0.216,0.075 0.052,0.02 0.103,0.04 0.156,0.057 l 0.043,0.013 c 0.075,0.022 0.161,0.047 0.227,0.095 0.095,0.067 0.175,0.15 0.252,0.231 0.052,0.054 0.104,0.109 0.161,0.158 l 0.026,0.023 c 0.108,0.094 0.194,0.169 0.32,0.206 0.008,0.002 0.02,0.002 0.033,0.001 0.019,-0.001 0.043,-0.002 0.068,0.005 0.027,0.007 0.046,0.019 0.061,0.028 0.013,0.008 0.02,0.012 0.031,0.014 v 0 c 0.009,0 0.033,-0.009 0.048,-0.014 0.048,-0.017 0.097,-0.035 0.14,-0.001 0.023,0.018 0.038,0.046 0.041,0.079 l 0.009,0.087 z"
             style="fill:#000000;fill-opacity:1;fill-rule:nonzero;stroke:none"
             id="path9589" />
        </g>
        <g
           id="g9591"
           transform="translate(325.677,433.032)">
          <path
             d="M 0,0 C 0.197,0.005 0.366,0.183 0.549,0.282 0.661,0.343 0.771,0.357 0.887,0.378 1,0.398 1.118,0.437 1.235,0.418 1.448,0.381 1.576,0.321 1.82,0.219 1.989,0.148 2.159,0.082 2.325,0.005 c 0.066,-0.03 0.129,-0.058 0.196,-0.079 0.04,-0.013 0.077,-0.001 0.117,-0.007 0.041,-0.006 0.071,-0.037 0.11,-0.046 0.111,-0.025 0.24,0.002 0.352,0.002 0.084,0 0.179,-0.015 0.261,0.01 0.105,0.031 0.222,0.042 0.326,0.084 C 3.754,-0.004 3.82,0.051 3.888,0.074 3.927,0.087 3.964,0.076 4.004,0.09 4.055,0.108 4.115,0.151 4.166,0.176 4.26,0.224 4.394,0.341 4.493,0.333 4.158,0.32 3.829,0.333 3.501,0.424 3.341,0.468 3.179,0.563 3.024,0.633 2.964,0.66 2.925,0.697 2.863,0.711 2.795,0.727 2.72,0.744 2.658,0.788 2.612,0.82 2.582,0.851 2.536,0.873 2.483,0.899 2.426,0.903 2.371,0.922 2.231,0.97 2.1,1.033 1.957,1.071 1.751,1.125 1.504,1.165 1.298,1.101 1.189,1.067 1.088,1.007 0.979,0.966 0.91,0.94 0.821,0.915 0.761,0.864 0.63,0.754 0.531,0.594 0.409,0.467 0.302,0.357 0.218,0.262 0.088,0.217 0.057,0.206 0.028,0.219 -0.002,0.21 -0.036,0.199 -0.048,0.174 -0.087,0.165 -0.13,0.156 -0.226,0.239 -0.231,0.176 -0.193,0.171 -0.166,0.137 -0.132,0.124 -0.115,0.117 -0.094,0.127 -0.075,0.121 -0.056,0.115 -0.053,0.089 -0.031,0.081 0.006,0.068 0.051,0.09 0.089,0.084 0.127,0.078 0.166,0.026 0,0"
             style="fill:#231f20;fill-opacity:1;fill-rule:nonzero;stroke:none"
             id="path9593" />
        </g>
      </g>
    </g>
  </g>
</svg>
