<?xml version="1.0" encoding="UTF-8" standalone="no"?>
<!-- Created with Inkscape (http://www.inkscape.org/) -->

<svg
   width="22.206158"
   height="24"
   viewBox="0 0 5.8753792 6.35"
   version="1.1"
   id="svg42400"
   inkscape:version="1.2.1 (9c6d41e4, 2022-07-14)"
   sodipodi:docname="poison.svg"
   xmlns:inkscape="http://www.inkscape.org/namespaces/inkscape"
   xmlns:sodipodi="http://sodipodi.sourceforge.net/DTD/sodipodi-0.dtd"
   xmlns="http://www.w3.org/2000/svg"
   xmlns:svg="http://www.w3.org/2000/svg">
  <sodipodi:namedview
     id="namedview42402"
     pagecolor="#505050"
     bordercolor="#eeeeee"
     borderopacity="1"
     inkscape:showpageshadow="0"
     inkscape:pageopacity="0"
     inkscape:pagecheckerboard="0"
     inkscape:deskcolor="#505050"
     inkscape:document-units="mm"
     showgrid="false"
     inkscape:zoom="0.7046647"
     inkscape:cx="-119.20563"
     inkscape:cy="-44.702111"
     inkscape:window-width="1390"
     inkscape:window-height="941"
     inkscape:window-x="0"
     inkscape:window-y="25"
     inkscape:window-maximized="0"
     inkscape:current-layer="layer1" />
  <defs
     id="defs42397">
    <clipPath
       clipPathUnits="userSpaceOnUse"
       id="clipPath2997">
      <path
         d="m 451.044,206.309 h 24.699 v 24.7 h -24.699 z"
         id="path2995" />
    </clipPath>
  </defs>
  <g
     inkscape:label="Layer 1"
     inkscape:groupmode="layer"
     id="layer1"
     transform="translate(-136.78297,-160.51891)">
    <g
       id="g2991"
       transform="matrix(0.28437278,0,0,-0.28437278,7.9441593,225.87456)">
      <g
         id="g2993"
         clip-path="url(#clipPath2997)">
        <g
           id="g2999"
           transform="translate(466.144,222.374)">
          <path
             d="m 0,0 c -0.054,-0.132 -0.074,-0.227 -0.17,-0.338 -0.046,-0.053 -0.07,-0.105 -0.073,-0.151 -0.145,-0.172 -0.292,-0.371 -0.419,-0.336 -0.068,0.019 -0.162,0.093 -0.233,0.11 -0.13,0.03 -0.208,0 -0.331,0.07 -0.122,0.069 -0.213,0.083 -0.354,0.05 -0.086,-0.02 -0.178,-0.078 -0.291,-0.052 -0.177,0.04 -0.347,0.102 -0.503,0.21 -0.235,0.163 -0.186,0.34 -0.198,0.601 -0.005,0.103 -0.084,0.201 -0.066,0.292 0.02,0.103 0.128,0.126 0.138,0.245 0.033,0.008 0.066,0.017 0.099,0.025 0.014,0.158 0.145,0.177 0.241,0.262 0.042,0.037 0.09,0.084 0.125,0.128 0.007,0.034 0.015,0.069 0.025,0.102 0.032,0.011 0.064,0.02 0.097,0.027 0.051,0.052 0.078,0.122 0.134,0.167 0.052,0.042 0.113,0.043 0.17,0.094 0.103,0.093 0.162,0.227 0.323,0.183 0.084,-0.024 0.118,-0.09 0.182,-0.136 0.064,-0.046 0.123,-0.033 0.186,-0.061 0.076,-0.035 0.093,-0.057 0.18,-0.069 0.042,0.003 0.085,0.005 0.127,0.005 C -0.577,1.424 -0.554,1.406 -0.539,1.375 -0.388,1.334 -0.327,1.312 -0.232,1.168 -0.16,1.06 -0.096,0.95 -0.031,0.845 0.109,0.62 0.095,0.234 0,0 m -2.237,-2.338 c -0.023,-0.037 -0.067,-0.031 -0.101,-0.04 -0.033,-0.008 -0.057,-0.02 -0.085,-0.041 -0.05,-0.036 -0.106,-0.043 -0.163,-0.025 -0.028,0.01 -0.054,0.01 -0.083,0.015 -0.036,0.005 -0.067,0.025 -0.098,0.044 -0.04,0.023 -0.03,0.068 -0.052,0.109 -0.004,0.007 -0.013,0.018 -0.016,0.024 -0.002,0.007 -0.003,0.023 -0.006,0.03 -0.008,0.017 -0.021,0.027 -0.03,0.043 -0.045,0.083 -0.045,0.168 -0.073,0.254 -0.023,0.069 -0.07,0.136 -0.148,0.086 -0.054,-0.035 0.015,-0.237 10e-4,-0.304 -0.019,-0.083 -0.062,-0.127 -0.141,-0.141 -0.037,-0.006 -0.077,-0.023 -0.109,-0.045 -0.016,-0.012 -0.03,-0.028 -0.049,-0.036 -0.022,-0.009 -0.045,0 -0.064,-0.007 -0.012,-0.004 -0.015,-0.006 -0.025,-0.015 -0.018,-0.017 -0.02,-0.033 -0.047,-0.042 -0.046,-0.014 -0.097,-0.001 -0.144,-0.001 -0.033,0 -0.08,-0.009 -0.111,0.001 -0.041,0.012 -0.054,0.059 -0.052,0.096 0.002,0.032 0.019,0.046 0.028,0.075 0.003,0.009 0.012,0.031 0.013,0.039 0.005,0.02 10e-4,0.041 0.005,0.062 0.005,0.024 0.02,0.05 0.028,0.074 0.011,0.034 0.019,0.066 0.037,0.097 0.018,0.032 0.036,0.068 0.049,0.104 0.016,0.044 0.017,0.089 0.032,0.134 0.014,0.037 0.033,0.066 0.045,0.106 0.011,0.038 0.031,0.082 0.041,0.118 0.004,0.017 0,0.032 0.003,0.049 0.003,0.017 0.011,0.021 0.019,0.036 0.019,0.037 0.023,0.06 0.052,0.089 0.024,0.024 0.033,0.058 0.051,0.086 0.01,0.014 0.022,0.028 0.03,0.044 0.011,0.021 0.008,0.038 0.011,0.063 0.002,0.019 0.01,0.033 0.014,0.051 0.003,0.018 -0.002,0.034 0,0.051 0.005,0.041 0.019,0.084 0.03,0.119 0.012,0.039 0.029,0.072 0.047,0.105 0.013,0.024 0.026,0.047 0.039,0.073 0.014,0.029 -0.003,0.026 0.033,0.03 0.016,0.002 0.035,0 0.052,0 0.037,0 0.074,-0.001 0.111,0 0.038,0 0.061,-0.014 0.096,-0.015 0.016,-0.001 0.035,0.002 0.052,0 0.029,-0.003 0.025,-0.003 0.037,-0.03 0.014,-0.033 0.016,-0.06 0.023,-0.095 0.005,-0.025 0.023,-0.058 0.035,-0.084 0.049,-0.099 0.075,-0.208 0.134,-0.303 0.084,-0.135 0.131,-0.288 0.196,-0.434 0.012,-0.028 0.015,-0.061 0.032,-0.087 0.009,-0.012 0.023,-0.02 0.032,-0.032 0.009,-0.013 0.01,-0.028 0.017,-0.042 0.026,-0.049 0.041,-0.095 0.06,-0.148 0.025,-0.076 0.075,-0.15 0.107,-0.225 0.01,-0.022 0.018,-0.091 0.005,-0.115 m -1.728,1.7 c -0.101,-0.056 -0.207,-0.025 -0.295,-0.029 -0.145,-0.008 -0.228,-0.045 -0.326,-0.145 -0.098,-0.101 -0.181,-0.094 -0.298,-0.159 -0.064,-0.035 -0.133,-0.132 -0.193,-0.169 -0.111,-0.069 -0.309,0.082 -0.497,0.208 -0.016,0.044 -0.054,0.087 -0.113,0.125 -0.123,0.08 -0.17,0.166 -0.259,0.278 -0.157,0.198 -0.28,0.565 -0.209,0.819 0.033,0.12 0.063,0.243 0.101,0.366 0.051,0.164 0.104,0.202 0.238,0.283 0.004,0.034 0.022,0.058 0.053,0.071 0.041,0.011 0.082,0.021 0.124,0.03 0.08,0.035 0.09,0.061 0.153,0.115 0.052,0.045 0.113,0.049 0.161,0.11 0.049,0.062 0.063,0.135 0.136,0.18 0.143,0.088 0.237,-0.026 0.362,-0.087 0.07,-0.033 0.129,-0.017 0.19,-0.043 0.067,-0.028 0.112,-0.088 0.176,-0.123 0.034,0.001 0.068,0.001 0.101,0 0.019,-0.03 0.037,-0.06 0.054,-0.091 0.045,-0.033 0.105,-0.065 0.155,-0.089 0.116,-0.055 0.248,-0.037 0.306,-0.185 0.034,0.001 0.068,0.002 0.102,0.003 C -3.7,0.718 -3.589,0.726 -3.541,0.633 -3.498,0.55 -3.546,0.434 -3.522,0.334 -3.46,0.08 -3.362,-0.077 -3.542,-0.297 -3.662,-0.444 -3.807,-0.55 -3.965,-0.638 M 2.004,4.31 C 1.987,4.372 1.973,4.395 1.974,4.463 1.975,4.513 1.982,4.57 1.966,4.618 1.952,4.659 1.918,4.695 1.897,4.732 1.876,4.768 1.876,4.813 1.845,4.844 1.817,4.872 1.764,4.883 1.73,4.903 1.62,4.971 1.528,5.068 1.425,5.145 1.262,5.267 1.099,5.376 0.955,5.521 0.641,5.839 0.27,6.076 -0.109,6.308 -0.372,6.469 -0.63,6.637 -0.892,6.799 -1.175,6.974 -1.47,7.034 -1.785,7.111 -1.913,7.143 -2.039,7.151 -2.165,7.152 -2.184,7.171 -2.205,7.188 -2.224,7.208 -2.304,7.23 -2.312,7.188 -2.384,7.166 -2.502,7.131 -2.629,7.144 -2.728,7.196 -2.839,7.254 -2.937,7.31 -3.045,7.375 -3.109,7.413 -3.183,7.475 -3.256,7.439 -3.288,7.423 -3.301,7.364 -3.332,7.344 -3.453,7.266 -3.635,7.27 -3.772,7.271 -3.974,7.274 -4.138,7.264 -4.318,7.153 -4.472,7.058 -4.634,6.965 -4.813,6.928 -4.906,6.909 -4.999,6.89 -5.087,6.87 -5.16,6.854 -5.232,6.874 -5.304,6.853 -5.482,6.802 -5.618,6.586 -5.741,6.453 -5.823,6.364 -5.867,6.317 -5.914,6.196 -5.969,6.053 -5.986,5.916 -6.13,5.843 -6.243,5.785 -6.37,5.795 -6.484,5.736 -6.623,5.664 -6.715,5.55 -6.808,5.427 -6.909,5.293 -7.002,5.162 -7.094,5.023 -7.187,4.886 -7.327,4.791 -7.415,4.646 -7.451,4.586 -7.47,4.523 -7.501,4.463 -7.561,4.349 -7.538,4.211 -7.54,4.079 -7.542,3.914 -7.595,3.758 -7.618,3.6 -7.638,3.461 -7.616,3.3 -7.616,3.159 -7.617,2.998 -7.655,2.859 -7.655,2.696 -7.654,2.552 -7.678,2.388 -7.657,2.247 -7.637,2.117 -7.553,2.003 -7.52,1.874 -7.5,1.796 -7.509,1.73 -7.503,1.648 c 0.006,-0.073 0.032,-0.143 0.04,-0.216 0.009,-0.083 0.04,-0.144 0.038,-0.23 -0.001,-0.077 0,-0.154 0,-0.232 0,-0.06 0.013,-0.131 0.002,-0.189 -0.011,-0.063 -0.037,-0.106 -0.04,-0.173 -0.011,-0.251 -0.036,-0.53 0.086,-0.746 0.064,-0.112 0.112,-0.244 0.192,-0.338 0.03,-0.034 0.067,-0.062 0.096,-0.096 0.034,-0.039 0.046,-0.075 0.076,-0.116 0.065,-0.09 0.169,-0.12 0.256,-0.181 0.082,-0.058 0.189,-0.08 0.264,-0.142 0.045,-0.038 0.093,-0.118 0.134,-0.165 0.037,-0.042 0.079,-0.087 0.011,-0.118 -0.042,-0.019 -0.147,0.002 -0.194,0.003 -0.063,10e-4 -0.088,-0.022 -0.138,-0.035 -0.23,-0.056 -0.185,-0.329 -0.155,-0.517 0.013,-0.086 0.044,-0.166 0.073,-0.248 0.026,-0.075 0.043,-0.155 0.074,-0.228 0.123,-0.284 0.395,-0.294 0.663,-0.293 0.145,10e-4 0.199,0.041 0.221,-0.117 0.018,-0.12 0.736,-0.223 0.719,-0.318 -0.019,-0.107 -0.046,-0.177 -0.044,-0.298 0,-0.049 0.01,-0.116 0.002,-0.163 -0.009,-0.055 -0.041,-0.083 -0.049,-0.134 -0.023,-0.157 -0.016,-0.393 0.002,-0.551 0.019,-0.168 0.14,-0.258 0.265,-0.347 0.128,-0.091 0.305,0.002 0.319,0.192 0.027,-0.002 0.146,-0.115 0.168,-0.14 0.053,-0.062 -0.227,-0.164 -0.165,-0.217 0.099,-0.085 0.327,-0.035 0.453,-0.035 0.074,0 0.149,0.011 0.221,-0.011 0.082,-0.025 0.139,-0.083 0.213,0.009 0.044,0.055 0.306,-0.124 0.331,-0.048 0.241,-0.036 0.671,0.24 0.688,0.196 0.036,-0.09 0.053,-0.018 0.101,-0.007 0.137,0.029 0.158,-0.111 0.301,-0.09 0.117,0.017 0.211,0.079 0.318,0.138 0.055,0.03 0.082,0.072 0.131,0.102 0.047,0.029 0.115,0.01 0.167,0.01 0.146,-0.001 0.275,0.002 0.387,0.112 0.089,0.089 -0.416,0.139 -0.293,0.137 0.109,-0.002 0.316,-0.055 0.355,0.098 0.032,0.123 -0.002,0.322 -0.002,0.45 0,0.085 0.013,0.19 -0.004,0.27 -0.015,0.072 -0.041,0.092 -0.04,0.179 0.001,0.132 1.204,0.319 1.245,0.468 0.036,0.131 0.181,0.152 0.288,0.168 0.143,0.023 0.261,0.055 0.395,0.119 0.212,0.101 0.368,0.251 0.373,0.517 0.004,0.223 -0.109,0.443 -0.29,0.553 -0.269,0.164 -0.526,-0.059 -0.789,-0.12 -0.016,-0.003 -0.033,0.071 -0.051,0.165 0.182,0.005 0.362,0.063 0.515,0.134 0.112,0.052 0.228,0.1 0.322,0.188 0.087,0.082 0.153,0.171 0.254,0.237 0.248,0.162 0.29,0.266 0.352,0.523 0.049,0.206 0.154,0.385 0.217,0.584 C 1.611,0.464 1.662,0.59 1.668,0.72 1.675,0.841 1.667,0.965 1.667,1.087 v 0.576 c 0,0.222 0.053,0.417 0.12,0.629 0.028,0.091 0.067,0.173 0.072,0.271 0.003,0.06 -0.007,0.117 0.008,0.176 0.013,0.05 0.047,0.1 0.06,0.149 0.029,0.114 -0.015,0.236 0.006,0.348 0.007,0.033 0.02,0.062 0.03,0.092 0.005,0.014 0.009,0.028 0.012,0.042 0.004,0.024 -0.002,0.049 0.002,0.073 0.004,0.022 0.028,0.023 0.032,0.045 0.032,0.171 0.003,0.378 0.003,0.553 0,0.088 0.014,0.184 -0.008,0.269"
             style="fill:#231f20;fill-opacity:1;fill-rule:nonzero;stroke:none"
             id="path3001" />
        </g>
        <g
           id="g3003"
           transform="translate(464.184,210.43)">
          <path
             d="M 0,0 C -0.036,0.103 -0.074,0.204 -0.103,0.312 -0.116,0.359 -0.141,0.405 -0.152,0.452 -0.158,0.48 -0.155,0.502 -0.163,0.53 -0.173,0.562 -0.184,0.59 -0.19,0.624 -0.213,0.753 -0.257,0.868 -0.281,0.998 -0.296,1.08 -0.301,1.163 -0.322,1.243 -0.336,1.3 -0.357,1.346 -0.374,1.4 -0.39,1.451 -0.398,1.508 -0.415,1.558 -0.443,1.641 -0.482,1.717 -0.516,1.794 -0.557,1.886 -0.585,1.989 -0.635,2.071 -0.687,2.156 -0.716,2.257 -0.762,2.347 -0.792,2.405 -0.812,2.471 -0.836,2.534 -0.888,2.667 -0.924,2.807 -0.966,2.949 -1.008,3.094 -1.05,3.22 -1.114,3.346 -1.157,3.43 -1.21,3.502 -1.253,3.586 -1.275,3.63 -1.294,3.679 -1.315,3.723 -1.324,3.739 -1.328,3.752 -1.341,3.758 -1.352,3.707 -1.34,3.655 -1.353,3.603 -1.356,3.59 -1.359,3.577 -1.361,3.563 -1.373,3.504 -1.379,3.439 -1.398,3.386 -1.426,3.307 -1.439,3.218 -1.466,3.139 -1.476,3.112 -1.481,3.1 -1.487,3.07 -1.497,3.016 -1.514,2.982 -1.53,2.932 -1.552,2.866 -1.569,2.79 -1.586,2.721 -1.605,2.64 -1.634,2.574 -1.659,2.498 -1.685,2.422 -1.703,2.339 -1.726,2.261 -1.741,2.208 -1.768,2.165 -1.784,2.111 -1.801,2.049 -1.814,1.985 -1.835,1.927 -1.866,1.84 -1.901,1.757 -1.929,1.667 -1.945,1.615 -1.965,1.567 -1.983,1.516 -1.999,1.471 -2,1.422 -2.015,1.377 -2.045,1.281 -2.103,1.2 -2.145,1.116 -2.18,1.044 -2.23,0.991 -2.266,0.922 -2.303,0.853 -2.343,0.788 -2.378,0.718 -2.408,0.657 -2.449,0.59 -2.469,0.52 -2.477,0.489 -2.491,0.46 -2.498,0.428 -2.509,0.381 -2.51,0.337 -2.527,0.293 -2.557,0.211 -2.553,0.125 -2.569,0.037 -2.593,-0.108 -2.607,-0.25 -2.623,-0.396 -2.63,-0.455 -2.637,-0.516 -2.647,-0.572 -2.656,-0.623 -2.649,-0.687 -2.649,-0.74 c 0,-0.07 0.006,-0.129 0.011,-0.197 0.005,-0.072 0.017,-0.132 0.024,-0.204 0.008,-0.069 0.022,-0.14 0.028,-0.209 0.004,-0.05 0.006,-0.096 0.017,-0.145 0.008,-0.033 0.023,-0.074 0.032,-0.106 0.02,-0.064 0.032,-0.128 0.056,-0.192 0.023,-0.061 0.032,-0.134 0.054,-0.197 0.009,-0.025 0.016,-0.057 0.026,-0.081 0.012,-0.029 0.03,-0.049 0.042,-0.079 0.017,-0.041 0.032,-0.079 0.052,-0.117 0.015,-0.029 0.034,-0.045 0.051,-0.07 0.018,-0.027 0.025,-0.051 0.045,-0.072 0.022,-0.023 0.044,-0.045 0.066,-0.07 0.044,-0.049 0.088,-0.086 0.136,-0.123 0.014,-0.011 0.025,-0.014 0.039,-0.02 0.032,-0.015 0.045,-0.047 0.071,-0.074 0.069,-0.075 0.17,-0.129 0.253,-0.159 0.058,-0.022 0.117,-0.028 0.176,-0.047 0.059,-0.019 0.111,-0.034 0.172,-0.034 0.073,0 0.141,10e-4 0.213,0.017 0.053,0.012 0.103,0.041 0.156,0.057 0.054,0.015 0.093,0.058 0.136,0.111 0.02,0.024 0.037,0.046 0.056,0.071 0.025,0.034 0.064,0.056 0.093,0.085 0.037,0.036 0.074,0.075 0.109,0.116 0.065,0.073 0.128,0.151 0.188,0.233 0.115,0.156 0.281,0.373 0.366,0.574 0.129,0.307 0.115,0.972 0.052,1.336 C 0.052,-0.225 0.035,-0.102 0,0"
             style="fill:#231f20;fill-opacity:1;fill-rule:nonzero;stroke:none"
             id="path3005" />
        </g>
        <g
           id="g3007"
           transform="translate(467.534,214.683)">
          <path
             d="m 0,0 c -0.034,0.08 -0.071,0.159 -0.099,0.243 -0.012,0.036 -0.036,0.072 -0.046,0.109 -0.006,0.021 -0.003,0.039 -0.011,0.06 -0.009,0.025 -0.019,0.047 -0.025,0.073 -0.023,0.101 -0.065,0.19 -0.087,0.291 -0.014,0.064 -0.019,0.128 -0.039,0.191 -0.014,0.044 -0.034,0.08 -0.05,0.122 -0.015,0.04 -0.023,0.084 -0.039,0.123 -0.027,0.065 -0.064,0.123 -0.097,0.183 -0.039,0.072 -0.066,0.152 -0.114,0.216 -0.05,0.066 -0.077,0.144 -0.121,0.215 -0.029,0.045 -0.048,0.096 -0.071,0.145 -0.049,0.104 -0.084,0.212 -0.123,0.323 -0.041,0.112 -0.081,0.21 -0.142,0.308 -0.041,0.066 -0.092,0.122 -0.133,0.187 -0.021,0.034 -0.039,0.072 -0.06,0.106 -0.007,0.013 -0.012,0.024 -0.024,0.028 -0.01,-0.04 10e-4,-0.08 -0.011,-0.12 C -1.296,2.793 -1.298,2.782 -1.301,2.772 -1.311,2.725 -1.318,2.675 -1.335,2.634 -1.362,2.572 -1.375,2.503 -1.401,2.442 -1.41,2.421 -1.415,2.412 -1.42,2.388 -1.43,2.346 -1.446,2.319 -1.462,2.281 -1.482,2.23 -1.499,2.17 -1.515,2.116 -1.534,2.054 -1.561,2.002 -1.585,1.943 -1.609,1.884 -1.627,1.819 -1.648,1.759 -1.663,1.717 -1.689,1.684 -1.704,1.642 -1.721,1.594 -1.733,1.544 -1.753,1.499 -1.783,1.431 -1.816,1.367 -1.842,1.297 -1.858,1.256 -1.877,1.219 -1.894,1.179 -1.909,1.144 -1.911,1.106 -1.924,1.071 -1.953,0.997 -2.009,0.933 -2.049,0.868 -2.083,0.812 -2.13,0.771 -2.165,0.717 -2.2,0.664 -2.238,0.613 -2.272,0.558 -2.301,0.511 -2.34,0.459 -2.358,0.404 -2.366,0.38 -2.379,0.358 -2.386,0.333 -2.397,0.297 -2.398,0.262 -2.414,0.228 c -0.029,-0.064 -0.025,-0.13 -0.04,-0.2 -0.023,-0.112 -0.036,-0.223 -0.052,-0.336 -0.006,-0.046 -0.013,-0.093 -0.022,-0.137 -0.009,-0.04 -0.003,-0.089 -0.003,-0.131 0,-0.054 0.006,-0.1 0.011,-0.153 0.005,-0.056 0.016,-0.103 0.023,-0.158 0.007,-0.054 0.021,-0.109 0.027,-0.163 0.004,-0.039 0.005,-0.074 0.016,-0.112 0.007,-0.026 0.022,-0.058 0.031,-0.083 0.018,-0.051 0.03,-0.1 0.053,-0.149 0.022,-0.048 0.03,-0.104 0.052,-0.154 0.008,-0.02 0.015,-0.044 0.024,-0.063 0.012,-0.022 0.029,-0.038 0.041,-0.061 0.016,-0.032 0.03,-0.062 0.049,-0.091 0.015,-0.023 0.032,-0.035 0.049,-0.055 0.016,-0.021 0.024,-0.04 0.043,-0.056 0.021,-0.017 0.042,-0.035 0.063,-0.054 0.042,-0.038 0.084,-0.067 0.13,-0.096 0.013,-0.008 0.024,-0.01 0.037,-0.016 0.03,-0.011 0.043,-0.036 0.068,-0.057 0.066,-0.058 0.163,-0.1 0.241,-0.124 0.056,-0.016 0.112,-0.021 0.169,-0.036 0.056,-0.015 0.106,-0.027 0.164,-0.027 0.07,10e-4 0.135,10e-4 0.204,0.014 0.05,0.009 0.097,0.032 0.148,0.044 0.052,0.012 0.089,0.045 0.131,0.087 0.018,0.018 0.035,0.035 0.053,0.054 0.024,0.027 0.061,0.044 0.089,0.066 0.035,0.029 0.07,0.059 0.104,0.091 0.062,0.057 0.122,0.117 0.18,0.181 0.109,0.121 0.268,0.29 0.349,0.446 0.124,0.24 0.11,0.756 0.05,1.04 C 0.049,-0.175 0.034,-0.079 0,0"
             style="fill:#231f20;fill-opacity:1;fill-rule:nonzero;stroke:none"
             id="path3009" />
        </g>
        <g
           id="g3011"
           transform="translate(460.73,215.02)">
          <path
             d="M 0,0 C -0.032,0.082 -0.067,0.163 -0.093,0.249 -0.105,0.287 -0.128,0.324 -0.137,0.361 -0.143,0.383 -0.14,0.401 -0.147,0.423 -0.156,0.449 -0.165,0.471 -0.171,0.498 -0.192,0.602 -0.232,0.693 -0.253,0.797 -0.267,0.863 -0.272,0.928 -0.29,0.993 -0.303,1.038 -0.322,1.075 -0.337,1.118 -0.351,1.159 -0.359,1.204 -0.374,1.244 -0.4,1.311 -0.434,1.371 -0.465,1.433 -0.502,1.506 -0.528,1.588 -0.573,1.654 -0.62,1.722 -0.645,1.802 -0.687,1.875 -0.715,1.921 -0.732,1.973 -0.754,2.024 -0.801,2.13 -0.833,2.241 -0.871,2.355 -0.909,2.471 -0.947,2.571 -1.005,2.672 -1.044,2.739 -1.092,2.796 -1.13,2.864 -1.15,2.899 -1.167,2.937 -1.186,2.973 -1.194,2.986 -1.198,2.996 -1.21,3.001 -1.22,2.96 -1.209,2.918 -1.22,2.877 -1.223,2.867 -1.226,2.857 -1.228,2.846 -1.238,2.798 -1.244,2.746 -1.261,2.704 -1.286,2.641 -1.298,2.569 -1.323,2.507 -1.331,2.485 -1.336,2.476 -1.341,2.452 -1.35,2.408 -1.365,2.381 -1.38,2.341 -1.4,2.289 -1.415,2.228 -1.43,2.173 -1.448,2.108 -1.474,2.055 -1.497,1.995 -1.52,1.934 -1.536,1.868 -1.557,1.806 -1.57,1.763 -1.595,1.729 -1.609,1.686 -1.625,1.637 -1.636,1.586 -1.655,1.538 -1.683,1.469 -1.715,1.403 -1.74,1.331 -1.754,1.289 -1.773,1.252 -1.789,1.211 -1.803,1.175 -1.804,1.135 -1.817,1.099 -1.845,1.023 -1.897,0.958 -1.935,0.891 -1.967,0.834 -2.011,0.792 -2.044,0.736 -2.077,0.681 -2.113,0.629 -2.145,0.573 -2.173,0.525 -2.209,0.471 -2.227,0.415 -2.235,0.39 -2.247,0.368 -2.253,0.342 -2.263,0.305 -2.264,0.269 -2.279,0.234 -2.307,0.168 -2.303,0.1 -2.317,0.029 -2.339,-0.086 -2.352,-0.2 -2.366,-0.316 -2.372,-0.363 -2.378,-0.412 -2.387,-0.457 -2.396,-0.498 -2.39,-0.549 -2.39,-0.591 c 0,-0.056 0.006,-0.103 0.011,-0.158 0.004,-0.057 0.014,-0.105 0.021,-0.162 0.007,-0.055 0.02,-0.112 0.026,-0.167 0.003,-0.04 0.005,-0.076 0.015,-0.115 0.007,-0.027 0.02,-0.06 0.029,-0.085 0.017,-0.052 0.028,-0.103 0.05,-0.153 0.02,-0.049 0.029,-0.107 0.049,-0.158 0.008,-0.02 0.014,-0.045 0.023,-0.065 0.011,-0.023 0.028,-0.039 0.038,-0.063 0.015,-0.033 0.029,-0.063 0.047,-0.093 0.014,-0.024 0.03,-0.036 0.046,-0.057 0.016,-0.021 0.023,-0.04 0.041,-0.057 0.02,-0.018 0.04,-0.036 0.059,-0.056 0.039,-0.038 0.08,-0.068 0.123,-0.098 0.012,-0.009 0.023,-0.011 0.035,-0.016 0.029,-0.012 0.04,-0.037 0.064,-0.059 0.062,-0.06 0.154,-0.103 0.228,-0.127 0.052,-0.017 0.106,-0.022 0.159,-0.037 0.053,-0.015 0.1,-0.028 0.155,-0.028 0.066,0.001 0.128,0.001 0.192,0.014 0.048,0.009 0.093,0.033 0.141,0.045 0.049,0.013 0.083,0.047 0.123,0.089 0.018,0.02 0.033,0.037 0.05,0.057 0.023,0.027 0.058,0.045 0.084,0.067 0.034,0.03 0.067,0.061 0.099,0.093 0.058,0.059 0.115,0.121 0.169,0.186 0.104,0.125 0.253,0.299 0.33,0.459 0.117,0.245 0.104,0.776 0.047,1.067 C 0.047,-0.18 0.032,-0.081 0,0"
             style="fill:#231f20;fill-opacity:1;fill-rule:nonzero;stroke:none"
             id="path3013" />
        </g>
        <g
           id="g3015"
           transform="translate(456.392,218.93)">
          <path
             d="m 0,0 c -0.115,0.062 -0.221,0.15 -0.341,0.215 -0.127,0.067 -0.235,0.191 -0.346,0.287 -0.093,0.079 -0.19,0.159 -0.283,0.24 -0.128,0.111 -0.169,0.289 -0.284,0.406 -0.042,0.043 -0.09,0.065 -0.13,0.109 -0.078,0.084 -0.104,0.179 -0.158,0.277 -0.081,0.147 -0.167,0.27 -0.241,0.424 -0.089,0.185 -0.158,0.334 -0.276,0.505 -0.125,0.181 -0.132,0.354 -0.183,0.559 -0.047,0.187 -0.102,0.314 -0.1,0.512 0.003,0.378 -0.058,0.808 0.055,1.169 0.056,0.176 0.13,0.351 0.228,0.513 0.111,0.184 0.231,0.425 0.378,0.582 0.177,0.189 0.403,0.414 0.649,0.494 0.146,0.047 0.299,0.109 0.453,0.117 0.096,0.006 0.189,-0.02 0.28,0.009 -0.075,0.125 -0.538,0.044 -0.675,0.044 -0.129,0 -0.27,0.017 -0.398,0.002 C -1.493,6.449 -1.494,6.392 -1.596,6.332 -1.673,6.287 -1.73,6.304 -1.786,6.238 -1.828,6.189 -1.835,6.115 -1.879,6.062 -1.992,5.93 -2.173,5.904 -2.282,5.768 -2.375,5.651 -2.483,5.546 -2.575,5.431 -2.606,5.392 -2.663,5.346 -2.685,5.32 -2.729,5.326 -2.753,5.305 -2.758,5.257 -2.778,5.184 -2.795,5.111 -2.81,5.037 -2.836,4.939 -2.874,4.845 -2.926,4.758 -3.024,4.599 -3.06,4.537 -3.098,4.362 -3.12,4.262 -3.169,4.168 -3.189,4.065 -3.216,3.921 -3.231,3.698 -3.201,3.552 c 0.008,-0.04 0.04,-0.104 0.046,-0.133 0.023,-0.115 0.012,-0.239 0.012,-0.358 0,-0.277 0,-0.554 0,-0.831 v -0.8 c 0,-0.093 -0.013,-0.195 -0.001,-0.286 0.007,-0.053 0.038,-0.089 0.046,-0.126 0.01,-0.051 -0.003,-0.113 0.009,-0.162 0.023,-0.087 0.123,-0.159 0.162,-0.238 0.054,-0.107 0.068,-0.226 0.126,-0.331 0.06,-0.108 0.136,-0.207 0.244,-0.273 0.088,-0.053 0.14,-0.04 0.103,-0.187 -0.042,-0.166 -0.206,-0.308 -0.274,-0.467 -0.039,-0.091 -0.044,-0.188 -0.07,-0.276 -0.031,-0.102 -0.131,-0.186 -0.175,-0.282 -0.116,-0.251 -0.269,-0.531 -0.33,-0.805 -0.051,-0.233 -0.011,-0.511 -0.011,-0.753 0,-0.185 -0.007,-0.372 -0.002,-0.557 0.004,-0.122 0.052,-0.224 0.061,-0.343 0.018,-0.267 0.122,-0.49 0.182,-0.745 0.029,-0.121 0.104,-0.225 0.146,-0.341 0.026,-0.072 0.021,-0.149 0.053,-0.219 0.042,-0.094 0.061,-0.084 0.13,-0.151 0.118,-0.113 0.201,-0.263 0.321,-0.374 0.071,-0.067 0.136,-0.108 0.197,-0.188 0.087,-0.114 0.103,-0.099 0.214,-0.17 0.209,-0.134 0.432,-0.373 0.698,-0.388 0.227,-0.012 0.575,-0.05 0.797,0.011 0.03,0.118 -0.109,0.094 -0.169,0.105 -0.093,0.017 -0.08,0.032 -0.154,0.073 -0.102,0.056 -0.214,0.071 -0.318,0.14 -0.143,0.095 -0.228,0.244 -0.339,0.362 -0.064,0.067 -0.15,0.1 -0.218,0.167 -0.076,0.075 -0.1,0.147 -0.156,0.233 -0.076,0.116 -0.189,0.196 -0.231,0.34 -0.023,0.078 0.007,0.153 -0.021,0.229 -0.032,0.037 -0.063,0.075 -0.094,0.114 -0.009,0.038 -0.017,0.076 -0.024,0.114 -0.031,0.094 -0.105,0.116 -0.147,0.185 -0.033,0.053 -0.056,0.155 -0.07,0.216 -0.034,0.145 -0.056,0.275 -0.056,0.429 0.002,0.344 0,0.628 0.157,0.943 0.175,0.349 0.445,0.619 0.701,0.912 0.082,0.094 0.136,0.191 0.228,0.276 0.07,0.063 0.154,0.115 0.218,0.186 0.128,0.141 0.254,0.27 0.411,0.386 0.168,0.122 0.369,0.217 0.532,0.341 0.133,0.101 0.189,0.129 0.364,0.129 H 0.059 c -0.162,0.011 -0.103,0.085 -0.052,0.166 0.027,0.035 0.061,0.061 0.101,0.077 C 0.159,0.031 0.06,-0.032 0,0"
             style="fill:#231f20;fill-opacity:1;fill-rule:nonzero;stroke:none"
             id="path3017" />
        </g>
        <g
           id="g3019"
           transform="translate(473.123,219.46)">
          <path
             d="m 0,0 c 0.039,0.09 0.043,0.188 0.07,0.276 0.031,0.102 0.13,0.186 0.174,0.281 0.117,0.252 0.27,0.532 0.331,0.805 0.051,0.234 0.011,0.512 0.011,0.753 0,0.186 0.007,0.372 0.001,0.557 C 0.584,2.795 0.536,2.897 0.527,3.016 0.509,3.283 0.405,3.506 0.345,3.761 0.316,3.882 0.24,3.986 0.198,4.102 0.173,4.174 0.178,4.25 0.146,4.321 0.103,4.414 0.085,4.405 0.016,4.472 -0.102,4.585 -0.186,4.735 -0.305,4.846 -0.376,4.913 -0.441,4.954 -0.502,5.034 -0.589,5.148 -0.605,5.133 -0.716,5.204 -0.926,5.338 -1.148,5.577 -1.414,5.591 -1.641,5.604 -1.99,5.642 -2.211,5.58 c -0.03,-0.117 0.108,-0.093 0.169,-0.104 0.093,-0.017 0.08,-0.033 0.154,-0.073 0.102,-0.056 0.214,-0.071 0.317,-0.14 0.144,-0.096 0.229,-0.244 0.34,-0.362 0.063,-0.067 0.149,-0.1 0.217,-0.167 0.077,-0.076 0.1,-0.147 0.156,-0.233 0.077,-0.117 0.19,-0.196 0.232,-0.34 C -0.604,4.083 -0.633,4.008 -0.605,3.932 -0.573,3.895 -0.542,3.856 -0.511,3.818 -0.503,3.78 -0.495,3.742 -0.488,3.703 -0.456,3.609 -0.382,3.588 -0.34,3.519 -0.308,3.466 -0.284,3.364 -0.27,3.303 -0.236,3.158 -0.214,3.028 -0.214,2.874 -0.216,2.53 -0.214,2.246 -0.372,1.931 -0.546,1.582 -0.816,1.312 -1.072,1.019 -1.154,0.925 -1.209,0.827 -1.301,0.743 -1.371,0.68 -1.454,0.628 -1.518,0.557 -1.646,0.416 -1.773,0.286 -1.93,0.171 -2.097,0.048 -2.298,-0.046 -2.461,-0.17 -2.594,-0.271 -2.651,-0.299 -2.825,-0.299 h 0.038 c 0.162,-0.011 0.103,-0.085 0.052,-0.166 -0.028,-0.035 -0.061,-0.061 -0.102,-0.078 -0.05,-0.128 0.049,-0.065 0.109,-0.097 0.115,-0.063 0.221,-0.151 0.341,-0.215 0.126,-0.068 0.234,-0.192 0.346,-0.287 0.093,-0.079 0.189,-0.159 0.283,-0.24 0.127,-0.112 0.169,-0.289 0.284,-0.406 0.042,-0.043 0.09,-0.066 0.13,-0.109 0.077,-0.084 0.104,-0.18 0.158,-0.277 0.081,-0.147 0.166,-0.27 0.241,-0.424 0.089,-0.185 0.158,-0.334 0.276,-0.506 0.125,-0.18 0.132,-0.353 0.183,-0.558 0.046,-0.187 0.101,-0.314 0.1,-0.512 -0.003,-0.378 0.058,-0.808 -0.056,-1.169 -0.055,-0.176 -0.13,-0.352 -0.227,-0.513 -0.112,-0.185 -0.231,-0.425 -0.378,-0.582 -0.177,-0.189 -0.404,-0.415 -0.65,-0.494 -0.145,-0.047 -0.299,-0.109 -0.453,-0.118 -0.095,-0.005 -0.189,0.021 -0.279,-0.008 0.075,-0.125 0.538,-0.044 0.675,-0.044 0.129,0 0.27,-0.017 0.397,-0.002 0.122,0.015 0.123,0.071 0.225,0.132 0.076,0.044 0.134,0.028 0.19,0.094 0.042,0.049 0.049,0.123 0.093,0.175 0.112,0.133 0.294,0.159 0.403,0.295 0.093,0.116 0.201,0.222 0.293,0.337 0.031,0.038 0.088,0.084 0.11,0.111 0.044,-0.006 0.068,0.015 0.073,0.063 0.02,0.073 0.037,0.146 0.051,0.22 0.026,0.098 0.064,0.192 0.117,0.278 0.098,0.16 0.134,0.221 0.172,0.396 0.021,0.101 0.071,0.195 0.09,0.298 0.028,0.144 0.043,0.367 0.013,0.512 -0.008,0.041 -0.04,0.105 -0.046,0.133 -0.023,0.116 -0.012,0.239 -0.012,0.359 -0.001,0.277 0,0.554 0,0.831 v 0.8 c 0,0.093 0.013,0.195 0.001,0.286 -0.007,0.053 -0.038,0.088 -0.046,0.126 -0.01,0.051 0.003,0.113 -0.01,0.162 -0.022,0.086 -0.122,0.159 -0.162,0.238 -0.053,0.107 -0.067,0.226 -0.125,0.33 -0.061,0.109 -0.136,0.208 -0.244,0.273 -0.088,0.054 -0.14,0.041 -0.103,0.188 C -0.233,-0.301 -0.069,-0.159 0,0"
             style="fill:#231f20;fill-opacity:1;fill-rule:nonzero;stroke:none"
             id="path3021" />
        </g>
      </g>
    </g>
  </g>
</svg>
