<?xml version="1.0" encoding="UTF-8" standalone="no"?>
<!-- Created with Inkscape (http://www.inkscape.org/) -->

<svg
   width="20.037706"
   height="24"
   viewBox="0 0 5.3016432 6.35"
   version="1.1"
   id="svg41592"
   inkscape:version="1.2.1 (9c6d41e4, 2022-07-14)"
   sodipodi:docname="serpents.svg"
   xmlns:inkscape="http://www.inkscape.org/namespaces/inkscape"
   xmlns:sodipodi="http://sodipodi.sourceforge.net/DTD/sodipodi-0.dtd"
   xmlns="http://www.w3.org/2000/svg"
   xmlns:svg="http://www.w3.org/2000/svg">
  <sodipodi:namedview
     id="namedview41594"
     pagecolor="#505050"
     bordercolor="#eeeeee"
     borderopacity="1"
     inkscape:showpageshadow="0"
     inkscape:pageopacity="0"
     inkscape:pagecheckerboard="0"
     inkscape:deskcolor="#505050"
     inkscape:document-units="mm"
     showgrid="false"
     inkscape:zoom="0.7046647"
     inkscape:cx="126.3012"
     inkscape:cy="246.21639"
     inkscape:window-width="1390"
     inkscape:window-height="941"
     inkscape:window-x="0"
     inkscape:window-y="25"
     inkscape:window-maximized="0"
     inkscape:current-layer="layer1" />
  <defs
     id="defs41589">
    <clipPath
       clipPathUnits="userSpaceOnUse"
       id="clipPath3069">
      <path
         d="m 336.015,206.309 h 24.699 v 24.7 h -24.699 z"
         id="path3067" />
    </clipPath>
  </defs>
  <g
     inkscape:label="Layer 1"
     inkscape:groupmode="layer"
     id="layer1"
     transform="translate(-71.711418,-83.88274)">
    <g
       id="g3063"
       transform="matrix(0.31089567,0,0,-0.31089567,-33.942434,155.03775)">
      <g
         id="g3065"
         clip-path="url(#clipPath3069)">
        <g
           id="g3071"
           transform="translate(348.815,227.389)">
          <path
             d="M 0,0 C 0.122,0.123 0.413,0.281 0.565,0.248 0.73,0.212 0.837,0.106 0.946,-0.043 0.961,-0.063 0.975,-0.078 0.991,-0.093 1.01,-0.114 1.023,-0.127 1.036,-0.155 1.062,-0.212 1.088,-0.274 1.108,-0.333 1.132,-0.407 1.126,-0.475 1.119,-0.555 1.117,-0.583 1.114,-0.612 1.113,-0.642 1.105,-0.819 1.085,-1.017 0.938,-1.118 0.784,-1.223 0.504,-1.299 0.397,-1.239 c -0.03,0.017 -0.059,0.052 -0.09,0.088 -0.037,0.043 -0.074,0.088 -0.125,0.119 -0.081,0.051 -0.188,0.101 -0.303,0.142 -0.123,0.045 -0.123,0.045 -0.142,0.161 -0.001,0.004 -0.001,0.01 -0.001,0.016 l 0.053,0.009 -0.019,0.109 0.025,0.019 C -0.337,-0.401 -0.23,-0.232 0,0 m -3.797,-3.006 c 0.118,-0.047 0.271,-0.114 0.396,-0.138 0.076,-0.015 0.155,0.012 0.231,0.001 0.086,-0.012 0.142,-0.059 0.215,-0.105 0.226,-0.147 0.177,-0.452 0.324,-0.648 0.046,-0.061 0.109,-0.075 0.161,0.016 0.042,0.072 -0.006,0.171 0.01,0.248 0.012,0.059 0.034,0.145 0.058,0.199 0.026,0.062 0.036,0.136 0.063,0.194 0.034,0.069 0.08,0.103 0.11,0.176 0.03,0.075 0.049,0.087 0.101,0.156 0.09,0.119 0.109,0.274 0.213,0.387 0.184,0.2 0.554,0.316 0.823,0.217 -0.08,-0.177 -0.188,-0.208 -0.323,-0.345 -0.055,-0.057 -0.109,-0.121 -0.17,-0.172 -0.079,-0.066 -0.196,-0.083 -0.198,-0.203 -0.031,-0.008 -0.061,-0.015 -0.092,-0.022 -0.004,-0.056 -0.049,-0.172 -0.067,-0.22 -0.022,-0.058 -0.049,-0.107 -0.073,-0.168 -0.061,-0.157 -0.043,-0.319 -0.043,-0.487 0,-0.169 0.021,-0.282 0.057,-0.429 0.034,-0.137 -0.61,-0.759 -0.493,-0.86 0.099,-0.085 0.283,-0.205 0.405,-0.229 0.147,-0.029 0.338,0.002 0.488,0.002 0.076,0 0.153,-0.005 0.229,-0.001 0.093,0.005 0.166,0.046 0.257,0.06 0.073,0.011 0.165,0.004 0.231,-0.028 0.077,-0.038 0.101,-0.083 0.187,-0.084 0.024,0 0.056,0.027 0.081,0.032 0.116,0.022 1.275,0.01 1.393,0.01 h 0.772 c 0.145,0 0.311,-0.023 0.454,-0.003 0.171,0.023 0.353,0.083 0.52,0.124 0.303,0.074 0.621,0.081 0.923,0.152 0.09,0.021 0.179,0.012 0.269,0.022 0.027,0.003 0.054,0.008 0.081,0.016 0.108,0.033 0.206,0.094 0.312,0.133 0.211,0.078 0.377,0.097 0.427,0.346 0.013,0.065 0.017,0.136 0.012,0.202 C 4.539,-4.359 4.503,-4.276 4.471,-4.186 4.377,-3.923 4.384,-3.602 4.133,-3.419 4.089,-3.387 3.942,-3.273 3.9,-3.269 3.878,-3.449 3.794,-3.581 3.66,-3.708 3.5,-3.859 3.439,-3.659 3.288,-3.606 3.195,-3.573 3.234,-3.545 3.152,-3.642 3.121,-3.677 3.082,-3.817 3.017,-3.827 2.982,-3.832 2.893,-3.742 2.859,-3.721 2.793,-3.68 2.711,-3.475 2.645,-3.443 2.559,-3.543 2.428,-3.897 2.302,-3.881 2.243,-3.873 2.181,-3.789 2.132,-3.762 2.088,-3.738 2.065,-3.69 1.999,-3.715 1.94,-3.737 1.971,-3.758 1.938,-3.8 1.913,-3.831 1.847,-3.941 1.802,-3.941 1.765,-3.941 1.673,-3.825 1.644,-3.794 1.572,-3.713 1.57,-3.652 1.471,-3.704 1.394,-3.745 1.386,-3.843 1.336,-3.9 c 0.073,0.058 0.098,-0.103 0.033,-0.054 -0.038,0.01 -0.075,0.011 -0.113,0.002 -0.054,0.022 -0.099,0.05 -0.155,0.074 -0.106,0.046 -0.206,0.095 -0.328,0.101 -0.116,0.005 -0.693,0.47 -0.589,0.674 0.042,0.083 0.166,0.15 0.238,0.19 0.091,0.051 0.197,0.088 0.28,0.149 0.14,0.102 0.269,0.221 0.392,0.343 0.097,0.097 0.238,0.175 0.38,0.169 0.122,-0.006 0.217,-0.078 0.298,-0.164 0.051,-0.053 0.097,-0.113 0.139,-0.174 0.025,-0.036 0.066,-0.13 0.11,-0.138 0.15,-0.028 0.124,0.21 0.162,0.282 0.06,-0.014 0.114,-0.043 0.161,-0.085 0.05,-0.047 0.083,-0.203 0.15,-0.218 0.148,-0.032 0.2,0.279 0.189,0.379 0.04,-0.037 0.093,-0.039 0.135,-0.076 0.043,-0.037 0.056,-0.085 0.084,-0.133 0.037,-0.062 0.099,-0.214 0.173,-0.219 0.005,0.079 0.055,0.098 0.086,0.161 0.029,0.059 0.019,0.123 0.04,0.177 0.052,0.135 0.154,0.073 0.254,-0.003 0.068,-0.051 0.147,-0.178 0.251,-0.105 0.084,0.059 0.124,0.244 0.135,0.33 0.095,0.002 0.224,-0.207 0.276,-0.282 0.104,-0.149 0.166,-0.088 0.172,0.085 0.004,0.123 0.025,0.219 -0.075,0.297 -0.046,0.037 -0.106,0.036 -0.146,0.087 -0.026,0.034 -0.009,0.123 -0.008,0.16 0.004,0.166 0.03,0.257 -0.159,0.216 C 3.864,-1.683 3.826,-1.714 3.775,-1.721 3.702,-1.73 3.619,-1.719 3.545,-1.719 3.439,-1.72 3.251,-1.757 3.32,-1.581 c 0.05,0.125 0.179,0.077 0.282,0.103 0.183,0.046 0.398,-0.007 0.57,0.046 0.144,0.045 0.198,0.269 0.244,0.4 0.038,0.11 0.097,0.27 0.042,0.384 -0.025,0.052 -0.062,0.08 -0.115,0.101 -0.206,0.081 -0.52,0.018 -0.731,0.017 -0.056,0 -0.131,-0.015 -0.179,-0.003 -0.025,0.006 -0.055,0.045 -0.067,0.048 -0.106,0.022 -0.22,0.013 -0.331,0.012 -0.05,0 -0.125,-0.014 -0.174,-0.003 C 2.825,-0.467 2.818,-0.434 2.794,-0.428 2.696,-0.404 2.591,-0.371 2.492,-0.356 2.391,-0.342 2.287,-0.376 2.186,-0.35 2.175,-0.219 2.128,-0.149 2.122,-0.015 2.117,0.102 2.077,0.21 2.065,0.329 2.048,0.498 1.863,0.787 1.673,0.796 1.67,0.811 1.667,0.827 1.663,0.842 1.375,1.075 1.323,1.094 0.926,1.131 0.557,1.165 0.188,1.142 -0.154,1.012 -0.485,0.886 -0.877,0.932 -1.179,0.733 -1.344,0.624 -1.442,0.442 -1.555,0.285 -1.709,0.069 -2.057,-0.187 -2.313,-0.236 c -0.201,-0.038 -0.169,0.165 -0.199,0.292 -0.017,0.071 -0.091,0.085 -0.052,0.17 0.045,0.097 0.151,0.082 0.222,0.111 0.116,0.048 0.224,0.068 0.313,0.174 0.017,0.02 0.043,0.034 0.059,0.055 0.019,0.027 0.016,0.082 0.036,0.103 0.029,0.029 0.081,0.03 0.108,0.054 0.045,0.042 0.03,0.051 0.055,0.102 0.052,0.109 0.095,0.298 0.059,0.432 C -1.764,1.454 -1.941,1.483 -2.115,1.482 -2.482,1.48 -2.749,1.37 -3.031,1.138 -3.162,1.03 -3.262,0.903 -3.387,0.793 -3.53,0.668 -3.714,0.551 -3.797,0.367 -3.861,0.226 -3.829,0.04 -3.83,-0.119 c -10e-4,-0.184 0.039,-0.248 0.129,-0.398 0.084,-0.143 0.193,-0.21 0.341,-0.273 0.088,-0.038 0.178,-0.069 0.273,-0.073 0.11,-0.005 0.182,-0.041 0.286,-0.059 0.127,-0.022 0.408,-0.03 0.517,0.03 0.063,0.035 0.111,0.128 0.169,0.168 0.039,0.028 0.178,0.147 0.218,0.144 0.053,-0.108 -0.045,-0.251 -0.118,-0.324 -0.087,-0.087 -0.174,-0.084 -0.273,-0.128 -0.194,-0.084 -0.407,-0.131 -0.615,-0.185 -0.127,-0.034 -0.189,-0.059 -0.324,-0.01 -0.131,0.047 -0.239,0.13 -0.357,0.201 -0.18,0.106 -0.39,0.178 -0.594,0.097 -0.196,-0.078 -0.319,-0.272 -0.375,-0.467 -0.061,-0.213 -0.07,-0.62 0.033,-0.821 0.168,-0.33 0.364,-0.644 0.723,-0.789"
             style="fill:#231f20;fill-opacity:1;fill-rule:nonzero;stroke:none"
             id="path3073" />
        </g>
        <g
           id="g3075"
           transform="translate(356.865,214.988)">
          <path
             d="m 0,0 c -0.083,0.484 -0.217,0.931 -0.217,1.425 0,0.25 0.005,0.5 0.001,0.749 -0.003,0.237 -0.008,0.584 -0.127,0.795 -0.195,0.347 -0.51,0.638 -0.802,0.906 -0.211,0.194 -0.403,0.41 -0.609,0.611 -0.121,0.118 -0.21,0.253 -0.337,0.367 -0.194,0.172 -0.378,0.349 -0.583,0.51 C -2.741,5.415 -2.803,5.479 -2.875,5.526 -2.977,5.593 -3.079,5.6 -3.189,5.647 -3.405,5.74 -3.589,5.821 -3.819,5.88 -4.039,5.935 -4.172,5.935 -4.388,5.892 -4.613,5.847 -4.849,5.896 -5.077,5.882 -5.299,5.869 -5.504,5.823 -5.73,5.822 -5.981,5.821 -6.208,5.868 -6.457,5.882 -6.638,5.893 -6.823,5.878 -7.005,5.879 -7.244,5.881 -7.471,5.825 -7.708,5.82 -7.924,5.816 -8.112,5.795 -8.323,5.75 -8.442,5.725 -8.559,5.684 -8.679,5.663 -8.796,5.642 -8.907,5.662 -9.014,5.597 -9.147,5.517 -9.248,5.358 -9.362,5.251 -9.572,5.056 -9.788,4.877 -9.981,4.664 c -0.118,-0.13 -0.195,-0.29 -0.299,-0.43 -0.202,-0.274 -0.344,-0.544 -0.473,-0.857 -0.131,-0.316 -0.378,-0.655 -0.385,-1 -0.007,-0.33 0.066,-0.648 0.126,-0.969 0.03,-0.159 0.125,-0.373 0.215,-0.505 0.064,-0.094 0.123,-0.124 0.174,-0.239 0.032,-0.072 0.06,-0.161 0.113,-0.224 0.095,-0.109 0.237,-0.194 0.341,-0.291 0.096,-0.089 0.185,-0.183 0.277,-0.276 0.185,-0.188 0.475,-0.523 0.743,-0.572 0.247,-0.044 0.552,-0.125 0.77,-0.253 0.249,-0.145 0.514,-0.287 0.785,-0.387 0.113,-0.042 0.224,-0.115 0.337,-0.148 0.129,-0.036 0.28,-0.009 0.411,-0.009 0.09,0 0.193,-0.02 0.279,0.01 0.056,0.131 -0.159,0.19 -0.235,0.227 -0.214,0.103 -0.341,0.337 -0.548,0.441 -0.086,0.043 -0.192,0.04 -0.275,0.093 -0.069,0.043 -0.095,0.092 -0.149,0.155 -0.103,0.122 -0.238,0.218 -0.345,0.329 -0.129,0.134 -0.291,0.281 -0.446,0.39 -0.14,0.099 -0.235,0.221 -0.345,0.358 -0.086,0.107 -0.206,0.197 -0.229,0.341 -0.018,0.113 0.015,0.238 0.006,0.353 -0.011,0.134 -0.059,0.253 -0.062,0.39 -0.002,0.094 10e-4,0.188 10e-4,0.281 0,0.211 0.002,0.422 0.001,0.632 -0.001,0.131 -0.012,0.229 0.041,0.346 0.03,0.066 0.054,0.113 0.073,0.183 0.018,0.07 0.017,0.162 0.069,0.22 0.05,0.058 0.11,0.079 0.155,0.139 0.016,0.021 0.02,0.063 0.036,0.086 0.017,0.022 0.064,0.035 0.084,0.055 0.04,0.039 0.056,0.097 0.097,0.133 0.036,0.032 0.085,0.029 0.118,0.063 0.054,0.056 0.05,0.17 0.101,0.236 0.091,0.119 0.287,0.18 0.423,0.242 0.148,0.066 0.334,0.112 0.492,0.131 C -7.09,4.386 -6.689,4.275 -6.28,4.279 -6.032,4.281 -5.796,4.226 -5.547,4.222 -5.316,4.219 -5.058,4.117 -4.848,4.02 -4.491,3.857 -4.06,3.908 -3.705,3.729 -3.561,3.656 -3.402,3.581 -3.277,3.481 -3.137,3.37 -3.011,3.197 -2.906,3.05 -2.837,2.954 -2.741,2.878 -2.673,2.78 -2.595,2.669 -2.546,2.536 -2.475,2.42 -2.36,2.234 -2.306,2.027 -2.181,1.846 -2.037,1.637 -2.104,1.332 -2.104,1.081 -2.104,0.914 -2.065,0.699 -2.109,0.541 -2.131,0.46 -2.163,0.412 -2.162,0.31 c 10e-4,-0.058 10e-4,-0.116 10e-4,-0.175 0,-0.127 0.023,-0.278 -0.005,-0.402 -0.071,-0.312 -0.145,-0.626 -0.21,-0.946 -0.036,-0.181 -0.118,-0.331 -0.158,-0.512 -0.02,-0.087 -0.016,-0.181 -0.058,-0.258 -0.057,-0.105 -0.167,-0.18 -0.243,-0.269 -0.092,-0.11 -0.121,-0.22 -0.243,-0.3 -0.074,-0.049 -0.086,-0.054 -0.141,-0.116 -0.105,-0.118 -0.222,-0.173 -0.313,-0.316 -0.116,-0.183 -0.394,-0.213 -0.572,-0.342 -0.141,-0.101 -0.231,-0.124 -0.391,-0.171 -0.092,-0.027 -0.138,-0.073 -0.222,-0.118 -0.116,-0.061 -0.237,-0.038 -0.355,-0.086 -0.095,-0.038 -0.159,-0.115 -0.261,-0.137 -0.203,-0.044 -0.464,-0.003 -0.673,-0.003 -0.438,0 -0.877,0 -1.315,0 -0.511,0.001 -1.004,0.115 -1.517,0.115 -0.398,0 -0.936,-0.101 -1.29,0.1 -0.187,0.107 -0.327,0.283 -0.496,0.419 -0.155,0.124 -0.347,0.188 -0.498,0.323 -0.155,0.138 -0.335,0.256 -0.52,0.35 -0.101,0.052 -0.214,0.065 -0.313,0.12 -0.186,0.102 -0.374,0.271 -0.541,0.401 -0.137,0.105 -0.238,0.244 -0.304,0.404 -0.039,0.096 -0.047,0.2 -0.107,0.286 -0.152,0.22 -0.289,0.473 -0.41,0.721 -0.105,0.215 -0.214,0.468 -0.269,0.703 -0.059,0.251 -0.176,0.478 -0.265,0.72 -0.051,0.141 -0.031,0.302 -0.031,0.456 0,0.281 0.023,0.546 0.052,0.824 0.024,0.224 -0.038,0.467 0.003,0.687 0.012,0.067 0.051,0.115 0.063,0.182 0.022,0.127 -0.009,0.244 0.025,0.37 0.039,0.141 0.101,0.291 0.132,0.438 0.022,0.105 0.004,0.2 0.044,0.301 0.031,0.079 0.081,0.151 0.111,0.232 0.038,0.103 0.036,0.257 0.098,0.346 0.037,0.054 0.079,0.087 0.114,0.146 0.088,0.146 0.161,0.3 0.249,0.444 0.194,0.317 0.48,0.56 0.654,0.885 0.079,0.147 0.201,0.263 0.287,0.404 0.06,0.1 0.091,0.2 0.169,0.287 0.145,0.162 0.314,0.31 0.453,0.464 0.07,0.078 0.107,0.192 0.176,0.279 0.076,0.096 0.109,0.096 0.115,0.228 0.012,0.262 -0.057,0.484 -0.058,0.744 0,0.156 0.032,0.282 -0.085,0.395 -0.071,0.069 -0.172,0.154 -0.256,0.206 -0.118,0.074 -0.241,0.051 -0.373,0.085 -0.111,0.028 -0.21,0.05 -0.313,0.098 -0.235,0.111 -0.405,0.251 -0.586,0.43 -0.222,0.219 -0.244,0.463 -0.172,0.757 0.023,0.094 0.027,0.19 0.035,0.286 -0.055,-0.107 -0.11,-0.139 -0.193,-0.186 -0.05,-0.029 -0.115,-0.068 -0.169,-0.086 -0.107,-0.036 -0.188,-0.033 -0.289,-0.096 -0.073,-0.045 -0.142,-0.098 -0.214,-0.146 -0.205,-0.135 -0.339,-0.306 -0.529,-0.457 -0.117,-0.094 -0.226,-0.188 -0.328,-0.298 -0.066,-0.072 -0.201,-0.185 -0.237,-0.277 -0.185,-0.474 -0.138,-1.015 -0.332,-1.498 -0.05,-0.126 -0.139,-0.227 -0.19,-0.354 -0.07,-0.174 -0.097,-0.294 -0.22,-0.441 C -15.908,6.64 -16.129,6.32 -16.357,5.981 -16.424,5.895 -16.473,5.8 -16.505,5.696 -16.51,5.585 -16.516,5.473 -16.523,5.362 -16.546,5.225 -16.605,5.086 -16.639,4.952 -16.677,4.799 -16.752,4.661 -16.786,4.507 -16.82,4.356 -16.833,4.2 -16.868,4.049 c -0.068,-0.298 -0.16,-0.576 -0.16,-0.885 0,-0.349 0.033,-0.679 0.072,-1.024 0.044,-0.402 0.159,-0.792 0.203,-1.193 0.036,-0.337 0.069,-0.672 0.114,-1.007 0.066,-0.489 -0.011,-0.977 0.082,-1.469 0.065,-0.341 0.23,-0.596 0.403,-0.892 0.127,-0.219 0.193,-0.475 0.328,-0.686 0.048,-0.075 0.104,-0.103 0.155,-0.167 0.12,-0.152 0.166,-0.345 0.3,-0.488 0.108,-0.116 0.254,-0.227 0.377,-0.326 0.205,-0.164 0.391,-0.325 0.588,-0.502 0.195,-0.175 0.402,-0.28 0.637,-0.395 0.116,-0.056 0.234,-0.108 0.363,-0.118 0.094,-0.006 0.177,0.019 0.272,0 0.201,-0.04 0.367,-0.192 0.552,-0.272 0.16,-0.069 0.33,-0.103 0.496,-0.149 0.21,-0.058 0.41,-0.114 0.607,-0.211 0.224,-0.111 0.429,-0.312 0.674,-0.377 0.175,-0.046 0.348,0.004 0.525,-0.025 0.116,-0.019 0.233,-0.067 0.347,-0.092 0.175,-0.039 0.35,-0.048 0.524,-0.08 0.149,-0.027 0.265,-0.117 0.407,-0.166 0.271,-0.093 0.611,-0.065 0.893,-0.055 0.301,0.009 0.64,0.088 0.918,0.204 0.228,0.094 0.422,0.084 0.668,0.084 0.737,0.001 1.466,0.039 2.2,0.053 0.292,0.006 0.547,0.111 0.802,0.246 0.148,0.078 0.296,0.141 0.446,0.212 0.167,0.077 0.273,0.198 0.404,0.322 0.208,0.196 0.408,0.417 0.624,0.603 0.101,0.086 0.238,0.108 0.333,0.197 0.074,0.069 0.103,0.179 0.137,0.27 0.086,0.228 0.144,0.487 0.272,0.697 0.082,0.135 0.188,0.207 0.292,0.318 0.195,0.207 0.228,0.486 0.35,0.736 0.101,0.207 0.309,0.321 0.395,0.531 0.056,0.135 0.065,0.294 0.094,0.436 0.031,0.156 0.118,0.308 0.13,0.463 C -0.015,-0.78 0.065,-0.382 0,0"
             style="fill:#231f20;fill-opacity:1;fill-rule:nonzero;stroke:none"
             id="path3077" />
        </g>
        <g
           id="g3079"
           transform="translate(343.956,225.987)">
          <path
             d="M 0,0 C -0.022,-0.067 -0.03,-0.136 -0.035,-0.204 0.009,-0.117 0.054,0.019 0.114,0.255 0.072,0.169 0.028,0.087 0,0"
             style="fill:#231f20;fill-opacity:1;fill-rule:nonzero;stroke:none"
             id="path3081" />
        </g>
        <g
           id="g3083"
           transform="translate(353.154,224.689)">
          <path
             d="m 0,0 c -0.027,-0.019 -0.07,-0.026 -0.103,-0.02 -0.017,0.003 -0.035,0.007 -0.052,0.013 -0.006,0.001 -0.019,0.003 -0.026,0.002 -0.014,-0.004 -0.021,-0.022 -0.034,-0.03 -0.019,-0.011 -0.038,-0.021 -0.056,-0.034 -0.014,-0.01 -0.023,-0.009 -0.04,-0.009 -0.025,0.001 -0.049,0 -0.074,-0.005 -0.031,-0.006 -0.058,-0.008 -0.089,-0.008 -0.055,-0.002 -0.094,-0.028 -0.143,-0.044 -0.043,-0.015 -0.088,-0.019 -0.128,-0.042 -0.029,-0.018 -0.052,-0.033 -0.086,-0.037 -0.026,-0.003 -0.052,-0.004 -0.078,-0.008 -0.054,-0.009 -0.104,-0.016 -0.16,-0.012 -0.051,0.003 -0.101,0.011 -0.152,0.015 -0.065,0.006 -0.125,0.012 -0.188,-0.008 -0.056,-0.018 -0.112,-0.035 -0.168,-0.051 -0.027,-0.007 -0.053,-0.023 -0.081,-0.028 -0.022,-0.003 -0.046,-0.001 -0.068,0 -0.046,0 -0.092,-0.001 -0.139,-0.001 -0.073,0 -0.152,-0.008 -0.225,0.009 -0.022,0.006 -0.043,0.017 -0.067,0.02 -0.017,0.002 -0.035,0 -0.052,0 -0.041,0 -0.08,0.001 -0.12,-0.005 -0.033,-0.005 -0.067,-0.003 -0.099,-0.014 -0.017,-0.006 -0.03,-0.019 -0.047,-0.023 -0.014,-0.003 -0.031,-0.001 -0.046,-0.001 -0.039,0.001 -0.078,-0.001 -0.118,0.006 -0.026,0.004 -0.051,0.009 -0.078,0.009 -0.014,-0.001 -0.028,0 -0.043,0 -0.025,-0.001 -0.041,0.004 -0.064,0.012 -0.029,0.01 -0.074,0.006 -0.095,0.028 -0.009,0.01 -0.006,0.034 -0.006,0.047 0.002,0.026 0.009,0.037 0.022,0.057 0.009,0.012 0.012,0.03 0.022,0.041 0.012,0.011 0.029,0.008 0.042,0.011 0.032,0.009 0.05,0.035 0.08,0.047 0.018,0.008 0.047,0.005 0.055,0.026 0.009,0.02 -0.005,0.038 -0.013,0.054 C -2.729,0.04 -2.739,0.049 -2.761,0.063 -2.79,0.081 -2.82,0.109 -2.853,0.121 -2.862,0.125 -2.874,0.125 -2.884,0.129 -2.906,0.136 -2.923,0.15 -2.944,0.159 -2.969,0.169 -3.001,0.17 -3.027,0.172 -3.055,0.174 -3.089,0.176 -3.116,0.171 -3.145,0.166 -3.184,0.159 -3.21,0.144 -3.255,0.118 -3.296,0.088 -3.344,0.067 -3.36,0.06 -3.374,0.056 -3.388,0.044 -3.398,0.036 -3.406,0.025 -3.417,0.017 -3.44,-0.001 -3.464,-0.015 -3.486,-0.035 -3.504,-0.052 -3.52,-0.068 -3.527,-0.092 -3.537,-0.12 -3.538,-0.15 -3.548,-0.178 c -0.01,-0.03 -0.019,-0.055 -0.02,-0.087 0,-0.025 -10e-4,-0.051 0,-0.076 10e-4,-0.031 0.008,-0.063 0.013,-0.094 0.004,-0.027 0.012,-0.052 0.025,-0.077 0.007,-0.015 0.019,-0.029 0.025,-0.044 0.006,-0.017 0,-0.034 0.005,-0.05 0.006,-0.015 0.016,-0.032 0.025,-0.046 0.016,-0.022 0.043,-0.038 0.067,-0.053 0.032,-0.02 0.061,-0.04 0.098,-0.052 0.037,-0.011 0.072,-0.024 0.11,-0.033 0.034,-0.008 0.069,-0.011 0.104,-0.015 0.071,-0.007 0.154,-0.008 0.222,0.011 0.031,0.009 0.062,0.012 0.092,0.023 0.038,0.014 0.071,0.02 0.111,0.023 0.056,0.005 0.111,0.018 0.168,0.02 0.053,0.002 0.105,0.006 0.157,0.007 0.097,0.002 0.191,0.031 0.288,0.036 0.104,0.004 0.201,0.048 0.299,0.077 0.12,0.036 0.247,0.037 0.371,0.037 h 0.154 c 0.038,0 0.078,0.003 0.116,-0.001 0.062,-0.008 0.129,-0.005 0.187,0.019 0.025,0.01 0.052,0.017 0.078,0.024 0.024,0.006 0.056,0.001 0.08,0.001 0.036,0 0.069,-0.006 0.104,-0.007 0.034,-0.002 0.066,0.006 0.099,0.007 0.037,0.002 0.069,0.005 0.104,0.014 0.031,0.009 0.06,0.015 0.091,0.015 0.072,-0.001 0.145,0.003 0.217,0 0.041,-0.002 0.07,-0.02 0.102,-0.042 0.043,-0.031 0.094,-0.049 0.142,-0.071 0.06,-0.027 0.139,-0.064 0.151,-0.138 0.017,-0.109 -0.03,-0.237 -0.005,-0.345 0.008,-0.031 0.033,-0.098 0.044,-0.127 0.013,-0.034 0.031,-0.069 0.049,-0.101 0.098,-0.171 0.228,-0.283 0.422,-0.329 0.064,-0.016 0.136,0.009 0.195,0.023 0.051,0.013 0.103,0.009 0.152,0.02 0.078,0.016 0.132,0.086 0.195,0.131 0.08,0.057 0.24,0.111 0.235,0.235 -0.001,0.028 -0.025,0.087 -0.045,0.108 -0.085,0.093 -0.285,0.033 -0.399,0.048 -0.044,0.006 -0.082,0.014 -0.122,0.031 -0.046,0.021 -0.089,0.053 -0.125,0.089 -0.053,0.053 -0.119,0.143 -0.104,0.224 0.019,0.106 0.442,0.236 0.526,0.235 0.148,0 0.296,-0.01 0.444,-0.009 0.027,0 0.06,0.006 0.086,0.001 0.044,-0.007 0.073,-0.04 0.114,-0.053 0.088,-0.026 0.305,-0.027 0.38,0.015 0.054,0.031 0.084,0.057 0.1,0.123 0.008,0.035 0.029,0.169 0.002,0.195 -0.032,0.033 -0.154,-0.007 -0.197,0.003 -0.024,0.006 -0.031,0.026 -0.055,0.032 -0.032,0.008 -0.081,-0.002 -0.115,-0.002 -0.134,0 -0.267,0 -0.401,0 -0.066,0 -0.134,0.005 -0.2,0.001 -0.069,-0.004 -0.127,-0.03 -0.2,-0.029 -0.063,0 -0.157,-0.019 -0.208,0.02 C 0.98,-0.192 0.964,-0.166 0.953,-0.138 0.945,-0.087 0.675,-0.168 0.655,-0.116 0.625,-0.04 0.55,0.049 0.472,0.067 0.362,0.092 0.205,0.069 0.106,0.044 0.07,0.035 0.031,0.021 0,0"
             style="fill:#231f20;fill-opacity:1;fill-rule:nonzero;stroke:none"
             id="path3085" />
        </g>
      </g>
    </g>
  </g>
</svg>
