<?xml version="1.0" encoding="UTF-8" standalone="no"?>
<!-- Created with Inkscape (http://www.inkscape.org/) -->

<svg
   width="23.394388"
   height="24"
   viewBox="0 0 6.1897653 6.35"
   version="1.1"
   id="svg44813"
   inkscape:version="1.2.1 (9c6d41e4, 2022-07-14)"
   sodipodi:docname="shattered-aeons.svg"
   xmlns:inkscape="http://www.inkscape.org/namespaces/inkscape"
   xmlns:sodipodi="http://sodipodi.sourceforge.net/DTD/sodipodi-0.dtd"
   xmlns="http://www.w3.org/2000/svg"
   xmlns:svg="http://www.w3.org/2000/svg">
  <sodipodi:namedview
     id="namedview44815"
     pagecolor="#505050"
     bordercolor="#eeeeee"
     borderopacity="1"
     inkscape:showpageshadow="0"
     inkscape:pageopacity="0"
     inkscape:pagecheckerboard="0"
     inkscape:deskcolor="#505050"
     inkscape:document-units="mm"
     showgrid="false"
     inkscape:zoom="0.7046647"
     inkscape:cx="8.5146879"
     inkscape:cy="80.179978"
     inkscape:window-width="1390"
     inkscape:window-height="941"
     inkscape:window-x="0"
     inkscape:window-y="25"
     inkscape:window-maximized="0"
     inkscape:current-layer="layer1" />
  <defs
     id="defs44810">
    <clipPath
       clipPathUnits="userSpaceOnUse"
       id="clipPath33121">
      <path
         d="m 321.761,307.968 h 24.699 v 24.7 h -24.699 z"
         id="path33119" />
    </clipPath>
  </defs>
  <g
     inkscape:label="Layer 1"
     inkscape:groupmode="layer"
     id="layer1"
     transform="translate(-102.98449,-127.66157)">
    <g
       id="g33115"
       transform="matrix(0.27121431,0,0,-0.27121431,15.441951,217.72294)">
      <g
         id="g33117"
         clip-path="url(#clipPath33121)">
        <g
           id="g33123"
           transform="translate(334.542,331.079)">
          <path
             d="m 0,0 c 0,-0.41 0.031,-0.832 -0.04,-1.235 -0.048,-0.274 -0.04,-0.534 -0.04,-0.814 0,-0.192 -0.045,-0.501 0.017,-0.687 0.132,0.072 0.216,0.08 0.381,0.077 0.179,-0.003 0.307,0.073 0.478,0.082 0.368,0.02 0.401,-0.004 0.77,-0.002 0.387,0.003 0.746,-0.139 1.116,-0.261 0.146,-0.048 0.287,-0.064 0.414,-0.12 0.218,-0.095 0.471,-0.171 0.683,-0.281 0.465,-0.241 0.834,-0.594 1.212,-0.947 0.206,-0.192 0.351,-0.408 0.498,-0.647 0.158,-0.257 0.354,-0.454 0.48,-0.729 0.18,-0.399 0.453,-0.747 0.634,-1.144 0.115,-0.254 0.177,-0.503 0.28,-0.764 0.149,-0.38 0.257,-0.76 0.359,-1.154 0.131,-0.506 0.058,-1.082 0.058,-1.607 0,-0.357 0.045,-0.744 -0.018,-1.096 -0.049,-0.273 -0.132,-0.5 -0.139,-0.778 -0.01,-0.413 -0.167,-0.811 -0.321,-1.191 -0.067,-0.167 -0.147,-0.326 -0.239,-0.479 -0.058,-0.098 -0.093,-0.211 -0.155,-0.307 -0.085,-0.134 -0.221,-0.228 -0.318,-0.354 -0.203,-0.264 -0.405,-0.546 -0.646,-0.778 -0.176,-0.17 -0.369,-0.328 -0.531,-0.515 -0.301,-0.349 -0.725,-0.502 -1.152,-0.643 -0.126,-0.042 -0.234,-0.127 -0.362,-0.169 -0.114,-0.038 -0.229,-0.042 -0.343,-0.077 -0.19,-0.058 -0.375,-0.06 -0.569,-0.119 -0.55,-0.168 -1.104,-0.199 -1.654,-0.324 -0.418,-0.096 -0.792,-0.096 -1.218,-0.101 -0.206,-0.002 -0.355,0.064 -0.552,0.081 -0.337,0.029 -0.675,0.109 -0.998,0.219 -0.138,0.047 -0.27,0.105 -0.402,0.164 -0.134,0.06 -0.165,0.103 -0.271,0.181 -0.12,0.089 -0.252,0.12 -0.369,0.219 -0.092,0.079 -0.149,0.174 -0.248,0.244 -0.131,0.093 -0.215,0.103 -0.327,0.242 -0.075,0.094 -0.148,0.174 -0.233,0.26 -0.243,0.245 -0.525,0.451 -0.72,0.743 -0.153,0.229 -0.247,0.52 -0.377,0.766 -0.149,0.284 -0.259,0.591 -0.36,0.895 -0.107,0.326 -0.138,0.576 -0.137,0.924 0.002,0.355 -0.051,0.752 0.018,1.102 0.108,0.549 0.11,1.146 0.319,1.678 0.1,0.256 0.227,0.496 0.38,0.723 0.178,0.266 0.297,0.574 0.491,0.824 0.486,0.627 1.113,1.072 1.857,1.311 0.258,0.083 0.503,0.194 0.777,0.226 0.122,0.015 0.251,-0.017 0.374,-0.008 0.219,0.015 0.414,0.085 0.636,0.087 0.272,0.001 0.545,-0.005 0.817,-0.003 0.293,0.003 0.569,-0.059 0.859,-0.078 0.414,-0.027 0.893,-0.211 1.195,-0.503 0.252,-0.245 0.455,-0.515 0.577,-0.849 0.138,-0.378 0.353,-0.755 0.38,-1.162 0.041,-0.596 0.028,-1.24 0.004,-1.835 -0.016,-0.378 -0.212,-0.807 -0.384,-1.14 -0.076,-0.148 -0.212,-0.36 -0.334,-0.478 -0.074,-0.071 -0.168,-0.09 -0.245,-0.155 -0.14,-0.117 -0.143,-0.189 -0.313,-0.265 -0.204,-0.093 -0.427,-0.222 -0.64,-0.287 -0.35,-0.107 -0.829,-0.011 -1.195,-0.016 -0.19,-0.002 -0.374,0.053 -0.557,0.098 -0.069,0.017 -0.172,0.04 -0.239,0.059 -0.121,0.034 -0.205,0.121 -0.32,0.169 -0.055,0.023 -0.119,0.028 -0.175,0.055 -0.105,0.049 -0.204,0.121 -0.301,0.183 -0.159,0.101 -0.298,0.168 -0.416,0.318 -0.246,0.314 -0.401,0.644 -0.382,1.052 0.017,0.359 0.319,0.724 0.561,0.951 0.46,0.432 1.173,0.806 1.719,0.346 -0.382,0.586 -1.326,0.488 -1.801,0.032 -0.202,-0.194 -0.465,-0.325 -0.639,-0.554 -0.079,-0.103 -0.118,-0.192 -0.206,-0.288 -0.162,-0.178 -0.168,-0.401 -0.276,-0.61 -0.039,-0.076 -0.106,-0.131 -0.146,-0.206 -0.039,-0.075 -0.075,-0.231 -0.09,-0.315 -0.024,-0.139 -0.023,-0.39 10e-4,-0.528 0.055,-0.311 0.519,-0.658 0.799,-0.742 0.424,-0.127 0.856,-0.28 1.274,-0.423 0.367,-0.126 0.831,-0.306 1.212,-0.324 0.472,-0.023 0.973,-0.044 1.401,0.182 0.179,0.095 0.349,0.17 0.532,0.263 0.163,0.083 0.293,0.196 0.452,0.282 0.263,0.142 0.397,0.184 0.575,0.435 0.126,0.178 0.256,0.352 0.328,0.563 0.121,0.348 0.201,0.698 0.285,1.057 0.049,0.21 0.147,0.38 0.153,0.604 0.006,0.229 -0.002,0.46 -0.002,0.689 0,0.267 0.019,0.511 -0.06,0.759 C 3.829,-8.733 3.824,-8.51 3.76,-8.3 3.632,-7.881 3.418,-7.504 3.162,-7.154 3.019,-6.96 2.87,-6.765 2.687,-6.606 2.588,-6.52 2.462,-6.472 2.364,-6.399 c -0.103,0.078 -0.17,0.164 -0.301,0.218 -0.173,0.072 -0.357,0.14 -0.535,0.209 -0.272,0.105 -0.529,0.089 -0.82,0.09 -0.279,0 -0.551,-0.016 -0.824,0.04 -0.402,0.083 -0.834,0.04 -1.244,0.04 -0.296,0 -0.591,0 -0.887,0 -0.305,0 -0.585,-0.064 -0.887,-0.08 -0.414,-0.023 -0.794,-0.292 -1.061,-0.605 -0.179,-0.211 -0.431,-0.335 -0.611,-0.542 -0.157,-0.181 -0.361,-0.393 -0.48,-0.6 -0.265,-0.459 -0.602,-0.921 -0.949,-1.316 -0.211,-0.241 -0.329,-0.394 -0.415,-0.707 -0.104,-0.377 -0.37,-0.716 -0.449,-1.11 -0.03,-0.149 0.003,-0.3 -0.025,-0.45 -0.04,-0.219 -0.145,-0.417 -0.152,-0.644 -0.011,-0.346 -0.024,-0.708 -0.151,-1.035 -0.207,-0.534 -0.27,-1.039 -0.243,-1.611 0.024,-0.489 0.339,-0.974 0.562,-1.389 0.165,-0.306 0.272,-0.723 0.517,-0.981 0.198,-0.208 0.449,-0.318 0.717,-0.412 0.642,-0.227 1.352,-0.23 1.955,-0.563 0.253,-0.14 0.522,-0.255 0.79,-0.366 0.114,-0.048 0.216,-0.058 0.331,-0.092 0.175,-0.052 0.319,-0.186 0.498,-0.225 0.811,-0.176 1.639,-0.165 2.469,-0.165 0.241,0 0.492,-0.029 0.73,-0.004 0.151,0.016 0.29,0.069 0.442,0.083 0.564,0.053 1.135,0.255 1.679,0.405 0.426,0.117 0.838,0.26 1.261,0.38 0.142,0.041 0.202,0.103 0.322,0.18 0.236,0.152 0.492,0.267 0.728,0.425 0.333,0.222 0.549,0.555 0.86,0.796 0.124,0.096 0.135,0.085 0.191,0.233 0.079,0.21 0.175,0.369 0.284,0.564 0.189,0.34 0.376,0.655 0.602,0.974 0.224,0.316 0.38,0.657 0.589,0.981 0.26,0.401 0.306,0.879 0.398,1.348 0.055,0.285 0.14,0.563 0.196,0.848 0.072,0.374 0.044,0.756 0.043,1.135 0,0.469 10e-4,0.937 0,1.406 0,0.385 -0.053,0.746 -0.079,1.126 -0.061,0.888 -0.549,1.744 -1.155,2.377 -0.343,0.359 -0.638,0.773 -0.939,1.169 -0.252,0.332 -0.524,0.68 -0.735,1.038 -0.188,0.32 -0.397,0.572 -0.673,0.813 -0.437,0.382 -0.946,0.399 -1.482,0.567 -0.9,0.281 -1.442,0.554 -2.266,1.029 C 0.931,-0.687 0.711,-0.527 0.477,-0.399 0.339,-0.323 -0.07,-0.211 0,0"
             style="fill:#000000;fill-opacity:1;fill-rule:nonzero;stroke:none"
             id="path33125" />
        </g>
        <g
           id="g33127"
           transform="translate(333.587,331.906)">
          <path
             d="M 0,0 C 0.114,-0.092 0.125,-0.406 0.159,-0.54 0.214,-0.757 0.263,-1.639 0.3,-1.855 0.358,-2.19 0.317,-3.245 0.318,-3.587 0.319,-3.735 0.373,-3.924 0.244,-3.994 0.166,-4.037 -0.063,-4.067 -0.159,-4.072 c -0.155,-0.009 -0.323,-0.009 -0.478,0 -0.076,0.004 -0.39,0.046 -0.435,0.086 -0.1,0.089 0.032,0.264 0.039,0.399 0.007,0.146 -0.002,0.983 -0.002,1.129 0,0.143 -0.021,0.304 -0.002,0.445 0.019,0.142 0.076,0.21 0.082,0.36 0.006,0.146 -0.021,0.947 -0.002,1.091 0.018,0.14 0.069,0.213 0.081,0.36 0.017,0.21 0.039,0.216 0.241,0.284 0.131,0.045 0.248,0.082 0.396,0.079"
             style="fill:#000000;fill-opacity:1;fill-rule:nonzero;stroke:none"
             id="path33129" />
        </g>
        <g
           id="g33131"
           transform="translate(333.826,311.659)">
          <path
             d="m 0,0 c 0.077,-0.149 0.069,-0.227 0.078,-0.403 0.007,-0.155 0.062,-0.33 0.099,-0.483 0.021,-0.09 0.059,-0.146 0.064,-0.242 0.003,-0.077 -0.02,-0.165 -0.006,-0.242 0.03,-0.175 0.13,-1.239 0.067,-1.43 -0.101,-0.306 -0.597,-0.178 -0.859,-0.181 -0.18,-0.003 -0.306,0.075 -0.478,0.082 -0.152,0.007 -0.275,-0.005 -0.361,0.157 -0.132,0.245 -0.008,1.643 0.04,1.896 0.034,0.177 0.075,0.297 0.081,0.484 0.006,0.172 0.068,0.312 0.081,0.484 0.018,0.238 0.041,0.203 0.279,0.2 0.159,-0.002 0.318,0 0.477,0 0.34,0 0.656,-0.027 0.597,-0.483"
             style="fill:#000000;fill-opacity:1;fill-rule:nonzero;stroke:none"
             id="path33133" />
        </g>
        <g
           id="g33135"
           transform="translate(345.529,321.249)">
          <path
             d="m 0,0 c -0.172,0 -0.982,0.002 -1.154,0 -0.174,-0.002 -0.4,0.116 -0.555,0.087 -0.189,-0.035 -0.123,-0.236 -0.122,-0.409 0,-0.156 -0.022,-0.331 -0.002,-0.486 0.019,-0.154 0.076,-0.235 0.08,-0.401 0.005,-0.264 0.11,-0.229 0.322,-0.158 0.119,0.039 0.216,0.087 0.334,0.138 0.19,0.082 0.982,0.064 1.169,0.113 0.012,0.095 -0.058,0.138 -0.094,0.212 -0.043,0.087 -0.053,0.109 -0.058,0.218 -0.008,0.174 0,0.351 0,0.525"
             style="fill:#000000;fill-opacity:1;fill-rule:nonzero;stroke:none"
             id="path33137" />
        </g>
        <g
           id="g33139"
           transform="translate(326.023,321.41)">
          <path
             d="m 0,0 c -0.022,-0.005 0.219,-0.058 0.197,-0.063 -0.094,-0.27 0.123,-0.995 -0.081,-1.143 -0.05,-0.036 -0.173,0.002 -0.236,-0.009 -0.081,-0.016 -0.155,-0.06 -0.238,-0.077 -0.155,-0.03 -1.004,-0.071 -1.163,-0.079 -0.332,-0.015 -0.439,0.084 -0.762,0.005 -0.066,-0.016 -0.082,-0.072 -0.151,-0.088 -0.07,-0.018 -0.171,0.003 -0.242,0.004 -0.078,0 -0.165,0.011 -0.241,0.002 -0.062,-0.009 -0.139,-0.062 -0.177,-0.067 -0.325,-0.044 -0.027,0.457 0.039,0.609 0.06,0.138 0.038,0.268 0.078,0.422 0.029,0.111 0.047,0.371 0.136,0.409 0.144,0.062 0.153,-0.006 0.308,-0.006 0.184,0 0.37,-0.013 0.551,0.018 C -1.576,0.008 -0.496,0.081 0,0"
             style="fill:#000000;fill-opacity:1;fill-rule:nonzero;stroke:none"
             id="path33141" />
        </g>
        <g
           id="g33143"
           transform="translate(331.709,330.609)">
          <path
             d="M 0,0 C -0.005,-0.024 -0.01,-0.048 -0.015,-0.072 -0.213,-0.11 -0.414,-0.171 -0.6,-0.214 -0.779,-0.256 -0.963,-0.37 -1.134,-0.41 -1.547,-0.507 -1.901,-0.653 -2.261,-0.867 -2.654,-1.1 -3.133,-1.316 -3.535,-1.52 c -0.161,-0.082 -0.297,-0.2 -0.442,-0.291 -0.184,-0.113 -0.382,-0.23 -0.566,-0.352 -0.08,-0.053 -0.208,-0.127 -0.253,-0.203 -0.049,-0.081 -0.053,-0.183 -0.109,-0.269 -0.141,-0.212 -0.267,-0.395 -0.369,-0.623 -0.1,-0.223 -0.199,-0.447 -0.324,-0.666 -0.065,-0.113 -0.09,-0.26 -0.165,-0.367 -0.027,-0.038 -0.08,-0.058 -0.108,-0.097 -0.084,-0.112 -0.143,-0.236 -0.218,-0.355 -0.163,-0.263 -0.324,-0.516 -0.464,-0.789 -0.091,-0.177 -0.215,-0.369 -0.289,-0.555 -0.076,-0.191 -0.201,-0.406 -0.259,-0.602 -0.064,-0.218 -0.069,-0.424 -0.11,-0.644 -0.026,-0.141 -0.08,-0.232 -0.078,-0.385 10e-4,-0.115 -0.001,-0.229 -0.001,-0.343 0,-0.171 -0.075,-0.624 0.08,-0.693 0.091,-0.04 0.375,0.002 0.471,0.006 0.151,0.005 0.249,0.065 0.393,0.091 0.272,0.048 0.244,-0.077 0.51,0.013 -0.189,0.347 -0.253,0.676 -0.253,1.093 0,0.207 -0.053,0.494 -0.004,0.695 0.017,0.073 0.078,0.09 0.094,0.162 0.026,0.114 0.034,0.232 0.063,0.347 0.044,0.179 0.109,0.33 0.104,0.515 -0.003,0.13 0.045,0.181 0.067,0.275 0.024,0.103 -0.001,0.199 0.015,0.305 0.087,0.603 0.745,1.131 1.086,1.614 0.344,0.49 0.797,0.749 1.242,1.136 0.324,0.281 0.721,0.566 1.104,0.763 0.126,0.064 0.246,0.137 0.374,0.199 0.062,0.029 0.173,0.063 0.227,0.097 0.129,0.081 0.204,0.201 0.345,0.268 0.089,0.042 0.164,0.052 0.257,0.081 0.401,0.127 0.875,0.077 1.273,-0.013 0.063,0.14 -0.032,0.171 -0.053,0.268 C 0.087,-0.757 0.103,-0.682 0.09,-0.6 0.055,-0.376 -0.091,-0.244 0,0"
             style="fill:#000000;fill-opacity:1;fill-rule:nonzero;stroke:none"
             id="path33145" />
        </g>
        <g
           id="g33147"
           transform="translate(325.23,319.519)">
          <path
             d="m 0,0 c -0.095,-0.088 -0.076,-0.16 -0.087,-0.274 -0.01,-0.109 -0.042,-0.172 -0.068,-0.275 -0.058,-0.226 -0.019,-0.49 -0.02,-0.726 -0.001,-0.313 0.031,-0.432 0.154,-0.711 0.112,-0.256 0.231,-0.474 0.373,-0.712 0.384,-0.642 0.465,-1.455 0.916,-2.06 0.389,-0.52 0.807,-1.008 1.245,-1.48 0.581,-0.625 1.39,-0.637 2.07,-1.041 0.312,-0.186 0.58,-0.393 0.919,-0.515 C 5.759,-7.887 6.058,-7.895 6.298,-7.997 6.45,-8.061 6.661,-8.231 6.79,-8.338 6.698,-8.573 6.616,-8.824 6.56,-9.051 6.515,-9.235 6.58,-9.203 6.388,-9.236 6.243,-9.261 6.152,-9.208 6.036,-9.143 c -0.17,0.094 -0.339,0.134 -0.523,0.205 -0.271,0.107 -0.506,0.209 -0.789,0.3 -0.26,0.083 -0.549,0.089 -0.788,0.201 -0.259,0.122 -0.532,0.259 -0.765,0.414 -0.423,0.28 -0.781,0.611 -1.195,0.891 -0.169,0.114 -0.343,0.241 -0.489,0.386 -0.176,0.175 -0.364,0.309 -0.525,0.506 -0.176,0.216 -0.364,0.416 -0.546,0.642 -0.154,0.191 -0.311,0.405 -0.482,0.592 -0.339,0.372 -0.549,0.92 -0.641,1.404 -0.032,0.167 -0.127,0.256 -0.17,0.397 -0.036,0.118 -0.031,0.253 -0.085,0.375 -0.123,0.276 -0.016,0.529 -0.083,0.823 -0.011,0.048 -0.066,0.075 -0.073,0.107 -0.019,0.094 -0.006,0.161 -0.017,0.257 -0.017,0.146 -0.073,0.215 -0.092,0.361 -0.036,0.284 0.011,0.573 0.087,0.818 0.089,0.282 0.002,0.656 0.317,0.73 0.125,0.03 0.297,0.015 0.429,0.009 C -0.242,0.268 -0.057,0.151 0,0"
             style="fill:#000000;fill-opacity:1;fill-rule:nonzero;stroke:none"
             id="path33149" />
        </g>
        <g
           id="g33151"
           transform="translate(334.625,310.982)">
          <path
             d="m 0,0 c 0.224,0.032 0.436,-0.213 0.665,-0.18 0.325,0.048 0.658,0.141 0.969,0.26 0.127,0.049 0.24,0.113 0.378,0.135 0.159,0.025 0.32,-0.017 0.477,0.002 0.316,0.038 0.634,0.103 0.943,0.167 0.415,0.087 0.746,0.189 1.111,0.421 0.188,0.12 0.413,0.169 0.583,0.303 0.206,0.161 0.855,0.68 1.049,0.853 0.181,0.161 0.286,0.277 0.41,0.474 0.018,0.029 0.007,0.077 0.026,0.104 0.029,0.04 0.081,0.079 0.111,0.117 0.075,0.097 0.251,0.218 0.31,0.334 0.191,0.376 0.6,0.687 0.858,1.029 C 8.095,4.292 8.158,4.533 8.338,4.815 8.439,4.974 8.545,5.092 8.705,5.198 8.882,5.315 8.81,5.447 8.904,5.641 8.971,5.779 8.988,5.869 9.091,6.004 9.172,6.112 9.224,6.206 9.274,6.326 9.318,6.432 9.36,6.544 9.391,6.656 9.423,6.776 9.5,6.899 9.524,7.007 9.569,7.212 9.462,7.456 9.515,7.66 9.529,7.714 9.575,7.718 9.586,7.754 9.604,7.816 9.586,7.882 9.603,7.94 9.627,8.021 9.708,8.105 9.688,8.194 9.779,8.051 9.756,7.963 9.774,7.815 9.79,7.685 9.846,7.625 9.865,7.496 9.88,7.392 9.832,7.27 9.858,7.168 9.877,7.095 9.934,7.088 9.952,7.015 9.971,6.944 9.949,6.842 9.948,6.769 9.946,6.514 9.964,6.283 9.884,6.044 9.798,5.789 9.672,5.53 9.543,5.301 9.425,5.09 9.301,4.884 9.179,4.678 9.037,4.439 8.851,4.201 8.726,3.969 8.518,3.577 8.314,3.136 8.055,2.773 7.902,2.559 7.673,2.402 7.465,2.24 7.237,2.062 7.059,1.831 6.88,1.607 6.56,1.208 6.216,0.779 5.789,0.482 5.584,0.341 5.416,0.152 5.212,0.02 4.965,-0.14 4.714,-0.208 4.457,-0.343 4.188,-0.484 3.929,-0.527 3.637,-0.602 3.474,-0.643 3.331,-0.747 3.174,-0.79 3.006,-0.837 2.871,-0.852 2.703,-0.904 2.337,-1.019 1.929,-1.165 1.539,-1.213 1.226,-1.251 0.875,-1.212 0.558,-1.209 0.492,-1.208 0.4,-1.19 0.339,-1.205 0.268,-1.221 0.248,-1.293 0.176,-1.298 0.098,-1.303 -0.168,-1.195 -0.218,-1.132 -0.293,-1.038 -0.267,-0.844 -0.259,-0.725 -0.248,-0.55 -0.137,-0.475 0,0"
             style="fill:#000000;fill-opacity:1;fill-rule:nonzero;stroke:none"
             id="path33153" />
        </g>
      </g>
    </g>
  </g>
</svg>
