<?xml version="1.0" encoding="UTF-8" standalone="no"?>
<!-- Created with Inkscape (http://www.inkscape.org/) -->

<svg
   width="14.626842"
   height="24"
   viewBox="0 0 3.8700185 6.35"
   version="1.1"
   id="svg42534"
   inkscape:version="1.2.1 (9c6d41e4, 2022-07-14)"
   sodipodi:docname="the-doom-of-eztli.svg"
   xmlns:inkscape="http://www.inkscape.org/namespaces/inkscape"
   xmlns:sodipodi="http://sodipodi.sourceforge.net/DTD/sodipodi-0.dtd"
   xmlns="http://www.w3.org/2000/svg"
   xmlns:svg="http://www.w3.org/2000/svg">
  <sodipodi:namedview
     id="namedview42536"
     pagecolor="#505050"
     bordercolor="#eeeeee"
     borderopacity="1"
     inkscape:showpageshadow="0"
     inkscape:pageopacity="0"
     inkscape:pagecheckerboard="0"
     inkscape:deskcolor="#505050"
     inkscape:document-units="mm"
     showgrid="false"
     inkscape:zoom="0.7046647"
     inkscape:cx="149.00704"
     inkscape:cy="264.66488"
     inkscape:window-width="1390"
     inkscape:window-height="941"
     inkscape:window-x="-12"
     inkscape:window-y="25"
     inkscape:window-maximized="0"
     inkscape:current-layer="layer1" />
  <defs
     id="defs42531">
    <clipPath
       clipPathUnits="userSpaceOnUse"
       id="clipPath5827">
      <path
         d="m 279.019,419.052 h 24.699 v 24.699 h -24.699 z"
         id="path5825" />
    </clipPath>
  </defs>
  <g
     inkscape:label="Layer 1"
     inkscape:groupmode="layer"
     id="layer1"
     transform="translate(-65.607711,-78.743292)">
    <g
       id="g5821"
       transform="matrix(0.29009768,0,0,-0.29009768,-16.982377,207.06684)">
      <g
         id="g5823"
         clip-path="url(#clipPath5827)">
        <g
           id="g5829"
           transform="translate(293.404,442.012)">
          <path
             d="M 0,0 C 0.004,-0.015 0.007,-0.031 0.011,-0.046 0.036,-0.047 0.06,-0.056 0.083,-0.068 0.207,-0.084 0.237,-0.099 0,0"
             style="fill:#231f20;fill-opacity:1;fill-rule:nonzero;stroke:none"
             id="path5831" />
        </g>
        <g
           id="g5833"
           transform="translate(297.994,435.269)">
          <path
             d="M 0,0 C -0.106,0.21 -0.219,0.439 -0.345,0.639 -0.435,0.782 -0.485,0.893 -0.53,1.054 -0.576,1.223 -0.687,1.379 -0.759,1.538 -0.82,1.673 -0.88,1.844 -0.97,1.957 -1.027,2.028 -1.067,2.025 -1.105,2.112 -1.126,2.161 -1.125,2.209 -1.152,2.262 -1.217,2.39 -1.322,2.504 -1.411,2.622 -1.468,2.697 -1.489,2.779 -1.54,2.856 -1.596,2.938 -1.683,3.009 -1.745,3.084 -1.88,3.249 -1.96,3.426 -2.071,3.61 -2.211,3.841 -2.396,4.021 -2.555,4.235 -2.896,4.693 -3.259,5.138 -3.603,5.6 c -0.21,0.28 -0.439,0.552 -0.662,0.821 -0.06,0.072 -0.145,0.203 -0.241,0.254 -0.053,0.007 -0.123,0.013 -0.197,0.011 -0.17,-0.004 -0.156,0.031 -0.271,0.159 -0.163,0.182 -0.383,0.172 -0.26,-0.102 0.085,-0.187 0.157,-0.34 0.185,-0.54 0.028,-0.193 0.04,-0.422 0.132,-0.59 0.134,-0.243 0.396,-0.399 0.555,-0.623 0.066,-0.093 0.104,-0.206 0.185,-0.291 0.079,-0.081 0.1,-0.073 0.172,-0.194 0.053,-0.087 0.098,-0.194 0.162,-0.273 0.089,-0.112 0.179,-0.158 0.256,-0.288 0.114,-0.191 0.243,-0.441 0.386,-0.61 0.207,-0.242 0.327,-0.578 0.495,-0.831 0.149,-0.224 0.263,-0.476 0.419,-0.705 0.142,-0.209 0.245,-0.413 0.325,-0.651 0.075,-0.221 0.248,-0.405 0.367,-0.604 0.109,-0.183 0.25,-0.436 0.21,-0.66 -0.029,-0.16 -0.145,-0.17 -0.246,-0.272 -0.096,-0.098 -0.187,-0.194 -0.287,-0.286 -0.094,-0.085 -0.142,-0.194 -0.227,-0.286 -0.094,-0.1 -0.204,-0.183 -0.295,-0.276 -0.148,-0.152 -0.248,-0.359 -0.406,-0.51 -0.102,-0.096 -0.127,-0.19 -0.2,-0.304 -0.039,-0.064 -0.087,-0.117 -0.125,-0.195 -0.056,-0.112 -0.129,-0.199 -0.176,-0.316 -0.048,-0.116 -0.081,-0.244 -0.155,-0.347 -0.316,-0.444 -0.686,-0.844 -1.075,-1.223 -0.179,-0.175 -0.35,-0.415 -0.499,-0.616 -0.138,-0.187 -0.281,-0.46 -0.462,-0.605 -0.103,-0.082 -0.219,-0.092 -0.311,-0.194 -0.063,-0.071 -0.105,-0.16 -0.184,-0.219 -0.05,-0.037 -0.175,-0.043 -0.206,-0.079 -0.037,-0.042 -0.007,-0.163 -0.021,-0.218 -0.078,-0.305 -0.045,-0.648 -0.045,-0.969 v -0.633 c 0,-0.085 0.005,-0.172 10e-4,-0.257 -0.005,-0.091 -0.038,-0.108 -0.053,-0.181 -0.065,-0.321 -0.005,-0.717 -0.005,-1.048 0,-0.171 0,-0.343 0,-0.514 0,-0.219 0.054,-0.419 0.059,-0.633 0.002,-0.085 -0.006,-0.17 -0.002,-0.254 0.004,-0.089 0.04,-0.107 0.053,-0.176 0.027,-0.145 -0.028,-0.31 0.002,-0.454 0.016,-0.076 0.052,-0.116 0.061,-0.197 0.008,-0.076 -0.005,-0.143 0.011,-0.218 0.014,-0.061 0.046,-0.1 0.045,-0.184 -0.002,-0.094 0,-0.189 0,-0.283 0,-0.307 0.036,-0.606 0.054,-0.912 0.023,-0.392 0.145,-0.794 0.114,-1.189 0.074,0.06 0.147,0.235 0.189,0.32 0.084,0.167 0.127,0.352 0.199,0.521 0.032,0.077 0.097,0.133 0.131,0.202 0.05,0.104 0.062,0.223 0.099,0.329 0.024,0.07 0.048,0.139 0.07,0.209 0.054,0.166 0.126,0.21 0.23,0.35 0.14,0.188 0.13,0.443 0.297,0.614 0.115,0.118 0.243,0.193 0.336,0.338 0.139,0.218 0.167,0.477 0.167,0.727 10e-4,0.433 0.058,0.825 0.058,1.257 v 1.579 0.521 c 0,0.147 -0.017,0.305 -0.003,0.452 0.011,0.118 0.056,0.219 0.062,0.34 0.011,0.23 -0.044,0.462 0.054,0.68 0.033,0.073 0.074,0.144 0.109,0.215 0.054,0.111 0.096,0.213 0.164,0.318 0.108,0.168 0.178,0.347 0.301,0.502 0.051,0.064 0.069,0.158 0.125,0.216 0.084,0.088 0.161,0.097 0.207,0.23 0.013,0.036 0.003,0.079 0.021,0.114 0.008,0.016 0.074,0.044 0.091,0.066 0.059,0.08 0.07,0.19 0.111,0.277 0.06,0.131 0.196,0.204 0.28,0.326 0.199,0.291 0.471,0.536 0.65,0.829 0.111,0.181 0.268,0.315 0.402,0.472 0.109,0.128 0.257,0.269 0.344,0.415 0.17,0.286 0.478,0.498 0.681,0.768 C -0.379,-0.697 0.208,-0.413 0,0"
             style="fill:#231f20;fill-opacity:1;fill-rule:nonzero;stroke:none"
             id="path5835" />
        </g>
        <g
           id="g5837"
           transform="translate(291.06,421.087)">
          <path
             d="m 0,0 c 0.001,0.095 0,0.191 0,0.286 0,0.111 0.01,0.224 -0.013,0.33 -0.008,0.039 -0.038,0.072 -0.046,0.126 -0.007,0.056 0.01,0.118 0.003,0.174 -0.015,0.113 -0.06,0.16 -0.058,0.285 0.001,0.13 0.009,0.262 -0.013,0.39 -0.044,0.252 -0.029,0.489 -0.04,0.742 -0.009,0.189 -0.085,0.367 -0.109,0.554 -0.018,0.137 -0.014,0.278 -0.011,0.415 0.006,0.311 -0.109,0.598 -0.116,0.909 -0.006,0.279 -0.012,0.541 -0.042,0.82 -0.022,0.208 0.006,0.413 -0.008,0.619 -0.011,0.161 -0.084,0.311 -0.109,0.469 -0.023,0.149 -0.011,0.299 -0.01,0.449 0.003,0.387 -0.002,0.774 0,1.161 0.002,0.277 -0.055,0.508 -0.275,0.691 -0.061,0.051 -0.121,0.114 -0.179,0.166 -0.096,0.086 -0.168,0.228 -0.286,0.276 -0.099,0.041 -0.081,0.006 -0.185,0.094 -0.093,0.081 -0.182,0.164 -0.281,0.239 -0.075,0.056 -0.12,0.097 -0.177,0.176 -0.139,0.192 -0.197,0.385 -0.399,0.514 -0.189,0.121 -0.313,0.297 -0.503,0.417 -0.398,0.25 -0.717,0.669 -0.979,1.053 -0.056,0.082 -0.115,0.17 -0.165,0.26 -0.065,0.118 -0.087,0.287 -0.174,0.389 -0.089,0.104 -0.156,0.151 -0.226,0.285 -0.088,0.168 -0.19,0.286 -0.283,0.441 -0.079,0.133 -0.153,0.281 -0.223,0.405 0.071,0.038 0.062,0.231 0.09,0.305 0.022,0.058 0.057,0.109 0.073,0.164 0.046,0.157 0.095,0.33 0.156,0.475 0.055,0.129 0.157,0.229 0.216,0.355 0.089,0.189 0.094,0.445 0.154,0.648 0.017,0.058 0.045,0.103 0.08,0.151 0.013,0.017 0.061,0.028 0.069,0.045 0.031,0.066 0.012,0.111 0.051,0.175 0.056,0.091 0.143,0.174 0.201,0.267 0.053,0.085 0.068,0.176 0.1,0.262 0.022,0.056 0.049,0.092 0.073,0.15 0.071,0.163 0.032,0.328 0.131,0.476 0.039,0.059 0.103,0.089 0.13,0.158 0.012,0.031 10e-4,0.113 0.022,0.149 0.021,0.036 0.071,0.065 0.096,0.101 0.066,0.095 0.098,0.219 0.163,0.32 0.127,0.196 0.26,0.372 0.384,0.561 0.118,0.177 0.236,0.369 0.318,0.568 0.024,0.059 0.02,0.112 0.056,0.174 0.034,0.059 0.078,0.109 0.116,0.17 0.089,0.143 0.109,0.319 0.181,0.474 0.051,0.111 0.121,0.187 0.166,0.297 0.03,0.075 0.069,0.208 0.121,0.265 0.072,0.078 0.154,0.081 0.219,0.178 0.044,0.066 0.06,0.129 0.111,0.189 0.093,0.107 0.157,0.192 0.174,0.342 0.013,0.115 0.024,0.311 -0.012,0.419 -0.015,0.003 -0.031,0.006 -0.047,0.01 0.333,0.133 -0.016,0.186 -0.073,0.276 -0.228,-0.089 -0.403,-0.228 -0.556,-0.434 -0.103,-0.139 -0.238,-0.223 -0.342,-0.353 -0.09,-0.112 -0.149,-0.239 -0.271,-0.323 -0.08,-0.054 -0.178,-0.083 -0.26,-0.136 -0.095,-0.063 -0.172,-0.127 -0.27,-0.174 -0.076,-0.035 -0.107,-0.047 -0.172,-0.112 -0.145,-0.143 -0.231,-0.331 -0.343,-0.501 -0.144,-0.218 -0.201,-0.462 -0.313,-0.697 -0.127,-0.266 -0.233,-0.549 -0.37,-0.808 -0.085,-0.16 -0.203,-0.297 -0.289,-0.457 -0.06,-0.114 -0.148,-0.177 -0.219,-0.28 -0.094,-0.138 -0.097,-0.318 -0.181,-0.465 -0.051,-0.09 -0.082,-0.145 -0.115,-0.237 -0.071,-0.205 -0.162,-0.441 -0.298,-0.618 -0.205,-0.266 -0.336,-0.56 -0.432,-0.886 -0.141,-0.476 -0.35,-0.933 -0.484,-1.402 -0.028,-0.097 -0.098,-0.285 -0.032,-0.386 0.041,-0.062 0.107,-0.039 0.149,-0.08 0.018,-0.018 0.008,-0.072 0.024,-0.091 0.333,-0.395 0.701,-0.792 1.004,-1.213 0.118,-0.165 0.274,-0.294 0.4,-0.457 0.099,-0.129 0.167,-0.26 0.255,-0.391 0.03,-0.043 0.084,-0.069 0.116,-0.122 0.028,-0.046 0.073,-0.122 0.088,-0.173 0.017,-0.061 -0.005,-0.111 0.007,-0.169 0.02,-0.102 0.063,-0.16 0.118,-0.247 0.08,-0.125 0.101,-0.223 0.155,-0.341 0.067,-0.145 0.204,-0.3 0.288,-0.445 0.162,-0.277 0.372,-0.558 0.585,-0.798 0.1,-0.112 0.18,-0.245 0.288,-0.35 0.056,-0.053 0.134,-0.092 0.186,-0.148 0.092,-0.1 0.151,-0.226 0.158,-0.361 0.004,-0.093 0,-0.19 -0.002,-0.284 C -2.517,7.187 -2.471,7.099 -2.457,6.977 -2.435,6.786 -2.421,6.475 -2.471,6.289 -2.576,5.9 -2.486,5.497 -2.414,5.102 -2.348,4.735 -2.4,4.317 -2.401,3.945 -2.402,3.86 -2.421,3.751 -2.404,3.669 -2.392,3.611 -2.359,3.57 -2.349,3.516 -2.331,3.416 -2.352,3.313 -2.332,3.214 -2.304,3.201 -2.288,3.179 -2.284,3.148 -2.286,3.107 -2.288,3.067 -2.29,3.027 -2.276,2.976 -2.242,2.964 -2.216,2.919 -2.162,2.825 -2.13,2.739 -2.058,2.658 -1.915,2.496 -1.834,2.305 -1.699,2.128 -1.566,1.954 -1.426,1.809 -1.271,1.658 -1.13,1.522 -1.063,1.334 -0.974,1.159 -0.76,0.741 -0.475,0.369 -0.27,-0.06 -0.203,-0.202 -0.145,-0.447 -0.041,-0.564 0.054,-0.673 0.117,-0.643 0.102,-0.506 0.083,-0.328 -0.002,-0.178 0,0"
             style="fill:#231f20;fill-opacity:1;fill-rule:nonzero;stroke:none"
             id="path5839" />
        </g>
        <g
           id="g5841"
           transform="translate(291.403,433.089)">
          <path
             d="M 0,0 C 0.121,0.279 0.167,0.573 0.3,0.846 0.349,0.947 0.368,1.053 0.411,1.149 0.441,1.215 0.499,1.26 0.53,1.329 0.595,1.474 0.591,1.643 0.683,1.778 0.739,1.86 0.807,1.905 0.856,2 0.926,2.134 0.99,2.266 1.072,2.394 1.161,2.534 1.294,2.647 1.316,2.804 1.341,2.982 1.192,3.161 1.129,3.319 1.039,3.545 0.991,3.779 0.899,4.003 0.794,4.257 0.738,4.551 0.617,4.806 0.576,4.893 0.527,4.931 0.498,5.031 0.464,5.152 0.444,5.265 0.399,5.383 0.364,5.472 0.366,5.645 0.283,5.701 0.284,5.677 0.285,5.653 0.285,5.629 0.234,5.728 0.152,5.89 0.07,6.066 -0.018,6.254 -0.081,6.473 -0.3,6.25 -0.381,6.168 -0.405,6.099 -0.469,6.006 -0.527,5.922 -0.608,5.91 -0.674,5.84 -0.725,5.785 -0.75,5.68 -0.799,5.619 -0.911,5.481 -1.043,5.442 -1.131,5.278 -1.238,5.078 -1.343,4.925 -1.488,4.754 -1.597,4.625 -1.592,4.488 -1.651,4.336 -1.714,4.172 -1.842,4.079 -1.934,3.935 -2.046,3.76 -2.109,3.553 -2.217,3.374 -2.289,3.255 -2.383,3.224 -2.403,3.093 -2.418,2.987 -2.396,2.9 -2.358,2.804 c 0.09,-0.231 0.193,-0.457 0.284,-0.683 0.098,-0.244 0.229,-0.455 0.344,-0.687 0.104,-0.211 0.208,-0.416 0.316,-0.616 0.071,-0.132 0.176,-0.241 0.253,-0.369 0.212,-0.353 0.522,-0.65 0.706,-1.019 0.033,-0.067 0.067,-0.232 0.169,-0.233 0.057,-0.001 0.16,0.179 0.174,0.233 0.018,0.067 -0.004,0.149 0.01,0.219 0.004,0.019 0.041,0.036 0.048,0.066 0.013,0.057 -0.019,0.122 -0.006,0.178 C -0.05,-0.062 -0.018,-0.042 0,0"
             style="fill:#231f20;fill-opacity:1;fill-rule:nonzero;stroke:none"
             id="path5843" />
        </g>
      </g>
    </g>
  </g>
</svg>
