<?xml version="1.0" encoding="UTF-8" standalone="no"?>
<!-- Created with Inkscape (http://www.inkscape.org/) -->

<svg
   width="21.59874"
   height="24"
   viewBox="0 0 5.7146666 6.35"
   version="1.1"
   id="svg43378"
   inkscape:version="1.2.1 (9c6d41e4, 2022-07-14)"
   sodipodi:docname="threads-of-fate.svg"
   xmlns:inkscape="http://www.inkscape.org/namespaces/inkscape"
   xmlns:sodipodi="http://sodipodi.sourceforge.net/DTD/sodipodi-0.dtd"
   xmlns="http://www.w3.org/2000/svg"
   xmlns:svg="http://www.w3.org/2000/svg">
  <sodipodi:namedview
     id="namedview43380"
     pagecolor="#505050"
     bordercolor="#eeeeee"
     borderopacity="1"
     inkscape:showpageshadow="0"
     inkscape:pageopacity="0"
     inkscape:pagecheckerboard="0"
     inkscape:deskcolor="#505050"
     inkscape:document-units="mm"
     showgrid="false"
     inkscape:zoom="0.7046647"
     inkscape:cx="-25.544064"
     inkscape:cy="278.85603"
     inkscape:window-width="1390"
     inkscape:window-height="941"
     inkscape:window-x="0"
     inkscape:window-y="25"
     inkscape:window-maximized="0"
     inkscape:current-layer="layer1" />
  <defs
     id="defs43375">
    <clipPath
       clipPathUnits="userSpaceOnUse"
       id="clipPath9509">
      <path
         d="m 282.631,415.945 h 24.7 v 24.699 h -24.7 z"
         id="path9507" />
    </clipPath>
  </defs>
  <g
     inkscape:label="Layer 1"
     inkscape:groupmode="layer"
     id="layer1"
     transform="translate(-111.85448,-75.095455)">
    <g
       id="g9503"
       transform="matrix(0.33151564,0,0,-0.33151564,16.622632,220.06401)">
      <g
         id="g9505"
         clip-path="url(#clipPath9509)">
        <g
           id="g9511"
           transform="translate(302.762,420.643)">
          <path
             d="M 0,0 C -0.006,0.034 -0.007,0.077 -0.015,0.108 -0.022,0.133 -0.033,0.144 -0.04,0.168 -0.056,0.22 -0.064,0.293 -0.079,0.352 -0.095,0.42 -0.116,0.479 -0.136,0.543 -0.201,0.754 -0.258,0.997 -0.349,1.197 -0.392,1.29 -0.451,1.355 -0.502,1.44 -0.54,1.504 -0.577,1.554 -0.623,1.605 -0.666,1.653 -0.705,1.718 -0.751,1.761 -0.802,1.81 -0.853,1.841 -0.904,1.902 -0.981,1.993 -1.065,2.077 -1.152,2.15 -1.202,2.192 -1.205,2.165 -1.22,2.109 -1.253,1.988 -1.316,1.902 -1.362,1.792 -1.405,1.691 -1.447,1.573 -1.479,1.456 -1.501,1.374 -1.464,1.37 -1.422,1.316 -1.294,1.15 -1.17,1.004 -1.061,0.833 -1.033,0.789 -1.001,0.76 -0.972,0.722 -0.93,0.668 -0.895,0.599 -0.859,0.533 c 0.036,-0.068 0.063,-0.148 0.095,-0.221 0.041,-0.094 0.083,-0.179 0.117,-0.278 0.092,-0.265 0.131,-0.583 0.146,-0.915 0.005,-0.113 0.008,-0.212 -0.015,-0.347 0.063,-0.132 0.155,-0.055 0.249,0.093 0.089,0.141 0.205,0.323 0.271,0.519 0.043,0.125 0.032,0.273 0.026,0.377 C 0.025,-0.148 0.014,-0.08 0,0"
             style="fill:#000000;fill-opacity:1;fill-rule:nonzero;stroke:none"
             id="path9513" />
        </g>
        <g
           id="g9515"
           transform="translate(302.596,424.153)">
          <path
             d="M 0,0 C -0.075,0.045 -0.139,0.084 -0.213,0.114 -0.279,0.14 -0.339,0.153 -0.406,0.177 -0.432,0.186 -0.461,0.197 -0.49,0.212 -0.515,0.224 -0.54,0.238 -0.565,0.253 -0.591,0.261 -0.59,0.27 -0.602,0.252 -0.626,0.213 -0.586,0.119 -0.59,0.066 c -0.007,-0.09 -0.029,-0.177 0.012,-0.298 0.022,-0.068 0.042,-0.131 0.079,-0.204 0.016,-0.032 0.041,-0.069 0.053,-0.099 0.027,-0.009 0.067,-0.04 0.095,-0.058 0.042,-0.025 0.083,-0.055 0.124,-0.079 0.028,-0.018 0.053,-0.024 0.08,-0.04 0.08,-0.047 0.167,-0.141 0.246,-0.199 0.105,-0.076 0.202,-0.151 0.3,-0.242 0.114,-0.106 0.218,-0.227 0.325,-0.333 0.134,-0.088 0.237,-0.252 0.343,-0.388 0.065,-0.083 0.13,-0.155 0.187,-0.248 0.11,-0.177 0.214,-0.354 0.293,-0.557 0.03,-0.078 0.046,-0.147 0.065,-0.233 0.007,-0.033 0,-0.046 0.017,-0.068 0.018,-0.071 0.036,-0.045 0.063,0.005 0.045,0.083 0.093,0.172 0.126,0.278 0.044,0.139 0.059,0.3 0.086,0.455 -0.03,0.237 -0.101,0.332 -0.174,0.466 -0.139,0.253 -0.307,0.49 -0.488,0.724 -0.059,0.076 -0.119,0.155 -0.183,0.227 -0.074,0.081 -0.15,0.143 -0.231,0.211 -0.148,0.127 -0.3,0.281 -0.466,0.387 C 0.244,-0.151 0.125,-0.075 0,0"
             style="fill:#000000;fill-opacity:1;fill-rule:nonzero;stroke:none"
             id="path9517" />
        </g>
        <g
           id="g9519"
           transform="translate(295.114,430.932)">
          <path
             d="m 0,0 c 0.072,-0.03 0.14,-0.069 0.214,-0.098 0.047,-0.018 0.1,-0.035 0.144,-0.061 0.03,-0.017 0.065,-0.033 0.094,-0.052 0.026,-0.016 0.045,-0.037 0.074,-0.052 0.031,-0.016 0.07,-0.03 0.099,-0.05 C 0.666,-0.342 0.711,-0.366 0.754,-0.396 0.846,-0.459 0.931,-0.547 1.012,-0.62 1.245,-0.83 1.395,-1.076 1.506,-1.312 1.538,-1.379 1.562,-1.447 1.585,-1.514 1.669,-1.747 1.396,-2.008 1.761,-2.008 1.396,-2.145 1.479,-2.383 1.418,-2.587 1.382,-2.708 1.334,-2.826 1.301,-2.947 1.28,-3.025 1.233,-3.093 1.209,-3.17 1.194,-3.216 1.188,-3.265 1.176,-3.312 1.162,-3.365 1.162,-3.421 1.152,-3.474 1.14,-3.541 1.109,-3.601 1.106,-3.67 1.103,-3.745 1.101,-3.816 1.09,-3.89 1.083,-3.935 1.077,-3.979 1.076,-4.025 c 0,-0.005 0,-0.011 0,-0.016 0.009,-0.003 0.017,-0.006 0.025,-0.008 0.29,-0.095 0.577,-0.199 0.865,-0.294 0.003,0.057 0.006,0.115 0.017,0.17 0.009,0.05 0.027,0.098 0.037,0.148 0.013,0.06 0.01,0.122 0.021,0.182 0.014,0.078 0.046,0.148 0.045,0.23 0,0.041 -0.003,0.077 0.004,0.117 0.018,0.099 -0.012,0.214 -0.016,0.317 -0.003,0.064 -0.02,0.129 -0.022,0.192 -0.002,0.067 0.007,0.134 0.009,0.2 0.002,0.111 -0.019,0.222 -0.012,0.333 0.01,0.156 0.05,0.307 0.068,0.461 0.02,0.178 -10e-4,0.37 0,0.55 0,0.056 -0.006,0.093 -0.018,0.142 -0.013,0.049 -0.01,0.102 -0.016,0.157 -0.01,0.087 -0.058,0.196 -0.099,0.273 C 1.946,-0.8 1.875,-0.742 1.832,-0.674 1.784,-0.599 1.743,-0.52 1.698,-0.444 1.615,-0.306 1.507,-0.164 1.368,-0.071 1.077,0.124 0.75,0.254 0.456,0.445 0.394,0.486 0.331,0.529 0.266,0.561 0.176,0.607 0.077,0.624 -0.013,0.667 -0.12,0.719 -0.227,0.774 -0.341,0.803 -0.426,0.824 -0.507,0.859 -0.593,0.873 -0.684,0.889 -1.039,1.001 -0.986,0.8 -0.974,0.757 -0.954,0.743 -0.947,0.696 -0.942,0.651 -0.948,0.598 -0.948,0.552 -0.948,0.505 -0.963,0.407 -0.951,0.366 -0.928,0.286 -0.787,0.287 -0.709,0.269 -0.603,0.244 -0.505,0.191 -0.4,0.155 -0.269,0.111 -0.133,0.056 0,0"
             style="fill:#000000;fill-opacity:1;fill-rule:nonzero;stroke:none"
             id="path9521" />
        </g>
        <g
           id="g9523"
           transform="translate(291.816,431.888)">
          <path
             d="m 0,0 c 0.117,-0.046 0.215,-0.066 0.352,-0.063 0.176,0.005 0.322,-0.062 0.49,-0.099 0.045,-0.01 0.091,-0.013 0.137,-0.018 0.038,0.09 0.168,0.361 0.086,0.45 C 1.031,0.308 0.976,0.303 0.932,0.32 0.896,0.334 0.866,0.358 0.833,0.377 0.728,0.436 0.609,0.443 0.496,0.478 0.37,0.518 0.257,0.538 0.138,0.585 0.039,0.625 -0.09,0.676 -0.156,0.77 -0.199,0.832 -0.197,0.911 -0.29,0.863 -0.334,0.84 -0.352,0.786 -0.368,0.745 -0.388,0.697 -0.402,0.646 -0.422,0.593 -0.43,0.574 -0.454,0.532 -0.459,0.515 -0.468,0.48 -0.457,0.448 -0.465,0.414 -0.478,0.358 -0.503,0.342 -0.502,0.273 -0.501,0.178 -0.528,0.148 -0.432,0.131 -0.304,0.108 -0.179,0.077 -0.057,0.024 -0.037,0.015 -0.018,0.007 0,0"
             style="fill:#000000;fill-opacity:1;fill-rule:nonzero;stroke:none"
             id="path9525" />
        </g>
        <g
           id="g9527"
           transform="translate(297.287,425.036)">
          <path
             d="m 0,0 c -0.091,0.115 -0.18,0.231 -0.232,0.352 -0.013,0.03 -0.023,0.062 -0.034,0.094 -0.055,0.008 -0.11,0.019 -0.17,0.029 -0.196,0.034 -0.385,0.07 -0.581,0.122 0.064,-0.113 0.136,-0.225 0.227,-0.335 0.095,-0.114 0.209,-0.224 0.316,-0.334 0.047,-0.048 0.099,-0.094 0.144,-0.142 0.062,-0.067 0.115,-0.135 0.182,-0.2 0.15,-0.144 0.331,-0.277 0.468,-0.423 0.266,-0.223 0.535,-0.419 0.804,-0.62 0.114,-0.085 0.236,-0.156 0.334,-0.257 0.15,-0.076 0.303,-0.181 0.452,-0.26 0.11,-0.059 0.228,-0.1 0.34,-0.141 0.086,-0.032 0.175,-0.057 0.261,-0.056 0.074,10e-4 0.144,-0.022 0.215,-0.042 0.08,0.096 0.122,0.107 0.139,0.154 0.015,0.041 0.022,0.097 0.022,0.142 10e-4,0.036 0.006,0.09 -0.003,0.126 -0.023,0.097 -0.151,0.122 -0.228,0.158 -0.256,0.119 -0.492,0.3 -0.749,0.448 -0.163,0.096 -0.339,0.197 -0.519,0.268 -0.062,0.025 -0.119,0.048 -0.181,0.074 -0.06,0.026 -0.12,0.035 -0.181,0.053 -0.075,0.022 -0.139,0.063 -0.21,0.097 C 0.768,-0.671 0.719,-0.655 0.672,-0.63 0.553,-0.568 0.461,-0.475 0.368,-0.391 0.227,-0.264 0.109,-0.137 0,0"
             style="fill:#000000;fill-opacity:1;fill-rule:nonzero;stroke:none"
             id="path9529" />
        </g>
        <g
           id="g9531"
           transform="translate(291.992,435.555)">
          <path
             d="M 0,0 C -0.017,0.01 -0.033,0.022 -0.045,0.038 -0.06,-0.033 -0.047,-0.092 -0.041,-0.146 -0.028,-0.098 -0.014,-0.049 0,0"
             style="fill:#000000;fill-opacity:1;fill-rule:nonzero;stroke:none"
             id="path9533" />
        </g>
        <g
           id="g9535"
           transform="translate(292.262,435.61)">
          <path
             d="m 0,0 c -0.129,0.071 -0.263,0.137 -0.388,0.213 -0.189,0.113 -0.344,0.198 -0.548,0.275 -0.386,0.144 -0.78,0.269 -1.182,0.366 -0.596,0.144 -1.178,0.351 -1.774,0.49 -0.128,0.03 -0.253,0.111 -0.381,0.127 -0.063,0.008 -0.09,0.006 -0.15,0.034 C -4.47,1.526 -4.494,1.539 -4.548,1.541 -4.702,1.547 -4.844,1.611 -5,1.644 -4.915,1.511 -4.752,1.41 -4.627,1.317 c 0.119,-0.089 0.229,-0.212 0.365,-0.278 0.17,-0.082 0.31,-0.201 0.49,-0.273 0.151,-0.06 0.298,-0.145 0.446,-0.215 0.114,-0.053 0.236,-0.085 0.348,-0.141 0.089,-0.045 0.169,-0.087 0.266,-0.135 0.223,-0.11 0.452,-0.143 0.68,-0.232 0.064,-0.025 0.126,-0.017 0.188,-0.034 0.016,-0.005 0.041,-0.027 0.049,-0.029 0.054,-0.012 0.084,-0.03 0.132,-0.044 0.133,-0.039 0.272,-0.09 0.409,-0.124 0.117,-0.03 0.221,-0.091 0.334,-0.134 0.082,-0.032 0.165,-0.088 0.244,-0.129 0.191,-0.1 0.374,-0.212 0.544,-0.343 C 0.044,-0.93 0.227,-1.088 0.372,-1.275 0.453,-1.379 0.506,-1.501 0.557,-1.622 0.623,-1.783 0.692,-1.938 0.754,-2.103 0.844,-2.344 0.989,-2.642 0.987,-2.902 0.987,-2.985 0.96,-3.064 0.95,-3.145 0.944,-3.198 0.945,-3.251 0.949,-3.304 0.957,-3.399 0.984,-3.491 0.989,-3.587 0.995,-3.73 0.95,-3.872 0.897,-4.003 0.915,-4.005 0.933,-4.008 0.951,-4.01 0.943,-4.032 0.935,-4.056 0.927,-4.078 0.869,-4.239 0.797,-4.394 0.769,-4.563 0.732,-4.646 0.699,-4.722 0.67,-4.805 0.626,-4.93 0.59,-5.057 0.549,-5.18 0.521,-5.262 0.479,-5.333 0.461,-5.419 0.447,-5.483 0.438,-5.547 0.413,-5.606 0.396,-5.644 0.374,-5.679 0.359,-5.717 0.351,-5.739 0.346,-5.762 0.342,-5.786 0.487,-5.854 0.64,-5.904 0.789,-5.976 0.912,-6.035 1.037,-6.109 1.165,-6.16 c 0.059,-0.023 0.121,-0.041 0.181,-0.062 0.072,-0.027 0.138,-0.06 0.209,-0.09 0.072,-0.03 0.145,-0.057 0.219,-0.082 -0.005,0.021 -0.01,0.042 -0.016,0.064 -0.023,0.085 -0.047,0.168 -0.086,0.255 -0.065,0.147 -0.066,0.308 -0.069,0.452 -0.003,0.152 -0.004,0.303 -0.01,0.46 -0.005,0.142 -0.007,0.29 0.004,0.432 0.01,0.119 0.041,0.23 0.042,0.353 10e-4,0.07 0.003,0.14 0.007,0.211 0.005,-0.001 0.011,-0.002 0.016,-0.004 0.007,0.069 0.015,0.139 0.019,0.209 0.004,0.05 0.009,0.101 0.014,0.152 0.022,0.216 0.048,0.472 -0.043,0.675 -0.098,0.222 -0.054,0.438 -0.104,0.669 -0.019,0.088 -0.064,0.162 -0.092,0.247 -0.021,0.064 -0.03,0.13 -0.052,0.195 -0.042,0.123 -0.1,0.277 -0.108,0.406 -0.01,0.166 -0.06,0.313 -0.102,0.471 C 1.132,-0.909 0.997,-0.746 0.816,-0.579 0.712,-0.482 0.585,-0.378 0.46,-0.313 0.334,-0.248 0.24,-0.143 0.123,-0.071 0.083,-0.047 0.042,-0.023 0,0"
             style="fill:#000000;fill-opacity:1;fill-rule:nonzero;stroke:none"
             id="path9537" />
        </g>
        <g
           id="g9539"
           transform="translate(293.405,426.721)">
          <path
             d="m 0,0 c 0.107,-0.079 0.231,-0.149 0.358,-0.214 0.287,-0.146 0.621,-0.238 0.925,-0.362 0.088,-0.036 0.196,-0.069 0.291,-0.088 0.048,-0.01 0.087,-0.014 0.133,-0.03 0.032,-0.012 0.061,-0.023 0.096,-0.032 0.284,-0.072 0.575,-0.128 0.862,-0.187 -0.024,0.05 -0.047,0.1 -0.068,0.15 -0.033,0.079 -0.058,0.158 -0.074,0.237 -0.001,0.004 -0.001,0.009 -0.002,0.013 0.021,-0.076 0.048,-0.152 0.083,-0.228 0.025,-0.054 0.051,-0.107 0.079,-0.161 0.14,-0.031 0.279,-0.062 0.417,-0.094 0.172,-0.001 0.292,-0.03 0.417,-0.043 0.029,-0.003 0.059,-0.005 0.089,-0.006 0.093,-0.001 0.184,-0.002 0.28,-0.012 0.121,-0.049 0.274,-0.064 0.395,-0.116 0.048,-0.02 0.094,-0.045 0.143,-0.065 0.064,-0.025 0.135,-0.036 0.197,-0.063 0.053,-0.023 0.095,-0.048 0.149,-0.069 0.076,-0.028 0.146,-0.064 0.218,-0.097 0.089,-0.039 0.179,-0.067 0.266,-0.112 0.074,-0.037 0.147,-0.076 0.223,-0.111 0.208,-0.097 0.427,-0.19 0.636,-0.275 0.305,-0.123 0.602,-0.252 0.893,-0.372 0.08,-0.033 0.159,-0.07 0.237,-0.102 0.027,-0.01 0.05,-0.01 0.063,-0.037 -0.028,0.146 -0.02,0.201 -0.018,0.225 0.006,0.078 0.002,0.154 -0.02,0.232 C 7.248,-1.948 7.213,-1.89 7.173,-1.825 7.121,-1.74 7.081,-1.656 7.043,-1.568 7.01,-1.492 6.947,-1.443 6.862,-1.403 6.729,-1.34 6.597,-1.282 6.465,-1.211 6.276,-1.111 6.088,-1.004 5.889,-0.912 5.674,-0.815 5.45,-0.737 5.218,-0.666 5.135,-0.641 5.065,-0.599 4.981,-0.575 4.943,-0.564 4.904,-0.557 4.866,-0.546 4.759,-0.515 4.659,-0.471 4.55,-0.444 4.459,-0.422 4.367,-0.408 4.278,-0.383 4.183,-0.356 4.119,-0.329 4.025,-0.324 3.968,-0.321 3.909,-0.3 3.852,-0.285 3.723,-0.251 3.594,-0.216 3.466,-0.176 3.444,-0.169 3.421,-0.161 3.398,-0.154 3.099,-0.057 2.801,0.046 2.499,0.141 2.49,0.144 2.482,0.147 2.473,0.15 2.472,0.13 2.472,0.109 2.471,0.089 2.397,0.114 2.323,0.14 2.246,0.16 2.162,0.182 2.078,0.203 1.994,0.226 1.822,0.275 1.658,0.339 1.491,0.396 1.393,0.429 1.282,0.449 1.198,0.5 1.074,0.575 0.915,0.635 0.863,0.746 0.839,0.798 0.827,0.848 0.813,0.9 0.795,0.971 0.757,1.04 0.745,1.113 0.74,1.144 0.737,1.174 0.733,1.204 0.658,1.214 0.583,1.224 0.508,1.231 0.46,1.235 0.412,1.234 0.364,1.238 0.302,1.243 0.242,1.258 0.18,1.267 0.054,1.285 -0.064,1.284 -0.194,1.343 -0.332,1.328 -0.446,1.367 -0.569,1.39 -0.667,1.408 -0.764,1.427 -0.857,1.454 -0.839,1.359 -0.824,1.264 -0.771,1.173 -0.733,1.109 -0.685,1.047 -0.643,0.984 -0.59,0.906 -0.555,0.822 -0.504,0.743 -0.395,0.577 -0.312,0.409 -0.219,0.241 -0.19,0.189 -0.165,0.128 -0.114,0.082 -0.081,0.053 -0.037,0.027 0,0"
             style="fill:#000000;fill-opacity:1;fill-rule:nonzero;stroke:none"
             id="path9541" />
        </g>
        <g
           id="g9543"
           transform="translate(290.918,429.189)">
          <path
             d="M 0,0 C 0.068,-0.059 0.151,-0.11 0.225,-0.164 0.365,-0.266 0.508,-0.366 0.668,-0.443 0.816,-0.513 0.97,-0.57 1.123,-0.633 1.14,-0.639 1.158,-0.644 1.175,-0.65 1.167,-0.616 1.159,-0.582 1.148,-0.547 1.146,-0.54 1.144,-0.532 1.142,-0.525 1.262,-0.56 1.375,-0.597 1.501,-0.628 1.66,-0.666 1.815,-0.704 1.97,-0.748 c 0.134,-0.037 0.271,-0.063 0.411,-0.095 0.105,-0.024 0.205,-0.053 0.313,-0.074 0.083,-0.016 0.169,-0.028 0.253,-0.044 0.131,-0.025 0.261,-0.053 0.391,-0.081 0.004,0.01 0.011,0.019 0.015,0.028 0.004,-10e-4 0.009,-10e-4 0.013,-0.002 0.073,-0.014 0.147,-0.029 0.22,-0.04 0.092,-0.013 0.174,-0.015 0.268,-0.041 0.214,-0.06 0.42,-0.072 0.636,-0.114 0.092,-0.018 0.183,-0.044 0.273,-0.072 0.027,-0.009 0.055,-0.013 0.079,-0.022 0.04,0.027 0.079,0.098 0.102,0.133 0.037,0.054 0.073,0.098 0.091,0.16 0.012,0.04 0.035,0.076 0.026,0.121 -0.001,0.007 0.006,0.013 0.002,0.021 -0.009,0.016 -0.04,0.044 -0.056,0.059 C 4.94,-0.745 4.824,-0.73 4.731,-0.708 4.513,-0.654 4.298,-0.59 4.086,-0.52 3.955,-0.476 3.823,-0.433 3.693,-0.389 3.694,-0.385 3.695,-0.381 3.695,-0.378 3.563,-0.34 3.433,-0.302 3.308,-0.261 3.185,-0.22 3.072,-0.177 2.944,-0.138 2.836,-0.105 2.724,-0.076 2.619,-0.041 2.394,0.033 2.189,0.127 1.98,0.21 1.725,0.312 1.451,0.4 1.204,0.504 1.185,0.49 1.168,0.475 1.151,0.46 0.938,0.559 0.729,0.647 0.54,0.79 0.446,0.89 0.275,0.987 0.203,1.119 0.113,1.284 0.077,1.461 0.017,1.639 -0.024,1.761 -0.047,1.895 -0.066,2.024 -0.087,2.161 -0.07,2.303 -0.068,2.444 -0.062,2.76 0.022,3.076 0.152,3.373 0.229,3.548 0.343,3.718 0.379,3.908 0.393,3.98 0.401,4.044 0.436,4.11 0.491,4.212 0.567,4.302 0.623,4.406 0.681,4.515 0.75,4.619 0.825,4.719 0.87,4.78 0.898,4.84 0.948,4.897 1.007,4.964 1,4.985 1.002,5.075 1.004,5.252 0.854,5.311 0.717,5.379 0.59,5.442 0.489,5.446 0.404,5.317 0.373,5.271 0.35,5.199 0.325,5.148 0.308,5.115 0.301,5.074 0.288,5.039 0.28,5.015 0.262,4.97 0.257,4.947 0.228,4.83 0.166,4.728 0.12,4.611 0.093,4.545 0.088,4.502 0.077,4.434 0.066,4.365 0.016,4.312 0.007,4.242 -0.003,4.17 -0.006,4.13 -0.042,4.061 -0.122,3.91 -0.203,3.759 -0.276,3.605 -0.319,3.514 -0.357,3.422 -0.397,3.333 -0.456,3.202 -0.498,3.065 -0.558,2.938 -0.624,2.68 -0.697,2.441 -0.743,2.196 -0.794,1.92 -0.806,1.659 -0.786,1.391 -0.775,1.248 -0.763,1.107 -0.746,0.968 -0.654,0.693 -0.468,0.433 -0.245,0.221 -0.167,0.145 -0.083,0.073 0,0"
             style="fill:#000000;fill-opacity:1;fill-rule:nonzero;stroke:none"
             id="path9545" />
        </g>
        <g
           id="g9547"
           transform="translate(300.385,427.28)">
          <path
             d="M 0,0 C -0.066,0.031 -0.134,0.052 -0.203,0.079 -0.345,0.133 -0.485,0.181 -0.634,0.225 -0.815,0.276 -0.994,0.305 -1.18,0.339 -1.267,0.354 -1.354,0.372 -1.441,0.387 -1.515,0.4 -1.583,0.422 -1.656,0.438 -1.805,0.47 -1.942,0.521 -2.089,0.555 -2.282,0.6 -2.501,0.68 -2.694,0.663 -2.795,0.655 -2.846,0.615 -2.891,0.566 -2.919,0.535 -2.961,0.509 -2.967,0.47 -2.972,0.441 -2.966,0.398 -2.948,0.367 -2.925,0.327 -2.871,0.319 -2.829,0.292 -2.828,0.291 -2.826,0.29 -2.825,0.289 -2.85,0.282 -2.867,0.272 -2.849,0.252 c 0.031,-0.034 0.094,-0.037 0.14,-0.051 0.111,-0.034 0.217,-0.089 0.326,-0.127 0.278,-0.096 0.553,-0.188 0.835,-0.282 0.265,-0.05 0.514,-0.141 0.755,-0.238 0.101,-0.04 0.178,-0.1 0.265,-0.156 0.111,-0.07 0.223,-0.148 0.335,-0.211 0.045,-0.055 0.109,-0.092 0.155,-0.142 C 0.067,-1.069 0.061,-1.223 0.273,-1.294 0.201,-1.806 0.587,-2.235 0.654,-2.758 0.666,-2.969 0.657,-3.17 0.629,-3.394 0.572,-3.512 0.564,-3.64 0.514,-3.759 0.441,-3.932 0.318,-4.107 0.285,-4.3 0.258,-4.457 0.108,-4.606 0.003,-4.719 -0.114,-4.844 -0.26,-4.968 -0.308,-5.16 -0.359,-5.364 -0.357,-5.545 -0.37,-5.767 c -0.012,-0.192 0.031,-0.357 0.047,-0.549 0.004,-0.048 0,-0.084 0.008,-0.132 0.011,-0.062 0.038,-0.111 0.04,-0.178 0.002,-0.104 0.024,-0.198 0.011,-0.311 -0.025,-0.221 -0.038,-0.47 -0.151,-0.682 -0.048,-0.091 -0.119,-0.173 -0.177,-0.253 -0.091,-0.126 -0.165,-0.276 -0.258,-0.403 -0.049,-0.067 -0.084,-0.143 -0.131,-0.212 -0.026,-0.038 -0.051,-0.058 -0.075,-0.099 -0.039,-0.065 -0.078,-0.203 -0.121,-0.123 0.083,-0.005 0.129,-0.101 0.178,-0.165 0.034,-0.044 0.094,-0.03 0.126,-0.076 0.021,-0.031 0.044,-0.058 0.063,-0.088 0.018,-0.026 0.029,-0.128 0.073,-0.102 0.018,0.01 0.075,0.107 0.092,0.132 0.036,0.05 0.051,0.071 0.089,0.115 0.095,0.112 0.189,0.222 0.283,0.339 0.081,0.099 0.122,0.203 0.184,0.315 0.145,0.257 0.233,0.595 0.282,0.861 0.053,0.282 0.076,0.548 0.082,0.801 0.004,0.196 -0.016,0.395 -0.008,0.582 0.002,0.037 -0.005,0.076 -0.004,0.116 0.002,0.052 0.007,0.091 0.013,0.14 0.008,0.077 0.013,0.11 0.04,0.185 0.069,0.19 0.161,0.374 0.207,0.565 0.058,0.243 0.145,0.38 0.267,0.596 0.036,0.065 0.064,0.134 0.099,0.199 0.074,0.134 0.157,0.252 0.201,0.401 0.033,0.109 0.087,0.206 0.121,0.312 0.039,0.121 0.072,0.244 0.101,0.365 0.025,0.109 0.053,0.215 0.076,0.321 0.012,0.054 0.015,0.108 0.023,0.161 0.012,0.079 0.034,0.151 0.038,0.23 C 1.452,-2.33 1.447,-2.258 1.438,-2.187 1.432,-1.984 1.407,-1.78 1.377,-1.582 1.352,-1.422 1.3,-1.257 1.298,-1.105 1.255,-0.949 1.097,-0.779 0.955,-0.654 0.83,-0.544 0.712,-0.429 0.567,-0.333 0.437,-0.247 0.311,-0.148 0.162,-0.083 0.105,-0.059 0.056,-0.026 0,0"
             style="fill:#000000;fill-opacity:1;fill-rule:nonzero;stroke:none"
             id="path9549" />
        </g>
        <g
           id="g9551"
           transform="translate(290.494,433.302)">
          <path
             d="m 0,0 c -0.066,-0.084 -0.104,-0.149 -0.152,-0.242 -0.025,-0.046 -0.038,-0.103 -0.062,-0.152 -0.025,-0.05 -0.056,-0.085 -0.072,-0.142 -0.016,-0.057 0.004,-0.094 -0.071,-0.081 -0.023,0.003 -0.08,0.043 -0.105,0.055 -0.063,0.029 -0.128,0.054 -0.191,0.083 -0.223,0.104 -0.397,0.284 -0.579,0.444 -0.113,0.1 -0.229,0.198 -0.335,0.307 -0.136,0.14 -0.285,0.296 -0.389,0.461 -0.064,0.103 -0.077,0.228 -0.136,0.334 -0.067,0.119 -0.079,0.233 -0.126,0.359 -0.022,0.06 -0.063,0.118 -0.081,0.178 -0.034,0.111 -0.081,0.232 -0.09,0.356 -0.005,0.074 0.002,0.124 -0.026,0.187 -0.03,0.067 -0.036,0.096 -0.043,0.17 -0.006,0.056 -0.025,0.105 -0.04,0.16 -0.016,0.058 -0.037,0.119 -0.059,0.169 -0.025,0.058 -0.033,0.104 -0.053,0.162 -0.013,0.04 -0.079,0.091 -0.058,0.136 0.064,-0.033 0.134,-0.016 0.201,-0.03 0.042,-0.008 0.095,-0.036 0.133,-0.062 0.067,-0.047 0.131,-0.128 0.187,-0.188 0.074,-0.079 0.138,-0.183 0.196,-0.274 0.043,-0.069 0.049,-0.15 0.088,-0.218 0.027,-0.046 0.066,-0.084 0.091,-0.133 0.1,-0.195 0.216,-0.382 0.327,-0.571 0.099,-0.167 0.231,-0.304 0.341,-0.462 0.07,-0.099 0.125,-0.207 0.196,-0.304 C -0.863,0.641 -0.814,0.584 -0.761,0.529 -0.683,0.447 -0.598,0.384 -0.502,0.322 -0.381,0.243 -0.229,0.075 -0.078,0.064 -0.076,0.055 -0.074,0.045 0,0"
             style="fill:#000000;fill-opacity:1;fill-rule:nonzero;stroke:none"
             id="path9553" />
        </g>
        <g
           id="g9555"
           transform="translate(292.526,435.868)">
          <path
             d="m 0,0 c 0,0.069 0.009,0.146 0.001,0.215 -0.004,0.035 -0.023,0.054 -0.029,0.078 -0.007,0.033 0.002,0.069 -0.006,0.101 -0.007,0.031 -0.032,0.038 -0.039,0.067 -0.008,0.033 0.004,0.075 0.003,0.109 -0.004,0.073 -0.031,0.163 -0.054,0.232 -0.039,0.121 -0.123,0.228 -0.197,0.324 -0.043,0.056 -0.066,0.125 -0.123,0.172 -0.03,0.024 -0.202,0.13 -0.229,0.124 -0.019,-0.043 0.021,-0.08 0.033,-0.12 0.005,-0.02 -0.002,-0.048 0.001,-0.069 0.004,-0.021 0.025,-0.022 0.03,-0.042 0.022,-0.095 0.003,-0.22 0.003,-0.318 0,-0.096 0.013,-0.203 -0.008,-0.295 C -0.617,0.566 -0.639,0.554 -0.643,0.536 -0.65,0.507 -0.634,0.474 -0.64,0.444 -0.648,0.404 -0.668,0.368 -0.686,0.329 -0.767,0.161 -0.523,0.075 -0.393,0.027 c 0.084,-0.031 0.191,-0.1 0.288,-0.065 C -0.013,-0.005 -0.001,0.131 0,0"
             style="fill:#000000;fill-opacity:1;fill-rule:nonzero;stroke:none"
             id="path9557" />
        </g>
      </g>
    </g>
  </g>
</svg>
