<?xml version="1.0" encoding="UTF-8" standalone="no"?>
<!-- Created with Inkscape (http://www.inkscape.org/) -->

<svg
   width="23.48777"
   height="24"
   viewBox="0 0 6.2144724 6.35"
   version="1.1"
   id="svg44979"
   inkscape:version="1.2.1 (9c6d41e4, 2022-07-14)"
   sodipodi:docname="turn-back-time.svg"
   xmlns:inkscape="http://www.inkscape.org/namespaces/inkscape"
   xmlns:sodipodi="http://sodipodi.sourceforge.net/DTD/sodipodi-0.dtd"
   xmlns="http://www.w3.org/2000/svg"
   xmlns:svg="http://www.w3.org/2000/svg">
  <sodipodi:namedview
     id="namedview44981"
     pagecolor="#505050"
     bordercolor="#eeeeee"
     borderopacity="1"
     inkscape:showpageshadow="0"
     inkscape:pageopacity="0"
     inkscape:pagecheckerboard="0"
     inkscape:deskcolor="#505050"
     inkscape:document-units="mm"
     showgrid="false"
     inkscape:zoom="0.7046647"
     inkscape:cx="134.81589"
     inkscape:cy="251.89285"
     inkscape:window-width="1390"
     inkscape:window-height="941"
     inkscape:window-x="0"
     inkscape:window-y="25"
     inkscape:window-maximized="0"
     inkscape:current-layer="layer1" />
  <defs
     id="defs44976">
    <clipPath
       clipPathUnits="userSpaceOnUse"
       id="clipPath37263">
      <path
         d="m 306.129,420.65 h 24.699 v 24.7 h -24.699 z"
         id="path37261" />
    </clipPath>
  </defs>
  <g
     inkscape:label="Layer 1"
     inkscape:groupmode="layer"
     id="layer1"
     transform="translate(-69.438843,-82.122554)">
    <g
       id="g37257"
       transform="matrix(0.29009768,0,0,-0.29009768,-19.736314,210.90973)">
      <g
         id="g37259"
         clip-path="url(#clipPath37263)">
        <g
           id="g37265"
           transform="translate(320.515,422.389)">
          <path
             d="M 0,0 0.011,0.046 C 0.036,0.047 0.06,0.056 0.083,0.068 0.207,0.084 0.237,0.099 0,0"
             style="fill:#231f20;fill-opacity:1;fill-rule:nonzero;stroke:none"
             id="path37267" />
        </g>
        <g
           id="g37269"
           transform="translate(325.104,429.132)">
          <path
             d="M 0,0 C -0.106,-0.21 -0.219,-0.439 -0.345,-0.638 -0.435,-0.782 -0.485,-0.892 -0.53,-1.054 -0.576,-1.223 -0.687,-1.379 -0.759,-1.538 -0.82,-1.673 -0.88,-1.844 -0.97,-1.957 -1.027,-2.028 -1.067,-2.025 -1.105,-2.112 -1.126,-2.161 -1.125,-2.209 -1.152,-2.262 -1.217,-2.39 -1.322,-2.504 -1.411,-2.622 -1.468,-2.697 -1.489,-2.779 -1.54,-2.856 -1.596,-2.937 -1.683,-3.009 -1.745,-3.084 -1.88,-3.249 -1.96,-3.426 -2.071,-3.61 -2.211,-3.841 -2.396,-4.021 -2.555,-4.235 -2.896,-4.693 -3.259,-5.138 -3.603,-5.6 c -0.21,-0.28 -0.439,-0.552 -0.662,-0.821 -0.06,-0.072 -0.145,-0.203 -0.241,-0.254 -0.053,-0.007 -0.123,-0.013 -0.197,-0.011 -0.17,0.005 -0.156,-0.031 -0.271,-0.159 -0.163,-0.182 -0.383,-0.172 -0.26,0.102 0.085,0.187 0.157,0.34 0.185,0.541 0.028,0.192 0.04,0.421 0.132,0.589 0.134,0.243 0.396,0.399 0.555,0.623 0.066,0.093 0.104,0.206 0.185,0.291 0.079,0.081 0.1,0.073 0.172,0.194 0.053,0.087 0.098,0.194 0.162,0.273 0.089,0.112 0.179,0.158 0.256,0.288 0.114,0.191 0.243,0.441 0.386,0.61 0.207,0.242 0.327,0.578 0.495,0.831 0.149,0.225 0.263,0.476 0.419,0.705 0.142,0.209 0.245,0.414 0.325,0.651 0.075,0.221 0.248,0.405 0.367,0.604 0.109,0.183 0.25,0.436 0.21,0.66 -0.029,0.16 -0.145,0.17 -0.246,0.272 -0.096,0.098 -0.187,0.194 -0.287,0.286 -0.094,0.085 -0.142,0.194 -0.227,0.286 -0.094,0.1 -0.204,0.183 -0.295,0.276 -0.148,0.152 -0.248,0.359 -0.406,0.51 -0.102,0.097 -0.127,0.19 -0.2,0.305 -0.039,0.063 -0.087,0.116 -0.125,0.194 -0.056,0.112 -0.129,0.199 -0.176,0.316 -0.048,0.116 -0.081,0.244 -0.155,0.347 -0.316,0.444 -0.686,0.845 -1.075,1.223 -0.179,0.175 -0.35,0.415 -0.499,0.616 -0.138,0.187 -0.281,0.46 -0.462,0.605 -0.103,0.082 -0.219,0.092 -0.311,0.194 -0.063,0.071 -0.105,0.16 -0.184,0.219 -0.05,0.037 -0.175,0.043 -0.206,0.079 -0.037,0.042 -0.007,0.163 -0.021,0.218 -0.078,0.305 -0.045,0.648 -0.045,0.969 v 0.633 c 0,0.085 0.005,0.172 10e-4,0.257 -0.005,0.092 -0.038,0.108 -0.053,0.181 -0.065,0.321 -0.005,0.717 -0.005,1.048 0,0.172 0,0.343 0,0.515 0,0.218 0.054,0.419 0.059,0.632 0.002,0.085 -0.006,0.17 -0.002,0.254 0.004,0.089 0.04,0.107 0.053,0.176 0.027,0.145 -0.028,0.31 0.002,0.455 0.016,0.075 0.052,0.115 0.061,0.196 0.008,0.076 -0.005,0.143 0.011,0.218 0.014,0.061 0.046,0.1 0.045,0.184 -0.002,0.094 0,0.189 0,0.283 0,0.307 0.036,0.606 0.054,0.912 0.023,0.392 0.145,0.794 0.114,1.19 0.074,-0.061 0.147,-0.236 0.189,-0.321 0.084,-0.167 0.127,-0.352 0.199,-0.521 0.032,-0.077 0.097,-0.133 0.131,-0.202 0.05,-0.104 0.062,-0.222 0.099,-0.329 0.024,-0.07 0.048,-0.139 0.07,-0.209 0.054,-0.166 0.126,-0.21 0.23,-0.35 0.14,-0.188 0.13,-0.443 0.297,-0.614 0.115,-0.118 0.243,-0.193 0.336,-0.338 0.139,-0.218 0.167,-0.477 0.167,-0.727 10e-4,-0.433 0.058,-0.825 0.058,-1.256 V 7.719 7.198 c 0,-0.147 -0.017,-0.305 -0.003,-0.451 0.011,-0.118 0.056,-0.22 0.062,-0.341 0.011,-0.23 -0.044,-0.462 0.054,-0.679 0.033,-0.073 0.074,-0.144 0.109,-0.216 0.054,-0.111 0.096,-0.213 0.164,-0.318 0.108,-0.168 0.178,-0.347 0.301,-0.502 0.051,-0.064 0.069,-0.158 0.125,-0.216 0.084,-0.088 0.161,-0.097 0.207,-0.23 0.013,-0.036 0.003,-0.079 0.021,-0.114 0.008,-0.016 0.074,-0.044 0.091,-0.066 0.059,-0.08 0.07,-0.189 0.111,-0.277 0.06,-0.131 0.196,-0.204 0.28,-0.326 0.199,-0.291 0.471,-0.536 0.65,-0.829 0.111,-0.18 0.268,-0.314 0.402,-0.471 0.109,-0.129 0.257,-0.27 0.344,-0.416 C -1.101,1.46 -0.793,1.248 -0.59,0.978 -0.379,0.697 0.208,0.413 0,0"
             style="fill:#231f20;fill-opacity:1;fill-rule:nonzero;stroke:none"
             id="path37271" />
        </g>
        <g
           id="g37273"
           transform="translate(318.171,443.314)">
          <path
             d="m 0,0 c 0.001,-0.095 0,-0.191 0,-0.286 0,-0.11 0.01,-0.224 -0.013,-0.33 -0.008,-0.039 -0.038,-0.071 -0.046,-0.126 -0.007,-0.056 0.01,-0.117 0.003,-0.174 -0.015,-0.113 -0.06,-0.16 -0.058,-0.285 0.001,-0.13 0.009,-0.262 -0.013,-0.39 -0.044,-0.252 -0.029,-0.489 -0.04,-0.742 -0.009,-0.189 -0.085,-0.367 -0.109,-0.554 -0.018,-0.137 -0.014,-0.278 -0.011,-0.415 0.006,-0.31 -0.109,-0.598 -0.116,-0.909 -0.006,-0.279 -0.012,-0.541 -0.042,-0.82 -0.022,-0.208 0.006,-0.413 -0.008,-0.619 -0.011,-0.161 -0.084,-0.31 -0.109,-0.469 -0.023,-0.149 -0.011,-0.299 -0.01,-0.449 0.003,-0.387 -0.002,-0.774 0,-1.161 0.002,-0.277 -0.055,-0.508 -0.275,-0.691 -0.061,-0.051 -0.121,-0.113 -0.179,-0.166 -0.096,-0.086 -0.168,-0.227 -0.286,-0.276 -0.099,-0.041 -0.081,-0.006 -0.185,-0.094 -0.093,-0.08 -0.182,-0.164 -0.281,-0.239 -0.075,-0.056 -0.12,-0.097 -0.177,-0.176 -0.139,-0.192 -0.197,-0.385 -0.399,-0.514 -0.189,-0.121 -0.313,-0.297 -0.503,-0.417 -0.398,-0.25 -0.717,-0.669 -0.979,-1.053 -0.056,-0.082 -0.115,-0.169 -0.165,-0.26 -0.065,-0.118 -0.087,-0.287 -0.174,-0.389 -0.089,-0.103 -0.156,-0.151 -0.226,-0.285 -0.088,-0.168 -0.19,-0.286 -0.283,-0.441 -0.079,-0.133 -0.153,-0.281 -0.223,-0.405 0.071,-0.038 0.062,-0.23 0.09,-0.305 0.022,-0.058 0.057,-0.109 0.073,-0.164 0.046,-0.157 0.095,-0.33 0.156,-0.475 0.055,-0.129 0.157,-0.229 0.216,-0.355 0.089,-0.189 0.094,-0.445 0.154,-0.648 0.017,-0.058 0.045,-0.103 0.08,-0.15 0.013,-0.018 0.061,-0.029 0.069,-0.046 0.031,-0.066 0.012,-0.111 0.051,-0.174 0.056,-0.092 0.143,-0.175 0.201,-0.268 0.053,-0.085 0.068,-0.176 0.1,-0.262 0.022,-0.056 0.049,-0.092 0.073,-0.149 0.071,-0.164 0.032,-0.329 0.131,-0.477 0.039,-0.059 0.103,-0.089 0.13,-0.158 0.012,-0.031 10e-4,-0.113 0.022,-0.149 0.021,-0.036 0.071,-0.065 0.096,-0.101 0.066,-0.095 0.098,-0.219 0.163,-0.32 0.127,-0.196 0.26,-0.372 0.384,-0.561 0.118,-0.177 0.236,-0.369 0.318,-0.568 0.024,-0.059 0.02,-0.112 0.056,-0.174 0.034,-0.059 0.078,-0.109 0.116,-0.17 0.089,-0.143 0.109,-0.319 0.181,-0.474 0.051,-0.111 0.121,-0.186 0.166,-0.297 0.03,-0.075 0.069,-0.208 0.121,-0.265 0.072,-0.078 0.154,-0.081 0.219,-0.178 0.044,-0.066 0.06,-0.129 0.111,-0.189 0.093,-0.107 0.157,-0.192 0.174,-0.342 0.013,-0.115 0.024,-0.311 -0.012,-0.419 -0.015,-0.003 -0.031,-0.006 -0.047,-0.01 0.333,-0.133 -0.016,-0.186 -0.073,-0.276 -0.228,0.089 -0.403,0.228 -0.556,0.434 -0.103,0.139 -0.238,0.223 -0.342,0.353 -0.09,0.112 -0.149,0.239 -0.271,0.323 -0.08,0.054 -0.178,0.083 -0.26,0.137 -0.095,0.062 -0.172,0.127 -0.27,0.173 -0.076,0.036 -0.107,0.047 -0.172,0.112 -0.145,0.143 -0.231,0.331 -0.343,0.501 -0.144,0.218 -0.201,0.462 -0.313,0.697 -0.127,0.266 -0.233,0.549 -0.37,0.808 -0.085,0.16 -0.203,0.297 -0.289,0.458 -0.06,0.113 -0.148,0.176 -0.219,0.28 -0.094,0.137 -0.097,0.317 -0.181,0.464 -0.051,0.09 -0.082,0.145 -0.115,0.237 -0.071,0.205 -0.162,0.441 -0.298,0.618 -0.205,0.266 -0.336,0.561 -0.432,0.886 -0.141,0.476 -0.35,0.933 -0.484,1.402 -0.028,0.097 -0.098,0.285 -0.032,0.386 0.041,0.062 0.107,0.039 0.149,0.08 0.018,0.018 0.008,0.072 0.024,0.091 0.333,0.395 0.701,0.792 1.004,1.213 0.118,0.165 0.274,0.294 0.4,0.457 0.099,0.129 0.167,0.26 0.255,0.391 0.03,0.044 0.084,0.069 0.116,0.123 0.028,0.045 0.073,0.121 0.088,0.172 0.017,0.061 -0.005,0.111 0.007,0.169 0.02,0.102 0.063,0.16 0.118,0.247 0.08,0.125 0.101,0.223 0.155,0.341 0.067,0.145 0.204,0.3 0.288,0.445 0.162,0.278 0.372,0.558 0.585,0.798 0.1,0.112 0.18,0.245 0.288,0.35 0.056,0.053 0.134,0.092 0.186,0.148 0.092,0.101 0.151,0.226 0.158,0.361 0.004,0.094 0,0.191 -0.002,0.284 -10e-4,0.133 0.045,0.221 0.059,0.343 0.022,0.191 0.036,0.502 -0.014,0.688 -0.105,0.389 -0.015,0.793 0.057,1.187 0.066,0.367 0.014,0.785 0.013,1.157 -0.001,0.085 -0.02,0.194 -0.003,0.276 0.012,0.058 0.045,0.099 0.055,0.153 0.018,0.1 -0.003,0.203 0.017,0.302 0.028,0.013 0.044,0.035 0.048,0.066 -0.002,0.041 -0.004,0.081 -0.006,0.121 0.014,0.052 0.048,0.063 0.074,0.108 0.054,0.094 0.086,0.18 0.158,0.261 0.143,0.162 0.224,0.353 0.359,0.53 0.133,0.174 0.273,0.319 0.428,0.47 0.141,0.137 0.208,0.324 0.297,0.499 0.214,0.418 0.499,0.79 0.704,1.219 0.067,0.142 0.125,0.387 0.229,0.504 C 0.054,0.673 0.117,0.643 0.102,0.506 0.083,0.328 -0.002,0.178 0,0"
             style="fill:#231f20;fill-opacity:1;fill-rule:nonzero;stroke:none"
             id="path37275" />
        </g>
        <g
           id="g37277"
           transform="translate(318.514,431.312)">
          <path
             d="M 0,0 C 0.121,-0.279 0.167,-0.573 0.3,-0.846 0.349,-0.947 0.368,-1.053 0.411,-1.149 0.441,-1.215 0.499,-1.26 0.53,-1.329 0.595,-1.474 0.591,-1.643 0.683,-1.778 0.739,-1.861 0.807,-1.905 0.856,-2 0.926,-2.134 0.99,-2.266 1.072,-2.394 1.161,-2.534 1.294,-2.647 1.316,-2.804 1.341,-2.982 1.192,-3.161 1.129,-3.319 1.039,-3.545 0.991,-3.779 0.899,-4.003 0.794,-4.257 0.738,-4.551 0.617,-4.806 0.576,-4.893 0.527,-4.931 0.498,-5.031 0.464,-5.152 0.444,-5.265 0.399,-5.383 0.364,-5.472 0.366,-5.645 0.283,-5.701 0.284,-5.677 0.285,-5.653 0.285,-5.629 0.234,-5.728 0.152,-5.89 0.07,-6.066 -0.018,-6.254 -0.081,-6.473 -0.3,-6.25 c -0.081,0.082 -0.105,0.151 -0.169,0.244 -0.058,0.084 -0.139,0.096 -0.205,0.166 -0.051,0.055 -0.076,0.16 -0.125,0.221 -0.112,0.138 -0.244,0.177 -0.332,0.341 -0.107,0.2 -0.212,0.353 -0.357,0.524 -0.109,0.129 -0.104,0.266 -0.163,0.418 -0.063,0.164 -0.191,0.257 -0.283,0.401 -0.112,0.175 -0.175,0.382 -0.283,0.561 -0.072,0.119 -0.166,0.15 -0.186,0.281 -0.015,0.106 0.007,0.193 0.045,0.289 0.09,0.231 0.193,0.457 0.284,0.683 0.098,0.244 0.229,0.455 0.344,0.687 0.104,0.211 0.208,0.416 0.316,0.616 0.071,0.132 0.176,0.241 0.253,0.369 0.212,0.353 0.522,0.65 0.706,1.019 0.033,0.067 0.067,0.232 0.169,0.233 0.057,0.001 0.16,-0.179 0.174,-0.233 0.018,-0.067 -0.004,-0.149 0.01,-0.218 0.004,-0.02 0.041,-0.037 0.048,-0.067 C -0.041,0.228 -0.073,0.163 -0.06,0.107 -0.05,0.062 -0.018,0.042 0,0"
             style="fill:#231f20;fill-opacity:1;fill-rule:nonzero;stroke:none"
             id="path37279" />
        </g>
        <g
           id="g37281"
           transform="translate(314.905,439.032)">
          <path
             d="m 0,0 c -0.03,0.04 -0.217,0.07 -0.261,0.079 -0.152,0.03 -0.31,0.066 -0.465,0.065 -0.17,-0.002 -0.34,-0.002 -0.509,-0.001 -0.095,0 -0.194,0.002 -0.282,-0.028 -0.079,-0.027 -0.128,-0.099 -0.218,-0.123 -0.208,-0.057 -0.434,-0.031 -0.647,-0.056 -0.141,-0.017 -0.284,-0.044 -0.424,-0.07 -0.085,-0.017 -0.157,-0.024 -0.234,-0.065 -0.071,-0.039 -0.143,-0.081 -0.217,-0.113 -0.154,-0.067 -0.372,-0.081 -0.541,-0.09 -0.194,-0.009 -0.397,-0.006 -0.589,0.016 -0.112,0.012 -0.227,0.012 -0.337,0.041 -0.107,0.028 -0.206,0.065 -0.316,0.082 -0.169,0.026 -0.348,0.059 -0.519,0.064 -0.206,0.006 -0.412,-0.002 -0.618,0 -0.156,0.001 -0.306,-0.04 -0.459,-0.062 -0.181,-0.025 -0.364,-0.036 -0.548,-0.053 -0.064,-0.007 -0.277,-0.077 -0.324,0.001 0.096,-0.006 0.192,0.003 0.289,-0.006 0.259,-0.023 0.543,-0.088 0.774,-0.209 0.172,-0.09 0.328,-0.196 0.513,-0.259 0.085,-0.029 0.17,-0.059 0.259,-0.069 0.103,-0.013 0.211,-0.002 0.315,-0.001 0.235,0.001 0.43,-0.029 0.655,-0.079 0.162,-0.036 0.312,-0.094 0.474,-0.128 0.157,-0.033 0.3,-0.106 0.462,-0.132 0.155,-0.024 0.365,-0.024 0.521,0 0.094,0.014 0.185,0.054 0.276,0.081 0.133,0.038 0.267,0.069 0.4,0.109 0.291,0.088 0.596,0.093 0.899,0.092 0.312,-0.002 0.647,0.046 0.94,-0.078 0.097,-0.041 0.19,-0.093 0.291,-0.126 0.07,-0.022 0.143,-0.028 0.214,-0.047 0.079,-0.021 0.16,-0.08 0.192,0.026 0.038,0.132 0.005,0.31 0.005,0.444 v 0.394 c 0,0.062 -0.022,0.184 0.005,0.24 C -0.016,-0.06 -0.008,-0.059 0,0"
             style="fill:#231f20;fill-opacity:1;fill-rule:nonzero;stroke:none"
             id="path37283" />
        </g>
        <g
           id="g37285"
           transform="translate(321.537,439.032)">
          <path
             d="m 0,0 c -0.002,-0.194 0.076,-0.375 0.099,-0.569 0.016,-0.136 0.016,-0.27 0.016,-0.406 -0.001,-0.085 -0.022,-0.198 -0.001,-0.28 0.01,-0.039 -0.011,-0.039 0.027,-0.062 0.014,-0.009 0.086,10e-4 0.098,10e-4 0.072,0 0.12,0.01 0.189,0.023 0.067,0.014 0.134,10e-4 0.201,0.012 0.073,0.013 0.144,0.037 0.218,0.046 0.107,0.013 0.215,-0.002 0.322,0.012 0.178,0.024 0.352,0.008 0.531,0.024 0.111,0.009 0.219,0.043 0.33,0.056 0.12,0.015 0.239,0.03 0.358,0.05 0.214,0.035 0.427,0.065 0.644,0.065 0.406,0 0.801,-0.152 1.205,-0.143 0.178,0.004 0.349,-0.047 0.525,-0.072 0.208,-0.03 0.421,-0.074 0.632,-0.072 0.629,0.008 1.259,0 1.888,0 -0.323,0.004 -0.596,0.152 -0.877,0.299 -0.157,0.082 -0.317,0.139 -0.46,0.244 -0.135,0.1 -0.284,0.156 -0.426,0.244 -0.145,0.091 -0.306,0.142 -0.472,0.185 -0.18,0.046 -0.349,0.102 -0.521,0.171 C 4.2,-0.042 3.874,0.079 3.531,0.15 3.394,0.178 3.259,0.172 3.119,0.172 2.904,0.172 2.69,0.182 2.478,0.149 2.312,0.124 2.134,0.143 1.967,0.143 1.759,0.143 1.552,0.142 1.345,0.144 1.107,0.145 0.902,0.08 0.673,0.035 0.469,-0.005 0.236,0.029 0,0"
             style="fill:#231f20;fill-opacity:1;fill-rule:nonzero;stroke:none"
             id="path37287" />
        </g>
        <g
           id="g37289"
           transform="translate(314.705,436.831)">
          <path
             d="m 0,0 v -0.685 c 0,-0.12 -0.001,-0.24 0,-0.36 0,-0.071 0.001,-0.142 -0.035,-0.206 -0.038,-0.068 -0.123,-0.115 -0.182,-0.164 -0.096,-0.082 -0.224,-0.12 -0.327,-0.192 -0.068,-0.048 -0.147,-0.098 -0.211,-0.151 -0.084,-0.069 -0.15,-0.16 -0.232,-0.231 -0.065,-0.056 -0.163,-0.134 -0.241,-0.168 -0.059,-0.026 -0.125,-0.016 -0.189,-0.016 -0.142,10e-4 -0.284,0 -0.425,0 -0.357,0 -0.714,0.003 -1.07,0 -0.149,-10e-4 -0.254,0.034 -0.391,0.08 -0.114,0.038 -0.24,0.071 -0.342,0.134 -0.128,0.078 -0.24,0.083 -0.386,0.107 -0.09,0.015 -0.176,0.042 -0.269,0.049 -0.15,0.01 -0.295,0.009 -0.445,0.03 -0.226,0.033 -0.452,0.071 -0.677,0.107 -0.1,0.016 -0.193,0.057 -0.293,0.073 -0.105,0.017 -0.193,0.026 -0.289,0.071 -0.15,0.069 -0.314,0.113 -0.471,0.164 -0.118,0.039 -0.301,0.084 -0.355,0.209 0.153,0.037 0.353,0.005 0.508,0.005 h 0.599 c 0.451,0 0.902,10e-4 1.353,10e-4 0.306,-10e-4 0.617,0.012 0.909,0.113 0.17,0.059 0.347,0.087 0.517,0.144 0.147,0.049 0.301,0.088 0.45,0.129 0.153,0.043 0.322,0.053 0.48,0.079 0.18,0.029 0.361,0.021 0.543,0.021 0.101,-0.001 0.181,-0.011 0.27,0.035 0.088,0.046 0.165,0.113 0.256,0.149 0.108,0.043 0.208,0.1 0.318,0.138 0.098,0.035 0.195,0.057 0.294,0.09 0.024,0.008 0.054,0.007 0.076,0.015 0.042,0.014 0.055,0.041 0.106,0.053 0.062,0.014 0.091,0.012 0.152,0.034 C 0.039,-0.129 0.07,-0.105 0,0"
             style="fill:#231f20;fill-opacity:1;fill-rule:nonzero;stroke:none"
             id="path37291" />
        </g>
        <g
           id="g37293"
           transform="translate(321.851,436.345)">
          <path
             d="m 0,0 c 0.014,-0.107 0.038,-0.201 0.03,-0.312 -0.01,-0.152 -0.038,-0.31 -0.066,-0.461 -0.011,-0.059 -0.033,-0.118 -0.043,-0.177 -0.011,-0.063 -0.002,-0.124 -0.013,-0.186 -0.015,-0.086 -0.03,-0.161 0.041,-0.229 0.037,-0.034 0.063,-0.032 0.112,-0.042 0.097,-0.02 0.193,-0.05 0.289,-0.073 0.11,-0.026 0.214,-0.027 0.325,-0.034 0.075,-0.005 0.141,-0.029 0.217,-0.03 0.255,-0.004 0.51,0.002 0.765,0 0.086,-10e-4 0.163,0.012 0.248,0.022 0.127,0.016 0.256,0.007 0.383,0.007 0.238,0 0.478,-0.001 0.717,0 0.181,0.002 0.357,-0.008 0.536,-0.037 0.111,-0.017 0.218,-0.014 0.328,-0.027 0.147,-0.016 0.294,-0.027 0.441,-0.044 0.136,-0.016 0.272,-0.001 0.409,-0.005 0.089,-0.003 0.173,-0.026 0.261,-0.031 0.073,-0.004 0.147,0.001 0.219,0.001 0.098,0 0.197,0.005 0.291,0.028 0.077,0.018 0.12,0.054 0.198,0.057 0.107,0.004 0.243,0.032 0.345,0.064 -0.01,0.047 -0.117,0.064 -0.161,0.08 -0.13,0.045 -0.272,0.059 -0.407,0.085 -0.157,0.03 -0.3,0.086 -0.453,0.128 -0.131,0.035 -0.264,0.091 -0.37,0.177 -0.075,0.061 -0.158,0.113 -0.23,0.177 -0.099,0.087 -0.17,0.183 -0.284,0.252 -0.097,0.058 -0.194,0.089 -0.302,0.123 -0.078,0.025 -0.159,0.052 -0.24,0.07 -0.093,0.02 -0.185,0.021 -0.277,0.05 C 3.127,-0.308 2.964,-0.25 2.771,-0.229 2.61,-0.211 2.451,-0.164 2.292,-0.137 2.125,-0.108 1.973,-0.029 1.805,-0.002 1.678,0.018 1.558,0.057 1.432,0.079 0.967,0.158 0.471,0.114 0,0"
             style="fill:#231f20;fill-opacity:1;fill-rule:nonzero;stroke:none"
             id="path37295" />
        </g>
        <g
           id="g37297"
           transform="translate(322.909,433.2)">
          <path
             d="M 0,0 C 0.039,-0.012 0.064,-0.047 0.098,-0.068 0.16,-0.105 0.225,-0.129 0.286,-0.171 0.462,-0.292 0.621,-0.409 0.7,-0.616 0.732,-0.7 0.779,-0.892 0.886,-0.917 c 0.04,-0.009 0.104,0 0.144,0.005 0.119,0.015 0.224,0.026 0.347,0.026 0.3,-0.001 0.6,-0.002 0.9,0 0.114,0.001 0.213,-0.02 0.324,-0.03 0.084,-0.008 0.174,0.002 0.259,0.001 0.099,0 0.187,0.006 0.284,0.028 0.107,0.024 0.192,0.077 0.294,0.117 0.082,0.032 0.169,0.042 0.255,0.062 0.069,0.016 0.138,0.035 0.207,0.051 0.034,0.008 0.071,0.009 0.095,0.035 C 3.949,-0.578 3.878,-0.575 3.821,-0.561 3.654,-0.519 3.49,-0.465 3.323,-0.422 2.987,-0.335 2.66,-0.251 2.345,-0.106 2.046,0.032 1.718,0.046 1.402,0.114 1.118,0.176 0.828,0.194 0.542,0.231 0.421,0.247 0.308,0.293 0.188,0.316 0.07,0.338 -0.056,0.336 -0.173,0.364 -0.244,0.382 -0.358,0.443 -0.297,0.317 -0.24,0.2 -0.094,0.073 0.029,0.035 0.095,0.015 0.138,-0.037 0,0"
             style="fill:#231f20;fill-opacity:1;fill-rule:nonzero;stroke:none"
             id="path37299" />
        </g>
        <g
           id="g37301"
           transform="translate(313.161,433.6)">
          <path
             d="m 0,0 c 0,-0.159 -0.056,-0.268 -0.131,-0.411 -0.059,-0.113 -0.108,-0.233 -0.159,-0.347 -0.037,-0.081 -0.087,-0.157 -0.124,-0.239 -0.027,-0.061 -0.075,-0.179 -0.13,-0.219 -0.028,-0.021 -0.061,-0.014 -0.098,-0.013 -0.131,0.001 -0.263,-0.007 -0.394,-0.002 -0.194,0.008 -0.429,0.02 -0.611,0.098 -0.26,0.113 -0.501,0.286 -0.79,0.328 -0.32,0.046 -0.648,0.067 -0.971,0.088 -0.13,0.008 -0.262,0.002 -0.392,0.002 -0.091,0 -0.182,0 -0.272,-0.001 -0.062,-0.001 -0.155,-0.014 -0.207,0.029 0.035,0.099 0.331,0.11 0.397,0.115 0.248,0.02 0.478,0.118 0.718,0.174 0.092,0.021 0.185,0.027 0.278,0.042 0.117,0.019 0.228,0.059 0.342,0.093 0.227,0.067 0.486,0.097 0.722,0.121 0.198,0.021 0.396,0.029 0.593,0.056 0.17,0.023 0.34,0.021 0.508,0.05 C -0.601,-0.016 -0.493,0 -0.371,0 -0.243,-0.001 -0.126,-0.019 0,0"
             style="fill:#231f20;fill-opacity:1;fill-rule:nonzero;stroke:none"
             id="path37303" />
        </g>
      </g>
    </g>
  </g>
</svg>
