<?xml version="1.0" encoding="UTF-8" standalone="no"?>
<!-- Created with Inkscape (http://www.inkscape.org/) -->

<svg
   width="31.369698"
   height="24"
   viewBox="0 0 8.2998993 6.3499999"
   version="1.1"
   id="svg18317"
   inkscape:version="1.2.1 (9c6d41e4, 2022-07-14)"
   sodipodi:docname="survivor.svg"
   xmlns:inkscape="http://www.inkscape.org/namespaces/inkscape"
   xmlns:sodipodi="http://sodipodi.sourceforge.net/DTD/sodipodi-0.dtd"
   xmlns="http://www.w3.org/2000/svg"
   xmlns:svg="http://www.w3.org/2000/svg">
  <sodipodi:namedview
     id="namedview18319"
     pagecolor="#505050"
     bordercolor="#eeeeee"
     borderopacity="1"
     inkscape:showpageshadow="0"
     inkscape:pageopacity="0"
     inkscape:pagecheckerboard="0"
     inkscape:deskcolor="#505050"
     inkscape:document-units="mm"
     showgrid="false"
     inkscape:zoom="0.70199214"
     inkscape:cx="-44.160039"
     inkscape:cy="55.556178"
     inkscape:window-width="1390"
     inkscape:window-height="938"
     inkscape:window-x="0"
     inkscape:window-y="25"
     inkscape:window-maximized="0"
     inkscape:current-layer="layer1" />
  <defs
     id="defs18314" />
  <g
     inkscape:label="Layer 1"
     inkscape:groupmode="layer"
     id="layer1"
     transform="translate(-116.94144,-133.94412)">
    <g
       fill="#231f20"
       fill-opacity="1"
       id="g10510"
       transform="matrix(0.8210101,0,0,0.8210101,-175.91984,-15.463908)">
      <g
         id="use10508"
         transform="translate(356.271,188.26199)">
        <path
           d="m 10.546875,-5 c -0.03125,0.199219 -0.09375,0.371094 -0.1875,0.515625 -0.09375,0.136719 -0.195313,0.257813 -0.296875,0.359375 -0.125,0.105469 -0.261719,0.199219 -0.40625,0.28125 0.050781,0 0.097656,0.00781 0.140625,0.015625 0.050781,0.011719 0.09375,0.023437 0.125,0.03125 C 9.960938,-3.773438 10,-3.757812 10.03125,-3.75 c -0.085938,0.125 -0.171875,0.226562 -0.265625,0.296875 -0.085937,0.0625 -0.167969,0.105469 -0.25,0.125 -0.09375,0.03125 -0.1875,0.046875 -0.28125,0.046875 0.050781,0.03125 0.097656,0.070312 0.140625,0.109375 0.050781,0.042969 0.09375,0.089844 0.125,0.140625 0.03125,0.054688 0.0625,0.109375 0.09375,0.171875 -0.054688,0.011719 -0.121094,0.023437 -0.203125,0.03125 -0.074219,0 -0.148437,0 -0.21875,0 -0.09375,0 -0.1875,-0.00781 -0.28125,-0.03125 0.050781,0.023437 0.09375,0.046875 0.125,0.078125 0.03125,0.023438 0.054687,0.046875 0.078125,0.078125 0.019531,0.023437 0.035156,0.046875 0.046875,0.078125 -0.0625,0.0625 -0.136719,0.109375 -0.21875,0.140625 -0.074219,0.03125 -0.148437,0.054687 -0.21875,0.0625 -0.09375,0.023437 -0.1875,0.03125 -0.28125,0.03125 0.039063,0.042969 0.070313,0.085937 0.09375,0.125 0.019531,0.03125 0.035156,0.0625 0.046875,0.09375 0.019531,0.042969 0.023438,0.078125 0.015625,0.109375 -0.085937,0.011719 -0.15625,0.015625 -0.21875,0.015625 -0.0625,0 -0.117187,-0.00391 -0.15625,-0.015625 C 8.148438,-2.082031 8.101562,-2.109375 8.0625,-2.140625 c 0.03125,0.054687 0.035156,0.09375 0.015625,0.125 -0.011719,0.023437 -0.027344,0.039063 -0.046875,0.046875 -0.15625,0 -0.261719,-0.015625 -0.3125,-0.046875 C 7.6875,-2.035156 7.660156,-2.050781 7.640625,-2.0625 c 0,0.054688 -0.00781,0.078125 -0.015625,0.078125 v 0.015625 c -0.136719,0 -0.242188,-0.019531 -0.3125,-0.0625 C 7.269531,-2.050781 7.234375,-2.078125 7.203125,-2.109375 7.222656,-2.054688 7.226562,-2.019531 7.21875,-2 c -0.011719,0.011719 -0.015625,0.023438 -0.015625,0.03125 -0.074219,0 -0.136719,-0.00391 -0.1875,-0.015625 C 6.960938,-2.003906 6.914062,-2.023438 6.875,-2.046875 6.832031,-2.066406 6.800781,-2.09375 6.78125,-2.125 c 0,0.03125 0,0.058594 0,0.078125 0,0.011719 0,0.027344 0,0.046875 C 6.769531,-1.988281 6.765625,-1.976562 6.765625,-1.96875 6.691406,-1.976562 6.625,-1.992188 6.5625,-2.015625 6.507812,-2.035156 6.460938,-2.0625 6.421875,-2.09375 6.367188,-2.125 6.328125,-2.160156 6.296875,-2.203125 c 0,0.105469 -0.023437,0.199219 -0.0625,0.28125 -0.03125,0.085937 -0.074219,0.15625 -0.125,0.21875 -0.054687,0.0625 -0.109375,0.125 -0.171875,0.1875 0,0.074219 0.019531,0.164063 0.0625,0.265625 0.039062,0.09375 0.09375,0.195312 0.15625,0.296875 0.0625,0.105469 0.128906,0.210937 0.203125,0.3125 0.082031,0.09375 0.164063,0.179687 0.25,0.25 0.0625,0.0625 0.125,0.132813 0.1875,0.203125 0.0625,0.0625 0.113281,0.1210938 0.15625,0.171875 C 7.015625,0.0546875 7.070312,0.125 7.125,0.1875 7,0.238281 6.894531,0.253906 6.8125,0.234375 6.738281,0.210938 6.6875,0.195312 6.65625,0.1875 6.707031,0.351562 6.738281,0.488281 6.75,0.59375 6.75781,0.65625 6.765625,0.71875 6.765625,0.78125 6.679688,0.757812 6.613281,0.734375 6.5625,0.703125 6.507812,0.679688 6.460938,0.65625 6.421875,0.625 6.378906,0.59375 6.34375,0.554688 6.3125,0.515625 6.28125,0.679688 6.242188,0.804688 6.203125,0.890625 6.160156,0.972656 6.117188,1.035156 6.078125,1.078125 6.035156,1.128906 5.988281,1.15625 5.9375,1.15625 5.9375,1.082031 5.929688,1.007812 5.921875,0.9375 5.910156,0.875 5.90625,0.820312 5.90625,0.78125 5.894531,0.863281 5.875,0.941406 5.84375,1.015625 5.8125,1.085938 5.773438,1.148438 5.734375,1.203125 5.691406,1.273438 5.644531,1.332031 5.59375,1.375 5.550781,1.3125 5.523438,1.238281 5.515625,1.15625 c 0,-0.074219 0,-0.148438 0,-0.21875 0,-0.074219 0.00391,-0.152344 0.015625,-0.234375 -0.03125,0.113281 -0.074219,0.21875 -0.125,0.3125 -0.042969,0.09375 -0.085938,0.175781 -0.125,0.25 C 5.21875,1.335938 5.148438,1.398438 5.078125,1.453125 5.035156,1.347656 5.003906,1.25 4.984375,1.15625 4.960938,1.070312 4.945312,0.992188 4.9375,0.921875 4.914062,0.847656 4.90625,0.773438 4.90625,0.703125 4.90625,0.765625 4.894531,0.820312 4.875,0.875 4.863281,0.9375 4.847656,0.984375 4.828125,1.015625 4.804688,1.054688 4.785156,1.085938 4.765625,1.109375 4.710938,1.003906 4.6875,0.90625 4.6875,0.8125 4.695312,0.71875 4.71875,0.628906 4.75,0.546875 4.769531,0.453125 4.800781,0.363281 4.84375,0.28125 4.820312,0.332031 4.773438,0.375 4.703125,0.40625 4.640625,0.445312 4.582031,0.476562 4.53125,0.5 4.457031,0.53125 4.378906,0.550781 4.296875,0.5625 c 0,-0.054688 0.00781,-0.117188 0.03125,-0.1875 C 4.347656,0.300781 4.375,0.222656 4.40625,0.140625 L 4.359375,0.171875 C 4.316406,0.191406 4.269531,0.207031 4.21875,0.21875 4.175781,0.238281 4.125,0.242188 4.0625,0.234375 4,0.234375 3.929688,0.21875 3.859375,0.1875 c 0.0625,-0.0625 0.125,-0.1328125 0.1875,-0.203125 0.039063,-0.0507812 0.09375,-0.109375 0.15625,-0.171875 0.0625,-0.070312 0.125,-0.140625 0.1875,-0.203125 0.070313,-0.070313 0.140625,-0.15625 0.203125,-0.25 0.070312,-0.101563 0.128906,-0.207031 0.171875,-0.3125 C 4.816406,-1.054688 4.851562,-1.15625 4.875,-1.25 c 0.019531,-0.101562 0.03125,-0.191406 0.03125,-0.265625 -0.042969,-0.0625 -0.074219,-0.125 -0.09375,-0.1875 -0.03125,-0.0625 -0.058594,-0.132813 -0.078125,-0.21875 -0.023437,-0.082031 -0.03125,-0.175781 -0.03125,-0.28125 -0.03125,0.042969 -0.074219,0.078125 -0.125,0.109375 -0.042969,0.03125 -0.09375,0.058594 -0.15625,0.078125 -0.054687,0.023437 -0.121094,0.039063 -0.203125,0.046875 0,-0.00781 0,-0.019531 0,-0.03125 -0.011719,-0.03125 -0.011719,-0.070312 0,-0.125 C 4.1875,-2.09375 4.148438,-2.066406 4.109375,-2.046875 4.066406,-2.023438 4.019531,-2.003906 3.96875,-1.984375 3.914062,-1.972656 3.859375,-1.96875 3.796875,-1.96875 3.785156,-1.976562 3.773438,-1.988281 3.765625,-2 3.753906,-2.019531 3.757812,-2.054688 3.78125,-2.109375 3.75,-2.078125 3.71875,-2.050781 3.6875,-2.03125 3.613281,-1.988281 3.507812,-1.96875 3.375,-1.96875 L 3.359375,-1.984375 c -0.011719,-0.00781 -0.011719,-0.035156 0,-0.078125 C 3.335938,-2.050781 3.3125,-2.035156 3.28125,-2.015625 3.25,-2.003906 3.207031,-1.992188 3.15625,-1.984375 3.101562,-1.972656 3.035156,-1.96875 2.953125,-1.96875 2.929688,-1.976562 2.914062,-1.992188 2.90625,-2.015625 c -0.023438,-0.03125 -0.015625,-0.070313 0.015625,-0.125 -0.03125,0.03125 -0.074219,0.058594 -0.125,0.078125 C 2.742188,-2.050781 2.6875,-2.046875 2.625,-2.046875 c -0.0625,0 -0.132812,-0.00391 -0.203125,-0.015625 -0.011719,-0.03125 -0.00781,-0.066406 0.015625,-0.109375 0.00781,-0.03125 0.019531,-0.0625 0.03125,-0.09375 0.019531,-0.039063 0.050781,-0.082031 0.09375,-0.125 -0.09375,0 -0.1875,-0.00781 -0.28125,-0.03125 -0.074219,-0.00781 -0.152344,-0.03125 -0.234375,-0.0625 C 1.960938,-2.515625 1.894531,-2.5625 1.84375,-2.625 1.851562,-2.65625 1.867188,-2.679688 1.890625,-2.703125 1.910156,-2.734375 1.9375,-2.757812 1.96875,-2.78125 2,-2.8125 2.039062,-2.835938 2.09375,-2.859375 c -0.105469,0.023437 -0.199219,0.03125 -0.28125,0.03125 -0.074219,0 -0.148438,0 -0.21875,0 C 1.519531,-2.835938 1.457031,-2.847656 1.40625,-2.859375 1.4375,-2.921875 1.46875,-2.976562 1.5,-3.03125 1.53125,-3.082031 1.566406,-3.128906 1.609375,-3.171875 1.660156,-3.210938 1.710938,-3.25 1.765625,-3.28125 c -0.09375,0 -0.195313,-0.015625 -0.296875,-0.046875 -0.085938,-0.019531 -0.171875,-0.0625 -0.265625,-0.125 C 1.117188,-3.523438 1.035156,-3.625 0.953125,-3.75 0.984375,-3.757812 1.019531,-3.773438 1.0625,-3.796875 1.09375,-3.804688 1.128906,-3.816406 1.171875,-3.828125 1.222656,-3.835938 1.28125,-3.84375 1.34375,-3.84375 1.1875,-3.925781 1.050781,-4.019531 0.9375,-4.125 0.832031,-4.226562 0.726562,-4.347656 0.625,-4.484375 0.53125,-4.628906 0.46875,-4.800781 0.4375,-5 c 0.113281,0.074219 0.257812,0.140625 0.4375,0.203125 0.15625,0.054687 0.359375,0.101563 0.609375,0.140625 0.257813,0.042969 0.582031,0.0625 0.96875,0.0625 0.09375,0.011719 0.195313,0.011719 0.3125,0 0.082031,0 0.175781,0 0.28125,0 0.113281,-0.00781 0.21875,-0.019531 0.3125,-0.03125 h 0.0625 c 0.019531,0 0.039063,0.00781 0.0625,0.015625 0.03125,0.011719 0.066406,0.023437 0.109375,0.03125 0.0625,0.023437 0.132812,0.054687 0.21875,0.09375 0.09375,0.042969 0.195312,0.085937 0.3125,0.125 0.113281,0.042969 0.226562,0.078125 0.34375,0.109375 0.125,0.03125 0.257812,0.046875 0.40625,0.046875 0,-0.101563 0.00391,-0.210937 0.015625,-0.328125 0.00781,-0.101562 0.03125,-0.210938 0.0625,-0.328125 0.03125,-0.125 0.078125,-0.25 0.140625,-0.375 C 5.125,-5.398438 5.164062,-5.5625 5.21875,-5.71875 5.25,-5.84375 5.285156,-5.957031 5.328125,-6.0625 5.378906,-6.175781 5.4375,-6.25 5.5,-6.28125 5.550781,-6.25 5.597656,-6.175781 5.640625,-6.0625 c 0.050781,0.105469 0.097656,0.21875 0.140625,0.34375 0.039062,0.15625 0.082031,0.320312 0.125,0.484375 0.050781,0.125 0.09375,0.25 0.125,0.375 0.03125,0.117187 0.054688,0.226563 0.078125,0.328125 0.00781,0.117188 0.015625,0.226562 0.015625,0.328125 0.132812,0 0.265625,-0.015625 0.390625,-0.046875 0.125,-0.03125 0.238281,-0.066406 0.34375,-0.109375 0.113281,-0.039063 0.210937,-0.082031 0.296875,-0.125 C 7.25,-4.523438 7.328125,-4.554688 7.390625,-4.578125 7.484375,-4.609375 7.546875,-4.625 7.578125,-4.625 H 7.625 c 0.09375,0.011719 0.191406,0.023438 0.296875,0.03125 0.113281,0 0.210937,0 0.296875,0 0.113281,0.011719 0.222656,0.011719 0.328125,0 0.375,0 0.6875,-0.019531 0.9375,-0.0625 0.25,-0.039062 0.453125,-0.085938 0.609375,-0.140625 0.1875,-0.0625 0.335938,-0.128906 0.453125,-0.203125 z m 0,0"
           id="path18341" />
      </g>
    </g>
  </g>
</svg>
