<?xml version="1.0" encoding="UTF-8" standalone="no"?>
<!-- Created with Inkscape (http://www.inkscape.org/) -->

<svg
   width="17.466625"
   height="24"
   viewBox="0 0 4.6213779 6.35"
   version="1.1"
   id="svg26072"
   inkscape:version="1.2.1 (9c6d41e4, 2022-07-14)"
   sodipodi:docname="children-of-paradise.svg"
   xmlns:inkscape="http://www.inkscape.org/namespaces/inkscape"
   xmlns:sodipodi="http://sodipodi.sourceforge.net/DTD/sodipodi-0.dtd"
   xmlns="http://www.w3.org/2000/svg"
   xmlns:svg="http://www.w3.org/2000/svg">
  <sodipodi:namedview
     id="namedview26074"
     pagecolor="#505050"
     bordercolor="#eeeeee"
     borderopacity="1"
     inkscape:showpageshadow="0"
     inkscape:pageopacity="0"
     inkscape:pagecheckerboard="0"
     inkscape:deskcolor="#505050"
     inkscape:document-units="mm"
     showgrid="false"
     inkscape:zoom="0.7046647"
     inkscape:cx="96.499796"
     inkscape:cy="138.36368"
     inkscape:window-width="1390"
     inkscape:window-height="941"
     inkscape:window-x="0"
     inkscape:window-y="25"
     inkscape:window-maximized="0"
     inkscape:current-layer="layer1" />
  <defs
     id="defs26069">
    <clipPath
       clipPathUnits="userSpaceOnUse"
       id="clipPath18695">
      <path
         d="m 71.36,129.58 h 24.699 v 24.699 H 71.36 Z"
         id="path18693" />
    </clipPath>
  </defs>
  <g
     inkscape:label="Layer 1"
     inkscape:groupmode="layer"
     id="layer1"
     transform="translate(-79.542661,-112.09554)">
    <g
       id="g18689"
       transform="matrix(0.26774732,0,0,-0.26774732,59.4329,153.28571)">
      <g
         id="g18691"
         clip-path="url(#clipPath18695)">
        <g
           id="g18697"
           transform="translate(88.6707,142.267)">
          <path
             d="m 0,0 c -0.165,-0.374 -0.399,-0.729 -0.643,-0.974 -0.029,-0.03 -0.055,-0.061 -0.08,-0.093 -0.035,-0.045 -0.066,-0.084 -0.107,-0.112 -0.034,-0.023 -0.069,-0.044 -0.103,-0.065 -0.045,-0.026 -0.09,-0.053 -0.134,-0.084 -0.108,-0.079 -0.223,-0.126 -0.344,-0.176 -0.048,-0.02 -0.096,-0.04 -0.145,-0.062 -0.288,-0.13 -0.592,-0.203 -0.861,-0.2 -0.048,0 -0.106,-0.003 -0.162,-0.006 -0.094,-0.007 -0.192,-0.012 -0.269,0.002 -0.065,0.013 -0.14,0.037 -0.212,0.061 l -0.083,0.026 c -0.129,0.039 -0.314,0.156 -0.43,0.273 -0.046,0.045 -0.093,0.109 -0.13,0.174 -0.018,0.031 -0.042,0.099 -0.053,0.144 -0.004,0.015 -0.003,0.035 -0.002,0.059 0.002,0.031 0.004,0.068 -0.005,0.107 -0.007,0.033 -0.02,0.056 -0.029,0.074 -0.009,0.017 -0.012,0.024 -0.014,0.036 -0.003,0.03 -10e-4,0.061 0,0.091 10e-4,0.023 0.002,0.045 0.002,0.066 l -0.001,0.031 c 0,0.038 -10e-4,0.071 0.01,0.112 0.014,0.051 0.023,0.082 0.028,0.092 0.038,0.067 0.185,0.175 0.296,0.181 0.003,0 0.006,0 0.008,0 0.009,0 0.016,-0.001 0.023,-0.002 -0.061,-0.14 -0.116,-0.287 -0.097,-0.467 0.026,-0.248 0.33,-0.356 0.476,-0.409 0.034,-0.012 0.064,-0.029 0.094,-0.046 0.047,-0.026 0.1,-0.056 0.165,-0.071 0.123,-0.03 0.249,-0.049 0.357,-0.054 0.312,-0.017 0.551,0.021 0.779,0.123 0.033,0.015 0.068,0.028 0.103,0.041 0.066,0.024 0.133,0.049 0.197,0.086 0.067,0.039 0.128,0.091 0.187,0.14 l 0.042,0.035 c 0.108,0.09 0.14,0.219 0.169,0.333 0.013,0.051 0.025,0.098 0.042,0.135 l 0.018,0.042 c 0.023,0.05 0.039,0.086 0.07,0.12 0.027,0.031 0.066,0.055 0.106,0.081 0.025,0.017 0.051,0.033 0.075,0.051 0.042,0.031 0.081,0.063 0.119,0.094 0.042,0.034 0.084,0.068 0.128,0.101 0.056,0.041 0.248,0.189 0.35,0.358 0.024,0.041 0.04,0.083 0.055,0.123 0.011,0.03 0.021,0.061 0.037,0.088 0.027,0.046 0.046,0.093 0.065,0.14 0.01,0.025 0.02,0.049 0.031,0.074 0.049,0.106 0.064,0.174 0.08,0.286 0.01,0.07 0.03,0.145 0.05,0.217 L 0.264,1.398 C 0.266,1.404 0.268,1.41 0.269,1.415 0.269,1.244 0.27,1.073 0.271,0.903 0.273,0.619 0.135,0.306 0.013,0.03 Z m -7.672,-7.791 c -0.026,0.009 -0.05,0.012 -0.07,0.015 -0.012,10e-4 -0.026,0.003 -0.031,0.006 -0.01,0.004 -0.022,0.014 -0.036,0.025 -0.018,0.015 -0.037,0.029 -0.058,0.041 -0.039,0.022 -0.08,0.043 -0.12,0.064 -0.059,0.03 -0.118,0.061 -0.175,0.098 -0.03,0.019 -0.063,0.035 -0.095,0.05 -0.022,0.01 -0.043,0.02 -0.063,0.032 -0.037,0.023 -0.068,0.054 -0.104,0.089 l -0.033,0.033 c -0.062,0.061 -0.096,0.127 -0.14,0.212 l -0.029,0.056 c -0.036,0.068 -0.084,0.126 -0.131,0.183 -0.025,0.03 -0.05,0.06 -0.073,0.092 -0.133,0.187 -0.25,0.408 -0.327,0.622 -0.013,0.035 -0.026,0.069 -0.039,0.103 -0.029,0.073 -0.056,0.142 -0.074,0.218 l -0.018,0.076 c -0.028,0.117 -0.057,0.239 -0.096,0.356 -0.086,0.262 -0.13,0.519 -0.131,0.765 0,0.071 -10e-4,0.142 -10e-4,0.212 -0.002,0.134 -0.003,0.266 0,0.399 0.003,0.083 0.023,0.164 0.044,0.24 0.021,0.075 0.027,0.138 0.032,0.2 0.003,0.03 0.006,0.061 0.011,0.095 0.011,0.084 0.027,0.18 0.045,0.263 0.001,0.004 0.005,0.012 0.009,0.02 0.009,0.019 0.022,0.044 0.027,0.077 0.006,0.04 0.004,0.075 0.003,0.107 -0.002,0.028 -0.003,0.053 0.002,0.076 0.024,0.102 0.038,0.207 0.05,0.307 0.008,0.058 0.015,0.116 0.024,0.173 0.01,0.063 0.02,0.126 0.029,0.188 0.022,0.148 0.042,0.288 0.076,0.433 0.024,0.101 0.031,0.205 0.039,0.305 0.007,0.091 0.013,0.176 0.03,0.258 0.007,0.031 0.019,0.059 0.031,0.088 0.018,0.043 0.038,0.092 0.046,0.148 0.004,0.028 0.006,0.058 0.008,0.087 0.004,0.056 0.007,0.109 0.026,0.153 0.02,0.047 0.054,0.099 0.098,0.148 l 0.041,0.048 c 0.056,0.067 0.074,0.086 0.111,0.086 0.007,0 0.014,-0.001 0.023,-0.002 l 0.332,-0.001 c 0.03,0.001 0.057,0.002 0.086,0.003 0.045,0.002 0.09,0.005 0.132,0 0.017,-0.002 0.036,-0.009 0.057,-0.018 0.028,-0.01 0.06,-0.022 0.097,-0.028 0.247,-0.033 0.414,-0.104 0.47,-0.199 0.049,-0.083 0.065,-0.131 0.068,-0.205 0.002,-0.064 0.009,-0.102 0.043,-0.17 0.012,-0.02 0.026,-0.038 0.043,-0.054 l -0.009,-0.034 0.016,-0.031 c 0.046,-0.09 0.155,-0.194 0.274,-0.217 0.028,-0.006 0.054,-0.005 0.076,-0.005 0.014,10e-4 0.029,10e-4 0.038,-0.001 0.01,-0.002 0.02,-0.006 0.031,-0.011 0.01,-0.004 0.02,-0.008 0.032,-0.012 0.002,-0.037 0,-0.079 -0.002,-0.119 -0.002,-0.03 -0.003,-0.06 -0.003,-0.088 0,-0.032 0.002,-0.066 0.004,-0.102 0.004,-0.061 0.008,-0.124 -10e-4,-0.171 -0.005,-0.03 -0.012,-0.055 -0.019,-0.079 -0.018,-0.066 -0.04,-0.142 -0.013,-0.249 0.029,-0.121 0.094,-0.212 0.153,-0.286 0.121,-0.148 0.248,-0.176 0.382,-0.205 0.032,-0.007 0.066,-0.014 0.101,-0.024 0.24,-0.063 0.398,0.054 0.538,0.159 0.015,0.012 0.031,0.023 0.047,0.035 0.019,-0.028 0.039,-0.062 0.053,-0.087 0.03,-0.051 0.057,-0.091 0.091,-0.138 l 0.015,-0.023 c 0.109,-0.156 0.18,-0.278 0.23,-0.397 0.037,-0.089 0.08,-0.174 0.122,-0.259 0.098,-0.193 0.19,-0.376 0.2,-0.578 0.002,-0.052 0.013,-0.096 0.023,-0.135 0.01,-0.039 0.019,-0.072 0.019,-0.11 0,-0.072 0.017,-0.11 0.03,-0.14 0.005,-0.012 0.011,-0.024 0.016,-0.044 0.001,-0.005 -0.002,-0.02 -0.003,-0.031 -0.004,-0.025 -0.008,-0.056 -0.003,-0.089 0.007,-0.037 0.02,-0.065 0.031,-0.088 0.008,-0.015 0.013,-0.027 0.015,-0.037 0.001,-0.005 -0.001,-0.02 -0.003,-0.031 -0.004,-0.028 -0.009,-0.063 0,-0.1 0.008,-0.034 0.022,-0.058 0.033,-0.076 0.007,-0.012 0.011,-0.018 0.012,-0.025 0.02,-0.081 0.001,-0.169 -0.018,-0.262 C -4.886,-5.357 -4.896,-5.405 -4.901,-5.451 -4.903,-5.476 -4.91,-5.496 -4.918,-5.52 -4.927,-5.547 -4.936,-5.574 -4.942,-5.608 -4.959,-5.702 -4.98,-5.812 -5.011,-5.917 -5.037,-6.003 -5.048,-6.082 -5.059,-6.158 -5.064,-6.191 -5.069,-6.225 -5.075,-6.26 -5.085,-6.321 -5.109,-6.381 -5.134,-6.444 -5.159,-6.506 -5.185,-6.57 -5.2,-6.64 -5.208,-6.675 -5.219,-6.709 -5.23,-6.744 -5.25,-6.806 -5.271,-6.872 -5.275,-6.943 -5.28,-7.007 -5.278,-7.072 -5.276,-7.137 c 10e-4,-0.038 0.002,-0.075 10e-4,-0.112 -10e-4,-0.188 0.062,-0.353 0.122,-0.493 l 0.016,-0.039 c 0.046,-0.112 0.099,-0.238 0.219,-0.318 0.07,-0.047 0.127,-0.051 0.183,-0.056 l 0.041,-0.004 c 0.027,-0.004 0.048,-0.011 0.069,-0.017 0.039,-0.013 0.083,-0.026 0.149,-0.026 0.018,0 0.037,-10e-4 0.055,-10e-4 0.054,-0.002 0.115,-0.004 0.175,0.012 0.032,0.009 0.062,0.022 0.091,0.036 0.023,0.011 0.047,0.022 0.056,0.026 0.045,0.003 0.091,0.01 0.136,0.022 l 0.036,0.015 0.02,0.033 c 0.041,0.018 0.089,0.027 0.139,0.037 0.053,0.011 0.107,0.022 0.162,0.043 0.11,0.043 0.203,0.095 0.302,0.151 l 0.104,0.057 c 0.166,0.091 0.337,0.185 0.481,0.305 0.33,0.274 0.659,0.552 0.984,0.828 0.093,0.079 0.184,0.179 0.258,0.281 -0.052,-0.172 -0.163,-0.359 -0.318,-0.532 -0.036,-0.04 -0.079,-0.075 -0.124,-0.113 -0.041,-0.035 -0.084,-0.07 -0.122,-0.11 -0.028,-0.029 -0.057,-0.049 -0.086,-0.07 C -2.15,-7.199 -2.173,-7.215 -2.196,-7.234 -2.218,-7.253 -2.242,-7.27 -2.268,-7.288 -2.309,-7.316 -2.35,-7.345 -2.383,-7.377 -2.408,-7.401 -2.426,-7.423 -2.444,-7.445 -2.463,-7.469 -2.477,-7.487 -2.501,-7.504 -2.541,-7.531 -2.582,-7.552 -2.623,-7.573 -2.658,-7.591 -2.693,-7.609 -2.728,-7.63 -2.81,-7.681 -2.903,-7.726 -2.992,-7.769 L -3.07,-7.807 C -3.126,-7.835 -3.172,-7.87 -3.212,-7.901 -3.248,-7.929 -3.282,-7.955 -3.319,-7.974 -3.428,-8.028 -3.534,-8.072 -3.603,-8.092 -3.695,-8.119 -3.791,-8.141 -3.886,-8.164 L -3.995,-8.189 C -4.041,-8.2 -4.088,-8.211 -4.13,-8.223 -4.177,-8.236 -4.212,-8.258 -4.24,-8.276 -4.268,-8.294 -4.284,-8.303 -4.306,-8.307 L -4.378,-8.319 C -4.46,-8.333 -4.542,-8.344 -4.622,-8.346 l -0.059,10e-4 c -0.036,0 -0.072,0.001 -0.109,0 -0.057,-0.002 -0.101,-0.015 -0.14,-0.027 -0.021,-0.007 -0.042,-0.014 -0.068,-0.018 -0.198,-0.031 -0.383,0.016 -0.58,0.066 -0.068,0.018 -0.137,0.036 -0.207,0.05 -0.049,0.01 -0.097,0.018 -0.146,0.026 -0.06,0.009 -0.119,0.018 -0.179,0.033 l -0.065,0.017 c -0.033,0.008 -0.066,0.017 -0.101,0.025 -0.042,0.009 -0.085,0.015 -0.128,0.02 -0.035,0.005 -0.069,0.009 -0.103,0.016 -0.117,0.024 -0.233,0.064 -0.355,0.105 -0.105,0.035 -0.214,0.072 -0.325,0.099 -0.043,0.01 -0.087,0.019 -0.131,0.028 -0.076,0.015 -0.147,0.029 -0.215,0.052 -0.021,0.006 -0.039,0.016 -0.058,0.026 -0.025,0.012 -0.051,0.025 -0.081,0.036 m -2.497,0.99 -0.01,0.034 c -0.026,0.09 -0.053,0.169 -0.102,0.265 -0.038,0.074 -0.056,0.143 -0.077,0.223 -0.009,0.033 -0.019,0.068 -0.03,0.104 -0.01,0.035 -0.021,0.075 -0.032,0.116 -0.036,0.139 -0.078,0.297 -0.155,0.406 -0.133,0.187 -0.182,0.386 -0.214,0.626 -0.053,0.394 -0.134,0.756 -0.22,1.123 -0.106,0.456 -0.12,0.94 -0.039,1.364 0.022,0.118 0.037,0.228 0.051,0.346 0.017,0.137 0.056,0.26 0.098,0.39 0.017,0.052 0.034,0.104 0.049,0.158 0.046,0.156 0.064,0.317 0.082,0.473 0.025,0.208 0.048,0.406 0.13,0.586 0.075,0.166 0.17,0.327 0.261,0.482 0.111,0.189 0.226,0.384 0.312,0.596 0.085,0.208 0.18,0.415 0.271,0.615 l 0.097,0.215 c 0.057,0.126 0.106,0.257 0.152,0.383 0.056,0.15 0.113,0.306 0.184,0.45 l 0.056,0.115 c 0.038,0.079 0.076,0.158 0.116,0.234 0.066,0.124 0.148,0.231 0.235,0.344 0.059,0.076 0.117,0.152 0.171,0.233 0.047,0.072 0.093,0.146 0.139,0.22 0.087,0.139 0.176,0.283 0.275,0.411 0.062,0.08 0.137,0.15 0.216,0.224 0.065,0.06 0.132,0.123 0.193,0.192 0.088,0.103 0.163,0.217 0.235,0.327 0.032,0.049 0.064,0.098 0.097,0.146 0.025,0.036 0.052,0.07 0.078,0.104 0.027,0.034 0.054,0.069 0.079,0.105 0.045,0.064 0.07,0.13 0.095,0.194 0.015,0.04 0.03,0.081 0.051,0.119 0.081,0.147 0.205,0.253 0.337,0.364 l 0.034,0.029 c 0.19,0.162 0.359,0.291 0.56,0.395 0.151,0.077 0.327,0.134 0.496,0.188 l 0.135,0.044 c 0.25,0.083 0.526,0.134 0.764,0.174 0.365,0.06 0.738,0.09 1.143,0.09 h 0.563 c 0.088,0 0.178,0.002 0.269,0.005 0.252,0.009 0.512,0.017 0.746,-0.039 0.3,-0.072 0.644,-0.215 0.898,-0.375 0.036,-0.023 0.072,-0.048 0.108,-0.073 0.06,-0.042 0.122,-0.085 0.198,-0.125 0.077,-0.031 0.151,-0.071 0.208,-0.111 0.058,-0.055 0.117,-0.109 0.184,-0.168 0.024,-0.018 0.05,-0.032 0.077,-0.045 0.027,-0.014 0.053,-0.027 0.069,-0.043 0.056,-0.055 0.108,-0.156 0.15,-0.237 L -0.363,5.152 C -0.33,5.089 -0.304,5.023 -0.278,4.952 -0.252,4.886 -0.227,4.82 -0.196,4.757 -0.118,4.602 -0.086,4.461 -0.109,4.37 -0.122,4.317 -0.141,4.283 -0.182,4.241 -0.223,4.2 -0.279,4.161 -0.308,4.155 -0.309,4.154 -0.31,4.154 -0.312,4.154 -0.314,4.156 -0.317,4.16 -0.321,4.163 -0.382,4.223 -0.44,4.284 -0.498,4.346 -0.571,4.423 -0.644,4.5 -0.722,4.573 -0.837,4.682 -0.955,4.769 -1.118,4.864 -1.179,4.899 -1.239,4.936 -1.297,4.972 -1.468,5.077 -1.644,5.186 -1.847,5.257 l -0.115,0.042 c -0.127,0.047 -0.259,0.095 -0.394,0.125 -0.87,0.196 -1.458,0.055 -1.749,-0.42 l -0.033,-0.01 -0.16,-0.773 0.317,0.619 c 0.084,0.014 0.187,0.007 0.288,0 0.058,-0.003 0.113,-0.007 0.163,-0.007 h 0.355 c 0.229,-0.001 0.458,-0.001 0.687,0 0.027,0 0.054,10e-4 0.082,0.003 0.061,0.003 0.124,0.006 0.172,-0.007 0.009,-0.002 0.027,-0.014 0.042,-0.022 0.024,-0.015 0.051,-0.031 0.082,-0.041 0.092,-0.03 0.178,-0.068 0.269,-0.108 0.087,-0.039 0.177,-0.079 0.274,-0.111 0.129,-0.043 0.243,-0.105 0.364,-0.17 L -1.15,4.348 c 0.043,-0.023 0.087,-0.043 0.132,-0.064 0.066,-0.03 0.129,-0.058 0.181,-0.094 0.076,-0.051 0.18,-0.143 0.253,-0.223 l 0.04,-0.044 C -0.471,3.844 -0.381,3.745 -0.333,3.668 -0.231,3.502 -0.168,3.285 -0.109,3.078 -0.07,2.943 -0.068,2.813 -0.068,2.676 -0.067,2.612 -0.067,2.548 -0.063,2.481 -0.058,2.406 -0.048,2.332 -0.038,2.258 -0.018,2.111 0,1.971 -0.027,1.832 -0.045,1.738 -0.055,1.643 -0.064,1.552 -0.074,1.449 -0.084,1.352 -0.105,1.257 -0.117,1.203 -0.161,1.159 -0.211,1.108 -0.248,1.071 -0.287,1.032 -0.318,0.984 -0.338,0.952 -0.356,0.923 -0.372,0.895 -0.41,0.83 -0.441,0.779 -0.506,0.714 -0.602,0.618 -0.685,0.535 -0.797,0.477 -0.839,0.455 -0.881,0.43 -0.923,0.404 -0.985,0.366 -1.049,0.328 -1.106,0.305 -1.27,0.242 -1.432,0.208 -1.604,0.172 L -1.731,0.145 C -1.817,0.126 -1.922,0.13 -2.024,0.134 l -0.083,0.003 c -0.049,0.001 -0.065,0.009 -0.102,0.029 -0.022,0.012 -0.046,0.025 -0.08,0.038 -0.178,0.073 -0.333,0.155 -0.473,0.25 -0.025,0.017 -0.052,0.033 -0.079,0.05 -0.049,0.031 -0.1,0.062 -0.138,0.096 -0.051,0.045 -0.094,0.125 -0.134,0.202 -0.03,0.056 -0.03,0.1 -0.029,0.193 10e-4,0.066 -0.013,0.123 -0.025,0.174 -0.009,0.039 -0.018,0.075 -0.019,0.112 -10e-4,0.024 0.007,0.052 0.017,0.083 0.012,0.036 0.024,0.076 0.028,0.123 0.006,0.075 0.013,0.102 0.044,0.174 0.009,0.022 0.017,0.042 0.025,0.061 0.016,0.043 0.026,0.071 0.053,0.104 0.063,0.076 0.124,0.15 0.189,0.228 0.058,0.069 0.178,0.214 0.285,0.252 0.04,0.014 0.133,0.017 0.18,0.007 C -2.338,2.307 -2.301,2.281 -2.296,2.276 -2.309,2.239 -2.42,2.193 -2.468,2.174 -2.493,2.163 -2.515,2.154 -2.532,2.145 -2.701,2.062 -2.736,1.955 -2.776,1.831 L -2.802,1.756 c -0.052,-0.15 -0.107,-0.305 -0.06,-0.485 0.034,-0.133 0.131,-0.253 0.28,-0.346 0.099,-0.061 0.167,-0.062 0.264,-0.064 0.034,0 0.066,-0.009 0.103,-0.018 0.038,-0.011 0.082,-0.023 0.133,-0.026 L -2.04,0.815 c 0.136,-0.008 0.305,-0.017 0.438,0.015 0.37,0.089 0.672,0.419 0.768,0.84 0.017,0.075 0.014,0.152 0.012,0.221 -0.001,0.022 -0.002,0.044 -0.002,0.065 -0.001,0.048 0.009,0.092 0.018,0.14 0.008,0.037 0.015,0.073 0.019,0.112 0.02,0.186 -0.084,0.435 -0.192,0.575 -0.11,0.144 -0.231,0.229 -0.345,0.3 -0.013,0.008 -0.028,0.02 -0.043,0.033 -0.033,0.026 -0.067,0.054 -0.105,0.069 -0.045,0.018 -0.09,0.027 -0.13,0.034 -0.025,0.005 -0.05,0.01 -0.074,0.017 -0.027,0.009 -0.055,0.02 -0.083,0.031 -0.043,0.017 -0.086,0.034 -0.13,0.045 -0.056,0.014 -0.108,0.012 -0.154,0.01 C -2.07,3.32 -2.097,3.319 -2.125,3.322 -2.15,3.325 -2.173,3.333 -2.196,3.34 -2.231,3.351 -2.271,3.363 -2.319,3.366 -2.406,3.371 -2.466,3.348 -2.523,3.324 L -2.564,3.308 C -2.755,3.236 -3.017,3.138 -3.143,2.903 -3.227,2.746 -3.29,2.572 -3.351,2.405 -3.383,2.318 -3.414,2.232 -3.448,2.15 -3.459,2.123 -3.459,2.097 -3.453,2.078 -3.458,2.07 -3.467,2.06 -3.475,2.05 -3.491,2.029 -3.507,2.009 -3.515,1.993 -3.53,1.965 -3.547,1.94 -3.564,1.915 -3.578,1.892 -3.593,1.87 -3.607,1.847 -3.687,1.71 -3.764,1.591 -3.898,1.525 -4.224,1.365 -4.484,1.297 -4.767,1.297 -4.806,1.297 -4.85,1.293 -4.895,1.29 -4.973,1.284 -5.062,1.278 -5.122,1.295 -5.135,1.306 -5.157,1.324 -5.193,1.335 -5.22,1.343 -5.245,1.343 -5.279,1.342 -5.328,1.356 -5.392,1.386 -5.449,1.412 L -5.516,1.443 C -5.622,1.489 -5.696,1.528 -5.781,1.603 -5.81,1.627 -5.838,1.665 -5.867,1.706 -5.926,1.786 -5.992,1.877 -6.101,1.913 -6.382,2.007 -6.634,1.922 -6.878,1.84 L -6.939,1.819 C -6.999,1.8 -7.058,1.772 -7.119,1.743 -7.156,1.726 -7.194,1.708 -7.233,1.692 -7.283,1.671 -7.338,1.654 -7.394,1.636 -7.52,1.597 -7.651,1.556 -7.754,1.474 -7.795,1.441 -7.828,1.404 -7.86,1.368 -7.886,1.339 -7.911,1.313 -7.938,1.29 -7.971,1.295 -8.006,1.298 -8.046,1.297 -8.119,1.296 -8.193,1.296 -8.267,1.297 H -8.615 V 1.203 1.109 l 0.348,-10e-4 c 0.029,0 0.059,10e-4 0.088,10e-4 0.045,0 0.091,0 0.136,0 0.003,0.001 0.006,0 0.009,0 0.053,0.001 0.096,-0.006 0.14,-0.018 0.03,-0.008 0.059,-0.018 0.094,-0.03 l 0.068,-0.022 c 0.053,-0.017 0.109,-0.031 0.164,-0.045 0.086,-0.022 0.167,-0.042 0.243,-0.075 0.037,-0.015 0.072,-0.039 0.109,-0.064 0.035,-0.024 0.07,-0.047 0.109,-0.067 0.136,-0.07 0.25,-0.145 0.358,-0.236 L -6.722,0.53 c 0.078,-0.067 0.167,-0.142 0.265,-0.181 0.084,-0.034 0.129,-0.083 0.19,-0.15 0.021,-0.024 0.043,-0.048 0.068,-0.073 0.063,-0.064 0.134,-0.121 0.202,-0.176 0.077,-0.061 0.149,-0.119 0.209,-0.184 l 0.037,-0.04 c 0.044,-0.047 0.089,-0.095 0.117,-0.141 0.014,-0.023 0.024,-0.045 0.034,-0.067 0.019,-0.042 0.04,-0.089 0.08,-0.135 0.013,-0.014 0.022,-0.023 0.03,-0.031 0.013,-0.013 0.013,-0.013 0.025,-0.044 0.024,-0.063 0.052,-0.123 0.08,-0.182 0.036,-0.078 0.07,-0.151 0.094,-0.228 0.031,-0.094 0.001,-0.157 -0.058,-0.269 -0.015,-0.03 -0.031,-0.06 -0.046,-0.093 -0.027,-0.057 -0.045,-0.117 -0.064,-0.177 -0.028,-0.089 -0.054,-0.174 -0.108,-0.246 -0.047,-0.066 -0.116,-0.117 -0.188,-0.171 -0.041,-0.03 -0.081,-0.06 -0.119,-0.093 -0.127,-0.111 -0.242,-0.166 -0.332,-0.154 -0.045,0.005 -0.092,0.032 -0.155,0.09 -0.036,0.034 -0.038,0.055 -0.045,0.112 -0.004,0.031 -0.008,0.064 -0.017,0.101 l -0.006,0.024 c -0.021,0.081 -0.026,0.098 0.001,0.168 0.035,0.089 0.057,0.15 0.058,0.259 0.001,0.073 0.024,0.159 0.053,0.246 0.012,0.02 0.029,0.05 0.032,0.101 0.003,0.06 -0.014,0.103 -0.029,0.138 -0.005,0.012 -0.01,0.024 -0.014,0.038 -0.039,0.145 -0.095,0.33 -0.184,0.475 -0.091,0.147 -0.219,0.189 -0.331,0.226 -0.039,0.012 -0.078,0.025 -0.118,0.043 -0.117,0.053 -0.242,0.075 -0.338,0.089 -0.016,0.002 -0.033,0.009 -0.053,0.017 -0.026,0.01 -0.054,0.021 -0.089,0.027 -0.035,0.006 -0.065,0.003 -0.093,0.001 -0.019,-0.001 -0.037,-0.002 -0.049,0 -0.069,0.014 -0.128,0.042 -0.191,0.071 -0.094,0.043 -0.199,0.093 -0.342,0.093 H -8.12 L -8.219,0.013 c -0.198,0 -0.4,-0.003 -0.599,-0.033 -0.039,-0.006 -0.077,-0.013 -0.116,-0.021 -0.04,-0.009 -0.081,-0.019 -0.121,-0.031 -0.015,-0.004 -0.03,-0.006 -0.044,-0.011 -0.09,-0.03 -0.163,-0.078 -0.234,-0.124 -0.042,-0.028 -0.085,-0.056 -0.131,-0.079 -0.031,-0.015 -0.07,-0.04 -0.112,-0.067 -0.018,-0.012 -0.043,-0.028 -0.067,-0.043 -0.038,-0.023 -0.077,-0.044 -0.096,-0.046 l 0.006,-0.093 0.006,-0.094 c 0.081,0.005 0.169,0.063 0.254,0.119 0.034,0.022 0.066,0.043 0.092,0.056 0.053,0.026 0.102,0.058 0.151,0.09 0.006,0.004 0.012,0.007 0.018,0.011 -0.017,-0.026 -0.033,-0.054 -0.051,-0.08 -0.034,-0.048 -0.067,-0.096 -0.097,-0.145 -0.101,-0.166 -0.131,-0.35 -0.16,-0.528 -0.012,-0.08 -0.025,-0.158 -0.044,-0.234 -0.027,-0.105 -0.059,-0.209 -0.091,-0.313 -0.03,-0.099 -0.06,-0.197 -0.086,-0.296 -0.021,-0.079 -0.03,-0.154 -0.04,-0.228 -0.003,-0.028 -0.007,-0.057 -0.011,-0.086 -0.011,-0.066 -0.031,-0.133 -0.053,-0.204 -0.031,-0.098 -0.062,-0.198 -0.066,-0.303 -0.003,-0.063 -0.012,-0.125 -0.021,-0.186 -0.009,-0.06 -0.017,-0.12 -0.021,-0.181 -0.005,-0.088 -0.003,-0.179 -0.001,-0.269 0.002,-0.047 0.003,-0.095 0.003,-0.142 v -0.677 c 0,-0.119 -0.01,-0.232 -0.021,-0.352 -0.011,-0.126 -0.023,-0.255 -0.021,-0.39 10e-4,-0.122 0.027,-0.254 0.05,-0.37 l 0.004,-0.02 c 0.008,-0.04 0.012,-0.081 0.017,-0.121 0.008,-0.073 0.017,-0.149 0.041,-0.222 0.126,-0.373 0.269,-0.706 0.439,-1.017 0.134,-0.245 0.318,-0.479 0.598,-0.758 0.101,-0.102 0.212,-0.207 0.339,-0.32 0.115,-0.103 0.225,-0.148 0.342,-0.196 0.029,-0.012 0.058,-0.023 0.088,-0.037 0.064,-0.028 0.129,-0.053 0.194,-0.077 0.074,-0.028 0.148,-0.056 0.221,-0.09 0.175,-0.081 0.327,-0.137 0.467,-0.172 0.117,-0.029 0.232,-0.062 0.347,-0.096 0.119,-0.034 0.239,-0.069 0.359,-0.099 0.048,-0.012 0.096,-0.023 0.144,-0.034 0.088,-0.02 0.178,-0.041 0.264,-0.066 0.035,-0.01 0.068,-0.024 0.101,-0.038 0.033,-0.013 0.066,-0.027 0.1,-0.038 0.167,-0.053 0.334,-0.049 0.495,-0.045 l 0.101,0.002 c 0.16,0.003 0.332,-0.012 0.495,-0.026 0.259,-0.022 0.525,-0.045 0.793,-0.008 0.414,0.057 0.735,0.176 1.075,0.397 0.019,0.012 0.044,0.023 0.069,0.034 0.045,0.019 0.092,0.039 0.127,0.071 0.03,0.027 0.043,0.048 0.058,0.076 0.051,0.052 0.123,0.085 0.199,0.122 0.039,0.018 0.078,0.037 0.115,0.058 0.173,0.098 0.325,0.231 0.471,0.36 0.077,0.067 0.153,0.134 0.231,0.195 0.141,0.109 0.227,0.274 0.311,0.433 0.031,0.059 0.061,0.117 0.094,0.17 0.128,0.209 0.282,0.493 0.336,0.844 0.036,0.237 0.101,0.474 0.164,0.703 0.025,0.088 0.049,0.177 0.072,0.265 0.057,0.221 0.055,0.44 0.054,0.651 0,0.059 0,0.118 0,0.178 0.005,0.321 -0.112,0.662 -0.347,1.012 -0.023,0.034 -0.043,0.072 -0.064,0.109 -0.031,0.057 -0.063,0.115 -0.107,0.17 -0.057,0.072 -0.121,0.105 -0.184,0.138 -0.016,0.008 -0.034,0.017 -0.052,0.027 l -0.066,0.039 c -0.098,0.058 -0.21,0.124 -0.323,0.158 -0.039,0.011 -0.08,0.018 -0.121,0.024 -0.03,0.005 -0.06,0.009 -0.089,0.017 -0.026,0.007 -0.06,0.012 -0.097,0.015 0.202,0.032 0.421,0.027 0.646,0.019 0.106,-0.004 0.224,-0.049 0.337,-0.093 0.036,-0.013 0.071,-0.027 0.106,-0.039 0.127,-0.045 0.207,-0.094 0.285,-0.174 0.167,-0.172 0.301,-0.429 0.377,-0.723 0.03,-0.118 0.072,-0.232 0.113,-0.343 0.015,-0.043 0.031,-0.086 0.046,-0.128 0.042,-0.12 0.057,-0.261 0.071,-0.397 0.006,-0.053 0.011,-0.104 0.018,-0.154 0.026,-0.192 0.025,-0.471 -0.056,-0.677 -0.04,-0.1 -0.061,-0.198 -0.082,-0.294 -0.018,-0.087 -0.036,-0.169 -0.066,-0.249 -0.035,-0.093 -0.077,-0.187 -0.118,-0.281 -0.088,-0.197 -0.178,-0.401 -0.217,-0.615 -0.038,-0.208 -0.096,-0.423 -0.152,-0.63 l -0.031,-0.115 c -0.035,-0.129 -0.071,-0.256 -0.129,-0.376 -0.024,-0.049 -0.044,-0.099 -0.064,-0.149 -0.036,-0.09 -0.07,-0.175 -0.13,-0.248 -0.074,-0.09 -0.162,-0.167 -0.254,-0.247 -0.095,-0.084 -0.194,-0.171 -0.278,-0.274 -0.048,-0.06 -0.089,-0.078 -0.185,-0.12 -0.086,-0.039 -0.156,-0.092 -0.223,-0.143 -0.061,-0.047 -0.119,-0.091 -0.184,-0.12 -0.055,-0.025 -0.115,-0.043 -0.179,-0.062 -0.049,-0.014 -0.098,-0.029 -0.146,-0.047 -0.087,-0.033 -0.17,-0.073 -0.254,-0.114 -0.049,-0.023 -0.097,-0.047 -0.146,-0.068 -0.249,-0.111 -0.503,-0.161 -0.773,-0.214 l -0.139,-0.028 c -0.49,-0.101 -0.962,-0.101 -1.461,-0.101 H -6 c -0.057,0 -0.114,-0.002 -0.172,-0.003 -0.128,-0.005 -0.26,-0.01 -0.379,0.01 -0.117,0.018 -0.236,0.049 -0.352,0.079 -0.096,0.025 -0.192,0.05 -0.288,0.069 l -0.144,0.027 c -0.144,0.027 -0.279,0.052 -0.415,0.094 -0.054,0.016 -0.107,0.028 -0.16,0.04 -0.066,0.015 -0.127,0.028 -0.186,0.05 l -0.087,0.032 c -0.112,0.04 -0.217,0.077 -0.32,0.138 -0.085,0.049 -0.174,0.084 -0.26,0.118 -0.085,0.033 -0.166,0.065 -0.24,0.109 -0.067,0.041 -0.14,0.076 -0.212,0.111 -0.083,0.04 -0.161,0.078 -0.231,0.123 -0.085,0.056 -0.191,0.174 -0.247,0.277 -0.021,0.039 -0.043,0.079 -0.066,0.119 -0.075,0.133 -0.153,0.271 -0.198,0.407 -0.054,0.163 -0.106,0.336 -0.13,0.497 -0.008,0.056 -0.007,0.112 -0.006,0.171 10e-4,0.036 0.002,0.071 0,0.108 -0.004,0.133 -0.04,0.257 -0.076,0.376 M 3.668,-0.803 C 3.6,-0.564 3.53,-0.344 3.495,-0.094 3.469,0.091 3.443,0.279 3.397,0.461 3.363,0.6 3.309,0.732 3.275,0.871 3.165,1.33 3.039,1.793 2.955,2.258 2.938,2.351 2.938,2.439 2.906,2.529 2.872,2.624 2.818,2.711 2.78,2.805 2.707,2.986 2.623,3.169 2.564,3.354 2.481,3.612 2.334,3.835 2.251,4.092 2.171,4.338 2.019,4.536 1.951,4.787 1.826,5.246 1.734,5.723 1.532,6.159 1.307,6.641 1.057,7.124 0.743,7.558 0.65,7.686 0.553,7.805 0.471,7.942 0.432,8.007 0.395,8.082 0.341,8.137 0.286,8.192 0.22,8.226 0.171,8.289 0.102,8.378 0.062,8.488 0.009,8.585 -0.06,8.713 -0.137,8.831 -0.255,8.919 c -0.172,0.127 -0.304,0.275 -0.466,0.413 -0.324,0.276 -0.671,0.514 -1.011,0.77 -0.405,0.304 -0.803,0.629 -1.239,0.889 -0.14,0.083 -0.282,0.159 -0.421,0.242 -0.048,0.029 -0.106,0.037 -0.118,0.089 -0.143,0.097 -0.238,0.178 -0.33,0.218 -0.105,0.046 -0.218,0.03 -0.332,0.03 -0.169,10e-4 -0.338,0 -0.507,0 -0.193,0 -0.326,-0.013 -0.512,-0.055 C -5.536,11.439 -5.858,11.368 -6.16,11.174 -6.233,11.127 -6.3,11.066 -6.367,11.012 -6.436,10.956 -6.467,10.884 -6.529,10.824 -6.64,10.714 -6.776,10.652 -6.91,10.582 -7.008,10.53 -7.094,10.454 -7.196,10.407 -7.272,10.373 -7.352,10.361 -7.427,10.324 -7.772,10.151 -8.035,9.82 -8.31,9.557 -8.587,9.291 -8.805,9.005 -8.993,8.674 -9.268,8.19 -9.521,7.693 -9.754,7.188 c -0.297,-0.643 -0.92,-1.019 -1.295,-1.61 -0.167,-0.264 -0.29,-0.549 -0.405,-0.836 -0.079,-0.196 -0.227,-0.378 -0.345,-0.552 -0.137,-0.201 -0.33,-0.356 -0.452,-0.569 -0.082,-0.142 -0.135,-0.298 -0.216,-0.44 -0.104,-0.182 -0.222,-0.336 -0.294,-0.536 -0.065,-0.178 -0.115,-0.362 -0.169,-0.544 -0.074,-0.251 -0.128,-0.51 -0.221,-0.755 -0.055,-0.146 -0.131,-0.285 -0.181,-0.432 -0.08,-0.238 -0.148,-0.471 -0.182,-0.722 -0.093,-0.678 -0.049,-1.352 0.083,-2.023 0.039,-0.2 0.094,-0.401 0.116,-0.604 0.023,-0.216 -0.003,-0.448 -0.003,-0.666 0,-0.357 0.044,-0.749 -0.009,-1.103 -0.047,-0.312 -0.07,-0.608 -0.037,-0.922 0.028,-0.269 0.063,-0.55 0.126,-0.814 0.059,-0.248 0.141,-0.486 0.169,-0.741 0.02,-0.18 0.072,-0.343 0.135,-0.512 0.086,-0.228 0.156,-0.463 0.243,-0.689 0.055,-0.143 0.15,-0.274 0.233,-0.403 0.076,-0.116 0.132,-0.233 0.201,-0.353 0.103,-0.179 0.245,-0.355 0.37,-0.522 0.284,-0.381 0.65,-0.765 1.01,-1.079 0.304,-0.265 0.68,-0.428 1.046,-0.568 0.162,-0.062 0.308,-0.154 0.444,-0.267 0.118,-0.098 0.211,-0.193 0.352,-0.258 0.115,-0.052 0.221,-0.111 0.333,-0.166 0.256,-0.126 0.565,-0.158 0.835,-0.255 0.245,-0.089 0.492,-0.197 0.746,-0.255 0.143,-0.033 0.282,-0.076 0.423,-0.111 0.143,-0.034 0.287,-0.023 0.433,-0.023 0.242,10e-4 0.485,0 0.727,0 0.596,0 1.175,0.015 1.765,0.125 0.148,0.027 0.303,0.038 0.448,0.077 0.18,0.049 0.329,0.167 0.501,0.234 0.262,0.102 0.527,0.202 0.783,0.313 0.154,0.067 0.299,0.155 0.455,0.22 0.121,0.051 0.248,0.081 0.371,0.125 0.32,0.114 0.618,0.297 0.937,0.419 0.255,0.098 0.4,0.218 0.576,0.424 0.32,0.372 0.663,0.716 0.934,1.129 0.263,0.404 0.587,0.778 0.825,1.194 0.22,0.385 0.487,0.758 0.651,1.174 0.159,0.401 0.369,0.773 0.518,1.179 0.179,0.487 0.236,1.008 0.321,1.515 0.038,0.23 0.044,0.504 -0.001,0.732 -0.03,0.151 0.001,0.232 0.023,0.377 0.021,0.144 -0.012,0.301 -0.004,0.447 0.008,0.169 0.076,0.337 0.085,0.507 0.011,0.206 0.041,0.403 0.041,0.612 -10e-4,0.175 0.024,0.368 -0.023,0.536"
             style="fill:#231f20;fill-opacity:1;fill-rule:nonzero;stroke:none"
             id="path18699" />
        </g>
      </g>
    </g>
  </g>
</svg>
