<?xml version="1.0" encoding="UTF-8" standalone="no"?>
<!-- Created with Inkscape (http://www.inkscape.org/) -->

<svg
   width="23.695826"
   height="24"
   viewBox="0 0 6.2695206 6.35"
   version="1.1"
   id="svg26400"
   inkscape:version="1.2.1 (9c6d41e4, 2022-07-14)"
   sodipodi:docname="death-of-stars.svg"
   xmlns:inkscape="http://www.inkscape.org/namespaces/inkscape"
   xmlns:sodipodi="http://sodipodi.sourceforge.net/DTD/sodipodi-0.dtd"
   xmlns="http://www.w3.org/2000/svg"
   xmlns:svg="http://www.w3.org/2000/svg">
  <sodipodi:namedview
     id="namedview26402"
     pagecolor="#505050"
     bordercolor="#eeeeee"
     borderopacity="1"
     inkscape:showpageshadow="0"
     inkscape:pageopacity="0"
     inkscape:pagecheckerboard="0"
     inkscape:deskcolor="#505050"
     inkscape:document-units="mm"
     showgrid="false"
     inkscape:zoom="0.7046647"
     inkscape:cx="73.793962"
     inkscape:cy="67.407946"
     inkscape:window-width="1390"
     inkscape:window-height="941"
     inkscape:window-x="0"
     inkscape:window-y="25"
     inkscape:window-maximized="0"
     inkscape:current-layer="layer1" />
  <defs
     id="defs26397">
    <clipPath
       clipPathUnits="userSpaceOnUse"
       id="clipPath18707">
      <path
         d="M 156.301,129.58 H 181 v 24.699 h -24.699 z"
         id="path18705" />
    </clipPath>
  </defs>
  <g
     inkscape:label="Layer 1"
     inkscape:groupmode="layer"
     id="layer1"
     transform="translate(-85.477124,-130.86925)">
    <g
       id="g18701"
       transform="matrix(0.26214755,0,0,-0.26214755,44.380777,171.28873)">
      <g
         id="g18703"
         clip-path="url(#clipPath18707)">
        <g
           id="g18709"
           transform="translate(164.621,146.53)">
          <path
             d="m 0,0 c -0.033,0.058 -0.119,0.212 -0.632,0.301 -0.109,0.019 -0.213,0.019 -0.313,0.02 -0.103,0 -0.201,0.001 -0.292,0.022 -0.164,0.038 -0.33,0.06 -0.491,0.082 -0.172,0.023 -0.35,0.047 -0.52,0.09 -0.154,0.038 -0.298,0.047 -0.438,0.055 -0.069,0.004 -0.14,0.008 -0.211,0.016 -0.058,0.007 -0.096,0.03 -0.153,0.064 -0.043,0.025 -0.092,0.054 -0.154,0.079 -0.042,0.016 -0.077,0.028 -0.109,0.039 -0.108,0.037 -0.108,0.037 -0.156,0.172 -0.036,0.1 -0.054,0.208 -0.074,0.322 -0.021,0.118 -0.042,0.239 -0.082,0.368 -0.043,0.139 -0.053,0.296 -0.063,0.463 -0.008,0.142 -0.018,0.29 -0.048,0.441 l -0.019,0.104 c -0.022,0.118 -0.045,0.24 -0.086,0.366 -0.044,0.151 -0.343,1.615 -0.34,1.812 0,0 0,-0.014 -0.005,-0.033 L -4.539,4.919 C -4.924,3.525 -4.919,3.04 -4.914,2.612 V 2.575 C -4.913,2.515 -4.912,2.453 -4.91,2.39 -4.904,2.18 -4.898,1.963 -4.942,1.789 -4.97,1.682 -5.015,1.574 -5.062,1.459 -5.118,1.323 -5.176,1.183 -5.211,1.03 -5.226,0.969 -5.235,0.916 -5.243,0.871 -5.247,0.85 -5.251,0.825 -5.255,0.807 -5.273,0.801 -5.309,0.792 -5.381,0.783 -5.537,0.764 -5.678,0.714 -5.814,0.665 -5.869,0.645 -5.925,0.625 -5.981,0.607 -6.28,0.514 -6.566,0.444 -6.832,0.398 -6.952,0.378 -7.053,0.329 -7.143,0.285 -7.204,0.256 -7.261,0.228 -7.319,0.211 -7.34,0.204 -7.375,0.205 -7.411,0.206 -7.509,0.208 -7.658,0.21 -7.773,0.058 l -0.08,-0.104 0.042,-0.133 c 0.095,-0.297 0.385,-0.341 0.559,-0.367 0.033,-0.005 0.063,-0.01 0.087,-0.016 0.029,-0.007 0.064,-0.021 0.102,-0.036 0.056,-0.022 0.115,-0.045 0.169,-0.058 0.073,-0.018 0.148,-0.049 0.227,-0.082 0.08,-0.034 0.163,-0.068 0.252,-0.092 0.16,-0.044 0.317,-0.09 0.474,-0.136 0.125,-0.037 0.249,-0.073 0.376,-0.109 0.087,-0.024 0.171,-0.034 0.252,-0.043 0.103,-0.011 0.2,-0.022 0.281,-0.063 0.028,-0.014 0.054,-0.029 0.079,-0.044 0.039,-0.022 0.08,-0.046 0.127,-0.067 0.009,-0.054 0.02,-0.102 0.03,-0.147 0.019,-0.085 0.035,-0.159 0.039,-0.25 0.008,-0.239 0.077,-0.498 0.15,-0.742 0.122,-0.405 0.171,-0.72 0.169,-1.087 -0.001,-0.112 0.006,-0.237 0.013,-0.365 0.009,-0.164 0.018,-0.333 0.01,-0.485 l -0.075,-1.53 0.434,1.438 c 0.019,0.062 0.04,0.127 0.061,0.189 0.042,0.128 0.079,0.238 0.092,0.322 0.013,0.084 0.038,0.169 0.065,0.259 0.029,0.098 0.059,0.199 0.078,0.312 0.011,0.066 0.019,0.128 0.027,0.187 0.019,0.138 0.035,0.257 0.08,0.397 0.064,0.201 0.106,0.402 0.146,0.596 0.048,0.235 0.094,0.456 0.177,0.669 0.022,0.058 0.045,0.125 0.069,0.196 0.057,0.168 0.128,0.377 0.205,0.464 0.02,0.023 0.028,0.027 0.028,0.027 0.007,0.002 0.033,0.002 0.052,0.002 0.024,0 0.051,0 0.081,0.001 0.102,0.006 0.179,0.04 0.246,0.071 0.032,0.014 0.065,0.03 0.103,0.039 0.117,0.031 0.244,0.042 0.379,0.053 0.142,0.011 0.29,0.023 0.434,0.061 l 0.155,0.042 c 0.22,0.06 0.448,0.123 0.662,0.125 0.119,0.002 0.238,0.03 0.352,0.056 0.141,0.033 0.274,0.064 0.377,0.041 l 0.441,-0.102 z"
             style="fill:#231f20;fill-opacity:1;fill-rule:nonzero;stroke:none"
             id="path18711" />
        </g>
        <g
           id="g18713"
           transform="translate(180.356,144.404)">
          <path
             d="M 0,0 C -0.053,0.093 -0.083,0.189 -0.114,0.291 -0.173,0.482 -0.24,0.698 -0.469,0.873 -0.54,0.927 -0.614,0.957 -0.678,0.984 -0.721,1.002 -0.762,1.019 -0.788,1.038 -0.801,1.048 -0.816,1.068 -0.832,1.089 -0.879,1.15 -0.958,1.252 -1.114,1.264 L -1.301,1.278 -1.313,1.091 C -1.318,1.005 -1.411,0.868 -1.486,0.757 -1.537,0.682 -1.586,0.61 -1.622,0.538 -1.67,0.442 -1.695,0.332 -1.719,0.225 -1.767,0.014 -1.799,-0.087 -1.886,-0.107 l -0.327,-0.075 0.352,-0.352 c 0.189,-0.189 0.384,-0.384 0.632,-0.384 0.002,0 0.004,0 0.006,0 0.156,0.002 0.308,0.081 0.462,0.243 0.103,0.108 0.215,0.161 0.345,0.221 0.114,0.054 0.243,0.114 0.372,0.218 l 0.122,0.099 z"
             style="fill:#231f20;fill-opacity:1;fill-rule:nonzero;stroke:none"
             id="path18715" />
        </g>
        <g
           id="g18717"
           transform="translate(176.086,150.605)">
          <path
             d="M 0,0 C -0.401,-0.025 -0.766,0.085 -1.154,0.201 -1.312,0.248 -1.476,0.297 -1.645,0.338 -1.764,0.366 -1.878,0.398 -1.99,0.429 -2.205,0.488 -2.426,0.55 -2.673,0.586 l -0.033,0.005 c -0.272,0.038 -0.382,0.074 -0.427,0.099 0.002,0.008 0.003,0.017 0.005,0.025 0.008,0.048 0.016,0.102 0.006,0.156 -0.012,0.065 -0.036,0.118 -0.057,0.16 -0.01,0.022 -0.021,0.043 -0.028,0.067 -0.034,0.13 -0.052,0.27 -0.07,0.419 -0.015,0.127 -0.031,0.257 -0.063,0.4 -0.051,0.237 -0.103,0.472 -0.149,0.711 -0.006,0.032 -0.005,0.07 -0.004,0.113 10e-4,0.052 0.003,0.11 -0.009,0.173 -0.005,0.028 -0.013,0.055 -0.022,0.081 -0.017,0.053 -0.029,0.088 0.067,0.228 L -3.213,3.581 -3.833,3.455 -3.855,3.337 C -3.875,3.224 -3.92,3.107 -3.968,2.983 -3.991,2.924 -4.014,2.866 -4.033,2.808 L -4.074,2.693 C -4.126,2.545 -4.185,2.377 -4.228,2.212 -4.267,2.062 -4.299,1.915 -4.331,1.769 -4.386,1.511 -4.44,1.267 -4.526,1.028 -4.54,0.989 -4.552,0.951 -4.564,0.914 -4.616,0.751 -4.642,0.684 -4.749,0.637 -4.909,0.566 -5.083,0.547 -5.267,0.527 -5.36,0.516 -5.453,0.506 -5.546,0.49 -5.741,0.456 -5.933,0.406 -6.118,0.358 -6.313,0.308 -6.497,0.26 -6.684,0.229 -6.776,0.214 -6.866,0.2 -6.957,0.187 -7.095,0.166 -7.233,0.145 -7.372,0.119 -7.424,0.109 -7.5,0.107 -7.58,0.105 -7.736,0.1 -7.897,0.096 -8.027,0.036 l -0.13,-0.059 0.029,-0.135 c 0.047,-0.217 0.347,-0.222 0.666,-0.227 0.045,-0.001 0.082,-0.001 0.101,-0.003 0.223,-0.026 0.45,-0.061 0.67,-0.094 0.208,-0.033 0.415,-0.064 0.622,-0.089 0.422,-0.052 0.87,-0.145 1.303,-0.271 0.01,-0.027 0.02,-0.051 0.03,-0.074 0.015,-0.037 0.028,-0.069 0.034,-0.098 0.01,-0.054 0.011,-0.116 0.012,-0.182 0.002,-0.077 0.004,-0.165 0.021,-0.254 0.018,-0.088 0.035,-0.176 0.052,-0.264 0.054,-0.283 0.109,-0.576 0.201,-0.868 0.073,-0.232 0.16,-0.467 0.272,-0.739 0.11,-0.268 0.126,-0.485 0.117,-0.768 l -0.017,-0.476 0.336,0.351 c 0.226,0.235 0.251,0.516 0.273,0.764 0.006,0.067 0.013,0.136 0.023,0.205 0.029,0.193 0.088,0.38 0.15,0.578 0.043,0.133 0.086,0.272 0.12,0.412 l 0.035,0.146 c 0.056,0.225 0.108,0.437 0.134,0.675 0.033,0.311 0.094,0.365 0.106,0.372 0.023,0.013 0.109,0.031 0.154,0.04 0.056,0.012 0.109,0.023 0.147,0.036 0.123,0.041 0.244,0.087 0.365,0.132 0.067,0.025 0.133,0.049 0.199,0.073 0.207,0.075 0.421,0.152 0.638,0.202 0.111,0.025 0.223,0.037 0.341,0.051 0.106,0.011 0.215,0.024 0.325,0.046 0.037,0.007 0.069,0.017 0.101,0.028 0.041,0.013 0.067,0.022 0.108,0.023 v 0 c 0.124,0.002 0.237,0.026 0.347,0.048 0.059,0.012 0.119,0.024 0.179,0.032 z"
             style="fill:#231f20;fill-opacity:1;fill-rule:nonzero;stroke:none"
             id="path18719" />
        </g>
        <g
           id="g18721"
           transform="translate(165.341,133.961)">
          <path
             d="m 0,0 c -0.248,0.246 -0.647,0.24 -1.032,0.235 -0.017,0 -0.035,0 -0.052,-10e-4 L -1.373,0.812 -1.511,0.378 C -1.544,0.275 -1.621,0.169 -1.702,0.059 -1.781,-0.049 -1.862,-0.161 -1.918,-0.288 -2.086,-0.675 -2.055,-0.78 -1.924,-1.084 l 0.013,-0.03 c 0.012,-0.027 0.011,-0.033 0.008,-0.059 -0.01,-0.105 0.007,-0.198 0.123,-0.316 0.116,-0.117 0.201,-0.136 0.309,-0.132 0.028,0.002 0.043,0.002 0.078,-0.01 0.231,-0.076 0.412,-0.131 0.66,-0.147 0.071,-0.004 0.136,-0.008 0.194,-0.008 0.29,0 0.428,0.08 0.602,0.443 0.125,0.258 0.152,0.384 0.154,0.706 C 0.218,-0.355 0.148,-0.146 0,0"
             style="fill:#231f20;fill-opacity:1;fill-rule:nonzero;stroke:none"
             id="path18723" />
        </g>
        <g
           id="g18725"
           transform="translate(180.425,139.147)">
          <path
             d="M 0,0 C -0.145,0.127 -0.346,0.14 -0.507,0.151 -0.545,0.153 -0.58,0.155 -0.612,0.16 H -0.613 C -0.662,0.166 -0.709,0.175 -0.755,0.183 -0.861,0.203 -0.97,0.223 -1.106,0.222 -1.179,0.221 -1.252,0.22 -1.326,0.218 -1.52,0.213 -1.721,0.209 -1.907,0.225 -1.985,0.231 -2.062,0.242 -2.14,0.252 L -2.237,0.266 -2.274,0.264 C -2.509,0.286 -2.744,0.327 -2.971,0.37 L -3.15,0.403 C -3.287,0.429 -3.424,0.455 -3.561,0.48 L -3.938,0.548 C -3.939,0.549 -3.941,0.55 -3.943,0.551 l -0.032,0.018 -0.077,0.015 c -0.069,0.014 -0.138,0.027 -0.208,0.037 -0.124,0.016 -0.247,0.031 -0.371,0.045 -0.266,0.031 -0.518,0.06 -0.772,0.108 -0.082,0.016 -0.16,0.02 -0.228,0.024 -0.044,0.003 -0.088,0.006 -0.133,0.012 -0.003,0 -0.005,0.001 -0.008,0.001 -10e-4,0.016 -10e-4,0.033 -10e-4,0.045 l -0.001,0.021 c -0.001,0.045 0,0.09 0.001,0.135 10e-4,0.054 0.002,0.108 10e-4,0.162 -0.003,0.093 -0.023,0.176 -0.041,0.249 -0.011,0.044 -0.022,0.089 -0.028,0.136 -0.009,0.083 -0.009,0.17 -0.008,0.261 0,0.089 0.001,0.182 -0.008,0.278 L -5.86,2.121 C -5.904,2.319 -5.945,2.578 -5.886,2.83 l 0.129,0.418 -0.27,-0.098 c -0.04,0.22 -0.077,0.44 -0.114,0.66 -0.053,0.312 -0.107,0.634 -0.171,0.951 -0.06,0.298 -0.093,0.593 -0.129,0.905 L -6.453,5.779 C -6.492,6.232 -6.544,6.441 -6.745,6.486 L -6.924,6.526 -6.996,6.367 C -7.078,6.185 -7.058,5.957 -7.04,5.756 -7.034,5.686 -7.028,5.619 -7.028,5.562 L -7.027,5.439 C -7.027,5.181 -7.026,4.937 -7.056,4.69 -7.136,4.035 -7.329,3.406 -7.553,2.71 -7.583,2.617 -7.615,2.523 -7.647,2.43 -7.715,2.23 -7.785,2.023 -7.841,1.812 -7.865,1.721 -7.883,1.628 -7.901,1.535 -7.936,1.36 -7.968,1.194 -8.042,1.051 -8.064,1.008 -8.088,0.964 -8.112,0.921 -8.196,0.766 -8.283,0.606 -8.332,0.428 -8.336,0.415 -8.339,0.402 -8.342,0.391 -8.481,0.375 -8.634,0.382 -8.796,0.39 -8.889,0.394 -8.982,0.398 -9.071,0.398 h -1.138 c -0.137,0 -0.274,0.002 -0.412,0.004 -0.436,0.007 -0.886,0.014 -1.329,-0.048 L -12,0.347 c -0.676,-0.095 -1.376,-0.193 -2.05,-0.125 l -0.05,-0.407 c 0.091,-0.01 0.17,-0.035 0.262,-0.064 0.066,-0.02 0.132,-0.041 0.203,-0.057 0.189,-0.043 0.383,-0.074 0.571,-0.104 0.237,-0.037 0.461,-0.073 0.674,-0.131 0.552,-0.151 1.12,-0.221 1.67,-0.289 0.453,-0.055 0.922,-0.113 1.368,-0.215 0.163,-0.038 0.323,-0.083 0.484,-0.128 0.243,-0.068 0.494,-0.138 0.754,-0.183 0.037,-0.007 0.076,-0.012 0.116,-0.017 0.097,-0.013 0.208,-0.028 0.261,-0.063 0.091,-0.061 0.129,-0.254 0.15,-0.357 0.031,-0.157 0.018,-0.354 0.006,-0.544 -0.007,-0.106 -0.013,-0.209 -0.013,-0.305 0,-0.335 0.015,-0.6 0.049,-0.859 0.007,-0.053 0.011,-0.105 0.014,-0.157 0.007,-0.098 0.014,-0.2 0.041,-0.308 0.02,-0.082 0.05,-0.155 0.079,-0.225 0.024,-0.059 0.047,-0.115 0.061,-0.168 0.101,-0.406 0.167,-0.832 0.23,-1.243 0.047,-0.304 0.096,-0.619 0.159,-0.927 0.059,-0.288 0.113,-0.57 0.126,-0.847 l 0.087,-1.808 0.346,1.781 c 0.029,0.15 0.054,0.288 0.063,0.457 0.015,0.287 0.073,0.566 0.134,0.862 0.043,0.209 0.088,0.426 0.116,0.645 0.041,0.324 0.101,0.653 0.159,0.971 0.111,0.608 0.226,1.238 0.221,1.881 -0.003,0.369 -0.002,0.739 -0.002,1.108 l 0.001,0.147 c 0.09,-0.009 0.19,-0.004 0.292,0.029 l 0.019,0.006 c 0.079,0.025 0.122,0.039 0.188,0.044 0.588,0.041 1.162,0.175 1.717,0.305 0.541,0.126 1.111,0.208 1.662,0.288 l 0.293,0.044 c 0.202,0.029 0.4,0.077 0.592,0.122 0.207,0.05 0.403,0.097 0.6,0.122 0.019,0.003 0.04,0.002 0.059,0.002 0.054,0.002 0.134,0 0.215,0.028 l 0.332,0.115 z"
             style="fill:#231f20;fill-opacity:1;fill-rule:nonzero;stroke:none"
             id="path18727" />
        </g>
        <g
           id="g18729"
           transform="translate(171.499,140.338)">
          <path
             d="m 0,0 c -0.261,0.409 -0.404,0.593 -0.59,0.757 -0.013,0.012 -0.023,0.026 -0.033,0.04 -0.017,0.022 -0.035,0.045 -0.055,0.065 -0.07,0.071 -0.153,0.121 -0.226,0.165 L -0.95,1.055 c -0.097,0.06 -0.191,0.125 -0.285,0.19 -0.114,0.079 -0.232,0.161 -0.356,0.235 -0.238,0.14 -0.491,0.266 -0.734,0.388 -0.281,0.141 -0.571,0.286 -0.833,0.45 -0.091,0.058 -0.178,0.118 -0.264,0.178 -0.14,0.098 -0.286,0.199 -0.449,0.286 -0.227,0.122 -0.469,0.25 -0.72,0.368 -0.105,0.05 -0.207,0.103 -0.31,0.155 -0.112,0.058 -0.224,0.115 -0.339,0.169 -0.112,0.052 -0.216,0.12 -0.327,0.192 -0.122,0.08 -0.247,0.162 -0.391,0.226 L -6.043,3.93 c -0.101,0.044 -0.188,0.083 -0.276,0.138 -0.124,0.076 -0.262,0.146 -0.436,0.217 -0.067,0.028 -0.132,0.06 -0.196,0.093 -0.085,0.043 -0.174,0.087 -0.272,0.124 -0.244,0.091 -0.496,0.163 -0.741,0.233 L -8.107,4.776 C -8.181,4.797 -8.261,4.828 -8.346,4.86 -8.533,4.931 -8.744,5.011 -8.958,5.016 -8.987,5.016 -9.017,5.015 -9.047,5.013 -9.074,5.011 -9.1,5.009 -9.114,5.012 L -9.601,5.101 -9.312,4.744 C -9.15,4.543 -8.878,4.371 -8.731,4.286 -8.504,4.156 -8.27,4.021 -8.043,3.864 -7.833,3.719 -7.603,3.61 -7.38,3.505 -7.205,3.422 -7.04,3.344 -6.884,3.25 -6.494,3.015 -6.108,2.769 -5.747,2.538 L -5.6,2.443 C -5.264,2.227 -4.917,2.004 -4.55,1.803 -4.366,1.702 -4.189,1.585 -4.018,1.472 -3.777,1.312 -3.527,1.146 -3.242,1.015 -3.083,0.942 -2.928,0.867 -2.775,0.792 -2.394,0.606 -2,0.415 -1.565,0.271 -1.113,0.122 -0.672,-0.05 -0.252,-0.24 L 0.319,-0.5 Z"
             style="fill:#231f20;fill-opacity:1;fill-rule:nonzero;stroke:none"
             id="path18731" />
        </g>
        <g
           id="g18733"
           transform="translate(178.766,143.357)">
          <path
             d="M 0,0 -0.058,0.193 -0.246,0.118 C -0.54,0.001 -0.769,-0.137 -0.966,-0.317 -1.093,-0.433 -1.243,-0.536 -1.402,-0.645 -1.54,-0.74 -1.683,-0.839 -1.813,-0.948 -1.99,-1.098 -2.14,-1.275 -2.284,-1.445 L -2.366,-1.541 C -2.43,-1.615 -2.507,-1.683 -2.589,-1.755 -2.676,-1.832 -2.765,-1.91 -2.844,-2.002 l -0.055,-0.063 c -0.104,-0.121 -0.205,-0.237 -0.318,-0.345 -0.01,-0.007 -0.02,-0.015 -0.03,-0.023 -0.029,-0.023 -0.055,-0.049 -0.08,-0.075 -0.03,-0.026 -0.062,-0.051 -0.095,-0.075 -0.085,-0.062 -0.168,-0.124 -0.251,-0.188 l 0.212,-0.304 c 0.114,0.072 0.21,0.137 0.277,0.189 0.045,0.035 0.079,0.072 0.109,0.105 0.002,0.001 0.003,0.003 0.005,0.004 0.029,0.026 0.058,0.051 0.086,0.077 0.035,0.023 0.076,0.042 0.121,0.064 l 0.059,0.028 c 0.053,0.026 0.095,0.056 0.132,0.082 0.023,0.017 0.046,0.033 0.072,0.048 0.021,0.011 0.042,0.019 0.063,0.029 0.037,0.015 0.074,0.031 0.108,0.051 0.076,0.044 0.154,0.084 0.232,0.125 0.118,0.061 0.239,0.124 0.354,0.197 0.096,0.061 0.17,0.128 0.242,0.193 0.027,0.025 0.055,0.05 0.084,0.075 0.052,0.044 0.115,0.083 0.181,0.124 0.034,0.02 0.067,0.041 0.1,0.063 0.25,0.165 0.434,0.398 0.583,0.586 0.052,0.066 0.121,0.131 0.193,0.2 l 0.058,0.054 c 0.105,0.102 0.164,0.183 0.234,0.297 0.012,0.018 0.026,0.037 0.041,0.057 C -0.055,-0.327 0.054,-0.178 0,0"
             style="fill:#231f20;fill-opacity:1;fill-rule:nonzero;stroke:none"
             id="path18735" />
        </g>
        <g
           id="g18737"
           transform="translate(169.326,149.564)">
          <path
             d="M 0,0 -0.033,0.023 -0.072,0.03 C -0.19,0.051 -0.322,0.076 -0.48,0.057 -0.772,0.024 -1.054,-0.092 -1.327,-0.204 -1.456,-0.257 -1.589,-0.312 -1.719,-0.355 -1.941,-0.43 -2.172,-0.486 -2.395,-0.54 l -0.16,-0.039 c -0.073,-0.019 -0.148,-0.033 -0.223,-0.047 -0.157,-0.03 -0.321,-0.061 -0.487,-0.128 -0.244,-0.098 -0.484,-0.243 -0.716,-0.383 -0.14,-0.085 -0.285,-0.172 -0.424,-0.245 -0.331,-0.173 -0.721,-0.366 -1.102,-0.488 L -5.586,-1.895 C -5.693,-1.929 -5.805,-1.964 -5.917,-2.01 -5.94,-2.019 -5.959,-2.021 -5.998,-2.023 -6.034,-2.026 -6.08,-2.029 -6.131,-2.043 -6.174,-2.055 -6.205,-2.077 -6.262,-2.12 l -0.017,-0.013 c -0.004,-10e-4 -0.007,-0.003 -0.009,-0.003 -0.012,0.001 -0.023,0.003 -0.035,0.005 l -0.102,-0.354 c 0.044,-0.017 0.085,-0.024 0.134,-0.025 0.063,-0.007 0.126,-0.01 0.19,-0.01 0.186,0 0.373,0.026 0.555,0.052 0.063,0.008 0.125,0.017 0.187,0.025 0.107,0.013 0.213,0.016 0.326,0.02 0.128,0.004 0.26,0.009 0.396,0.028 0.135,0.019 0.27,0.054 0.399,0.089 0.043,0.011 0.085,0.022 0.127,0.032 0.081,0.021 0.161,0.038 0.241,0.056 0.091,0.02 0.181,0.04 0.272,0.063 0.126,0.032 0.232,0.107 0.335,0.179 0.07,0.05 0.137,0.097 0.195,0.119 0.049,0.017 0.103,0.028 0.159,0.039 0.064,0.013 0.137,0.028 0.212,0.055 0.126,0.046 0.247,0.111 0.364,0.175 0.057,0.031 0.114,0.062 0.172,0.09 0.085,0.042 0.174,0.065 0.269,0.09 0.102,0.026 0.207,0.053 0.32,0.106 0.233,0.109 0.462,0.217 0.695,0.332 0.101,0.05 0.195,0.112 0.287,0.173 0.101,0.067 0.197,0.13 0.289,0.168 0.1,0.042 0.156,0.083 0.241,0.176 l 0.016,0.017 c 0.06,0.061 0.15,0.154 0.138,0.277 C 0.088,-0.095 0.054,-0.037 0,0"
             style="fill:#231f20;fill-opacity:1;fill-rule:nonzero;stroke:none"
             id="path18739" />
        </g>
        <g
           id="g18741"
           transform="translate(162.439,141.743)">
          <path
             d="M 0,0 C -0.025,0.088 -0.065,0.146 -0.107,0.208 L -0.119,0.225 C -0.148,0.267 -0.171,0.317 -0.195,0.37 -0.205,0.392 -0.216,0.414 -0.226,0.436 -0.287,0.56 -0.364,0.676 -0.438,0.788 L -0.502,0.885 C -0.516,0.908 -0.53,0.93 -0.544,0.953 -0.559,0.977 -0.574,1 -0.589,1.024 -0.614,1.063 -0.644,1.091 -0.668,1.112 -0.677,1.121 -0.687,1.13 -0.696,1.14 l -0.715,0.811 0.39,-0.972 C -1.014,0.962 -1.015,0.95 -1.023,0.904 L -1.028,0.868 c -0.021,-0.156 0.019,-0.293 0.058,-0.426 0.019,-0.067 0.037,-0.13 0.047,-0.191 0.01,-0.068 0.025,-0.136 0.041,-0.204 0.026,-0.111 0.05,-0.216 0.048,-0.319 -0.002,-0.059 0.001,-0.117 0.005,-0.175 0.002,-0.039 0.004,-0.078 0.004,-0.117 0.002,-0.175 0.02,-0.349 0.038,-0.517 0.014,-0.134 0.029,-0.273 0.035,-0.409 0.005,-0.124 0.018,-0.246 0.031,-0.364 0.007,-0.065 0.014,-0.13 0.02,-0.196 0.004,-0.046 0.007,-0.091 0.01,-0.138 0.009,-0.139 0.019,-0.283 0.053,-0.424 0.029,-0.124 0.063,-0.247 0.096,-0.37 0.017,-0.065 0.035,-0.129 0.052,-0.193 0.014,-0.055 0.028,-0.11 0.042,-0.166 0.019,-0.076 0.038,-0.152 0.058,-0.228 0.032,-0.116 0.08,-0.214 0.125,-0.308 0.014,-0.029 0.029,-0.059 0.043,-0.09 0.023,-0.049 0.042,-0.099 0.061,-0.149 0.022,-0.056 0.043,-0.112 0.069,-0.167 l 0.026,-0.056 c 0.03,-0.061 0.058,-0.12 0.075,-0.179 0.014,-0.044 0.025,-0.089 0.036,-0.132 0.021,-0.086 0.044,-0.174 0.081,-0.263 0.103,-0.244 0.23,-0.474 0.352,-0.686 L 0.49,-5.62 c 0.03,-0.051 0.061,-0.105 0.095,-0.153 0.013,-0.018 0.03,-0.035 0.051,-0.054 0.024,-0.022 0.044,-0.04 0.057,-0.076 0.002,-0.026 0.009,-0.054 0.023,-0.081 l 0.518,-0.985 -0.167,1.093 c -0.003,0.016 -0.006,0.031 -0.01,0.045 0.001,0.007 0.001,0.014 0.002,0.02 0.001,0.028 0.003,0.061 -0.003,0.094 -0.055,0.282 -0.122,0.562 -0.205,0.896 -0.028,0.113 -0.059,0.224 -0.09,0.336 -0.057,0.201 -0.116,0.409 -0.15,0.615 -0.025,0.15 -0.036,0.3 -0.047,0.46 -0.011,0.142 -0.021,0.288 -0.043,0.434 -0.03,0.207 -0.045,0.424 -0.058,0.634 -0.014,0.222 -0.029,0.451 -0.064,0.676 -0.052,0.338 -0.139,0.67 -0.223,0.991 L 0.154,-0.589 C 0.136,-0.522 0.119,-0.455 0.102,-0.388 0.07,-0.258 0.037,-0.128 0,0"
             style="fill:#231f20;fill-opacity:1;fill-rule:nonzero;stroke:none"
             id="path18743" />
        </g>
      </g>
    </g>
  </g>
</svg>
