<?xml version="1.0" encoding="UTF-8" standalone="no"?>
<!-- Created with Inkscape (http://www.inkscape.org/) -->

<svg
   width="22.345526"
   height="24"
   viewBox="0 0 5.9122535 6.35"
   version="1.1"
   id="svg25874"
   inkscape:version="1.2.1 (9c6d41e4, 2022-07-14)"
   sodipodi:docname="war-of-the-outer-gods.svg"
   xmlns:inkscape="http://www.inkscape.org/namespaces/inkscape"
   xmlns:sodipodi="http://sodipodi.sourceforge.net/DTD/sodipodi-0.dtd"
   xmlns="http://www.w3.org/2000/svg"
   xmlns:svg="http://www.w3.org/2000/svg">
  <sodipodi:namedview
     id="namedview25876"
     pagecolor="#505050"
     bordercolor="#eeeeee"
     borderopacity="1"
     inkscape:showpageshadow="0"
     inkscape:pageopacity="0"
     inkscape:pagecheckerboard="0"
     inkscape:deskcolor="#505050"
     inkscape:document-units="mm"
     showgrid="false"
     inkscape:zoom="0.7046647"
     inkscape:cx="52.507242"
     inkscape:cy="144.04014"
     inkscape:window-width="1390"
     inkscape:window-height="941"
     inkscape:window-x="0"
     inkscape:window-y="25"
     inkscape:window-maximized="0"
     inkscape:current-layer="layer1" />
  <defs
     id="defs25871">
    <clipPath
       clipPathUnits="userSpaceOnUse"
       id="clipPath18675">
      <path
         d="m 200.96,229.899 h 24.699 v 24.7 H 200.96 Z"
         id="path18673" />
    </clipPath>
  </defs>
  <g
     inkscape:label="Layer 1"
     inkscape:groupmode="layer"
     id="layer1"
     transform="translate(-91.287867,-110.59365)">
    <g
       id="g18669"
       transform="matrix(0.27835954,0,0,-0.27835954,34.799809,181.14638)">
      <g
         id="g18671"
         clip-path="url(#clipPath18675)">
        <g
           id="g18677"
           transform="translate(216.225,251.559)">
          <path
             d="M 0,0 C 0.212,-0.033 0.423,-0.075 0.637,-0.092 L -0.567,0.127 C -0.474,0.016 -0.124,0.019 0,0"
             style="fill:#231f20;fill-opacity:1;fill-rule:nonzero;stroke:none"
             id="path18679" />
        </g>
        <g
           id="g18681"
           transform="translate(224.102,248.129)">
          <path
             d="M 0,0 C -0.053,0.217 -0.133,0.412 -0.241,0.61 -0.345,0.801 -0.589,0.942 -0.76,1.076 -1.18,1.406 -1.61,1.644 -2.098,1.857 -2.513,2.038 -2.956,2.083 -3.404,2.093 -3.549,2.195 -3.692,2.291 -3.841,2.381 -4.033,2.496 -4.238,2.59 -4.434,2.693 -4.575,2.766 -4.711,2.857 -4.849,2.93 -5.024,3.023 -5.242,3.052 -5.435,3.105 -5.727,3.185 -6.008,3.271 -6.306,3.318 -6.55,3.357 -6.81,3.333 -7.057,3.331 c -0.061,0 -0.122,0.003 -0.183,0.008 L -7.198,3.331 C -7.539,3.36 -8.043,3.354 -8.394,3.476 -8.473,3.502 -8.541,3.542 -8.62,3.561 -8.705,3.581 -8.818,3.56 -8.907,3.57 c -0.14,0.016 -0.275,0.044 -0.416,0.047 -0.84,0.015 -1.683,0.002 -2.523,-0.003 -0.326,-0.003 -0.641,-0.007 -0.964,0.038 -0.25,0.036 -0.496,0.098 -0.748,0.124 -0.209,0.022 -0.418,0 -0.629,0.018 -0.211,0.018 -0.421,0.061 -0.63,0.09 -0.245,0.034 -0.582,0.399 -0.787,0.554 -0.134,0.101 -0.307,0.394 -0.381,0.503 -0.085,0.126 -0.169,0.252 -0.238,0.389 0.073,-0.492 0.156,-1.319 0.135,-1.819 -0.014,-0.327 -0.102,-0.536 -0.242,-0.824 -0.175,-0.362 -0.35,-0.702 -0.59,-1.029 -0.231,-0.314 -0.587,-0.525 -0.872,-0.792 -0.257,-0.241 -0.521,-0.469 -0.793,-0.694 -0.226,-0.187 -0.443,-0.345 -0.625,-0.575 -0.158,-0.2 -0.281,-0.394 -0.377,-0.633 -0.101,-0.252 -0.222,-0.49 -0.334,-0.736 -0.083,-0.182 -0.125,-0.38 -0.195,-0.567 -0.133,-0.357 -0.195,-0.781 -0.224,-1.158 -0.044,-0.562 -0.233,-1.106 -0.228,-1.673 0.005,-0.622 -0.032,-1.253 0.029,-1.872 0.049,-0.495 0.111,-0.992 0.185,-1.483 0.063,-0.421 0.094,-0.841 0.195,-1.255 0.029,-0.12 0.066,-0.239 0.108,-0.356 -0.033,-0.18 -0.08,-0.357 -0.132,-0.538 -0.056,-0.194 -0.181,-0.341 -0.275,-0.514 -0.072,-0.131 -0.142,-0.213 -0.221,-0.336 -0.094,-0.146 -0.228,-0.247 -0.33,-0.385 -0.063,-0.085 -0.096,-0.214 -0.161,-0.287 0.077,-0.009 0.108,0.037 0.161,0.048 0.072,0.015 0.139,0.013 0.214,0.013 0.136,-10e-4 0.292,0.021 0.425,-0.005 0.268,-0.054 0.492,-0.128 0.731,-0.279 0.132,-0.082 0.249,-0.195 0.374,-0.285 0.098,-0.071 0.184,-0.12 0.271,-0.211 0.074,-0.077 0.11,-0.169 0.18,-0.243 0.102,-0.108 0.247,-0.162 0.344,-0.282 0.057,-0.069 0.207,-0.196 0.224,-0.282 l -0.151,0.422 c 0.402,-0.59 0.808,-1.148 1.298,-1.668 0.447,-0.473 1.067,-0.845 1.644,-1.131 0.391,-0.195 0.804,-0.329 1.2,-0.511 0.177,-0.082 0.337,-0.181 0.519,-0.25 0.188,-0.07 0.384,-0.12 0.574,-0.188 0.258,-0.094 0.527,-0.152 0.791,-0.228 0.179,-0.051 0.365,-0.14 0.548,-0.174 0.294,-0.055 0.648,-0.028 0.944,-0.004 0.583,0.047 1.119,0.167 1.667,0.375 0.409,0.155 0.732,0.365 1.111,0.574 0.109,0.06 0.226,0.103 0.337,0.159 0.211,0.109 0.344,0.267 0.522,0.418 0.308,0.261 0.658,0.483 0.989,0.713 0.17,0.118 0.303,0.274 0.472,0.393 0.504,0.353 1.01,0.707 1.531,1.036 0.192,0.121 0.552,0.282 0.777,0.301 0.097,0.008 0.209,-0.004 0.306,-0.018 0.142,-0.021 0.351,-0.133 0.494,-0.089 -0.076,0.28 -0.191,0.546 -0.279,0.822 -0.075,0.235 -0.109,0.496 -0.156,0.74 -0.042,0.222 0.015,0.425 0.06,0.641 0.082,0.395 0.157,0.714 0.354,1.072 0.267,0.484 0.562,0.979 0.696,1.522 0.062,0.246 0.07,0.531 0.068,0.784 -0.001,0.274 0.027,0.564 -0.004,0.836 -0.015,0.131 -0.051,0.251 -0.054,0.383 -0.001,0.073 0.005,0.135 -0.011,0.207 -0.036,0.169 -0.024,0.338 -0.056,0.509 -0.064,0.337 -0.064,0.678 -0.098,1.018 -0.022,0.212 -0.093,0.439 -0.17,0.638 -0.103,0.264 -0.202,0.558 -0.353,0.797 -0.407,0.649 -1.145,0.986 -1.804,1.328 0.185,-0.198 0.314,-0.466 0.468,-0.69 0.13,-0.189 0.264,-0.356 0.315,-0.583 0.024,-0.109 0.048,-0.195 0.094,-0.295 0.118,-0.255 0.309,-0.479 0.387,-0.751 0.043,-0.146 0.044,-0.292 0.094,-0.437 0.037,-0.11 0.089,-0.209 0.112,-0.322 0.048,-0.231 0.062,-0.452 0.061,-0.688 0,-0.195 0.031,-0.414 -0.026,-0.599 -0.068,-0.221 -0.13,-0.443 -0.202,-0.662 C -3.241,-7.515 -3.258,-7.703 -3.299,-7.899 -3.33,-8.05 -3.418,-8.19 -3.459,-8.338 -3.49,-8.45 -3.518,-8.529 -3.573,-8.635 -3.695,-8.873 -3.796,-9.136 -3.91,-9.38 c -0.222,-0.474 -0.339,-1.054 -0.688,-1.461 -0.254,-0.297 -0.586,-0.527 -0.863,-0.803 -0.158,-0.157 -0.29,-0.33 -0.438,-0.494 -0.129,-0.142 -0.189,-0.211 -0.361,-0.304 -0.204,-0.112 -0.396,-0.265 -0.585,-0.4 -0.174,-0.125 -0.362,-0.228 -0.511,-0.371 -0.083,-0.08 -0.169,-0.166 -0.271,-0.224 -0.4,-0.229 -0.807,-0.441 -1.229,-0.626 -0.12,-0.053 -0.234,-0.057 -0.351,-0.12 -0.125,-0.068 -0.252,-0.137 -0.366,-0.221 -0.148,-0.108 -0.312,-0.143 -0.493,-0.224 -0.322,-0.143 -0.699,-0.227 -1.051,-0.225 -0.166,10e-4 -0.332,0.002 -0.498,0 -0.171,-0.002 -0.327,0.045 -0.497,0.057 -0.137,0.009 -0.275,0.031 -0.409,0.055 -0.079,0.014 -0.15,0.052 -0.23,0.061 -0.073,0.008 -0.149,-0.013 -0.222,-0.006 -0.407,0.037 -0.888,0.144 -1.247,0.342 -0.192,0.105 -0.381,0.211 -0.557,0.342 -0.097,0.071 -0.22,0.135 -0.298,0.225 -0.093,0.109 -0.177,0.207 -0.278,0.308 -0.064,0.064 -0.112,0.145 -0.177,0.21 -0.066,0.067 -0.175,0.117 -0.229,0.192 -0.082,0.112 -0.121,0.246 -0.174,0.367 -0.053,0.12 -0.172,0.221 -0.232,0.341 -0.164,0.323 -0.327,0.671 -0.545,0.966 -0.191,0.259 -0.234,0.585 -0.33,0.889 -0.043,0.135 -0.081,0.265 -0.113,0.397 -0.291,0.389 -0.502,0.838 -0.687,1.284 -0.187,0.449 -0.34,0.913 -0.466,1.383 -0.078,0.052 -0.149,0.115 -0.207,0.193 -0.049,0.066 -0.101,0.148 -0.115,0.224 -0.004,0.022 -0.006,0.08 -0.013,0.101 -0.004,0.011 -0.042,0.117 -0.044,0.126 -0.043,0.206 -0.016,0.452 -0.013,0.667 0.002,0.116 -0.036,0.173 -0.057,0.278 -0.025,0.123 10e-4,0.274 10e-4,0.403 0,0.131 0.002,0.263 0,0.395 -10e-4,0.109 0.038,0.135 0.059,0.224 0.026,0.108 -0.031,0.238 -0.005,0.346 0.012,0.051 0.05,0.056 0.062,0.107 0.013,0.051 -0.007,0.12 -0.004,0.173 0.012,0.251 0.167,0.447 0.217,0.695 0.048,0.242 0.102,0.46 0.238,0.68 0.088,0.144 0.187,0.28 0.27,0.425 0.083,0.144 0.194,0.266 0.283,0.412 0.065,0.107 0.155,0.182 0.228,0.283 0.025,0.035 0.044,0.08 0.067,0.111 0.028,0.038 0.075,0.068 0.102,0.11 0.256,0.387 0.559,0.731 0.859,1.079 0.065,0.075 0.149,0.105 0.219,0.17 0.028,0.027 0.048,0.07 0.079,0.098 0.072,0.067 0.144,0.13 0.212,0.198 0.081,0.08 0.185,0.169 0.284,0.228 0.102,0.062 0.201,0.144 0.301,0.203 0.126,0.074 0.293,0.125 0.426,0.197 0.085,0.046 0.183,0.076 0.28,0.11 0.188,0.067 0.391,0.072 0.573,0.14 0.062,0.023 0.11,0.062 0.175,0.075 0.075,0.016 0.147,-0.02 0.223,0.007 0.005,0.031 0.011,0.062 0.017,0.093 0.177,0.035 0.353,0.103 0.526,0.154 0.151,0.045 0.271,0.126 0.429,0.141 0.256,0.023 0.511,0.133 0.762,0.171 0.268,0.041 0.542,-0.013 0.794,-0.06 0.198,-0.038 0.387,-0.133 0.571,-0.225 0.394,-0.197 0.77,-0.502 1.031,-0.853 0.306,-0.411 0.614,-0.82 0.905,-1.243 0.106,-0.155 0.189,-0.311 0.275,-0.469 -0.06,-0.285 -0.043,-0.575 -0.042,-0.878 0,-0.323 0.008,-0.644 0.083,-0.96 0.053,-0.224 0.129,-0.458 0.145,-0.684 0.01,-0.155 0.023,-0.267 0.07,-0.415 0.03,-0.092 0.015,-0.182 0.037,-0.267 0.022,-0.084 0.086,-0.147 0.119,-0.227 0.036,-0.084 0.049,-0.2 0.109,-0.273 0.058,-0.07 0.151,-0.117 0.217,-0.181 0.056,-0.055 0.115,-0.115 0.177,-0.167 0.132,-0.11 0.301,-0.135 0.441,-0.231 0.057,-0.04 0.1,-0.084 0.167,-0.117 -0.091,0.072 -0.059,0.629 -0.039,0.746 0.043,0.25 0.147,0.502 0.201,0.733 0.015,0.063 0.116,0.265 0.078,0.329 -0.044,0.074 -0.252,0.095 -0.332,0.125 -0.207,0.075 -0.345,0.2 -0.341,0.425 0.004,0.167 -0.047,0.304 -0.044,0.448 0.049,-0.067 0.097,-0.136 0.148,-0.2 0.003,0.286 0.123,0.563 0.314,0.796 -0.137,0.419 -0.029,0.914 0.378,1.334 0.125,0.129 0.257,0.234 0.393,0.317 0.094,0.173 0.297,0.241 0.46,0.34 0.224,0.135 0.46,0.226 0.697,0.058 0.039,-0.027 0.068,-0.064 0.095,-0.103 0.023,-0.001 0.045,0 0.067,0 -0.085,0.409 0.032,0.812 0.507,1.113 0.165,0.105 0.36,0.159 0.562,0.173 l 0.058,-0.168 c 0.21,0 0.484,0.025 0.749,0.009 0.102,-0.049 0.197,-0.106 0.282,-0.173 -0.014,0.047 -0.025,0.096 -0.037,0.144 0.203,-0.04 0.385,-0.119 0.506,-0.274 0.097,-0.124 0.173,-0.245 0.243,-0.386 0.075,-0.154 0.107,-0.277 0.297,-0.284 0.161,-0.006 0.253,0.009 0.398,-0.07 0.101,-0.055 0.19,-0.136 0.28,-0.209 0.232,-0.19 0.458,-0.465 0.608,-0.723 0.149,0.093 0.274,0.378 0.303,0.55 C 0.092,-0.421 0.045,-0.188 0,0"
             style="fill:#231f20;fill-opacity:1;fill-rule:nonzero;stroke:none"
             id="path18683" />
        </g>
        <g
           id="g18685"
           transform="translate(218,241.187)">
          <path
             d="M 0,0 C -0.282,0.051 -0.526,0.148 -0.812,0.144 -1.101,0.139 -1.299,0.238 -1.567,0.291 -1.703,0.319 -1.843,0.339 -1.984,0.377 -2.612,0.544 -3.261,0.81 -3.795,1.144 -3.992,1.267 -4.176,1.584 -4.25,1.78 -4.318,1.957 -4.312,2.163 -4.375,2.35 -4.48,2.659 -4.499,3.012 -4.53,3.331 -4.579,3.824 -4.665,4.306 -4.753,4.794 -4.824,5.186 -4.833,5.586 -4.92,5.975 -5.024,6.438 -5.113,6.856 -5.113,7.325 -5.113,6.914 -5.066,6.486 -5.128,6.078 -5.183,5.71 -5.327,5.364 -5.362,4.997 -5.392,4.687 -5.574,4.377 -5.62,4.063 -5.665,3.756 -5.72,3.421 -5.808,3.12 -5.88,2.876 -5.956,2.584 -6.062,2.353 -6.108,2.254 -6.146,2.268 -6.212,2.197 -6.273,2.132 -6.324,1.986 -6.398,1.939 -6.732,1.725 -7.257,2.299 -7.468,2.405 -7.526,2.239 -7.463,2.083 -7.415,1.928 -7.373,1.791 -7.398,1.641 -7.396,1.5 -7.394,1.2 -7.504,0.802 -7.859,0.641 -8.045,0.557 -8.308,0.559 -8.513,0.518 -8.796,0.46 -9.126,0.502 -9.416,0.502 c -0.371,0 -0.743,-0.002 -1.114,0 -0.169,0 -0.331,0.008 -0.498,-0.016 -0.183,-0.026 -0.521,-0.012 -0.67,-0.105 0.204,-0.2 0.822,-0.186 1.086,-0.232 0.426,-0.073 0.841,-0.18 1.267,-0.253 0.515,-0.09 0.98,-0.312 1.424,-0.539 0.352,-0.179 0.617,-0.275 0.816,-0.608 0.142,-0.237 0.234,-0.47 0.301,-0.743 0.243,-0.994 0.524,-1.986 0.683,-2.997 0.053,-0.333 0.178,-0.671 0.247,-1.005 0.053,-0.261 0.117,-0.515 0.192,-0.771 0.066,-0.224 0.042,-0.432 0.057,-0.656 0.018,-0.238 0.125,-0.469 0.343,0.153 0.142,0.105 0.084,0.319 0.085,0.463 0,0.222 -0.034,0.461 0.018,0.679 0.07,0.293 0.066,0.564 0.066,0.868 0,0.201 -0.007,0.403 -0.003,0.604 0.004,0.191 0.071,0.358 0.092,0.544 0.048,0.41 -0.004,0.845 -0.004,1.259 v 0.434 c 0.031,0.089 0.078,0.17 0.144,0.241 0.025,0.027 0.054,0.054 0.077,0.081 0.018,0.021 0.029,0.046 0.051,0.065 0.041,0.038 0.102,0.058 0.15,0.089 0.048,0.032 0.099,0.054 0.156,0.067 0.032,0.008 0.06,0.012 0.091,0.023 0.025,0.01 0.037,0.019 0.065,0.02 0.038,0.002 0.076,-0.001 0.113,-0.001 0.039,0 0.096,0.01 0.133,0.001 0.016,-0.003 0.02,-0.017 0.036,-0.02 0.018,-0.005 0.04,0.005 0.058,10e-4 0.037,-0.006 0.08,-0.027 0.113,-0.038 0.029,-0.01 0.054,-0.015 0.081,-0.033 0.027,-0.018 0.054,-0.042 0.082,-0.06 -0.106,0.168 -0.217,0.397 -0.139,0.599 0.023,0.059 0.069,0.089 0.109,0.135 0.045,0.052 0.083,0.103 0.131,0.152 0.075,0.074 0.153,0.139 0.236,0.201 0.131,0.097 0.277,0.185 0.422,0.257 0.018,0.01 0.021,0.008 0.045,0.017 0.03,0.011 0.045,0.039 0.072,0.051 0.02,0.008 0.045,0.004 0.066,0.011 0.014,0.005 0.028,0.013 0.041,0.021 0.022,0.002 0.044,0.005 0.062,0.007 0.29,0.039 0.58,0.094 0.873,0.109 0.174,0.008 0.29,0.051 0.453,0.073 0.136,0.018 0.281,-0.014 0.419,0.002 0.207,0.024 0.388,0.07 0.6,0.067 0.329,-0.005 0.689,0.043 0.992,0.159 C 0.549,-0.029 0.184,-0.033 0,0"
             style="fill:#231f20;fill-opacity:1;fill-rule:nonzero;stroke:none"
             id="path18687" />
        </g>
      </g>
    </g>
  </g>
</svg>
