<?xml version="1.0" encoding="UTF-8" standalone="no"?>
<!-- Created with Inkscape (http://www.inkscape.org/) -->

<svg
   width="22.84193"
   height="24"
   viewBox="0 0 6.0435939 6.35"
   version="1.1"
   id="svg13715"
   inkscape:version="1.2.1 (9c6d41e4, 2022-07-14)"
   sodipodi:docname="list_item_large.svg"
   xmlns:inkscape="http://www.inkscape.org/namespaces/inkscape"
   xmlns:sodipodi="http://sodipodi.sourceforge.net/DTD/sodipodi-0.dtd"
   xmlns="http://www.w3.org/2000/svg"
   xmlns:svg="http://www.w3.org/2000/svg">
  <sodipodi:namedview
     id="namedview13717"
     pagecolor="#505050"
     bordercolor="#eeeeee"
     borderopacity="1"
     inkscape:showpageshadow="0"
     inkscape:pageopacity="0"
     inkscape:pagecheckerboard="0"
     inkscape:deskcolor="#505050"
     inkscape:document-units="mm"
     showgrid="false"
     inkscape:zoom="0.70199214"
     inkscape:cx="217.95116"
     inkscape:cy="189.46081"
     inkscape:window-width="1390"
     inkscape:window-height="938"
     inkscape:window-x="0"
     inkscape:window-y="25"
     inkscape:window-maximized="0"
     inkscape:current-layer="layer1" />
  <defs
     id="defs13712" />
  <g
     inkscape:label="Layer 1"
     inkscape:groupmode="layer"
     id="layer1"
     transform="translate(-47.420986,-98.223042)">
    <g
       fill="#2e5343"
       fill-opacity="1"
       id="g11758"
       transform="matrix(0.67620632,0,0,0.67620632,26.11905,-160.87725)"
       style="fill:#000000">
      <g
         id="use11756"
         transform="translate(31.049,390.98001)"
         style="fill:#000000">
        <path
           d="m 9.390625,-3.328125 c 0,1.011719 -0.339844,1.902344 -1.015625,2.671875 -0.398438,0.4375 -0.84375,0.773438 -1.34375,1.015625 -0.492188,0.25 -0.984375,0.375 -1.484375,0.375 -0.792969,0 -1.429687,-0.296875 -1.90625,-0.890625 -0.523437,-0.625 -0.78125,-1.492188 -0.78125,-2.609375 0,-0.425781 0.09375,-0.867187 0.28125,-1.328125 0.25,-0.625 0.648437,-1.125 1.203125,-1.5 0.5625,-0.375 1.148438,-0.5625 1.765625,-0.5625 0.351563,0 0.648437,0.171875 0.890625,0.515625 0.25,0.34375 0.375,0.746094 0.375,1.203125 0,0.199219 -0.101562,0.398438 -0.296875,0.59375 -0.199219,0.1875 -0.382813,0.28125 -0.546875,0.28125 -0.355469,0 -0.6875,-0.238281 -1,-0.71875 C 5.414062,-4.457031 5.328125,-4.570312 5.265625,-4.625 5.171875,-4.707031 5.054688,-4.75 4.921875,-4.75 c -0.980469,0 -1.46875,0.746094 -1.46875,2.234375 0,0.773437 0.15625,1.386719 0.46875,1.84375 C 4.234375,-0.222656 4.632812,0 5.125,0 c 0.1875,0 0.28125,-0.0664062 0.28125,-0.203125 0,-0.101563 -0.070312,-0.332031 -0.203125,-0.6875 -0.125,-0.363281 -0.1875,-0.628906 -0.1875,-0.796875 0,-0.03125 -0.00781,-0.082031 -0.015625,-0.15625 -0.011719,-0.082031 -0.015625,-0.148438 -0.015625,-0.203125 0,-0.34375 0.164063,-0.515625 0.5,-0.515625 0.125,0 0.289063,0.039062 0.5,0.109375 0.207031,0.074219 0.347656,0.109375 0.421875,0.109375 0.519531,0 1.003906,-0.234375 1.453125,-0.703125 0.445313,-0.5 0.671875,-1.085937 0.671875,-1.765625 0,-0.8125 -0.246094,-1.441406 -0.734375,-1.890625 -0.480469,-0.457031 -1.152344,-0.6875 -2.015625,-0.6875 -0.75,0 -1.484375,0.234375 -2.203125,0.703125 C 2.867188,-6.226562 2.289062,-5.597656 1.84375,-4.796875 1.269531,-3.785156 0.984375,-2.6875 0.984375,-1.5 c 0,0.804688 0.113281,1.726562 0.34375,2.78125 C 1.304688,1.476562 1.21875,1.578125 1.0625,1.578125 0.90625,1.578125 0.769531,1.320312 0.65625,0.8125 0.519531,0.257812 0.453125,-0.4375 0.453125,-1.28125 c 0,-1.9375 0.546875,-3.519531 1.640625,-4.75 1.0625,-1.1875 2.398438,-1.78125 4.015625,-1.78125 1.019531,0 1.816406,0.382812 2.390625,1.140625 0.59375,0.773437 0.890625,1.886719 0.890625,3.34375 z m 0,0"
           id="path13739"
           style="fill:#000000" />
      </g>
    </g>
  </g>
</svg>
