<?xml version="1.0" encoding="UTF-8" standalone="no"?>
<!-- Created with Inkscape (http://www.inkscape.org/) -->

<svg
   width="22.282398"
   height="24"
   viewBox="0 0 5.8955513 6.35"
   version="1.1"
   id="svg18041"
   inkscape:version="1.2.1 (9c6d41e4, 2022-07-14)"
   sodipodi:docname="guardian.svg"
   xmlns:inkscape="http://www.inkscape.org/namespaces/inkscape"
   xmlns:sodipodi="http://sodipodi.sourceforge.net/DTD/sodipodi-0.dtd"
   xmlns="http://www.w3.org/2000/svg"
   xmlns:svg="http://www.w3.org/2000/svg">
  <sodipodi:namedview
     id="namedview18043"
     pagecolor="#505050"
     bordercolor="#eeeeee"
     borderopacity="1"
     inkscape:showpageshadow="0"
     inkscape:pageopacity="0"
     inkscape:pagecheckerboard="0"
     inkscape:deskcolor="#505050"
     inkscape:document-units="mm"
     showgrid="false"
     inkscape:zoom="0.70199214"
     inkscape:cx="-182.33822"
     inkscape:cy="205.1305"
     inkscape:window-width="1390"
     inkscape:window-height="938"
     inkscape:window-x="0"
     inkscape:window-y="25"
     inkscape:window-maximized="0"
     inkscape:current-layer="layer1" />
  <defs
     id="defs18038" />
  <g
     inkscape:label="Layer 1"
     inkscape:groupmode="layer"
     id="layer1"
     transform="translate(-153.58444,-94.308613)">
    <g
       fill="#231f20"
       fill-opacity="1"
       id="g8056"
       transform="matrix(0.7860735,0,0,0.7860735,75.860443,-415.94645)">
      <g
         id="use8054"
         transform="translate(98.470001,655.40002)">
        <path
           d="m 7.90625,-4.53125 c 0,0.15625 0,0.320312 0,0.484375 0,0.15625 -0.00781,0.320313 -0.015625,0.484375 -0.011719,0.1875 -0.027344,0.390625 -0.046875,0.609375 -0.023438,0.210937 -0.046875,0.371094 -0.078125,0.484375 -0.03125,0.210938 -0.074219,0.414062 -0.125,0.609375 C 7.597656,-1.671875 7.550781,-1.488281 7.5,-1.3125 7.425781,-1.113281 7.351562,-0.921875 7.28125,-0.734375 7.21875,-0.554688 7.144531,-0.382812 7.0625,-0.21875 6.925781,-0.0078125 6.703125,0.210938 6.390625,0.453125 6.265625,0.554688 6.117188,0.648438 5.953125,0.734375 5.785156,0.828125 5.617188,0.914062 5.453125,1 L 5.375,1.03125 C 5.289062,1.082031 5.203125,1.128906 5.109375,1.171875 5.015625,1.210938 4.921875,1.257812 4.828125,1.3125 4.742188,1.363281 4.664062,1.410156 4.59375,1.453125 4.53125,1.503906 4.484375,1.554688 4.453125,1.609375 4.390625,1.640625 4.335938,1.671875 4.296875,1.703125 4.253906,1.734375 4.207031,1.765625 4.15625,1.796875 4.113281,1.765625 4.066406,1.734375 4.015625,1.703125 3.972656,1.671875 3.925781,1.640625 3.875,1.609375 3.726562,1.503906 3.578125,1.40625 3.421875,1.3125 3.265625,1.21875 3.101562,1.125 2.9375,1.03125 L 2.859375,1 C 2.691406,0.914062 2.523438,0.828125 2.359375,0.734375 2.203125,0.648438 2.054688,0.554688 1.921875,0.453125 1.765625,0.335938 1.628906,0.222656 1.515625,0.109375 1.410156,-0.00390625 1.328125,-0.113281 1.265625,-0.21875 1.179688,-0.382812 1.101562,-0.554688 1.03125,-0.734375 0.957031,-0.921875 0.890625,-1.113281 0.828125,-1.3125 0.765625,-1.488281 0.710938,-1.671875 0.671875,-1.859375 0.628906,-2.054688 0.59375,-2.257812 0.5625,-2.46875 0.519531,-2.582031 0.488281,-2.742188 0.46875,-2.953125 0.457031,-3.171875 0.445312,-3.375 0.4375,-3.5625 0.414062,-3.726562 0.40625,-3.890625 0.40625,-4.046875 c 0,-0.164063 0.003906,-0.328125 0.015625,-0.484375 0,-0.101562 0,-0.203125 0,-0.296875 0.007813,-0.09375 0.015625,-0.179687 0.015625,-0.265625 0,-0.03125 0,-0.0625 0,-0.09375 0,-0.03125 0,-0.0625 0,-0.09375 0.03125,0 0.0625,0.00781 0.09375,0.015625 0.039062,0 0.078125,0.00781 0.109375,0.015625 0.09375,0.011719 0.1875,0.023438 0.28125,0.03125 0.09375,0 0.179687,0 0.265625,0 0.050781,0 0.097656,0 0.140625,0 0.050781,0 0.101563,-0.00391 0.15625,-0.015625 0.0625,0 0.117187,0 0.171875,0 0.0625,-0.00781 0.113281,-0.019531 0.15625,-0.03125 C 1.875,-5.273438 1.925781,-5.28125 1.96875,-5.28125 2.007812,-5.289062 2.0625,-5.300781 2.125,-5.3125 2.1875,-5.32031 2.242188,-5.332031 2.296875,-5.34375 2.359375,-5.35156 2.414062,-5.363281 2.46875,-5.375 c 0.195312,-0.0625 0.382812,-0.128906 0.5625,-0.203125 0.175781,-0.082031 0.34375,-0.164063 0.5,-0.25 C 3.644531,-5.910156 3.753906,-5.988281 3.859375,-6.0625 3.960938,-6.144531 4.0625,-6.21875 4.15625,-6.28125 c 0.09375,0.0625 0.191406,0.136719 0.296875,0.21875 0.113281,0.085938 0.234375,0.167969 0.359375,0.25 0.15625,0.085938 0.316406,0.164062 0.484375,0.234375 0.175781,0.074219 0.359375,0.140625 0.546875,0.203125 0.0625,0.011719 0.117188,0.023438 0.171875,0.03125 0.0625,0.011719 0.125,0.023438 0.1875,0.03125 0.050781,0.011719 0.097656,0.023438 0.140625,0.03125 0.050781,0 0.101562,0.00781 0.15625,0.015625 0.050781,0.011719 0.101562,0.023437 0.15625,0.03125 0.050781,0 0.109375,0 0.171875,0 0.050781,0.011719 0.101563,0.015625 0.15625,0.015625 0.050781,0 0.101563,0 0.15625,0 0.070313,0 0.15625,0 0.25,0 0.09375,-0.00781 0.1875,-0.019531 0.28125,-0.03125 0.03125,-0.00781 0.066406,-0.015625 0.109375,-0.015625 0.039062,-0.00781 0.078125,-0.015625 0.109375,-0.015625 v 0.1875 c 0,0.085938 0,0.171875 0,0.265625 0,0.09375 0.00391,0.195313 0.015625,0.296875 z M 0.9375,-3.578125 c 0.007812,0 0.015625,0.00781 0.015625,0.015625 h 2.4375 L 4.09375,-5.65625 c -0.0625,0.054688 -0.140625,0.109375 -0.234375,0.171875 -0.054687,0.03125 -0.117187,0.0625 -0.1875,0.09375 C 3.609375,-5.359375 3.5625,-5.332031 3.53125,-5.3125 3.46875,-5.28125 3.398438,-5.25 3.328125,-5.21875 3.265625,-5.195312 3.195312,-5.171875 3.125,-5.140625 3.050781,-5.109375 2.976562,-5.078125 2.90625,-5.046875 2.832031,-5.015625 2.75,-4.988281 2.65625,-4.96875 2.601562,-4.945312 2.550781,-4.925781 2.5,-4.90625 2.457031,-4.894531 2.40625,-4.882812 2.34375,-4.875 2.289062,-4.863281 2.238281,-4.851562 2.1875,-4.84375 2.132812,-4.832031 2.082031,-4.820312 2.03125,-4.8125 1.988281,-4.800781 1.9375,-4.789062 1.875,-4.78125 c -0.054688,0 -0.105469,0.00781 -0.15625,0.015625 -0.054688,0 -0.109375,0.00781 -0.171875,0.015625 -0.054687,0 -0.105469,0 -0.15625,0 h -0.125 c -0.023437,0 -0.042969,0 -0.0625,0 -0.023437,-0.00781 -0.042969,-0.015625 -0.0625,-0.015625 -0.042969,0 -0.074219,-0.00391 -0.09375,-0.015625 h -0.09375 v 0.109375 C 0.941406,-4.648438 0.9375,-4.617188 0.9375,-4.578125 Z m 1.109375,3.5 c 0.00781,0.0234375 0.023437,0.0390625 0.046875,0.046875 0.03125,0 0.054688,0.0078125 0.078125,0.015625 L 2.890625,-2.109375 0.96875,-3.53125 0.953125,-3.5625 c 0.007813,0.117188 0.015625,0.230469 0.015625,0.34375 0.007812,0.117188 0.023438,0.230469 0.046875,0.34375 0.00781,0.125 0.019531,0.257812 0.03125,0.390625 0.019531,0.136719 0.039063,0.273437 0.0625,0.40625 0.03125,0.136719 0.0625,0.273437 0.09375,0.40625 0.039063,0.136719 0.085937,0.273437 0.140625,0.40625 C 1.382812,-1.128906 1.4375,-1 1.5,-0.875 c 0.070312,0.117188 0.140625,0.242188 0.203125,0.375 0.019531,0.03125 0.035156,0.0625 0.046875,0.09375 0.019531,0.023438 0.035156,0.042969 0.046875,0.0625 0.03125,0.023438 0.050781,0.042969 0.0625,0.0625 0.019531,0.023438 0.039063,0.046875 0.0625,0.078125 0.019531,0.03125 0.035156,0.058594 0.046875,0.078125 0.019531,0.011719 0.046875,0.0273438 0.078125,0.046875 z m 3.734375,0.3125 C 5.8125,0.210938 5.84375,0.191406 5.875,0.171875 5.914062,0.148438 5.945312,0.128906 5.96875,0.109375 l -1.8125,-1.28125 -1.8125,1.28125 c 0.03125,0.019531 0.0625,0.039063 0.09375,0.0625 0.039062,0.019531 0.070312,0.039063 0.09375,0.0625 0.039062,0.019531 0.078125,0.039063 0.109375,0.0625 C 2.679688,0.316406 2.71875,0.34375 2.75,0.375 2.78125,0.382812 2.804688,0.398438 2.828125,0.421875 2.859375,0.441406 2.894531,0.460938 2.9375,0.484375 2.96875,0.492188 3,0.507812 3.03125,0.53125 c 0.039062,0.019531 0.082031,0.039062 0.125,0.0625 L 3.421875,0.734375 C 3.460938,0.753906 3.5,0.773438 3.53125,0.796875 3.570312,0.816406 3.59375,0.832031 3.59375,0.84375 3.664062,0.863281 3.726562,0.882812 3.78125,0.90625 3.832031,0.9375 3.878906,0.96875 3.921875,1 4.015625,1.0625 4.09375,1.117188 4.15625,1.171875 4.195312,1.140625 4.238281,1.109375 4.28125,1.078125 4.320312,1.054688 4.363281,1.03125 4.40625,1 4.445312,0.96875 4.484375,0.9375 4.515625,0.90625 4.554688,0.882812 4.582031,0.863281 4.59375,0.84375 4.59375,0.832031 4.628906,0.816406 4.703125,0.796875 4.785156,0.773438 4.851562,0.753906 4.90625,0.734375 L 5.171875,0.59375 C 5.210938,0.570312 5.25,0.550781 5.28125,0.53125 5.320312,0.507812 5.359375,0.492188 5.390625,0.484375 5.421875,0.460938 5.445312,0.441406 5.46875,0.421875 5.5,0.398438 5.523438,0.382812 5.546875,0.375 5.585938,0.34375 5.625,0.316406 5.65625,0.296875 5.695312,0.273438 5.738281,0.253906 5.78125,0.234375 Z M 7.296875,-2.875 c 0.00781,-0.113281 0.019531,-0.226562 0.03125,-0.34375 0.019531,-0.113281 0.03125,-0.226562 0.03125,-0.34375 v 0.03125 L 5.4375,-2.109375 6.140625,-0.015625 C 6.171875,-0.0234375 6.195312,-0.03125 6.21875,-0.03125 6.238281,-0.0390625 6.257812,-0.0546875 6.28125,-0.078125 6.300781,-0.0976562 6.316406,-0.113281 6.328125,-0.125 6.347656,-0.144531 6.367188,-0.171875 6.390625,-0.203125 6.410156,-0.234375 6.429688,-0.257812 6.453125,-0.28125 6.472656,-0.300781 6.488281,-0.320312 6.5,-0.34375 6.519531,-0.363281 6.539062,-0.382812 6.5625,-0.40625 6.582031,-0.4375 6.597656,-0.46875 6.609375,-0.5 6.679688,-0.632812 6.75,-0.757812 6.8125,-0.875 6.875,-1 6.925781,-1.128906 6.96875,-1.265625 7.070312,-1.535156 7.148438,-1.804688 7.203125,-2.078125 7.222656,-2.210938 7.238281,-2.347656 7.25,-2.484375 7.269531,-2.617188 7.285156,-2.75 7.296875,-2.875 Z M 7.375,-4.015625 V -4.46875 C 7.363281,-4.5 7.359375,-4.535156 7.359375,-4.578125 V -4.78125 H 7.265625 C 7.242188,-4.769531 7.21875,-4.765625 7.1875,-4.765625 c -0.03125,0 -0.058594,0.00781 -0.078125,0.015625 -0.011719,0 -0.027344,0 -0.046875,0 h -0.125 c -0.0625,0 -0.125,0 -0.1875,0 C 6.695312,-4.757812 6.640625,-4.765625 6.578125,-4.765625 6.523438,-4.773438 6.472656,-4.78125 6.421875,-4.78125 6.378906,-4.789062 6.335938,-4.800781 6.296875,-4.8125 6.242188,-4.820312 6.191406,-4.832031 6.140625,-4.84375 6.085938,-4.851562 6.03125,-4.863281 5.96875,-4.875 5.914062,-4.882812 5.863281,-4.894531 5.8125,-4.90625 5.757812,-4.925781 5.703125,-4.945312 5.640625,-4.96875 5.554688,-4.988281 5.476562,-5.015625 5.40625,-5.046875 5.34375,-5.078125 5.269531,-5.109375 5.1875,-5.140625 5.113281,-5.171875 5.039062,-5.203125 4.96875,-5.234375 4.90625,-5.265625 4.84375,-5.289062 4.78125,-5.3125 4.6875,-5.332031 4.625,-5.359375 4.59375,-5.390625 4.5625,-5.421875 4.519531,-5.453125 4.46875,-5.484375 4.382812,-5.535156 4.304688,-5.59375 4.234375,-5.65625 L 4.9375,-3.5625 h 2.421875 v -0.015625 c 0,-0.039063 0,-0.078125 0,-0.109375 C 7.367188,-3.726562 7.375,-3.765625 7.375,-3.796875 Z m 0,0"
           id="path18065" />
      </g>
    </g>
  </g>
</svg>
