<?xml version="1.0" encoding="UTF-8" standalone="no"?>
<!-- Created with Inkscape (http://www.inkscape.org/) -->

<svg
   width="38.874523"
   height="24"
   viewBox="0 0 10.285551 6.3500003"
   version="1.1"
   id="svg18082"
   inkscape:version="1.2.1 (9c6d41e4, 2022-07-14)"
   sodipodi:docname="list_item.svg"
   xmlns:inkscape="http://www.inkscape.org/namespaces/inkscape"
   xmlns:sodipodi="http://sodipodi.sourceforge.net/DTD/sodipodi-0.dtd"
   xmlns="http://www.w3.org/2000/svg"
   xmlns:svg="http://www.w3.org/2000/svg">
  <sodipodi:namedview
     id="namedview18084"
     pagecolor="#505050"
     bordercolor="#eeeeee"
     borderopacity="1"
     inkscape:showpageshadow="0"
     inkscape:pageopacity="0"
     inkscape:pagecheckerboard="0"
     inkscape:deskcolor="#505050"
     inkscape:document-units="mm"
     showgrid="false"
     inkscape:zoom="0.70199214"
     inkscape:cx="-267.80927"
     inkscape:cy="200.85695"
     inkscape:window-width="1390"
     inkscape:window-height="938"
     inkscape:window-x="0"
     inkscape:window-y="25"
     inkscape:window-maximized="0"
     inkscape:current-layer="layer1" />
  <defs
     id="defs18079" />
  <g
     inkscape:label="Layer 1"
     inkscape:groupmode="layer"
     id="layer1"
     transform="translate(-175.97057,-95.385548)">
    <g
       fill="#363b20"
       fill-opacity="1"
       id="g11509"
       transform="matrix(1.5452471,0,0,1.5452471,-332.31915,-285.67839)"
       style="fill:#000000">
      <g
         id="use11507"
         transform="translate(328.5,250.68201)"
         style="fill:#000000">
        <path
           d="m 7.09375,-1.953125 c 0,0.054687 -0.199219,0.1875 -0.59375,0.40625 -0.625,0.335937 -1.15625,0.652344 -1.59375,0.953125 -0.1875,0.136719 -0.375,0.277344 -0.5625,0.421875 C 4.15625,-0.0351562 3.976562,0.03125 3.8125,0.03125 3.570312,0.03125 3.363281,-0.0390625 3.1875,-0.1875 2.957031,-0.363281 2.734375,-0.546875 2.515625,-0.734375 1.796875,-1.210938 1.117188,-1.59375 0.484375,-1.875 0.453125,-1.894531 0.4375,-1.925781 0.4375,-1.96875 0.4375,-2.03125 0.5,-2.097656 0.625,-2.171875 0.757812,-2.242188 0.894531,-2.3125 1.03125,-2.375 c 0.507812,-0.300781 1.109375,-0.703125 1.796875,-1.203125 0.457031,-0.332031 0.753906,-0.5 0.890625,-0.5 0.050781,0 0.234375,0.117187 0.546875,0.34375 0.40625,0.304687 0.78125,0.546875 1.125,0.734375 0.425781,0.230469 0.847656,0.460938 1.265625,0.6875 0.289062,0.15625 0.4375,0.277344 0.4375,0.359375 z M 5.96875,-2.3125 c 0,-0.03125 -0.00781,-0.0625 -0.015625,-0.09375 C 5.847656,-2.425781 5.632812,-2.535156 5.3125,-2.734375 4.925781,-2.972656 4.546875,-3.210938 4.171875,-3.453125 3.941406,-3.660156 3.769531,-3.773438 3.65625,-3.796875 c -0.542969,0.375 -1.085938,0.75 -1.625,1.125 -0.386719,0.273437 -0.589844,0.445313 -0.609375,0.515625 0.65625,0.324219 1.234375,0.65625 1.734375,1 0.382812,0.273438 0.570312,0.40625 0.5625,0.40625 v -0.015625 c 1.132812,-0.832031 1.882812,-1.347656 2.25,-1.546875 z m -0.984375,0 c 0,0.074219 -0.0625,0.136719 -0.1875,0.1875 C 4.566406,-2.03125 4.4375,-1.972656 4.40625,-1.953125 4.332031,-1.898438 4.203125,-1.78125 4.015625,-1.59375 3.867188,-1.457031 3.757812,-1.390625 3.6875,-1.390625 3.632812,-1.390625 3.519531,-1.488281 3.34375,-1.6875 3.144531,-1.832031 2.925781,-1.957031 2.6875,-2.0625 2.5,-2.144531 2.394531,-2.203125 2.375,-2.234375 c 0.050781,-0.113281 0.148438,-0.195313 0.296875,-0.25 0.1875,-0.09375 0.289063,-0.144531 0.3125,-0.15625 0.445313,-0.34375 0.691406,-0.515625 0.734375,-0.515625 0.00781,0 0.117188,0.074219 0.328125,0.21875 0.269531,0.179688 0.566406,0.34375 0.890625,0.5 0.03125,0.0625 0.046875,0.105469 0.046875,0.125 z m 0,0"
           id="path18106"
           style="fill:#000000" />
      </g>
    </g>
  </g>
</svg>
