<?xml version="1.0" encoding="UTF-8" standalone="no"?>
<!-- Created with Inkscape (http://www.inkscape.org/) -->

<svg
   width="24.652428"
   height="24"
   viewBox="0 0 6.5226213 6.3500001"
   version="1.1"
   id="svg19901"
   inkscape:version="1.2.1 (9c6d41e4, 2022-07-14)"
   sodipodi:docname="per_investigator.svg"
   xmlns:inkscape="http://www.inkscape.org/namespaces/inkscape"
   xmlns:sodipodi="http://sodipodi.sourceforge.net/DTD/sodipodi-0.dtd"
   xmlns="http://www.w3.org/2000/svg"
   xmlns:svg="http://www.w3.org/2000/svg">
  <sodipodi:namedview
     id="namedview19903"
     pagecolor="#505050"
     bordercolor="#eeeeee"
     borderopacity="1"
     inkscape:showpageshadow="0"
     inkscape:pageopacity="0"
     inkscape:pagecheckerboard="0"
     inkscape:deskcolor="#505050"
     inkscape:document-units="mm"
     showgrid="false"
     inkscape:zoom="0.70199214"
     inkscape:cx="-103.98977"
     inkscape:cy="72.650386"
     inkscape:window-width="1390"
     inkscape:window-height="938"
     inkscape:window-x="0"
     inkscape:window-y="25"
     inkscape:window-maximized="0"
     inkscape:current-layer="layer1" />
  <defs
     id="defs19898" />
  <g
     inkscape:label="Layer 1"
     inkscape:groupmode="layer"
     id="layer1"
     transform="translate(-132.71975,-129.36616)">
    <g
       fill="#231f20"
       fill-opacity="1"
       id="g14388"
       transform="matrix(0.78912621,0,0,0.78912621,-238.24218,-153.93468)">
      <g
         id="use14386"
         transform="translate(469.96701,365.16199)">
        <path
           d="m 8.359375,-0.234375 c 0.00781,0.011719 0.015625,0.023437 0.015625,0.03125 0,0.011719 0.00391,0.023437 0.015625,0.03125 0,0.011719 0,0.015625 0,0.015625 -0.273437,0.1171875 -0.539063,0.234375 -0.796875,0.359375 -0.25,0.125 -0.492188,0.25 -0.71875,0.375 0.039062,0.070313 0.078125,0.144531 0.109375,0.21875 C 7.015625,0.878906 7.039062,0.957031 7.0625,1.03125 6.875,1.050781 6.6875,1.078125 6.5,1.109375 c -0.167969,0.03125 -0.34375,0.070313 -0.53125,0.125 -0.1875,0.0625 -0.367188,0.125 -0.53125,0.1875 C 5.40625,1.441406 5.375,1.460938 5.34375,1.484375 5.320312,1.503906 5.296875,1.53125 5.265625,1.5625 5.109375,1.65625 4.945312,1.734375 4.78125,1.796875 4.726562,1.804688 4.675781,1.816406 4.625,1.828125 4.582031,1.847656 4.535156,1.863281 4.484375,1.875 c -0.03125,0 -0.0625,0 -0.09375,0 C 4.359375,1.882812 4.320312,1.890625 4.28125,1.890625 4.226562,1.890625 4.179688,1.882812 4.140625,1.875 4.097656,1.875 4.050781,1.867188 4,1.859375 3.851562,1.816406 3.710938,1.757812 3.578125,1.6875 3.515625,1.65625 3.453125,1.613281 3.390625,1.5625 3.328125,1.519531 3.257812,1.476562 3.1875,1.4375 3.019531,1.363281 2.835938,1.296875 2.640625,1.234375 c -0.1875,-0.054687 -0.367187,-0.09375 -0.53125,-0.125 -0.1875,-0.03125 -0.375,-0.0625 -0.5625,-0.09375 0.00781,-0.074219 0.035156,-0.15625 0.078125,-0.25 0.039062,-0.09375 0.085938,-0.179687 0.140625,-0.25 C 1.523438,0.390625 1.269531,0.269531 1,0.15625 0.726562,0.0390625 0.4375,-0.0625 0.125,-0.15625 V -0.171875 C 0.132812,-0.179688 0.140625,-0.1875 0.140625,-0.1875 c 0,-0.007812 0.003906,-0.019531 0.015625,-0.03125 0.070312,-0.125 0.160156,-0.25 0.265625,-0.375 0.082031,-0.09375 0.160156,-0.1875 0.234375,-0.28125 0.082031,-0.09375 0.164062,-0.179688 0.25,-0.265625 0.09375,-0.09375 0.191406,-0.1875 0.296875,-0.28125 0.113281,-0.101563 0.226563,-0.207031 0.34375,-0.3125 0.019531,-0.00781 0.03125,-0.019531 0.03125,-0.03125 H 1.59375 L 1.578125,-1.796875 C 1.546875,-1.804688 1.519531,-1.816406 1.5,-1.828125 1.488281,-1.835938 1.472656,-1.847656 1.453125,-1.859375 1.378906,-1.898438 1.304688,-1.941406 1.234375,-1.984375 1.171875,-2.035156 1.109375,-2.09375 1.046875,-2.15625 0.992188,-2.195312 0.945312,-2.238281 0.90625,-2.28125 0.863281,-2.320312 0.820312,-2.375 0.78125,-2.4375 0.695312,-2.539062 0.625,-2.644531 0.5625,-2.75 0.539062,-2.789062 0.519531,-2.828125 0.5,-2.859375 0.476562,-2.898438 0.457031,-2.945312 0.4375,-3 0.414062,-3.03125 0.398438,-3.054688 0.390625,-3.078125 c 0,-0.03125 -0.007813,-0.0625 -0.015625,-0.09375 0,-0.03125 -0.007812,-0.054687 -0.015625,-0.078125 0,-0.019531 0,-0.046875 0,-0.078125 C 0.367188,-3.335938 0.375,-3.351562 0.375,-3.375 c 0,-0.019531 0,-0.035156 0,-0.046875 0.039062,-0.082031 0.101562,-0.140625 0.1875,-0.171875 0.03125,-0.019531 0.0625,-0.019531 0.09375,0 0.007812,0 0.019531,0 0.03125,0 0.019531,0 0.039062,0.00781 0.0625,0.015625 0.101562,0.03125 0.203125,0.058594 0.296875,0.078125 0.101563,0.023438 0.207031,0.046875 0.3125,0.078125 0.050781,0.011719 0.101563,0.023437 0.15625,0.03125 0.0625,0.011719 0.125,0.023437 0.1875,0.03125 0.00781,0.011719 0.019531,0.015625 0.03125,0.015625 0.019531,0 0.039063,0 0.0625,0 h 0.03125 V -3.375 c 0,-0.03125 0,-0.054688 0,-0.078125 0.00781,-0.03125 0.015625,-0.0625 0.015625,-0.09375 0.00781,-0.03125 0.015625,-0.0625 0.015625,-0.09375 0,-0.039063 0.00391,-0.078125 0.015625,-0.109375 0,-0.019531 0,-0.046875 0,-0.078125 0.00781,-0.03125 0.019531,-0.0625 0.03125,-0.09375 0,-0.039063 0,-0.078125 0,-0.109375 0.00781,-0.039062 0.015625,-0.082031 0.015625,-0.125 C 1.929688,-4.1875 1.9375,-4.21875 1.9375,-4.25 c 0.00781,-0.039062 0.019531,-0.078125 0.03125,-0.109375 0.00781,-0.039063 0.015625,-0.082031 0.015625,-0.125 0,-0.039063 0.00391,-0.082031 0.015625,-0.125 C 2.007812,-4.660156 2.019531,-4.707031 2.03125,-4.75 2.039062,-4.789062 2.050781,-4.835938 2.0625,-4.890625 2.082031,-4.992188 2.101562,-5.09375 2.125,-5.1875 2.15625,-5.289062 2.1875,-5.390625 2.21875,-5.484375 2.238281,-5.523438 2.253906,-5.570312 2.265625,-5.625 2.285156,-5.675781 2.3125,-5.726562 2.34375,-5.78125 2.351562,-5.8125 2.363281,-5.835938 2.375,-5.859375 2.394531,-5.878906 2.414062,-5.90625 2.4375,-5.9375 2.445312,-5.945312 2.460938,-5.960938 2.484375,-5.984375 2.503906,-6.003906 2.519531,-6.019531 2.53125,-6.03125 2.550781,-6.050781 2.566406,-6.066406 2.578125,-6.078125 2.597656,-6.097656 2.617188,-6.113281 2.640625,-6.125 2.679688,-6.132812 2.71875,-6.140625 2.75,-6.140625 c 0.082031,-0.019531 0.15625,-0.019531 0.21875,0 0.050781,0.011719 0.101562,0.023437 0.15625,0.03125 0.0625,0 0.113281,0.00781 0.15625,0.015625 0.03125,0.011719 0.054688,0.015625 0.078125,0.015625 0.03125,0 0.0625,0.00781 0.09375,0.015625 0.039063,0 0.078125,0.00781 0.109375,0.015625 0.039062,0 0.082031,0 0.125,0 0.03125,0.011719 0.0625,0.015625 0.09375,0.015625 0.03125,0 0.066406,0 0.109375,0 0.039063,0 0.082031,0 0.125,0 0.039063,0 0.085937,0 0.140625,0 h 0.328125 c 0.0625,0 0.101563,0 0.125,0 h 0.15625 c 0.03125,-0.00781 0.0625,-0.015625 0.09375,-0.015625 0.039063,0 0.078125,-0.00391 0.109375,-0.015625 0.03125,0 0.0625,0 0.09375,0 0.03125,-0.00781 0.0625,-0.015625 0.09375,-0.015625 0.039062,0 0.085938,-0.00781 0.140625,-0.03125 C 5.347656,-6.117188 5.394531,-6.125 5.4375,-6.125 5.476562,-6.132812 5.523438,-6.140625 5.578125,-6.140625 5.597656,-6.148438 5.625,-6.15625 5.65625,-6.15625 c 0.039062,0 0.078125,0 0.109375,0 0.039063,0.011719 0.082031,0.023438 0.125,0.03125 0.00781,0.011719 0.019531,0.023438 0.03125,0.03125 0.019531,0.011719 0.035156,0.023438 0.046875,0.03125 0.019531,0.023438 0.035156,0.042969 0.046875,0.0625 0.019531,0.011719 0.039063,0.027344 0.0625,0.046875 0.019531,0.03125 0.039063,0.070313 0.0625,0.109375 0.019531,0.03125 0.035156,0.0625 0.046875,0.09375 0.050781,0.117188 0.097656,0.226562 0.140625,0.328125 0.019531,0.074219 0.039063,0.152344 0.0625,0.234375 0.019531,0.074219 0.035156,0.148438 0.046875,0.21875 0.019531,0.085938 0.035156,0.164062 0.046875,0.234375 0.019531,0.074219 0.039063,0.148437 0.0625,0.21875 C 6.554688,-4.441406 6.5625,-4.375 6.5625,-4.3125 c 0.00781,0.054688 0.019531,0.109375 0.03125,0.171875 0.00781,0.054687 0.015625,0.109375 0.015625,0.171875 0.00781,0.054688 0.019531,0.105469 0.03125,0.15625 0.00781,0.054688 0.015625,0.101562 0.015625,0.140625 0,0.03125 0.00391,0.074219 0.015625,0.125 0,0.03125 0.00391,0.0625 0.015625,0.09375 0.00781,0.023437 0.015625,0.046875 0.015625,0.078125 v 0.015625 c 0,0.011719 0.00391,0.015625 0.015625,0.015625 0.00781,0 0.023438,0 0.046875,0 0.039063,-0.00781 0.082031,-0.015625 0.125,-0.015625 0.050781,-0.00781 0.101563,-0.019531 0.15625,-0.03125 0.125,-0.039063 0.25,-0.078125 0.375,-0.109375 0.125,-0.03125 0.25,-0.0625 0.375,-0.09375 0.019531,0 0.046875,-0.00391 0.078125,-0.015625 0.050781,0 0.085938,0.00781 0.109375,0.015625 0.09375,0.042969 0.148437,0.121094 0.171875,0.234375 0,0.03125 0,0.0625 0,0.09375 0,0.023437 -0.00781,0.046875 -0.015625,0.078125 0,0.074219 -0.023437,0.140625 -0.0625,0.203125 -0.03125,0.085937 -0.074219,0.167969 -0.125,0.25 -0.03125,0.0625 -0.070313,0.121094 -0.109375,0.171875 -0.042969,0.054688 -0.085938,0.109375 -0.125,0.171875 -0.105469,0.125 -0.214844,0.234375 -0.328125,0.328125 -0.136719,0.105469 -0.273437,0.1875 -0.40625,0.25 -0.011719,0.011719 -0.023437,0.015625 -0.03125,0.015625 0,0 -0.00781,0.00781 -0.015625,0.015625 v 0.015625 C 6.945312,-1.753906 6.953125,-1.75 6.953125,-1.75 c 0.144531,0.125 0.289063,0.261719 0.4375,0.40625 0.113281,0.09375 0.21875,0.199219 0.3125,0.3125 0.101563,0.105469 0.203125,0.210938 0.296875,0.3125 0.0625,0.074219 0.117188,0.152344 0.171875,0.234375 0.0625,0.085937 0.125,0.167969 0.1875,0.25 z M 4.484375,1.375 C 4.585938,1.351562 4.675781,1.320312 4.75,1.28125 4.894531,1.226562 5.035156,1.148438 5.171875,1.046875 5.242188,0.992188 5.3125,0.929688 5.375,0.859375 5.4375,0.796875 5.492188,0.726562 5.546875,0.65625 5.628906,0.5625 5.703125,0.460938 5.765625,0.359375 5.828125,0.265625 5.882812,0.164062 5.9375,0.0625 6.039062,-0.164062 6.117188,-0.394531 6.171875,-0.625 6.179688,-0.675781 6.191406,-0.726562 6.203125,-0.78125 6.210938,-0.832031 6.222656,-0.882812 6.234375,-0.9375 6.242188,-0.96875 6.25,-1 6.25,-1.03125 c 0,-0.03125 0,-0.0625 0,-0.09375 0.00781,-0.03125 0.015625,-0.066406 0.015625,-0.109375 0,-0.039063 0,-0.085937 0,-0.140625 V -1.546875 C 6.265625,-1.554688 6.257812,-1.5625 6.25,-1.5625 H 6.234375 c -0.011719,0.023438 -0.027344,0.03125 -0.046875,0.03125 -0.011719,0 -0.027344,0.00781 -0.046875,0.015625 -0.074219,0.023437 -0.148437,0.042969 -0.21875,0.0625 -0.0625,0.011719 -0.136719,0.027344 -0.21875,0.046875 -0.042969,0.011719 -0.089844,0.023438 -0.140625,0.03125 -0.042969,0.011719 -0.089844,0.023438 -0.140625,0.03125 -0.03125,0.011719 -0.0625,0.015625 -0.09375,0.015625 -0.023437,0 -0.046875,0.00781 -0.078125,0.015625 -0.023438,0 -0.046875,0 -0.078125,0 -0.023437,0 -0.042969,0.011719 -0.0625,0.03125 -0.03125,0 -0.0625,0 -0.09375,0 -0.023437,0 -0.046875,0.00781 -0.078125,0.015625 -0.03125,0 -0.070312,0.00781 -0.109375,0.015625 -0.03125,0 -0.070313,0 -0.109375,0 -0.03125,0 -0.0625,0.00781 -0.09375,0.015625 -0.03125,0 -0.0625,0 -0.09375,0 H 4.484375 c -0.011719,0 -0.027344,0 -0.046875,0 -0.011719,0 -0.023438,0 -0.03125,0 -0.074219,0 -0.148438,0.00781 -0.21875,0.015625 -0.0625,0 -0.125,-0.00391 -0.1875,-0.015625 H 3.96875 c -0.03125,0 -0.0625,0 -0.09375,0 C 3.84375,-1.242188 3.8125,-1.25 3.78125,-1.25 3.75,-1.25 3.703125,-1.253906 3.640625,-1.265625 c -0.054687,0 -0.089844,-0.00391 -0.109375,-0.015625 -0.03125,0 -0.0625,0 -0.09375,0 -0.023438,0 -0.046875,-0.00781 -0.078125,-0.03125 -0.023437,0 -0.054687,0 -0.09375,0 -0.03125,-0.00781 -0.0625,-0.015625 -0.09375,-0.015625 C 3.117188,-1.335938 3.066406,-1.347656 3.015625,-1.359375 2.972656,-1.367188 2.925781,-1.378906 2.875,-1.390625 2.789062,-1.398438 2.710938,-1.414062 2.640625,-1.4375 2.566406,-1.457031 2.488281,-1.484375 2.40625,-1.515625 2.382812,-1.523438 2.359375,-1.53125 2.328125,-1.53125 c -0.023437,0 -0.042969,-0.00781 -0.0625,-0.03125 C 2.253906,-1.5625 2.25,-1.550781 2.25,-1.53125 V -1.5 c 0,0.054688 0,0.105469 0,0.15625 0,0.042969 0.00391,0.089844 0.015625,0.140625 0,0.042969 0,0.089844 0,0.140625 0.00781,0.042969 0.019531,0.089844 0.03125,0.140625 0.00781,0.0625 0.019531,0.132813 0.03125,0.203125 0.019531,0.0625 0.039063,0.125 0.0625,0.1875 0.113281,0.375 0.296875,0.722656 0.546875,1.046875 0.070312,0.09375 0.144531,0.179687 0.21875,0.265625 0.082031,0.082031 0.171875,0.164062 0.265625,0.25 0.039063,0.039062 0.085937,0.078125 0.140625,0.109375 0.0625,0.039063 0.125,0.070313 0.1875,0.09375 0.070312,0.050781 0.164062,0.09375 0.28125,0.125 C 4.0625,1.367188 4.085938,1.375 4.109375,1.375 4.140625,1.38281 4.164062,1.390625 4.1875,1.390625 c 0.09375,0 0.191406,-0.00781 0.296875,-0.015625 z m 0,0"
           id="path19925" />
      </g>
    </g>
  </g>
</svg>
