<?xml version="1.0" encoding="UTF-8" standalone="no"?>
<!-- Created with Inkscape (http://www.inkscape.org/) -->

<svg
   width="23.059729"
   height="23.999964"
   viewBox="0 0 6.1012199 6.3499904"
   version="1.1"
   id="svg22300"
   inkscape:version="1.2.1 (9c6d41e4, 2022-07-14)"
   sodipodi:docname="weakness.svg"
   xmlns:inkscape="http://www.inkscape.org/namespaces/inkscape"
   xmlns:sodipodi="http://sodipodi.sourceforge.net/DTD/sodipodi-0.dtd"
   xmlns="http://www.w3.org/2000/svg"
   xmlns:svg="http://www.w3.org/2000/svg">
  <sodipodi:namedview
     id="namedview22302"
     pagecolor="#505050"
     bordercolor="#eeeeee"
     borderopacity="1"
     inkscape:showpageshadow="0"
     inkscape:pageopacity="0"
     inkscape:pagecheckerboard="0"
     inkscape:deskcolor="#505050"
     inkscape:document-units="mm"
     showgrid="false"
     inkscape:zoom="0.70199214"
     inkscape:cx="-4.2735521"
     inkscape:cy="180.91371"
     inkscape:window-width="1390"
     inkscape:window-height="938"
     inkscape:window-x="0"
     inkscape:window-y="25"
     inkscape:window-maximized="0"
     inkscape:current-layer="layer1" />
  <defs
     id="defs22297" />
  <g
     inkscape:label="Layer 1"
     inkscape:groupmode="layer"
     id="layer1"
     transform="translate(-106.1815,-100.71668)">
    <path
       fill-rule="nonzero"
       fill="#231f20"
       fill-opacity="1"
       d="m 107.61499,105.02744 c -0.0363,0.005 -0.0372,-0.0281 -0.0681,-0.0345 -0.0399,-0.009 -0.0881,0.008 -0.12445,0.0218 -0.049,0.0182 -0.0918,0.0228 -0.13173,0.0627 -0.0309,0.0309 -0.0527,0.07 -0.0772,0.10629 -0.0218,0.0327 -0.0272,0.0654 -0.0409,0.10084 -0.004,0.01 -0.002,0.0118 -0.01,0.019 -0.0145,0.0118 -0.0118,0.005 -0.019,0.0218 -0.01,0.0227 -0.0254,0.0454 -0.0309,0.0699 -0.005,0.0181 -0.004,0.0391 -0.008,0.0572 -0.008,0.0372 -0.0255,0.0763 0.0154,0.10175 0.02,0.0118 0.0391,0.009 0.0608,0.0127 0.0245,0.005 0.0445,0.02 0.0672,0.0281 0.0254,0.009 0.0518,0.007 0.0754,0.0218 0.0218,0.0136 0.0373,0.0218 0.0627,0.0272 0.0245,0.007 0.0445,0.0182 0.0663,0.0291 0.02,0.009 0.04,0.0127 0.0608,0.0182 0.0173,0.005 0.0318,0.0164 0.05,0.0191 0.0264,0.005 0.0536,0.003 0.0781,-0.008 0.0209,-0.01 0.0382,-0.02 0.0599,-0.0264 0.0318,-0.0109 0.0545,-0.0309 0.0845,-0.0454 0.019,-0.01 0.0399,-0.0118 0.0536,-0.0291 0.019,-0.0227 0.0245,-0.0527 0.0391,-0.0781 0.0163,-0.03 0.0209,-0.0618 0.0336,-0.0936 0.0109,-0.0272 0.0272,-0.0517 0.0345,-0.0809 0.009,-0.0354 -0.0173,-0.0618 -0.0327,-0.0908 -0.0146,-0.0281 -0.0354,-0.049 -0.0636,-0.0636 -0.0272,-0.0145 -0.0636,-0.0173 -0.089,-0.0354 -0.02,-0.0136 -0.03,-0.0372 -0.0481,-0.0536 -0.0145,-0.0136 -0.0282,-0.0272 -0.0436,-0.0391 -0.0145,-0.0136 -0.0346,-0.0209 -0.0491,-0.0354 -0.009,-0.008 -0.0409,-0.0136 -0.005,-0.004"
       id="path22041"
       style="stroke-width:0.232561" />
    <path
       fill-rule="nonzero"
       fill="#231f20"
       fill-opacity="1"
       d="m 109.32286,106.41191 c -0.0445,-0.005 -0.0981,-6.6e-4 -0.14171,0.009 -0.0336,0.007 -0.0545,0.0272 -0.0817,0.0473 -0.0118,0.009 -0.0146,0.0154 -0.0227,0.0309 -0.01,0.0209 -0.0245,0.0382 -0.0318,0.0608 -0.009,0.0254 -0.02,0.0463 -0.0236,0.0727 -0.003,0.0191 -0.003,0.0391 -0.007,0.0581 -0.007,0.0527 -0.0281,0.10174 -0.0173,0.15624 0.005,0.0209 0.0154,0.0399 0.0245,0.0591 0.01,0.02 0.0173,0.039 0.0318,0.0554 0.0182,0.019 0.0345,0.0327 0.06,0.0409 0.019,0.005 0.0281,0.0173 0.0436,0.0291 0.0182,0.0127 0.0445,0.0136 0.0654,0.019 0.0209,0.005 0.0391,0.008 0.06,0.008 0.0382,0 0.0845,0.0163 0.12172,0.003 0.0282,-0.01 0.0554,-0.0291 0.0836,-0.0418 0.0327,-0.0136 0.0563,-0.0399 0.0718,-0.0718 0.01,-0.0209 0.0146,-0.0291 0.0382,-0.0318 0.0291,-0.004 0.0481,-0.0127 0.06,-0.0399 0.0145,-0.0318 0.0118,-0.0609 0.0118,-0.0954 0,-0.0191 6.6e-4,-0.0391 0,-0.0581 -6.6e-4,-0.0182 -0.01,-0.03 -0.02,-0.0445 -0.02,-0.0291 -0.0327,-0.0627 -0.0591,-0.0872 -0.03,-0.0272 -0.0591,-0.0554 -0.0854,-0.0854 -0.0118,-0.0136 -0.0236,-0.0291 -0.0391,-0.0382 -0.0109,-0.007 -0.0254,-0.007 -0.0382,-0.0118 -0.02,-0.009 -0.04,-0.0182 -0.0581,-0.0291 -0.004,0.003 -0.0318,-0.0127 -0.0473,-0.0145"
       id="path22043"
       style="stroke-width:0.232561" />
    <path
       fill-rule="nonzero"
       fill="#231f20"
       fill-opacity="1"
       d="m 111.42045,105.1192 c -0.0181,-0.0209 -0.0354,-0.0236 -0.0636,-0.0236 -0.0327,6.5e-4 -0.0545,0.0173 -0.0854,0.0245 -0.0127,0.003 -0.0245,0 -0.0372,0 -0.02,6.6e-4 -0.0391,0.008 -0.0572,0.0146 -0.0336,0.0118 -0.0718,0.0264 -0.10265,0.0454 -0.0473,0.03 -0.0672,0.0827 -0.10357,0.12263 -0.01,0.0109 -0.0227,0.0145 -0.0345,0.0236 -0.0173,0.0164 -0.0173,0.0373 -0.0209,0.06 -0.008,0.0481 -0.0173,0.10537 -0.003,0.15262 0.0173,0.0609 0.0808,0.0999 0.1172,0.14989 0.0145,0.0209 0.0209,0.0463 0.0363,0.0663 0.0109,0.0154 0.0254,0.0264 0.0409,0.0373 0.0382,0.0264 0.0654,0.0591 0.11446,0.06 0.0236,6.6e-4 0.0481,0 0.0718,0 0.03,0 0.05,-0.01 0.0772,-0.0227 0.02,-0.009 0.0418,-0.0118 0.06,-0.0218 0.0218,-0.0118 0.0436,-0.0291 0.0636,-0.0436 0.0255,-0.0182 0.0454,-0.0382 0.0645,-0.0627 0.0127,-0.0173 0.03,-0.0318 0.0436,-0.0481 0.0127,-0.0173 0.0154,-0.0118 0.0336,-0.0173 0.0227,-0.007 0.0554,-0.0245 0.0745,-0.0391 0.0363,-0.0282 0.0309,-0.0781 -6.5e-4,-0.10629 -0.0236,-0.0218 -0.0454,-0.0391 -0.06,-0.069 -0.007,-0.0136 -0.0118,-0.0282 -0.0182,-0.0418 -0.0218,-0.0463 -0.0282,-0.0827 -0.0318,-0.13262 -0.003,-0.0473 -0.0327,-0.0718 -0.0763,-0.08 -0.0281,-0.005 -0.0845,-0.0272 -0.10265,-0.0481"
       id="path22045"
       style="stroke-width:0.232561" />
    <path
       fill-rule="nonzero"
       fill="#231f20"
       fill-opacity="1"
       d="m 109.36465,100.7178 c -0.0354,0 -0.0718,-0.002 -0.1081,-6.5e-4 -0.0345,6.5e-4 -0.0681,0.0136 -0.10265,0.019 -0.05,0.009 -0.10084,0.0236 -0.13446,0.0636 -0.0382,0.0454 -0.0736,0.0899 -0.0836,0.15081 -0.004,0.0245 -0.008,0.05 -0.008,0.0745 0,0.0227 -0.004,0.049 0.002,0.0709 0.004,0.0154 0.01,0.0291 0.0127,0.0445 0.005,0.0236 0.003,0.049 0.0109,0.0709 0.0136,0.0354 0.0272,0.0709 0.0418,0.10538 0.0209,0.0463 0.0454,0.0845 0.0799,0.12265 0.008,0.008 0.0154,0.0173 0.0254,0.0236 0.0127,0.007 0.0218,0.007 0.0327,0.0182 0.0154,0.0164 0.0291,0.0327 0.05,0.0418 0.0127,0.005 0.0272,0.007 0.04,0.0136 0.0136,0.007 0.0227,0.0154 0.0354,0.0236 0.03,0.0191 0.06,0.0236 0.0945,0.0245 0.0527,0.002 0.10629,0.0136 0.15988,0.007 0.0264,-0.003 0.0445,-0.0181 0.069,-0.0254 0.0391,-0.0109 0.0509,-0.0255 0.0754,-0.0554 0.007,-0.007 0.0136,-0.01 0.019,-0.0164 0.0127,-0.0118 0.0209,-0.0272 0.0309,-0.04 0.0145,-0.0182 0.0327,-0.0309 0.0473,-0.0481 0.0209,-0.0227 0.0436,-0.0418 0.0663,-0.0618 0.0281,-0.0236 0.0563,-0.0627 0.0718,-0.0972 0.0209,-0.0473 0.02,-0.10083 0.0264,-0.15079 0.003,-0.0254 0.002,-0.0527 6.6e-4,-0.0772 -6.6e-4,-0.0318 -0.0227,-0.0672 -0.0355,-0.0972 -0.01,-0.0245 -0.0272,-0.0409 -0.0454,-0.0608 -0.01,-0.0118 -0.02,-0.0245 -0.0318,-0.0354 -0.0136,-0.0127 -0.0236,-0.0146 -0.0409,-0.0209 -0.0454,-0.0173 -0.079,-0.0572 -0.12899,-0.0591 -0.0282,-0.002 -0.0663,0.008 -0.0899,-0.007 -0.0327,-0.02 -0.13535,-0.02 -0.18259,-0.02"
       id="path22047"
       style="stroke-width:0.232561" />
    <path
       fill-rule="nonzero"
       fill="#231f20"
       fill-opacity="1"
       d="m 111.18425,101.28285 c -0.0136,0.0163 -0.0291,0.0318 -0.0427,0.0481 -0.0145,0.0182 -0.0354,0.0309 -0.0509,0.0481 -0.0218,0.0245 -0.0354,0.0563 -0.0527,0.0845 -0.0336,0.0536 -0.0536,0.10809 -0.0636,0.17078 -0.004,0.0218 -0.01,0.0354 -0.0173,0.0563 -0.009,0.0228 -0.0109,0.0464 -0.0218,0.0681 -0.0136,0.0281 -0.0291,0.0545 -0.0418,0.0836 -0.0118,0.0264 -0.0209,0.0545 -0.0363,0.0799 -0.0264,0.0445 -0.0536,0.0899 -0.0845,0.13173 -0.0218,0.0291 -0.0391,0.0636 -0.0699,0.0836 -0.0164,0.0109 -0.0291,0.0254 -0.0454,0.0363 -0.0127,0.008 -0.0273,0.0118 -0.0409,0.0163 -0.0845,0.0318 -0.1608,0.0836 -0.24801,0.11174 -0.2489,0.0781 -0.43423,0.13082 -0.66043,-0.0272 -0.0681,-0.0473 -0.1281,-0.11446 -0.16261,-0.18895 -0.0118,-0.0254 -0.0182,-0.0545 -0.05,-0.0554 -0.0345,-0.002 -0.0563,0.0363 -0.0272,0.06 -0.0191,0.06 -0.0981,0.10447 -0.15625,0.10901 -0.0663,0.005 -0.10629,0.0291 -0.15625,0.0772 -0.0355,0.0336 -0.0509,0.0627 -0.10084,0.0745 -0.0536,0.0118 -0.10992,-0.007 -0.16443,0.004 -0.0672,0.0146 -0.14534,0.0218 -0.20804,-0.0145 -0.0227,-0.0127 -0.0372,-0.0336 -0.0572,-0.0509 -0.0436,-0.0382 -0.1081,-0.0636 -0.16079,-0.0845 -0.0218,-0.008 -0.0418,-0.02 -0.0608,-0.0327 -0.0227,-0.0145 -0.0481,-0.0236 -0.069,-0.0409 -0.0463,-0.0382 -0.0963,-0.0709 -0.14445,-0.10719 -0.0345,-0.0264 -0.0645,-0.0563 -0.0954,-0.0863 -0.0436,-0.0436 -0.0827,-0.0918 -0.12718,-0.13537 -0.0264,-0.0245 -0.0563,-0.0454 -0.0808,-0.0727 -0.0209,-0.0227 -0.039,-0.049 -0.0609,-0.0718 -0.0636,-0.0654 -0.11811,-0.15352 -0.15535,-0.2371 -0.0173,-0.0409 -0.0473,-0.0799 -0.0827,-0.10719 -0.0273,-0.02 -0.0581,-0.0373 -0.0818,-0.0618 -0.0236,-0.0236 -0.0545,-0.0409 -0.0827,-0.0581 -0.0254,-0.0154 -0.0463,-0.01 -0.0727,-0.0173 -0.0255,-0.007 -0.0545,-0.004 -0.0818,-0.004 -0.03,0 -0.0627,-0.003 -0.0936,0 -0.0127,6.6e-4 -0.0245,0.009 -0.0382,0.0118 -0.0154,0.005 -0.0318,0.003 -0.0481,0.002 -0.0218,0 -0.0536,-0.002 -0.0727,0.0118 -0.0209,0.0154 0.009,0.0264 0.0191,0.0399 0.009,0.0118 0.008,0.0209 0.0236,0.0245 0.007,0.002 0.0118,0 0.0191,0.003 0.005,0.003 0.007,0.007 0.0127,0.009 0.0118,0.005 0.0218,0.002 0.0345,0.008 0.03,0.0154 0.0572,0.0254 0.0808,0.0509 0.0399,0.0436 0.0608,0.10084 0.0908,0.15081 0.0164,0.0272 0.039,0.05 0.0527,0.0781 0.004,0.01 0.007,0.02 0.01,0.03 0.0136,0.0372 0.0427,0.0672 0.0645,0.10083 0.0264,0.0409 0.0409,0.0872 0.07,0.12627 0.0291,0.04 0.0518,0.079 0.0872,0.11357 0.0182,0.0182 0.0373,0.0363 0.0554,0.0545 0.0245,0.0264 0.0445,0.0554 0.0699,0.0818 0.0209,0.0209 0.0373,0.0436 0.0545,0.0672 0.0209,0.0272 0.0445,0.0517 0.0627,0.0808 0.0154,0.0236 0.0309,0.0481 0.0481,0.0699 0.0164,0.0218 0.04,0.0382 0.0591,0.0572 0.0182,0.0182 0.0354,0.0373 0.0563,0.0527 0.0236,0.0173 0.0427,0.0363 0.0654,0.0545 0.0291,0.0218 0.0599,0.0409 0.089,0.0618 0.02,0.0136 0.0436,0.0173 0.0645,0.03 0.0309,0.0191 0.0591,0.0427 0.0927,0.0591 0.0291,0.0154 0.0554,0.0291 0.0808,0.049 0.0272,0.0218 0.0545,0.0436 0.0827,0.0636 0.0291,0.019 0.0609,0.0336 0.089,0.0536 0.12899,0.0881 0.27071,0.12173 0.40698,0.1944 0.0636,0.0336 0.12627,0.0745 0.18714,0.11356 0.0309,0.02 0.0663,0.0372 0.0936,0.0608 0.0463,0.0409 0.11355,0.099 0.14626,0.1499 0.0173,0.0264 0.03,0.0581 0.05,0.0863 0.0209,0.0291 0.0418,0.0545 0.049,0.0863 0.0318,-0.0127 0.0509,-0.0591 0.0672,-0.0872 0.0227,-0.0372 0.0309,-0.0781 0.0591,-0.11264 0.0336,-0.04 0.0727,-0.0763 0.1072,-0.1172 0.0445,-0.0536 0.0845,-0.11173 0.1299,-0.16533 0.10447,-0.12355 0.25437,-0.25074 0.42515,-0.2462 0.0345,6.6e-4 0.0681,0.005 0.10265,6.6e-4 0.12355,-0.0163 0.21076,-0.10719 0.30433,-0.1835 0.0618,-0.0509 0.13354,-0.089 0.19804,-0.13535 0.0336,-0.0236 0.0654,-0.05 0.0981,-0.0754 0.0336,-0.0254 0.0554,-0.0645 0.0854,-0.0936 0.03,-0.0291 0.0545,-0.0599 0.0781,-0.0936 0.007,-0.0109 0.0173,-0.0228 0.0236,-0.0345 0.01,-0.0191 0.008,-0.0409 0.0136,-0.0618 0.0136,-0.0509 0.0409,-0.0981 0.0645,-0.14535 0.0127,-0.0281 0.0236,-0.0563 0.0354,-0.0845 0.007,-0.0164 0.0145,-0.0309 0.02,-0.0473 0.007,-0.02 0.01,-0.0409 0.0173,-0.0599 0.005,-0.009 0.01,-0.0173 0.0146,-0.0264 0.009,-0.0173 0.0136,-0.0354 0.0209,-0.0536 0.008,-0.0209 0.0218,-0.0436 0.0345,-0.0627 0.0209,-0.0345 0.0418,-0.0599 0.0763,-0.079 0.0355,-0.02 0.0636,-0.0536 0.10174,-0.0636 0.0318,-0.009 0.0554,-0.0264 0.0845,-0.0391 0.0309,-0.0145 0.0672,-0.0236 0.0963,-0.04 0.0227,-0.0127 0.0454,-0.0363 0.0645,-0.0545 0.0336,-0.0309 -0.0218,-0.0609 -0.0481,-0.0718 -0.0345,-0.0146 -0.0827,-0.007 -0.11901,-0.007 -0.0418,0 -0.0836,-6.6e-4 -0.12536,6.6e-4 -0.0254,6.6e-4 -0.0509,0.004 -0.0763,0.005 -0.0264,0.002 -0.0545,-0.002 -0.0808,0.002 -0.0291,0.003 -0.0554,0.0118 -0.0845,0.0127 -0.0163,0 -0.0563,-0.009 -0.0654,0.007 6.6e-4,0 -0.011,0.0173 -0.0236,0.0336"
       id="path22049"
       style="stroke-width:0.232561" />
    <path
       fill-rule="nonzero"
       fill="#231f20"
       fill-opacity="1"
       d="m 109.32014,100.9758 c 0,0.0145 -0.0136,0.0281 -0.0182,0.0418 -0.007,0.0218 -0.009,0.0436 -0.0145,0.0663 -0.0173,0.0718 -0.0345,0.14262 -0.0481,0.21529 -0.0109,0.0608 0.004,0.12174 -0.008,0.1826 -0.0309,0.16897 -0.0236,0.34429 -0.0518,0.51418 -0.02,0.11991 -0.0136,0.23891 -0.0136,0.36156 0,0.11355 -0.0173,0.24254 0.0118,0.35156 0.0109,0.0427 0.0163,0.0718 0.002,0.11538 -0.0164,0.0509 -0.04,0.0918 -0.0264,0.14807 0.0109,0.0454 0.0373,0.0854 0.0363,0.13172 -6.6e-4,0.0445 -0.005,0.089 -6.6e-4,0.13354 0.004,0.0363 0.0164,0.0709 0.0154,0.1072 0,0.0554 0.0218,0.11264 0.0136,0.16715 -0.003,0.0181 -0.0209,0.0327 -0.0281,0.05 -0.0136,0.0281 -0.0227,0.0581 -0.0272,0.0872 -0.007,0.0382 -0.002,0.0781 -0.002,0.11719 6.6e-4,0.0681 -0.0145,0.13536 -0.0145,0.20349 0,0.0382 0,0.0754 0,0.11355 0,0.0663 -0.0145,0.13173 -0.0145,0.19805 0,0.0727 0.008,0.14444 0.0191,0.21711 0.005,0.0281 0.0191,0.05 0.0309,0.0772 0.0154,0.0336 0.008,0.0727 0.008,0.10721 0,0.0954 0,0.19077 0,0.28615 0,0.079 0.0163,0.15444 0.0291,0.23347 0.005,0.0327 0.0272,0.0645 0.03,0.0981 0.002,0.0399 0.005,0.0763 0.0136,0.11628 0.01,0.0509 0.0291,0.0999 0.0291,0.15263 0,0.06 0,0.11991 0,0.17986 0,0.0272 -0.0182,0.0936 0.0427,0.1072 0.0228,0.005 0.0464,0.003 0.0618,-0.005 0.02,-0.008 0.03,-0.0336 0.0409,-0.0463 0.0218,-0.0272 0.0445,-0.0554 0.0545,-0.0854 0.0136,-0.0427 0.0236,-0.0863 0.0355,-0.129 0.0109,-0.0399 0.0372,-0.0808 0.0409,-0.12174 0.009,-0.0963 0.0164,-0.19258 0.039,-0.28796 0.0154,-0.0627 0.0236,-0.13264 0.04,-0.19169 -0.002,-0.0391 0.0181,-0.0754 0.0181,-0.11446 0,-0.0527 0,-0.10538 0,-0.15716 0,-0.10537 0.008,-0.21531 -6.6e-4,-0.31977 -0.0209,-0.22893 -0.0681,-0.45422 -0.0736,-0.68496 -0.005,-0.18897 6.6e-4,-0.37883 6.6e-4,-0.56779 0,-0.0718 -0.01,-0.15533 0.002,-0.22619 0.0372,-0.0127 0.0309,0 0.0463,-0.0318 0.0127,-0.0254 0,-0.10174 -6.6e-4,-0.12991 -6.6e-4,-0.03 -0.002,-0.06 -0.004,-0.0899 -0.003,-0.0454 -0.007,-0.0909 -0.0136,-0.13536 -0.007,-0.0399 -0.005,-0.0808 -0.007,-0.12082 -6.6e-4,-0.0345 -0.01,-0.0709 -0.002,-0.10538 0.005,-0.0209 0.02,-0.0399 0.0327,-0.06 0.0373,-0.0572 0.0354,-0.11901 0.0527,-0.17805 0.0318,-0.1072 0.0109,-0.21894 0.0136,-0.32795 6.6e-4,-0.0281 0.0136,-0.0545 0.0163,-0.0827 0.002,-0.0272 -6.5e-4,-0.0545 -6.5e-4,-0.0808 0,-0.0527 0.003,-0.10628 6.5e-4,-0.15988 -6.5e-4,-0.0318 -0.0136,-0.0618 -0.0163,-0.0936 -6.6e-4,-0.0182 0.003,-0.0372 0.002,-0.0554 -0.003,-0.0318 -0.0264,-0.0727 -0.0436,-0.10265 -0.0209,-0.0345 -0.0318,-0.0654 -0.0463,-0.10083 -0.0154,-0.0354 -0.06,-0.0391 -0.099,-0.0645 -0.0373,-0.0227 -0.0872,-0.0663 -0.14262,-0.0772 -0.009,0.0164 -0.003,0.0363 -0.0609,0.0527"
       id="path22051"
       style="stroke-width:0.232561" />
    <path
       fill-rule="nonzero"
       fill="#231f20"
       fill-opacity="1"
       d="m 111.61031,103.64934 c -0.0173,-0.01 -0.0336,-0.0164 -0.05,-0.0118 -0.069,0.0182 -0.13081,0.0745 -0.19986,0.0972 -0.0436,0.0145 -0.0745,0.0427 -0.11809,0.0608 -0.0663,0.0273 -0.13445,0.0454 -0.20531,0.0591 -0.14445,0.0272 -0.26981,0.13535 -0.39426,0.20803 -0.16262,0.0954 -0.33885,0.15534 -0.506,0.24165 -0.0345,0.0173 -0.0672,0.0372 -0.0981,0.0608 -0.0454,0.0336 -0.0863,0.0754 -0.13535,0.10356 -0.0591,0.0355 -0.129,0.0463 -0.19713,0.0454 -0.05,-0.002 -0.0872,-0.0145 -0.12991,-0.0409 -0.0345,-0.0209 -0.0691,-0.0645 -0.10629,-0.0754 0,0.03 0.0109,0.0572 0.0164,0.0863 0.005,0.0309 0.007,0.0618 0.009,0.0936 0.005,0.0517 0,0.0817 -0.0227,0.12809 -0.0309,0.0663 -0.03,0.11265 -0.0399,0.1835 -0.007,0.0427 -0.0209,0.0927 -0.0382,0.13172 -0.02,0.0427 -0.0173,0.0582 -0.007,0.10448 0.01,0.0409 0.0318,0.079 0.0427,0.11992 0.007,0.0282 -6.6e-4,0.0772 0.0227,0.0981 0.005,-0.0481 0.0481,-0.11628 0.0808,-0.14988 0.079,-0.0827 0.17261,-0.14263 0.25619,-0.21985 0.0645,-0.0591 0.11536,-0.12628 0.19167,-0.17261 0.0745,-0.0445 0.14264,-0.0963 0.22167,-0.12535 0.0218,-0.008 0.0409,-0.0218 0.0608,-0.0318 0.0709,-0.0345 0.13444,-0.0827 0.20167,-0.12264 0.10993,-0.0645 0.23711,-0.0963 0.35339,-0.14807 0.0963,-0.0427 0.19077,-0.0881 0.28979,-0.12536 0.0827,-0.0309 0.14807,-0.0718 0.22256,-0.11537 0.05,-0.0291 0.11266,-0.0346 0.16807,-0.0509 0.069,-0.0209 0.13263,-0.0473 0.20167,-0.0636 0.0309,-0.007 0.0227,-0.0127 0.0609,-0.002 0.0399,0.01 0.079,0.02 0.11719,0.0363 0.0418,0.0191 0.0736,0.0154 0.11719,0.0245 0.0536,0.0118 0.12899,0.0363 0.17623,0.0627 0.0264,0.0154 0.0745,0.0654 0.10992,0.0481 -6.6e-4,-0.019 -0.01,-0.0218 -0.0182,-0.0391 -0.0109,-0.0236 -0.0181,-0.0563 -0.0327,-0.0781 -0.02,-0.0318 -0.0517,-0.0563 -0.0781,-0.0827 -0.0291,-0.0291 -0.0554,-0.0618 -0.0872,-0.0872 -0.0372,-0.0272 -0.0827,-0.0336 -0.12264,-0.0572 -0.0763,-0.0445 -0.14898,-0.089 -0.23256,-0.12082 -0.0345,-0.0136 -0.069,-0.0517 -0.10174,-0.0736"
       id="path22053"
       style="stroke-width:0.232561" />
    <path
       fill-rule="nonzero"
       fill="#231f20"
       fill-opacity="1"
       d="m 107.35609,103.95003 c -0.089,-0.0918 -0.17533,-0.18986 -0.2807,-0.26072 -0.0709,-0.0473 -0.10084,-0.12809 -0.19168,-0.13445 -0.0518,-0.003 -0.10267,0.0218 -0.15535,0.0264 -0.0636,0.005 -0.12355,0 -0.18623,-0.0118 -0.0945,-0.0182 -0.18078,-0.0582 -0.27253,-0.0772 -0.0281,-0.007 -0.0663,6.6e-4 -0.0881,-0.0146 0.0182,-0.008 0.05,-0.0127 0.0681,-0.0227 0.0218,-0.0127 0.0409,-0.0372 0.0581,-0.0563 0.0436,-0.0445 0.10357,-0.0572 0.15899,-0.0863 0.0836,-0.0445 0.14081,-0.11084 0.22801,-0.1499 0.0672,-0.0291 0.12355,-0.0409 0.19623,-0.0309 0.0872,0.0127 0.15988,0.0681 0.22075,0.12901 0.10265,0.10356 0.19077,0.21802 0.29433,0.32067 0.12991,0.12901 0.25255,0.2798 0.40335,0.38336 0.0863,0.0599 0.16987,0.12719 0.25527,0.19078 0.0545,0.0409 0.11264,0.0954 0.18351,0.0999 0.0236,0.002 0.0473,-0.003 0.0709,-0.002 0.0899,0.007 0.18531,0.0581 0.26071,0.10174 0.0154,0.008 0.03,0.0218 0.0463,0.0281 0.0517,0.0209 0.12627,0.007 0.17987,-0.003 0.0809,-0.0154 0.15716,-0.0418 0.23982,-0.0509 0.0346,-0.004 0.069,0.002 0.10358,-0.005 0.0327,-0.005 0.0618,-0.0236 0.0927,-0.0345 0.0209,-0.007 0.0999,-0.02 0.0754,-0.0509 -0.0736,0.0354 -0.0554,0.0854 -0.0536,0.15262 6.6e-4,0.0445 -0.0109,0.0872 -0.0109,0.13081 0,0.0518 0.0109,0.10357 0.0109,0.15716 -6.6e-4,0.0554 0.004,0.11174 0.0154,0.16624 0.007,0.0363 0.0291,0.07 0.0354,0.10629 0.003,0.0282 -0.007,0.0518 -0.007,0.0799 0.002,0.0436 0.0209,0.0872 0.0281,0.13082 0.005,0.0336 0.002,0.07 0.0145,0.10175 -0.0836,-0.0999 -0.19168,-0.21802 -0.30343,-0.28525 -0.0436,-0.0264 -0.0945,-0.06 -0.14625,-0.069 -0.0772,-0.0137 -0.14535,-0.0282 -0.22348,-0.04 -0.10175,-0.0146 -0.19986,-0.0427 -0.29797,-0.0745 -0.1081,-0.0354 -0.22166,-0.10084 -0.31523,-0.16533 -0.0318,-0.0227 -0.0563,-0.0291 -0.0845,-0.0582 -0.03,-0.0318 -0.0527,-0.0509 -0.0899,-0.0708 -0.21894,-0.12264 -0.33068,-0.35065 -0.50146,-0.52054 -0.0109,-0.0109 -0.0209,-0.0218 -0.0318,-0.0318"
       id="path22055"
       style="stroke-width:0.232561" />
  </g>
</svg>
