<?xml version="1.0" encoding="UTF-8" standalone="no"?>
<!-- Created with Inkscape (http://www.inkscape.org/) -->

<svg
   width="24.018009"
   height="24"
   viewBox="0 0 6.3547649 6.35"
   version="1.1"
   id="svg6122"
   inkscape:version="1.2.1 (9c6d41e4, 2022-07-14)"
   sodipodi:docname="epic-multiplayer.svg"
   xmlns:inkscape="http://www.inkscape.org/namespaces/inkscape"
   xmlns:sodipodi="http://sodipodi.sourceforge.net/DTD/sodipodi-0.dtd"
   xmlns="http://www.w3.org/2000/svg"
   xmlns:svg="http://www.w3.org/2000/svg">
  <sodipodi:namedview
     id="namedview6124"
     pagecolor="#505050"
     bordercolor="#eeeeee"
     borderopacity="1"
     inkscape:showpageshadow="0"
     inkscape:pageopacity="0"
     inkscape:pagecheckerboard="0"
     inkscape:deskcolor="#505050"
     inkscape:document-units="mm"
     showgrid="false"
     inkscape:zoom="0.7046647"
     inkscape:cx="116.3674"
     inkscape:cy="196.54738"
     inkscape:window-width="1390"
     inkscape:window-height="941"
     inkscape:window-x="0"
     inkscape:window-y="25"
     inkscape:window-maximized="0"
     inkscape:current-layer="layer1" />
  <defs
     id="defs6119">
    <clipPath
       clipPathUnits="userSpaceOnUse"
       id="clipPath1967">
      <path
         d="M 56.886,174.649 H 92.7 v 35.813 H 56.886 Z"
         id="path1965" />
    </clipPath>
  </defs>
  <g
     inkscape:label="Layer 1"
     inkscape:groupmode="layer"
     id="layer1"
     transform="translate(-74.170278,-96.701109)">
    <g
       id="g1961"
       transform="matrix(0.20307874,0,0,-0.20307874,62.178603,138.95076)">
      <g
         id="g1963"
         clip-path="url(#clipPath1967)">
        <g
           id="g1969"
           transform="translate(73.3614,207.133)">
          <path
             d="m 0,0 c -0.071,-0.109 -0.137,-0.222 -0.196,-0.34 -0.032,-0.066 -0.043,-0.139 -0.085,-0.199 -0.031,-0.045 -0.054,-0.06 -0.072,-0.119 -0.039,-0.127 -0.069,-0.261 -0.105,-0.39 -0.028,-0.102 -0.056,-0.173 -0.044,-0.28 0.012,-0.105 -0.021,-0.214 -0.032,-0.322 -0.05,-0.448 -0.003,-1.039 0.236,-1.442 0.09,-0.15 0.213,-0.271 0.344,-0.38 0.122,-0.101 0.258,-0.182 0.332,-0.332 0.066,-0.134 0.118,-0.246 0.245,-0.329 0.153,-0.1 0.332,-0.086 0.499,-0.065 0.253,0.033 0.504,0.112 0.753,0.167 0.305,0.069 0.55,0.174 0.78,0.395 0.105,0.101 0.217,0.201 0.313,0.311 0.095,0.108 0.155,0.243 0.243,0.357 0.172,0.223 0.2,0.571 0.211,0.849 0.005,0.127 0.054,0.239 0.091,0.356 0.058,0.185 0.098,0.393 0.067,0.59 -0.024,0.148 -0.042,0.264 -0.011,0.41 0.064,0.304 -0.036,0.6 -0.266,0.808 C 3.165,0.17 3.032,0.302 2.898,0.432 2.764,0.561 2.606,0.644 2.435,0.696 2.251,0.753 2.075,0.835 1.891,0.895 1.775,0.933 1.647,0.898 1.531,0.897 1.412,0.897 1.31,0.912 1.192,0.886 1.067,0.86 0.967,0.765 0.845,0.738 0.814,0.731 0.783,0.736 0.752,0.73 0.652,0.709 0.55,0.635 0.468,0.575 0.354,0.492 0.268,0.368 0.181,0.255 0.118,0.172 0.057,0.087 0,0"
             style="fill:#231f20;fill-opacity:1;fill-rule:nonzero;stroke:none"
             id="path1971" />
        </g>
        <g
           id="g1973"
           transform="translate(73.1998,200.151)">
          <path
             d="m 0,0 c -0.229,-0.083 -0.074,-0.611 -0.07,-0.809 0.004,-0.172 -0.031,-0.352 -0.052,-0.524 -0.045,-0.354 -0.094,-0.712 -0.061,-1.07 0.036,-0.396 0.192,-0.776 0.203,-1.175 0.006,-0.228 -0.065,-0.451 -0.035,-0.677 0.016,-0.119 0.043,-0.229 0.043,-0.351 0.002,-0.379 -0.025,-0.761 -0.034,-1.14 -0.02,-0.761 -0.03,-1.523 -0.02,-2.284 0.008,-0.628 0.036,-1.263 0.281,-1.85 0.161,-0.388 0.32,-0.748 0.341,-1.175 0.023,-0.472 -0.05,-0.921 0.101,-1.375 0.064,-0.193 0.144,-0.356 0.156,-0.564 0.01,-0.169 -0.006,-0.339 0.006,-0.508 0.034,-0.467 0.08,-0.959 0.238,-1.402 0.049,-0.135 0.103,-0.25 0.121,-0.394 0.022,-0.186 -0.007,-0.378 -10e-4,-0.564 0.004,-0.136 0.031,-0.262 0.053,-0.395 0.052,-0.332 -0.072,-0.598 -0.105,-0.913 -0.038,-0.361 0.141,-0.801 0.216,-1.153 0.062,-0.295 0.143,-0.588 0.136,-0.888 -0.002,-0.122 0.015,-0.236 0.065,-0.347 0.075,-0.167 0.157,-0.32 0.218,-0.494 0.111,-0.316 0.146,-0.633 0.226,-0.954 0.053,-0.209 0.102,-0.45 0.186,-0.649 0.078,-0.187 0.197,-0.356 0.28,-0.537 0.052,-0.114 0.06,-0.272 0.088,-0.399 0.024,-0.106 0.066,-0.175 0.104,-0.274 0.057,-0.153 0.01,-0.393 0.156,-0.509 -0.007,0.111 -0.013,0.23 0.01,0.337 0.008,0.036 0.041,0.085 0.05,0.134 0.016,0.082 -0.022,0.175 -0.004,0.256 0.036,0.167 0.115,0.323 0.13,0.501 0.019,0.21 -0.064,0.405 -0.067,0.613 -0.003,0.18 -0.051,0.356 -0.061,0.535 -0.011,0.184 0.014,0.368 0.005,0.552 -0.015,0.285 -0.091,0.549 -0.014,0.833 0.059,0.218 0.161,0.419 0.203,0.643 0.069,0.363 0.076,0.749 0.072,1.117 -0.007,0.576 -0.033,1.15 -0.019,1.727 0.01,0.427 0.144,0.835 0.131,1.267 -0.013,0.453 -0.071,0.928 -0.128,1.379 -0.12,0.942 -0.112,1.917 -0.032,2.857 0.031,0.361 0.124,0.651 0.22,0.994 0.118,0.425 0.138,0.823 0.127,1.263 -0.015,0.579 -0.093,1.153 -0.144,1.729 -0.023,0.254 -0.072,0.535 -0.03,0.788 0.015,0.089 0.033,0.158 0.028,0.251 -0.034,0.61 -0.062,1.217 -0.084,1.828 -0.005,0.161 -0.015,0.322 -0.033,0.483 -0.029,0.259 -0.057,0.518 -0.076,0.778 -0.048,0.682 0.022,1.389 0.1,2.067 0.011,0.096 0.048,0.261 -0.015,0.349 C 3.114,0.038 2.957,0.053 2.775,0.003 2.582,-0.051 2.459,-0.096 2.255,-0.095 c -0.184,0.001 -0.368,0 -0.552,0 -0.186,0 -0.39,-0.019 -0.573,0.007 -0.124,0.017 -0.231,0.025 -0.358,0.025 -0.197,-0.001 -0.394,0 -0.592,0 -0.087,0 -0.184,0.007 -0.27,0 C -0.147,-0.067 -0.303,-0.108 0,0"
             style="fill:#231f20;fill-opacity:1;fill-rule:nonzero;stroke:none"
             id="path1975" />
        </g>
        <g
           id="g1977"
           transform="translate(69.4321,200.517)">
          <path
             d="M 0,0 C 0.009,0.002 0.018,0.005 0.028,0.006 0.181,0.031 0.337,0.043 0.491,0.069 0.615,0.091 0.74,0.135 0.853,0.189 1.033,0.274 1.231,0.311 1.42,0.376 1.662,0.459 1.943,0.486 2.15,0.638 2.318,0.762 2.557,0.808 2.756,0.865 3.047,0.948 3.342,1.008 3.629,1.109 3.889,1.201 4.144,1.28 4.415,1.337 4.589,1.373 4.741,1.436 4.906,1.5 5.035,1.55 5.152,1.549 5.288,1.567 5.494,1.593 5.698,1.665 5.897,1.725 6.138,1.797 6.358,1.784 6.601,1.811 6.867,1.84 7.109,1.925 7.381,1.929 7.483,1.93 7.593,1.917 7.696,1.934 7.817,1.953 7.93,2.019 8.055,2.012 8.148,2.007 8.228,1.951 8.322,1.942 8.4,1.935 8.475,1.959 8.549,1.978 c 0.406,0.105 0.884,0.198 1.224,0.436 0.119,0.083 0.264,0.094 0.401,0.122 0.135,0.027 0.252,0.07 0.379,0.118 0.061,0.024 0.221,0.081 0.299,0.051 C 10.916,2.68 10.91,2.637 10.934,2.583 10.985,2.469 11.102,2.365 11.127,2.244 11.158,2.089 11.123,1.907 11.138,1.748 11.153,1.58 11.187,1.415 11.203,1.248 11.236,0.908 11.23,0.533 11.159,0.201 11.14,0.111 11.128,0.025 11.129,-0.068 11.129,-0.1 11.147,-0.163 11.124,-0.189 11.096,-0.22 10.882,-0.196 10.847,-0.195 10.65,-0.194 10.465,-0.241 10.271,-0.264 10.132,-0.28 9.996,-0.273 9.859,-0.303 9.478,-0.384 9.115,-0.514 8.727,-0.569 8.415,-0.614 8.104,-0.661 7.793,-0.709 7.442,-0.764 7.087,-0.764 6.736,-0.813 6.126,-0.896 5.537,-1.135 4.939,-1.28 4.847,-1.302 4.755,-1.33 4.664,-1.36 4.385,-1.451 4.101,-1.576 3.804,-1.591 3.623,-1.6 3.447,-1.539 3.266,-1.55 3.001,-1.568 2.792,-1.74 2.54,-1.805 2.309,-1.863 2.071,-1.882 1.836,-1.924 1.659,-1.956 1.488,-2.002 1.307,-2.007 1.065,-2.013 0.835,-2.089 0.597,-2.076 0.477,-2.07 0.363,-2.104 0.256,-2.158 0.183,-2.195 0.091,-2.26 0.008,-2.274 c -0.087,-0.015 -0.149,0.031 -0.224,0.069 -0.139,0.069 -0.297,0.148 -0.379,0.284 -0.05,0.084 -0.016,0.126 0.011,0.221 0.031,0.108 0.024,0.268 0.079,0.365 0.022,0.037 0.045,0.033 0.067,0.07 0.029,0.05 0.034,0.139 0.049,0.196 0.066,0.252 0.141,0.502 0.218,0.752 C -0.129,-0.183 -0.136,-0.039 0,0"
             style="fill:#231f20;fill-opacity:1;fill-rule:nonzero;stroke:none"
             id="path1979" />
        </g>
        <g
           id="g1981"
           transform="translate(63.5993,199.42)">
          <path
             d="m 0,0 c -0.071,-0.109 -0.137,-0.222 -0.196,-0.34 -0.032,-0.066 -0.043,-0.139 -0.085,-0.199 -0.031,-0.045 -0.054,-0.06 -0.072,-0.119 -0.039,-0.127 -0.069,-0.261 -0.105,-0.39 -0.028,-0.102 -0.056,-0.173 -0.044,-0.28 0.012,-0.105 -0.021,-0.214 -0.032,-0.322 -0.05,-0.448 -0.003,-1.039 0.236,-1.442 0.09,-0.15 0.212,-0.271 0.344,-0.38 0.122,-0.101 0.258,-0.182 0.332,-0.332 0.066,-0.134 0.118,-0.246 0.246,-0.329 0.152,-0.1 0.331,-0.086 0.498,-0.065 0.253,0.033 0.504,0.112 0.753,0.167 0.305,0.069 0.55,0.174 0.78,0.395 0.105,0.101 0.217,0.201 0.313,0.311 0.095,0.108 0.155,0.243 0.243,0.357 0.172,0.223 0.2,0.571 0.211,0.849 0.005,0.127 0.054,0.239 0.091,0.356 0.058,0.185 0.098,0.393 0.067,0.59 -0.024,0.148 -0.042,0.264 -0.011,0.41 0.064,0.304 -0.036,0.6 -0.266,0.808 C 3.165,0.17 3.032,0.302 2.898,0.432 2.764,0.561 2.606,0.644 2.435,0.696 2.251,0.753 2.075,0.835 1.891,0.895 1.776,0.933 1.647,0.898 1.531,0.897 1.412,0.897 1.31,0.912 1.192,0.886 1.067,0.86 0.967,0.765 0.845,0.738 0.814,0.731 0.783,0.736 0.752,0.73 0.652,0.709 0.55,0.635 0.468,0.575 0.354,0.492 0.268,0.368 0.181,0.255 0.118,0.172 0.057,0.087 0,0"
             style="fill:#231f20;fill-opacity:1;fill-rule:nonzero;stroke:none"
             id="path1983" />
        </g>
        <g
           id="g1985"
           transform="translate(63.4427,192.385)">
          <path
             d="m 0,0 c -0.043,-0.004 -0.084,-0.008 -0.125,-0.014 -0.658,-0.087 -0.092,-0.71 0.086,-1.007 0.186,-0.309 0.261,-0.594 0.313,-0.947 0.071,-0.484 0.21,-0.957 0.247,-1.447 0.034,-0.459 0.045,-0.921 0.07,-1.381 0.04,-0.708 0.196,-1.392 0.251,-2.095 0.02,-0.25 0.014,-0.541 0.133,-0.77 0.075,-0.146 0.258,-0.253 0.354,-0.387 0.287,-0.401 0.202,-0.981 0.195,-1.443 -0.005,-0.279 -0.02,-0.55 0.07,-0.819 0.087,-0.258 0.208,-0.503 0.296,-0.761 0.071,-0.205 0.154,-0.46 0.185,-0.678 0.021,-0.151 0.011,-0.302 0.042,-0.452 0.035,-0.167 0.131,-0.313 0.16,-0.48 -0.01,0.118 -0.004,0.238 -0.005,0.356 -10e-4,0.15 -0.016,0.311 0.01,0.46 0.03,0.166 0.121,0.307 0.177,0.466 0.106,0.301 0.16,0.622 0.233,0.932 0.061,0.257 0.079,0.529 0.081,0.792 0.002,0.208 -0.038,0.446 0.002,0.649 0.061,0.302 0.07,0.609 0.112,0.917 0.044,0.333 0.137,0.647 0.231,0.968 0.06,0.204 0.129,0.471 0.139,0.684 0.035,0.685 -0.022,1.388 -0.022,2.075 0,0.385 0.003,0.763 -0.04,1.147 -0.029,0.259 -0.057,0.518 -0.076,0.779 -0.048,0.681 0.022,1.389 0.1,2.066 0.011,0.097 0.048,0.262 -0.015,0.349 C 3.109,0.091 2.952,0.106 2.77,0.055 2.577,0.001 2.454,-0.044 2.25,-0.043 c -0.184,0.002 -0.368,0 -0.552,0 -0.186,0 -0.39,-0.018 -0.573,0.007 C 0.779,0.013 0.362,0.033 0,0"
             style="fill:#231f20;fill-opacity:1;fill-rule:nonzero;stroke:none"
             id="path1987" />
        </g>
        <g
           id="g1989"
           transform="translate(59.67,192.804)">
          <path
             d="M 0,0 C 0.009,0.002 0.018,0.005 0.028,0.006 0.181,0.031 0.337,0.043 0.491,0.069 0.615,0.091 0.74,0.135 0.853,0.189 1.033,0.274 1.231,0.311 1.42,0.376 1.662,0.459 1.943,0.486 2.15,0.638 2.318,0.762 2.557,0.808 2.756,0.865 3.047,0.948 3.342,1.008 3.629,1.109 3.889,1.201 4.144,1.28 4.415,1.337 4.589,1.373 4.741,1.436 4.906,1.5 5.035,1.55 5.152,1.549 5.288,1.567 5.494,1.593 5.698,1.665 5.897,1.725 6.138,1.797 6.358,1.784 6.601,1.811 6.867,1.84 7.109,1.925 7.381,1.929 7.483,1.93 7.593,1.917 7.696,1.934 7.817,1.953 7.93,2.019 8.055,2.012 8.148,2.007 8.228,1.951 8.322,1.942 8.4,1.935 8.475,1.959 8.549,1.978 c 0.406,0.105 0.884,0.198 1.224,0.436 0.119,0.083 0.264,0.094 0.401,0.122 0.135,0.027 0.252,0.07 0.379,0.118 0.061,0.024 0.221,0.081 0.299,0.051 C 10.916,2.68 10.91,2.637 10.934,2.583 10.985,2.469 11.102,2.365 11.127,2.244 11.158,2.089 11.123,1.907 11.138,1.748 11.153,1.58 11.187,1.415 11.203,1.248 11.236,0.908 11.23,0.533 11.159,0.201 11.14,0.111 11.128,0.025 11.129,-0.068 11.129,-0.1 11.147,-0.163 11.124,-0.189 11.096,-0.22 10.882,-0.196 10.847,-0.195 10.65,-0.194 10.465,-0.242 10.271,-0.264 10.132,-0.28 9.996,-0.273 9.859,-0.303 9.478,-0.384 9.115,-0.514 8.727,-0.569 8.415,-0.614 8.104,-0.661 7.793,-0.709 7.442,-0.764 7.087,-0.764 6.736,-0.813 6.126,-0.896 5.537,-1.135 4.939,-1.28 4.847,-1.302 4.755,-1.33 4.664,-1.36 4.385,-1.451 4.101,-1.576 3.804,-1.591 3.623,-1.6 3.447,-1.539 3.266,-1.55 3.001,-1.568 2.792,-1.74 2.54,-1.805 2.309,-1.863 2.071,-1.882 1.836,-1.924 1.659,-1.956 1.488,-2.002 1.307,-2.007 1.065,-2.013 0.835,-2.089 0.597,-2.076 0.477,-2.07 0.363,-2.104 0.256,-2.158 0.183,-2.195 0.091,-2.26 0.008,-2.274 c -0.087,-0.015 -0.149,0.031 -0.224,0.069 -0.139,0.069 -0.297,0.148 -0.379,0.284 -0.05,0.084 -0.016,0.126 0.011,0.221 0.031,0.108 0.024,0.268 0.079,0.365 0.022,0.037 0.045,0.033 0.067,0.07 0.029,0.05 0.034,0.139 0.049,0.196 0.066,0.252 0.141,0.502 0.218,0.752 C -0.129,-0.183 -0.136,-0.039 0,0"
             style="fill:#231f20;fill-opacity:1;fill-rule:nonzero;stroke:none"
             id="path1991" />
        </g>
        <g
           id="g1993"
           transform="translate(85.7916,201.598)">
          <path
             d="m 0,0 c 0.071,-0.109 0.137,-0.222 0.196,-0.34 0.032,-0.066 0.043,-0.139 0.085,-0.199 0.031,-0.045 0.054,-0.06 0.072,-0.119 0.039,-0.127 0.069,-0.261 0.105,-0.39 0.028,-0.102 0.056,-0.173 0.044,-0.28 -0.012,-0.105 0.021,-0.214 0.032,-0.322 0.05,-0.448 0.003,-1.039 -0.236,-1.442 -0.09,-0.15 -0.213,-0.271 -0.344,-0.38 -0.122,-0.101 -0.258,-0.182 -0.332,-0.332 -0.066,-0.134 -0.118,-0.246 -0.246,-0.329 -0.152,-0.1 -0.331,-0.086 -0.498,-0.065 -0.253,0.033 -0.504,0.112 -0.753,0.167 -0.305,0.069 -0.55,0.174 -0.78,0.395 -0.105,0.101 -0.217,0.201 -0.313,0.311 -0.095,0.108 -0.155,0.243 -0.243,0.357 -0.172,0.223 -0.2,0.571 -0.211,0.849 -0.005,0.127 -0.054,0.239 -0.091,0.356 -0.058,0.185 -0.098,0.393 -0.067,0.59 0.024,0.148 0.042,0.264 0.011,0.41 -0.064,0.304 0.036,0.6 0.266,0.808 0.138,0.125 0.271,0.257 0.405,0.387 0.134,0.129 0.292,0.212 0.463,0.264 0.184,0.057 0.36,0.139 0.544,0.199 0.115,0.038 0.244,0.003 0.36,0.002 0.119,0 0.221,0.015 0.339,-0.011 0.125,-0.026 0.225,-0.121 0.347,-0.148 0.031,-0.007 0.062,-0.002 0.093,-0.008 0.1,-0.021 0.202,-0.095 0.284,-0.155 0.114,-0.083 0.2,-0.207 0.287,-0.32 C -0.118,0.172 -0.057,0.087 0,0"
             style="fill:#231f20;fill-opacity:1;fill-rule:nonzero;stroke:none"
             id="path1995" />
        </g>
        <g
           id="g1997"
           transform="translate(85.9532,194.615)">
          <path
             d="M 0,0 C 0.254,-0.093 0.083,-0.692 0.061,-0.883 0.014,-1.285 -0.081,-1.669 -0.09,-2.079 -0.094,-2.276 -0.163,-2.411 -0.205,-2.593 -0.238,-2.736 -0.209,-2.883 -0.212,-3.028 -0.219,-3.276 -0.307,-3.497 -0.36,-3.736 -0.41,-3.958 -0.395,-4.187 -0.463,-4.407 -0.508,-4.554 -0.577,-4.673 -0.607,-4.824 -0.679,-5.178 -0.731,-5.555 -0.766,-5.913 -0.832,-6.6 -0.792,-7.291 -0.779,-7.979 c 0.015,-0.807 -0.174,-1.538 -0.464,-2.281 -0.12,-0.306 -0.156,-0.617 -0.15,-0.944 0.005,-0.244 0.012,-0.479 -0.039,-0.718 -0.025,-0.116 -0.011,-0.218 -0.025,-0.332 -0.012,-0.095 -0.065,-0.178 -0.067,-0.276 -0.002,-0.125 0.05,-0.425 -0.11,-0.461 -0.015,0.131 -0.101,0.242 -0.14,0.367 -0.047,0.15 -0.041,0.283 -0.063,0.433 -0.025,0.166 -0.12,0.298 -0.124,0.469 -0.004,0.175 -0.02,0.327 -0.059,0.499 -0.124,0.56 -0.312,1.104 -0.442,1.661 -0.078,0.33 -0.105,0.632 -0.241,0.951 -0.125,0.294 -0.283,0.63 -0.199,0.954 0.046,0.176 0.071,0.319 0.072,0.506 0.007,0.969 -0.066,1.941 0.012,2.909 0.04,0.499 0.146,0.977 0.11,1.482 -0.025,0.359 -0.076,0.715 -0.183,1.058 -0.104,0.335 -0.103,0.743 -0.294,1.04 -0.059,0.092 -0.125,0.168 -0.136,0.281 -0.009,0.094 0.015,0.199 0.071,0.273 0.235,0.31 0.698,0.011 0.995,0.013 0.184,0.001 0.368,0 0.552,0 0.186,0 0.39,-0.019 0.573,0.007 0.124,0.017 0.231,0.025 0.358,0.025 0.197,-0.001 0.394,0 0.592,0 0.087,0 0.184,0.007 0.27,0 C 0.147,-0.067 0.303,-0.108 0,0"
             style="fill:#231f20;fill-opacity:1;fill-rule:nonzero;stroke:none"
             id="path1999" />
        </g>
        <g
           id="g2001"
           transform="translate(89.7209,194.981)">
          <path
             d="M 0,0 C -0.009,0.002 -0.018,0.005 -0.028,0.006 -0.181,0.031 -0.337,0.043 -0.491,0.069 -0.615,0.091 -0.74,0.135 -0.853,0.189 -1.033,0.274 -1.231,0.311 -1.42,0.376 -1.662,0.459 -1.943,0.486 -2.15,0.638 -2.318,0.762 -2.557,0.808 -2.756,0.865 -3.047,0.948 -3.342,1.008 -3.629,1.109 -3.889,1.201 -4.144,1.28 -4.415,1.337 -4.589,1.373 -4.741,1.436 -4.906,1.5 -5.035,1.55 -5.152,1.549 -5.288,1.567 -5.494,1.593 -5.698,1.665 -5.897,1.725 -6.138,1.797 -6.358,1.784 -6.601,1.811 -6.867,1.84 -7.109,1.925 -7.381,1.929 -7.483,1.93 -7.593,1.917 -7.696,1.934 -7.817,1.953 -7.93,2.019 -8.055,2.012 -8.148,2.007 -8.228,1.951 -8.322,1.942 -8.4,1.935 -8.475,1.959 -8.549,1.978 c -0.406,0.105 -0.884,0.198 -1.224,0.436 -0.119,0.083 -0.264,0.094 -0.401,0.122 -0.135,0.027 -0.252,0.07 -0.379,0.118 -0.061,0.024 -0.221,0.081 -0.299,0.051 -0.064,-0.025 -0.058,-0.068 -0.082,-0.122 -0.051,-0.114 -0.168,-0.218 -0.193,-0.339 -0.031,-0.155 0.004,-0.337 -0.011,-0.496 -0.015,-0.168 -0.049,-0.333 -0.065,-0.5 -0.033,-0.34 -0.027,-0.715 0.044,-1.047 0.019,-0.09 0.031,-0.176 0.03,-0.269 0,-0.032 -0.018,-0.095 0.005,-0.121 0.028,-0.031 0.242,-0.007 0.277,-0.006 0.197,0.001 0.382,-0.047 0.576,-0.069 0.139,-0.016 0.275,-0.009 0.412,-0.039 0.381,-0.081 0.744,-0.211 1.132,-0.266 0.312,-0.045 0.623,-0.092 0.934,-0.14 0.352,-0.055 0.706,-0.055 1.057,-0.104 0.61,-0.083 1.199,-0.322 1.797,-0.467 0.092,-0.022 0.184,-0.05 0.275,-0.08 0.279,-0.091 0.563,-0.216 0.86,-0.231 0.181,-0.009 0.357,0.052 0.538,0.041 0.265,-0.018 0.474,-0.19 0.726,-0.255 0.231,-0.058 0.469,-0.077 0.704,-0.119 0.177,-0.032 0.348,-0.078 0.529,-0.083 0.242,-0.006 0.472,-0.082 0.71,-0.069 0.12,0.006 0.234,-0.028 0.341,-0.082 0.073,-0.037 0.165,-0.102 0.248,-0.116 0.087,-0.015 0.149,0.031 0.224,0.069 0.139,0.069 0.297,0.148 0.379,0.284 0.05,0.084 0.016,0.126 -0.011,0.221 C 0.553,-1.592 0.56,-1.432 0.505,-1.335 0.483,-1.298 0.46,-1.302 0.438,-1.265 0.409,-1.215 0.404,-1.126 0.389,-1.069 0.323,-0.817 0.248,-0.567 0.171,-0.317 0.129,-0.183 0.136,-0.039 0,0"
             style="fill:#231f20;fill-opacity:1;fill-rule:nonzero;stroke:none"
             id="path2003" />
        </g>
      </g>
    </g>
  </g>
</svg>
