<?xml version="1.0" encoding="UTF-8" standalone="no"?>
<!-- Created with Inkscape (http://www.inkscape.org/) -->

<svg
   width="16.795322"
   height="24"
   viewBox="0 0 4.4437624 6.3499999"
   version="1.1"
   id="svg18248"
   inkscape:version="1.2.1 (9c6d41e4, 2022-07-14)"
   sodipodi:docname="seeker.svg"
   xmlns:inkscape="http://www.inkscape.org/namespaces/inkscape"
   xmlns:sodipodi="http://sodipodi.sourceforge.net/DTD/sodipodi-0.dtd"
   xmlns="http://www.w3.org/2000/svg"
   xmlns:svg="http://www.w3.org/2000/svg">
  <sodipodi:namedview
     id="namedview18250"
     pagecolor="#505050"
     bordercolor="#eeeeee"
     borderopacity="1"
     inkscape:showpageshadow="0"
     inkscape:pageopacity="0"
     inkscape:pagecheckerboard="0"
     inkscape:deskcolor="#505050"
     inkscape:document-units="mm"
     showgrid="false"
     inkscape:zoom="0.70199214"
     inkscape:cx="-126.78205"
     inkscape:cy="146.72529"
     inkscape:window-width="1390"
     inkscape:window-height="938"
     inkscape:window-x="0"
     inkscape:window-y="25"
     inkscape:window-maximized="0"
     inkscape:current-layer="layer1" />
  <defs
     id="defs18245" />
  <g
     inkscape:label="Layer 1"
     inkscape:groupmode="layer"
     id="layer1"
     transform="translate(-138.84179,-109.77268)">
    <g
       fill="#231f20"
       fill-opacity="1"
       id="g9882"
       transform="matrix(0.79220273,0,0,0.79220273,-137.87829,-5.2661545)">
      <g
         id="use9880"
         transform="translate(349.039,151.54201)">
        <path
           d="m 3.125,-2.984375 c -0.117188,-0.050781 -0.234375,-0.101563 -0.359375,-0.15625 -0.125,-0.050781 -0.25,-0.101563 -0.375,-0.15625 L 0.546875,-4.09375 C 0.722656,-4.445312 0.976562,-4.738281 1.3125,-4.96875 1.644531,-5.195312 2.019531,-5.332031 2.4375,-5.375 2.46875,-5.382812 2.5,-5.390625 2.53125,-5.390625 2.5625,-5.398438 2.59375,-5.40625 2.625,-5.40625 h 0.171875 c 0.00781,0.011719 0.03125,0.015625 0.0625,0.015625 H 2.875 c 0.00781,0 0.019531,0.00781 0.03125,0.015625 0.019531,0 0.035156,0 0.046875,0 0.03125,0 0.054687,0 0.078125,0 0.00781,0.011719 0.023438,0.015625 0.046875,0.015625 0.019531,0 0.039063,0 0.0625,0 0.03125,0.011719 0.0625,0.023437 0.09375,0.03125 0.039063,0.011719 0.078125,0.023437 0.109375,0.03125 0.257812,0.074219 0.503906,0.1875 0.734375,0.34375 0.00781,0.011719 0.019531,0.015625 0.03125,0.015625 0,0 0,0.00781 0,0.015625 0.289063,0.21875 0.523437,0.496094 0.703125,0.828125 0.175781,0.335938 0.265625,0.699219 0.265625,1.09375 0,0.261719 -0.042969,0.523438 -0.125,0.78125 L 3.6875,-2.75 c 0,0 -0.00781,0 -0.015625,0 0,0 -0.00781,0 -0.015625,0 C 3.5625,-2.789062 3.472656,-2.828125 3.390625,-2.859375 3.304688,-2.898438 3.21875,-2.941406 3.125,-2.984375 Z M 0.765625,-1.53125 C 0.734375,-1.5625 0.707031,-1.597656 0.6875,-1.640625 0.550781,-1.847656 0.441406,-2.085938 0.359375,-2.359375 c -0.011719,-0.03125 -0.023437,-0.0625 -0.03125,-0.09375 0,-0.03125 -0.007813,-0.054687 -0.015625,-0.078125 C 0.300781,-2.582031 0.296875,-2.625 0.296875,-2.65625 0.285156,-2.675781 0.28125,-2.703125 0.28125,-2.734375 V -2.75 c 0,-0.03125 0,-0.070312 0,-0.125 C 0.269531,-2.90625 0.265625,-2.945312 0.265625,-3 c 0,-0.050781 0.003906,-0.085938 0.015625,-0.109375 V -3.21875 c 0,-0.00781 0,-0.023438 0,-0.046875 V -3.28125 c 0.007812,-0.00781 0.015625,-0.023438 0.015625,-0.046875 0,-0.019531 0.003906,-0.039063 0.015625,-0.0625 0.007812,-0.125 0.035156,-0.242187 0.078125,-0.359375 0,0 0.003906,0 0.015625,0 0,0 0.003906,0 0.015625,0 l 0.109375,0.0625 c 0.226562,0.105469 0.460938,0.210938 0.703125,0.3125 0.238281,0.09375 0.472656,0.195312 0.703125,0.296875 0.238281,0.105469 0.476562,0.210937 0.71875,0.3125 0.25,0.105469 0.492188,0.210937 0.734375,0.3125 0.00781,0 0.019531,0.00781 0.03125,0.015625 l 1.359375,0.59375 c -0.023438,0.0625 -0.054688,0.121094 -0.09375,0.171875 -0.042969,0.054687 -0.085938,0.105469 -0.125,0.15625 -0.148438,0.15625 -0.292969,0.28125 -0.4375,0.375 -0.148438,0.085937 -0.296875,0.15625 -0.453125,0.21875 -0.148437,0.054687 -0.304687,0.089844 -0.46875,0.109375 -0.167969,0.023438 -0.339844,0.03125 -0.515625,0.03125 -0.304688,0 -0.5625,-0.023438 -0.78125,-0.078125 -0.210938,-0.0625 -0.386719,-0.125 -0.53125,-0.1875 -0.148438,-0.070313 -0.257812,-0.132813 -0.328125,-0.1875 -0.074219,-0.0625 -0.117187,-0.097656 -0.125,-0.109375 -0.054687,-0.0625 -0.101563,-0.125 -0.140625,-0.1875 -0.011719,0 -0.015625,0 -0.015625,0 z M 5.875,-3.21875 c 0,0.054688 0,0.105469 0,0.15625 0,0.042969 0,0.089844 0,0.140625 V -2.875 c 0,0.011719 0,0.023438 0,0.03125 0,0.011719 0,0.023438 0,0.03125 v 0.078125 c 0,0.011719 -0.00781,0.023437 -0.015625,0.03125 v 0.0625 l -0.03125,0.171875 c -0.023437,0.125 -0.054687,0.257812 -0.09375,0.390625 -0.03125,0.125 -0.074219,0.25 -0.125,0.375 -0.1875,0.40625 -0.433594,0.75 -0.734375,1.03125 -0.261719,0.25 -0.5625,0.449219 -0.90625,0.59375 C 3.882812,-0.0351562 3.800781,0 3.71875,0.03125 3.632812,0.0625 3.546875,0.0859375 3.453125,0.109375 3.421875,0.117188 3.382812,0.125 3.34375,0.125 3.3125,0.132812 3.273438,0.144531 3.234375,0.15625 3.191406,0.164062 3.15625,0.171875 3.125,0.171875 3.113281,0.179688 3.097656,0.1875 3.078125,0.1875 c -0.011719,0 -0.027344,0 -0.046875,0 -0.042969,0 -0.078125,0.003906 -0.109375,0.015625 H 2.875 c -0.042969,0 -0.070312,0 -0.078125,0 h -0.125 c -0.0625,0 -0.109375,0 -0.140625,0 H 2.421875 C 2.410156,0.191406 2.398438,0.1875 2.390625,0.1875 h -0.0625 c -0.023437,0 -0.046875,0 -0.078125,0 C 2.238281,0.175781 2.222656,0.171875 2.203125,0.171875 c -0.011719,0 -0.023437,-0.007813 -0.03125,-0.015625 -0.023437,0 -0.042969,0 -0.0625,0 C 2.097656,0.15625 2.082031,0.148438 2.0625,0.140625 2.039062,0.140625 2.007812,0.132812 1.96875,0.125 1.9375,0.113281 1.90625,0.101562 1.875,0.09375 1.832031,0.0820312 1.789062,0.0703125 1.75,0.0625 1.707031,0.0507812 1.664062,0.0390625 1.625,0.03125 1.613281,0.03125 1.609375,0.0234375 1.609375,0.015625 V 0.125 C 1.597656,0.144531 1.582031,0.179688 1.5625,0.234375 c -0.03125,0.03125 -0.078125,0.0625 -0.140625,0.09375 -0.011719,0 -0.023437,0 -0.03125,0 C 1.378906,0.335938 1.363281,0.34375 1.34375,0.34375 1.269531,0.34375 1.210938,0.320312 1.171875,0.28125 1.128906,0.238281 1.101562,0.191406 1.09375,0.140625 c 0,-0.011719 -0.00781,-0.023437 -0.015625,-0.03125 0,-0.0117188 0,-0.0234375 0,-0.03125 0.00781,-0.08203125 0.039063,-0.1445312 0.09375,-0.1875 0.019531,-0.019531 0.03125,-0.03125 0.03125,-0.03125 0,-0.007813 0,-0.015625 0,-0.015625 0,0 -0.011719,0 -0.03125,0 C 1.160156,-0.175781 1.144531,-0.1875 1.125,-0.1875 c -0.023438,0 -0.039062,-0.003906 -0.046875,-0.015625 L 1.0625,-0.21875 C 1.070312,-0.226562 1.078125,-0.238281 1.078125,-0.25 l 0.28125,-0.609375 c 0.132813,0.054687 0.285156,0.105469 0.453125,0.15625 0.144531,0.042969 0.316406,0.078125 0.515625,0.109375 0.207031,0.023438 0.441406,0.027344 0.703125,0.015625 0.28125,-0.019531 0.53125,-0.070313 0.75,-0.15625 0.226562,-0.09375 0.421875,-0.195313 0.578125,-0.3125 0.15625,-0.101563 0.285156,-0.21875 0.390625,-0.34375 0.101562,-0.125 0.191406,-0.242187 0.265625,-0.359375 0.082031,-0.125 0.144531,-0.238281 0.1875,-0.34375 0.039063,-0.113281 0.070313,-0.207031 0.09375,-0.28125 0.09375,-0.363281 0.125,-0.664062 0.09375,-0.90625 C 5.367188,-3.53125 5.34375,-3.726562 5.3125,-3.875 5.300781,-3.914062 5.28125,-3.984375 5.25,-4.078125 5.21875,-4.171875 5.179688,-4.257812 5.140625,-4.34375 5.117188,-4.40625 5.09375,-4.457031 5.0625,-4.5 5.039062,-4.550781 5.023438,-4.585938 5.015625,-4.609375 4.992188,-4.640625 4.972656,-4.664062 4.953125,-4.6875 4.941406,-4.707031 4.925781,-4.734375 4.90625,-4.765625 4.789062,-4.929688 4.65625,-5.082031 4.5,-5.21875 4.351562,-5.351562 4.179688,-5.476562 3.984375,-5.59375 3.960938,-5.601562 3.941406,-5.613281 3.921875,-5.625 3.898438,-5.632812 3.882812,-5.644531 3.875,-5.65625 c 0,0 -0.015625,-0.00391 -0.046875,-0.015625 -0.011719,0 -0.015625,0 -0.015625,0 -0.042969,-0.019531 -0.085938,-0.039063 -0.125,-0.0625 -0.042969,-0.019531 -0.085938,-0.039063 -0.125,-0.0625 -0.011719,0 -0.027344,-0.00391 -0.046875,-0.015625 H 3.5 V -5.828125 C 3.507812,-5.835938 3.515625,-5.84375 3.515625,-5.84375 3.523438,-5.875 3.53125,-5.882812 3.53125,-5.875 c 0,0 0.00391,-0.015625 0.015625,-0.046875 0.00781,-0.019531 0.015625,-0.039063 0.015625,-0.0625 0.00781,-0.019531 0.019531,-0.039063 0.03125,-0.0625 0,0 0.00391,-0.00391 0.015625,-0.015625 H 3.625 c 0.050781,0.023438 0.085938,0.039062 0.109375,0.046875 0,0 0.00391,0 0.015625,0 0,0 0.00391,0 0.015625,0 V -6.03125 c -0.011719,-0.019531 -0.011719,-0.046875 0,-0.078125 0,-0.03125 0.015625,-0.066406 0.046875,-0.109375 0.03125,-0.050781 0.078125,-0.082031 0.140625,-0.09375 0.019531,-0.00781 0.054687,-0.015625 0.109375,-0.015625 0.039062,0.011719 0.082031,0.039063 0.125,0.078125 0.039062,0.042969 0.066406,0.085938 0.078125,0.125 0.00781,0.011719 0.015625,0.03125 0.015625,0.0625 0,0.085938 -0.039062,0.152344 -0.109375,0.203125 0,0.011719 -0.00781,0.015625 -0.015625,0.015625 0,0 0,0.00781 0,0.015625 l 0.109375,0.0625 c 0.519531,0.304687 0.925781,0.71875 1.21875,1.25 0.125,0.21875 0.21875,0.449219 0.28125,0.6875 0.03125,0.085937 0.046875,0.164063 0.046875,0.234375 l 0.03125,0.140625 c 0,0.023437 0,0.042969 0,0.0625 0,0.023437 0.00391,0.039063 0.015625,0.046875 0,0.054688 0.00391,0.09375 0.015625,0.125 z m -1.109375,4.4375 c 0,0.00781 0,0.015625 0,0.015625 0.00781,0.00781 0.015625,0.019531 0.015625,0.03125 0,0.00781 -0.00781,0.023437 -0.015625,0.046875 0,0 -0.00781,0.00781 -0.015625,0.03125 -0.023438,0.00781 -0.039062,0.015625 -0.046875,0.015625 0,0.00781 -0.00781,0.019531 -0.015625,0.03125 -0.011719,0 -0.023438,0 -0.03125,0 C 4.644531,1.398438 4.632812,1.410156 4.625,1.421875 L 4.484375,1.46875 C 4.460938,1.488281 4.4375,1.5 4.40625,1.5 4.375,1.507812 4.34375,1.519531 4.3125,1.53125 4.28125,1.539062 4.242188,1.546875 4.203125,1.546875 c -0.03125,0.00781 -0.0625,0.019531 -0.09375,0.03125 -0.023437,0 -0.042969,0 -0.0625,0 C 4.023438,1.578125 4.007812,1.582031 4,1.59375 3.96875,1.601562 3.941406,1.609375 3.921875,1.609375 c -0.011719,0 -0.027344,0 -0.046875,0 -0.011719,0 -0.027344,0 -0.046875,0 C 3.816406,1.617188 3.800781,1.625 3.78125,1.625 c -0.023438,0 -0.054688,0 -0.09375,0 0,0 0,0.00391 0,0.015625 -0.054688,0 -0.089844,0 -0.109375,0 h -0.03125 c -0.023437,0 -0.042969,0.00391 -0.0625,0.015625 -0.054687,0 -0.09375,0.00391 -0.125,0.015625 H 3.28125 c -0.011719,0 -0.023438,0 -0.03125,0 -0.011719,0 -0.023438,0 -0.03125,0 h -0.0625 c -0.023438,0 -0.042969,0 -0.0625,0 -0.023438,0 -0.042969,0.00391 -0.0625,0.015625 h -0.625 c -0.042969,0 -0.078125,-0.00781 -0.109375,-0.015625 h -0.15625 c -0.011719,0 -0.027344,0 -0.046875,0 H 1.984375 C 1.984375,1.660156 1.976562,1.65625 1.96875,1.65625 H 1.890625 c -0.023437,0 -0.042969,-0.00781 -0.0625,-0.015625 -0.023437,0 -0.042969,0 -0.0625,0 0,0 -0.00781,0 -0.015625,0 0,0 -0.00781,0 -0.015625,0 H 1.71875 c -0.011719,0 -0.027344,-0.00781 -0.046875,-0.015625 -0.023437,0 -0.039063,0 -0.046875,0 -0.011719,0 -0.027344,0 -0.046875,0 -0.011719,0 -0.027344,0 -0.046875,0 C 1.519531,1.613281 1.492188,1.609375 1.453125,1.609375 l -0.125,-0.03125 c -0.03125,0 -0.058594,-0.00781 -0.078125,-0.015625 -0.023438,0 -0.046875,0 -0.078125,0 C 1.128906,1.539062 1.082031,1.523438 1.03125,1.515625 0.988281,1.503906 0.941406,1.492188 0.890625,1.484375 0.867188,1.472656 0.847656,1.460938 0.828125,1.453125 0.804688,1.453125 0.785156,1.445312 0.765625,1.4375 0.742188,1.425781 0.722656,1.414062 0.703125,1.40625 0.691406,1.40625 0.679688,1.398438 0.671875,1.390625 0.648438,1.378906 0.632812,1.367188 0.625,1.359375 0.613281,1.347656 0.609375,1.335938 0.609375,1.328125 0.597656,1.316406 0.59375,1.3125 0.59375,1.3125 c 0,0 -0.007812,-0.00781 -0.015625,-0.015625 0,-0.023437 0,-0.042969 0,-0.0625 0.007813,-0.011719 0.015625,-0.023437 0.015625,-0.03125 0.007812,0 0.015625,0 0.015625,0 l 0.03125,-0.03125 C 0.648438,1.160156 0.664062,1.148438 0.6875,1.140625 0.71875,1.117188 0.75,1.101562 0.78125,1.09375 0.832031,1.0625 0.882812,1.039062 0.9375,1.03125 1.007812,1 1.082031,0.984375 1.15625,0.984375 L 1.296875,0.953125 C 1.316406,0.941406 1.335938,0.9375 1.359375,0.9375 c 0.019531,0 0.035156,0 0.046875,0 0.019531,-0.011719 0.035156,-0.015625 0.046875,-0.015625 0.00781,0 0.023437,0 0.046875,0 0.00781,0 0.019531,-0.007813 0.03125,-0.015625 0.019531,0 0.035156,0 0.046875,0 0.019531,0 0.035156,0 0.046875,0 0.019531,0 0.035156,0 0.046875,0 0.019531,0 0.03125,-0.007812 0.03125,-0.015625 h 0.0625 C 1.785156,0.878906 1.8125,0.875 1.84375,0.875 c 0.019531,0 0.039062,0 0.0625,0 0.019531,0 0.039062,0 0.0625,0 C 2,0.875 2.019531,0.867188 2.03125,0.859375 h 0.078125 c 0.019531,0 0.03125,0 0.03125,0 C 2.171875,0.847656 2.195312,0.832031 2.21875,0.8125 2.25,0.800781 2.273438,0.785156 2.296875,0.765625 2.328125,0.742188 2.351562,0.722656 2.375,0.703125 l 0.0625,-0.0625 C 2.457031,0.609375 2.46875,0.585938 2.46875,0.578125 2.46875,0.566406 2.476562,0.550781 2.5,0.53125 V 0.5 C 2.5,0.46875 2.488281,0.4375 2.46875,0.40625 2.457031,0.382812 2.453125,0.375 2.453125,0.375 c 0,-0.011719 -0.00781,-0.015625 -0.015625,-0.015625 0,0 0,-0.007813 0,-0.015625 h 0.484375 c 0,0.007812 -0.00781,0.019531 -0.015625,0.03125 C 2.894531,0.382812 2.890625,0.394531 2.890625,0.40625 2.867188,0.445312 2.863281,0.484375 2.875,0.515625 c 0,0.019531 0,0.035156 0,0.046875 L 2.90625,0.625 c 0.00781,0.007812 0.015625,0.015625 0.015625,0.015625 0.00781,0.007813 0.019531,0.019531 0.03125,0.03125 0.03125,0.03125 0.054687,0.050781 0.078125,0.0625 l 0.078125,0.0625 c 0.019531,0.007813 0.054687,0.03125 0.109375,0.0625 0,0 0.015625,0 0.046875,0 h 0.0625 C 3.335938,0.867188 3.34375,0.875 3.34375,0.875 c 0.019531,0 0.039062,0 0.0625,0 0.019531,0 0.039062,0 0.0625,0 h 0.0625 c 0.019531,0 0.035156,0.003906 0.046875,0.015625 h 0.0625 C 3.648438,0.898438 3.664062,0.90625 3.6875,0.90625 h 0.03125 c 0,0 0.00391,0 0.015625,0 0.00781,0 0.015625,0 0.015625,0 h 0.03125 c 0.019531,0 0.035156,0 0.046875,0 0.019531,0.007812 0.035156,0.015625 0.046875,0.015625 0.00781,0 0.03125,0 0.0625,0 0.019531,0.007813 0.035156,0.015625 0.046875,0.015625 0.019531,0 0.039063,0 0.0625,0 0.0625,0.019531 0.117187,0.035156 0.171875,0.046875 C 4.28125,0.992188 4.335938,1.007812 4.390625,1.03125 4.421875,1.03906 4.445312,1.046875 4.46875,1.046875 4.5,1.054685 4.523438,1.066406 4.546875,1.078125 4.566406,1.085935 4.582031,1.09375 4.59375,1.09375 4.613281,1.10156 4.632812,1.113281 4.65625,1.125 c 0.019531,0.00781 0.035156,0.019531 0.046875,0.03125 0.00781,0 0.015625,0 0.015625,0 0,0.00781 0.00781,0.019531 0.03125,0.03125 0.00781,0.00781 0.015625,0.019531 0.015625,0.03125 z m 0,0"
           id="path18272" />
      </g>
    </g>
  </g>
</svg>
