<?xml version="1.0" encoding="UTF-8" standalone="no"?>
<!-- Created with Inkscape (http://www.inkscape.org/) -->

<svg
   width="2.6471641mm"
   height="2.9214408mm"
   viewBox="0 0 2.6471641 2.9214408"
   version="1.1"
   id="svg10149"
   inkscape:version="1.2.1 (9c6d41e4, 2022-07-14)"
   sodipodi:docname="cultist.svg"
   xmlns:inkscape="http://www.inkscape.org/namespaces/inkscape"
   xmlns:sodipodi="http://sodipodi.sourceforge.net/DTD/sodipodi-0.dtd"
   xmlns="http://www.w3.org/2000/svg"
   xmlns:svg="http://www.w3.org/2000/svg">
  <sodipodi:namedview
     id="namedview10151"
     pagecolor="#505050"
     bordercolor="#eeeeee"
     borderopacity="1"
     inkscape:showpageshadow="0"
     inkscape:pageopacity="0"
     inkscape:pagecheckerboard="0"
     inkscape:deskcolor="#505050"
     inkscape:document-units="mm"
     showgrid="false"
     inkscape:zoom="0.2102413"
     inkscape:cx="45.186174"
     inkscape:cy="95.128787"
     inkscape:window-width="1309"
     inkscape:window-height="456"
     inkscape:window-x="0"
     inkscape:window-y="25"
     inkscape:window-maximized="0"
     inkscape:current-layer="layer1" />
  <defs
     id="defs10146" />
  <g
     inkscape:label="Layer 1"
     inkscape:groupmode="layer"
     id="layer1"
     transform="translate(-93.062011,-123.12826)">
    <g
       fill="#231f20"
       fill-opacity="1"
       id="g8764"
       transform="matrix(0.35277777,0,0,0.35277777,-57.768121,-20.921264)">
      <g
         id="use8762"
         transform="translate(427.04999,414.72)">
        <path
           d="M 7.984375,-0.015625 C 8.003906,0.0976562 8.007812,0.207031 8,0.3125 7.988281,0.425781 7.957031,0.53125 7.90625,0.625 7.875,0.675781 7.835938,0.71875 7.796875,0.75 7.765625,0.789062 7.722656,0.828125 7.671875,0.859375 7.484375,1.015625 7.289062,1.113281 7.09375,1.15625 7,1.164062 6.878906,1.164062 6.734375,1.15625 c -0.023437,0 -0.054687,0 -0.09375,0 -0.03125,0 -0.0625,-0.00781 -0.09375,-0.015625 C 6.484375,1.128906 6.425781,1.113281 6.375,1.09375 6.320312,1.082031 6.265625,1.070312 6.203125,1.0625 6.066406,1.03125 5.9375,0.988281 5.8125,0.9375 5.6875,0.894531 5.578125,0.851562 5.484375,0.8125 5.472656,0.800781 5.460938,0.796875 5.453125,0.796875 c 0,0 -0.00781,0 -0.015625,0 -0.023438,-0.011719 -0.042969,-0.011719 -0.0625,0 C 5.363281,0.804688 5.351562,0.8125 5.34375,0.8125 c 0,0.007812 -0.00781,0.019531 -0.015625,0.03125 -0.179687,0.175781 -0.34375,0.347656 -0.5,0.515625 C 4.671875,1.523438 4.5,1.679688 4.3125,1.828125 L 4.25,1.890625 H 4.234375 c 0,-0.011719 0,-0.015625 0,-0.015625 C 4.222656,1.863281 4.210938,1.851562 4.203125,1.84375 4.191406,1.84375 4.179688,1.832031 4.171875,1.8125 3.992188,1.675781 3.832031,1.523438 3.6875,1.359375 3.539062,1.191406 3.378906,1.023438 3.203125,0.859375 3.191406,0.847656 3.179688,0.84375 3.171875,0.84375 c 0,0 -0.00781,-0.011719 -0.015625,-0.03125 H 3.09375 C 2.925781,0.914062 2.71875,1 2.46875,1.0625 2.414062,1.070312 2.367188,1.078125 2.328125,1.078125 2.285156,1.085938 2.238281,1.09375 2.1875,1.09375 2.144531,1.101562 2.101562,1.109375 2.0625,1.109375 c -0.03125,0 -0.074219,0.00391 -0.125,0.015625 0,0.00781 -0.011719,0.015625 -0.03125,0.015625 -0.074219,0 -0.140625,0 -0.203125,0 -0.0625,0 -0.132813,0 -0.203125,0 -0.074219,0 -0.136719,-0.011719 -0.1875,-0.03125 C 1.257812,1.085938 1.207031,1.0625 1.15625,1.03125 1.125,1 1.09375,0.972656 1.0625,0.953125 1.03125,0.929688 0.992188,0.90625 0.953125,0.875 0.765625,0.738281 0.625,0.53125 0.53125,0.25 0.507812,0.1875 0.5,0.128906 0.5,0.078125 c 0,-0.0546875 0.003906,-0.1015625 0.015625,-0.15625 0.007813,-0.03125 0.019531,-0.066406 0.03125,-0.109375 0.019531,-0.039062 0.039063,-0.085938 0.0625,-0.140625 0.03125,-0.070313 0.066406,-0.144531 0.109375,-0.21875 0.039062,-0.082031 0.085938,-0.160156 0.140625,-0.234375 0.039063,-0.0625 0.082031,-0.113281 0.125,-0.15625 0.039063,-0.050781 0.082031,-0.113281 0.125,-0.1875 0.00781,-0.019531 0.019531,-0.039062 0.03125,-0.0625 V -1.203125 C 1.160156,-1.242188 1.175781,-1.289062 1.1875,-1.34375 1.195312,-1.363281 1.203125,-1.375 1.203125,-1.375 c 0.125,-0.207031 0.234375,-0.429688 0.328125,-0.671875 0,-0.00781 0,-0.015625 0,-0.015625 0.039062,-0.0625 0.066406,-0.117188 0.078125,-0.171875 0.019531,-0.0625 0.039063,-0.128906 0.0625,-0.203125 0.00781,-0.019531 0.015625,-0.035156 0.015625,-0.046875 0,-0.019531 0.00391,-0.035156 0.015625,-0.046875 0.03125,-0.070312 0.054687,-0.128906 0.078125,-0.171875 0.019531,-0.039063 0.039062,-0.09375 0.0625,-0.15625 C 1.875,-2.929688 1.90625,-3.003906 1.9375,-3.078125 1.96875,-3.148438 2,-3.222656 2.03125,-3.296875 2.039062,-3.378906 2.054688,-3.445312 2.078125,-3.5 2.097656,-3.5625 2.117188,-3.628906 2.140625,-3.703125 V -3.78125 c 0.00781,-0.050781 0.019531,-0.09375 0.03125,-0.125 0.019531,-0.039062 0.039063,-0.082031 0.0625,-0.125 C 2.285156,-4.15625 2.332031,-4.269531 2.375,-4.375 2.425781,-4.476562 2.476562,-4.59375 2.53125,-4.71875 2.550781,-4.738281 2.5625,-4.757812 2.5625,-4.78125 2.57031,-4.800781 2.582031,-4.820312 2.59375,-4.84375 2.60156,-4.863281 2.613281,-4.878906 2.625,-4.890625 2.63281,-4.910156 2.644531,-4.925781 2.65625,-4.9375 c 0,-0.00781 0,-0.015625 0,-0.015625 0.03125,-0.03125 0.054688,-0.0625 0.078125,-0.09375 0.019531,-0.03125 0.035156,-0.0625 0.046875,-0.09375 H 2.796875 C 2.804688,-5.148438 2.8125,-5.160156 2.8125,-5.171875 2.863281,-5.222656 2.910156,-5.28125 2.953125,-5.34375 2.992188,-5.40625 3.046875,-5.472656 3.109375,-5.546875 3.210938,-5.648438 3.316406,-5.75 3.421875,-5.84375 3.523438,-5.9375 3.640625,-6.019531 3.765625,-6.09375 3.796875,-6.132812 3.851562,-6.179688 3.9375,-6.234375 3.957031,-6.242185 3.976562,-6.253906 4,-6.265625 4.00781,-6.273435 4.015625,-6.28125 4.015625,-6.28125 c 0.00781,0 0.015625,0 0.015625,0 0.00781,-0.00781 0.015625,-0.015625 0.015625,-0.015625 0.050781,-0.00781 0.101563,-0.019531 0.15625,-0.03125 0.0625,-0.019531 0.117187,-0.039063 0.171875,-0.0625 0.019531,0.011719 0.046875,0.015625 0.078125,0.015625 0.019531,0.011719 0.0625,0.027344 0.125,0.046875 0.039063,0.023437 0.070313,0.042969 0.09375,0.0625 0.019531,0.011719 0.035156,0.027344 0.046875,0.046875 0.050781,0.023438 0.097656,0.046875 0.140625,0.078125 0.039063,0.023437 0.082031,0.046875 0.125,0.078125 0.15625,0.125 0.289063,0.261719 0.40625,0.40625 0.125,0.136719 0.226563,0.273438 0.3125,0.40625 H 5.71875 c 0.00781,0.03125 0.023438,0.0625 0.046875,0.09375 0.03125,0.03125 0.054687,0.0625 0.078125,0.09375 0.00781,0 0.015625,0.00781 0.015625,0.015625 0.00781,0 0.019531,0.00781 0.03125,0.015625 0.03125,0.085938 0.066406,0.167969 0.109375,0.25 0.050781,0.074219 0.101562,0.140625 0.15625,0.203125 0,0.011719 0,0.023437 0,0.03125 0.00781,0 0.015625,0 0.015625,0 0.039063,0.09375 0.085937,0.199219 0.140625,0.3125 C 6.363281,-4.117188 6.40625,-4 6.4375,-3.875 c 0.019531,0.042969 0.03125,0.089844 0.03125,0.140625 0.00781,0.054687 0.023438,0.105469 0.046875,0.15625 0.00781,0.085937 0.019531,0.183594 0.03125,0.296875 0.00781,0.105469 0.03125,0.21875 0.0625,0.34375 0.03125,0.117188 0.0625,0.21875 0.09375,0.3125 0.039063,0.09375 0.082031,0.203125 0.125,0.328125 0.019531,0.09375 0.050781,0.1875 0.09375,0.28125 0.039063,0.09375 0.085937,0.167969 0.140625,0.21875 0,0.03125 0.00391,0.0625 0.015625,0.09375 0.00781,0.074219 0.046875,0.136719 0.109375,0.1875 V -1.5 c 0.03125,0.054688 0.050781,0.109375 0.0625,0.171875 0.019531,0.0625 0.046875,0.125 0.078125,0.1875 -0.011719,0 -0.011719,0.00781 0,0.015625 0.00781,0.03125 0.019531,0.058594 0.03125,0.078125 0.039063,0.0625 0.085937,0.132813 0.140625,0.203125 0.0625,0.0625 0.117188,0.136719 0.171875,0.21875 0.0625,0.085938 0.113281,0.171875 0.15625,0.265625 0.070313,0.125 0.125,0.242187 0.15625,0.34375 z M 4.15625,-0.03125 c 0.03125,0.0117188 0.0625,0.015625 0.09375,0.015625 0.03125,0 0.0625,0 0.09375,0 0.101562,0 0.191406,-0.0234375 0.265625,-0.078125 0.019531,-0.007812 0.035156,-0.019531 0.046875,-0.03125 0.019531,-0.007812 0.035156,-0.019531 0.046875,-0.03125 0,-0.0625 0.015625,-0.117188 0.046875,-0.171875 0,-0.007813 0,-0.015625 0,-0.015625 0.00781,-0.03125 0.00781,-0.0625 0,-0.09375 -0.011719,0 -0.023438,0 -0.03125,0 0,-0.007812 0,-0.019531 0,-0.03125 -0.011719,-0.019531 -0.011719,-0.03125 0,-0.03125 0.019531,-0.019531 0.039062,-0.035156 0.0625,-0.046875 0.039062,-0.007813 0.078125,-0.023437 0.109375,-0.046875 0.03125,-0.019531 0.0625,-0.039062 0.09375,-0.0625 C 5.023438,-0.695312 5.054688,-0.75 5.078125,-0.8125 5.085935,-0.820312 5.09375,-0.832031 5.09375,-0.84375 5.09375,-0.851562 5.09766,-0.863281 5.109375,-0.875 5.117188,-0.90625 5.125,-0.929688 5.125,-0.953125 5.132812,-0.972656 5.144531,-1 5.15625,-1.03125 c 0.00781,-0.0625 0.023438,-0.125 0.046875,-0.1875 0.03125,-0.0625 0.0625,-0.117188 0.09375,-0.171875 0.00781,-0.00781 0.019531,-0.019531 0.03125,-0.03125 0.019531,-0.019531 0.035156,-0.039063 0.046875,-0.0625 0.019531,-0.019531 0.035156,-0.039063 0.046875,-0.0625 C 5.441406,-1.566406 5.457031,-1.59375 5.46875,-1.625 c 0.019531,-0.00781 0.035156,-0.03125 0.046875,-0.0625 0.00781,0 0.015625,-0.015625 0.015625,-0.046875 0,-0.03125 -0.011719,-0.066406 -0.03125,-0.109375 -0.023438,-0.039062 -0.058594,-0.082031 -0.109375,-0.125 -0.023437,-0.019531 -0.0625,-0.039062 -0.125,-0.0625 C 5.210938,-2.050781 5.160156,-2.066406 5.109375,-2.078125 5.054688,-2.097656 5,-2.117188 4.9375,-2.140625 c -0.03125,0 -0.058594,0 -0.078125,0 C 4.835938,-2.148435 4.8125,-2.160156 4.78125,-2.171875 4.738281,-2.171875 4.710938,-2.175785 4.703125,-2.1875 4.691406,-2.19531 4.671875,-2.207031 4.640625,-2.21875 4.523438,-2.257812 4.445312,-2.335938 4.40625,-2.453125 4.394531,-2.460938 4.382812,-2.472656 4.375,-2.484375 c 0,-0.019531 -0.00781,-0.039063 -0.015625,-0.0625 0,-0.019531 0,-0.035156 0,-0.046875 0,-0.019531 -0.00781,-0.039062 -0.015625,-0.0625 C 4.34375,-2.675781 4.3125,-2.6875 4.25,-2.6875 4.238281,-2.69531 4.222656,-2.703125 4.203125,-2.703125 c -0.042969,0 -0.074219,0.00781 -0.09375,0.015625 -0.03125,0.03125 -0.054687,0.078125 -0.0625,0.140625 C 4.023438,-2.515625 4.007812,-2.488281 4,-2.46875 c -0.011719,0.023438 -0.023438,0.046875 -0.03125,0.078125 -0.023438,0.042969 -0.042969,0.074219 -0.0625,0.09375 -0.023438,0.042969 -0.054688,0.0625 -0.09375,0.0625 H 3.78125 c -0.054688,0 -0.105469,0.00781 -0.15625,0.015625 C 3.570312,-2.207031 3.519531,-2.195312 3.46875,-2.1875 3.414062,-2.164062 3.359375,-2.148438 3.296875,-2.140625 3.242188,-2.128906 3.1875,-2.117188 3.125,-2.109375 3.050781,-2.109375 3,-2.097656 2.96875,-2.078125 2.945312,-2.066406 2.914062,-2.039062 2.875,-2 2.832031,-1.96875 2.804688,-1.929688 2.796875,-1.890625 2.785156,-1.859375 2.78125,-1.832031 2.78125,-1.8125 c 0.00781,0.023438 0.019531,0.046875 0.03125,0.078125 0.019531,0.0625 0.054688,0.132813 0.109375,0.203125 0.03125,0.074219 0.0625,0.152344 0.09375,0.234375 0.03125,0.085937 0.066406,0.171875 0.109375,0.265625 0.019531,0.042969 0.035156,0.078125 0.046875,0.109375 0.019531,0.023437 0.039063,0.058594 0.0625,0.109375 0.019531,0.054688 0.054687,0.101562 0.109375,0.140625 0.00781,0.023437 0.03125,0.042969 0.0625,0.0625 0.03125,0.023437 0.054688,0.042969 0.078125,0.0625 0.019531,0.023437 0.035156,0.046875 0.046875,0.078125 0.019531,0.011719 0.03125,0.027344 0.03125,0.046875 0,0.011719 0.00391,0.023437 0.015625,0.03125 0.03125,0.03125 0.054687,0.0625 0.078125,0.09375 0.019531,0.023437 0.046875,0.046875 0.078125,0.078125 0.03125,0.023438 0.054687,0.046875 0.078125,0.078125 0.019531,0.023437 0.054688,0.039063 0.109375,0.046875 0.0625,0.03125 0.140625,0.0546875 0.234375,0.0625 z M 3.8125,-1.75 v 0.015625 c 0,0.011719 0.015625,0.015625 0.046875,0.015625 0,0 0,0.00781 0,0.015625 0.00781,0 0.015625,0 0.015625,0 0.050781,0 0.09375,0.023437 0.125,0.0625 0.039062,0.054687 0.113281,0.074219 0.21875,0.0625 C 4.25,-1.597656 4.269531,-1.613281 4.28125,-1.625 4.28906,-1.63281 4.296875,-1.640625 4.296875,-1.640625 4.304685,-1.648435 4.316406,-1.660156 4.328125,-1.671875 4.347656,-1.691406 4.375,-1.695312 4.40625,-1.6875 c 0.03125,0 0.054688,0 0.078125,0 0.019531,0 0.039063,0 0.0625,0 0.03125,-0.00781 0.039063,0 0.03125,0.03125 0,0.054688 -0.015625,0.105469 -0.046875,0.15625 C 4.519531,-1.476562 4.5,-1.453125 4.46875,-1.421875 4.414062,-1.378906 4.375,-1.332031 4.34375,-1.28125 4.320312,-1.226562 4.300781,-1.171875 4.28125,-1.109375 v 0.0625 c 0,0.011719 0.00781,0.023437 0.03125,0.03125 0.019531,0 0.039062,0.00781 0.0625,0.015625 0.039062,0.011719 0.078125,0.023438 0.109375,0.03125 0.039063,0.011719 0.082031,0.023438 0.125,0.03125 0.039063,0.011719 0.066406,0.015625 0.078125,0.015625 0,0.011719 0,0.015625 0,0.015625 0,0 -0.00781,0 -0.015625,0 -0.03125,0 -0.0625,0 -0.09375,0 -0.023437,0 -0.046875,0 -0.078125,0 H 4.40625 c -0.03125,0 -0.0625,0 -0.09375,0 -0.023438,0 -0.046875,0 -0.078125,0 -0.03125,0.023438 -0.058594,0.023438 -0.078125,0 -0.03125,0 -0.0625,0 -0.09375,0 -0.03125,0 -0.058594,-0.003906 -0.078125,-0.015625 H 3.8125 c -0.023438,0 -0.03125,0 -0.03125,0 0.00781,0 0.019531,0 0.03125,0 0,-0.007813 0.015625,-0.019531 0.046875,-0.03125 0.03125,-0.019531 0.070313,-0.039063 0.125,-0.0625 0.00781,0 0.035156,-0.00391 0.078125,-0.015625 0.019531,0 0.03125,-0.00781 0.03125,-0.03125 C 4.101562,-1.125 4.085938,-1.179688 4.046875,-1.234375 4.035156,-1.253906 4.019531,-1.273438 4,-1.296875 3.988281,-1.316406 3.972656,-1.332031 3.953125,-1.34375 3.910156,-1.40625 3.863281,-1.472656 3.8125,-1.546875 c 0,-0.03125 0,-0.082031 0,-0.15625 z m 0.53125,1.03125 c 0.019531,0.03125 0.039062,0.058594 0.0625,0.078125 0.019531,0.011719 0.039062,0.03125 0.0625,0.0625 0.00781,0 0.015625,0.007813 0.015625,0.015625 0,0.011719 -0.00781,0.027344 -0.015625,0.046875 -0.011719,0 -0.039062,0 -0.078125,0 -0.011719,0 -0.027344,0 -0.046875,0 -0.011719,0 -0.023438,0 -0.03125,0 -0.042969,-0.007813 -0.085938,-0.007813 -0.125,0 -0.042969,0 -0.074219,0 -0.09375,0 -0.042969,0 -0.074219,0 -0.09375,0 C 3.976562,-0.523438 3.941406,-0.539062 3.890625,-0.5625 c -0.011719,-0.019531 -0.011719,-0.03125 0,-0.03125 C 3.921875,-0.601562 3.9375,-0.613281 3.9375,-0.625 3.988281,-0.632812 4.046875,-0.660156 4.109375,-0.703125 4.117188,-0.710938 4.132812,-0.71875 4.15625,-0.71875 Z m 0,0"
           id="path10173" />
      </g>
    </g>
  </g>
</svg>
