<?xml version="1.0" encoding="UTF-8" standalone="no"?>
<!-- Created with Inkscape (http://www.inkscape.org/) -->

<svg
   width="2.9245415mm"
   height="2.9820745mm"
   viewBox="0 0 2.9245415 2.9820745"
   version="1.1"
   id="svg11104"
   inkscape:version="1.2.1 (9c6d41e4, 2022-07-14)"
   sodipodi:docname="elder-sign.svg"
   xmlns:inkscape="http://www.inkscape.org/namespaces/inkscape"
   xmlns:sodipodi="http://sodipodi.sourceforge.net/DTD/sodipodi-0.dtd"
   xmlns="http://www.w3.org/2000/svg"
   xmlns:svg="http://www.w3.org/2000/svg">
  <sodipodi:namedview
     id="namedview11106"
     pagecolor="#505050"
     bordercolor="#eeeeee"
     borderopacity="1"
     inkscape:showpageshadow="0"
     inkscape:pageopacity="0"
     inkscape:pagecheckerboard="0"
     inkscape:deskcolor="#505050"
     inkscape:document-units="mm"
     showgrid="false"
     inkscape:zoom="0.2102413"
     inkscape:cx="-40.429734"
     inkscape:cy="47.564393"
     inkscape:window-width="1309"
     inkscape:window-height="456"
     inkscape:window-x="0"
     inkscape:window-y="25"
     inkscape:window-maximized="0"
     inkscape:current-layer="layer1" />
  <defs
     id="defs11101" />
  <g
     inkscape:label="Layer 1"
     inkscape:groupmode="layer"
     id="layer1"
     transform="translate(-115.57586,-135.68269)">
    <g
       fill="#231f20"
       fill-opacity="1"
       id="g8794"
       transform="matrix(0.35277777,0,0,0.35277777,-47.757359,-8.3447862)">
      <g
         id="use8792"
         transform="translate(462.85999,414.72)">
        <path
           d="m 5.625,-1.25 c 0.00781,-0.00781 0.015625,-0.00781 0.015625,0 0.00781,0 0.019531,0 0.03125,0 0.03125,0 0.066406,0.00781 0.109375,0.015625 0.039062,0 0.078125,0.00781 0.109375,0.015625 0.125,0.011719 0.238281,0.03125 0.34375,0.0625 0.113281,0.03125 0.226563,0.070312 0.34375,0.109375 0.00781,0 0.023437,0 0.046875,0 h 0.015625 c 0,-0.00781 0,-0.015625 0,-0.015625 0,-0.00781 0,-0.015625 0,-0.015625 -0.0625,-0.132813 -0.125,-0.269531 -0.1875,-0.40625 C 6.398438,-1.617188 6.347656,-1.757812 6.296875,-1.90625 6.265625,-1.96875 6.238281,-2.015625 6.21875,-2.046875 6.207031,-2.078125 6.195312,-2.101562 6.1875,-2.125 6.1875,-2.15625 6.175781,-2.1875 6.15625,-2.21875 6.144531,-2.25 6.117188,-2.296875 6.078125,-2.359375 c 0,0 0.00391,-0.00391 0.015625,-0.015625 0.019531,-0.019531 0.039062,-0.035156 0.0625,-0.046875 C 6.175781,-2.441406 6.195312,-2.457031 6.21875,-2.46875 6.238281,-2.476562 6.25,-2.488281 6.25,-2.5 6.25781,-2.50781 6.273438,-2.515625 6.296875,-2.515625 6.316406,-2.523435 6.332031,-2.535156 6.34375,-2.546875 6.35156,-2.554685 6.367188,-2.566406 6.390625,-2.578125 6.410156,-2.585935 6.425781,-2.601562 6.4375,-2.625 c 0.00781,0 0.019531,0.011719 0.03125,0.03125 0.039062,0.042969 0.082031,0.085938 0.125,0.125 0.039062,0.042969 0.082031,0.089844 0.125,0.140625 0.125,0.136719 0.242188,0.28125 0.359375,0.4375 0.113281,0.148437 0.21875,0.296875 0.3125,0.453125 0.101563,0.148438 0.203125,0.296875 0.296875,0.453125 0.09375,0.148437 0.179688,0.296875 0.265625,0.453125 L 8.40625,0.3125 c 0.00781,0.019531 0.015625,0.03125 0.015625,0.03125 0,0.019531 0,0.03125 0,0.03125 -0.03125,0 -0.0625,0 -0.09375,0 C 8.304688,0.375 8.28125,0.363281 8.25,0.34375 8.175781,0.332031 8.101562,0.316406 8.03125,0.296875 7.957031,0.273438 7.882812,0.25 7.8125,0.21875 7.675781,0.1875 7.539062,0.148438 7.40625,0.109375 7.269531,0.0664062 7.140625,0.0234375 7.015625,-0.015625 c -0.136719,-0.0390625 -0.273437,-0.0820312 -0.40625,-0.125 -0.125,-0.039063 -0.25,-0.085937 -0.375,-0.140625 C 6.117188,-0.332031 6,-0.378906 5.875,-0.421875 5.75,-0.472656 5.628906,-0.519531 5.515625,-0.5625 5.265625,-0.664062 5.023438,-0.765625 4.796875,-0.859375 4.566406,-0.953125 4.335938,-1.054688 4.109375,-1.171875 3.960938,-1.242188 3.816406,-1.316406 3.671875,-1.390625 3.535156,-1.460938 3.394531,-1.539062 3.25,-1.625 3.195312,-1.65625 3.144531,-1.679688 3.09375,-1.703125 3.039062,-1.734375 2.988281,-1.765625 2.9375,-1.796875 2.925781,-1.804688 2.914062,-1.816406 2.90625,-1.828125 2.894531,-1.835938 2.882812,-1.847656 2.875,-1.859375 c -0.054688,-0.03125 -0.070312,-0.070313 -0.046875,-0.125 0,-0.00781 0,-0.019531 0,-0.03125 0,-0.00781 0,-0.015625 0,-0.015625 0.00781,-0.00781 0.023437,-0.015625 0.046875,-0.015625 l 0.046875,0.015625 c 0.113281,0.054688 0.203125,0.09375 0.265625,0.125 0.070312,0.023438 0.140625,0.046875 0.203125,0.078125 0.0625,0.023437 0.128906,0.046875 0.203125,0.078125 0.070312,0.023438 0.164062,0.058594 0.28125,0.109375 0.113281,0.054687 0.226562,0.101563 0.34375,0.140625 0.125,0.042969 0.25,0.078125 0.375,0.109375 0.082031,0.03125 0.171875,0.058594 0.265625,0.078125 0.09375,0.023438 0.179687,0.042969 0.265625,0.0625 V -1.265625 L 5.078125,-1.3125 V -1.328125 H 5.125 c 0,0 0.00391,0 0.015625,0 0.050781,0.011719 0.097656,0.027344 0.140625,0.046875 0.050781,0.011719 0.097656,0.027344 0.140625,0.046875 0.03125,0 0.054687,0.00781 0.078125,0.015625 0.019531,0 0.046875,0.00781 0.078125,0.015625 0.00781,0 0.03125,0 0.0625,0 0,0 0,-0.00391 0,-0.015625 0,0 -0.00781,0 -0.015625,0 0,-0.00781 0,-0.019531 0,-0.03125 h 0.015625 z m -1.5625,0.3125 c 0,0.011719 -0.00781,0.023438 -0.015625,0.03125 -0.074219,0.105469 -0.148437,0.203125 -0.21875,0.296875 -0.074219,0.09375 -0.148437,0.1875 -0.21875,0.28125 -0.042969,0.054687 -0.085937,0.105469 -0.125,0.15625 -0.03125,0.054687 -0.0625,0.1054688 -0.09375,0.15625 C 3.316406,0.0976562 3.25,0.210938 3.1875,0.328125 3.132812,0.441406 3.085938,0.5625 3.046875,0.6875 2.984375,0.851562 2.941406,1.035156 2.921875,1.234375 2.910156,1.285156 2.90625,1.335938 2.90625,1.390625 c 0,0.050781 0,0.101563 0,0.15625 0,0.00781 -0.00781,0.019531 -0.015625,0.03125 C 2.890625,1.566406 2.882812,1.5625 2.875,1.5625 2.84375,1.519531 2.8125,1.476562 2.78125,1.4375 2.757812,1.394531 2.734375,1.351562 2.703125,1.3125 2.691406,1.289062 2.675781,1.273438 2.65625,1.265625 c 0,0.00781 -0.00781,0.015625 -0.015625,0.015625 0,0.00781 0.00391,0.019531 0.015625,0.03125 L 2.703125,1.578125 C 2.722656,1.640625 2.738281,1.695312 2.75,1.75 2.75781,1.8125 2.769531,1.867188 2.78125,1.921875 2.78906,1.929685 2.796875,1.953125 2.796875,1.984375 2.796875,1.992188 2.789062,2 2.78125,2 c 0,0 0,-0.00781 0,-0.015625 -0.011719,0 -0.023438,0 -0.03125,0 C 2.738281,1.960938 2.722656,1.941406 2.703125,1.921875 2.691406,1.910156 2.675781,1.894531 2.65625,1.875 2.632812,1.84375 2.609375,1.804688 2.578125,1.765625 2.554688,1.722656 2.535156,1.679688 2.515625,1.640625 2.460938,1.554688 2.414062,1.46875 2.375,1.375 2.332031,1.28125 2.296875,1.191406 2.265625,1.109375 2.160156,0.859375 2.082031,0.59375 2.03125,0.3125 2,0.164062 1.984375,0.0234375 1.984375,-0.109375 V -0.1875 c 0,-0.007812 0.00391,-0.015625 0.015625,-0.015625 V -0.1875 c 0,0.011719 0.00781,0.039062 0.03125,0.078125 0.00781,0.0429688 0.019531,0.0859375 0.03125,0.125 0.019531,0.0390625 0.035156,0.0820312 0.046875,0.125 0,0.007813 0.00391,0.03125 0.015625,0.0625 0,0 0.00391,0.003906 0.015625,0.015625 0.00781,0.007812 0.015625,0.003906 0.015625,-0.015625 0,-0.03125 -0.00781,-0.054687 -0.015625,-0.0625 0,-0.0625 -0.00781,-0.1210938 -0.015625,-0.171875 -0.011719,-0.0507812 -0.015625,-0.101562 -0.015625,-0.15625 0,-0.082031 -0.00781,-0.160156 -0.015625,-0.234375 0,-0.082031 0,-0.164063 0,-0.25 0.00781,-0.082031 0.015625,-0.171875 0.015625,-0.265625 0,-0.09375 0.00391,-0.179688 0.015625,-0.265625 L 2.15625,-1.5 c 0,-0.019531 0,-0.046875 0,-0.078125 0,-0.039063 0.00391,-0.078125 0.015625,-0.109375 0.00781,-0.101562 0.019531,-0.203125 0.03125,-0.296875 0.00781,-0.09375 0.019531,-0.191406 0.03125,-0.296875 0.019531,-0.082031 0.035156,-0.164062 0.046875,-0.25 0.00781,-0.09375 0.019531,-0.179688 0.03125,-0.265625 0.019531,-0.101563 0.035156,-0.207031 0.046875,-0.3125 0.019531,-0.101563 0.035156,-0.207031 0.046875,-0.3125 0,-0.00781 0.00391,-0.019531 0.015625,-0.03125 0,-0.019531 0.00781,-0.03125 0.03125,-0.03125 0.00781,0.011719 0.019531,0.015625 0.03125,0.015625 0.019531,0 0.035156,0 0.046875,0 0.03125,0.011719 0.070312,0.015625 0.125,0.015625 0.050781,0 0.085938,0.00781 0.109375,0.015625 0.03125,0.011719 0.039063,0.027344 0.03125,0.046875 -0.011719,0.042969 -0.023437,0.085937 -0.03125,0.125 0,0.042969 -0.00781,0.089844 -0.015625,0.140625 -0.03125,0.1875 -0.054688,0.398438 -0.0625,0.625 -0.011719,0.230469 -0.011719,0.4375 0,0.625 0,0.0625 0,0.125 0,0.1875 0.00781,0.054688 0.019531,0.109375 0.03125,0.171875 0,0.054687 0,0.101563 0,0.140625 0.00781,0.042969 0.015625,0.089844 0.015625,0.140625 0.00781,0.042969 0.015625,0.085937 0.015625,0.125 0,0.042969 0.00391,0.085937 0.015625,0.125 0,0.054687 0.00391,0.109375 0.015625,0.171875 0.00781,0.054688 0.015625,0.105469 0.015625,0.15625 0,0.011719 0,0.015625 0,0.015625 0,0 -0.011719,0 -0.03125,0 C 2.753906,-0.648438 2.742188,-0.664062 2.734375,-0.6875 L 2.71875,-0.671875 H 2.703125 v 0.015625 c 0.019531,0.03125 0.03125,0.070312 0.03125,0.109375 0.00781,0.03125 0.019531,0.0625 0.03125,0.09375 0.019531,0.011719 0.035156,0.011719 0.046875,0 0,-0.007813 0.00781,-0.023437 0.03125,-0.046875 0.039062,-0.050781 0.082031,-0.101562 0.125,-0.15625 0.039062,-0.0625 0.082031,-0.125 0.125,-0.1875 0.0625,-0.070312 0.125,-0.144531 0.1875,-0.21875 0.0625,-0.082031 0.125,-0.164062 0.1875,-0.25 l 0.0625,-0.03125 c 0.00781,-0.019531 0.03125,-0.00391 0.0625,0.046875 0.039062,0.042969 0.070312,0.070313 0.09375,0.078125 0.050781,0.042969 0.109375,0.085938 0.171875,0.125 0.0625,0.042969 0.125,0.085938 0.1875,0.125 0,0 0.00391,0.011719 0.015625,0.03125 z M 1.28125,-3.59375 c 0,0 0.00391,0.00781 0.015625,0.015625 0.019531,0.023437 0.035156,0.042969 0.046875,0.0625 0.019531,0.023437 0.039062,0.039063 0.0625,0.046875 0.03125,0.03125 0.054688,0.054688 0.078125,0.0625 0.03125,0.03125 0.054687,0.0625 0.078125,0.09375 0.03125,0.023438 0.0625,0.046875 0.09375,0.078125 C 1.707031,-3.191406 1.753906,-3.15625 1.796875,-3.125 1.835938,-3.09375 1.882812,-3.050781 1.9375,-3 1.96875,-2.976562 2,-2.957031 2.03125,-2.9375 c 0.039062,0.023438 0.078125,0.046875 0.109375,0.078125 0.050781,0.042969 0.070313,0.09375 0.0625,0.15625 0,0.011719 -0.00781,0.039063 -0.015625,0.078125 -0.011719,0.042969 -0.015625,0.070312 -0.015625,0.078125 0,0.023437 -0.00781,0.042969 -0.015625,0.0625 0,0.023437 -0.00781,0.046875 -0.015625,0.078125 H 2.125 c -0.011719,0 -0.023438,-0.00781 -0.03125,-0.03125 C 1.945312,-2.53125 1.800781,-2.628906 1.65625,-2.734375 1.519531,-2.847656 1.382812,-2.96875 1.25,-3.09375 0.988281,-3.332031 0.765625,-3.585938 0.578125,-3.859375 0.398438,-4.117188 0.257812,-4.40625 0.15625,-4.71875 0.144531,-4.757812 0.140625,-4.785156 0.140625,-4.796875 c -0.011719,-0.00781 -0.011719,-0.015625 0,-0.015625 0.007813,-0.00781 0.019531,-0.015625 0.03125,-0.015625 0.03125,0.011719 0.054687,0.027344 0.078125,0.046875 0.007812,0 0.015625,0 0.015625,0 0.070313,0.054688 0.144531,0.101562 0.21875,0.140625 0.082031,0.042969 0.164063,0.085937 0.25,0.125 0.050781,0.023437 0.101563,0.042969 0.15625,0.0625 C 0.941406,-4.429688 1,-4.414062 1.0625,-4.40625 c 0.15625,0.054688 0.304688,0.101562 0.453125,0.140625 0.15625,0.042969 0.3125,0.089844 0.46875,0.140625 0.113281,0.023438 0.222656,0.046875 0.328125,0.078125 0.113281,0.023437 0.226562,0.039063 0.34375,0.046875 0.0625,0.011719 0.117188,0.023438 0.171875,0.03125 0.0625,0.011719 0.128906,0.015625 0.203125,0.015625 l 0.203125,0.03125 c 0.070313,0.011719 0.144531,0.023437 0.21875,0.03125 0.070313,0 0.140625,0.00781 0.203125,0.015625 0.03125,0.011719 0.0625,0.015625 0.09375,0.015625 0.039062,0 0.082031,0 0.125,0 0.03125,0.011719 0.054688,0.015625 0.078125,0.015625 0.03125,0 0.0625,0.00781 0.09375,0.015625 0.0625,0 0.117187,0.00781 0.171875,0.015625 0.0625,0 0.125,0 0.1875,0 0.039062,0 0.078125,0.00781 0.109375,0.015625 0.039063,0 0.082031,0 0.125,0 0.019531,0 0.046875,0.00781 0.078125,0.015625 0.03125,0.011719 0.0625,0.03125 0.09375,0.0625 0.03125,0.023438 0.054688,0.046875 0.078125,0.078125 0.03125,0.03125 0.0625,0.0625 0.09375,0.09375 L 4.96875,-3.53125 c -0.011719,0 -0.023438,0.00781 -0.03125,0.015625 0,0 -0.011719,0 -0.03125,0 -0.179688,0 -0.359375,0 -0.546875,0 -0.179687,0 -0.355469,-0.00391 -0.53125,-0.015625 -0.074219,0 -0.148437,0 -0.21875,0 -0.074219,0 -0.148437,-0.00391 -0.21875,-0.015625 C 3.347656,-3.554688 3.300781,-3.5625 3.25,-3.5625 c -0.042969,0 -0.089844,-0.00391 -0.140625,-0.015625 -0.03125,0 -0.0625,0 -0.09375,0 -0.023437,0 -0.046875,-0.00391 -0.078125,-0.015625 C 2.78125,-3.613281 2.628906,-3.632812 2.484375,-3.65625 2.347656,-3.675781 2.207031,-3.707031 2.0625,-3.75 2,-3.757812 1.9375,-3.769531 1.875,-3.78125 1.820312,-3.800781 1.757812,-3.820312 1.6875,-3.84375 c -0.011719,0 -0.023438,0 -0.03125,0 C 1.644531,-3.851562 1.632812,-3.859375 1.625,-3.859375 L 1.609375,-3.84375 v 0.015625 c 0.019531,0.011719 0.03125,0.015625 0.03125,0.015625 0.070313,0.023438 0.140625,0.046875 0.203125,0.078125 0.070312,0.023437 0.140625,0.042969 0.203125,0.0625 0.019531,0.011719 0.039063,0.023437 0.0625,0.03125 0.019531,0 0.039063,0.00781 0.0625,0.015625 v 0.015625 c 0,0.011719 0,0.015625 0,0.015625 -0.042969,0 -0.085937,0 -0.125,0 C 2.015625,-3.601562 1.976562,-3.613281 1.9375,-3.625 L 1.625,-3.640625 c -0.011719,0 -0.023438,0 -0.03125,0 H 1.578125 V -3.625 l 0.0625,0.03125 c 0.00781,0.011719 0.023437,0.023438 0.046875,0.03125 0.00781,0 0.015625,0.00781 0.015625,0.015625 L 1.6875,-3.53125 C 1.613281,-3.519531 1.550781,-3.523438 1.5,-3.546875 1.46875,-3.554688 1.4375,-3.5625 1.40625,-3.5625 1.375,-3.570312 1.34375,-3.582031 1.3125,-3.59375 c -0.023438,0 -0.03125,0 -0.03125,0 z m 1.28125,-0.5625 c 0,-0.03125 0,-0.0625 0,-0.09375 C 2.57031,-4.28125 2.582031,-4.3125 2.59375,-4.34375 2.60156,-4.375 2.609375,-4.40625 2.609375,-4.4375 2.617185,-4.46875 2.628906,-4.5 2.640625,-4.53125 l 0.0625,-0.1875 C 2.710938,-4.75 2.71875,-4.773438 2.71875,-4.796875 2.72656,-4.828125 2.738281,-4.859375 2.75,-4.890625 l 0.046875,-0.1875 C 2.804688,-5.109375 2.8125,-5.140625 2.8125,-5.171875 2.820312,-5.210938 2.832031,-5.25 2.84375,-5.28125 l 0.046875,-0.1875 c 0.019531,-0.03125 0.03125,-0.054688 0.03125,-0.078125 0,-0.03125 0.00391,-0.0625 0.015625,-0.09375 L 3,-5.828125 l 0.046875,-0.1875 c 0.00781,-0.0625 0.023437,-0.125 0.046875,-0.1875 0.00781,0 0.015625,0.00781 0.015625,0.015625 0.00781,0 0.015625,0 0.015625,0 0.019531,0.011719 0.03125,0.00781 0.03125,-0.015625 V -6.28125 c 0,-0.03125 0,-0.078125 0,-0.140625 0.00781,-0.00781 0.015625,-0.015625 0.015625,-0.015625 0,0 0,-0.00391 0,-0.015625 H 3.1875 c 0,0.011719 0.00391,0.015625 0.015625,0.015625 0.00781,0.03125 0.019531,0.054688 0.03125,0.0625 0.03125,0.085938 0.066406,0.164062 0.109375,0.234375 0.039062,0.074219 0.078125,0.152344 0.109375,0.234375 0.050781,0.085938 0.101563,0.167969 0.15625,0.25 0.050781,0.085938 0.109375,0.164062 0.171875,0.234375 0.132812,0.167969 0.28125,0.3125 0.4375,0.4375 0.00781,0.011719 0.019531,0.023437 0.03125,0.03125 0.00781,0 0.015625,0.00781 0.015625,0.015625 -0.011719,0 -0.023437,0 -0.03125,0 h -0.0625 c -0.011719,0 -0.015625,0.00781 -0.015625,0.015625 v 0.015625 c 0.00781,0 0.015625,0.00781 0.015625,0.015625 0.00781,0 0.019531,0.00781 0.03125,0.015625 0.1875,0.136719 0.359375,0.273438 0.515625,0.40625 0.195312,0.15625 0.378906,0.320312 0.546875,0.484375 0.175781,0.167969 0.347656,0.339844 0.515625,0.515625 0.019531,0.023438 0.035156,0.042969 0.046875,0.0625 0.00781,0.011719 0.023437,0.027344 0.046875,0.046875 0.00781,0.011719 0.00781,0.023437 0,0.03125 -0.023438,0.023437 -0.042969,0.042969 -0.0625,0.0625 -0.023438,0.011719 -0.046875,0.023437 -0.078125,0.03125 -0.011719,0.011719 -0.027344,0.011719 -0.046875,0 C 5.675781,-3.242188 5.664062,-3.25 5.65625,-3.25 5.644531,-3.257812 5.632812,-3.269531 5.625,-3.28125 5.601562,-3.289062 5.582031,-3.304688 5.5625,-3.328125 5.539062,-3.347656 5.519531,-3.363281 5.5,-3.375 5.445312,-3.40625 5.398438,-3.4375 5.359375,-3.46875 5.316406,-3.507812 5.273438,-3.546875 5.234375,-3.578125 5.179688,-3.609375 5.132812,-3.632812 5.09375,-3.65625 5.050781,-3.6875 5.003906,-3.71875 4.953125,-3.75 4.898438,-3.789062 4.847656,-3.828125 4.796875,-3.859375 4.742188,-3.898438 4.691406,-3.941406 4.640625,-3.984375 4.597656,-4.003906 4.554688,-4.03125 4.515625,-4.0625 4.484375,-4.09375 4.453125,-4.125 4.421875,-4.15625 4.367188,-4.1875 4.316406,-4.21875 4.265625,-4.25 4.210938,-4.28125 4.160156,-4.316406 4.109375,-4.359375 v 0.015625 l 0.046875,0.078125 c 0.00781,0.011719 0.015625,0.023437 0.015625,0.03125 0.00781,0.011719 0.015625,0.023437 0.015625,0.03125 V -4.1875 c -0.011719,0 -0.015625,-0.00391 -0.015625,-0.015625 -0.042969,-0.019531 -0.085937,-0.039063 -0.125,-0.0625 C 4.003906,-4.285156 3.960938,-4.3125 3.921875,-4.34375 3.828125,-4.394531 3.738281,-4.460938 3.65625,-4.546875 3.644531,-4.554688 3.632812,-4.5625 3.625,-4.5625 c 0,-0.00781 -0.00781,-0.015625 -0.015625,-0.015625 -0.011719,0.011719 -0.011719,0.023437 0,0.03125 0.00781,0.03125 0.015625,0.070313 0.015625,0.109375 0.00781,0.03125 0.019531,0.0625 0.03125,0.09375 H 3.640625 c 0,0 -0.00781,-0.00391 -0.015625,-0.015625 L 3.515625,-4.4375 C 3.460938,-4.46875 3.425781,-4.488281 3.40625,-4.5 3.394531,-4.519531 3.375,-4.546875 3.34375,-4.578125 l -0.0625,-0.0625 C 3.25,-4.648438 3.234375,-4.65625 3.234375,-4.65625 c -0.011719,-0.00781 -0.027344,-0.00781 -0.046875,0 -0.011719,0.011719 -0.023438,0.027344 -0.03125,0.046875 0,0.011719 -0.00781,0.027344 -0.015625,0.046875 C 3.128906,-4.550781 3.125,-4.539062 3.125,-4.53125 3.101562,-4.488281 3.082031,-4.4375 3.0625,-4.375 3.050781,-4.320312 3.035156,-4.273438 3.015625,-4.234375 3.003906,-4.203125 3,-4.175781 3,-4.15625 3,-4.144531 2.992188,-4.125 2.984375,-4.09375 2.972656,-4.070312 2.957031,-4.066406 2.9375,-4.078125 2.894531,-4.085938 2.832031,-4.097656 2.75,-4.109375 2.675781,-4.117188 2.625,-4.125 2.59375,-4.125 2.570312,-4.144531 2.5625,-4.15625 2.5625,-4.15625 Z m 3.90625,0.515625 c -0.042969,0 -0.09375,0 -0.15625,0 -0.054688,0 -0.101562,0 -0.140625,0 -0.023437,0.011719 -0.042969,0.015625 -0.0625,0.015625 -0.023437,0 -0.046875,0 -0.078125,0 -0.0625,0 -0.117188,-0.015625 -0.15625,-0.046875 L 5.796875,-3.75 c -0.011719,0 -0.015625,-0.00781 -0.015625,-0.03125 0.03125,0 0.0625,0 0.09375,0 0.03125,0 0.0625,-0.00391 0.09375,-0.015625 C 6,-3.804688 6.023438,-3.8125 6.046875,-3.8125 c 0.019531,0 0.039063,0 0.0625,0 0.00781,0 0.015625,-0.00391 0.015625,-0.015625 C 6.113281,-3.835938 6.097656,-3.84375 6.078125,-3.84375 6.066406,-3.851562 6.054688,-3.863281 6.046875,-3.875 v -0.015625 c 0.00781,-0.00781 0.019531,-0.015625 0.03125,-0.015625 0.019531,0 0.035156,-0.00391 0.046875,-0.015625 0.082031,-0.00781 0.160156,-0.019531 0.234375,-0.03125 0.082031,-0.00781 0.160156,-0.019531 0.234375,-0.03125 0.0625,-0.00781 0.117188,-0.019531 0.171875,-0.03125 0.0625,-0.00781 0.128906,-0.019531 0.203125,-0.03125 L 7.125,-4.078125 c 0.019531,0 0.023438,-0.00781 0.015625,-0.03125 L 7.125,-4.125 c 0,-0.019531 0.00781,-0.03125 0.03125,-0.03125 0.019531,-0.00781 0.039062,-0.015625 0.0625,-0.015625 0.019531,0 0.046875,-0.00391 0.078125,-0.015625 0.164063,-0.050781 0.335937,-0.097656 0.515625,-0.140625 0.175781,-0.050781 0.347656,-0.101563 0.515625,-0.15625 0.019531,0 0.046875,-0.00391 0.078125,-0.015625 0,0 0.00391,0.00781 0.015625,0.015625 0,0 -0.011719,0.00781 -0.03125,0.015625 -0.136719,0.125 -0.273437,0.257812 -0.40625,0.390625 -0.136719,0.125 -0.277344,0.25 -0.421875,0.375 C 7.425781,-3.585938 7.289062,-3.476562 7.15625,-3.375 7.019531,-3.269531 6.882812,-3.164062 6.75,-3.0625 6.625,-2.976562 6.5,-2.890625 6.375,-2.796875 6.25,-2.703125 6.128906,-2.613281 6.015625,-2.53125 5.890625,-2.445312 5.769531,-2.359375 5.65625,-2.265625 5.539062,-2.179688 5.421875,-2.09375 5.296875,-2 5.210938,-1.9375 5.125,-1.863281 5.03125,-1.78125 c -0.085938,0.074219 -0.167969,0.15625 -0.25,0.25 -0.011719,0 -0.027344,0.011719 -0.046875,0.03125 -0.0625,0.042969 -0.132813,0.042969 -0.203125,0 -0.011719,-0.019531 -0.015625,-0.046875 -0.015625,-0.078125 0,-0.00781 0,-0.019531 0,-0.03125 0.00781,-0.00781 0.015625,-0.019531 0.015625,-0.03125 L 4.578125,-1.6875 C 4.648438,-1.769531 4.71875,-1.847656 4.78125,-1.921875 4.851562,-2.003906 4.925781,-2.082031 5,-2.15625 5.03125,-2.1875 5.0625,-2.21875 5.09375,-2.25 5.125,-2.28125 5.160156,-2.3125 5.203125,-2.34375 5.378906,-2.53125 5.5625,-2.691406 5.75,-2.828125 c 0.050781,-0.039063 0.097656,-0.082031 0.140625,-0.125 0.050781,-0.039063 0.097656,-0.082031 0.140625,-0.125 0.039062,-0.03125 0.078125,-0.0625 0.109375,-0.09375 0.03125,-0.03125 0.0625,-0.066406 0.09375,-0.109375 C 6.253906,-3.332031 6.289062,-3.378906 6.34375,-3.421875 6.363281,-3.441406 6.382812,-3.46875 6.40625,-3.5 l 0.0625,-0.109375 z M 4,-3.421875 c 0.00781,-0.00781 0.023438,-0.00781 0.046875,0 0.00781,0 0.019531,0.00781 0.03125,0.015625 0.050781,0.03125 0.101563,0.070312 0.15625,0.109375 0.050781,0.042969 0.101563,0.089844 0.15625,0.140625 0.039063,0.03125 0.070313,0.070312 0.09375,0.109375 0.03125,0.03125 0.0625,0.070313 0.09375,0.109375 0.019531,0.054688 0.03125,0.109375 0.03125,0.171875 0,0.085937 -0.011719,0.179687 -0.03125,0.28125 -0.011719,0.011719 -0.023437,0.027344 -0.03125,0.046875 0,0.023438 -0.00781,0.039062 -0.015625,0.046875 0,0.03125 -0.00781,0.0625 -0.015625,0.09375 -0.023437,0.054687 -0.015625,0.105469 0.015625,0.15625 0.00781,0.03125 0.03125,0.070313 0.0625,0.109375 0.00781,0 0.015625,0.00781 0.015625,0.015625 V -2 C 4.597656,-2 4.59375,-2 4.59375,-2 4.4375,-1.988281 4.28125,-2.015625 4.125,-2.078125 3.96875,-2.140625 3.84375,-2.226562 3.75,-2.34375 3.6875,-2.40625 3.65625,-2.484375 3.65625,-2.578125 c 0,-0.0625 0,-0.109375 0,-0.140625 0.039062,-0.132812 0.097656,-0.25 0.171875,-0.34375 0.00781,0 0.019531,-0.00391 0.03125,-0.015625 0,0.011719 0,0.015625 0,0.015625 v 0.03125 C 3.867188,-3 3.875,-2.972656 3.875,-2.953125 c 0,0.023437 0,0.046875 0,0.078125 0.00781,0.074219 0.035156,0.132812 0.078125,0.171875 0.019531,0.011719 0.03125,0.011719 0.03125,0 C 3.992188,-2.710938 4,-2.722656 4,-2.734375 c 0.03125,-0.0625 0.050781,-0.125 0.0625,-0.1875 0.019531,-0.070313 0.03125,-0.144531 0.03125,-0.21875 0,-0.101563 -0.027344,-0.191406 -0.078125,-0.265625 0,-0.00781 -0.00781,-0.015625 -0.015625,-0.015625 z m -0.296875,1.4375 c -0.074219,0 -0.140625,0 -0.203125,0 C 3.4375,-1.992188 3.375,-2.003906 3.3125,-2.015625 3.25,-2.023438 3.1875,-2.039062 3.125,-2.0625 3.0625,-2.09375 3,-2.125 2.9375,-2.15625 2.925781,-2.164062 2.914062,-2.171875 2.90625,-2.171875 2.894531,-2.179688 2.882812,-2.191406 2.875,-2.203125 2.863281,-2.210938 2.847656,-2.222656 2.828125,-2.234375 2.816406,-2.253906 2.804688,-2.269531 2.796875,-2.28125 2.703125,-2.394531 2.703125,-2.550781 2.796875,-2.75 2.816406,-2.789062 2.84375,-2.828125 2.875,-2.859375 2.90625,-2.898438 2.953125,-2.945312 3.015625,-3 3.066406,-3.03125 3.113281,-3.054688 3.15625,-3.078125 c 0.050781,-0.019531 0.097656,-0.039063 0.140625,-0.0625 0.039063,-0.00781 0.078125,-0.019531 0.109375,-0.03125 0.039062,-0.00781 0.078125,-0.019531 0.109375,-0.03125 0.00781,-0.00781 0.023437,-0.015625 0.046875,-0.015625 0.019531,0 0.039062,0 0.0625,0 h 0.015625 c 0,0.023438 -0.00781,0.03125 -0.015625,0.03125 0,0.011719 -0.011719,0.023438 -0.03125,0.03125 C 3.5625,-3.125 3.53125,-3.070312 3.5,-3 3.46875,-2.9375 3.4375,-2.890625 3.40625,-2.859375 3.394531,-2.835938 3.382812,-2.800781 3.375,-2.75 c -0.011719,0.054688 -0.015625,0.105469 -0.015625,0.15625 0.00781,0.125 0.039063,0.214844 0.09375,0.265625 0.0625,0.054687 0.109375,0.089844 0.140625,0.109375 l 0.125,0.078125 0.0625,0.03125 c 0.019531,0.011719 0.03125,0.023437 0.03125,0.03125 0,0.023437 0.00391,0.03125 0.015625,0.03125 0.019531,0 0.035156,0 0.046875,0 0.019531,0 0.039062,0.00781 0.0625,0.015625 0.00781,0 0.015625,0 0.015625,0 0,0 0.00781,0.00781 0.03125,0.015625 V -2 c -0.03125,0.011719 -0.078125,0.015625 -0.140625,0.015625 -0.03125,0 -0.078125,0 -0.140625,0 z M 4.53125,-3.15625 c 0,-0.00781 0,-0.015625 0,-0.015625 0,0 0.00391,-0.00391 0.015625,-0.015625 0.03125,-0.019531 0.066406,-0.03125 0.109375,-0.03125 0.019531,-0.00781 0.039062,-0.015625 0.0625,-0.015625 0.03125,0 0.054688,0 0.078125,0 0.019531,0 0.039063,0 0.0625,0 C 4.878906,-3.242188 4.90625,-3.25 4.9375,-3.25 c 0.00781,0 0.00781,-0.00781 0,-0.03125 0,0 0,-0.00391 0,-0.015625 v -0.03125 c 0,-0.00781 0,-0.015625 0,-0.015625 h 0.015625 c 0.144531,-0.00781 0.28125,0.011719 0.40625,0.0625 l 0.078125,0.0625 c 0.03125,0.023438 0.054688,0.042969 0.078125,0.0625 0.019531,0.042969 0.023437,0.109375 0.015625,0.203125 0,0.09375 -0.015625,0.164063 -0.046875,0.203125 -0.023437,0.042969 -0.042969,0.070312 -0.0625,0.078125 -0.03125,0.03125 -0.0625,0.058594 -0.09375,0.078125 -0.03125,0.023438 -0.0625,0.046875 -0.09375,0.078125 -0.042969,0.03125 -0.089844,0.070313 -0.140625,0.109375 -0.042969,0.03125 -0.089844,0.058594 -0.140625,0.078125 -0.042969,0.03125 -0.085937,0.054687 -0.125,0.0625 -0.03125,0 -0.070313,0.011719 -0.109375,0.03125 -0.011719,-0.00781 -0.027344,-0.00781 -0.046875,0 -0.011719,0 -0.015625,-0.00391 -0.015625,-0.015625 0.00781,-0.00781 0.015625,-0.015625 0.015625,-0.015625 l 0.03125,-0.03125 c 0.03125,-0.039063 0.066406,-0.082031 0.109375,-0.125 0.050781,-0.050781 0.09375,-0.09375 0.125,-0.125 C 4.945312,-2.554688 4.957031,-2.582031 4.96875,-2.625 4.988281,-2.675781 5.003906,-2.710938 5.015625,-2.734375 5.035156,-2.785156 5.03125,-2.835938 5,-2.890625 4.96875,-2.953125 4.929688,-2.992188 4.890625,-3.015625 4.828125,-3.066406 4.757812,-3.101562 4.6875,-3.125 4.65625,-3.125 4.628906,-3.128906 4.609375,-3.140625 4.585938,-3.148438 4.5625,-3.15625 4.53125,-3.15625 Z m 0,0"
           id="path11128" />
      </g>
    </g>
  </g>
</svg>
