<?xml version="1.0" encoding="UTF-8" standalone="no"?>
<!-- Created with Inkscape (http://www.inkscape.org/) -->

<svg
   width="19.542368"
   height="24"
   viewBox="0 0 5.1705847 6.3500001"
   version="1.1"
   id="svg18518"
   inkscape:version="1.2.1 (9c6d41e4, 2022-07-14)"
   sodipodi:docname="tablet.svg"
   xmlns:inkscape="http://www.inkscape.org/namespaces/inkscape"
   xmlns:sodipodi="http://sodipodi.sourceforge.net/DTD/sodipodi-0.dtd"
   xmlns="http://www.w3.org/2000/svg"
   xmlns:svg="http://www.w3.org/2000/svg">
  <sodipodi:namedview
     id="namedview18520"
     pagecolor="#505050"
     bordercolor="#eeeeee"
     borderopacity="1"
     inkscape:showpageshadow="0"
     inkscape:pageopacity="0"
     inkscape:pagecheckerboard="0"
     inkscape:deskcolor="#505050"
     inkscape:document-units="mm"
     showgrid="false"
     inkscape:zoom="0.70199214"
     inkscape:cx="-156.69691"
     inkscape:cy="133.90463"
     inkscape:window-width="1390"
     inkscape:window-height="938"
     inkscape:window-x="0"
     inkscape:window-y="25"
     inkscape:window-maximized="0"
     inkscape:current-layer="layer1" />
  <defs
     id="defs18515" />
  <g
     inkscape:label="Layer 1"
     inkscape:groupmode="layer"
     id="layer1"
     transform="translate(-146.55454,-113.11524)">
    <g
       fill="#231f20"
       fill-opacity="1"
       id="g14110"
       transform="matrix(0.7653484,0,0,0.7653484,-116.45571,-209.00278)">
      <g
         id="use14108"
         transform="translate(343.30399,427.362)">
        <path
           d="M 3.328125,1.609375 C 3.316406,1.597656 3.3125,1.59375 3.3125,1.59375 3.3125,1.570312 3.300781,1.5625 3.28125,1.5625 c -0.054688,0 -0.089844,0 -0.109375,0 -0.023437,0 -0.039063,0.00391 -0.046875,0.015625 -0.011719,0 -0.023438,0 -0.03125,0 0,0 -0.00781,0.00391 -0.015625,0.015625 -0.023437,0 -0.03125,0.00391 -0.03125,0.015625 C 3.035156,1.617188 3.019531,1.628906 3,1.640625 c -0.011719,0 -0.027344,0 -0.046875,0 C 2.929688,1.648438 2.914062,1.65625 2.90625,1.65625 2.882812,1.664062 2.863281,1.671875 2.84375,1.671875 c -0.011719,0 -0.027344,0 -0.046875,0 -0.011719,0 -0.023437,-0.00781 -0.03125,-0.015625 0,0 -0.011719,-0.011719 -0.03125,-0.03125 -0.054687,-0.011719 -0.09375,-0.011719 -0.125,0 -0.011719,0.00781 -0.023437,0.015625 -0.03125,0.015625 0,0.00781 -0.00781,0.019531 -0.015625,0.03125 0,0.00781 -0.00781,0.015625 -0.015625,0.015625 -0.011719,0 -0.027344,0 -0.046875,0 -0.011719,0 -0.023438,0.00391 -0.03125,0.015625 -0.023438,0 -0.042969,0 -0.0625,0 -0.023438,0 -0.046875,0.00391 -0.078125,0.015625 H 2.28125 C 2.207031,1.695312 2.148438,1.691406 2.109375,1.703125 H 2.09375 C 2.082031,1.691406 2.070312,1.671875 2.0625,1.640625 2.039062,1.597656 2.007812,1.585938 1.96875,1.609375 1.945312,1.609375 1.929688,1.613281 1.921875,1.625 1.898438,1.632812 1.878906,1.648438 1.859375,1.671875 1.847656,1.679688 1.832031,1.6875 1.8125,1.6875 1.800781,1.6875 1.796875,1.691406 1.796875,1.703125 1.796875,1.722656 1.78125,1.726562 1.75,1.71875 H 1.734375 C 1.710938,1.695312 1.691406,1.6875 1.671875,1.6875 c -0.023437,0 -0.042969,-0.00781 -0.0625,-0.015625 0,0 -0.011719,0.00391 -0.03125,0.015625 0,0.00781 -0.00781,0.015625 -0.015625,0.015625 C 1.539062,1.710938 1.507812,1.71875 1.46875,1.71875 1.445312,1.726562 1.425781,1.734375 1.40625,1.734375 c -0.011719,0 -0.03125,0 -0.0625,0 0,0.00781 -0.00781,0.00781 -0.015625,0 v -0.03125 c 0,0 0,-0.00781 0,-0.015625 0,-0.011719 -0.011719,-0.015625 -0.03125,-0.015625 -0.03125,0 -0.054687,0.00391 -0.0625,0.015625 0,0.00781 -0.00781,0.015625 -0.015625,0.015625 0,0.00781 0,0.019531 0,0.03125 -0.011719,0.019531 -0.027344,0.03125 -0.046875,0.03125 H 1.15625 C 1.164062,1.742188 1.171875,1.726562 1.171875,1.71875 c 0,-0.011719 0,-0.023438 0,-0.03125 0,-0.011719 -0.00781,-0.023438 -0.015625,-0.03125 0,0 0,0.00391 0,0.015625 -0.023438,0 -0.039062,0.00391 -0.046875,0.015625 -0.011719,0 -0.023437,0.00391 -0.03125,0.015625 0,0.00781 -0.00781,0.019531 -0.015625,0.03125 C 1.050781,1.753906 1.046875,1.773438 1.046875,1.796875 1.035156,1.804688 1.023438,1.8125 1.015625,1.8125 h -0.09375 c 0,0 0,-0.00781 0,-0.015625 v -0.0625 C 0.929688,1.671875 0.914062,1.613281 0.875,1.5625 0.875,1.550781 0.867188,1.539062 0.859375,1.53125 0.847656,1.507812 0.84375,1.488281 0.84375,1.46875 c 0,-0.011719 0,-0.027344 0,-0.046875 C 0.84375,1.398438 0.835938,1.382812 0.828125,1.375 0.816406,1.351562 0.8125,1.335938 0.8125,1.328125 0.8125,1.316406 0.804688,1.300781 0.796875,1.28125 0.785156,1.25 0.773438,1.210938 0.765625,1.171875 c 0,-0.042969 0,-0.085937 0,-0.125 C 0.765625,1.023438 0.757812,0.988281 0.75,0.9375 0.738281,0.914062 0.726562,0.890625 0.71875,0.859375 c 0,-0.03125 0,-0.054687 0,-0.0625 C 0.695312,0.753906 0.6875,0.722656 0.6875,0.703125 0.695312,0.671875 0.691406,0.632812 0.671875,0.59375 0.660156,0.550781 0.660156,0.519531 0.671875,0.5 0.671875,0.46875 0.660156,0.429688 0.640625,0.390625 0.628906,0.359375 0.625,0.335938 0.625,0.328125 0.613281,0.273438 0.609375,0.226562 0.609375,0.1875 c 0.007813,-0.042969 0.007813,-0.074219 0,-0.09375 0,-0.0429688 -0.007813,-0.078125 -0.015625,-0.109375 0,-0.0390625 0,-0.078125 0,-0.109375 0,-0.019531 -0.007812,-0.039062 -0.015625,-0.0625 0,-0.0625 -0.015625,-0.132812 -0.046875,-0.21875 0,-0.039062 0.003906,-0.066406 0.015625,-0.078125 0.007813,-0.039063 0.007813,-0.082031 0,-0.125 0,-0.007813 -0.007813,-0.019531 -0.015625,-0.03125 0,-0.007813 0,-0.019531 0,-0.03125 v -0.0625 C 0.519531,-0.765625 0.507812,-0.804688 0.5,-0.859375 c 0,-0.050781 0.003906,-0.101563 0.015625,-0.15625 0,-0.00781 0,-0.015625 0,-0.015625 0,-0.00781 0,-0.023438 0,-0.046875 C 0.492188,-1.097656 0.484375,-1.125 0.484375,-1.15625 c 0,-0.039062 0,-0.078125 0,-0.109375 -0.023437,-0.019531 -0.03125,-0.039063 -0.03125,-0.0625 0,-0.019531 0,-0.039063 0,-0.0625 V -1.46875 c 0,-0.03125 0,-0.0625 0,-0.09375 -0.011719,-0.03125 -0.023437,-0.054688 -0.03125,-0.078125 0,-0.019531 0,-0.046875 0,-0.078125 C 0.410156,-1.75 0.40625,-1.785156 0.40625,-1.828125 0.40625,-1.878906 0.398438,-1.914062 0.390625,-1.9375 0.378906,-1.96875 0.375,-2 0.375,-2.03125 c 0,-0.039062 0,-0.078125 0,-0.109375 0,-0.019531 0,-0.039063 0,-0.0625 0,-0.019531 0,-0.046875 0,-0.078125 0,-0.03125 0,-0.0625 0,-0.09375 0,-0.03125 0,-0.0625 0,-0.09375 -0.023438,-0.03125 -0.023438,-0.066406 0,-0.109375 0,-0.019531 0,-0.046875 0,-0.078125 -0.023438,-0.019531 -0.03125,-0.039062 -0.03125,-0.0625 0,-0.03125 0.007812,-0.082031 0.03125,-0.15625 0.007812,-0.00781 0.007812,-0.03125 0,-0.0625 -0.03125,-0.050781 -0.03125,-0.09375 0,-0.125 0,-0.019531 0,-0.03125 0,-0.03125 0,0 0,-0.00391 0,-0.015625 0,-0.039063 0,-0.078125 0,-0.109375 0.007812,-0.039062 0.007812,-0.082031 0,-0.125 -0.023438,-0.050781 -0.023438,-0.09375 0,-0.125 0.007812,-0.03125 0.007812,-0.066406 0,-0.109375 0,-0.03125 0.007812,-0.054687 0.03125,-0.078125 C 0.414062,-3.6875 0.425781,-3.722656 0.4375,-3.765625 0.445312,-3.804688 0.460938,-3.84375 0.484375,-3.875 0.523438,-3.894531 0.5625,-3.90625 0.59375,-3.90625 c 0.007812,0 0.019531,0.00781 0.03125,0.015625 0,0 0.003906,0 0.015625,0 0.019531,0.011719 0.039063,0.023437 0.0625,0.03125 0.019531,0 0.035156,0.011719 0.046875,0.03125 0.03125,0 0.0625,0.011719 0.09375,0.03125 0.03125,0.023437 0.0625,0.046875 0.09375,0.078125 0.03125,0.03125 0.070312,0.054688 0.125,0.0625 0.03125,0.011719 0.054688,0.027344 0.078125,0.046875 0.019531,0.011719 0.046875,0.023437 0.078125,0.03125 0.03125,0.011719 0.054688,0.023437 0.078125,0.03125 0.03125,0 0.066406,0.00781 0.109375,0.015625 0.019531,0 0.035156,0.00781 0.046875,0.015625 0.00781,0 0.023437,0.00781 0.046875,0.015625 0.0625,0.042969 0.117188,0.070312 0.171875,0.078125 0.039063,0.023437 0.078125,0.042969 0.109375,0.0625 0.039062,0.011719 0.082031,0.03125 0.125,0.0625 0.00781,0.023437 0.035156,0.03125 0.078125,0.03125 0.019531,0 0.046875,0.011719 0.078125,0.03125 0.03125,0.03125 0.066406,0.054687 0.109375,0.0625 0.019531,0 0.035156,0.00781 0.046875,0.015625 0.019531,0 0.046875,0.00781 0.078125,0.015625 C 2.335938,-3.109375 2.375,-3.082031 2.40625,-3.0625 2.4375,-3.050781 2.46875,-3.039062 2.5,-3.03125 2.5625,-3 2.613281,-2.960938 2.65625,-2.921875 2.6875,-2.890625 2.710938,-2.851562 2.734375,-2.8125 2.753906,-2.769531 2.78125,-2.742188 2.8125,-2.734375 l 0.0625,0.03125 c 0.00781,0.011719 0.019531,0.023437 0.03125,0.03125 0.019531,0.011719 0.039062,0.023437 0.0625,0.03125 0.019531,0.03125 0.046875,0.046875 0.078125,0.046875 0.039063,0.011719 0.0625,0.015625 0.0625,0.015625 0.03125,0.011719 0.066406,0.027344 0.109375,0.046875 0.050781,0.011719 0.085938,0.027344 0.109375,0.046875 0.00781,0.011719 0.03125,0.023437 0.0625,0.03125 0.050781,0.03125 0.09375,0.058594 0.125,0.078125 0.00781,0.011719 0.019531,0.023438 0.03125,0.03125 0.019531,0 0.035156,0 0.046875,0 0.019531,0.011719 0.035156,0.023438 0.046875,0.03125 0.019531,0.011719 0.035156,0.023438 0.046875,0.03125 0.00781,0.011719 0.019531,0.023438 0.03125,0.03125 0.019531,0 0.035156,0.00781 0.046875,0.015625 0.00781,0.011719 0.023437,0.023437 0.046875,0.03125 0.019531,0.011719 0.039062,0.023437 0.0625,0.03125 0.03125,0.011719 0.054688,0.03125 0.078125,0.0625 0,0.011719 0.00781,0.023437 0.03125,0.03125 0.039063,0.054687 0.082031,0.089844 0.125,0.109375 0.019531,0.023438 0.050781,0.058594 0.09375,0.109375 0.050781,0.042969 0.082031,0.078125 0.09375,0.109375 0.00781,0.03125 0.019531,0.058594 0.03125,0.078125 0.019531,0.011719 0.039063,0.027344 0.0625,0.046875 0.019531,0.011719 0.035156,0.03125 0.046875,0.0625 0.019531,0.023438 0.035156,0.042969 0.046875,0.0625 0.00781,0.023438 0.019531,0.042969 0.03125,0.0625 0.00781,0.023438 0.019531,0.039062 0.03125,0.046875 0.019531,0.03125 0.035156,0.058594 0.046875,0.078125 0.00781,0.0625 0.023438,0.101562 0.046875,0.109375 0.03125,0.03125 0.046875,0.058594 0.046875,0.078125 0,0.023438 0,0.042969 0,0.0625 0.00781,0.023438 0.019531,0.039062 0.03125,0.046875 0.039062,0.117187 0.0625,0.210937 0.0625,0.28125 0,0.054687 0.015625,0.109375 0.046875,0.171875 0.00781,0.03125 0.019531,0.0625 0.03125,0.09375 0.00781,0.023438 0.015625,0.046875 0.015625,0.078125 0.00781,0.03125 0.015625,0.0625 0.015625,0.09375 0.00781,0.023437 0.015625,0.046875 0.015625,0.078125 0,0.011719 0.00391,0.03125 0.015625,0.0625 0.00781,0.042969 0.019531,0.0898438 0.03125,0.140625 0,0.01953125 0,0.0390625 0,0.0625 0,0.0195312 0,0.0390625 0,0.0625 0,0.03125 0,0.054687 0,0.078125 0.00781,0.019531 0.019531,0.046875 0.03125,0.078125 0,0.007813 0,0.019531 0,0.03125 0,0.019531 0.00391,0.039063 0.015625,0.0625 0,0.019531 0.00391,0.050781 0.015625,0.09375 0,0.019531 0,0.050781 0,0.09375 V 0.625 c 0,0.050781 0.00781,0.097656 0.03125,0.140625 0.00781,0.0625 0.015625,0.125 0.015625,0.1875 0.00781,0.0625 0.00781,0.128906 0,0.203125 v 0.015625 c 0,0.050781 -0.00781,0.082031 -0.015625,0.09375 0,0.019531 -0.00781,0.046875 -0.015625,0.078125 L 5,1.390625 C 4.988281,1.410156 4.976562,1.421875 4.96875,1.421875 H 4.875 C 4.832031,1.429688 4.796875,1.425781 4.765625,1.40625 4.753906,1.394531 4.738281,1.390625 4.71875,1.390625 4.695312,1.398438 4.660156,1.40625 4.609375,1.40625 h -0.125 c -0.03125,0 -0.054687,0 -0.0625,0 C 4.398438,1.414062 4.363281,1.421875 4.3125,1.421875 H 4.125 c -0.03125,0 -0.046875,0.00781 -0.046875,0.03125 0,0 -0.00781,0.00391 -0.015625,0.015625 C 4.050781,1.488281 4.039062,1.5 4.03125,1.5 3.988281,1.5 3.945312,1.503906 3.90625,1.515625 3.875,1.523438 3.835938,1.535156 3.796875,1.546875 c -0.011719,0 -0.023437,-0.00781 -0.03125,-0.015625 V 1.5 c 0,0 0,-0.00781 0,-0.015625 0,0 -0.00781,0 -0.015625,0 -0.023438,0 -0.03125,0.00391 -0.03125,0.015625 -0.011719,0.00781 -0.015625,0.015625 -0.015625,0.015625 0,0.00781 -0.00781,0.015625 -0.015625,0.015625 0,0.019531 -0.00781,0.03125 -0.015625,0.03125 -0.011719,0 -0.023437,0 -0.03125,0 -0.011719,0 -0.027344,0 -0.046875,0 C 3.582031,1.539062 3.570312,1.53125 3.5625,1.53125 L 3.53125,1.5625 C 3.519531,1.57031 3.503906,1.578125 3.484375,1.578125 c -0.054687,0 -0.105469,0.00781 -0.15625,0.03125 z m 0.96875,-4 C 4.273438,-2.398438 4.238281,-2.410156 4.1875,-2.421875 4.144531,-2.429688 4.113281,-2.441406 4.09375,-2.453125 4.03125,-2.484375 3.96875,-2.519531 3.90625,-2.5625 3.851562,-2.601562 3.804688,-2.644531 3.765625,-2.6875 3.753906,-2.695312 3.738281,-2.707031 3.71875,-2.71875 3.707031,-2.738281 3.691406,-2.753906 3.671875,-2.765625 3.648438,-2.816406 3.628906,-2.847656 3.609375,-2.859375 3.597656,-2.878906 3.582031,-2.894531 3.5625,-2.90625 3.539062,-2.914062 3.523438,-2.921875 3.515625,-2.921875 3.503906,-2.929688 3.492188,-2.941406 3.484375,-2.953125 3.460938,-2.984375 3.4375,-3.007812 3.40625,-3.03125 3.375,-3.039062 3.347656,-3.0625 3.328125,-3.09375 3.316406,-3.101562 3.300781,-3.109375 3.28125,-3.109375 3.269531,-3.117188 3.234375,-3.132812 3.171875,-3.15625 3.140625,-3.164062 3.113281,-3.175781 3.09375,-3.1875 3.039062,-3.21875 3,-3.238281 2.96875,-3.25 2.882812,-3.269531 2.804688,-3.304688 2.734375,-3.359375 2.710938,-3.367188 2.691406,-3.375 2.671875,-3.375 2.660156,-3.382812 2.644531,-3.394531 2.625,-3.40625 2.582031,-3.414062 2.539062,-3.4375 2.5,-3.46875 2.46875,-3.5 2.4375,-3.53125 2.40625,-3.5625 2.375,-3.601562 2.3125,-3.632812 2.21875,-3.65625 2.1875,-3.675781 2.171875,-3.707031 2.171875,-3.75 2.160156,-3.769531 2.144531,-3.789062 2.125,-3.8125 2.113281,-3.832031 2.101562,-3.851562 2.09375,-3.875 2.0625,-3.882812 2.035156,-3.898438 2.015625,-3.921875 c -0.042969,0 -0.074219,-0.019531 -0.09375,-0.0625 C 1.898438,-3.992188 1.875,-4.015625 1.84375,-4.046875 1.8125,-4.046875 1.785156,-4.0625 1.765625,-4.09375 1.742188,-4.101562 1.722656,-4.113281 1.703125,-4.125 1.679688,-4.144531 1.65625,-4.164062 1.625,-4.1875 1.59375,-4.207031 1.5625,-4.226562 1.53125,-4.25 1.507812,-4.269531 1.476562,-4.285156 1.4375,-4.296875 1.4375,-4.304688 1.429688,-4.3125 1.421875,-4.3125 1.410156,-4.3125 1.40625,-4.320312 1.40625,-4.34375 1.375,-4.351562 1.34375,-4.363281 1.3125,-4.375 1.28125,-4.394531 1.25,-4.410156 1.21875,-4.421875 1.195312,-4.429688 1.179688,-4.445312 1.171875,-4.46875 1.160156,-4.488281 1.15625,-4.503906 1.15625,-4.515625 c 0,-0.00781 0,-0.019531 0,-0.03125 0,-0.019531 0,-0.046875 0,-0.078125 0.00781,-0.03125 0.019531,-0.0625 0.03125,-0.09375 0.00781,-0.019531 0.019531,-0.039062 0.03125,-0.0625 0.00781,-0.03125 0.023438,-0.050781 0.046875,-0.0625 0.050781,-0.050781 0.097656,-0.097656 0.140625,-0.140625 0.039062,-0.050781 0.078125,-0.097656 0.109375,-0.140625 0.03125,-0.039062 0.0625,-0.082031 0.09375,-0.125 0.03125,-0.03125 0.050781,-0.054688 0.0625,-0.078125 0.019531,-0.03125 0.046875,-0.0625 0.078125,-0.09375 0.00781,-0.03125 0.023438,-0.066406 0.046875,-0.109375 0.03125,-0.039062 0.054687,-0.078125 0.078125,-0.109375 0.00781,-0.00781 0.015625,-0.019531 0.015625,-0.03125 0.00781,-0.019531 0.019531,-0.035156 0.03125,-0.046875 0.019531,-0.00781 0.035156,-0.023438 0.046875,-0.046875 0.019531,-0.03125 0.039062,-0.050781 0.0625,-0.0625 C 2.050781,-5.847656 2.082031,-5.875 2.125,-5.90625 2.15625,-5.925781 2.1875,-5.941406 2.21875,-5.953125 2.25,-5.960938 2.296875,-5.976562 2.359375,-6 2.398438,-6.007812 2.4375,-6.019531 2.46875,-6.03125 2.5,-6.039062 2.535156,-6.050781 2.578125,-6.0625 2.617188,-6.09375 2.664062,-6.113281 2.71875,-6.125 2.738281,-6.132812 2.757812,-6.144531 2.78125,-6.15625 2.8125,-6.164062 2.835938,-6.175781 2.859375,-6.1875 2.898438,-6.207031 2.9375,-6.222656 2.96875,-6.234375 c 0.039062,-0.019531 0.078125,-0.039063 0.109375,-0.0625 0.019531,-0.00781 0.039063,-0.015625 0.0625,-0.015625 0.019531,0 0.050781,0 0.09375,0 0.050781,-0.00781 0.085937,-0.019531 0.109375,-0.03125 0.00781,-0.00781 0.015625,-0.015625 0.015625,-0.015625 0.00781,0 0.019531,0 0.03125,0 0.00781,0 0.019531,0 0.03125,0 C 3.441406,-6.367188 3.457031,-6.375 3.46875,-6.375 c 0.039062,0 0.082031,0 0.125,0 C 3.644531,-6.38281 3.695312,-6.394531 3.75,-6.40625 h 0.0625 c 0.070312,0.023438 0.140625,0.011719 0.203125,-0.03125 0.019531,0 0.050781,0 0.09375,0 0.070313,0 0.125,0 0.15625,0 0.039063,0 0.078125,-0.00781 0.109375,-0.03125 0.019531,-0.00781 0.054688,-0.015625 0.109375,-0.015625 0.039063,0.023437 0.082031,0.027344 0.125,0.015625 0.019531,0.011719 0.03125,0.015625 0.03125,0.015625 0.00781,0 0.023437,0.00781 0.046875,0.015625 0.03125,0.011719 0.0625,0.023438 0.09375,0.03125 0.039062,0 0.078125,0.011719 0.109375,0.03125 0.082031,0.03125 0.175781,0.070312 0.28125,0.109375 0.039063,0.023437 0.070313,0.039063 0.09375,0.046875 0.03125,0.011719 0.054687,0.023438 0.078125,0.03125 l 0.109375,0.0625 c 0.050781,0.03125 0.101563,0.078125 0.15625,0.140625 0.00781,0.023437 0.019531,0.042969 0.03125,0.0625 0.019531,0.011719 0.035156,0.027344 0.046875,0.046875 0.00781,0.011719 0.015625,0.027344 0.015625,0.046875 -0.011719,0.03125 -0.023437,0.0625 -0.03125,0.09375 0,0.023437 -0.00781,0.046875 -0.015625,0.078125 -0.011719,0.042969 -0.023438,0.078125 -0.03125,0.109375 0,0.03125 -0.00781,0.0625 -0.015625,0.09375 0,0.0625 -0.011719,0.117187 -0.03125,0.15625 -0.023437,0.054687 -0.042969,0.105469 -0.0625,0.15625 C 5.492188,-5.085938 5.46875,-5.039062 5.4375,-5 c 0,0.011719 -0.00781,0.027344 -0.015625,0.046875 0,0.023437 0,0.039063 0,0.046875 -0.011719,0.023438 -0.023437,0.042969 -0.03125,0.0625 0,0.023438 -0.00781,0.046875 -0.015625,0.078125 -0.023438,0.125 -0.054688,0.230469 -0.09375,0.3125 0,0.023437 -0.00781,0.042969 -0.015625,0.0625 -0.011719,0.011719 -0.023437,0.023437 -0.03125,0.03125 -0.03125,0.03125 -0.046875,0.058594 -0.046875,0.078125 0,0.03125 -0.027344,0.074219 -0.078125,0.125 C 5.097656,-4.144531 5.085938,-4.132812 5.078125,-4.125 5.066406,-4.113281 5.0625,-4.101562 5.0625,-4.09375 5.050781,-4.070312 5.035156,-4.039062 5.015625,-4 5.003906,-3.96875 4.992188,-3.941406 4.984375,-3.921875 4.953125,-3.878906 4.929688,-3.84375 4.921875,-3.8125 4.910156,-3.78125 4.898438,-3.742188 4.890625,-3.703125 4.878906,-3.671875 4.875,-3.644531 4.875,-3.625 4.863281,-3.601562 4.859375,-3.570312 4.859375,-3.53125 4.847656,-3.5 4.835938,-3.46875 4.828125,-3.4375 c 0,0.03125 -0.00781,0.0625 -0.015625,0.09375 0,0 -0.011719,0.023438 -0.03125,0.0625 -0.011719,0.042969 -0.023438,0.070312 -0.03125,0.078125 -0.03125,0.054687 -0.054688,0.089844 -0.0625,0.109375 0,0.023438 -0.00781,0.039062 -0.015625,0.046875 -0.011719,0 -0.015625,0.00781 -0.015625,0.015625 C 4.625,-2.988281 4.59375,-2.929688 4.5625,-2.859375 4.539062,-2.796875 4.515625,-2.738281 4.484375,-2.6875 4.472656,-2.664062 4.460938,-2.644531 4.453125,-2.625 4.441406,-2.601562 4.425781,-2.585938 4.40625,-2.578125 4.375,-2.535156 4.347656,-2.484375 4.328125,-2.421875 4.316406,-2.410156 4.3125,-2.398438 4.3125,-2.390625 c 0,0 -0.00781,0 -0.015625,0 z M 5.96875,-5 C 5.97656,-4.96875 5.988281,-4.953125 6,-4.953125 c 0.00781,0.023437 0.03125,0.042969 0.0625,0.0625 0.050781,0.03125 0.09375,0.070313 0.125,0.109375 0.03125,0.054688 0.050781,0.078125 0.0625,0.078125 0.00781,0.042969 0.019531,0.085937 0.03125,0.125 0.019531,0.03125 0.039062,0.0625 0.0625,0.09375 0.019531,0.042969 0.035156,0.074219 0.046875,0.09375 0.00781,0.011719 0.015625,0.027344 0.015625,0.046875 0.00781,0.011719 0.019531,0.023438 0.03125,0.03125 0.019531,0.042969 0.039062,0.085938 0.0625,0.125 0.019531,0.042969 0.039062,0.085938 0.0625,0.125 0.00781,0.023438 0.019531,0.042969 0.03125,0.0625 0.019531,0.023438 0.035156,0.042969 0.046875,0.0625 0.019531,0.03125 0.03125,0.070312 0.03125,0.109375 0.00781,0.011719 0.015625,0.03125 0.015625,0.0625 0,0.023437 0.00391,0.042969 0.015625,0.0625 0.00781,0.03125 0.015625,0.0625 0.015625,0.09375 0.00781,0.03125 0.015625,0.0625 0.015625,0.09375 0.00781,0.03125 0.015625,0.070313 0.015625,0.109375 0.00781,0.03125 0.015625,0.0625 0.015625,0.09375 0,0.03125 0.00391,0.078125 0.015625,0.140625 0.00781,0.054687 0.019531,0.101563 0.03125,0.140625 0.019531,0.042969 0.035156,0.089844 0.046875,0.140625 0.019531,0.085937 0.035156,0.15625 0.046875,0.21875 0.019531,0.054687 0.035156,0.105469 0.046875,0.15625 V -2.5 C 6.984375,-2.425781 7,-2.359375 7,-2.296875 7,-2.285156 7,-2.269531 7,-2.25 c 0.00781,0.011719 0.019531,0.023438 0.03125,0.03125 0,0.011719 0,0.039062 0,0.078125 V -2.0625 c 0,0.042969 0.00391,0.089844 0.015625,0.140625 0.00781,0.042969 0.015625,0.105469 0.015625,0.1875 0.00781,0.023437 0.015625,0.042969 0.015625,0.0625 0,0.023437 0.00391,0.042969 0.015625,0.0625 V -1.5625 c 0.00781,0.042969 0.00781,0.085938 0,0.125 0,0.042969 0,0.074219 0,0.09375 0,0.03125 0,0.058594 0,0.078125 0,0.011719 -0.00781,0.027344 -0.015625,0.046875 0,0.011719 0,0.027344 0,0.046875 0.00781,0.023437 0.00781,0.042969 0,0.0625 -0.011719,0.011719 -0.015625,0.03125 -0.015625,0.0625 0,0.011719 -0.011719,0.015625 -0.03125,0.015625 -0.023438,0 -0.042969,0 -0.0625,0 -0.011719,0 -0.023438,0.00781 -0.03125,0.015625 -0.023438,-0.00781 -0.03125,-0.019531 -0.03125,-0.03125 0,-0.03125 -0.023438,-0.035156 -0.0625,-0.015625 0,0.011719 -0.023438,0.027344 -0.0625,0.046875 C 6.75,-0.992188 6.726562,-0.988281 6.71875,-1 c -0.011719,0 -0.027344,0.007812 -0.046875,0.015625 -0.011719,0 -0.023437,0.007813 -0.03125,0.015625 -0.023437,0.042969 -0.046875,0.0625 -0.078125,0.0625 -0.023438,0 -0.046875,-0.003906 -0.078125,-0.015625 -0.011719,0 -0.027344,-0.015625 -0.046875,-0.046875 -0.011719,-0.007812 -0.03125,-0.015625 -0.0625,-0.015625 -0.023438,0 -0.0625,0 -0.125,0 -0.011719,0 -0.023438,0.023437 -0.03125,0.0625 0,0.023437 -0.015625,0.042969 -0.046875,0.0625 -0.023437,0 -0.042969,0 -0.0625,0 -0.023437,0 -0.039063,0.007813 -0.046875,0.015625 -0.03125,0 -0.058594,-0.015625 -0.078125,-0.046875 -0.011719,-0.019531 -0.023437,-0.019531 -0.03125,0 0,0.023437 -0.00781,0.046875 -0.015625,0.078125 -0.023438,0 -0.042969,0 -0.0625,0 -0.0625,0.023438 -0.109375,0.007812 -0.140625,-0.046875 -0.023437,-0.03125 -0.042969,-0.03125 -0.0625,0 -0.011719,0.042969 -0.03125,0.070313 -0.0625,0.078125 C 5.585938,-0.75 5.570312,-0.734375 5.5625,-0.734375 5.550781,-0.722656 5.546875,-0.71875 5.546875,-0.71875 c 0,0 -0.00781,0 -0.015625,0 -0.023438,0 -0.039062,-0.003906 -0.046875,-0.015625 C 5.484375,-0.742188 5.472656,-0.75 5.453125,-0.75 L 5.4375,-0.734375 C 5.425781,-0.710938 5.414062,-0.695312 5.40625,-0.6875 5.363281,-0.675781 5.332031,-0.671875 5.3125,-0.671875 c 0,-0.007813 0,-0.015625 0,-0.015625 0,-0.019531 0,-0.035156 0,-0.046875 0,-0.007813 0.00391,-0.023437 0.015625,-0.046875 0,-0.019531 -0.00781,-0.03125 -0.015625,-0.03125 C 5.300781,-0.875 5.289062,-0.925781 5.28125,-0.96875 5.269531,-1.007812 5.257812,-1.046875 5.25,-1.078125 5.238281,-1.117188 5.210938,-1.148438 5.171875,-1.171875 5.109375,-1.242188 5.0625,-1.3125 5.03125,-1.375 5.007812,-1.4375 4.984375,-1.5 4.953125,-1.5625 4.941406,-1.59375 4.9375,-1.609375 4.9375,-1.609375 4.925781,-1.660156 4.914062,-1.695312 4.90625,-1.71875 4.894531,-1.726562 4.882812,-1.742188 4.875,-1.765625 c 0,-0.03125 0,-0.070313 0,-0.125 0,-0.03125 -0.011719,-0.054687 -0.03125,-0.078125 -0.011719,-0.039062 -0.023438,-0.078125 -0.03125,-0.109375 0,-0.039063 0.00391,-0.082031 0.015625,-0.125 0,-0.050781 0.015625,-0.101563 0.046875,-0.15625 0.00781,-0.050781 0.023438,-0.09375 0.046875,-0.125 0.019531,-0.03125 0.039063,-0.066406 0.0625,-0.109375 0.039063,-0.070312 0.070313,-0.1875 0.09375,-0.34375 0,-0.039062 0.015625,-0.078125 0.046875,-0.109375 0.039062,-0.03125 0.070312,-0.066406 0.09375,-0.109375 0.00781,-0.019531 0.019531,-0.046875 0.03125,-0.078125 0.019531,-0.03125 0.039062,-0.0625 0.0625,-0.09375 C 5.34375,-3.367188 5.359375,-3.40625 5.359375,-3.4375 5.367188,-3.46875 5.378906,-3.5 5.390625,-3.53125 5.398438,-3.550781 5.40625,-3.566406 5.40625,-3.578125 c 0.00781,-0.019531 0.015625,-0.039063 0.015625,-0.0625 0,-0.03125 0.00391,-0.070313 0.015625,-0.125 0.00781,-0.0625 0.019531,-0.101563 0.03125,-0.125 0.00781,-0.03125 0.019531,-0.054687 0.03125,-0.078125 0.00781,-0.019531 0.015625,-0.046875 0.015625,-0.078125 0.00781,-0.050781 0.03125,-0.109375 0.0625,-0.171875 0,-0.00781 0,-0.015625 0,-0.015625 0.00781,-0.00781 0.015625,-0.023437 0.015625,-0.046875 0.00781,-0.019531 0.019531,-0.046875 0.03125,-0.078125 0.019531,-0.03125 0.035156,-0.0625 0.046875,-0.09375 C 5.679688,-4.472656 5.691406,-4.5 5.703125,-4.53125 5.710938,-4.5625 5.722656,-4.597656 5.734375,-4.640625 5.742188,-4.648438 5.75,-4.664062 5.75,-4.6875 5.757812,-4.707031 5.769531,-4.726562 5.78125,-4.75 c 0,-0.00781 0,-0.023438 0,-0.046875 0,-0.019531 0.00391,-0.035156 0.015625,-0.046875 C 5.804688,-4.875 5.816406,-4.898438 5.828125,-4.921875 5.835938,-4.941406 5.851562,-4.96875 5.875,-5 5.88281,-5.00781 5.890625,-5.015625 5.890625,-5.015625 5.910156,-5.015625 5.9375,-5.007815 5.96875,-5 Z m 0,0"
           id="path18542" />
      </g>
    </g>
  </g>
</svg>
