<?xml version="1.0" encoding="UTF-8" standalone="no"?>
<!-- Created with Inkscape (http://www.inkscape.org/) -->

<svg
   width="2.8442707mm"
   height="2.8187764mm"
   viewBox="0 0 2.8442707 2.8187764"
   version="1.1"
   id="svg10996"
   inkscape:version="1.2.1 (9c6d41e4, 2022-07-14)"
   sodipodi:docname="tentacles.svg"
   xmlns:inkscape="http://www.inkscape.org/namespaces/inkscape"
   xmlns:sodipodi="http://sodipodi.sourceforge.net/DTD/sodipodi-0.dtd"
   xmlns="http://www.w3.org/2000/svg"
   xmlns:svg="http://www.w3.org/2000/svg">
  <sodipodi:namedview
     id="namedview10998"
     pagecolor="#505050"
     bordercolor="#eeeeee"
     borderopacity="1"
     inkscape:showpageshadow="0"
     inkscape:pageopacity="0"
     inkscape:pagecheckerboard="0"
     inkscape:deskcolor="#505050"
     inkscape:document-units="mm"
     showgrid="false"
     inkscape:zoom="0.2102413"
     inkscape:cx="135.55852"
     inkscape:cy="294.89924"
     inkscape:window-width="1309"
     inkscape:window-height="456"
     inkscape:window-x="0"
     inkscape:window-y="25"
     inkscape:window-maximized="0"
     inkscape:current-layer="layer1" />
  <defs
     id="defs10993" />
  <g
     inkscape:label="Layer 1"
     inkscape:groupmode="layer"
     id="layer1"
     transform="translate(-69.052441,-70.323662)">
    <g
       fill="#231f20"
       fill-opacity="1"
       id="g8784"
       transform="matrix(0.35277777,0,0,0.35277777,-89.952838,-73.731376)">
      <g
         id="use8782"
         transform="translate(450.45801,414.72)">
        <path
           d="m 0.859375,-0.671875 c 0,0.011719 -0.007813,0.011719 -0.015625,0 h 0.015625 c 0,0.011719 -0.007813,0.023437 -0.015625,0.03125 0,0 0.003906,0 0.015625,0 0,-0.007813 -0.007813,-0.015625 -0.015625,-0.015625 0,0 0.003906,-0.003906 0.015625,-0.015625 z m 0.1875,-3.046875 c 0.00781,-0.101562 0.00391,-0.210938 -0.015625,-0.328125 0,-0.00781 0,-0.023437 0,-0.046875 0,-0.03125 0,-0.054688 0,-0.078125 C 1.03906,-4.179685 1.046875,-4.1875 1.046875,-4.1875 1.054685,-4.19531 1.0625,-4.207031 1.0625,-4.21875 c 0.00781,-0.019531 0.015625,-0.039062 0.015625,-0.0625 0.00781,-0.019531 0.015625,-0.039062 0.015625,-0.0625 0,-0.03125 0,-0.054688 0,-0.078125 V -4.5 c 0,-0.00781 0.00391,-0.039062 0.015625,-0.09375 C 1.128906,-4.625 1.144531,-4.65625 1.15625,-4.6875 1.164062,-4.71875 1.175781,-4.75 1.1875,-4.78125 1.195312,-4.820312 1.210938,-4.851562 1.234375,-4.875 1.265625,-4.90625 1.285156,-4.9375 1.296875,-4.96875 1.304688,-5 1.320312,-5.03125 1.34375,-5.0625 c 0,0 0,-0.00781 0,-0.03125 0.00781,-0.019531 0.015625,-0.035156 0.015625,-0.046875 0,-0.019531 0.00391,-0.035156 0.015625,-0.046875 0,-0.019531 0.00391,-0.039062 0.015625,-0.0625 0.00781,0 0.015625,0 0.015625,0 0.03125,-0.03125 0.050781,-0.050781 0.0625,-0.0625 0.00781,-0.019531 0.023438,-0.046875 0.046875,-0.078125 0.00781,-0.019531 0.019531,-0.039063 0.03125,-0.0625 C 1.566406,-5.472656 1.578125,-5.5 1.578125,-5.53125 1.597656,-5.5625 1.617188,-5.585938 1.640625,-5.609375 1.660156,-5.617188 1.675781,-5.625 1.6875,-5.625 1.695312,-5.632812 1.710938,-5.644531 1.734375,-5.65625 1.742188,-5.664062 1.75,-5.675781 1.75,-5.6875 1.757812,-5.707031 1.769531,-5.722656 1.78125,-5.734375 1.800781,-5.753906 1.816406,-5.773438 1.828125,-5.796875 1.847656,-5.816406 1.863281,-5.84375 1.875,-5.875 c 0.019531,-0.019531 0.035156,-0.035156 0.046875,-0.046875 0.03125,-0.00781 0.0625,-0.023437 0.09375,-0.046875 0.03125,-0.019531 0.0625,-0.035156 0.09375,-0.046875 0.039063,-0.03125 0.066406,-0.050781 0.078125,-0.0625 0.00781,-0.00781 0.015625,-0.015625 0.015625,-0.015625 0,-0.00781 0.00391,-0.019531 0.015625,-0.03125 0.00781,-0.00781 0.019531,-0.015625 0.03125,-0.015625 0.00781,0 0.019531,-0.00781 0.03125,-0.03125 C 2.320312,-6.191406 2.378906,-6.207031 2.453125,-6.21875 2.484375,-6.226562 2.507812,-6.234375 2.53125,-6.234375 2.550781,-6.242188 2.578125,-6.25 2.609375,-6.25 2.628906,-6.25781 2.648438,-6.265625 2.671875,-6.265625 2.703125,-6.273435 2.726562,-6.285156 2.75,-6.296875 2.75781,-6.304685 2.773438,-6.3125 2.796875,-6.3125 c 0.019531,0 0.035156,-0.00391 0.046875,-0.015625 0.019531,-0.00781 0.046875,-0.019531 0.078125,-0.03125 0.039063,-0.00781 0.078125,-0.00781 0.109375,0 0.019531,0 0.039062,0 0.0625,0 0.019531,0 0.039062,0 0.0625,0 C 3.175781,-6.367188 3.203125,-6.375 3.234375,-6.375 c 0.03125,0 0.0625,0.00781 0.09375,0.015625 0.03125,0 0.066406,0.015625 0.109375,0.046875 0.00781,0 0.015625,0.00781 0.015625,0.015625 0.00781,0 0.015625,0 0.015625,0 0.039062,0.023437 0.070312,0.03125 0.09375,0.03125 h 0.015625 c 0.050781,-0.019531 0.097656,-0.00781 0.140625,0.03125 0.019531,0.03125 0.050781,0.058594 0.09375,0.078125 l 0.125,0.046875 c 0.050781,0.023437 0.082031,0.039063 0.09375,0.046875 0.00781,0 0.035156,0.023438 0.078125,0.0625 0.00781,0.03125 0.035156,0.058594 0.078125,0.078125 0.019531,0 0.035156,0.00781 0.046875,0.015625 0.03125,0.011719 0.050781,0.03125 0.0625,0.0625 0.00781,0.042969 0.023437,0.085938 0.046875,0.125 0.03125,0.03125 0.054688,0.058594 0.078125,0.078125 0.03125,0.03125 0.050781,0.054687 0.0625,0.0625 0.03125,0.023437 0.050781,0.042969 0.0625,0.0625 0.00781,0.023437 0.019531,0.039063 0.03125,0.046875 0.019531,0.042969 0.035156,0.085938 0.046875,0.125 0.00781,0.03125 0.023438,0.070312 0.046875,0.109375 l 0.03125,0.0625 c 0.00781,0.023437 0.015625,0.042969 0.015625,0.0625 0,0.03125 0,0.0625 0,0.09375 0,0.023437 0.00391,0.046875 0.015625,0.078125 0.019531,0.042969 0.019531,0.09375 0,0.15625 -0.011719,0.023438 -0.015625,0.0625 -0.015625,0.125 0.00781,0.054688 0.00391,0.09375 -0.015625,0.125 C 4.691406,-4.5 4.6875,-4.460938 4.6875,-4.421875 c 0,0.03125 -0.00781,0.0625 -0.015625,0.09375 -0.011719,0.023437 -0.023437,0.042969 -0.03125,0.0625 0,0.011719 -0.00781,0.023437 -0.015625,0.03125 -0.011719,0 -0.015625,0.00781 -0.015625,0.015625 -0.023437,0.054688 -0.046875,0.089844 -0.078125,0.109375 0,0 -0.00781,0.00781 -0.015625,0.015625 -0.023437,0.011719 -0.039063,0.027344 -0.046875,0.046875 -0.011719,0.023437 -0.015625,0.042969 -0.015625,0.0625 0,0.011719 -0.011719,0.023437 -0.03125,0.03125 -0.011719,0.023437 -0.023437,0.039063 -0.03125,0.046875 L 4.375,-3.890625 C 4.34375,-3.878906 4.3125,-3.863281 4.28125,-3.84375 4.257812,-3.832031 4.238281,-3.8125 4.21875,-3.78125 4.207031,-3.769531 4.1875,-3.757812 4.15625,-3.75 c -0.0625,0.03125 -0.121094,0.0625 -0.171875,0.09375 -0.042969,0.023438 -0.09375,0.046875 -0.15625,0.078125 -0.011719,0 -0.027344,-0.00391 -0.046875,-0.015625 V -3.609375 C 3.800781,-3.628906 3.8125,-3.640625 3.8125,-3.640625 3.820312,-3.671875 3.835938,-3.695312 3.859375,-3.71875 3.878906,-3.738281 3.894531,-3.765625 3.90625,-3.796875 3.925781,-3.828125 3.9375,-3.851562 3.9375,-3.875 3.945312,-3.90625 3.960938,-3.9375 3.984375,-3.96875 v -0.140625 c 0,-0.039063 0,-0.078125 0,-0.109375 0.019531,-0.050781 0.019531,-0.128906 0,-0.234375 0,-0.019531 -0.015625,-0.0625 -0.046875,-0.125 C 3.925781,-4.617188 3.90625,-4.644531 3.875,-4.65625 3.84375,-4.6875 3.816406,-4.722656 3.796875,-4.765625 3.765625,-4.804688 3.726562,-4.835938 3.6875,-4.859375 3.65625,-4.867188 3.625,-4.878906 3.59375,-4.890625 3.570312,-4.898438 3.546875,-4.914062 3.515625,-4.9375 3.492188,-4.945312 3.46875,-4.953125 3.4375,-4.953125 3.414062,-4.960938 3.390625,-4.972656 3.359375,-4.984375 c -0.011719,-0.00781 -0.027344,-0.00781 -0.046875,0 -0.03125,0 -0.0625,0.00781 -0.09375,0.015625 C 3.195312,-4.957031 3.175781,-4.945312 3.15625,-4.9375 3.125,-4.925781 3.09375,-4.910156 3.0625,-4.890625 3.039062,-4.878906 3.019531,-4.863281 3,-4.84375 c -0.023438,0.023438 -0.046875,0.042969 -0.078125,0.0625 -0.023437,0.023438 -0.042969,0.042969 -0.0625,0.0625 -0.042969,0.023438 -0.0625,0.046875 -0.0625,0.078125 V -4.59375 L 2.765625,-4.515625 2.75,-4.484375 C 2.71875,-4.429688 2.695312,-4.375 2.6875,-4.3125 c -0.011719,0.085938 -0.011719,0.171875 0,0.265625 0.00781,0.042969 0.023438,0.078125 0.046875,0.109375 0,0.011719 0,0.015625 0,0.015625 0.00781,0 0.015625,0.011719 0.015625,0.03125 0.03125,0.03125 0.046875,0.0625 0.046875,0.09375 0,0.03125 0.00781,0.0625 0.03125,0.09375 0.00781,0.011719 0.015625,0.027344 0.015625,0.046875 0.00781,0.011719 0.019531,0.023438 0.03125,0.03125 0.00781,0.03125 0.03125,0.054688 0.0625,0.0625 0.00781,0.011719 0.015625,0.023438 0.015625,0.03125 0.00781,0 0.019531,0 0.03125,0 C 2.992188,-3.519531 3,-3.507812 3,-3.5 c 0,0 0.00391,0.00781 0.015625,0.015625 0.00781,0.011719 0.019531,0.027344 0.03125,0.046875 0.00781,0.011719 0.023437,0.023438 0.046875,0.03125 0.019531,0.03125 0.03125,0.058594 0.03125,0.078125 0.00781,0.011719 0.015625,0.023437 0.015625,0.03125 0.00781,0.023437 0.023437,0.042969 0.046875,0.0625 0,0 0.00781,0.00781 0.03125,0.015625 0.03125,0.011719 0.054688,0.027344 0.078125,0.046875 0.019531,0.011719 0.039063,0.027344 0.0625,0.046875 l 0.03125,0.03125 c 0.019531,0.011719 0.039063,0.015625 0.0625,0.015625 h 0.03125 c 0.019531,0 0.039063,0.00781 0.0625,0.015625 0.019531,0.011719 0.035156,0.023438 0.046875,0.03125 0.019531,0 0.035156,0.00781 0.046875,0.015625 0.039063,0.023437 0.066406,0.042969 0.078125,0.0625 0.019531,0.023437 0.035156,0.042969 0.046875,0.0625 0.019531,0.011719 0.039063,0.023437 0.0625,0.03125 0.019531,0.023437 0.039063,0.042969 0.0625,0.0625 C 3.910156,-2.785156 3.925781,-2.769531 3.9375,-2.75 3.96875,-2.71875 4,-2.6875 4.03125,-2.65625 c 0.03125,0.011719 0.054688,0.03125 0.078125,0.0625 0.03125,0.023438 0.054687,0.046875 0.078125,0.078125 0.00781,0 0.019531,0.015625 0.03125,0.046875 L 4.25,-2.421875 c 0.019531,0.054687 0.039062,0.085937 0.0625,0.09375 0,0.023437 0,0.03125 0,0.03125 0.00781,0 0.019531,0.00781 0.03125,0.015625 0.019531,0.042969 0.03125,0.070312 0.03125,0.078125 0,0.03125 0.00391,0.058594 0.015625,0.078125 0.00781,0.0625 0.015625,0.109375 0.015625,0.140625 0,0.03125 0.00391,0.058594 0.015625,0.078125 v 0.015625 c 0.039063,0.042969 0.0625,0.09375 0.0625,0.15625 v 0.15625 c 0,0.054687 -0.011719,0.089844 -0.03125,0.109375 -0.03125,0.011719 -0.0625,0.039062 -0.09375,0.078125 -0.023437,0.011719 -0.039063,0.027344 -0.046875,0.046875 -0.011719,0.011719 -0.023438,0.023438 -0.03125,0.03125 -0.0625,0.0625 -0.105469,0.121094 -0.125,0.171875 -0.023438,0.03125 -0.042969,0.054687 -0.0625,0.0625 -0.054688,0.054687 -0.089844,0.109375 -0.109375,0.171875 -0.011719,0.023438 -0.023437,0.042969 -0.03125,0.0625 -0.011719,0.023438 -0.023437,0.042969 -0.03125,0.0625 C 3.898438,-0.738281 3.882812,-0.695312 3.875,-0.65625 3.863281,-0.625 3.851562,-0.585938 3.84375,-0.546875 3.832031,-0.535156 3.820312,-0.53125 3.8125,-0.53125 c 0,-0.007812 0,-0.015625 0,-0.015625 H 3.796875 C 3.785156,-0.578125 3.773438,-0.601562 3.765625,-0.625 3.753906,-0.65625 3.738281,-0.6875 3.71875,-0.71875 3.707031,-0.757812 3.695312,-0.796875 3.6875,-0.828125 3.675781,-0.867188 3.664062,-0.910156 3.65625,-0.953125 3.65625,-0.972656 3.648438,-0.988281 3.640625,-1 c 0,-0.00781 -0.00781,-0.019531 -0.015625,-0.03125 0,-0.00781 -0.00781,-0.019531 -0.015625,-0.03125 -0.011719,-0.00781 -0.023437,-0.015625 -0.03125,-0.015625 0,-0.00781 0,-0.019531 0,-0.03125 C 3.546875,-1.148438 3.53125,-1.179688 3.53125,-1.203125 3.53125,-1.210938 3.523438,-1.226562 3.515625,-1.25 3.492188,-1.289062 3.476562,-1.316406 3.46875,-1.328125 3.4375,-1.347656 3.410156,-1.367188 3.390625,-1.390625 3.378906,-1.421875 3.363281,-1.445312 3.34375,-1.46875 3.332031,-1.476562 3.320312,-1.488281 3.3125,-1.5 3.3125,-1.50781 3.30469,-1.519531 3.296875,-1.53125 3.242188,-1.582031 3.210938,-1.613281 3.203125,-1.625 3.191406,-1.632812 3.160156,-1.65625 3.109375,-1.6875 3.085938,-1.71875 3.070312,-1.738281 3.0625,-1.75 c 0,0 -0.00781,-0.00391 -0.015625,-0.015625 C 3.035156,-1.796875 3.019531,-1.816406 3,-1.828125 2.976562,-1.835938 2.953125,-1.847656 2.921875,-1.859375 c -0.023437,0 -0.039063,-0.00391 -0.046875,-0.015625 -0.011719,0 -0.023438,-0.00781 -0.03125,-0.03125 -0.011719,0 -0.023438,0 -0.03125,0 0,-0.00781 -0.00781,-0.019531 -0.015625,-0.03125 C 2.785156,-1.96875 2.757812,-1.992188 2.71875,-2.015625 2.695312,-2.023438 2.675781,-2.03125 2.65625,-2.03125 2.644531,-2.039062 2.628906,-2.050781 2.609375,-2.0625 c -0.011719,0 -0.023437,0 -0.03125,0 -0.011719,0 -0.023437,-0.00391 -0.03125,-0.015625 -0.011719,0 -0.042969,-0.00391 -0.09375,-0.015625 C 2.421875,-2.101562 2.390625,-2.113281 2.359375,-2.125 2.335938,-2.144531 2.3125,-2.160156 2.28125,-2.171875 c -0.011719,0 -0.027344,0 -0.046875,0 C 2.210938,-2.179688 2.195312,-2.191406 2.1875,-2.203125 H 2.125 C 2.082031,-2.179688 2.046875,-2.1875 2.015625,-2.21875 L 1.875,-2.328125 C 1.851562,-2.359375 1.820312,-2.382812 1.78125,-2.40625 1.75,-2.425781 1.71875,-2.445312 1.6875,-2.46875 1.675781,-2.488281 1.664062,-2.5 1.65625,-2.5 1.644531,-2.5 1.632812,-2.503906 1.625,-2.515625 1.601562,-2.523438 1.582031,-2.546875 1.5625,-2.578125 1.53125,-2.628906 1.488281,-2.675781 1.4375,-2.71875 1.40625,-2.769531 1.382812,-2.804688 1.375,-2.828125 c 0,-0.00781 -0.00781,-0.015625 -0.015625,-0.015625 0,-0.00781 0,-0.015625 0,-0.015625 C 1.347656,-2.878906 1.332031,-2.898438 1.3125,-2.921875 L 1.28125,-2.953125 C 1.269531,-2.960938 1.257812,-2.972656 1.25,-2.984375 1.238281,-3.003906 1.226562,-3.019531 1.21875,-3.03125 1.207031,-3.050781 1.195312,-3.066406 1.1875,-3.078125 c 0,-0.019531 -0.00781,-0.035156 -0.015625,-0.046875 0,-0.00781 0,-0.015625 0,-0.015625 0,-0.00781 -0.00781,-0.019531 -0.015625,-0.03125 C 1.144531,-3.234375 1.128906,-3.289062 1.109375,-3.34375 1.097656,-3.394531 1.085938,-3.445312 1.078125,-3.5 1.054688,-3.519531 1.046875,-3.546875 1.046875,-3.578125 Z M 5.53125,-0.8125 c -0.074219,0 -0.148438,0.007812 -0.21875,0.015625 -0.042969,0.011719 -0.085938,0.03125 -0.125,0.0625 -0.011719,0 -0.027344,0.007813 -0.046875,0.015625 C 5.128906,-0.707031 5.117188,-0.695312 5.109375,-0.6875 5.078125,-0.675781 5.039062,-0.660156 5,-0.640625 c -0.03125,0.023437 -0.070312,0.03125 -0.109375,0.03125 -0.03125,0.023437 -0.054687,0.03125 -0.0625,0.03125 -0.085937,0.054687 -0.167969,0.105469 -0.25,0.15625 -0.074219,0.054687 -0.148437,0.105469 -0.21875,0.15625 -0.023437,0.023437 -0.039063,0.03125 -0.046875,0.03125 -0.0625,0.011719 -0.132812,0.054687 -0.203125,0.125 C 4.078125,-0.0976562 4.050781,-0.0820312 4.03125,-0.0625 4.019531,-0.0390625 4,-0.0234375 3.96875,-0.015625 c 0,0 -0.00781,0 -0.015625,0 0,0 0,-0.0039062 0,-0.015625 0,0 -0.00781,0 -0.015625,0 0,-0.0078125 0,-0.0195312 0,-0.03125 0,-0.039062 0,-0.082031 0,-0.125 0.00781,-0.039062 0.015625,-0.082031 0.015625,-0.125 0,-0.03125 0,-0.050781 0,-0.0625 C 3.972656,-0.40625 3.988281,-0.4375 4,-0.46875 4.007812,-0.5 4.019531,-0.53125 4.03125,-0.5625 4.039062,-0.59375 4.050781,-0.617188 4.0625,-0.640625 4.070312,-0.660156 4.082031,-0.6875 4.09375,-0.71875 4.101562,-0.738281 4.113281,-0.765625 4.125,-0.796875 4.144531,-0.835938 4.160156,-0.863281 4.171875,-0.875 4.179688,-0.894531 4.207031,-0.925781 4.25,-0.96875 4.257812,-0.976562 4.273438,-1 4.296875,-1.03125 c 0.00781,-0.03125 0.019531,-0.050781 0.03125,-0.0625 0.019531,-0.019531 0.039063,-0.039062 0.0625,-0.0625 0.039063,-0.070312 0.085937,-0.125 0.140625,-0.15625 0.019531,0 0.039062,-0.015625 0.0625,-0.046875 0.00781,-0.019531 0.023438,-0.039063 0.046875,-0.0625 C 4.671875,-1.441406 4.695312,-1.46875 4.71875,-1.5 4.738281,-1.519531 4.769531,-1.550781 4.8125,-1.59375 4.832031,-1.613281 4.851562,-1.628906 4.875,-1.640625 c 0.03125,-0.019531 0.054688,-0.039063 0.078125,-0.0625 0.113281,-0.082031 0.234375,-0.15625 0.359375,-0.21875 0.00781,0 0.015625,0 0.015625,0 0.00781,-0.00781 0.019531,-0.015625 0.03125,-0.015625 0.03125,-0.019531 0.050781,-0.035156 0.0625,-0.046875 0.00781,-0.00781 0.023437,-0.023437 0.046875,-0.046875 0.00781,0 0.019531,0 0.03125,0 0.00781,-0.00781 0.019531,-0.015625 0.03125,-0.015625 0,-0.00781 0.00391,-0.015625 0.015625,-0.015625 0.039063,-0.00781 0.078125,-0.019531 0.109375,-0.03125 0.039062,-0.019531 0.078125,-0.039062 0.109375,-0.0625 0.019531,-0.00781 0.039063,-0.015625 0.0625,-0.015625 0.019531,0 0.039063,-0.00391 0.0625,-0.015625 0.03125,-0.019531 0.050781,-0.039062 0.0625,-0.0625 0,-0.00781 0.00391,-0.019531 0.015625,-0.03125 0.019531,-0.03125 0.039062,-0.054688 0.0625,-0.078125 0.050781,-0.039063 0.09375,-0.09375 0.125,-0.15625 0.019531,-0.039063 0.039062,-0.082031 0.0625,-0.125 0.019531,-0.039063 0.035156,-0.082031 0.046875,-0.125 0.019531,-0.039063 0.03125,-0.082031 0.03125,-0.125 V -3 c 0,-0.0625 0,-0.109375 0,-0.140625 -0.011719,-0.039063 -0.039063,-0.082031 -0.078125,-0.125 -0.0625,-0.039063 -0.121094,-0.066406 -0.171875,-0.078125 -0.03125,0 -0.070313,0 -0.109375,0 -0.042969,0 -0.085938,0.00781 -0.125,0.015625 -0.042969,0 -0.085938,0.00781 -0.125,0.015625 -0.03125,0.011719 -0.070312,0.023438 -0.109375,0.03125 L 5.53125,-3.265625 C 5.5,-3.242188 5.46875,-3.222656 5.4375,-3.203125 5.414062,-3.179688 5.390625,-3.164062 5.359375,-3.15625 c 0,0 -0.00781,0 -0.015625,0 C 5.332031,-3.132812 5.320312,-3.125 5.3125,-3.125 c 0,0 -0.00781,0.00781 -0.015625,0.015625 C 5.285156,-3.078125 5.28125,-3.0625 5.28125,-3.0625 5.269531,-3.039062 5.253906,-3.019531 5.234375,-3 5.222656,-2.976562 5.207031,-2.953125 5.1875,-2.921875 c -0.011719,0.011719 -0.023438,0.011719 -0.03125,0 -0.011719,0 -0.015625,-0.00391 -0.015625,-0.015625 0,-0.039062 0.00781,-0.09375 0.03125,-0.15625 0,-0.050781 0,-0.109375 0,-0.171875 0,-0.00781 0.00391,-0.035156 0.015625,-0.078125 0,-0.00781 0,-0.015625 0,-0.015625 0,-0.00781 0.00391,-0.019531 0.015625,-0.03125 0.019531,-0.039063 0.035156,-0.082031 0.046875,-0.125 0,-0.019531 0.00391,-0.039063 0.015625,-0.0625 0.00781,-0.03125 0.023437,-0.0625 0.046875,-0.09375 0,-0.00781 0.00391,-0.019531 0.015625,-0.03125 C 5.335938,-3.710938 5.347656,-3.726562 5.359375,-3.75 5.390625,-3.769531 5.414062,-3.789062 5.4375,-3.8125 5.457031,-3.832031 5.484375,-3.851562 5.515625,-3.875 5.535156,-3.90625 5.550781,-3.921875 5.5625,-3.921875 5.570312,-3.929688 5.585938,-3.941406 5.609375,-3.953125 5.628906,-3.960938 5.644531,-3.972656 5.65625,-3.984375 5.664062,-3.992188 5.6875,-4 5.71875,-4 c 0,0 0.00781,0 0.03125,0 0.039062,-0.00781 0.082031,-0.03125 0.125,-0.0625 0.00781,0 0.015625,0 0.015625,0 0,-0.00781 0.00391,-0.019531 0.015625,-0.03125 0.00781,0 0.019531,0 0.03125,0 C 5.96875,-4.101562 6,-4.109375 6.03125,-4.109375 6.0625,-4.117188 6.09375,-4.125 6.125,-4.125 c 0.03125,0 0.054688,0 0.078125,0 0.019531,-0.00781 0.046875,-0.00781 0.078125,0 0.050781,0.011719 0.113281,0.00781 0.1875,-0.015625 0.00781,-0.00781 0.019531,-0.00781 0.03125,0 0.00781,0 0.019531,0 0.03125,0 0.050781,0.011719 0.113281,0.039063 0.1875,0.078125 0.00781,0.011719 0.019531,0.023438 0.03125,0.03125 0.019531,0.011719 0.035156,0.015625 0.046875,0.015625 0.0625,0.03125 0.113281,0.0625 0.15625,0.09375 0.039063,0.03125 0.078125,0.0625 0.109375,0.09375 0.00781,0.03125 0.023438,0.058594 0.046875,0.078125 0.019531,0.023438 0.035156,0.046875 0.046875,0.078125 0.019531,0.011719 0.03125,0.023437 0.03125,0.03125 0.00781,0.011719 0.019531,0.027344 0.03125,0.046875 0.03125,0.042969 0.050781,0.089844 0.0625,0.140625 0.00781,0.042969 0.023438,0.085937 0.046875,0.125 0.019531,0.023437 0.03125,0.039063 0.03125,0.046875 C 7.367188,-3.269531 7.375,-3.253906 7.375,-3.234375 V -3.1875 c 0,0.054688 0.00391,0.105469 0.015625,0.15625 0.019531,0.054688 0.03125,0.105469 0.03125,0.15625 -0.011719,0.03125 -0.023437,0.0625 -0.03125,0.09375 0,0.03125 -0.00781,0.070312 -0.015625,0.109375 0,0.03125 -0.00781,0.0625 -0.015625,0.09375 0,0.03125 -0.00781,0.0625 -0.015625,0.09375 -0.011719,0.03125 -0.023438,0.0625 -0.03125,0.09375 0,0.023437 0,0.042969 0,0.0625 -0.011719,0.03125 -0.027344,0.0625 -0.046875,0.09375 C 7.253906,-2.210938 7.242188,-2.1875 7.234375,-2.15625 7.203125,-2.125 7.1875,-2.085938 7.1875,-2.046875 7.1875,-2.035156 7.175781,-2.019531 7.15625,-2 c 0,0.011719 -0.00781,0.023438 -0.015625,0.03125 0,0 0,0.011719 0,0.03125 l -0.03125,0.015625 C 7.085938,-1.898438 7.054688,-1.863281 7.015625,-1.8125 6.984375,-1.769531 6.957031,-1.734375 6.9375,-1.703125 6.914062,-1.679688 6.894531,-1.660156 6.875,-1.640625 6.863281,-1.617188 6.84375,-1.59375 6.8125,-1.5625 6.789062,-1.539062 6.757812,-1.507812 6.71875,-1.46875 6.664062,-1.425781 6.628906,-1.382812 6.609375,-1.34375 6.597656,-1.332031 6.59375,-1.328125 6.59375,-1.328125 6.5625,-1.304688 6.539062,-1.289062 6.53125,-1.28125 c -0.011719,0 -0.015625,0 -0.015625,0 0,0 -0.00781,0 -0.015625,0 -0.042969,0.023438 -0.070312,0.039062 -0.078125,0.046875 -0.011719,0.011719 -0.03125,0.03125 -0.0625,0.0625 -0.011719,0.023437 -0.039063,0.042969 -0.078125,0.0625 C 6.226562,-1.085938 6.179688,-1.0625 6.140625,-1.03125 6.109375,-1 6.070312,-0.96875 6.03125,-0.9375 5.988281,-0.90625 5.957031,-0.882812 5.9375,-0.875 c -0.042969,0.03125 -0.070312,0.054688 -0.078125,0.0625 -0.011719,0 -0.042969,0 -0.09375,0 z m -1.9375,1 c 0,0.03125 0,0.054688 0,0.078125 0,0.03125 -0.00781,0.0625 -0.015625,0.09375 0,0.019531 -0.00781,0.035156 -0.015625,0.046875 C 3.53125,0.457031 3.492188,0.5 3.453125,0.53125 c -0.03125,0.039062 -0.0625,0.085938 -0.09375,0.140625 -0.023437,0.03125 -0.042969,0.0625 -0.0625,0.09375 -0.011719,0.03125 -0.03125,0.0625 -0.0625,0.09375 0,0.007813 0,0.015625 0,0.015625 0,0 0,0.003906 0,0.015625 -0.023437,0 -0.03125,0 -0.03125,0 C 3.191406,0.890625 3.1875,0.882812 3.1875,0.875 3.175781,0.863281 3.164062,0.851562 3.15625,0.84375 3.144531,0.84375 3.132812,0.835938 3.125,0.828125 L 2.53125,0.234375 C 2.519531,0.210938 2.5,0.1875 2.46875,0.15625 2.457031,0.15625 2.453125,0.144531 2.453125,0.125 c 0,-0.03125 0.00391,-0.0546875 0.015625,-0.0625 0,-0.0234375 0,-0.0429688 0,-0.0625 0.00781,-0.0195312 0.019531,-0.0351562 0.03125,-0.046875 0,-0.0195312 0,-0.0507812 0,-0.09375 0,-0.039063 0,-0.070313 0,-0.09375 C 2.5,-0.265625 2.488281,-0.3125 2.46875,-0.375 2.46875,-0.425781 2.46094,-0.472656 2.453125,-0.515625 2.441406,-0.554688 2.429688,-0.601562 2.421875,-0.65625 2.410156,-0.675781 2.40625,-0.6875 2.40625,-0.6875 2.375,-0.769531 2.335938,-0.832031 2.296875,-0.875 2.285156,-0.90625 2.269531,-0.929688 2.25,-0.953125 2.238281,-0.972656 2.226562,-1 2.21875,-1.03125 2.207031,-1.039062 2.203125,-1.050781 2.203125,-1.0625 2.171875,-1.082031 2.148438,-1.097656 2.140625,-1.109375 2.117188,-1.117188 2.101562,-1.125 2.09375,-1.125 2.0625,-1.132812 2.039062,-1.148438 2.03125,-1.171875 1.988281,-1.234375 1.925781,-1.285156 1.84375,-1.328125 1.832031,-1.335938 1.820312,-1.34375 1.8125,-1.34375 1.8125,-1.351562 1.804688,-1.363281 1.796875,-1.375 1.753906,-1.382812 1.71875,-1.394531 1.6875,-1.40625 1.65625,-1.425781 1.625,-1.445312 1.59375,-1.46875 1.5625,-1.476562 1.519531,-1.488281 1.46875,-1.5 c -0.011719,0 -0.027344,0 -0.046875,0 C 1.398438,-1.507812 1.382812,-1.519531 1.375,-1.53125 c -0.03125,0 -0.0625,-0.00781 -0.09375,-0.03125 -0.023438,0 -0.042969,0 -0.0625,0 -0.011719,0 -0.027344,0 -0.046875,0 -0.011719,0 -0.027344,0.00781 -0.046875,0.015625 -0.023438,0 -0.046875,0 -0.078125,0 -0.042969,0 -0.085937,0.015625 -0.125,0.046875 -0.054687,0.03125 -0.09375,0.0625 -0.125,0.09375 l -0.125,0.125 C 0.648438,-1.269531 0.632812,-1.25 0.625,-1.21875 0.613281,-1.1875 0.597656,-1.148438 0.578125,-1.109375 c -0.011719,0.03125 -0.015625,0.0625 -0.015625,0.09375 0,0.023437 0,0.058594 0,0.109375 -0.011719,0.042969 -0.015625,0.09375 -0.015625,0.15625 0,0.054688 0.003906,0.101562 0.015625,0.140625 0.007812,0.0625 0.03125,0.121094 0.0625,0.171875 0.007812,0.023438 0.019531,0.042969 0.03125,0.0625 0.019531,0.023438 0.035156,0.042969 0.046875,0.0625 0.007813,0.011719 0.007813,0.023438 0,0.03125 H 0.6875 c 0,0 -0.007812,-0.003906 -0.015625,-0.015625 -0.042969,-0.019531 -0.085937,-0.054687 -0.125,-0.109375 -0.042969,-0.050781 -0.074219,-0.085938 -0.09375,-0.109375 -0.03125,-0.03125 -0.054687,-0.0625 -0.0625,-0.09375 C 0.378906,-0.628906 0.363281,-0.65625 0.34375,-0.6875 0.332031,-0.726562 0.320312,-0.765625 0.3125,-0.796875 0.289062,-0.828125 0.273438,-0.875 0.265625,-0.9375 c 0,-0.019531 0,-0.050781 0,-0.09375 0.007813,-0.03125 0.015625,-0.054688 0.015625,-0.078125 0,-0.03125 0,-0.0625 0,-0.09375 0.007812,-0.039063 0.019531,-0.082031 0.03125,-0.125 0.007812,-0.039063 0.023438,-0.082031 0.046875,-0.125 0.007813,-0.019531 0.023437,-0.0625 0.046875,-0.125 0.019531,-0.019531 0.039062,-0.050781 0.0625,-0.09375 0.019531,-0.019531 0.039062,-0.039063 0.0625,-0.0625 0.019531,-0.019531 0.039062,-0.039063 0.0625,-0.0625 C 0.625,-1.835938 0.664062,-1.863281 0.71875,-1.875 0.738281,-1.894531 0.753906,-1.910156 0.765625,-1.921875 0.785156,-1.929688 0.8125,-1.945312 0.84375,-1.96875 0.882812,-2.007812 0.925781,-2.03125 0.96875,-2.03125 1.019531,-2.03906 1.066406,-2.050781 1.109375,-2.0625 1.148438,-2.082031 1.195312,-2.097656 1.25,-2.109375 c 0.039062,-0.019531 0.066406,-0.03125 0.078125,-0.03125 0.03125,0 0.054687,0 0.078125,0 0.019531,-0.00781 0.046875,-0.015625 0.078125,-0.015625 0.00781,0 0.023437,0 0.046875,0 0.019531,0 0.035156,-0.00391 0.046875,-0.015625 0.019531,0 0.050781,0 0.09375,0 0.00781,0 0.019531,0 0.03125,0 0.019531,0 0.035156,0.00781 0.046875,0.015625 0.039062,-0.00781 0.082031,0.011719 0.125,0.0625 l 0.03125,0.03125 c 0.050781,0.023438 0.085938,0.03125 0.109375,0.03125 0.050781,0.023438 0.09375,0.027344 0.125,0.015625 0.019531,0 0.035156,0.00781 0.046875,0.015625 0.03125,0.011719 0.0625,0.023438 0.09375,0.03125 0.03125,0 0.054688,0.011719 0.078125,0.03125 0.0625,0.023438 0.117187,0.03125 0.171875,0.03125 l 0.0625,0.03125 c 0.039062,0.03125 0.078125,0.0625 0.109375,0.09375 0.03125,0.03125 0.050781,0.054688 0.0625,0.0625 0.03125,0.011719 0.054687,0.027344 0.078125,0.046875 0.019531,0.023437 0.046875,0.042969 0.078125,0.0625 C 2.941406,-1.585938 2.957031,-1.570312 2.96875,-1.5625 2.976562,-1.53125 2.988281,-1.507812 3,-1.5 c 0,0.011719 0.00391,0.023438 0.015625,0.03125 0.00781,0.011719 0.019531,0.023438 0.03125,0.03125 0.00781,0.023438 0.023437,0.03125 0.046875,0.03125 0.019531,0.03125 0.035156,0.058594 0.046875,0.078125 0.00781,0.011719 0.015625,0.015625 0.015625,0.015625 0,0 0,0.00781 0,0.015625 0.00781,0.042969 0.03125,0.085937 0.0625,0.125 0.019531,0.023437 0.035156,0.042969 0.046875,0.0625 0.00781,0.023437 0.019531,0.046875 0.03125,0.078125 0.03125,0.042969 0.050781,0.085938 0.0625,0.125 0.00781,0.054688 0.023437,0.09375 0.046875,0.125 0.03125,0.042969 0.050781,0.078125 0.0625,0.109375 0,0.023437 0,0.042969 0,0.0625 0.00781,0.023437 0.019531,0.042969 0.03125,0.0625 0.03125,0.085937 0.039062,0.15625 0.03125,0.21875 0,0.011719 0.00391,0.03125 0.015625,0.0625 0,0.011719 0.00391,0.015625 0.015625,0.015625 0.00781,0.074219 0.015625,0.140625 0.015625,0.203125 0,0.0234375 0,0.04296875 0,0.0625 0,0.03125 0.00391,0.0625 0.015625,0.09375 z m 3.5,-0.046875 c -0.023438,0 -0.046875,0.003906 -0.078125,0.015625 -0.023437,0 -0.058594,0 -0.109375,0 -0.011719,0 -0.027344,0 -0.046875,0 -0.023437,0 -0.042969,0 -0.0625,0 C 6.785156,0.144531 6.769531,0.140625 6.75,0.140625 c -0.011719,0 -0.023438,0 -0.03125,0 -0.042969,-0.011719 -0.09375,-0.011719 -0.15625,0 -0.023438,0 -0.046875,0 -0.078125,0 -0.03125,0 -0.0625,-0.007813 -0.09375,-0.015625 C 6.367188,0.113281 6.347656,0.109375 6.328125,0.109375 6.304688,0.109375 6.285156,0.101562 6.265625,0.09375 6.242188,0.09375 6.21875,0.0859375 6.1875,0.078125 6.15625,0.078125 6.128906,0.0820312 6.109375,0.09375 6.085938,0.101562 6.0625,0.109375 6.03125,0.109375 6,0.0976562 5.96875,0.09375 5.9375,0.09375 c -0.023438,0 -0.046875,0 -0.078125,0 -0.03125,-0.0117188 -0.074219,-0.015625 -0.125,-0.015625 -0.042969,0 -0.074219,0.0039062 -0.09375,0.015625 C 5.617188,0.101562 5.59375,0.109375 5.5625,0.109375 5.539062,0.109375 5.523438,0.113281 5.515625,0.125 5.484375,0.132812 5.457031,0.140625 5.4375,0.140625 5.414062,0.148438 5.390625,0.15625 5.359375,0.15625 5.316406,0.164062 5.28125,0.175781 5.25,0.1875 5.21875,0.207031 5.179688,0.222656 5.140625,0.234375 5.097656,0.253906 5.066406,0.28125 5.046875,0.3125 5.023438,0.320312 5.007812,0.328125 5,0.328125 5,0.335938 4.992188,0.34375 4.984375,0.34375 L 4.75,0.5625 C 4.707031,0.601562 4.679688,0.628906 4.671875,0.640625 c -0.03125,0.0625 -0.074219,0.125 -0.125,0.1875 -0.023437,0.03125 -0.03125,0.0625 -0.03125,0.09375 0,0.007813 0,0.023437 0,0.046875 0,0.039062 -0.011719,0.070312 -0.03125,0.09375 C 4.472656,1.07031 4.46875,1.078125 4.46875,1.078125 c 0,0.00781 -0.00781,0.019531 -0.015625,0.03125 -0.011719,0 -0.023437,0.00391 -0.03125,0.015625 0,0.00781 0,0.015625 0,0.015625 C 4.347656,1.203125 4.273438,1.269531 4.203125,1.34375 4.140625,1.414062 4.070312,1.488281 4,1.5625 3.988281,1.570312 3.972656,1.585938 3.953125,1.609375 c -0.011719,0.00781 -0.023437,0.00781 -0.03125,0 -0.011719,0 -0.023437,-0.00781 -0.03125,-0.015625 -0.085937,-0.085938 -0.167969,-0.167969 -0.25,-0.25 C 3.566406,1.269531 3.492188,1.191406 3.421875,1.109375 3.398438,1.097656 3.390625,1.078125 3.390625,1.046875 v -0.03125 c 0,-0.023437 0.00391,-0.054687 0.015625,-0.09375 C 3.5,0.765625 3.613281,0.617188 3.75,0.484375 3.757812,0.472656 3.769531,0.460938 3.78125,0.453125 3.789062,0.441406 3.804688,0.429688 3.828125,0.421875 3.859375,0.398438 3.878906,0.378906 3.890625,0.359375 3.910156,0.335938 3.929688,0.3125 3.953125,0.28125 3.972656,0.269531 3.984375,0.257812 3.984375,0.25 3.984375,0.25 3.988281,0.242188 4,0.234375 4.019531,0.203125 4.050781,0.164062 4.09375,0.125 4.125,0.09375 4.148438,0.0664062 4.171875,0.046875 c 0.03125,-0.0234375 0.0625,-0.04296875 0.09375,-0.0625 0.019531,-0.0195312 0.046875,-0.03125 0.078125,-0.03125 0.00781,0 0.019531,-0.0039062 0.03125,-0.015625 0.03125,-0.0078125 0.054688,-0.0234375 0.078125,-0.046875 0.0625,-0.050781 0.125,-0.097656 0.1875,-0.140625 0.070313,-0.050781 0.140625,-0.097656 0.203125,-0.140625 0.03125,-0.007813 0.054688,-0.019531 0.078125,-0.03125 0.03125,-0.007813 0.0625,-0.019531 0.09375,-0.03125 0,0 0.019531,-0.003906 0.0625,-0.015625 0.03125,-0.019531 0.0625,-0.035156 0.09375,-0.046875 0.039063,-0.019531 0.078125,-0.039063 0.109375,-0.0625 0.019531,-0.019531 0.0625,-0.035156 0.125,-0.046875 0.019531,0 0.039062,0 0.0625,0 C 5.5,-0.632812 5.53125,-0.640625 5.5625,-0.640625 h 0.09375 c 0.050781,0 0.109375,0 0.171875,0 0.039063,0 0.082031,0.007813 0.125,0.015625 0.039063,0 0.082031,0 0.125,0 0.019531,0.011719 0.039063,0.015625 0.0625,0.015625 0.0625,0 0.101563,0.007813 0.125,0.015625 0.03125,0.011719 0.054687,0.023438 0.078125,0.03125 0.019531,0 0.046875,0.007812 0.078125,0.015625 0.039063,0.023437 0.085937,0.042969 0.140625,0.0625 0.050781,0.011719 0.101562,0.023437 0.15625,0.03125 0.050781,0.011719 0.097656,0.03125 0.140625,0.0625 0.03125,0.023437 0.0625,0.03125 0.09375,0.03125 0.019531,0 0.035156,-0.003906 0.046875,-0.015625 0.050781,0 0.101562,0.015625 0.15625,0.046875 0.00781,0 0.019531,0.007813 0.03125,0.015625 0.03125,0.011719 0.054688,0.011719 0.078125,0 H 7.3125 c 0.03125,-0.007812 0.054688,-0.003906 0.078125,0.015625 0.019531,0.011719 0.03125,0.015625 0.03125,0.015625 0.00781,0 0.019531,0 0.03125,0 0.019531,0.011719 0.050781,0.015625 0.09375,0.015625 0.019531,0 0.046875,-0.003906 0.078125,-0.015625 0.019531,0 0.050781,0 0.09375,0 0.039062,0 0.066406,-0.003906 0.078125,-0.015625 C 7.835938,-0.304688 7.875,-0.316406 7.90625,-0.328125 7.9375,-0.335938 7.957031,-0.34375 7.96875,-0.34375 7.988281,-0.351562 8.007812,-0.363281 8.03125,-0.375 c 0.039062,0 0.078125,-0.007812 0.109375,-0.03125 C 8.148438,-0.425781 8.164062,-0.441406 8.1875,-0.453125 8.207031,-0.472656 8.222656,-0.488281 8.234375,-0.5 c 0.019531,-0.019531 0.039063,-0.039062 0.0625,-0.0625 0,0 0.00391,0 0.015625,0 0.00781,0 0.015625,0.007812 0.015625,0.015625 v 0.015625 c -0.023437,0.042969 -0.039063,0.085938 -0.046875,0.125 -0.011719,0.023438 -0.027344,0.046875 -0.046875,0.078125 -0.011719,0.023437 -0.023437,0.042969 -0.03125,0.0625 -0.03125,0.054687 -0.070313,0.089844 -0.109375,0.109375 -0.023438,0.011719 -0.046875,0.027344 -0.078125,0.046875 -0.023437,0.0117188 -0.042969,0.0234375 -0.0625,0.03125 -0.042969,0.0234375 -0.074219,0.0429688 -0.09375,0.0625 l -0.03125,0.03125 C 7.816406,0.0234375 7.800781,0.0351562 7.78125,0.046875 7.75,0.0664062 7.710938,0.078125 7.671875,0.078125 7.640625,0.0859375 7.613281,0.09375 7.59375,0.09375 c -0.0625,0 -0.121094,0.007812 -0.171875,0.03125 -0.023437,0.007812 -0.054687,0.015625 -0.09375,0.015625 -0.023437,0 -0.054687,0 -0.09375,0 z m 0,0"
           id="path11020" />
      </g>
    </g>
  </g>
</svg>
