<svg width="25" height="24" viewBox="0 0 25 24" fill="#000000" xmlns="http://www.w3.org/2000/svg">
  <path d="M6.86141 6.22617C6.88249 6.23485 6.90357 6.24477 6.92465 6.25593C7.34994 6.46672 7.74547 6.73454 7.99966 7.14743C8.0381 7.20943 8.07033 7.28258 8.14969 7.28382C8.16457 7.18463 8.12365 7.06684 8.10753 6.96764C7.9699 6.13566 7.75415 5.33219 7.59296 4.5064C7.53469 4.20758 7.49501 3.90256 7.44541 3.60126C7.40822 3.3756 7.37102 3.15117 7.33382 2.92551C7.3177 2.82879 7.24827 2.66637 7.33382 2.59073C7.24579 2.84987 7.11436 3.10654 6.97177 3.34212C6.90357 3.45371 6.82049 3.52687 6.74114 3.62978C6.66179 3.73394 6.58739 3.81577 6.53655 3.93728C6.44232 4.16295 6.34933 4.25222 6.12366 4.33902C5.96371 4.39977 5.8422 4.48161 5.72937 4.60808C5.61529 4.73579 5.50246 4.84986 5.34747 4.93046C5.15032 5.03337 4.92838 5.04701 4.71263 5.08173C4.6556 5.09041 4.50557 5.07553 4.51053 5.1648C4.51177 5.19704 4.61468 5.27887 4.637 5.29623C4.74115 5.38179 4.87878 5.40907 4.98666 5.48842C5.10569 5.57769 5.21852 5.64093 5.35987 5.69549C5.48262 5.7426 5.60909 5.74756 5.72689 5.8108C5.83352 5.86783 5.93891 5.92239 6.05051 5.97199C6.31833 6.0873 6.59483 6.11086 6.86141 6.22617Z"/>
  <path d="M16.6568 4.58451C16.5812 4.55227 16.5378 4.50764 16.4696 4.44812C16.3468 4.34397 16.1918 4.32785 16.0728 4.23362C16.0058 4.17906 15.9624 4.09227 15.9079 4.02655C15.836 3.94099 15.7517 3.8666 15.6822 3.77981C15.5681 3.63969 15.4838 3.47727 15.371 3.33468C15.2396 3.16853 15.1354 2.9751 15.1007 2.76679C15.1354 2.87467 15.092 3.03213 15.0623 3.13629C14.9643 3.48966 14.8428 3.86164 14.6766 4.18774C14.6419 4.25717 14.601 4.32041 14.5526 4.38117C14.4721 4.48036 14.3915 4.56219 14.3468 4.68619C14.2774 4.88085 14.2575 5.09536 14.1943 5.29499C14.1311 5.49585 14.0517 5.693 13.9513 5.87899C13.8484 6.0687 13.7827 6.27948 13.7021 6.48035C13.6735 6.55102 13.5173 6.72461 13.5458 6.79653C13.6983 6.77297 13.8037 6.91556 13.9711 6.89076C14.0815 6.87588 14.1695 6.81141 14.2737 6.78289C14.3766 6.75437 14.4882 6.76553 14.5898 6.72833C14.7337 6.67502 14.8973 6.64898 15.0151 6.55226C15.0933 6.48779 15.1627 6.42083 15.2234 6.34024C15.2978 6.24352 15.3561 6.12449 15.4429 6.04018C15.5037 5.9819 15.5632 5.97074 15.6351 5.93602C15.7033 5.90255 15.7529 5.84551 15.8161 5.80707C15.9575 5.72152 16.1199 5.62604 16.2724 5.56653C16.4708 5.49089 16.6072 5.3855 16.7783 5.25655C16.9308 5.14124 17.1032 4.93789 17.2792 4.87093C17.3697 4.83622 17.5012 4.82878 17.6016 4.8201C17.4838 4.78786 17.4156 4.70974 17.2854 4.7147C17.2234 4.71718 17.1627 4.75438 17.0982 4.74322C17.0226 4.73206 16.9692 4.66883 16.9035 4.63783C16.8366 4.60683 16.7709 4.62171 16.7064 4.60187C16.6878 4.59691 16.6717 4.59071 16.6568 4.58451Z"/>
  <path d="M16.296 12.9775C16.1076 12.9143 15.9563 12.8362 15.7951 12.7146C15.7021 12.644 15.5917 12.4828 15.474 12.4679C15.7058 12.453 15.9315 12.4084 16.1683 12.4071C16.5948 12.4047 16.9817 12.4605 17.3983 12.5398C17.7405 12.6055 18.0902 12.7246 18.4361 12.7568C18.6432 12.7766 18.8503 12.7766 19.0586 12.7692C19.3152 12.7605 19.5806 12.6861 19.836 12.6465C20.0319 12.6155 20.2204 12.551 20.4101 12.5026C20.5551 12.4667 20.6543 12.1914 20.8056 12.2385C20.7448 12.3861 20.6047 12.4927 20.5204 12.6241C20.3828 12.8399 20.322 13.0767 20.1695 13.2862C20.1162 13.3606 20.0418 13.44 20.0071 13.5268C19.9823 13.5888 19.9761 13.6409 19.9401 13.7029C19.898 13.7748 19.8273 13.8145 19.7864 13.8777C19.7418 13.9459 19.7343 14.0414 19.7256 14.1195C19.7108 14.2658 19.6574 14.4047 19.645 14.5485C19.6376 14.6477 19.6674 14.7481 19.6835 14.8461C19.7095 15.0035 19.8583 15.4189 19.5558 15.2962C19.4653 15.259 19.3549 15.1263 19.2793 15.0569C19.1689 14.9539 19.0548 14.8783 18.9408 14.7903C18.8143 14.6923 18.7622 14.5869 18.6159 14.515C18.4659 14.4419 18.3382 14.3464 18.1919 14.2621C18.0121 14.1567 17.8224 14.0426 17.7021 13.8802C17.557 13.683 17.3909 13.4251 17.154 13.3396C16.8627 13.2329 16.5899 13.0767 16.296 12.9775Z"/>
  <path d="M13.0486 15.2379C13.0524 15.2391 13.0573 15.2404 13.061 15.2428C13.0896 15.2565 13.1441 15.4759 13.1627 15.5094C13.3276 15.7958 13.4516 16.1294 13.5707 16.4381C13.5955 16.5038 13.6153 16.5696 13.6277 16.6378C13.6451 16.7407 13.6388 16.8461 13.6674 16.9465C13.7604 17.2751 14.0592 17.5788 14.2489 17.8578C14.5675 18.3302 14.9631 18.7171 15.3227 19.1535C15.464 19.3247 15.3549 19.5057 15.1268 19.4561C14.9941 19.4276 14.88 19.3445 14.7424 19.3259C14.6122 19.3073 14.4808 19.3309 14.3506 19.3135C14.1857 19.2899 14.0815 19.2168 13.9116 19.2416C13.5322 19.2986 13.1342 19.3247 12.8093 19.5367C12.5651 19.6966 12.3791 19.9087 12.1472 20.0835C12.017 20.1814 11.8707 20.2534 11.8521 20.4294C11.7914 20.1889 11.8633 19.9099 11.9315 19.6805C11.9836 19.5069 12.0443 19.3371 12.0022 19.161C11.9736 19.0382 11.9451 18.9291 11.9575 18.8026C11.9823 18.541 12.11 18.303 12.1683 18.0488C12.2799 17.5726 12.3692 17.0953 12.5415 16.6378C12.5924 16.5038 12.6234 16.365 12.6891 16.236C12.787 16.0401 12.8081 15.8479 12.8317 15.6322C12.8403 15.5553 12.9371 15.2081 13.0486 15.2379Z"/>
  <path d="M6.72999 14.3551C6.43737 14.6899 6.15715 15.0023 5.77525 15.2292C5.60166 15.3321 5.48759 15.4735 5.36732 15.6334C5.3016 15.7227 5.21233 15.7971 5.15405 15.8926C5.11685 15.9533 5.0995 16.0885 5.02262 16.1108C4.97798 16.0203 5.0003 15.8405 4.99658 15.7401C4.98914 15.5144 4.94451 15.1077 4.68908 15.0246C4.59113 14.9936 4.50309 15.0296 4.41258 14.9614C4.36422 14.9254 4.34686 14.8634 4.29975 14.8287C4.24395 14.789 4.17204 14.7903 4.115 14.7519C4.04432 14.7047 3.99845 14.6254 3.94637 14.5597C3.81742 14.3997 3.71575 14.2794 3.5496 14.153C3.47396 14.0947 3.26938 13.9719 3.26566 13.8666C3.38221 13.8033 3.5186 13.8442 3.64507 13.8455C3.7641 13.848 3.87322 13.8232 3.98977 13.8033C4.29975 13.7512 4.58369 13.6434 4.89243 13.5888C5.16149 13.5405 5.41443 13.4351 5.6835 13.3855C5.898 13.347 6.09763 13.3036 6.29602 13.2082C6.46465 13.1263 6.64567 12.9961 6.84282 13.0197C7.62645 13.109 6.93581 14.1183 6.72999 14.3551Z"/>
  <path d="M16.973 10.0017C16.9172 9.8517 16.8416 9.71902 16.7349 9.61983C16.5762 9.47352 16.4919 9.36813 16.4125 9.15982C16.3183 8.90812 16.2452 8.62542 16.1199 8.38611C15.9885 8.13813 15.8087 7.9571 15.5409 7.87526C15.3785 7.82691 15.0474 7.91742 14.9594 8.06621C14.8254 8.29312 14.73 8.52126 14.7982 8.78041C14.8676 9.04327 14.968 9.31729 15.0548 9.57519C15.1664 9.90873 15.2892 10.2224 15.309 10.5783C15.3264 10.8808 15.3189 11.2367 15.2569 11.5355C15.2346 11.6384 15.19 11.7128 15.1937 11.8194C15.2036 12.1741 15.1912 12.5188 15.0511 12.856C14.8044 13.4549 14.3258 13.8851 13.836 14.2794C13.5818 14.4853 13.283 14.7221 12.9705 14.8213C12.6581 14.9192 12.3171 14.8808 11.9972 14.9254C11.5409 14.9899 11.1255 15.068 10.6618 15.0532C10.2551 15.0395 9.85461 14.9874 9.47892 14.8176C8.885 14.5473 8.45847 13.8442 8.21172 13.2652C8.10385 13.0098 7.98606 12.7568 7.89926 12.494C7.81371 12.2373 7.78519 11.9732 7.73931 11.7079C7.71452 11.569 7.68104 11.4301 7.67856 11.2888C7.67608 11.1598 7.70708 11.0309 7.7046 10.9019C7.70088 10.6899 7.67732 10.4915 7.6922 10.2757C7.72567 9.81326 7.71947 9.34953 7.76411 8.88828C7.79263 8.59442 7.83107 8.41091 7.96746 8.13937C8.05301 7.96702 8.16213 7.81203 8.25388 7.6434C8.35803 7.45245 8.48698 7.33962 8.63825 7.19083C8.6209 7.18463 8.60354 7.18091 8.58618 7.17843C8.6271 6.93417 9.08587 6.85109 9.28425 6.7767C9.37229 6.74322 9.46156 6.71346 9.55207 6.69238C9.69838 6.6589 9.84717 6.65023 9.99597 6.63163C10.2179 6.60559 10.4337 6.54359 10.6544 6.51755C10.7722 6.50392 10.8837 6.50516 10.9929 6.55351C11.0908 6.59691 11.1702 6.67502 11.2793 6.69238C11.5235 6.73206 11.7542 6.494 11.9526 6.37496C12.0257 6.33157 12.11 6.30305 12.1819 6.25717C12.2762 6.19518 12.3456 6.11458 12.4423 6.05754C12.6172 5.95711 12.7387 5.77732 12.7399 5.56034C12.7411 5.35079 12.637 5.29127 12.4436 5.24788C12.1026 5.171 11.8186 5.32723 11.4826 5.31483C11.34 5.30863 11.1367 5.2826 11.0189 5.1958C10.9569 5.14992 10.9321 5.08793 10.8577 5.05445C10.7759 5.01725 10.6655 5.01477 10.5787 5.02965C10.487 5.04329 10.3965 5.06065 10.3035 5.07553C10.1472 5.10157 9.99225 5.12761 10.1832 5.21068C10.1274 5.20696 10.0691 5.22556 10.0133 5.23424C9.72814 5.28136 9.46032 5.35699 9.20366 5.49586C8.84036 5.69301 8.5775 6.00919 8.24768 6.25097C7.88562 6.51507 7.50001 6.80894 7.23219 7.17595C7.02884 7.45493 6.77838 7.6744 6.59363 7.97074C6.34316 8.37247 6.1671 8.74197 6.03939 9.20198C5.95259 9.5194 5.85712 9.83682 5.83604 10.1679C5.80504 10.6254 5.96499 11.0792 6.00219 11.533C6.03691 11.9447 6.09642 12.3427 6.16214 12.7506C6.22041 13.109 6.22661 13.476 6.43368 13.7847C6.87013 14.4357 7.24955 15.1226 7.83355 15.6533C8.28736 16.0637 8.81804 16.5262 9.38221 16.758C9.6959 16.887 10.0071 16.9887 10.3481 16.9911C10.7635 16.9936 11.1652 16.8882 11.5781 16.8634C12.0208 16.8374 12.3258 16.7605 12.7163 16.5448C13.0772 16.3451 13.4479 16.2013 13.7889 15.9645C14.1187 15.7339 14.4473 15.507 14.8019 15.3197C15.1441 15.1387 15.4925 14.9887 15.8013 14.7494C16.0641 14.5448 16.3109 14.3253 16.4745 14.0277C16.5923 13.8145 16.689 13.5752 16.7907 13.3545C16.9916 12.9205 17.154 12.4419 17.1912 11.962C17.2135 11.6868 17.2011 11.414 17.1639 11.1412C17.1205 10.8151 17.1057 10.3601 16.973 10.0017Z"/>
  <path d="M12.7572 10.0749C12.6593 9.97195 12.4497 9.75745 12.3134 9.70785C12.1348 9.64338 11.9538 9.79589 11.7728 9.69545C11.7021 9.65578 11.6289 9.60618 11.5694 9.55658C11.464 9.47103 11.4243 9.41895 11.2805 9.45119C11.2024 9.46855 11.1652 9.50947 11.092 9.53426C11.0077 9.56278 10.9569 9.58758 10.8974 9.66693C10.885 9.68305 10.8763 9.70165 10.8701 9.71529C10.8614 9.73761 10.8627 9.74629 10.8701 9.71529C10.8763 9.69297 10.8875 9.64834 10.9011 9.56526C10.7473 9.59874 10.6915 9.85912 10.6469 9.97815C10.5105 10.3476 10.3134 10.7965 10.3853 11.2032C10.4349 11.4909 10.5403 11.6198 10.7994 11.7326C10.9048 11.7785 11.0065 11.8194 11.0871 11.9075C11.1578 11.9843 11.1937 12.0563 11.2979 12.0947C11.5434 12.1864 11.8496 12.0922 12.1063 12.0972C12.363 12.1034 12.5415 12.0525 12.7362 11.8703C12.8515 11.7612 12.9408 11.5677 13.0065 11.4251C13.1243 11.1734 13.0933 10.8858 13.0102 10.6266C12.9532 10.4456 12.8887 10.2125 12.7572 10.0749Z"/>
  <path d="M13.0685 18.5361L13.7107 18.1877C13.4888 18.21 13.2743 18.4121 13.0685 18.5361Z"/>
  <path d="M12.973 18.5869C13.004 18.572 13.0362 18.5547 13.0685 18.5348L12.973 18.5869Z"/>
  <path d="M15.3945 21.0234C15.4107 21.1436 15.4094 21.2341 15.3995 21.3581C15.3883 21.4908 15.4144 21.6582 15.3735 21.7884C15.335 21.9087 15.2582 22.0178 15.2135 22.138C15.1453 22.324 15.0771 22.4269 14.942 22.5658C14.8242 22.6861 14.7262 22.815 14.5613 22.8758C14.4472 22.918 14.3158 22.9217 14.1955 22.9403C13.955 22.98 13.6425 23.0841 13.402 23.0432C13.2371 23.0147 13.0635 22.913 12.906 22.8522C12.7213 22.7816 12.5378 22.4703 12.4497 22.3042C12.3828 22.1765 12.3667 22.0401 12.3419 21.9012C12.3233 21.807 12.2997 21.7128 12.2749 21.6198C12.2377 21.4821 12.1881 21.3395 12.1968 21.1957C12.2129 20.9068 12.4287 20.6514 12.6394 20.4728C12.7486 20.3811 12.88 20.3203 12.9866 20.2273C13.1218 20.1095 13.2135 19.9657 13.371 19.8702C13.583 19.7413 13.7703 19.7326 13.9996 19.812C14.1038 19.8492 14.2055 19.8888 14.3146 19.9074C14.4596 19.9322 14.6221 19.8864 14.7609 19.926C14.9531 19.9818 15.0647 20.1988 15.185 20.3426C15.3425 20.5324 15.3623 20.7853 15.3945 21.0234ZM15.4156 19.3991C15.1292 19.0965 14.5663 18.7803 14.1063 18.67C13.8198 18.6018 13.4863 18.5634 13.1825 18.6018C13.0883 18.6142 12.973 18.6241 12.8688 18.644L12.973 18.5869C12.9705 18.5881 12.968 18.5894 12.9655 18.5906C12.9283 18.608 12.8924 18.6266 12.8552 18.6452C12.8168 18.6526 12.7808 18.6613 12.7473 18.6712C12.57 18.727 12.5254 18.8225 12.3828 18.9068L12.6394 18.7679C12.3332 18.9626 12.0802 19.2131 11.8707 19.4859C11.2569 20.2831 11.1788 21.3978 11.278 22.2757C11.3214 22.6526 11.3896 22.9415 11.7529 23.1796C12.177 23.4573 12.7163 23.6098 13.18 23.8392C13.5917 24.0438 14.0145 23.9917 14.503 23.9992C14.973 24.0066 15.1887 23.9508 15.4875 23.6049C16.6059 22.3129 16.5105 20.5571 15.4156 19.3991Z"/>
  <path d="M3.92656 16.0959C3.85588 16.1753 3.78273 16.2745 3.69593 16.334C3.62898 16.3786 3.55706 16.4009 3.49382 16.4543C3.37603 16.5547 3.2756 16.6998 3.13549 16.7717C3.05861 16.8113 2.97306 16.8337 2.89618 16.8746C2.75359 16.9502 2.63084 17.0494 2.47461 17.1002C2.33202 17.1449 2.19191 17.1139 2.04808 17.1548C1.90549 17.1945 1.7877 17.2528 1.63519 17.2515C1.49508 17.2503 1.34133 17.2106 1.20989 17.1573C0.960671 17.0581 0.984229 16.9341 1.01151 16.701C1.04127 16.4381 1.08218 16.1666 1.15286 15.9099C1.22229 15.657 1.35497 15.4462 1.46408 15.2106C1.60419 14.9093 1.7443 14.5956 2.10016 14.5324C2.14107 14.3526 2.40642 14.3414 2.58 14.3613C2.72632 14.3774 2.87387 14.4406 3.0177 14.4716C3.06729 14.4828 3.13549 14.4766 3.1826 14.4939C3.28056 14.5287 3.37107 14.6489 3.44423 14.7171C3.71081 14.9676 4.14602 15.2119 4.14602 15.6223C4.14726 15.8132 4.05179 15.9533 3.92656 16.0959ZM4.51428 13.7773C4.37665 13.7797 4.26133 13.8132 4.13114 13.7587C3.96003 13.6892 3.85092 13.5454 3.66741 13.4908C3.51614 13.445 3.37231 13.4536 3.21608 13.4574C2.52421 13.4784 1.84349 13.5752 1.20122 13.8566C-0.113098 14.4319 -0.0511026 16.0228 0.0443712 17.2292C0.0976877 17.9025 0.97555 18.4158 1.59303 18.4208C2.0952 18.4257 2.68416 18.4208 3.17145 18.2906C3.64633 18.1653 3.94267 17.8343 4.25389 17.4735C4.51676 17.1684 4.73126 16.8324 5.01892 16.5485C5.31278 16.2608 5.37602 15.8876 5.44422 15.4933C5.58185 14.6948 5.29047 14.0178 4.51428 13.7773Z"/>
  <path d="M6.32332 3.07057C6.32208 3.2826 6.24149 3.39419 6.13114 3.56778C5.97739 3.80584 5.79636 3.88768 5.52606 3.9348C5.33387 3.96827 5.13176 4.02283 4.93709 3.98439C4.86146 3.96951 4.78954 3.93728 4.71515 3.91496C4.61595 3.8852 4.47088 3.89512 4.38161 3.83932C4.31217 3.79716 4.27622 3.70541 4.2167 3.65333C4.15347 3.59754 4.07783 3.5839 4.02327 3.52066C3.94144 3.42519 3.93648 3.20696 3.91664 3.08545C3.88688 2.88582 3.9092 2.70852 3.97616 2.51881C4.09023 2.19891 4.31217 1.99184 4.50312 1.72526C4.36053 1.72526 4.63951 1.60003 4.73375 1.58639C4.82054 1.57275 4.90362 1.55167 4.99165 1.55291C5.16152 1.55787 5.26567 1.64219 5.40206 1.72774C5.72568 1.93109 5.87075 2.25595 6.13486 2.52129C6.30596 2.69364 6.3258 2.82879 6.32332 3.07057ZM7.21482 1.83933C7.13299 1.77858 7.03008 1.75254 6.9408 1.70666C6.79201 1.62979 6.65314 1.53183 6.52419 1.4252C6.29108 1.23301 6.0927 1.10902 5.80876 1.01603C5.56077 0.935433 5.42066 0.846159 5.15904 0.854838C4.75979 0.868477 4.37789 0.889556 3.98484 0.968911C3.07474 1.15118 2.6668 1.8133 2.80071 2.72588C2.86395 3.14869 2.88379 3.70417 3.05862 4.09227C3.24585 4.5064 3.73189 4.88953 4.15595 5.00981C4.35433 5.0656 4.56016 5.07428 4.75731 5.13752C4.92221 5.19083 5.05117 5.30119 5.20988 5.36442C5.5087 5.48097 5.86331 5.32722 6.1175 5.16727C6.363 5.01228 6.52295 4.78538 6.73746 4.59691C6.97924 4.38489 7.13671 4.32041 7.19251 4.02159C7.20738 3.93728 7.23218 3.85544 7.2607 3.77361C7.2979 3.66573 7.33882 3.55786 7.36609 3.44875C7.41321 3.2702 7.37725 3.10281 7.39585 2.9255C7.40949 2.80151 7.44917 2.70976 7.42933 2.57956C7.38841 2.29314 7.47645 2.03648 7.21482 1.83933Z"/>
  <path d="M18.8515 2.4754C18.8812 2.7333 18.7312 2.98129 18.6122 3.19951C18.3431 3.69052 17.8583 3.96082 17.3053 4.00174C16.942 4.02902 16.265 3.9757 16.1869 3.52561C16.1534 3.32846 16.11 3.13008 16.0877 2.93169C16.0753 2.81886 16.0889 2.70974 16.1088 2.59815C16.1286 2.48904 16.1212 2.32909 16.1708 2.22618C16.2154 2.13566 16.3072 2.04763 16.363 1.96083C16.4262 1.86164 16.5031 1.79468 16.5899 1.71657C16.6258 1.68309 16.6791 1.61862 16.7362 1.58266C16.5874 1.62606 16.5861 1.6149 16.5861 1.6025C16.6345 1.58018 16.7052 1.5963 16.7448 1.56654C16.8081 1.52066 16.7684 1.43635 16.8044 1.37559C16.8502 1.29996 16.9544 1.2888 17.0275 1.2578C17.2309 1.16977 17.4318 1.13753 17.6574 1.16357C18.0728 1.21316 18.3047 1.54918 18.5799 1.82444C18.7709 2.01663 18.8205 2.20882 18.8515 2.4754ZM19.6773 1.89388C19.5384 1.74633 19.4466 1.56406 19.3276 1.40287C19.1416 1.14745 18.9184 0.927982 18.6593 0.741994C18.5663 0.675038 18.4696 0.606843 18.3691 0.543607C18.2476 0.466732 18.1199 0.397297 17.9897 0.34894C17.8174 0.284464 17.5992 0.363819 17.4156 0.394817C17.3127 0.410936 17.2098 0.429535 17.1057 0.445653C16.9941 0.463012 16.9916 0.482851 16.911 0.542367C16.8106 0.616762 16.7052 0.625442 16.6345 0.739514C16.5775 0.831268 16.5725 0.914343 16.4597 0.94906C16.3692 0.976338 16.2873 0.95898 16.198 1.0061C16.0803 1.06685 15.9724 1.16233 15.8682 1.24292C15.5595 1.47975 15.3735 1.83436 15.2272 2.19146C14.9718 2.81762 14.8936 3.54793 15.1069 4.20385C15.2148 4.53738 15.4566 4.74321 15.6785 5.00111C15.9662 5.33465 16.105 5.45244 16.57 5.43385C17.3288 5.40285 18.0815 5.39913 18.8192 5.19702C18.9643 5.15734 19.0412 5.05567 19.1119 4.92796C19.2495 4.68369 19.3313 4.40471 19.4032 4.13441C19.4937 3.79715 19.7157 3.52065 19.8335 3.19207C19.9228 2.94037 19.9116 2.77918 19.8682 2.52376C19.8285 2.29561 19.8409 2.06623 19.6773 1.89388Z"/>
  <path d="M22.9631 14.6316C22.8353 14.8994 22.663 15.2503 22.3976 15.4139C22.2067 15.533 21.96 15.5826 21.743 15.6198C21.5347 15.6557 21.4156 15.6235 21.2234 15.5404C20.9767 15.435 20.7089 15.4263 20.4634 15.311C20.4051 15.2837 20.3071 15.2528 20.2637 15.2019C20.1881 15.1114 20.1943 14.8746 20.177 14.7692C20.146 14.5844 20.1286 14.453 20.203 14.2695C20.2997 14.0302 20.3853 13.7314 20.5464 13.528C20.6258 13.4288 20.6952 13.414 20.8006 13.3458C20.7659 13.2466 20.8663 13.161 21.0548 13.1759C21.159 13.1846 21.2482 13.1548 21.3474 13.1573C21.4194 13.1598 21.4826 13.1808 21.5557 13.1722C21.6289 13.1647 21.6983 13.1337 21.7727 13.1362C21.9178 13.1412 22.1075 13.1883 22.2513 13.2292C22.42 13.2763 22.5502 13.3668 22.6742 13.4896C22.8043 13.6185 22.911 13.7822 22.9978 13.9446C23.123 14.1777 23.0734 14.4022 22.9631 14.6316ZM23.4045 12.8213C23.0312 12.2745 22.3257 11.9632 21.681 11.9942C21.3722 12.0091 21.0486 11.9856 20.7461 12.0724C20.4807 12.148 20.3009 12.3216 20.079 12.4778C19.867 12.6266 19.6971 12.6923 19.562 12.9267C19.459 13.104 19.3388 13.2676 19.2185 13.4338C18.9978 13.7376 18.844 14.1157 19.0375 14.484C19.0251 15.0754 19.2445 15.7066 19.6128 16.1331C20.2799 16.9068 21.3288 16.9924 22.2637 16.8163C23.0536 16.6663 23.8794 16.1567 23.9947 15.3147C24.11 14.4691 23.888 13.5317 23.4045 12.8213Z"/>
  <path d="M6.16462 2.09225C6.17702 2.16541 6.19314 2.23608 6.20926 2.29312C6.25761 2.45555 6.3878 2.42827 6.52791 2.42207C6.79078 2.40967 7.06108 2.40347 7.31526 2.3266C7.60664 2.2398 7.88191 2.09349 8.16089 1.9757C8.5403 1.81575 8.9222 1.75871 9.32393 1.6868C9.35617 1.6806 9.38841 1.6744 9.4194 1.6682C9.71946 1.60868 10.0108 1.51445 10.3109 1.45617C10.575 1.4041 10.8912 1.35574 11.159 1.36814C11.4095 1.3793 11.6624 1.44129 11.9104 1.47353C12.146 1.50453 12.3779 1.48841 12.6122 1.51445C12.8515 1.54173 13.092 1.60744 13.3251 1.66696C13.5694 1.7302 13.8025 1.82815 14.0319 1.93354C14.2464 2.03026 14.4746 2.17657 14.7077 2.21872C14.8651 2.24724 15.0015 2.20508 15.1007 2.35635C15.1453 2.42331 15.1627 2.50638 15.2284 2.55598C15.2879 2.60062 15.376 2.64526 15.4404 2.68493C15.5905 2.77297 15.5868 2.68741 15.6339 2.56342C15.6773 2.44935 15.7851 2.26832 15.8633 2.17905C15.9687 2.05877 16.1236 1.87527 16.2538 1.78599C16.2737 1.77235 16.3791 1.74012 16.3877 1.72028C16.4076 1.67316 16.3444 1.57149 16.3146 1.53677C16.2799 1.49709 16.2414 1.48841 16.198 1.45245C16.0827 1.35822 16.0939 1.17843 15.9786 1.09412C15.9129 1.04576 15.8434 1.07056 15.7814 1.02344C15.717 0.972606 15.7256 0.90193 15.6897 0.839934C15.6574 0.784138 15.6277 0.777938 15.5595 0.740741C15.3884 0.647747 15.2148 0.562193 15.0387 0.481598C14.456 0.216255 13.7728 0.170379 13.1404 0.113342C12.4572 0.0525864 11.7641 0.0501064 11.0784 0.00918908C10.7486 -0.00940969 10.4237 0.00546942 10.0939 0.00794925C9.75418 0.0104291 9.41196 -0.0118896 9.07471 0.0339874C8.76473 0.0761447 8.45351 0.15178 8.15469 0.239814C7.82363 0.336528 7.46405 0.429521 7.15531 0.589471C6.90857 0.717182 6.53163 0.914329 6.33573 1.14619C6.27249 1.22183 6.18942 1.32722 6.17702 1.42766C6.17082 1.49089 6.1981 1.54917 6.1919 1.61364C6.1857 1.6806 6.14974 1.7426 6.14478 1.81079C6.13982 1.89139 6.1485 1.99306 6.16462 2.09225Z"/>
  <path d="M1.9712 14.2497C2.10015 14.236 2.23034 14.2311 2.35681 14.2087C2.51924 14.1802 2.66927 14.1802 2.83418 14.2149C2.94081 14.2373 3.08216 14.329 3.18508 14.2621C3.15036 14.2025 3.06481 14.1691 3.01025 14.1034C2.94205 14.0215 2.90982 13.9198 2.85154 13.8318C2.70399 13.6111 2.5428 13.3954 2.43245 13.1511C2.3035 12.8659 2.17578 12.5473 1.9898 12.2968C1.84101 12.0972 1.75669 11.8541 1.76165 11.6049C1.77157 11.1337 1.53599 10.701 1.58806 10.2274C1.62278 9.90747 1.74677 9.60741 1.84473 9.30487C1.96748 8.92793 2.08155 8.54728 2.17826 8.1629C2.23902 7.92236 2.27374 7.69669 2.36797 7.46483C2.4994 7.13873 2.59736 6.78535 2.76226 6.47414C2.8565 6.29559 2.96933 6.12572 3.06357 5.94593C3.15904 5.76366 3.19996 5.5628 3.31403 5.39169C3.44546 5.19702 3.50746 4.96639 3.63269 4.76801C3.66245 4.71965 3.72196 4.60558 3.76536 4.6093C3.7232 4.48903 3.83355 4.41587 3.87075 4.31296C3.90423 4.21872 3.89307 4.09349 3.91787 3.9943C3.95259 3.85295 3.94515 3.65332 3.87695 3.51073C3.80008 3.35078 3.60789 3.3359 3.44794 3.3669C3.31899 3.39046 3.24335 3.45245 3.15904 3.55289C3.07472 3.65208 2.99537 3.78103 2.94825 3.90378C2.92593 3.96206 2.92593 4.0191 2.90982 4.07861C2.86518 4.23608 2.75235 4.39603 2.67795 4.54234C2.6048 4.68369 2.5304 4.82504 2.45105 4.96391C2.31713 5.19826 2.1609 5.4326 2.09147 5.69795C2.06791 5.7897 2.05427 5.88393 2.01583 5.97197C1.95632 6.10464 1.85092 6.20631 1.78025 6.33278C1.70337 6.47042 1.65626 6.62169 1.58434 6.7618C1.36612 7.18709 1.15533 7.64462 0.892468 8.04387C0.513053 8.62043 0.40642 9.36934 0.474615 10.0463C0.539091 10.6973 0.498174 11.3483 0.518013 12.0029C0.519252 12.0649 0.521732 12.1269 0.522972 12.1889C0.535371 12.7047 0.679202 13.2019 0.696561 13.7177C0.70524 13.9409 0.752357 14.1567 0.775916 14.3774C0.788315 14.4902 0.772196 14.7927 0.896188 14.8535C0.982982 14.8969 1.05986 14.7989 1.11069 14.7568C1.19749 14.6824 1.26568 14.6229 1.36612 14.5596C1.53227 14.4543 1.60542 14.3216 1.79017 14.2794C1.84969 14.2658 1.91044 14.2559 1.9712 14.2497Z"/>
  <path d="M18.2724 4.80771C18.2687 4.78291 18.265 4.75935 18.26 4.73455C18.265 4.87962 18.327 4.94534 18.4398 5.02594C18.5712 5.11893 18.7188 5.16977 18.8453 5.2702C19.0337 5.42023 19.1726 5.62234 19.3053 5.82196C19.5086 6.12574 19.6562 6.46176 19.8273 6.78414C20.0257 7.1586 20.1993 7.56033 20.3369 7.96206C20.5427 8.56094 20.6183 9.1933 20.7213 9.8145C20.7895 10.2249 20.8502 10.6167 20.8663 11.0309C20.8787 11.3458 20.844 11.6682 20.8143 11.9806C20.7944 12.1803 20.844 12.3675 21.0895 12.3377C21.3437 12.3055 21.5979 12.2782 21.8533 12.2609C22.074 12.2472 22.26 12.3402 22.4373 12.4555C22.5452 12.5262 22.8167 12.6477 22.9531 12.6105C22.9531 12.5051 22.9209 12.3997 22.9035 12.2956C22.849 11.9682 22.7969 11.6409 22.7299 11.316C22.596 10.6539 22.472 9.99677 22.3617 9.33217C22.2898 8.89076 22.2476 8.42455 22.1348 7.99182C22.0021 7.48221 21.619 7.06808 21.3611 6.62419C21.1515 6.26337 20.9296 5.92364 20.7051 5.57274C20.4919 5.24044 20.3728 4.86723 20.1273 4.54981C19.9141 4.27206 19.6661 4.01416 19.4392 3.7451C19.3809 3.6769 19.335 3.59631 19.2507 3.55911C19.1825 3.52935 19.1044 3.54051 19.0337 3.51447C19.0846 3.50084 19.1342 3.51075 19.1763 3.54423C19.1242 3.49588 19.0709 3.6831 18.9978 3.67318C18.9011 3.65955 18.7696 3.72278 18.7014 3.77982C18.4745 3.9658 18.2389 4.29686 18.229 4.60436C18.2166 4.60932 18.2848 4.80275 18.2724 4.80771Z"/>
  <path d="M20.265 15.9136C20.167 16.0488 20.0976 16.174 20.0269 16.3203C19.8893 16.6092 19.7045 16.8845 19.5532 17.166C19.3983 17.4511 19.2408 17.7326 19.0945 18.0227C18.9333 18.3414 18.7374 18.6328 18.5291 18.918C18.4646 19.006 18.4224 19.1077 18.3344 19.1759C18.2538 19.2391 18.1546 19.2713 18.0715 19.342C17.9786 19.4214 17.8744 19.4871 17.7814 19.5664C17.6053 19.7128 17.3822 19.9248 17.1565 19.9942C17.0102 20.0401 16.8242 20.0426 16.6742 20.0674C16.5378 20.0909 16.384 20.1393 16.2464 20.1442C16.0864 20.1492 15.8806 20.0884 15.7256 20.0562C15.6277 20.0351 15.5372 20.0029 15.4528 19.9508C15.4156 19.9285 15.366 19.9235 15.3363 19.8888C15.2867 19.8293 15.304 19.7723 15.2433 19.7177C15.1987 19.8281 15.2842 19.8677 15.3326 19.9446C15.4206 20.0847 15.4789 20.298 15.5359 20.4555C15.7058 20.9279 15.8124 21.4176 15.8942 21.9099C15.9116 22.0078 15.9091 22.1492 15.9575 22.2397C16.1336 22.2744 16.3319 22.0537 16.4572 21.983C16.7758 21.802 17.1342 21.6979 17.4739 21.5627C17.8409 21.4164 18.353 21.3618 18.6332 21.068C18.8105 20.8832 18.9482 20.6675 19.1317 20.484C19.2395 20.3749 19.3549 20.2757 19.4491 20.1529C19.7665 19.7413 20.0889 19.3395 20.4175 18.9366C20.5749 18.7419 20.7337 18.5547 20.8403 18.3253C20.911 18.1728 20.9469 17.9731 21.0412 17.8343C21.0845 17.7698 21.1589 17.7314 21.2048 17.6718C21.2643 17.5937 21.2805 17.4747 21.3201 17.3854C21.371 17.2726 21.4255 17.1846 21.5012 17.094C21.6239 16.9465 21.6834 16.7208 21.6847 16.5398C21.6847 16.4728 21.7206 16.3675 21.7008 16.3055C21.6661 16.2001 21.6078 16.2546 21.5148 16.2645C21.1999 16.3017 20.9035 16.148 20.6345 16.0054C20.4237 15.8938 20.2885 15.6929 20.0343 15.6892C20.0294 15.6768 20.0244 15.6632 20.265 15.9136Z"/>
  <path d="M3.74303 18.4418C3.78519 18.4741 3.8261 18.5088 3.86578 18.5447C4.13112 18.7853 4.36175 19.068 4.63205 19.3011C4.73496 19.3904 4.85524 19.4598 4.95691 19.5528C5.03626 19.6247 5.0933 19.776 5.18382 19.8243C5.26689 19.8677 5.3636 19.8119 5.45164 19.8218C5.55951 19.8342 5.62771 19.8925 5.7207 19.9533C6.0282 20.1541 6.3419 20.3451 6.6618 20.5249C7.00154 20.7171 7.36979 20.8473 7.71201 21.0332C7.95131 21.1634 8.1497 21.3234 8.42124 21.3841C8.82298 21.4734 9.24951 21.59 9.6624 21.5478C9.92898 21.5205 10.1968 21.4263 10.4646 21.4883C10.8254 21.5714 11.0114 21.8392 11.2309 22.1033C11.4851 22.4108 11.8298 22.2347 11.8558 21.8665C11.8757 21.5664 11.8273 21.2292 11.9178 20.9365C11.9662 20.7803 12.0654 20.6377 12.1001 20.474C12.1323 20.3253 12.1311 20.1616 12.1559 20.0116C12.1869 19.807 12.146 19.5205 12.2563 19.3408C12.1236 19.4685 12.0753 19.5416 11.9897 19.6979C11.7963 20.0525 11.2024 20.045 10.8527 20.0636C10.2216 20.0983 9.57189 20.0351 8.94697 19.9694C8.75106 19.9496 8.56259 19.9 8.37041 19.8615C8.21418 19.8305 8.05175 19.8454 7.898 19.8156C7.7678 19.7908 7.67481 19.6991 7.56198 19.6371C7.46155 19.5813 7.36359 19.5478 7.25324 19.5168C6.9755 19.4375 6.82051 19.3085 6.58368 19.1448C6.25758 18.9192 5.94017 18.7282 5.6525 18.4468C5.44792 18.2471 5.23713 18.0748 4.99907 17.9173C4.75728 17.7599 4.49318 17.5888 4.31339 17.3606C4.21172 17.2317 4.16708 17.1151 4.1212 16.9638C4.08153 16.8398 4.02449 16.8051 3.8819 16.8026C3.67731 16.8002 3.6178 17.0221 3.48265 17.1647C3.34378 17.3122 3.19871 17.435 3.07843 17.6036C3.02884 17.6731 3.01148 17.7524 2.91972 17.7723C2.9656 17.8826 3.12059 17.9719 3.20738 18.0463C3.37725 18.1938 3.56696 18.3054 3.74303 18.4418Z"/>
</svg>
