<svg width="26" height="24" viewBox="0 0 26 24" fill="#000000" xmlns="http://www.w3.org/2000/svg">
  <path d="M1.65366 0.471305C1.68513 0.483623 1.71388 0.490466 1.74399 0.495941C1.74125 0.489097 1.73851 0.482254 1.73714 0.475411C1.71251 0.474042 1.68513 0.471305 1.65366 0.471305Z"/>
  <path d="M1.65366 0.471305C1.68513 0.483623 1.71388 0.490466 1.74399 0.495941C1.74125 0.489097 1.73851 0.482254 1.73714 0.475411C1.71251 0.474042 1.68513 0.471305 1.65366 0.471305Z"/>
  <path d="M1.51265 0.708092C1.50443 0.695774 1.49622 0.684825 1.48664 0.672508C1.47569 0.66019 1.43327 0.643766 1.4141 0.623237C1.37305 0.582178 1.3662 0.497324 1.31146 0.463108C1.19376 0.387834 0.909082 0.530171 0.958353 0.286556C0.946035 0.408363 0.676416 0.281081 0.597036 0.286556C0.498495 0.294768 0.456067 0.354986 0.438275 0.430261C0.384899 0.675245 0.512181 0.925703 0.549134 1.16248C0.568294 1.28428 0.558714 1.40335 0.59293 1.52379C0.654518 1.73867 0.725686 1.95354 0.783169 2.16841C0.90087 2.60637 0.976145 3.04844 1.11164 3.48366C1.32104 4.15976 1.58381 4.8126 1.87944 5.45996C2.04915 5.83222 2.1819 6.21407 2.33382 6.59318C2.45015 6.8847 2.60344 7.14884 2.75946 7.42257C2.91959 7.7004 3.03045 7.98781 3.1591 8.27933C3.31649 8.63791 3.50536 8.98006 3.68876 9.32633C3.95154 9.8204 4.16778 10.3323 4.41276 10.8346C4.61121 11.2397 4.83977 11.6065 5.08886 11.9856C5.7677 13.0175 6.47939 14.0399 7.10211 15.1019C7.4169 15.6398 7.69199 16.1941 7.99856 16.7347C8.31882 17.2999 8.67877 17.846 9.03051 18.3948C9.17695 18.622 9.34529 18.8492 9.46573 19.0928C9.48763 19.138 9.49994 19.1804 9.50816 19.2297C9.5369 19.3898 9.54648 19.5541 9.59438 19.7115C9.64912 19.8921 9.7025 20.0372 9.70524 20.2261C9.70524 20.3273 9.68608 20.4341 9.70934 20.5326C9.73124 20.6216 9.7942 20.7023 9.83389 20.7845C9.97349 21.0719 10.1008 21.3155 10.3061 21.5673C10.4881 21.7904 10.6099 22.0559 10.8097 22.268C10.8946 22.3584 11.0752 22.5445 11.2313 22.4952C11.312 22.4692 11.2956 22.4638 11.3161 22.3789C11.3312 22.3187 11.3667 22.2256 11.3845 22.1599C11.4434 21.9478 11.4475 21.6877 11.416 21.4715C11.375 21.1814 11.3476 20.8871 11.2792 20.6011C11.2107 20.3191 11.0698 20.0632 10.9931 19.7826C10.9452 19.6061 10.9425 19.4268 10.9219 19.2461C10.8973 19.0217 10.8097 18.8205 10.6989 18.6261C10.5031 18.2867 10.2609 17.9747 10.0898 17.6216C9.90643 17.2438 9.64228 16.9126 9.45067 16.539C9.36308 16.3665 9.29191 16.1859 9.19474 16.0175C9.10031 15.8547 8.98808 15.7014 8.89501 15.5371C8.79647 15.362 8.68424 15.195 8.58844 15.0198C8.43242 14.7338 8.26134 14.4313 8.16964 14.122C8.12995 13.9865 8.06836 13.8442 7.95613 13.7484C7.83706 13.6471 7.72073 13.5677 7.64272 13.4336C7.59756 13.3569 7.54692 13.2844 7.49765 13.2105C7.14317 12.674 6.98852 12.028 6.56698 11.5257C6.4657 11.4053 6.33021 11.3108 6.24946 11.1753C6.17555 11.0494 6.14271 10.8989 6.08933 10.7634C5.98668 10.4979 5.82518 10.2666 5.6938 10.0147C5.59389 9.82177 5.50766 9.62879 5.37354 9.45361C5.19835 9.22368 5.08886 8.98691 4.98759 8.72003C4.8603 8.38745 4.69333 8.07403 4.53183 7.75514C4.39223 7.48142 4.24716 7.20769 4.12946 6.92713C4.09387 6.8409 4.05692 6.75331 4.0446 6.66161C4.03913 6.62329 4.04734 6.57949 4.03776 6.54254C4.01723 6.46316 3.95154 6.37694 3.91321 6.30303C3.86121 6.20312 3.8092 6.10184 3.75719 6.00194C3.3644 5.24372 2.82926 4.55667 2.47205 3.78202C2.42141 3.67253 2.36256 3.56578 2.32424 3.45219C2.27634 3.31669 2.29003 3.2031 2.27771 3.06623C2.26402 2.92253 2.20654 2.77608 2.15864 2.63922C2.12716 2.55026 2.09157 2.46541 2.04641 2.38466C1.97798 2.26285 1.89039 2.15336 1.84522 2.0206C1.72205 1.65929 1.84796 1.22543 1.61803 0.901068C1.57287 0.835374 1.55234 0.768311 1.51265 0.708092Z"/>
  <path d="M1.51265 0.708092C1.50443 0.695774 1.49622 0.684825 1.48664 0.672508C1.47569 0.66019 1.43327 0.643766 1.4141 0.623237C1.37305 0.582178 1.3662 0.497324 1.31146 0.463108C1.19376 0.387834 0.909082 0.530171 0.958353 0.286556C0.946035 0.408363 0.676416 0.281081 0.597036 0.286556C0.498495 0.294768 0.456067 0.354986 0.438275 0.430261C0.384899 0.675245 0.512181 0.925703 0.549134 1.16248C0.568294 1.28428 0.558714 1.40335 0.59293 1.52379C0.654518 1.73867 0.725686 1.95354 0.783169 2.16841C0.90087 2.60637 0.976145 3.04844 1.11164 3.48366C1.32104 4.15976 1.58381 4.8126 1.87944 5.45996C2.04915 5.83222 2.1819 6.21407 2.33382 6.59318C2.45015 6.8847 2.60344 7.14884 2.75946 7.42257C2.91959 7.7004 3.03045 7.98781 3.1591 8.27933C3.31649 8.63791 3.50536 8.98006 3.68876 9.32633C3.95154 9.8204 4.16778 10.3323 4.41276 10.8346C4.61121 11.2397 4.83977 11.6065 5.08886 11.9856C5.7677 13.0175 6.47939 14.0399 7.10211 15.1019C7.4169 15.6398 7.69199 16.1941 7.99856 16.7347C8.31882 17.2999 8.67877 17.846 9.03051 18.3948C9.17695 18.622 9.34529 18.8492 9.46573 19.0928C9.48763 19.138 9.49994 19.1804 9.50816 19.2297C9.5369 19.3898 9.54648 19.5541 9.59438 19.7115C9.64912 19.8921 9.7025 20.0372 9.70524 20.2261C9.70524 20.3273 9.68608 20.4341 9.70934 20.5326C9.73124 20.6216 9.7942 20.7023 9.83389 20.7845C9.97349 21.0719 10.1008 21.3155 10.3061 21.5673C10.4881 21.7904 10.6099 22.0559 10.8097 22.268C10.8946 22.3584 11.0752 22.5445 11.2313 22.4952C11.312 22.4692 11.2956 22.4638 11.3161 22.3789C11.3312 22.3187 11.3667 22.2256 11.3845 22.1599C11.4434 21.9478 11.4475 21.6877 11.416 21.4715C11.375 21.1814 11.3476 20.8871 11.2792 20.6011C11.2107 20.3191 11.0698 20.0632 10.9931 19.7826C10.9452 19.6061 10.9425 19.4268 10.9219 19.2461C10.8973 19.0217 10.8097 18.8205 10.6989 18.6261C10.5031 18.2867 10.2609 17.9747 10.0898 17.6216C9.90643 17.2438 9.64228 16.9126 9.45067 16.539C9.36308 16.3665 9.29191 16.1859 9.19474 16.0175C9.10031 15.8547 8.98808 15.7014 8.89501 15.5371C8.79647 15.362 8.68424 15.195 8.58844 15.0198C8.43242 14.7338 8.26134 14.4313 8.16964 14.122C8.12995 13.9865 8.06836 13.8442 7.95613 13.7484C7.83706 13.6471 7.72073 13.5677 7.64272 13.4336C7.59756 13.3569 7.54692 13.2844 7.49765 13.2105C7.14317 12.674 6.98852 12.028 6.56698 11.5257C6.4657 11.4053 6.33021 11.3108 6.24946 11.1753C6.17555 11.0494 6.14271 10.8989 6.08933 10.7634C5.98668 10.4979 5.82518 10.2666 5.6938 10.0147C5.59389 9.82177 5.50766 9.62879 5.37354 9.45361C5.19835 9.22368 5.08886 8.98691 4.98759 8.72003C4.8603 8.38745 4.69333 8.07403 4.53183 7.75514C4.39223 7.48142 4.24716 7.20769 4.12946 6.92713C4.09387 6.8409 4.05692 6.75331 4.0446 6.66161C4.03913 6.62329 4.04734 6.57949 4.03776 6.54254C4.01723 6.46316 3.95154 6.37694 3.91321 6.30303C3.86121 6.20312 3.8092 6.10184 3.75719 6.00194C3.3644 5.24372 2.82926 4.55667 2.47205 3.78202C2.42141 3.67253 2.36256 3.56578 2.32424 3.45219C2.27634 3.31669 2.29003 3.2031 2.27771 3.06623C2.26402 2.92253 2.20654 2.77608 2.15864 2.63922C2.12716 2.55026 2.09157 2.46541 2.04641 2.38466C1.97798 2.26285 1.89039 2.15336 1.84522 2.0206C1.72205 1.65929 1.84796 1.22543 1.61803 0.901068C1.57287 0.835374 1.55234 0.768311 1.51265 0.708092Z"/>
  <path d="M25.6593 2.03565C25.5526 2.03428 25.5184 1.96858 25.4349 1.92068C25.3049 1.84815 25.1543 1.87689 25.0325 1.77971C24.897 1.67022 24.7437 1.55389 24.5603 1.57442C24.5028 1.58126 24.4522 1.61137 24.3934 1.61411C24.1634 1.62096 23.913 1.47588 23.6858 1.43345C23.1849 1.33902 22.6689 1.35544 22.1598 1.34039C21.2784 1.31438 20.4079 1.21721 19.532 1.13235C18.3755 1.0215 17.2231 1.02697 16.0612 1.01328C14.7336 0.995492 13.4101 0.898321 12.0867 0.825783C11.1519 0.773776 10.2158 0.739558 9.2851 0.639648C8.40918 0.546582 7.54968 0.398771 6.66555 0.390559C6.00997 0.385085 5.34209 0.435723 4.68925 0.378241C4.59345 0.370029 4.50722 0.354976 4.41826 0.318023C4.13769 0.20169 3.98441 0.051141 3.66826 0.146945C3.61899 0.190741 3.56014 0.21127 3.49444 0.209901C3.44654 0.198952 3.39864 0.201688 3.35074 0.216743C3.26451 0.24001 3.17008 0.31118 3.08385 0.34129C2.97163 0.38098 2.89088 0.368661 2.77454 0.380979C2.6979 0.389191 2.65821 0.383716 2.59799 0.438461C2.57336 0.474045 2.55009 0.510997 2.52819 0.549319C2.49671 0.554793 2.46524 0.561638 2.43376 0.56985C2.36533 0.727242 2.80192 0.742297 2.89498 0.787462C3.13586 0.903795 3.32199 1.1214 3.58751 1.18573C3.70521 1.21447 3.81881 1.20216 3.9283 1.25827C4.07611 1.33217 4.20065 1.38281 4.36489 1.42113C4.97256 1.56758 5.61307 1.49367 6.23169 1.4882C6.79009 1.48409 7.31017 1.61411 7.85351 1.71128C8.15461 1.76466 8.45845 1.73592 8.76228 1.74276C9.10307 1.74961 9.44386 1.77698 9.78328 1.80024C10.1254 1.82488 10.4676 1.81804 10.8111 1.81667C11.0931 1.81667 11.3832 1.79751 11.6624 1.8372C11.8937 1.87004 12.1182 1.93848 12.3522 1.95764C12.5917 1.9768 12.8339 1.96037 13.0735 1.97953C13.4717 2.01101 13.8714 2.0466 14.2696 2.06576C14.7473 2.08902 15.2277 2.07123 15.7067 2.0726C16.2336 2.0726 16.7592 2.0726 17.2861 2.06986C17.7952 2.06849 18.2879 2.10545 18.7943 2.14651C19.636 2.21494 20.4859 2.14103 21.3208 2.28884C21.3892 2.29979 21.4905 2.34632 21.5589 2.33264C21.5931 2.3258 21.5754 2.29158 21.6178 2.29432C21.6698 2.29842 21.7054 2.37917 21.7396 2.40791C21.8929 2.5352 22.0954 2.52288 22.2857 2.55025C22.4677 2.57625 22.5991 2.64879 22.762 2.72133C22.8194 2.74733 22.8783 2.76376 22.9371 2.77744C23.1014 2.8144 23.2807 2.88419 23.4463 2.82671C23.5037 2.80618 23.5571 2.76649 23.6228 2.78429C23.7063 2.80618 23.7816 2.91978 23.8295 2.98137C23.8952 3.06622 23.9362 3.15792 23.9335 3.2633C23.9294 3.40701 23.8938 3.52745 23.7474 3.59725C23.6256 3.65473 23.4887 3.68347 23.3587 3.72179C23.0918 3.80117 22.8673 4.02152 22.6839 4.20902C22.5416 4.3541 22.454 4.52381 22.3459 4.69078C22.2268 4.87418 22.079 5.03841 21.9599 5.22044C21.8559 5.38057 21.7793 5.54617 21.6944 5.71588C21.5836 5.93897 21.444 6.14563 21.3386 6.37008C21.2729 6.50832 21.2127 6.64381 21.1128 6.76288C21.017 6.87648 20.9595 7.02292 20.8869 7.15157C20.7008 7.48825 20.5147 7.82493 20.3313 8.16298C19.8276 9.08544 19.2501 9.97094 18.7231 10.8811C18.5425 11.1931 18.3386 11.4942 18.162 11.8076C18.0005 12.0923 17.876 12.3879 17.7432 12.6849C17.5146 13.2023 17.2204 13.6868 16.948 14.1849C16.5977 14.8227 16.2103 15.4413 15.849 16.0736C15.5753 16.554 15.2715 17.0139 15.099 17.5381C14.8335 18.351 14.271 19.0559 13.8358 19.7963C13.7112 20.0071 13.5716 20.2096 13.4649 20.43C13.4088 20.5463 13.3814 20.7174 13.2842 20.8105C13.2349 20.8556 13.1679 20.8556 13.1159 20.8926C13.0406 20.9459 13.0269 21.0486 12.9941 21.1293C12.9558 21.2224 12.9092 21.31 12.8531 21.3935C12.7505 21.5481 12.6766 21.7151 12.5972 21.8821C12.5123 22.06 12.4124 22.2311 12.3604 22.4227C12.3248 22.5513 12.2933 22.6745 12.2454 22.8004C12.2208 22.8675 12.1866 22.9359 12.1729 23.0057C12.1565 23.0933 12.1729 23.1836 12.1633 23.2712C12.1524 23.3835 12.125 23.4875 12.1277 23.6011C12.1291 23.6887 12.1346 23.6941 12.1975 23.7503C12.2728 23.8187 12.3453 23.8296 12.4398 23.8693C12.5438 23.9118 12.578 23.8598 12.6588 23.7995C12.7737 23.7147 12.8846 23.6504 12.9872 23.5477C13.0762 23.4587 13.1939 23.3835 13.261 23.2767C13.3061 23.2042 13.3403 23.1193 13.4006 23.0564C13.4375 23.0194 13.4854 23.0139 13.5196 22.9866C13.5853 22.9346 13.6277 22.862 13.6907 22.8073C13.7468 22.758 13.8235 22.7416 13.8467 22.6649C13.8673 22.5979 13.859 22.5212 13.8823 22.4487C13.9165 22.3392 13.9329 22.2242 13.9726 22.1161C14.0356 21.9478 14.1684 21.7918 14.2724 21.6439C14.3832 21.4852 14.516 21.3292 14.6008 21.1567C14.6693 21.0185 14.724 20.8734 14.8089 20.742C14.917 20.575 15.0566 20.4286 15.1414 20.2479C15.1811 20.1645 15.2345 20.081 15.2715 19.9975C15.3112 19.9058 15.3207 19.8004 15.3467 19.7046C15.396 19.5226 15.433 19.3337 15.5 19.1572C15.5876 18.9272 15.6793 18.7206 15.7108 18.4783C15.7245 18.3716 15.7368 18.3415 15.7943 18.2402C15.875 18.1019 15.9407 17.9473 15.9996 17.7995C16.1364 17.456 16.3445 17.1521 16.5347 16.8305C16.8221 16.3474 17.2012 15.9162 17.4736 15.4249C17.7692 14.8925 18.1771 14.4477 18.5438 13.9591C18.7136 13.7306 18.8737 13.4924 19.0393 13.2611C19.1693 13.0805 19.2829 12.8861 19.3527 12.6781C19.4595 12.3606 19.6374 12.0964 19.818 11.8117C19.9522 11.5982 20.0959 11.4012 20.2478 11.1972C20.4435 10.9358 20.5886 10.6594 20.7227 10.3678C20.9348 9.90798 21.1867 9.46455 21.355 8.991C21.4659 8.68169 21.6479 8.39839 21.8094 8.11098C21.8847 7.96453 21.9681 7.82083 22.0612 7.68396C22.1502 7.57447 22.2405 7.46498 22.3295 7.35549C22.7674 6.78067 23.1794 6.18806 23.5571 5.57765C23.7036 5.34088 23.8582 5.07536 24.0663 4.87965C24.1278 4.82217 24.2045 4.78248 24.2647 4.72637C24.3044 4.68941 24.3345 4.64562 24.3632 4.60182C24.533 4.3322 24.6767 4.04342 24.819 3.76148C24.9134 3.57535 25.0831 3.36048 25.1201 3.15518C25.1434 3.02243 25.0585 2.90609 25.0749 2.77607C25.1174 2.46676 25.6922 2.35864 25.6593 2.03565Z"/>
  <path d="M25.6593 2.03565C25.5526 2.03428 25.5184 1.96858 25.4349 1.92068C25.3049 1.84815 25.1543 1.87689 25.0325 1.77971C24.897 1.67022 24.7437 1.55389 24.5603 1.57442C24.5028 1.58126 24.4522 1.61137 24.3934 1.61411C24.1634 1.62096 23.913 1.47588 23.6858 1.43345C23.1849 1.33902 22.6689 1.35544 22.1598 1.34039C21.2784 1.31438 20.4079 1.21721 19.532 1.13235C18.3755 1.0215 17.2231 1.02697 16.0612 1.01328C14.7336 0.995492 13.4101 0.898321 12.0867 0.825783C11.1519 0.773776 10.2158 0.739558 9.2851 0.639648C8.40918 0.546582 7.54968 0.398771 6.66555 0.390559C6.00997 0.385085 5.34209 0.435723 4.68925 0.378241C4.59345 0.370029 4.50722 0.354976 4.41826 0.318023C4.13769 0.20169 3.98441 0.051141 3.66826 0.146945C3.61899 0.190741 3.56014 0.21127 3.49444 0.209901C3.44654 0.198952 3.39864 0.201688 3.35074 0.216743C3.26451 0.24001 3.17008 0.31118 3.08385 0.34129C2.97163 0.38098 2.89088 0.368661 2.77454 0.380979C2.6979 0.389191 2.65821 0.383716 2.59799 0.438461C2.57336 0.474045 2.55009 0.510997 2.52819 0.549319C2.49671 0.554793 2.46524 0.561638 2.43376 0.56985C2.36533 0.727242 2.80192 0.742297 2.89498 0.787462C3.13586 0.903795 3.32199 1.1214 3.58751 1.18573C3.70521 1.21447 3.81881 1.20216 3.9283 1.25827C4.07611 1.33217 4.20065 1.38281 4.36489 1.42113C4.97256 1.56758 5.61307 1.49367 6.23169 1.4882C6.79009 1.48409 7.31017 1.61411 7.85351 1.71128C8.15461 1.76466 8.45845 1.73592 8.76228 1.74276C9.10307 1.74961 9.44386 1.77698 9.78328 1.80024C10.1254 1.82488 10.4676 1.81804 10.8111 1.81667C11.0931 1.81667 11.3832 1.79751 11.6624 1.8372C11.8937 1.87004 12.1182 1.93848 12.3522 1.95764C12.5917 1.9768 12.8339 1.96037 13.0735 1.97953C13.4717 2.01101 13.8714 2.0466 14.2696 2.06576C14.7473 2.08902 15.2277 2.07123 15.7067 2.0726C16.2336 2.0726 16.7592 2.0726 17.2861 2.06986C17.7952 2.06849 18.2879 2.10545 18.7943 2.14651C19.636 2.21494 20.4859 2.14103 21.3208 2.28884C21.3892 2.29979 21.4905 2.34632 21.5589 2.33264C21.5931 2.3258 21.5754 2.29158 21.6178 2.29432C21.6698 2.29842 21.7054 2.37917 21.7396 2.40791C21.8929 2.5352 22.0954 2.52288 22.2857 2.55025C22.4677 2.57625 22.5991 2.64879 22.762 2.72133C22.8194 2.74733 22.8783 2.76376 22.9371 2.77744C23.1014 2.8144 23.2807 2.88419 23.4463 2.82671C23.5037 2.80618 23.5571 2.76649 23.6228 2.78429C23.7063 2.80618 23.7816 2.91978 23.8295 2.98137C23.8952 3.06622 23.9362 3.15792 23.9335 3.2633C23.9294 3.40701 23.8938 3.52745 23.7474 3.59725C23.6256 3.65473 23.4887 3.68347 23.3587 3.72179C23.0918 3.80117 22.8673 4.02152 22.6839 4.20902C22.5416 4.3541 22.454 4.52381 22.3459 4.69078C22.2268 4.87418 22.079 5.03841 21.9599 5.22044C21.8559 5.38057 21.7793 5.54617 21.6944 5.71588C21.5836 5.93897 21.444 6.14563 21.3386 6.37008C21.2729 6.50832 21.2127 6.64381 21.1128 6.76288C21.017 6.87648 20.9595 7.02292 20.8869 7.15157C20.7008 7.48825 20.5147 7.82493 20.3313 8.16298C19.8276 9.08544 19.2501 9.97094 18.7231 10.8811C18.5425 11.1931 18.3386 11.4942 18.162 11.8076C18.0005 12.0923 17.876 12.3879 17.7432 12.6849C17.5146 13.2023 17.2204 13.6868 16.948 14.1849C16.5977 14.8227 16.2103 15.4413 15.849 16.0736C15.5753 16.554 15.2715 17.0139 15.099 17.5381C14.8335 18.351 14.271 19.0559 13.8358 19.7963C13.7112 20.0071 13.5716 20.2096 13.4649 20.43C13.4088 20.5463 13.3814 20.7174 13.2842 20.8105C13.2349 20.8556 13.1679 20.8556 13.1159 20.8926C13.0406 20.9459 13.0269 21.0486 12.9941 21.1293C12.9558 21.2224 12.9092 21.31 12.8531 21.3935C12.7505 21.5481 12.6766 21.7151 12.5972 21.8821C12.5123 22.06 12.4124 22.2311 12.3604 22.4227C12.3248 22.5513 12.2933 22.6745 12.2454 22.8004C12.2208 22.8675 12.1866 22.9359 12.1729 23.0057C12.1565 23.0933 12.1729 23.1836 12.1633 23.2712C12.1524 23.3835 12.125 23.4875 12.1277 23.6011C12.1291 23.6887 12.1346 23.6941 12.1975 23.7503C12.2728 23.8187 12.3453 23.8296 12.4398 23.8693C12.5438 23.9118 12.578 23.8598 12.6588 23.7995C12.7737 23.7147 12.8846 23.6504 12.9872 23.5477C13.0762 23.4587 13.1939 23.3835 13.261 23.2767C13.3061 23.2042 13.3403 23.1193 13.4006 23.0564C13.4375 23.0194 13.4854 23.0139 13.5196 22.9866C13.5853 22.9346 13.6277 22.862 13.6907 22.8073C13.7468 22.758 13.8235 22.7416 13.8467 22.6649C13.8673 22.5979 13.859 22.5212 13.8823 22.4487C13.9165 22.3392 13.9329 22.2242 13.9726 22.1161C14.0356 21.9478 14.1684 21.7918 14.2724 21.6439C14.3832 21.4852 14.516 21.3292 14.6008 21.1567C14.6693 21.0185 14.724 20.8734 14.8089 20.742C14.917 20.575 15.0566 20.4286 15.1414 20.2479C15.1811 20.1645 15.2345 20.081 15.2715 19.9975C15.3112 19.9058 15.3207 19.8004 15.3467 19.7046C15.396 19.5226 15.433 19.3337 15.5 19.1572C15.5876 18.9272 15.6793 18.7206 15.7108 18.4783C15.7245 18.3716 15.7368 18.3415 15.7943 18.2402C15.875 18.1019 15.9407 17.9473 15.9996 17.7995C16.1364 17.456 16.3445 17.1521 16.5347 16.8305C16.8221 16.3474 17.2012 15.9162 17.4736 15.4249C17.7692 14.8925 18.1771 14.4477 18.5438 13.9591C18.7136 13.7306 18.8737 13.4924 19.0393 13.2611C19.1693 13.0805 19.2829 12.8861 19.3527 12.6781C19.4595 12.3606 19.6374 12.0964 19.818 11.8117C19.9522 11.5982 20.0959 11.4012 20.2478 11.1972C20.4435 10.9358 20.5886 10.6594 20.7227 10.3678C20.9348 9.90798 21.1867 9.46455 21.355 8.991C21.4659 8.68169 21.6479 8.39839 21.8094 8.11098C21.8847 7.96453 21.9681 7.82083 22.0612 7.68396C22.1502 7.57447 22.2405 7.46498 22.3295 7.35549C22.7674 6.78067 23.1794 6.18806 23.5571 5.57765C23.7036 5.34088 23.8582 5.07536 24.0663 4.87965C24.1278 4.82217 24.2045 4.78248 24.2647 4.72637C24.3044 4.68941 24.3345 4.64562 24.3632 4.60182C24.533 4.3322 24.6767 4.04342 24.819 3.76148C24.9134 3.57535 25.0831 3.36048 25.1201 3.15518C25.1434 3.02243 25.0585 2.90609 25.0749 2.77607C25.1174 2.46676 25.6922 2.35864 25.6593 2.03565Z"/>
  <path d="M0.398629 11.5326C0.420527 11.4012 0.549178 11.2862 0.639507 11.1986C0.811954 11.0316 0.978926 10.8715 1.13906 10.6922C1.36214 10.4404 1.61671 10.2406 1.87811 10.0284C2.34345 9.64933 2.83752 9.33591 3.34117 9.00881C3.46982 8.92533 3.59711 8.83773 3.72302 8.75014C3.77229 8.71456 3.84483 8.68171 3.88041 8.63244C3.88999 8.61875 3.88178 8.5818 3.88999 8.57496C3.90915 8.55717 3.93653 8.56401 3.96116 8.55443C4.18698 8.4641 4.33753 8.29986 4.53872 8.17121C4.78781 8.01245 5.02048 7.83864 5.30241 7.73599C5.69521 7.59502 6.10169 7.50059 6.49175 7.35825C6.92424 7.19949 7.40325 7.05715 7.86448 6.99967C8.10399 6.96956 8.34624 7.00104 8.58301 7.03389C8.7883 7.06126 8.95801 7.06126 9.16468 7.04347C9.42198 7.0202 9.6916 7.01609 9.95027 7.03662C10.2623 7.05989 10.5703 7.18854 10.87 7.27066C11.0123 7.31035 11.1519 7.35004 11.2956 7.38289C11.6556 7.46637 12.0142 7.61829 12.3426 7.78526C12.4507 7.83864 12.5356 7.91528 12.6314 7.98645C12.9393 8.21638 13.3349 8.3245 13.6729 8.50379C14.0685 8.71456 14.4859 8.92396 14.8595 9.16757C14.9266 9.21137 14.9841 9.26064 15.0361 9.3236C15.1387 9.44951 15.2249 9.53436 15.3687 9.62196C15.7026 9.82178 15.9052 10.1475 16.1597 10.4267C16.2432 10.5184 16.3472 10.6046 16.4567 10.6662C16.5361 10.71 16.6278 10.7278 16.7058 10.773C16.7811 10.8168 16.8386 10.8784 16.9097 10.9276C16.9604 10.9632 17.0343 10.9892 17.0685 11.044C17.2642 11.3519 16.5881 11.5709 16.3719 11.4806C16.2213 11.4176 16.1282 11.2712 16.0105 11.1671C15.8915 11.0604 15.7327 11.0138 15.5822 10.9618C15.4234 10.9071 15.2852 10.825 15.1387 10.7456C14.9375 10.6375 14.7295 10.543 14.5256 10.439C14.256 10.3035 13.9946 10.1571 13.7208 10.0312C13.261 9.82041 12.8326 9.54258 12.3714 9.34002C11.8841 9.12651 11.349 9.04713 10.8659 8.82815C10.5388 8.67897 10.2609 8.44494 9.91605 8.33134C9.34533 8.14521 8.74998 8.2068 8.1601 8.2068C8.0205 8.2068 7.87543 8.19722 7.73446 8.20269C7.48127 8.21227 7.23354 8.32587 6.99404 8.3943C6.84622 8.4381 6.69568 8.47231 6.54923 8.51611C6.29467 8.59138 6.09348 8.75288 5.85808 8.86511C5.43928 9.06356 4.93289 9.18537 4.5702 9.48509C4.43334 9.59732 4.32385 9.71639 4.17467 9.81493C4.11855 9.85189 4.06518 9.89705 4.01591 9.94085C3.70112 10.2187 3.40276 10.5129 3.12083 10.8209C3.00039 10.9509 2.88132 11.0754 2.79236 11.2274C2.76088 11.2807 2.7294 11.3259 2.68423 11.3697C2.42693 11.6119 2.10941 11.8159 1.82611 12.028C1.60165 12.1963 1.38267 12.4208 1.08431 12.4345C0.892703 12.4441 0.665511 12.3181 0.521805 12.1977C0.409578 12.1046 0.283665 12.0266 0.213865 11.9007C0.153645 11.7926 0.116692 11.7132 0.118061 11.5914C0.118061 11.4942 0.100269 11.2493 0.398629 11.5326Z"/>
  <path d="M0.398629 11.5326C0.420527 11.4012 0.549178 11.2862 0.639507 11.1986C0.811954 11.0316 0.978926 10.8715 1.13906 10.6922C1.36214 10.4404 1.61671 10.2406 1.87811 10.0284C2.34345 9.64933 2.83752 9.33591 3.34117 9.00881C3.46982 8.92533 3.59711 8.83773 3.72302 8.75014C3.77229 8.71456 3.84483 8.68171 3.88041 8.63244C3.88999 8.61875 3.88178 8.5818 3.88999 8.57496C3.90915 8.55717 3.93653 8.56401 3.96116 8.55443C4.18698 8.4641 4.33753 8.29986 4.53872 8.17121C4.78781 8.01245 5.02048 7.83864 5.30241 7.73599C5.69521 7.59502 6.10169 7.50059 6.49175 7.35825C6.92424 7.19949 7.40325 7.05715 7.86448 6.99967C8.10399 6.96956 8.34624 7.00104 8.58301 7.03389C8.7883 7.06126 8.95801 7.06126 9.16468 7.04347C9.42198 7.0202 9.6916 7.01609 9.95027 7.03662C10.2623 7.05989 10.5703 7.18854 10.87 7.27066C11.0123 7.31035 11.1519 7.35004 11.2956 7.38289C11.6556 7.46637 12.0142 7.61829 12.3426 7.78526C12.4507 7.83864 12.5356 7.91528 12.6314 7.98645C12.9393 8.21638 13.3349 8.3245 13.6729 8.50379C14.0685 8.71456 14.4859 8.92396 14.8595 9.16757C14.9266 9.21137 14.9841 9.26064 15.0361 9.3236C15.1387 9.44951 15.2249 9.53436 15.3687 9.62196C15.7026 9.82178 15.9052 10.1475 16.1597 10.4267C16.2432 10.5184 16.3472 10.6046 16.4567 10.6662C16.5361 10.71 16.6278 10.7278 16.7058 10.773C16.7811 10.8168 16.8386 10.8784 16.9097 10.9276C16.9604 10.9632 17.0343 10.9892 17.0685 11.044C17.2642 11.3519 16.5881 11.5709 16.3719 11.4806C16.2213 11.4176 16.1282 11.2712 16.0105 11.1671C15.8915 11.0604 15.7327 11.0138 15.5822 10.9618C15.4234 10.9071 15.2852 10.825 15.1387 10.7456C14.9375 10.6375 14.7295 10.543 14.5256 10.439C14.256 10.3035 13.9946 10.1571 13.7208 10.0312C13.261 9.82041 12.8326 9.54258 12.3714 9.34002C11.8841 9.12651 11.349 9.04713 10.8659 8.82815C10.5388 8.67897 10.2609 8.44494 9.91605 8.33134C9.34533 8.14521 8.74998 8.2068 8.1601 8.2068C8.0205 8.2068 7.87543 8.19722 7.73446 8.20269C7.48127 8.21227 7.23354 8.32587 6.99404 8.3943C6.84622 8.4381 6.69568 8.47231 6.54923 8.51611C6.29467 8.59138 6.09348 8.75288 5.85808 8.86511C5.43928 9.06356 4.93289 9.18537 4.5702 9.48509C4.43334 9.59732 4.32385 9.71639 4.17467 9.81493C4.11855 9.85189 4.06518 9.89705 4.01591 9.94085C3.70112 10.2187 3.40276 10.5129 3.12083 10.8209C3.00039 10.9509 2.88132 11.0754 2.79236 11.2274C2.76088 11.2807 2.7294 11.3259 2.68423 11.3697C2.42693 11.6119 2.10941 11.8159 1.82611 12.028C1.60165 12.1963 1.38267 12.4208 1.08431 12.4345C0.892703 12.4441 0.665511 12.3181 0.521805 12.1977C0.409578 12.1046 0.283665 12.0266 0.213865 11.9007C0.153645 11.7926 0.116692 11.7132 0.118061 11.5914C0.118061 11.4942 0.100269 11.2493 0.398629 11.5326Z"/>
  <path d="M10.2116 10.7114C10.3129 10.6908 10.3937 10.736 10.4854 10.7743C10.7345 10.8797 10.9863 10.9783 11.2354 11.0864C12.0798 11.4504 12.9133 11.8473 13.7523 12.2251C13.8932 12.2908 14.0328 12.3551 14.1738 12.4208C14.4599 12.5713 14.7473 12.7191 15.0374 12.8629C15.4398 13.0161 15.8422 12.9915 16.2651 12.9847C16.6059 12.9792 16.9508 12.9751 17.2915 12.9504C17.8773 12.9053 18.4316 12.7137 18.9941 12.5535C19.4882 12.4126 19.9877 12.2812 20.4709 12.1074C20.7596 12.0034 21.0443 11.8857 21.3331 11.7803C21.8929 11.5763 22.4732 11.445 23.0083 11.1808C23.3258 11.0234 23.6529 10.8647 23.9882 10.7497C24.2907 10.6457 24.5316 10.3542 24.7396 10.1215C24.8149 10.0366 24.8984 9.94631 24.9791 9.86693C25.0079 9.83819 24.9983 9.82314 25.038 9.80808C25.1324 9.77523 25.2173 9.8245 25.2829 9.87788C25.3213 9.90799 25.3678 9.94084 25.402 9.97505C25.4705 10.0407 25.4923 10.1242 25.5471 10.1968C25.6224 10.2953 25.7661 10.3501 25.8167 10.4746C25.8838 10.6388 25.7934 10.8907 25.71 11.0289C25.6319 11.1562 25.4855 11.2246 25.3705 11.3095C25.2241 11.4176 25.0886 11.5298 24.9558 11.6544C24.8094 11.7912 24.6725 11.9267 24.5015 12.0321C24.2797 12.1717 24.0293 12.2579 23.7925 12.366C23.2861 12.5987 22.7811 12.8204 22.2569 13.012C21.9722 13.1174 21.6876 13.2132 21.4084 13.3364C21.121 13.4623 20.8431 13.6088 20.5557 13.7333C20.1547 13.9071 19.7222 13.9755 19.3157 14.1343C18.9229 14.2862 18.5548 14.4204 18.1346 14.4696C17.8171 14.5066 17.4927 14.5203 17.1725 14.5381C16.8029 14.5599 16.4334 14.5517 16.0721 14.4587C15.7751 14.3834 15.4918 14.3013 15.2044 14.1945C15.0196 14.1247 14.8308 14.0741 14.6433 14.0111C14.4475 13.9454 14.2696 13.8483 14.078 13.7703C13.8344 13.6731 13.6332 13.5225 13.4074 13.3884C13.1747 13.2502 12.9366 13.1571 12.7272 12.9833C12.5985 12.8765 12.4795 12.7452 12.3262 12.6712C12.1838 12.6042 12.0182 12.5727 11.8704 12.5207C11.6651 12.4495 11.4776 12.34 11.2696 12.2757C11.0356 12.2018 10.7988 12.1484 10.5634 12.0827C10.3348 12.0184 10.1377 11.8487 9.9037 11.8131C9.78053 11.794 9.66419 11.7734 9.54239 11.7474C9.39731 11.7173 9.25087 11.7283 9.10306 11.7283H8.79512C8.71026 11.7283 8.52687 11.7652 8.44885 11.731C8.40643 11.7132 8.42422 11.7269 8.40916 11.6927C8.4119 11.6639 8.41327 11.6352 8.41464 11.6051C8.40916 11.5544 8.39822 11.5038 8.38179 11.4545C8.36126 11.3505 8.37358 11.2397 8.37221 11.1329C8.37221 11.0905 8.36126 11.0262 8.37084 10.9837C8.39137 10.8838 8.52276 10.7853 8.59393 10.7278C8.7609 10.5923 8.97441 10.5512 9.18517 10.554C9.4151 10.5567 9.64503 10.5554 9.87359 10.5554C10.031 10.5554 10.1815 10.5458 10.3321 10.5841C10.4238 10.6087 10.4306 10.6388 10.4949 10.7018C10.5511 10.7552 10.6592 10.7908 10.2116 10.7114Z"/>
  <path d="M10.2116 10.7114C10.3129 10.6908 10.3937 10.736 10.4854 10.7743C10.7345 10.8797 10.9863 10.9783 11.2354 11.0864C12.0798 11.4504 12.9133 11.8473 13.7523 12.2251C13.8932 12.2908 14.0328 12.3551 14.1738 12.4208C14.4599 12.5713 14.7473 12.7191 15.0374 12.8629C15.4398 13.0161 15.8422 12.9915 16.2651 12.9847C16.6059 12.9792 16.9508 12.9751 17.2915 12.9504C17.8773 12.9053 18.4316 12.7137 18.9941 12.5535C19.4882 12.4126 19.9877 12.2812 20.4709 12.1074C20.7596 12.0034 21.0443 11.8857 21.3331 11.7803C21.8929 11.5763 22.4732 11.445 23.0083 11.1808C23.3258 11.0234 23.6529 10.8647 23.9882 10.7497C24.2907 10.6457 24.5316 10.3542 24.7396 10.1215C24.8149 10.0366 24.8984 9.94631 24.9791 9.86693C25.0079 9.83819 24.9983 9.82314 25.038 9.80808C25.1324 9.77523 25.2173 9.8245 25.2829 9.87788C25.3213 9.90799 25.3678 9.94084 25.402 9.97505C25.4705 10.0407 25.4923 10.1242 25.5471 10.1968C25.6224 10.2953 25.7661 10.3501 25.8167 10.4746C25.8838 10.6388 25.7934 10.8907 25.71 11.0289C25.6319 11.1562 25.4855 11.2246 25.3705 11.3095C25.2241 11.4176 25.0886 11.5298 24.9558 11.6544C24.8094 11.7912 24.6725 11.9267 24.5015 12.0321C24.2797 12.1717 24.0293 12.2579 23.7925 12.366C23.2861 12.5987 22.7811 12.8204 22.2569 13.012C21.9722 13.1174 21.6876 13.2132 21.4084 13.3364C21.121 13.4623 20.8431 13.6088 20.5557 13.7333C20.1547 13.9071 19.7222 13.9755 19.3157 14.1343C18.9229 14.2862 18.5548 14.4204 18.1346 14.4696C17.8171 14.5066 17.4927 14.5203 17.1725 14.5381C16.8029 14.5599 16.4334 14.5517 16.0721 14.4587C15.7751 14.3834 15.4918 14.3013 15.2044 14.1945C15.0196 14.1247 14.8308 14.0741 14.6433 14.0111C14.4475 13.9454 14.2696 13.8483 14.078 13.7703C13.8344 13.6731 13.6332 13.5225 13.4074 13.3884C13.1747 13.2502 12.9366 13.1571 12.7272 12.9833C12.5985 12.8765 12.4795 12.7452 12.3262 12.6712C12.1838 12.6042 12.0182 12.5727 11.8704 12.5207C11.6651 12.4495 11.4776 12.34 11.2696 12.2757C11.0356 12.2018 10.7988 12.1484 10.5634 12.0827C10.3348 12.0184 10.1377 11.8487 9.9037 11.8131C9.78053 11.794 9.66419 11.7734 9.54239 11.7474C9.39731 11.7173 9.25087 11.7283 9.10306 11.7283H8.79512C8.71026 11.7283 8.52687 11.7652 8.44885 11.731C8.40643 11.7132 8.42422 11.7269 8.40916 11.6927C8.4119 11.6639 8.41327 11.6352 8.41464 11.6051C8.40916 11.5544 8.39822 11.5038 8.38179 11.4545C8.36126 11.3505 8.37358 11.2397 8.37221 11.1329C8.37221 11.0905 8.36126 11.0262 8.37084 10.9837C8.39137 10.8838 8.52276 10.7853 8.59393 10.7278C8.7609 10.5923 8.97441 10.5512 9.18517 10.554C9.4151 10.5567 9.64503 10.5554 9.87359 10.5554C10.031 10.5554 10.1815 10.5458 10.3321 10.5841C10.4238 10.6087 10.4306 10.6388 10.4949 10.7018C10.5511 10.7552 10.6592 10.7908 10.2116 10.7114Z"/>
  <path d="M4.89863 5.84865C4.97527 5.84592 5.05055 5.84044 5.12171 5.84181C5.34617 5.84592 5.52546 5.7898 5.72528 5.69126C5.91688 5.59683 6.12081 5.43807 6.34253 5.42164C6.43696 5.4148 6.52045 5.47228 6.61078 5.48734C6.65184 5.49555 6.69153 5.49418 6.73259 5.49144C6.95841 5.47502 7.19655 5.42575 7.41553 5.3669C7.6523 5.30257 7.87813 5.2054 8.11353 5.13697C8.68425 4.97273 9.20843 5.09043 9.77367 5.17529C10.1788 5.23688 10.5798 5.30668 10.9616 5.46133C11.2148 5.56398 11.4461 5.71726 11.6925 5.8336C11.8307 5.89929 11.9703 5.95814 12.1085 6.02384C12.437 6.18123 12.76 6.3482 13.0899 6.50559C13.4293 6.66709 13.755 6.86691 14.1054 7.00651C14.3983 7.12421 14.6952 7.25013 15.0005 7.33909C15.3727 7.44721 15.7505 7.49511 16.135 7.5348C16.7673 7.59912 17.4489 7.6744 18.073 7.53069C18.2947 7.48005 18.4644 7.42942 18.6355 7.2775C18.6752 7.24191 18.7217 7.18717 18.7245 7.13106C18.7272 7.04757 18.6533 7.00651 18.6136 6.93945C18.5397 6.81353 18.4987 6.65888 18.3988 6.55486C18.3399 6.49328 18.3481 6.50833 18.2824 6.53433C18.1305 6.59182 18.0046 6.62603 17.8308 6.6233C17.4216 6.61919 17.0014 6.6712 16.6059 6.54665C16.2856 6.44537 15.9941 6.27293 15.6957 6.11964C15.4945 6.01836 15.2838 5.94446 15.0785 5.8555C14.9512 5.80075 14.8171 5.75148 14.687 5.70221C14.3914 5.58861 14.0862 5.47091 13.8002 5.33542C13.6784 5.27794 13.5538 5.22456 13.4347 5.16023C13.2541 5.06169 13.0885 4.93715 12.8928 4.86872C12.5465 4.74554 12.1975 4.63331 11.8471 4.52109C11.5064 4.4116 11.1779 4.27473 10.8275 4.19672C10.4881 4.12008 10.1446 4.0147 9.79557 4.00375C9.49584 3.9928 9.19474 4.00101 8.89365 4.00101C8.63087 4.00101 8.37357 3.99143 8.1149 4.03112C7.99446 4.04891 7.87402 4.03796 7.75495 4.0626C7.64409 4.08586 7.53871 4.13103 7.42648 4.15019C7.14044 4.19809 6.87219 4.26926 6.59435 4.35548C6.22893 4.46771 5.91552 4.73596 5.53504 4.79071C5.41323 4.8085 5.29827 4.80713 5.19014 4.87556C4.91094 5.04938 4.60711 5.49281 4.65912 5.83223C4.73439 5.85002 4.81651 5.85139 4.89863 5.84865Z"/>
  <path d="M4.89863 5.84865C4.97527 5.84592 5.05055 5.84044 5.12171 5.84181C5.34617 5.84592 5.52546 5.7898 5.72528 5.69126C5.91688 5.59683 6.12081 5.43807 6.34253 5.42164C6.43696 5.4148 6.52045 5.47228 6.61078 5.48734C6.65184 5.49555 6.69153 5.49418 6.73259 5.49144C6.95841 5.47502 7.19655 5.42575 7.41553 5.3669C7.6523 5.30257 7.87813 5.2054 8.11353 5.13697C8.68425 4.97273 9.20843 5.09043 9.77367 5.17529C10.1788 5.23688 10.5798 5.30668 10.9616 5.46133C11.2148 5.56398 11.4461 5.71726 11.6925 5.8336C11.8307 5.89929 11.9703 5.95814 12.1085 6.02384C12.437 6.18123 12.76 6.3482 13.0899 6.50559C13.4293 6.66709 13.755 6.86691 14.1054 7.00651C14.3983 7.12421 14.6952 7.25013 15.0005 7.33909C15.3727 7.44721 15.7505 7.49511 16.135 7.5348C16.7673 7.59912 17.4489 7.6744 18.073 7.53069C18.2947 7.48005 18.4644 7.42942 18.6355 7.2775C18.6752 7.24191 18.7217 7.18717 18.7245 7.13106C18.7272 7.04757 18.6533 7.00651 18.6136 6.93945C18.5397 6.81353 18.4987 6.65888 18.3988 6.55486C18.3399 6.49328 18.3481 6.50833 18.2824 6.53433C18.1305 6.59182 18.0046 6.62603 17.8308 6.6233C17.4216 6.61919 17.0014 6.6712 16.6059 6.54665C16.2856 6.44537 15.9941 6.27293 15.6957 6.11964C15.4945 6.01836 15.2838 5.94446 15.0785 5.8555C14.9512 5.80075 14.8171 5.75148 14.687 5.70221C14.3914 5.58861 14.0862 5.47091 13.8002 5.33542C13.6784 5.27794 13.5538 5.22456 13.4347 5.16023C13.2541 5.06169 13.0885 4.93715 12.8928 4.86872C12.5465 4.74554 12.1975 4.63331 11.8471 4.52109C11.5064 4.4116 11.1779 4.27473 10.8275 4.19672C10.4881 4.12008 10.1446 4.0147 9.79557 4.00375C9.49584 3.9928 9.19474 4.00101 8.89365 4.00101C8.63087 4.00101 8.37357 3.99143 8.1149 4.03112C7.99446 4.04891 7.87402 4.03796 7.75495 4.0626C7.64409 4.08586 7.53871 4.13103 7.42648 4.15019C7.14044 4.19809 6.87219 4.26926 6.59435 4.35548C6.22893 4.46771 5.91552 4.73596 5.53504 4.79071C5.41323 4.8085 5.29827 4.80713 5.19014 4.87556C4.91094 5.04938 4.60711 5.49281 4.65912 5.83223C4.73439 5.85002 4.81651 5.85139 4.89863 5.84865Z"/>
</svg>
