<svg width="24" height="24" viewBox="0 0 24 24" fill="#000000" xmlns="http://www.w3.org/2000/svg">
  <path d="M21.1605 12.6029C21.14 12.7462 21.1138 12.8884 21.0797 13.0283C21.0342 13.2137 20.9512 13.3969 20.8943 13.58C20.8624 13.6836 20.8226 13.7859 20.8078 13.8929C20.7953 13.9861 20.8056 14.076 20.7726 14.1647C20.7259 14.2933 20.6611 14.4161 20.6133 14.5447C20.5439 14.7312 20.5223 14.9314 20.4518 15.1203C20.3551 15.3796 20.2937 15.6526 20.2049 15.9154C20.1446 16.0917 20.1253 16.2646 20.0343 16.4296C19.9717 16.5433 19.9535 16.6776 19.891 16.7856C19.7795 16.9813 19.6873 17.1918 19.5395 17.3647C19.4359 17.4852 19.4814 17.4045 19.3984 17.4306C19.3063 17.4579 19.3063 17.5182 19.2619 17.6058C19.1743 17.7844 19.0321 17.9277 18.9058 18.0802C18.5578 18.5022 18.2051 18.9504 17.7865 19.3065C17.5419 19.5135 17.3008 19.7262 17.0698 19.9469C16.7809 20.2222 16.4783 20.4144 16.153 20.6408C16.0028 20.7466 15.8663 20.816 15.6911 20.8581C15.4272 20.9218 15.1736 21.0537 14.9085 21.1277C14.6071 21.2107 14.3215 21.3848 14.0155 21.4485C13.8324 21.4871 13.6128 21.4826 13.4251 21.5008C13.1624 21.5258 12.9508 21.5918 12.7017 21.478C12.5993 21.4314 12.5208 21.4143 12.44 21.3404C12.3342 21.2426 12.2478 21.1527 12.1113 21.097C11.9668 21.0389 11.8098 21.0014 11.6585 20.9627C11.4413 20.9081 11.2445 20.924 11.0272 20.9661C10.8156 21.0071 10.6268 20.9991 10.4243 20.9184C10.2969 20.8683 10.1797 20.783 10.0421 20.7625C9.90329 20.742 9.76678 20.7716 9.63255 20.7182C9.48808 20.6601 9.34361 20.5896 9.19573 20.5282C9.06833 20.4759 8.97619 20.3666 8.85788 20.2916C8.73844 20.2154 8.60307 20.1733 8.48818 20.0879C8.19469 19.8695 7.85798 19.6523 7.5224 19.5021C7.29148 19.3986 7.10606 19.2575 6.88651 19.1313C6.70109 19.0243 6.50429 18.9402 6.31205 18.8469C5.8775 18.6376 5.41338 18.4237 5.01183 18.1575C4.80252 18.0199 4.59662 17.8697 4.41803 17.6934C4.23602 17.5137 4.10293 17.2839 3.95618 17.0757C3.61378 16.5934 3.38286 16.0451 3.09165 15.5309C2.87665 15.1533 2.73673 14.7278 2.60591 14.3149C2.44211 13.8007 2.2419 13.2979 2.11563 12.7724C2.01325 12.3469 1.85399 11.9454 1.79712 11.5097C1.7482 11.1411 1.71863 10.7589 1.71863 10.3869C1.71863 10.0218 1.77323 9.66345 1.80394 9.29944C1.82783 9.02415 1.83693 8.7682 1.90632 8.49747C2.03486 7.99467 2.16 7.49528 2.35793 7.01638C2.50467 6.66146 2.76972 6.41461 2.96538 6.09041C3.11554 5.84243 3.28048 5.62174 3.44884 5.38741C3.60696 5.169 3.72299 4.88689 3.93229 4.70943C4.03126 4.62639 4.11885 4.65483 4.22806 4.6116C4.38276 4.55131 4.49879 4.36248 4.6171 4.25441C4.86964 4.02462 5.13923 3.81645 5.42135 3.62307C5.78309 3.37508 6.24038 3.31024 6.62032 3.07932C6.87172 2.92575 7.1527 2.61065 7.47803 2.64591C7.40409 2.61292 7.35745 2.58676 7.2801 2.59359C7.31878 2.54809 7.37565 2.5424 7.42343 2.51282C7.49396 2.47073 7.55084 2.40703 7.60999 2.35015C7.77152 2.19658 7.99448 2.05098 8.19014 1.94405C8.31641 1.87579 8.46201 1.84281 8.59397 1.78707C8.74868 1.71995 8.88404 1.6517 9.04899 1.61188C9.27991 1.55614 9.48581 1.42646 9.71559 1.36503C10.0068 1.28541 10.3162 1.26721 10.6154 1.25242C11.1933 1.2217 11.836 1.21147 12.3695 1.46173C12.547 1.54477 12.7233 1.62326 12.9007 1.70289C13.1237 1.80299 13.3091 1.92243 13.5605 1.94746C13.8654 1.97704 14.1554 2.06008 14.4376 2.17725C14.7174 2.29328 15.0109 2.37177 15.2884 2.49121C15.6138 2.63113 15.8766 2.84157 16.1746 3.02358C16.4385 3.18511 16.7229 3.31479 16.9868 3.47633C17.22 3.61966 17.4896 3.80053 17.6818 3.99391C17.8604 4.17364 18.0083 4.39433 18.171 4.58885C18.3257 4.77427 18.51 4.92215 18.667 5.10302C18.8274 5.2873 18.9627 5.50116 19.0958 5.70706C19.3745 6.13592 19.5941 6.59662 19.8056 7.06302C20.0354 7.56695 20.3028 8.05382 20.5189 8.56458C20.6975 8.98661 20.8852 9.44846 20.933 9.90689C20.9557 10.1242 20.9568 10.3574 21.008 10.5701C21.0433 10.718 21.0706 10.8704 21.1241 11.0137C21.2424 11.3322 21.231 11.6758 21.2151 12.0125C21.2048 12.2081 21.1889 12.4061 21.1605 12.6029ZM22.4311 11.628C22.3378 11.1286 22.3276 10.6213 22.2298 10.1196C22.0819 9.35973 21.9522 8.59302 21.7713 7.83882C21.6223 7.21545 21.4426 6.5898 21.1923 5.99827C20.9386 5.39878 20.4597 4.89485 20.0263 4.41822C19.5577 3.90291 19.0389 3.424 18.5543 2.92234C18.3223 2.68232 18.0675 2.4696 17.8195 2.24436C17.5647 2.01344 17.3235 1.7609 17.0391 1.5641C16.7786 1.38323 16.4942 1.22512 16.2099 1.0852C15.8959 0.930493 15.5637 0.751897 15.2225 0.659756C14.8994 0.572164 14.5547 0.550551 14.226 0.482298C13.8551 0.406082 13.4911 0.305977 13.1226 0.222936C12.2318 0.0238651 11.3343 -0.0933004 10.4311 0.112596C9.82935 0.250239 9.28332 0.513012 8.69749 0.69957C8.3403 0.812187 7.96718 0.919116 7.64298 1.11136C7.5679 1.15573 7.5133 1.17279 7.42684 1.19327C7.21299 1.24218 7.01391 1.34342 6.82736 1.45604C6.59302 1.59823 6.37347 1.75635 6.13118 1.88717C5.97647 1.97135 5.81949 2.03619 5.67729 2.14426C5.40315 2.35243 5.09146 2.42978 4.78887 2.58335C4.58752 2.68459 4.38618 2.78697 4.19052 2.89959C3.9869 3.01789 3.82309 3.05543 3.70365 3.26929C3.57624 3.49908 3.31688 3.64809 3.13374 3.83352C2.84025 4.12928 2.56382 4.46372 2.28967 4.77654C2.0542 5.04501 1.88243 5.32257 1.70497 5.63084C1.36598 6.21668 1.16691 6.8776 0.89959 7.50097C0.657292 8.06633 0.556051 8.67151 0.495761 9.28237C0.435471 9.90575 0.393382 10.5178 0.482111 11.1423C0.567427 11.7577 0.785837 12.323 0.943956 12.9203C1.13848 13.6483 1.3694 14.3558 1.61511 15.0702C1.82101 15.6731 2.11563 16.2453 2.42618 16.8004C2.57179 17.0598 2.67986 17.3419 2.85504 17.5831C3.05638 17.8618 3.31233 18.1427 3.55463 18.3873C3.95391 18.7911 4.38276 19.1938 4.88329 19.4714C5.4805 19.8036 6.12208 20.0959 6.67379 20.502C7.77152 21.3108 8.96936 22.0195 10.2719 22.4415C10.6529 22.5655 11.0386 22.6747 11.4287 22.7692C11.7256 22.8408 12.0169 22.8693 12.316 22.9227C12.6175 22.9773 12.8996 23.0399 13.209 23.0399C13.6015 23.0399 13.9427 22.9113 14.3147 22.8044C14.5388 22.7407 14.7663 22.6816 14.987 22.6065C15.2884 22.503 15.5364 22.3357 15.8083 22.1742C16.4601 21.7863 17.1085 21.4439 17.6818 20.9377C18.1528 20.5214 18.6203 20.0959 19.1061 19.6966C19.6236 19.2701 20.1333 18.8537 20.5758 18.3441C20.9728 17.8857 21.2742 17.359 21.5723 16.8323C21.8339 16.3693 22.1171 15.8483 22.2195 15.3228C22.2832 14.9906 22.3128 14.6527 22.3776 14.3217C22.4288 14.0612 22.4823 13.8257 22.488 13.5584C22.5005 12.9316 22.5471 12.2457 22.4311 11.628Z"/>
  <path d="M11.4674 0.125144C11.464 0.127419 11.4618 0.128557 11.4583 0.130832C11.464 0.137657 11.4709 0.144483 11.4765 0.151308C11.4879 0.139932 11.497 0.127419 11.5084 0.116044C11.4947 0.119457 11.4811 0.121732 11.4674 0.125144Z"/>
  <path d="M11.3002 1.52588e-05C11.2035 0.142209 11.224 0.28099 11.4583 0.129696C11.4117 0.076231 11.3639 0.0216287 11.3002 1.52588e-05Z"/>
  <path d="M5.47936 8.95137C5.46685 8.93772 5.45547 8.92521 5.44409 8.91042C5.28256 8.6977 5.13127 8.51114 4.9413 8.31776C4.83323 8.20741 4.68763 8.12665 4.56591 8.03109C4.39528 7.89573 4.24739 7.74216 4.08131 7.60338C3.88224 7.43729 3.65587 7.28827 3.4386 7.14836C3.35783 7.09717 3.25318 7.06759 3.25204 6.96407C3.36011 6.93336 3.53188 6.94132 3.64791 6.94928C3.76052 6.95838 3.86176 7.00502 3.97324 7.01981C4.12909 7.04029 4.26332 7.02436 4.42144 7.06531C4.81731 7.16883 5.22341 7.17907 5.63179 7.2132C6.04245 7.24618 6.42694 7.28031 6.84214 7.2769C7.271 7.27349 7.69189 7.34629 8.12302 7.34401C8.48704 7.34174 8.84992 7.34401 9.21279 7.34174C9.94993 7.33605 10.6984 7.45094 11.431 7.52375C11.7529 7.5556 12.1056 7.54877 12.4218 7.6193C12.5151 7.63978 12.5879 7.683 12.6732 7.72509C12.8757 7.8252 13.1021 7.87184 13.3262 7.90369C13.6015 7.9435 13.8802 7.86501 14.152 7.94123C14.4455 8.02313 14.7015 8.14257 15.0166 8.11072C15.3567 8.0766 15.6695 7.91165 15.996 7.81951C16.3816 7.71144 16.7923 7.69665 17.1881 7.6648C17.5078 7.63978 17.8229 7.66139 18.1414 7.61703C18.3166 7.59655 18.4895 7.5647 18.6613 7.52033C18.7716 7.49758 18.874 7.45777 18.9707 7.39862C19.2949 7.33605 19.048 7.62954 18.9491 7.78652C18.783 8.04702 18.6419 8.31662 18.4997 8.5919C18.3177 8.94454 18.1016 9.24827 17.8809 9.5702C17.4873 10.1412 17.0334 10.6793 16.6592 11.264C16.4635 11.5689 16.2633 11.8953 16.1245 12.2321C16.0199 12.4846 15.8493 12.6973 15.7366 12.9487C15.6661 13.1068 15.5853 13.1978 15.4773 13.3207C15.2156 13.6176 15.0541 13.927 14.8721 14.2842C14.4478 15.1123 13.912 15.8688 13.5321 16.7208C13.3262 17.1815 13.0691 17.6127 12.8609 18.0722C12.68 18.4692 12.6186 18.8765 12.5003 19.2985C12.4503 19.4771 12.3433 20.1107 12.1033 20.1619C12.117 20.1721 12.1272 20.1858 12.1306 20.2074C12.0589 20.2336 11.9793 20.2245 11.9054 20.237C11.8178 20.2506 11.8974 20.3041 11.77 20.2757C11.638 20.2461 11.6915 20.179 11.6392 20.0948C11.5675 19.9788 11.4799 19.9003 11.4185 19.7706C11.3298 19.5863 11.2979 19.3804 11.2263 19.1893C11.1125 18.8822 10.9316 18.6114 10.8486 18.2906C10.7326 17.839 10.7496 17.3988 10.5528 16.9677C10.1513 16.0838 9.80091 15.217 9.22417 14.4457C8.72137 13.7734 8.28797 13.0465 7.78745 12.372C7.37338 11.8146 7.00026 11.2094 6.46106 10.768C6.229 10.5781 6.07088 10.2948 5.95713 10.0218C5.83655 9.734 5.82745 9.40184 5.6534 9.13679C5.6079 9.0674 5.53737 9.01394 5.47936 8.95137ZM2.66734 7.89117C2.77086 7.99583 2.82205 8.1312 2.89257 8.26657C3.0359 8.53958 3.20085 8.77732 3.45338 8.95819C3.61492 9.07422 3.68886 9.17547 3.80489 9.3279C3.89475 9.4462 4.01647 9.50194 4.10292 9.61456C4.27697 9.84321 4.48742 10.0457 4.66601 10.2732C4.75929 10.3926 4.82413 10.5496 4.91855 10.6577C4.96291 10.7077 5.03116 10.7339 5.08008 10.7976C5.14151 10.8795 5.19838 10.9648 5.2564 11.049C5.49073 11.388 5.71483 11.7338 5.93779 12.0796C6.70791 13.2718 7.69985 14.3172 8.29365 15.6345C8.52116 16.1407 8.80328 16.5775 9.10814 17.0302C9.26512 17.2646 9.41983 17.4978 9.51652 17.7674C9.5916 17.9755 9.65757 18.1814 9.74517 18.3839C9.90897 18.765 10.0057 19.2109 10.2434 19.5567C10.3185 19.6648 10.4106 19.7581 10.4789 19.8707C10.6939 20.229 10.8463 20.6613 10.9908 21.0515C11.1182 21.3962 11.166 21.7863 11.3264 22.1162C11.4162 22.3005 11.5027 22.4666 11.5721 22.66C11.6767 22.9523 11.7541 23.2447 11.8667 23.5336C11.9156 23.661 11.9497 23.9408 12.0737 24C12.1465 23.7736 12.1989 23.5495 12.2853 23.3266C12.4104 23.0024 12.5697 22.6793 12.6505 22.3403C12.7324 22.0002 12.7767 21.6203 12.903 21.2938C13.0168 20.998 13.0861 20.6238 13.2295 20.3564C13.3899 20.055 13.5855 19.7308 13.7539 19.4191C14.1543 18.6751 14.5274 17.9164 14.8971 17.1542C15.3692 16.1805 15.8891 15.2432 16.3885 14.2876C16.8958 13.3139 17.2393 12.2161 17.9128 11.3516C18.4565 10.652 19.0935 10.0161 19.6043 9.29263C19.7818 9.04237 19.9092 8.78984 20.1162 8.55778C20.3824 8.25974 20.6179 7.93895 20.8761 7.63636C21.2469 7.20296 21.6951 6.83894 22.1695 6.52725C22.4106 6.36913 22.5665 6.17689 22.7621 5.97099C22.8736 5.85269 23.0033 5.78443 23.0215 5.61949C23.0556 5.29188 22.5278 5.50005 22.3515 5.53986C22.1683 5.58195 21.9681 5.62518 21.7827 5.64679C21.587 5.66954 21.4062 5.63883 21.2128 5.69798C21.0001 5.76282 20.8363 5.83449 20.6088 5.84814C20.3744 5.86179 20.1572 5.91866 19.9342 5.99374C19.6612 6.08475 19.453 6.10864 19.1698 6.1075C19.0219 6.10636 18.9343 6.09157 18.7989 6.05403C18.5066 5.97441 18.1505 5.99374 17.8456 5.96075C17.4418 5.91639 17.0391 5.86406 16.6364 5.80946C15.8766 5.70594 15.1087 5.65817 14.3431 5.69002C13.6128 5.71959 12.8985 5.92549 12.1704 5.82084C12.0032 5.79695 11.8394 5.76282 11.6779 5.71391C11.4322 5.63997 11.2001 5.52962 10.9498 5.47047C10.5608 5.37606 10.157 5.39653 9.75995 5.40336C9.25261 5.41246 8.74412 5.42724 8.23678 5.45113C7.96604 5.46365 7.70213 5.44658 7.4348 5.49208C7.20843 5.5319 6.99002 5.61039 6.76138 5.64224C6.21535 5.71959 5.61586 5.65248 5.06415 5.65248C4.42144 5.65248 3.76166 5.62063 3.1235 5.6593C2.94718 5.66954 2.79019 5.73552 2.61046 5.70253C2.28967 5.64452 1.94727 5.59105 1.61738 5.58536C1.44902 5.58309 1.27725 5.60812 1.11117 5.57285C1.00083 5.54896 0.928027 5.52052 0.807446 5.52166C0.612926 5.5228 0.593587 5.49209 0.435468 5.40677C0.356977 5.36354 0.215921 5.31235 0.123779 5.32373C-0.00248855 5.33965 -0.010451 5.32145 0.00661219 5.45455C0.0214003 5.57626 0.149943 5.77078 0.201133 5.8743C0.396791 6.27586 0.65274 6.48744 0.986041 6.7741C1.24199 6.99365 1.48201 7.23936 1.76867 7.42023C2.02576 7.5829 2.32835 7.66025 2.57861 7.82065C2.6116 7.84112 2.64117 7.86501 2.66734 7.89117Z"/>
  <path d="M11.9395 16.5161C11.9418 16.5149 11.9429 16.5149 11.9441 16.5138C11.9407 16.5104 11.9384 16.507 11.935 16.5035C11.9293 16.5092 11.9247 16.5149 11.9202 16.5206C11.9259 16.5195 11.9327 16.5172 11.9395 16.5161Z"/>
  <path d="M12.0203 16.5764C12.0669 16.5081 12.0567 16.441 11.9441 16.5138C11.9668 16.5399 11.9896 16.5661 12.0203 16.5764Z"/>
  <path d="M14.7698 12.2605C14.8687 12.4277 14.9165 12.6063 14.8414 12.8475C14.772 13.0704 14.697 13.0795 14.4854 13.0818C14.3489 13.0829 14.1566 13.1387 14.0247 13.0898C13.9553 13.0636 13.9541 13.034 13.8734 13.009C13.796 12.9862 13.6834 12.9987 13.6026 13.001C13.4275 13.0044 13.2523 13.0067 13.0771 13.0101C12.7222 13.0192 12.3604 12.9703 12.0067 12.9407C11.8508 12.9282 11.6813 12.9339 11.5289 12.9032C11.4834 12.8941 11.4481 12.8736 11.406 12.8543C11.3082 12.8076 11.1979 12.7872 11.0898 12.7735C10.9567 12.7565 10.8225 12.7963 10.6917 12.7621C10.5495 12.7246 10.4255 12.6689 10.273 12.6871C10.1104 12.7064 9.96021 12.7883 9.80323 12.8349C9.61894 12.8907 9.42101 12.9009 9.2299 12.9191C9.07633 12.9339 8.9239 12.9271 8.77147 12.951C8.68729 12.9623 8.60311 12.9794 8.52121 13.001C8.46888 13.0135 8.41883 13.034 8.37333 13.0625C8.21748 13.0954 8.33351 12.9521 8.38015 12.8759C8.45864 12.7485 8.52348 12.6177 8.5906 12.4834C8.67592 12.3117 8.77716 12.1638 8.88067 12.0068C9.06609 11.7281 9.27995 11.4653 9.45627 11.1809C9.54728 11.0319 9.64169 10.8727 9.70653 10.71C9.78275 10.5143 9.90219 10.3471 10.0091 10.1685C10.1024 10.0115 10.1695 9.8193 10.2378 9.64639C10.2912 9.50647 10.3379 9.36656 10.3993 9.23005C10.4823 9.04463 10.546 8.84783 10.6427 8.66924C10.7235 8.51795 10.8384 8.39736 10.9237 8.25062C11.0363 8.05724 11.2616 7.65568 11.538 7.73417C11.6938 7.77854 11.7382 7.9742 11.8281 8.08795C11.9509 8.24266 12.0578 8.40419 12.1568 8.57823C12.2672 8.77503 12.415 8.9468 12.5379 9.13563C12.6619 9.32447 12.7154 9.53378 12.8177 9.73171C12.8837 9.8557 12.9747 9.93419 13.0782 10.0241C13.4343 10.3335 13.6481 10.7714 13.9325 11.1423C14.0178 11.2549 14.1282 11.3436 14.2146 11.4551C14.3079 11.578 14.3705 11.7213 14.4626 11.8464C14.573 11.9943 14.689 12.124 14.7698 12.2605ZM15.9073 12.9658C15.8436 12.8657 15.7799 12.7712 15.7367 12.6871C15.6047 12.43 15.5103 12.1501 15.4034 11.8817C15.3602 11.7736 15.202 11.5996 15.342 11.4995C15.2589 11.3197 15.1156 11.1696 15.0291 10.9887C14.9256 10.776 14.8949 10.536 14.8084 10.3153C14.664 9.94443 14.4604 9.61568 14.284 9.26076C14.1987 9.08786 14.1293 8.88992 14.0304 8.72384C13.9143 8.52818 13.7585 8.35186 13.6379 8.15962C13.5003 7.94007 13.3808 7.71939 13.1988 7.53397C13.0259 7.35878 12.8723 7.20408 12.7245 7.00501C12.5993 6.83551 12.5038 6.64668 12.3775 6.47832C12.3172 6.39983 12.2672 6.34068 12.1796 6.29859C12.0408 6.23147 11.9088 6.17118 11.7678 6.08018C11.6995 6.03581 11.6347 5.99486 11.5789 5.93685C11.5733 5.93116 11.5676 5.92433 11.563 5.91865C11.5289 5.95391 11.4982 5.99259 11.4697 6.03354C11.3628 6.19052 11.3037 6.47604 11.1216 6.57615C11.05 6.61596 10.9556 6.608 10.8782 6.6262C10.5893 6.6899 10.4869 6.94926 10.3379 7.1745C10.1968 7.38836 10.058 7.59653 9.94542 7.82745C9.67582 8.37689 9.33342 8.88196 9.04221 9.41888C8.85565 9.76242 8.70777 10.1344 8.51438 10.4723C8.43817 10.6065 8.3301 10.7146 8.25389 10.8488C8.16288 11.0115 8.09577 11.1809 7.98997 11.3357C7.93423 11.4198 7.85233 11.4915 7.79887 11.5757C7.70786 11.7179 7.68397 11.8976 7.60321 12.0478C7.4121 12.4084 6.82626 13.2649 7.36432 13.5743C7.75791 13.7996 8.3028 13.7188 8.72824 13.6665C8.96372 13.6369 9.20488 13.6255 9.43921 13.6756C9.70085 13.7313 9.94315 13.8565 10.2048 13.9167C10.5085 13.9861 10.8043 13.9975 11.1 14.1044C11.2946 14.175 11.4936 14.2296 11.687 14.3024C12.0487 14.44 12.3627 14.3957 12.737 14.4366C12.9372 14.4594 13.1306 14.5435 13.3353 14.4867C13.4513 14.4548 13.5389 14.374 13.6629 14.3615C13.9576 14.3308 14.2715 14.374 14.5684 14.3695C14.8346 14.3661 15.0883 14.2228 15.3431 14.1545C15.5012 14.1124 15.6707 14.0806 15.8049 13.9805C15.9426 13.8769 16.1223 13.6699 16.1246 13.4924C16.1257 13.3241 16.0165 13.1375 15.9073 12.9658Z"/>
  <path d="M11.571 2.01004C11.4788 2.02597 11.4037 2.06237 11.3105 2.07488C11.2024 2.08967 11.1285 2.10446 11.0283 2.16133C10.5654 2.42411 10.3231 2.98151 10.273 3.49795C10.2537 3.69361 10.2366 3.84377 10.372 3.99393C10.5312 4.17025 10.7769 4.30675 10.9828 4.42164C11.4413 4.67873 12.1147 4.60479 12.4787 4.20437C12.721 3.93705 12.7699 3.36259 12.6164 3.04407C12.5606 2.92804 12.4764 2.77561 12.4002 2.67209C12.3798 2.64366 12.3263 2.63 12.3024 2.59929C12.2706 2.55834 12.2637 2.50032 12.225 2.46165C12.1557 2.39226 12.076 2.36154 12.0089 2.28646C11.9555 2.22617 11.9065 2.14086 11.8315 2.10446C11.6551 2.018 11.505 1.98729 11.3105 2.07488"/>
  <path d="M5.32808 14.3673C5.16882 14.2182 5.01298 14.241 4.81277 14.2364C4.46354 14.2285 4.22465 14.3695 4.08587 14.6949C3.96643 14.9747 3.90273 15.3103 4.00283 15.6038C4.1564 16.052 4.45558 16.1316 4.88557 16.1248C5.07213 16.1214 5.29622 16.1578 5.48051 16.1361C5.70005 16.1088 5.79902 15.9371 5.92074 15.7778C6.02881 15.6379 6.10502 15.5731 6.11298 15.4024C6.12208 15.1943 6.13346 14.9235 6.06293 14.7244C5.99013 14.5185 5.85704 14.5185 5.66593 14.448C5.46458 14.3741 5.35993 14.2979 5.13242 14.3024"/>
  <path d="M17.3064 16.5354C17.4998 16.5843 17.6898 16.5604 17.8843 16.5843C18.0208 16.6002 18.1539 16.6878 18.2847 16.7003C18.6203 16.7322 18.9229 16.4205 18.9184 16.1008C18.9172 16.0804 18.8717 16.0679 18.8717 16.0406C18.8717 15.9985 18.9036 15.9552 18.9184 15.9154C19.0321 15.6117 19.056 14.9701 18.692 14.7847C18.5134 14.6926 18.3382 14.6948 18.1403 14.6926C17.857 14.6891 17.6079 14.9064 17.3918 15.0634C17.2177 15.1897 17.055 15.2477 16.9697 15.4604C16.8173 15.8392 16.8321 16.4148 17.3064 16.5354Z"/>
</svg>
