<?xml version="1.0" encoding="UTF-8" standalone="no"?>
<!-- Created with Inkscape (http://www.inkscape.org/) -->

<svg
   width="16.226765"
   height="24"
   viewBox="0 0 4.2933316 6.35"
   version="1.1"
   id="svg9075"
   inkscape:version="1.2.1 (9c6d41e4, 2022-07-14)"
   sodipodi:docname="ghouls.svg"
   xmlns:inkscape="http://www.inkscape.org/namespaces/inkscape"
   xmlns:sodipodi="http://sodipodi.sourceforge.net/DTD/sodipodi-0.dtd"
   xmlns="http://www.w3.org/2000/svg"
   xmlns:svg="http://www.w3.org/2000/svg">
  <sodipodi:namedview
     id="namedview9077"
     pagecolor="#505050"
     bordercolor="#eeeeee"
     borderopacity="1"
     inkscape:showpageshadow="0"
     inkscape:pageopacity="0"
     inkscape:pagecheckerboard="0"
     inkscape:deskcolor="#505050"
     inkscape:document-units="mm"
     showgrid="false"
     inkscape:zoom="0.70199214"
     inkscape:cx="32.7639"
     inkscape:cy="106.8388"
     inkscape:window-width="1390"
     inkscape:window-height="938"
     inkscape:window-x="0"
     inkscape:window-y="25"
     inkscape:window-maximized="0"
     inkscape:current-layer="layer1" />
  <defs
     id="defs9072">
    <clipPath
       clipPathUnits="userSpaceOnUse"
       id="clipPath1394">
      <path
         d="m 116.523,100.174 h 24.699 v 24.699 h -24.699 z"
         id="path1392" />
    </clipPath>
  </defs>
  <g
     inkscape:label="Layer 1"
     inkscape:groupmode="layer"
     id="layer1"
     transform="translate(-96.622422,-120.29892)">
    <g
       id="g1388"
       transform="matrix(0.30252948,0,0,-0.30252948,59.785917,157.47196)">
      <g
         id="g1390"
         clip-path="url(#clipPath1394)">
        <g
           id="g1396"
           transform="translate(127.02,110.393)">
          <path
             d="m 0,0 c 0.026,-0.123 0.058,-0.248 0.096,-0.381 0.05,-0.181 0.112,-0.377 0.234,-0.53 0.274,-0.342 0.394,-0.744 0.565,-1.135 0.209,-0.476 0.404,-0.958 0.611,-1.435 0.039,-0.089 0.098,-0.25 0.175,-0.321 0.032,-0.028 0.054,-0.032 0.074,-0.071 0.021,-0.038 0.016,-0.079 0.048,-0.108 0.028,-0.025 0.105,-0.056 0.14,-0.044 0.039,0.013 0.035,0.059 0.042,0.096 0.014,0.073 0.033,0.146 0.055,0.217 0.049,0.159 0.109,0.317 0.163,0.475 0.133,0.383 0.267,0.771 0.48,1.117 0.086,0.14 0.202,0.289 0.237,0.454 0.092,0.442 0.425,0.819 0.447,1.274 0.009,0.177 -0.005,0.353 0.01,0.529 0.011,0.132 0.013,0.271 0.048,0.4 0.032,0.12 0.081,0.234 0.092,0.359 C 3.545,1.197 3.569,1.494 3.558,1.798 3.551,2.006 3.514,2.209 3.515,2.418 3.516,2.467 3.56,2.787 3.507,2.829 3.435,2.752 3.437,2.63 3.407,2.537 3.368,2.414 3.356,2.301 3.341,2.173 3.322,1.998 3.279,1.834 3.182,1.681 3.079,1.518 2.962,1.367 2.879,1.194 2.762,0.952 2.706,0.688 2.624,0.436 2.582,0.304 2.54,0.17 2.504,0.036 2.463,-0.113 2.379,-0.239 2.32,-0.383 2.242,-0.575 2.174,-0.77 2.039,-0.937 2.003,-0.98 1.953,-1.076 1.886,-1.064 1.867,-1.061 1.786,-0.953 1.766,-0.932 1.711,-0.872 1.688,-0.794 1.63,-0.74 1.607,-0.719 1.553,-0.707 1.524,-0.685 1.472,-0.644 1.433,-0.583 1.395,-0.532 1.317,-0.429 1.222,-0.372 1.127,-0.284 0.885,-0.062 0.717,0.307 0.614,0.594 0.512,0.875 0.329,1.124 0.205,1.396 0.155,1.507 0.12,1.616 0.107,1.735 0.082,1.975 0.005,2.207 -0.065,2.439 -0.087,2.51 -0.114,2.573 -0.103,2.648 -0.099,2.356 -0.153,2.07 -0.145,1.778 -0.135,1.39 -0.058,1.003 -0.062,0.615 -0.065,0.393 -0.041,0.198 0,0"
             style="fill:#231f20;fill-opacity:1;fill-rule:nonzero;stroke:none"
             id="path1398" />
        </g>
        <g
           id="g1400"
           transform="translate(125.131,107.55)">
          <path
             d="M 0,0 C 0.169,-0.393 0.288,-0.806 0.51,-1.18 0.658,-1.429 0.841,-1.642 1.073,-1.831 1.242,-1.97 1.435,-2.081 1.6,-2.223 1.783,-2.379 1.978,-2.525 2.158,-2.684 2.288,-2.8 2.354,-2.917 2.448,-3.051 2.538,-3.18 2.678,-3.261 2.765,-3.396 2.85,-3.528 2.908,-3.672 2.99,-3.804 3.13,-4.028 3.356,-4.255 3.607,-4.379 3.772,-4.46 3.965,-4.508 4.121,-4.39 c 0.14,0.106 0.263,0.244 0.393,0.361 0.097,0.087 0.192,0.17 0.276,0.269 0.267,0.313 0.519,0.63 0.749,0.966 0.112,0.165 0.238,0.326 0.344,0.494 0.121,0.19 0.267,0.358 0.395,0.545 0.187,0.274 0.31,0.575 0.493,0.851 0.13,0.196 0.255,0.395 0.384,0.593 0.22,0.336 0.404,0.692 0.629,1.026 C 7.931,0.933 8.103,1.171 8.208,1.41 8.278,1.57 8.246,1.762 8.279,1.932 8.302,2.053 8.31,2.174 8.34,2.294 8.357,2.364 8.399,2.425 8.429,2.49 8.437,2.508 8.446,2.527 8.445,2.546 8.444,2.564 8.437,2.579 8.442,2.598 8.45,2.626 8.467,2.653 8.477,2.681 8.488,2.71 8.498,2.74 8.507,2.769 8.526,2.834 8.537,2.897 8.573,2.955 8.596,2.992 8.641,3.035 8.644,3.078 8.647,3.111 8.643,3.146 8.643,3.178 8.643,3.189 8.645,3.2 8.644,3.211 8.642,3.221 8.636,3.229 8.633,3.238 8.629,3.256 8.637,3.278 8.641,3.297 8.65,3.344 8.659,3.391 8.666,3.439 8.679,3.524 8.69,3.618 8.66,3.702 8.595,3.673 8.537,3.538 8.504,3.486 8.382,3.298 8.288,3.095 8.156,2.912 7.991,2.683 7.833,2.463 7.693,2.22 7.505,1.894 7.243,1.611 7.015,1.308 6.77,0.981 6.493,0.669 6.259,0.336 6.119,0.135 5.994,-0.088 5.971,-0.328 5.938,-0.651 5.817,-0.979 5.646,-1.265 5.578,-1.377 5.546,-1.505 5.465,-1.611 5.32,-1.8 5.13,-1.971 4.96,-2.141 4.716,-2.384 4.424,-2.613 4.234,-2.896 4.181,-2.975 4.161,-3.059 4.037,-3.057 3.906,-3.056 3.752,-2.97 3.637,-2.919 3.552,-2.882 3.485,-2.825 3.398,-2.79 3.283,-2.744 3.137,-2.714 3.035,-2.644 2.912,-2.559 2.876,-2.402 2.776,-2.296 2.639,-2.15 2.498,-2.005 2.36,-1.858 2.068,-1.548 1.951,-1.152 1.712,-0.808 1.582,-0.622 1.457,-0.434 1.33,-0.246 1.213,-0.075 1.129,0.113 1.01,0.281 0.567,0.904 0.171,1.563 -0.208,2.22 -0.279,2.342 -0.319,2.475 -0.384,2.599 -0.435,2.695 -0.514,2.791 -0.545,2.894 -0.572,2.98 -0.657,3.426 -0.757,3.392 -0.772,3.332 -0.764,3.266 -0.763,3.204 -0.763,3.173 -0.769,3.143 -0.78,3.113 -0.785,3.101 -0.789,3.089 -0.793,3.076 -0.796,3.064 -0.804,3.053 -0.806,3.041 -0.811,3.007 -0.824,2.975 -0.829,2.941 -0.842,2.866 -0.851,2.79 -0.852,2.714 -0.858,2.379 -0.8,2.043 -0.707,1.718 -0.674,1.604 -0.642,1.488 -0.586,1.381 -0.54,1.293 -0.471,1.202 -0.463,1.103 -0.46,1.067 -0.459,1.034 -0.445,0.999 -0.425,0.946 -0.401,0.894 -0.377,0.841 -0.285,0.631 -0.187,0.422 -0.093,0.212 -0.062,0.141 -0.03,0.071 0,0"
             style="fill:#231f20;fill-opacity:1;fill-rule:nonzero;stroke:none"
             id="path1402" />
        </g>
        <g
           id="g1404"
           transform="translate(125.131,107.55)">
          <path
             d="M 0,0 C 0.169,-0.393 0.288,-0.806 0.51,-1.18 0.658,-1.429 0.841,-1.642 1.073,-1.831 1.242,-1.97 1.435,-2.081 1.6,-2.223 1.783,-2.379 1.978,-2.525 2.158,-2.684 2.288,-2.8 2.354,-2.917 2.448,-3.051 2.538,-3.18 2.678,-3.261 2.765,-3.396 2.85,-3.528 2.908,-3.672 2.99,-3.804 3.13,-4.028 3.356,-4.255 3.607,-4.379 3.772,-4.46 3.965,-4.508 4.121,-4.39 c 0.14,0.106 0.263,0.244 0.393,0.361 0.097,0.087 0.192,0.17 0.276,0.269 0.267,0.313 0.519,0.63 0.749,0.966 0.112,0.165 0.238,0.326 0.344,0.494 0.121,0.19 0.267,0.358 0.395,0.545 0.187,0.274 0.31,0.575 0.493,0.851 0.13,0.196 0.255,0.395 0.384,0.593 0.22,0.336 0.404,0.692 0.629,1.026 C 7.931,0.933 8.103,1.171 8.208,1.41 8.278,1.57 8.246,1.762 8.279,1.932 8.302,2.053 8.31,2.174 8.34,2.294 8.357,2.364 8.399,2.425 8.429,2.49 8.437,2.508 8.446,2.527 8.445,2.546 8.444,2.564 8.437,2.579 8.442,2.598 8.45,2.626 8.467,2.653 8.477,2.681 8.488,2.71 8.498,2.74 8.507,2.769 8.526,2.834 8.537,2.897 8.573,2.955 8.596,2.992 8.641,3.035 8.644,3.078 8.647,3.111 8.643,3.146 8.643,3.178 8.643,3.189 8.645,3.2 8.644,3.211 8.642,3.221 8.636,3.229 8.633,3.238 8.629,3.256 8.637,3.278 8.641,3.297 8.65,3.344 8.659,3.391 8.666,3.439 8.679,3.524 8.69,3.618 8.66,3.702 8.595,3.673 8.537,3.538 8.504,3.486 8.382,3.298 8.288,3.095 8.156,2.912 7.991,2.683 7.833,2.463 7.693,2.22 7.505,1.894 7.243,1.611 7.015,1.308 6.77,0.981 6.493,0.669 6.259,0.336 6.119,0.135 5.994,-0.088 5.971,-0.328 5.938,-0.651 5.817,-0.979 5.646,-1.265 5.578,-1.377 5.546,-1.505 5.465,-1.611 5.32,-1.8 5.13,-1.971 4.96,-2.141 4.716,-2.384 4.424,-2.613 4.234,-2.896 4.181,-2.975 4.161,-3.059 4.037,-3.057 3.906,-3.056 3.752,-2.97 3.637,-2.919 3.552,-2.882 3.485,-2.825 3.398,-2.79 3.283,-2.744 3.137,-2.714 3.035,-2.644 2.912,-2.559 2.876,-2.402 2.776,-2.296 2.639,-2.15 2.498,-2.005 2.36,-1.858 2.068,-1.548 1.951,-1.152 1.712,-0.808 1.582,-0.622 1.457,-0.434 1.33,-0.246 1.213,-0.075 1.129,0.113 1.01,0.281 0.567,0.904 0.171,1.563 -0.208,2.22 -0.279,2.342 -0.319,2.475 -0.384,2.599 -0.435,2.695 -0.514,2.791 -0.545,2.894 -0.572,2.98 -0.657,3.426 -0.757,3.392 -0.772,3.332 -0.764,3.266 -0.763,3.204 -0.763,3.173 -0.769,3.143 -0.78,3.113 -0.785,3.101 -0.789,3.089 -0.793,3.076 -0.796,3.064 -0.804,3.053 -0.806,3.041 -0.811,3.007 -0.824,2.975 -0.829,2.941 -0.842,2.866 -0.851,2.79 -0.852,2.714 -0.858,2.379 -0.8,2.043 -0.707,1.718 -0.674,1.604 -0.642,1.488 -0.586,1.381 -0.54,1.293 -0.471,1.202 -0.463,1.103 -0.46,1.067 -0.459,1.034 -0.445,0.999 -0.425,0.946 -0.401,0.894 -0.377,0.841 -0.285,0.631 -0.187,0.422 -0.093,0.212 -0.062,0.141 -0.03,0.071 0,0 Z"
             style="fill:none;stroke:#231f20;stroke-width:0.172;stroke-linecap:butt;stroke-linejoin:miter;stroke-miterlimit:10;stroke-dasharray:none;stroke-opacity:1"
             id="path1406" />
        </g>
        <g
           id="g1408"
           transform="translate(125.048,107.383)">
          <path
             d="m 0,0 c -0.147,-0.408 -0.06,-0.881 -0.064,-1.303 -0.002,-0.176 0.02,-0.299 0.081,-0.463 0.03,-0.08 0.025,-0.167 0.058,-0.243 0.138,-0.323 0.279,0.206 0.301,0.28 0.091,0.299 0.142,0.606 0.26,0.898 0.016,0.003 0.033,0.005 0.05,0.007 -0.008,0.043 -0.031,0.128 -0.01,0.161 0.067,0.104 0.109,0.212 0.123,0.336 C 0.813,-0.195 0.781,-0.07 0.716,0.046 0.681,0.108 0.641,0.159 0.618,0.227 0.6,0.279 0.595,0.339 0.568,0.388 0.51,0.492 0.398,0.539 0.286,0.537 0.216,0.536 0.117,0.586 0.05,0.555 -0.014,0.527 -0.032,0.407 -0.034,0.347 -0.037,0.275 -0.034,0.202 -0.035,0.13 -0.035,0.106 -0.043,0.065 -0.036,0.043 -0.027,0.014 0.012,0.034 0,0"
             style="fill:#231f20;fill-opacity:1;fill-rule:nonzero;stroke:none"
             id="path1410" />
        </g>
        <g
           id="g1412"
           transform="translate(126.128,105.515)">
          <path
             d="M 0,0 V -0.015 C 0,-0.099 -0.032,-0.222 0.01,-0.3 0.023,-0.324 0.049,-0.338 0.063,-0.361 0.071,-0.375 0.073,-0.389 0.076,-0.405 0.094,-0.516 0.073,-0.644 0.073,-0.757 c 0,-0.268 -0.049,-0.54 0.105,-0.798 0.185,0 0.188,0.151 0.222,0.227 0.097,0.214 0.151,0.43 0.291,0.637 0.113,0.167 0.117,0.354 0.261,0.502 C 0.911,-0.155 0.924,-0.082 0.921,-0.035 0.915,0.079 0.876,0.202 0.768,0.261 0.704,0.295 0.51,0.314 0.461,0.257 0.428,0.22 0.434,0.198 0.376,0.191 0.315,0.184 0.254,0.197 0.194,0.197 0.164,0.197 -0.015,0.17 -0.001,0.233 0.002,0.155 0,0.078 0,0"
             style="fill:#231f20;fill-opacity:1;fill-rule:nonzero;stroke:none"
             id="path1414" />
        </g>
        <g
           id="g1416"
           transform="translate(127.431,104.432)">
          <path
             d="m 0,0 c 0,-0.339 -0.028,-0.674 0.035,-1.009 0.036,-0.192 0.037,-0.388 0.088,-0.578 0.04,-0.151 0.033,-0.319 0.094,-0.462 0.031,-0.074 0.074,-0.136 0.096,-0.213 0.019,-0.068 0.226,-0.377 0.328,-0.259 0.014,0.016 0.003,0.076 0.002,0.097 -0.002,0.074 -0.032,0.124 -0.056,0.193 -0.027,0.078 -0.065,0.159 -0.069,0.239 -0.005,0.121 -0.003,0.241 0,0.362 0.004,0.179 0.103,0.374 0.167,0.538 0.051,0.133 0.06,0.318 0.153,0.436 C 0.837,-0.67 0.836,-0.685 0.834,-0.7 c 0,0.054 0.006,0.096 0.007,0.15 0,0.147 0.021,0.339 -0.087,0.46 C 0.701,-0.031 0.665,-0.015 0.639,0.069 0.617,0.14 0.624,0.261 0.563,0.317 0.529,0.35 0.474,0.337 0.431,0.337 0.344,0.337 0.199,0.369 0.132,0.312 0.107,0.292 0.111,0.265 0.078,0.252 0.056,0.244 0.022,0.257 0.007,0.232 -0.007,0.21 0.001,0.127 0.008,0.104 0.027,0.103 0.046,0.1 0.065,0.098 0.066,0.092 0,0.006 0,0"
             style="fill:#231f20;fill-opacity:1;fill-rule:nonzero;stroke:none"
             id="path1418" />
        </g>
        <g
           id="g1420"
           transform="translate(129.763,103.643)">
          <path
             d="M 0,0 C 0,-0.252 -0.002,-0.452 0.157,-0.669 0.189,-0.712 0.222,-0.753 0.235,-0.805 0.251,-0.871 0.227,-0.93 0.215,-0.994 0.198,-1.092 0.234,-1.174 0.24,-1.27 0.247,-1.374 0.269,-1.479 0.268,-1.584 0.267,-1.632 0.252,-1.715 0.272,-1.758 c 0.057,0.023 0.055,0.082 0.086,0.124 0.036,0.051 0.086,0.079 0.117,0.135 0.063,0.114 0.082,0.244 0.114,0.365 0.03,0.114 0.066,0.23 0.108,0.339 0.043,0.113 0.06,0.242 0.064,0.361 0.004,0.149 0.014,0.299 0.012,0.448 C 0.772,0.043 0.768,0.07 0.762,0.097 0.75,0.154 0.739,0.204 0.741,0.264 0.745,0.437 0.766,0.61 0.804,0.779 0.811,0.814 0.833,0.944 0.868,0.967 0.868,0.962 0.868,0.958 0.867,0.954 0.841,0.953 0.72,0.946 0.698,0.931 0.618,0.879 0.549,0.787 0.49,0.715 0.449,0.665 0.397,0.64 0.359,0.586 0.304,0.506 0.234,0.454 0.163,0.39 0.132,0.361 0.096,0.345 0.065,0.319 0.03,0.29 0.041,0.267 0.032,0.229 0.023,0.197 0.001,0.17 -0.007,0.134 -0.014,0.101 -0.002,0.061 -0.034,0.039 -0.038,0.068 -0.025,-0.019 0,0"
             style="fill:#231f20;fill-opacity:1;fill-rule:nonzero;stroke:none"
             id="path1422" />
        </g>
        <g
           id="g1424"
           transform="translate(131.919,106.515)">
          <path
             d="M 0,0 C -0.083,-0.096 -0.051,-0.193 -0.061,-0.298 -0.088,-0.58 -0.169,-0.86 -0.23,-1.142 -0.327,-1.593 -0.288,-2.113 -0.661,-2.55 c -0.148,-0.008 -0.263,1.315 -0.285,1.451 -0.068,0.424 0.153,0.892 0.508,1.158 0.068,0.051 0.191,0.215 0.27,0.104 0.011,-0.014 0.01,-0.035 0.02,-0.051 0.022,-0.036 0.027,-0.017 0.047,-0.039 0.02,-0.021 0.037,-0.042 0.035,-0.076 C -0.068,0.03 0,-0.033 0,0"
             style="fill:#231f20;fill-opacity:1;fill-rule:nonzero;stroke:none"
             id="path1426" />
        </g>
        <g
           id="g1428"
           transform="translate(133.27,108.561)">
          <path
             d="m 0,0 c -0.09,-0.13 -0.09,-0.224 -0.085,-0.382 0.008,-0.306 -0.132,-0.554 -0.209,-0.851 -0.095,-0.371 -0.01,-0.741 -0.042,-1.115 -0.011,-0.124 -0.069,-0.275 -0.24,-0.316 -0.242,0.509 -0.274,1.052 -0.274,1.584 0,0.099 -0.038,0.169 -0.029,0.266 0.015,0.158 0.078,0.31 0.146,0.452 0.032,0.068 0.064,0.135 0.111,0.193 0.036,0.045 0.077,0.084 0.112,0.129 0.061,0.081 0.11,0.178 0.182,0.251 0.023,0.022 0.071,0.064 0.106,0.046 0.01,-0.006 0.013,-0.029 0.025,-0.036 C -0.18,0.211 -0.16,0.218 -0.142,0.217 -0.086,0.215 -0.083,0.214 -0.067,0.163 -0.061,0.144 -0.069,0.126 -0.047,0.113 -0.027,0.101 -0.001,-0.026 0,0"
             style="fill:#231f20;fill-opacity:1;fill-rule:nonzero;stroke:none"
             id="path1430" />
        </g>
        <g
           id="g1432"
           transform="translate(133.15,115.261)">
          <path
             d="m 0,0 c -0.005,-0.067 -0.057,-0.156 -0.084,-0.218 -0.053,-0.124 -0.134,-0.235 -0.19,-0.358 -0.16,-0.353 -0.289,-0.733 -0.3,-1.123 -0.005,-0.172 0.013,-0.354 0.088,-0.512 0.043,-0.091 0.177,-0.294 0.297,-0.286 0.121,0.008 0.28,0.237 0.344,0.314 0.123,0.149 0.214,0.306 0.353,0.442 0.103,0.102 0.23,0.196 0.296,0.324 0.108,0.209 0.091,0.563 0.067,0.794 -0.018,0.176 -0.05,0.384 -0.149,0.535 C 0.684,-0.03 0.618,0.022 0.568,0.069 0.486,0.145 0.334,0.15 0.227,0.117 0.184,0.104 0.121,0.1 0.085,0.082 0.029,0.053 -0.03,-0.03 0,0"
             style="fill:#231f20;fill-opacity:1;fill-rule:nonzero;stroke:none"
             id="path1434" />
        </g>
        <g
           id="g1436"
           transform="translate(125.647,113.526)">
          <path
             d="M 0,0 C -0.011,0.082 0.001,0.12 0.016,0.201 0.048,0.38 -0.013,0.545 -0.113,0.693 -0.321,1.003 -0.58,1.283 -0.938,1.413 -1.079,1.464 -1.262,1.458 -1.403,1.405 -1.47,1.38 -1.633,1.302 -1.669,1.237 -1.688,1.201 -1.674,1.172 -1.666,1.134 c 0.018,-0.091 0.043,-0.177 0.056,-0.27 0.027,-0.201 0.128,-0.305 0.239,-0.471 0.166,-0.248 0.193,-0.577 0.258,-0.861 0.074,-0.322 0.408,-0.438 0.696,-0.351 0.177,0.053 0.333,0.155 0.441,0.308 0.077,0.11 0.09,0.252 0.123,0.378 C 0.175,-0.028 0.285,0.129 0,0"
             style="fill:#231f20;fill-opacity:1;fill-rule:nonzero;stroke:none"
             id="path1438" />
        </g>
        <g
           id="g1440"
           transform="translate(132.655,118.943)">
          <path
             d="M 0,0 C -0.02,0.158 0.038,0.27 0.123,0.401 0.365,0.776 0.678,1.123 0.961,1.467 1.167,1.718 1.367,1.919 1.612,2.128 1.911,2.384 2.188,2.688 2.539,2.874 2.662,2.922 2.778,2.983 2.887,3.058 2.966,3.126 3.039,3.199 3.107,3.277 3.153,3.313 3.21,3.38 3.273,3.33 3.329,3.285 3.277,2.999 3.256,2.948 3.233,2.894 3.18,2.84 3.155,2.782 3.102,2.655 3.11,2.523 3.07,2.388 2.894,1.792 2.374,1.417 2.056,0.909 1.611,0.199 1.37,-0.587 1.159,-1.386 0.982,-1.449 0.91,-1.161 0.837,-1.064 0.703,-0.89 0.558,-0.699 0.457,-0.501 0.415,-0.417 0.381,-0.356 0.332,-0.276 0.292,-0.212 0.273,-0.129 0.228,-0.068 0.173,0.009 0.049,0.027 0.006,0.107 -0.054,0.217 0.015,0.4 0,0"
             style="fill:#231f20;fill-opacity:1;fill-rule:nonzero;stroke:none"
             id="path1442" />
        </g>
        <g
           id="g1444"
           transform="translate(125.175,119.195)">
          <path
             d="m 0,0 c -0.348,-0.036 -0.738,0.46 -0.934,0.667 -0.198,0.21 -0.379,0.434 -0.557,0.661 -0.217,0.278 -0.424,0.622 -0.685,0.862 -0.303,0.278 -0.715,0.377 -1.027,0.642 -0.074,0.064 -0.145,0.164 -0.21,0.24 0.007,-0.143 -0.002,-0.287 0,-0.43 0.003,-0.208 0.054,-0.383 0.023,-0.588 -0.027,-0.178 0.003,-0.237 0.112,-0.371 0.086,-0.104 0.199,-0.182 0.29,-0.283 0.266,-0.296 0.414,-0.663 0.565,-1.025 0.203,-0.486 0.494,-0.909 0.722,-1.381 0.058,-0.122 0.125,-0.241 0.178,-0.364 0.049,-0.113 0.007,-0.22 0.028,-0.334 0.029,-0.16 0.023,-0.48 0.244,-0.491 0.242,-0.011 0.352,0.274 0.463,0.433 0.072,0.102 0.17,0.171 0.253,0.263 0.082,0.093 0.121,0.21 0.199,0.306 0.079,0.097 0.178,0.179 0.22,0.301 0.033,0.097 0.038,0.209 0.061,0.306 0.024,0.098 0.049,0.164 0.054,0.266 C 0.002,-0.236 0.038,-0.053 0,0"
             style="fill:#231f20;fill-opacity:1;fill-rule:nonzero;stroke:none"
             id="path1446" />
        </g>
        <g
           id="g1448"
           transform="translate(125.276,118.664)">
          <path
             d="m 0,0 c -0.061,-0.057 -0.121,-0.115 -0.176,-0.18 -0.056,-0.066 -0.109,-0.136 -0.167,-0.201 -0.048,-0.053 -0.087,-0.072 -0.154,-0.091 -0.023,-0.006 -0.055,0 -0.075,-0.012 -0.039,-0.026 -0.03,-0.067 -0.058,-0.094 -0.094,-0.091 -0.195,-0.023 -0.185,0.088 0.013,0.142 0.086,0.275 0.103,0.418 0.023,0.183 -0.015,0.357 0.109,0.514 0.086,0.107 0.199,0.138 0.317,0.195 0.173,0.083 0.284,0.238 0.401,0.384 0.142,0.176 0.28,0.356 0.419,0.535 C 0.731,1.81 0.92,2.068 1.177,2.294 1.339,2.438 1.547,2.547 1.723,2.682 1.907,2.822 2.078,2.971 2.25,3.119 2.548,3.376 2.819,3.624 3.178,3.839 3.387,3.964 3.693,4.094 3.963,4.01 4.139,3.956 4.258,3.831 4.403,3.745 4.534,3.667 4.654,3.632 4.807,3.587 4.947,3.546 5.177,3.489 5.296,3.419 5.479,3.312 5.556,3.117 5.739,3.002 6.052,2.806 6.2,2.522 6.507,2.325 6.721,2.187 6.879,2.059 7.028,1.884 7.119,1.779 7.224,1.687 7.316,1.584 7.408,1.482 7.445,1.377 7.505,1.257 7.602,1.065 7.734,0.897 7.801,0.689 7.859,0.509 7.888,0.32 7.954,0.141 7.971,0.095 8.25,-0.451 8.143,-0.469 8.07,-0.481 7.997,-0.384 7.943,-0.347 7.854,-0.288 7.735,-0.256 7.657,-0.184 7.56,-0.094 7.522,0.022 7.415,0.11 7.294,0.209 7.174,0.3 7.061,0.408 6.917,0.546 6.765,0.658 6.61,0.782 6.387,0.962 6.211,1.197 6.01,1.399 5.805,1.606 5.562,1.772 5.358,1.979 5.267,2.072 5.196,2.163 5.154,2.288 5.075,2.527 4.746,2.453 4.537,2.523 4.341,2.588 4.135,2.561 3.93,2.563 3.373,2.569 2.883,2.275 2.359,2.125 2.002,2.023 1.72,1.76 1.429,1.542 1.268,1.42 1.141,1.276 1.002,1.13 0.889,1.013 0.762,0.898 0.673,0.762 0.592,0.639 0.526,0.561 0.419,0.461 0.357,0.402 0.305,0.338 0.254,0.269 0.179,0.166 0.089,0.084 0,0"
             style="fill:#231f20;fill-opacity:1;fill-rule:nonzero;stroke:none"
             id="path1450" />
        </g>
        <g
           id="g1452"
           transform="translate(125.276,118.664)">
          <path
             d="m 0,0 c -0.061,-0.057 -0.121,-0.115 -0.176,-0.18 -0.056,-0.066 -0.109,-0.136 -0.167,-0.201 -0.048,-0.053 -0.087,-0.072 -0.154,-0.091 -0.023,-0.006 -0.055,0 -0.075,-0.012 -0.039,-0.026 -0.03,-0.067 -0.058,-0.094 -0.094,-0.091 -0.195,-0.023 -0.185,0.088 0.013,0.142 0.086,0.275 0.103,0.418 0.023,0.183 -0.015,0.357 0.109,0.514 0.086,0.107 0.199,0.138 0.317,0.195 0.173,0.083 0.284,0.238 0.401,0.384 0.142,0.176 0.28,0.356 0.419,0.535 C 0.731,1.81 0.92,2.068 1.177,2.294 1.339,2.438 1.547,2.547 1.723,2.682 1.907,2.822 2.078,2.971 2.25,3.119 2.548,3.376 2.819,3.624 3.178,3.839 3.387,3.964 3.693,4.094 3.963,4.01 4.139,3.956 4.258,3.831 4.403,3.745 4.534,3.667 4.654,3.632 4.807,3.587 4.947,3.546 5.177,3.489 5.296,3.419 5.479,3.312 5.556,3.117 5.739,3.002 6.052,2.806 6.2,2.522 6.507,2.325 6.721,2.187 6.879,2.059 7.028,1.884 7.119,1.779 7.224,1.687 7.316,1.584 7.408,1.482 7.445,1.377 7.505,1.257 7.602,1.065 7.734,0.897 7.801,0.689 7.859,0.509 7.888,0.32 7.954,0.141 7.971,0.095 8.25,-0.451 8.143,-0.469 8.07,-0.481 7.997,-0.384 7.943,-0.347 7.854,-0.288 7.735,-0.256 7.657,-0.184 7.56,-0.094 7.522,0.022 7.415,0.11 7.294,0.209 7.174,0.3 7.061,0.408 6.917,0.546 6.765,0.658 6.61,0.782 6.387,0.962 6.211,1.197 6.01,1.399 5.805,1.606 5.562,1.772 5.358,1.979 5.267,2.072 5.196,2.163 5.154,2.288 5.075,2.527 4.746,2.453 4.537,2.523 4.341,2.588 4.135,2.561 3.93,2.563 3.373,2.569 2.883,2.275 2.359,2.125 2.002,2.023 1.72,1.76 1.429,1.542 1.268,1.42 1.141,1.276 1.002,1.13 0.889,1.013 0.762,0.898 0.673,0.762 0.592,0.639 0.526,0.561 0.419,0.461 0.357,0.402 0.305,0.338 0.254,0.269 0.179,0.166 0.089,0.084 0,0 Z"
             style="fill:none;stroke:#231f20;stroke-width:0.343;stroke-linecap:butt;stroke-linejoin:miter;stroke-miterlimit:10;stroke-dasharray:none;stroke-opacity:1"
             id="path1454" />
        </g>
      </g>
    </g>
  </g>
</svg>
