<?xml version="1.0" encoding="UTF-8" standalone="no"?>
<!-- Created with Inkscape (http://www.inkscape.org/) -->

<svg
   width="25.603783"
   height="24"
   viewBox="0 0 6.7743342 6.35"
   version="1.1"
   id="svg11203"
   inkscape:version="1.2.1 (9c6d41e4, 2022-07-14)"
   sodipodi:docname="nightgaunts.svg"
   xmlns:inkscape="http://www.inkscape.org/namespaces/inkscape"
   xmlns:sodipodi="http://sodipodi.sourceforge.net/DTD/sodipodi-0.dtd"
   xmlns="http://www.w3.org/2000/svg"
   xmlns:svg="http://www.w3.org/2000/svg">
  <sodipodi:namedview
     id="namedview11205"
     pagecolor="#505050"
     bordercolor="#eeeeee"
     borderopacity="1"
     inkscape:showpageshadow="0"
     inkscape:pageopacity="0"
     inkscape:pagecheckerboard="0"
     inkscape:deskcolor="#505050"
     inkscape:document-units="mm"
     showgrid="false"
     inkscape:zoom="0.70199214"
     inkscape:cx="-85.471042"
     inkscape:cy="-133.90463"
     inkscape:window-width="1390"
     inkscape:window-height="938"
     inkscape:window-x="0"
     inkscape:window-y="25"
     inkscape:window-maximized="0"
     inkscape:current-layer="layer1" />
  <defs
     id="defs11200">
    <clipPath
       clipPathUnits="userSpaceOnUse"
       id="clipPath2814">
      <path
         d="m 379.15,249.57 h 24.7 v 24.7 h -24.7 z"
         id="path2812" />
    </clipPath>
  </defs>
  <g
     inkscape:label="Layer 1"
     inkscape:groupmode="layer"
     id="layer1"
     transform="translate(-127.89788,-183.9077)">
    <g
       id="g2808"
       transform="matrix(0.32814243,0,0,-0.32814243,2.8082193,273.1304)">
      <g
         id="g2810"
         clip-path="url(#clipPath2814)">
        <g
           id="g2816"
           transform="translate(385.037,270.067)">
          <path
             d="M 0,0 C -0.02,-0.016 -0.04,-0.031 -0.059,-0.047 -0.456,-0.365 -0.84,-0.73 -1.152,-1.132 -1.295,-1.317 -1.415,-1.519 -1.554,-1.707 -1.705,-1.912 -1.837,-2.129 -1.96,-2.352 -2.062,-2.539 -2.15,-2.733 -2.249,-2.922 -2.351,-3.115 -2.439,-3.337 -2.595,-3.495 -2.654,-3.554 -2.7,-3.608 -2.729,-3.687 -2.821,-3.932 -2.87,-4.189 -2.975,-4.431 c -0.088,-0.204 -0.151,-0.428 -0.211,-0.643 -0.062,-0.22 -0.128,-0.439 -0.188,-0.659 -0.055,-0.197 -0.139,-0.385 -0.188,-0.583 -0.046,-0.187 -0.04,-0.383 -0.1,-0.566 -0.04,-0.124 -0.098,-0.237 -0.122,-0.367 -0.039,-0.213 -0.045,-0.434 -0.047,-0.651 -0.003,-0.242 0.006,-0.484 0.005,-0.726 0,-0.153 0.026,-0.284 0.048,-0.432 0.01,-0.061 0.006,-0.118 0.026,-0.178 0.016,-0.046 0.034,-0.077 0.036,-0.126 0.004,-0.068 0,-0.139 -10e-4,-0.207 0,-0.036 -0.002,-0.068 0.006,-0.102 0.01,-0.039 0.028,-0.062 0.021,-0.109 -10e-4,0.047 0.024,0.095 0.033,0.142 0.027,0.14 0.064,0.277 0.085,0.418 0.019,0.132 0.015,0.267 0.045,0.397 0.026,0.114 0.056,0.223 0.076,0.339 0.038,0.226 0.13,0.443 0.2,0.661 0.062,0.19 0.1,0.384 0.152,0.577 0.058,0.217 0.153,0.495 0.392,0.557 0.044,0.011 0.082,0.029 0.12,-0.002 0.024,-0.018 0.064,-0.083 0.082,-0.108 0.066,-0.085 0.072,-0.212 0.071,-0.314 -10e-4,-0.136 0.004,-0.272 0.001,-0.408 -0.002,-0.108 -0.033,-0.188 -0.083,-0.285 -0.057,-0.112 -0.073,-0.218 -0.108,-0.337 -0.031,-0.108 -0.084,-0.203 -0.105,-0.314 -0.017,-0.092 -0.03,-0.185 -0.046,-0.277 -0.054,-0.325 -0.085,-0.652 -0.144,-0.975 -0.016,-0.086 -0.003,-0.176 -0.005,-0.263 -0.005,-0.292 -0.057,-0.576 -0.003,-0.867 0.047,-0.259 0.119,-0.514 0.16,-0.774 0.023,-0.143 0.052,-0.285 0.072,-0.427 0.023,-0.164 0.03,-0.33 0.055,-0.492 0.019,-0.127 0.057,-0.25 0.097,-0.372 0.033,-0.103 0.087,-0.183 0.143,-0.273 0.035,-0.058 0.063,-0.133 0.11,-0.183 0.024,-0.026 0.054,-0.042 0.076,-0.071 0.039,-0.051 0.05,-0.116 0.093,-0.165 0.058,-0.065 0.095,-0.103 0.13,-0.184 0.024,-0.054 0.053,-0.105 0.076,-0.158 0.012,-0.029 0.029,-0.079 0.056,-0.098 -0.012,0.158 -0.047,0.309 -0.07,0.467 -0.019,0.125 -0.037,0.247 -0.068,0.369 -0.038,0.151 -0.049,0.293 -0.068,0.446 -0.028,0.226 -0.041,0.439 -0.041,0.667 v 0.583 c 0,0.173 0.006,0.408 0.191,0.496 0.047,0.023 0.155,0.04 0.205,0.018 0.034,-0.014 0.049,-0.05 0.066,-0.083 0.055,-0.105 0.104,-0.219 0.15,-0.328 0.085,-0.202 0.091,-0.412 0.118,-0.626 0.032,-0.256 0.03,-0.513 0.054,-0.769 0.024,-0.255 0.016,-0.517 0.062,-0.768 0.028,-0.161 0.066,-0.324 0.15,-0.468 0.103,-0.178 0.159,-0.376 0.259,-0.555 0.12,-0.212 0.207,-0.449 0.349,-0.648 0.121,-0.17 0.225,-0.352 0.309,-0.543 0.051,-0.117 0.088,-0.242 0.142,-0.358 0.144,-0.312 0.463,-0.457 0.726,-0.65 0.01,-0.008 0.021,-0.015 0.031,-0.023 0.075,-0.055 0.133,-0.116 0.218,-0.159 0.056,-0.028 0.113,-0.052 0.165,-0.088 0.108,-0.074 0.236,-0.087 0.348,-0.147 0.108,-0.058 0.213,-0.126 0.336,-0.149 0.052,-0.01 0.139,-0.054 0.186,-0.02 -0.04,0.032 -0.078,0.067 -0.12,0.096 -0.047,0.034 -0.103,0.048 -0.15,0.083 -0.029,0.021 -0.032,0.03 -0.044,0.063 -0.015,0.04 -0.063,0.072 -0.097,0.093 -0.059,0.036 -0.116,0.053 -0.166,0.107 -0.071,0.076 -0.14,0.122 -0.198,0.21 -0.066,0.1 -0.124,0.203 -0.185,0.306 -0.076,0.128 -0.129,0.252 -0.191,0.385 -0.044,0.095 -0.125,0.168 -0.169,0.266 -0.04,0.088 -0.07,0.179 -0.071,0.276 0,0.05 -0.025,0.16 0.015,0.199 0.032,0.03 0.107,0.015 0.146,0.008 0.141,-0.023 0.218,-0.053 0.325,-0.151 0.096,-0.09 0.248,-0.158 0.288,-0.294 0.015,-0.049 0.007,-0.104 0.024,-0.153 0.047,-0.133 0.231,-0.165 0.338,-0.231 0.226,-0.14 0.461,-0.29 0.659,-0.468 0.042,-0.037 0.076,-0.081 0.106,-0.128 0.056,-0.086 0.101,-0.153 0.2,-0.194 0.317,-0.133 0.67,-0.21 0.998,-0.309 0.103,-0.031 0.184,-0.02 0.287,-0.034 0.067,-0.009 0.169,-0.046 0.236,-0.027 0.087,0.024 -0.002,0.071 -0.04,0.099 -0.119,0.086 -0.222,0.21 -0.297,0.337 -0.181,0.303 -0.431,0.548 -0.661,0.815 -0.072,0.085 -0.172,0.132 -0.262,0.195 -0.11,0.078 -0.202,0.176 -0.296,0.271 -0.163,0.165 -0.333,0.323 -0.489,0.493 -0.363,0.395 -0.692,0.833 -1.008,1.265 -0.158,0.216 -0.365,0.424 -0.473,0.672 -0.035,0.081 -0.035,0.162 -0.05,0.247 -0.014,0.074 -0.042,0.141 -0.072,0.21 -0.128,0.298 -0.263,0.593 -0.409,0.882 -0.227,0.448 -0.408,0.912 -0.547,1.394 -0.091,0.317 -0.178,0.639 -0.208,0.968 -0.013,0.142 -0.053,0.28 -0.09,0.418 -0.045,0.166 -0.071,0.336 -0.098,0.506 -0.043,0.279 -0.077,0.566 -0.15,0.84 -0.03,0.109 -0.063,0.218 -0.078,0.331 -0.017,0.12 -0.005,0.248 -0.004,0.368 0.003,0.854 -0.066,1.738 0.113,2.579 0.027,0.13 0.057,0.26 0.088,0.389 0.053,0.216 0.11,0.431 0.171,0.645 0.052,0.184 0.097,0.377 0.181,0.55 0.051,0.104 0.123,0.19 0.193,0.281 0.048,0.062 0.092,0.127 0.133,0.194 0.223,0.362 0.48,0.694 0.747,1.025 0.37,0.46 0.73,0.925 1.078,1.403 0.091,0.124 0.205,0.23 0.321,0.331 C 2.034,0.484 2.09,0.524 2.127,0.582 2.179,0.663 2.239,0.68 2.315,0.745 2.384,0.804 2.423,0.885 2.48,0.953 2.519,1 2.559,1.022 2.605,1.057 2.744,1.162 2.839,1.32 2.999,1.392 3.064,1.421 3.135,1.442 3.206,1.442 3.305,1.441 3.424,1.352 3.454,1.253 3.463,1.222 3.468,1.186 3.466,1.154 3.462,1.108 3.433,1.077 3.415,1.036 3.404,1.011 3.392,0.985 3.382,0.959 3.373,0.931 3.37,0.925 3.353,0.907 3.344,0.897 3.336,0.9 3.333,0.886 3.354,0.894 3.373,0.916 3.39,0.931 3.455,0.986 3.553,1.042 3.599,1.12 3.617,1.151 3.625,1.189 3.636,1.223 3.665,1.314 3.726,1.435 3.69,1.531 3.654,1.628 3.583,1.679 3.504,1.737 3.452,1.775 3.419,1.857 3.343,1.83 3.317,1.821 3.294,1.805 3.267,1.795 3.229,1.781 3.193,1.782 3.153,1.783 3.048,1.787 2.951,1.759 2.848,1.74 2.824,1.736 2.8,1.732 2.775,1.73 2.688,1.723 2.611,1.687 2.536,1.643 2.499,1.621 2.461,1.588 2.419,1.575 2.389,1.565 2.358,1.569 2.328,1.557 2.256,1.528 2.203,1.463 2.143,1.417 2.019,1.323 1.896,1.224 1.758,1.151 1.619,1.079 1.474,1.019 1.334,0.947 1.125,0.841 0.93,0.717 0.743,0.569 0.604,0.459 0.493,0.344 0.346,0.248 0.227,0.171 0.112,0.087 0,0"
             style="fill:#231f20;fill-opacity:1;fill-rule:nonzero;stroke:none"
             id="path2818" />
        </g>
        <g
           id="g2820"
           transform="translate(398.018,270.067)">
          <path
             d="M 0,0 C 0.02,-0.016 0.04,-0.031 0.059,-0.047 0.456,-0.365 0.84,-0.73 1.152,-1.132 1.295,-1.317 1.415,-1.519 1.554,-1.707 1.705,-1.912 1.837,-2.129 1.96,-2.352 c 0.102,-0.187 0.19,-0.381 0.289,-0.57 0.116,-0.22 0.244,-0.434 0.349,-0.66 0.169,-0.364 0.334,-0.732 0.466,-1.111 0.055,-0.157 0.092,-0.319 0.155,-0.474 0.076,-0.188 0.079,-0.406 0.184,-0.578 0.04,-0.066 0.05,-0.146 0.065,-0.22 0.037,-0.174 0.106,-0.34 0.134,-0.517 0.036,-0.223 0.121,-0.436 0.164,-0.659 0.095,-0.485 0.059,-0.993 0.06,-1.485 C 3.826,-8.779 3.8,-8.91 3.778,-9.058 3.768,-9.119 3.772,-9.176 3.752,-9.236 3.736,-9.282 3.718,-9.313 3.716,-9.362 c -0.004,-0.068 0,-0.139 10e-4,-0.207 0,-0.036 0.002,-0.068 -0.006,-0.102 C 3.701,-9.71 3.683,-9.733 3.69,-9.78 3.691,-9.733 3.666,-9.685 3.657,-9.638 3.63,-9.498 3.593,-9.361 3.572,-9.22 3.553,-9.088 3.557,-8.953 3.527,-8.823 3.501,-8.709 3.471,-8.6 3.451,-8.484 c -0.038,0.226 -0.13,0.443 -0.2,0.661 -0.062,0.19 -0.1,0.384 -0.152,0.577 C 3.041,-7.029 2.946,-6.751 2.707,-6.689 2.663,-6.678 2.625,-6.66 2.587,-6.691 2.563,-6.709 2.523,-6.774 2.505,-6.799 2.439,-6.884 2.433,-7.011 2.434,-7.113 2.435,-7.249 2.43,-7.385 2.433,-7.521 2.435,-7.629 2.466,-7.709 2.516,-7.806 2.573,-7.918 2.589,-8.024 2.624,-8.143 2.655,-8.251 2.708,-8.346 2.729,-8.457 2.746,-8.549 2.759,-8.642 2.775,-8.734 2.824,-9.026 2.864,-9.313 2.891,-9.607 2.947,-10.22 2.93,-10.84 2.834,-11.447 2.793,-11.708 2.71,-11.96 2.667,-12.219 2.65,-12.323 2.656,-12.429 2.64,-12.532 2.621,-12.659 2.583,-12.782 2.543,-12.904 2.51,-13.007 2.456,-13.087 2.4,-13.177 2.365,-13.235 2.337,-13.31 2.29,-13.36 c -0.024,-0.026 -0.054,-0.042 -0.076,-0.071 -0.039,-0.051 -0.05,-0.116 -0.093,-0.165 -0.058,-0.065 -0.095,-0.103 -0.13,-0.184 -0.024,-0.054 -0.053,-0.105 -0.076,-0.158 -0.012,-0.029 -0.029,-0.079 -0.056,-0.098 0.012,0.158 0.047,0.309 0.07,0.467 0.019,0.125 0.037,0.247 0.068,0.369 0.038,0.151 0.049,0.293 0.068,0.446 0.028,0.226 0.041,0.439 0.041,0.667 v 0.583 c 0,0.173 -0.006,0.408 -0.191,0.496 -0.047,0.023 -0.155,0.04 -0.205,0.018 -0.034,-0.014 -0.049,-0.05 -0.066,-0.083 -0.055,-0.105 -0.104,-0.219 -0.15,-0.328 -0.085,-0.202 -0.091,-0.412 -0.118,-0.626 -0.032,-0.256 -0.03,-0.513 -0.054,-0.769 -0.024,-0.255 -0.016,-0.517 -0.061,-0.768 -0.017,-0.094 -0.035,-0.187 -0.049,-0.281 -0.019,-0.143 -0.018,-0.294 -0.05,-0.434 -0.041,-0.183 -0.092,-0.337 -0.175,-0.504 -0.05,-0.103 -0.111,-0.206 -0.17,-0.301 -0.047,-0.078 -0.114,-0.143 -0.159,-0.225 -0.027,-0.049 -0.054,-0.099 -0.081,-0.148 -0.032,-0.059 -0.037,-0.121 -0.08,-0.174 -0.035,-0.042 -0.067,-0.078 -0.099,-0.121 -0.028,-0.037 -0.081,-0.06 -0.106,-0.096 -0.006,-0.009 -0.009,-0.03 -0.017,-0.037 -0.015,-0.016 -0.037,-0.022 -0.054,-0.037 -0.023,-0.021 -0.027,-0.044 -0.045,-0.069 -0.017,-0.024 -0.048,-0.037 -0.06,-0.063 -0.007,-0.017 0.003,-0.034 -0.004,-0.05 -0.009,-0.018 -0.023,-0.02 -0.033,-0.036 -0.021,-0.034 -0.028,-0.078 -0.054,-0.108 -0.03,-0.036 -0.073,-0.051 -0.107,-0.086 -0.082,-0.086 -0.162,-0.177 -0.268,-0.237 -0.121,-0.068 -0.243,-0.155 -0.356,-0.238 -0.075,-0.055 -0.133,-0.116 -0.218,-0.159 -0.056,-0.028 -0.113,-0.052 -0.165,-0.088 -0.108,-0.074 -0.236,-0.087 -0.348,-0.147 -0.108,-0.058 -0.213,-0.126 -0.336,-0.149 -0.052,-0.01 -0.139,-0.054 -0.186,-0.02 0.04,0.032 0.078,0.067 0.12,0.096 0.047,0.034 0.103,0.048 0.15,0.083 0.029,0.021 0.032,0.03 0.044,0.063 0.015,0.04 0.063,0.072 0.097,0.093 0.059,0.036 0.117,0.053 0.166,0.107 0.071,0.076 0.14,0.122 0.198,0.21 0.066,0.1 0.124,0.203 0.185,0.306 0.076,0.128 0.129,0.252 0.191,0.385 0.044,0.095 0.125,0.168 0.169,0.266 0.04,0.088 0.07,0.179 0.071,0.276 0,0.05 0.025,0.16 -0.015,0.199 -0.032,0.03 -0.107,0.015 -0.146,0.008 -0.142,-0.023 -0.218,-0.053 -0.325,-0.151 -0.113,-0.106 -0.256,-0.191 -0.379,-0.285 -0.032,-0.024 -0.065,-0.044 -0.1,-0.063 -0.079,-0.04 -0.141,-0.083 -0.206,-0.143 -0.176,-0.163 -0.359,-0.318 -0.548,-0.466 -0.072,-0.057 -0.151,-0.104 -0.223,-0.163 -0.089,-0.072 -0.164,-0.159 -0.252,-0.231 -0.11,-0.089 -0.229,-0.176 -0.347,-0.254 -0.119,-0.079 -0.253,-0.126 -0.373,-0.201 -0.118,-0.074 -0.218,-0.085 -0.353,-0.105 -0.18,-0.027 -0.357,-0.076 -0.516,-0.174 0.153,0.138 0.252,0.316 0.392,0.462 0.131,0.136 0.265,0.248 0.363,0.409 0.055,0.091 0.144,0.172 0.182,0.273 0.029,0.079 0.027,0.162 0.082,0.232 0.102,0.132 0.268,0.223 0.402,0.317 0.11,0.078 0.202,0.176 0.296,0.271 0.163,0.165 0.333,0.323 0.489,0.493 0.363,0.395 0.692,0.833 1.008,1.265 0.158,0.216 0.365,0.424 0.473,0.672 0.035,0.081 0.035,0.162 0.05,0.247 0.014,0.074 0.042,0.141 0.072,0.21 0.128,0.298 0.263,0.593 0.409,0.882 0.227,0.448 0.408,0.912 0.547,1.394 0.212,0.735 0.332,1.495 0.411,2.253 0.037,0.361 0.082,0.717 0.085,1.08 0.005,0.508 -0.022,1.022 -0.058,1.528 -0.024,0.352 -0.059,0.7 -0.119,1.048 -0.078,0.453 -0.209,0.881 -0.364,1.312 -0.141,0.391 -0.238,0.826 -0.448,1.188 -0.142,0.245 -0.328,0.465 -0.505,0.685 -0.37,0.46 -0.73,0.925 -1.078,1.403 -0.091,0.124 -0.205,0.23 -0.321,0.331 C -2.034,0.484 -2.09,0.524 -2.127,0.582 -2.179,0.663 -2.238,0.68 -2.315,0.745 -2.384,0.804 -2.423,0.885 -2.48,0.953 -2.519,1 -2.559,1.022 -2.605,1.057 -2.744,1.162 -2.839,1.32 -2.999,1.392 -3.064,1.421 -3.135,1.442 -3.206,1.442 -3.305,1.441 -3.424,1.352 -3.454,1.253 -3.463,1.222 -3.468,1.186 -3.466,1.154 -3.462,1.108 -3.433,1.077 -3.415,1.036 -3.404,1.011 -3.392,0.985 -3.382,0.959 -3.373,0.931 -3.37,0.925 -3.353,0.907 c 0.009,-0.01 0.017,-0.007 0.02,-0.021 -0.021,0.008 -0.04,0.03 -0.057,0.045 -0.065,0.055 -0.163,0.111 -0.209,0.189 -0.018,0.031 -0.026,0.069 -0.037,0.103 -0.029,0.091 -0.09,0.212 -0.054,0.308 0.036,0.097 0.107,0.148 0.186,0.206 0.052,0.038 0.085,0.12 0.161,0.093 0.026,-0.009 0.049,-0.025 0.076,-0.035 0.038,-0.014 0.074,-0.013 0.114,-0.012 0.105,0.004 0.202,-0.024 0.305,-0.043 0.024,-0.004 0.048,-0.008 0.073,-0.01 0.087,-0.007 0.164,-0.043 0.239,-0.087 0.037,-0.022 0.075,-0.055 0.117,-0.068 0.03,-0.01 0.061,-0.006 0.091,-0.018 0.072,-0.029 0.125,-0.094 0.185,-0.14 0.124,-0.094 0.247,-0.193 0.385,-0.266 0.139,-0.072 0.284,-0.132 0.424,-0.204 0.209,-0.106 0.404,-0.23 0.591,-0.378 0.139,-0.11 0.25,-0.225 0.397,-0.321 C -0.227,0.171 -0.112,0.087 0,0"
             style="fill:#231f20;fill-opacity:1;fill-rule:nonzero;stroke:none"
             id="path2822" />
        </g>
        <g
           id="g2824"
           transform="translate(393.754,268.082)">
          <path
             d="M 0,0 C 0.009,-0.005 0.017,-0.01 0.025,-0.015 0.101,-0.063 0.172,-0.12 0.238,-0.18 0.385,-0.311 0.523,-0.475 0.603,-0.653 0.635,-0.723 0.663,-0.815 0.717,-0.875 0.757,-0.92 0.815,-0.944 0.86,-0.982 0.988,-1.086 1.081,-1.249 1.152,-1.395 1.228,-1.552 1.283,-1.723 1.345,-1.886 1.426,-2.099 1.451,-2.322 1.498,-2.542 1.528,-2.68 1.582,-2.812 1.612,-2.949 1.636,-3.058 1.641,-3.174 1.657,-3.285 1.686,-3.479 1.652,-3.67 1.636,-3.865 1.624,-4.012 1.622,-4.162 1.593,-4.308 1.564,-4.458 1.515,-4.62 1.468,-4.766 1.421,-4.914 1.342,-5.047 1.293,-5.195 1.239,-5.356 1.176,-5.515 1.114,-5.673 1.069,-5.788 1,-5.891 0.96,-6.008 0.886,-6.226 0.886,-6.464 0.725,-6.645 0.671,-6.705 0.625,-6.754 0.581,-6.823 0.521,-6.915 0.492,-7.023 0.432,-7.112 0.425,-7.123 0.408,-7.09 0.407,-7.087 0.366,-7.105 0.326,-7.151 0.291,-7.183 0.137,-7.328 -0.074,-7.377 -0.235,-7.511 -0.302,-7.566 -0.369,-7.647 -0.447,-7.685 -0.498,-7.71 -0.542,-7.71 -0.579,-7.757 c 0.044,0.004 0.071,-0.027 0.107,-0.046 0.038,-0.021 0.076,-0.032 0.117,-0.047 0.139,-0.051 0.273,-0.18 0.372,-0.288 0.107,-0.117 0.158,-0.317 0.205,-0.466 0.026,-0.083 0.047,-0.17 0.061,-0.256 0.015,-0.09 0.029,-0.131 0.062,-0.21 0.012,-0.03 0.042,-0.192 0.069,-0.201 0.03,-0.01 0.061,0.077 0.072,0.093 0.086,0.129 0.211,0.226 0.297,0.359 0.209,0.323 0.421,0.645 0.629,0.968 0.237,0.37 0.527,0.708 0.728,1.1 0.098,0.193 0.22,0.411 0.25,0.627 0.019,0.132 -0.019,0.265 0.009,0.395 0.04,0.19 0.202,0.326 0.27,0.506 0.073,0.193 0.099,0.402 0.123,0.607 0.037,0.318 0.086,0.672 0.054,0.99 C 2.819,-3.355 2.79,-3.098 2.73,-2.832 2.669,-2.556 2.564,-2.281 2.468,-2.016 2.412,-1.86 2.317,-1.728 2.237,-1.583 2.169,-1.459 2.099,-1.336 2.023,-1.217 1.816,-0.888 1.494,-0.643 1.238,-0.352 1.144,-0.245 1.044,-0.142 0.928,-0.057 0.875,-0.019 0.83,0.034 0.775,0.068 0.711,0.106 0.646,0.134 0.582,0.178 0.518,0.222 0.449,0.296 0.374,0.326 0.304,0.354 0.241,0.371 0.171,0.408 0.074,0.461 -0.02,0.52 -0.117,0.572 -0.24,0.637 -0.376,0.678 -0.498,0.741 -0.532,0.759 -0.547,0.794 -0.583,0.765 -0.658,0.707 -0.521,0.512 -0.491,0.466 -0.441,0.39 -0.379,0.326 -0.322,0.256 -0.285,0.209 -0.27,0.143 -0.222,0.108 -0.16,0.062 -0.072,0.039 0,0"
             style="fill:#231f20;fill-opacity:1;fill-rule:nonzero;stroke:none"
             id="path2826" />
        </g>
        <g
           id="g2828"
           transform="translate(388.682,260.007)">
          <path
             d="m 0,0 c 0.024,0.065 0.042,0.13 0.082,0.193 0.052,0.083 0.031,0.203 0,0.293 C 0.059,0.551 0.024,0.612 0,0.676 -0.024,0.738 -0.032,0.796 -0.07,0.854 -0.191,1.036 -0.401,1.134 -0.536,1.309 -0.599,1.39 -0.644,1.483 -0.702,1.567 -0.786,1.69 -0.899,1.791 -0.989,1.91 c -0.077,0.1 -0.174,0.22 -0.184,0.352 -0.004,0.042 0.009,0.08 0.014,0.122 0.009,0.103 -0.028,0.203 -0.039,0.305 -0.039,0.379 -0.01,0.777 0.002,1.159 0.019,0.555 0.205,1.1 0.364,1.627 0.033,0.114 0.069,0.228 0.108,0.341 0.016,0.042 0.031,0.085 0.045,0.128 0.03,0.039 0.052,0.029 0.084,0.053 0.061,0.046 0.106,0.184 0.149,0.25 0.063,0.096 0.131,0.19 0.201,0.281 0.072,0.094 0.107,0.205 0.159,0.311 0.063,0.13 0.147,0.25 0.24,0.361 0.148,0.177 0.333,0.312 0.486,0.484 0.075,0.085 0.148,0.171 0.227,0.253 0.088,0.092 0.189,0.16 0.279,0.247 0.12,0.118 0.252,0.192 0.378,0.3 C 1.565,8.519 1.629,8.55 1.664,8.589 1.665,8.59 1.701,8.607 1.699,8.615 1.695,8.634 1.694,8.626 1.675,8.637 1.631,8.663 1.515,8.63 1.469,8.62 1.245,8.569 1.022,8.445 0.817,8.344 0.718,8.296 0.635,8.23 0.545,8.168 0.421,8.082 0.288,8.009 0.161,7.925 0.004,7.821 -0.116,7.676 -0.252,7.547 -0.354,7.452 -0.466,7.367 -0.574,7.28 -0.668,7.205 -0.773,7.137 -0.859,7.052 -0.958,6.956 -1.019,6.811 -1.089,6.693 -1.191,6.522 -1.343,6.391 -1.455,6.228 -1.54,6.103 -1.605,5.999 -1.66,5.863 -1.743,5.657 -1.805,5.428 -1.865,5.215 -1.891,5.122 -1.894,5.024 -1.939,4.937 -1.968,4.878 -2.014,4.83 -2.048,4.774 -2.159,4.592 -2.186,4.343 -2.223,4.136 -2.266,3.899 -2.296,3.659 -2.323,3.42 -2.328,3.377 -2.332,3.334 -2.337,3.291 -2.37,2.989 -2.326,2.68 -2.307,2.379 -2.29,2.117 -2.272,1.855 -2.258,1.594 -2.244,1.315 -2.106,1.047 -2.005,0.789 -1.928,0.593 -1.8,0.44 -1.67,0.281 c 0.066,-0.08 0.119,-0.156 0.206,-0.218 0.063,-0.046 0.096,-0.087 0.137,-0.153 0.052,-0.085 0.136,-0.151 0.18,-0.237 0.064,-0.125 0.127,-0.215 0.223,-0.313 0.083,-0.085 0.139,-0.217 0.167,-0.33 0.029,-0.123 0.048,-0.233 0.101,-0.35 0.033,-0.074 0.081,-0.149 0.096,-0.229 0.092,0.017 0.091,0.222 0.103,0.293 0.027,0.156 0.096,0.313 0.131,0.469 0.029,0.13 0.065,0.259 0.115,0.382 0.048,0.116 0.119,0.216 0.177,0.326 C -0.021,-0.053 -0.01,-0.026 0,0"
             style="fill:#231f20;fill-opacity:1;fill-rule:nonzero;stroke:none"
             id="path2830" />
        </g>
        <g
           id="g2832"
           transform="translate(393.134,256.318)">
          <path
             d="M 0,0 C -0.037,-0.053 -0.098,-0.09 -0.14,-0.138 -0.203,-0.21 -0.329,-0.308 -0.363,-0.397 -0.402,-0.498 -0.424,-0.603 -0.469,-0.703 -0.511,-0.8 -0.578,-0.895 -0.608,-0.996 -0.673,-1.218 -0.682,-1.464 -0.774,-1.677 -0.833,-1.811 -0.859,-1.969 -0.964,-2.075 -1.015,-2.127 -1.06,-2.187 -1.112,-2.237 -1.17,-2.292 -1.245,-2.319 -1.302,-2.375 -1.371,-2.443 -1.407,-2.52 -1.501,-2.559 c -0.201,-0.083 -0.41,-0.018 -0.584,0.07 -0.174,0.088 -0.221,0.357 -0.295,0.525 -0.07,0.159 -0.139,0.326 -0.187,0.494 -0.053,0.184 -0.149,0.361 -0.218,0.54 -0.063,0.158 -0.128,0.32 -0.234,0.456 -0.095,0.124 -0.236,0.188 -0.353,0.289 -0.114,0.098 -0.206,0.218 -0.288,0.343 -0.041,0.061 -0.078,0.124 -0.115,0.188 -0.046,0.08 -0.055,0.16 -0.09,0.246 -0.043,0.107 -0.079,0.209 -0.045,0.322 0.055,0.191 0.073,0.377 0.115,0.573 0.036,0.164 0.048,0.336 0.092,0.497 0.065,0.235 0.27,0.422 0.428,0.601 0.139,0.159 0.312,0.266 0.483,0.388 0.073,0.052 0.137,0.117 0.217,0.16 0.072,0.039 0.153,0.064 0.228,0.096 0.385,0.167 0.784,0.167 1.197,0.089 C -0.934,3.278 -0.771,3.1 -0.645,2.93 -0.555,2.807 -0.495,2.667 -0.43,2.53 -0.371,2.406 -0.304,2.29 -0.253,2.161 -0.199,2.029 -0.139,1.895 -0.094,1.759 -0.038,1.59 -0.02,1.405 0.022,1.232 0.038,1.163 0.084,1.124 0.094,1.053 0.102,0.994 0.091,0.933 0.09,0.874 0.09,0.821 0.093,0.767 0.09,0.714 0.088,0.672 0.07,0.654 0.062,0.62 0.016,0.431 0.094,0.223 0.021,0.038 0.015,0.024 0.008,0.012 0,0 M 0.946,1.262 C 0.923,1.368 0.914,1.469 0.923,1.576 0.933,1.693 0.882,1.808 0.847,1.918 0.767,2.168 0.663,2.41 0.527,2.634 0.413,2.822 0.278,2.987 0.113,3.133 -0.029,3.259 -0.151,3.401 -0.29,3.529 -0.408,3.638 -0.539,3.704 -0.67,3.793 -0.802,3.884 -0.92,4.004 -1.074,4.06 -1.191,4.103 -1.326,4.099 -1.447,4.128 -1.568,4.156 -1.694,4.194 -1.818,4.194 -1.845,4.195 -1.872,4.188 -1.899,4.191 -1.98,4.202 -2.045,4.229 -2.131,4.229 c -0.092,0 -0.18,0.005 -0.27,-0.015 C -2.544,4.181 -2.679,4.117 -2.822,4.086 -2.957,4.056 -3.09,4.048 -3.221,3.998 -3.335,3.954 -3.414,3.883 -3.498,3.796 -3.587,3.703 -3.655,3.595 -3.725,3.488 -3.83,3.328 -3.878,3.13 -4.003,2.986 -4.078,2.899 -4.134,2.809 -4.192,2.71 -4.253,2.607 -4.337,2.517 -4.391,2.411 -4.534,2.134 -4.583,1.827 -4.704,1.543 -4.734,1.472 -4.743,1.408 -4.75,1.331 -4.765,1.149 -4.767,0.962 -4.834,0.791 -4.911,0.595 -5.026,0.438 -5.13,0.259 c -0.057,-0.1 -0.126,-0.217 -0.166,-0.324 -0.01,-0.028 -0.03,-0.026 -0.017,-0.061 0.014,-0.037 0.085,-0.051 0.112,-0.064 0.236,-0.115 0.39,-0.333 0.596,-0.488 0.03,-0.023 0.062,-0.043 0.091,-0.068 0.076,-0.066 0.136,-0.146 0.215,-0.211 0.116,-0.095 0.251,-0.161 0.362,-0.262 0.113,-0.103 0.178,-0.237 0.282,-0.346 0.103,-0.109 0.203,-0.216 0.284,-0.343 0.061,-0.097 0.092,-0.205 0.137,-0.309 0.044,-0.104 0.096,-0.197 0.124,-0.307 0.052,-0.202 0.133,-0.371 0.27,-0.532 0.04,-0.047 0.097,-0.111 0.153,-0.139 0.053,-0.026 0.086,-0.03 0.129,-0.075 0.046,-0.048 0.086,-0.06 0.137,-0.097 0.044,-0.034 0.054,-0.096 0.097,-0.13 0.064,-0.049 0.142,-0.041 0.212,-0.078 0.028,-0.015 0.069,-0.045 0.098,-0.054 0.073,-0.023 0.135,0 0.206,0.012 0.091,0.014 0.191,10e-4 0.284,0.004 0.187,0.005 0.349,0.041 0.514,0.13 0.192,0.104 0.402,0.239 0.557,0.393 0.112,0.111 0.268,0.235 0.318,0.387 0.042,0.128 0.054,0.269 0.084,0.401 0.041,0.184 0.098,0.354 0.177,0.526 0.08,0.176 0.226,0.302 0.32,0.467 0.089,0.155 0.216,0.31 0.345,0.435 0.106,0.104 0.244,0.205 0.327,0.324 0.06,0.085 0.148,0.159 0.2,0.247 0.015,0.026 0.02,0.055 0.031,0.083 0.043,0.108 0.138,0.199 0.136,0.322 C 1.483,0.189 1.444,0.209 1.394,0.28 1.325,0.38 1.288,0.499 1.226,0.603 1.102,0.805 0.998,1.022 0.947,1.255 0.947,1.257 0.946,1.26 0.946,1.262"
             style="fill:#231f20;fill-opacity:1;fill-rule:nonzero;stroke:none"
             id="path2834" />
        </g>
      </g>
    </g>
  </g>
</svg>
