<svg width="22" height="24" viewBox="0 0 22 24" fill="#000000" xmlns="http://www.w3.org/2000/svg">
  <path d="M8.09905 11.5257C8.09905 11.6523 8.0484 11.7283 7.9471 11.7536C7.78248 11.7916 7.69384 11.7156 7.69384 11.5257C7.69384 11.4117 7.74449 11.3496 7.84579 11.323C8.01041 11.2483 8.09905 11.3104 8.09905 11.5257ZM7.83313 17.7128C8.08639 17.9154 8.36498 18.1548 8.68155 18.4346C8.74487 18.5473 8.8829 18.7119 9.09817 18.9145C9.19947 18.8766 9.25013 18.8259 9.25013 18.7753C9.26279 18.522 9.28811 18.2687 9.31344 18.0167C9.3261 17.6368 9.28811 17.3962 9.21214 17.2823C8.99686 17.0037 8.65623 16.8771 8.17503 16.9163C7.93443 16.9024 7.52922 17.0037 7.52922 17.2063C7.52922 17.2696 7.57987 17.3456 7.69384 17.4342C7.66851 17.5355 7.71916 17.6242 7.83313 17.7128ZM7.04929 11.7409C7.04929 12.0195 7.18858 12.3234 7.46717 12.6527C7.7065 12.93 7.97242 13.1326 8.25101 13.2719C8.36498 13.3352 8.5296 13.3605 8.75753 13.3479C9.03485 13.3225 9.18681 13.3099 9.19947 13.3099C9.33877 13.3732 9.5667 13.4492 9.89594 13.5252C10.7051 13.5631 11.5915 12.93 12.5526 11.627C12.6286 11.5257 12.6666 11.4117 12.6666 11.299C12.6666 11.0457 12.5147 10.7545 12.2107 10.4252C12.0968 10.2606 11.9575 10.0833 11.7929 9.89339C11.2623 9.60214 10.7178 9.46411 10.1479 9.46411C9.30078 9.46411 8.6309 9.78069 8.14971 10.4252C8.14971 10.4886 8.14971 10.5772 8.13704 10.6785C8.30166 10.6785 8.36498 10.7545 8.33965 10.9178C8.27634 11.0191 8.20036 11.0698 8.09905 11.0698C8.0484 11.0698 7.89645 11.0331 7.8078 11.0331C7.6052 11.0331 7.40259 11.1344 7.18858 11.3357C7.09994 11.4497 7.04929 11.589 7.04929 11.7409ZM6.4288 9.96937L7.12527 9.36281C7.30255 9.22351 7.57987 9.08422 7.95976 8.93226C8.07373 8.8183 8.26367 8.69167 8.51693 8.5663C9.18681 8.52705 10.1365 8.465 11.3763 8.37509C11.4269 8.37509 11.7169 8.53971 11.8688 8.59036C12.3247 8.72966 12.7299 9.02091 13.0706 9.46411C13.3871 9.86806 13.5771 10.3113 13.6531 10.7925C13.6911 10.9685 13.6784 11.2483 13.6024 11.6143L13.3745 12.7274C13.2225 13.1833 12.9579 13.5252 12.578 13.7518C12.1474 13.9038 11.4142 14.195 10.3759 14.6382C10.2366 14.7016 10.1619 14.8282 10.1619 15.0055C10.1619 14.9801 10.1986 15.1688 10.2632 15.574C10.2872 15.7513 10.4139 15.84 10.6418 15.8526C10.8064 15.84 10.971 15.84 11.1483 15.84C11.4522 15.8526 11.8435 15.7007 12.3121 15.3841C12.4513 15.2967 12.616 15.2828 12.8059 15.36C13.0199 15.4601 13.1212 15.612 13.1212 15.8146C13.1212 15.8273 13.0452 16.0679 12.8933 16.5238C12.8312 16.5491 12.7426 16.5744 12.6286 16.5997C12.4893 16.5744 12.3121 16.5858 12.0841 16.6504C12.0335 16.5858 11.9068 16.5618 11.7169 16.5618C11.0597 16.5618 10.5532 16.7264 10.1859 17.0543C10.1365 17.105 10.1239 17.219 10.1479 17.3962C10.1859 17.6495 10.1986 17.7761 10.1986 17.7761C10.1859 18.2434 10.2872 18.4853 10.5025 18.5093C10.5658 18.4207 10.6798 18.3194 10.8317 18.194C10.971 18.1307 11.1736 17.9408 11.4649 17.6242C11.7549 17.3203 11.9575 17.1683 12.0968 17.1683C12.2361 17.1683 12.3627 17.2823 12.464 17.5229C11.9068 18.2181 11.1736 19.2172 10.2632 20.5088C10.2492 20.6481 10.2125 20.8507 10.1619 21.1167C9.97192 21.6346 9.88328 22.0651 9.88328 22.4058C9.88328 22.4691 9.9086 22.7477 9.95926 23.2542C9.97192 23.5961 9.84529 24 9.55404 24C9.51605 24 9.47806 23.9874 9.42741 23.962C9.13616 23.8227 9.17415 23.5074 9.13616 23.2162C9.04752 23.1149 8.93355 22.9376 8.79552 22.6717C8.79552 22.621 8.93355 22.2918 8.97154 22.1917C9.03485 21.9385 9.04752 21.7359 9.00953 21.5839C8.74487 20.6342 8.41563 20.0276 8.02308 19.7503L7.87112 19.3451C7.84579 19.3071 7.44058 18.9652 6.65673 18.3067C6.32749 18.0421 6.16287 17.7635 6.16287 17.4722C6.16287 17.3076 6.21353 17.143 6.32749 16.991L6.39081 16.4604C6.41614 16.3845 6.46679 16.3212 6.55543 16.2705C6.70739 16.1945 7.06195 16.1819 7.61786 16.2325C7.64318 16.2325 7.75715 16.1819 7.9471 16.0806C8.13704 15.9793 8.26367 15.9286 8.33965 15.9159C8.47895 15.9793 8.69422 16.0299 8.97154 16.0679C8.97154 15.9286 9.08551 15.55 9.08551 15.36C9.08551 15.0435 8.9842 14.8155 8.17503 14.5243L7.35193 14.2583C6.80869 13.943 6.39081 13.3352 6.0869 12.4361C5.86023 11.7536 5.77159 11.2357 5.8349 10.8672C5.89822 10.5899 6.09956 10.2859 6.4288 9.96937Z"/>
  <path d="M11.5029 9.23745C11.4877 9.25264 11.4725 9.26911 11.4573 9.2843C11.5484 9.23745 11.5371 9.23871 11.5029 9.23745Z"/>
  <path d="M11.5029 9.23745C11.5041 9.23618 11.5067 9.23364 11.5079 9.23238C11.4965 9.23364 11.4839 9.23364 11.4725 9.23491C11.4839 9.23618 11.494 9.23745 11.5029 9.23745Z"/>
  <path d="M17.3013 8.19275C17.3025 8.41689 17.2582 8.6157 17.2494 8.83097C17.2456 8.93987 17.3051 9.10956 17.1506 9.0741C17.0784 9.05764 17.0075 8.97279 16.9619 8.91961C16.8935 8.83857 16.8758 8.78791 16.7859 8.71953C16.6618 8.62329 16.5795 8.51313 16.4516 8.42069C16.192 8.23327 15.9083 8.05852 15.6779 7.83439C15.5626 7.72042 15.4613 7.63051 15.5209 7.45323C15.5664 7.31647 15.7083 7.25315 15.7969 7.15185C15.8526 7.0898 15.8919 7.04041 15.959 6.98596C16.1021 6.86946 16.2401 6.7479 16.3832 6.62886C16.5048 6.52883 16.6757 6.44018 16.7796 6.32368C16.8163 6.28316 16.815 6.22365 16.8479 6.18439C16.9353 6.08055 17.1101 6.17806 17.1835 6.25024C17.257 6.32368 17.2316 6.38953 17.2544 6.47944C17.2823 6.58708 17.2987 6.70737 17.3038 6.81374C17.3266 7.27088 17.3 7.73561 17.3013 8.19275ZM13.8151 5.78171C13.6847 5.669 13.534 5.5715 13.4125 5.44993C13.3757 5.41194 13.3137 5.37396 13.3251 5.31191C13.4099 5.28785 13.5239 5.30304 13.6113 5.30431C13.7227 5.30558 13.8126 5.28658 13.9228 5.26505C14.0659 5.23719 14.2128 5.26252 14.3571 5.25619C14.5407 5.24859 14.7206 5.17261 14.8991 5.13209C15.1321 5.08144 15.3499 5.07384 15.5829 5.04472C15.7399 5.02572 15.8931 4.9852 16.0426 4.93581C16.1439 4.90162 16.2566 4.85224 16.3667 4.8611C16.482 4.86997 16.4719 4.92568 16.4364 5.01686C16.3832 5.15109 16.3452 5.24986 16.2161 5.32077C15.997 5.44234 15.7855 5.61202 15.5943 5.77158C15.4094 5.92733 15.2486 6.10208 15.0473 6.23884C14.8738 6.35534 14.7016 6.47184 14.5293 6.58834C14.3001 6.31102 14.0899 6.02104 13.8151 5.78171ZM21.2965 1.85236C21.2762 1.81437 21.2458 1.74979 21.2091 1.72446C21.1698 1.69661 21.1141 1.69407 21.0711 1.67381C20.9799 1.63202 20.8786 1.6067 20.7773 1.5877C20.7228 1.57631 20.6646 1.60037 20.6114 1.58644C20.5734 1.57631 20.5494 1.54338 20.505 1.53578C20.4455 1.62316 20.3835 1.70927 20.3189 1.79158C20.2518 1.87515 20.1847 1.96 20.1226 2.04611C20.0935 2.08536 20.0606 2.16134 20.0238 2.1968C19.9732 2.24365 19.9073 2.2905 19.8504 2.32723C19.7756 2.37661 19.6832 2.40574 19.6047 2.45132C19.4236 2.55389 19.2577 2.68179 19.0855 2.79956C18.7917 3.00217 18.4625 3.19844 18.1003 3.24403C17.9775 3.25923 17.8825 3.27569 17.7685 3.32887C17.6407 3.38712 17.533 3.46057 17.395 3.49602C17.1949 3.54668 16.9986 3.55427 16.8036 3.62899C16.7137 3.66318 16.6124 3.70117 16.5136 3.72649C16.4946 3.72903 16.4756 3.73282 16.4554 3.73409C16.4212 3.73662 16.387 3.73916 16.3528 3.74169L16.3655 3.75182C16.1578 3.76955 15.9565 3.74295 15.745 3.78601C15.4208 3.85059 15.0928 3.96582 14.7915 4.09752C14.5572 4.20009 14.3799 4.27734 14.1241 4.31026C13.8709 4.34318 13.6125 4.36978 13.3605 4.4103C13.2136 4.43436 13.068 4.49514 12.9186 4.50274C12.7831 4.50907 12.6451 4.49894 12.5096 4.49894C12.4374 4.49894 12.3019 4.47235 12.2335 4.49641C12.1525 4.52426 12.1791 4.50654 12.1601 4.59391C12.1398 4.69142 12.1854 4.82185 12.2095 4.91049C12.3019 5.24606 12.4805 5.56643 12.6666 5.85768C12.7755 6.02737 12.9123 6.17553 13.0516 6.31862C13.1605 6.43005 13.2643 6.56048 13.3821 6.66179C13.5416 6.80235 13.5771 7.01129 13.548 7.2177C13.5264 7.36079 13.4479 7.43803 13.3403 7.52541C12.9819 7.81792 12.6755 8.16869 12.3095 8.45234C12.0081 8.68661 11.7713 8.96265 11.5079 9.23238C11.6738 9.22098 11.8676 9.34256 11.9638 9.45652C12.0486 9.55783 12.1373 9.6528 12.2285 9.75157C12.2956 9.82502 12.3589 9.95671 12.4526 9.98331C12.7261 9.66546 13.1022 9.42487 13.4188 9.15261C13.6391 8.96266 13.824 8.74106 14.0507 8.55365C14.1102 8.50426 14.1786 8.43841 14.2495 8.40549C14.3014 8.38143 14.385 8.39789 14.4407 8.39789C14.5686 8.39789 14.699 8.40042 14.8143 8.46501C14.8497 8.48527 14.8738 8.51059 14.9016 8.54098C15.0979 8.75372 15.2752 8.97406 15.5006 9.15894C15.6158 9.25518 15.7095 9.33369 15.8362 9.41094C15.9451 9.47678 16.0071 9.56543 16.1008 9.65153C16.192 9.73511 16.3034 9.76677 16.3997 9.83895C16.4478 9.87567 16.4794 9.92379 16.5352 9.95418C16.6542 10.0213 16.6783 9.93392 16.7973 9.94912C16.8505 9.95671 16.8961 9.98584 16.9568 9.98964C17.0721 9.9985 17.1708 10.0137 17.2873 10.0289C17.4431 10.0492 17.7432 10.0808 17.9015 10.0327C17.9446 9.7617 17.8901 9.47678 17.9357 9.19946C18.0142 8.72333 18.0104 8.24467 18.0712 7.76601C18.1206 7.37092 18.1446 6.97203 18.1852 6.57441C18.2232 6.19959 18.1763 5.81969 18.2168 5.44487C18.2535 5.37016 18.2941 5.29544 18.3295 5.21947C18.4118 5.04978 18.465 4.86997 18.5499 4.70281C18.7677 4.27354 19.0969 3.85059 19.4591 3.53528C19.7617 3.27316 20.0821 3.04522 20.3999 2.80336C20.5329 2.70205 20.6456 2.58175 20.7798 2.48171C20.8697 2.4146 20.9685 2.36395 21.0609 2.29937C21.1432 2.24365 21.3231 2.14994 21.3471 2.04231C21.3636 1.97646 21.3269 1.90808 21.2965 1.85236Z"/>
  <path d="M4.1963 7.23291C4.13299 7.32915 3.92151 7.56975 3.79362 7.43679C3.77336 7.41652 3.75563 7.16959 3.74803 7.13287C3.72144 7.00751 3.75436 6.88341 3.7379 6.75931C3.7265 6.67194 3.69484 6.64028 3.66319 6.5605C3.629 6.47186 3.63659 6.38322 3.61253 6.29458C3.50743 5.90582 3.38966 5.5082 3.2757 5.12071C3.19845 4.85479 3.11108 4.62306 3.07562 4.34574C3.07182 4.31281 3.06549 4.27862 3.06043 4.2457C3.09588 4.29762 3.14907 4.34573 3.19339 4.37613C3.23644 4.40525 3.27696 4.40525 3.32128 4.41918C3.35421 4.42805 3.36814 4.42045 3.39726 4.43944C3.41626 4.44957 3.45931 4.51795 3.47197 4.53188C3.59481 4.66104 3.71764 4.78768 3.8392 4.91684C3.94811 5.03334 4.04688 5.15744 4.13932 5.28533C4.3014 5.50694 4.54833 5.70068 4.76107 5.8729C4.80286 5.90836 4.85478 5.94001 4.8877 5.98433C5.0118 6.14895 4.99027 6.54151 4.79146 6.63648C4.66483 6.69726 4.58126 6.73652 4.48375 6.84669C4.37738 6.96699 4.28368 7.09868 4.1963 7.23291ZM8.53213 8.89304C8.41056 8.67143 8.27127 8.45996 8.12691 8.25229C7.73436 7.68878 7.26329 7.14047 6.74031 6.696C6.49211 6.48452 6.46045 5.99953 6.64027 5.745C6.68206 5.68675 6.72511 5.63103 6.7555 5.56645C6.79602 5.47908 6.80362 5.37904 6.85428 5.298C6.95305 5.13718 7.12147 5.12578 7.12653 4.90924C7.13033 4.73702 7.06828 4.71803 6.95685 4.599C6.86947 4.50529 6.7707 4.53188 6.64407 4.53188C6.57822 4.53188 6.50098 4.54075 6.43513 4.53315C6.36801 4.52555 6.31483 4.49263 6.24645 4.48883C6.14261 4.48376 5.93494 4.45717 5.85136 4.51415C5.79944 4.54961 5.79564 4.60913 5.77792 4.66231C5.74246 4.76995 5.67914 4.86619 5.63862 4.97256C5.5829 5.12071 5.52466 5.28913 5.50566 5.45375C5.34231 5.32965 5.18022 5.20302 5.0346 5.0612C4.85351 4.88265 4.76867 4.67497 4.64711 4.4597C4.56733 4.31914 4.48628 4.17732 4.39638 4.04309C4.36852 4.00003 4.35206 3.97091 4.30394 3.95191C4.24442 3.92912 4.23682 3.95698 4.2153 3.90126C4.17731 3.80376 4.23176 3.47325 4.34952 3.43906C4.41031 3.42133 4.47742 3.49225 4.52427 3.52137C4.79273 3.68852 5.16756 3.72904 5.474 3.77843C5.57404 3.79363 5.66648 3.83668 5.73739 3.90253C5.75259 3.90126 5.76779 3.9 5.78171 3.90126C5.90328 3.91519 6.00712 3.94812 6.13248 3.94685C6.24518 3.94558 6.36295 3.93545 6.47565 3.94052C6.58582 3.94558 6.68332 3.99244 6.78589 4.02789C6.94798 4.08234 7.09234 4.18618 7.25569 4.25076C7.46463 4.33434 7.69384 4.28748 7.83946 4.1102C7.91291 4.02156 7.95976 3.91646 8.03447 3.82782C8.10792 3.74044 8.11552 3.66066 8.07753 3.55176C8.02814 3.41247 7.93443 3.29217 7.79261 3.24658C7.63685 3.19466 7.4659 3.1858 7.30761 3.14021C7.04296 3.0655 6.77703 2.99712 6.51237 2.92621C6.07803 2.80844 5.62976 2.65395 5.18529 2.58937C5.03333 2.56658 4.87251 2.55265 4.72815 2.49693C4.5648 2.43361 4.41917 2.34624 4.24695 2.30572C4.12919 2.27786 4.01015 2.25633 3.88986 2.2424C3.78982 2.22974 3.62393 2.25253 3.53402 2.21454C3.47324 2.18922 3.49477 2.20441 3.45425 2.14743C3.40106 2.07272 3.35168 2.0018 3.27823 1.94482C3.18959 1.87771 3.08449 1.81312 2.98571 1.76247C2.87554 1.70549 2.75398 1.68903 2.64254 1.63204C2.47286 1.5472 2.28798 1.45729 2.13222 1.34966C2.02206 1.27368 1.92075 1.20783 1.79665 1.15971C1.65483 1.10399 1.51553 1.04828 1.46235 0.901385C1.44462 0.853266 1.44209 0.796282 1.41676 0.750695C1.39017 0.702575 1.33825 0.672184 1.30533 0.629129C1.25214 0.560749 1.21035 0.486037 1.13944 0.431586C0.969756 0.301157 0.743087 0.259369 0.569603 0.132738C0.431576 0.0327001 0.203641 -0.0838002 0.0858747 0.0871509C-0.0065656 0.222646 -0.00150027 0.326483 0.00103234 0.489836C0.00356495 0.611402 0.037755 0.741831 0.14919 0.806413C0.185913 0.826673 0.2315 0.830472 0.264424 0.855798C0.380924 0.946972 0.378391 1.13818 0.473364 1.25342C0.564538 1.36359 0.610125 1.50161 0.712696 1.60165C0.787408 1.6751 0.881114 1.74095 0.967223 1.7992C1.04194 1.85111 1.14197 1.87391 1.21035 1.93089C1.29013 1.99547 1.36484 2.10691 1.43069 2.18669C1.5168 2.29305 1.59025 2.41082 1.67255 2.52099C1.68142 2.58937 1.69915 2.65902 1.72321 2.7274C1.75866 2.83123 1.84224 3.22885 1.81058 3.01738C1.85997 3.23898 1.95114 3.45426 2.00053 3.67586C2.12589 4.22164 2.21327 4.77754 2.34116 5.32206C2.39562 5.55506 2.48299 5.77413 2.52731 6.01219C2.58936 6.34523 2.65394 6.66814 2.72992 6.99864C2.81223 7.36081 2.85275 7.75969 2.99078 8.10539C3.01864 8.17251 3.06043 8.23329 3.08195 8.30294C3.11234 8.39791 3.08955 8.49035 3.10348 8.58659C3.11868 8.6841 3.19339 8.73475 3.23011 8.82339C3.25417 8.88797 3.28203 8.95002 3.31369 9.0108C3.39726 9.1349 3.62013 9.1387 3.7417 9.06525C3.87339 8.98421 3.92911 8.82845 4.04181 8.72715C4.18364 8.59799 4.31913 8.45869 4.45969 8.327C4.63191 8.16491 4.81932 8.02182 5.00547 7.87746C5.15869 7.75843 5.3537 7.64699 5.40816 7.44818C5.44741 7.30762 5.46134 7.1392 5.63736 7.09868C5.7336 7.07715 5.79311 7.15693 5.86276 7.20885C5.94 7.26583 6.02864 7.30889 6.09576 7.37854C6.14261 7.42539 6.17807 7.47984 6.21732 7.53429C6.35915 7.7331 6.5339 7.90658 6.64027 8.13072C6.69979 8.25355 6.74284 8.38398 6.79982 8.50935C6.87327 8.6689 6.93659 8.79173 7.11893 8.82339C7.16072 8.83099 7.21391 8.82466 7.2519 8.84618C7.357 8.9019 7.32787 9.06019 7.32787 9.15896C7.32787 9.29572 7.3532 9.46287 7.32028 9.59457C7.31141 9.62749 7.2481 9.71107 7.2519 9.73893C7.26203 9.80857 7.40005 9.75032 7.44311 9.73386C7.50516 9.7098 7.54061 9.64396 7.6014 9.6161C7.64825 9.59457 7.68117 9.59963 7.72803 9.5933C8.06993 9.54898 8.34978 9.31725 8.63723 9.14123C8.64863 9.04752 8.57392 8.96775 8.53213 8.89304Z"/>
</svg>
