<svg width="21" height="24" viewBox="0 0 21 24" fill="#000000" xmlns="http://www.w3.org/2000/svg">
  <path d="M0.527129 8.92865C0.875002 8.42094 1.41796 7.92617 1.87161 7.46665C2.30997 7.02123 2.80005 6.59579 3.23254 6.14802C3.61097 5.75667 3.90713 5.33358 4.28556 4.94222C4.80737 4.40279 5.39734 3.91271 5.89447 3.35917C6.48091 2.70456 7.25187 2.1522 7.96642 1.56105C8.23202 1.34128 8.46825 1.1074 8.73268 0.888809C8.97478 0.687843 9.23803 0.500979 9.46133 0.289435C9.58473 0.174261 9.60471 -0.0349318 9.84799 0.00502648C10.1418 0.0543867 10.4368 0.234199 10.6942 0.343497C11.0726 0.504505 11.4252 0.685491 11.7742 0.875881C12.0692 1.03689 12.3959 1.21083 12.6333 1.41532C12.8108 1.5681 12.9024 1.72676 13.0176 1.90069C13.349 2.399 14.1858 2.58351 14.6818 2.98309C14.9427 3.19464 15.1401 3.43556 15.3505 3.67061C15.6525 4.00673 16.0157 4.30759 16.3835 4.61198C16.9053 5.04447 17.0746 5.58155 17.426 6.07868C17.735 6.51352 17.9619 6.96364 18.2392 7.40906C18.4496 7.744 18.7187 8.06955 18.9397 8.40449C19.1348 8.69948 19.3369 9.00034 19.6342 9.25772C19.8799 9.46926 20.1278 9.6761 20.3758 9.88647C20.4734 9.96874 20.6943 10.1862 20.6085 10.2955C20.5944 10.3143 20.2888 10.346 20.2407 10.3566C20.109 10.3871 19.9809 10.4259 19.8517 10.4623C19.6648 10.5141 19.4509 10.5881 19.2429 10.5846C18.7881 10.5775 18.5648 10.1544 18.372 9.93231C18.2862 9.83476 18.1899 9.73957 18.0947 9.64437C17.8937 9.44458 17.7456 9.22128 17.5294 9.03325C17.4177 8.93452 17.3366 8.817 17.2497 8.6983C17.1874 8.61368 17.1204 8.53259 17.0487 8.45502C16.9429 8.33985 16.8254 8.23408 16.7326 8.10715C16.5927 7.91676 16.5128 7.69347 16.4 7.48662C16.2625 7.23512 16.0932 7.00007 15.9193 6.77208C15.7289 6.52293 15.5268 6.2773 15.3129 6.0493C15.1342 5.85891 14.9297 5.70026 14.7546 5.50634C14.5125 5.23838 14.3033 4.9481 14.1012 4.64959C13.939 4.41219 13.7756 4.17831 13.6205 3.93621C13.5465 3.82104 13.4854 3.69529 13.3913 3.59539C13.302 3.5002 13.2068 3.41323 13.1034 3.33449C13.0329 3.2816 12.9577 3.23459 12.893 3.17466C12.839 3.12647 12.7955 3.0395 12.7356 3.00072C12.638 2.93491 12.4829 2.93843 12.3736 2.89965C12.2525 2.85734 12.1315 2.82091 12.0081 2.78213C11.7824 2.71161 11.5133 2.674 11.3076 2.57058C11.1125 2.47186 10.8751 2.38842 10.6554 2.36256C10.5567 2.35081 10.465 2.3038 10.3663 2.2803C10.2546 2.25327 10.143 2.26972 10.0313 2.25562C9.93143 2.24269 9.85621 2.18745 9.76219 2.14984C9.48131 2.03937 8.28139 3.06889 8.11568 3.18406C7.91941 3.31921 7.7537 3.47434 7.57624 3.633C7.36822 3.81987 7.2601 4.04904 7.10967 4.27939C6.94278 4.53676 6.73359 4.77416 6.50559 4.97983C6.35869 5.11146 6.23999 5.25954 6.10718 5.40409C5.94383 5.58038 5.74521 5.71318 5.5654 5.86949C5.20225 6.18446 4.90609 6.56758 4.54411 6.88725C4.33962 7.06824 4.10222 7.20927 3.9036 7.39731C3.80841 7.48662 3.73789 7.57829 3.67796 7.69347C3.65563 7.73578 3.65328 7.76281 3.61567 7.79806C3.53928 7.87093 3.41705 7.92146 3.33244 7.99198C3.21374 8.08952 3.10091 8.19412 2.99397 8.30459C2.81415 8.47148 2.62611 8.62661 2.42867 8.77234C1.92684 9.15782 1.39798 9.5292 0.926712 9.95111C0.911434 9.96521 0.706942 10.1239 0.685787 10.1944C0.659932 10.2814 0.148701 10.1333 0.0640836 9.98284C-0.0170082 9.83711 -0.00173006 9.67258 0.00767188 9.51509C0.0147233 9.38699 0.485996 8.98859 0.527129 8.92865Z"/>
  <path d="M13.7674 16.2845C13.7674 16.5289 13.7592 16.7511 13.7075 16.9908C13.6569 17.2188 13.5277 17.4374 13.4348 17.6525C13.3396 17.8723 13.2338 18.0873 13.1339 18.3047C13.0258 18.5421 12.9518 18.796 12.8166 19.0181C12.6004 19.3707 12.2713 19.7397 11.9622 20.0171C11.9152 20.0582 11.8612 20.0982 11.8106 20.1334C11.7072 20.2039 11.6508 20.1898 11.545 20.2286C11.4851 20.2509 11.4392 20.2944 11.3828 20.3226C11.2818 20.3743 11.2195 20.3544 11.1172 20.3685C10.8916 20.4002 10.6836 20.419 10.4509 20.4225C10.2252 20.4249 10.0148 20.3614 9.79155 20.3297C9.63877 20.3085 9.49304 20.3203 9.34731 20.2486C9.20628 20.1769 9.01354 20.0617 8.89954 19.9477C8.67625 19.7256 8.40829 19.5188 8.21203 19.2696C8.10508 19.1333 8.00518 19.0263 7.87943 18.9088C7.77484 18.8136 7.70432 18.7043 7.6103 18.5997C7.45987 18.4352 7.30121 18.2789 7.15078 18.1144C7.01093 17.9627 6.8558 17.81 6.73592 17.6396C6.59959 17.4445 6.58196 17.2212 6.58431 16.992C6.58666 16.7146 6.60429 16.4537 6.64778 16.1799C6.69596 15.8779 6.80056 15.6405 6.90751 15.3561C7.01915 15.0599 7.11905 14.7649 7.25068 14.4758C7.37055 14.2137 7.55742 13.9798 7.73723 13.7577C7.90059 13.5556 8.05102 13.3511 8.23435 13.1631C8.29312 13.1031 8.84783 12.7529 9.20981 12.7529C9.47659 12.7529 9.72104 12.7599 9.98429 12.8152C10.2005 12.861 10.3898 12.9586 10.5989 13.0173C10.8152 13.0796 10.9774 13.1078 11.1995 13.1055C11.4075 13.1031 11.6108 13.1431 11.8177 13.1548C12.0186 13.1654 12.1362 13.2312 12.3089 13.31C12.4923 13.3934 12.5851 13.3934 12.7261 13.5474C12.8413 13.6719 12.9812 13.8036 13.0681 13.9516C13.1845 14.1491 13.2691 14.3642 13.3655 14.5722C13.4501 14.752 13.5582 14.9177 13.6064 15.1128C13.6534 15.2996 13.7239 15.4912 13.7592 15.6792C13.7933 15.8732 13.7674 16.0882 13.7674 16.2845ZM14.8886 15.0881C14.8851 14.9048 14.8157 14.7438 14.764 14.5698C14.6864 14.3136 14.5889 14.0562 14.4866 13.8071C14.3021 13.3652 14.0083 12.9738 13.6757 12.6342C13.53 12.4861 13.3279 12.2663 13.1422 12.1688C12.8836 12.0336 12.5922 11.9643 12.316 11.8773C12.0363 11.7892 11.7272 11.8292 11.4369 11.8315C11.1901 11.8327 10.9527 11.788 10.7082 11.7798C10.1853 11.761 9.64347 11.761 9.12754 11.8433C8.9442 11.8726 8.76674 11.9279 8.58458 11.9655C8.44943 11.9937 8.31075 12.0113 8.18382 12.0724C8.06865 12.1288 7.95112 12.1711 7.83595 12.2287C7.70785 12.2945 7.63146 12.4074 7.50688 12.4755C7.33177 12.5707 7.17664 12.626 7.05676 12.7905C6.94864 12.9398 6.7747 13.1348 6.72887 13.1877C6.6184 13.3158 6.48559 13.4721 6.40215 13.6214C6.22586 13.9375 6.09894 14.2525 5.95556 14.5851C5.7781 14.9988 5.57008 15.4042 5.52542 15.8614C5.48429 16.2739 5.49839 16.7111 5.51954 17.1248C5.53835 17.522 5.69936 17.9204 5.80748 18.3024C5.9344 18.7478 6.10717 19.1956 6.31518 19.6104C6.41508 19.8114 6.54318 20.0864 6.73475 20.2216C6.94629 20.3708 7.18016 20.4907 7.39406 20.6388C7.79952 20.9197 8.14269 21.0595 8.62101 21.1512C9.01354 21.2264 9.42018 21.291 9.82093 21.2969C10.1982 21.3028 10.5766 21.2934 10.9539 21.2946C11.3123 21.2957 11.6766 21.3169 12.0186 21.1888C12.4782 21.016 12.9424 20.7704 13.3232 20.4648C13.5006 20.3238 13.6123 20.1957 13.7662 20.0323C13.8273 19.9689 13.9014 19.9101 13.9531 19.8373C14.0448 19.7092 14.1682 19.5881 14.2445 19.453C14.4114 19.1615 14.4961 18.8101 14.5818 18.4916C14.7205 17.9792 14.784 17.4597 14.8474 16.9368C14.9109 16.4055 14.8815 15.8673 14.8839 15.3326C14.8839 15.2515 14.8898 15.168 14.8886 15.0881Z"/>
  <path d="M5.44432 13.1384C5.58065 13.5474 5.91442 13.7048 6.21646 13.9799C6.4233 14.1691 6.57491 14.4112 6.74767 14.6286C6.95568 14.893 7.22952 15.0728 7.47632 15.2961C7.72899 15.5241 7.95934 15.778 8.19909 16.0189C8.43532 16.2575 8.68447 16.4913 8.90776 16.7428C9.12048 16.9826 9.36141 17.1894 9.57295 17.4268C9.72221 17.5949 9.87264 17.79 10.0454 17.9345C10.1876 18.0532 10.2499 17.9827 10.3521 17.8523C10.4074 17.7806 10.4426 17.7512 10.512 17.6948C10.6789 17.5585 10.7799 17.3787 10.9221 17.2212C11.0479 17.0825 11.1537 16.9932 11.2277 16.8157C11.3382 16.5454 11.5309 16.3068 11.5955 16.0212C11.6567 15.7509 11.8329 15.5323 11.994 15.3091C12.0433 15.2409 12.0668 15.1527 12.108 15.0799C12.1514 15.0047 12.2067 14.9624 12.2631 14.8977C12.4229 14.7167 12.5722 14.5158 12.7179 14.3242C12.886 14.1021 13.0505 13.8753 13.2233 13.6602C13.3913 13.451 13.6322 13.2994 13.8003 13.0925C13.939 12.921 14.06 12.7141 14.1635 12.5202C14.2093 12.4321 14.2387 12.3322 14.2798 12.2417C14.2998 12.1958 14.3374 12.1923 14.328 12.1371C14.3174 12.0748 14.167 11.9549 14.1329 11.8973C14.0835 11.8127 14.0659 11.7081 13.9801 11.6364C13.7004 11.4002 13.5171 12.009 13.3995 12.1629C13.342 12.2381 13.2844 12.2793 13.2456 12.3721C13.1809 12.5284 13.1469 12.5966 13.0176 12.7012C12.846 12.8387 12.7073 13.0632 12.5639 13.2336C12.4394 13.3817 12.3395 13.5474 12.2231 13.7001C12.1268 13.8259 12.0069 13.8999 11.9058 14.0151C11.6285 14.3312 11.4404 14.7355 11.2982 15.1281C11.2524 15.2562 11.2007 15.3772 11.1207 15.4889C11.0679 15.5606 11.0056 15.6275 10.9421 15.6898C10.8551 15.7756 10.7588 15.8532 10.693 15.9566C10.5989 16.1047 10.5684 16.3292 10.378 16.3903C10.2781 16.422 10.1488 16.4455 10.0419 16.4443C9.87381 16.4432 9.85031 16.4502 9.75746 16.3139C9.66109 16.1705 9.48598 16.0894 9.3426 15.9919C9.06995 15.8062 8.82785 15.5676 8.57517 15.3572C8.48468 15.282 8.44707 15.1974 8.38008 15.1022C8.30016 14.9906 8.18616 14.8989 8.08862 14.8013C7.90293 14.6157 7.69021 14.457 7.50452 14.2737C7.44459 14.2137 7.40228 14.1373 7.33529 14.0821C7.23304 13.9987 7.12257 13.9446 7.02972 13.847C6.82523 13.6308 6.55258 13.4851 6.33281 13.2782C6.24584 13.196 6.15534 13.1478 6.06367 13.0784C5.98023 13.0138 5.94027 12.928 5.84038 12.8751C5.75341 12.8293 5.60768 12.7882 5.50661 12.8387C5.41024 12.8869 5.39026 12.9903 5.39144 13.0843C5.39261 13.1619 5.50896 13.3969 5.44432 13.1384Z"/>
  <path d="M16.6679 16.0565C16.6526 16.2916 16.6256 16.5266 16.6197 16.7628C16.6103 17.153 16.6397 17.5444 16.6385 17.9346C16.6373 18.8266 16.6479 19.7233 16.722 20.6129C16.7854 21.3804 16.9441 22.1266 16.9406 22.8976C16.9406 23.1233 16.9417 23.3489 16.9406 23.5745C16.9406 23.6697 16.9159 23.7967 16.9511 23.886C17.0651 23.7614 17.0628 23.3912 17.0886 23.2525C17.1498 22.9258 17.2931 22.6543 17.3813 22.3382C17.5646 21.673 17.6398 20.9514 17.6892 20.2662C17.7233 19.7867 17.7809 19.3096 17.7985 18.8301C17.8138 18.4235 17.8384 18.0168 17.8467 17.6102C17.8514 17.3328 17.9125 17.0931 17.9618 16.8239C18.0288 16.4608 17.9901 16.0694 17.9901 15.7016C17.9889 15.2832 17.9889 14.8648 17.9901 14.4464C17.9901 13.4428 17.9924 12.4391 17.9924 11.4355C17.9924 11.1205 18.0159 10.7903 17.9948 10.4765C17.9854 10.3319 17.9454 10.1827 17.9266 10.0393C17.9007 9.85241 17.8455 9.45752 17.7045 9.39171C17.6104 9.34705 17.44 9.40346 17.3507 9.44812C17.2685 9.48926 17.1838 9.53391 17.1074 9.59385C17.051 9.63851 16.9993 9.72078 16.9523 9.74898C16.9629 9.8007 16.9429 9.87709 16.9382 9.92997C16.9276 10.0992 16.9171 10.2684 16.9065 10.4377C16.87 11.0312 16.836 11.6235 16.8054 12.217C16.7431 13.4287 16.7032 14.6403 16.6773 15.8544C16.675 15.9214 16.6726 15.9895 16.6679 16.0565Z"/>
  <path d="M2.31582 10.3436C2.30524 10.9336 2.31111 11.5271 2.3405 12.1159C2.38045 12.8951 2.47917 13.6413 2.4827 14.4241C2.48505 14.7954 2.54616 15.2173 2.45685 15.5829C2.43687 15.6675 2.40043 15.745 2.38751 15.8308C2.34285 16.1329 2.39808 16.4725 2.42159 16.7745C2.4733 17.4327 2.56144 18.0885 2.63901 18.7431C2.76241 19.7761 2.9669 20.7998 3.09618 21.8316C3.13496 22.1419 3.23133 22.4369 3.23721 22.7495C3.24191 22.9446 3.21605 23.1408 3.24543 23.3336C3.26894 23.4864 3.24073 23.8859 3.39469 23.987C3.48283 24.0458 3.53102 23.8883 3.58743 23.8495C3.63326 23.8166 3.65677 23.846 3.70025 23.8096C3.72376 23.7085 3.74374 23.6062 3.75784 23.5028C3.79662 23.3324 3.84363 23.1643 3.89887 22.9986C4.0634 22.4098 4.1492 21.7811 4.18445 21.1711C4.21971 20.5847 4.11864 19.9559 4.23029 19.3812C4.282 19.1121 4.20678 18.7971 4.1821 18.5257C4.1539 18.206 4.12334 17.8863 4.08456 17.5678C3.98349 16.7193 3.83306 15.879 3.76842 15.0234C3.74139 14.6673 3.76254 14.3042 3.73081 13.9493C3.71083 13.7083 3.66735 13.4721 3.63326 13.2335C3.54395 12.593 3.52397 11.8985 3.52867 11.2474C3.53337 10.507 3.32888 9.16837 3.24191 9.18483C3.13496 9.20598 3.02214 9.16837 2.91401 9.18835C2.78474 9.21186 2.65546 9.27532 2.52971 9.30823C2.43099 9.33526 2.31464 9.28707 2.22297 9.33761C2.22062 9.35641 2.32052 10.0874 2.31582 10.3436Z"/>
  <path d="M5.61472 8.77819C5.79454 8.77819 5.97317 8.77937 6.15298 8.77702C6.42682 8.77349 6.68067 8.84048 6.95215 8.87456C7.24949 8.91099 7.53742 8.87221 7.83241 8.84283C8.03572 8.82168 8.24022 8.84636 8.44353 8.82168C8.77495 8.78172 9.07464 8.7065 9.41193 8.73823C9.61643 8.77819 9.82209 8.78524 10.0278 8.76056C10.1535 8.7253 10.2781 8.69005 10.4038 8.65597C10.6777 8.58193 10.9562 8.63129 11.2336 8.62306C11.5203 8.61483 11.7671 8.49026 12.0421 8.4738C12.2889 8.45852 12.5898 8.47733 12.8342 8.52081C13.1116 8.569 13.3431 8.73823 13.6311 8.77114C13.8203 8.79347 14.013 8.77819 14.2034 8.77819C14.3233 8.77819 14.442 8.77819 14.5619 8.77819C14.6594 8.77819 14.8004 8.80757 14.8933 8.78172C14.9814 8.75821 15.0778 8.68535 15.1342 8.61601C15.2259 8.50553 15.2059 8.01781 15.1083 7.89206C15.0813 7.85798 13.8156 7.56887 13.3278 7.3961C13.0881 7.31149 12.846 7.31971 12.598 7.29268C12.4476 7.27623 12.3019 7.24332 12.1503 7.25625C12.0057 7.268 11.8635 7.30914 11.7178 7.30679C11.4557 7.30326 11.2007 7.36555 10.9421 7.3632C10.8128 7.36202 10.6871 7.32324 10.559 7.31031C10.3709 7.29033 10.177 7.30561 9.9878 7.30561C9.66344 7.30679 9.31556 7.24685 8.99942 7.32794C8.8772 7.35967 8.7632 7.36907 8.63745 7.34674C8.39417 7.30444 8.16618 7.30796 7.91938 7.30444C7.59383 7.29974 7.32588 7.45957 7.00856 7.46662C6.81347 7.47132 6.61603 7.46309 6.41976 7.46309C6.28109 7.46309 6.14006 7.46192 6.00138 7.46309C5.86152 7.46544 5.74047 7.41961 5.60532 7.40903C5.4925 7.40081 5.37615 7.41256 5.2645 7.41138C5.14345 7.40903 5.10819 7.45957 5.03885 7.54889C4.96716 7.64173 4.86139 7.72165 4.81321 7.82977C4.81203 7.83094 4.78383 7.94964 4.785 7.94494C4.77442 8.01428 4.7756 8.07892 4.77677 8.15061C4.77677 8.21407 5.54773 8.77819 5.61472 8.77819Z"/>
  <path d="M14.2057 16.7193C13.8402 16.717 13.4218 16.858 13.0528 16.764C13.0446 16.67 13.2068 16.5219 13.2667 16.4467C13.4042 16.2786 13.55 16.0882 13.758 16.0341C13.8579 16.0083 14.4255 15.9401 14.4161 15.7732"/>
  <path d="M6.26469 16.4561C6.4633 16.4326 6.696 16.583 6.86994 16.6535C6.99569 16.7041 7.12614 16.7781 7.25659 16.8145C7.31183 16.831 7.36119 16.8181 7.40467 16.8639C7.25307 16.9003 7.05915 17.0143 6.92635 17.0954C6.75946 17.1953 6.59258 17.3081 6.43157 17.4163C6.3446 17.4762 6.19065 17.6736 6.06842 17.6055C6.1025 17.5361 6.18594 17.495 6.26469 17.5079"/>
  <path d="M9.9455 20.6634C10.284 20.3003 10.2522 19.7409 10.5143 19.3225C10.5672 19.3425 10.6542 19.4036 10.6953 19.4471C10.7447 19.4976 10.7635 19.6093 10.7905 19.6727C10.8434 19.7985 10.9151 19.9148 10.9668 20.0394C11.0032 20.1264 11.0208 20.2216 11.0502 20.312C11.0596 20.3426 11.136 20.4801 11.1442 20.5154C11.1713 20.6211 11.1019 20.7857 11.2101 20.855C11.2065 20.7915 11.2077 20.7269 11.2077 20.6634"/>
  <path d="M9.78802 12.512C9.8985 12.8269 10.0854 13.0902 10.2393 13.3863C10.2781 13.4615 10.3369 13.6555 10.4415 13.5897C10.4791 13.5661 10.499 13.4251 10.5084 13.3863C10.539 13.2606 10.5778 13.1536 10.6307 13.0349C10.6988 12.8833 10.7188 12.6906 10.8399 12.5648"/>
</svg>
