<?xml version="1.0" encoding="UTF-8" standalone="no"?>
<!-- Created with Inkscape (http://www.inkscape.org/) -->

<svg
   width="15.698713"
   height="24"
   viewBox="0 0 4.1536179 6.35"
   version="1.1"
   id="svg6076"
   inkscape:version="1.2.1 (9c6d41e4, 2022-07-14)"
   sodipodi:docname="cult-of-pnakotus.svg"
   xmlns:inkscape="http://www.inkscape.org/namespaces/inkscape"
   xmlns:sodipodi="http://sodipodi.sourceforge.net/DTD/sodipodi-0.dtd"
   xmlns="http://www.w3.org/2000/svg"
   xmlns:svg="http://www.w3.org/2000/svg">
  <sodipodi:namedview
     id="namedview6078"
     pagecolor="#505050"
     bordercolor="#eeeeee"
     borderopacity="1"
     inkscape:showpageshadow="0"
     inkscape:pageopacity="0"
     inkscape:pagecheckerboard="0"
     inkscape:deskcolor="#505050"
     inkscape:document-units="mm"
     showgrid="false"
     inkscape:zoom="0.7046647"
     inkscape:cx="-46.830783"
     inkscape:cy="104.30493"
     inkscape:window-width="1390"
     inkscape:window-height="941"
     inkscape:window-x="0"
     inkscape:window-y="25"
     inkscape:window-maximized="0"
     inkscape:current-layer="layer1" />
  <defs
     id="defs6073">
    <clipPath
       clipPathUnits="userSpaceOnUse"
       id="clipPath2187">
      <path
         d="m 159.654,697.573 h 22.76 v 22.761 h -22.76 z"
         id="path2185" />
    </clipPath>
  </defs>
  <g
     inkscape:label="Layer 1"
     inkscape:groupmode="layer"
     id="layer1"
     transform="translate(-117.69942,-121.10692)">
    <g
       id="g2181"
       transform="matrix(0.30806751,0,0,-0.30806751,67.203555,342.3565)">
      <g
         id="g2183"
         clip-path="url(#clipPath2187)">
        <g
           id="g2189"
           transform="matrix(0.1580564,0,0,-0.1715747,171.03365,708.95343)">
          <g
             id="g2191"
             transform="translate(24.7432,-28.1841)">
            <path
               d="m 0,0 c 0.302,0.447 0.54,0.878 0.788,1.359 0.316,0.61 0.546,1.216 0.955,1.771 0.392,0.533 0.47,1.185 0.7,1.792 0.367,0.963 0.447,2.014 0.294,3.046 -0.155,1.049 -0.599,2.109 -1.247,2.927 -0.442,0.56 -0.865,1.181 -1.196,1.808 -0.209,0.395 -0.476,0.786 -0.664,1.189 -0.18,0.382 -0.162,0.729 -0.161,1.14 0,0.295 -0.064,0.577 0.064,0.854 0.151,0.325 0.399,0.653 0.577,0.973 0.261,0.469 0.585,0.886 0.762,1.399 0.174,0.508 0.37,0.909 0.645,1.382 0.334,0.577 1.01,1.294 0.926,1.993 -0.01,0.088 -0.045,0.154 -0.079,0.221 0.737,0.189 1.487,0.341 2.262,0.417 l 1.333,-0.049 c 0.569,-0.161 0.93,-0.56 1.387,-1.296 0.3,-0.482 0.618,-1.095 0.724,-1.669 C 7.7,18.921 7.329,18.586 6.973,18.238 6.272,17.554 5.799,16.569 5.401,15.68 5.031,14.853 5.331,14.008 5.908,13.376 6.163,13.096 6.221,12.789 6.423,12.476 6.743,11.984 7.12,11.601 7.39,11.069 7.736,10.383 8.081,9.875 8.26,9.121 8.37,8.652 8.604,8.248 8.563,7.754 8.5,7.032 8.292,6.113 7.985,5.455 7.762,4.975 7.402,4.579 7.161,4.121 6.938,3.7 6.745,3.413 6.407,3.054 6.073,2.702 5.721,2.352 5.409,1.98 5.039,1.541 4.843,1.007 4.542,0.523 4.209,-0.013 3.874,-0.555 3.686,-1.167 3.546,-1.621 3.598,-2.077 3.597,-2.551 c 0,-0.387 -0.042,-0.733 0.089,-1.098 0.157,-0.442 0.437,-0.921 0.666,-1.33 0.335,-0.596 0.81,-1.104 1.245,-1.63 0.333,-0.404 0.674,-0.861 1.118,-1.15 0.5,-0.326 1.122,-0.818 1.739,-0.838 0.24,-0.008 0.576,0.103 0.733,-0.148 0.077,-0.125 0.061,-0.543 0.033,-0.681 -0.105,-0.501 -0.463,-0.942 -0.734,-1.394 -0.464,-0.776 -1.06,-1.321 -1.629,-2.019 -0.674,-0.829 -1.479,-1.632 -1.898,-2.631 -0.446,-1.062 -0.437,-2.181 -0.38,-3.322 0.043,-0.891 0.205,-1.79 0.665,-2.551 0.24,-0.399 0.443,-0.858 0.753,-1.21 0.286,-0.323 0.753,-0.506 1.163,-0.642 0.823,-0.273 2.819,-0.311 3.413,0.515 0.628,0.871 -0.574,1.479 -0.545,2.277 0.011,0.307 0.137,0.582 0.275,0.849 0.163,0.314 0.234,0.646 0.386,0.959 0.345,0.707 1.275,0.907 1.908,0.522 0.604,-0.367 1.716,-1.118 1.893,-1.838 0.053,-0.217 0.019,-0.52 -0.032,-0.733 -0.082,-0.346 -0.145,-0.732 -0.244,-1.086 -0.118,-0.426 -0.397,-0.757 -0.508,-1.187 -0.084,-0.324 -0.156,-0.783 -0.404,-1.043 -0.529,-0.557 -1.434,-0.927 -2.145,-1.189 -0.711,-0.263 -1.553,-0.44 -2.303,-0.455 -0.544,-0.011 -1.125,-0.084 -1.625,0.157 -0.367,0.178 -0.673,0.457 -1.041,0.639 -0.632,0.314 -1.249,0.479 -1.858,0.856 -0.391,0.241 -0.842,0.757 -1.073,1.155 -0.119,0.204 -0.168,0.443 -0.312,0.636 -0.118,0.159 -0.334,0.266 -0.467,0.4 -0.541,0.535 -0.752,1.019 -0.707,1.767 0.101,1.654 1.145,3.157 1.168,4.826 0.015,1 0.111,2.114 -0.074,3.101 -0.213,1.14 -0.721,2.043 -1.333,2.999 -0.639,1 -1.157,2.053 -1.816,3.041 -0.283,0.423 -0.577,0.799 -0.829,1.24 -0.209,0.367 -0.448,0.542 -0.403,0.977 0.091,0.893 0.312,1.616 0.815,2.341 C -0.388,-1.017 -0.308,-0.456 0,0"
               style="fill:#231f20;fill-opacity:1;fill-rule:nonzero;stroke:none"
               id="path2193" />
          </g>
        </g>
        <g
           id="g2195"
           transform="matrix(0.1580564,0,0,-0.1715747,171.03365,708.95343)">
          <g
             id="g2197"
             transform="translate(-41.2324,-46.7789)">
            <path
               d="M 0,0 C 0.153,-0.313 0.224,-0.645 0.387,-0.959 0.525,-1.226 0.65,-1.501 0.662,-1.809 0.691,-2.606 -0.512,-3.214 0.116,-4.085 0.711,-4.911 2.706,-4.873 3.53,-4.6 c 0.409,0.136 0.876,0.318 1.162,0.642 0.311,0.352 0.513,0.811 0.754,1.209 0.46,0.762 0.621,1.661 0.665,2.552 0.056,1.14 0.066,2.26 -0.38,3.322 C 5.312,4.124 4.506,4.926 3.832,5.755 3.264,6.454 2.667,6.999 2.203,7.774 1.933,8.227 1.574,8.667 1.47,9.169 1.441,9.307 1.426,9.725 1.503,9.85 c 0.157,0.251 0.492,0.14 0.733,0.148 0.617,0.02 1.239,0.512 1.739,0.838 0.443,0.289 0.785,0.746 1.118,1.15 0.434,0.525 0.91,1.034 1.245,1.63 0.229,0.409 0.509,0.888 0.666,1.33 0.131,0.365 0.089,0.711 0.089,1.097 -0.001,0.475 0.051,0.931 -0.089,1.385 -0.188,0.612 -0.523,1.154 -0.856,1.69 -0.301,0.484 -0.498,1.017 -0.867,1.457 -0.312,0.371 -0.665,0.721 -0.998,1.074 -0.339,0.358 -0.532,0.646 -0.754,1.067 -0.242,0.457 -0.601,0.854 -0.825,1.334 -0.307,0.658 -0.515,1.577 -0.577,2.299 -0.042,0.494 0.192,0.898 0.303,1.366 0.178,0.754 0.523,1.263 0.87,1.949 0.269,0.531 0.646,0.915 0.966,1.407 0.203,0.312 0.26,0.62 0.515,0.9 0.577,0.632 0.878,1.476 0.508,2.304 -0.398,0.889 -0.872,1.874 -1.572,2.558 -0.357,0.348 -0.728,0.683 -1.097,1.019 0.106,0.574 0.424,1.187 0.724,1.669 0.457,0.736 0.818,1.135 1.386,1.296 l 1.333,0.049 C 6.839,40.79 7.589,40.638 8.326,40.449 8.292,40.382 8.257,40.316 8.246,40.228 8.162,39.529 8.839,38.812 9.173,38.234 c 0.274,-0.472 0.47,-0.873 0.645,-1.381 0.177,-0.513 0.5,-0.931 0.762,-1.399 0.178,-0.32 0.426,-0.648 0.576,-0.973 0.129,-0.277 0.065,-0.56 0.065,-0.855 10e-4,-0.41 0.019,-0.757 -0.161,-1.14 C 10.871,32.083 10.604,31.692 10.396,31.298 10.064,30.67 9.642,30.049 9.2,29.49 8.552,28.671 8.108,27.612 7.953,26.562 7.799,25.53 7.88,24.48 8.246,23.517 c 0.231,-0.607 0.309,-1.26 0.7,-1.792 0.41,-0.556 0.64,-1.162 0.955,-1.771 0.248,-0.481 0.487,-0.912 0.788,-1.359 0.308,-0.456 0.388,-1.017 0.702,-1.47 0.503,-0.724 0.724,-1.448 0.815,-2.34 C 12.25,14.35 12.012,14.175 11.803,13.808 11.551,13.367 11.257,12.991 10.974,12.567 10.314,11.58 9.797,10.527 9.158,9.527 8.546,8.571 8.037,7.668 7.824,6.528 7.64,5.541 7.736,4.427 7.75,3.426 7.774,1.757 8.817,0.255 8.918,-1.399 8.964,-2.147 8.753,-2.631 8.212,-3.167 8.078,-3.3 7.863,-3.408 7.745,-3.566 7.601,-3.759 7.552,-3.999 7.433,-4.203 7.201,-4.601 6.75,-5.117 6.36,-5.357 5.75,-5.734 5.134,-5.899 4.501,-6.213 4.134,-6.395 3.828,-6.674 3.46,-6.852 2.961,-7.094 2.38,-7.02 1.836,-7.009 c -0.751,0.014 -1.593,0.192 -2.303,0.454 -0.712,0.263 -1.617,0.633 -2.145,1.189 -0.248,0.261 -0.321,0.72 -0.405,1.044 -0.111,0.43 -0.389,0.76 -0.507,1.187 -0.099,0.354 -0.163,0.739 -0.245,1.086 -0.05,0.213 -0.085,0.516 -0.031,0.733 0.176,0.72 1.288,1.47 1.893,1.837 C -1.274,0.906 -0.344,0.707 0,0"
               style="fill:#231f20;fill-opacity:1;fill-rule:nonzero;stroke:none"
               id="path2199" />
          </g>
        </g>
        <g
           id="g2201"
           transform="matrix(0.1580564,0,0,-0.1715747,171.03365,708.95343)">
          <g
             id="g2203"
             transform="translate(36.1514,62.5683)">
            <path
               d="m 0,0 c -0.125,-0.471 -0.283,-0.867 -0.459,-1.315 -0.288,-0.739 -0.4,-1.542 -0.618,-2.302 -0.293,-1.02 -0.454,-2.058 -0.761,-3.079 -0.328,-1.092 -0.639,-2.201 -0.875,-3.318 -0.205,-0.966 -0.456,-1.903 -0.807,-2.828 -0.347,-0.918 -0.398,-1.923 -0.763,-2.829 -0.155,-0.385 -0.172,-0.789 -0.264,-1.192 -0.05,-0.22 -0.157,-0.418 -0.198,-0.634 -0.052,-0.274 0.087,-0.602 0.344,-0.734 0.168,-0.087 0.34,0.015 0.509,-0.025 0.156,-0.037 0.229,-0.096 0.372,-0.164 0.096,0.027 0.188,0.021 0.277,-0.02 0.04,-0.099 0.099,-0.183 0.179,-0.254 0.171,-0.101 0.414,0.002 0.603,-0.049 -0.041,-0.4 -0.391,-0.748 -0.6,-1.078 -0.327,-0.516 -0.383,-1.133 -0.696,-1.666 -0.43,-0.739 -0.802,-1.463 -1.145,-2.25 -0.163,-0.375 -0.215,-0.718 -0.327,-1.104 -0.094,-0.321 -0.3,-0.58 -0.392,-0.902 -0.179,-0.619 -0.455,-1.226 -0.576,-1.861 -0.106,-0.558 -0.121,-1.111 -0.256,-1.669 -0.112,-0.466 -0.296,-0.866 -0.391,-1.334 -0.067,-0.334 -0.017,-0.588 -0.186,-0.905 -0.473,0.866 -0.566,1.903 -0.922,2.832 -0.608,1.587 -0.789,3.265 -1.602,4.771 -0.382,0.708 -0.409,1.529 -0.766,2.26 -0.21,0.429 -0.308,0.951 -0.59,1.335 -0.352,0.478 -0.499,1.226 -0.957,1.608 0.21,-0.005 0.357,-0.138 0.557,-0.175 0.244,-0.045 0.389,0.06 0.604,0.123 0.502,0.148 1.021,0.373 1.535,0.462 0.719,0.124 0.869,0.126 0.653,0.948 -0.24,0.915 -0.49,1.825 -0.69,2.749 -0.225,1.031 -0.506,2.016 -0.688,3.061 -0.176,1.008 -0.35,2.002 -0.462,3.019 -0.065,0.584 -0.052,1.142 -0.151,1.722 -0.083,0.491 -0.157,0.885 -0.304,1.36 -0.155,0.5 -0.226,1.033 -0.378,1.537 -0.163,0.541 -0.394,1.055 -0.585,1.586 -0.282,0.78 -0.516,1.671 -0.912,2.364 -0.154,0.267 -0.527,0.63 -0.317,0.906 0.107,0.141 0.459,0.273 0.614,0.372 0.311,0.198 0.525,0.36 0.739,0.688 0.128,0.272 0.291,0.521 0.487,0.749 0.208,0.173 0.418,0.343 0.628,0.514 0.395,0.383 0.716,0.936 1.027,1.388 0.335,0.485 0.632,0.997 0.994,1.464 0.344,0.442 0.815,0.721 1.196,1.122 0.35,0.369 0.407,0.876 0.74,1.242 0.146,0.098 0.289,0.202 0.426,0.313 0.181,0.186 0.333,0.395 0.453,0.627 0.449,0.688 1.143,1.1 1.726,1.657 0.757,0.722 0.529,-0.099 1.224,-0.622 -0.068,-0.246 0.084,-0.257 0.191,-0.413 0.145,-0.208 0.314,-0.46 0.424,-0.692 0.269,-0.56 0.487,-1.18 0.722,-1.761 0.227,-0.559 0.42,-1.147 0.687,-1.685 C -0.486,5.437 -0.356,4.911 -0.042,4.476 0.199,4.142 0.402,3.812 0.577,3.437 0.711,3.149 0.927,2.857 0.923,2.521 0.92,2.195 0.748,1.946 0.614,1.649 0.362,1.091 0.159,0.599 0,0"
               style="fill:#231f20;fill-opacity:1;fill-rule:nonzero;stroke:none"
               id="path2205" />
          </g>
        </g>
        <g
           id="g2207"
           transform="matrix(0.1580564,0,0,-0.1715747,171.03365,708.95343)">
          <g
             id="g2209"
             transform="translate(-29.3882,60.5665)">
            <path
               d="m 0,0 c -0.125,-0.471 -0.283,-0.866 -0.458,-1.315 -0.289,-0.739 -0.401,-1.541 -0.62,-2.302 -0.292,-1.02 -0.453,-2.058 -0.76,-3.079 -0.328,-1.092 -0.639,-2.201 -0.875,-3.317 -0.204,-0.966 -0.455,-1.903 -0.807,-2.828 -0.348,-0.919 -0.398,-1.924 -0.763,-2.829 -0.155,-0.386 -0.172,-0.789 -0.264,-1.193 -0.05,-0.22 -0.157,-0.417 -0.198,-0.634 -0.052,-0.273 0.087,-0.602 0.343,-0.734 0.168,-0.087 0.341,0.016 0.511,-0.025 0.155,-0.037 0.228,-0.095 0.371,-0.163 0.096,0.026 0.188,0.02 0.277,-0.021 0.039,-0.098 0.099,-0.183 0.178,-0.254 0.173,-0.101 0.415,0.002 0.604,-0.049 -0.041,-0.399 -0.391,-0.748 -0.6,-1.078 -0.327,-0.515 -0.383,-1.132 -0.695,-1.666 -0.432,-0.738 -0.803,-1.462 -1.146,-2.25 -0.164,-0.375 -0.216,-0.717 -0.328,-1.104 -0.093,-0.321 -0.299,-0.58 -0.392,-0.901 -0.178,-0.62 -0.454,-1.227 -0.575,-1.862 -0.106,-0.558 -0.121,-1.11 -0.256,-1.669 -0.112,-0.466 -0.296,-0.866 -0.39,-1.333 -0.069,-0.335 -0.018,-0.589 -0.187,-0.906 -0.473,0.867 -0.566,1.904 -0.922,2.832 -0.608,1.587 -0.79,3.265 -1.602,4.771 -0.382,0.709 -0.409,1.53 -0.766,2.26 -0.21,0.429 -0.308,0.951 -0.591,1.336 -0.351,0.477 -0.499,1.225 -0.956,1.607 0.209,-0.004 0.357,-0.138 0.557,-0.174 0.244,-0.045 0.389,0.06 0.604,0.122 0.502,0.148 1.021,0.373 1.536,0.462 0.717,0.125 0.868,0.126 0.652,0.949 -0.24,0.914 -0.489,1.825 -0.69,2.748 -0.224,1.032 -0.506,2.016 -0.688,3.062 -0.176,1.008 -0.35,2.001 -0.463,3.018 -0.064,0.585 -0.051,1.142 -0.149,1.723 -0.084,0.49 -0.159,0.884 -0.305,1.359 -0.155,0.5 -0.227,1.034 -0.378,1.537 -0.163,0.541 -0.394,1.056 -0.585,1.586 -0.281,0.781 -0.516,1.671 -0.912,2.364 -0.154,0.267 -0.527,0.631 -0.317,0.907 0.107,0.141 0.46,0.272 0.614,0.371 0.311,0.199 0.525,0.36 0.739,0.688 0.128,0.272 0.29,0.522 0.487,0.749 0.208,0.173 0.417,0.344 0.628,0.514 0.396,0.384 0.715,0.936 1.028,1.389 0.334,0.484 0.631,0.996 0.994,1.463 0.344,0.443 0.814,0.722 1.194,1.122 0.351,0.369 0.407,0.877 0.741,1.242 0.147,0.098 0.288,0.202 0.426,0.314 0.182,0.185 0.333,0.394 0.453,0.626 0.449,0.688 1.143,1.1 1.727,1.658 0.756,0.721 0.527,-0.1 1.223,-0.622 -0.068,-0.247 0.084,-0.258 0.191,-0.413 0.145,-0.209 0.314,-0.461 0.425,-0.693 0.267,-0.56 0.486,-1.18 0.721,-1.761 0.227,-0.558 0.419,-1.146 0.688,-1.685 0.239,-0.482 0.37,-1.008 0.684,-1.443 C 0.199,4.142 0.402,3.812 0.577,3.437 0.71,3.149 0.927,2.857 0.923,2.522 0.92,2.196 0.748,1.946 0.614,1.649 0.362,1.092 0.159,0.599 0,0"
               style="fill:#231f20;fill-opacity:1;fill-rule:nonzero;stroke:none"
               id="path2211" />
          </g>
        </g>
        <g
           id="g2213"
           transform="matrix(0.1580564,0,0,-0.1715747,171.03365,708.95343)">
          <g
             id="g2215"
             transform="translate(40.2246,21.4755)">
            <path
               d="m 0,0 c -0.122,-0.746 -0.126,-1.354 -0.515,-2.02 -0.211,-0.36 -0.469,-0.704 -0.619,-1.095 -0.149,-0.39 -0.222,-0.802 -0.413,-1.177 -0.156,-0.305 -0.413,-0.516 -0.589,-0.805 -0.271,-0.445 -0.436,-0.974 -0.689,-1.436 -0.164,-0.302 -0.31,-0.595 -0.503,-0.879 -0.266,-0.392 -0.624,-0.679 -0.886,-1.079 -0.22,-0.337 -0.382,-0.704 -0.611,-1.034 -0.344,-0.496 -0.804,-0.9 -1.237,-1.315 -0.373,-0.355 -0.751,-0.681 -1.013,-1.13 -0.23,-0.394 -0.441,-0.767 -0.748,-1.11 -0.227,-0.253 -0.519,-0.433 -0.726,-0.703 -0.296,-0.386 -0.363,-0.87 -0.611,-1.277 -0.218,-0.358 -0.526,-0.657 -0.748,-1.016 -0.266,-0.429 -0.55,-0.85 -0.808,-1.283 -0.246,-0.412 -0.379,-0.861 -0.597,-1.285 -0.248,-0.478 -0.524,-0.926 -0.758,-1.412 -0.158,-0.323 -0.294,-0.656 -0.449,-0.979 -0.151,-0.316 -0.428,-0.555 -0.562,-0.88 -0.125,-0.303 -0.17,-0.638 -0.291,-0.946 -0.156,-0.403 -0.231,-0.743 -0.248,-1.171 0,-0.015 -0.004,-0.039 -0.005,-0.056 l 0.171,-0.006 c -0.053,-0.141 -0.108,-0.277 -0.162,-0.413 0.023,-0.045 0.076,-0.077 0.128,-0.11 l -0.207,-0.092 c -0.098,-0.226 -0.209,-0.45 -0.359,-0.68 -0.411,-0.632 -0.888,-1.229 -1.419,-1.767 -0.352,-0.358 -0.756,-0.656 -1.166,-0.947 -2.179,-1.544 -4.242,-3.349 -6.456,-4.876 -0.34,-0.234 -0.726,-0.367 -1.067,-0.598 -0.364,-0.247 -0.705,-0.545 -1.056,-0.811 -0.854,-0.647 -1.709,-1.296 -2.562,-1.943 -1.377,-1.044 -2.759,-2.084 -4.132,-3.133 -0.905,-0.691 -1.906,-1.227 -2.797,-1.93 -0.214,-0.169 -0.439,-0.313 -0.667,-0.454 -0.045,-0.064 -0.082,-0.133 -0.13,-0.194 -0.446,-0.567 -1.068,-0.785 -1.618,-1.206 -0.488,-0.374 -1.074,-0.895 -1.474,-1.359 -0.087,-0.101 -0.161,-0.195 -0.233,-0.286 0.094,-0.422 0.386,-0.809 0.572,-1.194 0.149,-0.308 0.296,-0.809 0.584,-1.038 0.197,-0.155 0.549,-0.218 0.783,-0.337 0.58,-0.294 1.219,-0.494 1.784,-0.811 0.546,-0.306 1.064,-0.666 1.611,-0.971 0.152,-0.085 0.379,-0.128 0.505,-0.238 0.132,-0.118 0.195,-0.357 0.304,-0.495 0.326,-0.418 0.679,-0.491 0.647,-1.054 -0.024,-0.437 0.23,-0.803 0.026,-1.178 -0.083,-0.153 -0.191,-0.165 -0.264,-0.362 -0.053,-0.144 -0.04,-0.315 -0.093,-0.458 -0.079,-0.215 -0.12,-0.214 -0.291,-0.374 -0.223,-0.209 -0.264,-0.41 -0.397,-0.669 -0.178,-0.348 -0.461,-0.521 -0.822,-0.728 -0.285,-0.162 -0.812,-0.35 -1.146,-0.295 -0.201,0.032 -0.218,0.125 -0.379,0.196 -0.255,0.113 -0.487,0.069 -0.758,0.197 -0.136,0.065 -0.271,0.118 -0.404,0.176 -0.272,0.116 -0.309,0.249 -0.514,0.42 -0.104,0.087 -0.217,0.066 -0.315,0.158 -0.2,0.186 -0.353,0.563 -0.505,0.794 -0.096,0.146 -0.389,0.43 -0.365,0.606 0.018,0.121 0.365,0.253 0.434,0.323 0.108,0.111 0.125,0.242 0.271,0.361 0.118,0.096 0.504,0.209 0.527,0.367 0.066,0.448 -1.069,0.587 -1.317,0.552 -0.552,-0.076 -0.979,-0.188 -1.19,-0.747 -0.089,-0.235 -0.107,-0.516 -0.125,-0.755 -0.005,-0.074 -0.09,-0.157 -0.08,-0.239 0.021,-0.177 0.146,-0.223 0.209,-0.367 0.095,-0.215 0.108,-0.438 0.212,-0.649 0.105,-0.212 0.28,-0.421 0.41,-0.62 0.466,-0.718 1.043,-1.097 1.826,-1.38 0.434,-0.157 0.813,-0.27 1.246,-0.473 0.181,-0.085 0.352,-0.106 0.456,-0.263 0.051,-0.075 -0.048,-0.123 -0.025,-0.183 0.054,-0.137 0.116,-0.265 0.186,-0.397 -0.238,-0.218 -0.239,-0.249 -0.367,-0.518 -0.085,-0.177 -0.181,-0.373 -0.293,-0.535 -0.11,-0.159 -0.262,-0.273 -0.373,-0.458 -0.144,-0.24 -0.144,-0.354 -0.466,-0.385 -0.268,-0.025 -0.478,0.134 -0.716,0.223 -0.404,0.15 -0.851,0.296 -1.269,0.421 -0.575,0.172 -1.23,0.228 -1.801,-0.031 -0.564,-0.257 -0.893,-0.692 -1.279,-1.136 -0.246,-0.282 -0.469,-0.503 -0.645,-0.836 -0.102,-0.192 -0.093,-0.255 -0.244,-0.435 -0.122,-0.146 -0.38,-0.242 -0.456,-0.429 -0.367,-0.901 1.841,-2.079 2.498,-1.173 -0.17,0.289 -0.972,0.395 -0.807,0.826 0.079,0.208 0.838,0.552 1.029,0.676 0.303,0.197 0.591,0.439 0.942,0.52 0.371,0.085 0.789,0.078 1.156,0.077 0.262,0 0.233,0.017 0.482,-0.105 0.25,-0.122 0.334,-0.09 0.616,-0.108 0.556,-0.035 0.824,-0.429 1.269,-0.718 0.578,-0.377 1.169,-0.722 1.663,-1.212 0.334,-0.332 0.71,-0.512 0.987,-0.924 0.196,-0.291 0.562,-0.675 0.274,-1.013 -0.105,-0.122 -0.296,-0.162 -0.409,-0.295 -0.161,-0.187 -0.2,-0.443 -0.388,-0.615 -0.239,-0.219 -0.622,-0.414 -0.905,-0.58 -0.199,-0.117 -0.296,-0.088 -0.475,-0.153 -0.339,-0.124 -0.607,-0.353 -0.969,-0.442 -0.501,-0.126 -0.887,-0.391 -1.364,-0.539 -0.403,-0.125 -0.816,-0.163 -1.238,-0.211 -0.527,-0.06 -0.865,-0.074 -1.321,-0.365 -0.429,-0.274 -0.902,-0.385 -1.337,-0.671 -0.562,-0.37 -0.913,-0.635 -1.296,-1.231 -0.359,-0.556 -0.713,-0.979 -1.097,-1.479 -0.588,-0.765 -1.253,-1.422 -2.057,-1.949 -0.359,-0.235 -0.685,-0.511 -1.107,-0.611 -0.393,-0.093 -0.793,-0.137 -1.189,-0.235 -0.612,-0.152 -1.138,-0.046 -1.757,-0.008 -1.316,0.079 -2.548,0.57 -3.681,1.232 -0.55,0.322 -1.226,0.48 -1.744,0.856 -0.459,0.333 -0.854,0.84 -1.161,1.319 -0.422,0.661 -0.839,1.123 -0.894,1.917 -0.039,0.543 -0.372,0.869 -0.595,1.34 -0.136,0.29 -0.195,0.594 -0.307,0.892 -0.138,0.369 -0.491,0.707 -0.591,1.067 -0.187,0.67 -0.363,1.398 -0.549,2.083 -0.108,0.4 0.097,0.737 0.172,1.124 0.115,0.592 0.247,1.212 0.267,1.817 0.013,0.408 -0.035,0.736 0.134,1.114 0.184,0.415 0.385,0.818 0.565,1.236 0.245,0.568 0.505,1.16 0.812,1.698 0.239,0.42 0.639,0.73 0.854,1.154 0.152,0.301 0.218,0.625 0.39,0.918 0.177,0.301 0.403,0.584 0.617,0.859 0.241,0.311 0.543,0.579 0.68,0.952 0.2,0.546 0.223,0.624 0.748,1.032 0.284,0.22 0.556,0.47 0.814,0.721 0.253,0.247 0.395,0.561 0.642,0.805 0.725,0.721 1.917,1.192 2.925,1.241 0.593,0.029 1.178,-0.108 1.768,-0.164 0.373,-0.036 0.8,-0.079 1.147,-0.227 0.418,-0.178 0.666,-0.639 0.951,-0.978 0.387,-0.459 0.777,-0.936 1.049,-1.478 0.226,-0.448 0.211,-0.605 0.084,-1.064 -0.115,-0.413 0.013,-0.794 -0.098,-1.196 -0.147,-0.527 -0.473,-0.96 -0.706,-1.443 -0.218,-0.452 -0.345,-0.826 -0.7,-1.203 -0.701,-0.743 -1.681,-1.837 -2.796,-1.818 -0.741,0.013 -1.625,0.243 -2.151,0.766 -0.506,0.506 -0.937,0.824 -0.615,1.543 0.191,0.424 0.758,1.274 1.212,1.488 0.377,0.177 1.061,0.301 1.371,-0.013 0.117,-0.12 0.159,-0.299 0.283,-0.409 0.294,-0.259 0.745,-0.134 1.066,0.01 0.338,0.151 0.8,0.368 0.815,0.779 0.013,0.347 -0.317,0.757 -0.496,1.029 -0.611,0.929 -1.308,1.795 -2.544,1.581 -0.821,-0.141 -1.901,-0.718 -2.322,-1.452 -0.292,-0.507 -0.55,-1.1 -0.77,-1.638 -0.277,-0.68 -0.232,-1.075 -0.125,-1.778 0.143,-0.94 0.671,-2.019 1.223,-2.804 0.274,-0.39 0.55,-0.633 0.983,-0.833 0.57,-0.264 0.928,-0.272 1.511,-0.138 1.087,0.251 2.076,0.571 3.03,1.165 0.493,0.308 1.099,0.593 1.478,1.039 0.351,0.416 0.748,1.077 0.986,1.567 0.533,1.093 0.198,2.418 0.298,3.575 0.04,0.454 0.048,0.863 -0.06,1.303 -0.22,0.898 -0.504,1.899 -0.962,2.706 -0.444,0.783 -1.222,1.324 -2.115,1.438 -0.535,0.069 -0.915,0.134 -1.44,-0.019 -0.576,-0.168 -1.066,-0.413 -1.638,-0.104 -1.039,0.56 -1.22,1.475 -1.27,2.559 -0.031,0.693 -0.12,1.242 0.045,1.928 0.185,0.77 0.274,1.511 0.307,2.31 0.009,0.213 -0.003,0.421 -0.017,0.629 -0.889,0.628 -1.874,1.121 -2.765,1.753 -1.432,1.017 -2.873,2.024 -4.31,3.036 -0.891,0.628 -1.782,1.257 -2.674,1.884 -0.366,0.258 -0.72,0.549 -1.101,0.787 -0.357,0.223 -0.767,0.343 -1.122,0.569 -1.104,0.702 -2.169,1.471 -3.228,2.244 -0.009,-0.001 -0.018,-0.002 -0.027,-0.003 l -0.053,0.061 c -1.135,0.829 -2.264,1.662 -3.428,2.423 -0.428,0.281 -0.85,0.57 -1.213,0.922 -0.549,0.529 -0.142,1.261 -0.558,1.891 -0.199,0.3 -0.191,0.657 -0.219,0.998 l -0.31,0.356 c 0.062,0.008 0.124,0.015 0.164,0.046 0.103,0.08 0.154,0.311 0.203,0.428 0.166,0.395 0.244,0.734 0.272,1.166 0.022,0.33 0.123,0.652 0.138,0.98 0.017,0.351 -0.133,0.685 -0.136,1.036 -0.003,0.357 0.014,0.717 0.01,1.076 -0.007,0.54 -0.067,1.062 -0.088,1.6 -0.018,0.477 0.052,0.939 0.003,1.417 -0.05,0.502 -0.128,1.004 -0.187,1.505 -0.049,0.42 -0.201,0.821 -0.247,1.238 -0.052,0.473 0.093,0.94 -0.011,1.415 -0.073,0.333 -0.261,0.62 -0.36,0.945 -0.133,0.44 -0.166,0.867 -0.207,1.322 -0.046,0.518 -0.252,0.973 -0.437,1.453 -0.216,0.56 -0.462,1.12 -0.564,1.715 -0.067,0.396 -0.058,0.798 -0.114,1.195 -0.068,0.474 -0.27,0.886 -0.345,1.353 -0.054,0.34 -0.062,0.667 -0.083,1.01 -0.033,0.526 0.042,1.075 -0.015,1.592 -0.036,0.338 -0.18,0.637 -0.191,0.979 -0.014,0.422 0.094,0.825 0.124,1.241 0.031,0.418 -0.058,0.84 -0.096,1.255 -0.07,0.769 0.185,1.319 0.39,2.048 0.135,0.478 0.486,0.802 0.875,1.096 0.351,0.264 0.489,0.343 0.921,0.293 0.339,-0.04 0.665,-0.123 1.002,-0.194 0.454,-0.095 0.667,-0.262 1.045,-0.513 0.131,-0.087 0.332,-0.092 0.453,-0.192 0.072,-0.059 0.088,-0.136 0.149,-0.206 0.197,-0.226 0.42,-0.427 0.589,-0.662 0.189,-0.265 0.323,-0.355 0.398,-0.693 0.073,-0.325 0.232,-0.615 0.348,-0.921 0.092,-0.242 0.105,-0.489 0.16,-0.745 0.09,-0.421 0.299,-0.62 0.217,-1.049 -0.047,-0.25 0.044,-0.409 0.043,-0.643 0,-0.122 -0.046,-0.244 -0.049,-0.37 -0.006,-0.303 -0.015,-0.616 0.004,-0.919 0.023,-0.357 0.167,-0.732 0.128,-1.093 -0.021,-0.193 -0.091,-0.32 -0.088,-0.524 0.003,-0.17 0.061,-0.344 0.067,-0.518 0.011,-0.314 -0.169,-0.929 0.072,-1.194 0.172,-0.188 0.384,-0.137 0.587,-0.144 0.318,-0.012 0.203,-0.133 0.245,0.174 0.032,0.234 0.082,0.369 0.029,0.615 -0.039,0.174 -0.105,0.25 -0.104,0.432 0,0.127 0.023,0.253 0.017,0.387 -0.013,0.302 -0.067,0.548 -0.115,0.836 -0.079,0.477 0.113,1.016 0.19,1.474 0.045,0.265 0.262,0.854 0.533,0.952 0.267,0.096 0.584,-0.142 0.817,-0.253 0.493,-0.235 0.994,-0.747 1.077,-1.304 0.029,-0.195 0.023,-0.41 0.048,-0.603 0.061,-0.464 -0.114,-0.942 -0.121,-1.417 -0.007,-0.513 0.123,-1.006 0.074,-1.539 -0.027,-0.293 -0.001,-0.57 -0.027,-0.835 -0.028,-0.295 -0.087,-0.575 -0.099,-0.874 -0.019,-0.438 -0.008,-0.764 0.225,-1.143 0.109,-0.178 0.241,-0.329 0.314,-0.526 0.069,-0.185 0.07,-0.404 0.122,-0.592 0.066,-0.242 0.169,-0.285 0.281,-0.474 0.583,-0.979 -0.173,-2.007 -0.108,-3.009 0.025,-0.388 0.044,-0.832 0.168,-1.213 0.081,-0.247 0.278,-0.462 0.298,-0.717 0.026,-0.328 -0.173,-0.711 -0.224,-1.034 -0.057,-0.353 -0.161,-0.722 -0.198,-1.076 -0.024,-0.237 0,-0.426 -0.048,-0.67 -0.057,-0.29 -0.071,-0.579 -0.041,-0.873 0.067,-0.664 0.048,-1.313 0.116,-1.982 0.048,-0.471 -0.019,-0.809 -0.169,-1.249 -0.207,-0.607 0.217,-1.144 0.109,-1.739 -0.053,-0.295 -0.229,-0.513 -0.239,-0.826 -0.005,-0.149 0.015,-0.291 0.042,-0.431 l 0.709,-0.067 c 0.119,-0.318 2.251,-2.2 2.421,-2.373 0.852,-0.866 2.157,-1.308 3.121,-2.045 1.08,-0.824 2.159,-1.653 3.379,-2.29 1.184,-0.617 2.131,-1.502 3.379,-2.018 0.042,-0.018 0.083,-0.035 0.124,-0.053 0.095,0.154 0.19,0.308 0.286,0.46 0.441,0.704 1.028,1.374 1.351,2.143 0.242,0.577 0.365,1.198 0.596,1.776 0.418,1.048 0.878,2.039 1.242,3.116 0.473,1.4 0.798,2.751 0.845,4.235 0.025,0.803 0.042,1.59 -0.189,2.369 -0.101,0.342 -0.248,0.656 -0.362,0.993 -0.272,0.813 -0.268,1.728 -0.688,2.488 -0.505,0.916 -0.876,1.88 -1.282,2.841 -0.25,0.593 -0.662,0.969 -0.998,1.501 -0.221,0.35 -0.492,0.667 -0.774,0.972 -0.148,0.16 -0.34,0.221 -0.475,0.358 -0.241,0.243 -0.37,0.627 -0.582,0.899 -0.269,0.346 -0.643,0.639 -0.741,1.082 -0.096,0.44 0.073,0.908 0.05,1.349 -0.019,0.357 -0.198,0.583 -0.289,0.919 -0.016,0.056 -0.024,0.115 -0.037,0.173 -0.564,0.711 -0.986,1.514 -1.463,2.29 -0.56,0.911 -1.262,1.726 -1.854,2.604 l -1.343,-0.087 c -0.111,0.543 -0.181,1.093 -0.153,1.663 0.032,0.661 -0.041,1.29 -0.078,1.952 -0.051,0.933 0.156,1.727 0.296,2.648 0.117,0.767 0.169,1.136 0.624,1.739 0.395,0.523 0.743,1.102 1.182,1.586 0.468,0.515 1.08,1.07 1.648,1.488 0.549,0.404 1.145,0.584 1.776,0.819 1.027,0.384 1.996,0.877 3.067,1.115 0.596,0.133 1.192,0.445 1.348,1.111 0.198,0.844 -0.644,1.967 -1.145,2.614 -0.203,0.262 -0.439,0.477 -0.632,0.745 -0.268,0.373 -0.436,0.807 -0.704,1.18 -0.412,0.572 -1.052,0.914 -1.528,1.434 -0.531,0.582 -1.065,1.01 -1.687,1.486 -0.991,0.758 -1.857,1.716 -2.841,2.494 -0.732,0.578 -1.387,1.225 -2.074,1.861 -1.063,0.984 -2.227,1.847 -3.273,2.847 -0.935,0.894 -2.949,2.649 -2.003,4.148 0.674,1.07 1.556,2.068 2.309,3.084 0.88,1.189 1.759,2.378 2.64,3.567 0.523,0.708 0.986,1.476 1.69,2.017 0.763,0.586 1.508,1.183 2.251,1.793 0.889,0.731 1.974,1.286 2.948,1.902 0.47,0.298 0.969,0.592 1.55,0.446 0.44,-0.112 0.833,-0.523 1.199,-0.785 0.365,-0.261 0.639,-0.518 0.8,-0.949 0.172,-0.46 0.25,-0.968 0.375,-1.442 0.092,-0.345 0.241,-0.731 0.235,-1.089 -0.008,-0.52 -0.351,-0.773 -0.635,-1.17 -0.499,-0.696 -0.695,-1.509 -1.236,-2.196 -0.485,-0.615 -0.707,-1.329 -1.103,-1.994 -0.355,-0.596 -0.854,-1.114 -1.386,-1.556 -0.26,-0.216 -0.546,-0.445 -0.688,-0.762 0.397,-0.452 0.807,-0.982 1.271,-1.358 0.336,-0.272 0.713,-0.494 1.048,-0.765 0.509,-0.411 0.807,-0.998 1.346,-1.382 0.471,-0.336 0.798,-0.706 1.159,-1.146 0.184,-0.223 0.474,-0.35 0.646,-0.561 0.165,-0.203 0.112,-0.27 0.374,-0.481 0.455,-0.367 0.927,-0.642 1.317,-1.083 0.876,-0.989 1.911,-1.815 2.824,-2.776 0.54,-0.568 0.95,-1.238 1.478,-1.817 0.595,-0.653 1.16,-1.236 1.643,-1.976 0.825,-1.264 1.748,-2.466 2.654,-3.675 0.773,-1.032 1.574,-2.037 2.573,-2.857 0.575,-0.471 0.238,-1.233 0.185,-1.895 -0.049,-0.626 -0.066,-1.226 -0.237,-1.788 0.025,0.005 0.05,0.014 0.076,0.017 0.657,0.119 1.315,0.135 1.98,0.154 0.681,0.018 1.297,0.18 1.965,0.259 0.577,0.067 1.111,0.159 1.678,0.291 0.222,0.051 0.535,0.061 0.726,0.204 0.266,0.2 0.197,0.528 0.161,0.834 -0.037,0.333 -0.059,0.832 -0.177,1.146 -0.116,0.313 -0.329,0.622 -0.462,0.937 -0.167,0.395 -0.282,0.813 -0.44,1.206 -0.415,1.034 -0.834,2.086 -1.318,3.097 -0.231,0.485 -0.333,1.004 -0.537,1.496 -0.206,0.498 -0.511,0.92 -0.688,1.437 -0.255,0.743 -0.567,1.445 -0.862,2.173 -0.303,0.742 -0.74,1.393 -1.077,2.119 -0.653,1.401 -1.348,2.784 -2.022,4.179 -0.242,0.501 -0.508,0.866 -0.389,1.436 0.066,0.321 0.237,0.709 0.414,0.995 0.526,0.857 1.231,1.653 1.83,2.46 0.63,0.852 1.273,1.553 2.062,2.267 0.729,0.66 1.284,1.46 2.025,2.115 0.552,0.488 1.151,0.866 1.763,1.274 0.721,0.48 1.33,0.877 2.132,1.224 0.753,0.326 1.534,0.748 2.379,0.705 0.587,-0.03 0.926,-0.337 1.377,-0.677 0.361,-0.271 0.422,-0.407 0.482,-0.877 0.039,-0.313 0.03,-0.552 -0.029,-0.858 -0.088,-0.455 -0.035,-0.904 -0.079,-1.363 -0.049,-0.497 -0.34,-0.66 -0.57,-1.098 -0.287,-0.545 -0.458,-1.158 -0.653,-1.741 -0.4,-1.192 -0.642,-2.385 -1.143,-3.541 -0.285,-0.66 -0.564,-1.157 -0.963,-1.744 -0.256,-0.376 -0.091,-0.608 -0.006,-1.037 0.108,-0.547 0.395,-1.02 0.509,-1.558 0.241,-1.129 0.66,-2.251 0.999,-3.363 0.222,-0.725 0.558,-1.351 0.849,-2.041 0.237,-0.564 0.397,-1.177 0.585,-1.759 0.335,-1.046 0.446,-2.224 0.972,-3.195 0.293,-0.54 0.306,-1.135 0.434,-1.734 0.135,-0.628 0.101,-1.243 0.216,-1.877 0.182,-1.011 0.416,-2.001 0.67,-2.996 0.258,-1.014 0.193,-2.02 0.399,-3.036 0.186,-0.915 0.331,-1.792 0.33,-2.727 -0.002,-1.833 0.784,-3.561 0.205,-5.387 -0.179,-0.567 -0.621,-1.443 -1.164,-1.766 -0.49,-0.293 -1.375,-0.359 -1.921,-0.324 -1.361,0.088 -2.715,0.272 -4.081,0.342 -0.89,0.045 -1.77,0.254 -2.663,0.333 -0.803,0.071 -1.592,0.214 -2.399,0.251 -0.53,0.024 -1.055,-0.044 -1.582,-0.02 -0.104,0.004 -0.205,0.026 -0.308,0.035 -0.377,-0.598 -0.491,-1.451 -0.687,-2.128 -0.069,-0.236 -0.137,-0.482 -0.183,-0.731 1.029,-2.555 1.443,-5.263 2.124,-7.916 0.4,-1.559 0.802,-3.113 1.21,-4.67 0.223,-0.852 0.444,-1.612 0.479,-2.505 0.039,-0.941 0.17,-1.868 0.221,-2.807 0.044,-0.83 0.058,-1.68 0.081,-2.51 0.022,-0.789 -0.141,-1.532 -0.273,-2.309 -0.133,-0.781 -0.112,-1.572 -0.298,-2.344 -0.159,-0.66 -0.275,-1.329 -0.419,-1.991 0.733,0.516 1.434,1.083 2.13,1.652 0.927,0.756 2.16,1.237 2.985,2.116 0.165,0.176 2.494,3.299 2.616,3.614 0.296,0.578 0.588,1.246 0.966,1.774 0.166,0.231 0.354,0.436 0.468,0.701 0.124,0.288 0.057,0.56 0.133,0.85 0.155,0.585 0.766,0.891 0.837,1.529 0.05,0.462 0.134,0.796 0.377,1.202 0.345,0.577 0.602,1.174 0.945,1.746 0.151,0.254 0.263,0.521 0.333,0.808 0.06,0.241 0.162,0.403 0.24,0.626 0.117,0.337 0.179,0.715 0.279,1.06 0.089,0.313 0.072,0.746 0.234,1.03 0.127,0.224 0.396,0.334 0.574,0.524 0.275,0.292 0.48,0.686 0.667,1.027 0.484,0.881 0.235,2.132 1.178,2.772 0.182,0.123 0.293,0.118 0.456,0.308 0.127,0.15 0.221,0.348 0.361,0.486 0.15,0.147 0.333,0.228 0.507,0.342 0.372,0.245 0.521,0.535 0.69,0.941 0.115,0.275 0.18,0.553 0.28,0.834 0.09,0.25 0.23,0.491 0.33,0.767 0.181,0.503 0.508,0.895 0.719,1.362 0.195,0.433 0.239,0.94 0.491,1.334 0.105,0.165 0.19,0.362 0.3,0.527 0.311,0.468 0.983,0.72 1.527,0.724 0.26,0.002 0.647,0.083 0.849,-0.118 0.203,-0.204 0.15,-0.829 0.078,-1.088 -0.124,-0.449 -0.179,-1.016 -0.453,-1.416 -0.165,-0.24 -0.32,-0.44 -0.458,-0.708 -0.062,-0.119 -0.095,-0.242 -0.149,-0.358 -0.076,-0.165 -0.169,-0.205 -0.277,-0.347 -0.153,-0.201 -0.165,-0.343 -0.235,-0.569 -0.092,-0.296 -0.145,-0.138 0.148,-0.262 0.187,-0.08 0.357,-0.215 0.593,-0.118 0.331,0.138 0.427,0.771 0.571,1.052 0.079,0.154 0.206,0.287 0.28,0.439 0.09,0.184 0.079,0.328 0.143,0.513 0.118,0.342 0.407,0.621 0.579,0.935 0.146,0.266 0.271,0.553 0.394,0.831 0.05,0.115 0.06,0.245 0.112,0.356 0.098,0.211 0.249,0.318 0.311,0.564 0.109,0.423 0.382,0.514 0.642,0.857 0.158,0.209 0.274,0.427 0.461,0.607 0.235,0.229 0.503,0.424 0.706,0.687 0.211,0.274 0.371,0.3 0.654,0.459 0.253,0.142 0.54,0.228 0.815,0.35 0.085,0.038 0.131,0.099 0.221,0.123 0.153,0.039 0.336,-0.041 0.493,-0.019 0.448,0.067 0.711,0.128 1.164,0.022 C -1.691,2.19 -1.361,2.127 -1.037,2.02 -0.624,1.882 -0.533,1.752 -0.327,1.363 -0.1,0.933 0.081,0.49 0,0"
               style="fill:#231f20;fill-opacity:1;fill-rule:nonzero;stroke:none"
               id="path2217" />
          </g>
        </g>
      </g>
    </g>
  </g>
</svg>
