<?xml version="1.0" encoding="UTF-8" standalone="no"?>
<!-- Created with Inkscape (http://www.inkscape.org/) -->

<svg
   width="24.011084"
   height="24"
   viewBox="0 0 6.3529324 6.35"
   version="1.1"
   id="svg6232"
   inkscape:version="1.2.1 (9c6d41e4, 2022-07-14)"
   sodipodi:docname="doomed-expedition.svg"
   xmlns:inkscape="http://www.inkscape.org/namespaces/inkscape"
   xmlns:sodipodi="http://sodipodi.sourceforge.net/DTD/sodipodi-0.dtd"
   xmlns="http://www.w3.org/2000/svg"
   xmlns:svg="http://www.w3.org/2000/svg">
  <sodipodi:namedview
     id="namedview6234"
     pagecolor="#505050"
     bordercolor="#eeeeee"
     borderopacity="1"
     inkscape:showpageshadow="0"
     inkscape:pageopacity="0"
     inkscape:pagecheckerboard="0"
     inkscape:deskcolor="#505050"
     inkscape:document-units="mm"
     showgrid="false"
     inkscape:zoom="0.7046647"
     inkscape:cx="-75.213076"
     inkscape:cy="151.13571"
     inkscape:window-width="1390"
     inkscape:window-height="941"
     inkscape:window-x="0"
     inkscape:window-y="25"
     inkscape:window-maximized="0"
     inkscape:current-layer="layer1" />
  <defs
     id="defs6229">
    <clipPath
       clipPathUnits="userSpaceOnUse"
       id="clipPath3019">
      <path
         d="m 159.654,668.874 h 22.76 v 22.76 h -22.76 z"
         id="path3017" />
    </clipPath>
  </defs>
  <g
     inkscape:label="Layer 1"
     inkscape:groupmode="layer"
     id="layer1"
     transform="translate(-124.8602,-108.71628)">
    <g
       id="g3013"
       transform="matrix(0.35435747,0,0,-0.35435747,67.429599,352.5893)">
      <g
         id="g3015"
         clip-path="url(#clipPath3019)">
        <g
           id="g3021"
           transform="matrix(0.1580564,0,0,-0.1719723,171.03365,680.25391)">
          <g
             id="g3023"
             transform="translate(40.8574,-4.04)">
            <path
               d="m 0,0 c 1.592,-0.004 0.899,-0.029 0.22,-0.203 -0.177,-0.105 -0.342,-0.066 -0.495,0.117 -0.044,0.025 -0.076,0.045 -0.116,0.07 0.042,0.091 0.087,0.175 0.133,0.206 C -0.124,0.28 0.082,0.308 0,0"
               style="fill:#231f20;fill-opacity:1;fill-rule:nonzero;stroke:none"
               id="path3025" />
          </g>
        </g>
        <g
           id="g3027"
           transform="matrix(0.1580564,0,0,-0.1719723,171.03365,680.25391)">
          <g
             id="g3029"
             transform="translate(34.4248,17.8155)">
            <path
               d="m 0,0 c -0.12,-0.333 -0.239,-0.647 -0.421,-0.952 -0.466,-0.78 -0.77,-1.631 -1.215,-2.427 -0.554,-0.995 -1.055,-2.018 -1.423,-3.099 -0.402,-1.181 -1.086,-2.195 -1.747,-3.244 -0.381,-0.608 -0.814,-1.176 -1.142,-1.819 -0.263,-0.514 -0.535,-1.003 -0.835,-1.497 -0.847,-1.394 -1.6,-2.796 -2.343,-4.247 -0.252,-0.492 -0.584,-0.915 -0.867,-1.386 -0.252,-0.418 -0.441,-0.88 -0.65,-1.319 -0.666,-1.4 -1.429,-2.757 -2.152,-4.129 -0.673,-1.278 -1.308,-2.565 -1.958,-3.855 -0.438,-0.87 -1.041,-1.637 -1.545,-2.468 -0.48,-0.794 -0.925,-1.603 -1.431,-2.383 -0.983,-1.515 -1.9,-3.018 -2.66,-4.66 -0.402,-0.869 -0.719,-1.775 -1.044,-2.676 -0.257,-0.718 -0.425,-1.481 -0.751,-2.172 -0.196,-0.415 -0.426,-0.797 -0.885,-0.928 -0.432,-0.123 -0.981,-0.014 -1.413,0.06 -0.603,0.103 -1.211,0.182 -1.811,0.301 -0.58,0.115 -1.153,0.304 -1.742,0.371 -0.794,0.089 -1.612,0.003 -2.41,0.044 -1.012,0.051 -2.012,0.181 -3.018,0.284 -2.277,0.233 -4.634,0.083 -6.914,-0.026 -0.934,-0.044 -1.9,-0.101 -2.833,-0.013 -0.761,0.072 -1.486,0.348 -2.249,0.383 -1.596,0.073 -3.218,-0.016 -4.816,-0.016 -1.158,-0.001 -2.294,-0.091 -3.448,-0.125 -0.092,0.115 -0.1,0.241 -0.025,0.38 -0.365,-0.605 -0.41,-0.534 -0.51,-0.369 0.005,0.172 -0.032,0.334 -0.111,0.488 -0.057,0.098 -0.114,0.195 -0.171,0.293 -0.513,0.863 -0.978,1.758 -1.499,2.614 -0.336,0.55 -0.626,1.054 -0.837,1.669 -0.232,0.673 -0.41,1.375 -0.687,2.03 -0.334,0.792 -1.207,1.911 -0.882,2.83 0.192,0.044 0.445,-0.096 0.634,-0.146 0.35,-0.093 0.661,-0.264 1.008,-0.363 0.705,-0.203 1.477,-0.175 2.199,-0.307 0.761,-0.14 1.517,-0.309 2.278,-0.449 0.776,-0.141 1.532,-0.307 2.301,-0.486 1.223,-0.287 2.415,-0.287 3.666,-0.287 2.242,10e-4 4.514,0.046 6.747,0.253 1.465,0.137 2.881,0.231 4.35,0.256 0.994,0.016 1.969,0.177 2.96,0.24 0.76,0.048 1.521,0.024 2.281,0.021 0.591,-0.002 1.381,-0.145 1.944,0.104 0.982,0.434 1.506,1.722 1.965,2.599 0.491,0.939 1,1.846 1.319,2.863 0.246,0.784 0.337,1.591 0.529,2.387 0.53,2.18 1.013,4.351 1.954,6.402 1.208,2.631 2.671,5.125 3.834,7.779 0.319,0.725 1.361,2.639 0.198,3.08 -0.463,0.175 -0.907,0.334 -1.359,0.546 -0.6,0.28 -1.172,0.382 -1.824,0.506 -1.422,0.268 -2.818,0.615 -4.262,0.774 -1.038,0.114 -2.027,0.426 -3.057,0.575 -1.216,0.177 -2.468,0.19 -3.694,0.314 -2.847,0.288 -5.697,-0.081 -8.54,-0.285 -1.079,-0.079 -2.126,-0.301 -3.195,-0.442 -0.666,-0.087 -1.132,0.057 -1.762,0.076 -0.19,-0.749 0.33,-1.915 0.565,-2.578 0.282,-0.798 0.528,-1.582 0.745,-2.398 0.24,-0.903 0.566,-1.717 0.663,-2.657 0.119,-1.15 0.116,-2.725 1.342,-3.277 0.991,-0.447 2.201,-0.49 3.273,-0.595 0.817,-0.081 1.626,-0.098 2.445,-0.09 1.112,0.01 2.159,-0.164 3.262,-0.233 0.632,-0.04 1.268,0.026 1.897,-0.041 0.532,-0.056 0.984,-0.229 1.49,-0.373 0.667,-0.189 1.553,-0.201 2.252,-0.101 -0.157,-0.224 -0.253,-0.536 -0.392,-0.782 -0.161,-0.283 -0.333,-0.556 -0.471,-0.853 -0.56,-1.202 -1.012,-2.53 -1.437,-3.785 -0.277,-0.821 -0.416,-1.599 -0.461,-2.452 -0.011,-0.218 -0.033,-0.545 -0.259,-0.668 -0.486,-0.264 -1.543,0.131 -1.977,0.259 -1.446,0.423 -2.898,0.786 -4.403,0.946 -3.467,0.367 -7.009,0.2 -10.492,0.179 -0.493,-0.003 -1.07,-0.103 -1.547,0.041 -0.281,0.084 -0.632,0.31 -0.878,0.436 -0.568,0.293 -0.907,0.716 -1.208,1.281 -0.224,0.421 -0.301,0.847 -0.404,1.299 -0.13,0.572 -0.299,1.11 -0.505,1.659 -0.387,1.026 -0.678,2.087 -0.926,3.155 -0.269,1.16 -0.658,2.234 -0.765,3.421 -0.097,1.074 -0.26,2.14 -0.507,3.19 -0.239,1.013 -0.559,2.006 -0.785,3.022 -0.221,1 -0.585,1.954 -0.818,2.95 -0.171,0.735 -0.342,1.488 -0.386,2.242 -0.03,0.491 0,0.99 -0.044,1.48 -0.098,1.1 -0.324,2.175 -0.363,3.281 -0.028,0.781 -0.273,1.733 -0.068,2.497 0.175,0.655 0.778,1.251 1.292,1.664 0.731,0.587 2.044,0.192 2.871,0.001 1.732,-0.397 3.526,-0.386 5.29,-0.382 2.609,0.004 5.199,-0.243 7.808,-0.246 1.391,-0.001 2.753,-0.283 4.145,-0.265 1.306,0.015 2.605,-0.118 3.905,-0.219 2.42,-0.187 4.844,-0.488 7.273,-0.552 1.468,-0.038 2.914,-0.017 4.383,-0.12 1.511,-0.105 3.032,-0.137 4.54,-0.281 1.525,-0.146 3.032,-0.436 4.566,-0.484 0.943,-0.03 1.863,-0.232 2.802,-0.265 0.75,-0.026 1.523,0.102 2.259,-0.061 C -5.392,3.058 -4.941,2.863 -4.306,2.88 -3.777,2.895 -3.125,2.85 -2.607,2.733 -2.208,2.644 -1.989,2.242 -1.612,2.128 -1.019,1.948 0.135,2.487 0.52,1.834 0.305,1.549 0.287,1.249 0.197,0.909 0.117,0.608 0.11,0.31 0,0"
               style="fill:#231f20;fill-opacity:1;fill-rule:nonzero;stroke:none"
               id="path3031" />
          </g>
        </g>
        <g
           id="g3033"
           transform="matrix(0.1580564,0,0,-0.1719723,171.03365,680.25391)">
          <g
             id="g3035"
             transform="translate(56.5557,33.1338)">
            <path
               d="m 0,0 c -0.119,-0.677 -0.242,-1.354 -0.368,-2.029 -0.083,-0.584 -0.181,-1.165 -0.296,-1.744 -0.304,-1.165 -0.902,-2.285 -1.376,-3.387 -0.503,-1.17 -0.965,-2.354 -1.421,-3.542 -0.476,-1.237 -1.021,-2.448 -1.534,-3.671 -0.451,-1.076 -0.988,-2.049 -1.532,-3.074 -0.802,-1.512 -1.441,-3.101 -2.255,-4.61 -0.564,-1.046 -0.942,-2.162 -1.456,-3.229 -0.428,-0.886 -0.924,-1.764 -1.388,-2.63 -0.581,-1.086 -1.216,-2.142 -1.844,-3.201 -0.593,-1.002 -1.037,-1.993 -1.504,-3.053 -0.443,-1.008 -0.822,-1.952 -1.146,-3.001 0.011,-0.006 0.02,-0.013 0.031,-0.019 -0.053,-0.116 -0.099,-0.246 -0.133,-0.309 -0.01,-0.019 -0.018,-0.039 -0.028,-0.058 -0.095,-0.261 -0.203,-0.493 -0.353,-0.73 -0.61,-1.311 -1.073,-2.681 -1.536,-4.052 -0.694,-2.055 -1.521,-4.043 -2.489,-5.983 -0.966,-1.936 -2.163,-3.743 -3.111,-5.687 -0.753,-1.544 -1.328,-3.183 -2.108,-4.711 -0.697,-1.367 -1.303,-2.76 -2.029,-4.115 -0.638,-1.191 -1.198,-2.434 -1.875,-3.602 -0.558,-0.962 -1.069,-1.919 -1.561,-2.917 -0.256,-0.519 -0.472,-1.052 -0.704,-1.582 -0.279,-0.641 -0.667,-1.224 -0.967,-1.855 -0.188,-0.392 -0.451,-0.795 -0.549,-1.219 -0.044,-0.191 -0.047,-0.362 -0.109,-0.552 -0.098,-0.301 -0.237,-0.579 -0.382,-0.859 -0.089,-0.169 -0.197,-0.321 -0.293,-0.485 -0.068,-0.113 -0.149,-0.383 -0.247,-0.468 -0.092,-0.08 -0.211,-0.069 -0.314,-0.145 -0.088,-0.065 -0.199,-0.241 -0.262,-0.329 -0.186,-0.268 -0.297,-0.577 -0.481,-0.842 -0.126,-0.18 -0.764,-0.897 -0.957,-0.923 -0.12,0.235 -0.212,0.506 -0.289,0.758 -0.101,0.324 -0.083,0.716 -0.22,1.025 -0.071,0.161 -0.203,0.422 -0.362,0.502 -0.174,0.088 -0.439,0.122 -0.635,0.136 -0.443,0.029 -0.839,0.247 -1.29,0.26 -0.282,0.009 -0.586,0.028 -0.864,-0.021 -0.381,-0.067 -0.725,-0.27 -1.096,-0.37 -0.591,-0.159 -1.225,-0.165 -1.831,-0.214 -0.897,-0.071 -1.774,-0.197 -2.657,-0.367 -1.658,-0.319 -3.273,-0.422 -4.955,-0.445 -0.656,-0.008 -1.248,0.158 -1.88,0.308 -0.579,0.138 -1.198,0.108 -1.789,0.18 -1.112,0.134 -2.227,0.264 -3.341,0.382 -1.432,0.152 -2.863,0.436 -4.308,0.417 -1.171,-0.015 -2.34,0.133 -3.515,0.126 -0.434,-0.002 -0.853,-0.004 -1.283,0.06 -0.455,0.067 -0.885,0.224 -1.334,0.302 -0.989,0.173 -2.111,0.011 -3.098,-0.076 -1.252,-0.111 -2.539,-0.031 -3.795,-0.024 -0.782,0.004 -1.518,-0.084 -2.238,-0.375 -0.486,-0.197 -0.922,-0.475 -1.453,-0.65 -0.771,-0.254 -1.492,-0.535 -2.317,-0.513 -0.115,0.003 -0.352,0.059 -0.457,-0.006 -0.272,-0.163 -0.473,-0.817 -0.616,-1.075 -0.169,-0.305 -0.616,-1.282 -1.137,-1.091 -0.246,0.091 -0.313,0.481 -0.399,0.707 -0.185,0.49 -0.285,0.976 -0.426,1.476 -0.101,0.359 -0.291,0.684 -0.393,1.039 -0.082,0.286 -0.093,0.578 -0.136,0.87 -0.098,0.676 -0.329,1.293 -0.623,1.905 -0.852,1.768 -1.595,3.572 -2.552,5.291 -0.311,0.556 -0.542,1.148 -0.838,1.713 -0.297,0.567 -0.648,1.105 -0.959,1.665 -0.323,0.58 -0.656,1.156 -1.015,1.715 -0.396,0.616 -0.611,1.247 -0.879,1.921 -0.439,1.106 -0.994,2.156 -1.439,3.257 -0.483,1.194 -1.174,2.277 -1.631,3.482 -0.499,1.314 -1.114,2.605 -1.722,3.873 -0.705,1.473 -1.495,2.949 -1.979,4.512 -0.321,1.036 -0.559,2.093 -0.918,3.114 -0.218,0.62 -0.374,1.266 -0.463,1.915 -0.103,0.752 -0.426,1.387 -0.661,2.109 -0.168,0.517 -0.466,1.025 -0.502,1.573 -0.024,0.351 -0.101,0.707 -0.251,1.031 -0.12,0.26 -0.317,0.504 -0.387,0.76 -0.04,0.147 -0.029,0.218 -0.093,0.353 -0.041,0.088 -0.126,0.216 -0.147,0.299 -0.069,0.265 -0.046,0.444 -0.198,0.689 -0.123,0.2 -0.482,0.465 -0.461,0.718 0.106,-0.063 0.153,-0.194 0.159,-0.312 0.296,-0.065 0.515,-0.13 0.812,-0.144 -0.107,0.212 -0.22,0.421 -0.324,0.636 -0.812,1.675 -2.01,3.282 -2.348,5.137 -0.21,1.151 -0.439,2.286 -0.722,3.423 -0.295,1.191 -0.694,2.348 -1.011,3.532 -0.604,2.259 -1.227,4.521 -1.719,6.805 -0.396,1.841 -1.04,3.759 -1.935,5.42 -0.565,1.047 -0.989,2.151 -1.454,3.245 -0.396,0.929 -0.823,1.84 -1.203,2.776 -0.32,0.789 -0.644,1.564 -0.909,2.373 -0.067,0.205 -0.273,0.595 -0.185,0.832 0.067,0.182 0.277,0.221 0.454,0.244 0.249,0.033 0.348,0.039 0.596,0.13 0.578,0.21 1.147,-0.229 1.761,-0.107 0.882,0.175 1.706,0.369 2.61,0.351 0.596,-0.011 1.071,0.173 1.642,0.244 0.894,0.112 1.995,-0.12 2.884,-0.207 0.735,-0.072 1.458,-0.171 2.198,-0.163 0.287,0.003 0.817,0.111 1.048,-0.067 0.26,-0.199 0.263,-0.609 0.487,-0.864 0.239,-0.273 0.523,-0.479 0.737,-0.778 0.509,-0.713 0.516,-1.497 0.715,-2.305 0.151,-0.612 0.433,-1.174 0.569,-1.799 0.213,-0.981 0.203,-2.079 0.526,-3.03 0.273,-0.811 0.545,-1.569 0.747,-2.408 0.234,-0.974 0.439,-1.953 0.707,-2.919 0.267,-0.961 0.551,-1.893 0.694,-2.883 0.312,-2.15 1.177,-4.066 1.9,-6.098 0.552,-1.547 1.223,-3.021 1.863,-4.531 0.626,-1.478 1.439,-2.863 2.06,-4.342 0.28,-0.668 0.502,-1.35 0.732,-2.03 0.088,-0.072 0.188,-0.127 0.305,-0.126 0.056,-0.201 0.011,-0.424 0.043,-0.631 0.023,-0.142 0.055,-0.282 0.086,-0.422 0.043,-0.066 0.093,-0.125 0.166,-0.159 -0.051,0.042 -0.105,0.08 -0.158,0.119 0.056,-0.257 0.113,-0.513 0.139,-0.779 0.168,-1.716 0.288,-3.364 1.037,-4.941 0.608,-1.281 1.182,-2.585 1.803,-3.858 0.24,-0.493 0.526,-0.954 0.662,-1.49 0.159,-0.626 0.264,-1.264 0.413,-1.892 0.318,-1.342 0.845,-2.628 1.187,-3.966 0.323,-1.266 0.77,-2.498 1.15,-3.75 0.171,-0.564 0.328,-1.133 0.513,-1.692 0.196,-0.592 0.48,-1.142 0.708,-1.72 0.226,-0.57 0.291,-1.177 0.556,-1.733 0.145,-0.305 0.346,-0.578 0.516,-0.868 0.316,-0.536 0.444,-1.169 1.125,-1.275 0.356,-0.056 0.745,0.002 1.109,-0.025 0.77,-0.058 1.524,-0.171 2.299,-0.204 2.464,-0.106 4.933,0.061 7.398,-0.045 2.302,-0.099 4.506,-0.581 6.823,-0.433 3.987,0.256 7.985,-0.073 11.975,-0.055 2.826,0.013 5.656,-0.621 8.484,-0.329 0.133,0.328 0.163,0.674 0.087,1.037 0.145,1.183 0.372,2.351 0.683,3.502 0.493,1.877 1.358,3.57 2.054,5.371 0.433,1.123 0.81,2.183 1.449,3.209 0.79,1.268 1.706,2.427 2.629,3.597 1.231,1.562 2.164,3.374 3.181,5.079 0.785,1.319 1.668,2.55 2.292,3.962 0.061,0.138 0.106,0.267 0.15,0.395 l -0.357,0.057 c 0.027,-0.131 0.017,-0.258 -0.028,-0.381 -0.437,0.084 0.168,1.516 0.262,1.706 0.644,1.307 1.355,2.569 1.848,3.948 0.468,1.312 0.948,2.633 1.606,3.864 0.758,1.417 1.48,2.856 2.182,4.303 1.594,3.287 3.166,6.584 4.692,9.903 0.708,1.541 1.362,3.091 2.1,4.62 0.743,1.543 1.464,3.088 2.161,4.651 0.365,0.818 0.693,1.62 0.997,2.459 0.245,0.676 0.576,1.463 0.988,2.055 0.276,0.398 0.352,0.823 0.594,1.238 0.14,0.242 0.184,0.267 0.461,0.272 0.279,0.005 0.548,-0.01 0.826,0.022 0.545,0.063 1.041,0.185 1.588,0.053 0.556,-0.134 0.92,-0.342 1.506,-0.348 0.97,-0.01 1.941,0.025 2.912,0.01 0.59,-0.009 1.19,0.25 1.734,0.48 0.485,0.205 0.971,0.315 1.476,0.425 C 0.25,1.388 0.085,0.581 0,0"
               style="fill:#231f20;fill-opacity:1;fill-rule:nonzero;stroke:none"
               id="path3037" />
          </g>
        </g>
        <g
           id="g3039"
           transform="matrix(0.1580564,0,0,-0.1719723,171.03365,680.25391)">
          <g
             id="g3041"
             transform="translate(12.8428,28.5401)">
            <path
               d="M 0,0 C 0.276,0.108 0.561,0.212 0.856,0.315 L -0.148,-0.146 C -0.099,-0.099 -0.048,-0.05 0,0"
               style="fill:#231f20;fill-opacity:1;fill-rule:nonzero;stroke:none"
               id="path3043" />
          </g>
        </g>
        <g
           id="g3045"
           transform="matrix(0.1580564,0,0,-0.1719723,171.03365,680.25391)">
          <g
             id="g3047"
             transform="translate(17.1445,36.3125)">
            <path
               d="m 0,0 c -0.282,-1.088 -0.571,-2.221 -1.017,-3.252 -0.457,-1.06 -0.934,-2.056 -1.71,-2.924 -0.332,-0.37 -0.721,-0.689 -1.062,-1.051 -0.175,-0.185 -0.341,-0.369 -0.513,-0.545 -0.572,-0.226 -1.103,-0.484 -1.617,-0.822 l 1.469,0.675 c -0.163,-0.159 -0.333,-0.311 -0.529,-0.447 -0.697,-0.485 -1.422,-1.003 -2.175,-1.398 -0.239,-0.125 -0.451,-0.219 -0.691,-0.242 -0.215,-0.131 -0.436,-0.255 -0.677,-0.363 -0.369,-0.166 -0.75,-0.265 -1.132,-0.396 -0.595,-0.204 -1.05,-0.516 -1.7,-0.529 -0.729,-0.014 -1.84,-0.095 -2.43,0.392 -0.154,0.127 -0.304,0.304 -0.442,0.45 -0.159,0.168 -0.166,0.169 -0.102,0.343 0.097,0.266 0.503,0.462 0.707,0.635 0.331,0.283 0.683,0.54 0.975,0.868 0.691,0.773 1.419,1.627 1.905,2.548 0.294,0.558 0.66,1.114 0.903,1.694 0.235,0.562 0.375,1.174 0.586,1.748 0.232,0.632 0.268,1.261 0.177,1.927 -0.047,0.335 -0.138,1.053 -0.484,1.246 -0.441,-0.195 -0.704,-0.905 -1.028,-1.252 -0.463,-0.496 -0.944,-0.982 -1.464,-1.418 -0.584,-0.491 -1.192,-0.906 -1.898,-1.201 -0.539,-0.227 -1.11,-0.351 -1.653,-0.567 -0.676,-0.269 -1.343,-0.603 -2.033,-0.835 -0.649,-0.217 -1.266,-0.194 -1.948,-0.192 -0.588,0.003 -1.202,-0.06 -1.778,0.071 -0.348,0.079 -0.576,0.251 -0.891,0.381 -0.159,0.065 -0.362,0.021 -0.318,0.249 0.028,0.152 0.218,0.192 0.322,0.284 0.168,0.146 0.27,0.351 0.428,0.511 0.185,0.188 0.399,0.329 0.604,0.496 0.519,0.421 0.95,0.933 1.472,1.348 0.79,0.629 1.479,1.262 2.146,2.016 0.298,0.337 0.58,0.687 0.878,1.025 0.256,0.29 0.576,0.556 0.786,0.881 0.417,0.648 0.776,1.347 1.173,2.008 0.417,0.693 0.971,1.507 1,2.344 0.016,0.415 -0.108,0.826 -0.172,1.233 -0.061,0.395 -0.105,0.802 -0.277,1.167 -0.141,0.301 -0.353,0.565 -0.519,0.853 -0.198,0.342 -0.353,0.672 -0.603,0.975 -0.294,0.357 -0.581,0.686 -0.921,1.001 -0.372,0.342 -0.68,0.375 -1.168,0.378 -0.6,0.005 -1.18,-0.05 -1.776,-0.104 -0.532,-0.049 -1.013,-0.035 -1.528,-0.212 -1.264,-0.434 -2.476,-1.28 -3.185,-2.425 -0.89,-1.437 -0.366,-3.341 0.404,-4.722 0.472,-0.848 1.255,-1.661 1.935,-2.343 0.259,-0.261 0.496,-0.565 0.843,-0.709 0.199,-0.083 0.368,-0.05 0.566,-0.101 -0.052,-0.194 -0.253,-0.417 -0.397,-0.577 -0.294,-0.328 -0.55,-0.752 -0.87,-1.071 -0.238,-0.238 -0.607,-0.606 -0.92,-0.726 -0.25,-0.096 -0.472,-0.1 -0.732,-0.143 -0.171,-0.029 -0.342,-0.1 -0.512,-0.135 -0.093,-0.019 -0.214,-0.084 -0.281,-0.099 -0.345,-0.073 -0.549,-0.003 -0.863,0.135 -0.388,0.169 -0.777,0.329 -1.127,0.596 -0.246,0.186 -0.356,0.459 -0.62,0.646 -0.206,0.147 -0.45,0.234 -0.654,0.377 -0.525,0.368 -0.88,1.034 -1.264,1.533 -0.467,0.607 -0.64,1.246 -0.926,1.944 -0.272,0.665 -0.522,1.284 -0.512,2.008 0.008,0.603 0.003,1.207 0.003,1.81 0,0.586 0.003,1.172 0,1.758 -0.003,0.606 0.103,1.181 0.123,1.784 0.025,0.719 0.155,1.508 0.295,2.213 0.144,0.731 0.044,1.403 0.586,1.994 0.389,0.425 0.822,0.804 1.144,1.288 0.176,0.264 0.285,0.528 0.513,0.756 0.608,0.611 1.35,1.162 2.064,1.639 0.343,0.229 0.725,0.345 1.099,0.518 0.483,0.224 0.914,0.551 1.404,0.756 0.464,0.195 0.973,0.249 1.451,0.402 0.419,0.132 0.808,0.277 1.243,0.357 0.821,0.151 1.593,0.151 2.427,0.153 0.736,0.001 1.429,0.028 2.132,-0.243 0.386,-0.149 0.623,-0.421 0.97,-0.627 0.326,-0.193 0.731,-0.3 1.099,-0.377 0.69,-0.143 1.298,-0.47 1.94,-0.761 1.034,-0.468 2.192,-0.815 3.063,-1.565 0.241,-0.207 0.465,-0.444 0.718,-0.636 0.22,-0.166 0.476,-0.246 0.685,-0.435 0.234,-0.213 0.333,-0.457 0.493,-0.714 0.231,-0.369 0.648,-0.548 0.932,-0.88 0.274,-0.32 0.569,-0.613 0.871,-0.909 0.265,-0.261 0.542,-0.499 0.758,-0.805 0.276,-0.393 0.473,-0.824 0.771,-1.206 0.49,-0.629 0.871,-1.346 1.23,-2.055 C -1.391,9.539 -0.869,8.816 -0.538,7.898 -0.208,6.986 0.047,6.063 0.255,5.116 0.441,4.27 0.377,3.412 0.383,2.551 0.39,1.678 0.219,0.844 0,0"
               style="fill:#231f20;fill-opacity:1;fill-rule:nonzero;stroke:none"
               id="path3049" />
          </g>
        </g>
      </g>
    </g>
  </g>
</svg>
