<?xml version="1.0" encoding="UTF-8" standalone="no"?>
<!-- Created with Inkscape (http://www.inkscape.org/) -->

<svg
   width="24.059477"
   height="24"
   viewBox="0 0 6.3657366 6.35"
   version="1.1"
   id="svg4618"
   inkscape:version="1.2.1 (9c6d41e4, 2022-07-14)"
   sodipodi:docname="return-to-the-untamed-wilds.svg"
   xmlns:inkscape="http://www.inkscape.org/namespaces/inkscape"
   xmlns:sodipodi="http://sodipodi.sourceforge.net/DTD/sodipodi-0.dtd"
   xmlns="http://www.w3.org/2000/svg"
   xmlns:svg="http://www.w3.org/2000/svg">
  <sodipodi:namedview
     id="namedview4620"
     pagecolor="#505050"
     bordercolor="#eeeeee"
     borderopacity="1"
     inkscape:showpageshadow="0"
     inkscape:pageopacity="0"
     inkscape:pagecheckerboard="0"
     inkscape:deskcolor="#505050"
     inkscape:document-units="mm"
     showgrid="false"
     inkscape:zoom="0.7046647"
     inkscape:cx="42.573439"
     inkscape:cy="268.92223"
     inkscape:window-width="1390"
     inkscape:window-height="941"
     inkscape:window-x="0"
     inkscape:window-y="25"
     inkscape:window-maximized="0"
     inkscape:current-layer="layer1" />
  <defs
     id="defs4615">
    <clipPath
       clipPathUnits="userSpaceOnUse"
       id="clipPath315">
      <path
         d="m 39.282,469.798 h 22.057 v 21.883 H 39.282 Z"
         id="path313" />
    </clipPath>
  </defs>
  <g
     inkscape:label="Layer 1"
     inkscape:groupmode="layer"
     id="layer1"
     transform="translate(-93.689445,-77.551935)">
    <g
       id="g309"
       transform="matrix(0.2971658,0,0,-0.2971658,81.921634,223.58627)">
      <g
         id="g311"
         clip-path="url(#clipPath315)">
        <g
           id="g317"
           transform="matrix(0.1531793,0,0,-0.1519643,50.31089,480.65204)">
          <g
             id="g319"
             transform="translate(-26.1172,-23.7143)">
            <path
               d="m 0,0 c -0.056,-0.08 -0.11,-0.161 -0.161,-0.244 -0.074,-0.021 -0.149,-0.04 -0.225,-0.058 -0.237,-0.184 -0.416,-0.353 -0.658,-0.513 -0.209,-0.138 -0.435,-0.419 -0.684,-0.486 -0.33,-0.089 -0.832,0.007 -1.178,0.007 -0.333,0 -0.865,-0.105 -1.177,-0.007 -0.209,0.065 -0.418,0.305 -0.615,0.41 -0.53,0.281 -0.962,0.853 -1.427,1.28 -0.509,0.466 -0.585,1.017 -0.586,1.683 0,0.341 0.003,0.682 0,1.024 -0.002,0.396 0.098,0.653 0.143,1.028 0.036,0.305 0.214,0.582 0.297,0.874 0.073,0.261 0.144,0.482 0.292,0.731 0.183,0.307 0.405,0.297 0.696,0.472 0.171,0.103 0.255,0.233 0.475,0.267 0.193,0.03 0.37,-0.04 0.56,0.018 0.056,0.305 0.088,0.241 0.347,0.285 0.95,0.162 1.902,0.178 2.81,-0.226 C -0.238,6.163 0.655,4.833 0.997,3.939 1.034,3.842 1.189,3.744 1.238,3.62 1.307,3.447 1.308,3.242 1.307,3.059 1.305,2.688 1.249,2.306 1.217,1.937 1.151,1.196 0.494,0.515 0,0"
               style="fill:#231f20;fill-opacity:1;fill-rule:nonzero;stroke:none"
               id="path321" />
          </g>
        </g>
        <g
           id="g323"
           transform="matrix(0.1531793,0,0,-0.1519643,50.31089,480.65204)">
          <g
             id="g325"
             transform="translate(32.2588,-22.6674)">
            <path
               d="m 0,0 c -0.136,-0.21 -0.317,-0.36 -0.446,-0.578 -0.113,-0.189 -0.174,-0.422 -0.29,-0.6 -0.126,-0.193 -0.315,-0.342 -0.48,-0.503 -0.152,-0.151 -0.339,-0.513 -0.511,-0.607 -0.148,-0.079 -0.294,-0.063 -0.439,-0.12 -0.157,-0.063 -0.247,-0.198 -0.439,-0.233 -0.143,-0.025 -0.298,0.029 -0.443,0.011 -0.203,-0.027 -0.249,-0.114 -0.428,-0.158 -0.245,-0.059 -0.791,-0.04 -1.032,0 -0.575,0.098 -0.956,0.453 -1.352,0.85 -0.338,0.338 -0.752,0.668 -1.025,1.057 -0.152,0.217 -0.263,0.455 -0.386,0.68 -0.057,0.11 -0.152,0.218 -0.203,0.327 -0.06,0.129 -0.094,0.264 -0.114,0.402 -0.036,0.275 -0.011,0.562 0,0.835 0.015,0.4 -0.068,0.812 0.076,1.199 0.288,0.768 1.075,1.58 1.595,2.212 0.347,0.424 0.452,0.575 0.987,0.735 0.411,0.123 0.927,0.145 1.351,0.216 C -2.402,5.921 -1.59,5.228 -0.636,4.674 -0.339,4.502 -0.092,4.325 0.078,4.019 0.561,3.15 0.643,1.833 0.476,0.875 0.43,0.615 0.148,0.228 0,0"
               style="fill:#231f20;fill-opacity:1;fill-rule:nonzero;stroke:none"
               id="path327" />
          </g>
        </g>
        <g
           id="g329"
           transform="matrix(0.1531793,0,0,-0.1519643,50.31089,480.65204)">
          <g
             id="g331"
             transform="translate(49.1875,-28.3793)">
            <path
               d="M 0,0 C -0.005,0.989 0.001,1.948 -0.302,2.902 -0.562,3.723 -0.689,3.547 -0.722,2.808 -0.791,1.239 -1.311,0.047 -2.085,-1.32 -2.61,-2.25 -3.027,-3.407 -3.79,-4.159 c -0.675,-0.665 -1.526,-1.093 -2.336,-1.564 -1.754,-1.021 -3.358,-2.255 -5.346,-2.818 -0.896,-0.253 -1.77,-0.326 -2.701,-0.364 -0.847,-0.034 -1.354,-0.367 -2.154,-0.509 -0.728,-0.13 -1.74,-0.503 -2.474,-0.426 -0.839,0.087 -1.857,0.734 -2.651,1.044 -1.858,0.727 -3.695,1.379 -5.588,1.99 -0.785,0.254 -1.347,0.611 -2.208,0.683 -0.716,0.06 -1.251,-0.004 -1.904,-0.273 -0.832,-0.339 -1.422,-0.906 -1.588,-1.768 -0.29,-1.497 0.261,-3.273 1.835,-3.814 0.892,-0.307 0.893,-0.031 0.561,0.571 -0.295,0.532 -0.416,1.125 -0.162,1.715 0.736,1.708 3.135,0.844 4.347,0.3 0.781,-0.35 1.433,-0.886 2.212,-1.252 0.89,-0.419 1.867,-0.714 2.79,-1.058 0.865,-0.324 1.864,-0.895 2.775,-1.025 0.814,-0.116 1.84,0.141 2.656,0.206 2.273,0.178 4.56,0.312 6.826,0.566 0.667,0.075 1.039,0.331 1.634,0.665 l 2.828,1.584 c 0.559,0.313 1.299,0.585 1.79,1.003 0.492,0.419 0.765,1.209 1.128,1.737 0.358,0.518 0.791,0.974 1.006,1.575 C 0.108,-3.66 0.01,-1.805 0,0 m -2.332,27.344 c -0.254,0.857 -0.735,1.571 -1.198,2.319 -0.797,1.291 -1.684,3.691 -3.29,4.132 -0.987,0.272 -2.283,0.135 -3.31,0.171 -1.064,0.037 -2.128,0.07 -3.191,0.112 -1.391,0.054 -2.886,0.275 -4.265,0.112 -0.707,-0.084 -1.416,-0.274 -2.115,-0.409 -2.223,-0.428 -4.445,-0.858 -6.666,-1.287 -0.543,-0.104 -1.398,-0.45 -1.95,-0.376 -0.362,0.048 -1.229,0.66 -1.406,0.991 -0.346,0.646 0.244,1.921 -0.173,2.513 -0.221,0.316 -0.836,0.221 -1.326,0.243 -1.645,0.074 -3.308,0.251 -4.91,0.033 -0.896,-0.121 -2.799,0.008 -3.421,-0.771 -0.347,-0.437 -0.62,-1.847 -0.678,-2.4 -0.051,-0.483 0.471,-1.574 0.263,-1.923 -0.324,-0.543 -1.699,-0.499 -2.237,-0.505 -0.208,-0.002 -0.394,-0.027 -0.596,-0.068 -0.534,-0.105 -1.066,-0.082 -1.608,-0.082 -0.562,0 -1.264,0.127 -1.756,-0.178 -0.502,-0.314 -0.763,-0.66 -1.061,-1.142 -0.349,-0.564 -0.849,-1.236 -0.996,-1.899 -0.134,-0.612 -0.139,-1.266 -0.139,-1.909 0,-0.779 -0.06,-1.583 -0.006,-2.359 0.025,-0.382 0.127,-0.793 0.185,-1.175 0.073,-0.462 0.15,-0.989 0.294,-1.438 0.196,-0.612 0.499,-1.329 0.874,-1.858 0.387,-0.547 0.854,-0.998 1.285,-1.504 0.266,-0.312 0.561,-0.404 0.888,-0.617 0.308,-0.2 0.492,-0.477 0.871,-0.561 0.321,-0.071 0.725,-0.03 1.04,-0.134 0.266,-0.09 0.347,-0.153 0.684,-0.15 0.254,0.002 0.509,0 0.764,-10e-4 0.336,-10e-4 0.532,0.025 0.817,0.128 0.264,0.095 0.483,0.169 0.711,0.303 0.186,0.11 0.632,0.32 0.787,0.479 0.071,0.074 0.224,0.446 0.187,0.56 -0.092,0.272 -0.64,0.111 -0.892,0.172 -1.313,0.322 -1.82,1.327 -2.65,2.259 -0.753,0.846 -1.124,2.075 -0.852,3.198 0.05,0.201 0.171,0.332 0.314,0.47 0.131,0.124 0.284,0.356 0.436,0.45 0.085,0.052 0.364,0.122 0.442,0.143 0.225,0.06 0.465,0.033 0.7,0.032 0.438,-10e-4 0.878,0 1.317,0 0.22,0 0.438,0.005 0.657,0.001 0.322,-0.004 0.279,-0.032 0.526,-0.202 0.336,-0.23 0.765,-0.236 1.126,-0.416 0.233,-0.117 0.352,-0.198 0.618,-0.257 0.193,-0.043 0.328,-0.159 0.511,-0.228 0.215,-0.083 0.379,-0.046 0.6,-0.079 0.256,-0.038 0.381,-0.208 0.583,-0.271 0.267,-0.083 0.52,0.004 0.801,-0.117 0.22,-0.095 0.334,-0.178 0.577,-0.189 0.407,-0.02 0.824,0.002 1.231,0.002 0.594,0 1.154,-0.013 1.72,0.114 0.574,0.129 1.186,-0.033 1.764,0.066 1.278,0.218 2.443,0.647 3.63,1.178 0.57,0.254 1.226,0.467 1.685,0.909 0.474,0.457 0.995,0.847 1.458,1.32 0.79,0.811 1.866,1.267 2.785,1.896 0.554,0.378 1.172,0.606 1.791,0.846 0.149,0.058 0.281,0.157 0.431,0.208 0.158,0.054 0.3,0.013 0.448,0.048 0.167,0.04 0.364,0.191 0.526,0.253 0.835,0.319 1.708,0.644 2.6,0.747 0.826,0.096 1.777,-0.159 2.581,-0.333 1.766,-0.381 3.827,-1.016 4.245,-3.061 0.151,-0.738 -0.045,-1.59 -0.73,-2.029 -0.232,-0.149 -0.505,-0.141 -0.628,-0.303 -0.059,-0.079 -0.086,-0.194 -0.05,-0.393 0,0.132 -0.076,0.28 -0.098,0.41 -0.761,-0.253 -1.536,-2.38 -1.134,-3.032 0.572,-0.929 2.194,-0.597 2.957,-0.33 1.186,0.416 2.691,0.721 3.641,1.571 0.843,0.755 1.164,1.913 1.224,3.012 0.054,0.963 0.034,1.65 -0.243,2.585 m -28.862,15.617 c 0.07,0.931 0.135,1.861 0.204,2.792 0.16,2.185 0.314,4.373 0.551,6.553 0.05,0.473 0.275,1.192 0.046,1.539 -0.117,0.178 -1.023,0.618 -1.257,0.664 -0.774,0.156 -2.577,-1.456 -3.157,-2.027 -1.139,-1.119 -1.743,-3.228 -2.44,-4.673 -0.813,-1.682 -2.278,-3.888 -2.395,-5.731 -0.12,-1.872 0.224,-3.893 0.365,-5.764 2.044,0.204 4.085,0.435 6.126,0.679 0.538,0.064 2.081,-0.004 2.363,0.395 0.143,0.203 0.111,0.695 0.151,0.943 -0.231,0.717 -0.574,1.458 -0.711,2.197 -0.136,0.74 0.096,1.676 0.154,2.433 m 22.624,0.291 c -0.171,1.108 -0.54,2.132 -0.971,3.168 -0.449,1.082 -0.897,2.157 -1.508,3.158 -0.106,0.176 -0.179,0.369 -0.283,0.544 -0.114,0.192 -0.289,0.32 -0.411,0.506 -0.134,0.199 -0.204,0.47 -0.32,0.685 -0.161,0.29 -0.385,0.502 -0.538,0.799 -0.357,0.7 -0.794,1.406 -1.256,2.042 -0.196,0.268 -0.477,0.452 -0.666,0.721 -0.151,0.214 -0.204,0.506 -0.364,0.711 -0.198,0.253 -0.438,0.439 -0.586,0.738 -0.184,0.378 -0.267,0.845 -0.398,1.241 -0.295,0.893 -0.574,2.096 -1.199,2.798 -0.753,0.844 -1.398,1.815 -2.085,2.715 -0.13,0.172 -0.259,0.394 -0.432,0.491 -0.413,0.235 -1.554,0.018 -2.019,0.022 -0.736,0.007 -1.47,0.013 -2.206,0.017 -1.658,0.013 -3.316,0.022 -4.974,0.027 -0.829,0.004 -1.657,0.006 -2.486,0.008 -0.832,0.002 -1.746,0.113 -2.568,0.003 -0.177,-0.023 -0.347,-0.113 -0.524,-0.107 -0.274,0.011 -0.538,0.106 -0.823,0.117 -0.219,0.008 -0.335,0.071 -0.552,0.116 -0.353,0.076 -0.712,0.008 -1.069,0.031 -0.398,0.022 -0.792,0.162 -1.169,0.295 -0.659,0.233 -1.253,0.438 -1.791,0.879 -0.466,0.381 -0.737,0.761 -0.947,1.32 -0.171,0.455 -0.267,0.8 -0.054,1.257 0.086,0.183 0.194,0.47 0.343,0.617 0.12,0.117 0.408,0.129 0.553,0.171 0.234,0.066 0.405,0.122 0.659,0.145 0.352,0.034 0.276,0.123 0.541,0.264 0.178,0.095 0.502,0.03 0.7,0.029 0.872,-0.001 1.752,-0.077 2.612,-0.076 0.534,0 1.124,-0.074 1.65,0.079 0.21,0.061 0.406,0.161 0.619,0.215 0.414,0.106 1.282,0.255 1.677,0.046 0.416,-0.22 0.798,-1.09 0.875,-1.467 0.083,-0.412 0.043,-0.578 -0.22,-0.874 -0.224,-0.255 -0.35,-0.516 -0.627,-0.703 -0.622,-0.421 -1.529,-0.477 -2.288,-0.432 0.182,-0.258 0.655,-0.14 0.929,-0.185 0.656,-0.111 1.404,-0.232 2.075,-0.082 0.479,0.107 1.074,0.098 1.487,0.399 0.161,0.115 0.267,0.295 0.433,0.413 0.151,0.11 0.308,0.169 0.439,0.312 0.269,0.293 0.415,0.623 0.706,0.903 0.169,0.164 0.202,0.226 0.281,0.449 0.177,0.501 0.333,1.055 0.329,1.585 -0.003,0.434 0.038,0.923 -0.175,1.321 -0.202,0.378 -0.5,0.705 -0.704,1.086 -0.202,0.375 -0.477,0.634 -0.737,0.96 -0.165,0.204 -0.154,0.438 -0.281,0.653 -0.119,0.207 -0.236,0.223 -0.444,0.334 -0.628,0.33 -1.064,0.924 -1.756,1.138 -0.155,0.048 -0.266,0.047 -0.442,0.069 -0.166,0.019 -0.203,0.092 -0.321,0.117 -0.312,0.066 -0.653,-0.021 -0.96,0.066 -0.108,0.031 -0.182,0.098 -0.322,0.117 -0.187,0.024 -0.401,-0.003 -0.59,-0.003 -1.026,0 -2.229,0.174 -3.229,-0.074 -0.31,-0.076 -0.593,-0.208 -0.915,-0.247 -0.573,-0.073 -1.171,-0.05 -1.748,-0.073 -2.384,-0.091 -4.766,-0.227 -7.139,-0.463 -0.654,-0.065 -1.321,0.256 -1.626,-0.339 -0.199,-0.385 -0.103,-1.154 -0.117,-1.576 -0.025,-0.737 -0.075,-1.493 -0.039,-2.229 0.021,-0.431 0.191,-0.823 0.232,-1.248 0.065,-0.657 -0.147,-1.349 -0.243,-1.994 -0.103,-0.693 -0.172,-1.393 -0.106,-2.092 0.014,-0.154 0.088,-0.261 0.119,-0.388 0.035,-0.143 -10e-4,-0.25 0.024,-0.392 0.047,-0.262 0.09,-0.638 0.18,-0.881 0.142,-0.381 0.421,-0.714 0.528,-1.134 0.048,-0.19 0.027,-0.364 0.119,-0.541 0.184,-0.354 0.292,-0.643 0.375,-1.033 0.113,-0.539 0.448,-0.927 0.68,-1.416 0.169,-0.355 0.338,-0.71 0.54,-1.047 0.287,-0.477 0.637,-0.9 1.126,-1.177 0.562,-0.317 1.22,-0.454 1.844,-0.597 0.518,-0.12 0.975,-0.093 1.502,-0.083 0.517,0.011 1.094,-0.097 1.601,-0.008 0.37,0.065 0.596,0.157 0.994,0.155 0.63,-0.005 1.173,0.255 1.784,0.295 0.704,0.047 1.324,-0.277 2.052,-0.137 0.419,0.08 0.728,0.135 1.167,0.134 0.434,-10e-4 0.868,0 1.303,0 0.731,0 1.657,0.154 2.359,-0.032 0.289,-0.078 0.553,-0.085 0.845,-0.147 0.118,-0.025 0.159,-0.099 0.322,-0.117 0.152,-0.02 0.261,0.002 0.41,-0.028 0.26,-0.056 0.432,-0.119 0.712,-0.117 0.259,0.003 0.51,0.004 0.76,-0.076 0.185,-0.06 0.354,-0.165 0.545,-0.218 0.894,-0.253 1.984,-0.097 2.905,-0.109 0.938,-0.014 1.776,0.203 2.154,-0.731 0.204,-0.506 0.604,-0.872 0.858,-1.344 0.186,-0.345 0.443,-0.803 0.553,-1.183 0.133,-0.447 0.437,-0.757 0.658,-1.167 0.445,-0.816 1.196,-1.497 1.794,-2.19 0.424,-0.491 0.69,-1.117 1.092,-1.622 0.398,-0.495 0.627,-1.064 0.982,-1.594 0.219,-0.329 0.426,-0.642 0.597,-0.999 0.027,-0.175 0.094,-0.333 0.202,-0.476 0.131,-0.159 0.274,-0.304 0.431,-0.439 0.342,-0.538 0.412,-1.166 0.602,-1.755 0.159,-0.498 0.26,-0.814 0.259,-1.343 0,-0.277 -0.027,-0.554 0.034,-0.823 0.035,-0.158 0.116,-0.246 0.113,-0.465 -0.005,-0.337 0.106,-0.86 0.008,-1.178 -0.067,-0.213 -0.336,-0.514 -0.483,-0.687 -0.213,-0.249 -0.475,-0.403 -0.736,-0.585 -0.207,-0.146 -0.545,-0.348 -0.822,-0.359 -0.042,-0.259 0.654,-0.41 0.863,-0.52 0.389,-0.205 0.884,-0.291 1.313,-0.332 0.408,-0.04 0.787,0.063 1.166,0.145 0.476,0.103 1.005,0.24 1.404,0.531 0.349,0.256 0.553,0.588 0.873,0.869 0.015,0.016 0.033,0.029 0.049,0.044 0.309,0.274 0.62,0.567 0.872,0.893 0.249,0.321 0.263,0.812 0.354,1.179 0.099,0.399 0.115,0.743 0.115,1.167 0,0.779 0.106,1.658 -0.013,2.425 M -12.185,4.985 c 0.074,0.293 0.084,0.571 0.146,0.881 0.167,0.839 0.105,1.69 0.114,2.553 0.005,0.485 -0.09,0.779 -0.367,1.172 -0.29,0.413 -0.254,0.771 -0.393,1.247 -0.094,0.323 -0.346,0.754 -0.553,1.02 -0.235,0.303 -0.517,0.728 -0.849,0.922 -0.184,0.107 -0.415,0.342 -0.611,0.402 -0.153,0.047 -0.346,-0.03 -0.506,0.006 -0.115,0.025 -0.315,0.1 -0.439,0.146 -0.66,0.246 -0.945,0.978 -1.508,1.344 -0.124,0.081 -0.252,0.131 -0.375,0.213 -0.287,0.194 -0.422,0.32 -0.782,0.396 -0.352,0.075 -0.698,0.079 -1.054,0.119 -0.605,0.07 -1.194,0.236 -1.805,0.248 -1.189,0.025 -2.582,-0.14 -3.706,-0.512 -0.958,-0.317 -1.965,-1.563 -2.638,-2.338 -0.381,-0.438 -0.438,-0.678 -0.609,-1.252 -0.188,-0.54 -0.519,-1.147 -0.596,-1.709 -0.13,-0.946 0.405,-2.265 0.591,-3.206 0.239,-1.206 0.293,-2.65 0.749,-3.783 0.224,-0.559 0.654,-0.846 1.132,-1.27 0.572,-0.507 1.197,-1.246 1.884,-1.563 0.977,-0.45 2.077,-0.559 3.118,-0.788 0.248,-0.055 0.504,-0.134 0.762,-0.116 0.276,0.02 0.486,0.154 0.732,0.265 0.355,0.16 0.678,0.17 1.06,0.211 0.464,0.051 0.77,0.323 1.169,0.529 0.423,0.218 0.913,0.253 1.354,0.429 0.475,0.188 0.961,0.421 1.388,0.682 0.404,0.246 0.851,0.405 1.174,0.766 0.321,0.355 0.542,0.646 0.796,1.043 0.232,0.361 0.541,0.767 0.601,1.211 0.033,0.248 -0.042,0.479 0.021,0.732 m -36.573,-9.876 c 0.056,-0.932 0.737,-2.238 1.409,-2.865 0.471,-0.437 1,-0.517 1.592,-0.595 1.15,-0.153 2.299,-0.306 3.448,-0.459 1.362,-0.18 2.991,-0.016 4.232,0.641 0.674,0.357 1.295,1.199 1.852,1.723 0.494,0.465 0.548,0.592 0.731,1.248 0.307,1.101 0.615,2.201 0.923,3.303 0.35,1.252 -0.203,2.715 -0.547,3.943 -0.276,0.985 -0.665,1.99 -1.039,2.947 -0.246,0.627 -0.317,1.272 -0.939,1.631 -0.519,0.302 -4.108,0.155 -3.57,-0.98 0.779,0.187 1.977,0.343 2.392,-0.599 0.403,-0.912 0.053,-2.451 -0.066,-3.418 -0.24,-1.965 -0.883,-3.652 -3.14,-3.657 -1.973,-0.004 -3.415,2.016 -3.441,3.901 -0.028,1.982 0.048,4.397 1.623,5.784 0.857,0.752 1.883,0.81 2.976,1.015 0.782,0.146 1.475,0.401 2.235,0.163 0.806,-0.252 1.358,-0.991 1.962,-1.56 0.573,-0.538 1.445,-1.097 1.785,-1.821 0.153,-0.324 0.073,-0.613 0.156,-0.943 0.09,-0.345 0.372,-0.718 0.534,-1.032 0.294,-0.567 0.544,-1.305 0.967,-1.78 0.382,-0.427 0.963,-0.767 1.409,-1.124 1.894,-1.512 3.79,-3.024 5.684,-4.536 0.955,-0.763 2.032,-1.973 3.153,-2.474 0.747,-0.334 1.778,-0.391 2.574,-0.566 1.111,-0.245 2.221,-0.535 3.342,-0.735 1.526,-0.274 3.325,0.374 4.839,0.632 0.619,0.105 0.994,0.118 1.465,0.468 0.698,0.518 1.303,1.24 1.933,1.841 0.605,1.512 1.211,3.024 1.817,4.536 l 2.302,5.743 c 0.501,1.251 0.234,2.499 0.166,3.844 -0.06,1.205 -0.76,2.225 -1.476,3.195 -0.589,0.799 -1.234,1.541 -1.822,2.354 -0.469,0.65 -0.966,1.224 -1.615,1.662 -1.347,0.909 -2.562,1.684 -4.256,1.687 -0.897,0.001 -1.72,-0.222 -2.598,-0.369 -0.308,-0.051 -1.564,0.054 -1.639,-0.423 0.401,-0.145 0.975,-0.058 1.42,-0.163 0.472,-0.114 0.891,-0.251 1.329,-0.471 0.795,-0.398 1.511,-0.92 2.187,-1.494 1.277,-1.084 2.686,-2.848 3.219,-4.467 0.549,-1.671 -0.276,-4.3 -0.866,-5.874 -0.696,-1.85 -2.194,-2.932 -3.509,-4.308 -0.815,-0.854 -1.575,-1.384 -2.671,-1.7 -1.101,-0.318 -2.201,-0.647 -3.307,-0.956 -0.667,-0.187 -1.043,-0.047 -1.742,0.112 -1.535,0.347 -3.045,0.503 -4.152,1.721 -1.425,1.564 -2.633,3.396 -3.928,5.069 -0.346,0.447 -0.968,0.998 -1.184,1.527 -0.209,0.513 -0.16,1.299 -0.225,1.845 -0.145,1.213 -0.29,2.425 -0.435,3.637 -0.076,0.64 -0.02,1.549 -0.256,2.154 -0.441,1.125 -1.109,1.104 -2.074,0.973 -4.239,-0.578 -8.477,-1.157 -12.715,-1.735 -2.671,-0.364 -2.087,-3.416 -2.136,-5.432 -0.06,-2.478 -0.12,-4.957 -0.179,-7.436 -0.043,-1.753 -0.235,-3.576 -0.129,-5.327 m -0.911,30.65 c -0.038,0.213 -0.144,0.365 -0.158,0.586 -0.01,0.165 0.044,0.358 0.01,0.517 -0.033,0.149 -0.127,0.209 -0.161,0.346 -0.031,0.13 0.037,0.286 0.017,0.418 -0.021,0.136 -0.092,0.234 -0.123,0.365 -0.06,0.251 -0.048,0.455 -0.143,0.698 -0.246,0.637 -0.726,1.286 -1.349,1.611 -0.535,0.28 -1.381,0.073 -1.967,0.113 -0.682,0.047 -1.332,-0.081 -2.004,-0.185 -0.909,-0.142 -2.434,-0.518 -3.118,0.328 -0.307,0.379 0.169,1.235 0.188,1.76 0.02,0.54 -0.169,1.054 -0.307,1.588 -0.292,1.129 -0.443,1.468 -1.722,1.684 -0.817,0.138 -1.67,0.284 -2.487,0.385 -1.19,0.145 -2.544,-0.079 -3.742,-0.116 -0.383,-0.012 -1.281,0.135 -1.622,-0.05 -0.282,-0.153 -0.138,-0.069 -0.249,-0.405 -0.21,-0.631 0.076,-1.453 -0.172,-2.068 -0.167,-0.414 -0.578,-0.756 -1.033,-0.98 -0.952,-0.468 -2.596,-0.012 -3.681,0.078 -1.457,0.12 -2.915,0.239 -4.373,0.355 -3.087,0.247 -6.177,0.549 -9.27,0.701 -2.534,0.126 -5.71,0.961 -6.982,-1.937 -1.059,-2.412 -1.564,-5.182 -0.693,-7.73 0.438,-1.281 1.172,-1.89 2.338,-2.5 0.835,-0.436 2.169,-1.522 3.13,-1.492 0.577,0.019 2.231,0.33 2.51,0.906 0.496,1.027 -1.219,1.037 -1.75,1.302 -1.799,0.897 -3.431,3.409 -2.454,5.416 0.457,0.94 2.085,1.658 3.033,1.9 1.08,0.275 1.811,-0.382 2.839,-0.521 0.545,-0.074 1.157,0.082 1.707,0.106 1.344,0.058 2.662,-0.935 3.806,-1.548 0.506,-0.272 1.014,-0.536 1.53,-0.79 0.389,-0.192 0.828,-0.237 1.207,-0.426 0.17,-0.084 0.288,-0.239 0.45,-0.331 0.15,-0.086 0.308,-0.076 0.453,-0.151 0.043,-0.023 0.058,-0.093 0.1,-0.119 0.105,-0.065 0.256,-0.186 0.365,-0.219 0.295,-0.092 0.513,-0.167 0.791,-0.308 0.312,-0.157 0.626,-0.264 0.932,-0.457 0.298,-0.189 0.485,-0.439 0.804,-0.587 0.612,-0.284 1.226,-0.554 1.831,-0.809 0.232,-0.098 0.484,-0.195 0.73,-0.288 0.308,-0.117 0.681,-0.072 1.026,-0.072 0.472,0 0.858,0.056 1.317,0.134 0.411,0.07 0.891,0.012 1.312,0.012 0.494,0 0.989,0.002 1.483,0 0.471,-10e-4 0.878,0.136 1.335,0.151 0.592,0.018 1.076,0.212 1.657,0.292 0.465,0.064 0.916,0.091 1.394,0.135 0.282,0.026 0.496,0.172 0.782,0.168 0.329,-0.002 0.582,-0.19 0.879,-0.294 0.457,-0.16 0.853,-0.182 1.262,-0.455 0.4,-0.269 0.782,-0.476 1.207,-0.692 0.469,-0.238 1.357,-0.421 1.424,-1.058 0.027,-0.265 0.005,-0.494 0.069,-0.734 0.1,-0.38 0.174,-1.056 0.081,-1.471 -0.057,-0.249 -0.325,-0.771 -0.479,-0.984 -0.221,-0.305 -0.577,-0.571 -0.846,-0.837 -0.285,-0.284 -0.551,-0.57 -0.878,-0.806 -0.428,-0.309 -0.771,-0.478 -1.273,-0.613 0.259,-0.259 0.655,-0.331 0.981,-0.407 0.452,-0.104 0.839,-0.288 1.317,-0.296 0.426,-0.007 0.854,0.001 1.281,-10e-4 0.247,-10e-4 0.571,-0.056 0.807,0.022 0.295,0.096 0.505,0.353 0.805,0.461 0.873,0.317 1.744,0.79 2.264,1.566 0.234,0.35 0.453,0.627 0.582,1.021 0.137,0.421 0.384,0.825 0.516,1.239 0.124,0.385 0.284,0.856 0.337,1.255 0.051,0.37 0.141,0.627 0.139,1.022 -0.005,0.767 0,1.534 0,2.301 v 1.21 c 0,0.179 0.038,0.411 0.008,0.585 m -18.588,28.084 c 0,-0.025 0.002,-0.049 0.005,-0.072 0.048,-0.295 0.216,-0.541 0.319,-0.814 0.16,-0.424 0.229,-0.907 0.333,-1.346 0.086,-0.363 0.21,-0.732 0.221,-1.108 0.019,-0.635 -0.002,-1.276 -0.005,-1.912 -0.002,-0.36 0.031,-0.608 0.114,-0.92 0.072,-0.275 -0.004,-0.555 0.024,-0.838 0.034,-0.328 0.158,-0.572 0.154,-0.908 -0.005,-0.358 0,-0.717 0,-1.076 v -2.227 c 0,-0.231 0.063,-0.549 0.009,-0.772 -0.02,-0.078 -0.111,-0.121 -0.122,-0.171 -0.03,-0.138 0.006,-0.283 -0.025,-0.415 -0.024,-0.108 -0.102,-0.099 -0.123,-0.17 -0.039,-0.137 -0.018,-0.264 -0.056,-0.401 -0.049,-0.179 -0.216,-0.313 -0.26,-0.507 -0.118,-0.499 0.131,-0.951 0.058,-1.438 -0.06,-0.4 -0.272,-0.911 -0.112,-1.311 0.101,-0.249 0.356,-0.186 0.738,-0.237 1.096,-0.141 2.193,-0.28 3.29,-0.413 0.954,-0.116 1.924,-0.287 2.885,-0.335 0.174,-0.009 0.349,-0.012 0.52,0.024 0.272,0.057 0.506,0.191 0.669,0.42 0.183,0.258 0.241,0.587 0.267,0.895 0.041,0.47 0.153,0.948 0.17,1.416 0.016,0.441 -0.005,0.891 -0.005,1.333 0,0.762 -0.095,1.459 -0.16,2.207 -0.037,0.435 -0.191,0.843 -0.279,1.265 -0.088,0.417 -0.166,0.853 -0.325,1.251 -0.598,1.484 -1.377,2.942 -2.309,4.235 -0.346,0.48 -0.716,1 -1.024,1.501 -0.163,0.264 -0.311,0.539 -0.469,0.805 -0.22,0.369 -0.571,0.549 -0.82,0.881 -0.177,0.236 -0.352,0.378 -0.547,0.6 -0.148,0.169 -0.21,0.39 -0.388,0.534 -0.37,0.303 -0.723,0.438 -1.15,0.623 -0.311,0.135 -0.593,0.362 -0.944,0.426 -0.124,0.024 -0.542,0.077 -0.668,0.024 -0.228,-0.098 -0.154,-0.341 -0.104,-0.564 0.009,-0.038 0.107,-0.104 0.122,-0.172 0.022,-0.096 -0.004,-0.208 -0.003,-0.313 M -50.5,74.286 c -0.329,0.245 -1.59,0.087 -1.98,0.108 -1.357,0.073 -2.714,0.147 -4.07,0.22 -1.986,0.109 -4.017,0.076 -5.992,0.296 -0.572,0.065 -1.105,0.297 -1.683,0.328 -0.447,0.025 -0.914,-0.007 -1.353,-0.089 -0.388,-0.071 -0.859,-0.065 -1.224,-0.217 -0.304,-0.129 -0.516,-0.249 -0.842,-0.33 -0.258,-0.064 -0.535,-0.297 -0.796,-0.373 -0.177,-0.052 -0.346,-0.003 -0.521,-0.063 -0.104,-0.036 -0.345,-0.226 -0.442,-0.301 -0.182,-0.138 -0.341,-0.351 -0.505,-0.511 -0.218,-0.216 -0.423,-0.478 -0.589,-0.728 -0.164,-0.249 -0.363,-0.495 -0.508,-0.769 -0.174,-0.326 -0.429,-0.678 -0.479,-1.021 -0.07,-0.478 0.005,-1.027 0.003,-1.511 -0.004,-0.947 0.274,-1.834 0.623,-2.707 0.135,-0.342 0.253,-0.812 0.548,-1.064 0.275,-0.234 0.662,-0.526 1.024,-0.585 0.381,-0.064 0.898,-0.017 1.285,0.003 0.421,0.023 0.767,0.262 1.188,0.325 -0.044,0.353 -0.428,0.184 -0.614,0.367 -0.177,0.176 -0.109,0.539 -0.102,0.775 0.009,0.343 0.038,0.505 0.256,0.772 0.178,0.219 0.286,0.48 0.467,0.695 0.206,0.243 0.473,0.299 0.704,0.464 0.118,0.085 0.186,0.219 0.325,0.304 0.138,0.085 0.299,0.15 0.445,0.221 0.561,0.265 1.267,0.474 1.9,0.47 0.861,-0.005 1.649,-0.115 2.488,-0.259 0.486,-0.085 0.956,0.026 1.43,-0.139 0.414,-0.146 0.953,-0.243 1.32,-0.469 0.988,-0.604 1.587,-1.714 1.343,-2.834 -0.07,-0.318 -0.069,-0.623 -0.1,-0.945 -0.042,-0.444 -0.175,-0.517 -0.522,-0.727 -0.093,-0.055 -0.146,-0.136 -0.249,-0.19 -0.189,-0.102 -0.481,-0.117 -0.703,-0.175 -0.135,-0.034 -0.139,-0.095 -0.321,-0.118 -0.134,-0.017 -0.307,0.003 -0.443,0.004 -0.292,0.001 -0.584,0 -0.877,0 -2.009,0 -4.003,-0.07 -6.014,-0.039 -2.433,0.038 -4.867,0.07 -7.3,0.099 -1.339,0.018 -2.678,0.033 -4.016,0.051 -1.487,0.019 -1.719,-0.006 -2.83,-0.949 -0.342,-0.29 -0.41,-0.395 -0.602,-0.788 -0.375,-0.775 -0.746,-1.528 -0.995,-2.345 -0.229,-0.75 -0.653,-1.632 -1.144,-2.243 -0.146,-0.182 -0.225,-0.359 -0.326,-0.55 -0.18,-0.343 -0.249,-0.645 -0.44,-0.985 -0.509,-0.909 -1.256,-1.601 -1.796,-2.485 -0.302,-0.493 -0.578,-1.06 -0.76,-1.611 -0.17,-0.517 -0.507,-1.019 -0.74,-1.512 -0.347,-0.737 -0.832,-1.385 -1.098,-2.156 -0.165,-0.478 -0.364,-0.921 -0.475,-1.423 -0.059,-0.265 -0.15,-0.502 -0.225,-0.764 -0.095,-0.333 -0.032,-0.668 -0.1,-1.005 -0.192,-0.959 -0.099,-1.965 -0.114,-2.952 -0.003,-0.244 0.057,-0.366 0.114,-0.584 0.066,-0.248 0.033,-0.517 0.033,-0.774 -10e-4,-0.201 -0.019,-0.413 -0.006,-0.613 0.019,-0.269 0.145,-0.515 0.16,-0.785 0.027,-0.474 0.12,-0.701 0.395,-1.079 0.197,-0.27 0.277,-0.566 0.511,-0.811 0.573,-0.602 0.98,-1.067 1.866,-1.062 0.762,0.004 1.533,0.032 2.294,-0.003 -0.168,-0.031 -0.516,0.198 -0.688,0.259 -0.264,0.095 -0.348,0.168 -0.545,0.366 -0.282,0.282 -0.557,0.67 -0.627,1.055 -0.093,0.52 0.006,1.159 0.006,1.689 0,0.637 0.01,1.204 0.128,1.824 0.131,0.692 0.408,1.37 0.782,1.98 0.179,0.292 0.425,0.549 0.597,0.846 0.171,0.298 0.296,0.625 0.513,0.926 0.345,0.48 0.715,0.969 1.037,1.469 0.284,0.441 0.705,0.734 1.007,1.15 0.43,0.593 0.816,1.159 1.228,1.776 1.235,1.846 2.47,3.693 3.705,5.538 0.193,0.29 0.323,0.602 0.612,0.714 0.682,0.268 1.529,0.123 2.236,0.058 0.789,-0.074 1.558,0.188 2.349,-0.006 0.485,-0.12 0.841,-0.179 1.377,-0.179 1.1,0 2.381,0.174 3.446,-0.073 0.8,-0.185 1.886,-0.155 2.707,-0.079 0.281,0.026 0.532,0.139 0.815,0.156 0.228,0.013 0.465,-0.004 0.694,-0.004 0.476,10e-4 0.891,0.066 1.35,0.143 0.308,0.051 0.559,0.143 0.874,0.149 0.247,0.005 0.496,0 0.743,0 0.388,0 0.776,0.002 1.163,0 0.512,-0.002 0.968,0.14 1.464,0.147 0.4,0.005 0.643,0.145 1.025,0.147 0.81,0.003 1.514,0.632 2.052,1.166 0.527,0.525 0.883,1.174 1.312,1.761 0.564,0.767 0.744,1.612 1.18,2.455 0.156,0.303 0.199,0.646 0.267,0.987 0.066,0.339 0.207,0.661 0.267,1 0.053,0.289 0.029,0.582 0.135,0.862 0.061,0.163 0.172,0.302 0.227,0.468 0.241,0.727 0.116,1.724 0.014,2.463 -0.026,0.967 -0.113,1.916 0.048,2.867 0.076,0.445 0.245,0.897 0.237,1.345 -0.008,0.496 -0.206,2.451 -0.563,2.716 M -95.991,-1.1 c -0.361,0.429 -0.498,0.934 -0.81,1.408 -0.159,0.24 -0.313,0.478 -0.468,0.717 -0.142,0.219 -0.389,0.403 -0.406,0.68 -0.314,-0.295 -0.543,-0.985 -0.668,-1.391 -0.319,-1.036 0.15,-2.48 0.295,-3.56 0.119,-0.874 0.078,-2.207 0.511,-2.957 0.258,-0.447 0.846,-0.873 1.202,-1.24 0.974,-1.004 1.913,-2.062 2.931,-3.022 0.406,-0.384 0.306,-0.362 0.938,-0.473 1.416,-0.247 2.851,-0.415 4.276,-0.609 1.241,-0.17 2.469,-0.319 3.718,-0.407 0.497,-0.036 0.947,-0.183 1.414,-0.349 0.708,-0.252 1.473,-0.124 2.213,-0.13 0.36,-0.003 0.554,0.111 0.875,0.15 0.409,0.05 0.772,0.079 1.175,0.175 0.307,0.073 0.572,0.233 0.874,0.264 0.386,0.041 0.647,0.159 1.028,0.256 0.379,0.097 0.647,0.052 1.024,0.22 0.345,0.153 0.834,0.22 1.141,0.431 0.214,0.146 0.383,0.305 0.611,0.442 0.257,0.156 0.554,0.257 0.792,0.42 0.09,0.06 0.174,0.197 0.266,0.247 0.146,0.078 0.363,0.028 0.523,0.061 0.035,0.072 0.092,0.113 0.172,0.122 0.101,-0.001 0.202,-0.005 0.304,-0.012 0.169,0.02 0.199,0.091 0.321,0.117 0.385,0.085 0.616,-0.093 0.992,-0.109 0.231,-0.01 0.707,-0.106 0.849,-0.327 0.128,-0.202 0.06,-0.888 -0.004,-1.107 -0.082,-0.28 -0.352,-0.438 -0.523,-0.654 -0.146,-0.183 -0.21,-0.619 -0.567,-0.553 0.367,0.013 0.768,-0.052 1.123,0.037 0.194,0.047 0.391,0.178 0.585,0.226 0.19,0.046 0.367,0.018 0.553,0.066 0.524,0.135 1.246,0.483 1.682,0.804 0.413,0.304 0.842,0.818 1.098,1.247 0.194,0.324 0.175,0.611 0.179,0.989 0.009,0.808 -0.821,2.379 -1.448,2.674 -0.923,0.434 -2.708,0.069 -3.568,-0.192 -2.036,-0.62 -4.055,-1.897 -5.995,-2.783 -0.87,-0.397 -1.84,-0.562 -2.761,-0.809 -0.406,-0.11 -0.81,-0.126 -1.229,-0.104 -0.32,0.017 -0.64,0.05 -0.96,0.047 -0.234,-0.001 -0.501,-0.069 -0.73,-0.012 -0.131,0.033 -0.144,0.13 -0.276,0.162 -0.126,0.031 -0.311,-0.005 -0.446,-0.006 -0.56,-0.012 -0.903,0.445 -1.464,0.437 -0.838,-0.013 -1.62,0.298 -2.439,0.473 -0.687,0.145 -1.323,0.489 -1.913,0.896 -0.379,0.261 -0.738,0.549 -1.08,0.828 -0.424,0.346 -0.906,0.502 -1.299,0.876 -0.365,0.349 -0.808,0.571 -1.21,0.883 -0.254,0.197 -0.419,0.342 -0.631,0.58 -0.237,0.265 -0.551,0.429 -0.764,0.721 -0.202,0.277 -0.29,0.615 -0.493,0.893 -0.199,0.274 -0.538,0.457 -0.725,0.732 -0.318,0.465 -0.411,1.078 -0.788,1.525 m 26.327,10.914 c -0.056,0.524 -0.323,1.088 -0.471,1.591 -0.116,0.387 -0.191,0.864 -0.395,1.208 -0.286,0.481 -0.919,0.887 -1.328,1.273 -0.372,0.352 -0.912,1.07 -1.362,1.271 -0.832,0.371 -2.088,0.308 -3.007,0.421 -0.882,0.108 -2.108,0.473 -2.985,0.325 -0.603,-0.101 -1.393,-0.684 -1.933,-0.952 -0.63,-0.313 -1.26,-0.63 -1.889,-0.946 -0.734,-0.37 -2.065,-0.747 -2.594,-1.348 -0.295,-0.334 -0.471,-0.898 -0.677,-1.291 -0.242,-0.461 -0.69,-1.046 -0.815,-1.553 -0.167,-0.683 0.262,-1.533 0.45,-2.227 0.323,-1.188 0.482,-2.629 0.974,-3.752 0.272,-0.62 0.305,-0.605 0.966,-1.003 0.595,-0.359 1.192,-0.719 1.79,-1.075 1.129,-0.673 2.263,-1.34 3.408,-1.986 1.093,-0.618 1.133,-0.77 2.298,-0.466 0.973,0.254 2.337,0.383 3.215,0.867 0.69,0.382 1.375,1.032 1.969,1.55 l 0.96,1.62 c 0.486,0.818 0.573,1.668 0.748,2.605 0.21,1.125 0.797,2.738 0.678,3.868 m 4.065,-7.887 c 0.471,0.635 1.117,1.805 1.314,2.572 0.204,0.796 0.174,1.096 0.808,1.688 0.794,0.741 1.597,1.751 2.51,2.343 0.602,0.391 1.068,0.417 1.742,0.288 0.883,-0.168 2.085,-0.184 2.899,-0.561 0.46,-0.214 1.451,-0.966 1.573,-1.411 0.216,-0.789 -0.109,-1.706 -0.242,-2.485 -0.174,-1.018 -0.243,-2.069 -0.335,-3.098 -0.059,-0.677 -0.046,-1.521 -0.42,-2.118 -0.439,-0.704 -1.088,-0.402 -1.738,-0.304 -0.441,0.067 -0.705,0.141 -0.93,0.563 -0.096,0.179 -0.135,0.326 -0.168,0.521 -0.036,0.202 -0.124,0.326 -0.169,0.512 -0.124,0.505 0.007,1.25 0.007,1.771 0,0.516 -0.104,1.165 0.012,1.663 0.023,0.099 0.107,0.19 0.137,0.3 0.031,0.106 -0.001,0.225 0.03,0.338 0.019,0.071 0.084,0.237 0.113,0.325 0.06,0.178 0.023,0.175 0.106,0.333 0.179,0.339 0.396,0.731 0.715,0.968 0.114,0.084 0.357,0.275 0.489,0.316 0.284,0.087 0.54,-0.028 0.834,0.14 -0.286,0.219 -0.492,0.571 -0.787,0.77 -0.233,0.158 -0.483,0.106 -0.771,0.107 -0.117,0 -0.26,0.03 -0.371,0.006 -0.1,-0.021 -0.175,-0.099 -0.247,-0.12 -0.242,-0.068 -0.472,-0.015 -0.7,-0.104 -0.216,-0.084 -0.366,-0.161 -0.585,-0.221 -0.377,-0.103 -0.932,-0.329 -1.262,-0.58 -0.173,-0.132 -0.325,-0.325 -0.489,-0.473 -0.229,-0.205 -0.272,-0.4 -0.441,-0.631 -0.111,-0.151 -0.3,-0.246 -0.409,-0.397 -0.11,-0.151 -0.186,-0.386 -0.289,-0.557 -0.108,-0.18 -0.22,-0.34 -0.311,-0.526 -0.148,-0.305 -0.142,-0.649 -0.273,-0.961 -0.125,-0.296 -0.228,-0.588 -0.332,-0.894 -0.328,-0.962 -0.527,-1.925 -0.622,-2.949 -0.051,-0.552 0.14,-1.011 0.3,-1.564 0.306,-1.065 0.507,-2.263 0.945,-3.282 0.683,-1.586 2.168,-2.141 3.641,-2.829 0.579,-0.271 0.85,-0.216 1.511,-0.159 1.268,0.108 2.535,0.216 3.804,0.324 1.255,0.107 3.05,0.068 3.612,1.553 0.096,0.258 0.021,0.68 0.022,0.954 0.005,0.894 0.01,1.787 0.013,2.681 l 0.075,14.087 c 0.005,0.935 -0.261,1.792 -1.228,2.234 -0.498,0.227 -1.327,0.183 -1.862,0.257 -1.196,0.166 -2.392,0.332 -3.587,0.498 -2.46,0.341 -4.92,0.682 -7.38,1.023 -1.144,0.159 -2.034,0.477 -2.529,-0.893 -0.302,-0.837 -0.245,-1.996 -0.353,-2.878 -0.15,-1.213 -0.299,-2.424 -0.448,-3.637 -0.06,-0.486 -0.062,-0.829 -0.298,-1.22 -0.471,-0.774 -1.287,-1.471 -1.883,-2.153 -0.869,-0.994 -1.738,-1.988 -2.608,-2.983 -0.615,-0.702 -1.207,-1.61 -1.928,-2.205 -0.466,-0.384 -1.003,-0.411 -1.621,-0.55 -0.835,-0.186 -1.733,-0.513 -2.584,-0.491 -2.095,0.056 -3.558,1.024 -5.353,1.986 -0.7,0.374 -1.399,0.759 -2.042,1.226 -0.609,0.441 -1.072,0.964 -1.585,1.504 -0.201,0.209 -0.414,0.33 -0.656,0.48 -0.56,0.349 -0.931,1.02 -1.215,1.591 -0.169,0.338 -0.377,0.614 -0.479,0.983 -0.102,0.37 -0.262,0.784 -0.297,1.135 -0.039,0.398 -0.146,0.772 -0.141,1.178 0.004,0.44 -0.009,0.88 0,1.32 0.007,0.412 0.182,0.728 0.259,1.131 0.081,0.427 0.16,0.783 0.366,1.171 0.315,0.595 0.642,1.412 1.13,1.906 0.197,0.198 0.498,0.336 0.731,0.467 0.268,0.152 0.473,0.297 0.728,0.475 0.494,0.348 0.994,0.645 1.467,0.989 0.436,0.316 0.963,0.476 1.464,0.732 0.317,0.162 0.608,0.22 0.949,0.306 0.415,0.105 0.841,0.122 1.246,0.279 0.755,0.294 1.456,0.318 2.293,0.29 -0.15,-0.02 -0.259,0.06 -0.351,0.171 -0.089,0.106 -0.091,0.285 -0.179,0.392 -0.193,0.234 -0.164,0.112 -0.374,0.175 -0.381,0.113 -0.771,0.339 -1.17,0.423 -0.383,0.081 -0.848,0.012 -1.244,0.012 -0.19,0 -0.399,-0.025 -0.588,-0.003 -0.211,0.024 -0.306,0.113 -0.504,0.155 -0.353,0.076 -0.813,-0.009 -1.177,-0.005 -0.737,0.007 -1.668,-0.461 -2.318,-0.781 -0.551,-0.271 -1.035,-0.602 -1.511,-0.987 -0.571,-0.463 -1.18,-0.847 -1.81,-1.223 -0.175,-0.105 -0.385,-0.199 -0.536,-0.338 -0.017,-0.016 -0.034,-0.031 -0.049,-0.048 -0.164,-0.181 -0.278,-0.468 -0.404,-0.677 -0.259,-0.43 -0.517,-0.86 -0.775,-1.289 -0.516,-0.857 -1.3,-1.791 -1.643,-2.733 -0.254,-0.693 -0.168,-1.632 -0.219,-2.371 -0.038,-0.555 -0.17,-1.171 -0.054,-1.709 0.151,-0.701 0.576,-1.431 0.843,-2.093 0.489,-1.214 0.978,-2.429 1.469,-3.643 0.469,-1.165 0.939,-2.331 1.408,-3.496 0.209,-0.519 0.364,-1.195 0.672,-1.666 0.416,-0.639 1.206,-1.18 1.757,-1.707 0.468,-0.448 0.56,-0.466 1.193,-0.525 l 7.056,-0.644 c 1.144,-0.105 1.543,0.385 2.513,1.056 3.796,2.624 7.591,5.248 11.387,7.872 0.304,0.209 0.522,0.351 0.731,0.632 m 86.313,32.839 c -0.23,-1.103 -0.734,-2.067 -0.52,-3.335 0.208,-1.239 -0.588,-2.443 -1.335,-3.53 v 0.735 c -0.085,0.006 -0.17,0.011 -0.255,0.018 -0.038,-0.593 -0.187,-1.205 -0.09,-1.774 0.319,-1.872 0.754,-3.725 1.085,-5.595 0.092,-0.525 0.07,-1.107 -0.055,-1.626 C 19.13,17.937 18.662,16.227 18.182,14.522 17.783,13.109 17.383,11.694 16.896,10.31 16.606,9.481 16.173,8.7 15.759,7.921 15.591,7.604 15.297,7.354 15.079,7.061 14.984,6.935 14.922,6.779 14.868,6.628 14.554,5.751 15.265,4.841 14.769,3.956 14.602,3.658 14.512,3.298 14.467,2.956 14.338,1.976 14.256,0.991 14.143,0.01 14.123,-0.156 14.077,-0.34 13.982,-0.472 13.444,-1.224 12.877,-1.955 12.349,-2.713 12.257,-2.845 12.306,-3.076 12.283,-3.333 11.061,-4.432 10.506,-6.16 9.218,-7.403 8.06,-8.521 7.325,-10.08 6.399,-11.44 c -0.61,-0.896 -1.246,-1.774 -1.838,-2.68 -0.518,-0.789 -1.362,-1.319 -1.444,-2.467 -0.045,-0.621 -0.714,-1.276 -1.239,-1.767 -1.053,-0.983 -2.201,-1.864 -3.313,-2.79 -0.019,0.167 -0.042,0.358 -0.065,0.549 -0.068,0.029 -0.137,0.057 -0.205,0.086 -0.44,-0.65 -0.873,-1.303 -1.319,-1.948 -0.29,-0.419 -0.601,-0.825 -0.901,-1.237 -0.222,-0.306 -0.451,-0.606 -0.663,-0.919 -0.355,-0.526 -0.694,-1.065 -1.053,-1.589 -0.123,-0.179 -0.296,-0.322 -0.427,-0.495 -0.532,-0.701 -1.03,-1.429 -1.6,-2.096 -0.145,-0.17 -0.507,-0.18 -0.775,-0.215 -0.389,-0.052 -0.804,0.01 -1.173,-0.097 -1.556,-0.453 -3.114,-0.904 -4.637,-1.454 -0.616,-0.222 -1.223,-0.613 -1.695,-1.07 -1.451,-1.399 -3.261,-2.344 -4.621,-3.886 -0.719,-0.814 -1.881,-1.262 -2.887,-1.789 -1.12,-0.587 -2.285,-1.087 -3.44,-1.604 -0.629,-0.281 -1.259,-0.653 -1.922,-0.749 -1.3,-0.189 -2.626,-0.189 -3.937,-0.313 -1.513,-0.144 -3.081,-0.025 -4.48,-0.794 -1.502,-0.826 -3.141,-0.673 -4.756,-0.696 -0.114,-10e-4 -0.263,0.02 -0.338,0.091 -0.723,0.676 -1.549,0.387 -2.345,0.239 -0.121,-0.022 -0.19,-0.322 -0.322,-0.564 -0.368,-0.051 -0.841,-0.162 -1.316,-0.17 -1.006,-0.015 -2.015,0.024 -3.022,0.039 -1.049,0.015 -2.103,0.101 -3.144,0.019 -0.979,-0.078 -1.943,-0.335 -2.913,-0.516 -0.018,-0.003 -0.027,-0.057 -0.044,-0.058 -0.394,-0.038 -0.833,-0.199 -1.176,-0.082 -0.908,0.308 -1.816,0.666 -2.64,1.148 -0.429,0.251 -1.125,0.384 -1.109,1.146 0.003,0.105 -0.178,0.248 -0.304,0.318 -0.502,0.281 -1.016,0.54 -1.524,0.807 0.004,-0.08 0.009,-0.16 0.013,-0.239 -0.147,-0.032 -0.305,-0.116 -0.44,-0.088 -0.739,0.153 -1.467,0.362 -2.21,0.491 -0.296,0.051 -0.631,-0.124 -0.927,-0.074 -1.156,0.194 -2.303,0.438 -3.454,0.661 -1.412,0.274 -2.825,0.542 -4.237,0.818 -0.197,0.039 -0.398,0.181 -0.579,0.155 -1.298,-0.187 -2.403,0.519 -3.604,0.768 -0.213,0.044 -0.378,0.32 -0.565,0.488 0.037,0.033 0.075,0.067 0.113,0.1 l 1.097,-0.354 c 0.026,0.07 0.052,0.141 0.079,0.212 -0.765,0.516 -1.528,1.033 -2.292,1.55 -0.035,-0.107 -0.071,-0.214 -0.106,-0.321 -0.27,0.02 -0.588,-0.046 -0.802,0.074 -0.659,0.374 -1.28,0.816 -1.914,1.235 -1.029,0.682 -2.012,1.449 -3.098,2.023 -0.782,0.413 -1.752,0.464 -2.546,0.862 -1.873,0.938 -3.74,1.914 -4.966,3.738 -0.446,0.665 -0.961,1.284 -1.552,2.066 -0.135,-0.275 -0.206,-0.421 -0.257,-0.524 -1.417,1.196 -1.927,2.856 -2.811,4.282 -0.803,1.296 -1.631,2.626 -2.692,3.703 -1.287,1.307 -2.856,2.332 -4.252,3.538 -1.382,1.193 -1.64,2.935 -2.062,4.581 -0.171,0.668 -0.323,1.34 -0.483,2.011 -0.08,-0.018 -0.16,-0.035 -0.24,-0.053 0.023,-0.199 0.046,-0.399 0.069,-0.598 -0.333,0.324 -0.458,0.73 -0.675,1.078 -0.46,0.737 -0.963,1.448 -1.459,2.162 -0.128,0.185 -0.317,0.328 -0.443,0.514 -0.777,1.154 -1.552,2.309 -2.307,3.477 -0.132,0.205 -0.182,0.469 -0.24,0.713 -0.309,1.306 -0.57,2.625 -0.924,3.918 -0.327,1.191 -0.751,2.355 -1.132,3.532 l -0.189,-0.053 c -0.039,-0.119 -0.078,-0.238 -0.099,-0.304 -0.141,0.743 -0.341,1.499 -0.416,2.267 -0.096,0.982 -0.053,1.977 -0.141,2.961 -0.089,1.011 0.114,2.058 -0.435,3.023 -0.307,0.541 -0.575,1.147 -0.676,1.754 -0.442,2.642 -0.777,5.29 -2.156,7.687 -0.994,1.728 -1.071,3.688 -0.727,5.594 0.562,3.111 1.11,6.237 2.339,9.181 0.072,0.173 0.267,0.291 0.375,0.455 0.411,0.625 0.811,1.259 1.214,1.889 -0.045,0.034 -0.09,0.068 -0.136,0.101 -0.148,-0.068 -0.297,-0.136 -0.446,-0.203 0.681,0.902 0.805,2.021 0.488,2.863 -0.356,0.945 -0.322,1.672 0.088,2.491 0.042,-0.074 0.084,-0.149 0.223,-0.397 0.066,0.721 0.116,1.267 0.166,1.812 0.052,0.58 0.062,1.167 0.162,1.739 0.562,3.234 1.854,6.233 2.98,9.289 1.13,3.067 3.182,5.592 4.814,8.357 0.861,1.46 2.041,2.789 3.478,3.843 1.613,1.183 3.245,2.32 4.374,4.107 0.794,1.257 2.03,2.25 3.137,3.288 1.756,1.649 3.533,3.28 5.369,4.84 2.851,2.423 5.634,4.988 9.519,5.69 0.261,0.048 0.537,0.007 0.799,0.052 0.913,0.158 1.881,0.197 2.717,0.546 0.855,0.359 1.574,1.037 2.365,1.556 0.13,0.086 0.325,0.073 0.491,0.101 0.257,0.044 0.574,0.002 0.763,0.139 1.535,1.098 3.138,2.023 4.988,2.52 1.317,0.353 2.594,0.857 3.881,1.317 0.424,0.152 0.819,0.534 1.235,0.544 1.588,0.037 3,0.75 4.514,1.059 2.229,0.457 4.441,1.064 6.612,-0.238 0.235,-0.14 0.623,-0.062 0.935,-0.031 0.313,0.03 0.63,0.219 0.927,0.183 2.927,-0.359 5.849,-0.753 8.773,-1.128 1.472,-0.189 2.949,-0.352 4.422,-0.537 1.166,-0.148 2.337,-0.271 3.492,-0.478 1.452,-0.261 2.89,-0.597 4.336,-0.897 0.072,-0.015 0.152,0.007 0.226,-0.005 0.679,-0.11 1.441,-0.064 2.019,-0.367 1.737,-0.907 3.404,-1.948 5.095,-2.943 0.516,-0.304 0.957,-0.892 1.667,-0.361 0.068,0.051 0.284,-0.064 0.415,-0.131 1.753,-0.899 3.648,-1.346 5.569,-1.644 1.359,-0.212 1.949,-1.273 2.726,-2.151 0.076,-0.086 0.031,-0.279 0.051,-0.534 -0.275,0.241 -0.469,0.412 -0.664,0.583 -0.057,-0.036 -0.115,-0.072 -0.173,-0.108 0.205,-0.344 0.338,-0.774 0.627,-1.016 1.2,-1.003 2.376,-2.033 3.56,-3.044 1.749,-1.495 3.098,-3.442 5.205,-4.551 0.804,-0.424 1.417,-1.208 2.13,-1.812 0.142,-0.123 0.341,-0.186 0.522,-0.255 C 1.06,75.484 2.6,74.796 3.365,73.063 4.02,71.581 4.683,70.097 5.447,68.67 5.819,67.977 6.369,67.347 6.945,66.8 c 2.313,-2.196 4.776,-4.244 6.249,-7.183 0.509,-1.015 1.203,-1.936 1.797,-2.911 0.183,-0.3 0.338,-0.622 0.46,-0.951 0.52,-1.401 1.083,-2.789 1.513,-4.217 0.398,-1.326 0.668,-2.693 0.957,-4.051 0.215,-1.008 0.307,-2.047 0.567,-3.041 0.353,-1.343 1.039,-2.638 1.166,-3.993 0.129,-1.387 0.423,-2.71 0.736,-4.046 0.128,-0.549 0.428,-1.138 0.324,-1.641"
               style="fill:#231f20;fill-opacity:1;fill-rule:nonzero;stroke:none"
               id="path333" />
          </g>
        </g>
      </g>
    </g>
  </g>
</svg>
