<?xml version="1.0" encoding="UTF-8" standalone="no"?>
<!-- Created with Inkscape (http://www.inkscape.org/) -->

<svg
   width="24.05946"
   height="24"
   viewBox="0 0 6.365732 6.35"
   version="1.1"
   id="svg5104"
   inkscape:version="1.2.1 (9c6d41e4, 2022-07-14)"
   sodipodi:docname="return-to-depths-of-yoth.svg"
   xmlns:inkscape="http://www.inkscape.org/namespaces/inkscape"
   xmlns:sodipodi="http://sodipodi.sourceforge.net/DTD/sodipodi-0.dtd"
   xmlns="http://www.w3.org/2000/svg"
   xmlns:svg="http://www.w3.org/2000/svg">
  <sodipodi:namedview
     id="namedview5106"
     pagecolor="#505050"
     bordercolor="#eeeeee"
     borderopacity="1"
     inkscape:showpageshadow="0"
     inkscape:pageopacity="0"
     inkscape:pagecheckerboard="0"
     inkscape:deskcolor="#505050"
     inkscape:document-units="mm"
     showgrid="false"
     inkscape:zoom="0.7046647"
     inkscape:cx="123.46297"
     inkscape:cy="95.790239"
     inkscape:window-width="1390"
     inkscape:window-height="941"
     inkscape:window-x="0"
     inkscape:window-y="25"
     inkscape:window-maximized="0"
     inkscape:current-layer="layer1" />
  <defs
     id="defs5101">
    <clipPath
       clipPathUnits="userSpaceOnUse"
       id="clipPath1691">
      <path
         d="m 39.282,359.146 h 22.057 v 21.883 H 39.282 Z"
         id="path1689" />
    </clipPath>
  </defs>
  <g
     inkscape:label="Layer 1"
     inkscape:groupmode="layer"
     id="layer1"
     transform="translate(-72.287425,-123.35977)">
    <g
       id="g1685"
       transform="matrix(0.29716561,0,0,-0.29716561,60.519624,236.51205)">
      <g
         id="g1687"
         clip-path="url(#clipPath1691)">
        <g
           id="g1693"
           transform="matrix(0.1531793,0,0,-0.1519643,50.310883,370.00003)">
          <g
             id="g1695"
             transform="translate(43.1465,-26.2235)">
            <path
               d="m 0,0 c -0.037,0.382 0.033,0.644 -0.118,1.018 -0.236,0.576 -0.603,1.087 -0.828,1.678 -0.216,0.566 -0.5,1.08 -0.747,1.633 -1.465,3.278 -3.509,6.309 -4.692,9.706 -0.364,1.043 -1.044,1.903 -1.473,2.911 -0.355,0.832 -0.523,1.725 -1.031,2.497 -0.648,0.984 -1.044,2.065 -1.483,3.152 -0.356,0.879 -0.796,1.738 -1.131,2.624 -0.396,1.053 -0.476,2.185 -0.786,3.26 -0.212,0.736 -0.513,1.456 -0.836,2.155 -0.958,2.067 -2.358,3.883 -3.499,5.85 -0.982,1.693 -1.167,3.782 -1.729,5.621 -0.57,1.863 -1.232,3.698 -1.833,5.554 -0.376,1.165 -1.019,2.068 -1.677,3.094 -0.703,1.099 -1.328,2.122 -2.175,3.139 -0.772,0.926 -1.496,1.876 -2.059,2.931 -0.566,1.061 -1.338,1.931 -2.04,2.908 -0.759,1.055 -1.395,2.147 -2.208,3.179 -0.659,0.839 -1.351,1.575 -2.055,2.366 -0.486,0.544 -0.952,1.104 -1.415,1.666 -0.35,0.425 -0.743,1.155 -1.22,1.454 -0.189,0.118 -0.364,0.099 -0.563,0.175 -0.495,0.19 -0.673,0.7 -0.981,1.073 -0.688,0.833 -1.333,1.613 -1.928,2.51 -0.285,0.429 -0.405,0.925 -0.67,1.357 -0.259,0.424 -0.705,0.728 -1.003,1.132 -0.367,0.498 -0.577,1.056 -0.909,1.567 -0.126,0.193 -0.29,0.312 -0.384,0.546 -0.023,-0.335 0.246,-0.599 0.407,-0.871 0.474,-0.801 0.595,-1.718 0.922,-2.57 0.439,-1.145 0.98,-2.293 1.526,-3.399 0.491,-0.995 1.235,-1.899 1.556,-2.946 0.169,-0.553 0.467,-1.095 0.715,-1.621 0.365,-0.77 0.636,-1.587 1.042,-2.339 0.553,-1.026 1.341,-1.97 1.809,-3.036 0.258,-0.587 0.622,-1.169 0.832,-1.764 0.25,-0.712 0.457,-1.374 0.768,-2.074 0.537,-1.207 0.908,-2.535 1.599,-3.678 0.728,-1.2 1.477,-2.377 1.998,-3.681 0.531,-1.325 0.941,-2.738 1.607,-4.005 0.452,-0.86 0.709,-1.768 1.225,-2.603 0.486,-0.784 0.972,-1.544 1.397,-2.363 0.237,-0.457 0.575,-0.87 0.786,-1.336 0.15,-0.335 0.23,-0.703 0.425,-1.023 0.198,-0.326 0.451,-0.602 0.63,-0.94 0.378,-0.717 0.442,-1.515 0.791,-2.241 0.306,-0.64 0.668,-1.296 1.041,-1.902 0.352,-0.573 0.747,-1.136 1.046,-1.737 0.176,-0.35 0.272,-0.751 0.458,-1.097 0.239,-0.44 0.619,-0.752 0.906,-1.155 0.479,-0.669 0.694,-1.482 1.103,-2.198 0.423,-0.741 0.685,-1.579 0.988,-2.371 0.205,-0.535 0.435,-1.048 0.611,-1.591 0.249,-0.765 0.453,-1.627 0.809,-2.353 0.225,-0.458 0.54,-0.766 0.711,-1.24 0.211,-0.585 0.58,-0.92 0.948,-1.424 0.387,-0.531 0.923,-1.169 1.144,-1.777 0.284,-0.783 0.34,-1.568 0.707,-2.318 0.566,-1.159 1.153,-2.38 1.655,-3.574 0.247,-0.583 0.372,-1.203 0.601,-1.79 0.278,-0.714 0.621,-1.243 0.746,-2.014 0.09,-0.551 0.193,-0.998 0.401,-1.52 0.22,-0.552 0.303,-1.13 0.501,-1.693 -0.967,-0.151 -2.134,-0.011 -3.115,-0.011 -0.937,0 -2.165,-0.184 -3.072,0.041 -0.245,0.06 -0.3,0.126 -0.563,0.144 -0.865,0.054 -1.736,0.134 -2.61,0.232 -0.661,0.075 -1.229,0.322 -1.86,0.49 -0.903,0.241 -1.869,0.165 -2.795,0.166 -1.134,0 -2.268,0.006 -3.402,-0.002 -0.582,-0.004 -1.136,0.016 -1.706,0.131 -0.529,0.104 -0.993,0.346 -1.517,0.46 -1.435,0.313 -2.901,0.594 -4.361,0.339 -1.383,-0.243 -2.658,-0.919 -4.08,-0.949 -0.721,-0.014 -1.369,0.048 -2.087,-0.133 -0.992,-0.25 -1.816,-0.666 -2.859,-0.748 -1.066,-0.083 -2.118,-0.263 -3.178,-0.398 -1.945,-0.248 -3.894,-0.309 -5.838,-0.556 -2.692,-0.342 -5.522,-0.556 -8.243,-0.483 -1.069,0.029 -2.118,0.209 -3.19,0.198 -1.172,-0.014 -2.305,0.043 -3.473,0.13 -1.938,0.145 -3.862,0.356 -5.796,0.575 -1.02,0.116 -1.965,0.363 -3.005,0.373 -0.739,0.007 -1.392,0.031 -2.114,0.13 -0.861,0.118 -1.759,0.035 -2.625,0.039 -0.495,0.002 -0.986,0.031 -1.479,-0.039 -0.498,-0.072 -1.095,-0.028 -1.574,-0.134 -0.22,-0.049 -0.287,-0.282 -0.544,-0.165 -0.021,0.379 0.266,0.824 0.332,1.215 0.099,0.589 0.431,1.069 0.56,1.647 0.137,0.617 0.211,0.955 0.556,1.55 0.313,0.537 0.314,0.983 0.458,1.557 0.307,1.221 0.759,2.412 1.054,3.64 0.139,0.581 0.465,1.129 0.578,1.702 0.083,0.418 0.045,0.586 0.244,0.96 0.207,0.39 0.509,0.736 0.73,1.122 0.62,1.083 0.709,2.311 1.192,3.449 0.246,0.582 0.343,1.178 0.516,1.776 0.13,0.449 0.425,0.822 0.616,1.25 0.354,0.79 0.666,1.562 1.06,2.332 0.262,0.515 0.277,0.997 0.44,1.533 0.167,0.552 0.52,1.069 0.744,1.603 0.236,0.563 0.344,1.081 0.526,1.656 0.313,0.995 1.032,1.826 1.557,2.722 0.438,0.748 0.8,1.501 1.12,2.302 0.667,1.673 2.019,2.98 2.993,4.486 0.374,0.578 0.476,1.213 0.725,1.834 0.315,0.783 0.801,1.56 1.25,2.282 0.926,1.496 1.607,3.086 2.366,4.659 0.646,1.338 1.269,2.678 1.849,4.042 0.659,1.55 1.703,2.948 2.574,4.396 0.872,1.454 1.541,3.005 2.438,4.439 0.86,1.377 1.4,2.835 1.997,4.319 0.459,1.14 0.942,2.268 1.458,3.388 0.619,1.342 1.137,2.736 1.815,4.046 0.662,1.281 1.235,2.651 1.759,3.991 0.194,0.496 0.377,1.118 0.365,1.644 0.252,0.598 0.213,0.976 0.156,1.385 -0.541,-0.29 -0.614,-1.253 -0.951,-1.742 -0.36,-0.525 -0.826,-0.99 -1.194,-1.523 -0.516,-0.746 -1.071,-1.408 -1.562,-2.175 -0.373,-0.583 -0.443,-1.275 -0.837,-1.844 -0.488,-0.706 -0.781,-1.395 -1.147,-2.164 -0.728,-1.538 -1.717,-3.068 -2.695,-4.472 -0.443,-0.636 -0.938,-1.2 -1.441,-1.789 -0.449,-0.523 -0.749,-1.201 -1.119,-1.782 -0.96,-1.511 -1.865,-3.07 -2.721,-4.637 -0.647,-1.183 -1.375,-2.23 -2.245,-3.279 -0.682,-0.822 -1.151,-1.751 -1.665,-2.671 -0.547,-0.977 -1.301,-1.802 -1.898,-2.746 -0.469,-0.739 -0.811,-1.547 -1.316,-2.267 -0.527,-0.751 -1.125,-1.404 -1.52,-2.233 -0.431,-0.901 -0.958,-1.706 -1.483,-2.557 -0.426,-0.688 -0.732,-1.432 -1.19,-2.104 -0.412,-0.603 -0.933,-1.159 -1.298,-1.788 -0.414,-0.71 -0.705,-1.474 -1.152,-2.169 -0.342,-0.534 -0.696,-1.06 -1.036,-1.595 -1.821,-2.868 -3.159,-5.919 -3.878,-9.207 -0.394,-1.805 -0.736,-3.833 -1.506,-5.524 -0.714,-1.569 -1.638,-3.046 -2.314,-4.629 -0.623,-1.462 -1.437,-2.881 -1.848,-4.416 -0.167,-0.62 -0.23,-1.263 -0.412,-1.879 -0.163,-0.549 -0.39,-1.041 -0.501,-1.605 -0.091,-0.463 -0.323,-0.801 -0.511,-1.228 -0.312,-0.706 -0.492,-1.403 -0.899,-2.07 -0.726,-1.186 -1.45,-2.396 -2.244,-3.538 -0.271,-0.388 -0.853,-0.948 -0.471,-1.44 0.282,-0.366 0.844,-0.089 1.243,-0.161 0.27,-0.05 0.463,-0.177 0.748,-0.192 0.233,-0.014 0.478,-0.004 0.712,0 0.985,0.015 1.826,0.634 2.789,0.824 1.042,0.207 2.45,0.182 3.533,0.071 0.666,-0.069 0.959,-0.473 1.482,-0.813 0.459,-0.298 1.011,-0.415 1.507,-0.642 1.666,-0.764 3.12,-1.707 5.016,-1.916 1.006,-0.111 2.026,0.014 3.037,-0.041 0.981,-0.053 1.968,-0.157 2.943,-0.278 1.287,-0.158 2.575,-0.18 3.857,-0.33 0.797,-0.093 1.569,-0.228 2.375,-0.26 1.863,-0.073 3.737,-0.001 5.601,-0.017 1.055,-0.009 1.988,0.222 3.027,0.33 0.888,0.093 1.799,0.033 2.69,0.031 1.729,-0.005 3.413,-0.065 5.137,-0.179 1.987,-0.132 3.938,-0.172 5.932,-0.178 1.962,-0.006 3.907,0.202 5.869,0.178 1.101,-0.013 2.167,0.052 3.263,0.14 1.023,0.083 2.046,0.027 3.07,0.129 2.112,0.211 4.239,0.049 6.354,0.229 0.939,0.079 1.879,-0.026 2.815,0.048 0.809,0.064 1.644,0.279 2.443,0.43 0.898,0.17 1.761,0.481 2.658,0.65 1.193,0.225 2.42,0.208 3.616,0.434 1.892,0.356 3.792,0.399 5.7,0.611 1.525,0.17 2.626,1.112 3.986,1.681 C 0.309,-0.705 0.033,-0.327 0,0 m -43.973,13.396 c 0.083,0.206 0.165,0.42 0.2,0.677 0.022,0.17 0.032,0.345 0.036,0.522 -0.076,-0.217 -0.143,-0.437 -0.202,-0.657 z m -0.987,39.593 c -0.242,0.756 -0.432,1.641 -0.788,2.346 -0.296,0.59 -0.875,1.072 -0.793,1.827 0.046,-2.271 -0.827,-4.417 -1.464,-6.568 -0.289,-0.976 -0.498,-1.694 -0.49,-2.73 0.007,-1.127 -0.012,-2.074 -0.305,-3.121 -0.307,-1.095 0.132,-2.279 -0.117,-3.368 -0.117,-0.507 -0.522,-0.887 -0.68,-1.375 -0.131,-0.407 -0.075,-0.834 -0.153,-1.255 -0.224,-1.204 -1.049,-2.245 -1.11,-3.456 -0.023,-0.447 0.089,-0.935 0.023,-1.375 -0.078,-0.527 -0.332,-0.933 -0.427,-1.461 -0.19,-1.052 0.027,-2.393 0.02,-3.457 -0.006,-0.96 0.072,-1.339 0.589,-2.136 0.564,-0.869 0.78,-1.987 1.091,-2.96 0.401,-1.254 0.742,-2.551 1.058,-3.83 0.208,-0.837 0.651,-1.509 0.817,-2.355 0.104,-0.532 0.189,-1.155 0.284,-1.688 0.182,-1.022 -0.02,-1.716 0.579,-2.643 0.564,-0.872 1.474,-2.997 2.651,-3.228 l 0.202,3.24 c -0.06,-0.149 -0.118,-0.294 -0.161,-0.448 0.037,0.338 0.109,0.666 0.195,0.99 l 0.156,2.501 c 0,-0.594 0.063,-1.234 0.046,-1.844 0.335,0.947 0.813,1.857 1.284,2.781 1.098,2.153 1.482,4.264 1.889,6.595 0.461,2.651 1.101,5.08 1.101,7.783 0,0.711 0.169,1.676 -0.069,2.348 -0.198,0.565 -0.634,0.942 -0.833,1.58 -0.196,0.624 -0.252,1.021 -0.285,1.645 -0.106,1.972 0.211,3.934 -0.296,5.814 -0.21,0.775 0.092,1.606 -0.166,2.366 -0.25,0.738 -1.011,1.301 -1.405,1.956 -1.105,1.834 -1.794,3.506 -2.443,5.526 M 26.755,32.61 c -0.23,-1.103 -0.734,-2.067 -0.52,-3.335 0.208,-1.238 -0.588,-2.442 -1.335,-3.529 v 0.734 c -0.085,0.006 -0.17,0.012 -0.255,0.018 -0.038,-0.593 -0.187,-1.205 -0.09,-1.774 C 24.874,22.852 25.309,21 25.64,19.129 25.732,18.604 25.71,18.022 25.585,17.503 25.171,15.781 24.703,14.071 24.223,12.366 23.824,10.953 23.424,9.538 22.937,8.154 22.647,7.326 22.214,6.544 21.8,5.765 21.632,5.448 21.338,5.199 21.12,4.905 21.025,4.779 20.963,4.623 20.909,4.472 20.595,3.596 21.306,2.686 20.81,1.8 20.643,1.502 20.553,1.142 20.508,0.8 c -0.129,-0.98 -0.211,-1.965 -0.324,-2.946 -0.02,-0.166 -0.066,-0.35 -0.161,-0.482 -0.538,-0.751 -1.105,-1.482 -1.633,-2.241 -0.092,-0.132 -0.043,-0.362 -0.066,-0.619 -1.222,-1.099 -1.777,-2.828 -3.065,-4.071 -1.158,-1.118 -1.893,-2.676 -2.819,-4.037 -0.61,-0.896 -1.246,-1.774 -1.838,-2.68 -0.518,-0.789 -1.362,-1.319 -1.444,-2.467 -0.045,-0.62 -0.714,-1.276 -1.239,-1.766 -1.053,-0.984 -2.201,-1.865 -3.313,-2.79 -0.019,0.167 -0.042,0.358 -0.065,0.549 -0.068,0.028 -0.137,0.056 -0.205,0.085 -0.44,-0.65 -0.873,-1.303 -1.319,-1.947 -0.29,-0.42 -0.601,-0.825 -0.901,-1.238 -0.222,-0.305 -0.451,-0.606 -0.663,-0.919 -0.355,-0.526 -0.694,-1.064 -1.053,-1.589 -0.123,-0.179 -0.296,-0.322 -0.427,-0.495 -0.532,-0.701 -1.03,-1.429 -1.6,-2.096 -0.145,-0.17 -0.507,-0.18 -0.775,-0.215 -0.389,-0.051 -0.804,0.01 -1.173,-0.097 -1.556,-0.452 -3.114,-0.904 -4.637,-1.453 -0.616,-0.223 -1.223,-0.614 -1.695,-1.071 -1.451,-1.399 -3.261,-2.344 -4.621,-3.886 -0.719,-0.814 -1.881,-1.262 -2.887,-1.789 -1.12,-0.587 -2.285,-1.087 -3.44,-1.604 -0.629,-0.281 -1.259,-0.652 -1.922,-0.749 -1.3,-0.188 -2.626,-0.188 -3.937,-0.313 -1.513,-0.144 -3.081,-0.024 -4.48,-0.794 -1.502,-0.826 -3.141,-0.672 -4.756,-0.696 -0.114,-10e-4 -0.263,0.02 -0.338,0.091 -0.723,0.676 -1.549,0.387 -2.345,0.239 -0.121,-0.022 -0.19,-0.322 -0.322,-0.564 -0.368,-0.05 -0.841,-0.162 -1.316,-0.17 -1.006,-0.015 -2.015,0.024 -3.022,0.039 -1.049,0.015 -2.103,0.102 -3.144,0.019 -0.979,-0.078 -1.943,-0.335 -2.913,-0.516 -0.018,-0.003 -0.027,-0.057 -0.044,-0.058 -0.394,-0.038 -0.833,-0.199 -1.176,-0.082 -0.908,0.308 -1.816,0.666 -2.64,1.148 -0.429,0.251 -1.125,0.384 -1.109,1.146 0.003,0.106 -0.178,0.248 -0.304,0.319 -0.502,0.28 -1.016,0.539 -1.524,0.806 0.004,-0.079 0.009,-0.159 0.013,-0.239 -0.147,-0.032 -0.305,-0.116 -0.44,-0.088 -0.739,0.153 -1.467,0.362 -2.21,0.491 -0.296,0.051 -0.631,-0.124 -0.927,-0.074 -1.156,0.194 -2.303,0.439 -3.454,0.662 -1.412,0.273 -2.825,0.541 -4.237,0.818 -0.197,0.038 -0.398,0.18 -0.579,0.154 -1.298,-0.187 -2.403,0.519 -3.604,0.768 -0.213,0.044 -0.378,0.32 -0.565,0.488 0.037,0.033 0.075,0.067 0.113,0.1 l 1.097,-0.354 c 0.026,0.07 0.052,0.141 0.079,0.212 -0.764,0.516 -1.528,1.033 -2.292,1.55 -0.035,-0.107 -0.071,-0.214 -0.106,-0.321 -0.27,0.02 -0.588,-0.046 -0.802,0.074 -0.659,0.374 -1.28,0.816 -1.914,1.235 -1.029,0.682 -2.012,1.449 -3.098,2.023 -0.782,0.413 -1.752,0.465 -2.546,0.862 -1.873,0.938 -3.74,1.914 -4.966,3.738 -0.446,0.665 -0.961,1.284 -1.552,2.066 -0.134,-0.275 -0.206,-0.421 -0.257,-0.524 -1.417,1.196 -1.927,2.856 -2.811,4.282 -0.803,1.297 -1.631,2.627 -2.691,3.703 -1.288,1.307 -2.857,2.332 -4.253,3.538 -1.382,1.193 -1.64,2.935 -2.062,4.581 -0.171,0.668 -0.323,1.341 -0.483,2.012 -0.08,-0.018 -0.16,-0.036 -0.24,-0.054 0.023,-0.199 0.046,-0.399 0.069,-0.598 -0.333,0.324 -0.458,0.73 -0.675,1.078 -0.46,0.737 -0.963,1.448 -1.459,2.162 -0.128,0.185 -0.317,0.329 -0.443,0.515 -0.777,1.153 -1.552,2.308 -2.307,3.476 -0.132,0.205 -0.182,0.469 -0.24,0.714 -0.309,1.305 -0.57,2.624 -0.924,3.917 -0.327,1.191 -0.751,2.356 -1.132,3.532 l -0.189,-0.053 c -0.039,-0.119 -0.078,-0.238 -0.099,-0.304 -0.141,0.743 -0.341,1.499 -0.416,2.267 -0.096,0.982 -0.053,1.978 -0.141,2.961 -0.089,1.012 0.114,2.058 -0.435,3.023 -0.307,0.541 -0.575,1.147 -0.676,1.754 -0.442,2.642 -0.777,5.29 -2.156,7.687 -0.994,1.728 -1.071,3.688 -0.727,5.594 0.562,3.111 1.11,6.237 2.339,9.182 0.072,0.172 0.267,0.291 0.375,0.454 0.411,0.625 0.811,1.26 1.214,1.889 -0.045,0.035 -0.09,0.068 -0.136,0.101 -0.148,-0.067 -0.297,-0.136 -0.446,-0.203 0.681,0.902 0.805,2.021 0.488,2.863 -0.356,0.945 -0.322,1.672 0.088,2.491 0.042,-0.074 0.084,-0.149 0.223,-0.397 0.066,0.722 0.116,1.267 0.166,1.812 0.052,0.58 0.062,1.167 0.162,1.74 0.562,3.233 1.854,6.232 2.98,9.289 1.13,3.066 3.182,5.592 4.814,8.356 0.861,1.46 2.041,2.789 3.478,3.843 1.613,1.184 3.245,2.32 4.374,4.107 0.794,1.257 2.03,2.25 3.137,3.288 1.756,1.649 3.533,3.281 5.369,4.84 2.851,2.423 5.634,4.989 9.519,5.691 0.261,0.048 0.537,0.007 0.799,0.051 0.913,0.159 1.881,0.197 2.717,0.546 0.855,0.359 1.574,1.037 2.365,1.556 0.13,0.086 0.325,0.073 0.491,0.102 0.257,0.044 0.574,0.002 0.764,0.138 1.534,1.098 3.137,2.024 4.987,2.52 1.317,0.353 2.594,0.857 3.881,1.317 0.424,0.153 0.819,0.534 1.235,0.544 1.588,0.037 3,0.75 4.514,1.06 2.229,0.456 4.441,1.063 6.612,-0.239 0.235,-0.14 0.623,-0.062 0.935,-0.031 0.313,0.03 0.63,0.219 0.927,0.183 2.927,-0.359 5.849,-0.753 8.773,-1.128 1.472,-0.189 2.949,-0.352 4.422,-0.537 1.166,-0.148 2.337,-0.271 3.492,-0.478 1.452,-0.261 2.89,-0.596 4.336,-0.896 0.072,-0.016 0.152,0.007 0.226,-0.006 0.679,-0.11 1.441,-0.064 2.019,-0.366 1.737,-0.908 3.404,-1.949 5.095,-2.944 0.516,-0.303 0.957,-0.891 1.667,-0.361 0.068,0.051 0.284,-0.064 0.415,-0.131 1.753,-0.898 3.648,-1.346 5.569,-1.643 1.359,-0.212 1.949,-1.274 2.726,-2.152 0.076,-0.086 0.031,-0.279 0.051,-0.534 -0.275,0.241 -0.469,0.412 -0.664,0.583 -0.057,-0.036 -0.115,-0.071 -0.173,-0.107 0.205,-0.345 0.338,-0.775 0.627,-1.017 1.2,-1.003 2.376,-2.033 3.56,-3.044 1.749,-1.495 3.098,-3.441 5.205,-4.551 0.804,-0.424 1.417,-1.208 2.13,-1.812 0.142,-0.122 0.341,-0.186 0.522,-0.255 1.616,-0.614 3.156,-1.303 3.921,-3.036 0.655,-1.482 1.318,-2.966 2.082,-4.393 0.372,-0.693 0.922,-1.323 1.498,-1.87 2.313,-2.196 4.776,-4.244 6.249,-7.183 0.509,-1.015 1.203,-1.936 1.797,-2.911 0.183,-0.3 0.338,-0.622 0.46,-0.951 0.52,-1.4 1.083,-2.789 1.513,-4.217 0.398,-1.326 0.668,-2.693 0.957,-4.05 0.215,-1.009 0.307,-2.047 0.567,-3.041 0.353,-1.344 1.039,-2.639 1.166,-3.994 0.129,-1.386 0.423,-2.71 0.736,-4.046 0.128,-0.548 0.428,-1.138 0.324,-1.641"
               style="fill:#231f20;fill-opacity:1;fill-rule:nonzero;stroke:none"
               id="path1697" />
          </g>
        </g>
      </g>
    </g>
  </g>
</svg>
