<?xml version="1.0" encoding="UTF-8" standalone="no"?>
<!-- Created with Inkscape (http://www.inkscape.org/) -->

<svg
   width="24.059361"
   height="24"
   viewBox="0 0 6.3657057 6.35"
   version="1.1"
   id="svg5980"
   inkscape:version="1.2.1 (9c6d41e4, 2022-07-14)"
   sodipodi:docname="return-to-the-rainforest.svg"
   xmlns:inkscape="http://www.inkscape.org/namespaces/inkscape"
   xmlns:sodipodi="http://sodipodi.sourceforge.net/DTD/sodipodi-0.dtd"
   xmlns="http://www.w3.org/2000/svg"
   xmlns:svg="http://www.w3.org/2000/svg">
  <sodipodi:namedview
     id="namedview5982"
     pagecolor="#505050"
     bordercolor="#eeeeee"
     borderopacity="1"
     inkscape:showpageshadow="0"
     inkscape:pageopacity="0"
     inkscape:pagecheckerboard="0"
     inkscape:deskcolor="#505050"
     inkscape:document-units="mm"
     showgrid="false"
     inkscape:zoom="0.7046647"
     inkscape:cx="14.191146"
     inkscape:cy="61.731487"
     inkscape:window-width="1390"
     inkscape:window-height="941"
     inkscape:window-x="0"
     inkscape:window-y="25"
     inkscape:window-maximized="0"
     inkscape:current-layer="layer1" />
  <defs
     id="defs5977">
    <clipPath
       clipPathUnits="userSpaceOnUse"
       id="clipPath1677">
      <path
         d="m 104.76,41.226 h 22.76 v 22.579 h -22.76 z"
         id="path1675" />
    </clipPath>
  </defs>
  <g
     inkscape:label="Layer 1"
     inkscape:groupmode="layer"
     id="layer1"
     transform="translate(-101.19894,-132.37114)">
    <g
       id="g1671"
       transform="matrix(0.28799578,0,0,-0.28799578,70.933939,150.67048)">
      <g
         id="g1673"
         clip-path="url(#clipPath1677)">
        <g
           id="g1679"
           transform="matrix(0.1580564,0,0,-0.1568027,116.14006,52.425537)">
          <g
             id="g1681"
             transform="translate(57.1924,10.0298)">
            <path
               d="m 0,0 c -0.021,0.324 -0.039,0.639 -0.039,0.925 0,0.821 -0.023,1.268 -0.235,1.823 -0.124,0.321 -0.392,0.71 -0.652,1.087 C -1.081,4.06 -1.232,4.279 -1.365,4.497 -1.389,4.534 -1.493,4.62 -1.587,4.695 -1.767,4.84 -1.943,4.99 -2.106,5.171 -2.225,5.303 -2.336,5.44 -2.447,5.578 -2.62,5.791 -2.77,5.976 -2.925,6.098 -3.401,6.475 -3.978,6.788 -4.588,7.121 -4.979,7.334 -5.368,7.548 -5.739,7.777 -6.01,7.946 -6.228,8.134 -6.401,8.284 -6.554,8.415 -6.685,8.528 -6.78,8.569 -6.887,8.615 -6.988,8.654 -7.09,8.692 -7.283,8.768 -7.475,8.843 -7.672,8.938 -8.714,9.437 -9.813,9.671 -10.849,9.869 l -1.131,0.212 -0.208,0.809 c -0.135,0.522 -0.109,1.064 -0.087,1.501 0.004,0.115 0.01,0.228 0.012,0.337 0.002,0.122 -0.032,0.225 -0.129,0.492 -0.047,0.132 -0.097,0.268 -0.143,0.416 -0.326,1.065 -0.902,2.026 -1.511,3.044 -0.484,0.809 -0.985,1.645 -1.386,2.58 -0.198,0.459 -0.441,0.715 -1.003,1.051 -0.339,0.204 -0.681,0.444 -1.028,0.69 -0.65,0.46 -1.322,0.936 -1.909,1.03 -1.234,0.199 -2.425,0.642 -3.859,1.433 -0.571,0.314 -1.166,0.596 -1.775,0.834 -0.178,0.022 -0.41,0.012 -0.654,-0.002 l -0.348,-0.015 c -0.461,-0.018 -0.794,-0.03 -1.166,-0.126 -0.434,-0.112 -0.93,-0.419 -1.41,-0.716 l -0.105,-0.065 c -0.588,-0.363 -1.174,-0.445 -1.645,-0.511 -0.056,-0.008 -0.112,-0.015 -0.169,-0.024 -0.123,-0.086 -0.285,-0.174 -0.49,-0.224 -0.038,-0.008 -0.075,-0.015 -0.111,-0.022 -0.097,-0.158 -0.197,-0.308 -0.302,-0.431 -0.125,-0.147 -0.255,-0.281 -0.383,-0.412 -0.299,-0.307 -0.343,-0.371 -0.346,-0.448 l -0.021,-0.441 c -0.025,-0.482 -0.053,-1.029 0.005,-1.391 0.008,-0.05 0.019,-0.102 0.033,-0.155 0.127,0.445 0.28,0.831 0.469,1.197 1.045,2.029 3.421,2.02 4.122,2.02 2.235,0 3.883,-0.826 4.642,-2.324 0.22,-0.435 0.364,-0.786 0.467,-1.136 0.159,-0.543 0.19,-1.058 0.219,-1.512 l 0.012,-0.22 c 0.017,-0.235 0.026,-0.478 0.034,-0.726 0.015,-0.472 0.03,-0.919 0.107,-1.277 0.193,-0.891 0.321,-1.874 -0.045,-3.032 -0.082,-0.261 -0.134,-0.53 -0.186,-0.796 -0.13,-0.648 -0.276,-1.384 -0.726,-2.079 l -0.13,-0.201 C -23.349,8.89 -23.57,8.544 -23.813,8.217 -24.064,7.876 -24.333,7.591 -24.592,7.315 -24.735,7.162 -24.88,7.008 -25.021,6.843 -26.101,5.57 -27.244,4.829 -28.422,4.641 -28.783,4.582 -29.156,4.543 -29.53,4.504 -30.057,4.45 -30.555,4.399 -30.985,4.288 c -0.846,-0.218 -1.777,-0.167 -2.599,-0.12 -0.257,0.013 -0.508,0.027 -0.744,0.031 -0.418,0.007 -0.779,0.077 -1.097,0.138 -0.171,0.033 -0.342,0.068 -0.522,0.086 -0.707,0.064 -1.448,0.226 -2.264,0.497 -2.678,0.889 -4.9,2.163 -6.605,3.786 -0.21,0.198 -0.422,0.397 -0.636,0.595 -1.476,1.375 -3.149,2.931 -3.898,5.101 -0.279,0.811 -0.485,1.711 -0.611,2.678 -0.027,0.212 -0.066,0.422 -0.103,0.629 -0.082,0.446 -0.172,0.952 -0.179,1.497 -0.005,0.329 -10e-4,0.659 0.001,0.988 l 0.004,0.583 c 0,0.598 0.066,1.119 0.13,1.623 0.035,0.271 0.07,0.543 0.091,0.828 0.178,2.301 0.89,4.384 2.31,6.752 0.292,0.489 0.674,0.826 0.978,1.097 0.128,0.113 0.257,0.225 0.372,0.352 0.21,0.237 0.431,0.448 0.655,0.658 0.161,0.154 0.325,0.307 0.482,0.478 1.189,1.317 2.579,1.754 3.9,2.168 0.043,0.021 0.081,0.045 0.121,0.068 0.142,0.084 0.338,0.197 0.587,0.28 0.453,0.15 0.856,0.126 1.151,0.109 0.074,-0.004 0.148,-0.01 0.223,-0.007 0.066,0.005 0.176,0.039 0.303,0.077 0.122,0.037 0.267,0.08 0.43,0.116 -0.047,0.024 -0.095,0.051 -0.148,0.079 -0.44,0.245 -0.711,0.599 -0.892,0.832 -0.044,0.057 -0.084,0.115 -0.133,0.164 -0.28,0.283 -0.559,0.526 -0.832,0.72 -0.519,0.374 -1.07,0.777 -1.582,1.245 -0.421,0.384 -0.757,0.509 -1.572,0.813 -0.344,0.128 -0.691,0.251 -1.039,0.373 -1.191,0.417 -2.42,0.847 -3.571,1.556 -0.854,0.525 -1.863,0.771 -2.933,1.031 -0.249,0.062 -0.5,0.123 -0.749,0.187 -0.232,0.061 -0.467,0.132 -0.704,0.204 -0.342,0.106 -0.666,0.204 -0.948,0.251 -0.843,0.138 -1.846,0.091 -2.815,0.045 l -0.363,-0.017 -0.364,0.017 c -0.97,0.046 -1.973,0.093 -2.815,-0.045 -0.283,-0.047 -0.606,-0.146 -0.95,-0.251 -0.236,-0.072 -0.471,-0.143 -0.701,-0.204 -0.24,-0.063 -0.469,-0.104 -0.693,-0.143 -0.268,-0.047 -0.479,-0.085 -0.655,-0.162 -0.609,-0.272 -1.196,-0.318 -1.667,-0.356 -0.264,-0.02 -0.491,-0.038 -0.686,-0.088 -0.288,-0.074 -0.567,-0.171 -0.846,-0.269 -0.374,-0.127 -0.748,-0.254 -1.137,-0.348 l -0.342,-0.08 c -0.42,-0.097 -0.816,-0.188 -1.102,-0.334 -0.342,-0.177 -0.676,-0.414 -1.029,-0.666 -0.502,-0.359 -1.072,-0.763 -1.77,-1.056 -0.166,-0.069 -0.256,-0.11 -0.326,-0.153 -0.105,-0.158 -0.296,-0.387 -0.619,-0.547 -0.215,-0.106 -0.422,-0.145 -0.595,-0.155 -0.026,-0.028 -0.051,-0.056 -0.078,-0.085 -0.214,-0.225 -0.508,-0.534 -0.933,-0.747 -0.063,-0.033 -0.135,-0.103 -0.217,-0.198 0.082,-0.027 0.162,-0.055 0.242,-0.088 1.232,-0.502 2.182,-1.003 2.99,-1.573 0.207,-0.146 0.429,-0.265 0.65,-0.386 0.336,-0.185 0.718,-0.395 1.089,-0.682 0.456,-0.355 0.752,-0.749 1.014,-1.098 0.158,-0.208 0.293,-0.388 0.439,-0.527 0.042,-0.04 0.093,-0.075 0.141,-0.113 0.162,-0.124 0.383,-0.292 0.578,-0.532 0.2,-0.247 0.307,-0.499 0.386,-0.683 0.018,-0.044 0.037,-0.09 0.016,-0.076 0.074,-0.084 0.155,-0.154 0.233,-0.225 0.205,-0.189 0.461,-0.421 0.688,-0.762 0.409,-0.612 0.831,-1.29 1.139,-2.094 0.041,-0.105 0.099,-0.212 0.153,-0.321 0.058,-0.114 0.115,-0.229 0.168,-0.344 0.12,-0.134 0.279,-0.356 0.364,-0.677 0.074,-0.283 0.061,-0.533 0.044,-0.741 0.069,-0.338 0.168,-0.693 0.273,-1.065 0.133,-0.473 0.27,-0.962 0.358,-1.476 0.127,-0.735 0.084,-1.541 0.045,-2.253 -0.016,-0.304 -0.033,-0.601 -0.033,-0.876 l 0.004,-0.482 c 0.006,-0.347 0.011,-0.693 -0.004,-1.038 -0.021,-0.521 -0.151,-0.93 -0.265,-1.291 -0.039,-0.122 -0.078,-0.247 -0.112,-0.379 -0.057,-0.224 -0.097,-0.461 -0.14,-0.703 -0.13,-0.744 -0.278,-1.588 -0.786,-2.346 -0.295,-0.441 -0.637,-0.877 -0.967,-1.297 l -0.295,-0.379 c -0.117,-0.151 -0.214,-0.309 -0.313,-0.464 -0.26,-0.413 -0.584,-0.926 -1.13,-1.341 -0.43,-0.328 -0.84,-0.731 -1.272,-1.156 -0.484,-0.476 -0.983,-0.967 -1.567,-1.411 -0.475,-0.36 -0.98,-0.613 -1.425,-0.836 -0.14,-0.07 -0.28,-0.14 -0.418,-0.213 -0.16,-0.084 -0.29,-0.169 -0.415,-0.249 -0.326,-0.21 -0.731,-0.47 -1.347,-0.633 -0.13,-0.033 -0.238,-0.082 -0.344,-0.128 -0.311,-0.133 -0.738,-0.314 -1.342,-0.329 -0.256,-0.007 -0.515,-0.004 -0.773,0 l -0.403,0.005 c -0.276,0 -0.554,-0.005 -0.832,-0.009 -0.578,-0.009 -1.158,-0.018 -1.734,0.008 -0.929,0.04 -1.972,0.305 -3.186,0.816 -0.113,0.049 -0.276,0.079 -0.463,0.115 -0.258,0.051 -0.58,0.114 -0.927,0.248 -0.456,0.18 -0.93,0.372 -1.377,0.575 l -0.368,0.168 c -0.736,0.335 -1.497,0.681 -2.23,1.082 -0.696,0.382 -1.327,1.021 -1.833,1.534 l -0.1,0.1 c -0.115,0.117 -0.207,0.223 -0.294,0.324 -0.121,0.141 -0.139,0.16 -0.199,0.197 l -0.08,0.049 c -0.267,0.162 -0.67,0.405 -0.963,0.942 -0.154,0.282 -0.208,0.55 -0.243,0.726 l -0.014,0.074 c -0.066,0.185 -0.223,0.412 -0.39,0.654 -0.141,0.205 -0.282,0.41 -0.404,0.624 -0.391,0.686 -0.513,1.353 -0.374,2.039 0.17,0.837 0.628,1.304 0.931,1.612 0.047,0.048 0.096,0.096 0.144,0.149 0.058,0.165 0.154,0.424 0.372,0.679 0.306,0.358 0.654,0.498 0.818,0.555 0.11,0.072 0.217,0.158 0.326,0.243 0.217,0.172 0.439,0.341 0.67,0.477 1.161,0.684 2.537,0.595 3.769,-0.239 0.036,-0.023 0.075,-0.042 0.115,-0.063 0.284,-0.15 0.813,-0.429 1.091,-1.037 0.014,-0.033 0.028,-0.065 0.041,-0.098 0.073,0.104 0.149,0.189 0.219,0.258 0.008,0.041 0.017,0.082 0.025,0.121 0.022,0.106 0.042,0.203 0.06,0.273 0.009,0.044 0.007,0.178 0.005,0.275 -0.005,0.266 -0.01,0.629 0.103,1.029 0.032,0.113 0.07,0.21 0.125,0.342 l 0.003,0.062 c 0.007,0.148 0.021,0.307 0.005,0.447 -0.047,0.407 -0.289,0.813 -0.615,1.034 -0.078,0.052 -0.243,0.114 -0.402,0.173 -0.238,0.088 -0.534,0.198 -0.828,0.377 -0.208,0.126 -0.426,0.216 -0.751,0.307 -0.599,0.165 -1.351,0.104 -2.147,0.038 -0.809,-0.068 -1.645,-0.138 -2.509,0.002 -1.028,0.164 -2.249,-0.182 -3.353,-0.949 -0.191,-0.133 -0.395,-0.261 -0.602,-0.391 -0.324,-0.203 -0.629,-0.396 -0.843,-0.587 -0.282,-0.256 -0.576,-0.458 -0.834,-0.636 -0.222,-0.152 -0.431,-0.296 -0.584,-0.44 -0.158,-0.15 -0.302,-0.322 -0.449,-0.492 -0.248,-0.288 -0.529,-0.616 -0.876,-0.903 -0.272,-0.223 -0.554,-0.348 -0.76,-0.439 -0.06,-0.027 -0.126,-0.053 -0.123,-0.036 -0.061,-0.065 -0.152,-0.203 -0.24,-0.338 -0.137,-0.21 -0.279,-0.42 -0.439,-0.606 -0.17,-0.195 -0.295,-0.472 -0.393,-0.869 -0.077,-0.309 -0.075,-0.731 -0.073,-1.18 l 0.001,-0.25 c 0,-0.221 -0.016,-0.472 -0.034,-0.733 -0.024,-0.319 -0.056,-0.757 -0.012,-0.94 0.066,-0.28 0.223,-0.598 0.477,-0.974 0.114,-0.167 0.222,-0.35 0.33,-0.537 0.123,-0.21 0.25,-0.429 0.355,-0.548 l 2.257,-2.545 -3.382,0.376 c -0.392,0.043 -1.586,0.176 -2.103,0.054 -0.089,-0.021 -0.175,-0.062 -0.264,-0.099 -0.19,-0.077 -0.426,-0.175 -0.711,-0.24 -0.283,-0.065 -0.551,-0.082 -0.767,-0.095 -0.114,-0.006 -0.285,-0.015 -0.341,-0.033 -0.831,-0.259 -1.696,-0.648 -2.459,-0.992 -0.44,-0.197 -0.833,-0.239 -1.119,-0.27 -0.093,-0.01 -0.187,-0.015 -0.255,-0.032 -0.094,-0.034 -0.203,-0.097 -0.307,-0.151 -0.156,-0.084 -0.308,-0.162 -0.431,-0.214 -0.236,-0.099 -0.547,-0.355 -0.848,-0.603 l -0.311,-0.254 c -0.34,-0.268 -0.692,-0.397 -0.949,-0.491 -0.078,-0.028 -0.158,-0.051 -0.227,-0.091 -0.128,-0.077 -0.222,-0.166 -0.423,-0.364 -0.012,-0.011 -0.024,-0.023 -0.038,-0.035 -0.025,-0.103 -0.063,-0.226 -0.126,-0.358 -0.143,-0.303 -0.329,-0.555 -0.479,-0.759 -0.068,-0.091 -0.136,-0.182 -0.192,-0.274 -0.159,-0.265 -0.128,-0.938 -0.104,-1.43 l 0.016,-0.38 c 0.016,-0.512 0.105,-1.007 0.232,-1.651 0.083,-0.426 0.092,-0.848 0.101,-1.22 0.007,-0.323 0.015,-0.657 0.064,-0.829 0.021,-0.047 0.114,-0.165 0.175,-0.245 0.126,-0.164 0.247,-0.328 0.347,-0.496 0.074,-0.128 0.142,-0.258 0.208,-0.389 0.084,-0.164 0.164,-0.32 0.226,-0.38 l 0.659,-0.66 c 0.043,-0.043 0.079,-0.072 0.113,-0.101 0.128,-0.107 0.302,-0.253 0.504,-0.521 l 0.092,-0.125 c 0.066,-0.092 0.077,-0.104 0.09,-0.116 0.041,-0.033 0.191,-0.097 0.3,-0.144 0.239,-0.104 0.535,-0.232 0.828,-0.451 0.1,-0.075 0.189,-0.15 0.276,-0.221 0.065,-0.054 0.125,-0.108 0.201,-0.156 0.048,-0.031 0.231,-0.034 0.407,-0.031 -0.807,1.007 -0.738,2.391 -0.69,3.346 0.011,0.209 0.022,0.408 0.02,0.586 -0.009,1.388 0.688,2.231 1.249,2.908 0.096,0.116 0.194,0.235 0.26,0.31 0.192,0.45 0.476,0.734 0.977,0.977 0.15,0.073 0.306,0.136 0.464,0.197 0.074,0.029 0.148,0.058 0.22,0.09 0.639,0.283 1.207,0.422 1.756,0.557 1.236,0.305 3.21,0.466 4.701,-0.084 0.224,-0.083 0.437,-0.186 0.65,-0.292 0.146,-0.071 0.29,-0.148 0.448,-0.2 0.108,-0.035 0.216,-0.056 0.322,-0.079 0.313,-0.067 0.702,-0.15 1.117,-0.386 0.202,-0.114 0.377,-0.247 0.55,-0.384 0.084,-0.067 0.18,-0.142 0.224,-0.162 0.141,-0.059 0.288,-0.095 0.434,-0.134 0.308,-0.085 0.691,-0.19 1.079,-0.405 0.27,-0.15 0.482,-0.318 0.651,-0.453 0.127,-0.1 0.236,-0.187 0.311,-0.221 0.122,-0.053 0.237,-0.094 0.346,-0.135 0.329,-0.122 0.738,-0.275 1.184,-0.609 0.435,-0.327 0.934,-0.431 1.623,-0.577 l 0.271,-0.058 c 0.532,-0.116 1.053,-0.207 1.583,-0.298 l 0.495,-0.087 0.128,-0.029 0.137,0.007 c 0.264,-0.004 0.51,-0.06 0.726,-0.173 0.087,0.024 0.186,0.056 0.291,0.088 0.33,0.104 0.742,0.233 1.233,0.246 0.32,0.007 0.579,-0.052 0.768,-0.096 l 0.131,-0.03 c 0.185,-0.033 0.411,-0.028 0.673,-0.022 0.292,0.006 0.585,0.009 0.88,-0.021 0.269,-0.026 0.521,-0.076 0.77,-0.129 0.238,-0.05 0.424,-0.09 0.606,-0.092 0.776,-0.011 1.557,-0.011 2.333,0 0.463,0.006 0.933,0.053 1.432,0.104 0.601,0.061 1.229,0.118 1.886,0.119 0.778,0 1.646,0.193 2.545,0.416 0.149,0.038 0.287,0.096 0.425,0.151 0.238,0.096 0.509,0.203 0.833,0.276 0.462,0.105 0.936,0.256 1.411,0.452 0.35,0.144 0.712,0.293 1.169,0.409 0.101,0.025 0.195,0.08 0.291,0.125 0.263,0.126 0.622,0.295 1.064,0.358 0.264,0.037 0.496,0.017 0.65,0.004 0.026,0.021 0.051,0.043 0.077,0.063 0.121,0.097 0.243,0.19 0.365,0.268 0.425,0.271 0.811,0.35 1.067,0.403 0.02,0.003 0.039,0.007 0.058,0.012 0.065,0.065 0.136,0.134 0.22,0.203 0.478,0.393 0.937,0.455 1.235,0.489 0.061,0.028 0.218,0.139 0.321,0.212 0.192,0.135 0.384,0.267 0.569,0.364 0.82,0.436 1.419,1.002 2.114,1.657 0.293,0.276 0.591,0.557 0.916,0.839 0.339,0.296 0.778,0.825 1.147,1.382 0.041,0.062 0.076,0.13 0.112,0.196 0.196,0.357 0.524,0.958 1.257,1.159 0.323,0.09 0.832,0.123 1.42,-0.226 0.272,-0.159 0.583,-0.394 0.951,-0.716 0.097,-0.085 0.16,-0.146 0.222,-0.182 0.081,-0.036 0.172,-0.052 0.312,-0.087 0.289,-0.071 0.583,-0.134 0.877,-0.194 0.469,-0.098 0.938,-0.198 1.393,-0.328 0.308,-0.088 0.905,-0.28 1.439,-0.566 0.466,-0.25 0.77,-0.58 0.995,-0.821 0.087,-0.093 0.171,-0.192 0.278,-0.275 0.452,-0.35 1.004,-0.632 1.63,-0.941 0.522,-0.256 0.912,-0.609 1.225,-0.892 0.229,-0.207 0.426,-0.385 0.603,-0.468 0.1,-0.047 0.196,-0.081 0.289,-0.117 0.219,-0.083 0.431,-0.166 0.652,-0.285 0.476,-0.259 0.847,-0.449 1.25,-0.541 0.485,-0.11 0.973,-0.142 1.492,-0.177 1.077,-0.073 2.073,-0.449 2.953,-0.781 0.356,-0.135 0.708,-0.269 1.06,-0.379 0.43,-0.132 0.877,-0.228 1.349,-0.329 0.494,-0.107 1.006,-0.217 1.533,-0.378 0.279,-0.085 0.544,-0.088 0.946,-0.091 l 0.296,-0.003 c 0.397,-0.008 0.747,-0.085 1.029,-0.147 0.2,-0.044 0.373,-0.081 0.514,-0.087 0.144,-0.005 0.298,0.006 0.451,0.016 0.415,0.023 0.931,0.055 1.469,-0.088 0.304,-0.08 0.533,-0.215 0.701,-0.313 0.036,-0.022 0.066,-0.045 0.045,-0.041 0.194,-0.049 0.432,-0.078 0.663,-0.108 0.197,-0.027 0.391,-0.053 0.562,-0.084 0.962,-0.172 1.808,-0.255 2.61,-0.246 0.592,-10e-4 1.113,-0.058 1.623,-0.118 0.436,-0.051 0.847,-0.099 1.258,-0.1 h 2.021 c 0.143,-0.004 0.269,-0.007 0.408,-0.013 0.143,-0.006 0.288,-0.019 0.42,-0.004 0.094,0.01 0.175,0.041 0.256,0.065 0.234,0.069 0.556,0.167 0.97,0.173 0.194,0.003 0.374,0.06 0.676,0.163 0.265,0.091 0.598,0.204 0.996,0.268 0.322,0.049 0.586,0.1 0.908,0.17 0.213,0.047 0.304,0.086 0.545,0.194 l 0.198,0.086 c 0.375,0.162 0.713,0.174 0.916,0.179 l 0.023,0.002 c 0.055,0.04 0.11,0.089 0.165,0.134 0.16,0.131 0.318,0.256 0.465,0.347 0.137,0.087 0.277,0.168 0.417,0.247 0.131,0.075 0.262,0.15 0.39,0.233 0.263,0.17 0.503,0.276 0.694,0.36 0.088,0.039 0.178,0.076 0.268,0.125 0.082,0.044 0.229,0.173 0.359,0.286 0.319,0.276 0.714,0.621 1.263,0.801 0.136,0.044 0.258,0.073 0.374,0.1 0.035,0.008 0.071,0.016 0.074,0.013 0.055,0.028 0.095,0.055 0.13,0.077 0.371,0.233 0.707,0.356 1.326,0.359 0.121,-0.007 0.251,0.007 0.386,0.013 0.595,0.032 1.334,0.07 2.002,-0.315 0.629,-0.365 0.982,-0.917 1.24,-1.322 0.042,-0.064 0.083,-0.13 0.126,-0.191 0.154,-0.113 0.433,-0.322 0.619,-0.677 0.188,-0.356 0.225,-0.731 0.253,-1.004 0.005,-0.05 0.009,-0.098 0.008,-0.106 0.175,-0.68 0.285,-1.724 0.14,-2.525 -0.347,-1.898 -2.529,-2.671 -3.881,-2.603 -0.44,0.023 -0.71,0.113 -0.965,0.225 -0.209,0 -0.491,0.043 -0.783,0.216 -0.119,0.071 -0.216,0.15 -0.295,0.228 0.03,-0.064 0.056,-0.124 0.08,-0.182 0.01,-0.024 0.02,-0.049 0.032,-0.074 0.018,-0.009 0.042,-0.022 0.076,-0.038 0.312,-0.139 0.528,-0.288 0.701,-0.407 0.141,-0.015 0.275,-0.038 0.41,-0.087 0.266,-0.093 0.466,-0.239 0.642,-0.367 0.5,-0.272 0.751,-0.355 0.857,-0.38 0.871,-0.21 1.88,-0.218 2.771,-0.225 0.672,-0.011 1.226,0.199 1.982,0.483 l 0.218,0.081 c 0.428,0.159 0.798,0.567 1.226,1.04 0.119,0.13 0.239,0.26 0.36,0.388 0.815,0.858 1.156,2.23 1.484,3.556 l 0.137,0.552 C 0.072,-1.139 0.034,-0.533 0,0 m -93.067,-20.371 c 0.045,-0.238 0.216,-0.543 0.381,-0.838 0.16,-0.284 0.325,-0.575 0.433,-0.89 0.388,-1.125 0.909,-2.243 1.414,-3.326 0.382,-0.82 0.778,-1.667 1.12,-2.527 l 0.08,-0.2 c 0.372,-0.936 0.724,-1.82 1.196,-2.691 0.575,-1.062 0.99,-2.003 1.303,-2.96 l 0.163,-0.5 c 0.291,-0.901 0.592,-1.83 0.994,-2.667 0.098,-0.204 0.198,-0.403 0.297,-0.6 0.306,-0.604 0.622,-1.23 0.833,-1.955 0.238,-0.816 0.371,-1.64 0.499,-2.435 0.086,-0.536 0.173,-1.072 0.291,-1.603 0.101,-0.448 0.207,-0.894 0.311,-1.341 0.236,-0.998 0.48,-2.031 0.663,-3.064 0.077,-0.433 0.207,-0.855 0.345,-1.301 0.016,0.031 0.032,0.063 0.048,0.093 l 0.138,0.269 c 1.388,2.719 2.444,5.573 3.38,8.25 0.272,0.78 0.536,1.561 0.801,2.343 0.377,1.116 0.755,2.234 1.155,3.344 0.158,0.44 0.333,0.873 0.509,1.306 0.354,0.875 0.69,1.702 0.879,2.573 0.316,1.454 0.964,2.797 1.59,4.095 0.514,1.064 0.998,2.067 1.312,3.121 0.151,0.508 0.378,0.952 0.598,1.383 0.128,0.252 0.259,0.505 0.37,0.771 0.04,0.095 0.101,0.213 0.168,0.339 0.017,0.033 0.039,0.072 0.061,0.116 -0.119,0.025 -0.249,0.045 -0.381,0.063 l -0.928,0.105 c -1.187,0.133 -2.419,0.119 -3.609,0.107 -0.865,-0.01 -1.757,-0.021 -2.646,0.025 -0.686,0.034 -1.34,0.164 -1.972,0.29 -0.302,0.059 -0.604,0.119 -0.909,0.167 -0.657,0.107 -1.242,0.054 -1.921,-0.007 l -0.51,-0.044 c -2.21,-0.166 -4.577,-0.116 -6.497,0.139 -1.12,0.15 -1.715,0.129 -1.961,0.091 0,-0.016 0,-0.031 0.002,-0.041 m 7.349,4.26 c -0.004,0.28 -0.094,0.641 0.033,0.903 0.128,0.264 0.454,0.456 0.65,0.676 0.245,0.278 0.323,0.578 0.715,0.726 0.326,0.122 0.968,0.023 1.309,0.023 0.587,0.002 1.303,0.138 1.866,-0.071 0.468,-0.175 0.89,-0.517 1.358,-0.72 1.006,-0.438 0.898,-1.01 0.894,-1.891 -0.003,-0.707 0.195,-1.691 0.009,-2.389 -0.082,-0.31 -0.252,-0.507 -0.244,-0.808 0.001,-0.073 0.004,-0.146 0.032,-0.236 0.527,-0.128 1.205,-0.031 1.749,-0.031 h 2.57 c 0.519,0 1.164,0.06 1.755,0.002 0.1,-0.01 0.197,-0.024 0.292,-0.042 0.039,-0.007 0.083,-0.008 0.121,-0.017 0.046,0.233 0.088,0.466 0.1,0.702 0.01,0.212 0.021,0.429 0.029,0.649 0.022,0.66 0.023,1.343 -0.052,1.978 -0.1,0.849 -0.404,1.618 -0.437,2.481 -0.035,0.871 -0.286,1.832 -0.568,2.667 -0.283,0.833 -0.614,1.697 -1.299,2.344 -0.673,0.635 -1.303,1.31 -1.991,1.932 -0.72,0.652 -1.259,1.002 -2.277,0.996 -1.029,-0.003 -2.059,-0.017 -3.088,-0.005 -1.048,0.011 -1.507,-0.084 -2.384,-0.593 -0.844,-0.49 -1.957,-0.678 -2.742,-1.215 -0.761,-0.518 -1.323,-1.355 -2.024,-1.947 -0.662,-0.56 -1.038,-1.001 -1.388,-1.756 -0.307,-0.664 -0.728,-1.226 -0.916,-1.928 -0.188,-0.704 -0.22,-1.346 -0.216,-2.068 0.004,-0.832 -0.002,-1.663 -0.001,-2.495 0,-0.232 -0.041,-0.521 -0.018,-0.779 0.009,-0.103 0.027,-0.203 0.065,-0.291 0.23,0.103 0.5,0.166 0.791,0.202 0.876,0.109 1.949,-0.023 2.757,-0.023 0.964,0 1.958,0.058 2.918,-0.015 -0.713,0.615 -0.357,2.22 -0.368,3.039 m 15.794,7.006 c 0.293,-0.306 0.544,-0.728 0.867,-1.053 0.617,-0.616 1.313,-0.964 2.02,-1.47 0.66,-0.473 1.259,-0.773 1.968,-1.137 0.342,-0.175 0.527,-0.435 0.911,-0.514 0.405,-0.084 0.679,0.008 1.091,-0.142 1.259,-0.456 2.434,-0.48 3.779,-0.496 0.666,-0.008 1.229,0.224 1.901,0.217 0.783,-0.008 1.565,0.009 2.348,10e-4 0.824,-0.007 1.597,0.247 2.394,0.436 0.957,0.228 1.822,0.361 2.679,0.874 0.85,0.507 1.732,0.906 2.522,1.526 0.34,0.267 0.801,0.593 1.087,0.911 0.192,0.247 0.351,0.513 0.477,0.799 0.166,0.209 0.371,0.368 0.613,0.478 0.648,0.542 1.379,0.94 2.023,1.475 0.284,0.234 0.962,0.527 1.005,0.884 -0.434,0.144 -0.98,0.005 -1.442,0.087 -0.634,0.113 -1.35,0.273 -1.973,0.436 -1.069,0.278 -2.341,0.845 -3.165,1.582 -0.569,0.509 -1.192,0.775 -1.819,1.208 -0.421,0.289 -0.589,0.666 -0.906,1.042 -0.267,0.317 -0.535,0.489 -0.873,0.745 -1.039,0.789 -1.38,1.797 -2.191,2.755 -0.206,0.243 -0.93,1.379 -1.304,1.349 0.784,-2.293 -0.28,0.884 -0.51,1.109 -0.072,0.069 -0.181,0.176 -0.282,0.193 -0.441,0.076 -0.266,-0.364 -0.295,-0.652 -0.03,-0.305 -0.138,-0.586 -0.272,-0.868 -0.171,-0.359 -0.274,-0.515 -0.382,-0.868 -0.107,-0.346 -0.15,-0.644 -0.217,-0.988 -0.081,-0.43 -0.327,-0.619 -0.562,-0.984 -0.064,-0.1 -0.063,-0.295 -0.138,-0.381 -0.139,-0.158 -0.368,-0.22 -0.514,-0.392 -0.176,-0.208 -0.197,-0.536 -0.374,-0.726 -0.063,-0.066 -0.27,0.006 -0.33,-0.058 -0.378,-0.406 -0.531,-0.904 -0.976,-1.281 -0.437,-0.373 -0.98,-0.561 -1.414,-0.912 -1.055,-0.851 -2.36,-1.448 -3.667,-1.922 -0.937,-0.34 -1.667,-0.664 -2.691,-0.665 -0.66,0 -1.342,-0.046 -2,-0.001 -0.505,0.034 -1.222,0.14 -1.702,0.279 -0.274,0.078 -0.559,0.368 -0.895,0.366 -0.054,-0.39 0.556,-1.125 0.802,-1.347 0.453,-0.408 0.88,-0.867 1.347,-1.256 0.331,-0.275 0.774,-0.341 1.06,-0.639 m 3.177,-31.706 c 0.076,-0.247 0.151,-0.487 0.229,-0.714 0.119,-0.344 0.271,-0.672 0.423,-1.002 0.178,-0.387 0.363,-0.786 0.503,-1.219 0.118,-0.361 0.215,-0.718 0.311,-1.072 0.156,-0.574 0.302,-1.115 0.534,-1.651 0.269,-0.618 0.541,-1.237 0.814,-1.855 0.938,-2.13 1.909,-4.332 2.719,-6.562 0.284,-0.781 0.448,-1.578 0.607,-2.35 0.094,-0.458 0.188,-0.916 0.308,-1.368 0.131,-0.494 0.277,-0.977 0.422,-1.458 0.307,-1.016 0.624,-2.068 0.785,-3.181 0.078,-0.547 0.175,-1.087 0.272,-1.625 0.123,-0.685 0.25,-1.394 0.338,-2.111 0.082,-0.673 0.28,-1.326 0.488,-2.015 0.115,-0.379 0.23,-0.759 0.326,-1.144 0.196,1.587 0.421,3.169 0.642,4.673 0.204,1.396 0.626,2.731 1.033,4.023 0.248,0.784 0.504,1.596 0.704,2.399 0.206,0.832 0.435,1.64 0.721,2.544 0.088,0.277 0.13,0.57 0.172,0.879 0.045,0.308 0.09,0.626 0.184,0.961 0.216,0.771 0.503,1.53 0.781,2.263 0.223,0.587 0.452,1.192 0.636,1.785 0.389,1.248 0.955,2.458 1.503,3.629 l 0.25,0.535 c 0.281,0.606 0.548,1.218 0.813,1.831 0.577,1.328 1.17,2.695 1.922,3.985 l -0.201,0.047 c -0.748,0.176 -1.454,0.344 -2.192,0.436 -0.562,0.069 -1.111,0.191 -1.64,0.309 -0.631,0.138 -1.224,0.27 -1.826,0.318 -0.47,0.039 -0.939,0.033 -1.438,0.027 L -56.5,-39.5 c -1.482,-0.007 -2.883,-0.019 -4.372,0.333 -0.616,0.146 -1.276,0.248 -1.913,0.348 -0.358,0.055 -0.714,0.111 -1.067,0.174 -0.401,0.071 -0.767,0.004 -1.229,-0.081 l -0.111,-0.02 c -0.285,-0.052 -0.565,-0.066 -0.838,-0.066 -0.152,0 -0.303,0.004 -0.451,0.009 -0.138,0.004 -0.273,0.008 -0.407,0.008 h -0.008 c -0.085,0 -0.211,0.008 -0.359,0.019 -0.071,0.005 -0.175,0.013 -0.287,0.019 0.356,-0.635 0.588,-1.384 0.795,-2.054 m 18.801,2.313 c 0.144,0.451 0.146,1.03 0.256,1.505 0.153,0.673 0.02,1.347 0.115,2.035 0.121,0.87 0.529,1.699 0.197,2.571 -0.285,0.745 -0.428,1.532 -0.745,2.269 -0.322,0.753 -0.796,1.443 -1.191,2.16 -0.262,0.473 -0.395,0.603 -0.822,0.892 -0.425,0.288 -0.697,0.639 -1.021,1.026 -0.431,0.514 -1.084,1.057 -1.701,1.32 -1.346,0.572 -3.275,0.651 -4.689,0.262 -0.989,-0.273 -2.078,-0.591 -3.019,-0.992 -0.793,-0.338 -1.597,-0.866 -2.329,-1.33 -0.978,-0.62 -1.823,-1.604 -2.562,-2.481 -0.76,-0.901 -1.183,-1.77 -1.44,-2.931 -0.236,-1.057 -0.124,-2.092 -0.153,-3.166 -0.013,-0.477 0.04,-0.99 -0.467,-1.208 0.245,-0.315 0.82,-0.172 1.162,-0.172 h 1.562 c 0.471,0 0.941,0.002 1.413,-0.003 0.532,-0.008 1.012,0.162 1.536,0.182 0.732,0.029 1.458,-0.245 1.446,0.698 -0.009,0.677 -0.04,1.351 0.137,1.976 0.1,0.346 0.118,0.667 0.309,1.002 0.181,0.321 0.813,0.856 1.158,1.064 0.517,0.313 1.258,0.157 1.835,0.165 0.719,0.009 1.413,-0.137 2.017,-0.567 0.965,-0.691 1.32,-2.034 1.513,-3.146 0.176,-1.003 -0.092,-1.893 -0.467,-2.737 0.203,-0.065 0.385,0 0.587,-0.042 0.195,-0.04 0.373,-0.161 0.56,-0.271 0.109,-0.065 0.223,-0.125 0.346,-0.158 0.251,-0.069 0.507,-0.084 0.764,-0.075 0.696,0.022 1.407,0.222 2.123,0.065 0.441,-0.096 0.837,-0.27 1.241,-0.447 0.148,0.195 0.289,0.41 0.329,0.534 m 7.718,19.975 c 0.807,-0.081 1.63,-0.129 2.426,-0.272 0.026,-0.005 0.051,-0.01 0.076,-0.015 0.43,-0.08 0.831,-0.167 1.225,-0.098 0.184,0.032 0.365,0.094 0.548,0.212 -0.798,1.263 -0.538,2.638 0.48,3.771 0.32,0.354 0.658,0.716 1.043,1.02 0.498,0.392 0.849,0.391 1.476,0.389 0.486,-0.002 0.973,-0.006 1.459,-0.002 0.779,0.009 0.841,-0.005 1.39,-0.405 0.617,-0.45 0.818,-0.879 0.946,-1.596 0.088,-0.499 0.143,-1.71 -0.177,-2.188 -0.212,-0.317 -1.17,-0.853 -0.316,-1.054 0.329,-0.078 0.815,0.037 1.149,0.021 0.324,-0.014 0.63,-0.082 0.941,-0.138 0.2,-0.038 0.402,-0.07 0.612,-0.078 0.398,-0.012 0.815,0.054 1.213,0.019 0.499,-0.044 0.919,-0.162 1.401,-0.2 0.103,-0.008 0.202,-0.017 0.312,-0.017 0.588,0.007 1.063,-0.085 1.295,0.295 0.038,0.064 0.071,0.137 0.095,0.228 0.039,0.147 0.047,0.3 0.045,0.454 -0.006,0.4 -0.093,0.819 -0.002,1.211 0.1,0.431 0.167,0.779 0.176,1.219 0.02,1.164 0.491,2.266 0.112,3.434 -0.451,1.393 -1.351,2.019 -2.555,2.934 -0.587,0.446 -1.091,0.95 -1.731,1.346 -0.714,0.442 -1.541,0.654 -2.343,0.946 -0.72,0.264 -1.573,0.608 -2.334,0.775 -0.686,0.152 -1.535,0.03 -2.229,0.03 -1.581,0.001 -2.738,-0.083 -4.128,-0.799 -1.073,-0.555 -2.569,-1.406 -3.073,-2.442 -0.213,-0.435 -0.407,-0.707 -0.699,-1.091 -0.296,-0.391 -0.369,-1.057 -0.55,-1.511 -0.626,-1.572 -0.239,-3.448 -0.289,-5.11 -0.017,0.05 -0.018,0.089 -0.017,0.12 -0.021,-0.099 -0.112,-0.365 -0.374,-0.886 0.764,-0.074 2.129,-0.495 2.397,-0.522 M -40.283,-21 c 0.022,-0.111 0.044,-0.222 0.074,-0.332 0.115,-0.416 0.251,-0.825 0.386,-1.232 0.196,-0.592 0.397,-1.202 0.542,-1.838 0.179,-0.783 0.446,-1.534 0.728,-2.329 0.133,-0.375 0.268,-0.75 0.391,-1.13 0.596,-1.824 1.203,-3.758 1.5,-5.61 0.101,-0.638 0.298,-1.249 0.505,-1.894 0.207,-0.642 0.42,-1.306 0.541,-2.017 0.091,-0.53 0.229,-1.041 0.375,-1.584 0.223,-0.834 0.456,-1.695 0.502,-2.614 0.053,-1.045 0.357,-2.129 0.65,-3.179 0.07,-0.255 0.143,-0.509 0.21,-0.762 0.074,-0.274 0.13,-0.545 0.185,-0.813 0.142,-0.693 0.265,-1.292 0.691,-1.827 0.026,-0.031 0.051,-0.062 0.073,-0.091 0.042,0.132 0.082,0.267 0.122,0.406 0.097,0.323 0.192,0.644 0.313,0.954 0.186,0.487 0.407,0.959 0.629,1.43 0.286,0.611 0.557,1.187 0.754,1.791 l 0.041,0.13 c 0.496,1.536 1.01,3.124 1.59,4.67 0.124,0.329 0.251,0.657 0.377,0.984 0.543,1.4 1.056,2.724 1.292,4.125 0.034,0.2 0.06,0.406 0.085,0.614 0.07,0.538 0.14,1.095 0.334,1.638 0.088,0.246 0.185,0.48 0.283,0.713 0.168,0.404 0.327,0.786 0.414,1.193 0.514,2.38 0.955,4.308 1.386,6.066 0.174,0.71 0.501,1.299 0.819,1.868 0.207,0.375 0.403,0.728 0.552,1.104 l 0.06,0.157 c 0.083,0.222 0.186,0.487 0.312,0.758 -0.114,-0.023 -0.228,-0.047 -0.344,-0.073 -1.748,-0.386 -3.41,-0.477 -4.804,-0.513 -0.572,-0.016 -1.137,-0.058 -1.7,-0.099 -0.718,-0.053 -1.459,-0.108 -2.215,-0.108 h -0.063 c -0.312,-0.005 -0.644,-0.016 -0.988,-0.034 -0.924,-0.046 -1.975,-0.101 -2.857,0.185 -0.127,0.042 -0.234,0.085 -0.334,0.125 -0.194,0.079 -0.266,0.106 -0.45,0.097 -0.176,-0.011 -0.349,-0.045 -0.523,-0.077 -0.242,-0.045 -0.516,-0.096 -0.813,-0.103 -0.429,-0.011 -0.863,-0.005 -1.293,0.001 -0.182,0.002 -0.362,0.005 -0.544,0.006 0.113,-0.263 0.166,-0.522 0.212,-0.756 m 52.992,17.356 c -0.23,-1.102 -0.733,-2.066 -0.52,-3.335 0.208,-1.238 -0.587,-2.442 -1.335,-3.529 v 0.735 c -0.084,0.005 -0.169,0.011 -0.255,0.018 -0.037,-0.593 -0.187,-1.205 -0.09,-1.774 0.319,-1.872 0.754,-3.725 1.085,-5.595 0.093,-0.525 0.07,-1.107 -0.055,-1.626 -0.414,-1.722 -0.882,-3.432 -1.362,-5.137 -0.399,-1.413 -0.799,-2.828 -1.285,-4.213 -0.29,-0.828 -0.724,-1.609 -1.138,-2.388 -0.168,-0.318 -0.462,-0.567 -0.68,-0.86 -0.095,-0.127 -0.157,-0.282 -0.211,-0.433 -0.314,-0.877 0.397,-1.787 -0.099,-2.673 -0.167,-0.297 -0.257,-0.657 -0.302,-1 -0.129,-0.979 -0.211,-1.964 -0.324,-2.945 -0.02,-0.166 -0.066,-0.35 -0.16,-0.482 -0.539,-0.752 -1.106,-1.483 -1.634,-2.241 -0.092,-0.132 -0.043,-0.363 -0.066,-0.62 -1.222,-1.099 -1.777,-2.827 -3.065,-4.071 -1.158,-1.118 -1.893,-2.676 -2.818,-4.037 -0.611,-0.895 -1.247,-1.773 -1.839,-2.679 -0.518,-0.789 -1.362,-1.319 -1.444,-2.467 -0.045,-0.621 -0.714,-1.276 -1.239,-1.767 -1.053,-0.983 -2.201,-1.864 -3.312,-2.79 -0.02,0.167 -0.042,0.358 -0.066,0.549 -0.068,0.028 -0.137,0.057 -0.205,0.086 -0.439,-0.65 -0.873,-1.304 -1.319,-1.948 -0.29,-0.419 -0.601,-0.825 -0.901,-1.238 -0.222,-0.305 -0.451,-0.605 -0.663,-0.918 -0.355,-0.526 -0.694,-1.065 -1.053,-1.589 -0.123,-0.179 -0.296,-0.322 -0.427,-0.495 -0.531,-0.701 -1.03,-1.429 -1.6,-2.096 -0.145,-0.17 -0.507,-0.18 -0.775,-0.215 -0.389,-0.052 -0.804,0.01 -1.173,-0.098 -1.556,-0.452 -3.114,-0.903 -4.637,-1.453 -0.616,-0.222 -1.222,-0.613 -1.695,-1.07 -1.451,-1.4 -3.261,-2.344 -4.621,-3.886 -0.719,-0.814 -1.881,-1.262 -2.887,-1.789 -1.12,-0.587 -2.285,-1.087 -3.44,-1.604 -0.629,-0.282 -1.259,-0.653 -1.922,-0.749 -1.3,-0.189 -2.626,-0.189 -3.937,-0.313 -1.512,-0.144 -3.081,-0.025 -4.48,-0.794 -1.502,-0.826 -3.141,-0.673 -4.756,-0.696 -0.114,-0.002 -0.263,0.019 -0.338,0.091 -0.723,0.676 -1.549,0.387 -2.345,0.239 -0.121,-0.023 -0.19,-0.322 -0.322,-0.565 -0.368,-0.05 -0.841,-0.162 -1.315,-0.169 -1.007,-0.016 -2.016,0.024 -3.023,0.039 -1.049,0.015 -2.103,0.101 -3.143,0.019 -0.979,-0.078 -1.944,-0.335 -2.914,-0.516 -0.018,-0.003 -0.027,-0.057 -0.043,-0.059 -0.395,-0.038 -0.833,-0.198 -1.177,-0.082 -0.907,0.309 -1.816,0.667 -2.64,1.149 -0.429,0.25 -1.125,0.384 -1.109,1.145 0.003,0.106 -0.178,0.248 -0.304,0.319 -0.501,0.28 -1.016,0.54 -1.524,0.807 0.004,-0.08 0.009,-0.16 0.013,-0.239 -0.147,-0.033 -0.305,-0.116 -0.44,-0.088 -0.739,0.153 -1.467,0.362 -2.21,0.49 -0.295,0.052 -0.63,-0.123 -0.927,-0.073 -1.156,0.194 -2.303,0.438 -3.453,0.661 -1.413,0.274 -2.826,0.542 -4.238,0.818 -0.197,0.039 -0.398,0.181 -0.579,0.154 -1.298,-0.186 -2.403,0.52 -3.604,0.769 -0.213,0.044 -0.378,0.319 -0.565,0.488 0.037,0.033 0.075,0.067 0.113,0.1 l 1.097,-0.355 c 0.027,0.071 0.052,0.142 0.079,0.212 -0.764,0.517 -1.528,1.034 -2.292,1.551 -0.035,-0.107 -0.071,-0.214 -0.106,-0.321 -0.27,0.019 -0.588,-0.047 -0.801,0.074 -0.66,0.374 -1.281,0.815 -1.915,1.235 -1.029,0.682 -2.012,1.449 -3.098,2.022 -0.782,0.413 -1.752,0.465 -2.546,0.863 -1.873,0.938 -3.74,1.914 -4.966,3.738 -0.446,0.665 -0.961,1.284 -1.552,2.065 -0.134,-0.275 -0.206,-0.42 -0.256,-0.523 -1.417,1.196 -1.928,2.855 -2.811,4.282 -0.804,1.296 -1.632,2.626 -2.692,3.702 -1.288,1.307 -2.857,2.333 -4.253,3.539 -1.382,1.193 -1.639,2.934 -2.062,4.58 -0.171,0.668 -0.323,1.341 -0.483,2.012 -0.08,-0.018 -0.16,-0.035 -0.239,-0.053 0.022,-0.199 0.045,-0.399 0.068,-0.598 -0.333,0.324 -0.458,0.729 -0.674,1.077 -0.46,0.738 -0.964,1.449 -1.46,2.163 -0.128,0.185 -0.317,0.328 -0.443,0.514 -0.777,1.154 -1.552,2.309 -2.307,3.477 -0.132,0.204 -0.182,0.469 -0.24,0.713 -0.309,1.306 -0.569,2.625 -0.924,3.918 -0.327,1.191 -0.751,2.355 -1.132,3.531 l -0.189,-0.052 c -0.039,-0.119 -0.077,-0.238 -0.098,-0.304 -0.142,0.743 -0.342,1.498 -0.417,2.267 -0.096,0.981 -0.053,1.977 -0.141,2.961 -0.089,1.011 0.114,2.058 -0.435,3.023 -0.307,0.54 -0.575,1.146 -0.676,1.754 -0.442,2.642 -0.777,5.289 -2.156,7.686 -0.994,1.728 -1.07,3.688 -0.727,5.595 0.562,3.111 1.11,6.237 2.339,9.181 0.072,0.173 0.267,0.291 0.375,0.454 0.411,0.625 0.811,1.26 1.215,1.89 -0.046,0.034 -0.091,0.067 -0.137,0.101 -0.148,-0.068 -0.297,-0.136 -0.446,-0.204 0.681,0.903 0.805,2.022 0.488,2.864 -0.356,0.945 -0.322,1.672 0.088,2.491 0.042,-0.074 0.084,-0.149 0.223,-0.398 0.066,0.722 0.117,1.268 0.166,1.813 0.052,0.58 0.062,1.167 0.162,1.739 0.562,3.234 1.854,6.233 2.98,9.289 1.13,3.067 3.182,5.592 4.814,8.357 0.861,1.46 2.041,2.789 3.478,3.843 1.613,1.183 3.246,2.32 4.374,4.107 0.794,1.257 2.03,2.25 3.137,3.288 1.757,1.648 3.533,3.28 5.369,4.84 2.851,2.423 5.635,4.988 9.519,5.69 0.261,0.048 0.537,0.007 0.799,0.052 0.913,0.158 1.881,0.196 2.717,0.546 0.855,0.358 1.574,1.037 2.365,1.556 0.13,0.086 0.325,0.073 0.491,0.101 0.257,0.044 0.574,0.002 0.764,0.139 1.534,1.098 3.137,2.023 4.987,2.519 1.317,0.354 2.594,0.858 3.881,1.318 0.425,0.152 0.82,0.534 1.235,0.544 1.588,0.037 3,0.75 4.514,1.059 2.229,0.456 4.441,1.064 6.613,-0.238 0.234,-0.141 0.622,-0.063 0.934,-0.031 0.313,0.03 0.631,0.218 0.927,0.182 2.927,-0.358 5.849,-0.753 8.773,-1.128 1.473,-0.188 2.949,-0.351 4.422,-0.537 1.166,-0.147 2.337,-0.27 3.492,-0.477 1.452,-0.261 2.891,-0.597 4.336,-0.897 0.072,-0.015 0.152,0.007 0.226,-0.006 0.679,-0.109 1.441,-0.063 2.019,-0.366 1.737,-0.907 3.404,-1.948 5.095,-2.943 0.516,-0.304 0.957,-0.892 1.667,-0.361 0.068,0.05 0.284,-0.064 0.415,-0.131 1.753,-0.899 3.648,-1.346 5.569,-1.644 1.359,-0.212 1.949,-1.273 2.726,-2.151 0.076,-0.086 0.031,-0.28 0.051,-0.534 -0.275,0.241 -0.469,0.412 -0.664,0.583 -0.057,-0.037 -0.115,-0.072 -0.172,-0.108 0.205,-0.345 0.337,-0.774 0.626,-1.016 1.2,-1.003 2.376,-2.034 3.56,-3.044 1.749,-1.495 3.098,-3.442 5.205,-4.551 0.804,-0.424 1.417,-1.208 2.13,-1.813 0.143,-0.122 0.341,-0.185 0.522,-0.255 1.616,-0.614 3.156,-1.302 3.921,-3.036 0.655,-1.481 1.318,-2.966 2.082,-4.392 0.372,-0.694 0.922,-1.324 1.498,-1.87 2.313,-2.197 4.776,-4.245 6.249,-7.183 0.509,-1.016 1.204,-1.937 1.797,-2.911 0.183,-0.3 0.338,-0.622 0.46,-0.951 0.52,-1.401 1.083,-2.789 1.513,-4.217 0.398,-1.326 0.668,-2.693 0.957,-4.051 0.215,-1.009 0.307,-2.047 0.567,-3.041 0.353,-1.344 1.039,-2.639 1.166,-3.993 0.129,-1.387 0.423,-2.71 0.736,-4.046 0.128,-0.549 0.428,-1.139 0.324,-1.642"
               style="fill:#231f20;fill-opacity:1;fill-rule:nonzero;stroke:none"
               id="path1683" />
          </g>
        </g>
      </g>
    </g>
  </g>
</svg>
