<?xml version="1.0" encoding="UTF-8" standalone="no"?>
<!-- Created with Inkscape (http://www.inkscape.org/) -->

<svg
   width="24.059422"
   height="24"
   viewBox="0 0 6.365722 6.35"
   version="1.1"
   id="svg5020"
   inkscape:version="1.2.1 (9c6d41e4, 2022-07-14)"
   sodipodi:docname="return-to-kn-yan.svg"
   xmlns:inkscape="http://www.inkscape.org/namespaces/inkscape"
   xmlns:sodipodi="http://sodipodi.sourceforge.net/DTD/sodipodi-0.dtd"
   xmlns="http://www.w3.org/2000/svg"
   xmlns:svg="http://www.w3.org/2000/svg">
  <sodipodi:namedview
     id="namedview5022"
     pagecolor="#505050"
     bordercolor="#eeeeee"
     borderopacity="1"
     inkscape:showpageshadow="0"
     inkscape:pageopacity="0"
     inkscape:pagecheckerboard="0"
     inkscape:deskcolor="#505050"
     inkscape:document-units="mm"
     showgrid="false"
     inkscape:zoom="0.7046647"
     inkscape:cx="12.772032"
     inkscape:cy="10.64336"
     inkscape:window-width="1390"
     inkscape:window-height="941"
     inkscape:window-x="0"
     inkscape:window-y="25"
     inkscape:window-maximized="0"
     inkscape:current-layer="layer1" />
  <defs
     id="defs5017">
    <clipPath
       clipPathUnits="userSpaceOnUse"
       id="clipPath547">
      <path
         d="m 39.282,386.718 h 22.057 v 21.883 H 39.282 Z"
         id="path545" />
    </clipPath>
  </defs>
  <g
     inkscape:label="Layer 1"
     inkscape:groupmode="layer"
     id="layer1"
     transform="translate(-101.57441,-145.88821)">
    <g
       id="g541"
       transform="matrix(0.29716526,0,0,-0.29716526,89.806605,267.23379)">
      <g
         id="g543"
         clip-path="url(#clipPath547)">
        <g
           id="g549"
           transform="matrix(0.1531793,0,0,-0.1519643,50.31089,397.57196)">
          <g
             id="g551"
             transform="translate(40.5918,-36.6508)">
            <path
               d="m 0,0 c -0.013,0.158 -0.026,0.308 -0.026,0.431 0,0.23 0.004,0.46 0.007,0.69 0.008,0.404 0.014,0.809 0.002,1.211 -0.027,0.868 -0.226,1.685 -0.418,2.474 -0.189,0.778 -0.368,1.514 -0.377,2.251 -0.004,0.397 0.003,0.792 0.013,1.189 0.011,0.547 0.023,1.094 0.001,1.64 -0.02,0.562 -0.153,1.054 -0.282,1.53 -0.051,0.19 -0.103,0.382 -0.146,0.579 -0.022,0.101 -0.038,0.258 -0.057,0.443 -0.117,1.051 -0.294,2.639 -1.545,2.761 -0.431,0.037 -0.809,-0.231 -0.915,-0.639 -0.096,-0.372 -0.11,-0.727 -0.121,-1.04 -0.004,-0.103 -0.008,-0.199 -0.014,-0.291 -0.067,0.146 -0.133,0.296 -0.199,0.449 -0.094,0.216 -0.189,0.433 -0.292,0.653 -0.185,0.389 -0.293,0.938 -0.399,1.469 -0.047,0.249 -0.096,0.494 -0.152,0.723 -0.123,0.512 -0.287,0.99 -0.447,1.454 -0.127,0.372 -0.256,0.744 -0.358,1.128 -0.093,0.351 -0.174,0.698 -0.255,1.041 -0.264,1.126 -0.54,2.29 -1.168,3.424 -0.384,0.691 -0.725,1.314 -1.021,1.957 -0.058,0.129 -0.113,0.274 -0.17,0.422 -0.168,0.444 -0.358,0.947 -0.708,1.327 -0.164,0.179 -0.394,0.278 -0.632,0.278 -0.053,0 -0.109,-0.006 -0.164,-0.016 -0.292,-0.057 -0.533,-0.261 -0.638,-0.539 -0.251,-0.667 -0.084,-1.378 0.048,-1.95 0.061,-0.257 0.118,-0.501 0.124,-0.674 0.01,-0.305 0.002,-0.611 -0.004,-0.917 -0.005,-0.216 -0.009,-0.431 -0.009,-0.646 v -0.898 c 10e-4,-1.049 0.002,-2.097 0,-3.146 -0.001,-0.229 -0.006,-0.459 -0.011,-0.691 -0.013,-0.713 -0.028,-1.451 0.069,-2.198 0.054,-0.418 0.146,-0.819 0.234,-1.207 0.089,-0.394 0.173,-0.767 0.213,-1.13 0.032,-0.274 0.07,-0.553 0.109,-0.834 0.089,-0.65 0.175,-1.263 0.169,-1.85 C -9.544,10.446 -9.535,10.03 -9.525,9.614 -9.512,9.048 -9.5,8.512 -9.522,7.982 -9.542,7.529 -9.655,7.065 -9.775,6.573 -9.857,6.242 -9.937,5.912 -9.993,5.578 c -0.115,-0.67 -0.21,-1.345 -0.304,-2.021 -0.068,-0.481 -0.136,-0.963 -0.21,-1.442 -0.035,-0.221 -0.075,-0.443 -0.115,-0.664 -0.102,-0.563 -0.206,-1.143 -0.232,-1.753 -0.016,-0.373 -0.001,-0.748 0.012,-1.123 0.023,-0.537 0.042,-1.046 -0.041,-1.516 -0.053,-0.303 -0.117,-0.591 -0.181,-0.873 -0.055,-0.241 -0.11,-0.485 -0.159,-0.737 -0.013,-0.004 -0.026,-0.009 -0.041,-0.013 -0.288,-0.101 -0.501,-0.348 -0.558,-0.647 -0.136,-0.698 0.417,-1.09 0.819,-1.377 0.261,-0.185 0.605,-0.21 0.888,-0.064 0.107,0.054 0.199,0.13 0.272,0.219 0.33,-0.08 0.733,-0.104 1.19,0.099 0.704,0.313 1.315,0.863 1.905,1.395 0.317,0.285 0.616,0.553 0.894,0.754 0.503,0.359 1.14,0.566 1.814,0.786 0.36,0.118 0.718,0.234 1.057,0.372 0.147,0.062 0.404,0.092 0.653,0.122 0.731,0.089 1.953,0.236 2.297,1.581 C 0.073,-0.91 0.035,-0.426 0,0 m -1.647,72.699 c -0.105,1.194 -0.828,1.342 -1.89,1.101 -0.6,-0.137 -1.115,-0.437 -1.685,-0.612 -0.422,-0.127 -0.879,-0.156 -1.303,-0.276 -0.714,-0.201 -1.545,-0.233 -2.31,-0.134 -1.781,0.232 0.249,2.936 -1.17,3.588 -0.593,0.275 -1.623,-0.125 -2.121,-0.343 -1.31,-0.575 -2.696,-0.784 -3.007,-2.415 -0.44,-2.311 1.441,-3.988 1.398,-6.103 -0.012,-0.571 0.091,-1.011 0.248,-1.554 0.159,-0.556 0.146,-0.993 0.243,-1.549 0.128,-0.728 0.281,-1.479 0.392,-2.214 0.069,-0.453 0.373,-1.33 0.675,-1.663 0.46,0.393 0.647,0.74 0.889,1.305 0.201,0.473 0.283,0.812 0.799,0.811 0.57,-0.002 0.918,-0.66 1.214,-1.171 0.158,-0.274 0.208,-0.566 0.294,-0.861 0.053,-0.184 0.186,-0.573 0.21,-0.751 0.052,-0.371 -0.074,-0.746 0.002,-1.11 0.093,-0.444 0.356,-0.804 0.452,-1.248 0.254,-1.175 0.141,-2.467 0.304,-3.657 0.141,-1.021 0.204,-2.143 0.461,-3.129 0.088,-0.338 0.456,-2.212 0.827,-2.258 0.414,0.314 0.23,0.918 0.345,1.377 0.187,0.742 0.498,1.301 0.538,2.102 0.051,1.021 0.072,1.715 0.327,2.696 0.214,0.823 0.364,1.673 0.533,2.507 0.4,1.978 0.097,4.188 0.225,6.208 0.031,0.495 0.195,0.909 0.308,1.363 0.107,0.425 0.197,0.744 0.482,1.119 0.305,0.402 0.579,0.386 1.006,0.528 0.523,0.174 0.44,0.17 0.659,0.686 0.27,0.636 0.572,1.356 0.579,2.098 0.012,0.941 0.119,1.903 0.108,2.853 -0.002,0.236 -0.012,0.472 -0.032,0.706 m -14.13,-70.5 c -0.081,0.356 -0.146,0.722 -0.212,1.089 -0.214,1.197 -0.436,2.434 -1.138,3.538 -0.091,0.143 -0.2,0.282 -0.313,0.423 -0.116,0.142 -0.246,0.303 -0.277,0.403 -0.071,0.231 -0.105,0.723 -0.132,1.083 -0.017,0.249 -0.033,0.478 -0.058,0.65 -0.072,0.521 -0.148,1.039 -0.223,1.554 -0.318,2.175 -0.618,4.229 -0.619,6.381 -0.001,0.463 0.005,0.926 0.01,1.388 0.023,1.902 0.046,3.87 -0.34,5.82 -0.133,0.671 -0.368,1.268 -0.596,1.847 -0.181,0.46 -0.352,0.895 -0.465,1.344 -0.132,0.535 -0.297,1.061 -0.462,1.587 -0.196,0.63 -0.382,1.226 -0.514,1.837 l -0.022,0.099 c -0.205,0.951 -0.398,1.85 -0.509,2.776 -0.026,0.207 -0.054,0.414 -0.083,0.62 -0.034,0.242 -0.066,0.477 -0.092,0.709 0.03,0.575 0.038,1.183 -0.1,1.736 -0.036,0.176 -0.098,0.358 -0.199,0.544 -0.156,0.283 -0.449,0.444 -0.752,0.444 -0.132,0 -0.265,-0.031 -0.39,-0.094 -0.413,-0.211 -0.583,-0.711 -0.384,-1.131 0.019,-0.041 0.035,-0.087 0.049,-0.138 0.014,-0.086 0.011,-0.208 0.008,-0.342 -0.002,-0.105 -0.005,-0.209 -0.001,-0.316 0.005,-0.254 0.023,-0.503 0.047,-0.747 -0.003,-0.064 -0.006,-0.126 -0.01,-0.187 -0.017,-0.276 -0.032,-0.537 -0.032,-0.766 10e-4,-0.58 0.009,-1.162 0.018,-1.745 0.016,-1.043 0.032,-2.122 -0.005,-3.164 -0.048,-1.393 -0.31,-2.957 -0.753,-4.524 -0.074,-0.259 -0.159,-0.517 -0.244,-0.774 -0.153,-0.465 -0.312,-0.947 -0.416,-1.46 -0.094,-0.46 -0.119,-0.899 -0.145,-1.324 -0.016,-0.261 -0.031,-0.523 -0.064,-0.786 -0.13,-1.002 -0.342,-2.021 -0.546,-3.008 -0.36,-1.733 -0.731,-3.524 -0.712,-5.398 0.022,-2.093 0.016,-4.187 0.012,-6.281 l -0.006,-2.817 c 0,-0.813 -0.015,-1.631 -0.03,-2.451 -0.044,-2.391 -0.089,-4.865 0.242,-7.267 0.044,-0.315 0.061,-0.738 0.081,-1.185 0.073,-1.692 0.173,-4.009 1.867,-4.859 1.454,-0.73 3.574,-0.579 4.919,-0.054 0.548,0.214 1.064,0.415 1.664,0.899 l 0.149,0.119 c 0.305,0.242 0.619,0.49 0.921,0.878 0.082,0.105 0.151,0.217 0.214,0.327 0.009,0.015 0.017,0.029 0.025,0.044 0.085,0.039 0.166,0.091 0.235,0.156 0.102,0.096 0.374,0.351 0.744,1.431 0.191,0.559 0.228,1.125 0.26,1.625 0.02,0.308 0.038,0.598 0.089,0.859 0.308,1.613 0.333,3.075 0.073,4.35 -0.128,0.626 -0.231,1.242 -0.334,1.858 -0.131,0.778 -0.267,1.583 -0.449,2.4 m -0.177,78.447 c -0.14,1.166 -0.608,2.116 -1.573,2.63 -0.74,0.395 -1.785,0.199 -2.861,0.199 -0.254,-1.683 -0.739,-3.531 -1.171,-5.181 -0.261,-1.004 -0.42,-2.011 -0.903,-2.917 -0.448,-0.841 -0.778,-1.709 -1.198,-2.564 -0.405,-0.822 -0.847,-1.782 -1.3,-2.568 -0.299,-0.516 -0.761,-0.767 -1.103,-1.188 -0.143,-0.175 -0.254,-0.647 -0.337,-0.885 -0.267,-0.76 -0.233,-1.48 -0.228,-2.276 0.008,-1.612 0.163,-3.353 -0.131,-4.93 -0.375,-2.015 -0.159,-4.265 0.197,-6.259 0.194,-1.088 0.32,-2.047 0.853,-3.015 0.328,-0.595 0.345,-1.151 0.621,-1.756 0.336,-0.737 0.73,-1.476 1.116,-2.185 0.229,-0.419 0.548,-1.271 0.931,-1.405 0.226,0.813 -0.108,1.717 0.099,2.544 0.194,0.778 0.583,1.518 0.786,2.319 0.31,1.228 0.682,2.392 1.098,3.579 0.356,1.014 0.259,2.087 0.563,3.087 1.308,4.313 1.544,9.028 2.247,13.494 0.303,1.925 1.278,3.62 1.773,5.48 0.309,1.157 0.667,2.574 0.521,3.797 m -5.992,4.519 c -0.083,0.437 -0.044,0.279 -0.407,0.516 -1.133,0.738 -3.98,1.348 -4.53,-0.39 -0.077,-0.242 0.02,-0.535 -0.043,-0.782 -0.08,-0.314 -0.283,-0.624 -0.417,-0.924 -0.403,-0.909 -0.604,-2.1 -0.966,-3.072 -0.573,-1.54 -2.148,-1.477 -3.305,-2.33 -0.435,-0.321 -0.874,-0.583 -1.303,-0.92 -0.345,-0.271 -0.733,-0.782 -1.158,-0.875 -0.68,-0.148 -1.202,0.355 -1.679,0.732 -0.611,0.484 -1.261,1.043 -2.007,1.351 -0.755,0.309 -1.442,0.785 -2.222,1.034 -0.403,0.128 -0.521,0.122 -0.872,0.423 -0.202,0.173 -0.37,0.373 -0.58,0.533 -1.35,1.034 -1.745,2.941 -2.242,4.506 -0.334,1.049 -0.519,2.375 -1.444,3.094 -0.396,0.308 -0.995,0.657 -1.464,0.846 -0.241,0.097 -0.438,0.127 -0.698,0.121 -0.432,-0.007 -0.695,-0.145 -0.857,-0.365 -0.285,-0.386 -0.259,-1.026 -0.305,-1.66 -0.111,-1.56 0.516,-2.892 0.816,-4.37 0.438,-2.159 0.335,-5.183 1.919,-6.818 0.274,-0.283 0.605,-0.59 0.942,-0.774 0.492,-0.268 0.991,-0.162 1.507,-0.309 0.729,-0.209 1.295,-0.767 1.916,-1.2 1.067,-0.743 1.473,-1.194 1.945,-2.496 0.457,-1.262 0.585,-2.4 0.714,-3.75 0.056,-0.573 0.15,-1.151 0.12,-1.731 -0.026,-0.471 -0.157,-0.886 -0.096,-1.36 0.121,-0.954 0.612,-1.936 0.849,-2.871 0.271,-1.065 0.595,-2.103 0.874,-3.165 0.269,-1.029 0.068,-2.015 0.232,-3.053 0.37,-2.334 -0.08,-4.817 -0.304,-7.174 -0.111,-1.186 -0.016,-2.193 0.166,-3.354 0.108,-0.675 0.071,-1.359 0.179,-2.015 0.858,-0.454 0.723,0.389 0.889,0.955 0.08,0.276 0.247,0.458 0.286,0.863 0.076,0.786 0.208,1.433 0.39,2.182 0.567,2.334 0.872,4.731 1.663,6.984 0.389,1.108 0.484,2.286 0.817,3.394 0.405,1.342 0.58,2.663 0.687,4.063 0.087,1.142 0.462,2.156 0.549,3.328 0.086,1.164 0.674,2.201 0.834,3.356 0.286,2.072 0.86,4.362 2.501,5.696 0.898,0.728 1.779,1.544 2.641,2.33 0.774,0.706 1.146,1.204 1.566,2.2 0.816,1.935 1.589,4.153 1.795,6.257 0.027,0.284 0.153,0.719 0.102,0.994 m -28.165,0.937 c -0.153,0.443 -0.035,0.543 -0.538,0.81 -0.408,0.216 -0.871,0.274 -1.291,0.457 -0.344,0.152 -0.469,0.306 -0.886,0.276 -0.588,-0.042 -1.278,-0.593 -1.612,-1.087 -0.028,-0.043 -0.054,-0.091 -0.078,-0.143 -0.13,-0.283 -0.19,-0.683 -0.242,-0.95 -0.097,-0.502 -0.21,-1.098 -0.263,-1.617 -0.101,-0.988 -0.259,-1.9 -0.506,-2.9 -0.18,-0.735 -0.33,-1.435 -1.142,-1.738 -0.798,-0.299 -1.728,-0.422 -2.587,-0.267 -1.007,0.182 -1.943,0.614 -2.935,0.851 -0.943,0.225 -1.901,0.2 -2.862,0.177 -0.58,-0.013 -1.192,0.028 -1.705,-0.29 -1.529,-0.948 -2.458,-3.748 -2.028,-5.378 -0.305,-0.199 -0.454,-0.445 -0.461,-1.011 -0.006,-0.55 -0.024,-1.116 -0.001,-1.665 0.021,-0.478 0.174,-0.757 0.245,-1.193 0.083,-0.509 -0.003,-1.018 0.079,-1.533 0.078,-0.484 0.176,-0.878 0.196,-1.406 0.022,-0.569 0.194,-0.946 0.339,-1.474 0.124,-0.456 0.09,-0.99 0.239,-1.423 0.259,-0.755 0.698,-1.367 1.32,-1.785 0.542,0.824 0.681,1.724 0.969,2.643 0.318,1.015 0.603,2.096 0.852,3.159 0.072,0.306 0.126,0.617 0.177,0.929 0.464,-0.575 0.917,-1.149 1.219,-1.873 0.491,-1.179 0.365,-2.319 0.627,-3.53 0.443,-2.042 0.75,-4.163 1.434,-6.112 0.244,-0.696 0.501,-1.374 0.715,-2.09 0.396,-1.316 0.98,-2.801 1.131,-4.165 0.117,-1.045 -0.012,-2.054 0.177,-3.106 0.166,-0.925 0.286,-1.818 0.319,-2.75 0.023,-0.677 0.489,-0.942 1.064,-0.422 0.338,0.306 0.405,1.03 0.567,1.519 0.467,1.408 0.475,3.028 0.656,4.494 0.139,1.122 -0.074,2.264 0.116,3.378 0.18,1.05 0.076,2.112 0.261,3.154 0.145,0.82 0.321,1.621 0.495,2.442 0.321,1.532 0.916,2.87 1.02,4.455 0.049,0.733 0.05,1.291 0.183,2.024 0.08,0.438 0.198,0.91 0.265,1.344 0.081,0.518 0.003,1.031 0.111,1.547 0.13,0.62 0.389,1.19 0.528,1.815 0.173,0.789 0.57,1.394 0.98,2.054 0.571,0.919 1.456,1.415 2.095,2.237 0.533,0.687 0.687,1.717 0.766,2.575 0.149,1.617 0.259,3.133 0.26,4.758 0.001,1.039 0.06,1.855 -0.268,2.81 M -69.549,-2.706 c -0.156,-0.313 -0.325,-0.608 -0.49,-0.898 -0.59,-1.033 -1.199,-2.1 -1.133,-3.611 0.075,-1.738 1.154,-2.507 1.96,-2.935 l 0.169,-0.09 c 0.865,-0.462 2.049,-1.093 3.087,-1.163 0.524,-0.038 0.962,0.102 1.349,0.224 0.469,0.148 0.807,0.256 1.316,0.099 0.261,-0.081 0.544,-0.033 0.763,0.129 0.219,0.161 0.349,0.418 0.349,0.69 0,0.36 -0.017,0.739 -0.036,1.125 -0.035,0.768 -0.071,1.562 0.044,2.203 0.024,0.133 0.058,0.242 0.089,0.349 0.08,0.268 0.179,0.6 0.169,1.103 l -0.007,0.342 c -0.014,0.506 -0.026,0.984 0.047,1.437 0.085,0.525 0.14,1.042 0.195,1.56 0.057,0.548 0.111,1.065 0.202,1.59 0.178,1.027 0.342,2.156 0.336,3.456 -10e-4,0.196 0.006,0.397 0.014,0.6 0.012,0.369 0.025,0.749 -0.002,1.129 -0.025,0.35 -0.092,0.666 -0.159,0.972 -0.06,0.283 -0.118,0.549 -0.127,0.796 -0.004,0.116 0.001,0.225 0.005,0.332 0.011,0.254 0.022,0.541 -0.047,0.875 -0.083,0.405 -0.259,0.758 -0.416,1.069 -0.123,0.245 -0.239,0.477 -0.282,0.679 l -0.105,0.498 c -0.154,0.735 -0.314,1.497 -0.539,2.267 -0.085,0.291 -0.317,0.514 -0.609,0.589 -0.071,0.019 -0.142,0.028 -0.214,0.028 -0.224,0 -0.442,-0.088 -0.605,-0.25 -0.503,-0.5 -0.465,-1.082 -0.442,-1.43 0.004,-0.071 0.01,-0.142 0.007,-0.215 -0.017,-0.48 -0.129,-0.975 -0.248,-1.5 -0.086,-0.379 -0.171,-0.757 -0.225,-1.136 -0.062,-0.428 -0.051,-0.829 -0.04,-1.216 0.011,-0.371 0.02,-0.722 -0.042,-1.028 -0.084,-0.402 -0.255,-0.819 -0.437,-1.26 -0.094,-0.23 -0.189,-0.459 -0.272,-0.687 -0.272,-0.747 -0.668,-1.405 -1.088,-2.101 -0.258,-0.429 -0.515,-0.856 -0.745,-1.305 -0.128,-0.246 -0.296,-0.489 -0.474,-0.746 -0.171,-0.244 -0.34,-0.49 -0.49,-0.752 -0.214,-0.375 -0.368,-0.75 -0.517,-1.112 -0.098,-0.238 -0.195,-0.474 -0.31,-0.706 m -1.24,76.751 c -0.211,0.691 -0.447,1.556 -0.962,2.095 -0.572,0.596 -1.188,0.44 -1.914,0.291 -1.052,-0.214 -1.273,-0.407 -1.883,-1.279 -0.021,-0.031 -0.042,-0.061 -0.062,-0.092 -0.385,-0.579 -0.542,-1.108 -0.699,-1.773 -0.191,-0.803 -0.687,-1.53 -0.968,-2.304 -0.282,-0.778 -0.676,-1.587 -1.384,-2.062 -0.709,-0.476 -1.266,-0.387 -2.074,-0.49 -0.398,-0.051 -0.788,-0.228 -1.19,-0.324 -0.736,-0.173 -1.238,-0.253 -1.717,-0.842 -0.416,-0.511 -0.895,-0.943 -1.35,-1.413 -0.985,-1.017 -1.18,-2.986 -0.215,-4.078 0.564,-0.637 1.428,-0.823 2.238,-0.668 0.747,0.144 1.841,0.484 2.493,-0.102 0.439,-0.396 0.307,-0.889 0.407,-1.399 0.093,-0.479 0.346,-0.953 0.455,-1.44 0.192,-0.853 0.307,-1.743 0.487,-2.595 0.202,-0.963 10e-4,-1.986 0.045,-2.962 0.07,-1.531 0.353,-3.958 1.486,-5.126 0.448,0.602 0.518,1.595 0.761,2.297 0.247,0.712 0.494,1.432 0.774,2.125 0.574,1.416 0.923,2.976 1.594,4.351 0.381,0.778 0.545,1.503 0.97,2.233 0.32,0.551 0.569,1.161 0.703,1.738 0.229,0.987 0.616,1.999 0.585,3.024 -0.009,0.319 -0.068,0.617 -0.024,0.938 0.074,0.541 0.307,1.065 0.434,1.594 0.276,1.145 0.405,2.323 0.409,3.5 0.002,0.725 0.119,1.188 0.317,1.867 0.308,1.06 0.624,1.779 0.284,2.896 m 11.959,-88.344 c 0.329,-0.411 0.826,-0.634 1.478,-0.66 1.261,-0.051 2.369,-0.268 3.748,-0.602 1.404,-0.339 3.191,-0.309 3.611,0.894 0.032,0.091 0.048,0.186 0.048,0.282 l -0.002,2.549 c -0.003,1.864 -0.005,3.731 0.005,5.596 v 0.166 c 0.005,0.839 0.011,1.708 -0.219,2.618 -0.068,0.268 -0.15,0.531 -0.232,0.793 -0.118,0.374 -0.229,0.726 -0.285,1.076 l -0.118,0.701 c -0.07,0.413 -0.142,0.825 -0.198,1.239 -0.011,0.081 -0.019,0.173 -0.028,0.269 -0.055,0.586 -0.13,1.386 -0.721,1.887 -0.161,0.136 -0.358,0.204 -0.554,0.204 -0.231,0 -0.46,-0.092 -0.629,-0.274 -0.66,-0.709 -0.605,-1.704 -0.565,-2.43 0.008,-0.16 0.017,-0.314 0.016,-0.455 -0.006,-0.848 -0.183,-1.754 -0.355,-2.63 l -0.091,-0.471 c -0.046,-0.242 -0.088,-0.502 -0.133,-0.771 -0.148,-0.899 -0.313,-1.896 -0.673,-2.598 -0.082,0.2 -0.157,0.411 -0.203,0.54 -0.086,0.24 -0.164,0.45 -0.231,0.588 -0.187,0.386 -0.576,1.187 -1.343,1.363 -0.403,0.094 -0.827,-0.012 -1.188,-0.296 -0.58,-0.458 -0.911,-1.876 -0.913,-1.891 -0.306,-1.44 -0.318,-2.759 -0.33,-4.157 -0.003,-0.271 -0.068,-0.629 -0.131,-0.975 -0.157,-0.862 -0.335,-1.841 0.236,-2.555 m 15.917,29.514 c 0.015,-0.572 0.084,-1.123 0.151,-1.654 0.062,-0.482 0.118,-0.937 0.136,-1.393 0.022,-0.592 0.01,-1.21 0,-1.807 -0.007,-0.371 -0.015,-0.741 -0.015,-1.111 10e-4,-0.641 -0.012,-1.288 -0.025,-1.936 -0.029,-1.513 -0.06,-3.076 0.073,-4.606 0.048,-0.551 0.15,-1.077 0.248,-1.586 0.121,-0.622 0.235,-1.209 0.245,-1.795 0.008,-0.45 -10e-4,-0.902 -0.009,-1.354 -0.006,-0.338 -0.011,-0.677 -0.011,-1.014 l -0.001,-1.758 c -10e-4,-1.201 -0.002,-2.403 0.003,-3.604 0.004,-0.718 -0.065,-1.43 -0.138,-2.184 -0.087,-0.899 -0.177,-1.829 -0.136,-2.775 0.047,-1.038 0.183,-1.878 1.451,-2.443 0.724,-0.324 1.453,-0.616 2.394,-0.64 0.508,-0.013 1.017,-0.008 1.526,-0.004 0.388,0.004 0.775,0.008 1.166,0.004 0.488,-0.007 0.946,0.041 1.52,0.16 0.158,0.033 0.357,0.039 0.568,0.047 0.271,0.009 0.579,0.019 0.888,0.09 1.347,0.311 2.232,1.484 3.169,2.727 l 0.312,0.409 c 0.225,0.295 0.236,0.7 0.026,1.006 -0.361,0.528 -0.897,0.648 -1.218,0.719 -0.203,0.046 -0.261,0.064 -0.278,0.091 -0.209,0.313 -0.273,0.966 -0.324,1.489 -0.015,0.152 -0.03,0.298 -0.046,0.434 -0.081,0.659 -0.188,1.314 -0.293,1.968 -0.09,0.559 -0.181,1.118 -0.255,1.682 -0.111,0.844 -0.12,1.709 -0.127,2.623 -0.008,0.82 -0.017,1.668 -0.105,2.514 -0.097,0.935 -0.231,2.168 -0.404,3.399 -0.219,1.554 -0.204,3.107 -0.188,4.751 0.004,0.41 0.007,0.821 0.007,1.232 0,0.752 0.011,1.508 0.022,2.264 0.018,1.46 0.04,2.97 -0.017,4.455 -0.015,0.429 -0.102,0.772 -0.178,1.075 -0.04,0.16 -0.082,0.321 -0.111,0.502 -0.005,0.036 0.006,0.145 0.014,0.217 0.016,0.165 0.036,0.37 0.01,0.596 -0.042,0.358 -0.154,0.587 -0.228,0.738 -0.041,0.085 -0.055,0.114 -0.065,0.165 -0.006,0.039 0.004,0.159 0.01,0.238 0.017,0.2 0.038,0.449 -0.016,0.721 -0.154,0.782 -0.678,1.442 -1.059,1.87 -0.185,0.208 -0.312,0.505 -0.459,0.848 -0.071,0.165 -0.141,0.331 -0.22,0.493 -0.493,1.013 -0.739,2.099 -1,3.25 -0.143,0.63 -0.291,1.283 -0.485,1.934 -0.069,0.234 -0.105,0.496 -0.145,0.772 -0.045,0.315 -0.09,0.64 -0.189,0.985 -0.075,0.266 -0.167,0.519 -0.259,0.771 -0.125,0.338 -0.242,0.659 -0.296,0.988 -0.101,0.611 -0.287,1.18 -0.465,1.731 -0.115,0.353 -0.232,0.707 -0.322,1.071 -0.034,0.142 -0.073,0.283 -0.113,0.423 -0.071,0.26 -0.138,0.505 -0.173,0.738 -0.014,0.094 0.003,0.256 0.018,0.412 0.029,0.267 0.06,0.57 10e-4,0.899 -0.054,0.301 -0.164,0.502 -0.236,0.636 -0.039,0.068 -0.052,0.093 -0.06,0.123 -0.026,0.092 -0.036,0.179 -0.046,0.265 -0.033,0.255 -0.079,0.606 -0.308,0.991 -0.157,0.267 -0.44,0.422 -0.738,0.422 -0.082,0 -0.165,-0.011 -0.247,-0.037 -0.378,-0.113 -0.629,-0.471 -0.61,-0.865 0.027,-0.507 -0.069,-0.975 -0.179,-1.517 -0.041,-0.203 -0.083,-0.408 -0.121,-0.621 -0.359,-2.075 -0.596,-3.869 -0.724,-5.487 -0.113,-1.423 -0.365,-2.873 -0.611,-4.275 -0.35,-2.005 -0.712,-4.08 -0.698,-6.208 0.004,-0.708 -0.003,-1.418 -0.011,-2.129 -0.012,-1.026 -0.023,-2.088 0.004,-3.135 M 29.31,43.037 c -0.23,-1.102 -0.734,-2.066 -0.52,-3.335 0.208,-1.238 -0.588,-2.442 -1.335,-3.529 v 0.734 c -0.085,0.006 -0.17,0.012 -0.256,0.018 -0.037,-0.592 -0.186,-1.204 -0.09,-1.774 0.32,-1.872 0.754,-3.724 1.085,-5.594 0.093,-0.525 0.071,-1.108 -0.054,-1.626 -0.414,-1.723 -0.882,-3.432 -1.363,-5.138 -0.398,-1.413 -0.798,-2.828 -1.285,-4.212 -0.29,-0.828 -0.723,-1.609 -1.138,-2.389 -0.167,-0.317 -0.461,-0.566 -0.679,-0.859 -0.095,-0.127 -0.157,-0.283 -0.211,-0.434 -0.315,-0.876 0.396,-1.786 -0.1,-2.672 -0.167,-0.297 -0.257,-0.658 -0.302,-1 C 22.934,10.248 22.852,9.263 22.738,8.281 22.719,8.115 22.673,7.932 22.578,7.799 22.04,7.048 21.473,6.317 20.944,5.559 20.853,5.426 20.901,5.196 20.879,4.939 19.656,3.84 19.102,2.111 17.813,0.868 16.655,-0.25 15.921,-1.808 14.995,-3.169 c -0.61,-0.895 -1.246,-1.773 -1.839,-2.68 -0.517,-0.789 -1.361,-1.318 -1.443,-2.466 -0.045,-0.621 -0.714,-1.276 -1.239,-1.767 -1.053,-0.983 -2.202,-1.865 -3.313,-2.79 -0.019,0.167 -0.042,0.358 -0.065,0.549 -0.069,0.028 -0.137,0.056 -0.205,0.085 -0.44,-0.65 -0.873,-1.303 -1.32,-1.947 -0.29,-0.419 -0.6,-0.825 -0.9,-1.238 -0.223,-0.305 -0.451,-0.606 -0.663,-0.918 -0.356,-0.527 -0.695,-1.065 -1.053,-1.59 -0.123,-0.178 -0.297,-0.321 -0.428,-0.495 -0.531,-0.7 -1.029,-1.428 -1.599,-2.095 -0.146,-0.17 -0.507,-0.181 -0.776,-0.216 -0.388,-0.051 -0.803,0.01 -1.173,-0.097 -1.555,-0.452 -3.114,-0.903 -4.636,-1.453 -0.616,-0.223 -1.223,-0.613 -1.696,-1.07 -1.451,-1.4 -3.26,-2.345 -4.621,-3.887 -0.718,-0.814 -1.88,-1.261 -2.886,-1.789 -1.12,-0.587 -2.286,-1.087 -3.441,-1.604 -0.629,-0.281 -1.259,-0.652 -1.922,-0.748 -1.299,-0.189 -2.626,-0.189 -3.936,-0.314 -1.513,-0.144 -3.081,-0.024 -4.481,-0.794 -1.502,-0.825 -3.14,-0.672 -4.756,-0.695 -0.114,-0.002 -0.262,0.019 -0.337,0.09 -0.723,0.677 -1.549,0.388 -2.345,0.24 -0.121,-0.023 -0.191,-0.323 -0.322,-0.565 -0.369,-0.05 -0.841,-0.162 -1.316,-0.169 -1.007,-0.016 -2.015,0.024 -3.022,0.038 -1.049,0.015 -2.103,0.102 -3.144,0.019 -0.979,-0.077 -1.943,-0.335 -2.913,-0.516 -0.018,-0.003 -0.028,-0.056 -0.044,-0.058 -0.394,-0.038 -0.833,-0.199 -1.176,-0.082 -0.908,0.309 -1.816,0.667 -2.64,1.149 -0.429,0.25 -1.125,0.383 -1.109,1.145 0.002,0.106 -0.178,0.248 -0.304,0.319 -0.502,0.28 -1.016,0.539 -1.525,0.807 0.005,-0.08 0.01,-0.16 0.014,-0.24 -0.148,-0.032 -0.305,-0.115 -0.441,-0.088 -0.738,0.154 -1.466,0.362 -2.209,0.491 -0.296,0.051 -0.631,-0.123 -0.927,-0.074 -1.156,0.195 -2.303,0.439 -3.454,0.662 -1.412,0.273 -2.826,0.541 -4.238,0.818 -0.196,0.038 -0.397,0.181 -0.579,0.154 -1.298,-0.186 -2.402,0.52 -3.603,0.769 -0.214,0.044 -0.379,0.319 -0.566,0.487 0.038,0.034 0.075,0.067 0.114,0.101 l 1.097,-0.355 c 0.026,0.07 0.052,0.141 0.078,0.212 -0.764,0.517 -1.527,1.033 -2.292,1.55 -0.035,-0.107 -0.07,-0.214 -0.106,-0.32 -0.27,0.019 -0.587,-0.047 -0.801,0.074 -0.66,0.373 -1.281,0.815 -1.914,1.235 -1.029,0.681 -2.012,1.448 -3.098,2.022 -0.782,0.413 -1.752,0.465 -2.546,0.862 -1.874,0.938 -3.741,1.914 -4.966,3.739 -0.447,0.664 -0.961,1.283 -1.552,2.065 -0.135,-0.275 -0.206,-0.42 -0.257,-0.523 -1.417,1.195 -1.928,2.855 -2.811,4.281 -0.803,1.297 -1.632,2.627 -2.692,3.703 -1.287,1.307 -2.856,2.333 -4.253,3.539 -1.382,1.192 -1.639,2.934 -2.061,4.58 -0.172,0.668 -0.323,1.341 -0.484,2.012 -0.079,-0.018 -0.159,-0.036 -0.239,-0.053 0.023,-0.2 0.046,-0.399 0.069,-0.599 -0.333,0.324 -0.458,0.73 -0.675,1.078 -0.46,0.737 -0.963,1.448 -1.459,2.162 -0.129,0.185 -0.318,0.329 -0.443,0.515 -0.778,1.153 -1.552,2.308 -2.307,3.476 -0.132,0.205 -0.182,0.47 -0.24,0.714 -0.31,1.305 -0.57,2.624 -0.924,3.917 -0.328,1.191 -0.751,2.356 -1.133,3.532 l -0.189,-0.053 c -0.038,-0.118 -0.077,-0.237 -0.098,-0.303 -0.141,0.742 -0.341,1.498 -0.416,2.266 -0.096,0.982 -0.054,1.978 -0.141,2.962 -0.089,1.011 0.114,2.057 -0.435,3.023 -0.307,0.54 -0.575,1.146 -0.677,1.753 -0.442,2.643 -0.776,5.29 -2.155,7.687 -0.994,1.728 -1.071,3.688 -0.727,5.594 0.561,3.112 1.11,6.238 2.339,9.182 0.072,0.173 0.267,0.291 0.374,0.454 0.412,0.625 0.811,1.26 1.215,1.89 -0.045,0.034 -0.091,0.067 -0.136,0.1 -0.149,-0.067 -0.297,-0.136 -0.446,-0.203 0.68,0.902 0.804,2.022 0.488,2.863 -0.356,0.946 -0.322,1.672 0.087,2.492 0.042,-0.075 0.084,-0.15 0.224,-0.398 0.066,0.722 0.116,1.268 0.165,1.813 0.053,0.58 0.063,1.167 0.163,1.739 0.562,3.233 1.854,6.232 2.98,9.289 1.129,3.066 3.182,5.592 4.813,8.356 0.862,1.46 2.042,2.789 3.479,3.843 1.612,1.184 3.245,2.32 4.374,4.108 0.793,1.256 2.029,2.25 3.136,3.288 1.757,1.648 3.534,3.28 5.37,4.84 2.851,2.422 5.634,4.988 9.519,5.69 0.261,0.048 0.537,0.007 0.798,0.052 0.913,0.158 1.882,0.196 2.718,0.546 0.855,0.358 1.573,1.037 2.364,1.555 0.131,0.086 0.326,0.074 0.492,0.102 0.257,0.044 0.573,0.002 0.763,0.139 1.534,1.097 3.137,2.023 4.987,2.519 1.317,0.354 2.595,0.857 3.881,1.317 0.425,0.153 0.82,0.535 1.235,0.544 1.589,0.037 3.001,0.75 4.514,1.06 2.23,0.456 4.442,1.063 6.613,-0.238 0.235,-0.141 0.623,-0.063 0.934,-0.032 0.313,0.031 0.631,0.219 0.928,0.183 2.927,-0.358 5.849,-0.753 8.772,-1.128 1.473,-0.188 2.95,-0.351 4.422,-0.537 1.166,-0.147 2.337,-0.271 3.493,-0.478 1.452,-0.26 2.89,-0.596 4.335,-0.896 0.073,-0.016 0.153,0.007 0.227,-0.006 0.679,-0.109 1.44,-0.063 2.019,-0.366 1.737,-0.907 3.404,-1.948 5.094,-2.943 0.517,-0.304 0.957,-0.892 1.667,-0.362 0.069,0.051 0.284,-0.063 0.415,-0.131 1.753,-0.898 3.649,-1.345 5.57,-1.643 1.359,-0.212 1.949,-1.274 2.725,-2.152 0.076,-0.086 0.031,-0.279 0.052,-0.534 -0.275,0.241 -0.47,0.412 -0.664,0.583 -0.058,-0.036 -0.115,-0.071 -0.173,-0.107 0.205,-0.345 0.338,-0.775 0.627,-1.017 1.199,-1.003 2.376,-2.033 3.56,-3.044 1.749,-1.495 3.097,-3.441 5.205,-4.55 0.803,-0.424 1.417,-1.209 2.13,-1.813 0.142,-0.122 0.34,-0.186 0.522,-0.255 1.615,-0.614 3.155,-1.303 3.921,-3.036 0.654,-1.481 1.317,-2.966 2.082,-4.393 0.372,-0.693 0.922,-1.323 1.498,-1.87 2.313,-2.196 4.775,-4.244 6.249,-7.182 0.509,-1.016 1.203,-1.937 1.797,-2.911 0.183,-0.3 0.338,-0.623 0.46,-0.952 0.519,-1.4 1.083,-2.789 1.513,-4.216 0.398,-1.327 0.668,-2.694 0.957,-4.051 0.214,-1.009 0.306,-2.047 0.567,-3.041 0.353,-1.344 1.039,-2.639 1.166,-3.993 0.129,-1.387 0.423,-2.71 0.735,-4.046 0.128,-0.549 0.429,-1.139 0.325,-1.642"
               style="fill:#231f20;fill-opacity:1;fill-rule:nonzero;stroke:none"
               id="path553" />
          </g>
        </g>
      </g>
    </g>
  </g>
</svg>
