<?xml version="1.0" encoding="UTF-8" standalone="no"?>
<!-- Created with Inkscape (http://www.inkscape.org/) -->

<svg
   width="23.993839"
   height="24"
   viewBox="0 0 6.3483698 6.35"
   version="1.1"
   id="svg7252"
   inkscape:version="1.2.1 (9c6d41e4, 2022-07-14)"
   sodipodi:docname="venomous-hate.svg"
   xmlns:inkscape="http://www.inkscape.org/namespaces/inkscape"
   xmlns:sodipodi="http://sodipodi.sourceforge.net/DTD/sodipodi-0.dtd"
   xmlns="http://www.w3.org/2000/svg"
   xmlns:svg="http://www.w3.org/2000/svg">
  <sodipodi:namedview
     id="namedview7254"
     pagecolor="#505050"
     bordercolor="#eeeeee"
     borderopacity="1"
     inkscape:showpageshadow="0"
     inkscape:pageopacity="0"
     inkscape:pagecheckerboard="0"
     inkscape:deskcolor="#505050"
     inkscape:document-units="mm"
     showgrid="false"
     inkscape:zoom="0.7046647"
     inkscape:cx="-12.772032"
     inkscape:cy="200.80472"
     inkscape:window-width="1390"
     inkscape:window-height="941"
     inkscape:window-x="0"
     inkscape:window-y="25"
     inkscape:window-maximized="0"
     inkscape:current-layer="layer1" />
  <defs
     id="defs7249">
    <clipPath
       clipPathUnits="userSpaceOnUse"
       id="clipPath2809">
      <path
         d="m 159.654,615.98 h 22.76 v 18.754 h -22.76 z"
         id="path2807" />
    </clipPath>
  </defs>
  <g
     inkscape:label="Layer 1"
     inkscape:groupmode="layer"
     id="layer1"
     transform="translate(-108.34162,-95.574684)">
    <g
       id="g2803"
       transform="matrix(0.38730466,0,0,-0.38730466,45.273694,340.95342)">
      <g
         id="g2805"
         clip-path="url(#clipPath2809)">
        <g
           id="g2811"
           transform="matrix(0.1580564,0,0,-0.1302397,171.03365,623.35437)">
          <g
             id="g2813"
             transform="translate(16.1865,-62.5726)">
            <path
               d="m 0,0 c 0.014,0.063 0.026,0.126 0.04,0.189 0.769,0.049 0.302,-2.373 0.122,-2.71 -0.459,-0.864 -1.358,-1.652 -2.209,-2.095 -0.702,-0.365 -1.554,-0.633 -2.349,-0.617 -0.714,0.013 -1.5,-0.262 -1.883,-0.838 -0.407,-0.612 -0.668,-1.16 -0.843,-1.878 -0.295,-1.204 -0.515,-3.023 0.194,-4.138 0.154,-0.241 0.389,-0.427 0.592,-0.623 0.319,-0.308 0.567,-0.74 0.9,-1.021 0.567,-0.48 1.382,-0.835 2.077,-1.072 0.871,-0.297 1.591,-0.732 2.522,-0.852 1.283,-0.166 2.638,-0.147 3.824,0.367 1.197,0.518 2.163,1.335 3.25,2.045 1.029,0.671 1.751,1.739 2.607,2.614 1.146,1.174 2.421,2.472 3.159,3.942 0.301,0.601 0.684,1.221 0.891,1.862 0.216,0.666 0.236,1.426 0.344,2.114 0.413,2.63 0.999,5.104 0.006,7.689 -0.164,0.427 -0.363,0.854 -0.492,1.296 -0.209,0.713 -0.198,1.455 -0.387,2.173 -0.426,1.615 -1.694,2.776 -2.534,4.157 C 9.41,13.298 9.107,13.921 8.534,14.51 8.211,14.842 7.865,15.157 7.535,15.483 6.617,16.391 5.776,17.31 4.804,18.162 4.081,18.794 3.315,19.294 2.56,19.885 1.8,20.477 1.246,21.103 0.209,21.151 c -0.521,0.025 -0.866,0.002 -1.372,0.194 -0.414,0.157 -0.741,0.308 -1.191,0.376 -0.657,0.099 -1.245,0.205 -1.879,0.409 -0.777,0.249 -1.674,0.83 -2.469,0.916 -0.358,0.038 -0.685,-0.036 -1.042,0.025 -0.456,0.077 -0.829,0.161 -1.314,0.161 -1.505,0 -2.234,-0.71 -3.082,-1.882 -0.807,-1.116 -1.629,-2.154 -1.679,-3.612 -0.026,-0.704 -0.053,-1.536 -0.251,-2.205 -0.098,-0.328 -0.244,-0.437 -0.577,-0.471 -0.582,-0.058 -1.048,0.565 -1.517,0.846 -0.666,0.399 -1.058,0.627 -1.419,1.261 -0.668,1.176 -2.2,1.316 -2.714,2.701 -0.286,0.769 -0.545,1.471 -1.038,2.155 -0.955,1.326 -2.158,2.535 -2.74,4.081 -0.383,1.018 -0.791,1.915 -1.419,2.793 -0.596,0.836 -0.681,1.789 -1.225,2.644 -0.607,0.956 -1.502,1.957 -1.926,3.009 -0.249,0.618 -0.353,1.287 -0.659,1.879 -0.142,0.276 -0.313,0.447 -0.377,0.78 -0.039,0.209 0.012,0.479 -0.076,0.674 -0.108,0.236 -0.294,0.386 -0.395,0.633 -0.051,0.128 0.056,0.224 -0.03,0.372 -0.071,0.124 -0.267,0.168 -0.336,0.293 -0.112,0.204 0.018,0.391 -0.03,0.598 -0.044,0.19 -0.189,0.205 -0.232,0.396 -0.055,0.24 -0.03,0.494 -0.092,0.743 -0.193,0.78 -0.602,1.393 -0.78,2.152 -0.15,0.641 -0.644,1.124 -0.828,1.809 -0.167,0.626 -0.685,1.119 -0.999,1.68 -0.249,0.444 -0.675,0.787 -0.905,1.202 -0.302,0.543 -0.533,0.954 -0.989,1.431 -0.399,0.416 -0.602,0.809 -0.937,1.254 -0.446,0.591 -0.552,0.344 -0.936,-0.103 -0.4,-0.465 -0.827,-0.791 -1.017,-1.414 -0.205,-0.675 -0.238,-1.349 -0.507,-2.03 -0.482,-1.224 -0.987,-2.529 -1.376,-3.786 -0.202,-0.654 -0.44,-1.408 -0.465,-2.084 -0.034,-0.909 -0.002,-1.831 10e-4,-2.74 0.002,-1.053 0.406,-2.075 0.574,-3.121 0.244,-1.519 0.852,-3.048 1.564,-4.412 0.625,-1.195 1.509,-2.212 2.262,-3.318 0.443,-0.65 0.752,-1.366 1.134,-2.05 0.617,-1.107 1.379,-2.142 2.057,-3.212 0.484,-0.763 0.981,-1.411 1.605,-2.062 0.529,-0.494 0.994,-1.043 1.396,-1.645 0.3,-0.552 0.637,-1.08 1.011,-1.584 0.423,-0.499 0.923,-0.954 1.389,-1.408 0.834,-0.812 1.433,-1.636 2.117,-2.564 0.523,-0.709 1.174,-1.07 1.803,-1.653 0.842,-0.781 1.521,-1.754 2.302,-2.593 1.005,-1.079 2.103,-2.067 3.274,-2.958 1.317,-1.002 2.861,-1.785 4.313,-2.567 1.126,-0.606 2.041,-1.96 3.3,-2.28 0.53,-0.135 0.905,-0.192 1.399,-0.446 0.71,-0.363 1.411,-0.411 2.178,-0.57 0.76,-0.158 1.532,-0.579 2.281,-0.841 C -3.352,-1.448 -2.144,-1.223 0,0"
               style="fill:#231f20;fill-opacity:1;fill-rule:nonzero;stroke:none"
               id="path2815" />
          </g>
        </g>
        <g
           id="g2817"
           transform="matrix(0.1580564,0,0,-0.1302397,171.03365,623.35437)">
          <g
             id="g2819"
             transform="translate(51.6553,-49.0575)">
            <path
               d="M 0,0 C -0.175,-0.819 -0.516,-1.668 -0.807,-2.455 -1.212,-3.554 -1.84,-4.46 -2.34,-5.5 c -0.438,-0.911 -1.064,-1.57 -1.685,-2.362 -0.895,-1.141 -1.713,-2.314 -2.813,-3.284 -1.021,-0.901 -2.311,-1.653 -3.582,-2.144 -0.919,-0.354 -2.047,-0.429 -3.014,-0.596 -0.773,-0.134 -1.684,-0.278 -2.599,-0.334 0.001,4.303 -0.762,8.494 -3.468,12.223 -0.128,0.177 -0.261,0.342 -0.399,0.497 -0.352,0.834 -0.7,1.646 -1.331,2.391 -0.744,0.875 -1.498,1.803 -2.332,2.59 -0.532,0.502 -1.123,0.932 -1.64,1.449 -0.457,0.458 -0.829,0.983 -1.271,1.455 -1.536,1.647 -3.322,3.039 -5.132,4.356 -0.597,0.435 -1.103,1.048 -1.77,1.371 -0.53,0.257 -1.091,0.31 -1.656,0.432 -1.107,0.241 -2.183,0.716 -3.316,0.738 -0.862,0.016 -1.745,0.073 -2.552,-0.163 -0.697,-0.204 -1.566,-0.128 -2.12,-0.6 0.025,0.245 -0.041,0.516 0,0.753 0.071,0.404 0.418,0.821 0.636,1.156 0.534,0.82 1.399,1.144 2.112,1.78 0.531,0.473 1.516,1.261 1.655,1.968 0.236,1.2 -0.221,2.544 -0.457,3.699 -0.347,1.687 -1.41,3.335 -2.455,4.667 -1.206,1.539 -2.548,3.134 -4.075,4.358 -0.807,0.646 -1.567,1.339 -2.35,2.01 -0.894,0.766 -2.069,0.894 -2.977,1.606 -0.59,0.463 -0.93,0.962 -1.636,1.273 -0.362,0.159 -0.755,0.233 -1.117,0.392 -0.517,0.225 -0.846,0.525 -1.266,0.876 -0.491,0.408 -1.139,0.44 -1.675,0.814 -0.279,0.195 -0.535,0.444 -0.815,0.63 -0.69,0.457 -1.945,0.144 -2.471,0.777 -0.297,0.358 0.012,0.355 -0.567,0.374 -0.342,0.011 -0.69,0.002 -1.032,-0.002 -0.315,-0.002 -0.485,0.035 -0.751,0.105 -0.283,0.075 -0.524,0.068 -0.842,0.099 -0.428,0.043 -0.303,0.15 -0.615,0.326 -0.225,0.126 -0.518,0.156 -0.751,0.28 -0.464,0.247 -0.595,0.757 -1.26,0.976 -0.521,0.17 -1.007,0.154 -1.521,0.413 -0.297,0.148 -0.594,0.277 -0.877,0.412 -0.089,0.042 -0.105,0.178 -0.203,0.223 -0.214,0.098 -0.395,0.093 -0.629,0.104 -0.651,0.031 -1.347,0.022 -1.999,-0.006 -0.485,-0.02 -0.422,-0.027 -0.669,-0.427 -0.174,-0.28 -0.416,-0.6 -0.656,-0.827 -0.604,-0.57 -1.276,-0.756 -1.715,-1.527 -0.411,-0.722 -0.748,-1.239 -1.368,-1.849 -0.535,-0.525 -1.226,-1.088 -1.347,-1.865 -0.119,-0.764 -0.424,-1.245 -0.792,-1.942 -0.347,-0.656 -0.385,-1.368 -0.507,-2.082 -0.059,-0.352 -0.198,-0.788 -0.277,-1.198 -0.356,0.029 -0.407,0.375 -0.729,0.628 -0.729,0.574 -2.242,0.153 -2.835,1.026 -0.198,0.293 -0.133,0.738 -0.3,1.064 -0.213,0.414 -0.547,0.583 -0.846,0.892 -0.579,0.6 -0.534,1.631 -0.92,2.36 -0.319,0.601 -0.709,1.132 -0.953,1.769 -0.328,0.855 -0.478,1.755 -0.839,2.606 -0.261,0.613 -0.285,1.345 -0.393,2.006 -0.085,0.513 -0.08,1.206 0.028,1.715 0.389,1.835 0.514,3.835 1.215,5.603 0.194,0.491 0.19,0.964 0.302,1.476 0.08,0.366 0.247,0.699 0.315,1.065 0.066,0.348 0.036,1.02 0.416,1.221 0.339,0.181 0.948,-0.099 1.281,-0.152 0.852,-0.139 1.636,-0.123 2.478,-0.357 1.071,-0.296 2.098,-0.529 3.219,-0.542 2.035,-0.021 3.978,-0.419 5.994,-0.594 0.932,-0.081 1.864,-0.105 2.787,-0.279 0.854,-0.161 1.643,-0.368 2.521,-0.383 1.067,-0.017 2.116,-0.121 3.182,-0.181 1.049,-0.059 2.101,0.074 3.137,-0.132 0.942,-0.187 1.809,-0.465 2.778,-0.514 1,-0.049 1.945,-0.337 2.931,-0.505 1.102,-0.188 2.218,-0.213 3.322,-0.374 0.942,-0.137 1.726,-0.446 2.599,-0.805 1.196,-0.493 2.415,-0.428 3.54,-1.152 0.622,-0.399 1.146,-0.874 1.846,-1.157 0.707,-0.285 1.382,-0.664 2.087,-0.938 0.657,-0.254 1.166,-0.305 1.761,-0.744 0.655,-0.483 1.25,-1.007 1.954,-1.425 1.566,-0.931 3.075,-1.913 4.632,-2.858 2.705,-1.642 5.211,-3.599 7.918,-5.259 3.429,-2.103 6.838,-4.321 9.996,-6.816 1.739,-1.373 3.338,-2.978 4.947,-4.503 1.647,-1.559 3.009,-3.502 4.225,-5.409 0.647,-1.014 0.944,-2.155 1.452,-3.232 0.521,-1.105 1.074,-2.153 1.516,-3.301 0.54,-1.4 1.204,-2.746 1.445,-4.239 C -0.087,7.245 0.095,6 0.124,4.784 0.161,3.244 0.321,1.505 0,0"
               style="fill:#231f20;fill-opacity:1;fill-rule:nonzero;stroke:none"
               id="path2821" />
          </g>
        </g>
        <g
           id="g2823"
           transform="matrix(0.1580564,0,0,-0.1302397,171.03365,623.35437)">
          <g
             id="g2825"
             transform="translate(-35.7236,4.6173)">
            <path
               d="m 0,0 c -0.12,-0.758 -0.472,-1.472 -0.587,-2.253 -0.094,-0.639 -0.049,-1.248 -0.193,-1.887 -0.143,-0.635 -0.275,-1.179 -0.268,-1.834 0.018,-1.969 0.089,-3.968 0.011,-5.936 -0.043,-1.099 -0.878,-1.944 -1.737,-2.538 -0.555,-0.384 -1.061,-0.865 -1.632,-1.22 -0.574,-0.356 -1.267,-0.557 -1.874,-0.873 -2.201,-1.146 -5.335,-0.084 -6.748,1.873 -0.743,1.029 -1.212,2.138 -1.728,3.29 -0.567,1.266 -1.079,2.485 -1.145,3.858 -0.037,0.781 -0.271,1.478 -0.221,2.287 0.036,0.572 0.503,1.249 0.821,1.727 0.395,0.594 1.311,1.189 1.906,1.581 0.722,0.476 1.688,0.62 2.514,0.776 0.405,0.076 0.735,0.072 1.136,0.09 0.49,0.024 0.933,0.284 1.429,0.237 0.902,-0.087 1.433,-0.737 1.926,-1.394 0.505,-0.674 0.582,-1.276 0.721,-2.083 0.104,-0.605 0.017,-1.207 -0.192,-1.77 -0.182,-0.492 -0.333,-0.768 -0.835,-0.946 -0.71,-0.251 -1.381,-0.309 -1.633,-1.195 -0.328,-1.157 0.776,-1.012 1.58,-1.004 0.976,0.01 1.799,0.657 2.364,1.458 0.251,0.357 0.41,0.835 0.623,1.222 0.223,0.406 0.348,0.797 0.47,1.25 0.2,0.745 0.23,1.452 0,2.18 -0.229,0.723 -0.361,1.513 -0.89,2.057 -0.619,0.638 -1.222,1.115 -1.987,1.546 -0.515,0.29 -1.102,0.416 -1.628,0.541 -0.518,0.124 -1.087,0.243 -1.42,0.714 -0.584,0.826 -0.411,2.021 -0.411,3.05 0,0.746 -0.051,1.494 0.105,2.208 0.138,0.637 0.104,1.181 0.361,1.774 0.262,0.605 0.708,1.119 1.051,1.669 0.319,0.512 0.492,0.937 1.036,1.224 0.647,0.342 1.639,-1.009 2.01,-1.382 0.8,-0.805 1.448,-1.7 2.187,-2.558 C -2.188,6.938 -1.494,6.384 -0.623,5.81 -0.517,5.74 -0.34,5.525 -0.21,5.478 -0.005,5.402 0.176,5.486 0.372,5.401 0.511,5.341 1.061,5.01 1.145,4.903 1.457,4.512 1.061,4.298 0.883,3.945 0.626,3.436 0.51,2.663 0.332,2.113 0.129,1.49 0.008,-0.645 0,0"
               style="fill:#231f20;fill-opacity:1;fill-rule:nonzero;stroke:none"
               id="path2827" />
          </g>
        </g>
        <g
           id="g2829"
           transform="matrix(0.1580564,0,0,-0.1302397,171.03365,623.35437)">
          <g
             id="g2831"
             transform="translate(-40.5371,18.8507)">
            <path
               d="m 0,0 c 0.778,-0.008 1.095,-0.037 1.67,-0.613 1.011,-1.011 1.962,-2.229 2.512,-3.537 0.278,-0.662 0.885,-0.957 1.37,-1.474 0.487,-0.517 0.943,-1.057 1.398,-1.603 0.5,-0.599 1.122,-0.925 1.795,-1.303 0.955,-0.535 1.748,-1.216 2.773,-1.632 0.78,-0.317 1.586,-0.584 2.358,-0.921 0.707,-0.309 1.109,-0.902 1.86,-1.044 0.982,-0.185 1.95,-0.155 2.928,-0.421 1.192,-0.324 2.315,-0.598 3.539,-0.791 0.973,-0.153 1.886,-0.668 2.873,-0.7 0.675,-0.023 1.354,0.051 2.029,0.025 0.803,-0.031 1.492,-0.398 2.282,-0.444 0.911,-0.053 1.785,0.217 2.691,0.229 1.585,0.022 3.205,0.09 4.757,-0.164 1.904,-0.31 3.678,-0.898 5.533,-1.392 1.092,-0.29 2.218,-0.143 3.3,-0.368 0.408,-0.085 0.544,-0.24 0.881,-0.394 0.545,-0.249 1.109,-0.186 1.685,-0.197 0.503,-0.009 0.906,0.067 1.361,-0.216 0.42,-0.261 0.83,-0.722 1.22,-1.001 0.821,-0.589 1.674,-1.135 2.498,-1.721 1.72,-1.224 3.829,-1.823 5.534,-3.09 0.855,-0.637 2.627,-2.157 3.752,-1.312 0.472,0.355 0.511,0.912 0.589,1.458 0.08,0.561 0.272,1.108 0.253,1.678 -0.022,0.677 -0.263,1.233 -0.69,1.742 -0.609,0.727 -1.142,1.505 -1.73,2.249 -0.533,0.677 -1.119,1.502 -1.782,2.061 -0.76,0.64 -1.551,1.203 -2.281,1.893 -1.572,1.489 -3.305,2.672 -5.153,3.793 -1.778,1.078 -3.671,1.843 -5.444,2.931 -0.863,0.529 -1.749,1.03 -2.639,1.516 -0.985,0.537 -2.093,0.769 -3.107,1.246 -0.37,0.175 -0.899,0.381 -1.245,0.633 -0.354,0.258 -0.578,0.622 -0.902,0.904 -0.601,0.519 -1.364,0.885 -2.002,1.357 -0.536,0.396 -1.185,0.642 -1.68,1.088 -0.619,0.56 -1.122,0.971 -1.857,1.359 -0.553,0.292 -1.121,0.648 -1.725,0.84 C 30.427,2.911 29.828,3.288 29.103,3.679 28.354,4.082 27.637,4.524 26.76,4.421 26.156,4.35 25.415,3.711 24.893,3.396 24.584,3.21 24.31,3.012 24.071,2.731 23.781,2.393 23.433,2.025 23.177,1.681 23.032,1.486 22.76,1.211 22.647,1.005 22.541,0.809 22.575,0.419 22.602,0.204 c 0.056,-0.453 0.247,-0.548 0.664,-0.827 0.52,-0.349 1.129,-0.527 1.642,-0.889 0.694,-0.489 1.428,-0.866 2.136,-1.332 0.591,-0.388 1.165,-0.779 1.777,-1.132 0.562,-0.324 1.167,-0.471 1.741,-0.752 1.109,-0.542 2.179,-1.191 3.294,-1.716 0.748,-0.352 0.916,-0.46 1.318,-1.254 0.143,-0.284 0.472,-0.781 0.387,-1.103 -0.267,-1.004 -2.811,-0.613 -3.521,-0.618 -0.914,-0.005 -1.784,0.077 -2.688,0.194 -0.77,0.099 -1.53,0.65 -2.147,1.108 -0.769,0.57 -1.427,1.115 -2.313,1.537 -0.79,0.376 -1.332,0.856 -2.072,1.311 -0.283,0.174 -0.586,0.237 -0.896,0.349 -0.498,0.182 -0.914,0.482 -1.396,0.693 -0.433,0.191 -0.743,0.196 -1.176,0.291 -0.649,0.145 -0.95,0.408 -1.386,0.842 -0.818,0.817 -1.774,0.794 -2.686,1.326 -0.372,0.218 -0.632,0.542 -1.052,0.69 -0.365,0.129 -0.769,0.141 -1.135,0.271 C 12.29,-0.52 11.638,0.089 10.837,0.418 10.059,0.737 9.188,1.029 8.465,1.454 8.115,1.659 7.861,1.969 7.515,2.178 7.153,2.396 6.763,2.495 6.431,2.767 5.825,3.262 5.174,3.626 4.475,3.979 3.538,4.451 2.413,5.056 1.576,4.164 1.373,3.948 0.883,3.485 0.695,3.183 0.432,2.758 0.442,2.217 0.363,1.735 0.167,0.544 -0.168,-0.803 0,0"
               style="fill:#231f20;fill-opacity:1;fill-rule:nonzero;stroke:none"
               id="path2833" />
          </g>
        </g>
        <g
           id="g2835"
           transform="matrix(0.1580564,0,0,-0.1302397,171.03365,623.35437)">
          <g
             id="g2837"
             transform="translate(-22.5361,18.6408)">
            <path
               d="m 0,0 c 0.486,-0.647 0.562,-0.419 0.828,0.237 0.415,1.025 0.805,2.107 1.296,3.099 0.384,0.775 0.881,1.48 1.241,2.274 0.348,0.765 0.615,1.527 1.041,2.251 0.904,1.535 1.801,3.287 2.922,4.679 1.056,1.312 2.433,2.364 3.555,3.623 1.416,1.588 2.83,3.228 4.345,4.722 1.189,1.175 2.349,2.387 3.421,3.672 0.52,0.623 1.01,1.728 1.81,2.046 -0.701,-0.015 -1.535,-0.315 -2.13,-0.641 C 17.603,25.565 17.02,24.951 16.324,24.505 15.792,24.164 15.255,23.829 14.715,23.501 12.411,22.103 10.272,20.541 8.048,19.037 7.211,18.471 6.375,17.874 5.651,17.169 4.846,16.386 3.963,15.703 3.175,14.902 2.542,14.258 1.898,13.642 1.229,13.037 0.65,12.515 0.323,11.861 -0.199,11.308 -1.28,10.158 -2.439,8.831 -3.097,7.379 -3.33,6.866 -3.333,6.406 -3.343,5.862 -3.353,5.343 -3.551,4.916 -3.558,4.396 -3.567,3.662 -3.756,2.734 -3.236,2.18 -2.737,1.647 -2.223,1.126 -1.71,0.613 -1.562,0.466 -1.465,0.25 -1.268,0.194 -1.073,0.139 -0.874,0.254 -0.664,0.174 -0.652,0.116 -0.64,0.059 0,0"
               style="fill:#231f20;fill-opacity:1;fill-rule:nonzero;stroke:none"
               id="path2839" />
          </g>
        </g>
        <g
           id="g2841"
           transform="matrix(0.1580564,0,0,-0.1302397,171.03365,623.35437)">
          <g
             id="g2843"
             transform="translate(-29.4443,22.6183)">
            <path
               d="m 0,0 c 0.091,-0.266 0.166,-0.535 0.226,-0.81 -0.129,0.768 0.243,1.579 0.524,2.269 0.467,1.15 0.979,2.313 1.595,3.393 1.354,2.368 2.533,4.845 3.94,7.18 0.754,1.252 1.845,2.412 2.789,3.531 1.123,1.329 2.231,2.659 3.384,3.963 0.827,0.937 1.784,1.713 2.66,2.599 0.952,0.962 1.903,1.957 2.994,2.766 -0.597,0.154 -1.32,-0.04 -1.903,-0.208 -1.783,-0.516 -3.633,-1.489 -5.21,-2.454 C 10.226,21.756 9.584,21.274 8.779,20.87 8.312,20.636 7.858,20.382 7.431,20.078 6.544,19.447 5.68,18.77 4.814,18.107 1.939,15.91 -0.456,13.237 -2.698,10.44 -3.527,9.408 -4.365,8.387 -5.2,7.367 -5.578,6.906 -5.437,6.394 -5.441,5.808 -5.445,5.105 -5.36,4.604 -5.174,3.931 -4.983,3.237 -5.096,2.472 -4.562,1.916 -4.117,1.453 -3.496,1.169 -3.027,0.732 -2.726,0.452 -2.477,0 -2.162,-0.217 -1.967,-0.351 -1.691,-0.364 -1.473,-0.46 -1.041,-0.649 -0.669,-0.885 0,0"
               style="fill:#231f20;fill-opacity:1;fill-rule:nonzero;stroke:none"
               id="path2845" />
          </g>
        </g>
        <g
           id="g2847"
           transform="matrix(0.1580564,0,0,-0.1302397,171.03365,623.35437)">
          <g
             id="g2849"
             transform="translate(0.7285,-28.6703)">
            <path
               d="M 0,0 C -0.093,0.016 -0.187,0.031 -0.279,0.046 -0.747,1.341 0.453,2.332 1.67,2.964 2.55,3.422 2.96,3.52 4.029,3.513 5.315,3.503 6.133,3.706 7.084,2.978 8.615,1.808 9.116,0.89 9.108,-0.811 9.105,-1.506 9.25,-2.286 9.133,-2.974 8.947,-4.065 7.997,-5.398 7.083,-6.229 5.999,-7.215 3.934,-8.716 2.278,-8.938 c -1.828,-0.245 -4.049,0.35 -5.659,1.027 -0.798,0.336 -1.365,0.903 -1.999,1.411 -0.687,0.55 -1.459,1.072 -2.048,1.694 -1.252,1.326 -1.898,2.797 -2.777,4.272 -0.367,0.617 -0.969,1.219 -1.196,1.879 -0.279,0.81 -0.06,1.835 -0.069,2.67 -0.013,1.429 0.438,2.561 1.256,3.816 0.627,0.96 1.196,1.883 2.043,2.723 0.967,0.96 2.202,1.492 3.533,2.087 0.689,0.308 1.337,0.368 2.112,0.334 0.67,-0.03 1.191,-0.257 1.85,-0.28 0.52,-0.018 1.187,-0.019 1.604,-0.31 C 1.176,12.212 2.099,11.3 2.064,11.076 2.021,10.79 0.814,10.621 0.43,10.473 -0.128,10.256 -0.916,10.11 -1.367,9.742 -1.907,9.3 -2.271,8.616 -2.772,8.122 -3.379,7.524 -3.703,6.894 -4.131,6.217 -4.919,4.973 -5.418,3.555 -5.396,2.156 -5.388,1.613 -5.613,0.767 -5.414,0.257 c 0.104,-0.266 0.288,-0.243 0.448,-0.452 0.126,-0.165 0.175,-0.393 0.311,-0.549 0.488,-0.561 1.521,-1.191 2.293,-1.497 0.268,-0.107 0.715,-0.312 1.037,-0.217 0.544,0.161 0.185,0.353 0.303,0.709 0.053,0.158 0.233,0.343 0.272,0.458 0.12,0.348 0.009,0.653 0.059,1.007 C -0.505,1.033 0.747,1.734 0,0"
               style="fill:#231f20;fill-opacity:1;fill-rule:nonzero;stroke:none"
               id="path2851" />
          </g>
        </g>
      </g>
    </g>
  </g>
</svg>
