<?xml version="1.0" encoding="UTF-8" standalone="no"?>
<!-- Created with Inkscape (http://www.inkscape.org/) -->

<svg
   width="23.493793"
   height="24"
   viewBox="0 0 6.2160662 6.35"
   version="1.1"
   id="svg6458"
   inkscape:version="1.2.1 (9c6d41e4, 2022-07-14)"
   sodipodi:docname="the-labyrinths-of-lunacy.svg"
   xmlns:inkscape="http://www.inkscape.org/namespaces/inkscape"
   xmlns:sodipodi="http://sodipodi.sourceforge.net/DTD/sodipodi-0.dtd"
   xmlns="http://www.w3.org/2000/svg"
   xmlns:svg="http://www.w3.org/2000/svg">
  <sodipodi:namedview
     id="namedview6460"
     pagecolor="#505050"
     bordercolor="#eeeeee"
     borderopacity="1"
     inkscape:showpageshadow="0"
     inkscape:pageopacity="0"
     inkscape:pagecheckerboard="0"
     inkscape:deskcolor="#505050"
     inkscape:document-units="mm"
     showgrid="false"
     inkscape:zoom="0.7046647"
     inkscape:cx="97.918911"
     inkscape:cy="189.45181"
     inkscape:window-width="1390"
     inkscape:window-height="941"
     inkscape:window-x="0"
     inkscape:window-y="25"
     inkscape:window-maximized="0"
     inkscape:current-layer="layer1" />
  <defs
     id="defs6455">
    <clipPath
       clipPathUnits="userSpaceOnUse"
       id="clipPath2039">
      <path
         d="M 56.886,70.35 H 92.7 v 35.813 H 56.886 Z"
         id="path2037" />
    </clipPath>
  </defs>
  <g
     inkscape:label="Layer 1"
     inkscape:groupmode="layer"
     id="layer1"
     transform="translate(-79.120791,-98.578482)">
    <g
       id="g2033"
       transform="matrix(0.19556599,0,0,-0.19556599,67.555086,118.99173)">
      <g
         id="g2035"
         clip-path="url(#clipPath2039)">
        <g
           id="g2041"
           transform="translate(71.1964,92.0371)">
          <path
             d="m 0,0 c -0.128,-0.554 -0.142,-1.139 -0.063,-1.702 0.019,-0.14 0.022,-0.202 0.021,-0.249 -0.003,-0.47 -0.23,-0.32 -0.528,-0.398 -0.116,-0.03 -0.202,-0.128 -0.304,-0.187 C -0.983,-2.6 -1.104,-2.642 -1.215,-2.701 -1.33,-2.762 -1.42,-2.862 -1.534,-2.926 -1.723,-3.033 -1.905,-3.065 -2.065,-3.224 -2.198,-3.357 -2.251,-3.374 -2.41,-3.453 -2.606,-3.55 -2.75,-3.725 -2.95,-3.821 -3.149,-3.917 -3.343,-3.988 -3.534,-4.1 -3.655,-4.172 -3.771,-4.24 -3.901,-4.29 -4.284,-4.435 -4.669,-4.647 -4.986,-4.912 -5.259,-5.141 -5.487,-5.455 -5.789,-5.65 c -0.259,-0.167 -0.546,-0.289 -0.839,-0.365 -0.3,-0.078 -0.61,-0.151 -0.88,-0.31 -0.228,-0.134 -0.392,-0.363 -0.612,-0.516 -0.064,-0.043 -0.123,-0.087 -0.177,-0.131 -0.18,-0.097 -0.338,-0.197 -0.481,-0.295 0,0.132 0.01,0.315 0.018,0.461 l 0.008,0.15 c 0.022,0.451 -0.01,0.837 -0.042,1.162 -10e-4,0.035 0,0.086 -10e-4,0.136 -10e-4,0.267 -0.033,0.575 -0.11,0.831 -0.055,0.181 -0.04,0.361 -0.09,0.545 -0.056,0.205 -0.115,0.403 -0.178,0.608 -0.095,0.312 -0.105,0.636 -0.162,0.956 -0.026,0.148 -0.083,0.29 -0.093,0.441 -0.012,0.173 0.024,0.312 0.049,0.477 0.048,0.321 0.043,0.652 0.085,0.976 0.073,0.553 0.171,1.118 0.281,1.665 0.032,0.158 0.088,0.298 0.168,0.438 0.045,0.08 0.094,0.158 0.14,0.238 0.065,0.114 0.123,0.227 0.215,0.323 0.174,0.181 0.261,0.287 0.323,0.54 0.062,0.256 0.222,0.474 0.317,0.717 0.084,0.212 0.142,0.436 0.276,0.625 0.085,0.12 0.198,0.207 0.31,0.301 0.356,0.297 0.646,0.643 1.044,0.896 0.239,0.152 0.473,0.301 0.715,0.445 0.268,0.16 0.54,0.341 0.768,0.555 0.173,0.163 0.331,0.332 0.515,0.482 0.161,0.132 0.268,0.342 0.443,0.447 0.219,0.131 0.426,0.206 0.63,0.373 0.101,0.083 0.204,0.166 0.315,0.235 0.116,0.071 0.24,0.062 0.36,0.114 0.19,0.082 0.386,0.094 0.589,0.15 0.166,0.046 0.279,0.078 0.424,0.166 0.096,0.059 0.168,0.021 0.258,0.06 0.15,0.065 0.202,0.235 0.371,0.279 0.187,0.048 0.31,0.106 0.478,0.213 0.008,-0.303 0.029,-0.624 0.066,-0.971 0.028,-0.272 0.07,-0.503 0.07,-0.777 0,-0.234 0,-0.469 0.002,-0.703 C -0.213,5.835 -0.279,5.394 -0.277,4.942 -0.276,4.77 -0.287,4.595 -0.28,4.423 -0.274,4.282 -0.225,4.154 -0.216,4.015 -0.197,3.731 -0.141,3.472 -0.097,3.193 -0.024,2.73 -0.062,2.277 -0.042,1.808 -0.028,1.457 0.087,1.127 0.081,0.773 0.077,0.51 0.059,0.257 0,0 m 2.925,-2.864 c -0.04,0.3 -0.015,0.613 -0.013,0.915 0.002,0.234 -0.018,0.448 -0.049,0.677 -0.052,0.369 0.025,0.713 0.053,1.078 C 2.933,0.04 2.903,0.284 2.866,0.514 2.797,0.938 2.789,1.357 2.724,1.782 2.684,2.05 2.673,2.308 2.65,2.578 2.621,2.928 2.524,3.274 2.53,3.627 2.54,4.167 2.717,4.676 2.729,5.213 2.735,5.479 2.724,5.748 2.724,6.014 2.725,6.283 2.689,6.58 2.735,6.846 2.749,6.929 2.774,6.996 2.772,7.082 2.767,7.393 2.684,7.715 2.651,8.024 2.619,8.328 2.598,8.632 2.599,8.937 2.601,9.536 2.596,10.131 2.644,10.728 2.68,11.173 2.759,11.613 2.783,12.058 2.505,12.046 2.227,12.039 1.949,12.035 1.63,12.031 1.319,12.09 1.001,12.092 c -0.117,0 -0.244,0.019 -0.36,0.013 C 0.424,12.093 0.209,12.022 0,11.968 -0.285,11.893 -0.557,11.785 -0.849,11.738 -1.029,11.709 -1.205,11.686 -1.363,11.587 -2.044,11.161 -2.717,10.725 -3.384,10.275 -3.743,10.033 -4.099,9.785 -4.455,9.539 -4.657,9.399 -4.865,9.274 -5.083,9.161 -5.346,9.025 -5.587,8.861 -5.838,8.704 -6.579,8.239 -7.351,7.776 -8.02,7.209 -8.273,6.995 -8.537,6.805 -8.776,6.575 -9.108,6.254 -9.439,5.932 -9.767,5.607 c -0.788,-0.78 -1.388,-1.713 -1.675,-2.79 -0.223,-0.838 -0.393,-1.71 -0.465,-2.574 -0.029,-0.337 -0.033,-0.675 -0.062,-1.011 -0.036,-0.412 -0.102,-0.825 -0.085,-1.239 0.013,-0.31 0.026,-0.613 0.078,-0.92 0.056,-0.332 0.038,-0.663 0.06,-0.998 0.025,-0.388 0.153,-0.756 0.17,-1.145 0.009,-0.223 -0.002,-0.443 0.019,-0.666 0.024,-0.239 0.043,-0.471 0.031,-0.712 -0.023,-0.47 -0.06,-0.932 0.02,-1.4 0.061,-0.36 0.182,-0.71 0.282,-1.062 0.106,-0.369 0.255,-0.702 0.432,-1.042 0.234,-0.452 0.468,-0.908 0.73,-1.345 0.031,-0.051 0.065,-0.1 0.097,-0.15 0.195,0.113 0.396,0.215 0.607,0.297 0.285,0.11 0.535,0.334 0.791,0.499 0.189,0.122 0.381,0.24 0.575,0.353 0.152,0.089 0.273,0.102 0.434,0.149 0.173,0.051 0.312,0.214 0.453,0.321 0.153,0.115 0.308,0.23 0.48,0.317 0.087,0.044 0.185,0.071 0.261,0.132 0.061,0.05 0.091,0.112 0.159,0.153 0.127,0.078 0.204,0.169 0.328,0.254 0.171,0.117 0.364,0.192 0.536,0.306 0.061,0.04 0.137,0.052 0.199,0.092 0.105,0.067 0.18,0.178 0.277,0.255 0.246,0.194 0.523,0.375 0.784,0.548 0.397,0.261 0.813,0.49 1.21,0.752 0.761,0.502 1.643,0.791 2.444,1.222 0.683,0.367 1.416,0.659 2.084,1.053 0.498,0.294 1.018,0.527 1.52,0.81 0.002,0.356 -0.036,0.72 -0.082,1.07"
             style="fill:#231f20;fill-opacity:1;fill-rule:nonzero;stroke:none"
             id="path2043" />
        </g>
        <g
           id="g2045"
           transform="translate(89.1418,85.9577)">
          <path
             d="m 0,0 c -0.067,-0.28 -0.005,-0.578 -0.078,-0.853 -0.06,-0.226 -0.177,-0.433 -0.237,-0.663 -0.146,-0.556 -0.315,-1.108 -0.535,-1.639 -0.155,0.092 -0.309,0.181 -0.461,0.27 0,0 -0.176,0.101 -0.177,0.102 -0.414,0.24 -0.92,0.4 -1.304,0.692 -0.258,0.197 -0.521,0.359 -0.794,0.535 -0.383,0.247 -0.759,0.596 -1.186,0.763 -0.298,0.117 -0.573,0.208 -0.862,0.341 -0.1,0.046 -0.108,0.069 -0.191,0.138 -0.13,0.107 -0.242,0.136 -0.406,0.201 -0.248,0.097 -0.472,0.254 -0.733,0.32 -0.093,0.023 -0.19,0.034 -0.282,0.065 -0.299,0.102 -0.538,0.317 -0.849,0.403 -0.106,0.03 -0.262,0.045 -0.352,0.099 -0.062,0.038 -0.113,0.1 -0.18,0.14 -0.1,0.059 -0.203,0.101 -0.299,0.155 -0.148,0.084 -0.21,0.214 -0.317,0.334 -0.078,0.089 -0.165,0.112 -0.27,0.154 -0.326,0.132 -0.598,0.375 -0.929,0.507 -0.165,0.067 -0.284,0.124 -0.398,0.19 -0.058,0.034 -0.116,0.07 -0.175,0.106 -0.213,0.131 -0.479,0.294 -0.791,0.422 -0.028,0.012 -0.056,0.024 -0.085,0.036 0.015,0.289 0.029,0.587 0.026,0.903 -0.004,0.417 0.086,0.823 -0.094,1.213 -0.198,0.431 -0.124,0.865 -0.182,1.323 -0.06,0.477 -0.139,0.935 -0.032,1.407 0.028,0.121 0.08,0.234 0.111,0.351 0.061,0.235 0.014,0.522 0.014,0.762 0,0.456 -0.062,0.961 0.034,1.41 0.027,0.129 0.079,0.251 0.104,0.381 0.071,0.364 -0.016,0.748 -0.016,1.113 0,0.144 -0.002,0.289 -0.005,0.435 -0.005,0.319 -0.01,0.621 0.014,0.888 0.069,0.796 0.085,1.6 0.046,2.392 -0.005,0.121 -0.018,0.245 -0.031,0.371 -0.008,0.086 -0.022,0.218 -0.02,0.262 0.048,0.297 0.065,0.59 0.064,0.875 0.11,0 0.221,0.007 0.332,0.016 0.036,0.002 0.072,0.006 0.108,0.007 0.125,-0.008 0.28,-0.032 0.38,-0.062 0.041,-0.013 0.158,-0.077 0.244,-0.124 0.139,-0.076 0.296,-0.162 0.482,-0.241 0.386,-0.165 0.735,-0.41 1.093,-0.627 0.114,-0.07 0.218,-0.145 0.316,-0.236 0.314,-0.287 0.56,-0.601 0.955,-0.788 0.103,-0.049 0.196,-0.096 0.288,-0.163 0.153,-0.111 0.287,-0.112 0.444,-0.195 0.177,-0.094 0.29,-0.173 0.485,-0.223 0.12,-0.03 0.263,-0.054 0.379,-0.095 0.207,-0.073 0.355,-0.341 0.52,-0.488 0.311,-0.278 0.667,-0.481 0.843,-0.873 0.179,-0.397 0.492,-0.705 0.752,-1.049 0.312,-0.414 0.56,-0.898 0.761,-1.317 0.123,-0.255 0.254,-0.484 0.38,-0.705 C -3.034,9.634 -2.973,9.527 -2.915,9.419 -2.774,9.159 -2.632,8.903 -2.483,8.65 -2.307,8.352 -2.126,8.057 -1.942,7.764 -1.859,7.632 -1.707,7.472 -1.671,7.315 -1.652,7.237 -1.672,7.161 -1.664,7.081 -1.638,6.846 -1.48,6.636 -1.38,6.428 -1.232,6.12 -1.056,5.827 -0.918,5.514 -0.767,5.175 -0.637,4.836 -0.546,4.475 -0.459,4.13 -0.363,3.812 -0.233,3.48 -0.095,3.127 -0.095,2.729 -0.054,2.357 -0.019,2.05 -0.089,1.73 -0.05,1.424 -0.034,1.302 0.012,1.207 0.014,1.081 c 0.003,-0.132 0,-0.266 0,-0.399 C 0.014,0.465 0.051,0.21 0,0 M 1.594,3.461 C 1.489,3.899 1.385,4.314 1.236,4.741 1.04,5.306 0.764,5.81 0.477,6.331 -0.08,7.34 -0.737,8.288 -1.321,9.281 c -0.14,0.239 -0.273,0.479 -0.405,0.723 -0.173,0.32 -0.371,0.636 -0.529,0.964 -0.263,0.548 -0.548,1.082 -0.916,1.57 -0.356,0.471 -0.75,0.935 -1.154,1.364 -0.488,0.518 -1.009,0.94 -1.579,1.362 -0.931,0.689 -1.922,1.284 -2.901,1.901 -0.344,0.217 -0.668,0.422 -1.043,0.582 -0.298,0.126 -0.576,0.331 -0.889,0.424 -0.228,0.068 -0.5,0.109 -0.738,0.122 -0.209,0.011 -0.423,-0.038 -0.633,-0.014 -0.233,0.025 -0.462,0.093 -0.694,0.119 -0.261,0.03 -0.526,0.03 -0.789,0.014 0.002,-0.107 0.007,-0.213 0.018,-0.322 0.065,-0.656 0.154,-1.32 0.051,-1.971 -0.047,-0.298 0.022,-0.62 0.037,-0.92 0.035,-0.725 0.02,-1.467 -0.043,-2.189 -0.042,-0.481 -0.015,-0.972 -0.014,-1.455 0,-0.434 0.05,-0.856 0.06,-1.287 0.005,-0.224 0.061,-0.442 0.067,-0.667 0.004,-0.2 -0.018,-0.397 0.011,-0.597 0.045,-0.318 0.034,-0.61 0.047,-0.93 0.005,-0.118 0.044,-0.177 0.067,-0.29 0.02,-0.098 -0.003,-0.222 -0.004,-0.325 -10e-4,-0.535 -0.042,-1.05 -0.058,-1.583 -0.024,-0.762 -0.137,-1.531 -0.13,-2.293 0.006,-0.596 -0.06,-1.178 -0.06,-1.773 0,-0.008 0,-0.016 0,-0.024 0.326,-0.203 0.691,-0.363 1.044,-0.508 0.274,-0.113 0.526,-0.287 0.78,-0.436 0.197,-0.115 0.387,-0.203 0.596,-0.287 0.338,-0.135 0.591,-0.369 0.885,-0.571 0.212,-0.147 0.476,-0.286 0.735,-0.327 0.103,-0.016 0.212,-0.003 0.312,-0.039 0.119,-0.043 0.215,-0.169 0.313,-0.243 0.256,-0.195 0.533,-0.403 0.823,-0.542 0.403,-0.193 0.72,-0.543 1.101,-0.776 0.181,-0.11 0.343,-0.227 0.529,-0.328 0.183,-0.099 0.392,-0.157 0.592,-0.218 0.116,-0.034 0.236,-0.056 0.35,-0.098 0.137,-0.05 0.254,-0.128 0.394,-0.167 0.19,-0.053 0.345,-0.058 0.476,-0.213 0.119,-0.141 0.272,-0.208 0.414,-0.328 0.063,-0.053 0.107,-0.106 0.181,-0.147 0.265,-0.147 0.579,-0.232 0.856,-0.355 0.273,-0.12 0.541,-0.251 0.798,-0.4 0.505,-0.294 1.01,-0.58 1.491,-0.913 0.155,-0.107 0.305,-0.222 0.454,-0.336 0.207,0.361 0.419,0.719 0.599,1.095 0.396,0.826 0.664,1.694 0.886,2.581 0.191,0.761 0.414,1.515 0.562,2.286 C 1.718,0.979 1.796,1.444 1.781,1.917 1.764,2.449 1.718,2.941 1.594,3.461"
             style="fill:#231f20;fill-opacity:1;fill-rule:nonzero;stroke:none"
             id="path2047" />
        </g>
        <g
           id="g2049"
           transform="translate(79.6234,98.7842)">
          <path
             d="m 0,0 c 0.005,-0.329 0.017,-0.578 0.074,-0.886 0.025,-0.132 0.008,-0.272 0.007,-0.405 0,-0.222 -0.001,-0.444 0.001,-0.667 0.001,-0.176 -0.036,-0.32 -0.07,-0.492 -0.039,-0.197 -0.049,-0.378 -0.051,-0.578 -0.002,-0.133 0.021,-0.273 0.04,-0.403 0.009,-0.058 -0.014,-0.056 0.038,-0.082 0.018,-0.009 0.155,0 0.165,10e-4 0.105,0.01 0.149,0.082 0.241,0.074 0.072,-0.006 0.053,-0.061 0.125,0.005 0.045,0.042 0.031,0.067 0.039,0.118 0.042,0.25 -0.097,0.512 -0.035,0.767 0.055,0.229 0.144,0.424 0.105,0.668 -0.034,0.218 -0.076,0.433 -0.074,0.656 0.002,0.208 0.037,0.408 0.043,0.614 0.005,0.175 -0.006,0.35 -0.003,0.525 C 0.647,0.01 0.655,0.027 0.565,0.061 0.431,0.113 0.23,0.081 0,0"
             style="fill:#231f20;fill-opacity:1;fill-rule:nonzero;stroke:none"
             id="path2051" />
        </g>
        <g
           id="g2053"
           transform="translate(80.3991,98.829)">
          <path
             d="M 0,0 C -0.11,0.121 -0.316,0.104 -0.448,0.135 -0.509,0.15 -0.572,0.163 -0.632,0.19 -0.734,0.235 -0.819,0.327 -0.921,0.368 -0.999,0.4 -0.993,0.383 -1.005,0.308 -1.016,0.242 -1.008,0.168 -1.021,0.103 -1.037,0.021 -1.113,0.006 -1.15,-0.064 c -0.022,-0.041 -0.021,-0.081 -0.052,-0.123 0.041,-0.018 0.082,-0.034 0.125,-0.06 0.105,-0.064 0.181,-0.096 0.296,-0.129 0.134,-0.038 0.265,-0.076 0.386,-0.162 0.029,-0.02 0.046,-0.053 0.074,-0.072 0.018,-0.012 0.04,-0.006 0.053,-0.014 0.04,-0.026 0.088,-0.046 0.122,-0.069 0.072,-0.051 0.114,-0.084 0.199,-0.114 0.085,-0.029 0.156,-0.022 0.241,-0.041 0.054,-0.012 0.135,-0.07 0.164,-0.007 0.022,0.048 -0.056,0.119 -0.08,0.161 -0.055,0.097 -0.047,0.167 0.013,0.233 0.03,0.032 0.063,0.061 0.101,0.085 0.021,0.013 0.104,0.034 0.111,0.06 0.039,0.142 -0.29,0.156 -0.359,0.19 -0.067,0.033 -0.267,0.221 -0.319,0.108"
             style="fill:#231f20;fill-opacity:1;fill-rule:nonzero;stroke:none"
             id="path2055" />
        </g>
        <g
           id="g2057"
           transform="translate(78.5349,97.5327)">
          <path
             d="m 0,0 c 0.014,0.009 0.028,0.018 0.043,0.027 0.115,-0.048 0.15,-0.364 0.16,-0.472 0.022,-0.226 0.085,-0.388 0.248,-0.553 0.142,-0.145 0.36,-0.296 0.558,-0.345 0.161,-0.039 0.322,-0.027 0.487,-0.028 0.172,-0.001 0.362,0.018 0.523,0.081 0.121,0.048 0.252,0.053 0.363,0.13 0.05,0.034 0.056,0.073 0.09,0.115 0.029,0.035 0.072,0.051 0.101,0.086 0.036,0.045 0.079,0.182 0.121,0.19 C 2.703,-0.868 2.8,-0.977 2.845,-1.066 2.88,-1.134 3.048,-1.331 2.949,-1.373 2.906,-1.391 2.832,-1.359 2.785,-1.368 2.74,-1.377 2.704,-1.399 2.664,-1.42 2.597,-1.455 2.53,-1.47 2.462,-1.499 2.396,-1.528 2.361,-1.571 2.302,-1.604 2.175,-1.678 2.036,-1.676 1.899,-1.691 1.81,-1.701 1.734,-1.732 1.643,-1.735 1.592,-1.736 1.54,-1.734 1.488,-1.734 c -0.152,0 -0.304,0 -0.456,0 -0.201,0 -0.329,0.011 -0.518,0.082 -0.063,0.023 -0.13,0.023 -0.19,0.045 -0.065,0.024 -0.121,0.083 -0.183,0.116 -0.096,0.05 -0.159,0.095 -0.202,0.199 -0.04,0.097 -0.026,0.199 -0.08,0.303 -0.052,0.101 -0.079,0.176 -0.099,0.283 -0.016,0.083 -0.033,0.187 -0.062,0.262 -0.027,0.07 -0.066,0.131 -0.081,0.202 -0.014,0.061 -0.036,0.038 0.017,0.081 0.031,0.025 0.106,0.034 0.144,0.041 C -0.12,-0.101 -0.026,-0.083 0,0"
             style="fill:#231f20;fill-opacity:1;fill-rule:nonzero;stroke:none"
             id="path2059" />
        </g>
        <g
           id="g2061"
           transform="translate(83.9106,79.3207)">
          <path
             d="m 0,0 c -0.032,-0.027 -0.068,-0.045 -0.101,-0.067 0.02,-0.007 0.037,-0.016 0.042,-0.034 0.017,-0.063 -0.14,-0.146 -0.173,-0.177 -0.064,-0.06 -0.123,-0.128 -0.19,-0.187 -0.049,-0.044 -0.076,-0.101 -0.123,-0.144 -0.033,-0.029 -0.067,-0.031 -0.102,-0.052 -0.034,-0.021 -0.056,-0.057 -0.085,-0.083 -0.068,-0.062 -0.153,-0.107 -0.216,-0.174 -0.071,-0.077 -0.128,-0.157 -0.218,-0.216 -0.072,-0.048 -0.129,-0.101 -0.189,-0.158 0.008,-0.009 0.013,-0.021 0.021,-0.03 0.073,-0.088 0.094,-0.164 0.14,-0.267 0.046,-0.105 0.108,-0.164 0.188,-0.238 0.068,-0.064 0.128,-0.124 0.093,-0.225 -0.04,-0.121 -0.232,-0.353 -0.366,-0.249 -0.018,0.014 -0.053,0.055 -0.069,0.073 -0.019,0.019 -0.031,0.038 -0.048,0.06 -0.026,0.034 -0.05,0.067 -0.075,0.105 -0.031,0.049 -0.07,0.073 -0.108,0.115 -0.071,0.082 -0.117,0.185 -0.173,0.279 -0.034,-0.027 -0.069,-0.053 -0.107,-0.076 -0.082,-0.049 -0.139,-0.108 -0.2,-0.178 -0.032,-0.039 -0.069,-0.122 -0.119,-0.129 -0.11,0.129 -0.244,0.207 -0.319,0.365 -0.031,0.064 -0.038,0.073 0.026,0.12 0.036,0.027 0.071,0.047 0.108,0.071 0.088,0.059 0.176,0.118 0.265,0.176 -0.035,0.031 -0.068,0.064 -0.099,0.101 -0.143,0.171 -0.303,0.316 -0.439,0.495 -0.129,0.169 -0.285,0.266 -0.433,0.415 -0.064,0.064 -0.127,0.129 -0.192,0.192 -0.075,0.071 -0.158,0.173 -0.243,0.232 -0.023,0.015 -0.121,0.067 -0.12,0.109 -0.009,0.009 -0.018,0.018 -0.028,0.024 -0.069,0.043 -0.131,0.008 -0.095,0.1 0.016,0.043 0.059,0.073 0.092,0.099 0.059,0.048 0.093,0.091 0.133,0.159 0.025,0.042 0.048,0.074 0.078,0.109 0.021,0.023 0.067,0.096 0.1,0.092 0.036,-0.005 0.06,-0.088 0.088,-0.112 0.039,-0.033 0.066,-0.054 0.1,-0.091 0.091,-0.099 0.176,-0.188 0.261,-0.294 0.03,-0.038 0.068,-0.078 0.104,-0.116 0.027,-0.028 0.063,-0.048 0.09,-0.076 0.002,-0.003 0.047,-0.064 0.045,-0.062 0.057,-0.025 0.096,0.031 0.13,0.05 0.029,0.017 0.063,0.015 0.091,0.034 0.035,0.024 0.055,0.09 0.085,0.121 0.03,0.031 0.071,0.045 0.099,0.077 0.025,0.028 0.041,0.062 0.066,0.091 0.047,0.054 0.1,0.106 0.14,0.168 0.003,-0.132 0.248,-0.243 0.346,-0.289 0.119,-0.056 0.147,-0.079 0.068,-0.194 -0.042,-0.06 -0.087,-0.129 -0.141,-0.179 -0.053,-0.048 -0.102,-0.069 -0.149,-0.123 -0.058,-0.066 -0.118,-0.104 -0.199,-0.133 -0.069,-0.025 -0.093,-0.062 -0.147,-0.113 0.052,-0.085 0.156,-0.103 0.241,-0.145 0.105,-0.052 0.17,-0.175 0.266,-0.244 0.052,-0.036 0.105,-0.073 0.151,-0.117 0.029,0.021 0.059,0.043 0.085,0.072 0.253,0.278 0.561,0.484 0.77,0.797 0.047,0.071 0.11,0.128 0.161,0.196 0.06,0.081 0.127,0.093 0.198,0.154 0.066,0.058 0.04,0.049 0.107,0.025 C -0.242,0.289 -0.192,0.275 -0.145,0.259 -0.05,0.226 0.005,0.08 0.096,0.073 0.051,0.073 0.03,0.026 0,0 m -6.506,-2.667 c -0.024,-0.114 -0.051,-0.213 -0.109,-0.316 -0.047,-0.084 -0.123,-0.152 -0.169,-0.235 -0.028,-0.051 -0.036,-0.108 -0.064,-0.16 -0.047,-0.088 -0.117,-0.167 -0.184,-0.239 -0.056,-0.061 -0.112,-0.096 -0.176,-0.142 -0.061,-0.043 -0.101,-0.103 -0.161,-0.152 -0.137,-0.112 -0.308,-0.254 -0.472,-0.322 -0.116,-0.047 -0.247,-0.033 -0.37,-0.043 -0.118,-0.01 -0.235,-0.019 -0.353,-0.029 -0.046,-0.004 -0.093,-0.001 -0.14,-0.002 -0.01,-0.151 -0.023,-0.302 -0.027,-0.455 -0.062,0.012 -0.096,0.016 -0.165,-0.001 -0.048,-0.011 -0.18,-0.064 -0.23,-0.055 -0.103,0.019 -0.083,0.279 -0.07,0.359 0.009,0.057 0.021,0.116 0.034,0.174 -0.058,0.008 -0.116,0.011 -0.173,0.022 -0.169,0.032 -0.292,0.06 -0.414,0.187 -0.113,0.117 -0.192,0.263 -0.286,0.396 -0.092,0.13 -0.147,0.264 -0.223,0.403 -0.059,0.109 -0.128,0.197 -0.157,0.319 -0.122,0.523 -0.152,1.052 0.041,1.563 0.065,0.173 0.222,0.311 0.347,0.439 0.072,0.074 0.126,0.087 0.209,0.138 0.051,0.032 0.082,0.084 0.14,0.106 0.018,0.031 0.077,0.096 0.14,0.115 0.08,0.025 0.132,0.037 0.204,0.087 0.104,0.072 0.203,0.125 0.294,0.006 0.088,-0.115 0.067,-0.3 0.116,-0.433 0.024,-0.066 0.072,-0.108 0.111,-0.166 0.058,-0.087 0.084,-0.19 0.134,-0.28 0.05,-0.088 0.122,-0.161 0.174,-0.249 0.051,-0.085 0.065,-0.16 0.089,-0.264 0.016,-0.07 0.057,-0.141 0.008,-0.19 -0.044,-0.043 -0.26,-0.055 -0.321,-0.069 -0.097,-0.023 -0.127,-0.055 -0.185,0.031 -0.073,0.107 -0.11,0.258 -0.162,0.377 -0.048,0.108 -0.076,0.198 -0.106,0.31 -0.023,0.089 -0.031,0.114 -0.128,0.105 -0.111,-0.01 -0.185,-0.09 -0.28,-0.138 -0.102,-0.053 -0.162,-0.037 -0.238,-0.13 -0.109,-0.133 -0.172,-0.256 -0.253,-0.408 -0.04,-0.074 -0.061,-0.096 -0.053,-0.174 0.005,-0.051 0.024,-0.105 0.036,-0.156 0.077,-0.341 0.101,-0.733 0.35,-0.992 0.192,-0.2 0.394,-0.357 0.663,-0.369 0.001,0.018 0.002,0.036 0.004,0.055 0.009,0.087 0.006,0.175 0.016,0.264 0.005,0.043 0.029,0.182 0.025,0.149 0.046,-0.001 0.094,-0.005 0.141,-0.009 0.048,-0.005 0.126,0.017 0.166,0.009 0.097,-0.018 0.006,-0.139 0.002,-0.21 -0.004,-0.072 0.005,-0.143 0.016,-0.214 0.133,0.025 0.271,0.057 0.384,0.107 0.092,0.04 0.189,0.082 0.276,0.133 0.064,0.039 0.136,0.095 0.207,0.126 0.045,0.02 0.106,0.019 0.147,0.038 0.118,0.057 0.199,0.194 0.324,0.243 0.065,0.025 0.08,0.002 0.12,0.062 0.045,0.068 0.038,0.15 0.053,0.225 0.023,0.113 0,0.232 0.036,0.34 0.013,0.037 0.042,0.046 0.046,0.089 0.004,0.052 -0.047,0.11 -0.042,0.161 0.009,0.084 0.164,0.152 0.233,0.175 0.054,0.018 0.072,0.045 0.113,0.063 0.043,0.018 0.096,0.013 0.137,0.032 0.052,0.026 0.063,0.104 0.118,0.032 0.019,-0.025 0.022,-0.11 0.029,-0.14 0.024,-0.112 0.057,-0.224 0.077,-0.336 0.02,-0.119 -0.024,-0.249 -0.049,-0.362 m -0.936,2.379 c 0.035,-0.038 0.054,-0.088 0.084,-0.128 0.041,-0.054 0.068,-0.055 0.087,-0.125 0.033,-0.12 -0.033,-0.214 -0.016,-0.329 -0.108,-0.057 -0.205,-0.03 -0.316,-0.034 -0.091,-0.004 -0.27,-0.119 -0.327,-0.038 -0.072,0.104 -0.073,0.625 0.114,0.609 l -0.193,0.064 C -8.016,-0.273 -8.024,-0.277 -8.03,-0.281 l -0.01,0.022 0.031,-0.01 c 0.132,0.081 0.459,0.101 0.567,-0.019 m -8.3,-0.163 c 0.048,-0.002 0.088,0.028 0.14,0.011 0.06,-0.02 0.028,-0.008 0.079,-0.053 0.115,-0.1 0.242,-0.395 0.036,-0.474 -0.1,-0.038 -0.253,-0.033 -0.358,-0.033 -0.093,0.001 -0.228,0.002 -0.252,0.126 -0.013,0.068 0.003,0.225 0.032,0.285 0.027,0.058 0.105,0.165 0.168,0.172 l -0.004,-0.056 c 0.051,0.014 0.095,0.024 0.159,0.022 m 2.227,-2.355 c -0.055,-0.052 -0.105,-0.138 -0.158,-0.178 -0.086,0.029 -0.155,0.134 -0.229,0.187 -0.089,0.064 -0.18,0.128 -0.266,0.197 -0.171,0.137 -0.343,0.261 -0.526,0.376 -0.064,-0.054 -0.13,-0.108 -0.198,-0.164 -0.223,-0.186 -0.452,-0.359 -0.684,-0.534 -0.108,-0.08 -0.207,-0.18 -0.309,-0.268 -0.045,-0.038 -0.082,-0.072 -0.117,-0.114 -0.036,-0.044 -0.087,-0.184 -0.169,-0.136 -0.03,0.018 -0.037,0.084 -0.06,0.114 -0.025,0.032 -0.087,0.086 -0.119,0.119 -0.093,0.095 -0.171,0.148 -0.105,0.229 0.094,0.026 0.154,0.092 0.23,0.149 0.091,0.069 0.173,0.154 0.267,0.219 -0.042,0.052 -0.088,0.102 -0.134,0.153 -0.123,0.138 -0.242,0.273 -0.368,0.407 -0.247,0.262 -0.449,0.555 -0.712,0.807 -0.049,0.047 -0.203,0.18 -0.225,0.291 -0.026,-0.036 -0.038,-0.001 -0.062,0.032 -0.042,0.057 -0.088,0.104 -0.128,0.156 -0.031,-0.002 -0.062,-0.005 -0.097,-0.004 -0.011,0.04 0.001,0.092 0.02,0.141 -0.023,0.045 -0.038,0.078 0.024,0.119 0.019,0.013 0.035,0.02 0.049,0.026 0.042,0.075 0.082,0.147 0.126,0.223 0.093,0.162 0.187,0.337 0.318,0.472 0.321,0.333 0.818,0.481 1.234,0.63 0.254,0.091 0.484,0.047 0.74,-0.004 0.289,-0.057 0.416,-0.353 0.569,-0.583 0.084,-0.126 0.2,-0.214 0.286,-0.338 0.061,-0.089 0.121,-0.18 0.182,-0.269 0.029,-0.043 0.095,-0.107 0.108,-0.155 0.031,-0.109 -0.045,-0.091 -0.132,-0.122 -0.084,-0.03 -0.142,-0.104 -0.225,-0.131 -0.024,0.127 -0.108,0.228 -0.186,0.342 -0.072,0.105 -0.136,0.233 -0.22,0.327 -0.176,0.195 -0.401,0.287 -0.649,0.362 -0.09,0.027 -0.231,0.062 -0.322,0.061 -0.036,0 -0.11,0.001 -0.143,-0.012 -0.034,-0.013 -0.058,-0.047 -0.091,-0.06 -0.03,-0.012 -0.051,0.006 -0.079,-0.003 -0.195,-0.065 -0.351,-0.175 -0.505,-0.312 -0.118,-0.105 -0.233,-0.19 -0.328,-0.317 -0.096,-0.128 -0.142,-0.277 -0.233,-0.409 0.003,-0.003 0.006,-0.005 0.01,-0.008 0.001,-0.001 0.002,-0.002 0.004,-0.003 0.182,-0.056 0.107,-0.031 0.017,-0.014 0.14,-0.118 0.296,-0.222 0.409,-0.363 0.288,-0.357 0.596,-0.701 0.996,-0.982 0.059,-0.041 0.121,-0.099 0.192,-0.126 0.012,-0.005 0.025,-0.006 0.039,-0.007 0.158,0.13 0.315,0.272 0.433,0.414 0.042,0.051 0.08,0.097 0.121,0.141 0.097,0.193 0.229,0.263 0.317,0.26 0.083,-0.004 0.129,-0.091 0.182,-0.162 0.096,-0.027 0.173,-0.051 0.255,-0.115 -10e-4,-10e-4 -0.002,-0.002 -0.002,-0.003 0.009,-0.002 0.019,-0.003 0.028,-0.006 0.079,-0.024 0.179,-0.045 0.257,-0.081 0.17,-0.08 0.346,-0.243 0.492,-0.36 0.069,-0.055 0.186,-0.121 0.226,-0.202 -0.111,-0.143 -0.217,-0.286 -0.35,-0.409 M 2.887,0.322 C 2.66,0.508 2.352,0.606 2.092,0.739 1.749,0.915 1.301,1.091 1.034,1.375 0.795,1.628 0.53,1.811 0.204,1.946 0.027,2.02 -0.165,2.065 -0.334,2.156 -0.487,2.239 -0.615,2.345 -0.788,2.394 -0.955,2.441 -1.07,2.507 -1.22,2.594 -1.391,2.695 -1.57,2.792 -1.754,2.868 -1.913,2.934 -2.033,3.04 -2.188,3.114 -2.622,3.322 -3.162,3.348 -3.5,3.717 -3.611,3.838 -3.704,3.966 -3.85,4.048 -3.954,4.107 -4.064,4.128 -4.176,4.162 -4.479,4.253 -4.76,4.474 -5.025,4.643 -5.301,4.818 -5.574,5 -5.853,5.172 -6.485,5.565 -7.078,6.037 -7.726,6.403 -8.232,6.689 -8.691,7.03 -9.193,7.32 -9.236,7.345 -9.278,7.366 -9.319,7.388 -9.564,7.231 -9.796,7.05 -10.056,6.932 c -0.117,-0.053 -0.21,-0.118 -0.315,-0.196 -0.136,-0.1 -0.24,-0.238 -0.37,-0.346 -0.185,-0.154 -0.409,-0.319 -0.614,-0.445 -0.214,-0.131 -0.455,-0.191 -0.68,-0.298 -0.903,-0.427 -1.694,-0.991 -2.502,-1.572 -0.29,-0.208 -0.622,-0.328 -0.913,-0.532 -0.267,-0.188 -0.525,-0.339 -0.807,-0.507 -0.247,-0.147 -0.493,-0.308 -0.725,-0.475 -0.532,-0.384 -1.083,-0.836 -1.732,-0.985 -0.287,-0.067 -0.481,-0.218 -0.709,-0.399 -0.295,-0.233 -0.611,-0.444 -0.937,-0.631 -0.508,-0.291 -1.01,-0.585 -1.537,-0.84 0.106,-0.192 0.213,-0.384 0.319,-0.577 0.495,-0.904 1.064,-1.773 1.741,-2.552 0.567,-0.652 1.262,-1.182 1.988,-1.644 0.402,-0.257 0.78,-0.554 1.199,-0.782 0.197,-0.108 0.409,-0.195 0.61,-0.295 0.312,-0.155 0.605,-0.348 0.923,-0.49 0.376,-0.167 0.825,-0.192 1.224,-0.286 0.461,-0.107 0.906,-0.253 1.374,-0.327 0.483,-0.077 0.945,-0.186 1.438,-0.159 0.456,0.024 0.901,0.077 1.358,0.027 0.47,-0.051 0.917,0.015 1.382,0.064 0.422,0.045 0.835,0.057 1.251,0.153 0.367,0.085 0.741,0.168 1.102,0.273 0.46,0.133 0.902,0.321 1.35,0.486 0.475,0.175 0.947,0.314 1.398,0.553 0.346,0.183 0.713,0.327 1.052,0.524 0.352,0.205 0.661,0.462 0.949,0.748 0.259,0.256 0.562,0.473 0.858,0.684 0.758,0.541 1.531,1.043 2.263,1.621 0.733,0.578 1.435,1.254 2.016,1.986 -0.358,0.17 -0.704,0.359 -1.011,0.609"
             style="fill:#231f20;fill-opacity:1;fill-rule:nonzero;stroke:none"
             id="path2063" />
        </g>
        <g
           id="g2065"
           transform="translate(84.7187,88.8599)">
          <path
             d="m 0,0 c 0.05,-0.075 0.153,-0.042 0.227,-0.033 0.148,0.018 0.299,0.048 0.449,0.039 0.226,-0.012 0.462,-0.064 0.668,-0.15 0.167,-0.07 0.309,-0.061 0.487,-0.06 0.071,0 0.184,0.021 0.248,-0.007 C 2.067,-0.274 2.003,-0.299 1.968,-0.349 1.916,-0.422 1.882,-0.513 1.83,-0.588 1.688,-0.792 1.53,-0.98 1.394,-1.19 1.327,-1.293 1.241,-1.389 1.183,-1.496 1.128,-1.595 1.085,-1.701 1.033,-1.801 0.945,-1.971 0.888,-2.163 0.754,-2.305 c 0.082,0.019 0.111,-0.076 0.153,-0.126 0.076,-0.09 0.183,-0.162 0.3,-0.203 0.143,-0.049 0.281,-0.05 0.429,-0.049 0.167,10e-4 0.353,-0.026 0.486,0.096 0.135,0.125 0.271,0.287 0.367,0.442 0.04,0.065 0.04,0.089 0.041,0.172 0.001,0.068 0.053,0.157 0.04,0.219 0.027,-0.034 0.05,-0.018 0.088,-0.027 0.046,-0.011 0.085,-0.027 0.131,-0.038 0.049,-0.012 0.102,0.01 0.149,-0.001 C 3.015,-1.839 2.998,-1.852 3,-1.928 3.01,-2.201 2.903,-2.484 2.782,-2.73 2.687,-2.921 2.602,-2.912 2.407,-2.956 2.172,-3.008 1.939,-3.046 1.701,-3.09 1.601,-3.109 1.504,-3.105 1.403,-3.115 1.292,-3.126 1.191,-3.169 1.082,-3.19 0.933,-3.218 0.789,-3.201 0.648,-3.159 0.557,-3.131 0.396,-3.097 0.324,-3.026 0.28,-2.983 0.236,-2.86 0.209,-2.799 c -0.025,0.056 -0.043,0.121 -0.057,0.182 -0.05,0.214 -0.203,0.546 -0.036,0.74 0.029,0.034 0.072,0.048 0.105,0.079 0.063,0.059 0.096,0.148 0.157,0.21 0.08,0.082 0.188,0.131 0.279,0.199 0.119,0.09 0.221,0.199 0.333,0.296 0.094,0.081 0.171,0.148 0.216,0.262 0.011,0.029 0.053,0.05 0.037,0.086 C 1.222,-0.7 1.136,-0.72 1.091,-0.721 0.743,-0.727 0.395,-0.723 0.047,-0.726 c -0.034,0 -0.139,-0.021 -0.165,0.006 -0.026,0.026 -0.007,0.127 -0.007,0.162 0,0.122 0.008,0.249 -0.005,0.37 C -0.121,-0.204 -0.105,-0.213 0,0"
             style="fill:#231f20;fill-opacity:1;fill-rule:nonzero;stroke:none"
             id="path2067" />
        </g>
        <g
           id="g2069"
           transform="translate(86.2659,89.4666)">
          <path
             d="m 0,0 c 0.002,-0.348 0.028,-0.702 0.007,-1.049 -0.019,-0.329 -0.13,-0.64 -0.125,-0.974 10e-4,-0.108 -0.054,-0.546 0.026,-0.61 0.04,-0.031 0.183,0.003 0.233,10e-4 0.103,-0.005 0.193,-0.097 0.295,-0.086 0.049,0.236 0.002,0.523 0.001,0.764 l -0.003,0.637 c -0.001,0.135 -0.001,0.269 -0.003,0.404 -0.002,0.119 0.035,0.208 0.044,0.323 0.013,0.175 -0.016,0.354 -0.002,0.53 -0.047,-0.064 -0.156,-0.024 -0.216,-0.007 -0.081,0.023 -0.179,0 -0.254,0.032 C -0.003,-0.007 0.01,0.005 0,0"
             style="fill:#231f20;fill-opacity:1;fill-rule:nonzero;stroke:none"
             id="path2071" />
        </g>
        <g
           id="g2073"
           transform="translate(63.5349,90.1029)">
          <path
             d="M 0,0 C 0.41,0.159 0.797,0.365 1.206,0.527 1.43,0.616 1.642,0.707 1.855,0.82 2.002,0.899 2.154,1.022 2.32,1.052 2.422,1.071 2.514,1.112 2.615,1.132 2.733,1.154 2.828,1.175 2.944,1.222 3.008,1.248 3.087,1.297 3.156,1.308 3.228,1.321 3.269,1.307 3.345,1.337 3.411,1.363 3.541,1.354 3.579,1.413 3.653,1.32 3.689,1.154 3.732,1.047 3.764,0.965 3.831,0.858 3.834,0.77 3.765,0.773 3.736,0.781 3.668,0.735 3.468,0.6 3.284,0.449 3.069,0.333 2.833,0.207 2.598,0.092 2.351,-0.009 2.159,-0.086 1.977,-0.114 1.777,-0.156 1.624,-0.188 1.489,-0.26 1.334,-0.29 1.201,-0.315 1.076,-0.337 0.942,-0.355 0.721,-0.386 0.525,-0.464 0.319,-0.549 0.237,-0.583 0.184,-0.569 0.102,-0.588 c -0.081,-0.02 -0.154,-0.077 -0.235,-0.098 -0.096,-0.025 -0.102,0.008 -0.175,0.077 -0.059,0.055 -0.141,0.097 -0.187,0.163 -0.119,0.172 0.034,0.214 0.169,0.269 0.125,0.051 0.226,0.131 0.345,0.185 C 0.089,0.04 0.163,0.065 0,0"
             style="fill:#231f20;fill-opacity:1;fill-rule:nonzero;stroke:none"
             id="path2075" />
        </g>
        <g
           id="g2077"
           transform="translate(67.1753,89.7986)">
          <path
             d="m 0,0 c -0.169,-0.068 -0.332,-0.121 -0.507,-0.168 -0.248,-0.065 -0.471,-0.204 -0.716,-0.274 -0.12,-0.033 -0.244,-0.013 -0.362,-0.053 -0.104,-0.035 -0.206,-0.085 -0.308,-0.126 -0.108,-0.044 -0.211,-0.083 -0.33,-0.059 -0.038,-0.091 0.106,-0.382 0.154,-0.465 0.046,-0.081 0.048,-0.044 0.13,-0.068 0.073,-0.021 0.129,-0.094 0.142,-0.166 0.016,0.103 0.19,0.191 0.277,0.232 0.241,0.115 0.501,0.164 0.711,0.34 0.171,0.143 0.425,0.202 0.634,0.286 0.108,0.043 0.221,0.108 0.334,0.135 0.029,0.006 0.115,-0.009 0.131,0 0.053,0.031 0.007,0.053 0.004,0.097 C 0.29,-0.191 0.283,0.01 0.191,0.069 0.134,0.106 -0.038,0.029 0,0"
             style="fill:#231f20;fill-opacity:1;fill-rule:nonzero;stroke:none"
             id="path2079" />
        </g>
        <g
           id="g2081"
           transform="translate(63.0918,91.0986)">
          <path
             d="m 0,0 c -0.003,0.008 -0.007,0.017 -0.01,0.025 0.026,-0.066 0.104,-0.372 0.16,-0.395 0.114,-0.046 0.291,0.168 0.354,0.223 0.113,0.099 0.224,0.194 0.375,0.221 0.087,0.015 0.175,0.011 0.262,0.03 C 1.288,0.137 1.475,0.208 1.595,0.299 1.752,0.418 1.961,0.443 2.133,0.536 2.36,0.658 2.054,0.974 2.092,1.158 2.03,1.127 1.993,1.071 1.93,1.041 1.816,0.987 1.712,0.927 1.6,0.869 1.388,0.758 1.147,0.684 0.924,0.595 0.726,0.515 0.524,0.48 0.326,0.401 0.257,0.373 0.143,0.349 0.086,0.302 0.033,0.258 0.015,0.194 -0.052,0.151 -0.05,0.139 -0.049,0.128 0,0"
             style="fill:#231f20;fill-opacity:1;fill-rule:nonzero;stroke:none"
             id="path2083" />
        </g>
        <g
           id="g2085"
           transform="translate(66.9141,97.3705)">
          <path
             d="m 0,0 c -0.059,-0.076 -0.14,-0.133 -0.213,-0.206 -0.16,-0.159 -0.284,-0.332 -0.383,-0.533 -0.088,-0.176 -0.185,-0.35 -0.185,-0.553 0,-0.241 -0.013,-0.528 0.06,-0.761 0.061,-0.197 0.168,-0.378 0.28,-0.547 0.062,-0.094 0.134,-0.2 0.183,-0.303 0.067,-0.142 0.12,-0.187 0.234,-0.297 0.055,-0.053 0.099,-0.117 0.173,-0.148 0.09,-0.036 0.196,-0.021 0.29,-0.046 0.165,-0.044 0.291,-0.061 0.464,-0.048 0.186,0.013 0.339,0.118 0.524,0.126 0.033,10e-4 0.074,-0.032 0.1,0.009 0.009,0.015 -0.018,0.07 -0.021,0.087 -0.018,0.097 -0.03,0.196 -0.048,0.294 -0.036,0.188 -0.033,0.235 -0.226,0.197 -0.214,-0.043 -0.407,-0.083 -0.629,-0.069 -0.178,0.012 -0.315,0.043 -0.438,0.183 -0.157,0.178 -0.234,0.474 -0.328,0.69 -0.03,0.068 -0.064,0.134 -0.093,0.202 -0.062,0.147 -0.015,0.221 0.021,0.361 0.047,0.182 0.077,0.374 0.17,0.54 0.038,0.067 0.086,0.083 0.145,0.122 0.113,0.074 0.233,0.155 0.342,0.234 0.049,0.036 0.117,0.075 0.121,0.132 0.002,0.043 -0.069,0.151 -0.087,0.191 C 0.443,-0.112 0.379,0.102 0.337,0.124 0.29,0.15 0.212,0.094 0.171,0.065 0.108,0.022 0.04,-0.011 -0.021,-0.052 -0.101,-0.105 -0.089,-0.097 0,0"
             style="fill:#231f20;fill-opacity:1;fill-rule:nonzero;stroke:none"
             id="path2087" />
        </g>
        <g
           id="g2089"
           transform="translate(66.5902,95.8671)">
          <path
             d="M 0,0 C 0.105,0.026 0.181,0.011 0.286,0.021 0.441,0.037 0.625,0.101 0.78,0.135 0.881,0.158 0.992,0.171 1.088,0.208 1.336,0.304 1.585,0.422 1.841,0.497 2.022,0.55 2.195,0.676 2.387,0.611 2.435,0.595 2.479,0.547 2.53,0.539 2.617,0.524 2.713,0.59 2.8,0.593 2.904,0.597 2.888,0.551 2.904,0.471 2.918,0.406 2.934,0.341 2.948,0.276 3.003,0.033 2.973,-0.186 2.96,-0.437 2.958,-0.473 2.977,-0.506 2.972,-0.54 2.964,-0.584 2.915,-0.616 2.904,-0.658 2.887,-0.73 2.933,-0.824 2.948,-0.892 2.969,-0.985 2.987,-1.358 3.096,-1.398 3.017,-1.409 2.938,-1.431 2.861,-1.448 2.723,-1.478 2.604,-1.54 2.472,-1.573 c -0.118,0.215 0,0.498 -0.123,0.708 C 2.28,-0.746 2.254,-0.625 2.224,-0.49 2.205,-0.407 2.209,-0.188 2.136,-0.137 2.065,-0.087 1.998,-0.124 1.908,-0.144 1.794,-0.169 1.686,-0.156 1.572,-0.177 1.464,-0.196 1.351,-0.225 1.245,-0.252 1.146,-0.278 1.076,-0.326 0.978,-0.356 0.878,-0.387 0.777,-0.392 0.678,-0.431 0.57,-0.473 0.5,-0.504 0.386,-0.529 0.244,-0.56 0.026,-0.637 -0.042,-0.525 -0.088,-0.449 -0.124,-0.257 -0.122,-0.17 -0.12,-0.109 0.053,0.112 0,0"
             style="fill:#231f20;fill-opacity:1;fill-rule:nonzero;stroke:none"
             id="path2091" />
        </g>
        <g
           id="g2093"
           transform="translate(68.4098,97.6335)">
          <path
             d="m 0,0 c -0.074,-0.042 -0.111,-0.227 -0.097,-0.31 0.013,-0.075 0.017,-0.036 0.06,-0.077 0.046,-0.044 0.077,-0.071 0.111,-0.128 0.071,-0.118 0.141,-0.169 0.28,-0.145 0.101,0.017 0.244,0.036 0.317,0.113 0.085,0.089 0.049,0.255 0.027,0.368 C 0.678,-0.073 0.624,0.014 0.528,0.07 0.46,0.11 0.476,0.096 0.389,0.097 0.344,0.097 0.313,0.11 0.264,0.102 0.164,0.085 0.064,0.056 -0.035,0.033 c 0.009,0.002 0.018,0.004 0.026,0.006"
             style="fill:#231f20;fill-opacity:1;fill-rule:nonzero;stroke:none"
             id="path2095" />
        </g>
        <g
           id="g2097"
           transform="translate(82.1291,94.1125)">
          <path
             d="m 0,0 c -0.006,-0.011 -0.012,-0.022 -0.018,-0.034 0.045,-0.02 0.086,-0.019 0.124,-0.052 0.044,-0.038 0.073,-0.129 0.1,-0.176 0.172,-0.298 0.368,-0.549 0.605,-0.794 0.106,-0.109 0.197,-0.233 0.303,-0.34 0.044,-0.044 0.092,-0.07 0.138,-0.107 0.072,-0.056 0.113,-0.121 0.167,-0.192 0.064,0.015 0.059,0.12 0.106,0.159 0.047,0.038 0.105,0.005 0.171,0.017 0.112,0.02 0.249,0.041 0.274,0.177 0.008,0.044 -0.002,0.07 0.016,0.116 0.022,0.058 0.067,0.092 0.074,0.162 0.006,0.059 -0.01,0.063 0.01,0.12 0.032,0.087 0.115,0.202 0.156,0.283 0.076,0.146 0.132,0.294 0.203,0.443 0.081,0.171 0.183,0.354 0.232,0.536 0.048,0.18 0.089,0.361 0.138,0.54 C 2.744,0.859 2.687,0.833 2.632,0.822 2.531,0.802 2.43,0.813 2.328,0.793 2.269,0.782 2.225,0.776 2.184,0.736 2.16,0.712 2.148,0.668 2.133,0.639 2.085,0.548 2.024,0.464 1.979,0.371 1.861,0.13 1.719,-0.082 1.575,-0.307 1.527,-0.382 1.495,-0.443 1.464,-0.525 1.451,-0.561 1.424,-0.659 1.384,-0.674 1.306,-0.705 1.191,-0.542 1.147,-0.487 1.108,-0.438 1.084,-0.38 1.042,-0.331 0.995,-0.274 0.937,-0.227 0.883,-0.176 0.821,-0.116 0.784,-0.062 0.732,0.006 0.691,0.06 0.647,0.064 0.596,0.102 0.515,0.163 0.443,0.276 0.377,0.353 0.325,0.414 0.267,0.46 0.219,0.522 0.197,0.551 0.156,0.615 0.116,0.621 -0.002,0.387 -0.094,0.147 -0.331,0.002 -0.262,-0.013 -0.173,-0.047 -0.107,-0.071 -0.027,-0.101 0.018,-0.175 0,0"
             style="fill:#231f20;fill-opacity:1;fill-rule:nonzero;stroke:none"
             id="path2099" />
        </g>
        <g
           id="g2101"
           transform="translate(82.9419,92.0224)">
          <path
             d="m 0,0 c -0.092,-0.02 -0.292,-0.028 -0.372,-0.113 -0.059,-0.063 -0.077,-0.148 -0.104,-0.224 -0.02,-0.057 -0.051,-0.099 -0.052,-0.162 -0.001,-0.092 0.037,-0.201 0.059,-0.29 0.026,-0.105 0.055,-0.118 0.17,-0.121 0.085,-0.002 0.174,0.001 0.257,0.015 0.16,0.029 0.29,0.092 0.336,0.265 0.014,0.053 -0.008,0.097 -0.008,0.152 -0.001,0.061 0.003,0.103 -0.012,0.168 -0.02,0.086 -0.031,0.141 -0.09,0.208 C 0.151,-0.066 0.106,-0.01 0.065,0.016 -0.001,0.058 -0.046,0.052 -0.132,0.041 -0.118,0.036 -0.109,0.026 -0.104,0.01"
             style="fill:#231f20;fill-opacity:1;fill-rule:nonzero;stroke:none"
             id="path2103" />
        </g>
        <g
           id="g2105"
           transform="translate(85.3635,92.4612)">
          <path
             d="m 0,0 c -0.192,-0.043 -0.358,-0.115 -0.542,-0.176 -0.206,-0.068 -0.39,-0.097 -0.59,-0.123 -0.112,-0.014 -0.225,-0.053 -0.337,-0.068 -0.095,-0.012 -0.191,-0.008 -0.288,-0.035 0.043,-0.091 0.073,-0.214 0.072,-0.321 -10e-4,-0.072 -0.043,-0.107 0.013,-0.16 0.064,-0.059 0.116,-0.015 0.23,0.013 0.417,0.1 0.829,0.17 1.247,0.277 0.245,0.063 0.485,0.072 0.728,0.134 -0.045,0.091 -0.079,0.206 -0.111,0.306 -0.01,0.029 -0.044,0.08 -0.051,0.106 C 0.362,-0.01 0.398,0.068 0.385,0.09 0.365,0.123 0.156,0.051 0.096,0.04 0.042,0.03 -0.124,0.02 -0.171,-0.016 -0.166,-0.026 -0.162,-0.036 0,0"
             style="fill:#231f20;fill-opacity:1;fill-rule:nonzero;stroke:none"
             id="path2107" />
        </g>
      </g>
    </g>
  </g>
</svg>
