<?xml version="1.0" encoding="UTF-8" standalone="no"?>
<!-- Created with Inkscape (http://www.inkscape.org/) -->

<svg
   width="24.007257"
   height="24"
   viewBox="0 0 6.3519201 6.35"
   version="1.1"
   id="svg279665"
   inkscape:version="1.2.1 (9c6d41e4, 2022-07-14)"
   sodipodi:docname="edge-of-the-earth.svg"
   xmlns:inkscape="http://www.inkscape.org/namespaces/inkscape"
   xmlns:sodipodi="http://sodipodi.sourceforge.net/DTD/sodipodi-0.dtd"
   xmlns="http://www.w3.org/2000/svg"
   xmlns:svg="http://www.w3.org/2000/svg">
  <sodipodi:namedview
     id="namedview279667"
     pagecolor="#505050"
     bordercolor="#eeeeee"
     borderopacity="1"
     inkscape:showpageshadow="0"
     inkscape:pageopacity="0"
     inkscape:pagecheckerboard="0"
     inkscape:deskcolor="#505050"
     inkscape:document-units="mm"
     showgrid="false"
     inkscape:zoom="0.2102413"
     inkscape:cx="107.01989"
     inkscape:cy="142.69318"
     inkscape:window-width="1309"
     inkscape:window-height="456"
     inkscape:window-x="0"
     inkscape:window-y="25"
     inkscape:window-maximized="0"
     inkscape:current-layer="layer1" />
  <defs
     id="defs279662">
    <clipPath
       clipPathUnits="userSpaceOnUse"
       id="clipPath225241">
      <path
         d="m 400.473,633.887 h 56.304 v 56.304 h -56.304 z"
         id="path225239" />
    </clipPath>
  </defs>
  <g
     inkscape:label="Layer 1"
     inkscape:groupmode="layer"
     id="layer1"
     transform="translate(-76.681047,-110.66255)">
    <g
       id="g225235"
       transform="matrix(0.12595615,0,0,-0.12595615,25.808545,197.04475)">
      <g
         id="g225237"
         clip-path="url(#clipPath225241)">
        <g
           id="g225243"
           transform="matrix(0.391,0,0,-0.402712,428.625,662.039)">
          <g
             id="g225245"
             transform="translate(-51.5044,33.8235)">
            <path
               d="m 0,0 c -0.009,-0.011 -0.018,-0.022 -0.026,-0.033 0.002,0.002 0.005,0.002 0.006,0.004 0.009,0.008 0.012,0.02 0.02,0.029 m 116.794,-19.633 c -0.34,0.592 -0.446,1.218 -0.839,1.789 -0.845,1.222 -1.615,2.612 -2.731,3.615 -0.856,0.77 -1.856,1.231 -2.777,1.909 -0.749,0.55 -1.518,1.113 -2.344,1.548 -0.168,0.087 -0.38,0.136 -0.539,0.234 -0.275,0.169 -0.519,0.496 -0.761,0.719 -0.359,0.331 -0.704,0.669 -1.041,1.023 -0.995,1.047 -1.863,2.208 -2.846,3.266 -0.928,0.998 -1.937,1.915 -2.97,2.801 -0.656,0.563 -1.346,1.026 -2.008,1.569 -0.246,0.202 -0.457,0.474 -0.722,0.649 -0.183,0.12 -0.366,0.132 -0.554,0.23 -0.201,0.103 -0.37,0.284 -0.569,0.397 -0.343,0.196 -0.736,0.301 -1.058,0.532 -0.297,0.214 -0.495,0.508 -0.743,0.783 -1.685,1.861 -3.013,4.108 -5.019,5.642 -0.684,0.524 -1.299,1.066 -2.031,1.528 -0.457,0.289 -0.934,0.547 -1.398,0.825 -0.681,0.406 -1.21,0.929 -1.8,1.443 -0.486,0.424 -1.07,0.891 -1.608,1.244 -0.416,0.274 -0.926,0.355 -1.41,0.46 -0.983,0.217 -1.974,0.342 -2.925,0.676 -0.015,0.289 -0.122,0.34 -0.26,0.473 -0.407,-0.035 -0.879,0.003 -1.133,0.031 -0.065,0.455 -0.249,0.581 -0.648,0.79 -0.837,0.437 -1.678,0.892 -2.475,1.4 -0.878,0.561 -1.684,1.159 -2.633,1.605 -0.747,0.35 -1.547,0.541 -2.287,0.893 -1.745,0.832 -3.541,1.694 -5.459,2.034 -1.138,0.201 -2.101,0.418 -3.161,0.856 -0.421,0.195 -0.859,0.343 -1.312,0.44 -0.309,-0.114 -0.575,-0.293 -0.799,-0.54 -0.49,-0.393 -0.299,-0.188 -0.55,0.092 -0.439,0.491 -1.793,0.475 -2.384,0.479 -0.94,0.007 -1.84,-0.011 -2.776,0.109 -0.397,0.051 -0.807,0.055 -1.207,0.034 -0.209,-0.011 -0.306,-0.083 -0.465,-0.116 -0.432,-0.04 -0.864,-0.065 -1.298,-0.076 -0.415,-0.061 -0.832,-0.102 -1.251,-0.125 -0.538,-0.02 -1.251,0.152 -1.769,-0.015 0.03,-0.251 -0.067,-0.368 -0.276,-0.447 -0.13,-0.048 -0.497,-0.02 -0.653,-0.043 -0.956,-0.14 -1.91,-0.354 -2.854,-0.55 -0.486,-0.099 -0.879,-0.141 -1.283,-0.403 -0.317,-0.207 -0.668,-0.235 -0.996,-0.398 -1.122,-0.554 -1.877,-1.818 -2.71,-2.701 -0.833,-0.882 -2.049,-0.956 -3.165,-1.299 -1.388,-0.425 -2.714,-1.033 -4.096,-1.471 -0.794,-0.252 -1.548,-0.265 -2.372,-0.251 -2.388,0.037 -4.771,-0.209 -7.161,-0.144 -1.504,0.042 -2.449,-0.758 -3.59,-1.6 C 15.777,11.346 14.522,10.307 13.167,9.44 12.605,9.082 12.251,8.612 11.792,8.156 11.236,7.603 10.382,7.194 9.65,6.963 9.041,6.77 8.487,6.739 8.073,6.215 7.723,5.771 7.478,5.435 7.019,5.094 6.43,4.656 5.913,3.967 5.261,3.635 4.724,3.362 4.201,3.297 3.682,2.926 3.047,2.472 2.412,1.638 1.639,1.384 1.486,1.333 1.354,1.384 1.205,1.317 0.942,1.199 0.67,0.867 0.435,0.559 0.568,0.649 0.711,0.727 0.833,0.825 0.958,0.677 1.029,0.499 1.122,0.331 c 0.369,-0.666 0.836,-1.228 1.319,-1.815 0.892,-1.08 1.792,-2.12 2.521,-3.324 0.938,-1.546 1.647,-3.254 2.683,-4.708 0.424,-0.594 0.761,-1.262 0.83,-1.99 0.062,-0.658 0.595,-1.117 1.052,-1.542 0.235,-0.217 0.603,-0.382 0.805,-0.612 0.354,-0.405 0.423,-1.256 0.647,-1.743 0.499,-1.089 1.24,-2.076 1.734,-3.175 0.812,-1.807 1.175,-3.78 1.857,-5.63 0.235,-0.634 0.438,-1.363 0.908,-1.867 0.128,-0.138 0.302,-0.273 0.433,-0.416 0.32,-0.352 0.568,-0.718 0.821,-1.124 0.577,-0.925 1.275,-1.777 1.906,-2.663 0.698,-0.981 1.461,-1.914 2.299,-2.779 1.07,-1.103 2.147,-2.192 3.086,-3.409 0.583,-0.756 1.099,-1.487 1.267,-2.442 0.091,-0.517 0.168,-1.033 0.348,-1.528 0.497,-1.366 1.702,-2.511 2.626,-3.6 1.036,-1.22 2.342,-2.159 3.372,-3.393 0.94,-1.126 7.975,-12.423 11.259,-17.352 l 0.661,0.452 c -1.598,3.193 -4.075,7.731 -3.007,6.35 -0.356,0.731 -0.936,1.353 -1.392,2.025 -1.476,2.176 -2.6,4.52 -3.767,6.9 -0.307,0.627 -0.525,1.289 -0.742,1.953 -0.208,0.638 -0.56,1.26 -0.644,1.935 0.472,-0.315 0.954,-1.014 1.293,-1.392 1.091,-1.217 2.239,-2.297 3.44,-3.403 0.734,-0.675 2.188,-3.718 3.086,-4.171 0.185,-0.093 4.503,-4.568 4.644,-4.489 -0.3,0.381 -1.175,3.439 -1.393,3.87 -0.652,1.285 -1.379,1.957 -1.858,3.314 -0.175,0.499 -0.309,2.568 -2.476,5.045 -0.742,0.848 -2.108,2.937 -2.395,4.017 -0.204,0.765 -0.598,1.467 -0.902,2.195 -0.244,0.584 -0.431,1.209 -0.72,1.771 -0.211,0.409 -0.425,0.757 -0.583,1.19 -0.153,0.421 -1.359,2.83 -1.882,3.455 0.686,-0.702 2.537,-2.774 3.166,-3.183 1.203,-0.782 2.102,-1.895 3.232,-2.759 0.903,-0.689 3.878,-5.663 4.883,-6.222 0.112,0.365 1.547,-1.857 -1.084,6.996 -0.313,1.054 -1.932,0.953 -2.107,2.034 -0.117,0.725 -0.297,1.406 -0.484,2.112 -0.197,0.746 -0.21,1.522 -0.409,2.266 -0.292,1.09 -0.524,2.173 -0.823,3.258 -0.223,0.815 -0.666,1.464 -0.964,2.244 -0.296,0.775 -0.441,1.566 -0.702,2.365 -0.14,0.425 -0.347,0.819 -0.476,1.249 -0.103,0.343 -0.128,0.702 -0.233,1.044 -0.088,0.288 -0.201,0.578 -0.313,0.867 0.379,-0.619 0.852,-1.194 1.275,-1.775 0.301,0.138 0.303,0.406 0.007,0.801 -0.37,0.99 -0.73,1.985 -1.08,2.982 -0.579,1.847 -0.966,3.768 -1.364,5.661 -0.247,1.176 -0.452,2.367 -0.736,3.535 -0.228,0.872 -0.482,1.737 -0.761,2.596 -0.318,0.353 -0.353,0.623 -0.106,0.811 1.376,-1.484 2.97,-2.745 4.318,-4.264 0.449,-0.507 0.928,-0.985 1.455,-1.411 1.273,-1.029 2.419,-2.134 3.553,-3.321 0.923,-0.966 1.872,-1.906 2.857,-2.809 1.044,-0.957 1.995,-2.033 2.832,-3.182 0.046,0.179 0.091,0.353 0.143,0.555 0.225,-0.261 0.514,-0.426 0.735,-0.686 0.216,-0.252 0.375,-0.555 0.572,-0.819 0.479,-0.642 0.911,-1.349 1.483,-1.905 0.514,-0.498 1.077,-1.088 1.484,-1.668 0.337,-0.48 0.609,-0.956 1.054,-1.357 0.627,-0.566 1.172,-1.192 1.728,-1.829 0.544,-0.624 1.171,-1.097 1.687,-1.752 0.602,-0.767 1.244,-1.502 1.749,-2.335 0.203,-0.335 0.402,-0.691 0.618,-1.016 0.169,-0.254 2.838,-2.925 2.977,-3.197 0.636,-0.058 -2.014,4.138 -2.011,4.471 0.006,0.724 -0.295,1.427 -0.724,2.013 0.276,-0.023 0.438,-0.22 0.634,-0.395 0.649,-0.579 1.285,-1.173 1.938,-1.751 1.022,-0.902 2.144,-1.69 3.156,-2.6 0.457,-0.411 0.84,-0.902 1.393,-1.2 0.527,-0.284 1.081,-1.964 1.496,-2.396 3.87,-4.022 6.621,-6.958 7.121,-6.811 0.604,0.178 -5.066,8.988 -5.232,9.303 -0.21,0.4 -0.021,0.429 -0.024,0.848 -0.003,0.489 -0.275,0.982 -0.325,1.476 -0.052,0.503 -0.201,0.914 -0.335,1.409 0.33,0.187 1.249,-0.825 1.326,-0.896 1.212,-1.113 2.321,-2.355 3.613,-3.38 0.607,-0.482 3.203,-4.112 3.918,-4.425 0.129,0.342 -2.012,4.043 -2.012,4.402 v 1.593 c 0,0.399 0.056,0.873 0.007,1.272 -0.048,0.393 -0.285,0.761 -0.425,1.125 -0.108,0.282 -0.242,0.506 -0.314,0.813 -0.117,0.492 -0.386,0.873 -0.557,1.348 -0.269,0.747 -0.426,1.558 -0.642,2.325 -0.165,0.583 -0.425,1.102 -0.627,1.667 -0.139,0.391 -0.211,0.804 -0.364,1.189 -0.228,0.573 -0.6,1.07 -0.888,1.612 -0.284,0.535 -0.379,1.125 -0.675,1.65 -0.244,0.432 -0.372,0.788 -0.514,1.264 -0.078,0.263 -0.316,0.627 -0.243,0.876 0.368,-0.639 0.841,-1.099 1.322,-1.663 1.081,-1.266 2.12,-2.586 3.178,-3.873 1.113,-1.358 2.231,-2.711 3.267,-4.13 0.814,-1.113 1.675,-2.197 2.442,-3.343 0.119,-0.178 0.236,-0.372 0.369,-0.543 0.128,-0.164 0.353,-0.568 0.522,-0.613 0.065,0.702 -0.516,1.521 -0.683,2.199 -0.098,0.394 -0.252,0.947 0.134,1.18 0.256,0.155 1.061,0.033 1.294,0.028 0.793,-0.02 1.547,-0.117 2.281,-0.436 0.26,-0.113 0.575,-0.399 0.846,-0.233 0.272,0.166 0.104,1.108 0.171,1.37 -0.048,0.183 0.013,0.323 0.184,0.42 0.366,-0.002 0.731,-0.026 1.095,-0.071 0.568,-0.102 1.124,-0.313 1.686,-0.448 0.537,-0.13 0.798,-0.311 1.134,0.093 0.679,0.817 1.025,1.972 1.948,2.579 1.173,0.773 2.681,0.476 3.99,0.592 0.204,1.206 0.684,2.355 0.94,3.553 0.034,0.158 0.107,0.318 0.14,0.468 0.024,0.113 -0.012,0.382 0.024,0.476 0.171,0.454 1.066,-0.008 1.305,-0.187 1.116,-0.834 2.547,-1.618 3.856,-2.039 0.83,-0.267 1.791,-0.55 2.671,-0.573 0.315,-0.007 0.499,-0.022 0.727,0.146 0.474,0.35 0.531,0.931 0.623,1.47 0.131,0.77 0.279,1.515 0.27,2.298 -0.003,0.325 -0.072,2.139 0.536,1.894 0.205,-0.083 0.381,-0.392 0.549,-0.537 0.267,-0.232 0.575,-0.425 0.886,-0.594 0.822,-0.447 1.547,-0.518 2.466,-0.616 0.244,-0.026 0.553,0.005 0.791,-0.068 0.256,-0.079 0.239,-0.121 0.574,-0.124 0.399,-0.005 0.711,0.005 1.045,0.12 0.271,0.093 0.535,0.175 0.774,0.304 0.173,0.094 0.658,0.175 0.75,0.295 -0.047,-0.437 -0.175,-0.729 -0.166,-1.18 0.006,-0.315 -0.113,-0.487 -0.162,-0.775 -0.018,-0.103 0.023,-0.21 0.012,-0.313 -0.017,-0.164 -0.098,-0.227 -0.125,-0.34 -0.092,-0.376 -0.054,-0.29 -0.306,-0.58 -0.128,-0.149 -0.227,-0.335 -0.379,-0.466 -0.185,-0.16 -0.386,-0.302 -0.585,-0.444 0.05,0.025 0.082,0.044 0.14,0.072 -0.385,-0.445 -0.874,-0.822 -1.224,-1.288 -0.273,-0.364 -0.502,-0.731 -0.815,-1.069 -0.322,-0.348 -0.715,-0.664 -0.972,-1.069 -0.499,-0.785 -0.586,-1.838 -0.673,-2.742 -0.037,-0.387 -0.056,-0.435 -0.281,-0.716 -0.33,-0.412 -0.841,-0.798 -1.392,-0.914 -0.22,-0.047 -0.451,-0.04 -0.684,-0.023 -0.139,-0.193 -0.348,-0.294 -0.665,-0.355 -0.542,-0.104 -1,-0.434 -1.479,-0.581 -0.446,-0.137 -0.751,-0.48 -1.09,-0.773 -0.145,-0.124 -0.202,-0.289 -0.323,-0.417 -0.467,-0.488 -1.016,-1.003 -1.53,-1.449 -0.535,-0.464 0.131,-0.964 -0.27,-1.496 -0.604,-0.805 -1.149,-1.623 -1.58,-2.549 -0.43,0.076 -0.936,-0.754 -1.138,-1.051 -0.631,-0.927 -1.542,-1.693 -2.074,-2.687 -0.186,-0.35 -0.273,-0.756 -0.461,-1.113 -0.206,-0.391 -0.439,-0.753 -0.666,-1.131 -0.2,-0.335 -0.35,-0.707 -0.559,-1.033 -0.074,-0.117 -0.184,-0.256 -0.286,-0.348 -0.551,-0.488 -1.181,-0.875 -1.71,-1.415 -0.394,-0.402 -0.774,-0.811 -1.166,-1.209 -0.201,-0.204 -0.25,-0.493 -0.425,-0.684 -0.144,-0.157 -0.232,-0.078 -0.399,-0.152 -0.444,-0.193 -0.925,-0.574 -1.275,-0.904 -0.474,-0.449 -0.388,-1.245 -0.504,-1.868 -0.148,-0.799 -0.301,-1.478 -0.71,-2.192 -0.373,-0.652 -1.791,-1.191 -2.475,-1.435 -0.887,-0.317 -1.05,-1.085 -1.316,-1.885 -0.146,-0.439 -0.36,-0.414 -0.793,-0.336 -0.268,0.048 -0.369,0.18 -0.459,-0.252 -0.033,-0.162 0.012,-0.314 0.007,-0.476 -0.013,-0.538 -0.296,-0.948 -0.491,-1.429 -0.182,-0.444 -0.262,-0.729 -0.6,-1.119 -0.203,-0.236 -0.459,-0.672 -0.708,-0.852 -0.136,-0.099 -0.28,-0.071 -0.387,-0.179 -0.343,-0.347 -0.148,-1.432 -0.149,-1.883 0,-0.426 0.04,-0.711 -0.147,-1.057 -0.311,-0.574 -0.71,-0.729 -1.167,-1.151 -0.242,-0.225 -0.503,-0.412 -0.718,-0.663 -0.282,-0.33 -0.425,-0.698 -0.605,-1.061 -0.249,-0.495 -0.519,-0.487 -1.065,-0.279 -0.409,0.156 -0.794,0.284 -1.193,0.448 0.16,-0.289 0.228,-1.171 -0.016,-1.374 -0.376,0.309 -0.453,0.987 -0.689,1.392 -0.174,0.298 -0.413,0.434 -0.638,0.682 -0.19,0.21 -0.283,0.469 -0.451,0.698 -0.334,0.455 -0.668,0.931 -1.042,1.351 -0.162,0.181 -0.357,0.318 -0.515,0.499 -0.312,0.357 -0.565,0.75 -0.894,1.102 -0.263,0.281 -0.529,0.574 -0.783,0.879 -0.04,-0.146 -0.084,-0.278 -0.269,-0.32 -0.347,0.724 -0.805,1.353 -1.303,1.996 -0.325,0.419 -0.714,0.815 -1.06,1.217 -0.415,0.479 -0.767,0.98 -1.161,1.48 -0.387,0.493 -0.92,0.818 -1.321,1.29 -0.287,0.336 -3.385,3.82 -3.643,4.139 -0.081,0.082 -0.171,0.15 -0.273,0.204 -0.119,0.166 -0.224,0.342 -0.313,0.526 -0.21,0.321 -0.481,0.611 -0.701,0.928 -0.507,0.732 -0.967,1.506 -1.423,2.244 -0.144,0.233 -0.118,0.169 -0.19,0.46 -0.078,0.312 -0.252,0.317 -0.437,0.568 -0.167,0.226 -0.28,0.598 -0.419,0.853 -0.299,0.544 -0.529,1.032 -0.928,1.52 -0.558,0.682 -0.994,1.386 -1.606,2.02 -0.836,0.865 -1.429,1.9 -2.237,2.777 -1.561,1.694 -2.818,3.688 -4.21,5.523 -0.545,0.72 -1.393,1.927 -1.832,2.716 -0.399,0.721 -0.872,1.415 -1.24,2.144 -0.497,0.985 -0.944,1.955 -1.561,2.877 -0.718,1.073 -1.546,2.099 -2.234,3.19 0.264,-0.555 0.487,-1.133 0.716,-1.644 0.281,-0.627 0.715,-1.17 1.043,-1.771 0.276,-0.503 0.391,-1.049 0.722,-1.512 0.444,-0.619 0.685,-1.416 0.945,-2.125 0.13,-0.352 0.215,-0.734 0.374,-1.078 0.165,-0.358 0.405,-0.683 0.564,-1.046 0.315,-0.717 0.461,-1.465 0.911,-2.137 0.532,-0.794 0.968,-1.645 1.321,-2.534 0.729,-1.831 1.76,-3.531 2.467,-5.369 0.415,-1.078 0.926,-2.113 1.504,-3.114 0.072,-0.124 0.137,-0.252 0.208,-0.377 0.093,0.078 0.184,0.161 0.28,0.234 0.613,-0.742 1.367,-1.364 1.906,-2.215 0.587,-0.93 1.615,-1.569 2.054,-2.592 0.23,-0.539 0.605,-1.01 0.933,-1.507 0.274,-0.414 0.616,-0.784 0.869,-1.211 0.157,-0.352 0.347,-0.684 0.571,-0.996 0.232,-0.236 0.477,-0.457 0.735,-0.662 0.562,-0.534 0.035,-1.756 0.702,-2.176 0.028,-0.017 0.074,-0.05 0.111,-0.075 0.035,-0.063 0.056,-0.125 0.097,-0.187 1.133,-1.727 2.118,-3.533 3.059,-5.365 -0.087,-0.613 -0.146,-1.24 -0.33,-1.828 -0.084,-0.27 -0.198,-0.482 -0.313,-0.738 -0.147,-0.327 -0.061,-0.556 -0.136,-0.853 -0.114,-0.445 -0.53,-0.653 -0.771,-1.026 -0.116,-0.18 -1.168,0.6 -1.281,0.427 -0.454,-0.699 -1.06,-1.288 -1.494,-2.029 -0.138,-0.235 -0.243,-0.535 -0.402,-0.76 -0.196,-0.278 -0.481,-0.432 -0.671,-0.722 -0.245,-0.378 -0.405,-0.811 -0.683,-1.175 -0.24,-0.313 -0.591,-0.528 -0.83,-0.833 -0.381,-0.485 -0.527,-1.189 -1.057,-1.567 -0.284,-0.202 -0.332,-0.085 -0.637,-0.139 -0.61,-0.108 -0.607,-0.767 -0.933,-1.219 -0.154,-0.213 -0.29,-0.387 -0.416,-0.617 -0.321,-0.482 -0.627,-0.972 -0.921,-1.471 -0.038,-0.273 -0.164,-0.458 -0.376,-0.556 -0.304,0.334 -0.489,0.748 -0.879,1.013 -0.844,-0.561 -1.207,-1.364 -1.703,-2.196 -0.117,-0.196 -0.11,-0.347 -0.182,-0.528 -0.096,-0.239 -0.236,-0.394 -0.292,-0.669 -0.057,-0.281 -0.004,-0.465 -0.13,-0.723 -0.146,-0.299 -0.288,1.53 -0.366,1.208 -0.173,-0.713 -0.458,-1.431 -0.726,-2.141 -0.361,-0.959 -0.616,-1.964 -0.971,-2.923 -0.141,-0.38 -0.172,-0.825 -0.335,-1.187 -0.168,-0.37 -0.344,-0.643 -0.45,-1.044 -0.09,-0.337 -0.151,-0.55 -0.147,-0.927 0.003,-0.333 0.12,-0.899 -0.031,-1.209 -0.174,0.046 -0.231,0.712 -0.31,0.927 -0.168,0.462 -0.475,0.849 -0.748,1.247 -0.386,0.564 -0.773,1.12 -1.114,1.69 -0.659,1.102 -1.174,2.252 -1.805,3.381 -0.091,-0.08 -0.166,-0.166 -0.209,-0.26 -0.052,-0.112 -0.014,-0.329 -0.036,-0.455 -0.038,-0.217 -0.078,-0.378 -0.102,-0.566 0.018,0.308 0.03,0.781 -0.049,0.55 -0.153,0.073 -0.286,0.289 -0.406,0.443 -0.435,0.555 -0.796,-0.838 -1.252,-0.296 -0.811,0.964 -1.742,1.773 -2.599,2.691 -0.63,0.673 -1.268,1.342 -1.994,1.91 -1.202,0.939 -2.283,2 -3.251,3.171 -0.449,0.543 -0.937,1.074 -1.448,1.56 -0.638,0.606 -1.551,1.121 -2.043,1.851 -0.222,0.331 -0.398,0.795 -0.447,1.19 -0.091,0.746 0.196,1.602 -0.023,2.321 -0.242,0.789 -0.839,1.633 -1.324,2.283 -0.49,0.655 -1.104,1.231 -1.551,1.931 -0.188,0.295 -0.204,0.592 -0.419,0.89 -0.305,0.424 -0.699,0.789 -1.014,1.206 -1.267,1.676 -2.648,3.292 -3.781,5.07 -0.312,0.49 -0.388,1.058 -0.665,1.558 -0.204,0.371 -0.491,0.736 -0.709,1.1 -0.48,0.8 -1.057,1.545 -1.559,2.332 -0.687,1.077 -1.369,2.151 -2.133,3.175 -0.619,0.83 -1.298,1.614 -1.929,2.434 -0.624,0.821 -1.245,1.645 -1.863,2.47 0.088,-0.19 0.171,-0.386 0.253,-0.512 0.202,-0.313 0.454,-0.586 0.659,-0.896 0.671,-1.015 0.857,-2.413 1.055,-3.565 0.372,-2.171 0.742,-4.317 0.893,-6.522 0.018,-0.263 0.047,-0.528 0.074,-0.793 -0.645,0.628 -1.285,1.261 -1.891,1.928 -0.747,0.823 -1.472,1.659 -2.229,2.455 -0.415,0.555 -0.833,1.107 -1.242,1.663 -0.514,0.697 -1.033,1.395 -1.581,2.065 -0.883,1.081 -2.172,2.002 -2.959,3.163 -0.33,0.486 -0.236,0.867 -0.204,1.432 0.037,0.656 -0.049,1.033 -0.468,1.582 -0.528,0.691 -1.167,1.241 -1.724,1.9 -1.224,1.447 -2.307,3.046 -3.435,4.569 -0.256,0.347 -0.545,0.665 -0.836,0.983 -1.043,1.142 -2.009,2.614 -2.75,3.951 -1.046,1.887 -1.644,3.945 -2.595,5.872 -0.209,0.423 -0.465,0.705 -0.711,1.082 -0.353,0.54 -0.658,1.137 -0.99,1.684 -0.769,1.266 -1.541,2.54 -2.391,3.753 -0.577,0.823 -1.162,1.648 -1.746,2.466 -0.67,0.938 -1.165,1.967 -1.808,2.918 -0.219,0.325 -0.414,0.689 -0.619,1.047 0.112,0.77 0.211,1.545 0.368,2.305 0.065,0.314 0.148,0.625 0.222,0.938 0.065,0.076 0.118,0.171 0.152,0.285 0.292,0.991 0.598,1.995 0.937,2.99 0.046,0.026 0.101,0.047 0.143,0.075 0.531,0.346 1.027,0.785 1.347,1.341 0.279,0.485 0.461,1.037 0.746,1.521 0.125,0.505 0.247,1.009 0.371,1.51 0.011,0.256 0.056,0.474 0.259,0.697 0.248,0.271 0.5,0.446 0.709,0.773 0.266,0.417 0.456,0.656 0.829,0.828 0.63,0.935 1.095,1.995 1.62,2.985 0.531,1.003 1.05,2.011 1.552,3.028 0.828,0.763 1.563,1.59 1.14,1.846 0.228,-0.28 0.53,-0.466 0.907,-0.557 0.576,-0.31 1.177,-0.556 1.803,-0.74 0.403,0.127 0.426,0.623 0.458,0.996 0.045,0.522 -0.007,1.071 -0.006,1.596 0,0.38 -0.124,0.979 0.019,1.338 0.463,0.113 0.942,0.075 1.389,0.319 0.457,0.249 0.887,0.664 1.326,0.95 0.383,0.25 0.773,0.511 1.208,0.664 0.277,0.098 0.373,0.082 0.553,0.317 0.193,0.252 0.32,0.574 0.456,0.855 0.164,0.338 0.292,0.568 0.594,0.797 1.129,0.857 2.236,1.903 2.876,3.193 0.213,0.43 0.647,0.895 1.085,1.126 0.616,0.326 1.402,0.402 2.063,0.619 0.211,0.069 0.735,0.191 0.86,0.434 -0.139,0.366 -0.564,1.03 -0.24,1.413 0.148,0.175 0.387,0.165 0.593,0.199 0.367,0.063 0.72,0.132 1.065,0.273 0.51,0.207 0.862,0.525 1.311,0.805 0.717,0.446 1.3,1.004 2.19,1.065 0.977,0.065 1.975,-0.16 2.945,0.069 0.558,0.132 1.074,0.421 1.597,0.646 0.437,0.189 0.877,0.308 1.27,0.584 0.459,0.322 0.164,0.609 0.809,0.683 0.412,0.047 0.979,-0.017 1.289,0.319 0.337,0.365 -0.051,0.863 0.646,1.062 0.346,0.1 0.711,0.007 1.074,0.153 0.277,0.111 0.553,0.32 0.758,0.531 0.34,0.351 0.599,0.661 1.019,0.94 0.813,0.54 1.509,1.553 2.443,1.893 0.863,0.313 1.854,0.279 2.753,0.4 0.368,0.049 0.596,0.114 0.876,0.355 0.795,0.687 1.886,0.346 2.883,0.432 0.236,0.021 0.873,0.04 0.956,0.35 0.044,0.164 -0.159,0.356 -0.14,0.556 0.028,0.309 0.098,0.288 0.371,0.298 0.249,0.008 0.556,-0.122 0.818,-0.137 0.394,-0.025 0.785,-0.019 1.18,-0.017 1.16,0.006 2.337,0.117 3.47,-0.16 0.704,-0.172 1.35,-0.449 2.036,-0.673 0.361,-0.118 0.416,-0.096 0.692,0.023 0.321,0.139 0.738,0.228 1.096,0.37 0.501,0.198 0.937,0.511 1.417,0.755 0.524,0.264 1.076,0.083 1.64,0.188 0.361,0.068 0.744,0.125 1.097,0.219 0.443,0.119 0.855,0.443 1.299,0.521 0.299,0.052 0.621,-0.05 0.906,-0.132 0.786,-0.227 1.543,-0.552 2.351,-0.705 0.884,-0.167 1.784,0.028 2.656,-0.121 1.495,-0.256 2.578,-1.439 3.922,-2.002 0.032,0.634 0.074,1.039 0.842,0.829 0.725,-0.199 1.414,-0.49 2.08,-0.826 0.317,-0.16 0.408,-0.065 0.727,-0.09 0.255,-0.018 0.516,-0.174 0.785,-0.206 0.279,-0.033 0.441,-0.048 0.737,-0.145 0.389,-0.127 0.731,-0.298 1.139,-0.318 0.785,-0.039 1.547,-0.171 2.323,-0.303 1.028,-0.174 1.996,-0.527 3.003,-0.795 0.388,-0.105 0.771,-0.089 1.154,-0.17 0.61,-0.128 1.503,-0.841 1.898,-1.104 1.03,-0.684 2.065,-1.368 3.081,-2.071 0.587,-0.406 1.174,-0.813 1.745,-1.241 0.293,-0.22 0.662,-0.608 1.03,-0.669 0.187,-0.031 0.448,0.1 0.62,0.031 0.281,-0.112 0.63,-0.795 0.814,-1.031 0.406,-0.519 0.835,-1.053 1.278,-1.535 0.788,-0.86 1.715,-1.485 2.557,-2.272 0.611,-0.57 1.215,-1.132 1.862,-1.66 0.3,-0.246 0.55,-0.479 0.799,-0.786 1.067,-1.31 1.699,-2.87 2.86,-4.121 0.491,-0.529 0.924,-1.075 1.439,-1.589 0.406,-0.404 0.77,-1.03 1.231,-1.359 0.341,-0.243 0.476,-0.229 0.716,-0.607 0.39,-0.618 1.542,0.283 1.958,-0.319 0.806,-1.166 1.062,-3.566 2.176,-4.45 0.543,-0.431 2.642,0.028 3.086,-0.503 0.272,-0.324 -0.993,-1.515 -0.719,-1.834 0.302,-0.353 0.511,-0.767 0.766,-1.153 0.612,-0.927 1.061,-2.023 1.771,-2.901 0.191,-0.236 0.467,-0.426 0.637,-0.679 0.14,-0.209 0.217,-0.532 0.322,-0.762 0.199,-0.44 0.39,-0.986 0.651,-1.405 0.365,-0.585 0.867,-0.781 1.411,-1.003 0.331,-0.629 0.687,-1.245 1.033,-1.865 0.494,-0.882 0.956,-1.738 1.557,-2.557 0.308,-0.42 0.637,-0.841 0.938,-1.279 0.002,-0.053 0.002,-0.107 0.019,-0.152 0.099,-0.268 0.194,-0.254 0.347,-0.433 0.012,-0.014 0.021,-0.031 0.033,-0.046 0.16,-0.274 0.306,-0.554 0.418,-0.849 0.073,-0.191 0.201,-0.312 0.346,-0.394 0.208,-0.499 0.232,-1.014 0.23,-1.587 -0.003,-0.662 -0.173,-1.273 -0.166,-1.94 0.003,-0.244 0.068,-0.615 -0.019,-0.842"
               style="fill:#231f20;fill-opacity:1;fill-rule:nonzero;stroke:none"
               id="path225247" />
          </g>
        </g>
      </g>
    </g>
  </g>
</svg>
