<svg width="25" height="24" viewBox="0 0 25 24" fill="none" xmlns="http://www.w3.org/2000/svg">
  <path d="M2.18805 17.8015C2.18637 17.7994 2.18469 17.7973 2.18321 17.7952C2.18358 17.7955 2.18414 17.7955 2.18432 17.7959C2.186 17.7975 2.18656 17.7998 2.18805 17.8015M23.9278 14.0376C23.8645 14.1511 23.8448 14.2711 23.7716 14.3806C23.6143 14.6148 23.471 14.8813 23.2633 15.0736C23.1039 15.2212 22.9178 15.3096 22.7464 15.4396C22.6069 15.545 22.4638 15.6529 22.3101 15.7363C22.2788 15.753 22.2393 15.7624 22.2097 15.7812C22.1585 15.8136 22.1131 15.8763 22.0681 15.919C22.0013 15.9825 21.937 16.0473 21.8743 16.1152C21.6891 16.3159 21.5275 16.5385 21.3446 16.7413C21.1718 16.9326 20.984 17.1084 20.7917 17.2783C20.6696 17.3862 20.5412 17.475 20.418 17.5791C20.3722 17.6178 20.3329 17.67 20.2836 17.7035C20.2495 17.7265 20.2155 17.7288 20.1805 17.7476C20.143 17.7674 20.1116 17.8021 20.0745 17.8237C20.0107 17.8613 19.9376 17.8814 19.8776 17.9257C19.8223 17.9667 19.7855 18.0231 19.7393 18.0758C19.4257 18.4326 19.1785 18.8634 18.8051 19.1575C18.6778 19.2579 18.5633 19.3618 18.427 19.4504C18.342 19.5058 18.2532 19.5553 18.1668 19.6086C18.0401 19.6864 17.9416 19.7867 17.8318 19.8852C17.7413 19.9665 17.6326 20.056 17.5325 20.1237C17.455 20.1762 17.3601 20.1918 17.27 20.2119C17.087 20.2535 16.9026 20.2775 16.7256 20.3415C16.7228 20.3969 16.7029 20.4067 16.6772 20.4322C16.6014 20.4255 16.5136 20.4327 16.4663 20.4381C16.4542 20.5253 16.4199 20.5495 16.3457 20.5896C16.1899 20.6733 16.0333 20.7606 15.885 20.858C15.7215 20.9655 15.5715 21.0802 15.3949 21.1657C15.2558 21.2328 15.1069 21.2694 14.9692 21.3369C14.6444 21.4964 14.3101 21.6616 13.953 21.7268C13.7412 21.7653 13.562 21.8069 13.3647 21.8909C13.2863 21.9283 13.2048 21.9567 13.1205 21.9753C13.0629 21.9534 13.0134 21.9191 12.9717 21.8717C12.8805 21.7964 12.9161 21.8357 12.8694 21.8894C12.7876 21.9835 12.5356 21.9804 12.4256 21.9812C12.2506 21.9825 12.0831 21.9791 11.9089 22.0021C11.835 22.0119 11.7587 22.0126 11.6842 22.0086C11.6453 22.0065 11.6273 21.9927 11.5977 21.9864C11.5173 21.9787 11.4368 21.9739 11.3561 21.9718C11.2788 21.9601 11.2012 21.9523 11.1232 21.9478C11.0231 21.944 10.8903 21.977 10.7939 21.945C10.7995 21.8968 10.7815 21.8744 10.7425 21.8593C10.7184 21.8501 10.65 21.8554 10.621 21.851C10.4431 21.8242 10.2655 21.7832 10.0898 21.7456C9.9993 21.7266 9.92615 21.7186 9.85095 21.6683C9.79194 21.6286 9.72661 21.6233 9.66556 21.592C9.45671 21.4858 9.31618 21.2435 9.16113 21.0742C9.00607 20.9051 8.77973 20.8909 8.572 20.8252C8.31364 20.7437 8.06682 20.6271 7.80958 20.5432C7.66179 20.4949 7.52144 20.4924 7.36806 20.495C6.92357 20.5021 6.48 20.455 6.03513 20.4674C5.75518 20.4755 5.57928 20.3221 5.3669 20.1607C5.12474 19.9767 4.89113 19.7775 4.63892 19.6112C4.53431 19.5426 4.46841 19.4525 4.38298 19.3651C4.27949 19.2591 4.12052 19.1807 3.98427 19.1364C3.87091 19.0994 3.76779 19.0934 3.69073 18.993C3.62558 18.9079 3.57998 18.8434 3.49454 18.7781C3.38491 18.6941 3.28868 18.562 3.16731 18.4984C3.06736 18.446 2.97001 18.4336 2.8734 18.3624C2.75521 18.2754 2.63701 18.1155 2.49312 18.0668C2.46465 18.057 2.44008 18.0668 2.41234 18.054C2.36339 18.0313 2.31276 17.9677 2.26902 17.9086C2.29377 17.9259 2.32039 17.9409 2.3431 17.9596C2.36636 17.9313 2.37958 17.8971 2.39689 17.8649C2.46558 17.7373 2.5525 17.6295 2.64241 17.517C2.80844 17.3099 2.97596 17.1105 3.11166 16.8797C3.28626 16.5833 3.41823 16.2559 3.61107 15.9771C3.68999 15.8633 3.75272 15.7352 3.76556 15.5956C3.7771 15.4695 3.87631 15.3815 3.96138 15.3C4.00512 15.2584 4.07362 15.2268 4.11122 15.1827C4.17711 15.105 4.18995 14.9419 4.23165 14.8485C4.32453 14.6397 4.46246 14.4505 4.55441 14.2398C4.70555 13.8934 4.77312 13.5152 4.90007 13.1605C4.94381 13.0389 4.9816 12.8992 5.06908 12.8026C5.09291 12.7761 5.12529 12.7502 5.14968 12.7228C5.20924 12.6553 5.2554 12.5852 5.3025 12.5073C5.4099 12.33 5.53982 12.1666 5.65727 11.9968C5.7872 11.8087 5.92922 11.6299 6.0852 11.464C6.28437 11.2526 6.48484 11.0438 6.65962 10.8105C6.76814 10.6655 6.86419 10.5254 6.89546 10.3423C6.9124 10.2432 6.92673 10.1443 6.96024 10.0494C7.05275 9.78749 7.27704 9.56798 7.44903 9.35921C7.64187 9.12532 7.88497 8.9453 8.07669 8.70872C8.25166 8.49285 9.56113 6.32707 10.1724 5.38212L10.2954 5.46877C9.998 6.08091 9.53694 6.95091 9.73573 6.68615C9.66947 6.82629 9.56151 6.94554 9.47663 7.07437C9.20189 7.49154 8.99267 7.94091 8.77545 8.39719C8.7183 8.51739 8.67773 8.64431 8.63733 8.7716C8.59862 8.89392 8.5331 9.01316 8.51746 9.14257C8.60532 9.08218 8.69504 8.94817 8.75814 8.87571C8.96121 8.64239 9.1749 8.43534 9.39845 8.22331C9.53507 8.0939 9.80572 7.51052 9.97287 7.42367C10.0073 7.40584 10.811 6.54793 10.8373 6.56307C10.7815 6.63611 10.6186 7.22237 10.578 7.305C10.4566 7.55135 10.3213 7.68018 10.2322 7.94034C10.1996 8.036 10.1746 8.43266 9.77128 8.90753C9.63317 9.0701 9.37891 9.47059 9.32548 9.67764C9.28751 9.8243 9.21417 9.95888 9.15759 10.0985C9.11217 10.2104 9.07736 10.3302 9.02357 10.438C8.98429 10.5164 8.94446 10.5831 8.91505 10.6661C8.88657 10.7468 8.66209 11.2087 8.56474 11.3285C8.69243 11.1939 9.03697 10.7967 9.15405 10.7183C9.37798 10.5683 9.54531 10.355 9.75565 10.1893C9.92373 10.0572 10.4775 9.10365 10.6646 8.99648C10.6854 9.06646 10.9525 8.64047 10.4628 10.3377C10.4045 10.5398 10.1032 10.5204 10.0706 10.7277C10.0488 10.8666 10.0153 10.9972 9.9805 11.1326C9.94383 11.2756 9.94141 11.4243 9.90437 11.567C9.85002 11.7759 9.80684 11.9836 9.75118 12.1916C9.70967 12.3478 9.62721 12.4722 9.57174 12.6218C9.51665 12.7704 9.48966 12.922 9.44108 13.0752C9.41502 13.1567 9.37649 13.2322 9.35247 13.3146C9.3333 13.3804 9.32865 13.4492 9.3091 13.5148C9.29272 13.57 9.27169 13.6256 9.25084 13.681C9.32139 13.5623 9.40943 13.4521 9.48817 13.3407C9.5442 13.3672 9.54457 13.4185 9.48947 13.4943C9.4206 13.6841 9.35359 13.8748 9.28844 14.0659C9.18067 14.42 9.10863 14.7883 9.03455 15.1512C8.98858 15.3767 8.95042 15.605 8.89755 15.8289C8.85512 15.9961 8.80784 16.1619 8.7559 16.3266C8.69671 16.3943 8.6902 16.4461 8.73617 16.4821C8.9923 16.1976 9.289 15.9559 9.53991 15.6646C9.62349 15.5674 9.71265 15.4758 9.81074 15.3941C10.0477 15.1969 10.261 14.985 10.4721 14.7575C10.6439 14.5723 10.8205 14.3921 11.0039 14.2189C11.1982 14.0355 11.3752 13.8292 11.531 13.6089C11.5396 13.6432 11.548 13.6766 11.5576 13.7153C11.5995 13.6653 11.6533 13.6336 11.6945 13.5838C11.7347 13.5355 11.7643 13.4774 11.8009 13.4268C11.8901 13.3037 11.9705 13.1682 12.077 13.0616C12.1726 12.9661 12.2774 12.853 12.3532 12.7418C12.4159 12.6498 12.4666 12.5585 12.5494 12.4816C12.6661 12.3731 12.7675 12.2531 12.871 12.131C12.9723 12.0114 13.089 11.9207 13.185 11.7951C13.2971 11.6481 13.4166 11.5072 13.5106 11.3475C13.5484 11.2832 13.5854 11.215 13.6256 11.1527C13.6571 11.104 14.1539 10.5919 14.1798 10.5398C14.2981 10.5287 13.8049 11.3331 13.8054 11.3969C13.8066 11.5357 13.7505 11.6705 13.6707 11.7828C13.722 11.7784 13.7522 11.7407 13.7887 11.7071C13.9095 11.5961 14.0279 11.4822 14.1494 11.3714C14.3397 11.1985 14.5485 11.0474 14.7369 10.873C14.8219 10.7942 14.8932 10.7 14.9962 10.6429C15.0943 10.5885 15.1974 10.2664 15.2746 10.1836C15.995 9.4125 16.507 8.84963 16.6001 8.87781C16.7125 8.91194 15.6571 10.6009 15.6262 10.6613C15.5871 10.738 15.6223 10.7436 15.6218 10.8239C15.6212 10.9176 15.5706 11.0122 15.5613 11.1069C15.5516 11.2033 15.5239 11.2821 15.4989 11.377C15.5603 11.4128 15.7314 11.2188 15.7457 11.2052C15.9713 10.9918 16.1778 10.7537 16.4182 10.5572C16.5312 10.4648 17.0144 9.7689 17.1475 9.70889C17.1715 9.77446 16.773 10.484 16.773 10.5528V10.8582C16.773 10.9347 16.7835 11.0256 16.7743 11.1021C16.7654 11.1774 16.7213 11.248 16.6952 11.3177C16.6751 11.3718 16.6502 11.4148 16.6368 11.4736C16.615 11.5679 16.5649 11.641 16.5331 11.732C16.483 11.8752 16.4538 12.0307 16.4136 12.1778C16.3829 12.2895 16.3345 12.389 16.2969 12.4974C16.271 12.5723 16.2576 12.6515 16.2291 12.7253C16.1867 12.8352 16.1175 12.9304 16.0638 13.0343C16.011 13.1369 15.9933 13.25 15.9382 13.3507C15.8928 13.4335 15.869 13.5017 15.8425 13.593C15.828 13.6434 15.7837 13.7132 15.7973 13.7609C15.8658 13.6384 15.9538 13.5502 16.0434 13.4421C16.2446 13.1994 16.438 12.9463 16.6349 12.6996C16.8421 12.4393 17.0502 12.1799 17.243 11.9078C17.3945 11.6945 17.5548 11.4866 17.6976 11.2669C17.7197 11.2328 17.7415 11.1956 17.7663 11.1628C17.7901 11.1314 17.832 11.0539 17.8634 11.0453C17.8755 11.1799 17.7674 11.3369 17.7363 11.4669C17.718 11.5424 17.6894 11.6484 17.7612 11.6931C17.8089 11.7228 17.9587 11.6994 18.0021 11.6985C18.1497 11.6947 18.29 11.6761 18.4267 11.6149C18.4751 11.5932 18.5337 11.5384 18.5841 11.5702C18.6348 11.6021 18.6035 11.7826 18.616 11.8329C18.607 11.868 18.6184 11.8948 18.6502 11.9134C18.7183 11.913 18.7863 11.9084 18.854 11.8998C18.9598 11.8802 19.0633 11.8398 19.1679 11.8139C19.2678 11.789 19.3164 11.7543 19.379 11.8317C19.5053 11.9884 19.5697 12.2098 19.7415 12.3262C19.9599 12.4743 20.2406 12.4174 20.4842 12.4396C20.5222 12.6709 20.6116 12.8911 20.6592 13.1208C20.6655 13.1511 20.6791 13.1818 20.6853 13.2105C20.6897 13.2322 20.683 13.2838 20.6897 13.3018C20.7216 13.3888 20.8882 13.3002 20.9326 13.2659C21.1404 13.106 21.4067 12.9557 21.6504 12.875C21.8049 12.8238 21.9838 12.7696 22.1476 12.7652C22.2062 12.7638 22.2404 12.761 22.2829 12.7932C22.3711 12.8603 22.3817 12.9717 22.3988 13.075C22.4232 13.2226 22.4508 13.3654 22.4491 13.5155C22.4485 13.5778 22.4357 13.9256 22.5489 13.8786C22.587 13.8627 22.6198 13.8035 22.6511 13.7757C22.7008 13.7312 22.7581 13.6942 22.816 13.6618C22.969 13.5761 23.1039 13.5625 23.275 13.5437C23.3204 13.5387 23.3779 13.5447 23.4222 13.5307C23.4699 13.5155 23.4667 13.5075 23.5291 13.5069C23.6033 13.506 23.6614 13.5079 23.7236 13.5299C23.774 13.5478 23.8232 13.5635 23.8677 13.5882C23.8999 13.6062 23.9901 13.6218 24.0073 13.6448C23.9985 13.561 23.9747 13.505 23.9764 13.4185C23.9775 13.3581 23.9553 13.3252 23.9462 13.27C23.9429 13.2502 23.9505 13.2297 23.9484 13.21C23.9453 13.1785 23.9302 13.1664 23.9252 13.1448C23.908 13.0727 23.9151 13.0892 23.8682 13.0336C23.8444 13.005 23.826 12.9694 23.7977 12.9442C23.7632 12.9136 23.7258 12.8863 23.6888 12.8591C23.6981 12.8639 23.704 12.8676 23.7148 12.8729C23.6432 12.7876 23.5522 12.7153 23.487 12.626C23.4362 12.5562 23.3936 12.4859 23.3353 12.4211C23.2754 12.3543 23.2022 12.2938 23.1544 12.2161C23.0615 12.0656 23.0453 11.8637 23.0291 11.6904C23.0222 11.6162 23.0187 11.607 22.9768 11.5532C22.9154 11.4742 22.8203 11.4002 22.7177 11.3779C22.6767 11.3689 22.6338 11.3703 22.5904 11.3735C22.5645 11.3365 22.5256 11.3172 22.4666 11.3055C22.3657 11.2855 22.2805 11.2223 22.1913 11.1941C22.1083 11.1678 22.0515 11.1021 21.9884 11.0459C21.9614 11.0221 21.9508 10.9905 21.9283 10.966C21.8414 10.8724 21.7392 10.7737 21.6435 10.6882C21.5439 10.5992 21.6679 10.5033 21.5932 10.4014C21.4808 10.247 21.3794 10.0902 21.2991 9.91268C21.2191 9.92725 21.1249 9.76813 21.0873 9.71119C20.9699 9.53347 20.8003 9.38662 20.7013 9.19606C20.6666 9.12896 20.6505 9.05112 20.6155 8.98268C20.5771 8.90772 20.5337 8.83832 20.4915 8.76585C20.4543 8.70163 20.4263 8.63031 20.3874 8.56781C20.3737 8.54538 20.3532 8.51874 20.3342 8.5011C20.2316 8.40754 20.1144 8.33335 20.0159 8.22982C19.9426 8.15276 19.8718 8.07434 19.7989 7.99804C19.7615 7.95893 19.7523 7.90353 19.7198 7.86691C19.693 7.83681 19.6766 7.85196 19.6455 7.83777C19.5629 7.80077 19.4733 7.72773 19.4082 7.66446C19.3199 7.57838 19.336 7.42578 19.3144 7.30634C19.2868 7.15316 19.2583 7.02299 19.1822 6.88611C19.1128 6.76111 18.8488 6.65778 18.7215 6.611C18.5564 6.55023 18.5261 6.40299 18.4766 6.24962C18.4494 6.16546 18.4095 6.17025 18.3289 6.18521C18.2791 6.19441 18.2603 6.21971 18.2435 6.13689C18.2374 6.10584 18.2457 6.0767 18.2448 6.04564C18.2424 5.9425 18.1897 5.86389 18.1534 5.77168C18.1195 5.68656 18.1047 5.63192 18.0417 5.55715C18.004 5.51191 17.9563 5.42832 17.91 5.39381C17.8846 5.37483 17.8578 5.3802 17.8379 5.3595C17.7741 5.29297 17.8104 5.08497 17.8102 4.9985C17.8102 4.91683 17.8176 4.86219 17.7828 4.79586C17.7249 4.68582 17.6507 4.6561 17.5656 4.5752C17.5206 4.53206 17.472 4.49621 17.432 4.44809C17.3795 4.38483 17.3528 4.31428 17.3193 4.24469C17.273 4.14979 17.2227 4.15132 17.1211 4.1912C17.045 4.22111 16.9733 4.24565 16.899 4.27709C16.9288 4.22168 16.9415 4.05259 16.8961 4.01367C16.8261 4.07291 16.8117 4.20289 16.7678 4.28054C16.7354 4.33767 16.6909 4.36374 16.6491 4.41129C16.6137 4.45154 16.5964 4.5012 16.5651 4.5451C16.5029 4.63233 16.4408 4.72359 16.3712 4.80411C16.341 4.83881 16.3047 4.86507 16.2753 4.89977C16.2172 4.96821 16.1701 5.04355 16.1089 5.11104C16.0599 5.16491 16.0104 5.22108 15.9631 5.27955C15.9557 5.25156 15.9475 5.22626 15.9131 5.2182C15.8485 5.35701 15.7632 5.47759 15.6705 5.60086C15.61 5.68119 15.5376 5.75711 15.4732 5.83418C15.396 5.92601 15.3305 6.02206 15.2571 6.11791C15.1851 6.21243 15.0859 6.27474 15.0112 6.36522C14.9578 6.42964 14.3812 7.09757 14.3331 7.15872C14.3181 7.17444 14.3013 7.18748 14.2823 7.19783C14.2602 7.22966 14.2406 7.2634 14.2241 7.29867C14.185 7.36021 14.1345 7.41581 14.0936 7.47658C13.9992 7.61692 13.9136 7.7653 13.8287 7.90679C13.8019 7.95146 13.8067 7.93919 13.7933 7.99498C13.7788 8.05479 13.7464 8.05575 13.712 8.10387C13.6809 8.1472 13.6599 8.21851 13.634 8.2674C13.5784 8.37169 13.5355 8.46525 13.4613 8.5588C13.3574 8.68955 13.2763 8.82452 13.1623 8.94606C13.0067 9.1119 12.8963 9.31032 12.7459 9.47845C12.4554 9.80321 12.2214 10.1855 11.9623 10.5373C11.8609 10.6753 11.703 10.9067 11.6213 11.058C11.547 11.1962 11.459 11.3292 11.3905 11.469C11.298 11.6578 11.2148 11.8438 11.0999 12.0206C10.9663 12.2263 10.8122 12.423 10.6841 12.6321C10.7332 12.5257 10.7748 12.4149 10.8174 12.317C10.8697 12.1967 10.9505 12.0926 11.0115 11.9774C11.0629 11.881 11.0843 11.7763 11.1459 11.6876C11.2286 11.5689 11.2734 11.4161 11.3218 11.2802C11.346 11.2127 11.3618 11.1395 11.3914 11.0735C11.4221 11.0049 11.4668 10.9426 11.4964 10.873C11.555 10.7355 11.5822 10.5921 11.666 10.4633C11.765 10.3111 11.8462 10.1479 11.9119 9.97748C12.0476 9.62645 12.2395 9.30054 12.3711 8.94817C12.4483 8.74151 12.5434 8.54308 12.651 8.35118C12.6644 8.32741 12.6765 8.30287 12.6897 8.2789C12.707 8.29386 12.724 8.30977 12.7419 8.32376C12.856 8.18151 12.9963 8.06227 13.0966 7.89912C13.2059 7.72083 13.3972 7.59832 13.479 7.4022C13.5218 7.29887 13.5916 7.20857 13.6526 7.11329C13.7036 7.03392 13.7673 6.96298 13.8144 6.88112C13.8436 6.81364 13.879 6.74999 13.9207 6.69018C13.9638 6.64493 14.0094 6.60256 14.0575 6.56326C14.1621 6.46089 14.064 6.22662 14.1881 6.1461C14.1933 6.14284 14.2019 6.13651 14.2088 6.13172C14.2153 6.11964 14.2192 6.10775 14.2269 6.09587C14.4377 5.76478 14.6211 5.41855 14.7962 5.06733C14.7801 4.94981 14.7691 4.8296 14.7348 4.71688C14.7192 4.66511 14.698 4.62447 14.6766 4.57539C14.6492 4.5127 14.6652 4.4688 14.6512 4.41186C14.63 4.32655 14.5526 4.28667 14.5077 4.21516C14.4861 4.18066 14.2903 4.33019 14.2693 4.29702C14.1848 4.16302 14.072 4.0501 13.9912 3.90804C13.9655 3.86299 13.946 3.80547 13.9164 3.76234C13.8799 3.70904 13.8268 3.67952 13.7915 3.62392C13.7459 3.55145 13.7161 3.46844 13.6643 3.39866C13.6197 3.33865 13.5543 3.29743 13.5099 3.23896C13.4389 3.14598 13.4118 3.01101 13.3131 2.93855C13.2602 2.89982 13.2513 2.92225 13.1945 2.9119C13.081 2.89119 13.0816 2.76485 13.0209 2.6782C12.9922 2.63736 12.9669 2.60401 12.9434 2.55991C12.8837 2.46751 12.8267 2.37357 12.772 2.2779C12.7649 2.22557 12.7415 2.1901 12.702 2.17131C12.6454 2.23534 12.611 2.31471 12.5384 2.36552C12.3813 2.25797 12.3137 2.10402 12.2214 1.94452C12.1996 1.90694 12.2009 1.87799 12.1875 1.84329C12.1697 1.79747 12.1436 1.76776 12.1332 1.71503C12.1226 1.66116 12.1324 1.62589 12.109 1.57643C12.0818 1.5191 12.0554 1.86975 12.0409 1.80801C12.0087 1.67132 11.9556 1.53367 11.9057 1.39756C11.8385 1.2137 11.7911 1.02103 11.725 0.837181C11.6987 0.76433 11.693 0.679017 11.6626 0.609617C11.6314 0.538683 11.5986 0.486346 11.5789 0.409469C11.5621 0.344861 11.5508 0.304026 11.5515 0.23175C11.5521 0.16791 11.5738 0.0594005 11.5457 -3.05176e-05C11.5133 0.00878828 11.5027 0.136469 11.488 0.177688C11.4568 0.266259 11.3996 0.340452 11.3488 0.416754C11.2769 0.52488 11.2049 0.631473 11.1414 0.74075C11.0188 0.952017 10.9229 1.17249 10.8055 1.38893C10.7885 1.37359 10.7746 1.35711 10.7666 1.33908C10.7569 1.31761 10.764 1.27601 10.7599 1.25186C10.7528 1.21025 10.7453 1.17939 10.7409 1.14335C10.7442 1.20239 10.7465 1.29307 10.7318 1.24879C10.7033 1.26278 10.6785 1.30419 10.6562 1.33372C10.5752 1.44012 10.508 1.17306 10.4231 1.27697C10.2722 1.46178 10.0989 1.61688 9.93937 1.79287C9.8221 1.92189 9.70334 2.05015 9.56821 2.15904C9.34447 2.33906 9.14326 2.54247 8.96307 2.76696C8.8795 2.87106 8.78866 2.97286 8.69355 3.06604C8.57479 3.18221 8.40485 3.28095 8.31327 3.4209C8.27195 3.48435 8.23919 3.57331 8.23007 3.64903C8.21313 3.79205 8.26655 3.95616 8.22578 4.094C8.18074 4.24526 8.06962 4.40707 7.97934 4.53168C7.88813 4.65725 7.77384 4.76768 7.69064 4.90188C7.65565 4.95843 7.65267 5.01537 7.61265 5.0725C7.55588 5.15379 7.48254 5.22376 7.4239 5.30371C7.18807 5.62502 6.93101 5.93483 6.72012 6.27569C6.66204 6.36963 6.6479 6.47853 6.59634 6.57438C6.55837 6.64551 6.50494 6.71548 6.46437 6.78527C6.37502 6.93864 6.26762 7.08146 6.17418 7.23234C6.0463 7.43882 5.91936 7.64472 5.77715 7.84103C5.66193 8.00015 5.53554 8.15045 5.41809 8.30766C5.30194 8.46506 5.18635 8.62303 5.07131 8.78119C5.08769 8.74477 5.10314 8.70719 5.11841 8.68303C5.15601 8.62303 5.20291 8.57069 5.24107 8.51126C5.36597 8.31667 5.40059 8.04866 5.43745 7.8278C5.50669 7.41159 5.57556 7.00018 5.60367 6.57745C5.60702 6.52703 5.61242 6.47623 5.61744 6.42542C5.49738 6.54582 5.37825 6.66717 5.26546 6.79504C5.12641 6.95282 4.99146 7.1131 4.85055 7.2657C4.77331 7.3721 4.6955 7.47793 4.61937 7.58452C4.5237 7.71814 4.42709 7.85196 4.32509 7.98041C4.16073 8.18765 3.9208 8.36422 3.77431 8.58679C3.71288 8.67997 3.73038 8.75301 3.73634 8.86133C3.74322 8.98709 3.72722 9.05937 3.64922 9.16462C3.55094 9.29709 3.432 9.40253 3.32832 9.52887C3.10049 9.80628 2.8989 10.1128 2.68894 10.4048C2.64129 10.4713 2.5875 10.5323 2.53333 10.5933C2.33919 10.8122 2.15938 11.0944 2.02145 11.3507C1.82675 11.7125 1.71544 12.107 1.53843 12.4765C1.49952 12.5576 1.45187 12.6116 1.40608 12.6839C1.34038 12.7874 1.2836 12.9019 1.22181 13.0067C1.07867 13.2494 0.934968 13.4937 0.776751 13.7262C0.66935 13.884 0.56046 14.0422 0.451755 14.199C0.327043 14.3788 0.234905 14.5761 0.115219 14.7584C0.074455 14.8207 0.0381582 14.8905 0 14.9591C0.0208474 15.1068 0.039275 15.2553 0.0684986 15.401C0.0805975 15.4612 0.0960469 15.5209 0.109821 15.5809C0.12192 15.5954 0.131785 15.6136 0.138114 15.6355C0.192466 15.8255 0.249424 16.018 0.312525 16.2087C0.321087 16.2137 0.331325 16.2177 0.339142 16.2231C0.437981 16.2894 0.530305 16.3736 0.589869 16.4802C0.641802 16.5732 0.675679 16.679 0.728728 16.7718C0.751995 16.8686 0.774704 16.9652 0.797785 17.0613C0.799832 17.1104 0.808209 17.1521 0.845995 17.1949C0.892157 17.2469 0.939063 17.2804 0.977966 17.3431C1.02748 17.423 1.06284 17.4689 1.13227 17.5018C1.24954 17.6811 1.33609 17.8843 1.43382 18.0741C1.53266 18.2664 1.62926 18.4596 1.7227 18.6546C1.87682 18.8009 2.01363 18.9594 1.9349 19.0085C1.97734 18.9548 2.03355 18.9192 2.10372 18.9017C2.21094 18.8423 2.32281 18.7951 2.43933 18.7599C2.51434 18.7842 2.51863 18.8793 2.52458 18.9508C2.53296 19.0509 2.52328 19.1561 2.52346 19.2568C2.52346 19.3296 2.50038 19.4445 2.527 19.5133C2.61318 19.5349 2.70234 19.5277 2.78555 19.5744C2.87061 19.6222 2.95065 19.7017 3.03236 19.7566C3.10366 19.8045 3.17625 19.8545 3.25722 19.8839C3.30878 19.9027 3.32665 19.8996 3.36015 19.9446C3.39608 19.9929 3.41972 20.0547 3.44503 20.1086C3.47556 20.1734 3.49938 20.2174 3.5556 20.2613C3.76575 20.4256 3.9718 20.6262 4.09093 20.8735C4.13058 20.9559 4.21136 21.0451 4.29289 21.0894C4.40755 21.1519 4.55385 21.1664 4.67689 21.208C4.71616 21.2213 4.8137 21.2446 4.83697 21.2912C4.81109 21.3614 4.73199 21.4887 4.79229 21.5621C4.81984 21.5957 4.86433 21.5938 4.90267 21.6003C4.97099 21.6123 5.03669 21.6256 5.10091 21.6526C5.19584 21.6923 5.26136 21.7533 5.34494 21.8069C5.4784 21.8924 5.58691 21.9994 5.75258 22.0111C5.93443 22.0236 6.1202 21.9804 6.30075 22.0243C6.40462 22.0496 6.50066 22.105 6.59801 22.1482C6.67935 22.1844 6.76126 22.2072 6.83441 22.2601C6.91984 22.3219 6.86493 22.3769 6.98499 22.3911C7.06168 22.4001 7.16722 22.3878 7.22492 22.4522C7.28765 22.5222 7.21543 22.6177 7.34517 22.6558C7.40957 22.675 7.47751 22.6572 7.54508 22.6852C7.59664 22.7065 7.64801 22.7465 7.68617 22.787C7.74946 22.8543 7.79767 22.9137 7.87585 22.9672C8.02718 23.0707 8.15673 23.2649 8.33058 23.3301C8.49122 23.3901 8.67568 23.3836 8.84302 23.4068C8.91151 23.4162 8.95395 23.4286 9.00607 23.4748C9.15405 23.6065 9.35713 23.5412 9.54271 23.5577C9.58664 23.5617 9.7052 23.5653 9.72065 23.6248C9.72884 23.6562 9.69106 23.693 9.69459 23.7314C9.69981 23.7906 9.71284 23.7866 9.76365 23.7885C9.81 23.79 9.86714 23.7651 9.91591 23.7622C9.98925 23.7574 10.062 23.7586 10.1356 23.759C10.3515 23.7601 10.5706 23.7814 10.7815 23.7283C10.9125 23.6953 11.0327 23.6422 11.1604 23.5993C11.2276 23.5766 11.2379 23.5809 11.2892 23.6037C11.349 23.6303 11.4266 23.6474 11.4932 23.6746C11.5865 23.7126 11.6677 23.7726 11.757 23.8193C11.8545 23.87 11.9573 23.8353 12.0623 23.8554C12.1295 23.8684 12.2007 23.8794 12.2665 23.8974C12.3489 23.9202 12.4256 23.9823 12.5082 23.9973C12.5639 24.0072 12.6238 23.9877 12.6769 23.9719C12.8232 23.9284 12.9641 23.8661 13.1145 23.8368C13.279 23.8048 13.4466 23.8422 13.6089 23.8136C13.8872 23.7645 14.0887 23.5377 14.3389 23.4298C14.3449 23.5513 14.3527 23.629 14.4956 23.5887C14.6306 23.5506 14.7588 23.4948 14.8828 23.4304C14.9418 23.3997 14.9587 23.4179 15.0181 23.4131C15.0656 23.4097 15.1142 23.3797 15.1642 23.3736C15.2162 23.3673 15.2463 23.3644 15.3014 23.3458C15.3738 23.3215 15.4375 23.2887 15.5134 23.2849C15.6596 23.2774 15.8014 23.2521 15.9458 23.2268C16.1372 23.1934 16.3174 23.1257 16.5048 23.0743C16.577 23.0542 16.6483 23.0573 16.7196 23.0418C16.8331 23.0172 16.9994 22.8805 17.0729 22.8301C17.2646 22.699 17.4573 22.5678 17.6464 22.4331C17.7556 22.3552 17.8649 22.2772 17.9712 22.1952C18.0257 22.153 18.0944 22.0786 18.1629 22.0669C18.1977 22.061 18.2463 22.0861 18.2783 22.0728C18.3306 22.0514 18.3956 21.9204 18.4298 21.8752C18.5054 21.7757 18.5853 21.6733 18.6677 21.5809C18.8144 21.416 18.9869 21.2962 19.1437 21.1453C19.2574 21.0361 19.3698 20.9283 19.4903 20.8271C19.5461 20.7799 19.5926 20.7353 19.639 20.6764C19.8376 20.4253 19.9552 20.1262 20.1713 19.8864C20.2627 19.7849 20.3433 19.6803 20.4392 19.5817C20.5148 19.5043 20.5825 19.3843 20.6683 19.3212C20.7318 19.2746 20.7569 19.2773 20.8016 19.2048C20.8742 19.0863 21.0886 19.2591 21.1661 19.1437C21.3161 18.9201 21.3637 18.46 21.5711 18.2905C21.6722 18.2079 22.0629 18.2959 22.1455 18.1941C22.1961 18.132 21.9607 17.9037 22.0117 17.8425C22.0679 17.7748 22.1068 17.6955 22.1543 17.6215C22.2682 17.4437 22.3518 17.2336 22.4839 17.0653C22.5195 17.0201 22.5708 16.9836 22.6025 16.9351C22.6285 16.8951 22.6429 16.8331 22.6624 16.789C22.6995 16.7047 22.735 16.6 22.7836 16.5197C22.8515 16.4075 22.945 16.37 23.0462 16.3274C23.1078 16.2068 23.1741 16.0887 23.2385 15.9699C23.3305 15.8008 23.4165 15.6367 23.5283 15.4796C23.5857 15.3991 23.6469 15.3184 23.7029 15.2344C23.7033 15.2243 23.7033 15.2139 23.7065 15.2053C23.7249 15.1539 23.7426 15.1566 23.7711 15.1223C23.7733 15.1196 23.775 15.1163 23.7772 15.1135C23.807 15.0609 23.8342 15.0073 23.855 14.9507C23.8686 14.9141 23.8924 14.8909 23.9194 14.8752C23.9581 14.7795 23.9626 14.6808 23.9622 14.5709C23.9617 14.444 23.93 14.3269 23.9313 14.199C23.9319 14.1522 23.944 14.0811 23.9278 14.0376" fill="black"/>
</svg>
