<?xml version="1.0" encoding="UTF-8" standalone="no"?>
<!-- Created with Inkscape (http://www.inkscape.org/) -->

<svg
   width="37.203766"
   height="24"
   viewBox="0 0 9.8434964 6.35"
   version="1.1"
   id="svg6480"
   inkscape:version="1.2.1 (9c6d41e4, 2022-07-14)"
   sodipodi:docname="guardians-of-the-abyss.svg"
   xmlns:inkscape="http://www.inkscape.org/namespaces/inkscape"
   xmlns:sodipodi="http://sodipodi.sourceforge.net/DTD/sodipodi-0.dtd"
   xmlns="http://www.w3.org/2000/svg"
   xmlns:svg="http://www.w3.org/2000/svg">
  <sodipodi:namedview
     id="namedview6482"
     pagecolor="#505050"
     bordercolor="#eeeeee"
     borderopacity="1"
     inkscape:showpageshadow="0"
     inkscape:pageopacity="0"
     inkscape:pagecheckerboard="0"
     inkscape:deskcolor="#505050"
     inkscape:document-units="mm"
     showgrid="false"
     inkscape:zoom="0.7046647"
     inkscape:cx="78.051306"
     inkscape:cy="19.158048"
     inkscape:window-width="1390"
     inkscape:window-height="941"
     inkscape:window-x="0"
     inkscape:window-y="25"
     inkscape:window-maximized="0"
     inkscape:current-layer="layer1" />
  <defs
     id="defs6477">
    <clipPath
       clipPathUnits="userSpaceOnUse"
       id="clipPath203">
      <path
         d="m 98.369,38.543 h 55.262 V 93.799 H 98.369 Z"
         id="path201" />
    </clipPath>
  </defs>
  <g
     inkscape:label="Layer 1"
     inkscape:groupmode="layer"
     id="layer1"
     transform="translate(-84.441083,-143.63537)">
    <g
       id="g197"
       transform="matrix(0.19636905,0,0,-0.19636905,64.620323,159.80439)">
      <g
         id="g199"
         clip-path="url(#clipPath203)">
        <g
           id="g205"
           transform="matrix(0.383765,0,0,-0.383729,126,58.9571)">
          <g
             id="g207"
             transform="translate(64.3613,1.3897)">
            <path
               d="m 0,0 c -0.141,-0.497 -0.466,-0.943 -0.752,-1.336 -0.096,-0.131 -0.186,-0.252 -0.249,-0.357 -0.547,-0.922 -1.148,-1.635 -1.77,-2.345 -0.315,-0.359 -0.583,-0.817 -0.868,-1.303 -0.333,-0.57 -0.677,-1.159 -1.15,-1.685 L -4.88,-7.127 c -0.298,-0.332 -0.556,-0.618 -0.757,-0.973 -0.601,-1.062 -1.009,-1.629 -1.973,-2.39 -0.892,-0.702 -1.714,-1.702 -2.379,-2.892 -0.885,-1.583 -1.773,-3.121 -2.893,-4.527 -0.264,-0.33 -0.527,-0.654 -0.79,-0.977 -1.053,-1.29 -2.047,-2.51 -2.855,-4.01 -0.094,-0.172 -0.196,-0.334 -0.298,-0.495 -0.142,-0.22 -0.253,-0.395 -0.311,-0.571 -0.026,-0.081 -0.046,-0.161 -0.065,-0.239 -0.056,-0.223 -0.115,-0.44 -0.214,-0.658 -0.367,-0.818 -1.085,-1.418 -1.661,-1.9 l -0.287,-0.244 c -0.796,-0.699 -1.626,-1.346 -2.428,-1.971 l -0.357,-0.278 c -0.579,-0.452 -1.271,-0.952 -2.171,-1.168 -0.124,-0.031 -0.255,-0.048 -0.397,-0.043 -0.113,-0.045 -0.32,-0.233 -0.487,-0.384 -0.223,-0.202 -0.475,-0.43 -0.78,-0.614 -0.262,-0.157 -0.538,-0.298 -0.815,-0.438 -0.266,-0.135 -0.535,-0.268 -0.781,-0.428 -0.313,-0.201 -0.62,-0.588 -0.947,-0.997 -0.299,-0.374 -0.609,-0.762 -0.99,-1.102 -0.46,-0.411 -0.961,-0.699 -1.403,-0.954 -0.319,-0.184 -0.621,-0.357 -0.881,-0.559 -0.654,-0.507 -1.304,-1.068 -1.933,-1.61 -1.118,-0.963 -2.272,-1.959 -3.566,-2.765 -0.469,-0.293 -0.909,-0.708 -1.375,-1.148 -0.377,-0.356 -0.766,-0.724 -1.204,-1.059 -0.618,-0.472 -1.31,-0.928 -2.056,-1.356 -0.81,-0.465 -1.552,-0.981 -2.371,-1.559 -0.646,-0.456 -1.301,-0.776 -1.934,-1.086 -0.346,-0.169 -0.693,-0.337 -1.033,-0.53 -0.647,-0.365 -1.306,-0.696 -1.964,-1.026 -1.165,-0.583 -2.266,-1.134 -3.285,-1.873 -0.383,-0.278 -0.765,-0.565 -1.147,-0.852 -0.824,-0.617 -1.675,-1.257 -2.556,-1.818 -0.375,-0.24 -0.74,-0.49 -1.103,-0.739 -0.828,-0.568 -1.684,-1.154 -2.648,-1.608 -0.661,-0.312 -1.301,-0.886 -1.98,-1.494 -0.765,-0.687 -1.557,-1.396 -2.508,-1.844 -0.846,-0.397 -1.329,-0.701 -1.792,-1.357 -0.068,-0.097 -0.183,-0.389 -0.266,-0.602 -0.249,-0.632 -0.531,-1.349 -1.154,-1.745 -1.297,-0.824 -2.243,0.188 -2.554,0.52 -0.077,0.082 -0.153,0.17 -0.242,0.24 -0.07,0.055 -0.146,0.095 -0.22,0.137 -0.178,0.102 -0.4,0.229 -0.624,0.434 -0.152,0.139 -0.289,0.294 -0.424,0.451 -0.093,0.109 -0.181,0.223 -0.3,0.315 -0.343,0.269 -0.763,0.473 -1.207,0.689 -0.546,0.265 -1.166,0.566 -1.733,1.04 -0.879,0.736 -1.706,1.546 -2.505,2.33 l -0.766,0.746 c -1.07,1.031 -2.104,2.137 -3.104,3.206 l -0.679,0.725 c -0.248,0.264 -0.474,0.558 -0.697,0.852 -0.281,0.368 -0.546,0.717 -0.822,0.922 -0.954,0.706 -1.749,1.315 -2.581,2.173 -1.198,1.234 -2.609,2.09 -3.955,2.832 -0.818,0.45 -1.421,1.171 -2.004,1.869 -0.237,0.283 -0.471,0.566 -0.716,0.814 -0.601,0.609 -1.288,1.083 -2.014,1.584 -0.702,0.484 -1.428,0.985 -2.115,1.636 -0.349,0.333 -0.764,0.588 -1.203,0.858 -0.49,0.301 -1.045,0.642 -1.567,1.132 l -0.376,0.356 c -0.702,0.665 -1.308,1.24 -2.042,1.668 -0.819,0.477 -1.467,1.337 -2.038,2.096 -0.219,0.29 -0.432,0.575 -0.645,0.819 -1.109,1.274 -1.973,2.205 -2.801,3.017 -0.492,0.481 -0.87,0.882 -1.23,1.299 -0.079,0.091 -0.171,0.203 -0.271,0.325 -0.19,0.233 -0.636,0.777 -0.743,0.858 -0.051,0.013 -0.106,0.018 -0.163,0.026 -0.181,0.026 -0.429,0.062 -0.686,0.167 -0.457,0.186 -0.595,0.286 -0.96,0.595 -0.609,0.516 -1.129,1.112 -1.631,1.69 l -0.689,0.782 c -0.853,0.958 -1.734,1.949 -2.462,3.178 -0.473,0.799 -0.765,1.224 -1.348,1.784 -0.398,0.383 -0.643,0.828 -0.859,1.221 -0.078,0.143 -0.157,0.286 -0.244,0.424 -0.58,0.915 -1.186,1.754 -1.827,2.642 l -0.58,0.806 c -0.411,0.576 -0.799,1.178 -1.187,1.78 -0.394,0.613 -0.788,1.225 -1.21,1.807 -0.383,0.529 -0.69,1.161 -1.18,1.605 -0.143,0.13 -0.299,0.242 -0.409,0.404 -0.36,0.533 -0.381,1.28 -0.495,1.892 -0.045,0.243 -0.145,0.418 -0.217,0.648 -0.251,0.792 -0.496,1.589 -0.7,2.391 -0.049,0.193 -0.158,0.341 -0.238,0.518 -0.1,0.221 -0.121,0.471 -0.201,0.699 -0.153,0.436 -0.274,0.864 -0.465,1.284 -0.297,0.651 -0.437,1.396 -0.64,2.08 -0.03,0.104 -0.067,0.265 -0.122,0.36 -0.061,0.102 -0.174,0.159 -0.238,0.26 -0.168,0.262 -0.184,0.62 -0.348,0.897 -0.11,0.188 -0.242,0.413 -0.296,0.606 -0.056,0.201 -0.127,0.345 -0.208,0.552 -0.052,0.133 -0.233,0.451 -0.214,0.607 0.008,0.077 0.176,0.265 0.253,0.306 0.079,0.042 0.161,-0.01 0.238,0.013 0.086,0.025 0.075,0.058 0.139,0.108 0.277,0.218 0.6,0.356 0.926,0.481 0.358,0.138 0.658,0.321 0.985,0.524 0.815,0.508 1.623,0.529 2.272,0.545 l 0.316,0.011 c 1.253,0.056 2.549,0.113 3.694,0.525 l 0.437,0.162 c 0.97,0.364 1.973,0.741 3.292,0.53 0.99,-0.158 2.041,-0.175 3.218,-0.047 1.421,0.153 2.66,0.37 3.679,0.644 0.895,0.243 1.757,0.672 2.669,1.127 0.798,0.398 1.623,0.81 2.511,1.111 1.367,0.462 2.832,0.937 4.391,1.231 0.614,0.116 1.21,0.316 1.84,0.528 0.405,0.135 0.81,0.271 1.226,0.388 0.597,0.169 1.171,0.17 1.678,0.172 0.227,10e-4 0.453,0 0.679,0.02 0.325,0.029 0.668,0.108 1.031,0.193 0.206,0.048 0.412,0.096 0.621,0.137 0.853,0.168 1.691,0.197 2.502,0.225 0.268,0.01 0.537,0.019 0.803,0.033 l 1.738,0.098 c 1.598,0.089 3.197,0.179 4.796,0.263 5.691,0.298 9.899,1.607 13.243,4.12 0.376,0.282 0.743,0.602 1.111,0.923 0.608,0.528 1.236,1.075 1.932,1.502 0.267,0.165 0.706,0.434 1.279,0.434 0.197,0 0.411,-0.032 0.639,-0.111 0.787,-0.273 1.167,-0.906 1.443,-1.368 0.109,-0.18 0.232,-0.385 0.318,-0.454 0.038,-0.031 0.127,-0.058 0.273,-0.099 0.164,-0.046 0.329,-0.096 0.496,-0.167 0.335,-0.141 0.628,-0.327 0.888,-0.491 0.14,-0.09 0.281,-0.18 0.427,-0.257 0.34,-0.18 0.699,-0.232 1.153,-0.298 0.466,-0.068 0.994,-0.145 1.556,-0.385 0.409,-0.174 0.859,-0.232 1.379,-0.298 0.348,-0.044 0.697,-0.09 1.045,-0.166 0.243,-0.054 0.489,-0.129 0.734,-0.206 0.248,-0.08 0.482,-0.153 0.674,-0.18 0.279,-0.041 0.603,-0.017 0.947,0.009 0.301,0.021 0.599,0.046 0.905,0.033 0.787,-0.02 1.541,-0.155 2.271,-0.287 0.272,-0.049 0.545,-0.098 0.818,-0.141 0.752,-0.116 1.52,-0.149 2.333,-0.185 1.603,-0.07 3.262,-0.142 4.926,-0.872 l 0.734,-0.327 c 0.783,-0.352 1.523,-0.685 2.347,-0.939 0.856,-0.264 1.982,-0.62 3.103,-1.039 0.379,-0.142 0.752,-0.307 1.125,-0.472 0.323,-0.142 0.644,-0.286 0.97,-0.409 0.381,-0.145 0.794,-0.237 1.231,-0.336 0.432,-0.097 0.878,-0.197 1.339,-0.355 l 0.498,-0.173 c 0.993,-0.347 1.849,-0.647 2.844,-0.744 0.62,-0.062 1.219,-0.179 1.797,-0.292 0.539,-0.107 1.048,-0.207 1.547,-0.257 0.545,-0.055 1.107,-0.033 1.704,-0.006 0.68,0.027 1.383,0.057 2.124,-0.027 1.466,-0.165 3.093,0.101 4.811,-0.328 0.959,-0.239 1.758,-0.831 2.464,-1.352 0.405,-0.3 0.787,-0.583 1.162,-0.778 0.388,-0.204 0.905,-0.371 1.452,-0.546 1.033,-0.332 2.203,-0.709 3.071,-1.526 0.489,-0.46 1.668,-2.144 1.146,-3.502 L -7.671,2.108 -8.189,1.948 c -1.648,-0.511 -2.72,0.332 -3.597,1.158 -0.659,0.62 -1.411,1.03 -2.364,1.292 -1.12,0.308 -1.788,0.382 -2.762,0.316 -1.32,-0.092 -2.749,-0.136 -4.218,0.167 -0.811,0.166 -1.586,0.44 -2.336,0.706 -0.419,0.149 -0.838,0.298 -1.259,0.424 -0.325,0.097 -0.664,0.158 -1.004,0.22 -0.767,0.142 -1.637,0.302 -2.455,0.803 -0.364,0.224 -0.661,0.478 -0.922,0.702 -0.318,0.272 -0.569,0.488 -0.847,0.58 -0.279,0.094 -0.641,0.1 -1.023,0.107 l -0.203,0.004 c -0.6,0.013 -1.146,0.131 -1.674,0.244 -0.407,0.088 -0.791,0.17 -1.152,0.191 -0.497,0.032 -1.017,-0.015 -1.566,-0.064 -0.547,-0.049 -1.112,-0.098 -1.706,-0.078 -1.219,0.041 -2.671,0.085 -4.202,0.062 -2.101,0.005 -3.853,0.449 -5.455,0.964 -1.117,0.358 -2.023,0.358 -3.285,0.315 -1.979,-0.058 -3.952,0.614 -5.851,1.273 -0.451,0.156 -0.895,0.312 -1.331,0.451 -0.229,0.073 -0.447,0.131 -0.661,0.187 -0.584,0.154 -1.245,0.328 -1.948,0.765 -0.198,0.122 -0.428,0.212 -0.693,0.315 -0.336,0.13 -0.716,0.277 -1.1,0.524 -0.61,0.392 -1.019,1.02 -1.381,1.573 -0.166,0.256 -0.432,0.665 -0.595,0.804 -0.189,-0.067 -0.409,-0.186 -0.64,-0.312 -0.291,-0.159 -0.585,-0.314 -0.887,-0.429 -0.384,-0.148 -0.746,-0.237 -1.096,-0.324 -0.186,-0.046 -0.374,-0.093 -0.563,-0.15 -1.42,-0.425 -2.843,-0.657 -4.219,-0.882 L -72.132,13.7 c -0.756,-0.13 -1.488,-0.183 -2.197,-0.235 -1.215,-0.09 -2.363,-0.175 -3.465,-0.63 -0.267,-0.11 -0.525,-0.226 -0.781,-0.339 -0.741,-0.328 -1.507,-0.667 -2.393,-0.877 -0.474,-0.112 -0.946,-0.229 -1.418,-0.347 -0.59,-0.146 -1.179,-0.293 -1.77,-0.428 -0.669,-0.154 -1.325,-0.213 -1.959,-0.271 -0.705,-0.064 -1.37,-0.124 -1.979,-0.307 -1.226,-0.37 -2.361,-0.869 -3.612,-1.435 -0.954,-0.432 -1.9,-0.626 -2.816,-0.814 -0.597,-0.123 -1.162,-0.239 -1.705,-0.415 -0.376,-0.123 -0.751,-0.248 -1.126,-0.374 -1.099,-0.37 -2.234,-0.751 -3.396,-1.04 -1.061,-0.263 -2.073,-0.682 -3.145,-1.126 -0.509,-0.21 -1.021,-0.422 -1.54,-0.619 -1.225,-0.463 -2.395,-0.522 -3.526,-0.58 l -0.309,-0.015 c -0.626,-0.034 -1.257,-0.204 -1.925,-0.386 -0.614,-0.166 -1.249,-0.338 -1.936,-0.421 -0.669,-0.08 -1.327,-0.102 -1.963,-0.121 -0.628,-0.02 -1.22,-0.039 -1.801,-0.111 -0.341,-0.043 -0.66,-0.161 -0.995,-0.225 -0.198,-0.038 -0.397,-0.024 -0.596,-0.047 -0.598,-0.065 -1.206,-0.436 -1.724,-0.722 -0.142,-0.078 -0.338,-0.236 -0.499,-0.267 -0.078,-0.016 -0.24,0.04 -0.295,-0.016 -0.097,-0.097 0.039,-0.224 0.063,-0.297 0.068,-0.207 -0.017,-0.427 0.07,-0.633 0.042,-0.102 0.088,-0.198 0.126,-0.301 0.079,-0.216 0.036,-0.413 0.067,-0.632 0.027,-0.188 0.122,-0.359 0.154,-0.545 0.051,-0.292 0.006,-0.629 0.006,-0.926 10e-4,-0.614 0.101,-1.236 0.232,-1.82 0.075,-0.333 0.169,-0.735 0.187,-1.079 0.026,-0.466 0.135,-0.886 0.248,-1.338 0.098,-0.389 0.127,-0.85 0.292,-1.214 0.109,-0.243 0.212,-0.471 0.308,-0.72 0.183,-0.472 0.439,-0.923 0.55,-1.423 0.096,-0.432 0.097,-0.899 0.221,-1.319 0.088,-0.296 0.277,-0.498 0.449,-0.747 0.123,-0.178 0.176,-0.321 0.35,-0.459 0.377,-0.3 0.672,-0.674 1.013,-1.01 0.329,-0.323 0.666,-0.632 1.007,-0.941 0.277,-0.251 0.481,-0.55 0.721,-0.832 0.191,-0.225 0.441,-0.399 0.627,-0.629 0.136,-0.169 0.259,-0.355 0.377,-0.537 0.072,-0.11 0.161,-0.303 0.267,-0.405 0.108,-0.105 0.27,-0.174 0.381,-0.276 0.239,-0.218 0.425,-0.513 0.604,-0.777 0.237,-0.353 0.469,-0.667 0.748,-0.985 0.197,-0.225 0.428,-0.368 0.657,-0.558 0.135,-0.111 0.252,-0.231 0.398,-0.328 0.106,-0.071 0.238,-0.12 0.337,-0.199 0.077,-0.063 0.143,-0.134 0.213,-0.204 0.159,-0.16 0.346,-0.257 0.549,-0.377 0.325,-0.191 0.649,-0.383 0.955,-0.595 0.584,-0.403 1.157,-0.838 1.73,-1.274 0.816,-0.621 1.587,-1.208 2.392,-1.702 0.741,-0.454 1.53,-0.967 2.324,-1.793 0.247,-0.258 0.537,-0.477 0.844,-0.71 0.381,-0.288 0.813,-0.615 1.214,-1.057 0.123,-0.136 0.238,-0.281 0.352,-0.425 0.121,-0.154 0.246,-0.313 0.348,-0.403 l 0.029,-0.003 c 0.226,-0.02 0.606,-0.055 0.978,-0.307 0.508,-0.345 0.733,-0.825 0.898,-1.176 0.054,-0.115 0.106,-0.237 0.183,-0.348 0.374,-0.539 0.758,-1.029 1.027,-1.314 0.104,-0.11 0.334,-0.211 0.578,-0.319 0.238,-0.104 0.508,-0.223 0.771,-0.395 0.264,-0.173 0.512,-0.384 0.757,-0.597 0.237,-0.207 0.461,-0.401 0.651,-0.491 0.033,-0.016 0.13,-0.038 0.208,-0.055 0.196,-0.045 0.465,-0.106 0.75,-0.257 0.426,-0.224 0.72,-0.528 0.979,-0.796 0.084,-0.087 0.169,-0.175 0.26,-0.258 0.787,-0.721 1.324,-1.574 1.843,-2.398 0.356,-0.567 0.693,-1.103 1.094,-1.569 0.251,-0.291 0.494,-0.589 0.737,-0.885 0.479,-0.585 0.931,-1.138 1.425,-1.627 0.238,-0.235 0.481,-0.461 0.724,-0.686 0.434,-0.404 0.883,-0.822 1.313,-1.297 1.002,-1.107 1.905,-1.8 3.018,-2.317 0.324,-0.151 0.636,-0.333 0.948,-0.517 0.328,-0.195 0.639,-0.378 0.938,-0.495 0.256,-0.1 0.517,-0.177 0.777,-0.255 0.453,-0.137 0.966,-0.291 1.473,-0.549 0.36,-0.184 0.733,-0.354 1.11,-0.526 0.884,-0.405 1.798,-0.823 2.655,-1.435 0.387,-0.275 0.657,-0.621 0.895,-0.926 0.149,-0.191 0.304,-0.389 0.421,-0.474 0.045,-0.029 0.094,-0.044 0.14,-0.064 0.196,-0.084 0.492,-0.211 0.778,-0.48 0.184,-0.173 0.309,-0.355 0.41,-0.501 0.035,-0.05 0.067,-0.103 0.108,-0.148 0.082,-0.09 0.169,-0.164 0.254,-0.239 0.155,-0.136 0.336,-0.296 0.513,-0.508 0.04,0.099 0.084,0.182 0.126,0.247 0.078,0.121 0.08,0.392 0.107,0.533 0.058,0.295 0.102,0.596 0.17,0.889 0.022,0.097 0.055,0.181 0.087,0.275 0.067,0.195 0.072,0.387 0.092,0.592 0.048,0.506 0.13,1.009 0.135,1.518 0.005,0.575 -0.008,1.13 0.079,1.7 0.097,0.641 0.086,1.269 0.081,1.916 -0.01,1.33 0.187,2.651 0.421,3.958 0.091,0.51 0.148,1.026 0.243,1.535 0.123,0.648 0.28,1.292 0.361,1.947 0.058,0.475 0.129,0.933 0.231,1.399 0.115,0.521 0.054,1.022 0.087,1.547 0.033,0.543 0.079,1.09 0.14,1.63 0.06,0.524 -0.007,1.053 0.015,1.578 0.018,0.428 0.092,0.844 0.089,1.274 -0.003,0.564 -0.002,1.129 -0.002,1.693 0,0.976 -0.091,2.003 0.019,2.972 0.093,0.816 0.004,1.631 0.072,2.446 0.04,0.475 0.058,0.923 0.07,1.402 0.014,0.599 0.196,1.196 0.239,1.796 0.06,0.824 0.017,1.66 0.017,2.486 v 4.055 c 0,1.162 0.053,2.313 0.081,3.473 0.014,0.565 0.063,1.158 0.128,1.719 0.061,0.523 0.019,1.045 0.08,1.568 0.066,0.581 0.108,1.133 0.123,1.716 0.014,0.515 0.132,1.019 0.192,1.532 0.144,1.244 0.256,2.493 0.448,3.733 0.092,0.598 0.151,1.201 0.244,1.797 0.098,0.63 0.288,1.233 0.371,1.868 0.042,0.312 0.145,0.635 0.17,0.945 0.018,0.239 0.031,0.459 0.079,0.701 0.074,0.374 0.14,0.751 0.212,1.125 0.065,0.334 0.047,0.675 0.119,1.012 0.064,0.299 0.164,0.487 0.167,0.791 0.002,0.172 0.033,0.583 0.151,0.723 0.032,-0.101 0.011,-0.182 0.012,-0.295 0.004,-0.292 0.044,-0.593 0.084,-0.879 0.126,-0.913 0.29,-1.821 0.422,-2.732 0.059,-0.401 0.117,-0.801 0.209,-1.195 0.064,-0.273 0.161,-0.534 0.196,-0.813 0.068,-0.54 -0.026,-1.066 0.077,-1.601 0.08,-0.418 0.018,-0.882 0.018,-1.306 V 0.133 c 0,-0.5 -0.109,-1.123 0.049,-1.599 0.054,-0.162 0.114,-0.242 0.124,-0.425 0.022,-0.375 -0.028,-0.755 -0.01,-1.13 0.016,-0.34 0.118,-0.678 0.152,-1.02 0.052,-0.508 -0.025,-1.02 0.037,-1.524 0.067,-0.545 0.012,-1.097 0.084,-1.639 0.026,-0.201 0.061,-0.388 0.067,-0.591 0.015,-0.552 0.076,-1.103 0.085,-1.654 0.018,-1.127 -0.068,-2.263 0.061,-3.384 0.055,-0.484 -0.025,-0.973 0.037,-1.456 0.074,-0.581 0.064,-1.149 0.064,-1.735 0,-0.925 0.021,-1.853 0.006,-2.778 -0.01,-0.645 -0.217,-1.267 -0.278,-1.91 -0.063,-0.654 -0.119,-1.288 -0.149,-1.945 -0.02,-0.45 -0.137,-0.895 -0.182,-1.346 -0.057,-0.571 -0.081,-1.143 -0.147,-1.713 -0.052,-0.46 -0.062,-0.891 -0.079,-1.352 -0.021,-0.582 -0.177,-1.133 -0.173,-1.722 0.006,-0.655 0.023,-1.315 0.007,-1.97 -0.015,-0.59 -0.09,-1.161 -0.086,-1.753 0.005,-0.57 -0.09,-1.103 -0.152,-1.665 -0.062,-0.565 -0.01,-1.131 0.048,-1.692 0.101,-0.959 0.012,-1.963 0.017,-2.927 0.002,-0.352 0.091,-0.683 0.087,-1.041 -0.005,-0.486 10e-4,-0.973 -0.004,-1.459 -0.004,-0.513 0.113,-0.999 0.079,-1.519 -0.034,-0.531 -0.077,-1.042 -0.077,-1.575 v -2.981 c 0,-0.83 -0.005,-1.66 0.002,-2.489 0.004,-0.455 -0.032,-0.968 -0.097,-1.419 -0.047,-0.327 -0.168,-0.778 -0.329,-1.068 0.332,0.606 0.711,1.21 1.126,1.768 0.133,0.181 0.27,0.358 0.4,0.541 0.061,0.087 0.135,0.165 0.214,0.237 0.417,0.376 0.859,0.734 1.117,1.239 0.264,0.516 0.804,0.82 1.224,1.199 l 0.485,0.443 c 0.683,0.626 1.388,1.273 2.227,1.836 0.389,0.261 0.767,0.411 1.1,0.543 0.139,0.055 0.278,0.11 0.417,0.175 0.22,0.103 0.45,0.258 0.693,0.421 0.386,0.258 0.823,0.55 1.363,0.741 2.642,0.932 5.065,2.143 7.201,3.6 0.351,0.239 0.692,0.525 1.055,0.828 0.438,0.367 0.892,0.746 1.402,1.077 0.581,0.376 1.098,0.949 1.646,1.556 l 0.365,0.403 c 0.497,0.548 1.01,1.115 1.696,1.557 0.399,0.258 0.777,0.624 1.178,1.013 0.363,0.351 0.738,0.714 1.171,1.04 0.603,0.454 1.217,0.748 1.812,1.032 0.43,0.206 0.836,0.4 1.204,0.641 0.99,0.649 1.82,1.55 2.698,2.504 0.363,0.394 0.727,0.79 1.108,1.175 0.499,0.505 1.029,0.785 1.497,1.032 0.263,0.139 0.51,0.27 0.723,0.427 0.3,0.223 0.598,0.502 0.914,0.796 0.339,0.316 0.69,0.645 1.082,0.937 0.39,0.294 0.783,0.412 1.07,0.499 0.14,0.043 0.261,0.08 0.323,0.116 0.066,0.047 0.117,0.115 0.176,0.177 0.164,0.176 0.368,0.396 0.662,0.572 0.158,0.095 0.319,0.164 0.479,0.23 0.069,0.028 0.148,0.06 0.173,0.077 0.08,0.054 0.201,0.186 0.317,0.312 0.244,0.266 0.549,0.596 0.988,0.813 l 0.233,0.111 c 0.25,0.117 0.27,0.126 0.405,0.284 0.215,0.25 0.41,0.568 0.616,0.905 0.207,0.337 0.415,0.672 0.652,0.978 0.177,0.23 0.364,0.449 0.55,0.666 0.155,0.18 0.308,0.36 0.454,0.547 0.267,0.342 0.488,0.732 0.722,1.145 0.115,0.202 0.232,0.407 0.357,0.615 0.662,1.098 1.428,2.12 2.169,3.109 l 0.494,0.661 c 0.442,0.596 0.949,1.05 1.439,1.49 0.271,0.243 0.542,0.484 0.792,0.75 0.607,0.645 1.227,1.014 1.949,1.161 0,0 0.249,0.044 0.257,0.054 0.33,0.323 0.62,0.785 0.927,1.275 0.225,0.359 0.451,0.717 0.699,1.043 0.545,0.718 1.052,0.946 1.499,1.148 0.125,0.057 0.261,0.117 0.411,0.201 0.417,0.231 0.913,0.905 1.312,1.447 0.125,0.17 0.247,0.336 0.389,0.52 0.734,0.95 1.263,1.635 2.575,2 0.504,0.141 1.065,0.337 1.404,0.729 0.073,0.084 0.132,0.184 0.193,0.282 0.164,0.258 0.368,0.579 0.697,0.843 l 2.722,2.191 z"
               style="fill:#000000;fill-opacity:1;fill-rule:nonzero;stroke:none"
               id="path209" />
          </g>
        </g>
      </g>
    </g>
  </g>
</svg>
