<?xml version="1.0" encoding="UTF-8" standalone="no"?>
<!-- Created with Inkscape (http://www.inkscape.org/) -->

<svg
   version="1.1"
   id="svg103"
   width="28.726101"
   height="24"
   viewBox="0 0 28.726101 24"
   sodipodi:docname="harvey-walters.jpeg"
   inkscape:version="1.2.1 (9c6d41e4, 2022-07-14)"
   xmlns:inkscape="http://www.inkscape.org/namespaces/inkscape"
   xmlns:sodipodi="http://sodipodi.sourceforge.net/DTD/sodipodi-0.dtd"
   xmlns="http://www.w3.org/2000/svg"
   xmlns:svg="http://www.w3.org/2000/svg">
  <defs
     id="defs107" />
  <sodipodi:namedview
     id="namedview105"
     pagecolor="#505050"
     bordercolor="#eeeeee"
     borderopacity="1"
     inkscape:showpageshadow="0"
     inkscape:pageopacity="0"
     inkscape:pagecheckerboard="0"
     inkscape:deskcolor="#505050"
     showgrid="false"
     inkscape:zoom="3.0766129"
     inkscape:cx="131.9633"
     inkscape:cy="109.04849"
     inkscape:window-width="1390"
     inkscape:window-height="941"
     inkscape:window-x="0"
     inkscape:window-y="25"
     inkscape:window-maximized="0"
     inkscape:current-layer="g109" />
  <g
     inkscape:groupmode="layer"
     inkscape:label="Image"
     id="g109"
     transform="translate(-17.891213,-15.021612)">
    <path
       style="fill:#000000;stroke-width:0.144971"
       d="m 31.602852,38.929377 c -0.119601,-0.0542 -0.607549,-0.35195 -1.08433,-0.661675 -0.775857,-0.504009 -5.280886,-2.843695 -5.475493,-2.843695 -0.04304,0 -1.21048,-0.54442 -2.594317,-1.209822 -1.383838,-0.665403 -2.842255,-1.328559 -3.240927,-1.473678 -0.967094,-0.35203 -0.893961,-0.166668 -1.000353,-2.535475 -0.05193,-1.156149 -0.152606,-2.550204 -0.22373,-3.097901 -0.227182,-1.749412 -0.246449,-1.714425 2.513847,-4.564765 1.363723,-1.408208 2.870919,-3.016466 3.349325,-3.573905 0.478407,-0.557439 0.906367,-1.046144 0.951024,-1.086011 0.04466,-0.03987 0.589986,-0.708549 1.211841,-1.485958 1.175968,-1.470132 1.293337,-1.54357 1.939781,-1.213727 0.360867,0.18413 3.373048,0.738171 5.972877,1.098612 2.289758,0.317452 2.88311,0.425802 4.711576,0.860358 4.448233,1.057176 4.331664,0.946741 2.710781,2.568129 -0.62928,0.629476 -1.347166,1.427836 -1.595301,1.774133 -0.248137,0.346297 -0.842711,1.096525 -1.32128,1.667173 -2.480193,2.957405 -3.241615,3.88255 -4.471675,5.43318 -2.188439,2.758781 -2.141238,2.673751 -1.929004,3.474862 0.09949,0.375551 0.17707,0.813296 0.172393,0.972765 -0.0047,0.159468 -0.05127,1.289646 -0.103556,2.511507 -0.101378,2.369336 -0.02063,2.757341 0.481653,2.314401 0.582799,-0.513943 2.324895,-1.226745 5.97109,-2.443156 3.816631,-1.273267 5.681461,-1.911308 5.800217,-1.984507 0.03379,-0.02083 -0.08463,-0.33032 -0.263149,-0.687768 -0.463402,-0.927872 -0.32411,-0.974607 1.140537,-0.382655 1.38867,0.561242 1.522457,0.688636 1.310017,1.247396 -0.212175,0.558062 -1.165767,0.943091 -5.220751,2.107967 -1.568352,0.450541 -2.100512,0.637051 -3.462626,1.213581 -0.668562,0.282975 -1.875451,0.719062 -2.681974,0.969082 -0.806523,0.25002 -1.839554,0.611156 -2.295624,0.802526 -0.88522,0.371443 -0.937731,0.380893 -1.272869,0.229026 z m 1.738419,-3.976528 c 0.01202,-0.817276 -0.04859,-1.809436 -0.134692,-2.204797 -0.227164,-1.043102 0.586628,-2.594255 2.01868,-3.847764 0.04555,-0.03987 0.597395,-0.735921 1.22633,-1.546786 l 1.143521,-1.474299 0.736888,0.292566 c 0.40529,0.160911 1.343022,0.473667 2.083851,0.695012 0.74083,0.221346 1.389118,0.444602 1.440639,0.496124 0.202213,0.202212 -1.000543,0.992539 -3.036188,1.995067 -1.173269,0.577819 -2.113003,1.070795 -2.088296,1.095501 0.12186,0.12186 2.994997,-0.751472 4.552492,-1.383798 2.084628,-0.846336 2.428645,-0.81165 1.915558,0.193142 -0.211467,0.414125 -0.3178,0.973298 -0.37215,1.957015 -0.111444,2.017225 -0.155644,2.076875 -1.828721,2.468093 -1.330961,0.311221 -2.60761,0.691897 -4.032384,1.202392 -1.802727,0.645917 -1.848509,0.666006 -2.601627,1.141536 -1.023553,0.646287 -1.048883,0.619593 -1.023901,-1.079004 z"
       id="path221" />
  </g>
</svg>
