<?xml version="1.0" encoding="UTF-8" standalone="no"?>
<!-- Created with Inkscape (http://www.inkscape.org/) -->

<svg
   width="17.615509"
   height="24"
   viewBox="0 0 4.6607701 6.35"
   version="1.1"
   id="svg10885"
   inkscape:version="1.2.1 (9c6d41e4, 2022-07-14)"
   sodipodi:docname="machinations-through-time.svg"
   xmlns:inkscape="http://www.inkscape.org/namespaces/inkscape"
   xmlns:sodipodi="http://sodipodi.sourceforge.net/DTD/sodipodi-0.dtd"
   xmlns="http://www.w3.org/2000/svg"
   xmlns:svg="http://www.w3.org/2000/svg">
  <sodipodi:namedview
     id="namedview10887"
     pagecolor="#505050"
     bordercolor="#eeeeee"
     borderopacity="1"
     inkscape:showpageshadow="0"
     inkscape:pageopacity="0"
     inkscape:pagecheckerboard="0"
     inkscape:deskcolor="#505050"
     inkscape:document-units="mm"
     showgrid="false"
     inkscape:zoom="0.7046647"
     inkscape:cx="259.69798"
     inkscape:cy="91.532895"
     inkscape:window-width="1390"
     inkscape:window-height="941"
     inkscape:window-x="0"
     inkscape:window-y="25"
     inkscape:window-maximized="0"
     inkscape:current-layer="layer1" />
  <defs
     id="defs10882">
    <clipPath
       clipPathUnits="userSpaceOnUse"
       id="clipPath237">
      <path
         d="m 98.369,36.543 h 55.262 V 91.8 H 98.369 Z"
         id="path235" />
    </clipPath>
  </defs>
  <g
     inkscape:label="Layer 1"
     inkscape:groupmode="layer"
     id="layer1"
     transform="translate(-36.343447,-124.48619)">
    <g
       id="g231"
       transform="matrix(0.12425818,0,0,-0.12425818,22.968399,135.67807)">
      <g
         id="g233"
         clip-path="url(#clipPath237)">
        <g
           id="g239"
           transform="matrix(0.3837645,0,0,-0.3837291,126,56.957123)">
          <g
             id="g241"
             transform="translate(28.5918,-74.6122)">
            <path
               d="M 0,0 C 0.199,0 0.395,0.015 0.591,0.03 L -1.054,-11.679 H -17.86 c -0.071,1.216 -4.386,2.198 -9.706,2.198 -5.321,0 -9.637,-0.982 -9.707,-2.198 H -54.08 L -55.724,0.03 C -55.528,0.015 -55.333,0 -55.133,0 Z"
               style="fill:#242021;fill-opacity:1;fill-rule:nonzero;stroke:none"
               id="path243" />
          </g>
        </g>
        <g
           id="g245"
           transform="matrix(0.3837645,0,0,-0.3837291,126,56.957123)">
          <g
             id="g247"
             transform="translate(-27.6592,-60.9721)">
            <path
               d="m 0,0 c 8.142,-5.677 18.028,-9.019 28.685,-9.019 10.656,0 20.542,3.342 28.684,9.019 2.861,-0.53 5.047,-3.049 5.047,-6.058 0,-3.121 -2.353,-5.714 -5.372,-6.107 -0.26,-0.034 -0.523,-0.058 -0.793,-0.058 H 1.118 c -0.269,0 -0.533,0.024 -0.794,0.058 -3.018,0.393 -5.371,2.986 -5.371,6.107 0,3.009 2.186,5.528 5.047,6.058"
               style="fill:#242021;fill-opacity:1;fill-rule:nonzero;stroke:none"
               id="path249" />
          </g>
        </g>
        <g
           id="g251"
           transform="matrix(0.3837645,0,0,-0.3837291,126,56.957123)">
          <g
             id="g253"
             transform="translate(-26.5415,35.2042)">
            <path
               d="M 0,0 C -0.199,0 -0.395,-0.015 -0.59,-0.03 L 1.054,11.68 H 17.86 c 0.07,-1.217 4.386,-2.199 9.707,-2.199 5.321,0 9.638,0.982 9.706,2.199 H 54.08 L 55.724,-0.03 C 55.528,-0.015 55.333,0 55.133,0 Z"
               style="fill:#242021;fill-opacity:1;fill-rule:nonzero;stroke:none"
               id="path255" />
          </g>
        </g>
        <g
           id="g257"
           transform="matrix(0.3837645,0,0,-0.3837291,126,56.957123)">
          <g
             id="g259"
             transform="translate(29.709,21.5645)">
            <path
               d="M 0,0 C -8.143,5.676 -18.027,9.018 -28.684,9.018 -39.34,9.018 -49.225,5.676 -57.368,0 c -2.861,0.529 -5.048,3.048 -5.048,6.058 0,3.121 2.353,5.713 5.372,6.106 0.261,0.034 0.524,0.058 0.794,0.058 h 55.133 c 0.269,0 0.533,-0.024 0.793,-0.058 C 2.695,11.771 5.048,9.179 5.048,6.058 5.048,3.048 2.861,0.529 0,0"
               style="fill:#242021;fill-opacity:1;fill-rule:nonzero;stroke:none"
               id="path261" />
          </g>
        </g>
        <g
           id="g263"
           transform="matrix(0.3837645,0,0,-0.3837291,126,56.957123)">
          <g
             id="g265"
             transform="translate(15.874,20.0391)">
            <path
               d="m 0,0 c -0.674,0.253 -1.355,0.49 -2.046,0.709 -0.825,0.262 -1.662,0.497 -2.508,0.709 -3.298,0.825 -6.745,1.27 -10.295,1.27 -3.549,0 -6.997,-0.445 -10.295,-1.27 C -25.99,1.206 -26.827,0.971 -27.652,0.709 -28.342,0.49 -29.023,0.253 -29.698,0 c -16.093,-6.033 -27.581,-21.569 -27.581,-39.743 0,-18.174 11.488,-33.711 27.583,-39.743 0.674,-0.253 1.355,-0.491 2.045,-0.709 0.825,-0.262 1.662,-0.497 2.507,-0.709 3.298,-0.825 6.746,-1.269 10.295,-1.269 3.55,0 6.997,0.444 10.295,1.269 0.846,0.212 1.682,0.447 2.507,0.709 0.69,0.218 1.371,0.456 2.046,0.709 16.094,6.032 27.582,21.569 27.582,39.743 C 27.581,-21.569 16.093,-6.033 0,0 m 13.512,-79.529 c -0.313,-0.222 -0.62,-0.45 -0.938,-0.666 -0.359,-0.244 -0.728,-0.474 -1.095,-0.709 -7.599,-4.872 -16.629,-7.708 -26.328,-7.708 -9.698,0 -18.728,2.836 -26.328,7.708 -0.366,0.235 -0.736,0.465 -1.094,0.709 -0.318,0.216 -0.626,0.444 -0.938,0.667 -12.41,8.861 -20.509,23.373 -20.509,39.785 0,16.412 8.099,30.923 20.509,39.785 0.312,0.224 0.62,0.451 0.938,0.667 0.359,0.244 0.729,0.475 1.095,0.709 7.6,4.872 16.63,7.708 26.327,7.708 9.698,0 18.728,-2.836 26.328,-7.708 0.366,-0.234 0.736,-0.465 1.095,-0.709 0.318,-0.216 0.625,-0.444 0.938,-0.667 12.41,-8.862 20.509,-23.373 20.509,-39.785 0,-16.412 -8.099,-30.924 -20.509,-39.786"
               style="fill:#242021;fill-opacity:1;fill-rule:nonzero;stroke:none"
               id="path267" />
          </g>
        </g>
        <g
           id="g269"
           transform="matrix(0.3837645,0,0,-0.3837291,126,56.957123)">
          <g
             id="g271"
             transform="translate(-0.3921,11.6016)">
            <path
               d="M 0,0 V 8.438 8.866 H 2.834 V 8.438 0 C 2.365,0.021 1.893,0.036 1.417,0.036 0.942,0.036 0.47,0.021 0,0"
               style="fill:#242021;fill-opacity:1;fill-rule:nonzero;stroke:none"
               id="path273" />
          </g>
        </g>
        <g
           id="g275"
           transform="matrix(0.3837645,0,0,-0.3837291,126,56.957123)">
          <g
             id="g277"
             transform="translate(15.4512,8.1173)">
            <path
               d="M 0,0 4.433,7.678 6.888,6.26 2.454,-1.42 C 1.659,-0.911 0.842,-0.437 0,0"
               style="fill:#242021;fill-opacity:1;fill-rule:nonzero;stroke:none"
               id="path279" />
          </g>
        </g>
        <g
           id="g281"
           transform="matrix(0.3837645,0,0,-0.3837291,126,56.957123)">
          <g
             id="g283"
             transform="translate(27.4268,-2.8251)">
            <path
               d="M 0,0 7.68,4.435 9.098,1.979 1.42,-2.453 C 0.982,-1.612 0.509,-0.794 0,0"
               style="fill:#242021;fill-opacity:1;fill-rule:nonzero;stroke:none"
               id="path285" />
          </g>
        </g>
        <g
           id="g287"
           transform="matrix(0.3837645,0,0,-0.3837291,126,56.957123)">
          <g
             id="g289"
             transform="translate(32.3301,-21.1215)">
            <path
               d="M 0,0 C 0.021,0.47 0.036,0.942 0.036,1.417 0.036,1.893 0.021,2.365 0,2.835 H 8.867 V 0 Z"
               style="fill:#242021;fill-opacity:1;fill-rule:nonzero;stroke:none"
               id="path291" />
          </g>
        </g>
        <g
           id="g293"
           transform="matrix(0.3837645,0,0,-0.3837291,126,56.957123)">
          <g
             id="g295"
             transform="translate(36.5244,-38.5624)">
            <path
               d="m 0,0 -1.418,-2.455 -7.68,4.434 c 0.509,0.794 0.983,1.612 1.42,2.454 z"
               style="fill:#242021;fill-opacity:1;fill-rule:nonzero;stroke:none"
               id="path297" />
          </g>
        </g>
        <g
           id="g299"
           transform="matrix(0.3837645,0,0,-0.3837291,126,56.957123)">
          <g
             id="g301"
             transform="translate(15.4512,-47.5253)">
            <path
               d="M 0,0 C 0.842,0.437 1.659,0.911 2.453,1.42 L 6.888,-6.26 4.433,-7.677 Z"
               style="fill:#242021;fill-opacity:1;fill-rule:nonzero;stroke:none"
               id="path303" />
          </g>
        </g>
        <g
           id="g305"
           transform="matrix(0.3837645,0,0,-0.3837291,126,56.957123)">
          <g
             id="g307"
             transform="translate(-20.2886,-53.7856)">
            <path
               d="M 0,0 4.434,7.68 C 5.229,7.171 6.046,6.697 6.888,6.26 L 2.455,-1.417 Z"
               style="fill:#242021;fill-opacity:1;fill-rule:nonzero;stroke:none"
               id="path309" />
          </g>
        </g>
        <g
           id="g311"
           transform="matrix(0.3837645,0,0,-0.3837291,126,56.957123)">
          <g
             id="g313"
             transform="translate(-34.4736,-38.5624)">
            <path
               d="M 0,0 7.678,4.433 C 8.115,3.591 8.588,2.773 9.098,1.979 L 1.417,-2.455 Z"
               style="fill:#242021;fill-opacity:1;fill-rule:nonzero;stroke:none"
               id="path315" />
          </g>
        </g>
        <g
           id="g317"
           transform="matrix(0.3837645,0,0,-0.3837291,126,56.957123)">
          <g
             id="g319"
             transform="translate(-30.3159,-19.704)">
            <path
               d="M 0,0 C 0,-0.476 0.015,-0.947 0.036,-1.417 H -8.831 V 1.417 H 0.036 C 0.015,0.947 0,0.476 0,0"
               style="fill:#242021;fill-opacity:1;fill-rule:nonzero;stroke:none"
               id="path321" />
          </g>
        </g>
        <g
           id="g323"
           transform="matrix(0.3837645,0,0,-0.3837291,126,56.957123)">
          <g
             id="g325"
             transform="translate(-34.4736,-0.8456)">
            <path
               d="m 0,0 1.417,2.455 7.68,-4.434 C 8.588,-2.773 8.114,-3.592 7.677,-4.433 Z"
               style="fill:#242021;fill-opacity:1;fill-rule:nonzero;stroke:none"
               id="path327" />
          </g>
        </g>
        <g
           id="g329"
           transform="matrix(0.3837645,0,0,-0.3837291,126,56.957123)">
          <g
             id="g331"
             transform="translate(-20.2886,14.377)">
            <path
               d="M 0,0 2.455,1.418 6.887,-6.26 C 6.046,-6.696 5.229,-7.171 4.434,-7.68 Z"
               style="fill:#242021;fill-opacity:1;fill-rule:nonzero;stroke:none"
               id="path333" />
          </g>
        </g>
        <g
           id="g335"
           transform="matrix(0.3837645,0,0,-0.3837291,126,56.957123)">
          <g
             id="g337"
             transform="translate(5.4814,-18.9179)">
            <path
               d="m 0,0 -0.187,-1.614 -0.068,-0.59 -0.287,-2.479 -0.005,-0.04 -0.547,-4.721 -1.945,-16.79 -0.681,-5.875 c 0.228,0.005 0.455,0.007 0.681,0.017 v -8.437 -0.429 h -2.835 v 0.429 8.437 c 0.227,-0.01 0.454,-0.012 0.681,-0.017 l -0.681,5.872 -1.858,16.042 -2.176,-2.869 -7.871,-10.377 2.193,6.212 3.715,10.525 1.451,4.111 0.137,0.389 0.922,2.613 0.079,0.222 0.222,0.632 -0.044,0.387 0.29,0.308 0.413,1.17 0.018,0.052 0.638,1.806 1.448,0.252 0.423,0.074 0.273,0.046 1.145,1.212 0.821,-0.87 0.596,0.104 0.835,0.145 0.283,0.049 L -0.64,3.054 -0.624,3.018 -0.217,2.082 0.191,1.65 0.146,1.251 0.415,0.631 0.438,0.578 0.203,0.267 Z"
               style="fill:#242021;fill-opacity:1;fill-rule:nonzero;stroke:none"
               id="path339" />
          </g>
        </g>
      </g>
    </g>
  </g>
</svg>
