<?xml version="1.0" encoding="UTF-8" standalone="no"?>
<!-- Created with Inkscape (http://www.inkscape.org/) -->

<svg
   version="1.1"
   id="svg103"
   width="21.679384"
   height="24"
   viewBox="0 0 21.679384 24"
   sodipodi:docname="nathaniel-cho.jpeg"
   inkscape:version="1.2.1 (9c6d41e4, 2022-07-14)"
   xmlns:inkscape="http://www.inkscape.org/namespaces/inkscape"
   xmlns:sodipodi="http://sodipodi.sourceforge.net/DTD/sodipodi-0.dtd"
   xmlns="http://www.w3.org/2000/svg"
   xmlns:svg="http://www.w3.org/2000/svg">
  <defs
     id="defs107" />
  <sodipodi:namedview
     id="namedview105"
     pagecolor="#505050"
     bordercolor="#eeeeee"
     borderopacity="1"
     inkscape:showpageshadow="0"
     inkscape:pageopacity="0"
     inkscape:pagecheckerboard="0"
     inkscape:deskcolor="#505050"
     showgrid="false"
     inkscape:zoom="11.803837"
     inkscape:cx="26.516802"
     inkscape:cy="28.931271"
     inkscape:window-width="1390"
     inkscape:window-height="941"
     inkscape:window-x="319"
     inkscape:window-y="25"
     inkscape:window-maximized="0"
     inkscape:current-layer="g109" />
  <g
     inkscape:groupmode="layer"
     inkscape:label="Image"
     id="g109"
     transform="translate(-3.3695267,-3.3670859)">
    <path
       style="fill:#000000;stroke-width:0.13186"
       d="m 17.672981,27.231508 c -0.08996,-0.108398 -0.133707,-0.311277 -0.09721,-0.450838 0.0365,-0.139563 -0.129451,-0.656975 -0.368774,-1.149802 -0.413564,-0.85164 -0.425185,-0.915284 -0.234479,-1.284069 0.324671,-0.627845 1.351932,-1.644756 2.039555,-2.019007 1.126674,-0.613213 0.422998,-0.675061 -0.764309,-0.06718 -0.501193,0.256603 -1.893964,1.652199 -1.893964,1.897805 0,0.240392 -0.412005,0.0819 -0.544813,-0.209588 -0.505841,-1.110196 4.024863,-4.648402 6.095375,-4.760119 1.597389,-0.08619 2.560858,0.593004 1.306152,0.920767 l -0.593369,0.155004 0.563711,0.09992 c 0.64614,0.114528 0.789031,0.351189 1.222801,2.025236 0.136907,0.528367 0.339816,1.090438 0.450908,1.249044 0.472174,0.674122 0.124469,1.154625 -1.491032,2.060498 -0.532285,0.298472 -0.995948,0.542677 -1.030363,0.542677 -0.03442,0 -0.387956,0.148833 -0.785645,0.33074 -1.396123,0.6386 -3.582778,1.010466 -3.874544,0.658912 z M 13.980322,22.48167 C 13.363877,22.314736 12.473823,21.994801 12.002424,21.770701 11.531025,21.546602 11.025307,21.363201 10.878607,21.363144 10.179584,21.362881 6.4767836,19.64958 5.9917441,19.101985 4.7899303,17.745173 4.7393643,16.455765 5.8355717,15.119667 6.6372349,14.14257 8.7507473,14.598923 8.72776,15.744153 c -0.00608,0.302777 0.073596,0.81567 0.1770516,1.139763 l 0.1881018,0.589258 -0.076683,-0.677651 c -0.1321104,-1.16747 0.6884104,-2.421056 1.5846756,-2.421056 0.109568,0 0.230538,-0.05068 0.268823,-0.112629 0.07839,-0.126841 -1.1380997,0.117264 -1.2407836,0.24898 -0.151774,0.194686 -0.6614289,0.216636 -0.9144891,0.03938 -0.4398874,-0.308109 -0.2734753,-1.203295 0.3574573,-1.922881 0.1112791,-0.126915 0.1486263,-0.229846 0.082994,-0.228735 -0.2126764,0.0036 -0.4087999,0.18581 -0.7604591,0.706516 L 8.0495169,13.615849 7.5178455,12.459579 C 7.2254264,11.82363 6.9501882,11.339295 6.9062051,11.383278 6.7320631,11.55742 6.8650896,12.680989 7.1187076,13.178122 7.5368988,13.997844 7.5110407,14.026307 6.4229222,13.944013 2.2970664,13.631976 2.3719898,7.7891288 6.5290924,5.6643985 7.2264598,5.3079683 7.5839765,5.0996597 7.801809,4.9228455 c 0.6912005,-0.5610457 3.616234,-1.4395336 5.12817,-1.5401654 3.041629,-0.2024453 5.212743,1.5538223 7.41111,5.9950299 0.824781,1.666245 1.099657,2.389011 1.624514,4.271527 0.121319,0.435138 0.297388,0.96917 0.391266,1.186739 0.284972,0.660444 0.683642,1.955268 0.782889,2.542704 0.05154,0.305042 0.142306,0.58466 0.20171,0.621374 0.370475,0.228966 -0.0541,0.607644 -0.577129,0.514736 -1.438891,-0.255597 -2.407202,-0.01024 -4.058207,1.028264 -0.800551,0.503559 -2.545218,2.086219 -3.142043,2.850279 -0.180513,0.231091 -0.358524,0.413796 -0.39558,0.40601 -0.03706,-0.0078 -0.571742,-0.15074 -1.188187,-0.317673 z"
       id="path221" />
  </g>
</svg>
