<?xml version="1.0" encoding="UTF-8" standalone="no"?>
<!-- Created with Inkscape (http://www.inkscape.org/) -->

<svg
   width="23.999451"
   height="24"
   viewBox="0 0 6.3498545 6.35"
   version="1.1"
   id="svg112072"
   inkscape:version="1.2.1 (9c6d41e4, 2022-07-14)"
   sodipodi:docname="return-to-the-circle-undone.svg"
   xmlns:inkscape="http://www.inkscape.org/namespaces/inkscape"
   xmlns:sodipodi="http://sodipodi.sourceforge.net/DTD/sodipodi-0.dtd"
   xmlns="http://www.w3.org/2000/svg"
   xmlns:svg="http://www.w3.org/2000/svg">
  <sodipodi:namedview
     id="namedview112074"
     pagecolor="#505050"
     bordercolor="#eeeeee"
     borderopacity="1"
     inkscape:showpageshadow="0"
     inkscape:pageopacity="0"
     inkscape:pagecheckerboard="0"
     inkscape:deskcolor="#505050"
     inkscape:document-units="mm"
     showgrid="false"
     inkscape:zoom="0.2102413"
     inkscape:cx="130.80208"
     inkscape:cy="147.44962"
     inkscape:window-width="1309"
     inkscape:window-height="456"
     inkscape:window-x="0"
     inkscape:window-y="25"
     inkscape:window-maximized="0"
     inkscape:current-layer="layer1" />
  <defs
     id="defs112069">
    <clipPath
       clipPathUnits="userSpaceOnUse"
       id="clipPath111971">
      <path
         d="m 219.983,531.992 h 30.569 v 30.569 h -30.569 z"
         id="path111969" />
    </clipPath>
  </defs>
  <g
     inkscape:label="Layer 1"
     inkscape:groupmode="layer"
     id="layer1"
     transform="translate(-70.116584,-109.12917)">
    <g
       id="g111965"
       transform="matrix(0.20772746,0,0,-0.20772746,24.419908,225.98854)">
      <g
         id="g111967"
         clip-path="url(#clipPath111971)">
        <g
           id="g111973"
           transform="translate(245.7342,545.8442)">
          <path
             d="m 0,0 c -0.06,0.178 -0.125,0.354 -0.222,0.517 -0.185,0.31 -0.427,0.571 -0.741,0.752 -0.136,0.079 -0.285,0.139 -0.438,0.182 -0.01,0.006 -0.02,0.015 -0.031,0.021 C -1.808,1.676 -2.45,1.635 -2.873,1.651 -4.019,1.696 -5.357,1.385 -6.367,0.845 -6.775,0.627 -7.177,0.399 -7.579,0.17 c 0.613,-0.673 1.279,-1.289 2.065,-1.776 1.252,-0.776 3.572,-2.184 5.047,-1.226 0.876,0.569 0.877,1.805 0.507,2.81 C 0.027,-0.016 0.013,-0.007 0,0"
             style="fill:#ffffff;fill-opacity:1;fill-rule:nonzero;stroke:none"
             id="path111975" />
        </g>
        <g
           id="g111977"
           transform="translate(226.5223,551.7661)">
          <path
             d="m 0,0 c -1.149,-0.312 -1.554,-0.913 -1.748,-2.064 -0.174,-1.03 0.389,-1.979 1.233,-2.576 0.855,-0.603 1.827,-0.575 2.807,-0.404 1.845,0.322 3.338,1.358 4.789,2.455 C 5.892,-1.495 4.794,-0.554 3.17,-0.039 2.042,0.318 1.126,0.306 0,0"
             style="fill:#ffffff;fill-opacity:1;fill-rule:nonzero;stroke:none"
             id="path111979" />
        </g>
        <g
           id="g111981"
           transform="translate(244.8318,540.8471)">
          <path
             d="M 0,0 C -1.747,0.115 -3.622,1.155 -5.005,2.151 -5.97,2.845 -6.82,3.724 -7.607,4.639 -7.853,4.501 -8.1,4.365 -8.349,4.233 c -0.281,0.571 -0.433,1.072 0.025,1.302 0.787,0.524 0.903,1.048 0.795,1.59 1.439,0.771 2.94,1.444 4.622,1.376 0.648,-0.026 1.341,-0.054 1.95,-0.298 C -0.752,8.147 -0.544,8.084 -0.36,7.999 -0.252,7.949 -0.151,7.881 -0.053,7.808 0.056,7.772 0.167,7.705 0.266,7.623 1.55,6.54 2.498,4.754 2.622,3.06 2.746,1.378 1.83,-0.121 0,0 M -8.815,5.396 C -8.911,5.372 -9.016,5.405 -9.033,5.372 -9.141,5.366 -9.254,5.361 -9.344,5.348 -9.394,5.356 -9.441,5.363 -9.491,5.371 -9.584,5.416 -9.67,5.462 -9.748,5.506 -9.895,5.589 -10,5.661 -10.038,5.724 c -0.039,0.063 -0.004,0.093 0.121,0.1 0.015,0.001 0.041,0.003 0.07,0.004 0.031,-0.001 0.063,-0.001 0.094,-0.002 0.005,0 0.01,-10e-4 0.015,-0.002 0.011,0.003 0.024,0.003 0.04,0.001 0,0 0,0 -10e-4,0 0.122,-0.002 0.242,-0.004 0.362,-0.005 1.185,1.179 0.914,-0.325 0.522,-0.424 m -0.88,-1.36 c -0.076,0.081 -0.117,0.166 -0.223,0.201 -0.093,0.096 -0.187,0.196 -0.291,0.281 -0.01,0.039 -0.021,0.078 -0.029,0.118 0.069,0.056 0.146,0.105 0.222,0.147 0.127,0.07 0.27,0.109 0.414,0.1 0.142,-0.009 0.247,-0.057 0.351,-0.163 0.013,-0.014 0.037,-0.038 0.061,-0.063 0.021,-0.027 0.041,-0.053 0.062,-0.079 0.002,-0.004 0.004,-0.009 0.005,-0.012 0.015,-0.011 0.025,-0.023 0.03,-0.035 0,0 10e-4,0 10e-4,0 0.079,-0.102 0.159,-0.204 0.24,-0.305 C -9.082,3.96 -9.406,3.73 -9.695,4.036 m -0.597,0.849 c -0.036,0.02 -0.07,0.046 -0.101,0.073 -0.052,0.043 -0.093,0.1 -0.113,0.164 -0.019,0.064 -0.015,0.118 0.014,0.181 0.003,0.008 0.01,0.022 0.017,0.037 0.008,0.013 0.016,0.026 0.024,0.04 0.002,0.001 0.003,0.003 0.005,0.004 0.002,0.009 0.005,0.015 0.01,0.019 v 0 c 0.032,0.052 0.063,0.104 0.094,0.156 0.154,-0.057 0.308,-0.16 0.222,-0.337 -0.022,-0.047 -0.053,-0.079 -0.051,-0.132 -0.026,-0.056 -0.054,-0.114 -0.075,-0.173 -0.015,-0.011 -0.03,-0.022 -0.046,-0.032 m -0.219,-1.21 c -0.027,-0.046 -0.057,-0.034 -0.105,0.041 -0.005,0.01 -0.016,0.026 -0.026,0.043 -0.011,0.02 -0.021,0.04 -0.031,0.059 -0.002,0.004 -0.003,0.008 -0.004,0.011 -0.006,0.005 -0.011,0.014 -0.015,0.024 v 0 c -0.04,0.077 -0.08,0.153 -0.12,0.228 -1.146,0.337 -0.112,0.685 0.086,0.473 0.048,-0.052 0.063,-0.129 0.09,-0.128 0.038,-0.063 0.078,-0.129 0.116,-0.18 0.012,-0.034 0.03,-0.086 0.042,-0.121 0.003,-0.068 0.004,-0.133 0.003,-0.193 -0.001,-0.121 -0.011,-0.211 -0.036,-0.257 m -0.792,-0.111 c -0.036,0.038 -0.055,0.078 -0.105,0.094 -0.044,0.044 -0.088,0.09 -0.137,0.129 -0.005,0.019 -0.011,0.037 -0.015,0.055 0.032,0.027 0.068,0.05 0.103,0.07 0.059,0.033 0.126,0.053 0.194,0.049 0.066,-0.003 0.115,-0.026 0.165,-0.075 0.006,-0.006 0.017,-0.017 0.028,-0.029 0.01,-0.012 0.02,-0.024 0.03,-0.037 10e-4,-0.002 0.002,-0.003 0.002,-0.005 0.008,-0.005 0.012,-0.01 0.015,-0.016 v 0 c 0.038,-0.047 0.076,-0.095 0.114,-0.142 -0.107,-0.125 -0.257,-0.235 -0.394,-0.093 m 2.329,3.471 C -9.038,6.973 -9.111,6.917 -9.183,6.869 -9.302,6.788 -9.442,6.736 -9.587,6.732 -9.729,6.729 -9.837,6.768 -9.95,6.864 c -0.014,0.013 -0.041,0.034 -0.067,0.058 -0.023,0.024 -0.045,0.049 -0.068,0.073 -0.002,0.004 -0.005,0.008 -0.006,0.012 -0.016,0.009 -0.027,0.019 -0.033,0.031 -10e-4,0 -10e-4,0 -10e-4,0 -0.088,0.095 -0.176,0.19 -0.266,0.283 0.206,0.285 0.508,0.543 0.823,0.263 C -9.485,7.51 -9.437,7.429 -9.328,7.403 -9.227,7.316 -9.125,7.225 -9.014,7.149 -9,7.111 -8.986,7.073 -8.974,7.035 m -9.012,-2.58 c -1.602,0.68 -2.954,2.274 -3.573,3.876 -0.485,1.257 -0.096,3.367 1.205,3.998 1.791,0.87 3.623,0.565 5.421,-0.079 1.817,-0.651 3.178,-1.972 4.552,-3.276 0.16,0.122 0.321,0.243 0.483,0.363 0.067,-0.188 0.104,-0.379 0.092,-0.575 0.081,0.047 0.181,0.066 0.31,0.036 0.108,-0.025 0.19,-0.074 0.297,-0.045 C -9.062,8.723 -8.923,8.69 -8.783,8.677 -8.755,8.638 -8.744,8.621 -8.716,8.583 -8.745,8.494 -8.787,8.407 -8.829,8.329 -8.883,8.227 -8.96,8.137 -9.055,8.072 -9.199,7.975 -9.324,7.948 -9.489,7.983 c -0.019,0.004 -0.052,0.01 -0.086,0.019 -0.032,0.01 -0.064,0.021 -0.095,0.032 -0.004,0.002 -0.008,0.005 -0.011,0.007 -0.019,0 -0.033,0.005 -0.045,0.012 v 0 C -9.823,8.085 -9.92,8.117 -10.017,8.149 -10.119,7.988 -10.26,7.822 -10.453,7.648 -10.874,7.354 -10.65,6.881 -10.289,6.356 -11.105,5.755 -11.95,5.197 -12.88,4.767 -14.454,4.038 -16.366,3.768 -17.986,4.455 m 9.801,2.166 c 0.032,0.052 0.063,0.104 0.094,0.156 C -7.937,6.72 -7.782,6.617 -7.869,6.44 -7.892,6.393 -7.922,6.361 -7.92,6.309 -7.946,6.252 -7.974,6.195 -7.995,6.135 -8.01,6.124 -8.025,6.113 -8.041,6.102 -8.077,6.124 -8.112,6.15 -8.142,6.176 c -0.052,0.043 -0.093,0.1 -0.113,0.164 -0.02,0.064 -0.015,0.118 0.014,0.181 0.003,0.008 0.01,0.022 0.017,0.037 0.008,0.013 0.017,0.027 0.025,0.04 10e-4,0.002 0.003,0.003 0.004,0.004 0.002,0.009 0.006,0.015 0.01,0.019 m 0.068,3.834 c 0.229,-0.03 0.461,-0.057 0.695,-0.084 0,0 -0.001,0 -0.001,0 0.03,10e-4 0.056,-0.003 0.077,-0.013 0.009,10e-4 0.019,10e-4 0.029,10e-4 0.06,-0.007 0.121,-0.014 0.18,-0.021 0.057,-0.011 0.109,-0.024 0.139,-0.03 0.245,-0.055 0.324,-0.15 0.274,-0.32 C -6.773,9.821 -6.946,9.642 -7.198,9.446 -7.325,9.347 -7.467,9.243 -7.621,9.144 -7.72,9.129 -7.817,9.118 -7.914,9.105 c -0.18,0.064 -0.401,0.109 -0.61,0.155 -0.048,0.098 -0.253,0.092 -0.432,0.128 -0.677,0.138 0.054,0.644 0.839,1.067 m 1.763,0.478 c 0.049,-0.052 0.064,-0.129 0.09,-0.128 0.039,-0.062 0.079,-0.128 0.117,-0.179 0.012,-0.035 0.03,-0.087 0.042,-0.122 0.003,-0.068 0.004,-0.133 0.003,-0.193 -10e-4,-0.12 -0.011,-0.211 -0.036,-0.256 -0.026,-0.047 -0.057,-0.035 -0.105,0.041 -0.006,0.009 -0.016,0.025 -0.027,0.043 -0.01,0.019 -0.02,0.039 -0.031,0.059 -10e-4,0.003 -0.002,0.007 -0.004,0.01 -0.005,0.006 -0.01,0.014 -0.014,0.025 v -0.001 c -0.04,0.077 -0.08,0.153 -0.12,0.228 -1.146,0.337 -0.112,0.685 0.085,0.473 m -3.209,10.781 c -8.442,0 -15.285,-6.843 -15.285,-15.284 0,-8.442 6.843,-15.285 15.285,-15.285 8.441,0 15.284,6.843 15.284,15.285 0,8.441 -6.843,15.284 -15.284,15.284"
             style="fill:#ffffff;fill-opacity:1;fill-rule:nonzero;stroke:none"
             id="path111983" />
        </g>
        <g
           id="g111985"
           transform="translate(238.3924,551.3073)">
          <path
             d="m 0,0 c 0.04,-0.075 0.08,-0.151 0.12,-0.228 v 0.001 c 0.005,-0.011 0.009,-0.019 0.015,-0.025 0.001,-0.003 0.002,-0.007 0.004,-0.01 0.01,-0.02 0.02,-0.04 0.031,-0.06 0.011,-0.017 0.021,-0.033 0.027,-0.043 0.047,-0.075 0.078,-0.087 0.104,-0.041 0.026,0.046 0.035,0.137 0.037,0.257 0,0.06 0,0.125 -0.004,0.193 C 0.322,0.079 0.304,0.131 0.293,0.166 0.254,0.217 0.215,0.282 0.176,0.345 0.149,0.344 0.134,0.421 0.086,0.473 -0.112,0.685 -1.146,0.337 0,0"
             style="fill:#010101;fill-opacity:1;fill-rule:nonzero;stroke:none"
             id="path111987" />
        </g>
        <g
           id="g111989"
           transform="translate(228.8148,546.7219)">
          <path
             d="M 0,0 C -0.98,-0.171 -1.953,-0.199 -2.807,0.405 -3.651,1.001 -4.214,1.95 -4.04,2.981 -3.846,4.132 -3.441,4.732 -2.292,5.044 -1.167,5.35 -0.251,5.362 0.877,5.005 2.501,4.491 3.6,3.549 4.788,2.455 3.337,1.358 1.844,0.322 0,0 M 5.564,1.773 C 5.757,1.947 5.898,2.114 6,2.274 6.097,2.243 6.194,2.211 6.291,2.178 v 0 C 6.303,2.171 6.317,2.167 6.336,2.166 6.339,2.164 6.343,2.161 6.347,2.159 6.378,2.148 6.41,2.138 6.442,2.127 6.476,2.119 6.509,2.112 6.528,2.108 6.693,2.073 6.818,2.1 6.962,2.197 7.057,2.262 7.134,2.352 7.188,2.454 7.231,2.533 7.272,2.619 7.301,2.708 7.273,2.747 7.262,2.763 7.234,2.802 7.094,2.815 6.955,2.848 6.818,2.878 6.71,2.849 6.63,2.898 6.521,2.923 6.392,2.954 6.292,2.934 6.211,2.887 6.223,3.083 6.186,3.274 6.119,3.462 5.957,3.342 5.796,3.221 5.636,3.099 4.262,4.403 2.901,5.724 1.084,6.375 -0.714,7.019 -2.546,7.324 -4.337,6.454 -5.638,5.823 -6.027,3.713 -5.542,2.456 -4.923,0.854 -3.57,-0.74 -1.969,-1.42 c 1.62,-0.687 3.532,-0.417 5.106,0.312 0.93,0.431 1.775,0.988 2.591,1.589 C 5.367,1.006 5.143,1.479 5.564,1.773"
             style="fill:#010101;fill-opacity:1;fill-rule:nonzero;stroke:none"
             id="path111991" />
        </g>
        <g
           id="g111993"
           transform="translate(236.6323,547.4451)">
          <path
             d="m 0,0 c -0.008,-0.013 -0.016,-0.027 -0.024,-0.04 -0.008,-0.015 -0.014,-0.029 -0.018,-0.037 -0.029,-0.064 -0.033,-0.117 -0.013,-0.181 0.02,-0.064 0.06,-0.121 0.112,-0.164 0.031,-0.027 0.065,-0.052 0.101,-0.073 0.016,0.01 0.031,0.021 0.047,0.032 0.02,0.059 0.048,0.117 0.074,0.174 -0.002,0.052 0.029,0.084 0.052,0.131 C 0.417,0.019 0.262,0.122 0.108,0.179 0.077,0.127 0.046,0.075 0.014,0.023 0.01,0.019 0.006,0.013 0.004,0.004 0.003,0.003 0.001,0.002 0,0"
             style="fill:#010101;fill-opacity:1;fill-rule:nonzero;stroke:none"
             id="path111995" />
        </g>
        <g
           id="g111997"
           transform="translate(235.2637,548.4315)">
          <path
             d="m 0,0 c -0.314,0.28 -0.617,0.022 -0.823,-0.263 0.09,-0.094 0.178,-0.188 0.266,-0.283 0,0 0,0 0.001,0 0.006,-0.012 0.017,-0.022 0.033,-0.032 0.001,-0.003 0.004,-0.007 0.006,-0.011 0.023,-0.025 0.046,-0.049 0.068,-0.074 0.027,-0.023 0.053,-0.045 0.067,-0.057 0.113,-0.096 0.222,-0.136 0.364,-0.132 0.144,0.003 0.284,0.055 0.403,0.136 0.072,0.049 0.145,0.104 0.209,0.166 -0.012,0.039 -0.026,0.077 -0.04,0.114 C 0.443,-0.359 0.341,-0.268 0.24,-0.181 0.131,-0.156 0.083,-0.074 0,0"
             style="fill:#010101;fill-opacity:1;fill-rule:nonzero;stroke:none"
             id="path111999" />
        </g>
        <g
           id="g112001"
           transform="translate(235.8755,550.2352)">
          <path
             d="m 0,0 c 0.179,-0.036 0.385,-0.03 0.432,-0.128 0.21,-0.046 0.43,-0.091 0.61,-0.155 0.098,0.013 0.194,0.024 0.293,0.039 0.154,0.099 0.296,0.202 0.424,0.302 C 2.01,0.254 2.183,0.433 2.232,0.6 2.283,0.77 2.203,0.865 1.958,0.92 1.928,0.926 1.876,0.939 1.82,0.95 1.76,0.957 1.7,0.964 1.639,0.971 1.63,0.971 1.62,0.971 1.611,0.97 1.589,0.98 1.563,0.984 1.533,0.983 c 0.001,0 0.001,0 0.001,0 C 1.301,1.01 1.069,1.037 0.839,1.067 0.055,0.644 -0.677,0.137 0,0"
             style="fill:#010101;fill-opacity:1;fill-rule:nonzero;stroke:none"
             id="path112003" />
        </g>
        <g
           id="g112005"
           transform="translate(235.7392,545.3781)">
          <path
             d="m 0,0 c -0.005,0.013 -0.015,0.024 -0.031,0.035 0,0.003 -0.003,0.007 -0.005,0.012 -0.02,0.026 -0.041,0.053 -0.061,0.079 -0.024,0.025 -0.048,0.049 -0.062,0.063 -0.104,0.106 -0.208,0.154 -0.35,0.163 -0.145,0.009 -0.288,-0.03 -0.414,-0.1 -0.076,-0.042 -0.154,-0.091 -0.223,-0.147 0.009,-0.04 0.02,-0.079 0.03,-0.118 0.104,-0.086 0.197,-0.185 0.29,-0.281 0.107,-0.035 0.147,-0.12 0.224,-0.201 0.289,-0.306 0.613,-0.076 0.843,0.19 C 0.16,-0.204 0.08,-0.102 0,0 0,0 0,0 0,0"
             style="fill:#010101;fill-opacity:1;fill-rule:nonzero;stroke:none"
             id="path112007" />
        </g>
        <g
           id="g112009"
           transform="translate(233.8084,544.6459)">
          <path
             d="M 0,0 C -0.003,0.006 -0.007,0.011 -0.014,0.016 -0.015,0.018 -0.016,0.02 -0.017,0.022 -0.027,0.034 -0.036,0.046 -0.046,0.058 -0.058,0.07 -0.069,0.081 -0.075,0.087 -0.124,0.137 -0.173,0.159 -0.24,0.162 -0.307,0.166 -0.374,0.146 -0.433,0.113 -0.469,0.093 -0.504,0.07 -0.537,0.043 c 0.005,-0.018 0.01,-0.036 0.015,-0.054 0.049,-0.04 0.093,-0.086 0.137,-0.13 0.05,-0.016 0.07,-0.056 0.106,-0.093 0.136,-0.142 0.287,-0.033 0.393,0.092 C 0.076,-0.095 0.038,-0.047 0,0 Z"
             style="fill:#010101;fill-opacity:1;fill-rule:nonzero;stroke:none"
             id="path112011" />
        </g>
        <g
           id="g112013"
           transform="translate(245.2675,543.0125)">
          <path
             d="m 0,0 c -1.476,-0.959 -3.796,0.45 -5.047,1.226 -0.786,0.487 -1.453,1.103 -2.066,1.776 0.403,0.229 0.805,0.457 1.212,0.674 1.011,0.541 2.349,0.852 3.495,0.807 0.423,-0.016 1.064,0.025 1.44,-0.18 0.011,-0.006 0.021,-0.014 0.032,-0.02 C -0.781,4.24 -0.632,4.18 -0.496,4.101 -0.183,3.919 0.06,3.658 0.244,3.349 0.342,3.185 0.406,3.01 0.467,2.832 0.48,2.825 0.493,2.816 0.507,2.81 0.876,1.805 0.876,0.569 0,0 M 2.187,0.895 C 2.062,2.589 1.114,4.374 -0.17,5.457 -0.269,5.54 -0.38,5.607 -0.489,5.642 -0.587,5.716 -0.687,5.784 -0.796,5.834 -0.98,5.918 -1.188,5.982 -1.393,6.037 -2.002,6.282 -2.694,6.31 -3.343,6.336 -5.024,6.404 -6.526,5.731 -7.965,4.96 -7.856,4.418 -7.973,3.894 -8.759,3.369 -9.218,3.14 -9.066,2.639 -8.785,2.068 c 0.249,0.132 0.496,0.268 0.742,0.406 0.788,-0.915 1.637,-1.794 2.602,-2.489 1.384,-0.995 3.259,-2.035 5.005,-2.15 1.83,-0.121 2.746,1.378 2.623,3.06"
             style="fill:#010101;fill-opacity:1;fill-rule:nonzero;stroke:none"
             id="path112015" />
        </g>
        <g
           id="g112017"
           transform="translate(235.4942,546.6668)">
          <path
             d="m 0,0 c -0.119,0.001 -0.24,0.003 -0.361,0.005 0,0 0.001,0 0.001,0 -0.016,0.002 -0.03,0.002 -0.04,-0.001 -0.005,0.001 -0.01,0.002 -0.016,0.003 -0.031,0 -0.062,0.001 -0.093,0.001 -0.029,-0.001 -0.056,-0.003 -0.071,-0.004 -0.125,-0.007 -0.16,-0.037 -0.121,-0.1 0.039,-0.062 0.144,-0.135 0.291,-0.218 0.078,-0.044 0.164,-0.09 0.257,-0.135 0.05,-0.008 0.097,-0.015 0.146,-0.023 0.091,0.014 0.204,0.018 0.311,0.024 0.018,0.033 0.122,0 0.219,0.024 C 0.915,-0.324 1.185,1.179 0,0"
             style="fill:#010101;fill-opacity:1;fill-rule:nonzero;stroke:none"
             id="path112019" />
        </g>
        <g
           id="g112021"
           transform="translate(234.712,546.0687)">
          <path
             d="M 0,0 C 0.086,0.177 -0.068,0.28 -0.222,0.338 -0.253,0.285 -0.285,0.234 -0.317,0.182 h 0.001 C -0.321,0.177 -0.324,0.171 -0.326,0.163 -0.328,0.162 -0.329,0.16 -0.331,0.158 -0.339,0.145 -0.347,0.132 -0.355,0.118 -0.362,0.104 -0.369,0.089 -0.373,0.081 -0.402,0.018 -0.406,-0.036 -0.386,-0.1 c 0.02,-0.064 0.061,-0.12 0.112,-0.164 0.031,-0.026 0.066,-0.052 0.102,-0.073 0.015,0.01 0.03,0.022 0.046,0.032 0.02,0.06 0.049,0.117 0.075,0.174 C -0.053,-0.079 -0.023,-0.047 0,0"
             style="fill:#010101;fill-opacity:1;fill-rule:nonzero;stroke:none"
             id="path112023" />
        </g>
        <g
           id="g112025"
           transform="translate(234.3119,545.0935)">
          <path
             d="m 0,0 c -0.038,0.051 -0.078,0.117 -0.117,0.179 -0.026,0 -0.041,0.077 -0.09,0.129 -0.197,0.211 -1.231,-0.136 -0.086,-0.473 0.041,-0.076 0.081,-0.152 0.121,-0.228 v 0 c 0.004,-0.01 0.009,-0.019 0.014,-0.025 0.001,-0.003 0.003,-0.006 0.004,-0.01 0.011,-0.02 0.021,-0.039 0.031,-0.059 0.011,-0.018 0.021,-0.034 0.027,-0.043 0.048,-0.076 0.078,-0.087 0.105,-0.041 0.025,0.045 0.035,0.136 0.036,0.257 0.001,0.059 0,0.124 -0.003,0.193 C 0.03,-0.087 0.012,-0.034 0,0"
             style="fill:#010101;fill-opacity:1;fill-rule:nonzero;stroke:none"
             id="path112027" />
        </g>
      </g>
    </g>
  </g>
</svg>
