<?xml version="1.0" encoding="UTF-8" standalone="no"?>
<!-- Created with Inkscape (http://www.inkscape.org/) -->

<svg
   width="24.000078"
   height="24"
   viewBox="0 0 6.3500207 6.35"
   version="1.1"
   id="svg50040"
   inkscape:version="1.2.1 (9c6d41e4, 2022-07-14)"
   sodipodi:docname="return-to-the-forgotten-age.svg"
   xmlns:inkscape="http://www.inkscape.org/namespaces/inkscape"
   xmlns:sodipodi="http://sodipodi.sourceforge.net/DTD/sodipodi-0.dtd"
   xmlns="http://www.w3.org/2000/svg"
   xmlns:svg="http://www.w3.org/2000/svg">
  <sodipodi:namedview
     id="namedview50042"
     pagecolor="#505050"
     bordercolor="#eeeeee"
     borderopacity="1"
     inkscape:showpageshadow="0"
     inkscape:pageopacity="0"
     inkscape:pagecheckerboard="0"
     inkscape:deskcolor="#505050"
     inkscape:document-units="mm"
     showgrid="false"
     inkscape:zoom="0.2102413"
     inkscape:cx="-45.186174"
     inkscape:cy="76.103029"
     inkscape:window-width="1309"
     inkscape:window-height="456"
     inkscape:window-x="0"
     inkscape:window-y="25"
     inkscape:window-maximized="0"
     inkscape:current-layer="layer1" />
  <defs
     id="defs50037">
    <clipPath
       clipPathUnits="userSpaceOnUse"
       id="clipPath50011">
      <path
         d="m 219.983,426.412 h 30.569 v 30.569 h -30.569 z"
         id="path50009" />
    </clipPath>
  </defs>
  <g
     inkscape:label="Layer 1"
     inkscape:groupmode="layer"
     id="layer1"
     transform="translate(-116.68007,-128.00636)">
    <g
       id="g50005"
       transform="matrix(0.20773018,0,0,-0.20773018,70.982881,222.93511)">
      <g
         id="g50007"
         clip-path="url(#clipPath50011)">
        <g
           id="g50013"
           transform="translate(235.2684,456.9815)">
          <path
             d="m 0,0 c -8.442,0 -15.285,-6.843 -15.285,-15.285 0,-8.441 6.843,-15.284 15.285,-15.284 8.442,0 15.285,6.843 15.285,15.284 C 15.285,-6.843 8.442,0 0,0"
             style="fill:#ffffff;fill-opacity:1;fill-rule:nonzero;stroke:none"
             id="path50015" />
        </g>
        <g
           id="g50017"
           transform="translate(246.5985,439.7217)">
          <path
             d="M 0,0 C -0.004,-0.066 -0.026,-0.105 -0.037,-0.166 -0.051,-0.256 -0.039,-0.343 -0.058,-0.435 -0.077,-0.52 -0.093,-0.603 -0.107,-0.69 -0.132,-0.84 -0.178,-0.946 -0.234,-1.074 -0.267,-1.152 -0.28,-1.228 -0.324,-1.3 -0.351,-1.344 -0.38,-1.377 -0.405,-1.423 -0.445,-1.5 -0.467,-1.658 -0.49,-1.453 c 0,0 0,0 0,0 -0.002,0.005 0,0.009 -0.001,0.014 -0.006,0.019 -0.009,0.039 -0.005,0.059 0.001,-0.022 0.003,-0.041 0.005,-0.059 0,-0.005 0.001,-0.009 0.001,-0.014 0.044,0.011 0.064,0.1 0.084,0.148 0.044,0.108 0.096,0.195 0.117,0.314 0.036,0.218 0.121,0.45 0.123,0.671 0.001,0.09 0.009,0.157 0.025,0.243 0.023,0.12 0.007,0.253 0.007,0.375 0,0.243 0.071,0.473 0.068,0.716 -0.003,0.189 -0.062,0.349 -0.125,0.511 -0.06,0.152 -0.024,0.366 -0.098,0.499 -0.009,0.018 -0.031,0.017 -0.042,0.032 -0.042,0.052 -0.05,0.125 -0.06,0.194 -0.018,0.135 0.003,0.272 -0.005,0.408 -0.011,0.196 -0.052,0.395 -0.121,0.573 -0.04,0.103 -0.085,0.182 -0.138,0.278 C -0.728,3.642 -0.757,3.775 -0.8,3.921 -0.878,4.182 -1.043,4.382 -1.122,4.641 -1.185,4.85 -1.288,5.031 -1.347,5.244 -1.399,5.429 -1.43,5.66 -1.559,5.798 -1.658,5.902 -1.787,5.912 -1.9,5.99 -2.041,6.088 -2.104,6.26 -2.242,6.355 -2.367,6.441 -2.419,6.571 -2.515,6.688 -2.639,6.841 -2.701,7.04 -2.803,7.214 -2.906,7.391 -3.029,7.512 -3.159,7.658 -3.308,7.826 -3.412,8.013 -3.587,8.149 -3.683,8.223 -3.775,8.287 -3.86,8.377 -3.921,8.441 -3.974,8.519 -4.053,8.556 -4.21,8.631 -4.347,8.673 -4.488,8.788 c -0.115,0.095 -0.248,0.14 -0.36,0.243 -0.056,0.052 -0.124,0.141 -0.192,0.183 -0.092,0.057 -0.201,0.041 -0.299,0.079 -0.204,0.081 -0.391,0.242 -0.59,0.34 -0.149,0.073 -0.272,0.188 -0.376,0.327 -0.074,0.099 -0.192,0.181 -0.294,0.239 -0.168,0.097 -0.299,0.226 -0.455,0.347 -0.111,0.085 -0.231,0.096 -0.35,0.154 -0.149,0.073 -0.289,0.171 -0.443,0.231 -0.196,0.076 -0.404,0.11 -0.587,0.223 -0.194,0.118 -0.354,0.302 -0.561,0.388 -0.063,0.026 -0.13,0.044 -0.193,0.073 -0.09,0.04 -0.161,0.117 -0.254,0.149 -0.177,0.06 -0.366,0.044 -0.548,0.043 -0.398,-0.001 -0.796,0 -1.194,0 -0.184,0 -0.368,-0.001 -0.553,0 -0.083,10e-4 -0.191,0.026 -0.271,-0.014 -0.078,-0.039 -0.139,-0.107 -0.222,-0.142 -0.062,-0.026 -0.113,-0.02 -0.174,-0.036 -0.069,-0.019 -0.085,-0.047 -0.137,-0.104 -0.108,-0.12 -0.267,-0.085 -0.405,-0.085 -0.162,10e-4 -0.323,0 -0.485,0 -0.157,0 -0.344,0.032 -0.495,-0.004 -0.074,-0.019 -0.131,-0.082 -0.2,-0.113 -0.063,-0.029 -0.128,-0.03 -0.189,-0.06 -0.122,-0.062 -0.249,-0.161 -0.365,-0.242 -0.278,-0.194 -0.631,-0.362 -0.966,-0.297 -0.061,0.012 -0.12,0.042 -0.183,0.03 -0.058,-0.012 -0.109,-0.051 -0.167,-0.068 -0.128,-0.037 -0.25,-0.053 -0.371,-0.119 -0.147,-0.08 -0.27,-0.196 -0.422,-0.27 -0.169,-0.083 -0.327,-0.188 -0.477,-0.31 -0.078,-0.063 -0.13,-0.121 -0.225,-0.153 -0.118,-0.04 -0.247,-0.034 -0.369,-0.035 -0.163,0 -0.331,0.029 -0.488,-0.034 -0.093,-0.038 -0.164,-0.07 -0.264,-0.078 -0.062,-0.005 -0.107,-0.012 -0.165,-0.036 -0.147,-0.058 -0.254,-0.173 -0.363,-0.298 -0.076,-0.087 -0.13,-0.182 -0.188,-0.285 -0.062,-0.11 -0.109,-0.17 -0.19,-0.257 -0.084,-0.089 -0.155,-0.187 -0.248,-0.269 -0.099,-0.086 -0.169,-0.186 -0.257,-0.285 -0.093,-0.102 -0.206,-0.169 -0.286,-0.285 -0.109,-0.159 -0.293,-0.147 -0.399,-0.304 -0.082,-0.122 -0.196,-0.219 -0.269,-0.344 -0.074,-0.127 -0.186,-0.165 -0.282,-0.265 -0.084,-0.089 -0.164,-0.2 -0.236,-0.304 -0.096,-0.139 -0.236,-0.26 -0.308,-0.419 -0.06,-0.133 -0.087,-0.373 -0.237,-0.419 0.031,0.01 -0.134,0.001 -0.131,0.004 -0.059,-0.053 -0.022,-0.193 -0.025,-0.269 -0.005,-0.14 -0.087,-0.285 -0.134,-0.416 -0.035,-0.098 -0.049,-0.173 -0.071,-0.275 -0.022,-0.106 -0.083,-0.176 -0.128,-0.268 -0.15,-0.308 -0.294,-0.664 -0.326,-1.02 -0.01,-0.121 0.019,-0.252 -0.008,-0.37 -0.017,-0.076 -0.055,-0.127 -0.062,-0.206 0,-0.002 0,-0.003 0,-0.004 0.002,-0.011 0.004,-0.023 0.004,-0.038 0,-0.016 -0.003,-0.029 -0.005,-0.04 0,-0.062 0.003,-0.125 0.003,-0.185 V 2.415 c 0,-0.042 0,-0.083 10e-4,-0.124 0,0.092 -0.045,0.194 -0.059,0.285 -0.016,0.101 0.014,0.144 0.027,0.237 0.005,0.04 -0.004,0.073 0.005,0.114 0.007,0.03 0.017,0.049 0.023,0.074 0,0.026 -0.001,0.052 10e-4,0.078 -0.006,0.026 -0.016,0.045 -0.024,0.077 -0.014,0.061 0.003,0.119 -0.005,0.181 -0.029,0.208 -0.069,0.452 -0.028,0.667 0.01,0.052 0.041,0.094 0.053,0.144 0.009,0.04 -0.002,0.074 0.004,0.112 0.018,0.108 0.076,0.197 0.109,0.295 0.03,0.087 0.04,0.189 0.077,0.274 0.019,0.045 0.059,0.076 0.075,0.119 0.012,0.031 0.008,0.087 0.012,0.12 0.016,0.131 0.056,0.248 0.057,0.381 0.002,0.183 0.111,0.366 0.2,0.511 0.04,0.066 0.082,0.075 0.126,0.129 0.038,0.047 0.043,0.092 0.078,0.143 0.069,0.103 0.129,0.2 0.192,0.308 0.033,0.056 0.043,0.07 0.064,0.128 0.029,0.08 0.049,0.148 0.101,0.218 0.082,0.11 0.165,0.214 0.234,0.341 0.05,0.094 0.117,0.173 0.161,0.271 0.075,0.166 0.152,0.32 0.258,0.464 0.063,0.088 0.147,0.134 0.213,0.224 0.045,0.061 0.092,0.116 0.124,0.186 0.061,0.131 0.034,0.308 0.136,0.412 0.07,0.071 0.115,0.062 0.161,0.159 0.046,0.096 0.051,0.215 0.103,0.308 0.054,0.096 0.094,0.082 0.17,0.126 0.051,0.03 0.082,0.068 0.129,0.106 0.112,0.093 0.243,0.08 0.357,0.158 0.06,0.042 0.107,0.115 0.17,0.15 0.099,0.055 0.195,10e-4 0.294,0.038 0.081,0.031 0.074,0.105 0.126,0.162 0.061,0.067 0.087,0.056 0.168,0.073 0.134,0.026 0.188,0.18 0.328,0.184 0.056,0.002 0.141,-0.028 0.193,0 0.058,0.033 0.076,0.116 0.137,0.154 0.043,0.027 0.063,0.027 0.106,0.033 0.122,0.019 0.179,0.068 0.281,0.145 0.18,0.136 0.373,0.034 0.566,0.118 0.159,0.07 0.289,0.176 0.459,0.223 0.077,0.022 0.111,0.054 0.179,0.088 0.075,0.037 0.12,0.038 0.203,0.037 0.093,-0.002 0.197,-0.015 0.289,-0.004 0.089,0.011 0.151,0.083 0.234,0.119 0.062,0.028 0.132,0.035 0.191,0.071 0.08,0.049 0.104,0.117 0.169,0.187 0.075,0.081 0.132,0.074 0.219,0.111 0.07,0.029 0.107,0.066 0.169,0.116 0.138,0.112 0.287,0.044 0.427,0.119 0.09,0.049 0.161,0.105 0.26,0.132 0.116,0.031 0.233,0.004 0.348,0.031 0.054,0.013 0.1,0.049 0.153,0.063 0.089,0.025 0.202,0.013 0.291,0.009 0.094,-0.005 0.181,-0.038 0.274,-0.044 0.086,-0.005 0.122,0.031 0.2,0.063 0.093,0.038 0.198,0.018 0.294,0.015 0.11,-0.004 0.156,0.013 0.253,0.07 0.164,0.095 0.391,0.044 0.572,0.045 0.144,0.001 0.28,0.039 0.427,0.038 0.167,0 0.321,0.072 0.487,0.079 0.173,0.008 0.354,0.008 0.527,0 0.229,-0.01 0.421,-0.139 0.64,-0.186 0.186,-0.04 0.411,-0.015 0.595,0.024 0.144,0.03 0.279,-0.021 0.422,-0.028 0.183,-0.009 0.395,-0.169 0.555,-0.262 0.158,-0.093 0.35,-0.096 0.518,-0.16 0.188,-0.072 0.382,-0.073 0.562,-0.178 0.089,-0.053 0.164,-0.125 0.259,-0.165 0.109,-0.047 0.208,-0.076 0.311,-0.142 0.174,-0.113 0.294,-0.297 0.498,-0.315 0.206,-0.017 0.341,-0.161 0.528,-0.232 0.191,-0.073 0.404,-0.045 0.59,-0.146 0.264,-0.144 0.479,-0.445 0.681,-0.679 0.101,-0.118 0.194,-0.241 0.31,-0.34 C -4.174,9.329 -4.062,9.151 -3.904,9.035 -3.614,8.822 -3.323,8.619 -3.038,8.4 -2.86,8.263 -2.699,8.057 -2.557,7.872 -2.46,7.746 -2.355,7.629 -2.252,7.509 -2.164,7.408 -2.081,7.292 -1.984,7.205 -1.826,7.065 -1.643,6.971 -1.493,6.818 -1.325,6.647 -1.204,6.375 -1.08,6.159 -1.026,6.064 -0.989,5.986 -0.989,5.869 -0.988,5.74 -0.987,5.666 -0.918,5.557 -0.871,5.481 -0.826,5.416 -0.792,5.331 -0.735,5.189 -0.714,5.056 -0.622,4.935 -0.556,4.849 -0.487,4.773 -0.436,4.672 -0.369,4.54 -0.357,4.409 -0.331,4.263 -0.294,4.061 -0.263,3.866 -0.206,3.666 -0.156,3.489 -0.185,3.327 -0.169,3.147 -0.162,3.063 -0.135,3.002 -0.101,2.928 -0.048,2.815 -0.041,2.734 -0.035,2.61 -0.028,2.473 -0.001,2.346 -0.002,2.207 -0.003,2.003 0,1.799 -0.002,1.595 -0.003,1.512 0.013,1.451 0.024,1.371 0.048,1.201 0.027,1.039 0.006,0.871 -0.03,0.585 0.016,0.287 0,0 m -1.619,-0.252 c -0.017,-0.112 -0.004,-0.224 -0.007,-0.336 -0.002,-0.114 -0.02,-0.225 -0.05,-0.335 -0.034,-0.119 -0.116,-0.216 -0.182,-0.321 -0.053,-0.086 -0.144,-0.153 -0.182,-0.247 -0.043,-0.107 0.016,-0.296 -0.068,-0.377 -0.041,-0.04 -0.096,-0.058 -0.135,-0.105 -0.043,-0.051 -0.069,-0.115 -0.11,-0.168 -0.089,-0.118 -0.189,-0.224 -0.274,-0.347 -0.133,-0.195 -0.201,-0.44 -0.196,-0.676 0.003,-0.112 -10e-4,-0.186 -0.064,-0.28 -0.082,-0.124 -0.195,-0.226 -0.31,-0.317 -0.082,-0.063 -0.158,-0.13 -0.225,-0.209 -0.08,-0.094 -0.121,-0.203 -0.189,-0.305 -0.15,-0.221 -0.307,-0.458 -0.515,-0.628 -0.135,-0.112 -0.253,-0.23 -0.373,-0.359 -0.092,-0.099 -0.21,-0.141 -0.314,-0.224 -0.211,-0.169 -0.402,-0.357 -0.592,-0.549 -0.087,-0.088 -0.155,-0.187 -0.253,-0.266 -0.105,-0.083 -0.21,-0.168 -0.317,-0.248 -0.206,-0.154 -0.437,-0.317 -0.689,-0.383 -0.113,-0.03 -0.242,-0.056 -0.36,-0.061 -0.138,-0.006 -0.277,0.014 -0.414,-0.006 -0.102,-0.014 -0.207,-0.025 -0.306,-0.051 -0.065,-0.018 -0.131,-0.027 -0.197,-0.037 -0.016,-0.019 -0.03,-0.034 -0.076,-0.041 L -8.24,-7.163 c -0.106,-0.035 -0.212,-0.074 -0.309,-0.119 -0.263,-0.12 -0.486,-0.063 -0.766,-0.051 l 1.075,0.17 c 0.058,0.019 0.116,0.038 0.173,0.053 0.042,0.011 0.084,0.016 0.126,0.023 0.007,0.008 0.014,0.017 0.025,0.027 0.043,0.04 0.083,0.049 0.142,0.068 0.213,0.068 0.405,0.212 0.609,0.307 0.2,0.094 0.408,0.179 0.582,0.316 0.208,0.165 0.445,0.265 0.651,0.436 0.1,0.082 0.176,0.186 0.274,0.269 0.091,0.078 0.185,0.145 0.272,0.228 0.175,0.164 0.366,0.271 0.504,0.471 0.072,0.103 0.137,0.12 0.224,0.2 0.074,0.069 0.125,0.166 0.178,0.252 0.109,0.173 0.221,0.343 0.326,0.52 0.095,0.161 0.121,0.354 0.203,0.523 0.048,0.1 0.104,0.19 0.13,0.299 0.025,0.108 0.063,0.158 0.127,0.245 0.046,0.064 0.09,0.133 0.121,0.205 0.033,0.075 0.032,0.172 0.074,0.243 0.038,0.066 0.095,0.088 0.122,0.165 0.038,0.109 0.057,0.225 0.083,0.337 0.026,0.11 0.081,0.201 0.096,0.314 0.014,0.107 0.022,0.216 0.036,0.323 0.018,0.127 0.066,0.232 0.068,0.363 10e-4,0.114 -0.002,0.227 -0.002,0.341 0,0.155 -0.004,0.303 0.027,0.453 0.035,0.175 0.007,0.381 0.007,0.559 0,0.373 0.008,0.733 -0.076,1.1 -0.077,0.336 -0.186,0.667 -0.292,0.997 -0.043,0.134 -0.062,0.268 -0.111,0.4 -0.056,0.153 -0.133,0.313 -0.167,0.474 -0.026,0.122 -0.09,0.236 -0.14,0.357 C -3.903,3.84 -3.941,3.979 -3.992,4.113 -4.109,4.422 -4.314,4.684 -4.461,4.976 -4.597,5.244 -4.805,5.47 -4.993,5.701 -5.096,5.828 -5.215,5.969 -5.346,6.065 -5.464,6.153 -5.604,6.209 -5.719,6.309 -5.807,6.386 -5.903,6.433 -5.994,6.504 -6.06,6.557 -6.113,6.642 -6.189,6.676 -6.248,6.703 -6.315,6.714 -6.377,6.745 -6.469,6.792 -6.555,6.831 -6.65,6.87 -6.783,6.923 -6.883,7.035 -7.008,7.102 -7.125,7.163 -7.24,7.223 -7.352,7.294 -7.606,7.455 -7.88,7.602 -8.157,7.72 -8.372,7.81 -8.558,7.912 -8.79,7.939 -8.927,7.955 -9.047,8.024 -9.178,8.06 -9.323,8.099 -9.465,8.138 -9.609,8.184 -9.707,8.214 -9.798,8.2 -9.894,8.221 c -0.1,0.022 -0.174,0.062 -0.28,0.064 -0.096,0.002 -0.176,-10e-4 -0.268,0.024 -0.141,0.036 -0.288,0.034 -0.426,0.079 -0.186,0.061 -0.313,0.097 -0.511,0.1 -0.124,0.003 -0.236,0.027 -0.354,0.049 0.001,-0.038 0.003,-0.075 0.013,-0.11 0.029,-0.11 0.121,-0.21 0.156,-0.322 0.024,-0.079 0.044,-0.12 0.109,-0.18 0.054,-0.05 0.129,-0.089 0.178,-0.142 0.045,-0.048 0.068,-0.1 0.121,-0.144 0.06,-0.049 0.18,-0.144 0.269,-0.149 -0.007,-0.052 -0.075,-0.074 -0.133,-0.081 -0.007,-0.021 -0.013,-0.043 -0.019,-0.065 -0.027,-0.005 -0.054,-0.011 -0.081,-0.016 -0.006,-0.062 -0.069,-0.11 -0.097,-0.164 -0.037,-0.071 -0.078,-0.158 -0.101,-0.232 -0.029,-0.093 -0.011,-0.196 -0.012,-0.292 -0.002,-0.1 0.019,-0.185 0.04,-0.283 0.021,-0.104 0,-0.206 0.021,-0.311 0.055,-0.272 0.198,-0.503 0.387,-0.729 0.061,-0.073 0.13,-0.142 0.191,-0.214 0.052,-0.062 0.069,-0.137 0.121,-0.196 0.043,-0.05 0.103,-0.1 0.149,-0.159 0.061,-0.078 0.152,-0.19 0.241,-0.249 0.05,-0.033 0.131,-0.037 0.151,-0.085 0.026,-0.061 -0.084,-0.145 -0.116,-0.194 -0.076,-0.114 -0.128,-0.252 -0.175,-0.377 -0.052,-0.139 -0.123,-0.271 -0.162,-0.414 -0.17,-0.619 0.049,-1.257 0.212,-1.859 0.102,-0.38 0.287,-0.725 0.439,-1.092 0.063,-0.153 0.138,-0.297 0.21,-0.447 0.055,-0.115 0.14,-0.211 0.2,-0.322 0.069,-0.128 0.034,-0.243 -0.101,-0.343 -0.168,-0.126 -0.324,-0.282 -0.474,-0.428 -0.161,-0.155 -0.353,-0.297 -0.522,-0.455 -0.103,-0.096 -0.162,-0.203 -0.259,-0.301 -0.177,-0.18 -0.277,-0.392 -0.404,-0.592 -0.174,-0.275 -0.148,-0.55 -0.148,-0.849 0,-0.298 -0.027,-0.593 0.064,-0.885 0.027,-0.088 0.064,-0.171 0.086,-0.258 10e-4,-0.004 0.039,-0.097 0.039,-0.09 0,-0.091 -0.007,-0.029 -0.077,-0.08 -0.152,-0.111 -0.306,-0.249 -0.41,-0.394 -0.168,-0.238 -0.208,-0.521 -0.312,-0.776 -0.059,-0.145 0.016,-0.31 -0.047,-0.45 -0.023,-0.05 -0.063,-0.079 -0.079,-0.133 -0.031,-0.101 -0.015,-0.201 -0.064,-0.301 0.006,0.109 -0.028,0.175 -0.05,0.275 -0.031,0.145 0.013,0.294 -0.058,0.438 -0.02,0.04 -0.058,0.077 -0.075,0.127 -0.035,0.1 -0.072,0.196 -0.127,0.291 -0.065,0.114 -0.136,0.266 -0.235,0.355 -0.023,0.021 -0.061,0.033 -0.086,0.055 -0.054,0.049 -0.071,0.117 -0.115,0.17 -0.024,0.029 -0.063,0.046 -0.087,0.075 -0.03,0.036 -0.018,0.079 -0.058,0.116 -0.069,0.062 -0.103,0.023 -0.092,0.109 0,0.004 0.047,0.08 0.05,0.083 0.078,0.084 0.115,0.1 0.139,0.213 0.018,0.087 0.05,0.142 0.05,0.242 -0.002,0.176 0.007,0.353 10e-4,0.53 -0.006,0.215 -0.063,0.424 -0.115,0.634 -0.039,0.157 -0.032,0.316 -0.071,0.473 -0.026,0.104 -0.074,0.197 -0.105,0.298 -0.096,0.318 -0.278,0.61 -0.469,0.896 -0.079,0.119 -0.173,0.243 -0.326,0.309 -0.064,0.027 -0.179,0.074 -0.256,0.079 0.013,0.035 0.069,0.033 0.109,0.059 0.042,0.029 0.057,0.074 0.085,0.11 0.08,0.102 0.177,0.215 0.227,0.332 0.172,0.405 0.21,0.837 0.342,1.255 0.049,0.153 0.062,0.334 0.073,0.491 0.013,0.18 0.051,0.358 0.059,0.537 0.015,0.375 -0.031,0.732 -0.093,1.102 -0.017,0.1 -0.005,0.194 -0.038,0.292 -0.033,0.095 -0.076,0.19 -0.121,0.282 -0.072,0.145 -0.157,0.327 -0.299,0.436 -0.07,0.054 -0.235,0.067 -0.178,0.172 0.017,0.032 0.093,0.057 0.128,0.071 0.099,0.039 0.09,0.034 0.172,0.11 0.066,0.06 0.151,0.104 0.217,0.162 0.079,0.069 0.138,0.16 0.211,0.236 0.069,0.073 0.118,0.155 0.175,0.234 0.101,0.14 0.235,0.257 0.322,0.404 0.11,0.185 0.248,0.367 0.338,0.56 0.087,0.185 0.067,0.393 0.061,0.589 -0.003,0.1 -0.029,0.161 -0.071,0.251 -0.027,0.056 -0.031,0.109 -0.059,0.164 -0.051,0.099 -0.136,0.178 -0.218,0.264 -0.058,0.06 -0.132,0.091 -0.098,0.179 0.028,0.071 0.101,0.153 0.134,0.229 0.069,0.164 0.217,0.287 0.384,0.386 0.182,0.108 0.372,0.3 0.466,0.467 0.008,0.013 0.015,0.026 0.023,0.04 -0.21,0.025 -0.437,0.001 -0.648,0.001 -0.096,0 -0.195,0.008 -0.291,0.002 -0.107,-0.006 -0.178,-0.078 -0.279,-0.1 -0.1,-0.021 -0.2,0.003 -0.3,-0.023 C -13.503,8.404 -13.64,8.363 -13.758,8.318 -13.85,8.283 -13.948,8.277 -14.024,8.209 -14.1,8.141 -14.167,8.074 -14.253,8.014 -14.336,7.956 -14.415,7.912 -14.477,7.832 -14.55,7.737 -14.611,7.636 -14.696,7.549 -14.741,7.503 -14.787,7.453 -14.837,7.412 -14.891,7.366 -14.961,7.358 -15.015,7.322 -15.093,7.269 -15.141,7.177 -15.221,7.119 -15.279,7.076 -15.343,7.034 -15.398,6.987 -15.462,6.932 -15.512,6.866 -15.577,6.813 -15.639,6.764 -15.706,6.724 -15.765,6.669 -15.826,6.611 -15.862,6.58 -15.945,6.557 -16.091,6.518 -16.252,6.537 -16.393,6.492 -16.454,6.473 -16.505,6.429 -16.567,6.41 -16.63,6.392 -16.701,6.39 -16.764,6.373 -16.888,6.339 -16.996,6.28 -17.107,6.216 -17.215,6.154 -17.339,6.119 -17.445,6.055 -17.541,5.997 -17.64,5.892 -17.706,5.803 -17.769,5.719 -17.832,5.631 -17.893,5.546 -17.964,5.445 -17.984,5.326 -18.03,5.213 -18.097,5.052 -18.17,4.899 -18.234,4.738 -18.306,4.56 -18.399,4.393 -18.475,4.217 -18.548,4.049 -18.589,3.865 -18.678,3.703 -18.785,3.508 -18.899,3.318 -19.004,3.121 -19.048,3.037 -19.108,2.965 -19.157,2.883 -19.219,2.782 -19.31,2.712 -19.374,2.614 -19.452,2.495 -19.519,2.407 -19.617,2.301 -19.674,2.238 -19.732,2.175 -19.774,2.1 -19.879,1.912 -19.903,1.689 -19.95,1.482 c -0.048,-0.205 -0.113,-0.41 -0.158,-0.617 -0.019,-0.088 -0.01,-0.186 -0.021,-0.276 -0.019,-0.146 -0.056,-0.288 -0.053,-0.436 0.005,-0.217 -0.048,-0.412 -0.102,-0.619 -0.023,-0.088 -0.062,-0.175 -0.071,-0.266 -0.011,-0.104 0.022,-0.197 0.049,-0.296 0.077,-0.284 0.148,-0.56 0.27,-0.831 0.063,-0.138 0.121,-0.276 0.19,-0.411 0.043,-0.083 0.041,-0.156 0.04,-0.246 -0.003,-0.174 0.045,-0.275 0.143,-0.423 0.069,-0.102 0.125,-0.211 0.197,-0.313 0.108,-0.153 0.225,-0.307 0.32,-0.468 0.108,-0.185 0.219,-0.389 0.296,-0.589 0.027,-0.068 0.058,-0.128 0.096,-0.19 0.037,-0.062 0.078,-0.086 0.126,-0.137 0.114,-0.122 0.238,-0.225 0.36,-0.338 0.178,-0.163 0.309,-0.38 0.509,-0.523 0.112,-0.08 0.237,-0.138 0.347,-0.222 0.068,-0.052 0.135,-0.106 0.211,-0.145 0.124,-0.065 0.232,-0.149 0.369,-0.197 0.355,-0.124 0.634,-0.392 0.96,-0.573 0.15,-0.083 0.334,-0.114 0.467,-0.228 0.049,-0.042 0.1,-0.128 0.152,-0.158 0.034,-0.021 0.095,-0.023 0.135,-0.04 0.08,-0.034 0.157,-0.037 0.23,-0.09 0.099,-0.072 0.191,-0.124 0.304,-0.169 0.078,-0.03 0.164,-0.066 0.247,-0.08 0.063,-0.01 0.094,0.013 0.143,0.024 0.114,0.027 0.226,-0.014 0.336,-0.047 0.09,-0.027 0.187,-0.042 0.272,-0.08 0.103,-0.046 0.174,-0.103 0.291,-0.106 0.132,-0.003 0.253,0.01 0.382,-0.023 0.059,-0.016 0.381,-0.063 0.383,-0.14 -0.09,-0.025 -0.208,-0.006 -0.301,-0.006 -0.128,-10e-4 -0.255,-0.009 -0.379,0.03 -0.165,0.051 -0.314,0.159 -0.482,0.203 -0.119,0.031 -0.259,0.061 -0.382,0.076 -0.155,0.019 -0.32,-0.027 -0.474,0 -0.088,0.015 -0.138,0.066 -0.231,0.068 -0.075,0.002 -0.136,-0.007 -0.209,0.014 -0.17,0.05 -0.341,0.102 -0.51,0.155 -0.075,0.024 -0.147,0.059 -0.221,0.083 -0.082,0.027 -0.169,0.031 -0.253,0.054 -0.159,0.043 -0.334,0.066 -0.484,0.135 -0.156,0.073 -0.315,0.128 -0.471,0.198 -0.069,0.031 -0.139,0.067 -0.212,0.086 -0.047,0.012 -0.095,0.018 -0.139,0.04 -0.075,0.037 -0.121,0.093 -0.205,0.115 -0.113,0.032 -0.175,0.061 -0.266,0.137 -0.07,0.058 -0.133,0.076 -0.217,0.107 -0.133,0.049 -0.225,0.121 -0.339,0.201 -0.105,0.074 -0.217,0.135 -0.32,0.213 -0.236,0.181 -0.547,0.242 -0.805,0.389 -0.091,0.051 -0.153,0.136 -0.205,0.223 -0.064,0.109 -0.142,0.161 -0.235,0.241 -0.037,0.033 -0.044,0.062 -0.073,0.095 -0.024,0.026 -0.062,0.051 -0.083,0.076 -0.034,0.041 -0.051,0.094 -0.086,0.136 -0.049,0.059 -0.097,0.1 -0.137,0.169 -0.05,0.086 -0.111,0.175 -0.179,0.249 -0.138,0.15 -0.253,0.305 -0.363,0.47 -0.058,0.088 -0.128,0.176 -0.169,0.273 -0.032,0.079 -0.061,0.166 -0.111,0.235 -0.051,0.072 -0.089,0.102 -0.119,0.189 -0.036,0.103 -0.102,0.175 -0.136,0.28 -0.028,0.086 -0.053,0.161 -0.068,0.251 -0.028,0.162 -0.072,0.24 -0.155,0.378 -0.103,0.17 -0.22,0.381 -0.239,0.583 -0.008,0.084 -0.051,0.127 -0.071,0.205 -0.018,0.068 0.007,0.148 0.037,0.205 0.027,0.056 0.023,0.083 0.04,0.143 0.02,0.077 0.062,0.103 0.063,0.189 0.001,0.118 -0.031,0.27 -0.003,0.384 0.021,0.087 0.142,0.205 0.214,0.247 0.152,0.091 0.2,0.157 0.198,0.333 -0.001,0.171 0.005,0.343 0.002,0.514 -0.004,0.263 -0.165,0.566 -0.368,0.737 -0.175,0.147 -0.386,0.275 -0.385,0.52 0,0.068 0.004,0.084 0.034,0.142 0.042,0.084 0.033,0.154 0.033,0.248 0,0.207 0.128,0.378 0.248,0.541 0.064,0.088 0.148,0.156 0.199,0.254 0.052,0.1 0.095,0.197 0.152,0.294 0.053,0.091 0.094,0.183 0.153,0.27 0.06,0.089 0.137,0.189 0.183,0.286 0.129,0.27 -0.005,0.592 0.075,0.871 0.035,0.123 0.115,0.232 0.167,0.349 0.051,0.116 0.091,0.226 0.156,0.335 0.141,0.237 0.181,0.558 0.374,0.757 0.095,0.098 0.188,0.172 0.244,0.3 0.045,0.103 0.09,0.191 0.159,0.281 0.078,0.101 0.155,0.2 0.215,0.313 0.09,0.17 0.145,0.321 0.314,0.43 0.063,0.041 0.114,0.063 0.173,0.118 0.057,0.052 0.099,0.125 0.168,0.163 0.062,0.033 0.135,0.027 0.2,0.041 0.071,0.016 0.12,0.047 0.18,0.093 0.105,0.08 0.191,0.175 0.264,0.285 0.071,0.108 0.12,0.237 0.207,0.332 0.148,0.161 0.351,0.299 0.558,0.365 0.271,0.086 0.54,0.17 0.8,0.286 0.088,0.04 0.16,0.104 0.25,0.139 0.123,0.048 0.243,0.019 0.369,0.039 0.148,0.023 0.297,0.042 0.445,0.068 0.234,0.042 0.45,0.151 0.682,0.193 0.208,0.037 0.412,0.062 0.62,0.111 0.19,0.044 0.387,0.008 0.573,0.071 0.086,0.029 0.153,0.078 0.244,0.093 0.088,0.014 0.181,-0.003 0.269,0.009 0.078,0.012 0.136,0.042 0.209,0.065 0.132,0.042 0.25,0.028 0.387,0.031 0.299,0.006 0.571,0.169 0.873,0.175 0.217,0.004 0.438,0.004 0.656,-10e-4 0.277,-0.006 0.482,-0.069 0.716,-0.22 0.203,-0.13 0.428,-0.186 0.647,-0.281 0.158,-0.07 0.29,-0.183 0.451,-0.248 0.147,-0.058 0.314,-0.071 0.47,-0.09 0.246,-0.03 0.466,-0.068 0.702,-0.145 0.154,-0.051 0.271,-0.122 0.417,-0.187 0.088,-0.04 0.179,-0.068 0.265,-0.113 0.058,-0.03 0.125,-0.092 0.193,-0.114 0.149,-0.049 0.302,-0.096 0.453,-0.144 0.207,-0.066 0.41,-0.077 0.607,-0.177 0.133,-0.067 0.276,-0.102 0.408,-0.167 0.154,-0.076 0.299,-0.182 0.446,-0.27 0.14,-0.084 0.287,-0.145 0.424,-0.234 0.174,-0.114 0.346,-0.237 0.496,-0.38 0.195,-0.186 0.37,-0.381 0.587,-0.543 0.312,-0.234 0.644,-0.455 0.915,-0.737 0.046,-0.048 0.105,-0.097 0.138,-0.155 0.029,-0.053 0.031,-0.095 0.04,-0.154 0.021,-0.121 0.078,-0.197 0.129,-0.309 0.05,-0.111 0.119,-0.246 0.157,-0.361 0.036,-0.11 0.026,-0.249 0.044,-0.365 0.014,-0.086 0.013,-0.165 0.033,-0.25 0.028,-0.12 0.045,-0.24 0.044,-0.363 -10e-4,-0.131 0,-0.262 -10e-4,-0.393 -0.002,-0.158 0.029,-0.305 0.033,-0.461 0.002,-0.119 0.066,-0.187 0.099,-0.291 0.028,-0.091 0.005,-0.226 0.005,-0.318 0,-0.265 -0.005,-0.521 0.05,-0.781 0.028,-0.135 0.099,-0.246 0.135,-0.378 0.036,-0.128 0.081,-0.23 0.135,-0.354 0.157,-0.363 0.328,-0.756 0.393,-1.15 0.018,-0.111 -0.005,-0.21 -0.022,-0.318"
             style="fill:#231f20;fill-opacity:1;fill-rule:nonzero;stroke:none"
             id="path50019" />
        </g>
      </g>
    </g>
  </g>
</svg>
