<?xml version="1.0" encoding="UTF-8" standalone="no"?>
<!-- Created with Inkscape (http://www.inkscape.org/) -->

<svg
   width="23.998352"
   height="24"
   viewBox="0 0 6.3495638 6.35"
   version="1.1"
   id="svg4368"
   inkscape:version="1.2.1 (9c6d41e4, 2022-07-14)"
   sodipodi:docname="return-to-the-path-to-carcosa.svg"
   xmlns:inkscape="http://www.inkscape.org/namespaces/inkscape"
   xmlns:sodipodi="http://sodipodi.sourceforge.net/DTD/sodipodi-0.dtd"
   xmlns="http://www.w3.org/2000/svg"
   xmlns:svg="http://www.w3.org/2000/svg">
  <sodipodi:namedview
     id="namedview4370"
     pagecolor="#505050"
     bordercolor="#eeeeee"
     borderopacity="1"
     inkscape:showpageshadow="0"
     inkscape:pageopacity="0"
     inkscape:pagecheckerboard="0"
     inkscape:deskcolor="#505050"
     inkscape:document-units="mm"
     showgrid="false"
     inkscape:zoom="0.2102413"
     inkscape:cx="30.916856"
     inkscape:cy="218.79621"
     inkscape:window-width="1309"
     inkscape:window-height="456"
     inkscape:window-x="0"
     inkscape:window-y="25"
     inkscape:window-maximized="0"
     inkscape:current-layer="layer1" />
  <defs
     id="defs4365">
    <clipPath
       clipPathUnits="userSpaceOnUse"
       id="clipPath4145">
      <path
         d="m 219.983,412.672 h 30.569 v 30.57 h -30.569 z"
         id="path4143" />
    </clipPath>
  </defs>
  <g
     inkscape:label="Layer 1"
     inkscape:groupmode="layer"
     id="layer1"
     transform="translate(-96.544604,-90.251856)">
    <g
       id="g4139"
       transform="matrix(0.20771999,0,0,-0.20771999,50.849509,182.32208)">
      <g
         id="g4141"
         clip-path="url(#clipPath4145)">
        <g
           id="g4147"
           transform="translate(243.4421,429.709)">
          <path
             d="m 0,0 c -0.041,-1.006 -0.656,-4.094 -1.297,-4.51 -1.178,-0.764 -1.798,-2.533 -2.164,-3.8 -0.384,-1.329 -1.174,-2.441 -1.648,-3.735 -0.186,-0.507 -0.39,-1.069 -0.91,-1.359 -0.644,-0.358 -1.534,-0.26 -2.241,-0.216 -0.012,10e-4 -0.024,10e-4 -0.036,0.002 -0.012,-10e-4 -0.024,-10e-4 -0.036,-0.002 -0.707,-0.044 -1.597,-0.142 -2.241,0.216 -0.52,0.29 -0.724,0.852 -0.91,1.359 -0.474,1.294 -1.264,2.406 -1.648,3.735 -0.366,1.267 -0.986,3.036 -2.164,3.8 -0.641,0.416 -1.256,3.504 -1.297,4.51 -0.031,0.768 10e-4,1.541 0.117,2.3 -0.041,1.037 0.04,2.079 0.242,3.096 l 0.155,-0.147 c 0.323,0.532 0.645,1.064 0.968,1.596 l 0.067,0.356 c 0.181,-0.288 0.256,-0.617 0.262,-0.958 0.011,0.015 0.025,0.029 0.037,0.043 0.053,-0.399 0.089,-0.764 0.077,-0.97 -0.012,-0.215 -0.193,-1.96 -0.523,-1.983 2.57,0.18 4.922,-1.094 5.944,-2.755 0.066,0.847 -1.148,1.898 -2.112,2.411 -0.964,0.513 -1.862,0.622 -3.009,0.893 0.21,0.725 0.23,1.903 -0.026,2.898 0.056,0.414 0.447,1.103 0.584,1.448 0.096,-0.136 0.311,-0.371 0.463,-0.554 0.019,0.015 0.037,0.031 0.057,0.046 -0.022,0.281 0.14,0.702 0.186,1.161 0.194,-0.154 0.417,-0.443 0.625,-0.601 0.186,0.114 0.377,0.221 0.571,0.32 0.118,0.424 0.473,0.726 0.621,1.109 0.136,-0.278 0.352,-0.451 0.659,-0.581 0.068,0.021 0.137,0.036 0.205,0.056 0.165,0.24 0.462,0.629 0.462,0.629 0,0 0.299,-0.226 0.489,-0.421 0.109,0.017 0.218,0.033 0.328,0.045 0.302,0.401 0.591,0.646 0.864,1.137 0.425,-0.287 0.733,-0.694 0.869,-1.14 0.136,-0.016 0.271,-0.036 0.405,-0.059 0.092,0.234 0.145,0.552 0.28,0.696 C -6.63,9.947 -6.31,9.443 -6.11,9.167 -6.055,9.151 -6,9.138 -5.946,9.121 c 0.053,0.212 0.137,0.547 0.291,0.482 0.086,0.07 0.168,0.142 0.262,0.196 0.166,-0.367 0.415,-0.71 0.626,-1.053 0.103,0.409 0.207,0.818 0.311,1.227 0.434,-0.676 0.418,-1.147 0.788,-1.716 0.14,0.207 0.246,0.443 0.359,0.668 0.024,0.047 0.048,0.094 0.072,0.141 0.282,-0.543 0.265,-1.153 0.576,-1.645 0.074,0.129 0.307,0.568 0.381,0.697 0.02,-0.313 0.185,-0.65 0.262,-1.004 C -2.381,6.061 -2.392,4.69 -2.157,3.882 -3.304,3.611 -4.203,3.502 -5.166,2.989 -6.13,2.476 -7.327,1.425 -7.261,0.578 c 1.022,1.661 3.374,2.935 5.943,2.755 -0.33,0.023 -0.511,1.768 -0.523,1.983 -0.01,0.19 0.019,0.514 0.066,0.877 0.004,-0.006 0.009,-0.012 0.014,-0.018 0.124,0.094 0.29,0.126 0.435,0.072 0.071,0.142 0.142,0.285 0.213,0.428 0.415,-0.454 0.665,-1.065 0.691,-1.69 0.078,0.236 0.229,0.444 0.426,0.586 C 0.126,4 0.126,2.419 0.008,0.848 0.014,0.565 0.011,0.282 0,0 m -8.174,13.533 c -8.441,0 -15.284,-6.844 -15.284,-15.285 0,-8.442 6.843,-15.285 15.284,-15.285 8.442,0 15.285,6.843 15.285,15.285 0,8.441 -6.843,15.285 -15.285,15.285"
             style="fill:#ffffff;fill-opacity:1;fill-rule:nonzero;stroke:none"
             id="path4149" />
        </g>
        <g
           id="g4151"
           transform="translate(235.3002,427.2486)">
          <path
             d="M 0,0 C -0.037,0.24 -0.081,0.241 -0.121,-0.001 -0.437,-1.891 -1.826,-2.62 -1.826,-2.62 l 0.136,-0.018 c 0.532,0.293 1.263,0.149 1.644,-0.323 0.325,0.401 0.973,0.518 1.48,0.44 0.091,-0.014 0.082,0.044 0.169,0.011 0,0 -1.309,0.61 -1.603,2.51"
             style="fill:#ffffff;fill-opacity:1;fill-rule:nonzero;stroke:none"
             id="path4153" />
        </g>
        <g
           id="g4155"
           transform="translate(233.481,429.4727)">
          <path
             d="m 0,0 c -0.131,0.259 -0.356,0.46 -0.584,0.632 -0.432,0.323 -0.944,0.544 -1.449,0.726 -0.812,0.291 -2.24,0.52 -3.039,0.078 0.32,-1.03 1.535,-1.761 2.509,-2.044 0.732,-0.212 1.397,-0.169 2.139,-0.065 0.228,0.032 0.399,0.074 0.48,0.174 C 0.134,-0.401 0.127,-0.25 0,0"
             style="fill:#ffffff;fill-opacity:1;fill-rule:nonzero;stroke:none"
             id="path4157" />
        </g>
        <g
           id="g4159"
           transform="translate(238.9285,430.8302)">
          <path
             d="m 0,0 c -0.505,-0.181 -1.017,-0.402 -1.448,-0.726 -0.228,-0.171 -0.454,-0.373 -0.585,-0.632 -0.126,-0.249 -0.134,-0.401 -0.056,-0.498 0.081,-0.1 0.253,-0.143 0.481,-0.175 0.742,-0.104 1.406,-0.146 2.139,0.066 0.973,0.283 2.188,1.013 2.508,2.043 C 2.24,0.521 0.812,0.292 0,0"
             style="fill:#ffffff;fill-opacity:1;fill-rule:nonzero;stroke:none"
             id="path4161" />
        </g>
        <g
           id="g4163"
           transform="translate(243.4421,429.709)">
          <path
             d="m 0,0 c -0.041,-1.006 -0.656,-4.094 -1.297,-4.51 -1.178,-0.764 -1.798,-2.533 -2.164,-3.8 -0.384,-1.329 -1.174,-2.441 -1.648,-3.735 -0.186,-0.507 -0.39,-1.069 -0.91,-1.359 -0.644,-0.358 -1.534,-0.26 -2.241,-0.216 -0.012,10e-4 -0.024,10e-4 -0.036,0.002 -0.012,-10e-4 -0.024,-10e-4 -0.036,-0.002 -0.707,-0.044 -1.597,-0.142 -2.241,0.216 -0.52,0.29 -0.724,0.852 -0.91,1.359 -0.474,1.294 -1.264,2.406 -1.648,3.735 -0.366,1.267 -0.986,3.036 -2.164,3.8 -0.641,0.416 -1.256,3.504 -1.297,4.51 -0.031,0.768 10e-4,1.541 0.117,2.3 -0.041,1.037 0.04,2.079 0.242,3.096 l 0.155,-0.147 c 0.323,0.532 0.645,1.064 0.968,1.596 l 0.067,0.356 c 0.181,-0.288 0.256,-0.617 0.262,-0.958 0.011,0.015 0.025,0.029 0.037,0.043 0.053,-0.399 0.089,-0.764 0.077,-0.97 -0.012,-0.215 -0.193,-1.96 -0.523,-1.983 2.57,0.18 4.922,-1.094 5.944,-2.755 0.066,0.847 -1.148,1.898 -2.112,2.411 -0.964,0.513 -1.862,0.622 -3.009,0.893 0.21,0.725 0.23,1.903 -0.026,2.898 0.056,0.414 0.447,1.103 0.584,1.448 0.096,-0.136 0.311,-0.371 0.463,-0.554 0.019,0.015 0.037,0.031 0.057,0.046 -0.022,0.281 0.14,0.702 0.186,1.161 0.194,-0.154 0.417,-0.443 0.625,-0.601 0.186,0.114 0.377,0.221 0.571,0.32 0.118,0.424 0.473,0.726 0.621,1.109 0.136,-0.278 0.352,-0.451 0.659,-0.581 0.068,0.021 0.137,0.036 0.205,0.056 0.165,0.24 0.462,0.629 0.462,0.629 0,0 0.299,-0.226 0.489,-0.421 0.109,0.017 0.218,0.033 0.328,0.045 0.302,0.401 0.591,0.646 0.864,1.137 0.425,-0.287 0.733,-0.694 0.869,-1.14 0.136,-0.016 0.271,-0.036 0.405,-0.059 0.092,0.234 0.145,0.552 0.28,0.696 C -6.63,9.947 -6.31,9.443 -6.11,9.167 -6.055,9.151 -6,9.138 -5.946,9.121 c 0.053,0.212 0.137,0.547 0.291,0.482 0.086,0.07 0.168,0.142 0.262,0.196 0.166,-0.367 0.415,-0.71 0.626,-1.053 0.103,0.409 0.207,0.818 0.311,1.227 0.434,-0.676 0.418,-1.147 0.788,-1.716 0.14,0.207 0.246,0.443 0.359,0.668 0.024,0.047 0.048,0.094 0.072,0.141 0.282,-0.543 0.265,-1.153 0.576,-1.645 0.074,0.129 0.307,0.568 0.381,0.697 0.02,-0.313 0.185,-0.65 0.262,-1.004 C -2.381,6.061 -2.392,4.69 -2.157,3.882 -3.304,3.611 -4.203,3.502 -5.166,2.989 -6.13,2.476 -7.327,1.425 -7.261,0.578 c 1.022,1.661 3.374,2.935 5.943,2.755 -0.33,0.023 -0.511,1.768 -0.523,1.983 -0.01,0.19 0.019,0.514 0.066,0.877 0.004,-0.006 0.009,-0.012 0.014,-0.018 0.124,0.094 0.29,0.126 0.435,0.072 0.071,0.142 0.142,0.285 0.213,0.428 0.415,-0.454 0.665,-1.065 0.691,-1.69 0.078,0.236 0.229,0.444 0.426,0.586 C 0.126,4 0.126,2.419 0.008,0.848 0.014,0.565 0.011,0.282 0,0"
             style="fill:#100f0d;fill-opacity:1;fill-rule:nonzero;stroke:none"
             id="path4165" />
        </g>
        <g
           id="g4167"
           transform="translate(235.3002,427.2486)">
          <path
             d="M 0,0 C -0.037,0.24 -0.081,0.241 -0.121,-0.001 -0.437,-1.891 -1.826,-2.62 -1.826,-2.62 l 0.136,-0.018 c 0.532,0.293 1.263,0.149 1.644,-0.323 0.325,0.401 0.973,0.518 1.48,0.44 0.091,-0.014 0.082,0.044 0.169,0.011 0,0 -1.309,0.61 -1.603,2.51"
             style="fill:#ffffff;fill-opacity:1;fill-rule:nonzero;stroke:none"
             id="path4169" />
        </g>
        <g
           id="g4171"
           transform="translate(233.481,429.4727)">
          <path
             d="m 0,0 c -0.131,0.259 -0.356,0.46 -0.584,0.632 -0.432,0.323 -0.944,0.544 -1.449,0.726 -0.812,0.291 -2.24,0.52 -3.039,0.078 0.32,-1.03 1.535,-1.761 2.509,-2.044 0.732,-0.212 1.397,-0.169 2.139,-0.065 0.228,0.032 0.399,0.074 0.48,0.174 C 0.134,-0.401 0.127,-0.25 0,0"
             style="fill:#ffffff;fill-opacity:1;fill-rule:nonzero;stroke:none"
             id="path4173" />
        </g>
        <g
           id="g4175"
           transform="translate(238.9285,430.8302)">
          <path
             d="m 0,0 c -0.505,-0.181 -1.017,-0.402 -1.448,-0.726 -0.228,-0.171 -0.454,-0.373 -0.585,-0.632 -0.126,-0.249 -0.134,-0.401 -0.056,-0.498 0.081,-0.1 0.253,-0.143 0.481,-0.175 0.742,-0.104 1.406,-0.146 2.139,0.066 0.973,0.283 2.188,1.013 2.508,2.043 C 2.24,0.521 0.812,0.292 0,0"
             style="fill:#ffffff;fill-opacity:1;fill-rule:nonzero;stroke:none"
             id="path4177" />
        </g>
      </g>
    </g>
  </g>
</svg>
