<?xml version="1.0" encoding="UTF-8" standalone="no"?>
<!-- Created with Inkscape (http://www.inkscape.org/) -->

<svg
   version="1.1"
   id="svg288"
   width="23.972971"
   height="24"
   viewBox="0 0 23.972971 24"
   sodipodi:docname="stella-clark.jpeg"
   inkscape:version="1.2.1 (9c6d41e4, 2022-07-14)"
   xmlns:inkscape="http://www.inkscape.org/namespaces/inkscape"
   xmlns:sodipodi="http://sodipodi.sourceforge.net/DTD/sodipodi-0.dtd"
   xmlns="http://www.w3.org/2000/svg"
   xmlns:svg="http://www.w3.org/2000/svg">
  <defs
     id="defs292" />
  <sodipodi:namedview
     id="namedview290"
     pagecolor="#505050"
     bordercolor="#eeeeee"
     borderopacity="1"
     inkscape:showpageshadow="0"
     inkscape:pageopacity="0"
     inkscape:pagecheckerboard="0"
     inkscape:deskcolor="#505050"
     showgrid="false"
     inkscape:zoom="2.7465278"
     inkscape:cx="121.97219"
     inkscape:cy="126.15929"
     inkscape:window-width="1390"
     inkscape:window-height="941"
     inkscape:window-x="0"
     inkscape:window-y="25"
     inkscape:window-maximized="0"
     inkscape:current-layer="g294" />
  <g
     inkscape:groupmode="layer"
     inkscape:label="Image"
     id="g294"
     transform="translate(-24.827331,-18.241498)">
    <path
       style="fill:#000000;stroke-width:0.12815"
       d="m 43.842233,42.038514 c -0.71169,-0.314099 -3.654456,-1.260176 -5.126018,-1.647978 -1.500383,-0.395395 -3.731676,-1.181249 -4.997868,-1.760232 -1.452538,-0.664189 -3.77255,-1.333811 -5.900185,-1.702963 -2.384474,-0.413712 -3.380529,-1.047353 -2.853235,-1.815087 0.317658,-0.462507 0.810906,-1.501098 1.964078,-4.135597 0.507272,-1.158897 1.050634,-2.312251 1.207471,-2.56301 0.156838,-0.250758 0.440152,-0.864097 0.629588,-1.362975 0.403046,-1.06142 1.231883,-1.875835 2.641824,-2.595857 0.4602,-0.235012 1.125066,-0.649344 1.47748,-0.920736 0.352414,-0.271392 1.130928,-0.874098 1.730032,-1.339345 0.599103,-0.465248 1.420867,-1.057342 1.826144,-1.315764 0.405276,-0.258422 0.736865,-0.51587 0.736865,-0.572105 0,-0.05623 0.06461,-0.102245 0.14357,-0.102245 0.07896,0 0.736635,-0.432206 1.461496,-0.960457 1.668788,-1.216149 1.626,-1.202378 1.905588,-0.613277 1.368344,2.88315 3.648928,5.625894 6.902785,8.301633 1.351547,1.111415 1.336972,1.083321 1.05785,2.039144 -0.104722,0.358608 -0.544114,2.093709 -0.976424,3.855777 -0.432312,1.762069 -0.892183,3.549768 -1.021935,3.972664 -0.129754,0.422897 -0.385898,1.27897 -0.569212,1.902387 -0.459897,1.564022 -1.35437,3.545296 -1.597728,3.538992 -0.1065,-0.0028 -0.395476,-0.0941 -0.642166,-0.202969 z m -0.447944,-3.081639 c -0.25859,-0.622362 -0.672306,-1.650576 -0.91937,-2.284921 -0.247064,-0.634345 -0.707423,-1.627433 -1.023021,-2.206865 -1.074649,-1.97303 -1.040759,-2.014484 3.494914,-4.27508 0.995173,-0.495998 1.970782,-1.070256 2.16802,-1.276129 l 0.358616,-0.374314 -0.315533,-0.290922 c -0.173542,-0.160006 -0.514807,-0.45609 -0.758366,-0.657961 -2.16919,-1.797921 -5.879257,-5.766989 -6.514773,-6.969575 -0.220162,-0.416612 -0.296978,-0.385162 -1.594221,0.652702 -2.106455,1.685277 -2.819562,2.163389 -5.951765,3.990437 -0.58255,0.339807 -1.039423,0.63759 -1.015274,0.661738 0.210539,0.210539 4.223167,0.960909 5.983043,1.118842 2.947447,0.264506 7.817179,1.325268 7.817179,1.702798 0,0.244447 -0.450867,0.20121 -5.766772,-0.553015 -1.30393,-0.185004 -2.762967,-0.382871 -3.242302,-0.439705 -0.479337,-0.05683 -1.317942,-0.194388 -1.863568,-0.305674 -0.912045,-0.186023 -3.90026,-0.595841 -3.941575,-0.540567 -0.0098,0.01312 0.04128,0.661828 0.113526,1.441573 0.183197,1.977221 0.236914,1.869467 -2.081046,4.174479 -1.789532,1.779536 -2.71142,2.801658 -2.526913,2.801658 0.507763,0 3.49587,-1.642877 4.814038,-2.646782 0.574392,-0.437453 1.10008,-0.541864 1.521115,-0.30212 0.45576,0.259516 2.595041,0.767817 3.759622,0.893299 3.6002,0.38792 3.776955,0.46429 4.497597,1.943254 0.190116,0.390172 0.564956,1.00591 0.832978,1.368305 0.268021,0.362393 0.771269,1.107489 1.118328,1.655767 1.387872,2.192535 1.753237,2.446142 1.035523,0.718778 z"
       id="path298" />
  </g>
</svg>
