<?xml version="1.0" encoding="UTF-8" standalone="no"?>
<!-- Created with Inkscape (http://www.inkscape.org/) -->

<svg
   width="45.479324"
   height="24"
   viewBox="0 0 12.033071 6.35"
   version="1.1"
   id="svg104602"
   inkscape:version="1.2.1 (9c6d41e4, 2022-07-14)"
   sodipodi:docname="the-circle-undone.svg"
   xmlns:inkscape="http://www.inkscape.org/namespaces/inkscape"
   xmlns:sodipodi="http://sodipodi.sourceforge.net/DTD/sodipodi-0.dtd"
   xmlns="http://www.w3.org/2000/svg"
   xmlns:svg="http://www.w3.org/2000/svg">
  <sodipodi:namedview
     id="namedview104604"
     pagecolor="#505050"
     bordercolor="#eeeeee"
     borderopacity="1"
     inkscape:showpageshadow="0"
     inkscape:pageopacity="0"
     inkscape:pagecheckerboard="0"
     inkscape:deskcolor="#505050"
     inkscape:document-units="mm"
     showgrid="false"
     inkscape:zoom="0.2102413"
     inkscape:cx="211.66155"
     inkscape:cy="137.93674"
     inkscape:window-width="1309"
     inkscape:window-height="456"
     inkscape:window-x="0"
     inkscape:window-y="25"
     inkscape:window-maximized="0"
     inkscape:current-layer="layer1" />
  <defs
     id="defs104599">
    <clipPath
       clipPathUnits="userSpaceOnUse"
       id="clipPath52689">
      <path
         d="m 120.348,224.376 h 56.304 v 56.304 h -56.304 z"
         id="path52687" />
    </clipPath>
  </defs>
  <g
     inkscape:label="Layer 1"
     inkscape:groupmode="layer"
     id="layer1"
     transform="translate(-49.217359,-112.46156)">
    <g
       id="g52683"
       transform="matrix(0.24473992,0,0,-0.24473992,18.89005,177.44027)">
      <g
         id="g52685"
         clip-path="url(#clipPath52689)">
        <g
           id="g52691"
           transform="translate(168.654,243.933)">
          <path
             d="m 0,0 c -2.974,-1.932 -7.651,0.907 -10.174,2.471 -1.583,0.982 -2.927,2.223 -4.162,3.579 0.81,0.462 1.622,0.921 2.443,1.36 2.036,1.09 4.734,1.717 7.043,1.626 0.852,-0.034 2.146,0.05 2.903,-0.362 0.022,-0.013 0.042,-0.03 0.064,-0.043 C -1.574,8.546 -1.275,8.424 -1,8.265 -0.368,7.9 0.12,7.373 0.492,6.75 0.689,6.42 0.819,6.066 0.94,5.708 0.968,5.694 0.994,5.676 1.022,5.663 1.766,3.638 1.765,1.146 0,0 M 4.407,1.804 C 4.156,5.218 2.246,8.816 -0.343,11 c -0.198,0.167 -0.423,0.301 -0.643,0.372 -0.197,0.148 -0.399,0.286 -0.619,0.387 -0.37,0.17 -0.788,0.297 -1.203,0.409 -1.226,0.493 -2.623,0.549 -3.93,0.602 -3.389,0.137 -6.416,-1.219 -9.316,-2.773 0.219,-1.092 -0.016,-2.149 -1.601,-3.206 -0.925,-0.462 -0.617,-1.472 -0.051,-2.624 0.501,0.267 0.999,0.54 1.496,0.819 1.587,-1.845 3.298,-3.616 5.244,-5.016 2.787,-2.005 6.567,-4.102 10.087,-4.334 3.689,-0.244 5.535,2.777 5.286,6.168"
             style="fill:#000000;fill-opacity:1;fill-rule:nonzero;stroke:none"
             id="path52693" />
        </g>
        <g
           id="g52695"
           transform="translate(135.492,251.41)">
          <path
             d="m 0,0 c -1.976,-0.345 -3.936,-0.401 -5.658,0.815 -1.701,1.203 -2.836,3.115 -2.485,5.192 0.391,2.32 1.207,3.531 3.523,4.16 2.269,0.616 4.115,0.64 6.388,-0.08 C 5.042,9.051 7.255,7.153 9.651,4.947 6.726,2.737 3.718,0.649 0,0 m 11.214,3.574 c 1.415,1.275 1.494,2.355 1.119,3.404 C 12.006,6.736 11.682,6.492 11.36,6.247 8.59,8.875 5.847,11.536 2.186,12.849 c -3.624,1.299 -7.317,1.912 -10.928,0.16 -2.622,-1.272 -3.406,-5.526 -2.428,-8.059 1.248,-3.228 3.973,-6.441 7.201,-7.811 3.265,-1.386 7.119,-0.842 10.291,0.627 1.875,0.869 3.579,1.992 5.223,3.204 -0.727,1.057 -1.178,2.012 -0.331,2.604"
             style="fill:#000000;fill-opacity:1;fill-rule:nonzero;stroke:none"
             id="path52697" />
        </g>
        <g
           id="g52699"
           transform="translate(147.785,248.109)">
          <path
             d="m 0,0 c 0.214,-0.07 0.296,-0.242 0.45,-0.406 0.582,-0.617 1.235,-0.153 1.699,0.383 -0.163,0.204 -0.325,0.409 -0.485,0.616 0,0 0,-0.001 0,-0.001 C 1.653,0.617 1.633,0.64 1.602,0.662 1.6,0.669 1.596,0.677 1.592,0.686 1.55,0.739 1.509,0.792 1.468,0.845 1.42,0.897 1.371,0.945 1.344,0.972 1.134,1.186 0.924,1.284 0.637,1.302 0.346,1.32 0.057,1.241 -0.197,1.099 -0.35,1.014 -0.507,0.916 -0.646,0.803 -0.629,0.723 -0.606,0.645 -0.586,0.566 -0.377,0.393 -0.188,0.192 0,0"
             style="fill:#000000;fill-opacity:1;fill-rule:nonzero;stroke:none"
             id="path52701" />
        </g>
        <g
           id="g52703"
           transform="translate(148.974,254.491)">
          <path
             d="m 0,0 c -0.219,0.051 -0.316,0.215 -0.484,0.365 -0.634,0.564 -1.243,0.044 -1.659,-0.53 0.181,-0.189 0.359,-0.38 0.537,-0.571 0,0 0.001,0 0.001,0.001 0.013,-0.024 0.034,-0.046 0.067,-0.065 0.003,-0.007 0.008,-0.015 0.012,-0.023 0.046,-0.049 0.092,-0.099 0.138,-0.147 0.052,-0.048 0.106,-0.091 0.134,-0.116 0.228,-0.195 0.447,-0.274 0.733,-0.266 0.291,0.007 0.573,0.111 0.814,0.274 0.145,0.098 0.292,0.21 0.421,0.335 C 0.69,-0.665 0.66,-0.589 0.633,-0.513 0.41,-0.359 0.204,-0.176 0,0"
             style="fill:#000000;fill-opacity:1;fill-rule:nonzero;stroke:none"
             id="path52705" />
        </g>
        <g
           id="g52707"
           transform="translate(151.812,252.284)">
          <path
             d="M 0,0 C -0.005,0.106 0.057,0.17 0.103,0.264 0.277,0.621 -0.034,0.83 -0.345,0.945 -0.407,0.839 -0.471,0.735 -0.535,0.63 h 0.001 C -0.544,0.621 -0.55,0.609 -0.555,0.592 -0.558,0.59 -0.561,0.586 -0.563,0.583 -0.579,0.556 -0.596,0.529 -0.612,0.503 -0.627,0.473 -0.64,0.444 -0.648,0.427 -0.707,0.3 -0.714,0.192 -0.675,0.064 c 0.04,-0.13 0.123,-0.244 0.227,-0.332 0.062,-0.053 0.131,-0.105 0.204,-0.147 0.032,0.02 0.062,0.043 0.093,0.065 C -0.11,-0.23 -0.053,-0.114 0,0"
             style="fill:#000000;fill-opacity:1;fill-rule:nonzero;stroke:none"
             id="path52709" />
        </g>
        <g
           id="g52711"
           transform="translate(147.275,249.829)">
          <path
             d="M 0,0 C -0.005,0.105 0.057,0.17 0.103,0.264 0.277,0.621 -0.034,0.83 -0.345,0.944 -0.407,0.839 -0.471,0.734 -0.535,0.63 h 0.001 C -0.543,0.621 -0.55,0.609 -0.554,0.592 -0.557,0.59 -0.56,0.586 -0.563,0.583 -0.58,0.556 -0.596,0.529 -0.612,0.502 -0.627,0.473 -0.64,0.443 -0.647,0.427 -0.707,0.3 -0.714,0.192 -0.675,0.063 c 0.04,-0.13 0.123,-0.243 0.227,-0.331 0.062,-0.053 0.131,-0.105 0.204,-0.147 0.032,0.02 0.062,0.043 0.093,0.065 C -0.11,-0.23 -0.053,-0.114 0,0"
             style="fill:#000000;fill-opacity:1;fill-rule:nonzero;stroke:none"
             id="path52713" />
        </g>
        <g
           id="g52715"
           transform="translate(144.782,246.941)">
          <path
             d="M 0,0 C 0.1,-0.032 0.14,-0.112 0.213,-0.188 0.488,-0.473 0.791,-0.253 1.006,-0.001 0.928,0.094 0.852,0.189 0.776,0.285 H 0.775 C 0.77,0.296 0.761,0.307 0.746,0.317 0.746,0.321 0.743,0.325 0.741,0.328 0.722,0.353 0.702,0.378 0.683,0.402 0.66,0.426 0.637,0.448 0.624,0.461 0.525,0.56 0.426,0.605 0.292,0.612 0.156,0.619 0.021,0.58 -0.097,0.513 -0.169,0.473 -0.241,0.426 -0.306,0.372 -0.298,0.335 -0.287,0.299 -0.277,0.262 -0.178,0.182 -0.089,0.089 0,0"
             style="fill:#000000;fill-opacity:1;fill-rule:nonzero;stroke:none"
             id="path52717" />
        </g>
        <g
           id="g52719"
           transform="translate(149.235,257.211)">
          <path
             d="m 0,0 c -0.217,-0.059 -0.381,0.039 -0.599,0.091 -0.826,0.194 -1.115,-0.553 -1.207,-1.256 0.248,-0.08 0.496,-0.163 0.744,-0.246 v 0 c 0.023,-0.015 0.052,-0.023 0.09,-0.024 0.005,-0.005 0.013,-0.01 0.021,-0.014 0.064,-0.022 0.128,-0.044 0.192,-0.065 0.068,-0.017 0.135,-0.03 0.173,-0.038 0.333,-0.071 0.584,-0.017 0.875,0.18 0.193,0.13 0.347,0.312 0.456,0.517 0.085,0.159 0.168,0.334 0.227,0.513 C 0.917,-0.265 0.893,-0.231 0.838,-0.154 0.556,-0.127 0.275,-0.06 0,0"
             style="fill:#000000;fill-opacity:1;fill-rule:nonzero;stroke:none"
             id="path52721" />
        </g>
        <g
           id="g52723"
           transform="translate(150.594,258.233)">
          <path
             d="M 0,0 C -0.094,0.198 -0.509,0.185 -0.87,0.258 -2.234,0.535 -0.76,1.555 0.821,2.407 1.284,2.349 1.752,2.293 2.222,2.24 L 2.22,2.238 C 2.28,2.241 2.333,2.233 2.376,2.212 2.394,2.215 2.414,2.215 2.435,2.215 2.555,2.201 2.677,2.188 2.797,2.173 2.912,2.151 3.017,2.125 3.077,2.111 3.57,2.001 3.73,1.81 3.629,1.467 3.53,1.13 3.181,0.769 2.675,0.375 2.417,0.174 2.131,-0.034 1.821,-0.235 1.621,-0.264 1.427,-0.287 1.23,-0.312 0.868,-0.183 0.423,-0.094 0,0"
             style="fill:#000000;fill-opacity:1;fill-rule:nonzero;stroke:none"
             id="path52725" />
        </g>
        <g
           id="g52727"
           transform="translate(149.568,250.396)">
          <path
             d="M 0,0 C 0.035,0.066 0.246,-0.001 0.44,0.048 1.231,0.249 1.776,3.279 -0.613,0.903 -0.854,0.905 -1.096,0.909 -1.341,0.914 -1.34,0.913 -1.34,0.913 -1.339,0.913 -1.371,0.917 -1.399,0.917 -1.42,0.912 -1.429,0.913 -1.44,0.915 -1.451,0.916 -1.514,0.917 -1.577,0.918 -1.639,0.919 -1.698,0.917 -1.751,0.913 -1.782,0.911 -2.034,0.897 -2.104,0.837 -2.025,0.708 -1.948,0.583 -1.736,0.436 -1.44,0.269 c 0.157,-0.088 0.331,-0.18 0.518,-0.271 0.1,-0.016 0.195,-0.031 0.295,-0.047 C -0.445,-0.022 -0.217,-0.012 0,0"
             style="fill:#000000;fill-opacity:1;fill-rule:nonzero;stroke:none"
             id="path52729" />
        </g>
        <g
           id="g52731"
           transform="translate(155.151,261.346)">
          <path
             d="m 0,0 c -0.054,-0.001 -0.084,0.154 -0.181,0.259 -0.398,0.426 -2.483,-0.275 -0.173,-0.953 0.081,-0.152 0.162,-0.305 0.243,-0.46 0,10e-4 0,10e-4 0,10e-4 0.008,-0.021 0.018,-0.038 0.028,-0.05 0.002,-0.006 0.006,-0.013 0.009,-0.02 0.02,-0.04 0.041,-0.08 0.062,-0.12 0.021,-0.036 0.043,-0.068 0.054,-0.087 0.096,-0.152 0.158,-0.175 0.211,-0.082 0.052,0.091 0.071,0.274 0.073,0.518 0.001,0.12 0,0.251 -0.007,0.388 -0.023,0.07 -0.06,0.176 -0.084,0.245 C 0.158,-0.258 0.078,-0.126 0,0"
             style="fill:#000000;fill-opacity:1;fill-rule:nonzero;stroke:none"
             id="path52733" />
        </g>
        <g
           id="g52735"
           transform="translate(146.337,248.489)">
          <path
             d="m 0,0 c -0.054,-0.001 -0.084,0.155 -0.181,0.259 -0.398,0.426 -2.483,-0.275 -0.173,-0.953 0.081,-0.152 0.162,-0.305 0.243,-0.459 v 0 c 0.008,-0.021 0.018,-0.038 0.028,-0.05 0.002,-0.006 0.006,-0.013 0.009,-0.02 0.02,-0.04 0.042,-0.08 0.062,-0.12 0.022,-0.035 0.043,-0.067 0.054,-0.086 0.096,-0.153 0.158,-0.176 0.211,-0.083 0.052,0.091 0.071,0.274 0.073,0.518 0.001,0.12 0,0.251 -0.006,0.388 C 0.296,-0.536 0.259,-0.43 0.235,-0.361 0.159,-0.258 0.078,-0.125 0,0"
             style="fill:#000000;fill-opacity:1;fill-rule:nonzero;stroke:none"
             id="path52737" />
        </g>
      </g>
    </g>
  </g>
</svg>
