<?xml version="1.0" encoding="UTF-8" standalone="no"?>
<!-- Created with Inkscape (http://www.inkscape.org/) -->

<svg
   width="27.564081"
   height="24"
   viewBox="0 0 7.2929963 6.35"
   version="1.1"
   id="svg45520"
   inkscape:version="1.2.1 (9c6d41e4, 2022-07-14)"
   sodipodi:docname="the-forgotte-age.svg"
   xmlns:inkscape="http://www.inkscape.org/namespaces/inkscape"
   xmlns:sodipodi="http://sodipodi.sourceforge.net/DTD/sodipodi-0.dtd"
   xmlns="http://www.w3.org/2000/svg"
   xmlns:svg="http://www.w3.org/2000/svg">
  <sodipodi:namedview
     id="namedview45522"
     pagecolor="#505050"
     bordercolor="#eeeeee"
     borderopacity="1"
     inkscape:showpageshadow="0"
     inkscape:pageopacity="0"
     inkscape:pagecheckerboard="0"
     inkscape:deskcolor="#505050"
     inkscape:document-units="mm"
     showgrid="false"
     inkscape:zoom="0.2102413"
     inkscape:cx="111.77632"
     inkscape:cy="4.7564393"
     inkscape:window-width="1309"
     inkscape:window-height="456"
     inkscape:window-x="0"
     inkscape:window-y="25"
     inkscape:window-maximized="0"
     inkscape:current-layer="layer1" />
  <defs
     id="defs45517">
    <clipPath
       clipPathUnits="userSpaceOnUse"
       id="clipPath6565">
      <path
         d="m 120.348,406.656 h 56.304 v 56.304 h -56.304 z"
         id="path6563" />
    </clipPath>
  </defs>
  <g
     inkscape:label="Layer 1"
     inkscape:groupmode="layer"
     id="layer1"
     transform="translate(-75.816929,-147.39068)">
    <g
       id="g6559"
       transform="matrix(0.15132614,0,0,-0.15132614,56.998902,216.24625)">
      <g
         id="g6561"
         clip-path="url(#clipPath6565)">
        <g
           id="g6567"
           transform="translate(147.939,447.576)">
          <path
             d="M 0,0 C 0,-0.197 -0.037,-0.415 0.015,-0.608 0.077,-0.836 0.268,-1.046 0.341,-1.281 0.393,-1.446 0.434,-1.532 0.57,-1.657 0.683,-1.763 0.839,-1.843 0.943,-1.955 1.037,-2.054 1.086,-2.164 1.196,-2.255 1.322,-2.359 1.573,-2.558 1.759,-2.568 1.744,-2.676 1.602,-2.722 1.48,-2.736 1.466,-2.781 1.453,-2.827 1.44,-2.873 1.383,-2.884 1.327,-2.895 1.271,-2.906 1.258,-3.037 1.126,-3.137 1.068,-3.248 0.991,-3.397 0.906,-3.58 0.857,-3.735 0.797,-3.929 0.835,-4.146 0.832,-4.346 c -0.004,-0.21 0.04,-0.387 0.083,-0.592 0.045,-0.217 0,-0.43 0.044,-0.649 0.115,-0.572 0.415,-1.055 0.811,-1.528 0.128,-0.152 0.27,-0.296 0.398,-0.447 0.11,-0.129 0.145,-0.287 0.253,-0.409 0.092,-0.104 0.216,-0.21 0.313,-0.334 0.127,-0.162 0.317,-0.397 0.503,-0.519 0.106,-0.07 0.276,-0.079 0.318,-0.179 C 3.608,-9.131 3.379,-9.307 3.31,-9.409 3.151,-9.648 3.043,-9.936 2.945,-10.197 c -0.11,-0.292 -0.257,-0.569 -0.339,-0.867 -0.355,-1.296 0.103,-2.629 0.443,-3.89 0.215,-0.794 0.601,-1.516 0.918,-2.283 0.132,-0.32 0.289,-0.622 0.44,-0.936 0.115,-0.24 0.294,-0.442 0.42,-0.675 0.144,-0.268 0.07,-0.508 -0.211,-0.718 -0.354,-0.262 -0.679,-0.59 -0.993,-0.894 -0.336,-0.326 -0.738,-0.622 -1.092,-0.952 -0.215,-0.201 -0.34,-0.425 -0.542,-0.631 -0.371,-0.375 -0.58,-0.818 -0.845,-1.238 -0.364,-0.576 -0.31,-1.15 -0.31,-1.776 0,-0.624 -0.057,-1.242 0.133,-1.851 0.058,-0.185 0.134,-0.36 0.18,-0.541 0.002,-0.008 0.083,-0.202 0.083,-0.189 0,-0.188 -0.016,-0.059 -0.162,-0.166 -0.318,-0.232 -0.641,-0.52 -0.857,-0.825 -0.353,-0.499 -0.437,-1.09 -0.654,-1.623 -0.123,-0.302 0.034,-0.649 -0.099,-0.943 -0.047,-0.103 -0.13,-0.163 -0.165,-0.277 -0.064,-0.212 -0.03,-0.42 -0.132,-0.629 0.011,0.227 -0.059,0.365 -0.105,0.574 -0.066,0.303 0.027,0.615 -0.122,0.916 -0.042,0.086 -0.121,0.163 -0.156,0.266 -0.073,0.211 -0.153,0.41 -0.267,0.61 -0.136,0.239 -0.284,0.557 -0.491,0.743 -0.048,0.043 -0.129,0.069 -0.18,0.115 -0.114,0.102 -0.148,0.244 -0.24,0.354 -0.052,0.061 -0.133,0.098 -0.183,0.158 -0.064,0.076 -0.037,0.166 -0.122,0.243 -0.143,0.13 -0.216,0.049 -0.193,0.229 0.001,0.008 0.1,0.165 0.106,0.172 0.164,0.177 0.241,0.209 0.29,0.446 0.038,0.183 0.106,0.298 0.104,0.506 -0.003,0.369 0.015,0.74 0.004,1.109 -0.013,0.449 -0.131,0.887 -0.241,1.327 -0.082,0.328 -0.067,0.661 -0.149,0.99 -0.053,0.216 -0.155,0.41 -0.219,0.623 -0.201,0.666 -0.582,1.276 -0.982,1.875 -0.165,0.248 -0.363,0.509 -0.683,0.646 -0.132,0.056 -0.373,0.155 -0.534,0.166 0.027,0.074 0.144,0.068 0.227,0.124 0.088,0.059 0.12,0.153 0.179,0.229 0.167,0.213 0.369,0.451 0.474,0.695 0.361,0.847 0.439,1.751 0.717,2.627 0.101,0.32 0.129,0.697 0.152,1.026 0.026,0.376 0.106,0.748 0.122,1.124 0.033,0.784 -0.064,1.53 -0.193,2.305 -0.035,0.21 -0.01,0.406 -0.081,0.612 -0.068,0.199 -0.157,0.397 -0.252,0.588 -0.152,0.305 -0.328,0.685 -0.626,0.914 -0.145,0.111 -0.491,0.14 -0.373,0.36 0.036,0.067 0.195,0.119 0.269,0.148 0.207,0.081 0.188,0.07 0.36,0.23 0.137,0.126 0.315,0.218 0.454,0.34 0.165,0.143 0.289,0.333 0.44,0.492 0.145,0.153 0.247,0.325 0.367,0.49 0.212,0.293 0.492,0.538 0.675,0.846 0.23,0.388 0.517,0.768 0.706,1.17 0.182,0.388 0.139,0.824 0.127,1.233 -0.006,0.21 -0.06,0.337 -0.149,0.525 -0.056,0.118 -0.064,0.23 -0.122,0.343 -0.106,0.208 -0.285,0.374 -0.457,0.553 -0.121,0.127 -0.276,0.191 -0.205,0.374 0.058,0.149 0.212,0.32 0.28,0.481 0.146,0.342 0.454,0.599 0.804,0.806 0.381,0.226 0.778,0.628 0.976,0.977 0.15,0.263 0.301,0.532 0.339,0.827 C 0.123,0.339 0.224,0.261 0,0"
             style="fill:#231f20;fill-opacity:1;fill-rule:nonzero;stroke:none"
             id="path6569" />
        </g>
        <g
           id="g6571"
           transform="translate(155.703,414.424)">
          <path
             d="m 0,0 c 0.138,0.021 0.135,0.074 0.211,0.143 0.09,0.083 0.173,0.101 0.297,0.14 0.446,0.145 0.848,0.446 1.274,0.645 0.418,0.195 0.855,0.373 1.219,0.661 0.434,0.344 0.93,0.553 1.36,0.91 C 4.57,2.672 4.73,2.89 4.935,3.064 5.125,3.226 5.322,3.366 5.505,3.539 5.87,3.884 6.27,4.106 6.559,4.526 6.708,4.741 6.846,4.777 7.026,4.944 7.182,5.089 7.289,5.292 7.4,5.47 7.628,5.834 7.861,6.19 8.081,6.559 8.282,6.896 8.335,7.3 8.506,7.654 c 0.101,0.208 0.218,0.397 0.272,0.625 0.053,0.226 0.133,0.33 0.266,0.513 0.097,0.133 0.188,0.278 0.254,0.429 0.068,0.158 0.067,0.36 0.154,0.508 0.081,0.138 0.198,0.184 0.255,0.346 0.081,0.228 0.121,0.471 0.175,0.705 0.054,0.23 0.169,0.421 0.2,0.656 0.03,0.225 0.045,0.452 0.076,0.676 0.037,0.266 0.139,0.485 0.141,0.76 0.002,0.237 -0.004,0.475 -0.004,0.712 0,0.326 -0.008,0.634 0.056,0.949 0.074,0.366 0.016,0.797 0.016,1.169 0,0.781 0.016,1.535 -0.159,2.301 -0.16,0.704 -0.389,1.397 -0.611,2.087 -0.091,0.28 -0.129,0.56 -0.231,0.837 -0.118,0.32 -0.281,0.655 -0.352,0.991 -0.054,0.257 -0.188,0.495 -0.291,0.748 -0.116,0.281 -0.196,0.573 -0.302,0.855 -0.244,0.644 -0.674,1.193 -0.982,1.803 -0.283,0.561 -0.719,1.034 -1.112,1.517 -0.215,0.265 -0.464,0.562 -0.738,0.764 -0.249,0.182 -0.54,0.299 -0.782,0.509 -0.182,0.16 -0.384,0.259 -0.575,0.409 -0.139,0.11 -0.248,0.287 -0.407,0.359 -0.124,0.056 -0.265,0.079 -0.394,0.144 -0.193,0.099 -0.373,0.181 -0.572,0.261 -0.278,0.112 -0.487,0.347 -0.749,0.486 -0.244,0.129 -0.484,0.253 -0.718,0.401 -0.533,0.338 -1.105,0.646 -1.686,0.891 -0.449,0.19 -0.838,0.403 -1.324,0.46 -0.285,0.033 -0.537,0.177 -0.812,0.252 -0.303,0.082 -0.601,0.165 -0.902,0.259 -0.205,0.064 -0.394,0.034 -0.597,0.078 -0.208,0.046 -0.362,0.129 -0.584,0.134 -0.201,0.004 -0.368,-10e-4 -0.562,0.049 -0.295,0.077 -0.602,0.073 -0.891,0.167 -0.39,0.127 -0.654,0.203 -1.068,0.21 -0.319,0.005 -0.598,0.08 -0.91,0.131 -0.467,0.076 -0.984,0.012 -1.458,0.012 -0.202,0 -0.409,0.018 -0.61,0.006 -0.223,-0.014 -0.373,-0.164 -0.584,-0.21 -0.208,-0.045 -0.418,0.005 -0.627,-0.049 -0.257,-0.067 -0.543,-0.152 -0.79,-0.247 -0.191,-0.074 -0.397,-0.086 -0.555,-0.228 -0.16,-0.143 -0.301,-0.283 -0.48,-0.408 -0.173,-0.12 -0.339,-0.214 -0.468,-0.381 -0.154,-0.199 -0.28,-0.409 -0.458,-0.591 -0.095,-0.097 -0.192,-0.201 -0.295,-0.288 -0.114,-0.095 -0.26,-0.113 -0.372,-0.188 -0.164,-0.11 -0.265,-0.302 -0.431,-0.424 -0.123,-0.09 -0.256,-0.177 -0.372,-0.277 -0.132,-0.114 -0.237,-0.253 -0.375,-0.363 -0.129,-0.103 -0.27,-0.187 -0.391,-0.301 -0.129,-0.121 -0.204,-0.187 -0.379,-0.235 -0.304,-0.083 -0.642,-0.041 -0.936,-0.136 -0.127,-0.041 -0.235,-0.132 -0.365,-0.171 -0.132,-0.038 -0.279,-0.043 -0.412,-0.079 -0.26,-0.071 -0.484,-0.193 -0.716,-0.327 -0.227,-0.131 -0.487,-0.204 -0.709,-0.338 -0.201,-0.122 -0.407,-0.34 -0.545,-0.526 -0.131,-0.176 -0.265,-0.36 -0.392,-0.539 -0.149,-0.211 -0.189,-0.46 -0.286,-0.696 -0.139,-0.338 -0.293,-0.656 -0.428,-0.994 -0.149,-0.373 -0.344,-0.721 -0.504,-1.09 -0.152,-0.351 -0.238,-0.736 -0.424,-1.075 -0.224,-0.409 -0.463,-0.805 -0.681,-1.218 -0.093,-0.176 -0.218,-0.327 -0.322,-0.497 -0.129,-0.213 -0.319,-0.359 -0.454,-0.565 -0.163,-0.249 -0.304,-0.432 -0.507,-0.654 -0.121,-0.132 -0.241,-0.264 -0.329,-0.42 -0.22,-0.395 -0.269,-0.86 -0.369,-1.292 -0.1,-0.431 -0.237,-0.859 -0.33,-1.292 -0.04,-0.185 -0.021,-0.389 -0.045,-0.577 -0.04,-0.306 -0.117,-0.603 -0.11,-0.912 0.01,-0.455 -0.1,-0.864 -0.213,-1.296 -0.048,-0.185 -0.131,-0.367 -0.15,-0.557 -0.022,-0.218 0.047,-0.411 0.103,-0.619 0.161,-0.595 0.31,-1.173 0.566,-1.738 0.131,-0.29 0.253,-0.579 0.398,-0.861 0.089,-0.174 0.086,-0.325 0.082,-0.513 -0.007,-0.366 0.095,-0.578 0.301,-0.885 0.144,-0.216 0.26,-0.443 0.411,-0.657 0.225,-0.319 0.472,-0.64 0.67,-0.979 0.227,-0.388 0.458,-0.812 0.62,-1.232 0.055,-0.141 0.12,-0.268 0.199,-0.398 0.078,-0.129 0.163,-0.178 0.265,-0.287 0.238,-0.254 0.497,-0.469 0.753,-0.705 0.373,-0.342 0.646,-0.796 1.064,-1.095 0.235,-0.169 0.497,-0.289 0.727,-0.465 0.141,-0.109 0.282,-0.221 0.441,-0.304 0.26,-0.136 0.485,-0.312 0.772,-0.412 0.743,-0.259 1.326,-0.819 2.009,-1.199 0.313,-0.173 0.699,-0.237 0.977,-0.477 0.102,-0.088 0.209,-0.266 0.318,-0.331 0.071,-0.042 0.199,-0.046 0.283,-0.082 0.168,-0.072 0.327,-0.078 0.481,-0.19 0.206,-0.149 0.399,-0.259 0.637,-0.351 0.163,-0.063 0.341,-0.14 0.515,-0.168 0.133,-0.021 0.198,0.026 0.299,0.05 0.239,0.057 0.474,-0.03 0.704,-0.1 0.187,-0.057 0.391,-0.087 0.568,-0.166 0.217,-0.097 0.365,-0.216 0.61,-0.222 0.275,-0.007 0.529,0.02 0.799,-0.049 0.124,-0.032 0.796,-0.131 0.8,-0.291 -0.187,-0.054 -0.434,-0.013 -0.629,-0.014 -0.267,-0.002 -0.534,-0.018 -0.793,0.062 -0.346,0.108 -0.658,0.335 -1.008,0.425 -0.25,0.066 -0.543,0.129 -0.799,0.16 -0.325,0.039 -0.67,-0.056 -0.993,-0.001 -0.183,0.032 -0.288,0.139 -0.483,0.143 -0.156,0.004 -0.284,-0.014 -0.436,0.03 -0.357,0.105 -0.713,0.213 -1.068,0.325 -0.157,0.049 -0.306,0.122 -0.462,0.172 -0.171,0.056 -0.354,0.065 -0.529,0.113 -0.332,0.091 -0.7,0.139 -1.012,0.283 -0.328,0.151 -0.659,0.268 -0.987,0.415 -0.144,0.064 -0.292,0.139 -0.443,0.179 -0.098,0.026 -0.199,0.037 -0.29,0.083 -0.157,0.079 -0.255,0.194 -0.429,0.242 -0.238,0.066 -0.367,0.126 -0.558,0.286 -0.145,0.122 -0.278,0.159 -0.454,0.224 -0.278,0.101 -0.469,0.253 -0.708,0.42 -0.22,0.155 -0.455,0.281 -0.67,0.446 -0.493,0.378 -1.145,0.506 -1.685,0.813 -0.189,0.108 -0.32,0.285 -0.427,0.468 -0.135,0.228 -0.297,0.336 -0.492,0.504 -0.078,0.068 -0.092,0.129 -0.155,0.199 -0.049,0.055 -0.128,0.106 -0.172,0.158 -0.072,0.086 -0.107,0.196 -0.181,0.286 -0.101,0.123 -0.203,0.209 -0.286,0.352 -0.104,0.181 -0.233,0.367 -0.375,0.521 -0.289,0.314 -0.529,0.638 -0.758,0.985 -0.122,0.184 -0.27,0.367 -0.354,0.571 -0.068,0.164 -0.127,0.346 -0.232,0.492 -0.108,0.15 -0.186,0.213 -0.25,0.395 -0.076,0.215 -0.213,0.365 -0.285,0.586 -0.058,0.179 -0.11,0.337 -0.143,0.525 -0.058,0.337 -0.149,0.502 -0.323,0.79 -0.216,0.356 -0.461,0.797 -0.501,1.219 -0.016,0.178 -0.107,0.267 -0.148,0.429 -0.036,0.143 0.016,0.31 0.077,0.431 0.058,0.115 0.05,0.173 0.084,0.298 0.043,0.162 0.129,0.216 0.132,0.395 0.003,0.246 -0.065,0.566 -0.007,0.805 0.045,0.181 0.299,0.427 0.449,0.516 0.318,0.189 0.417,0.328 0.414,0.697 -0.003,0.358 0.009,0.716 0.004,1.074 -0.009,0.551 -0.344,1.185 -0.771,1.543 -0.364,0.307 -0.807,0.576 -0.805,1.087 0.001,0.143 0.008,0.176 0.071,0.298 0.09,0.175 0.07,0.322 0.07,0.519 0,0.433 0.268,0.79 0.518,1.131 0.134,0.184 0.31,0.326 0.416,0.532 0.109,0.209 0.199,0.413 0.319,0.616 0.112,0.191 0.196,0.381 0.321,0.565 0.126,0.186 0.286,0.395 0.382,0.597 0.271,0.566 -0.01,1.24 0.157,1.823 0.073,0.258 0.242,0.486 0.349,0.729 0.108,0.243 0.191,0.474 0.327,0.703 0.294,0.495 0.378,1.166 0.782,1.583 0.198,0.205 0.393,0.359 0.511,0.627 0.095,0.216 0.188,0.4 0.333,0.589 0.162,0.211 0.323,0.419 0.449,0.655 0.188,0.356 0.305,0.671 0.657,0.899 0.133,0.086 0.238,0.133 0.362,0.246 0.118,0.11 0.207,0.262 0.353,0.341 0.128,0.071 0.28,0.057 0.416,0.087 0.151,0.033 0.253,0.099 0.377,0.194 0.22,0.168 0.4,0.366 0.552,0.596 0.149,0.227 0.251,0.496 0.434,0.694 0.31,0.337 0.735,0.627 1.168,0.765 0.567,0.18 1.13,0.356 1.673,0.599 0.185,0.082 0.335,0.217 0.524,0.291 0.256,0.099 0.509,0.039 0.773,0.08 0.308,0.048 0.621,0.089 0.929,0.144 0.491,0.087 0.943,0.316 1.428,0.402 0.436,0.077 0.862,0.131 1.296,0.232 0.398,0.093 0.81,0.018 1.2,0.15 0.179,0.06 0.32,0.163 0.51,0.194 0.184,0.029 0.379,-0.007 0.564,0.02 0.163,0.023 0.284,0.087 0.436,0.135 0.278,0.088 0.523,0.058 0.811,0.064 0.624,0.014 1.193,0.355 1.825,0.367 0.456,0.008 0.918,0.009 1.373,-0.001 0.58,-0.013 1.009,-0.145 1.498,-0.46 0.426,-0.274 0.897,-0.39 1.354,-0.59 0.331,-0.145 0.606,-0.383 0.943,-0.518 0.309,-0.122 0.657,-0.148 0.985,-0.188 0.513,-0.062 0.975,-0.144 1.468,-0.305 0.322,-0.105 0.568,-0.255 0.872,-0.391 0.185,-0.083 0.376,-0.14 0.555,-0.235 0.12,-0.063 0.262,-0.193 0.402,-0.239 0.313,-0.102 0.634,-0.202 0.95,-0.302 0.433,-0.137 0.857,-0.161 1.27,-0.37 0.277,-0.139 0.577,-0.214 0.853,-0.35 0.322,-0.159 0.625,-0.38 0.933,-0.565 0.292,-0.176 0.601,-0.303 0.888,-0.49 0.363,-0.236 0.723,-0.494 1.038,-0.794 0.408,-0.388 0.773,-0.796 1.227,-1.136 0.654,-0.489 1.348,-0.951 1.914,-1.542 0.097,-0.1 0.219,-0.203 0.288,-0.325 0.062,-0.109 0.065,-0.197 0.086,-0.321 0.044,-0.254 0.163,-0.413 0.268,-0.647 0.106,-0.233 0.251,-0.515 0.33,-0.756 0.074,-0.23 0.053,-0.521 0.092,-0.763 0.029,-0.18 0.026,-0.345 0.068,-0.524 0.059,-0.25 0.095,-0.501 0.093,-0.758 -0.003,-0.274 -0.001,-0.549 -0.004,-0.823 -0.003,-0.33 0.063,-0.637 0.07,-0.964 0.005,-0.249 0.139,-0.392 0.207,-0.61 0.059,-0.189 0.011,-0.472 0.011,-0.665 0,-0.553 -0.011,-1.089 0.104,-1.634 0.059,-0.281 0.208,-0.514 0.284,-0.789 0.075,-0.269 0.169,-0.482 0.281,-0.741 0.33,-0.761 0.687,-1.582 0.823,-2.407 C 13.47,14.819 13.421,14.614 13.385,14.385 13.35,14.153 13.378,13.918 13.372,13.683 13.367,13.446 13.33,13.213 13.266,12.982 13.197,12.734 13.023,12.53 12.887,12.311 12.776,12.132 12.584,11.99 12.505,11.794 12.414,11.57 12.539,11.174 12.363,11.005 12.276,10.921 12.163,10.884 12.08,10.786 11.99,10.679 11.935,10.546 11.851,10.435 11.663,10.187 11.454,9.965 11.277,9.707 10.998,9.301 10.856,8.788 10.867,8.294 10.873,8.059 10.864,7.904 10.733,7.708 10.56,7.45 10.326,7.235 10.083,7.045 9.913,6.913 9.755,6.773 9.614,6.608 9.445,6.411 9.361,6.182 9.217,5.97 8.905,5.506 8.575,5.012 8.141,4.654 7.858,4.42 7.611,4.174 7.361,3.904 7.168,3.697 6.921,3.61 6.703,3.436 6.261,3.083 5.861,2.689 5.465,2.288 5.283,2.103 5.14,1.895 4.934,1.732 4.715,1.558 4.496,1.379 4.272,1.212 3.841,0.89 3.359,0.547 2.832,0.41 2.594,0.347 2.323,0.293 2.077,0.283 1.788,0.27 1.499,0.311 1.21,0.27 0.999,0.24 0.778,0.218 0.572,0.163 0.348,0.103 0.118,0.095 -0.104,0.038 -0.444,-0.05 -0.799,-0.176 -1.115,-0.321 -1.663,-0.574 -2.131,-0.455 -2.717,-0.429"
             style="fill:#231f20;fill-opacity:1;fill-rule:nonzero;stroke:none"
             id="path6573" />
        </g>
        <g
           id="g6575"
           transform="translate(171.437,426.451)">
          <path
             d="M 0,0 C -0.011,-0.053 -0.006,-0.104 0.014,-0.153 0.105,-0.131 0.147,0.056 0.188,0.156 0.281,0.382 0.391,0.564 0.433,0.813 0.509,1.27 0.687,1.755 0.692,2.217 0.694,2.405 0.709,2.545 0.744,2.725 0.791,2.976 0.759,3.255 0.759,3.511 0.759,4.019 0.907,4.5 0.9,5.008 0.895,5.404 0.769,5.738 0.639,6.077 0.514,6.396 0.588,6.844 0.434,7.121 0.414,7.159 0.368,7.157 0.345,7.187 0.259,7.298 0.241,7.451 0.221,7.594 0.182,7.878 0.226,8.164 0.21,8.449 0.188,8.858 0.102,9.274 -0.043,9.647 c -0.084,0.215 -0.178,0.381 -0.289,0.582 -0.152,0.279 -0.213,0.556 -0.304,0.861 -0.163,0.547 -0.507,0.965 -0.672,1.506 -0.133,0.438 -0.348,0.818 -0.472,1.263 -0.108,0.386 -0.174,0.87 -0.444,1.158 -0.206,0.219 -0.476,0.239 -0.712,0.403 -0.296,0.206 -0.427,0.564 -0.718,0.763 -0.261,0.179 -0.369,0.452 -0.568,0.696 -0.261,0.32 -0.39,0.737 -0.603,1.101 -0.217,0.37 -0.474,0.625 -0.745,0.93 -0.312,0.351 -0.53,0.743 -0.897,1.027 -0.2,0.155 -0.393,0.287 -0.571,0.476 -0.127,0.135 -0.239,0.297 -0.404,0.376 -0.328,0.156 -0.615,0.243 -0.909,0.485 -0.241,0.198 -0.52,0.293 -0.754,0.509 -0.118,0.108 -0.259,0.294 -0.401,0.382 -0.193,0.12 -0.421,0.085 -0.627,0.166 -0.427,0.168 -0.817,0.506 -1.234,0.71 -0.312,0.152 -0.569,0.394 -0.786,0.685 -0.155,0.208 -0.402,0.378 -0.615,0.5 -0.352,0.202 -0.626,0.473 -0.952,0.725 -0.232,0.179 -0.483,0.203 -0.733,0.323 -0.312,0.152 -0.604,0.358 -0.927,0.483 -0.409,0.158 -0.844,0.23 -1.229,0.466 -0.404,0.248 -0.739,0.632 -1.174,0.813 -0.131,0.054 -0.271,0.092 -0.402,0.152 -0.188,0.085 -0.337,0.245 -0.532,0.311 -0.371,0.127 -0.766,0.092 -1.147,0.092 -0.832,-0.002 -1.664,0 -2.497,0 -0.385,0 -0.771,-0.004 -1.156,-0.001 -0.174,0.001 -0.402,0.055 -0.568,-0.029 -0.163,-0.082 -0.291,-0.225 -0.465,-0.297 -0.13,-0.055 -0.235,-0.042 -0.363,-0.076 -0.146,-0.038 -0.179,-0.098 -0.287,-0.218 -0.227,-0.251 -0.559,-0.178 -0.847,-0.176 -0.339,0.001 -0.677,-0.001 -1.016,-0.001 -0.327,0 -0.718,0.068 -1.035,-0.01 -0.155,-0.037 -0.274,-0.17 -0.42,-0.236 -0.131,-0.059 -0.266,-0.061 -0.394,-0.125 -0.256,-0.129 -0.521,-0.336 -0.763,-0.506 -0.582,-0.406 -1.322,-0.757 -2.021,-0.62 -0.129,0.025 -0.251,0.087 -0.384,0.061 -0.121,-0.024 -0.228,-0.105 -0.35,-0.141 -0.267,-0.078 -0.523,-0.111 -0.776,-0.249 -0.308,-0.167 -0.564,-0.411 -0.882,-0.566 -0.354,-0.173 -0.684,-0.393 -0.999,-0.648 -0.162,-0.132 -0.272,-0.254 -0.47,-0.32 -0.247,-0.084 -0.518,-0.071 -0.772,-0.072 -0.341,-0.002 -0.694,0.06 -1.022,-0.072 -0.195,-0.079 -0.343,-0.147 -0.551,-0.164 -0.13,-0.01 -0.226,-0.025 -0.346,-0.074 -0.307,-0.123 -0.533,-0.364 -0.759,-0.624 -0.16,-0.182 -0.272,-0.382 -0.394,-0.597 -0.13,-0.23 -0.228,-0.356 -0.397,-0.537 -0.176,-0.187 -0.324,-0.392 -0.519,-0.562 -0.207,-0.18 -0.354,-0.391 -0.539,-0.597 -0.193,-0.215 -0.429,-0.355 -0.597,-0.597 -0.229,-0.332 -0.614,-0.308 -0.836,-0.636 -0.171,-0.255 -0.41,-0.459 -0.562,-0.72 -0.155,-0.265 -0.388,-0.346 -0.589,-0.555 -0.178,-0.185 -0.345,-0.419 -0.495,-0.635 -0.2,-0.291 -0.494,-0.544 -0.644,-0.877 -0.126,-0.278 -0.182,-0.779 -0.495,-0.876 0.064,0.02 -0.282,0.002 -0.275,0.009 -0.124,-0.112 -0.047,-0.404 -0.053,-0.563 -0.01,-0.294 -0.181,-0.597 -0.28,-0.872 -0.073,-0.204 -0.103,-0.361 -0.148,-0.575 -0.047,-0.221 -0.173,-0.368 -0.268,-0.562 -0.314,-0.642 -0.615,-1.387 -0.681,-2.133 -0.022,-0.252 0.039,-0.527 -0.017,-0.773 -0.036,-0.159 -0.117,-0.266 -0.131,-0.433 -0.016,-0.181 0.005,-0.375 0.005,-0.556 V 7.939 c 0,-0.087 -0.001,-0.173 10e-4,-0.259 10e-4,0.193 -0.094,0.406 -0.124,0.597 -0.033,0.21 0.03,0.3 0.057,0.495 0.012,0.084 -0.007,0.152 0.012,0.239 0.021,0.094 0.057,0.134 0.057,0.239 0,0.105 -0.035,0.145 -0.057,0.24 -0.029,0.129 0.006,0.249 -0.012,0.379 -0.059,0.435 -0.144,0.946 -0.059,1.394 0.021,0.109 0.087,0.198 0.111,0.302 0.019,0.083 -0.004,0.155 0.01,0.235 0.038,0.226 0.157,0.411 0.228,0.618 0.061,0.181 0.084,0.394 0.161,0.573 0.04,0.093 0.122,0.158 0.157,0.248 0.025,0.065 0.016,0.182 0.025,0.251 0.033,0.274 0.117,0.519 0.119,0.798 0.004,0.382 0.232,0.764 0.418,1.069 0.084,0.137 0.172,0.156 0.264,0.27 0.079,0.098 0.09,0.192 0.163,0.299 0.145,0.215 0.269,0.418 0.402,0.645 0.069,0.116 0.09,0.146 0.133,0.266 0.061,0.169 0.104,0.311 0.213,0.457 0.171,0.23 0.344,0.447 0.488,0.714 0.105,0.195 0.246,0.362 0.338,0.566 0.157,0.348 0.317,0.67 0.538,0.972 0.134,0.184 0.309,0.281 0.447,0.468 0.093,0.127 0.191,0.242 0.26,0.39 0.127,0.274 0.071,0.644 0.285,0.862 0.145,0.148 0.24,0.129 0.336,0.332 0.096,0.202 0.107,0.449 0.216,0.644 0.113,0.201 0.197,0.172 0.354,0.264 0.107,0.064 0.173,0.142 0.27,0.222 0.234,0.194 0.51,0.167 0.748,0.331 0.124,0.087 0.223,0.239 0.355,0.313 0.208,0.116 0.409,0.002 0.616,0.08 0.17,0.065 0.154,0.22 0.263,0.339 0.128,0.14 0.181,0.117 0.353,0.151 0.28,0.056 0.392,0.379 0.686,0.387 0.115,0.003 0.293,-0.06 0.402,0 0.123,0.068 0.16,0.243 0.287,0.322 0.091,0.056 0.132,0.055 0.222,0.069 0.255,0.039 0.376,0.143 0.588,0.303 0.377,0.284 0.781,0.072 1.184,0.247 0.332,0.145 0.605,0.367 0.96,0.467 0.161,0.045 0.233,0.113 0.375,0.183 0.157,0.078 0.251,0.08 0.426,0.078 0.194,-0.004 0.411,-0.031 0.604,-0.008 0.186,0.023 0.316,0.173 0.49,0.249 0.129,0.057 0.275,0.073 0.398,0.148 0.169,0.102 0.218,0.244 0.355,0.392 0.157,0.169 0.276,0.154 0.458,0.231 0.146,0.062 0.224,0.14 0.352,0.244 0.289,0.234 0.6,0.091 0.895,0.249 0.188,0.101 0.336,0.219 0.543,0.275 0.244,0.065 0.488,0.008 0.728,0.065 0.114,0.027 0.211,0.102 0.321,0.133 0.185,0.051 0.423,0.026 0.609,0.017 0.196,-0.009 0.379,-0.079 0.573,-0.091 0.18,-0.012 0.256,0.065 0.419,0.132 0.195,0.078 0.413,0.038 0.614,0.031 0.231,-0.008 0.326,0.028 0.53,0.146 0.343,0.199 0.818,0.093 1.196,0.095 0.302,0.002 0.588,0.081 0.895,0.08 0.348,-0.002 0.671,0.151 1.017,0.165 0.364,0.016 0.742,0.017 1.105,0 0.477,-0.021 0.879,-0.291 1.338,-0.39 0.389,-0.084 0.859,-0.031 1.244,0.05 0.302,0.063 0.585,-0.044 0.884,-0.058 0.383,-0.018 0.827,-0.353 1.161,-0.548 0.33,-0.194 0.732,-0.201 1.084,-0.335 0.393,-0.151 0.798,-0.152 1.176,-0.373 0.186,-0.11 0.342,-0.26 0.54,-0.345 0.228,-0.098 0.436,-0.159 0.651,-0.298 0.364,-0.235 0.615,-0.62 1.044,-0.657 0.43,-0.036 0.712,-0.337 1.104,-0.486 0.4,-0.152 0.845,-0.095 1.233,-0.306 0.554,-0.301 1.003,-0.931 1.426,-1.421 0.211,-0.245 0.405,-0.504 0.649,-0.711 0.316,-0.268 0.549,-0.64 0.88,-0.883 0.606,-0.445 1.216,-0.87 1.812,-1.328 0.372,-0.287 0.71,-0.717 1.007,-1.104 0.203,-0.265 0.422,-0.51 0.638,-0.76 0.183,-0.212 0.357,-0.455 0.561,-0.636 0.33,-0.293 0.712,-0.491 1.026,-0.81 0.352,-0.357 0.605,-0.926 0.864,-1.379 0.114,-0.199 0.192,-0.363 0.192,-0.606 0.001,-0.27 0.004,-0.425 0.147,-0.654 0.098,-0.158 0.192,-0.295 0.264,-0.473 0.12,-0.297 0.163,-0.574 0.357,-0.827 0.138,-0.18 0.281,-0.34 0.388,-0.55 0.141,-0.278 0.165,-0.551 0.22,-0.856 C 0.424,11.384 0.488,10.976 0.608,10.558 0.713,10.186 0.652,9.848 0.685,9.472 0.701,9.296 0.756,9.167 0.828,9.013 0.938,8.776 0.953,8.607 0.966,8.347 0.981,8.061 1.036,7.795 1.035,7.504 1.033,7.077 1.038,6.651 1.034,6.224 1.032,6.05 1.065,5.923 1.089,5.755 1.139,5.399 1.094,5.06 1.051,4.709 0.976,4.111 1.072,3.488 1.038,2.887 1.031,2.748 0.984,2.668 0.962,2.539 0.931,2.351 0.957,2.169 0.916,1.977 0.877,1.799 0.845,1.625 0.814,1.444 0.762,1.13 0.666,0.908 0.55,0.639 0.481,0.477 0.453,0.317 0.361,0.167 0.303,0.074 0.242,0.005 0.192,-0.092 0.099,-0.267 0.052,-0.654 0,0"
             style="fill:#231f20;fill-opacity:1;fill-rule:nonzero;stroke:none"
             id="path6577" />
        </g>
      </g>
    </g>
  </g>
</svg>
