<svg width="28" height="24" viewBox="0 0 28 24" fill="none" xmlns="http://www.w3.org/2000/svg">
  <g clip-path="url(#clip0_9_209)">
    <path d="M13.4891 4.25435C13.4891 4.36703 13.468 4.49171 13.4977 4.60209C13.5332 4.7325 13.6424 4.8526 13.6842 4.98701C13.7139 5.08138 13.7374 5.13057 13.8152 5.20206C13.8798 5.26269 13.969 5.30844 14.0285 5.3725C14.0823 5.42912 14.1103 5.49203 14.1732 5.54408C14.2453 5.60356 14.3888 5.71738 14.4952 5.7231C14.4866 5.78487 14.4054 5.81118 14.3356 5.81918C14.3276 5.84492 14.3202 5.87123 14.3127 5.89754C14.2801 5.90383 14.2481 5.91012 14.2161 5.91641C14.2086 5.99134 14.1332 6.04853 14.1 6.11202C14.0559 6.19724 14.0073 6.3019 13.9793 6.39055C13.945 6.50151 13.9667 6.62562 13.965 6.74001C13.9627 6.86012 13.9879 6.96135 14.0125 7.0786C14.0382 7.20271 14.0125 7.32453 14.0376 7.44979C14.1034 7.77694 14.275 8.05319 14.5015 8.32372C14.5747 8.41065 14.6559 8.49301 14.7291 8.57937C14.792 8.65315 14.812 8.74352 14.8738 8.8133C14.9264 8.87278 14.9974 8.93341 15.0528 9.00433C15.1255 9.09698 15.2341 9.23139 15.3405 9.30116C15.4011 9.3412 15.4984 9.34635 15.5224 9.40354C15.5527 9.47675 15.4217 9.57741 15.3823 9.63575C15.2913 9.77244 15.2296 9.93716 15.1735 10.0864C15.1106 10.2534 15.0265 10.4119 14.9796 10.5823C14.7766 11.3235 15.0385 12.0859 15.233 12.8072C15.356 13.2613 15.5767 13.6742 15.758 14.1129C15.8335 14.2959 15.9233 14.4687 16.0097 14.6482C16.0755 14.7855 16.1778 14.901 16.2499 15.0343C16.3323 15.1876 16.2899 15.3248 16.1292 15.445C15.9268 15.5948 15.7409 15.7824 15.5613 15.9563C15.3691 16.1427 15.1392 16.312 14.9367 16.5008C14.8138 16.6157 14.7423 16.7438 14.6267 16.8617C14.4145 17.0761 14.295 17.3295 14.1434 17.5697C13.9353 17.8992 13.9661 18.2275 13.9661 18.5855C13.9661 18.9424 13.9335 19.2958 14.0422 19.6442C14.0754 19.75 14.1189 19.85 14.1452 19.9536C14.1463 19.9581 14.1926 20.0691 14.1926 20.0617C14.1926 20.1692 14.1835 20.0954 14.1 20.1566C13.9181 20.2893 13.7334 20.454 13.6098 20.6285C13.4079 20.9139 13.3599 21.2519 13.2358 21.5567C13.1654 21.7294 13.2552 21.9279 13.1792 22.0961C13.1523 22.155 13.1048 22.1893 13.0848 22.2545C13.0482 22.3757 13.0676 22.4947 13.0093 22.6142C13.0156 22.4844 12.9755 22.4055 12.9492 22.2859C12.9115 22.1126 12.9647 21.9342 12.8795 21.762C12.8554 21.7129 12.8103 21.6688 12.7902 21.6099C12.7485 21.4892 12.7027 21.3754 12.6375 21.261C12.5597 21.1243 12.4751 20.9425 12.3567 20.8361C12.3293 20.8115 12.2829 20.7966 12.2538 20.7703C12.1886 20.712 12.1691 20.6307 12.1165 20.5678C12.0867 20.5329 12.0404 20.5118 12.0118 20.4775C11.9752 20.434 11.9907 20.3825 11.942 20.3385C11.8603 20.2641 11.8185 20.3105 11.8317 20.2075C11.8322 20.2029 11.8889 20.1131 11.8923 20.1091C11.9861 20.0079 12.0301 19.9896 12.0581 19.8541C12.0799 19.7494 12.1188 19.6836 12.1176 19.5646C12.1159 19.3536 12.1262 19.1414 12.1199 18.9304C12.1125 18.6736 12.045 18.4231 11.9821 18.1714C11.9352 17.9838 11.9438 17.7933 11.8969 17.6052C11.8665 17.4816 11.8082 17.3707 11.7716 17.2489C11.6566 16.8679 11.4387 16.5191 11.21 16.1765C11.1156 16.0346 11.0023 15.8854 10.8193 15.807C10.7438 15.775 10.606 15.7183 10.5139 15.7121C10.5294 15.6697 10.5963 15.6732 10.6437 15.6411C10.6941 15.6074 10.7124 15.5536 10.7461 15.5102C10.8416 15.3883 10.9572 15.2522 11.0172 15.1127C11.2237 14.6282 11.2683 14.1112 11.4273 13.6102C11.4851 13.4271 11.5011 13.2115 11.5142 13.0234C11.5291 12.8083 11.5749 12.5955 11.584 12.3805C11.6029 11.9321 11.5474 11.5054 11.4736 11.0622C11.4536 10.9421 11.4679 10.83 11.4273 10.7121C11.3884 10.5983 11.3375 10.4851 11.2832 10.3758C11.1962 10.2014 11.0956 9.98406 10.9251 9.85309C10.8422 9.7896 10.6443 9.77302 10.7118 9.64719C10.7324 9.60887 10.8233 9.57913 10.8657 9.56254C10.984 9.51621 10.9732 9.5225 11.0716 9.43099C11.1499 9.35893 11.2517 9.30631 11.3312 9.23653C11.4256 9.15475 11.4965 9.04608 11.5829 8.95514C11.6658 8.86763 11.7241 8.76926 11.7928 8.67489C11.914 8.50731 12.0742 8.36718 12.1788 8.19103C12.3104 7.96911 12.4745 7.75177 12.5826 7.52185C12.6867 7.29994 12.6621 7.05057 12.6553 6.81665C12.6518 6.69654 12.6209 6.62391 12.57 6.51638C12.538 6.44889 12.5334 6.38483 12.5003 6.32021C12.4396 6.20124 12.3373 6.1063 12.2389 6.00392C12.1697 5.93129 12.081 5.89468 12.1216 5.79002C12.1548 5.7048 12.2429 5.60699 12.2818 5.51491C12.3653 5.31931 12.5414 5.17232 12.7416 5.05393C12.9595 4.92467 13.1866 4.69475 13.2998 4.49514C13.3856 4.34472 13.472 4.19087 13.4937 4.02215C13.5595 4.06047 13.6173 4.10508 13.4891 4.25435Z" fill="black"/>
    <path d="M17.9297 23.2153C18.0086 23.2033 18.0069 23.173 18.0504 23.1335C18.1019 23.0861 18.1493 23.0758 18.2203 23.0535C18.4753 22.9705 18.7053 22.7984 18.9489 22.6846C19.188 22.573 19.4379 22.4712 19.6461 22.3065C19.8943 22.1098 20.178 21.9902 20.4239 21.786C20.5435 21.6871 20.635 21.5624 20.7522 21.4629C20.8609 21.3702 20.9736 21.2902 21.0782 21.1912C21.287 20.9939 21.5158 20.8669 21.6811 20.6267C21.7663 20.5037 21.8452 20.4832 21.9482 20.3876C22.0374 20.3047 22.0986 20.1886 22.1621 20.0868C22.2925 19.8786 22.4257 19.675 22.5516 19.464C22.6665 19.2712 22.6968 19.0401 22.7946 18.8377C22.8524 18.7187 22.9193 18.6106 22.9502 18.4802C22.9805 18.351 23.0263 18.2915 23.1023 18.1868C23.1578 18.1107 23.2099 18.0278 23.2476 17.9414C23.2865 17.8511 23.2859 17.7355 23.3357 17.6509C23.382 17.572 23.4489 17.5457 23.4815 17.453C23.5279 17.3226 23.5507 17.1836 23.5816 17.0498C23.6125 16.9182 23.6783 16.809 23.696 16.6746C23.7132 16.5459 23.7218 16.4161 23.7395 16.288C23.7606 16.1358 23.819 16.0106 23.8201 15.8533C23.8213 15.7177 23.8178 15.5816 23.8178 15.4461C23.8178 15.2596 23.8133 15.0835 23.8499 14.9033C23.8922 14.694 23.859 14.4475 23.859 14.2347C23.859 13.788 23.8682 13.3568 23.7681 12.9187C23.6766 12.516 23.5456 12.1197 23.4186 11.725C23.3666 11.5649 23.3448 11.4047 23.2865 11.2463C23.219 11.0633 23.1258 10.8717 23.0852 10.6795C23.0543 10.5325 22.9777 10.3964 22.9187 10.2517C22.8524 10.091 22.8067 9.92397 22.746 9.76268C22.6065 9.39435 22.3605 9.08036 22.1844 8.73147C22.0225 8.41061 21.7732 8.14009 21.5484 7.86384C21.4254 7.71227 21.283 7.54241 21.1263 7.42688C20.9839 7.32278 20.8174 7.25586 20.679 7.13576C20.5749 7.04425 20.4594 6.98762 20.3502 6.90183C20.2707 6.83892 20.2083 6.73769 20.1174 6.69651C20.0465 6.66448 19.9658 6.65132 19.892 6.61415C19.7817 6.55752 19.6787 6.51062 19.5649 6.46487C19.4059 6.40081 19.2864 6.26641 19.1365 6.18691C18.9969 6.11313 18.8597 6.04221 18.7258 5.95756C18.421 5.76424 18.0939 5.58808 17.7616 5.44796C17.5048 5.33929 17.2823 5.21746 17.0043 5.18486C16.8413 5.16599 16.6972 5.08363 16.5399 5.04074C16.3666 4.99384 16.1962 4.94637 16.024 4.8926C15.9068 4.856 15.7987 4.87316 15.6825 4.84799C15.5636 4.82168 15.4755 4.77421 15.3485 4.77135C15.2336 4.76906 15.1381 4.77192 15.0271 4.74333C14.8584 4.69929 14.6828 4.70157 14.5175 4.64781C14.2944 4.57518 14.1435 4.53171 13.9067 4.5277C13.7242 4.52485 13.5647 4.48195 13.3862 4.45278C13.1191 4.40931 12.8234 4.44592 12.5523 4.44592C12.4368 4.44592 12.3184 4.43562 12.2034 4.44248C12.0759 4.45049 11.9901 4.53628 11.8694 4.56259C11.7505 4.58833 11.6303 4.55973 11.5108 4.59062C11.3638 4.62894 11.2002 4.67755 11.059 4.73189C10.9497 4.77421 10.8319 4.78107 10.7415 4.86229C10.65 4.94408 10.5694 5.02415 10.467 5.09564C10.3681 5.16428 10.2731 5.21804 10.1993 5.31355C10.1113 5.42737 10.0392 5.54748 9.9374 5.65157C9.88306 5.70705 9.82759 5.76653 9.76868 5.81629C9.70347 5.87062 9.61997 5.88092 9.55591 5.92381C9.46212 5.98673 9.40435 6.09654 9.30941 6.16632C9.23906 6.21779 9.16299 6.26755 9.09664 6.32474C9.02115 6.38995 8.96109 6.46945 8.88217 6.53236C8.80839 6.59127 8.72774 6.63931 8.65854 6.70451C8.58476 6.77372 8.54186 6.81147 8.44177 6.83892C8.2679 6.88639 8.07459 6.86237 7.90644 6.9167C7.8338 6.94015 7.77203 6.9922 7.69768 7.01451C7.62218 7.03624 7.5381 7.0391 7.46204 7.05969C7.31333 7.1003 7.18522 7.17007 7.05253 7.24671C6.9227 7.32164 6.77399 7.36339 6.64702 7.44003C6.53206 7.50981 6.41424 7.63449 6.33531 7.74087C6.26039 7.84153 6.18375 7.94677 6.11111 8.04915C6.02589 8.16983 6.00301 8.31224 5.94754 8.44722C5.86804 8.64054 5.77996 8.82241 5.70275 9.01573C5.61753 9.22906 5.506 9.4281 5.41449 9.63914C5.32755 9.8399 5.27836 10.0601 5.17198 10.254C5.04387 10.4879 4.90718 10.7144 4.78249 10.9506C4.7293 11.0513 4.65781 11.1376 4.59833 11.2349C4.52455 11.3567 4.41588 11.4402 4.33866 11.558C4.24544 11.7004 4.16479 11.8051 4.04869 11.9321C3.97949 12.0076 3.91085 12.083 3.86052 12.1723C3.73469 12.3982 3.70667 12.6641 3.64948 12.9112C3.59228 13.1577 3.51393 13.4025 3.46074 13.6502C3.43786 13.756 3.44872 13.8727 3.435 13.9802C3.41212 14.1552 3.36808 14.3251 3.37208 14.5018C3.3778 14.762 3.31489 14.9959 3.25026 15.243C3.22281 15.3488 3.17534 15.4529 3.16447 15.5616C3.15189 15.6863 3.19135 15.7967 3.22338 15.9156C3.31546 16.2559 3.40068 16.5865 3.5471 16.9097C3.62202 17.0755 3.6918 17.2408 3.77473 17.4021C3.82563 17.5016 3.82392 17.588 3.82163 17.6955C3.81763 17.9048 3.87597 18.0261 3.99378 18.2017C4.07614 18.3252 4.14249 18.455 4.22885 18.5774C4.35754 18.7599 4.49881 18.9435 4.61205 19.1374C4.74188 19.3593 4.874 19.6018 4.96666 19.842C4.99811 19.9226 5.03529 19.9953 5.08047 20.0696C5.12508 20.1434 5.1737 20.1714 5.23204 20.2338C5.36816 20.3791 5.51629 20.502 5.66271 20.637C5.87604 20.8326 6.03218 21.0923 6.27125 21.2633C6.40566 21.3599 6.55551 21.4286 6.68706 21.5292C6.7677 21.5916 6.84834 21.6556 6.93928 21.7031C7.08799 21.7809 7.21667 21.8815 7.38082 21.9387C7.80577 22.0869 8.13922 22.4072 8.52985 22.6245C8.70887 22.7234 8.92964 22.76 9.08864 22.8973C9.14698 22.9476 9.20817 23.0495 9.27051 23.0866C9.31112 23.1106 9.38433 23.1129 9.43237 23.1335C9.52846 23.1747 9.6194 23.1781 9.70748 23.2422C9.8253 23.3274 9.93568 23.3903 10.0718 23.4429C10.165 23.479 10.2668 23.523 10.3664 23.539C10.4424 23.551 10.4796 23.5242 10.5374 23.5104C10.6741 23.4778 10.8085 23.5276 10.94 23.5676C11.047 23.6002 11.1636 23.6174 11.2649 23.6626C11.389 23.7181 11.4736 23.7861 11.6138 23.7895C11.771 23.7935 11.9163 23.7781 12.0707 23.8176C12.1417 23.8359 12.526 23.8925 12.5283 23.984C12.4213 24.0149 12.2801 23.9914 12.1685 23.992C12.0158 23.9932 11.8631 24.0023 11.715 23.9566C11.5171 23.8948 11.3387 23.765 11.1385 23.7135C10.9955 23.6757 10.8279 23.6397 10.6815 23.622C10.4956 23.5997 10.2983 23.654 10.1136 23.6225C10.0089 23.6042 9.94884 23.543 9.83731 23.5407C9.74809 23.5385 9.67488 23.5488 9.58794 23.5236C9.38376 23.4635 9.18015 23.4018 8.97711 23.3377C8.88731 23.3097 8.8021 23.2679 8.71287 23.2393C8.61507 23.2073 8.51041 23.2022 8.41032 23.1747C8.22043 23.1227 8.00996 23.0952 7.83151 23.0128C7.64391 22.9265 7.4546 22.8596 7.267 22.7755C7.18465 22.7389 7.1 22.696 7.01363 22.6731C6.95758 22.6582 6.89982 22.652 6.84777 22.6256C6.75798 22.5805 6.70193 22.5147 6.60241 22.4872C6.46629 22.4495 6.39251 22.4152 6.28327 22.3237C6.20033 22.2539 6.12427 22.2327 6.0236 22.1955C5.8646 22.1378 5.75536 22.0508 5.61867 21.9553C5.49284 21.8667 5.35844 21.7946 5.23547 21.7002C4.9535 21.484 4.5806 21.4108 4.27175 21.2353C4.16365 21.1735 4.08873 21.0723 4.02753 20.9676C3.95032 20.8372 3.85766 20.7754 3.74613 20.6793C3.70152 20.6404 3.69352 20.6055 3.65748 20.5655C3.62946 20.5341 3.58427 20.5049 3.55911 20.4751C3.51793 20.426 3.49791 20.363 3.45559 20.3116C3.39782 20.2412 3.33948 20.192 3.29201 20.1102C3.23253 20.0067 3.15875 19.9003 3.07753 19.8123C2.91224 19.6327 2.77498 19.4474 2.644 19.2489C2.57423 19.1437 2.48958 19.039 2.44154 18.9223C2.40264 18.8285 2.3689 18.7244 2.30885 18.6409C2.24708 18.5551 2.20246 18.5191 2.16586 18.415C2.12239 18.292 2.04404 18.2063 2.00286 18.0799C1.96968 17.9775 1.93994 17.8871 1.92107 17.7796C1.8879 17.5868 1.83585 17.4925 1.73633 17.3278C1.61279 17.1241 1.47267 16.8719 1.44979 16.6306C1.44064 16.5287 1.38859 16.4778 1.36514 16.3852C1.34455 16.3034 1.37429 16.2079 1.40918 16.1387C1.44235 16.0729 1.43778 16.0397 1.45722 15.9682C1.48182 15.8756 1.531 15.8447 1.53272 15.7423C1.53444 15.6016 1.49554 15.4186 1.52872 15.2819C1.55445 15.1784 1.69973 15.0377 1.78552 14.9868C1.9674 14.8787 2.02402 14.7992 2.0223 14.5882C2.02059 14.3834 2.02745 14.1786 2.02459 13.9739C2.01944 13.6587 1.82784 13.2961 1.58362 13.0914C1.37544 12.9158 1.12207 12.7619 1.12321 12.4697C1.12378 12.3879 1.12779 12.369 1.16382 12.2992C1.21529 12.1992 1.20386 12.1151 1.20386 12.0024C1.20386 11.7548 1.35714 11.5506 1.50012 11.3555C1.57676 11.2503 1.67742 11.1691 1.73805 11.0513C1.80039 10.9317 1.85186 10.8151 1.9205 10.699C1.98456 10.5897 2.0326 10.481 2.10409 10.3758C2.17616 10.2694 2.26767 10.1499 2.32257 10.0344C2.47757 9.71064 2.31685 9.32515 2.41237 8.99171C2.45412 8.84415 2.55078 8.71374 2.61197 8.57476C2.67374 8.43578 2.72122 8.30366 2.799 8.17269C2.96715 7.88958 3.01519 7.5058 3.24626 7.2673C3.3595 7.15006 3.47103 7.06198 3.53852 6.9087C3.59285 6.78516 3.64604 6.67992 3.72898 6.57182C3.82163 6.45114 3.91371 6.33218 3.98578 6.1972C4.0933 5.99359 4.16022 5.81343 4.36154 5.68303C4.43761 5.63384 4.49766 5.60696 4.56859 5.54233C4.63607 5.47941 4.68698 5.39248 4.77048 5.3473C4.84369 5.30669 4.93062 5.3147 5.00841 5.29754C5.09477 5.27866 5.15311 5.24092 5.22403 5.18658C5.34986 5.0905 5.45281 4.97725 5.53974 4.8457C5.62496 4.71587 5.6833 4.56202 5.78796 4.44878C5.96527 4.25603 6.20834 4.09017 6.45599 4.01124C6.78028 3.90829 7.10229 3.80763 7.41285 3.66865C7.51866 3.62175 7.60445 3.54454 7.71255 3.50221C7.85896 3.44559 8.00367 3.47991 8.15466 3.45646C8.33082 3.429 8.50983 3.40555 8.68599 3.3741C8.96681 3.32434 9.22533 3.19337 9.50272 3.14418C9.75209 3.10014 9.99574 3.06925 10.244 3.01149C10.4716 2.9583 10.7072 3.00119 10.9303 2.9257C11.0327 2.89138 11.1133 2.83247 11.222 2.81474C11.3272 2.79815 11.4387 2.81874 11.5446 2.8033C11.6378 2.79015 11.707 2.75354 11.7939 2.72609C11.9529 2.67576 12.093 2.69292 12.2578 2.68948C12.6147 2.68148 12.9401 2.48645 13.3016 2.47958C13.5624 2.47501 13.8266 2.47443 14.0868 2.48015C14.4186 2.48759 14.6639 2.56309 14.9436 2.74325C15.1872 2.89996 15.4566 2.96631 15.718 3.08069C15.9073 3.16363 16.0646 3.29975 16.2573 3.37696C16.4341 3.44674 16.6331 3.46161 16.8207 3.48448C17.1141 3.51994 17.3784 3.56684 17.6603 3.65893C17.8445 3.71898 17.9852 3.80477 18.1591 3.88256C18.2649 3.93003 18.3741 3.96263 18.4765 4.01696C18.5451 4.05299 18.6263 4.12735 18.7064 4.15366C18.8854 4.21199 19.069 4.26919 19.2497 4.32638C19.4974 4.40474 19.7399 4.41846 19.9761 4.538C20.1345 4.6175 20.3061 4.6604 20.464 4.73818C20.6481 4.82912 20.8214 4.95552 20.9976 5.06133C21.1646 5.16199 21.3413 5.23462 21.5055 5.34158C21.7131 5.47656 21.919 5.62412 22.0992 5.7957C22.3325 6.01761 22.5413 6.25096 22.8009 6.44542C23.175 6.7251 23.5719 6.98934 23.8956 7.32736C23.9511 7.38455 24.0209 7.44346 24.0603 7.51324C24.0958 7.57558 24.0975 7.62591 24.1095 7.69683C24.1347 7.8421 24.2028 7.93304 24.2628 8.06688C24.3234 8.20014 24.4064 8.36143 24.4516 8.49927C24.4939 8.63081 24.4819 8.79725 24.5042 8.93566C24.5208 9.03861 24.519 9.13298 24.5431 9.23535C24.5768 9.37834 24.5974 9.5219 24.5963 9.66889C24.5945 9.8256 24.5957 9.98288 24.594 10.1396C24.5923 10.3283 24.63 10.5039 24.634 10.6909C24.6369 10.8334 24.7135 10.9151 24.7524 11.0398C24.7861 11.1479 24.7587 11.3098 24.7587 11.4202C24.7587 11.7365 24.7524 12.043 24.8182 12.3547C24.8519 12.5154 24.9371 12.6487 24.9806 12.806C25.0235 12.9598 25.0773 13.0817 25.1413 13.2298C25.3301 13.665 25.5342 14.1346 25.612 14.6065C25.6338 14.7397 25.6057 14.857 25.5851 14.9879C25.5651 15.1206 25.5811 15.255 25.5777 15.3894C25.5748 15.525 25.5537 15.6583 25.5171 15.7904C25.4776 15.9322 25.3781 16.0489 25.3003 16.1741C25.2368 16.2765 25.127 16.3577 25.0818 16.4698C25.0298 16.598 25.1013 16.8244 25.0006 16.9211C24.9509 16.9691 24.8862 16.9903 24.8388 17.0464C24.7873 17.1076 24.7558 17.1836 24.7078 17.2471C24.6003 17.3889 24.4807 17.5159 24.3795 17.6635C24.2199 17.8957 24.1387 18.1891 24.145 18.4716C24.1484 18.606 24.1433 18.6947 24.0684 18.8068C23.9694 18.9544 23.8356 19.0773 23.6966 19.186C23.5994 19.2615 23.509 19.3416 23.4284 19.4359C23.3317 19.5486 23.2837 19.6796 23.2013 19.8008C23.0228 20.0662 22.8341 20.3487 22.5859 20.5535C22.424 20.6873 22.2828 20.828 22.1398 20.9825C22.0294 21.1008 21.8881 21.1506 21.7634 21.2501C21.5106 21.452 21.2819 21.6774 21.0554 21.9067C20.9513 22.0125 20.8695 22.1315 20.7517 22.2247C20.6264 22.3242 20.5012 22.4266 20.373 22.5221C20.1265 22.7063 19.8509 22.9025 19.5494 22.9808C19.4133 23.0169 19.2583 23.0477 19.1176 23.0535C18.9523 23.0609 18.787 23.0374 18.6218 23.0609C18.5011 23.078 18.3747 23.0906 18.2569 23.1221C18.1287 23.1564 17.9972 23.161 17.8702 23.1936C17.6758 23.2439 17.4727 23.316 17.292 23.3989C16.9786 23.5436 16.7109 23.4755 16.3757 23.4607" fill="black"/>
    <path d="M26.9286 16.3365C26.9223 16.3668 26.9252 16.396 26.9366 16.424C26.9887 16.4115 27.0127 16.3045 27.0361 16.2473C27.0893 16.1181 27.1523 16.014 27.1763 15.8715C27.2197 15.6102 27.3215 15.3328 27.3244 15.0685C27.3255 14.961 27.3341 14.8809 27.3541 14.778C27.381 14.6344 27.3627 14.4749 27.3627 14.3285C27.3627 14.0379 27.4474 13.7628 27.4434 13.4723C27.4405 13.2458 27.3684 13.0547 27.2941 12.8608C27.2226 12.6784 27.2649 12.4222 27.1768 12.2637C27.1654 12.242 27.1391 12.2432 27.1259 12.226C27.0768 12.1625 27.0665 12.075 27.055 11.9932C27.0327 11.8308 27.0579 11.6672 27.0487 11.5042C27.0361 11.2703 26.987 11.0324 26.904 10.819C26.856 10.6961 26.8022 10.6011 26.7387 10.4861C26.6518 10.3266 26.6169 10.1681 26.5649 9.99371C26.4716 9.68086 26.2749 9.44178 26.1805 9.13236C26.1045 8.88185 25.9815 8.66452 25.9106 8.41C25.8488 8.18923 25.811 7.91241 25.6566 7.74769C25.5388 7.62244 25.3844 7.611 25.2494 7.5172C25.0801 7.39938 25.0052 7.19463 24.8387 7.08081C24.6895 6.97843 24.6277 6.82229 24.5139 6.68274C24.3646 6.49972 24.2908 6.26122 24.169 6.05303C24.0449 5.84141 23.8979 5.69557 23.7429 5.52113C23.5645 5.32037 23.4398 5.09617 23.2299 4.93374C23.1155 4.84509 23.0051 4.76959 22.9033 4.6615C22.8307 4.58429 22.7666 4.49163 22.6722 4.44645C22.4846 4.35723 22.3205 4.30747 22.1523 4.16906C22.0145 4.05581 21.8549 4.00148 21.7211 3.87794C21.6536 3.81617 21.573 3.70979 21.4917 3.65946C21.3814 3.59082 21.251 3.61084 21.1331 3.56451C20.8889 3.46843 20.6659 3.27511 20.4274 3.15844C20.2489 3.0715 20.1019 2.93309 19.9778 2.76666C19.8892 2.64769 19.7479 2.55046 19.6261 2.48069C19.4248 2.36515 19.268 2.21016 19.0816 2.06603C18.9489 1.96365 18.8053 1.94992 18.6624 1.88129C18.4839 1.79436 18.3169 1.67654 18.1322 1.60504C17.8982 1.51468 17.6494 1.4735 17.4292 1.33852C17.1982 1.19668 17.0066 0.977052 16.7578 0.873531C16.6829 0.842646 16.6028 0.820912 16.5279 0.786595C16.4203 0.73798 16.3351 0.646469 16.2236 0.608721C16.0114 0.536085 15.7855 0.556103 15.5676 0.556103C15.0917 0.557247 14.6159 0.556103 14.1394 0.556103C13.9192 0.556103 13.6985 0.55839 13.4783 0.556675C13.3788 0.556103 13.2484 0.525218 13.1534 0.573261C13.0602 0.62016 12.987 0.701948 12.8875 0.743128C12.8131 0.774584 12.7531 0.767149 12.6798 0.786595C12.5963 0.808329 12.5775 0.842646 12.5157 0.911279C12.3859 1.05484 12.196 1.01308 12.0313 1.01194C11.8374 1.01137 11.6441 1.01251 11.4502 1.01251C11.2632 1.01251 11.0395 0.973619 10.8582 1.01823C10.7696 1.03939 10.7015 1.11546 10.618 1.15321C10.5431 1.18695 10.4659 1.1881 10.3927 1.2247C10.2462 1.29848 10.0947 1.41687 9.95626 1.5141C9.62339 1.74631 9.20016 1.94706 8.80037 1.86871C8.72659 1.85441 8.65681 1.81895 8.58074 1.83382C8.51154 1.84755 8.45034 1.89387 8.38057 1.91446C8.22786 1.95908 8.08144 1.97795 7.93674 2.05688C7.76058 2.15239 7.61416 2.29195 7.43229 2.3806C7.22982 2.47954 7.04108 2.60537 6.86092 2.75121C6.76826 2.82671 6.70535 2.89649 6.59211 2.93423C6.45084 2.98228 6.29584 2.97484 6.15057 2.97541C5.95554 2.97656 5.75364 2.9411 5.56604 3.01659C5.45451 3.06178 5.36987 3.10067 5.2509 3.11039C5.17655 3.11611 5.12164 3.12469 5.05301 3.15272C4.87742 3.22306 4.74817 3.3609 4.61891 3.50961C4.5274 3.6137 4.46334 3.72809 4.39356 3.85106C4.31921 3.9826 4.26316 4.05467 4.1665 4.15819C4.06584 4.26514 3.98119 4.38239 3.86966 4.47962C3.75127 4.58257 3.6672 4.70325 3.56139 4.82107C3.451 4.94404 3.31603 5.02411 3.21994 5.16252C3.08897 5.3524 2.86877 5.33868 2.7418 5.52627C2.64399 5.67212 2.5073 5.78879 2.42036 5.93807C2.33171 6.08964 2.19845 6.13596 2.08349 6.2555C1.98169 6.36131 1.88617 6.49514 1.80038 6.61868C1.68599 6.78512 1.51784 6.92982 1.43205 7.12027C1.35999 7.27927 1.32796 7.56582 1.14894 7.62129C1.18554 7.60986 0.987653 7.62015 0.991656 7.61615C0.920736 7.6802 0.964774 7.84721 0.961343 7.93815C0.955623 8.1063 0.857822 8.2796 0.8012 8.43688C0.759448 8.55356 0.742288 8.64335 0.716551 8.76575C0.68967 8.89215 0.617606 8.97622 0.563272 9.08718C0.383682 9.45437 0.211528 9.88046 0.17378 10.3071C0.161197 10.4513 0.196085 10.6085 0.164056 10.7492C0.143466 10.8402 0.0971407 10.9014 0.0891335 10.9969C0.0799824 11.1004 0.0919916 11.2114 0.0919916 11.3149V11.7959C0.0919916 11.8457 0.0914194 11.8948 0.0925632 11.944C0.0931352 11.8336 0.0388026 11.7118 0.0216444 11.6026C0.00277031 11.4825 0.0388022 11.431 0.0542446 11.3195C0.0611079 11.2714 0.0502394 11.2325 0.0611063 11.1828C0.0731171 11.129 0.0937087 11.1061 0.0937087 11.0461C0.0937087 10.986 0.073689 10.9631 0.0611063 10.9088C0.04452 10.835 0.0645395 10.7664 0.0542446 10.692C0.0205 10.4433 -0.0281161 10.151 0.0204989 9.89476C0.0325097 9.83242 0.0702579 9.78152 0.0839845 9.72204C0.0948513 9.67456 0.0816979 9.63338 0.0897051 9.58763C0.111439 9.45837 0.179498 9.35256 0.220106 9.23417C0.254994 9.13065 0.268151 9.00882 0.31219 8.90645C0.335068 8.85326 0.381966 8.81608 0.401984 8.7646C0.416282 8.72743 0.411136 8.66051 0.416283 8.62105C0.435157 8.46434 0.4832 8.32421 0.484344 8.16464C0.486632 7.94616 0.617034 7.72768 0.723415 7.55323C0.771458 7.47488 0.821789 7.46401 0.874407 7.39881C0.919591 7.34276 0.925883 7.289 0.967635 7.2278C1.05057 7.10483 1.12149 6.98873 1.19756 6.8589C1.23702 6.79255 1.24903 6.77539 1.27362 6.70676C1.30851 6.6101 1.3331 6.52889 1.39545 6.44538C1.49325 6.31384 1.59219 6.18973 1.67455 6.03702C1.73461 5.92549 1.81525 5.82997 1.86787 5.7133C1.95766 5.51426 2.04918 5.3301 2.17557 5.15737C2.25221 5.05213 2.3523 4.99666 2.43123 4.8897C2.48442 4.81707 2.54047 4.75129 2.57994 4.66665C2.65257 4.50993 2.62055 4.29831 2.74294 4.17363C2.82587 4.08898 2.88021 4.09985 2.93511 3.98375C2.99002 3.86822 2.99631 3.72695 3.05865 3.61542C3.12328 3.50046 3.17132 3.51704 3.26112 3.46442C3.32232 3.42782 3.36006 3.38321 3.41554 3.33745C3.54938 3.2265 3.70723 3.24194 3.84336 3.14814C3.91428 3.09838 3.9709 3.01145 4.04639 2.96912C4.16536 2.90278 4.28032 2.96798 4.39871 2.92337C4.49594 2.88619 4.48679 2.79754 4.54913 2.72948C4.62234 2.64941 4.65265 2.66256 4.75103 2.64312C4.91117 2.61109 4.97523 2.42635 5.14338 2.42178C5.20915 2.42006 5.31096 2.45609 5.3733 2.42178C5.44365 2.38288 5.46481 2.28279 5.53744 2.23761C5.58949 2.20558 5.61294 2.20615 5.66442 2.19815C5.81026 2.17584 5.87947 2.11636 6.00072 2.02485C6.21634 1.86242 6.4474 1.98367 6.6779 1.88358C6.86778 1.80065 7.02392 1.67368 7.22696 1.61648C7.31904 1.59074 7.36022 1.55185 7.44144 1.51182C7.53123 1.46721 7.585 1.46606 7.68509 1.46721C7.79604 1.46949 7.92015 1.48494 8.03054 1.47178C8.13692 1.45863 8.21127 1.37283 8.31079 1.32937C8.38457 1.29677 8.46807 1.28762 8.53842 1.24472C8.63508 1.18638 8.6631 1.10517 8.74146 1.02052C8.83126 0.923861 8.89932 0.93244 9.00341 0.888401C9.08691 0.85294 9.13152 0.808329 9.20473 0.748847C9.37002 0.615013 9.5479 0.6968 9.71662 0.606434C9.82415 0.548667 9.90879 0.481179 10.0272 0.44915C10.1667 0.411974 10.3063 0.444574 10.4436 0.411973C10.5088 0.396531 10.5642 0.353636 10.6272 0.335906C10.733 0.306737 10.8691 0.321035 10.9755 0.326182C11.0876 0.33133 11.1922 0.371366 11.3032 0.378229C11.4061 0.385092 11.4496 0.341053 11.5428 0.302733C11.6544 0.258121 11.779 0.280999 11.894 0.285002C12.0261 0.289578 12.0805 0.268988 12.1971 0.201499C12.3933 0.0876826 12.665 0.148309 12.8812 0.147165C13.0539 0.146021 13.2175 0.100838 13.3931 0.10141C13.5921 0.102554 13.7768 0.015046 13.9747 0.00703882C14.1829 -0.00211224 14.3991 -0.00268418 14.6067 0.00703882C14.8795 0.0190496 15.1095 0.173474 15.372 0.230097C15.5945 0.27814 15.8633 0.247826 16.0835 0.201499C16.2562 0.165467 16.4181 0.226665 16.5891 0.234672C16.8081 0.244967 17.0621 0.436567 17.2531 0.548096C17.4418 0.659053 17.6718 0.663056 17.8731 0.739696C18.0978 0.826059 18.3295 0.826631 18.5457 0.95303C18.6521 1.01594 18.7413 1.10173 18.8545 1.15035C18.9849 1.2064 19.1039 1.24129 19.2269 1.32079C19.435 1.45519 19.5786 1.67539 19.824 1.69655C20.0699 1.71714 20.2312 1.8893 20.4554 1.97452C20.6842 2.06145 20.9387 2.02885 21.1606 2.14953C21.4774 2.32169 21.7343 2.68201 21.9762 2.96226C22.0969 3.10239 22.2078 3.25052 22.3474 3.36891C22.5281 3.52219 22.6614 3.73495 22.8507 3.87393C23.1973 4.12845 23.5462 4.37152 23.887 4.63347C24.0998 4.79762 24.2931 5.04355 24.463 5.2649C24.5791 5.41646 24.7043 5.55659 24.8279 5.69957C24.9325 5.82082 25.0321 5.9598 25.1487 6.06333C25.3375 6.2309 25.556 6.34415 25.7356 6.5266C25.9369 6.73078 26.0816 7.05622 26.2297 7.31531C26.2949 7.42912 26.3395 7.52292 26.3395 7.6619C26.3401 7.81633 26.3418 7.90498 26.4236 8.03595C26.4796 8.12632 26.5334 8.20467 26.5746 8.30648C26.6432 8.47635 26.6678 8.63477 26.7788 8.77948C26.8577 8.88242 26.9395 8.97394 27.0007 9.09404C27.0813 9.25304 27.0951 9.40918 27.1265 9.58363C27.1711 9.82556 27.2077 10.0589 27.2764 10.298C27.3364 10.5107 27.3015 10.7041 27.3204 10.9191C27.3296 11.0198 27.361 11.0936 27.4022 11.1816C27.4651 11.3172 27.4737 11.4138 27.4811 11.5625C27.4897 11.7261 27.5212 11.8783 27.5206 12.0447C27.5194 12.2889 27.5223 12.5326 27.52 12.7768C27.5189 12.8763 27.5377 12.9489 27.5515 13.045C27.5801 13.2486 27.5543 13.4425 27.5297 13.6433C27.4868 13.9853 27.5417 14.3416 27.5223 14.6853C27.5183 14.7648 27.4914 14.8106 27.4788 14.8844C27.4611 14.9919 27.476 15.096 27.4525 15.2058C27.4302 15.3076 27.4119 15.4071 27.3942 15.5107C27.3644 15.6902 27.3095 15.8172 27.2432 15.9711C27.2037 16.0637 27.1877 16.1552 27.1351 16.241C27.1019 16.2942 27.067 16.3337 27.0384 16.3892C26.9852 16.4892 26.9584 16.7106 26.9286 16.3365Z" fill="black"/>
  </g>
  <defs>
    <clipPath id="clip0_9_209">
      <rect width="27.5641" height="24" fill="white"/>
    </clipPath>
  </defs>
</svg>
