<svg width="17" height="24" viewBox="0 0 17 24" fill="none" xmlns="http://www.w3.org/2000/svg">
  <g clip-path="url(#clip0_9_241)">
    <path d="M12.4951 11.3045C11.7697 11.5147 11.1119 11.4722 10.3774 11.3693C10.1519 11.3377 9.98204 11.2958 9.902 11.1967C9.82467 11.1003 9.8323 10.95 9.95754 10.7028C10.0871 10.4469 10.3104 10.2476 10.5364 10.0777C10.9627 9.7575 11.4703 9.5386 11.9696 9.3589C12.7744 9.0703 14.188 8.84323 14.9787 9.28158C14.6618 10.3015 13.4594 11.0246 12.4951 11.3045ZM9.79745 15.401C9.29539 15.3243 8.65338 15.4397 8.33211 15.8361C7.95474 15.3695 7.23051 15.2273 6.70449 15.5165L6.56945 15.4996C6.56945 15.4996 7.94494 14.7776 8.2575 12.9065C8.29726 12.6669 8.34082 12.6675 8.3773 12.9049C8.66808 14.7863 9.96462 15.3902 9.96462 15.3902C9.87804 15.358 9.88784 15.4152 9.79745 15.401M4.03846 11.3045C3.07463 11.0246 1.87176 10.3015 1.55538 9.28158C2.3455 8.84323 3.75966 9.0703 4.56393 9.3589C5.06327 9.5386 5.57078 9.7575 5.99769 10.0777C6.22367 10.2476 6.44639 10.4469 6.57653 10.7028C6.70177 10.95 6.7094 11.1003 6.63153 11.1967C6.55203 11.2958 6.38159 11.3377 6.15615 11.3693C5.42157 11.4722 4.76378 11.5147 4.03846 11.3045ZM16.4435 4.95362C16.248 5.09411 16.0977 5.29995 16.0204 5.53301C15.9953 4.91496 15.747 4.30944 15.3364 3.8602C15.2662 4.00178 15.196 4.14336 15.1257 4.28439C14.983 4.22994 14.8175 4.26206 14.695 4.35463C14.6906 4.34919 14.6857 4.34374 14.6814 4.33776C14.6351 4.69606 14.6062 5.01788 14.616 5.20574C14.628 5.41811 14.8072 7.14591 15.1339 7.16879C12.5898 6.99072 10.2614 8.25186 9.24965 9.89635C9.1843 9.05832 10.3698 8.01771 11.3238 7.50966C12.2778 7.00161 13.167 6.8938 14.3029 6.62534C14.0709 5.82542 14.0813 4.4679 14.4407 3.42512C14.365 3.07552 14.2016 2.74118 14.182 2.43134C14.108 2.55931 13.8776 2.99385 13.8041 3.12181C13.4959 2.63445 13.5128 2.03057 13.2335 1.49311C13.2095 1.5394 13.1861 1.58568 13.1627 1.63251C13.0505 1.85577 12.9459 2.08883 12.8071 2.29412C12.4417 1.73053 12.4564 1.26386 12.0268 0.59463C11.9244 0.999763 11.8215 1.4049 11.7186 1.81003C11.5095 1.4697 11.2639 1.131 11.0989 0.767248C11.0063 0.821157 10.9246 0.891946 10.8397 0.961646C10.6867 0.896302 10.6039 1.22847 10.5516 1.43866C10.4977 1.42178 10.4433 1.40816 10.3894 1.39237C10.1911 1.11956 9.87423 0.621312 9.78111 0.497703C9.64661 0.64037 9.59488 0.955113 9.5034 1.18654C9.36999 1.16421 9.23658 1.14406 9.10208 1.12827C8.96758 0.687201 8.66318 0.283702 8.24171 5.2391e-08C7.97108 0.486269 7.68574 0.72913 7.38625 1.12501C7.27789 1.13699 7.16953 1.15332 7.06116 1.16966C6.8733 0.977437 6.57707 0.75309 6.57707 0.75309C6.57707 0.75309 6.28357 1.13916 6.12021 1.37658C6.05269 1.39564 5.98408 1.41089 5.91764 1.43158C5.6127 1.30307 5.3987 1.13154 5.2642 0.856006C5.11827 1.23555 4.76704 1.5345 4.64997 1.95433C4.4572 2.05235 4.2688 2.15799 4.0842 2.2707C3.87837 2.11497 3.65728 1.82854 3.46561 1.67662C3.42041 2.13076 3.25978 2.54733 3.28101 2.82558C3.26195 2.84083 3.24344 2.85553 3.22492 2.87078C3.07463 2.69054 2.86172 2.45694 2.76643 2.32244C2.63029 2.66386 2.24368 3.3467 2.18813 3.75619C2.44189 4.74125 2.42228 5.90764 2.21427 6.62534C3.34962 6.8938 4.23939 7.00161 5.19341 7.50966C6.14744 8.01771 7.34977 9.05832 7.28442 9.89635C6.27268 8.25186 3.94371 6.99072 1.39965 7.16879C1.72637 7.14591 1.90552 5.41811 1.9175 5.20574C1.92893 5.00154 1.89354 4.64051 1.84018 4.24518C1.82874 4.25934 1.81567 4.27296 1.80424 4.2882C1.7977 3.95005 1.72419 3.62442 1.54449 3.33908C1.52271 3.4567 1.50039 3.57432 1.4786 3.69194C1.15896 4.2185 0.839868 4.74507 0.520226 5.27163C0.46904 5.22371 0.417853 5.17525 0.366667 5.12678C0.166279 6.13308 0.0867771 7.16497 0.127617 8.19196C0.0127206 8.94342 -0.0199518 9.70849 0.0110866 10.4692C0.0519266 11.4652 0.660716 14.5227 1.29564 14.9344C2.46149 15.6913 3.07572 17.4425 3.43784 18.6966C3.81792 20.0122 4.59987 21.1137 5.0698 22.395C5.25386 22.8971 5.45533 23.4536 5.97046 23.74C6.60757 24.0945 7.48917 23.9981 8.18944 23.954C8.20087 23.9535 8.2134 23.9529 8.22483 23.9524C8.23681 23.9529 8.24879 23.9535 8.26077 23.954C8.9605 23.9981 9.8421 24.0945 10.4792 23.74C10.9943 23.4536 11.1964 22.8971 11.3804 22.395C11.8498 21.1137 12.6317 20.0122 13.0118 18.6966C13.3745 17.4425 13.9882 15.6913 15.1546 14.9344C15.7895 14.5227 16.3983 11.4652 16.4386 10.4692C16.45 10.1899 16.4527 9.90942 16.4462 9.62953C16.5638 8.07435 16.5633 6.50881 16.4435 4.95362" fill="black"/>
  </g>
  <defs>
    <clipPath id="clip0_9_241">
      <rect width="16.5339" height="24" fill="white"/>
    </clipPath>
  </defs>
</svg>
