<?xml version="1.0" encoding="UTF-8" standalone="no"?>
<!-- Created with Inkscape (http://www.inkscape.org/) -->

<svg
   width="16.998501"
   height="24"
   viewBox="0 0 4.4975199 6.35"
   version="1.1"
   id="svg223956"
   inkscape:version="1.2.1 (9c6d41e4, 2022-07-14)"
   sodipodi:docname="the-innsmouth-conspiracy.svg"
   xmlns:inkscape="http://www.inkscape.org/namespaces/inkscape"
   xmlns:sodipodi="http://sodipodi.sourceforge.net/DTD/sodipodi-0.dtd"
   xmlns="http://www.w3.org/2000/svg"
   xmlns:svg="http://www.w3.org/2000/svg">
  <sodipodi:namedview
     id="namedview223958"
     pagecolor="#505050"
     bordercolor="#eeeeee"
     borderopacity="1"
     inkscape:showpageshadow="0"
     inkscape:pageopacity="0"
     inkscape:pagecheckerboard="0"
     inkscape:deskcolor="#505050"
     inkscape:document-units="mm"
     showgrid="false"
     inkscape:zoom="0.2102413"
     inkscape:cx="263.98238"
     inkscape:cy="142.69318"
     inkscape:window-width="1309"
     inkscape:window-height="456"
     inkscape:window-x="0"
     inkscape:window-y="25"
     inkscape:window-maximized="0"
     inkscape:current-layer="layer1" />
  <defs
     id="defs223953">
    <clipPath
       clipPathUnits="userSpaceOnUse"
       id="clipPath169547">
      <path
         d="m 120.348,406.296 h 56.304 V 462.6 h -56.304 z"
         id="path169545" />
    </clipPath>
  </defs>
  <g
     inkscape:label="Layer 1"
     inkscape:groupmode="layer"
     id="layer1"
     transform="translate(-35.114574,-110.49769)">
    <g
       id="g169541"
       transform="matrix(0.12366356,0,0,-0.12366356,18.999234,167.39171)">
      <g
         id="g169543"
         clip-path="url(#clipPath169547)">
        <g
           id="g169549"
           transform="translate(132.842,445.235)">
          <path
             d="m 0,0 c -0.089,-0.13 -0.194,-0.255 -0.301,-0.376 -0.1,-0.123 -0.211,-0.241 -0.333,-0.353 -0.486,-0.45 -1.141,-0.83 -1.892,-1.095 0.693,-0.392 1.272,-0.88 1.672,-1.408 0.1,-0.132 0.189,-0.267 0.266,-0.406 0.085,-0.138 0.166,-0.279 0.231,-0.423 0.13,-0.287 0.21,-0.586 0.23,-0.902 0.007,-0.316 0.019,-0.621 -0.051,-0.927 -0.063,-0.307 -0.18,-0.611 -0.341,-0.913 -0.301,-0.597 -0.744,-1.181 -1.346,-1.7 0.387,-0.06 0.746,-0.156 1.09,-0.277 0.353,-0.118 0.678,-0.263 0.967,-0.435 0.289,-0.173 0.541,-0.372 0.749,-0.6 0.216,-0.202 0.39,-0.433 0.526,-0.692 0.522,0.695 1.096,1.349 1.712,1.959 -0.5,1.216 -0.825,2.502 -0.954,3.811 -0.015,0.415 -0.067,0.829 -0.066,1.246 L 2.204,-2.24 2.378,-1 c 0.072,0.41 0.195,0.809 0.283,1.215 0.45,1.601 1.196,3.114 2.195,4.445 0.998,1.331 2.245,2.478 3.656,3.361 1.411,0.885 2.982,1.505 4.613,1.819 1.627,0.308 3.328,0.344 4.97,0.027 1.639,-0.304 3.213,-0.906 4.629,-1.777 1.416,-0.87 2.672,-2.006 3.682,-3.331 1.011,-1.324 1.774,-2.834 2.237,-4.429 0.465,-1.594 0.629,-3.272 0.493,-4.94 -0.128,-1.358 -0.458,-2.687 -0.973,-3.939 0.619,-0.611 1.192,-1.267 1.716,-1.963 0.011,0.026 0.016,0.054 0.029,0.079 0.134,0.286 0.317,0.536 0.545,0.757 0.231,0.22 0.457,0.432 0.748,0.605 0.563,0.353 1.305,0.598 2.054,0.733 -0.605,0.512 -1.078,1.096 -1.366,1.686 -0.317,0.599 -0.49,1.212 -0.4,1.835 0.02,0.629 0.297,1.203 0.714,1.736 0.387,0.531 0.954,1.024 1.64,1.422 -0.714,0.264 -1.402,0.635 -1.895,1.081 -0.256,0.221 -0.441,0.469 -0.63,0.725 -0.186,0.258 -0.323,0.537 -0.406,0.841 -0.041,0.153 -0.067,0.307 -0.079,0.463 -0.023,0.153 -0.037,0.305 -0.035,0.461 0.003,0.312 0.059,0.631 0.159,0.957 0.109,0.329 0.23,0.649 0.395,0.97 0.166,0.321 0.373,0.641 0.617,0.949 -0.39,-0.012 -0.768,0.013 -1.121,0.071 -0.355,0.059 -0.715,0.134 -1.029,0.251 -0.317,0.115 -0.603,0.263 -0.851,0.448 -0.251,0.183 -0.497,0.381 -0.684,0.635 -0.196,0.246 -0.315,0.541 -0.432,0.826 -0.113,0.288 -0.179,0.604 -0.206,0.941 -0.039,0.685 0.027,1.408 0.258,2.158 -1.451,-0.593 -2.88,-0.657 -3.943,-0.015 -0.271,0.162 -0.503,0.37 -0.701,0.618 -0.205,0.237 -0.387,0.494 -0.534,0.797 -0.295,0.605 -0.476,1.349 -0.54,2.111 -0.567,-0.554 -1.19,-0.963 -1.805,-1.198 -0.631,-0.281 -1.249,-0.357 -1.866,-0.239 -0.625,0.076 -1.168,0.433 -1.664,0.87 -0.492,0.439 -0.93,1.052 -1.263,1.774 -0.327,-0.699 -0.761,-1.345 -1.25,-1.79 -0.494,-0.428 -1.034,-0.786 -1.656,-0.885 -0.314,-0.04 -0.62,-0.061 -0.93,-0.031 -0.31,0.033 -0.624,0.119 -0.939,0.251 -0.627,0.257 -1.244,0.63 -1.817,1.184 C 8.971,13.175 8.911,12.802 8.82,12.456 8.734,12.097 8.621,11.755 8.476,11.452 8.333,11.147 8.158,10.877 7.95,10.648 7.75,10.406 7.526,10.188 7.257,10.024 6.708,9.711 6.117,9.539 5.438,9.551 4.751,9.576 4.042,9.702 3.314,10.005 3.56,9.25 3.618,8.54 3.588,7.851 3.548,7.169 3.32,6.6 2.966,6.077 2.779,5.823 2.55,5.613 2.283,5.439 2.038,5.251 1.756,5.099 1.442,4.979 1.127,4.861 0.781,4.774 0.413,4.72 0.054,4.661 -0.317,4.628 -0.708,4.637 -0.206,4.021 0.127,3.369 0.319,2.728 0.425,2.403 0.487,2.083 0.497,1.77 0.511,1.456 0.447,1.158 0.385,0.848 0.31,0.541 0.179,0.26 0,0"
             style="fill:#231f20;fill-opacity:1;fill-rule:nonzero;stroke:none"
             id="path169551" />
        </g>
        <g
           id="g169553"
           transform="translate(148.513,435.497)">
          <path
             d="M 0,0 C -4.548,0 -8.682,-1.764 -11.762,-4.641 -9.423,-0.568 -5.034,2.177 0,2.177 5.034,2.177 9.423,-0.568 11.762,-4.641 8.682,-1.764 4.548,0 0,0 m 0,3.902 c -8.471,0 -15.339,-6.867 -15.339,-15.339 0,-8.471 6.868,-15.338 15.339,-15.338 8.471,0 15.339,6.867 15.339,15.338 C 15.339,-2.965 8.471,3.902 0,3.902"
             style="fill:#231f20;fill-opacity:1;fill-rule:nonzero;stroke:none"
             id="path169555" />
        </g>
      </g>
    </g>
  </g>
</svg>
