<?xml version="1.0" encoding="UTF-8" standalone="no"?>
<!-- Created with Inkscape (http://www.inkscape.org/) -->

<svg
   width="25.64299"
   height="24"
   viewBox="0 0 6.7847076 6.35"
   version="1.1"
   id="svg165382"
   inkscape:version="1.2.1 (9c6d41e4, 2022-07-14)"
   sodipodi:docname="the-dream-eaters.svg"
   xmlns:inkscape="http://www.inkscape.org/namespaces/inkscape"
   xmlns:sodipodi="http://sodipodi.sourceforge.net/DTD/sodipodi-0.dtd"
   xmlns="http://www.w3.org/2000/svg"
   xmlns:svg="http://www.w3.org/2000/svg">
  <sodipodi:namedview
     id="namedview165384"
     pagecolor="#505050"
     bordercolor="#eeeeee"
     borderopacity="1"
     inkscape:showpageshadow="0"
     inkscape:pageopacity="0"
     inkscape:pagecheckerboard="0"
     inkscape:deskcolor="#505050"
     inkscape:document-units="mm"
     showgrid="false"
     inkscape:zoom="0.2102413"
     inkscape:cx="145.0714"
     inkscape:cy="271.11704"
     inkscape:window-width="1309"
     inkscape:window-height="456"
     inkscape:window-x="0"
     inkscape:window-y="25"
     inkscape:window-maximized="0"
     inkscape:current-layer="layer1" />
  <defs
     id="defs165379">
    <clipPath
       clipPathUnits="userSpaceOnUse"
       id="clipPath113677">
      <path
         d="m 120.348,406.5 h 56.304 v 56.304 h -56.304 z"
         id="path113675" />
    </clipPath>
  </defs>
  <g
     inkscape:label="Layer 1"
     inkscape:groupmode="layer"
     id="layer1"
     transform="translate(-66.925921,-76.285135)">
    <g
       id="g113671"
       transform="matrix(0.1394395,0,0,-0.1394395,49.611579,140.06777)">
      <g
         id="g113673"
         clip-path="url(#clipPath113677)">
        <g
           id="g113679"
           transform="translate(164.114,437.002)">
          <path
             d="M 0,0 C -0.255,-0.051 -0.301,-0.132 -0.489,-0.19 -0.746,-0.269 -1.022,-0.334 -1.289,-0.389 -1.396,-0.41 -1.491,-0.42 -1.598,-0.451 -1.73,-0.489 -1.862,-0.529 -1.994,-0.566 -2.12,-0.602 -2.261,-0.603 -2.38,-0.646 -2.421,-0.66 -2.503,-0.67 -2.493,-0.709 c 0.077,0.011 0.164,-0.031 0.242,-0.034 0.135,-0.006 0.28,-0.031 0.402,-0.064 0.116,-0.031 0.21,-0.07 0.332,-0.09 0.128,-0.021 0.272,-0.06 0.383,-0.104 0.232,-0.092 0.449,-0.216 0.46,-0.414 0.005,-0.085 -0.013,-0.172 0.005,-0.255 0.007,-0.032 0.023,-0.063 0.02,-0.096 -0.005,-0.061 -0.038,-0.123 -0.054,-0.184 -0.029,-0.113 -0.013,-0.226 -0.046,-0.339 -0.033,-0.117 -0.086,-0.234 -0.112,-0.351 -0.051,-0.233 -0.184,-0.449 -0.292,-0.675 -0.066,-0.136 -0.152,-0.268 -0.217,-0.403 -0.033,-0.068 -0.056,-0.137 -0.088,-0.205 -0.038,-0.082 -0.096,-0.155 -0.141,-0.235 -0.051,-0.09 -0.076,-0.196 -0.166,-0.278 -0.052,-0.048 -0.13,-0.078 -0.172,-0.125 -0.417,-0.473 -1.101,-0.815 -1.866,-0.938 -0.418,-0.067 -0.835,-0.158 -1.255,-0.214 -0.149,-0.02 -0.289,-0.023 -0.429,-0.021 -0.029,-0.004 -0.058,-0.004 -0.087,-0.008 -0.125,-0.019 -0.252,-0.017 -0.377,-0.03 -0.373,-0.037 -0.735,-0.019 -1.087,0.041 -0.079,0.013 -0.149,0.037 -0.229,0.049 -0.079,0.011 -0.148,0.023 -0.221,0.044 -0.076,0.023 -0.161,0.031 -0.239,0.05 -0.074,0.018 -0.128,0.055 -0.192,0.084 -0.157,0.071 -0.284,0.153 -0.426,0.236 -0.079,0.047 -0.174,0.079 -0.246,0.132 -0.056,0.042 -0.117,0.087 -0.18,0.125 -0.122,0.072 -0.251,0.142 -0.366,0.22 -0.059,0.04 -0.098,0.088 -0.153,0.129 -0.059,0.044 -0.12,0.082 -0.171,0.131 -0.044,0.042 -0.125,0.094 -0.125,0.15 10e-4,0.042 0.038,0.088 0.051,0.13 0.016,0.049 0.031,0.102 0.03,0.151 0,0.002 0.001,0.003 0.001,0.005 -0.07,0.054 -0.145,0.105 -0.231,0.138 -0.266,0.1 -0.294,0.04 -0.522,-0.036 -0.334,-0.111 -0.72,-0.179 -1.056,-0.339 -0.596,-0.283 -1.082,-0.52 -1.772,-0.666 0.175,0.186 0.453,0.309 0.647,0.49 0.145,0.136 0.267,0.284 0.417,0.418 0.419,0.376 0.987,0.626 1.374,1.01 0.343,0.34 0.612,0.644 1.016,0.955 0.423,0.326 0.972,0.555 1.438,0.837 0.041,0.025 0.087,0.046 0.129,0.069 0.002,0 0.003,-10e-4 0.004,-10e-4 0.061,-0.01 0.115,-0.015 0.173,-0.032 0.042,-0.011 0.09,-0.013 0.13,-0.025 0.027,-0.009 0.046,-0.026 0.071,-0.037 0.053,-0.023 0.112,-0.036 0.161,-0.064 0.137,-0.077 0.274,-0.153 0.405,-0.235 0.11,-0.069 0.207,-0.146 0.322,-0.212 0.117,-0.068 0.23,-0.132 0.332,-0.211 0.174,-0.134 0.358,-0.263 0.531,-0.397 0.073,-0.056 0.14,-0.117 0.208,-0.176 0.032,-0.028 0.053,-0.053 0.078,-0.083 0.028,-0.035 0.067,-0.057 0.099,-0.089 0.132,-0.132 0.277,-0.264 0.384,-0.407 0.097,-0.13 0.206,-0.261 0.291,-0.394 0.075,-0.116 0.169,-0.223 0.271,-0.33 0.081,-0.086 0.16,-0.169 0.246,-0.251 0.085,-0.084 0.175,-0.171 0.277,-0.245 0.081,-0.059 0.142,-0.129 0.223,-0.187 0.05,-0.036 0.112,-0.071 0.155,-0.111 -0.025,0.044 0.036,0.123 0.043,0.167 0.003,0.028 -0.02,0.054 -0.019,0.082 0.002,0.031 0.009,0.056 0.008,0.088 0,0.032 0.012,0.059 0.008,0.092 -0.005,0.037 -0.001,0.066 0.007,0.104 0.009,0.039 -0.004,0.069 -10e-4,0.105 0.002,0.032 0.016,0.055 0.009,0.088 -0.011,0.062 -0.013,0.122 -0.009,0.185 0.005,0.091 -0.02,0.174 -0.041,0.263 -0.02,0.083 -0.04,0.167 -0.06,0.249 -0.012,0.049 -0.024,0.096 -0.034,0.144 -0.014,0.062 -0.046,0.107 -0.07,0.166 -0.024,0.058 -0.048,0.119 -0.074,0.177 -0.02,0.042 -0.063,0.078 -0.083,0.12 -0.032,0.068 -0.049,0.14 -0.079,0.208 -0.019,0.041 -0.043,0.081 -0.064,0.122 -0.017,0.036 -0.042,0.081 -0.067,0.114 -0.048,0.064 -0.086,0.141 -0.149,0.199 -0.075,0.066 -0.141,0.136 -0.21,0.206 -0.079,0.079 -0.165,0.155 -0.236,0.238 -0.087,0.102 -0.186,0.199 -0.286,0.294 -0.042,0.039 -0.068,0.083 -0.113,0.12 -0.044,0.036 -0.099,0.053 -0.153,0.081 -0.115,0.06 -0.208,0.142 -0.323,0.204 -0.128,0.07 -0.292,0.113 -0.43,0.174 -0.111,0.049 -0.235,0.079 -0.358,0.112 0.737,0.202 1.522,0.339 2.259,0.464 0.725,0.123 1.45,0.242 2.173,0.368 0.384,0.067 0.66,0.033 1.032,0.053 C -0.681,0.3 -0.31,0.505 -0.135,0.207 -0.298,0.292 0.438,0.457 0.676,0.197 0.516,0.037 0.246,0.049 0,0 m -10.904,-11.209 c -0.194,0.035 -0.398,0.057 -0.616,0.057 -1.41,0 -2.323,-0.772 -2.743,-1.77 -0.379,-0.087 -0.768,-0.132 -1.17,-0.102 -0.18,0.013 -0.351,0.046 -0.515,0.092 -0.387,1.074 -1.321,1.927 -2.805,1.927 -0.357,0 -0.679,-0.052 -0.973,-0.142 -0.15,0.358 0.063,0.818 0.653,0.809 1.369,-0.023 2.205,-0.334 3.389,-0.805 0.811,-0.322 1.054,0.037 1.813,0.293 0.718,0.242 1.511,0.277 2.274,0.294 0.499,0.011 0.728,-0.329 0.693,-0.653 m -11.516,7.281 c -0.086,-0.033 -0.161,-0.084 -0.229,-0.139 0,-0.002 0,-0.003 0,-0.005 0,-0.049 0.015,-0.102 0.031,-0.151 0.015,-0.042 0.052,-0.087 0.053,-0.13 0.001,-0.056 -0.079,-0.109 -0.122,-0.151 -0.051,-0.049 -0.112,-0.087 -0.17,-0.131 -0.055,-0.043 -0.094,-0.09 -0.152,-0.131 -0.114,-0.079 -0.242,-0.15 -0.363,-0.224 -0.063,-0.037 -0.123,-0.083 -0.179,-0.125 -0.072,-0.053 -0.165,-0.087 -0.245,-0.135 -0.14,-0.084 -0.267,-0.167 -0.422,-0.238 -0.064,-0.03 -0.117,-0.067 -0.191,-0.086 -0.079,-0.02 -0.163,-0.029 -0.239,-0.052 -0.073,-0.022 -0.141,-0.034 -0.221,-0.046 -0.08,-0.012 -0.149,-0.037 -0.228,-0.051 -0.351,-0.063 -0.713,-0.083 -1.086,-0.049 -0.126,0.012 -0.253,0.009 -0.378,0.026 -0.029,0.004 -0.057,0.005 -0.086,0.008 -0.14,-0.003 -0.281,-0.002 -0.43,0.017 -0.42,0.053 -0.839,0.141 -1.258,0.205 -0.766,0.116 -1.454,0.453 -1.876,0.922 -0.043,0.047 -0.121,0.076 -0.174,0.124 -0.09,0.081 -0.117,0.187 -0.169,0.276 -0.046,0.08 -0.104,0.153 -0.144,0.234 -0.033,0.068 -0.056,0.137 -0.09,0.204 -0.067,0.135 -0.154,0.267 -0.221,0.402 -0.111,0.225 -0.247,0.44 -0.301,0.673 -0.027,0.116 -0.081,0.233 -0.115,0.349 -0.034,0.113 -0.02,0.227 -0.05,0.339 -0.017,0.061 -0.05,0.123 -0.056,0.184 -0.003,0.033 0.012,0.064 0.018,0.096 0.018,0.083 -10e-4,0.17 0.003,0.255 0.009,0.198 0.225,0.323 0.455,0.417 0.11,0.045 0.254,0.086 0.381,0.108 0.124,0.02 0.216,0.06 0.332,0.093 0.122,0.033 0.267,0.06 0.401,0.066 0.078,0.004 0.165,0.047 0.241,0.037 0.011,0.039 -0.072,0.048 -0.113,0.062 -0.12,0.042 -0.26,0.042 -0.387,0.076 -0.133,0.037 -0.265,0.075 -0.397,0.112 -0.107,0.031 -0.202,0.039 -0.31,0.06 -0.267,0.053 -0.544,0.116 -0.802,0.192 -0.189,0.057 -0.236,0.138 -0.491,0.187 -0.247,0.047 -0.517,0.032 -0.678,0.191 0.235,0.263 0.972,0.103 0.811,0.017 0.171,0.299 0.545,0.097 0.887,0.081 0.372,-0.017 0.648,0.019 1.032,-0.045 0.725,-0.12 1.451,-0.234 2.177,-0.351 0.739,-0.119 1.525,-0.25 2.265,-0.445 -0.123,-0.035 -0.247,-0.066 -0.358,-0.116 -0.137,-0.062 -0.3,-0.106 -0.427,-0.177 -0.114,-0.063 -0.207,-0.145 -0.321,-0.206 -0.053,-0.029 -0.109,-0.046 -0.151,-0.082 -0.045,-0.038 -0.072,-0.082 -0.113,-0.122 -0.098,-0.095 -0.197,-0.193 -0.283,-0.296 -0.069,-0.083 -0.154,-0.16 -0.233,-0.24 -0.068,-0.07 -0.133,-0.14 -0.207,-0.208 -0.062,-0.057 -0.1,-0.135 -0.147,-0.199 -0.025,-0.034 -0.048,-0.079 -0.066,-0.115 -0.02,-0.041 -0.043,-0.082 -0.061,-0.123 -0.031,-0.067 -0.047,-0.14 -0.078,-0.208 -0.019,-0.042 -0.062,-0.079 -0.081,-0.121 -0.026,-0.058 -0.049,-0.119 -0.072,-0.178 -0.024,-0.058 -0.055,-0.104 -0.068,-0.166 -0.01,-0.048 -0.021,-0.096 -0.033,-0.143 l -0.057,-0.25 c -0.02,-0.091 -0.043,-0.173 -0.038,-0.264 0.004,-0.064 0.004,-0.123 -0.007,-0.186 -0.006,-0.032 0.007,-0.055 0.01,-0.088 0.003,-0.035 -0.009,-0.065 0,-0.104 0.009,-0.037 0.013,-0.067 0.009,-0.104 -0.005,-0.032 0.009,-0.06 0.008,-0.092 0,-0.032 0.008,-0.057 0.01,-0.088 10e-4,-0.028 -0.023,-0.054 -0.018,-0.082 0.007,-0.044 0.069,-0.122 0.044,-0.166 0.043,0.04 0.105,0.075 0.154,0.112 0.081,0.059 0.141,0.129 0.221,0.189 0.101,0.074 0.19,0.163 0.275,0.246 0.084,0.084 0.162,0.167 0.242,0.253 0.101,0.109 0.193,0.216 0.267,0.333 0.084,0.134 0.191,0.265 0.287,0.396 0.106,0.144 0.249,0.277 0.379,0.41 0.033,0.033 0.071,0.055 0.098,0.089 0.025,0.032 0.046,0.057 0.077,0.084 0.068,0.06 0.134,0.122 0.206,0.179 0.172,0.135 0.355,0.265 0.527,0.4 0.101,0.08 0.213,0.145 0.329,0.214 0.114,0.067 0.211,0.145 0.32,0.215 0.13,0.083 0.267,0.16 0.402,0.238 0.049,0.029 0.108,0.042 0.161,0.065 0.024,0.011 0.042,0.029 0.07,0.038 0.04,0.012 0.088,0.014 0.13,0.026 0.058,0.018 0.111,0.022 0.172,0.033 0.002,0 0.003,10e-4 0.004,0.002 0.042,-0.024 0.089,-0.044 0.13,-0.068 0.469,-0.279 1.021,-0.504 1.447,-0.826 0.409,-0.308 0.681,-0.609 1.028,-0.947 0.391,-0.381 0.961,-0.626 1.385,-0.999 0.151,-0.133 0.275,-0.28 0.423,-0.414 0.195,-0.179 0.474,-0.301 0.651,-0.486 -0.691,0.141 -1.18,0.375 -1.779,0.653 -0.338,0.157 -0.725,0.222 -1.06,0.331 -0.229,0.073 -0.258,0.133 -0.522,0.03 M 8.201,-17.513 c -0.241,0.432 -0.413,0.864 -0.791,1.236 -0.612,0.605 -1.52,1.246 -2.349,1.634 -0.875,0.409 -1.801,0.768 -2.697,1.145 -0.109,0.046 -0.222,0.105 -0.339,0.156 0.163,0.26 0.257,0.512 0.382,0.794 0.172,0.389 0.413,0.753 0.59,1.142 0.448,0.977 0.981,1.9 1.525,2.842 0.141,0.245 0.2,0.51 0.288,0.769 0.173,0.511 0.353,0.978 0.445,1.489 0.309,0.801 0.472,1.628 0.501,2.465 0.018,0.054 0.037,0.108 0.049,0.163 0.055,0.252 0.022,0.514 0.021,0.768 0,0.413 -0.051,0.731 -0.197,1.125 C 5.605,-1.721 5.573,-1.663 5.547,-1.601 5.356,-0.719 5.044,0.154 4.641,1.002 4.656,1.106 4.666,1.216 4.657,1.337 4.643,1.531 4.566,1.623 4.53,1.812 4.448,2.236 4.18,2.691 3.975,3.085 3.786,3.447 3.423,3.88 3.085,4.149 2.953,4.254 2.776,4.335 2.778,4.517 c 0,0.116 0.138,0.345 0.196,0.469 0.244,0.515 0.761,0.903 1.031,1.417 0.125,0.238 0.304,0.484 0.378,0.731 0.06,0.201 0.171,0.345 0.245,0.535 0.183,0.467 -0.091,0.945 -0.235,1.369 -0.13,0.383 -0.265,0.73 -0.259,1.141 0.002,0.166 -0.022,0.291 -0.065,0.435 -0.03,0.1 -0.145,0.262 -0.166,0.352 -0.059,0.251 -0.108,0.704 -0.036,0.961 0.069,0.247 0.244,0.504 0.364,0.76 0.129,0.272 0.276,0.553 0.406,0.819 0.017,0.034 0.031,0.066 0.046,0.098 -1.749,0.583 -1.499,3.179 0.751,3.179 0.294,0 0.551,-0.048 0.777,-0.127 0.064,0.183 0.136,0.364 0.2,0.543 0.392,1.115 0.392,2.792 -1.237,3.194 C 4.77,20.492 4.135,20.291 3.744,20.173 3.286,20.034 2.922,19.697 2.57,19.435 2.017,19.021 1.462,18.631 0.891,18.229 c -0.406,-0.286 -0.99,-0.558 -1.323,-0.895 -0.246,-0.247 -0.49,-0.421 -0.801,-0.621 -0.777,-0.502 -1.559,-0.996 -2.404,-1.418 -0.402,-0.2 -0.675,-0.215 -1.135,-0.216 -0.532,0 -1.023,0.041 -1.545,0.128 l -0.053,0.09 h -0.367 c -0.539,0.138 -1.067,0.346 -1.603,0.441 -0.38,0.067 -0.77,0.009 -1.153,-0.046 -0.484,0.198 -0.733,0.656 -1.252,0.832 -0.528,0.18 -1.245,0.104 -1.765,-0.029 -0.388,-0.099 -0.804,-0.272 -1.231,-0.403 -0.267,0.164 -0.526,0.341 -0.841,0.408 -0.405,0.087 -0.716,-0.131 -1.033,-0.322 -0.316,0.191 -0.627,0.409 -1.033,0.322 -0.314,-0.067 -0.573,-0.244 -0.84,-0.408 -0.426,0.131 -0.843,0.304 -1.231,0.403 -0.52,0.133 -1.236,0.209 -1.765,0.029 -0.519,-0.176 -0.768,-0.634 -1.252,-0.832 -0.383,0.055 -0.773,0.113 -1.152,0.046 -0.537,-0.095 -1.065,-0.303 -1.605,-0.441 h -0.366 l -0.053,-0.09 c -0.522,-0.087 -1.012,-0.128 -1.545,-0.128 -0.459,10e-4 -0.733,0.016 -1.135,0.216 -0.845,0.422 -1.627,0.916 -2.404,1.418 -0.311,0.2 -0.555,0.374 -0.8,0.621 -0.334,0.337 -0.918,0.609 -1.324,0.895 -0.57,0.402 -1.126,0.792 -1.679,1.206 -0.351,0.262 -0.716,0.599 -1.174,0.738 -0.391,0.118 -1.026,0.319 -1.43,0.22 -1.629,-0.402 -1.629,-2.079 -1.236,-3.194 0.116,-0.331 0.27,-0.667 0.329,-1.008 0.031,-0.178 0.056,-0.292 0.16,-0.458 0.251,-0.4 0.238,-0.902 0.513,-1.285 0.105,-0.148 0.26,-0.221 0.392,-0.34 0.212,-0.192 0.267,-0.372 0.379,-0.602 0.13,-0.266 0.277,-0.547 0.405,-0.819 0.121,-0.256 0.296,-0.513 0.365,-0.76 0.071,-0.257 0.024,-0.71 -0.036,-0.961 -0.021,-0.09 -0.136,-0.252 -0.166,-0.352 -0.043,-0.144 -0.067,-0.269 -0.065,-0.435 0.006,-0.411 -0.128,-0.758 -0.259,-1.141 -0.144,-0.424 -0.418,-0.902 -0.235,-1.369 0.074,-0.19 0.186,-0.334 0.245,-0.535 0.074,-0.247 0.253,-0.493 0.378,-0.731 0.27,-0.514 0.788,-0.902 1.031,-1.417 0.059,-0.124 0.195,-0.353 0.197,-0.469 10e-4,-0.182 -0.175,-0.263 -0.308,-0.368 -0.338,-0.269 -0.701,-0.702 -0.89,-1.064 -0.205,-0.394 -0.474,-0.849 -0.555,-1.273 -0.036,-0.189 -0.113,-0.281 -0.127,-0.475 -0.009,-0.121 0,-0.231 0.016,-0.335 -0.403,-0.848 -0.715,-1.721 -0.905,-2.603 -0.027,-0.062 -0.059,-0.12 -0.083,-0.184 -0.146,-0.394 -0.197,-0.712 -0.197,-1.125 0,-0.254 -0.034,-0.516 0.021,-0.768 0.012,-0.055 0.032,-0.109 0.05,-0.163 0.029,-0.837 0.191,-1.664 0.5,-2.465 0.092,-0.511 0.272,-0.978 0.445,-1.489 0.088,-0.259 0.147,-0.524 0.288,-0.769 0.545,-0.942 1.077,-1.865 1.525,-2.842 0.178,-0.389 0.418,-0.753 0.591,-1.142 0.124,-0.282 0.218,-0.534 0.382,-0.794 -0.118,-0.051 -0.231,-0.11 -0.339,-0.156 -0.897,-0.377 -1.823,-0.736 -2.698,-1.145 -0.83,-0.388 -1.736,-1.029 -2.349,-1.634 -0.377,-0.372 -0.55,-0.804 -0.791,-1.236 -0.168,-0.302 -0.395,-0.588 -0.513,-0.906 0.219,0.259 0.593,0.442 0.891,0.627 0.752,0.466 1.434,0.878 2.265,1.246 0.557,0.246 1.078,0.518 1.646,0.743 0.314,0.123 0.637,0.225 0.922,0.392 0.534,0.314 1.119,0.483 1.713,0.681 0.052,0.017 0.1,0.036 0.151,0.053 0.034,-0.032 0.067,-0.065 0.106,-0.097 0.235,-0.19 0.475,-0.373 0.716,-0.553 -0.119,-0.082 -0.241,-0.165 -0.37,-0.256 -0.634,-0.444 -1.188,-0.976 -1.773,-1.463 -0.497,-0.415 -1.081,-0.8 -1.422,-1.323 -0.115,-0.177 -0.3,-0.42 -0.27,-0.636 0.017,-0.119 -0.041,-0.194 0.121,-0.235 0.205,-0.052 0.919,0.484 1.064,0.555 0.92,0.451 1.779,0.984 2.694,1.434 0.254,0.125 0.552,0.174 0.816,0.291 0.16,0.071 0.274,0.11 0.447,0.137 0.126,0.019 0.24,0.04 0.354,0.06 0.202,-0.208 0.404,-0.417 0.612,-0.62 -0.408,-0.564 -0.881,-0.907 -1.497,-1.292 -0.401,-0.25 -0.831,-0.962 -0.692,-1.39 0.469,0.281 0.828,0.533 1.378,0.707 0.567,0.179 1.096,0.487 1.675,0.631 0.16,0.04 0.335,0.062 0.514,0.071 1.364,-1.2 2.834,-2.315 4.41,-3.325 1.66,-1.188 3.559,-2.257 5.544,-2.829 0.8,-0.23 1.568,-0.32 2.313,-0.309 0.746,-0.011 1.514,0.079 2.314,0.309 1.985,0.572 3.884,1.641 5.544,2.829 1.576,1.01 3.046,2.125 4.41,3.325 0.179,-0.009 0.354,-0.031 0.515,-0.071 0.578,-0.144 1.107,-0.452 1.674,-0.631 0.55,-0.174 0.91,-0.426 1.378,-0.707 0.139,0.428 -0.291,1.14 -0.692,1.39 -0.615,0.385 -1.089,0.728 -1.497,1.292 0.208,0.203 0.41,0.412 0.613,0.62 0.113,-0.02 0.227,-0.041 0.353,-0.06 0.173,-0.027 0.287,-0.066 0.447,-0.137 0.264,-0.117 0.563,-0.166 0.816,-0.291 0.916,-0.45 1.774,-0.983 2.694,-1.434 0.145,-0.071 0.859,-0.607 1.064,-0.555 0.162,0.041 0.105,0.116 0.121,0.235 0.03,0.216 -0.155,0.459 -0.27,0.636 -0.341,0.523 -0.925,0.908 -1.422,1.323 -0.585,0.487 -1.139,1.019 -1.773,1.463 -0.129,0.091 -0.251,0.174 -0.37,0.256 0.241,0.18 0.481,0.363 0.716,0.553 0.039,0.032 0.072,0.065 0.106,0.097 0.051,-0.017 0.099,-0.036 0.151,-0.053 0.595,-0.198 1.178,-0.367 1.713,-0.681 0.285,-0.167 0.608,-0.269 0.922,-0.392 0.568,-0.225 1.09,-0.497 1.646,-0.743 0.831,-0.368 1.513,-0.78 2.265,-1.246 0.298,-0.185 0.672,-0.368 0.891,-0.627 -0.118,0.318 -0.345,0.604 -0.513,0.906"
             style="fill:#100f0d;fill-opacity:1;fill-rule:nonzero;stroke:none"
             id="path113681" />
        </g>
      </g>
    </g>
  </g>
</svg>
