<svg width="17" height="24" viewBox="0 0 17 24" fill="none" xmlns="http://www.w3.org/2000/svg">
  <g clip-path="url(#clip0_9_227)">
    <path d="M1.18063 6.93423C1.13903 6.99499 1.08995 7.05341 1.03994 7.10996C0.993203 7.16745 0.941323 7.22261 0.884302 7.27495C0.65715 7.48528 0.35101 7.66289 0 7.78674C0.323901 7.96996 0.59452 8.19805 0.781476 8.44483C0.828215 8.50653 0.869812 8.56962 0.905802 8.63459C0.94553 8.69909 0.983388 8.76499 1.01377 8.8323C1.07453 8.96644 1.11192 9.10619 1.12127 9.25388C1.12454 9.40158 1.13015 9.54413 1.09743 9.68715C1.06799 9.83064 1.0133 9.97273 0.938051 10.1139C0.797367 10.3929 0.590313 10.6659 0.308945 10.9084C0.489825 10.9365 0.657618 10.9814 0.8184 11.0379C0.983388 11.0931 1.13529 11.1608 1.27037 11.2412C1.40544 11.3221 1.52322 11.4151 1.62044 11.5217C1.7214 11.6161 1.80272 11.724 1.86629 11.8451C2.11027 11.5203 2.37855 11.2146 2.66646 10.9295C2.43276 10.3611 2.28086 9.76006 2.22057 9.14825C2.21356 8.95428 2.18925 8.76079 2.18972 8.56588L2.21075 7.98118L2.29208 7.40162C2.32573 7.20999 2.38322 7.0235 2.42435 6.83374C2.63468 6.08545 2.98335 5.37828 3.45027 4.75619C3.91673 4.13409 4.49956 3.598 5.15905 3.18529C5.81854 2.77165 6.55281 2.48187 7.31512 2.33511C8.07556 2.19115 8.87059 2.17433 9.63805 2.32249C10.4041 2.46458 11.1398 2.74594 11.8016 3.15304C12.4634 3.55967 13.0505 4.09063 13.5225 4.70992C13.9951 5.32874 14.3517 6.0345 14.5681 6.77999C14.7854 7.52501 14.8621 8.30929 14.7985 9.08889C14.7387 9.72361 14.5844 10.3448 14.3437 10.9299C14.633 11.2155 14.9009 11.5221 15.1458 11.8474C15.1509 11.8353 15.1532 11.8222 15.1593 11.8105C15.222 11.6768 15.3075 11.56 15.414 11.4567C15.522 11.3539 15.6276 11.2548 15.7637 11.1739C16.0268 11.0089 16.3736 10.8944 16.7237 10.8313C16.4409 10.592 16.2198 10.3191 16.0852 10.0433C15.9371 9.76334 15.8562 9.47683 15.8983 9.18564C15.9076 8.89165 16.0371 8.62337 16.232 8.37425C16.4129 8.12607 16.6779 7.89565 16.9985 7.70963C16.6648 7.58623 16.3432 7.41283 16.1128 7.20438C15.9931 7.10108 15.9067 6.98517 15.8183 6.86552C15.7314 6.74493 15.6674 6.61453 15.6286 6.47244C15.6094 6.40093 15.5973 6.32896 15.5917 6.25604C15.5809 6.18453 15.5744 6.11349 15.5753 6.04058C15.5767 5.89475 15.6029 5.74565 15.6496 5.59328C15.7006 5.43951 15.7571 5.28995 15.8342 5.13992C15.9118 4.98988 16.0086 4.84032 16.1226 4.69636C15.9403 4.70197 15.7637 4.69029 15.5987 4.66318C15.4327 4.6356 15.2645 4.60055 15.1177 4.54586C14.9696 4.49211 14.8359 4.42294 14.72 4.33647C14.6027 4.25094 14.4877 4.1584 14.4003 4.03968C14.3087 3.9247 14.2531 3.78682 14.1984 3.65362C14.1456 3.51901 14.1147 3.37131 14.1021 3.2138C14.0839 2.89364 14.1147 2.55572 14.2227 2.20517C13.5445 2.48234 12.8766 2.51225 12.3798 2.21219C12.2531 2.13647 12.1447 2.03925 12.0521 1.92334C11.9563 1.81257 11.8712 1.69245 11.8025 1.55083C11.6646 1.26806 11.5801 0.920321 11.5501 0.56417C11.2851 0.823104 10.9939 1.01427 10.7065 1.1241C10.4116 1.25544 10.1227 1.29096 9.83435 1.23581C9.54223 1.20029 9.28844 1.03343 9.05661 0.829179C8.82666 0.623995 8.62194 0.337486 8.4663 3.03596e-05C8.31346 0.326736 8.11062 0.62867 7.88206 0.836659C7.65117 1.0367 7.39878 1.20403 7.10806 1.2503C6.9613 1.26899 6.81828 1.27881 6.67339 1.26479C6.5285 1.24936 6.38174 1.20917 6.23451 1.14747C5.94146 1.02735 5.65308 0.853017 5.38527 0.594083C5.37358 0.776365 5.34554 0.950701 5.30301 1.11242C5.26281 1.28021 5.20999 1.44006 5.14222 1.58168C5.07539 1.72423 4.99359 1.85043 4.89638 1.95746C4.8029 2.07057 4.6982 2.17246 4.57247 2.24911C4.31588 2.3954 4.03965 2.47579 3.72229 2.47019C3.4012 2.4585 3.06982 2.39961 2.72956 2.25799C2.84453 2.61087 2.87164 2.94272 2.85762 3.26475C2.83893 3.58351 2.73236 3.84945 2.56691 4.0939C2.4795 4.21261 2.37247 4.31077 2.24768 4.39209C2.13317 4.47996 2.00136 4.551 1.8546 4.60709C1.70738 4.66224 1.54566 4.70291 1.37366 4.72815C1.20587 4.75572 1.03246 4.77115 0.849715 4.76694C1.08434 5.05485 1.23999 5.35959 1.32972 5.65919C1.37927 5.81109 1.40825 5.96065 1.41292 6.10695C1.41946 6.25371 1.38955 6.39299 1.36057 6.53788C1.32552 6.68137 1.26429 6.8127 1.18063 6.93423Z" fill="black"/>
    <path d="M8.5051 11.4857C6.37941 11.4857 4.44722 12.3101 3.00766 13.6548C4.10088 11.7511 6.15226 10.4682 8.5051 10.4682C10.8579 10.4682 12.9093 11.7511 14.0025 13.6548C12.563 12.3101 10.6308 11.4857 8.5051 11.4857ZM8.5051 9.66191C4.54584 9.66191 1.3358 12.8715 1.3358 16.8312C1.3358 20.7905 4.54584 24 8.5051 24C12.4644 24 15.6744 20.7905 15.6744 16.8312C15.6744 12.8715 12.4644 9.66191 8.5051 9.66191Z" fill="black"/>
  </g>
  <defs>
    <clipPath id="clip0_9_227">
      <rect width="16.9985" height="24" fill="white"/>
    </clipPath>
  </defs>
</svg>
