<svg width="25" height="24" viewBox="0 0 25 24" fill="none" xmlns="http://www.w3.org/2000/svg">
  <g clip-path="url(#clip0_9_184)">
    <path d="M8.75173 14.6741C7.83656 14.6741 7.09462 13.9322 7.09462 13.017C7.09462 12.1018 7.83656 11.3605 8.75173 11.3605C9.6669 11.3605 10.4088 12.1018 10.4088 13.017C10.4088 13.9322 9.6669 14.6741 8.75173 14.6741ZM3.51292 10.518L1.69914 13.303V23.9997H4.89554V17.3719H12.8136V23.9997H15.5846L15.6578 13.2113L14.0848 10.4887L8.75173 6.80125L3.51292 10.518Z" fill="black"/>
    <path d="M13.4002 23.9995H2.78435V23.1786H13.4002V23.9995Z" fill="black"/>
    <path d="M13.6797 17.2811L4.71592 24L4.2058 23.3192L13.1696 16.6003L13.6797 17.2811Z" fill="black"/>
    <path d="M4.20583 17.2811L13.1696 24L13.6798 23.3192L4.71595 16.6003L4.20583 17.2811Z" fill="black"/>
    <path d="M14.6458 9.84748L17.6537 14.6723L18.4231 14.1584L15.2407 9.08389L15.1999 9.11064L15.205 9.10172L8.72113 4.87297L8.70457 4.90481L2.48882 9.13293L2.49328 9.14184L2.45315 9.11509L-3.05176e-05 13.1935L0.769296 13.7075L3.04798 9.87869L8.74597 5.90086L14.6458 9.84748Z" fill="black"/>
    <path d="M24.6318 3.46069C24.6318 1.54947 22.8505 -4.62076e-06 20.6533 -4.62076e-06C18.4562 -4.62076e-06 16.6749 1.54947 16.6749 3.46069C16.6749 3.61927 16.6914 3.77403 16.715 3.92687V23.9994H24.6318V3.47215H24.6312C24.6312 3.46833 24.6318 3.46451 24.6318 3.46069Z" fill="black"/>
  </g>
  <defs>
    <clipPath id="clip0_9_184">
      <rect width="24.6318" height="24" fill="white"/>
    </clipPath>
  </defs>
</svg>
