<?xml version="1.0" encoding="UTF-8" standalone="no"?>
<!-- Created with Inkscape (http://www.inkscape.org/) -->

<svg
   width="24.156919"
   height="24.000002"
   viewBox="0 0 6.3915183 6.3500005"
   version="1.1"
   id="svg5858"
   inkscape:version="1.2.1 (9c6d41e4, 2022-07-14)"
   sodipodi:docname="the-labyrinths-of-lunacy.svg"
   xmlns:inkscape="http://www.inkscape.org/namespaces/inkscape"
   xmlns:sodipodi="http://sodipodi.sourceforge.net/DTD/sodipodi-0.dtd"
   xmlns="http://www.w3.org/2000/svg"
   xmlns:svg="http://www.w3.org/2000/svg">
  <sodipodi:namedview
     id="namedview5860"
     pagecolor="#505050"
     bordercolor="#eeeeee"
     borderopacity="1"
     inkscape:showpageshadow="0"
     inkscape:pageopacity="0"
     inkscape:pagecheckerboard="0"
     inkscape:deskcolor="#505050"
     inkscape:document-units="mm"
     showgrid="false"
     inkscape:zoom="0.7046647"
     inkscape:cx="97.918911"
     inkscape:cy="-17.738933"
     inkscape:window-width="1390"
     inkscape:window-height="941"
     inkscape:window-x="0"
     inkscape:window-y="25"
     inkscape:window-maximized="0"
     inkscape:current-layer="layer1" />
  <defs
     id="defs5855">
    <clipPath
       clipPathUnits="userSpaceOnUse"
       id="clipPath199">
      <path
         d="m 98.369,62.543 h 55.262 V 117.8 H 98.369 Z"
         id="path197" />
    </clipPath>
  </defs>
  <g
     inkscape:label="Layer 1"
     inkscape:groupmode="layer"
     id="layer1"
     transform="translate(-79.408539,-153.39769)">
    <g
       id="g193"
       transform="matrix(0.138147,0,0,-0.138147,65.370185,169.27417)">
      <g
         id="g195"
         clip-path="url(#clipPath199)">
        <g
           id="g201"
           transform="matrix(0.383765,0,0,-0.383729,126,82.9571)">
          <g
             id="g203"
             transform="translate(-41.7554,-6.3383)">
            <path
               d="m 0,0 -1.881,0.504 c -0.22,0.058 -0.441,0.055 -0.646,0 -0.417,-0.112 -0.764,-0.437 -0.885,-0.884 -0.178,-0.667 0.218,-1.352 0.884,-1.532 l 2.108,-0.564 c -0.74,-5.393 -0.444,-11.014 1.051,-16.592 1.911,-7.133 5.559,-13.491 10.655,-18.653 -0.527,-0.007 -1.051,0 -1.573,0.019 -0.217,0.008 -0.432,0.026 -0.648,0.038 -0.312,0.017 -0.625,0.032 -0.934,0.058 -0.239,0.02 -0.475,0.05 -0.713,0.076 -0.285,0.03 -0.57,0.058 -0.852,0.096 -0.245,0.032 -0.486,0.074 -0.729,0.112 -0.273,0.042 -0.546,0.084 -0.817,0.133 -0.244,0.045 -0.487,0.097 -0.73,0.147 -0.265,0.055 -0.53,0.11 -0.793,0.171 -0.243,0.057 -0.483,0.119 -0.724,0.181 -0.26,0.067 -0.519,0.135 -0.777,0.208 -0.239,0.068 -0.476,0.14 -0.713,0.214 -0.254,0.078 -0.508,0.159 -0.76,0.243 -0.236,0.08 -0.47,0.162 -0.703,0.247 -0.249,0.09 -0.496,0.182 -0.743,0.278 -0.23,0.09 -0.46,0.182 -0.688,0.277 -0.245,0.102 -0.488,0.208 -0.73,0.315 -0.224,0.1 -0.447,0.2 -0.668,0.305 -0.242,0.114 -0.481,0.233 -0.72,0.353 -0.216,0.108 -0.432,0.217 -0.645,0.33 -0.239,0.126 -0.474,0.258 -0.709,0.39 -0.208,0.117 -0.416,0.233 -0.621,0.354 -0.238,0.141 -0.471,0.288 -0.704,0.434 -0.197,0.123 -0.394,0.243 -0.588,0.37 -0.238,0.157 -0.471,0.32 -0.706,0.483 -0.182,0.127 -0.367,0.25 -0.547,0.381 -0.248,0.179 -0.49,0.367 -0.733,0.553 -0.159,0.122 -0.321,0.24 -0.478,0.365 -0.315,0.251 -0.623,0.512 -0.929,0.775 -0.078,0.067 -0.16,0.131 -0.238,0.199 -0.379,0.332 -0.75,0.673 -1.113,1.022 -0.13,0.125 -0.255,0.256 -0.383,0.384 -0.232,0.23 -0.465,0.46 -0.691,0.697 -0.144,0.153 -0.283,0.311 -0.425,0.466 -0.201,0.22 -0.403,0.439 -0.598,0.665 -0.146,0.169 -0.286,0.343 -0.429,0.515 -0.182,0.22 -0.365,0.44 -0.542,0.665 -0.142,0.18 -0.278,0.364 -0.415,0.546 -0.17,0.226 -0.34,0.452 -0.504,0.683 -0.134,0.188 -0.264,0.379 -0.394,0.57 -0.158,0.233 -0.316,0.466 -0.468,0.703 -0.126,0.196 -0.249,0.395 -0.371,0.594 -0.147,0.239 -0.292,0.48 -0.433,0.724 -0.117,0.203 -0.232,0.407 -0.345,0.613 -0.136,0.247 -0.269,0.497 -0.399,0.748 -0.108,0.209 -0.214,0.418 -0.317,0.629 -0.125,0.256 -0.246,0.515 -0.365,0.775 -0.097,0.212 -0.194,0.426 -0.287,0.641 -0.114,0.265 -0.223,0.534 -0.33,0.803 -0.087,0.217 -0.174,0.433 -0.256,0.652 -0.103,0.275 -0.2,0.554 -0.296,0.832 -0.075,0.219 -0.152,0.437 -0.223,0.658 -0.092,0.289 -0.177,0.582 -0.262,0.875 -0.062,0.216 -0.128,0.43 -0.186,0.648 -0.083,0.31 -0.156,0.624 -0.23,0.938 -0.049,0.206 -0.102,0.41 -0.147,0.618 -0.075,0.35 -0.139,0.705 -0.204,1.06 -0.032,0.177 -0.07,0.351 -0.099,0.528 -0.088,0.534 -0.164,1.073 -0.227,1.617 -0.062,0.537 -0.108,1.072 -0.143,1.606 -0.012,0.174 -0.015,0.348 -0.024,0.522 -0.018,0.358 -0.035,0.715 -0.041,1.071 -0.004,0.209 0,0.416 0,0.624 0.001,0.32 0.002,0.64 0.012,0.959 0.007,0.218 0.019,0.436 0.03,0.654 0.016,0.306 0.033,0.611 0.058,0.915 0.017,0.222 0.039,0.443 0.061,0.663 0.03,0.298 0.063,0.595 0.1,0.891 0.029,0.22 0.059,0.44 0.092,0.66 0.044,0.295 0.093,0.59 0.144,0.883 0.038,0.214 0.077,0.428 0.119,0.641 0.059,0.297 0.124,0.592 0.191,0.887 0.046,0.205 0.091,0.41 0.142,0.614 0.076,0.306 0.16,0.609 0.244,0.912 0.052,0.188 0.101,0.376 0.157,0.563 0.1,0.335 0.21,0.667 0.32,0.999 0.05,0.149 0.096,0.3 0.147,0.448 0.336,0.958 0.714,1.896 1.135,2.814 0.066,0.144 0.138,0.285 0.206,0.428 0.148,0.312 0.298,0.623 0.456,0.929 0.087,0.17 0.18,0.336 0.27,0.504 0.148,0.275 0.297,0.55 0.453,0.821 0.101,0.176 0.206,0.349 0.311,0.523 0.154,0.258 0.31,0.514 0.472,0.767 0.112,0.176 0.227,0.35 0.343,0.524 0.163,0.244 0.328,0.487 0.497,0.728 0.122,0.173 0.246,0.344 0.371,0.515 0.173,0.237 0.351,0.47 0.531,0.702 0.128,0.166 0.256,0.331 0.388,0.494 0.187,0.232 0.379,0.46 0.573,0.688 0.132,0.155 0.264,0.311 0.399,0.463 0.206,0.233 0.418,0.461 0.631,0.688 0.13,0.139 0.258,0.28 0.391,0.416 0.244,0.252 0.495,0.497 0.747,0.74 0.108,0.105 0.213,0.213 0.323,0.316 0.367,0.345 0.742,0.683 1.125,1.012 0.01,0.009 0.021,0.017 0.031,0.026 0.372,0.317 0.751,0.626 1.137,0.927 0.129,0.1 0.262,0.195 0.392,0.294 0.272,0.205 0.544,0.41 0.822,0.607 0.16,0.113 0.324,0.221 0.486,0.331 0.256,0.175 0.512,0.348 0.774,0.516 0.176,0.112 0.355,0.221 0.533,0.33 0.254,0.156 0.51,0.311 0.769,0.46 0.187,0.108 0.377,0.213 0.566,0.317 0.258,0.142 0.518,0.281 0.78,0.416 0.194,0.1 0.39,0.198 0.587,0.295 0.265,0.13 0.534,0.256 0.804,0.379 0.198,0.09 0.397,0.18 0.597,0.267 0.278,0.12 0.559,0.234 0.841,0.346 0.198,0.079 0.395,0.16 0.595,0.235 0.297,0.112 0.598,0.216 0.899,0.319 0.19,0.066 0.379,0.134 0.571,0.196 0.339,0.11 0.683,0.209 1.028,0.308 0.158,0.045 0.314,0.095 0.474,0.138 0.086,0.024 0.175,0.042 0.262,0.065 0.614,0.16 1.237,0.301 1.867,0.427 0.185,0.037 0.371,0.073 0.557,0.107 0.712,0.13 1.429,0.245 2.158,0.329 0.834,0.096 1.662,0.148 2.487,0.18 0.202,0.007 0.403,0.011 0.604,0.015 0.742,0.015 1.48,0.009 2.213,-0.026 0.077,-0.004 0.155,-0.003 0.232,-0.008 0.857,-0.047 1.706,-0.129 2.547,-0.242 0.067,-0.009 0.133,-0.02 0.2,-0.03 0.787,-0.111 1.566,-0.25 2.337,-0.416 0.046,-0.01 0.093,-0.019 0.139,-0.03 C 8.609,20.664 2.168,10.909 0,0"
               style="fill:#231f20;fill-opacity:1;fill-rule:nonzero;stroke:none"
               id="path205" />
          </g>
        </g>
        <g
           id="g207"
           transform="matrix(0.383765,0,0,-0.383729,126,82.9571)">
          <g
             id="g209"
             transform="translate(-22.4749,-58.3493)">
            <path
               d="m 0,0 c 10.459,-4.79 22.096,-5.906 33.394,-3.161 l 0.316,-1.181 c 0.179,-0.667 0.864,-1.063 1.531,-0.884 0.667,0.179 1.063,0.864 0.884,1.531 l -0.317,1.182 c 11.162,3.278 20.679,10.069 27.337,19.456 0.514,-1.762 0.895,-3.587 1.112,-5.472 0.061,-0.537 0.108,-1.072 0.143,-1.606 0.011,-0.175 0.015,-0.348 0.024,-0.522 0.017,-0.358 0.035,-0.715 0.041,-1.071 0.003,-0.209 0,-0.416 -0.001,-0.624 0,-0.32 -0.001,-0.64 -0.011,-0.959 C 64.446,6.47 64.434,6.253 64.422,6.035 64.407,5.729 64.389,5.424 64.365,5.12 64.348,4.898 64.326,4.678 64.304,4.457 64.274,4.159 64.241,3.861 64.203,3.565 64.175,3.345 64.145,3.125 64.112,2.906 64.068,2.611 64.019,2.316 63.967,2.023 63.929,1.809 63.891,1.595 63.849,1.382 63.79,1.085 63.725,0.79 63.658,0.496 63.611,0.29 63.566,0.084 63.516,-0.12 63.44,-0.426 63.356,-0.729 63.272,-1.032 63.22,-1.219 63.17,-1.407 63.115,-1.593 c -0.101,-0.338 -0.211,-0.672 -0.322,-1.005 -0.049,-0.147 -0.094,-0.296 -0.145,-0.443 -0.336,-0.958 -0.715,-1.898 -1.136,-2.816 -0.064,-0.14 -0.134,-0.277 -0.2,-0.416 -0.15,-0.316 -0.302,-0.631 -0.462,-0.941 -0.086,-0.168 -0.178,-0.332 -0.267,-0.497 -0.149,-0.278 -0.299,-0.555 -0.456,-0.827 -0.1,-0.175 -0.205,-0.347 -0.309,-0.52 -0.155,-0.259 -0.312,-0.517 -0.474,-0.771 -0.111,-0.174 -0.225,-0.346 -0.339,-0.517 -0.165,-0.248 -0.332,-0.494 -0.504,-0.738 -0.12,-0.169 -0.241,-0.338 -0.363,-0.505 -0.177,-0.241 -0.356,-0.478 -0.539,-0.713 -0.126,-0.162 -0.252,-0.325 -0.381,-0.485 -0.19,-0.235 -0.385,-0.466 -0.581,-0.697 -0.13,-0.152 -0.259,-0.305 -0.391,-0.455 -0.21,-0.237 -0.426,-0.468 -0.642,-0.699 -0.127,-0.135 -0.251,-0.272 -0.381,-0.405 -0.249,-0.258 -0.506,-0.508 -0.764,-0.757 -0.103,-0.099 -0.202,-0.202 -0.306,-0.299 -0.734,-0.691 -1.501,-1.348 -2.298,-1.969 -0.122,-0.096 -0.249,-0.186 -0.372,-0.279 -0.278,-0.211 -0.557,-0.42 -0.843,-0.622 -0.155,-0.111 -0.315,-0.216 -0.473,-0.323 -0.26,-0.178 -0.52,-0.354 -0.785,-0.524 -0.174,-0.111 -0.35,-0.217 -0.526,-0.325 -0.257,-0.158 -0.515,-0.314 -0.777,-0.465 -0.185,-0.107 -0.372,-0.21 -0.559,-0.313 -0.261,-0.143 -0.523,-0.284 -0.788,-0.42 -0.192,-0.099 -0.385,-0.196 -0.579,-0.291 -0.268,-0.131 -0.539,-0.259 -0.812,-0.383 -0.196,-0.089 -0.393,-0.179 -0.591,-0.264 -0.28,-0.121 -0.562,-0.236 -0.846,-0.349 -0.196,-0.078 -0.392,-0.158 -0.591,-0.233 -0.298,-0.112 -0.6,-0.216 -0.902,-0.32 -0.19,-0.065 -0.378,-0.133 -0.569,-0.195 -0.339,-0.11 -0.684,-0.209 -1.028,-0.308 -0.158,-0.045 -0.315,-0.096 -0.474,-0.139 -0.087,-0.023 -0.176,-0.041 -0.263,-0.064 -0.613,-0.161 -1.236,-0.301 -1.864,-0.427 -0.187,-0.037 -0.373,-0.073 -0.561,-0.108 -0.711,-0.129 -1.428,-0.244 -2.156,-0.328 -0.54,-0.062 -1.079,-0.109 -1.615,-0.144 -0.181,-0.012 -0.361,-0.015 -0.542,-0.024 -0.355,-0.017 -0.71,-0.035 -1.063,-0.041 -0.214,-0.003 -0.426,0.001 -0.639,0.002 -0.318,10e-4 -0.635,10e-4 -0.951,0.011 -0.228,0.008 -0.454,0.022 -0.681,0.034 -0.298,0.015 -0.596,0.032 -0.892,0.055 -0.236,0.019 -0.469,0.044 -0.703,0.068 -0.285,0.029 -0.569,0.06 -0.851,0.096 -0.24,0.031 -0.478,0.066 -0.716,0.102 -0.274,0.041 -0.547,0.086 -0.818,0.134 -0.242,0.043 -0.483,0.089 -0.723,0.137 -0.263,0.053 -0.524,0.11 -0.785,0.169 -0.245,0.056 -0.489,0.113 -0.733,0.174 -0.25,0.063 -0.499,0.131 -0.747,0.2 -0.248,0.069 -0.496,0.138 -0.741,0.212 -0.237,0.072 -0.47,0.149 -0.705,0.226 -0.253,0.083 -0.507,0.166 -0.759,0.255 -0.214,0.076 -0.425,0.159 -0.638,0.239 -0.265,0.101 -0.531,0.2 -0.794,0.307 -0.177,0.073 -0.351,0.152 -0.527,0.228 -0.292,0.126 -0.585,0.249 -0.873,0.383 -0.051,0.024 -0.101,0.051 -0.152,0.075 -1.22,0.575 -2.4,1.225 -3.536,1.943 -0.051,0.033 -0.104,0.063 -0.155,0.096 -0.334,0.214 -0.662,0.437 -0.988,0.663 -0.082,0.056 -0.164,0.11 -0.245,0.167 -0.316,0.223 -0.625,0.454 -0.933,0.688 -0.085,0.065 -0.172,0.128 -0.257,0.194 -0.305,0.236 -0.604,0.48 -0.9,0.727 -0.081,0.068 -0.163,0.134 -0.243,0.202 -0.298,0.253 -0.59,0.513 -0.879,0.776 -0.072,0.066 -0.144,0.132 -0.216,0.199 -0.294,0.273 -0.583,0.552 -0.867,0.836 -0.057,0.057 -0.115,0.116 -0.172,0.174 -0.294,0.298 -0.582,0.601 -0.865,0.911 -0.038,0.042 -0.076,0.085 -0.114,0.127 -0.298,0.33 -0.59,0.665 -0.874,1.007 -0.012,0.014 -0.023,0.028 -0.035,0.042 C 3.483,-9.371 1.194,-4.927 0,0"
               style="fill:#231f20;fill-opacity:1;fill-rule:nonzero;stroke:none"
               id="path211" />
          </g>
        </g>
        <g
           id="g213"
           transform="matrix(0.383765,0,0,-0.383729,126,82.9571)">
          <g
             id="g215"
             transform="translate(56.8165,7.5018)">
            <path
               d="M 0,0 C 0.086,-0.752 0.138,-1.499 0.172,-2.244 0.179,-2.389 0.187,-2.536 0.192,-2.681 0.216,-3.4 0.217,-4.115 0.194,-4.825 0.19,-4.956 0.182,-5.086 0.176,-5.216 0.145,-5.906 0.097,-6.593 0.023,-7.274 0.017,-7.329 0.014,-7.384 0.008,-7.439 c -0.081,-0.714 -0.191,-1.419 -0.318,-2.12 -0.025,-0.14 -0.051,-0.279 -0.078,-0.418 -0.134,-0.69 -0.287,-1.374 -0.464,-2.05 -0.025,-0.094 -0.053,-0.187 -0.079,-0.281 -0.177,-0.648 -0.372,-1.289 -0.587,-1.922 -0.025,-0.074 -0.048,-0.15 -0.073,-0.224 -0.232,-0.665 -0.488,-1.319 -0.761,-1.966 -0.05,-0.117 -0.1,-0.234 -0.151,-0.35 -0.283,-0.649 -0.582,-1.29 -0.906,-1.917 -0.022,-0.042 -0.045,-0.083 -0.067,-0.125 -0.32,-0.614 -0.661,-1.215 -1.018,-1.807 -0.045,-0.073 -0.087,-0.148 -0.133,-0.222 -0.369,-0.6 -0.759,-1.187 -1.166,-1.762 -0.062,-0.088 -0.126,-0.175 -0.189,-0.263 -0.847,-1.171 -1.77,-2.286 -2.764,-3.337 -0.063,-0.067 -0.125,-0.134 -0.189,-0.201 -0.493,-0.512 -1.002,-1.009 -1.528,-1.489 -0.066,-0.06 -0.133,-0.118 -0.2,-0.178 -1.082,-0.971 -2.231,-1.873 -3.44,-2.696 -0.085,-0.058 -0.17,-0.117 -0.256,-0.174 -0.595,-0.398 -1.204,-0.778 -1.827,-1.137 -0.023,-0.013 -0.047,-0.025 -0.069,-0.038 1.716,6.884 1.662,14.056 -0.209,21.039 -1.494,5.578 -4.049,10.595 -7.385,14.895 l 1.543,1.543 c 0.488,0.489 0.488,1.28 0,1.768 -0.328,0.328 -0.791,0.435 -1.208,0.323 -0.205,-0.054 -0.399,-0.162 -0.56,-0.322 l -1.377,-1.378 c -7.418,8.461 -18.032,13.714 -29.4,14.358 0.1,0.094 0.194,0.193 0.295,0.285 0.202,0.186 0.409,0.366 0.616,0.546 0.37,0.322 0.748,0.636 1.132,0.942 0.215,0.17 0.429,0.341 0.648,0.507 0.438,0.33 0.888,0.647 1.343,0.956 0.17,0.115 0.334,0.237 0.506,0.349 0.627,0.408 1.269,0.796 1.927,1.162 0.161,0.09 0.33,0.17 0.494,0.257 0.509,0.273 1.026,0.536 1.552,0.782 0.239,0.112 0.483,0.216 0.726,0.323 0.474,0.207 0.954,0.404 1.44,0.59 0.253,0.096 0.506,0.193 0.761,0.283 0.535,0.189 1.079,0.361 1.628,0.523 0.203,0.06 0.403,0.128 0.609,0.184 0.539,0.148 1.09,0.268 1.641,0.389 0.27,0.059 0.533,0.132 0.806,0.184 0.824,0.16 1.66,0.291 2.508,0.389 C -18.275,30.82 -2.06,17.944 0,0"
               style="fill:#231f20;fill-opacity:1;fill-rule:nonzero;stroke:none"
               id="path217" />
          </g>
        </g>
        <g
           id="g219"
           transform="matrix(0.383765,0,0,-0.383729,126,82.9571)">
          <g
             id="g221"
             transform="translate(29.596,11.4847)">
            <path
               d="m 0,0 -23.737,-23.737 c 0.041,1.688 -0.032,3.386 -0.226,5.081 -1.051,9.153 -5.409,17.132 -11.734,22.9 0.024,0.061 0.043,0.124 0.068,0.185 0.285,0.712 0.599,1.411 0.933,2.099 0.049,0.101 0.09,0.206 0.14,0.306 0.407,0.817 0.845,1.616 1.317,2.394 10e-4,0 10e-4,10e-4 0.002,0.002 0.458,0.754 0.95,1.486 1.466,2.2 0.107,0.148 0.223,0.288 0.332,0.434 0.42,0.561 0.854,1.113 1.31,1.647 0.054,0.063 0.111,0.124 0.166,0.186 C -18.393,13.689 -7.456,8.578 0,0"
               style="fill:#231f20;fill-opacity:1;fill-rule:nonzero;stroke:none"
               id="path223" />
          </g>
        </g>
        <g
           id="g225"
           transform="matrix(0.383765,0,0,-0.383729,126,82.9571)">
          <g
             id="g227"
             transform="translate(-13.0704,16.0947)">
            <path
               d="m 0,0 c 0.06,-0.039 0.118,-0.083 0.178,-0.122 0.621,-0.408 1.224,-0.843 1.816,-1.292 0.098,-0.074 0.195,-0.15 0.293,-0.225 -1.452,-4.773 -1.932,-9.83 -1.354,-14.868 0.645,-5.622 2.537,-10.802 5.365,-15.3 l -32.566,8.727 c 2.145,11.043 8.946,20.846 18.797,26.662 C -7.402,3.559 -7.332,3.536 -7.263,3.513 -5.654,2.966 -4.099,2.294 -2.606,1.512 -2.441,1.426 -2.277,1.338 -2.113,1.249 -1.394,0.856 -0.686,0.445 0,0"
               style="fill:#231f20;fill-opacity:1;fill-rule:nonzero;stroke:none"
               id="path229" />
          </g>
        </g>
        <g
           id="g231"
           transform="matrix(0.383765,0,0,-0.383729,126,82.9571)">
          <g
             id="g233"
             transform="translate(1.6587,-7.6272)">
            <path
               d="M 0,0 C 0.276,-2.404 0.277,-4.776 0.04,-7.089 -0.613,-7.226 -1.267,-7.362 -1.907,-7.534 -2.485,-7.689 -3.056,-7.86 -3.623,-8.043 -6.925,-3.586 -9.144,1.765 -9.822,7.671 -10.275,11.619 -10,15.481 -9.112,19.129 -4.206,14.119 -0.862,7.506 0,0"
               style="fill:#231f20;fill-opacity:1;fill-rule:nonzero;stroke:none"
               id="path235" />
          </g>
        </g>
        <g
           id="g237"
           transform="matrix(0.383765,0,0,-0.383729,126,82.9571)">
          <g
             id="g239"
             transform="translate(5.5627,-18.1174)">
            <path
               d="m 0,0 c 10.477,1.203 20.36,-2.693 27.185,-9.711 0,0 0.001,0 0.001,-10e-4 -1.519,-0.402 -3.086,-0.703 -4.693,-0.888 -8.844,-1.015 -17.264,1.603 -23.781,6.664 0.389,1.276 0.706,2.573 0.953,3.885 C -0.222,-0.037 -0.113,-0.013 0,0"
               style="fill:#231f20;fill-opacity:1;fill-rule:nonzero;stroke:none"
               id="path241" />
          </g>
        </g>
        <g
           id="g243"
           transform="matrix(0.383765,0,0,-0.383729,126,82.9571)">
          <g
             id="g245"
             transform="translate(4.2394,-26.9231)">
            <path
               d="m 0,0 c 6.928,-4.542 15.418,-6.785 24.272,-5.768 1.808,0.207 3.609,0.55 5.355,1.017 l 0.001,0.001 c 0.576,0.154 1.146,0.325 1.712,0.507 0.028,-0.038 0.056,-0.076 0.084,-0.114 0.771,-1.051 1.484,-2.15 2.129,-3.295 0.03,-0.054 0.061,-0.109 0.091,-0.163 0.657,-1.183 1.246,-2.412 1.756,-3.685 0.004,-0.009 0.008,-0.018 0.011,-0.028 -6.352,-9.688 -15.786,-16.699 -26.964,-19.997 z"
               style="fill:#231f20;fill-opacity:1;fill-rule:nonzero;stroke:none"
               id="path247" />
          </g>
        </g>
        <g
           id="g249"
           transform="matrix(0.383765,0,0,-0.383729,126,82.9571)">
          <g
             id="g251"
             transform="translate(37.938,-4.222)">
            <path
               d="m 0,0 c 1.953,-7.29 1.81,-14.8 -0.389,-21.912 -0.223,-0.098 -0.444,-0.2 -0.671,-0.294 -7.141,8.124 -17.751,12.983 -29.18,12.479 L -6.757,13.755 C -3.714,9.766 -1.377,5.139 0,0"
               style="fill:#231f20;fill-opacity:1;fill-rule:nonzero;stroke:none"
               id="path253" />
          </g>
        </g>
        <g
           id="g255"
           transform="matrix(0.383765,0,0,-0.383729,126,82.9571)">
          <g
             id="g257"
             transform="translate(-0.3933,-23.3217)">
            <path
               d="m 0,0 c -3.723,-9.447 -11.747,-16.888 -21.933,-19.617 -0.061,-0.017 -0.125,-0.027 -0.185,-0.043 2.423,10.104 9.578,18.563 19.249,22.578 C -1.967,1.891 -1.008,0.918 0,0"
               style="fill:#231f20;fill-opacity:1;fill-rule:nonzero;stroke:none"
               id="path259" />
          </g>
        </g>
        <g
           id="g261"
           transform="matrix(0.383765,0,0,-0.383729,126,82.9571)">
          <g
             id="g263"
             transform="translate(-39.735,-9.4686)">
            <path
               d="m 0,0 32.058,-8.59 c -5.288,-2.759 -9.872,-6.794 -13.301,-11.79 -2.901,-4.227 -4.853,-8.983 -5.79,-13.947 -0.105,-0.013 -0.208,-0.035 -0.314,-0.048 C 7.018,-29.269 3.018,-22.727 1.025,-15.291 -0.352,-10.152 -0.642,-4.976 0,0"
               style="fill:#231f20;fill-opacity:1;fill-rule:nonzero;stroke:none"
               id="path265" />
          </g>
        </g>
        <g
           id="g267"
           transform="matrix(0.383765,0,0,-0.383729,126,82.9571)">
          <g
             id="g269"
             transform="translate(-23.3634,-52.2502)">
            <path
               d="m 0,0 c -0.022,0.441 -0.038,0.881 -0.042,1.32 -10e-4,0.118 -10e-4,0.236 -10e-4,0.353 0,0.502 0.01,1.002 0.033,1.5 0.002,0.042 0.003,0.084 0.006,0.126 0.028,0.571 0.071,1.139 0.129,1.704 0.653,0.137 1.307,0.273 1.947,0.444 l 10e-4,0.001 c 8.414,2.254 15.775,7.47 20.729,14.687 0.924,1.347 1.751,2.747 2.481,4.19 l 8.352,-31.17 C 22.315,-9.581 10.643,-8.235 0.298,-3.034 0.253,-2.718 0.202,-2.405 0.165,-2.086 0.101,-1.526 0.055,-0.968 0.02,-0.412 0.011,-0.274 0.007,-0.137 0,0"
               style="fill:#231f20;fill-opacity:1;fill-rule:nonzero;stroke:none"
               id="path271" />
          </g>
        </g>
      </g>
    </g>
  </g>
</svg>
