<?xml version="1.0" encoding="UTF-8" standalone="no"?>
<!-- Created with Inkscape (http://www.inkscape.org/) -->

<svg
   width="16.533876"
   height="24"
   viewBox="0 0 4.374588 6.35"
   version="1.1"
   id="svg40002"
   inkscape:version="1.2.1 (9c6d41e4, 2022-07-14)"
   sodipodi:docname="the-path-to-carcosa.svg"
   xmlns:inkscape="http://www.inkscape.org/namespaces/inkscape"
   xmlns:sodipodi="http://sodipodi.sourceforge.net/DTD/sodipodi-0.dtd"
   xmlns="http://www.w3.org/2000/svg"
   xmlns:svg="http://www.w3.org/2000/svg">
  <sodipodi:namedview
     id="namedview40004"
     pagecolor="#505050"
     bordercolor="#eeeeee"
     borderopacity="1"
     inkscape:showpageshadow="0"
     inkscape:pageopacity="0"
     inkscape:pagecheckerboard="0"
     inkscape:deskcolor="#505050"
     inkscape:document-units="mm"
     showgrid="false"
     inkscape:zoom="0.2102413"
     inkscape:cx="40.429734"
     inkscape:cy="147.44962"
     inkscape:window-width="1309"
     inkscape:window-height="456"
     inkscape:window-x="0"
     inkscape:window-y="25"
     inkscape:window-maximized="0"
     inkscape:current-layer="layer1" />
  <defs
     id="defs39999">
    <clipPath
       clipPathUnits="userSpaceOnUse"
       id="clipPath1423">
      <path
         d="m 120.709,264.656 h 55.582 v 55.582 h -55.582 z"
         id="path1421" />
    </clipPath>
  </defs>
  <g
     inkscape:label="Layer 1"
     inkscape:groupmode="layer"
     id="layer1"
     transform="translate(-94.063731,-109.2639)">
    <g
       id="g1417"
       transform="matrix(0.14407453,0,0,-0.14407453,74.876945,154.62692)">
      <g
         id="g1419"
         clip-path="url(#clipPath1423)">
        <g
           id="g1425"
           transform="translate(156.119,294.098)">
          <path
             d="m 0,0 c -1.332,-0.386 -2.54,-0.308 -3.889,-0.119 -0.414,0.058 -0.726,0.135 -0.873,0.317 -0.142,0.177 -0.128,0.453 0.102,0.907 0.238,0.47 0.648,0.836 1.063,1.148 0.783,0.588 1.715,0.99 2.632,1.32 C 0.513,4.103 3.109,4.52 4.561,3.715 3.979,1.842 1.771,0.514 0,0 m -4.954,-7.523 c -0.922,0.141 -2.101,-0.071 -2.691,-0.799 -0.693,0.857 -2.023,1.118 -2.989,0.587 l -0.248,0.031 c 0,0 2.526,1.326 3.1,4.762 0.073,0.44 0.153,0.439 0.22,0.003 0.534,-3.455 2.915,-4.564 2.915,-4.564 -0.159,0.059 -0.141,-0.046 -0.307,-0.02 M -15.53,0 c -1.77,0.514 -3.979,1.842 -4.56,3.715 1.451,0.805 4.048,0.388 5.525,-0.142 0.917,-0.33 1.849,-0.732 2.633,-1.32 0.415,-0.312 0.824,-0.678 1.063,-1.148 0.23,-0.454 0.244,-0.73 0.101,-0.907 -0.146,-0.182 -0.459,-0.259 -0.873,-0.317 C -12.99,-0.308 -14.198,-0.386 -15.53,0 M 7.251,11.663 C 6.892,11.405 6.616,11.027 6.474,10.599 6.428,11.734 5.972,12.846 5.218,13.671 5.089,13.411 4.96,13.151 4.831,12.892 4.569,12.992 4.265,12.933 4.04,12.763 4.032,12.773 4.023,12.783 4.015,12.794 3.93,12.136 3.877,11.545 3.895,11.2 3.917,10.81 4.246,7.637 4.846,7.595 0.174,7.922 -4.102,5.606 -5.96,2.586 -6.08,4.125 -3.903,6.036 -2.151,6.969 -0.399,7.902 1.234,8.1 3.32,8.593 2.894,10.062 2.913,12.555 3.573,14.47 3.434,15.112 3.134,15.726 3.098,16.295 2.962,16.06 2.539,15.262 2.404,15.027 1.838,15.922 1.869,17.031 1.356,18.018 1.312,17.933 1.269,17.848 1.226,17.762 1.02,17.352 0.828,16.924 0.573,16.547 c -0.671,1.035 -0.644,1.892 -1.433,3.121 -0.188,-0.744 -0.377,-1.488 -0.566,-2.232 -0.384,0.625 -0.835,1.247 -1.138,1.915 -0.17,-0.099 -0.32,-0.229 -0.476,-0.357 -0.281,0.12 -0.433,-0.49 -0.529,-0.876 -0.099,0.031 -0.199,0.056 -0.298,0.085 -0.364,0.501 -0.946,1.416 -1.117,1.643 -0.247,-0.262 -0.342,-0.84 -0.51,-1.265 -0.245,0.041 -0.49,0.078 -0.737,0.107 -0.247,0.81 -0.806,1.551 -1.58,2.072 -0.497,-0.893 -1.021,-1.339 -1.571,-2.066 -0.199,-0.022 -0.398,-0.052 -0.597,-0.082 -0.345,0.353 -0.889,0.765 -0.889,0.765 0,0 -0.539,-0.709 -0.839,-1.145 -0.124,-0.035 -0.25,-0.063 -0.372,-0.101 -0.56,0.236 -0.953,0.551 -1.2,1.057 -0.268,-0.697 -0.913,-1.246 -1.128,-2.017 -0.354,-0.18 -0.7,-0.374 -1.039,-0.581 -0.378,0.286 -0.784,0.812 -1.136,1.091 -0.083,-0.834 -0.378,-1.599 -0.339,-2.11 -0.035,-0.028 -0.069,-0.055 -0.103,-0.083 -0.276,0.331 -0.667,0.76 -0.842,1.007 -0.25,-0.627 -0.96,-1.881 -1.062,-2.633 0.466,-1.809 0.43,-3.951 0.048,-5.269 2.085,-0.493 3.719,-0.691 5.471,-1.624 1.752,-0.933 3.96,-2.844 3.84,-4.383 -1.858,3.02 -6.135,5.336 -10.807,5.009 0.6,0.042 0.929,3.215 0.951,3.605 0.021,0.375 -0.044,1.038 -0.142,1.764 -0.021,-0.026 -0.045,-0.051 -0.066,-0.079 -0.012,0.621 -0.147,1.219 -0.477,1.743 -0.04,-0.216 -0.081,-0.432 -0.121,-0.648 -0.587,-0.967 -1.173,-1.934 -1.76,-2.901 -0.094,0.088 -0.188,0.177 -0.282,0.266 -0.368,-1.848 -0.514,-3.743 -0.439,-5.629 -0.211,-1.38 -0.271,-2.785 -0.214,-4.182 0.075,-1.829 1.193,-7.444 2.359,-8.2 2.141,-1.39 3.269,-4.606 3.934,-6.909 0.698,-2.416 2.134,-4.439 2.997,-6.792 0.338,-0.922 0.708,-1.944 1.654,-2.47 1.17,-0.651 2.789,-0.474 4.075,-0.393 0.021,0.001 0.044,0.002 0.065,0.003 0.022,-0.001 0.044,-0.002 0.066,-0.003 1.285,-0.081 2.904,-0.258 4.074,0.393 0.946,0.526 1.317,1.548 1.655,2.47 0.862,2.353 2.298,4.376 2.996,6.792 0.666,2.303 1.793,5.519 3.935,6.909 1.166,0.756 2.284,6.371 2.358,8.2 0.021,0.513 0.026,1.028 0.014,1.542 0.216,2.856 0.215,5.731 -0.005,8.587"
             style="fill:#231f20;fill-opacity:1;fill-rule:nonzero;stroke:none"
             id="path1427" />
        </g>
      </g>
    </g>
  </g>
</svg>
