<?xml version="1.0" encoding="UTF-8" standalone="no"?>
<!-- Created with Inkscape (http://www.inkscape.org/) -->

<svg
   width="22.386404"
   height="24.000002"
   viewBox="0 0 5.9230694 6.3500005"
   version="1.1"
   id="svg12880"
   inkscape:version="1.2.1 (9c6d41e4, 2022-07-14)"
   sodipodi:docname="the-blob-that-ate-everything.svg"
   xmlns:inkscape="http://www.inkscape.org/namespaces/inkscape"
   xmlns:sodipodi="http://sodipodi.sourceforge.net/DTD/sodipodi-0.dtd"
   xmlns="http://www.w3.org/2000/svg"
   xmlns:svg="http://www.w3.org/2000/svg">
  <sodipodi:namedview
     id="namedview12882"
     pagecolor="#505050"
     bordercolor="#eeeeee"
     borderopacity="1"
     inkscape:showpageshadow="0"
     inkscape:pageopacity="0"
     inkscape:pagecheckerboard="0"
     inkscape:deskcolor="#505050"
     inkscape:document-units="mm"
     showgrid="false"
     inkscape:zoom="0.7046647"
     inkscape:cx="161.77907"
     inkscape:cy="180.93712"
     inkscape:window-width="1390"
     inkscape:window-height="941"
     inkscape:window-x="0"
     inkscape:window-y="25"
     inkscape:window-maximized="0"
     inkscape:current-layer="layer1" />
  <defs
     id="defs12877">
    <clipPath
       clipPathUnits="userSpaceOnUse"
       id="clipPath249">
      <path
         d="m 98.369,38.543 h 55.262 V 93.799 H 98.369 Z"
         id="path247" />
    </clipPath>
  </defs>
  <g
     inkscape:label="Layer 1"
     inkscape:groupmode="layer"
     id="layer1"
     transform="translate(-62.370956,-101.20679)">
    <g
       id="g243"
       transform="matrix(0.14277809,0,0,-0.14277809,47.339753,113.66334)">
      <g
         id="g245"
         clip-path="url(#clipPath249)">
        <g
           id="g251"
           transform="matrix(0.3837645,0,0,-0.3837291,126,58.957123)">
          <g
             id="g253"
             transform="translate(51.7646,10.4259)">
            <path
               d="m 0,0 c -0.022,-1.525 -1.339,-2.602 -1.056,-4.102 0.067,-0.354 0.044,-0.986 0.174,-1.295 0.156,-0.374 0.709,-0.482 0.846,-0.973 0.208,-0.75 -0.599,-2.07 -0.845,-2.725 -0.379,-1.009 -0.9,-1.973 -1.147,-3.027 -0.114,-0.48 -0.132,-1.022 -0.363,-1.47 -0.464,-0.902 -1.639,-1.63 -2.373,-2.304 -1.238,-1.137 -2.419,-2.157 -3.45,-3.494 -0.506,-0.656 -0.986,-1.163 -1.662,-1.62 -0.567,-0.383 -1.207,-0.941 -1.898,-1.051 -1.32,-0.42 -2.215,-1.434 -3.1,-2.557 -0.337,-0.428 -0.585,-0.626 -1.032,-0.903 -0.847,-0.522 -1.869,-0.68 -2.789,-1.122 -0.674,-0.323 -1.163,-0.798 -1.901,-1.017 -0.556,-0.166 -1.119,-0.233 -1.683,-0.353 -1.403,-0.298 -3.183,-0.488 -4.572,0.051 -1.477,0.574 -2.497,1.95 -3.996,2.512 -1.293,0.483 -2.972,0.061 -4.382,0.363 -1.486,0.317 -2.753,1.111 -4.195,1.546 -1.802,0.543 -3.195,1.411 -4.75,2.427 -0.83,0.543 -1.599,1.285 -2.585,1.413 -0.596,0.077 -1.136,0.081 -1.516,0.634 -0.276,0.399 -0.221,0.881 -0.318,1.332 -0.162,0.765 -0.44,1.539 -0.67,2.288 -0.563,1.844 -1.441,3.797 -1.604,5.718 -0.106,1.24 0.155,2.247 -0.589,3.339 -0.732,1.076 -1.889,1.837 -2.736,2.853 -0.72,0.863 -0.803,1.571 -0.806,2.66 -0.002,0.736 0.092,1.341 0.231,2.059 0.106,0.541 -0.031,1.067 0.069,1.593 0.125,0.658 0.71,1.045 0.981,1.633 0.182,0.393 0.178,0.751 0.192,1.169 0.04,1.228 0.928,1.99 0.896,3.241 -0.013,0.479 -0.082,1.016 -0.021,1.492 0.044,0.344 0.224,0.457 0.276,0.732 0.061,0.321 -0.071,0.699 0.004,1.012 0.108,0.446 0.469,0.581 0.753,0.922 0.641,0.765 1.381,1.925 1.679,2.856 0.464,1.453 1.315,3.083 2.353,4.225 1.203,1.324 2.495,2.998 4.348,3.172 1.12,0.105 2.124,-0.071 3.229,0.256 1.172,0.348 2.357,0.798 3.363,1.495 1.007,0.698 1.772,1.657 2.664,2.487 0.895,0.835 2.083,1.595 3.181,2.169 0.514,0.267 1.125,0.391 1.619,0.694 0.48,0.294 0.827,0.804 1.308,1.092 0.64,0.384 1.33,0.343 2.044,0.328 1.742,-0.037 3.491,-0.019 5.233,-0.003 0.982,0.009 1.967,0.072 2.906,-0.276 0.755,-0.282 1.286,-0.77 1.948,-1.195 0.767,-0.491 1.757,-0.615 2.436,-1.214 0.726,-0.639 0.887,-1.775 1.508,-2.549 1.204,-1.503 2.639,-2.347 4.228,-3.353 0.728,-0.462 1.166,-1.043 1.748,-1.648 0.582,-0.606 1.371,-0.955 1.961,-1.55 1.33,-1.34 2.157,-2.84 2.966,-4.522 0.427,-0.885 0.745,-1.654 0.858,-2.633 0.114,-0.979 0.378,-1.819 0.56,-2.775 C 0.825,8.459 0.312,6.893 0.271,5.331 0.225,3.551 0.025,1.793 0,0"
               style="fill:#100f0d;fill-opacity:1;fill-rule:nonzero;stroke:none"
               id="path255" />
          </g>
        </g>
        <g
           id="g257"
           transform="matrix(0.3837645,0,0,-0.3837291,126,58.957123)">
          <g
             id="g259"
             transform="translate(-40.3345,-71.4892)">
            <path
               d="m 0,0 c 0.75,0.846 1.604,1.421 2.41,2.228 0.497,0.497 1.128,1.013 1.434,1.642 0.511,1.047 1.452,1.642 2.391,2.388 1.036,0.824 1.688,2.031 2.51,3.052 0.435,0.539 1.003,0.936 1.429,1.47 0.695,0.869 1.317,1.682 2.083,2.509 0.712,0.769 1.452,1.416 2.201,2.139 0.75,0.724 1.327,1.629 2.05,2.383 2.184,2.278 4.668,4.13 6.924,6.317 3.19,3.093 6.718,5.825 9.855,8.978 3.424,3.441 7.249,6.395 10.792,9.696 1.657,1.543 3.415,2.95 5.131,4.423 0.481,0.412 1.017,1.075 1.498,1.414 0.084,0.059 0.251,0.004 0.336,0.057 0.373,0.233 0.649,0.503 1.026,0.796 0.688,0.534 2.505,1.408 3.43,1.269 0.315,-0.047 0.327,-0.192 0.583,-0.312 0.478,-0.224 0.991,-0.398 1.488,-0.594 1.187,-0.466 1.787,-0.008 2.907,0.006 0.967,0.013 1.101,0.308 1.912,0.813 0.601,0.373 1.658,0.568 2.351,0.309 0.333,-0.125 0.563,-0.554 0.882,-0.698 0.674,-0.306 1.942,-0.298 3.823,1.043 0.081,-0.016 0.162,-0.033 0.244,-0.05 0.098,-0.332 0.1,-0.784 0.056,-1.132 -0.059,-0.467 -0.116,-0.328 -0.28,-0.625 -0.6,-1.097 -1.351,-2.025 -2.498,-2.603 C 65.664,46.26 64.29,45.686 62.97,45.104 62.258,44.79 61.969,44.087 61.316,43.676 60.719,43.3 60,43.149 59.425,42.736 58.707,42.22 58.222,41.755 57.412,41.354 56.604,40.954 55.958,40.393 55.25,39.853 53.434,38.468 51.312,37.65 49.445,36.331 47.293,34.811 45.236,33.219 43.235,31.505 41.79,30.267 40.33,29.037 38.847,27.844 37.875,27.062 36.737,26.604 35.753,25.849 33.427,24.064 31.316,22.031 29.049,20.168 26.963,18.455 25.229,16.45 22.851,15.154 22.284,14.845 21.792,14.376 21.291,13.958 20.092,12.956 18.833,12.196 17.566,11.303 15.268,9.684 13.115,7.879 10.958,6.075 9.345,4.726 7.82,3.238 6.079,2.056 4.895,1.252 3.348,-0.025 1.956,-0.404 1.572,-0.508 1.307,-0.419 0.924,-0.633 0.662,-0.781 0.447,-1.022 0.19,-1.19 -0.475,-1.624 -1.433,-1.571 -2.035,-2.057 -1.318,-1.429 -0.63,-0.71 0,0"
               style="fill:#100f0d;fill-opacity:1;fill-rule:nonzero;stroke:none"
               id="path261" />
          </g>
        </g>
        <g
           id="g263"
           transform="matrix(0.3837645,0,0,-0.3837291,126,58.957123)">
          <g
             id="g265"
             transform="translate(1.2295,-13.9872)">
            <path
               d="M 0,0 C 0.972,-0.018 1.317,0.099 2.052,-0.421 2.987,-1.082 3.532,-1.937 4.3,-2.73 4.726,-3.171 4.646,-3.514 4.653,-4.115 4.662,-4.933 4.596,-5.013 3.771,-4.997 3.185,-4.985 2.596,-4.998 2.008,-4.998 2.267,-7.202 1.502,-7.555 0.99,-7.652 0.74,-7.7 0.498,-7.589 0.244,-7.687 -0.081,-7.812 -0.373,-8.242 -0.653,-8.468 -1.15,-8.87 -1.628,-9.247 -2.093,-9.696 c -0.366,-0.353 -0.879,-0.638 -1.206,-1.019 -0.346,-0.401 -0.451,-1.04 -0.868,-1.383 -0.504,-0.414 -1.763,-0.451 -2.358,-0.214 -0.325,0.129 -0.894,0.724 -1.19,0.943 -0.365,0.27 -0.394,0.078 -0.588,0.478 -0.259,0.531 0.13,1.881 0.389,2.322 0.432,0.734 1.156,1.538 1.693,2.187 1.006,1.217 2.016,2.241 2.825,3.591 0.446,0.745 0.969,1.292 1.583,1.912 C -1.138,-0.195 -0.945,0.017 0,0"
               style="fill:#100f0d;fill-opacity:1;fill-rule:nonzero;stroke:none"
               id="path267" />
          </g>
        </g>
        <g
           id="g269"
           transform="matrix(0.3837645,0,0,-0.3837291,126,58.957123)">
          <g
             id="g271"
             transform="translate(-49.0972,-71.9579)">
            <path
               d="M 0,0 C 0.196,0.216 0.384,0.438 0.564,0.667 0.626,0.853 0.633,1.041 0.587,1.232 0.71,1.56 0.616,1.561 0.847,1.865 1.16,2.279 1.74,2.714 2.122,3.072 2.508,3.433 3.277,3.712 3.507,4.174 3.642,4.446 3.472,4.795 3.556,5.092 3.729,5.696 4.409,6.251 4.735,6.77 4.937,7.091 5.077,7.436 5.276,7.759 5.679,8.416 6.143,9.216 6.637,9.79 c 0.585,0.681 1.311,1.245 1.892,1.95 0.622,0.756 1.331,1.452 2.039,2.128 1.139,1.085 2.278,1.917 3.116,3.214 0.875,1.354 2.294,2.493 3.369,3.704 1.41,1.589 2.965,3.111 4.477,4.615 1.59,1.581 3.069,3.328 4.688,4.867 1.594,1.515 3.489,2.762 5.174,4.181 1.253,1.055 2.457,2.186 3.66,3.292 1.033,0.949 1.895,2.175 3.111,2.905 0.649,0.389 1.274,1.053 1.967,1.315 0.753,0.284 1.683,0.222 2.346,-0.269 0.495,-0.365 0.629,-0.887 -0.138,-1.067 C 41.456,40.411 41.55,39.797 41.47,39.298 41.377,38.723 40.812,38.602 40.81,38.035 39.53,37.976 38.475,35.859 37.649,35.046 35.741,33.168 33.859,31.262 31.965,29.37 29.923,27.328 27.858,25.284 25.653,23.416 23.354,21.468 21.064,19.559 19.154,17.212 17.553,15.244 15.39,13.832 13.541,12.12 11.61,10.333 9.56,8.708 7.58,6.983 6.503,6.045 5.348,4.999 4.468,3.866 3.642,2.803 2.698,2.025 1.749,1.073 0.979,0.301 0.249,-0.708 -0.608,-1.379 -0.988,-1.677 -1.17,-1.875 -1.696,-1.681 -1.098,-1.136 -0.533,-0.616 0,0"
               style="fill:#100f0d;fill-opacity:1;fill-rule:nonzero;stroke:none"
               id="path273" />
          </g>
        </g>
        <g
           id="g275"
           transform="matrix(0.3837645,0,0,-0.3837291,126,58.957123)">
          <g
             id="g277"
             transform="translate(-0.5845,-7.5185)">
            <path
               d="m 0,0 c -0.067,-0.359 -0.318,-0.429 -0.568,-0.641 -0.625,-0.531 -1.228,-1.104 -1.792,-1.705 -1.498,-1.593 -2.443,-3.594 -3.977,-5.175 -1.37,-1.41 -2.458,-3.077 -3.865,-4.453 -1.285,-1.256 -2.423,-2.613 -3.529,-4.026 -1.199,-1.533 -2.228,-3.226 -3.622,-4.587 -0.473,-0.462 -1.139,-1.565 -1.823,-1.705 -1.095,-0.225 -0.869,1.091 -0.758,1.82 0.245,1.6 1.074,3.003 1.998,4.315 1.528,2.168 3.195,4.165 4.853,6.234 1.075,1.341 1.771,2.892 2.72,4.315 1.015,1.523 1.441,3.379 2.425,4.876 0.763,1.161 1.096,2.252 2.36,3.025 0.906,0.555 2.096,1.146 3.167,1.25 C -1.402,3.64 -0.953,3.369 -0.646,2.359 -0.523,1.952 -0.496,1.274 -0.583,0.86 -0.702,0.291 -0.667,0.386 0,0"
               style="fill:#100f0d;fill-opacity:1;fill-rule:nonzero;stroke:none"
               id="path279" />
          </g>
        </g>
        <g
           id="g281"
           transform="matrix(0.3837645,0,0,-0.3837291,126,58.957123)">
          <g
             id="g283"
             transform="translate(-5.4248,1.7891)">
            <path
               d="m 0,0 c 0.177,-0.257 0.34,-0.191 0.585,-0.348 0.306,-0.194 0.587,-0.305 0.683,-0.647 -0.61,-0.46 -0.572,-1.288 -1.121,-1.844 -0.733,-0.743 -1.76,-1.348 -2.678,-1.859 -0.564,-0.314 -1.209,-0.534 -1.73,-0.839 -0.93,-0.547 -1.685,-1.474 -2.439,-2.221 -2.594,-2.569 -4.693,-5.605 -7.292,-8.173 -2.584,-2.552 -4.89,-5.463 -7.05,-8.372 -1.125,-1.516 -2.031,-3.082 -2.992,-4.69 -1.194,-1.996 -2.759,-3.687 -4.017,-5.635 -0.7,-1.084 -1.183,-2.267 -2.09,-3.206 -1.084,-1.124 -2.052,-2.318 -2.948,-3.603 -0.99,-1.419 -2.227,-2.734 -3.336,-4.072 -0.815,-0.983 -1.582,-2.017 -2.402,-2.989 -1.446,-1.713 -2.736,-3.534 -3.834,-5.522 -0.656,-1.188 -2.23,-3.801 -3.672,-2.042 -1.252,1.527 0.081,2.571 1.02,3.877 0.78,1.083 1.841,1.808 2.521,2.956 0.58,0.979 1.272,1.849 1.766,2.875 0.36,0.75 0.828,1.417 1.234,2.117 0.586,1.01 1.614,1.797 2.03,2.904 0.139,0.371 -10e-4,0.536 0.295,0.912 0.463,0.588 1.142,1.013 1.624,1.589 0.557,0.665 0.94,1.488 1.439,2.188 0.299,0.42 0.442,0.831 0.641,1.3 0.321,0.758 0.89,1.565 1.357,2.249 0.564,0.828 1.389,1.481 1.949,2.303 0.338,0.495 0.182,0.416 0.332,0.942 0.222,0.781 1.228,1.488 1.723,2.051 0.901,1.027 1.66,2.172 2.45,3.283 3.07,4.32 6.591,8.215 10.151,12.137 1.583,1.742 2.96,3.599 4.491,5.385 0.453,0.528 1.038,0.972 1.47,1.507 0.357,0.44 0.532,0.945 0.847,1.409 0.222,0.326 0.545,0.573 0.817,0.85 0.571,0.582 0.911,1.268 1.335,1.954 0.534,0.862 1.24,1.568 1.972,2.263 0.805,0.764 1.586,0.581 2.668,0.582 0.733,0.001 1.715,0.177 2.415,-0.044 C 1.015,1.273 0.919,0.712 1.23,0.086 1.354,-0.164 1.548,-0.192 1.622,-0.471 1.669,-0.651 1.636,-0.831 1.629,-1.016 -0.176,1.306 -0.293,0.426 0,0"
               style="fill:#100f0d;fill-opacity:1;fill-rule:nonzero;stroke:none"
               id="path285" />
          </g>
        </g>
        <g
           id="g287"
           transform="matrix(0.3837645,0,0,-0.3837291,126,58.957123)">
          <g
             id="g289"
             transform="translate(-3.7686,0.4708)">
            <path
               d="M 0,0 C -0.03,0.103 -0.031,0.203 -0.027,0.303 0.061,0.19 0.148,0.078 0.244,-0.051 0.163,-0.034 0.082,-0.017 0,0"
               style="fill:#100f0d;fill-opacity:1;fill-rule:nonzero;stroke:none"
               id="path291" />
          </g>
        </g>
        <g
           id="g293"
           transform="matrix(0.3837645,0,0,-0.3837291,126,58.957123)">
          <g
             id="g295"
             transform="translate(-50.6489,-60.1474)">
            <path
               d="m 0,0 c 0.281,0.75 0.71,1.476 1.286,2.036 0.275,0.268 0.758,0.461 0.972,0.772 0.167,0.241 0.101,0.451 0.218,0.698 0.653,1.378 1.957,2.515 2.757,3.822 0.683,1.116 1.65,2.04 2.417,3.1 0.516,0.713 0.919,1.497 1.438,2.198 0.903,1.223 2.243,2.055 3.233,3.201 0.654,0.757 1.22,1.606 1.925,2.321 0.924,0.94 1.956,1.786 2.886,2.728 2.125,2.153 4.422,3.972 6.332,6.337 0.605,0.75 2.043,1.78 2.197,2.777 0.052,-0.88 -0.294,-2.98 -0.292,-3.526 0.004,-1.495 -1.205,-2.568 -1.924,-3.83 C 22.858,21.603 22.112,20.893 21.25,20.004 19.899,18.61 18.749,17.016 17.356,15.648 15.865,14.184 14.408,12.742 12.795,11.386 11.934,10.662 10.945,10.125 10.078,9.389 9.022,8.494 8.129,7.544 7.213,6.527 6.459,5.691 5.563,4.974 4.788,4.146 4.312,3.638 3.752,3.264 3.257,2.774 2.673,2.197 2.243,1.46 1.764,0.8 0.826,-0.494 -0.227,-1.645 -1.362,-2.766 -1.628,-3.028 -2.146,-3.845 -2.534,-3.8 c -0.084,0.562 1.122,1.578 1.446,1.964 C -0.552,-1.198 -0.286,-0.762 0,0"
               style="fill:#100f0d;fill-opacity:1;fill-rule:nonzero;stroke:none"
               id="path297" />
          </g>
        </g>
        <g
           id="g299"
           transform="matrix(0.3837645,0,0,-0.3837291,126,58.957123)">
          <g
             id="g301"
             transform="translate(52.0186,-9.4892)">
            <path
               d="m 0,0 c -1.94,-3.775 -4.854,-6.936 -7.765,-10.06 -0.704,-0.491 -1.405,-0.983 -2.072,-1.602 -1.076,-0.998 -1.934,-2.047 -2.929,-3.111 -1.767,-1.892 -3.841,-3.561 -5.731,-5.327 -0.859,-0.802 -1.904,-1.284 -2.79,-2.052 -1.071,-0.929 -1.895,-1.728 -3.101,-2.491 -2.338,-1.478 -4.67,-2.997 -7.002,-4.502 -2.089,-1.349 -4.106,-2.755 -6.153,-4.181 -1.272,-0.887 -2.639,-1.564 -3.861,-2.533 -1.757,-1.391 -3.568,-2.688 -5.301,-4.112 -0.675,-0.553 -1.451,-1.054 -2.094,-1.635 -0.242,-0.218 -0.427,-0.585 -0.661,-0.78 -0.309,-0.256 -0.688,-0.448 -1.036,-0.264 0.422,1.303 2.427,2.439 3.393,3.291 1.675,1.475 3.207,3.086 4.86,4.583 1.359,1.231 2.691,2.443 3.972,3.756 1.032,1.059 2.3,1.734 3.362,2.735 1.421,1.34 3.199,2.196 4.667,3.509 1.414,1.265 2.878,2.493 4.41,3.593 0.647,0.465 1.079,1.142 1.719,1.617 0.737,0.546 1.619,0.867 2.404,1.331 1.192,0.703 2.544,1.353 3.489,2.331 0.645,0.665 1.291,1.286 1.874,2.012 0.258,0.291 0.509,0.588 0.753,0.89 0.03,0.183 0.058,0.366 0.085,0.55 0.525,0.997 1.364,1.734 2.156,2.513 0.956,0.938 1.541,2.191 2.544,3.084 0.875,0.78 1.802,1.41 2.53,2.351 0.786,1.018 1.604,1.771 2.594,2.593 2.326,1.93 4.726,4.366 6.019,7.116 C 0.854,6.307 1.119,7.414 1.79,8.439 1.895,8.6 1.985,8.764 2.08,8.927 1.97,5.895 1.494,2.905 0,0"
               style="fill:#100f0d;fill-opacity:1;fill-rule:nonzero;stroke:none"
               id="path303" />
          </g>
        </g>
        <g
           id="g305"
           transform="matrix(0.3837645,0,0,-0.3837291,126,58.957123)">
          <g
             id="g307"
             transform="translate(-14.9316,21.1202)">
            <path
               d="m 0,0 c 0.637,0.922 1.087,1.957 1.94,2.712 0.567,0.501 1.093,0.988 1.595,1.566 0.467,0.538 0.911,1.13 1.364,1.719 1.524,1.365 3.071,2.706 4.662,3.986 0.035,0.02 0.068,0.038 0.104,0.058 0.956,0.541 1.728,1.15 2.721,1.61 1.178,0.545 2.115,1.488 3.046,2.442 3.756,2.024 7.986,3.027 11.974,4.586 0.101,-0.27 0.164,-0.525 0.159,-0.73 -0.013,-0.716 -0.715,-2.499 -1.428,-2.792 -0.475,-0.195 -2.104,-0.084 -2.625,0.064 l -0.05,0.243 C 21.619,14.667 21.042,15.292 20.24,15.189 19.322,15.071 18.422,14.096 17.566,13.7 16.764,13.329 16.274,12.592 15.735,11.919 14.642,10.551 13.235,9.345 11.989,8.107 10.043,6.174 7.963,4.146 6.424,1.874 5.514,0.531 4.201,-0.556 3.173,-1.818 2.096,-3.143 0.802,-4.333 -0.352,-5.592 c -1.524,-1.663 -3.301,-3.015 -4.846,-4.649 -1.761,-1.863 -3.755,-3.599 -5.438,-5.517 -2.768,-3.156 -6.113,-5.748 -8.806,-8.971 -0.797,-0.954 -1.743,-1.744 -2.497,-2.733 -0.724,-0.951 -1.474,-1.82 -2.247,-2.734 -1.23,-1.453 -2.605,-2.762 -3.804,-4.242 -1.601,-1.974 -2.99,-4.127 -4.722,-5.983 -0.72,-0.771 -1.391,-1.579 -2.084,-2.372 -0.316,-0.362 -0.632,-1.122 -1.081,-1.338 -0.214,0.521 -0.054,0.985 0.249,1.401 0.753,1.039 1.897,1.814 2.585,2.931 0.793,1.286 1.624,2.548 2.471,3.817 0.57,0.854 1.345,1.485 1.881,2.362 0.505,0.826 1.081,1.56 1.603,2.34 0.364,0.546 0.449,1.128 0.862,1.695 0.351,0.482 0.6,0.993 0.952,1.469 0.498,0.674 0.308,0.32 0.509,0.948 0.1,0.311 0.044,0.223 0.265,0.565 0.393,0.609 1.04,1.228 1.515,1.802 0.783,0.947 1.719,1.846 2.33,2.903 0.786,1.361 2.096,2.799 3.249,3.869 0.658,0.609 1.425,1.045 2.042,1.702 0.821,0.874 1.557,1.818 2.383,2.69 1.027,1.086 1.902,2.312 2.941,3.398 0.718,0.75 1.537,1.37 2.269,2.093 0.676,0.667 1.053,1.514 1.833,2.09 0.694,0.513 1.271,1.03 1.886,1.652 C -2.603,-2.938 -1.173,-1.699 0,0"
               style="fill:#100f0d;fill-opacity:1;fill-rule:nonzero;stroke:none"
               id="path309" />
          </g>
        </g>
        <g
           id="g311"
           transform="matrix(0.3837645,0,0,-0.3837291,126,58.957123)">
          <g
             id="g313"
             transform="translate(-8.229,10.711)">
            <path
               d="M 0,0 C -1.739,0.914 -1.431,0.003 -2.427,-1.109 -2.934,-1.676 -3.456,-2.15 -4.035,-2.64 -4.62,-3.135 -5.028,-3.692 -5.623,-4.16 c -1.122,-0.881 -2.118,-1.815 -3.305,-2.599 -2.461,-1.626 -4.58,-3.48 -6.707,-5.504 -1.665,-1.584 -3.322,-2.985 -4.627,-4.909 -0.558,-0.823 -1.157,-1.605 -1.776,-2.384 -0.316,-0.395 -0.572,-0.928 -1.092,-1 0.386,0.568 0.706,1.184 1.131,1.725 0.678,0.862 1.828,1.669 2.257,2.667 0.182,0.423 0.18,0.79 0.495,1.178 0.31,0.381 0.747,0.62 1.078,0.99 0.846,0.948 1.653,1.896 2.561,2.798 0.869,0.862 1.605,1.751 2.402,2.675 0.63,0.73 1.555,1.237 2.136,1.982 0.563,0.724 0.758,1.662 1.45,2.374 0.644,0.663 1.225,1.362 1.801,2.085 1.73,2.171 3.937,3.826 5.408,6.219 C -1.819,5.1 -1.211,6.118 0,5.813 1.54,5.427 1.933,4.181 1.623,2.671 1.443,1.798 1.086,0.231 0,0"
               style="fill:#100f0d;fill-opacity:1;fill-rule:nonzero;stroke:none"
               id="path315" />
          </g>
        </g>
        <g
           id="g317"
           transform="matrix(0.3837645,0,0,-0.3837291,126,58.957123)">
          <g
             id="g319"
             transform="translate(-49.6421,-38.9906)">
            <path
               d="m 0,0 c 0.346,0.431 0.729,0.828 1.148,1.188 0.621,0.638 0.864,1.33 1.325,2.059 0.93,1.472 2.441,2.521 3.076,4.13 0.543,1.377 1.631,2.605 2.657,3.677 1.25,1.308 2.539,2.626 3.747,3.96 0.877,0.969 1.474,2.052 2.235,3.091 0.656,0.896 1.259,1.834 1.947,2.717 0.406,0.521 0.744,1.077 1.138,1.601 0.518,0.689 1.244,1.164 1.859,1.756 1.388,1.336 2.651,2.962 3.479,4.714 0.896,1.896 1.594,3.95 3.139,5.451 0.978,0.951 2.009,1.834 3.028,2.737 0.877,0.777 1.801,0.849 2.931,0.859 0.896,0.008 1.632,-0.122 1.478,-1.183 -0.055,-0.374 -0.055,-0.6 -0.36,-0.882 -0.341,-0.312 -0.831,-0.202 -1.117,-0.581 -0.29,-0.415 -0.706,-0.675 -0.857,-1.028 -0.106,-0.248 -0.099,-0.506 -0.238,-0.751 -0.237,-0.417 -0.6,-0.861 -0.89,-1.241 C 29.212,31.6 28.551,31.028 28.017,30.361 27.34,29.516 26.697,28.566 25.859,27.876 23.877,26.246 22.092,24.412 20.255,22.605 19.404,21.768 18.747,20.72 17.908,19.861 16.977,18.907 15.917,18.139 15.061,17.101 14.436,16.344 13.82,15.549 13.23,14.765 12.961,14.408 12.895,14.042 12.637,13.69 12.276,13.198 11.543,12.832 11.121,12.376 10.183,11.363 9.46,10.288 8.749,9.125 8.356,8.483 7.916,8.014 7.407,7.479 6.951,7.001 6.75,6.424 6.375,5.896 5.56,4.75 4.416,3.801 3.557,2.674 2.496,1.282 1.553,-0.204 0.244,-1.399 c -1.042,-0.95 -2.106,-1.967 -3.036,-3.021 -0.327,-0.37 -0.964,-1.452 -1.566,-1.116 0.253,0.365 0.479,0.611 0.785,0.851 0.273,0.214 0.439,0.244 0.662,0.574 0.355,0.525 0.663,1.071 1.023,1.558 0.409,0.554 0.791,1.025 1.245,1.499 C -0.413,-0.712 -0.199,-0.361 0,0"
               style="fill:#100f0d;fill-opacity:1;fill-rule:nonzero;stroke:none"
               id="path321" />
          </g>
        </g>
      </g>
    </g>
  </g>
</svg>
