<?xml version="1.0" encoding="UTF-8" standalone="no"?>
<!-- Created with Inkscape (http://www.inkscape.org/) -->

<svg
   width="22.248577"
   height="24"
   viewBox="0 0 5.8866026 6.35"
   version="1.1"
   id="svg25162"
   inkscape:version="1.2.1 (9c6d41e4, 2022-07-14)"
   sodipodi:docname="armitages_fate.svg"
   xmlns:inkscape="http://www.inkscape.org/namespaces/inkscape"
   xmlns:sodipodi="http://sodipodi.sourceforge.net/DTD/sodipodi-0.dtd"
   xmlns="http://www.w3.org/2000/svg"
   xmlns:svg="http://www.w3.org/2000/svg">
  <sodipodi:namedview
     id="namedview25164"
     pagecolor="#505050"
     bordercolor="#eeeeee"
     borderopacity="1"
     inkscape:showpageshadow="0"
     inkscape:pageopacity="0"
     inkscape:pagecheckerboard="0"
     inkscape:deskcolor="#505050"
     inkscape:document-units="mm"
     showgrid="false"
     inkscape:zoom="0.70199214"
     inkscape:cx="82.622007"
     inkscape:cy="240.74343"
     inkscape:window-width="1390"
     inkscape:window-height="938"
     inkscape:window-x="0"
     inkscape:window-y="25"
     inkscape:window-maximized="0"
     inkscape:current-layer="layer1" />
  <defs
     id="defs25159">
    <clipPath
       clipPathUnits="userSpaceOnUse"
       id="clipPath5441">
      <path
         d="m 379.15,42.86 h 24.7 v 21.06 h -24.7 z"
         id="path5439" />
    </clipPath>
  </defs>
  <g
     inkscape:label="Layer 1"
     inkscape:groupmode="layer"
     id="layer1"
     transform="translate(-83.281767,-84.927825)">
    <g
       id="g5435"
       transform="matrix(0.34278003,0,0,-0.34278003,-48.053332,106.31394)">
      <g
         id="g5437"
         clip-path="url(#clipPath5441)">
        <g
           id="g5443"
           transform="translate(391.452,50.1624)">
          <path
             d="m 0,0 c 0.059,-0.014 0.118,-0.025 0.179,-0.032 -0.353,0.686 -1.156,1.067 -1.464,1.775 -0.162,0.372 -0.166,0.796 -0.101,1.197 0.05,0.157 0.1,0.313 0.15,0.47 0.095,0.3 0.194,0.605 0.38,0.858 0.382,0.52 0.804,0.511 1.373,0.325 C 0.768,4.512 0.915,4.286 1.18,4.206 1.609,4.075 1.923,3.88 2.253,3.582 2.387,3.46 2.462,3.431 2.663,3.366 2.666,3.325 2.673,3.283 2.696,3.242 2.731,3.178 2.831,3.139 2.865,3.084 2.911,3.011 2.86,2.916 2.844,2.845 2.813,2.703 2.928,2.415 2.864,2.322 2.822,2.262 2.754,2.217 2.73,2.147 2.718,2.11 2.72,2.07 2.725,2.031 2.74,1.893 2.779,1.758 2.841,1.635 c 0.034,-0.069 -0.025,0.072 0,0 C 2.914,1.419 2.777,1.175 2.663,0.978 2.5,0.695 2.245,0.565 1.934,0.463 1.507,0.322 1.116,0.433 0.669,0.377 0.456,0.351 -0.243,0.701 -0.561,0.839 -0.568,0.755 -0.708,0.429 -0.747,0.355 c -0.046,0.013 0.777,-0.39 0.796,-0.38 0.328,-0.136 0.684,-0.169 1.032,-0.241 0.064,-0.013 0.179,-0.049 0.24,-0.05 0.064,-0.001 0.054,0.023 0.105,0.03 0.223,0.03 0.42,0.051 0.612,0.121 0.184,0.067 0.459,0.119 0.619,0.204 0.115,0.06 0.179,0.186 0.285,0.255 0.097,0.064 0.216,0.12 0.294,0.194 C 3.365,0.61 3.371,0.769 3.463,0.903 3.565,1.055 3.589,1.224 3.695,1.372 3.792,1.506 3.843,1.626 3.869,1.782 3.907,2.005 3.634,2.214 3.643,2.429 3.649,2.557 3.682,2.659 3.659,2.799 3.645,2.89 3.628,2.97 3.639,3.057 3.661,3.236 3.631,3.365 3.538,3.56 3.347,3.964 3.186,4.231 2.83,4.505 2.509,4.752 2.303,5.018 1.963,5.252 1.852,5.328 1.79,5.425 1.673,5.497 1.621,5.529 1.575,5.532 1.53,5.563 0.537,6.259 -0.773,5.383 -1.622,4.827 -1.882,4.656 -2.148,4.479 -2.32,4.221 -2.675,3.685 -2.527,2.973 -2.34,2.358 -2.225,1.983 -2.098,1.603 -1.862,1.29 -1.653,1.014 -1.37,0.805 -1.092,0.6 -0.755,0.352 -0.401,0.097 0,0"
             style="fill:#231f20;fill-opacity:1;fill-rule:nonzero;stroke:none"
             id="path5445" />
        </g>
        <g
           id="g5447"
           transform="translate(383.148,62.3492)">
          <path
             d="M 0,0 C 0.02,0.004 0.036,0.017 0.045,0.041 0.047,-0.025 -0.013,-0.139 0.001,-0.19 0.018,-0.254 0.114,-0.261 0.152,-0.286 0.273,-0.363 0.321,-0.417 0.328,-0.604 0.331,-0.682 0.327,-0.776 0.339,-0.852 0.361,-1.002 0.358,-0.903 0.422,-0.985 0.486,-1.067 0.474,-1.085 0.485,-1.215 0.501,-1.397 0.489,-1.4 0.593,-1.502 0.77,-1.676 0.775,-1.932 0.869,-2.198 0.932,-2.375 0.995,-2.552 1.057,-2.729 1.166,-3.035 1.276,-3.382 1.287,-3.728 1.292,-3.87 1.286,-3.944 1.342,-4.04 1.402,-4.143 1.501,-4.171 1.563,-4.274 1.639,-4.396 1.662,-4.602 1.752,-4.74 1.921,-4.996 2.121,-5.21 2.34,-5.367 2.402,-5.411 2.466,-5.453 2.519,-5.518 2.607,-5.627 2.651,-5.79 2.692,-5.945 2.855,-6.567 3.019,-7.19 3.182,-7.812 3.22,-7.955 3.259,-8.102 3.33,-8.217 c 0.065,-0.104 0.151,-0.174 0.23,-0.256 0.381,-0.4 0.459,-0.93 0.506,-1.551 0.005,-0.067 0.011,-0.139 0.042,-0.19 0.026,-0.044 0.064,-0.066 0.101,-0.086 0.382,-0.208 0.56,-0.305 0.768,-0.827 0.051,-0.125 0.124,-0.22 0.176,-0.34 0.067,-0.156 0.084,-0.409 0.113,-0.588 0.028,-0.174 0.05,-0.263 0.102,-0.401 0.132,-0.35 0.202,-0.452 0.444,-0.699 0.05,-0.05 0.101,-0.103 0.133,-0.177 0.043,-0.098 0.055,-0.235 0.127,-0.288 0.031,-0.022 0.068,-0.024 0.094,-0.056 0.028,-0.034 0.035,-0.092 0.039,-0.144 0.014,-0.146 0.027,-0.292 0.04,-0.439 0.394,-0.078 0.839,-0.202 1.059,-0.686 0.056,-0.125 0.101,-0.277 0.196,-0.334 0.079,-0.048 0.174,-0.015 0.247,-0.079 0.04,-0.035 0.066,-0.094 0.092,-0.151 0.202,-0.457 0.391,-0.917 0.584,-1.378 0.06,-0.143 0.173,-0.232 0.231,-0.362 0.053,-0.122 0.055,-0.246 0.117,-0.363 0.129,-0.246 0.219,-0.509 0.336,-0.76 0.023,-0.05 0.048,-0.09 0.087,-0.112 0.156,0.257 0.224,0.658 0.399,0.946 0.244,0.401 0.553,0.719 0.898,0.922 0.041,0.024 0.086,0.049 0.112,0.102 0.064,0.125 0.021,0.351 0.055,0.5 0.042,0.18 0.149,0.317 0.182,0.508 0.065,0.372 0.24,0.701 0.445,0.933 0.03,0.034 0.064,0.068 0.102,0.071 0.039,0.004 0.077,-0.023 0.115,-0.019 0.054,0.004 0.095,0.064 0.132,0.118 0.17,0.248 0.403,0.452 0.598,0.687 0.255,0.307 0.147,0.258 0.134,0.746 -0.016,0.556 0.122,1.308 0.353,1.749 0.223,0.424 0.485,0.807 0.775,1.135 0.12,0.134 0.249,0.267 0.314,0.465 0.047,0.141 0.057,0.302 0.091,0.45 0.103,0.449 0.401,0.725 0.67,0.991 0.418,0.413 0.737,1.141 0.829,1.869 0.027,0.218 0.082,0.432 0.094,0.654 0.014,0.251 0.003,0.468 0.038,0.723 0.049,0.361 -0.021,0.562 0.21,0.813 0.112,0.121 0.225,0.243 0.337,0.366 0.12,0.13 0.241,0.262 0.332,0.433 0.231,0.435 0.429,1.116 0.498,1.629 0.023,0.171 0.144,0.256 0.152,0.436 0.007,0.159 -0.044,0.287 0.018,0.431 0.031,0.073 0.074,0.093 0.083,0.19 0.007,0.087 -0.018,0.153 0.012,0.241 -0.101,0.047 -0.076,-0.112 -0.104,-0.189 -0.015,-0.043 -0.057,-0.144 -0.087,-0.173 -0.042,-0.041 -0.112,-0.025 -0.162,-0.064 -0.058,-0.045 -0.123,-0.094 -0.183,-0.142 -0.1,-0.081 -0.137,-0.243 -0.229,-0.332 -0.406,-0.302 -0.726,-0.799 -1.136,-1.131 -0.113,-0.091 -0.23,-0.175 -0.329,-0.295 -0.426,-0.516 -1.034,-1.585 -1.068,-2.419 -0.006,-0.161 0.013,-0.328 -0.021,-0.481 -0.016,-0.072 -0.044,-0.137 -0.072,-0.2 -0.298,-0.66 -0.736,-1.001 -1.122,-1.523 -0.1,-0.136 -0.11,-0.204 -0.11,-0.382 0,-0.426 -0.247,-0.791 -0.356,-1.166 -0.176,-0.605 -0.301,-1.253 -0.45,-1.874 -0.017,-0.073 -0.035,-0.147 -0.066,-0.209 -0.032,-0.066 -0.077,-0.116 -0.121,-0.165 -0.133,-0.148 -0.267,-0.296 -0.4,-0.445 -0.094,-0.104 -0.189,-0.21 -0.264,-0.341 -0.12,-0.208 -0.189,-0.476 -0.332,-0.652 -0.108,-0.134 -0.259,-0.216 -0.316,-0.405 -0.051,-0.165 -0.013,-0.358 -0.003,-0.539 0.024,-0.415 -0.143,-0.381 -0.324,-0.531 -0.061,-0.05 -0.096,-0.224 -0.155,-0.293 -0.061,-0.071 -0.161,-0.121 -0.193,-0.247 -0.027,-0.106 0,-0.16 -0.042,-0.261 -0.042,-0.101 -0.078,-0.155 -0.108,-0.27 -0.021,-0.079 -0.038,-0.145 -0.076,-0.21 -0.007,-0.012 -0.917,1.117 -0.996,1.18 -0.136,0.109 -0.284,0.197 -0.404,0.342 -0.12,0.144 -0.206,0.336 -0.287,0.528 -0.319,0.76 -0.584,1.573 -0.971,2.267 -0.312,0.559 -0.481,1.054 -0.711,1.671 -0.182,0.49 -0.364,0.981 -0.547,1.471 -0.147,0.395 -0.3,0.802 -0.541,1.088 -0.142,0.168 -0.33,0.343 -0.321,0.603 -0.107,-0.014 -0.211,0.059 -0.308,0.13 -0.421,0.308 -0.86,0.639 -1.131,1.197 C 2.835,-4.26 2.783,-3.493 2.542,-2.852 2.105,-1.683 1.196,-1.253 0.535,-0.423 0.494,-0.371 0.449,-0.324 0.402,-0.291 0.357,-0.26 0.228,-0.158 0.181,-0.176 0.266,-0.175 0.352,-0.171 0,0"
             style="fill:#231f20;fill-opacity:1;fill-rule:nonzero;stroke:none"
             id="path5449" />
        </g>
      </g>
    </g>
  </g>
</svg>
