<?xml version="1.0" encoding="UTF-8" standalone="no"?>
<!-- Created with Inkscape (http://www.inkscape.org/) -->

<svg
   width="20.65415"
   height="24"
   viewBox="0 0 5.4647437 6.35"
   version="1.1"
   id="svg25867"
   inkscape:version="1.2.1 (9c6d41e4, 2022-07-14)"
   sodipodi:docname="blood_on_the_altar.svg"
   xmlns:inkscape="http://www.inkscape.org/namespaces/inkscape"
   xmlns:sodipodi="http://sodipodi.sourceforge.net/DTD/sodipodi-0.dtd"
   xmlns="http://www.w3.org/2000/svg"
   xmlns:svg="http://www.w3.org/2000/svg">
  <sodipodi:namedview
     id="namedview25869"
     pagecolor="#505050"
     bordercolor="#eeeeee"
     borderopacity="1"
     inkscape:showpageshadow="0"
     inkscape:pageopacity="0"
     inkscape:pagecheckerboard="0"
     inkscape:deskcolor="#505050"
     inkscape:document-units="mm"
     showgrid="false"
     inkscape:zoom="0.70199214"
     inkscape:cx="51.282625"
     inkscape:cy="314.81834"
     inkscape:window-width="1390"
     inkscape:window-height="938"
     inkscape:window-x="0"
     inkscape:window-y="25"
     inkscape:window-maximized="0"
     inkscape:current-layer="layer1" />
  <defs
     id="defs25864">
    <clipPath
       clipPathUnits="userSpaceOnUse"
       id="clipPath10973">
      <path
         d="m 55.717,119.012 h 24.7 v 24.7 h -24.7 z"
         id="path10971" />
    </clipPath>
  </defs>
  <g
     inkscape:label="Layer 1"
     inkscape:groupmode="layer"
     id="layer1"
     transform="translate(-91.504375,-65.31196)">
    <g
       id="g10967"
       transform="matrix(0.27736153,0,0,-0.27736153,75.269789,104.92193)">
      <g
         id="g10969"
         clip-path="url(#clipPath10973)">
        <g
           id="g10975"
           transform="translate(76.8252,131.7)">
          <path
             d="m 0,0 c -0.037,-0.897 -0.151,-1.995 -0.5,-2.832 -0.428,-1.027 -1.077,-2.196 -1.9,-2.923 -0.632,-0.558 -1.037,-1.363 -1.684,-1.879 -0.588,-0.468 -1.215,-1.009 -1.915,-1.276 -0.854,-0.325 -1.652,-0.503 -2.578,-0.411 -0.84,0.085 -1.805,0.189 -2.616,0.422 -0.346,0.1 -0.743,0.153 -1.064,0.316 -0.395,0.2 -0.665,0.546 -0.986,0.854 -0.363,0.347 -0.755,0.677 -1.139,1.005 -0.321,0.274 -0.723,0.451 -1.017,0.74 -0.611,0.598 -0.604,1.678 -0.963,2.439 -0.307,0.651 -0.371,1.123 -0.371,1.836 0,0.357 0.007,0.715 0,1.072 -0.019,0.903 -0.191,1.707 0.206,2.533 0.389,0.807 0.868,1.56 1.202,2.386 0.327,0.807 0.782,1.462 1.286,2.144 0.163,0.177 0.341,0.298 0.485,0.427 0.907,0.812 2.242,1.412 3.558,1.47 0.798,0.036 1.608,0 2.403,-0.039 C -6.312,8.222 -5.065,7.693 -3.994,6.987 -2.438,5.962 -0.628,4.76 -0.134,2.862 0.129,1.853 0.043,1.04 0,0 M 1.213,1.223 C 1.213,1.675 1.235,2.01 1.06,2.415 0.718,3.211 0.564,4.021 0.3,4.843 0.13,5.374 0.084,5.28 -0.289,5.48 -0.838,5.775 -1.365,6.273 -1.863,6.658 -2.216,6.93 -2.614,7.163 -2.992,7.391 -3.439,7.66 -3.77,7.974 -4.181,8.292 -4.933,8.873 -6.408,9.401 -7.4,9.387 -8.267,9.374 -9.113,9.234 -9.998,9.234 c -0.603,0 -1.198,0.088 -1.743,-0.174 -0.357,-0.172 -0.641,-0.405 -0.975,-0.62 -0.443,-0.285 -0.979,-0.402 -1.344,-0.799 -0.059,-0.064 -0.102,-0.165 0.021,-0.167 -0.748,-0.162 -1.67,-1.67 -2.069,-2.173 -0.31,-0.39 -0.372,-0.663 -0.539,-1.1 -0.199,-0.521 -0.493,-1.069 -0.734,-1.584 -0.222,-0.471 -0.582,-0.911 -0.776,-1.375 -0.12,-0.288 -0.119,-0.752 -0.132,-1.06 -0.052,-1.262 0.417,-2.454 0.737,-3.671 0.283,-1.078 0.479,-2.11 1.15,-3.033 0.279,-0.382 0.825,-0.873 1.253,-1.131 0.447,-0.27 0.753,-0.566 1.147,-0.954 0.4,-0.396 0.812,-0.749 1.332,-0.98 0.452,-0.201 0.943,-0.244 1.403,-0.376 0.239,-0.069 0.446,-0.134 0.696,-0.154 0.887,-0.074 2.051,-0.588 2.906,-0.376 0.635,0.158 1.263,0.463 1.905,0.642 0.435,0.121 0.914,0.161 1.303,0.359 0.161,0.082 0.307,0.199 0.478,0.285 0.283,0.144 0.616,0.195 0.867,0.401 0.163,0.133 0.288,0.34 0.458,0.484 0.383,0.327 0.756,0.621 1.025,1.07 0.214,0.356 0.3,0.749 0.564,1.057 0.352,0.412 0.834,0.718 1.095,1.204 0.588,1.097 1.303,2.385 1.373,3.661 0.049,0.887 -0.19,1.677 -0.19,2.553"
             style="fill:#231f20;fill-opacity:1;fill-rule:nonzero;stroke:none"
             id="path10977" />
        </g>
        <g
           id="g10979"
           transform="translate(69.367,122.187)">
          <path
             d="m 0,0 c -0.064,-0.308 0.046,-0.664 -0.007,-0.975 -0.038,-0.219 -0.097,-0.544 -0.353,-0.641 -0.145,-0.054 -0.899,0.033 -1.015,0.107 -0.463,0.292 -0.723,2.663 -0.427,3.118 0.393,0.604 1.114,0.896 1.633,0.259 C 0.038,1.613 0.048,1.172 0.116,0.842 0.201,0.426 0.076,0.365 0,0 m 0.748,1.415 c -0.251,0.781 -0.325,0.976 -1.334,1.032 -0.376,0.021 -2.165,0.318 -1.963,-0.62 0.05,-1.253 -0.174,-2.456 0.375,-3.664 0.647,-0.059 1.849,-0.706 2.56,-0.303 0.414,0.235 0.329,1.148 0.407,1.587 0.112,0.631 0.156,1.344 -0.045,1.968"
             style="fill:#231f20;fill-opacity:1;fill-rule:nonzero;stroke:none"
             id="path10981" />
        </g>
        <g
           id="g10983"
           transform="translate(69.0576,125.882)">
          <path
             d="m 0,0 c -0.094,-0.355 -0.047,-0.787 -0.133,-1.147 -0.06,-0.253 -0.151,-0.63 -0.38,-0.713 -0.128,-0.047 -0.751,0.142 -0.839,0.242 -0.351,0.398 -0.261,3.221 0.046,3.72 0.137,0.34 0.536,0.555 0.907,0.556 C 0.336,2.661 0.19,1.435 0.207,0.978 0.225,0.479 0.112,0.421 0,0 m 0.813,1.579 c -0.11,0.949 -0.147,1.187 -0.988,1.37 -0.313,0.068 -1.778,0.624 -1.73,-0.504 -0.121,-1.481 -0.465,-2.872 -0.161,-4.356 0.537,-0.145 1.463,-1.045 2.113,-0.652 0.378,0.228 0.425,1.312 0.548,1.82 0.176,0.73 0.306,1.564 0.218,2.322"
             style="fill:#231f20;fill-opacity:1;fill-rule:nonzero;stroke:none"
             id="path10985" />
        </g>
        <g
           id="g10987"
           transform="translate(69.0526,129.84)">
          <path
             d="m 0,0 c -0.033,-0.313 0.113,-0.658 0.09,-0.974 -0.016,-0.222 -0.041,-0.552 -0.287,-0.674 -0.139,-0.068 -0.898,-0.056 -1.021,0.005 -0.49,0.246 -0.985,2.588 -0.736,3.07 0.122,0.441 0.326,0.363 0.516,0.471 0.112,0.064 0.087,0.269 0.249,0.289 0.2,0.024 0.724,-0.229 0.834,-0.34 C -0.123,1.613 -0.069,1.174 0.031,0.852 0.158,0.445 0.04,0.372 0,0 M 0.603,1.486 C 0.275,2.241 0.183,2.428 -0.828,2.384 -1.203,2.368 -3.013,2.487 -2.718,1.57 c 0.174,-1.245 0.071,-2.468 0.738,-3.619 0.65,0.005 1.911,-0.521 2.578,-0.048 0.389,0.276 0.212,1.178 0.246,1.624 0.049,0.641 0.022,1.356 -0.241,1.959"
             style="fill:#231f20;fill-opacity:1;fill-rule:nonzero;stroke:none"
             id="path10989" />
        </g>
        <g
           id="g10991"
           transform="translate(68.6923,140.433)">
          <path
             d="m 0,0 c -0.026,-0.312 0.128,-0.655 0.113,-0.97 -0.011,-0.221 -0.029,-0.55 -0.272,-0.673 -0.137,-0.069 -0.897,-0.064 -1.022,-0.003 -0.496,0.24 -1.046,2.57 -0.807,3.052 0.111,0.44 0.317,0.365 0.505,0.474 0.111,0.064 0.08,0.268 0.243,0.289 0.199,0.025 0.729,-0.222 0.842,-0.332 C -0.161,1.606 -0.096,1.169 0.011,0.849 0.148,0.445 0.031,0.371 0,0 M 0.569,1.486 C 0.223,2.235 0.126,2.42 -0.884,2.369 -1.259,2.349 -3.073,2.453 -2.757,1.542 c 0.204,-1.239 0.13,-2.458 0.823,-3.599 0.651,0.01 1.925,-0.504 2.581,-0.027 0.383,0.277 0.185,1.175 0.209,1.62 0.034,0.638 -0.01,1.351 -0.287,1.95"
             style="fill:#231f20;fill-opacity:1;fill-rule:nonzero;stroke:none"
             id="path10993" />
        </g>
        <g
           id="g10995"
           transform="translate(68.6805,136.677)">
          <path
             d="m 0,0 c -0.103,-0.296 -0.067,-0.663 -0.162,-0.963 -0.066,-0.212 -0.167,-0.526 -0.398,-0.588 -0.129,-0.035 -0.747,0.147 -0.832,0.235 -0.341,0.348 -0.179,2.725 0.141,3.137 0.398,0.512 1.079,0.735 1.408,0.047 C 0.289,1.59 0.227,1.152 0.232,0.818 0.237,0.396 0.122,0.351 0,0 M 0.852,1.303 C 0.767,2.108 0.736,2.31 -0.1,2.495 -0.41,2.563 -1.86,3.086 -1.841,2.132 -2,0.887 -2.379,-0.274 -2.113,-1.538 c 0.533,-0.141 1.435,-0.934 2.094,-0.627 0.385,0.179 0.459,1.092 0.594,1.517 0.195,0.609 0.346,1.308 0.277,1.951"
             style="fill:#231f20;fill-opacity:1;fill-rule:nonzero;stroke:none"
             id="path10997" />
        </g>
        <g
           id="g10999"
           transform="translate(68.9546,133.254)">
          <path
             d="m 0,0 c -0.107,-0.296 -0.046,-0.664 -0.143,-0.965 -0.067,-0.211 -0.17,-0.525 -0.438,-0.585 -0.151,-0.033 -0.885,0.157 -0.99,0.246 -0.419,0.354 -0.347,2.74 0.009,3.147 0.222,0.399 0.403,0.276 0.613,0.335 0.124,0.036 0.148,0.241 0.31,0.221 C -0.439,2.375 0.01,2.007 0.091,1.873 0.261,1.592 0.21,1.154 0.232,0.818 0.258,0.394 0.126,0.351 0,0 M 0.937,1.298 C 0.796,2.106 0.751,2.309 -0.242,2.505 -0.61,2.578 -2.341,3.12 -2.271,2.163 -2.396,0.915 -2.784,-0.246 -2.408,-1.518 c 0.633,-0.148 1.734,-0.955 2.494,-0.655 0.443,0.175 0.484,1.091 0.623,1.515 0.198,0.61 0.341,1.31 0.228,1.956"
             style="fill:#231f20;fill-opacity:1;fill-rule:nonzero;stroke:none"
             id="path11001" />
        </g>
      </g>
    </g>
  </g>
</svg>
