<?xml version="1.0" encoding="UTF-8" standalone="no"?>
<!-- Created with Inkscape (http://www.inkscape.org/) -->

<svg
   width="17.438068"
   height="24"
   viewBox="0 0 4.6138222 6.35"
   version="1.1"
   id="svg26373"
   inkscape:version="1.2.1 (9c6d41e4, 2022-07-14)"
   sodipodi:docname="dunwich.svg"
   xmlns:inkscape="http://www.inkscape.org/namespaces/inkscape"
   xmlns:sodipodi="http://sodipodi.sourceforge.net/DTD/sodipodi-0.dtd"
   xmlns="http://www.w3.org/2000/svg"
   xmlns:svg="http://www.w3.org/2000/svg">
  <sodipodi:namedview
     id="namedview26375"
     pagecolor="#505050"
     bordercolor="#eeeeee"
     borderopacity="1"
     inkscape:showpageshadow="0"
     inkscape:pageopacity="0"
     inkscape:pagecheckerboard="0"
     inkscape:deskcolor="#505050"
     inkscape:document-units="mm"
     showgrid="false"
     inkscape:zoom="0.70199214"
     inkscape:cx="44.160038"
     inkscape:cy="185.18726"
     inkscape:window-width="1390"
     inkscape:window-height="938"
     inkscape:window-x="0"
     inkscape:window-y="25"
     inkscape:window-maximized="0"
     inkscape:current-layer="layer1" />
  <defs
     id="defs26370">
    <clipPath
       clipPathUnits="userSpaceOnUse"
       id="clipPath16385">
      <path
         d="m 176.367,419.904 h 24.7 v 24.699 h -24.7 z"
         id="path16383" />
    </clipPath>
  </defs>
  <g
     inkscape:label="Layer 1"
     inkscape:groupmode="layer"
     id="layer1"
     transform="translate(-93.434528,-99.58876)">
    <g
       id="g16379"
       transform="matrix(0.30413453,0,0,-0.30413453,38.388054,234.22088)">
      <g
         id="g16381"
         clip-path="url(#clipPath16385)">
        <g
           id="g16387"
           transform="translate(189.06,435.432)">
          <path
             d="m 0,0 c -0.022,-0.054 -0.042,-0.217 -0.087,-0.263 -0.142,-0.144 -0.423,-0.294 -0.647,-0.223 -0.016,0.005 -0.03,0.017 -0.047,0.016 -0.016,-0.001 -0.03,-0.013 -0.046,-0.015 -0.027,-0.004 -0.048,0.02 -0.064,0.042 -0.119,0.172 0.023,0.389 0.13,0.581 0.133,0.241 0.146,0.253 0.388,0.313 C -0.284,0.473 -0.364,0.437 -0.28,0.402 -0.201,0.369 -0.12,0.334 -0.058,0.275 0.032,0.19 0.038,0.091 0,0 M -0.415,0.692 C -0.77,0.667 -1.003,0.388 -1.117,0.088 -1.22,-0.016 -1.28,-0.2 -1.248,-0.326 c 0.045,-0.181 0.313,-0.354 0.52,-0.394 0.653,-0.128 0.982,0.259 1.175,0.863 -0.057,0.303 -0.563,0.569 -0.862,0.549"
             style="fill:#231f20;fill-opacity:1;fill-rule:nonzero;stroke:none"
             id="path16389" />
        </g>
        <g
           id="g16391"
           transform="translate(187.801,436.282)">
          <path
             d="M 0,0 C -0.149,0.119 -0.335,0.388 -0.491,0.515 -0.845,0.802 -1.176,1.074 -1.502,1.409 -1.909,1.828 -2.323,2.244 -2.719,2.663 -3.18,3.151 -3.44,3.693 -4.001,4.162 -4.235,4.359 -5.816,6.317 -5.641,5.032 -4.676,4.755 -3.95,3.348 -3.314,2.7 -3.056,2.437 -2.725,2.295 -2.479,1.997 -2.23,1.695 -2.078,1.392 -1.796,1.101 c 0.439,-0.452 1.248,-1.051 1.639,-1.428 0.031,0.102 0.154,0.306 0.157,0.236 0,0 0.002,0 0.002,0 C -0.007,-0.062 -0.007,-0.03 0,0"
             style="fill:#231f20;fill-opacity:1;fill-rule:nonzero;stroke:none"
             id="path16393" />
        </g>
        <g
           id="g16395"
           transform="translate(181.021,440.532)">
          <path
             d="M 0,0 C -0.004,0.001 -0.008,0.003 -0.013,0.005 -0.025,-0.028 -0.043,-0.07 0,0"
             style="fill:#231f20;fill-opacity:1;fill-rule:nonzero;stroke:none"
             id="path16397" />
        </g>
        <g
           id="g16399"
           transform="translate(182.158,441.53)">
          <path
             d="m 0,0 c -0.131,-0.109 -0.224,-0.536 -0.331,-0.523 -0.043,-0.074 -0.486,-0.253 -0.504,-0.282 0.373,-0.1 0.471,-0.476 0.732,-0.789 0.222,-0.267 0.498,-0.492 0.732,-0.75 0.251,-0.278 0.426,-0.608 0.663,-0.889 0.43,-0.51 1.004,-0.625 1.417,-1.175 0.265,-0.354 1.295,-1.35 1.637,-1.654 0.206,0.174 0.702,0.611 0.909,0.766 -0.373,0.39 -1.18,1.274 -1.538,1.648 -0.633,0.663 -1.278,1.21 -1.89,1.902 C 1.294,-1.143 0.767,-0.337 0,0"
             style="fill:#231f20;fill-opacity:1;fill-rule:nonzero;stroke:none"
             id="path16401" />
        </g>
        <g
           id="g16403"
           transform="translate(195.062,441.547)">
          <path
             d="m 0,0 c -0.287,-0.932 -1.744,-1.633 -2.416,-2.247 -0.272,-0.249 -0.419,-0.568 -0.728,-0.806 -0.312,-0.241 -0.626,-0.387 -0.928,-0.66 -0.467,-0.423 -1.088,-1.204 -1.479,-1.581 0.079,-0.023 0.215,-0.094 0.251,-0.13 0.004,0 0.007,0.002 0.012,0.002 0.032,0 0.058,-0.008 0.081,-0.019 0.125,0.143 0.398,0.32 0.528,0.469 0.298,0.341 0.579,0.661 0.927,0.976 0.434,0.393 0.865,0.792 1.299,1.174 0.505,0.446 1.066,0.697 1.552,1.238 C -0.698,-1.358 1.331,0.169 0,0"
             style="fill:#231f20;fill-opacity:1;fill-rule:nonzero;stroke:none"
             id="path16405" />
        </g>
        <g
           id="g16407"
           transform="translate(194.252,442.647)">
          <path
             d="M 0,0 C 0.001,0.004 0.004,0.008 0.005,0.012 -0.029,0.024 -0.072,0.041 0,0"
             style="fill:#231f20;fill-opacity:1;fill-rule:nonzero;stroke:none"
             id="path16409" />
        </g>
        <g
           id="g16411"
           transform="translate(195.645,441.44)">
          <path
             d="M 0,0 C -0.113,0.127 -0.555,0.216 -0.542,0.32 -0.618,0.361 -0.804,0.789 -0.834,0.806 -0.938,0.446 -1.327,0.351 -1.652,0.1 -1.928,-0.115 -2.16,-0.381 -2.428,-0.607 c -0.287,-0.242 -0.629,-0.412 -0.921,-0.641 -0.527,-0.415 -0.646,-0.969 -1.217,-1.367 -0.366,-0.256 -1.398,-1.251 -1.712,-1.581 0.18,-0.199 0.632,-0.678 0.793,-0.877 0.404,0.359 1.319,1.139 1.706,1.484 0.687,0.612 1.254,1.235 1.971,1.825 C -1.184,-1.25 -0.349,-0.74 0,0"
             style="fill:#231f20;fill-opacity:1;fill-rule:nonzero;stroke:none"
             id="path16413" />
        </g>
        <g
           id="g16415"
           transform="translate(194.998,429.34)">
          <path
             d="M 0,0 C -0.965,0.277 -1.691,1.855 -2.327,2.504 -2.585,2.767 -2.916,2.909 -3.162,3.207 -3.411,3.508 -3.563,3.812 -3.845,4.103 -4.284,4.554 -5.093,5.154 -5.484,5.531 -5.506,5.459 -5.572,5.339 -5.611,5.297 -5.599,5.263 -5.606,5.222 -5.631,5.195 -5.483,5.072 -5.302,4.813 -5.15,4.689 -4.796,4.402 -4.465,4.13 -4.139,3.794 -3.732,3.375 -3.319,2.959 -2.923,2.54 -2.461,2.052 -2.201,1.511 -1.64,1.041 -1.406,0.845 0.175,-1.285 0,0"
             style="fill:#231f20;fill-opacity:1;fill-rule:nonzero;stroke:none"
             id="path16417" />
        </g>
        <g
           id="g16419"
           transform="translate(196.137,430.294)">
          <path
             d="M 0,0 C 0.004,-0.001 0.008,-0.003 0.013,-0.005 0.025,0.028 0.043,0.07 0,0"
             style="fill:#231f20;fill-opacity:1;fill-rule:nonzero;stroke:none"
             id="path16421" />
        </g>
        <g
           id="g16423"
           transform="translate(194.933,429.003)">
          <path
             d="M 0,0 C 0.131,0.109 0.224,0.536 0.331,0.523 0.374,0.597 0.817,0.776 0.835,0.805 0.462,0.905 0.364,1.453 0.103,1.766 -0.119,2.033 -0.395,2.257 -0.629,2.516 -0.88,2.793 -1.055,3.123 -1.292,3.405 -1.722,3.914 -2.296,4.029 -2.709,4.58 -2.974,4.933 -4.004,5.93 -4.346,6.233 -4.552,6.06 -5.048,5.622 -5.255,5.467 -4.882,5.078 -4.075,4.194 -3.717,3.82 -3.084,3.157 -2.438,2.61 -1.827,1.917 -1.294,1.315 -0.767,0.337 0,0"
             style="fill:#231f20;fill-opacity:1;fill-rule:nonzero;stroke:none"
             id="path16425" />
        </g>
        <g
           id="g16427"
           transform="translate(187.47,434.85)">
          <path
             d="M 0,0 C 0,0.001 0.001,0.004 0.001,0.006 -0.006,0.005 -0.012,0.002 -0.02,0.002 c -0.023,0 -0.041,0.008 -0.056,0.019 -0.113,-0.147 -0.414,-0.338 -0.551,-0.495 -0.298,-0.342 -0.579,-0.661 -0.927,-0.976 -0.434,-0.393 -0.865,-0.792 -1.299,-1.175 -0.505,-0.445 -1.066,-0.696 -1.552,-1.238 -0.203,-0.226 -2.232,-1.752 -0.901,-1.583 0.287,0.931 1.744,1.633 2.415,2.247 0.273,0.249 0.42,0.568 0.729,0.806 0.312,0.24 0.626,0.387 0.928,0.66 0.467,0.423 1.088,1.204 1.479,1.581 C 0.139,-0.121 -0.073,-0.003 0,0"
             style="fill:#231f20;fill-opacity:1;fill-rule:nonzero;stroke:none"
             id="path16429" />
        </g>
        <g
           id="g16431"
           transform="translate(182.974,428.304)">
          <path
             d="M 0,0 C -0.001,-0.004 -0.004,-0.008 -0.005,-0.012 0.029,-0.024 0.072,-0.041 0,0"
             style="fill:#231f20;fill-opacity:1;fill-rule:nonzero;stroke:none"
             id="path16433" />
        </g>
        <g
           id="g16435"
           transform="translate(181.919,429.34)">
          <path
             d="M 0,0 C 0.113,-0.127 0.555,-0.216 0.542,-0.32 0.618,-0.361 0.804,-0.789 0.834,-0.806 0.938,-0.446 1.327,-0.351 1.652,-0.1 1.928,0.115 2.16,0.381 2.428,0.607 2.715,0.849 3.057,1.019 3.349,1.248 3.876,1.663 3.995,2.217 4.566,2.615 4.932,2.871 5.964,3.866 6.278,4.196 6.098,4.395 5.646,4.874 5.485,5.073 5.081,4.714 4.166,3.934 3.779,3.589 3.092,2.977 2.525,2.354 1.808,1.764 1.184,1.25 0.349,0.74 0,0"
             style="fill:#231f20;fill-opacity:1;fill-rule:nonzero;stroke:none"
             id="path16437" />
        </g>
        <g
           id="g16439"
           transform="translate(187.757,422.304)">
          <path
             d="M 0,0 C -0.108,0.226 0.014,0.865 0.095,1.1 0.262,1.582 0.492,2.132 1.345,2.091 2.2,2.05 2.131,1.46 2.131,0.902 2.131,0.558 2.133,0.237 2.259,-0.083 1.808,0.021 1.282,-0.111 0.833,-0.092 0.585,-0.081 0.253,0.043 0.069,0.032 0.177,0.032 0.285,0.032 0,0"
             style="fill:#231f20;fill-opacity:1;fill-rule:nonzero;stroke:none"
             id="path16441" />
        </g>
        <g
           id="g16443"
           transform="translate(187.081,431.724)">
          <path
             d="m 0,0 c 0.021,-1.17 0.227,-2.295 -0.107,-3.446 -0.17,-0.587 -0.25,-1.168 -0.41,-1.758 C -0.671,-5.773 -1.115,-6.251 -1.462,-6.773 -1.776,-7.247 -2.081,-7.728 -2.357,-8.216 -2.536,-8.531 -3,-8.759 -3.258,-9.044 -3.513,-9.326 -3.449,-9.619 -3.63,-9.93 c 0.238,0.073 0.698,0.064 1.02,0.083 0.357,0.502 0.647,1.086 1.087,1.56 0.3,0.323 0.672,0.593 0.838,0.973 0.135,0.308 0.227,0.594 0.38,0.9 0.211,0.423 0.385,0.863 0.593,1.294 0.192,0.4 0.168,0.736 0.221,1.152 0.055,0.435 0.363,0.784 0.374,1.225 0.011,0.385 0.011,0.783 -0.021,1.167 -0.028,0.323 -0.12,0.634 -0.15,0.955 C 0.69,-0.386 0.825,0.035 0.694,0.241 0.782,0.445 0.248,-0.038 0,0"
             style="fill:#231f20;fill-opacity:1;fill-rule:nonzero;stroke:none"
             id="path16445" />
        </g>
        <g
           id="g16447"
           transform="translate(190.568,432.614)">
          <path
             d="m 0,0 c 0.009,-0.208 -0.13,-0.399 -0.135,-0.612 -0.007,-0.32 0.019,-0.675 0.044,-1 0.057,-0.753 -0.074,-1.493 -0.075,-2.242 0,-0.478 0.211,-0.962 0.253,-1.437 0.043,-0.491 0.313,-0.974 0.482,-1.444 0.174,-0.484 0.187,-0.942 0.493,-1.404 0.231,-0.35 0.42,-0.714 0.668,-1.06 0.257,-0.357 0.5,-0.868 0.879,-1.137 0.148,0.131 0.717,0.084 0.843,-0.068 0.107,0.235 -0.233,0.291 -0.381,0.451 -0.13,0.141 -0.115,0.568 -0.561,1.03 -0.38,0.394 -0.588,1.153 -0.839,1.594 -0.232,0.408 -0.394,0.328 -0.473,0.752 -0.087,0.473 -0.225,0.945 -0.353,1.411 -0.118,0.429 -0.022,0.91 -0.059,1.349 -0.03,0.35 -0.194,0.649 -0.207,0.984 -0.01,0.271 0.036,0.527 0.036,0.807 0,0.475 0.154,0.885 -0.017,1.342 C 0.552,-0.56 0.134,-0.199 0,0"
             style="fill:#231f20;fill-opacity:1;fill-rule:nonzero;stroke:none"
             id="path16449" />
        </g>
        <g
           id="g16451"
           transform="translate(188.373,438.299)">
          <path
             d="m 0,0 c -0.847,-1.09 -2.033,-2.297 -2.661,-3.647 -0.327,-0.705 -0.941,-1.135 -1.378,-1.707 -0.15,0.017 -0.301,0.038 -0.457,0.043 -0.047,0.3 0.385,0.636 0.545,0.886 0.288,0.449 0.722,0.936 0.954,1.42 0.139,0.292 0.155,0.61 0.338,0.915 0.228,0.379 0.557,0.547 0.864,0.849 0.458,0.448 0.629,1.323 1.179,1.705 0.308,0.214 0.666,0.92 1.002,0.984 0.404,0.078 0.966,-1 1.248,-1.237 0.411,-0.346 0.925,-0.736 1.274,-1.143 0.267,-0.31 0.5,-0.777 0.781,-1.115 C 4.093,-2.532 4.434,-3.099 4.798,-3.608 5,-3.89 5.637,-4.243 5.699,-4.532 5.279,-5.071 4.957,-4.514 4.501,-4.116 4.069,-3.739 3.763,-3.375 3.44,-2.917 3.101,-2.437 3.226,-2.23 2.789,-1.849 2.219,-1.354 1.586,-0.827 1.092,-0.258 0.872,-0.005 -0.011,0.439 0,0"
             style="fill:#231f20;fill-opacity:1;fill-rule:nonzero;stroke:none"
             id="path16453" />
        </g>
      </g>
    </g>
  </g>
</svg>
