<?xml version="1.0" encoding="UTF-8" standalone="no"?>
<!-- Created with Inkscape (http://www.inkscape.org/) -->

<svg
   width="13.179458"
   height="24"
   viewBox="0 0 3.4870648 6.35"
   version="1.1"
   id="svg24930"
   inkscape:version="1.2.1 (9c6d41e4, 2022-07-14)"
   sodipodi:docname="naomis_crew.svg"
   xmlns:inkscape="http://www.inkscape.org/namespaces/inkscape"
   xmlns:sodipodi="http://sodipodi.sourceforge.net/DTD/sodipodi-0.dtd"
   xmlns="http://www.w3.org/2000/svg"
   xmlns:svg="http://www.w3.org/2000/svg">
  <sodipodi:namedview
     id="namedview24932"
     pagecolor="#505050"
     bordercolor="#eeeeee"
     borderopacity="1"
     inkscape:showpageshadow="0"
     inkscape:pageopacity="0"
     inkscape:pagecheckerboard="0"
     inkscape:deskcolor="#505050"
     inkscape:document-units="mm"
     showgrid="false"
     inkscape:zoom="0.70199214"
     inkscape:cx="109.68784"
     inkscape:cy="192.30984"
     inkscape:window-width="1390"
     inkscape:window-height="938"
     inkscape:window-x="0"
     inkscape:window-y="25"
     inkscape:window-maximized="0"
     inkscape:current-layer="layer1" />
  <defs
     id="defs24927">
    <clipPath
       clipPathUnits="userSpaceOnUse"
       id="clipPath4363">
      <path
         d="m 405.961,430.603 h 24.7 v 24.7 h -24.7 z"
         id="path4361" />
    </clipPath>
  </defs>
  <g
     inkscape:label="Layer 1"
     inkscape:groupmode="layer"
     id="layer1"
     transform="translate(-76.169275,-97.709159)">
    <g
       id="g4357"
       transform="matrix(0.27623339,0,0,-0.27623339,-37.548941,223.24317)">
      <g
         id="g4359"
         clip-path="url(#clipPath4363)">
        <g
           id="g4365"
           transform="translate(417.872,440.503)">
          <path
             d="m 0,0 c -0.002,-2.034 0.086,-4.017 0.086,-6.039 0,-0.46 0.146,-2.22 0.252,-2.904 0.021,-0.137 0.221,-0.129 0.232,0.009 0.062,0.825 0.104,2.758 0.206,3.447 0.229,1.549 -0.002,3.219 -0.004,4.802 C 0.77,0.952 1.484,2.31 0.99,3.828 0.636,4.914 0.967,7.198 0.93,8.222 0.339,8.188 -0.168,8.183 -0.765,8.044 -0.763,8.032 -0.589,8.024 -0.586,8.016 -0.603,8.032 -0.632,8.05 -0.686,8.064 -0.675,5.853 0.003,2.277 0,0"
             style="fill:#231f20;fill-opacity:1;fill-rule:nonzero;stroke:none"
             id="path4367" />
        </g>
        <g
           id="g4369"
           transform="translate(415.288,442.726)">
          <path
             d="M 0,0 C 0.039,0.261 3.806,-0.132 4.427,-0.102 5.141,-0.067 5.822,0.072 6.5,0.198 6.551,-0.219 6.435,-0.787 6.416,-1.224 6.388,-1.902 6.126,-2.52 6.077,-3.169 6.029,-3.811 6.822,-5.481 6.214,-5.99 c -0.551,0.237 -1.486,0.065 -2.103,0.096 -0.72,0.037 -1.418,-10e-4 -2.139,0 -0.758,0.002 -1.509,-0.1 -2.224,0.11 -0.042,0.993 0.027,1.979 -0.134,2.938 -0.097,0.581 -0.102,1.134 -0.045,1.728 0.04,0.415 0.189,0.748 0.18,1.162 0.063,-0.003 0.184,-0.054 0.243,-0.104 0.041,-0.636 -0.078,-1.273 -0.078,-1.924 0,-0.723 0.155,-1.381 0.237,-2.08 0.081,-0.691 -0.154,-1.446 0.546,-1.525 0.988,-0.111 2.05,0.051 3.05,0.051 0.734,0 1.533,0.155 2.236,-0.044 0.052,0.39 -0.113,0.628 -0.219,0.957 -0.165,0.517 -0.076,0.947 -0.037,1.481 0.034,0.467 0.12,0.944 0.094,1.417 -0.02,0.347 -0.265,0.771 -0.137,1.109 -0.599,0.044 -1.18,-0.1 -1.774,-0.031 -0.651,0.075 -1.38,-0.178 -2.01,0.005 -0.728,0.212 -1.43,0.206 -2.115,0.288 0.129,0 0.258,0 0.215,0.356"
             style="fill:#231f20;fill-opacity:1;fill-rule:nonzero;stroke:none"
             id="path4371" />
        </g>
        <g
           id="g4373"
           transform="translate(411.936,449.81)">
          <path
             d="M 0,0 C 0.175,-0.256 0.948,-2.377 0.417,-2.412 0.026,-2.437 -0.144,-1.11 -0.207,-0.804 -0.274,-0.482 -0.342,-0.092 0,0"
             style="fill:#231f20;fill-opacity:1;fill-rule:nonzero;stroke:none"
             id="path4375" />
        </g>
        <g
           id="g4377"
           transform="translate(424.234,450.019)">
          <path
             d="m 0,0 c -0.129,0.02 -0.269,-0.01 -0.383,-0.064 -0.121,-0.361 -0.121,-0.891 -0.156,-1.274 -0.018,-0.208 -0.078,-0.827 0.07,-0.977 0.277,-0.281 0.412,0.183 0.439,0.371 0.057,0.386 -0.039,0.799 -0.03,1.176 C -0.054,-0.567 0.171,-0.13 0,0"
             style="fill:#231f20;fill-opacity:1;fill-rule:nonzero;stroke:none"
             id="path4379" />
        </g>
        <g
           id="g4381"
           transform="translate(416.81,453.501)">
          <path
             d="M 0,0 C -0.257,0.127 -0.949,0.147 -0.998,0.443 -1.065,0.848 -0.287,0.878 0.003,0.9 0.316,0.925 3.465,1.173 2.87,0.237 2.689,-0.047 1.63,0.129 1.286,0.129"
             style="fill:#231f20;fill-opacity:1;fill-rule:nonzero;stroke:none"
             id="path4383" />
        </g>
        <g
           id="g4385"
           transform="translate(418.882,448.887)">
          <path
             d="M 0,0 C 0.577,0.204 1.506,0.133 2.138,0.168 2.92,0.211 3.805,0.215 4.575,0.133 4.905,0.139 4.746,-0.175 4.829,-0.354 3.187,-0.437 1.643,0.022 0,0 M -0.84,3.916 C -1.425,3.415 -1.787,4.631 -1.258,4.675 l -0.089,0.03 c 0.195,0.087 0.46,-0.076 0.594,-0.21 C -0.565,4.307 -0.59,4.13 -0.84,3.916 M -1.121,2.831 C -1.356,2.922 -1.451,3.47 -1.139,3.484 -0.984,3.499 -0.866,3.427 -0.727,3.389 -0.682,3.114 -0.728,2.679 -1.121,2.831 M -0.907,1.808 C -1.232,1.714 -1.31,2.263 -1.02,2.338 l 0.03,0.03 c 0.192,-0.086 0.462,-0.45 0.083,-0.56 m -2.258,-2 c -0.442,-0.043 -0.904,-0.1 -1.329,-0.164 -0.487,-0.073 -0.992,-0.105 -1.479,-0.177 -0.734,-0.108 -0.377,0.069 -0.673,0.521 1.319,-0.385 2.839,0.038 4.232,0.038 0.142,0.039 0.48,0.011 0.759,-0.008 -0.392,-0.196 -1.082,-0.169 -1.51,-0.21 M 5.158,0.939 C 4.421,0.673 3.209,0.818 2.431,0.768 1.905,0.735 1.475,0.694 0.973,0.583 0.488,0.476 0.249,0.489 -0.215,0.511 c -0.166,0.6 -0.167,1.498 -0.02,2.113 0.219,0.916 -0.21,2.17 0.622,2.74 C -0.315,5.676 -1.654,5.455 -2.444,5.439 -2.468,4.933 -2.302,4.765 -2.091,4.376 -1.8,3.84 -1.872,3.397 -1.771,2.818 -1.631,2.015 -1.669,1.347 -1.514,0.588 -1.764,0.421 -3.66,0.257 -4.095,0.224 -4.936,0.162 -6.238,0.219 -6.897,0.757 c -0.307,-0.546 0.279,-1.387 0.252,-2.049 0.797,0.226 1.797,0.195 2.652,0.4 0.953,0.228 2.028,0.425 2.951,0.534 2.139,0.253 4.187,-0.847 6.29,-0.662 -0.141,0.639 -0.16,1.278 -0.09,1.959"
             style="fill:#231f20;fill-opacity:1;fill-rule:nonzero;stroke:none"
             id="path4387" />
        </g>
      </g>
    </g>
  </g>
</svg>
