<?xml version="1.0" encoding="UTF-8" standalone="no"?>
<!-- Created with Inkscape (http://www.inkscape.org/) -->

<svg
   width="13.221999"
   height="24"
   viewBox="0 0 3.4983205 6.35"
   version="1.1"
   id="svg25552"
   inkscape:version="1.2.1 (9c6d41e4, 2022-07-14)"
   sodipodi:docname="the_essex_couty_express.svg"
   xmlns:inkscape="http://www.inkscape.org/namespaces/inkscape"
   xmlns:sodipodi="http://sodipodi.sourceforge.net/DTD/sodipodi-0.dtd"
   xmlns="http://www.w3.org/2000/svg"
   xmlns:svg="http://www.w3.org/2000/svg">
  <sodipodi:namedview
     id="namedview25554"
     pagecolor="#505050"
     bordercolor="#eeeeee"
     borderopacity="1"
     inkscape:showpageshadow="0"
     inkscape:pageopacity="0"
     inkscape:pagecheckerboard="0"
     inkscape:deskcolor="#505050"
     inkscape:document-units="mm"
     showgrid="false"
     inkscape:zoom="0.70199214"
     inkscape:cx="172.3666"
     inkscape:cy="378.92162"
     inkscape:window-width="1390"
     inkscape:window-height="938"
     inkscape:window-x="0"
     inkscape:window-y="25"
     inkscape:window-maximized="0"
     inkscape:current-layer="layer1" />
  <defs
     id="defs25549">
    <clipPath
       clipPathUnits="userSpaceOnUse"
       id="clipPath7609">
      <path
         d="m 298.717,368.234 h 24.7 v 24.7 h -24.7 z"
         id="path7607" />
    </clipPath>
  </defs>
  <g
     inkscape:label="Layer 1"
     inkscape:groupmode="layer"
     id="layer1"
     transform="translate(-59.554907,-48.292284)">
    <g
       id="g7603"
       transform="matrix(0.27336724,0,0,-0.27336724,-23.776713,155.45193)">
      <g
         id="g7605"
         clip-path="url(#clipPath7609)">
        <g
           id="g7611"
           transform="translate(314.275,382.273)">
          <path
             d="m 0,0 c -0.057,-0.443 -0.299,-0.76 -0.568,-1.081 -0.394,-0.472 -0.773,-0.606 -1.351,-0.849 -0.543,-0.227 -1.167,-0.32 -1.774,-0.239 -0.394,0.052 -1.359,0.158 -1.487,0.574 -0.51,-0.343 -1.066,0.716 -1.135,1.031 -0.102,0.464 -0.46,0.825 -0.408,1.291 0.04,0.37 0.053,0.797 0.053,1.199 0,0.257 0.058,0.558 0.22,0.768 0.153,0.199 0.334,0.214 0.545,0.34 0.097,0.059 0.11,0.166 0.195,0.224 0.155,0.106 0.416,0.212 0.57,0.303 0.223,0.131 0.389,0.213 0.67,0.189 -0.329,0.131 0.553,0.218 0.799,0.263 0.534,0.099 1.042,0.043 1.522,-0.093 0.423,-0.119 0.602,-0.238 0.901,-0.542 0.321,-0.326 0.662,-0.455 0.84,-0.911 C -0.254,2.072 0.033,1.733 0.035,1.289 0.038,0.885 0.052,0.409 0,0 m -3.904,6.829 c 0.098,0.22 0.493,0.304 0.645,0.13 -0.019,0.023 -10e-4,0.03 0.026,0.032 -0.004,0 -0.009,0 -0.013,0 0.162,0.077 0.419,-0.042 0.554,-0.133 C -2.508,6.734 -2.521,6.493 -2.341,6.41 -2.428,6.171 -2.482,6.039 -2.449,5.782 -2.756,5.649 -2.798,5.407 -3.252,5.446 -3.469,5.465 -4.058,5.449 -4.045,5.738 -4.547,5.811 -4.263,6.744 -3.904,6.829 M -4.295,8.143 C -4.29,8.137 -4.287,8.132 -4.282,8.126 -4.287,8.121 -4.291,8.117 -4.296,8.112 c 0.001,0.012 0.002,0.022 0.001,0.031 M 0.603,0.67 C 0.514,1.186 0.869,1.526 0.61,2.027 0.434,2.367 0.182,2.616 -0.006,2.929 -0.264,3.358 -0.419,3.6 -0.851,3.876 -1.396,4.225 -2.33,4.725 -2.265,5.467 c 0.049,-0.006 0.117,0.017 0.167,0.011 0.084,0.293 0.155,1.351 -0.168,1.385 -0.052,0.345 0.274,1.127 -0.04,1.416 -0.219,-0.079 -0.63,0.01 -0.888,-0.003 -0.408,-0.019 -0.8,0.038 -1.194,0.002 0.04,-0.039 0.051,-0.072 0.073,-0.107 -0.005,0.003 -0.006,0.006 -0.013,0.009 -0.138,-0.243 0.002,-0.462 0,-0.715 C -4.329,7.279 -4.396,7.03 -4.433,6.835 -4.737,7.153 -4.718,6.49 -4.711,6.324 -4.7,6.034 -4.756,5.735 -4.677,5.444 -4.619,5.455 -4.534,5.423 -4.475,5.433 -4.479,5.208 -4.473,5.176 -4.542,4.984 -4.602,4.816 -4.701,4.698 -4.724,4.532 -4.983,4.42 -5.127,4.235 -5.35,4.093 -5.61,3.928 -5.873,3.82 -6.129,3.646 -6.6,3.325 -6.99,2.958 -7.283,2.402 -7.561,1.875 -7.413,1.05 -7.344,0.475 c 0.091,-0.756 0.369,-1.313 0.737,-1.97 0.218,-0.389 0.448,-0.598 0.862,-0.838 0.177,-0.102 0.392,-0.218 0.596,-0.269 0.265,-0.066 0.824,0.109 0.79,-0.264 0.54,-0.124 0.84,-0.325 1.451,-0.249 0.54,0.067 0.969,0.186 1.451,0.411 0.496,0.231 0.779,0.554 1.195,0.829 0.465,0.309 0.705,0.535 0.839,1.065 0.062,0.246 0.168,0.497 0.204,0.741 0.048,0.324 -0.13,0.458 -0.178,0.739"
             style="fill:#231f20;fill-opacity:1;fill-rule:nonzero;stroke:none"
             id="path7613" />
        </g>
        <g
           id="g7615"
           transform="translate(304.973,377.641)">
          <path
             d="m 0,0 c 0.027,-0.078 -0.136,-0.285 -0.139,-0.41 -0.002,-0.136 0.084,-0.353 0.073,-0.516 -0.024,-0.377 -0.075,-0.72 0.039,-1.078 0.646,-0.06 1.334,0.111 1.997,0.087 0.656,-0.023 1.292,0.137 1.945,0.123 0.403,-0.008 0.806,-0.089 1.218,-0.092 0.452,-0.002 0.884,0.113 1.31,0.124 0.311,0.009 0.619,-0.109 0.927,-0.124 0.836,-0.039 1.753,0.276 2.561,0.119 0.371,-0.071 0.749,-0.215 1.151,-0.182 0.203,0.017 0.378,0.125 0.578,0.159 0.315,0.054 0.648,-0.064 0.932,-0.122 -0.071,0.114 -0.038,0.224 -0.061,0.366 -0.036,0.226 -0.119,0.431 -0.128,0.633 -0.022,0.448 0.155,0.824 0.156,1.248 C 11.929,0.244 11.276,0.172 10.628,0.099 10.043,0.033 9.443,0.003 8.854,0.053 8.391,0.093 7.942,-0.008 7.495,0.012 7.114,0.028 6.71,0.153 6.305,0.129 5.799,0.099 5.283,0.124 4.775,0.124 3.792,0.124 2.737,0.022 1.774,0.121 1.184,0.181 0.433,0.323 -0.134,0.123 -0.059,0.075 0.002,0.099 0,0"
             style="fill:#231f20;fill-opacity:1;fill-rule:nonzero;stroke:none"
             id="path7617" />
        </g>
        <g
           id="g7619"
           transform="translate(305.103,371.149)">
          <path
             d="m 0,0 c -0.047,0.014 -0.089,0.016 -0.157,-0.036 -0.124,-0.406 0.67,-0.478 0.936,-0.595 0.532,-0.235 1.104,-0.338 1.655,-0.55 0.651,-0.25 1.308,-0.457 1.983,-0.645 0.267,-0.074 0.526,-0.131 0.769,-0.244 0.172,-0.079 0.671,-0.216 0.728,-0.305 0.281,0.008 0.345,-0.044 0.59,0.083 0.248,0.128 0.401,0.222 0.681,0.304 0.813,0.239 1.582,0.549 2.407,0.781 0.957,0.269 1.892,0.678 2.768,1.083 -0.095,0.249 -0.546,0.12 -0.745,0.024 -0.44,-0.211 -0.844,-0.385 -1.311,-0.548 C 9.299,-1 8.231,-1.421 7.21,-1.694 6.832,-1.795 6.307,-1.915 5.91,-1.917 5.521,-1.918 5.216,-1.66 4.876,-1.513 4.405,-1.31 3.954,-1.207 3.445,-1.111 3.183,-1.062 2.957,-1.029 2.727,-0.919 2.577,-0.847 2.462,-0.745 2.306,-0.688 1.613,-0.431 0.774,-0.118 0.066,0.038 0.117,0.043 0.147,0.114 0,0"
             style="fill:#231f20;fill-opacity:1;fill-rule:nonzero;stroke:none"
             id="path7621" />
        </g>
        <g
           id="g7623"
           transform="translate(312.422,381.875)">
          <path
             d="m 0,0 c -0.065,0.126 -0.184,0.205 -0.254,0.333 l 0.141,0.202 c -0.06,-0.041 -0.139,-0.071 -0.201,-0.064 0,0.036 0.019,0.126 0.029,0.161 C -0.003,0.675 0.47,0.744 0.589,0.426 0.746,0.008 0.28,-0.032 0,0 M -1.001,0.587 C -1.317,0.45 -2.12,0.517 -2.385,0.752 -2.506,0.859 -2.55,1.066 -2.56,1.211 c -0.025,0.336 0.199,0.413 0.354,0.642 -0.003,0.293 0.534,0.391 0.916,0.297 0.672,-0.164 1.041,-1.237 0.289,-1.563 m -2.111,-0.999 c -0.285,0.059 -0.434,0.39 -0.051,0.441 l 0.071,0.067 c 0.171,0.086 0.341,0.122 0.526,0.063 0.037,-0.133 0.046,-0.116 0.108,-0.204 -0.016,-0.298 -0.361,-0.427 -0.654,-0.367 m -0.516,2.839 c 0.074,0.106 0.178,0.157 0.304,0.166 -0.006,10e-4 -0.011,0.002 -0.017,0.003 h 0.036 C -3.312,2.596 -3.318,2.594 -3.324,2.593 -3.159,2.565 -2.979,2.551 -2.812,2.489 -2.776,2.375 -2.761,2.255 -2.778,2.128 -2.989,2.082 -3.079,1.88 -3.313,1.947 -3.571,2.02 -3.46,2.254 -3.628,2.427 m 3.515,0.135 C 0,2.612 0.072,2.648 0.197,2.601 0.205,2.624 0.22,2.641 0.242,2.652 0.809,2.407 0.125,1.618 -0.118,2.083 -0.18,2.086 -0.229,2.105 -0.284,2.129 -0.315,2.297 -0.303,2.504 -0.113,2.562 M 1.274,1.82 C 1.269,2.219 0.835,2.7 0.562,2.992 0.343,3.225 0.054,3.349 -0.218,3.498 -0.458,3.63 -0.697,3.873 -0.936,3.978 -1.262,4.12 -1.672,4.114 -2.011,4.031 -2.277,3.965 -2.805,3.948 -2.921,3.716 -3.137,3.606 -3.332,3.494 -3.305,3.272 -3.517,3.318 -3.816,3.043 -3.944,2.893 -4.169,2.627 -3.99,2.471 -4.056,2.193 -4.1,2.012 -4.331,1.864 -4.374,1.683 c -0.039,-0.165 0.023,-0.46 0.039,-0.636 0.027,-0.292 0.15,-0.43 0.286,-0.68 0.264,-0.489 0.345,-0.978 0.808,-1.283 0.418,-0.275 1.01,-0.398 1.53,-0.476 0.775,-0.116 1.104,0.051 1.724,0.426 0.52,0.314 1.021,0.511 1.152,1.148 0.042,0.202 -0.002,0.453 0,0.657 0.003,0.328 0.113,0.67 0.109,0.981"
             style="fill:#231f20;fill-opacity:1;fill-rule:nonzero;stroke:none"
             id="path7625" />
        </g>
        <g
           id="g7627"
           transform="translate(309.149,391.75)">
          <path
             d="m 0,0 c 0.195,0.008 0.48,-0.746 0.63,-1.003 0.333,0.199 1.014,0.049 1.416,0.03 0.233,-0.012 0.668,-0.126 0.867,0.007 0.125,0.085 0.273,0.441 0.372,0.582 0.131,0.186 0.296,0.402 0.39,0.594 C 3.076,0.202 2.477,0.215 1.883,0.24 1.48,0.258 1.073,0.243 0.669,0.243 0.393,0.244 -0.001,0.133 -0.242,0.246 -0.172,0.17 -0.074,0.09 0.031,0.064 0.039,0.032 0.027,-0.004 0,0"
             style="fill:#231f20;fill-opacity:1;fill-rule:nonzero;stroke:none"
             id="path7629" />
        </g>
        <g
           id="g7631"
           transform="translate(313.156,380.751)">
          <path
             d="M 0,0 C 0.364,-0.045 0.427,-1.304 0.435,-1.69 0.444,-2.061 0.438,-2.613 0.535,-2.932 0.684,-3.424 1.126,-4.053 1.643,-3.534 1.23,-3.048 1.51,-2.06 1.187,-1.432 1.041,-1.148 0.912,-0.988 0.847,-0.68 0.805,-0.478 0.851,-0.241 0.703,-0.111"
             style="fill:#231f20;fill-opacity:1;fill-rule:nonzero;stroke:none"
             id="path7633" />
        </g>
        <g
           id="g7635"
           transform="translate(310.76,375.972)">
          <path
             d="M 0,0 C 0.081,0.075 0.048,-0.026 0.096,-0.159 0.177,-0.385 0.165,-0.608 0.187,-0.845 0.229,-1.301 0.294,-1.827 0.262,-2.281 0.25,-2.459 0.145,-2.586 0.102,-2.75 0.033,-3.013 0.154,-3.202 0.161,-3.456 0.163,-3.542 0.073,-3.642 0.069,-3.741 0.067,-3.802 0.122,-3.929 0.131,-4 0.148,-4.158 0.11,-4.323 0.127,-4.481 0.162,-4.796 0.133,-5.129 0.194,-5.443 0.234,-5.65 0.328,-5.844 0.319,-6.057 0.31,-6.284 0.306,-6.378 0.349,-6.589 c 0.033,-0.162 0.086,-0.32 -0.02,-0.454 0.103,0.011 0.214,0.044 0.315,0.093 0.037,0.153 0.14,0.293 0.168,0.461 0.048,0.284 -0.034,0.605 -0.033,0.894 0.003,0.87 -0.274,1.718 -0.234,2.579 0.021,0.463 0.227,0.885 0.216,1.291 -0.009,0.31 -0.148,0.595 -0.12,0.897 0.024,0.253 0.096,0.482 0.073,0.745 C 0.684,0.269 0.544,0.346 0.202,0.497 0.243,0.496 0.284,0.495 0.325,0.495"
             style="fill:#231f20;fill-opacity:1;fill-rule:nonzero;stroke:none"
             id="path7637" />
        </g>
        <g
           id="g7639"
           transform="translate(306.726,375.879)">
          <path
             d="m 0,0 c -0.051,-0.031 -0.446,-0.605 -0.501,-0.762 -0.056,-0.163 0.002,-0.298 -0.079,-0.479 -0.105,-0.235 -0.234,-0.417 -0.333,-0.65 -0.073,-0.172 -0.054,-0.391 -0.11,-0.57 -0.083,-0.269 -0.205,-0.512 -0.283,-0.777 -0.101,-0.347 -0.256,-0.686 -0.35,-1.029 -0.037,-0.132 -0.152,-0.384 -0.069,-0.513 0.194,-0.301 0.332,-0.008 0.385,0.178 0.118,0.416 0.257,0.806 0.334,1.232 0.104,0.578 0.346,1.015 0.616,1.544 0.232,0.455 0.46,0.975 0.586,1.457 0.026,0.097 0.097,0.432 0.065,0.52 C 0.162,0.428 0.041,0.302 0,0"
             style="fill:#231f20;fill-opacity:1;fill-rule:nonzero;stroke:none"
             id="path7641" />
        </g>
        <g
           id="g7643"
           transform="translate(315.394,375.972)">
          <path
             d="m 0,0 c 0.425,-0.412 0.666,-0.979 0.943,-1.489 0.24,-0.441 0.517,-0.88 0.684,-1.36 0.222,-0.639 0.807,-1.43 0.543,-2.124 -0.129,0.02 -0.274,0.043 -0.412,0.061 -0.032,0.386 -0.129,0.801 -0.306,1.147 -0.269,0.524 -0.435,1.114 -0.704,1.632 -0.119,0.231 -0.29,0.399 -0.434,0.614 -0.139,0.207 -0.094,0.317 -0.152,0.53 -0.048,0.178 -0.189,0.284 -0.261,0.438 C -0.174,-0.39 -0.143,-0.204 -0.2,-0.036 -0.248,-0.029 -0.308,-0.023 0,0"
             style="fill:#231f20;fill-opacity:1;fill-rule:nonzero;stroke:none"
             id="path7645" />
        </g>
        <g
           id="g7647"
           transform="translate(306.304,378.692)">
          <path
             d="M 0,0 C 0.527,-0.018 1.026,0.089 1.553,0.157 2.146,0.233 2.801,0.201 3.403,0.218 4.636,0.253 5.876,0.297 7.108,0.309 7.802,0.316 9.494,0.556 9.801,-0.18 9.505,-0.309 9.052,-0.315 8.73,-0.342 8.076,-0.395 7.41,-0.372 6.754,-0.371 5.886,-0.369 5.048,-0.278 4.17,-0.278 3.8,-0.278 -0.135,-0.521 -0.096,-0.129 -0.027,-0.119 0.117,-0.085 0,0"
             style="fill:#231f20;fill-opacity:1;fill-rule:nonzero;stroke:none"
             id="path7649" />
        </g>
        <g
           id="g7651"
           transform="translate(308.836,376.033)">
          <path
             d="m 0,0 c -0.285,0.06 -0.213,-0.826 -0.266,-1.013 -0.102,-0.361 -0.267,-0.682 -0.349,-1.057 -0.098,-0.441 -0.13,-0.88 -0.202,-1.331 -0.058,-0.36 -0.288,-0.682 -0.415,-1.017 -0.062,-0.165 -0.486,-1.152 -0.149,-1.256 0.284,-0.087 0.362,0.712 0.41,0.858 0.161,0.486 0.522,0.884 0.58,1.402 0.087,0.763 0.202,1.439 0.324,2.173 0.074,0.445 0.304,0.885 0.388,1.33 C 0.18,0.097 0.292,0.094 0,0"
             style="fill:#231f20;fill-opacity:1;fill-rule:nonzero;stroke:none"
             id="path7653" />
        </g>
        <g
           id="g7655"
           transform="translate(312.927,375.972)">
          <path
             d="m 0,0 c -0.079,-0.061 0.165,-0.545 0.226,-0.71 0.083,-0.226 0.269,-0.383 0.323,-0.619 0.051,-0.226 0.08,-0.363 0.16,-0.58 0.134,-0.369 0.29,-0.736 0.378,-1.119 0.076,-0.333 0.099,-0.683 0.193,-1.009 0.144,-0.495 0.468,-1.345 0.902,-1.616 0.41,0.157 -0.006,0.966 -0.144,1.181 -0.211,0.33 -0.233,0.626 -0.326,1.01 C 1.628,-3.117 1.465,-2.787 1.393,-2.441 1.364,-2.299 1.369,-2.153 1.331,-2.009 1.285,-1.835 1.222,-1.765 1.164,-1.611 1.052,-1.31 0.916,-1.061 0.773,-0.778 0.674,-0.583 0.336,0.111 0,0"
             style="fill:#231f20;fill-opacity:1;fill-rule:nonzero;stroke:none"
             id="path7657" />
        </g>
        <g
           id="g7659"
           transform="translate(309.681,375.972)">
          <path
             d="m 0,0 c -0.181,-0.047 -0.128,-1.823 -0.195,-2.165 -0.093,-0.473 -0.042,-0.946 -0.065,-1.429 -0.021,-0.447 -0.151,-0.892 -0.287,-1.316 -0.066,-0.206 -0.382,-0.951 -0.201,-1.144 0.28,-0.3 0.331,0.334 0.359,0.499 0.085,0.496 0.255,0.926 0.353,1.406 0.125,0.614 0.388,1.154 0.393,1.803 C 0.361,-1.822 0.2,-1.278 0.325,-0.777 0.367,-0.607 0.619,0.235 0,0"
             style="fill:#231f20;fill-opacity:1;fill-rule:nonzero;stroke:none"
             id="path7661" />
        </g>
        <g
           id="g7663"
           transform="translate(311.791,375.972)">
          <path
             d="m 0,0 c 0.264,-0.005 0.208,-0.805 0.265,-1.026 0.086,-0.33 0.2,-0.602 0.222,-0.931 0.049,-0.748 0.265,-1.457 0.325,-2.214 0.039,-0.498 0.17,-1.042 0.291,-1.518 0.061,-0.239 0.126,-0.575 0.195,-0.745 -0.005,0.022 -0.003,0.042 0.006,0.062 0.017,10e-4 0.083,-0.025 0.084,-0.024 0.068,0.101 0.077,0.057 0.171,0.108 0.014,-0.006 0.046,-0.038 0.058,-0.046 0.074,0.302 -0.205,0.494 -0.29,0.768 C 1.187,-5.113 1.25,-4.578 1.17,-4.111 1.085,-3.615 0.989,-3.077 1.006,-2.564 1.021,-2.136 0.843,-1.811 0.714,-1.393 0.585,-0.972 0.625,-0.214 0,0"
             style="fill:#231f20;fill-opacity:1;fill-rule:nonzero;stroke:none"
             id="path7665" />
        </g>
        <g
           id="g7667"
           transform="translate(313.901,376.095)">
          <path
             d="m 0,0 c 0.072,-0.297 0.208,-0.536 0.327,-0.795 0.111,-0.24 0.16,-0.482 0.316,-0.719 0.389,-0.592 0.554,-1.339 0.781,-2.011 0.123,-0.367 0.139,-0.62 0.352,-0.961 0.186,-0.297 0.213,-0.847 0.661,-0.858 0.168,0.365 -0.321,0.701 -0.393,1.041 -0.149,0.707 -0.217,1.422 -0.552,2.077 -0.25,0.49 -0.657,0.868 -0.889,1.36 C 0.492,-0.629 0.47,-0.343 0,0"
             style="fill:#231f20;fill-opacity:1;fill-rule:nonzero;stroke:none"
             id="path7669" />
        </g>
        <g
           id="g7671"
           transform="translate(307.603,375.941)">
          <path
             d="m 0,0 c 0.007,-0.24 0.014,-0.531 -0.03,-0.764 -0.059,-0.306 -0.325,-0.522 -0.421,-0.784 -0.181,-0.496 -0.09,-1.02 -0.295,-1.527 -0.099,-0.245 -0.159,-0.488 -0.262,-0.726 -0.09,-0.21 -0.24,-0.369 -0.355,-0.588 -0.125,-0.236 -0.257,-0.594 -0.32,-0.829 0.135,0.005 0.291,-0.015 0.404,-0.064 -0.074,0.326 -0.028,0.472 0.155,0.74 0.292,0.428 0.459,0.84 0.683,1.297 0.337,0.686 0.235,1.557 0.458,2.267 0.055,0.174 0.112,0.37 0.179,0.544 0.046,0.12 0.077,0.218 0.103,0.317 0.034,0.124 -0.048,0.17 0.097,0.26 C 0.294,0.122 0.2,0.135 0,0"
             style="fill:#231f20;fill-opacity:1;fill-rule:nonzero;stroke:none"
             id="path7673" />
        </g>
        <g
           id="g7675"
           transform="translate(308.229,381.134)">
          <path
             d="m 0,0 c -0.485,-0.4 -0.152,-1.332 -0.29,-1.87 -0.077,-0.298 -0.162,-0.591 -0.248,-0.882 -0.096,-0.327 -0.038,-0.7 -0.112,-1.008 0.191,0.12 0.428,0.04 0.623,0.087 0.003,0.037 0.006,0.076 0.007,0.113 0.246,0.099 0.102,0.32 0.117,0.568 0.015,0.259 0.1,0.517 0.12,0.766 0.025,0.288 0.078,0.523 0.12,0.803 0.046,0.317 0.019,0.609 0.052,0.918 C 0.38,-0.548 0.363,-0.537 0.339,-0.556"
             style="fill:#231f20;fill-opacity:1;fill-rule:nonzero;stroke:none"
             id="path7677" />
        </g>
      </g>
    </g>
  </g>
</svg>
