<?xml version="1.0" encoding="UTF-8" standalone="no"?>
<!-- Created with Inkscape (http://www.inkscape.org/) -->

<svg
   width="25.458872"
   height="24"
   viewBox="0 0 6.735993 6.35"
   version="1.1"
   id="svg25282"
   inkscape:version="1.2.1 (9c6d41e4, 2022-07-14)"
   sodipodi:docname="the_miskatonic_museum.svg"
   xmlns:inkscape="http://www.inkscape.org/namespaces/inkscape"
   xmlns:sodipodi="http://sodipodi.sourceforge.net/DTD/sodipodi-0.dtd"
   xmlns="http://www.w3.org/2000/svg"
   xmlns:svg="http://www.w3.org/2000/svg">
  <sodipodi:namedview
     id="namedview25284"
     pagecolor="#505050"
     bordercolor="#eeeeee"
     borderopacity="1"
     inkscape:showpageshadow="0"
     inkscape:pageopacity="0"
     inkscape:pagecheckerboard="0"
     inkscape:deskcolor="#505050"
     inkscape:document-units="mm"
     showgrid="false"
     inkscape:zoom="0.70199214"
     inkscape:cx="142.45174"
     inkscape:cy="135.32915"
     inkscape:window-width="1390"
     inkscape:window-height="938"
     inkscape:window-x="0"
     inkscape:window-y="25"
     inkscape:window-maximized="0"
     inkscape:current-layer="layer1" />
  <defs
     id="defs25279">
    <clipPath
       clipPathUnits="userSpaceOnUse"
       id="clipPath6495">
      <path
         d="m 55.717,431.189 h 24.7 v 24.699 h -24.7 z"
         id="path6493" />
    </clipPath>
  </defs>
  <g
     inkscape:label="Layer 1"
     inkscape:groupmode="layer"
     id="layer1"
     transform="translate(-67.440788,-112.50972)">
    <g
       id="g6489"
       transform="matrix(0.31316799,0,0,-0.31316799,49.497108,254.70197)">
      <g
         id="g6491"
         clip-path="url(#clipPath6495)">
        <g
           id="g6497"
           transform="translate(70.7157,449.456)">
          <path
             d="M 0,0 C -0.507,0.332 -0.975,0.6 -1.458,1.024 -1.764,1.292 -1.992,1.747 -2.264,2.082 -2.455,2.122 -2.646,2.155 -2.833,2.121 -2.96,2.097 -3.079,2.047 -3.193,1.982 -3.343,1.764 -3.483,1.507 -3.613,1.335 -3.962,0.876 -4.348,0.525 -4.767,0.291 -5.144,0.08 -6.888,-1.538 -7.639,-1.698 c -0.01,-0.014 -0.036,-0.258 0,-0.45 0.315,0.088 0.611,0.033 0.895,0.199 0.602,0.353 1.118,0.874 1.718,1.264 0.338,0.22 0.717,0.416 1.071,0.634 0,0 0,10e-4 10e-4,10e-4 0.183,0.327 0.495,0.544 0.76,0.796 0.061,0.135 0.125,0.265 0.212,0.348 0.276,0.26 0.434,-0.064 0.641,-0.308 0.067,0.055 0.167,0.075 0.236,0.019 0.165,-0.133 0.272,-0.303 0.378,-0.48 0.068,-0.038 0.137,-0.073 0.206,-0.104 0.594,-0.271 0.94,-0.566 1.491,-0.982 0.525,-0.395 1.205,-0.526 1.712,-1.11 C 1.968,-2.2 2.038,-2.605 2.283,-3.039 1.804,-1.362 1.004,-0.657 0,0"
             style="fill:#231f20;fill-opacity:1;fill-rule:nonzero;stroke:none"
             id="path6499" />
        </g>
        <g
           id="g6501"
           transform="translate(73.4625,449.724)">
          <path
             d="M 0,0 C -0.265,0.274 -0.483,0.596 -0.682,0.927 -0.747,1.034 -0.713,1.138 -0.642,1.2 -0.681,1.265 -0.718,1.332 -0.748,1.404 -0.755,1.413 -0.762,1.42 -0.769,1.428 -1.327,1.757 -1.367,2.581 -1.404,3.281 -1.511,3.673 -1.658,3.827 -2.174,4.053 -2.522,4.205 -2.89,4.129 -3.257,4.098 -3.447,3.955 -3.709,3.955 -3.944,4.024 -4.041,4.052 -4.086,4.129 -4.092,4.21 -4.568,4.358 -4.986,4.375 -5.481,4.153 -5.751,4.032 -6.025,3.935 -6.308,3.89 -6.323,3.88 -6.34,3.872 -6.359,3.866 -6.729,3.75 -7.08,3.718 -7.396,3.987 -7.398,3.989 -7.4,3.991 -7.401,3.992 -7.795,4.071 -8.444,4.153 -8.634,3.938 -8.965,3.565 -9.452,2.296 -9.631,1.647 -9.765,1.16 -9.667,0.72 -9.761,0.22 c -0.089,-0.47 -0.37,-0.865 -0.657,-1.232 -0.089,-0.112 -0.128,-0.303 -0.109,-0.486 0.035,-0.318 0.256,-1.691 0.135,-0.816 -0.067,0.838 0.472,1.646 0.902,2.205 0.372,0.484 0.381,1.677 0.575,2.409 0.506,1.91 1.989,0.867 2.876,1.09 1.081,0.271 1.773,0.289 2.784,-0.013 C -2.924,3.279 -2.704,3.335 -2.526,3.246 -1.946,3.097 -1.732,2.473 -1.931,1.9 -1.932,1.899 -1.932,1.898 -1.933,1.897 -1.726,1.223 -1.524,0.7 -1.061,0.188 c 0.615,-0.679 0.784,-0.864 0.919,-2.111 0.089,-0.818 -0.605,-1.319 -0.672,-2.096 0.239,0.554 0.935,1.874 1,2.552 C 0.232,-0.985 0.148,-0.469 0,0"
             style="fill:#231f20;fill-opacity:1;fill-rule:nonzero;stroke:none"
             id="path6503" />
        </g>
        <g
           id="g6505"
           transform="translate(66.4952,449.633)">
          <path
             d="m 0,0 c -0.942,-0.234 -0.556,-3.143 -0.312,-4.091 0.332,-1.292 0.697,-2.37 1.315,-3.342 -0.851,1.041 -1.765,2.397 -2.121,4.153 -0.101,0.499 -0.381,1.42 -0.314,1.972 C -1.31,-0.317 -0.676,-0.856 0,0"
             style="fill:#231f20;fill-opacity:1;fill-rule:nonzero;stroke:none"
             id="path6507" />
        </g>
        <g
           id="g6509"
           transform="translate(69.484,449.677)">
          <path
             d="m 0,0 c -0.245,-0.979 0.407,-2.554 0.296,-3.749 -0.107,-1.157 -0.46,-2.076 -0.77,-3.061 -0.084,-0.07 -0.238,-0.65 -0.258,-0.667 1.212,1.146 1.714,4.766 1.549,6.91 C 0.761,-0.54 0.704,-0.534 0,0"
             style="fill:#231f20;fill-opacity:1;fill-rule:nonzero;stroke:none"
             id="path6511" />
        </g>
        <g
           id="g6513"
           transform="translate(71.0968,444.093)">
          <path
             d="m 0,0 c -0.501,-0.553 -0.464,-0.756 -0.68,-1.448 -0.177,-0.568 -0.403,-1.062 -0.581,-1.615 -0.225,-0.702 -0.097,-1.71 -0.454,-2.304 -0.343,-0.572 -0.657,0.3 -1.17,0.301 -0.372,0 -1.036,-1.08 -1.3,-0.862 -0.371,0.306 -0.156,1.677 -0.249,2.326 -0.117,0.809 -0.372,1.359 -0.802,1.812 -0.537,0.566 -0.657,0.801 -1.02,1.585 -0.457,0.986 -1.041,2.9 -1.764,3.42 C -8.021,3.168 -8.023,3.121 -8.028,3.073 -7.896,2.72 -7.896,2.176 -7.83,1.73 -7.826,1.725 -7.823,1.721 -7.82,1.715 -7.693,1.454 -7.52,1.222 -7.404,0.954 -7.401,0.948 -7.4,0.942 -7.398,0.936 c 0.012,-0.011 0.027,-0.02 0.039,-0.032 0.024,-0.015 0.047,-0.037 0.066,-0.066 0.223,-0.337 0.434,-0.628 0.596,-1.011 0.177,-0.419 0.271,-0.853 0.566,-1.194 0.155,-0.18 0.058,-0.299 0.111,-0.486 0.06,-0.209 0.231,-0.432 0.357,-0.601 0.058,-0.077 0.109,-0.149 0.157,-0.218 0.115,-0.073 0.216,-0.169 0.298,-0.295 0.166,-0.258 0.202,-0.568 0.168,-0.87 0.039,-0.277 0.057,-0.608 0.082,-1.058 0.006,-0.102 0.009,-0.214 0.011,-0.331 0.082,-0.161 0.098,-0.354 0.098,-0.556 0,-0.07 -0.025,-0.123 -0.062,-0.16 0.018,-0.172 0.286,-1.264 0.635,-0.875 0.043,0.048 0.063,0.114 0.095,0.171 0.101,0.181 0.269,0.188 0.413,0.298 0.174,0.133 0.282,0.34 0.47,0.457 0.121,0.076 0.273,0.11 0.404,0.055 0.073,-0.032 0.134,-0.088 0.193,-0.144 0.12,-0.113 0.242,-0.228 0.321,-0.377 0.03,-0.057 0.056,-0.122 0.104,-0.164 0.268,-0.231 0.607,-0.126 0.783,0.139 0.142,0.215 0.246,0.478 0.337,0.721 0.108,0.288 0.044,0.56 0.077,0.855 0.035,0.308 0.175,0.552 0.321,0.815 0.077,0.424 0.123,0.753 0.181,1.078 -0.037,0.191 -0.019,0.387 0.091,0.572 0.014,0.023 0.03,0.041 0.047,0.056 0.029,0.112 0.061,0.228 0.1,0.354 0.153,0.49 0.298,0.993 0.529,1.45 0.102,0.202 0.221,0.43 0.396,0.573 0.149,0.121 0.356,0.172 0.488,0.316 0.164,0.179 0.162,0.403 0.25,0.623 C 1.377,1.163 1.879,2.336 1.902,2.324 1.377,2.582 0.577,0.637 0,0"
             style="fill:#231f20;fill-opacity:1;fill-rule:nonzero;stroke:none"
             id="path6515" />
        </g>
        <g
           id="g6517"
           transform="translate(68.4585,438.749)">
          <path
             d="m 0,0 c 0.121,0.86 0.324,1.896 0.217,2.763 0.257,-1.049 0.359,-1.817 0.37,-3.1 -0.163,0.027 -0.404,0.04 -0.582,0.1 C 0.025,-0.14 0.04,0.303 0,0"
             style="fill:#231f20;fill-opacity:1;fill-rule:nonzero;stroke:none"
             id="path6519" />
        </g>
        <g
           id="g6521"
           transform="translate(67.5748,441.511)">
          <path
             d="m 0,0 c -0.181,-1.153 -0.355,-1.906 -0.33,-3.216 0.191,0.02 0.377,0.077 0.509,0.253 C 0.062,-2.203 -0.067,-0.654 0,0"
             style="fill:#231f20;fill-opacity:1;fill-rule:nonzero;stroke:none"
             id="path6523" />
        </g>
        <g
           id="g6525"
           transform="translate(65.3356,453.089)">
          <path
             d="m 0,0 c -0.314,0.032 -0.519,-0.252 -0.586,-0.64 -0.04,-0.235 -0.1,-0.698 0,-0.878 0.258,-0.145 0.695,-0.402 0.963,-0.087 0.119,0.141 0.21,0.524 0.205,0.759 -0.009,0.359 -0.2,0.414 -0.268,0.678 -0.068,0.052 -0.039,-0.006 -0.08,0.08 -0.132,0.015 -0.267,0.028 -0.371,0.127 0.177,0.482 0.708,0.034 0.834,-0.283 0.189,-0.474 0.106,-0.934 -0.095,-1.34 -0.388,-0.785 -1.453,-0.742 -1.51,0.403 -0.012,0.246 0.08,0.626 0.187,0.801 C -0.559,-0.115 -0.152,-0.015 0,0"
             style="fill:#231f20;fill-opacity:1;fill-rule:nonzero;stroke:none"
             id="path6527" />
        </g>
        <g
           id="g6529"
           transform="translate(70.7262,452.992)">
          <path
             d="m 0,0 c -0.326,-0.33 -0.764,-0.636 -0.398,-1.3 0.159,-0.288 0.472,-0.56 0.743,-0.429 0.306,0.147 0.547,0.638 0.443,1.086 -0.063,0.274 -0.363,0.613 -0.541,0.642 0.36,-0.029 0.544,-0.283 0.644,-0.747 0.098,-0.462 0.197,-0.927 -0.185,-1.172 -0.353,-0.226 -0.862,-0.255 -1.117,0.202 -0.127,0.228 -0.537,0.897 -0.429,1.242 0.055,0.176 0.378,0.367 0.499,0.431 C -0.153,0.054 0.177,0.048 0,0"
             style="fill:#231f20;fill-opacity:1;fill-rule:nonzero;stroke:none"
             id="path6531" />
        </g>
        <g
           id="g6533"
           transform="translate(72.0526,448.124)">
          <path
             d="M 0,0 0.832,-1.616"
             style="fill:#e9e9e9;fill-opacity:1;fill-rule:nonzero;stroke:#231f20;stroke-width:0.172;stroke-linecap:round;stroke-linejoin:miter;stroke-miterlimit:10;stroke-dasharray:none;stroke-opacity:1"
             id="path6535" />
        </g>
        <g
           id="g6537"
           transform="translate(62.9868,448.251)">
          <path
             d="M 0,0 0.446,-2.377"
             style="fill:#e9e9e9;fill-opacity:1;fill-rule:nonzero;stroke:#231f20;stroke-width:0.172;stroke-linecap:round;stroke-linejoin:miter;stroke-miterlimit:10;stroke-dasharray:none;stroke-opacity:1"
             id="path6539" />
        </g>
        <g
           id="g6541"
           transform="translate(70.8015,438.615)">
          <path
             d="m 0,0 c -0.207,0.109 -0.337,-0.769 -0.565,-0.842 0.225,0.036 0.445,-0.044 0.67,0.039 0.257,0.095 0.454,0.27 0.746,0.313 0.54,0.078 1.058,0.075 1.607,0.142 0.387,0.047 0.352,0.235 0.401,0.629 0.02,0.159 0,0.331 0.052,0.491 C 2.984,0.994 3.154,1.143 3.218,1.364 3.291,1.615 3.341,2.062 3.267,2.29 3.421,2.153 3.803,2.022 4.019,1.924 4.366,1.765 4.657,1.63 5.005,1.534 5.02,1.311 5.639,1.12 5.82,0.976 6.054,0.79 6.218,0.602 6.412,0.391 6.888,0.713 5.297,1.511 5.096,1.62 4.539,1.923 3.996,2.264 3.465,2.586 3.743,2.739 3.955,3.145 4.239,3.361 4.592,3.63 4.801,4.043 5.172,4.275 5.678,4.591 6.319,4.82 6.874,4.971 7.196,5.059 7.729,5.11 8.005,5.297 7.631,5.401 7.211,5.315 6.832,5.242 6.429,5.164 5.944,5.074 5.562,4.902 5.06,4.677 4.471,4.404 4.096,3.967 3.898,3.736 3.559,3.359 3.428,3.082 3.342,3.529 3.197,4.04 3.194,4.502 3.192,4.936 3.338,5.334 3.279,5.767 2.858,5.94 3.447,7.143 3.561,7.39 3.75,7.798 3.993,8.45 4.443,8.505 4.384,8.232 4.526,7.887 4.624,7.636 4.704,7.429 4.809,7.224 4.892,7.021 5.027,6.685 5.197,6.603 5.469,6.385 5.889,6.049 6.176,5.893 6.692,5.716 6.903,5.644 7.395,5.382 7.576,5.607 7.288,5.682 7.055,5.771 6.781,5.882 6.242,6.101 5.636,6.137 5.329,6.751 5.081,7.247 4.817,8.139 4.809,8.682 4.804,9.025 5.05,9.305 5.099,9.66 c 0.041,0.3 0.029,0.61 0.179,0.87 0.133,0.229 0.372,0.38 0.544,0.585 0.121,0.144 0.221,0.297 0.37,0.405 C 5.859,11.569 5.425,10.985 5.256,10.718 4.979,10.28 4.62,9.909 4.358,9.46 4.123,9.058 3.818,8.786 3.531,8.433 3.259,8.098 3.196,7.595 3.031,7.188 2.846,6.728 2.602,6.277 2.531,5.78 2.463,5.307 2.529,4.63 2.622,4.155 2.748,3.511 3.034,2.896 3.013,2.236 2.989,1.478 2.361,0.862 2.435,0.088 2.439,0.33 2.243,0.388 2.122,0.556 2.098,0.376 2.22,0.186 2.069,0.053 2.058,0.044 1.749,0.06 1.704,0.051 1.543,0.02 1.403,-0.084 1.248,-0.132 0.882,-0.246 0.175,-0.334 0,0"
             style="fill:#231f20;fill-opacity:1;fill-rule:nonzero;stroke:none"
             id="path6543" />
        </g>
        <g
           id="g6545"
           transform="translate(76.3627,441.624)">
          <path
             d="M 0,0 C 0.127,0.142 0.373,0.201 0.568,0.315 0.812,0.459 1.03,0.732 1.252,0.916 1.533,1.149 1.841,1.497 2.148,1.64 2.16,1.233 1.707,0.846 1.617,0.43 1.525,0.005 1.594,-0.348 1.6,-0.758 1.608,-1.317 1.657,-1.839 1.681,-2.405 1.692,-2.649 1.586,-2.925 1.614,-3.157 1.632,-3.299 1.768,-3.473 1.799,-3.625 1.112,-2.591 1.268,-0.98 1.148,0.236 0.949,0.087 0.509,-0.009 0.265,-0.035 0.097,-0.053 -0.062,0.05 -0.192,-0.084 -0.151,-0.09 -0.157,-0.107 0,0"
             style="fill:#231f20;fill-opacity:1;fill-rule:nonzero;stroke:none"
             id="path6547" />
        </g>
        <g
           id="g6549"
           transform="translate(73.6673,438.412)">
          <path
             d="m 0,0 c 0.367,-0.16 0.737,-0.566 1.044,-0.844 0.328,-0.297 0.523,-0.28 1,-0.182 0.653,0.134 1.968,0.772 2.591,0.228 C 4.326,-0.768 3.808,-0.674 3.603,-0.986 3.127,-0.968 2.67,-1.314 2.253,-1.522 2.037,-1.629 1.936,-1.776 1.746,-1.917 1.503,-2.098 1.346,-2.076 1.167,-2.354 1.039,-2.552 0.889,-2.788 0.787,-2.994 0.681,-3.207 0.655,-3.477 0.528,-3.683 0.39,-3.906 0.291,-4.053 0.173,-4.286 0.091,-4.447 0.032,-4.651 -0.155,-4.45 c 0.02,-0.078 0.029,-0.13 0.073,-0.194 -0.051,0.254 -0.314,0.803 -0.472,1.018 -0.139,0.19 -0.42,0.339 -0.6,0.502 -0.197,0.178 -0.281,0.322 -0.431,0.534 -0.297,0.424 -0.785,0.639 -1.248,0.724 -0.47,0.086 -1.001,0.368 -1.451,0.323 0.206,0.06 0.565,0.222 0.796,0.22 0.259,-0.002 0.582,-0.12 0.847,-0.16 0.803,-0.121 1.631,-0.618 2.073,-1.37 0.181,-0.308 0.194,-0.821 0.472,-1.037 -0.154,0.526 -0.234,1.178 -0.297,1.761 -0.04,0.368 -0.204,0.712 -0.173,1.08 0.024,0.283 0.015,0.543 0.079,0.818 0.302,-0.139 0.284,-1.272 0.354,-1.611 0.066,-0.319 0.13,-0.643 0.18,-0.956 0.034,-0.214 0.155,-0.441 0.148,-0.646 0.17,0.406 0.379,0.773 0.633,1.125 0.124,0.172 0.333,0.427 0.274,0.68 -0.056,0.245 -0.455,0.594 -0.609,0.8 C 0.3,-0.58 0.109,-0.318 -0.034,-0.032 0.007,-0.031 0.042,-0.04 0,0"
             style="fill:#231f20;fill-opacity:1;fill-rule:nonzero;stroke:none"
             id="path6551" />
        </g>
        <g
           id="g6553"
           transform="translate(65.3023,438.615)">
          <path
             d="m 0,0 c 0.207,0.109 0.337,-0.769 0.565,-0.842 -0.225,0.036 -0.445,-0.044 -0.67,0.039 -0.257,0.095 -0.454,0.27 -0.746,0.313 -0.54,0.078 -1.058,0.075 -1.607,0.142 -0.387,0.047 -0.352,0.235 -0.401,0.629 -0.02,0.159 0,0.331 -0.052,0.491 C -2.984,0.994 -3.154,1.143 -3.218,1.364 -3.291,1.615 -3.341,2.062 -3.267,2.29 -3.421,2.153 -3.803,2.022 -4.019,1.924 -4.366,1.765 -4.657,1.63 -5.005,1.534 -5.02,1.311 -5.639,1.12 -5.82,0.976 -6.054,0.79 -6.218,0.602 -6.412,0.391 c -0.476,0.322 1.115,1.12 1.316,1.229 0.557,0.303 1.1,0.644 1.631,0.966 -0.278,0.153 -0.49,0.559 -0.774,0.775 -0.353,0.269 -0.562,0.682 -0.933,0.914 -0.506,0.316 -1.147,0.545 -1.702,0.696 -0.322,0.088 -0.855,0.139 -1.131,0.326 0.374,0.104 0.794,0.018 1.173,-0.055 0.403,-0.078 0.888,-0.168 1.27,-0.34 0.502,-0.225 1.091,-0.498 1.466,-0.935 0.198,-0.231 0.537,-0.608 0.668,-0.885 0.086,0.447 0.231,0.958 0.234,1.42 0.002,0.434 -0.144,0.832 -0.085,1.265 C -2.858,5.94 -3.447,7.143 -3.561,7.39 -3.75,7.798 -3.993,8.45 -4.443,8.505 -4.384,8.232 -4.526,7.887 -4.624,7.636 -4.704,7.429 -4.809,7.224 -4.892,7.021 -5.027,6.685 -5.197,6.603 -5.469,6.385 -5.889,6.049 -6.176,5.893 -6.692,5.716 -6.903,5.644 -7.395,5.382 -7.576,5.607 c 0.288,0.075 0.521,0.164 0.795,0.275 0.539,0.219 1.145,0.255 1.452,0.869 0.248,0.496 0.512,1.388 0.52,1.931 0.005,0.343 -0.241,0.623 -0.29,0.978 -0.041,0.3 -0.029,0.61 -0.179,0.87 -0.133,0.229 -0.372,0.38 -0.544,0.585 -0.121,0.144 -0.221,0.297 -0.37,0.405 0.333,0.049 0.767,-0.535 0.936,-0.802 0.277,-0.438 0.636,-0.809 0.898,-1.258 0.235,-0.402 0.54,-0.674 0.827,-1.027 0.272,-0.335 0.335,-0.838 0.5,-1.245 0.185,-0.46 0.429,-0.911 0.5,-1.408 0.068,-0.473 0.002,-1.15 -0.091,-1.625 -0.126,-0.644 -0.412,-1.259 -0.391,-1.919 0.024,-0.758 0.651,-1.374 0.578,-2.148 -0.004,0.242 0.192,0.3 0.313,0.468 0.024,-0.18 -0.098,-0.37 0.053,-0.503 0.011,-0.009 0.32,0.007 0.365,-0.002 0.161,-0.031 0.301,-0.135 0.456,-0.183 C -0.882,-0.246 -0.175,-0.334 0,0"
             style="fill:#231f20;fill-opacity:1;fill-rule:nonzero;stroke:none"
             id="path6555" />
        </g>
        <g
           id="g6557"
           transform="translate(59.7411,441.624)">
          <path
             d="M 0,0 C -0.127,0.142 -0.373,0.201 -0.568,0.315 -0.812,0.459 -1.03,0.732 -1.252,0.916 -1.533,1.149 -1.841,1.497 -2.148,1.64 -2.16,1.233 -1.707,0.846 -1.617,0.43 c 0.092,-0.425 0.023,-0.778 0.017,-1.188 -0.008,-0.559 -0.057,-1.081 -0.081,-1.647 -0.011,-0.244 0.095,-0.52 0.067,-0.752 -0.018,-0.142 -0.154,-0.316 -0.185,-0.468 0.687,1.034 0.531,2.645 0.651,3.861 0.199,-0.149 0.639,-0.245 0.883,-0.271 C -0.097,-0.053 0.062,0.05 0.192,-0.084 0.151,-0.09 0.157,-0.107 0,0"
             style="fill:#231f20;fill-opacity:1;fill-rule:nonzero;stroke:none"
             id="path6559" />
        </g>
        <g
           id="g6561"
           transform="translate(62.4365,438.412)">
          <path
             d="m 0,0 c -0.367,-0.16 -0.737,-0.566 -1.044,-0.844 -0.328,-0.297 -0.523,-0.28 -1,-0.182 -0.653,0.134 -1.968,0.772 -2.591,0.228 0.309,0.03 0.827,0.124 1.032,-0.188 0.476,0.018 0.933,-0.328 1.35,-0.536 0.216,-0.107 0.317,-0.254 0.507,-0.395 0.243,-0.181 0.4,-0.159 0.579,-0.437 0.128,-0.198 0.278,-0.434 0.38,-0.64 0.106,-0.213 0.132,-0.483 0.259,-0.689 0.138,-0.223 0.237,-0.37 0.355,-0.603 0.082,-0.161 0.141,-0.365 0.328,-0.164 -0.02,-0.078 -0.029,-0.13 -0.073,-0.194 0.051,0.254 0.314,0.803 0.472,1.018 0.139,0.19 0.42,0.339 0.6,0.502 0.197,0.178 0.281,0.322 0.431,0.534 0.297,0.424 0.785,0.639 1.248,0.724 0.47,0.086 1.001,0.368 1.451,0.323 -0.206,0.06 -0.565,0.222 -0.796,0.22 C 3.229,-1.325 2.906,-1.443 2.641,-1.483 1.838,-1.604 1.01,-2.101 0.568,-2.853 0.387,-3.161 0.374,-3.674 0.096,-3.89 c 0.154,0.526 0.234,1.178 0.297,1.761 0.04,0.368 0.204,0.712 0.173,1.08 -0.024,0.283 -0.015,0.543 -0.079,0.818 -0.302,-0.139 -0.284,-1.272 -0.354,-1.611 -0.066,-0.319 -0.13,-0.643 -0.18,-0.956 -0.034,-0.214 -0.155,-0.441 -0.148,-0.646 -0.17,0.406 -0.379,0.773 -0.633,1.125 -0.124,0.172 -0.333,0.427 -0.274,0.68 0.056,0.245 0.455,0.594 0.609,0.8 0.193,0.259 0.384,0.521 0.527,0.807 C -0.007,-0.031 -0.042,-0.04 0,0"
             style="fill:#231f20;fill-opacity:1;fill-rule:nonzero;stroke:none"
             id="path6563" />
        </g>
      </g>
    </g>
  </g>
</svg>
