<?xml version="1.0" encoding="UTF-8" standalone="no"?>
<!-- Created with Inkscape (http://www.inkscape.org/) -->

<svg
   width="27.803677"
   height="24"
   viewBox="0 0 7.3563893 6.35"
   version="1.1"
   id="svg24428"
   inkscape:version="1.2.1 (9c6d41e4, 2022-07-14)"
   sodipodi:docname="whippoorwills.svg"
   xmlns:inkscape="http://www.inkscape.org/namespaces/inkscape"
   xmlns:sodipodi="http://sodipodi.sourceforge.net/DTD/sodipodi-0.dtd"
   xmlns="http://www.w3.org/2000/svg"
   xmlns:svg="http://www.w3.org/2000/svg">
  <sodipodi:namedview
     id="namedview24430"
     pagecolor="#505050"
     bordercolor="#eeeeee"
     borderopacity="1"
     inkscape:showpageshadow="0"
     inkscape:pageopacity="0"
     inkscape:pagecheckerboard="0"
     inkscape:deskcolor="#505050"
     inkscape:document-units="mm"
     showgrid="false"
     inkscape:zoom="0.70199214"
     inkscape:cx="-21.367761"
     inkscape:cy="153.84788"
     inkscape:window-width="1390"
     inkscape:window-height="938"
     inkscape:window-x="0"
     inkscape:window-y="25"
     inkscape:window-maximized="0"
     inkscape:current-layer="layer1" />
  <defs
     id="defs24425">
    <clipPath
       clipPathUnits="userSpaceOnUse"
       id="clipPath1141">
      <path
         d="m 55.717,293.756 h 24.7 v 24.699 h -24.7 z"
         id="path1139" />
    </clipPath>
  </defs>
  <g
     inkscape:label="Layer 1"
     inkscape:groupmode="layer"
     id="layer1"
     transform="translate(-110.71624,-107.85251)">
    <g
       id="g1135"
       transform="matrix(0.33594944,0,0,-0.33594944,91.536855,213.83479)">
      <g
         id="g1137"
         clip-path="url(#clipPath1141)">
        <g
           id="g1143"
           transform="translate(58.015,310.724)">
          <path
             d="M 0,0 C -0.05,-0.048 0.058,-0.012 0.127,0.028 0.315,0.136 0.493,0.327 0.67,0.462 0.906,0.64 0.998,0.878 1.196,1.108 1.324,1.257 1.353,1.413 1.53,1.538 1.905,1.802 2.352,1.862 2.728,2.158 3.301,2.609 3.845,2.875 4.456,3.251 5.12,3.66 6.142,4.107 6.888,4.234 c 0.714,0.122 1.444,0.203 2.165,0.359 0.76,0.164 1.347,0.181 2.114,0.125 0.652,-0.047 1.134,-0.282 1.771,-0.37 0.207,-0.029 0.428,-0.115 0.612,-0.213 0.216,-0.115 0.257,-0.233 0.491,-0.32 0.334,-0.124 0.69,-0.243 0.985,-0.48 0.488,-0.394 1.105,-0.688 1.515,-1.197 0.201,-0.249 0.002,-0.362 0.185,-0.589 0.18,-0.221 0.561,-0.483 0.796,-0.645 -0.055,-0.24 0.265,-0.319 0.352,-0.486 0.059,-0.113 0.034,-0.266 0.106,-0.393 -0.257,-0.184 -0.512,0.336 -0.648,0.517 -0.314,0.416 -0.771,0.73 -1.146,1.062 -0.484,0.427 -0.92,0.911 -1.55,1.139 C 13.705,3.081 12.83,3.509 11.862,3.785 11.123,3.996 10.303,4.094 9.529,4.077 9.184,4.07 8.838,4.096 8.493,4.096 8.181,4.095 7.644,4.194 7.359,4.023 7.299,3.987 7.288,3.864 7.222,3.816 7.027,3.674 6.755,3.652 6.536,3.596 5.969,3.454 5.323,3.413 4.803,3.102 4.626,2.996 4.507,2.827 4.346,2.713 4.066,2.515 3.722,2.441 3.436,2.252 3.019,1.977 2.889,1.511 2.444,1.32 2.052,1.151 1.729,1.006 1.393,0.722 1.183,0.545 1.179,0.348 0.931,0.226 0.727,0.126 0.578,0.073 0.477,-0.14 0.379,-0.348 0.392,-0.66 0.145,-0.718 c -0.182,-0.043 -0.454,-0.148 -0.384,0.08 0.029,0.157 0.072,0.312 0.061,0.466 C -0.097,-0.101 0.035,-0.061 0,0"
             style="fill:#231f20;fill-opacity:1;fill-rule:nonzero;stroke:none"
             id="path1145" />
        </g>
        <g
           id="g1147"
           transform="translate(76.2385,310.57)">
          <path
             d="m 0,0 c -0.136,0.061 -0.624,-0.304 -0.79,-0.405 -0.395,-0.243 -0.74,-0.516 -1.18,-0.592 -0.625,-0.108 -1.284,-0.323 -1.879,-0.551 -0.518,-0.197 -0.903,-0.499 -1.361,-0.768 -0.252,-0.148 -0.566,-0.149 -0.813,-0.306 -0.225,-0.143 -0.335,-0.427 0.039,-0.432 0.108,0.19 0.535,0.353 0.741,0.48 0.331,0.205 0.676,0.303 0.998,0.44 0.232,0.099 0.521,0.27 0.763,0.375 0.382,0.165 0.811,0.218 1.224,0.347 1.19,0.372 2.531,0.177 3.649,-0.346 C 1.907,-1.999 2.278,-2.366 2.427,-2.843 2.498,-2.47 2.505,-2.327 2.33,-2.001 2.204,-1.767 2.17,-1.536 2.055,-1.316 1.737,-0.704 1.137,-0.303 0.624,-0.004 0.427,0.11 -0.012,0.415 0,0"
             style="fill:#231f20;fill-opacity:1;fill-rule:nonzero;stroke:none"
             id="path1149" />
        </g>
        <g
           id="g1151"
           transform="translate(75.2612,309.038)">
          <path
             d="m 0,0 c -0.29,-0.159 -0.277,-0.825 -0.233,-1.112 0.041,-0.279 0.006,-0.522 0.027,-0.807 0.025,-0.345 0.197,-0.606 0.332,-0.918 C 0.412,-3.499 0.692,-4.155 0.962,-4.8 1.28,-5.564 1.647,-6.265 1.749,-7.083 1.808,-7.557 2.08,-8.025 2.055,-8.513 2.043,-8.756 1.872,-8.923 1.848,-9.162 1.583,-9.211 1.521,-9.32 1.443,-9.025 1.371,-8.753 1.505,-8.45 1.46,-8.187 1.339,-7.482 1.076,-6.78 0.95,-6.059 c -0.136,0.776 -0.239,1.412 -0.669,2.07 -0.2,0.306 -0.445,0.562 -0.593,0.911 -0.163,0.384 -0.545,0.906 -0.488,1.331 0.027,0.205 0.193,0.418 0.247,0.631 0.04,0.159 0.026,0.36 0.06,0.498 C -0.444,-0.419 -0.261,-0.077 0,0"
             style="fill:#231f20;fill-opacity:1;fill-rule:nonzero;stroke:none"
             id="path1153" />
        </g>
        <g
           id="g1155"
           transform="translate(70.7214,307.819)">
          <path
             d="m 0,0 c 0.195,-0.199 0.292,-0.429 0.374,-0.701 0.12,-0.406 0.211,-0.668 0.417,-1.038 0.221,-0.396 0.365,-0.872 0.597,-1.272 0.182,-0.315 0.308,-0.42 0.365,-0.782 0.034,-0.208 0.044,-0.43 0.01,-0.575 0.119,0.667 -0.258,1.01 -0.474,1.581 C 1.2,-2.552 1.17,-2.382 1.022,-2.174 0.904,-2.006 0.774,-1.863 0.698,-1.668 0.557,-1.306 0.6,-0.917 0.455,-0.574 0.384,-0.408 0.239,-0.297 0.161,-0.138 0.1,-0.015 0.118,0.116 0.035,0.185 0.07,0.143 0.114,0.167 0,0"
             style="fill:#231f20;fill-opacity:1;fill-rule:nonzero;stroke:none"
             id="path1157" />
        </g>
        <g
           id="g1159"
           transform="translate(71.0531,308.086)">
          <path
             d="m 0,0 c 0.22,0.042 0.551,-0.632 0.692,-0.827 0.279,-0.385 0.44,-0.697 0.586,-1.166 0.147,-0.475 0.44,-0.728 0.483,-1.246 0.031,-0.367 0.187,-0.789 0.121,-1.164 0.08,0.443 0.146,0.813 0.053,1.26 -0.103,0.496 -0.452,0.875 -0.622,1.34 -0.157,0.428 -0.361,0.734 -0.598,1.122 -0.184,0.302 -0.349,0.58 -0.53,0.873 C 0.124,0.184 0.06,0.146 0,0"
             style="fill:#231f20;fill-opacity:1;fill-rule:nonzero;stroke:none"
             id="path1161" />
        </g>
        <g
           id="g1163"
           transform="translate(71.4872,308.4)">
          <path
             d="M 0,0 C 0.247,-0.009 0.767,-0.905 0.901,-1.148 1.127,-1.556 1.44,-1.904 1.686,-2.299 1.856,-2.574 1.974,-2.749 2.027,-3.058 2.059,-3.247 2.093,-3.54 2.165,-3.716 2.281,-4.002 2.548,-4.244 2.634,-4.55 2.455,-3.738 2.196,-2.832 1.718,-2.142 1.424,-1.717 1.002,-1.309 0.88,-0.795 0.796,-0.44 0.64,0.066 0.216,0.098 0.306,0.105 0.395,0.097 0.482,0.074"
             style="fill:#231f20;fill-opacity:1;fill-rule:nonzero;stroke:none"
             id="path1165" />
        </g>
        <g
           id="g1167"
           transform="translate(72.3012,308.741)">
          <path
             d="M 0,0 C 0.09,-0.341 0.558,-0.572 0.731,-0.895 0.987,-1.371 1.167,-1.751 1.544,-2.156 1.657,-2.277 1.698,-2.283 1.79,-2.412 1.846,-2.49 1.904,-2.623 1.96,-2.715 2.063,-2.882 2.134,-3.065 2.235,-3.223 2.435,-3.537 2.679,-3.868 2.822,-4.224 2.801,-4.041 2.816,-3.838 2.758,-3.66 2.654,-3.341 2.372,-3.116 2.214,-2.829 2.015,-2.467 1.901,-2.017 1.635,-1.679 1.352,-1.319 1.096,-1.013 0.848,-0.623 0.712,-0.41 0.42,-0.029 0,0"
             style="fill:#231f20;fill-opacity:1;fill-rule:nonzero;stroke:none"
             id="path1169" />
        </g>
        <g
           id="g1171"
           transform="translate(74.9341,306.825)">
          <path
             d="M 0,0 C -0.028,0.271 -0.333,0.506 -0.481,0.717 -0.654,0.962 -0.802,1.255 -1.003,1.473 -1.254,1.745 -1.585,1.918 -1.896,2.107 -1.467,1.81 -1.178,1.295 -0.803,0.925 -0.547,0.673 -0.307,0.153 0,0"
             style="fill:#231f20;fill-opacity:1;fill-rule:nonzero;stroke:none"
             id="path1173" />
        </g>
        <g
           id="g1175"
           transform="translate(72.9726,308.994)">
          <path
             d="M 0,0 C 0.179,-0.059 0.308,-0.153 0.488,-0.241 0.539,-0.267 0.59,-0.29 0.64,-0.313 0.403,-0.133 0.157,0.026 -0.098,0.134 Z"
             style="fill:#231f20;fill-opacity:1;fill-rule:nonzero;stroke:none"
             id="path1177" />
        </g>
        <g
           id="g1179"
           transform="translate(75.2102,307.673)">
          <path
             d="M 0,0 C -0.271,0.337 -0.467,0.782 -0.821,1.031 -1.082,1.214 -1.344,1.322 -1.619,1.45 -1.301,1.209 -0.999,0.931 -0.714,0.682 -0.435,0.439 -0.349,0.153 -0.098,-0.145 0.145,-0.434 0.492,-0.663 0.761,-0.921 1.014,-1.163 1.27,-1.401 1.528,-1.639 1.43,-1.536 1.336,-1.428 1.234,-1.32 0.818,-0.879 0.366,-0.455 0,0"
             style="fill:#231f20;fill-opacity:1;fill-rule:nonzero;stroke:none"
             id="path1181" />
        </g>
        <g
           id="g1183"
           transform="translate(74.6554,309.165)">
          <path
             d="m 0,0 c -0.062,0.061 -0.122,0.122 -0.178,0.187 l 0.016,-0.086 c -0.116,0.058 -0.243,0.094 -0.389,0.091 0.153,-0.03 0.282,-0.089 0.402,-0.163 l 0.015,-0.082 C -0.061,-0.187 0.054,-0.28 0.147,-0.411 0.295,-0.619 0.408,-0.863 0.589,-1.058 0.762,-1.245 0.963,-1.424 1.153,-1.6 1.3,-1.736 1.381,-1.917 1.525,-2.038 1.515,-1.717 1.201,-1.462 0.982,-1.263 0.739,-1.042 0.666,-0.843 0.488,-0.573 0.417,-0.465 0.344,-0.36 0.265,-0.263 0.319,-0.301 0.376,-0.338 0.436,-0.374 0.35,-0.308 0.267,-0.24 0.185,-0.17 0.127,-0.106 0.065,-0.05 0,0"
             style="fill:#231f20;fill-opacity:1;fill-rule:nonzero;stroke:none"
             id="path1185" />
        </g>
        <g
           id="g1187"
           transform="translate(78.9874,306.778)">
          <path
             d="M 0,0 C -0.486,0.285 -1.009,0.435 -1.518,0.695 -2.011,0.948 -2.556,1.173 -3.032,1.464 -3.318,1.639 -3.58,1.829 -3.872,1.998 -3.88,2.003 -3.888,2.008 -3.896,2.013 -3.681,1.847 -3.457,1.692 -3.246,1.537 -2.88,1.266 -2.472,0.95 -2.073,0.756 -1.504,0.478 -0.884,0.315 -0.306,0.055 -0.233,0.023 -0.144,-0.017 -0.047,-0.063 -0.032,-0.041 -0.017,-0.02 0,0"
             style="fill:#231f20;fill-opacity:1;fill-rule:nonzero;stroke:none"
             id="path1189" />
        </g>
        <g
           id="g1191"
           transform="translate(57.7642,303.435)">
          <path
             d="m 0,0 c -0.031,-0.009 0.017,-0.161 0.113,-0.245 0.188,-0.166 0.467,-0.038 0.651,-0.194 0.126,-0.107 0.205,-0.472 0.35,-0.609 0.22,-0.209 0.451,-0.217 0.729,-0.274 0.338,-0.07 0.565,-0.166 0.768,-0.553 0.16,-0.306 0.212,-0.615 0.429,-0.856 0.307,-0.341 0.768,-0.541 1.163,-0.663 0.144,-0.044 0.288,-0.017 0.398,-0.127 0.14,-0.141 0.23,-0.413 0.445,-0.542 0.294,-0.177 1.688,-1.103 1.988,-0.669 0.291,-0.836 1.292,-0.977 1.867,-1.173 0.716,-0.243 1.568,-0.477 2.339,-0.369 0.351,0.049 0.674,0.363 0.998,0.429 0.35,0.07 0.893,-0.197 1.258,-0.233 0.4,-0.039 0.686,-0.016 1.081,0.155 0.157,0.069 0.334,0.176 0.488,0.092 -0.187,-0.246 -0.437,-0.324 -0.659,-0.364 -0.463,-0.083 -0.907,-0.218 -1.378,-0.255 -0.175,-0.013 -0.532,-0.153 -0.68,-0.066 -0.087,0.052 -0.073,0.3 -0.162,0.319 -0.11,0.024 -0.192,-0.169 -0.293,-0.237 C 11.479,-6.71 11.017,-6.76 10.591,-6.8 9.999,-6.855 9.107,-6.987 8.614,-6.589 8.388,-6.408 8.326,-6.281 8.055,-6.253 7.729,-6.219 7.296,-6.239 7.007,-6.009 6.812,-5.854 6.756,-5.557 6.545,-5.467 6.304,-5.365 5.962,-5.502 5.702,-5.437 5.445,-5.373 5.218,-5.205 4.978,-5.079 4.703,-4.934 3.936,-4.703 4.032,-4.062 3.766,-3.796 3.241,-3.994 2.921,-3.847 2.577,-3.688 2.099,-3.453 1.934,-2.964 1.848,-2.707 1.883,-2.387 1.711,-2.21 1.539,-2.035 1.203,-2.054 0.997,-1.902 0.737,-1.71 0.583,-1.566 0.485,-1.227 0.461,-1.146 0.53,-1.03 0.493,-0.928 0.459,-0.833 0.327,-0.775 0.268,-0.723 -0.173,-0.335 -0.774,0.071 -0.66,0.966 -0.579,0.545 -0.123,-0.082 0,0"
             style="fill:#231f20;fill-opacity:1;fill-rule:nonzero;stroke:none"
             id="path1193" />
        </g>
        <g
           id="g1195"
           transform="translate(69.3989,311.097)">
          <path
             d="m 0,0 c 0.029,-0.038 0.058,-0.078 0.084,-0.12 0.015,-0.024 0.029,-0.048 0.044,-0.072 0.085,-0.067 0.173,-0.128 0.254,-0.13 0.004,0.014 0.009,0.027 0.011,0.041 C 0.317,-0.077 0.321,0.219 0.217,0.434 0.131,0.61 -0.34,1.147 -0.563,1.028 -0.891,0.853 -0.374,0.534 -0.282,0.43 -0.183,0.318 -0.085,0.16 0,0"
             style="fill:#231f20;fill-opacity:1;fill-rule:nonzero;stroke:none"
             id="path1197" />
        </g>
        <g
           id="g1199"
           transform="translate(68.3845,311.63)">
          <path
             d="M 0,0 C 0.139,0.332 -0.48,0.625 -0.702,0.79 -0.86,0.909 -1.421,1.232 -1.51,0.92 -1.21,0.75 -0.871,0.652 -0.568,0.478 -0.334,0.342 -0.237,0.162 0,0"
             style="fill:#231f20;fill-opacity:1;fill-rule:nonzero;stroke:none"
             id="path1201" />
        </g>
        <g
           id="g1203"
           transform="translate(67.1911,311.773)">
          <path
             d="M 0,0 C 0.332,0.413 -2.137,1.048 -2.673,0.748 -2.278,0.415 -1.768,0.519 -1.3,0.481 -0.854,0.445 -0.439,0.254 0,0"
             style="fill:#231f20;fill-opacity:1;fill-rule:nonzero;stroke:none"
             id="path1205" />
        </g>
        <g
           id="g1207"
           transform="translate(64.3178,311.359)">
          <path
             d="m 0,0 c 0.001,0.023 -0.063,0.039 0.004,0.101 -0.129,-0.043 -0.415,-0.166 -0.338,-0.351 0.092,-0.225 0.56,0.043 0.683,0.093 0.376,0.151 0.762,0.274 1.163,0.331 0.2,0.028 0.459,0.003 0.627,0.059 C 1.55,0.335 0.723,0.426 0,0"
             style="fill:#231f20;fill-opacity:1;fill-rule:nonzero;stroke:none"
             id="path1209" />
        </g>
        <g
           id="g1211"
           transform="translate(67.3047,309.357)">
          <path
             d="m 0,0 c 0.032,-0.196 -0.557,-0.161 -0.674,-0.001 -0.063,0.087 -0.395,0.409 0,0.496 0.036,0.098 0.362,-0.143 0.365,-0.033 C -0.236,0.382 -0.031,0.188 0,0 M 2.286,-0.409 C 2.296,-0.248 2.353,0.05 2.324,0.193 2.282,0.403 2.006,0.627 1.876,0.78 1.492,1.23 1.152,1.647 0.557,1.792 0.367,1.838 -0.246,1.92 -0.094,1.699 -0.528,1.835 -0.755,1.682 -1.14,1.518 -1.444,1.388 -1.703,1.37 -1.883,1.007 c -0.17,-0.342 -0.394,-1.035 -0.199,-1.365 0.243,-0.412 0.511,-1.017 0.906,-1.165 0.642,-0.24 1.03,-0.276 1.522,-0.315 0.493,-0.039 0.708,0.07 1.133,0.333 0.369,0.228 0.778,0.638 0.807,1.096"
             style="fill:#231f20;fill-opacity:1;fill-rule:nonzero;stroke:none"
             id="path1213" />
        </g>
      </g>
    </g>
  </g>
</svg>
