<?xml version="1.0" encoding="UTF-8" standalone="no"?>
<!-- Created with Inkscape (http://www.inkscape.org/) -->

<svg
   width="13.34407"
   height="24"
   viewBox="0 0 3.5306187 6.35"
   version="1.1"
   id="svg13560"
   inkscape:version="1.2.1 (9c6d41e4, 2022-07-14)"
   sodipodi:docname="single-group.svg"
   xmlns:inkscape="http://www.inkscape.org/namespaces/inkscape"
   xmlns:sodipodi="http://sodipodi.sourceforge.net/DTD/sodipodi-0.dtd"
   xmlns="http://www.w3.org/2000/svg"
   xmlns:svg="http://www.w3.org/2000/svg">
  <sodipodi:namedview
     id="namedview13562"
     pagecolor="#505050"
     bordercolor="#eeeeee"
     borderopacity="1"
     inkscape:showpageshadow="0"
     inkscape:pageopacity="0"
     inkscape:pagecheckerboard="0"
     inkscape:deskcolor="#505050"
     inkscape:document-units="mm"
     showgrid="false"
     inkscape:zoom="0.7046647"
     inkscape:cx="78.051306"
     inkscape:cy="134.10633"
     inkscape:window-width="1390"
     inkscape:window-height="941"
     inkscape:window-x="0"
     inkscape:window-y="25"
     inkscape:window-maximized="0"
     inkscape:current-layer="layer1" />
  <defs
     id="defs13557">
    <clipPath
       clipPathUnits="userSpaceOnUse"
       id="clipPath3911">
      <path
         d="M 56.886,132.567 H 92.7 v 35.814 H 56.886 Z"
         id="path3909" />
    </clipPath>
  </defs>
  <g
     inkscape:label="Layer 1"
     inkscape:groupmode="layer"
     id="layer1"
     transform="translate(-84.593729,-113.22196)">
    <g
       id="g3905"
       transform="matrix(0.19567981,0,0,-0.19567981,71.806501,145.77257)">
      <g
         id="g3907"
         clip-path="url(#clipPath3911)">
        <g
           id="g3913"
           transform="translate(72.2794,164.9559)">
          <path
             d="M 0,0 C -0.109,-0.166 -0.209,-0.337 -0.299,-0.519 -0.348,-0.618 -0.364,-0.73 -0.428,-0.821 -0.475,-0.89 -0.51,-0.912 -0.538,-1.002 -0.597,-1.196 -0.643,-1.4 -0.697,-1.596 -0.74,-1.752 -0.783,-1.86 -0.765,-2.024 c 0.018,-0.159 -0.031,-0.326 -0.049,-0.49 -0.076,-0.682 -0.005,-1.582 0.361,-2.196 0.136,-0.229 0.323,-0.414 0.523,-0.579 0.186,-0.154 0.393,-0.278 0.506,-0.507 0.1,-0.203 0.179,-0.374 0.374,-0.501 0.232,-0.152 0.505,-0.131 0.759,-0.098 0.386,0.05 0.768,0.17 1.148,0.255 0.463,0.104 0.837,0.263 1.187,0.601 0.16,0.154 0.33,0.306 0.478,0.474 0.144,0.164 0.236,0.37 0.37,0.544 0.262,0.34 0.305,0.87 0.321,1.293 0.008,0.193 0.083,0.363 0.139,0.543 0.088,0.281 0.149,0.598 0.102,0.899 -0.036,0.224 -0.065,0.402 -0.018,0.624 0.099,0.463 -0.054,0.914 -0.404,1.23 C 4.821,0.259 4.62,0.46 4.414,0.659 4.211,0.855 3.97,0.98 3.71,1.061 3.429,1.148 3.161,1.272 2.881,1.364 2.705,1.421 2.51,1.368 2.332,1.367 2.151,1.367 1.996,1.389 1.816,1.35 1.626,1.309 1.474,1.165 1.287,1.124 1.241,1.114 1.193,1.122 1.146,1.112 0.994,1.079 0.838,0.967 0.713,0.876 0.539,0.749 0.408,0.561 0.276,0.388 0.179,0.261 0.087,0.133 0,0"
             style="fill:#231f20;fill-opacity:1;fill-rule:nonzero;stroke:none"
             id="path3915" />
        </g>
        <g
           id="g3917"
           transform="translate(72.4135,154.3113)">
          <path
             d="m 0,0 c -0.284,-0.143 -0.146,-0.791 -0.122,-1.028 0.015,-0.138 0.038,-0.24 0.074,-0.367 0.064,-0.223 0.076,-0.47 0.11,-0.699 0.075,-0.499 0.154,-0.997 0.239,-1.494 0.052,-0.332 0.059,-0.666 0.02,-1 C 0.281,-4.914 0.245,-5.241 0.214,-5.568 0.196,-5.962 0.193,-6.357 0.205,-6.752 0.222,-7.087 0.214,-7.423 0.179,-7.757 0.136,-8.001 0.084,-8.243 0.023,-8.483 c -0.087,-0.581 0.046,-1.179 0.166,-1.743 0.101,-0.482 0.217,-0.955 0.328,-1.435 0.118,-0.509 0.112,-1.028 0.258,-1.53 0.125,-0.431 0.229,-0.861 0.302,-1.303 0.026,-0.163 0.048,-0.327 0.066,-0.491 0.067,-0.236 0.138,-0.471 0.214,-0.704 0.239,-0.888 0.124,-1.708 0.009,-2.603 -0.028,-0.222 -0.072,-0.397 0.002,-0.611 0.046,-0.134 0.1,-0.264 0.143,-0.4 0.028,-0.091 0.09,-0.258 0.108,-0.337 0.031,-0.132 0.016,-0.28 0.014,-0.417 -0.001,-0.115 0.022,-0.285 0.128,-0.359 -0.034,0.172 0.057,0.363 0.062,0.538 0.008,0.274 0.021,0.499 0.072,0.767 0.08,0.429 0.282,0.754 0.424,1.158 0.133,0.376 0.185,0.766 0.247,1.155 0.083,0.514 0.043,1.043 0.124,1.565 0.061,0.39 0.094,0.764 0.18,1.15 0.057,0.256 0.116,0.505 0.205,0.753 0.111,0.308 0.273,0.569 0.324,0.894 0.039,0.253 0.035,0.511 0.045,0.766 0.009,0.251 0.048,0.499 0.058,0.75 0.013,0.336 -0.003,0.676 -0.003,1.012 0,0.416 -0.013,0.833 0.014,1.248 0.028,0.44 0.027,0.891 0.171,1.31 0.116,0.339 0.244,0.7 0.254,1.061 0.01,0.34 -0.003,0.683 -0.004,1.022 -0.001,0.371 0.075,0.744 0.06,1.113 -0.013,0.348 -0.041,0.696 -0.032,1.049 0.017,0.78 0.076,1.557 0.141,2.333 0.014,0.169 0.062,0.457 -0.019,0.609 C 3.963,0.067 3.763,0.093 3.532,0.005 3.286,-0.089 3.13,-0.168 2.87,-0.166 c -0.234,0.002 -0.468,0 -0.702,0 -0.237,0 -0.497,-0.032 -0.729,0.012 -0.158,0.03 -0.294,0.044 -0.456,0.043 -0.251,0 -0.502,0 -0.753,0 -0.111,0 -0.234,0.014 -0.344,0.002 C -0.186,-0.117 -0.386,-0.188 0,0"
             style="fill:#231f20;fill-opacity:1;fill-rule:nonzero;stroke:none"
             id="path3919" />
        </g>
        <g
           id="g3921"
           transform="translate(66.2933,154.8757)">
          <path
             d="m 0,0 c 0.013,0.004 0.028,0.007 0.043,0.009 0.233,0.039 0.471,0.057 0.706,0.097 0.187,0.032 0.378,0.1 0.55,0.181 0.275,0.13 0.576,0.187 0.864,0.286 0.368,0.126 0.797,0.168 1.112,0.399 0.257,0.189 0.62,0.259 0.923,0.346 0.445,0.126 0.894,0.218 1.331,0.372 0.397,0.14 0.784,0.26 1.197,0.347 0.265,0.055 0.497,0.151 0.748,0.249 0.196,0.076 0.375,0.074 0.582,0.101 0.314,0.04 0.625,0.15 0.928,0.241 0.366,0.109 0.703,0.091 1.072,0.131 0.406,0.045 0.775,0.174 1.189,0.18 0.155,0.002 0.323,-0.018 0.479,0.007 0.184,0.03 0.356,0.13 0.547,0.119 0.142,-0.008 0.264,-0.093 0.407,-0.106 0.119,-0.011 0.233,0.026 0.347,0.055 0.618,0.159 1.346,0.3 1.864,0.664 0.182,0.126 0.401,0.142 0.611,0.185 0.205,0.041 0.384,0.107 0.577,0.181 0.093,0.035 0.337,0.122 0.455,0.077 0.098,-0.038 0.088,-0.104 0.125,-0.186 0.078,-0.174 0.257,-0.332 0.294,-0.516 0.047,-0.236 -0.005,-0.514 0.017,-0.756 0.023,-0.256 0.075,-0.507 0.1,-0.762 0.05,-0.517 0.041,-1.089 -0.067,-1.595 -0.03,-0.137 -0.049,-0.268 -0.047,-0.409 0,-0.049 0.028,-0.145 -0.008,-0.185 -0.042,-0.047 -0.367,-0.01 -0.422,-0.01 -0.3,0.002 -0.582,-0.07 -0.877,-0.104 -0.211,-0.024 -0.419,-0.014 -0.628,-0.059 -0.58,-0.124 -1.133,-0.321 -1.724,-0.406 C 12.82,-0.935 12.346,-1.008 11.872,-1.081 11.336,-1.163 10.797,-1.164 10.261,-1.238 9.332,-1.366 8.435,-1.729 7.525,-1.949 7.383,-1.983 7.244,-2.026 7.106,-2.071 6.68,-2.21 6.248,-2.401 5.795,-2.424 5.519,-2.438 5.252,-2.344 4.976,-2.362 4.572,-2.389 4.254,-2.651 3.87,-2.749 3.518,-2.839 3.155,-2.868 2.798,-2.932 2.527,-2.98 2.267,-3.05 1.991,-3.057 1.623,-3.067 1.272,-3.182 0.91,-3.163 0.727,-3.153 0.552,-3.206 0.39,-3.287 0.279,-3.344 0.138,-3.443 0.012,-3.464 c -0.133,-0.024 -0.226,0.047 -0.342,0.104 -0.21,0.106 -0.451,0.227 -0.576,0.434 -0.077,0.128 -0.025,0.191 0.016,0.336 0.047,0.164 0.037,0.409 0.121,0.556 0.033,0.057 0.069,0.051 0.101,0.107 0.045,0.076 0.052,0.212 0.075,0.298 0.102,0.385 0.214,0.766 0.332,1.146 C -0.197,-0.279 -0.207,-0.06 0,0"
             style="fill:#231f20;fill-opacity:1;fill-rule:nonzero;stroke:none"
             id="path3923" />
        </g>
      </g>
    </g>
  </g>
</svg>
