<svg width="14" height="24" viewBox="0 0 14 24" fill="#000000" xmlns="http://www.w3.org/2000/svg">
  <path d="M5.12661 1.02795C5.04618 1.1502 4.97219 1.27782 4.9057 1.41187C4.86924 1.48479 4.85744 1.56736 4.81026 1.636C4.77594 1.6864 4.74913 1.70249 4.72875 1.76898C4.68479 1.91268 4.65154 2.06281 4.61079 2.20866C4.57969 2.32341 4.54752 2.40277 4.56146 2.52502C4.57433 2.64298 4.53787 2.76631 4.52393 2.88749C4.46816 3.39152 4.52071 4.05748 4.79095 4.51111C4.89176 4.68054 5.0301 4.81781 5.17809 4.94007C5.31536 5.05374 5.46978 5.14489 5.55236 5.31433C5.62635 5.46447 5.68534 5.59101 5.82904 5.68538C6.00062 5.79799 6.20223 5.7819 6.39097 5.75724C6.67623 5.72077 6.95935 5.63176 7.23924 5.56849C7.58241 5.49235 7.85909 5.37439 8.11754 5.12452C8.2355 5.01084 8.36205 4.89824 8.47036 4.77384C8.5776 4.65266 8.64623 4.50038 8.74489 4.37169C8.93793 4.12075 8.9701 3.72825 8.9819 3.41618C8.98833 3.27248 9.04302 3.14701 9.08485 3.01403C9.15026 2.80599 9.1953 2.57113 9.15991 2.34915C9.1331 2.18292 9.11273 2.05209 9.14705 1.88801C9.21997 1.54484 9.10737 1.21133 8.84785 0.977544C8.69235 0.835987 8.54328 0.687996 8.391 0.541077C8.24087 0.395231 8.06285 0.303004 7.87089 0.24295C7.66284 0.179678 7.46445 0.0874519 7.25747 0.0198906C7.12664 -0.0230054 6.98294 0.0166731 6.85104 0.0166731C6.71806 0.0166731 6.60224 0.00058719 6.47033 0.029542C6.32878 0.0595692 6.21617 0.165737 6.07783 0.196837C6.04459 0.204344 6.00813 0.197909 5.97488 0.205416C5.86228 0.230081 5.74646 0.312656 5.65424 0.380217C5.52555 0.474589 5.42796 0.612928 5.33037 0.740544C5.25959 0.834915 5.19096 0.930359 5.12661 1.02795Z"/>
  <path d="M5.22581 8.90057C5.01562 9.00566 5.1175 9.4861 5.13573 9.6609C5.14645 9.76278 5.16361 9.83892 5.19042 9.93222C5.23761 10.0974 5.24618 10.2797 5.27192 10.4491C5.32661 10.818 5.3856 11.1859 5.4478 11.5537C5.48747 11.8003 5.49176 12.047 5.46281 12.2936C5.43385 12.5349 5.40704 12.7762 5.38452 13.0186C5.37058 13.3103 5.36844 13.602 5.37702 13.8937C5.38989 14.1425 5.38345 14.3902 5.35771 14.6379C5.32661 14.8181 5.28801 14.9972 5.24297 15.1752C5.17862 15.6041 5.27728 16.046 5.36522 16.4631C5.44029 16.8202 5.52608 17.1698 5.60866 17.5248C5.69552 17.9012 5.69123 18.2851 5.79847 18.6562C5.89177 18.9747 5.96898 19.2932 6.0226 19.6203C6.04191 19.7415 6.05799 19.8616 6.07086 19.9828C6.12126 20.1576 6.17381 20.3313 6.22958 20.5039C6.40652 21.1613 6.32073 21.7672 6.23601 22.4289C6.21563 22.5941 6.18239 22.7227 6.23708 22.8815C6.2714 22.9801 6.31108 23.0766 6.34325 23.1764C6.3647 23.2439 6.40974 23.3673 6.42368 23.4262C6.4462 23.5238 6.43548 23.6332 6.4344 23.7351C6.43333 23.8198 6.45049 23.9453 6.52878 24C6.50304 23.8724 6.5706 23.7319 6.57382 23.6021C6.58025 23.3994 6.5899 23.2332 6.62744 23.0348C6.68642 22.7174 6.83548 22.4772 6.94165 22.179C7.03924 21.9002 7.07785 21.6117 7.12396 21.3243C7.18509 20.9447 7.15506 20.5533 7.21511 20.1672C7.26015 19.8787 7.28482 19.6021 7.34809 19.3168C7.38991 19.127 7.43496 18.9425 7.50037 18.7591C7.58187 18.5307 7.70198 18.3388 7.73952 18.0985C7.76847 17.9109 7.76633 17.72 7.77276 17.5312C7.7792 17.3457 7.80815 17.1623 7.81566 16.9768C7.82531 16.7291 7.81351 16.4771 7.81351 16.2283C7.81351 15.9205 7.80386 15.6127 7.82424 15.3049C7.84461 14.98 7.84461 14.6465 7.95078 14.3366C8.03657 14.0856 8.13094 13.8186 8.13845 13.5516C8.14596 13.3006 8.13631 13.0465 8.13523 12.7955C8.13416 12.5221 8.191 12.2454 8.18027 11.973C8.16955 11.7156 8.14917 11.4582 8.15561 11.1966C8.16848 10.6207 8.21245 10.0459 8.2607 9.47108C8.27143 9.34669 8.30574 9.13328 8.24676 9.02068C8.15668 8.85124 8.00869 8.83193 7.83818 8.89735C7.65587 8.96598 7.54112 9.02496 7.34809 9.02389C7.17543 9.02175 7.0017 9.02389 6.82905 9.02389C6.65425 9.02389 6.46122 9.04749 6.28963 9.01424C6.17274 8.99172 6.07301 8.98207 5.9529 8.98207C5.76737 8.98314 5.58185 8.98207 5.39525 8.98207C5.31375 8.98207 5.22259 8.97242 5.14109 8.981C5.08854 8.98743 4.94055 9.03998 5.22581 8.90057Z"/>
  <path d="M0.699413 8.48305C0.709065 8.47983 0.719789 8.47769 0.730513 8.47554C0.904242 8.44766 1.08012 8.43479 1.25277 8.40476C1.39218 8.38117 1.53267 8.33077 1.66028 8.27071C1.86297 8.1742 2.08603 8.13237 2.29943 8.05945C2.57182 7.96615 2.88818 7.93505 3.12197 7.76347C3.31178 7.62406 3.57988 7.57258 3.80401 7.50824C4.13324 7.41494 4.46568 7.34738 4.78848 7.23263C5.08232 7.12968 5.36865 7.04067 5.67428 6.97633C5.86946 6.93558 6.04104 6.8648 6.22657 6.79295C6.37241 6.73611 6.50432 6.73718 6.65767 6.71788C6.89038 6.68785 7.11988 6.60635 7.34401 6.53986C7.61425 6.45836 7.86412 6.4723 8.13651 6.44227C8.43679 6.40903 8.70917 6.31358 9.01588 6.30929C9.13063 6.30822 9.25503 6.32323 9.37085 6.30393C9.50597 6.28248 9.63358 6.20849 9.77514 6.21599C9.88024 6.22136 9.97032 6.28463 10.0754 6.29428C10.1634 6.30286 10.2481 6.27605 10.3328 6.25353C10.7896 6.13664 11.328 6.03154 11.7119 5.76344C11.8449 5.66907 12.0079 5.65727 12.1623 5.62617C12.3146 5.59507 12.4465 5.54682 12.5902 5.49212C12.6578 5.46639 12.839 5.40204 12.9259 5.43529C12.9988 5.46317 12.9913 5.51143 13.0192 5.57255C13.076 5.70124 13.209 5.81813 13.2358 5.95433C13.2712 6.12913 13.2326 6.33396 13.2486 6.51412C13.2658 6.70286 13.3044 6.88839 13.3226 7.07713C13.3591 7.45998 13.3527 7.88251 13.2733 8.25677C13.2508 8.35865 13.2369 8.45517 13.2379 8.55919C13.239 8.59565 13.2594 8.66643 13.2326 8.69646C13.2015 8.73077 12.9612 8.70396 12.9205 8.70289C12.6985 8.70182 12.4905 8.75544 12.2717 8.7801C12.1151 8.79834 11.9618 8.79083 11.8073 8.82407C11.3784 8.9163 10.9698 9.06107 10.5323 9.12434C10.1816 9.17475 9.83091 9.22837 9.48023 9.28199C9.08344 9.34311 8.68451 9.34419 8.28879 9.39888C7.60139 9.49325 6.93757 9.76242 6.26517 9.92436C6.16008 9.95009 6.05713 9.98119 5.95525 10.0144C5.63996 10.1174 5.32039 10.2589 4.9858 10.2761C4.78097 10.2858 4.58365 10.2171 4.37989 10.23C4.08069 10.2493 3.84584 10.4434 3.56165 10.5163C3.30106 10.5828 3.03296 10.6043 2.76807 10.6514C2.56861 10.6868 2.37558 10.7394 2.17182 10.7437C1.89943 10.7512 1.63991 10.837 1.37181 10.823C1.23669 10.8155 1.108 10.8541 0.987889 10.9142C0.906386 10.956 0.801291 11.0289 0.707992 11.045C0.610404 11.0622 0.540698 11.0107 0.455978 10.9678C0.299407 10.8895 0.121389 10.8005 0.0291624 10.6472C-0.0276749 10.5528 0.0109315 10.5056 0.0409588 10.3984C0.076348 10.2772 0.0688412 10.0959 0.13104 9.98763C0.154633 9.9458 0.181443 9.95009 0.206109 9.90827C0.238281 9.85143 0.243643 9.7517 0.260801 9.68736C0.335869 9.40317 0.419516 9.12113 0.506381 8.84016C0.553566 8.68895 0.54606 8.52702 0.699413 8.48305Z"/>
</svg>
