<?xml version="1.0" encoding="UTF-8" standalone="no"?>
<!-- Created with Inkscape (http://www.inkscape.org/) -->

<svg
   width="22.867296"
   height="24"
   viewBox="0 0 6.0503055 6.35"
   version="1.1"
   id="svg13140"
   inkscape:version="1.2.1 (9c6d41e4, 2022-07-14)"
   sodipodi:docname="the-blob-that-ate-everything.svg"
   xmlns:inkscape="http://www.inkscape.org/namespaces/inkscape"
   xmlns:sodipodi="http://sodipodi.sourceforge.net/DTD/sodipodi-0.dtd"
   xmlns="http://www.w3.org/2000/svg"
   xmlns:svg="http://www.w3.org/2000/svg">
  <sodipodi:namedview
     id="namedview13142"
     pagecolor="#505050"
     bordercolor="#eeeeee"
     borderopacity="1"
     inkscape:showpageshadow="0"
     inkscape:pageopacity="0"
     inkscape:pagecheckerboard="0"
     inkscape:deskcolor="#505050"
     inkscape:document-units="mm"
     showgrid="false"
     inkscape:zoom="0.7046647"
     inkscape:cx="59.602815"
     inkscape:cy="73.084404"
     inkscape:window-width="1390"
     inkscape:window-height="941"
     inkscape:window-x="0"
     inkscape:window-y="25"
     inkscape:window-maximized="0"
     inkscape:current-layer="layer1" />
  <defs
     id="defs13137">
    <clipPath
       clipPathUnits="userSpaceOnUse"
       id="clipPath3935">
      <path
         d="M 56.886,87.197 H 92.7 V 123.01 H 56.886 Z"
         id="path3933" />
    </clipPath>
  </defs>
  <g
     inkscape:label="Layer 1"
     inkscape:groupmode="layer"
     id="layer1"
     transform="translate(-89.341472,-129.36735)">
    <g
       id="g3929"
       transform="matrix(0.18647512,0,0,-0.18647512,78.405937,152.22321)">
      <g
         id="g3931"
         clip-path="url(#clipPath3935)">
        <g
           id="g3937"
           transform="translate(85.1422,104.2059)">
          <path
             d="m 0,0 c -0.113,-0.427 -0.169,-0.863 -0.27,-1.292 -0.033,-0.139 -0.114,-0.268 -0.156,-0.404 -0.039,-0.128 -0.089,-0.234 -0.17,-0.341 -0.12,-0.157 -0.237,-0.312 -0.391,-0.432 -0.111,-0.086 -0.218,-0.168 -0.343,-0.237 -10e-4,-10e-4 -0.002,-10e-4 -0.003,-0.002 -0.039,0.133 -0.061,0.274 -0.084,0.416 -0.051,0.321 -0.046,0.653 0.021,0.972 0.055,0.267 0.178,0.555 0.281,0.807 0.092,0.224 0.173,0.468 0.293,0.679 0.057,0.101 0.139,0.179 0.213,0.266 0.096,0.114 0.17,0.242 0.259,0.361 0.105,0.141 0.258,0.318 0.424,0.425 C 0.074,1.21 0.073,1.201 0.073,1.193 0.073,0.795 0.102,0.387 0,0 m -4.779,-3.04 c -0.06,-0.154 -0.056,-0.38 -0.234,-0.468 -0.13,-0.063 -0.365,-0.019 -0.509,-0.017 -0.237,0.003 -0.354,-0.106 -0.571,-0.168 -0.182,-0.052 -0.254,-0.011 -0.308,-0.219 -0.075,-0.291 -0.065,-0.627 -0.081,-0.928 -0.008,-0.156 -0.077,-0.293 -0.097,-0.445 -0.009,-0.075 0.038,-0.169 -0.008,-0.239 -0.061,-0.093 -0.212,-0.078 -0.297,-0.105 -0.065,-0.021 -0.121,-0.063 -0.18,-0.08 -0.163,-0.046 -0.258,-0.086 -0.409,-0.162 -0.145,-0.073 -0.327,-0.1 -0.463,-0.193 -0.093,-0.063 -0.105,-0.142 -0.18,-0.215 -0.075,-0.074 -0.179,-0.091 -0.249,-0.177 -0.245,-0.3 -0.244,-1.108 -0.75,-1.106 -0.537,0.001 -0.708,0.249 -0.703,0.748 0.003,0.384 -0.064,0.768 -0.264,1.097 -0.089,0.145 -0.227,0.267 -0.35,0.397 -0.153,0.162 -0.269,0.129 -0.482,0.129 -0.205,0 -0.395,0.02 -0.573,-0.106 -0.203,-0.142 -0.293,-0.427 -0.456,-0.617 -0.243,-0.286 -0.682,-0.88 -1.069,-0.538 -0.271,0.238 -0.264,0.612 -0.402,0.915 -0.145,0.318 -0.134,0.684 -0.306,1.003 -0.109,0.204 -0.207,0.383 -0.398,0.485 -0.146,0.077 -0.257,0.061 -0.416,0.105 -0.086,0.024 -0.123,0.064 -0.238,0.069 -0.087,0.004 -0.176,-10e-4 -0.264,-10e-4 -0.17,0 -0.358,-0.023 -0.526,-0.003 -0.394,0.048 -0.434,0.398 -0.57,0.7 -0.166,0.37 -0.085,0.857 -0.088,1.256 -0.004,0.657 0.092,1.296 0.52,1.817 0.164,0.2 0.456,0.406 0.664,0.563 0.174,0.132 0.356,0.251 0.519,0.403 0.307,0.288 0.559,0.64 0.858,0.938 0.189,0.188 0.372,0.394 0.555,0.596 0.15,0.165 0.179,0.329 0.258,0.526 0.087,0.217 0.135,0.327 0.134,0.566 -0.002,0.206 -0.002,0.412 0,0.618 10e-4,0.204 -0.054,0.304 -0.091,0.479 -0.034,0.157 0.003,0.367 0.003,0.529 0,0.11 0,0.22 0,0.331 -0.007,0.051 -0.009,0.103 -0.002,0.154 10e-4,0.002 0.002,0.003 0.002,0.005 0,0.027 0.001,0.053 0,0.08 -10e-4,0.089 -0.004,0.159 0.02,0.244 0.021,0.075 0.097,0.083 0.068,0.195 l 0.008,-0.062 c 0.003,0.014 0.004,0.028 0.009,0.042 0.015,0.042 0.117,0.151 0.139,0.195 0.046,0.092 0.045,0.138 0.106,0.22 0.095,0.129 0.222,0.205 0.354,0.284 0.142,0.084 0.26,0.153 0.415,0.219 0.075,0.032 0.107,0.044 0.197,0.066 0.054,0.014 0.152,0.06 0.194,0.069 0.207,0.042 0.978,0.122 1.134,-0.03 -0.027,0.028 -0.061,-0.218 -0.101,-0.214 0.117,0.033 0.327,-0.104 0.439,-0.132 0.154,-0.038 0.308,-0.043 0.482,-0.044 0.365,0 0.731,-0.002 1.096,0 0.2,0.002 0.39,-0.014 0.573,-0.086 0.097,-0.039 0.093,-0.07 0.18,-0.124 C -7.42,6.482 -7.337,6.476 -7.272,6.431 -6.952,6.211 -7.1,5.473 -7.1,5.154 -7.1,4.703 -7.167,4.189 -7.057,3.753 -6.925,3.229 -6.604,3.096 -6.131,2.896 -5.809,2.759 -5.484,2.779 -5.207,2.529 -4.889,2.242 -4.819,1.991 -4.82,1.563 -4.821,1.143 -4.833,0.776 -5.005,0.391 -5.157,0.054 -5.462,0.07 -5.785,0.07 c -0.189,0 -0.38,-0.005 -0.57,-0.001 -0.189,0.004 -0.336,0.086 -0.526,0.09 -0.418,0.009 -0.819,0.055 -1.1,-0.309 -0.228,-0.294 0.006,-0.801 0.234,-1.041 0.12,-0.127 0.299,-0.366 0.469,-0.411 0.147,-0.039 0.374,0.006 0.529,0.006 0.19,0 0.38,0 0.569,0 0.216,0.001 0.364,-0.041 0.57,-0.08 0.114,-0.021 0.247,0.025 0.356,-0.004 0.076,-0.02 0.098,-0.081 0.166,-0.116 0.143,-0.072 0.282,-0.071 0.379,-0.215 0.191,-0.281 0.042,-0.744 -0.07,-1.029 m -11.657,14.336 c -0.239,0.261 -0.487,0.509 -0.731,0.764 -0.203,0.212 -0.356,0.463 -0.574,0.661 -0.025,0.022 -0.048,0.047 -0.073,0.07 0.157,-0.034 0.303,-0.058 0.47,-0.055 0.287,0.004 0.579,0.021 0.861,-0.032 0.193,-0.037 0.398,0.026 0.59,-0.008 0.09,-0.016 0.236,-0.092 0.263,-0.178 0.033,-0.102 0.009,-0.324 -0.034,-0.419 -0.067,-0.153 -0.117,-0.317 -0.202,-0.462 -0.103,-0.176 -0.197,-0.348 -0.276,-0.536 -0.01,-0.023 -0.017,-0.046 -0.025,-0.069 -0.093,0.085 -0.184,0.172 -0.269,0.264 m 1.789,-0.419 c 0.121,0.133 0.243,0.256 0.355,0.395 0.138,0.171 0.332,0.268 0.485,0.421 0.186,0.188 0.354,0.376 0.567,0.535 0.031,0.023 0.059,0.047 0.089,0.069 0.005,-0.03 0.01,-0.06 0.014,-0.091 0.024,-0.172 -0.003,-0.345 0.018,-0.518 0.025,-0.196 0.034,-0.382 0.033,-0.58 -10e-4,-0.245 0.025,-0.5 -0.006,-0.743 -0.027,-0.203 -0.104,-0.48 -0.241,-0.642 -0.048,-0.056 -0.054,-0.038 -0.132,-0.041 -0.092,-0.005 -0.176,-0.026 -0.266,-0.044 -0.138,-0.028 -0.266,-0.045 -0.407,-0.043 -0.069,0 -0.136,-0.005 -0.206,-0.006 -0.145,-0.003 -0.253,0.072 -0.369,0.153 -0.174,0.121 -0.329,0.258 -0.481,0.402 0.156,0.255 0.351,0.516 0.547,0.733 m 0.227,2.813 c 0.149,0.127 0.285,0.277 0.454,0.375 0.19,0.11 0.435,0.209 0.667,0.257 -0.001,-0.244 -0.001,-0.487 0.013,-0.73 -0.11,-0.044 -0.22,-0.089 -0.332,-0.129 -0.118,-0.041 -0.187,-0.117 -0.318,-0.132 -0.135,-0.016 -0.274,-0.114 -0.415,-0.089 -0.073,0.013 -0.266,0.087 -0.268,0.174 -0.002,0.096 0.134,0.219 0.199,0.274 m -4.684,-15.631 c -0.058,-0.102 -0.13,-0.168 -0.209,-0.222 -0.117,0.203 -0.189,0.413 -0.289,0.629 -0.138,0.301 -0.312,0.608 -0.394,0.931 -0.077,0.304 -0.147,0.601 -0.188,0.911 -0.022,0.162 -0.05,0.321 -0.081,0.48 0.229,-0.244 0.439,-0.507 0.601,-0.789 0.24,-0.416 0.502,-0.798 0.565,-1.286 0.029,-0.231 0.119,-0.44 -0.005,-0.654 m -1.083,-0.434 c -0.11,10e-4 -0.221,0.003 -0.331,0.004 -0.012,0.079 -0.033,0.159 -0.044,0.226 -0.019,0.112 -0.038,0.199 -0.037,0.314 0.001,0.13 0,0.26 0,0.39 0,0.134 -0.009,0.232 0.096,0.329 0.122,0.113 0.198,0.017 0.234,-0.117 0.055,-0.206 0.094,-0.424 0.152,-0.633 0.05,-0.179 0.144,-0.271 0.232,-0.431 0.017,-0.031 0.031,-0.057 0.045,-0.081 -0.115,-0.011 -0.234,-10e-4 -0.347,-10e-4 m -1.252,3.978 c -0.084,-0.049 -0.244,-0.157 -0.351,-0.118 -0.084,0.03 -0.117,0.16 -0.15,0.235 -0.069,0.153 -0.211,0.291 -0.264,0.446 -0.018,0.052 -0.039,0.102 -0.059,0.153 0.259,-0.178 0.545,-0.294 0.807,-0.465 0.05,-0.032 0.094,-0.073 0.138,-0.114 -0.023,-0.054 -0.058,-0.101 -0.121,-0.137 m -0.053,-4.073 c -0.203,-0.019 -0.401,-0.065 -0.591,-0.138 -0.029,0.188 -0.092,0.377 -0.17,0.557 0.002,0.118 -0.002,0.236 -0.002,0.355 10e-4,0.271 0,0.543 0,0.814 0,0.105 -0.002,0.211 -0.004,0.317 0.025,0.269 0.045,0.538 0.059,0.807 0.032,0.091 0.091,0.147 0.201,0.178 0.088,0.025 0.147,0.015 0.211,-0.042 0.112,-0.101 0.118,-0.205 0.137,-0.342 0.023,-0.168 0.074,-0.32 0.077,-0.49 0.004,-0.323 -0.029,-0.65 0.032,-0.968 0.042,-0.224 -0.039,-0.47 0.007,-0.692 0.016,-0.076 0.043,-0.118 0.045,-0.197 10e-4,-0.052 -0.001,-0.105 -0.002,-0.159 M 5.931,7.101 c 0,0.217 0.05,0.429 -0.18,0.533 C 5.659,7.677 5.563,7.676 5.466,7.696 5.406,7.709 5.349,7.736 5.286,7.726 5.182,7.709 5.048,7.601 4.963,7.546 4.853,7.475 4.734,7.419 4.625,7.347 4.575,7.314 4.545,7.266 4.49,7.237 4.437,7.209 4.37,7.204 4.317,7.179 4.203,7.127 4.142,7.014 4.023,6.972 3.904,6.931 3.773,6.909 3.658,6.854 3.56,6.807 3.494,6.727 3.384,6.707 3.3,6.691 3.206,6.679 3.12,6.667 2.895,6.634 2.678,6.586 2.453,6.665 2.367,6.695 2.297,6.771 2.212,6.792 2.114,6.816 2.068,6.779 1.975,6.832 1.872,6.89 1.777,6.984 1.686,7.058 1.592,7.134 1.463,7.231 1.392,7.326 1.292,7.461 1.248,7.713 1.223,7.876 1.187,8.116 1.198,8.393 1.325,8.598 c 0.14,0.227 0.318,0.43 0.487,0.636 0.107,0.131 0.23,0.239 0.321,0.381 0.104,0.161 0.203,0.323 0.31,0.483 0.18,0.268 0.293,0.57 0.495,0.819 0.117,0.144 0.161,0.338 0.255,0.496 0.035,0.06 0.067,0.119 0.099,0.178 -0.074,0.087 -0.148,0.174 -0.225,0.255 -0.121,0.017 -0.244,0.038 -0.375,0.07 -0.003,10e-4 -0.006,0.002 -0.01,0.003 C 2.624,11.835 2.568,11.749 2.507,11.667 2.2,11.255 1.839,10.874 1.558,10.443 1.453,10.283 1.335,10.141 1.218,9.991 1.154,9.907 1.112,9.827 1.059,9.739 0.997,9.635 0.919,9.594 0.836,9.514 0.721,9.404 0.664,9.26 0.539,9.157 0.433,9.071 0.36,8.968 0.265,8.872 0.18,8.785 0.071,8.722 -0.03,8.654 -0.183,8.55 -0.32,8.43 -0.469,8.322 -0.639,8.2 -0.803,8.065 -0.973,7.941 -1.179,7.792 -1.433,7.734 -1.666,7.642 -1.788,7.594 -1.925,7.589 -2.055,7.568 -2.115,7.558 -2.196,7.544 -2.257,7.554 c -0.131,0.022 -0.222,0.128 -0.347,0.167 -0.16,0.049 -0.245,0.083 -0.318,0.25 -0.097,0.223 -0.221,0.467 -0.234,0.714 -0.007,0.128 -0.002,0.251 0.042,0.371 0.047,0.127 0.121,0.197 0.194,0.303 0.074,0.105 0.12,0.227 0.192,0.334 0.06,0.091 0.127,0.134 0.202,0.209 0.161,0.161 0.318,0.363 0.374,0.587 0.026,0.106 0.027,0.207 0,0.314 -0.042,0.162 -0.084,0.129 -0.226,0.149 -0.086,0.013 -0.169,0.07 -0.257,0.039 C -2.707,10.966 -2.788,10.858 -2.84,10.803 -3,10.633 -3.06,10.381 -3.22,10.207 -3.37,10.043 -3.447,9.823 -3.6,9.666 -3.692,9.572 -3.795,9.514 -3.875,9.405 -3.918,9.345 -3.959,9.273 -4.027,9.236 -4.103,9.195 -4.219,9.203 -4.305,9.171 -4.385,9.142 -4.578,9.086 -4.661,9.134 c -0.077,0.043 -0.157,0.18 -0.211,0.248 -0.189,0.238 -0.275,0.499 -0.277,0.804 -0.002,0.31 0.072,0.7 -0.08,0.984 -0.065,0.122 -0.196,0.213 -0.305,0.295 -0.116,0.087 -0.235,0.094 -0.371,0.136 -0.169,0.053 -0.267,0.116 -0.263,0.304 0.008,0.319 -0.059,0.628 -0.044,0.951 0.006,0.137 0.086,0.248 0.091,0.387 0.006,0.171 0.009,0.356 -0.012,0.526 -0.017,0.139 -0.043,0.298 -0.127,0.414 -0.069,0.095 -0.173,0.25 -0.298,0.259 -0.151,0.011 -0.218,-0.144 -0.279,-0.252 -0.076,-0.135 -0.138,-0.263 -0.17,-0.416 -0.058,-0.273 -0.143,-0.556 -0.136,-0.836 0.005,-0.201 -0.082,-0.383 -0.085,-0.581 -0.001,-0.084 0.01,-0.144 -0.04,-0.215 -0.065,-0.093 -0.151,-0.183 -0.257,-0.225 -0.154,-0.061 -0.321,0.009 -0.424,0.135 -0.078,0.095 -0.118,0.234 -0.17,0.344 -0.083,0.173 -0.147,0.353 -0.213,0.533 -0.051,0.142 -0.127,0.275 -0.171,0.421 -0.052,0.168 -0.069,0.336 -0.128,0.503 -0.052,0.146 -0.043,0.303 -0.082,0.453 -0.047,0.184 -0.077,0.355 -0.149,0.532 -0.128,0.317 -0.292,0.616 -0.538,0.861 -0.142,0.142 -0.311,0.228 -0.409,0.409 -0.082,0.15 -0.167,0.312 -0.221,0.474 -0.093,0.283 -0.302,0.508 -0.4,0.785 -0.056,0.156 -0.138,0.224 -0.23,0.368 -0.087,0.138 -0.094,0.25 -0.092,0.408 v 0.006 c -0.768,0.334 -1.928,0.313 -2.351,-0.336 -0.014,-0.149 -0.034,-0.299 -0.058,-0.441 -0.014,-0.079 -0.002,-0.151 -0.007,-0.229 -0.009,-0.116 -0.057,-0.229 -0.078,-0.342 -0.015,-0.082 -0.007,-0.16 -0.008,-0.244 -0.002,-0.081 -0.032,-0.136 -0.046,-0.213 -0.021,-0.117 0.002,-0.262 0.002,-0.381 v -1.001 c -0.247,-0.158 -0.499,-0.316 -0.774,-0.41 -0.178,-0.061 -0.371,-0.105 -0.542,-0.179 -0.179,-0.078 -0.358,-0.148 -0.542,-0.214 -0.175,-0.064 -0.351,-0.127 -0.52,-0.204 -0.2,-0.09 -0.381,-0.062 -0.594,-0.093 -0.331,-0.049 -0.681,-0.022 -1.016,-0.022 -0.312,0 -0.624,0.004 -0.936,0 -0.139,-10e-4 -0.267,0.04 -0.404,0.044 -0.061,0.002 -0.118,-0.008 -0.179,0.006 -0.043,0.01 -0.082,0.028 -0.121,0.045 -0.091,0.106 -0.183,0.212 -0.271,0.32 -0.125,0.152 -0.271,0.225 -0.425,0.337 -0.069,0.051 -0.12,0.114 -0.195,0.155 -0.074,0.041 -0.148,0.049 -0.229,0.071 -0.083,0.023 -0.19,0.092 -0.279,0.087 -0.311,-0.015 -0.064,-0.513 -0.019,-0.643 0.077,-0.221 0.146,-0.393 0.335,-0.546 0.104,-0.084 0.227,-0.122 0.322,-0.217 0.079,-0.078 0.241,-0.219 0.294,-0.314 0.041,-0.075 0.048,-0.173 -0.021,-0.239 -0.082,-0.079 -0.261,-0.11 -0.367,-0.082 -0.209,0.054 -0.36,0.351 -0.502,0.492 -0.19,0.19 -0.385,0.356 -0.588,0.531 -0.161,0.14 -0.314,0.365 -0.537,0.415 -0.079,0.017 -0.437,0.109 -0.501,0.033 -0.054,-0.064 0.011,-0.252 0.03,-0.315 0.102,-0.332 0.263,-0.651 0.447,-0.945 0.177,-0.283 0.431,-0.522 0.624,-0.796 0.181,-0.257 0.343,-0.523 0.506,-0.792 0.184,-0.303 0.324,-0.612 0.458,-0.941 0.146,-0.357 0.295,-0.697 0.392,-1.071 0.058,-0.226 0.161,-0.438 0.204,-0.667 0.03,-0.162 0.055,-0.326 0.084,-0.488 0.022,-0.128 0.007,-0.261 0.009,-0.39 0.003,-0.182 -0.043,-0.3 -0.128,-0.459 -0.095,-0.176 -0.196,-0.273 -0.39,-0.329 -0.31,-0.09 -0.606,0.076 -0.886,0.173 -0.145,0.051 -0.281,0.115 -0.43,0.158 -0.203,0.059 -0.42,0.1 -0.61,0.198 -0.327,0.167 -0.611,0.411 -0.944,0.565 -0.16,0.074 -0.246,0.17 -0.427,0.214 -0.237,0.056 -0.451,0.108 -0.646,0.262 -0.181,0.143 -0.375,0.297 -0.535,0.463 -0.12,0.125 -0.212,0.252 -0.353,0.355 -0.184,0.136 -0.386,0.249 -0.587,0.356 -0.102,0.054 -0.265,0.139 -0.385,0.086 -0.166,-0.074 -0.164,-0.377 -0.087,-0.502 0.086,-0.139 0.258,-0.238 0.378,-0.343 0.175,-0.152 0.284,-0.325 0.428,-0.503 0.188,-0.231 0.434,-0.411 0.625,-0.64 0.218,-0.258 0.436,-0.5 0.667,-0.746 0.151,-0.161 0.316,-0.355 0.447,-0.533 0.107,-0.145 0.137,-0.267 0.13,-0.443 -0.006,-0.143 -0.023,-0.241 -0.174,-0.277 -0.216,-0.05 -0.435,0.064 -0.61,0.169 -0.238,0.142 -0.47,0.239 -0.724,0.343 -0.214,0.087 -0.391,0.225 -0.599,0.318 -0.172,0.078 -0.348,0.095 -0.531,0.131 -0.231,0.046 -0.452,0.144 -0.684,0.181 -0.117,0.019 -0.197,0.038 -0.25,-0.079 -0.109,-0.24 0.037,-0.404 0.127,-0.617 0.084,-0.2 0.102,-0.412 0.216,-0.598 0.054,-0.088 0.126,-0.163 0.185,-0.247 0.081,-0.113 0.145,-0.234 0.221,-0.35 0.172,-0.262 0.445,-0.443 0.646,-0.682 0.237,-0.28 0.5,-0.498 0.774,-0.742 0.003,-0.003 0.006,-0.006 0.01,-0.009 0.098,-0.221 0.194,-0.446 0.263,-0.677 0.073,-0.248 0.183,-0.47 0.281,-0.709 0.105,-0.257 0.202,-0.563 0.21,-0.842 0.013,-0.44 0.125,-0.865 0.182,-1.301 0.034,-0.267 0.061,-0.535 0.09,-0.802 -0.036,-0.4 -0.08,-0.8 -0.141,-1.198 -0.059,-0.381 -0.357,-1.103 -0.249,-1.596 -0.122,-0.026 -0.245,-0.05 -0.367,-0.063 -0.115,-0.012 -0.221,-0.004 -0.335,-0.007 -0.165,-0.003 -0.29,-0.046 -0.447,-0.089 -0.26,-0.07 -0.598,-0.012 -0.73,-0.309 -0.042,-0.096 -0.058,-0.192 -0.118,-0.282 -0.024,-0.036 -0.065,-0.066 -0.086,-0.103 -0.02,-0.035 -0.045,-0.172 -0.044,-0.189 0.003,-0.083 0.017,-0.058 0.055,-0.118 0.036,-0.057 0.07,-0.161 0.113,-0.211 0.052,-0.06 0.13,-0.064 0.195,-0.097 0.09,-0.044 0.142,-0.136 0.221,-0.191 0.096,-0.066 0.181,-0.058 0.292,-0.078 0.23,-0.039 0.351,-0.25 0.569,-0.308 0.212,-0.056 0.44,-0.023 0.657,-0.064 0.198,-0.038 0.391,-0.019 0.586,-0.049 0.111,-0.016 0.21,-0.062 0.319,-0.09 0.142,-0.037 0.292,-0.024 0.43,-0.078 0.163,-0.064 0.284,-0.189 0.442,-0.256 0.108,-0.045 0.279,-0.081 0.354,-0.176 0.096,-0.122 0.114,-0.257 0.09,-0.408 -0.027,-0.182 -0.133,-0.475 -0.244,-0.619 -0.083,-0.109 -0.2,-0.163 -0.314,-0.235 -0.104,-0.064 -0.187,-0.145 -0.272,-0.233 -0.138,-0.143 -0.332,-0.284 -0.421,-0.465 -0.054,-0.11 -0.086,-0.199 -0.015,-0.314 0.097,-0.158 0.23,-0.305 0.341,-0.454 0.227,-0.305 0.46,-0.404 0.819,-0.467 0.342,-0.06 0.684,-0.113 1.027,-0.167 0.282,-0.045 0.607,-0.068 0.882,-0.15 0.209,-0.062 0.38,-0.225 0.488,-0.419 0.158,-0.283 0.019,-0.585 -0.209,-0.786 -0.197,-0.173 -0.432,-0.363 -0.661,-0.493 -0.152,-0.085 -0.349,-0.123 -0.486,-0.217 -0.205,-0.14 -0.353,-0.488 -0.383,-0.72 -0.032,-0.241 0.096,-0.46 0.256,-0.631 0.111,-0.117 0.211,-0.13 0.351,-0.171 0.181,-0.052 0.324,-0.121 0.496,-0.193 0.407,-0.172 0.94,-0.205 1.383,-0.233 0.14,-0.009 0.273,0.016 0.41,0.043 0.186,0.037 0.368,0.037 0.556,0.047 0.41,0.022 0.782,0.229 1.182,0.302 0.439,0.08 0.893,0.021 1.336,0.101 0.476,0.085 0.955,0.217 1.417,0.359 0.167,0.051 0.332,0.119 0.502,0.164 0.296,0.076 0.65,0.064 0.952,0.081 0.365,0.021 0.744,0.008 1.101,-0.082 0.237,-0.06 0.429,-0.206 0.63,-0.333 0.258,-0.165 0.529,-0.321 0.781,-0.495 0.415,-0.285 0.7,-0.7 1.109,-0.989 0.131,-0.093 0.271,-0.172 0.398,-0.27 0.244,-0.188 0.439,-0.442 0.668,-0.647 0.137,-0.124 0.277,-0.248 0.419,-0.372 0.217,-0.065 0.436,-0.115 0.664,-0.134 0.467,-0.038 1.135,0.002 1.179,0.489 0.028,0.319 -0.487,0.931 -0.625,1.204 -0.342,0.677 -0.612,1.411 -0.315,2.154 0.159,0.394 0.502,0.635 0.936,0.532 0.871,-0.207 1.514,-0.71 2.254,-1.185 0.417,-0.268 0.834,-0.48 1.337,-0.529 0.169,-0.017 0.425,-0.025 0.589,0.016 0.864,0.214 0.343,0.197 0.383,0.627 0.062,0.653 0.003,1.121 0.657,1.526 0.526,0.326 1.163,0.26 1.747,0.343 1.605,0.231 0.392,1.706 -0.117,2.479 -0.336,0.51 -0.727,1.186 -0.424,1.802 0.054,0.11 0.12,0.198 0.193,0.276 0.033,0.285 0.058,0.59 0.014,0.865 -0.097,0.113 -0.199,0.222 -0.302,0.328 -0.205,0.21 -0.283,0.295 -0.45,0.393 -0.111,0.065 -0.192,0.144 -0.251,0.23 -0.104,0.027 -0.21,0.05 -0.313,0.082 -0.005,0.058 -0.007,0.116 -0.007,0.172 0.003,0.314 0.001,0.628 0.001,0.942 0,0.155 -0.015,0.32 0.004,0.474 0.017,0.145 0.075,0.283 0.113,0.424 0.044,0.16 0.108,0.314 0.148,0.474 0.028,0.114 0.085,0.222 0.11,0.337 0.022,0.096 0.013,0.163 0.048,0.259 0.066,0.185 0.114,0.373 0.17,0.561 0.058,0.196 0.139,0.381 0.196,0.577 0.069,0.237 0.151,0.478 0.229,0.712 0.072,0.217 0.152,0.444 0.256,0.647 0.179,0.35 0.323,0.715 0.509,1.062 0.09,0.166 0.161,0.342 0.253,0.508 0.032,0.058 0.077,0.113 0.12,0.168 0.095,0.057 0.186,0.123 0.288,0.167 0.155,0.067 0.293,0.075 0.439,0.171 0.15,0.098 0.329,0.159 0.472,0.264 0.066,0.049 0.118,0.116 0.176,0.173 0.106,0.105 0.216,0.175 0.336,0.259 0.122,0.087 0.25,0.16 0.378,0.24 0.141,0.088 0.237,0.177 0.358,0.286 0.257,0.228 0.495,0.482 0.739,0.723 0.17,0.169 0.293,0.419 0.359,0.645 0.081,0.279 0.03,0.614 0.03,0.904"
             style="fill:#000000;fill-opacity:1;fill-rule:nonzero;stroke:none"
             id="path3939" />
        </g>
        <g
           id="g3941"
           transform="translate(75.5864,103.9259)">
          <path
             d="M 0,0 C -0.088,0.12 -0.161,0.195 -0.178,0.348 -0.197,0.521 -0.243,0.625 -0.265,0.787 -0.277,0.878 -0.204,1.161 -0.278,1.216 -0.441,1.338 -0.494,0.987 -0.545,0.898 -0.609,0.789 -0.709,0.549 -0.86,0.627 -0.911,0.654 -0.956,0.919 -0.964,0.96 -0.989,1.077 -0.984,1.439 -1.232,1.304 -1.352,1.238 -1.296,1.152 -1.315,1.05 -1.336,0.935 -1.375,0.899 -1.406,0.794 -1.425,0.726 -1.37,0.682 -1.416,0.607 -1.491,0.485 -1.635,0.526 -1.753,0.527 -1.963,0.528 -2.099,0.562 -2.175,0.787 -2.23,0.952 -2.166,1.13 -2.212,1.296 -2.251,1.435 -2.425,1.595 -2.562,1.649 -2.885,1.774 -3.354,1.821 -3.685,1.688 -3.905,1.599 -3.965,1.562 -4.055,1.335 -4.088,1.249 -4.109,1.252 -4.124,1.142 -4.136,1.042 -4.083,0.948 -4.172,0.87 c 0.012,0.002 0.026,0.004 0.138,0.039 10e-4,-0.275 -0.034,-0.554 -0.002,-0.823 0.04,-0.335 0.409,-0.439 0.704,-0.437 0.175,0.002 0.351,0.003 0.526,0.001 0.169,-0.003 0.208,0.059 0.346,0.092 0.42,0.1 0.712,-0.129 0.706,-0.532 -0.004,-0.314 0.01,-0.599 -0.087,-0.876 -0.051,-0.144 -0.086,-0.274 -0.087,-0.439 -0.002,-0.247 -0.011,-0.289 0.196,-0.196 0.257,0.115 0.411,0.32 0.571,0.549 0.066,0.096 0.138,0.167 0.196,0.262 0.095,0.154 0.105,0.254 0.264,0.35 0.1,0.06 0.269,0.136 0.369,0.156 0.174,0.034 0.183,-0.002 0.328,-0.068 0.151,-0.069 0.294,-0.129 0.438,-0.2 0.135,-0.067 0.379,-0.225 0.45,-0.069 0.104,0.231 -0.148,0.637 -0.29,0.794 C 0.4,-0.311 0.167,-0.229 0,0"
             style="fill:#000000;fill-opacity:1;fill-rule:nonzero;stroke:none"
             id="path3943" />
        </g>
        <g
           id="g3945"
           transform="translate(83.7816,116.4469)">
          <path
             d="M 0,0 C 0.009,0.037 0.019,0.075 0.028,0.112 0.06,0.144 0.091,0.182 0.119,0.225 0.371,0.613 0.565,1.031 0.715,1.469 0.854,1.878 0.492,2.228 0.115,2.256 -0.876,2.332 -1.026,1.023 -1.199,0.331 -1.393,-0.446 -0.194,-0.777 0,0"
             style="fill:#000000;fill-opacity:1;fill-rule:nonzero;stroke:none"
             id="path3947" />
        </g>
        <g
           id="g3949"
           transform="translate(79.2216,119.215)">
          <path
             d="M 0,0 C 0.233,0.01 0.468,0.153 0.57,0.364 0.623,0.428 0.665,0.503 0.69,0.589 0.765,0.837 0.813,1.111 0.796,1.37 0.772,1.75 0.49,2.135 0.073,2.116 -0.365,2.097 -0.61,1.747 -0.636,1.338 -0.651,1.101 -0.637,0.859 -0.622,0.622 -0.6,0.298 -0.351,-0.016 0,0"
             style="fill:#000000;fill-opacity:1;fill-rule:nonzero;stroke:none"
             id="path3951" />
        </g>
        <g
           id="g3953"
           transform="translate(89.5734,118.8744)">
          <path
             d="m 0,0 c 0.021,0.054 0.041,0.109 0.059,0.164 0.002,0.001 0.003,0.001 0.004,0.002 0.02,0.019 0.035,0.04 0.052,0.06 C 0.128,0.229 0.139,0.233 0.149,0.239 0.11,0.153 0.06,0.073 0,0 M -0.238,0.352 C -0.212,0.332 -0.18,0.325 -0.145,0.329 -0.183,0.204 -0.227,0.08 -0.28,-0.041 c 0,0.132 0.013,0.263 0.042,0.393 m -0.199,-0.819 c 0.03,-0.056 0.105,-0.088 0.175,-0.055 0.34,0.159 0.589,0.454 0.699,0.813 C 0.524,0.575 0.553,1.049 0.332,1.285 0.069,1.566 -0.205,1.089 -0.305,0.893 -0.51,0.493 -0.566,0.058 -0.502,-0.384 c 0.007,-0.047 0.033,-0.072 0.065,-0.083"
             style="fill:#000000;fill-opacity:1;fill-rule:nonzero;stroke:none"
             id="path3955" />
        </g>
        <g
           id="g3957"
           transform="translate(61.5153,116.1104)">
          <path
             d="m 0,0 0.736,-0.609 c 0.062,-0.068 0.122,-0.138 0.181,-0.209 -0.035,-0.18 0.027,-0.381 0.223,-0.52 0.062,-0.043 0.123,-0.087 0.185,-0.13 0.054,-0.038 0.109,-0.058 0.163,-0.069 0.038,-0.095 0.076,-0.19 0.11,-0.286 0.11,-0.302 0.39,-0.392 0.621,-0.326 0.009,-0.017 0.019,-0.034 0.028,-0.052 0.073,-0.142 0.288,-0.017 0.215,0.126 l -0.003,0.006 c 0.025,0.027 0.037,0.063 0.025,0.103 0.074,0.103 0.11,0.241 0.074,0.408 C 2.522,-1.393 2.459,-1.246 2.385,-1.105 2.199,-0.643 1.988,-0.191 1.743,0.244 1.466,0.735 1.122,1.458 0.572,1.691 0.349,1.786 0.096,1.783 -0.12,1.696 -0.43,1.834 -0.723,1.776 -0.97,1.406 -1.403,0.757 -0.513,0.301 0,0"
             style="fill:#000000;fill-opacity:1;fill-rule:nonzero;stroke:none"
             id="path3959" />
        </g>
        <g
           id="g3961"
           transform="translate(89.0092,97.2305)">
          <path
             d="M 0,0 C 0.001,0.003 0.001,0.005 0.002,0.008 0.018,-0.008 -0.003,-0.029 0,0 m 0.405,0.917 c -0.378,0.197 -0.845,0.166 -1.197,0.408 -0.087,0.059 -0.173,0.083 -0.253,0.084 -0.18,0.068 -0.409,0.015 -0.541,-0.114 -0.208,-0.204 -0.168,-0.496 0,-0.704 0.317,-0.39 0.667,-0.785 1.126,-1.012 0.419,-0.206 1.08,-0.348 1.367,0.137 C 1.181,0.181 0.822,0.7 0.405,0.917"
             style="fill:#000000;fill-opacity:1;fill-rule:nonzero;stroke:none"
             id="path3963" />
        </g>
      </g>
    </g>
  </g>
</svg>
