<?xml version="1.0" encoding="UTF-8" standalone="no"?>
<!-- Created with Inkscape (http://www.inkscape.org/) -->

<svg
   width="23.912109"
   height="24.000002"
   viewBox="0 0 6.3267454 6.3500005"
   version="1.1"
   id="svg2202"
   inkscape:version="1.2.1 (9c6d41e4, 2022-07-14)"
   sodipodi:docname="expansion_icon.svg"
   xmlns:inkscape="http://www.inkscape.org/namespaces/inkscape"
   xmlns:sodipodi="http://sodipodi.sourceforge.net/DTD/sodipodi-0.dtd"
   xmlns="http://www.w3.org/2000/svg"
   xmlns:svg="http://www.w3.org/2000/svg">
  <sodipodi:namedview
     id="namedview2204"
     pagecolor="#505050"
     bordercolor="#eeeeee"
     borderopacity="1"
     inkscape:showpageshadow="0"
     inkscape:pageopacity="0"
     inkscape:pagecheckerboard="0"
     inkscape:deskcolor="#505050"
     inkscape:document-units="mm"
     showgrid="false"
     inkscape:zoom="14.760582"
     inkscape:cx="11.923649"
     inkscape:cy="11.991397"
     inkscape:window-width="1390"
     inkscape:window-height="938"
     inkscape:window-x="0"
     inkscape:window-y="25"
     inkscape:window-maximized="0"
     inkscape:current-layer="g443" />
  <defs
     id="defs2199">
    <clipPath
       clipPathUnits="userSpaceOnUse"
       id="clipPath447">
      <path
         d="m 220.24,95.351 h 30.569 V 125.92 H 220.24 Z"
         id="path445" />
    </clipPath>
  </defs>
  <g
     inkscape:label="Layer 1"
     inkscape:groupmode="layer"
     id="layer1"
     transform="translate(-73.913466,-153.42107)">
    <g
       id="g441"
       transform="matrix(0.21313016,0,0,-0.21313016,26.877771,180.19363)">
      <g
         id="g443"
         clip-path="url(#clipPath447)">
        <path
           id="path376"
           style="fill:#000000;fill-opacity:1;fill-rule:nonzero;stroke:none"
           d="m 235.52396,125.61601 c -0.043,-0.013 -0.0868,-0.0286 -0.13578,-0.0436 -0.036,-0.011 -0.075,-0.0195 -0.11396,-0.0315 0.035,0.004 0.0663,0.002 0.0873,0 0.028,0 0.0174,-0.0118 -0.0146,-0.0218 -0.59,-0.167 -0.24141,-0.13098 -0.63041,-0.27398 -0.236,-0.039 0.0504,0.11308 -0.3346,-0.0509 -0.25,-0.057 -0.073,0.046 0.017,0.097 -0.078,-0.038 -0.15577,-0.0696 -0.23277,-0.0946 -0.038,-0.012 -0.0745,-0.023 -0.11153,-0.034 l -0.0558,-0.0145 c -0.019,-0.006 -0.0128,-0.004 -0.0218,-0.005 0.002,0.003 -0.059,0.005 -0.097,0.007 -0.042,0.002 -0.0808,0.003 -0.11881,0.005 -0.076,0.004 -0.14224,0.009 -0.20124,0.007 l 0.19882,0.034 c -0.119,-0.02 -0.21763,-0.0269 -0.31763,-0.034 l 0.11638,-0.0436 c -0.118,10e-4 -0.21679,-0.004 -0.21579,0.017 -0.119,-0.041 0.0988,-0.0772 -0.1382,-0.13821 -0.158,0.015 -0.47442,-0.0581 -0.53342,0.005 0.494,0.01 -0.0596,0.0638 0.35642,0.10184 -0.08,-0.013 -0.17681,-0.0204 -0.29581,-0.0194 -0.018,0.006 0.0141,0.0158 0.0461,0.0218 -0.08,0.005 -0.13685,0.004 -0.18185,0.002 -0.023,-0.002 -0.0422,-0.003 -0.0582,-0.005 -0.022,-0.004 -0.0422,-0.009 -0.0582,-0.0121 -0.011,-0.003 -0.0215,-0.007 -0.0315,-0.01 l -0.017,-0.007 -0.0242,-0.017 c -0.018,-0.012 -0.0366,-0.0248 -0.0606,-0.0388 -0.049,-0.026 -0.1261,-0.053 -0.2861,-0.08 0.055,0.048 -0.12425,0.0511 -0.20125,0.0291 0.195,0.033 0.10611,-0.0467 -0.0679,-0.10669 -0.313,-0.025 -0.33263,-0.0778 -0.49463,-0.10183 l 0.1867,0.017 c -0.056,-0.048 -0.21131,-0.0698 -0.42431,-0.11881 -0.009,0.01 0.0161,0.0187 0.0461,0.0267 -0.036,-0.011 -0.0762,-0.0191 -0.13821,-0.0291 -0.069,-0.036 -0.11387,-0.0517 -0.16487,-0.0727 -0.052,-0.02 -0.10503,-0.042 -0.16003,-0.063 -0.109,-0.045 -0.2219,-0.0976 -0.3249,-0.17457 -0.15,-0.054 -0.048,0.0544 -0.177,0.002 -0.308,-0.228 -0.38485,-0.15352 -0.71285,-0.38552 0.125,0.013 0.13514,0.0341 -0.0849,-0.1479 l 0.55525,0.35157 -0.33218,-0.26913 c 0.173,0.096 0.35026,0.23126 0.45826,0.28126 -0.156,-0.134 -0.14522,-0.11184 -0.0412,-0.10184 -0.275,-0.065 -0.44737,-0.29976 -0.74437,-0.40976 l -0.0533,0.11395 c -0.171,-0.072 -0.31426,-0.15858 -0.45826,-0.25458 -0.072,-0.049 -0.14464,-0.0983 -0.22064,-0.15033 -0.07,-0.046 -0.14264,-0.0945 -0.22064,-0.14548 l -0.0194,-0.007 -0.0412,-0.0145 c -0.028,-0.008 -0.0573,-0.0153 -0.0873,-0.0243 -0.059,-0.016 -0.1207,-0.0311 -0.1867,-0.0461 l 0.19397,0.0315 c -0.065,-0.07 -0.36055,-0.10884 -0.54555,-0.18184 0.006,0.046 -0.11567,0.0271 -0.20367,0.0291 0.018,-0.027 -0.4331,-0.12079 -0.4631,-0.21579 l -0.0412,-0.002 -0.0558,-0.007 -0.12123,-0.0194 -0.12366,-0.12608 c -0.314,-0.382 -0.24227,-0.52369 -0.53827,-0.89469 0.049,0.142 -0.10438,-0.0121 0.0606,0.26186 -0.096,-0.127 -0.18688,-0.23559 -0.16488,-0.25459 -0.025,-0.019 -0.0547,-0.0642 -0.0897,-0.12123 -0.03,-0.051 -0.0856,-0.13903 -0.0946,-0.16003 l -0.0242,-0.0218 c -0.017,-0.01 -0.0335,-0.0215 -0.0485,-0.0315 -0.032,-0.019 -0.0627,-0.0342 -0.0897,-0.0412 -0.047,-0.051 -0.0434,-0.0991 -0.1964,-0.18912 -0.021,-0.002 -0.01,0.0194 -0.01,0.0194 0.011,-0.019 -0.22389,-0.17051 -0.0679,-0.12851 -0.127,-0.038 -0.26477,-0.10569 -0.40977,-0.18669 -0.073,-0.041 -0.14664,-0.0849 -0.22064,-0.13094 l -0.23762,-0.1479 c -0.053,-0.068 -0.1066,-0.13524 -0.1576,-0.20124 -0.048,-0.058 -0.0932,-0.11573 -0.1382,-0.16973 -0.092,-0.107 -0.18271,-0.19886 -0.26671,-0.26186 -0.143,-0.192 -0.30614,-0.41089 -0.44614,-0.59889 -0.046,-0.136 -0.0838,-0.25099 -0.1188,-0.35399 -0.002,0.0115 -0.009,0.0135 -0.01,0.0194 -0.13823,-0.32999 0.0285,-0.26916 -0.1673,-0.69587 -0.148,-0.214 0.0528,0.25781 -0.0242,0.11881 -0.11,-0.01 -0.15946,-0.31537 -0.24246,-0.56737 -0.036,-0.079 -0.0909,-0.18416 -0.14791,-0.25216 l 0.0267,0.0752 c -0.153,-0.208 -0.22461,-0.58003 -0.41461,-0.94803 0,0 -9.7e-4,0.0241 -0.017,0.0121 -0.065,-0.282 -0.25977,-0.78513 -0.40977,-1.15413 0.002,0.135 0.0495,0.17693 -0.0315,0.13093 -0.067,-0.166 0.10248,0.01 -0.0315,-0.32005 -0.075,-0.094 -0.20656,-0.3159 -0.27156,-0.3249 l 0.13336,0.30793 c -0.143,-0.126 -0.17559,-0.39967 -0.25459,-0.55767 l -0.0194,0.0339 c -0.19,-0.48 -0.11602,-0.52004 -0.33702,-1.02804 l 0.0461,0.0436 c -0.008,-0.055 -0.0191,-0.0969 -0.0291,-0.13093 -0.012,-0.037 -0.0248,-0.0696 -0.0388,-0.0946 -0.002,-0.118 -0.0409,-0.159 0.0121,-0.354 l -0.0776,-0.097 c 0.034,-0.198 0.1273,-0.69144 0.1673,-1.04744 -0.075,0.198 -0.13412,0.61202 -0.18912,0.86802 0.0104,-0.1583 0.04,-0.45433 0.0752,-0.63283 -0.007,0.0421 -0.0111,0.0835 -0.007,0.12123 0.042,-0.118 0.0783,-0.27746 0.10426,-0.41946 -0.01,-0.134 -0.0377,-0.32133 -0.0727,-0.50433 -0.113,0.07 -0.18381,-0.54055 -0.29581,-0.97955 -0.016,-0.155 -0.0359,-0.24905 -0.0679,-0.32005 0.008,-0.202 0.005,-0.40317 -0.005,-0.60617 -0.006,-0.102 -0.0124,-0.20493 -0.0194,-0.30792 -0.008,-0.109 -0.0152,-0.21876 -0.0242,-0.32976 0.013,-0.159 0.0258,-0.32035 0.0388,-0.48735 0.015,-0.161 0.0324,-0.32463 0.0533,-0.49463 0.093,0.3 0.0322,-0.23715 0.15517,-0.17215 0.03,-0.184 0.0351,-0.25498 0.0291,-0.27398 v -0.002 -0.002 c -10e-4,-0.0377 -0.002,-0.0639 0,-0.11881 l 0.0849,-0.47523 c 0.005,-0.141 -0.0813,0.16078 -0.10426,0.13578 0.116,-0.398 -0.002,-0.18141 0.0485,-0.4534 0.028,0.067 0.10746,-0.11573 0.16246,-0.34673 l -0.0437,0.3346 c 0.09,-0.197 0.11936,-0.31846 0.13336,-0.41946 0.006,-0.052 0.009,-0.0965 0.0146,-0.14548 0.003,-0.024 0.007,-0.0482 0.01,-0.0752 0.002,-0.013 0.004,-0.0262 0.007,-0.0412 0.006,-0.025 0.0148,-0.053 0.0218,-0.08 0.049,-0.081 0.064,-0.1096 0.097,-0.1576 0.033,-0.046 0.0708,-0.0962 0.1188,-0.15517 l -0.13335,0.13335 c 0.092,-0.119 0.24206,-0.35064 0.40006,-0.57464 0.08,-0.113 0.16062,-0.22505 0.23762,-0.32005 0.038,-0.047 0.0755,-0.0881 0.11153,-0.12608 l 0.0509,-0.0509 c 0.017,-0.017 0.0342,-0.0311 0.0412,-0.0291 v -0.002 c -0.006,-0.004 0.002,-0.0502 -0.007,-0.0582 -0.003,-0.006 -0.008,-0.007 -0.017,0 -0.006,0.002 -0.0257,0.0345 -0.0267,0.0315 h -0.002 c 0.177,-0.4 0.47775,-0.91173 0.68375,-1.31173 0.084,-0.203 0.16409,-0.41904 0.20609,-0.59404 l -0.0485,0.0388 c 0.055,-0.122 0.13587,-0.19812 0.16487,-0.36612 -0.016,0.004 -0.0491,0.0396 -0.0291,-0.0194 0.017,-0.031 0.0617,-0.11025 0.10668,-0.20125 0.023,-0.047 0.0465,-0.094 0.0655,-0.14305 0.01,-0.024 0.0177,-0.0497 0.0267,-0.0727 0.013,-0.039 0.0268,-0.0765 0.0388,-0.11154 l -0.0606,0.10911 -0.0437,0.0655 c 0.012,-0.037 0.023,-0.0741 0.034,-0.10911 0.019,-0.054 0.0388,-0.1076 0.0558,-0.1576 0.054,-0.036 0.10661,-0.0717 0.15761,-0.10669 0.03,-0.019 0.0607,-0.0368 0.0897,-0.0558 0.056,-0.035 0.11087,-0.066 0.16487,-0.097 0.108,-0.061 0.21078,-0.11388 0.31278,-0.16488 0.205,-0.103 0.40783,-0.20145 0.63283,-0.33945 -0.007,-0.011 -0.004,-0.0289 0.007,-0.0509 0.006,-0.01 0.0132,-0.0209 0.0242,-0.0339 0.008,-0.012 0.006,-0.0162 0.01,-0.0242 -0.006,-0.008 0.032,-0.0645 0.063,-0.11154 0.032,-0.049 0.0687,-0.10317 0.10669,-0.15517 0.075,-0.104 0.15579,-0.20669 0.21579,-0.28369 h -0.0194 c 0.097,-0.115 0.19169,-0.22248 0.28369,-0.32248 0.099,-0.104995 0.1941,-0.205076 0.2861,-0.303076 l 0.0897,-0.06304 0.0679,-0.04607 0.13335,-0.08971 c 0.09,-0.059 0.17914,-0.119424 0.26914,-0.179424 0.18,-0.119 0.36124,-0.240244 0.55524,-0.378244 0.031,-0.038 0.0892,-0.09493 0.12123,-0.13093 0.106,-0.133 0.28923,-0.322175 0.47523,-0.509175 0.202,-0.202 0.42041,-0.419983 0.63041,-0.627983 0.064,-0.028 0.12854,-0.05544 0.19154,-0.08244 0.048,-0.022 0.0936,-0.04447 0.14063,-0.06547 0.091,-0.042 0.17987,-0.08266 0.26187,-0.123656 -0.1,0.06 0.0452,0.05897 0.17215,0.01697 0.15599,-0.085 0.47503,-0.125971 0.41703,-0.193971 l -0.0582,0.02667 c 0.056,-0.073 0.16788,-0.134944 0.34188,-0.210944 0.127,-0.04 0.26494,-0.08223 0.38794,-0.121232 l 0.0776,0.09214 c 0.137,-0.078 0.2998,-0.146519 0.4728,-0.208519 0.086,-0.031 0.17571,-0.06171 0.26671,-0.08971 l 0.13578,-0.03879 0.0679,-0.0194 c 0.024,-0.007 0.0475,-0.01455 0.0485,-0.01455 0.114,-0.052 0.2266,-0.103752 0.3346,-0.152752 0.113,-0.054 0.22247,-0.104753 0.32247,-0.152753 0.198,-0.098 0.35871,-0.191258 0.44371,-0.281258 0.094,-0.032 0.15645,-0.05663 0.33945,-0.14063 0.193,0.029 0.25773,0.04389 0.34673,0.06789 l -0.002,-0.06062 c 0.238,0.022 0.41944,0.03634 0.61344,0.05334 0.096,0.011 0.19593,0.02337 0.30793,0.03637 0.055,0.007 0.114,0.01382 0.177,0.02182 0.032,0.004 0.063,0.0095 0.097,0.01455 l 0.0533,0.0048 0.01,0.0024 c 0.001,-10e-4 0.003,0 0.007,0 -0.004,-0.004 -0.008,-0.0095 -0.01,-0.01455 -0.008,-0.01 0.007,-0.01852 -0.0291,-0.03152 0.04,0.004 0.0221,0.0043 0.0291,0.0073 l 0.005,0.0049 c 0.015,0 0.0286,-0.0024 0.0436,-0.0024 0.031,0 0.0617,0.0018 0.0897,0.0048 0.056,0.007 0.1056,0.0191 0.1576,0.0291 0.103,0.021 0.20758,0.03812 0.35158,0.01212 l 0.0752,-0.106684 c 0.123,-0.024 0.24797,-0.05101 0.37097,-0.08001 l 0.18427,-0.04364 0.23762,-0.05577 0.31278,0.06547 0.25701,0.06062 c 0.17,0.043 0.33748,0.09218 0.49948,0.155177 -0.006,-0.015 -0.0175,-0.04431 -0.11154,-0.07032 0.125,0.026 0.36052,0.07681 0.56252,0.118808 0.048,0.001 0.0948,0.0014 0.13578,0.0024 0.051,0.002 0.0974,0.0037 0.13335,0.0097 0.072,0.011 0.10602,0.03104 0.08,0.06304 0.006,-0.08 0.61961,-0.01118 0.94561,0.02182 l -0.0509,-0.05819 c 0.057,0.016 0.10405,0.02779 0.14305,0.03879 0.039,0.011 0.0715,0.0201 0.12851,0.0291 0.08,0.03 0.10373,0.04489 0.16973,0.06789 0.061,0.022 0.13688,0.04659 0.24488,0.07759 0.09,0.014 0.0871,-0.0258 -0.0339,-0.0388 0.301,0.039 0.21549,0.108451 0.57949,0.162451 l -0.12366,-0.06789 c 0.303,0.067 0.27559,0.07945 0.43159,0.162451 0.185,0.071 0.57925,0.11474 0.63525,0.07274 0.034,0.041 0.1914,0.119053 0.3734,0.143053 0.029,-0.015 -0.0345,-0.04034 -0.0655,-0.05334 0.179,0.024 0.32299,0.05856 0.45099,0.09456 0.063,0.019 0.12242,0.03777 0.17942,0.05577 0.029,0.008 0.0579,0.01625 0.0849,0.02425 l 0.11154,0.03152 0.0824,0.06547 0.0606,0.04607 c 0.042,0.03 0.0854,0.05786 0.13336,0.08486 0.018,-0.011 0.0433,-0.0019 0.0703,0.01212 -0.119,-0.093 -0.2309,-0.180587 -0.3249,-0.254587 -0.127,-0.025 -0.22823,-0.04662 -0.29823,-0.06062 -0.044,-0.009 -0.072,-0.01597 -0.08,-0.01697 0.017,-0.051 0.33657,0.01019 0.0946,-0.118807 0.037,0.014 0.0772,0.02907 0.12123,0.04607 0.022,0.009 0.0463,0.01767 0.0703,0.02667 0.042,0.013 0.0869,0.02722 0.13093,0.04122 0.037,0.035 0.091,0.08411 0.11396,0.109109 l 0.0679,0.07274 0.14305,0.143054 c 0.097,0.093 0.19839,0.17604 0.29339,0.240039 0.016,0.006 0.0311,0.01212 0.0461,0.01212 l -0.0218,-0.02425 c 0.063,0.042 0.11118,0.08736 0.15518,0.133356 0.087,0.057 0.14407,0.09418 0.22307,0.155177 0.04,-0.004 0.13728,0.07015 0.26428,0.172149 0.068,0.065 0.1377,0.129999 0.1867,0.176999 -0.05,0.034 0.11511,0.173315 -0.0679,0.07032 0.022,0.015 -0.017,-0.02484 -0.097,-0.101835 -0.017,-0.019 -0.0385,-0.03934 -0.0485,-0.05334 0.002,0.003 0.003,0.0081 0.005,0.01212 l -0.0364,-0.03395 -0.2958,-0.237615 c 0.073,0.09 0.14298,0.172437 0.27398,0.259437 0.029,0.023 0.0457,0.03534 0.0727,0.05334 0.037,0.086 0.0807,0.177916 0.10668,0.227916 0.224,0.093 0.57466,0.359696 0.65466,0.363696 0.102,0.104 0.21575,0.217601 0.32975,0.334601 0.075,0.059 0.15006,0.121423 0.22306,0.179423 0.077,0.062 0.15022,0.121849 0.21822,0.181849 0.136,0.119999 0.24963,0.234176 0.31763,0.332176 0.108,0.097 0.15452,0.07171 0.20852,0.08971 -0.061,-0.058 -0.14273,-0.115177 -0.16972,-0.155177 0.047,0.042 0.10672,0.09063 0.16972,0.140629 0.068,0.053 0.13952,0.108451 0.20852,0.162451 0.039,0.047 0.0765,0.09136 0.11153,0.133361 0.031,0.039 0.0584,0.0775 0.0824,0.11153 0.048,0.067 0.0782,0.12133 0.0752,0.15033 0.27,0.245 -0.0845,-0.201 0.24247,0.177 l -0.0291,-0.0655 c 0.652,0.58 0.89945,1.1158 1.57844,1.7118 0.044,0.072 0.0701,0.10988 0.10911,0.16488 0.036,0.051 0.074,0.10075 0.11396,0.15275 -0.046,-0.061 -0.0673,-0.0924 -0.0873,-0.0994 0.224,0.348 0.43626,0.72466 0.63526,1.08866 l 0.42189,0.63041 c 0.144,0.215 0.27901,0.41526 0.43401,0.63526 0.16,0.317 0.31335,0.60242 0.48735,0.88742 0.076,0.132 0.11421,0.21653 0.13821,0.28853 0.012,0.036 0.0197,0.0688 0.0267,0.10183 0.004,0.017 0.008,0.0329 0.0121,0.0509 0.006,0.022 0.0138,0.0453 0.0218,0.0703 -0.001,0.023 -0.004,0.0533 -0.005,0.0873 l 0.0752,0.0679 -0.0218,0.37097 c 0.006,0.182 0.0423,0.3419 0.0873,0.5019 0.023,0.08 0.0463,0.16189 0.0703,0.24489 0.011,0.041 0.0219,0.0831 0.0339,0.12608 0.009,0.039 0.0191,0.0778 0.0291,0.11881 l 0.007,0.0145 0.01,0.0291 0.0218,0.0558 c 0.013,0.039 0.0244,0.0792 0.0364,0.12123 0.023,0.083 0.0432,0.17356 0.0582,0.27156 l -0.0679,-0.0679 c 0.08,0.221 0.20262,0.71636 0.23762,0.66436 0,0.025 -0.0185,0.0873 0.0315,0.1673 l 0.0339,-0.002 0.0242,0.11153 0.0291,0.12851 -0.0339,0.3637 c 0.023,0.447 0.13078,-0.0687 0.13578,0.58434 -0.013,0.243 -0.0958,0.68988 -0.11881,0.59888 -0.001,-0.098 -0.0218,-0.25001 -0.0558,-0.25701 l -0.017,0.22064 -0.0194,0.01 v 0.034 l 0.0703,1.54692 -0.44128,0.98198 0.0267,-0.017 -0.0485,0.063 -0.13821,0.31035 c 0.016,-0.004 0.0383,-0.0283 0.0703,-0.0873 -0.029,0.117 -0.0584,0.16767 -0.0824,0.20367 -0.018,0.043 -0.0368,0.0888 -0.0388,0.19882 0.001,0.025 0.008,0.0151 0.017,-0.005 l -0.0849,0.22792 c 0.029,-0.041 0.0487,0.0539 0.0727,-0.0921 -0.056,0.431 -0.23352,0.65766 -0.20852,0.83166 -0.1068,0.33696 -0.0973,0.21068 -0.15275,0.26428 l -0.007,0.0243 -0.0364,0.24731 0.0776,0.22064 -0.0727,0.0461 c -0.007,0.062 -0.0193,0.1863 0.01,0.1673 -0.078,0.221 -0.0214,-0.0436 -0.0824,0.0824 0.011,0.245 -0.0883,0.59728 -0.0873,0.79528 -0.025,0.048 -0.0391,0.0895 -0.0291,0.11154 -0.107,0.061 0.15042,-0.26555 -0.0776,-0.0145 0.035,0.139 -0.234,0.282 -0.354,0.531 0.095,-0.033 0.22283,-0.25728 0.10183,-0.007 -0.175,0.073 -0.29656,0.43944 -0.44856,0.61344 -0.064,-0.035 -0.33076,0.37392 -0.58676,0.66192 0.012,-10e-4 -0.0374,0.0766 -0.11638,0.19155 -0.078,0.11 -0.18084,0.25764 -0.27884,0.39764 -0.042,0.12 -0.083,0.2359 -0.11395,0.3249 l 0.0145,-0.005 c -0.099,0.033 -0.22772,0.37871 -0.34672,0.62071 0.047,0.008 0.0816,-0.0267 0.1576,-0.15275 l -0.097,0.23034 c -0.047,0.046 -0.088,0.11386 -0.16003,0.26186 l 0.0776,-0.0364 -0.0509,0.11154 c -0.022,0.047 -0.0435,0.0936 -0.0655,0.14063 -0.108,0.091 -0.22145,0.18468 -0.33945,0.28368 -0.107,0.094 -0.21591,0.19605 -0.32491,0.32005 -0.037,-0.015 0.0405,-0.16757 -0.0145,-0.17457 l -0.1673,0.16002 c 0.018,0.008 0.0456,0.004 0.0946,-0.0339 -0.031,0.024 -0.11688,0.0766 -0.16488,0.14063 l 0.16488,-0.0897 c -0.128,0.151 -0.10237,0.0408 -0.21337,0.15275 0.031,0.028 -0.0633,0.10353 -0.0242,0.11153 0.032,-0.025 0.0881,-0.1082 0.14306,-0.1382 -0.061,0.064 -0.12885,0.13767 -0.18185,0.20367 -0.054,0.066 -0.0905,0.12142 -0.12851,0.17942 l -0.002,0.002 c 0.001,-0.003 0.003,-0.006 0,-0.007 0.001,-0.008 -0.003,-0.0145 -0.01,-0.0145 -0.016,-0.012 -0.0782,-5e-5 -0.15518,0.0339 -0.303,0.146 -0.0813,0.0967 -0.24731,0.20367 -0.086,0.01 -0.26523,0.13159 -0.29823,0.0776 -0.088,0.044 -0.0918,0.0771 -0.11881,0.10911 -0.168,0.053 -0.73034,0.35552 -0.58434,0.20852 l 0.0364,-0.0243 c -0.008,0.003 -0.0153,0.006 -0.0243,0.01 l -0.0582,0.0218 c -0.476,0.262 -0.91347,0.68231 -1.38447,0.95531 l 0.0121,0.017 c -0.3,0.159 -0.64873,0.38623 -0.87773,0.47523 -0.084,0.053 -0.1785,0.15718 -0.1285,0.15518 -0.062,0.033 -0.11075,0.058 -0.15275,0.08 -0.142,0.048 -0.21411,0.0731 -0.46311,0.2061 0.253,-0.068 -0.07,0.064 0.25701,-0.08 -0.303,0.147 -0.36127,0.20881 -0.71527,0.29581 0.134,0.002 -0.20827,0.16152 -0.36127,0.20852 l 0.20367,-0.12608 c -0.169,0.061 -0.31268,0.13112 -0.46068,0.18912 l 0.10668,0.0339 c -0.253,0.135 -0.50536,0.21141 -0.74436,0.27641 -0.119,0.033 -0.23473,0.0636 -0.34673,0.0946 -0.056,0.017 -0.10845,0.0368 -0.16245,0.0558 l -0.08,0.0291 -0.11638,0.0485 c -0.158,-0.015 -0.22006,-0.01 -0.32006,0.002 -0.087,-0.036 0.006,-0.0321 0.10184,-0.0291 0.081,0.001 0.24508,0.0111 0.12608,-0.0339 -0.331,-0.033 -0.65691,0.0251 -0.75891,0.0121 -0.204,-0.008 -0.30122,-0.042 -0.39522,-0.08 -0.047,-0.019 -0.0923,-0.0402 -0.15033,-0.0582 -0.05,-0.016 -0.14827,-0.0358 -0.18427,-0.0388 -0.01,0.004 -0.0238,0.011 -0.0388,0.017 0.01,-0.03 0.0903,-0.12879 -0.24974,-0.0388 -0.296,0.11 -0.33178,0.22684 -0.13578,0.18184 0.072,-0.022 0.10298,-0.0439 0.097,-0.0509 0.1,-0.024 0.23024,-0.0563 0.12124,0.01 l -0.0461,-0.01 c -0.141,0.074 -0.55471,0.21221 -0.44371,0.21821 -0.235,0.054 -0.11066,-0.008 0.0533,-0.0776 -0.154,0.069 -0.28519,0.11802 -0.41219,0.16002 -0.147,0.05 -0.29168,0.0982 -0.46068,0.15518 z m -2.65013,-3.09142 c 0.034,-0.056 0.0738,-0.1083 0.10183,-0.1673 0.384,-0.807 0.76421,-1.6159 1.28021,-2.3519 0.425,-0.607 0.92855,-1.13699 1.51055,-1.59299 0.05,-0.039 0.0964,-0.0793 0.17943,-0.15033 -0.133,-0.014 -0.21758,-0.0238 -0.35158,-0.0388 0.077,-0.068 0.124,-0.11518 0.177,-0.15518 1.544,-1.164 3.00172,-2.42606 4.32071,-3.84306 0.06,-0.064 0.12173,-0.12782 0.16973,-0.19882 0.06,-0.088 0.17275,-0.24571 0.15275,-0.26671 -0.122,-0.125 -0.26389,-0.24635 -0.42189,-0.31035 -0.065,-0.026 -0.1961,0.0849 -0.2861,0.1479 -0.792,0.555 -1.5853,1.10758 -2.3713,1.67058 -0.601,0.432 -1.19096,0.87758 -1.78696,1.31658 -0.013,-0.011 -0.0282,-0.0205 -0.0412,-0.0315 l 0.19882,-0.35885 c -0.599,0.258 -1.14091,0.59535 -1.64391,1.01835 0.049,-0.206 0.0977,-0.41238 0.15275,-0.64738 -0.056,0.021 -0.10193,0.0269 -0.13093,0.0509 -0.295,0.24 -0.59272,0.47882 -0.87772,0.72981 -0.22,0.194 -0.32174,0.19569 -0.42674,-0.0703 -0.164,-0.413 -0.30328,-0.83681 -0.44128,-1.26081 -0.045,-0.139 -0.079,-0.21758 -0.25701,-0.17458 -0.258,0.064 -0.52544,0.0929 -0.79044,0.13093 -0.142,0.021 -0.21772,0.0662 -0.16972,0.23519 0.135,0.481 0.25709,0.96594 0.38309,1.44994 0.211,0.811 0.41883,1.62334 0.63283,2.43434 0.139,0.528 0.28302,1.05587 0.43402,1.58087 0.018,0.064 0.0912,0.11372 0.1382,0.16972 0.017,-0.01 0.0339,-0.0215 0.0509,-0.0315 0.013,0.233 0.0248,0.46672 0.0388,0.70072 0.024,0.005 0.0502,0.01 0.0752,0.0145 z m -8.50807,-4.58742 c 0.021,-2.4e-4 0.0446,-0.004 0.0703,-0.0121 0.081,-0.026 0.16577,-0.063 0.23277,-0.11395 0.703,-0.535 1.50363,-0.85852 2.34463,-1.09352 1.21299,-0.339 2.42308,-0.70383 3.64908,-0.98683 0.751,-0.174 1.53256,-0.20862 2.29856,-0.31762 1.336,-0.19 2.67991,-0.28798 4.02491,-0.37097 0.165,-0.01 0.34323,-0.10737 0.47523,-0.21337 0.169,-0.136 0.29908,-0.32073 0.48008,-0.52373 -0.12,-0.022 -0.20454,-0.0553 -0.28854,-0.0533 -1.37499,0.023 -2.75474,0.008 -4.12674,0.0873 -1.57999,0.091 -3.14786,0.31231 -4.66986,0.77831 -0.118,0.036 -0.24027,0.0526 -0.36127,0.0776 -0.006,-0.018 -0.012,-0.0378 -0.017,-0.0558 l 1.55904,-0.58191 c -0.006,-0.026 -0.011,-0.0516 -0.017,-0.0776 -0.531,0.045 -1.06199,0.0898 -1.59299,0.13578 l -0.0194,-0.0388 c 0.095,-0.069 0.18947,-0.13819 0.32247,-0.23519 -0.453,-0.139 -0.80195,0.0945 -1.17595,0.14548 -0.015,-0.016 -0.0311,-0.0301 -0.0461,-0.0461 0.102,-0.086 0.20551,-0.17143 0.30551,-0.25943 0.527,-0.461 1.04987,-0.92505 1.58086,-1.38205 0.099,-0.086 0.22603,-0.14279 0.33703,-0.21579 0.381,-0.252 0.45657,-0.41104 0.35157,-0.77104 -0.063,-0.214 -0.0898,-0.4372 -0.13578,-0.6692 -0.066,0.022 -0.10108,0.0232 -0.12608,0.0412 -1.575,1.077 -3.02541,2.28691 -4.15341,3.84791 -0.579,0.801 -1.02728,1.66834 -1.32628,2.61134 -0.017,0.051 -0.0321,0.10317 -0.0461,0.15517 -0.0285,0.10125 0.007,0.13891 0.0703,0.13821 z m 23.18442,-0.89954 c 0.008,-0.014 0.0138,-0.0286 0.0218,-0.0436 -0.032,-0.039 -0.0561,-0.0834 -0.0921,-0.11638 -1.266,-1.169 -2.50283,-2.37165 -3.89883,-3.38965 -1.10599,-0.807 -2.22745,-1.59382 -3.33145,-2.40282 -0.997,-0.73 -1.98651,-1.47148 -2.86351,-2.34948 -0.1,-0.1 -0.23212,-0.18249 -0.36612,-0.22549 -0.152,-0.049 -0.33836,-0.0102 -0.39036,0.15275 -0.034,0.109 0.003,0.28725 0.0776,0.37825 0.996,1.21 2.12031,2.29496 3.33631,3.28296 0.363,0.295 0.71942,0.59667 1.06442,0.91167 0.145,0.132 0.25124,0.30668 0.37824,0.46068 0.075,0.093 0.16277,0.17698 0.23277,0.27398 0.134,0.185 0.26037,0.37595 0.39037,0.56494 -0.018,0.028 -0.0353,0.0569 -0.0533,0.0849 -0.35699,-0.021 -0.71569,-0.0315 -1.07169,-0.0655 -0.347,-0.034 -0.6077,0.0916 -0.7977,0.43159 0.306,0.041 0.60391,0.0821 0.93591,0.12608 -0.087,0.071 -0.14895,0.12072 -0.21095,0.16972 0,0.021 0.001,0.0396 0.002,0.0606 0.513,0.08 1.02522,0.15746 1.53722,0.24246 0.513,0.084 1.02377,0.17714 1.55177,0.26914 -0.012,0.058 -0.0212,0.10412 -0.0412,0.18912 1.195,0.331 2.39247,0.66311 3.58847,0.99411 z m -16.72033,-2.88775 c 0.031,0.003 0.0687,5e-5 0.11396,-0.01 0.214,-0.047 0.43323,-0.0679 0.65223,-0.0849 0.156,-0.012 0.214,-0.0669 0.177,-0.22792 -0.343,-1.512 -0.37314,-3.04558 -0.26914,-4.58257 0.064,-0.965 0.17814,-1.92718 0.26914,-2.89018 0.005,-0.052 0,-0.10497 0,-0.19397 -0.083,0.042 -0.14159,0.0705 -0.25459,0.12851 0.073,-0.249 0.13252,-0.45585 0.20852,-0.71285 0.098,0.111 0.16834,0.18529 0.23034,0.26429 0.537,0.69 1.07296,1.37964 1.60996,2.07064 0.008,0.011 0.0152,0.0215 0.0242,0.0315 0.253,0.297 0.25985,0.28825 0.53585,0.0242 0.196,-0.187 0.42068,-0.34902 0.63768,-0.51402 0.191,-0.145 0.38916,-0.27902 0.60616,-0.43402 -0.127,-0.17699 -0.24085,-0.33905 -0.35885,-0.49705 -0.476,-0.636 -0.97254,-1.25677 -1.43054,-1.90577 -0.785,-1.11399 -1.29666,-2.3447 -1.44266,-3.7097 -0.033,-0.315 -0.0445,-0.63113 -0.11153,-0.977128 -0.206,0.289998 -0.41371,0.580448 -0.62071,0.870448 l -0.0437,-0.0194 c 0.136,-0.665 0.27134,-1.32948 0.40734,-1.995479 -0.019,-0.012 -0.0368,-0.02437 -0.0558,-0.03637 -0.106,0.112 -0.23121,0.211026 -0.31521,0.337026 -0.217,0.327999 -0.44028,0.657226 -0.61828,1.006223 -0.676,1.326 -1.10321,2.73118 -1.28021,4.20918 -0.024,0.197 -0.003,0.39844 0.0364,0.61344 0.122,-0.376 0.24267,-0.75338 0.38067,-1.17838 0.021,0.079 0.0404,0.11405 0.0364,0.14305 -0.15,1.048 -0.19626,2.10389 -0.10426,3.15689 0.121,1.389 0.25789,2.77568 0.42188,4.16068 0.108,0.921 0.27477,1.83397 0.40977,2.75197 0.018,0.1245 0.0549,0.19192 0.1479,0.20125 z m 4.32556,-0.11396 c 0.104,-0.031 0.17692,-0.0353 0.22792,-0.0703 0.495,-0.344 0.96873,-0.70659 1.31173,-1.21959 0.17,-0.256 0.24512,-0.52368 0.18912,-0.81468 -0.059,-0.314 -0.12719,-0.62721 -0.23519,-0.92621 -0.117,-0.323 -0.0361,-0.5882 0.14791,-0.8462 0.029,-0.041 0.053,-0.0855 0.08,-0.12851 -0.006,-0.022 -0.0124,-0.0435 -0.0194,-0.0655 -0.266,0.024 -0.53713,0.0282 -0.80013,0.0752 -0.559,0.1 -1.03648,0.36509 -1.46448,0.73709 -0.376,0.325 -0.5011,0.73992 -0.3831,1.19292 0.087,0.335 0.27832,0.64359 0.42432,0.96259 0.013,0.028 0.0443,0.0469 0.0703,0.0679 0.008,0.006 0.0243,0.002 0.0533,0.002 0.078,-0.357 -0.0173,-0.75987 0.34673,-1.04987 0.291,0.683 0.44291,1.34677 0.0509,2.08277 z m 14.33206,-0.017 c 0.011,-0.032 0.022,-0.0634 0.034,-0.0994 0.001,-0.015 -0.001,-0.0235 -0.002,-0.0315 z m -11.32792,-0.24247 c 0.36764,-0.006 0.71247,-0.087 1.03047,-0.31278 0.2,-0.141 0.31005,-0.32479 0.32005,-0.56979 0.019,-0.465 -0.0906,-0.87198 -0.49463,-1.15898 -0.358,-0.256 -0.70584,-0.52773 -1.06684,-0.78073 -0.273,-0.191 -0.58476,-0.27634 -0.94076,-0.23034 0.236,0.244 0.49172,0.47066 0.70072,0.73466 0.414,0.523 0.49562,1.10067 -0.11638,1.44267 -0.229,0.128 -0.48867,0.20465 -0.73467,0.30065 -0.065,0.026 -0.13546,0.0336 -0.24246,0.0606 0.372,0.309 0.79807,0.17728 1.18807,0.26428 -0.006,0.075 -0.0134,0.14977 -0.0194,0.23277 0.12725,0.0122 0.25327,0.0189 0.37582,0.017 z m -4.19221,-0.36854 c 0.049,-0.002 0.0995,-0.007 0.14548,-0.007 -0.182,-0.303 -0.352,-0.59657 -0.531,-0.88257 -0.401,-0.64 -0.27097,-1.3719 0.33703,-1.8209 0.155,-0.114 0.3312,-0.19851 0.4922,-0.30551 0.08,-0.052 0.14164,-0.12927 0.22064,-0.18427 0.056,-0.039 0.12455,-0.0649 0.19155,-0.0849 0.085,-0.027 0.17486,-0.0445 0.26186,-0.0655 v -0.0606 c -0.178,-0.018 -0.35542,-0.0464 -0.53342,-0.0534 -0.868,-0.035 -1.70059,0.0814 -2.45859,0.5504 -0.349,0.216 -0.55717,0.58768 -0.50917,0.99168 0.069,0.58699 0.3539,1.03837 0.85589,1.35537 0.428,0.271 0.90248,0.42224 1.38448,0.55524 0.046,0.0125 0.0941,0.0143 0.14305,0.0121 z m 7.99889,-1.70938 c 0.036,0.024 0.14655,-0.0219 0.19155,-0.0679 0.864,-0.862 1.59214,-1.83413 2.29614,-2.82713 1.18299,-1.667 2.09614,-3.48875 3.08414,-5.26875 0.028,-0.05 0.0459,-0.10602 0.0679,-0.16002 -0.009,-0.022 -0.0177,-0.0459 -0.0267,-0.0679 -0.2,0.036 -0.40589,0.0535 -0.59889,0.11153 -1.584,0.477 -3.19117,0.88964 -4.74017,1.45964 -2.547,0.937 -5.0987,1.87861 -7.50669,3.14961 -0.902,0.477 -1.78296,0.99115 -2.67196,1.49115 -0.182,0.103 -0.26052,0.25538 -0.20852,0.47038 0.032,0.134 0.0766,0.17881 0.22064,0.11881 1.144,-0.478 2.277,-0.99014 3.443,-1.41114 0.88799,-0.321 1.81814,-0.52474 2.73014,-0.78074 0.016,-0.005 0.0345,0.004 0.0655,0.007 -0.035,0.061 -0.0671,0.11379 -0.12608,0.21579 0.543,-0.145 1.04132,-0.27704 1.56631,-0.41704 -0.006,0.08 -0.009,0.12445 -0.0121,0.16245 0.016,0.012 0.0217,0.0204 0.0267,0.0194 0.957,-0.06 1.87259,-0.31986 2.81259,-0.61586 -0.023,0.083 -0.0315,0.1273 -0.0485,0.1673 -0.415,1.012 -0.82969,2.02465 -1.24869,3.03565 -0.058,0.141 -0.14867,0.26777 -0.20367,0.40977 -0.022,0.055 -0.0138,0.16497 0.0242,0.19397 0.28,0.212 0.56917,0.41373 0.86317,0.60373 z m 0.90682,-13.827729 c -0.002,-0.015 -0.005,-0.03092 -0.017,-0.05092 -0.082,-0.075 -0.11821,-0.08829 -0.13821,-0.08729 0.04,0.033 0.0869,0.07166 0.14791,0.123657 0.001,0.004 0.005,0.01055 0.007,0.01455 z" />
        <path
           d="m 250.18,110.635 0.003,-0.044 c 0.012,-0.005 0.023,-0.009 0.034,-0.009 z"
           style="fill:#050606;fill-opacity:1;fill-rule:nonzero;stroke:none"
           id="path373" />
      </g>
    </g>
  </g>
</svg>
