<?xml version="1.0" encoding="UTF-8" standalone="no"?>
<!-- Created with Inkscape (http://www.inkscape.org/) -->

<svg
   width="23.741926"
   height="24"
   viewBox="0 0 6.2817178 6.35"
   version="1.1"
   id="svg3120"
   inkscape:version="1.2.1 (9c6d41e4, 2022-07-14)"
   sodipodi:docname="return_to_the_midnight_masks.svg"
   xmlns:inkscape="http://www.inkscape.org/namespaces/inkscape"
   xmlns:sodipodi="http://sodipodi.sourceforge.net/DTD/sodipodi-0.dtd"
   xmlns="http://www.w3.org/2000/svg"
   xmlns:svg="http://www.w3.org/2000/svg">
  <sodipodi:namedview
     id="namedview3122"
     pagecolor="#505050"
     bordercolor="#eeeeee"
     borderopacity="1"
     inkscape:showpageshadow="0"
     inkscape:pageopacity="0"
     inkscape:pagecheckerboard="0"
     inkscape:deskcolor="#505050"
     inkscape:document-units="mm"
     showgrid="false"
     inkscape:zoom="0.70199214"
     inkscape:cx="121.08398"
     inkscape:cy="79.772973"
     inkscape:window-width="1390"
     inkscape:window-height="938"
     inkscape:window-x="0"
     inkscape:window-y="25"
     inkscape:window-maximized="0"
     inkscape:current-layer="layer1" />
  <defs
     id="defs3117">
    <clipPath
       clipPathUnits="userSpaceOnUse"
       id="clipPath683">
      <path
         d="m 37.363,437.628 h 23.529 v 23.529 H 37.363 Z"
         id="path681" />
    </clipPath>
  </defs>
  <g
     inkscape:label="Layer 1"
     inkscape:groupmode="layer"
     id="layer1"
     transform="translate(-73.2636,-127.49422)">
    <g
       id="g677"
       transform="matrix(0.27689356,0,0,-0.27689356,62.796442,255.07237)">
      <g
         id="g679"
         clip-path="url(#clipPath683)">
        <g
           id="g685"
           transform="translate(55.7731,458.638)">
          <path
             d="M 0,0 C -0.02,0.01 -0.038,0.017 -0.062,0.025 Z"
             style="fill:#050606;fill-opacity:1;fill-rule:nonzero;stroke:none"
             id="path687" />
        </g>
        <g
           id="g689"
           transform="translate(49.9352,460.64)">
          <path
             d="M 0,0 C 0.048,-0.002 0.068,0.002 0.071,0.007 0.026,0.006 -0.01,0.005 0,0"
             style="fill:#050606;fill-opacity:1;fill-rule:nonzero;stroke:none"
             id="path691" />
        </g>
        <g
           id="g693"
           transform="translate(48.8932,460.702)">
          <path
             d="M 0,0 C -0.024,-0.001 -0.049,-0.004 -0.062,-0.011 -0.039,-0.007 -0.02,-0.004 0,0"
             style="fill:#050606;fill-opacity:1;fill-rule:nonzero;stroke:none"
             id="path695" />
        </g>
        <g
           id="g697"
           transform="translate(55.7107,458.664)">
          <path
             d="M 0,0 -0.155,0.064 C -0.172,0.05 -0.077,0.027 0,0"
             style="fill:#050606;fill-opacity:1;fill-rule:nonzero;stroke:none"
             id="path699" />
        </g>
        <g
           id="g701"
           transform="translate(57.6785,456.751)">
          <path
             d="M 0,0 0.036,-0.036 C 0.05,-0.043 0.065,-0.048 0.081,-0.051 Z"
             style="fill:#050606;fill-opacity:1;fill-rule:nonzero;stroke:none"
             id="path703" />
        </g>
        <g
           id="g705"
           transform="translate(58.9673,455.033)">
          <path
             d="m 0,0 c -0.003,0.009 -0.007,0.017 -0.011,0.024 -0.036,0.044 -0.067,0.025 -0.093,0.033 0.021,-0.01 0.036,-0.019 0.06,-0.049 0.008,-0.013 0.017,-0.032 0.022,-0.042 C -0.014,-0.031 -0.005,-0.026 0,0"
             style="fill:#050606;fill-opacity:1;fill-rule:nonzero;stroke:none"
             id="path707" />
        </g>
        <g
           id="g709"
           transform="translate(60.2089,451.923)">
          <path
             d="M 0,0 0.029,-0.053 C 0.021,-0.039 0.009,-0.016 0,0"
             style="fill:#050606;fill-opacity:1;fill-rule:nonzero;stroke:none"
             id="path711" />
        </g>
        <g
           id="g713"
           transform="translate(56.7801,457.988)">
          <path
             d="M 0,0 C 0.001,0.008 -0.001,0.017 -0.006,0.025 -0.009,0.02 -0.006,0.011 0,0"
             style="fill:#050606;fill-opacity:1;fill-rule:nonzero;stroke:none"
             id="path715" />
        </g>
        <g
           id="g717"
           transform="translate(60.2767,449.393)">
          <path
             d="M 0,0 0.006,-0.034 C 0.015,-0.036 0.024,-0.039 0.032,-0.038 Z"
             style="fill:#050606;fill-opacity:1;fill-rule:nonzero;stroke:none"
             id="path719" />
        </g>
        <g
           id="g721"
           transform="translate(46.9218,460.382)">
          <path
             d="M 0,0 C 0.004,0 0.005,0 0.009,0 0.059,0.013 0.03,0.008 0,0"
             style="fill:#050606;fill-opacity:1;fill-rule:nonzero;stroke:none"
             id="path723" />
        </g>
        <g
           id="g725"
           transform="translate(38.0415,446.957)">
          <path
             d="m 0,0 c -0.008,0.011 -0.016,0.024 -0.024,0.035 -0.01,0.018 -0.02,0.035 -0.028,0.047 -0.009,0.028 -0.019,0.039 -0.029,-0.003 -0.001,-0.008 0,-0.024 0.003,-0.047 0.001,-0.015 0.004,-0.035 0.007,-0.06 C -0.081,0.179 0.06,-0.336 0.03,-0.029 0.027,-0.037 0.015,-0.022 0,0"
             style="fill:#050606;fill-opacity:1;fill-rule:nonzero;stroke:none"
             id="path727" />
        </g>
        <g
           id="g729"
           transform="translate(42.8393,458.713)">
          <path
             d="M 0,0 C -0.004,0.002 -0.016,-0.001 -0.046,-0.02 -0.034,-0.018 -0.017,-0.01 0,0"
             style="fill:#050606;fill-opacity:1;fill-rule:nonzero;stroke:none"
             id="path731" />
        </g>
        <g
           id="g733"
           transform="translate(45.8046,460.235)">
          <path
             d="M 0,0 -0.083,0.003 C -0.05,0 -0.023,0 0,0"
             style="fill:#050606;fill-opacity:1;fill-rule:nonzero;stroke:none"
             id="path735" />
        </g>
        <g
           id="g737"
           transform="translate(41.3079,457.636)">
          <path
             d="M 0,0 C 0.005,0.003 0.01,0.007 0.015,0.012 0.023,0.034 0.037,0.06 0.072,0.098 0.043,0.063 0.03,0.054 0,0"
             style="fill:#050606;fill-opacity:1;fill-rule:nonzero;stroke:none"
             id="path739" />
        </g>
        <g
           id="g741"
           transform="translate(40.3309,456.264)">
          <path
             d="M 0,0 C 0.008,0.006 0.018,0.014 0.027,0.021 0.038,0.036 0.05,0.053 0.06,0.068 Z"
             style="fill:#050606;fill-opacity:1;fill-rule:nonzero;stroke:none"
             id="path743" />
        </g>
        <g
           id="g745"
           transform="translate(45.7007,460.212)">
          <path
             d="M 0,0 C -0.026,-0.006 -0.051,-0.01 -0.078,-0.014 -0.022,-0.007 0.052,-0.004 0,0"
             style="fill:#050606;fill-opacity:1;fill-rule:nonzero;stroke:none"
             id="path747" />
        </g>
        <g
           id="g749"
           transform="translate(57.4101,451.426)">
          <path
             d="m 0,0 c -0.012,-0.015 -0.26,-0.04 -0.298,-0.049 -0.107,-0.025 -0.211,-0.057 -0.315,-0.086 -0.152,-0.042 -0.326,-0.102 -0.494,-0.099 -0.369,0.005 -0.55,0.349 -0.707,0.528 -0.069,0.08 -0.147,0.157 -0.224,0.234 -0.163,0.162 -0.283,0.343 -0.458,0.496 -0.091,0.079 -0.156,0.175 -0.227,0.271 -0.05,0.069 -0.105,0.134 -0.163,0.197 -0.086,0.094 -0.18,0.179 -0.256,0.282 -0.113,0.155 -0.178,0.336 -0.27,0.503 -0.111,0.205 -0.248,0.395 -0.389,0.58 -0.154,0.201 -0.319,0.401 -0.492,0.585 -0.145,0.154 -0.311,0.284 -0.452,0.44 -0.197,0.217 -0.366,0.453 -0.53,0.694 -0.131,0.193 -0.264,0.382 -0.389,0.579 -0.06,0.094 -0.11,0.195 -0.187,0.276 -0.072,0.077 -0.149,0.148 -0.233,0.212 -0.057,0.043 -0.118,0.08 -0.171,0.129 -0.043,0.04 -0.079,0.11 -0.127,0.142 -0.079,0.052 -0.204,0.05 -0.293,0.081 -0.099,0.034 -0.196,0.064 -0.296,0.096 -0.183,0.057 -0.401,0.087 -0.568,0.171 -0.159,0.08 -0.351,0.148 -0.529,0.169 -0.08,0.009 -0.155,0.047 -0.234,0.066 -0.091,0.022 -0.181,0.008 -0.272,0.02 -0.08,0.011 -0.141,0.055 -0.218,0.086 -0.227,0.089 -1.2,-0.745 -1.335,-0.838 -0.159,-0.11 -0.293,-0.236 -0.437,-0.364 -0.169,-0.152 -0.256,-0.337 -0.378,-0.524 -0.136,-0.209 -0.305,-0.402 -0.489,-0.568 -0.12,-0.107 -0.216,-0.227 -0.324,-0.343 -0.133,-0.143 -0.293,-0.251 -0.439,-0.378 -0.294,-0.256 -0.534,-0.566 -0.828,-0.825 -0.166,-0.146 -0.358,-0.261 -0.519,-0.413 -0.077,-0.073 -0.135,-0.148 -0.183,-0.24 -0.018,-0.035 -0.02,-0.057 -0.05,-0.085 -0.063,-0.059 -0.161,-0.101 -0.23,-0.157 -0.096,-0.08 -0.188,-0.165 -0.275,-0.254 -0.145,-0.135 -0.298,-0.261 -0.457,-0.379 -0.407,-0.312 -0.835,-0.613 -1.218,-0.956 -0.013,-0.011 -0.178,-0.14 -0.195,-0.197 -0.021,-0.07 -0.436,0.05 -0.504,0.172 -0.066,0.118 -0.054,0.252 -0.046,0.379 0.006,0.103 0.388,0.427 0.421,0.475 0.283,0.411 0.722,0.813 1.09,1.186 0.356,0.361 0.753,0.705 1.103,1.068 0.307,0.317 0.547,0.661 0.854,0.978 0.422,0.437 0.901,0.834 1.303,1.282 0.477,0.531 1.101,0.979 1.681,1.458 0.215,0.178 0.406,0.368 0.62,0.546 0.196,0.162 0.41,0.314 0.591,0.484 0.1,0.095 0.117,0.264 0.313,0.231 0.238,-0.04 0.478,-0.185 0.686,-0.274 C -7.729,7.936 -7.444,7.79 -7.161,7.636 -6.922,7.505 -6.658,7.364 -6.465,7.198 -6.321,7.074 -6.247,6.946 -6.153,6.805 -5.885,6.401 -5.207,6.252 -4.804,5.927 -4.592,5.756 -4.433,5.561 -4.262,5.371 -4.018,5.098 -3.723,4.854 -3.425,4.608 -3.002,4.256 -2.865,3.821 -2.58,3.419 -2.329,3.066 -2.146,2.701 -1.92,2.34 -1.75,2.068 -1.532,1.804 -1.353,1.533 -1.195,1.294 -1.031,1.05 -0.79,0.842 -0.591,0.67 -0.39,0.502 -0.188,0.332 -0.11,0.265 0.07,0.089 0,0 m -2.123,-4.381 c 0,-0.298 0.032,-0.615 -0.023,-0.91 -0.04,-0.218 -0.089,-0.412 -0.093,-0.637 -0.007,-0.33 -0.026,-0.659 -0.039,-0.989 -0.014,-0.388 -0.061,-0.776 -0.088,-1.164 -0.04,-0.555 -0.102,-1.14 -0.251,-1.679 -0.07,-0.256 -0.187,-0.477 -0.236,-0.741 -0.022,-0.113 -0.019,-0.413 -0.112,-0.514 -0.028,0.073 -0.008,0.175 -0.008,0.252 10e-4,0.183 -0.001,0.367 0,0.55 0.002,0.624 -0.126,1.229 -0.178,1.851 -0.06,0.721 -0.068,1.448 -0.067,2.171 10e-4,0.317 -0.024,0.633 -0.015,0.95 0.005,0.191 0.027,0.381 0.038,0.572 0.004,0.055 0.007,0.11 0.008,0.164 0.021,0.984 0.053,1.966 0.104,2.949 0.025,0.481 0.052,0.961 0.082,1.441 0.008,0.138 0.017,0.275 0.026,0.413 0.003,0.042 0.019,0.104 0.011,0.146 0.038,0.023 0.08,0.09 0.126,0.125 0.062,0.049 0.13,0.086 0.197,0.119 0.072,0.036 0.21,0.082 0.287,0.046 0.114,-0.054 0.159,-0.373 0.179,-0.526 0.016,-0.115 0.048,-0.236 0.056,-0.354 0.017,-0.254 -0.002,-0.522 -0.002,-0.777 0,-0.814 -0.002,-1.627 -0.002,-2.441 0,-0.339 0,-0.678 0,-1.017 M -4.437,1.363 C -4.484,1.306 -4.561,1.247 -4.633,1.228 c -0.075,-0.02 -0.19,0.003 -0.269,0.003 -0.096,0 -0.193,0 -0.29,0 -0.154,0 -0.311,-0.012 -0.464,0.005 C -5.89,1.263 -6.077,1.4 -6.302,1.44 -6.5,1.475 -6.743,1.49 -6.944,1.478 -7.167,1.464 -7.367,1.363 -7.6,1.357 -7.824,1.35 -8.05,1.39 -8.272,1.33 -8.374,1.302 -8.475,1.274 -8.577,1.246 -8.744,1.225 -8.91,1.231 -9.076,1.263 -9.349,1.289 -9.592,1.228 -9.861,1.195 c -0.165,-0.02 -0.33,10e-4 -0.495,-0.016 -0.239,-0.025 -0.473,-0.056 -0.714,-0.026 -0.22,0.028 -0.425,0.081 -0.647,0.079 -0.146,-0.002 -0.291,-10e-4 -0.437,-10e-4 -0.054,0 -0.679,0.457 -0.68,0.509 0,0.058 -0.001,0.11 0.008,0.166 -10e-4,-0.004 0.022,0.093 0.022,0.094 0.039,0.087 0.125,0.152 0.183,0.227 0.056,0.073 0.085,0.114 0.183,0.112 0.091,-10e-4 0.185,0.009 0.276,0.002 0.11,-0.009 0.208,-0.046 0.321,-0.044 0.113,10e-4 0.227,0 0.34,0 0.159,0 0.318,-0.007 0.477,-0.003 0.257,0.006 0.475,0.135 0.738,0.131 0.2,-0.002 0.385,0.001 0.582,-0.034 0.103,-0.017 0.194,-0.01 0.293,0.015 0.257,0.066 0.539,0.018 0.802,0.018 0.153,10e-4 0.31,0.013 0.463,-0.003 0.103,-0.011 0.205,-0.043 0.31,-0.043 0.21,-0.002 0.417,0.049 0.629,0.045 0.118,-10e-4 0.233,0.032 0.351,0.042 0.122,0.01 0.241,-0.017 0.362,-0.03 0.202,-0.022 0.398,-0.015 0.592,-0.084 0.395,-0.14 1.422,-0.374 1.443,-0.402 0.08,-0.101 0.096,-0.497 0.022,-0.586 M -4.67,-5.382 C -4.721,-5.807 -4.773,-6.228 -4.885,-6.643 -4.955,-6.902 -5.024,-7.186 -5.159,-7.422 -5.221,-7.532 -5.321,-7.63 -5.395,-7.734 -5.437,-7.793 -5.497,-7.84 -5.546,-7.892 -5.672,-8.024 -5.761,-8.128 -5.905,-8.243 -6.215,-8.49 -6.591,-8.69 -6.963,-8.83 -7.24,-8.933 -7.536,-8.916 -7.826,-8.915 c -0.306,10e-4 -0.613,-0.007 -0.919,-0.002 -0.324,0.005 -0.654,0.057 -0.972,0.118 -0.388,0.075 -0.666,0.188 -0.994,0.415 -0.174,0.12 -0.363,0.217 -0.535,0.338 -0.155,0.11 -0.259,0.333 -0.341,0.496 -0.168,0.336 -0.308,0.699 -0.41,1.061 -0.088,0.309 -0.219,0.631 -0.234,0.954 -0.017,0.335 -0.028,0.689 0.004,1.024 0.036,0.37 0.206,0.699 0.349,1.034 0.072,0.167 0.14,0.328 0.215,0.488 -10e-4,10e-4 -0.002,0.002 -0.003,0.002 -0.245,0.224 -0.516,0.351 -0.626,0.683 0.052,-0.21 -0.042,-0.019 -0.043,0.044 -10e-4,0.076 0.015,0.16 0.093,0.199 0.082,0.041 0.201,0.007 0.271,-0.03 0.081,-0.043 0.113,-0.112 0.181,-0.164 0.074,-0.057 0.147,-0.096 0.218,-0.162 0.05,-0.047 0.102,-0.089 0.156,-0.13 0.053,0.072 0.112,0.142 0.165,0.203 0.038,0.043 0.178,0.201 0.266,0.322 0.097,0.133 0.223,0.178 0.365,0.256 0.101,0.055 0.163,0.146 0.267,0.199 0.092,0.048 0.188,0.082 0.282,0.127 0.102,0.05 0.215,0.064 0.324,0.087 0.148,0.03 0.292,0.075 0.441,0.099 0.418,0.067 0.857,0.066 1.28,0.051 0.199,-0.007 0.391,-0.043 0.592,-0.042 0.234,0.002 0.486,0.035 0.712,-0.037 0.224,-0.071 0.46,-0.127 0.669,-0.236 0.043,-0.022 0.087,-0.053 0.131,-0.088 0.024,0.03 0.051,0.057 0.078,0.093 0.096,0.124 0.244,0.618 0.471,0.426 0.069,-0.058 0.084,-0.142 0.124,-0.211 0.027,-0.047 0.149,-0.144 0.157,-0.194 0.008,-0.045 -0.022,-0.048 -0.038,-0.085 -0.033,-0.073 -0.058,-0.155 -0.095,-0.226 -0.056,-0.106 -0.12,-0.216 -0.19,-0.319 0.184,-0.219 0.343,-0.46 0.452,-0.724 0.084,-0.202 0.162,-0.41 0.225,-0.619 0.042,-0.14 0.099,-0.271 0.101,-0.419 0.002,-0.065 -0.003,-0.132 -0.004,-0.198 -0.001,-0.434 0.022,-0.87 -0.029,-1.3 m -8.607,-1.982 c -0.09,-0.466 -0.008,-0.976 -0.036,-1.452 -0.029,-0.494 -0.098,-1.003 -0.232,-1.48 -0.045,-0.135 -0.083,-0.271 -0.114,-0.41 -0.012,-0.083 -0.028,-0.166 -0.047,-0.248 -0.035,-0.029 -0.054,-0.006 -0.091,-0.032 -0.046,-0.032 -0.085,-0.159 -0.156,-0.112 -0.125,0.082 -0.102,0.406 -0.122,0.53 -0.024,0.156 -0.003,0.315 -0.006,0.473 -0.005,0.254 -0.083,0.493 -0.114,0.744 -0.106,0.837 -0.271,1.666 -0.371,2.503 -0.063,0.532 -0.135,1.063 -0.176,1.597 -0.02,0.244 -0.064,0.52 -0.028,0.764 0.01,0.07 0.04,0.133 0.056,0.202 0.072,0.296 0.023,0.637 0.021,0.939 -0.002,0.634 -0.083,1.239 -0.115,1.871 -0.024,0.477 -0.029,0.958 -0.02,1.436 0.004,0.208 -0.078,0.8 -0.076,0.816 0.075,0.04 0.169,0.002 0.249,0.023 0.102,0.027 0.207,0.079 0.312,0.098 0.087,0.016 0.179,-0.015 0.265,0.002 0.071,0.014 0.237,-1.071 0.233,-1.672 -0.004,-0.527 0.013,-1.09 0.085,-1.609 0.027,-0.193 0.062,-0.385 0.079,-0.581 0.025,-0.287 0.008,-0.581 0.03,-0.87 0.053,-0.694 0.174,-1.375 0.256,-2.062 0.031,-0.258 0.056,-0.517 0.08,-0.777 0.019,-0.219 0.081,-0.475 0.038,-0.693 M -2.5,-11.775 c 10e-4,0.003 0.004,0.007 0.006,0.01 -0.003,-0.012 -0.008,-0.023 -0.02,-0.036 -0.037,-0.021 -0.063,-0.032 -0.082,-0.038 -0.014,-0.004 -0.013,0.002 -0.019,0.004 0.031,0.016 0.067,0.035 0.115,0.06 M 2.731,0.555 C 2.733,0.544 2.733,0.538 2.733,0.532 L 2.694,0.627 C 2.706,0.604 2.718,0.582 2.731,0.555 m 0.336,-3.037 c -0.03,0.185 -0.133,0.52 -0.142,0.449 0.007,-0.075 0.005,-0.193 -0.02,-0.202 l -0.032,0.169 c -0.005,10e-4 -0.01,0.003 -0.015,0.005 l -0.003,0.027 -0.216,1.148 0.125,0.84 0.009,-0.022 -0.004,0.062 0.039,0.258 C 2.816,0.242 2.821,0.217 2.817,0.166 2.843,0.242 2.848,0.292 2.849,0.329 2.823,0.377 2.801,0.405 2.785,0.498 2.784,0.517 2.79,0.511 2.799,0.497 L 2.709,0.66 C 2.736,0.632 2.741,0.707 2.776,0.598 2.684,0.921 2.524,1.073 2.523,1.21 L 2.537,1.186 C 2.388,1.495 2.429,1.357 2.379,1.386 L 2.363,1.425 2.286,1.581 2.292,1.76 2.227,1.78 C 2.208,1.823 2.17,1.909 2.195,1.902 2.087,2.047 2.189,1.866 2.115,1.944 2.069,2.116 1.918,2.354 1.874,2.488 1.865,2.529 1.863,2.564 1.876,2.581 1.812,2.644 1.926,2.366 1.815,2.585 1.871,2.68 1.702,2.844 1.665,3.054 1.729,3.009 1.777,2.815 1.74,3.025 1.625,3.117 1.611,3.412 1.535,3.572 1.525,3.569 1.514,3.577 1.497,3.606 1.418,3.689 1.286,3.946 1.145,4.149 1.154,4.147 1.124,4.208 1.076,4.299 1.026,4.392 0.959,4.517 0.894,4.636 0.855,4.68 0.817,4.723 0.782,4.763 0.749,4.801 0.719,4.837 0.693,4.867 L 0.706,4.868 C 0.625,4.865 0.436,5.076 0.283,5.216 0.314,5.235 0.35,5.218 0.44,5.149 L 0.304,5.288 C 0.258,5.308 0.208,5.344 0.116,5.43 L 0.182,5.426 0.138,5.47 C 0.122,5.484 0.106,5.5 0.1,5.504 0.034,5.589 -0.032,5.675 -0.103,5.767 -0.175,5.863 -0.247,5.968 -0.314,6.091 -0.345,6.086 -0.311,5.957 -0.354,5.961 l -0.1,0.15 c 0.015,0.003 0.036,-0.007 0.067,-0.043 -0.02,0.023 -0.076,0.079 -0.102,0.135 l 0.11,-0.096 c -0.07,0.135 -0.07,0.048 -0.135,0.151 0.029,0.016 -0.03,0.087 0.001,0.087 C -0.494,6.321 -0.466,6.25 -0.429,6.218 -0.457,6.264 -0.486,6.314 -0.51,6.362 -0.537,6.417 -0.562,6.468 -0.581,6.507 -0.603,6.529 -0.624,6.551 -0.63,6.562 -0.631,6.54 -0.656,6.527 -0.739,6.583 -0.948,6.735 -0.787,6.667 -0.898,6.77 c -0.064,0.02 -0.183,0.136 -0.215,0.1 -0.061,0.046 -0.059,0.072 -0.074,0.1 -0.041,0.021 -0.111,0.069 -0.183,0.119 -0.036,0.025 -0.072,0.05 -0.105,0.072 -0.039,0.026 -0.074,0.049 -0.101,0.066 -0.08,0.017 -0.097,0.012 -0.048,-0.02 l 0.032,-0.012 0.007,-0.006 -0.007,0.004 -0.019,0.004 c -0.208,0.04 -0.39,0.097 -0.586,0.163 -0.096,0.033 -0.192,0.067 -0.287,0.099 L -2.627,7.507 C -2.669,7.52 -2.711,7.533 -2.752,7.546 -2.783,7.574 -2.814,7.602 -2.845,7.63 l 0.012,0.012 c -0.199,0.168 -0.422,0.395 -0.579,0.5 -0.055,0.054 -0.11,0.148 -0.073,0.138 -0.064,0.055 -0.107,0.092 -0.148,0.127 -0.117,0.005 -0.184,0.01 -0.364,0.045 0.201,0.008 -0.067,0.031 0.205,0 -0.255,0.039 -0.311,0.07 -0.591,0.053 0.098,0.032 -0.189,0.071 -0.312,0.07 L -4.518,8.528 C -4.64,8.534 -4.763,8.549 -4.857,8.561 L -4.88,8.568 c 0.014,0.005 0.021,0.013 0.027,0.02 0.006,0.009 0.012,0.018 0.027,0.026 C -4.84,8.617 -4.845,8.618 -4.847,8.62 -4.848,8.622 -4.864,8.627 -4.88,8.633 l -0.045,0.014 c -0.03,0.009 -0.06,0.017 -0.089,0.026 -0.059,0.015 -0.117,0.028 -0.174,0.039 -0.115,0.022 -0.227,0.037 -0.334,0.052 -0.215,0.034 -0.418,0.058 -0.588,0.175 -0.143,0.005 0.266,-0.112 0.135,-0.118 -0.23,0.08 -0.449,0.231 -0.52,0.254 -0.144,0.06 -0.222,0.067 -0.299,0.071 -0.038,0.002 -0.076,0.003 -0.121,0.009 -0.022,0.003 -0.047,0.008 -0.074,0.014 -0.03,0.007 -0.048,0.012 -0.104,0.03 C -7.113,9.201 -7.14,9.204 -7.17,9.207 -7.126,9.184 -7.088,9.13 -7.349,9.13 -7.592,9.155 -7.642,9.233 -7.487,9.237 -7.429,9.235 -7.401,9.226 -7.404,9.22 c 0.078,10e-4 0.182,0.002 0.087,0.03 L -7.349,9.233 C -7.468,9.262 -7.802,9.284 -7.722,9.31 -7.906,9.304 -7.802,9.284 -7.667,9.264 -7.786,9.283 -7.886,9.293 -7.981,9.3 -8.085,9.307 -8.184,9.314 -8.296,9.322 -8.333,9.314 -8.372,9.305 -8.413,9.296 -8.446,9.289 -8.48,9.283 -8.517,9.276 -8.465,9.277 -8.414,9.266 -8.463,9.254 -8.926,9.167 -8.656,9.17 -8.964,9.086 -9.147,9.072 -8.918,9.17 -9.224,9.07 -9.419,9.043 -9.276,9.11 -9.204,9.144 -9.294,9.109 -9.397,9.083 -9.467,9.07 -9.624,9.055 -9.787,9.059 -9.893,9.048 l 0.15,0.038 C -9.833,9.064 -9.908,9.053 -9.984,9.041 l 0.093,-0.025 c -0.09,-0.007 -0.166,-0.018 -0.167,-0.002 -0.088,-0.039 0.08,-0.053 -0.098,-0.115 -0.122,0.002 -0.36,-0.075 -0.409,-0.03 0.378,0.039 -0.049,0.045 0.267,0.101 -0.06,-0.016 -0.135,-0.027 -0.225,-0.033 -0.015,0.003 0.011,0.012 0.035,0.019 -0.043,-0.002 -0.076,-0.004 -0.103,-0.005 0.003,10e-4 -0.011,10e-4 -0.022,0 -0.011,0 -0.02,-0.001 -0.029,-0.002 -0.018,-0.002 -0.032,-0.005 -0.044,-0.008 -0.024,-0.007 -0.04,-0.016 -0.06,-0.026 -0.039,-0.02 -0.094,-0.042 -0.257,-0.047 0.046,0.031 -0.09,0.051 -0.151,0.043 0.152,0.005 0.075,-0.046 -0.064,-0.073 -0.242,0.013 -0.261,-0.027 -0.387,-0.029 l 0.144,-0.005 c -0.022,-0.015 -0.06,-0.022 -0.112,-0.028 -0.055,-0.006 -0.104,-0.009 -0.216,-0.017 -0.01,-0.007 -0.022,-0.016 -0.035,-0.024 -0.008,0.003 0.006,0.017 0.029,0.034 -0.024,-0.017 -0.049,-0.034 -0.075,-0.05 -0.021,-0.013 -0.041,-0.023 -0.063,-0.034 -0.043,-0.022 -0.09,-0.043 -0.138,-0.065 -0.096,-0.043 -0.197,-0.091 -0.288,-0.166 -0.112,-0.047 -0.038,0.04 -0.135,-0.004 -0.088,-0.072 -0.151,-0.108 -0.209,-0.136 -0.05,-0.023 -0.094,-0.044 -0.155,-0.072 L -12.865,8.241 C -12.877,8.237 -12.89,8.233 -12.904,8.229 -12.931,8.22 -12.961,8.21 -12.995,8.196 c 0.096,-0.013 0.108,0 -0.09,-0.095 l 0.136,0.046 0.068,0.024 0.034,0.011 0.013,0.006 c 0.004,0.005 0.043,0.031 0.071,0.051 l 0.089,0.062 -0.082,-0.073 c -0.027,-0.024 -0.061,-0.053 -0.067,-0.064 -0.008,-0.009 -0.048,-0.027 -0.08,-0.042 0.033,0.009 0.074,0.022 0.086,0.027 0.044,0.032 0.087,0.064 0.126,0.092 0.043,0.031 0.082,0.058 0.113,0.074 -0.114,-0.108 -0.106,-0.092 -0.027,-0.081 -0.04,-0.011 -0.077,-0.028 -0.112,-0.047 C -12.75,8.169 -12.791,8.141 -12.807,8.128 -12.834,8.117 -12.86,8.107 -12.888,8.096 -12.919,8.084 -12.95,8.072 -12.982,8.06 -13.047,8.037 -13.115,8.017 -13.19,8.009 l -0.019,0.095 C -13.343,8.083 -13.461,8.047 -13.58,8.004 -13.639,7.982 -13.699,7.96 -13.761,7.937 -13.827,7.913 -13.872,7.895 -13.997,7.856 -14.039,7.809 -14.084,7.76 -14.13,7.709 -14.167,7.669 -14.208,7.628 -14.251,7.586 l 0.116,0.099 c -0.016,-0.072 -0.196,-0.215 -0.289,-0.336 -0.014,0.032 -0.087,-0.029 -0.147,-0.062 0.024,-0.01 -0.24,-0.251 -0.218,-0.322 l -0.023,-0.011 c -0.021,0.003 -0.09,-0.016 -0.142,-0.027 -0.353,-0.141 -0.357,-0.262 -0.694,-0.402 0.086,0.077 -0.075,0.029 0.138,0.153 -0.112,-0.05 -0.214,-0.09 -0.206,-0.111 -0.018,-0.002 -0.044,-0.014 -0.074,-0.03 -0.04,-0.022 -0.087,-0.048 -0.137,-0.075 -0.03,-0.051 -0.061,-0.103 -0.09,-0.151 -0.023,-0.038 -0.047,-0.07 -0.07,-0.089 -0.017,-0.051 0.001,-0.084 -0.078,-0.195 -0.014,-0.008 -0.013,0.01 -0.013,0.01 0.013,-0.01 -0.103,-0.189 -0.007,-0.111 -0.148,-0.125 -0.291,-0.344 -0.437,-0.554 -0.151,-0.206 -0.297,-0.409 -0.43,-0.514 -0.076,-0.109 -0.16,-0.23 -0.237,-0.34 -0.098,-0.112 -0.188,-0.213 -0.266,-0.301 0.004,0.018 -0.011,0.011 0.022,0.043 -0.247,-0.225 -0.07,-0.214 -0.351,-0.47 -0.17,-0.107 0.115,0.167 0.019,0.092 -0.031,0.009 -0.067,-0.013 -0.108,-0.052 -0.02,-0.019 -0.042,-0.043 -0.065,-0.07 -0.028,-0.035 -0.06,-0.072 -0.093,-0.111 -0.027,-0.112 -0.035,-0.158 -0.055,-0.228 -0.019,-0.065 -0.041,-0.127 -0.071,-0.179 l 0.011,0.061 c -0.088,-0.178 -0.092,-0.469 -0.186,-0.773 0,0 -0.005,0.018 -0.015,0.006 -0.001,-0.019 -0.002,-0.037 -0.001,-0.048 0,-0.01 -0.012,-0.044 -0.023,-0.073 -0.012,-0.03 -0.024,-0.062 -0.037,-0.095 -0.027,-0.065 -0.058,-0.135 -0.091,-0.206 -0.066,-0.142 -0.138,-0.289 -0.201,-0.415 0.01,0.103 0.048,0.132 -0.017,0.101 -0.061,-0.123 0.079,0.003 -0.043,-0.243 -0.026,-0.028 -0.057,-0.065 -0.101,-0.123 -0.006,-0.023 -0.012,-0.047 -0.018,-0.069 -0.005,-0.018 -0.011,-0.035 -0.018,-0.05 -0.012,-0.03 -0.025,-0.052 -0.039,-0.058 l 0.016,0.195 0.055,0.101 c -0.021,-0.012 -0.05,-0.05 -0.078,-0.094 -0.004,-0.023 -0.007,-0.048 -0.01,-0.073 l -0.004,-0.054 c -0.002,-0.033 -0.002,-0.067 -0.001,-0.1 0,-0.067 0.002,-0.132 -0.007,-0.186 l -0.024,0.02 C -19.115,0.68 -19.055,0.652 -19.091,0.26 -19.092,0.258 -19.093,0.254 -19.095,0.25 l 0.011,0.009 c 0.004,0.006 0.009,0.01 0.013,0.019 0.002,-0.009 0.005,-0.017 0.006,-0.022 -0.004,-0.198 -0.085,-0.159 -0.099,-0.383 l -0.08,-0.051 c -0.022,-0.133 -0.064,-0.432 -0.115,-0.686 -0.004,-0.048 -0.008,-0.088 -0.012,-0.127 -0.005,0.037 -0.009,0.073 -0.008,0.131 0.015,0.176 0.055,0.399 0.074,0.558 -0.035,-0.131 -0.106,-0.408 -0.12,-0.548 -0.002,-0.031 0.001,-0.039 0.003,-0.051 0.001,0.016 0.001,0.032 0.002,0.05 0.011,0.065 0.015,0.112 0.036,0.159 -0.001,-0.052 -0.001,-0.098 -0.009,-0.165 0.002,-0.173 -0.012,-0.359 -0.047,-0.584 -0.036,0.023 -0.065,-0.047 -0.09,-0.159 -0.013,-0.056 -0.025,-0.123 -0.037,-0.194 -0.014,-0.079 -0.027,-0.162 -0.041,-0.243 0.008,-0.051 0.016,-0.1 0.024,-0.148 0.006,-0.041 0.01,-0.08 0.014,-0.116 0.006,-0.073 0.007,-0.136 -0.003,-0.178 0.035,-0.121 0.063,-0.243 0.088,-0.366 0.012,-0.062 0.024,-0.123 0.035,-0.186 l 0.017,-0.094 c 0.004,-0.027 0.012,-0.075 0.012,-0.077 -0.009,-0.141 -0.017,-0.285 -0.026,-0.433 -0.008,-0.155 -0.014,-0.315 -0.016,-0.481 0.102,0.219 -10e-4,-0.183 0.1,-0.146 0,-0.049 0.001,-0.089 0.001,-0.119 0.013,-0.047 0.017,-0.068 0.021,-0.085 0.003,-0.016 0.004,-0.026 0.003,-0.031 l -0.004,0.031 c 0.002,-0.014 0.002,-0.021 0.003,-0.032 h 10e-4 l 0.049,-0.442 c -0.002,-0.109 -0.055,0.129 -0.073,0.111 0.07,-0.311 -0.009,-0.141 0.017,-0.352 0.024,0.051 0.076,-0.095 0.107,-0.274 l -0.017,0.259 c 0.034,-0.089 0.054,-0.158 0.066,-0.216 0.006,-0.029 0.01,-0.055 0.013,-0.079 0.004,-0.028 0.002,-0.036 0.008,-0.079 0.008,-0.027 0.01,-0.04 0.012,-0.054 l 0.007,-0.042 c 0.005,-0.029 0.011,-0.059 0.02,-0.092 0.019,-0.067 0.05,-0.148 0.112,-0.262 l -0.082,0.12 c 0.102,-0.207 0.31,-0.792 0.469,-0.972 0.005,-0.042 -0.001,-0.102 -0.045,-0.011 0.054,-0.144 0.119,-0.295 0.188,-0.445 0.073,-0.157 0.146,-0.315 0.216,-0.467 0.042,-0.055 0.084,-0.11 0.125,-0.164 0.036,-0.049 0.071,-0.096 0.104,-0.142 0.067,-0.094 0.124,-0.183 0.169,-0.266 l -0.044,0.02 c 0.065,-0.08 0.141,-0.12 0.194,-0.239 -0.012,-10e-4 -0.044,0.02 -0.017,-0.02 0.012,-0.013 0.035,-0.038 0.064,-0.069 0.014,-0.016 0.03,-0.033 0.046,-0.052 l 0.025,-0.029 0.04,-0.051 c 0.031,-0.023 0.063,-0.045 0.093,-0.068 0.023,-0.017 0.045,-0.035 0.063,-0.052 l -0.109,0.049 c 0.401,-0.354 0.697,-0.44 1.053,-0.715 -0.047,-0.055 0.252,-0.351 0.401,-0.498 l -0.013,-0.003 c 0.218,-0.196 0.414,-0.356 0.607,-0.512 0.098,-0.076 0.194,-0.152 0.292,-0.229 0.049,-0.039 0.099,-0.078 0.149,-0.118 0.025,-0.02 0.051,-0.041 0.076,-0.061 0.029,-0.024 0.058,-0.048 0.087,-0.072 0.026,-0.015 0.055,-0.032 0.085,-0.05 0.158,-0.161 0.522,-0.399 0.859,-0.624 0.181,-0.148 0.389,-0.32 0.544,-0.466 -0.061,0.066 0.046,0.035 0.131,-0.024 0.043,-0.043 0.111,-0.086 0.169,-0.125 0.029,-0.019 0.055,-0.037 0.074,-0.053 0.015,-0.012 0.044,-0.04 0.045,-0.052 0.004,-0.007 0.003,-0.013 -0.005,-0.017 l -0.004,0.002 -0.051,0.042 c 10e-4,-0.011 0.02,-0.034 0.04,-0.058 0.056,-0.038 0.073,-0.053 0.113,-0.077 0.037,-0.023 0.079,-0.045 0.123,-0.067 0.089,-0.042 0.186,-0.089 0.272,-0.13 l 0.07,0.063 c 0.071,-0.055 0.153,-0.108 0.241,-0.158 0.044,-0.025 0.09,-0.049 0.137,-0.073 0.059,-0.029 0.118,-0.057 0.177,-0.086 l 0.218,-0.008 c 0.061,-10e-4 0.121,-0.002 0.18,-0.003 0.118,-10e-4 0.234,-0.003 0.34,-0.004 0.107,-0.003 0.205,-0.007 0.29,-0.017 0.043,-0.005 0.082,-0.01 0.117,-0.018 0.034,-0.008 0.072,-0.017 0.068,-0.026 v 0 c -0.002,0.006 0.048,-0.005 0.081,-0.013 0.036,-0.008 0.073,-0.017 0.111,-0.026 0.074,-0.018 0.148,-0.036 0.215,-0.047 l -0.021,-0.041 c 0.133,-0.047 0.242,-0.085 0.352,-0.123 0.055,-0.019 0.111,-0.038 0.17,-0.057 0.066,-0.021 0.135,-0.043 0.213,-0.068 0.066,-0.007 0.176,-0.018 0.305,-0.032 l -0.099,-0.021 c 0.263,-0.036 0.349,0.091 0.592,0.064 l 0.065,-0.077 0.171,-0.024 0.206,-0.031 0.292,0.061 0.257,0.057 c 0.17,0.04 0.338,0.088 0.499,0.152 -0.004,-0.012 -0.012,-0.034 -0.085,-0.055 0.217,0.037 0.825,0.201 0.723,0.263 0.011,-0.027 0.109,10e-4 0.235,0.048 0.063,0.024 0.132,0.053 0.201,0.082 0.034,0.015 0.068,0.03 0.101,0.044 0.016,0.007 0.033,0.014 0.048,0.021 l 0.024,0.01 0.01,0.007 c 0.005,0.002 0.033,0.009 0.05,0.013 l -0.032,-0.05 c 0.201,0.086 0.205,0.103 0.495,0.159 0.07,0.004 0.066,-0.027 -0.028,-0.028 0.234,0.008 0.174,0.067 0.457,0.082 l -0.1,-0.043 c 0.237,0.029 0.216,0.042 0.342,0.093 0.147,0.039 0.452,0.052 0.492,0.016 0.029,0.03 0.154,0.081 0.295,0.089 0.021,-0.013 -0.028,-0.03 -0.053,-0.038 0.086,0.006 0.162,0.015 0.231,0.026 0.034,0.006 0.066,0.012 0.098,0.018 0.042,0.008 0.083,0.016 0.122,0.024 0.067,0.063 0.128,0.12 0.188,0.177 0.054,0.048 0.111,0.092 0.18,0.132 0.014,-0.008 0.033,-0.002 0.053,0.009 -0.18,-0.147 -0.337,-0.275 -0.412,-0.336 -0.048,-0.006 -0.077,-0.01 -0.085,-0.01 0.004,-0.013 0.046,-0.017 0.097,-0.019 0.08,0.042 0.203,0.122 0.031,-0.069 -0.001,-10e-4 -0.004,-0.002 -0.007,-0.003 0.002,10e-4 0.004,10e-4 0.007,0.002 0.033,0.033 0.07,0.069 0.108,0.107 0.02,0.023 0.041,0.047 0.063,0.072 0.045,0.049 0.093,0.102 0.142,0.156 0.099,0.107 0.207,0.212 0.309,0.283 0.012,0.005 0.023,0.009 0.034,0.01 l -0.016,-0.02 c 0.047,0.034 0.084,0.07 0.117,0.106 0.065,0.045 0.11,0.076 0.166,0.121 0.005,-0.003 0.009,-0.004 0.014,-0.004 0.004,-10e-4 0.006,-0.002 0.011,-10e-4 0.013,0.005 0.027,0.01 0.042,0.016 0.029,0.013 0.062,0.028 0.096,0.044 0.067,0.032 0.138,0.067 0.187,0.091 -0.029,0.037 0.125,0.102 -0.033,0.069 0.02,0.005 -0.019,-0.016 -0.096,-0.054 -0.016,-0.009 -0.037,-0.02 -0.047,-0.027 0.002,0.002 0.004,0.004 0.006,0.007 l -0.197,-0.096 -0.049,-0.041 c 0.017,0.022 0.035,0.044 0.04,0.055 0.008,0.011 0.057,0.04 0.093,0.057 0.039,0.02 0.083,0.037 0.134,0.051 0.047,0.055 0.1,0.113 0.131,0.143 0.185,0.017 0.506,0.13 0.565,0.115 0.025,0.013 0.051,0.027 0.077,0.042 0.03,0.016 0.061,0.032 0.093,0.049 0.076,0.056 0.155,0.115 0.234,0.173 0.074,0.057 0.148,0.113 0.218,0.167 0.138,0.109 0.256,0.214 0.322,0.304 0.09,0.074 0.112,0.046 0.17,0.069 -0.064,-0.054 -0.116,-0.088 -0.142,-0.12 0.023,0.018 0.049,0.038 0.077,0.06 0.034,0.026 0.072,0.054 0.11,0.082 0.032,0.054 0.065,0.11 0.098,0.164 0.026,0.047 0.052,0.093 0.075,0.134 0.044,0.083 0.072,0.15 0.064,0.179 0.174,0.221 -0.038,-0.163 0.161,0.166 l -0.012,-0.053 c 0.122,0.146 0.216,0.289 0.297,0.431 0.086,0.139 0.159,0.277 0.235,0.418 0.153,0.28 0.306,0.574 0.61,0.871 -0.04,-0.042 -0.061,-0.063 -0.076,-0.067 0.185,0.221 0.365,0.461 0.535,0.694 0.128,0.155 0.257,0.309 0.386,0.464 l 0.195,0.233 0.213,0.247 0.04,0.229 0.039,0.204 c 0.028,0.134 0.058,0.268 0.092,0.399 0.024,0.106 0.033,0.175 0.035,0.23 10e-4,0.028 10e-4,0.053 -10e-4,0.077 l -0.002,0.036 c -0.002,0.008 -0.003,0.017 -0.005,0.026 10e-4,0.008 10e-4,0.016 0.002,0.026 0.004,0.013 0.007,0.027 0.011,0.042 l 0.07,0.031 0.071,0.277 c 0.047,0.131 0.111,0.239 0.18,0.346 0.035,0.052 0.071,0.105 0.107,0.16 0.018,0.027 0.036,0.055 0.055,0.084 L 2.934,-4.5 2.97,-4.435 c 0.005,0.037 0.011,0.074 0.017,0.113 0.004,0.032 0.008,0.064 0.01,0.098 0.005,0.068 0.007,0.14 0.004,0.217 L 2.96,-4.068 c 0.027,0.179 0.045,0.571 0.08,0.537 -0.004,0.019 -0.028,0.063 -0.003,0.131 l 0.026,0.003 0.004,0.178 -0.058,0.28 c -0.019,0.344 0.107,-0.043 0.058,0.457"
             style="fill:#050606;fill-opacity:1;fill-rule:nonzero;stroke:none"
             id="path751" />
        </g>
        <g
           id="g753"
           transform="translate(50.6454,447.697)">
          <path
             d="M 0,0 C -0.047,-0.053 -0.091,-0.087 -0.126,-0.148 -0.16,-0.207 -0.179,-0.279 -0.219,-0.334 -0.349,-0.515 -0.492,-0.692 -0.541,-0.911 -0.594,-1.143 -0.75,-1.336 -0.84,-1.555 -0.899,-1.699 -0.985,-1.771 -1.087,-1.883 -1.202,-2.011 -1.284,-2.157 -1.42,-2.267 c -0.056,-0.046 -0.084,-0.07 -0.129,-0.128 -0.083,-0.106 -0.134,-0.163 -0.249,-0.067 -0.14,0.117 -0.262,0.275 -0.383,0.411 -0.171,0.193 -0.366,0.361 -0.539,0.555 -0.181,0.204 -0.383,0.393 -0.575,0.587 -0.194,0.195 -0.381,0.401 -0.585,0.586 -0.111,0.1 -0.227,0.19 -0.338,0.285 -0.041,-0.111 -0.081,-0.222 -0.123,-0.334 -0.088,-0.231 -0.172,-0.422 -0.211,-0.668 -0.015,-0.096 -0.025,-0.191 -0.033,-0.285 0.076,-0.034 0.149,-0.072 0.212,-0.098 0.102,-0.042 0.209,-0.101 0.314,-0.131 0.045,-0.013 0.085,-0.003 0.12,-0.04 -0.123,-0.029 -0.279,-0.121 -0.388,-0.187 -0.087,-0.053 -0.174,-0.109 -0.26,-0.167 0.016,-0.096 0.047,-0.189 0.107,-0.275 0.096,-0.138 0.223,-0.262 0.335,-0.385 0.123,-0.133 0.251,-0.259 0.373,-0.393 0.076,-0.085 0.134,-0.173 0.218,-0.251 0.102,-0.095 0.183,-0.181 0.27,-0.292 0.16,-0.202 0.376,-0.369 0.557,-0.55 0.092,-0.092 0.249,-0.186 0.363,-0.243 0.118,-0.059 0.237,-0.049 0.361,-0.067 0.091,-0.012 0.18,-0.032 0.269,-0.048 0.129,0.273 0.152,0.603 0.316,0.866 0.043,-0.017 0.114,-0.067 0.147,-0.101 0.04,-0.042 0.056,-0.132 0.077,-0.184 0.044,-0.101 0.101,-0.196 0.143,-0.297 0.03,-0.07 0.044,-0.148 0.067,-0.221 0.003,-0.008 0.013,-0.028 0.024,-0.05 0.01,0.002 0.02,0.002 0.031,0.004 0.083,0.012 0.134,-0.004 0.215,0.037 0.046,0.024 0.083,0.058 0.132,0.076 0.085,0.032 0.131,0.02 0.215,0.078 0.041,0.028 0.085,0.06 0.123,0.094 0.251,0.225 0.517,0.524 0.692,0.81 0.11,0.179 0.169,0.385 0.258,0.578 0.081,0.176 0.167,0.35 0.244,0.529 0.075,0.174 0.18,0.351 0.22,0.536 0.014,0.063 0.023,0.125 0.03,0.186 -0.189,-0.025 -0.382,-0.047 -0.56,-0.001 -0.007,0.076 0.125,0.196 0.174,0.256 0.11,0.137 0.228,0.292 0.397,0.335 0.004,0.001 0.009,0.002 0.014,0.003 0.003,0.097 0.004,0.193 -0.013,0.284 C 1.184,-0.481 1.126,-0.326 1.089,-0.175 1.05,-0.017 0.962,0.117 0.893,0.264 0.815,0.432 0.747,0.607 0.652,0.766 0.644,0.78 0.634,0.793 0.626,0.806 0.54,0.692 0.454,0.578 0.368,0.465 0.25,0.309 0.129,0.146 0,0"
             style="fill:#050606;fill-opacity:1;fill-rule:nonzero;stroke:none"
             id="path755" />
        </g>
        <g
           id="g757"
           transform="translate(47.2617,447.774)">
          <path
             d="M 0,0 C 0.079,-0.079 0.171,-0.153 0.236,-0.244 0.29,-0.321 0.32,-0.389 0.394,-0.45 0.599,-0.621 0.795,-0.814 1.016,-0.965 1.133,-1.044 1.274,-1.11 1.353,-1.226 c 0.075,-0.111 0.094,-0.105 0.23,-0.105 0.087,-0.001 0.191,0.017 0.272,0.043 0.155,0.05 0.18,0.232 0.256,0.352 0.053,0.084 0.131,0.146 0.201,0.216 0.052,0.051 0.102,0.104 0.145,0.163 0.066,0.09 0.107,0.189 0.144,0.293 C 2.716,0.053 2.869,0.382 3.094,0.637 3.175,0.731 3.273,0.791 3.351,0.892 3.417,0.98 3.479,1.071 3.544,1.159 3.508,1.173 3.468,1.188 3.421,1.209 3.281,1.273 3.185,1.326 3.022,1.335 2.855,1.345 2.69,1.377 2.521,1.375 2.352,1.373 2.224,1.394 2.063,1.439 2.062,1.437 2.061,1.434 2.06,1.432 2.017,1.336 1.986,1.25 1.961,1.148 1.953,1.116 1.937,1.002 1.906,0.983 1.822,0.929 1.774,1.087 1.743,1.148 1.659,1.31 1.564,1.46 1.482,1.619 1.29,1.655 1.106,1.66 0.908,1.66 0.615,1.66 0.166,1.377 0.118,1.328 -0.031,1.176 -0.152,1.01 -0.285,0.846 -0.373,0.738 -0.461,0.625 -0.54,0.507 -0.519,0.48 -0.498,0.453 -0.473,0.428 -0.323,0.28 -0.151,0.151 0,0"
             style="fill:#050606;fill-opacity:1;fill-rule:nonzero;stroke:none"
             id="path759" />
        </g>
        <g
           id="g761"
           transform="translate(45.6228,460.198)">
          <path
             d="m 0,0 c -0.002,0 -0.003,0 -0.005,-0.001 -0.001,0 -0.002,-0.001 -0.003,-0.002 0.001,0.001 0.002,0.002 0.003,0.002 C -0.003,-0.001 -0.002,0 0,0"
             style="fill:#050606;fill-opacity:1;fill-rule:nonzero;stroke:none"
             id="path763" />
        </g>
        <g
           id="g765"
           transform="translate(55.0085,439.746)">
          <path
             d="M 0,0 C 0.011,0.006 0.016,0.011 0.03,0.018 0.013,0.014 -0.003,0.01 -0.02,0.006 -0.027,-0.003 -0.035,-0.012 -0.041,-0.02 -0.027,-0.013 -0.013,-0.006 0,0"
             style="fill:#050606;fill-opacity:1;fill-rule:nonzero;stroke:none"
             id="path767" />
        </g>
        <g
           id="g769"
           transform="translate(55.7731,458.638)">
          <path
             d="M 0,0 C 0.011,-0.005 0.021,-0.01 0.026,-0.015 0.018,-0.01 0.019,-0.008 0.013,-0.005 Z"
             style="fill:#050606;fill-opacity:1;fill-rule:nonzero;stroke:none"
             id="path771" />
        </g>
        <g
           id="g773"
           transform="translate(59.5973,453.462)">
          <path
             d="m 0,0 c -0.137,0.4 0.002,-0.095 -0.183,0.3 l 0.134,-0.305 C -0.058,0.055 -0.071,0.134 0,0"
             style="fill:#050606;fill-opacity:1;fill-rule:nonzero;stroke:none"
             id="path775" />
        </g>
        <g
           id="g777"
           transform="translate(59.0967,454.726)">
          <path
             d="M 0,0 C -0.055,0.1 -0.069,0.124 -0.036,-0.006 0.035,-0.17 -0.013,0.005 0,0"
             style="fill:#050606;fill-opacity:1;fill-rule:nonzero;stroke:none"
             id="path779" />
        </g>
        <g
           id="g781"
           transform="translate(53.883,459.771)">
          <path
             d="M 0,0 0.042,0.017 C -0.1,0.147 0.035,0.002 0,0"
             style="fill:#050606;fill-opacity:1;fill-rule:nonzero;stroke:none"
             id="path783" />
        </g>
        <g
           id="g785"
           transform="translate(51.7179,460.279)">
          <path
             d="M 0,0 -0.225,0.041 -0.06,0.009 Z"
             style="fill:#050606;fill-opacity:1;fill-rule:nonzero;stroke:none"
             id="path787" />
        </g>
        <g
           id="g789"
           transform="translate(40.4914,456.544)">
          <path
             d="M 0,0 0.066,0.003 C 0.115,0.082 0.08,0.132 0,0"
             style="fill:#050606;fill-opacity:1;fill-rule:nonzero;stroke:none"
             id="path791" />
        </g>
        <g
           id="g793"
           transform="translate(38.2773,451.649)">
          <path
             d="m 0,0 c 0.005,0.016 0.01,0.03 0.014,0.042 0,0.009 0,0.016 0,0.021 C 0.01,0.054 0.007,0.051 0.003,0.044 -0.003,0.041 -0.012,0.024 -0.022,0.001 c -0.009,-0.02 -0.017,-0.043 -0.025,-0.067 -0.015,-0.048 -0.025,-0.098 -0.025,-0.14 0.015,0.05 0.033,0.099 0.049,0.143 C -0.015,-0.04 -0.007,-0.019 0,0"
             style="fill:#050606;fill-opacity:1;fill-rule:nonzero;stroke:none"
             id="path795" />
        </g>
        <g
           id="g797"
           transform="translate(45.12,438.561)">
          <path
             d="M 0,0 0.191,-0.075 0.105,-0.031 Z"
             style="fill:#050606;fill-opacity:1;fill-rule:nonzero;stroke:none"
             id="path799" />
        </g>
      </g>
    </g>
  </g>
</svg>
