<?xml version="1.0" encoding="UTF-8" standalone="no"?>
<!-- Created with Inkscape (http://www.inkscape.org/) -->

<svg
   width="23.485857"
   height="24"
   viewBox="0 0 6.2139662 6.35"
   version="1.1"
   id="svg2346"
   inkscape:version="1.2.1 (9c6d41e4, 2022-07-14)"
   sodipodi:docname="return_to_the_gathering.svg"
   xmlns:inkscape="http://www.inkscape.org/namespaces/inkscape"
   xmlns:sodipodi="http://sodipodi.sourceforge.net/DTD/sodipodi-0.dtd"
   xmlns="http://www.w3.org/2000/svg"
   xmlns:svg="http://www.w3.org/2000/svg">
  <sodipodi:namedview
     id="namedview2348"
     pagecolor="#505050"
     bordercolor="#eeeeee"
     borderopacity="1"
     inkscape:showpageshadow="0"
     inkscape:pageopacity="0"
     inkscape:pagecheckerboard="0"
     inkscape:deskcolor="#505050"
     inkscape:document-units="mm"
     showgrid="false"
     inkscape:zoom="0.70199214"
     inkscape:cx="74.074903"
     inkscape:cy="18.518726"
     inkscape:window-width="1390"
     inkscape:window-height="938"
     inkscape:window-x="0"
     inkscape:window-y="25"
     inkscape:window-maximized="0"
     inkscape:current-layer="layer1" />
  <defs
     id="defs2343">
    <clipPath
       clipPathUnits="userSpaceOnUse"
       id="clipPath475">
      <path
         d="m 37.363,467.039 h 23.529 v 23.529 H 37.363 Z"
         id="path473" />
    </clipPath>
  </defs>
  <g
     inkscape:label="Layer 1"
     inkscape:groupmode="layer"
     id="layer1"
     transform="translate(-85.726753,-143.68285)">
    <g
       id="g469"
       transform="matrix(0.27565237,0,0,-0.27565237,75.291371,278.841)">
      <g
         id="g471"
         clip-path="url(#clipPath475)">
        <g
           id="g477"
           transform="translate(49.9239,489.909)">
          <path
             d="M 0,0 C 0.048,-0.002 0.068,0.002 0.07,0.007 0.026,0.006 -0.01,0.005 0,0"
             style="fill:#050606;fill-opacity:1;fill-rule:nonzero;stroke:none"
             id="path479" />
        </g>
        <g
           id="g481"
           transform="translate(48.9575,490.063)">
          <path
             d="M 0,0 C -0.022,0.01 -0.045,0.018 -0.06,0.017 -0.038,0.011 -0.02,0.006 0,0"
             style="fill:#050606;fill-opacity:1;fill-rule:nonzero;stroke:none"
             id="path483" />
        </g>
        <g
           id="g485"
           transform="translate(55.6207,487.834)">
          <path
             d="M 0,0 -0.133,0.102 C -0.151,0.093 -0.067,0.046 0,0"
             style="fill:#050606;fill-opacity:1;fill-rule:nonzero;stroke:none"
             id="path487" />
        </g>
        <g
           id="g489"
           transform="translate(57.8219,486.18)">
          <path
             d="M 0,0 0.032,-0.039 C 0.046,-0.047 0.061,-0.053 0.076,-0.058 Z"
             style="fill:#050606;fill-opacity:1;fill-rule:nonzero;stroke:none"
             id="path491" />
        </g>
        <g
           id="g493"
           transform="translate(58.9229,484.466)">
          <path
             d="m 0,0 c 0.03,-0.014 0.054,-0.041 0.078,-0.076 0.007,0.004 0.014,0.015 0.018,0.035 C 0.074,0.002 0.027,-0.006 0,0"
             style="fill:#050606;fill-opacity:1;fill-rule:nonzero;stroke:none"
             id="path495" />
        </g>
        <g
           id="g497"
           transform="translate(60.2141,481.341)">
          <path
             d="M 0,0 0.036,-0.048 C 0.026,-0.035 0.011,-0.015 0,0"
             style="fill:#050606;fill-opacity:1;fill-rule:nonzero;stroke:none"
             id="path499" />
        </g>
        <g
           id="g501"
           transform="translate(56.7348,487.314)">
          <path
             d="m 0,0 c -0.003,-0.004 0.003,-0.013 0.015,-0.025 0,0 0,-10e-4 0.001,-0.003 0,0.001 0,0.002 -0.001,0.003 C 0.015,-0.017 0.008,-0.008 0,0"
             style="fill:#050606;fill-opacity:1;fill-rule:nonzero;stroke:none"
             id="path503" />
        </g>
        <g
           id="g505"
           transform="translate(60.2495,478.803)">
          <path
             d="M 0,0 0.003,-0.034 C 0.011,-0.037 0.02,-0.041 0.028,-0.041 Z"
             style="fill:#050606;fill-opacity:1;fill-rule:nonzero;stroke:none"
             id="path507" />
        </g>
        <g
           id="g509"
           transform="translate(46.9115,490.15)">
          <path
             d="M 0,0 C 0.004,0 0.005,0 0.009,0.001 0.058,0.016 0.03,0.009 0,0"
             style="fill:#050606;fill-opacity:1;fill-rule:nonzero;stroke:none"
             id="path511" />
        </g>
        <g
           id="g513"
           transform="translate(38.0033,476.482)">
          <path
             d="M 0,0 C 0.013,0.207 0.099,-0.319 0.101,-0.011 0.086,-0.042 -0.006,0.255 0,0"
             style="fill:#050606;fill-opacity:1;fill-rule:nonzero;stroke:none"
             id="path515" />
        </g>
        <g
           id="g517"
           transform="translate(42.8886,488.142)">
          <path
             d="m 0,0 c -0.004,0.003 -0.016,0 -0.048,-0.014 0.012,0 0.03,0.007 0.048,0.014"
             style="fill:#050606;fill-opacity:1;fill-rule:nonzero;stroke:none"
             id="path519" />
        </g>
        <g
           id="g521"
           transform="translate(45.8493,489.607)">
          <path
             d="M 0,0 -0.077,-0.03 C -0.046,-0.019 -0.021,-0.009 0,0"
             style="fill:#050606;fill-opacity:1;fill-rule:nonzero;stroke:none"
             id="path523" />
        </g>
        <g
           id="g525"
           transform="translate(41.329,487.047)">
          <path
             d="M 0,0 C 0.005,0.003 0.01,0.007 0.015,0.012 0.023,0.034 0.037,0.06 0.072,0.098 0.044,0.063 0.03,0.054 0,0"
             style="fill:#050606;fill-opacity:1;fill-rule:nonzero;stroke:none"
             id="path527" />
        </g>
        <g
           id="g529"
           transform="translate(40.2708,485.787)">
          <path
             d="m 0,0 c 0.009,0.004 0.02,0.01 0.031,0.016 0.012,0.013 0.027,0.027 0.04,0.041 z"
             style="fill:#050606;fill-opacity:1;fill-rule:nonzero;stroke:none"
             id="path531" />
        </g>
        <g
           id="g533"
           transform="translate(60.1388,481.39)">
          <path
             d="M 0,0 C 0.004,-0.011 0.004,-0.017 0.005,-0.023 L -0.047,0.065 C -0.032,0.044 -0.017,0.024 0,0 m -5.239,-12.621 c 0.021,0.015 0.044,0.031 0.071,0.05 0.018,0.013 0.037,0.027 0.059,0.043 0.001,0.003 0.004,0.008 0.005,0.01 -0.002,-0.011 -0.005,-0.023 -0.015,-0.037 -0.024,-0.019 -0.039,-0.03 -0.059,-0.042 -0.026,-0.016 -0.044,-0.026 -0.057,-0.032 -0.017,-0.002 -0.027,-0.002 -0.034,0 0.008,0.002 0.017,0.004 0.03,0.008 m -1.777,1.932 c -0.067,-0.099 -0.185,-0.256 -0.321,-0.205 -0.081,0.03 -0.195,0.11 -0.26,0.162 -0.147,0.118 -0.281,0.318 -0.386,0.468 -0.225,0.321 -0.401,0.656 -0.709,0.906 -0.077,0.062 -0.222,0.292 -0.24,0.318 -0.136,0.194 -0.262,0.396 -0.402,0.587 -0.252,0.347 -0.516,0.686 -0.77,1.032 -0.416,0.567 -0.863,1.105 -1.167,1.742 -0.308,0.644 -0.599,1.299 -0.946,1.923 -0.298,0.537 -0.745,0.941 -1.067,1.458 -0.126,0.202 -0.203,0.352 -0.181,0.586 -0.073,-0.219 -0.069,0.023 -0.113,0.096 -0.045,0.077 -0.113,0.124 -0.144,0.211 -0.054,0.147 -0.027,0.413 0.028,0.561 0.116,0.312 0.544,0.377 0.833,0.349 0.26,-0.025 0.545,-0.146 0.772,-0.27 0.091,-0.051 0.213,-0.088 0.287,-0.164 0.047,-0.048 0.062,-0.101 0.095,-0.157 0.034,-0.06 0.08,-0.109 0.12,-0.165 0.081,-0.117 0.134,-0.249 0.212,-0.368 0.052,-0.08 0.113,-0.153 0.167,-0.231 0.152,-0.22 0.27,-0.445 0.388,-0.683 0.157,-0.316 0.386,-0.596 0.514,-0.925 0.106,-0.271 0.176,-0.556 0.292,-0.823 0.116,-0.266 0.252,-0.533 0.387,-0.791 0.298,-0.57 0.596,-1.133 0.863,-1.719 0.231,-0.507 0.46,-1.083 0.839,-1.5 0.155,-0.17 0.257,-0.337 0.357,-0.544 0.099,-0.208 0.226,-0.389 0.287,-0.612 0.058,-0.209 0.121,-0.401 0.225,-0.592 0.048,-0.088 0.141,-0.197 0.161,-0.298 0.026,-0.131 -0.051,-0.25 -0.121,-0.352 m -6.89,13.14 c -0.107,0.111 -0.192,0.219 -0.278,0.343 -0.053,0.076 -0.117,0.214 -0.195,0.257 -0.052,-0.122 -0.045,-0.267 -0.087,-0.394 -0.042,-0.129 -0.113,-0.248 -0.145,-0.38 -0.064,-0.266 -0.09,-0.537 -0.151,-0.804 -0.076,-0.325 -0.092,-0.625 -0.092,-0.954 0,-0.121 0.019,-0.251 0.002,-0.371 -0.011,-0.079 -0.05,-0.142 -0.056,-0.223 -0.021,-0.257 -0.028,-0.482 0.123,-0.712 0.122,-0.186 0.169,-0.398 0.133,-0.608 -0.031,-0.181 -0.071,-0.346 -0.042,-0.531 0.023,-0.143 0.067,-0.284 0.092,-0.427 0.021,-0.12 0.027,-0.249 0.097,-0.359 0.081,-0.126 0.221,-0.214 0.33,-0.322 0.122,-0.119 -0.269,-0.171 -0.462,0.012 -0.188,0.177 -0.375,0.347 -0.616,0.477 -0.196,0.105 -0.293,0.296 -0.396,0.465 -0.109,0.178 -0.085,0.429 -0.123,0.628 -0.024,0.034 -0.05,0.067 -0.071,0.102 -0.043,0.07 -0.061,0.148 -0.116,0.214 -0.059,0.071 -0.138,0.121 -0.193,0.198 -0.073,0.104 -0.096,0.215 -0.136,0.328 -0.046,0.132 -0.121,0.237 -0.198,0.357 -0.151,0.233 -0.191,0.505 -0.248,0.762 -0.055,0.246 -0.112,0.537 -0.038,0.784 0.024,0.081 0.079,0.138 0.122,0.21 0.116,0.195 0.08,0.486 0.043,0.685 -0.063,0.337 -0.053,0.673 0.049,1.005 0.051,0.168 0.098,0.339 0.153,0.506 0.019,0.058 0.047,0.202 0.145,0.206 0.017,-0.172 0.118,-0.324 0.159,-0.501 0.056,-0.247 0.028,-0.483 0.155,-0.709 0.058,-0.104 0.103,-0.213 0.144,-0.323 0.033,0.093 0.064,0.188 0.079,0.277 0.038,0.216 0.03,0.445 0.044,0.663 0.012,0.185 -0.014,0.409 0.063,0.584 0.037,0.086 0.067,0.195 0.127,0.27 0.093,0.116 0.153,0.199 0.187,0.346 0.074,0.318 0.207,0.615 0.265,0.935 0.029,0.164 0.035,0.38 0.177,0.509 0.022,0.02 0.082,0.074 0.114,0.076 0.096,0.007 0.061,-0.07 0.073,-0.128 0.021,-0.103 0.092,-0.2 0.127,-0.3 0.108,-0.308 -0.069,-0.611 0.13,-0.912 0.279,-0.42 1.031,0.624 1.083,0.712 0.064,0.109 0.084,0.226 0.131,0.34 0.073,0.176 0.162,0.348 0.236,0.524 0.107,0.253 0.151,0.522 0.266,0.774 0.058,0.128 0.177,0.262 0.272,0.374 0.069,0.082 0.152,0.146 0.169,-0.005 0.015,-0.138 -0.033,-0.284 -0.028,-0.424 0.009,-0.25 0.051,-0.528 0.111,-0.774 0.031,-0.13 0.107,-0.253 0.156,-0.379 0.073,-0.187 0.11,-0.381 0.186,-0.567 0.257,-0.624 0.352,-1.333 0.825,-1.886 0.106,-0.123 0.233,-0.208 0.373,-0.3 0.184,-0.122 0.277,-0.267 0.372,-0.441 0.115,-0.212 0.141,-0.479 0.353,-0.646 0.07,-0.055 0.152,-0.096 0.216,-0.156 0.265,-0.247 0.445,-0.629 0.517,-0.947 0.034,-0.149 0.026,-0.303 0.067,-0.452 0.171,-0.615 0.076,-1.245 0.034,-1.871 -0.02,-0.286 -0.092,-0.569 -0.221,-0.826 -0.046,-0.092 -0.123,-0.219 -0.2,-0.294 -0.007,-0.008 -0.235,0.307 -0.253,0.335 -0.07,0.106 -0.138,0.249 -0.172,0.367 -0.054,0.195 -0.141,0.371 -0.231,0.557 -0.111,0.23 -0.203,0.46 -0.283,0.697 -0.076,0.225 -0.122,0.468 -0.223,0.686 -0.087,0.187 -0.215,0.366 -0.318,0.548 -0.167,0.293 -0.231,0.604 -0.38,0.902 -0.117,0.236 -0.278,0.454 -0.488,0.642 -0.266,0.237 -0.335,0.486 -0.421,0.813 -0.085,0.324 -0.124,0.687 -0.283,0.993 -0.101,-0.034 -0.11,-0.219 -0.138,-0.297 -0.085,-0.233 -0.175,-0.457 -0.241,-0.694 -0.054,-0.195 -0.104,-0.39 -0.148,-0.587 -0.019,-0.083 -0.056,-0.169 -0.068,-0.251 -0.006,-0.042 0.008,-0.098 -0.025,-0.132 -0.106,0.003 -0.159,0.073 -0.242,0.118 -0.068,0.037 -0.129,0.054 -0.204,0.081 -0.15,0.052 -0.191,0.122 -0.29,0.225 M 0.169,-2.594 C 0.167,-2.669 0.153,-2.785 0.127,-2.791 l -0.014,0.17 c -0.005,0.002 -0.009,0.004 -0.014,0.007 v 0.027 l -0.118,1.156 0.099,0.845 0.01,-0.021 -0.006,0.061 0.031,0.258 c 0.008,-0.008 0.014,-0.033 0.012,-0.085 0.022,0.071 0.027,0.125 0.027,0.159 -0.035,0.047 -0.063,0.072 -0.092,0.165 -0.004,0.019 0.003,0.013 0.013,0 L -0.037,0.1 C -0.006,0.076 -0.011,0.151 0.039,0.048 -0.097,0.353 -0.278,0.482 -0.298,0.615 L -0.28,0.593 c -0.192,0.288 -0.132,0.151 -0.189,0.181 l -0.032,0.054 -0.025,0.146 0.056,0.171 -0.056,0.036 c -0.007,0.047 -0.019,0.14 0.004,0.127 -0.064,0.168 -0.017,-0.034 -0.066,0.062 0.005,0.205 -0.093,0.512 -0.076,0.646 -0.004,0.021 -0.004,0.037 0.001,0.05 C -0.698,2.094 -0.683,2.05 -0.67,2.015 -0.669,1.976 -0.668,1.951 -0.686,2.009 -0.695,2.02 -0.708,2.038 -0.725,2.063 c 0.042,0.102 -0.148,0.24 -0.214,0.442 0.07,-0.035 0.144,-0.22 0.078,-0.017 -0.125,0.074 -0.18,0.365 -0.277,0.513 -0.052,-0.02 -0.215,0.318 -0.383,0.563 0.019,-0.003 -0.137,0.282 -0.276,0.542 -0.051,0.072 -0.1,0.139 -0.138,0.192 h 0.012 c -0.08,0.004 -0.25,0.231 -0.39,0.383 0.033,0.016 0.068,-0.004 0.151,-0.08 l -0.123,0.15 c -0.044,0.024 -0.09,0.064 -0.174,0.157 L -2.394,4.899 C -2.438,4.951 -2.475,4.992 -2.53,5.052 -2.692,5.189 -2.85,5.311 -3.015,5.502 -3.044,5.49 -2.984,5.372 -3.027,5.366 l -0.129,0.125 c 0.014,0.006 0.037,0.002 0.074,-0.028 -0.023,0.019 -0.09,0.062 -0.127,0.111 l 0.128,-0.07 c -0.098,0.117 -0.08,0.032 -0.164,0.118 0.024,0.022 -0.048,0.079 -0.018,0.085 0.024,-0.019 0.067,-0.083 0.108,-0.106 -0.046,0.05 -0.096,0.107 -0.137,0.158 C -3.334,5.812 -3.359,5.851 -3.388,5.896 -3.387,5.886 -3.391,5.879 -3.403,5.88 -3.419,5.875 -3.462,5.886 -3.515,5.911 -3.743,6.03 -3.574,5.987 -3.698,6.072 -3.764,6.082 -3.898,6.179 -3.925,6.139 -3.991,6.175 -3.992,6.201 -4.012,6.226 -4.139,6.27 -4.563,6.514 -4.456,6.399 L -4.428,6.38 c -0.006,0.003 -0.013,0.006 -0.02,0.009 -0.353,0.162 -0.681,0.435 -1.008,0.635 -0.039,0.028 -0.077,0.057 -0.115,0.085 L -5.56,7.121 C -5.776,7.266 -6.022,7.468 -6.189,7.555 -6.25,7.602 -6.314,7.69 -6.276,7.685 -6.323,7.716 -6.36,7.741 -6.392,7.762 -6.498,7.806 -6.551,7.828 -6.731,7.941 -6.54,7.876 -6.781,7.994 -6.539,7.867 -6.763,7.995 -6.804,8.045 -7.07,8.13 -6.968,8.124 -7.22,8.264 -7.335,8.308 L -7.187,8.2 C -7.235,8.221 -7.28,8.243 -7.322,8.265 -7.374,8.291 -7.424,8.317 -7.473,8.343 -7.513,8.342 -7.552,8.341 -7.592,8.34 c 0.016,0.019 0.056,0.038 0.093,0.058 -0.039,0.002 -0.077,0.003 -0.115,0.004 -0.029,0 -0.057,0.001 -0.085,0.001 C -7.754,8.403 -7.808,8.4 -7.862,8.396 -7.968,8.388 -8.07,8.374 -8.169,8.359 -8.267,8.344 -8.363,8.33 -8.456,8.32 -8.502,8.315 -8.548,8.312 -8.594,8.31 h -0.068 l -0.034,10e-4 c -0.009,0 -0.012,10e-4 -0.018,0.002 C -8.721,8.318 -8.745,8.326 -8.77,8.335 -8.793,8.344 -8.816,8.354 -8.839,8.366 -8.888,8.361 -8.871,8.351 -8.833,8.338 -8.814,8.332 -8.79,8.325 -8.766,8.318 -8.755,8.314 -8.743,8.31 -8.732,8.307 -8.725,8.305 -8.72,8.302 -8.715,8.299 -8.696,8.294 -8.679,8.286 -8.708,8.271 H -8.717 L -8.793,8.292 C -8.821,8.301 -8.85,8.31 -8.877,8.319 -8.933,8.337 -8.985,8.358 -9.032,8.377 -9.127,8.415 -9.202,8.448 -9.239,8.455 -9.541,8.54 -9.55,8.446 -9.843,8.505 -9.861,8.507 -9.885,8.51 -9.91,8.512 -9.867,8.49 -9.829,8.435 -10.09,8.435 c -0.241,0.025 -0.291,0.103 -0.137,0.108 0.058,-0.003 0.086,-0.011 0.082,-0.017 0.079,10e-4 0.182,0.002 0.088,0.03 L -10.09,8.539 c -0.118,0.028 -0.452,0.049 -0.371,0.076 -0.184,-0.006 -0.081,-0.027 0.054,-0.046 -0.117,0.019 -0.215,0.028 -0.309,0.035 -0.09,0.006 -0.176,0.012 -0.274,0.019 -0.027,0.007 -0.055,0.014 -0.085,0.021 -0.034,0.009 -0.069,0.019 -0.106,0.03 0.047,-0.022 0.088,-0.055 0.038,-0.043 -0.453,0.127 -0.21,0.009 -0.522,0.071 -0.17,0.069 0.079,0.055 -0.239,0.101 -0.187,0.063 -0.029,0.06 0.05,0.058 -0.056,0.005 -0.109,0.014 -0.16,0.024 -0.026,0.006 -0.051,0.012 -0.075,0.017 -0.038,0.01 -0.075,0.02 -0.111,0.029 -0.033,-0.005 -0.066,-0.011 -0.098,-0.016 -0.019,-0.002 -0.038,-0.004 -0.056,-0.006 -0.037,-0.003 -0.073,-0.006 -0.106,-0.008 -0.068,-0.006 -0.128,-0.01 -0.179,-0.019 l 0.148,0.046 C -12.58,8.901 -12.654,8.886 -12.729,8.871 l 0.094,-0.021 c -0.09,-0.011 -0.165,-0.026 -0.166,-0.01 -0.087,-0.043 0.082,-0.049 -0.092,-0.119 -0.122,-0.005 -0.355,-0.094 -0.406,-0.052 0.374,0.058 -0.051,0.043 0.261,0.114 -0.059,-0.018 -0.133,-0.032 -0.223,-0.044 -0.015,0.003 0.01,0.013 0.034,0.021 -0.049,-0.004 -0.086,-0.008 -0.117,-0.012 -0.015,-0.003 -0.029,-0.006 -0.041,-0.008 -0.022,-0.005 -0.041,-0.01 -0.058,-0.014 -0.022,-0.012 -0.044,-0.024 -0.054,-0.032 -0.008,-0.007 -0.015,-0.013 -0.021,-0.02 -0.012,-0.013 -0.023,-0.026 -0.037,-0.042 -0.029,-0.031 -0.079,-0.069 -0.204,-0.127 0.031,0.046 -0.102,0.013 -0.155,-0.019 0.137,0.064 0.086,-0.013 -0.03,-0.092 -0.228,-0.081 -0.23,-0.126 -0.345,-0.177 l 0.135,0.051 c -0.033,-0.047 -0.143,-0.094 -0.291,-0.174 -0.023,0.015 0.131,0.079 0.073,0.063 -0.032,-0.028 -0.082,-0.055 -0.114,-0.069 -0.14,-0.037 -0.342,-0.041 -0.521,-0.122 -0.121,-0.016 -0.027,0.049 -0.132,0.031 -0.117,-0.052 -0.191,-0.069 -0.261,-0.08 -0.035,-0.006 -0.069,-0.012 -0.107,-0.019 -0.019,-0.004 -0.038,-0.008 -0.06,-0.013 -0.01,-0.003 -0.021,-0.006 -0.033,-0.009 -0.019,-0.006 -0.039,-0.012 -0.06,-0.018 -0.06,-0.036 -0.074,-0.047 -0.111,-0.073 0.095,0.01 0.104,0.026 -0.064,-0.114 l 0.2,0.129 0.284,0.101 -0.128,-0.065 -0.065,-0.032 -0.032,-0.016 -0.045,-0.02 c -0.014,-0.011 -0.034,-0.025 -0.043,-0.033 0.015,0.009 0.03,0.018 0.046,0.027 0.054,0.017 0.076,0.026 0.112,0.039 0.033,0.012 0.065,0.024 0.095,0.036 0.061,0.023 0.115,0.043 0.156,0.052 -0.138,-0.074 -0.126,-0.061 -0.047,-0.071 -0.109,-0.003 -0.19,-0.035 -0.306,-0.08 -0.106,-0.074 -0.185,-0.136 -0.305,-0.183 l -0.042,0.088 c -0.131,-0.057 -0.242,-0.125 -0.352,-0.2 -0.055,-0.038 -0.111,-0.077 -0.17,-0.117 -0.029,-0.02 -0.059,-0.041 -0.09,-0.062 l -0.047,-0.031 c -0.02,-0.012 -0.04,-0.025 -0.06,-0.037 -0.036,-0.031 -0.072,-0.062 -0.111,-0.095 -0.035,-0.029 -0.073,-0.059 -0.113,-0.09 l 0.126,0.084 c -0.023,-0.07 -0.219,-0.189 -0.325,-0.299 -0.01,0.034 -0.09,-0.018 -0.153,-0.044 0.021,-0.013 -0.265,-0.218 -0.257,-0.295 l -0.031,-0.016 c -0.009,-0.005 -0.013,-0.005 -0.019,-0.008 -0.008,-10e-4 -0.011,0 -0.022,-0.003 l -0.034,-0.009 -0.069,-0.019 c -0.347,-0.154 -0.345,-0.275 -0.676,-0.429 0.083,0.08 -0.075,0.027 0.131,0.159 -0.109,-0.055 -0.209,-0.098 -0.201,-0.119 -0.018,-0.004 -0.045,-0.018 -0.078,-0.037 -0.04,-0.024 -0.088,-0.054 -0.138,-0.084 -0.028,-0.047 -0.058,-0.096 -0.084,-0.141 -0.022,-0.034 -0.045,-0.063 -0.067,-0.082 -0.017,-0.05 0.001,-0.083 -0.078,-0.194 -0.014,-0.009 -0.013,0.009 -0.013,0.009 0.013,-0.009 -0.103,-0.188 -0.006,-0.11 -0.135,-0.114 -0.281,-0.323 -0.403,-0.505 -0.183,-0.175 -0.387,-0.375 -0.542,-0.456 -0.109,-0.108 -0.229,-0.227 -0.337,-0.334 -0.074,-0.121 -0.141,-0.228 -0.199,-0.322 0,0.018 -0.013,0.009 0.015,0.046 -0.205,-0.263 -0.033,-0.222 -0.265,-0.522 -0.148,-0.133 0.084,0.184 0.003,0.094 -0.116,0.014 -0.233,-0.391 -0.433,-0.563 l 0.03,0.054 c -0.14,-0.14 -0.236,-0.412 -0.423,-0.669 0,0 0.001,0.018 -0.012,0.011 -0.007,-0.016 -0.009,-0.026 -0.022,-0.05 -0.011,-0.023 -0.025,-0.047 -0.04,-0.075 0.001,-0.065 0.002,-0.139 0.003,-0.217 -0.001,-0.068 -0.002,-0.14 -0.003,-0.213 -0.006,-0.146 -0.013,-0.297 -0.019,-0.429 -0.032,0.099 -0.008,0.141 -0.056,0.087 -0.008,-0.137 0.071,0.033 0.056,-0.24 -0.011,-0.029 -0.022,-0.07 -0.035,-0.113 -0.012,-0.041 -0.026,-0.09 -0.038,-0.106 -0.019,-0.017 -0.041,-0.037 -0.058,-0.04 l 0.021,0.05 0.015,0.164 C -21.648,1 -21.658,0.972 -21.665,0.942 -21.669,0.926 -21.671,0.911 -21.673,0.895 -21.675,0.879 -21.675,0.878 -21.675,0.869 L -21.68,0.853 -21.691,0.82 c -0.008,-0.024 -0.016,-0.048 -0.024,-0.071 -0.015,-0.047 -0.031,-0.091 -0.05,-0.127 l -0.017,0.026 c -0.151,-0.365 -0.095,-0.396 -0.27,-0.783 l 0.036,0.032 c -0.009,-0.059 -0.019,-0.096 -0.035,-0.134 -0.015,-0.112 -0.064,-0.117 -0.055,-0.297 l -0.074,-0.06 c -0.008,-0.156 -0.016,-0.533 -0.046,-0.818 0,-0.001 0,-0.002 0,-0.002 0,0 0,10e-4 -0.001,0.002 -0.022,0.173 -0.001,0.485 0.001,0.688 -0.023,-0.15 -0.071,-0.512 -0.051,-0.594 0.003,0.061 -0.002,0.14 0.017,0.198 0.009,-0.087 0.015,-0.168 0.009,-0.291 0.03,-0.148 0.05,-0.287 0.066,-0.461 -0.095,0.033 -0.028,-0.411 -0.016,-0.72 -0.009,-0.105 -0.024,-0.221 -0.052,-0.276 0.009,-0.146 0.01,-0.29 0.007,-0.436 -0.003,-0.073 -0.006,-0.146 -0.009,-0.22 -0.004,-0.078 -0.008,-0.157 -0.012,-0.237 0.012,-0.132 0.025,-0.266 0.038,-0.404 0.013,-0.133 0.029,-0.271 0.049,-0.412 0.068,0.232 0.026,-0.181 0.12,-0.129 0.024,-0.141 0.03,-0.196 0.025,-0.211 l 0.001,0.03 c -0.001,-0.014 -0.001,-0.021 -0.001,-0.032 v 0 l 0.007,-0.444 c -0.014,-0.107 -0.043,0.134 -0.063,0.118 0.04,-0.317 -0.022,-0.139 -0.017,-0.351 0.029,0.048 0.067,-0.102 0.08,-0.284 l 0.008,0.26 c 0.038,-0.137 0.049,-0.226 0.05,-0.298 10e-4,-0.036 0,-0.068 -0.002,-0.1 l -0.003,-0.046 c -0.002,-0.011 0.001,-0.052 0.002,-0.079 0.03,-0.08 0.034,-0.101 0.058,-0.156 0.022,-0.05 0.052,-0.108 0.095,-0.179 l -0.087,0.116 c 0.102,-0.183 0.297,-0.643 0.464,-0.881 0.033,-0.043 0.047,-0.053 0.07,-0.074 0.01,-0.041 0.014,-0.101 -0.043,-0.017 0.133,-0.241 0.306,-0.496 0.468,-0.739 0.078,-0.123 0.159,-0.24 0.235,-0.348 0.074,-0.11 0.138,-0.214 0.186,-0.31 l -0.043,0.022 c 0.062,-0.083 0.137,-0.126 0.187,-0.247 -0.013,0 -0.044,0.022 -0.019,-0.019 0.016,-0.018 0.051,-0.058 0.093,-0.106 0.019,-0.025 0.041,-0.052 0.062,-0.079 0.023,-0.029 0.036,-0.048 0.071,-0.101 0.014,-0.014 0.028,-0.027 0.041,-0.039 0.008,-0.008 0.015,-0.016 0.022,-0.024 l -0.03,0.017 -0.048,0.034 c -0.017,0.018 -0.04,0.046 -0.049,0.053 0.013,-0.022 0.026,-0.044 0.038,-0.063 0.05,-0.048 0.098,-0.093 0.144,-0.137 0.04,-0.037 0.08,-0.071 0.119,-0.103 0.077,-0.065 0.152,-0.121 0.226,-0.174 0.146,-0.106 0.296,-0.208 0.446,-0.331 0.01,-0.01 0.022,-0.021 0.033,-0.032 -0.054,-0.048 0.214,-0.375 0.348,-0.538 l -0.013,-10e-4 c 0.059,-0.064 0.115,-0.124 0.169,-0.183 0.06,-0.061 0.117,-0.121 0.173,-0.178 0.353,-0.256 0.618,-0.413 0.977,-0.671 l 0.004,-0.003 c 0.276,-0.262 1.015,-0.678 1.503,-1.004 -0.07,0.056 0.041,0.041 0.133,-0.004 0.111,-0.082 0.349,-0.146 0.299,-0.193 l -0.042,0.025 c 0.056,-0.114 0.318,-0.216 0.512,-0.317 l 0.072,0.06 c 0.073,-0.059 0.159,-0.116 0.252,-0.171 0.046,-0.027 0.094,-0.053 0.144,-0.079 0.053,-0.028 0.108,-0.055 0.163,-0.083 l 0.182,-0.055 c 0.056,-0.016 0.113,-0.032 0.168,-0.048 0.11,-0.032 0.218,-0.062 0.317,-0.091 0.198,-0.059 0.361,-0.117 0.45,-0.186 0.006,-0.001 0.011,-0.003 0.018,-0.004 0.153,-0.015 0.301,-0.049 0.439,-0.059 l -0.017,-0.044 c 0.137,-0.035 0.249,-0.064 0.362,-0.094 0.057,-0.014 0.114,-0.028 0.176,-0.043 0.068,-0.015 0.141,-0.032 0.222,-0.051 0.065,10e-4 0.174,10e-4 0.303,0.002 l -0.096,-0.032 c 0.264,-0.007 0.335,0.129 0.58,0.128 l 0.072,-0.069 0.175,-0.005 0.202,-0.008 0.28,0.068 0.252,0.066 c 0.166,0.046 0.33,0.099 0.488,0.169 -0.004,-0.012 -0.012,-0.035 -0.083,-0.058 0.056,0.014 0.142,0.036 0.235,0.059 -0.002,-10e-4 0.018,0.002 0.034,0.004 l 0.049,0.005 c 0.033,0.005 0.065,0.009 0.096,0.013 0.064,0.008 0.123,0.018 0.173,0.029 0.099,0.02 0.158,0.045 0.125,0.075 0.007,-0.028 0.104,-0.017 0.232,0.008 0.063,0.013 0.134,0.029 0.205,0.046 0.035,0.009 0.071,0.018 0.105,0.027 0.017,0.004 0.034,0.008 0.051,0.012 0.017,0.005 0.034,0.009 0.037,0.011 l 0.009,0.002 0.02,0.002 c 0.012,0.002 0.024,0.003 0.036,0.004 l -0.039,-0.045 c 0.211,0.057 0.218,0.073 0.512,0.087 0.069,-0.006 0.061,-0.037 -0.032,-0.025 0.232,-0.025 0.181,0.042 0.463,0.016 l -0.105,-0.028 c 0.114,-0.002 0.169,0 0.211,0.007 0.021,0.003 0.037,0.008 0.058,0.013 0.026,0.005 0.055,0.012 0.095,0.02 0.002,0.002 0.007,0.007 0.012,0.012 0.021,0.015 0.045,0.03 0.069,0.046 0.02,0.011 0.04,0.024 0.062,0.036 0.043,0.025 0.091,0.049 0.136,0.07 0.091,0.041 0.173,0.068 0.198,0.06 0.015,0.038 0.111,0.133 0.238,0.194 0.025,-0.004 -0.015,-0.038 -0.034,-0.055 0.082,0.04 0.153,0.08 0.215,0.119 0.031,0.02 0.06,0.039 0.088,0.058 0.027,0.018 0.058,0.039 0.066,0.047 0.013,0.007 0.057,0.023 0.087,0.034 0.033,0.011 0.065,0.022 0.097,0.033 0.066,0.021 0.132,0.037 0.207,0.046 0.01,-0.014 0.029,-0.016 0.052,-0.014 -0.183,-0.05 -0.344,-0.094 -0.434,-0.119 -0.019,-0.01 -0.034,-0.018 -0.043,-0.023 -0.012,-0.007 -0.017,-0.009 -0.014,-0.006 0.005,-0.018 0.066,0.004 0.072,-0.006 0.005,-0.002 0.01,-0.004 0.013,-0.007 0.006,-0.003 0.015,-0.004 0.018,-0.008 0.01,-0.007 -0.015,-0.024 -0.009,-0.036 0,-0.003 0.001,-0.007 0.002,-0.012 v 0.006 c 0.003,0.003 -0.003,0.003 0.008,0.009 0.013,0.006 0.026,0.012 0.039,0.018 0.027,0.013 0.056,0.026 0.085,0.04 0.059,0.026 0.123,0.054 0.187,0.083 0.128,0.054 0.263,0.103 0.381,0.126 0.012,0 0.025,-10e-4 0.035,-0.005 l -0.023,-0.011 c 0.056,0.011 0.105,0.029 0.15,0.049 0.078,0.015 0.128,0.024 0.202,0.044 0.004,-0.007 0.038,-0.003 0.086,0.007 0.027,0.016 0.061,0.037 0.098,0.059 0.025,0.017 0.054,0.036 0.082,0.055 0.057,0.038 0.115,0.078 0.156,0.106 -0.035,0.032 0.109,0.119 -0.043,0.063 0.019,0.009 -0.017,-0.017 -0.086,-0.066 -0.016,-0.012 -0.034,-0.025 -0.043,-0.034 10e-4,0.002 0.003,0.005 0.005,0.008 l -0.195,-0.133 -0.121,-0.035 c 0.029,0.016 0.058,0.032 0.113,0.053 0.046,0.037 0.071,0.058 0.105,0.081 0.033,0.022 0.071,0.043 0.115,0.062 0.038,0.061 0.081,0.127 0.107,0.161 0.181,0.044 0.481,0.203 0.542,0.196 0.056,0.042 0.115,0.086 0.177,0.132 0.067,0.063 0.136,0.127 0.205,0.192 0.065,0.062 0.129,0.124 0.19,0.184 0.119,0.12 0.22,0.233 0.274,0.327 0.076,0.081 0.112,0.065 0.152,0.082 -0.042,-0.049 -0.101,-0.098 -0.119,-0.13 0.048,0.051 0.104,0.103 0.178,0.172 0.146,0.165 0.29,0.326 0.286,0.385 0.212,0.184 -0.067,-0.153 0.189,0.133 l -0.022,-0.05 c 0.076,0.062 0.145,0.126 0.208,0.189 0.031,0.032 0.061,0.064 0.091,0.096 0.035,0.038 0.069,0.077 0.103,0.115 0.035,0.085 0.043,0.111 0.061,0.162 l 0.046,0.138 c 0.03,0.092 0.06,0.184 0.09,0.277 0.031,0.093 0.063,0.187 0.101,0.284 0.019,0.048 0.039,0.097 0.062,0.146 0.02,0.047 0.049,0.108 0.065,0.138 0.035,0.028 0.072,0.058 0.109,0.089 0.042,0.033 0.086,0.066 0.133,0.099 -0.047,-0.035 -0.071,-0.052 -0.086,-0.053 0.122,0.104 0.241,0.212 0.36,0.324 l 0.177,0.169 0.19,0.185 0.24,0.56 c 0.078,0.185 0.152,0.353 0.24,0.546 0.063,0.266 0.126,0.499 0.204,0.74 0.067,0.226 0.053,0.293 0.05,0.406 0.001,0.009 0.001,0.016 0.007,0.035 l 0.07,0.03 0.074,0.275 c 0.05,0.135 0.118,0.245 0.191,0.354 0.037,0.054 0.075,0.108 0.113,0.164 0.019,0.029 0.037,0.058 0.057,0.087 l 0.028,0.046 c 0.012,0.022 0.025,0.046 0.038,0.069 0.01,0.096 0.014,0.135 0.016,0.203 0.002,0.063 0,0.129 -0.005,0.2 L 0.108,-4.623 c 0.019,0.179 0.022,0.571 0.058,0.538 -0.005,0.019 -0.03,0.062 -0.008,0.131 l 0.026,0.003 -0.004,0.193 -0.026,0.257 c 0.019,0.343 0.103,-0.054 0.107,0.447 -0.01,0.187 -0.075,0.531 -0.092,0.46"
             style="fill:#050606;fill-opacity:1;fill-rule:nonzero;stroke:none"
             id="path535" />
        </g>
        <g
           id="g537"
           transform="translate(55.1134,468.97)">
          <path
             d="M 0,0 C 0.01,0.008 0.014,0.013 0.027,0.022 0.011,0.016 -0.005,0.009 -0.021,0.003 -0.026,-0.007 -0.032,-0.017 -0.038,-0.026 -0.025,-0.017 -0.012,-0.008 0,0"
             style="fill:#050606;fill-opacity:1;fill-rule:nonzero;stroke:none"
             id="path539" />
        </g>
        <g
           id="g541"
           transform="translate(55.673,487.795)">
          <path
             d="M 0,0 C 0.007,-0.006 0.014,-0.012 0.017,-0.017 0.012,-0.011 0.013,-0.01 0.009,-0.006 Z"
             style="fill:#050606;fill-opacity:1;fill-rule:nonzero;stroke:none"
             id="path543" />
        </g>
        <g
           id="g545"
           transform="translate(59.6464,482.829)">
          <path
             d="M 0,0 C -0.018,0.42 -0.025,-0.092 -0.091,0.337 L -0.048,0.009 C -0.04,0.069 -0.03,0.148 0,0"
             style="fill:#050606;fill-opacity:1;fill-rule:nonzero;stroke:none"
             id="path547" />
        </g>
        <g
           id="g549"
           transform="translate(59.1875,484.142)">
          <path
             d="M 0,0 C -0.068,0.091 -0.085,0.113 -0.035,-0.011 0.058,-0.163 -0.013,0.003 0,0"
             style="fill:#050606;fill-opacity:1;fill-rule:nonzero;stroke:none"
             id="path551" />
        </g>
        <g
           id="g553"
           transform="translate(53.8141,489.133)">
          <path
             d="M 0,0 0.04,0.022 C -0.083,0.11 0.033,0.007 0,0"
             style="fill:#050606;fill-opacity:1;fill-rule:nonzero;stroke:none"
             id="path555" />
        </g>
        <g
           id="g557"
           transform="translate(51.685,489.771)">
          <path
             d="m 0,0 -0.228,-0.025 0.169,0.016 z"
             style="fill:#050606;fill-opacity:1;fill-rule:nonzero;stroke:none"
             id="path559" />
        </g>
        <g
           id="g561"
           transform="translate(40.4792,486.035)">
          <path
             d="M 0,0 0.065,-0.01 C 0.127,0.06 0.102,0.116 0,0"
             style="fill:#050606;fill-opacity:1;fill-rule:nonzero;stroke:none"
             id="path563" />
        </g>
        <g
           id="g565"
           transform="translate(38.0145,481.174)">
          <path
             d="M 0,0 C 0.016,0.03 0.03,0.058 0.042,0.083 0.053,0.103 0.061,0.121 0.066,0.136 0.054,0.126 0.041,0.11 0.027,0.091 0.021,0.081 0.014,0.07 0.007,0.059 -0.002,0.042 -0.012,0.024 -0.021,0.006 -0.025,-0.014 -0.029,-0.035 -0.033,-0.056 L -0.039,-0.1 c -0.003,-0.029 -0.003,-0.057 0,-0.082 0.006,0.029 0.012,0.058 0.018,0.086 C -0.014,-0.063 -0.007,-0.03 0,0"
             style="fill:#050606;fill-opacity:1;fill-rule:nonzero;stroke:none"
             id="path567" />
        </g>
        <g
           id="g569"
           transform="translate(45.1471,468.177)">
          <path
             d="M 0,0 0.19,-0.079 0.105,-0.033 Z"
             style="fill:#050606;fill-opacity:1;fill-rule:nonzero;stroke:none"
             id="path571" />
        </g>
      </g>
    </g>
  </g>
</svg>
