<?xml version="1.0" encoding="UTF-8" standalone="no"?>
<!-- Created with Inkscape (http://www.inkscape.org/) -->

<svg
   width="19.499146"
   height="24"
   viewBox="0 0 5.1591488 6.35"
   version="1.1"
   id="svg4114"
   inkscape:version="1.2.1 (9c6d41e4, 2022-07-14)"
   sodipodi:docname="the_devourers_cult.svg"
   xmlns:inkscape="http://www.inkscape.org/namespaces/inkscape"
   xmlns:sodipodi="http://sodipodi.sourceforge.net/DTD/sodipodi-0.dtd"
   xmlns="http://www.w3.org/2000/svg"
   xmlns:svg="http://www.w3.org/2000/svg">
  <sodipodi:namedview
     id="namedview4116"
     pagecolor="#505050"
     bordercolor="#eeeeee"
     borderopacity="1"
     inkscape:showpageshadow="0"
     inkscape:pageopacity="0"
     inkscape:pagecheckerboard="0"
     inkscape:deskcolor="#505050"
     inkscape:document-units="mm"
     showgrid="false"
     inkscape:zoom="0.70199214"
     inkscape:cx="32.763899"
     inkscape:cy="185.18726"
     inkscape:window-width="1390"
     inkscape:window-height="938"
     inkscape:window-x="0"
     inkscape:window-y="25"
     inkscape:window-maximized="0"
     inkscape:current-layer="layer1" />
  <defs
     id="defs4111">
    <clipPath
       clipPathUnits="userSpaceOnUse"
       id="clipPath971">
      <path
         d="m 162.518,297.445 h 23.958 v 23.958 h -23.958 z"
         id="path969" />
    </clipPath>
  </defs>
  <g
     inkscape:label="Layer 1"
     inkscape:groupmode="layer"
     id="layer1"
     transform="translate(-96.348857,-99.389945)">
    <g
       id="g965"
       transform="matrix(0.28855697,0,0,-0.28855697,48.608235,191.82024)">
      <g
         id="g967"
         clip-path="url(#clipPath971)">
        <g
           id="g973"
           transform="translate(174.226,320.319)">
          <path
             d="m 0,0 c -0.127,0.005 -0.249,-0.345 -0.281,-0.445 -0.102,-0.317 -0.056,-0.698 -0.107,-1.03 -0.062,-0.399 -0.136,-0.78 -0.138,-1.181 -0.001,-0.333 -0.135,-0.615 -0.123,-0.952 0.027,-0.762 -0.172,-1.546 -0.21,-2.308 -0.04,-0.77 -0.127,-1.557 -0.132,-2.328 -0.003,-0.465 0.062,-0.9 0.133,-1.354 0.031,-0.194 0.021,-0.389 0.052,-0.583 0.041,-0.248 0.134,-0.473 0.158,-0.723 0.036,-0.377 0.173,-0.75 0.157,-1.132 -0.01,-0.244 -0.084,-0.464 -0.074,-0.711 0.009,-0.238 0.048,-0.474 0.05,-0.713 0.004,-0.348 0.03,-0.703 0.006,-1.047 -0.032,-0.438 0.051,-0.834 0.115,-1.271 0.061,-0.419 -0.11,-0.795 -0.058,-1.228 0.014,-0.118 0.096,-0.575 -0.027,-0.643 -0.066,0.108 -0.216,0.225 -0.3,0.324 -0.12,0.142 -0.207,0.221 -0.293,0.396 -0.164,0.334 -0.36,0.526 -0.59,0.811 -0.293,0.365 -0.579,0.759 -0.911,1.089 -0.301,0.299 -0.357,0.767 -0.636,1.079 -0.163,-0.04 -0.221,-0.517 -0.273,-0.669 -0.097,-0.285 0.068,-0.523 0.017,-0.827 -0.053,-0.314 -0.076,-0.664 -0.059,-0.984 0.007,-0.136 0.383,-0.133 0.45,-0.24 0.421,0.206 -0.103,0.896 0.459,0.217 0.518,-0.625 0.847,-1.378 1.213,-2.109 0.288,-0.573 0.576,-1.146 0.863,-1.719 0.097,-0.193 0.194,-0.384 0.289,-0.578 0.095,-0.194 0.216,-0.309 0.335,-0.476 0.129,-0.179 0.2,-0.602 0.422,-0.671 0.044,0.196 0.001,0.42 0.023,0.623 0.036,0.315 0.031,0.615 0.059,0.929 0.056,0.617 0.041,1.247 0.108,1.859 0.058,0.522 0.007,1.066 0.037,1.596 0.018,0.321 0.099,0.638 0.023,0.968 -0.037,0.157 -0.092,0.266 -0.1,0.427 -0.01,0.193 0.044,0.392 0.031,0.59 -0.029,0.43 -0.069,0.875 -0.04,1.305 0.015,0.229 0.111,0.425 0.074,0.661 -0.03,0.193 -0.043,0.345 -0.045,0.542 -0.007,0.595 -0.072,1.203 -0.155,1.791 -0.026,0.186 -0.068,0.36 -0.102,0.544 -0.049,0.259 -0.003,0.49 -0.013,0.757 -0.01,0.252 -0.014,0.501 -0.011,0.752 0.001,0.13 -0.069,0.486 0.041,0.548 0.208,-0.218 0.295,-0.582 0.443,-0.847 0.223,-0.401 0.566,-0.732 0.781,-1.131 0.062,-0.116 0.101,-0.218 0.182,-0.321 0.017,-0.022 0.092,-0.037 0.125,-0.077 0.111,-0.137 0.163,-0.352 0.248,-0.509 0.15,-0.279 0.355,-0.488 0.499,-0.782 0.055,-0.114 0.089,-0.301 0.234,-0.274 0.112,0.02 0.175,0.246 0.207,0.333 0.086,0.232 0.16,0.463 0.249,0.693 0.233,0.606 0.119,0.322 0.126,1 -0.154,-0.415 -0.203,0.247 -0.396,-0.152 -0.203,0.023 -0.417,0.682 -0.512,0.872 -0.139,0.277 -0.364,0.597 -0.428,0.9 C 2.136,-8.132 2.057,-7.828 1.956,-7.552 1.91,-7.426 1.829,-7.339 1.8,-7.205 1.766,-7.054 1.766,-6.972 1.691,-6.826 1.556,-6.567 1.43,-6.304 1.298,-6.043 1.169,-5.788 1.129,-5.552 1.03,-5.289 c -0.172,0.454 -0.324,0.918 -0.49,1.375 -0.124,0.343 -0.131,0.702 -0.298,1.017 -0.049,0.38 0.124,0.681 0.205,0.88 0.11,0.269 0.186,0.551 0.086,0.836 C 0.402,-0.808 -0.002,-0.404 0,0"
             style="fill:#050606;fill-opacity:1;fill-rule:nonzero;stroke:none"
             id="path975" />
        </g>
        <g
           id="g977"
           transform="translate(175.694,315.839)">
          <path
             d="M 0,0 C 0.296,0.045 0.722,-0.205 0.975,-0.34 1.48,-0.61 1.959,-0.915 2.464,-1.18 2.877,-1.397 3.251,-1.612 3.636,-1.875 3.944,-2.086 4.059,-2.307 4.272,-2.586 4.488,-2.869 4.671,-3.067 4.754,-3.447 4.834,-3.806 4.86,-4.12 4.892,-4.486 4.947,-5.101 5.517,-5.628 5.621,-6.205 5.646,-6.349 5.614,-6.492 5.637,-6.634 5.659,-6.772 5.745,-6.822 5.774,-6.948 5.838,-7.231 5.792,-7.765 5.752,-8.053 5.73,-8.212 5.66,-8.354 5.604,-8.505 5.575,-8.582 5.623,-8.657 5.578,-8.735 5.548,-8.786 5.464,-8.802 5.434,-8.851 5.353,-8.986 5.379,-9.106 5.31,-9.244 5.292,-9.281 5.181,-9.305 5.15,-9.345 5.073,-9.444 5.032,-9.555 4.964,-9.661 c -0.15,-0.235 0,-0.469 -0.171,-0.691 -0.18,-0.235 -0.436,-0.739 -0.436,-0.739 L 3.9,-11.634 c 0,0 -1.912,-1.903 -2.45,-2.184 -0.351,-0.183 -0.664,-0.422 -1.026,-0.566 -0.135,-0.053 -0.245,-0.076 -0.399,-0.118 -0.109,-0.03 -0.415,-0.103 -0.516,-0.163 0.19,0.115 0.412,0.042 0.617,0.089 0.174,0.039 0.347,0.079 0.526,0.119 0.254,0.057 0.382,0.1 0.656,0.089 0.241,-0.009 0.321,0.067 0.52,0.123 0.705,0.2 1.447,0.197 2.045,0.68 0.338,0.273 0.616,0.571 0.808,0.944 0.143,0.28 0.343,0.439 0.569,0.668 0.527,0.535 0.89,1.182 1.406,1.72 0.564,0.587 0.783,1.668 0.937,2.472 0.066,0.345 0.028,0.809 0.021,1.16 C 7.607,-6.307 7.399,-6.212 7.348,-5.95 7.31,-5.758 7.366,-5.5 7.369,-5.304 7.385,-4.393 7.116,-3.621 6.592,-2.863 6.194,-2.286 5.79,-1.566 5.255,-1.098 4.912,-0.798 4.486,-0.738 4.08,-0.56 3.941,-0.498 3.819,-0.368 3.668,-0.322 3.394,-0.238 3.08,-0.211 2.798,-0.119 2.481,-0.017 2.295,0.083 1.967,0.093 1.748,0.099 1.53,0.101 1.312,0.105 1.097,0.109 0.865,0.086 0.654,0.114 0.42,0.145 0.274,0.247 0.027,0.28 0.02,0.316 0.014,0.352 0,0"
             style="fill:#050606;fill-opacity:1;fill-rule:nonzero;stroke:none"
             id="path979" />
        </g>
        <g
           id="g981"
           transform="translate(172.611,315.89)">
          <path
             d="m 0,0 c 0.024,-0.009 0.048,-0.018 0.072,-0.027 -0.185,-0.213 -0.557,-0.39 -0.786,-0.463 -0.144,-0.046 -0.329,-0.115 -0.48,-0.146 -0.073,-0.014 -0.148,0.02 -0.221,0.009 -0.134,-0.021 -0.176,-0.095 -0.287,-0.119 -0.207,-0.046 -0.38,-0.052 -0.579,-0.112 -0.177,-0.052 -0.271,-0.078 -0.433,-0.158 -0.103,-0.05 -0.217,-0.056 -0.329,-0.122 -0.127,-0.076 -0.259,-0.173 -0.389,-0.236 -0.273,-0.133 -0.539,-0.317 -0.724,-0.607 -0.151,-0.237 -0.25,-0.552 -0.371,-0.81 -0.149,-0.319 -0.325,-0.671 -0.432,-0.996 -0.121,-0.371 -0.338,-0.708 -0.434,-1.093 -0.08,-0.325 -0.187,-0.651 -0.238,-0.995 -0.029,-0.2 0.045,-0.422 0.016,-0.621 -0.034,-0.231 -0.115,-0.378 -0.11,-0.622 0.003,-0.177 0.044,-0.457 0.009,-0.627 -0.029,-0.142 -0.097,-0.207 -0.114,-0.364 -0.044,-0.399 0.009,-0.842 0.011,-1.245 0.004,-0.785 0.266,-1.257 0.774,-1.795 0.171,-0.181 0.333,-0.375 0.504,-0.551 0.264,-0.272 0.496,-0.492 0.754,-0.745 0.247,-0.242 0.502,-0.454 0.745,-0.709 0.229,-0.242 0.584,-0.616 0.873,-0.746 0.308,-0.139 0.61,-0.216 0.934,-0.294 0.038,-0.009 0.071,-0.086 0.128,-0.102 0.1,-0.027 0.233,0.024 0.335,0.012 0.156,-0.018 0.39,-0.103 0.511,-0.223 -0.237,-0.119 -0.71,0.29 -0.944,0.348 -0.084,0.021 -0.183,-0.015 -0.269,0.002 -0.073,0.014 -0.085,0.096 -0.168,0.119 -0.235,0.063 -0.426,-0.039 -0.66,0.079 -0.158,0.08 -0.347,0.22 -0.501,0.267 -0.189,0.058 -0.41,0.066 -0.597,0.129 -0.289,0.096 -0.547,0.228 -0.787,0.463 -0.252,0.248 -0.566,0.401 -0.854,0.616 -0.256,0.191 -0.463,0.491 -0.626,0.775 -0.181,0.314 -0.383,0.593 -0.459,0.937 -0.083,0.376 -0.204,0.807 -0.345,1.159 -0.054,0.135 -0.167,0.398 -0.197,0.529 -0.028,0.121 0.003,0.235 -0.021,0.352 -0.017,0.084 -0.08,0.089 -0.092,0.144 -0.088,0.382 -0.264,0.754 -0.334,1.116 -0.072,0.37 -0.049,0.831 -0.035,1.214 0.01,0.286 0.164,0.466 0.218,0.737 0.066,0.333 0.108,0.692 0.181,1.031 0.09,0.422 0.203,0.832 0.346,1.211 0.145,0.385 0.294,0.821 0.507,1.162 0.162,0.259 0.479,0.487 0.7,0.685 0.303,0.271 0.658,0.437 0.954,0.72 0.354,0.339 0.846,0.546 1.284,0.726 0.327,0.134 0.743,0.349 1.106,0.346 0.435,-0.005 0.871,0.006 1.307,0.009 0.218,0.001 0.436,0.001 0.653,0.004 0.096,0.002 0.24,0.034 0.333,0.009 C 0.574,0.346 0.592,0.197 0,0"
             style="fill:#050606;fill-opacity:1;fill-rule:nonzero;stroke:none"
             id="path983" />
        </g>
      </g>
    </g>
  </g>
</svg>
