<?xml version="1.0" encoding="UTF-8" standalone="no"?>
<!-- Created with Inkscape (http://www.inkscape.org/) -->

<svg
   width="27.244974"
   height="24"
   viewBox="0 0 7.2085659 6.35"
   version="1.1"
   id="svg24276"
   inkscape:version="1.2.1 (9c6d41e4, 2022-07-14)"
   sodipodi:docname="bishops_thralls.svg"
   xmlns:inkscape="http://www.inkscape.org/namespaces/inkscape"
   xmlns:sodipodi="http://sodipodi.sourceforge.net/DTD/sodipodi-0.dtd"
   xmlns="http://www.w3.org/2000/svg"
   xmlns:svg="http://www.w3.org/2000/svg">
  <sodipodi:namedview
     id="namedview24278"
     pagecolor="#505050"
     bordercolor="#eeeeee"
     borderopacity="1"
     inkscape:showpageshadow="0"
     inkscape:pageopacity="0"
     inkscape:pagecheckerboard="0"
     inkscape:deskcolor="#505050"
     inkscape:document-units="mm"
     showgrid="false"
     inkscape:zoom="0.70199214"
     inkscape:cx="122.50849"
     inkscape:cy="69.801351"
     inkscape:window-width="1390"
     inkscape:window-height="938"
     inkscape:window-x="0"
     inkscape:window-y="25"
     inkscape:window-maximized="0"
     inkscape:current-layer="layer1" />
  <defs
     id="defs24273">
    <clipPath
       clipPathUnits="userSpaceOnUse"
       id="clipPath1113">
      <path
         d="m 216.583,321.301 h 24.7 V 346 h -24.7 z"
         id="path1111" />
    </clipPath>
  </defs>
  <g
     inkscape:label="Layer 1"
     inkscape:groupmode="layer"
     id="layer1"
     transform="translate(-72.846183,-129.86315)">
    <g
       id="g1107"
       transform="matrix(0.31456361,0,0,-0.31456361,4.4338012,237.84894)">
      <g
         id="g1109"
         clip-path="url(#clipPath1113)">
        <g
           id="g1115"
           transform="translate(217.605,332.834)">
          <path
             d="m 0,0 c -0.034,-0.086 -0.062,-0.175 -0.083,-0.266 -0.182,-0.819 0.314,-1.621 0.787,-2.315 0.636,-0.932 1.272,-1.865 1.908,-2.797 0.062,-0.091 0.127,-0.184 0.22,-0.241 0.175,-0.106 0.397,-0.059 0.597,-0.022 0.416,0.076 0.85,0.098 1.231,0.279 0.382,0.181 0.704,0.584 0.621,0.998 -0.122,0.603 -0.998,0.885 -0.995,1.501 0.002,0.422 0.47,0.721 0.891,0.694 0.421,-0.028 0.788,-0.285 1.116,-0.55 C 6.657,-3.014 7.01,-3.339 7.24,-3.748 7.471,-4.156 7.564,-4.664 7.391,-5.099 7.163,-5.673 6.558,-5.981 6.049,-6.33 5.54,-6.678 5.044,-7.25 5.213,-7.844 c 0.063,-0.224 0.214,-0.411 0.375,-0.579 0.933,-0.97 2.343,-1.457 3.675,-1.271 0.213,0.03 0.435,0.082 0.59,0.23 0.195,0.186 0.24,0.479 0.237,0.749 -0.004,0.377 -0.085,0.766 -0.311,1.069 -0.225,0.303 -0.616,0.5 -0.985,0.421 -0.369,-0.079 -0.661,-0.481 -0.553,-0.843 0.06,0.219 0.3,0.355 0.527,0.347 0.227,-0.008 0.435,-0.134 0.599,-0.292 0.088,-0.086 0.17,-0.188 0.192,-0.309 C 9.622,-8.668 9.2,-8.897 8.851,-8.927 8.219,-8.98 7.568,-8.755 7.104,-8.323 6.82,-8.059 6.596,-7.675 6.682,-7.297 c 0.063,0.273 0.27,0.483 0.457,0.691 0.481,0.535 0.88,1.156 1.076,1.848 C 8.41,-4.066 8.39,-3.299 8.072,-2.653 7.73,-1.957 7.068,-1.452 6.34,-1.183 5.613,-0.914 4.821,-0.863 4.046,-0.9 3.747,-0.915 3.441,-0.945 3.174,-1.08 2.907,-1.214 2.684,-1.475 2.677,-1.774 2.668,-2.151 2.988,-2.519 2.853,-2.871 2.34,-2.734 2.081,-2.138 2.079,-1.606 c -0.003,0.531 0.175,1.049 0.203,1.58 0.042,0.838 -0.283,1.731 0.079,2.488 0.179,0.373 0.508,0.662 0.665,1.045 0.221,0.54 0.09,1.234 0.497,1.65 0.133,0.137 0.309,0.222 0.466,0.33 0.315,0.217 0.86,0.947 0.995,1.306 C 4.764,6.777 4.5,6.507 4.28,6.491 4.142,6.219 3.562,5.779 3.259,5.814 3.112,5.259 2.79,4.889 2.502,4.393 2.333,4.102 2.134,3.868 1.994,3.563 1.655,2.822 1.443,1.945 1.544,1.136 1.573,0.902 1.632,0.666 1.594,0.433 1.557,0.209 1.433,0.01 1.366,-0.207 1.278,-0.493 1.101,-0.817 1.133,-1.115 c 0.126,-1.163 0.776,-1.908 1.63,-2.44 0.054,-0.034 0.211,-0.257 0.272,-0.238 0.052,0.016 0.315,-0.104 0.346,-0.059 0.378,0.563 -0.382,1.423 0.032,1.961 0.123,0.161 0.321,0.248 0.517,0.295 2.026,0.481 2.442,-0.295 3.146,-0.613 0.319,-0.145 0.816,-1.519 0.603,-1.204 -0.061,0.09 -0.746,0.798 -1.115,1.082 -0.87,0.668 -1.254,0.733 -2.21,0.504 C 4.122,-1.882 3.882,-1.985 3.764,-2.192 3.694,-2.314 3.676,-2.459 3.674,-2.601 3.661,-3.251 3.96,-3.901 4.462,-4.315 4.072,-4.559 3.537,-4.888 3.114,-4.705 2.692,-4.522 2.361,-3.847 2.019,-3.54 1.764,-3.311 1.505,-3.076 1.343,-2.775 1.193,-2.494 1.314,-2.079 1.083,-1.86 0.72,-1.515 0.375,-0.789 0.66,-0.011 0.741,0.211 1.206,0.591 1.246,0.824 1.287,1.067 1.262,1.316 1.261,1.562 1.258,2.331 1.157,3.39 1.392,4.122 1.53,4.556 2.011,4.686 2.274,5.058 2.437,5.289 2.646,5.491 2.761,5.749 2.892,6.042 2.889,6.38 3.012,6.677 3.134,6.971 3.369,7.202 3.526,7.478 3.682,7.755 3.744,8.136 3.527,8.368 3.152,7.975 2.776,7.581 2.4,7.187 2.157,6.933 1.897,6.633 1.924,6.282 1.941,6.07 2.064,5.865 2.023,5.656 1.97,5.39 1.687,5.251 1.461,5.103 0.875,4.719 0.514,4.016 0.54,3.317 0.563,2.734 0.833,2.164 0.743,1.588 0.652,1.008 0.214,0.543 0,0"
             style="fill:#231f20;fill-opacity:1;fill-rule:nonzero;stroke:none"
             id="path1117" />
        </g>
        <g
           id="g1119"
           transform="translate(240.278,332.834)">
          <path
             d="m 0,0 c 0.034,-0.086 0.062,-0.175 0.083,-0.266 0.182,-0.819 -0.314,-1.621 -0.787,-2.315 -0.636,-0.932 -1.272,-1.865 -1.908,-2.797 -0.062,-0.091 -0.127,-0.184 -0.22,-0.241 -0.175,-0.106 -0.397,-0.059 -0.597,-0.022 -0.416,0.076 -0.85,0.098 -1.231,0.279 -0.382,0.181 -0.704,0.584 -0.621,0.998 0.122,0.603 0.998,0.885 0.995,1.501 -0.002,0.422 -0.47,0.721 -0.891,0.694 -0.421,-0.028 -0.788,-0.285 -1.116,-0.55 -0.364,-0.295 -0.717,-0.62 -0.947,-1.029 -0.231,-0.408 -0.324,-0.916 -0.151,-1.351 0.228,-0.574 0.833,-0.882 1.342,-1.231 0.509,-0.348 1.005,-0.92 0.836,-1.514 -0.063,-0.224 -0.214,-0.411 -0.375,-0.579 -0.933,-0.97 -2.343,-1.457 -3.675,-1.271 -0.213,0.03 -0.435,0.082 -0.59,0.23 -0.195,0.186 -0.24,0.479 -0.237,0.749 0.004,0.377 0.085,0.766 0.311,1.069 0.225,0.303 0.616,0.5 0.985,0.421 0.369,-0.079 0.661,-0.481 0.553,-0.843 -0.06,0.219 -0.3,0.355 -0.527,0.347 -0.227,-0.008 -0.435,-0.134 -0.599,-0.292 -0.088,-0.086 -0.17,-0.188 -0.192,-0.309 -0.063,-0.346 0.359,-0.575 0.708,-0.605 0.632,-0.053 1.283,0.172 1.747,0.604 0.284,0.264 0.508,0.648 0.422,1.026 -0.063,0.273 -0.27,0.483 -0.457,0.691 -0.481,0.535 -0.88,1.156 -1.076,1.848 -0.195,0.692 -0.175,1.459 0.143,2.105 0.342,0.696 1.004,1.201 1.732,1.47 0.727,0.269 1.519,0.32 2.294,0.283 0.299,-0.015 0.605,-0.045 0.872,-0.18 0.267,-0.134 0.49,-0.395 0.497,-0.694 0.009,-0.377 -0.311,-0.745 -0.176,-1.097 0.513,0.137 0.772,0.733 0.774,1.265 0.003,0.531 -0.175,1.049 -0.203,1.58 -0.042,0.838 0.283,1.731 -0.079,2.488 -0.179,0.373 -0.508,0.662 -0.665,1.045 -0.221,0.54 -0.09,1.234 -0.497,1.65 -0.133,0.137 -0.309,0.222 -0.466,0.33 -0.315,0.217 -0.86,0.947 -0.995,1.306 0.22,-0.016 0.484,-0.286 0.704,-0.302 0.138,-0.272 0.718,-0.712 1.021,-0.677 0.147,-0.555 0.469,-0.925 0.757,-1.421 0.169,-0.291 0.368,-0.525 0.508,-0.83 0.339,-0.741 0.551,-1.618 0.45,-2.427 -0.029,-0.234 -0.088,-0.47 -0.05,-0.703 0.037,-0.224 0.161,-0.423 0.228,-0.64 0.088,-0.286 0.265,-0.61 0.233,-0.908 -0.126,-1.163 -0.776,-1.908 -1.63,-2.44 -0.054,-0.034 -0.211,-0.257 -0.272,-0.238 -0.052,0.016 -0.315,-0.104 -0.346,-0.059 -0.378,0.563 0.382,1.423 -0.032,1.961 -0.123,0.161 -0.321,0.248 -0.517,0.295 -2.026,0.481 -2.442,-0.295 -3.146,-0.613 -0.319,-0.145 -0.816,-1.519 -0.603,-1.204 0.061,0.09 0.746,0.798 1.115,1.082 0.87,0.668 1.254,0.733 2.21,0.504 0.232,-0.055 0.472,-0.158 0.59,-0.365 0.07,-0.122 0.088,-0.267 0.09,-0.409 0.013,-0.65 -0.286,-1.3 -0.788,-1.714 0.39,-0.244 0.925,-0.573 1.348,-0.39 0.423,0.183 0.753,0.858 1.095,1.165 0.255,0.229 0.514,0.464 0.676,0.765 0.15,0.281 0.029,0.696 0.26,0.915 0.363,0.345 0.708,1.071 0.423,1.849 -0.081,0.222 -0.546,0.602 -0.586,0.835 -0.041,0.243 -0.016,0.492 -0.015,0.738 0.003,0.769 0.104,1.828 -0.131,2.56 C -1.53,4.556 -2.011,4.686 -2.274,5.058 -2.437,5.289 -2.646,5.491 -2.761,5.749 -2.892,6.042 -2.889,6.38 -3.012,6.677 -3.134,6.971 -3.369,7.202 -3.526,7.478 -3.682,7.755 -3.744,8.136 -3.527,8.368 -3.152,7.975 -2.776,7.581 -2.4,7.187 -2.157,6.933 -1.897,6.633 -1.924,6.282 -1.941,6.07 -2.064,5.865 -2.023,5.656 -1.97,5.39 -1.687,5.251 -1.461,5.103 -0.875,4.719 -0.514,4.016 -0.54,3.317 -0.563,2.734 -0.833,2.164 -0.743,1.588 -0.652,1.008 -0.214,0.543 0,0"
             style="fill:#231f20;fill-opacity:1;fill-rule:nonzero;stroke:none"
             id="path1121" />
        </g>
        <g
           id="g1123"
           transform="translate(224.177,336.951)">
          <path
             d="m 0,0 c 0.11,-0.086 0.706,-0.709 0.785,-0.713 -0.352,0.02 -0.777,-0.335 -1.005,-0.595 -0.382,-0.432 -1.393,-0.775 -1.367,-1.356 0.697,-0.509 2.651,0.302 3.497,-0.59 0.35,-0.369 1.034,-1.173 1.034,-1.718 0,-0.533 -0.025,-0.62 0.041,-1.131 0.047,-0.366 -0.093,-0.885 0.131,-1.178 0.327,-0.426 0.972,-0.791 1.061,-1.357 0.071,-0.451 0.103,-1.366 0.039,-1.81 -0.037,-0.254 -0.288,-0.508 -0.538,-0.657 -0.55,-0.328 -1.697,0.363 -1.2,1.057 0.174,0.081 0.384,0.083 0.493,-0.086 -0.317,-0.064 -0.035,-0.616 0.231,-0.54 0.747,0.226 0.557,1.844 -0.238,2.638 -0.184,0.183 -0.54,0.706 -0.633,0.936 -0.122,0.3 -0.078,0.619 -0.119,0.95 -0.072,0.587 -0.281,1.191 -0.603,1.625 -0.42,0.566 -0.997,0.877 -1.687,0.908 -0.624,0.029 -1.042,-0.314 -1.586,-0.477 -1.015,-0.303 -1.35,1.21 -0.931,2.004 0.165,0.313 0.492,0.598 0.674,0.917 0.169,0.298 0.314,0.621 0.597,0.849 C -0.933,-0.01 -0.067,0.053 0,0"
             style="fill:#231f20;fill-opacity:1;fill-rule:nonzero;stroke:none"
             id="path1125" />
        </g>
        <g
           id="g1127"
           transform="translate(233.841,337.596)">
          <path
             d="m 0,0 c -0.11,-0.091 -0.296,-0.375 -0.375,-0.38 0.352,0.022 0.633,-0.544 0.862,-0.819 0.381,-0.458 0.991,-1.023 0.966,-1.636 -0.698,-0.539 -2.75,0.236 -3.363,-0.607 -0.31,-0.426 -1.034,-1.24 -1.034,-1.817 0,-0.563 0.025,-0.655 -0.041,-1.196 -0.047,-0.387 0.093,-0.936 -0.131,-1.246 -0.327,-0.45 -0.972,-0.836 -1.061,-1.435 -0.071,-0.478 -0.103,-1.445 -0.039,-1.914 0.037,-0.269 0.288,-0.537 0.538,-0.696 0.55,-0.347 1.697,0.384 1.2,1.118 -0.174,0.086 -0.384,0.088 -0.493,-0.091 0.317,-0.067 0.035,-0.651 -0.231,-0.57 -0.747,0.239 -0.557,1.95 0.238,2.789 0.184,0.194 0.54,0.747 0.633,0.991 0.122,0.317 0.078,0.654 0.119,1.004 0.072,0.621 0.281,1.26 0.603,1.719 0.42,0.599 0.997,0.927 1.687,0.961 0.624,0.03 1.042,-0.332 1.586,-0.505 1.015,-0.321 1.35,1.279 0.931,2.119 C 2.43,-1.879 2.103,-1.578 1.921,-1.24 1.752,-0.925 0.067,0.056 0,0"
             style="fill:#231f20;fill-opacity:1;fill-rule:nonzero;stroke:none"
             id="path1129" />
        </g>
        <g
           id="g1131"
           transform="translate(226.296,342.117)">
          <path
             d="m 0,0 c 0.96,0.082 1.934,-0.246 2.891,-0.202 0.939,0.043 1.757,0.051 2.682,-0.081 0.396,-0.056 0.81,-0.1 1.214,-0.083 0.486,0.022 0.978,0.254 1.454,0.246 C 8.025,-0.766 7.295,-1.177 6.843,-1.627 6.268,-2.2 6.215,-2.885 5.776,-3.502 5.579,-3.779 5.365,-3.943 5.266,-4.284 5.168,-4.618 5.196,-4.962 5.058,-5.28 4.871,-5.714 4.587,-6.062 4.42,-6.512 4.253,-6.96 4.144,-7.164 3.754,-7.361 3.086,-7.697 3.202,-8.177 2.949,-8.826 2.832,-8.538 2.711,-8.313 2.558,-8.142 2.29,-7.843 2.254,-7.628 2.077,-7.279 c -0.398,0.785 -1.082,1.274 -1.468,2.067 -0.276,0.566 -0.714,1.17 -0.839,1.789 -0.104,0.519 0.036,0.704 -0.467,0.95 -0.408,0.199 -0.529,0.159 -0.732,0.536 -0.176,0.328 -0.282,0.683 -0.399,1.031 -0.109,0.325 -0.305,0.596 -0.432,0.867 C -1.538,-0.131 -0.741,-0.064 0,0 m -4.341,0.523 c 0.126,-0.221 0.276,-0.135 0.462,-0.312 0.172,-0.164 0.121,-0.363 0.288,-0.527 0.127,-0.125 0.36,-0.628 0.475,-0.781 0.101,-0.135 0.219,-1.48 0.284,-1.63 0.289,-0.668 0.857,-0.58 1.261,-1.208 0.431,-0.67 0.542,-0.547 1.033,-1.181 0.48,-0.619 0.455,-1.063 0.942,-1.675 0.198,-0.25 0.531,-0.536 0.67,-0.815 0.149,-0.299 0.268,-0.501 0.344,-0.805 0.065,-0.259 0.262,-0.509 0.349,-0.766 0.048,-0.142 0.034,-0.304 0.121,-0.448 0.129,-0.212 0.34,-0.242 0.463,-0.462 0.095,-0.171 0.444,-1.229 0.427,-1.403 0.506,-0.053 0.518,1.236 0.622,1.614 0.102,0.373 0.096,0.626 0.342,0.964 0.286,0.392 1.011,0.734 1.361,1.083 0.407,0.405 0.503,0.578 0.548,1.087 0.03,0.344 0.049,0.734 0.177,1.064 0.111,0.286 0.324,0.562 0.507,0.817 0.3,0.418 0.295,0.555 0.405,1.016 0.296,1.247 1.583,1.912 2.13,3.005 0.172,0.343 0.248,0.696 0.535,0.991 C 9.59,0.34 9.79,0.477 9.966,0.67 9.886,0.666 9.753,0.668 9.657,0.699 9.326,0.803 9.178,0.757 8.837,0.746 8.393,0.733 7.954,0.747 7.498,0.711 7.168,0.684 6.831,0.588 6.513,0.572 6.438,0.969 5.463,0.637 5.143,0.711 4.975,0.749 4.865,0.876 4.689,0.917 4.341,1 3.929,0.911 3.563,0.988 3.044,1.096 2.513,1.2 1.97,1.163 1.345,1.12 0.749,0.913 0.101,0.886 -1.34,0.826 -2.915,1.023 -4.41,0.779 -4.386,0.704 -4.383,0.597 -4.341,0.523"
             style="fill:#231f20;fill-opacity:1;fill-rule:nonzero;stroke:none"
             id="path1133" />
        </g>
      </g>
    </g>
  </g>
</svg>
