<?xml version="1.0" encoding="UTF-8" standalone="no"?>
<!-- Created with Inkscape (http://www.inkscape.org/) -->

<svg
   width="21.242901"
   height="24"
   viewBox="0 0 5.6205174 6.35"
   version="1.1"
   id="svg24002"
   inkscape:version="1.2.1 (9c6d41e4, 2022-07-14)"
   sodipodi:docname="sorcery.svg"
   xmlns:inkscape="http://www.inkscape.org/namespaces/inkscape"
   xmlns:sodipodi="http://sodipodi.sourceforge.net/DTD/sodipodi-0.dtd"
   xmlns="http://www.w3.org/2000/svg"
   xmlns:svg="http://www.w3.org/2000/svg">
  <sodipodi:namedview
     id="namedview24004"
     pagecolor="#505050"
     bordercolor="#eeeeee"
     borderopacity="1"
     inkscape:showpageshadow="0"
     inkscape:pageopacity="0"
     inkscape:pagecheckerboard="0"
     inkscape:deskcolor="#505050"
     inkscape:document-units="mm"
     showgrid="false"
     inkscape:zoom="0.70199214"
     inkscape:cx="56.980695"
     inkscape:cy="59.829729"
     inkscape:window-width="1390"
     inkscape:window-height="938"
     inkscape:window-x="0"
     inkscape:window-y="25"
     inkscape:window-maximized="0"
     inkscape:current-layer="layer1" />
  <defs
     id="defs23999">
    <clipPath
       clipPathUnits="userSpaceOnUse"
       id="clipPath1049">
      <path
         d="m 109.339,321.301 h 24.7 V 346 h -24.7 z"
         id="path1047" />
    </clipPath>
  </defs>
  <g
     inkscape:label="Layer 1"
     inkscape:groupmode="layer"
     id="layer1"
     transform="translate(-89.965347,-132.85412)">
    <g
       id="g1043"
       transform="matrix(0.28271226,0,0,-0.28271226,58.334369,230.5247)">
      <g
         id="g1045"
         clip-path="url(#clipPath1049)">
        <g
           id="g1051"
           transform="translate(121.346,344.975)">
          <path
             d="m 0,0 c 0.018,-0.022 -0.571,-1.462 -0.507,-1.553 0.71,-1.011 -0.067,-1.849 0.155,-2.734 0.527,-2.11 -0.172,-3.244 -0.162,-4.867 0.006,-1.03 0.158,-2.006 0.321,-2.991 0.167,-1.004 -0.016,-1.607 0,-2.612 0.023,-1.388 0.364,-2.563 0.193,-3.929 -0.079,-0.627 -0.257,-1.21 -0.174,-1.863 0.061,-0.479 0.224,-0.982 0.216,-1.41 -0.006,0.041 -0.004,0.08 0.006,0.119 0.458,-0.112 0.359,1.209 0.418,1.595 0.134,0.866 0.548,1.743 0.435,2.628 -0.152,1.185 -0.711,1.685 -0.172,3.498 0.197,0.662 -0.189,1.2 -0.25,1.626 -0.085,0.599 0.073,1.55 0.008,2.146 -0.137,1.239 0.374,1.778 0.113,2.973 -0.23,1.056 0,1.626 0,3.019 0,0.98 0.103,1.651 0.086,2.64 C 0.677,-1.211 0.531,0.169 0.248,0.502 0.073,0.236 0.198,-0.244 0,0"
             style="fill:#231f20;fill-opacity:1;fill-rule:nonzero;stroke:none"
             id="path1053" />
        </g>
        <g
           id="g1055"
           transform="translate(116.801,328.416)">
          <path
             d="m 0,0 c -0.19,-0.173 -0.474,-0.163 -0.662,-0.303 -0.236,-0.177 -0.235,-0.365 -0.311,-0.628 0.768,-0.136 0.123,-1.47 0.454,-1.952 0.226,-0.328 0.341,-0.16 0.592,-0.209 0.373,-0.075 0.353,-0.169 0.613,-0.333 0.297,-0.187 0.659,-0.122 0.933,-0.349 0.17,0.186 0.379,0.281 0.557,0.471 0.152,0.163 0.276,0.359 0.436,0.518 0.209,0.208 0.529,0.357 0.702,0.588 0.263,0.354 0.033,0.481 -0.058,0.863 C 3.174,-0.987 3.195,-0.667 3.017,-0.341 2.749,0.152 1.715,0.607 1.122,0.436 1.086,0.426 1.053,0.223 0.98,0.18 0.904,0.136 0.639,0.085 0.544,0.051 0.314,-0.031 0.049,-0.155 0,0"
             style="fill:#231f20;fill-opacity:1;fill-rule:nonzero;stroke:none"
             id="path1057" />
        </g>
        <g
           id="g1059"
           transform="translate(127.019,326.814)">
          <path
             d="M 0,0 C 0.029,0.029 0.059,0.059 0.088,0.088 0.059,0.059 0.029,0.029 0,0 0.655,0.626 0.868,0.935 0.14,1.488 -0.014,1.606 -0.257,1.734 -0.419,1.804 -0.495,1.837 -0.613,1.784 -0.708,1.83 -0.872,1.911 -0.962,2.087 -1.14,2.147 -1.645,2.315 -2.249,2.072 -2.639,1.844 -3.081,1.586 -3.55,1.554 -3.707,0.964 -3.824,0.52 -3.564,0.148 -3.638,-0.182 -3.72,-0.543 -4.065,-0.681 -3.755,-1.097 c 0.265,-0.356 0.942,-0.417 1.332,-0.557 0.412,-0.147 0.776,-0.161 1.21,0.083 C -0.769,-1.321 -0.425,0.137 0,0"
             style="fill:#231f20;fill-opacity:1;fill-rule:nonzero;stroke:none"
             id="path1061" />
        </g>
        <g
           id="g1063"
           transform="translate(112.304,327.365)">
          <path
             d="M 0,0 C 0.261,-0.141 0.227,0.18 0.352,0.324 0.593,0.602 0.926,0.758 1.257,0.889 1.93,1.154 2.595,1.618 3.188,2.027 3.464,2.218 3.76,2.419 4.053,2.574 4.216,2.66 4.577,2.835 4.783,2.816 4.988,2.798 5.033,2.612 5.237,2.607 5.557,2.598 6.94,3.574 7.093,3.201 7.346,3.234 7.615,3.24 7.864,3.29 8.053,3.328 8.287,3.492 8.476,3.489 8.597,3.487 8.593,3.361 8.676,3.354 9.311,3.296 9.939,3.379 10.584,3.433 10.696,3.139 12.02,3.431 12.334,3.41 13.088,3.358 13.96,3.112 14.524,2.547 14.872,2.198 14.951,2.267 15.445,2.089 16.058,1.868 16.676,1.624 17.31,1.418 17.612,1.319 17.91,1.219 18.213,1.126 18.47,1.048 18.6,0.885 18.766,0.808 18.947,0.723 19.303,0.734 19.35,0.508 20.033,0.984 17.344,2.578 17.053,2.822 16.314,3.445 15.234,3.953 14.321,4.219 13.862,4.352 13.441,4.371 12.986,4.461 12.395,4.578 11.872,4.866 11.275,4.973 10.825,5.054 10.384,5.069 9.93,5.107 9.35,5.155 8.824,5.054 8.247,5.073 7.229,5.106 6.423,5.181 5.434,4.892 4.919,4.741 4.311,4.677 3.831,4.43 3.51,4.265 3.292,3.99 3.019,3.782 2.266,3.208 1.519,2.76 0.833,2.112 0.371,1.677 -0.016,1.34 -0.216,0.743 -0.331,0.402 -0.271,0.042 -0.42,-0.284 -0.229,-0.439 0.001,-0.16 0.216,-0.064 0.22,-0.023 0.211,0.013 0,0"
             style="fill:#231f20;fill-opacity:1;fill-rule:nonzero;stroke:none"
             id="path1065" />
        </g>
        <g
           id="g1067"
           transform="translate(117.985,340.867)">
          <path
             d="M 0,0 C -0.066,-0.107 0.083,-0.092 0.149,-0.143 0.277,-0.241 0.348,-0.377 0.407,-0.512 0.528,-0.787 0.74,-1.058 0.927,-1.3 1.014,-1.412 1.107,-1.533 1.177,-1.652 1.216,-1.719 1.296,-1.866 1.287,-1.951 1.278,-2.035 1.192,-2.053 1.189,-2.137 1.184,-2.268 1.631,-2.831 1.458,-2.895 1.472,-2.999 1.474,-3.109 1.497,-3.211 1.514,-3.288 1.589,-3.384 1.587,-3.461 1.586,-3.511 1.528,-3.509 1.524,-3.543 1.495,-3.804 1.532,-4.06 1.555,-4.324 1.418,-4.371 1.55,-4.913 1.539,-5.041 1.512,-5.35 1.396,-5.708 1.133,-5.941 0.971,-6.085 1.003,-6.116 0.919,-6.319 0.815,-6.571 0.701,-6.825 0.603,-7.085 0.557,-7.209 0.509,-7.331 0.466,-7.456 0.429,-7.561 0.353,-7.615 0.317,-7.683 0.277,-7.758 0.281,-7.904 0.176,-7.923 c 0.218,-0.279 0.963,0.827 1.077,0.947 0.29,0.305 0.528,0.749 0.653,1.123 0.064,0.189 0.073,0.361 0.116,0.548 0.056,0.242 0.191,0.457 0.242,0.702 0.039,0.185 0.047,0.366 0.066,0.552 0.024,0.237 -0.021,0.452 -0.011,0.689 0.019,0.416 0.056,0.747 -0.075,1.151 C 2.176,-2 2.148,-1.752 2.036,-1.556 1.961,-1.424 1.834,-1.336 1.739,-1.225 1.476,-0.918 1.271,-0.614 0.974,-0.335 0.774,-0.147 0.619,0.011 0.344,0.091 0.187,0.137 0.02,0.111 -0.13,0.171 -0.202,0.093 -0.074,-0.001 -0.03,-0.089 -0.011,-0.09 0.005,-0.086 0,0"
             style="fill:#231f20;fill-opacity:1;fill-rule:nonzero;stroke:none"
             id="path1069" />
        </g>
        <g
           id="g1071"
           transform="translate(125.225,333.284)">
          <path
             d="m 0,0 c 0.066,0.107 -0.083,0.092 -0.149,0.143 -0.127,0.098 -0.199,0.234 -0.258,0.369 -0.121,0.275 -0.333,0.546 -0.52,0.788 -0.087,0.112 -0.18,0.233 -0.25,0.352 -0.039,0.067 -0.119,0.214 -0.11,0.299 0.009,0.084 0.095,0.102 0.098,0.186 0.005,0.131 -0.442,0.694 -0.269,0.758 -0.014,0.104 -0.016,0.214 -0.039,0.316 -0.017,0.077 -0.092,0.173 -0.09,0.25 10e-4,0.05 0.059,0.048 0.063,0.082 0.029,0.261 -0.008,0.517 -0.031,0.781 0.137,0.047 0.005,0.589 0.016,0.717 0.027,0.309 0.143,0.667 0.406,0.9 0.162,0.144 0.13,0.175 0.214,0.378 0.104,0.252 0.219,0.506 0.316,0.766 0.046,0.124 0.094,0.246 0.138,0.371 0.036,0.105 0.112,0.159 0.148,0.227 0.04,0.075 0.036,0.221 0.141,0.24 C -0.394,8.202 -1.139,7.096 -1.253,6.976 -1.543,6.671 -1.781,6.227 -1.906,5.853 -1.97,5.664 -1.979,5.492 -2.022,5.305 -2.078,5.063 -2.213,4.848 -2.264,4.603 -2.303,4.418 -2.311,4.237 -2.33,4.052 c -0.024,-0.238 0.021,-1.2 0.011,-1.437 -0.019,-0.416 -0.056,0 0.075,-0.404 0.068,-0.211 0.096,-0.459 0.208,-0.655 0.075,-0.132 0.202,-0.22 0.297,-0.331 0.263,-0.307 0.468,-0.611 0.765,-0.89 0.2,-0.188 0.355,-0.346 0.63,-0.426 0.157,-0.046 0.324,-0.02 0.474,-0.08 0.072,0.078 -0.056,0.172 -0.1,0.26 C 0.011,0.09 -0.005,0.086 0,0"
             style="fill:#231f20;fill-opacity:1;fill-rule:nonzero;stroke:none"
             id="path1073" />
        </g>
      </g>
    </g>
  </g>
</svg>
