<?xml version="1.0" encoding="UTF-8" standalone="no"?>
<!-- Created with Inkscape (http://www.inkscape.org/) -->

<svg
   width="25.876562"
   height="24"
   viewBox="0 0 6.8465069 6.35"
   version="1.1"
   id="svg24140"
   inkscape:version="1.2.1 (9c6d41e4, 2022-07-14)"
   sodipodi:docname="the_beyond.svg"
   xmlns:inkscape="http://www.inkscape.org/namespaces/inkscape"
   xmlns:sodipodi="http://sodipodi.sourceforge.net/DTD/sodipodi-0.dtd"
   xmlns="http://www.w3.org/2000/svg"
   xmlns:svg="http://www.w3.org/2000/svg">
  <sodipodi:namedview
     id="namedview24142"
     pagecolor="#505050"
     bordercolor="#eeeeee"
     borderopacity="1"
     inkscape:showpageshadow="0"
     inkscape:pageopacity="0"
     inkscape:pagecheckerboard="0"
     inkscape:deskcolor="#505050"
     inkscape:document-units="mm"
     showgrid="false"
     inkscape:zoom="0.70199214"
     inkscape:cx="72.650386"
     inkscape:cy="113.96139"
     inkscape:window-width="1390"
     inkscape:window-height="938"
     inkscape:window-x="0"
     inkscape:window-y="25"
     inkscape:window-maximized="0"
     inkscape:current-layer="layer1" />
  <defs
     id="defs24137">
    <clipPath
       clipPathUnits="userSpaceOnUse"
       id="clipPath1081">
      <path
         d="m 162.961,321.301 h 24.7 V 346 h -24.7 z"
         id="path1079" />
    </clipPath>
  </defs>
  <g
     inkscape:label="Layer 1"
     inkscape:groupmode="layer"
     id="layer1"
     transform="translate(-85.933832,-118.24398)">
    <g
       id="g1075"
       transform="matrix(0.32039777,0,0,-0.32039777,33.180631,228.17409)">
      <g
         id="g1077"
         clip-path="url(#clipPath1081)">
        <g
           id="g1083"
           transform="translate(185.867,330.774)">
          <path
             d="m 0,0 c -0.288,1.071 -0.426,2.232 -0.691,3.309 -0.115,0.465 -0.295,0.85 -0.531,1.283 -0.325,0.594 -0.536,1.443 -0.947,1.962 -0.665,0.839 -1.458,1.272 -2.287,1.889 -0.633,0.47 -0.936,1.171 -1.661,1.479 -0.876,0.371 -1.629,0.754 -2.465,1.256 -1.343,0.806 -2.487,0.508 -3.822,0.841 -0.282,0.071 -0.552,0.184 -0.834,0.254 -1.257,0.312 -2.269,-0.747 -3.423,-0.472 -0.279,-0.085 -0.558,-0.168 -0.841,-0.239 -0.587,-0.147 -0.912,-0.724 -1.337,-1.11 -0.259,-0.234 -0.939,-1.051 -1.221,-1.133 1.081,0.342 2.024,1.081 3.201,1.191 1.124,0.105 2.224,0.434 3.339,0.53 0.759,0.065 1.568,-0.239 2.282,-0.463 0.054,-0.017 0.108,-0.033 0.161,-0.049 0.625,-0.183 1.346,-0.197 1.993,-0.512 0.664,-0.323 1.254,-0.819 1.885,-1.199 0.591,-0.355 1.136,-0.789 1.707,-1.231 0.86,-0.665 1.634,-1.065 2.256,-2.009 0.655,-0.993 1.981,-2.182 1.667,-3.476 -0.009,-0.036 -0.022,-0.065 -0.038,-0.093 0.123,-0.352 0.246,-0.7 0.376,-1.033 0.32,-0.825 0.469,-2.955 0.257,-4.331 0.084,-0.007 0.158,-0.027 0.223,-0.058 0.258,0.331 0.655,0.68 0.743,1.102 C 0.186,-1.392 0.218,-0.81 0,0"
             style="fill:#231f20;fill-opacity:1;fill-rule:nonzero;stroke:none"
             id="path1085" />
        </g>
        <g
           id="g1087"
           transform="translate(178.055,339.31)">
          <path
             d="M 0,0 C 0.196,0 1.195,-0.631 1.276,-1.015 0.248,-1.367 -1.43,-1.594 -2.105,-2.613 -2.831,-3.708 -2.4,-4.9 -2.918,-6.087 c -0.293,-0.669 -0.755,-1.434 -1.46,-1.7 -0.832,-0.314 -1.828,0.096 -2.641,-0.377 -1.174,-0.682 -1.036,-2.204 -1.534,-3.28 -0.607,-1.314 -0.985,-2 -2.133,-2.8 0.525,0.514 1.04,1.096 1.252,1.809 0.281,0.943 -0.015,2.076 0.428,2.997 0.131,0.271 0.314,0.39 0.449,0.6 0.238,0.37 0.237,0.596 0.425,0.973 0.254,0.51 0.674,0.818 1.179,1.002 0.542,0.197 1.141,0.136 1.65,0.326 0.5,0.187 0.607,0.485 1.093,0.724 -0.005,2.702 1.896,4.433 4.109,5.643 C -0.21,-0.173 -0.319,-0.174 0,0"
             style="fill:#231f20;fill-opacity:1;fill-rule:nonzero;stroke:none"
             id="path1089" />
        </g>
        <g
           id="g1091"
           transform="translate(165.963,339.653)">
          <path
             d="m 0,0 c 0.493,0.091 1.047,0.177 1.531,0.33 -0.241,-0.72 -1.33,-1.228 -1.537,-1.957 -0.279,-0.981 0.821,-1.348 1.23,-2.037 1.042,-1.756 -1.493,-2.929 -1.567,-4.655 -0.048,-1.125 0.736,-1.77 0.276,-2.909 -0.267,1.436 -1.752,2.986 -1.069,4.536 0.304,0.689 1.531,1.408 1.209,2.299 -0.29,0.801 -1.011,0.952 -1.102,1.992 C -1.081,-1.812 -0.466,-0.179 0,0"
             style="fill:#231f20;fill-opacity:1;fill-rule:nonzero;stroke:none"
             id="path1093" />
        </g>
        <g
           id="g1095"
           transform="translate(184.144,329.533)">
          <path
             d="m 0,0 c 0,-0.593 -0.051,-1.731 0.073,-2.474 -0.466,-0.003 -0.909,-0.278 -1.355,-0.361 -0.654,-0.12 -1.34,-0.031 -1.996,-0.186 -1.22,-0.288 -1.72,-0.908 -2.294,-1.871 -1.205,-2.021 -3.265,-1.058 -5.234,-0.858 -1.186,0.12 -2.037,0.303 -2.988,-0.497 1.54,1.979 3.405,0.915 5.39,1.015 2.518,0.127 2.58,3.039 4.805,3.5 C -2.72,-1.55 -0.375,-1.726 0,0"
             style="fill:#231f20;fill-opacity:1;fill-rule:nonzero;stroke:none"
             id="path1097" />
        </g>
        <g
           id="g1099"
           transform="translate(181.743,335.451)">
          <path
             d="m 0,0 c 0.197,0.041 0.968,-0.708 0.993,-1.288 -0.985,-0.529 -2.5,-0.659 -3.346,-1.368 -0.775,-0.65 -0.572,-1.94 -1.271,-2.644 -0.601,-0.606 -1.903,-0.356 -2.701,-0.722 -1.124,-0.516 -1.12,-1.131 -1.789,-1.994 -0.651,-0.84 -2.263,-1.493 -2.848,-1.493 0.715,0.364 1.608,0.779 2.047,1.467 0.555,0.868 0.63,1.768 1.59,2.414 0.852,0.574 2.048,0.566 2.826,1.255 0.782,0.694 0.656,1.84 1.282,2.615 0.618,0.764 1.885,1.259 2.814,1.571 C -0.568,-0.275 -0.748,-0.298 0,0"
             style="fill:#231f20;fill-opacity:1;fill-rule:nonzero;stroke:none"
             id="path1101" />
        </g>
        <g
           id="g1103"
           transform="translate(172.008,341.139)">
          <path
             d="m 0,0 c -0.029,-0.057 -0.073,-0.108 -0.128,-0.148 -0.096,-0.069 -0.196,-0.131 -0.297,-0.189 -0.252,-0.384 -0.218,-0.757 -0.421,-1.076 -0.2,-0.313 -0.596,-0.543 -0.844,-0.826 -0.833,-0.955 -0.24,-1.319 -0.16,-2.326 0.082,-1.025 -0.644,-0.894 -1.182,-1.445 -0.99,-1.011 -1.38,-3.674 -1.278,-5.074 0.395,0.997 0.233,2.218 0.819,3.259 0.599,1.064 1.426,0.784 2.27,1.483 0.946,0.783 0.24,1.907 0.32,2.911 0.107,1.344 1.321,1.375 2.086,2.226 C 2.253,-0.019 0.977,0.022 0,0"
             style="fill:#231f20;fill-opacity:1;fill-rule:nonzero;stroke:none"
             id="path1105" />
        </g>
      </g>
    </g>
  </g>
</svg>
