<?xml version="1.0" encoding="UTF-8" standalone="no"?>
<!-- Created with Inkscape (http://www.inkscape.org/) -->

<svg
   width="24.971453"
   height="24"
   viewBox="0 0 6.6070302 6.35"
   version="1.1"
   id="svg43517"
   inkscape:version="1.2.1 (9c6d41e4, 2022-07-14)"
   sodipodi:docname="black-stars-rise.svg"
   xmlns:inkscape="http://www.inkscape.org/namespaces/inkscape"
   xmlns:sodipodi="http://sodipodi.sourceforge.net/DTD/sodipodi-0.dtd"
   xmlns="http://www.w3.org/2000/svg"
   xmlns:svg="http://www.w3.org/2000/svg">
  <sodipodi:namedview
     id="namedview43519"
     pagecolor="#505050"
     bordercolor="#eeeeee"
     borderopacity="1"
     inkscape:showpageshadow="0"
     inkscape:pageopacity="0"
     inkscape:pagecheckerboard="0"
     inkscape:deskcolor="#505050"
     inkscape:document-units="mm"
     showgrid="false"
     inkscape:zoom="0.2102413"
     inkscape:cx="-49.942613"
     inkscape:cy="33.295075"
     inkscape:window-width="1309"
     inkscape:window-height="456"
     inkscape:window-x="0"
     inkscape:window-y="25"
     inkscape:window-maximized="0"
     inkscape:current-layer="layer1" />
  <defs
     id="defs43514">
    <clipPath
       clipPathUnits="userSpaceOnUse"
       id="clipPath28669">
      <path
         d="m 288.717,416.597 h 24.7 v 24.699 h -24.7 z"
         id="path28667" />
    </clipPath>
  </defs>
  <g
     inkscape:label="Layer 1"
     inkscape:groupmode="layer"
     id="layer1"
     transform="translate(-118.5535,-140.08445)">
    <g
       id="g28663"
       transform="matrix(0.33121956,0,0,-0.33121956,22.136776,285.86161)">
      <g
         id="g28665"
         clip-path="url(#clipPath28669)">
        <g
           id="g28671"
           transform="translate(303.035,429.904)">
          <path
             d="m 0,0 c -0.06,-0.012 -0.12,-0.003 -0.18,-0.014 -0.054,-0.01 -0.102,-0.01 -0.157,-0.009 -0.056,0 -0.105,-0.018 -0.159,-0.022 -0.066,-0.004 -0.13,0.02 -0.196,0.022 -0.073,0.002 -0.147,-0.001 -0.22,0 -0.085,0 -0.166,-0.018 -0.251,-0.02 -0.07,-0.002 -0.134,-0.003 -0.202,-0.023 -0.054,-0.016 -0.105,-0.042 -0.16,-0.058 -0.115,-0.033 -0.237,-0.033 -0.355,-0.039 -0.109,-0.007 -0.215,-0.018 -0.326,-0.018 -0.058,0.001 -0.117,0 -0.175,0 v -0.206 c 0,-0.048 0.002,-0.096 10e-4,-0.143 -0.002,-0.067 -0.019,-0.132 -0.022,-0.199 -0.005,-0.154 -0.02,-0.331 0.021,-0.481 0.045,-0.171 0.041,-0.345 0.039,-0.521 -10e-4,-0.156 0.035,-0.307 0.016,-0.464 -0.019,-0.164 -0.016,-0.326 -0.015,-0.491 0.001,-0.138 -0.021,-0.274 -0.02,-0.413 0.001,-0.217 -0.052,-0.428 -0.059,-0.642 -0.003,-0.093 -0.034,-0.186 -0.021,-0.281 0.006,-0.038 -0.002,-0.034 0.04,-0.039 0.033,-0.004 0.067,0.002 0.101,-0.001 0.061,-0.007 0.114,-0.019 0.176,-0.019 0.073,0.001 0.144,0.001 0.217,-0.009 0.083,-0.012 0.145,0 0.229,0.008 0.086,0.008 0.163,-0.009 0.248,-0.016 0.069,-0.007 0.141,-0.002 0.21,-0.002 0.075,10e-4 0.135,-0.015 0.207,-0.021 0.069,-0.005 0.141,0.001 0.211,0.002 0.064,0 0.122,-0.014 0.186,-0.026 0.131,-0.023 0.265,-0.016 0.397,-0.036 0.064,-0.009 0.131,-0.049 0.195,-0.034 0.006,0.045 0.028,0.084 0.039,0.127 0.021,0.081 0.025,0.166 0.025,0.25 -0.002,0.257 0.002,0.513 -0.02,0.77 -0.012,0.153 -0.045,0.303 -0.058,0.456 -0.016,0.19 0.036,0.368 0.04,0.556 0.002,0.128 -0.013,0.255 0,0.382 0.014,0.144 0.06,0.274 0.058,0.42 -0.003,0.225 0.007,0.443 0.034,0.666 0.022,0.189 0.025,0.373 0.025,0.562 v 0.04 C 0.079,0.012 0.042,0.009 0,0"
             style="fill:#231f20;fill-opacity:1;fill-rule:nonzero;stroke:none"
             id="path28673" />
        </g>
        <g
           id="g28675"
           transform="translate(300.654,434.405)">
          <path
             d="m 0,0 c 0.077,0.03 0.105,0.133 0.141,0.199 0.106,0.196 0.206,0.394 0.304,0.594 0.084,0.172 0.164,0.347 0.219,0.53 0.018,0.061 0.045,0.118 0.059,0.18 0.017,0.076 0.022,0.154 0.03,0.231 0.035,0.32 0.163,0.617 0.179,0.942 0.007,0.146 0.052,0.296 0.08,0.441 0.031,0.156 0.043,0.319 0.055,0.478 0.011,0.149 0.004,0.302 0.004,0.452 0,0.118 -0.021,0.262 0.011,0.376 0.021,0.073 0.065,0.131 0.07,0.21 C 1.156,4.716 1.143,4.801 1.15,4.883 1.155,4.946 1.167,5.002 1.169,5.065 1.172,5.15 1.224,5.224 1.231,5.307 1.236,5.369 1.242,5.416 1.255,5.477 1.262,5.511 1.275,5.558 1.266,5.593 1.26,5.614 1.24,5.627 1.235,5.647 1.216,5.716 1.309,5.749 1.33,5.677 1.339,5.647 1.329,5.599 1.329,5.567 V 5.421 c 0,-0.055 0.001,-0.109 0,-0.164 0,-0.068 0.015,-0.13 0.025,-0.197 C 1.365,4.978 1.37,4.905 1.396,4.828 1.421,4.756 1.445,4.666 1.449,4.591 1.454,4.502 1.447,4.412 1.449,4.323 1.45,4.2 1.415,4.079 1.43,3.956 1.436,3.903 1.447,3.854 1.449,3.801 1.451,3.743 1.444,3.685 1.447,3.628 1.45,3.575 1.467,3.525 1.469,3.472 1.472,3.409 1.461,3.347 1.473,3.284 1.52,3.026 1.553,2.767 1.564,2.503 1.574,2.301 1.605,2.1 1.647,1.903 1.654,1.871 1.658,1.839 1.67,1.809 1.686,1.77 1.706,1.767 1.735,1.743 1.76,1.722 1.764,1.704 1.776,1.671 1.817,1.558 1.85,1.443 1.883,1.327 1.939,1.126 1.992,0.924 2.078,0.734 2.113,0.656 2.119,0.575 2.146,0.496 2.164,0.444 2.201,0.403 2.218,0.348 2.243,0.263 2.246,0.16 2.301,0.089 2.322,0.063 2.404,0.012 2.403,-0.02 2.401,-0.056 2.191,-0.044 2.163,-0.041 2.098,-0.034 2.039,-0.003 1.975,0.011 1.921,0.023 1.867,0.02 1.812,0.02 1.719,0.021 1.637,-0.004 1.545,-0.016 1.482,-0.024 1.423,-0.023 1.36,-0.035 1.287,-0.049 1.204,-0.04 1.131,-0.04 1.061,-0.04 1.004,-0.053 0.938,-0.061 0.878,-0.068 0.821,-0.057 0.762,-0.07 0.687,-0.086 0.649,-0.063 0.576,-0.059 0.467,-0.053 0.364,-0.04 0.254,-0.04 0.182,-0.04 0.091,-0.054 0.021,-0.037 0.019,-0.013 0.042,0.007 0,0"
             style="fill:#231f20;fill-opacity:1;fill-rule:nonzero;stroke:none"
             id="path28677" />
        </g>
        <g
           id="g28679"
           transform="translate(304.849,427.44)">
          <path
             d="m 0,0 c -0.022,-0.095 -0.017,-0.191 -0.017,-0.288 0,-0.019 0.009,-0.074 -0.002,-0.087 -0.013,-0.015 -0.06,-0.001 -0.075,-0.005 -0.013,-0.003 -0.022,-0.015 -0.034,-0.017 -0.022,-0.005 -0.035,0.008 -0.057,0.014 -0.048,0.013 -0.081,-0.005 -0.127,-0.023 -0.092,-0.034 -0.197,-0.051 -0.293,-0.052 -0.016,-0.001 -0.063,-0.009 -0.075,0.001 -0.008,0.007 -0.022,0.042 -0.027,0.057 -0.013,0.039 -0.018,0.08 -0.017,0.122 0.001,0.043 -0.013,0.07 -0.018,0.112 -0.008,0.057 0.002,0.12 0.001,0.178 -0.001,0.039 -0.006,0.077 -0.011,0.114 -0.004,0.033 -0.007,0.065 -0.007,0.098 0.001,0.142 -0.031,0.296 -0.007,0.435 0.008,0.042 0.023,0.08 0.031,0.121 0.026,0.126 0.001,0.247 0.062,0.366 0.036,0.07 0.083,0.116 0.134,0.168 0.055,0.055 0.068,0.096 0.15,0.101 0.041,0.002 0.114,0.012 0.149,-0.01 0.044,-0.029 0.064,-0.082 0.085,-0.13 C -0.137,1.235 -0.116,1.19 -0.107,1.151 -0.1,1.121 -0.111,1.088 -0.099,1.059 -0.089,1.033 -0.063,1.021 -0.055,0.991 -0.045,0.96 -0.053,0.922 -0.051,0.89 -0.048,0.847 -0.036,0.805 -0.033,0.762 -0.029,0.714 -0.028,0.675 -0.021,0.628 -0.012,0.576 -0.023,0.522 -0.015,0.47 -0.007,0.411 0.016,0.357 0.018,0.298 0.022,0.198 0.022,0.097 0,0 M 1.142,-1.26 C 1.137,-1.067 1.064,-0.88 1.059,-0.685 1.053,-0.498 1.06,-0.31 1.06,-0.123 v 1.195 c 0,0.169 0.015,0.342 10e-4,0.51 C 1.053,1.675 1.038,1.768 1.035,1.861 1.032,1.938 1.032,2.009 1.002,2.083 0.98,2.137 0.96,2.185 0.965,2.244 0.971,2.311 0.96,2.401 0.995,2.463 0.944,2.479 0.881,2.467 0.827,2.467 0.731,2.466 0.647,2.436 0.553,2.427 0.305,2.402 0.054,2.447 -0.194,2.446 -0.357,2.445 -0.509,2.464 -0.669,2.481 -0.775,2.493 -0.88,2.514 -0.986,2.525 -1.084,2.535 -1.173,2.521 -1.27,2.512 -1.429,2.497 -1.592,2.51 -1.752,2.508 -1.816,2.507 -1.866,2.487 -1.93,2.485 -1.946,2.443 -1.94,2.388 -1.947,2.344 -1.958,2.265 -1.958,2.185 -1.976,2.107 -1.992,2.038 -2.018,1.97 -2.003,1.9 -1.997,1.875 -1.989,1.853 -1.989,1.827 -1.988,1.644 -2.045,1.453 -2.062,1.269 -2.08,1.076 -2.067,0.879 -2.067,0.686 c 0,-0.287 -0.028,-0.571 -0.027,-0.858 0,-0.139 -0.029,-0.273 -0.027,-0.411 10e-4,-0.123 0,-0.247 0,-0.37 0,-0.075 -0.007,-0.142 -0.021,-0.214 -0.014,-0.075 -0.03,-0.153 -0.033,-0.228 -0.002,-0.068 -0.031,-0.233 0.08,-0.26 0.138,-0.033 0.312,0.011 0.455,-0.008 0.073,-0.009 0.139,-0.036 0.214,-0.039 0.073,-0.003 0.141,0.01 0.212,0.018 0.169,0.017 0.341,-0.003 0.51,0.003 0.121,0.004 0.223,0.056 0.348,0.043 0.103,-0.01 0.225,-0.034 0.322,-0.061 0.074,-0.02 0.138,-0.065 0.214,-0.081 0.051,-0.011 0.106,0.001 0.158,-0.007 0.055,-0.008 0.099,-0.017 0.155,-0.017 0.073,0.001 0.098,0.017 0.16,0.043 0.034,0.014 0.075,0.023 0.107,0.039 0.033,0.017 0.053,0.042 0.087,0.059 0.036,0.019 0.086,0.019 0.127,0.029 0.207,0.049 0.172,0.235 0.168,0.374"
             style="fill:#231f20;fill-opacity:1;fill-rule:nonzero;stroke:none"
             id="path28681" />
        </g>
        <g
           id="g28683"
           transform="translate(302.523,431.739)">
          <path
             d="m 0,0 c -0.019,-0.049 -0.082,-0.014 -0.126,-0.025 -0.063,-0.015 -0.205,-0.098 -0.236,-0.005 -0.013,0.039 -0.023,0.08 -0.024,0.128 -0.002,0.054 -0.008,0.108 -0.011,0.163 -0.003,0.05 0.004,0.106 -0.008,0.155 -0.006,0.025 -0.028,0.049 -0.033,0.072 -0.016,0.061 0.018,0.124 0.018,0.187 -0.002,0.176 -0.013,0.351 -0.018,0.527 -0.001,0.064 0.004,0.122 0.014,0.184 0.004,0.028 0.007,0.057 0.004,0.085 -0.003,0.028 -0.032,0.074 -0.026,0.097 0.013,0.045 0.071,0.023 0.104,0.023 0.054,0 0.107,0.002 0.16,0.001 0.045,-0.001 0.105,-0.008 0.149,-0.02 0.037,-0.01 0.03,-0.023 0.029,-0.061 C -0.005,1.438 -0.008,1.364 -0.013,1.29 -0.022,1.167 -0.017,1.046 -0.017,0.922 -0.018,0.725 -0.004,0.528 -0.004,0.331 V 0.107 C -0.004,0.081 0.007,0.046 0.004,0.018 0.004,0.012 0.002,0.006 0,0 M -0.884,0.019 C -0.895,0 -0.921,0.002 -0.936,-0.001 c -0.045,-0.01 -0.086,-0.021 -0.132,-0.021 -0.046,10e-4 -0.091,0.008 -0.135,-0.02 -0.019,-0.013 -0.045,-0.038 -0.068,-0.038 -0.001,0.025 0.011,0.052 0.013,0.078 0.001,0.033 -10e-4,0.068 -10e-4,0.1 0,0.162 0,0.324 10e-4,0.486 0,0.19 -0.01,0.386 -0.024,0.575 -0.007,0.078 -0.005,0.158 -0.018,0.236 -0.005,0.031 -0.017,0.064 -0.013,0.097 -0.005,0.133 0.096,0.088 0.118,0.081 0.051,-0.016 0.116,-0.002 0.17,-0.002 0.022,0 0.045,0 0.067,0 0.033,0.001 0.032,0.004 0.045,-0.035 0.013,-0.039 0.022,-0.08 0.024,-0.128 0.003,-0.081 0.014,-0.162 0.014,-0.244 -0.002,-0.197 -0.001,-0.395 -0.001,-0.593 0,-0.144 0,-0.287 0,-0.431 0,-0.036 0.007,-0.095 -0.008,-0.121 m 1.515,-1.071 c 0.001,0.203 -0.03,0.4 -0.039,0.602 -0.006,0.108 -0.022,0.214 -0.021,0.323 0,0.107 0.011,0.219 -0.003,0.325 C 0.545,0.368 0.489,0.544 0.492,0.715 0.494,0.827 0.487,0.939 0.491,1.05 0.497,1.187 0.533,1.319 0.532,1.457 0.531,1.55 0.521,1.654 0.536,1.747 0.545,1.804 0.577,1.864 0.587,1.914 0.599,1.975 0.617,2.132 0.572,2.049 0.586,2.099 0.505,2.107 0.47,2.11 0.339,2.118 0.206,2.109 0.075,2.109 -0.069,2.109 -0.208,2.105 -0.35,2.091 -0.484,2.078 -0.621,2.104 -0.754,2.086 -0.829,2.075 -0.902,2.05 -0.979,2.048 -1.034,2.046 -1.089,2.049 -1.144,2.049 -1.246,2.05 -1.345,2.032 -1.447,2.03 -1.52,2.028 -1.588,2.009 -1.661,2.01 -1.704,2.01 -1.76,2.017 -1.786,1.971 -1.803,1.939 -1.789,1.865 -1.789,1.829 V 1.567 c 0,-0.215 0.02,-0.441 -0.002,-0.655 -0.011,-0.114 -0.018,-0.221 -0.018,-0.336 0,-0.092 0.007,-0.188 -0.001,-0.28 -0.013,-0.128 -0.06,-0.249 -0.059,-0.379 10e-4,-0.052 0.003,-0.106 10e-4,-0.158 -10e-4,-0.071 -0.02,-0.137 -0.021,-0.208 -0.004,-0.302 0.003,-0.605 0.001,-0.908 0,-0.007 0.002,-0.013 0.002,-0.02 0.135,0.023 0.278,0.021 0.415,0.021 0.15,0 0.306,-0.012 0.456,0.004 0.099,0.011 0.195,0.014 0.294,0.015 0.141,10e-4 0.285,0.033 0.426,0.045 0.133,0.012 0.259,0.037 0.393,0.036 0.146,-0.002 0.292,-10e-4 0.438,-10e-4 h 0.095 c 0,0.068 0,0.136 0,0.205"
             style="fill:#231f20;fill-opacity:1;fill-rule:nonzero;stroke:none"
             id="path28685" />
        </g>
        <g
           id="g28687"
           transform="translate(299.109,426.642)">
          <path
             d="m 0,0 c -0.013,-0.03 -0.045,-0.019 -0.073,-0.018 -0.07,0 -0.14,-0.001 -0.21,-0.001 -0.038,0.001 -0.067,0 -0.104,-0.009 -0.04,-0.011 -0.078,-0.004 -0.118,-0.012 -0.07,-0.013 -0.155,-0.036 -0.227,-0.019 -0.066,0.016 -0.044,0.103 -0.044,0.163 v 0.284 c 0,0.042 -0.025,0.214 0.018,0.091 0,0.1 0.001,0.196 -0.014,0.294 -0.023,0.151 -0.004,0.319 -0.004,0.472 0,0.088 -0.013,0.195 0.008,0.28 0.028,0.112 0.113,0.223 0.186,0.304 0.026,0.028 0.045,0.048 0.076,0.064 0.027,0.015 0.052,0.039 0.081,0.051 0.044,0.019 0.104,0.016 0.142,-0.013 0.093,-0.069 0.14,-0.175 0.176,-0.287 0.072,-0.226 0.052,-0.464 0.052,-0.702 0,-0.074 -0.004,-0.15 -0.001,-0.225 0.002,-0.063 0.02,-0.12 0.019,-0.183 -0.001,-0.091 -0.002,-0.183 0,-0.274 0,-0.035 0.008,-0.061 0.014,-0.095 C -0.018,0.134 -0.024,0.103 -0.018,0.073 -0.013,0.051 0.013,0.03 0,0 M 0.931,1.09 C 0.929,1.245 0.891,1.376 0.862,1.525 0.854,1.57 0.853,1.615 0.853,1.66 0.852,1.689 0.841,1.746 0.854,1.771 0.863,1.79 0.885,1.793 0.896,1.811 0.919,1.85 0.911,1.94 0.913,1.984 0.916,2.07 0.911,2.156 0.911,2.242 0.911,2.346 0.912,2.444 0.895,2.547 0.888,2.59 0.898,2.698 0.853,2.727 0.826,2.745 0.768,2.726 0.738,2.729 0.7,2.733 0.668,2.749 0.63,2.751 0.582,2.754 0.532,2.749 0.484,2.749 0.401,2.749 0.322,2.775 0.239,2.771 0.135,2.767 0.047,2.751 -0.058,2.765 -0.122,2.773 -0.183,2.772 -0.247,2.765 -0.37,2.752 -0.489,2.749 -0.612,2.75 -0.722,2.751 -0.83,2.733 -0.936,2.714 -0.96,2.71 -1.006,2.701 -1.013,2.727 -1.057,2.728 -1.102,2.73 -1.144,2.73 -1.235,2.73 -1.313,2.71 -1.401,2.692 -1.52,2.668 -1.703,2.726 -1.763,2.582 -1.81,2.47 -1.787,2.334 -1.787,2.217 V 1.57 0.589 c 0,-0.27 -0.02,-0.534 -0.02,-0.804 0,-0.077 0.005,-0.139 -0.015,-0.214 -0.014,-0.053 -0.008,-0.094 0.002,-0.147 0.014,-0.067 0.013,-0.136 0.001,-0.204 -0.008,-0.048 -0.052,-0.109 0.012,-0.131 0.052,-0.017 0.136,-0.006 0.189,-0.004 0.154,0.005 0.304,0.062 0.457,0.062 0.103,0 0.206,-0.013 0.309,-0.018 0.307,-0.016 0.621,-0.011 0.929,-0.007 0.032,0 0.065,0.001 0.097,0.002 0.152,0.005 0.303,0.037 0.454,0.042 0.058,0.002 0.117,-0.004 0.175,-0.001 0.055,0.002 0.049,0.011 0.047,0.066 -0.001,0.052 -0.001,0.104 -0.003,0.157 -0.004,0.11 -0.009,0.222 0.009,0.332 0.017,0.107 0.024,0.217 0.035,0.324 0.011,0.105 0.034,0.21 0.041,0.315 C 0.946,0.6 0.934,0.849 0.931,1.09"
             style="fill:#231f20;fill-opacity:1;fill-rule:nonzero;stroke:none"
             id="path28689" />
        </g>
        <g
           id="g28691"
           transform="translate(298.095,429.392)">
          <path
             d="m 0,0 c -0.004,-0.011 -0.002,-0.017 0,-0.023 0.028,0 0.057,-0.001 0.084,0.002 C 0.132,-0.015 0.169,-0.001 0,0"
             style="fill:#231f20;fill-opacity:1;fill-rule:nonzero;stroke:none"
             id="path28693" />
        </g>
        <g
           id="g28695"
           transform="translate(293.242,429.133)">
          <path
             d="m 0,0 c -0.07,-0.001 -0.138,-0.001 -0.208,-0.01 -0.123,-0.015 -0.246,-0.011 -0.37,-0.01 -0.096,0 -0.181,-0.008 -0.276,-0.025 -0.071,-0.012 -0.131,-0.035 -0.202,-0.035 -0.022,0.001 -0.044,-0.003 -0.066,0.002 -0.017,0.004 -0.03,0.018 -0.049,0.02 -0.052,0.003 -0.039,-0.03 -0.039,-0.071 10e-4,-0.137 0.014,-0.271 0.022,-0.408 0.01,-0.169 0.017,-0.339 0.035,-0.507 0.025,-0.23 0.022,-0.458 0.022,-0.689 0,-0.095 0.011,-0.2 -0.004,-0.295 C -1.154,-2.142 -1.144,-2.257 -1.166,-2.371 -1.18,-2.443 -1.17,-2.52 -1.17,-2.594 v -0.274 c 0,-0.08 -0.011,-0.167 0.004,-0.246 0.011,-0.053 0.017,-0.097 0.015,-0.153 0,-0.049 -0.003,-0.045 0.039,-0.064 0.056,-0.024 0.115,-0.015 0.175,-0.014 0.083,0.001 0.16,-0.022 0.243,-0.021 0.052,0 0.102,0.004 0.153,-0.004 0.049,-0.008 0.097,-0.022 0.146,-0.017 0.062,0.007 0.112,0.022 0.175,0.021 0.02,0 0.04,10e-4 0.06,10e-4 0.032,-10e-4 0.068,-0.018 0.097,-0.017 0.043,0.001 0.117,0.058 0.138,0.1 0.013,0.024 0.004,0.071 0.004,0.098 0,0.079 0.001,0.158 0,0.237 0,0.088 0.019,0.17 0.021,0.257 0.002,0.092 -0.001,0.186 -0.001,0.279 0,0.17 0.02,0.335 0.02,0.505 0,0.082 0.002,0.151 0.015,0.232 0.017,0.101 0.005,0.212 0.005,0.314 0,0.374 0.02,0.744 0.02,1.118 0,0.053 0.022,0.189 -0.014,0.228 C 0.121,0.012 0.082,0.014 0.051,0.022 0.037,0.026 0.038,0.039 0.02,0.041 -0.006,0.044 -0.018,0.03 0,0"
             style="fill:#231f20;fill-opacity:1;fill-rule:nonzero;stroke:none"
             id="path28697" />
        </g>
        <g
           id="g28699"
           transform="translate(309.3,429.212)">
          <path
             d="M 0,0 C 0,-0.188 0.019,-0.371 0.02,-0.559 0.021,-0.701 -0.001,-0.84 -0.001,-0.982 0.001,-1.144 0,-1.305 0,-1.466 0,-1.585 -0.001,-1.704 0,-1.824 0,-1.928 -0.016,-2.027 -0.021,-2.13 c -0.005,-0.11 0.001,-0.222 0.001,-0.332 0,-0.132 -0.006,-0.257 -0.018,-0.387 -0.009,-0.104 -0.002,-0.212 -0.002,-0.316 0,-0.072 -0.015,-0.164 0.015,-0.225 0.021,-0.043 0.018,-0.03 0.063,-0.034 0.037,-0.003 0.065,-0.029 0.1,-0.038 0.033,-0.008 0.066,-0.004 0.099,-0.003 0.138,10e-4 0.276,0 0.413,0 0.097,0 0.19,-0.003 0.283,0.015 0.039,0.008 0.079,0.005 0.119,0.005 0.022,0 0.1,-0.014 0.115,0.002 0.009,0.009 0.015,0.065 0.017,0.075 0.01,0.043 0.025,0.086 0.034,0.13 0.02,0.088 0.012,0.18 0.012,0.27 -10e-4,0.195 0.039,0.385 0.04,0.58 0,0.212 -0.02,0.434 0.015,0.641 0.027,0.161 0.004,0.34 0.004,0.504 0,0.082 0.019,0.165 -0.033,0.232 -0.038,0.048 -0.078,0.087 -0.114,0.139 -0.061,0.085 -0.132,0.158 -0.199,0.238 -0.062,0.073 -0.116,0.151 -0.169,0.23 -0.042,0.064 -0.1,0.115 -0.14,0.181 C 0.612,-0.188 0.593,-0.154 0.57,-0.12 0.554,-0.096 0.534,-0.04 0.512,-0.023 0.495,-0.01 0.473,-0.025 0.455,-0.021 0.438,-0.017 0.435,-0.004 0.419,0.001 0.372,0.015 0.306,-0.003 0.257,0 0.21,0.002 0.157,0.013 0.111,0.022 0.097,0.024 0.096,0.037 0.08,0.041 0.058,0.046 0.029,0.039 0.006,0.041 0.027,0.033 0.046,0.018 0,0"
             style="fill:#231f20;fill-opacity:1;fill-rule:nonzero;stroke:none"
             id="path28701" />
        </g>
        <g
           id="g28703"
           transform="translate(295.5,428.48)">
          <path
             d="m 0,0 c -0.019,-0.037 -0.082,-0.011 -0.126,-0.019 -0.063,-0.012 -0.205,-0.074 -0.236,-0.004 -0.013,0.03 -0.023,0.061 -0.024,0.097 -0.002,0.042 -0.008,0.083 -0.011,0.124 -0.004,0.039 0.004,0.081 -0.008,0.119 -0.006,0.019 -0.028,0.037 -0.033,0.054 -0.016,0.047 0.018,0.095 0.018,0.143 -0.003,0.134 -0.013,0.267 -0.018,0.401 -0.001,0.049 0.004,0.093 0.014,0.141 0.004,0.021 0.007,0.042 0.004,0.064 -0.003,0.021 -0.032,0.056 -0.026,0.074 0.013,0.034 0.071,0.018 0.104,0.018 0.053,0 0.107,0.001 0.16,0 0.045,0 0.105,-0.006 0.149,-0.015 C 0.004,1.19 -0.003,1.18 -0.004,1.151 -0.005,1.095 -0.008,1.038 -0.013,0.982 -0.022,0.888 -0.017,0.797 -0.017,0.702 c -10e-4,-0.15 0.013,-0.3 0.013,-0.45 V 0.081 C -0.004,0.062 0.007,0.036 0.004,0.014 0.003,0.009 0.002,0.004 0,0 m 0,-1.914 c -0.019,-0.035 -0.082,-0.01 -0.126,-0.018 -0.063,-0.011 -0.205,-0.072 -0.236,-0.004 -0.013,0.029 -0.023,0.06 -0.024,0.095 -0.002,0.04 -0.008,0.08 -0.011,0.12 -0.004,0.037 0.004,0.078 -0.008,0.114 -0.006,0.019 -0.028,0.037 -0.033,0.053 -0.016,0.045 0.018,0.092 0.018,0.138 -0.003,0.13 -0.013,0.259 -0.018,0.389 -0.001,0.047 0.004,0.09 0.014,0.136 0.004,0.021 0.007,0.041 0.004,0.062 -0.003,0.021 -0.032,0.055 -0.026,0.072 0.013,0.033 0.071,0.017 0.104,0.017 0.053,0 0.107,0.001 0.16,0.001 0.045,-0.001 0.105,-0.006 0.149,-0.015 0.037,-0.007 0.03,-0.017 0.029,-0.045 -0.001,-0.054 -0.004,-0.109 -0.009,-0.163 -0.009,-0.091 -0.004,-0.18 -0.004,-0.271 -10e-4,-0.146 0.013,-0.291 0.013,-0.436 v -0.166 c 0,-0.019 0.011,-0.044 0.008,-0.065 C 0.003,-1.905 0.002,-1.91 0,-1.914 m 1.039,1.691 C 1.02,-0.12 1.013,-0.03 1.009,0.075 1.005,0.156 0.987,0.234 0.988,0.316 c 0,0.067 0,0.134 0,0.201 -0.001,0.202 0.061,0.392 0.06,0.595 -0.001,0.108 0,0.216 0,0.324 0,0.05 0,0.101 -0.001,0.151 0,0.033 -0.006,0.072 0.004,0.104 C 1.059,1.718 1.086,1.738 1.086,1.765 1.006,1.784 0.927,1.78 0.845,1.792 0.697,1.814 0.546,1.808 0.395,1.808 -0.014,1.807 -0.408,1.947 -0.817,1.947 -0.891,1.947 -0.988,1.965 -1.051,1.922 -1.077,1.904 -1.104,1.882 -1.13,1.862 -1.176,1.828 -1.193,1.785 -1.234,1.747 -1.278,1.705 -1.325,1.667 -1.373,1.628 -1.395,1.611 -1.433,1.588 -1.448,1.565 -1.459,1.547 -1.467,1.495 -1.473,1.472 -1.481,1.437 -1.471,1.385 -1.471,1.349 -1.472,1.297 -1.473,1.251 -1.461,1.2 -1.41,0.987 -1.35,0.776 -1.352,0.555 -1.353,0.411 -1.346,0.268 -1.363,0.125 c -0.016,-0.137 -0.013,-0.271 0.006,-0.407 0.015,-0.11 0.004,-0.229 0.004,-0.34 v -0.35 c 0,-0.129 0.007,-0.259 10e-4,-0.388 -0.002,-0.051 -0.014,-0.1 -0.019,-0.151 -0.007,-0.083 0.007,-0.166 -0.006,-0.248 -0.014,-0.095 -0.017,-0.189 -0.031,-0.284 -0.012,-0.082 -0.024,-0.175 -0.025,-0.258 0,-0.093 -0.034,-0.181 -0.054,-0.272 -0.008,-0.035 -0.019,-0.094 0.019,-0.116 0.041,-0.024 0.099,0.012 0.14,0.017 0.039,0.005 0.077,-0.003 0.118,0.003 0.038,0.006 0.073,0.015 0.112,0.017 0.04,0.001 0.081,-0.005 0.121,-0.002 0.061,0.003 0.118,0.021 0.179,0.021 0.106,0 0.208,0.021 0.314,0.02 0.102,-10e-4 0.204,0 0.307,0 0.179,0 0.35,-0.02 0.529,-0.02 0.113,0 0.248,-0.019 0.358,0.004 0.105,0.022 0.211,0.016 0.219,-0.004 0,0.145 -0.012,0.293 0,0.438 0.013,0.152 0.053,0.306 0.081,0.457 0.024,0.133 0.029,0.275 0.036,0.41 0.013,0.273 0.002,0.549 0.002,0.822 0,0.094 0.007,0.19 -0.009,0.283"
             style="fill:#231f20;fill-opacity:1;fill-rule:nonzero;stroke:none"
             id="path28705" />
        </g>
        <g
           id="g28707"
           transform="translate(307.735,428.548)">
          <path
             d="M 0,0 C -0.053,0 -0.107,-0.001 -0.16,-0.001 -0.205,0 -0.265,0.005 -0.309,0.014 c -0.036,0.007 -0.03,0.017 -0.029,0.045 0.001,0.054 0.004,0.109 0.009,0.163 0.009,0.091 0.004,0.18 0.004,0.271 0.001,0.146 -0.013,0.292 -0.013,0.436 v 0.166 c 0,0.019 -0.01,0.044 -0.008,0.065 0.001,0.005 0.002,0.01 0.004,0.014 0.02,0.036 0.082,0.01 0.127,0.018 0.062,0.011 0.204,0.072 0.235,0.004 C 0.033,1.167 0.043,1.137 0.045,1.102 0.046,1.061 0.052,1.022 0.056,0.981 0.059,0.944 0.051,0.903 0.063,0.867 0.069,0.848 0.091,0.831 0.097,0.814 0.113,0.769 0.078,0.722 0.079,0.676 0.081,0.546 0.091,0.417 0.096,0.287 0.097,0.24 0.092,0.197 0.082,0.151 0.078,0.131 0.076,0.11 0.079,0.089 0.082,0.068 0.111,0.034 0.104,0.017 0.091,-0.016 0.034,0 0,0 m 0,-1.952 c -0.053,0 -0.107,-0.001 -0.16,0 -0.045,0 -0.105,0.006 -0.149,0.015 -0.036,0.007 -0.03,0.018 -0.029,0.046 0.001,0.056 0.004,0.113 0.009,0.169 0.009,0.094 0.004,0.185 0.004,0.28 0.001,0.15 -0.013,0.3 -0.013,0.45 v 0.171 c 0,0.019 -0.01,0.046 -0.008,0.067 0.001,0.005 0.002,0.01 0.004,0.014 0.02,0.037 0.082,0.011 0.127,0.019 0.062,0.012 0.204,0.075 0.235,0.004 0.013,-0.03 0.023,-0.061 0.025,-0.097 C 0.046,-0.856 0.052,-0.897 0.056,-0.938 0.059,-0.977 0.051,-1.019 0.063,-1.057 0.069,-1.076 0.091,-1.094 0.097,-1.111 0.113,-1.158 0.078,-1.206 0.079,-1.254 0.081,-1.388 0.091,-1.521 0.096,-1.655 0.097,-1.704 0.092,-1.748 0.082,-1.795 0.078,-1.817 0.076,-1.838 0.079,-1.86 0.082,-1.881 0.111,-1.916 0.104,-1.934 0.091,-1.968 0.034,-1.952 0,-1.952 m 0.852,-0.631 c -0.004,0.04 -0.017,0.081 -0.026,0.12 -0.011,0.043 -0.008,0.086 -0.017,0.128 -0.006,0.026 -0.016,0.044 -0.018,0.071 -0.004,0.036 0,0.074 0,0.109 v 0.301 0.307 c 0,0.147 0.015,0.303 -0.003,0.448 -0.012,0.092 -0.035,0.178 -0.039,0.272 -0.006,0.103 -0.018,0.204 -0.018,0.308 0,0.08 0.007,0.158 0.016,0.238 0.01,0.097 -0.002,0.195 0.006,0.292 C 0.774,0.28 0.798,0.572 0.756,0.84 0.741,0.932 0.747,1.038 0.75,1.131 0.753,1.212 0.809,1.301 0.792,1.382 0.777,1.458 0.665,1.48 0.613,1.52 0.565,1.557 0.53,1.594 0.474,1.621 0.418,1.649 0.359,1.665 0.303,1.691 0.264,1.708 0.238,1.74 0.201,1.761 0.163,1.783 0.129,1.788 0.097,1.818 0.055,1.858 0.021,1.903 -0.032,1.928 -0.079,1.95 -0.106,1.967 -0.147,1.995 -0.208,2.038 -0.246,2.008 -0.309,1.998 -0.353,1.992 -0.4,2.005 -0.444,2 -0.484,1.996 -0.518,1.98 -0.558,1.979 c -0.136,-0.003 -0.272,0 -0.395,0.037 0.01,-0.029 0.05,-0.002 -0.022,-0.097 V 1.211 c 0,-0.173 0.001,-0.342 -0.015,-0.514 -0.009,-0.1 -0.003,-0.199 -0.014,-0.299 -0.013,-0.116 -0.023,-0.234 -0.03,-0.352 -0.012,-0.195 -0.045,-0.39 -0.07,-0.584 -0.011,-0.081 -0.01,-0.161 -0.009,-0.242 10e-4,-0.091 -0.019,-0.177 -0.021,-0.267 -0.008,-0.318 10e-4,-0.636 10e-4,-0.954 v -0.492 -0.148 c 0,-0.023 -10e-4,-0.047 0,-0.07 0.001,-0.046 -0.004,-0.045 0.039,-0.05 0.043,-0.005 0.098,-0.005 0.139,0.005 0.111,0.026 0.199,0.043 0.315,0.02 0.177,-0.036 0.363,0.015 0.538,-0.029 0.055,-0.014 0.101,-0.015 0.16,-0.016 0.091,0 0.153,0.027 0.236,0.056 0.122,0.042 0.24,0.071 0.368,0.064 0.048,-0.002 0.077,-0.019 0.129,-0.02 0.029,0 0.049,-0.009 0.061,0.019 0.007,0.015 0.001,0.062 0,0.079"
             style="fill:#231f20;fill-opacity:1;fill-rule:nonzero;stroke:none"
             id="path28709" />
        </g>
        <g
           id="g28711"
           transform="translate(304.611,431.99)">
          <path
             d="m 0,0 c 0.013,-0.026 0.029,-0.055 0.033,-0.06 0.022,-0.027 0.05,-0.041 0.07,-0.071 0.053,-0.073 0.105,-0.145 0.164,-0.214 0.118,-0.137 0.247,-0.264 0.365,-0.401 0.065,-0.075 0.121,-0.156 0.175,-0.239 0.036,-0.054 0.075,-0.119 0.127,-0.16 0.06,-0.048 0.126,-0.081 0.174,-0.143 0.052,-0.068 0.084,-0.169 0.116,-0.248 -0.041,0.034 -0.161,0.034 -0.208,0.034 -0.119,-10e-4 -0.239,-0.005 -0.357,-10e-4 -0.206,0.007 -0.406,0.06 -0.613,0.06 -0.093,0 -0.186,0 -0.278,0 -0.104,0 -0.205,-0.021 -0.307,-0.02 -0.09,0.001 -0.173,0.004 -0.259,-0.025 -0.045,-0.015 -0.086,-0.031 -0.134,-0.035 -0.031,-0.002 -0.049,-0.002 -0.079,-0.015 -0.037,-0.014 -0.069,-0.026 -0.108,-0.034 -0.06,-0.013 -0.084,-0.013 -0.051,0.047 0.066,0.12 0.114,0.239 0.194,0.351 0.016,0.023 0.032,0.047 0.047,0.072 0.024,0.041 0.043,0.084 0.059,0.129 0.025,0.07 0.04,0.143 0.076,0.208 0.056,0.101 0.148,0.173 0.233,0.247 0.108,0.093 0.208,0.194 0.315,0.288 0.059,0.052 0.103,0.114 0.144,0.181 0.013,0.022 0.018,0.048 0.039,0.066 0.014,0.012 0.032,0.013 0.045,0.026 C -0.02,0.041 -0.011,0.022 0,0"
             style="fill:#231f20;fill-opacity:1;fill-rule:nonzero;stroke:none"
             id="path28713" />
        </g>
        <g
           id="g28715"
           transform="translate(300.157,432.447)">
          <path
             d="M 0,0 C -0.006,0.037 -0.029,0.017 -0.077,0.026 -0.116,0.032 -0.152,0.062 -0.191,0.073 -0.238,0.086 -0.287,0.092 -0.335,0.098 -0.43,0.108 -0.525,0.094 -0.616,0.066 -0.651,0.055 -0.684,0.05 -0.72,0.049 -0.976,0.046 -1.23,0.074 -1.485,0.057 -1.639,0.047 -1.793,0.042 -1.946,0.046 -2.085,0.05 -2.22,0.067 -2.36,0.067 c -0.099,0 -0.199,0 -0.298,0 -0.048,0 -0.108,0.011 -0.155,-0.004 0,-0.042 -0.049,-0.084 -0.071,-0.117 -0.048,-0.074 -0.103,-0.144 -0.157,-0.216 -0.144,-0.192 -0.347,-0.342 -0.509,-0.52 -0.07,-0.076 -0.14,-0.147 -0.218,-0.214 -0.062,-0.052 -0.113,-0.117 -0.179,-0.165 -0.018,-0.013 -0.044,-0.019 -0.06,-0.033 -0.02,-0.018 -0.012,-0.025 -0.023,-0.045 -0.017,-0.034 -0.037,-0.064 -0.053,-0.096 0.028,-0.004 0.051,-0.021 0.077,-0.025 0.026,-0.004 0.052,0.001 0.079,-0.003 0.036,-0.007 0.062,-0.017 0.101,-0.016 0.027,0.001 0.052,0.002 0.078,-0.004 0.215,-0.053 0.454,0.003 0.674,0.004 0.059,0.001 0.106,0.001 0.162,-0.02 0.018,-0.012 0.037,-0.019 0.058,-0.021 0.014,10e-4 0.027,0.002 0.04,0.003 0.047,-0.019 0.019,-0.202 0.019,-0.246 v -0.394 c 0,-0.085 -0.018,-0.195 0.002,-0.276 0.036,-0.013 0.087,-0.002 0.125,-0.002 0.083,0 0.166,0 0.249,0 h 0.549 c 0.136,0 0.271,-0.006 0.406,0.015 0.141,0.021 0.277,0.015 0.418,0.027 0.059,0.005 0.116,0.018 0.176,0.019 0.055,10e-4 0.109,-0.006 0.163,0.003 0.038,0.006 0.073,0.025 0.109,0.032 0.031,0.006 0.062,0.002 0.093,0.008 0.054,0.01 0.114,0.029 0.169,0.017 0.046,-0.011 0.091,-0.029 0.136,-0.039 0.003,0.029 0.011,0.048 0.019,0.075 0.017,0.063 -0.002,0.132 0.008,0.197 0.021,0.123 0.003,0.247 0.03,0.367 0.018,0.078 0.029,0.158 0.035,0.237 0.003,0.034 0.003,0.069 0.009,0.103 0.004,0.026 0.018,0.05 0.022,0.076 0.009,0.054 -0.001,0.118 -0.001,0.173 0,0.092 0.006,0.173 0.02,0.262 0.006,0.039 0.019,0.078 0.021,0.118 0.003,0.043 -0.004,0.084 0.003,0.127 0.017,0.095 0.009,0.179 0.015,0.275 C -0.015,-0.178 0,-0.107 0.002,-0.033 0.002,-0.019 0.001,-0.008 0,0"
             style="fill:#231f20;fill-opacity:1;fill-rule:nonzero;stroke:none"
             id="path28717" />
        </g>
        <g
           id="g28719"
           transform="translate(303.924,433.514)">
          <path
             d="M 0,0 C 0.138,0 0.275,0.003 0.413,0.001 0.558,0 0.693,-0.034 0.835,-0.056 c 0.139,-0.021 0.283,-0.019 0.42,-0.053 0.048,-0.012 0.093,-0.031 0.142,-0.04 0.082,-0.017 0.168,-0.007 0.251,-0.001 0.161,0.011 0.321,0.008 0.482,0.01 0.113,0.001 0.231,0.032 0.342,0.02 C 2.515,-0.125 2.576,-0.129 2.616,-0.142 2.628,-0.31 2.74,-0.449 2.797,-0.606 2.823,-0.677 2.845,-0.748 2.876,-0.817 2.909,-0.89 2.96,-0.941 3.016,-0.997 3.068,-1.048 3.119,-1.093 3.175,-1.139 3.224,-1.18 3.254,-1.242 3.292,-1.293 3.386,-1.419 3.475,-1.55 3.574,-1.673 3.63,-1.741 3.685,-1.795 3.73,-1.872 3.769,-1.939 3.798,-2.002 3.829,-2.073 3.855,-2.134 3.897,-2.184 3.923,-2.244 3.937,-2.287 3.952,-2.328 3.968,-2.37 3.979,-2.385 3.993,-2.399 4.008,-2.41 4.034,-2.441 4.074,-2.489 4.084,-2.525 3.978,-2.555 3.848,-2.507 3.743,-2.493 3.589,-2.473 3.429,-2.488 3.275,-2.468 3.231,-2.462 3.193,-2.45 3.15,-2.449 3.096,-2.448 3.047,-2.451 2.994,-2.435 2.893,-2.406 2.802,-2.389 2.695,-2.39 c -0.104,0 -0.209,0.001 -0.314,0 C 2.329,-2.391 2.265,-2.377 2.224,-2.347 2.13,-2.28 2.076,-2.17 2,-2.086 1.921,-1.999 1.849,-1.899 1.749,-1.836 1.703,-1.806 1.671,-1.777 1.633,-1.738 1.594,-1.698 1.542,-1.67 1.506,-1.629 1.442,-1.556 1.4,-1.46 1.34,-1.385 1.279,-1.311 1.224,-1.212 1.149,-1.153 1.123,-1.132 1.11,-1.127 1.096,-1.096 c -0.02,0.042 -0.001,0.039 -0.054,0.041 -0.236,0.006 -0.486,-0.027 -0.72,0.004 -0.085,0.011 -0.166,0.015 -0.253,0.015 -0.05,0 -0.125,-0.021 -0.144,0.038 -0.017,0.052 -0.004,0.12 -0.004,0.174 0,0.059 -0.008,0.125 0.004,0.183 0.02,0.093 0.037,0.202 0.036,0.3 C -0.04,-0.293 -0.05,0.071 0,0"
             style="fill:#231f20;fill-opacity:1;fill-rule:nonzero;stroke:none"
             id="path28721" />
        </g>
        <g
           id="g28723"
           transform="translate(291.407,425.07)">
          <path
             d="m 0,0 c 0.433,0 0.866,-0.001 1.299,0 0.391,0.001 0.766,-0.049 1.153,-0.076 0.304,-0.022 0.609,-0.008 0.911,-0.052 0.384,-0.057 0.781,-0.031 1.17,-0.031 0.294,0 0.574,0.021 0.864,0.037 0.138,0.008 0.261,0.038 0.402,0.041 0.204,0.005 0.415,0.032 0.619,0.045 C 6.963,-0.003 7.503,0 8.05,0 c 0.161,0 0.322,-0.001 0.483,0 0.152,0.001 0.282,-0.031 0.431,-0.042 0.365,-0.027 0.749,0.001 1.115,0.002 0.384,0.001 0.75,-0.063 1.131,-0.099 0.342,-0.033 0.666,-0.061 1.011,-0.06 0.153,0 0.3,0 0.451,-0.02 0.25,-0.034 0.507,-0.02 0.761,-0.02 0.567,0 1.128,0.04 1.695,0.04 0.209,0 0.425,-0.017 0.632,0.009 0.208,0.026 0.419,0.054 0.628,0.067 0.187,0.011 0.369,0.031 0.555,0.043 0.201,0.013 0.413,0.02 0.612,0.049 C 17.77,0.001 17.978,0 18.197,0 c 0.058,0 0.115,0.001 0.173,0 0.117,-0.001 0.212,0.036 0.326,0.041 0.177,0.009 0.329,0.001 0.493,-0.051 0.069,-0.022 0.098,-0.03 0.183,-0.03 0.046,0.001 0.176,0.024 0.212,-0.006 0.012,-0.011 0.043,-0.157 0.046,-0.173 0.012,-0.057 0.004,-0.121 0.004,-0.179 0,-0.131 0.018,-0.259 -0.039,-0.38 -0.023,-0.051 -0.032,-0.087 -0.048,-0.138 -0.026,-0.074 0.005,-0.065 -0.087,-0.081 -0.085,-0.014 -0.225,-0.005 -0.305,0.01 -0.203,0.039 -0.402,0.031 -0.61,0.031 -0.478,0 -0.956,0 -1.434,0 -0.172,0 -0.343,-0.001 -0.515,0 -0.209,0.001 -0.405,-0.034 -0.612,-0.042 -0.491,-0.019 -0.976,-0.038 -1.466,-0.088 -0.288,-0.03 -0.573,-0.01 -0.859,-0.038 -0.258,-0.025 -0.51,-0.041 -0.769,-0.033 -0.266,0.008 -0.526,0.044 -0.793,0.043 -0.311,-0.002 -0.622,0 -0.933,-10e-4 -0.25,-0.001 -0.493,0.007 -0.742,0.031 -0.37,0.035 -0.741,0.004 -1.112,0.04 -0.347,0.033 -0.698,-0.014 -1.046,0.017 -0.275,0.026 -0.551,0.037 -0.826,0.062 -0.374,0.034 -0.74,0.022 -1.103,0.11 -0.332,0.08 -0.65,0.058 -0.991,0.058 H 4.178 c -0.609,0 -1.222,-0.017 -1.831,0 -0.147,0.005 -0.285,0.041 -0.434,0.04 -0.115,-0.001 -0.23,0 -0.346,0 -0.09,0 -0.219,0.021 -0.307,0.002 C 1.162,-0.776 1.07,-0.832 0.958,-0.837 0.849,-0.842 0.757,-0.872 0.653,-0.877 0.538,-0.883 0.42,-0.875 0.305,-0.876 c -0.099,-0.001 -0.212,0.045 -0.282,0.11 -0.066,0.062 -0.041,0.111 -0.132,0.141 -0.103,0.033 -0.107,0.023 -0.118,0.144 -0.01,0.12 -0.011,0.243 0.008,0.362 0.016,0.095 0.027,0.081 0.132,0.079 C 0,-0.042 0.087,-0.04 0,0"
             style="fill:#231f20;fill-opacity:1;fill-rule:nonzero;stroke:none"
             id="path28725" />
        </g>
        <g
           id="g28727"
           transform="translate(291.189,424.951)">
          <path
             d="M 0,0 -0.036,-0.007 C -0.06,-0.084 -0.044,-0.181 -0.043,-0.262 -0.041,-0.41 -0.089,-0.55 -0.087,-0.699 -0.086,-0.78 -0.1,-0.871 -0.088,-0.951 c 0.006,-0.043 0.026,-0.062 0.035,-0.093 0.022,-0.076 -0.013,-0.166 0.095,-0.193 0.053,-0.013 0.117,-0.004 0.174,-0.018 0.068,-0.016 0.124,-0.021 0.194,-0.02 0.118,10e-4 0.235,0 0.352,0 0.196,10e-4 0.348,0.012 0.468,0.159 0.086,0.106 0.077,0.169 0.076,0.299 0,0.079 -0.014,0.165 -0.002,0.244 0.008,0.057 0.039,0.1 0.047,0.157 C 1.367,-0.31 1.35,-0.188 1.35,-0.08 1.35,0.007 1.369,0.1 1.318,0.17 1.257,0.253 1.2,0.225 1.11,0.242 1.052,0.253 1.018,0.276 0.958,0.28 0.909,0.282 0.851,0.268 0.804,0.277 0.716,0.294 0.668,0.319 0.566,0.319 0.515,0.318 0.464,0.316 0.413,0.318 0.356,0.321 0.338,0.339 0.295,0.35 0.194,0.375 0.086,0.366 0,0.319 -0.104,0.261 -0.088,0.213 -0.087,0.1 -0.086,-0.106 -0.087,-0.312 0,0"
             style="fill:#231f20;fill-opacity:1;fill-rule:nonzero;stroke:none"
             id="path28729" />
        </g>
        <g
           id="g28731"
           transform="translate(297.066,424.632)">
          <path
             d="m 0,0 c 0.007,-0.046 -0.013,-0.06 -0.022,-0.101 -0.014,-0.062 -0.015,-0.116 -0.02,-0.179 -0.008,-0.091 -0.132,-0.288 -0.094,-0.364 0.079,-0.156 0.417,-0.113 0.563,-0.113 0.201,0 0.431,0.029 0.627,-0.009 0.091,-0.017 0.158,-0.031 0.252,-0.031 0.094,0 0.15,-0.026 0.176,0.058 0.043,0.138 -0.002,0.361 -0.002,0.502 0,0.043 0.026,0.183 -0.002,0.216 C 1.449,0.013 1.272,0.03 1.221,0.036 0.959,0.068 0.676,0.04 0.412,0.04 h -0.456"
             style="fill:#231f20;fill-opacity:1;fill-rule:nonzero;stroke:none"
             id="path28733" />
        </g>
        <g
           id="g28735"
           transform="translate(310.91,424.99)">
          <path
             d="m 0,0 v -0.677 c 0,-0.092 0.007,-0.187 0.001,-0.279 -0.003,-0.048 -0.022,-0.075 -0.035,-0.119 -0.015,-0.053 -0.001,-0.102 -0.016,-0.154 -0.053,-0.01 -0.105,-0.035 -0.148,-0.042 -0.085,-0.014 -0.183,-0.004 -0.27,-0.004 -0.147,0 -0.31,-0.016 -0.456,-0.002 -0.085,0.009 -0.147,0.041 -0.233,0.043 -0.079,10e-4 -0.158,-0.001 -0.236,-0.001 -0.079,0 -0.355,-0.041 -0.412,0.002 -0.053,0.04 0.059,0.187 0.064,0.257 0.009,0.131 0.088,0.223 0.087,0.359 -0.002,0.119 0,0.239 0,0.358 0,0.117 -0.024,0.26 0.006,0.373 0.078,0.006 0.13,0.026 0.201,0.055 0.071,0.029 0.122,0.03 0.206,0.03 0.08,0 0.16,-0.001 0.24,0 C -0.905,0.2 -0.833,0.163 -0.74,0.158 -0.646,0.154 -0.589,0.141 -0.501,0.123 -0.412,0.105 -0.308,0.121 -0.217,0.12 -0.134,0.119 -0.072,0.175 0.001,0.163 0.07,0.152 0.146,0.021 0,0"
             style="fill:#231f20;fill-opacity:1;fill-rule:nonzero;stroke:none"
             id="path28737" />
        </g>
        <g
           id="g28739"
           transform="translate(307.869,421.688)">
          <path
             d="m 0,0 c -0.11,0.022 -0.197,0.041 -0.298,0.081 -0.066,0.027 -0.119,0.053 -0.19,0.071 -0.156,0.039 -0.265,0.127 -0.398,0.215 -0.097,0.064 -0.167,0.132 -0.255,0.205 -0.068,0.057 -0.142,0.096 -0.193,0.17 -0.068,0.099 -0.135,0.225 -0.224,0.307 -0.085,0.078 -0.07,0.015 -0.109,-0.07 C -1.733,0.837 -1.833,0.775 -1.953,0.697 -2.079,0.615 -2.193,0.492 -2.321,0.406 -2.464,0.31 -2.604,0.307 -2.77,0.275 -2.904,0.249 -3.044,0.256 -3.175,0.217 -3.361,0.161 -3.549,0.05 -3.746,0.039 -3.871,0.032 -3.999,0.038 -4.124,0.04 -4.273,0.042 -4.357,0.096 -4.49,0.153 -4.643,0.219 -4.795,0.251 -4.93,0.355 -5.034,0.437 -5.144,0.496 -5.252,0.568 -5.307,0.605 -5.373,0.647 -5.42,0.692 -5.459,0.729 -5.474,0.784 -5.508,0.817 -5.57,0.88 -5.603,0.854 -5.661,0.806 -5.822,0.674 -5.871,0.45 -6.029,0.316 -6.186,0.182 -6.399,0.019 -6.603,-0.009 -6.84,-0.042 -7.092,-0.116 -7.331,-0.125 c -0.099,-0.004 -0.15,0.023 -0.239,0.054 -0.153,0.052 -0.344,0.049 -0.488,0.12 -0.016,0.008 -0.077,0.08 -0.097,0.093 C -8.191,0.168 -8.232,0.195 -8.271,0.216 -8.388,0.279 -8.488,0.36 -8.597,0.44 -8.692,0.51 -8.786,0.547 -8.849,0.65 -8.959,0.83 -9.011,0.677 -9.083,0.57 -9.124,0.509 -9.185,0.484 -9.246,0.439 -9.293,0.404 -9.327,0.355 -9.377,0.324 -9.459,0.271 -9.565,0.249 -9.653,0.204 -9.875,0.087 -10.148,0.059 -10.392,0.009 c -0.11,-0.022 -0.25,-0.081 -0.362,-0.042 -0.073,0.026 -0.135,0.088 -0.201,0.125 -0.072,0.04 -0.137,0.069 -0.203,0.12 -0.12,0.094 -0.249,0.121 -0.37,0.194 -0.079,0.048 -0.114,0.126 -0.193,0.175 -0.08,0.05 -0.149,0.093 -0.212,0.16 -0.068,0.072 -0.094,0.199 -0.194,0.232 -0.094,-0.154 -0.206,-0.235 -0.34,-0.342 -0.082,-0.064 -0.153,-0.086 -0.242,-0.13 -0.109,-0.053 -0.209,-0.123 -0.325,-0.166 -0.095,-0.035 -0.192,-0.065 -0.288,-0.102 -0.094,-0.036 -0.18,-0.029 -0.282,-0.029 h -0.306 c -0.087,0 -0.203,0.022 -0.287,0.002 -0.106,-0.026 -0.046,-0.139 -0.057,-0.235 -0.017,-0.144 -0.107,-0.218 0.079,-0.215 0.081,0.001 0.164,-0.009 0.243,0.009 0.109,0.024 0.214,0.021 0.324,0.04 0.26,0.046 0.53,0.113 0.797,0.114 0.242,0 0.517,0.065 0.702,-0.12 0.05,-0.049 0.079,-0.127 0.131,-0.17 0.054,-0.045 0.134,-0.045 0.199,-0.067 0.192,-0.065 0.331,-0.112 0.537,-0.062 0.182,0.045 0.382,0.085 0.569,0.093 0.212,0.008 0.418,0.077 0.629,0.083 0.291,0.008 0.664,-0.06 0.93,0.029 0.11,0.037 0.118,0.05 0.213,-0.011 0.112,-0.072 0.251,-0.121 0.37,-0.181 0.162,-0.083 0.301,-0.174 0.484,-0.201 0.111,-0.016 0.226,-0.041 0.338,-0.048 0.134,-0.008 0.262,0.028 0.394,0.04 0.251,0.023 0.488,0.006 0.739,0.055 0.208,0.042 0.419,0.033 0.631,0.03 0.066,-0.001 0.139,-0.011 0.204,0.007 0.064,0.018 0.119,0.057 0.18,0.075 0.063,0.018 0.102,0.017 0.16,0.061 0.072,0.052 0.068,0.062 0.146,0.041 0.037,-0.01 0.081,-0.033 0.123,-0.042 0.118,-0.026 0.221,-0.008 0.341,-0.016 0.146,-0.009 0.291,-0.064 0.434,-0.097 0.212,-0.048 0.446,-0.122 0.665,-0.133 0.251,-0.013 0.483,0.047 0.717,0.134 0.138,0.051 0.276,0.099 0.408,0.164 0.076,0.037 0.156,0.039 0.23,0.073 0.082,0.038 0.134,0.081 0.219,0.11 0.113,0.038 0.241,0.128 0.35,0.149 0.097,0.019 0.207,-0.066 0.285,-0.119 0.133,-0.089 0.283,-0.09 0.434,-0.131 0.116,-0.032 0.208,-0.097 0.335,-0.071 0.108,0.022 0.187,0.079 0.305,0.081 0.136,0.003 0.273,-0.001 0.409,-0.001 0.097,0 0.231,-0.031 0.296,0.039 0.062,0.066 0.108,0.195 0.138,0.281 C 0.361,0.022 0.222,0.003 0.146,0 0.056,-0.003 -0.007,-0.053 0,0"
             style="fill:#231f20;fill-opacity:1;fill-rule:nonzero;stroke:none"
             id="path28741" />
        </g>
      </g>
    </g>
  </g>
</svg>
