<?xml version="1.0" encoding="UTF-8" standalone="no"?>
<!-- Created with Inkscape (http://www.inkscape.org/) -->

<svg
   width="21.714554"
   height="24"
   viewBox="0 0 5.7453089 6.35"
   version="1.1"
   id="svg42977"
   inkscape:version="1.2.1 (9c6d41e4, 2022-07-14)"
   sodipodi:docname="byakhee.svg"
   xmlns:inkscape="http://www.inkscape.org/namespaces/inkscape"
   xmlns:sodipodi="http://sodipodi.sourceforge.net/DTD/sodipodi-0.dtd"
   xmlns="http://www.w3.org/2000/svg"
   xmlns:svg="http://www.w3.org/2000/svg">
  <sodipodi:namedview
     id="namedview42979"
     pagecolor="#505050"
     bordercolor="#eeeeee"
     borderopacity="1"
     inkscape:showpageshadow="0"
     inkscape:pageopacity="0"
     inkscape:pagecheckerboard="0"
     inkscape:deskcolor="#505050"
     inkscape:document-units="mm"
     showgrid="false"
     inkscape:zoom="0.2102413"
     inkscape:cx="192.63579"
     inkscape:cy="166.47538"
     inkscape:window-width="1309"
     inkscape:window-height="456"
     inkscape:window-x="0"
     inkscape:window-y="25"
     inkscape:window-maximized="0"
     inkscape:current-layer="layer1" />
  <defs
     id="defs42974">
    <clipPath
       clipPathUnits="userSpaceOnUse"
       id="clipPath21677">
      <path
         d="m 115.488,416.131 h 24.699 v 24.699 h -24.699 z"
         id="path21675" />
    </clipPath>
  </defs>
  <g
     inkscape:label="Layer 1"
     inkscape:groupmode="layer"
     id="layer1"
     transform="translate(-54.379473,-104.349)">
    <g
       id="g21671"
       transform="matrix(0.288691,0,0,-0.288691,20.433749,231.13373)">
      <g
         id="g21673"
         clip-path="url(#clipPath21677)">
        <g
           id="g21679"
           transform="translate(135.778,434.096)">
          <path
             d="m 0,0 c -0.043,-0.087 -0.113,-0.129 -0.155,-0.013 -0.015,0.042 -0.024,0.09 -0.044,0.129 -0.022,0.043 -0.059,0.057 -0.088,0.091 -0.05,0.06 -0.088,0.164 -0.093,0.237 -0.005,0.09 0.048,0.146 0.023,0.237 -0.021,0.076 -0.066,0.149 -0.08,0.235 h 0.086 C -0.367,0.861 -0.298,0.836 -0.265,0.803 -0.213,0.752 -0.17,0.691 -0.135,0.627 -0.104,0.569 -0.08,0.505 -0.051,0.446 -0.027,0.396 0.012,0.341 0.023,0.287 0.038,0.211 0.034,0.068 0,0 M -1.429,0.081 C -1.474,0.092 -1.413,0.009 -1.441,-0.023 -1.472,-0.058 -1.587,-0.018 -1.616,-0.005 -1.673,0.02 -1.713,0.024 -1.773,0.036 -1.844,0.051 -1.92,0.085 -1.995,0.113 -2.059,0.136 -2.125,0.157 -2.18,0.2 -2.244,0.25 -2.295,0.304 -2.366,0.345 -2.433,0.384 -2.491,0.413 -2.552,0.46 c -0.06,0.046 -0.124,0.087 -0.187,0.128 -0.037,0.023 -0.126,0.047 -0.095,0.101 0.023,0.042 0.115,0.048 0.153,0.055 0.129,0.023 0.254,0.066 0.385,0.085 0.051,0.007 0.093,0.029 0.145,0.031 0.027,0.001 0.061,-0.009 0.086,-0.002 0.024,0.005 0.031,0.025 0.055,0.031 0.025,0.006 0.061,-0.001 0.087,-0.001 0.069,0 0.104,0.004 0.15,-0.05 0.034,-0.04 0.072,-0.085 0.101,-0.129 0.032,-0.05 0.03,-0.101 0.041,-0.158 0.008,-0.041 0.036,-0.1 0.051,-0.147 0.027,-0.086 0.059,-0.258 0.151,-0.323 0.011,-0.002 0.025,-0.008 0.049,-0.022 -0.018,0.004 -0.034,0.012 -0.049,0.022 m -2.375,0.091 c -0.103,-0.12 -0.232,-0.171 -0.379,-0.221 -0.151,-0.052 -0.313,-0.158 -0.478,-0.115 -0.064,0.017 -0.113,0.042 -0.121,0.108 -0.009,0.068 0.015,0.13 0.028,0.193 0.016,0.078 0.063,0.162 0.094,0.237 0.035,0.086 0.06,0.178 0.107,0.257 0.041,0.068 0.084,0.098 0.143,0.142 0.057,0.042 0.111,0.078 0.177,0.105 0.049,0.02 0.072,0.047 0.114,0.075 0.1,0.065 0.221,-0.037 0.29,-0.109 0.185,-0.194 0.2,-0.467 0.025,-0.672 M -4.922,0.931 C -4.935,0.885 -4.928,0.86 -4.953,0.815 -4.96,0.801 -4.993,0.759 -5.003,0.745 -5.028,0.708 -5.067,0.681 -5.093,0.644 -5.139,0.579 -5.147,0.529 -5.211,0.466 -5.281,0.397 -5.343,0.322 -5.427,0.264 -5.543,0.184 -5.634,0.081 -5.765,0.03 -5.839,0.001 -5.901,-0.005 -5.976,0.037 -6.042,0.073 -6.04,0.118 -6.04,0.187 c 0.001,0.069 -0.012,0.147 -0.001,0.214 0.012,0.071 0.049,0.134 0.058,0.206 0.02,0.157 0.126,0.335 0.214,0.463 0.083,0.121 0.215,0.233 0.358,0.269 0.059,0.014 0.125,0.005 0.186,0.006 0.062,0.001 0.089,-0.019 0.142,-0.03 0.063,-0.012 0.132,0.006 0.181,-0.044 0.02,-0.02 0.046,-0.067 0.058,-0.108 C -4.838,1.145 -4.836,1.129 -4.837,1.116 -4.845,1.05 -4.905,0.994 -4.922,0.931 m 6.607,-1.88 C 1.657,-0.796 1.653,-0.621 1.587,-0.478 1.549,-0.396 1.505,-0.307 1.484,-0.219 1.471,-0.163 1.479,-0.13 1.452,-0.078 1.43,-0.032 1.4,0.008 1.381,0.056 1.3,0.261 1.113,0.424 0.958,0.58 0.829,0.709 0.689,0.825 0.538,0.927 0.535,0.929 0.53,0.932 0.525,0.935 0.539,0.885 0.5,0.881 0.464,0.89 0.388,0.91 0.342,0.968 0.309,1.033 0.259,1.129 0.222,1.229 0.157,1.317 0.046,1.468 -0.057,1.623 -0.208,1.74 -0.337,1.839 -0.457,1.938 -0.609,2.004 -0.741,2.061 -0.878,2.122 -1.012,2.174 -1.209,2.251 -1.407,2.337 -1.609,2.388 -1.675,2.405 -1.749,2.403 -1.823,2.403 -1.86,2.403 -1.9,2.398 -1.935,2.405 -1.96,2.41 -1.995,2.464 -2.007,2.41 -2.001,2.434 -1.852,2.32 -1.842,2.313 -1.775,2.26 -1.702,2.238 -1.625,2.204 -1.511,2.153 -1.434,2.08 -1.377,1.971 -1.351,1.921 -1.326,1.871 -1.292,1.826 -1.266,1.79 -1.153,1.699 -1.181,1.647 -1.201,1.609 -1.318,1.631 -1.351,1.63 -1.447,1.626 -1.541,1.61 -1.637,1.604 -1.821,1.592 -1.995,1.625 -2.178,1.632 -2.33,1.637 -2.484,1.632 -2.636,1.63 -2.798,1.628 -3.002,1.655 -3.153,1.716 -3.218,1.742 -3.268,1.765 -3.34,1.774 -3.418,1.783 -3.48,1.823 -3.558,1.84 -3.652,1.86 -3.747,1.847 -3.841,1.866 -3.896,1.877 -3.932,1.887 -3.988,1.889 -4.141,1.893 -4.288,1.883 -4.439,1.852 -4.558,1.828 -4.69,1.779 -4.81,1.772 -4.928,1.766 -5.105,1.816 -5.214,1.764 -5.252,1.746 -5.275,1.717 -5.319,1.708 -5.389,1.693 -5.476,1.707 -5.547,1.715 -5.727,1.736 -5.913,1.782 -6.085,1.835 -6.145,1.853 -6.209,1.882 -6.268,1.889 -6.327,1.896 -6.386,1.89 -6.44,1.903 -6.547,1.927 -6.521,1.705 -6.615,1.656 -6.72,1.602 -6.934,1.686 -7.008,1.569 -7.021,1.549 -7.009,1.514 -7.01,1.493 -7.012,1.442 -7.023,1.395 -7.039,1.346 -7.11,1.124 -7.125,0.893 -7.175,0.666 -7.199,0.559 -7.224,0.454 -7.253,0.349 -7.28,0.253 -7.295,0.156 -7.329,0.062 -7.337,0.04 -7.352,0.029 -7.353,0.004 c 0.068,-0.032 0.159,0.069 0.228,0.018 0.007,-0.089 -0.088,-0.128 -0.118,-0.198 -0.016,-0.037 -0.008,-0.083 -0.027,-0.122 -0.013,-0.027 -0.032,-0.047 -0.048,-0.071 -0.045,-0.064 -0.069,-0.139 -0.112,-0.204 -0.056,-0.086 -0.138,-0.132 -0.207,-0.204 -0.066,-0.068 -0.17,-0.359 -0.035,-0.393 0.072,-0.018 0.152,0.019 0.222,0.026 0.095,0.009 0.193,0.002 0.289,0.002 0.189,0 0.377,0 0.566,0 0.109,0 0.192,-0.015 0.298,-0.032 0.079,-0.013 0.116,-0.006 0.116,-0.084 -0.001,-0.087 -0.078,-0.152 -0.091,-0.235 -0.02,-0.125 0.004,-0.278 0.004,-0.405 0,-0.1 0,-0.2 -0.001,-0.3 -10e-4,-0.053 0.02,-0.085 0.024,-0.131 C -6.24,-2.378 -6.261,-2.458 -6.271,-2.508 -6.282,-2.57 -6.31,-2.639 -6.342,-2.695 -6.38,-2.761 -6.441,-2.798 -6.485,-2.859 -6.519,-2.904 -6.55,-2.965 -6.596,-3 -6.618,-3.017 -6.629,-3.017 -6.652,-3.029 -6.728,-3.069 -6.763,-3.148 -6.819,-3.216 -6.882,-3.293 -6.948,-3.37 -7.012,-3.447 -7.077,-3.523 -7.157,-3.57 -7.228,-3.636 c -0.148,-0.136 -0.2,-0.288 -0.242,-0.481 -0.022,-0.098 -0.04,-0.189 -0.069,-0.284 -0.015,-0.049 -0.014,-0.071 0.022,-0.113 0.079,-0.091 0.22,-0.131 0.334,-0.144 0.15,-0.017 0.372,-0.06 0.484,-0.169 0.105,-0.102 0.17,-0.266 0.288,-0.349 0.129,-0.091 0.27,-0.137 0.427,-0.157 0.205,-0.026 0.369,0.086 0.568,0.104 0.06,0.006 0.153,0.011 0.207,-0.016 0.057,-0.029 0.039,-0.051 0.06,-0.098 0.022,-0.046 0.058,-0.1 0.098,-0.132 0.054,-0.042 0.107,-0.059 0.168,-0.072 0.078,-0.017 0.15,-0.052 0.229,-0.055 0.117,-0.004 0.197,0.044 0.304,0.088 0.069,0.029 0.139,0.033 0.209,0.057 0.153,0.051 0.305,0.126 0.468,0.143 0.105,0.011 0.237,0.01 0.338,-0.008 0.126,-0.022 0.252,-0.007 0.377,-0.029 0.069,-0.012 0.141,-0.02 0.205,-0.049 0.052,-0.023 0.093,-0.054 0.151,-0.061 0.127,-0.014 0.269,0.01 0.393,0.034 0.09,0.018 0.176,0.075 0.265,0.104 0.09,0.029 0.158,0.036 0.252,0.036 0.113,0 0.227,-0.002 0.341,0 0.105,0.002 0.187,-0.037 0.284,-0.074 0.1,-0.038 0.204,-0.071 0.302,-0.111 0.073,-0.03 0.113,-0.071 0.093,-0.151 -0.016,-0.063 -0.056,-0.15 -0.091,-0.21 -0.054,-0.093 -0.164,-0.156 -0.162,-0.273 0.067,0.068 0.161,0.111 0.251,0.14 0.133,0.043 0.244,0.112 0.368,0.175 0.066,0.033 0.142,0.049 0.211,0.075 0.062,0.023 0.1,0.066 0.145,0.115 0.086,0.092 0.15,0.207 0.228,0.308 0.095,0.122 0.211,0.23 0.311,0.348 0.081,0.097 0.155,0.197 0.22,0.305 0.038,0.062 0.093,0.111 0.129,0.174 0.069,0.123 0.103,0.313 0.127,0.453 0.014,0.082 0.06,0.318 -0.022,0.38 C 0.969,-3.668 0.915,-3.72 0.848,-3.773 0.802,-3.81 0.753,-3.86 0.698,-3.809 0.644,-3.758 0.659,-3.665 0.643,-3.6 0.63,-3.548 0.62,-3.447 0.565,-3.427 0.527,-3.413 0.482,-3.43 0.457,-3.455 0.452,-3.485 0.439,-3.51 0.416,-3.531 0.401,-3.538 0.385,-3.545 0.37,-3.552 0.345,-3.553 0.325,-3.564 0.312,-3.585 0.308,-3.607 0.297,-3.625 0.28,-3.638 0.245,-3.666 0.203,-3.656 0.164,-3.658 c -0.111,-0.003 -0.091,0.043 -0.17,0.101 -0.043,0.032 -0.098,0.038 -0.145,0.063 -0.043,0.023 -0.069,0.058 -0.109,0.084 -0.052,-0.032 -0.073,-0.186 -0.131,-0.187 -0.031,-10e-4 -0.042,0.053 -0.066,0.067 -0.059,0.036 -0.053,-0.016 -0.093,-0.03 -0.076,-0.027 -0.143,0.181 -0.165,0.24 -0.017,0.045 -0.04,0.075 -0.065,0.113 -0.023,0.035 -0.024,0.044 -0.034,0.09 -0.026,-0.003 -0.1,-0.067 -0.12,-0.086 -0.049,-0.045 -0.086,-0.1 -0.14,-0.142 -0.044,-0.035 -0.084,-0.058 -0.12,-0.102 -0.041,-0.049 -0.093,-0.095 -0.147,-0.041 -0.056,0.056 -0.017,0.207 -0.093,0.224 -0.052,0.011 -0.154,-0.037 -0.208,-0.047 -0.054,-0.011 -0.11,-0.021 -0.164,-0.018 -0.113,0.006 -0.184,0.071 -0.225,0.174 -0.03,0.075 -0.036,0.156 -0.052,0.235 -0.008,0.044 -0.005,0.09 -0.014,0.134 -0.006,0.031 -0.029,0.057 -0.026,0.09 -0.073,-0.076 -0.095,-0.18 -0.158,-0.258 -0.049,-0.062 -0.126,-0.083 -0.165,-0.158 -0.088,0.037 -0.191,0.079 -0.256,0.152 -0.026,0.03 -0.042,0.066 -0.063,0.099 -0.129,0.199 -0.23,-0.164 -0.276,-0.132 -0.036,0.025 -0.044,0.08 -0.082,0.109 -0.037,0.029 -0.059,0.02 -0.101,0.03 -0.07,0.015 -0.134,0.054 -0.2,0.079 -0.133,0.051 -0.286,0.033 -0.428,0.032 -0.091,0 -0.166,0.031 -0.255,0.029 -0.066,-10e-4 -0.167,-0.055 -0.23,-0.027 -0.084,0.038 -0.019,0.158 0.005,0.222 0.029,0.076 0.037,0.152 0.065,0.229 0.018,0.049 0.036,0.109 0.06,0.159 0.023,0.049 0.06,0.092 0.08,0.146 0.042,0.118 0.103,0.176 0.18,0.27 0.046,0.056 0.1,0.106 0.151,0.156 0.05,0.049 0.09,0.046 0.158,0.045 0.062,0 0.138,0.013 0.2,0.002 0.069,-0.012 0.084,-0.042 0.149,-0.009 0.079,0.04 0.121,0.047 0.207,0.005 0.092,-0.045 0.156,-0.06 0.258,-0.055 0.053,0.002 0.1,0.037 0.154,0.029 0.03,-0.004 0.053,-0.022 0.081,-0.026 0.024,-0.002 0.045,0.001 0.068,0.004 0.044,0.006 0.066,0.02 0.105,-0.011 0.066,-0.051 0.147,-0.226 0.156,-0.307 0,0.002 0.08,0.107 0.088,0.122 0.027,0.054 0.048,0.111 0.077,0.163 0.066,0.119 0.102,0.019 0.197,0.004 0.087,-0.014 0.218,0.069 0.284,0.121 0.026,0.02 0.046,0.045 0.076,0.06 0.055,0.026 0.141,0.019 0.188,-0.022 0.02,-0.018 0.026,-0.049 0.053,-0.055 0.042,-0.01 0.099,0.043 0.125,0.067 0.071,0.069 0.107,0.092 0.207,0.081 0.072,-0.008 0.108,-0.067 0.171,-0.085 0.122,-0.036 0.259,0.062 0.365,0.106 0.111,0.047 0.23,0.038 0.35,0.035 0.092,-0.001 0.204,-0.071 0.282,-0.118 0.084,-0.05 0.124,-0.155 0.196,-0.225 0.076,-0.075 0.137,-0.154 0.19,-0.247 0.028,-0.048 0.037,-0.103 0.061,-0.155 0.008,-0.019 0.025,-0.033 0.03,-0.054 0.006,-0.027 -0.007,-0.051 0.004,-0.079 0.059,0.069 0.096,0.171 0.144,0.249 0.051,0.084 0.097,0.154 0.136,0.243 0.037,0.086 0.043,0.18 0.064,0.271 0.013,0.062 0.022,0.106 0.022,0.173 0,0.042 -0.01,0.096 0.006,0.135 0.132,-0.184 0.13,-0.414 0.18,-0.619 0.027,-0.113 0.043,-0.226 0.043,-0.347 0,-0.096 -0.021,-0.22 0.005,-0.311 0.062,0.014 0.155,0.153 0.201,0.197 0.034,0.032 0.081,0.064 0.108,0.103 0.03,0.042 0.045,0.106 0.065,0.154 0.06,0.145 0.049,0.304 0.049,0.459 0,0.171 0.009,0.341 -0.022,0.507"
             style="fill:#231f20;fill-opacity:1;fill-rule:nonzero;stroke:none"
             id="path21681" />
        </g>
        <g
           id="g21683"
           transform="translate(128.168,436.125)">
          <path
             d="m 0,0 c 0.009,-0.093 0.018,-0.187 0.027,-0.281 0.014,-0.148 -0.008,-0.282 0.008,-0.428 0.029,-0.279 -0.084,-0.53 -0.217,-0.766 -0.07,-0.122 -0.131,-0.253 -0.186,-0.383 -0.029,-0.067 -0.055,-0.122 -0.069,-0.191 -0.017,-0.079 -0.004,-0.157 -0.022,-0.232 -0.062,-0.263 -0.247,-0.468 -0.426,-0.663 -0.141,-0.153 -0.285,-0.351 -0.487,-0.427 -0.036,-0.014 -0.132,-0.041 -0.158,-0.005 -0.009,0.011 -0.023,0.095 -0.029,0.11 -0.023,0.071 -0.032,0.152 -0.039,0.232 -0.008,0.093 0.023,0.145 0.053,0.233 0.069,0.206 0.165,0.39 0.302,0.562 0.067,0.085 0.123,0.162 0.175,0.257 0.018,0.034 0.039,0.068 0.056,0.103 0.024,0.048 0.029,0.115 0.058,0.158 0.04,0.059 0.09,0.118 0.13,0.182 0.067,0.111 0.139,0.206 0.199,0.32 0.085,0.162 0.193,0.28 0.217,0.467 0.015,0.117 -0.022,0.23 -0.018,0.347 0.002,0.046 0.009,0.085 0.029,0.127 0.028,0.056 0.036,0.083 0.044,0.145 0.016,0.121 0.051,0.205 0.179,0.216 0.042,0.003 0.104,0.026 0.132,-0.005 C -0.021,0.054 -0.027,-0.068 0,0"
             style="fill:#231f20;fill-opacity:1;fill-rule:nonzero;stroke:none"
             id="path21685" />
        </g>
        <g
           id="g21687"
           transform="translate(126.802,437.585)">
          <path
             d="m 0,0 c 0.02,-0.212 0.072,-0.414 0.093,-0.628 0.018,-0.174 -0.009,-0.34 -0.091,-0.498 -0.04,-0.077 -0.096,-0.13 -0.13,-0.212 -0.031,-0.075 -0.093,-0.159 -0.154,-0.215 -0.063,-0.059 -0.109,-0.102 -0.149,-0.185 -0.042,-0.089 -0.057,-0.209 -0.077,-0.305 -0.021,-0.103 -0.03,-0.205 -0.061,-0.304 -0.034,-0.105 -0.033,-0.215 -0.104,-0.304 -0.06,-0.075 -0.144,-0.138 -0.212,-0.208 -0.035,-0.037 -0.065,-0.075 -0.099,-0.112 -0.057,-0.062 -0.127,-0.095 -0.191,-0.148 -0.099,-0.081 -0.193,-0.162 -0.303,-0.229 -0.066,-0.041 -0.148,-0.071 -0.167,-0.156 -0.014,-0.062 0.005,-0.133 0.035,-0.189 0.056,-0.104 0.151,-0.14 0.231,-0.216 0.109,-0.105 0.223,-0.15 0.378,-0.092 0.084,0.032 0.147,0.118 0.207,0.181 0.108,0.111 0.242,0.205 0.336,0.33 0.056,0.074 0.067,0.164 0.115,0.243 0.051,0.084 0.112,0.166 0.167,0.249 0.084,0.128 0.201,0.249 0.269,0.388 0.07,0.143 0.121,0.287 0.209,0.421 0.034,0.051 0.091,0.09 0.121,0.142 0.017,0.032 0.019,0.071 0.035,0.103 0.026,0.051 0.066,0.087 0.089,0.141 0.031,0.075 0.083,0.134 0.112,0.208 0.028,0.072 0.052,0.17 0.06,0.248 0.021,0.19 -0.063,0.368 -0.004,0.552 0.041,0.129 0.01,0.373 -0.031,0.504 -0.016,0.049 -0.041,0.079 -0.071,0.119 -0.035,0.046 -0.056,0.091 -0.087,0.14 C 0.488,0.028 0.418,0.112 0.352,0.143 0.286,0.175 0.046,0.264 -0.014,0.192 -0.036,0.165 -0.006,0.002 0.002,-0.034 0.019,-0.104 0.046,-0.147 0,0"
             style="fill:#231f20;fill-opacity:1;fill-rule:nonzero;stroke:none"
             id="path21689" />
        </g>
        <g
           id="g21691"
           transform="translate(125.386,438.453)">
          <path
             d="M 0,0 C 0.031,-0.156 0.096,-0.293 0.127,-0.452 0.178,-0.72 0.221,-0.982 0.202,-1.258 0.187,-1.471 0.159,-1.656 0.09,-1.865 0.021,-2.077 -0.036,-2.3 -0.173,-2.486 -0.287,-2.64 -0.356,-2.815 -0.487,-2.956 -0.544,-3.018 -0.604,-3.078 -0.66,-3.14 c -0.05,-0.055 -0.131,-0.134 -0.165,-0.194 -0.053,-0.093 -0.033,-0.267 -0.009,-0.362 0.032,-0.129 0.12,-0.188 0.238,-0.256 0.135,-0.078 0.201,-0.02 0.303,0.081 0.095,0.096 0.139,0.219 0.213,0.326 0.091,0.13 0.186,0.244 0.26,0.385 0.071,0.137 0.127,0.268 0.18,0.41 0.042,0.11 0.11,0.195 0.116,0.314 0.007,0.124 0.044,0.235 0.064,0.358 0.02,0.122 0.019,0.216 0.082,0.333 0.08,0.149 0.274,0.236 0.306,0.414 0.03,0.168 -0.019,0.326 -0.052,0.489 C 0.848,-0.699 0.834,-0.547 0.773,-0.414 0.739,-0.343 0.732,-0.27 0.703,-0.198 0.674,-0.128 0.66,-0.041 0.622,0.023 0.571,0.113 0.489,0.228 0.369,0.208 0.305,0.198 0.269,0.179 0.211,0.201 0.168,0.218 0.146,0.246 0.099,0.256 0.077,0.261 -0.011,0.27 -0.034,0.265 -0.112,0.249 -0.075,0.191 -0.065,0.138 -0.051,0.073 -0.04,0.038 -0.002,-0.017 0.021,-0.049 0.022,-0.062 0.053,-0.09 0.087,-0.12 0.138,-0.12 0,0"
             style="fill:#231f20;fill-opacity:1;fill-rule:nonzero;stroke:none"
             id="path21693" />
        </g>
        <g
           id="g21695"
           transform="translate(123.763,438.735)">
          <path
             d="M 0,0 C 0.014,-0.049 0.077,-0.083 0.117,-0.113 0.2,-0.172 0.28,-0.234 0.36,-0.296 0.449,-0.365 0.493,-0.435 0.519,-0.543 0.545,-0.649 0.592,-0.746 0.618,-0.851 0.727,-1.294 0.676,-1.766 0.55,-2.212 0.525,-2.302 0.527,-2.395 0.496,-2.483 0.458,-2.588 0.38,-2.681 0.335,-2.784 0.274,-2.928 0.199,-3.085 0.167,-3.236 0.143,-3.343 0.102,-3.429 0.066,-3.531 0.031,-3.634 0.048,-3.71 0.192,-3.696 c 0.049,0.005 0.135,0.018 0.177,0.038 0.049,0.023 0.103,0.096 0.144,0.136 0.125,0.121 0.215,0.279 0.288,0.429 0.094,0.193 0.213,0.377 0.289,0.578 0.089,0.237 0.09,0.49 0.112,0.734 0.017,0.191 0.039,0.383 0.069,0.573 C 1.302,-1 1.243,-0.808 1.202,-0.604 1.175,-0.469 1.171,-0.287 1.108,-0.165 1.05,-0.052 0.923,0.045 0.803,0.1 0.68,0.156 0.565,0.216 0.45,0.278 0.398,0.306 0.343,0.334 0.292,0.361 0.257,0.379 0.207,0.42 0.168,0.43 0.017,0.471 -0.006,0.294 -0.004,0.201 c 0,-0.048 0.013,-0.088 0.009,-0.133 -0.004,-0.05 -0.012,-0.109 0.019,-0.158 0.021,0 0.041,0 0.061,0 C 0.09,-0.099 0.093,-0.107 0,0"
             style="fill:#231f20;fill-opacity:1;fill-rule:nonzero;stroke:none"
             id="path21697" />
        </g>
        <g
           id="g21699"
           transform="translate(122.555,438.428)">
          <path
             d="M 0,0 C 0.01,-0.153 0.216,-0.295 0.307,-0.406 0.425,-0.549 0.501,-0.694 0.572,-0.861 0.726,-1.223 0.752,-1.583 0.718,-1.976 0.706,-2.114 0.723,-2.259 0.734,-2.396 0.746,-2.545 0.708,-2.709 0.688,-2.858 0.675,-2.947 0.653,-3.043 0.658,-3.133 0.66,-3.178 0.666,-3.214 0.712,-3.224 c 0.045,-0.009 0.127,0.038 0.155,0.065 0.055,0.057 0.099,0.156 0.133,0.227 0.093,0.19 0.169,0.384 0.175,0.59 0.007,0.197 0.045,0.4 0.032,0.596 C 1.195,-1.569 1.133,-1.385 1.099,-1.21 1.051,-0.971 1.004,-0.732 0.956,-0.492 0.933,-0.378 0.931,-0.234 0.885,-0.127 0.847,-0.037 0.723,0.007 0.628,0.033 0.529,0.06 0.46,0.083 0.375,0.133 0.292,0.183 0.221,0.22 0.128,0.252 0.036,0.284 -0.031,0.242 -0.031,0.146 -0.03,0.085 0.006,0.085 0.03,0.042 0.058,-0.007 0.062,-0.134 0,0"
             style="fill:#231f20;fill-opacity:1;fill-rule:nonzero;stroke:none"
             id="path21701" />
        </g>
        <g
           id="g21703"
           transform="translate(121.777,437.837)">
          <path
             d="M 0,0 C -0.006,-0.085 0.144,-0.114 0.201,-0.159 0.272,-0.217 0.318,-0.293 0.363,-0.368 0.404,-0.435 0.446,-0.451 0.502,-0.504 0.691,-0.682 0.758,-1.001 0.806,-1.238 0.829,-1.353 0.87,-1.475 0.858,-1.593 0.847,-1.696 0.849,-1.799 0.844,-1.9 0.834,-2.068 0.873,-2.252 0.82,-2.414 0.804,-2.46 0.787,-2.522 0.732,-2.547 0.677,-2.572 0.525,-2.539 0.471,-2.522 c -0.214,0.069 -0.136,0.485 -0.141,0.63 -0.008,0.251 -0.046,0.49 -0.099,0.734 -0.026,0.121 -0.1,0.241 -0.18,0.338 -0.031,0.037 -0.07,0.063 -0.093,0.105 -0.027,0.051 -0.042,0.094 -0.086,0.136 -0.102,0.099 -0.257,0.268 -0.165,0.411 0.055,0.086 0.094,0.089 0.191,0.122 0.066,0.023 0.031,0.02 0.093,0.011 C 0.035,-0.042 0.127,-0.043 0,0"
             style="fill:#231f20;fill-opacity:1;fill-rule:nonzero;stroke:none"
             id="path21705" />
        </g>
        <g
           id="g21707"
           transform="translate(120.977,436.602)">
          <path
             d="m 0,0 c 0.001,-0.065 0.061,-0.106 0.103,-0.152 0.081,-0.089 0.154,-0.184 0.201,-0.293 0.068,-0.158 0.108,-0.308 0.14,-0.477 0.023,-0.116 0.076,-0.216 0.103,-0.331 0.041,-0.173 0.141,0.016 0.167,0.1 0.045,0.144 0.046,0.249 0.033,0.395 C 0.741,-0.7 0.759,-0.649 0.752,-0.59 0.743,-0.514 0.714,-0.457 0.683,-0.386 0.648,-0.308 0.608,-0.226 0.587,-0.144 0.573,-0.086 0.578,-0.012 0.553,0.043 0.504,0.152 0.427,0.265 0.368,0.371 0.274,0.372 0.216,0.313 0.135,0.302 0.092,0.297 0.109,0.354 0.049,0.308 0.005,0.275 0.029,0.232 0.036,0.192 0.048,0.122 0.065,0.052 0.078,-0.018 0.084,-0.048 0.084,-0.087 0.096,-0.115 0.114,-0.161 0.161,-0.184 0,0"
             style="fill:#231f20;fill-opacity:1;fill-rule:nonzero;stroke:none"
             id="path21709" />
        </g>
        <g
           id="g21711"
           transform="translate(124.05,432.279)">
          <path
             d="m 0,0 c -0.286,-0.461 -0.559,-0.931 -0.826,-1.403 -0.098,-0.173 -0.184,-0.353 -0.281,-0.527 -0.101,-0.183 -0.232,-0.344 -0.34,-0.522 -0.081,-0.132 -0.135,-0.276 -0.207,-0.414 -0.072,-0.137 -0.159,-0.257 -0.257,-0.377 -0.067,-0.083 -0.123,-0.164 -0.18,-0.253 -0.066,-0.103 -0.143,-0.19 -0.216,-0.286 -0.124,-0.165 -0.161,-0.31 -0.344,-0.422 -0.039,-0.024 -0.071,-0.05 -0.105,-0.08 -0.096,-0.083 -0.208,-0.177 -0.275,-0.285 -0.096,-0.155 -0.098,-0.366 -0.132,-0.537 -0.031,-0.161 -0.163,-0.261 -0.168,-0.429 -0.005,-0.179 -0.032,-0.382 0.076,-0.529 0.061,-0.083 0.089,-0.165 0.139,-0.256 0.037,-0.068 0.093,-0.115 0.119,-0.19 0.05,-0.145 0.042,-0.249 0.223,-0.247 0.179,0.002 0.358,0 0.537,0 0.204,-0.001 0.404,0.097 0.604,0.062 0.128,-0.023 0.223,0.019 0.284,0.133 0.063,0.118 0.077,0.244 0.156,0.356 0.096,0.136 0.177,0.248 0.331,0.323 0.205,0.099 0.39,0.055 0.604,0.047 0.23,-0.008 0.458,0.114 0.558,0.325 0.053,0.111 0.078,0.229 0.163,0.321 0.098,0.105 0.197,0.199 0.291,0.309 0.125,0.147 0.232,0.292 0.407,0.387 0.15,0.081 0.322,0.156 0.451,0.267 0.088,0.075 0.183,0.134 0.213,-0.029 0.048,0.056 0.082,0.223 0.153,0.241 C 2.015,-4.099 1.983,-4.229 1.965,-4.309 1.937,-4.435 1.945,-4.539 1.878,-4.655 1.826,-4.747 1.756,-4.828 1.701,-4.919 1.57,-5.136 1.466,-5.372 1.343,-5.593 1.308,-5.656 1.271,-5.725 1.257,-5.795 1.25,-5.827 1.254,-5.855 1.247,-5.886 1.234,-5.944 1.196,-6 1.183,-6.061 1.172,-6.112 1.127,-6.204 1.131,-6.253 c 0.044,-0.003 0.07,0.035 0.099,0.062 0.074,0.069 0.163,0.117 0.241,0.181 0.047,0.039 0.092,0.081 0.148,0.107 0.037,0.018 0.106,0.063 0.145,0.062 C 1.776,-5.87 1.758,-5.884 1.749,-5.908 1.728,-5.967 1.721,-6.029 1.693,-6.086 1.642,-6.192 1.64,-6.296 1.619,-6.411 1.602,-6.507 1.585,-6.603 1.57,-6.699 1.556,-6.788 1.522,-6.871 1.521,-6.963 1.519,-7.024 1.502,-7.062 1.57,-7.067 c 0.063,-0.004 0.093,0.038 0.137,0.073 0.072,0.057 0.15,0.103 0.218,0.163 0.045,0.04 0.097,0.114 0.155,0.131 0.023,-0.043 0,-0.102 -0.017,-0.142 C 2.023,-6.934 2.009,-7.022 1.982,-7.117 1.956,-7.206 1.905,-7.291 1.86,-7.37 1.799,-7.476 1.754,-7.594 1.688,-7.697 1.638,-7.776 1.588,-7.846 1.55,-7.933 1.513,-8.016 1.472,-8.096 1.418,-8.169 1.286,-8.349 1.16,-8.548 1.066,-8.752 1.015,-8.864 0.974,-8.967 0.906,-9.07 0.84,-9.169 0.785,-9.269 0.729,-9.373 0.63,-9.558 0.52,-9.726 0.364,-9.869 c -0.08,-0.073 -0.18,-0.116 -0.261,-0.187 -0.064,-0.057 -0.112,-0.129 -0.153,-0.204 -0.056,-0.102 -0.098,-0.211 -0.152,-0.314 -0.057,-0.108 -0.119,-0.209 -0.167,-0.323 -0.081,-0.192 -0.258,-0.324 -0.408,-0.461 -0.076,-0.069 -0.151,-0.139 -0.23,-0.205 -0.099,-0.084 -0.207,-0.152 -0.3,-0.243 -0.153,-0.15 -0.317,-0.28 -0.453,-0.447 -0.11,-0.135 -0.189,-0.279 -0.346,-0.364 -0.082,-0.045 -0.173,-0.071 -0.256,-0.115 -0.105,-0.056 -0.191,-0.122 -0.283,-0.198 -0.045,-0.037 -0.082,-0.088 -0.127,-0.123 -0.034,-0.026 -0.066,-0.026 -0.076,-0.072 -0.009,-0.044 0.012,-0.056 -0.022,-0.094 -0.017,-0.018 -0.046,-0.033 -0.066,-0.049 0.054,-0.029 0.137,0.034 0.191,0.043 0.105,0.016 0.211,10e-4 0.317,0.02 0.116,0.021 0.212,0.041 0.319,0.09 0.073,0.034 0.138,0.073 0.209,0.111 0.08,0.043 0.167,0.06 0.244,0.111 0.139,0.092 0.27,0.187 0.416,0.268 0.137,0.074 0.281,0.099 0.422,0.156 0.145,0.058 0.275,0.154 0.392,0.255 0.086,0.074 0.175,0.144 0.262,0.216 0.082,0.069 0.149,0.156 0.224,0.233 0.131,0.136 0.294,0.22 0.432,0.348 0.082,0.077 0.14,0.171 0.219,0.249 0.087,0.088 0.18,0.173 0.278,0.248 0.174,0.134 0.316,0.306 0.457,0.474 0.082,0.098 0.174,0.184 0.262,0.277 0.102,0.109 0.169,0.242 0.258,0.361 0.332,0.44 0.684,0.878 1.068,1.274 0.161,0.167 0.34,0.328 0.489,0.506 0.086,0.105 0.147,0.223 0.208,0.344 0.038,0.074 0.019,0.161 0.044,0.241 0.024,0.074 0.034,0.148 0.052,0.223 0.018,0.071 0.016,0.139 0.03,0.208 0.01,0.051 0.02,0.09 0.019,0.144 0,0.031 -0.005,0.065 0.005,0.094 0.057,-0.013 0.093,-0.127 0.123,-0.174 0.051,-0.082 0.116,-0.159 0.161,-0.245 0.031,-0.057 0.053,-0.13 0.081,-0.191 0.025,-0.054 0.024,-0.105 0.023,-0.164 -0.001,-0.084 0,-0.167 0,-0.25 0,-0.035 -0.012,-0.091 0.005,-0.123 0.047,0.07 0.039,0.182 0.073,0.261 0.169,0.397 0.243,0.89 0.083,1.301 -0.041,0.103 -0.095,0.213 -0.179,0.289 -0.054,0.049 -0.124,0.079 -0.176,0.131 -0.083,0.081 -0.116,0.194 -0.173,0.292 -0.056,0.097 -0.135,0.181 -0.179,0.285 -0.12,0.287 -0.2,0.589 -0.24,0.899 -0.03,0.228 -0.07,0.424 -0.205,0.613 -0.066,0.093 -0.174,0.1 -0.266,0.154 -0.094,0.056 -0.145,0.166 -0.191,0.26 -0.079,0.16 -0.084,0.342 -0.148,0.507 -0.061,0.158 -0.214,0.273 -0.256,0.438 -0.028,0.112 0.023,0.209 0.028,0.319 0.003,0.06 -0.008,0.111 -0.038,0.163 C 2.272,-1.775 2.113,-2.129 1.942,-2.034 1.893,-2.007 1.886,-1.941 1.828,-1.917 1.763,-1.891 1.727,-1.915 1.676,-1.942 1.552,-2.007 1.44,-2.092 1.37,-2.212 1.211,-2.486 0.923,-2.664 0.745,-2.928 0.569,-3.189 0.291,-3.396 0.041,-3.579 -0.099,-3.682 -0.234,-3.794 -0.381,-3.886 -0.488,-3.953 -0.615,-3.994 -0.715,-4.071 -0.756,-4.102 -0.771,-4.132 -0.801,-4.17 -0.911,-4.308 -1.075,-4.426 -1.233,-4.5 -1.3,-4.531 -1.41,-4.561 -1.447,-4.489 c -0.059,0.117 0.083,0.306 0.141,0.39 0.157,0.227 0.345,0.401 0.515,0.616 0.139,0.176 0.183,0.406 0.3,0.596 0.099,0.162 0.22,0.28 0.259,0.47 0.095,0.46 0.214,0.93 0.468,1.328 0.147,0.23 0.311,0.45 0.456,0.681 0.035,0.057 0.081,0.153 0.154,0.169 0.068,0.014 0.056,-0.023 0.115,0.016 0.046,0.031 0.092,0.204 0.116,0.255 0.027,0.059 0.054,0.119 0.081,0.178 0.065,0.149 0.124,0.301 0.161,0.46 0.016,0.067 0.031,0.119 0.03,0.189 0,0.066 0.03,0.134 -0.046,0.149 C 1.245,1.018 1.16,1.01 1.102,1 1.055,0.992 1.018,0.97 0.973,1.004 0.948,1.023 0.949,1.052 0.928,1.075 0.886,1.12 0.814,1.103 0.765,1.082 0.713,1.061 0.683,1.026 0.641,0.99 0.556,0.918 0.46,0.859 0.386,0.776 0.258,0.631 0.14,0.457 0.043,0.29 -0.022,0.18 -0.046,0.068 -0.073,-0.05 -0.081,-0.087 -0.096,-0.107 -0.099,-0.148 -0.103,-0.21 -0.108,-0.255 0,0"
             style="fill:#231f20;fill-opacity:1;fill-rule:nonzero;stroke:none"
             id="path21713" />
        </g>
        <g
           id="g21715"
           transform="translate(130.604,424.807)">
          <path
             d="m 0,0 c -0.011,-0.046 -0.021,-0.092 -0.04,-0.136 -0.006,-0.013 0.183,-0.008 0.199,-0.006 0.142,0.025 0.268,0.095 0.416,0.083 0.086,-0.006 0.156,-0.043 0.236,-0.063 0.05,-0.013 0.099,-0.025 0.15,-0.015 0.084,0.015 0.143,0.077 0.206,0.129 C 1.368,0.157 1.625,0.243 1.845,0.38 1.942,0.441 2.006,0.542 2.109,0.593 2.202,0.639 2.276,0.614 2.374,0.634 2.493,0.66 2.564,0.758 2.672,0.805 2.798,0.86 2.941,0.856 3.064,0.916 3.197,0.982 3.284,1.113 3.423,1.173 3.623,1.26 3.858,1.351 4.074,1.386 4.265,1.417 4.428,1.361 4.566,1.225 4.666,1.128 4.761,1.003 4.811,0.873 4.872,0.715 4.881,0.537 4.952,0.383 4.972,0.341 5.001,0.304 5.026,0.265 5.063,0.208 5.085,0.149 5.11,0.086 5.15,-0.016 5.193,-0.125 5.196,-0.235 5.199,-0.366 5.195,-0.498 5.195,-0.629 5.195,-0.667 5.22,-0.838 5.194,-0.871 5.146,-0.933 5.083,-0.833 5.061,-0.793 5.028,-0.731 5.03,-0.666 4.99,-0.606 4.951,-0.548 4.925,-0.485 4.876,-0.435 4.832,-0.39 4.832,-0.335 4.792,-0.291 4.709,-0.201 4.714,-0.358 4.701,-0.415 4.665,-0.578 4.618,-0.707 4.544,-0.856 4.465,-1.016 4.455,-1.211 4.339,-1.35 4.233,-1.478 4.166,-1.633 4.062,-1.766 4.015,-1.827 3.977,-1.866 3.949,-1.941 3.919,-2.019 3.868,-2.072 3.826,-2.145 3.727,-2.317 3.647,-2.488 3.532,-2.651 3.451,-2.765 3.372,-2.882 3.289,-2.995 3.162,-3.17 3.028,-3.34 2.901,-3.514 2.701,-3.789 2.504,-4.063 2.295,-4.332 2.202,-4.452 2.118,-4.577 2.017,-4.69 1.923,-4.797 1.813,-4.88 1.71,-4.977 1.468,-5.204 1.203,-5.396 0.92,-5.566 0.79,-5.644 0.663,-5.727 0.532,-5.803 0.403,-5.878 0.267,-5.93 0.136,-6 -0.002,-6.075 -0.133,-6.175 -0.279,-6.234 -0.407,-6.287 -0.518,-6.337 -0.637,-6.411 -0.755,-6.484 -0.878,-6.535 -1.003,-6.594 -1.157,-6.668 -1.296,-6.758 -1.443,-6.847 -1.553,-6.915 -1.653,-6.997 -1.768,-7.06 -1.86,-7.11 -1.943,-7.133 -2.04,-7.166 -2.236,-7.234 -2.416,-7.328 -2.613,-7.39 -2.793,-7.447 -2.976,-7.496 -3.157,-7.547 -3.241,-7.571 -3.326,-7.571 -3.41,-7.589 -3.464,-7.6 -3.526,-7.643 -3.579,-7.629 c -0.013,0.049 0.081,0.11 0.111,0.14 0.079,0.079 0.155,0.177 0.253,0.234 0.118,0.07 0.211,0.168 0.32,0.253 0.119,0.094 0.255,0.163 0.376,0.255 0.097,0.073 0.184,0.157 0.278,0.234 0.07,0.058 0.14,0.079 0.222,0.115 0.102,0.044 0.193,0.102 0.278,0.173 0.209,0.174 0.457,0.268 0.679,0.422 0.091,0.062 0.184,0.112 0.278,0.17 0.097,0.062 0.176,0.145 0.271,0.21 0.14,0.097 0.309,0.146 0.443,0.254 0.101,0.081 0.196,0.171 0.29,0.26 0.188,0.177 0.383,0.34 0.54,0.548 0.13,0.172 0.251,0.352 0.38,0.524 0.113,0.15 0.264,0.289 0.334,0.463 0.035,0.088 0.056,0.18 0.102,0.263 0.051,0.096 0.109,0.188 0.16,0.284 0.038,0.072 0.082,0.141 0.121,0.213 0.031,0.06 0.042,0.125 0.07,0.185 0.066,0.139 0.159,0.296 0.246,0.423 0.036,0.053 0.078,0.056 0.115,0.102 0.029,0.036 0.022,0.092 0.058,0.126 0.044,0.041 0.096,0.035 0.132,0.09 0.035,0.054 0.032,0.115 0.067,0.17 0.054,0.083 0.141,0.15 0.197,0.237 0.077,0.122 0.184,0.235 0.249,0.363 0.025,0.049 0.171,0.404 0.077,0.411 C 2.99,-0.573 2.968,-0.67 2.886,-0.733 2.836,-0.772 2.764,-0.786 2.71,-0.833 2.658,-0.879 2.614,-0.928 2.549,-0.958 2.457,-1 2.369,-0.985 2.272,-0.997 1.952,-1.038 1.876,-1.3 1.731,-1.534 1.671,-1.63 1.561,-1.722 1.561,-1.845 c 0.048,0.073 0.058,0.16 0.047,0.246 -0.005,0.041 -0.028,0.065 -0.034,0.094 -0.009,0.04 10e-4,0.08 -0.006,0.119 C 1.53,-1.183 1.294,-1.165 1.128,-1.145 0.816,-1.11 0.517,-1.21 0.211,-1.254 0.163,-1.261 0.114,-1.261 0.065,-1.26 c -0.195,0.005 -0.32,0.008 -0.496,-0.089 -0.249,-0.136 -0.457,0.114 -0.696,0.132 -0.188,0.015 -0.27,0.111 -0.374,0.25 -0.105,0.14 -0.089,0.193 -0.04,0.354 0.065,0.217 0.249,0.406 0.298,0.643 0.023,0.112 0.025,0.225 0.038,0.34 0.007,0.059 0.029,0.118 0.053,0.172 0.034,0.078 0.093,0.137 0.122,0.219 0.025,0.075 0.03,0.152 0.062,0.226 0.018,0.041 0.039,0.083 0.061,0.123 0.038,0.068 0.084,0.129 0.131,0.19 0.15,0.195 0.302,0.394 0.517,0.519 0.107,0.062 0.202,0.13 0.304,0.2 0.134,0.091 0.282,0.164 0.39,0.28 C 0.402,2.223 0.412,2.15 0.411,2.068 0.41,2.004 0.408,1.939 0.405,1.875 0.413,1.831 0.439,1.816 0.484,1.829 0.523,1.838 0.553,1.827 0.575,1.795 0.585,1.741 0.587,1.687 0.582,1.633 0.582,1.494 0.578,1.361 0.54,1.227 0.474,0.992 0.345,0.767 0.242,0.547 0.169,0.391 0.087,0.235 0.023,0.075 0.013,0.05 0.006,0.025 0,0"
             style="fill:#231f20;fill-opacity:1;fill-rule:nonzero;stroke:none"
             id="path21717" />
        </g>
        <g
           id="g21719"
           transform="translate(122.178,433.655)">
          <path
             d="M 0,0 C -0.125,0.013 -0.3,-0.289 -0.351,-0.368 -0.496,-0.595 -0.65,-0.82 -0.787,-1.052 -1.132,-1.637 -1.333,-2.305 -1.521,-2.958 -1.661,-3.443 -1.779,-3.919 -1.846,-4.42 -1.891,-4.754 -1.937,-5.086 -1.99,-5.417 c -0.042,-0.261 -0.039,-0.535 -0.056,-0.799 -0.005,-0.063 -0.007,-0.126 -0.013,-0.189 -0.006,-0.077 -0.039,-0.118 -0.056,-0.189 -0.075,-0.322 0.072,-0.642 0.061,-0.958 -0.007,-0.199 0.079,-0.384 0.085,-0.576 0.005,-0.152 -0.162,-0.175 -0.269,-0.109 -0.267,0.163 -0.435,0.552 -0.577,0.825 -0.064,0.125 -0.135,0.242 -0.144,0.385 -0.014,0.228 0.039,0.463 0.047,0.691 0.018,0.481 10e-4,0.961 0.047,1.441 0.03,0.323 0.189,0.555 0.347,0.823 0.166,0.282 0.285,0.56 0.339,0.888 0.031,0.188 0.032,0.336 -0.045,0.505 -0.102,0.223 -0.168,0.329 -0.105,0.583 0.056,0.223 0.117,0.447 0.261,0.628 0.169,0.21 0.4,0.369 0.606,0.535 0.205,0.164 0.419,0.348 0.58,0.561 0.085,0.112 0.152,0.252 0.228,0.373 0.06,0.094 0.102,0.192 0.15,0.29 0.06,0.122 0.078,0.126 0.187,0.159 0.032,0.009 0.091,0.047 0.12,0.034 C -0.176,0.475 -0.151,0.381 -0.14,0.353 -0.118,0.295 -0.088,0.233 -0.079,0.169 -0.054,0.005 -0.138,-0.074 0,0"
             style="fill:#231f20;fill-opacity:1;fill-rule:nonzero;stroke:none"
             id="path21721" />
        </g>
        <g
           id="g21723"
           transform="translate(119.39,433.412)">
          <path
             d="m 0,0 c -0.196,-0.49 -0.369,-1.001 -0.585,-1.483 -0.144,-0.324 -0.331,-0.626 -0.469,-0.953 -0.266,-0.626 -0.497,-1.286 -0.6,-1.96 -0.076,-0.496 -0.105,-0.984 -0.104,-1.485 0.001,-0.253 0.007,-0.507 0.002,-0.76 -0.004,-0.233 -0.047,-0.462 -0.049,-0.694 -0.002,-0.375 0.11,-0.65 0.271,-0.98 0.152,-0.313 0.261,-0.649 0.431,-0.953 0.074,-0.132 0.151,-0.244 0.207,-0.386 0.027,-0.07 0.051,-0.147 0.092,-0.21 0.031,-0.049 0.062,-0.085 0.087,-0.138 0.026,-0.055 0.025,-0.105 0.076,-0.145 -0.004,0.073 0.005,0.149 -0.006,0.221 -0.045,0.311 -0.185,0.607 -0.256,0.912 -0.097,0.419 -0.177,0.838 -0.264,1.259 -0.057,0.277 -0.136,0.563 -0.157,0.847 -0.013,0.188 -0.006,0.376 -0.006,0.564 0.002,0.371 -0.013,0.737 0.049,1.104 0.06,0.355 0.204,0.668 0.378,0.979 0.194,0.347 0.341,0.708 0.56,1.041 0.233,0.353 0.282,0.724 0.382,1.124 0.095,0.38 0.231,0.717 0.219,1.115 -0.005,0.164 -0.008,0.331 0.037,0.491 0.034,0.122 0.102,0.227 0.154,0.341 0.052,0.116 0.056,0.256 0.118,0.366 C 0.616,0.304 0.651,0.321 0.644,0.429 0.638,0.518 0.627,0.581 0.538,0.602 0.432,0.626 0.36,0.581 0.291,0.509 0.021,0.229 -0.001,-0.189 0,0"
             style="fill:#231f20;fill-opacity:1;fill-rule:nonzero;stroke:none"
             id="path21725" />
        </g>
      </g>
    </g>
  </g>
</svg>
