<?xml version="1.0" encoding="UTF-8" standalone="no"?>
<!-- Created with Inkscape (http://www.inkscape.org/) -->

<svg
   width="26.790415"
   height="24"
   viewBox="0 0 7.0882973 6.35"
   version="1.1"
   id="svg40022"
   inkscape:version="1.2.1 (9c6d41e4, 2022-07-14)"
   sodipodi:docname="curtain-call.svg"
   xmlns:inkscape="http://www.inkscape.org/namespaces/inkscape"
   xmlns:sodipodi="http://sodipodi.sourceforge.net/DTD/sodipodi-0.dtd"
   xmlns="http://www.w3.org/2000/svg"
   xmlns:svg="http://www.w3.org/2000/svg">
  <sodipodi:namedview
     id="namedview40024"
     pagecolor="#505050"
     bordercolor="#eeeeee"
     borderopacity="1"
     inkscape:showpageshadow="0"
     inkscape:pageopacity="0"
     inkscape:pagecheckerboard="0"
     inkscape:deskcolor="#505050"
     inkscape:document-units="mm"
     showgrid="false"
     inkscape:zoom="0.2102413"
     inkscape:cx="-7.134659"
     inkscape:cy="61.833711"
     inkscape:window-width="1309"
     inkscape:window-height="456"
     inkscape:window-x="0"
     inkscape:window-y="25"
     inkscape:window-maximized="0"
     inkscape:current-layer="layer1" />
  <defs
     id="defs40019">
    <clipPath
       clipPathUnits="userSpaceOnUse"
       id="clipPath1603">
      <path
         d="m 288.717,287.799 h 24.7 v 24.699 h -24.7 z"
         id="path1601" />
    </clipPath>
  </defs>
  <g
     inkscape:label="Layer 1"
     inkscape:groupmode="layer"
     id="layer1"
     transform="translate(-107.20246,-132.74101)">
    <g
       id="g1597"
       transform="matrix(0.35286228,0,0,-0.35286228,4.4581426,241.84911)"
       style="fill:#000000">
      <g
         id="g1599"
         clip-path="url(#clipPath1603)"
         style="fill:#000000">
        <g
           id="g1605"
           transform="translate(300.252,305.294)"
           style="fill:#000000">
          <path
             d="m 0,0 c -0.026,-0.084 -0.107,-0.181 -0.152,-0.258 -0.057,-0.098 -0.134,-0.188 -0.186,-0.289 -0.054,-0.104 -0.065,-0.232 -0.082,-0.347 -0.022,-0.155 0.009,-0.26 0.053,-0.407 0.063,-0.206 0.116,-0.447 0.264,-0.614 C 0.07,-2.111 0.421,-1.984 0.647,-2.017 0.734,-2.03 0.806,-2.074 0.89,-2.094 0.984,-2.116 1.097,-2.101 1.192,-2.101 1.44,-2.1 1.73,-2.145 1.975,-2.1 c 0.273,0.051 0.385,0.386 0.45,0.62 0.083,0.295 0.107,0.585 -0.041,0.862 -0.057,0.107 -0.134,0.2 -0.196,0.304 C 2.11,-0.184 2.062,-0.025 1.939,0.073 1.686,0.275 1.398,0.386 1.118,0.538 0.987,0.609 0.762,0.635 0.612,0.591 0.489,0.556 0.401,0.446 0.315,0.358 0.224,0.267 0.133,0.14 0.036,0.056 0.006,0.031 -0.001,0.009 0,0"
             style="fill:#000000;fill-opacity:1;fill-rule:nonzero;stroke:none"
             id="path1607" />
        </g>
        <g
           id="g1609"
           transform="translate(300.467,302.121)"
           style="fill:#000000">
          <path
             d="m 0,0 v -2.088 -1.206 c 0,-0.12 -0.001,-0.24 0.001,-0.36 0.003,-0.21 -0.049,-0.392 -0.079,-0.598 -0.025,-0.16 -0.068,-0.526 0.076,-0.64 0.077,-0.061 0.173,-0.067 0.25,-0.133 0.071,-0.06 0.132,-0.136 0.191,-0.207 0.126,-0.152 0.27,-0.223 0.451,-0.288 0.151,-0.054 0.22,-0.156 0.387,-0.14 0.202,0.487 0.283,1.056 0.377,1.572 0.06,0.331 0.019,0.663 -0.042,0.986 -0.056,0.293 -0.032,0.613 -0.027,0.911 0.004,0.303 0.109,0.578 0.129,0.877 0.011,0.175 -0.009,0.333 -0.041,0.505 C 1.614,-0.497 1.513,-0.182 1.362,0.099 1.32,0.177 1.266,0.242 1.212,0.311 1.151,0.388 1.128,0.386 1.03,0.386 0.914,0.385 0.817,0.364 0.704,0.331 0.644,0.314 0.556,0.277 0.505,0.267 0.466,0.259 0.421,0.268 0.384,0.26 0.361,0.255 0.349,0.227 0.334,0.224 0.231,0.199 0.226,0.212 0.171,0.111 0.098,-0.023 0.046,-0.094 0,0"
             style="fill:#000000;fill-opacity:1;fill-rule:nonzero;stroke:none"
             id="path1611" />
        </g>
        <g
           id="g1613"
           transform="translate(296.812,307.93)"
           style="fill:#000000">
          <path
             d="M 0,0 C 0.078,-0.006 0.168,-0.059 0.244,-0.082 0.348,-0.114 0.45,-0.163 0.558,-0.178 0.712,-0.199 0.943,-0.052 0.91,-0.3 0.873,-0.576 0.933,-0.814 0.83,-1.069 0.759,-1.245 0.727,-1.435 0.65,-1.609 0.556,-1.819 0.424,-2.007 0.351,-2.227 0.287,-2.416 0.263,-2.612 0.224,-2.808 0.186,-2.995 0.207,-3.182 0.175,-3.367 0.149,-3.517 0.068,-3.668 0.01,-3.808 -0.096,-4.062 -0.296,-4.219 -0.453,-4.435 -0.543,-4.56 -0.608,-4.673 -0.722,-4.783 -0.828,-4.885 -0.908,-5.004 -0.996,-5.121 -1.101,-5.261 -1.206,-5.4 -1.331,-5.521 -1.421,-5.608 -1.484,-5.74 -1.579,-5.816 -1.658,-5.879 -1.712,-5.89 -1.768,-5.982 -1.869,-6.148 -1.982,-6.244 -2.13,-6.371 -2.293,-6.511 -2.414,-6.692 -2.575,-6.833 -2.724,-6.963 -2.884,-7.069 -3.02,-7.214 -3.141,-7.342 -3.262,-7.461 -3.405,-7.566 -3.607,-7.713 -3.844,-7.791 -4.05,-7.93 -4.126,-7.982 -4.177,-8.016 -4.263,-8.05 -4.364,-8.089 -4.483,-8.118 -4.576,-8.175 -4.663,-8.228 -4.727,-8.264 -4.818,-8.3 c -0.048,-0.02 -0.066,-0.033 -0.11,-0.06 -0.124,-0.076 -0.206,-0.104 -0.306,0.01 -0.116,0.132 -0.166,0.311 -0.284,0.44 -0.038,0.042 -0.096,0.062 -0.12,0.115 0.124,0.075 0.274,0.021 0.352,0.183 0.057,0.117 0.062,0.215 0.158,0.315 0.23,0.243 0.539,0.405 0.839,0.546 0.121,0.058 0.257,0.074 0.381,0.13 0.131,0.058 0.227,0.151 0.342,0.233 0.073,0.052 0.161,0.089 0.223,0.156 0.051,0.056 0.083,0.132 0.129,0.191 0.178,0.231 0.398,0.42 0.567,0.662 0.154,0.219 0.331,0.421 0.485,0.64 0.078,0.111 0.139,0.239 0.224,0.344 0.081,0.1 0.191,0.175 0.269,0.276 0.164,0.21 0.324,0.431 0.439,0.672 0.055,0.115 0.069,0.24 0.106,0.36 0.039,0.125 0.12,0.231 0.144,0.359 0.07,0.373 0.268,0.72 0.302,1.103 0.015,0.17 -0.017,0.346 -0.017,0.517 0,0.092 -0.002,0.193 0.023,0.283 0.009,0.033 0.017,0.063 0.038,0.091 0.069,0.095 0.151,0.188 0.214,0.3 0.052,0.092 0.133,0.187 0.17,0.287 -0.005,-0.014 0.038,0.113 0.026,0.101 C -0.19,-0.013 -0.044,0.003 0,0"
             style="fill:#000000;fill-opacity:1;fill-rule:nonzero;stroke:none"
             id="path1615" />
        </g>
        <g
           id="g1617"
           transform="translate(305.651,307.963)"
           style="fill:#000000">
          <path
             d="m 0,0 c -0.102,-0.019 -0.177,-0.107 -0.28,-0.126 -0.035,-0.007 -0.085,0.007 -0.118,-0.003 -0.046,-0.013 -0.053,-0.008 -0.08,-0.051 -0.049,-0.077 -0.073,-0.246 -0.079,-0.336 -0.007,-0.113 0.012,-0.228 0,-0.342 -0.014,-0.133 -0.042,-0.254 -0.04,-0.389 0.001,-0.192 0.003,-0.385 0,-0.578 -0.004,-0.255 0.075,-0.504 0.224,-0.714 0.07,-0.099 0.143,-0.19 0.197,-0.3 0.067,-0.137 0.108,-0.284 0.18,-0.419 C 0.143,-3.519 0.24,-3.8 0.383,-4.059 0.505,-4.28 0.656,-4.514 0.838,-4.693 0.884,-4.738 0.935,-4.777 0.977,-4.828 1.118,-5 1.208,-5.217 1.344,-5.397 c 0.078,-0.03 0.156,-0.06 0.235,-0.088 0.185,-0.079 0.297,-0.201 0.44,-0.336 0.138,-0.13 0.288,-0.23 0.379,-0.403 0.04,-0.097 0.082,-0.193 0.125,-0.289 0.036,-0.061 0.079,-0.115 0.13,-0.164 0.035,-0.066 0.068,-0.132 0.101,-0.198 0.053,-0.058 0.116,-0.1 0.19,-0.127 0.068,-0.036 0.133,-0.074 0.191,-0.125 0.147,-0.129 0.267,-0.258 0.396,-0.399 0.052,-0.057 0.107,-0.115 0.158,-0.168 0.06,-0.063 0.112,-0.139 0.176,-0.2 0.072,-0.066 0.17,-0.082 0.225,-0.167 0.067,-0.101 0.099,-0.185 0.2,-0.265 0.092,-0.073 0.127,-0.128 0.256,-0.134 0.127,-0.006 0.323,-0.034 0.442,0.009 0.14,0.051 0.284,0.18 0.414,0.255 0.062,0.035 0.05,0.01 0.072,0.086 0.025,0.085 0.032,0.187 0.047,0.274 0.017,0.108 0.077,0.204 0.09,0.308 C 5.546,-7.534 5.517,-7.6 5.446,-7.602 5.354,-7.605 5.265,-7.526 5.195,-7.476 4.881,-7.255 4.522,-7.059 4.34,-6.71 4.261,-6.559 4.179,-6.427 4.064,-6.299 3.876,-6.089 3.678,-5.86 3.458,-5.683 3.132,-5.421 2.764,-5.287 2.546,-4.903 2.462,-4.754 2.401,-4.594 2.319,-4.443 2.217,-4.253 2.085,-4.116 1.934,-3.965 1.759,-3.791 1.607,-3.591 1.444,-3.407 1.313,-3.262 1.179,-3.114 1.07,-2.952 0.947,-2.771 0.861,-2.575 0.845,-2.356 0.831,-2.166 0.81,-2.001 0.757,-1.815 0.697,-1.602 0.618,-1.4 0.574,-1.183 0.532,-0.978 0.487,-0.775 0.414,-0.579 0.344,-0.389 0.32,-0.01 0.061,0.004 0.039,0.005 0.019,0.003 0,0"
             style="fill:#000000;fill-opacity:1;fill-rule:nonzero;stroke:none"
             id="path1619" />
        </g>
        <g
           id="g1621"
           transform="translate(293.33,307.803)"
           style="fill:#000000">
          <path
             d="M 0,0 C 0.79,-0.004 1.58,0.04 2.37,0.045 2.557,0.056 2.742,0.05 2.927,0.027 3.078,-0.01 3.229,-0.049 3.379,-0.09 c 0.317,-0.063 0.649,-0.034 0.969,-0.036 0.424,-0.003 0.838,-0.095 1.263,-0.095 0.317,0 0.628,0.078 0.944,0.078 0.161,-0.009 0.321,-0.03 0.479,-0.063 0.116,-0.012 0.232,-0.014 0.348,-0.007 0.064,-0.003 0.122,-0.043 0.178,-0.048 0.071,-0.006 0.137,0.038 0.204,0.058 0.129,0.04 0.259,0.033 0.391,0.032 0.435,-10e-4 0.862,-0.01 1.286,-0.131 0.234,-0.067 0.48,-0.041 0.721,-0.041 0.349,0 0.707,-0.03 1.054,0.006 0.23,0.024 0.457,0.09 0.686,0.126 0.279,0.043 0.565,0.052 0.846,0.043 0.146,-0.004 0.274,-0.058 0.408,-0.12 0.082,-0.043 0.164,-0.085 0.246,-0.126 0.084,-0.021 0.169,-0.026 0.254,-0.015 0.324,-0.003 0.628,-0.134 0.949,-0.129 0.11,0.001 0.244,0.019 0.355,-0.007 0.12,-0.028 0.233,-0.088 0.355,-0.112 0.021,-0.005 0.125,-0.027 0.152,-0.012 0.057,0.031 0.036,0.087 0.035,0.157 -0.002,0.238 0,0.477 0,0.716 0,0.123 -0.006,0.238 0.019,0.356 0.02,0.094 0.029,0.287 -0.051,0.359 C 15.422,0.894 15.381,0.871 15.348,0.828 15.273,0.778 15.193,0.743 15.107,0.725 14.916,0.674 14.724,0.685 14.53,0.684 13.998,0.681 13.475,0.869 12.963,1.012 12.708,1.083 12.466,1.19 12.207,1.247 11.933,1.306 11.659,1.359 11.381,1.385 10.813,1.438 10.261,1.373 9.695,1.37 9.022,1.366 8.357,1.299 7.685,1.288 7.235,1.28 6.792,1.184 6.34,1.198 6.162,1.203 5.991,1.256 5.815,1.279 5.565,1.312 5.296,1.294 5.044,1.29 4.821,1.286 4.601,1.246 4.381,1.213 4.114,1.174 3.85,1.068 3.58,1.068 3.255,1.067 2.941,0.996 2.617,0.984 2.279,0.972 1.937,0.986 1.598,0.986 1.417,0.986 1.23,1.005 1.051,0.977 0.98,0.965 0.91,0.936 0.838,0.941 0.728,0.95 0.65,1.045 0.542,1.064 0.41,1.089 0.31,0.924 0.238,0.815 0.182,0.73 0.134,0.639 0.077,0.557 0.043,0.509 0.009,0.491 -0.003,0.43 -0.028,0.293 0.013,0.198 -0.066,0.075 -0.093,0.032 -0.274,-0.198 0,0"
             style="fill:#000000;fill-opacity:1;fill-rule:nonzero;stroke:none"
             id="path1623" />
        </g>
        <g
           id="g1625"
           transform="translate(297.246,296.024)"
           style="fill:#000000">
          <path
             d="m 0,0 c 0.23,-0.011 0.463,-0.02 0.692,-0.054 0.217,-0.032 0.412,-0.101 0.632,-0.11 0.573,-0.021 1.124,0.049 1.694,0.082 0.53,0.031 1.034,0.224 1.563,0.262 C 4.936,0.206 5.273,0.069 5.623,0.053 5.867,0.042 6.109,0.066 6.351,0.084 6.785,0.116 7.19,0.002 7.619,0.002 c 0.177,0 0.35,0.035 0.526,0.045 0.111,0.006 0.224,-0.006 0.335,0.011 0.27,0.041 0.502,0.095 0.778,0.057 0.291,-0.039 0.521,0.022 0.799,0.058 0.174,0.022 0.348,0.046 0.516,0.094 0.117,0.033 0.262,0.082 0.38,0.025 0.041,-0.038 0.082,-0.077 0.121,-0.117 0.056,-0.035 0.118,-0.049 0.185,-0.042 0.164,-0.004 0.26,0.025 0.403,-0.072 0.078,-0.053 0.133,-0.088 0.232,-0.098 0.046,-0.005 0.126,0.023 0.164,0.005 0.103,-0.05 0.019,-0.301 0.006,-0.39 -0.01,-0.068 0.016,-0.147 -0.049,-0.174 -0.032,0.003 -0.064,0.006 -0.096,0.01 -0.066,-0.007 -0.121,-0.037 -0.165,-0.089 -0.069,-0.058 -0.135,-0.139 -0.224,-0.169 -0.096,-0.033 -0.233,-0.006 -0.333,-0.006 -0.164,0 -0.327,-0.015 -0.491,-0.013 -0.083,0.001 -0.179,-0.004 -0.259,0.02 -0.051,0.015 -0.079,0.039 -0.132,0.041 C 10.247,-0.8 10.159,-0.84 10.092,-0.853 9.712,-0.929 9.316,-0.891 8.931,-0.893 8.449,-0.895 7.981,-0.853 7.501,-0.814 7.018,-0.776 6.531,-0.829 6.047,-0.797 5.68,-0.774 5.316,-0.75 4.948,-0.768 4.559,-0.787 4.17,-0.791 3.782,-0.809 3.529,-0.821 3.287,-0.889 3.033,-0.892 2.671,-0.896 2.316,-0.99 1.959,-1.035 1.668,-1.072 1.378,-1.064 1.086,-1.066 0.888,-1.067 0.7,-1.012 0.503,-1.017 0.286,-1.023 0.091,-1.112 -0.124,-1.108 c -0.257,0.005 -0.517,-0.014 -0.775,0.002 -0.273,0.018 -0.562,0.098 -0.833,0.149 -0.165,0.031 -0.334,0.056 -0.497,0.095 -0.167,0.04 -0.399,0.19 -0.565,0.111 -0.071,-0.034 -0.081,-0.067 -0.169,-0.049 -0.115,0.024 -0.205,0.037 -0.324,0.036 -0.076,-0.001 -0.11,0.014 -0.178,0.033 -0.09,0.025 -0.203,0.016 -0.296,0.011 -0.108,-0.006 -0.206,-0.042 -0.315,-0.046 -0.132,-0.005 -0.237,0.019 -0.36,0.041 -0.072,0.012 -0.11,-0.007 -0.145,0.067 -0.014,0.028 -0.034,0.125 -0.038,0.156 -0.012,0.092 0.048,0.33 0.088,0.419 0.023,0.051 0.068,0.116 0.117,0.136 0.021,0.008 0.06,-0.003 0.086,0.005 0.042,0.012 0.076,0.057 0.119,0.071 0.083,0.027 0.221,0.018 0.307,0.004 0.091,-0.014 0.171,-0.065 0.262,-0.079 0.131,-0.021 0.263,-0.003 0.395,-0.002 0.119,0.001 0.22,-0.041 0.335,-0.054 0.083,-0.01 0.142,0.015 0.218,0.044 0.214,0.082 0.392,0.006 0.617,0.008 0.1,10e-4 0.2,10e-4 0.301,10e-4 0.147,0 0.294,0.002 0.44,0 0.204,-0.003 0.41,0.066 0.611,0.009 C -0.49,-0.006 -0.245,0.011 0,0"
             style="fill:#000000;fill-opacity:1;fill-rule:nonzero;stroke:none"
             id="path1627" />
        </g>
        <g
           id="g1629"
           transform="translate(294.062,293.404)"
           style="fill:#000000">
          <path
             d="m 0,0 c -0.036,0 -0.073,-0.004 -0.109,-0.002 -0.063,0.005 -0.126,0.045 -0.188,0.039 -0.119,-0.011 -0.146,-0.122 -0.184,-0.224 -0.048,-0.129 -0.089,-0.264 -0.101,-0.4 -0.013,-0.14 -0.072,-0.266 -0.07,-0.406 0.001,-0.147 -0.013,-0.25 0.099,-0.352 0.133,-0.12 0.271,-0.25 0.422,-0.346 0.194,-0.123 0.381,-0.093 0.604,-0.093 0.153,0 0.287,0 0.434,0.036 0.227,0.055 0.342,0.324 0.446,0.504 0.1,0.174 0.032,0.3 -0.008,0.484 C 1.308,-0.591 1.342,-0.213 1.133,-0.139 0.986,-0.087 0.848,-0.084 0.711,0.001 0.604,0.067 0.48,0.072 0.375,0.137 0.323,0.17 0.287,0.244 0.232,0.267 0.172,0.293 0.058,0.282 -0.006,0.277 -0.112,0.269 -0.392,0.138 0,0"
             style="fill:#000000;fill-opacity:1;fill-rule:nonzero;stroke:none"
             id="path1631" />
        </g>
        <g
           id="g1633"
           transform="translate(298.108,294.145)"
           style="fill:#000000">
          <path
             d="m 0,0 c -0.194,0 -0.372,0.003 -0.561,-0.043 -0.188,-0.045 -0.284,-0.057 -0.419,-0.21 -0.135,-0.151 -0.26,-0.315 -0.363,-0.489 -0.1,-0.169 -0.2,-0.34 -0.237,-0.537 -0.044,-0.237 0.009,-0.316 0.237,-0.393 0.202,-0.068 0.302,-0.171 0.443,-0.324 0.084,-0.091 0.193,-0.206 0.32,-0.232 0.199,-0.041 0.498,-0.019 0.668,0.093 0.332,0.219 0.445,0.515 0.491,0.893 0.04,0.327 0.01,0.675 -0.192,0.939 C 0.316,-0.21 0.285,-0.081 0.175,-0.041 0.107,-0.016 -0.054,0.044 0,0"
             style="fill:#000000;fill-opacity:1;fill-rule:nonzero;stroke:none"
             id="path1635" />
        </g>
        <g
           id="g1637"
           transform="translate(304.154,293.459)"
           style="fill:#000000">
          <path
             d="m 0,0 c -0.29,-0.067 -0.649,-0.101 -0.86,-0.337 -0.126,-0.142 -0.202,-0.369 -0.273,-0.546 -0.059,-0.152 -0.142,-0.355 -0.156,-0.522 -0.009,-0.095 -0.026,-0.269 0.008,-0.357 0.04,-0.106 0.192,-0.166 0.294,-0.199 0.091,-0.029 0.152,-0.047 0.215,-0.117 0.033,-0.037 0.054,-0.121 0.093,-0.147 0.061,-0.04 0.288,-0.011 0.35,-0.008 0.179,0.008 0.349,0.107 0.513,0.174 0.178,0.072 0.301,0.173 0.431,0.313 0.208,0.225 0.254,0.55 0.244,0.845 C 0.852,-0.653 0.713,-0.371 0.54,-0.195 0.444,-0.098 0.234,0.208 0,0"
             style="fill:#000000;fill-opacity:1;fill-rule:nonzero;stroke:none"
             id="path1639" />
        </g>
        <g
           id="g1641"
           transform="translate(307.327,293.888)"
           style="fill:#000000">
          <path
             d="m 0,0 c -0.004,-0.078 -0.159,-0.044 -0.213,-0.043 -0.124,10e-4 -0.276,0.011 -0.391,-0.051 -0.126,-0.068 -0.199,-0.232 -0.255,-0.356 -0.089,-0.194 -0.183,-0.47 -0.212,-0.685 -0.051,-0.382 0.33,-0.603 0.619,-0.763 0.165,-0.091 0.35,-0.21 0.544,-0.147 0.183,0.059 0.324,0.175 0.514,0.211 0.41,0.075 0.808,0.21 0.919,0.658 C 1.587,-0.924 1.483,-0.812 1.29,-0.65 1.183,-0.56 1.08,-0.457 0.968,-0.373 0.79,-0.238 0.517,-0.257 0.355,-0.119 0.289,-0.063 0.258,-0.032 0.168,-0.002 0.066,0.033 -0.067,0.167 0,0"
             style="fill:#000000;fill-opacity:1;fill-rule:nonzero;stroke:none"
             id="path1643" />
        </g>
        <g
           id="g1645"
           transform="translate(300.895,293.888)"
           style="fill:#000000">
          <path
             d="m 0,0 c -0.047,-0.066 -0.186,-0.057 -0.256,-0.073 -0.092,-0.022 -0.174,-0.041 -0.249,-0.104 -0.167,-0.141 -0.323,-0.406 -0.304,-0.63 0.246,-0.052 -0.059,-0.567 -0.008,-0.712 0.036,-0.104 0.163,-0.114 0.258,-0.15 0.177,-0.068 0.276,-0.202 0.431,-0.299 0.569,-0.355 1.048,0.295 1.201,0.777 0.07,0.221 0.131,0.411 0.043,0.635 -0.032,0.081 -0.044,0.189 -0.102,0.257 -0.051,0.06 -0.174,0.1 -0.243,0.13 C 0.653,-0.118 0.526,-0.113 0.414,-0.043 0.361,-0.01 0.308,0.023 0.255,0.055 0.21,0.082 0.172,0.114 0.125,0.131 0.047,0.157 -0.087,0.129 0,0"
             style="fill:#000000;fill-opacity:1;fill-rule:nonzero;stroke:none"
             id="path1647" />
        </g>
      </g>
    </g>
  </g>
</svg>
