<?xml version="1.0" encoding="UTF-8" standalone="no"?>
<!-- Created with Inkscape (http://www.inkscape.org/) -->

<svg
   width="22.051346"
   height="24"
   viewBox="0 0 5.8344184 6.35"
   version="1.1"
   id="svg40392"
   inkscape:version="1.2.1 (9c6d41e4, 2022-07-14)"
   sodipodi:docname="delusions.svg"
   xmlns:inkscape="http://www.inkscape.org/namespaces/inkscape"
   xmlns:sodipodi="http://sodipodi.sourceforge.net/DTD/sodipodi-0.dtd"
   xmlns="http://www.w3.org/2000/svg"
   xmlns:svg="http://www.w3.org/2000/svg">
  <sodipodi:namedview
     id="namedview40394"
     pagecolor="#505050"
     bordercolor="#eeeeee"
     borderopacity="1"
     inkscape:showpageshadow="0"
     inkscape:pageopacity="0"
     inkscape:pagecheckerboard="0"
     inkscape:deskcolor="#505050"
     inkscape:document-units="mm"
     showgrid="false"
     inkscape:zoom="0.2102413"
     inkscape:cx="73.72481"
     inkscape:cy="133.1803"
     inkscape:window-width="1309"
     inkscape:window-height="456"
     inkscape:window-x="0"
     inkscape:window-y="25"
     inkscape:window-maximized="0"
     inkscape:current-layer="layer1" />
  <defs
     id="defs40389">
    <clipPath
       clipPathUnits="userSpaceOnUse"
       id="clipPath1655">
      <path
         d="m 349.007,287.799 h 24.699 v 24.699 h -24.699 z"
         id="path1653" />
    </clipPath>
  </defs>
  <g
     inkscape:label="Layer 1"
     inkscape:groupmode="layer"
     id="layer1"
     transform="translate(-85.913162,-113.29574)">
    <g
       id="g1649"
       transform="matrix(0.29929217,0,0,-0.29929217,-19.30299,206.26667)"
       style="fill:#000000">
      <g
         id="g1651"
         clip-path="url(#clipPath1655)"
         style="fill:#000000">
        <g
           id="g1657"
           transform="translate(360.973,298.969)"
           style="fill:#000000">
          <path
             d="m 0,0 c -0.325,0.048 -0.71,0.071 -0.957,0.303 -0.146,0.136 -0.311,0.25 -0.455,0.388 -0.152,0.146 -0.166,0.29 -0.132,0.492 0.06,0.361 0.327,0.587 0.455,0.913 0.06,0.152 0.054,0.271 0.149,0.412 0.095,0.143 0.173,0.255 0.2,0.425 0.031,0.193 0.039,0.37 0.187,0.516 0.133,0.131 0.264,0.23 0.38,0.382 0.076,0.101 0.134,0.257 0.265,0.295 0.188,0.054 0.458,0 0.653,10e-4 C 1.087,4.129 1.377,4.059 1.684,3.891 1.838,3.807 1.949,3.671 2.089,3.568 2.167,3.51 2.256,3.461 2.327,3.394 2.47,3.258 2.549,3.08 2.623,2.902 2.681,2.761 2.766,2.609 2.776,2.454 2.786,2.284 2.779,2.128 2.806,1.958 2.816,1.89 2.815,1.83 2.816,1.762 3.038,2.027 2.997,1.826 2.998,1.717 2.998,1.687 3.011,1.604 3.002,1.578 2.975,1.496 2.879,1.522 2.813,1.481 2.713,1.418 2.581,1.22 2.542,1.114 2.496,0.989 2.475,0.873 2.41,0.754 2.329,0.608 2.274,0.555 2.123,0.481 1.898,0.371 1.677,0.269 1.437,0.196 1.214,0.129 0.996,0.037 0.769,-0.018 0.508,-0.081 0.261,-0.039 0,0 m 0.601,-1.515 c 0.35,0.025 0.651,0.175 0.98,0.273 0.23,0.068 0.468,0.074 0.696,0.144 0.287,0.089 0.846,0.371 1.043,0.628 0.074,0.096 0.063,0.19 0.089,0.298 C 3.448,-0.011 3.53,0.072 3.58,0.22 3.661,0.462 3.538,0.578 3.777,0.75 3.955,0.879 3.992,0.915 4.077,1.118 4.134,1.256 4.274,1.426 3.687,1.413 3.863,1.676 3.885,2.177 3.928,2.463 3.974,2.767 3.97,2.989 3.794,3.257 3.656,3.468 3.472,3.654 3.321,3.856 2.976,4.315 2.63,4.791 2.111,5.071 1.657,5.316 1.102,5.382 0.594,5.369 0.022,5.354 -0.266,5.097 -0.728,4.828 -1.214,4.545 -1.946,4.551 -2.362,4.17 -2.744,3.82 -2.731,3.028 -2.74,2.556 -2.754,1.833 -2.601,1.183 -2.482,0.475 c 0.216,-1.286 1.883,-2.076 3.083,-1.99"
             style="fill:#000000;fill-opacity:1;fill-rule:nonzero;stroke:none"
             id="path1659" />
        </g>
        <g
           id="g1661"
           transform="translate(364.088,294.055)"
           style="fill:#000000">
          <path
             d="m 0,0 c 0.084,-0.011 0.167,-0.009 0.253,-0.009 0.058,0 0.117,-0.002 0.175,-0.014 0.251,-0.052 0.507,-0.069 0.765,-0.069 0.116,0 0.241,-0.015 0.356,0.004 0.131,0.022 0.249,0.08 0.383,0.097 0.244,0.031 0.474,0.024 0.711,0.1 0.115,0.036 0.236,0.028 0.352,0.067 0.057,0.019 0.106,0.049 0.16,0.072 C 3.219,0.275 3.264,0.272 3.329,0.275 3.454,0.28 3.544,0.363 3.655,0.404 3.746,0.438 3.854,0.454 3.948,0.478 4.03,0.499 4.112,0.477 4.194,0.472 4.32,0.464 4.428,0.484 4.527,0.565 c 0.136,0.112 0.252,0.259 0.37,0.39 0.14,0.156 0.273,0.317 0.392,0.49 0.146,0.211 0.228,0.447 0.365,0.66 0.118,0.184 0.272,0.331 0.407,0.501 0.07,0.089 0.111,0.183 0.218,0.226 0.108,0.044 0.154,0.122 0.201,0.226 0.071,0.161 0.096,0.365 0.15,0.533 0.094,0.287 0.197,0.56 0.259,0.856 0.043,0.2 0.081,0.429 0.062,0.634 C 6.948,5.109 6.945,5.134 6.933,5.16 6.9,5.224 6.834,5.265 6.831,5.344 6.826,5.482 6.836,5.621 6.773,5.75 6.685,5.931 6.535,6.086 6.411,6.242 6.315,6.364 6.243,6.483 6.109,6.566 6.046,6.605 6.006,6.645 5.951,6.696 5.886,6.758 5.817,6.801 5.752,6.866 5.702,6.917 5.646,6.966 5.588,7.006 5.507,7.061 5.408,7.067 5.323,7.111 5.267,7.139 5.234,7.186 5.188,7.225 5.058,7.332 4.832,7.314 4.675,7.367 4.589,7.396 4.503,7.43 4.411,7.436 4.319,7.442 4.224,7.433 4.132,7.433 4.032,7.434 3.937,7.442 3.84,7.416 3.74,7.388 3.648,7.33 3.551,7.292 3.474,7.26 3.402,7.238 3.339,7.182 3.248,7.102 3.168,7.006 3.081,6.92 2.984,6.824 2.924,6.715 2.847,6.601 2.761,6.474 2.693,6.338 2.597,6.216 2.536,6.139 2.5,6.047 2.46,5.957 2.418,5.864 2.364,5.786 2.312,5.7 2.209,5.533 2.22,5.343 2.17,5.16 2.052,4.736 1.924,4.317 2.07,3.883 2.133,3.697 2.228,3.522 2.313,3.344 2.382,3.201 2.451,3.055 2.536,2.92 2.674,2.702 2.866,2.534 3.139,2.586 3.492,2.654 3.781,2.925 4.103,3.064 4.198,3.104 4.345,3.178 4.411,3.263 4.44,3.301 4.444,3.361 4.453,3.407 4.473,3.504 4.491,3.601 4.509,3.698 4.527,3.802 4.587,3.894 4.59,3.999 4.592,4.05 4.588,4.102 4.588,4.153 4.588,4.245 4.614,4.383 4.575,4.467 4.543,4.535 4.461,4.583 4.389,4.595 4.374,4.598 4.318,4.603 4.302,4.596 4.261,4.577 4.275,4.546 4.276,4.502 4.277,4.462 4.285,4.406 4.276,4.366 4.273,4.348 4.256,4.318 4.254,4.307 4.224,4.164 4.278,4.023 4.215,3.884 4.18,3.807 4.131,3.733 4.076,3.669 4.014,3.596 3.96,3.486 3.881,3.431 3.766,3.351 3.503,3.293 3.387,3.378 3.321,3.426 3.247,3.463 3.205,3.536 3.13,3.663 3.089,3.805 3.024,3.936 2.968,4.047 2.892,4.162 2.89,4.291 2.888,4.384 2.935,4.463 2.981,4.542 c 0.03,0.051 0.06,0.102 0.087,0.155 0.021,0.043 0.04,0.088 0.059,0.133 0.027,0.064 0.06,0.128 0.079,0.195 0.02,0.069 0.016,0.14 0.033,0.209 0.008,0.034 0.027,0.07 0.036,0.105 0.05,0.201 0.129,0.387 0.23,0.567 0.06,0.107 0.186,0.2 0.276,0.28 C 3.883,6.279 3.986,6.381 4.112,6.441 4.232,6.5 4.422,6.475 4.552,6.47 4.724,6.464 4.889,6.363 5.045,6.298 5.221,6.224 5.343,6.068 5.475,5.935 5.589,5.821 5.721,5.727 5.805,5.583 5.908,5.405 5.9,5.186 5.897,4.988 5.893,4.754 5.796,4.553 5.693,4.349 5.575,4.113 5.515,3.872 5.434,3.624 5.391,3.493 5.361,3.365 5.331,3.231 5.322,3.187 5.305,3.156 5.285,3.117 5.199,2.952 5.12,2.784 5.035,2.618 4.948,2.449 4.843,2.282 4.728,2.13 4.598,1.956 4.355,1.834 4.173,1.724 4.014,1.628 3.854,1.556 3.679,1.495 3.471,1.422 3.265,1.347 3.053,1.288 2.799,1.217 2.533,1.184 2.273,1.137 2.097,1.105 1.929,1.079 1.748,1.081 1.547,1.083 1.327,1.059 1.126,1.085 0.974,1.105 0.838,1.188 0.694,1.235 0.548,1.283 0.398,1.276 0.247,1.294 -0.063,1.331 -0.385,1.366 -0.698,1.336 -0.867,1.319 -1.02,1.245 -1.182,1.201 -1.264,1.179 -1.36,1.2 -1.444,1.197 -1.544,1.193 -1.637,1.166 -1.733,1.139 -1.84,1.109 -1.958,1.091 -2.069,1.083 -2.185,1.076 -2.24,1.039 -2.335,0.97 -2.562,0.805 -2.802,0.665 -3.041,0.518 -3.147,0.452 -3.222,0.375 -3.311,0.287 -3.401,0.197 -3.499,0.126 -3.604,0.054 c -0.124,-0.087 -0.218,-0.201 -0.332,-0.299 -0.11,-0.096 -0.221,-0.187 -0.315,-0.299 -0.173,-0.209 -0.374,-0.381 -0.452,-0.648 -0.04,-0.136 -0.083,-0.274 -0.102,-0.415 -0.021,-0.151 -0.012,-0.304 -0.012,-0.456 0,-0.28 -0.032,-0.595 0.113,-0.845 0.052,-0.091 0.097,-0.183 0.147,-0.276 0.08,-0.149 0.208,-0.255 0.321,-0.378 0.049,-0.053 0.111,-0.181 0.183,-0.211 0.089,-0.038 0.243,0.061 0.321,0.088 0.085,0.029 0.229,0.026 0.252,0.138 0.023,0.112 0.016,0.318 -0.06,0.398 -0.042,0.044 -0.098,0.071 -0.142,0.114 -0.043,0.041 -0.082,0.089 -0.127,0.129 -0.042,0.037 -0.092,0.055 -0.128,0.1 -0.081,0.101 -0.084,0.259 -0.087,0.381 -0.007,0.339 0.125,0.615 0.291,0.902 0.106,0.184 0.267,0.312 0.403,0.472 0.128,0.151 0.242,0.253 0.409,0.351 0.137,0.08 0.245,0.203 0.381,0.286 0.208,0.128 0.434,0.217 0.643,0.339 0.122,0.071 0.247,0.049 0.382,0.05 0.091,0 0.181,0.003 0.272,0.009 0.127,0.008 0.252,0.024 0.378,0.039 0.153,0.017 0.305,0.026 0.458,0.028 0.114,0 0.214,-0.008 0.325,-0.036 C -0.055,0.008 -0.027,0.004 0,0"
             style="fill:#000000;fill-opacity:1;fill-rule:nonzero;stroke:none"
             id="path1663" />
        </g>
        <g
           id="g1665"
           transform="translate(359.993,294.842)"
           style="fill:#000000">
          <path
             d="M 0,0 C -0.276,0.14 -0.577,0.216 -0.86,0.338 -1.121,0.451 -1.401,0.516 -1.68,0.569 -1.773,0.587 -1.864,0.619 -1.957,0.633 -2.027,0.645 -2.098,0.629 -2.168,0.643 -2.35,0.679 -2.527,0.742 -2.71,0.777 -2.914,0.816 -3.109,0.861 -3.307,0.926 -3.576,1.015 -3.827,1.141 -4.091,1.241 -4.207,1.286 -4.323,1.337 -4.43,1.4 -4.59,1.495 -4.763,1.583 -4.916,1.689 -5.067,1.793 -5.221,1.908 -5.367,2.02 -5.517,2.136 -5.646,2.282 -5.802,2.391 -5.925,2.476 -6.047,2.554 -6.153,2.661 -6.26,2.77 -6.348,2.895 -6.448,3.01 c -0.175,0.202 -0.315,0.419 -0.463,0.641 -0.136,0.203 -0.243,0.41 -0.316,0.645 -0.096,0.311 -0.099,0.611 -0.099,0.934 0,0.185 -0.006,0.37 0.004,0.555 0.013,0.239 0.07,0.469 0.091,0.706 0.036,0.42 0.115,0.873 0.4,1.204 0.151,0.175 0.397,0.346 0.615,0.421 0.051,0.018 0.104,0.03 0.158,0.032 0.073,0.002 0.144,-0.022 0.217,-0.022 0.112,-10e-4 0.171,0.069 0.267,0.104 0.052,0.019 0.121,-0.017 0.175,-0.026 0.065,-0.011 0.13,-0.014 0.195,-0.02 0.113,-0.011 0.206,-0.066 0.307,-0.112 0.107,-0.048 0.22,-0.057 0.33,-0.093 0.104,-0.035 0.159,-0.107 0.231,-0.182 0.058,-0.06 0.121,-0.116 0.179,-0.176 C -4.081,7.543 -4.06,7.46 -4.037,7.358 -4.019,7.275 -3.99,7.187 -3.982,7.103 -3.961,6.891 -4.039,6.657 -4.095,6.455 -4.145,6.271 -4.171,6.081 -4.225,5.899 -4.291,5.673 -4.409,5.471 -4.636,5.382 -4.874,5.289 -5.146,5.301 -5.389,5.358 -5.527,5.39 -5.618,5.533 -5.772,5.546 -5.906,5.557 -5.971,5.448 -5.97,5.326 c 10e-4,-0.105 0.05,-0.21 0.114,-0.292 0.058,-0.073 0.114,-0.156 0.193,-0.206 0.073,-0.046 0.152,-0.076 0.222,-0.126 0.082,-0.06 0.169,-0.061 0.264,-0.077 0.106,-0.018 0.205,-0.022 0.315,-0.022 0.102,-10e-4 0.186,0.019 0.283,0.028 0.077,0.007 0.142,0.029 0.22,0.028 0.049,0 0.1,-0.004 0.15,-0.002 0.091,0.005 0.192,0.051 0.277,0.08 0.106,0.037 0.211,0.071 0.304,0.133 0.126,0.083 0.281,0.151 0.358,0.276 0.038,0.061 0.077,0.132 0.135,0.178 0.058,0.045 0.07,0.092 0.088,0.159 0.055,0.204 0.095,0.408 0.128,0.619 0.04,0.26 0.058,0.531 0.013,0.792 -0.04,0.234 -0.135,0.458 -0.205,0.683 -0.034,0.106 -0.061,0.218 -0.108,0.32 -0.04,0.087 -0.098,0.161 -0.153,0.237 -0.252,0.35 -0.526,0.743 -0.893,0.981 C -4.457,9.24 -4.645,9.367 -4.87,9.425 -5.034,9.467 -5.198,9.5 -5.367,9.498 -5.51,9.496 -5.652,9.501 -5.795,9.498 -5.88,9.497 -5.951,9.481 -6.033,9.459 -6.128,9.433 -6.223,9.419 -6.318,9.396 -6.492,9.355 -6.67,9.341 -6.844,9.305 -6.886,9.296 -6.931,9.289 -6.969,9.268 -7.009,9.246 -7.044,9.212 -7.083,9.187 -7.192,9.117 -7.279,9.037 -7.359,8.934 -7.545,8.693 -7.705,8.44 -7.874,8.187 -8.043,7.934 -8.15,7.658 -8.226,7.363 -8.283,7.142 -8.357,6.914 -8.379,6.686 -8.397,6.492 -8.372,6.295 -8.385,6.1 -8.4,5.878 -8.44,5.663 -8.44,5.44 c 0,-0.097 -0.009,-0.195 0.004,-0.291 0.015,-0.117 0.064,-0.224 0.097,-0.337 0.045,-0.15 0.058,-0.295 0.076,-0.45 0.02,-0.16 0.012,-0.313 0.02,-0.473 C -8.24,3.815 -8.208,3.759 -8.19,3.69 -8.167,3.598 -8.165,3.501 -8.143,3.408 -8.111,3.271 -8.039,3.141 -7.98,3.014 -7.909,2.861 -7.819,2.721 -7.709,2.594 -7.65,2.525 -7.59,2.458 -7.531,2.39 -7.462,2.31 -7.424,2.222 -7.347,2.146 -7.275,2.076 -7.209,1.996 -7.129,1.935 -7.085,1.9 -7.04,1.864 -6.994,1.832 -6.951,1.802 -6.887,1.785 -6.851,1.75 -6.826,1.725 -6.824,1.695 -6.806,1.666 -6.78,1.624 -6.733,1.595 -6.693,1.566 -6.535,1.449 -6.37,1.342 -6.225,1.209 -5.932,0.941 -5.591,0.72 -5.255,0.509 -5.132,0.431 -4.989,0.407 -4.861,0.34 -4.743,0.28 -4.647,0.225 -4.514,0.208 -4.342,0.185 -4.134,0.16 -3.98,0.073 -3.851,0 -3.697,0.025 -3.555,-0.018 c 0.101,-0.03 0.191,-0.091 0.291,-0.127 0.127,-0.046 0.257,-0.08 0.383,-0.128 0.089,-0.034 0.151,-0.091 0.23,-0.139 0.091,-0.055 0.199,-0.05 0.301,-0.057 0.125,-0.009 0.252,-0.022 0.368,-0.073 0.062,-0.026 0.129,-0.024 0.201,-0.024 0.105,0 0.197,-0.026 0.3,-0.025 0.099,0.001 0.215,0.015 0.313,-0.003 0.147,-0.026 0.29,-0.114 0.432,-0.158 0.139,-0.043 0.267,-0.079 0.397,-0.146 0.152,-0.077 0.308,-0.142 0.46,-0.217 0.185,-0.091 0.363,-0.201 0.552,-0.282 0.151,-0.066 0.227,-0.221 0.381,-0.281 0.117,-0.046 0.244,-0.04 0.353,-0.111 0.08,-0.052 0.142,-0.129 0.21,-0.196 C 1.675,-2.043 1.756,-2.095 1.8,-2.165 1.886,-2.303 1.918,-2.47 1.887,-2.633 1.873,-2.708 1.83,-2.774 1.812,-2.848 1.8,-2.898 1.797,-2.947 1.781,-2.996 1.739,-3.128 1.646,-3.246 1.58,-3.367 1.473,-3.566 1.314,-3.7 1.141,-3.837 1.073,-3.891 1.004,-3.925 0.925,-3.964 0.868,-3.992 0.813,-4.041 0.75,-4.051 0.625,-4.072 0.517,-3.97 0.415,-3.918 0.322,-3.87 0.257,-3.817 0.152,-3.785 c -0.12,0.035 -0.251,0.02 -0.376,0.02 -0.032,0 -0.101,0.014 -0.13,-0.004 -0.055,-0.033 -0.013,-0.055 -0.004,-0.087 0.026,-0.094 0.055,-0.179 0.119,-0.257 0.053,-0.064 0.114,-0.135 0.155,-0.205 0.023,-0.038 0.019,-0.079 0.04,-0.118 0.017,-0.029 0.042,-0.071 0.067,-0.096 C 0.119,-4.627 0.25,-4.674 0.354,-4.758 0.456,-4.839 0.561,-4.9 0.669,-4.973 0.76,-5.035 0.864,-5.071 0.956,-5.134 1.036,-5.19 1.11,-5.259 1.2,-5.299 c 0.101,-0.045 0.226,-0.08 0.335,-0.1 0.268,-0.048 0.591,-0.035 0.806,0.152 0.118,0.103 0.182,0.269 0.246,0.407 0.127,0.275 0.197,0.524 0.223,0.828 0.026,0.317 0.042,0.628 -0.037,0.938 -0.058,0.232 -0.102,0.466 -0.161,0.697 -0.086,0.337 -0.23,0.64 -0.405,0.939 C 2.134,-1.314 2.064,-1.271 1.936,-1.22 1.856,-1.189 1.798,-1.14 1.734,-1.083 1.428,-0.816 1.07,-0.618 0.724,-0.407 0.488,-0.263 0.247,-0.125 0,0"
             style="fill:#000000;fill-opacity:1;fill-rule:nonzero;stroke:none"
             id="path1667" />
        </g>
        <g
           id="g1669"
           transform="translate(364.598,308.84)"
           style="fill:#000000">
          <path
             d="M 0,0 C -0.024,0.01 -0.048,0.022 -0.069,0.039 -0.243,0.171 -0.41,0.316 -0.579,0.456 -0.684,0.543 -0.794,0.627 -0.924,0.675 -1.034,0.716 -1.152,0.732 -1.266,0.757 -1.463,0.8 -1.657,0.859 -1.848,0.925 -2.09,1.01 -2.316,1.126 -2.553,1.224 -2.746,1.304 -2.943,1.355 -3.142,1.416 -3.304,1.465 -3.455,1.545 -3.617,1.591 -3.793,1.642 -3.986,1.663 -4.167,1.694 -4.575,1.762 -4.971,1.793 -5.385,1.796 -5.59,1.797 -5.788,1.777 -5.987,1.722 -6.199,1.663 -6.38,1.553 -6.581,1.466 -6.846,1.353 -7.087,1.202 -7.345,1.075 -7.644,0.928 -7.935,0.761 -8.225,0.596 -8.494,0.442 -8.76,0.227 -8.986,0.016 c -0.08,-0.074 -0.17,-0.128 -0.252,-0.198 -0.09,-0.077 -0.154,-0.18 -0.228,-0.273 -0.076,-0.096 -0.14,-0.195 -0.195,-0.304 -0.037,-0.072 -0.091,-0.145 -0.114,-0.223 -0.056,-0.193 -0.061,-0.403 -0.061,-0.603 0,-0.103 -0.009,-0.21 0.004,-0.313 0.015,-0.11 0.051,-0.215 0.082,-0.322 0.023,-0.083 0.038,-0.173 0.089,-0.246 0.061,-0.089 0.118,-0.18 0.179,-0.269 0.061,-0.089 0.146,-0.16 0.219,-0.24 0.081,-0.089 0.161,-0.183 0.251,-0.262 0.072,-0.064 0.163,-0.098 0.242,-0.15 0.114,-0.075 0.193,-0.187 0.312,-0.253 0.14,-0.078 0.304,-0.119 0.455,-0.174 0.134,-0.047 0.27,-0.088 0.412,-0.1 0.261,-0.023 0.596,-0.03 0.823,0.114 0.317,0.2 0.665,0.495 0.781,0.863 0.047,0.147 0.041,0.289 0.042,0.442 0.001,0.155 -0.002,0.287 -0.086,0.419 -0.048,0.077 -0.086,0.148 -0.141,0.22 -0.049,0.064 -0.116,0.114 -0.176,0.17 -0.131,0.122 -0.327,0.215 -0.507,0.213 -0.127,-10e-4 -0.255,-10e-4 -0.382,0 -0.025,0.001 -0.075,0.012 -0.095,-0.004 -0.007,-0.006 -0.02,-0.05 -0.025,-0.06 -0.024,-0.041 -0.057,-0.07 -0.066,-0.119 -0.008,-0.044 -0.009,-0.114 0.028,-0.144 0.024,-0.02 0.063,-0.024 0.092,-0.04 0.052,-0.027 0.098,-0.068 0.148,-0.098 0.082,-0.051 0.143,-0.11 0.202,-0.187 0.073,-0.097 0.103,-0.194 0.135,-0.311 0.025,-0.091 0.041,-0.215 0.005,-0.306 -0.041,-0.106 -0.083,-0.141 -0.187,-0.157 -0.144,-0.023 -0.29,-0.033 -0.435,-0.048 -0.052,-0.005 -0.104,-0.002 -0.157,-0.002 -0.091,0 -0.199,-0.019 -0.288,0.004 -0.127,0.033 -0.282,0.126 -0.362,0.229 -0.044,0.057 -0.059,0.131 -0.089,0.195 -0.031,0.067 -0.073,0.119 -0.086,0.193 -0.023,0.14 -0.044,0.288 -0.021,0.43 0.024,0.157 0.1,0.305 0.152,0.454 0.056,0.158 0.167,0.309 0.259,0.447 0.091,0.136 0.194,0.301 0.328,0.397 0.201,0.144 0.394,0.297 0.608,0.423 0.126,0.074 0.258,0.138 0.389,0.2 0.173,0.083 0.338,0.188 0.514,0.261 0.25,0.105 0.509,0.215 0.771,0.288 0.238,0.067 0.507,0.033 0.743,-0.021 0.146,-0.034 0.297,-0.035 0.44,-0.081 0.146,-0.046 0.28,-0.118 0.421,-0.18 0.258,-0.115 0.529,-0.207 0.793,-0.307 0.227,-0.085 0.449,-0.183 0.677,-0.264 0.11,-0.039 0.19,-0.097 0.289,-0.156 0.072,-0.043 0.143,-0.086 0.223,-0.097 0.06,-0.009 0.117,-0.024 0.175,-0.044 0.106,-0.037 0.212,-0.088 0.302,-0.155 0.13,-0.095 0.195,-0.235 0.276,-0.368 0.094,-0.155 0.195,-0.284 0.327,-0.408 0.274,-0.26 0.571,-0.521 0.805,-0.818 C 0.25,-2.576 0.38,-2.869 0.573,-3.121 0.689,-3.272 0.804,-3.432 0.845,-3.621 0.888,-3.824 0.862,-4.03 0.876,-4.235 0.889,-4.444 0.932,-4.627 1.004,-4.822 1.042,-4.924 1.078,-5.026 1.11,-5.13 1.156,-5.284 1.23,-5.389 1.355,-5.491 1.433,-5.556 1.515,-5.609 1.6,-5.667 1.739,-5.762 1.867,-5.89 2.019,-5.966 2.23,-6.07 2.468,-6.084 2.7,-6.074 c 0.253,0.011 0.52,0.085 0.757,0.171 0.154,0.055 0.323,0.111 0.464,0.193 0.189,0.109 0.362,0.248 0.531,0.383 0.433,0.346 0.829,0.804 0.992,1.341 0.066,0.218 0.149,0.444 0.17,0.672 0.023,0.234 0.077,0.468 0.086,0.703 0.007,0.199 0.027,0.434 -0.057,0.622 -0.071,0.16 -0.175,0.314 -0.258,0.467 C 5.348,-1.454 5.316,-1.376 5.272,-1.311 5.227,-1.245 5.151,-1.189 5.091,-1.136 5.015,-1.068 4.952,-0.991 4.876,-0.923 4.792,-0.847 4.681,-0.787 4.583,-0.741 4.485,-0.695 4.399,-0.66 4.285,-0.647 4.133,-0.631 3.932,-0.635 3.792,-0.691 3.586,-0.772 3.367,-0.79 3.176,-0.905 2.987,-1.019 2.811,-1.157 2.71,-1.359 2.636,-1.505 2.533,-1.634 2.492,-1.796 2.469,-1.886 2.43,-1.974 2.408,-2.062 2.389,-2.142 2.401,-2.247 2.403,-2.331 2.405,-2.479 2.456,-2.643 2.516,-2.779 2.549,-2.852 2.619,-2.963 2.688,-3.009 2.731,-3.038 2.78,-3.041 2.824,-3.06 c 0.027,0.072 -0.068,0.161 -0.008,0.237 0.024,0.029 0.077,0.036 0.106,0.065 0.032,0.031 0.046,0.064 0.05,0.107 0.011,0.098 -0.024,0.206 0.019,0.299 0.025,0.056 0.081,0.102 0.122,0.148 0.08,0.089 0.153,0.19 0.258,0.252 0.138,0.081 0.263,0.18 0.422,0.217 0.182,0.042 0.457,0.087 0.624,-0.025 0.191,-0.129 0.227,-0.4 0.231,-0.609 C 4.65,-2.492 4.66,-2.601 4.673,-2.722 4.69,-2.876 4.647,-3.012 4.617,-3.161 4.574,-3.378 4.504,-3.605 4.395,-3.8 4.272,-4.019 4.039,-4.171 3.83,-4.291 3.641,-4.4 3.42,-4.496 3.204,-4.535 3.115,-4.551 3.012,-4.544 2.922,-4.541 2.778,-4.537 2.653,-4.45 2.514,-4.418 2.418,-4.395 2.338,-4.357 2.257,-4.3 2.131,-4.21 2.001,-4.141 1.891,-4.03 1.799,-3.937 1.728,-3.843 1.664,-3.73 1.587,-3.595 1.553,-3.449 1.509,-3.3 1.472,-3.177 1.427,-3.066 1.383,-2.947 1.334,-2.81 1.317,-2.662 1.27,-2.523 1.225,-2.393 1.142,-2.282 1.094,-2.153 1.032,-1.987 1.011,-1.809 0.948,-1.641 0.897,-1.505 0.845,-1.368 0.798,-1.23 0.733,-1.042 0.753,-0.851 0.641,-0.675 0.536,-0.51 0.377,-0.396 0.274,-0.228 0.235,-0.165 0.195,-0.102 0.132,-0.06 0.091,-0.033 0.044,-0.019 0,0"
             style="fill:#000000;fill-opacity:1;fill-rule:nonzero;stroke:none"
             id="path1671" />
        </g>
      </g>
    </g>
  </g>
</svg>
