<?xml version="1.0" encoding="UTF-8" standalone="no"?>
<!-- Created with Inkscape (http://www.inkscape.org/) -->

<svg
   width="28.989086"
   height="24"
   viewBox="0 0 7.6700291 6.35"
   version="1.1"
   id="svg43785"
   inkscape:version="1.2.1 (9c6d41e4, 2022-07-14)"
   sodipodi:docname="dim-carcosa.svg"
   xmlns:inkscape="http://www.inkscape.org/namespaces/inkscape"
   xmlns:sodipodi="http://sodipodi.sourceforge.net/DTD/sodipodi-0.dtd"
   xmlns="http://www.w3.org/2000/svg"
   xmlns:svg="http://www.w3.org/2000/svg">
  <sodipodi:namedview
     id="namedview43787"
     pagecolor="#505050"
     bordercolor="#eeeeee"
     borderopacity="1"
     inkscape:showpageshadow="0"
     inkscape:pageopacity="0"
     inkscape:pagecheckerboard="0"
     inkscape:deskcolor="#505050"
     inkscape:document-units="mm"
     showgrid="false"
     inkscape:zoom="0.2102413"
     inkscape:cx="35.673295"
     inkscape:cy="285.38636"
     inkscape:window-width="1309"
     inkscape:window-height="456"
     inkscape:window-x="0"
     inkscape:window-y="25"
     inkscape:window-maximized="0"
     inkscape:current-layer="layer1" />
  <defs
     id="defs43782">
    <clipPath
       clipPathUnits="userSpaceOnUse"
       id="clipPath33073">
      <path
         d="m 298.72,419.916 h 24.699 v 24.699 H 298.72 Z"
         id="path33071" />
    </clipPath>
  </defs>
  <g
     inkscape:label="Layer 1"
     inkscape:groupmode="layer"
     id="layer1"
     transform="translate(-95.49932,-73.521451)">
    <g
       id="g33067"
       transform="matrix(0.34511454,0,0,-0.34511454,-7.9653288,225.46073)">
      <g
         id="g33069"
         clip-path="url(#clipPath33073)">
        <g
           id="g33075"
           transform="translate(299.798,432.698)">
          <path
             d="m 0,0 c 0.025,-0.001 0.052,-0.002 0.08,-0.003 0,0.001 0,0.002 0.001,0.003 z"
             style="fill:#231f20;fill-opacity:1;fill-rule:nonzero;stroke:none"
             id="path33077" />
        </g>
        <g
           id="g33079"
           transform="translate(321.9,432.529)">
          <path
             d="M 0,0 C -0.044,0.042 -0.058,0.02 -0.111,0.04 -0.125,0.051 -0.14,0.063 -0.154,0.075 -0.164,0.08 -0.174,0.08 -0.184,0.077 -0.242,0.096 -0.266,0.13 -0.303,0.181 -0.365,0.264 -0.45,0.278 -0.539,0.316 -0.571,0.33 -0.596,0.351 -0.625,0.369 -0.706,0.418 -0.801,0.446 -0.886,0.486 -0.994,0.535 -1.112,0.6 -1.227,0.63 -1.337,0.658 -1.454,0.611 -1.562,0.634 -1.629,0.649 -1.671,0.695 -1.74,0.673 -1.804,0.652 -1.826,0.595 -1.896,0.591 -1.918,0.589 -1.943,0.609 -1.966,0.61 -2.088,0.619 -2.224,0.559 -2.344,0.539 -2.516,0.51 -2.691,0.492 -2.861,0.464 -2.945,0.451 -2.994,0.411 -3.071,0.377 -3.083,0.372 -3.095,0.367 -3.108,0.362 -3.154,0.361 -3.2,0.362 -3.246,0.361 -3.256,0.365 -3.266,0.368 -3.276,0.375 -3.358,0.436 -3.345,0.513 -3.443,0.562 -3.649,0.665 -3.881,0.633 -4.099,0.677 -4.272,0.712 -4.333,0.855 -4.484,0.926 -4.56,0.961 -4.649,1.008 -4.733,1.015 -4.873,1.027 -4.997,0.926 -5.129,0.871 -5.264,0.815 -5.412,0.768 -5.537,0.695 -5.622,0.645 -5.601,0.633 -5.685,0.657 -5.757,0.677 -5.829,0.732 -5.904,0.754 -6.058,0.8 -6.222,0.817 -6.376,0.861 -6.469,0.888 -6.576,0.977 -6.672,0.982 -6.741,0.986 -6.741,0.947 -6.798,0.934 -6.871,0.917 -6.964,0.91 -7.04,0.897 -7.206,0.868 -7.374,0.902 -7.533,0.947 -7.738,1.005 -7.832,1.164 -8.008,1.244 -8.134,1.301 -8.232,1.408 -8.344,1.485 -8.452,1.56 -8.556,1.576 -8.667,1.626 -8.779,1.677 -8.761,1.738 -8.866,1.641 -8.907,1.602 -8.951,1.557 -9.006,1.542 -9.044,1.532 -9.079,1.55 -9.114,1.541 -9.222,1.514 -9.303,1.424 -9.417,1.394 -9.538,1.362 -9.649,1.339 -9.763,1.285 -9.942,1.2 -10.131,1.037 -10.32,0.986 c -0.059,-0.016 -0.13,0.013 -0.184,-0.008 -0.064,-0.025 -0.142,-0.135 -0.18,-0.188 -0.053,-0.074 -0.077,-0.191 -0.153,-0.245 -0.115,-0.081 -0.375,-0.037 -0.51,-0.037 -0.157,-0.001 -0.297,0.036 -0.449,0.043 -0.062,0.003 -0.154,0.013 -0.216,0.001 -0.062,-0.012 -0.085,-0.057 -0.146,-0.079 -0.205,-0.071 -0.44,0.033 -0.639,0.069 -0.068,0.012 -0.163,-0.014 -0.222,0.025 -0.049,0.031 -0.038,0.079 -0.072,0.115 -0.044,0.047 -0.077,0.056 -0.133,0.086 -0.125,0.066 -0.214,0.193 -0.363,0.217 -0.161,0.026 -0.279,-0.032 -0.437,0.068 -0.128,0.082 -0.179,0.111 -0.333,0.149 -0.104,0.026 -0.187,0.1 -0.287,0.124 -0.047,0.011 -0.106,-0.013 -0.156,-0.006 -0.039,0.005 -0.087,0.041 -0.122,0.041 -0.046,-10e-4 -0.102,-0.044 -0.143,-0.065 -0.127,-0.068 -0.259,-0.159 -0.403,-0.185 -0.093,-0.017 -0.192,-0.008 -0.287,-0.023 -0.083,-0.014 -0.165,-0.035 -0.249,-0.046 -0.215,-0.027 -0.396,-0.02 -0.604,0.014 -0.074,0.012 -0.15,-0.002 -0.223,0.008 0.019,-0.003 -0.1,0.037 -0.102,0.037 -0.113,0.003 -0.258,-0.158 -0.343,-0.229 -0.1,-0.084 -0.177,-0.171 -0.288,-0.236 -0.069,-0.041 -0.104,-0.066 -0.155,-0.121 -0.033,-0.036 -0.051,-0.057 -0.073,-0.068 -0.023,-0.002 -0.046,-0.004 -0.068,-0.007 -0.009,0.001 -0.015,0 -0.025,0.002 -0.173,0.02 -0.351,0.011 -0.53,0.022 -0.154,0.009 -0.278,0.166 -0.434,0.123 -0.1,-0.027 -0.13,-0.077 -0.236,-0.08 -0.065,-0.002 -0.127,0 -0.19,0.01 -0.123,0.021 -0.242,0.048 -0.352,0.11 -0.081,0.045 -0.06,0.033 -0.173,0.057 -0.113,0.024 -0.161,0.147 -0.249,0.171 -0.07,0.018 -0.101,-0.028 -0.155,-0.043 -0.125,-0.036 -0.261,-0.031 -0.378,-0.09 -0.162,-0.082 -0.26,-0.221 -0.409,-0.335 -0.152,-0.118 -0.303,-0.07 -0.476,-0.102 -0.099,-0.019 -0.19,-0.07 -0.29,-0.08 -0.067,-0.006 -0.227,0.03 -0.265,-0.036 h 0.168 c -0.053,-0.005 -0.112,-0.005 -0.168,-0.003 -0.013,-0.03 0.009,-0.077 0.016,-0.104 0.033,-0.121 0.063,-0.231 0.071,-0.358 0.005,-0.072 -0.004,-0.066 0.086,-0.074 0.07,-0.006 0.155,0.005 0.225,0.007 0.285,0.007 0.569,0.015 0.854,0.022 0.208,0.006 0.417,0.015 0.625,0.019 0.28,0.005 0.553,-0.042 0.834,-0.041 0.181,0 0.343,-0.02 0.521,-0.033 0.259,-0.017 0.523,-0.013 0.782,-0.026 0.21,-0.011 0.415,-0.046 0.626,-0.058 0.251,-0.013 0.494,-0.025 0.744,-0.048 0.218,-0.019 0.437,-0.023 0.654,-0.05 0.267,-0.034 0.52,-0.007 0.789,-0.008 0.249,0 0.491,-0.02 0.74,-0.013 0.27,0.009 0.541,0.021 0.811,0.024 0.305,0.003 0.605,-0.018 0.914,-0.008 0.423,0.013 0.838,-0.009 1.259,-0.003 0.506,0.008 1.017,0.114 1.522,0.153 0.408,0.031 0.817,0.034 1.226,0.045 0.693,0.018 1.4,0.069 2.087,-0.005 0.554,-0.06 1.102,-0.035 1.662,-0.017 0.204,0.007 0.399,-0.016 0.602,-0.017 0.29,-0.001 0.582,0.024 0.872,0.026 0.211,0.002 0.416,-0.028 0.625,-0.039 0.234,-0.013 0.427,0.006 0.657,-0.034 0.274,-0.048 0.532,-0.061 0.815,-0.054 0.084,0.002 0.156,0 0.235,0.022 0.132,0.037 0.22,0.08 0.362,0.084 0.106,0.002 0.223,0.051 0.323,0.04 0.07,-0.007 0.139,-0.049 0.215,-0.028 0.085,0.022 0.151,0.106 0.217,0.159 0.054,0.043 0.124,0.08 0.159,0.141 0.026,0.046 0.017,0.048 -0.025,0.063 C 0.051,-0.036 0.026,-0.026 0,0"
             style="fill:#231f20;fill-opacity:1;fill-rule:nonzero;stroke:none"
             id="path33081" />
        </g>
        <g
           id="g33083"
           transform="translate(306.418,438.502)">
          <path
             d="m 0,0 c -0.096,-0.236 -0.102,-0.459 -0.102,-0.71 0,-0.351 0.008,-0.698 0.076,-1.043 0.057,-0.285 0.273,-0.429 0.507,-0.575 0.291,-0.182 0.612,-0.27 0.946,-0.34 0.207,-0.043 0.408,-0.055 0.619,-0.055 0.172,-0.001 0.34,-0.004 0.498,0.075 0.303,0.152 0.538,0.401 0.827,0.569 0.291,0.169 0.598,0.363 0.769,0.665 0.083,0.146 0.143,0.306 0.22,0.455 0.081,0.157 0.07,0.276 0.071,0.447 0,0.207 -0.008,0.362 -0.088,0.551 C 4.274,0.2 4.207,0.366 4.136,0.525 4.022,0.781 3.801,1.032 3.59,1.217 3.495,1.3 3.402,1.395 3.295,1.462 3.208,1.516 3.109,1.554 3.019,1.605 2.932,1.655 2.876,1.705 2.771,1.71 2.567,1.719 2.361,1.699 2.157,1.706 2.05,1.709 1.949,1.727 1.846,1.747 1.807,1.754 1.785,1.76 1.745,1.751 1.648,1.729 1.542,1.677 1.45,1.639 1.277,1.568 1.112,1.447 0.967,1.33 0.762,1.163 0.582,0.983 0.409,0.781 0.214,0.556 0.111,0.272 0,0"
             style="fill:#231f20;fill-opacity:1;fill-rule:nonzero;stroke:none"
             id="path33085" />
        </g>
        <g
           id="g33087"
           transform="translate(311.418,425.696)">
          <path
             d="M 0,0 C -0.034,0.009 -0.099,0.036 -0.135,0.053 -0.171,0.069 -0.191,0.098 -0.223,0.122 -0.272,0.16 -0.343,0.18 -0.405,0.19 -0.562,0.216 -0.741,0.181 -0.897,0.171 -0.927,0.169 -0.97,0.165 -1.015,0.162 c 0.032,0.046 0.063,0.094 0.09,0.141 0.023,0.017 0.047,0.033 0.072,0.044 0.171,0.074 0.36,0.129 0.535,0.191 0.081,0.028 0.122,0.066 0.167,0.14 -0.071,0.022 -0.519,-0.13 -0.525,-0.03 0.112,0.039 0.227,0.072 0.341,0.105 0.046,0.013 0.11,0.02 0.151,0.048 -0.04,0.036 -0.12,0.068 -0.17,0.094 -0.091,0.047 -0.19,0.039 -0.288,0.056 0.011,0.03 0.017,0.059 0.025,0.088 -0.034,-0.008 -0.069,-0.016 -0.101,-0.018 -0.033,-0.002 -0.066,0.001 -0.099,0.002 -0.058,0 -0.116,0 -0.174,0 -0.21,0 -0.411,-0.003 -0.618,0.035 -0.212,0.04 -0.425,0.004 -0.641,-0.005 -0.01,-0.004 -0.021,-0.006 -0.035,-0.002 0.012,0 0.024,0.001 0.035,0.002 0.018,0.006 0.032,0.02 0.049,0.033 0.054,0.042 0.064,0.057 0.13,0.046 0.107,-0.018 0.175,-0.034 0.285,0.005 0.095,0.034 0.188,0.013 0.282,0.044 0.046,0.016 0.087,0.054 0.134,0.066 0.046,0.012 0.091,-0.002 0.137,0.011 0.036,0.009 0.043,0.019 0.082,0.023 0.036,0.002 0.084,-0.012 0.119,-0.003 0.019,0.005 0.023,0.024 0.041,0.028 0.037,0.007 0.076,0.007 0.114,0.016 0.132,0.03 0.249,0.044 0.386,0.043 0.027,0 0.067,0.005 0.109,0.009 0.067,0.041 0.131,0.087 0.204,0.113 -0.001,0.077 -0.086,0.079 -0.142,0.079 -0.098,0 -0.171,0.004 -0.25,0.034 -0.001,0.052 -0.005,0.1 -0.014,0.149 -0.041,0.003 -0.082,0.004 -0.123,0.008 -0.124,0.014 -0.242,0.028 -0.356,0.08 -0.071,0.032 -0.1,0.041 -0.068,0.123 0.051,0.128 0.167,0.105 0.274,0.118 0.04,0.005 0.08,0.019 0.119,0.034 -0.033,0.07 -0.066,0.141 -0.102,0.209 0.16,0.023 0.381,0.066 0.343,0.127 -0.132,0.021 -0.253,0.011 -0.38,0.064 -0.043,0.017 -0.087,0.035 -0.131,0.053 -0.125,0.139 -0.28,0.252 -0.44,0.352 0.041,0.012 0.089,0.02 0.113,0.037 0.025,0.018 0.083,0.063 0.075,0.1 -0.011,0.051 -0.056,0.017 -0.09,0.025 -0.037,0.008 -0.036,0.042 -0.061,0.054 -0.061,0.031 -0.187,0.005 -0.253,0.005 -0.041,0 -0.084,-0.002 -0.128,-0.004 -0.015,0.011 -0.029,0.022 -0.044,0.033 -0.017,0 -0.033,0 -0.051,0 -0.062,0 -0.138,-0.021 -0.179,0.025 -0.026,0.03 -0.011,0.089 -0.063,0.112 -0.075,0.032 -0.178,0.013 -0.26,0.041 -0.025,0.006 -0.049,0.015 -0.072,0.028 -0.003,0.015 -0.006,0.029 -0.009,0.044 -0.102,0.094 -0.272,-0.003 -0.394,0.041 0.008,0.065 0.184,0.079 0.223,0.085 0.069,0.01 0.138,0.024 0.207,0.039 C -2.441,3.586 -2.448,3.591 -2.456,3.595 -2.614,3.673 -2.782,3.671 -2.953,3.67 -3.165,3.669 -3.366,3.658 -3.573,3.614 -3.636,3.601 -3.699,3.586 -3.761,3.571 -3.745,3.568 -3.728,3.567 -3.711,3.562 -3.64,3.544 -3.611,3.538 -3.643,3.492 -3.694,3.418 -3.81,3.431 -3.917,3.424 -3.993,3.419 -4.065,3.395 -4.141,3.385 -4.188,3.379 -4.24,3.377 -4.287,3.37 -4.314,3.366 -4.341,3.361 -4.368,3.355 -4.419,3.33 -4.47,3.305 -4.519,3.275 -4.645,3.196 -4.764,3.117 -4.858,3.018 -4.916,2.99 -4.959,2.939 -5.016,2.906 -5.122,2.846 -5.414,2.739 -5.267,2.543 c 0.023,-0.031 0.058,-0.039 0.092,-0.055 0.021,-0.01 0.04,-0.022 0.058,-0.034 0.038,-0.008 0.06,-0.024 0.109,-0.058 0.051,-0.034 0.141,-0.078 0.201,-0.093 0.07,-0.017 0.137,-0.025 0.2,-0.061 0.034,-0.02 0.05,-0.02 0.087,-0.031 C -4.489,2.202 -4.474,2.175 -4.439,2.172 -4.471,2.099 -4.496,2.064 -4.577,2.054 -4.685,2.04 -4.774,2.008 -4.879,1.976 -4.951,1.954 -5.009,1.929 -5.078,1.895 -5.085,1.892 -5.092,1.889 -5.1,1.885 c 0,-0.005 0,-0.01 0,-0.015 C -5.118,1.85 -5.136,1.832 -5.158,1.817 -5.205,1.783 -5.249,1.746 -5.295,1.715 -5.353,1.676 -5.416,1.67 -5.481,1.65 -5.539,1.632 -5.595,1.566 -5.525,1.511 -5.498,1.49 -5.47,1.502 -5.439,1.493 c 0.062,-0.02 0.097,-0.081 0.166,-0.091 0.059,-0.009 0.12,-0.025 0.181,-0.039 0.006,-0.075 0.016,-0.149 0.033,-0.223 0.03,-0.002 0.058,-0.003 0.08,-0.005 0.167,-0.014 0.278,-0.042 0.458,-0.041 0.123,0 0.127,0.002 0.211,-0.02 0.15,-0.038 0.274,-0.098 0.427,-0.135 0.088,-0.021 0.214,-0.021 0.308,-0.045 0.332,-0.084 -0.616,-0.115 -0.754,-0.13 -0.147,-0.017 -0.296,-0.042 -0.45,-0.045 -0.042,-0.001 -0.084,0 -0.126,0 0.009,-0.02 0.017,-0.04 0.025,-0.061 C -4.927,0.657 -4.974,0.656 -5.024,0.656 -5.182,0.656 -5.37,0.693 -5.491,0.561 -5.541,0.505 -5.68,0.42 -5.612,0.342 -5.571,0.296 -5.488,0.311 -5.437,0.296 -5.38,0.28 -5.238,0.247 -5.209,0.195 -5.246,0.185 -5.37,0.164 -5.385,0.133 -5.39,0.122 -5.066,0.127 -5.039,0.128 c 0.053,0.001 0.117,0.004 0.17,-0.012 0.039,-0.012 0.061,-0.03 0.085,-0.062 0.017,-0.022 0.035,-0.042 0.053,-0.063 0.109,0.004 0.218,0.003 0.325,0.02 0.235,0.036 0.447,0.098 0.686,0.076 0.193,-0.018 0.363,-0.117 0.56,-0.125 0.053,-0.002 0.186,0.017 0.23,-0.01 0.098,-0.059 -0.092,-0.08 -0.128,-0.095 -0.059,-0.023 -0.127,-0.061 -0.179,-0.099 -0.056,-0.04 -0.099,-0.14 -0.159,-0.159 -0.024,-0.007 -0.066,0.004 -0.09,0.006 -0.134,0.012 -0.24,0.002 -0.369,-0.036 -0.127,-0.037 -0.243,-0.013 -0.37,-0.022 -0.061,-0.004 -0.111,-0.026 -0.164,-0.004 0.007,-0.008 0.012,-0.017 0.019,-0.025 0.11,-0.122 0.263,-0.123 0.407,-0.179 0.11,-0.043 0.208,-0.05 0.325,-0.051 0.054,-0.001 0.108,-0.006 0.162,-0.012 0.072,-0.031 0.149,-0.064 0.221,-0.08 0.04,-0.01 0.062,-0.004 0.101,0.004 0.032,0.006 0.064,0.011 0.096,0.017 0.063,-0.006 0.134,-0.004 0.182,0.021 0.011,0.001 0.021,0.003 0.033,0.003 0.204,0.006 0.41,-0.013 0.615,-0.004 0.084,0.004 0.137,0.037 0.2,0.076 -0.036,0.035 -0.07,0.072 -0.111,0.102 -0.059,0.042 -0.116,0.051 -0.18,0.07 -0.054,0.017 -0.143,0.061 -0.062,0.12 0.086,0.062 0.234,0.095 0.333,0.119 0.063,0.016 0.113,0.034 0.19,0.018 0,-0.009 0.001,-0.018 0.002,-0.026 0.035,-0.014 0.073,-0.01 0.11,-0.011 0.141,-0.006 0.282,-0.019 0.423,-0.02 0.008,0 0.016,0 0.024,0 0.057,0.036 0.117,0.064 0.18,0.053 0.024,-0.004 0.047,-0.026 0.073,-0.032 0.044,-0.011 0.106,0 0.152,0 0.02,0.001 0.039,0.005 0.058,0.007 0.035,0.006 0.069,0.011 0.104,0.017 0.11,0.027 0.217,0.065 0.333,0.066 0.101,0 0.12,0.029 0.219,0.07 0.108,0.045 0.22,0.087 0.33,0.124 C 0.202,0.007 0.302,0.013 0.351,0.047 0.232,0.056 0.12,-0.033 0,0"
             style="fill:#231f20;fill-opacity:1;fill-rule:nonzero;stroke:none"
             id="path33089" />
        </g>
        <g
           id="g33091"
           transform="translate(309.725,430.921)">
          <path
             d="m 0,0 c 0.518,-0.041 1.022,-0.058 1.54,-0.057 0.26,0 0.52,0.005 0.78,0.002 0.259,-0.003 0.504,-0.045 0.76,-0.072 0.229,-0.024 0.474,0.016 0.698,-0.047 0.16,-0.044 0.305,-0.128 0.47,-0.16 0.128,-0.01 0.256,-0.015 0.384,-0.013 0.122,-0.009 0.24,-0.035 0.354,-0.077 0.217,-0.048 0.423,-0.037 0.643,0 0.163,0.038 0.328,0.063 0.494,0.076 0.095,-0.004 0.189,0 0.283,0.014 0.215,0.024 0.418,0.095 0.636,0.102 0.168,0.006 0.332,-0.026 0.5,-0.029 0.321,-0.006 0.643,0.083 0.962,0.035 0.232,-0.035 0.445,-0.049 0.682,-0.039 0.209,0.009 0.409,0.014 0.616,-0.02 0.111,-0.028 0.223,-0.045 0.338,-0.05 0.12,0.014 0.238,0.036 0.356,0.067 0.154,0.023 0.246,0 0.394,-0.014 0.166,-0.015 0.327,0.048 0.492,0.054 0.055,-0.123 -0.348,-0.203 -0.419,-0.218 -0.316,-0.068 -0.609,-0.205 -0.92,-0.295 C 9.697,-0.841 9.331,-0.837 8.973,-0.83 8.705,-0.825 8.44,-0.818 8.183,-0.734 7.522,-0.516 6.803,-0.602 6.134,-0.74 5.455,-0.882 4.755,-0.911 4.065,-0.852 3.773,-0.827 3.48,-0.755 3.188,-0.746 2.911,-0.737 2.636,-0.712 2.364,-0.659 2.246,-0.636 2.13,-0.601 2.012,-0.577 1.84,-0.541 1.663,-0.54 1.489,-0.526 c -0.349,0.028 -0.69,0.09 -1.034,0.15 -0.418,0.073 -0.881,0.051 -1.301,0.004 -0.226,-0.025 -0.443,-0.028 -0.671,-0.028 -0.136,0 -0.26,-0.001 -0.394,0.028 -0.081,0.018 -0.159,0.028 -0.242,0.031 -0.04,0.001 -0.221,-0.03 -0.258,0.026 0.018,0.026 0.042,0.068 0.068,0.087 0.051,0.04 0.14,0.034 0.201,0.044 0.104,0.016 0.206,0.043 0.308,0.07 0.211,0.055 0.433,0.093 0.652,0.088 0.168,-0.005 0.325,-0.05 0.497,-0.028 0.15,0.02 0.294,0.08 0.445,0.085 0.076,0.002 0.153,-0.009 0.229,-0.004 C 0.034,0.029 0.077,0.043 0.12,0.056 0.139,0.061 0.266,0.119 0.303,0.114 0.337,0.11 0.356,0.082 0.395,0.08 0.397,0.073 0.398,0.065 0,0"
             style="fill:#231f20;fill-opacity:1;fill-rule:nonzero;stroke:none"
             id="path33093" />
        </g>
        <g
           id="g33095"
           transform="translate(304.808,430.407)">
          <path
             d="M 0,0 C -0.547,-0.034 -1.094,-0.013 -1.64,-0.057 -2.018,-0.088 -2.399,-0.124 -2.77,-0.029 -3.016,0.034 -3.27,0.06 -3.524,0.058 -3.642,0.057 -3.708,0.063 -3.82,0.009 -3.931,-0.044 -4.034,-0.11 -4.141,-0.169 -4.179,-0.19 -4.232,-0.206 -4.239,-0.255 c -0.018,-0.114 0.19,-0.119 0.236,-0.122 0.302,-0.015 0.607,0.013 0.91,0 0.333,-0.015 0.662,-0.047 0.995,-0.05 0.256,-0.001 0.508,-0.052 0.763,-0.062 0.173,-0.007 0.361,0.027 0.533,0.009 0.12,-0.012 0.202,-0.056 0.297,-0.13 0.126,-0.098 0.262,-0.086 0.413,-0.061 0.113,0.018 0.223,0.041 0.338,0.043 0.127,0.002 0.203,0.002 0.326,0.047 0.089,0.032 0.186,0.087 0.283,0.098 0.044,0.005 0.084,-0.001 0.129,0.014 0.069,0.022 0.158,0.04 0.185,0.116 0.068,0.195 -0.22,0.178 -0.339,0.211 -0.158,0.043 -0.321,0.028 -0.484,0.028 -0.049,0 -0.115,-0.014 -0.162,0.005 C 0.151,-0.096 0.116,-0.065 0.081,-0.05 -0.073,0.015 -0.182,0.028 0,0"
             style="fill:#231f20;fill-opacity:1;fill-rule:nonzero;stroke:none"
             id="path33097" />
        </g>
        <g
           id="g33099"
           transform="translate(320.417,428.892)">
          <path
             d="m 0,0 c -0.357,0 -0.714,0.001 -1.071,0 -0.146,0 -0.293,-0.005 -0.439,-0.001 -0.135,0.004 -0.24,0.053 -0.363,0.1 -0.326,0.124 -0.669,0.164 -1.016,0.162 -0.395,-0.002 -0.774,-0.027 -1.16,-0.112 -0.138,-0.03 -0.264,-0.056 -0.387,-0.12 -0.186,-0.098 -0.433,-0.107 -0.638,-0.114 -0.218,-0.007 -0.43,-0.002 -0.648,-0.022 -0.077,-0.008 -0.153,-0.009 -0.23,-0.022 -0.035,-0.006 -0.067,-0.016 -0.104,-0.015 0.054,0.004 0.11,0.005 0.164,0.005 0.155,0.001 0.193,-0.037 0.274,-0.157 0.067,-0.099 0.118,-0.148 0.239,-0.175 0.26,-0.06 0.537,-0.07 0.803,-0.071 0.379,-0.001 0.746,0.09 1.123,0.11 0.207,0.012 0.416,0.01 0.623,-0.003 0.37,-0.021 0.738,-0.1 1.109,-0.073 0.306,0.022 0.599,-0.02 0.904,0.022 0.242,0.034 0.489,0.008 0.729,0.056 0.098,0.019 0.187,0.058 0.288,0.061 0.098,0.002 0.195,-0.009 0.293,0.002 C 0.568,-0.36 0.94,-0.289 0.948,-0.17 0.874,-0.093 0.704,-0.102 0.607,-0.071 0.552,-0.053 0.502,-0.029 0.446,-0.015 0.361,0.008 0.282,0.026 0.199,0.058 0.097,0.099 -0.006,0.086 0,0"
             style="fill:#231f20;fill-opacity:1;fill-rule:nonzero;stroke:none"
             id="path33101" />
        </g>
        <g
           id="g33103"
           transform="translate(317.015,426.833)">
          <path
             d="m 0,0 c -0.086,0.02 -0.156,0.029 -0.246,0.029 -0.431,-0.003 -0.862,0 -1.293,0 -0.613,0 -1.224,0.029 -1.837,0.028 -0.227,0 -0.496,0.05 -0.706,-0.043 -0.117,-0.051 -0.21,-0.124 -0.32,-0.18 -0.072,-0.037 -0.162,-0.029 -0.231,-0.07 0.023,-0.049 0.17,-0.016 0.217,-0.024 0.072,-0.013 0.123,-0.062 0.185,-0.096 0.127,-0.07 0.276,-0.085 0.417,-0.104 0.446,-0.057 0.898,-0.057 1.342,-0.126 0.129,-0.02 0.256,-0.057 0.386,-0.068 0.141,-0.011 0.284,-0.007 0.425,0.002 0.267,0.017 0.526,0.048 0.786,0.109 0.126,0.029 0.251,0.068 0.38,0.083 0.081,0.01 0.165,0 0.246,0.004 0.181,0.008 0.351,0.07 0.53,0.083 0.045,0.004 0.088,-0.001 0.134,-0.001 0.114,-0.001 0.211,0.027 0.323,0.053 0.129,0.03 0.239,0.032 0.368,0.032 0.085,0.001 0.241,0.031 0.287,0.119 C 1.498,0.035 1.058,0.02 0.957,0.047 0.732,0.106 0.498,0.086 0.265,0.086 0.139,0.086 0.008,0.098 -0.116,0.07 -0.205,0.05 -0.306,-0.017 0,0"
             style="fill:#231f20;fill-opacity:1;fill-rule:nonzero;stroke:none"
             id="path33105" />
        </g>
        <g
           id="g33107"
           transform="translate(315.614,424.146)">
          <path
             d="m 0,0 c -0.982,0 -1.968,-0.023 -2.949,-0.003 -0.18,-0.001 -0.359,0.017 -0.535,0.052 -0.113,0.03 -0.228,0.052 -0.343,0.066 -0.258,0.017 -0.47,-0.111 -0.716,-0.142 -0.07,-0.008 -0.133,0.006 -0.202,0.002 -0.069,-0.007 -0.136,-0.025 -0.201,-0.052 -0.1,-0.027 -0.202,-0.049 -0.304,-0.068 -0.302,-0.077 -0.594,-0.202 -0.894,-0.289 -0.133,-0.038 -0.263,-0.064 -0.401,-0.082 0.944,0.023 1.892,0.008 2.834,-0.032 0.32,-0.014 0.628,-0.051 0.942,-0.097 0.191,-0.028 0.396,-0.046 0.588,-0.044 0.326,0.003 0.655,0.06 0.977,0.106 0.238,0.034 0.449,0.085 0.69,0.061 0.177,-0.017 0.339,-0.017 0.517,0.007 0.128,0.017 0.251,0.025 0.38,0.029 0.226,0.006 0.442,0.072 0.669,0.059 0.182,-0.01 0.417,-0.084 0.575,0.049 -0.135,0.087 -0.259,0.181 -0.412,0.239 -0.109,0.042 -0.221,0.073 -0.336,0.084 -0.077,0.008 -0.17,0.006 -0.242,0.032 C 0.549,0.009 0.485,0.074 0.391,0.099 0.277,0.128 0.154,0.116 0.037,0.115 -0.099,0.114 -0.235,0.114 0,0"
             style="fill:#231f20;fill-opacity:1;fill-rule:nonzero;stroke:none"
             id="path33109" />
        </g>
        <g
           id="g33111"
           transform="translate(302.236,427.234)">
          <path
             d="M 0,0 C 0.336,0 0.683,-0.025 1.018,0.01 1.322,0.042 1.619,0.114 1.924,0.142 2.204,0.168 2.459,0.173 2.738,0.138 2.745,0.076 2.791,0.06 2.802,0.002 2.837,-0.172 2.636,-0.147 2.526,-0.156 2.406,-0.166 2.295,-0.173 2.186,-0.226 2.153,-0.242 2.122,-0.263 2.089,-0.279 1.901,-0.367 1.696,-0.349 1.497,-0.322 1.336,-0.301 1.178,-0.28 1.015,-0.291 0.874,-0.301 0.74,-0.321 0.599,-0.299 c -0.278,0.045 -0.547,0.042 -0.828,0.042 -0.134,0 -0.273,-0.012 -0.407,-0.002 -0.057,0.005 -0.109,0.029 -0.166,0.032 -0.035,0.002 -0.076,-0.013 -0.109,0.001 0.088,0.11 0.26,0.149 0.386,0.192 0.094,0.033 0.197,0.09 0.295,0.109 0.064,0.012 0.109,-0.014 0.173,-0.019 0.169,-0.014 0.346,0.001 0.514,0.001"
             style="fill:#231f20;fill-opacity:1;fill-rule:nonzero;stroke:none"
             id="path33113" />
        </g>
        <g
           id="g33115"
           transform="translate(312.67,422.517)">
          <path
             d="M 0,0 C -0.333,0.006 -0.66,0.055 -0.993,0.059 -1.355,0.064 -1.717,0.057 -2.079,0.058 -2.532,0.059 -2.996,0.075 -3.447,0.016 -3.75,-0.023 -4.044,-0.077 -4.352,-0.085 c -0.387,-0.01 -0.759,0.014 -1.117,0.17 -0.407,0.177 -0.855,0.184 -1.284,0.083 0.005,-0.11 0.003,-0.235 0.056,-0.334 0.052,-0.099 0.123,-0.104 0.227,-0.128 0.118,-0.027 0.235,-0.056 0.354,-0.079 0.246,-0.048 0.5,-0.101 0.749,-0.136 0.328,-0.046 0.663,-0.035 0.993,-0.036 0.166,0 0.327,0.016 0.492,0.026 0.066,0.004 0.121,0.002 0.183,-0.02 0.231,-0.08 0.437,-0.123 0.682,-0.12 0.284,0.003 0.543,0.017 0.82,0.086 0.192,0.047 0.374,0.14 0.574,0.109 0.174,-0.026 0.348,-0.017 0.521,-0.036 0.189,-0.021 0.367,-0.013 0.555,0.008 0.166,0.018 0.314,0.003 0.475,0.062 0.098,0.036 0.206,0.066 0.3,0.112 0.051,0.026 0.171,0.099 0.146,0.176 C 0.359,-0.095 0.312,-0.098 0.272,-0.083 0.212,-0.061 0.167,-0.014 0.109,0.009 0.017,0.045 -0.083,0.036 0,0"
             style="fill:#231f20;fill-opacity:1;fill-rule:nonzero;stroke:none"
             id="path33117" />
        </g>
      </g>
    </g>
  </g>
</svg>
