<?xml version="1.0" encoding="UTF-8" standalone="no"?>
<!-- Created with Inkscape (http://www.inkscape.org/) -->

<svg
   width="23.982481"
   height="24"
   viewBox="0 0 6.3453646 6.35"
   version="1.1"
   id="svg41570"
   inkscape:version="1.2.1 (9c6d41e4, 2022-07-14)"
   sodipodi:docname="echoes-of-the-past.svg"
   xmlns:inkscape="http://www.inkscape.org/namespaces/inkscape"
   xmlns:sodipodi="http://sodipodi.sourceforge.net/DTD/sodipodi-0.dtd"
   xmlns="http://www.w3.org/2000/svg"
   xmlns:svg="http://www.w3.org/2000/svg">
  <sodipodi:namedview
     id="namedview41572"
     pagecolor="#505050"
     bordercolor="#eeeeee"
     borderopacity="1"
     inkscape:showpageshadow="0"
     inkscape:pageopacity="0"
     inkscape:pagecheckerboard="0"
     inkscape:deskcolor="#505050"
     inkscape:document-units="mm"
     showgrid="false"
     inkscape:zoom="0.2102413"
     inkscape:cx="45.186174"
     inkscape:cy="33.295075"
     inkscape:window-width="1309"
     inkscape:window-height="456"
     inkscape:window-x="0"
     inkscape:window-y="25"
     inkscape:window-maximized="0"
     inkscape:current-layer="layer1" />
  <defs
     id="defs41567">
    <clipPath
       clipPathUnits="userSpaceOnUse"
       id="clipPath11541">
      <path
         d="m 55.717,418.734 h 24.7 v 24.699 h -24.7 z"
         id="path11539" />
    </clipPath>
  </defs>
  <g
     inkscape:label="Layer 1"
     inkscape:groupmode="layer"
     id="layer1"
     transform="translate(-93.172172,-139.733)">
    <g
       id="g11535"
       transform="matrix(0.30003766,0,0,-0.30003766,76.081872,272.19396)"
       style="fill:#000000">
      <g
         id="g11537"
         clip-path="url(#clipPath11541)"
         style="fill:#000000">
        <g
           id="g11543"
           transform="translate(69.9852,423.318)"
           style="fill:#000000">
          <path
             d="m 0,0 c -0.086,-0.153 -0.142,-0.321 -0.254,-0.46 -0.056,-0.069 -0.144,-0.105 -0.209,-0.167 -0.075,-0.071 -0.139,-0.148 -0.228,-0.202 -0.094,-0.056 -0.303,-0.155 -0.417,-0.149 0,0.08 0.182,0.075 0.232,0.104 0.082,0.048 0.185,0.172 0.246,0.248 0.077,0.094 0.128,0.223 0.168,0.338 0.037,0.107 0.097,0.223 0.107,0.335 0.021,0.243 0.007,0.474 -0.086,0.696 -0.08,0.192 -0.077,0.363 -0.233,0.524 -0.064,0.068 -0.164,0.116 -0.144,0.224 0.005,0.043 -0.049,0.026 -0.107,0.082 -0.039,0.038 -0.034,0.094 -0.088,0.13 0.115,0.002 0.223,-0.082 0.342,-0.086 0.124,-0.006 0.26,-0.074 0.347,-0.166 C -0.22,1.34 -0.147,1.181 -0.095,1.039 -0.033,0.872 0.046,0.705 0.065,0.526 0.082,0.358 0.081,0.144 0,0 M -1.716,-0.418 C -1.797,-0.492 -1.849,-0.591 -1.929,-0.669 -2.022,-0.761 -2.118,-0.851 -2.208,-0.946 -2.315,-1.061 -2.437,-1.157 -2.536,-1.277 -2.589,-1.341 -2.652,-1.406 -2.706,-1.468 -2.74,-1.506 -2.851,-1.62 -2.907,-1.61 -2.962,-1.521 -3,-1.418 -3.031,-1.32 c -0.02,0.065 -0.029,0.138 -0.051,0.201 -0.021,0.056 -0.047,0.083 -0.077,0.136 -0.052,0.091 -0.072,0.15 0.034,0.199 0.104,0.049 0.188,0.119 0.293,0.177 0.079,0.043 0.134,0.101 0.206,0.157 0.104,0.082 0.229,0.122 0.319,0.222 0.093,0.105 0.206,0.207 0.272,0.331 0.134,0.253 0.281,0.514 0.041,0.749 -0.09,0.089 -0.233,0.266 -0.359,0.3 -0.086,0.023 -0.17,0.02 -0.26,0.056 -0.097,0.038 -0.178,0.09 -0.262,0.158 -0.078,0.064 -0.135,0.104 -0.178,0.199 -0.023,0.052 -0.045,0.041 -0.007,0.089 0.013,0.016 0.125,0.076 0.141,0.087 0.124,0.082 0.256,0.147 0.382,0.223 0.096,0.057 0.135,0.07 0.209,-0.012 0.085,-0.137 0.149,-0.27 0.273,-0.368 C -2.011,1.549 -1.96,1.522 -1.919,1.482 -1.821,1.387 -1.723,1.286 -1.626,1.189 -1.498,1.062 -1.37,0.917 -1.259,0.778 -1.174,0.673 -1.05,0.556 -0.982,0.441 -0.93,0.353 -0.958,0.344 -1.038,0.286 -1.128,0.22 -1.17,0.162 -1.238,0.074 -1.374,-0.103 -1.554,-0.267 -1.716,-0.418 m -1.325,4.635 c 0.032,0.084 0.139,0.104 0.212,0.086 0.073,-0.018 0.098,-0.045 0.186,-0.044 0.169,0.002 0.338,0 0.507,0 0.332,0 0.642,0.022 0.971,0.072 0.169,0.026 0.33,0.062 0.494,0.107 0.061,0.017 0.24,0.009 0.275,0.059 -0.013,-0.161 -0.003,-0.329 -0.003,-0.491 0,-0.097 0.043,-0.324 -0.039,-0.389 -0.108,-0.086 -0.27,-0.069 -0.386,-0.038 -0.181,0.047 -0.417,0.009 -0.603,0.009 -0.098,0 -0.197,0.002 -0.296,10e-4 C -1.84,3.587 -1.948,3.549 -2.065,3.544 -2.198,3.537 -2.329,3.557 -2.461,3.538 -2.598,3.518 -2.741,3.465 -2.879,3.46 c -0.059,-0.002 -0.1,-0.015 -0.123,0.041 -0.018,0.043 0.003,0.164 0.003,0.209 0,0.103 0.027,0.245 0.002,0.344 -0.015,0.058 -0.058,0.099 -0.044,0.163 m 0.134,1.209 c 0.011,0.003 0.022,0.005 0.034,-0.034 -0.014,0.083 0.052,0.169 0.072,0.248 0.036,0.141 0.085,0.239 0.178,0.351 0.069,0.082 0.165,0.121 0.258,0.176 0.084,0.051 0.162,0.122 0.248,0.168 0.201,0.108 0.353,0.105 0.577,0.105 0.16,0 0.358,0.032 0.514,0.002 0.148,-0.028 0.248,-0.066 0.329,-0.196 0.059,-0.094 0.134,-0.198 0.184,-0.3 0.02,-0.042 0.051,-0.101 0.063,-0.144 0.017,-0.063 0.004,-0.128 0.019,-0.191 0.011,-0.05 0.033,-0.091 0.032,-0.157 0,-0.054 -0.019,-0.15 0.024,-0.189 -0.053,-0.074 -0.422,-0.068 -0.508,-0.043 -0.071,0.02 -0.05,0.01 -0.062,0.085 -0.005,0.034 -0.008,0.094 -0.001,0.126 0.023,0.116 0.082,0.212 0.036,0.339 -0.061,0.166 -0.299,0.275 -0.454,0.291 -0.088,0.009 -0.16,0.049 -0.251,0.042 C -1.705,6.099 -1.828,6.062 -1.911,6.021 -2.043,5.955 -2.177,5.857 -2.234,5.718 -2.276,5.616 -2.267,5.537 -2.284,5.433 -2.3,5.343 -2.331,5.279 -2.328,5.182 -2.325,5.033 -2.359,5.055 -2.496,5.056 c -0.084,0 -0.168,0 -0.252,0 -0.117,0 -0.195,-0.042 -0.21,0.083 -0.013,0.107 0.034,0.186 0.051,0.287 m 0.166,9.019 c 0.17,0.009 0.306,0.216 0.445,0.302 0.038,0.024 0.12,0.088 0.192,0.13 -0.063,0.104 -0.179,0.183 -0.268,0.256 -0.109,0.089 -0.094,0.208 -0.122,0.327 -0.013,0.061 -0.037,0.074 -0.044,0.145 -0.007,0.07 -0.031,0.121 -0.042,0.189 0.023,-0.026 0.036,-0.041 0.045,-0.053 -0.013,0.049 -0.05,0.092 -0.066,0.136 -0.024,0.064 -0.021,0.116 -0.021,0.19 10e-4,0.136 -0.056,0.296 0.127,0.273 0.089,-0.011 0.188,-0.106 0.252,-0.168 0.052,-0.051 0.042,-0.082 0.041,-0.168 -10e-4,-0.08 10e-4,-0.137 0.031,-0.211 0.041,-0.1 0.083,-0.236 0.164,-0.312 0.13,-0.121 0.245,-0.248 0.383,-0.358 0.095,-0.077 0.236,-0.147 0.314,-0.241 0.105,-0.127 0.149,-0.293 0.193,-0.448 0.015,-0.054 0.037,-0.096 0.064,-0.134 v 0 c 0.079,0.095 0.153,0.191 0.231,0.286 0.034,0.042 0.074,0.105 0.13,0.117 l 0.083,0.126 c 0.075,-0.087 0.174,-0.157 0.274,-0.205 0.073,-0.034 0.114,-0.041 0.1,-0.137 C -0.25,14.394 -0.33,14.339 -0.387,14.276 -0.45,14.206 -0.51,14.12 -0.563,14.04 c 0.094,-0.064 -0.017,-0.181 -0.042,-0.285 -0.029,-0.116 0.016,-0.295 -0.128,-0.343 -0.109,-0.037 -0.231,0.073 -0.337,0.106 -0.114,0.036 -0.288,0.042 -0.381,0.125 -0.093,0.084 -0.087,0.273 -0.153,0.389 -0.031,0.055 -0.065,0.11 -0.106,0.159 -0.015,0.018 -0.048,0.024 -0.064,0.047 -0.029,0.041 -0.028,0.101 -0.05,0.147 -0.002,0.005 -0.005,0.01 -0.008,0.015 -0.008,-0.031 -0.028,-0.055 -0.076,-0.075 -0.038,-0.017 -0.06,-10e-4 -0.096,-0.029 -0.031,-0.024 -0.042,-0.067 -0.068,-0.095 -0.096,-0.104 -0.241,-0.145 -0.333,-0.255 -0.049,-0.059 -0.081,-0.122 -0.146,-0.043 -0.066,0.082 -0.063,0.238 -0.113,0.333 -0.037,0.07 -0.121,0.118 -0.077,0.209 m 1.839,1.936 v 0.042 c 0.002,0.012 0.005,0.023 0.007,0.035 0.156,0.046 0.391,0.028 0.413,-0.159 0.022,-0.186 0.029,-0.438 -0.066,-0.592 -0.076,-0.126 -0.141,-0.122 -0.27,-0.123 -0.077,0 -0.19,0.023 -0.245,0.082 -0.053,0.056 -0.049,0.181 -0.049,0.254 0.001,0.037 -0.007,0.084 -0.004,0.12 0.015,0.142 0.099,0.253 0.214,0.341 m 0.505,-5.829 C -0.413,10.453 -0.469,10.37 -0.515,10.289 -0.575,10.185 -0.629,10.072 -0.683,9.963 -0.71,9.909 -0.718,9.845 -0.754,9.795 -0.772,9.769 -0.797,9.755 -0.813,9.729 -0.83,9.701 -0.818,9.647 -0.859,9.632 -0.863,9.631 -0.867,9.631 -0.87,9.631 -0.865,9.617 -0.859,9.604 -0.85,9.592 -0.834,9.571 -0.798,9.561 -0.785,9.538 -0.759,9.492 -0.776,9.425 -0.776,9.374 -0.778,9.192 -0.754,9.002 -0.808,8.831 -0.841,8.726 -0.882,8.663 -0.942,8.572 -0.997,8.49 -1.019,8.422 -1.104,8.364 -1.149,8.334 -1.174,8.325 -1.213,8.291 -1.284,8.23 -1.327,8.14 -1.397,8.08 -1.465,8.023 -1.463,8.055 -1.531,8.025 -1.578,8.005 -1.653,7.954 -1.704,7.951 -1.742,7.948 -1.795,8 -1.823,7.993 -1.852,7.987 -1.881,7.989 -1.909,7.999 c -0.028,0.024 -0.056,0.047 -0.084,0.07 -0.094,0.04 -0.253,0.008 -0.356,0.007 -0.103,-0.001 -0.249,0.002 -0.276,0.125 -0.02,0.09 -0.009,0.16 -0.079,0.237 0.278,-0.149 0.62,-0.068 0.893,0.052 0.324,0.143 0.466,0.606 0.325,0.927 -0.031,0.069 -0.08,0.128 -0.11,0.199 -0.015,0.037 -0.022,0.087 -0.032,0.134 -0.046,-0.003 -0.09,-0.003 -0.134,0.002 -0.156,0.018 -0.319,0.103 -0.461,0.17 -0.169,0.079 -0.348,-0.001 -0.52,0.05 0.042,0.087 0.025,0.182 0.079,0.264 0.028,0.044 0.067,0.068 0.081,0.125 0.016,0.067 0.008,0.139 0.024,0.209 0.026,0.109 0.01,0.215 0.03,0.325 0.022,0.126 0.067,0.252 0.107,0.374 0.041,0.122 0.097,0.244 0.094,0.372 0.207,0 0.326,0.021 0.4,-0.019 0.102,-0.055 0.058,-0.12 0.024,-0.211 -0.031,-0.087 -0.045,-0.178 -0.077,-0.264 -0.017,-0.046 -0.046,-0.084 -0.056,-0.133 -0.011,-0.056 0.013,-0.114 -0.006,-0.172 -0.032,-0.099 -0.115,-0.133 -0.034,-0.208 0.056,-0.053 0.131,-0.036 0.201,-0.051 0.026,-0.005 0.055,-0.029 0.092,-0.033 0.042,-0.006 0.076,0.003 0.118,-0.009 0.031,-0.009 0.051,-0.028 0.092,-0.033 0.04,-0.005 0.086,0.001 0.127,0.001 0.183,0 0.31,-0.038 0.367,0.166 0.031,0.113 0.062,0.233 0.085,0.349 0.021,0.108 -0.008,0.219 0.018,0.325 0.015,0.057 0.047,0.204 0.115,0.214 0.062,0.008 0.198,-0.077 0.253,-0.101 0.174,-0.076 0.363,-0.088 0.542,-0.121 0.013,-0.057 -0.049,-0.08 -0.079,-0.116 -0.055,-0.067 -0.093,-0.138 -0.129,-0.216 -0.038,-0.083 -0.093,-0.16 -0.114,-0.249 -0.017,-0.07 0.003,-0.138 -0.008,-0.208 m 1.5,5.875 c 0.033,0.231 0.135,0.466 0.137,0.698 0.002,0.114 -0.053,0.211 -0.094,0.32 -0.025,0.067 -0.021,0.134 -0.098,0.186 -0.077,0.052 -0.213,0.072 -0.313,0.101 -0.209,0.06 -0.416,0.098 -0.642,0.122 -0.207,0.023 -0.425,0.059 -0.634,0.069 -0.335,0.017 -0.649,0.066 -0.988,0.061 -0.071,-0.001 -0.141,-0.005 -0.212,0 -0.097,0.006 -0.181,0.027 -0.271,0.051 -0.26,0.069 -0.51,0.107 -0.789,0.113 -0.168,0.004 -0.336,0.011 -0.504,0.015 -0.127,0.002 -0.198,-0.026 -0.306,-0.061 -0.139,-0.044 -0.279,-0.029 -0.42,-0.064 -0.215,-0.054 -0.303,-0.146 -0.257,-0.293 0.042,-0.137 0.106,-0.259 0.132,-0.393 0.007,-0.034 0.011,-0.068 0.012,-0.104 0.006,-0.261 -0.078,-0.498 -0.138,-0.754 -0.049,-0.214 -0.013,-0.402 0.04,-0.614 0.073,-0.291 0.038,-0.59 0.029,-0.882 -0.011,-0.34 -0.024,-0.679 -0.033,-1.019 -0.003,-0.095 -0.005,-0.19 -0.007,-0.285 -0.004,-0.232 0.085,-0.469 0.048,-0.697 C -4.223,12.884 -4.271,12.774 -4.279,12.66 -4.299,12.381 -4.291,12.1 -4.298,11.821 -4.318,11.078 -4.332,10.335 -4.359,9.593 -4.381,9.006 -4.237,8.437 -4.162,7.855 -4.15,7.67 -4.152,7.484 -4.168,7.299 -4.17,7.123 -4.158,6.946 -4.132,6.77 -4.116,6.499 -4.105,6.228 -4.089,5.957 -4.051,5.304 -4.099,4.645 -4.177,3.996 -4.227,3.577 -4.214,3.153 -4.225,2.732 -4.236,2.32 -4.189,1.884 -4.272,1.478 -4.312,1.287 -4.34,1.125 -4.306,0.93 -4.274,0.752 -4.282,0.578 -4.288,0.399 -4.292,0.253 -4.313,0.103 -4.303,-0.043 c 0.009,-0.123 0.064,-0.228 0.059,-0.353 -0.011,-0.253 -0.051,-0.521 -0.025,-0.773 0.015,-0.156 0.109,-0.305 0.117,-0.462 0.005,-0.081 0.021,-0.122 0.044,-0.198 0.026,-0.084 -0.019,-0.17 0.005,-0.252 0.014,-0.049 0.049,-0.068 0.079,-0.111 0.052,-0.074 0.068,-0.147 0.105,-0.225 0.071,-0.15 0.116,-0.519 0.399,-0.575 0.225,-0.045 0.556,0.094 0.778,0.116 0.445,0.046 0.9,0.049 1.348,0.074 0.456,0.025 0.911,0.055 1.368,0.074 C 0.16,-2.72 0.355,-2.735 0.543,-2.74 0.635,-2.742 1.009,-2.788 1.072,-2.749 1.15,-2.701 1.051,-2.417 1.045,-2.384 1.005,-2.16 0.951,-1.934 0.932,-1.708 0.907,-1.415 0.991,-1.107 0.93,-0.817 0.916,-0.752 0.888,-0.694 0.885,-0.627 0.876,-0.41 0.897,-0.19 0.903,0.028 0.914,0.465 0.926,0.902 0.938,1.339 0.965,2.321 1.049,3.298 1.082,4.28 1.095,4.654 1.051,5.037 1.043,5.413 1.036,5.768 0.932,6.112 0.947,6.469 0.959,6.764 0.944,7.049 0.914,7.344 c -0.029,0.283 0.01,0.577 0.018,0.861 0.036,1.365 0.073,2.729 0.109,4.093 0.01,0.373 -0.039,0.76 -0.097,1.133 -0.109,0.695 -0.018,1.391 0.057,2.083 0.033,0.304 0.058,0.61 0.102,0.913"
             style="fill:#000000;fill-opacity:1;fill-rule:nonzero;stroke:none"
             id="path11545" />
        </g>
        <g
           id="g11547"
           transform="translate(75.093,434.969)"
           style="fill:#000000">
          <path
             d="m 0,0 c 0.043,-0.018 0.086,-0.038 0.128,-0.06 0.157,-0.081 0.349,-0.09 0.501,-0.177 0.086,-0.06 0.17,-0.122 0.252,-0.186 0.078,-0.041 0.156,-0.082 0.234,-0.121 0.12,-0.076 0.225,-0.218 0.294,-0.34 0.123,-0.216 0.147,-0.445 0.173,-0.69 0.027,-0.25 0.042,-0.486 0.042,-0.739 0,-0.237 0.017,-0.482 0.002,-0.719 C 1.614,-3.224 1.545,-3.418 1.509,-3.606 1.486,-3.723 1.462,-3.802 1.413,-3.912 1.362,-4.023 1.371,-4.183 1.283,-4.275 1.18,-4.384 1.053,-4.32 0.952,-4.458 0.8,-4.667 0.769,-4.948 0.718,-5.194 0.668,-5.433 0.367,-5.66 0.197,-5.826 -0.14,-6.156 -0.474,-6.488 -0.771,-6.844 -1.025,-7.148 -1.283,-7.42 -1.451,-7.768 -1.558,-7.989 -1.664,-8.21 -1.757,-8.434 c -0.109,-0.262 -0.13,-0.51 -0.129,-0.785 10e-4,-0.123 -0.017,-0.255 0.003,-0.377 0.053,-0.34 0.224,-0.539 0.507,-0.727 0.224,-0.148 0.32,-0.393 0.536,-0.55 0.23,-0.168 0.521,-0.256 0.815,-0.288 0.146,-0.015 0.245,0.004 0.387,0.023 0.179,0.022 0.381,-0.031 0.554,0.012 0.093,0.024 0.181,0.086 0.267,0.126 0.14,0.063 0.245,0.124 0.326,0.246 0.124,0.186 0.299,0.465 0.328,0.685 0.022,0.165 -0.004,0.348 -0.003,0.515 0,0.121 -0.032,0.218 -0.042,0.33 C 1.781,-9.104 1.765,-9.03 1.709,-8.917 1.64,-8.781 1.63,-8.625 1.546,-8.496 1.542,-8.526 1.545,-8.56 1.534,-8.59 1.406,-8.618 1.262,-8.592 1.13,-8.614 1,-8.637 0.694,-8.606 0.655,-8.744 0.624,-8.857 0.697,-9.063 0.742,-9.158 c 0.081,-0.171 0.164,-0.34 0.17,-0.529 0.004,-0.125 0.023,-0.234 -0.071,-0.333 -0.074,-0.077 -0.138,-0.177 -0.224,-0.244 -0.12,-0.095 -0.412,-0.084 -0.548,-0.028 -0.077,0.031 -0.094,0.084 -0.142,0.14 -0.067,0.081 -0.167,0.136 -0.239,0.214 -0.139,0.153 -0.169,0.345 -0.222,0.527 -0.08,0.274 -0.158,0.552 -0.091,0.835 0.031,0.133 0.07,0.272 0.138,0.396 0.079,0.144 0.221,0.265 0.335,0.389 0.197,0.213 0.388,0.409 0.645,0.571 0.214,0.134 0.387,0.28 0.547,0.462 0.147,0.167 0.275,0.344 0.401,0.522 0.132,0.188 0.301,0.354 0.44,0.538 0.291,0.385 0.484,0.772 0.623,1.213 0.169,0.534 0.36,1.061 0.461,1.608 0.041,0.223 0.044,0.442 0.043,0.667 C 3.006,-1.973 3.032,-1.728 3,-1.492 2.948,-1.106 2.781,-0.679 2.577,-0.332 2.377,0.007 2.104,0.3 1.793,0.54 1.638,0.66 1.478,0.793 1.299,0.878 1.202,0.924 1.102,0.939 0.999,0.963 0.848,0.997 0.711,1.062 0.571,1.128 0.396,1.211 0.223,1.208 0.037,1.248 -0.191,1.298 -0.416,1.267 -0.643,1.311 -1.006,1.38 -1.377,1.479 -1.646,1.749 -1.715,1.818 -1.781,1.88 -1.833,1.962 -1.876,2.028 -1.951,2.107 -1.977,2.179 -2.021,2.3 -1.981,2.488 -1.984,2.617 c -0.002,0.14 0.07,0.262 0.136,0.384 0.063,0.119 0.157,0.192 0.274,0.25 0.126,0.062 0.206,0.096 0.348,0.094 0.109,-0.001 0.226,0.014 0.334,10e-4 0.198,-0.024 0.09,-0.236 0.197,-0.349 0.064,-0.067 0.163,-0.045 0.182,0.032 0.017,0.07 0.012,0.226 -0.001,0.297 -0.028,0.162 -0.195,0.35 -0.319,0.461 -0.104,0.094 -0.275,0.148 -0.404,0.2 C -1.406,4.054 -1.565,3.992 -1.735,3.97 -2.087,3.923 -2.366,3.677 -2.582,3.409 -2.699,3.264 -2.8,3.108 -2.867,2.934 -2.932,2.765 -2.923,2.594 -2.957,2.42 -2.986,2.274 -2.993,2.143 -2.991,1.992 -2.988,1.807 -2.904,1.713 -2.831,1.552 -2.766,1.408 -2.686,1.303 -2.571,1.19 -2.515,1.135 -2.463,1.072 -2.404,1.02 -2.34,0.964 -2.263,0.941 -2.194,0.894 -2.055,0.797 -1.931,0.671 -1.775,0.596 -1.61,0.517 -1.436,0.465 -1.269,0.388 -0.864,0.202 -0.407,0.171 0,0"
             style="fill:#000000;fill-opacity:1;fill-rule:nonzero;stroke:none"
             id="path11549" />
        </g>
        <g
           id="g11551"
           transform="translate(61.6895,422.821)"
           style="fill:#000000">
          <path
             d="m 0,0 c 0.061,-0.035 0.125,-0.064 0.193,-0.084 0.141,-0.042 0.341,0.01 0.483,0.02 C 0.894,-0.05 1.14,0.043 1.33,0.148 1.388,0.18 1.429,0.221 1.476,0.266 1.647,0.427 1.85,0.548 2.01,0.724 2.208,0.94 2.354,1.172 2.51,1.411 2.633,1.6 2.735,1.767 2.823,1.968 c 0.05,0.114 0.097,0.19 0.12,0.311 0.032,0.164 0.07,0.325 0.108,0.489 0.092,0.4 0.172,0.87 0.053,1.256 C 2.992,4.388 2.868,4.75 2.606,5.043 2.53,5.127 2.441,5.231 2.337,5.291 2.255,5.339 2.161,5.353 2.082,5.406 2.012,5.453 1.961,5.49 1.882,5.52 1.75,5.57 1.63,5.608 1.49,5.638 1.32,5.675 1.165,5.745 0.995,5.782 0.839,5.816 0.71,5.869 0.583,5.953 0.439,6.048 0.339,6.169 0.178,6.246 -0.105,6.383 -0.227,6.576 -0.308,6.85 -0.395,7.146 -0.414,7.431 -0.433,7.74 -0.447,7.971 -0.241,8.191 -0.11,8.392 -0.04,8.499 0.026,8.599 0.107,8.699 0.133,8.731 0.205,8.808 0.195,8.852 0.183,8.906 0.072,8.934 0.026,8.961 -0.042,9.001 -0.106,9.042 -0.176,9.08 -0.235,9.112 -0.243,9.133 -0.313,9.104 -0.369,9.081 -0.464,8.996 -0.521,8.958 -0.677,8.856 -0.779,8.793 -0.888,8.653 -0.966,8.552 -1.063,8.471 -1.151,8.377 -1.25,8.271 -1.306,8.134 -1.369,8.013 -1.415,7.925 -1.465,7.844 -1.485,7.749 -1.503,7.66 -1.518,7.575 -1.509,7.487 -1.499,7.379 -1.555,7.278 -1.546,7.173 -1.539,7.077 -1.48,6.968 -1.453,6.875 -1.419,6.757 -1.379,6.66 -1.324,6.551 -1.275,6.453 -1.235,6.355 -1.174,6.262 -1.095,6.14 -0.982,6.069 -0.864,5.977 -0.583,5.757 -0.225,5.627 0.067,5.42 0.356,5.216 0.646,5.018 0.891,4.761 0.953,4.695 1.015,4.631 1.087,4.575 1.207,4.482 1.34,4.406 1.466,4.32 1.594,4.232 1.65,4.118 1.727,3.987 1.801,3.861 1.871,3.731 1.953,3.611 2.031,3.499 2.075,3.405 2.115,3.275 2.166,3.108 2.163,3.008 2.111,2.846 2.059,2.68 2.013,2.53 1.932,2.375 1.834,2.188 1.82,1.991 1.679,1.822 1.512,1.622 1.328,1.501 1.098,1.396 0.937,1.323 0.747,1.288 0.577,1.238 0.446,1.198 0.308,1.168 0.183,1.112 0.11,1.081 0.047,1.036 -0.034,1.035 -0.253,1.031 -0.463,1.198 -0.523,1.402 -0.584,1.611 -0.607,1.808 -0.566,2.025 -0.531,2.216 -0.48,2.345 -0.384,2.509 -0.502,2.406 -0.604,2.321 -0.706,2.2 -0.823,2.06 -0.956,1.993 -0.957,1.788 -0.958,1.581 -0.865,1.373 -0.806,1.175 -0.785,1.107 -0.773,1.02 -0.737,0.959 -0.722,0.931 -0.692,0.92 -0.675,0.888 -0.659,0.859 -0.655,0.818 -0.646,0.785 -0.623,0.707 -0.607,0.617 -0.565,0.547 -0.545,0.514 -0.518,0.495 -0.502,0.456 -0.489,0.425 -0.492,0.383 -0.475,0.352 -0.397,0.213 -0.251,0.175 -0.131,0.086 -0.089,0.055 -0.046,0.026 0,0"
             style="fill:#000000;fill-opacity:1;fill-rule:nonzero;stroke:none"
             id="path11553" />
        </g>
        <g
           id="g11555"
           transform="translate(61.209,436.668)"
           style="fill:#000000">
          <path
             d="M 0,0 C 0.009,-0.04 0.023,-0.081 0.032,-0.115 0.076,-0.299 0.071,-0.528 0.145,-0.703 0.225,-0.891 0.368,-1 0.555,-1.079 0.674,-1.13 0.763,-1.202 0.893,-1.228 1.021,-1.254 1.157,-1.256 1.287,-1.25 c 0.265,0.011 0.606,0.174 0.727,0.422 0.043,0.089 0.06,0.293 0.01,0.379 -0.052,0.09 -0.201,0.083 -0.235,0.163 -0.01,0.022 0.006,0.077 0,0.105 C 1.783,-0.154 1.755,-0.146 1.748,-0.117 1.731,-0.044 1.763,0.016 1.724,0.089 1.806,0.121 1.889,0.075 1.967,0.053 2.063,0.026 2.16,0.019 2.252,-0.019 2.44,-0.097 2.576,-0.173 2.704,-0.336 2.89,-0.573 2.794,-0.962 2.594,-1.183 2.313,-1.496 1.893,-1.578 1.507,-1.668 c -0.5,-0.116 -1.093,-0.023 -1.57,0.155 -0.238,0.089 -0.507,0.209 -0.655,0.43 -0.102,0.151 -0.15,0.384 -0.186,0.561 -0.04,0.2 -0.074,0.367 -0.073,0.573 0.001,0.13 -0.021,0.259 -0.019,0.389 0,0.053 -0.006,0.142 0.026,0.188 0.015,0.022 0.039,0.01 0.054,0.024 0.042,0.043 0.081,0.093 0.104,0.155 0.094,0.253 0.114,0.529 0.215,0.78 0.075,0.187 0.192,0.357 0.286,0.535 0.08,0.151 0.169,0.252 0.314,0.345 C 0.209,2.601 0.367,2.775 0.585,2.889 0.77,2.987 0.97,3.156 1.174,3.192 1.373,3.228 1.611,3.204 1.815,3.211 2.004,3.216 2.14,3.165 2.323,3.127 2.498,3.089 2.64,3.103 2.797,3.013 2.872,2.97 2.959,2.95 3.033,2.911 3.106,2.872 3.125,2.812 3.164,2.738 3.184,2.701 3.221,2.659 3.237,2.623 3.284,2.513 3.34,2.399 3.391,2.284 3.451,2.149 3.526,2.005 3.567,1.864 3.593,1.774 3.618,1.57 3.59,1.483 3.553,1.508 3.554,1.57 3.527,1.607 3.477,1.675 3.403,1.729 3.352,1.8 3.246,1.946 3.117,2.023 2.96,2.109 2.801,2.197 2.632,2.319 2.456,2.362 2.322,2.395 2.233,2.501 2.088,2.503 1.893,2.506 1.672,2.49 1.488,2.436 1.055,2.311 0.619,1.97 0.394,1.58 0.239,1.312 0.09,1.022 0.06,0.709 0.046,0.569 0.078,0.47 0.11,0.34 0.117,0.311 0.137,0.226 0.118,0.2 0.096,0.172 0.078,0.202 0.055,0.185 0.02,0.159 0.009,0.16 -0.004,0.111 -0.013,0.077 -0.009,0.039 0,0"
             style="fill:#000000;fill-opacity:1;fill-rule:nonzero;stroke:none"
             id="path11557" />
        </g>
        <g
           id="g11559"
           transform="translate(62.132,432.483)"
           style="fill:#000000">
          <path
             d="m 0,0 c -0.148,0.017 -0.282,0.029 -0.425,0.084 -0.149,0.058 -0.3,0.117 -0.457,0.147 -0.072,0.013 -0.154,0.004 -0.223,0.019 -0.072,0.016 -0.14,0.081 -0.2,0.119 -0.123,0.077 -0.249,0.149 -0.388,0.193 -0.16,0.05 -0.306,0.15 -0.46,0.219 -0.134,0.06 -0.227,0.083 -0.366,0.111 -0.202,0.041 -0.405,0.032 -0.614,0.032 -0.148,0 -0.296,0.003 -0.444,0.002 C -3.738,0.924 -3.868,0.87 -4.007,0.79 -4.257,0.644 -4.419,0.462 -4.61,0.246 -4.766,0.068 -4.852,-0.169 -4.962,-0.377 -5.053,-0.549 -5.086,-0.733 -5.13,-0.924 c -0.049,-0.217 -0.041,-0.43 -0.041,-0.651 0,-0.161 -0.006,-0.277 0.103,-0.412 0.07,-0.088 0.162,-0.154 0.233,-0.242 0.08,-0.1 0.142,-0.214 0.222,-0.313 0.044,-0.055 0.095,-0.108 0.156,-0.144 0.041,-0.025 0.094,-0.035 0.13,-0.063 -0.102,0.072 -0.197,0.233 -0.248,0.348 -0.075,0.167 -0.085,0.361 -0.092,0.542 -0.005,0.175 -0.036,0.368 0.022,0.537 0.042,0.124 0.119,0.228 0.148,0.358 0.044,0.189 0.064,0.366 0.19,0.525 0.197,0.249 0.461,0.487 0.775,0.585 0.166,0.052 0.373,0.036 0.541,-0.008 0.083,-0.021 0.174,-0.032 0.255,-0.06 0.12,-0.042 0.208,-0.148 0.325,-0.205 0.167,-0.08 0.341,-0.181 0.492,-0.289 0.077,-0.055 0.134,-0.141 0.2,-0.207 0.088,-0.088 0.195,-0.109 0.279,-0.187 0.191,-0.175 0.504,-0.23 0.755,-0.197 0.091,0.013 0.169,0.06 0.259,0.076 0.132,0.026 0.278,0.009 0.413,0.009 0.116,0 0.232,0.004 0.347,0.001 0.121,-0.002 0.238,-0.041 0.358,-0.042 0.103,-0.002 0.203,0.023 0.303,0.039 0.104,0.017 0.239,0.074 0.336,0.117 0.118,0.052 0.26,0.092 0.357,0.179 0.092,0.081 0.171,0.177 0.279,0.252 0.114,0.08 0.299,0.154 0.372,0.274 0.063,0.103 0.04,0.247 0.04,0.362 0,0.09 0.009,0.184 0.002,0.274 C 2.375,0.614 2.34,0.689 2.335,0.769 2.325,0.918 2.342,1.079 2.234,1.198 2.117,1.327 2.049,1.441 1.887,1.512 1.815,1.544 1.776,1.551 1.698,1.553 1.622,1.555 1.553,1.586 1.482,1.588 1.427,1.589 1.343,1.558 1.287,1.543 1.226,1.526 1.169,1.521 1.107,1.507 1.083,1.501 0.93,1.438 0.917,1.419 0.849,1.316 1.07,1.344 1.118,1.334 1.227,1.311 1.355,1.279 1.456,1.23 1.545,1.188 1.643,1.111 1.708,1.05 1.75,1.01 1.824,0.944 1.856,0.884 1.907,0.789 1.834,0.652 1.772,0.571 1.729,0.514 1.666,0.476 1.622,0.421 1.59,0.381 1.576,0.333 1.543,0.294 1.382,0.101 1.113,0.171 0.905,0.087 0.833,0.058 0.782,0.003 0.715,-0.034 0.502,-0.153 0.255,-0.03 0.034,-0.004 0.022,-0.003 0.011,-0.001 0,0"
             style="fill:#000000;fill-opacity:1;fill-rule:nonzero;stroke:none"
             id="path11561" />
        </g>
        <g
           id="g11563"
           transform="translate(74.6617,427.787)"
           style="fill:#000000">
          <path
             d="M 0,0 C -0.008,-0.001 -0.017,-0.003 -0.025,-0.004 0.02,0.045 0.031,0.114 0.051,0.176 0.084,0.278 0.126,0.367 0.17,0.464 0.23,0.597 0.243,0.743 0.293,0.879 0.344,1.018 0.402,1.165 0.472,1.3 0.537,1.426 0.604,1.553 0.664,1.68 0.766,1.895 0.845,2.138 0.953,2.351 0.976,2.396 0.997,2.402 1.008,2.452 1.018,2.496 1.007,2.556 1.007,2.601 1.006,2.758 1.016,2.909 0.976,3.063 0.934,3.224 0.895,3.4 0.84,3.556 0.804,3.658 0.725,3.775 0.664,3.868 0.612,3.947 0.543,4.007 0.463,4.058 0.419,4.068 0.38,4.088 0.346,4.118 0.315,4.162 0.28,4.203 0.241,4.241 0.092,4.344 -0.127,4.406 -0.303,4.404 -0.411,4.402 -0.522,4.416 -0.629,4.396 -0.715,4.379 -0.797,4.344 -0.883,4.328 -0.982,4.311 -1.055,4.326 -1.15,4.283 -1.27,4.228 -1.378,4.159 -1.501,4.11 -1.725,4.021 -2.351,3.693 -2.087,3.364 -2.043,3.309 -2.001,3.266 -1.961,3.207 -1.929,3.161 -1.882,3.092 -1.817,3.103 -1.937,3.107 -2.02,3.054 -2.139,3.061 c -0.128,0.007 -0.279,0.068 -0.389,0.135 -0.168,0.102 -0.21,0.313 -0.273,0.486 -0.059,0.165 -0.102,0.397 -0.004,0.555 0.157,0.252 0.453,0.434 0.705,0.575 0.309,0.174 0.628,0.343 0.978,0.423 0.298,0.067 0.596,0.048 0.899,0.051 C 0.029,5.289 0.334,5.27 0.563,5.154 0.673,5.099 0.783,5.044 0.861,4.946 0.907,4.889 0.934,4.816 0.987,4.764 1.097,4.659 1.208,4.622 1.286,4.485 1.43,4.233 1.573,3.98 1.662,3.707 1.764,3.393 1.805,3.09 1.804,2.759 1.803,2.56 1.822,2.355 1.802,2.158 1.785,1.997 1.713,1.832 1.668,1.676 1.634,1.553 1.557,1.437 1.5,1.324 1.431,1.188 1.404,1.035 1.302,0.923 1.112,0.713 0.938,0.478 0.712,0.302 0.583,0.202 0.473,0.088 0.347,-0.01 0.227,-0.104 0.069,-0.158 -0.079,-0.193 c -0.002,0.008 -0.003,0.017 -0.005,0.025"
             style="fill:#000000;fill-opacity:1;fill-rule:nonzero;stroke:none"
             id="path11565" />
        </g>
      </g>
    </g>
  </g>
</svg>
