<?xml version="1.0" encoding="UTF-8" standalone="no"?>
<!-- Created with Inkscape (http://www.inkscape.org/) -->

<svg
   width="23.3624"
   height="24"
   viewBox="0 0 6.1813017 6.35"
   version="1.1"
   id="svg40218"
   inkscape:version="1.2.1 (9c6d41e4, 2022-07-14)"
   sodipodi:docname="evil-portents.svg"
   xmlns:inkscape="http://www.inkscape.org/namespaces/inkscape"
   xmlns:sodipodi="http://sodipodi.sourceforge.net/DTD/sodipodi-0.dtd"
   xmlns="http://www.w3.org/2000/svg"
   xmlns:svg="http://www.w3.org/2000/svg">
  <sodipodi:namedview
     id="namedview40220"
     pagecolor="#505050"
     bordercolor="#eeeeee"
     borderopacity="1"
     inkscape:showpageshadow="0"
     inkscape:pageopacity="0"
     inkscape:pagecheckerboard="0"
     inkscape:deskcolor="#505050"
     inkscape:document-units="mm"
     showgrid="false"
     inkscape:zoom="0.2102413"
     inkscape:cx="35.673295"
     inkscape:cy="52.320833"
     inkscape:window-width="1309"
     inkscape:window-height="456"
     inkscape:window-x="0"
     inkscape:window-y="25"
     inkscape:window-maximized="0"
     inkscape:current-layer="layer1" />
  <defs
     id="defs40215">
    <clipPath
       clipPathUnits="userSpaceOnUse"
       id="clipPath1751">
      <path
         d="m 318.862,287.799 h 24.699 v 24.699 h -24.699 z"
         id="path1749" />
    </clipPath>
  </defs>
  <g
     inkscape:label="Layer 1"
     inkscape:groupmode="layer"
     id="layer1"
     transform="translate(-95.711396,-134.62291)">
    <g
       id="g1745"
       transform="matrix(0.29403593,0,0,-0.29403593,1.4872885,226.15306)">
      <g
         id="g1747"
         clip-path="url(#clipPath1751)">
        <g
           id="g1753"
           transform="translate(329.124,311.289)">
          <path
             d="M 0,0 C 0.165,-0.036 0.361,-0.067 0.527,-0.121 0.622,-0.152 0.701,-0.204 0.784,-0.257 0.951,-0.364 1.098,-0.472 1.282,-0.549 1.372,-0.586 1.458,-0.624 1.541,-0.675 1.627,-0.727 1.7,-0.797 1.779,-0.857 1.866,-0.924 1.961,-0.975 2.051,-1.036 2.206,-1.143 2.333,-1.292 2.455,-1.433 2.603,-1.604 2.752,-1.774 2.901,-1.945 2.986,-2.042 3.066,-2.144 3.145,-2.246 3.168,-2.275 3.182,-2.294 3.213,-2.312 3.256,-2.336 3.27,-2.354 3.292,-2.4 3.34,-2.504 3.39,-2.608 3.44,-2.711 3.492,-2.82 3.534,-2.927 3.56,-3.046 3.589,-3.182 3.605,-3.321 3.64,-3.456 3.69,-3.65 3.764,-3.831 3.842,-4.015 3.873,-4.088 3.906,-4.161 3.936,-4.234 3.97,-4.315 4.025,-4.426 4.035,-4.518 4.049,-4.646 4.01,-4.771 4.019,-4.898 4.029,-5.05 4.037,-5.197 4.036,-5.35 4.035,-5.613 4.074,-5.873 4.073,-6.135 4.073,-6.229 4.071,-6.32 4.086,-6.413 4.097,-6.48 4.11,-6.537 4.11,-6.605 4.109,-6.702 4.109,-6.799 4.11,-6.896 4.11,-6.95 4.113,-7.004 4.108,-7.057 4.104,-7.096 4.092,-7.135 4.091,-7.175 4.087,-7.265 4.078,-7.354 4.073,-7.445 4.07,-7.511 4.039,-7.572 4.026,-7.636 4.011,-7.704 4.005,-7.758 3.971,-7.82 3.915,-7.92 3.896,-8.039 3.871,-8.15 3.833,-8.315 3.792,-8.468 3.716,-8.62 3.659,-8.733 3.594,-8.843 3.535,-8.955 3.474,-9.069 3.426,-9.189 3.369,-9.305 3.313,-9.418 3.246,-9.522 3.18,-9.629 3.039,-9.855 2.926,-10.089 2.808,-10.328 2.7,-10.544 2.537,-10.711 2.373,-10.885 2.291,-10.973 2.215,-11.067 2.13,-11.153 1.997,-11.287 1.85,-11.391 1.693,-11.494 1.489,-11.63 1.288,-11.774 1.08,-11.905 c -0.208,-0.13 -0.442,-0.224 -0.672,-0.31 -0.237,-0.089 -0.485,-0.14 -0.733,-0.192 -0.296,-0.061 -0.596,-0.123 -0.895,-0.169 -0.522,-0.082 -1.05,-0.051 -1.576,-0.03 -0.246,0.01 -0.49,0.037 -0.73,0.087 -0.109,0.023 -0.218,0.044 -0.328,0.066 -0.152,0.031 -0.298,0.079 -0.45,0.112 -0.48,0.104 -0.953,0.228 -1.414,0.398 -0.09,0.033 -0.187,0.06 -0.273,0.102 -0.112,0.055 -0.216,0.125 -0.319,0.197 -0.23,0.161 -0.449,0.328 -0.635,0.54 -0.164,0.188 -0.309,0.398 -0.503,0.557 -0.119,0.097 -0.236,0.186 -0.328,0.313 -0.087,0.121 -0.156,0.254 -0.235,0.38 -0.1,0.162 -0.163,0.345 -0.27,0.503 -0.078,0.116 -0.156,0.206 -0.199,0.343 -0.043,0.139 -0.104,0.27 -0.127,0.415 -0.017,0.103 -0.042,0.207 -0.045,0.311 -0.001,0.03 0.006,0.052 -0.021,0.072 0.01,-0.147 0.127,-0.307 0.232,-0.408 0.09,-0.088 0.179,-0.177 0.26,-0.274 0.1,-0.119 0.159,-0.258 0.265,-0.373 0.114,-0.124 0.216,-0.259 0.327,-0.385 0.129,-0.145 0.293,-0.254 0.448,-0.37 0.205,-0.153 0.406,-0.314 0.61,-0.468 0.064,-0.048 0.125,-0.083 0.198,-0.115 0.095,-0.042 0.178,-0.106 0.274,-0.147 0.07,-0.031 0.139,-0.051 0.212,-0.073 0.085,-0.027 0.152,-0.076 0.232,-0.111 0.063,-0.028 0.131,-0.042 0.195,-0.067 0.087,-0.034 0.167,-0.081 0.251,-0.12 0.165,-0.077 0.338,-0.111 0.511,-0.163 0.048,-0.015 0.093,-0.029 0.144,-0.036 0.145,-0.022 0.292,-0.044 0.437,-0.062 0.242,-0.029 0.488,-0.005 0.729,-0.044 0.141,-0.023 0.273,-0.042 0.417,-0.043 0.118,-0.001 0.235,0.002 0.353,10e-4 0.126,-10e-4 0.251,-0.003 0.377,0.02 0.069,0.013 0.136,0.029 0.206,0.037 0.117,0.014 0.222,0.018 0.336,0.053 0.152,0.047 0.3,0.104 0.453,0.149 0.2,0.059 0.372,0.157 0.554,0.253 0.116,0.061 0.225,0.126 0.314,0.223 0.071,0.077 0.132,0.155 0.21,0.225 0.19,0.173 0.375,0.347 0.555,0.529 0.254,0.256 0.556,0.48 0.77,0.771 0.267,0.364 0.404,0.806 0.613,1.202 0.088,0.166 0.178,0.334 0.252,0.506 0.079,0.185 0.098,0.396 0.117,0.596 0.009,0.091 0.001,0.181 0.003,0.272 0.002,0.1 0.029,0.195 0.038,0.294 0.022,0.234 0.014,0.47 0.028,0.704 0.013,0.205 0.039,0.408 0.038,0.614 -10e-4,0.247 0.006,0.495 10e-4,0.742 C 2.285,-4.185 2.265,-4.114 2.244,-4.025 2.225,-3.947 2.225,-3.868 2.206,-3.79 2.184,-3.702 2.14,-3.629 2.102,-3.547 2.07,-3.479 2.049,-3.409 2.024,-3.339 1.964,-3.166 1.891,-3.02 1.789,-2.869 1.694,-2.73 1.58,-2.598 1.503,-2.447 1.472,-2.388 1.447,-2.327 1.423,-2.264 1.38,-2.149 1.365,-2.028 1.327,-1.911 1.312,-1.863 1.289,-1.82 1.271,-1.773 1.228,-1.666 1.208,-1.551 1.158,-1.447 1.093,-1.31 1.032,-1.175 0.96,-1.041 0.901,-0.931 0.803,-0.848 0.711,-0.767 0.527,-0.604 0.316,-0.427 0.183,-0.219 0.147,-0.162 0.108,-0.131 0.065,-0.081 0.047,-0.059 0.005,-0.028 0,0"
             style="fill:#231f20;fill-opacity:1;fill-rule:nonzero;stroke:none"
             id="path1755" />
        </g>
        <g
           id="g1757"
           transform="translate(328.221,294.663)">
          <path
             d="M 0,0 C 0.089,0.178 0.185,0.351 0.282,0.524 0.256,0.534 0.229,0.541 0.203,0.552 0.065,0.609 -0.057,0.697 -0.181,0.78 -0.377,0.909 -0.51,1.109 -0.673,1.27 -0.743,1.339 -0.858,1.535 -0.967,1.542 -1.012,1.45 -0.968,1.278 -0.949,1.186 -0.888,0.893 -0.732,0.631 -0.65,0.345 -0.6,0.171 -0.537,0.01 -0.399,-0.112 -0.325,-0.178 -0.243,-0.239 -0.16,-0.299 -0.105,-0.196 -0.047,-0.095 0,0"
             style="fill:#231f20;fill-opacity:1;fill-rule:nonzero;stroke:none"
             id="path1759" />
        </g>
        <g
           id="g1761"
           transform="translate(336.053,303.098)">
          <path
             d="m 0,0 c 0.261,-0.084 0.437,-0.199 0.641,-0.372 0.101,-0.085 0.25,-0.089 0.349,-0.177 0.098,-0.086 0.103,-0.244 0.187,-0.344 0.055,-0.066 0.127,-0.115 0.186,-0.177 0.034,-0.036 0.065,-0.073 0.088,-0.117 0.037,-0.072 0.043,-0.152 0.063,-0.23 0.055,-0.225 0.232,-0.454 0.397,-0.613 0.134,-0.131 0.2,-0.292 0.261,-0.457 0.051,0.083 0.107,0.164 0.182,0.234 0.142,0.132 0.252,0.287 0.367,0.446 0.087,0.12 0.179,0.243 0.239,0.378 0.046,0.104 0.052,0.19 0.077,0.301 0.048,0.206 0.155,0.437 0.269,0.62 C 3.143,-0.387 3.028,-0.263 2.825,-0.203 2.498,-0.107 2.186,-0.078 1.882,0.082 1.755,0.149 1.633,0.177 1.494,0.208 1.24,0.265 0.953,0.324 0.715,0.428 0.515,0.514 0.333,0.533 0.118,0.529 -0.079,0.524 -0.097,0.6 -0.257,0.649 -0.366,0.682 -0.569,0.68 -0.682,0.668 -0.876,0.648 -1.039,0.513 -1.222,0.453 -1.362,0.408 -1.634,0.439 -1.721,0.29 -1.649,0.277 -1.577,0.266 -1.505,0.256 -0.999,0.183 -0.497,0.161 0,0"
             style="fill:#231f20;fill-opacity:1;fill-rule:nonzero;stroke:none"
             id="path1763" />
        </g>
        <g
           id="g1765"
           transform="translate(335.096,289.762)">
          <path
             d="M 0,0 C -0.023,0.404 -0.133,0.832 -0.321,1.19 -0.436,1.408 -0.596,1.599 -0.713,1.817 -0.827,2.03 -0.888,2.238 -0.938,2.457 -1.16,2.45 -1.382,2.435 -1.605,2.447 -1.904,2.463 -2.214,2.419 -2.506,2.489 -2.862,2.575 -3.227,2.672 -3.565,2.815 -3.774,2.903 -3.968,3.016 -4.166,3.126 -4.335,3.219 -4.505,3.311 -4.673,3.407 -4.955,3.568 -5.292,3.613 -5.564,3.786 -5.671,3.855 -5.752,3.95 -5.837,4.043 -5.958,4.175 -6.094,4.289 -6.222,4.414 -6.323,4.513 -6.447,4.574 -6.566,4.644 -6.597,4.597 -6.633,4.554 -6.685,4.517 -6.751,4.472 -6.828,4.435 -6.907,4.434 -6.961,4.434 -7.003,4.462 -7.056,4.458 -7.168,4.451 -7.352,4.338 -7.437,4.269 -7.493,4.224 -7.54,4.162 -7.584,4.097 c 0.12,-0.191 0.241,-0.383 0.362,-0.574 0.075,-0.12 0.157,-0.235 0.254,-0.337 0.244,-0.257 0.469,-0.491 0.769,-0.682 0.208,-0.132 0.413,-0.276 0.607,-0.429 0.2,-0.158 0.389,-0.358 0.618,-0.473 0.262,-0.132 0.564,-0.167 0.836,-0.278 0.422,-0.172 0.859,-0.303 1.277,-0.482 0.27,-0.116 0.52,-0.28 0.796,-0.382 0.194,-0.072 0.396,-0.12 0.589,-0.195 0.373,-0.146 0.704,-0.25 1.104,-0.286 0.124,-0.011 0.25,-0.03 0.375,-0.048 C 0.002,-0.046 0.001,-0.023 0,0"
             style="fill:#231f20;fill-opacity:1;fill-rule:nonzero;stroke:none"
             id="path1767" />
        </g>
        <g
           id="g1769"
           transform="translate(339.613,295.103)">
          <path
             d="M 0,0 C -0.098,0.17 -0.24,0.288 -0.352,0.446 -0.448,0.581 -0.463,0.719 -0.488,0.876 -0.517,1.06 -0.611,1.221 -0.656,1.401 -0.774,1.872 -0.866,2.326 -1.15,2.736 -1.185,2.787 -1.225,2.833 -1.265,2.879 -1.444,2.582 -1.613,2.284 -1.747,1.957 -1.976,1.401 -2.322,0.957 -2.754,0.544 -2.86,0.443 -2.965,0.326 -3.095,0.256 -3.138,0.233 -3.186,0.22 -3.227,0.193 -3.351,0.112 -3.429,-0.037 -3.54,-0.136 c -0.291,-0.255 -0.711,-0.385 -1.064,-0.537 -0.125,-0.055 -0.252,-0.103 -0.384,-0.133 0.048,-0.11 0.056,-0.237 0.072,-0.357 0.024,-0.178 0.035,-0.366 0.066,-0.542 0.024,-0.134 0.057,-0.228 0.047,-0.37 -0.018,-0.266 -0.101,-0.566 -0.046,-0.832 0.021,-0.105 0.065,-0.216 0.107,-0.324 0.499,0.074 0.961,0.221 1.395,0.477 0.221,0.131 0.44,0.263 0.656,0.4 0.219,0.14 0.419,0.314 0.645,0.44 0.61,0.34 1.24,0.617 1.725,1.137 0.153,0.164 0.299,0.383 0.426,0.59 C 0.071,-0.123 0.034,-0.06 0,0"
             style="fill:#231f20;fill-opacity:1;fill-rule:nonzero;stroke:none"
             id="path1771" />
        </g>
        <g
           id="g1773"
           transform="translate(338.449,299.777)">
          <path
             d="m 0,0 c -0.031,-0.213 -0.02,-0.434 -0.057,-0.646 -0.014,-0.086 -0.037,-0.166 -0.061,-0.246 0.027,-0.005 0.055,-0.012 0.086,-0.026 0.08,-0.039 0.157,-0.067 0.241,-0.099 0.13,-0.048 0.222,-0.111 0.331,-0.193 0.067,-0.049 0.166,-0.066 0.221,-0.128 0.06,-0.068 0.063,-0.158 0.128,-0.226 0.08,-0.085 0.189,-0.146 0.284,-0.21 0.095,-0.065 0.126,-0.122 0.186,-0.211 0.121,-0.175 0.314,-0.219 0.473,-0.339 0.08,-0.061 0.134,-0.162 0.199,-0.236 0.07,-0.081 0.151,-0.144 0.236,-0.202 0.108,0.517 0.145,1.041 0.213,1.569 0.082,0.64 0.033,1.3 -0.019,1.941 C 2.446,0.928 2.396,1.1 2.359,1.276 2.328,1.422 2.307,1.569 2.281,1.715 2.275,1.71 2.268,1.706 2.262,1.7 2.095,1.544 1.884,1.462 1.684,1.351 1.464,1.229 1.281,1.052 1.057,0.935 0.979,0.895 0.899,0.861 0.822,0.818 0.743,0.774 0.603,0.729 0.534,0.665 0.489,0.622 0.464,0.557 0.425,0.513 0.361,0.442 0.292,0.412 0.196,0.411 0.121,0.41 0.047,0.423 -0.028,0.44 -0.027,0.392 -0.026,0.344 -0.02,0.297 -0.005,0.187 0.016,0.109 0,0"
             style="fill:#231f20;fill-opacity:1;fill-rule:nonzero;stroke:none"
             id="path1775" />
        </g>
        <g
           id="g1777"
           transform="translate(337.188,298.385)">
          <path
             d="M 0,0 C -0.006,0.104 -0.079,0.228 -0.124,0.32 -0.192,0.461 -0.26,0.593 -0.336,0.727 -0.381,0.807 -0.434,0.849 -0.451,0.95 -0.465,1.033 -0.455,1.072 -0.353,1.025 -0.226,0.966 -0.101,0.901 0.028,0.848 0.079,0.827 0.134,0.818 0.177,0.776 0.207,0.747 0.22,0.705 0.251,0.675 0.296,0.63 0.322,0.614 0.355,0.556 0.379,0.514 0.394,0.475 0.427,0.44 0.471,0.394 0.533,0.362 0.565,0.303 0.575,0.283 0.578,0.258 0.593,0.24 0.61,0.22 0.628,0.225 0.635,0.197 0.638,0.184 0.634,0.157 0.63,0.144 0.626,0.124 0.617,0.107 0.613,0.087 0.596,0.01 0.597,-0.154 0.486,-0.159 0.452,-0.16 0.417,-0.145 0.385,-0.138 0.271,-0.113 0.172,-0.159 0.06,-0.182"
             style="fill:#231f20;fill-opacity:1;fill-rule:nonzero;stroke:none"
             id="path1779" />
        </g>
        <g
           id="g1781"
           transform="translate(340.252,296.267)">
          <path
             d="M 0,0 C 0.21,-0.05 0.438,-0.136 0.603,-0.272 0.671,-0.328 0.712,-0.402 0.776,-0.462 0.83,-0.513 0.88,-0.527 0.943,-0.561 0.996,-0.59 1.029,-0.62 1.09,-0.637 1.096,-0.638 1.193,-0.649 1.201,-0.657 1.25,-0.706 1.195,-0.756 1.193,-0.822 1.191,-0.897 1.201,-0.943 1.184,-1.019 1.159,-1.128 1.134,-1.237 1.111,-1.346 1.091,-1.441 1.05,-1.525 1.019,-1.615 1.007,-1.651 0.983,-1.671 0.969,-1.705 0.956,-1.734 0.96,-1.771 0.946,-1.799 0.91,-1.871 0.835,-1.87 0.759,-1.896 0.583,-1.957 0.457,-1.858 0.293,-1.792 0.21,-1.758 0.2,-1.76 0.177,-1.681 c -0.025,0.088 -0.029,0.148 -0.08,0.228 -0.055,0.085 -0.085,0.128 -0.082,0.235 0.002,0.089 0.041,0.203 0.014,0.292 -0.019,0.061 -0.073,0.133 -0.097,0.194 -0.037,0.095 -0.082,0.177 -0.144,0.259 -0.073,0.096 -0.113,0.211 -0.184,0.31 -0.042,0.06 -0.082,0.146 -0.134,0.198 -0.046,0.044 -0.146,0.074 -0.107,0.168 0.092,10e-4 0.12,-0.044 0.192,-0.089 0.028,-0.017 0.066,-0.038 0.099,-0.044 0.038,-0.007 0.041,0.006 0.067,0.007 0.061,0.003 0.065,-0.019 0.125,-0.044 0.037,-0.016 0.086,-0.018 0.125,-0.026 L 0,0"
             style="fill:#231f20;fill-opacity:1;fill-rule:nonzero;stroke:none"
             id="path1783" />
        </g>
        <g
           id="g1785"
           transform="translate(339.556,301.768)">
          <path
             d="M 0,0 C 0.101,0.091 0.218,0.136 0.3,0.247 0.374,0.346 0.426,0.47 0.489,0.578 0.545,0.675 0.609,0.765 0.668,0.861 0.702,0.917 0.758,0.995 0.758,1.065 0.764,0.977 0.92,0.929 0.984,0.896 1.073,0.849 1.152,0.813 1.204,0.724 1.233,0.675 1.245,0.619 1.273,0.569 1.309,0.505 1.389,0.466 1.395,0.391 1.403,0.306 1.345,0.284 1.292,0.24 1.183,0.149 1.067,0.117 0.942,0.059 0.838,0.011 0.748,-0.064 0.647,-0.118 0.464,-0.216 0.292,-0.318 0.125,-0.442 0.064,-0.488 -0.017,-0.531 -0.07,-0.585 c -0.029,-0.03 -0.036,-0.085 -0.081,-0.093 -0.03,0.025 -0.019,0.057 -0.018,0.091 -0.066,0.029 -0.167,-0.104 -0.241,-0.104 0.027,0.097 0.142,0.188 0.19,0.28 0.043,0.082 0.071,0.171 0.111,0.248 0.026,0.048 0.033,0.098 0.077,0.138 C 0.027,0.028 0.116,0.046 0,0"
             style="fill:#231f20;fill-opacity:1;fill-rule:nonzero;stroke:none"
             id="path1787" />
        </g>
        <g
           id="g1789"
           transform="translate(335.246,291.259)">
          <path
             d="m 0,0 c -0.012,-0.062 0.017,-0.155 0.025,-0.21 0.016,-0.124 0.023,-0.249 0.043,-0.373 0.019,-0.116 0.017,-0.28 0.159,-0.279 0.218,0.002 0.379,0.176 0.555,0.289 0.068,0.044 0.134,0.077 0.197,0.126 0.078,0.06 0.154,0.063 0.229,0.137 0.064,0.061 0.085,0.1 0.106,0.182 C 1.33,-0.066 1.356,0.027 1.311,0.035 1.226,0.05 1.151,0.053 1.064,0.061 1.005,0.066 0.928,0.076 0.872,0.099 0.817,0.122 0.777,0.176 0.726,0.208 0.639,0.263 0.54,0.325 0.433,0.323 0.348,0.321 0.284,0.282 0.234,0.215 0.206,0.178 0.202,0.14 0.18,0.096 0.151,0.099 0.123,0.102 0.094,0.105 0.074,0.068 0.079,0.029 0.058,-0.007 0.049,-0.007 0.04,-0.007 0,0"
             style="fill:#231f20;fill-opacity:1;fill-rule:nonzero;stroke:none"
             id="path1791" />
        </g>
      </g>
    </g>
  </g>
</svg>
