<?xml version="1.0" encoding="UTF-8" standalone="no"?>
<!-- Created with Inkscape (http://www.inkscape.org/) -->

<svg
   width="23.797762"
   height="24"
   viewBox="0 0 6.296491 6.35"
   version="1.1"
   id="svg41412"
   inkscape:version="1.2.1 (9c6d41e4, 2022-07-14)"
   sodipodi:docname="the-stranger.svg"
   xmlns:inkscape="http://www.inkscape.org/namespaces/inkscape"
   xmlns:sodipodi="http://sodipodi.sourceforge.net/DTD/sodipodi-0.dtd"
   xmlns="http://www.w3.org/2000/svg"
   xmlns:svg="http://www.w3.org/2000/svg">
  <sodipodi:namedview
     id="namedview41414"
     pagecolor="#505050"
     bordercolor="#eeeeee"
     borderopacity="1"
     inkscape:showpageshadow="0"
     inkscape:pageopacity="0"
     inkscape:pagecheckerboard="0"
     inkscape:deskcolor="#505050"
     inkscape:document-units="mm"
     showgrid="false"
     inkscape:zoom="0.2102413"
     inkscape:cx="111.77632"
     inkscape:cy="156.9625"
     inkscape:window-width="1309"
     inkscape:window-height="456"
     inkscape:window-x="0"
     inkscape:window-y="25"
     inkscape:window-maximized="0"
     inkscape:current-layer="layer1" />
  <defs
     id="defs41409">
    <clipPath
       clipPathUnits="userSpaceOnUse"
       id="clipPath4815">
      <path
         d="m 176.367,341.78 h 24.7 v 24.699 h -24.7 z"
         id="path4813" />
    </clipPath>
  </defs>
  <g
     inkscape:label="Layer 1"
     inkscape:groupmode="layer"
     id="layer1"
     transform="translate(-75.435017,-106.86417)">
    <g
       id="g4809"
       transform="matrix(0.2885594,0,0,-0.2885594,24.021307,212.30174)"
       style="fill:#000000">
      <g
         id="g4811"
         clip-path="url(#clipPath4815)"
         style="fill:#000000">
        <g
           id="g4817"
           transform="translate(191.863,354.395)"
           style="fill:#000000">
          <path
             d="m 0,0 c -0.009,-0.08 -0.041,-0.154 -0.05,-0.234 -0.015,-0.138 -0.003,-0.272 -0.003,-0.409 0.001,-0.175 -0.023,-0.367 -0.045,-0.542 -0.018,-0.144 -0.012,-0.28 -0.045,-0.425 -0.028,-0.125 -0.04,-0.241 -0.039,-0.367 0,-0.099 0.01,-0.203 0.001,-0.3 -0.012,-0.125 -0.051,-0.252 -0.074,-0.375 -0.03,-0.166 -0.119,-0.321 -0.157,-0.486 -0.03,-0.128 -0.029,-0.262 -0.065,-0.391 -0.029,-0.102 -0.068,-0.246 -0.126,-0.334 -0.014,-0.022 -0.034,-0.031 -0.046,-0.057 -0.019,-0.04 -0.017,-0.099 -0.031,-0.142 -0.03,-0.094 -0.093,-0.171 -0.131,-0.261 -0.039,-0.089 -0.061,-0.191 -0.114,-0.272 -0.02,-0.03 -0.051,-0.053 -0.071,-0.082 -0.069,-0.096 -0.103,-0.217 -0.158,-0.32 -0.054,-0.101 -0.097,-0.186 -0.131,-0.295 -0.037,-0.115 -0.074,-0.257 -0.131,-0.363 -0.039,-0.07 -0.086,-0.113 -0.111,-0.19 -0.025,-0.074 -0.061,-0.113 -0.111,-0.17 -0.07,-0.081 -0.122,-0.201 -0.226,-0.245 -0.034,-0.015 -0.07,-0.009 -0.103,-0.029 -0.061,-0.037 -0.097,-0.105 -0.145,-0.154 -0.079,-0.079 -0.176,-0.136 -0.259,-0.21 -0.087,-0.078 -0.206,-0.078 -0.302,-0.142 -0.056,-0.037 -0.091,-0.078 -0.161,-0.09 -0.045,-0.007 -0.093,0.002 -0.138,0 -0.137,-0.007 -0.22,-0.119 -0.342,-0.165 -0.248,-0.095 -0.498,-0.012 -0.751,0.007 -0.212,0.015 -0.377,0.154 -0.555,0.258 -0.132,0.077 -0.238,0.112 -0.343,0.231 -0.054,0.062 -0.11,0.116 -0.154,0.186 -0.073,0.117 -0.142,0.202 -0.187,0.336 -0.027,0.081 -0.051,0.162 -0.076,0.243 -0.047,0.155 -0.126,0.289 -0.186,0.44 -0.044,0.112 -0.079,0.227 -0.134,0.335 -0.075,0.145 -0.155,0.29 -0.22,0.439 -0.044,0.1 -0.068,0.207 -0.117,0.306 -0.059,0.12 -0.13,0.233 -0.187,0.353 -0.052,0.107 -0.074,0.202 -0.095,0.317 -0.017,0.097 -0.054,0.187 -0.074,0.283 -0.022,0.109 -0.012,0.224 -0.012,0.334 0,0.177 -0.006,0.343 -0.023,0.519 -0.013,0.138 -0.031,0.275 -0.029,0.414 0.004,0.252 -0.035,0.516 -0.072,0.766 -0.021,0.139 -0.032,0.281 -0.065,0.418 -0.029,0.119 -0.07,0.235 -0.075,0.358 -0.008,0.224 -0.021,0.467 0.054,0.681 0.045,0.129 0.108,0.251 0.152,0.382 0.042,0.125 0.061,0.271 0.115,0.392 0.056,0.129 0.094,0.262 0.147,0.392 0.052,0.128 0.119,0.242 0.186,0.363 0.064,0.117 0.089,0.249 0.156,0.366 0.058,0.102 0.111,0.207 0.169,0.309 0.061,0.106 0.12,0.194 0.206,0.282 0.04,0.041 0.124,0.212 0.182,0.22 -0.03,0.071 0.053,0.16 0.157,0.21 0.158,0.075 0.308,0.165 0.471,0.232 0.234,0.095 0.452,0.219 0.697,0.288 0.268,0.076 0.542,0.132 0.819,0.083 0.079,-0.014 0.159,0.004 0.238,-0.01 0.057,-0.01 0.112,-0.034 0.169,-0.042 0.096,-0.014 0.192,-0.008 0.287,-0.024 0.056,-0.01 0.11,-0.023 0.166,-0.031 0.107,-0.014 0.211,-0.036 0.316,-0.062 0.108,-0.027 0.21,-0.008 0.304,-0.076 0.196,-0.143 0.46,-0.214 0.626,-0.399 0.156,-0.174 0.295,-0.369 0.457,-0.534 0.079,-0.08 0.158,-0.174 0.231,-0.261 0.087,-0.106 0.118,-0.272 0.178,-0.396 0.078,-0.164 0.135,-0.377 0.114,-0.56 C -0.081,1.211 -0.069,1.121 -0.059,1.034 -0.037,0.838 -0.002,0.643 0.002,0.445 0.005,0.301 0.015,0.143 0,0 M 0.607,0.218 C 0.59,0.371 0.596,0.523 0.582,0.675 0.564,0.889 0.512,1.102 0.48,1.314 0.451,1.504 0.412,1.692 0.374,1.88 0.319,2.15 0.291,2.416 0.139,2.655 0.033,2.822 -0.049,2.998 -0.139,3.173 -0.225,3.341 -0.311,3.434 -0.471,3.527 -0.533,3.562 -0.587,3.588 -0.637,3.64 -0.702,3.709 -0.755,3.785 -0.827,3.848 -0.974,3.974 -1.143,3.97 -1.328,3.966 -1.51,3.963 -1.599,4.008 -1.74,4.119 -1.836,4.194 -1.928,4.289 -2.051,4.318 -2.224,4.36 -2.409,4.347 -2.584,4.38 -2.754,4.411 -2.91,4.479 -3.086,4.478 -3.271,4.477 -3.45,4.449 -3.631,4.409 -3.823,4.368 -4.002,4.287 -4.191,4.233 -4.314,4.197 -4.429,4.152 -4.547,4.102 -4.873,3.966 -5.161,3.81 -5.426,3.572 -5.583,3.431 -5.767,3.3 -5.911,3.146 -5.957,3.097 -5.968,3.035 -6.013,2.986 -6.193,2.792 -6.372,2.6 -6.518,2.378 -6.626,2.212 -6.72,2.034 -6.822,1.863 -6.922,1.693 -7.023,1.506 -7.092,1.322 -7.13,1.221 -7.114,1.128 -7.116,1.023 -7.119,0.9 -7.16,0.788 -7.173,0.667 -7.202,0.387 -7.184,0.109 -7.205,-0.172 -7.214,-0.294 -7.235,-0.408 -7.246,-0.526 -7.25,-0.569 -7.253,-0.612 -7.253,-0.656 v -0.411 c 0.001,-0.32 -0.021,-0.637 0.053,-0.951 0.057,-0.245 0.117,-0.484 0.143,-0.734 0.022,-0.217 0.042,-0.441 0.077,-0.656 0.039,-0.242 0.13,-0.489 0.214,-0.72 0.082,-0.225 0.123,-0.458 0.205,-0.683 0.109,-0.302 0.241,-0.593 0.324,-0.904 0.07,-0.267 0.236,-0.484 0.375,-0.718 0.061,-0.102 0.105,-0.194 0.192,-0.277 0.1,-0.096 0.182,-0.209 0.293,-0.293 0.076,-0.058 0.161,-0.103 0.24,-0.155 0.222,-0.145 0.439,-0.32 0.7,-0.379 0.165,-0.037 0.332,-0.117 0.499,-0.133 0.118,-0.011 0.244,0 0.362,0 0.333,0 0.621,0.005 0.906,0.196 0.144,0.098 0.281,0.199 0.444,0.265 0.105,0.042 0.217,0.067 0.32,0.113 0.143,0.063 0.275,0.165 0.381,0.278 0.126,0.134 0.194,0.307 0.291,0.46 0.067,0.107 0.162,0.202 0.236,0.303 0.079,0.11 0.153,0.223 0.242,0.326 0.21,0.244 0.351,0.508 0.489,0.797 0.122,0.254 0.251,0.499 0.359,0.759 0.077,0.187 0.12,0.376 0.17,0.57 0.042,0.166 0.104,0.323 0.139,0.491 0.024,0.119 0.051,0.237 0.077,0.355 0.028,0.128 0.024,0.257 0.031,0.386 0.003,0.062 0.008,0.124 0.02,0.184 0.011,0.057 0.043,0.107 0.032,0.164 -0.021,0.117 0.003,0.219 0.019,0.335 0.021,0.146 0.035,0.293 0.034,0.44 -0.001,0.331 -0.001,0.663 -0.001,0.994 0,0.156 0.012,0.317 -0.006,0.472"
             style="fill:#000000;fill-opacity:1;fill-rule:nonzero;stroke:none"
             id="path4819" />
        </g>
        <g
           id="g4821"
           transform="translate(184.825,351.945)"
           style="fill:#000000">
          <path
             d="m 0,0 c 0.011,-0.036 -0.01,-0.035 -0.02,-0.057 -0.019,-0.047 -0.032,-0.078 -0.035,-0.131 -0.008,-0.158 0.001,-0.32 0.001,-0.479 0,-0.281 0.029,-0.576 -0.026,-0.853 C -0.154,-1.891 -0.155,-2.284 -0.294,-2.638 -0.334,-2.74 -0.405,-2.862 -0.468,-2.953 -0.57,-3.102 -0.719,-3.213 -0.826,-3.36 -0.882,-3.437 -0.95,-3.504 -1.02,-3.568 -1.065,-3.61 -1.112,-3.65 -1.161,-3.688 -1.238,-3.748 -1.312,-3.805 -1.374,-3.88 -1.568,-4.118 -1.691,-4.412 -2.01,-4.511 c -0.173,-0.053 -0.37,-0.135 -0.508,-0.251 -0.049,-0.041 -0.103,-0.063 -0.16,-0.09 -0.082,-0.038 -0.16,-0.08 -0.24,-0.12 -0.188,-0.094 -0.37,-0.233 -0.538,-0.363 -0.075,-0.058 -0.145,-0.116 -0.229,-0.16 -0.057,-0.03 -0.057,-0.041 -0.055,-0.104 0.004,-0.102 0.044,-0.162 0.116,-0.243 0.142,-0.158 0.303,-0.29 0.464,-0.427 0.185,-0.159 0.375,-0.282 0.58,-0.412 0.318,-0.202 0.633,-0.392 0.97,-0.56 0.109,-0.054 0.221,-0.098 0.337,-0.138 0.091,-0.031 0.183,-0.06 0.27,-0.104 0.083,-0.042 0.16,-0.098 0.25,-0.125 0.123,-0.036 0.252,-0.089 0.362,-0.156 C -0.26,-7.843 -0.142,-7.91 0,-7.97 c 0.16,-0.069 0.307,-0.15 0.476,-0.198 0.203,-0.057 0.395,-0.124 0.603,-0.166 0.098,-0.021 0.195,-0.065 0.294,-0.08 0.073,-0.012 0.151,-0.003 0.225,-0.003 0.237,-10e-4 0.476,-0.049 0.711,-0.085 0.363,-0.056 0.728,-0.077 1.093,-0.03 0.362,0.046 0.727,0.065 1.088,0.112 0.299,0.039 0.607,0.077 0.902,0.14 0.276,0.059 0.542,0.137 0.822,0.183 0.516,0.083 1.025,0.206 1.498,0.434 0.072,0.034 0.139,0.093 0.218,0.111 0.038,0.008 0.074,0.014 0.109,0.033 0.084,0.043 0.178,0.07 0.267,0.112 0.177,0.083 0.361,0.141 0.539,0.22 0.218,0.097 0.417,0.216 0.647,0.29 0.215,0.069 0.397,0.208 0.587,0.326 0.109,0.068 0.228,0.118 0.334,0.187 0.242,0.158 0.413,0.513 0.269,0.787 -0.058,0.111 -0.145,0.213 -0.213,0.319 -0.089,0.141 -0.257,0.232 -0.386,0.335 -0.202,0.16 -0.434,0.34 -0.675,0.435 -0.05,0.019 -0.112,0.033 -0.165,0.054 -0.095,0.038 -0.177,0.121 -0.267,0.173 -0.136,0.081 -0.26,0.197 -0.386,0.293 -0.116,0.089 -0.195,0.226 -0.321,0.303 -0.1,0.061 -0.23,0.107 -0.339,0.148 -0.077,0.03 -0.157,0.054 -0.24,0.063 -0.048,0.006 -0.106,-0.004 -0.154,0.012 -0.157,0.051 -0.154,0.202 -0.199,0.339 -0.023,0.07 -0.068,0.119 -0.089,0.187 -0.017,0.057 -0.029,0.114 -0.045,0.171 -0.037,0.129 -0.09,0.231 -0.089,0.366 0.002,0.148 -0.04,0.274 -0.056,0.418 C 7.051,-1.923 7.042,-1.722 6.96,-1.707 6.847,-1.892 6.736,-2.068 6.653,-2.269 6.584,-2.435 6.479,-2.564 6.372,-2.707 6.275,-2.839 6.193,-2.982 6.118,-3.127 6.04,-3.279 6.002,-3.452 5.878,-3.57 5.701,-3.74 5.504,-3.876 5.311,-4.026 5.074,-4.21 4.875,-4.438 4.626,-4.605 4.498,-4.69 4.361,-4.762 4.228,-4.842 4.068,-4.937 3.913,-4.951 3.732,-4.953 3.548,-4.955 3.376,-4.996 3.193,-4.967 2.894,-4.921 2.614,-4.835 2.322,-4.761 2.188,-4.727 1.985,-4.677 1.907,-4.556 1.813,-4.411 1.672,-4.306 1.582,-4.153 1.551,-4.098 1.507,-4.061 1.47,-4.011 1.412,-3.934 1.38,-3.839 1.323,-3.76 1.286,-3.708 1.232,-3.674 1.198,-3.621 1.169,-3.576 1.163,-3.53 1.153,-3.479 1.128,-3.359 1.13,-3.252 1.129,-3.13 1.126,-2.885 0.99,-2.708 0.844,-2.522 c -0.053,0.068 -0.102,0.127 -0.12,0.212 -0.025,0.111 -0.047,0.204 -0.102,0.307 -0.052,0.098 -0.031,0.212 -0.031,0.32 0,0.103 0.005,0.208 0.001,0.311 -0.004,0.103 -0.026,0.191 -0.08,0.278 -0.025,0.039 -0.053,0.076 -0.075,0.118 -0.047,0.09 -0.063,0.188 -0.129,0.268 -0.027,0.034 -0.076,0.063 -0.092,0.105 -0.011,0.03 -0.002,0.072 -0.001,0.104 0.001,0.059 -0.001,0.118 0,0.177 0.001,0.073 -0.008,0.126 -0.066,0.177 C 0.113,-0.114 0.035,-0.107 0,0"
             style="fill:#000000;fill-opacity:1;fill-rule:nonzero;stroke:none"
             id="path4823" />
        </g>
        <g
           id="g4825"
           transform="translate(196.586,357.378)"
           style="fill:#000000">
          <path
             d="M 0,0 C 0.004,0.102 0.002,0.209 -0.033,0.298 -0.08,0.42 -0.174,0.517 -0.237,0.63 -0.31,0.762 -0.406,0.825 -0.511,0.93 -0.551,0.97 -0.583,1.019 -0.618,1.063 -0.68,1.14 -0.757,1.195 -0.84,1.248 c -0.071,0.046 -0.132,0.11 -0.21,0.146 -0.054,0.025 -0.112,0.033 -0.169,0.047 -0.184,0.046 -0.367,0.135 -0.538,0.212 -0.131,0.06 -0.251,0.136 -0.386,0.186 -0.113,0.042 -0.212,0.074 -0.316,0.134 -0.202,0.117 -0.394,0.211 -0.624,0.258 -0.28,0.057 -0.52,0.216 -0.73,0.404 -0.127,0.115 -0.251,0.216 -0.39,0.318 -0.147,0.109 -0.267,0.25 -0.413,0.358 -0.246,0.183 -0.452,0.43 -0.555,0.724 -0.063,0.179 -0.1,0.368 -0.107,0.558 -0.007,0.194 0.022,0.387 0.061,0.576 0.019,0.095 0.051,0.19 0.059,0.286 0.003,0.045 -0.007,0.092 0,0.137 0.018,0.113 0.145,0.243 0.226,0.318 0.035,0.033 0.065,0.039 0.104,0.067 0.092,0.064 0.163,0.159 0.256,0.222 0.041,0.028 0.082,0.037 0.126,0.059 0.035,0.018 0.052,0.045 0.082,0.069 0.06,0.046 0.19,0.053 0.263,0.07 0.076,0.019 0.151,0.043 0.228,0.059 0.083,0.017 0.17,0.009 0.254,0.024 0.118,0.02 0.242,0.043 0.363,0.043 0.056,0 0.106,-0.023 0.16,-0.034 0.081,-0.017 0.144,0.023 0.221,0.027 0.081,0.005 0.194,-0.046 0.267,-0.078 0.077,-0.035 0.117,-0.094 0.186,-0.14 C -2.312,6.223 -2.21,6.13 -2.105,6.049 -2.013,5.979 -1.948,5.888 -1.882,5.795 -1.823,5.713 -1.79,5.608 -1.737,5.52 -1.655,5.383 -1.669,5.269 -1.705,5.115 -1.732,5.004 -1.744,4.873 -1.799,4.771 -1.83,4.712 -1.877,4.656 -1.921,4.605 -1.942,4.581 -1.952,4.554 -1.989,4.548 c 0.047,0.028 0.048,0.109 0.059,0.16 0.016,0.07 0.05,0.153 0.053,0.224 0.002,0.051 0.002,0.104 0.003,0.156 0.002,0.073 -0.027,0.09 -0.067,0.145 -0.028,0.039 -0.044,0.089 -0.079,0.124 -0.038,0.037 -0.094,0.06 -0.136,0.094 -0.245,0.2 -0.564,0.277 -0.839,0.424 C -3.074,5.916 -3.14,5.912 -3.228,5.913 -3.312,5.914 -3.377,5.936 -3.458,5.95 -3.548,5.967 -3.694,5.947 -3.78,5.912 -3.811,5.899 -3.836,5.876 -3.862,5.857 -4.021,5.742 -4.181,5.641 -4.289,5.472 -4.39,5.314 -4.518,5.127 -4.504,4.929 -4.497,4.82 -4.435,4.704 -4.39,4.606 -4.341,4.502 -4.288,4.41 -4.223,4.315 c 0.057,-0.084 0.109,-0.171 0.16,-0.259 0.037,-0.064 0.085,-0.111 0.127,-0.171 0.099,-0.143 0.212,-0.264 0.334,-0.388 0.105,-0.107 0.237,-0.176 0.353,-0.269 0.227,-0.182 0.494,-0.329 0.763,-0.44 0.174,-0.071 0.354,-0.122 0.525,-0.2 0.163,-0.074 0.322,-0.153 0.492,-0.214 0.362,-0.129 0.721,-0.199 1.068,-0.384 0.1,-0.054 0.269,-0.107 0.34,-0.2 C -0.038,1.76 -0.029,1.708 -0.012,1.673 0.025,1.598 0.07,1.528 0.123,1.463 0.201,1.378 0.278,1.292 0.353,1.205 0.484,1.035 0.574,0.84 0.602,0.627 0.618,0.504 0.634,0.436 0.685,0.322 0.741,0.196 0.749,0.091 0.747,-0.046 0.745,-0.317 0.769,-0.597 0.745,-0.867 0.723,-1.113 0.612,-1.34 0.472,-1.54 0.303,-1.781 0.062,-1.959 -0.047,-2.237 c -0.05,-0.127 -0.154,-0.195 -0.261,-0.272 -0.138,-0.1 -0.282,-0.193 -0.424,-0.286 -0.151,-0.099 -0.297,-0.234 -0.463,-0.306 -0.077,-0.034 -0.158,-0.05 -0.237,-0.078 -0.249,-0.087 -0.473,-0.229 -0.724,-0.308 -0.2,-0.064 -0.404,-0.121 -0.6,-0.196 -0.181,-0.07 -0.247,-0.043 -0.415,0.049 -0.088,0.049 -0.212,0.1 -0.241,0.212 -0.04,0.15 0.003,0.367 0.002,0.521 -10e-4,0.055 -0.02,0.134 0.023,0.166 0.042,0.031 0.134,0.004 0.182,0.011 0.005,0 0.011,0.023 0.025,0.026 0.058,0.012 0.138,10e-4 0.197,0.004 0.183,0.011 0.365,0.038 0.542,0.086 0.245,0.066 0.486,0.127 0.725,0.217 0.51,0.192 0.913,0.577 1.222,1.019 0.181,0.258 0.348,0.535 0.41,0.848 0.027,0.137 0.071,0.274 0.079,0.413 C -0.004,-0.076 -0.002,-0.038 0,0"
             style="fill:#000000;fill-opacity:1;fill-rule:nonzero;stroke:none"
             id="path4827" />
        </g>
        <g
           id="g4829"
           transform="translate(183.952,351.165)"
           style="fill:#000000">
          <path
             d="M 0,0 C -0.008,0.028 -0.023,0.055 -0.049,0.08 -0.206,0.232 -0.517,0.207 -0.711,0.244 -0.935,0.288 -1.169,0.413 -1.333,0.571 -1.42,0.656 -1.449,0.778 -1.527,0.868 -1.594,0.946 -1.644,1.028 -1.681,1.125 -1.746,1.295 -1.779,1.455 -1.778,1.637 -1.777,1.801 -1.786,1.966 -1.82,2.126 -1.834,2.194 -1.864,2.239 -1.884,2.304 -1.929,2.444 -1.953,2.589 -1.99,2.73 -1.999,2.762 -2.008,2.793 -2.026,2.822 -2.055,2.869 -2.102,2.9 -2.142,2.937 -2.287,3.071 -2.385,3.25 -2.525,3.39 -2.654,3.52 -2.803,3.634 -2.954,3.738 -3.056,3.809 -3.132,3.904 -3.231,3.977 -3.284,4.016 -3.344,4.035 -3.403,4.062 -3.529,4.12 -3.641,4.199 -3.785,4.204 -3.89,4.208 -3.991,4.229 -4.095,4.232 -4.286,4.237 -4.48,4.24 -4.669,4.251 -4.738,4.256 -4.755,4.223 -4.809,4.183 -4.936,4.088 -5.064,4.003 -5.184,3.899 -5.277,3.819 -5.36,3.75 -5.422,3.642 -5.48,3.542 -5.535,3.456 -5.605,3.365 -5.657,3.297 -5.674,3.201 -5.695,3.119 -5.718,3.028 -5.746,2.934 -5.766,2.841 -5.791,2.719 -5.77,2.593 -5.77,2.47 c 0,-0.117 -0.006,-0.23 0.007,-0.346 0.022,-0.193 0.15,-0.349 0.257,-0.504 0.099,-0.145 0.21,-0.296 0.333,-0.42 0.125,-0.125 0.282,-0.21 0.404,-0.339 0.095,-0.102 0.171,-0.224 0.243,-0.343 0.116,-0.193 0.154,-0.441 0.152,-0.666 -0.001,-0.146 10e-4,-0.292 10e-4,-0.439 0,-0.161 -0.046,-0.294 -0.113,-0.441 -0.053,-0.117 -0.143,-0.228 -0.239,-0.313 -0.107,-0.095 -0.214,-0.124 -0.349,-0.164 -0.073,-0.022 -0.137,-0.046 -0.198,-0.093 -0.028,-0.021 -0.052,-0.045 -0.086,-0.057 -0.04,-0.015 -0.155,0.007 -0.158,-0.055 0.064,-0.018 0.144,-0.005 0.212,-0.006 0.139,-0.001 0.327,0.007 0.452,0.072 0.05,0.026 0.086,0.069 0.14,0.09 0.065,0.026 0.132,0.035 0.193,0.074 0.111,0.07 0.25,0.183 0.327,0.29 0.015,0.021 0.03,0.044 0.044,0.067 0.197,0.327 0.193,0.728 0.193,1.098 0,0.322 -0.06,0.684 -0.19,0.982 C -4.257,1.214 -4.517,1.34 -4.674,1.56 -4.875,1.842 -5.15,2.083 -5.157,2.455 -5.16,2.578 -5.192,2.71 -5.181,2.833 c 0.005,0.052 0.024,0.098 0.051,0.142 0.021,0.032 0.046,0.062 0.072,0.09 0.116,0.13 0.245,0.269 0.38,0.379 0.038,0.031 0.07,0.077 0.111,0.103 0.064,0.04 0.15,0.022 0.22,0.02 0.109,-0.005 0.216,-0.053 0.321,-0.08 0.098,-0.025 0.194,-0.033 0.286,-0.079 0.149,-0.076 0.298,-0.212 0.419,-0.326 0.135,-0.127 0.268,-0.279 0.375,-0.429 0.057,-0.08 0.132,-0.139 0.18,-0.227 0.054,-0.097 0.076,-0.204 0.131,-0.301 0.047,-0.082 0.083,-0.167 0.128,-0.251 0.051,-0.097 0.086,-0.158 0.1,-0.269 0.022,-0.194 0.037,-0.391 0.071,-0.584 0.019,-0.104 0.028,-0.21 0.05,-0.314 0.023,-0.111 0.071,-0.219 0.109,-0.326 0.082,-0.233 0.293,-0.363 0.478,-0.507 0.096,-0.076 0.17,-0.137 0.286,-0.179 0.115,-0.042 0.234,-0.096 0.341,-0.154 0.146,-0.078 0.297,-0.208 0.456,-0.255 0.14,-0.042 0.348,-0.027 0.493,-0.01 0.116,0.013 0.085,0.065 0.085,0.172 -0.001,0.072 0.001,0.143 0,0.215 C -0.04,-0.224 0.029,-0.104 0,0"
             style="fill:#000000;fill-opacity:1;fill-rule:nonzero;stroke:none"
             id="path4831" />
        </g>
        <g
           id="g4833"
           transform="translate(183.834,355.361)"
           style="fill:#000000">
          <path
             d="m 0,0 c -0.112,0.059 -0.239,0.084 -0.344,0.162 -0.153,0.115 -0.209,0.281 -0.268,0.456 -0.06,0.176 -0.078,0.383 -0.077,0.564 0,0.1 0.017,0.198 0.03,0.297 0.009,0.072 0.016,0.16 0.045,0.227 0.05,0.115 0.127,0.227 0.2,0.327 0.144,0.199 0.287,0.396 0.431,0.594 0.098,0.137 0.204,0.271 0.288,0.418 0.079,0.14 0.124,0.293 0.153,0.45 C 0.498,3.712 0.59,3.907 0.639,4.122 0.675,4.283 0.7,4.449 0.71,4.615 0.72,4.768 0.72,4.927 0.689,5.078 0.676,5.14 0.664,5.213 0.637,5.271 0.614,5.322 0.573,5.369 0.545,5.417 0.482,5.527 0.442,5.702 0.332,5.779 0.289,5.809 0.235,5.82 0.191,5.846 0.138,5.878 0.096,5.924 0.046,5.96 -0.101,6.067 -0.268,6.138 -0.446,6.168 -0.531,6.182 -0.627,6.171 -0.709,6.194 -0.737,6.201 -0.762,6.219 -0.79,6.229 -0.999,6.304 -1.212,6.297 -1.43,6.282 -1.493,6.277 -1.557,6.246 -1.621,6.237 -1.642,6.235 -1.662,6.233 -1.682,6.228 -1.717,6.219 -1.746,6.201 -1.778,6.185 -1.868,6.139 -1.955,6.107 -2.032,6.04 -2.175,5.915 -2.282,5.739 -2.346,5.561 -2.381,5.466 -2.419,5.377 -2.436,5.275 -2.454,5.163 -2.441,5.044 -2.441,4.931 -2.442,4.699 -2.39,4.473 -2.384,4.243 -2.38,4.083 -2.391,3.864 -2.489,3.726 -2.516,3.688 -2.554,3.66 -2.58,3.621 -2.622,3.559 -2.633,3.487 -2.661,3.419 -2.691,3.347 -2.739,3.284 -2.778,3.218 -2.841,3.111 -2.91,3.008 -3.001,2.927 -3.023,2.908 -3.029,2.887 -3.052,2.872 -3.099,2.842 -3.143,2.844 -3.189,2.804 -3.251,2.751 -3.288,2.685 -3.363,2.655 -3.478,2.609 -3.595,2.569 -3.714,2.531 -3.87,2.48 -4.032,2.434 -4.185,2.376 -4.239,2.356 -4.279,2.353 -4.334,2.342 -4.352,2.339 -4.368,2.323 -4.395,2.32 -4.416,2.317 -4.445,2.317 -4.466,2.319 c -0.11,0.014 -0.137,0.121 -0.209,0.183 -0.047,0.04 -0.176,0.095 -0.164,0.177 0.076,0.024 0.149,-0.012 0.22,-0.03 0.088,-0.021 0.171,-0.021 0.265,-0.021 0.238,0 0.41,0.116 0.612,0.222 0.199,0.105 0.381,0.287 0.459,0.499 0.062,0.171 0.116,0.351 0.137,0.532 0.024,0.205 0.035,0.412 0.034,0.618 0,0.13 -0.027,0.291 0.005,0.418 0.027,0.103 0.066,0.191 0.08,0.298 0.015,0.105 0.06,0.195 0.098,0.293 0.045,0.116 0.067,0.241 0.116,0.355 0.147,0.34 0.495,0.559 0.771,0.785 0.078,0.063 0.167,0.178 0.268,0.202 0.033,0.008 0.066,-0.002 0.099,-0.003 0.132,-0.006 0.267,0.045 0.392,0.081 0.23,0.066 0.443,0.102 0.684,0.101 0.17,0 0.335,0.002 0.502,-0.036 C 0.077,6.952 0.217,6.891 0.367,6.795 0.515,6.7 0.654,6.607 0.787,6.492 0.943,6.356 1.117,6.187 1.222,6.009 1.393,5.716 1.541,5.382 1.586,5.045 1.612,4.848 1.603,4.652 1.604,4.454 1.606,4.253 1.589,4.036 1.528,3.843 1.494,3.735 1.467,3.643 1.39,3.564 1.341,3.513 1.31,3.461 1.281,3.397 1.213,3.244 1.175,3.079 1.112,2.924 1.028,2.721 0.903,2.512 0.749,2.356 0.681,2.287 0.605,2.232 0.539,2.161 0.464,2.082 0.429,1.996 0.378,1.901 0.328,1.809 0.291,1.705 0.231,1.62 0.088,1.419 0.092,1.138 0.245,0.948 0.291,0.891 0.371,0.835 0.378,0.757 0.385,0.684 0.329,0.626 0.305,0.561 0.26,0.439 0.246,0.302 0.21,0.182 0.184,0.096 0.139,0.016 0.082,-0.053 0.056,-0.032 0.028,-0.015 0,0"
             style="fill:#000000;fill-opacity:1;fill-rule:nonzero;stroke:none"
             id="path4835" />
        </g>
        <g
           id="g4837"
           transform="translate(193.256,352.079)"
           style="fill:#000000">
          <path
             d="M 0,0 C 0.003,0.049 0.008,0.099 0.035,0.132 0.111,0.22 0.252,0.14 0.334,0.101 0.604,-0.029 0.891,-0.153 1.138,-0.321 1.428,-0.517 1.74,-0.747 1.923,-1.052 2.005,-1.187 2.097,-1.306 2.202,-1.424 2.331,-1.568 2.406,-1.803 2.445,-1.99 2.459,-2.055 2.455,-2.121 2.462,-2.187 2.468,-2.239 2.492,-2.285 2.496,-2.336 2.502,-2.415 2.455,-2.499 2.452,-2.581 2.449,-2.631 2.456,-2.682 2.455,-2.733 2.452,-2.868 2.508,-2.988 2.522,-3.121 2.536,-3.264 2.599,-3.387 2.611,-3.527 2.622,-3.643 2.705,-3.726 2.733,-3.832 2.746,-3.88 2.746,-3.933 2.759,-3.982 2.785,-4.079 2.84,-4.151 2.923,-4.208 c 0.079,-0.053 0.156,-0.11 0.234,-0.165 0.092,-0.066 0.17,-0.123 0.284,-0.141 0.102,-0.016 0.198,-0.059 0.304,-0.051 0.236,0.019 0.384,0.165 0.569,0.279 0.152,0.093 0.302,0.161 0.376,0.336 0.057,0.137 0.096,0.25 0.044,0.391 -0.04,0.108 -0.045,0.226 -0.088,0.331 -0.049,0.122 -0.093,0.223 -0.122,0.354 -0.017,0.075 -0.055,0.151 -0.06,0.227 -0.006,0.086 0.026,0.176 0.049,0.257 0.017,0.061 0.017,0.122 0.035,0.182 0.022,0.074 0.055,0.146 0.08,0.218 0.066,0.186 0.183,0.288 0.347,0.398 0.065,0.043 0.133,0.078 0.196,0.122 0.027,0.019 0.034,0.039 0.07,0.034 C 5.245,-1.502 5.15,-1.58 5.116,-1.632 5.039,-1.75 4.972,-1.865 4.923,-1.998 4.794,-2.346 4.871,-2.684 4.98,-3.027 5.012,-3.125 5.082,-3.228 5.093,-3.328 5.103,-3.408 5.063,-3.478 5.06,-3.557 5.055,-3.675 5.012,-3.778 4.978,-3.889 4.95,-3.979 4.938,-4.073 4.907,-4.161 4.825,-4.398 4.673,-4.595 4.484,-4.757 4.429,-4.804 4.385,-4.856 4.317,-4.884 4.27,-4.903 4.235,-4.911 4.194,-4.943 4.055,-5.05 3.933,-5.138 3.76,-5.178 3.677,-5.197 3.598,-5.232 3.512,-5.235 3.447,-5.237 3.39,-5.214 3.328,-5.2 c -0.16,0.036 -0.285,0.084 -0.425,0.17 -0.266,0.162 -0.467,0.41 -0.568,0.707 -0.081,0.24 -0.147,0.485 -0.224,0.727 -0.064,0.201 -0.102,0.408 -0.165,0.61 -0.062,0.2 -0.08,0.421 -0.168,0.613 -0.043,0.093 -0.1,0.176 -0.138,0.272 -0.047,0.12 -0.069,0.247 -0.129,0.36 -0.1,0.187 -0.27,0.389 -0.43,0.528 -0.219,0.191 -0.566,0.325 -0.843,0.419 -0.085,0.028 -0.169,0.06 -0.259,0.06 -0.064,0.001 -0.148,-0.033 -0.193,0.03 -0.071,0.1 0.078,0.253 0.118,0.337 0.04,0.088 0.072,0.189 0.089,0.284 C -0.002,-0.059 -0.002,-0.03 0,0"
             style="fill:#000000;fill-opacity:1;fill-rule:nonzero;stroke:none"
             id="path4839" />
        </g>
        <g
           id="g4841"
           transform="translate(184.575,359.328)"
           style="fill:#000000">
          <path
             d="M 0,0 C 0.05,0.186 0.099,0.351 0.198,0.519 0.379,0.829 0.623,1.081 0.901,1.305 1.007,1.391 1.133,1.434 1.255,1.492 1.395,1.56 1.532,1.635 1.673,1.702 1.795,1.76 1.925,1.783 2.052,1.827 2.181,1.871 2.304,1.934 2.429,1.988 2.913,2.202 3.334,2.63 3.605,3.077 3.783,3.368 3.943,3.738 3.863,4.087 3.849,4.147 3.821,4.199 3.8,4.256 3.772,4.335 3.771,4.42 3.741,4.499 3.709,4.586 3.658,4.667 3.601,4.739 3.56,4.793 3.506,4.834 3.468,4.891 3.436,4.937 3.414,4.989 3.379,5.034 3.304,5.132 3.191,5.201 3.094,5.276 2.94,5.394 2.757,5.504 2.567,5.551 2.45,5.58 2.331,5.561 2.217,5.526 2.129,5.499 2.055,5.45 1.964,5.437 1.773,5.407 1.55,5.269 1.562,5.048 1.566,4.968 1.563,4.887 1.563,4.807 1.563,4.676 1.569,4.572 1.598,4.445 1.633,4.293 1.727,4.156 1.773,4.006 1.785,3.966 1.796,3.891 1.82,3.859 1.85,3.819 1.879,3.792 1.905,3.748 1.927,3.709 1.957,3.665 1.982,3.629 2.001,3.601 2.052,3.557 2.033,3.521 2.008,3.526 1.976,3.553 1.948,3.566 1.883,3.596 1.852,3.63 1.793,3.673 1.705,3.736 1.611,3.806 1.533,3.881 1.468,3.943 1.449,4.024 1.4,4.094 1.363,4.147 1.311,4.186 1.275,4.238 1.17,4.386 1.2,4.586 1.201,4.755 c 0,0.208 -0.017,0.384 0.111,0.558 0.074,0.1 0.133,0.211 0.207,0.31 0.07,0.094 0.209,0.138 0.297,0.212 0.057,0.048 0.111,0.092 0.181,0.123 0.064,0.029 0.143,0.077 0.209,0.096 0.08,0.022 0.191,0.004 0.273,0.004 0.078,0 0.155,0 0.232,0 C 2.941,6.06 3.17,6.015 3.366,5.89 3.491,5.811 3.611,5.712 3.716,5.609 3.831,5.497 3.957,5.405 4.057,5.278 4.148,5.162 4.232,5.036 4.284,4.898 4.302,4.853 4.33,4.812 4.35,4.768 4.434,4.584 4.446,4.362 4.468,4.165 4.499,3.879 4.518,3.581 4.489,3.294 4.464,3.05 4.416,2.748 4.248,2.556 4.207,2.51 4.156,2.481 4.107,2.445 3.965,2.342 3.9,2.169 3.763,2.057 3.647,1.963 3.519,1.882 3.396,1.797 3.219,1.674 3.024,1.608 2.84,1.501 2.697,1.418 2.589,1.365 2.43,1.334 2.309,1.311 2.216,1.275 2.107,1.232 2.031,1.202 1.949,1.194 1.873,1.161 1.718,1.094 1.587,0.986 1.462,0.876 1.337,0.766 1.195,0.667 1.088,0.539 1.008,0.445 0.953,0.335 0.878,0.238 0.78,0.113 0.736,-0.045 0.643,-0.174 0.54,-0.316 0.452,-0.487 0.386,-0.65 0.342,-0.757 0.286,-1.042 0.114,-0.918 c -0.11,0.08 -0.058,0.235 -0.058,0.35 -0.001,0.151 0.028,0.293 0.028,0.443 C 0.083,-0.027 0.084,0.07 0,0"
             style="fill:#000000;fill-opacity:1;fill-rule:nonzero;stroke:none"
             id="path4843" />
        </g>
        <g
           id="g4845"
           transform="translate(195.519,355.405)"
           style="fill:#000000">
          <path
             d="m 0,0 c 0.105,0.096 0.211,0.191 0.317,0.286 0.13,0.116 0.28,0.189 0.426,0.281 0.18,0.112 0.35,0.254 0.547,0.335 C 1.403,0.949 1.519,0.976 1.63,1.03 1.739,1.084 1.84,1.109 1.961,1.116 2.147,1.128 2.338,1.22 2.525,1.198 2.633,1.185 2.742,1.142 2.848,1.118 2.982,1.087 3.092,1.034 3.21,0.963 3.424,0.834 3.687,0.818 3.841,0.602 3.975,0.413 4.125,0.25 4.231,0.041 4.31,-0.115 4.391,-0.282 4.433,-0.453 4.612,-1.186 4.2,-1.995 3.6,-2.405 3.423,-2.526 3.237,-2.636 3.034,-2.708 2.926,-2.746 2.817,-2.78 2.704,-2.801 2.588,-2.823 2.472,-2.807 2.356,-2.826 2.235,-2.845 2.117,-2.852 1.994,-2.848 1.923,-2.846 1.863,-2.785 1.796,-2.792 1.81,-2.795 1.825,-2.793 1.839,-2.786 1.836,-2.735 1.771,-2.723 1.738,-2.702 1.678,-2.663 1.646,-2.591 1.597,-2.54 1.552,-2.493 1.501,-2.424 1.471,-2.368 1.449,-2.326 1.464,-2.28 1.452,-2.237 c -0.007,0.028 -0.035,0.046 -0.029,0.078 0.012,-0.25 0.248,-0.235 0.425,-0.284 0.124,-0.035 0.211,-0.084 0.344,-0.042 0.1,0.032 0.202,0.005 0.3,0.032 0.109,0.031 0.191,0.151 0.301,0.194 0.103,0.042 0.206,0.047 0.29,0.122 0.098,0.088 0.228,0.107 0.324,0.198 0.066,0.063 0.137,0.152 0.18,0.233 0.082,0.153 0.156,0.315 0.157,0.49 0,0.167 10e-4,0.334 0.008,0.5 0.003,0.075 0.02,0.158 0.011,0.232 C 3.754,-0.405 3.704,-0.326 3.679,-0.252 3.656,-0.186 3.638,-0.133 3.574,-0.099 3.434,-0.026 3.32,0.091 3.164,0.132 2.952,0.189 2.743,0.264 2.526,0.302 2.336,0.336 2.089,0.281 1.921,0.189 1.852,0.151 1.783,0.119 1.711,0.087 1.56,0.022 1.442,-0.076 1.305,-0.167 1.177,-0.252 1.075,-0.366 0.945,-0.444 0.822,-0.518 0.72,-0.628 0.617,-0.726 0.521,-0.819 0.41,-0.803 0.289,-0.839 0.137,-0.885 0.022,-0.981 -0.112,-1.061"
             style="fill:#000000;fill-opacity:1;fill-rule:nonzero;stroke:none"
             id="path4847" />
        </g>
      </g>
    </g>
  </g>
</svg>
