<?xml version="1.0" encoding="UTF-8" standalone="no"?>
<!-- Created with Inkscape (http://www.inkscape.org/) -->

<svg
   width="25.016781"
   height="24"
   viewBox="0 0 6.6190232 6.35"
   version="1.1"
   id="svg42479"
   inkscape:version="1.2.1 (9c6d41e4, 2022-07-14)"
   sodipodi:docname="the-unspeakable-oath.svg"
   xmlns:inkscape="http://www.inkscape.org/namespaces/inkscape"
   xmlns:sodipodi="http://sodipodi.sourceforge.net/DTD/sodipodi-0.dtd"
   xmlns="http://www.w3.org/2000/svg"
   xmlns:svg="http://www.w3.org/2000/svg">
  <sodipodi:namedview
     id="namedview42481"
     pagecolor="#505050"
     bordercolor="#eeeeee"
     borderopacity="1"
     inkscape:showpageshadow="0"
     inkscape:pageopacity="0"
     inkscape:pagecheckerboard="0"
     inkscape:deskcolor="#505050"
     inkscape:document-units="mm"
     showgrid="false"
     inkscape:zoom="0.2102413"
     inkscape:cx="68.96837"
     inkscape:cy="109.3981"
     inkscape:window-width="1309"
     inkscape:window-height="456"
     inkscape:window-x="0"
     inkscape:window-y="25"
     inkscape:window-maximized="0"
     inkscape:current-layer="layer1" />
  <defs
     id="defs42476">
    <clipPath
       clipPathUnits="userSpaceOnUse"
       id="clipPath15383">
      <path
         d="m 298.717,419.254 h 24.7 v 24.699 h -24.7 z"
         id="path15381" />
    </clipPath>
  </defs>
  <g
     inkscape:label="Layer 1"
     inkscape:groupmode="layer"
     id="layer1"
     transform="translate(-87.286206,-120.14163)">
    <g
       id="g15377"
       transform="matrix(0.35124382,0,0,-0.35124382,-18.402357,275.27198)">
      <g
         id="g15379"
         clip-path="url(#clipPath15383)">
        <g
           id="g15385"
           transform="translate(304.033,438.01)">
          <path
             d="M 0,0 C 0.129,0.051 0.254,0.11 0.373,0.183 0.575,0.305 0.798,0.371 1.001,0.491 1.178,0.595 1.378,0.653 1.563,0.74 1.652,0.782 1.72,0.85 1.806,0.894 1.937,0.961 2.075,0.962 2.194,1.059 2.262,1.114 2.31,1.174 2.387,1.218 2.458,1.259 2.528,1.299 2.598,1.341 2.663,1.379 2.711,1.418 2.768,1.464 2.825,1.509 2.86,1.51 2.918,1.539 2.991,1.577 3.031,1.636 3.111,1.665 3.188,1.694 3.236,1.736 3.297,1.794 3.379,1.872 3.415,1.973 3.469,2.071 3.642,2.389 3.878,2.742 4.144,2.992 4.295,3.133 4.526,3.24 4.63,3.424 4.671,3.495 4.684,3.58 4.728,3.65 4.86,3.631 4.913,3.542 5.033,3.489 5.224,3.404 5.368,3.291 5.502,3.126 5.673,2.915 5.829,2.704 5.999,2.492 6.047,2.431 6.11,2.392 6.158,2.332 6.219,2.257 6.262,2.176 6.326,2.102 6.409,2.006 6.505,1.943 6.586,1.848 6.69,1.725 6.804,1.615 6.911,1.499 6.96,1.446 6.986,1.383 7.032,1.33 7.067,1.29 7.172,1.199 7.128,1.127 7.108,1.092 6.954,1.073 6.914,1.065 6.831,1.048 6.761,1.066 6.675,1.044 6.548,1.011 6.435,0.961 6.317,0.904 6.141,0.819 5.968,0.78 5.805,0.663 5.433,0.396 4.965,0.287 4.58,0.037 4.401,-0.081 4.172,-0.171 4.011,-0.312 3.835,-0.467 3.646,-0.587 3.454,-0.723 3.242,-0.874 3.028,-1.022 2.814,-1.17 2.535,-1.364 2.251,-1.542 2.015,-1.789 1.81,-2.004 1.642,-2.254 1.477,-2.501 1.425,-2.579 1.364,-2.642 1.319,-2.725 1.284,-2.788 1.254,-2.871 1.205,-2.923 1.135,-2.999 1.073,-2.97 0.999,-2.927 0.9,-2.87 0.797,-2.798 0.717,-2.716 c -0.104,0.108 -0.183,0.241 -0.284,0.352 -0.148,0.164 -0.306,0.32 -0.444,0.49 -0.217,0.267 -0.378,0.574 -0.607,0.831 -0.09,0.103 -0.176,0.209 -0.264,0.313 -0.036,0.042 -0.068,0.087 -0.099,0.133 -0.025,0.038 -0.108,0.124 -0.111,0.17 -0.007,0.085 0.269,0.178 0.365,0.209 0.125,0.041 0.257,0.066 0.384,0.102 C -0.227,-0.082 -0.112,-0.044 0,0"
             style="fill:#231f20;fill-opacity:1;fill-rule:nonzero;stroke:none"
             id="path15387" />
        </g>
        <g
           id="g15389"
           transform="translate(306.739,437.312)">
          <path
             d="m 0,0 c -0.03,-0.013 -0.061,-0.027 -0.091,-0.041 -0.091,-0.041 -0.204,-0.063 -0.3,-0.093 -0.07,-0.022 -0.134,-0.091 -0.206,-0.095 0.012,-0.108 0.215,-0.109 0.294,-0.129 0.144,-0.035 0.298,-0.037 0.436,-0.092 0.119,-0.047 0.234,-0.123 0.34,-0.194 0.175,-0.116 0.335,-0.26 0.497,-0.393 0.485,-0.395 0.917,-0.855 1.33,-1.324 0.683,-0.773 1.246,-1.629 1.875,-2.443 0.226,-0.292 0.448,-0.586 0.672,-0.879 0.204,-0.265 0.36,-0.575 0.587,-0.82 0.128,-0.138 0.276,-0.241 0.418,-0.362 0.043,-0.036 0.093,-0.107 0.152,-0.103 0.058,0.12 0.237,0.224 0.34,0.306 0.082,0.065 0.184,0.109 0.259,0.183 0.047,0.046 0.089,0.102 0.091,0.166 0.003,0.116 -0.071,0.301 -0.099,0.408 C 6.343,-4.903 5.244,-4.379 4.602,-3.658 4.372,-3.4 4.205,-3.098 3.98,-2.837 3.696,-2.507 3.448,-2.167 3.212,-1.8 2.958,-1.405 2.691,-1.017 2.384,-0.662 2.227,-0.48 2.055,-0.314 1.9,-0.132 1.824,-0.043 1.768,0.038 1.751,0.156 1.727,0.317 1.758,0.479 1.755,0.64 1.752,0.807 1.712,0.986 1.765,1.149 1.88,1.127 1.733,1.054 1.703,1.037 1.603,0.979 1.546,0.875 1.447,0.819 1.376,0.779 1.309,0.771 1.24,0.715 1.186,0.672 1.145,0.61 1.086,0.576 1.024,0.54 0.956,0.526 0.894,0.486 0.814,0.434 0.741,0.369 0.664,0.313 0.561,0.238 0.448,0.177 0.327,0.132 0.214,0.089 0.108,0.047 0,0"
             style="fill:#231f20;fill-opacity:1;fill-rule:nonzero;stroke:none"
             id="path15391" />
        </g>
        <g
           id="g15393"
           transform="translate(315.133,430.804)">
          <path
             d="m 0,0 c -0.085,0.073 -0.155,0.163 -0.243,0.236 -0.084,0.07 -0.18,0.116 -0.263,0.19 C -0.59,0.501 -0.66,0.583 -0.755,0.643 -0.876,0.72 -0.964,0.806 -1.056,0.916 -1.139,1.015 -1.232,1.118 -1.333,1.201 -1.408,1.263 -1.496,1.3 -1.571,1.362 -1.687,1.455 -1.798,1.56 -1.91,1.655 -1.999,1.73 -2.024,1.728 -2.126,1.707 -2.217,1.688 -2.277,1.641 -2.364,1.619 -2.485,1.588 -2.584,1.535 -2.706,1.511 -2.751,1.502 -2.796,1.493 -2.841,1.483 -2.888,1.473 -2.921,1.488 -2.96,1.489 -3.052,1.491 -3.067,1.431 -3.109,1.359 -3.101,1.358 -3.093,1.356 -3.085,1.355 L -3.206,0.784 C -3.198,0.731 -3.242,0.681 -3.259,0.635 -3.306,0.505 -3.345,0.393 -3.428,0.291 -3.48,0.228 -3.563,0.108 -3.548,0.012 c 0.008,-0.053 0.046,-0.104 0.075,-0.149 0.101,-0.159 0.193,-0.324 0.303,-0.478 0.468,-0.653 1.018,-1.241 1.501,-1.881 0.219,-0.29 0.414,-0.604 0.648,-0.882 0.216,-0.256 0.461,-0.435 0.706,-0.656 0.213,-0.192 0.402,-0.408 0.619,-0.595 0.189,-0.164 0.368,-0.343 0.545,-0.52 0.098,-0.097 0.176,-0.193 0.285,-0.281 0.073,-0.059 0.149,-0.114 0.224,-0.172 0.142,-0.11 0.303,-0.206 0.441,-0.322 0.071,-0.061 0.128,-0.137 0.198,-0.199 0.071,-0.062 0.144,-0.118 0.212,-0.183 0.148,-0.142 0.316,-0.261 0.467,-0.401 0.109,-0.099 0.215,-0.198 0.323,-0.297 0.065,-0.058 0.12,-0.06 0.191,-0.106 0.051,-0.032 0.103,-0.069 0.154,-0.091 0.084,-0.035 0.133,0 0.214,-0.003 0.08,-0.003 0.16,-0.011 0.239,-0.017 0.14,-0.012 0.309,0.046 0.437,0.077 0.187,0.044 0.251,0.29 0.235,0.48 -0.015,0.185 0.008,0.376 -0.023,0.561 C 4.416,-5.931 4.32,-5.742 4.259,-5.57 4.182,-5.353 4.122,-5.127 3.995,-4.928 3.927,-4.822 3.876,-4.714 3.796,-4.616 3.679,-4.472 3.555,-4.324 3.431,-4.186 3.346,-4.091 3.245,-4.015 3.165,-3.915 3.009,-3.716 2.849,-3.519 2.689,-3.323 2.606,-3.22 2.51,-3.137 2.421,-3.041 2.268,-2.878 2.132,-2.696 1.985,-2.527 1.747,-2.255 1.571,-1.956 1.369,-1.661 1.175,-1.377 0.933,-1.121 0.732,-0.839 0.654,-0.73 0.57,-0.627 0.477,-0.53 0.354,-0.403 0.262,-0.282 0.157,-0.141 0.108,-0.075 0.059,-0.05 0,0"
             style="fill:#231f20;fill-opacity:1;fill-rule:nonzero;stroke:none"
             id="path15395" />
        </g>
        <g
           id="g15397"
           transform="translate(300.898,430.307)">
          <path
             d="m 0,0 c 0.012,-0.371 0.063,-0.744 0.145,-1.107 0.139,-0.614 0.267,-1.208 0.502,-1.796 0.186,-0.463 0.512,-0.863 0.801,-1.265 0.151,-0.209 0.343,-0.349 0.531,-0.522 0.129,-0.12 0.274,-0.24 0.422,-0.336 0.164,-0.106 0.373,-0.171 0.559,-0.231 0.156,-0.05 0.237,-0.001 0.362,0.089 0.061,0.044 0.065,0.096 0.111,0.152 0.033,0.038 0.085,0.055 0.118,0.095 0.045,0.052 0.053,0.125 0.098,0.178 0.117,0.139 0.301,0.22 0.427,0.354 C 3.939,-4.4 3.916,-4.356 3.81,-4.278 3.757,-4.239 3.738,-4.206 3.692,-4.163 3.644,-4.118 3.581,-4.097 3.53,-4.052 3.372,-3.91 3.208,-3.796 3.075,-3.629 2.996,-3.529 2.943,-3.43 2.884,-3.319 2.811,-3.184 2.707,-3.073 2.635,-2.938 2.488,-2.665 2.24,-2.442 2.055,-2.195 1.966,-2.077 1.866,-1.965 1.789,-1.839 1.709,-1.71 1.658,-1.57 1.571,-1.445 1.497,-1.339 1.47,-1.261 1.438,-1.136 1.409,-1.02 1.345,-0.947 1.291,-0.846 1.204,-0.682 1.185,-0.495 1.131,-0.32 1.073,-0.129 1.067,0.064 1.027,0.254 1.014,0.314 1.018,0.367 1.015,0.428 1.011,0.511 0.976,0.572 0.968,0.653 0.956,0.766 0.986,0.772 0.896,0.821 0.846,0.847 0.83,0.849 0.769,0.847 0.628,0.841 0.514,0.835 0.381,0.886 0.315,0.912 0.125,1.022 0.061,0.982 0.04,0.968 0.019,0.811 0.018,0.792 0.012,0.7 0.025,0.604 0.027,0.512 0.03,0.373 0.074,0.256 0.076,0.119 0.077,0.014 0.081,-0.09 0,0"
             style="fill:#231f20;fill-opacity:1;fill-rule:nonzero;stroke:none"
             id="path15399" />
        </g>
        <g
           id="g15401"
           transform="translate(302.183,428.689)">
          <path
             d="M 0,0 C -0.005,0.008 -0.01,0.016 -0.015,0.023 -0.109,0.168 -0.193,0.312 -0.293,0.454 -0.348,0.532 -0.435,0.594 -0.479,0.678 -0.387,0.596 -0.158,0.61 -0.044,0.594 0.134,0.569 0.339,0.584 0.518,0.598 0.661,0.609 0.799,0.646 0.94,0.672 1.057,0.693 1.184,0.68 1.294,0.723 1.694,0.88 2.066,1.096 2.452,1.286 2.772,1.443 3.098,1.595 3.404,1.78 3.845,2.046 4.371,2.26 4.753,2.609 4.874,2.721 5.06,2.8 5.215,2.699 5.28,2.657 5.326,2.589 5.368,2.526 5.396,2.486 5.423,2.444 5.449,2.402 5.488,2.337 5.514,2.266 5.553,2.202 5.603,2.119 5.694,2.048 5.723,1.953 5.737,1.905 5.717,1.842 5.724,1.792 5.735,1.719 5.778,1.705 5.732,1.645 5.681,1.579 5.533,1.524 5.463,1.491 5.326,1.426 5.187,1.366 5.053,1.294 4.711,1.112 4.324,1.038 3.978,0.856 3.785,0.754 3.61,0.63 3.428,0.51 3.253,0.395 3.064,0.305 2.891,0.185 2.643,0.013 2.399,-0.167 2.138,-0.319 1.942,-0.433 1.796,-0.54 1.643,-0.708 1.573,-0.785 1.544,-0.877 1.488,-0.957 1.419,-1.054 1.339,-1.177 1.313,-1.299 1.282,-1.444 1.395,-1.567 1.35,-1.702 1.324,-1.697 1.268,-1.584 1.239,-1.551 1.159,-1.46 1.057,-1.37 0.965,-1.291 0.764,-1.116 0.589,-0.929 0.449,-0.7 0.302,-0.459 0.152,-0.235 0,0"
             style="fill:#231f20;fill-opacity:1;fill-rule:nonzero;stroke:none"
             id="path15403" />
        </g>
        <g
           id="g15405"
           transform="translate(319.408,438.014)">
          <path
             d="M 0,0 C -0.106,-0.071 -0.234,-0.097 -0.331,-0.166 -0.407,-0.22 -0.436,-0.299 -0.501,-0.36 -0.671,-0.517 -0.94,-0.64 -1.145,-0.755 -1.49,-0.945 -1.842,-1.123 -2.19,-1.306 -2.624,-1.535 -3.079,-1.734 -3.505,-1.977 -3.872,-2.187 -4.221,-2.383 -4.603,-2.568 l -2.924,-1.574 c -0.334,-0.174 -0.67,-0.342 -1.009,-0.504 -0.328,-0.141 -0.651,-0.296 -0.967,-0.463 -0.463,-0.263 -0.91,-0.557 -1.37,-0.825 -0.824,-0.481 -1.648,-0.963 -2.458,-1.465 -0.247,-0.153 -0.487,-0.33 -0.746,-0.464 -0.061,-0.031 -0.127,-0.058 -0.162,-0.105 0.055,0.15 -0.046,0.063 -0.114,0.016 -0.121,-0.083 -0.237,-0.17 -0.36,-0.249 -0.115,-0.074 -0.303,-0.159 -0.385,-0.264 0.088,-0.099 0.108,-0.231 0.193,-0.332 0.055,-0.067 0.177,-0.183 0.29,-0.196 0.103,-0.011 0.092,0.022 0.182,0.086 0.061,0.043 0.16,0.075 0.23,0.097 0.351,0.113 0.74,0.272 1.067,0.458 0.305,0.173 0.59,0.365 0.898,0.532 0.29,0.159 0.553,0.364 0.826,0.544 0.303,0.2 0.614,0.391 0.925,0.581 0.575,0.35 1.155,0.703 1.742,1.036 0.332,0.189 0.662,0.39 0.999,0.572 0.34,0.183 0.682,0.353 1.005,0.564 0.623,0.408 1.232,0.811 1.874,1.196 0.534,0.32 1.046,0.657 1.57,0.989 0.558,0.354 1.176,0.632 1.729,0.992 0.281,0.183 0.56,0.366 0.837,0.554 0.111,0.074 0.333,0.188 0.412,0.283 0.068,0.082 0.039,0.101 0.158,0.171 0.084,0.05 0.139,0.101 0.205,0.169 C 0.131,-0.08 0.366,0.078 0.331,0.174 0.216,0.167 0.094,0.063 0,0"
             style="fill:#231f20;fill-opacity:1;fill-rule:nonzero;stroke:none"
             id="path15407" />
        </g>
      </g>
    </g>
  </g>
</svg>
