<?xml version="1.0" encoding="UTF-8" standalone="no"?>
<!-- Created with Inkscape (http://www.inkscape.org/) -->

<svg
   width="6.1919651mm"
   height="7.2041821mm"
   viewBox="0 0 6.1919651 7.2041821"
   version="1.1"
   id="svg10901"
   inkscape:version="1.2.1 (9c6d41e4, 2022-07-14)"
   sodipodi:docname="the_midnight_masks.svg"
   xmlns:inkscape="http://www.inkscape.org/namespaces/inkscape"
   xmlns:sodipodi="http://sodipodi.sourceforge.net/DTD/sodipodi-0.dtd"
   xmlns="http://www.w3.org/2000/svg"
   xmlns:svg="http://www.w3.org/2000/svg">
  <sodipodi:namedview
     id="namedview10903"
     pagecolor="#505050"
     bordercolor="#eeeeee"
     borderopacity="1"
     inkscape:showpageshadow="0"
     inkscape:pageopacity="0"
     inkscape:pagecheckerboard="0"
     inkscape:deskcolor="#505050"
     inkscape:document-units="mm"
     showgrid="false"
     inkscape:zoom="0.70199214"
     inkscape:cx="155.27239"
     inkscape:cy="165.24401"
     inkscape:window-width="1390"
     inkscape:window-height="938"
     inkscape:window-x="0"
     inkscape:window-y="25"
     inkscape:window-maximized="0"
     inkscape:current-layer="layer1" />
  <defs
     id="defs10898">
    <clipPath
       clipPathUnits="userSpaceOnUse"
       id="clipPath2710">
      <path
         d="m 298.717,249.57 h 24.7 v 24.7 h -24.7 z"
         id="path2708" />
    </clipPath>
  </defs>
  <g
     inkscape:label="Layer 1"
     inkscape:groupmode="layer"
     id="layer1"
     transform="translate(-63.99285,-104.94614)">
    <g
       id="g2704"
       transform="matrix(0.35277777,0,0,-0.35277777,-42.709186,201.20164)">
      <g
         id="g2706"
         clip-path="url(#clipPath2710)">
        <g
           id="g2712"
           transform="translate(302.911,265.253)">
          <path
             d="m 0,0 c 0.296,0.432 0.758,0.853 1.144,1.244 0.373,0.379 0.79,0.741 1.158,1.122 0.322,0.333 0.574,0.693 0.896,1.026 0.444,0.459 0.946,0.876 1.369,1.347 0.499,0.557 1.155,1.027 1.763,1.53 0.226,0.187 0.427,0.386 0.652,0.572 0.206,0.171 0.43,0.33 0.62,0.51 C 7.707,7.449 7.724,7.627 7.931,7.593 8.181,7.551 8.432,7.398 8.651,7.305 8.973,7.168 9.273,7.014 9.57,6.852 9.821,6.715 10.099,6.567 10.301,6.393 10.452,6.263 10.53,6.128 10.628,5.98 10.91,5.556 11.622,5.399 12.044,5.059 c 0.222,-0.18 0.39,-0.385 0.569,-0.585 0.257,-0.286 0.566,-0.542 0.879,-0.801 0.444,-0.368 0.588,-0.825 0.887,-1.248 0.263,-0.37 0.456,-0.753 0.692,-1.132 0.179,-0.285 0.408,-0.562 0.596,-0.847 0.166,-0.251 0.338,-0.507 0.591,-0.726 0.209,-0.18 0.42,-0.356 0.631,-0.535 0.083,-0.07 0.271,-0.255 0.198,-0.348 -0.012,-0.016 -0.272,-0.043 -0.313,-0.052 -0.112,-0.026 -0.221,-0.059 -0.331,-0.09 -0.159,-0.044 -0.341,-0.107 -0.518,-0.104 -0.387,0.006 -0.577,0.366 -0.741,0.555 -0.073,0.083 -0.155,0.164 -0.236,0.245 -0.171,0.17 -0.297,0.36 -0.481,0.52 -0.095,0.084 -0.164,0.184 -0.238,0.285 -0.053,0.072 -0.11,0.141 -0.171,0.207 -0.09,0.098 -0.19,0.188 -0.269,0.296 C 13.67,0.861 13.602,1.051 13.506,1.227 13.389,1.441 13.245,1.641 13.097,1.835 12.935,2.047 12.763,2.256 12.581,2.45 12.429,2.612 12.255,2.747 12.106,2.912 11.9,3.14 11.722,3.387 11.55,3.641 11.412,3.843 11.273,4.042 11.141,4.248 11.078,4.346 11.026,4.453 10.946,4.538 10.87,4.619 10.789,4.693 10.701,4.76 10.641,4.805 10.577,4.845 10.522,4.896 10.476,4.937 10.439,5.011 10.388,5.044 10.305,5.1 10.173,5.097 10.08,5.13 9.977,5.166 9.874,5.197 9.769,5.23 9.577,5.29 9.348,5.322 9.173,5.41 9.007,5.494 8.805,5.565 8.618,5.587 8.534,5.597 8.456,5.637 8.372,5.657 8.277,5.68 8.182,5.666 8.087,5.678 8.002,5.689 7.938,5.736 7.858,5.768 7.619,5.862 6.598,4.986 6.457,4.888 6.29,4.773 6.149,4.641 5.998,4.506 5.821,4.347 5.729,4.152 5.601,3.956 5.459,3.737 5.281,3.535 5.087,3.36 4.962,3.248 4.861,3.122 4.748,2.999 4.609,2.849 4.44,2.736 4.287,2.603 3.978,2.335 3.726,2.009 3.418,1.737 3.244,1.583 3.042,1.463 2.873,1.303 2.792,1.227 2.732,1.149 2.681,1.051 2.662,1.015 2.66,0.992 2.628,0.962 2.563,0.9 2.459,0.857 2.387,0.797 2.286,0.714 2.19,0.625 2.099,0.531 1.946,0.389 1.786,0.257 1.618,0.133 1.191,-0.195 0.741,-0.511 0.34,-0.87 0.327,-0.882 0.153,-1.017 0.135,-1.077 0.113,-1.151 -0.322,-1.025 -0.394,-0.897 -0.463,-0.773 -0.45,-0.633 -0.442,-0.499 -0.436,-0.39 -0.035,-0.051 0,0"
             style="fill:#231f20;fill-opacity:1;fill-rule:nonzero;stroke:none"
             id="path2714" />
        </g>
        <g
           id="g2716"
           transform="translate(314.177,258.994)">
          <path
             d="m 0,0 c 0,-0.208 -0.007,-0.397 -0.051,-0.601 -0.043,-0.194 -0.153,-0.38 -0.232,-0.563 -0.081,-0.187 -0.171,-0.37 -0.256,-0.555 -0.092,-0.202 -0.155,-0.418 -0.27,-0.607 -0.184,-0.3 -0.464,-0.614 -0.727,-0.85 -0.04,-0.035 -0.086,-0.069 -0.129,-0.099 -0.088,-0.06 -0.136,-0.048 -0.226,-0.081 -0.051,-0.019 -0.09,-0.056 -0.138,-0.08 -0.086,-0.044 -0.139,-0.027 -0.226,-0.039 -0.192,-0.027 -0.369,-0.043 -0.567,-0.046 -0.192,-0.002 -0.371,0.052 -0.561,0.079 -0.13,0.018 -0.254,0.008 -0.378,0.069 -0.12,0.061 -0.284,0.159 -0.381,0.256 -0.19,0.189 -0.418,0.365 -0.585,0.577 -0.091,0.116 -0.176,0.207 -0.283,0.307 -0.089,0.081 -0.149,0.174 -0.229,0.263 -0.128,0.14 -0.263,0.273 -0.391,0.413 -0.119,0.129 -0.251,0.259 -0.353,0.404 -0.116,0.166 -0.131,0.356 -0.129,0.551 0.002,0.236 0.017,0.458 0.054,0.691 0.041,0.257 0.13,0.459 0.221,0.701 0.095,0.252 0.18,0.503 0.292,0.749 0.102,0.223 0.261,0.422 0.414,0.611 0.139,0.172 0.267,0.346 0.423,0.506 0.05,0.051 0.522,0.349 0.83,0.349 0.227,0 0.435,-0.006 0.659,-0.053 0.184,-0.039 0.345,-0.122 0.523,-0.172 0.184,-0.053 0.322,-0.077 0.511,-0.075 0.177,0.002 0.35,-0.032 0.526,-0.042 0.171,-0.009 0.271,-0.065 0.418,-0.132 0.156,-0.071 0.235,-0.071 0.355,-0.202 0.098,-0.106 0.217,-0.218 0.291,-0.344 0.099,-0.168 0.171,-0.351 0.253,-0.528 0.072,-0.153 0.164,-0.294 0.205,-0.46 0.04,-0.159 0.1,-0.322 0.13,-0.482 C 0.022,0.35 0,0.167 0,0 M 0.954,1.018 C 0.951,1.174 0.892,1.311 0.848,1.459 0.782,1.677 0.699,1.896 0.612,2.108 0.455,2.484 0.205,2.817 -0.078,3.106 -0.202,3.232 -0.374,3.419 -0.532,3.502 -0.752,3.617 -1,3.676 -1.235,3.75 -1.473,3.825 -1.736,3.791 -1.983,3.789 -2.193,3.788 -2.395,3.826 -2.603,3.833 -3.048,3.849 -3.509,3.849 -3.948,3.779 -4.104,3.754 -4.255,3.707 -4.41,3.675 -4.525,3.651 -4.643,3.636 -4.751,3.584 -4.849,3.536 -4.949,3.5 -5.047,3.451 -5.156,3.395 -5.221,3.299 -5.327,3.241 -5.476,3.16 -5.608,3.113 -5.71,2.973 -5.802,2.846 -5.95,2.68 -5.989,2.635 -6.083,2.526 -6.196,2.393 -6.267,2.266 -6.417,1.997 -6.525,1.729 -6.647,1.446 -6.798,1.094 -6.975,0.749 -7.013,0.36 -7.048,0.009 -7.036,-0.363 -7.018,-0.715 c 0.016,-0.338 0.153,-0.677 0.245,-1.002 0.108,-0.379 0.255,-0.76 0.432,-1.113 0.085,-0.171 0.194,-0.405 0.357,-0.52 0.18,-0.127 0.379,-0.229 0.561,-0.355 0.345,-0.239 0.637,-0.358 1.044,-0.436 0.334,-0.064 0.68,-0.119 1.021,-0.124 0.321,-0.005 0.643,0.003 0.964,0.002 0.305,-0.001 0.615,-0.019 0.906,0.09 0.391,0.147 0.786,0.356 1.11,0.616 0.151,0.12 0.246,0.229 0.377,0.368 0.052,0.054 0.115,0.104 0.159,0.166 0.078,0.109 0.183,0.212 0.248,0.327 0.142,0.248 0.214,0.547 0.287,0.818 0.118,0.436 0.172,0.878 0.226,1.323 0.054,0.452 0.029,0.91 0.031,1.365 0,0.069 0.005,0.14 0.004,0.208"
             style="fill:#231f20;fill-opacity:1;fill-rule:nonzero;stroke:none"
             id="path2718" />
        </g>
        <g
           id="g2720"
           transform="translate(307.095,261.671)">
          <path
             d="m 0,0 c 0.116,-0.348 0.4,-0.482 0.657,-0.716 0.176,-0.161 0.305,-0.367 0.452,-0.552 0.177,-0.225 0.41,-0.378 0.62,-0.568 0.215,-0.194 0.411,-0.41 0.615,-0.615 0.201,-0.203 0.413,-0.402 0.603,-0.616 0.181,-0.204 0.386,-0.38 0.566,-0.582 0.127,-0.143 0.255,-0.309 0.402,-0.432 0.121,-0.101 0.174,-0.041 0.261,0.07 0.047,0.061 0.077,0.086 0.136,0.134 0.142,0.116 0.228,0.269 0.349,0.403 0.107,0.118 0.197,0.194 0.26,0.345 0.094,0.23 0.258,0.433 0.313,0.676 0.052,0.23 0.202,0.416 0.339,0.606 0.042,0.058 0.062,0.133 0.097,0.195 0.037,0.064 0.084,0.1 0.132,0.155 0.136,0.154 0.263,0.325 0.387,0.488 0.143,0.189 0.283,0.382 0.43,0.565 0.143,0.178 0.348,0.307 0.491,0.483 0.118,0.146 0.221,0.322 0.309,0.487 0.039,0.075 0.064,0.16 0.099,0.237 C 7.535,0.802 7.567,0.805 7.559,0.852 7.55,0.905 7.422,1.007 7.393,1.056 7.351,1.128 7.336,1.217 7.263,1.278 7.025,1.479 6.869,0.961 6.769,0.83 6.72,0.766 6.671,0.731 6.638,0.652 6.583,0.519 6.554,0.461 6.444,0.372 6.298,0.255 6.18,0.064 6.058,-0.081 5.952,-0.207 5.867,-0.348 5.768,-0.478 5.686,-0.585 5.584,-0.648 5.498,-0.746 5.262,-1.015 5.102,-1.359 4.981,-1.693 4.942,-1.802 4.898,-1.905 4.83,-2 4.785,-2.061 4.732,-2.118 4.678,-2.171 4.604,-2.244 4.522,-2.31 4.466,-2.398 4.386,-2.524 4.36,-2.715 4.198,-2.767 4.113,-2.794 4.003,-2.814 3.912,-2.813 3.769,-2.812 3.749,-2.818 3.67,-2.702 3.588,-2.58 3.439,-2.511 3.317,-2.428 3.085,-2.27 2.879,-2.067 2.664,-1.888 2.587,-1.824 2.555,-1.752 2.498,-1.671 2.43,-1.576 2.333,-1.498 2.25,-1.415 2.092,-1.257 1.911,-1.122 1.753,-0.966 1.702,-0.915 1.666,-0.85 1.609,-0.803 1.522,-0.732 1.428,-0.686 1.349,-0.603 1.175,-0.419 0.943,-0.295 0.756,-0.119 0.682,-0.049 0.605,-0.008 0.527,0.051 0.456,0.106 0.422,0.179 0.337,0.224 0.263,0.263 0.139,0.298 0.053,0.255 -0.029,0.214 -0.046,0.126 -0.045,0.046 -0.044,-0.02 0.055,-0.22 0,0"
             style="fill:#231f20;fill-opacity:1;fill-rule:nonzero;stroke:none"
             id="path2722" />
        </g>
        <g
           id="g2724"
           transform="translate(316.645,259.188)">
          <path
             d="m 0,0 c -0.013,-0.2 -0.036,-0.4 -0.041,-0.601 -0.008,-0.332 0.017,-0.665 0.016,-0.997 -10e-4,-0.759 0.008,-1.522 0.071,-2.279 0.054,-0.653 0.189,-1.288 0.186,-1.944 0,-0.192 0.001,-0.384 0,-0.576 0,-0.081 -0.021,-0.189 0.009,-0.265 0.097,0.106 0.095,0.421 0.117,0.539 0.052,0.278 0.174,0.509 0.249,0.778 0.156,0.566 0.22,1.18 0.262,1.763 0.029,0.408 0.078,0.814 0.093,1.222 0.013,0.346 0.034,0.692 0.041,1.038 0.004,0.236 0.056,0.44 0.098,0.669 0.057,0.309 0.024,0.642 0.024,0.955 -10e-4,0.356 -10e-4,0.712 0,1.068 0,0.854 0.002,1.708 0.002,2.562 0,0.268 0.02,0.549 0.002,0.816 C 1.121,4.871 1.087,4.998 1.071,5.12 1.049,5.279 1.002,5.615 0.882,5.671 0.802,5.709 0.657,5.661 0.581,5.623 0.511,5.588 0.439,5.55 0.374,5.499 0.326,5.461 0.282,5.391 0.242,5.367 0.251,5.323 0.234,5.258 0.23,5.213 0.221,5.069 0.212,4.925 0.203,4.781 0.172,4.276 0.143,3.772 0.117,3.267 0.064,2.236 0.03,1.205 0.008,0.172 0.006,0.115 0.004,0.057 0,0"
             style="fill:#231f20;fill-opacity:1;fill-rule:nonzero;stroke:none"
             id="path2726" />
        </g>
        <g
           id="g2728"
           transform="translate(304.433,264.049)">
          <path
             d="M 0,0 C -0.009,-0.502 -0.004,-1.007 0.021,-1.508 0.055,-2.171 0.139,-2.806 0.142,-3.472 0.144,-3.788 0.196,-4.147 0.12,-4.458 0.103,-4.53 0.072,-4.596 0.061,-4.669 0.023,-4.926 0.07,-5.215 0.09,-5.472 c 0.044,-0.56 0.119,-1.118 0.185,-1.675 0.105,-0.879 0.279,-1.75 0.389,-2.628 0.033,-0.264 0.115,-0.515 0.12,-0.781 0.004,-0.166 -0.018,-0.333 0.007,-0.497 0.02,-0.13 -0.004,-0.47 0.127,-0.556 0.075,-0.05 0.116,0.084 0.164,0.117 0.039,0.028 0.059,0.003 0.096,0.034 0.02,0.086 0.037,0.173 0.049,0.261 0.033,0.145 0.073,0.288 0.12,0.429 0.14,0.501 0.213,1.036 0.243,1.555 0.03,0.499 -0.056,1.034 0.039,1.523 0.044,0.229 -0.02,0.497 -0.041,0.728 C 1.564,-6.69 1.538,-6.418 1.505,-6.147 1.419,-5.425 1.291,-4.71 1.236,-3.982 1.213,-3.679 1.231,-3.37 1.204,-3.068 1.187,-2.863 1.15,-2.662 1.121,-2.459 1.045,-1.914 1.028,-1.323 1.032,-0.769 1.036,-0.139 0.862,1 0.788,0.986 0.697,0.968 0.601,1 0.509,0.983 0.399,0.963 0.289,0.909 0.182,0.881 0.098,0.858 -0.001,0.899 -0.079,0.856 -0.081,0.84 0.004,0.218 0,0"
             style="fill:#231f20;fill-opacity:1;fill-rule:nonzero;stroke:none"
             id="path2730" />
        </g>
        <g
           id="g2732"
           transform="translate(307.24,265.381)">
          <path
             d="m 0,0 c 0.153,0 0.305,-0.001 0.458,0.001 0.233,0.003 0.449,-0.054 0.68,-0.083 0.253,-0.031 0.498,0.002 0.749,0.027 0.173,0.018 0.347,-0.003 0.52,0.018 0.282,0.034 0.537,0.098 0.824,0.071 C 3.405,0 3.58,-0.006 3.755,0.015 3.862,0.045 3.968,0.075 4.075,0.104 4.308,0.167 4.545,0.125 4.781,0.132 5.025,0.139 5.235,0.245 5.469,0.259 5.679,0.272 5.935,0.256 6.143,0.219 6.379,0.178 6.576,0.034 6.821,0.006 6.982,-0.013 7.146,0 7.308,0 7.41,0 7.511,0 7.613,0 7.696,0 7.816,-0.025 7.895,-0.003 7.97,0.017 8.052,0.079 8.1,0.138 8.178,0.232 8.161,0.647 8.078,0.754 8.055,0.783 6.978,1.029 6.563,1.176 6.359,1.248 6.153,1.241 5.942,1.264 5.814,1.278 5.69,1.306 5.561,1.295 5.438,1.285 5.317,1.25 5.193,1.252 4.97,1.255 4.753,1.202 4.533,1.204 4.423,1.205 4.316,1.238 4.207,1.249 4.047,1.266 3.882,1.253 3.721,1.253 3.445,1.252 3.149,1.303 2.88,1.234 2.776,1.207 2.679,1.199 2.572,1.218 2.365,1.254 2.171,1.251 1.961,1.254 1.684,1.258 1.456,1.122 1.186,1.116 1.02,1.112 0.852,1.119 0.685,1.119 0.567,1.119 0.447,1.12 0.329,1.119 0.21,1.117 0.107,1.156 -0.008,1.165 -0.104,1.172 -0.203,1.162 -0.298,1.163 -0.401,1.165 -0.431,1.122 -0.49,1.046 -0.551,0.967 -0.641,0.899 -0.682,0.807 -0.683,0.806 -0.707,0.705 -0.706,0.709 -0.715,0.65 -0.714,0.595 -0.713,0.534 -0.713,0.48 -0.057,0 0,0"
             style="fill:#231f20;fill-opacity:1;fill-rule:nonzero;stroke:none"
             id="path2734" />
        </g>
        <g
           id="g2736"
           transform="translate(314.55,258.624)">
          <path
             d="m 0,0 c -0.311,0.002 -0.667,-0.118 -0.981,-0.038 -0.007,0.08 0.131,0.206 0.182,0.27 0.117,0.143 0.241,0.305 0.418,0.351 0.085,0.022 0.568,0.08 0.56,0.222"
             style="fill:#231f20;fill-opacity:1;fill-rule:nonzero;stroke:none"
             id="path2738" />
        </g>
        <g
           id="g2740"
           transform="translate(307.793,258.848)">
          <path
             d="M 0,0 C 0.169,0.02 0.367,-0.108 0.515,-0.168 0.622,-0.211 0.733,-0.274 0.844,-0.305 0.891,-0.319 0.933,-0.308 0.97,-0.347 0.841,-0.378 0.676,-0.475 0.563,-0.544 0.421,-0.629 0.279,-0.725 0.142,-0.817 0.068,-0.868 -0.063,-1.036 -0.167,-0.978 c 0.029,0.059 0.1,0.094 0.167,0.083"
             style="fill:#231f20;fill-opacity:1;fill-rule:nonzero;stroke:none"
             id="path2742" />
        </g>
        <g
           id="g2744"
           transform="translate(310.925,255.268)">
          <path
             d="M 0,0 C 0.288,0.309 0.261,0.785 0.484,1.141 0.529,1.124 0.603,1.072 0.638,1.035 0.68,0.992 0.696,0.897 0.719,0.843 0.764,0.736 0.825,0.637 0.869,0.531 0.9,0.457 0.915,0.376 0.94,0.299 0.948,0.273 1.013,0.156 1.02,0.126 1.043,0.036 0.984,-0.104 1.076,-0.163 1.073,-0.109 1.074,-0.054 1.074,0"
             style="fill:#231f20;fill-opacity:1;fill-rule:nonzero;stroke:none"
             id="path2746" />
        </g>
        <g
           id="g2748"
           transform="translate(310.791,262.204)">
          <path
             d="m 0,0 c 0.094,-0.268 0.253,-0.492 0.384,-0.744 0.033,-0.064 0.083,-0.229 0.172,-0.173 0.032,0.02 0.049,0.14 0.057,0.173 0.026,0.107 0.059,0.198 0.104,0.299 0.058,0.129 0.075,0.293 0.178,0.4"
             style="fill:#231f20;fill-opacity:1;fill-rule:nonzero;stroke:none"
             id="path2750" />
        </g>
      </g>
    </g>
  </g>
</svg>
