<?xml version="1.0" encoding="UTF-8" standalone="no"?>
<!-- Created with Inkscape (http://www.inkscape.org/) -->

<svg
   width="3.6724062mm"
   height="6.8160014mm"
   viewBox="0 0 3.6724062 6.8160014"
   version="1.1"
   id="svg8455"
   inkscape:version="1.2.1 (9c6d41e4, 2022-07-14)"
   sodipodi:docname="the_gathering.svg"
   xmlns:inkscape="http://www.inkscape.org/namespaces/inkscape"
   xmlns:sodipodi="http://sodipodi.sourceforge.net/DTD/sodipodi-0.dtd"
   xmlns="http://www.w3.org/2000/svg"
   xmlns:svg="http://www.w3.org/2000/svg">
  <sodipodi:namedview
     id="namedview8457"
     pagecolor="#505050"
     bordercolor="#eeeeee"
     borderopacity="1"
     inkscape:showpageshadow="0"
     inkscape:pageopacity="0"
     inkscape:pagecheckerboard="0"
     inkscape:deskcolor="#505050"
     inkscape:document-units="mm"
     showgrid="false"
     inkscape:zoom="0.70199214"
     inkscape:cx="105.41429"
     inkscape:cy="92.593629"
     inkscape:window-width="1390"
     inkscape:window-height="938"
     inkscape:window-x="0"
     inkscape:window-y="25"
     inkscape:window-maximized="0"
     inkscape:current-layer="layer1" />
  <defs
     id="defs8452">
    <clipPath
       clipPathUnits="userSpaceOnUse"
       id="clipPath1354">
      <path
         d="m 52.177,100.174 h 24.699 v 24.699 H 52.177 Z"
         id="path1352" />
    </clipPath>
  </defs>
  <g
     inkscape:label="Layer 1"
     inkscape:groupmode="layer"
     id="layer1"
     transform="translate(-77.313543,-123.9854)">
    <g
       id="g1348"
       transform="matrix(0.35277777,0,0,-0.35277777,56.386485,167.08943)">
      <g
         id="g1350"
         clip-path="url(#clipPath1354)">
        <g
           id="g1356"
           transform="translate(62.8294,112.512)">
          <path
             d="m 0,0 c -0.023,-0.245 0.058,-0.403 0.19,-0.615 0.338,-0.543 0.807,-0.966 1.12,-1.53 0.364,-0.656 0.67,-1.343 0.993,-2.019 0.319,-0.669 0.788,-1.233 1.225,-1.828 0.267,-0.363 0.544,-0.719 0.809,-1.084 0.146,-0.201 0.278,-0.413 0.421,-0.616 0.02,-0.028 0.172,-0.269 0.252,-0.334 0.324,-0.262 0.508,-0.614 0.744,-0.951 0.111,-0.158 0.252,-0.367 0.405,-0.491 0.069,-0.055 0.189,-0.139 0.273,-0.17 0.143,-0.053 0.267,0.111 0.338,0.215 0.073,0.108 0.153,0.232 0.126,0.369 -0.021,0.106 -0.118,0.221 -0.168,0.313 -0.11,0.201 -0.176,0.402 -0.236,0.621 -0.065,0.235 -0.198,0.425 -0.302,0.643 -0.105,0.218 -0.212,0.393 -0.374,0.572 -0.399,0.437 -0.639,1.042 -0.881,1.574 -0.28,0.615 -0.593,1.206 -0.906,1.805 -0.142,0.27 -0.285,0.55 -0.406,0.83 -0.122,0.28 -0.196,0.579 -0.307,0.863 -0.135,0.346 -0.375,0.64 -0.539,0.971 C 2.652,-0.611 2.529,-0.375 2.369,-0.145 2.312,-0.063 2.248,0.014 2.194,0.098 2.112,0.223 2.056,0.362 1.971,0.484 1.93,0.543 1.881,0.595 1.845,0.657 1.811,0.716 1.795,0.771 1.746,0.822 1.667,0.902 1.54,0.941 1.444,0.994 1.206,1.125 0.907,1.252 0.634,1.278 0.331,1.307 -0.119,1.239 -0.24,0.912 -0.298,0.756 -0.326,0.477 -0.27,0.323 -0.237,0.231 -0.166,0.182 -0.118,0.101 -0.073,0.025 -0.077,-0.23 0,0"
             style="fill:#231f20;fill-opacity:1;fill-rule:nonzero;stroke:none"
             id="path1358" />
        </g>
        <g
           id="g1360"
           transform="translate(67.4,114.77)">
          <path
             d="M 0,0 C -0.043,0.156 -0.034,0.318 -0.07,0.475 -0.147,0.809 -0.335,1.209 -0.613,1.469 -0.68,1.532 -0.767,1.575 -0.84,1.632 -1.063,1.807 -1.09,2.088 -1.211,2.31 -1.31,2.493 -1.408,2.645 -1.601,2.773 -1.748,2.87 -1.881,2.959 -1.992,3.088 -2.489,3.668 -2.589,4.413 -2.858,5.068 -2.938,5.263 -2.977,5.467 -3.053,5.663 -3.105,5.796 -3.185,5.925 -3.218,6.062 -3.28,6.32 -3.325,6.611 -3.334,6.873 -3.339,7.02 -3.289,7.174 -3.305,7.318 -3.323,7.478 -3.41,7.41 -3.482,7.324 -3.581,7.206 -3.706,7.065 -3.768,6.931 -3.888,6.667 -3.934,6.384 -4.047,6.118 -4.125,5.934 -4.218,5.753 -4.295,5.568 -4.344,5.449 -4.365,5.327 -4.432,5.212 -4.486,5.119 -5.277,4.024 -5.569,4.465 -5.778,4.78 -5.592,5.099 -5.705,5.422 -5.742,5.527 -5.817,5.629 -5.839,5.737 -5.851,5.798 -5.814,5.879 -5.915,5.871 -5.949,5.869 -6.012,5.812 -6.035,5.792 -6.184,5.656 -6.19,5.429 -6.221,5.257 -6.282,4.92 -6.421,4.609 -6.499,4.276 -6.535,4.122 -6.598,4.034 -6.696,3.912 -6.758,3.833 -6.79,3.719 -6.829,3.629 -6.909,3.445 -6.882,3.21 -6.894,3.015 -6.91,2.787 -6.901,2.546 -6.94,2.32 -6.957,2.226 -6.989,2.127 -7.024,2.029 -7.067,2.145 -7.114,2.259 -7.175,2.368 -7.309,2.606 -7.279,2.854 -7.338,3.112 -7.381,3.298 -7.487,3.457 -7.504,3.638 -7.607,3.635 -7.637,3.483 -7.657,3.422 -7.714,3.247 -7.764,3.067 -7.818,2.891 -7.924,2.542 -7.936,2.19 -7.869,1.836 -7.83,1.627 -7.792,1.321 -7.914,1.117 -7.959,1.041 -8.017,0.981 -8.042,0.896 -8.12,0.638 -8.06,0.332 -8.002,0.074 c 0.06,-0.27 0.102,-0.556 0.26,-0.8 0.081,-0.126 0.159,-0.237 0.208,-0.376 0.042,-0.118 0.066,-0.234 0.143,-0.343 0.057,-0.081 0.14,-0.134 0.203,-0.209 0.057,-0.068 0.076,-0.15 0.121,-0.224 0.022,-0.037 0.049,-0.072 0.075,-0.107 0.039,-0.209 0.014,-0.473 0.128,-0.659 0.109,-0.178 0.211,-0.378 0.417,-0.489 0.253,-0.136 0.449,-0.314 0.646,-0.5 0.203,-0.192 0.613,-0.138 0.486,-0.013 -0.116,0.114 -0.263,0.206 -0.347,0.339 -0.073,0.115 -0.08,0.25 -0.102,0.376 -0.027,0.15 -0.073,0.298 -0.097,0.448 -0.03,0.195 0.012,0.368 0.044,0.558 0.038,0.221 -0.011,0.442 -0.139,0.638 -0.159,0.241 -0.151,0.477 -0.13,0.747 0.007,0.085 0.048,0.152 0.06,0.235 0.017,0.125 -0.003,0.262 -0.003,0.389 0.001,0.345 0.017,0.66 0.096,1.001 0.065,0.28 0.092,0.565 0.16,0.844 0.033,0.139 0.107,0.264 0.152,0.399 0.043,0.134 0.036,0.286 0.091,0.414 0.082,-0.045 0.149,-0.19 0.204,-0.27 0.091,-0.13 0.18,-0.243 0.293,-0.36 0.104,-0.108 0.146,-0.182 0.304,-0.237 0.079,-0.027 0.143,-0.046 0.214,-0.084 0.087,-0.047 0.143,-0.121 0.254,-0.124 0.035,0.035 0.02,0.095 0.027,0.139 0.012,0.086 0.051,0.176 0.071,0.262 0.046,0.207 0.098,0.412 0.155,0.617 0.069,0.249 0.164,0.484 0.253,0.729 0.029,0.081 0.039,0.276 0.144,0.311 0.167,-0.321 0.208,-0.702 0.298,-1.042 0.091,-0.343 0.163,-0.604 0.442,-0.854 0.22,-0.197 0.389,-0.426 0.512,-0.673 0.156,-0.313 0.223,-0.64 0.399,-0.947 0.108,-0.191 0.242,-0.379 0.334,-0.576 0.106,-0.228 0.154,-0.483 0.234,-0.719 0.084,-0.25 0.18,-0.491 0.297,-0.732 0.095,-0.195 0.185,-0.38 0.243,-0.585 0.035,-0.124 0.107,-0.274 0.179,-0.385 0.02,-0.029 0.259,-0.36 0.267,-0.352 0.08,0.079 0.161,0.212 0.21,0.309 0.135,0.27 0.211,0.566 0.231,0.867 C 0.079,-1.306 0.179,-0.646 0,0"
             style="fill:#231f20;fill-opacity:1;fill-rule:nonzero;stroke:none"
             id="path1362" />
        </g>
      </g>
    </g>
  </g>
</svg>
