<?xml version="1.0" encoding="UTF-8" standalone="no"?>
<!-- Created with Inkscape (http://www.inkscape.org/) -->

<svg
   width="21.067005"
   height="24"
   viewBox="0 0 5.5739784 6.35"
   version="1.1"
   id="svg26176"
   inkscape:version="1.2.1 (9c6d41e4, 2022-07-14)"
   sodipodi:docname="swarm-of-assimilation.svg"
   xmlns:inkscape="http://www.inkscape.org/namespaces/inkscape"
   xmlns:sodipodi="http://sodipodi.sourceforge.net/DTD/sodipodi-0.dtd"
   xmlns="http://www.w3.org/2000/svg"
   xmlns:svg="http://www.w3.org/2000/svg">
  <sodipodi:namedview
     id="namedview26178"
     pagecolor="#505050"
     bordercolor="#eeeeee"
     borderopacity="1"
     inkscape:showpageshadow="0"
     inkscape:pageopacity="0"
     inkscape:pagecheckerboard="0"
     inkscape:deskcolor="#505050"
     inkscape:document-units="mm"
     showgrid="false"
     inkscape:zoom="0.7046647"
     inkscape:cx="66.698388"
     inkscape:cy="142.62102"
     inkscape:window-width="1390"
     inkscape:window-height="941"
     inkscape:window-x="0"
     inkscape:window-y="25"
     inkscape:window-maximized="0"
     inkscape:current-layer="layer1" />
  <defs
     id="defs26173">
    <clipPath
       clipPathUnits="userSpaceOnUse"
       id="clipPath18751">
      <path
         d="m 113.65,129.58 h 24.7 v 24.699 h -24.7 z"
         id="path18749" />
    </clipPath>
  </defs>
  <g
     inkscape:label="Layer 1"
     inkscape:groupmode="layer"
     id="layer1"
     transform="translate(-87.32679,-110.96912)">
    <g
       id="g18745"
       transform="matrix(0.26741565,0,0,-0.26741565,56.36193,152.13767)">
      <g
         id="g18747"
         clip-path="url(#clipPath18751)">
        <g
           id="g18753"
           transform="translate(133.222,149.479)">
          <path
             d="M 0,0 C -0.313,0.11 -0.583,0.324 -0.928,0.304 -1.167,0.291 -1.36,0.127 -1.579,0.05 -1.743,0.055 -1.907,0.063 -2.07,0.095 -2.264,0.134 -2.493,0.114 -2.687,0.065 -2.903,0.01 -3.12,-0.049 -3.338,-0.103 c -0.217,-0.053 -0.339,-0.045 -0.507,-0.2 -0.423,-0.391 -0.624,-0.928 -0.722,-1.49 -0.037,-0.212 -0.018,-0.418 -0.027,-0.632 -0.005,-0.115 -0.005,-0.223 0.004,-0.341 0.01,-0.142 -0.008,-0.255 0.005,-0.392 0.025,-0.271 0.109,-0.552 0.178,-0.818 0.063,-0.241 0.157,-0.439 0.272,-0.654 0.086,-0.162 0.203,-0.285 0.329,-0.427 0.171,-0.191 0.36,-0.248 0.599,-0.319 0.236,-0.069 0.455,-0.166 0.692,-0.233 0.169,-0.049 0.404,-0.136 0.582,-0.139 0.058,-10e-4 0.099,0.023 0.159,0.009 0.072,-0.017 0.123,-0.067 0.197,-0.087 0.115,-0.03 0.236,-0.024 0.353,-0.063 0.102,-0.034 0.137,-0.087 0.22,-0.143 0.086,-0.057 0.157,-0.087 0.235,-0.17 0.16,-0.169 0.266,-0.146 0.481,-0.21 0.136,-0.042 0.26,-0.047 0.398,-0.078 0.099,-0.023 0.185,-0.07 0.286,-0.087 0.212,-0.034 0.427,-0.066 0.636,-0.128 0.236,-0.069 0.509,-0.129 0.733,-0.235 0.196,-0.094 0.324,-0.13 0.495,0.014 0.105,0.089 0.203,0.186 0.305,0.279 0.184,0.166 0.264,0.277 0.386,0.485 0.132,0.225 0.262,0.471 0.335,0.724 C 3.361,-5.174 3.4,-4.93 3.412,-4.651 3.436,-4.09 3.308,-3.632 3.093,-3.126 2.982,-2.865 2.85,-2.605 2.717,-2.354 2.545,-2.03 2.242,-1.77 1.995,-1.498 1.746,-1.225 1.52,-0.943 1.219,-0.73 1.05,-0.611 0.907,-0.456 0.728,-0.354 0.5,-0.223 0.247,-0.087 0,0"
             style="fill:#231f20;fill-opacity:1;fill-rule:nonzero;stroke:none"
             id="path18755" />
        </g>
        <g
           id="g18757"
           transform="translate(134.245,142.423)">
          <path
             d="M 0,0 C -0.107,0.041 -0.201,0.095 -0.304,0.134 -0.381,0.164 -0.497,0.181 -0.56,0.241 L -0.602,0.218 C -0.993,0.033 -1.168,0.053 -1.291,0.031 -1.434,0.005 -1.575,-0.032 -1.707,-0.08 -1.843,-0.13 -1.92,-0.221 -2.03,-0.317 c -0.134,-0.117 -0.082,-0.202 -0.126,-0.364 -0.064,-0.236 -0.042,-0.564 0.02,-0.804 0.079,-0.308 0.238,-0.587 0.413,-0.855 0.056,-0.086 0.104,-0.086 0.115,-0.2 0.01,-0.105 -0.031,-0.155 -0.077,-0.24 -0.017,-0.032 -0.045,-0.082 -0.064,-0.116 -0.024,-0.044 -0.055,-0.116 -0.083,-0.157 -0.092,-0.133 -0.188,-0.209 -0.205,-0.391 -0.011,-0.128 0.036,-0.249 0.066,-0.362 0.038,-0.143 0.061,-0.262 0.163,-0.371 0.09,-0.096 0.178,-0.195 0.267,-0.293 0.101,-0.111 0.203,-0.223 0.305,-0.335 0.078,-0.086 0.203,-0.292 0.326,-0.292 -0.026,0.067 -0.086,0.106 -0.132,0.162 -0.044,0.052 -0.05,0.099 -0.081,0.156 -0.048,0.089 -0.111,0.167 -0.142,0.256 -0.061,0.173 -0.186,0.389 -0.142,0.577 0.048,0.21 0.133,0.401 0.228,0.591 0.058,0.117 0.158,0.159 0.227,0.261 0.073,0.108 0.058,0.198 0.225,0.239 -0.054,0.078 -0.044,0.222 -0.064,0.312 -0.026,0.124 0.003,0.275 0.019,0.403 0.018,0.141 0.065,0.271 0.122,0.398 0.044,0.098 0.073,0.262 0.131,0.34 0.057,-0.021 0.087,-0.139 0.114,-0.193 0.051,-0.101 0.033,-0.094 0.048,-0.202 0.009,-0.072 0.059,-0.149 0.072,-0.225 0.013,-0.073 0.028,-0.148 0.031,-0.223 0.002,-0.059 0.004,-0.142 -0.008,-0.199 -0.006,-0.028 -0.043,-0.05 -0.048,-0.078 -0.005,-0.028 0.011,-0.074 0.001,-0.1 -0.024,-0.064 -0.068,-0.111 -0.092,-0.174 -0.035,-0.095 -0.042,-0.162 -0.138,-0.221 0.129,0.017 0.249,-0.038 0.382,-0.023 0.093,0.01 0.168,0.045 0.249,0.077 0.11,0.044 0.216,0.075 0.281,0.178 0.062,0.099 0.136,0.167 0.203,0.262 0.028,0.039 0.041,0.088 0.085,0.136 0.041,0.046 0.071,0.088 0.106,0.136 0.071,0.096 0.161,0.209 0.218,0.311 0.043,0.076 0.053,0.191 0.071,0.278 0.019,0.083 0.039,0.158 0.06,0.243 0.045,0.187 0.087,0.431 0.021,0.616 C 1.081,-0.645 0.835,-0.389 0.689,-0.292 0.487,-0.158 0.227,-0.087 0,0"
             style="fill:#231f20;fill-opacity:1;fill-rule:nonzero;stroke:none"
             id="path18759" />
        </g>
        <g
           id="g18761"
           transform="translate(131.115,131.982)">
          <path
             d="M 0,0 C 0.146,0.144 0.303,0.345 0.406,0.524 0.493,0.673 0.519,0.837 0.582,0.995 0.513,0.91 0.277,0.813 0.178,0.773 -0.008,0.699 -0.187,0.618 -0.377,0.559 -0.753,0.441 -1.104,0.341 -1.499,0.342 -1.652,0.342 -1.804,0.356 -1.955,0.353 -2.072,0.35 -2.111,0.373 -2.22,0.416 -2.34,0.464 -2.379,0.481 -2.471,0.586 -2.55,0.676 -2.645,0.735 -2.741,0.8 -2.832,0.862 -2.9,0.887 -2.974,0.97 -3.049,1.055 -3.127,1.138 -3.203,1.222 -3.355,1.388 -3.507,1.555 -3.658,1.721 -3.85,1.932 -4.042,2.142 -4.234,2.353 c -0.201,0.221 -0.454,0.433 -0.61,0.688 -0.064,0.106 -0.107,0.184 -0.19,0.275 -0.141,0.152 -0.293,0.276 -0.356,0.473 -0.044,0.137 -0.045,0.231 -0.031,0.372 0.013,0.136 -0.004,0.272 0.007,0.411 0.015,0.199 0.046,0.398 0.064,0.597 0.02,0.224 0.086,0.426 0.125,0.647 0.054,0.312 0.202,0.559 0.334,0.845 0.062,0.132 0.162,0.24 0.234,0.366 0.02,0.035 0.045,0.064 0.06,0.096 -0.012,0.031 -0.011,0.062 0.004,0.095 0.036,0.051 0.065,0.105 0.086,0.165 0.059,0.184 0.065,0.404 0.063,0.596 -0.001,0.183 0.052,0.355 0.06,0.537 0.009,0.164 -0.036,0.325 -0.025,0.487 0.01,0.169 0.054,0.303 0.046,0.477 -0.007,0.167 0.01,0.331 0.003,0.499 -0.007,0.181 -0.027,0.382 0.042,0.555 0.062,0.155 0.166,0.326 0.246,0.473 0.185,0.343 0.388,0.658 0.539,1.025 0.077,0.186 0.128,0.366 0.157,0.566 0.02,0.136 0.022,0.299 0.099,0.419 0.06,0.093 0.129,0.113 0.234,0.079 0.113,-0.035 0.221,-0.243 0.289,-0.053 0.017,0.045 -0.017,0.101 -0.015,0.148 0.004,0.094 0.028,0.142 0.014,0.239 -0.027,0.188 -0.116,0.342 -0.168,0.524 -0.05,0.177 -0.121,0.339 -0.207,0.498 -0.026,0.047 -0.073,0.119 -0.095,0.165 -0.029,0.063 0.004,0.117 0.056,0.277 C -3.342,14.88 -3.484,14.881 -3.652,14.829 -3.941,14.74 -4.238,14.693 -4.526,14.612 -4.804,14.534 -5.085,14.426 -5.361,14.333 -5.449,14.304 -5.55,14.278 -5.633,14.239 -5.773,14.175 -5.922,14.148 -6.059,14.087 -6.164,14.04 -6.258,13.998 -6.342,13.919 -6.46,13.806 -6.59,13.748 -6.72,13.655 -7.02,13.44 -7.125,13.071 -7.324,12.775 -7.463,12.568 -7.599,12.361 -7.747,12.162 -7.915,11.936 -8.008,11.682 -8.183,11.458 -8.37,11.218 -8.446,10.913 -8.59,10.646 -8.773,10.309 -8.879,9.93 -9.028,9.577 -9.169,9.243 -9.306,8.907 -9.468,8.584 -9.54,8.441 -9.571,8.283 -9.607,8.128 -9.647,7.952 -9.734,7.804 -9.787,7.634 -9.96,7.082 -9.976,6.491 -10.115,5.933 c -0.049,-0.196 -0.002,-0.363 0.004,-0.562 0.004,-0.124 0.058,-0.175 0.102,-0.292 0.04,-0.107 0.045,-0.213 0.062,-0.324 0.034,-0.22 0.124,-0.408 0.184,-0.621 0.067,-0.24 0.122,-0.478 0.206,-0.714 0.149,-0.422 0.313,-0.831 0.538,-1.217 0.077,-0.131 0.097,-0.27 0.168,-0.402 0.111,-0.205 0.284,-0.38 0.412,-0.575 0.097,-0.147 0.179,-0.262 0.301,-0.392 0.181,-0.193 0.308,-0.411 0.476,-0.611 0.224,-0.267 0.476,-0.515 0.708,-0.775 0.195,-0.218 0.408,-0.41 0.686,-0.502 0.513,-0.169 1.027,-0.365 1.542,-0.508 0.077,-0.022 0.141,-0.078 0.218,-0.097 0.057,-0.014 0.098,0.011 0.155,0 0.144,-0.027 0.272,-0.07 0.417,-0.082 0.327,-0.025 0.595,-0.096 0.904,0.066 0.24,0.127 0.369,0.419 0.642,0.495 0.408,0.113 0.847,0.102 1.243,0.303 C -0.723,-0.661 -0.339,-0.335 0,0"
             style="fill:#231f20;fill-opacity:1;fill-rule:nonzero;stroke:none"
             id="path18763" />
        </g>
        <g
           id="g18765"
           transform="translate(127.476,141.681)">
          <path
             d="M 0,0 C 0.054,-0.023 0.092,-0.055 0.144,-0.083 0.193,-0.109 0.252,-0.138 0.3,-0.167 0.374,-0.211 0.417,-0.257 0.506,-0.29 0.557,-0.309 0.678,-0.33 0.713,-0.373 0.779,-0.455 0.661,-0.58 0.6,-0.666 0.535,-0.758 0.304,-0.913 0.365,-1.05 c 0.146,0.012 0.293,0.025 0.438,0.034 0.132,0.009 0.344,0.078 0.447,-0.039 -0.071,-0.075 -0.093,-0.207 -0.136,-0.299 -0.056,-0.12 -0.1,-0.179 -0.101,-0.313 -10e-4,-0.145 0.03,-0.136 0.173,-0.109 0.209,0.038 0.392,0.14 0.596,0.195 0.166,0.044 0.179,0.01 0.292,-0.115 0.043,-0.048 0.166,-0.237 0.23,-0.239 0.085,-0.004 0.215,0.199 0.252,0.257 0.068,0.104 0.117,0.174 0.154,0.295 0.017,0.058 0.053,0.076 0.033,0.137 C 2.731,-1.209 2.651,-1.151 2.622,-1.12 2.546,-1.038 2.427,-0.944 2.371,-0.848 2.318,-0.757 2.292,-0.649 2.239,-0.55 2.187,-0.452 2.095,-0.373 2.019,-0.29 1.69,0.072 1.299,0.431 1.079,0.845 0.973,1.044 0.862,1.227 0.763,1.433 0.718,1.529 0.698,1.662 0.662,1.77 0.632,1.86 0.557,1.965 0.565,2.063 0.115,1.987 0.25,0.945 0.273,0.802 0.289,0.708 0.323,0.649 0.314,0.551 0.306,0.461 0.277,0.45 0.233,0.374 0.206,0.328 0.207,0.242 0.179,0.196 0.132,0.119 0.042,0.081 0,0"
             style="fill:#231f20;fill-opacity:1;fill-rule:nonzero;stroke:none"
             id="path18767" />
        </g>
        <g
           id="g18769"
           transform="translate(132.632,137.275)">
          <path
             d="m 0,0 c -0.092,0.101 -0.122,0.175 -0.186,0.291 -0.13,0.237 -0.289,0.465 -0.428,0.701 -0.084,0.143 -0.18,0.21 -0.243,0.369 C -0.908,1.49 -0.983,1.642 -1.06,1.755 -1.301,2.112 -1.682,2.421 -2.164,2.627 -2.204,2.517 -2.265,2.453 -2.335,2.356 -2.42,2.239 -2.485,2.112 -2.582,2.005 -2.542,1.93 -2.467,1.887 -2.42,1.818 -2.368,1.742 -2.351,1.662 -2.292,1.587 -2.224,1.502 -1.811,1.181 -1.932,1.069 -1.976,1.028 -2.046,1.029 -2.099,1.002 -2.136,0.983 -2.164,0.943 -2.203,0.922 -2.217,0.915 -2.262,0.919 -2.283,0.911 -2.34,0.889 -2.384,0.859 -2.445,0.838 -2.517,0.814 -2.618,0.799 -2.679,0.77 -2.586,0.579 -2.383,0.46 -2.2,0.373 c 0.173,-0.082 0.386,-0.24 0.591,-0.235 -0.084,-0.063 -0.201,-0.14 -0.207,-0.254 -0.007,-0.153 0.148,-0.227 0.277,-0.251 0.302,-0.055 0.668,-0.011 0.938,-0.163 -0.015,-0.096 -0.027,-0.18 -0.049,-0.273 -0.015,-0.066 -0.044,-0.235 -0.027,-0.291 0.065,-0.223 0.686,-0.034 0.827,0.004 0.117,0.033 0.23,0.064 0.328,0.145 0.059,0.048 0.223,0.155 0.238,0.229 0.014,0.077 -0.125,0.235 -0.175,0.29 -0.079,0.087 -0.174,0.15 -0.269,0.214 C 0.163,-0.138 0.091,-0.1 0,0"
             style="fill:#231f20;fill-opacity:1;fill-rule:nonzero;stroke:none"
             id="path18771" />
        </g>
        <g
           id="g18773"
           transform="translate(134.079,136.829)">
          <path
             d="M 0,0 C 0.069,0.011 0.203,0.048 0.261,0.081 0.311,0.11 0.333,0.156 0.386,0.182 0.412,0.196 0.454,0.193 0.488,0.213 0.577,0.265 0.625,0.374 0.723,0.416 0.801,0.45 0.902,0.423 0.969,0.491 1.004,0.526 1.006,0.586 1.032,0.627 1.107,0.749 1.178,0.79 1.194,0.935 1.205,1.036 1.231,1.14 1.234,1.24 1.236,1.305 1.227,1.469 1.128,1.477 1.049,1.483 0.989,1.299 0.967,1.248 0.875,1.04 0.782,0.865 0.611,0.711 0.532,0.64 0.45,0.531 0.36,0.478 0.305,0.446 0.247,0.446 0.194,0.412 0.147,0.382 0.119,0.324 0.072,0.293 -0.026,0.228 -0.136,0.243 -0.245,0.221 -0.41,0.187 -0.415,0.153 -0.532,0.283 L -0.501,0.081 C -0.398,-0.011 -0.134,-0.021 0,0"
             style="fill:#231f20;fill-opacity:1;fill-rule:nonzero;stroke:none"
             id="path18775" />
        </g>
        <g
           id="g18777"
           transform="translate(133.59,136.308)">
          <path
             d="m 0,0 c 0.084,-0.096 0.185,-0.125 0.272,-0.212 0.073,-0.073 0.1,-0.096 0.193,-0.13 0.168,-0.062 0.286,-0.086 0.474,-0.058 0.17,0.025 0.445,0.046 0.576,0.167 0.116,0.108 0.329,0.416 0.281,0.587 C 1.724,0.367 1.71,0.314 1.661,0.283 1.568,0.225 1.509,0.236 1.403,0.208 1.267,0.17 1.096,0.098 0.973,0.026 0.874,-0.031 0.87,-0.061 0.765,-0.08 0.68,-0.095 0.574,-0.065 0.487,-0.068 0.384,-0.07 0.243,-0.086 0.16,-0.007 Z"
             style="fill:#231f20;fill-opacity:1;fill-rule:nonzero;stroke:none"
             id="path18779" />
        </g>
        <g
           id="g18781"
           transform="translate(126.24,138.188)">
          <path
             d="m 0,0 c -0.066,-0.084 -0.129,-0.164 -0.195,-0.246 -0.079,-0.098 -0.069,-0.088 0.015,-0.183 0.095,-0.109 0.168,-0.167 0.279,-0.242 0.06,-0.04 0.172,-0.134 0.204,-0.2 0.066,-0.137 -0.089,-0.245 -0.099,-0.37 0.178,-0.055 0.347,-0.006 0.52,-0.026 0.028,-0.019 0.055,-0.039 0.082,-0.06 0.048,-0.009 0.097,-0.016 0.145,-0.022 0.053,-0.026 0.131,-0.101 0.144,-0.161 0.022,-0.101 -0.057,-0.212 -0.059,-0.317 -0.002,-0.17 0.132,-0.181 0.295,-0.177 0.153,0.004 0.3,0.016 0.456,0.002 0.131,-0.011 0.289,-0.081 0.421,-0.062 0.124,0.018 0.242,0.153 0.333,0.246 0.077,0.078 0.117,0.291 0.202,0.334 -0.209,0.031 -0.441,0.18 -0.625,0.28 C 2.017,-1.148 1.934,-1.146 1.849,-1.06 1.718,-0.928 1.598,-0.782 1.473,-0.645 1.262,-0.414 1.053,-0.182 0.841,0.048 0.707,0.194 0.656,0.332 0.522,0.482 0.429,0.337 0.358,0.373 0.286,0.331 0.243,0.305 0.192,0.182 0.147,0.138 0.098,0.09 0.042,0.054 0,0"
             style="fill:#231f20;fill-opacity:1;fill-rule:nonzero;stroke:none"
             id="path18783" />
        </g>
        <g
           id="g18785"
           transform="translate(128.644,135.87)">
          <path
             d="m 0,0 c 0.103,-0.038 0.202,-0.086 0.273,-0.147 0.109,-0.094 0.069,-0.121 0.061,-0.244 -0.005,-0.073 0.005,-0.227 0.086,-0.261 0.109,-0.045 0.335,0.096 0.445,0.13 0.104,0.031 0.242,0.062 0.351,0.032 0.116,-0.033 0.177,-0.135 0.261,-0.228 0.07,-0.076 0.157,-0.152 0.218,-0.236 0.061,-0.085 0.063,-0.201 0.163,-0.259 0.142,0.083 0.273,0.177 0.423,0.248 0.089,0.042 0.214,0.137 0.302,0.163 0.065,0.02 0.115,-0.011 0.179,-0.023 0.087,-0.016 0.147,-0.01 0.239,-0.009 0.182,0.003 0.336,-0.129 0.373,0.097 0.018,0.11 0.119,0.361 0.031,0.419 -0.058,0.039 -0.216,0 -0.297,0.018 C 3.027,-0.281 2.955,-0.235 2.871,-0.225 2.764,-0.211 2.7,-0.231 2.599,-0.197 2.449,-0.147 2.288,-0.107 2.13,-0.092 1.662,-0.046 1.161,0.194 0.777,0.471 0.602,0.294 0.498,0.213 0.38,0.108 0.273,0.014 0.137,-0.013 0,0"
             style="fill:#231f20;fill-opacity:1;fill-rule:nonzero;stroke:none"
             id="path18787" />
        </g>
        <g
           id="g18789"
           transform="translate(128.644,135.87)">
          <path
             d="M 0,0 C -0.103,0.038 -0.21,0.066 -0.3,0.085 -0.206,0.04 -0.103,0.01 0,0"
             style="fill:#231f20;fill-opacity:1;fill-rule:nonzero;stroke:none"
             id="path18791" />
        </g>
        <g
           id="g18793"
           transform="translate(128.524,149.835)">
          <path
             d="m 0,0 c -0.111,-0.07 -0.206,-0.164 -0.319,-0.233 -0.124,-0.076 -0.262,-0.137 -0.384,-0.215 -0.059,-0.038 -0.138,-0.109 -0.21,-0.129 0.292,-0.02 0.558,0.073 0.824,0.187 0.137,0.058 0.256,0.073 0.398,0.11 0.163,0.043 0.324,0.146 0.474,0.218 C 1.102,0.091 1.424,0.19 1.762,0.29 2.134,0.4 2.466,0.352 2.843,0.387 L 3.904,0.296 C 3.829,0.322 3.758,0.355 3.711,0.378 3.544,0.459 3.367,0.626 3.242,0.763 3.044,0.981 2.754,1.154 2.516,1.33 2.387,1.425 2.279,1.561 2.146,1.646 2.023,1.725 1.924,1.737 1.842,1.863 1.821,1.836 1.82,1.807 1.831,1.777 1.79,1.801 1.765,1.796 1.748,1.794 1.662,1.783 1.577,1.784 1.492,1.774 1.397,1.762 1.307,1.728 1.213,1.719 1.173,1.715 1.141,1.713 1.106,1.688 1.142,1.666 1.158,1.641 1.202,1.631 1.294,1.611 1.395,1.605 1.49,1.603 1.606,1.6 1.73,1.595 1.844,1.579 1.885,1.573 1.924,1.562 1.965,1.56 1.983,1.559 1.999,1.565 2.017,1.562 2.012,1.569 2.008,1.575 2.003,1.582 2.026,1.561 2.048,1.54 2.06,1.523 2.169,1.376 2.286,1.268 2.421,1.138 2.445,1.114 2.614,0.973 2.612,0.935 2.609,0.88 2.434,0.878 2.386,0.878 2.218,0.878 2.049,0.952 1.881,0.963 1.761,0.971 1.611,0.942 1.492,0.984 1.364,1.029 1.27,1.183 1.179,1.278 1.065,1.396 0.947,1.454 0.815,1.532 0.645,1.633 0.408,1.862 0.198,1.854 0.203,1.844 0.21,1.834 0.216,1.823 0.193,1.815 0.171,1.806 0.155,1.801 0.078,1.779 -0.003,1.785 -0.082,1.766 -0.178,1.742 -0.269,1.7 -0.362,1.667 -0.407,1.651 -0.45,1.631 -0.487,1.601 c 0.024,-0.019 0.06,-0.008 0.09,-0.009 0.03,-0.002 0.06,-0.009 0.09,-0.013 0.089,-0.014 0.179,-0.017 0.269,-0.02 C 0.089,1.555 0.21,1.536 0.337,1.545 0.356,1.546 0.379,1.55 0.402,1.552 0.44,1.502 0.478,1.453 0.515,1.407 0.589,1.313 0.691,1.228 0.742,1.117 0.831,0.923 0.605,0.964 0.479,0.972 0.34,0.98 0.154,0.911 0.015,0.923 -0.059,0.929 -0.12,0.968 -0.195,0.972 -0.283,0.977 -0.39,0.945 -0.479,0.934 -0.657,0.913 -0.824,0.844 -0.999,0.823 -1.185,0.801 -1.281,0.923 -1.365,1.06 -1.412,1.136 -1.646,1.47 -1.751,1.468 l 0.005,0.046 C -1.776,1.468 -1.889,1.444 -1.938,1.422 -2.026,1.384 -2.11,1.335 -2.199,1.3 -2.281,1.268 -2.366,1.248 -2.448,1.217 -2.517,1.192 -2.583,1.159 -2.652,1.134 -2.705,1.115 -2.736,1.093 -2.781,1.062 -2.728,1.025 -2.672,1.039 -2.612,1.04 c 0.054,10e-4 0.104,-0.023 0.158,-0.014 0.053,0.008 0.1,0.036 0.154,0.043 0.112,0.016 0.228,0.034 0.341,0.036 0.057,0.001 0.122,-0.003 0.176,0.021 l 0.023,0.24 C -1.751,1.326 -1.735,1.287 -1.727,1.249 -1.713,1.186 -1.721,1.121 -1.713,1.056 -1.697,0.921 -1.647,0.827 -1.575,0.708 -1.655,0.64 -1.712,0.587 -1.805,0.535 -1.965,0.445 -2.088,0.432 -2.257,0.378 -2.475,0.308 -2.676,0.208 -2.892,0.152 -2.996,0.125 -3.065,0.049 -3.176,0.114 -3.267,0.168 -3.339,0.255 -3.433,0.316 -3.648,0.455 -3.934,0.625 -4.199,0.65 -4.198,0.645 -4.195,0.642 -4.194,0.637 L -4.2,0.641 C -4.229,0.643 -4.254,0.608 -4.28,0.594 -4.314,0.576 -4.345,0.559 -4.377,0.538 -4.443,0.492 -4.512,0.451 -4.583,0.414 -4.768,0.319 -4.941,0.163 -5.1,0.033 c -0.053,-0.044 -0.108,-0.095 -0.166,-0.135 -0.021,-0.014 -0.082,-0.032 -0.077,-0.065 0.071,0.021 0.145,0.031 0.213,0.06 0.058,0.025 0.111,0.044 0.171,0.063 0.089,0.029 0.171,0.08 0.26,0.111 0.061,0.021 0.122,0.043 0.183,0.064 0.163,0.057 0.316,0.132 0.471,0.207 0.019,0.009 0.051,0.027 0.085,0.043 0.032,-0.044 0.06,-0.092 0.095,-0.126 0.13,-0.127 0.272,-0.138 0.335,-0.324 -0.112,-0.081 -0.218,-0.136 -0.319,-0.236 -0.106,-0.106 -0.195,-0.127 -0.322,-0.191 -0.234,-0.119 -0.453,-0.262 -0.672,-0.405 -0.117,-0.076 -0.14,-0.076 -0.268,-0.037 -0.187,0.057 -0.396,0.074 -0.592,0.073 -0.141,0 -0.27,0.012 -0.406,0.026 -0.171,0.017 -0.359,0.007 -0.538,0.019 0.09,-0.023 0.193,-0.05 0.292,-0.084 -0.049,0.014 -0.097,0.027 -0.144,0.032 -0.045,0.004 -0.085,0.009 -0.128,-0.006 -0.037,-0.013 -0.074,-0.028 -0.112,-0.039 -0.09,-0.027 -0.174,-0.094 -0.247,-0.154 -0.108,-0.088 -0.196,-0.188 -0.273,-0.304 -0.037,-0.054 -0.066,-0.113 -0.099,-0.169 -0.055,-0.09 -0.081,-0.185 -0.124,-0.281 -0.036,-0.078 -0.071,-0.152 -0.099,-0.233 -0.01,-0.028 -0.033,-0.068 -0.03,-0.098 0.055,-0.005 0.136,0.124 0.171,0.158 0.122,0.116 0.231,0.242 0.345,0.364 0.107,0.115 0.213,0.221 0.337,0.316 0.108,0.083 0.206,0.183 0.316,0.26 0.061,0.043 0.13,0.073 0.199,0.1 0.004,0.002 0.008,0.004 0.012,0.006 0.052,-0.023 0.101,-0.047 0.144,-0.076 0.092,-0.06 0.15,-0.092 0.254,-0.135 0.084,-0.034 0.084,-0.07 0.148,-0.116 0.082,-0.059 0.145,-0.033 0.13,-0.163 -0.009,-0.08 -0.059,-0.12 -0.109,-0.172 -0.226,-0.233 -0.422,-0.503 -0.663,-0.723 -0.176,-0.16 -0.361,-0.303 -0.51,-0.485 -0.121,-0.149 -0.238,-0.089 -0.409,-0.071 -0.201,0.021 -0.437,0.033 -0.636,-0.009 -0.13,-0.028 -0.276,-0.058 -0.42,-0.072 l -0.159,0.017 c -0.002,-0.008 -0.005,-0.015 -0.007,-0.023 -0.032,10e-4 -0.064,0 -0.094,0.004 -0.004,-0.021 0.023,-0.046 0.069,-0.072 -0.022,-0.062 -0.044,-0.124 -0.066,-0.187 -0.03,-0.086 -0.065,-0.16 -0.104,-0.242 -0.069,-0.146 -0.122,-0.299 -0.18,-0.449 -0.032,-0.084 -0.069,-0.166 -0.113,-0.244 -0.017,-0.029 -0.048,-0.062 -0.046,-0.098 0.065,0 0.139,0.138 0.172,0.179 0.132,0.167 0.237,0.357 0.375,0.519 0.068,0.081 0.141,0.161 0.213,0.24 0.041,0.045 0.082,0.093 0.125,0.136 0.22,-0.07 0.449,-0.133 0.499,-0.161 0.096,-0.053 0.101,-0.03 0.07,-0.145 -0.024,-0.085 -0.086,-0.121 -0.132,-0.19 -0.073,-0.11 -0.117,-0.243 -0.198,-0.354 -0.083,-0.115 -0.182,-0.22 -0.259,-0.34 -0.109,-0.17 -0.183,-0.37 -0.29,-0.532 -0.046,-0.069 -0.078,-0.141 -0.12,-0.216 -0.026,-0.045 -0.098,-0.148 -0.14,-0.177 -0.136,-0.094 -0.413,-0.094 -0.568,-0.113 -0.074,-0.009 -0.286,0 -0.431,-0.026 l -0.034,0.012 c -0.005,0.001 -0.01,0.001 -0.016,0.002 -0.006,-0.016 -0.02,-0.027 -0.035,-0.038 -0.022,-0.009 -0.041,-0.021 -0.05,-0.036 10e-4,-0.001 0.002,-0.002 0.003,-0.003 v 0 c -0.033,-0.042 -0.064,-0.109 -0.085,-0.159 -0.072,-0.171 -0.174,-0.326 -0.24,-0.501 -0.045,-0.122 -0.102,-0.262 -0.112,-0.391 0.02,0.009 0.023,0.027 0.035,0.044 0.027,0.04 0.063,0.077 0.092,0.115 0.054,0.069 0.101,0.138 0.16,0.203 0.137,0.152 0.25,0.309 0.365,0.478 0.013,0.018 0.027,0.036 0.041,0.054 0.012,-0.006 0.021,-0.012 0.035,-0.016 0.089,-0.033 0.123,-0.068 0.198,-0.118 0.045,-0.03 0.126,-0.035 0.161,-0.066 0.09,-0.079 -0.088,-0.406 -0.127,-0.517 -0.055,-0.155 -0.098,-0.265 -0.187,-0.394 -0.12,-0.174 -0.111,-0.425 -0.287,-0.57 -0.104,-0.085 -0.267,-0.108 -0.39,-0.155 -0.16,-0.062 -0.339,-0.099 -0.499,-0.182 -0.077,-0.04 -0.15,-0.101 -0.228,-0.134 -0.09,-0.039 -0.183,-0.04 -0.261,-0.109 0.054,-0.005 0.112,-0.005 0.17,-0.005 -0.008,-0.01 -0.016,-0.021 -0.022,-0.035 -0.031,-0.068 -0.051,-0.144 -0.077,-0.215 -0.067,-0.185 -0.073,-0.383 -0.14,-0.568 -0.063,-0.174 -0.117,-0.35 -0.202,-0.515 -0.067,-0.128 -0.132,-0.251 -0.179,-0.388 -0.012,-0.035 -0.025,-0.071 -0.038,-0.106 0.026,0.081 0.095,0.155 0.154,0.211 0.043,0.042 0.071,0.097 0.102,0.148 0.081,0.133 0.161,0.271 0.253,0.397 0.08,0.11 0.132,0.22 0.199,0.337 0.055,0.097 0.124,0.189 0.166,0.293 0.058,0.146 0.117,0.293 0.173,0.44 0.07,-0.005 0.138,-0.015 0.221,-0.031 0.138,-0.025 0.279,-0.029 0.418,-0.047 0.115,-0.015 0.215,-0.079 0.329,-0.089 0.09,-0.009 0.219,0.036 0.229,-0.091 0.005,-0.078 -0.093,-0.248 -0.119,-0.323 -0.081,-0.228 -0.161,-0.456 -0.242,-0.684 -0.084,-0.235 -0.183,-0.461 -0.311,-0.669 -0.005,-0.008 -0.076,-0.093 -0.084,-0.104 -0.028,-0.038 -0.029,-0.063 -0.066,-0.094 -0.129,-0.115 -0.369,-0.159 -0.527,-0.232 -0.338,-0.154 -0.67,-0.202 -1.025,-0.299 -0.108,-0.03 -0.207,-0.07 -0.315,-0.092 -0.054,10e-4 -0.09,-0.001 -0.106,-0.006 -0.01,-0.003 -0.022,-0.006 -0.033,-0.009 -0.077,-0.002 -0.155,0.003 -0.23,-0.015 -0.082,-0.019 -0.221,-0.058 -0.282,-0.115 0.102,-0.011 0.21,0.027 0.316,0.054 -0.039,-0.03 -0.002,-0.063 0.025,-0.095 0.017,-0.021 0.042,-0.035 0.058,-0.056 0.015,-0.02 0.017,-0.045 0.027,-0.069 0.032,-0.075 0.067,-0.144 0.105,-0.216 0.051,-0.099 0.083,-0.208 0.131,-0.309 0.064,-0.137 0.144,-0.271 0.225,-0.397 0.034,-0.053 0.072,-0.112 0.085,-0.175 0.003,0.098 -0.004,0.194 0.001,0.292 0.007,0.14 -0.005,0.276 -0.014,0.416 -0.01,0.159 -0.017,0.318 -0.026,0.477 -0.003,0.042 -0.013,0.096 -0.015,0.145 0.02,-0.002 0.04,-0.002 0.06,-0.005 0.302,-0.032 0.645,-0.053 0.937,-0.029 0.077,0.006 0.233,0.012 0.301,-0.052 0.09,-0.086 -0.049,-0.301 -0.086,-0.402 -0.073,-0.198 -0.161,-0.397 -0.203,-0.604 -0.027,-0.134 -0.023,-0.274 -0.048,-0.406 -0.017,-0.091 -0.058,-0.171 -0.067,-0.262 -0.01,-0.1 0.032,-0.19 0.009,-0.282 0.114,0.287 0.298,0.518 0.402,0.801 0.055,0.148 0.15,0.261 0.205,0.409 0.048,0.131 0.052,0.297 0.203,0.25 0.095,-0.029 0.201,-0.198 0.272,-0.269 0.092,-0.093 0.189,-0.202 0.288,-0.285 10e-4,-10e-4 10e-4,-10e-4 0.002,-10e-4 -0.039,-0.041 -0.074,-0.085 -0.11,-0.123 -0.097,-0.102 -0.197,-0.203 -0.293,-0.306 -0.075,-0.08 -0.171,-0.144 -0.257,-0.211 -0.042,-0.033 -0.115,-0.094 -0.13,-0.148 0.025,-0.012 0.068,0.01 0.094,0.016 0.094,0.022 0.184,0.041 0.275,0.075 0.101,0.037 0.202,0.075 0.3,0.118 0.135,0.059 0.271,0.103 0.399,0.182 0.04,0.024 0.097,0.027 0.13,0.065 0.012,0.014 0.015,0.028 0.016,0.042 0.016,0.004 0.033,0.013 0.049,0.032 0.039,0.045 -0.101,0.458 -0.123,0.531 -0.055,0.187 -0.198,0.343 -0.284,0.522 -0.147,0.309 -0.289,0.621 -0.24,0.97 0.046,0.327 0.227,0.676 0.337,0.989 0.049,0.138 0.099,0.276 0.148,0.415 0.014,0.04 0.026,0.135 0.054,0.165 0.084,0.09 0.156,-0.02 0.224,-0.096 0.128,-0.142 0.255,-0.281 0.395,-0.41 0.135,-0.125 0.171,-0.296 0.262,-0.456 0.023,-0.041 0.058,-0.099 0.069,-0.144 0.028,-0.109 -0.019,-0.118 -0.078,-0.213 -0.105,-0.169 -0.155,-0.401 -0.222,-0.588 -0.059,-0.167 -0.13,-0.297 -0.214,-0.448 -0.036,-0.066 -0.045,-0.143 -0.084,-0.208 -0.049,-0.084 -0.128,-0.115 -0.123,-0.228 0.107,-0.016 0.41,0.624 0.514,0.723 0.085,0.081 0.128,0.136 0.189,0.231 0.073,0.116 0.1,0.235 0.164,0.35 0.048,0.085 0.156,0.156 0.161,0.262 0.003,0.052 -0.027,0.073 -0.036,0.123 -0.019,0.104 -0.048,0.147 -0.082,0.24 -0.038,0.104 -0.014,0.194 -0.068,0.298 -0.224,0.426 -0.687,0.68 -0.95,1.071 -0.153,0.228 0.002,0.512 0.084,0.739 0.05,0.138 0.039,0.259 0.078,0.393 0.048,0.163 0.114,0.319 0.221,0.45 0.161,0.2 0.541,0.037 0.765,-0.019 0.191,-0.047 0.507,-0.046 0.673,-0.175 0.069,-0.054 0.166,-0.222 0.207,-0.3 0.138,-0.267 -0.151,-0.561 -0.244,-0.801 -0.041,-0.108 -0.419,-0.99 -0.328,-1.056 0.209,0.201 0.37,0.435 0.524,0.679 0.148,0.232 0.152,0.486 0.195,0.753 0.017,0.109 0.154,0.317 0.129,0.42 -0.016,0.062 -0.188,0.14 -0.218,0.16 -0.125,0.081 -0.202,0.159 -0.29,0.274 -0.223,0.29 -0.617,0.472 -0.916,0.676 -0.095,0.065 -0.191,0.126 -0.192,0.252 -10e-4,0.147 0.041,0.325 0.115,0.455 0.109,0.192 0.264,0.339 0.356,0.536 0.104,0.222 0.254,0.424 0.355,0.65 0.109,0.247 0.133,0.341 0.403,0.207 0.273,-0.134 0.519,-0.347 0.735,-0.559 0.183,-0.178 0.229,-0.325 0.262,-0.575 0.03,-0.231 -0.121,-0.386 -0.2,-0.593 -0.066,-0.177 -0.137,-0.358 -0.202,-0.532 -0.036,-0.013 -0.056,-0.038 -0.06,-0.074 0.025,-0.029 0.028,-0.059 0.008,-0.091 -0.033,-0.102 -0.164,-0.126 -0.188,-0.224 0.218,-0.049 0.522,0.41 0.606,0.558 0.114,0.2 0.171,0.455 0.248,0.671 0.121,0.343 0.242,0.6 0.058,0.95 -0.067,0.127 -0.174,0.227 -0.27,0.331 -0.074,0.08 -0.126,0.198 -0.202,0.269 -0.09,0.085 -0.164,0.101 -0.201,0.228 -0.134,0.447 0.235,0.62 0.553,0.878 0.168,0.137 0.329,0.295 0.465,0.465 0.068,0.085 0.155,0.359 0.273,0.359 0.128,-0.001 0.221,-0.269 0.292,-0.367 0.116,-0.162 0.227,-0.24 0.161,-0.439 -0.068,-0.208 -0.149,-0.413 -0.221,-0.62 -0.059,-0.17 -0.148,-0.305 -0.224,-0.463 -0.045,-0.095 -0.123,-0.217 -0.191,-0.292 -0.035,-0.038 -0.09,-0.06 -0.125,-0.105 -0.044,-0.056 -0.051,-0.117 -0.11,-0.169 0.157,-0.101 0.552,0.07 0.648,0.194 0.096,0.123 0.14,0.286 0.24,0.412 0.075,0.094 0.162,0.164 0.245,0.251 0.227,0.235 0.304,0.559 0.315,0.876 0.008,0.222 0.043,0.401 -0.118,0.572 -0.106,0.113 -0.304,0.313 -0.199,0.475 0.079,0.124 0.242,0.147 0.36,0.209 0.136,0.072 0.208,0.203 0.321,0.303 0.064,0.057 0.157,0.132 0.237,0.164 0.072,0.029 0.045,0.069 0.142,0.027 0.059,-0.025 0.121,-0.126 0.16,-0.174 0.049,-0.06 0.115,-0.128 0.121,-0.209 0.016,-0.2 -0.29,-0.406 -0.401,-0.552 -0.087,-0.113 -0.194,-0.292 -0.328,-0.349 0.325,-0.135 0.648,0.142 0.908,0.32 0.105,0.072 0.236,0.159 0.321,0.257 0.071,0.083 0.064,0.112 0.023,0.211 -0.065,0.162 -0.157,0.311 -0.229,0.468 -0.029,0.062 -0.075,0.129 -0.046,0.206 0.038,0.104 0.18,0.193 0.272,0.233 0.168,0.075 0.325,0.149 0.488,0.235 0.187,0.097 0.254,0.237 0.473,0.266 0.255,0.035 0.415,-0.017 0.354,-0.322 -0.014,-0.07 -0.101,-0.13 -0.108,-0.184 -0.004,-0.032 0.025,-0.042 0.024,-0.074 -0.002,-0.047 0.016,-0.074 0.006,-0.125 -0.015,-0.083 -0.101,-0.203 -0.158,-0.271 -0.083,-0.102 -0.215,-0.178 -0.319,-0.259 -0.085,-0.066 -0.288,-0.125 -0.326,-0.228 0.152,-0.096 0.416,0.08 0.546,0.155 0.128,0.074 0.268,0.134 0.39,0.218 0.21,0.145 0.256,0.269 0.338,0.498 0.064,0.182 0.111,0.385 0.194,0.559 0.113,0.234 0.278,0.203 0.502,0.241 0.232,0.04 0.483,0.094 0.719,0.096 C 0.786,0.537 0.487,0.302 0.365,0.209 0.251,0.122 0.12,0.075 0,0"
             style="fill:#231f20;fill-opacity:1;fill-rule:nonzero;stroke:none"
             id="path18795" />
        </g>
        <g
           id="g18797"
           transform="translate(130.574,150.715)">
          <path
             d="m 0,0 c -0.104,0.018 -0.206,0.011 -0.311,0.03 -0.115,0.022 -0.233,0.06 -0.348,0.079 -0.054,0.009 -0.137,0.008 -0.194,0.035 0.189,-0.176 0.407,-0.266 0.634,-0.343 0.116,-0.039 0.202,-0.097 0.314,-0.153 0.127,-0.063 0.278,-0.088 0.409,-0.127 0.277,-0.08 0.536,-0.198 0.805,-0.324 0.297,-0.138 0.501,-0.355 0.77,-0.544 l 0.68,-0.652 C 2.719,-1.941 2.684,-1.88 2.662,-1.84 2.583,-1.694 2.531,-1.489 2.503,-1.332 2.458,-1.082 2.333,-0.809 2.244,-0.564 2.196,-0.431 2.178,-0.284 2.123,-0.155 2.072,-0.036 2.011,0.027 2.007,0.154 1.981,0.149 1.969,0.13 1.964,0.105 1.947,0.143 1.927,0.154 1.915,0.162 1.853,0.203 1.796,0.252 1.734,0.293 1.665,0.338 1.59,0.368 1.523,0.414 1.494,0.434 1.471,0.451 1.438,0.454 1.453,0.42 1.454,0.395 1.479,0.365 1.533,0.3 1.599,0.239 1.662,0.185 1.74,0.119 1.821,0.046 1.892,-0.029 c 0.025,-0.026 0.047,-0.055 0.074,-0.079 0.012,-0.011 0.025,-0.016 0.036,-0.029 0,0.008 -10e-4,0.014 -10e-4,0.021 0.007,-0.027 0.012,-0.051 0.014,-0.07 C 2.028,-0.34 2.063,-0.474 2.101,-0.632 2.108,-0.661 2.164,-0.846 2.147,-0.869 2.122,-0.902 2.003,-0.805 1.971,-0.779 1.858,-0.685 1.774,-0.543 1.665,-0.441 1.587,-0.369 1.474,-0.304 1.411,-0.21 1.342,-0.11 1.342,0.041 1.319,0.153 1.291,0.291 1.235,0.394 1.178,0.518 1.104,0.678 1.038,0.956 0.892,1.069 c 0,-0.009 0,-0.02 0,-0.03 C 0.874,1.047 0.854,1.054 0.842,1.059 0.78,1.089 0.728,1.138 0.667,1.17 0.593,1.209 0.514,1.233 0.438,1.264 0.4,1.279 0.364,1.29 0.326,1.292 0.334,1.266 0.363,1.253 0.383,1.236 0.403,1.218 0.421,1.197 0.439,1.177 0.493,1.118 0.553,1.066 0.612,1.014 0.697,0.94 0.77,0.86 0.86,0.794 0.873,0.784 0.89,0.774 0.906,0.763 0.912,0.71 0.918,0.657 0.923,0.607 0.935,0.506 0.97,0.394 0.958,0.295 0.939,0.121 0.804,0.275 0.721,0.35 0.631,0.433 0.477,0.493 0.387,0.579 0.34,0.625 0.315,0.683 0.266,0.728 0.208,0.781 0.123,0.82 0.059,0.863 c -0.129,0.086 -0.27,0.136 -0.398,0.221 -0.134,0.09 -0.149,0.222 -0.15,0.356 0,0.074 -0.022,0.418 -0.093,0.475 L -0.56,1.942 C -0.599,1.929 -0.685,1.978 -0.727,1.991 -0.802,2.016 -0.879,2.032 -0.954,2.06 -1.022,2.085 -1.088,2.12 -1.156,2.147 -1.212,2.169 -1.27,2.185 -1.327,2.208 -1.371,2.226 -1.401,2.229 -1.444,2.235 -1.423,2.181 -1.38,2.159 -1.339,2.126 -1.302,2.096 -1.278,2.053 -1.238,2.028 -1.199,2.004 -1.156,1.995 -1.116,1.97 -1.034,1.917 -0.949,1.863 -0.872,1.801 -0.833,1.77 -0.79,1.731 -0.744,1.716 l 0.114,0.14 C -0.64,1.826 -0.645,1.791 -0.655,1.763 -0.672,1.715 -0.704,1.677 -0.725,1.632 -0.77,1.537 -0.774,1.45 -0.774,1.333 -0.856,1.335 -0.916,1.333 -1,1.352 -1.145,1.385 -1.234,1.445 -1.37,1.505 -1.546,1.583 -1.723,1.633 -1.891,1.717 -1.973,1.758 -2.05,1.748 -2.099,1.853 -2.138,1.938 -2.152,2.033 -2.19,2.125 -2.278,2.334 -2.402,2.603 -2.571,2.767 -2.572,2.764 -2.572,2.76 -2.573,2.756 l -0.002,0.005 c -0.018,0.018 -0.05,0.01 -0.073,0.016 -0.031,0.008 -0.058,0.014 -0.089,0.018 -0.063,0.009 -0.127,0.021 -0.19,0.037 -0.164,0.043 -0.344,0.041 -0.505,0.047 -0.054,0.002 -0.112,0 -0.167,0.008 -0.02,0.002 -0.069,0.025 -0.079,10e-4 0.056,-0.027 0.11,-0.061 0.169,-0.081 0.049,-0.016 0.093,-0.034 0.141,-0.055 0.072,-0.032 0.148,-0.046 0.221,-0.076 0.05,-0.021 0.1,-0.041 0.15,-0.062 C -2.863,2.559 -2.73,2.522 -2.594,2.482 -2.578,2.477 -2.549,2.471 -2.519,2.462 -2.516,2.416 -2.517,2.37 -2.507,2.329 -2.471,2.175 -2.38,2.088 -2.413,1.934 -2.522,1.946 -2.616,1.97 -2.725,1.963 -2.84,1.955 -2.909,1.992 -3.021,2.022 -3.227,2.078 -3.434,2.109 -3.64,2.141 -3.751,2.158 -3.766,2.171 -3.836,2.267 -3.939,2.409 -4.074,2.536 -4.207,2.646 -4.302,2.725 -4.384,2.805 -4.471,2.889 -4.579,2.997 -4.71,3.096 -4.826,3.203 -4.774,3.138 -4.716,3.064 -4.663,2.987 -4.691,3.022 -4.718,3.058 -4.748,3.087 -4.776,3.115 -4.801,3.141 -4.836,3.155 -4.867,3.168 -4.898,3.179 -4.928,3.193 -5,3.226 -5.084,3.231 -5.157,3.234 -5.266,3.238 -5.367,3.224 -5.467,3.193 -5.514,3.179 -5.557,3.159 -5.603,3.142 -5.676,3.115 -5.733,3.068 -5.802,3.032 -5.858,3.002 -5.911,2.975 -5.964,2.939 -5.982,2.927 -6.013,2.914 -6.024,2.894 c 0.035,-0.034 0.142,0.002 0.181,0.004 0.129,0.006 0.254,0.025 0.381,0.039 0.119,0.013 0.234,0.021 0.357,0.012 0.107,-0.008 0.214,0.001 0.32,-0.012 C -4.726,2.93 -4.668,2.911 -4.61,2.889 -4.606,2.888 -4.603,2.887 -4.599,2.886 -4.573,2.842 -4.55,2.799 -4.533,2.757 -4.495,2.668 -4.469,2.614 -4.416,2.529 -4.374,2.46 -4.388,2.437 -4.364,2.372 -4.333,2.289 -4.28,2.27 -4.343,2.196 -4.382,2.149 -4.432,2.152 -4.487,2.147 -4.735,2.125 -4.978,2.063 -5.231,2.059 -5.415,2.055 -5.598,2.068 -5.774,2.035 -5.916,2.009 -5.971,2.113 -6.079,2.219 -6.206,2.346 -6.361,2.486 -6.512,2.57 -6.611,2.625 -6.723,2.689 -6.826,2.76 l -0.1,0.099 C -6.931,2.856 -6.936,2.853 -6.94,2.85 -6.961,2.868 -6.984,2.885 -7.003,2.905 -7.013,2.893 -7.005,2.862 -6.985,2.82 -7.025,2.793 -7.065,2.765 -7.106,2.738 -7.162,2.7 -7.216,2.672 -7.276,2.642 -7.382,2.588 -7.48,2.521 -7.581,2.457 -7.636,2.422 -7.695,2.39 -7.757,2.365 -7.78,2.356 -7.815,2.352 -7.828,2.329 c 0.044,-0.037 0.151,0.01 0.189,0.018 0.158,0.032 0.307,0.094 0.466,0.12 0.08,0.013 0.161,0.023 0.242,0.033 0.046,0.006 0.093,0.013 0.141,0.016 C -6.671,2.348 -6.542,2.18 -6.519,2.134 -6.476,2.046 -6.464,2.058 -6.532,2.003 -6.582,1.962 -6.639,1.974 -6.699,1.956 -6.792,1.927 -6.877,1.867 -6.977,1.841 -7.08,1.815 -7.19,1.804 -7.291,1.77 -7.434,1.723 -7.566,1.637 -7.705,1.594 -7.764,1.576 -7.815,1.548 -7.874,1.524 -7.91,1.509 -8.001,1.484 -8.041,1.489 c -0.13,0.017 -0.318,0.172 -0.43,0.247 -0.054,0.035 -0.193,0.16 -0.302,0.225 L -8.791,1.988 C -8.794,1.991 -8.797,1.994 -8.801,1.998 -8.812,1.992 -8.825,1.992 -8.84,1.993 -8.859,2 -8.876,2.003 -8.889,1.998 -8.888,1.997 -8.888,1.996 -8.887,1.995 v 0 C -8.927,1.986 -8.976,1.961 -9.01,1.941 -9.129,1.873 -9.261,1.831 -9.377,1.757 -9.458,1.705 -9.554,1.647 -9.613,1.571 c 0.017,-0.006 0.027,0.004 0.042,0.008 0.035,0.011 0.073,0.014 0.109,0.022 0.064,0.014 0.125,0.031 0.191,0.039 0.154,0.02 0.295,0.057 0.442,0.1 0.016,0.004 0.033,0.008 0.05,0.011 0.006,-0.01 0.01,-0.019 0.017,-0.029 C -8.715,1.651 -8.706,1.61 -8.676,1.536 -8.658,1.491 -8.606,1.443 -8.594,1.403 -8.566,1.303 -8.82,1.194 -8.892,1.145 -8.993,1.078 -9.066,1.032 -9.18,0.999 -9.331,0.956 -9.428,0.791 -9.607,0.798 c -0.105,0.004 -0.224,0.08 -0.327,0.119 -0.133,0.051 -0.269,0.128 -0.411,0.164 -0.069,0.018 -0.143,0.02 -0.21,0.043 -0.076,0.025 -0.139,0.077 -0.22,0.076 0.035,-0.033 0.073,-0.066 0.113,-0.098 -0.01,-0.002 -0.02,-0.004 -0.029,-0.009 -0.049,-0.027 -0.094,-0.064 -0.14,-0.095 -0.121,-0.08 -0.207,-0.202 -0.327,-0.283 -0.114,-0.075 -0.223,-0.157 -0.348,-0.214 -0.097,-0.044 -0.192,-0.086 -0.279,-0.146 -0.023,-0.016 -0.046,-0.032 -0.069,-0.047 0.05,0.037 0.127,0.046 0.19,0.049 0.046,0.002 0.088,0.021 0.129,0.036 0.11,0.039 0.22,0.082 0.334,0.111 0.099,0.025 0.18,0.066 0.272,0.103 0.077,0.031 0.161,0.05 0.232,0.093 0.099,0.061 0.199,0.121 0.297,0.184 0.045,-0.043 0.087,-0.087 0.137,-0.144 0.083,-0.094 0.177,-0.175 0.263,-0.264 0.072,-0.074 0.113,-0.171 0.185,-0.241 0.058,-0.056 0.164,-0.101 0.118,-0.186 -0.028,-0.053 -0.164,-0.107 -0.212,-0.139 -0.148,-0.1 -0.296,-0.2 -0.444,-0.3 -0.153,-0.103 -0.312,-0.191 -0.484,-0.251 -0.007,-0.003 -0.089,-0.017 -0.099,-0.02 -0.034,-0.008 -0.045,-0.023 -0.083,-0.023 -0.134,0 -0.315,0.106 -0.451,0.149 -0.291,0.09 -0.535,0.246 -0.814,0.383 -0.086,0.042 -0.169,0.072 -0.251,0.118 -0.036,0.031 -0.061,0.05 -0.074,0.056 -0.008,0.003 -0.017,0.008 -0.026,0.012 -0.053,0.042 -0.104,0.089 -0.162,0.12 -0.063,0.033 -0.173,0.087 -0.237,0.084 0.064,-0.063 0.153,-0.099 0.235,-0.142 -0.038,0.002 -0.026,-0.039 -0.022,-0.074 0.003,-0.023 0.014,-0.046 0.016,-0.069 0.002,-0.021 -0.006,-0.038 -0.009,-0.058 -0.009,-0.066 -0.014,-0.13 -0.018,-0.197 -0.006,-0.092 -0.028,-0.179 -0.038,-0.27 -0.012,-0.123 -0.013,-0.253 -0.01,-0.379 0.001,-0.052 0.002,-0.112 -0.014,-0.159 0.042,0.061 0.076,0.126 0.119,0.185 0.063,0.086 0.11,0.179 0.162,0.273 0.058,0.107 0.118,0.212 0.177,0.319 0.015,0.027 0.031,0.067 0.049,0.1 0.013,-0.013 0.026,-0.024 0.039,-0.037 0.191,-0.189 0.414,-0.395 0.621,-0.544 0.054,-0.039 0.162,-0.122 0.182,-0.201 0.026,-0.106 -0.156,-0.164 -0.223,-0.208 -0.13,-0.085 -0.271,-0.162 -0.384,-0.271 -0.073,-0.07 -0.127,-0.162 -0.198,-0.232 -0.049,-0.047 -0.109,-0.075 -0.153,-0.128 -0.048,-0.058 -0.056,-0.14 -0.109,-0.185 0.195,0.119 0.413,0.163 0.6,0.285 0.097,0.063 0.208,0.081 0.305,0.145 0.086,0.057 0.157,0.16 0.24,0.045 0.052,-0.071 0.055,-0.238 0.073,-0.323 0.024,-0.111 0.045,-0.235 0.078,-0.344 0.001,0 0.001,0 0.001,-0.001 -0.043,-0.004 -0.085,-0.012 -0.124,-0.016 -0.108,-0.011 -0.216,-0.02 -0.324,-0.031 -0.083,-0.009 -0.174,0.004 -0.259,0.01 -0.042,0.002 -0.117,0.004 -0.149,-0.021 0.012,-0.023 0.05,-0.033 0.07,-0.043 0.073,-0.039 0.141,-0.077 0.216,-0.107 0.084,-0.032 0.167,-0.065 0.252,-0.093 0.116,-0.038 0.225,-0.086 0.344,-0.108 0.037,-0.006 0.077,-0.036 0.114,-0.031 0.013,0.002 0.022,0.01 0.028,0.018 0.012,-0.006 0.027,-0.01 0.046,-0.007 0.045,0.007 0.119,0.348 0.134,0.406 0.04,0.151 0.006,0.33 0.022,0.492 0.028,0.279 0.059,0.557 0.235,0.752 0.165,0.182 0.43,0.304 0.632,0.44 0.09,0.061 0.18,0.121 0.27,0.182 0.026,0.018 0.073,0.071 0.104,0.075 0.093,0.01 0.097,-0.101 0.112,-0.187 0.029,-0.162 0.057,-0.322 0.099,-0.483 0.04,-0.155 -0.005,-0.284 -0.01,-0.437 -10e-4,-0.038 -10e-4,-0.095 -0.012,-0.13 -0.026,-0.085 -0.061,-0.064 -0.14,-0.091 -0.14,-0.049 -0.269,-0.169 -0.39,-0.251 -0.109,-0.073 -0.209,-0.116 -0.328,-0.165 -0.052,-0.021 -0.089,-0.065 -0.142,-0.085 -0.067,-0.026 -0.134,-0.001 -0.176,-0.076 0.065,-0.07 0.532,0.167 0.643,0.172 0.09,0.004 0.142,0.015 0.222,0.041 0.097,0.032 0.164,0.094 0.254,0.131 0.067,0.027 0.169,0.012 0.216,0.077 0.023,0.031 0.012,0.061 0.026,0.098 0.029,0.076 0.028,0.12 0.043,0.199 0.017,0.087 0.07,0.131 0.075,0.228 0.023,0.396 -0.185,0.817 -0.203,1.214 -0.01,0.23 0.211,0.324 0.359,0.422 0.09,0.06 0.133,0.144 0.214,0.207 0.099,0.077 0.207,0.139 0.333,0.163 0.191,0.037 0.381,-0.28 0.509,-0.441 0.11,-0.137 0.324,-0.313 0.383,-0.489 0.025,-0.072 0.021,-0.234 0.017,-0.307 -0.016,-0.247 -0.331,-0.272 -0.492,-0.373 -0.072,-0.045 -0.688,-0.395 -0.654,-0.488 0.223,0.011 0.428,0.07 0.632,0.138 0.195,0.066 0.301,0.224 0.44,0.371 0.056,0.059 0.234,0.115 0.259,0.195 0.014,0.047 -0.07,0.194 -0.082,0.224 -0.051,0.121 -0.071,0.214 -0.084,0.337 C -7.613,0.209 -7.805,0.546 -7.923,0.843 -7.961,0.938 -8,1.031 -7.95,1.111 c 0.059,0.094 0.161,0.184 0.264,0.225 0.152,0.061 0.317,0.068 0.46,0.142 0.161,0.083 0.345,0.127 0.505,0.215 0.175,0.095 0.23,0.142 0.358,-0.094 C -6.234,1.36 -6.155,1.087 -6.095,0.831 -6.045,0.615 -6.074,0.496 -6.154,0.318 -6.228,0.154 -6.394,0.14 -6.531,0.053 -6.648,-0.023 -6.77,-0.098 -6.885,-0.173 c -0.03,0.012 -0.054,0.007 -0.071,-0.013 0.005,-0.033 -0.006,-0.053 -0.032,-0.063 -0.064,-0.046 -0.163,0.012 -0.219,-0.037 0.128,-0.153 0.521,-0.032 0.638,0.016 0.159,0.063 0.301,0.193 0.442,0.288 0.222,0.15 0.409,0.246 0.428,0.572 0.007,0.118 -0.025,0.242 -0.047,0.362 -0.017,0.092 -0.004,0.196 -0.026,0.284 -0.026,0.105 -0.07,0.156 -0.043,0.258 0.092,0.36 0.412,0.264 0.732,0.249 0.17,-0.007 0.344,0.004 0.505,0.036 0.081,0.015 0.252,0.141 0.332,0.075 C -4.161,1.782 -4.207,1.559 -4.199,1.457 -4.187,1.289 -4.144,1.177 -4.27,1.087 -4.401,0.993 -4.54,0.908 -4.673,0.816 -4.782,0.741 -4.898,0.705 -5.014,0.647 -5.083,0.612 -5.186,0.578 -5.262,0.569 -5.301,0.564 -5.348,0.58 -5.39,0.572 -5.443,0.561 -5.472,0.526 -5.533,0.526 c 0.064,-0.152 0.401,-0.265 0.517,-0.24 0.115,0.024 0.212,0.103 0.331,0.127 0.089,0.019 0.176,0.015 0.268,0.023 0.25,0.022 0.434,0.186 0.571,0.381 0.096,0.137 0.193,0.231 0.154,0.43 -0.025,0.132 -0.077,0.37 0.06,0.415 0.104,0.034 0.224,-0.043 0.329,-0.069 0.122,-0.031 0.224,0.013 0.34,0.013 0.067,0 0.161,-0.005 0.228,-0.029 0.06,-0.022 0.058,0.018 0.107,-0.062 0.029,-0.049 0.03,-0.148 0.037,-0.201 0.008,-0.065 0.025,-0.146 -0.004,-0.2 C -2.666,0.977 -2.957,1.017 -3.091,0.987 -3.196,0.963 -3.342,0.91 -3.456,0.948 -3.292,0.681 -2.96,0.675 -2.712,0.643 c 0.1,-0.013 0.225,-0.031 0.322,-0.016 0.082,0.013 0.089,0.035 0.102,0.121 0.022,0.14 0.022,0.286 0.037,0.427 0.006,0.055 0.003,0.124 0.053,0.157 0.068,0.044 0.2,0.021 0.279,-0.004 C -1.775,1.281 -1.638,1.24 -1.493,1.203 -1.327,1.16 -1.224,1.211 -1.064,1.108 -0.878,0.987 -0.791,0.864 -0.957,0.704 -0.995,0.667 -1.079,0.678 -1.105,0.648 -1.121,0.629 -1.106,0.607 -1.12,0.587 -1.14,0.558 -1.139,0.531 -1.167,0.504 -1.211,0.46 -1.318,0.432 -1.384,0.42 -1.482,0.402 -1.603,0.428 -1.706,0.434 -1.79,0.44 -1.951,0.516 -2.019,0.472 -1.956,0.325 -1.705,0.289 -1.587,0.264 -1.47,0.239 -1.351,0.2 -1.234,0.185 c 0.201,-0.026 0.283,0.028 0.432,0.128 0.118,0.079 0.233,0.182 0.36,0.246 C -0.27,0.645 -0.171,0.532 -0.004,0.431 0.169,0.326 0.361,0.221 0.521,0.09 0.751,-0.098 0.452,-0.081 0.332,-0.072 0.22,-0.063 0.112,-0.019 0,0"
             style="fill:#231f20;fill-opacity:1;fill-rule:nonzero;stroke:none"
             id="path18799" />
        </g>
        <g
           id="g18801"
           transform="translate(117.614,137.026)">
          <path
             d="M 0,0 C -0.007,-0.018 -0.015,-0.035 -0.021,-0.054 -0.011,-0.036 -0.004,-0.018 0,0"
             style="fill:#231f20;fill-opacity:1;fill-rule:nonzero;stroke:none"
             id="path18803" />
        </g>
        <g
           id="g18805"
           transform="translate(132.428,150.131)">
          <path
             d="M 0,0 C 0.104,-0.037 0.216,-0.06 0.281,-0.024 Z"
             style="fill:#231f20;fill-opacity:1;fill-rule:nonzero;stroke:none"
             id="path18807" />
        </g>
      </g>
    </g>
  </g>
</svg>
