<?xml version="1.0" encoding="UTF-8" standalone="no"?>
<!-- Created with Inkscape (http://www.inkscape.org/) -->

<svg
   width="19.795586"
   height="24"
   viewBox="0 0 5.237582 6.35"
   version="1.1"
   id="svg5130"
   inkscape:version="1.2.1 (9c6d41e4, 2022-07-14)"
   sodipodi:docname="the-meddling-of-meowlathotep.svg"
   xmlns:inkscape="http://www.inkscape.org/namespaces/inkscape"
   xmlns:sodipodi="http://sodipodi.sourceforge.net/DTD/sodipodi-0.dtd"
   xmlns="http://www.w3.org/2000/svg"
   xmlns:svg="http://www.w3.org/2000/svg">
  <sodipodi:namedview
     id="namedview5132"
     pagecolor="#505050"
     bordercolor="#eeeeee"
     borderopacity="1"
     inkscape:showpageshadow="0"
     inkscape:pageopacity="0"
     inkscape:pagecheckerboard="0"
     inkscape:deskcolor="#505050"
     inkscape:document-units="mm"
     showgrid="false"
     inkscape:zoom="0.7046647"
     inkscape:cx="61.02193"
     inkscape:cy="118.49607"
     inkscape:window-width="1390"
     inkscape:window-height="941"
     inkscape:window-x="0"
     inkscape:window-y="25"
     inkscape:window-maximized="0"
     inkscape:current-layer="layer1" />
  <defs
     id="defs5127">
    <clipPath
       clipPathUnits="userSpaceOnUse"
       id="clipPath1669">
      <path
         d="m 193.88,290.381 h 24.7 v 24.699 h -24.7 z"
         id="path1667" />
    </clipPath>
  </defs>
  <g
     inkscape:label="Layer 1"
     inkscape:groupmode="layer"
     id="layer1"
     transform="translate(-88.996884,-117.35218)">
    <g
       id="g1663"
       transform="matrix(0.31484897,0,0,-0.31484897,26.636773,216.06945)">
      <g
         id="g1665"
         clip-path="url(#clipPath1669)">
        <g
           id="g1671"
           transform="translate(204.3796,304.2766)">
          <path
             d="m 0,0 c 0.067,0.044 0.109,0.101 0.334,0.066 0.029,0.19 0.042,0.382 0.074,0.572 0.034,0.208 0.091,0.412 0.132,0.618 0.046,0.227 0.077,0.543 0.217,0.74 0.08,0.113 0.175,0.216 0.238,0.341 0.113,0.224 0.187,0.47 0.254,0.711 0.047,0.171 0.088,0.339 0.128,0.512 0.05,0.216 0.06,0.447 0.133,0.657 0.293,0.836 0.404,1.725 0.561,2.594 0.078,0.431 0.075,0.869 0.142,1.3 C 2.235,8.255 2.252,8.404 2.26,8.55 2.264,8.613 2.265,8.682 2.266,8.751 2.185,8.512 2.055,8.226 2.033,8.171 1.845,7.698 1.756,7.18 1.598,6.694 1.533,6.492 1.511,6.291 1.468,6.084 1.439,5.941 1.365,5.827 1.326,5.689 1.268,5.481 1.2,5.274 1.125,5.07 1.009,4.753 0.898,4.413 0.749,4.11 0.502,3.604 0.397,3.026 0.311,2.473 0.279,2.26 0.206,2.056 0.173,1.843 0.14,1.635 0.098,1.431 0.059,1.225 0.015,0.991 -0.044,0.765 -0.044,0.526 -0.043,0.429 -0.034,0.358 -0.014,0.264 0.004,0.177 -0.026,0.083 0,0"
             style="fill:#231f20;fill-opacity:1;fill-rule:nonzero;stroke:none"
             id="path1673" />
        </g>
        <g
           id="g1675"
           transform="translate(206.6858,313.368)">
          <path
             d="M 0,0 C -0.03,-0.103 -0.037,-0.223 -0.04,-0.34 0.02,-0.164 0.055,-0.013 0,0"
             style="fill:#231f20;fill-opacity:1;fill-rule:nonzero;stroke:none"
             id="path1677" />
        </g>
        <g
           id="g1679"
           transform="translate(210.4148,313.0881)">
          <path
             d="M 0,0 C -0.001,-0.018 0,-0.036 0,-0.054 0.017,0.073 0.029,0.201 0.035,0.328 0.025,0.219 0.003,0.112 0,0"
             style="fill:#231f20;fill-opacity:1;fill-rule:nonzero;stroke:none"
             id="path1681" />
        </g>
        <g
           id="g1683"
           transform="translate(208.7537,305.3144)">
          <path
             d="m 0,0 c 0.003,-0.097 0.025,-0.191 0.047,-0.284 0.009,-0.036 0.031,-0.127 0.076,-0.15 0.042,0.042 0.067,0.122 0.218,0.029 0.011,0.007 0.022,0.014 0.033,0.021 C 0.32,-0.43 0.341,-0.3 0.341,-0.257 c 0,0.181 0.031,0.327 0.076,0.503 0.103,0.402 0.16,0.821 0.302,1.21 0.044,0.12 0.065,0.246 0.084,0.372 0.028,0.193 0.098,0.371 0.133,0.562 0.038,0.21 0.11,0.414 0.16,0.623 0.024,0.104 0.06,0.202 0.073,0.307 0.011,0.095 0.012,0.186 0.03,0.281 0.036,0.187 0.062,0.373 0.093,0.56 0.043,0.257 0.12,0.505 0.174,0.758 C 1.548,5.308 1.473,5.703 1.529,6.092 1.582,6.463 1.584,6.833 1.644,7.203 1.672,7.375 1.659,7.546 1.661,7.72 1.615,7.377 1.534,7.037 1.454,6.704 1.346,6.252 1.26,5.792 1.1,5.354 1.036,5.177 1.019,4.986 0.945,4.813 0.865,4.625 0.808,4.438 0.726,4.25 0.632,4.035 0.599,3.789 0.529,3.566 0.46,3.343 0.389,3.115 0.303,2.899 0.18,2.588 0.178,2.241 0.074,1.918 -0.034,1.582 0.001,1.192 0.001,0.843 0.001,0.563 -0.009,0.28 0,0"
             style="fill:#231f20;fill-opacity:1;fill-rule:nonzero;stroke:none"
             id="path1685" />
        </g>
        <g
           id="g1687"
           transform="translate(210.4495,313.4165)">
          <path
             d="M 0,0 C 0.004,0.04 0.006,0.081 0.004,0.122 0.004,0.081 0.002,0.041 0,0"
             style="fill:#231f20;fill-opacity:1;fill-rule:nonzero;stroke:none"
             id="path1689" />
        </g>
        <g
           id="g1691"
           transform="translate(211.4366,303.313)">
          <path
             d="m 0,0 c 0.008,0.054 0.023,0.108 0.034,0.155 0.069,0.299 0.184,0.578 0.298,0.862 0.16,0.395 0.309,0.797 0.427,1.206 0.063,0.215 0.124,0.43 0.185,0.646 0.054,0.187 0.065,0.379 0.111,0.568 0.04,0.168 0.103,0.327 0.116,0.5 C 1.184,4.119 1.209,4.29 1.207,4.474 1.203,4.819 1.251,5.168 1.322,5.505 1.351,5.646 1.355,5.774 1.358,5.918 1.361,6.064 1.39,6.208 1.396,6.355 1.401,6.5 1.423,6.656 1.444,6.8 1.467,6.954 1.473,7.111 1.5,7.266 1.55,7.555 1.646,7.871 1.624,8.166 1.613,7.653 1.403,7.191 1.244,6.709 1.09,6.244 0.917,5.784 0.774,5.316 0.673,4.989 0.56,4.673 0.434,4.355 0.363,4.176 0.329,4.009 0.293,3.822 0.25,3.598 0.166,3.373 0.112,3.151 0.022,2.778 -0.059,2.389 -0.106,2.009 -0.125,1.855 -0.128,1.715 -0.166,1.563 -0.205,1.405 -0.271,1.244 -0.296,1.083 -0.362,0.667 -0.327,0.251 -0.341,-0.169 -0.356,-0.097 -0.233,0.035 0,0"
             style="fill:#231f20;fill-opacity:1;fill-rule:nonzero;stroke:none"
             id="path1693" />
        </g>
        <g
           id="g1695"
           transform="translate(214.6754,308.7992)">
          <path
             d="M 0,0 C -0.037,-0.003 -0.046,-0.185 -0.062,-0.222 -0.141,-0.398 -0.233,-0.57 -0.316,-0.745 -0.428,-0.982 -0.524,-1.229 -0.625,-1.471 -0.72,-1.7 -0.754,-1.948 -0.845,-2.176 c -0.039,-0.098 -0.102,-0.185 -0.132,-0.287 -0.03,-0.1 -0.036,-0.208 -0.053,-0.31 -0.029,-0.171 -0.068,-0.342 -0.103,-0.512 -0.08,-0.386 -0.159,-0.786 -0.276,-1.162 -0.059,-0.19 -0.058,-0.386 -0.101,-0.579 -0.015,-0.07 -0.047,-0.133 -0.069,-0.201 -0.035,-0.112 -0.041,-0.232 -0.055,-0.348 -0.028,-0.223 -0.076,-0.441 -0.103,-0.664 -0.032,-0.252 -0.13,-0.486 -0.144,-0.739 -0.015,-0.267 -0.12,-0.505 -0.15,-0.764 -0.01,-0.087 -0.048,-0.161 -0.067,-0.233 -0.018,-0.068 -0.004,-0.137 -0.011,-0.206 0.009,0.014 0.022,0.022 0.305,-0.014 0.01,0.072 -0.029,0.122 -0.04,0.189 -0.012,0.076 0.019,0.158 0.041,0.229 0.056,0.174 0.119,0.344 0.171,0.52 0.092,0.311 0.161,0.625 0.245,0.939 0.074,0.276 0.167,0.553 0.227,0.832 0.052,0.246 0.1,0.486 0.178,0.726 0.057,0.172 0.127,0.339 0.189,0.51 0.082,0.226 0.121,0.462 0.178,0.695 0.042,0.168 0.106,0.328 0.153,0.494 0.05,0.181 0.064,0.365 0.093,0.55 0.044,0.28 0.174,0.53 0.218,0.81 0.022,0.138 0.025,0.276 0.055,0.414 0.034,0.158 0.071,0.303 0.068,0.466 -0.003,0.149 0.017,0.281 0.033,0.426 C 0.017,-0.291 0.042,-0.098 0,0"
             style="fill:#231f20;fill-opacity:1;fill-rule:nonzero;stroke:none"
             id="path1697" />
        </g>
        <g
           id="g1699"
           transform="translate(211.1332,299.1121)">
          <path
             d="m 0,0 c -0.254,-0.308 -0.58,-0.529 -0.927,-0.723 -0.116,-0.407 -0.412,-0.833 -0.765,-1.079 -0.309,-0.215 -0.756,-0.276 -1.016,0.046 -0.277,0.345 -0.119,0.83 0.205,1.082 0.346,0.268 0.822,0.419 1.259,0.438 0.043,0.002 0.082,-0.007 0.117,-0.022 0.312,0.159 0.611,0.344 0.945,0.462 C -0.062,0.246 0.098,0.119 0,0 m -2.029,-3.017 c 0.12,-0.014 0.242,-0.027 0.363,-0.033 0.142,-0.006 0.279,0.017 0.415,-0.034 0.086,-0.032 0.12,-0.126 0.071,-0.202 -0.103,-0.159 -0.303,-0.232 -0.474,-0.303 -0.172,-0.071 -0.352,-0.124 -0.537,-0.147 l -0.494,-0.065 c 0.016,0.018 0.031,0.037 0.046,0.057 -0.328,0.032 -0.625,0.164 -0.789,0.483 -0.058,0.112 -0.053,0.271 0.028,0.372 0.058,0.074 0.113,0.133 0.204,0.168 0.121,0.046 0.287,0.037 0.371,-0.076 0.01,-0.014 0.02,-0.028 0.03,-0.043 0.088,-0.067 0.128,-0.093 0.269,-0.113 0.044,-0.006 0.09,-0.012 0.135,-0.018 z m -1.533,1.064 c -0.157,-0.134 -0.387,-0.185 -0.587,-0.114 -0.255,0.091 -0.327,0.327 -0.331,0.585 -0.112,-0.027 -0.233,-0.028 -0.368,0.011 -0.298,0.084 -0.472,0.31 -0.569,0.571 -0.282,-0.087 -0.589,-0.097 -0.833,0.075 -0.388,0.272 -0.293,0.811 0.05,1.073 0.183,0.14 0.405,0.197 0.613,0.29 0.218,0.098 0.422,0.224 0.646,0.309 0.228,0.087 0.462,0.085 0.617,-0.126 0.058,-0.079 0.088,-0.181 0.103,-0.276 0.005,-0.032 0.009,-0.069 0.011,-0.104 0.071,0.026 0.14,0.057 0.207,0.082 0.256,0.096 0.519,-0.11 0.44,-0.376 -0.077,-0.257 -0.054,-0.507 0.042,-0.755 0.091,-0.235 0.272,-0.528 0.117,-0.756 0.022,-0.178 -0.002,-0.355 -0.158,-0.489 M -6.538,0.823 C -6.694,0.618 -6.977,0.485 -7.238,0.566 -7.559,0.665 -7.7,0.983 -7.684,1.29 c 0.012,0.247 0.085,0.516 0.201,0.748 0.002,0.089 0.019,0.168 0.06,0.262 0.001,0.002 0.001,0.004 0.002,0.006 -0.007,0.061 -0.008,0.121 -0.004,0.177 0.006,0.077 0.027,0.145 0.047,0.213 -10e-4,0.159 -0.002,0.326 0.04,0.48 0.006,0.07 0.02,0.138 0.054,0.21 0.065,0.134 0.269,0.14 0.306,-0.02 0.033,-0.138 0.01,-0.252 0.012,-0.39 0.002,-0.157 0.07,-0.217 0.134,-0.348 0.027,-0.054 0.044,-0.109 0.057,-0.166 0.062,-0.021 0.121,-0.058 0.174,-0.114 0.135,-0.143 0.192,-0.443 0.162,-0.73 0.061,-0.271 0.081,-0.56 -0.099,-0.795 m 2.049,1.512 c 0.079,0.32 0.249,0.709 0.509,0.93 0.021,0.018 0.044,0.035 0.068,0.05 0.238,0.486 0.544,0.943 1.038,1.207 C -2.783,4.57 -2.657,4.468 -2.7,4.373 -2.833,4.079 -3.009,3.814 -3.149,3.522 -3.188,3.441 -3.229,3.361 -3.27,3.281 -3.249,3.253 -3.233,3.22 -3.222,3.182 -3.184,3.148 -3.158,3.103 -3.15,3.048 -3.088,2.64 -3.218,2.217 -3.413,1.859 -3.572,1.568 -3.903,1.218 -4.267,1.468 -4.551,1.662 -4.563,2.039 -4.489,2.335 m 1.713,-0.74 c 0.154,0.261 0.375,0.475 0.638,0.633 0.188,0.114 0.488,0.274 0.719,0.201 0.106,0.092 0.203,0.198 0.303,0.29 0.186,0.171 0.385,0.322 0.586,0.477 0.121,0.092 0.281,-0.047 0.2,-0.173 C -0.543,2.693 -0.757,2.295 -1.085,2.06 -1.122,2.033 -1.163,2.007 -1.205,1.98 -1.216,1.944 -1.23,1.908 -1.247,1.872 -1.279,1.332 -1.622,0.798 -2.16,0.594 -2.434,0.49 -2.793,0.443 -2.942,0.759 -3.071,1.035 -2.916,1.355 -2.776,1.595 M 1.166,0.977 C 1.114,0.941 1.061,0.896 1.002,0.87 0.949,0.847 0.894,0.852 0.838,0.846 0.699,0.83 0.569,0.798 0.437,0.756 0.291,0.71 0.137,0.662 0.003,0.585 -0.064,0.546 -0.12,0.509 -0.186,0.488 c 0.012,0.199 0.027,0.401 0.049,0.6 -0.117,0.325 -0.39,0.542 -0.553,0.836 0.01,0.016 0.021,0.031 0.029,0.048 0.046,0.09 0.103,0.168 0.173,0.24 0.104,0.107 0.184,0.223 0.27,0.346 C -0.009,2.86 0.146,3.203 0.23,3.562 0.25,3.649 0.304,3.94 0.133,3.909 0.07,3.898 0.009,3.843 -0.046,3.814 -0.113,3.779 -0.163,3.745 -0.216,3.692 -0.269,3.639 -0.313,3.577 -0.375,3.536 -0.478,3.468 -0.588,3.411 -0.69,3.341 -0.776,3.283 -0.857,3.219 -0.948,3.168 -0.994,3.141 -1.044,3.116 -1.088,3.085 -1.122,3.061 -1.153,3.03 -1.191,3.013 -1.257,2.983 -1.327,2.964 -1.396,2.948 -1.67,3.162 -1.998,3.317 -2.344,3.408 -2.356,3.407 -2.367,3.403 -2.379,3.402 -2.583,3.38 -2.766,3.375 -2.942,3.388 c 0.001,0.003 0.003,0.006 0.005,0.01 0.013,0.033 0.014,0.069 0.028,0.103 0.019,0.05 0.05,0.094 0.073,0.142 0.031,0.064 0.039,0.136 0.071,0.2 0.026,0.053 0.064,0.099 0.094,0.15 0.035,0.058 0.052,0.123 0.084,0.181 0.028,0.05 0.053,0.092 0.069,0.147 0.046,0.16 0.083,0.318 0.139,0.475 0.056,0.154 0.089,0.309 0.094,0.473 0.001,0.017 0.019,0.168 0,0.181 C -2.303,5.463 -2.305,5.457 -2.322,5.447 -2.329,5.443 -2.333,5.426 -2.339,5.42 -2.353,5.403 -2.38,5.393 -2.397,5.382 -2.43,5.361 -2.47,5.336 -2.5,5.311 -2.524,5.292 -2.538,5.261 -2.559,5.238 -2.594,5.2 -2.628,5.167 -2.675,5.145 -2.719,5.125 -2.761,5.106 -2.801,5.079 -2.863,5.037 -2.927,4.99 -2.981,4.938 -3.047,4.875 -3.125,4.834 -3.191,4.769 -3.228,4.732 -3.255,4.684 -3.298,4.654 -3.34,4.625 -3.377,4.611 -3.413,4.575 -3.448,4.54 -3.472,4.512 -3.493,4.466 -3.514,4.419 -3.541,4.386 -3.569,4.344 -3.627,4.257 -3.641,4.149 -3.701,4.062 -3.745,3.998 -3.799,3.954 -3.852,3.897 -3.916,3.828 -3.985,3.766 -4.055,3.701 -4.09,3.668 -4.114,3.621 -4.152,3.591 -4.177,3.571 -4.206,3.556 -4.234,3.541 -4.332,3.55 -4.431,3.554 -4.529,3.548 -4.758,3.464 -4.991,3.392 -5.233,3.354 -5.28,3.347 -5.326,3.343 -5.372,3.342 -5.369,3.332 -5.368,3.321 -5.365,3.311 -5.364,3.306 -5.361,3.302 -5.359,3.297 -5.461,3.251 -5.564,3.208 -5.673,3.18 -5.966,3.103 -6.255,3.088 -6.532,3.017 -6.554,3.129 -6.535,3.252 -6.589,3.356 -6.661,3.496 -6.678,3.66 -6.717,3.815 -6.73,3.866 -6.747,3.917 -6.756,3.969 -6.764,4.022 -6.758,4.076 -6.763,4.129 -6.769,4.191 -6.78,4.25 -6.798,4.309 -6.816,4.37 -6.811,4.43 -6.821,4.492 -6.826,4.527 -6.83,4.643 -6.892,4.628 -6.936,4.617 -6.979,4.508 -6.996,4.468 -7.021,4.407 -7.03,4.347 -7.047,4.285 -7.06,4.234 -7.094,4.191 -7.115,4.144 -7.155,4.054 -7.178,3.96 -7.222,3.871 -7.247,3.822 -7.268,3.771 -7.289,3.72 -7.311,3.668 -7.314,3.613 -7.335,3.561 -7.378,3.453 -7.45,3.363 -7.502,3.261 -7.561,3.146 -7.587,3.021 -7.621,2.898 -7.646,2.807 -7.679,2.718 -7.694,2.625 -7.706,2.555 -7.733,2.494 -7.749,2.425 -7.764,2.363 -7.766,2.304 -7.79,2.244 -7.846,2.107 -7.903,1.965 -7.925,1.818 -7.93,1.791 -7.936,1.765 -7.942,1.739 -7.969,1.698 -7.996,1.658 -8.023,1.618 -8.275,1.247 -8.486,0.853 -8.722,0.474 c -0.722,-1.02 -1.589,-1.038 -2.51,-1.834 -0.012,-0.011 -0.023,-0.024 -0.034,-0.037 -0.157,-0.089 -0.296,-0.205 -0.455,-0.291 -0.217,-0.116 -0.405,-0.275 -0.61,-0.41 -0.105,-0.069 -0.202,-0.149 -0.306,-0.22 -0.057,-0.032 -0.109,-0.07 -0.157,-0.114 -0.036,-0.044 -0.076,-0.085 -0.12,-0.121 -0.049,-0.041 -0.182,-0.104 -0.151,-0.189 0.123,0.031 0.235,0.076 0.351,0.129 0.065,0.029 0.133,0.06 0.202,0.08 0.047,0.009 0.094,0.022 0.14,0.038 0.043,0.022 0.087,0.042 0.133,0.06 0.131,0.043 0.245,0.122 0.381,0.158 0.127,0.033 0.25,0.05 0.381,0.035 0.181,-0.021 0.313,-0.086 0.459,-0.19 0.129,-0.092 0.203,-0.23 0.313,-0.337 0.042,-0.042 0.004,-0.081 -0.023,-0.122 -0.023,-0.035 -0.041,-0.064 -0.076,-0.091 -0.034,-0.026 -0.131,-0.061 -0.139,-0.112 0.042,0.026 0.089,0.024 0.133,0.047 0.105,0.055 0.186,0.135 0.309,0.152 0.169,0.024 0.348,-0.132 0.326,-0.308 -0.013,-0.103 -0.103,-0.222 -0.16,-0.308 -0.09,-0.133 -0.24,-0.203 -0.36,-0.306 -0.102,-0.087 -0.202,-0.16 -0.315,-0.232 -0.065,-0.04 -0.157,-0.071 -0.191,-0.144 0.036,0.02 0.078,0.02 0.116,0.03 0.086,0.024 0.175,0.056 0.258,0.089 0.225,0.088 0.453,0.169 0.68,0.252 0.074,0.026 0.144,0.048 0.213,0.086 0.095,0.052 0.173,0.114 0.277,0.149 0.179,0.061 0.352,0.128 0.544,0.137 0.155,0.006 0.296,0.087 0.449,0.111 0.082,0.013 0.163,-0.004 0.245,-0.012 0.08,-0.008 0.162,-0.037 0.241,-0.037 0.116,0 0.246,0.044 0.358,0.074 0.048,0.013 0.096,0.035 0.147,0.037 0.035,0.001 0.071,-0.006 0.106,-0.005 0.041,0.002 0.081,-0.007 0.122,-10e-4 0.056,0.01 0.112,0.034 0.17,0.025 0.025,-0.004 0.055,-0.014 0.074,-0.032 0.035,-0.033 0.021,-0.047 0.002,-0.091 -0.04,-0.091 -0.065,-0.184 -0.132,-0.258 -0.041,-0.045 -0.085,-0.085 -0.123,-0.134 -0.058,-0.073 -0.104,-0.155 -0.169,-0.223 -0.145,-0.151 -0.299,-0.307 -0.475,-0.423 -0.134,-0.088 -0.257,-0.195 -0.404,-0.264 -0.213,-0.099 -0.429,-0.181 -0.627,-0.311 -0.096,-0.063 -0.185,-0.137 -0.276,-0.207 -0.04,-0.03 -0.095,-0.047 -0.132,-0.078 0.023,0.003 0.048,0.02 0.069,0.03 0.061,0.029 0.122,0.056 0.182,0.087 0.153,0.077 0.309,0.136 0.469,0.197 0.141,0.054 0.285,0.102 0.43,0.142 0.155,0.044 0.301,0.11 0.45,0.167 0.145,0.055 0.29,0.121 0.439,0.163 0.115,0.032 0.231,0.031 0.35,0.038 0.139,0.008 0.274,0.018 0.402,0.071 0.079,0.033 0.147,0.056 0.219,0.102 0.094,0.06 0.199,0.085 0.295,0.143 0.041,0.024 0.09,0.067 0.138,0.073 0.042,0.005 0.085,-0.002 0.129,0.004 0.033,0.005 0.07,0.006 0.102,0.019 0.031,0.013 0.058,0.036 0.091,0.046 0.056,0.018 0.144,0.036 0.194,-0.007 -0.008,-0.078 -0.078,-0.194 -0.124,-0.253 -0.065,-0.083 -0.129,-0.165 -0.199,-0.243 -0.028,-0.032 -0.06,-0.04 -0.093,-0.064 -0.037,-0.026 -0.07,-0.053 -0.109,-0.077 -0.043,-0.027 -0.081,-0.065 -0.128,-0.087 -0.045,-0.021 -0.083,-0.04 -0.122,-0.071 -0.139,-0.109 -0.285,-0.2 -0.433,-0.293 -0.147,-0.091 -0.261,-0.22 -0.371,-0.352 -0.061,-0.074 -0.138,-0.142 -0.193,-0.22 -0.015,-0.021 -0.029,-0.052 -0.032,-0.078 0.154,0.041 0.287,0.109 0.43,0.179 0.187,0.093 0.384,0.158 0.578,0.235 0.257,0.103 0.523,0.198 0.785,0.288 0.24,0.082 0.466,0.203 0.706,0.282 0.391,0.127 0.794,0.21 1.174,0.37 0.018,0.008 0.038,0.015 0.057,0.023 0.045,-0.032 0.091,-0.062 0.136,-0.096 0.052,0.059 0.133,0.155 0.154,0.233 0.033,0.022 0.067,0.043 0.102,0.06 l -0.05,0.043 c 0.008,0.012 0.016,0.025 0.024,0.037 0.1,-0.037 0.197,-0.06 0.305,-0.057 0.204,0.004 0.402,0.014 0.603,0.046 0.178,0.029 0.351,0.074 0.528,0.107 0.161,0.029 0.308,0.089 0.454,0.159 0.102,0.049 0.21,0.083 0.309,0.139 0.115,0.065 0.222,0.136 0.34,0.196 0.087,0.045 0.172,0.112 0.25,0.172 0.079,0.059 0.162,0.108 0.243,0.164 0.04,0.027 0.194,0.125 0.177,0.176 -0.068,0.009 -0.142,0.006 -0.21,0.003 -0.074,-0.002 -0.144,-0.025 -0.217,-0.021 -0.052,0.003 -0.101,0.02 -0.153,0.021 -0.06,0.002 -0.119,-0.004 -0.179,-0.002 -0.101,0.003 -0.201,0.022 -0.303,0.021 -0.078,-10e-4 -0.145,0.002 -0.222,0.018 -0.111,0.023 -0.218,0.041 -0.328,0.068 -0.055,0.014 -0.107,0.008 -0.164,0.008 -0.066,-10e-4 -0.131,0.002 -0.196,0.007 0.098,0.075 0.195,0.151 0.29,0.228 0.633,0.517 1.107,1.076 1.378,1.801 0.026,0.019 0.052,0.038 0.077,0.059 0.055,0.048 0.092,0.097 0.154,0.138 0.115,0.076 0.212,0.181 0.303,0.284 0.149,0.168 0.323,0.3 0.491,0.449 C 0.756,0.195 0.867,0.293 0.975,0.397 1.031,0.459 1.086,0.522 1.14,0.586 1.215,0.662 1.285,0.742 1.351,0.826 1.42,0.92 1.506,1.048 1.491,1.174 1.457,1.167 1.415,1.135 1.385,1.119 1.309,1.077 1.238,1.026 1.166,0.977"
             style="fill:#231f20;fill-opacity:1;fill-rule:nonzero;stroke:none"
             id="path1701" />
        </g>
      </g>
    </g>
  </g>
</svg>
