<svg width="28" height="24" viewBox="0 0 28 24" fill="#000000" xmlns="http://www.w3.org/2000/svg">
  <path d="M2.9702 12.3809C2.94955 12.263 2.90946 12.2157 2.81108 12.1707C2.73577 12.1355 2.49526 12.0541 2.51348 12.2412L2.45761 12.1841C2.44182 12.1865 2.42603 12.1902 2.41145 12.1926C2.35315 12.3602 2.36894 12.5157 2.33128 12.6821C2.30578 12.7939 2.24869 12.9178 2.28391 13.038C2.34707 13.2542 2.72605 13.1619 2.83294 13.038C2.96169 12.8886 3.00785 12.5959 2.9702 12.3809ZM4.03424 14.1555C3.78159 14.277 3.53137 14.3778 3.28236 14.509C3.12446 14.5916 3.02971 14.6547 3.02364 14.8284C3.01878 14.9863 3.02486 15.1454 3.02486 15.3033C3.02486 15.5062 3.01878 15.6155 2.93254 15.7977C2.84023 15.9957 2.78192 16.2095 2.67139 16.4002C2.63495 16.4634 2.59729 16.5156 2.56328 16.5763C2.54749 16.6043 2.5232 16.6905 2.50134 16.7124C2.38959 16.8277 2.31549 16.682 2.25355 16.5702C2.09685 16.2933 1.93773 16.0637 1.87579 15.754C1.84299 15.5961 1.83692 15.4321 1.80412 15.2754C1.78226 15.1673 1.73731 15.0592 1.72395 14.9462C1.70573 14.7835 1.70816 14.5782 1.60734 14.4349C1.56726 14.3766 1.48831 14.3462 1.43608 14.2915C1.38385 14.2357 1.35348 14.1676 1.31218 14.1045C1.24416 13.9988 1.12998 13.9089 1.07168 13.802C0.97815 13.6295 0.97815 13.4352 0.981794 13.2396C0.984223 13.0975 1.0158 13.0793 0.891909 12.9943C0.768013 12.9092 0.60039 12.8825 0.500787 12.7623C0.393897 12.6335 0.255425 12.3869 0.233561 12.2278C0.223844 12.1586 0.250567 12.0979 0.231132 12.0262C0.212912 11.9655 0.171614 11.8683 0.146106 11.799C0.107237 11.6946 0.0987339 11.6314 0.0744407 11.5294C0.0598647 11.4662 0.0282835 11.4286 0.0137076 11.3654C-0.00451234 11.2816 0.016137 11.165 0.016137 11.0763C0.016137 10.9585 -0.0445962 10.5552 0.0695821 10.4872C0.178902 10.4216 0.543301 10.4811 0.659908 10.4811C0.744934 10.4811 0.870045 10.4641 0.953856 10.486C1.03281 10.5054 1.07897 10.571 0.924704 10.5953C0.928348 10.6111 0.930778 10.6269 0.934422 10.6427C1.07897 10.6779 1.23687 10.7532 1.38749 10.7678C1.53811 10.7836 1.69966 10.7411 1.84906 10.7605C1.96446 10.7763 2.06163 10.8468 2.17216 10.8783C2.37623 10.9379 2.51348 10.9925 2.72848 10.9925C2.89367 10.9913 3.05887 10.9949 3.22406 10.9925C3.43055 10.9901 3.62004 11.0569 3.82046 11.0933C4.03181 11.131 4.26867 11.0581 4.47638 11.1043C4.60513 11.1322 4.72781 11.2002 4.87236 11.2209C4.94038 11.2306 4.9671 11.2148 5.02662 11.2597C5.08128 11.2998 5.10679 11.3666 5.16752 11.4067C5.23554 11.4504 5.33271 11.5391 5.40559 11.5622C5.46754 11.5816 5.56957 11.5549 5.63517 11.5585C5.72141 11.5634 5.77971 11.6047 5.86231 11.6193C5.94005 11.6326 6.19998 11.5646 6.25221 11.6254C6.30201 11.6812 6.21942 11.7602 6.20849 11.8148C6.19391 11.8877 6.20363 11.9679 6.20363 12.042C6.20363 12.2424 6.27408 12.3724 6.30444 12.5691C6.32995 12.7343 6.44656 12.9165 6.29594 13.038C6.19391 13.1206 6.05665 13.1121 5.94612 13.1753C5.89146 13.2068 5.85988 13.287 5.80886 13.3101C5.75663 13.3332 5.67403 13.3453 5.62302 13.3623C5.31814 13.4607 5.14687 13.6551 4.9088 13.8458C4.78369 13.9454 4.66708 14.0352 4.49581 14.062C4.33791 14.0863 4.17514 14.0875 4.03424 14.1555ZM6.36518 18.4931C6.1684 18.4566 6.02629 18.3667 5.85016 18.2732C5.7372 18.2137 5.6546 18.1274 5.55014 18.0618C5.47119 18.012 5.35701 17.9999 5.26712 17.9671C4.98289 17.8614 4.65736 17.8578 4.35248 17.8602C4.05853 17.8626 3.82167 17.7497 3.53501 17.7472C3.30787 17.9185 3.37954 18.176 3.55688 18.3679C3.73908 18.5647 3.94436 18.7481 4.1387 18.9376C4.18121 18.9789 4.23587 19.0214 4.27353 19.0652C4.35127 19.1563 4.37799 19.2607 4.44115 19.364C4.55047 19.5474 4.73753 19.6446 4.84563 19.8219C4.86385 19.8523 4.88815 19.9215 4.90758 19.9446C4.94645 19.964 4.98046 19.9895 5.00961 20.0223C5.03998 20.0952 5.07521 20.1656 5.11286 20.2349C5.26105 20.4669 5.49062 20.8179 5.79793 20.7463C5.83316 20.5446 5.86474 20.3709 5.86231 20.1596C5.86109 19.9677 5.92426 19.7721 5.97527 19.5923C6.08338 19.2158 6.49029 18.9218 6.36518 18.4931M10.1221 20.241C10.0881 20.1098 9.96179 20.0539 9.83425 20.0733C9.65934 20.0976 9.60833 20.1814 9.60833 20.3576L9.55245 20.2446C9.54152 20.326 9.50022 20.3855 9.49415 20.4705C9.48929 20.5422 9.5148 20.6321 9.49779 20.7013C9.48565 20.7548 9.45042 20.7827 9.43584 20.8386C9.4237 20.8884 9.43099 20.988 9.43706 21.0402C9.4735 21.3354 9.84883 21.3402 10.0067 21.1277C10.1063 20.9928 10.1209 20.8568 10.1197 20.6977C10.1185 20.5616 10.1561 20.3721 10.1221 20.241M13.4467 19.8462C13.3337 19.9482 13.3616 20.1681 13.3568 20.3029C13.3507 20.4572 13.2973 20.5483 13.2985 20.711C13.2997 20.8786 13.2973 21.0475 13.2985 21.2151C13.3009 21.4568 13.2292 21.6743 13.1964 21.9135C13.1551 22.199 13.0738 22.4601 13.0713 22.7541C13.0701 22.9156 13.1308 23.0383 13.1272 23.195C13.1272 23.2472 13.1199 23.3165 13.1272 23.3675C13.1357 23.4319 13.1697 23.4598 13.1794 23.5133C13.2013 23.6274 13.1661 23.7501 13.1977 23.8643C13.2049 23.891 13.2851 23.9384 13.2341 23.9833C13.16 24.0489 13.0665 23.9032 13.0264 23.8594C12.9414 23.7683 12.8976 23.7866 12.7871 23.7525C12.5915 23.693 12.3911 23.5971 12.1907 23.5473C12.1288 23.5315 12.0704 23.5424 12.0097 23.5266C11.8202 23.4744 11.6575 23.3323 11.4704 23.2727C11.4036 23.2521 11.3198 23.2229 11.2554 23.2084C11.2032 23.1974 11.1339 23.212 11.0854 23.1999C10.9785 23.1719 10.8752 23.1003 10.772 23.0541C10.6396 22.9958 10.5436 22.9897 10.5132 22.8428C10.489 22.7225 10.512 22.5743 10.4051 22.4832C10.3408 22.5646 10.2727 22.4322 10.2363 22.3873C10.1586 22.2937 10.0723 22.216 9.94965 22.1856C9.85369 22.1613 9.76137 22.1844 9.6642 22.1613C9.55367 22.1346 9.48322 22.1164 9.36054 22.1176C8.92447 22.12 8.48112 22.103 8.06692 21.9937C7.84464 21.9354 7.70738 21.803 7.50575 21.7168C7.43408 21.6864 7.35148 21.6791 7.27982 21.65C7.21666 21.6245 7.179 21.5661 7.11584 21.5467C7.0381 21.5236 6.90813 21.5479 6.82675 21.5491C6.72472 21.5504 6.66641 21.5309 6.57289 21.5066C6.54859 21.5006 6.51094 21.4981 6.47571 21.4921C6.44777 21.5261 6.41498 21.5637 6.37368 21.6062C6.37247 21.5491 6.38097 21.5042 6.39433 21.4605C6.37975 21.4459 6.37125 21.4252 6.37611 21.3961C6.3834 21.3524 6.42105 21.3147 6.46114 21.2892C6.52916 21.124 6.58017 20.9552 6.62997 20.7839C6.66641 20.6552 6.69921 20.5373 6.74294 20.4074C6.78788 20.2689 6.81096 20.1669 6.84011 20.0296C6.86197 19.9264 6.92878 19.7952 6.94457 19.6737C6.95064 19.6178 6.92757 19.5571 6.9385 19.5037C6.95186 19.4393 6.99194 19.4138 7.00045 19.3385C7.01381 19.2206 6.96765 19.0785 6.99559 18.9643C7.0381 18.7882 7.17779 18.934 7.29318 18.9668C7.65151 19.07 7.98918 19.0433 8.35601 19.0506C8.52485 19.0542 8.67911 19.1344 8.84552 19.1611C8.99978 19.1854 9.1504 19.1793 9.3083 19.2097C9.4237 19.2316 9.53545 19.2012 9.64841 19.2146C9.85247 19.2389 10.0201 19.3749 10.2351 19.3919C10.4282 19.4077 10.5837 19.3883 10.7683 19.4563C10.9202 19.5122 11.0805 19.5061 11.2554 19.5061C11.3696 19.5061 11.4825 19.5073 11.5955 19.5061C11.7279 19.5049 11.7923 19.5413 11.9053 19.5656C12.0316 19.5923 12.1749 19.5377 12.3 19.568C12.3559 19.5814 12.3765 19.6142 12.4458 19.6215C12.5211 19.6288 12.5733 19.6288 12.6462 19.6482C12.9086 19.7174 13.2098 19.715 13.4467 19.8462M20.1905 11.9047C20.0811 11.8586 19.9706 11.8974 19.8965 11.9715C19.7568 12.1112 19.6536 12.5704 19.724 12.7392C19.8467 13.0344 20.188 12.7841 20.2731 12.6068C20.3544 12.438 20.42 12.0019 20.1905 11.9047M22.3283 15.2499C22.3101 15.3495 22.3331 15.4151 22.2918 15.5098C22.2566 15.5888 22.191 15.6799 22.1388 15.7491C22.038 15.8827 21.8971 16.0054 21.8655 16.1803C21.8436 16.3079 21.9372 16.614 21.8533 16.7196C21.6918 16.7318 21.4987 16.6492 21.3432 16.6128C21.2472 16.5909 21.1476 16.5374 21.0626 16.5119C20.946 16.4767 20.8233 16.4561 20.7213 16.4002C20.5524 16.3079 20.4249 16.3528 20.2342 16.3152C20.0848 16.286 19.9281 16.2921 19.7811 16.2581C19.7082 16.2411 19.5358 16.2277 19.4823 16.1888C19.4022 16.1293 19.4325 16.0079 19.3584 15.9398C19.3281 15.9119 19.2746 15.9265 19.2418 15.89C19.1957 15.8427 19.209 15.8184 19.1993 15.7613C19.175 15.6155 19.2054 15.4503 19.2005 15.3021C19.1981 15.188 19.1556 15.1309 19.1434 15.0252C19.1349 14.956 19.1568 14.8916 19.1337 14.8223C19.1167 14.7713 19.0754 14.7312 19.0572 14.6802C19.0232 14.5818 19.0305 14.4822 18.9928 14.3875C18.9418 14.26 18.8762 14.1312 18.8228 14.0024C18.6551 13.5943 18.4353 13.2093 18.2458 12.8109C18.1353 12.5764 18.0114 12.3274 17.8134 12.1513C17.7429 12.0881 17.664 12.042 17.5814 12.0043L17.896 11.957C18.0855 11.5986 18.3187 11.2367 18.479 10.8698C18.5154 10.7872 18.5045 10.6354 18.5737 10.5686C18.6539 10.4921 18.6879 10.5589 18.7596 10.582C18.9855 10.6548 19.2272 10.6245 19.4544 10.6803C19.6135 10.7192 19.769 10.7034 19.9354 10.7071C20.0702 10.7107 20.1941 10.7605 20.3277 10.7678C20.4103 10.7727 20.4832 10.7569 20.5634 10.7775C20.8306 10.8468 21.1075 10.9391 21.3942 10.9366C21.5157 10.9354 21.6906 10.8905 21.7513 11.0253C21.778 11.086 21.7562 11.2087 21.7562 11.2755C21.7537 11.3654 21.7805 11.3897 21.7999 11.4589C21.8205 11.5318 21.7962 11.5986 21.8084 11.6715C21.823 11.7723 21.8849 11.8161 21.9274 11.8986C21.9712 11.9861 21.9675 12.0821 21.9955 12.1719C22.0112 12.223 22.061 12.2971 22.0817 12.3566C22.1339 12.5048 22.2566 12.6238 22.3101 12.7635C22.389 12.9663 22.423 13.1728 22.4801 13.3793C22.5165 13.5117 22.6259 13.6939 22.6113 13.83C22.6004 13.9247 22.5226 14.0304 22.4789 14.1142C22.4303 14.2089 22.4145 14.2903 22.3805 14.3887C22.3392 14.5053 22.2384 14.6013 22.2639 14.7385C22.2809 14.8333 22.3574 14.9025 22.3756 14.9936C22.3975 15.0944 22.3453 15.1527 22.3283 15.2499M22.3234 20.0175C22.3392 20.015 22.355 20.0138 22.3696 20.0114C22.3793 19.9859 22.3841 19.9616 22.3878 19.9361C22.3623 19.9336 22.338 19.9531 22.3234 20.0175ZM14.4779 18.5416C14.552 18.4675 14.5933 18.3692 14.6589 18.2914C14.7427 18.1918 14.8994 18.1044 15.0063 18.0266C15.1314 17.9343 15.1958 17.8359 15.2832 17.7145C15.4484 17.4825 15.6501 17.2614 15.8529 17.0658C15.6428 17.1824 15.5541 17.1035 15.4108 17.0512C15.3063 17.0136 15.2031 16.9577 15.0865 16.9237C14.8314 16.8472 14.5046 16.8958 14.235 16.8958C13.8256 16.8946 13.426 16.8387 13.0155 16.8387C12.8697 16.8387 12.6814 16.8678 12.5417 16.8338C12.4312 16.8059 12.2757 16.7342 12.164 16.6844C11.8263 16.535 11.3489 16.6091 10.9712 16.6115C10.9092 16.6115 10.7975 16.6358 10.7416 16.603C10.6809 16.5678 10.6663 16.4816 10.6056 16.4391C10.5327 16.388 10.4622 16.3893 10.3784 16.3844C10.2011 16.3747 10.025 16.354 9.84762 16.3346C9.75894 16.3249 9.6229 16.269 9.55002 16.2957C9.52573 16.3042 9.48565 16.365 9.46743 16.3844C9.39819 16.4548 9.33624 16.5289 9.26822 16.5994C9.12003 16.75 8.87953 16.8654 8.67304 16.897C8.56129 16.9128 8.55886 16.8933 8.47626 16.9905C8.40217 17.078 8.33657 17.129 8.24548 17.1946C8.12765 17.2784 7.98068 17.3403 7.87743 17.4399C7.76811 17.5456 7.65758 17.6537 7.56526 17.7764C7.50453 17.8578 7.32719 17.9586 7.29075 18.0448C7.19236 18.2793 8.05113 18.419 8.1483 18.442C8.26127 18.4675 8.36208 18.4627 8.47262 18.4797C8.57708 18.4967 8.66939 18.5684 8.77507 18.5878C8.87224 18.6072 8.9682 18.5854 9.06294 18.6024C9.13704 18.6157 9.21113 18.6461 9.28766 18.6619C9.71522 18.7518 10.1574 18.8247 10.5995 18.8247C10.7829 18.8259 10.8716 18.8477 11.0343 18.8951C11.1485 18.9279 11.2724 18.9631 11.389 18.9838C11.5688 19.0178 11.7558 18.9728 11.9344 19.0081C12.0984 19.0396 12.232 19.0518 12.3996 19.0518C12.4834 19.0518 12.5976 19.0287 12.6778 19.0482C12.7555 19.0664 12.8029 19.1295 12.8721 19.1611C13.0167 19.2255 13.1758 19.2437 13.3228 19.285C13.4321 19.3154 13.4624 19.3761 13.5669 19.268C13.7528 19.0737 13.9665 18.9048 14.1949 18.753C14.2908 18.6898 14.3941 18.623 14.4779 18.5416M27.5477 8.50488C27.5732 8.17814 27.544 7.82953 27.5452 7.504C27.5465 7.11895 27.5744 6.71204 27.4238 6.35007C27.3436 6.15937 27.2173 5.93709 27.2027 5.72695C27.1906 5.56054 27.193 5.40385 27.1614 5.23623C27.142 5.13177 27.0995 5.02973 27.0885 4.92406C27.074 4.79287 27.097 4.65319 27.0934 4.52079C27.0861 4.32887 27.0108 4.21105 26.9452 4.03736C26.9015 3.92075 26.8869 3.79685 26.8432 3.67781C26.7581 3.44338 26.7011 3.16523 26.5784 2.95023C26.6039 3.1628 26.4229 3.35471 26.3512 3.52598C26.3051 3.63409 26.299 3.77985 26.2966 3.89888C26.2893 4.25842 26.3039 4.61432 26.2674 4.97264C26.2358 5.29696 26.2103 5.62249 26.1824 5.94802C26.1678 6.11443 26.1277 6.26383 26.1277 6.43145C26.1265 6.67925 26.0439 6.89788 26.0099 7.13717C25.9868 7.29751 26.0269 7.46392 26.0014 7.62668C25.9601 7.88905 25.9504 8.18421 25.886 8.43808C25.8642 8.53039 25.8411 8.59112 25.8423 8.69316C25.8435 8.77697 25.8496 8.85714 25.8289 8.9373C25.8265 8.95066 25.7864 9.02719 25.7791 9.04905C25.7378 9.17173 25.7354 9.33814 25.7135 9.46568C25.6856 9.62359 25.6674 9.7657 25.6273 9.91389C25.603 10.0062 25.62 10.1009 25.6018 10.1957C25.5775 10.3269 25.5362 10.4726 25.4864 10.5977C25.4439 10.701 25.4451 10.797 25.4184 10.9063C25.388 11.0302 25.3382 11.2257 25.2763 11.3375C25.2325 11.414 25.156 11.4747 25.1038 11.5598C25.0345 11.6739 24.9459 11.7359 24.8645 11.8379C24.7722 11.9521 24.6956 12.0808 24.6094 12.1962C24.1818 12.7647 23.7689 13.3514 23.3729 13.9429C23.0874 14.3693 22.938 14.8855 22.7801 15.3531C22.6963 15.6046 22.6659 15.8742 22.5846 16.1269C22.5348 16.286 22.4898 16.4196 22.4923 16.5872C22.4947 16.7998 22.5105 16.9796 22.5506 17.18C22.5663 17.2602 22.5882 17.3233 22.621 17.4035C22.6769 17.5395 22.6647 17.6561 22.6635 17.8043C22.6623 18.0011 22.6805 18.187 22.621 18.3716C22.5396 18.6218 22.5639 18.8332 22.5518 19.098C22.5433 19.2619 22.4995 19.3858 22.4352 19.5328C22.3744 19.6713 22.4084 19.8037 22.3878 19.9361C22.4218 19.9385 22.4582 19.9786 22.4789 20.0162C22.5238 20.0964 22.5287 20.1584 22.5481 20.2446C22.5591 20.2908 22.6016 20.4547 22.6404 20.4705C22.6623 20.4802 22.8129 20.4195 22.836 20.4037C22.9028 20.3551 22.9563 20.2895 23.0267 20.2373C23.1785 20.1256 23.3547 19.9725 23.4883 19.8413C23.5466 19.7842 23.5648 19.7223 23.6073 19.6518C23.6911 19.5158 23.8187 19.4296 23.8952 19.2838C23.962 19.1575 24.0628 19.0554 24.126 18.9303C24.1612 18.8611 24.1697 18.7664 24.2074 18.6935C24.3179 18.4724 24.4661 18.2562 24.5888 18.0448C24.9374 17.4436 25.2872 16.8423 25.6528 16.2496C25.7536 16.0868 25.8812 15.9581 25.971 15.7892C26.0111 15.7139 26.0512 15.6398 26.0962 15.5669C26.1885 15.4187 26.2893 15.2742 26.395 15.1357C26.6464 14.8017 26.9124 14.4822 27.1359 14.1324C27.3327 13.8263 27.493 13.6696 27.4894 13.2943C27.4857 13.0404 27.4869 12.806 27.4444 12.557C27.3752 12.161 27.4432 11.7444 27.3873 11.3448C27.34 11.0071 27.3752 10.6463 27.3752 10.305C27.3752 9.96977 27.3533 9.62845 27.3728 9.29441C27.3873 9.03083 27.527 8.77332 27.5477 8.50488M17.0785 20.6977C16.9133 20.5628 16.7773 20.3333 16.7165 20.1292C16.6764 19.9968 16.6145 19.8899 16.5635 19.7612C16.5003 19.6008 16.4627 19.4636 16.4323 19.2899C16.4019 19.115 16.4153 18.94 16.3631 18.7639C16.3181 18.6109 16.2622 18.4578 16.1942 18.3157C16.1371 18.1979 16.0157 18.1068 15.978 17.9732C15.9452 17.8602 16.0157 17.6817 15.9246 17.5966C15.7849 17.6659 15.7023 17.9112 15.6233 18.0339C15.5116 18.21 15.3962 18.391 15.2577 18.5477C15.152 18.6692 15.0379 18.7518 14.9128 18.8404C14.8265 18.9024 14.6467 18.985 14.6492 19.098C14.484 19.1089 14.3905 19.3931 14.2908 19.5085C14.1888 19.6263 14.0455 19.6956 13.9799 19.7903C13.9969 19.8717 13.9337 19.9239 13.9192 20.0017C13.9058 20.0733 13.9228 20.1681 13.9228 20.241C13.924 20.4317 13.9228 20.6224 13.9228 20.8131V21.9828V22.912C13.9228 23.1804 13.8584 23.5485 13.9313 23.8023C14.2289 23.6141 14.3407 23.1853 14.5884 22.9691C14.7306 22.8452 14.9419 22.7091 15.1144 22.6278C15.2091 22.5828 15.2711 22.5148 15.3646 22.4577C15.514 22.3654 15.7023 22.3314 15.8238 22.2002C15.9197 22.097 15.995 21.9706 16.0861 21.8613C16.1469 21.7884 16.2282 21.7192 16.2732 21.6342C16.3072 21.571 16.3169 21.5151 16.3606 21.4568C16.4906 21.2904 16.6752 21.1568 16.8198 21.005C16.9133 20.9042 16.9704 20.7888 17.0785 20.6977M18.9782 18.5404C18.9454 18.4032 18.762 18.3376 18.6321 18.3825C18.4608 18.442 18.4511 18.572 18.4086 18.7141C18.3855 18.7906 18.3539 18.7846 18.36 18.8672C18.3612 18.8854 18.3818 18.9206 18.4049 18.9571C18.3915 19.1951 18.2057 19.5632 18.5774 19.5632C18.7377 19.5632 18.7608 19.5449 18.8179 19.4065C18.8483 19.3324 18.8556 19.3129 18.8592 19.2218C18.8628 19.1344 18.9066 19.0797 18.9199 18.9959C18.9333 18.9182 18.9102 18.8465 18.9296 18.7688C18.9503 18.691 19.0001 18.6291 18.9782 18.5404M21.6468 20.6928C21.6857 20.8604 21.744 21.0608 21.8497 21.1993C21.7197 21.2188 21.5776 21.3329 21.4707 21.407C21.2715 21.5479 21.427 21.7216 21.3322 21.916C21.2339 22.12 20.9934 22.1856 20.7869 22.2306C20.4419 22.3071 20.0933 22.3618 19.7459 22.4249C19.4981 22.4699 19.2649 22.4759 19.0329 22.5695C18.8495 22.6448 18.694 22.6654 18.4924 22.6921C18.4389 22.6994 18.315 22.7492 18.2628 22.7347C18.1778 22.7116 18.2288 22.6873 18.1668 22.6253C18.0429 22.4978 17.7551 22.5938 17.6117 22.6533C17.37 22.7541 17.2267 22.929 16.9352 22.8464C16.8939 22.5986 17.0396 22.4225 17.1441 22.2172C17.3032 21.9002 17.319 21.5176 17.4866 21.2054C17.5838 21.022 17.7393 20.7888 17.7733 20.5823C17.8085 20.3746 17.687 20.3576 17.5413 20.2567C17.5121 20.2507 17.4842 20.2434 17.4563 20.2361C17.4356 20.1887 17.4113 20.1438 17.3846 20.0988C17.3433 20.0478 17.2899 20.0272 17.2437 19.9834C17.1647 19.913 17.0809 19.6956 16.9874 19.6773C16.9425 19.5024 17.0117 19.4441 17.0445 19.3931C17.0834 19.33 17.1283 19.2401 17.1453 19.166C17.1817 19.0093 17.2425 18.8745 17.2741 18.7117C17.2959 18.6048 17.2595 18.4931 17.2838 18.3837C17.3044 18.2938 17.3348 18.2052 17.3567 18.1153C17.4077 17.9003 17.4052 17.6756 17.5073 17.4642C17.5899 17.4654 17.698 17.5043 17.7781 17.531C17.9336 17.5833 18.0235 17.6319 18.1984 17.6343C18.3928 17.6367 18.5616 17.6355 18.7462 17.678C18.9272 17.7193 19.1301 17.7339 19.3062 17.8019C19.4762 17.8687 19.5309 18.0582 19.7641 17.9647C19.7678 17.7983 19.6597 17.8153 19.8504 17.7205C19.9828 17.6537 20.0654 17.5772 20.1674 17.4739C20.2415 17.3986 20.3302 17.3355 20.3957 17.2492C20.431 17.2019 20.4577 17.1241 20.5099 17.0853C20.499 17.2723 20.5524 17.4594 20.6205 17.6331C20.6836 17.7958 20.669 17.9647 20.7334 18.1153C20.85 18.3849 20.9751 18.6825 21.144 18.9364C21.2472 19.0931 21.3274 19.1891 21.3857 19.3688C21.444 19.5535 21.4962 19.7296 21.5302 19.9154C21.5582 20.0685 21.5825 20.2264 21.6153 20.3831C21.6383 20.4863 21.6238 20.5944 21.6468 20.6928ZM15.9683 13.4607C15.9792 13.3405 15.8881 13.1315 15.7679 13.0951C15.3804 12.9773 15.2869 13.4437 15.2844 13.717L15.2286 13.6599C15.2492 13.7437 15.1848 13.7595 15.1691 13.8275C15.152 13.8931 15.1715 13.9879 15.1715 14.0571C15.1703 14.2114 15.1691 14.3292 15.3403 14.3863C15.4764 14.4324 15.6063 14.4069 15.6962 14.3C15.7436 14.2417 15.78 14.1834 15.8116 14.1142C15.8541 14.0158 15.8298 13.9563 15.8505 13.8567C15.876 13.7279 15.9574 13.6028 15.9683 13.4607M17.2413 11.9035C17.3591 11.9242 17.4745 11.9557 17.5814 12.0043L17.5352 12.0116C17.3081 12.1343 17.4793 12.6858 17.4988 12.8825C17.5182 13.089 17.6105 13.3064 17.6992 13.4911C17.7599 13.6162 17.8097 13.7571 17.8826 13.8785C17.9555 14 17.9834 14.1008 18.0223 14.2429C18.066 14.4094 18.1972 14.5272 18.2397 14.679C18.2567 14.7422 18.2446 14.8138 18.2677 14.8831C18.3017 14.9863 18.3745 15.0786 18.3988 15.1855C18.411 15.2463 18.3916 15.3058 18.4037 15.3629C18.4171 15.4236 18.4559 15.471 18.5203 15.59C18.4972 15.6653 18.3685 15.7649 18.3077 15.8317C18.2579 15.8864 18.2179 15.9301 18.1802 15.9872C18.0818 16.1317 18.0016 16.2884 17.9118 16.4403C17.8292 16.5787 17.715 16.8022 17.5328 16.7779C17.4939 16.7719 17.4878 16.7318 17.4453 16.7221C17.3882 16.7087 17.3311 16.7281 17.2716 16.7124C17.1417 16.6796 17.008 16.6322 16.8732 16.6079C16.7773 16.5921 16.6777 16.6188 16.5805 16.6006C16.4311 16.5715 16.2853 16.5253 16.1359 16.4998C16.0169 16.4791 15.9197 16.4439 15.797 16.4415C15.6233 16.4378 15.4594 16.4524 15.2905 16.4123C15.0196 16.3504 14.7087 16.3844 14.4318 16.3844C14.2811 16.3844 14.1293 16.3844 13.9775 16.3844C13.924 16.3844 13.8609 16.3929 13.8074 16.3856C13.7515 16.3783 13.7272 16.354 13.6835 16.3407C13.6046 16.3152 13.5511 16.2994 13.477 16.2702C13.3009 16.201 13.1892 16.2872 13.1843 16.0734C13.1794 15.8487 13.3483 15.6726 13.4576 15.4795C13.5159 15.3762 13.5463 15.2341 13.5961 15.1236C13.6386 15.03 13.658 14.9341 13.6945 14.8503C13.7819 14.6462 13.7394 14.43 13.7515 14.1968C13.7637 13.9696 13.8584 13.7413 13.9082 13.5142C13.9313 13.4097 13.9763 13.3113 13.9811 13.2056C13.9835 13.1485 13.9702 13.1048 13.9908 13.0477C14.0066 13.0052 14.0649 12.9761 14.0819 12.9238C14.1147 12.823 14.1135 12.7489 14.1657 12.6505C14.2143 12.5582 14.2423 12.495 14.3321 12.427C14.484 12.3116 14.5812 12.1805 14.6589 12.0177C14.7828 11.7614 14.965 11.7869 15.2249 11.7869C15.4035 11.7869 15.5808 11.7614 15.7594 11.7663C15.9659 11.7723 16.1626 11.8367 16.3691 11.8428C16.5222 11.8476 16.674 11.8464 16.8271 11.8574C16.9655 11.8683 17.104 11.8792 17.2413 11.9035M20.0228 16.7281C20.0034 16.7111 19.7993 16.6698 19.769 16.665C19.6864 16.6516 19.622 16.6443 19.5418 16.6237C19.4641 16.6043 19.39 16.586 19.3147 16.5678C19.2285 16.5447 19.1422 16.5751 19.0572 16.5569C18.994 16.5435 18.9527 16.5132 18.8908 16.4961C18.8568 16.4864 18.8155 16.501 18.7802 16.4937C18.7474 16.4852 18.7462 16.4512 18.7134 16.4451C18.5592 16.4172 18.5312 16.5472 18.4219 16.6273C18.213 16.7804 17.8935 16.8472 17.7259 17.0658L17.8389 17.1788C17.8425 17.1679 17.845 17.1557 17.8486 17.1448C18.0381 17.2007 18.1681 17.2966 18.3733 17.293C18.5519 17.2905 18.6612 17.3513 18.8325 17.3488C18.9928 17.3476 19.1544 17.3513 19.3147 17.3501C19.4544 17.3476 19.5831 17.3829 19.7216 17.3986C19.684 17.3403 19.9147 17.1168 19.933 17.0865C19.9828 17.0039 20.0957 16.7913 20.0228 16.7281M19.8078 17.4071C19.7787 17.4059 19.7508 17.4023 19.7216 17.3986C19.7313 17.4132 19.7568 17.4181 19.8078 17.4071ZM15.0573 7.35946L15.1144 7.24649C15.1144 7.35581 15.1253 7.46878 15.1022 7.57445C15.0937 7.61211 15.0634 7.64369 15.0561 7.69835C15.0512 7.7445 15.0561 7.79673 15.0573 7.84168C15.0609 7.9765 15.0719 8.05667 15.2298 8.04331C15.3415 8.03359 15.4241 7.98258 15.4581 7.87204C15.4873 7.77487 15.4922 7.65948 15.5177 7.55866C15.5541 7.40804 15.5772 7.43598 15.497 7.3048C15.4484 7.22341 15.3901 7.14689 15.2881 7.12867C15.1545 7.10438 15.0294 7.22584 15.0573 7.35946M13.8378 10.8212C13.6641 10.8176 13.4904 10.8225 13.3167 10.8225C13.3288 10.8225 13.3422 10.8225 13.5256 10.5953C13.4624 10.2321 13.7443 9.89689 13.754 9.54828C13.7588 9.36486 13.7722 9.23611 13.8074 9.06363C13.8499 8.85956 13.9763 8.68344 14.0236 8.47938C14.0746 8.26195 14.139 8.13927 14.2763 7.97529C14.5034 7.70442 14.433 7.29872 14.433 6.96226C14.433 6.70718 14.4524 6.4436 14.4293 6.18852C14.5022 6.27719 14.7306 6.21403 14.8338 6.22375C14.9079 6.22982 14.9589 6.26262 15.0281 6.27598C15.1387 6.29906 15.2565 6.28812 15.3707 6.30999C15.4776 6.33064 15.5808 6.32335 15.6865 6.33671C15.7497 6.34521 15.7764 6.37436 15.8286 6.38894C15.8906 6.40716 15.961 6.42417 16.023 6.43874C16.0703 6.45089 16.2076 6.42295 16.2416 6.46061C16.3035 6.52863 16.244 6.89303 16.2489 6.96712C16.2586 7.14203 16.3242 7.32788 16.3631 7.49914C16.4372 7.8186 16.51 8.1332 16.6218 8.44536C16.6849 8.61785 16.7639 8.77454 16.8198 8.95066C16.8939 9.18631 16.991 9.45718 16.9874 9.7159C16.9838 9.96005 17.1587 10.3366 16.9753 10.5382C16.7821 10.7496 16.527 10.9136 16.2963 11.0763C16.21 11.1371 16.1056 11.1699 16.0193 11.2209C15.9792 11.2439 15.9501 11.2852 15.9112 11.3059C15.7837 11.3776 15.6829 11.267 15.5675 11.2051C15.4144 11.1237 15.2881 11.0192 15.1265 10.9464C14.8763 10.8346 14.5982 10.8795 14.3285 10.8783C14.2447 10.8783 14.1463 10.8917 14.0649 10.8735C13.9775 10.8553 13.9325 10.8237 13.8378 10.8212ZM17.404 10.6548C17.3251 10.5334 17.3178 10.5917 17.3336 10.6439C17.3567 10.6512 17.3797 10.6548 17.404 10.6548ZM9.7225 11.7298C9.7225 11.6096 9.73101 11.5525 9.65084 11.4602C9.5816 11.38 9.54152 11.346 9.43949 11.3314C9.27672 11.3095 9.22935 11.4043 9.09817 11.4468L9.26822 11.5027C9.25243 11.5063 9.23664 11.5087 9.22085 11.5112C9.17105 11.6144 9.20749 11.8136 9.18319 11.929C9.16255 12.025 9.11517 12.161 9.18562 12.2436C9.26701 12.3408 9.44313 12.3153 9.51115 12.2436C9.57189 12.178 9.60468 12.0711 9.64963 11.9983C9.67999 11.9497 9.7055 11.9642 9.72493 11.9035C9.73708 11.8646 9.7225 11.7723 9.7225 11.7298ZM10.6311 15.7321C10.6262 15.6046 10.5776 15.5135 10.5436 15.3908C10.5108 15.273 10.5145 15.1819 10.4598 15.0786C10.246 14.6705 10.059 14.1956 10.0626 13.7194C10.065 13.4437 10.0553 13.3951 9.77716 13.3186C9.67027 13.2882 9.54273 13.2907 9.43584 13.2639C9.30588 13.2323 9.17348 13.1655 9.03986 13.1461C8.99371 13.14 8.94269 13.1595 8.89775 13.151C8.85888 13.1449 8.8273 13.1109 8.80301 13.1048C8.69004 13.0769 8.56979 13.1182 8.45683 13.0951C8.35237 13.0744 8.30499 13.0344 8.1896 13.0356C8.08635 13.0368 7.98189 13.0356 7.87743 13.0356C7.67944 13.0356 7.47902 13.0319 7.28103 13.0356C7.1377 13.038 7.1292 13.0526 7.10977 12.9238C7.09155 12.7854 7.13649 12.67 7.16807 12.54C7.26646 12.1319 7.3284 11.7444 7.40736 11.346C7.44015 11.1808 7.55919 11.0496 7.63693 10.8929C7.68552 10.7945 7.70495 10.7496 7.7341 10.6536C7.76568 10.5504 7.78998 10.4581 7.86407 10.3828C7.97703 10.2661 8.24548 10.2977 8.40824 10.3087C8.58922 10.3196 8.75685 10.3706 8.92447 10.424C9.11153 10.486 9.3083 10.4933 9.50144 10.5261C9.76502 10.5698 10.0541 10.5382 10.3213 10.5382C10.444 10.5382 10.5655 10.537 10.6869 10.5382C10.8157 10.5394 10.9068 10.4969 11.1983 10.3682C11.1995 10.4981 11.1898 10.5601 11.2348 10.6973C11.2943 10.837 11.3465 10.9804 11.3902 11.1261C11.4121 11.2391 11.423 11.3533 11.423 11.4687C11.4437 11.595 11.485 11.6448 11.5396 11.7638C11.632 11.9715 11.649 12.1962 11.7388 12.4039C11.8372 12.6335 11.8457 12.8886 11.9223 13.1267C11.9514 13.219 11.9842 13.2785 11.9939 13.3732C12.0049 13.4692 11.9976 13.5482 12.0206 13.6429C12.0935 13.9466 12.136 14.2612 12.2028 14.5673C12.2393 14.7337 12.328 14.8879 12.3389 15.0604C12.3462 15.16 12.3134 15.2693 12.3316 15.3665C12.3559 15.4928 12.3911 15.5621 12.3899 15.703C12.3899 15.7746 12.3753 15.8621 12.3875 15.9325C12.402 16.0151 12.4834 16.0504 12.4397 16.15C12.1749 16.2143 11.8263 16.156 11.5712 16.1135C11.4583 16.0941 11.3817 16.0929 11.2676 16.0443C11.1327 15.986 11.0647 15.9872 10.9141 15.9872C10.8534 15.9872 10.6809 16.0212 10.6396 15.9787C10.5971 15.9362 10.6335 15.7868 10.6311 15.7321M12.4482 11.1091C12.2247 11.0824 12.0583 10.9621 11.8287 10.9949C11.819 11.1856 11.9077 11.3533 11.8664 11.5476C11.853 11.6096 11.8154 11.6436 11.8214 11.731C11.8275 11.8148 11.8688 11.8756 11.9356 11.844C11.9125 11.9278 12.0073 12.031 12.0352 12.1112C12.0765 12.2266 12.1093 12.3408 12.1567 12.4465C12.1846 12.5108 12.2101 12.5801 12.2466 12.6396C12.2842 12.7015 12.3522 12.7501 12.3765 12.8206C12.4227 12.9554 12.4713 13.0368 12.5466 13.1595C12.594 13.236 12.6098 13.3234 12.6693 13.3975C12.6899 13.4231 12.73 13.4461 12.7458 13.4741C12.7944 13.5567 12.798 13.6478 12.8442 13.7401C12.8636 13.7802 12.8903 13.7777 12.9037 13.8275C12.9183 13.8822 12.8903 13.9381 12.911 13.9976C13.0349 14.0401 13.2001 13.157 13.2438 13.0344C13.2717 12.953 13.2523 12.9493 13.313 12.8801C13.3386 12.8497 13.3677 12.8206 13.3956 12.7939C13.4892 12.7076 13.5815 12.6214 13.6677 12.5254C13.7479 12.4355 13.7843 12.3286 13.8111 12.2145C13.8268 12.1513 13.788 12.0869 13.8208 12.025C13.8378 11.9922 13.8949 11.9557 13.9228 11.929C13.9969 11.8561 14.0601 11.782 14.1257 11.7031C14.2289 11.5792 14.354 11.5172 14.4852 11.4322C14.4585 11.2427 13.9422 11.2998 13.822 11.2658C13.6762 11.2257 13.5535 11.1188 13.4078 11.0739C13.2888 11.0362 13.1709 11.0496 13.0482 11.0484C12.8393 11.0484 12.6571 11.1334 12.4482 11.1091ZM1.1482 8.1587C1.32676 8.2413 1.38749 8.08097 1.44215 7.96314C1.48588 7.86961 1.55268 7.6534 1.46159 7.56109C1.30368 7.39954 1.20529 7.63761 1.20894 7.75665H1.09476C1.09476 7.86597 1.04739 8.11133 1.1482 8.1587ZM0.208054 9.90539C0.316159 9.71712 0.243279 9.33328 0.243279 9.1195C0.243279 8.82798 0.27486 8.58384 0.373248 8.31054C0.396326 8.24494 0.406044 8.17814 0.427908 8.11133C0.455845 8.02631 0.450986 7.95828 0.467991 7.86961C0.489855 7.74329 0.560306 7.62668 0.583384 7.49914C0.622253 7.272 0.653835 7.02299 0.710924 6.80435C0.732788 6.7169 0.817814 6.61487 0.823888 6.51527C0.976935 6.59179 1.1397 6.70718 1.29882 6.78614C1.41786 6.84444 1.84663 6.9404 1.89036 6.75334C2.01304 6.9817 1.93044 7.25378 1.88915 7.47242C1.85757 7.64247 1.7774 7.79188 1.77497 7.97286C1.77254 8.09676 1.75189 8.25831 1.77254 8.38099C1.7859 8.45265 1.82477 8.50731 1.83449 8.58019C1.8442 8.64214 1.83206 8.71502 1.83327 8.77818C1.83327 8.92394 1.78469 8.99925 1.77497 9.13043C1.77132 9.18752 1.75796 9.28955 1.77132 9.34786C1.79197 9.4341 1.90008 9.48633 1.89643 9.57622C1.89522 9.61994 1.84056 9.64059 1.82963 9.68432C1.81384 9.7487 1.83327 9.84587 1.83327 9.91389C1.76039 9.74627 1.7446 9.74991 1.72881 9.75356C1.68994 9.88595 1.72031 10.0196 1.77011 10.1289C1.63771 10.169 1.53325 10.1082 1.413 10.0791C1.29761 10.0511 1.16156 9.9892 1.03767 9.94183C0.870045 9.87867 0.764369 9.85923 0.584599 9.8568C0.465562 9.85559 0.3113 9.95398 0.208054 9.90539ZM21.4719 0.64966C21.6189 0.610791 21.6638 0.616864 21.8133 0.663021C21.9481 0.705534 22.1036 0.697033 22.2396 0.744405C22.474 0.825787 22.6307 1.04078 22.8919 1.00313C23.0109 0.987337 23.0364 0.924174 23.1336 0.846436C23.2429 0.75898 23.3692 0.734687 23.5041 0.660593C23.4093 0.646017 23.3437 0.57921 23.2575 0.551273C23.1749 0.525765 23.1433 0.541555 23.0607 0.492969C22.9478 0.426162 22.8396 0.388508 22.7206 0.337492C22.4813 0.233031 22.2894 0.073911 22.0465 0.0362565C21.8946 0.0131779 21.7343 0.0666221 21.5849 0.0253235C21.4416 -0.0135457 21.3663 -0.0220467 21.2569 0.106708C21.2326 0.137074 21.2132 0.190518 21.1889 0.2221C21.161 0.25854 21.1209 0.302267 21.0881 0.337492C20.9982 0.434665 20.8719 0.543984 20.7334 0.548843L20.6994 0.664237C20.9521 0.616865 21.2132 0.717681 21.4719 0.64966M17.4951 10.6463C17.4648 10.6524 17.4344 10.656 17.404 10.6548C17.4283 10.6925 17.4587 10.7447 17.4988 10.8225C17.4988 10.7629 17.4963 10.7046 17.4951 10.6463M20.6775 2.87614L20.8476 2.76196C20.7844 3.01582 20.7334 3.18831 20.7334 3.44338C20.7334 3.58307 20.6812 3.81993 20.8464 3.88916C21.1051 3.99727 21.4428 3.72276 21.4731 3.47132C21.4938 3.30977 21.4719 3.12879 21.4719 2.96602C21.4719 2.84456 21.5181 2.60162 21.4173 2.50931C21.3383 2.43764 21.0869 2.4668 20.9897 2.50445C20.8549 2.55547 20.697 2.72673 20.6775 2.87614ZM17.8948 10.4556C17.7903 10.5224 17.6385 10.6172 17.4951 10.6463C17.4927 10.5285 17.4891 10.4119 17.4939 10.2953C17.5 10.1556 17.5546 10.073 17.6154 9.95398C17.6603 9.86409 17.6567 9.78878 17.6822 9.69525C17.7624 9.40616 17.9288 9.12072 18.0697 8.84863C18.1304 8.73081 18.1778 8.61177 18.2361 8.49517C18.2616 8.44536 18.3223 8.37613 18.3405 8.32633C18.3673 8.25466 18.3345 8.18664 18.3575 8.11255C18.394 8.0008 18.4851 7.95586 18.5106 7.82589C18.5264 7.74208 18.5482 7.65462 18.564 7.57324C18.5762 7.51372 18.5604 7.43962 18.575 7.38375C18.5895 7.3303 18.6236 7.30115 18.6369 7.24892C18.6624 7.14203 18.6114 7.01449 18.6308 6.90517C18.6418 6.84322 18.6806 6.7995 18.694 6.73876C18.7098 6.66102 18.6673 6.58329 18.7001 6.50555C18.7402 6.40838 18.8288 6.32092 18.8762 6.22739C18.9345 6.112 18.8993 6.00389 18.9296 5.88364C18.9685 5.73545 19.0135 5.5824 19.0341 5.4245C19.0414 5.36498 19.0244 5.32247 19.0414 5.26295C19.0608 5.19007 19.1301 5.11355 19.1616 5.04188C19.2163 4.92041 19.2843 4.78559 19.356 4.66291C19.4192 4.55359 19.4969 4.46006 19.5467 4.34588C19.5698 4.29608 19.5686 4.23777 19.5989 4.18069C19.6572 4.06894 19.656 3.9997 19.6548 3.86609C19.6536 3.57092 19.6548 3.27576 19.6548 2.9806C19.6548 2.67815 19.6463 2.3927 19.7532 2.10968C19.8771 1.78172 20.1018 1.50721 20.2816 1.20841C20.3605 1.07601 20.4055 0.916887 20.4966 0.794206C20.5488 0.722541 20.6071 0.682456 20.6945 0.665451C20.6958 0.665451 20.697 0.665452 20.6994 0.664237L20.6703 0.760194C20.6775 0.763838 20.6836 0.768698 20.6909 0.774771C20.7601 0.824572 20.8197 0.924174 20.901 0.948467C20.9363 0.959399 20.9861 0.933892 21.0213 0.942395C21.0711 0.954542 21.0772 0.993411 21.127 1.00556C21.3298 1.05657 21.6141 0.905953 21.789 1.05536C21.84 1.09908 21.8521 1.17439 21.9092 1.21812C22.0295 1.31044 22.3999 1.28857 22.5238 1.28979C22.6623 1.28979 22.7862 1.2327 22.7813 1.39789C22.7789 1.47199 22.7291 1.55823 22.7206 1.63718C22.7085 1.75014 22.6769 1.84853 22.6611 1.95907C22.6198 2.23115 22.6635 2.53968 22.6635 2.81662C22.6635 3.31463 22.6635 3.80293 22.6198 4.29851C22.604 4.46856 22.604 4.63254 22.6052 4.80381C22.6064 4.95078 22.5688 5.16456 22.6319 5.30668C22.6732 5.39899 22.7121 5.38442 22.723 5.48523C22.7352 5.59091 22.7449 5.68322 22.7643 5.79133C22.7947 5.95652 22.7777 6.13143 22.7765 6.29906C22.7753 6.69504 22.7801 7.09102 22.7765 7.487C22.7728 8.14656 22.8943 8.79276 22.8907 9.4511C22.8894 9.74141 22.8311 10.0852 22.9028 10.3682C22.9356 10.4921 23.0061 10.6743 22.9976 10.8055C22.9186 10.7872 22.932 10.7435 22.8785 10.7071C22.8263 10.6718 22.7935 10.6621 22.7328 10.6378C22.6611 10.6075 22.5797 10.5589 22.5056 10.5224C22.1837 10.3657 21.7246 10.6281 21.4282 10.3815C21.297 10.2734 21.1671 10.1787 21.0347 10.0706C20.8099 9.88717 20.3982 9.87381 20.1285 9.94183C19.8637 10.0086 19.6232 10.0281 19.3499 10.0281C19.1082 10.0281 18.8665 10.0269 18.6248 10.0281C18.5397 10.0281 18.4037 10.0013 18.326 10.0317C18.2616 10.0572 18.2118 10.1435 18.1681 10.1945C18.0855 10.2917 18.0029 10.3864 17.8948 10.4556ZM23.2308 1.74043V2.10968C23.232 2.3599 23.2611 2.63442 23.3547 2.86035C23.3826 2.92958 23.4373 2.9891 23.4664 3.06927C23.4871 3.12879 23.5016 3.17008 23.515 3.23446C23.5502 3.4118 23.5939 3.59765 23.5745 3.78349C23.5636 3.89038 23.5186 3.98391 23.5126 4.09323C23.5053 4.21227 23.515 4.33616 23.515 4.45641C23.515 4.60096 23.515 4.74672 23.515 4.89248V5.7974C23.515 6.0792 23.5612 6.41323 23.5028 6.69139C23.4373 6.9987 23.4579 7.31694 23.4579 7.63518C23.4579 8.33119 23.4858 9.03448 23.4555 9.72926C23.5417 9.6248 23.5745 9.48633 23.6632 9.3758C23.7628 9.25312 23.8551 9.14015 23.9705 9.03448C24.0555 8.95552 24.1284 8.86078 24.2086 8.7794C24.3191 8.66643 24.4855 8.63607 24.5912 8.52189C24.7965 8.30082 24.7236 7.97286 24.8317 7.70564C24.8827 7.58052 25.0406 7.4044 25.0515 7.27686C25.0625 7.14082 24.9228 6.99627 24.8438 6.90153C24.624 6.63673 24.477 6.3027 24.4794 5.95895C24.4831 5.68687 24.4855 5.41235 24.4807 5.14027C24.477 4.97993 24.4187 4.84268 24.3786 4.69206C24.3628 4.63011 24.3689 4.57181 24.3555 4.50864C24.3361 4.4224 24.279 4.34952 24.2572 4.26571C24.2292 4.15032 24.1709 4.02764 24.1442 3.92075C24.1308 3.86609 24.1442 3.80778 24.1357 3.75069C24.1211 3.65595 24.0677 3.5855 24.0385 3.49926C23.9875 3.34621 23.9413 3.19195 23.8697 3.04497C23.7859 2.87128 23.7312 2.68908 23.679 2.51052C23.6608 2.44615 23.6316 2.41699 23.628 2.33683C23.6255 2.27123 23.628 2.20443 23.628 2.13762C23.628 1.83517 23.628 1.53272 23.9693 1.11609C23.8636 1.12459 23.7361 1.24727 23.628 1.28614C23.5514 1.31408 23.2866 1.35174 23.2393 1.41004C23.1943 1.46713 23.2308 1.66755 23.2308 1.74043ZM4.54197 9.02111C4.72781 9.30656 5.0497 9.00168 5.1323 8.81219C5.19181 8.67493 5.21732 8.56683 5.24404 8.415C5.27077 8.26316 5.36551 8.15263 5.21246 8.03845C5.10922 7.96071 4.94767 7.96679 4.84078 8.01051C4.66708 8.08218 4.67315 8.15506 4.67072 8.3239V8.26802C4.66101 8.35669 4.59298 8.41378 4.56869 8.49517C4.55047 8.5559 4.56991 8.60691 4.56019 8.66522C4.53711 8.80733 4.4533 8.88629 4.54197 9.02111ZM1.94381 9.9394C1.97174 9.83494 2.10657 9.72562 2.18431 9.6333C2.2584 9.54463 2.34464 9.46932 2.40052 9.36972C2.46247 9.26283 2.50984 9.14258 2.5645 9.03205C2.73941 8.67615 3.03579 8.4235 3.22285 8.06882C3.27508 7.96922 3.33824 7.87569 3.39897 7.78094C3.43298 7.72628 3.46699 7.67162 3.50222 7.61939C3.5338 7.57081 3.59089 7.51736 3.6164 7.47363C3.66012 7.39711 3.69778 7.33881 3.75851 7.26836C3.78281 7.2392 3.87026 7.11045 3.70628 6.90517C3.7986 6.87845 3.91763 6.99263 4.01359 7.0072C4.17514 7.03271 4.29418 7.02299 4.44358 7.06308C4.53347 7.08737 4.63307 7.07765 4.7266 7.07644C4.85778 7.07401 4.94524 7.11409 5.06913 7.13596C5.15659 7.15053 5.26348 7.13231 5.35215 7.13231C5.47847 7.13474 5.57322 7.17726 5.6959 7.19183C5.78578 7.20398 5.8866 7.17118 5.97649 7.18576C6.07366 7.20276 6.16476 7.26593 6.2595 7.29022C6.6239 7.38011 6.97008 7.23799 7.31019 7.18819C7.50575 7.15904 7.69159 7.09709 7.87743 7.01935C7.95031 6.98898 8.0402 6.93189 8.11065 6.91125C8.15195 6.8991 8.19203 6.91125 8.23454 6.89424C8.27463 6.87845 8.29649 6.825 8.34994 6.81164C8.39123 6.93675 8.38516 7.06308 8.42767 7.19062C8.47262 7.32666 8.59651 7.45177 8.6621 7.57688C8.78357 7.80402 8.96577 8.0421 9.01314 8.29596C9.05201 8.50974 9.15647 8.77818 9.25243 8.96402C9.29616 9.04662 9.35203 9.13043 9.39576 9.2191C9.41762 9.2604 9.46864 9.31628 9.48322 9.35879C9.50629 9.42803 9.49172 9.49726 9.53059 9.56528C9.45285 9.59686 9.31681 9.57379 9.23421 9.57257C9.10181 9.57136 9.03622 9.79121 8.93054 9.83858C8.85645 9.87138 8.76899 9.66124 8.69733 9.68553C8.62081 9.71226 8.554 9.77785 8.47505 9.81429C8.0815 9.99649 7.76811 10.1034 7.33812 10.1593C6.96279 10.2078 7.14135 10.6123 6.83647 10.8067C6.76116 10.854 6.24614 10.9731 6.17205 10.9998C6.07609 11.0326 5.99592 10.9828 5.8866 10.9634C5.66796 10.9257 5.46754 10.8528 5.26348 10.7508C5.19546 10.7168 5.1493 10.6609 5.06913 10.6488C4.91973 10.6257 4.77033 10.6318 4.61728 10.5953C4.50067 10.5686 4.38771 10.4981 4.27353 10.4787C4.18243 10.4629 4.0804 10.5006 3.9893 10.4848C3.83504 10.4568 3.69413 10.3755 3.53501 10.367C3.27265 10.3524 3.06494 10.3244 2.83051 10.2091C2.67017 10.1301 2.51834 10.141 2.34343 10.141C2.16852 10.141 1.87336 10.2078 1.94381 9.9394ZM5.70562 5.15849C5.69347 5.21679 5.69225 5.25445 5.69225 5.31639C5.69347 5.40021 5.6631 5.54718 5.69711 5.6237C5.79672 5.84599 6.019 5.66743 6.07609 5.53017C6.1186 5.42936 6.14411 5.33947 6.14775 5.23137C6.15018 5.11719 6.16354 5.04067 6.09066 4.97507C5.97163 4.86697 5.63152 4.93499 5.69225 5.14634L5.74934 5.03216C5.77485 5.12934 5.71776 5.09411 5.70562 5.15849ZM4.77397 6.49583C4.58934 6.53713 4.37192 6.46789 4.21158 6.59908C4.20065 6.4849 4.37678 6.34521 4.43386 6.26383C4.50431 6.16544 4.57112 6.03669 4.64036 5.9298C4.81041 5.66622 5.01569 5.45608 5.18331 5.184C5.24769 5.08196 5.29992 4.96657 5.3643 4.86211C5.44568 4.73093 5.52827 4.60582 5.5963 4.46492C5.64367 4.36531 5.66918 4.31065 5.73477 4.22684C5.79429 4.15153 5.90968 3.99363 5.9194 3.89767C5.8866 4.01427 6.07123 3.78228 6.14411 3.71304C6.19391 3.66567 6.27165 3.6438 6.32024 3.60008C6.33724 3.58307 6.37004 3.51626 6.38704 3.50898C6.47936 3.46889 6.49393 3.55513 6.55709 3.60129C6.62633 3.65231 6.67735 3.63409 6.72958 3.72397C6.77087 3.79442 6.80853 3.87945 6.84375 3.95111C6.91542 4.09687 6.98344 4.23534 7.05268 4.38232C7.23852 4.76979 7.4353 5.15849 7.62235 5.54354C7.70374 5.71237 7.80698 5.897 7.90415 6.05612C7.96246 6.15087 8.09972 6.41688 8.22847 6.39501C8.08271 6.3853 7.8495 6.49948 7.70738 6.53591C7.55433 6.576 7.39521 6.6173 7.26038 6.68532C6.93364 6.85051 6.64941 6.78371 6.31538 6.67682C5.9862 6.57114 5.61573 6.4521 5.25133 6.4521C5.16145 6.4521 5.07278 6.4521 4.98289 6.4521C4.89544 6.45089 4.83956 6.48126 4.77397 6.49583ZM0.983008 6.08527C0.992726 6.20553 1.07168 6.16544 1.17978 6.16666C1.36806 6.16909 1.48223 6.26869 1.63893 6.33792C1.73974 6.38287 1.80898 6.42174 1.83692 6.28205C1.84542 6.23711 1.82477 6.18488 1.83084 6.13993C1.83692 6.08406 1.86364 6.04762 1.877 5.99782C1.90008 5.90672 1.89158 5.80833 1.88915 5.71359C1.88793 5.60305 1.9268 5.57998 1.94988 5.49009C2.04341 5.11476 1.45794 5.02002 1.21865 4.96657C1.21744 4.96293 1.21622 4.95928 1.21622 4.95685C1.20165 5.05281 1.21744 5.14877 1.19557 5.24716C1.17614 5.3334 1.11055 5.40628 1.09233 5.48402C1.07168 5.57147 1.10933 5.67715 1.09719 5.76703C1.08504 5.86906 0.97572 5.99539 0.983008 6.08527ZM1.25995 4.81595L1.20894 4.9192C1.21136 4.93135 1.21379 4.94349 1.21622 4.95685C1.21744 4.94349 1.21865 4.93135 1.22108 4.9192C1.22958 4.88397 1.24416 4.84996 1.25995 4.81595ZM11.485 7.88055C11.474 8.02509 11.3878 8.17814 11.4206 8.32633C11.4522 8.4648 11.5688 8.46237 11.6672 8.39678C11.7644 8.3324 11.7558 8.25466 11.7789 8.15385C11.8032 8.04817 11.8688 7.97651 11.881 7.87204C11.8907 7.78216 11.9028 7.61818 11.8834 7.52951C11.8591 7.41654 11.7461 7.31208 11.621 7.36189C11.5627 7.38375 11.4619 7.57202 11.4813 7.64369H11.5093C11.4546 7.68013 11.4898 7.81374 11.485 7.88055ZM10.2898 9.53006C10.144 9.4839 10.0456 9.46325 9.89256 9.45961C10.1003 9.11221 10.1744 8.99682 10.1768 8.92151C10.1816 8.82069 10.1974 8.75753 10.2205 8.66522C10.2764 8.44658 10.291 8.21336 10.2898 7.98379C10.2898 7.79795 10.2594 7.59753 10.3396 7.43841C10.3857 7.34731 10.4003 7.32059 10.4962 7.26836C10.6141 7.20276 10.8048 7.21127 10.9044 7.1226C10.9615 7.0728 11.0295 6.91975 11.0708 6.85051C11.0963 6.80557 11.1254 6.75698 11.1376 6.70718C11.1473 6.66588 11.123 6.59543 11.1376 6.56142C11.1862 6.44117 11.5153 6.58207 11.6222 6.62823C11.7923 6.70354 11.9781 6.67803 12.1628 6.67803C12.249 6.67803 12.368 6.65617 12.4494 6.6756C12.5284 6.69382 12.577 6.72905 12.6656 6.74362C12.679 6.88209 12.7324 6.99141 12.73 7.13231C12.7288 7.25742 12.7312 7.38253 12.7312 7.50643C12.7312 7.64612 12.7324 7.7858 12.7312 7.92549C12.7288 8.08097 12.7822 8.20729 12.7883 8.35791C12.8017 8.71138 12.7835 9.07092 12.9013 9.40373C12.9596 9.56893 12.9559 9.69768 12.9572 9.86773C12.9584 9.9807 12.9717 10.2382 12.8697 10.3087C12.7762 10.373 12.5551 10.2868 12.4591 10.2674C12.2539 10.2236 12.0279 10.2613 11.8263 10.2977C11.6878 10.3244 11.6149 10.2929 11.5931 10.141C11.5688 9.97948 11.6028 9.93697 11.485 9.80093C11.389 9.68918 11.2275 9.64424 11.0817 9.62723C11.0283 9.62116 10.97 9.64181 10.9153 9.6333C10.8133 9.61508 10.7355 9.57621 10.6274 9.57257C10.4987 9.56771 10.41 9.56893 10.2898 9.53006ZM4.41686 14.5673C4.48609 14.5806 4.55897 14.5624 4.63307 14.543C4.56383 14.56 4.49217 14.5697 4.41686 14.5673ZM5.87567 16.7816C5.90725 16.914 5.98742 17.0342 6.14897 16.9419C6.21092 16.9079 6.33846 16.7549 6.37611 16.699C6.48664 16.5326 6.56195 16.201 6.44535 16.0285C6.3506 15.8864 5.8538 15.8524 5.9194 16.1002V16.1573C6.07001 16.1755 5.89389 16.3346 5.87567 16.3978C5.84409 16.5034 5.85016 16.6747 5.87567 16.7816ZM3.70871 16.4889C3.72329 16.2471 3.68077 16.0164 3.76216 15.7844C3.83746 15.573 3.87998 15.3398 4.16057 15.0228C4.48974 15.0228 4.79948 15.1418 5.12622 15.1357C5.21854 15.1333 5.29992 15.1272 5.38616 15.1624C5.43232 15.1807 5.4724 15.2232 5.5222 15.2378C5.64002 15.2742 5.79914 15.2499 5.9194 15.2499C6.26922 15.2499 6.60811 15.3058 6.95915 15.3058C7.25553 15.307 7.5519 15.3058 7.8495 15.3058C7.94424 15.3058 8.03898 15.307 8.13251 15.3058C8.17988 15.3058 8.26127 15.2924 8.30621 15.3033C8.34629 15.3131 8.35722 15.3483 8.39366 15.358C8.48355 15.3799 8.60744 15.4285 8.70219 15.4224C8.80422 15.4151 8.83945 15.3629 8.91354 15.2924C9.05201 15.1588 9.25486 14.9948 9.42613 14.8916C9.56217 14.8102 9.74072 14.7264 9.83911 14.5879C9.82697 14.8236 9.84397 15.0118 9.89863 15.2208C9.94843 15.4127 10.1197 15.5973 10.0541 15.8086C9.94479 15.8196 9.85733 15.8524 9.75166 15.8791C9.60104 15.9168 9.44313 15.9508 9.29494 15.986C9.08481 16.0358 8.82365 16.1232 8.68518 16.3152C8.59651 16.4391 8.50541 16.501 8.38759 16.5885C8.32564 16.6346 8.29042 16.7379 8.23454 16.7731C8.20296 16.7937 8.11186 16.7998 8.07664 16.8095C7.70859 16.9079 7.22759 17.1132 7.04053 17.4642C6.9883 17.5638 6.9142 17.6513 6.8559 17.7472C6.74658 17.9258 6.71621 17.9307 6.49879 17.9161C6.17205 17.8954 5.88417 17.6804 5.56593 17.6902C5.36187 17.6962 5.25376 17.6367 5.0667 17.5869C4.91001 17.5468 4.77883 17.5323 4.61242 17.514C4.47516 17.4995 4.25774 17.48 4.13627 17.4071C4.03181 17.3428 3.98201 17.2322 3.89212 17.163C3.80953 17.0986 3.59939 17.1788 3.54352 17.1132C3.49493 17.0573 3.58603 16.9383 3.60668 16.8848C3.65162 16.767 3.70021 16.614 3.70871 16.4889M5.52949 14.5114C5.29142 14.5114 5.05334 14.5138 4.81527 14.5114C4.76668 14.5114 4.7181 14.5223 4.66829 14.5345C4.88693 14.4737 5.08614 14.3474 5.31814 14.2842C5.54164 14.2235 5.74813 14.0717 5.94126 13.9478C6.06637 13.8688 6.40769 13.7401 6.37368 13.5469C6.55345 13.6551 6.70407 13.7194 6.88505 13.717C7.07576 13.7146 7.25188 13.7729 7.44258 13.7741C7.73532 13.7789 8.01469 13.8968 8.30378 13.9575C8.57951 14.0158 8.86252 14.0061 9.14311 14.0012C9.35203 13.9976 9.3496 14.034 9.25243 14.215C9.1674 14.3729 8.97549 14.5065 8.82973 14.6389C8.70826 14.7495 8.63417 14.798 8.47383 14.7956C8.30742 14.792 8.13858 14.7908 7.97218 14.7956C7.84828 14.798 7.7669 14.7895 7.64786 14.7385C7.57498 14.7069 7.51182 14.7082 7.44987 14.6839C7.38064 14.6571 7.36242 14.6377 7.28589 14.6231C7.21058 14.6098 7.11705 14.6244 7.03932 14.6244C6.82675 14.6256 6.64455 14.5782 6.43198 14.5539C6.12467 14.5199 5.84044 14.5114 5.52949 14.5114"/>
</svg>
