<?xml version="1.0" encoding="UTF-8" standalone="no"?>
<!-- Created with Inkscape (http://www.inkscape.org/) -->

<svg
   width="27.558174"
   height="24"
   viewBox="0 0 7.2914336 6.35"
   version="1.1"
   id="svg59596"
   inkscape:version="1.2.1 (9c6d41e4, 2022-07-14)"
   sodipodi:docname="city-of-the-elder-things.svg"
   xmlns:inkscape="http://www.inkscape.org/namespaces/inkscape"
   xmlns:sodipodi="http://sodipodi.sourceforge.net/DTD/sodipodi-0.dtd"
   xmlns="http://www.w3.org/2000/svg"
   xmlns:svg="http://www.w3.org/2000/svg">
  <sodipodi:namedview
     id="namedview59598"
     pagecolor="#505050"
     bordercolor="#eeeeee"
     borderopacity="1"
     inkscape:showpageshadow="0"
     inkscape:pageopacity="0"
     inkscape:pagecheckerboard="0"
     inkscape:deskcolor="#505050"
     inkscape:document-units="mm"
     showgrid="false"
     inkscape:zoom="0.7046647"
     inkscape:cx="-48.249898"
     inkscape:cy="83.018207"
     inkscape:window-width="1390"
     inkscape:window-height="941"
     inkscape:window-x="0"
     inkscape:window-y="25"
     inkscape:window-maximized="0"
     inkscape:current-layer="layer1" />
  <defs
     id="defs59593">
    <clipPath
       clipPathUnits="userSpaceOnUse"
       id="clipPath55393">
      <path
         d="m 188.526,389.039 h 24.699 v 24.7 h -24.699 z"
         id="path55391" />
    </clipPath>
  </defs>
  <g
     inkscape:label="Layer 1"
     inkscape:groupmode="layer"
     id="layer1"
     transform="translate(-118.00789,-126.73903)">
    <g
       id="g55387"
       transform="matrix(0.32137946,0,0,-0.32137946,57.122639,258.30851)">
      <g
         id="g55389"
         clip-path="url(#clipPath55393)">
        <g
           id="g55395"
           transform="translate(191.895,399.197)">
          <path
             d="M 0,0 C -0.017,0.097 -0.05,0.136 -0.131,0.173 -0.193,0.202 -0.391,0.269 -0.376,0.115 L -0.422,0.162 C -0.435,0.16 -0.448,0.157 -0.46,0.155 -0.508,0.017 -0.495,-0.111 -0.526,-0.248 -0.547,-0.34 -0.594,-0.442 -0.565,-0.541 c 0.052,-0.178 0.364,-0.102 0.452,0 C -0.007,-0.418 0.031,-0.177 0,0 M 0.876,-1.461 C 0.668,-1.561 0.462,-1.644 0.257,-1.752 0.127,-1.82 0.049,-1.872 0.044,-2.015 0.04,-2.145 0.045,-2.276 0.045,-2.406 c 0,-0.167 -0.005,-0.257 -0.076,-0.407 -0.076,-0.163 -0.124,-0.339 -0.215,-0.496 -0.03,-0.052 -0.061,-0.095 -0.089,-0.145 -0.013,-0.023 -0.033,-0.094 -0.051,-0.112 -0.092,-0.095 -0.153,0.025 -0.204,0.117 -0.129,0.228 -0.26,0.417 -0.311,0.672 -0.027,0.13 -0.032,0.265 -0.059,0.394 -0.018,0.089 -0.055,0.178 -0.066,0.271 -0.015,0.134 -0.013,0.303 -0.096,0.421 -0.033,0.048 -0.098,0.073 -0.141,0.118 -0.043,0.046 -0.068,0.102 -0.102,0.154 -0.056,0.087 -0.15,0.161 -0.198,0.249 -0.077,0.142 -0.077,0.302 -0.074,0.463 0.002,0.117 0.028,0.132 -0.074,0.202 -0.102,0.07 -0.24,0.092 -0.322,0.191 -0.088,0.106 -0.202,0.309 -0.22,0.44 -0.008,0.057 0.014,0.107 -0.002,0.166 -0.015,0.05 -0.049,0.13 -0.07,0.187 -0.032,0.086 -0.039,0.138 -0.059,0.222 -0.012,0.052 -0.038,0.083 -0.05,0.135 -0.015,0.069 0.002,0.165 0.002,0.238 0,0.097 -0.05,0.429 0.044,0.485 0.09,0.054 0.39,0.005 0.486,0.005 0.07,0 0.173,0.014 0.242,-0.004 0.065,-0.016 0.103,-0.07 -0.024,-0.09 0.003,-0.013 0.005,-0.026 0.008,-0.039 0.119,-0.029 0.249,-0.091 0.373,-0.103 0.124,-0.013 0.257,0.022 0.38,0.006 0.095,-0.013 0.175,-0.071 0.266,-0.097 0.168,-0.049 0.281,-0.094 0.458,-0.094 0.136,10e-4 0.272,-0.002 0.408,0 C 0.379,1.145 0.535,1.09 0.7,1.06 0.874,1.029 1.069,1.089 1.24,1.051 1.346,1.028 1.447,0.972 1.566,0.955 1.622,0.947 1.644,0.96 1.693,0.923 1.738,0.89 1.759,0.835 1.809,0.802 1.865,0.766 1.945,0.693 2.005,0.674 2.056,0.658 2.14,0.68 2.194,0.677 2.265,0.673 2.313,0.639 2.381,0.627 2.445,0.616 2.659,0.672 2.702,0.622 2.743,0.576 2.675,0.511 2.666,0.466 2.654,0.406 2.662,0.34 2.662,0.279 2.662,0.114 2.72,0.007 2.745,-0.155 2.766,-0.291 2.862,-0.441 2.738,-0.541 2.654,-0.609 2.541,-0.602 2.45,-0.654 2.405,-0.68 2.379,-0.746 2.337,-0.765 2.294,-0.784 2.226,-0.794 2.184,-0.808 1.933,-0.889 1.792,-1.049 1.596,-1.206 1.493,-1.288 1.397,-1.362 1.256,-1.384 1.126,-1.404 0.992,-1.405 0.876,-1.461 m 1.919,-3.571 c -0.162,0.03 -0.279,0.104 -0.424,0.181 -0.093,0.049 -0.161,0.12 -0.247,0.174 -0.065,0.041 -0.159,0.051 -0.233,0.078 -0.234,0.087 -0.502,0.09 -0.753,0.088 -0.242,-0.002 -0.437,0.091 -0.673,0.093 -0.187,-0.141 -0.128,-0.353 0.018,-0.511 0.15,-0.162 0.319,-0.313 0.479,-0.469 0.035,-0.034 0.08,-0.069 0.111,-0.105 0.064,-0.075 0.086,-0.161 0.138,-0.246 0.09,-0.151 0.244,-0.231 0.333,-0.377 0.015,-0.025 0.035,-0.082 0.051,-0.101 0.032,-0.016 0.06,-0.037 0.084,-0.064 0.025,-0.06 0.054,-0.118 0.085,-0.175 0.122,-0.191 0.311,-0.48 0.564,-0.421 0.029,0.166 0.055,0.309 0.053,0.483 -10e-4,0.158 0.051,0.319 0.093,0.467 0.089,0.31 0.424,0.552 0.321,0.905 M 5.888,-6.471 C 5.86,-6.363 5.756,-6.317 5.651,-6.333 5.507,-6.353 5.465,-6.422 5.465,-6.567 L 5.419,-6.474 C 5.41,-6.541 5.376,-6.59 5.371,-6.66 5.367,-6.719 5.388,-6.793 5.374,-6.85 5.364,-6.894 5.335,-6.917 5.323,-6.963 5.313,-7.004 5.319,-7.086 5.324,-7.129 c 0.03,-0.243 0.339,-0.247 0.469,-0.072 0.082,0.111 0.094,0.223 0.093,0.354 -0.001,0.112 0.03,0.268 0.002,0.376 m 2.737,0.325 C 8.532,-6.23 8.555,-6.411 8.551,-6.522 8.546,-6.649 8.502,-6.724 8.503,-6.858 8.504,-6.996 8.502,-7.135 8.503,-7.273 8.505,-7.472 8.446,-7.651 8.419,-7.848 8.385,-8.083 8.318,-8.298 8.316,-8.54 8.315,-8.673 8.365,-8.774 8.362,-8.903 c 0,-0.043 -0.006,-0.1 0,-0.142 0.007,-0.053 0.035,-0.076 0.043,-0.12 C 8.423,-9.259 8.394,-9.36 8.42,-9.454 8.426,-9.476 8.492,-9.515 8.45,-9.552 8.389,-9.606 8.312,-9.486 8.279,-9.45 8.209,-9.375 8.173,-9.39 8.082,-9.362 7.921,-9.313 7.756,-9.234 7.591,-9.193 7.54,-9.18 7.492,-9.189 7.442,-9.176 7.286,-9.133 7.152,-9.016 6.998,-8.967 6.943,-8.95 6.874,-8.926 6.821,-8.914 6.778,-8.905 6.721,-8.917 6.681,-8.907 6.593,-8.884 6.508,-8.825 6.423,-8.787 6.314,-8.739 6.235,-8.734 6.21,-8.613 6.19,-8.514 6.209,-8.392 6.121,-8.317 6.068,-8.384 6.012,-8.275 5.982,-8.238 5.918,-8.161 5.847,-8.097 5.746,-8.072 5.667,-8.052 5.591,-8.071 5.511,-8.052 5.42,-8.03 5.362,-8.015 5.261,-8.016 4.902,-8.018 4.537,-8.004 4.196,-7.914 4.013,-7.866 3.9,-7.757 3.734,-7.686 3.675,-7.661 3.607,-7.655 3.548,-7.631 3.496,-7.61 3.465,-7.562 3.413,-7.546 3.349,-7.527 3.242,-7.547 3.175,-7.548 3.091,-7.549 3.043,-7.533 2.966,-7.513 2.946,-7.508 2.915,-7.506 2.886,-7.501 2.863,-7.529 2.836,-7.56 2.802,-7.595 c -10e-4,0.047 0.006,0.084 0.017,0.12 -0.012,0.012 -0.019,0.029 -0.015,0.053 0.006,0.036 0.037,0.067 0.07,0.088 0.056,0.136 0.098,0.275 0.139,0.416 0.03,0.106 0.057,0.203 0.093,0.31 0.037,0.114 0.056,0.198 0.08,0.311 0.018,0.085 0.073,0.193 0.086,0.293 0.005,0.046 -0.014,0.096 -0.005,0.14 0.011,0.053 0.044,0.074 0.051,0.136 0.011,0.097 -0.027,0.214 -0.004,0.308 0.035,0.145 0.15,0.025 0.245,-0.002 0.295,-0.085 0.573,-0.063 0.875,-0.069 0.139,-0.003 0.266,-0.069 0.403,-0.091 0.127,-0.02 0.251,-0.015 0.381,-0.04 0.095,-0.018 0.187,0.007 0.28,-0.004 0.168,-0.02 0.306,-0.132 0.483,-0.146 0.159,-0.013 0.287,0.003 0.439,-0.053 0.125,-0.046 0.257,-0.041 0.401,-0.041 0.094,0 0.187,-0.001 0.28,0 0.109,10e-4 0.162,-0.029 0.255,-0.049 0.104,-0.022 0.222,0.023 0.325,-0.002 0.046,-0.011 0.063,-0.038 0.12,-0.044 0.062,-0.006 0.105,-0.006 0.165,-0.022 0.216,-0.057 0.464,-0.055 0.659,-0.163 m 5.552,6.538 c -0.09,0.038 -0.181,0.006 -0.242,-0.055 -0.115,-0.115 -0.2,-0.493 -0.142,-0.632 0.101,-0.243 0.382,-0.037 0.452,0.109 0.067,0.139 0.121,0.498 -0.068,0.578 m 1.76,-2.754 c -0.015,-0.082 0.004,-0.136 -0.03,-0.214 -0.029,-0.065 -0.083,-0.14 -0.126,-0.197 -0.083,-0.11 -0.199,-0.211 -0.225,-0.355 -0.018,-0.105 0.059,-0.357 -0.01,-0.444 -0.133,-0.01 -0.292,0.058 -0.42,0.088 -0.079,0.018 -0.161,0.062 -0.231,0.083 -0.096,0.029 -0.197,0.046 -0.281,0.092 -0.139,0.076 -0.244,0.039 -0.401,0.07 -0.123,0.024 -0.252,0.019 -0.373,0.047 -0.06,0.014 -0.202,0.025 -0.246,0.057 -0.066,0.049 -0.041,0.149 -0.102,0.205 -0.025,0.023 -0.069,0.011 -0.096,0.041 -0.038,0.039 -0.027,0.059 -0.035,0.106 -0.02,0.12 0.005,0.256 10e-4,0.378 -0.002,0.094 -0.037,0.141 -0.047,0.228 -0.007,0.057 0.011,0.11 -0.008,0.167 -0.014,0.042 -0.048,0.075 -0.063,0.117 -0.028,0.081 -0.022,0.163 -0.053,0.241 -0.042,0.105 -0.096,0.211 -0.14,0.317 -0.138,0.336 -0.319,0.653 -0.475,0.981 -0.091,0.193 -0.193,0.398 -0.356,0.543 -0.058,0.052 -0.123,0.09 -0.191,0.121 l 0.259,0.039 c 0.156,0.295 0.348,0.593 0.48,0.895 0.03,0.068 0.021,0.193 0.078,0.248 0.066,0.063 0.094,0.008 0.153,-0.011 0.186,-0.06 0.385,-0.035 0.572,-0.081 0.131,-0.032 0.259,-0.019 0.396,-0.022 0.111,-0.003 0.213,-0.044 0.323,-0.05 0.068,-0.004 0.128,0.009 0.194,-0.008 0.22,-0.057 0.448,-0.133 0.684,-0.131 0.1,10e-4 0.244,0.038 0.294,-0.073 0.022,-0.05 0.004,-0.151 0.004,-0.206 -0.002,-0.074 0.02,-0.094 0.036,-0.151 0.017,-0.06 -0.003,-0.115 0.007,-0.175 0.012,-0.083 0.063,-0.119 0.098,-0.187 0.036,-0.072 0.033,-0.151 0.056,-0.225 0.013,-0.042 0.054,-0.103 0.071,-0.152 0.043,-0.122 0.144,-0.22 0.188,-0.335 0.065,-0.167 0.093,-0.337 0.14,-0.507 0.03,-0.109 0.12,-0.259 0.108,-0.371 -0.009,-0.078 -0.073,-0.165 -0.109,-0.234 -0.04,-0.078 -0.053,-0.145 -0.081,-0.226 -0.034,-0.096 -0.117,-0.175 -0.096,-0.288 0.014,-0.078 0.077,-0.135 0.092,-0.21 0.018,-0.083 -0.025,-0.131 -0.039,-0.211 m -0.004,-3.925 c 0.013,0.002 0.026,0.003 0.038,0.005 0.008,0.021 0.012,0.041 0.015,0.062 -0.021,0.002 -0.041,-0.014 -0.053,-0.067 m -6.459,1.215 c 0.061,0.061 0.095,0.142 0.149,0.206 0.069,0.082 0.198,0.154 0.286,0.218 0.103,0.076 0.156,0.157 0.228,0.257 0.136,0.191 0.302,0.373 0.469,0.534 -0.173,-0.096 -0.246,-0.031 -0.364,0.012 -0.086,0.031 -0.171,0.077 -0.267,0.105 -0.21,0.063 -0.479,0.023 -0.701,0.023 -0.337,10e-4 -0.666,0.047 -1.004,0.047 -0.12,0 -0.275,-0.024 -0.39,0.004 -0.091,0.023 -0.219,0.082 -0.311,0.123 -0.278,0.123 -0.671,0.062 -0.982,0.06 -0.051,0 -0.143,-0.02 -0.189,0.007 -0.05,0.029 -0.062,0.1 -0.112,0.135 C 6.226,-3.299 6.168,-3.3 6.099,-3.296 5.953,-3.288 5.808,-3.271 5.662,-3.255 5.589,-3.247 5.477,-3.201 5.417,-3.223 5.397,-3.23 5.364,-3.28 5.349,-3.296 5.292,-3.354 5.241,-3.415 5.185,-3.473 5.063,-3.597 4.865,-3.692 4.695,-3.718 4.603,-3.731 4.601,-3.715 4.533,-3.795 4.472,-3.867 4.418,-3.909 4.343,-3.963 4.246,-4.032 4.125,-4.083 4.04,-4.165 3.95,-4.252 3.859,-4.341 3.783,-4.442 3.733,-4.509 3.587,-4.592 3.557,-4.663 3.476,-4.856 4.183,-4.971 4.263,-4.99 4.356,-5.011 4.439,-5.007 4.53,-5.021 4.616,-5.035 4.692,-5.094 4.779,-5.11 c 0.08,-0.016 0.159,0.002 0.237,-0.012 0.061,-0.011 0.122,-0.036 0.185,-0.049 0.352,-0.074 0.716,-0.134 1.08,-0.134 0.151,-0.001 0.224,-0.019 0.358,-0.058 0.094,-0.027 0.196,-0.056 0.292,-0.073 0.148,-0.028 0.302,0.009 0.449,-0.02 0.135,-0.026 0.245,-0.036 0.383,-0.036 0.069,0 0.163,0.019 0.229,0.003 0.064,-0.015 0.103,-0.067 0.16,-0.093 0.119,-0.053 0.25,-0.068 0.371,-0.102 0.09,-0.025 0.115,-0.075 0.201,0.014 0.153,0.16 0.329,0.299 0.517,0.424 0.079,0.052 0.164,0.107 0.233,0.174 m 10.76,8.263 c 0.021,0.269 -0.003,0.556 -0.002,0.824 0.001,0.317 0.024,0.652 -0.1,0.95 -0.066,0.157 -0.17,0.34 -0.182,0.513 -0.01,0.137 -0.008,0.266 -0.034,0.404 -0.016,0.086 -0.051,0.17 -0.06,0.257 -0.012,0.108 0.007,0.223 0.004,0.332 C 19.854,6.629 19.792,6.726 19.738,6.869 19.702,6.965 19.69,7.067 19.654,7.165 19.584,7.358 19.537,7.587 19.436,7.764 19.457,7.589 19.308,7.431 19.249,7.29 19.211,7.201 19.206,7.081 19.204,6.983 19.198,6.687 19.21,6.394 19.18,6.099 19.154,5.832 19.133,5.564 19.11,5.296 19.098,5.159 19.065,5.036 19.065,4.898 19.064,4.694 18.996,4.514 18.968,4.317 18.949,4.185 18.982,4.048 18.961,3.914 18.927,3.698 18.919,3.455 18.866,3.246 18.848,3.17 18.829,3.12 18.83,3.036 18.831,2.967 18.836,2.901 18.819,2.835 18.817,2.824 18.784,2.761 18.778,2.743 18.744,2.642 18.742,2.505 18.724,2.4 18.701,2.27 18.686,2.153 18.653,2.031 18.633,1.955 18.647,1.877 18.632,1.799 18.612,1.691 18.578,1.571 18.537,1.468 18.502,1.383 18.503,1.304 18.481,1.214 18.456,1.112 18.415,0.951 18.364,0.859 18.328,0.796 18.265,0.746 18.222,0.676 18.165,0.582 18.092,0.531 18.025,0.447 17.949,0.353 17.886,0.247 17.815,0.152 17.463,-0.316 17.123,-0.799 16.797,-1.286 16.562,-1.637 16.439,-2.062 16.309,-2.447 16.24,-2.654 16.215,-2.876 16.148,-3.084 16.107,-3.215 16.07,-3.325 16.072,-3.463 c 0.002,-0.175 0.015,-0.323 0.048,-0.488 0.013,-0.066 0.031,-0.118 0.058,-0.184 0.046,-0.112 0.036,-0.208 0.035,-0.33 -0.001,-0.162 0.014,-0.315 -0.035,-0.467 -0.067,-0.206 -0.047,-0.38 -0.057,-0.598 -0.007,-0.135 -0.043,-0.237 -0.096,-0.358 -0.05,-0.114 -0.022,-0.223 -0.039,-0.332 0.028,-0.002 0.058,-0.035 0.075,-0.066 0.037,-0.066 0.041,-0.117 0.057,-0.188 0.009,-0.038 0.044,-0.173 0.076,-0.186 0.018,-0.008 0.142,0.042 0.161,0.055 0.055,0.04 0.099,0.094 0.157,0.137 0.125,0.092 0.27,0.218 0.38,0.326 0.048,0.047 0.063,0.098 0.098,0.156 0.069,0.112 0.174,0.183 0.237,0.303 0.055,0.104 0.138,0.188 0.19,0.291 0.029,0.057 0.036,0.135 0.067,0.195 0.091,0.182 0.213,0.36 0.314,0.534 0.287,0.495 0.575,0.99 0.876,1.478 0.083,0.134 0.188,0.24 0.262,0.379 0.033,0.062 0.066,0.123 0.103,0.183 0.076,0.122 0.159,0.241 0.246,0.355 0.207,0.275 0.426,0.538 0.61,0.826 0.162,0.252 0.294,0.381 0.291,0.69 -0.003,0.209 -0.002,0.402 -0.037,0.607 -0.057,0.326 -0.001,0.669 -0.047,0.998 -0.039,0.278 -0.01,0.575 -0.01,0.856 0,0.276 -0.018,0.557 -0.002,0.832 0.012,0.217 0.127,0.429 0.144,0.65 M 11.615,-6.847 c -0.136,0.111 -0.248,0.3 -0.298,0.468 -0.033,0.109 -0.084,0.197 -0.126,0.303 -0.052,0.132 -0.083,0.245 -0.108,0.388 -0.025,0.144 -0.014,0.288 -0.057,0.433 -0.037,0.126 -0.083,0.252 -0.139,0.369 -0.047,0.097 -0.147,0.172 -0.178,0.282 -0.027,0.093 0.031,0.24 -0.044,0.31 C 10.55,-4.351 10.482,-4.553 10.417,-4.654 10.325,-4.799 10.23,-4.948 10.116,-5.077 10.029,-5.177 9.935,-5.245 9.832,-5.318 9.761,-5.369 9.613,-5.437 9.615,-5.53 9.479,-5.539 9.402,-5.773 9.32,-5.868 9.236,-5.965 9.118,-6.022 9.064,-6.1 9.078,-6.167 9.026,-6.21 9.014,-6.274 9.003,-6.333 9.017,-6.411 9.017,-6.471 c 0.001,-0.157 0,-0.314 0,-0.471 V -7.905 -8.67 c 0,-0.221 -0.053,-0.524 0.007,-0.733 0.245,0.155 0.337,0.508 0.541,0.686 0.117,0.102 0.291,0.214 0.433,0.281 0.078,0.037 0.129,0.093 0.206,0.14 0.123,0.076 0.278,0.104 0.378,0.212 0.079,0.085 0.141,0.189 0.216,0.279 0.05,0.06 0.117,0.117 0.154,0.187 0.028,0.052 0.036,0.098 0.072,0.146 0.107,0.137 0.259,0.247 0.378,0.372 0.077,0.083 0.124,0.178 0.213,0.253 m 1.564,1.776 c -0.027,0.113 -0.178,0.167 -0.285,0.13 -0.141,-0.049 -0.149,-0.156 -0.184,-0.273 -0.019,-0.063 -0.045,-0.058 -0.04,-0.126 10e-4,-0.015 0.018,-0.044 0.037,-0.074 -0.011,-0.196 -0.164,-0.499 0.142,-0.499 0.132,0 0.151,0.015 0.198,0.129 0.025,0.061 0.031,0.077 0.034,0.152 0.003,0.072 0.039,0.117 0.05,0.186 0.011,0.064 -0.008,0.123 0.008,0.187 0.017,0.064 0.058,0.115 0.04,0.188 m 2.197,-1.772 c 0.032,-0.138 0.08,-0.303 0.167,-0.417 -0.107,-0.016 -0.224,-0.11 -0.312,-0.171 -0.164,-0.116 -0.036,-0.259 -0.114,-0.419 -0.081,-0.168 -0.279,-0.222 -0.449,-0.259 -0.284,-0.063 -0.571,-0.108 -0.857,-0.16 -0.204,-0.037 -0.396,-0.042 -0.587,-0.119 -0.151,-0.062 -0.279,-0.079 -0.445,-0.101 -0.044,-0.006 -0.146,-0.047 -0.189,-0.035 -0.07,0.019 -0.028,0.039 -0.079,0.09 -0.102,0.105 -0.339,0.026 -0.457,-0.023 -0.199,-0.083 -0.317,-0.227 -0.557,-0.159 -0.034,0.204 0.086,0.349 0.172,0.518 0.131,0.261 0.144,0.576 0.282,0.833 0.08,0.151 0.208,0.343 0.236,0.513 0.029,0.171 -0.071,0.185 -0.191,0.268 -0.024,0.005 -0.047,0.011 -0.07,0.017 -0.017,0.039 -0.037,0.076 -0.059,0.113 -0.034,0.042 -0.078,0.059 -0.116,0.095 -0.065,0.058 -0.134,0.237 -0.211,0.252 -0.037,0.144 0.02,0.192 0.047,0.234 0.032,0.052 0.069,0.126 0.083,0.187 0.03,0.129 0.08,0.24 0.106,0.374 0.018,0.088 -0.012,0.18 0.008,0.27 0.017,0.074 0.042,0.147 0.06,0.221 0.042,0.177 0.04,0.362 0.124,0.536 0.068,-0.001 0.157,-0.033 0.223,-0.055 0.128,-0.043 0.202,-0.083 0.346,-0.085 0.16,-0.002 0.299,-10e-4 0.451,-0.036 0.149,-0.034 0.316,-0.046 0.461,-0.102 0.14,-0.055 0.185,-0.211 0.377,-0.134 0.003,0.137 -0.086,0.123 0.071,0.201 0.109,0.055 0.177,0.118 0.261,0.203 0.061,0.062 0.134,0.114 0.188,0.185 0.029,0.039 0.051,0.103 0.094,0.135 -0.009,-0.154 0.035,-0.308 0.091,-0.451 0.052,-0.134 0.04,-0.273 0.093,-0.397 0.096,-0.222 0.199,-0.467 0.338,-0.676 0.085,-0.129 0.151,-0.208 0.199,-0.356 0.048,-0.152 0.091,-0.297 0.119,-0.45 0.023,-0.126 0.043,-0.256 0.07,-0.385 0.019,-0.085 0.007,-0.174 0.026,-0.255 m -4.675,5.954 c 0.009,0.099 -0.066,0.271 -0.165,0.301 -0.319,0.097 -0.396,-0.287 -0.398,-0.512 l -0.046,0.047 c 0.017,-0.069 -0.036,-0.082 -0.049,-0.138 -0.014,-0.054 0.002,-0.132 0.002,-0.189 -10e-4,-0.127 -0.002,-0.224 0.139,-0.271 0.112,-0.038 0.219,-0.017 0.293,0.071 0.039,0.048 0.069,0.096 0.095,0.153 0.035,0.081 0.015,0.13 0.032,0.212 0.021,0.106 0.088,0.209 0.097,0.326 m 1.048,1.282 C 11.846,0.376 11.941,0.35 12.029,0.31 L 11.991,0.304 c -0.187,-0.101 -0.046,-0.555 -0.03,-0.717 0.016,-0.17 0.092,-0.349 0.165,-0.501 0.05,-0.103 0.091,-0.219 0.151,-0.319 0.06,-0.1 0.083,-0.183 0.115,-0.3 0.036,-0.137 0.144,-0.234 0.179,-0.359 0.014,-0.052 0.004,-0.111 0.023,-0.168 0.028,-0.085 0.088,-0.161 0.108,-0.249 0.01,-0.05 -0.006,-0.099 0.004,-0.146 0.011,-0.05 0.043,-0.089 0.096,-0.187 -0.019,-0.062 -0.125,-0.144 -0.175,-0.199 -0.041,-0.045 -0.074,-0.081 -0.105,-0.128 -0.081,-0.119 -0.147,-0.248 -0.221,-0.373 -0.068,-0.114 -0.162,-0.298 -0.312,-0.278 -0.032,0.005 -0.037,0.038 -0.072,0.046 -0.047,0.011 -0.094,-0.005 -0.143,0.008 -0.107,0.027 -0.217,0.066 -0.328,0.086 -0.079,0.013 -0.161,-0.009 -0.241,0.006 -0.123,0.024 -0.243,0.062 -0.366,0.083 -0.098,0.017 -0.178,0.046 -0.279,0.048 -0.143,0.003 -0.278,-0.009 -0.417,0.024 -0.223,0.051 -0.479,0.023 -0.707,0.023 -0.124,0 -0.249,0 -0.374,0 -0.044,0 -0.096,-0.007 -0.14,-0.001 -0.046,0.006 -0.066,0.026 -0.102,0.037 -0.065,0.021 -0.109,0.034 -0.17,0.058 -0.145,0.057 -0.237,-0.014 -0.241,0.162 -0.004,0.185 0.135,0.33 0.225,0.489 0.048,0.085 0.073,0.202 0.114,0.293 0.035,0.077 0.051,0.156 0.081,0.225 0.072,0.168 0.037,0.346 0.047,0.538 0.01,0.187 0.088,0.375 0.129,0.562 0.019,0.086 0.056,0.167 0.06,0.254 0.002,0.047 -0.009,0.083 0.008,0.13 0.013,0.035 0.061,0.059 0.075,0.102 0.027,0.083 0.026,0.144 0.069,0.225 0.04,0.076 0.063,0.128 0.137,0.184 0.125,0.095 0.205,0.203 0.269,0.337 0.102,0.211 0.252,0.19 0.466,0.19 0.147,0 0.293,0.021 0.44,0.017 0.17,-0.005 0.332,-0.058 0.502,-0.063 0.126,-0.004 0.251,-0.003 0.377,-0.012 0.114,-0.009 0.228,-0.018 0.341,-0.038 m 2.29,-3.972 c -0.016,0.014 -0.184,0.048 -0.209,0.052 -0.068,0.011 -0.121,0.017 -0.187,0.034 -0.064,0.016 -0.125,0.031 -0.187,0.046 -0.071,0.019 -0.142,-0.006 -0.212,0.009 -0.052,0.011 -0.086,0.036 -0.137,0.05 -0.028,0.008 -0.062,-0.004 -0.091,0.002 -0.027,0.007 -0.028,0.035 -0.055,0.04 -0.127,0.023 -0.15,-0.084 -0.24,-0.15 -0.172,-0.126 -0.435,-0.181 -0.573,-0.361 l 0.093,-0.093 c 0.003,0.009 0.005,0.019 0.008,0.028 0.156,-0.046 0.263,-0.125 0.432,-0.122 0.147,0.002 0.237,-0.048 0.378,-0.046 0.132,10e-4 0.265,-0.002 0.397,-0.001 0.115,0.002 0.221,-0.027 0.335,-0.04 -0.031,0.048 0.159,0.232 0.174,0.257 0.041,0.068 0.134,0.243 0.074,0.295 m -0.177,-0.559 c -0.024,0.001 -0.047,0.004 -0.071,0.007 0.008,-0.012 0.029,-0.016 0.071,-0.007 M 9.951,4.134 9.998,4.227 c 0,-0.09 0.009,-0.183 -0.01,-0.27 C 9.981,3.926 9.956,3.9 9.95,3.855 9.946,3.817 9.95,3.774 9.951,3.737 9.954,3.626 9.963,3.56 10.093,3.571 c 0.092,0.008 0.16,0.05 0.188,0.141 0.024,0.08 0.028,0.175 0.049,0.258 0.03,0.124 0.049,0.101 -0.017,0.209 -0.04,0.067 -0.088,0.13 -0.172,0.145 -0.11,0.02 -0.213,-0.08 -0.19,-0.19 M 8.947,1.284 C 8.804,1.287 8.661,1.283 8.518,1.283 c 0.01,0 0.021,0 0.172,0.187 -0.052,0.299 0.18,0.575 0.188,0.862 0.004,0.151 0.015,0.257 0.044,0.399 0.035,0.168 0.139,0.313 0.178,0.481 0.042,0.179 0.095,0.28 0.208,0.415 0.187,0.223 0.129,0.557 0.129,0.834 0,0.21 0.016,0.427 -0.003,0.637 C 9.494,5.025 9.682,5.077 9.767,5.069 9.828,5.064 9.87,5.037 9.927,5.026 c 0.091,-0.019 0.188,-0.01 0.282,-0.028 0.088,-0.017 0.173,-0.011 0.26,-0.022 0.052,-0.007 0.074,-0.031 0.117,-0.043 0.051,-0.015 0.109,-0.029 0.16,-0.041 0.039,-0.01 0.152,0.013 0.18,-0.018 C 10.977,4.818 10.928,4.518 10.932,4.457 10.94,4.313 10.994,4.16 11.026,4.019 11.087,3.756 11.147,3.497 11.239,3.24 11.291,3.098 11.356,2.969 11.402,2.824 11.463,2.63 11.543,2.407 11.54,2.194 11.537,1.993 11.681,1.683 11.53,1.517 11.371,1.343 11.161,1.208 10.971,1.074 10.9,1.024 10.814,0.997 10.743,0.955 10.71,0.936 10.686,0.902 10.654,0.885 10.549,0.826 10.466,0.917 10.371,0.968 10.245,1.035 10.141,1.121 10.008,1.181 9.802,1.273 9.573,1.236 9.351,1.237 9.282,1.237 9.201,1.226 9.134,1.241 9.062,1.256 9.025,1.282 8.947,1.284 m 2.936,0.137 c -0.065,0.1 -0.071,0.052 -0.058,0.009 0.019,-0.006 0.038,-0.009 0.058,-0.009 M 5.559,0.536 C 5.559,0.635 5.566,0.682 5.5,0.758 5.443,0.824 5.41,0.852 5.326,0.864 5.192,0.882 5.153,0.804 5.045,0.769 L 5.185,0.723 C 5.172,0.72 5.159,0.718 5.146,0.716 5.105,0.631 5.135,0.467 5.115,0.372 5.098,0.293 5.059,0.181 5.117,0.113 c 0.067,-0.08 0.212,-0.059 0.268,0 0.05,0.054 0.077,0.142 0.114,0.202 0.025,0.04 0.046,0.028 0.062,0.078 0.01,0.032 -0.002,0.108 -0.002,0.143 m 0.748,-3.295 c -0.004,0.105 -0.044,0.18 -0.072,0.281 -0.027,0.097 -0.024,0.172 -0.069,0.257 -0.176,0.336 -0.33,0.727 -0.327,1.119 0.002,0.227 -0.006,0.267 -0.235,0.33 C 5.516,-0.747 5.411,-0.749 5.323,-0.727 5.216,-0.701 5.107,-0.646 4.997,-0.63 4.959,-0.625 4.917,-0.641 4.88,-0.634 4.848,-0.629 4.822,-0.601 4.802,-0.596 4.709,-0.573 4.61,-0.607 4.517,-0.588 c -0.086,0.017 -0.125,0.05 -0.22,0.049 -0.085,-0.001 -0.171,0 -0.257,0 -0.163,0 -0.328,0.003 -0.491,0 -0.118,-0.002 -0.125,-0.014 -0.141,0.092 -0.015,0.114 0.022,0.209 0.048,0.316 0.081,0.336 0.132,0.655 0.197,0.983 0.027,0.136 0.125,0.244 0.189,0.373 0.04,0.081 0.056,0.118 0.08,0.197 0.026,0.085 0.046,0.161 0.107,0.223 0.093,0.096 0.314,0.07 0.448,0.061 C 4.626,1.697 4.764,1.655 4.902,1.611 5.056,1.56 5.218,1.554 5.377,1.527 5.594,1.491 5.832,1.517 6.052,1.517 c 0.101,0 0.201,0.001 0.301,0 C 6.459,1.516 6.534,1.551 6.774,1.657 6.775,1.55 6.767,1.499 6.804,1.386 6.853,1.271 6.896,1.153 6.932,1.033 6.95,0.94 6.959,0.846 6.959,0.751 6.976,0.647 7.01,0.606 7.055,0.508 7.131,0.337 7.145,0.152 7.219,-0.019 7.3,-0.208 7.307,-0.418 7.37,-0.614 7.394,-0.69 7.421,-0.739 7.429,-0.817 c 0.009,-0.079 0.003,-0.144 0.022,-0.222 0.06,-0.25 0.095,-0.509 0.15,-0.761 0.03,-0.137 0.103,-0.264 0.112,-0.406 0.006,-0.082 -0.021,-0.172 -0.006,-0.252 0.02,-0.104 0.049,-0.161 0.048,-0.277 0,-0.059 -0.012,-0.131 -0.002,-0.189 0.012,-0.068 0.079,-0.097 0.043,-0.179 -0.218,-0.053 -0.505,-0.005 -0.715,0.03 -0.093,0.016 -0.156,0.017 -0.25,0.057 -0.111,0.048 -0.167,0.047 -0.291,0.047 -0.05,0 -0.192,-0.028 -0.226,0.007 -0.035,0.035 -0.005,0.158 -0.007,0.203 M 7.803,1.047 C 7.619,1.069 7.482,1.168 7.293,1.141 7.285,0.984 7.358,0.846 7.324,0.686 7.313,0.635 7.282,0.607 7.287,0.535 7.292,0.466 7.326,0.416 7.381,0.442 7.362,0.373 7.44,0.288 7.463,0.222 c 0.034,-0.095 0.061,-0.189 0.1,-0.276 0.023,-0.053 0.044,-0.11 0.074,-0.159 0.031,-0.051 0.087,-0.091 0.107,-0.149 0.038,-0.111 0.078,-0.178 0.14,-0.279 0.039,-0.063 0.052,-0.135 0.101,-0.196 0.017,-0.021 0.05,-0.04 0.063,-0.063 0.04,-0.068 0.043,-0.143 0.081,-0.219 0.016,-0.033 0.038,-0.031 0.049,-0.072 0.012,-0.045 -0.011,-0.091 0.006,-0.14 0.102,-0.035 0.238,0.692 0.274,0.793 0.023,0.067 0.007,0.07 0.057,0.127 0.021,0.025 0.045,0.049 0.068,0.071 0.077,0.071 0.153,0.142 0.224,0.221 0.066,0.074 0.096,0.162 0.118,0.256 C 8.938,0.189 8.906,0.242 8.933,0.293 8.947,0.32 8.994,0.35 9.017,0.372 9.078,0.432 9.13,0.493 9.184,0.558 9.269,0.66 9.372,0.711 9.48,0.781 9.458,0.937 9.033,0.89 8.934,0.918 8.814,0.951 8.713,1.039 8.593,1.076 8.495,1.107 8.398,1.096 8.297,1.097 8.125,1.097 7.975,1.027 7.803,1.047 M -1.5,3.476 c 0.147,-0.068 0.197,0.064 0.242,0.161 0.036,0.077 0.091,0.255 0.016,0.331 -0.13,0.133 -0.211,-0.063 -0.208,-0.161 h -0.094 c 0,-0.09 -0.039,-0.292 0.044,-0.331 M -2.274,2.038 c 0.089,0.155 0.029,0.471 0.029,0.647 0,0.24 0.026,0.441 0.107,0.666 0.019,0.054 0.027,0.109 0.045,0.164 0.023,0.07 0.019,0.126 0.033,0.199 0.018,0.104 0.076,0.2 0.095,0.305 0.032,0.187 0.058,0.392 0.105,0.572 0.018,0.072 0.088,0.156 0.093,0.238 0.126,-0.063 0.26,-0.158 0.391,-0.223 0.098,-0.048 0.451,-0.127 0.487,0.027 C -0.788,4.445 -0.856,4.221 -0.89,4.041 -0.916,3.901 -0.982,3.778 -0.984,3.629 -0.986,3.527 -1.003,3.394 -0.986,3.293 -0.975,3.234 -0.943,3.189 -0.935,3.129 -0.927,3.078 -0.937,3.018 -0.936,2.966 c 0,-0.12 -0.04,-0.182 -0.048,-0.29 C -0.987,2.629 -0.998,2.545 -0.987,2.497 -0.97,2.426 -0.881,2.383 -0.884,2.309 -0.885,2.273 -0.93,2.256 -0.939,2.22 -0.952,2.167 -0.936,2.087 -0.936,2.031 -0.996,2.169 -1.009,2.166 -1.022,2.163 -1.054,2.054 -1.029,1.944 -0.988,1.854 -1.097,1.821 -1.183,1.871 -1.282,1.895 -1.377,1.918 -1.489,1.969 -1.591,2.008 -1.729,2.06 -1.816,2.076 -1.964,2.078 -2.062,2.079 -2.189,1.998 -2.274,2.038 m 17.506,7.62 c 0.121,0.032 0.158,0.027 0.281,-0.011 0.111,-0.035 0.239,-0.028 0.351,-0.067 0.193,-0.067 0.322,-0.244 0.537,-0.213 0.098,0.013 0.119,0.065 0.199,0.129 0.09,0.072 0.194,0.092 0.305,0.153 -0.078,0.012 -0.132,0.067 -0.203,0.09 -0.068,0.021 -0.094,0.008 -0.162,0.048 -0.093,0.055 -0.182,0.086 -0.28,0.128 -0.197,0.086 -0.355,0.217 -0.555,0.248 -0.125,0.019 -0.257,-0.025 -0.38,0.009 -0.118,0.032 -0.18,0.039 -0.27,-0.067 C 15.035,10.08 15.019,10.036 14.999,10.01 14.976,9.98 14.943,9.944 14.916,9.915 14.842,9.835 14.738,9.745 14.624,9.741 L 14.596,9.646 c 0.208,0.039 0.423,-0.044 0.636,0.012 M 11.958,1.428 C 11.933,1.423 11.908,1.42 11.883,1.421 c 0.02,-0.031 0.045,-0.074 0.078,-0.138 0,0.049 -0.002,0.097 -0.003,0.145 m 2.62,6.397 0.14,0.094 C 14.666,7.71 14.624,7.568 14.624,7.358 c 0,-0.115 -0.043,-0.31 0.093,-0.367 0.213,-0.089 0.491,0.137 0.516,0.344 0.017,0.133 -0.001,0.282 -0.001,0.416 0,0.1 0.038,0.3 -0.045,0.376 C 15.122,8.186 14.915,8.162 14.835,8.131 14.724,8.089 14.594,7.948 14.578,7.825 M 12.287,1.585 C 12.201,1.53 12.076,1.452 11.958,1.428 c -0.002,0.097 -0.005,0.193 -10e-4,0.289 0.005,0.115 0.05,0.183 0.1,0.281 0.037,0.074 0.034,0.136 0.055,0.213 0.066,0.238 0.203,0.473 0.319,0.697 0.05,0.097 0.089,0.195 0.137,0.291 0.021,0.041 0.071,0.098 0.086,0.139 0.022,0.059 -0.005,0.115 0.014,0.176 0.03,0.092 0.105,0.129 0.126,0.236 0.013,0.069 0.031,0.141 0.044,0.208 0.01,0.049 -0.003,0.11 0.009,0.156 0.012,0.044 0.04,0.068 0.051,0.111 0.021,0.088 -0.021,0.193 -0.005,0.283 0.009,0.051 0.041,0.087 0.052,0.137 0.013,0.064 -0.022,0.128 0.005,0.192 0.033,0.08 0.106,0.152 0.145,0.229 0.048,0.095 0.019,0.184 0.044,0.283 0.032,0.122 0.069,0.248 0.086,0.378 0.006,0.049 -0.008,0.084 0.006,0.133 0.016,0.06 0.073,0.123 0.099,0.182 0.045,0.1 0.101,0.211 0.16,0.312 0.052,0.09 0.116,0.167 0.157,0.261 0.019,0.041 0.018,0.089 0.043,0.136 0.048,0.092 0.047,0.149 0.046,0.259 -0.001,0.243 0,0.486 0,0.729 0,0.249 -0.007,0.484 0.081,0.717 0.102,0.27 0.287,0.496 0.435,0.742 0.065,0.109 0.102,0.24 0.177,0.341 0.043,0.059 0.091,0.092 0.163,0.106 10e-4,0 0.002,0 0.004,0.001 L 14.572,9.567 c 0.006,-0.003 0.011,-0.007 0.017,-0.012 0.057,-0.041 0.106,-0.123 0.173,-0.143 0.029,-0.009 0.07,0.012 0.099,0.005 0.041,-0.01 0.046,-0.042 0.087,-0.052 0.167,-0.042 0.401,0.082 0.545,-0.041 0.042,-0.036 0.052,-0.098 0.099,-0.134 0.099,-0.076 0.404,-0.058 0.506,-0.059 0.114,0 0.216,0.047 0.212,-0.089 C 16.308,8.981 16.267,8.91 16.26,8.845 16.25,8.752 16.224,8.671 16.211,8.58 16.177,8.356 16.213,8.102 16.213,7.874 c 0,-0.41 0,-0.812 -0.036,-1.22 -0.013,-0.14 -0.013,-0.275 -0.012,-0.416 0.001,-0.121 -0.03,-0.297 0.022,-0.414 0.034,-0.076 0.066,-0.064 0.075,-0.147 0.01,-0.087 0.018,-0.163 0.034,-0.252 0.025,-0.136 0.011,-0.28 0.01,-0.418 -0.001,-0.326 0.003,-0.652 0,-0.978 C 16.303,3.486 16.403,2.954 16.4,2.412 16.399,2.173 16.351,1.89 16.41,1.657 16.437,1.555 16.495,1.405 16.488,1.297 16.423,1.312 16.434,1.348 16.39,1.378 16.347,1.407 16.32,1.415 16.27,1.435 16.211,1.46 16.144,1.5 16.083,1.53 15.818,1.659 15.44,1.443 15.196,1.646 15.088,1.735 14.981,1.813 14.872,1.902 14.687,2.053 14.348,2.064 14.126,2.008 13.908,1.953 13.71,1.937 13.485,1.937 c -0.199,0 -0.398,10e-4 -0.597,0 -0.07,0 -0.182,0.022 -0.246,-0.003 C 12.589,1.913 12.548,1.842 12.512,1.8 12.444,1.72 12.376,1.642 12.287,1.585 M 16.68,8.76 V 8.456 C 16.681,8.25 16.705,8.024 16.782,7.838 16.805,7.781 16.85,7.732 16.874,7.666 16.891,7.617 16.903,7.583 16.914,7.53 16.943,7.384 16.979,7.231 16.963,7.078 16.954,6.99 16.917,6.913 16.912,6.823 c -0.006,-0.098 0.002,-0.2 0.002,-0.299 0,-0.119 0,-0.239 0,-0.359 V 5.42 c 0,-0.232 0.038,-0.507 -0.01,-0.736 -0.054,-0.253 -0.037,-0.515 -0.037,-0.777 0,-0.573 0.023,-1.152 -0.002,-1.724 0.071,0.086 0.098,0.2 0.171,0.291 0.082,0.101 0.158,0.194 0.253,0.281 0.07,0.065 0.13,0.143 0.196,0.21 0.091,0.093 0.228,0.118 0.315,0.212 0.169,0.182 0.109,0.452 0.198,0.672 0.042,0.103 0.172,0.248 0.181,0.353 0.009,0.112 -0.106,0.231 -0.171,0.309 -0.181,0.218 -0.302,0.493 -0.3,0.776 0.003,0.224 0.005,0.45 0.001,0.674 -0.003,0.132 -0.051,0.245 -0.084,0.369 -0.013,0.051 -0.008,0.099 -0.019,0.151 -0.016,0.071 -0.063,0.131 -0.081,0.2 -0.023,0.095 -0.071,0.196 -0.093,0.284 -0.011,0.045 0,0.093 -0.007,0.14 -0.012,0.078 -0.056,0.136 -0.08,0.207 -0.042,0.126 -0.08,0.253 -0.139,0.374 -0.069,0.143 -0.114,0.293 -0.157,0.44 -0.015,0.053 -0.039,0.077 -0.042,0.143 -0.002,0.054 0,0.109 0,0.164 0,0.249 0,0.498 0.281,0.841 C 17.201,9.267 17.096,9.166 17.007,9.134 16.944,9.111 16.726,9.08 16.687,9.032 16.65,8.985 16.68,8.82 16.68,8.76 M 1.294,2.766 C 1.447,2.531 1.712,2.782 1.78,2.938 1.829,3.051 1.85,3.14 1.872,3.265 1.894,3.39 1.972,3.481 1.846,3.575 1.761,3.639 1.628,3.634 1.54,3.598 1.397,3.539 1.402,3.479 1.4,3.34 V 3.386 C 1.392,3.313 1.336,3.266 1.316,3.199 1.301,3.149 1.317,3.107 1.309,3.059 1.29,2.942 1.221,2.877 1.294,2.766 M -0.845,2.01 c 0.023,0.086 0.134,0.176 0.198,0.252 0.061,0.073 0.132,0.135 0.178,0.217 0.051,0.088 0.09,0.187 0.135,0.278 C -0.19,3.05 0.054,3.258 0.208,3.55 0.251,3.632 0.303,3.709 0.353,3.787 0.381,3.832 0.409,3.877 0.438,3.92 0.464,3.96 0.511,4.004 0.532,4.04 0.568,4.103 0.599,4.151 0.649,4.209 0.669,4.233 0.741,4.339 0.606,4.508 0.682,4.53 0.78,4.436 0.859,4.424 0.992,4.403 1.09,4.411 1.213,4.378 1.287,4.358 1.369,4.366 1.446,4.367 1.554,4.369 1.626,4.336 1.728,4.318 1.8,4.306 1.888,4.321 1.961,4.321 2.065,4.319 2.143,4.284 2.244,4.272 2.318,4.262 2.401,4.289 2.475,4.277 2.555,4.263 2.63,4.211 2.708,4.191 3.008,4.117 3.293,4.234 3.573,4.275 3.734,4.299 3.887,4.35 4.04,4.414 4.1,4.439 4.174,4.486 4.232,4.503 c 0.034,0.01 0.067,0 0.102,0.014 C 4.367,4.53 4.385,4.574 4.429,4.585 4.463,4.482 4.458,4.378 4.493,4.273 4.53,4.161 4.632,4.058 4.686,3.955 4.786,3.768 4.936,3.572 4.975,3.363 5.007,3.187 5.093,2.966 5.172,2.813 5.208,2.745 5.254,2.676 5.29,2.603 5.308,2.569 5.35,2.523 5.362,2.488 5.381,2.431 5.369,2.374 5.401,2.318 5.337,2.292 5.225,2.311 5.157,2.312 5.048,2.313 4.994,2.132 4.907,2.093 4.846,2.066 4.774,2.239 4.715,2.219 4.652,2.197 4.597,2.143 4.532,2.113 4.208,1.963 3.95,1.875 3.596,1.829 3.287,1.789 3.434,1.456 3.183,1.296 3.121,1.257 2.697,1.159 2.636,1.137 2.557,1.11 2.491,1.151 2.401,1.167 2.221,1.198 2.056,1.258 1.888,1.342 1.832,1.37 1.794,1.416 1.728,1.426 1.605,1.445 1.482,1.44 1.356,1.47 1.26,1.492 1.167,1.55 1.073,1.566 0.998,1.579 0.914,1.548 0.839,1.561 0.712,1.584 0.596,1.651 0.465,1.658 0.249,1.67 0.078,1.693 -0.115,1.788 -0.247,1.853 -0.372,1.844 -0.516,1.844 -0.66,1.844 -0.903,1.789 -0.845,2.01 M 2.252,5.946 C 2.242,5.898 2.241,5.867 2.241,5.816 2.242,5.747 2.217,5.626 2.245,5.563 2.327,5.38 2.51,5.527 2.557,5.64 2.592,5.723 2.613,5.797 2.616,5.886 2.618,5.98 2.629,6.043 2.569,6.097 2.471,6.186 2.191,6.13 2.241,5.956 L 2.288,6.05 C 2.309,5.97 2.262,5.999 2.252,5.946 M 1.485,4.845 C 1.333,4.811 1.154,4.868 1.022,4.76 1.013,4.854 1.158,4.969 1.205,5.036 1.263,5.117 1.318,5.223 1.375,5.311 1.515,5.528 1.684,5.701 1.822,5.925 1.875,6.009 1.918,6.104 1.971,6.19 2.038,6.298 2.106,6.401 2.162,6.517 2.201,6.599 2.222,6.644 2.276,6.713 2.325,6.775 2.42,6.905 2.428,6.984 2.401,6.888 2.553,7.079 2.613,7.136 2.654,7.175 2.718,7.193 2.758,7.229 2.772,7.243 2.799,7.298 2.813,7.304 2.889,7.337 2.901,7.266 2.953,7.228 3.01,7.186 3.052,7.201 3.095,7.127 3.129,7.069 3.16,6.999 3.189,6.94 3.248,6.82 3.304,6.706 3.361,6.585 3.514,6.266 3.676,5.946 3.83,5.629 3.897,5.49 3.982,5.338 4.062,5.207 4.11,5.129 4.223,4.91 4.329,4.928 4.209,4.936 4.017,4.842 3.9,4.812 3.774,4.779 3.643,4.745 3.532,4.689 3.263,4.553 3.029,4.608 2.754,4.696 2.483,4.783 2.178,4.881 1.878,4.881 c -0.074,0 -0.147,0 -0.221,0 C 1.585,4.882 1.539,4.857 1.485,4.845 m -3.121,0.338 c 0.008,-0.099 0.073,-0.066 0.162,-0.067 0.155,-0.002 0.249,-0.084 0.378,-0.141 0.083,-0.037 0.14,-0.069 0.163,0.046 0.007,0.037 -0.01,0.08 -0.005,0.117 0.005,0.046 0.027,0.076 0.038,0.117 0.019,0.075 0.012,0.156 0.01,0.234 -0.001,0.091 0.031,0.11 0.05,0.184 C -0.763,5.982 -1.245,6.06 -1.442,6.104 -1.443,6.107 -1.444,6.11 -1.444,6.112 -1.456,6.033 -1.443,5.954 -1.461,5.873 -1.477,5.802 -1.531,5.742 -1.546,5.678 -1.563,5.606 -1.532,5.519 -1.542,5.445 -1.552,5.361 -1.642,5.257 -1.636,5.183 M -1.408,6.228 -1.45,6.143 c 0.002,-0.01 0.004,-0.02 0.006,-0.031 10e-4,0.011 0.002,0.021 0.004,0.031 0.007,0.029 0.019,0.057 0.032,0.085 M 7.01,3.705 C 7.001,3.586 6.93,3.46 6.957,3.338 6.983,3.224 7.079,3.226 7.16,3.28 7.24,3.333 7.233,3.397 7.252,3.48 7.272,3.567 7.326,3.626 7.336,3.712 7.344,3.786 7.354,3.921 7.338,3.994 7.318,4.087 7.225,4.173 7.122,4.132 7.074,4.114 6.991,3.959 7.007,3.9 H 7.03 C 6.985,3.87 7.014,3.76 7.01,3.705 M 6.026,2.347 C 5.906,2.385 5.825,2.402 5.699,2.405 5.87,2.691 5.931,2.786 5.933,2.848 5.937,2.931 5.95,2.983 5.969,3.059 c 0.046,0.18 0.058,0.372 0.057,0.561 0,0.153 -0.025,0.318 0.041,0.449 0.038,0.075 0.05,0.097 0.129,0.14 C 6.293,4.263 6.45,4.256 6.532,4.329 6.579,4.37 6.635,4.496 6.669,4.553 6.69,4.59 6.714,4.63 6.724,4.671 6.732,4.705 6.712,4.763 6.724,4.791 6.764,4.89 7.035,4.774 7.123,4.736 7.263,4.674 7.416,4.695 7.568,4.695 7.639,4.695 7.737,4.713 7.804,4.697 7.869,4.682 7.909,4.653 7.982,4.641 7.993,4.527 8.037,4.437 8.035,4.321 8.034,4.218 8.036,4.115 8.036,4.013 c 0,-0.115 0.001,-0.23 0,-0.345 C 8.034,3.54 8.078,3.436 8.083,3.312 8.094,3.021 8.079,2.725 8.176,2.451 8.224,2.315 8.221,2.209 8.222,2.069 8.223,1.976 8.234,1.764 8.15,1.706 8.073,1.653 7.891,1.724 7.812,1.74 7.643,1.776 7.457,1.745 7.291,1.715 7.177,1.693 7.117,1.719 7.099,1.844 7.079,1.977 7.107,2.012 7.01,2.124 6.931,2.216 6.798,2.253 6.678,2.267 6.634,2.272 6.586,2.255 6.541,2.262 6.457,2.277 6.393,2.309 6.304,2.312 6.198,2.316 6.125,2.315 6.026,2.347 M 1.191,-1.8 C 1.248,-1.811 1.308,-1.796 1.369,-1.78 1.312,-1.794 1.253,-1.802 1.191,-1.8 m 1.201,-1.823 c 0.026,-0.109 0.092,-0.208 0.225,-0.132 0.051,0.028 0.156,0.154 0.187,0.2 0.091,0.137 0.153,0.41 0.057,0.552 -0.078,0.117 -0.487,0.145 -0.433,-0.059 v -0.047 c 0.124,-0.015 -0.021,-0.146 -0.036,-0.198 -0.026,-0.087 -0.021,-0.228 0,-0.316 m -1.784,0.241 c 0.012,0.199 -0.023,0.389 0.044,0.58 0.062,0.174 0.097,0.366 0.328,0.627 0.271,0 0.526,-0.098 0.795,-0.093 0.076,0.002 0.143,0.007 0.214,-0.022 0.038,-0.015 0.071,-0.05 0.112,-0.062 0.097,-0.03 0.228,-0.01 0.327,-0.01 0.288,0 0.567,-0.046 0.856,-0.046 0.244,-10e-4 0.488,0 0.733,0 0.078,0 0.156,-10e-4 0.233,0 0.039,0 0.106,0.011 0.143,0.002 0.033,-0.008 0.042,-0.037 0.072,-0.045 0.074,-0.018 0.176,-0.058 0.254,-0.053 0.084,0.006 0.113,0.049 0.174,0.107 0.114,0.11 0.281,0.245 0.422,0.33 0.112,0.067 0.259,0.136 0.34,0.25 -0.01,-0.194 0.004,-0.349 0.049,-0.521 0.041,-0.158 0.182,-0.31 0.128,-0.484 C 5.742,-2.831 5.67,-2.858 5.583,-2.88 5.459,-2.911 5.329,-2.939 5.207,-2.968 5.034,-3.009 4.819,-3.081 4.705,-3.239 4.632,-3.341 4.557,-3.392 4.46,-3.464 4.409,-3.502 4.38,-3.587 4.334,-3.616 4.308,-3.633 4.233,-3.638 4.204,-3.646 3.901,-3.727 3.505,-3.896 3.351,-4.185 3.308,-4.267 3.247,-4.339 3.199,-4.418 3.109,-4.565 3.084,-4.569 2.905,-4.557 2.636,-4.54 2.399,-4.363 2.137,-4.371 1.969,-4.376 1.88,-4.327 1.726,-4.286 1.597,-4.253 1.489,-4.241 1.352,-4.226 1.239,-4.214 1.06,-4.198 0.96,-4.138 0.874,-4.085 0.833,-3.994 0.759,-3.937 0.691,-3.884 0.518,-3.95 0.472,-3.896 c -0.04,0.046 0.035,0.144 0.052,0.188 0.037,0.097 0.077,0.223 0.084,0.326 m 1.499,1.628 c -0.196,0 -0.392,-0.002 -0.588,0 -0.04,0 -0.08,-0.009 -0.121,-0.019 0.18,0.05 0.344,0.154 0.535,0.206 0.184,0.05 0.354,0.175 0.513,0.277 0.103,0.065 0.384,0.171 0.356,0.33 0.148,-0.089 0.272,-0.142 0.421,-0.14 0.157,0.002 0.302,-0.046 0.459,-0.047 0.241,-0.004 0.471,-0.101 0.709,-0.151 0.227,-0.048 0.46,-0.04 0.691,-0.036 0.172,0.003 0.17,-0.027 0.09,-0.176 C 5.102,-1.64 4.944,-1.75 4.824,-1.859 4.724,-1.95 4.663,-1.99 4.531,-1.988 4.394,-1.985 4.255,-1.984 4.118,-1.988 4.016,-1.99 3.949,-1.983 3.851,-1.941 3.791,-1.915 3.739,-1.916 3.688,-1.896 3.631,-1.874 3.616,-1.858 3.553,-1.846 3.491,-1.835 3.414,-1.847 3.35,-1.847 3.175,-1.848 3.025,-1.809 2.85,-1.789 2.597,-1.761 2.363,-1.754 2.107,-1.754"
             style="fill:#100f0d;fill-opacity:1;fill-rule:nonzero;stroke:none"
             id="path55397" />
        </g>
      </g>
    </g>
  </g>
</svg>
