<?xml version="1.0" encoding="UTF-8" standalone="no"?>
<!-- Created with Inkscape (http://www.inkscape.org/) -->

<svg
   width="25.989561"
   height="24"
   viewBox="0 0 6.8764047 6.35"
   version="1.1"
   id="svg58148"
   inkscape:version="1.2.1 (9c6d41e4, 2022-07-14)"
   sodipodi:docname="creatures-in-the-ice.svg"
   xmlns:inkscape="http://www.inkscape.org/namespaces/inkscape"
   xmlns:sodipodi="http://sodipodi.sourceforge.net/DTD/sodipodi-0.dtd"
   xmlns="http://www.w3.org/2000/svg"
   xmlns:svg="http://www.w3.org/2000/svg">
  <sodipodi:namedview
     id="namedview58150"
     pagecolor="#505050"
     bordercolor="#eeeeee"
     borderopacity="1"
     inkscape:showpageshadow="0"
     inkscape:pageopacity="0"
     inkscape:pagecheckerboard="0"
     inkscape:deskcolor="#505050"
     inkscape:document-units="mm"
     showgrid="false"
     inkscape:zoom="0.7046647"
     inkscape:cx="38.316095"
     inkscape:cy="189.45181"
     inkscape:window-width="1390"
     inkscape:window-height="941"
     inkscape:window-x="0"
     inkscape:window-y="25"
     inkscape:window-maximized="0"
     inkscape:current-layer="layer1" />
  <defs
     id="defs58145">
    <clipPath
       clipPathUnits="userSpaceOnUse"
       id="clipPath54655">
      <path
         d="m 188.725,690.801 h 24.7 V 715.5 h -24.7 z"
         id="path54653" />
    </clipPath>
  </defs>
  <g
     inkscape:label="Layer 1"
     inkscape:groupmode="layer"
     id="layer1"
     transform="translate(-94.936009,-98.578479)">
    <g
       id="g54649"
       transform="matrix(0.32184491,0,0,-0.32184491,33.693428,328.0539)">
      <g
         id="g54651"
         clip-path="url(#clipPath54655)">
        <g
           id="g54657"
           transform="translate(204.865,711.291)">
          <path
             d="m 0,0 c 0.106,-0.002 0.211,-0.005 0.315,-0.009 0.013,0 0.026,-0.001 0.039,-0.002 C 0.483,0.012 0.613,0.033 0.743,0.05 0.808,0.059 0.874,0.066 0.94,0.073 0.85,0.285 0.73,0.481 0.59,0.684 0.466,0.863 0.304,1.011 0.139,1.153 0.045,1.233 -0.052,1.311 -0.145,1.393 -0.254,1.489 -0.349,1.633 -0.471,1.709 -0.661,1.655 -0.575,0.912 -0.616,0.533 L -0.673,0.536 C -0.674,0.468 -0.673,0.4 -0.672,0.332 -0.73,0.215 -0.81,0.109 -0.897,0.01 -0.607,0.038 -0.303,0.024 0,0"
             style="fill:#100f0d;fill-opacity:1;fill-rule:nonzero;stroke:none"
             id="path54659" />
        </g>
        <g
           id="g54661"
           transform="translate(202.797,707.643)">
          <path
             d="m 0,0 c -0.041,-0.013 -0.083,-0.024 -0.124,-0.036 -0.035,-0.03 -0.073,-0.057 -0.114,-0.078 -0.164,-0.083 -0.36,-0.102 -0.537,-0.049 -0.135,0.04 -0.25,0.119 -0.346,0.217 -0.038,0.017 -0.076,0.035 -0.109,0.058 -0.082,0.058 -0.147,0.162 -0.167,0.26 -0.021,0.098 0.013,0.191 0.091,0.25 0.035,0.077 0.098,0.141 0.171,0.184 0.184,0.107 0.445,0.111 0.631,0.003 C -0.5,0.807 -0.497,0.804 -0.493,0.802 -0.466,0.806 -0.442,0.801 -0.416,0.79 -0.361,0.766 -0.306,0.74 -0.254,0.709 -0.232,0.696 -0.211,0.68 -0.189,0.665 -0.045,0.603 0.055,0.456 0.088,0.307 0.101,0.251 0.096,0.196 0.077,0.145 0.097,0.087 0.063,0.021 0,0 m -0.466,-1.315 c -0.38,-0.089 -0.809,0.206 -0.814,0.6 -10e-4,0.049 0.036,0.098 0.085,0.11 0.239,0.056 0.474,-0.011 0.67,-0.15 0.113,-0.05 0.223,-0.127 0.264,-0.245 0.051,-0.145 -0.064,-0.282 -0.205,-0.315 m -1.425,-0.059 c -0.059,-0.055 -0.13,-0.085 -0.21,-0.093 -0.093,-0.011 -0.189,0.027 -0.268,0.072 -0.08,0.045 -0.158,0.112 -0.198,0.196 -0.041,0.087 -0.047,0.178 -0.007,0.267 0.035,0.076 0.113,0.129 0.193,0.152 0.101,0.028 0.212,0.013 0.31,-0.019 0.021,-0.007 0.037,-0.019 0.05,-0.032 0.03,-0.006 0.06,-0.014 0.089,-0.027 0.068,-0.031 0.116,-0.091 0.142,-0.159 0.044,-0.122 -0.008,-0.271 -0.101,-0.357 M -3.53,-1.966 c 0.028,-0.055 0.015,-0.124 -0.041,-0.156 -0.025,-0.014 -0.051,-0.028 -0.077,-0.039 -0.094,-0.042 -0.197,-0.072 -0.301,-0.06 -0.046,0.005 -0.09,0.017 -0.132,0.035 -0.007,0.002 -0.015,0.002 -0.023,0.004 -0.031,0.007 -0.056,0.031 -0.071,0.059 -0.004,0.004 -0.009,0.007 -0.014,0.012 -0.111,0.112 -0.142,0.286 -0.071,0.426 0.037,0.073 0.106,0.124 0.183,0.149 0.04,0.013 0.085,0.017 0.126,0.015 0.061,-0.002 0.124,-0.011 0.182,-0.028 0.095,-0.027 0.196,-0.082 0.24,-0.175 0.037,-0.078 0.035,-0.164 -0.002,-0.241 0,0 0.001,-10e-4 0.001,-10e-4 m -2.566,1.839 c 0.002,0.011 0.004,0.023 0.006,0.034 0.033,-0.04 0.066,-0.081 0.1,-0.121 -0.033,0.026 -0.069,0.055 -0.106,0.087 m -4.77,-4.279 c -0.015,-0.008 -0.004,0.013 0.023,0.052 -0.005,-0.011 -0.01,-0.019 -0.015,-0.03 -0.003,-0.007 -0.005,-0.015 -0.008,-0.022 M 8.844,-5.91 c 0,0.332 0.029,0.688 -0.009,1.019 -0.049,0.42 -0.226,0.786 -0.354,1.183 -0.063,0.195 -0.161,0.372 -0.302,0.525 -0.115,0.125 -0.236,0.247 -0.35,0.371 -0.05,0.054 -0.047,0.103 -0.088,0.154 C 7.67,-2.571 7.6,-2.52 7.536,-2.422 7.524,-2.404 7.51,-2.387 7.497,-2.37 c 0.005,0.005 0.01,0.009 0.015,0.013 -0.035,0.052 -0.07,0.106 -0.105,0.159 C 7.16,-2.033 7.026,-1.747 6.954,-1.442 6.947,-1.414 6.943,-1.385 6.936,-1.357 6.806,-1.085 6.688,-0.801 6.633,-0.506 6.574,-0.53 6.512,-0.547 6.448,-0.56 6.419,-0.582 6.38,-0.59 6.345,-0.58 6.246,-0.594 6.145,-0.599 6.047,-0.603 5.867,-0.609 5.686,-0.601 5.506,-0.594 5.278,-0.668 5.028,-0.671 4.792,-0.57 4.734,-0.546 4.722,-0.463 4.75,-0.415 4.785,-0.357 4.851,-0.35 4.908,-0.374 4.97,-0.4 5.032,-0.415 5.095,-0.423 c 0.015,0.036 0.048,0.065 0.1,0.064 0.096,0 0.191,-0.004 0.286,-0.008 0.21,0.085 0.393,0.248 0.502,0.437 0.066,0.115 0.232,0.033 0.212,-0.077 0.039,-0.109 0.103,-0.204 0.178,-0.291 0.069,0.07 0.149,0.13 0.22,0.197 0.042,0.041 0.121,0.047 0.163,0 0.279,-0.311 0.312,-0.757 0.391,-1.146 0.003,-0.013 0.006,-0.026 0.009,-0.04 0.024,-0.048 0.049,-0.097 0.073,-0.144 0.105,-0.204 0.222,-0.403 0.345,-0.598 0.034,-0.019 0.069,-0.036 0.107,-0.049 0.02,0.099 0.023,0.206 0.029,0.294 0.019,0.293 0.083,0.545 0.175,0.823 0.097,0.296 0.072,0.625 0.071,0.93 C 7.955,0.135 7.982,0.298 7.914,0.454 7.828,0.65 7.696,0.848 7.584,1.029 7.366,1.384 6.986,1.709 6.637,1.936 6.506,2.022 6.371,2.06 6.238,2.127 6.099,2.197 5.992,2.304 5.842,2.372 5.689,2.442 5.663,2.425 5.51,2.455 5.174,2.52 4.846,2.65 4.53,2.774 4.249,2.885 3.993,3.147 3.682,3.173 3.529,3.146 3.372,3.134 3.215,3.13 2.902,3.123 2.575,3.124 2.263,3.151 2.061,3.168 1.863,3.217 1.663,3.25 1.29,3.153 0.927,3.038 0.573,2.92 0.569,2.916 0.567,2.91 0.563,2.906 0.518,2.847 0.519,2.857 0.464,2.826 0.368,2.771 0.291,2.686 0.192,2.629 0.145,2.603 0.101,2.583 0.059,2.561 -0.239,2.595 -0.536,2.622 -0.787,2.42 -0.786,2.424 -0.784,2.427 -0.783,2.43 -0.8,2.437 -0.833,2.4 -0.867,2.351 -0.93,2.296 -0.992,2.238 -1.051,2.178 -1.041,2.151 -1.042,2.12 -1.065,2.089 -1.167,1.95 -1.278,1.818 -1.392,1.687 -1.453,1.681 -1.513,1.675 -1.559,1.654 -1.631,1.621 -1.709,1.532 -1.77,1.479 -1.815,1.44 -1.843,1.388 -1.884,1.346 -1.943,1.285 -2.014,1.241 -2.071,1.177 -2.13,1.11 -2.202,1.039 -2.252,0.962 -2.295,0.896 -2.317,0.829 -2.366,0.762 -2.467,0.626 -2.488,0.521 -2.495,0.353 -2.495,0.344 -2.497,0.332 -2.498,0.322 -2.53,0.265 -2.564,0.209 -2.593,0.149 -2.623,0.088 -2.682,0.081 -2.73,0.104 c -0.081,-0.087 -0.165,-0.173 -0.249,-0.26 -0.099,-0.013 -0.197,-0.025 -0.306,-0.025 -0.144,0 -0.354,0.037 -0.49,-0.01 0.05,-0.112 0.305,-0.151 0.392,-0.28 0.01,-0.016 0.022,-0.041 0.035,-0.068 -0.058,-0.067 -0.11,-0.136 -0.144,-0.203 -0.086,0.018 -0.168,0.048 -0.277,0.089 -0.096,0.038 -0.204,0.076 -0.309,0.086 -0.143,0.013 -0.262,-0.005 -0.373,-0.075 0.026,-0.077 -0.061,-0.142 -0.141,-0.126 -0.038,-0.046 -0.071,-0.093 -0.098,-0.144 -0.05,0.048 -0.093,0.101 -0.127,0.161 0.025,0.048 0.051,0.095 0.077,0.143 -0.127,0.231 -0.191,0.527 -0.352,0.732 -0.052,0.049 -0.104,0.097 -0.158,0.144 -0.029,0.018 -0.057,0.036 -0.09,0.05 -0.134,0.054 -0.28,0.061 -0.407,0.136 -0.11,0.066 -0.224,0.139 -0.33,0.211 -0.03,-0.008 -0.06,-0.017 -0.089,-0.027 -0.013,0.048 -0.027,0.096 -0.041,0.142 0,0 -0.004,0.016 -0.01,0.037 -0.016,0.025 -0.03,0.051 -0.045,0.079 C -6.268,0.91 -6.275,0.924 -6.282,0.937 -6.324,0.946 -6.39,0.941 -6.421,0.945 -6.62,0.968 -6.796,1.023 -6.974,0.934 -7.056,0.892 -7.12,0.819 -7.155,0.733 -7.166,0.723 -7.178,0.713 -7.19,0.704 -7.354,0.593 -7.373,0.451 -7.464,0.285 -7.467,0.279 -7.495,0.245 -7.522,0.212 -7.597,0.231 -7.68,0.28 -7.711,0.314 c -0.088,0.099 -0.085,0.326 -0.056,0.45 0.018,0.08 0.08,0.147 0.107,0.224 0.04,0.114 0.079,0.262 0.087,0.382 C -7.56,1.56 -7.582,1.753 -7.57,1.944 -7.676,1.798 -7.762,1.614 -7.841,1.452 -7.872,1.391 -7.898,1.331 -7.924,1.268 -7.955,1.19 -7.994,1.116 -8.009,1.033 -8.018,0.984 -8.004,0.912 -8.022,0.866 -8.053,0.789 -8.162,0.687 -8.216,0.616 -8.297,0.51 -8.339,0.433 -8.375,0.303 -8.414,0.162 -8.395,0.039 -8.41,-0.108 -8.43,-0.31 -8.587,-0.499 -8.659,-0.687 -8.684,-0.753 -8.737,-0.819 -8.754,-0.886 -8.774,-0.964 -8.766,-1.005 -8.805,-1.087 -8.853,-1.19 -8.868,-1.272 -8.889,-1.387 -8.925,-1.588 -9.012,-1.771 -9.092,-1.958 -9.189,-2.187 -9.366,-2.4 -9.527,-2.59 c -0.146,-0.172 -0.276,-0.36 -0.434,-0.521 -0.148,-0.15 -0.279,-0.292 -0.383,-0.474 -0.064,-0.111 -0.13,-0.209 -0.208,-0.309 -0.016,-0.02 -0.03,-0.039 -0.044,-0.058 -0.079,-0.087 -0.161,-0.17 -0.252,-0.24 -0.023,-0.004 -0.046,-0.008 -0.069,-0.01 -0.025,-0.03 -0.041,-0.064 -0.048,-0.102 -0.023,-0.048 -0.048,-0.087 -0.074,-0.132 -0.146,-0.256 -0.133,-0.581 -0.134,-0.872 -0.011,-0.012 -0.022,-0.023 -0.032,-0.035 -0.118,-0.141 -0.237,-0.313 -0.313,-0.481 -0.103,-0.224 -0.253,-0.411 -0.312,-0.662 -0.035,-0.153 -0.064,-0.232 -0.155,-0.36 -0.145,-0.203 -0.18,-0.446 -0.277,-0.668 -0.04,-0.092 -0.083,-0.171 -0.097,-0.272 -0.015,-0.099 -0.059,-0.15 -0.089,-0.242 -0.043,-0.129 0.021,-0.245 -0.063,-0.369 0.045,0.037 0.06,0.079 0.089,0.127 0.063,0.104 0.152,0.189 0.216,0.295 0.089,0.149 0.16,0.305 0.225,0.464 0.098,0.239 0.275,0.427 0.393,0.651 0.129,0.246 0.316,0.413 0.475,0.635 0.162,0.228 0.302,0.448 0.414,0.702 0.108,0.246 0.285,0.44 0.406,0.677 0.169,0.234 -0.116,0.15 0.097,0.347 0.183,0.17 0.41,0.241 0.59,0.395 0.133,0.115 0.195,0.307 0.31,0.439 0.104,0.117 0.199,0.228 0.321,0.327 0.182,0.148 0.405,0.241 0.574,0.402 0.221,0.212 0.45,0.407 0.673,0.616 0.079,0.075 0.18,0.126 0.257,0.199 0.075,0.07 0.107,0.162 0.145,0.256 0.052,0.131 0.045,0.23 0.047,0.369 0.002,0.168 0.053,0.324 0.081,0.485 0.212,-0.119 0.434,-0.182 0.646,-0.059 -0.001,0.005 -0.004,0.01 -0.004,0.016 0,0.057 0.054,0.12 0.116,0.114 0.01,-0.001 0.019,-0.004 0.028,-0.005 0.026,0.038 0.046,0.08 0.063,0.123 0.009,-0.002 0.02,-0.005 0.034,-0.009 -0.011,0.003 -0.022,0.007 -0.033,0.013 0.034,-0.007 0.091,-0.022 0.136,-0.034 10e-4,0.04 0.026,0.07 0.059,0.086 -0.032,0.045 -0.063,0.091 -0.091,0.139 -0.073,0.128 0.127,0.243 0.2,0.115 0.238,-0.416 0.684,-0.675 0.887,-1.115 0.022,-0.048 0.017,-0.101 -0.02,-0.137 0.035,-0.012 0.071,-0.024 0.105,-0.038 -0.089,-0.283 -0.138,-0.582 -0.136,-0.87 0.001,-0.204 -0.024,-0.412 0.073,-0.601 0.119,-0.235 0.4,-0.3 0.652,-0.305 0.004,0 0.007,0 0.01,0 0.019,-0.017 0.041,-0.033 0.066,-0.048 0.076,-0.048 0.193,-0.053 0.263,-0.105 0.092,-0.069 0.07,-0.162 0.071,-0.272 0.001,-0.149 0.055,-0.29 0.167,-0.398 0.082,-0.078 0.179,-0.095 0.281,-0.098 0.127,0.359 0.233,0.726 0.402,1.07 0.022,0.047 0.048,0.095 0.075,0.143 -0.039,-0.006 -0.079,-0.006 -0.117,0.003 -0.083,-0.003 -0.168,0.015 -0.248,0.034 -0.055,0.014 -0.079,0.061 -0.081,0.111 -0.041,0.025 -0.056,0.082 -0.049,0.126 0.004,0.018 0.01,0.035 0.016,0.053 -0.002,0.002 -0.003,0.003 -0.004,0.005 -0.024,0.044 -0.019,0.101 0.018,0.138 0.065,0.063 0.141,0.111 0.227,0.141 0.103,0.035 0.221,0.029 0.321,-0.015 0.009,10e-4 0.018,0.003 0.027,0.004 0.06,0.004 0.104,-0.048 0.11,-0.103 0.017,-0.018 0.032,-0.037 0.047,-0.058 0.022,-0.014 0.034,-0.032 0.043,-0.051 0.128,0.104 0.278,0.166 0.45,0.14 0.063,0.274 0.178,0.532 0.402,0.717 0.053,0.044 0.111,0.041 0.164,0 0.248,-0.194 0.518,-0.356 0.836,-0.407 0.11,-0.017 0.102,-0.146 0.03,-0.198 0.005,-0.072 -0.052,-0.148 -0.141,-0.118 -0.263,0.089 -0.508,0.218 -0.754,0.343 -0.081,-0.196 -0.085,-0.409 -0.085,-0.621 -0.001,-0.072 -0.075,-0.132 -0.147,-0.11 -0.095,0.03 -0.179,0.031 -0.254,0.013 -0.015,-0.009 -0.032,-0.014 -0.051,-0.015 -0.227,-0.087 -0.362,-0.364 -0.465,-0.598 -0.141,-0.318 -0.247,-0.69 -0.467,-0.972 0.005,-0.025 0.003,-0.052 -0.013,-0.073 -0.155,-0.208 -0.372,-0.341 -0.603,-0.456 -0.01,-0.026 -0.02,-0.053 -0.028,-0.079 -0.038,-0.132 -0.053,-0.274 -0.059,-0.412 -0.009,-0.217 -0.087,-0.436 -0.149,-0.642 -0.027,-0.09 -0.083,-0.166 -0.101,-0.256 -0.013,-0.065 -0.017,-0.126 -0.034,-0.192 -0.05,-0.196 -0.135,-0.378 -0.21,-0.568 -0.066,-0.168 -0.083,-0.332 -0.11,-0.51 -0.03,-0.199 -0.099,-0.391 -0.129,-0.589 -0.02,-0.125 -0.008,-0.256 -0.008,-0.383 0,-0.279 -0.049,-0.54 -0.049,-0.822 0,-0.218 0.007,-0.422 -0.037,-0.635 -0.041,-0.198 -0.069,-0.391 -0.099,-0.59 -0.017,-0.118 -0.024,-0.225 -0.055,-0.338 -0.024,-0.09 -0.048,-0.181 -0.069,-0.273 -0.025,-0.106 -0.01,-0.216 -0.033,-0.317 -0.012,-0.053 -0.062,-0.079 -0.056,-0.137 0.073,0.081 0.115,0.197 0.168,0.29 0.062,0.108 0.127,0.207 0.175,0.325 0.063,0.153 0.157,0.331 0.193,0.493 0.03,0.13 0.04,0.233 0.087,0.359 0.031,0.084 0.028,0.174 0.046,0.262 0.027,0.133 0.03,0.268 0.048,0.402 0.018,0.126 0.067,0.251 0.078,0.377 0.015,0.167 -0.027,0.33 0.027,0.493 0.055,0.169 0.079,0.333 0.118,0.505 0.057,0.255 0.138,0.508 0.268,0.738 0.109,0.194 0.149,0.412 0.263,0.603 0.116,0.195 0.203,0.406 0.31,0.61 0.049,0.095 0.075,0.205 0.127,0.295 0.044,0.076 0.105,0.128 0.141,0.216 0.093,0.227 0.264,0.393 0.374,0.613 0.074,0.149 0.18,0.301 0.288,0.431 0.132,0.157 0.335,0.197 0.487,0.33 0.062,0.008 0.118,0.025 0.16,0.056 0.092,0.068 0.156,0.183 0.242,0.258 0.14,0.122 0.363,0.106 0.542,0.089 0.056,-0.005 0.104,-0.024 0.152,-0.046 0.001,-0.012 0.003,-0.024 0.004,-0.035 0.019,-0.317 -0.059,-0.647 -0.191,-0.934 -0.07,-0.153 -0.06,-0.285 -0.06,-0.453 0,-0.206 -0.006,-0.382 -0.062,-0.582 -0.169,-0.601 -0.086,-1.266 -0.086,-1.887 v -1.266 -0.898 c 0,-0.174 -0.006,-0.333 0.038,-0.496 0.048,-0.175 0.012,-0.412 0.01,-0.593 -0.007,-0.154 -0.003,-0.308 0.01,-0.462 0.014,-0.096 0.041,-0.189 0.081,-0.278 0.015,-0.063 0.01,-0.119 0.008,-0.183 -0.004,-0.234 0.002,-0.468 -10e-4,-0.702 -0.002,-0.251 0.063,-0.484 0.054,-0.736 -0.006,-0.145 -0.04,-0.291 -0.052,-0.435 -0.004,-0.038 -0.002,-0.067 -0.015,-0.092 0.291,0.308 0.131,0.805 0.158,1.197 0.007,0.096 0.049,0.148 0.092,0.231 0.055,0.103 0.062,0.193 0.063,0.309 0.002,0.127 -0.011,0.257 -0.004,0.385 0.008,0.129 0.084,0.181 0.137,0.298 0.135,0.298 0.111,0.633 0.111,0.95 -0.001,0.336 0.001,0.637 0.085,0.967 0.123,0.481 0.112,0.943 0.112,1.436 0.001,0.384 0.055,0.836 -0.024,1.216 -0.086,0.408 -0.021,0.869 -0.025,1.285 -0.002,0.195 0.019,0.346 0.085,0.534 0.056,0.159 0.1,0.311 0.111,0.478 0.004,0.069 -0.01,0.14 -0.002,0.207 0.014,0.109 0.053,0.208 0.08,0.313 0.035,-0.021 0.077,-0.033 0.141,-0.047 0.114,-0.026 0.169,-0.027 0.27,0.023 0.262,0.128 0.468,-0.345 0.741,-0.223 0.096,0.043 0.195,0.092 0.272,0.165 0.102,0.095 0.11,0.926 0.21,1.024 0.016,0.016 0.034,0.03 0.053,0.043 0.03,-0.053 0.062,-0.791 0.099,-0.837 0.08,-0.101 0.111,-0.125 0.242,-0.13 0.083,-0.003 0.166,0.684 0.249,0.686 0,-0.035 0.002,-0.069 0.01,-0.098 0.012,-0.043 0.05,-0.077 0.079,-0.112 0.087,-0.108 0.172,-0.231 0.242,-0.35 0.165,-0.281 0.236,-0.602 0.329,-0.91 0.026,-0.088 0.066,-0.184 0.087,-0.279 0.028,-0.124 0.072,-0.231 0.099,-0.361 0.066,-0.322 0.264,-0.629 0.35,-0.956 0.112,-0.427 0.29,-0.893 0.297,-1.336 0.005,-0.366 0.052,-0.729 0.049,-1.094 -0.003,-0.31 -0.001,-0.62 -0.001,-0.929 0,-0.666 0.017,-1.334 0,-1.999 0.01,0.093 0.038,0.188 0.045,0.279 0.009,0.124 0.015,0.248 0.037,0.372 0.028,0.147 0.09,0.286 0.117,0.43 0.025,0.136 0.041,0.279 0.058,0.418 0.021,0.166 0.075,0.337 0.09,0.503 0.015,0.152 -0.002,0.316 -0.002,0.47 0,0.191 0.025,0.359 0.045,0.548 0.033,0.303 -0.006,0.619 0.002,0.924 0.01,0.328 0.053,0.669 0.097,0.993 0.036,0.269 0.004,0.56 0.004,0.832 0,0.327 0.044,0.685 -0.011,1.005 -0.061,0.352 -0.133,0.667 -0.225,1.012 -0.06,0.227 -0.249,0.384 -0.308,0.613 -0.051,0.197 -0.058,0.41 -0.055,0.622 -0.206,0.181 -0.41,0.363 -0.586,0.571 -0.162,0.19 -0.287,0.398 -0.381,0.622 C 2.335,-1.944 2.089,-1.813 1.831,-1.728 1.694,-1.726 1.557,-1.742 1.423,-1.772 1.201,-1.984 0.955,-2.184 0.641,-2.231 0.62,-2.234 0.6,-2.231 0.581,-2.227 0.578,-2.23 0.574,-2.234 0.571,-2.238 0.583,-2.273 0.578,-2.313 0.544,-2.347 0.509,-2.381 0.482,-2.409 0.479,-2.46 0.466,-2.581 0.303,-2.602 0.26,-2.516 0.181,-2.512 0.109,-2.44 0.165,-2.354 c 0.062,0.094 0.134,0.181 0.212,0.26 -0.036,0.049 -0.04,0.125 0.027,0.168 0.076,0.049 0.154,0.098 0.233,0.147 0.124,0.146 0.207,0.293 0.157,0.501 -0.021,0.09 0.082,0.187 0.17,0.128 0.267,-0.177 0.565,-0.196 0.87,-0.199 0.153,0.016 0.308,0.016 0.449,-0.011 C 2.344,-1.364 2.405,-1.371 2.465,-1.381 2.517,-1.39 2.541,-1.423 2.546,-1.46 2.584,-1.485 2.62,-1.511 2.652,-1.545 2.659,-1.55 2.663,-1.558 2.669,-1.565 2.721,-1.628 2.764,-1.704 2.792,-1.8 2.794,-1.804 2.793,-1.808 2.793,-1.812 2.802,-1.818 2.81,-1.822 2.818,-1.829 2.833,-1.841 2.846,-1.854 2.86,-1.866 c 0.044,-0.009 0.068,-0.037 0.077,-0.069 0.361,-0.34 0.595,-0.784 0.868,-1.198 0.056,-0.049 0.113,-0.956 0.168,-1.006 0.018,-0.002 0.036,-0.003 0.052,-0.004 0.23,-0.02 0.455,-0.051 0.687,-0.05 0.279,0.002 0.539,-0.009 0.806,0.077 0.232,0.075 0.45,0.044 0.674,0.176 0.168,0.099 0.315,0.217 0.463,0.336 0.028,0.003 0.056,0.005 0.084,0.005 0.069,-0.081 0.137,-0.164 0.203,-0.25 0.112,-0.147 0.194,0.554 0.295,0.399 0.07,-0.108 0.109,-0.23 0.177,-0.339 0.065,-0.106 0.14,-0.215 0.197,-0.329 0.065,-0.131 0.096,-0.265 0.175,-0.387 0.098,-0.152 0.178,-0.292 0.27,-0.438 0.067,-0.105 0.127,-0.231 0.155,-0.346 0.033,-0.132 0.108,-0.244 0.161,-0.367 0.043,-0.1 0.056,-0.203 0.077,-0.309 0.035,-0.179 0.034,-0.349 0.06,-0.528 0.04,-0.267 0.091,-0.543 0.088,-0.815 -0.003,-0.397 0.035,-0.775 0.088,-1.168 0.017,-0.128 -0.054,-0.987 0.049,-1.013 0.036,0.066 0.011,0.185 0.015,0.258 0.009,0.203 0.05,0.399 0.085,0.598 0.039,0.224 0.01,0.466 0.01,0.694 z"
             style="fill:#100f0d;fill-opacity:1;fill-rule:nonzero;stroke:none"
             id="path54663" />
        </g>
        <g
           id="g54665"
           transform="translate(198.086,707.698)">
          <path
             d="m 0,0 c 0.056,-0.065 0.111,-0.132 0.161,-0.204 0.002,0.005 0.004,0.009 0.007,0.013 0.089,0.132 0.143,0.337 0.271,0.428 0.075,0.054 0.175,0.098 0.258,0.157 0.004,0 0.008,0 0.012,0 C 0.744,0.362 0.789,0.342 0.849,0.341 0.968,0.261 1.109,0.301 1.241,0.343 1.307,0.34 1.381,0.33 1.441,0.337 1.496,0.343 1.554,0.367 1.61,0.395 1.681,0.398 1.741,0.409 1.81,0.424 1.871,0.84 2.109,1.166 2.438,1.427 2.694,1.63 2.979,1.797 3.241,1.991 3.191,2.019 3.144,2.048 3.102,2.077 3.021,2.134 2.964,2.198 2.866,2.228 2.813,2.244 2.794,2.246 2.754,2.267 2.563,2.364 2.455,2.54 2.226,2.529 2.065,2.521 2.001,2.426 1.873,2.344 1.773,2.279 1.647,2.207 1.521,2.167 1.502,2.199 1.478,2.227 1.438,2.239 1.348,2.268 1.216,2.265 1.091,2.247 1.09,2.273 1.088,2.298 1.085,2.322 1.063,2.457 1.004,2.576 1.03,2.721 1.049,2.828 1.082,2.962 1.126,3.05 0.988,3.134 0.896,2.893 0.96,2.941 0.832,2.806 0.653,2.704 0.511,2.586 0.375,2.474 0.278,2.321 0.171,2.184 -0.053,1.896 -0.152,1.628 -0.245,1.275 -0.276,1.156 -0.29,1.047 -0.33,0.941 -0.207,0.66 -0.089,0.375 0.01,0.084 0.021,0.052 0.015,0.024 0,0"
             style="fill:#100f0d;fill-opacity:1;fill-rule:nonzero;stroke:none"
             id="path54667" />
        </g>
        <g
           id="g54669"
           transform="translate(196.758,706.263)">
          <path
             d="m 0,0 c -0.001,-0.002 -0.002,-0.004 -0.003,-0.006 -0.151,-0.4 -0.365,-0.726 -0.599,-1.082 -0.069,-0.105 -0.129,-0.185 -0.192,-0.296 -0.036,-0.063 -0.07,-0.12 -0.1,-0.183 -0.027,-0.057 -0.072,-0.11 -0.094,-0.169 C -1.01,-1.795 -1.014,-1.863 -1.022,-1.929 -1.038,-1.941 -1.054,-1.953 -1.067,-1.965 -1.16,-2.046 -1.233,-2.138 -1.323,-2.22 -1.37,-2.263 -1.44,-2.289 -1.477,-2.339 -1.509,-2.381 -1.523,-2.459 -1.563,-2.51 -1.617,-2.58 -1.67,-2.619 -1.697,-2.703 -1.746,-2.853 -1.789,-2.981 -1.877,-3.114 -2.061,-3.39 -2.245,-3.669 -2.443,-3.938 -2.527,-4.054 -2.607,-4.145 -2.658,-4.282 -2.7,-4.397 -2.727,-4.515 -2.755,-4.635 -2.81,-4.877 -2.817,-5.099 -2.817,-5.348 c 0,-0.222 -0.047,-0.491 -10e-4,-0.706 0.015,-0.072 0.044,-0.111 0.051,-0.191 0.01,-0.116 0.042,-0.101 0.094,-0.192 0.084,-0.147 0.1,-0.336 0.103,-0.5 -0.011,0.378 0.158,0.755 0.275,1.108 0.087,0.264 0.073,0.463 0.015,0.719 -0.013,0.056 -0.02,0.105 -0.023,0.153 0.104,0.131 0.176,0.275 0.278,0.398 0.081,0.099 0.093,0.257 0.17,0.375 0.084,0.13 0.158,0.267 0.249,0.392 0.076,0.104 0.157,0.177 0.215,0.294 0.07,0.139 0.164,0.243 0.266,0.359 0.18,0.205 0.294,0.457 0.425,0.694 0.14,0.253 0.337,0.471 0.483,0.718 0.175,0.297 0.422,0.551 0.593,0.853 0.03,0.052 0.057,0.107 0.084,0.161 C 0.39,-0.549 0.306,-0.391 0.205,-0.245 0.148,-0.162 0.079,-0.076 0,0"
             style="fill:#100f0d;fill-opacity:1;fill-rule:nonzero;stroke:none"
             id="path54671" />
        </g>
        <g
           id="g54673"
           transform="translate(201.668,693.313)">
          <path
             d="M 0,0 C -0.014,-0.015 -0.028,-0.03 -0.044,-0.043 -0.019,-0.03 -0.008,-0.015 0,0"
             style="fill:#100f0d;fill-opacity:1;fill-rule:nonzero;stroke:none"
             id="path54675" />
        </g>
      </g>
    </g>
  </g>
</svg>
