<?xml version="1.0" encoding="UTF-8" standalone="no"?>
<!-- Created with Inkscape (http://www.inkscape.org/) -->

<svg
   width="24.361013"
   height="24"
   viewBox="0 0 6.4455181 6.35"
   version="1.1"
   id="svg56114"
   inkscape:version="1.2.1 (9c6d41e4, 2022-07-14)"
   sodipodi:docname="deadly-weather.svg"
   xmlns:inkscape="http://www.inkscape.org/namespaces/inkscape"
   xmlns:sodipodi="http://sodipodi.sourceforge.net/DTD/sodipodi-0.dtd"
   xmlns="http://www.w3.org/2000/svg"
   xmlns:svg="http://www.w3.org/2000/svg">
  <sodipodi:namedview
     id="namedview56116"
     pagecolor="#505050"
     bordercolor="#eeeeee"
     borderopacity="1"
     inkscape:showpageshadow="0"
     inkscape:pageopacity="0"
     inkscape:pagecheckerboard="0"
     inkscape:deskcolor="#505050"
     inkscape:document-units="mm"
     showgrid="false"
     inkscape:zoom="0.7046647"
     inkscape:cx="-43.992554"
     inkscape:cy="244.79728"
     inkscape:window-width="1390"
     inkscape:window-height="941"
     inkscape:window-x="0"
     inkscape:window-y="25"
     inkscape:window-maximized="0"
     inkscape:current-layer="layer1" />
  <defs
     id="defs56111">
    <clipPath
       clipPathUnits="userSpaceOnUse"
       id="clipPath54455">
      <path
         d="m 65.076,658.479 h 24.699 v 24.7 H 65.076 Z"
         id="path54453" />
    </clipPath>
  </defs>
  <g
     inkscape:label="Layer 1"
     inkscape:groupmode="layer"
     id="layer1"
     transform="translate(-116.92895,-83.934988)">
    <g
       id="g54449"
       transform="matrix(0.27766846,0,0,-0.27766846,98.646645,273.41539)">
      <g
         id="g54451"
         clip-path="url(#clipPath54455)">
        <g
           id="g54457"
           transform="translate(69.3878,678.876)">
          <path
             d="M 0,0 C 0.004,-0.047 0.054,-0.093 0.084,-0.125 0.132,-0.177 0.183,-0.226 0.234,-0.275 0.212,-0.233 0.188,-0.192 0.16,-0.158 0.113,-0.102 0.051,-0.054 0,0"
             style="fill:#100f0d;fill-opacity:1;fill-rule:nonzero;stroke:none"
             id="path54459" />
        </g>
        <g
           id="g54461"
           transform="translate(65.9616,670.79)">
          <path
             d="m 0,0 c 0.036,-0.031 0.104,-0.027 0.148,-0.029 0.071,-0.003 0.142,-0.002 0.212,0 C 0.315,-0.015 0.269,-0.003 0.225,0.001 0.151,0.008 0.074,-0.002 0,0"
             style="fill:#100f0d;fill-opacity:1;fill-rule:nonzero;stroke:none"
             id="path54463" />
        </g>
        <g
           id="g54465"
           transform="translate(69.6219,662.816)">
          <path
             d="M 0,0 C 0.047,0.004 0.093,0.054 0.125,0.084 0.177,0.132 0.226,0.183 0.276,0.234 0.233,0.212 0.192,0.188 0.158,0.16 0.102,0.112 0.054,0.051 0,0"
             style="fill:#100f0d;fill-opacity:1;fill-rule:nonzero;stroke:none"
             id="path54467" />
        </g>
        <g
           id="g54469"
           transform="translate(77.6223,659.647)">
          <path
             d="m 0,0 c 0.031,0.036 0.027,0.104 0.029,0.148 0.003,0.071 0.002,0.141 0,0.212 C 0.015,0.315 0.003,0.269 -0.001,0.224 -0.008,0.151 0.002,0.074 0,0"
             style="fill:#100f0d;fill-opacity:1;fill-rule:nonzero;stroke:none"
             id="path54471" />
        </g>
        <g
           id="g54473"
           transform="translate(85.6816,663.05)">
          <path
             d="M 0,0 C -0.004,0.047 -0.054,0.093 -0.084,0.125 -0.132,0.177 -0.183,0.226 -0.234,0.276 -0.212,0.233 -0.188,0.192 -0.16,0.158 -0.112,0.102 -0.051,0.054 0,0"
             style="fill:#100f0d;fill-opacity:1;fill-rule:nonzero;stroke:none"
             id="path54475" />
        </g>
        <g
           id="g54477"
           transform="translate(88.9363,671.137)">
          <path
             d="m 0,0 c -0.036,0.031 -0.104,0.027 -0.148,0.029 -0.071,0.003 -0.142,0.002 -0.213,0 0.046,-0.014 0.092,-0.026 0.136,-0.03 C -0.151,-0.008 -0.074,0.002 0,0"
             style="fill:#100f0d;fill-opacity:1;fill-rule:nonzero;stroke:none"
             id="path54479" />
        </g>
        <g
           id="g54481"
           transform="translate(79.4752,670.124)">
          <path
             d="m 0,0 c -0.041,-0.061 -0.089,-0.117 -0.135,-0.173 -0.022,-0.021 -0.044,-0.041 -0.068,-0.06 -0.045,-0.035 -0.094,-0.067 -0.143,-0.1 -0.156,0.158 -0.315,0.311 -0.482,0.455 0.007,0.153 0.038,0.306 0.052,0.458 0.002,0.018 0.006,0.034 0.009,0.052 0.061,-0.014 0.123,-0.027 0.183,-0.044 0.227,-0.064 0.449,-0.154 0.685,-0.182 10e-4,0 0.003,0 0.004,0 C 0.112,0.266 0.085,0.127 0,0 m -1.168,-0.978 c -0.069,-0.06 -0.147,-0.12 -0.229,-0.162 -0.099,-0.051 -0.21,-0.085 -0.323,-0.098 10e-4,0.235 0.002,0.466 -0.01,0.696 0.087,-0.017 0.182,-0.041 0.27,-0.025 0.12,0.023 0.229,0.095 0.328,0.173 0.066,-0.125 0.131,-0.252 0.208,-0.371 -0.024,-0.028 -0.048,-0.057 -0.074,-0.085 -0.049,-0.05 -0.115,-0.081 -0.17,-0.128 m -1.552,0.027 c -0.047,0.025 -0.07,0.068 -0.115,0.087 -0.049,0.021 -0.13,0.007 -0.186,0.016 -0.051,0.008 -0.101,0.021 -0.15,0.035 0.178,0.176 0.352,0.352 0.513,0.54 0.042,-0.019 0.084,-0.039 0.128,-0.055 0.084,-0.031 0.173,-0.046 0.26,-0.071 -0.003,-0.011 -0.005,-0.022 -0.008,-0.033 -0.058,-0.207 -0.136,-0.409 -0.17,-0.622 -0.086,0.034 -0.191,0.059 -0.272,0.103 m -1.278,2.844 c 0.08,0.111 0.139,0.245 0.243,0.339 C -3.728,2.206 -3.703,2.181 -3.678,2.155 -3.528,2.004 -3.38,1.854 -3.227,1.711 -3.236,1.685 -3.243,1.659 -3.251,1.636 -3.313,1.455 -3.387,1.268 -3.418,1.079 c -0.017,0.004 -0.034,0.007 -0.051,0.012 -0.227,0.064 -0.448,0.154 -0.684,0.181 -0.025,0.003 -0.049,0.003 -0.074,0.004 0.01,0.046 0.02,0.092 0.024,0.138 0.014,0.132 0.123,0.368 0.205,0.479 m 1.186,0.746 c 0.074,0.028 0.155,0.029 0.233,0.043 0.082,0.014 0.164,0.034 0.246,0.056 0,-0.097 0.001,-0.193 0.003,-0.289 C -2.363,2.442 -2.396,2.436 -2.424,2.418 -2.53,2.348 -2.641,2.266 -2.737,2.178 -2.752,2.164 -2.769,2.153 -2.785,2.141 c -0.064,0.123 -0.13,0.244 -0.21,0.357 0.016,0.011 0.031,0.023 0.044,0.032 0.052,0.036 0.07,0.083 0.139,0.109 m 1.517,0.067 c 0.155,-0.07 0.298,0.014 0.409,-0.115 0.041,-0.048 0.098,-0.085 0.158,-0.117 -0.17,-0.168 -0.336,-0.337 -0.49,-0.516 -0.025,0.024 -0.049,0.048 -0.078,0.068 -0.111,0.08 -0.248,0.135 -0.372,0.191 -0.021,0.01 -0.044,0.019 -0.066,0.026 0.057,0.182 0.119,0.362 0.141,0.552 0.004,0.036 0.004,0.072 0.005,0.108 0.101,-0.022 0.201,-0.155 0.293,-0.197 m 0.573,-1.588 c 0,0.077 0.004,0.138 -0.03,0.21 -0.036,0.078 -0.09,0.147 -0.142,0.216 0.021,0.013 0.042,0.027 0.064,0.039 0.193,0.108 0.398,0.198 0.576,0.33 C -0.247,1.729 -0.281,1.539 -0.226,1.366 -0.205,1.302 -0.157,1.255 -0.131,1.194 -0.124,1.178 -0.119,1.162 -0.114,1.146 -0.318,1.145 -0.52,1.139 -0.722,1.118 M -2.328,2.335 C -2.343,2.328 -2.358,2.32 -2.38,2.314 -2.415,2.304 -2.45,2.301 -2.486,2.299 l 0.157,0.105 c 0,-0.023 0,-0.046 0.001,-0.069 M -3.663,-0.26 c -0.056,-0.044 -0.109,-0.094 -0.159,-0.146 -0.053,0.091 -0.084,0.194 -0.148,0.287 -0.052,0.075 -0.113,0.155 -0.172,0.228 -0.105,0.13 -0.148,0.268 -0.16,0.425 0.285,-0.002 0.564,-0.003 0.843,0.018 C -3.457,0.526 -3.457,0.5 -3.452,0.474 -3.426,0.327 -3.358,0.216 -3.249,0.118 -3.22,0.092 -3.193,0.063 -3.165,0.035 -3.336,-0.055 -3.511,-0.139 -3.663,-0.26 M 7.021,0.568 C 7.236,0.611 7.449,0.599 7.664,0.644 7.91,0.694 8.17,0.655 8.419,0.693 8.484,0.702 8.548,0.705 8.613,0.713 8.719,0.726 8.824,0.773 8.929,0.798 9.141,0.847 9.363,0.9 9.58,0.902 9.58,1.008 9.365,0.998 9.153,1.009 9.079,1.013 9.008,1.028 8.936,1.041 c 0.024,0 0.049,0 0.073,0 0.03,0 0.061,0.001 0.092,0.001 C 9.03,1.064 8.958,1.093 8.891,1.113 8.704,1.17 8.532,1.203 8.337,1.201 8.222,1.199 8.111,1.195 7.999,1.213 7.9,1.23 7.803,1.227 7.703,1.227 7.484,1.227 7.263,1.234 7.044,1.225 6.795,1.214 6.549,1.168 6.3,1.152 6.224,1.147 6.146,1.147 6.069,1.145 6.085,1.247 6.111,1.345 6.154,1.438 6.155,1.444 6.157,1.449 6.158,1.455 6.162,1.502 6.146,1.523 6.177,1.563 6.213,1.611 6.287,1.608 6.327,1.639 6.39,1.689 6.303,1.794 6.318,1.858 6.334,1.927 6.419,1.989 6.477,2.032 6.516,2.061 6.535,2.081 6.564,2.124 6.617,2.201 6.676,2.296 6.746,2.358 6.817,2.421 6.905,2.454 6.979,2.511 7.108,2.611 7.192,2.77 7.337,2.848 7.38,2.87 7.429,2.889 7.472,2.91 7.626,2.985 7.767,2.99 7.941,2.992 8.204,2.996 8.467,2.991 8.73,2.991 8.77,2.993 8.848,3.087 8.758,3.139 8.725,3.157 8.699,3.145 8.664,3.152 8.627,3.159 8.594,3.172 8.556,3.179 8.246,3.236 7.969,3.488 7.639,3.356 7.557,3.324 7.482,3.271 7.402,3.234 7.323,3.196 7.241,3.197 7.156,3.184 7.019,3.163 6.859,3.135 6.731,3.085 6.619,3.041 6.489,3.016 6.394,2.944 6.358,2.917 6.353,2.9 6.323,2.869 6.272,2.816 6.193,2.804 6.139,2.755 6.052,2.676 6.028,2.565 5.985,2.461 5.94,2.356 5.888,2.258 5.859,2.148 5.827,2.023 5.742,1.901 5.651,1.81 5.602,1.76 5.556,1.719 5.497,1.681 5.415,1.628 5.394,1.576 5.39,1.475 5.386,1.377 5.419,1.299 5.4,1.205 5.397,1.188 5.396,1.171 5.393,1.154 5.349,1.156 5.304,1.156 5.26,1.159 5.112,1.171 4.963,1.187 4.815,1.201 4.826,1.258 4.844,1.314 4.851,1.369 4.856,1.409 4.865,1.463 4.856,1.503 4.839,1.581 4.739,1.648 4.731,1.728 4.727,1.769 4.735,1.834 4.744,1.871 4.761,1.939 4.824,1.992 4.836,2.06 4.845,2.117 4.827,2.22 4.785,2.159 4.789,2.207 4.501,2.196 4.476,2.197 4.403,2.201 4.328,2.224 4.28,2.176 4.25,2.147 4.254,2.114 4.25,2.079 4.245,2.032 4.223,1.993 4.215,1.948 4.195,1.831 4.284,1.737 4.279,1.626 4.273,1.514 4.293,1.404 4.287,1.291 4.286,1.276 4.285,1.261 4.285,1.247 4.274,1.247 4.263,1.249 4.253,1.249 4.07,1.26 3.885,1.259 3.701,1.256 3.711,1.294 3.721,1.332 3.726,1.369 3.731,1.409 3.74,1.463 3.731,1.503 3.713,1.581 3.614,1.648 3.606,1.728 3.602,1.769 3.609,1.834 3.619,1.871 3.635,1.939 3.699,1.992 3.71,2.06 3.72,2.117 3.702,2.22 3.66,2.159 3.664,2.207 3.375,2.196 3.351,2.197 3.278,2.201 3.203,2.224 3.155,2.176 3.125,2.147 3.129,2.114 3.125,2.079 3.12,2.032 3.098,1.993 3.09,1.948 3.069,1.831 3.159,1.737 3.153,1.626 3.148,1.514 3.168,1.404 3.162,1.291 3.161,1.28 3.16,1.269 3.16,1.258 3.016,1.26 2.871,1.263 2.727,1.268 2.735,1.302 2.744,1.336 2.748,1.369 2.753,1.409 2.762,1.463 2.754,1.503 2.736,1.581 2.637,1.648 2.628,1.728 2.624,1.769 2.632,1.834 2.641,1.871 2.658,1.939 2.721,1.992 2.733,2.06 2.742,2.117 2.725,2.22 2.683,2.159 2.686,2.207 2.398,2.196 2.374,2.197 2.3,2.201 2.225,2.224 2.177,2.176 2.148,2.147 2.151,2.114 2.147,2.079 2.142,2.032 2.12,1.993 2.112,1.948 2.092,1.831 2.182,1.737 2.176,1.626 2.17,1.514 2.19,1.404 2.184,1.291 c 0,-0.003 0,-0.006 0,-0.01 C 2.136,1.281 2.089,1.282 2.041,1.28 1.825,1.271 1.612,1.227 1.396,1.212 1.029,1.187 0.661,1.146 0.293,1.146 0.304,1.2 0.311,1.253 0.315,1.292 0.326,1.413 0.322,1.556 0.315,1.677 0.303,1.87 0.176,2.051 0.022,2.17 V 2.172 C 0.119,2.281 0.211,2.394 0.308,2.499 0.486,2.694 0.668,2.883 0.839,3.085 0.946,3.212 1.045,3.342 1.151,3.468 1.18,3.443 1.209,3.421 1.241,3.397 1.32,3.339 1.383,3.264 1.464,3.209 1.502,3.183 1.525,3.172 1.54,3.126 1.551,3.089 1.547,3.054 1.574,3.025 1.64,2.951 1.711,3.025 1.803,3.046 1.812,2.995 1.824,2.968 1.882,2.962 1.9,2.96 1.922,2.969 1.94,2.966 1.981,2.961 2.005,2.931 2.039,2.915 2.072,2.992 2.119,3.042 2.184,3.102 2.212,3.127 2.241,3.16 2.272,3.178 2.315,3.203 2.377,3.198 2.408,3.248 2.279,3.282 2.197,3.376 2.086,3.44 2.015,3.48 1.966,3.543 1.913,3.603 1.857,3.667 1.798,3.735 1.718,3.772 1.651,3.801 1.597,3.839 1.549,3.891 1.643,3.984 1.736,4.078 1.831,4.171 1.862,4.142 1.896,4.115 1.932,4.088 2.011,4.03 2.075,3.955 2.155,3.9 2.193,3.874 2.216,3.864 2.231,3.817 2.243,3.78 2.239,3.745 2.265,3.716 2.332,3.642 2.402,3.716 2.494,3.737 2.504,3.687 2.515,3.659 2.573,3.653 2.591,3.651 2.613,3.66 2.631,3.658 2.672,3.653 2.697,3.622 2.73,3.606 2.764,3.683 2.81,3.734 2.876,3.793 2.904,3.818 2.932,3.851 2.963,3.87 3.006,3.895 3.069,3.889 3.099,3.939 2.97,3.973 2.888,4.067 2.777,4.131 2.706,4.171 2.657,4.234 2.605,4.294 2.548,4.358 2.49,4.426 2.409,4.463 2.337,4.495 2.277,4.534 2.227,4.594 2.347,4.731 2.463,4.871 2.581,5.011 2.626,4.963 2.673,4.924 2.728,4.884 2.807,4.826 2.87,4.751 2.951,4.696 2.989,4.67 3.012,4.659 3.026,4.613 3.038,4.576 3.034,4.541 3.061,4.512 3.128,4.438 3.198,4.512 3.29,4.533 3.299,4.482 3.311,4.455 3.368,4.449 3.387,4.447 3.409,4.456 3.427,4.453 3.468,4.448 3.492,4.418 3.526,4.402 3.559,4.478 3.606,4.529 3.671,4.589 3.699,4.614 3.727,4.647 3.759,4.665 3.802,4.691 3.864,4.685 3.895,4.734 3.766,4.769 3.683,4.863 3.572,4.926 3.501,4.967 3.453,5.03 3.4,5.09 3.344,5.154 3.285,5.222 3.205,5.258 3.132,5.291 3.072,5.33 3.022,5.391 3.001,5.415 2.984,5.442 2.967,5.469 3.061,5.582 3.157,5.693 3.255,5.803 3.274,5.817 3.293,5.831 3.312,5.844 3.333,5.822 3.354,5.801 3.375,5.779 3.469,5.68 3.623,5.663 3.737,5.587 3.796,5.547 3.839,5.503 3.888,5.455 3.924,5.421 3.966,5.4 4.007,5.374 4.084,5.326 4.152,5.264 4.235,5.23 4.412,5.158 4.598,5.154 4.784,5.171 4.886,5.18 4.991,5.158 5.094,5.162 5.18,5.166 5.266,5.167 5.352,5.164 5.541,5.155 5.743,5.114 5.928,5.175 6.128,5.242 6.276,5.443 6.423,5.587 6.562,5.722 6.676,5.88 6.814,6.016 6.877,6.078 6.943,6.138 6.997,6.208 6.995,6.207 6.993,6.206 6.99,6.206 7.003,6.219 7.012,6.232 7.023,6.245 7.014,6.232 7.007,6.219 6.997,6.208 7.008,6.211 7.018,6.216 7.025,6.224 7.039,6.238 7.046,6.259 7.052,6.28 7.069,6.305 7.085,6.33 7.104,6.356 7.196,6.482 7.162,6.656 7.14,6.805 7.131,6.858 7.13,6.914 7.132,6.966 7.135,7.055 7.137,7.049 7.017,7.058 7.018,6.951 6.995,6.86 6.941,6.764 6.895,6.681 6.87,6.591 6.811,6.513 6.762,6.448 6.722,6.378 6.675,6.311 6.618,6.232 6.54,6.17 6.477,6.096 6.45,6.065 6.425,6.034 6.4,6.003 6.188,5.921 5.978,5.854 5.75,5.821 5.614,5.802 5.47,5.751 5.335,5.754 5.135,5.757 4.924,5.792 4.731,5.837 4.605,5.866 4.499,5.919 4.378,5.962 4.273,6 4.199,6.031 4.113,6.104 4.057,6.151 4.016,6.192 3.95,6.222 3.907,6.242 3.863,6.257 3.823,6.279 3.973,6.395 4.126,6.508 4.266,6.634 4.37,6.727 4.483,6.83 4.561,6.946 4.684,7.129 4.842,7.271 4.963,7.455 5.1,7.664 5.312,7.821 5.462,8.023 5.501,8.076 5.544,8.124 5.584,8.175 5.65,8.259 5.691,8.366 5.748,8.458 5.863,8.643 5.983,8.837 6.135,8.992 6.059,9.067 5.915,8.908 5.757,8.766 5.701,8.716 5.641,8.676 5.581,8.635 5.598,8.652 5.616,8.669 5.633,8.687 5.654,8.708 5.675,8.73 5.697,8.752 5.631,8.718 5.56,8.687 5.499,8.654 5.326,8.562 5.181,8.464 5.045,8.324 4.965,8.242 4.889,8.161 4.797,8.094 4.715,8.036 4.649,7.965 4.578,7.894 4.423,7.74 4.262,7.589 4.114,7.427 3.945,7.243 3.803,7.037 3.639,6.849 3.589,6.792 3.533,6.737 3.48,6.681 3.42,6.764 3.369,6.852 3.333,6.948 3.33,6.953 3.327,6.958 3.324,6.964 3.294,6.999 3.268,7.003 3.261,7.054 3.253,7.113 3.307,7.163 3.313,7.213 3.323,7.293 3.186,7.306 3.152,7.361 3.115,7.422 3.131,7.526 3.142,7.597 3.149,7.645 3.148,7.673 3.138,7.724 3.121,7.815 3.095,7.924 3.101,8.018 3.107,8.112 3.146,8.198 3.158,8.291 3.178,8.453 3.126,8.624 3.173,8.782 3.187,8.828 3.209,8.876 3.225,8.922 3.28,9.083 3.376,9.187 3.498,9.312 3.681,9.5 3.871,9.682 4.057,9.868 4.083,9.897 4.072,10.02 3.972,9.992 3.935,9.982 3.925,9.955 3.896,9.935 3.865,9.915 3.832,9.9 3.801,9.878 3.541,9.7 3.167,9.682 3.027,9.355 2.992,9.274 2.976,9.184 2.946,9.101 2.917,9.018 2.858,8.961 2.807,8.891 2.725,8.781 2.632,8.647 2.577,8.521 2.529,8.411 2.454,8.301 2.438,8.183 2.431,8.138 2.44,8.123 2.441,8.08 2.442,8.006 2.395,7.942 2.392,7.87 2.386,7.752 2.447,7.657 2.49,7.553 2.533,7.447 2.565,7.34 2.623,7.243 2.688,7.131 2.714,6.985 2.714,6.856 2.715,6.786 2.711,6.724 2.696,6.656 2.676,6.56 2.699,6.509 2.767,6.435 2.834,6.363 2.912,6.33 2.965,6.251 2.975,6.237 2.986,6.223 2.996,6.209 2.963,6.18 2.932,6.148 2.898,6.119 2.785,6.023 2.669,5.929 2.553,5.834 2.522,5.882 2.494,5.934 2.46,5.979 2.436,6.01 2.404,6.055 2.369,6.077 2.303,6.12 2.184,6.097 2.122,6.148 2.09,6.174 2.049,6.225 2.03,6.258 1.994,6.317 2.001,6.4 1.961,6.456 1.928,6.503 1.842,6.563 1.856,6.491 1.825,6.527 1.628,6.315 1.61,6.299 1.555,6.25 1.487,6.213 1.486,6.145 1.486,6.104 1.512,6.083 1.534,6.056 1.563,6.019 1.575,5.976 1.602,5.938 1.67,5.841 1.799,5.838 1.874,5.756 1.949,5.672 2.041,5.609 2.117,5.525 L 2.147,5.492 C 2.139,5.485 2.13,5.478 2.122,5.471 1.985,5.349 1.856,5.217 1.727,5.086 1.707,5.119 1.688,5.153 1.665,5.183 1.64,5.215 1.608,5.26 1.574,5.281 1.507,5.324 1.389,5.301 1.326,5.352 1.294,5.378 1.254,5.429 1.234,5.462 1.198,5.522 1.205,5.604 1.165,5.66 1.132,5.707 1.046,5.768 1.06,5.695 1.029,5.731 0.833,5.519 0.814,5.503 0.76,5.454 0.691,5.417 0.691,5.349 0.69,5.308 0.716,5.287 0.738,5.26 0.768,5.223 0.78,5.18 0.806,5.143 0.874,5.045 1.004,5.042 1.078,4.96 1.154,4.877 1.246,4.813 1.321,4.729 1.329,4.72 1.336,4.712 1.344,4.704 1.24,4.604 1.135,4.503 1.03,4.405 1.012,4.435 0.994,4.465 0.974,4.492 0.949,4.523 0.917,4.568 0.883,4.59 0.815,4.633 0.697,4.61 0.635,4.661 0.603,4.687 0.563,4.738 0.543,4.771 0.507,4.831 0.514,4.913 0.474,4.969 0.441,5.016 0.355,5.076 0.369,5.004 0.338,5.04 0.141,4.828 0.123,4.812 0.069,4.763 0,4.726 -0.001,4.658 -0.001,4.617 0.025,4.596 0.047,4.569 0.077,4.532 0.089,4.489 0.115,4.451 0.183,4.354 0.313,4.351 0.387,4.269 0.462,4.185 0.554,4.122 0.63,4.038 0.632,4.035 0.634,4.033 0.637,4.031 0.603,3.997 0.569,3.963 0.537,3.928 0.39,3.77 0.271,3.587 0.129,3.424 -0.076,3.189 -0.234,3.003 -0.371,2.848 -0.429,2.91 -0.485,2.945 -0.572,2.999 -0.666,3.058 -0.676,3.058 -0.754,3.087 -0.793,3.102 -0.817,3.115 -0.852,3.142 -0.936,3.208 -1.026,3.196 -1.131,3.216 -1.21,3.231 -1.261,3.423 -1.34,3.408 -1.426,3.392 -1.516,3.388 -1.606,3.384 c -0.005,0.06 -0.009,0.119 -0.012,0.179 -0.011,0.263 -0.016,0.526 -0.039,0.79 -0.013,0.165 -0.035,0.327 -0.049,0.491 0.037,0.003 0.074,0.008 0.113,0.014 0.097,0.014 0.195,0.006 0.291,0.024 0.045,0.009 0.069,0.017 0.112,-0.005 0.035,-0.018 0.056,-0.045 0.096,-0.047 0.099,-0.006 0.097,0.096 0.147,0.177 0.042,-0.029 0.069,-0.041 0.115,-0.004 0.014,0.011 0.023,0.033 0.038,0.044 0.033,0.026 0.071,0.022 0.106,0.034 -0.03,0.078 -0.034,0.146 -0.029,0.235 0.002,0.037 -0.001,0.081 0.008,0.116 0.012,0.048 0.06,0.088 0.047,0.145 C -0.777,5.51 -0.903,5.518 -1.026,5.485 -1.105,5.463 -1.183,5.473 -1.263,5.478 -1.348,5.484 -1.438,5.491 -1.521,5.459 -1.589,5.433 -1.654,5.421 -1.724,5.424 c 0,0.133 0,0.265 10e-4,0.397 0.043,0.003 0.085,0.007 0.13,0.014 0.097,0.015 0.195,0.006 0.291,0.025 0.045,0.008 0.069,0.017 0.112,-0.006 0.035,-0.018 0.056,-0.045 0.096,-0.047 0.099,-0.005 0.097,0.097 0.147,0.177 0.042,-0.029 0.069,-0.04 0.115,-0.004 0.014,0.012 0.023,0.034 0.038,0.045 0.033,0.025 0.071,0.021 0.106,0.033 -0.03,0.078 -0.034,0.147 -0.029,0.235 0.002,0.038 -0.001,0.081 0.008,0.116 0.012,0.049 0.06,0.089 0.047,0.145 C -0.777,6.488 -0.903,6.496 -1.026,6.462 -1.105,6.441 -1.183,6.451 -1.263,6.456 -1.348,6.461 -1.438,6.468 -1.521,6.437 -1.595,6.409 -1.664,6.394 -1.741,6.401 c -0.013,0.182 -0.03,0.363 -0.046,0.545 0.066,-10e-4 0.127,0.004 0.194,0.015 0.097,0.014 0.195,0.006 0.291,0.024 0.045,0.009 0.069,0.017 0.112,-0.005 0.035,-0.018 0.056,-0.045 0.096,-0.048 0.099,-0.005 0.097,0.097 0.147,0.177 0.042,-0.029 0.069,-0.04 0.115,-0.003 0.014,0.011 0.023,0.033 0.038,0.044 0.033,0.026 0.071,0.021 0.106,0.034 -0.03,0.077 -0.034,0.146 -0.029,0.235 0.002,0.037 -0.001,0.08 0.008,0.116 0.012,0.048 0.06,0.088 0.047,0.145 C -0.777,7.613 -0.903,7.621 -1.026,7.588 -1.105,7.566 -1.183,7.576 -1.263,7.581 -1.348,7.587 -1.438,7.594 -1.521,7.562 -1.595,7.534 -1.665,7.519 -1.743,7.526 c -0.032,0.003 -0.063,0.01 -0.095,0.016 -0.013,0.147 -0.024,0.294 -0.032,0.441 0.004,0.023 0.007,0.047 0.011,0.069 0.03,0 0.061,-10e-4 0.091,-0.002 0.136,-0.002 0.257,0.094 0.392,0.12 0.07,0.014 0.13,0.014 0.2,0.015 0.049,0 0.093,0.016 0.142,0.026 0.087,0.02 0.179,0.025 0.262,0.06 0.176,0.074 0.31,0.203 0.43,0.346 0.066,0.079 0.155,0.137 0.225,0.213 0.059,0.063 0.118,0.125 0.182,0.184 0.139,0.127 0.312,0.241 0.399,0.414 0.094,0.189 0.056,0.437 0.059,0.642 0.002,0.194 -0.029,0.386 -0.027,0.581 0.001,0.087 0.005,0.177 -0.006,0.264 -0.001,-0.002 -0.002,-0.004 -0.004,-0.006 0,0.018 -0.002,0.034 -0.004,0.05 0.003,-0.014 0.006,-0.029 0.008,-0.044 0.005,0.01 0.008,0.021 0.008,0.032 0,0.019 -0.01,0.039 -0.021,0.058 -0.005,0.029 -0.011,0.058 -0.016,0.09 -0.024,0.154 -0.171,0.254 -0.293,0.343 -0.043,0.032 -0.084,0.07 -0.119,0.109 -0.061,0.065 -0.055,0.062 -0.146,-0.016 0.076,-0.076 0.123,-0.156 0.154,-0.262 C 0.083,11.177 0.129,11.096 0.142,11 0.154,10.919 0.175,10.841 0.189,10.76 0.205,10.664 0.193,10.565 0.201,10.468 0.204,10.428 0.208,10.388 0.212,10.348 0.121,10.14 0.02,9.944 -0.119,9.759 -0.201,9.651 -0.268,9.512 -0.364,9.419 -0.508,9.28 -0.682,9.155 -0.851,9.05 -0.96,8.982 -1.073,8.945 -1.188,8.89 -1.289,8.842 -1.364,8.812 -1.476,8.802 -1.549,8.796 -1.607,8.796 -1.675,8.771 -1.72,8.754 -1.761,8.734 -1.805,8.721 c 0.024,0.188 0.052,0.376 0.063,0.564 0.007,0.14 0.013,0.292 -0.013,0.43 -0.042,0.216 -0.031,0.429 -0.075,0.643 -0.051,0.246 -0.012,0.506 -0.05,0.755 -0.009,0.065 -0.012,0.129 -0.02,0.194 -0.013,0.106 -0.06,0.211 -0.084,0.316 -0.05,0.212 -0.103,0.434 -0.105,0.651 -0.106,0 -0.096,-0.215 -0.107,-0.427 -0.004,-0.074 -0.019,-0.145 -0.032,-0.217 0,0.024 0,0.049 0,0.073 0,0.031 0,0.061 -10e-4,0.092 C -2.251,11.724 -2.28,11.653 -2.3,11.586 -2.356,11.398 -2.39,11.227 -2.387,11.031 -2.386,10.917 -2.382,10.806 -2.4,10.693 -2.417,10.594 -2.413,10.497 -2.413,10.397 -2.414,10.178 -2.421,9.957 -2.411,9.739 -2.401,9.489 -2.355,9.243 -2.339,8.994 -2.334,8.918 -2.334,8.84 -2.332,8.763 -2.433,8.779 -2.531,8.806 -2.625,8.848 -2.63,8.849 -2.636,8.851 -2.642,8.852 -2.689,8.856 -2.71,8.841 -2.75,8.871 -2.798,8.907 -2.795,8.981 -2.826,9.021 -2.876,9.084 -2.981,8.997 -3.044,9.012 -3.114,9.029 -3.176,9.113 -3.219,9.171 -3.247,9.21 -3.268,9.229 -3.311,9.259 -3.388,9.311 -3.483,9.37 -3.545,9.44 c -0.063,0.071 -0.096,0.159 -0.153,0.233 -0.1,0.129 -0.258,0.213 -0.336,0.359 -0.023,0.042 -0.042,0.091 -0.063,0.135 -0.075,0.153 -0.08,0.295 -0.082,0.468 -0.004,0.263 0.001,0.527 0.001,0.79 -0.002,0.039 -0.096,0.117 -0.148,0.027 -0.018,-0.033 -0.006,-0.059 -0.013,-0.094 -0.007,-0.036 -0.02,-0.07 -0.027,-0.108 -0.057,-0.309 -0.309,-0.587 -0.177,-0.917 0.033,-0.082 0.085,-0.157 0.123,-0.236 0.037,-0.08 0.036,-0.162 0.049,-0.247 0.021,-0.136 0.049,-0.297 0.099,-0.425 0.045,-0.112 0.069,-0.242 0.141,-0.337 0.027,-0.036 0.044,-0.041 0.075,-0.071 0.053,-0.051 0.065,-0.129 0.114,-0.184 0.08,-0.087 0.19,-0.11 0.294,-0.154 0.105,-0.044 0.203,-0.097 0.313,-0.125 0.125,-0.033 0.247,-0.118 0.338,-0.209 0.05,-0.049 0.091,-0.095 0.129,-0.154 0.053,-0.082 0.106,-0.102 0.207,-0.106 0.097,-0.004 0.175,0.028 0.269,0.01 C -2.375,8.091 -2.357,8.09 -2.34,8.087 -2.343,8.043 -2.342,7.998 -2.346,7.954 -2.358,7.806 -2.373,7.657 -2.388,7.509 -2.445,7.52 -2.501,7.538 -2.556,7.545 -2.596,7.551 -2.65,7.559 -2.69,7.551 -2.767,7.533 -2.835,7.434 -2.915,7.425 -2.956,7.421 -3.021,7.429 -3.058,7.438 -3.126,7.455 -3.179,7.518 -3.247,7.53 -3.303,7.54 -3.407,7.522 -3.345,7.48 -3.393,7.483 -3.382,7.195 -3.384,7.17 -3.388,7.097 -3.41,7.022 -3.362,6.974 -3.333,6.945 -3.3,6.948 -3.266,6.944 -3.219,6.939 -3.18,6.917 -3.135,6.91 c 0.117,-0.021 0.211,0.069 0.322,0.063 0.112,-0.006 0.222,0.014 0.335,0.008 0.015,0 0.03,-10e-4 0.044,-0.002 0,-0.011 -0.002,-0.021 -0.002,-0.032 C -2.447,6.764 -2.445,6.58 -2.443,6.395 -2.481,6.405 -2.519,6.415 -2.556,6.42 -2.596,6.425 -2.65,6.434 -2.69,6.425 -2.767,6.408 -2.835,6.308 -2.915,6.3 -2.956,6.296 -3.021,6.303 -3.058,6.313 -3.126,6.329 -3.179,6.393 -3.247,6.405 -3.303,6.414 -3.407,6.396 -3.345,6.354 -3.393,6.358 -3.382,6.069 -3.384,6.045 -3.388,5.972 -3.41,5.897 -3.362,5.849 -3.333,5.819 -3.3,5.823 -3.266,5.819 -3.219,5.814 -3.18,5.792 -3.135,5.784 c 0.117,-0.02 0.211,0.069 0.322,0.063 0.112,-0.005 0.222,0.015 0.335,0.009 C -2.467,5.855 -2.455,5.855 -2.444,5.854 -2.447,5.71 -2.45,5.565 -2.455,5.421 -2.489,5.429 -2.523,5.438 -2.556,5.442 -2.596,5.448 -2.65,5.457 -2.69,5.448 -2.767,5.43 -2.835,5.331 -2.915,5.323 -2.956,5.318 -3.021,5.326 -3.058,5.335 -3.126,5.352 -3.179,5.415 -3.247,5.427 -3.303,5.437 -3.407,5.419 -3.345,5.377 -3.393,5.381 -3.382,5.092 -3.384,5.068 -3.388,4.995 -3.41,4.92 -3.362,4.871 -3.333,4.842 -3.3,4.845 -3.266,4.842 -3.219,4.837 -3.18,4.815 -3.135,4.807 c 0.117,-0.021 0.211,0.069 0.322,0.063 0.112,-0.005 0.222,0.015 0.335,0.008 0.003,0 0.007,0 0.01,0 0,-0.048 -10e-4,-0.095 10e-4,-0.143 C -2.458,4.519 -2.413,4.306 -2.399,4.09 -2.378,3.787 -2.347,3.483 -2.337,3.179 -2.341,3.176 -2.346,3.174 -2.35,3.171 -2.465,3.168 -2.58,3.162 -2.693,3.15 -2.744,3.144 -2.776,3.111 -2.822,3.095 -2.86,3.081 -2.904,3.079 -2.944,3.063 -3.05,3.021 -3.171,2.974 -3.272,2.942 -3.314,2.929 -3.356,2.921 -3.398,2.911 -3.466,2.97 -3.535,3.028 -3.6,3.088 c -0.195,0.178 -0.384,0.36 -0.586,0.531 -0.127,0.107 -0.257,0.206 -0.383,0.312 0.024,0.029 0.047,0.058 0.071,0.09 0.058,0.079 0.133,0.143 0.188,0.223 0.026,0.038 0.036,0.061 0.083,0.076 0.037,0.011 0.072,0.007 0.101,0.034 0.074,0.066 0,0.137 -0.021,0.229 0.05,0.009 0.078,0.02 0.084,0.079 0.002,0.018 -0.007,0.04 -0.005,0.058 0.005,0.041 0.036,0.065 0.052,0.099 -0.076,0.033 -0.127,0.079 -0.187,0.145 -0.025,0.028 -0.058,0.057 -0.076,0.088 -0.026,0.043 -0.02,0.105 -0.07,0.136 C -4.383,5.059 -4.477,4.977 -4.541,4.866 -4.581,4.794 -4.644,4.746 -4.704,4.693 -4.768,4.637 -4.836,4.578 -4.873,4.498 -4.903,4.431 -4.94,4.377 -4.992,4.329 c -0.093,0.094 -0.187,0.187 -0.28,0.281 0.029,0.032 0.056,0.065 0.083,0.102 0.058,0.079 0.133,0.143 0.188,0.223 0.025,0.038 0.036,0.061 0.083,0.076 0.037,0.012 0.071,0.008 0.101,0.034 0.074,0.067 0,0.137 -0.021,0.229 0.05,0.01 0.078,0.021 0.084,0.079 0.002,0.018 -0.007,0.04 -0.005,0.058 0.005,0.041 0.036,0.066 0.052,0.099 C -4.784,5.544 -4.835,5.59 -4.894,5.656 -4.919,5.683 -4.952,5.712 -4.97,5.743 -4.996,5.786 -4.99,5.849 -5.04,5.879 -5.074,5.75 -5.168,5.668 -5.232,5.557 -5.272,5.486 -5.335,5.437 -5.395,5.384 -5.459,5.328 -5.528,5.27 -5.564,5.189 -5.596,5.117 -5.635,5.057 -5.695,5.007 c -0.137,0.12 -0.277,0.236 -0.417,0.354 0.048,0.045 0.087,0.092 0.127,0.147 0.058,0.079 0.133,0.142 0.188,0.223 0.026,0.038 0.037,0.061 0.083,0.076 0.037,0.011 0.072,0.007 0.101,0.034 0.074,0.067 0,0.137 -0.021,0.229 0.05,0.009 0.078,0.02 0.084,0.078 0.002,0.019 -0.007,0.041 -0.005,0.059 0.006,0.041 0.036,0.065 0.052,0.099 C -5.579,6.339 -5.63,6.385 -5.69,6.451 -5.715,6.479 -5.748,6.507 -5.766,6.539 -5.792,6.582 -5.786,6.644 -5.835,6.675 -5.87,6.546 -5.964,6.463 -6.028,6.352 -6.068,6.281 -6.131,6.233 -6.191,6.18 -6.255,6.124 -6.323,6.065 -6.359,5.985 -6.392,5.912 -6.431,5.852 -6.492,5.802 -6.516,5.781 -6.543,5.764 -6.57,5.746 c -0.113,0.095 -0.224,0.191 -0.334,0.289 -0.014,0.019 -0.028,0.038 -0.041,0.057 0.022,0.021 0.043,0.042 0.065,0.063 0.099,0.094 0.116,0.248 0.192,0.362 0.04,0.059 0.084,0.102 0.132,0.151 0.034,0.036 0.055,0.078 0.081,0.119 0.048,0.076 0.11,0.145 0.144,0.228 0.072,0.177 0.076,0.363 0.059,0.549 -0.009,0.102 0.013,0.207 0.009,0.31 -0.004,0.086 -0.005,0.172 -0.002,0.258 0.009,0.189 0.05,0.391 -0.011,0.575 C -6.343,8.908 -6.544,9.056 -6.688,9.203 -6.823,9.342 -6.981,9.455 -7.117,9.594 -7.179,9.657 -7.239,9.723 -7.309,9.777 -7.308,9.775 -7.307,9.773 -7.307,9.77 -7.319,9.783 -7.333,9.792 -7.346,9.803 -7.333,9.794 -7.32,9.786 -7.309,9.777 -7.312,9.788 -7.317,9.798 -7.325,9.805 -7.339,9.819 -7.36,9.826 -7.381,9.832 -7.406,9.849 -7.431,9.865 -7.457,9.884 -7.583,9.976 -7.757,9.942 -7.906,9.92 -7.959,9.911 -8.015,9.91 -8.067,9.912 -8.156,9.915 -8.15,9.917 -8.159,9.797 -8.052,9.798 -7.961,9.775 -7.865,9.721 -7.782,9.675 -7.692,9.65 -7.614,9.591 -7.549,9.542 -7.479,9.502 -7.412,9.455 -7.333,9.398 -7.271,9.32 -7.197,9.257 -7.167,9.23 -7.135,9.205 -7.104,9.18 -7.022,8.968 -6.955,8.758 -6.922,8.529 -6.903,8.394 -6.852,8.25 -6.855,8.115 -6.859,7.915 -6.893,7.704 -6.938,7.511 -6.967,7.385 -7.021,7.279 -7.063,7.158 -7.1,7.053 -7.132,6.979 -7.205,6.893 -7.252,6.837 -7.293,6.796 -7.323,6.73 -7.343,6.687 -7.358,6.643 -7.381,6.603 -7.496,6.753 -7.609,6.906 -7.735,7.046 -7.828,7.15 -7.931,7.262 -8.047,7.341 -8.23,7.464 -8.372,7.622 -8.556,7.743 -8.765,7.88 -8.922,8.092 -9.124,8.242 -9.177,8.281 -9.225,8.324 -9.276,8.364 -9.36,8.43 -9.467,8.471 -9.559,8.528 c -0.185,0.115 -0.379,0.235 -0.534,0.387 -0.075,-0.076 0.084,-0.22 0.226,-0.378 0.05,-0.056 0.089,-0.116 0.131,-0.176 -0.017,0.017 -0.034,0.035 -0.051,0.052 -0.022,0.021 -0.044,0.042 -0.066,0.064 0.034,-0.066 0.064,-0.137 0.098,-0.198 0.092,-0.173 0.19,-0.318 0.33,-0.454 0.082,-0.08 0.163,-0.156 0.23,-0.248 0.058,-0.082 0.129,-0.148 0.2,-0.219 C -8.841,7.203 -8.69,7.042 -8.528,6.894 -8.344,6.725 -8.138,6.583 -7.95,6.419 -7.893,6.369 -7.839,6.313 -7.782,6.26 -7.865,6.2 -7.954,6.149 -8.049,6.113 -8.054,6.11 -8.06,6.107 -8.065,6.104 -8.1,6.074 -8.104,6.048 -8.155,6.041 -8.214,6.032 -8.264,6.087 -8.314,6.093 -8.394,6.103 -8.407,5.966 -8.462,5.932 -8.523,5.895 -8.627,5.911 -8.698,5.922 -8.746,5.929 -8.774,5.927 -8.825,5.918 -8.916,5.901 -9.026,5.875 -9.119,5.881 c -0.094,0.006 -0.18,0.045 -0.273,0.057 -0.162,0.02 -0.333,-0.033 -0.491,0.015 -0.047,0.014 -0.094,0.036 -0.14,0.051 -0.162,0.056 -0.265,0.152 -0.39,0.274 -0.188,0.183 -0.371,0.373 -0.556,0.559 -0.029,0.026 -0.152,0.015 -0.124,-0.085 0.01,-0.037 0.037,-0.047 0.056,-0.076 0.021,-0.031 0.036,-0.064 0.058,-0.095 0.179,-0.26 0.197,-0.634 0.523,-0.774 0.081,-0.035 0.171,-0.051 0.254,-0.081 0.083,-0.029 0.14,-0.088 0.209,-0.139 0.111,-0.082 0.245,-0.176 0.371,-0.23 0.11,-0.048 0.22,-0.123 0.338,-0.139 0.045,-0.007 0.06,0.002 0.103,0.003 0.074,0.001 0.138,-0.046 0.21,-0.049 0.118,-0.006 0.213,0.055 0.317,0.098 0.106,0.043 0.213,0.075 0.31,0.133 0.112,0.065 0.258,0.091 0.387,0.092 0.07,0 0.132,-0.004 0.2,-0.018 0.096,-0.021 0.147,0.002 0.221,0.07 0.072,0.067 0.105,0.144 0.184,0.198 0.015,0.01 0.028,0.021 0.042,0.031 C -7.281,5.743 -7.249,5.712 -7.221,5.678 -7.124,5.565 -7.03,5.449 -6.935,5.333 -6.983,5.302 -7.035,5.274 -7.08,5.24 -7.111,5.216 -7.156,5.184 -7.178,5.149 -7.221,5.082 -7.198,4.964 -7.249,4.902 -7.275,4.87 -7.326,4.83 -7.359,4.81 -7.418,4.774 -7.501,4.781 -7.557,4.741 -7.604,4.708 -7.664,4.622 -7.592,4.636 -7.628,4.605 -7.416,4.408 -7.4,4.39 c 0.049,-0.055 0.086,-0.123 0.154,-0.124 0.041,0 0.062,0.026 0.089,0.048 0.037,0.029 0.08,0.041 0.118,0.068 0.097,0.068 0.1,0.197 0.182,0.272 0.084,0.075 0.147,0.167 0.231,0.243 0.011,0.01 0.022,0.02 0.033,0.03 C -6.586,4.919 -6.579,4.91 -6.572,4.902 -6.45,4.765 -6.319,4.636 -6.187,4.507 -6.22,4.487 -6.254,4.468 -6.284,4.445 -6.316,4.42 -6.361,4.388 -6.382,4.354 -6.425,4.287 -6.402,4.169 -6.453,4.106 -6.479,4.074 -6.53,4.034 -6.563,4.014 -6.623,3.978 -6.705,3.985 -6.761,3.945 -6.808,3.912 -6.869,3.826 -6.796,3.84 -6.832,3.809 -6.621,3.613 -6.604,3.594 -6.556,3.54 -6.518,3.471 -6.45,3.471 c 0.041,-10e-4 0.062,0.025 0.089,0.047 0.037,0.03 0.08,0.041 0.117,0.068 0.098,0.068 0.1,0.198 0.183,0.272 0.083,0.076 0.147,0.167 0.231,0.243 0.008,0.008 0.017,0.015 0.025,0.023 0.1,-0.104 0.2,-0.209 0.299,-0.314 C -5.536,3.792 -5.566,3.774 -5.593,3.754 -5.625,3.729 -5.669,3.697 -5.691,3.662 -5.734,3.595 -5.711,3.477 -5.762,3.415 -5.788,3.383 -5.839,3.343 -5.872,3.323 -5.932,3.287 -6.014,3.294 -6.07,3.254 -6.117,3.221 -6.177,3.135 -6.105,3.149 -6.141,3.118 -5.929,2.921 -5.913,2.903 -5.864,2.848 -5.827,2.78 -5.759,2.779 c 0.041,0 0.062,0.026 0.089,0.048 0.037,0.03 0.08,0.041 0.118,0.068 0.097,0.068 0.1,0.197 0.182,0.272 0.084,0.075 0.147,0.167 0.231,0.243 0.003,0.002 0.005,0.004 0.007,0.007 0.034,-0.034 0.068,-0.068 0.103,-0.1 C -4.87,3.17 -4.688,3.051 -4.525,2.909 -4.321,2.731 -4.154,2.589 -4.012,2.465 -4.105,2.395 -4.197,2.292 -4.25,2.195 -4.291,2.12 -4.305,2.035 -4.327,1.953 -4.357,1.839 -4.584,1.734 -4.61,1.619 -4.64,1.489 -4.61,1.391 -4.601,1.27 -4.708,1.262 -4.815,1.252 -4.921,1.248 -5.185,1.236 -5.447,1.232 -5.711,1.209 -5.876,1.195 -6.038,1.174 -6.203,1.159 -6.205,1.197 -6.21,1.234 -6.216,1.273 c -0.015,0.096 -0.006,0.195 -0.025,0.29 -0.008,0.045 -0.017,0.069 0.006,0.113 0.018,0.034 0.045,0.056 0.047,0.096 0.005,0.099 -0.097,0.096 -0.177,0.146 0.029,0.043 0.041,0.07 0.004,0.115 C -6.373,2.048 -6.395,2.057 -6.406,2.072 -6.431,2.104 -6.427,2.143 -6.439,2.178 -6.517,2.148 -6.586,2.144 -6.674,2.149 -6.712,2.151 -6.755,2.147 -6.79,2.157 -6.838,2.169 -6.879,2.217 -6.935,2.203 -6.869,2.088 -6.877,1.963 -6.843,1.84 -6.822,1.761 -6.832,1.682 -6.837,1.603 -6.842,1.517 -6.849,1.428 -6.818,1.345 -6.792,1.277 -6.78,1.212 -6.783,1.142 c -0.132,-10e-4 -0.264,0 -0.397,0.001 -0.002,0.042 -0.007,0.085 -0.013,0.13 -0.015,0.096 -0.007,0.195 -0.025,0.29 -0.009,0.045 -0.017,0.069 0.005,0.113 0.018,0.034 0.045,0.056 0.048,0.096 0.005,0.099 -0.097,0.096 -0.177,0.146 0.029,0.043 0.04,0.07 0.003,0.115 C -7.35,2.048 -7.372,2.057 -7.383,2.072 -7.409,2.104 -7.404,2.143 -7.417,2.178 -7.494,2.148 -7.563,2.144 -7.652,2.149 -7.689,2.151 -7.732,2.147 -7.768,2.157 -7.816,2.169 -7.856,2.217 -7.913,2.203 -7.846,2.088 -7.854,1.963 -7.82,1.84 -7.799,1.761 -7.809,1.682 -7.814,1.603 -7.82,1.517 -7.827,1.428 -7.795,1.345 -7.767,1.271 -7.753,1.202 -7.759,1.124 -7.941,1.111 -8.122,1.095 -8.305,1.079 c 0.002,0.066 -0.004,0.127 -0.014,0.194 -0.015,0.096 -0.006,0.195 -0.024,0.29 -0.009,0.045 -0.017,0.069 0.005,0.113 0.018,0.034 0.045,0.056 0.047,0.096 0.006,0.099 -0.097,0.096 -0.177,0.146 0.029,0.043 0.041,0.07 0.004,0.115 C -8.476,2.048 -8.497,2.057 -8.509,2.072 -8.534,2.104 -8.53,2.143 -8.542,2.178 -8.62,2.148 -8.688,2.144 -8.777,2.149 -8.814,2.151 -8.858,2.147 -8.893,2.157 -8.941,2.169 -8.981,2.217 -9.038,2.203 -8.971,2.088 -8.979,1.963 -8.946,1.84 -8.924,1.761 -8.934,1.682 -8.939,1.603 -8.945,1.517 -8.952,1.428 -8.921,1.345 -8.892,1.27 -8.878,1.201 -8.885,1.122 -8.888,1.091 -8.894,1.059 -8.901,1.028 -9.048,1.015 -9.194,1.004 -9.341,0.996 c -0.024,0.003 -0.047,0.007 -0.07,0.011 10e-4,0.03 0.002,0.06 0.002,0.091 0.003,0.136 -0.093,0.257 -0.12,0.391 -0.014,0.071 -0.013,0.131 -0.014,0.2 -0.001,0.05 -0.016,0.094 -0.027,0.142 -0.019,0.088 -0.025,0.18 -0.059,0.263 -0.074,0.176 -0.203,0.31 -0.346,0.429 -0.079,0.067 -0.137,0.156 -0.214,0.226 -0.063,0.058 -0.125,0.118 -0.183,0.182 -0.127,0.139 -0.241,0.312 -0.415,0.398 -0.189,0.095 -0.436,0.057 -0.642,0.06 -0.193,0.002 -0.385,-0.029 -0.58,-0.027 -0.087,0 -0.177,0.005 -0.265,-0.006 0.003,-10e-4 0.005,-0.003 0.007,-0.004 -0.018,0 -0.034,-0.003 -0.051,-0.005 0.015,0.003 0.03,0.007 0.044,0.009 -0.01,0.005 -0.02,0.008 -0.031,0.008 -0.02,0 -0.039,-0.01 -0.059,-0.021 -0.029,-0.005 -0.058,-0.012 -0.09,-0.017 -0.154,-0.024 -0.253,-0.171 -0.342,-0.292 -0.032,-0.043 -0.071,-0.084 -0.109,-0.12 -0.065,-0.06 -0.062,-0.054 0.016,-0.146 0.076,0.076 0.156,0.124 0.262,0.155 0.091,0.026 0.173,0.072 0.269,0.085 0.081,0.011 0.158,0.033 0.24,0.047 0.095,0.016 0.195,0.004 0.291,0.011 0.041,0.003 0.081,0.008 0.12,0.012 0.209,-0.092 0.405,-0.193 0.589,-0.331 0.109,-0.082 0.247,-0.149 0.341,-0.246 0.138,-0.144 0.264,-0.317 0.368,-0.486 0.068,-0.109 0.106,-0.222 0.161,-0.338 0.048,-0.1 0.078,-0.175 0.088,-0.288 0.006,-0.072 0.005,-0.13 0.031,-0.198 0.016,-0.045 0.037,-0.086 0.049,-0.131 -0.187,0.025 -0.375,0.053 -0.564,0.063 -0.139,0.008 -0.292,0.014 -0.429,-0.013 -0.216,-0.042 -0.429,-0.03 -0.644,-0.075 -0.245,-0.051 -0.506,-0.012 -0.755,-0.049 -0.064,-0.01 -0.129,-0.013 -0.193,-0.02 -0.106,-0.013 -0.211,-0.06 -0.316,-0.085 -0.212,-0.049 -0.435,-0.102 -0.652,-0.104 10e-4,-0.106 0.216,-0.096 0.428,-0.107 0.074,-0.004 0.145,-0.019 0.216,-0.032 -0.024,0 -0.048,0 -0.072,0 -0.031,0 -0.062,-0.001 -0.092,-0.001 0.071,-0.022 0.142,-0.051 0.209,-0.071 0.188,-0.057 0.359,-0.09 0.555,-0.088 0.114,0.002 0.225,0.006 0.338,-0.012 0.099,-0.017 0.196,-0.014 0.296,-0.014 0.219,0 0.439,-0.007 0.658,0.002 0.249,0.011 0.496,0.057 0.745,0.073 0.075,0.005 0.154,0.004 0.231,0.007 -0.016,-0.102 -0.043,-0.2 -0.085,-0.293 -0.002,-0.006 -0.003,-0.011 -0.005,-0.017 -0.003,-0.047 0.012,-0.068 -0.018,-0.109 -0.037,-0.047 -0.111,-0.044 -0.151,-0.076 -0.063,-0.049 0.025,-0.155 0.01,-0.218 -0.017,-0.07 -0.102,-0.131 -0.16,-0.174 -0.039,-0.029 -0.057,-0.05 -0.087,-0.093 -0.053,-0.076 -0.111,-0.171 -0.181,-0.233 -0.071,-0.063 -0.16,-0.096 -0.234,-0.154 -0.129,-0.099 -0.212,-0.258 -0.358,-0.336 -0.043,-0.023 -0.091,-0.041 -0.135,-0.062 -0.154,-0.075 -0.295,-0.08 -0.469,-0.083 -0.263,-0.003 -0.526,0.002 -0.789,0.002 -0.039,-0.002 -0.117,-0.097 -0.027,-0.148 0.033,-0.018 0.059,-0.006 0.093,-0.013 0.037,-0.008 0.071,-0.02 0.109,-0.027 0.309,-0.057 0.587,-0.309 0.917,-0.177 0.081,0.032 0.156,0.085 0.236,0.122 0.08,0.038 0.161,0.037 0.247,0.05 0.136,0.021 0.297,0.049 0.424,0.099 0.113,0.044 0.243,0.069 0.338,0.141 0.036,0.027 0.041,0.043 0.071,0.075 0.051,0.053 0.129,0.065 0.183,0.114 0.087,0.079 0.111,0.19 0.155,0.294 0.044,0.105 0.097,0.203 0.125,0.313 0.032,0.125 0.117,0.247 0.209,0.338 0.049,0.05 0.095,0.091 0.154,0.129 0.082,0.053 0.102,0.106 0.106,0.206 0.004,0.098 -0.028,0.176 -0.01,0.27 0.003,0.017 0.005,0.034 0.008,0.051 C -9.401,0.523 -9.356,0.523 -9.313,0.52 -9.164,0.508 -9.016,0.492 -8.867,0.477 -8.879,0.421 -8.896,0.365 -8.903,0.31 -8.909,0.27 -8.918,0.215 -8.909,0.175 -8.891,0.098 -8.792,0.031 -8.784,-0.049 -8.78,-0.09 -8.787,-0.155 -8.796,-0.192 -8.813,-0.26 -8.877,-0.313 -8.888,-0.381 c -0.01,-0.057 0.008,-0.16 0.05,-0.099 -0.004,-0.048 0.285,-0.037 0.309,-0.038 0.073,-0.004 0.148,-0.027 0.197,0.021 0.029,0.029 0.025,0.062 0.029,0.097 0.005,0.047 0.027,0.086 0.035,0.131 0.021,0.117 -0.069,0.211 -0.063,0.321 0.005,0.113 -0.015,0.223 -0.009,0.336 10e-4,0.015 0.002,0.029 0.003,0.044 0.01,0 0.021,-0.002 0.031,-0.002 C -8.122,0.419 -7.938,0.42 -7.754,0.423 -7.763,0.385 -7.773,0.347 -7.778,0.31 -7.783,0.27 -7.793,0.215 -7.783,0.175 c 0.017,-0.077 0.116,-0.144 0.125,-0.224 0.004,-0.041 -0.004,-0.106 -0.013,-0.143 -0.017,-0.068 -0.08,-0.121 -0.092,-0.189 -0.009,-0.057 0.009,-0.16 0.05,-0.099 -0.003,-0.048 0.285,-0.037 0.31,-0.038 0.073,-0.004 0.148,-0.027 0.196,0.021 0.029,0.029 0.026,0.062 0.03,0.097 0.005,0.047 0.027,0.086 0.035,0.131 0.02,0.117 -0.069,0.211 -0.064,0.321 0.006,0.113 -0.014,0.223 -0.008,0.336 0,0.011 0.001,0.022 0.002,0.033 0.144,-0.002 0.289,-0.005 0.433,-0.01 C -6.788,0.377 -6.796,0.343 -6.801,0.31 -6.806,0.27 -6.815,0.215 -6.806,0.175 c 0.017,-0.077 0.117,-0.144 0.125,-0.224 0.004,-0.041 -0.003,-0.106 -0.013,-0.143 -0.016,-0.068 -0.08,-0.121 -0.091,-0.189 -0.01,-0.057 0.008,-0.16 0.05,-0.099 -0.004,-0.048 0.285,-0.037 0.309,-0.038 0.073,-0.004 0.148,-0.027 0.196,0.021 0.03,0.029 0.026,0.062 0.03,0.097 0.005,0.047 0.027,0.086 0.035,0.131 0.021,0.117 -0.069,0.211 -0.063,0.321 0.005,0.113 -0.015,0.223 -0.009,0.336 0,0.003 0.001,0.006 0.001,0.009 0.047,0 0.095,0 0.142,0.002 0.216,0.009 0.43,0.053 0.645,0.068 0.264,0.018 0.529,0.044 0.793,0.058 0.002,-0.088 0.004,-0.175 0.004,-0.262 -0.004,-0.348 0.133,-0.677 0.3,-0.976 0.033,-0.06 0.07,-0.111 0.116,-0.159 -0.163,-0.176 -0.329,-0.35 -0.484,-0.534 -0.107,-0.127 -0.206,-0.257 -0.312,-0.383 -0.029,0.024 -0.058,0.047 -0.09,0.071 -0.079,0.058 -0.143,0.133 -0.223,0.188 -0.038,0.026 -0.061,0.036 -0.076,0.083 -0.011,0.037 -0.007,0.071 -0.034,0.101 -0.067,0.074 -0.137,0 -0.229,-0.021 -0.009,0.05 -0.021,0.078 -0.079,0.084 -0.018,0.002 -0.04,-0.007 -0.058,-0.005 -0.041,0.005 -0.066,0.036 -0.099,0.052 -0.033,-0.076 -0.08,-0.127 -0.145,-0.187 -0.028,-0.025 -0.056,-0.058 -0.088,-0.076 -0.043,-0.026 -0.105,-0.02 -0.136,-0.07 0.129,-0.034 0.212,-0.128 0.322,-0.192 0.071,-0.04 0.12,-0.103 0.173,-0.163 0.056,-0.064 0.115,-0.132 0.195,-0.169 0.067,-0.03 0.121,-0.067 0.169,-0.119 -0.094,-0.093 -0.187,-0.187 -0.282,-0.28 -0.031,0.029 -0.065,0.056 -0.101,0.083 -0.079,0.058 -0.143,0.133 -0.223,0.188 -0.038,0.025 -0.061,0.036 -0.076,0.083 -0.012,0.037 -0.008,0.071 -0.034,0.101 -0.067,0.074 -0.137,0 -0.229,-0.021 -0.01,0.05 -0.021,0.078 -0.079,0.084 -0.018,0.002 -0.04,-0.007 -0.058,-0.005 -0.041,0.005 -0.066,0.036 -0.099,0.052 -0.034,-0.077 -0.08,-0.128 -0.146,-0.187 -0.028,-0.025 -0.056,-0.058 -0.087,-0.076 -0.043,-0.026 -0.106,-0.02 -0.136,-0.07 0.128,-0.034 0.211,-0.128 0.322,-0.192 0.071,-0.04 0.12,-0.103 0.172,-0.163 0.057,-0.064 0.115,-0.133 0.196,-0.169 0.072,-0.032 0.131,-0.071 0.181,-0.131 -0.119,-0.137 -0.235,-0.277 -0.353,-0.417 -0.045,0.048 -0.092,0.087 -0.147,0.127 -0.079,0.058 -0.143,0.133 -0.223,0.188 -0.038,0.026 -0.061,0.036 -0.075,0.083 -0.012,0.037 -0.008,0.072 -0.035,0.101 -0.066,0.074 -0.137,0 -0.229,-0.021 -0.009,0.05 -0.021,0.078 -0.078,0.084 -0.019,0.002 -0.041,-0.007 -0.059,-0.005 -0.041,0.006 -0.066,0.036 -0.099,0.052 C -7.44,-2.799 -7.486,-2.85 -7.552,-2.91 -7.58,-2.935 -7.608,-2.968 -7.64,-2.986 c -0.043,-0.026 -0.105,-0.02 -0.136,-0.069 0.129,-0.035 0.212,-0.129 0.322,-0.193 0.072,-0.04 0.12,-0.103 0.173,-0.163 0.056,-0.064 0.115,-0.132 0.195,-0.168 0.073,-0.033 0.133,-0.072 0.183,-0.133 0.021,-0.024 0.038,-0.051 0.055,-0.078 -0.094,-0.113 -0.19,-0.224 -0.288,-0.334 -0.019,-0.014 -0.038,-0.028 -0.057,-0.041 -0.021,0.022 -0.042,0.043 -0.063,0.065 -0.094,0.099 -0.248,0.116 -0.362,0.192 -0.059,0.04 -0.102,0.084 -0.151,0.132 -0.036,0.034 -0.078,0.055 -0.119,0.081 -0.077,0.048 -0.145,0.11 -0.228,0.144 -0.177,0.072 -0.363,0.076 -0.549,0.059 -0.102,-0.009 -0.207,0.013 -0.31,0.008 -0.086,-0.003 -0.172,-0.004 -0.258,-10e-4 -0.189,0.008 -0.392,0.05 -0.576,-0.011 -0.2,-0.067 -0.348,-0.268 -0.495,-0.412 -0.139,-0.135 -0.253,-0.293 -0.391,-0.429 -0.063,-0.062 -0.129,-0.122 -0.183,-0.192 0.002,0.001 0.004,0.002 0.007,0.002 -0.013,-0.013 -0.022,-0.026 -0.033,-0.039 0.009,0.013 0.016,0.025 0.026,0.037 -0.011,-0.004 -0.021,-0.008 -0.028,-0.016 -0.014,-0.014 -0.021,-0.035 -0.027,-0.056 -0.017,-0.025 -0.033,-0.05 -0.052,-0.076 -0.092,-0.126 -0.058,-0.3 -0.036,-0.449 0.009,-0.053 0.01,-0.109 0.008,-0.161 -0.003,-0.089 -0.005,-0.083 0.115,-0.092 -10e-4,0.107 0.022,0.197 0.076,0.294 0.046,0.083 0.071,0.173 0.13,0.251 0.049,0.065 0.088,0.135 0.136,0.202 0.057,0.079 0.135,0.141 0.198,0.215 0.027,0.03 0.052,0.062 0.077,0.092 0.212,0.083 0.422,0.15 0.651,0.183 0.134,0.019 0.279,0.07 0.414,0.067 0.2,-0.004 0.411,-0.038 0.604,-0.083 0.126,-0.029 0.232,-0.083 0.353,-0.125 0.105,-0.037 0.179,-0.069 0.265,-0.142 0.056,-0.047 0.097,-0.088 0.163,-0.118 0.043,-0.02 0.087,-0.035 0.127,-0.058 -0.15,-0.115 -0.303,-0.228 -0.443,-0.354 -0.104,-0.093 -0.217,-0.196 -0.295,-0.312 -0.123,-0.183 -0.281,-0.325 -0.402,-0.509 -0.137,-0.209 -0.349,-0.366 -0.499,-0.568 -0.039,-0.053 -0.082,-0.101 -0.122,-0.152 -0.066,-0.084 -0.107,-0.191 -0.164,-0.283 -0.115,-0.185 -0.235,-0.379 -0.387,-0.534 0.075,-0.075 0.22,0.084 0.378,0.226 0.055,0.05 0.116,0.089 0.176,0.131 -0.017,-0.017 -0.035,-0.034 -0.052,-0.052 -0.021,-0.021 -0.042,-0.043 -0.064,-0.065 0.066,0.034 0.137,0.064 0.198,0.097 0.173,0.093 0.318,0.191 0.454,0.331 0.081,0.082 0.156,0.163 0.248,0.23 0.082,0.058 0.148,0.129 0.219,0.2 0.155,0.154 0.316,0.305 0.464,0.466 0.169,0.185 0.311,0.391 0.475,0.579 0.05,0.057 0.106,0.112 0.159,0.168 0.06,-0.083 0.111,-0.172 0.147,-0.267 0.003,-0.005 0.006,-0.011 0.009,-0.016 0.03,-0.035 0.056,-0.04 0.063,-0.09 0.008,-0.059 -0.046,-0.109 -0.052,-0.159 -0.01,-0.08 0.127,-0.093 0.161,-0.148 0.037,-0.061 0.021,-0.165 0.01,-0.236 -0.007,-0.048 -0.006,-0.076 0.004,-0.127 0.017,-0.091 0.043,-0.201 0.037,-0.294 -0.006,-0.094 -0.045,-0.18 -0.057,-0.273 -0.021,-0.162 0.032,-0.333 -0.015,-0.491 -0.014,-0.047 -0.036,-0.094 -0.052,-0.14 -0.055,-0.162 -0.151,-0.265 -0.273,-0.39 -0.183,-0.188 -0.373,-0.37 -0.559,-0.556 -0.026,-0.029 -0.015,-0.152 0.085,-0.124 0.037,0.01 0.047,0.037 0.076,0.056 0.031,0.021 0.064,0.036 0.095,0.058 0.26,0.178 0.634,0.196 0.774,0.523 0.035,0.081 0.051,0.171 0.081,0.254 0.029,0.083 0.088,0.14 0.139,0.209 0.082,0.111 0.175,0.245 0.23,0.371 0.048,0.11 0.123,0.22 0.139,0.338 0.007,0.045 -0.002,0.06 -0.003,0.103 -0.001,0.074 0.046,0.137 0.049,0.21 0.006,0.118 -0.055,0.213 -0.098,0.317 -0.043,0.106 -0.075,0.213 -0.133,0.31 -0.065,0.112 -0.091,0.258 -0.092,0.387 0,0.07 0.004,0.132 0.019,0.2 0.02,0.096 -0.003,0.147 -0.071,0.221 -0.067,0.072 -0.145,0.105 -0.198,0.184 -0.01,0.015 -0.021,0.028 -0.031,0.042 0.033,0.029 0.064,0.061 0.097,0.09 0.114,0.096 0.23,0.19 0.346,0.285 0.031,-0.048 0.059,-0.1 0.093,-0.145 0.024,-0.032 0.056,-0.077 0.091,-0.098 0.067,-0.043 0.185,-0.02 0.247,-0.071 0.032,-0.026 0.073,-0.077 0.092,-0.11 0.036,-0.06 0.029,-0.142 0.069,-0.198 0.033,-0.047 0.119,-0.108 0.105,-0.035 0.031,-0.036 0.228,0.176 0.246,0.192 0.054,0.049 0.123,0.086 0.124,0.154 0,0.041 -0.026,0.062 -0.048,0.089 -0.03,0.037 -0.041,0.08 -0.068,0.118 -0.068,0.097 -0.197,0.1 -0.272,0.182 -0.075,0.084 -0.167,0.147 -0.243,0.231 -0.01,0.011 -0.02,0.022 -0.03,0.033 0.008,0.007 0.017,0.014 0.025,0.021 0.136,0.122 0.266,0.253 0.395,0.385 0.02,-0.033 0.039,-0.067 0.062,-0.097 0.025,-0.032 0.057,-0.077 0.091,-0.098 0.067,-0.043 0.185,-0.02 0.248,-0.071 0.032,-0.026 0.072,-0.077 0.092,-0.11 0.036,-0.06 0.029,-0.142 0.069,-0.199 0.033,-0.046 0.119,-0.107 0.105,-0.034 0.031,-0.036 0.227,0.175 0.246,0.192 0.054,0.048 0.123,0.086 0.123,0.154 0,0.041 -0.025,0.062 -0.047,0.089 -0.03,0.037 -0.042,0.08 -0.068,0.117 -0.068,0.098 -0.198,0.1 -0.272,0.183 -0.076,0.083 -0.168,0.147 -0.243,0.231 -0.008,0.008 -0.015,0.017 -0.023,0.025 0.104,0.1 0.209,0.2 0.314,0.299 0.018,-0.03 0.036,-0.06 0.056,-0.087 0.025,-0.032 0.057,-0.077 0.092,-0.098 0.067,-0.043 0.185,-0.02 0.247,-0.071 0.032,-0.026 0.072,-0.077 0.092,-0.11 0.036,-0.06 0.029,-0.142 0.069,-0.198 0.033,-0.047 0.119,-0.108 0.105,-0.035 0.031,-0.036 0.227,0.176 0.246,0.192 0.054,0.049 0.123,0.086 0.124,0.154 0,0.041 -0.026,0.062 -0.048,0.089 -0.03,0.037 -0.041,0.08 -0.068,0.118 -0.068,0.097 -0.198,0.1 -0.272,0.182 -0.075,0.084 -0.167,0.147 -0.243,0.231 -0.002,0.003 -0.004,0.005 -0.007,0.007 0.034,0.034 0.068,0.068 0.1,0.102 0.147,0.159 0.266,0.342 0.408,0.505 0.104,0.119 0.207,0.241 0.31,0.362 0.074,-0.036 0.152,-0.068 0.225,-0.103 0.131,-0.061 0.283,-0.105 0.424,-0.137 0.169,-0.038 0.367,-0.014 0.54,-0.006 0.02,0.001 0.039,0.003 0.059,0.004 0.007,-0.087 0.014,-0.173 0.017,-0.259 0.012,-0.263 0.017,-0.526 0.039,-0.79 0.014,-0.165 0.036,-0.327 0.05,-0.491 -0.037,-0.003 -0.074,-0.008 -0.114,-0.014 -0.096,-0.014 -0.195,-0.006 -0.29,-0.024 -0.045,-0.009 -0.069,-0.017 -0.112,0.005 -0.035,0.018 -0.057,0.045 -0.097,0.047 -0.099,0.006 -0.096,-0.097 -0.146,-0.177 -0.043,0.029 -0.07,0.041 -0.115,0.004 -0.015,-0.012 -0.024,-0.033 -0.039,-0.045 -0.032,-0.025 -0.071,-0.021 -0.106,-0.033 0.031,-0.078 0.034,-0.146 0.03,-0.235 -0.002,-0.037 10e-4,-0.081 -0.008,-0.116 -0.013,-0.048 -0.061,-0.088 -0.047,-0.145 0.115,0.067 0.24,0.059 0.363,0.092 0.079,0.022 0.158,0.012 0.238,0.007 0.085,-0.006 0.174,-0.013 0.257,0.018 0.068,0.026 0.133,0.039 0.203,0.036 0.001,-0.133 0,-0.265 -10e-4,-0.397 -0.042,-0.003 -0.084,-0.007 -0.13,-0.014 -0.096,-0.015 -0.195,-0.007 -0.29,-0.025 -0.045,-0.008 -0.069,-0.017 -0.112,0.006 -0.035,0.018 -0.057,0.045 -0.097,0.047 -0.099,0.005 -0.096,-0.097 -0.146,-0.177 -0.043,0.029 -0.07,0.04 -0.115,0.004 -0.015,-0.012 -0.024,-0.034 -0.039,-0.045 -0.032,-0.025 -0.071,-0.021 -0.106,-0.034 0.031,-0.077 0.034,-0.146 0.03,-0.234 -0.002,-0.038 10e-4,-0.081 -0.008,-0.116 -0.013,-0.049 -0.061,-0.089 -0.047,-0.145 0.115,0.066 0.24,0.058 0.363,0.092 0.079,0.021 0.158,0.011 0.238,0.006 0.085,-0.005 0.174,-0.012 0.257,0.019 0.074,0.028 0.143,0.042 0.221,0.036 0.013,-0.182 0.03,-0.363 0.045,-0.545 -0.065,0.001 -0.127,-0.004 -0.194,-0.015 -0.096,-0.014 -0.195,-0.006 -0.29,-0.024 -0.045,-0.009 -0.069,-0.017 -0.112,0.005 -0.035,0.018 -0.057,0.045 -0.097,0.047 -0.099,0.006 -0.096,-0.096 -0.146,-0.176 -0.043,0.029 -0.07,0.04 -0.115,0.003 -0.015,-0.011 -0.024,-0.033 -0.039,-0.044 -0.032,-0.026 -0.071,-0.021 -0.106,-0.034 0.031,-0.078 0.034,-0.146 0.03,-0.235 -0.002,-0.037 10e-4,-0.081 -0.008,-0.116 -0.013,-0.048 -0.061,-0.088 -0.047,-0.145 0.115,0.067 0.24,0.059 0.363,0.092 0.079,0.022 0.158,0.012 0.238,0.007 0.085,-0.006 0.174,-0.013 0.257,0.019 0.075,0.028 0.145,0.043 0.223,0.036 0.032,-0.003 0.063,-0.01 0.094,-0.017 0.013,-0.146 0.024,-0.293 0.033,-0.44 -0.004,-0.023 -0.008,-0.047 -0.012,-0.069 -0.03,0 -0.06,0.001 -0.09,0.002 -0.137,0.002 -0.257,-0.094 -0.392,-0.121 -0.07,-0.013 -0.131,-0.013 -0.2,-0.014 -0.049,0 -0.094,-0.016 -0.142,-0.027 -0.088,-0.019 -0.18,-0.024 -0.263,-0.059 -0.176,-0.074 -0.31,-0.203 -0.429,-0.346 -0.066,-0.079 -0.156,-0.137 -0.226,-0.213 -0.058,-0.064 -0.118,-0.125 -0.182,-0.184 -0.139,-0.127 -0.312,-0.241 -0.398,-0.415 -0.094,-0.188 -0.057,-0.436 -0.059,-0.642 -0.003,-0.193 0.028,-0.385 0.027,-0.58 -0.001,-0.087 -0.006,-0.177 0.005,-0.264 0.001,0.002 0.003,0.004 0.004,0.006 0,-0.018 0.003,-0.034 0.005,-0.05 -0.003,0.014 -0.007,0.029 -0.009,0.044 -0.004,-0.01 -0.008,-0.021 -0.008,-0.032 0,-0.02 0.01,-0.039 0.021,-0.058 0.006,-0.03 0.012,-0.058 0.017,-0.09 0.024,-0.154 0.171,-0.254 0.292,-0.343 0.044,-0.032 0.084,-0.07 0.12,-0.109 0.06,-0.065 0.054,-0.062 0.146,0.016 -0.076,0.076 -0.124,0.156 -0.154,0.262 -0.026,0.091 -0.072,0.173 -0.086,0.269 -0.011,0.081 -0.033,0.158 -0.047,0.24 -0.015,0.095 -0.004,0.195 -0.011,0.292 -0.003,0.04 -0.008,0.08 -0.012,0.12 0.092,0.208 0.193,0.404 0.332,0.588 0.081,0.109 0.148,0.247 0.245,0.341 0.144,0.139 0.317,0.264 0.486,0.369 0.109,0.068 0.222,0.105 0.338,0.16 0.1,0.048 0.175,0.078 0.288,0.088 0.072,0.006 0.13,0.005 0.199,0.031 0.044,0.017 0.085,0.037 0.13,0.05 -0.025,-0.188 -0.053,-0.376 -0.063,-0.565 -0.008,-0.139 -0.014,-0.291 0.013,-0.429 0.042,-0.216 0.03,-0.429 0.075,-0.643 0.051,-0.246 0.012,-0.507 0.049,-0.755 0.01,-0.065 0.013,-0.13 0.021,-0.194 0.012,-0.106 0.06,-0.211 0.084,-0.316 0.049,-0.212 0.102,-0.435 0.104,-0.651 0.106,0 0.096,0.215 0.108,0.427 0.004,0.074 0.018,0.145 0.031,0.217 0,-0.025 0,-0.049 0,-0.073 0,-0.031 10e-4,-0.061 10e-4,-0.092 0.023,0.071 0.051,0.142 0.071,0.209 0.057,0.188 0.09,0.359 0.088,0.555 -10e-4,0.114 -0.006,0.225 0.013,0.338 0.016,0.099 0.013,0.196 0.013,0.296 0,0.219 0.007,0.439 -0.002,0.658 -0.011,0.25 -0.057,0.496 -0.073,0.745 -0.005,0.076 -0.004,0.154 -0.007,0.231 0.102,-0.016 0.2,-0.043 0.293,-0.085 0.006,-0.002 0.012,-0.003 0.017,-0.005 0.047,-0.003 0.068,0.012 0.109,-0.018 0.047,-0.036 0.044,-0.11 0.076,-0.15 0.049,-0.064 0.155,0.024 0.218,0.009 0.07,-0.017 0.131,-0.101 0.174,-0.16 0.029,-0.038 0.05,-0.057 0.093,-0.087 0.076,-0.052 0.172,-0.111 0.234,-0.181 0.062,-0.071 0.096,-0.159 0.153,-0.233 0.099,-0.129 0.258,-0.213 0.336,-0.359 0.023,-0.042 0.041,-0.091 0.063,-0.135 0.074,-0.154 0.08,-0.295 0.082,-0.469 0.003,-0.262 -0.002,-0.526 -0.002,-0.789 0.002,-0.039 0.097,-0.117 0.148,-0.027 0.018,0.033 0.007,0.059 0.013,0.094 0.008,0.036 0.02,0.07 0.027,0.108 0.057,0.309 0.309,0.587 0.177,0.917 -0.032,0.082 -0.085,0.157 -0.122,0.236 -0.038,0.08 -0.037,0.161 -0.05,0.247 -0.02,0.136 -0.049,0.297 -0.099,0.424 -0.044,0.113 -0.069,0.243 -0.141,0.338 -0.027,0.036 -0.043,0.041 -0.075,0.071 -0.053,0.051 -0.065,0.13 -0.114,0.183 -0.079,0.087 -0.19,0.111 -0.293,0.155 -0.106,0.044 -0.204,0.097 -0.313,0.125 -0.125,0.032 -0.247,0.118 -0.339,0.209 -0.049,0.049 -0.091,0.095 -0.129,0.154 -0.053,0.082 -0.105,0.102 -0.206,0.106 -0.098,0.004 -0.176,-0.028 -0.27,-0.01 -0.017,0.004 -0.034,0.005 -0.051,0.008 0.002,0.044 0.002,0.089 0.005,0.132 0.012,0.149 0.028,0.298 0.043,0.446 0.056,-0.011 0.112,-0.029 0.167,-0.036 0.04,-0.006 0.095,-0.015 0.135,-0.006 0.077,0.018 0.144,0.117 0.224,0.125 0.041,0.005 0.106,-0.003 0.144,-0.012 0.067,-0.017 0.12,-0.08 0.188,-0.092 0.057,-0.01 0.16,0.008 0.099,0.05 0.048,-0.003 0.037,0.285 0.038,0.309 0.005,0.074 0.027,0.149 -0.021,0.197 -0.029,0.029 -0.062,0.026 -0.097,0.029 -0.047,0.006 -0.085,0.027 -0.131,0.035 -0.117,0.021 -0.21,-0.068 -0.321,-0.063 -0.113,0.006 -0.223,-0.014 -0.336,-0.008 -0.014,0 -0.029,10e-4 -0.044,0.002 10e-4,0.011 0.002,0.021 0.003,0.032 0.01,0.183 0.009,0.367 0.007,0.552 0.037,-0.01 0.075,-0.02 0.112,-0.025 0.04,-0.005 0.095,-0.014 0.135,-0.005 0.077,0.017 0.144,0.117 0.224,0.125 0.041,0.004 0.106,-0.004 0.144,-0.013 0.067,-0.016 0.12,-0.08 0.188,-0.092 0.057,-0.009 0.16,0.009 0.099,0.051 0.048,-0.004 0.037,0.284 0.038,0.309 0.005,0.073 0.027,0.148 -0.021,0.196 -0.029,0.029 -0.062,0.026 -0.097,0.03 -0.047,0.005 -0.085,0.027 -0.131,0.035 -0.117,0.02 -0.21,-0.069 -0.321,-0.064 -0.113,0.006 -0.223,-0.014 -0.336,-0.008 -0.011,0 -0.022,10e-4 -0.033,0.002 0.003,0.144 0.005,0.289 0.011,0.433 0.033,-0.008 0.067,-0.017 0.1,-0.021 0.04,-0.006 0.095,-0.015 0.135,-0.006 0.077,0.018 0.144,0.117 0.224,0.125 0.041,0.004 0.106,-0.003 0.144,-0.012 0.067,-0.017 0.12,-0.081 0.188,-0.092 0.057,-0.01 0.16,0.008 0.099,0.05 0.048,-0.004 0.037,0.285 0.038,0.309 0.005,0.074 0.027,0.148 -0.021,0.197 -0.029,0.029 -0.062,0.026 -0.097,0.029 -0.047,0.005 -0.085,0.027 -0.131,0.035 -0.117,0.021 -0.21,-0.069 -0.321,-0.063 -0.113,0.006 -0.223,-0.015 -0.336,-0.009 l -0.009,0.001 c 0,0.047 0,0.095 -0.002,0.143 -0.008,0.216 -0.053,0.429 -0.068,0.645 -0.02,0.289 -0.049,0.58 -0.061,0.87 0.011,0.002 0.023,0.005 0.034,0.008 0.023,-0.006 0.046,-0.012 0.065,-0.017 0.033,-0.009 0.107,-0.043 0.131,-0.05 0.1,-0.029 0.266,0.017 0.361,0.047 0.078,0.025 0.15,0.063 0.219,0.105 0.067,0.002 0.134,-0.002 0.198,0.016 0.101,0.029 0.172,0.108 0.235,0.19 0.065,-0.055 0.129,-0.11 0.191,-0.167 0.195,-0.178 0.384,-0.36 0.586,-0.531 C 0.432,-2.047 0.562,-2.147 0.688,-2.253 0.663,-2.281 0.641,-2.31 0.617,-2.342 0.559,-2.421 0.484,-2.485 0.429,-2.565 0.403,-2.603 0.392,-2.626 0.346,-2.641 0.309,-2.653 0.274,-2.648 0.245,-2.675 0.171,-2.742 0.245,-2.812 0.266,-2.904 0.216,-2.913 0.188,-2.925 0.182,-2.983 0.18,-3.001 0.189,-3.023 0.187,-3.041 0.182,-3.082 0.151,-3.107 0.135,-3.14 0.211,-3.173 0.262,-3.22 0.322,-3.285 0.347,-3.313 0.38,-3.342 0.398,-3.373 c 0.026,-0.043 0.02,-0.105 0.07,-0.136 0.034,0.129 0.128,0.211 0.192,0.322 0.04,0.072 0.103,0.12 0.163,0.173 0.064,0.056 0.132,0.115 0.169,0.195 0.029,0.067 0.067,0.121 0.119,0.169 0.093,-0.094 0.187,-0.187 0.28,-0.282 C 1.362,-2.963 1.335,-2.997 1.308,-3.034 1.25,-3.112 1.175,-3.176 1.12,-3.256 1.095,-3.294 1.084,-3.317 1.037,-3.332 1,-3.344 0.966,-3.34 0.936,-3.366 0.862,-3.433 0.936,-3.503 0.957,-3.595 0.907,-3.605 0.879,-3.616 0.873,-3.674 0.871,-3.692 0.88,-3.714 0.878,-3.732 0.873,-3.773 0.842,-3.798 0.826,-3.832 0.903,-3.865 0.954,-3.911 1.013,-3.977 1.038,-4.005 1.071,-4.033 1.09,-4.064 1.115,-4.107 1.109,-4.17 1.159,-4.2 c 0.034,0.128 0.128,0.211 0.192,0.322 0.04,0.071 0.103,0.12 0.163,0.172 0.064,0.057 0.133,0.115 0.169,0.196 0.032,0.072 0.071,0.131 0.131,0.181 C 1.951,-3.448 2.091,-3.564 2.231,-3.682 2.183,-3.727 2.144,-3.774 2.104,-3.829 2.046,-3.908 1.971,-3.972 1.916,-4.052 1.89,-4.09 1.879,-4.113 1.833,-4.128 1.796,-4.139 1.762,-4.135 1.732,-4.162 1.658,-4.229 1.732,-4.299 1.753,-4.391 1.703,-4.4 1.675,-4.411 1.669,-4.47 1.667,-4.488 1.676,-4.51 1.674,-4.528 1.669,-4.569 1.638,-4.594 1.622,-4.627 1.698,-4.66 1.749,-4.706 1.809,-4.772 1.834,-4.8 1.867,-4.828 1.885,-4.86 c 0.026,-0.043 0.02,-0.105 0.07,-0.136 0.034,0.129 0.128,0.211 0.192,0.322 0.04,0.072 0.103,0.12 0.163,0.173 0.064,0.056 0.132,0.115 0.168,0.195 0.033,0.073 0.072,0.133 0.133,0.183 0.024,0.021 0.051,0.038 0.078,0.055 0.113,-0.094 0.224,-0.19 0.334,-0.288 C 3.037,-4.375 3.051,-4.394 3.064,-4.413 3.042,-4.434 3.021,-4.455 2.999,-4.476 2.9,-4.57 2.883,-4.724 2.807,-4.838 2.767,-4.897 2.723,-4.94 2.675,-4.989 2.641,-5.025 2.62,-5.067 2.594,-5.108 2.546,-5.185 2.484,-5.253 2.45,-5.336 2.378,-5.513 2.374,-5.699 2.391,-5.885 2.4,-5.987 2.378,-6.092 2.382,-6.195 2.386,-6.281 2.387,-6.367 2.384,-6.453 2.375,-6.642 2.334,-6.845 2.395,-7.029 2.462,-7.229 2.663,-7.377 2.807,-7.524 2.942,-7.663 3.1,-7.777 3.236,-7.915 3.298,-7.978 3.358,-8.044 3.428,-8.098 3.427,-8.096 3.426,-8.094 3.426,-8.091 3.438,-8.104 3.452,-8.113 3.465,-8.124 3.452,-8.115 3.44,-8.108 3.428,-8.098 3.431,-8.109 3.436,-8.119 3.444,-8.126 3.458,-8.141 3.479,-8.147 3.5,-8.153 3.525,-8.17 3.55,-8.186 3.576,-8.205 c 0.126,-0.092 0.3,-0.058 0.449,-0.036 0.053,0.009 0.109,0.01 0.161,0.008 0.089,-0.003 0.083,-0.005 0.092,0.115 -0.107,-10e-4 -0.198,0.022 -0.294,0.076 -0.083,0.046 -0.173,0.071 -0.251,0.13 -0.065,0.049 -0.135,0.088 -0.202,0.136 -0.079,0.056 -0.141,0.135 -0.215,0.198 -0.03,0.027 -0.062,0.052 -0.093,0.077 -0.082,0.212 -0.149,0.422 -0.182,0.651 -0.019,0.134 -0.07,0.279 -0.067,0.414 0.003,0.2 0.038,0.411 0.083,0.604 0.029,0.126 0.083,0.232 0.125,0.353 0.038,0.104 0.069,0.179 0.142,0.265 0.047,0.056 0.088,0.097 0.118,0.163 0.02,0.043 0.035,0.087 0.057,0.127 0.116,-0.15 0.229,-0.303 0.355,-0.443 0.093,-0.104 0.196,-0.216 0.312,-0.295 0.183,-0.123 0.326,-0.281 0.509,-0.402 0.209,-0.137 0.366,-0.35 0.568,-0.499 0.053,-0.039 0.101,-0.082 0.152,-0.122 0.084,-0.066 0.191,-0.107 0.283,-0.164 0.185,-0.115 0.379,-0.235 0.534,-0.387 0.075,0.075 -0.084,0.22 -0.226,0.378 -0.05,0.056 -0.089,0.116 -0.131,0.176 L 5.906,-6.734 C 5.928,-6.755 5.95,-6.777 5.972,-6.798 5.938,-6.732 5.907,-6.661 5.874,-6.6 c -0.092,0.173 -0.19,0.318 -0.33,0.454 -0.082,0.081 -0.163,0.156 -0.23,0.248 -0.058,0.082 -0.129,0.148 -0.2,0.219 -0.154,0.155 -0.305,0.316 -0.467,0.464 -0.184,0.169 -0.39,0.31 -0.578,0.475 -0.057,0.05 -0.112,0.106 -0.168,0.159 0.083,0.06 0.171,0.111 0.267,0.147 0.005,0.003 0.01,0.006 0.016,0.009 0.035,0.03 0.039,0.056 0.09,0.063 0.059,0.008 0.109,-0.046 0.159,-0.052 0.08,-0.01 0.093,0.127 0.148,0.161 0.061,0.037 0.165,0.021 0.236,0.01 0.048,-0.007 0.076,-0.006 0.127,0.004 0.091,0.017 0.2,0.043 0.294,0.037 0.094,-0.006 0.18,-0.045 0.273,-0.057 0.162,-0.021 0.333,0.032 0.491,-0.015 0.047,-0.014 0.094,-0.036 0.14,-0.052 0.162,-0.056 0.265,-0.151 0.39,-0.273 0.188,-0.183 0.37,-0.373 0.556,-0.559 0.029,-0.026 0.152,-0.015 0.124,0.085 -0.01,0.037 -0.037,0.047 -0.056,0.076 -0.021,0.031 -0.036,0.064 -0.058,0.095 -0.179,0.26 -0.197,0.634 -0.523,0.774 -0.081,0.035 -0.171,0.051 -0.254,0.081 -0.083,0.029 -0.14,0.088 -0.209,0.139 C 6,-3.826 5.867,-3.733 5.741,-3.678 5.631,-3.63 5.521,-3.555 5.403,-3.539 5.358,-3.532 5.343,-3.541 5.3,-3.542 5.226,-3.543 5.162,-3.496 5.09,-3.493 4.972,-3.487 4.877,-3.548 4.773,-3.591 4.667,-3.634 4.56,-3.666 4.463,-3.724 4.351,-3.79 4.205,-3.815 4.076,-3.816 c -0.07,0 -0.132,0.004 -0.2,0.018 C 3.78,-3.777 3.729,-3.8 3.655,-3.868 3.583,-3.935 3.55,-4.013 3.471,-4.066 3.456,-4.076 3.443,-4.087 3.429,-4.097 3.4,-4.064 3.368,-4.033 3.34,-4 c -0.097,0.114 -0.191,0.23 -0.286,0.346 0.048,0.031 0.1,0.058 0.145,0.093 0.031,0.024 0.076,0.056 0.098,0.091 0.043,0.066 0.02,0.185 0.071,0.247 0.026,0.032 0.077,0.072 0.11,0.092 0.059,0.036 0.142,0.029 0.198,0.069 0.047,0.033 0.107,0.119 0.035,0.105 0.036,0.031 -0.176,0.228 -0.192,0.246 -0.049,0.055 -0.086,0.123 -0.154,0.124 -0.041,0 -0.062,-0.026 -0.089,-0.048 C 3.239,-2.665 3.196,-2.676 3.158,-2.703 3.061,-2.771 3.058,-2.9 2.976,-2.975 2.892,-3.05 2.829,-3.142 2.745,-3.218 2.734,-3.228 2.723,-3.238 2.712,-3.248 2.705,-3.24 2.698,-3.231 2.691,-3.224 c -0.122,0.137 -0.253,0.267 -0.385,0.396 0.033,0.02 0.067,0.039 0.097,0.062 0.032,0.025 0.077,0.057 0.098,0.091 0.043,0.067 0.02,0.185 0.071,0.248 0.026,0.032 0.077,0.072 0.11,0.092 0.06,0.036 0.142,0.029 0.198,0.068 0.047,0.034 0.108,0.119 0.035,0.106 C 2.951,-2.13 2.74,-1.934 2.723,-1.915 2.675,-1.861 2.637,-1.792 2.569,-1.792 2.528,-1.792 2.507,-1.817 2.48,-1.839 2.443,-1.869 2.4,-1.881 2.363,-1.907 2.265,-1.975 2.262,-2.105 2.18,-2.179 2.097,-2.255 2.033,-2.347 1.949,-2.422 1.94,-2.43 1.932,-2.437 1.924,-2.445 c -0.1,0.104 -0.2,0.209 -0.299,0.314 0.03,0.018 0.06,0.036 0.087,0.056 0.032,0.025 0.076,0.057 0.098,0.092 0.043,0.066 0.02,0.185 0.071,0.247 0.026,0.032 0.077,0.072 0.11,0.092 0.06,0.036 0.142,0.029 0.198,0.068 0.047,0.034 0.107,0.12 0.035,0.106 C 2.26,-1.439 2.048,-1.242 2.032,-1.224 1.983,-1.17 1.946,-1.101 1.878,-1.1 1.837,-1.1 1.816,-1.126 1.789,-1.148 1.752,-1.178 1.709,-1.19 1.671,-1.216 1.574,-1.284 1.571,-1.414 1.489,-1.488 1.405,-1.563 1.342,-1.655 1.258,-1.731 1.255,-1.733 1.253,-1.735 1.251,-1.738 1.217,-1.704 1.183,-1.67 1.148,-1.638 0.99,-1.491 0.807,-1.372 0.644,-1.23 0.431,-1.044 0.209,-0.864 0,-0.672 c 0.083,0.109 0.163,0.22 0.231,0.338 0.008,0.01 0.018,0.018 0.026,0.029 0.068,0.089 0.092,0.218 0.129,0.323 0.036,0.098 0.033,0.199 0.035,0.302 0,0.027 -0.002,0.054 -0.003,0.081 0.151,0.008 0.302,0.024 0.45,0.03 C 1.132,0.443 1.395,0.447 1.659,0.47 1.823,0.484 1.986,0.505 2.15,0.519 2.153,0.482 2.157,0.445 2.163,0.406 2.178,0.309 2.17,0.211 2.188,0.116 2.197,0.07 2.205,0.047 2.183,0.003 2.165,-0.032 2.138,-0.053 2.135,-0.093 2.13,-0.192 2.232,-0.189 2.312,-0.239 2.283,-0.282 2.272,-0.309 2.309,-0.354 2.32,-0.369 2.342,-0.378 2.353,-0.393 2.379,-0.425 2.374,-0.464 2.387,-0.499 2.464,-0.468 2.533,-0.465 2.622,-0.47 2.659,-0.471 2.702,-0.468 2.738,-0.478 2.786,-0.49 2.826,-0.538 2.883,-0.525 2.816,-0.41 2.824,-0.284 2.791,-0.161 2.769,-0.082 2.779,-0.003 2.784,0.076 2.79,0.161 2.797,0.251 2.765,0.334 2.739,0.402 2.727,0.467 2.73,0.537 c 0.133,0 0.265,0 0.397,-0.001 C 3.13,0.494 3.134,0.451 3.141,0.406 3.155,0.309 3.147,0.211 3.165,0.116 3.174,0.07 3.183,0.047 3.16,0.003 3.142,-0.032 3.115,-0.053 3.113,-0.093 3.107,-0.192 3.21,-0.189 3.29,-0.239 3.261,-0.282 3.249,-0.309 3.286,-0.354 3.298,-0.369 3.32,-0.378 3.331,-0.393 3.356,-0.425 3.352,-0.464 3.364,-0.499 3.442,-0.468 3.51,-0.465 3.599,-0.47 3.637,-0.471 3.68,-0.468 3.715,-0.478 3.763,-0.49 3.803,-0.538 3.86,-0.525 3.793,-0.41 3.801,-0.284 3.768,-0.161 3.747,-0.082 3.756,-0.003 3.762,0.076 3.767,0.161 3.774,0.251 3.743,0.334 3.714,0.408 3.7,0.477 3.707,0.555 3.889,0.568 4.07,0.584 4.252,0.6 4.25,0.534 4.256,0.473 4.266,0.406 4.281,0.309 4.273,0.211 4.291,0.116 4.299,0.07 4.308,0.047 4.285,0.003 4.268,-0.032 4.241,-0.053 4.238,-0.093 4.233,-0.192 4.335,-0.189 4.415,-0.239 4.386,-0.282 4.375,-0.309 4.411,-0.354 4.423,-0.369 4.445,-0.378 4.456,-0.393 4.482,-0.425 4.477,-0.464 4.49,-0.499 4.567,-0.468 4.636,-0.465 4.725,-0.47 4.762,-0.471 4.805,-0.468 4.84,-0.478 4.889,-0.49 4.929,-0.538 4.985,-0.525 4.919,-0.41 4.927,-0.284 4.893,-0.161 4.872,-0.082 4.882,-0.003 4.887,0.076 4.892,0.161 4.899,0.251 4.868,0.334 4.84,0.409 4.825,0.478 4.832,0.557 4.835,0.589 4.841,0.62 4.848,0.651 4.995,0.664 5.142,0.675 5.289,0.683 5.312,0.68 5.335,0.676 5.358,0.672 5.357,0.642 5.357,0.611 5.356,0.581 5.353,0.445 5.45,0.324 5.476,0.19 5.49,0.119 5.49,0.059 5.49,-0.011 5.491,-0.06 5.506,-0.104 5.517,-0.152 5.537,-0.24 5.542,-0.332 5.577,-0.415 5.65,-0.591 5.78,-0.725 5.923,-0.845 6.002,-0.911 6.06,-1 6.136,-1.07 6.199,-1.128 6.261,-1.188 6.32,-1.252 6.447,-1.391 6.561,-1.564 6.734,-1.651 6.923,-1.745 7.171,-1.707 7.376,-1.71 c 0.194,-0.002 0.386,0.029 0.58,0.027 0.088,0 0.178,-0.005 0.265,0.006 -0.002,0.001 -0.004,0.002 -0.007,0.004 0.019,0 0.035,0.003 0.051,0.004 -0.014,-0.002 -0.029,-0.006 -0.044,-0.008 0.01,-0.005 0.021,-0.008 0.032,-0.008 0.019,0 0.039,0.01 0.058,0.021 0.029,0.005 0.058,0.012 0.09,0.017 0.154,0.024 0.253,0.17 0.343,0.292 0.032,0.043 0.07,0.084 0.108,0.119 0.066,0.061 0.063,0.055 -0.015,0.146 C 8.761,-1.165 8.681,-1.213 8.575,-1.244 8.483,-1.27 8.401,-1.316 8.306,-1.329 8.224,-1.341 8.147,-1.362 8.066,-1.376 7.97,-1.392 7.871,-1.38 7.774,-1.387 7.734,-1.39 7.694,-1.395 7.654,-1.399 7.446,-1.307 7.25,-1.206 7.065,-1.068 6.956,-0.986 6.818,-0.919 6.725,-0.822 6.586,-0.678 6.461,-0.505 6.356,-0.336 6.288,-0.227 6.251,-0.114 6.196,0.002 6.148,0.102 6.118,0.177 6.108,0.29 6.102,0.362 6.102,0.42 6.077,0.488 6.06,0.533 6.04,0.574 6.027,0.619 6.215,0.594 6.403,0.566 6.591,0.556 6.73,0.548 6.883,0.542 7.021,0.568"
             style="fill:#100f0d;fill-opacity:1;fill-rule:nonzero;stroke:none"
             id="path54483" />
        </g>
        <g
           id="g54485"
           transform="translate(85.4475,679.11)">
          <path
             d="m 0,0 c -0.047,-0.004 -0.093,-0.054 -0.125,-0.084 -0.052,-0.048 -0.101,-0.099 -0.15,-0.15 0.042,0.022 0.083,0.046 0.117,0.074 C -0.101,-0.112 -0.054,-0.051 0,0"
             style="fill:#100f0d;fill-opacity:1;fill-rule:nonzero;stroke:none"
             id="path54487" />
        </g>
      </g>
    </g>
  </g>
</svg>
