<svg width="25" height="24" viewBox="0 0 25 24" fill="#000000" xmlns="http://www.w3.org/2000/svg">
  <path d="M3.72095 3.69623C3.72515 3.74555 3.77762 3.79383 3.8091 3.82741C3.85948 3.88198 3.913 3.93341 3.96652 3.98483C3.94343 3.94075 3.91824 3.89773 3.88886 3.86204C3.83954 3.80327 3.77447 3.7529 3.72095 3.69623Z"/>
  <path d="M0.125305 12.1821C0.163086 12.2146 0.234449 12.2104 0.280625 12.2125C0.355136 12.2157 0.429647 12.2146 0.503109 12.2125C0.455884 12.1978 0.407609 12.1852 0.361433 12.181C0.283773 12.1737 0.202965 12.1842 0.125305 12.1821Z"/>
  <path d="M3.96661 20.5504C4.01594 20.5462 4.06421 20.4938 4.0978 20.4623C4.15237 20.4119 4.20379 20.3584 4.25626 20.3049C4.21114 20.328 4.16811 20.3531 4.13243 20.3825C4.07366 20.4329 4.02328 20.4969 3.96661 20.5504Z"/>
  <path d="M12.3627 23.8762C12.3952 23.8384 12.391 23.767 12.3931 23.7209C12.3963 23.6464 12.3952 23.5729 12.3931 23.4984C12.3784 23.5456 12.3659 23.5939 12.3617 23.6411C12.3543 23.7177 12.3648 23.7985 12.3627 23.8762Z"/>
  <path d="M20.8206 20.3049C20.8164 20.2556 20.7639 20.2073 20.7324 20.1737C20.6821 20.1191 20.6285 20.0677 20.575 20.0152C20.5981 20.0604 20.6233 20.1034 20.6527 20.1391C20.703 20.1979 20.7671 20.2482 20.8206 20.3049Z"/>
  <path d="M24.2362 11.8179C24.1984 11.7854 24.1271 11.7896 24.0809 11.7875C24.0064 11.7843 23.9319 11.7854 23.8574 11.7875C23.9056 11.8022 23.9539 11.8148 24.0001 11.819C24.0777 11.8263 24.1586 11.8158 24.2362 11.8179Z"/>
  <path d="M14.3072 12.881C14.2642 12.945 14.2138 13.0038 14.1656 13.0625C14.1425 13.0846 14.1194 13.1056 14.0942 13.1255C14.047 13.1622 13.9955 13.1958 13.9441 13.2305C13.7804 13.0646 13.6135 12.9041 13.4383 12.753C13.4456 12.5924 13.4782 12.4318 13.4929 12.2723C13.4949 12.2534 13.4991 12.2366 13.5023 12.2177C13.5663 12.2324 13.6314 12.2461 13.6943 12.2639C13.9326 12.3311 14.1656 12.4255 14.4132 12.4549C14.4143 12.4549 14.4164 12.4549 14.4174 12.4549C14.4248 12.6018 14.3964 12.7477 14.3072 12.881ZM13.0815 13.9074C13.0091 13.9703 12.9272 14.0333 12.8411 14.0774C12.7372 14.1309 12.6208 14.1666 12.5022 14.1802C12.5032 13.9336 12.5043 13.6912 12.4917 13.4498C12.583 13.4676 12.6827 13.4928 12.775 13.476C12.901 13.4519 13.0153 13.3763 13.1192 13.2945C13.1885 13.4257 13.2567 13.5589 13.3375 13.6838C13.3123 13.7132 13.2872 13.7436 13.2599 13.773C13.2084 13.8255 13.1392 13.858 13.0815 13.9074ZM11.4527 13.879C11.4034 13.8528 11.3792 13.8077 11.332 13.7877C11.2806 13.7657 11.1956 13.7804 11.1368 13.7709C11.0833 13.7625 11.0308 13.7489 10.9794 13.7342C11.1662 13.5495 11.3488 13.3648 11.5178 13.1675C11.5619 13.1874 11.6059 13.2084 11.6521 13.2252C11.7403 13.2577 11.8337 13.2735 11.925 13.2997C11.9218 13.3113 11.9197 13.3228 11.9166 13.3344C11.8557 13.5516 11.7738 13.7636 11.7382 13.9871C11.6479 13.9514 11.5377 13.9252 11.4527 13.879ZM10.1115 10.8944C10.1955 10.7779 10.2574 10.6372 10.3665 10.5386C10.3949 10.5659 10.4211 10.5921 10.4473 10.6194C10.6047 10.7779 10.7601 10.9353 10.9206 11.0854C10.9112 11.1127 10.9038 11.1399 10.8954 11.1641C10.8304 11.354 10.7527 11.5503 10.7202 11.7486C10.7023 11.7444 10.6845 11.7413 10.6667 11.736C10.4284 11.6689 10.1965 11.5744 9.94884 11.5461C9.9226 11.5429 9.89742 11.5429 9.87118 11.5419C9.88167 11.4936 9.89217 11.4453 9.89637 11.3971C9.91106 11.2585 10.0254 11.0109 10.1115 10.8944ZM11.3562 10.1115C11.4338 10.0821 11.5188 10.081 11.6007 10.0663C11.6867 10.0517 11.7728 10.0307 11.8588 10.0076C11.8588 10.1094 11.8599 10.2101 11.862 10.3109C11.8274 10.3182 11.7927 10.3245 11.7633 10.3434C11.6521 10.4169 11.5356 10.5029 11.4349 10.5953C11.4191 10.61 11.4013 10.6215 11.3845 10.6341C11.3173 10.505 11.2481 10.378 11.1641 10.2594C11.1809 10.2479 11.1966 10.2353 11.2103 10.2259C11.2649 10.1881 11.2837 10.1388 11.3562 10.1115ZM12.9482 10.0412C13.1108 10.1146 13.2609 10.0265 13.3774 10.1618C13.4204 10.2122 13.4803 10.2511 13.5432 10.2846C13.3648 10.4609 13.1906 10.6383 13.029 10.8262C13.0028 10.801 12.9776 10.7758 12.9471 10.7548C12.8306 10.6708 12.6869 10.6131 12.5567 10.5543C12.5347 10.5438 12.5106 10.5344 12.4875 10.5271C12.5473 10.3361 12.6124 10.1472 12.6354 9.94776C12.6396 9.90998 12.6396 9.8722 12.6407 9.83442C12.7467 9.8575 12.8516 9.99708 12.9482 10.0412ZM13.5495 11.7077C13.5495 11.6269 13.5537 11.5629 13.518 11.4873C13.4803 11.4055 13.4236 11.333 13.369 11.2606C13.3911 11.247 13.4131 11.2323 13.4362 11.2197C13.6387 11.1064 13.8539 11.0119 14.0407 10.8734C14.048 11.0665 14.0123 11.2659 14.0701 11.4474C14.0921 11.5146 14.1425 11.5639 14.1697 11.6279C14.1771 11.6447 14.1823 11.6615 14.1876 11.6783C13.9735 11.6794 13.7615 11.6857 13.5495 11.7077ZM11.8641 10.4305C11.8484 10.4379 11.8326 10.4462 11.8095 10.4525C11.7728 10.463 11.7361 10.4662 11.6983 10.4683L11.863 10.3581C11.863 10.3822 11.863 10.4064 11.8641 10.4305ZM10.4631 13.1538C10.4043 13.2 10.3487 13.2525 10.2962 13.3071C10.2406 13.2116 10.2081 13.1035 10.1409 13.0059C10.0863 12.9272 10.0223 12.8432 9.96038 12.7666C9.85019 12.6302 9.80506 12.4853 9.79247 12.3206C10.0916 12.3227 10.3844 12.3237 10.6772 12.3017C10.6793 12.329 10.6793 12.3563 10.6845 12.3835C10.7118 12.5378 10.7832 12.6543 10.8975 12.7571C10.928 12.7844 10.9563 12.8149 10.9857 12.8443C10.8062 12.9387 10.6226 13.0269 10.4631 13.1538ZM21.6755 12.2849C21.9011 12.2398 22.1246 12.2524 22.3503 12.2051C22.6084 12.1527 22.8813 12.1936 23.1426 12.1537C23.2108 12.1443 23.278 12.1411 23.3462 12.1327C23.4574 12.1191 23.5676 12.0698 23.6778 12.0435C23.9003 11.9921 24.1333 11.9365 24.361 11.9344C24.361 11.8231 24.1354 11.8336 23.9129 11.8221C23.8352 11.8179 23.7607 11.8021 23.6852 11.7885C23.7103 11.7885 23.7366 11.7885 23.7618 11.7885C23.7933 11.7885 23.8248 11.7875 23.8574 11.7875C23.7828 11.7644 23.7082 11.7339 23.6379 11.7129C23.4417 11.6531 23.2612 11.6185 23.0565 11.6206C22.9359 11.6227 22.8194 11.6269 22.7018 11.608C22.5979 11.5902 22.4961 11.5933 22.3912 11.5933C22.1614 11.5933 21.9294 11.586 21.6996 11.5954C21.4383 11.6069 21.1801 11.6552 20.9188 11.672C20.839 11.6773 20.7572 11.6773 20.6764 11.6794C20.6932 11.5723 20.7205 11.4695 20.7656 11.3719C20.7666 11.3656 20.7687 11.3603 20.7698 11.354C20.774 11.3047 20.7572 11.2827 20.7897 11.2407C20.8275 11.1903 20.9052 11.1935 20.9471 11.1609C21.0132 11.1085 20.9219 10.9983 20.9377 10.9311C20.9545 10.8587 21.0437 10.7936 21.1046 10.7485C21.1455 10.7181 21.1654 10.6971 21.1959 10.6519C21.2515 10.5711 21.3134 10.4714 21.3869 10.4064C21.4614 10.3403 21.5537 10.3056 21.6314 10.2458C21.7668 10.1409 21.8549 9.97399 22.0071 9.89214C22.0522 9.86905 22.1036 9.84911 22.1488 9.82707C22.3104 9.74836 22.4583 9.74311 22.641 9.74102C22.917 9.73682 23.193 9.74206 23.469 9.74206C23.511 9.73997 23.5928 9.64132 23.4984 9.58675C23.4637 9.56786 23.4364 9.58045 23.3997 9.5731C23.3609 9.56576 23.3262 9.55211 23.2864 9.54477C22.961 9.48495 22.6703 9.22048 22.324 9.35901C22.238 9.3926 22.1593 9.44822 22.0753 9.48705C21.9924 9.52693 21.9063 9.52588 21.8171 9.53952C21.6734 9.56156 21.5054 9.59094 21.3711 9.64342C21.2536 9.68959 21.1171 9.71583 21.0174 9.79139C20.9797 9.81972 20.9744 9.83756 20.9429 9.8701C20.8894 9.92572 20.8065 9.93831 20.7498 9.98974C20.6585 10.0726 20.6333 10.1891 20.5882 10.2983C20.541 10.4085 20.4864 10.5113 20.456 10.6268C20.4224 10.7579 20.3332 10.886 20.2377 10.9815C20.1863 11.0339 20.138 11.077 20.0761 11.1169C19.99 11.1725 19.968 11.227 19.9638 11.333C19.9596 11.4359 19.9942 11.5177 19.9743 11.6164C19.9711 11.6342 19.9701 11.6521 19.9669 11.6699C19.9208 11.6678 19.8735 11.6678 19.8274 11.6647C19.672 11.6521 19.5157 11.6353 19.3604 11.6206C19.3719 11.5608 19.3908 11.502 19.3981 11.4443C19.4034 11.4023 19.4128 11.3456 19.4034 11.3037C19.3855 11.2218 19.2806 11.1515 19.2722 11.0675C19.268 11.0245 19.2764 10.9563 19.2858 10.9175C19.3037 10.8461 19.3698 10.7905 19.3824 10.7191C19.3918 10.6593 19.3729 10.5512 19.3289 10.6152C19.3331 10.5648 19.0308 10.5764 19.0046 10.5753C18.928 10.5711 18.8493 10.547 18.7989 10.5974C18.7674 10.6278 18.7716 10.6624 18.7674 10.6992C18.7622 10.7485 18.7391 10.7894 18.7307 10.8366C18.7097 10.9594 18.8031 11.0581 18.7978 11.1746C18.7916 11.2921 18.8125 11.4075 18.8062 11.5261C18.8052 11.5419 18.8041 11.5576 18.8041 11.5723C18.7926 11.5723 18.7811 11.5702 18.7706 11.5702C18.5785 11.5587 18.3844 11.5597 18.1913 11.5629C18.2018 11.523 18.2123 11.4831 18.2175 11.4443C18.2227 11.4023 18.2322 11.3456 18.2227 11.3037C18.2039 11.2218 18.1 11.1515 18.0916 11.0675C18.0874 11.0245 18.0947 10.9563 18.1052 10.9175C18.122 10.8461 18.1892 10.7905 18.2007 10.7191C18.2112 10.6593 18.1923 10.5512 18.1482 10.6152C18.1524 10.5648 17.8491 10.5764 17.824 10.5753C17.7473 10.5711 17.6686 10.547 17.6183 10.5974C17.5868 10.6278 17.591 10.6624 17.5868 10.6992C17.5815 10.7485 17.5584 10.7894 17.55 10.8366C17.528 10.9594 17.6225 11.0581 17.6162 11.1746C17.6109 11.2921 17.6319 11.4075 17.6256 11.5261C17.6246 11.5377 17.6235 11.5492 17.6235 11.5608C17.4724 11.5587 17.3202 11.5555 17.1691 11.5503C17.1775 11.5146 17.1869 11.4789 17.1911 11.4443C17.1964 11.4023 17.2058 11.3456 17.1974 11.3037C17.1785 11.2218 17.0746 11.1515 17.0652 11.0675C17.061 11.0245 17.0694 10.9563 17.0788 10.9175C17.0967 10.8461 17.1628 10.7905 17.1754 10.7191C17.1848 10.6593 17.167 10.5512 17.1229 10.6152C17.1261 10.5648 16.8238 10.5764 16.7986 10.5753C16.721 10.5711 16.6423 10.547 16.5919 10.5974C16.5615 10.6278 16.5646 10.6624 16.5604 10.6992C16.5552 10.7485 16.5321 10.7894 16.5237 10.8366C16.5027 10.9594 16.5971 11.0581 16.5908 11.1746C16.5845 11.2921 16.6055 11.4075 16.5992 11.5261C16.5992 11.5293 16.5992 11.5324 16.5992 11.5366C16.5489 11.5366 16.4995 11.5356 16.4492 11.5377C16.2225 11.5471 15.9989 11.5933 15.7723 11.609C15.3871 11.6353 15.0009 11.6783 14.6147 11.6783C14.6263 11.6216 14.6336 11.566 14.6378 11.5251C14.6493 11.3981 14.6452 11.248 14.6378 11.121C14.6252 10.9185 14.4919 10.7286 14.3303 10.6037V10.6016C14.4321 10.4872 14.5287 10.3686 14.6305 10.2584C14.8173 10.0538 15.0083 9.85541 15.1877 9.64342C15.3 9.51013 15.4039 9.37371 15.5152 9.24147C15.5456 9.26771 15.576 9.2908 15.6096 9.31598C15.6925 9.37685 15.7586 9.45556 15.8436 9.51328C15.8835 9.54057 15.9076 9.55211 15.9234 9.60039C15.9349 9.63922 15.9307 9.67595 15.9591 9.70638C16.0283 9.78404 16.1028 9.70638 16.1994 9.68434C16.2088 9.73787 16.2214 9.7662 16.2823 9.7725C16.3012 9.7746 16.3243 9.76515 16.3432 9.7683C16.3862 9.77355 16.4114 9.80503 16.4471 9.82182C16.4817 9.74102 16.531 9.68854 16.5992 9.62557C16.6286 9.59934 16.6591 9.56471 16.6916 9.54582C16.7367 9.51958 16.8018 9.52483 16.8343 9.47235C16.6989 9.43667 16.6129 9.33802 16.4964 9.27086C16.4219 9.22888 16.3705 9.16277 16.3148 9.0998C16.2561 9.03263 16.1941 8.96127 16.1102 8.92244C16.0399 8.89201 15.9832 8.85213 15.9328 8.79755C16.0315 8.69996 16.1291 8.60131 16.2288 8.50371C16.2613 8.53414 16.297 8.56248 16.3348 8.59081C16.4177 8.65168 16.4848 8.73039 16.5688 8.78811C16.6087 8.81539 16.6328 8.82589 16.6486 8.87521C16.6612 8.91404 16.657 8.95077 16.6842 8.98121C16.7546 9.05887 16.828 8.98121 16.9246 8.95917C16.9351 9.01164 16.9466 9.04103 17.0075 9.04733C17.0264 9.04942 17.0495 9.03998 17.0683 9.04208C17.1114 9.04732 17.1376 9.07986 17.1722 9.09665C17.2079 9.01584 17.2562 8.96232 17.3255 8.9004C17.3548 8.87416 17.3842 8.83953 17.4168 8.81959C17.4619 8.79336 17.528 8.79965 17.5595 8.74718C17.4241 8.7115 17.3381 8.61285 17.2216 8.54569C17.1471 8.50371 17.0956 8.43759 17.0411 8.37462C16.9812 8.30746 16.9204 8.2361 16.8354 8.19727C16.7598 8.16368 16.6968 8.12275 16.6444 8.05979C16.7703 7.91601 16.892 7.76909 17.0159 7.62216C17.0631 7.67254 17.1124 7.71347 17.1701 7.75545C17.253 7.81631 17.3192 7.89502 17.4042 7.95274C17.444 7.98003 17.4682 7.99157 17.4829 8.03985C17.4955 8.07868 17.4913 8.11541 17.5196 8.14584C17.5899 8.2235 17.6634 8.14584 17.7599 8.1238C17.7694 8.17733 17.782 8.20566 17.8418 8.21196C17.8617 8.21406 17.8848 8.20461 17.9037 8.20776C17.9467 8.21301 17.9719 8.24449 18.0076 8.26128C18.0422 8.18152 18.0916 8.128 18.1598 8.06503C18.1892 8.0388 18.2185 8.00417 18.2521 7.98528C18.2973 7.95799 18.3623 7.96429 18.3949 7.91286C18.2595 7.87613 18.1724 7.77748 18.0559 7.71137C17.9814 7.66834 17.931 7.60222 17.8754 7.53926C17.8166 7.47209 17.7547 7.40073 17.6707 7.36295C17.5941 7.32832 17.5312 7.28739 17.4787 7.22337C17.4566 7.19818 17.4388 7.16985 17.421 7.14151C17.5196 7.02293 17.6204 6.90643 17.7232 6.79099C17.7431 6.7763 17.7631 6.76161 17.783 6.74797C17.8051 6.77106 17.8271 6.79309 17.8491 6.81618C17.9478 6.92008 18.1094 6.93792 18.229 7.01768C18.291 7.05966 18.3361 7.10583 18.3875 7.15621C18.4253 7.19189 18.4694 7.21393 18.5124 7.24121C18.5932 7.29159 18.6646 7.35665 18.7517 7.39233C18.9374 7.46789 19.1326 7.47209 19.3278 7.45425C19.4349 7.44481 19.5451 7.46789 19.6532 7.4637C19.7434 7.4595 19.8337 7.45845 19.9239 7.4616C20.1223 7.47104 20.3343 7.51407 20.5284 7.45005C20.7383 7.37974 20.8936 7.1688 21.0479 7.01768C21.1938 6.876 21.3134 6.71019 21.4582 6.56746C21.5243 6.5024 21.5936 6.43943 21.6503 6.36596C21.6482 6.36701 21.6461 6.36806 21.6429 6.36806C21.6566 6.35442 21.666 6.34078 21.6776 6.32714C21.6681 6.34078 21.6608 6.35442 21.6503 6.36596C21.6618 6.36282 21.6723 6.35757 21.6797 6.34917C21.6943 6.33448 21.7017 6.31244 21.708 6.29041C21.7258 6.26417 21.7426 6.23793 21.7626 6.21065C21.8591 6.07842 21.8234 5.89581 21.8003 5.73944C21.7909 5.68382 21.7898 5.62505 21.7919 5.57048C21.7951 5.47708 21.7972 5.48337 21.6713 5.47393C21.6723 5.58622 21.6482 5.68172 21.5915 5.78247C21.5432 5.86957 21.517 5.96402 21.4551 6.04588C21.4036 6.1141 21.3617 6.18756 21.3123 6.25787C21.2525 6.34078 21.1707 6.40585 21.1046 6.48351C21.0762 6.51604 21.05 6.54857 21.0237 6.5811C20.8013 6.66716 20.5809 6.73747 20.3416 6.77211C20.1989 6.79204 20.0477 6.84557 19.9061 6.84242C19.6962 6.83927 19.4747 6.80254 19.2722 6.75531C19.14 6.72488 19.0287 6.66926 18.9017 6.62413C18.7916 6.58425 18.7139 6.55172 18.6236 6.47511C18.5649 6.42578 18.5218 6.38276 18.4526 6.35127C18.4075 6.33028 18.3613 6.31454 18.3193 6.29145C18.4767 6.16972 18.6373 6.05113 18.7842 5.9189C18.8933 5.8213 19.0119 5.7132 19.0938 5.59147C19.2229 5.39942 19.3887 5.2504 19.5157 5.0573C19.6595 4.83796 19.8819 4.67319 20.0394 4.4612C20.0803 4.40558 20.1254 4.35521 20.1674 4.30169C20.2367 4.21353 20.2797 4.10124 20.3395 4.00469C20.4602 3.81054 20.5861 3.60695 20.7456 3.44428C20.6659 3.36557 20.5148 3.53244 20.3489 3.68146C20.2902 3.73393 20.2272 3.77591 20.1642 3.81894C20.1821 3.8011 20.201 3.78325 20.2188 3.76436C20.2408 3.74233 20.2629 3.71924 20.286 3.69615C20.2167 3.73183 20.1422 3.76437 20.0782 3.799C19.8966 3.89555 19.7445 3.99839 19.6017 4.14532C19.5178 4.23137 19.438 4.31638 19.3415 4.38669C19.2554 4.44756 19.1861 4.52207 19.1116 4.59658C18.949 4.7582 18.78 4.91667 18.6247 5.08668C18.4473 5.27978 18.2983 5.49597 18.1262 5.69326C18.0737 5.75308 18.015 5.8108 17.9593 5.86957C17.8964 5.78247 17.8428 5.69012 17.8051 5.58937C17.8019 5.58412 17.7988 5.57887 17.7956 5.57258C17.7641 5.53585 17.7368 5.53165 17.7295 5.47813C17.7211 5.41621 17.7778 5.36374 17.7841 5.31126C17.7946 5.22731 17.6508 5.21366 17.6151 5.15594C17.5763 5.09193 17.5931 4.98278 17.6046 4.90827C17.612 4.8579 17.6109 4.82851 17.6004 4.77499C17.5826 4.67949 17.5553 4.5651 17.5616 4.46645C17.5679 4.3678 17.6088 4.27755 17.6214 4.17995C17.6424 4.00994 17.5878 3.83048 17.6371 3.66467C17.6518 3.61639 17.6749 3.56602 17.6917 3.51774C17.7494 3.34878 17.8502 3.23964 17.9782 3.10845C18.1703 2.91116 18.3697 2.72016 18.5649 2.52496C18.5922 2.49452 18.5806 2.36544 18.4757 2.39483C18.4368 2.40532 18.4263 2.43366 18.3959 2.45464C18.3634 2.47563 18.3287 2.49138 18.2962 2.51446C18.0233 2.70127 17.6309 2.72016 17.4839 3.06333C17.4472 3.14833 17.4304 3.24279 17.3989 3.32989C17.3685 3.417 17.3066 3.47682 17.253 3.55028C17.167 3.66572 17.0694 3.80634 17.0117 3.93857C16.9613 4.05401 16.8826 4.16946 16.8658 4.29329C16.8585 4.34052 16.8679 4.35626 16.8689 4.40139C16.87 4.47905 16.8207 4.54621 16.8175 4.62177C16.8112 4.74561 16.8752 4.8453 16.9204 4.95445C16.9655 5.06569 16.9991 5.17798 17.0599 5.27978C17.1282 5.39732 17.1554 5.55054 17.1554 5.68592C17.1565 5.75938 17.1523 5.82445 17.1366 5.89581C17.1156 5.99656 17.1397 6.05008 17.2111 6.12774C17.2814 6.2033 17.3632 6.23793 17.4189 6.32084C17.4294 6.33553 17.4409 6.35022 17.4514 6.36492C17.4168 6.39535 17.3842 6.42893 17.3485 6.45937C17.23 6.56011 17.1082 6.65876 16.9865 6.75846C16.954 6.70809 16.9246 6.65352 16.8889 6.60629C16.8637 6.57376 16.8301 6.52653 16.7934 6.50344C16.7241 6.45832 16.5992 6.48246 16.5342 6.42893C16.5006 6.40165 16.4576 6.34812 16.4376 6.31349C16.3998 6.25157 16.4072 6.16447 16.3652 6.1057C16.3306 6.05638 16.2403 5.99341 16.255 6.06897C16.2225 6.03119 16.0157 6.25367 15.9969 6.27046C15.9391 6.32189 15.8678 6.36072 15.8667 6.43208C15.8667 6.47511 15.894 6.49715 15.9171 6.52548C15.9475 6.56431 15.9601 6.60944 15.9885 6.64932C16.0598 6.75112 16.1952 6.75426 16.2739 6.84032C16.3526 6.92847 16.4492 6.99459 16.5289 7.08274L16.5604 7.11738C16.552 7.12472 16.5426 7.13207 16.5342 7.13941C16.3904 7.26745 16.255 7.40598 16.1196 7.54346C16.0986 7.50882 16.0787 7.47314 16.0546 7.44166C16.0283 7.40808 15.9948 7.36085 15.9591 7.33881C15.8888 7.29368 15.7649 7.31782 15.6988 7.2643C15.6652 7.23701 15.6232 7.18349 15.6023 7.14886C15.5645 7.08589 15.5718 6.99984 15.5298 6.94107C15.4952 6.89174 15.405 6.82773 15.4197 6.90434C15.3871 6.86656 15.1814 7.08904 15.1615 7.10583C15.1048 7.15726 15.0324 7.19608 15.0324 7.26745C15.0314 7.31048 15.0586 7.33251 15.0817 7.36085C15.1132 7.39968 15.1258 7.44481 15.1531 7.48364C15.2245 7.58648 15.3609 7.58963 15.4385 7.67569C15.5183 7.76279 15.6148 7.82996 15.6936 7.91811C15.702 7.92756 15.7093 7.93595 15.7177 7.94435C15.6086 8.04929 15.4984 8.15529 15.3882 8.25813C15.3693 8.22665 15.3504 8.19517 15.3294 8.16683C15.3032 8.1343 15.2696 8.08707 15.2339 8.06398C15.1625 8.01886 15.0387 8.043 14.9736 7.98947C14.94 7.96219 14.8981 7.90867 14.8771 7.87403C14.8393 7.81107 14.8466 7.72501 14.8047 7.66624C14.77 7.61692 14.6798 7.55395 14.6945 7.62951C14.6619 7.59173 14.4552 7.81422 14.4363 7.83101C14.3796 7.88243 14.3072 7.92126 14.3062 7.99262C14.3062 8.03565 14.3335 8.05769 14.3566 8.08602C14.388 8.12485 14.4006 8.16998 14.4279 8.20986C14.4993 8.31166 14.6357 8.3148 14.7134 8.40086C14.7921 8.48901 14.8886 8.55513 14.9684 8.64328C14.9705 8.64643 14.9726 8.64853 14.9757 8.65063C14.94 8.68631 14.9044 8.72199 14.8708 8.75872C14.7165 8.92454 14.5916 9.11659 14.4426 9.28765C14.2275 9.53427 14.0617 9.72947 13.9179 9.89214C13.857 9.82707 13.7982 9.79034 13.7069 9.73367C13.6083 9.67175 13.5978 9.67175 13.5159 9.64132C13.475 9.62557 13.4498 9.61193 13.4131 9.5836C13.3249 9.51433 13.2305 9.52693 13.1203 9.50594C13.0374 9.49019 12.9839 9.2887 12.901 9.30444C12.8107 9.32123 12.7163 9.32543 12.6218 9.32963C12.6166 9.26666 12.6124 9.20474 12.6092 9.14178C12.5977 8.86577 12.5924 8.58976 12.5683 8.31271C12.5546 8.13955 12.5315 7.96953 12.5169 7.79742C12.5557 7.79427 12.5945 7.78903 12.6354 7.78273C12.7372 7.76804 12.8401 7.77643 12.9408 7.75754C12.9881 7.7481 13.0132 7.7397 13.0584 7.76279C13.0951 7.78168 13.1171 7.81002 13.1591 7.81212C13.263 7.81841 13.2609 7.71137 13.3134 7.62636C13.3575 7.6568 13.3858 7.66939 13.4341 7.63056C13.4488 7.61902 13.4582 7.59593 13.474 7.58438C13.5086 7.5571 13.5485 7.5613 13.5852 7.5487C13.5537 7.46684 13.5495 7.39548 13.5548 7.30208C13.5569 7.26325 13.5537 7.21707 13.5632 7.18034C13.5758 7.12997 13.6261 7.08799 13.6125 7.02817C13.4918 7.09849 13.3596 7.09009 13.2305 7.12472C13.1476 7.14781 13.0657 7.13732 12.9818 7.13207C12.8926 7.12577 12.7981 7.11843 12.711 7.15201C12.6396 7.17929 12.5714 7.19189 12.498 7.18874C12.498 7.04916 12.498 6.91063 12.499 6.77211C12.5441 6.76896 12.5882 6.76476 12.6354 6.75741C12.7372 6.74167 12.8401 6.75112 12.9408 6.73118C12.9881 6.72278 13.0132 6.71333 13.0584 6.73747C13.0951 6.75636 13.1171 6.7847 13.1591 6.7868C13.263 6.79204 13.2609 6.685 13.3134 6.60104C13.3575 6.63148 13.3858 6.64302 13.4341 6.60524C13.4488 6.59265 13.4582 6.56956 13.474 6.55802C13.5086 6.53178 13.5485 6.53598 13.5852 6.52338C13.5537 6.44153 13.5495 6.36911 13.5548 6.27676C13.5569 6.23688 13.5537 6.19176 13.5632 6.15503C13.5758 6.1036 13.6261 6.06162 13.6125 6.00285C13.4918 6.07212 13.3596 6.06372 13.2305 6.09941C13.1476 6.12144 13.0657 6.11095 12.9818 6.1057C12.8926 6.10045 12.7981 6.09311 12.711 6.12564C12.6333 6.15503 12.5609 6.17077 12.4801 6.16342C12.4665 5.97242 12.4486 5.78247 12.4319 5.59147C12.5011 5.59252 12.5651 5.58727 12.6354 5.57573C12.7372 5.56103 12.8401 5.56943 12.9408 5.55054C12.9881 5.54109 13.0132 5.5327 13.0584 5.55579C13.0951 5.57468 13.1171 5.60301 13.1591 5.60616C13.263 5.61141 13.2609 5.50436 13.3134 5.42041C13.3575 5.45084 13.3858 5.46238 13.4341 5.42355C13.4488 5.41201 13.4582 5.38892 13.474 5.37738C13.5086 5.35009 13.5485 5.35534 13.5852 5.3417C13.5537 5.26089 13.5495 5.18848 13.5548 5.09508C13.5569 5.05625 13.5537 5.01112 13.5632 4.97334C13.5758 4.92296 13.6261 4.88099 13.6125 4.82117C13.4918 4.89148 13.3596 4.88308 13.2305 4.91772C13.1476 4.94081 13.0657 4.93031 12.9818 4.92506C12.8926 4.91877 12.7981 4.91142 12.711 4.945C12.6333 4.97439 12.5599 4.99013 12.478 4.98278C12.4444 4.97963 12.4119 4.97229 12.3783 4.96599C12.3647 4.81172 12.3531 4.65745 12.3447 4.50318C12.3489 4.47905 12.3521 4.45386 12.3563 4.43077C12.3878 4.43077 12.4203 4.43182 12.4518 4.43287C12.5945 4.43497 12.7215 4.33422 12.8632 4.30693C12.9366 4.29224 12.9996 4.29224 13.0731 4.29119C13.1245 4.29119 13.1707 4.2744 13.2221 4.26391C13.3134 4.24292 13.4099 4.23767 13.497 4.20094C13.6818 4.12328 13.8224 3.9879 13.9483 3.83783C14.0176 3.75492 14.111 3.69405 14.1844 3.61429C14.2464 3.54818 14.3083 3.48311 14.3754 3.42119C14.5213 3.28791 14.7029 3.16827 14.7942 2.98672C14.8928 2.78837 14.8529 2.52811 14.8561 2.31297C14.8582 2.10937 14.8257 1.90788 14.8278 1.70323C14.8288 1.61193 14.833 1.51748 14.8215 1.42618C14.8204 1.42828 14.8194 1.43038 14.8173 1.43247C14.8173 1.41358 14.8152 1.39679 14.8131 1.38C14.8162 1.39469 14.8194 1.41044 14.8215 1.42618C14.8267 1.41568 14.8299 1.40414 14.8299 1.3926C14.8299 1.37266 14.8194 1.35167 14.8078 1.33173C14.8026 1.30129 14.7963 1.27086 14.791 1.23728C14.7658 1.07566 14.6116 0.970714 14.4835 0.877313C14.4384 0.84373 14.3954 0.803852 14.3587 0.762923C14.2946 0.694708 14.3009 0.697857 14.2054 0.779715C14.2852 0.859474 14.3345 0.943429 14.367 1.05467C14.3943 1.15122 14.4426 1.23623 14.4563 1.33697C14.4688 1.42198 14.4909 1.50384 14.5056 1.58885C14.5224 1.68959 14.5098 1.79349 14.5182 1.89529C14.5213 1.93726 14.5255 1.97924 14.5297 2.02122C14.4342 2.23951 14.3282 2.4452 14.1823 2.63935C14.0963 2.75269 14.026 2.89857 13.9252 2.99616C13.7741 3.14204 13.5915 3.27322 13.4141 3.38341C13.2998 3.45478 13.1812 3.49361 13.0605 3.55133C12.9545 3.6017 12.8758 3.63318 12.7582 3.64368C12.6816 3.64998 12.6208 3.64997 12.5494 3.67621C12.5022 3.69405 12.4591 3.71504 12.413 3.72868C12.4381 3.53139 12.4675 3.33409 12.4791 3.13679C12.4864 2.98987 12.4927 2.83035 12.4654 2.68552C12.4214 2.45884 12.4329 2.23531 12.3867 2.01073C12.3332 1.75256 12.3741 1.4797 12.3343 1.21839C12.3248 1.15017 12.3217 1.08301 12.3133 1.01479C12.2996 0.90355 12.2503 0.793357 12.2251 0.683164C12.1726 0.460679 12.117 0.227701 12.1149 -3.05176e-05C12.0037 -3.05176e-05 12.0142 0.2256 12.0026 0.448085C11.9984 0.525745 11.9827 0.600257 11.969 0.675818C11.969 0.650631 11.969 0.624395 11.969 0.599208C11.969 0.566675 11.969 0.535192 11.968 0.502659C11.9449 0.57717 11.9145 0.651681 11.8935 0.721995C11.8347 0.919292 11.799 1.09875 11.8022 1.30444C11.8032 1.42408 11.8074 1.54057 11.7885 1.65916C11.7707 1.76305 11.7749 1.86485 11.7749 1.9698C11.7738 2.19963 11.7665 2.43156 11.777 2.66034C11.7875 2.9227 11.8358 3.18087 11.8526 3.44218C11.8578 3.52194 11.8578 3.6038 11.8599 3.68461C11.7539 3.66782 11.6511 3.63948 11.5524 3.5954C11.5472 3.59435 11.5409 3.59225 11.5346 3.59121C11.4852 3.58701 11.4632 3.60275 11.4212 3.57127C11.3709 3.53349 11.374 3.45582 11.3415 3.41385C11.289 3.34773 11.1788 3.43903 11.1127 3.42329C11.0392 3.40545 10.9742 3.3173 10.929 3.25643C10.8996 3.2155 10.8776 3.19556 10.8325 3.16408C10.7517 3.10951 10.652 3.04759 10.5869 2.97413C10.5208 2.89961 10.4862 2.80726 10.4263 2.7296C10.3214 2.59422 10.1556 2.50607 10.0737 2.35285C10.0496 2.30877 10.0296 2.25735 10.0076 2.21117C9.9289 2.0506 9.92365 1.90158 9.92155 1.72003C9.91735 1.44402 9.9226 1.16696 9.9226 0.890956C9.9205 0.850027 9.82185 0.768169 9.76728 0.86262C9.74839 0.897253 9.76099 0.92454 9.75364 0.961271C9.74629 0.999052 9.73265 1.03473 9.7253 1.07461C9.66549 1.39889 9.40102 1.69064 9.53955 2.03696C9.57418 2.12302 9.62876 2.20173 9.66863 2.28463C9.70746 2.36859 9.70642 2.45465 9.72006 2.54385C9.7421 2.68658 9.77148 2.85554 9.82395 2.98987C9.87118 3.10741 9.89637 3.24384 9.97193 3.34353C10.0003 3.38131 10.0181 3.38656 10.0506 3.41805C10.1063 3.47157 10.1189 3.55342 10.1703 3.61114C10.2542 3.70245 10.3697 3.72659 10.4788 3.77276C10.589 3.81894 10.6919 3.87456 10.8073 3.90394C10.9385 3.93858 11.0665 4.02778 11.162 4.12328C11.2145 4.1747 11.2575 4.22298 11.2974 4.2849C11.353 4.37095 11.4086 4.39194 11.5146 4.39614C11.6164 4.40034 11.6983 4.36675 11.7969 4.38564C11.8148 4.38984 11.8337 4.39089 11.8515 4.39404C11.8484 4.44022 11.8494 4.48744 11.8452 4.53362C11.8326 4.68894 11.8169 4.8453 11.8011 5.00062C11.7413 4.98908 11.6825 4.97019 11.6248 4.96284C11.5828 4.95655 11.5262 4.94815 11.4842 4.95655C11.4034 4.97544 11.332 5.07933 11.2481 5.08878C11.205 5.09298 11.1368 5.08458 11.098 5.07513C11.0266 5.05729 10.971 4.99118 10.8996 4.97859C10.8409 4.96809 10.7317 4.98698 10.7968 5.03106C10.7464 5.02791 10.758 5.33015 10.7559 5.35639C10.7517 5.433 10.7286 5.51171 10.779 5.56208C10.8094 5.59252 10.844 5.58937 10.8797 5.59357C10.929 5.59881 10.97 5.6219 11.0172 5.62925C11.14 5.65129 11.2386 5.55684 11.3551 5.56313C11.4726 5.56943 11.5881 5.54844 11.7067 5.55474C11.7224 5.55474 11.7382 5.55579 11.7529 5.55683C11.7529 5.56838 11.7508 5.57887 11.7508 5.59042C11.7392 5.78247 11.7413 5.97557 11.7434 6.16972C11.7035 6.15922 11.6636 6.14873 11.6248 6.14348C11.5828 6.13823 11.5262 6.12879 11.4842 6.13823C11.4034 6.15607 11.332 6.26102 11.2481 6.26942C11.205 6.27361 11.1368 6.26627 11.098 6.25577C11.0266 6.23898 10.971 6.17182 10.8996 6.15922C10.8409 6.14978 10.7317 6.16867 10.7968 6.21274C10.7464 6.20855 10.758 6.51184 10.7559 6.53703C10.7517 6.61364 10.7286 6.69235 10.779 6.74272C10.8094 6.7742 10.844 6.77001 10.8797 6.7742C10.929 6.77945 10.97 6.80254 11.0172 6.81094C11.14 6.83192 11.2386 6.73852 11.3551 6.74482C11.4726 6.75007 11.5881 6.72908 11.7067 6.73537C11.7182 6.73642 11.7308 6.73642 11.7424 6.73747C11.7392 6.88859 11.7361 7.04077 11.7308 7.19189C11.6951 7.18349 11.6595 7.17405 11.6248 7.16985C11.5828 7.16355 11.5262 7.15411 11.4842 7.16355C11.4034 7.18244 11.332 7.28634 11.2481 7.29473C11.205 7.29998 11.1368 7.29159 11.098 7.28214C11.0266 7.2643 10.971 7.19819 10.8996 7.18559C10.8409 7.1751 10.7317 7.19399 10.7968 7.23806C10.7464 7.23387 10.758 7.53716 10.7559 7.56235C10.7517 7.63896 10.7286 7.71767 10.779 7.76909C10.8094 7.79952 10.844 7.79637 10.8797 7.79952C10.929 7.80477 10.97 7.82786 11.0172 7.83625C11.14 7.85829 11.2386 7.76384 11.3551 7.77014C11.4726 7.77538 11.5881 7.7544 11.7067 7.76174C11.7098 7.76174 11.714 7.76174 11.7172 7.76174C11.7172 7.81212 11.7161 7.86144 11.7182 7.91181C11.7277 8.1385 11.7749 8.36203 11.7896 8.58871C11.8116 8.9067 11.8442 9.22573 11.8547 9.54477C11.8505 9.54791 11.8452 9.55001 11.841 9.55316C11.7203 9.55631 11.5996 9.56261 11.481 9.5752C11.4275 9.5815 11.3939 9.61613 11.3457 9.63292C11.3058 9.64761 11.2596 9.64971 11.2176 9.6665C11.1064 9.71058 10.9794 9.7599 10.8734 9.79349C10.8293 9.80713 10.7853 9.81553 10.7412 9.82602C10.6698 9.7641 10.5974 9.70323 10.5292 9.64027C10.3245 9.45346 10.1262 9.26246 9.91421 9.08301C9.78093 8.97071 9.6445 8.86682 9.51227 8.75558C9.53745 8.72514 9.56159 8.69471 9.58678 8.66113C9.64765 8.57822 9.72635 8.51105 9.78407 8.4271C9.81136 8.38722 9.82185 8.36308 9.87118 8.34734C9.91001 8.33579 9.94674 8.33999 9.97717 8.31166C10.0548 8.24239 9.97717 8.16788 9.95514 8.07133C10.0076 8.06189 10.037 8.05034 10.0433 7.98842C10.0454 7.96953 10.0359 7.94645 10.038 7.92756C10.0433 7.88453 10.0758 7.85934 10.0926 7.82366C10.0129 7.78903 9.95933 7.74075 9.89637 7.67149C9.87013 7.6421 9.8355 7.61167 9.81661 7.57914C9.78932 7.53401 9.79562 7.46894 9.74315 7.43641C9.70746 7.57179 9.60882 7.65785 9.54165 7.77433C9.49967 7.8499 9.43356 7.90027 9.37059 7.95589C9.30342 8.01466 9.23206 8.07658 9.19323 8.16053C9.16175 8.23085 9.12292 8.28752 9.06835 8.33789C8.97075 8.23924 8.8721 8.14165 8.7745 8.043C8.80493 8.00941 8.83327 7.97478 8.8616 7.93595C8.92247 7.85304 9.00118 7.78588 9.0589 7.70192C9.08514 7.66204 9.09668 7.63791 9.146 7.62216C9.18483 7.60957 9.22052 7.61377 9.252 7.58648C9.32966 7.51617 9.252 7.44271 9.22996 7.34616C9.28243 7.33566 9.31182 7.32412 9.31812 7.26325C9.32021 7.24436 9.31077 7.22127 9.31287 7.20238C9.31812 7.15935 9.35065 7.13312 9.36744 7.09849C9.28663 7.0628 9.23311 7.01453 9.17119 6.94527C9.14496 6.91693 9.11032 6.88649 9.09143 6.85396C9.06415 6.80883 9.07044 6.74272 9.01797 6.71124C8.98229 6.84662 8.88364 6.93267 8.81648 7.04916C8.7745 7.12367 8.70838 7.1751 8.64542 7.23072C8.57825 7.28949 8.50584 7.35036 8.46806 7.43536C8.43447 7.51092 8.39355 7.57389 8.33058 7.62636C8.1868 7.50043 8.03988 7.37869 7.89296 7.25485C7.94333 7.20763 7.98426 7.1583 8.02624 7.10058C8.0871 7.01768 8.16581 6.95156 8.22353 6.86656C8.25082 6.82668 8.26236 6.80254 8.31064 6.7868C8.34947 6.77525 8.3862 6.77945 8.41663 6.75112C8.49429 6.6808 8.41663 6.60734 8.3946 6.51079C8.44707 6.50134 8.47645 6.4898 8.48275 6.42893C8.48485 6.40899 8.4754 6.38591 8.4775 6.36702C8.4838 6.32399 8.51528 6.2988 8.53207 6.26312C8.45232 6.22849 8.39879 6.18021 8.33583 6.11095C8.30959 6.08156 8.27496 6.05218 8.25607 6.0186C8.22878 5.97347 8.23508 5.9084 8.18365 5.87587C8.14692 6.01125 8.04827 6.09835 7.98111 6.21484C7.93913 6.28936 7.87302 6.33973 7.81005 6.39535C7.74288 6.45412 7.67152 6.51604 7.63374 6.59999C7.59911 6.6766 7.55818 6.73957 7.49416 6.79205C7.46898 6.81408 7.44064 6.83192 7.4123 6.85081C7.29372 6.75112 7.17723 6.65037 7.06179 6.54752C7.04709 6.52758 7.0324 6.50764 7.01876 6.4877C7.04185 6.46566 7.06389 6.44363 7.08697 6.42159C7.19087 6.32294 7.20871 6.16132 7.28847 6.04169C7.33045 5.97977 7.37662 5.93464 7.427 5.88322C7.46268 5.84544 7.48472 5.80136 7.512 5.75833C7.56238 5.67857 7.62744 5.60616 7.66312 5.51905C7.73869 5.3333 7.74288 5.1381 7.72504 4.9429C7.7156 4.83586 7.73869 4.72567 7.73449 4.61757C7.73029 4.52732 7.72924 4.43707 7.73239 4.34681C7.74183 4.14847 7.78486 3.93648 7.72084 3.74338C7.65053 3.53244 7.43959 3.37712 7.28847 3.22285C7.14679 3.07697 6.98098 2.95838 6.83825 2.81251C6.77319 2.74639 6.71022 2.67713 6.63676 2.62046C6.63781 2.62256 6.63886 2.62466 6.63886 2.6278C6.62626 2.61416 6.61157 2.60472 6.59793 2.59317C6.61157 2.60262 6.62521 2.61101 6.63676 2.62046C6.63361 2.60891 6.62836 2.59842 6.61997 2.59107C6.60527 2.57638 6.58323 2.56904 6.5612 2.56274C6.53496 2.5449 6.50872 2.52811 6.48144 2.50817C6.34921 2.41162 6.1666 2.4473 6.01023 2.47039C5.95461 2.47983 5.89584 2.48088 5.84127 2.47878C5.74787 2.47563 5.75416 2.47354 5.74472 2.59947C5.85701 2.59842 5.95251 2.62256 6.05326 2.67923C6.14037 2.7275 6.23482 2.75374 6.31667 2.81566C6.38489 2.86708 6.45835 2.90906 6.52866 2.95838C6.61157 3.0182 6.67664 3.10006 6.7543 3.16617C6.78578 3.19451 6.81936 3.22075 6.8519 3.24698C6.93795 3.46947 7.00826 3.68985 7.0429 3.93018C7.06284 4.07186 7.11636 4.22298 7.11321 4.36466C7.10901 4.57455 7.07333 4.79598 7.0261 4.99852C6.99567 5.13076 6.939 5.242 6.89492 5.36898C6.85609 5.47918 6.82251 5.55683 6.7459 5.64709C6.69658 5.70586 6.65355 5.74889 6.62206 5.81815C6.60108 5.86328 6.58533 5.90945 6.5612 5.95143C6.44051 5.79401 6.32192 5.63345 6.18969 5.48652C6.09209 5.37738 5.984 5.25984 5.86226 5.17693C5.67021 5.04785 5.52119 4.88203 5.32809 4.75505C5.10875 4.61128 4.94399 4.38879 4.732 4.23137C4.67637 4.19045 4.626 4.14532 4.57248 4.10334C4.48432 4.03408 4.37203 3.99105 4.27548 3.93123C4.08133 3.81054 3.87774 3.68461 3.71507 3.52509C3.63636 3.60485 3.80323 3.75597 3.95225 3.92178C4.00472 3.98055 4.04565 4.04352 4.08973 4.10649C4.07189 4.08865 4.05405 4.06976 4.03621 4.05192C4.01312 4.02988 3.98961 4.00792 3.96652 3.98483C4.0022 4.05409 4.03411 4.12853 4.06979 4.19254C4.16634 4.3741 4.26919 4.52627 4.41611 4.669C4.50216 4.75295 4.58717 4.83271 4.65748 4.92926C4.71835 5.01532 4.79286 5.08458 4.86738 5.15909C5.02899 5.32176 5.18746 5.49072 5.35747 5.64604C5.55057 5.8234 5.76676 5.97242 5.96406 6.14453C6.02388 6.197 6.08055 6.25577 6.14036 6.3114C6.05326 6.37436 5.95986 6.42788 5.86016 6.46566C5.85491 6.46881 5.84862 6.47196 5.84337 6.47511C5.80664 6.50659 5.80244 6.53388 5.74892 6.54123C5.687 6.55067 5.63453 6.49295 5.58205 6.48665C5.4981 6.47616 5.48445 6.61993 5.42673 6.65562C5.36272 6.69445 5.25357 6.67765 5.17906 6.66611C5.12869 6.65876 5.0993 6.66086 5.04578 6.67031C4.95028 6.68815 4.83484 6.71544 4.73724 6.70914C4.63859 6.70284 4.54834 6.66191 4.45074 6.64932C4.28073 6.62833 4.10127 6.68395 3.93546 6.63358C3.88613 6.61888 3.83681 6.5958 3.78854 6.58005C3.61852 6.52128 3.51043 6.42054 3.37925 6.2925C3.18195 6.10045 2.9899 5.90106 2.79575 5.70586C2.76532 5.67857 2.63623 5.69012 2.66562 5.79506C2.67611 5.83389 2.70445 5.84439 2.72439 5.87482C2.74643 5.90735 2.76217 5.94199 2.78526 5.97452C2.97311 6.24738 2.992 6.63987 3.33412 6.7868C3.41913 6.82353 3.51358 6.84032 3.60068 6.8718C3.68779 6.90224 3.74761 6.96416 3.82002 7.01768C3.93651 7.10373 4.07714 7.20238 4.20937 7.25905C4.32481 7.30943 4.44025 7.38814 4.56408 7.40493C4.61131 7.41227 4.62705 7.40283 4.67218 7.40178C4.74984 7.40073 4.817 7.45005 4.89256 7.4532C5.0164 7.4595 5.1161 7.39548 5.22524 7.35036C5.33648 7.30523 5.44877 7.27165 5.55057 7.21078C5.66811 7.14256 5.82133 7.11528 5.95671 7.11423C6.03017 7.11423 6.09524 7.11843 6.1666 7.13312C6.26735 7.15516 6.32087 7.13102 6.39853 7.05966C6.47409 6.98934 6.50872 6.90853 6.59163 6.85186C6.60737 6.84137 6.62102 6.82983 6.63571 6.81933C6.66614 6.85396 6.69972 6.8865 6.72911 6.92218C6.83091 7.04077 6.92956 7.1625 7.02925 7.28424C6.97888 7.31677 6.92431 7.34616 6.87708 7.38184C6.84455 7.40703 6.79732 7.44061 6.77424 7.47734C6.72911 7.54765 6.75325 7.67149 6.69972 7.73656C6.67244 7.77014 6.61892 7.81212 6.58428 7.8331C6.52237 7.87088 6.43526 7.86354 6.37649 7.90552C6.32717 7.94015 6.2642 8.0304 6.33976 8.01571C6.30198 8.04824 6.52447 8.25499 6.54126 8.27388C6.59268 8.3316 6.63151 8.40296 6.70287 8.40401C6.7459 8.40401 6.76794 8.37672 6.79627 8.35363C6.8351 8.3232 6.88023 8.31061 6.92011 8.28227C7.02191 8.21091 7.02506 8.07553 7.11111 7.99682C7.19927 7.91811 7.26538 7.82156 7.35354 7.7418C7.36508 7.73131 7.37662 7.72081 7.38817 7.71032C7.39551 7.71871 7.40286 7.72816 7.41021 7.73656C7.53824 7.88033 7.67572 8.01571 7.81425 8.15109C7.77961 8.17208 7.74393 8.19202 7.71245 8.21616C7.67887 8.24239 7.63164 8.27597 7.6096 8.31166C7.56448 8.38197 7.58861 8.50581 7.53509 8.57192C7.50781 8.6055 7.45428 8.64748 7.41965 8.66847C7.35668 8.70625 7.27063 8.69891 7.21186 8.74088C7.16253 8.77552 7.09852 8.86577 7.17513 8.85108C7.13735 8.88361 7.35878 9.0893 7.37662 9.10924C7.427 9.16591 7.46688 9.23833 7.53824 9.23833C7.58127 9.23938 7.60331 9.21209 7.63164 9.189C7.67047 9.15752 7.7156 9.14597 7.75443 9.11764C7.85727 9.04628 7.85937 8.90985 7.94648 8.83219C8.03358 8.75243 8.10075 8.65693 8.1889 8.57717C8.1973 8.56877 8.20674 8.56143 8.21514 8.55303C8.32008 8.66218 8.42503 8.77237 8.52893 8.88256C8.49744 8.90145 8.46596 8.92034 8.43762 8.94133C8.40404 8.96757 8.35786 9.00115 8.33478 9.03788C8.28965 9.10819 8.31379 9.23203 8.26026 9.2971C8.23298 9.33068 8.17946 9.37266 8.14482 9.39365C8.08186 9.43143 7.9958 9.42408 7.93703 9.46606C7.88771 9.50069 7.82474 9.59094 7.9003 9.57625C7.86252 9.60878 8.08501 9.81553 8.1018 9.83442C8.15322 9.89214 8.19205 9.9635 8.26341 9.96455C8.30644 9.96455 8.32848 9.93726 8.35681 9.91418C8.39564 9.88269 8.44077 9.87115 8.48065 9.84281C8.58245 9.77145 8.5856 9.63607 8.67165 9.55736C8.75981 9.47865 8.82592 9.3821 8.91408 9.30234C8.91722 9.30024 8.91932 9.29814 8.92142 9.295C8.9571 9.33068 8.99278 9.36636 9.02952 9.39994C9.19638 9.55421 9.38738 9.6791 9.55844 9.82812C9.77253 10.0149 9.94779 10.1639 10.0968 10.2941C9.99921 10.3675 9.90266 10.4756 9.84704 10.5774C9.80401 10.6561 9.78932 10.7453 9.76623 10.8314C9.73475 10.951 9.49652 11.0612 9.46924 11.1819C9.43775 11.3183 9.46924 11.4212 9.47868 11.5482C9.36639 11.5566 9.2541 11.5671 9.14286 11.5713C8.8658 11.5839 8.59084 11.5881 8.31379 11.6122C8.14063 11.6269 7.97061 11.6489 7.79745 11.6647C7.79536 11.6248 7.79011 11.586 7.78381 11.545C7.76807 11.4443 7.77752 11.3404 7.75758 11.2407C7.74918 11.1935 7.73973 11.1683 7.76387 11.1221C7.78276 11.0864 7.8111 11.0633 7.8132 11.0213C7.81844 10.9175 7.7114 10.9206 7.62744 10.8681C7.65788 10.823 7.67047 10.7947 7.63164 10.7474C7.61905 10.7317 7.59596 10.7223 7.58442 10.7065C7.55818 10.6729 7.56238 10.632 7.54978 10.5953C7.46793 10.6268 7.39551 10.631 7.30316 10.6257C7.26328 10.6236 7.21816 10.6278 7.18142 10.6173C7.13105 10.6047 7.08802 10.5543 7.02925 10.569C7.09852 10.6897 7.09012 10.8209 7.1258 10.95C7.14784 11.0329 7.13735 11.1158 7.1321 11.1987C7.12685 11.289 7.11951 11.3824 7.15204 11.4695C7.17933 11.5408 7.19192 11.609 7.18877 11.6825C7.05024 11.6836 6.91171 11.6825 6.77214 11.6815C6.77004 11.6374 6.76479 11.5923 6.75849 11.545C6.74275 11.4443 6.75115 11.3404 6.73226 11.2407C6.72281 11.1935 6.71442 11.1683 6.7375 11.1221C6.7564 11.0864 6.78473 11.0633 6.78788 11.0213C6.79313 10.9175 6.68608 10.9206 6.60213 10.8681C6.63256 10.823 6.6441 10.7947 6.60527 10.7474C6.59373 10.7317 6.57064 10.7223 6.5591 10.7065C6.53181 10.6729 6.53706 10.632 6.52342 10.5953C6.44261 10.6268 6.3702 10.631 6.27679 10.6257C6.23796 10.6236 6.19284 10.6278 6.15506 10.6173C6.10468 10.6047 6.0627 10.5543 6.00289 10.569C6.0732 10.6897 6.0648 10.8209 6.10049 10.95C6.12252 11.0329 6.11203 11.1158 6.10678 11.1987C6.10049 11.289 6.09314 11.3824 6.12672 11.4695C6.15611 11.5471 6.1708 11.6195 6.1645 11.7014C5.9735 11.715 5.78355 11.7318 5.5915 11.7486C5.5936 11.6794 5.5873 11.6153 5.57681 11.545C5.56107 11.4443 5.57051 11.3404 5.55162 11.2407C5.54217 11.1935 5.53378 11.1683 5.55687 11.1221C5.57576 11.0864 5.60409 11.0633 5.60619 11.0213C5.61249 10.9175 5.50439 10.9206 5.42044 10.8681C5.45087 10.823 5.46347 10.7947 5.42464 10.7474C5.41204 10.7317 5.39 10.7223 5.37741 10.7065C5.35117 10.6729 5.35537 10.632 5.34278 10.5953C5.26092 10.6268 5.18956 10.631 5.09616 10.6257C5.05733 10.6236 5.01115 10.6278 4.97442 10.6173C4.92405 10.6047 4.88207 10.5543 4.82225 10.569C4.89256 10.6897 4.88417 10.8209 4.9188 10.95C4.94189 11.0329 4.93139 11.1158 4.92614 11.1987C4.91985 11.289 4.9125 11.3824 4.94504 11.4695C4.97547 11.5482 4.99016 11.6206 4.98281 11.7035C4.97967 11.736 4.97337 11.7696 4.96602 11.8021C4.81175 11.8158 4.65853 11.8273 4.50426 11.8357C4.47908 11.8326 4.45494 11.8284 4.4308 11.8242C4.43185 11.7927 4.4329 11.7612 4.4329 11.7287C4.43605 11.586 4.3353 11.459 4.30697 11.3183C4.29227 11.2438 4.29332 11.1809 4.29227 11.1085C4.29122 11.056 4.27548 11.0098 4.26394 10.9594C4.244 10.8671 4.2377 10.7705 4.20202 10.6834C4.12436 10.4987 3.98898 10.3581 3.83891 10.2332C3.756 10.1629 3.69513 10.0695 3.61433 9.99603C3.54821 9.93516 3.48314 9.8722 3.42228 9.80503C3.28899 9.65916 3.16936 9.4776 2.98675 9.38735C2.7884 9.28765 2.52919 9.32753 2.313 9.32438C2.11046 9.32228 1.90896 9.35481 1.70432 9.35272C1.61301 9.35272 1.51856 9.34747 1.42621 9.35901C1.42936 9.36006 1.43146 9.36216 1.43356 9.36321C1.41467 9.36321 1.39788 9.36636 1.38003 9.36846C1.39578 9.36531 1.41152 9.36111 1.42621 9.35901C1.41572 9.35377 1.40522 9.35062 1.39368 9.35062C1.37269 9.35062 1.35275 9.36111 1.33176 9.37266C1.30132 9.3779 1.27089 9.38525 1.23731 9.3905C1.07569 9.41568 0.971797 9.56995 0.878395 9.69694C0.844813 9.74207 0.803884 9.78509 0.764004 9.82287C0.69579 9.88584 0.698938 9.87954 0.780795 9.97609C0.860554 9.89633 0.94451 9.84596 1.05575 9.81343C1.15125 9.78614 1.23731 9.73787 1.33806 9.72422C1.42306 9.71268 1.50387 9.68959 1.58993 9.6749C1.68962 9.65811 1.79457 9.6707 1.89532 9.66335C1.93835 9.66021 1.98032 9.65496 2.02125 9.65076C2.24059 9.74731 2.44628 9.85331 2.63938 9.99813C2.75377 10.0842 2.8986 10.1545 2.99724 10.2563C3.14207 10.4074 3.2743 10.589 3.38344 10.7663C3.45481 10.8807 3.49469 10.9993 3.55241 11.121C3.60278 11.226 3.63427 11.3047 3.64476 11.4233C3.65106 11.4989 3.65001 11.5597 3.67729 11.6311C3.69408 11.6783 3.71612 11.7213 3.72872 11.7686C3.53247 11.7423 3.33517 11.7129 3.13682 11.7024C2.99095 11.6941 2.83038 11.6878 2.68661 11.7161C2.45992 11.7602 2.23639 11.7476 2.01076 11.7948C1.75364 11.8483 1.47973 11.8074 1.21842 11.8462C1.15125 11.8567 1.08304 11.8599 1.01587 11.8672C0.904631 11.8809 0.794438 11.9302 0.684245 11.9564C0.461761 12.0078 0.227732 12.0635 0 12.0656C0.00104946 12.1768 0.226683 12.1663 0.449167 12.1779C0.526827 12.182 0.601338 12.1978 0.675849 12.2114C0.650663 12.2114 0.625476 12.2114 0.600289 12.2114C0.567756 12.2114 0.534593 12.2125 0.503109 12.2125C0.57762 12.2356 0.652761 12.266 0.723075 12.287C0.920373 12.3468 1.09983 12.3814 1.30552 12.3793C1.42516 12.3772 1.54165 12.373 1.66024 12.3919C1.76414 12.4098 1.86593 12.4066 1.97088 12.4066C2.20071 12.4066 2.43159 12.414 2.66142 12.4045C2.92273 12.393 3.18195 12.3447 3.44326 12.3279C3.52197 12.3227 3.60488 12.3237 3.68569 12.3206C3.6689 12.4276 3.64056 12.5305 3.59648 12.6281C3.59439 12.6344 3.59334 12.6396 3.59124 12.6459C3.58809 12.6952 3.60383 12.7173 3.57235 12.7603C3.53352 12.8096 3.45586 12.8065 3.41388 12.8401C3.34776 12.8915 3.44012 13.0027 3.42437 13.0688C3.40653 13.1423 3.31733 13.2063 3.25646 13.2514C3.21553 13.2819 3.19664 13.3039 3.16516 13.349C3.10954 13.4288 3.04867 13.5285 2.97521 13.5936C2.9007 13.6597 2.80729 13.6943 2.72963 13.7552C2.59425 13.8591 2.50715 14.0259 2.35393 14.1078C2.3088 14.1319 2.25843 14.1508 2.21225 14.1729C2.05064 14.2516 1.90266 14.2568 1.72006 14.26C1.44405 14.2631 1.16804 14.2579 0.892038 14.2579C0.851109 14.26 0.769251 14.3597 0.863702 14.4132C0.898334 14.4321 0.92562 14.4195 0.961302 14.4268C1.00013 14.4352 1.03581 14.4478 1.07569 14.4552C1.39997 14.515 1.69172 14.7795 2.03804 14.6409C2.12305 14.6073 2.20176 14.5517 2.28571 14.5129C2.36967 14.473 2.45468 14.4741 2.54493 14.4604C2.68766 14.4384 2.85662 14.409 2.9899 14.3565C3.10849 14.3103 3.24492 14.2841 3.34461 14.2085C3.3824 14.1802 3.38764 14.1634 3.41913 14.1298C3.47265 14.0742 3.55451 14.0616 3.61118 14.0102C3.70248 13.9273 3.72767 13.8108 3.77384 13.7017C3.82002 13.5915 3.87564 13.4886 3.90502 13.3732C3.93861 13.242 4.02781 13.114 4.12436 13.0185C4.17578 12.966 4.22406 12.923 4.28598 12.8831C4.37203 12.8275 4.39302 12.7718 4.39722 12.6669C4.40142 12.5641 4.36783 12.4822 4.38672 12.3835C4.38987 12.3657 4.39197 12.3479 4.39512 12.33C4.4413 12.3321 4.48852 12.3321 4.53365 12.3353C4.69002 12.3479 4.84534 12.3647 5.00171 12.3804C4.98911 12.4392 4.97127 12.4979 4.96393 12.5557C4.95763 12.5976 4.94818 12.6554 4.95763 12.6973C4.97652 12.7781 5.08041 12.8485 5.08881 12.9324C5.09301 12.9754 5.08566 13.0437 5.07622 13.0825C5.05838 13.1538 4.99121 13.2095 4.97967 13.2808C4.96917 13.3406 4.98806 13.4487 5.03214 13.3847C5.02794 13.4351 5.33123 13.4236 5.35642 13.4246C5.43303 13.4288 5.51174 13.4529 5.56316 13.4026C5.5936 13.3721 5.5894 13.3375 5.5936 13.3008C5.59885 13.2514 5.62193 13.2105 5.63033 13.1633C5.65237 13.0405 5.55792 12.9419 5.56421 12.8264C5.56946 12.7078 5.54847 12.5924 5.55477 12.4738C5.55582 12.4581 5.55687 12.4434 5.55792 12.4276C5.56841 12.4276 5.57996 12.4297 5.59045 12.4297C5.78355 12.4413 5.97665 12.4402 6.16975 12.4371C6.1603 12.4769 6.14981 12.5168 6.14456 12.5557C6.13932 12.5976 6.12882 12.6554 6.13932 12.6973C6.15716 12.7781 6.26105 12.8485 6.2705 12.9324C6.2747 12.9754 6.2663 13.0437 6.25685 13.0825C6.23901 13.1538 6.1729 13.2095 6.1603 13.2808C6.15086 13.3406 6.16975 13.4487 6.21278 13.3847C6.20963 13.4351 6.51187 13.4236 6.53811 13.4246C6.61472 13.4288 6.69343 13.4529 6.7438 13.4026C6.77424 13.3721 6.77109 13.3375 6.77529 13.3008C6.78053 13.2514 6.80362 13.2105 6.81202 13.1633C6.83301 13.0405 6.7396 12.9419 6.74485 12.8264C6.75115 12.7078 6.73016 12.5924 6.73645 12.4738C6.73645 12.4623 6.73751 12.4507 6.73855 12.4392C6.88968 12.4413 7.04185 12.4444 7.19297 12.4497C7.18352 12.4853 7.17513 12.521 7.16988 12.5557C7.16463 12.5976 7.15519 12.6554 7.16463 12.6973C7.18247 12.7781 7.28742 12.8485 7.29581 12.9324C7.30001 12.9754 7.29267 13.0437 7.28217 13.0825C7.26538 13.1538 7.19822 13.2095 7.18667 13.2808C7.17618 13.3406 7.19507 13.4487 7.23914 13.3847C7.23495 13.4351 7.53824 13.4236 7.56343 13.4246C7.64004 13.4288 7.71875 13.4529 7.76912 13.4026C7.8006 13.3721 7.79641 13.3375 7.8006 13.3008C7.80585 13.2514 7.82894 13.2105 7.83733 13.1633C7.85937 13.0405 7.76492 12.9419 7.77122 12.8264C7.77647 12.7078 7.75548 12.5924 7.76177 12.4738C7.76177 12.4706 7.76282 12.4675 7.76282 12.4644C7.81215 12.4644 7.86252 12.4644 7.91185 12.4623C8.13853 12.4528 8.36311 12.4066 8.58874 12.3909C8.8658 12.372 9.14391 12.3447 9.42096 12.33C9.42306 12.4224 9.42516 12.5137 9.42516 12.605C9.42096 12.9702 9.56474 13.3155 9.74 13.6292C9.77463 13.6922 9.81346 13.7457 9.86173 13.7961C9.69067 13.9808 9.51646 14.1634 9.3538 14.3565C9.24151 14.4898 9.13761 14.6262 9.02637 14.7585C8.99593 14.7333 8.9655 14.7091 8.93192 14.684C8.84901 14.6231 8.78184 14.5444 8.69789 14.4867C8.65801 14.4594 8.63387 14.4489 8.61813 14.3995C8.60658 14.3607 8.61078 14.325 8.58245 14.2936C8.51213 14.2159 8.43867 14.2936 8.34212 14.3156C8.33268 14.2631 8.32008 14.2337 8.25922 14.2274C8.24033 14.2253 8.21724 14.2348 8.19835 14.2327C8.15532 14.2274 8.12908 14.1949 8.09445 14.1781C8.05982 14.2579 8.01049 14.3114 7.94228 14.3744C7.9129 14.4006 7.88351 14.4352 7.84993 14.4541C7.8048 14.4814 7.73974 14.4751 7.7072 14.5276C7.84258 14.5633 7.92969 14.6619 8.04513 14.7291C8.11964 14.7711 8.17106 14.8372 8.22668 14.9001C8.28545 14.9673 8.34737 15.0387 8.43133 15.0775C8.50164 15.109 8.55831 15.1478 8.60868 15.2024C8.51004 15.3 8.41244 15.3986 8.31274 15.4962C8.2802 15.4658 8.24452 15.4375 8.20674 15.4091C8.12384 15.3483 8.05667 15.2695 7.97271 15.2118C7.93284 15.1856 7.9087 15.174 7.89296 15.1247C7.88036 15.0859 7.88456 15.0502 7.85727 15.0187C7.78696 14.9411 7.7135 15.0187 7.61695 15.0408C7.60645 14.9883 7.59491 14.9589 7.53404 14.9526C7.51515 14.9505 7.49206 14.96 7.47317 14.9579C7.43015 14.9526 7.40391 14.9201 7.36928 14.9033C7.3336 14.9841 7.28532 15.0376 7.21606 15.0995C7.18667 15.1258 7.15729 15.1604 7.12475 15.1793C7.07963 15.2066 7.01351 15.2003 6.98203 15.2528C7.11636 15.2884 7.20346 15.3871 7.31995 15.4543C7.39446 15.4962 7.44589 15.5623 7.50046 15.6253C7.56028 15.6925 7.62115 15.7649 7.70615 15.8027C7.78171 15.8363 7.84363 15.8772 7.8961 15.9401C7.77122 16.0839 7.64948 16.2308 7.52565 16.3778C7.47842 16.3274 7.4291 16.2865 7.37138 16.2445C7.28847 16.1836 7.2213 16.1049 7.13735 16.0472C7.09747 16.0199 7.07333 16.0094 7.05864 15.9601C7.04604 15.9213 7.05024 15.8845 7.02191 15.8541C6.95264 15.7764 6.87813 15.8541 6.78158 15.8761C6.77214 15.8237 6.75954 15.7943 6.69972 15.788C6.67978 15.7859 6.6567 15.7953 6.63781 15.7932C6.59478 15.7869 6.56854 15.7554 6.53391 15.7387C6.49928 15.8184 6.451 15.8719 6.38174 15.9349C6.35235 15.9611 6.32297 15.9958 6.28939 16.0147C6.24426 16.0419 6.17919 16.0356 6.14666 16.0871C6.28204 16.1238 6.36915 16.2225 6.48459 16.2896C6.56015 16.3316 6.61052 16.3977 6.66614 16.4607C6.72491 16.5278 6.78683 16.5992 6.87079 16.637C6.9474 16.6716 7.01036 16.7125 7.06284 16.7766C7.08487 16.8018 7.10272 16.8301 7.12056 16.8584C7.02191 16.977 6.92116 17.0935 6.81831 17.2089C6.79837 17.2236 6.77843 17.2383 6.75849 17.252C6.73646 17.2289 6.71442 17.2068 6.69238 17.1838C6.59373 17.0799 6.43211 17.062 6.31248 16.9823C6.25056 16.9403 6.20543 16.8941 6.15401 16.8437C6.11623 16.808 6.07215 16.786 6.02912 16.7587C5.94831 16.7084 5.87695 16.6433 5.78985 16.6076C5.60409 16.532 5.40889 16.5278 5.2137 16.5457C5.10665 16.5551 4.99646 16.532 4.88836 16.5373C4.79811 16.5404 4.70786 16.5415 4.6176 16.5383C4.41926 16.5299 4.20622 16.4859 4.01312 16.5499C3.80323 16.6202 3.64791 16.8311 3.49364 16.9823C3.34776 17.1239 3.22813 17.2897 3.0833 17.4325C3.01719 17.4975 2.94792 17.5605 2.89125 17.634C2.89335 17.6329 2.89545 17.6319 2.8986 17.6319C2.88495 17.6455 2.87551 17.6592 2.86396 17.6728C2.87341 17.6592 2.88076 17.6466 2.89125 17.634C2.87971 17.6382 2.86921 17.6424 2.86187 17.6508C2.84717 17.6655 2.83983 17.6875 2.83353 17.7095C2.81569 17.7358 2.7989 17.762 2.77896 17.7893C2.68241 17.9215 2.71809 18.1041 2.74118 18.2605C2.75062 18.3161 2.75167 18.3749 2.74957 18.4295C2.74643 18.5229 2.74433 18.5166 2.87026 18.526C2.86921 18.4137 2.89335 18.3193 2.95002 18.2175C2.9983 18.1304 3.02453 18.0359 3.08645 17.9541C3.13787 17.8858 3.1788 17.8124 3.22918 17.7421C3.28899 17.6592 3.37085 17.5941 3.43697 17.5164C3.4653 17.4849 3.49154 17.4514 3.51778 17.4199C3.74026 17.3328 3.96065 17.2625 4.20097 17.2278C4.3416 17.2079 4.49377 17.1544 4.63545 17.1575C4.84534 17.1617 5.06677 17.1974 5.26932 17.2446C5.40155 17.2751 5.51279 17.3317 5.63977 17.3758C5.74997 17.4146 5.82763 17.4482 5.91788 17.5248C5.97665 17.5742 6.01968 17.6172 6.08894 17.6487C6.13407 17.6697 6.18024 17.6854 6.22222 17.7095C6.0648 17.8302 5.90424 17.9488 5.75731 18.081C5.64817 18.1786 5.52958 18.2867 5.44772 18.4085C5.31864 18.6005 5.15283 18.7495 5.02584 18.9426C4.88207 19.162 4.65958 19.3267 4.50216 19.5387C4.46124 19.5944 4.41611 19.6447 4.37413 19.6982C4.30487 19.7864 4.26184 19.8987 4.20202 19.9952C4.08133 20.1894 3.9554 20.393 3.79588 20.5557C3.87459 20.6344 4.02676 20.4675 4.19258 20.3185C4.2503 20.266 4.31431 20.2251 4.37728 20.181C4.35944 20.1988 4.34055 20.2167 4.32271 20.2356C4.30067 20.2576 4.27863 20.2807 4.25554 20.3038C4.32481 20.2681 4.39932 20.2366 4.46333 20.202C4.64489 20.1044 4.79706 20.0015 4.93979 19.8546C5.02479 19.7686 5.1035 19.6836 5.20005 19.6132C5.28611 19.5524 5.35537 19.4779 5.42988 19.4034C5.59255 19.2417 5.76151 19.0833 5.91683 18.9143C6.09419 18.7202 6.24321 18.504 6.41532 18.3067C6.46779 18.2469 6.52656 18.1891 6.58219 18.1304C6.64515 18.2175 6.69867 18.3109 6.73645 18.4106C6.7396 18.4158 6.74275 18.4221 6.7459 18.4274C6.77738 18.4641 6.80467 18.4693 6.81202 18.5218C6.82041 18.5837 6.76374 18.6362 6.75744 18.6887C6.74695 18.7726 6.89073 18.7863 6.92641 18.844C6.96524 18.908 6.94845 19.0172 6.9369 19.0917C6.92956 19.142 6.9306 19.1714 6.9411 19.2249C6.95894 19.3204 6.98623 19.4359 6.97993 19.5335C6.97363 19.6321 6.9327 19.7224 6.92011 19.82C6.89807 19.99 6.95369 20.1695 6.90437 20.3353C6.88968 20.3846 6.86659 20.4339 6.8498 20.4822C6.79208 20.6522 6.69133 20.7603 6.56329 20.8915C6.37124 21.0888 6.17185 21.2798 5.97665 21.475C5.94936 21.5054 5.96091 21.6345 6.06585 21.6051C6.10468 21.5946 6.11518 21.5663 6.14561 21.5463C6.17814 21.5243 6.21278 21.5086 6.24531 21.4855C6.51817 21.2987 6.91066 21.2798 7.05759 20.9366C7.09432 20.8516 7.11111 20.7571 7.14259 20.67C7.17303 20.5829 7.23495 20.5231 7.28847 20.4507C7.37452 20.3342 7.47212 20.1936 7.52984 20.0614C7.58022 19.9459 7.65893 19.8305 7.67572 19.7066C7.68306 19.6594 7.67362 19.6437 7.67257 19.5986C7.67152 19.5209 7.72084 19.4548 7.72399 19.3782C7.73029 19.2543 7.66627 19.1546 7.62115 19.0455C7.57602 18.9342 7.54244 18.822 7.48157 18.7202C7.41335 18.6026 7.38607 18.4494 7.38502 18.314C7.38502 18.2406 7.38922 18.1755 7.40496 18.1041C7.42595 18.0034 7.40181 17.9499 7.33045 17.8722C7.26013 17.7966 7.17828 17.762 7.12265 17.6791C7.11216 17.6634 7.10062 17.6497 7.09012 17.635C7.12475 17.6046 7.15729 17.571 7.19192 17.5406C7.31156 17.4398 7.43329 17.3412 7.55503 17.2415C7.58756 17.2918 7.61695 17.3464 7.65263 17.3936C7.67782 17.4272 7.7114 17.4745 7.74813 17.4965C7.81844 17.5416 7.94228 17.5175 8.00735 17.571C8.04093 17.5983 8.08396 17.6518 8.1039 17.6864C8.14168 17.7494 8.13433 17.8355 8.17631 17.8942C8.21094 17.9436 8.30119 18.0076 8.2865 17.931C8.31903 17.9687 8.52578 17.7463 8.54467 17.7295C8.60134 17.678 8.67375 17.6392 8.6748 17.5679C8.6748 17.5248 8.64751 17.5028 8.62443 17.4745C8.59294 17.4356 8.5814 17.3905 8.55306 17.3506C8.4817 17.2488 8.34632 17.2457 8.26761 17.1596C8.1889 17.0715 8.09235 17.0053 8.01259 16.9172C8.0021 16.9056 7.9916 16.8941 7.98111 16.8826C7.98951 16.8752 7.99895 16.8679 8.00735 16.8605C8.15007 16.7325 8.2865 16.595 8.42188 16.4565C8.44287 16.4911 8.46281 16.5268 8.48695 16.5583C8.51318 16.5919 8.54677 16.6391 8.58245 16.6611C8.65276 16.7063 8.7766 16.6821 8.84271 16.7356C8.87629 16.7629 8.91827 16.8164 8.93926 16.8511C8.97704 16.914 8.9697 17.0001 9.01167 17.0599C9.04631 17.1082 9.13656 17.1722 9.12187 17.0956C9.1544 17.1334 9.36009 16.9119 9.38003 16.8941C9.4367 16.8437 9.50912 16.8038 9.50912 16.7325C9.50912 16.6895 9.48288 16.6674 9.45979 16.6391C9.42831 16.6003 9.41572 16.5551 9.38843 16.5163C9.31707 16.4135 9.18064 16.4114 9.10298 16.3242C9.02322 16.2371 8.92667 16.17 8.84796 16.0818C8.83956 16.0734 8.83222 16.064 8.82382 16.0556C8.93297 15.9506 9.04316 15.8457 9.15335 15.7418C9.17224 15.7733 9.19113 15.8048 9.21212 15.8331C9.23836 15.8667 9.27194 15.9139 9.30867 15.936C9.37898 15.9811 9.50282 15.9569 9.56789 16.0105C9.60147 16.0377 9.64345 16.0913 9.66444 16.1259C9.70222 16.1889 9.69487 16.2749 9.73685 16.3337C9.77148 16.383 9.86173 16.447 9.84704 16.3704C9.87957 16.4082 10.0853 16.1857 10.1052 16.1689C10.1619 16.1175 10.2343 16.0787 10.2353 16.0073C10.2353 15.9643 10.2081 15.9422 10.185 15.9139C10.1535 15.8751 10.1419 15.83 10.1136 15.7901C10.0422 15.6883 9.90581 15.6851 9.82815 15.5991C9.74944 15.5109 9.65289 15.4448 9.57313 15.3567C9.57103 15.3535 9.56894 15.3514 9.56579 15.3493C9.60147 15.3136 9.63715 15.2779 9.67073 15.2423C9.825 15.0754 9.94989 14.8833 10.0989 14.7123C10.2081 14.5874 10.3161 14.4594 10.4242 14.3324C10.5019 14.3702 10.5838 14.4037 10.6604 14.4405C10.7978 14.5045 10.9574 14.5507 11.1053 14.5843C11.2827 14.6241 11.4905 14.5989 11.672 14.5905C11.693 14.5895 11.713 14.5874 11.734 14.5864C11.7413 14.6777 11.7487 14.7679 11.7518 14.8582C11.7644 15.1342 11.7696 15.4102 11.7927 15.6872C11.8074 15.8604 11.8305 16.0304 11.8452 16.2025C11.8064 16.2057 11.7675 16.2109 11.7256 16.2172C11.6248 16.2319 11.5209 16.2235 11.4212 16.2424C11.374 16.2518 11.3488 16.2602 11.3037 16.2371C11.267 16.2183 11.2439 16.1899 11.2019 16.1878C11.098 16.1815 11.1011 16.2896 11.0487 16.3736C11.0035 16.3431 10.9752 16.3305 10.928 16.3694C10.9122 16.382 10.9028 16.404 10.8871 16.4166C10.8535 16.4428 10.8125 16.4386 10.7758 16.4512C10.8083 16.5331 10.8115 16.6045 10.8073 16.6979C10.8052 16.7367 10.8083 16.7829 10.7989 16.8196C10.7853 16.87 10.7349 16.9119 10.7496 16.9718C10.8703 16.9015 11.0014 16.9098 11.1305 16.8752C11.2134 16.8521 11.2963 16.8626 11.3803 16.8679C11.4695 16.8742 11.5629 16.8815 11.65 16.849C11.7214 16.8217 11.7896 16.808 11.863 16.8112C11.8641 16.9508 11.863 17.0893 11.862 17.2278C11.8179 17.231 11.7738 17.2352 11.7256 17.2425C11.6248 17.2583 11.5209 17.2499 11.4212 17.2688C11.374 17.2772 11.3488 17.2866 11.3037 17.2625C11.267 17.2436 11.2439 17.2152 11.2019 17.2131C11.098 17.2079 11.1011 17.3149 11.0487 17.3989C11.0035 17.3685 10.9752 17.3569 10.928 17.3947C10.9122 17.4073 10.9028 17.4304 10.8871 17.4419C10.8535 17.4682 10.8125 17.464 10.7758 17.4776C10.8083 17.5584 10.8115 17.6308 10.8073 17.7232C10.8052 17.7631 10.8083 17.8082 10.7989 17.8449C10.7853 17.8963 10.7349 17.9383 10.7496 17.9971C10.8703 17.9278 11.0014 17.9362 11.1305 17.9005C11.2134 17.8785 11.2963 17.889 11.3803 17.8942C11.4695 17.8995 11.5629 17.9068 11.65 17.8743C11.7277 17.8449 11.8001 17.8302 11.8819 17.8365C11.8956 18.0275 11.9134 18.2175 11.9292 18.4085C11.8609 18.4074 11.7959 18.4127 11.7256 18.4242C11.6248 18.4389 11.5209 18.4305 11.4212 18.4494C11.374 18.4588 11.3488 18.4672 11.3037 18.4441C11.267 18.4253 11.2439 18.3969 11.2019 18.3948C11.098 18.3885 11.1011 18.4956 11.0487 18.5795C11.0035 18.5491 10.9752 18.5376 10.928 18.5764C10.9122 18.5879 10.9028 18.611 10.8871 18.6226C10.8535 18.6498 10.8125 18.6446 10.7758 18.6582C10.8083 18.7401 10.8115 18.8115 10.8073 18.9049C10.8052 18.9437 10.8083 18.9899 10.7989 19.0266C10.7853 19.077 10.7349 19.1189 10.7496 19.1788C10.8703 19.1085 11.0014 19.1169 11.1305 19.0822C11.2134 19.0591 11.2963 19.0696 11.3803 19.0749C11.4695 19.0812 11.5629 19.0885 11.65 19.0549C11.7287 19.0255 11.8022 19.0098 11.884 19.0172C11.9176 19.0203 11.9502 19.0276 11.9827 19.035C11.9963 19.1882 12.0079 19.3425 12.0173 19.4968C12.0131 19.5209 12.0089 19.5461 12.0047 19.5692C11.9732 19.5692 11.9418 19.5681 11.9103 19.5671C11.7665 19.565 11.6406 19.6657 11.4989 19.6941C11.4254 19.7077 11.3614 19.7077 11.289 19.7087C11.2376 19.7087 11.1903 19.7255 11.14 19.7371C11.0476 19.757 10.9511 19.7623 10.864 19.799C10.6793 19.8767 10.5386 20.012 10.4137 20.1621C10.3445 20.245 10.25 20.3059 10.1766 20.3856C10.1157 20.4528 10.0527 20.5168 9.98557 20.5787C9.8397 20.712 9.65814 20.8317 9.56789 21.0143C9.46924 21.2116 9.50807 21.4718 9.50597 21.688C9.50282 21.8906 9.53535 22.0921 9.5343 22.2967C9.53326 22.388 9.52801 22.4825 9.53955 22.5738C9.5406 22.5717 9.5427 22.5696 9.54375 22.5675C9.54375 22.5863 9.5469 22.6031 9.549 22.6199C9.54585 22.6052 9.54165 22.5895 9.53955 22.5738C9.53535 22.5843 9.53116 22.5958 9.53116 22.6073C9.53116 22.6283 9.54165 22.6483 9.55319 22.6682C9.55949 22.6997 9.56579 22.7291 9.57104 22.7627C9.59622 22.9243 9.75049 23.0292 9.87748 23.1226C9.92365 23.1562 9.96563 23.1961 10.0034 23.237C10.0664 23.3052 10.0601 23.3021 10.1566 23.2202C10.0769 23.1405 10.0265 23.0565 9.99501 22.9453C9.96773 22.8498 9.91945 22.7637 9.90476 22.663C9.89322 22.578 9.87013 22.4971 9.85544 22.4111C9.8397 22.3114 9.85124 22.2064 9.84389 22.1047C9.84075 22.0627 9.8355 22.0207 9.8313 21.9787C9.92785 21.7604 10.0338 21.5547 10.1797 21.3616C10.2647 21.2472 10.335 21.1024 10.4368 21.0038C10.588 20.8579 10.7695 20.7267 10.9469 20.6165C11.0613 20.5452 11.1798 20.5063 11.3016 20.4486C11.4065 20.3982 11.4852 20.3668 11.6038 20.3563C11.6794 20.35 11.7403 20.351 11.8127 20.3237C11.8588 20.3059 11.9019 20.2849 11.9491 20.2713C11.9229 20.4685 11.8935 20.6658 11.883 20.8642C11.8746 21.0101 11.8683 21.1696 11.8966 21.3144C11.9407 21.5411 11.9281 21.7646 11.9753 21.9892C12.0289 22.2474 11.9879 22.5213 12.0268 22.7815C12.0373 22.8498 12.0404 22.918 12.0488 22.9851C12.0614 23.0964 12.1118 23.2066 12.137 23.3168C12.1884 23.5393 12.244 23.7733 12.2461 24C12.3573 24 12.3468 23.7743 12.3594 23.5518C12.3636 23.4742 12.3783 23.3997 12.392 23.3241C12.392 23.3504 12.392 23.3755 12.392 23.4007C12.392 23.4333 12.393 23.4647 12.393 23.4973C12.4172 23.4228 12.4465 23.3483 12.4675 23.2779C12.5274 23.0806 12.562 22.9012 12.5599 22.6955C12.5588 22.5759 12.5536 22.4594 12.5735 22.3408C12.5903 22.2369 12.5872 22.1351 12.5872 22.0301C12.5872 21.8003 12.5945 21.5694 12.5851 21.3396C12.5735 21.0772 12.5253 20.8191 12.5085 20.5578C12.5032 20.478 12.5043 20.3961 12.5011 20.3153C12.6082 20.3321 12.711 20.3605 12.8086 20.4045C12.8149 20.4066 12.8212 20.4077 12.8264 20.4098C12.8758 20.4129 12.8978 20.3972 12.9408 20.4287C12.9902 20.4664 12.987 20.5441 13.0206 20.5861C13.072 20.6533 13.1833 20.5609 13.2494 20.5766C13.3228 20.5945 13.3869 20.6826 13.432 20.7446C13.4624 20.7844 13.4845 20.8044 13.5296 20.8359C13.6093 20.8904 13.7101 20.9523 13.7752 21.0258C13.8402 21.1003 13.8759 21.1927 13.9357 21.2703C14.0396 21.4057 14.2065 21.4939 14.2883 21.6471C14.3125 21.6912 14.3314 21.7426 14.3545 21.7888C14.4321 21.9504 14.4384 22.0984 14.4405 22.281C14.4437 22.5559 14.4384 22.833 14.4384 23.109C14.4405 23.1499 14.5402 23.2318 14.5937 23.1373C14.6126 23.1027 14.6011 23.0754 14.6074 23.0387C14.6158 23.0009 14.6284 22.9652 14.6357 22.9253C14.6955 22.601 14.96 22.3093 14.8215 21.963C14.7879 21.8769 14.7323 21.7982 14.6934 21.7153C14.6535 21.6313 14.6546 21.5463 14.641 21.4561C14.62 21.3134 14.5895 21.1444 14.5371 21.0111C14.4909 20.8925 14.4646 20.7561 14.3891 20.6564C14.3607 20.6186 14.344 20.6134 14.3104 20.5819C14.2548 20.5284 14.2422 20.4455 14.1907 20.3898C14.1078 20.2985 13.9913 20.2734 13.8832 20.2272C13.772 20.181 13.6692 20.1254 13.5548 20.096C13.4236 20.0624 13.2956 19.9722 13.199 19.8767C13.1476 19.8252 13.1035 19.777 13.0636 19.715C13.008 19.629 12.9534 19.608 12.8474 19.6038C12.7446 19.5996 12.6627 19.6332 12.5641 19.6143C12.5462 19.6101 12.5284 19.609 12.5106 19.6059C12.5127 19.5597 12.5127 19.5125 12.5158 19.4674C12.5284 19.311 12.5452 19.1546 12.5609 18.9993C12.6197 19.0109 12.6785 19.0297 12.7362 19.0371C12.7782 19.0434 12.8359 19.0528 12.8779 19.0434C12.9587 19.0245 13.029 18.9206 13.1129 18.9122C13.156 18.907 13.2242 18.9154 13.2641 18.9248C13.3344 18.9426 13.39 19.0088 13.4614 19.0213C13.5212 19.0318 13.6293 19.013 13.5653 18.9689C13.6156 18.972 13.6041 18.6698 13.6051 18.6446C13.6104 18.5669 13.6335 18.4882 13.5831 18.4379C13.5527 18.4074 13.518 18.4106 13.4813 18.4074C13.432 18.4011 13.3921 18.3791 13.3438 18.3707C13.221 18.3486 13.1234 18.4421 13.007 18.4368C12.8884 18.4305 12.7729 18.4515 12.6543 18.4452C12.6396 18.4452 12.6239 18.4441 12.6082 18.4431C12.6092 18.4316 12.6103 18.4211 12.6113 18.4095C12.6218 18.2175 12.6208 18.0244 12.6187 17.8302C12.6575 17.8407 12.6974 17.8512 12.7362 17.8565C12.7782 17.8617 12.8359 17.8711 12.8779 17.8617C12.9587 17.8439 13.029 17.7389 13.1129 17.7305C13.156 17.7263 13.2242 17.7347 13.2641 17.7442C13.3344 17.761 13.39 17.8281 13.4614 17.8407C13.5212 17.8502 13.6293 17.8313 13.5653 17.7872C13.6156 17.7914 13.6041 17.4891 13.6051 17.4629C13.6104 17.3863 13.6335 17.3076 13.5831 17.2572C13.5527 17.2268 13.518 17.2299 13.4813 17.2257C13.432 17.2205 13.3921 17.1974 13.3438 17.189C13.221 17.168 13.1234 17.2614 13.007 17.2562C12.8884 17.2499 12.7729 17.2709 12.6543 17.2646C12.6428 17.2646 12.6312 17.2635 12.6197 17.2625C12.6229 17.1113 12.6249 16.9592 12.6312 16.808C12.6659 16.8164 12.7016 16.8259 12.7362 16.8301C12.7782 16.8364 12.8359 16.8458 12.8779 16.8364C12.9587 16.8175 13.029 16.7136 13.1129 16.7052C13.156 16.701 13.2242 16.7083 13.2641 16.7178C13.3344 16.7356 13.39 16.8028 13.4614 16.8143C13.5212 16.8248 13.6293 16.8059 13.5653 16.7619C13.6156 16.7661 13.6041 16.4628 13.6051 16.4376C13.6104 16.3599 13.6335 16.2823 13.5831 16.2308C13.5527 16.2004 13.518 16.2036 13.4813 16.2004C13.432 16.1952 13.3921 16.1721 13.3438 16.1637C13.221 16.1416 13.1234 16.2361 13.007 16.2298C12.8884 16.2235 12.7729 16.2455 12.6543 16.2392L12.6449 16.2382C12.6449 16.1889 12.6449 16.1385 12.6428 16.0881C12.6344 15.8614 12.5872 15.6379 12.5714 15.4112C12.5504 15.1079 12.52 14.8025 12.5074 14.4982C12.519 14.4961 12.5315 14.4929 12.5431 14.4898C12.5672 14.4961 12.5914 14.5024 12.6113 14.5076C12.6459 14.5171 12.7236 14.5528 12.7488 14.5601C12.8537 14.5905 13.0279 14.5423 13.1276 14.5108C13.2095 14.4846 13.2851 14.4447 13.3575 14.4006C13.4278 14.3985 13.4981 14.4027 13.5653 14.3838C13.6713 14.3534 13.7458 14.2705 13.8119 14.1844C13.8801 14.2421 13.9473 14.2998 14.0123 14.3597C14.217 14.5465 14.4153 14.7375 14.6273 14.9169C14.7606 15.0292 14.897 15.1342 15.0293 15.2454C15.003 15.2748 14.9799 15.3052 14.9547 15.3388C14.8939 15.4217 14.8152 15.4889 14.7574 15.5728C14.7302 15.6127 14.7186 15.6369 14.6703 15.6526C14.6315 15.6652 14.5948 15.6599 14.5643 15.6883C14.4867 15.7586 14.5643 15.8321 14.5864 15.9286C14.5339 15.9381 14.5045 15.9506 14.4982 16.0115C14.4961 16.0304 14.5056 16.0535 14.5035 16.0724C14.4982 16.1154 14.4657 16.1416 14.4489 16.1763C14.5287 16.2109 14.5822 16.2602 14.6452 16.3284C14.6714 16.3578 14.706 16.3883 14.7249 16.4208C14.7522 16.4659 14.7459 16.531 14.7984 16.5635C14.8341 16.4281 14.9327 16.3421 14.9999 16.2256C15.0418 16.15 15.108 16.0997 15.1709 16.044C15.2381 15.9853 15.3095 15.9234 15.3483 15.8394C15.3787 15.7691 15.4186 15.7124 15.4732 15.662C15.5708 15.7607 15.6694 15.8583 15.767 15.958C15.7366 15.9905 15.7083 16.0262 15.6799 16.065C15.619 16.1469 15.5403 16.2141 15.4826 16.298C15.4564 16.3379 15.4448 16.362 15.3955 16.3778C15.3567 16.3904 15.321 16.3862 15.2895 16.4135C15.2119 16.4838 15.2895 16.5572 15.3116 16.6538C15.2591 16.6643 15.2297 16.6758 15.2234 16.7367C15.2213 16.7556 15.2307 16.7787 15.2287 16.7976C15.2234 16.8406 15.1909 16.8668 15.1741 16.9025C15.2549 16.9371 15.3084 16.9854 15.3703 17.0547C15.3966 17.0841 15.4312 17.1134 15.4511 17.146C15.4774 17.1911 15.4711 17.2572 15.5235 17.2887C15.5592 17.1544 15.6579 17.0673 15.725 16.9508C15.767 16.8763 15.8331 16.8248 15.8961 16.7703C15.9633 16.7104 16.0357 16.6496 16.0735 16.5646C16.107 16.489 16.148 16.4271 16.2109 16.3746C16.3547 16.4995 16.5016 16.6212 16.6486 16.7451C16.5982 16.7923 16.5573 16.8416 16.5153 16.8994C16.4544 16.9823 16.3757 17.0494 16.318 17.1334C16.2907 17.1733 16.2792 17.1974 16.2309 17.2131C16.192 17.2247 16.1564 17.2205 16.1249 17.2488C16.0472 17.3191 16.1249 17.3926 16.1469 17.4891C16.0945 17.4986 16.0651 17.5101 16.0588 17.5721C16.0567 17.5909 16.0661 17.614 16.064 17.6329C16.0588 17.6759 16.0262 17.7022 16.0094 17.7368C16.0892 17.7714 16.1427 17.8197 16.2057 17.889C16.2319 17.9184 16.2666 17.9478 16.2855 17.9813C16.3127 18.0265 16.3064 18.0915 16.3589 18.1241C16.3946 17.9887 16.4932 17.9026 16.5604 17.7861C16.6024 17.7106 16.6685 17.6602 16.7315 17.6046C16.7986 17.5458 16.87 17.4839 16.9078 17.3999C16.9424 17.3233 16.9833 17.2604 17.0474 17.2079C17.0725 17.1859 17.1009 17.168 17.1292 17.1502C17.2478 17.2488 17.3643 17.3496 17.4797 17.4524C17.4944 17.4724 17.5091 17.4923 17.5228 17.5122C17.4997 17.5343 17.4776 17.5563 17.4545 17.5783C17.3506 17.677 17.3328 17.8386 17.253 17.9583C17.2111 18.0202 17.1649 18.0653 17.1145 18.1167C17.0788 18.1545 17.0568 18.1986 17.0295 18.2416C16.9791 18.3224 16.9141 18.3938 16.8784 18.4809C16.8028 18.6666 16.7986 18.8618 16.8165 19.057C16.8259 19.1641 16.8028 19.2743 16.807 19.3824C16.8112 19.4726 16.8123 19.5629 16.8091 19.6531C16.7997 19.8515 16.7567 20.0645 16.8207 20.2576C16.891 20.4675 17.1019 20.6228 17.253 20.7771C17.3947 20.923 17.5605 21.0426 17.7033 21.1874C17.7683 21.2535 17.8313 21.3228 17.9048 21.3795C17.9037 21.3774 17.9027 21.3753 17.9027 21.3721C17.9153 21.3858 17.9299 21.3952 17.9436 21.4068C17.9299 21.3973 17.9174 21.39 17.9048 21.3795C17.9079 21.391 17.9132 21.4015 17.9216 21.4089C17.9362 21.4246 17.9583 21.4309 17.9803 21.4372C18.0066 21.455 18.0328 21.4718 18.0601 21.4918C18.1923 21.5883 18.3749 21.5526 18.5313 21.5295C18.5869 21.5201 18.6457 21.5191 18.7002 21.5212C18.7937 21.5243 18.7874 21.5264 18.7968 21.4005C18.6845 21.4015 18.589 21.3774 18.4883 21.3207C18.4012 21.2724 18.3067 21.2462 18.2248 21.1843C18.1566 21.1329 18.0832 21.0919 18.0129 21.0416C17.9299 20.9828 17.8649 20.8999 17.7872 20.8338C17.7557 20.8054 17.7222 20.7792 17.6896 20.753C17.6036 20.5305 17.5333 20.3101 17.4986 20.0698C17.4787 19.9291 17.4252 19.777 17.4283 19.6353C17.4315 19.4254 17.4682 19.204 17.5154 19.0014C17.5458 18.8692 17.6025 18.7579 17.6466 18.631C17.6865 18.5218 17.719 18.4431 17.7956 18.3528C17.8449 18.2941 17.888 18.251 17.9195 18.1818C17.9404 18.1367 17.9562 18.0905 17.9793 18.0485C18.101 18.2059 18.2196 18.3665 18.3518 18.5134C18.4494 18.6226 18.5575 18.7401 18.6793 18.823C18.8713 18.9521 19.0214 19.1179 19.2134 19.2449C19.4328 19.3887 19.5975 19.6122 19.8095 19.7686C19.8651 19.8095 19.9155 19.8546 19.969 19.8966C20.0572 19.9659 20.1695 20.0089 20.266 20.0687C20.4602 20.1894 20.6638 20.3153 20.8264 20.4748C20.9052 20.3961 20.7383 20.244 20.5893 20.0782C20.5368 20.0194 20.4959 19.9564 20.4518 19.8934L20.5053 19.948C20.5284 19.9701 20.5519 19.9932 20.575 20.0152C20.5393 19.946 20.5064 19.8714 20.4717 19.8074C20.3752 19.6258 20.2723 19.4737 20.1254 19.3309C20.0394 19.2459 19.9543 19.1672 19.884 19.0707C19.8232 18.9846 19.7487 18.9154 19.6741 18.8408C19.5125 18.6782 19.3541 18.5092 19.184 18.3539C18.9909 18.1765 18.7748 18.0286 18.5775 17.8554C18.5176 17.8029 18.4599 17.7442 18.4012 17.6885C18.4883 17.6256 18.5806 17.5721 18.6814 17.5343C18.6866 17.5311 18.6919 17.528 18.6982 17.5248C18.7349 17.4933 18.7391 17.4661 18.7926 17.4587C18.8545 17.4503 18.907 17.507 18.9595 17.5133C19.0434 17.5238 19.0571 17.38 19.1148 17.3443C19.1788 17.3055 19.2879 17.3223 19.3625 17.3338C19.4128 17.3412 19.4422 17.3401 19.4957 17.3296C19.5912 17.3118 19.7056 17.2845 19.8043 17.2908C19.9029 17.2971 19.9932 17.338 20.0908 17.3506C20.2608 17.3727 20.4402 17.317 20.6061 17.3664C20.6554 17.3811 20.7047 17.4041 20.753 17.4209C20.923 17.4797 21.0311 17.5794 21.1623 17.7074C21.3596 17.8995 21.5506 18.0989 21.7458 18.2941C21.7762 18.3214 21.9053 18.3098 21.8759 18.2049C21.8654 18.166 21.8371 18.1555 21.8171 18.1251C21.7951 18.0926 21.7794 18.058 21.7563 18.0254C21.5684 17.7526 21.5495 17.3601 21.2074 17.2131C21.1224 17.1764 21.0279 17.1596 20.9408 17.1281C20.8537 17.0977 20.7939 17.0358 20.7215 16.9823C20.604 16.8962 20.4644 16.7986 20.3322 16.7409C20.2167 16.6905 20.1013 16.6118 19.9774 16.595C19.9302 16.5877 19.9145 16.5971 19.8693 16.5982C19.7917 16.5992 19.7245 16.5499 19.649 16.5467C19.5251 16.5404 19.4254 16.6045 19.3163 16.6496C19.205 16.6947 19.0927 16.7283 18.9909 16.7892C18.8734 16.8584 18.7202 16.8847 18.5848 16.8857C18.5113 16.8857 18.4463 16.8815 18.3749 16.8668C18.2742 16.8448 18.2206 16.8689 18.143 16.9403C18.0674 17.0106 18.0328 17.0925 17.9499 17.1481C17.9341 17.1586 17.9205 17.1701 17.9058 17.1806C17.8754 17.146 17.8418 17.1134 17.8124 17.0788C17.7106 16.9592 17.612 16.8374 17.5123 16.7157C17.5626 16.6832 17.6172 16.6548 17.6644 16.6181C17.697 16.5929 17.7442 16.5593 17.7673 16.5226C17.8124 16.4533 17.7883 16.3284 17.8418 16.2634C17.8691 16.2298 17.9226 16.1878 17.9572 16.1668C18.0192 16.1291 18.1063 16.1364 18.165 16.0944C18.2144 16.0598 18.2773 15.9695 18.2018 15.9842C18.2395 15.9517 18.0171 15.745 18.0003 15.7261C17.9488 15.6683 17.91 15.597 17.8386 15.5959C17.7956 15.5959 17.7736 15.6232 17.7452 15.6463C17.7064 15.6778 17.6613 15.6893 17.6214 15.7177C17.5196 15.789 17.5165 15.9244 17.4304 16.0031C17.3423 16.0818 17.2761 16.1784 17.188 16.2581C17.1764 16.2686 17.1649 16.2791 17.1534 16.2896C17.146 16.2812 17.1387 16.2718 17.1313 16.2644C17.0033 16.1207 16.8658 15.9842 16.7273 15.8488C16.7619 15.8279 16.7976 15.8079 16.8291 15.7838C16.8627 15.7575 16.9099 15.724 16.9319 15.6883C16.977 15.618 16.9529 15.4941 17.0064 15.428C17.0337 15.3944 17.0872 15.3525 17.1219 15.3315C17.1848 15.2937 17.2709 15.301 17.3297 15.2601C17.379 15.2244 17.443 15.1352 17.3664 15.1489C17.4042 15.1163 17.1827 14.9106 17.1649 14.8907C17.1145 14.834 17.0746 14.7616 17.0033 14.7616C16.9603 14.7616 16.9382 14.7878 16.9099 14.8109C16.871 14.8424 16.8259 14.855 16.7871 14.8823C16.6842 14.9537 16.6811 15.0901 16.595 15.1677C16.5079 15.2475 16.4408 15.3441 16.3526 15.4228C16.3432 15.4312 16.3348 15.4385 16.3264 15.4469C16.2214 15.3378 16.1165 15.2276 16.0126 15.1174C16.0441 15.0985 16.0756 15.0796 16.1039 15.0586C16.1375 15.0324 16.1837 14.9988 16.2067 14.9621C16.2519 14.8928 16.2277 14.7679 16.2813 14.7028C16.3085 14.6693 16.3621 14.6273 16.3967 14.6063C16.4597 14.5685 16.5457 14.5759 16.6045 14.5349C16.6538 14.4992 16.7168 14.409 16.6412 14.4237C16.679 14.3912 16.4565 14.1844 16.4397 14.1655C16.3883 14.1088 16.3495 14.0364 16.2781 14.0354C16.2351 14.0354 16.213 14.0627 16.1847 14.0858C16.1459 14.1172 16.1007 14.1298 16.0609 14.1571C15.9591 14.2285 15.9559 14.3649 15.8699 14.4426C15.7817 14.5213 15.7156 14.6178 15.6274 14.6976C15.6243 14.6997 15.6222 14.7018 15.6201 14.7049C15.5844 14.6693 15.5487 14.6336 15.512 14.6C15.3462 14.4457 15.1541 14.3208 14.9831 14.1718C14.7595 13.9766 14.5266 13.7877 14.3072 13.5862C14.3943 13.4718 14.4783 13.3553 14.5497 13.2315C14.558 13.221 14.5685 13.2126 14.5769 13.2011C14.6483 13.1077 14.6735 12.9723 14.7123 12.8621C14.7501 12.7592 14.747 12.6533 14.749 12.5452C14.749 12.5168 14.7469 12.4885 14.7459 12.4602C14.9044 12.4518 15.0628 12.435 15.2182 12.4287C15.4952 12.4161 15.7712 12.4119 16.0483 12.3877C16.2204 12.373 16.3914 12.351 16.5636 12.3363C16.5667 12.3751 16.5709 12.414 16.5772 12.4549C16.5929 12.5567 16.5845 12.6596 16.6034 12.7592C16.6129 12.8075 16.6213 12.8317 16.5982 12.8778C16.5793 12.9146 16.551 12.9366 16.5478 12.9786C16.5426 13.0825 16.6496 13.0793 16.7336 13.1318C16.7031 13.1769 16.6916 13.2053 16.7304 13.2525C16.742 13.2682 16.7651 13.2777 16.7766 13.2934C16.8039 13.327 16.7986 13.3679 16.8123 13.4047C16.8931 13.3721 16.9655 13.369 17.0589 13.3742C17.0977 13.3753 17.1429 13.3721 17.1806 13.3826C17.231 13.3952 17.273 13.4456 17.3328 13.4319C17.2625 13.3113 17.2709 13.179 17.2363 13.0499C17.2132 12.967 17.2237 12.8841 17.2289 12.8012C17.2352 12.712 17.2426 12.6176 17.209 12.5305C17.1817 12.4591 17.1691 12.3909 17.1722 12.3174C17.3118 12.3174 17.4503 12.3174 17.5889 12.3185C17.592 12.3626 17.5962 12.4077 17.6036 12.4549C17.6183 12.5567 17.6099 12.6596 17.6288 12.7592C17.6382 12.8075 17.6476 12.8317 17.6235 12.8778C17.6046 12.9146 17.5763 12.9366 17.5742 12.9786C17.5679 13.0825 17.676 13.0793 17.7599 13.1318C17.7295 13.1769 17.7169 13.2053 17.7557 13.2525C17.7683 13.2682 17.7914 13.2777 17.803 13.2934C17.8292 13.327 17.825 13.3679 17.8376 13.4047C17.9195 13.3721 17.9908 13.369 18.0842 13.3742C18.1241 13.3753 18.1692 13.3721 18.206 13.3826C18.2563 13.3952 18.2983 13.4456 18.3581 13.4319C18.2878 13.3113 18.2962 13.179 18.2616 13.0499C18.2395 12.967 18.249 12.8841 18.2553 12.8012C18.2605 12.712 18.2679 12.6176 18.2353 12.5305C18.2049 12.4528 18.1902 12.3804 18.1976 12.2985C18.3886 12.2849 18.5785 12.2681 18.7695 12.2513C18.7674 12.3206 18.7737 12.3846 18.7842 12.4549C18.7999 12.5567 18.7915 12.6596 18.8104 12.7592C18.8188 12.8075 18.8283 12.8317 18.8041 12.8778C18.7863 12.9146 18.758 12.9366 18.7548 12.9786C18.7496 13.0825 18.8566 13.0793 18.9406 13.1318C18.9101 13.1769 18.8986 13.2053 18.9364 13.2525C18.949 13.2682 18.9721 13.2777 18.9836 13.2934C19.0109 13.327 19.0056 13.3679 19.0193 13.4047C19.1001 13.3721 19.1725 13.369 19.2659 13.3742C19.3047 13.3753 19.3499 13.3721 19.3866 13.3826C19.438 13.3952 19.48 13.4456 19.5388 13.4319C19.4695 13.3113 19.4779 13.179 19.4422 13.0499C19.4202 12.967 19.4307 12.8841 19.4359 12.8012C19.4412 12.712 19.4485 12.6176 19.416 12.5305C19.3866 12.4518 19.3709 12.3793 19.3782 12.2964C19.3813 12.2629 19.3876 12.2303 19.395 12.1978C19.5493 12.1841 19.7035 12.1726 19.8578 12.1642C19.8819 12.1674 19.9061 12.1716 19.9302 12.1758C19.9292 12.2072 19.9292 12.2398 19.9281 12.2713C19.925 12.414 20.0268 12.541 20.054 12.6816C20.0687 12.7561 20.0687 12.8191 20.0687 12.8925C20.0698 12.944 20.0855 12.9901 20.0971 13.0405C20.1181 13.1329 20.1233 13.2294 20.16 13.3165C20.2367 13.5012 20.3731 13.6418 20.5232 13.7678C20.6061 13.837 20.6669 13.9304 20.7467 14.0039C20.8128 14.0648 20.8779 14.1277 20.9398 14.1949C21.0731 14.3408 21.1927 14.5223 21.3743 14.6136C21.5726 14.7123 21.8329 14.6724 22.048 14.6756C22.2516 14.6777 22.4531 14.6451 22.6567 14.6472C22.749 14.6472 22.8435 14.6525 22.9348 14.6409C22.9327 14.6399 22.9306 14.6388 22.9275 14.6367C22.9474 14.6367 22.9642 14.6336 22.981 14.6325C22.9663 14.6346 22.9505 14.6388 22.9348 14.6409C22.9453 14.6462 22.9568 14.6493 22.9684 14.6493C22.9883 14.6493 23.0093 14.6388 23.0293 14.6273C23.0597 14.622 23.0901 14.6147 23.1237 14.6094C23.2853 14.5843 23.3892 14.431 23.4837 14.303C23.5172 14.2579 23.5571 14.2148 23.597 14.1781C23.6663 14.1141 23.6631 14.1204 23.5813 14.0249C23.5015 14.1036 23.4176 14.154 23.3063 14.1865C23.2098 14.2138 23.1237 14.2621 23.024 14.2757C22.9379 14.2883 22.8571 14.3103 22.7721 14.325C22.6714 14.3418 22.5675 14.3292 22.4657 14.3366C22.4237 14.3397 22.3817 14.345 22.3398 14.3492C22.1215 14.2526 21.9158 14.1466 21.7216 14.0018C21.6072 13.9157 21.4624 13.8454 21.3648 13.7436C21.2189 13.5925 21.0878 13.411 20.9776 13.2336C20.9062 13.1192 20.8674 13.0006 20.8097 12.8789C20.7593 12.7739 20.7278 12.6952 20.7173 12.5766C20.711 12.5011 20.711 12.4402 20.6848 12.3689C20.6669 12.3216 20.6459 12.2786 20.6323 12.2314C20.8296 12.2576 21.0269 12.287 21.2242 12.2975C21.3701 12.3059 21.5306 12.3122 21.6755 12.2849Z"/>
  <path d="M20.5749 3.45062C20.5256 3.45482 20.4773 3.50729 20.4437 3.53878C20.3892 3.58915 20.3374 3.64263 20.286 3.69615C20.3301 3.67306 20.3734 3.64792 20.4091 3.61854C20.4689 3.56816 20.5182 3.50415 20.5749 3.45062Z"/>
</svg>
