<svg width="28" height="24" viewBox="0 0 28 24" fill="#000000" xmlns="http://www.w3.org/2000/svg">
  <path d="M5.1314 7.3304C5.16121 7.3912 5.17671 7.46274 5.20771 7.52474C5.24586 7.60463 5.26255 7.69286 5.3019 7.76797C5.34482 7.85263 5.39132 7.90747 5.45094 7.94921C5.45928 8.01121 5.46405 8.00882 5.54275 8.01359C5.55705 8.01359 5.57255 8.01478 5.58805 8.01478C5.5964 8.01836 5.60236 8.02074 5.61071 8.02432C5.73232 8.0589 5.86229 8.06247 5.98867 8.05413C6.1079 8.04697 6.17825 7.96709 6.27959 7.91463C6.34994 7.87767 6.35829 7.87886 6.41313 7.81805C6.43817 7.79182 6.4644 7.76321 6.48944 7.73697C6.57529 7.6869 6.66113 7.63324 6.75652 7.5772C6.9914 7.4377 7.15475 7.3137 7.34194 7.1277C7.38606 7.08478 7.42898 7.01682 7.49575 7.0037C7.60902 6.98105 7.63525 7.1289 7.67817 7.22905C7.72706 7.3459 7.7986 7.4532 7.84271 7.56409C7.87252 7.63921 7.89517 7.7334 7.91067 7.8109C7.92498 7.88005 7.95002 7.95278 7.95956 8.02074C7.96552 8.06128 7.95002 8.10421 7.95479 8.14355C7.96433 8.22463 8.00964 8.28305 8.02871 8.36055C8.05017 8.45355 8.02394 8.55013 8.03825 8.64432C8.05256 8.73851 8.06567 8.83032 8.08117 8.92451C8.12887 9.19755 8.19325 9.50636 8.29937 9.75675C8.34467 9.86286 8.33156 9.9344 8.35183 10.0453C8.37448 10.1729 8.42217 10.2587 8.42098 10.3922C8.41979 10.5902 8.42098 10.7893 8.42098 10.9872C8.42098 11.3056 8.4496 11.637 8.36375 11.9446C8.31487 12.1163 8.31367 12.294 8.28387 12.4657C8.2946 12.4704 8.30414 12.4752 8.31487 12.48C8.34587 12.4919 8.37567 12.5038 8.40548 12.5158C8.47344 12.5444 8.54021 12.573 8.60579 12.6064C8.63441 12.6219 8.65229 12.6493 8.66183 12.6791C8.81206 12.7268 8.97064 12.7435 9.11729 12.8055C9.20671 12.8436 9.28421 12.8949 9.34144 12.9796C9.38437 13.0428 9.40225 13.1203 9.40583 13.1966C9.62283 13.1954 9.85295 13.1811 10.0735 13.2109C10.2667 13.1358 10.4753 13.1453 10.6518 13.2741C10.8497 13.4183 10.9725 13.6401 11.0608 13.8714C11.0643 13.8774 11.0631 13.8845 11.0643 13.8917C11.0703 13.8929 11.0763 13.8917 11.0822 13.8929C11.2575 13.9596 11.4387 13.9501 11.6319 13.9549C11.6462 13.9549 11.6617 13.9561 11.6772 13.9573C11.7571 13.9358 11.8393 13.9286 11.9216 13.9453C11.9764 13.9561 12.0277 13.9799 12.0754 14.0097C12.1291 14.0252 12.1827 14.0443 12.234 14.0705C12.2626 14.0848 12.2805 14.1123 12.29 14.1433C12.3711 14.1588 12.451 14.1647 12.5261 14.1516C12.5464 14.1409 12.569 14.1373 12.5929 14.1361C12.6072 14.1289 12.6215 14.1218 12.6418 14.1087C12.6489 14.1039 12.6513 14.1027 12.6525 14.1027C12.6632 14.0932 12.6728 14.0824 12.6811 14.0717C12.6942 14.0586 12.6835 14.0717 12.6978 14.0491C12.7061 14.0359 12.7145 14.0228 12.7228 14.0097C12.7407 13.9763 12.7562 13.9429 12.7717 13.9084C12.8158 13.807 12.8504 13.6997 12.8802 13.5912C12.8659 13.5304 12.8468 13.4696 12.8206 13.4124C12.7884 13.342 12.8015 13.2574 12.8695 13.2168C12.8969 13.1989 12.9315 13.1954 12.9637 13.2013C12.9673 13.1775 12.972 13.1536 12.9768 13.1298C12.9422 13.1024 12.9184 13.0606 12.9172 13.0141C12.9172 12.7184 12.8886 12.4168 12.9959 12.1354C12.9935 12.1175 12.9947 12.0996 12.9995 12.0818C13.0269 11.9947 13.0555 11.9077 13.0829 11.8206C13.0543 11.798 13.0328 11.7634 13.034 11.7133C13.0352 11.3211 13.1187 10.9359 13.2844 10.5842C13.3106 10.5258 13.3786 10.5055 13.4346 10.521C13.4323 10.4531 13.4263 10.3851 13.4191 10.3171C13.4299 10.3147 13.4394 10.3136 13.449 10.3052C13.4931 10.2671 13.5205 10.1562 13.5455 10.1144C13.5813 10.0548 13.6087 10.0179 13.6326 9.95467C13.6505 9.90579 13.654 9.88432 13.6838 9.83782C13.7113 9.7949 13.7458 9.76152 13.7768 9.72217C13.8055 9.68402 13.8579 9.58267 13.9032 9.5624C13.9664 9.53259 14.0821 9.55882 14.1512 9.55763C14.2096 9.55644 14.2848 9.53617 14.3241 9.5934C14.3491 9.63155 14.3205 9.71144 14.3336 9.75794C14.3837 9.76986 14.4314 9.74959 14.4815 9.76867C14.5196 9.78298 14.5781 9.84021 14.6079 9.8724C14.6448 9.91175 14.683 9.96302 14.714 10.0059C14.7319 10.0298 14.7474 10.0536 14.7605 10.0787C14.7843 10.0822 14.8082 10.0894 14.8296 10.1013C14.8845 10.1574 14.8845 10.2217 14.9143 10.2897C14.9608 10.397 15.0133 10.4221 15.0848 10.4876C15.0931 10.5759 15.1051 10.6617 15.1373 10.7356C15.1993 10.8739 15.2958 10.992 15.3817 11.1207C15.4234 11.1839 15.4401 11.2292 15.4485 11.302C15.4532 11.3568 15.4461 11.4224 15.4485 11.4856C15.4246 11.5166 15.4008 11.5476 15.3757 11.5786C15.4294 11.7252 15.4723 11.8767 15.5128 12.0293C15.5343 12.1092 15.557 12.1879 15.5808 12.2654C15.6082 12.2689 15.6368 12.2797 15.6583 12.3035C15.7072 12.3548 15.712 12.449 15.6619 12.5014C15.6976 12.5933 15.7358 12.6839 15.7847 12.7697C15.805 12.7816 15.824 12.7971 15.8348 12.8198C15.9111 12.9867 15.9301 13.1596 15.9266 13.342C15.9242 13.4231 15.9194 13.503 15.923 13.5829C15.9242 13.6437 15.9325 13.6949 15.9445 13.7498C15.9921 13.782 16.0136 13.8476 16.0029 13.9072C16.0029 13.9084 16.0017 13.9096 16.0017 13.9108C16.0959 14.0431 16.1889 14.1778 16.2592 14.3257C16.2676 14.3436 16.2711 14.3614 16.2723 14.3805C16.3618 14.3579 16.4488 14.3352 16.5346 14.3006C16.5406 14.2983 16.5478 14.2959 16.5537 14.2923C16.5561 14.2923 16.5585 14.2911 16.5621 14.2899C16.5764 14.2828 16.5907 14.2756 16.605 14.2673C16.636 14.2506 16.6634 14.2303 16.692 14.21C16.6992 14.2041 16.7051 14.1981 16.7123 14.1921C16.7254 14.179 16.7373 14.1659 16.7493 14.1516C16.754 14.1456 16.76 14.1397 16.7648 14.1337C16.7648 14.1325 16.7648 14.1337 16.766 14.1313C16.7767 14.1146 16.7874 14.0979 16.797 14.0813C16.8339 14.0133 16.9138 13.9954 16.9782 14.0288C16.9853 14.0061 16.9961 13.9894 17.0104 13.9751C17.0175 13.9191 17.0569 13.8666 17.1093 13.8523C17.3001 13.8034 17.4921 13.813 17.6828 13.8523C17.7103 13.8583 17.7305 13.875 17.746 13.8964C17.8533 13.8011 17.975 13.7271 18.1133 13.6902C18.1848 13.6711 18.2528 13.7128 18.2778 13.7844C18.285 13.7796 18.2945 13.7784 18.3028 13.7748C18.2909 13.7534 18.2802 13.7283 18.2838 13.7057C18.2957 13.6115 18.3183 13.5197 18.3732 13.4422C18.4245 13.3706 18.4877 13.3134 18.5628 13.2729C18.6355 13.2323 18.7118 13.2049 18.7893 13.1823C18.9527 12.9021 19.0945 12.6064 19.2674 12.3321C19.2901 12.2964 19.3199 12.2785 19.3521 12.2713C19.358 12.2487 19.3652 12.2272 19.37 12.2046C19.3771 12.1664 19.401 12.139 19.4296 12.1211C19.4141 12.046 19.3986 11.9697 19.3878 11.8958C19.358 11.6859 19.3843 11.4462 19.3843 11.2316C19.3843 11.0814 19.3831 10.93 19.3843 10.7786C19.3855 10.6498 19.3521 10.5365 19.3437 10.4101C19.3366 10.304 19.3485 10.1967 19.3473 10.0918C19.3425 9.85809 19.2841 9.63394 19.2674 9.40382C19.2531 9.2214 19.2424 8.99963 19.3151 8.82794C19.4141 8.59305 19.581 8.39513 19.7038 8.17455C19.7336 8.12209 19.7801 8.07082 19.8004 8.01359C19.8099 7.98974 19.8052 7.95517 19.8159 7.93132C19.8385 7.87886 19.8946 7.85382 19.9268 7.80971C20.0305 7.66901 20.1044 7.50328 20.2523 7.40074C20.3548 7.3304 20.5778 7.3447 20.6994 7.3602C20.7936 7.37213 20.8508 7.46155 20.9331 7.51759C20.9939 7.55932 21.0523 7.58197 21.1203 7.61655C21.1787 7.64517 21.2681 7.7024 21.3242 7.72028C21.3862 7.74055 21.4219 7.72982 21.4792 7.75963C21.5316 7.78705 21.565 7.83832 21.6222 7.85382C21.6866 7.86932 21.788 7.85024 21.8547 7.85024H22.5665C22.6369 7.85024 22.7835 7.88005 22.8515 7.8419C22.9493 7.78705 23.0029 7.67259 23.022 7.57005C23.0685 7.3149 23.0602 7.04543 23.0053 6.79266C22.966 6.61263 22.8789 6.42543 22.8289 6.25493C22.8086 6.18459 22.8062 6.11066 22.7776 6.04032C22.749 5.97236 22.7096 5.91274 22.675 5.84716C22.5451 5.59439 22.402 5.38455 22.2232 5.16993C22.1445 5.07574 22.0026 4.94816 21.8929 4.89928C21.819 4.86709 21.7248 4.88139 21.6413 4.88139C21.5066 4.88139 21.3897 4.86232 21.2777 4.93266C21.1525 5.01016 21.0952 5.17112 21.0404 5.30943C21.0142 5.37501 20.9832 5.42628 20.9581 5.49066C20.9283 5.56459 20.9474 5.6242 20.9307 5.69693C20.9164 5.76013 20.8902 5.78039 20.8902 5.85789C20.8902 5.94255 20.8794 6.02839 20.8353 6.10113C20.7363 6.26328 20.6004 6.26447 20.4371 6.26447C20.2189 6.26447 20.0186 6.30501 19.8004 6.30501C19.5917 6.30501 19.3712 6.26209 19.1875 6.37774C19.0087 6.48982 18.837 6.62217 18.6844 6.7867C18.6295 6.84513 18.5771 6.90474 18.5246 6.96436C18.4638 6.94647 18.403 6.93097 18.3541 6.90951C18.2552 6.8642 18.1264 6.74616 18.0441 6.67343C17.8724 6.52082 17.727 6.32766 17.5636 6.16432C17.4837 6.08324 17.3681 5.97832 17.2608 5.92705C17.1892 5.89247 17.1618 5.88651 17.0986 5.82928C17.0366 5.77086 16.9376 5.74343 16.8816 5.68739C16.7695 5.57412 16.6968 5.35832 16.6229 5.21643C16.5633 5.09959 16.5215 4.96605 16.4941 4.83728C16.4619 4.68705 16.4035 4.54516 16.382 4.39255C16.3725 4.32697 16.3796 4.26139 16.3641 4.19939C16.3558 4.16362 16.3165 4.11235 16.3057 4.07062C16.2628 3.90728 16.2175 3.77493 16.2187 3.60324C16.2199 3.41247 16.2187 3.22289 16.2187 3.03212C16.2187 2.59216 16.2175 2.151 16.2187 1.70985C16.2199 1.55843 16.1865 1.48093 16.1412 1.33546C16.1209 1.27704 16.1054 1.21743 16.0947 1.15543C16.0875 1.10773 16.0637 1.07316 16.0255 1.0505C16.0112 1.02308 15.9492 0.844232 15.9468 0.845425C15.9516 1.07316 15.9492 1.30208 15.9492 1.52981C15.948 1.9042 15.8288 2.25235 15.8336 2.62554C15.836 2.78054 15.7918 2.92362 15.793 3.07862C15.7954 3.2992 15.7608 3.50666 15.7549 3.72485C15.7465 4.00028 15.7561 4.27808 15.7561 4.55351C15.7561 4.82416 15.6786 5.1902 15.8097 5.44774C15.8586 5.54312 15.9397 5.60632 16.0184 5.67189C16.1293 5.76489 16.2235 5.86505 16.3117 5.98309C16.4273 6.14047 16.5668 6.27759 16.6765 6.43974C16.8435 6.68655 17.064 6.92143 17.1928 7.19805C17.2238 7.26601 17.2417 7.2994 17.2989 7.35186C17.374 7.42101 17.4062 7.4854 17.4635 7.56767C17.5219 7.64994 17.6077 7.74771 17.6924 7.79897C17.7067 7.80732 17.721 7.81447 17.7353 7.82163C17.6817 7.76678 17.6447 7.71551 17.6614 7.69167C17.7138 7.67259 17.7913 7.77751 17.8653 7.87767C17.8223 7.85978 17.7782 7.8419 17.7353 7.82163C17.7711 7.8574 17.8116 7.89317 17.8522 7.92655C17.7305 8.15309 17.6268 8.38917 17.5505 8.63598C17.4957 8.81482 17.4754 8.99844 17.4074 9.17252C17.3371 9.35613 17.2572 9.53855 17.2095 9.73052C17.1976 9.77821 17.1892 9.82829 17.1809 9.87836C17.1642 9.83782 17.1463 9.79848 17.1415 9.75794C17.1284 9.64825 17.1451 9.52305 17.1463 9.41336C17.1463 9.29294 17.1356 9.20113 17.1153 9.08428C17.0962 8.97221 17.1356 8.83748 17.1081 8.73255C17.0676 8.5704 17.0151 8.39155 16.9591 8.21867C16.9353 8.14713 16.9102 8.08751 16.8768 8.01597C16.8101 7.86813 16.7803 7.70121 16.6885 7.56647C16.5656 7.38286 16.3665 7.30655 16.1936 7.17659C16.0828 7.09313 15.9373 7.02397 15.8443 6.91905C15.6452 6.69728 15.483 6.45763 15.309 6.21678C15.266 6.15716 15.2112 6.13093 15.1611 6.07728C15.08 5.98905 15.0061 5.8722 14.9048 5.80424C14.8463 5.7637 14.8451 5.77086 14.8201 5.69932C14.7772 5.5777 14.7891 5.45609 14.7903 5.32493C14.7927 4.93624 14.7891 4.54635 14.7903 4.15766C14.7915 3.95616 14.7617 3.77254 14.7545 3.57224C14.7498 3.45301 14.7152 3.33854 14.7128 3.21931C14.7092 3.09293 14.714 2.96774 14.714 2.84254V2.06635C14.7128 1.88035 14.714 1.69435 14.7152 1.50835C14.7176 1.33666 14.6746 1.21027 14.6448 1.04692C14.5912 0.76077 14.4386 0.539001 14.3277 0.285039C14.2848 0.187269 14.2025 0.13004 14.1679 0.00961646C14.1631 0.13004 14.2573 0.308885 14.2931 0.423347C14.3527 0.614116 14.4481 0.803694 14.4755 1.00281C14.4886 1.09939 14.4851 1.19119 14.4827 1.29016C14.472 1.89823 14.5292 2.52539 14.4791 3.13227C14.4529 3.43751 14.4362 3.76658 14.3658 4.06585C14.3456 4.15408 14.3336 4.22205 14.3289 4.31147C14.3241 4.39255 14.2919 4.45455 14.2871 4.53562C14.2728 4.78482 14.2693 5.06024 14.3384 5.29632C14.3861 5.46324 14.3658 5.64447 14.3658 5.81736C14.3658 5.94493 14.3992 6.05701 14.4052 6.1822C14.4195 6.48147 14.5793 6.7557 14.683 7.03828C14.7009 7.08597 14.7331 7.13009 14.7533 7.17301C14.8034 7.27317 14.8571 7.37451 14.9131 7.47228C14.9942 7.61417 15.1039 7.72624 15.2064 7.85144C15.2493 7.90271 15.2756 7.96113 15.3292 8.00405C15.3781 8.04221 15.4437 8.06009 15.4961 8.09347C15.644 8.18886 15.774 8.3224 15.8789 8.46905C15.8884 8.54536 15.8932 8.62286 15.9015 8.69917C15.9218 8.90305 15.9015 9.14867 15.7954 9.32752C15.743 9.41455 15.6571 9.4849 15.5987 9.57075C15.545 9.64586 15.52 9.70786 15.4485 9.76629C15.4008 9.80444 15.3507 9.86405 15.2946 9.88432C15.2434 9.9034 15.1718 9.90936 15.1182 9.92367C15.1182 9.92367 15.1182 9.92367 15.117 9.92367C15.1122 9.85571 15.1027 9.78775 15.0633 9.72336C15.0145 9.64229 14.9215 9.56121 14.8416 9.51709C14.7283 9.45628 14.6818 9.40978 14.5971 9.32275C14.553 9.27625 14.5304 9.23452 14.4922 9.1904C14.4576 9.14986 14.4624 9.15582 14.4052 9.15105C14.3289 9.14271 14.3134 9.14271 14.2418 9.11052C14.1953 9.09025 14.0773 9.01871 14.0272 9.02467C13.9915 9.02825 13.8937 9.09144 13.8639 9.11648C13.8114 9.15821 13.8162 9.2214 13.778 9.26671C13.7435 9.30725 13.6767 9.33586 13.6338 9.36448C13.5467 9.42409 13.4561 9.47775 13.3679 9.53259C13.3762 9.46702 13.3905 9.40382 13.4191 9.32752C13.5157 9.06878 13.6326 8.78978 13.6636 8.51198C13.7005 8.17455 13.6707 7.81805 13.6707 7.47824C13.6707 7.21474 13.6683 6.95005 13.6707 6.68655C13.6719 6.63886 13.6719 6.59713 13.6624 6.55063C13.6505 6.4934 13.6481 6.4159 13.6338 6.36343C13.6218 6.31932 13.6051 6.31693 13.5849 6.27878C13.5181 6.14643 13.5563 5.97832 13.5098 5.84239C13.4573 5.69216 13.3726 5.55028 13.3214 5.40005C13.2856 5.28916 13.2498 5.17232 13.2045 5.06501C13.158 4.95055 13.0555 4.8647 12.9935 4.75859C12.9446 4.67632 12.9231 4.57497 12.8898 4.48316C12.8325 4.33293 12.7216 4.16005 12.705 3.98835C12.6942 3.8882 12.7228 3.80235 12.6895 3.70339C12.6489 3.58654 12.6263 3.51858 12.6298 3.39458C12.6346 3.20024 12.5941 3.01304 12.5881 2.81989C12.5845 2.69947 12.5905 2.57785 12.5905 2.45743C12.5905 2.20585 12.6036 1.9495 12.5845 1.69912C12.5738 1.55366 12.5333 1.41296 12.5213 1.2675C12.5046 1.05885 12.5571 0.854962 12.5726 0.649885C12.581 0.536616 12.5869 0.423347 12.5941 0.310077C12.5953 0.283846 12.5845 7.75336e-05 12.5833 7.75336e-05C12.5118 0.0406161 12.4665 0.124077 12.42 0.189654C12.3425 0.300539 12.2638 0.410232 12.1923 0.525886C12.1505 0.593848 12.1088 0.663001 12.0766 0.736924C12.0444 0.810847 12.0206 0.887155 12.0146 0.968232C12.0086 1.04692 12.0229 1.12204 12.0408 1.19596L11.9228 1.22339C11.9204 1.35573 11.9395 1.49523 11.9598 1.60135C11.9884 1.75516 12.0396 1.90062 12.0504 2.05562C12.0528 2.08662 12.0516 2.11404 12.0504 2.14147C12.0241 2.3072 11.9979 2.47412 11.9621 2.63747C11.9311 2.77697 11.9144 2.92124 11.8954 3.06312C11.8775 3.19785 11.8143 3.32424 11.7714 3.4542C11.7106 3.63781 11.6641 3.79758 11.6629 3.99193C11.6629 4.09566 11.639 4.23755 11.6843 4.32816C11.7308 4.42355 11.7988 4.52847 11.8572 4.61908C11.8799 4.65605 11.9109 4.68347 11.9347 4.71805C11.9729 4.77408 11.9729 4.81224 12.0003 4.87424C12.048 4.97916 12.1398 5.07216 12.1994 5.17232C12.2221 5.21047 12.2173 5.2212 12.2423 5.25816C12.259 5.2832 12.2853 5.30466 12.3043 5.3297C12.4748 5.56339 12.5249 5.85193 12.7455 6.04151C12.7729 6.06416 12.8087 6.0892 12.8456 6.11663C12.8981 6.24539 12.9482 6.37416 12.9732 6.50651C13.0293 6.8034 12.9184 7.07524 12.7693 7.3137C12.6453 7.51044 12.5154 7.7024 12.3747 7.88601C12.2161 8.0899 12.0337 8.25205 11.9335 8.49528C11.8465 8.70871 11.7857 8.92809 11.7165 9.14509C11.6593 9.32155 11.577 9.48967 11.5162 9.66613C11.4697 9.80325 11.453 9.93559 11.4411 10.0715C11.2301 9.92963 10.9976 9.81398 10.7996 9.6554C10.7519 9.61844 10.7054 9.58863 10.6578 9.56121C10.6589 9.52902 10.6601 9.49802 10.6601 9.46702C10.6601 9.26909 10.6506 9.08428 10.6947 8.89351C10.7531 8.63359 10.8008 8.37844 10.9034 8.13401C10.9606 7.99571 11.0286 7.86813 11.087 7.72624C11.1299 7.62013 11.1502 7.5307 11.2086 7.42697C11.2694 7.31847 11.3398 7.20759 11.3553 7.0812C11.3719 6.95124 11.3898 6.81293 11.397 6.68178C11.4089 6.48266 11.3398 6.30501 11.2766 6.12139C11.2205 5.96043 11.1693 5.78039 11.1025 5.62659C11.1335 5.68143 11.1371 5.81259 11.1204 5.87459C11.1061 5.92466 11.0941 5.94613 11.0858 6.00813C11.0763 6.07251 11.056 6.12378 11.0357 6.18459C10.9785 6.35032 10.8831 6.48743 10.7722 6.62693C10.5922 6.85467 10.3799 7.00728 10.1522 7.18017C9.98887 7.30536 9.86368 7.47228 9.74445 7.64159C9.67648 7.47705 9.62164 7.33636 9.57037 7.16347C9.51791 6.98582 9.49764 6.8022 9.45352 6.62336C9.43325 6.54347 9.42491 6.48028 9.42491 6.39205C9.4261 6.1512 9.40941 5.93063 9.4726 5.69932C9.52148 5.52405 9.54056 5.33209 9.57037 5.15085C9.5966 4.99109 9.59898 4.80628 9.60852 4.64889C9.61329 4.56066 9.60614 4.46766 9.64071 4.38778C9.68602 4.28524 9.68602 4.23158 9.69795 4.11831C9.71702 3.93589 9.77783 3.76062 9.80764 3.57939C9.83029 3.44108 9.8601 3.30277 9.8911 3.16685C9.9376 2.96654 10.0139 2.79127 10.0771 2.59931C10.2071 2.20108 10.2846 1.75277 10.2345 1.3295C10.213 1.15781 10.1629 0.920541 10.0795 0.767925C10.0533 0.717848 10.0115 0.616501 9.97337 0.583116C9.94595 0.666578 9.96502 0.778656 9.96502 0.866887C9.96502 1.06243 9.96741 1.23889 9.93045 1.42608C9.91375 1.50596 9.94237 1.59062 9.92925 1.66931C9.91375 1.75635 9.88752 1.85293 9.86606 1.93997C9.84102 2.04012 9.81002 2.15339 9.78498 2.24043C9.73729 2.40497 9.65145 2.54208 9.57991 2.6947C9.52745 2.80916 9.46902 2.91051 9.38556 3.00351C9.25679 3.14539 9.17214 3.33497 9.08391 3.51262C8.84783 3.98716 8.72621 4.51297 8.72979 5.04593C8.73098 5.17828 8.72979 5.31062 8.72979 5.44178C8.7286 5.60632 8.72621 5.76489 8.75006 5.92824C8.77152 6.08324 8.83114 6.22155 8.86929 6.3694C8.87406 6.39086 8.87644 6.41351 8.88002 6.43497C8.8371 6.38609 8.79298 6.3384 8.75244 6.2919C8.66779 6.19532 8.61533 6.08086 8.50564 6.01766C8.30414 5.90201 8.09071 5.8102 7.88087 5.71482C7.69487 5.63136 7.79144 5.65878 7.6889 5.65401C7.61498 5.65043 7.5196 5.64089 7.46117 5.70528C7.42302 5.75178 7.38606 6.0582 7.29067 5.9497L7.27636 5.91036C7.2716 5.89724 7.26563 5.88413 7.25729 5.8722C7.25252 5.84239 7.24894 5.81139 7.23821 5.78874C7.23583 5.78278 7.23225 5.77801 7.22867 5.77205C7.0534 5.91393 6.84475 5.99024 6.60986 5.90082C6.42267 5.83047 6.26767 5.69455 6.13175 5.53716C6.11029 5.4847 6.08167 5.42509 6.02921 5.40839H6.02682C6.00655 5.38097 5.98509 5.35593 5.96602 5.32851H5.91355C5.80148 5.32851 5.65363 5.30228 5.54394 5.32732C5.44259 5.35116 5.38178 5.44416 5.32455 5.5312C5.24705 5.64924 5.21963 5.74701 5.16955 5.87816C5.13975 5.95566 5.10875 5.98309 5.1004 6.05939C5.09444 6.11305 5.10875 6.17147 5.10159 6.22393C5.09086 6.31455 5.06225 6.36582 5.06225 6.46716C5.06344 6.58163 5.06225 6.69728 5.06225 6.81293C5.06225 6.9274 5.05628 7.04424 5.06105 7.1587C5.06463 7.24217 5.09682 7.26244 5.1314 7.3304Z"/>
  <path d="M14.8475 14.8098C14.8332 14.8897 14.8356 14.9695 14.8213 15.047C14.8165 15.0709 14.8106 15.0935 14.8034 15.1162C14.7068 15.2104 14.5936 15.2867 14.4672 15.3451C14.2681 15.4381 14.0284 15.4751 13.8555 15.3034C13.7912 15.2402 13.7506 15.1591 13.7232 15.0721C13.7065 15.0578 13.691 15.0399 13.6815 15.016C13.654 14.9505 13.6338 14.8849 13.6195 14.8157C13.5479 14.458 13.5563 14.0574 13.6493 13.7045C13.7411 13.3528 13.9783 13.001 14.3658 13.0416C14.3873 13.044 14.4064 13.0499 14.4255 13.0535C14.4553 13.0857 14.4839 13.1179 14.5125 13.1489C14.5161 13.1525 14.5197 13.1572 14.5232 13.162C14.5316 13.1787 14.5399 13.1954 14.5483 13.2121C14.5781 13.2681 14.6222 13.3122 14.6675 13.354C14.7259 13.4493 14.7736 13.5519 14.7998 13.6556C14.8094 13.695 14.8261 13.7272 14.8297 13.7772C14.8356 13.8512 14.8452 13.9215 14.8678 13.993C14.9095 14.117 14.906 14.2232 14.9072 14.3579C14.9072 14.52 14.875 14.6512 14.8475 14.8098ZM25.9241 9.77107C25.9169 9.43961 25.849 9.08668 25.967 8.76834C26.0266 8.60618 26.128 8.47145 26.2353 8.34029C26.2079 8.30095 26.2341 8.24253 26.2949 8.1853C26.3199 8.16145 26.3617 8.14118 26.407 8.12449C26.4129 8.11495 26.4189 8.10541 26.4261 8.09587C26.1959 8.09706 25.9694 8.08156 25.7429 8.14118C25.5604 8.18887 25.3566 8.29618 25.2135 8.42018C25.1372 8.48576 25.0811 8.56922 24.9869 8.58353C24.6746 8.63122 24.3002 8.55968 24.0164 8.44045C23.8662 8.37726 23.7398 8.33672 23.5741 8.3391C23.4572 8.3403 23.3392 8.33314 23.2211 8.34149C23.0363 8.35341 22.8956 8.42733 22.7251 8.49649C22.4998 8.5883 22.3186 8.65507 22.1337 8.81841C22.0455 8.89591 21.9442 8.94837 21.8524 9.0211C21.6521 9.18326 21.4517 9.35137 21.255 9.52068C20.9963 9.74245 20.7697 10.0119 20.5468 10.273C20.4216 10.4197 20.3286 10.564 20.2439 10.7416C20.1485 10.9407 20.0544 11.1279 19.9423 11.3187C19.8171 11.5309 19.742 11.7491 19.6764 11.99C19.6573 12.0579 19.6406 12.1259 19.6239 12.195C19.6335 12.2225 19.637 12.2523 19.6323 12.2809H19.6311C19.6323 12.3095 19.6239 12.3369 19.6096 12.3608C19.5905 12.4323 19.5667 12.5015 19.5369 12.5694C19.5297 12.6028 19.5214 12.6374 19.5142 12.6708C19.513 12.6541 19.513 12.6374 19.5119 12.6207C19.482 12.6827 19.451 12.7435 19.4165 12.8019C19.3771 12.8711 19.3366 12.9402 19.302 13.013C19.2984 13.0225 19.2949 13.0308 19.2901 13.0404C19.2889 13.0428 19.2889 13.044 19.2877 13.0463C19.2817 13.0642 19.2758 13.0809 19.2698 13.0988C19.2591 13.137 19.2507 13.1763 19.246 13.2156C19.24 13.2633 19.203 13.2931 19.1625 13.3075C19.147 13.3492 19.1148 13.385 19.0731 13.3969C19.0361 13.4076 19.0004 13.4183 18.9622 13.4291C18.9527 13.4446 18.9443 13.4601 18.9348 13.4768C18.7977 13.6926 18.6295 13.9346 18.4137 14.0848C18.4459 14.1457 18.4447 14.2291 18.372 14.2768C18.0179 14.5177 17.6077 14.3555 17.2298 14.2506C17.157 14.4533 17.0032 14.5868 16.8053 14.6488C16.6288 14.7025 16.4405 14.7037 16.258 14.7037C16.239 14.7037 16.2211 14.6989 16.2056 14.6917C16.196 14.6941 16.1877 14.6953 16.1782 14.6989C16.1197 14.7132 16.0649 14.6882 16.0327 14.6405C15.9945 14.6262 15.96 14.6059 15.9218 14.5844C15.9194 14.582 15.9158 14.5808 15.9123 14.5797C15.9099 14.5785 15.9075 14.5773 15.9039 14.5773C15.9027 14.5773 15.9027 14.5761 15.9015 14.5761C15.9003 14.5761 15.898 14.5773 15.8968 14.5773C15.8896 14.5785 15.8777 14.5808 15.8729 14.582C15.867 14.5844 15.8562 14.5892 15.8479 14.5928C15.8455 14.594 15.8431 14.594 15.8407 14.594C15.836 14.5975 15.83 14.5999 15.8252 14.6023C15.8228 14.6035 15.8205 14.6035 15.8193 14.6047C15.8145 14.6166 15.8133 14.6273 15.8097 14.6393C15.7895 14.6977 15.743 14.7382 15.6869 14.7418C15.6774 14.7037 15.6714 14.6655 15.6607 14.6273C15.6106 14.4533 15.5355 14.2852 15.4616 14.1182C15.4675 14.086 15.4747 14.0538 15.4795 14.0205C15.4818 14.0073 15.483 13.9942 15.4854 13.9811C15.4854 13.9763 15.489 13.9465 15.489 13.943C15.4926 13.912 15.4962 13.8798 15.4973 13.8488C15.5021 13.788 15.5045 13.7272 15.5045 13.6663C15.5045 13.664 15.5057 13.6628 15.5057 13.6604C15.4008 13.4863 15.2982 13.3086 15.1909 13.1358C15.1862 13.1071 15.1826 13.0797 15.1766 13.0523C15.154 12.9355 15.1528 12.8115 15.1397 12.6922C15.1516 12.6255 15.1587 12.5587 15.1552 12.4943C15.1492 12.4967 15.142 12.5003 15.1361 12.5026C15.1242 12.5062 15.1122 12.5074 15.0991 12.5074C15.0788 12.4502 15.049 12.3965 15.0216 12.3429C14.9656 12.2284 14.9143 12.1199 14.9048 11.9876C14.8976 11.8838 14.9215 11.7789 14.9 11.6764C14.8714 11.5369 14.7903 11.4021 14.7605 11.2603C14.7355 11.1386 14.7307 11.023 14.6878 10.9061C14.6627 10.8382 14.6317 10.7738 14.6067 10.7058C14.559 10.5759 14.4994 10.3493 14.3539 10.2933C14.2585 10.2575 14.0892 10.2718 14.0201 10.3481C13.976 10.3982 13.9485 10.4566 13.9056 10.5031C13.8818 10.5282 13.8496 10.5496 13.8245 10.5747C13.7375 10.6641 13.7113 10.7833 13.6624 10.9002C13.5718 11.1136 13.4931 11.339 13.4812 11.5703C13.474 11.6895 13.4418 11.7968 13.4394 11.9184C13.4382 12.0019 13.412 12.0603 13.4001 12.139C13.3929 12.1831 13.412 12.2308 13.4037 12.2749C13.3929 12.3321 13.3738 12.3679 13.3631 12.4263C13.3214 12.6696 13.2653 12.8985 13.1962 13.1381C13.158 13.2717 13.1342 13.3838 13.1056 13.5209C13.0746 13.6675 12.9923 13.7999 12.9756 13.9489C12.9553 14.1194 12.9768 14.3078 12.9768 14.4795C12.9768 14.5081 12.9756 14.5379 12.9744 14.5677C12.7574 14.6285 12.5285 14.6178 12.3294 14.4807C12.3091 14.4664 12.2948 14.4485 12.2841 14.4294C12.1958 14.4151 12.1076 14.3948 12.023 14.3722C11.8966 14.3388 11.7666 14.2923 11.6378 14.2697C11.5079 14.3197 11.3827 14.3758 11.2396 14.3782C11.1633 14.3793 11.1073 14.3114 11.1037 14.2351C11.1037 14.222 11.1073 14.21 11.1108 14.1981C11.0763 14.1898 11.0429 14.1826 11.0107 14.1695C10.9737 14.1564 10.9451 14.129 10.9272 14.0968C10.8962 14.098 10.8628 14.086 10.8342 14.0515C10.7281 13.9239 10.6196 13.7975 10.4944 13.689C10.4205 13.6258 10.3144 13.5638 10.2321 13.5376C10.1892 13.5233 10.1439 13.5161 10.0986 13.5078C10.064 13.5233 10.0258 13.5245 9.99245 13.5102C9.96622 13.5423 9.92807 13.565 9.88872 13.565C9.69438 13.565 9.50242 13.559 9.31165 13.5185C9.25203 13.5066 9.21984 13.447 9.21507 13.3873C9.16857 13.3647 9.13161 13.3158 9.13518 13.2598C9.13638 13.2466 9.13995 13.2133 9.13638 13.1942C9.13638 13.193 9.13638 13.1954 9.13518 13.1918C9.13399 13.1882 9.13399 13.1835 9.1328 13.1787C9.13041 13.1703 9.12803 13.1632 9.12565 13.1548C9.12565 13.1536 9.12565 13.1548 9.12565 13.1536C9.12088 13.1465 9.11611 13.1393 9.11253 13.1322C9.11134 13.131 9.11253 13.1322 9.11015 13.131C9.10418 13.125 9.09822 13.1179 9.09226 13.1119C9.0863 13.1083 9.08153 13.1048 9.07557 13.1C9.06126 13.0916 9.04576 13.0833 9.03145 13.0761H9.03026C9.02191 13.0726 9.01476 13.069 9.00641 13.0666C8.98853 13.0595 8.97065 13.0547 8.95276 13.0487C8.87645 13.0261 8.79776 13.0106 8.72145 12.9927C8.55572 12.9521 8.38164 12.8949 8.26122 12.7626C8.20757 12.7399 8.15391 12.7185 8.10264 12.6946C7.96791 12.6314 7.84272 12.5444 7.74614 12.4251C7.70561 12.3739 7.69845 12.3095 7.72826 12.2535C7.6746 12.1771 7.61976 12.1008 7.57087 12.0221C7.48503 11.8815 7.4576 11.73 7.38249 11.587C7.35149 11.5238 7.30499 11.4749 7.24418 11.4427C7.19768 11.4296 7.14999 11.4248 7.1023 11.4296C7.03672 11.3759 6.97949 11.3139 6.92941 11.2436C6.84118 11.1506 6.7601 11.0504 6.68618 10.9455C6.54191 10.7428 6.4668 10.5008 6.35949 10.2754C6.26529 10.0799 6.20091 9.93799 6.04233 9.79134C5.87899 9.65422 5.72041 9.51234 5.56541 9.36449C5.5046 9.29295 5.45333 9.21426 5.4116 9.12722C5.22918 8.8661 4.96329 8.8041 4.67356 8.7743C4.28129 8.73256 3.91406 8.76595 3.52179 8.78383C3.3346 8.79218 3.11521 8.83153 2.93279 8.87564C2.80402 8.90664 2.63948 8.96149 2.51906 9.01991C2.4046 9.07476 2.3426 9.15464 2.20787 9.15703C2.00875 9.15941 1.86925 9.03303 1.69636 8.95314C1.60933 8.9138 1.52586 8.87684 1.44002 8.83034C1.32436 8.76595 1.20871 8.70156 1.10498 8.62287C1.05132 8.58233 0.978595 8.54895 0.971441 8.62407C0.980979 8.67176 1.02152 8.68726 1.04894 8.72422C1.08352 8.7743 1.06921 8.80053 1.09306 8.85657C1.11809 8.91976 1.20513 8.97222 1.24329 9.02945C1.28859 9.09622 1.30171 9.1773 1.3184 9.2536C1.33152 9.31441 1.35417 9.36926 1.35894 9.43245C1.36729 9.52903 1.32556 9.6101 1.31721 9.70191C1.31006 9.77584 1.32675 9.85334 1.3196 9.92726C1.31244 9.99284 1.28502 10.0465 1.27786 10.1109C1.26236 10.2635 1.29813 10.4245 1.28025 10.5759C1.27309 10.645 1.24806 10.657 1.22063 10.7166C1.19202 10.7786 1.21467 10.8382 1.1944 10.9014C1.1789 10.9538 1.1324 10.998 1.1014 11.0409C1.06206 11.0993 1.05848 11.147 1.02986 11.2078C0.984556 11.3044 0.901094 11.3771 0.938055 11.4987C1.03582 11.4331 1.09902 11.3056 1.18248 11.2269C1.23613 11.1756 1.27309 11.1255 1.33986 11.0981C1.41975 11.0635 1.51275 11.0647 1.58906 11.0146C1.65463 10.9705 1.68921 10.8906 1.76313 10.862C1.80725 10.8453 1.83944 10.8418 1.88237 10.8227C2.04929 10.75 2.19236 10.6236 2.3414 10.5186C2.44156 10.4483 2.51071 10.3613 2.5751 10.2492C2.65617 10.1085 2.7766 10.0298 2.92206 9.94157C3.01744 9.88434 3.10687 9.87957 3.2106 9.84737C3.27498 9.8283 3.3036 9.80207 3.36441 9.77107C3.48364 9.71026 3.59571 9.72099 3.73164 9.72099C3.89856 9.72099 4.05833 9.71503 4.21452 9.75318C4.27056 9.7663 4.32064 9.75437 4.37668 9.76034C4.46133 9.76868 4.5436 9.81876 4.62587 9.84141C4.74033 9.87241 4.89772 9.9678 4.98714 10.056C5.03006 10.0966 5.04556 10.149 5.06225 10.2051C5.10637 10.3541 5.16956 10.5139 5.18149 10.6713C5.18983 10.7714 5.17314 10.8692 5.18626 10.9705C5.20056 11.0719 5.2411 11.1649 5.25779 11.2638C5.27806 11.3831 5.24825 11.5178 5.25302 11.6394C5.26018 11.8993 5.38299 12.1473 5.45095 12.3941C5.50341 12.5813 5.51176 12.7769 5.59641 12.9533C5.62502 13.013 5.65364 13.069 5.67152 13.1358C5.71683 13.311 5.74783 13.4863 5.81579 13.6568C5.86587 13.7808 5.89449 13.9179 5.95887 14.0336C6.00179 14.1111 6.0626 14.1731 6.10076 14.2553C6.13533 14.3293 6.16395 14.4115 6.21045 14.4807C6.28914 14.5975 6.39168 14.6941 6.45249 14.8229C6.49064 14.9052 6.50376 14.9886 6.53595 15.0721C6.58603 15.202 6.67903 15.307 6.74103 15.431C6.81614 15.5776 6.86622 15.7398 6.98545 15.853C7.12018 15.9806 7.31453 16.0331 7.4588 16.1487C7.5196 16.1976 7.5673 16.2501 7.6293 16.2942C7.73184 16.3657 7.84153 16.4075 7.95957 16.4528C8.15153 16.5255 8.33038 16.5136 8.53307 16.5124C8.54618 16.5124 8.56168 16.5124 8.57718 16.5172C8.66065 16.6698 8.72503 16.8403 8.76318 17.0108C8.82161 17.2743 8.84307 17.5521 8.84665 17.8227C8.84784 17.9658 8.81922 18.1101 8.73099 18.2234C8.64157 18.3402 8.51399 18.4105 8.41384 18.5131C8.31964 18.6097 8.22307 18.7003 8.12411 18.7861C8.00845 18.8875 7.87968 19.0019 7.77357 19.114C7.7223 19.1677 7.6901 19.2309 7.64241 19.2881C7.57087 19.3704 7.4886 19.4264 7.44449 19.5301C7.40991 19.6112 7.40276 19.6994 7.36341 19.7793C7.31453 19.8771 7.23464 19.957 7.1941 20.0571C7.13449 20.2014 7.07845 20.3814 7.0403 20.5364C7.00333 20.689 7.03195 20.8882 7.03195 21.0455C7.03195 21.2697 7.03791 21.4414 7.12018 21.6477C7.18695 21.8146 7.30022 21.9398 7.3968 22.09C7.45284 22.1747 7.47668 22.2331 7.56253 22.2891C7.60426 22.3154 7.64599 22.3332 7.68534 22.3642C7.91426 22.5395 7.88564 22.7649 7.88207 23.0212C7.88803 22.9807 7.90472 22.9425 7.91187 22.8972C7.9238 22.8173 7.91903 22.7553 7.93691 22.6742C7.98222 22.4584 8.00011 22.2653 7.99772 22.0471C7.99653 21.8444 7.96076 21.631 7.92022 21.433C7.88564 21.2697 7.84034 21.1123 7.84272 20.943C7.84391 20.8238 7.82841 20.6974 7.84034 20.5805C7.85703 20.4208 7.93691 20.3945 8.04422 20.3182C8.09787 20.2789 8.13245 20.2145 8.18849 20.1787C8.23737 20.1489 8.30295 20.1299 8.35184 20.1012C8.47703 20.0309 8.64634 19.9772 8.73695 19.858C8.73457 19.914 8.72145 19.951 8.70476 20.0011C8.68091 20.0738 8.65349 20.1454 8.62368 20.2157C8.59626 20.2658 8.56884 20.317 8.54141 20.3683C8.51757 20.4756 8.52353 20.5877 8.49849 20.6998C8.47226 20.8178 8.45795 20.9156 8.46034 21.0348C8.46511 21.3257 8.53545 21.5749 8.64276 21.8396C8.68926 21.9529 8.76199 22.0542 8.8073 22.1627C8.85618 22.2796 8.90507 22.4012 8.95872 22.5145C9.04457 22.6993 9.14711 22.8686 9.15545 23.0749C9.16141 23.2012 9.19242 23.429 9.11134 23.5351C9.15188 23.4469 9.26753 23.3861 9.33311 23.3217C9.39153 23.2632 9.43088 23.2156 9.46426 23.1404C9.49407 23.0725 9.54057 23.0141 9.56203 22.9413C9.59661 22.8245 9.57872 22.6969 9.57992 22.5753C9.57992 22.4107 9.53818 22.3201 9.47261 22.1735C9.41776 22.0519 9.32595 21.9493 9.28184 21.8325C9.2258 21.6882 9.09822 21.464 9.11491 21.309C9.12207 21.2447 9.10776 21.2423 9.17215 21.228C9.27111 21.2041 9.26992 21.2375 9.37245 21.1803C9.46068 21.1314 9.53342 21.1111 9.60495 21.0455C9.6908 20.9669 9.78022 20.8858 9.86726 20.8059C10.1451 20.5484 10.3811 20.2491 10.5958 19.9331C10.659 19.8413 10.7472 19.7614 10.8151 19.6708C10.8688 19.666 10.9236 19.6625 10.9797 19.6553C11.1788 19.6327 11.3755 19.5969 11.5186 19.449C11.5138 19.4717 11.5079 19.492 11.5019 19.5075C11.4781 19.5742 11.4256 19.6386 11.3875 19.6994C11.3171 19.8115 11.2658 19.9462 11.1919 20.0535C11.1359 20.137 11.0608 20.2062 11.0011 20.2884C10.9153 20.4112 10.8473 20.534 10.7675 20.6604C10.6375 20.8703 10.5314 21.0825 10.5075 21.3412C10.4896 21.5487 10.5493 21.7085 10.6232 21.9016C10.7424 22.2092 10.8593 22.524 10.8938 22.8579C10.9105 23.0105 10.9225 23.2752 10.8593 23.4135C10.8092 23.522 10.7198 23.6555 10.6482 23.7461C10.6196 23.7831 10.566 23.8141 10.5493 23.857C10.5946 23.8403 10.6208 23.8093 10.659 23.7783C10.7698 23.6877 10.8891 23.6126 11.0107 23.5387C11.0846 23.4934 11.1526 23.4397 11.2205 23.3861C11.366 23.2704 11.4471 23.1094 11.4793 22.9294C11.5055 22.7863 11.5556 22.6468 11.5806 22.5049C11.6068 22.3571 11.5997 22.2092 11.6343 22.0614C11.6855 21.8384 11.67 21.6012 11.7404 21.3877C11.7797 21.2685 11.7964 21.1409 11.837 21.0241C11.9145 20.7999 12.1303 20.6938 12.2757 20.5174C12.364 20.4112 12.445 20.292 12.5142 20.1704C12.5595 20.0917 12.6155 20.0488 12.6513 19.9689C12.6918 19.8771 12.7479 19.8067 12.7741 19.7161L12.7753 19.7173C12.7896 19.7269 12.8063 19.7376 12.8206 19.7471C12.8027 19.9045 12.7789 20.0607 12.7431 20.2193C12.6954 20.4255 12.6763 20.627 12.5988 20.8262C12.5619 20.9227 12.5428 21.0098 12.5249 21.1111C12.4868 21.3257 12.4236 21.5308 12.4033 21.749C12.3807 21.9815 12.3938 22.1663 12.476 22.3821C12.5368 22.5443 12.6084 22.6921 12.6871 22.8447C12.767 22.9986 12.8504 23.1786 12.8922 23.3491C12.922 23.4779 12.8361 23.7771 12.9255 23.8737C13.102 23.578 13.2236 23.3026 13.1354 22.9568C13.0698 22.7041 12.9398 22.4465 12.9363 22.1842C12.9315 21.9064 12.916 21.656 13.0388 21.3997C13.2129 21.0384 13.4442 20.7272 13.5837 20.3457C13.6791 20.0869 13.7184 19.8449 13.7375 19.5909C13.8055 19.7424 13.8603 19.9021 13.9414 20.0416C14.0153 20.1668 14.0475 20.2956 14.1453 20.4077C14.1953 20.4661 14.2585 20.5233 14.3122 20.5782C14.336 20.602 14.3587 20.6282 14.3825 20.6533C14.3909 20.72 14.4004 20.7868 14.4135 20.8512C14.4302 20.9311 14.4338 21.0217 14.4517 21.1064C14.4684 21.1898 14.5113 21.2709 14.5304 21.3555C14.5638 21.5058 14.5805 21.6679 14.615 21.8241C14.6067 21.9243 14.6019 22.0268 14.5614 22.1139C14.5256 22.1902 14.4696 22.2498 14.441 22.3297C14.4219 22.3821 14.4255 22.4394 14.398 22.4954C14.3253 22.6456 14.2442 22.7374 14.1465 22.8614C14.0213 23.0188 13.8734 23.299 13.9116 23.5005C13.9223 23.5637 13.9724 23.6579 14.0082 23.7211C14.0535 23.7998 14.1369 23.8904 14.1441 23.9917C14.1965 23.9822 14.2073 23.7545 14.218 23.6937C14.2466 23.5291 14.3754 23.3932 14.4517 23.2537C14.5173 23.1345 14.5948 23.0093 14.683 22.9079C14.8332 22.7339 14.9024 22.5991 14.9656 22.3678C15.0109 22.2045 15.0538 22.0018 15.0633 21.8301C15.0729 21.6536 15.092 21.4104 15.0455 21.2423C15.0216 21.16 14.9847 21.0742 14.9548 20.9931C14.9227 20.9049 14.8571 20.825 14.8368 20.7332C14.8332 20.7212 14.832 20.7093 14.8297 20.6962V20.3671C14.8297 20.3302 14.8308 20.2932 14.832 20.255C14.894 20.2705 14.9238 20.348 14.9727 20.4148C15.0395 20.5054 15.1122 20.5925 15.1814 20.6807C15.2386 20.7546 15.3042 20.8107 15.3829 20.8607C15.4532 20.9049 15.5176 20.9108 15.6023 20.9418C15.7024 20.9776 15.7907 21.0479 15.8813 21.1052C15.9433 21.1457 16.0482 21.216 16.0947 21.2757C16.1209 21.3079 16.1162 21.3699 16.14 21.4044C16.1662 21.4426 16.2151 21.4545 16.2378 21.4927C16.2843 21.5773 16.258 21.7228 16.258 21.8146C16.258 21.929 16.2747 22.0626 16.2509 22.1747C16.239 22.2367 16.2008 22.2867 16.1841 22.3452C16.1638 22.4179 16.1638 22.4978 16.1448 22.5729C16.1138 22.685 16.0673 22.7613 16.0649 22.8769C16.0625 22.9974 16.0649 23.1178 16.0649 23.237C16.0649 23.3431 16.0542 23.423 16.1102 23.5184C16.1495 23.584 16.258 23.6555 16.2902 23.7187C16.3177 23.7747 16.2855 23.8153 16.3391 23.8618C16.3713 23.8892 16.4345 23.8916 16.4715 23.9119C16.5132 23.9345 16.5537 23.9715 16.5919 24.0001C16.5013 23.9071 16.4548 23.7187 16.4488 23.5923C16.4405 23.4266 16.4369 23.2704 16.4929 23.1154C16.5502 22.9604 16.63 22.7994 16.698 22.648C16.7576 22.5145 16.8339 22.3821 16.8959 22.2474C16.9377 22.158 17.002 22.0995 17.0509 22.0185C17.0974 21.9386 17.1129 21.8277 17.1463 21.7419C17.1821 21.65 17.2226 21.5737 17.2262 21.4736C17.231 21.3365 17.2226 21.1958 17.2226 21.0587C17.2226 20.8834 17.2596 20.6521 17.2214 20.4804C17.1749 20.2753 17.0545 20.1549 16.9508 19.9868C16.8673 19.8497 16.7684 19.7078 16.7004 19.5623C16.6718 19.5003 16.6479 19.4443 16.6217 19.3894C16.6527 19.4371 16.6837 19.4848 16.7159 19.5325C16.9031 19.8115 17.1475 20.0512 17.3514 20.3182C17.4325 20.4244 17.5052 20.5567 17.603 20.6449C17.6638 20.6998 17.7282 20.7189 17.7317 20.8154C17.8271 20.8178 17.9297 20.9824 17.9964 21.0479C18.062 21.1111 18.1049 21.1874 18.1586 21.259C18.2373 21.3615 18.2265 21.4485 18.2265 21.5749C18.2265 21.7752 18.2301 21.9624 18.1884 22.158C18.1645 22.2665 18.1717 22.3845 18.1479 22.4894C18.1371 22.5371 18.1121 22.5741 18.0918 22.6194C18.0584 22.6957 18.0513 22.7768 18.0239 22.8531C17.9821 22.9699 17.9154 23.0892 17.8605 23.2012C17.8069 23.3109 17.7675 23.3968 17.851 23.4969C17.9237 23.584 18 23.6567 18.1061 23.6961C18.1395 23.5601 18.1002 23.4719 18.1777 23.3443C18.2754 23.181 18.44 23.0474 18.5485 22.8829C18.5985 22.8054 18.6474 22.7589 18.7082 22.6921C18.8358 22.5526 18.8668 22.2987 18.9229 22.1186C19.017 21.8194 19.1172 21.5606 19.1148 21.2399C19.1136 21.1219 19.116 21.005 19.1148 20.887C19.1136 20.7594 19.0671 20.6473 19.0445 20.5209C19.0039 20.2956 18.8954 20.1287 18.7953 19.9307C18.7285 19.7972 18.6904 19.6804 18.6081 19.5516C18.527 19.4264 18.4161 19.3119 18.3756 19.1712C18.3482 19.0782 18.3112 19.0103 18.2742 18.9232C18.2468 18.8577 18.2516 18.7456 18.1955 18.7039C18.5306 18.6717 18.8597 18.9542 19.0659 19.2046C19.1983 19.3656 19.3354 19.4944 19.4248 19.6851C19.4475 19.734 19.4809 19.7865 19.5023 19.8365C19.5607 19.9689 19.5417 20.1239 19.5405 20.2658C19.5381 20.4446 19.5643 20.6402 19.5452 20.8166C19.5309 20.9442 19.4355 21.0491 19.3986 21.1684C19.3616 21.2888 19.3378 21.4128 19.2889 21.5308C19.2579 21.6012 19.2054 21.6846 19.1899 21.7562C19.1601 21.8897 19.2269 21.966 19.2805 22.0745C19.3104 22.1365 19.3366 22.2224 19.3759 22.276C19.4022 22.2438 19.3819 22.1794 19.3819 22.1401C19.3819 22.0352 19.395 21.9422 19.426 21.8432C19.4665 21.7168 19.5238 21.6119 19.6072 21.5117C19.7527 21.3365 20.0138 21.2292 20.1223 21.0265C20.1724 20.9311 20.2451 20.8357 20.288 20.7391C20.3584 20.5889 20.387 20.3993 20.4299 20.2384C20.4752 20.0655 20.4872 19.8902 20.4454 19.7137C20.4013 19.5313 20.3417 19.3143 20.2475 19.1545C20.0317 18.7909 19.7563 18.4797 19.4499 18.2019C19.2555 18.0266 19.1077 17.8263 18.9264 17.6403C18.812 17.5199 18.7929 17.4555 18.7404 17.2874C18.7392 17.2814 18.7369 17.2743 18.7345 17.2683C18.9038 17.1634 19.06 17.0382 19.1756 16.8665C19.3163 16.6543 19.3199 16.3657 19.575 16.2799C19.6943 16.2393 19.7956 16.1845 19.9041 16.1201C19.9971 16.0665 20.102 16.0259 20.1819 15.9508C20.2451 15.8912 20.2511 15.853 20.2928 15.7815C20.325 15.7267 20.3667 15.7016 20.381 15.6277C20.4073 15.4918 20.4204 15.4608 20.5253 15.3392C20.5575 15.301 20.5849 15.2867 20.6219 15.2593C20.6863 15.214 20.6815 15.2116 20.7376 15.1353C20.7912 15.0613 20.8782 14.9838 20.951 14.9397C20.9832 14.9207 21.1143 14.8873 21.1203 14.8551C21.075 14.799 21.0082 14.7967 20.9438 14.78C20.9224 14.7752 20.8997 14.7728 20.8782 14.7692C20.9701 14.7597 21.0702 14.712 21.1227 14.6643C21.2073 14.588 21.2002 14.5057 21.199 14.3972C21.199 14.3615 21.1894 14.3114 21.1966 14.2756C21.2073 14.2184 21.2502 14.185 21.2753 14.1361C21.354 13.9799 21.3957 13.7892 21.4541 13.6246C21.5734 13.2836 21.7224 12.9307 21.7701 12.567C21.7951 12.3786 21.7653 12.1891 21.776 11.9995C21.7808 11.9291 21.8071 11.866 21.8178 11.798C21.8392 11.6609 21.844 11.513 21.8524 11.3747C21.8607 11.2495 21.844 11.122 21.8571 10.998C21.8726 10.8394 21.9287 10.6725 21.9716 10.5198C22.0169 10.3577 22.0694 10.1681 22.1826 10.0465C22.216 10.0119 22.247 9.97853 22.284 9.94991C22.3591 9.89149 22.3913 9.85095 22.4485 9.7663C22.4926 9.70191 22.5367 9.65064 22.594 9.59937C22.6441 9.55407 22.687 9.4861 22.7371 9.44557C22.8014 9.3943 22.9123 9.39787 22.9839 9.35853C23.1055 9.29295 23.2021 9.20472 23.3404 9.17014C23.5299 9.12245 23.71 9.23095 23.8996 9.23334C23.9556 9.23334 24.0224 9.21903 24.0772 9.22857C24.1631 9.24526 24.2549 9.36449 24.3288 9.42649C24.4134 9.49684 24.4802 9.60295 24.5494 9.69237C24.6662 9.84261 24.7997 9.99403 24.9035 10.1538C25.0466 10.3732 25.2898 10.5282 25.477 10.7094C25.5354 10.7666 25.6034 10.8418 25.6761 10.8787C25.756 10.9193 25.8645 10.9181 25.9515 10.9324C26.0612 10.9491 26.1745 10.9503 26.2878 10.9479C26.1649 10.8263 26.0636 10.6832 25.9968 10.5151C25.9026 10.2778 25.8943 10.0226 25.9241 9.77107Z"/>
  <path d="M9.13519 13.1846C9.13639 13.1869 9.13519 13.1905 9.13519 13.1929C9.13758 13.1977 9.13639 13.1917 9.13519 13.1846Z"/>
  <path d="M0.932065 9.80915C0.933257 9.70422 0.892719 9.64818 0.892719 9.54207C0.895103 9.35011 0.94518 9.08064 0.835488 8.92803C0.748449 8.80641 0.716257 8.65976 0.545757 8.66334C0.507603 8.70626 0.395526 8.71699 0.312064 8.81595C0.250064 8.88749 0.223833 9.01507 0.199987 9.10926C0.166602 9.23684 0.108179 9.36799 0.0867175 9.49676C0.0783713 9.54445 0.0867175 9.58976 0.0747944 9.63745C0.0533328 9.73284 0.00802503 9.81391 0.0032558 9.91884C-0.00389806 10.1025 0.00564038 10.2896 0.00564038 10.4733C0.00564038 10.5233 -0.0062827 10.5889 0.00444809 10.6366C0.0116019 10.67 0.0342558 10.6915 0.0414097 10.7201C0.0604867 10.8119 0.0366404 10.8941 0.0831405 10.9836C0.157064 11.1243 0.345449 11.3365 0.509987 11.2363C0.585103 11.1898 0.669757 11.104 0.710295 11.0241C0.748449 10.9514 0.748449 10.8691 0.778257 10.7988C0.85218 10.6223 0.923719 10.3993 0.933257 10.199C0.939219 10.0703 0.930873 9.93791 0.932065 9.80915Z"/>
  <path d="M27.2809 9.331C27.2535 9.23323 27.1939 9.14619 27.1796 9.04604C27.1712 8.99358 27.1688 8.96019 27.1521 8.90773C27.1223 8.80877 27.1021 8.72769 27.046 8.64423C26.9828 8.54527 26.9351 8.42842 26.8731 8.33661C26.8588 8.31515 26.7813 8.23765 26.7289 8.246C26.7253 8.25673 26.7217 8.26746 26.7181 8.277C26.6895 8.26269 26.6609 8.25315 26.6335 8.24719C26.5977 8.29488 26.5596 8.34138 26.5214 8.38669C26.5238 8.41531 26.5274 8.44273 26.5262 8.46061C26.5202 8.54408 26.5 8.65377 26.4785 8.73604C26.4356 8.90415 26.37 9.06273 26.3414 9.23442C26.3318 9.29165 26.3342 9.34531 26.3461 9.39538C26.3354 9.43235 26.3223 9.46931 26.3128 9.50746C26.2686 9.67677 26.2388 9.85562 26.2424 10.0309C26.2543 10.0464 26.2663 10.0643 26.2758 10.0857C26.308 10.1501 26.314 10.2217 26.3509 10.2896C26.3974 10.3755 26.4415 10.4708 26.494 10.5519C26.5298 10.6056 26.5703 10.695 26.612 10.7415C26.6466 10.7797 26.7038 10.782 26.736 10.8178C26.7515 10.8345 26.7539 10.8631 26.7646 10.8822C26.7754 10.8905 26.7873 10.8965 26.7992 10.9037C26.8255 10.9025 26.8505 10.8631 26.8708 10.8488C26.9495 10.7975 27.015 10.7761 27.0746 10.6986C27.3596 10.3242 27.4073 9.79004 27.2809 9.331Z"/>
</svg>
