<?xml version="1.0" encoding="UTF-8" standalone="no"?>
<!-- Created with Inkscape (http://www.inkscape.org/) -->

<svg
   width="24.28241"
   height="24"
   viewBox="0 0 6.4247209 6.35"
   version="1.1"
   id="svg57418"
   inkscape:version="1.2.1 (9c6d41e4, 2022-07-14)"
   sodipodi:docname="expedition-team.svg"
   xmlns:inkscape="http://www.inkscape.org/namespaces/inkscape"
   xmlns:sodipodi="http://sodipodi.sourceforge.net/DTD/sodipodi-0.dtd"
   xmlns="http://www.w3.org/2000/svg"
   xmlns:svg="http://www.w3.org/2000/svg">
  <sodipodi:namedview
     id="namedview57420"
     pagecolor="#505050"
     bordercolor="#eeeeee"
     borderopacity="1"
     inkscape:showpageshadow="0"
     inkscape:pageopacity="0"
     inkscape:pagecheckerboard="0"
     inkscape:deskcolor="#505050"
     inkscape:document-units="mm"
     showgrid="false"
     inkscape:zoom="0.7046647"
     inkscape:cx="41.154325"
     inkscape:cy="253.31196"
     inkscape:window-width="1390"
     inkscape:window-height="941"
     inkscape:window-x="0"
     inkscape:window-y="25"
     inkscape:window-maximized="0"
     inkscape:current-layer="layer1" />
  <defs
     id="defs57415">
    <clipPath
       clipPathUnits="userSpaceOnUse"
       id="clipPath54689">
      <path
         d="m 65.076,624.799 h 24.699 v 24.699 H 65.076 Z"
         id="path54687" />
    </clipPath>
  </defs>
  <g
     inkscape:label="Layer 1"
     inkscape:groupmode="layer"
     id="layer1"
     transform="translate(-94.410902,-81.682148)">
    <g
       id="g54683"
       transform="matrix(0.27974801,0,0,-0.27974801,75.90655,263.1793)">
      <g
         id="g54685"
         clip-path="url(#clipPath54689)">
        <g
           id="g54691"
           transform="translate(77.6128,648.591)">
          <path
             d="M 0,0 C 0.007,-0.011 0.013,-0.018 0.02,-0.023 0.042,0.046 0.039,0.107 0.039,0.197 0.003,0.102 -0.032,0.052 0,0"
             style="fill:#100f0d;fill-opacity:1;fill-rule:nonzero;stroke:none"
             id="path54693" />
        </g>
        <g
           id="g54695"
           transform="translate(69.8906,645.807)">
          <path
             d="M 0,0 C 0.012,-0.004 0.022,-0.005 0.031,-0.005 0.003,0.062 -0.039,0.107 -0.097,0.176 -0.063,0.08 -0.057,0.019 0,0"
             style="fill:#100f0d;fill-opacity:1;fill-rule:nonzero;stroke:none"
             id="path54697" />
        </g>
        <g
           id="g54699"
           transform="translate(66.3335,639.254)">
          <path
             d="M 0,0 C 0.011,0.005 0.02,0.01 0.027,0.016 -0.038,0.049 -0.099,0.057 -0.187,0.073 -0.1,0.021 -0.056,-0.022 0,0"
             style="fill:#100f0d;fill-opacity:1;fill-rule:nonzero;stroke:none"
             id="path54701" />
        </g>
        <g
           id="g54703"
           transform="translate(67.4534,631.249)">
          <path
             d="M 0,0 C 0.006,0.011 0.009,0.02 0.01,0.029 -0.06,0.014 -0.113,-0.019 -0.19,-0.064 -0.09,-0.048 -0.029,-0.053 0,0"
             style="fill:#100f0d;fill-opacity:1;fill-rule:nonzero;stroke:none"
             id="path54705" />
        </g>
        <g
           id="g54707"
           transform="translate(73.8294,626.261)">
          <path
             d="M 0,0 C -0.003,0.012 -0.007,0.021 -0.011,0.029 -0.055,-0.028 -0.074,-0.087 -0.104,-0.172 -0.038,-0.095 0.012,-0.059 0,0"
             style="fill:#100f0d;fill-opacity:1;fill-rule:nonzero;stroke:none"
             id="path54709" />
        </g>
        <g
           id="g54711"
           transform="translate(81.6851,626.107)">
          <path
             d="M 0,0 C 0.001,0.102 0.017,0.161 -0.031,0.199 -0.04,0.206 -0.049,0.211 -0.058,0.214 -0.054,0.142 -0.031,0.084 0,0"
             style="fill:#100f0d;fill-opacity:1;fill-rule:nonzero;stroke:none"
             id="path54713" />
        </g>
        <g
           id="g54715"
           transform="translate(87.77,631.465)">
          <path
             d="M 0,0 C -0.064,0.079 -0.091,0.134 -0.151,0.133 -0.164,0.132 -0.173,0.13 -0.182,0.127 -0.133,0.074 -0.078,0.045 0,0"
             style="fill:#100f0d;fill-opacity:1;fill-rule:nonzero;stroke:none"
             id="path54717" />
        </g>
        <g
           id="g54719"
           transform="translate(89.1126,638.993)">
          <path
             d="M 0,0 C -0.1,0.019 -0.156,0.045 -0.201,0.004 -0.21,-0.004 -0.216,-0.012 -0.221,-0.02 -0.149,-0.029 -0.089,-0.016 0,0"
             style="fill:#100f0d;fill-opacity:1;fill-rule:nonzero;stroke:none"
             id="path54721" />
        </g>
        <g
           id="g54723"
           transform="translate(87.497,638.622)">
          <path
             d="m 0,0 c -0.291,-0.123 -0.595,-0.269 -0.85,-0.459 -0.138,-0.103 -0.26,-0.222 -0.396,-0.327 -0.11,-0.085 -0.19,-0.199 -0.294,-0.291 -0.148,-0.13 -0.313,-0.244 -0.472,-0.36 -0.142,-0.105 -0.252,-0.203 -0.377,-0.322 -0.094,-0.09 -0.207,-0.165 -0.317,-0.242 -0.174,0.292 -0.234,0.6 -0.327,0.938 -0.053,0.191 -0.138,0.411 -0.261,0.566 -0.108,0.137 -0.182,0.284 -0.275,0.427 -0.054,0.083 -0.132,0.154 -0.2,0.229 -0.099,0.11 -0.198,0.222 -0.301,0.329 0.055,0.101 0.116,0.199 0.164,0.302 0.037,0.079 0.055,0.16 0.085,0.241 0.058,0.151 0.168,0.273 0.236,0.417 0.034,0.072 0.069,0.151 0.103,0.229 C -3.291,1.559 -3.101,1.436 -2.916,1.298 -2.705,1.14 -2.618,0.891 -2.346,0.807 -2.231,0.771 -2.113,0.76 -1.994,0.762 -1.731,0.766 -1.5,0.715 -1.243,0.665 -1.096,0.637 -1.024,0.632 -0.894,0.572 -0.736,0.499 -0.57,0.468 -0.398,0.455 -0.321,0.45 -0.232,0.464 -0.157,0.451 -0.099,0.44 -0.05,0.404 0.007,0.391 0.232,0.341 0.461,0.26 0.695,0.237 0.745,0.232 0.797,0.233 0.848,0.236 0.731,0.216 0.614,0.195 0.497,0.174 0.314,0.143 0.169,0.072 0,0 m -1.728,-5.095 c 0.095,-0.115 0.146,-0.166 0.207,-0.295 0.074,-0.157 0.182,-0.288 0.306,-0.408 0.055,-0.054 0.132,-0.101 0.181,-0.159 0.038,-0.045 0.052,-0.104 0.088,-0.151 0.14,-0.183 0.263,-0.392 0.427,-0.561 0.035,-0.036 0.075,-0.068 0.117,-0.098 -0.102,0.059 -0.206,0.118 -0.308,0.178 -0.161,0.094 -0.318,0.132 -0.493,0.186 -0.302,0.092 -0.629,0.176 -0.946,0.195 -0.173,0.01 -0.343,-0.003 -0.514,0.004 -0.139,0.005 -0.274,-0.03 -0.413,-0.034 -0.197,-0.004 -0.396,0.015 -0.593,0.027 -0.175,0.011 -0.323,0.007 -0.495,-0.004 -0.156,-0.01 -0.319,0.013 -0.478,0.024 0.064,0.154 0.139,0.306 0.214,0.469 0.082,0.18 0.158,0.404 0.165,0.602 0.004,0.174 0.043,0.334 0.063,0.503 0.012,0.098 -0.002,0.203 -0.006,0.304 -0.006,0.169 -0.01,0.339 -0.024,0.507 0.088,0.033 0.176,0.063 0.261,0.103 0.078,0.036 0.144,0.087 0.22,0.129 0.141,0.079 0.304,0.101 0.448,0.168 0.146,0.068 0.311,0.151 0.451,0.229 0.042,0.024 0.083,0.058 0.121,0.095 0.046,-0.148 0.09,-0.298 0.126,-0.453 0.06,-0.256 -0.033,-0.502 0.121,-0.742 0.065,-0.101 0.148,-0.186 0.241,-0.261 0.204,-0.165 0.348,-0.353 0.513,-0.557 m -4.343,-3.443 c -0.015,-0.119 -0.006,-0.238 0.016,-0.355 0.05,-0.257 0.04,-0.494 0.036,-0.756 -0.002,-0.15 0.005,-0.221 -0.031,-0.359 -0.044,-0.169 -0.047,-0.338 -0.029,-0.51 0.008,-0.076 0.037,-0.162 0.037,-0.238 0,-0.059 -0.027,-0.113 -0.03,-0.172 -0.01,-0.229 -0.051,-0.47 -0.033,-0.704 0.004,-0.05 0.014,-0.101 0.027,-0.151 -0.041,0.112 -0.082,0.223 -0.122,0.335 -0.064,0.175 -0.159,0.306 -0.258,0.459 -0.172,0.265 -0.369,0.54 -0.6,0.757 -0.126,0.119 -0.264,0.219 -0.391,0.334 -0.103,0.093 -0.229,0.153 -0.337,0.24 -0.155,0.122 -0.295,0.266 -0.437,0.401 -0.128,0.122 -0.244,0.213 -0.383,0.315 -0.147,0.109 -0.273,0.26 -0.41,0.383 0.207,0.134 0.432,0.226 0.671,0.34 0.179,0.085 0.381,0.208 0.512,0.356 0.116,0.129 0.249,0.228 0.373,0.344 0.072,0.067 0.128,0.157 0.19,0.237 0.163,0.207 0.333,0.411 0.46,0.642 0.002,0.003 0.003,0.007 0.005,0.01 0.06,-0.021 0.119,-0.042 0.18,-0.059 0.084,-0.022 0.167,-0.025 0.252,-0.042 0.159,-0.03 0.298,-0.117 0.452,-0.159 0.155,-0.042 0.334,-0.085 0.493,-0.115 0.036,-0.006 0.077,-0.007 0.119,-0.006 -0.117,-0.295 -0.231,-0.59 -0.378,-0.88 -0.119,-0.235 -0.348,-0.364 -0.384,-0.647 m -4.633,-0.534 c -0.242,-0.103 -0.501,-0.054 -0.71,-0.248 -0.089,-0.081 -0.158,-0.178 -0.216,-0.282 -0.127,-0.23 -0.287,-0.404 -0.459,-0.603 -0.098,-0.113 -0.138,-0.172 -0.254,-0.255 -0.142,-0.1 -0.253,-0.228 -0.35,-0.371 -0.043,-0.064 -0.076,-0.149 -0.124,-0.207 -0.038,-0.045 -0.094,-0.069 -0.134,-0.112 -0.156,-0.17 -0.341,-0.327 -0.478,-0.519 -0.029,-0.041 -0.054,-0.086 -0.077,-0.132 0.041,0.112 0.081,0.223 0.122,0.335 0.065,0.175 0.075,0.336 0.098,0.518 0.039,0.313 0.064,0.65 0.027,0.965 -0.02,0.171 -0.062,0.337 -0.085,0.507 -0.019,0.138 -0.077,0.264 -0.104,0.4 -0.039,0.193 -0.055,0.393 -0.077,0.589 -0.019,0.175 -0.049,0.319 -0.09,0.487 -0.038,0.152 -0.043,0.318 -0.06,0.478 0.121,-0.031 0.243,-0.066 0.371,-0.099 0.192,-0.05 0.426,-0.086 0.621,-0.057 0.172,0.025 0.337,0.015 0.507,0.024 0.099,0.006 0.2,0.038 0.298,0.059 0.258,0.055 0.519,0.102 0.765,0.197 0.032,0.012 0.064,0.026 0.096,0.039 0.078,-0.118 0.141,-0.248 0.222,-0.364 0.05,-0.071 0.111,-0.126 0.166,-0.194 0.103,-0.125 0.152,-0.282 0.243,-0.412 0.092,-0.132 0.202,-0.28 0.304,-0.404 0.006,-0.008 0.014,-0.015 0.021,-0.022 -0.209,-0.112 -0.42,-0.221 -0.643,-0.317 m -4.955,2.314 c -0.252,0.076 -0.419,0.28 -0.704,0.266 -0.119,-0.005 -0.235,-0.035 -0.346,-0.078 -0.245,-0.094 -0.48,-0.124 -0.739,-0.166 -0.147,-0.024 -0.217,-0.043 -0.359,-0.032 -0.173,0.015 -0.341,-0.013 -0.507,-0.06 -0.074,-0.021 -0.153,-0.065 -0.227,-0.078 -0.059,-0.01 -0.117,0.007 -0.175,0 -0.228,-0.03 -0.472,-0.032 -0.7,-0.09 -0.048,-0.012 -0.096,-0.031 -0.144,-0.052 0.103,0.059 0.206,0.119 0.309,0.178 0.162,0.093 0.274,0.209 0.408,0.334 0.231,0.215 0.467,0.456 0.641,0.722 0.095,0.144 0.169,0.298 0.261,0.443 0.074,0.118 0.111,0.252 0.177,0.374 0.094,0.173 0.211,0.336 0.32,0.5 0.097,0.146 0.167,0.276 0.244,0.431 0.081,0.165 0.21,0.316 0.307,0.474 0.072,0.116 0.137,0.222 0.184,0.351 0.004,0.013 0.007,0.027 0.011,0.04 0.212,-0.2 0.359,-0.437 0.538,-0.689 0.115,-0.162 0.27,-0.34 0.439,-0.443 0.148,-0.092 0.268,-0.205 0.404,-0.307 0.079,-0.06 0.177,-0.099 0.266,-0.147 0.201,-0.107 0.402,-0.218 0.613,-0.302 0,-10e-4 0,-0.002 0.001,-0.003 0.002,-0.192 -0.055,-0.378 -0.072,-0.567 -0.007,-0.086 0.004,-0.169 0.003,-0.255 -0.002,-0.162 -0.065,-0.314 -0.079,-0.473 -0.015,-0.16 -0.025,-0.344 -0.027,-0.505 -10e-4,-0.035 0.005,-0.073 0.013,-0.112 -0.353,0.073 -0.706,0.139 -1.06,0.246 m -2.118,5.699 c -0.096,0.073 -0.203,0.124 -0.316,0.163 -0.248,0.086 -0.448,0.213 -0.673,0.348 -0.128,0.076 -0.193,0.106 -0.295,0.206 -0.124,0.123 -0.269,0.209 -0.427,0.28 -0.07,0.031 -0.159,0.049 -0.224,0.087 -0.051,0.029 -0.085,0.079 -0.134,0.111 -0.194,0.124 -0.382,0.279 -0.594,0.381 -0.046,0.022 -0.094,0.039 -0.144,0.053 0.117,-0.021 0.234,-0.041 0.351,-0.062 0.183,-0.033 0.344,-0.016 0.527,-0.006 0.316,0.016 0.651,0.049 0.955,0.14 0.166,0.05 0.322,0.12 0.485,0.172 0.132,0.043 0.247,0.122 0.376,0.173 0.184,0.072 0.377,0.122 0.566,0.177 0.169,0.05 0.306,0.105 0.465,0.174 0.065,0.029 0.135,0.05 0.206,0.071 0.04,-0.3 -0.002,-0.586 -0.027,-0.905 -0.016,-0.197 -0.011,-0.433 0.051,-0.621 0.055,-0.165 0.074,-0.329 0.112,-0.495 0.023,-0.096 0.072,-0.19 0.11,-0.283 0.082,-0.202 0.16,-0.406 0.26,-0.598 -0.079,-0.068 -0.16,-0.132 -0.233,-0.205 -0.061,-0.061 -0.106,-0.132 -0.162,-0.197 -0.106,-0.123 -0.251,-0.199 -0.364,-0.312 -0.027,-0.026 -0.054,-0.056 -0.082,-0.083 -0.146,0.185 -0.289,0.373 -0.421,0.575 -0.145,0.221 -0.141,0.484 -0.368,0.656 m 0.892,6.846 c -0.02,0.056 -0.014,0.116 -0.031,0.172 -0.069,0.219 -0.113,0.459 -0.21,0.673 -0.021,0.046 -0.048,0.09 -0.076,0.133 0.076,-0.091 0.153,-0.182 0.229,-0.273 0.119,-0.143 0.253,-0.233 0.399,-0.344 0.253,-0.19 0.531,-0.381 0.823,-0.506 0.158,-0.069 0.323,-0.115 0.481,-0.18 0.129,-0.052 0.267,-0.065 0.399,-0.11 0.187,-0.062 0.368,-0.149 0.548,-0.228 0.161,-0.07 0.302,-0.116 0.468,-0.165 0.176,-0.051 0.347,-0.152 0.519,-0.221 0.087,-0.034 0.169,-0.063 0.254,-0.087 -0.119,-0.133 -0.252,-0.257 -0.387,-0.395 -0.139,-0.141 -0.287,-0.325 -0.36,-0.509 -0.064,-0.162 -0.155,-0.299 -0.232,-0.451 -0.045,-0.088 -0.067,-0.192 -0.098,-0.287 -0.041,-0.125 -0.083,-0.249 -0.12,-0.374 -0.144,-0.009 -0.288,0.001 -0.43,-0.011 -0.087,-0.007 -0.166,-0.033 -0.251,-0.047 -0.16,-0.026 -0.321,0.01 -0.479,-0.004 -0.161,-0.013 -0.343,-0.035 -0.502,-0.061 -0.098,-0.016 -0.207,-0.075 -0.291,-0.124 -0.016,-0.01 -0.033,-0.022 -0.05,-0.032 0.007,0.204 0.018,0.41 0.043,0.618 0.031,0.262 0.203,0.461 0.14,0.739 -0.027,0.117 -0.076,0.226 -0.137,0.328 -0.135,0.225 -0.206,0.451 -0.292,0.698 -0.049,0.142 -0.081,0.206 -0.094,0.349 -0.016,0.173 -0.072,0.333 -0.147,0.488 -0.034,0.069 -0.091,0.14 -0.116,0.211 m 5.341,0.078 c 0.192,0.18 0.452,0.222 0.583,0.476 0.055,0.106 0.087,0.221 0.105,0.339 0.041,0.259 0.132,0.478 0.226,0.723 0.053,0.139 0.071,0.209 0.152,0.327 0.099,0.142 0.159,0.301 0.201,0.468 0.019,0.075 0.02,0.166 0.046,0.237 0.021,0.055 0.065,0.097 0.087,0.151 0.089,0.213 0.209,0.424 0.272,0.651 0.014,0.048 0.022,0.099 0.027,0.151 0,-0.119 0,-0.238 0,-0.357 0,-0.186 0.044,-0.341 0.086,-0.52 0.07,-0.308 0.161,-0.633 0.304,-0.916 C -9.378,7.44 -9.281,7.299 -9.201,7.148 -9.137,7.024 -9.039,6.925 -8.966,6.807 -8.864,6.639 -8.781,6.456 -8.694,6.28 -8.615,6.122 -8.537,5.997 -8.442,5.853 -8.344,5.706 -8.278,5.528 -8.195,5.37 -8.397,5.335 -8.602,5.325 -8.822,5.304 -9.019,5.285 -9.251,5.239 -9.425,5.145 -9.578,5.063 -9.737,5.015 -9.893,4.949 -9.984,4.91 -10.068,4.845 -10.153,4.792 c -0.223,-0.14 -0.453,-0.273 -0.651,-0.447 -0.046,-0.04 -0.09,-0.08 -0.133,-0.121 -0.162,0.094 -0.293,0.232 -0.444,0.338 -0.072,0.05 -0.148,0.082 -0.223,0.126 -0.139,0.083 -0.24,0.213 -0.37,0.305 -0.074,0.052 -0.156,0.106 -0.238,0.159 0.214,0.243 0.426,0.486 0.668,0.713 m 5.23,-0.567 c 0.264,0.015 0.49,-0.12 0.753,-0.009 0.11,0.046 0.209,0.113 0.299,0.191 0.198,0.173 0.408,0.282 0.637,0.409 0.13,0.073 0.189,0.115 0.327,0.153 0.167,0.046 0.315,0.129 0.455,0.23 0.063,0.045 0.122,0.113 0.188,0.151 0.051,0.029 0.111,0.033 0.164,0.06 0.204,0.106 0.432,0.191 0.626,0.324 0.042,0.028 0.08,0.062 0.117,0.098 C -2.824,6.814 -2.9,6.723 -2.977,6.632 -3.097,6.49 -3.162,6.342 -3.246,6.179 -3.389,5.897 -3.528,5.59 -3.602,5.281 -3.641,5.113 -3.658,4.943 -3.695,4.776 -3.724,4.639 -3.713,4.501 -3.734,4.363 -3.763,4.169 -3.817,3.976 -3.863,3.784 -3.904,3.613 -3.925,3.467 -3.944,3.295 -3.965,3.113 -4.034,2.927 -4.072,2.745 -4.092,2.647 -4.107,2.555 -4.115,2.459 c -0.258,0.116 -0.472,0.285 -0.719,0.455 -0.163,0.113 -0.37,0.227 -0.564,0.267 -0.171,0.035 -0.322,0.1 -0.485,0.15 -0.094,0.029 -0.2,0.033 -0.3,0.046 -0.167,0.024 -0.335,0.05 -0.504,0.065 -0.056,0.168 -0.069,0.347 -0.114,0.517 -0.023,0.084 -0.062,0.157 -0.09,0.239 -0.054,0.153 -0.047,0.317 -0.088,0.471 -0.041,0.156 -0.094,0.332 -0.147,0.484 -0.006,0.016 -0.014,0.033 -0.022,0.049 0.274,0.041 0.55,0.08 0.834,0.096 m 1.872,-3.821 c -0.143,-0.173 -0.179,-0.323 -0.21,-0.514 -0.092,0.06 -0.185,0.118 -0.284,0.176 -0.143,0.084 -0.297,0.112 -0.439,0.196 -0.06,0.036 -0.125,0.086 -0.19,0.112 -0.057,0.023 -0.094,0.01 -0.148,0.025 -0.064,0.019 -0.21,0.103 -0.257,0.149 -0.029,0.028 -0.023,0.061 -0.05,0.089 -0.033,0.035 -0.079,0.071 -0.127,0.106 -0.021,0.164 0.005,0.355 0.005,0.519 0,0.124 0.016,0.258 0.001,0.38 C -6,2.691 -5.86,2.665 -5.721,2.62 -5.52,2.555 -5.297,2.53 -5.09,2.483 -4.939,2.449 -4.753,2.443 -4.608,2.388 -4.431,2.32 -4.26,2.174 -4.098,2.063 -4.099,2.033 -4.103,2.004 -4.113,1.975 -4.173,1.802 -4.324,1.619 -4.442,1.477 m 0.052,-4.534 c -0.026,0.081 -0.051,0.162 -0.08,0.246 -0.056,0.156 -0.156,0.276 -0.21,0.431 -0.023,0.067 -0.04,0.147 -0.074,0.209 -0.029,0.054 -0.066,0.067 -0.097,0.114 -0.037,0.055 -0.095,0.213 -0.101,0.279 -0.005,0.04 0.021,0.062 0.019,0.101 -0.001,0.015 -0.004,0.033 -0.007,0.05 0.042,0.043 0.085,0.09 0.103,0.135 0.024,0.063 -0.002,0.126 0.038,0.195 0.087,0.149 0.243,0.286 0.355,0.419 0.12,0.144 0.283,0.281 0.314,0.464 0.081,-0.097 0.16,-0.195 0.228,-0.304 0.113,-0.18 0.267,-0.342 0.395,-0.511 0.094,-0.124 0.233,-0.248 0.308,-0.383 0.1,-0.179 0.135,-0.425 0.195,-0.623 -0.044,-0.04 -0.087,-0.083 -0.128,-0.131 -0.08,-0.095 -0.126,-0.231 -0.234,-0.296 C -3.524,-2.757 -3.757,-2.8 -3.938,-2.833 -4.139,-2.87 -4.26,-2.948 -4.39,-3.057 m -11.342,0.949 c 0.028,-0.036 0.057,-0.072 0.087,-0.108 0.105,-0.128 0.24,-0.206 0.345,-0.334 0.044,-0.054 0.088,-0.124 0.14,-0.17 0.046,-0.041 0.085,-0.041 0.13,-0.074 0.054,-0.04 0.163,-0.169 0.192,-0.228 0.017,-0.036 0,-0.065 0.016,-0.101 0.036,-0.083 0.118,-0.191 0.169,-0.269 0.055,-0.085 0.124,-0.165 0.192,-0.242 -0.038,-0.094 -0.081,-0.187 -0.112,-0.274 -0.04,-0.11 -0.097,-0.223 -0.127,-0.336 -0.18,0.105 -0.36,0.198 -0.526,0.327 -0.167,0.13 -0.367,0.23 -0.546,0.344 -0.131,0.085 -0.303,0.154 -0.42,0.255 -0.141,0.122 -0.251,0.313 -0.363,0.471 0.119,0.126 0.299,0.235 0.444,0.32 0.196,0.115 0.282,0.246 0.379,0.419 m 5.294,5.423 c 0.096,-0.032 0.196,-0.124 0.276,-0.183 0.1,-0.073 0.12,-0.161 0.164,-0.267 -0.064,-0.027 -0.124,-0.056 -0.187,-0.1 -0.059,-0.04 -0.096,-0.103 -0.151,-0.147 -0.026,-0.021 -0.055,-0.04 -0.083,-0.059 -0.146,0.045 -0.293,0.083 -0.443,0.106 -0.168,0.027 -0.329,0.081 -0.494,0.125 0.062,0.089 0.148,0.172 0.217,0.254 0.101,0.12 0.201,0.24 0.301,0.359 0.134,-0.026 0.274,-0.045 0.4,-0.088 m 4.621,-7.129 c 0.013,0.106 0.028,0.195 0.018,0.304 -0.006,0.07 -0.042,0.134 -0.052,0.204 -0.015,0.102 -0.012,0.208 -0.031,0.311 -0.017,0.096 -0.032,0.19 -0.043,0.285 0.045,0.048 0.09,0.096 0.131,0.147 0.116,0.145 0.257,0.265 0.387,0.398 0.025,-0.029 0.047,-0.059 0.065,-0.096 0.049,-0.101 0.078,-0.22 0.116,-0.325 0.076,-0.209 0.152,-0.418 0.228,-0.628 0.015,-0.04 0.032,-0.081 0.049,-0.123 -0.085,-0.045 -0.157,-0.108 -0.226,-0.18 -0.116,-0.121 -0.221,-0.27 -0.346,-0.38 -0.076,-0.067 -0.205,-0.107 -0.296,-0.147 0.01,0.077 -0.011,0.142 0,0.23 m -8.612,3.193 c 0.014,0.003 0.025,0.007 0.038,0.011 0.018,-0.042 0.04,-0.083 0.053,-0.137 0.024,-0.104 0.041,-0.193 0.087,-0.292 0.029,-0.065 0.085,-0.112 0.119,-0.174 0.049,-0.091 0.082,-0.192 0.135,-0.282 0.054,-0.093 0.105,-0.184 0.151,-0.278 -0.011,-0.03 -0.025,-0.059 -0.035,-0.09 -0.078,-0.228 -0.209,-0.431 -0.293,-0.662 -0.022,-0.062 -0.044,-0.123 -0.067,-0.185 -0.064,0.058 -0.131,0.112 -0.205,0.155 -0.07,0.04 -0.134,0.064 -0.192,0.12 -0.08,0.078 -0.148,0.18 -0.22,0.266 -0.143,0.17 -0.286,0.341 -0.429,0.511 -10e-4,10e-4 -10e-4,0.002 -0.002,0.003 0.042,0.059 0.075,0.125 0.106,0.194 0.067,0.153 0.115,0.329 0.195,0.475 0.049,0.089 0.157,0.172 0.229,0.241 0.099,0.095 0.199,0.088 0.33,0.124 m 8.461,-1.137 c -0.003,0.039 -0.007,0.078 -0.011,0.116 -0.029,0.272 -0.108,0.493 -0.285,0.679 0.004,0.013 0.01,0.026 0.014,0.039 0.003,0.01 0.005,0.021 0.007,0.031 0.07,-0.076 0.144,-0.148 0.221,-0.217 0.11,-0.098 0.175,-0.261 0.24,-0.417 C -5.8,-1.555 -5.818,-1.583 -5.835,-1.611 -5.871,-1.67 -5.917,-1.715 -5.968,-1.758 m -2.34,-2.437 c 0.006,0.002 0.011,0.004 0.017,0.006 -10e-4,-0.003 -0.002,-0.006 -0.003,-0.008 -0.005,0 -0.009,0.001 -0.014,0.002 m -5.283,1.05 c 0.006,0.132 0.048,0.269 0.074,0.403 0.007,0.034 0.018,0.067 0.032,0.098 0.014,-0.03 0.028,-0.06 0.042,-0.089 0.113,-0.23 0.252,-0.402 0.457,-0.517 0.001,-0.024 0.001,-0.049 0.003,-0.073 0.008,-0.107 0.021,-0.214 0.037,-0.321 -0.033,0.02 -0.066,0.042 -0.099,0.065 -0.171,0.121 -0.36,0.214 -0.553,0.292 0.003,0.041 0.004,0.086 0.007,0.142 m 6.781,4.447 c 0.003,-0.007 0.004,-0.012 0.006,-0.019 0.039,-0.126 0.047,-0.269 0.068,-0.404 0.007,-0.05 0.005,-0.098 -0.001,-0.145 -0.036,0.035 -0.072,0.07 -0.106,0.103 -0.223,0.215 -0.454,0.339 -0.76,0.344 -0.071,10e-4 -0.143,-0.015 -0.213,-0.019 -0.002,0.005 -0.003,0.01 -0.005,0.014 -0.06,0.133 -0.128,0.263 -0.201,0.39 0.058,-0.009 0.116,-0.019 0.176,-0.035 0.205,-0.056 0.416,-0.079 0.628,-0.086 0.132,-0.004 0.272,-0.072 0.408,-0.143 m 0.057,-3.558 c 0.003,-0.008 0.005,-0.015 0.008,-0.023 -0.007,-0.003 -0.014,-0.006 -0.021,-0.01 0.005,0.011 0.008,0.022 0.013,0.033 m -5.605,2.529 v 0.002 c 0.001,0 0.002,0 0.003,0.001 -10e-4,-0.001 -0.002,-0.002 -0.003,-0.003 m 5.361,-0.475 c -0.003,0.017 -0.004,0.034 -0.007,0.05 0.008,-0.004 0.015,-0.008 0.023,-0.012 -0.006,-0.013 -0.011,-0.025 -0.016,-0.038 m -4.026,0.723 c 0.138,0.05 0.275,0.1 0.412,0.15 0.299,0.109 0.608,0.143 0.923,0.169 0.034,0.003 0.061,0.003 0.089,0.004 0.03,-0.001 0.059,-0.001 0.088,0.001 0.043,-0.014 0.086,-0.028 0.127,-0.042 0.137,-0.05 0.274,-0.1 0.411,-0.15 0.123,-0.045 0.238,-0.102 0.35,-0.164 0.102,-0.184 0.224,-0.362 0.322,-0.532 0.073,-0.126 0.146,-0.252 0.219,-0.379 0.159,-0.276 0.246,-0.573 0.327,-0.88 0.014,-0.054 0.012,-0.091 0.038,-0.144 10e-4,-0.002 0.002,-0.003 0.003,-0.005 0,-0.067 0.002,-0.135 0.011,-0.21 0.016,-0.128 0.067,-0.237 0.078,-0.365 0.002,-0.02 0.001,-0.037 0,-0.053 -0.061,-0.183 -0.139,-0.36 -0.222,-0.537 -0.018,-0.037 -0.036,-0.061 -0.05,-0.094 -0.157,-0.129 -0.306,-0.274 -0.451,-0.396 l -0.335,-0.282 c -0.245,-0.205 -0.523,-0.342 -0.81,-0.474 -0.003,-0.002 -0.005,-0.003 -0.008,-0.004 h -0.344 c -0.285,0 -0.555,0.06 -0.828,0.132 -0.089,0.069 -0.177,0.137 -0.258,0.205 -0.112,0.094 -0.224,0.188 -0.336,0.281 -0.244,0.205 -0.427,0.455 -0.608,0.716 -0.032,0.046 -0.042,0.081 -0.085,0.122 -0.051,0.049 -0.112,0.08 -0.155,0.139 -0.031,0.043 -0.056,0.089 -0.076,0.137 -0.004,0.023 -0.008,0.046 -0.012,0.069 -0.056,0.314 -0.036,0.623 -0.007,0.939 0.005,0.056 0.021,0.09 0.014,0.148 -0.003,0.03 -0.01,0.058 -0.016,0.086 0.033,0.088 0.066,0.174 0.089,0.275 0.003,0.016 0.005,0.032 0.007,0.048 0.005,0.01 0.01,0.019 0.013,0.03 0.007,0.017 0.016,0.034 0.023,0.051 0.067,0.116 0.134,0.232 0.201,0.347 0.002,0.004 0.004,0.007 0.006,0.01 0.042,0.056 0.085,0.109 0.129,0.152 0.124,0.123 0.247,0.268 0.394,0.371 0.112,0.045 0.222,0.091 0.327,0.129 m -2.526,-1.143 c -0.084,0.158 -0.075,0.385 -0.087,0.585 0.088,0.041 0.183,0.064 0.277,0.1 0.035,0.014 0.071,0.026 0.107,0.038 -0.015,-0.057 -0.029,-0.114 -0.043,-0.169 -0.063,-0.255 -0.066,-0.482 0.025,-0.709 -0.029,-0.034 -0.06,-0.068 -0.087,-0.105 -0.014,-0.02 -0.027,-0.041 -0.041,-0.062 -0.044,0.11 -0.095,0.217 -0.151,0.322 m 4.469,-4.683 c -0.081,0.031 -0.163,0.068 -0.245,0.1 -0.048,0.019 -0.089,0.046 -0.129,0.076 0.062,0.017 0.123,0.034 0.182,0.051 0.066,0.019 0.129,0.041 0.188,0.067 0.059,-0.016 0.118,-0.032 0.178,-0.046 C -8.952,-5.12 -8.998,-5.184 -9.039,-5.251 -9.051,-5.27 -9.065,-5.287 -9.08,-5.305 m 2.37,1.094 c -0.091,-0.034 -0.189,-0.06 -0.281,-0.091 -0.137,-0.047 -0.276,-0.021 -0.42,-0.024 -0.002,0 -0.004,10e-4 -0.006,10e-4 0.053,0.074 0.105,0.15 0.153,0.222 0.126,0.187 0.204,0.37 0.218,0.573 0.142,0.066 0.284,0.132 0.413,0.219 0.004,-0.118 0.015,-0.235 0.031,-0.351 0.024,-0.168 -0.052,-0.365 -0.108,-0.549 M -7.211,2.828 C -7.206,2.82 -7.2,2.812 -7.194,2.804 -7.095,2.669 -6.967,2.54 -6.88,2.397 -6.843,2.336 -6.824,2.25 -6.807,2.171 -6.846,2.175 -6.886,2.177 -6.932,2.192 -7.034,2.223 -7.119,2.252 -7.228,2.262 -7.299,2.269 -7.368,2.244 -7.438,2.246 -7.542,2.249 -7.646,2.271 -7.75,2.27 -7.971,2.269 -8.179,2.275 -8.403,2.325 c -0.058,0.013 -0.12,0.024 -0.182,0.033 -0.027,0.04 -0.054,0.079 -0.081,0.118 0.022,0.011 0.043,0.021 0.065,0.033 0.07,0.041 0.122,0.084 0.2,0.106 0.107,0.031 0.23,0.038 0.34,0.058 0.219,0.039 0.439,0.077 0.658,0.116 0.063,0.011 0.127,0.025 0.192,0.039 m -4.454,-0.674 c 0.145,-0.004 0.266,-0.075 0.402,-0.122 0.019,-0.006 0.037,-0.014 0.055,-0.021 -0.171,-0.097 -0.347,-0.222 -0.505,-0.336 -0.161,-0.118 -0.285,-0.245 -0.369,-0.401 -0.01,-0.001 -0.02,-0.002 -0.03,-0.003 0.038,0.114 0.068,0.23 0.093,0.347 0.039,0.187 0.21,0.365 0.332,0.536 0.008,0 0.015,0 0.022,0 M -13.64,2.037 c 0.15,0.074 0.3,0.178 0.455,0.238 0.095,0.037 0.231,0.031 0.33,0.037 0.095,0.007 0.16,-0.025 0.231,-0.064 -0.037,-0.07 -0.039,-0.138 -0.08,-0.219 -0.049,-0.095 -0.093,-0.173 -0.121,-0.279 -0.019,-0.068 -0.007,-0.141 -0.021,-0.21 -0.021,-0.101 -0.06,-0.2 -0.078,-0.303 -0.011,-0.063 -0.022,-0.125 -0.035,-0.187 -0.173,-0.068 -0.341,-0.148 -0.5,-0.244 -0.103,-0.062 -0.213,-0.111 -0.323,-0.16 -0.004,0.015 -0.01,0.029 -0.012,0.046 -0.011,0.111 0.003,0.233 0.003,0.344 v 0.669 c 0,0.086 -0.006,0.176 -0.008,0.266 0.054,0.018 0.106,0.04 0.159,0.066 m -0.063,-6.688 c -0.021,0.004 -0.042,0.006 -0.063,0.009 -0.046,0.14 -0.106,0.282 -0.134,0.424 -0.011,0.052 -0.007,0.114 0,0.176 0.008,-0.004 0.016,-0.009 0.024,-0.013 0.064,-0.03 0.138,-0.031 0.203,-0.057 0.096,-0.038 0.187,-0.094 0.285,-0.129 0.208,-0.074 0.402,-0.151 0.595,-0.275 0.028,-0.018 0.06,-0.036 0.091,-0.053 0.024,-0.085 0.045,-0.171 0.067,-0.258 -0.023,-0.002 -0.046,-0.004 -0.071,-0.002 -0.111,0.008 -0.229,0.043 -0.339,0.062 -0.219,0.039 -0.439,0.077 -0.658,0.116 m 2.926,-1.883 c -0.014,0.01 -0.028,0.021 -0.044,0.031 -0.139,0.093 -0.304,0.171 -0.434,0.275 -0.079,0.063 -0.142,0.184 -0.197,0.267 -0.071,0.107 -0.056,0.2 -0.064,0.32 0.041,0.011 0.082,0.023 0.133,0.026 0.106,0.005 0.197,0.007 0.302,0.035 0.069,0.018 0.125,0.064 0.192,0.087 0.098,0.032 0.203,0.047 0.302,0.084 0.071,0.026 0.141,0.05 0.211,0.073 0.041,-0.025 0.08,-0.052 0.122,-0.075 0.191,-0.106 0.355,-0.248 0.541,-0.365 -0.068,-0.053 -0.134,-0.11 -0.189,-0.176 -0.052,-0.062 -0.087,-0.121 -0.153,-0.168 -0.09,-0.066 -0.202,-0.115 -0.299,-0.171 -0.141,-0.081 -0.282,-0.162 -0.423,-0.243 m 3.349,0.763 c -0.167,-0.018 -0.343,-0.065 -0.51,-0.068 -0.101,-0.003 -0.227,0.05 -0.322,0.077 -0.045,0.014 -0.078,0.034 -0.108,0.057 0.014,0.017 0.028,0.035 0.042,0.054 0.04,0.058 0.054,0.13 0.091,0.19 0.054,0.088 0.124,0.167 0.176,0.258 0.019,0.032 0.037,0.063 0.056,0.095 0.145,0.008 0.29,0.022 0.432,0.05 0.237,0.046 0.478,0.035 0.72,0.078 l 0.031,0.005 c 0,-0.002 -10e-4,-0.004 -10e-4,-0.006 -0.027,-0.108 -0.082,-0.218 -0.12,-0.323 -0.058,-0.159 -0.116,-0.318 -0.174,-0.478 -0.101,0.026 -0.206,0.023 -0.313,0.011 M -5.958,1 C -5.856,0.955 -5.757,0.882 -5.66,0.826 -5.468,0.715 -5.275,0.603 -5.082,0.492 -5.026,0.46 -4.967,0.429 -4.908,0.398 -4.932,0.321 -4.944,0.241 -4.949,0.158 -4.96,-0.009 -4.945,-0.191 -4.97,-0.355 -4.985,-0.456 -5.059,-0.571 -5.103,-0.66 -5.139,-0.734 -5.19,-0.774 -5.248,-0.81 c -0.025,0.025 -0.051,0.051 -0.074,0.088 -0.059,0.089 -0.105,0.167 -0.182,0.244 -0.05,0.05 -0.118,0.076 -0.171,0.123 -0.077,0.069 -0.143,0.152 -0.224,0.219 -0.068,0.057 -0.134,0.114 -0.198,0.173 0.001,0.047 0.005,0.093 0.004,0.14 -0.004,0.242 0.049,0.477 0.048,0.722 V 1.027 C -6.016,1.021 -5.987,1.014 -5.958,1 M -8.036,5.098 C -8.016,5.07 -7.996,5.043 -7.973,5.016 -7.893,4.92 -7.767,4.852 -7.722,4.733 -7.657,4.562 -7.655,4.325 -7.653,4.141 -7.652,3.875 -7.556,3.73 -7.427,3.514 -7.407,3.481 -7.395,3.452 -7.386,3.424 -7.492,3.411 -7.597,3.397 -7.708,3.378 -7.871,3.351 -8.007,3.273 -8.169,3.246 -8.238,3.235 -8.321,3.232 -8.387,3.21 -8.446,3.191 -8.465,3.157 -8.517,3.134 -8.577,3.107 -8.743,3.078 -8.809,3.083 -8.849,3.085 -8.866,3.115 -8.905,3.119 -8.979,3.127 -9.084,3.117 -9.171,3.111 c -0.037,0.051 -0.079,0.11 -0.125,0.138 -0.058,0.035 -0.125,0.02 -0.185,0.071 -0.132,0.112 -0.24,0.29 -0.352,0.423 -0.098,0.117 -0.187,0.262 -0.312,0.345 0.088,0.037 0.18,0.068 0.266,0.117 0.189,0.107 0.365,0.221 0.566,0.303 0.197,0.08 0.383,0.204 0.572,0.301 0.138,0.071 0.284,0.186 0.431,0.237 0.083,0.029 0.178,0.042 0.274,0.052 m -4.875,-0.71 c 0.045,0.075 0.109,0.146 0.176,0.215 0.053,-0.005 0.104,-0.013 0.15,-0.039 0.16,-0.089 0.314,-0.269 0.434,-0.41 0.172,-0.203 0.339,-0.252 0.576,-0.334 0.085,-0.029 0.13,-0.067 0.175,-0.116 -0.062,-0.097 -0.112,-0.199 -0.19,-0.29 -0.046,-0.053 -0.107,-0.108 -0.144,-0.168 -0.032,-0.052 -0.025,-0.091 -0.05,-0.141 -0.025,-0.05 -0.103,-0.146 -0.16,-0.2 -0.022,0.004 -0.044,0.008 -0.066,0.012 -0.072,0.013 -0.183,0.053 -0.257,0.042 -0.067,-0.011 -0.108,-0.065 -0.188,-0.065 -0.173,10e-4 -0.37,0.068 -0.541,0.098 -0.15,0.026 -0.311,0.08 -0.459,0.064 0.036,0.093 0.074,0.186 0.122,0.276 0.098,0.187 0.162,0.402 0.244,0.597 0.06,0.144 0.099,0.326 0.178,0.459 m -3.405,-2.884 c 0.129,0.043 0.245,0.082 0.363,0.15 0.107,0.062 0.197,0.174 0.321,0.198 0.18,0.035 0.414,-0.004 0.596,-0.035 0.251,-0.043 0.409,0.019 0.628,0.104 -0.011,-0.136 -0.016,-0.271 -0.017,-0.414 -10e-4,-0.166 0.052,-0.313 0.05,-0.477 -10e-4,-0.071 -0.012,-0.152 -0.002,-0.222 0.009,-0.061 0.039,-0.085 0.052,-0.14 0.016,-0.064 0.016,-0.233 0,-0.297 -0.001,-0.005 -0.003,-0.008 -0.005,-0.012 -0.057,-0.032 -0.114,-0.065 -0.171,-0.098 -0.063,-0.037 -0.173,-0.077 -0.223,-0.133 -0.045,-0.051 -0.041,-0.12 -0.102,-0.17 -0.133,-0.111 -0.327,-0.186 -0.478,-0.273 -0.183,-0.106 -0.415,-0.185 -0.483,-0.397 -0.071,0.198 -0.151,0.388 -0.195,0.596 -0.045,0.207 -0.134,0.412 -0.197,0.615 -0.046,0.148 -0.133,0.312 -0.158,0.465 -0.027,0.167 0.003,0.361 0.021,0.54 m 2.62,-8.708 c -0.01,0 -0.021,0.003 -0.031,0.004 -0.011,0.049 -0.024,0.098 -0.042,0.147 -0.043,0.117 -0.137,0.225 -0.139,0.351 -0.003,0.184 0.076,0.407 0.138,0.581 0.089,0.251 0.049,0.42 10e-4,0.666 -0.014,0.072 -0.01,0.124 0.003,0.175 0.048,-0.01 0.097,-0.02 0.148,-0.029 0.163,-0.03 0.316,-0.003 0.478,-0.034 0.069,-0.013 0.147,-0.038 0.218,-0.04 0.062,-0.002 0.091,0.023 0.147,0.027 0.066,0.004 0.233,-0.025 0.293,-0.052 0.029,-0.013 0.039,-0.036 0.059,-0.054 0.008,-0.023 0.017,-0.046 0.025,-0.07 0.025,-0.068 0.045,-0.184 0.092,-0.243 0.043,-0.053 0.111,-0.061 0.15,-0.13 0.086,-0.15 0.127,-0.354 0.186,-0.518 0.066,-0.18 0.102,-0.395 0.254,-0.511 -0.072,-0.002 -0.145,-0.003 -0.219,-0.016 -0.214,-0.036 -0.419,-0.083 -0.636,-0.091 -0.212,-0.008 -0.429,-0.06 -0.64,-0.087 -0.154,-0.02 -0.331,-0.078 -0.485,-0.076 m 4.42,-1.147 c -0.019,0.012 -0.037,0.025 -0.057,0.036 -0.107,0.062 -0.249,0.084 -0.332,0.179 -0.12,0.139 -0.203,0.361 -0.267,0.534 -0.093,0.249 -0.233,0.353 -0.428,0.511 -0.018,0.015 -0.031,0.029 -0.044,0.044 0.123,0.079 0.218,0.182 0.348,0.255 0.061,0.034 0.137,0.065 0.192,0.108 0.049,0.038 0.055,0.077 0.096,0.116 0.048,0.046 0.194,0.13 0.257,0.149 0.039,0.01 0.064,-0.012 0.102,-0.002 0.088,0.021 0.209,0.083 0.295,0.12 0.085,0.036 0.17,0.085 0.252,0.135 0.009,-0.002 0.017,-0.002 0.026,-0.005 0.163,-0.06 0.325,-0.19 0.476,-0.277 0.198,-0.115 0.398,-0.298 0.64,-0.206 0.063,0.024 0.052,0.065 0.15,0.097 0.044,0.013 0.095,0.023 0.147,0.031 -0.088,-0.109 -0.21,-0.187 -0.305,-0.299 -0.141,-0.165 -0.267,-0.333 -0.428,-0.479 -0.157,-0.142 -0.291,-0.322 -0.435,-0.478 -0.105,-0.114 -0.203,-0.271 -0.323,-0.369 -0.101,-0.082 -0.232,-0.143 -0.362,-0.2 m 4.152,2.148 c -0.122,-0.021 -0.244,-0.095 -0.369,-0.076 -0.181,0.029 -0.388,0.146 -0.548,0.238 -0.164,0.093 -0.3,0.114 -0.454,0.117 0.045,0.143 0.051,0.286 0.105,0.427 0.025,0.066 0.063,0.139 0.078,0.207 0.012,0.061 -0.008,0.094 -0.002,0.15 0.007,0.062 0.057,0.2 0.094,0.264 0.026,0.005 0.05,0.012 0.07,0.023 0.06,0.033 0.08,0.098 0.154,0.125 0.163,0.058 0.371,0.063 0.542,0.093 0.216,0.038 0.47,0.031 0.603,0.226 0.001,-0.164 0.002,-0.326 -0.02,-0.49 -0.029,-0.21 -0.016,-0.433 -0.026,-0.646 -0.008,-0.155 0.019,-0.339 -0.01,-0.491 -0.01,-0.049 -0.025,-0.099 -0.044,-0.149 -0.057,-0.002 -0.113,-0.007 -0.173,-0.018 M 0.979,0.482 C 0.81,0.538 0.654,0.61 0.483,0.617 c -0.121,0.005 -0.22,0.06 -0.34,0.112 -0.59,0.257 -1.152,0.557 -1.766,0.754 -0.167,0.053 -0.323,0.173 -0.492,0.211 -0.147,0.033 -0.304,0.054 -0.429,0.1 -0.04,0.015 -0.093,0.053 -0.137,0.072 -0.046,0.019 -0.079,0.035 -0.12,0.063 -0.115,0.078 -0.221,0.165 -0.33,0.248 -0.064,0.05 -0.141,0.075 -0.22,0.092 -0.005,0.189 -0.027,0.395 0.005,0.582 0.053,0.31 0.041,0.531 -0.095,0.819 -0.049,0.103 -0.08,0.145 -0.076,0.256 0.005,0.115 0.014,0.154 0.054,0.267 0.043,0.123 0.091,0.233 0.141,0.354 0.105,0.254 0.168,0.498 0.222,0.767 0.033,0.162 0.088,0.3 0.134,0.457 0.04,0.134 0.028,0.2 0.097,0.311 0.139,0.222 0.252,0.47 0.381,0.699 0.063,0.11 0.11,0.218 0.116,0.346 0.002,0.049 -0.003,0.105 -0.011,0.154 -0.004,0.026 -0.016,0.041 -0.02,0.064 C -2.423,7.332 -2.446,7.32 -2.472,7.309 -2.583,7.263 -2.69,7.222 -2.805,7.177 -2.971,7.112 -3.137,7.066 -3.272,6.962 -3.368,6.888 -3.48,6.867 -3.605,6.829 -4.222,6.647 -4.845,6.515 -5.442,6.271 -5.605,6.205 -5.8,6.196 -5.955,6.117 -6.088,6.048 -6.222,5.962 -6.347,5.918 -6.387,5.903 -6.452,5.898 -6.499,5.884 -6.546,5.87 -6.582,5.861 -6.632,5.856 -6.769,5.841 -6.907,5.84 -7.043,5.834 -7.167,5.828 -7.277,5.766 -7.378,5.699 -7.415,5.675 -7.454,5.653 -7.493,5.631 -7.57,5.716 -7.642,5.803 -7.697,5.897 -7.857,6.169 -8.008,6.331 -8.297,6.463 -8.401,6.511 -8.452,6.524 -8.519,6.611 -8.59,6.702 -8.608,6.738 -8.65,6.85 -8.695,6.972 -8.73,7.087 -8.769,7.212 -8.852,7.474 -8.96,7.701 -9.092,7.943 -9.171,8.087 -9.218,8.229 -9.283,8.378 -9.339,8.507 -9.39,8.549 -9.409,8.679 -9.445,8.938 -9.518,9.201 -9.566,9.46 -9.589,9.584 -9.622,9.697 -9.7,9.799 -9.73,9.838 -9.769,9.877 -9.807,9.91 -9.827,9.927 -9.846,9.931 -9.864,9.946 -9.871,9.923 -9.88,9.9 -9.894,9.874 -9.949,9.768 -10.005,9.668 -10.064,9.559 -10.149,9.403 -10.247,9.261 -10.283,9.094 -10.309,8.976 -10.381,8.888 -10.453,8.779 -10.809,8.242 -11.201,7.74 -11.501,7.17 c -0.082,-0.155 -0.227,-0.288 -0.294,-0.448 -0.058,-0.138 -0.106,-0.29 -0.173,-0.405 -0.021,-0.036 -0.068,-0.082 -0.094,-0.123 -0.027,-0.041 -0.049,-0.071 -0.084,-0.107 -0.096,-0.099 -0.2,-0.189 -0.301,-0.281 -0.091,-0.084 -0.135,-0.203 -0.17,-0.319 -0.013,-0.044 -0.03,-0.089 -0.048,-0.134 -0.011,0.002 -0.024,0.005 -0.035,0.007 -0.198,0.032 -0.423,0.043 -0.613,0.111 -0.298,0.106 -0.517,0.133 -0.824,0.049 -0.11,-0.03 -0.157,-0.053 -0.265,-0.03 -0.113,0.024 -0.149,0.04 -0.254,0.099 -0.113,0.064 -0.214,0.131 -0.324,0.201 -0.232,0.147 -0.461,0.252 -0.717,0.352 -0.154,0.06 -0.28,0.138 -0.426,0.211 -0.126,0.062 -0.192,0.062 -0.29,0.15 -0.194,0.175 -0.419,0.329 -0.622,0.496 -0.097,0.081 -0.196,0.146 -0.321,0.174 -0.048,0.011 -0.103,0.015 -0.153,0.016 -0.027,0.001 -0.044,-0.008 -0.067,-0.009 0.009,-0.022 0.017,-0.046 0.023,-0.074 0.026,-0.116 0.048,-0.229 0.073,-0.351 0.035,-0.174 0.051,-0.346 0.131,-0.497 0.056,-0.107 0.057,-0.221 0.072,-0.35 0.073,-0.64 0.095,-1.277 0.231,-1.907 0.037,-0.171 0.012,-0.366 0.063,-0.531 0.044,-0.144 0.106,-0.291 0.128,-0.422 0.007,-0.042 0.001,-0.106 0.007,-0.155 0.006,-0.048 0.008,-0.086 0.004,-0.136 -0.009,-0.138 -0.032,-0.273 -0.05,-0.409 -0.013,-0.102 0.015,-0.201 0.053,-0.296 C -17.098,1.948 -17.269,1.827 -17.435,1.587 -17.5,1.493 -17.522,1.445 -17.619,1.393 -17.721,1.339 -17.759,1.328 -17.877,1.306 -18.005,1.282 -18.125,1.269 -18.255,1.251 -18.527,1.216 -18.77,1.148 -19.03,1.06 -19.186,1.007 -19.334,0.986 -19.492,0.948 -19.629,0.915 -19.68,0.872 -19.811,0.876 c -0.261,0.01 -0.533,-0.017 -0.795,-0.019 -0.127,-0.001 -0.244,-0.014 -0.358,-0.073 -0.044,-0.023 -0.089,-0.055 -0.128,-0.086 -0.02,-0.017 -0.028,-0.035 -0.045,-0.05 0.021,-0.011 0.043,-0.024 0.065,-0.042 0.095,-0.072 0.184,-0.145 0.281,-0.222 0.14,-0.111 0.262,-0.232 0.42,-0.297 0.112,-0.046 0.186,-0.132 0.281,-0.222 0.467,-0.443 0.893,-0.917 1.402,-1.312 0.139,-0.108 0.245,-0.273 0.39,-0.367 0.126,-0.081 0.268,-0.154 0.369,-0.24 0.032,-0.028 0.069,-0.081 0.105,-0.115 0.036,-0.033 0.062,-0.06 0.091,-0.1 0.081,-0.112 0.151,-0.231 0.225,-0.346 0.038,-0.061 0.092,-0.107 0.151,-0.146 -0.013,-0.033 -0.026,-0.067 -0.037,-0.097 -0.066,-0.189 -0.116,-0.409 -0.216,-0.585 -0.156,-0.274 -0.221,-0.486 -0.191,-0.802 0.01,-0.114 0.025,-0.164 -0.017,-0.267 -0.043,-0.107 -0.065,-0.14 -0.142,-0.232 -0.082,-0.101 -0.165,-0.188 -0.254,-0.285 -0.185,-0.202 -0.328,-0.41 -0.471,-0.645 -0.085,-0.141 -0.185,-0.252 -0.281,-0.383 -0.084,-0.113 -0.095,-0.178 -0.199,-0.259 -0.206,-0.161 -0.397,-0.356 -0.596,-0.527 -0.096,-0.082 -0.178,-0.167 -0.227,-0.285 -0.019,-0.046 -0.033,-0.1 -0.043,-0.148 -0.005,-0.027 10e-4,-0.045 -0.003,-0.068 0.024,0.005 0.049,0.009 0.077,0.01 0.12,0.006 0.235,0.007 0.359,0.011 0.177,0.004 0.349,-0.01 0.512,0.042 0.115,0.037 0.227,0.019 0.358,0.011 0.643,-0.04 1.273,-0.129 1.917,-0.104 0.176,0.007 0.363,-0.052 0.535,-0.03 0.149,0.019 0.304,0.053 0.437,0.052 0.042,0 0.105,-0.017 0.154,-0.02 0.048,-0.003 0.086,-0.007 0.134,-0.019 0.134,-0.033 0.264,-0.079 0.395,-0.12 0.117,-0.037 0.242,-0.016 0.36,0.013 0.113,0.027 0.235,0.04 0.357,0.053 0.045,-0.113 0.088,-0.227 0.109,-0.341 0.057,-0.311 0.143,-0.514 0.37,-0.738 0.081,-0.08 0.125,-0.109 0.158,-0.215 0.036,-0.109 0.04,-0.149 0.041,-0.269 10e-4,-0.13 -0.006,-0.25 -0.011,-0.381 -0.012,-0.274 0.012,-0.525 0.053,-0.797 0.025,-0.163 0.02,-0.312 0.03,-0.474 0.009,-0.141 0.043,-0.198 0.016,-0.326 -0.055,-0.256 -0.076,-0.528 -0.119,-0.787 -0.021,-0.125 -0.029,-0.243 0.01,-0.365 0.014,-0.047 0.038,-0.097 0.062,-0.141 0.013,-0.023 0.03,-0.033 0.041,-0.053 0.015,0.019 0.032,0.037 0.053,0.057 0.088,0.081 0.175,0.156 0.267,0.238 0.134,0.118 0.274,0.218 0.366,0.362 0.064,0.102 0.162,0.16 0.267,0.238 0.518,0.383 1.058,0.72 1.535,1.153 0.131,0.118 0.312,0.193 0.429,0.321 0.102,0.109 0.199,0.236 0.301,0.321 0.033,0.027 0.092,0.054 0.131,0.083 0.039,0.03 0.071,0.05 0.116,0.072 0.124,0.061 0.252,0.109 0.379,0.162 0.114,0.047 0.196,0.143 0.268,0.241 0.004,0.006 0.009,0.011 0.014,0.016 0.093,-0.05 0.184,-0.104 0.263,-0.169 0.242,-0.202 0.439,-0.302 0.757,-0.328 0.114,-0.009 0.166,-0.003 0.259,-0.062 0.098,-0.062 0.126,-0.089 0.204,-0.18 0.085,-0.099 0.157,-0.196 0.237,-0.3 0.167,-0.218 0.346,-0.394 0.553,-0.576 0.124,-0.108 0.216,-0.226 0.328,-0.344 0.097,-0.102 0.16,-0.124 0.221,-0.24 0.123,-0.231 0.282,-0.453 0.415,-0.679 0.064,-0.109 0.134,-0.204 0.242,-0.273 0.042,-0.027 0.092,-0.05 0.139,-0.068 0.024,-0.009 0.044,-0.006 0.065,-0.014 -0.001,0.024 0,0.049 0.004,0.078 0.015,0.118 0.034,0.231 0.052,0.354 0.026,0.176 0.07,0.343 0.047,0.512 -0.016,0.12 0.021,0.227 0.052,0.354 0.15,0.626 0.347,1.232 0.435,1.87 0.024,0.175 0.114,0.348 0.123,0.521 0.007,0.15 0,0.31 0.023,0.44 0.008,0.042 0.036,0.101 0.047,0.148 0.011,0.048 0.022,0.084 0.042,0.129 0.056,0.127 0.124,0.246 0.187,0.368 0.057,0.109 0.057,0.236 0.05,0.357 -0.005,0.081 -0.002,0.165 0.003,0.25 0.103,0.021 0.206,0.038 0.307,0.038 0.315,0.002 0.53,0.052 0.79,0.236 0.093,0.066 0.13,0.104 0.239,0.119 0.114,0.016 0.154,0.013 0.272,-0.007 0.129,-0.021 0.246,-0.049 0.374,-0.077 0.268,-0.06 0.519,-0.079 0.794,-0.086 0.164,-0.003 0.31,-0.034 0.472,-0.052 0.14,-0.016 0.202,0.007 0.324,-0.042 0.242,-0.098 0.507,-0.166 0.754,-0.254 0.119,-0.042 0.234,-0.07 0.361,-0.053 0.049,0.006 0.103,0.021 0.15,0.037 0.025,0.008 0.038,0.023 0.059,0.031 -0.016,0.018 -0.031,0.038 -0.047,0.062 -0.064,0.1 -0.123,0.199 -0.188,0.305 -0.093,0.151 -0.167,0.307 -0.293,0.422 -0.089,0.081 -0.13,0.188 -0.188,0.305 -0.287,0.576 -0.525,1.167 -0.869,1.712 -0.093,0.149 -0.136,0.34 -0.241,0.478 -0.091,0.12 -0.198,0.237 -0.264,0.352 -0.021,0.037 -0.037,0.1 -0.059,0.144 -0.023,0.043 -0.038,0.078 -0.051,0.126 -0.038,0.132 -0.064,0.267 -0.093,0.401 -0.014,0.064 -0.044,0.121 -0.081,0.173 0.022,0.022 0.043,0.045 0.067,0.065 0.24,0.204 0.373,0.381 0.454,0.689 0.028,0.11 0.032,0.163 0.106,0.245 0.078,0.085 0.11,0.109 0.213,0.17 0.112,0.066 0.22,0.12 0.336,0.18 0.244,0.127 0.448,0.273 0.663,0.445 0.129,0.103 0.26,0.174 0.396,0.264 0.117,0.077 0.15,0.135 0.275,0.176 0.248,0.081 0.495,0.198 0.741,0.29 C 1.086,0.018 1.192,0.071 1.279,0.165 1.312,0.201 1.344,0.247 1.369,0.29 1.383,0.312 1.384,0.332 1.395,0.352 1.371,0.355 1.347,0.36 1.319,0.369 1.205,0.405 1.097,0.442 0.979,0.482"
             style="fill:#100f0d;fill-opacity:1;fill-rule:nonzero;stroke:none"
             id="path54725" />
        </g>
        <g
           id="g54727"
           transform="translate(85.2502,646.123)">
          <path
             d="M 0,0 C -0.089,-0.05 -0.148,-0.066 -0.157,-0.126 -0.159,-0.138 -0.158,-0.148 -0.156,-0.157 -0.096,-0.118 -0.058,-0.069 0,0"
             style="fill:#100f0d;fill-opacity:1;fill-rule:nonzero;stroke:none"
             id="path54729" />
        </g>
      </g>
    </g>
  </g>
</svg>
