<?xml version="1.0" encoding="UTF-8" standalone="no"?>
<!-- Created with Inkscape (http://www.inkscape.org/) -->

<svg
   width="32.017017"
   height="24"
   viewBox="0 0 8.4711692 6.35"
   version="1.1"
   id="svg58422"
   inkscape:version="1.2.1 (9c6d41e4, 2022-07-14)"
   sodipodi:docname="fatal-mirage.svg"
   xmlns:inkscape="http://www.inkscape.org/namespaces/inkscape"
   xmlns:sodipodi="http://sodipodi.sourceforge.net/DTD/sodipodi-0.dtd"
   xmlns="http://www.w3.org/2000/svg"
   xmlns:svg="http://www.w3.org/2000/svg">
  <sodipodi:namedview
     id="namedview58424"
     pagecolor="#505050"
     bordercolor="#eeeeee"
     borderopacity="1"
     inkscape:showpageshadow="0"
     inkscape:pageopacity="0"
     inkscape:pagecheckerboard="0"
     inkscape:deskcolor="#505050"
     inkscape:document-units="mm"
     showgrid="false"
     inkscape:zoom="0.7046647"
     inkscape:cx="59.602815"
     inkscape:cy="254.73108"
     inkscape:window-width="1390"
     inkscape:window-height="941"
     inkscape:window-x="0"
     inkscape:window-y="25"
     inkscape:window-maximized="0"
     inkscape:current-layer="layer1" />
  <defs
     id="defs58419">
    <clipPath
       clipPathUnits="userSpaceOnUse"
       id="clipPath54909">
      <path
         d="m 188.725,624.799 h 24.7 v 24.699 h -24.7 z"
         id="path54907" />
    </clipPath>
  </defs>
  <g
     inkscape:label="Layer 1"
     inkscape:groupmode="layer"
     id="layer1"
     transform="translate(-89.257462,-81.306674)">
    <g
       id="g54903"
       transform="matrix(0.37038445,0,0,-0.37038445,18.930953,320.26959)">
      <g
         id="g54905"
         clip-path="url(#clipPath54909)">
        <g
           id="g54911"
           transform="translate(206.799,630.799)">
          <path
             d="M 0,0 C 0,0.195 0,0.391 0,0.586 0.001,0.698 0.008,0.73 -0.038,0.822 -0.09,0.924 -0.215,1.201 -0.186,1.329 -0.175,1.377 -0.113,1.445 -0.086,1.48 -0.018,1.569 0.006,1.628 0,1.735 -0.006,1.839 0.01,1.946 0.002,2.05 -0.005,2.123 -0.023,2.19 -0.026,2.266 -0.03,2.374 -0.031,2.482 -0.029,2.59 c 0.001,0.029 0.01,0.106 -0.003,0.145 -0.016,0.048 -0.057,0.063 -0.071,0.103 -0.043,0.114 -0.012,0.316 -0.012,0.436 0,0.213 0,0.427 0.001,0.64 0,0.131 0.026,0.279 -0.006,0.407 -0.01,0.044 -0.041,0.083 -0.047,0.134 -0.022,0.156 -0.001,0.339 -0.003,0.493 -0.001,0.092 0.006,0.174 -0.034,0.258 -0.056,0.116 -0.12,0.178 -0.11,0.319 0.01,0.139 0.078,0.253 0.124,0.377 0.048,0.131 0.025,0.268 -0.026,0.391 -0.108,0.261 -0.008,0.568 0.011,0.838 0.019,0.287 0.003,0.578 0.004,0.867 0,0.135 0.002,0.238 -0.028,0.368 -0.031,0.132 -0.007,0.269 -0.04,0.397 -0.035,0.138 -0.097,0.27 -0.136,0.406 -0.025,0.085 0.003,0.147 0.033,0.227 0.035,0.094 0.04,0.172 0.018,0.273 -0.03,0.138 -0.096,0.271 -0.111,0.413 -0.012,0.116 0.012,0.253 0.008,0.367 -0.003,0.067 -0.017,0.127 -0.025,0.193 -0.01,0.091 0.005,0.183 -0.002,0.274 -0.012,0.158 -0.071,0.353 -0.117,0.498 -0.053,0.17 -0.071,0.348 -0.083,0.529 -0.009,0.131 -0.004,0.262 -0.003,0.393 0.001,0.173 -0.033,0.342 -0.033,0.514 0,0.142 0.043,0.274 0.078,0.411 0.055,0.214 0.207,0.365 0.324,0.544 -0.03,0.083 -0.192,0.068 -0.26,0.093 -0.083,0.03 -0.064,0.046 -0.122,0.09 -0.158,0.009 -0.315,0.01 -0.472,0.005 -0.056,0 -0.111,0 -0.167,-10e-4 -0.161,10e-4 -0.32,0.005 -0.48,-0.02 0.049,0.075 0.093,0.158 0.135,0.237 -0.092,0.021 -0.218,0.002 -0.309,0.002 -0.159,0 -0.318,-0.007 -0.476,-0.002 -0.123,0.005 -0.279,0.006 -0.392,0.065 -0.126,0.066 -0.273,0.007 -0.415,0.001 -0.179,-0.007 -0.317,0.009 -0.5,-0.004 -0.431,-0.032 -0.864,-0.053 -1.294,-0.004 -0.116,0.013 -0.223,-0.02 -0.339,-0.028 -0.151,-0.01 -0.24,0.073 -0.37,0.125 -0.047,0.019 0.039,0.014 -0.098,-0.001 -0.185,-0.02 -0.37,-0.047 -0.556,-0.07 -0.195,-0.026 -0.391,-0.027 -0.585,0.011 -0.039,0.007 -0.081,0.028 -0.118,0.034 -0.241,0.039 -0.51,-0.053 -0.748,-0.064 -0.323,-0.014 -0.643,0.093 -0.954,-0.058 -0.1,-0.049 -0.193,-0.128 -0.296,-0.17 -0.1,-0.04 -0.227,-0.024 -0.331,-0.025 -0.147,-0.001 -0.362,-0.044 -0.476,0.07 -0.11,0.112 -0.26,0.114 -0.404,0.121 -0.044,0.002 -0.062,-0.005 -0.085,0.039 -0.138,-0.06 -0.283,-0.132 -0.406,-0.226 0.03,-0.022 0.019,-0.053 0.024,-0.103 0.02,-0.173 0.079,-0.336 0.083,-0.51 0.005,-0.167 -0.032,-0.315 -0.03,-0.485 0.001,-0.103 0.001,-0.101 -0.022,-0.18 -0.016,-0.059 -0.015,-0.08 0.016,-0.128 0.061,-0.094 0.154,-0.094 0.177,-0.224 0.014,-0.081 0.013,-0.161 0.031,-0.242 0.013,-0.058 0.024,-0.108 0.043,-0.168 0.051,-0.157 0.042,-0.293 -0.007,-0.45 -0.054,-0.168 -0.183,-0.256 -0.264,-0.402 -0.038,-0.069 -0.029,-0.118 -0.03,-0.194 -0.002,-0.074 -0.028,-0.141 -0.041,-0.214 -0.024,-0.128 -0.018,-0.254 -0.017,-0.384 0,-0.156 -0.026,-0.333 0,-0.486 0.019,-0.089 0.056,-0.169 0.11,-0.24 0.034,-0.028 0.056,-0.063 0.065,-0.106 -0.048,-0.013 -0.101,-0.018 -0.147,-0.041 0.041,-0.038 0.015,-0.062 0.007,-0.116 -0.007,-0.055 0.005,-0.114 -0.006,-0.167 -0.031,-0.066 -0.073,-0.124 -0.126,-0.173 -0.032,-0.026 -0.05,-0.06 -0.052,-0.102 -0.06,-0.054 -0.152,-0.034 -0.225,-0.072 0.177,-0.222 0.424,-0.341 0.608,-0.549 0.065,-0.074 0.046,-0.117 0.017,-0.205 -0.014,-0.043 -0.014,-0.066 -0.02,-0.107 -0.014,-0.105 -0.059,-0.213 -0.088,-0.316 -0.06,-0.218 -0.111,-0.394 -0.086,-0.625 0.013,-0.125 0.074,-0.053 0.164,-0.082 -0.026,-0.23 -0.02,-0.459 -0.021,-0.69 0,-0.063 0,-0.11 0.021,-0.16 0.024,-0.053 0.036,-0.086 0.038,-0.149 0.003,-0.093 -10e-4,-0.187 -10e-4,-0.28 0,-0.221 -0.025,-0.455 0.006,-0.674 0.008,-0.05 0.028,-0.103 0.037,-0.151 0.042,-0.228 -0.039,-0.451 -0.101,-0.669 -0.078,-0.279 -0.088,-0.531 -0.087,-0.817 10e-4,-0.228 0.04,-0.434 0.095,-0.655 0.047,-0.185 0.084,-0.325 0.079,-0.512 -0.004,-0.204 0.015,-0.412 10e-4,-0.614 -0.03,-0.407 -0.223,-0.855 0.012,-1.237 0.046,-0.075 0.13,-0.098 0.172,-0.176 0.042,-0.079 0.021,-0.221 0.01,-0.305 -0.022,-0.164 -0.064,-0.321 -0.079,-0.484 -0.004,-0.04 -0.035,-0.104 -0.043,-0.136 -0.021,-0.105 -0.047,-0.208 -0.078,-0.309 0.002,-0.09 0.038,-0.166 0.106,-0.228 0.045,-0.067 0.089,-0.135 0.134,-0.202 0.029,-0.055 0.065,-0.1 0.11,-0.136 -0.002,-0.033 -0.016,-0.042 -0.028,-0.071 -0.032,-0.075 -0.06,-0.199 -0.076,-0.277 -0.014,-0.046 -0.019,-0.094 -0.015,-0.142 0.002,-0.022 0.012,-0.038 0.032,-0.048 0.008,-0.004 0.016,-0.008 0.024,-0.011 0.01,-0.031 0.012,-0.063 0.005,-0.096 -0.001,-0.069 0.006,-0.104 -0.021,-0.158 -0.031,-0.061 -0.055,-0.088 -0.03,-0.165 0.018,-0.056 0.041,-0.115 0.06,-0.17 0.08,0.01 0.089,0.225 0.078,0.29 -0.008,0.044 -0.024,0.071 -0.031,0.115 -0.004,0.027 10e-4,0.059 10e-4,0.086 0,0.109 0.001,0.218 0,0.326 -10e-4,0.105 0.007,0.112 0.053,0.241 0.067,0.189 0.157,0.401 0.152,0.611 -10e-4,0.073 -0.006,0.137 0.002,0.211 0.026,0.242 0.026,0.482 0.022,0.725 0,0.024 -0.007,0.075 -0.002,0.102 0.011,0.072 0.065,0.125 0.083,0.193 0.014,0.05 0.007,0.108 -10e-4,0.158 -0.012,0.078 -0.02,0.144 -0.02,0.222 0,0.157 -0.06,0.312 -0.09,0.464 -0.062,0.32 -0.084,0.647 -0.085,0.973 -10e-4,0.196 0.034,0.392 0.03,0.587 -0.004,0.187 0.074,0.384 0.129,0.559 0.048,0.154 0.129,0.289 0.13,0.453 0.001,0.094 0,0.188 -0.008,0.283 -0.015,0.178 -0.022,0.353 -0.023,0.533 0,0.191 0.034,0.355 0.054,0.541 0.01,0.095 0,0.096 -0.031,0.206 -0.051,0.186 -0.051,0.292 -0.051,0.488 10e-4,0.172 0.017,0.359 -0.006,0.531 -0.008,0.058 -0.02,0.111 -0.023,0.169 -0.005,0.093 -0.003,0.172 0.018,0.265 0.029,0.132 0.105,0.258 0.128,0.39 0.004,0.026 0.002,0.07 0,0.097 -0.008,0.178 -0.067,0.358 -0.083,0.536 -0.01,0.162 -0.019,0.324 -0.028,0.485 -0.006,0.082 -0.008,0.164 -0.004,0.246 -0.009,0.056 -0.045,0.093 -0.077,0.135 0.041,0.067 0.018,0.199 0.018,0.278 0,0.133 0,0.267 0,0.4 0,0.088 -0.024,0.224 -0.004,0.31 0.009,0.04 0.033,0.069 0.056,0.101 0.032,0.043 0.16,0.157 0.177,0.216 0.014,0.045 -0.007,0.094 -0.014,0.14 -0.009,0.064 -0.008,0.135 -0.022,0.198 -0.014,0.067 -0.041,0.129 -0.051,0.198 -0.028,0.194 -0.025,0.386 -0.028,0.583 -0.002,0.108 0.047,0.181 0.06,0.282 0.016,0.122 -0.002,0.254 0.012,0.378 0.01,0.085 0.003,0.179 0.028,0.259 0.031,0.1 0.053,0.154 0.03,0.261 -0.026,0.124 0.003,0.266 -0.028,0.394 -0.027,0.112 -0.094,0.221 -0.104,0.337 -0.005,0.067 -0.006,0.109 -0.026,0.174 -0.022,0.072 -0.053,0.171 -0.055,0.247 0.046,0.027 0.088,0.059 0.141,0.067 0.08,0.012 0.086,-0.026 0.142,-0.064 0.063,-0.041 0.155,-0.041 0.225,-0.022 0.054,0.014 0.124,0.041 0.188,0.054 0.085,0.016 0.157,0.032 0.232,0.081 0.051,0.032 0.049,0.037 0.101,0.045 0.028,-0.005 0.055,-0.003 0.081,0.007 0.01,0.007 0.019,0.015 0.028,0.022 0.1,0.015 0.281,-0.115 0.377,-0.159 0.153,-0.07 0.261,-0.06 0.423,-0.056 0.155,0.01 0.308,0.005 0.461,-0.015 0.039,-0.01 0.076,-0.025 0.111,-0.043 0.106,-0.022 0.214,0.032 0.318,0.011 0.145,-0.029 0.261,-0.012 0.411,0.046 h 0.488 c 0.186,0 0.379,0.006 0.562,0.035 0.101,0.016 0.186,0.075 0.284,0.097 0.167,0.038 0.338,0.025 0.508,0.023 0.08,-10e-4 0.161,0.018 0.24,0.031 0.075,0.012 0.141,0.052 0.217,0.065 0.046,0.007 0.092,0.021 0.139,0.03 0.137,0.027 0.218,-0.076 0.33,-0.146 0.145,-0.09 0.287,-0.016 0.441,-0.043 0.087,-0.015 0.161,-0.067 0.251,-0.06 0.067,0.006 0.127,0.026 0.195,0.026 0.071,0 0.123,-0.028 0.191,-0.038 0.097,-0.014 0.148,0.062 0.233,0.103 0.103,0.051 0.247,0.046 0.359,0.033 0.06,-0.007 0.088,-0.054 0.146,-0.066 0.043,-0.009 0.076,0.003 0.121,-0.014 0.104,-0.039 0.248,-0.115 0.315,-0.213 -0.044,-0.083 -0.134,-0.197 -0.145,-0.295 -0.006,-0.058 0.02,-0.133 0.03,-0.189 0.026,-0.14 0.046,-0.278 0.096,-0.412 0.079,-0.21 0.233,-0.396 0.274,-0.623 0.005,-0.033 0.004,-0.065 0.007,-0.098 0.013,-0.115 0.077,-0.21 0.102,-0.319 0.023,-0.097 0.02,-0.212 0.007,-0.312 -0.015,-0.119 -0.074,-0.22 -0.102,-0.334 -0.02,-0.082 -0.012,-0.165 -0.012,-0.249 0.002,-0.135 0.022,-0.265 0.028,-0.396 0.005,-0.122 0.042,-0.231 0.092,-0.343 l 0.127,-0.235 c 0.018,-0.033 0.036,-0.066 0.054,-0.099 0.01,-0.063 -0.011,-0.157 -0.012,-0.224 0,-0.082 0.011,-0.146 0.025,-0.225 C -1.075,8.583 -1.031,8.538 -0.98,8.44 -0.946,8.376 -0.932,8.288 -0.946,8.215 -0.971,8.085 -1.076,7.972 -1.145,7.866 -1.206,7.77 -1.175,7.633 -1.176,7.52 -1.176,7.454 -1.185,7.384 -1.179,7.319 -1.173,7.241 -1.135,7.173 -1.124,7.097 -1.088,6.853 -1.098,6.6 -1.052,6.353 -1.004,6.335 -1.033,6.081 -1.033,6.042 -1.033,5.878 -0.998,5.676 -1.046,5.519 -1.121,5.266 -1.096,4.993 -1.049,4.733 -1.013,4.535 -0.918,4.37 -0.851,4.186 -0.805,4.056 -0.765,3.914 -0.722,3.78 -0.679,3.646 -0.682,3.505 -0.646,3.37 -0.625,3.294 -0.585,3.304 -0.531,3.259 -0.656,3.077 -0.833,2.989 -0.984,2.841 -0.888,2.863 -0.919,2.518 -0.919,2.525 -0.921,2.43 -0.923,2.334 -0.926,2.239 -0.95,2.099 -0.911,1.994 -0.808,1.925 -0.737,1.901 -0.714,1.852 -0.739,1.779 -0.749,1.752 -0.758,1.725 -0.768,1.697 -0.779,1.643 -0.781,1.586 -0.789,1.53 -0.811,1.378 -0.803,1.225 -0.803,1.072 -0.803,0.92 -0.815,0.78 -0.83,0.628 -0.839,0.533 -0.833,0.47 -0.793,0.38 c 0.046,-0.069 0.078,-0.143 0.098,-0.225 0.029,-0.071 0.042,-0.146 0.038,-0.225 -0.01,-0.037 -0.002,-0.064 0.026,-0.081 0.008,-0.012 0.016,-0.025 0.024,-0.037 0.016,-0.042 0.005,-0.104 0.004,-0.149 -0.001,-0.265 -0.04,-0.517 -0.062,-0.782 0.087,-0.002 0.173,0.006 0.26,0 0.048,-0.102 -0.046,-0.234 -0.054,-0.335 -0.017,-0.242 0.028,-0.504 0.087,-0.734 0.01,-0.036 0.021,-0.046 0.032,-0.093 0.027,-0.122 0.109,-0.165 0.195,-0.233 0.061,-0.049 0.108,-0.114 0.147,-0.191 -0.002,0.106 0.018,0.234 -0.008,0.335 -0.004,0.015 -0.019,0.035 -0.024,0.054 -0.003,0.015 0.006,0.034 0.003,0.049 -0.006,0.028 -0.025,0.028 -0.032,0.056 -0.005,0.021 10e-4,0.061 10e-4,0.082 0.001,0.058 0.004,0.113 -0.006,0.169 -0.014,0.086 -0.031,0.136 -0.008,0.225 0.011,0.042 0.028,0.081 0.031,0.126 0.003,0.045 -0.019,0.084 -0.014,0.134 0.013,0.15 0.108,0.286 0.137,0.429 0.014,0.064 0.003,0.135 0.004,0.202 C 0.093,-0.558 0.001,-0.284 0,0"
             style="fill:#100f0d;fill-opacity:1;fill-rule:nonzero;stroke:none"
             id="path54913" />
        </g>
        <g
           id="g54915"
           transform="translate(212.744,638.255)">
          <path
             d="m 0,0 c -0.007,0.086 -0.051,0.165 -0.081,0.247 -0.07,0.193 -0.095,0.398 -0.201,0.573 -0.091,0.151 -0.316,0.176 -0.487,0.198 -0.09,0.011 -0.183,10e-4 -0.275,0.005 0.017,-0.015 0.038,-0.024 0.056,-0.038 0.05,-0.039 0.044,-0.057 0.078,-0.106 0.035,-0.052 0.086,-0.083 0.144,-0.11 0.155,-0.073 0.381,-0.062 0.39,-0.26 0.007,-0.151 0.02,-0.322 -0.03,-0.466 -0.041,-0.117 -0.046,-0.232 -0.106,-0.345 -0.036,-0.07 -0.073,-0.101 -0.145,-0.142 -0.059,-0.033 -0.037,-0.009 -0.09,-0.028 -0.051,-0.017 -0.102,-0.046 -0.156,-0.058 -0.183,-0.043 -0.424,-0.01 -0.6,0.039 -0.114,0.032 -0.209,0.098 -0.32,0.134 -0.127,0.04 -0.268,0.077 -0.388,0.133 -0.056,0.026 -0.037,0.046 -0.07,0.084 -0.067,0.079 -0.212,0.104 -0.27,0.195 -0.061,-0.016 -0.173,-0.124 -0.232,-0.093 -0.012,0.066 0.004,0.131 -0.01,0.196 -0.022,0.1 -0.093,0.147 -0.174,0.213 -0.088,0.072 -0.187,0.134 -0.271,0.21 C -3.323,0.658 -3.406,0.683 -3.519,0.719 -3.794,0.807 -4.072,1.04 -4.383,0.933 -4.403,0.931 -4.424,0.927 -4.443,0.922 -4.452,0.903 -4.465,0.887 -4.481,0.873 -4.533,0.841 -4.576,0.831 -4.636,0.841 -4.689,0.85 -4.74,0.868 -4.796,0.874 -4.904,0.886 -4.905,0.873 -5.002,0.818 -5.047,0.792 -5.087,0.789 -5.13,0.774 -5.178,0.756 -5.199,0.715 -5.24,0.686 -5.331,0.621 -5.424,0.556 -5.4,0.43 -5.466,0.388 -5.425,0.323 -5.394,0.223 c 0.102,0.034 0.154,0.051 0.266,0.051 0.085,0 0.17,0.001 0.254,0 0.036,0 0.086,-0.009 0.121,-0.001 0.033,0.007 0.046,0.028 0.081,0.034 0.11,0.017 0.187,-0.052 0.269,-0.102 0.159,-0.097 0.336,-0.111 0.515,-0.149 0.217,-0.046 0.403,-0.106 0.582,-0.241 0.105,-0.08 0.122,-0.184 0.237,-0.248 0.103,-0.057 0.125,-0.097 0.238,-0.107 0.085,-0.007 0.155,-0.01 0.218,-0.064 0.072,-0.064 0.086,-0.084 0.183,-0.119 0.052,-0.019 0.099,-0.034 0.154,-0.046 0.185,-0.039 0.377,-0.047 0.56,-0.087 0.149,-0.032 0.293,-0.05 0.443,-0.096 0.067,-0.021 0.118,-0.069 0.183,-0.084 0.035,-0.009 0.09,0.002 0.127,0.002 0.176,0 0.363,-0.002 0.535,0.026 0.117,0.02 0.289,0.183 0.333,0.278 0.085,0.18 0.092,0.342 0.092,0.533 0,0.065 0.008,0.133 0.003,0.197"
             style="fill:#100f0d;fill-opacity:1;fill-rule:nonzero;stroke:none"
             id="path54917" />
        </g>
        <g
           id="g54919"
           transform="translate(211.725,635.398)">
          <path
             d="M 0,0 C -0.004,0.057 -0.018,0.076 -0.053,0.126 -0.117,0.217 -0.14,0.31 -0.165,0.417 -0.182,0.492 -0.211,0.515 -0.28,0.56 -0.302,0.574 -0.329,0.586 -0.357,0.596 -0.343,0.588 -0.331,0.58 -0.327,0.575 -0.306,0.553 -0.279,0.47 -0.273,0.438 -0.251,0.313 -0.301,0.197 -0.308,0.078 -0.312,0.021 -0.328,-0.024 -0.35,-0.077 c -0.021,-0.05 -0.012,-0.103 -0.033,-0.149 -0.019,-0.043 -0.084,-0.097 -0.124,-0.122 -0.055,-0.035 -0.12,-0.083 -0.18,-0.111 -0.078,-0.037 -0.158,-0.025 -0.245,-0.024 -0.148,0.002 -0.297,0.001 -0.445,0.001 -0.067,-0.001 -0.085,0.008 -0.139,0.031 -0.069,0.029 -0.153,0.016 -0.216,0.049 -0.046,0.024 -0.086,0.073 -0.101,0.119 -0.035,0.108 0.01,0.193 -0.097,0.277 -0.047,0.037 -0.089,0.068 -0.147,0.099 -0.075,0.041 -0.232,0.035 -0.242,0.136 -0.09,0 -0.159,0.173 -0.161,0.241 -0.002,0.065 -0.008,0.097 -0.037,0.151 -0.02,0.036 -0.047,0.074 -0.067,0.112 -0.015,0.028 -0.017,0.086 -0.033,0.111 -0.008,0.014 -0.005,0.03 -0.015,0.044 -0.069,0.03 -0.136,0.063 -0.2,0.1 C -2.927,1.035 -3.015,1.09 -3.098,1.153 -3.125,1.177 -3.146,1.211 -3.18,1.227 -3.247,1.256 -3.51,1.274 -3.534,1.278 -3.64,1.292 -4.046,1.424 -4.008,1.2 -3.964,1.139 -4.085,1.118 -4.127,1.109 -4.215,1.09 -4.218,1.099 -4.26,1.001 -4.292,0.926 -4.295,0.81 -4.281,0.729 c 0.012,-0.071 0.055,-0.114 0.125,-0.154 0.047,-0.027 0.101,-0.027 0.149,-0.051 0.035,-0.018 0.046,-0.05 0.077,-0.067 0.016,-0.008 0.038,-0.01 0.06,-0.01 0.11,0.025 0.227,0.024 0.348,-0.017 0.213,-0.071 0.362,-0.227 0.475,-0.409 0.026,-0.011 0.051,-0.022 0.077,-0.036 0.178,-0.089 0.331,-0.301 0.388,-0.474 0.068,-0.208 0.281,-0.285 0.472,-0.393 0.061,-0.034 0.117,-0.079 0.192,-0.093 0.167,-0.034 0.356,-0.015 0.528,-0.031 0.086,-0.008 0.106,-0.016 0.173,0.03 0.058,0.039 0.115,0.079 0.185,0.1 0.041,0.012 0.104,0.017 0.131,0.052 0.163,-0.052 0.401,-0.224 0.569,-0.134 0.058,0.031 0.121,0.07 0.175,0.115 0.114,0.095 0.216,0.129 0.223,0.273 0.007,0.136 -0.02,0.256 -0.053,0.388 C -0.008,-0.101 0.005,-0.077 0,0"
             style="fill:#100f0d;fill-opacity:1;fill-rule:nonzero;stroke:none"
             id="path54921" />
        </g>
        <g
           id="g54923"
           transform="translate(209.994,632.446)">
          <path
             d="m 0,0 c -0.031,0.052 -0.076,0.094 -0.106,0.15 -0.018,0.035 -0.03,0.07 -0.061,0.096 0.031,-0.061 0.058,-0.083 0.063,-0.158 0.005,-0.084 -0.011,-0.145 -0.037,-0.222 -0.037,-0.111 -0.097,-0.224 -0.1,-0.34 -0.001,-0.077 0.004,-0.086 -0.05,-0.14 -0.017,-0.017 -0.034,-0.036 -0.052,-0.052 -0.042,-0.037 -0.065,-0.038 -0.092,-0.027 -0.071,-0.111 -0.191,-0.19 -0.363,-0.19 -0.334,0 -0.477,0.293 -0.432,0.547 -0.038,0.093 -0.022,0.176 -0.028,0.276 -0.006,0.094 -0.036,0.189 -0.094,0.266 -0.04,0.054 -0.094,0.104 -0.137,0.153 -0.042,0.049 -0.052,0.096 -0.082,0.147 -0.018,0.032 -0.042,0.066 -0.06,0.095 -0.029,0.047 -0.026,0.045 -0.093,0.07 -0.077,0.03 -0.199,0.081 -0.282,0.088 C -2.049,0.762 -2.223,0.71 -2.248,0.688 -2.267,0.671 -2.273,0.649 -2.277,0.625 -2.378,0.609 -2.493,0.606 -2.558,0.517 -2.623,0.428 -2.573,0.307 -2.522,0.214 c 0.045,0.002 0.089,-0.003 0.132,-0.015 0.222,-0.066 0.403,-0.211 0.504,-0.422 0.042,-0.089 0.069,-0.18 0.089,-0.271 0.037,-0.027 0.074,-0.055 0.106,-0.087 0.06,-0.059 0.047,-0.204 0.078,-0.287 0.05,-0.139 0.126,-0.207 0.241,-0.294 0.069,-0.052 0.141,-0.1 0.217,-0.143 0.111,-0.063 0.214,-0.067 0.344,-0.076 0.272,-0.018 0.457,-0.007 0.693,0.105 0.081,0.038 0.096,0.037 0.116,0.101 0.026,0.079 0.02,0.173 0.034,0.256 0.016,0.098 0.098,0.156 0.103,0.264 0.005,0.107 0.004,0.219 0.001,0.326 -0.002,0.098 -0.05,0.116 -0.091,0.2 C 0.023,-0.082 0.027,-0.046 0,0"
             style="fill:#100f0d;fill-opacity:1;fill-rule:nonzero;stroke:none"
             id="path54925" />
        </g>
        <g
           id="g54927"
           transform="translate(195.276,638.495)">
          <path
             d="M 0,0 C 0.024,0.126 -0.069,0.191 -0.16,0.255 -0.201,0.285 -0.222,0.326 -0.27,0.343 -0.313,0.359 -0.353,0.362 -0.398,0.388 -0.494,0.443 -0.496,0.456 -0.603,0.444 -0.66,0.438 -0.711,0.42 -0.764,0.411 c -0.06,-0.01 -0.103,0 -0.154,0.032 -0.017,0.014 -0.03,0.03 -0.038,0.049 C -0.976,0.497 -0.997,0.5 -1.017,0.503 -1.327,0.609 -1.606,0.378 -1.881,0.289 -1.994,0.253 -2.077,0.228 -2.161,0.151 -2.246,0.075 -2.344,0.013 -2.433,-0.06 c -0.08,-0.065 -0.152,-0.112 -0.173,-0.212 -0.014,-0.065 10e-4,-0.13 -0.01,-0.196 -0.059,-0.031 -0.171,0.076 -0.233,0.093 -0.058,-0.091 -0.203,-0.116 -0.27,-0.195 -0.033,-0.038 -0.014,-0.058 -0.07,-0.084 -0.119,-0.056 -0.26,-0.093 -0.388,-0.133 -0.111,-0.036 -0.206,-0.102 -0.319,-0.134 -0.176,-0.049 -0.417,-0.082 -0.601,-0.04 -0.053,0.013 -0.105,0.042 -0.156,0.059 -0.052,0.018 -0.03,-0.005 -0.089,0.028 -0.073,0.041 -0.109,0.072 -0.146,0.142 -0.059,0.113 -0.065,0.228 -0.106,0.345 -0.049,0.144 -0.037,0.315 -0.03,0.466 0.01,0.197 0.235,0.187 0.39,0.26 C -4.59,0.36 -4.552,0.386 -4.52,0.418 -4.585,0.441 -4.645,0.476 -4.689,0.523 -4.704,0.539 -4.716,0.557 -4.73,0.574 -4.88,0.552 -5.044,0.513 -5.117,0.39 -5.223,0.214 -5.249,0.01 -5.319,-0.183 -5.349,-0.265 -5.392,-0.345 -5.4,-0.43 c -0.005,-0.064 0.003,-0.132 0.003,-0.197 0,-0.191 0.007,-0.354 0.092,-0.533 0.045,-0.095 0.216,-0.258 0.334,-0.278 0.171,-0.028 0.358,-0.026 0.534,-0.026 0.037,0 0.092,-0.011 0.128,-0.002 0.064,0.015 0.115,0.063 0.183,0.084 0.15,0.046 0.294,0.064 0.442,0.096 0.183,0.04 0.375,0.048 0.56,0.087 0.055,0.012 0.102,0.027 0.154,0.046 0.098,0.035 0.112,0.055 0.183,0.118 0.063,0.055 0.134,0.058 0.218,0.065 0.114,0.01 0.135,0.05 0.238,0.107 0.115,0.063 0.132,0.169 0.237,0.248 0.056,0.043 0.114,0.076 0.172,0.105 0.037,0.065 0.091,0.121 0.16,0.16 0.249,0.139 0.539,0.184 0.822,0.187 0.012,0 0.024,-0.003 0.036,-0.004 0.052,0.031 0.107,0.055 0.176,0.044 0.036,-0.006 0.048,-0.027 0.081,-0.034 0.035,-0.008 0.085,0.001 0.121,0.001 0.085,0 0.17,0 0.254,0 0.112,0 0.164,-0.017 0.266,-0.051 C 0.025,-0.107 0.066,-0.042 0,0"
             style="fill:#100f0d;fill-opacity:1;fill-rule:nonzero;stroke:none"
             id="path54929" />
        </g>
        <g
           id="g54931"
           transform="translate(193.006,634.326)">
          <path
             d="m 0,0 c 0.191,0.108 0.404,0.186 0.472,0.393 0.057,0.173 0.21,0.385 0.387,0.475 0.133,0.066 0.257,0.1 0.374,0.197 C 1.36,1.172 1.471,1.331 1.65,1.336 1.697,1.337 1.776,1.317 1.82,1.34 1.851,1.356 1.862,1.388 1.897,1.406 1.944,1.43 1.999,1.43 2.046,1.457 2.116,1.497 2.159,1.54 2.171,1.611 2.184,1.692 2.181,1.808 2.149,1.883 2.108,1.981 2.104,1.972 2.016,1.991 1.975,2 1.854,2.021 1.897,2.082 1.935,2.306 1.529,2.174 1.423,2.16 1.399,2.156 1.137,2.138 1.07,2.109 1.035,2.093 1.014,2.059 0.988,2.035 0.905,1.972 0.816,1.917 0.722,1.87 0.657,1.833 0.591,1.8 0.522,1.77 0.512,1.756 0.515,1.74 0.506,1.726 0.491,1.701 0.489,1.643 0.474,1.615 0.453,1.577 0.427,1.539 0.407,1.503 0.377,1.449 0.372,1.417 0.37,1.352 0.368,1.284 0.299,1.111 0.208,1.111 0.198,1.01 0.042,1.016 -0.033,0.975 -0.091,0.944 -0.133,0.913 -0.181,0.875 -0.287,0.792 -0.242,0.707 -0.278,0.599 -0.293,0.553 -0.332,0.504 -0.378,0.48 -0.442,0.447 -0.525,0.46 -0.595,0.431 -0.648,0.408 -0.667,0.399 -0.733,0.4 -0.882,0.401 -1.03,0.401 -1.179,0.399 -1.266,0.398 -1.345,0.386 -1.423,0.423 -1.483,0.451 -1.548,0.499 -1.604,0.534 -1.643,0.56 -1.709,0.613 -1.728,0.656 -1.748,0.702 -1.739,0.755 -1.76,0.805 -1.782,0.858 -1.799,0.903 -1.802,0.96 -1.81,1.079 -1.859,1.195 -1.837,1.32 c 0.005,0.032 0.032,0.115 0.053,0.137 0.005,0.005 0.016,0.013 0.03,0.021 C -1.782,1.468 -1.809,1.456 -1.83,1.442 -1.899,1.397 -1.928,1.374 -1.946,1.299 -1.971,1.192 -1.993,1.099 -2.057,1.008 -2.092,0.958 -2.106,0.939 -2.11,0.882 -2.116,0.805 -2.102,0.782 -2.123,0.701 -2.156,0.568 -2.183,0.448 -2.176,0.312 c 0.007,-0.144 0.108,-0.178 0.223,-0.273 0.053,-0.045 0.116,-0.084 0.175,-0.115 0.168,-0.09 0.406,0.081 0.568,0.134 0.027,-0.035 0.091,-0.04 0.131,-0.052 0.071,-0.021 0.127,-0.061 0.186,-0.1 0.067,-0.046 0.086,-0.038 0.172,-0.03 0.172,0.016 0.361,-0.003 0.529,0.031 C -0.118,-0.079 -0.061,-0.034 0,0"
             style="fill:#100f0d;fill-opacity:1;fill-rule:nonzero;stroke:none"
             id="path54933" />
        </g>
        <g
           id="g54935"
           transform="translate(191.252,635.804)">
          <path
             d="M 0,0 C 0.054,0.021 0.111,0.039 0.145,0.069 0.126,0.068 0.046,0.028 0,0"
             style="fill:#100f0d;fill-opacity:1;fill-rule:nonzero;stroke:none"
             id="path54937" />
        </g>
        <g
           id="g54939"
           transform="translate(194.841,632.892)">
          <path
             d="M 0,0 C -0.001,0.004 -0.001,0.006 0.002,-0.001 0.002,0 0.001,0 0,0 M 0.062,-0.012 C 0.059,0.012 0.052,0.034 0.033,0.051 0.009,0.073 -0.166,0.125 -0.209,0.121 -0.292,0.115 -0.413,0.063 -0.491,0.034 -0.558,0.009 -0.554,0.011 -0.584,-0.036 c -0.018,-0.029 -0.042,-0.063 -0.06,-0.095 -0.03,-0.051 -0.04,-0.099 -0.082,-0.147 -0.043,-0.049 -0.097,-0.099 -0.137,-0.153 -0.057,-0.077 -0.088,-0.172 -0.094,-0.266 -0.007,-0.105 0.014,-0.192 -0.033,-0.291 -0.04,-0.085 -0.061,-0.078 -0.156,-0.076 -0.114,0.002 -0.137,-0.02 -0.22,-0.078 -0.042,-0.03 -0.08,-0.048 -0.131,-0.062 -0.082,-0.023 -0.142,-0.056 -0.217,-0.093 -0.074,-0.037 -0.089,-0.067 -0.157,-0.006 -0.018,0.016 -0.036,0.035 -0.052,0.052 -0.054,0.054 -0.049,0.063 -0.051,0.14 -0.002,0.116 -0.063,0.229 -0.1,0.34 -0.025,0.077 -0.041,0.138 -0.037,0.222 0.005,0.075 0.033,0.097 0.063,0.159 -0.03,-0.027 -0.042,-0.063 -0.061,-0.097 -0.029,-0.056 -0.075,-0.098 -0.106,-0.15 -0.027,-0.046 -0.022,-0.083 -0.045,-0.129 -0.04,-0.084 -0.089,-0.102 -0.091,-0.2 -0.003,-0.107 -0.003,-0.219 0.002,-0.326 0.005,-0.109 0.086,-0.166 0.103,-0.265 0.014,-0.082 0.008,-0.176 0.033,-0.255 0.021,-0.064 0.035,-0.063 0.116,-0.101 0.236,-0.112 0.421,-0.123 0.693,-0.105 0.13,0.009 0.234,0.013 0.345,0.076 0.075,0.043 0.148,0.091 0.216,0.143 0.091,0.069 0.156,0.126 0.205,0.215 0.061,0.496 0.446,0.972 0.9,1.166 0.019,0.008 0.039,0.014 0.059,0.021 0.045,0.089 0.081,0.196 0.022,0.277 -0.065,0.089 -0.18,0.092 -0.281,0.108"
             style="fill:#100f0d;fill-opacity:1;fill-rule:nonzero;stroke:none"
             id="path54941" />
        </g>
      </g>
    </g>
  </g>
</svg>
