<?xml version="1.0" encoding="UTF-8" standalone="no"?>
<!-- Created with Inkscape (http://www.inkscape.org/) -->

<svg
   width="24.107441"
   height="24"
   viewBox="0 0 6.3784271 6.35"
   version="1.1"
   id="svg56484"
   inkscape:version="1.2.1 (9c6d41e4, 2022-07-14)"
   sodipodi:docname="hazards-of-antarctica.svg"
   xmlns:inkscape="http://www.inkscape.org/namespaces/inkscape"
   xmlns:sodipodi="http://sodipodi.sourceforge.net/DTD/sodipodi-0.dtd"
   xmlns="http://www.w3.org/2000/svg"
   xmlns:svg="http://www.w3.org/2000/svg">
  <sodipodi:namedview
     id="namedview56486"
     pagecolor="#505050"
     bordercolor="#eeeeee"
     borderopacity="1"
     inkscape:showpageshadow="0"
     inkscape:pageopacity="0"
     inkscape:pagecheckerboard="0"
     inkscape:deskcolor="#505050"
     inkscape:document-units="mm"
     showgrid="false"
     inkscape:zoom="0.7046647"
     inkscape:cx="-78.051306"
     inkscape:cy="189.45181"
     inkscape:window-width="1390"
     inkscape:window-height="941"
     inkscape:window-x="0"
     inkscape:window-y="25"
     inkscape:window-maximized="0"
     inkscape:current-layer="layer1" />
  <defs
     id="defs56481">
    <clipPath
       clipPathUnits="userSpaceOnUse"
       id="clipPath54501">
      <path
         d="m 65.076,591.119 h 24.699 v 24.699 H 65.076 Z"
         id="path54499" />
    </clipPath>
  </defs>
  <g
     inkscape:label="Layer 1"
     inkscape:groupmode="layer"
     id="layer1"
     transform="translate(-125.59839,-98.578471)">
    <g
       id="g54495"
       transform="matrix(0.30250065,0,0,-0.30250065,105.36636,284.49537)">
      <g
         id="g54497"
         clip-path="url(#clipPath54501)">
        <g
           id="g54503"
           transform="translate(72.4315,599.018)">
          <path
             d="M 0,0 C -0.038,-0.039 -0.078,-0.081 -0.096,-0.126 -0.06,-0.088 -0.032,-0.042 0,0"
             style="fill:#100f0d;fill-opacity:1;fill-rule:nonzero;stroke:none"
             id="path54505" />
        </g>
        <g
           id="g54507"
           transform="translate(72.4315,599.018)">
          <path
             d="M 0,0 C 0.019,0.02 0.038,0.039 0.054,0.057 0.061,0.065 0.069,0.073 0.076,0.081 0.055,0.062 0.034,0.043 0.016,0.021 0.01,0.014 0.005,0.007 0,0"
             style="fill:#100f0d;fill-opacity:1;fill-rule:nonzero;stroke:none"
             id="path54509" />
        </g>
        <g
           id="g54511"
           transform="translate(81.7042,607.655)">
          <path
             d="M 0,0 C -0.031,-0.07 -0.09,-0.125 -0.121,-0.197 -0.124,-0.205 -0.127,-0.214 -0.13,-0.222 -0.061,-0.135 0.03,-0.064 0.095,0.025 0.111,0.048 0.128,0.08 0.137,0.112 0.149,0.116 0.161,0.12 0.174,0.124 0.163,0.133 0.153,0.141 0.142,0.149 0.143,0.175 0.139,0.2 0.12,0.22 0.103,0.205 0.087,0.189 0.072,0.172 0.025,0.174 -0.038,0.155 -0.088,0.134 -0.051,0.115 -0.014,0.101 0.029,0.098 0.017,0.066 0.013,0.03 0,0"
             style="fill:#100f0d;fill-opacity:1;fill-rule:nonzero;stroke:none"
             id="path54513" />
        </g>
        <g
           id="g54515"
           transform="translate(81.0214,600.281)">
          <path
             d="m 0,0 c -0.02,-0.02 -0.036,-0.04 -0.043,-0.062 0.003,-0.002 0.007,-0.004 0.01,-0.007 C -0.014,-0.053 0,-0.032 0.001,-0.008 0.001,-0.004 0,-0.003 0,0"
             style="fill:#100f0d;fill-opacity:1;fill-rule:nonzero;stroke:none"
             id="path54517" />
        </g>
        <g
           id="g54519"
           transform="translate(81.3462,607.049)">
          <path
             d="M 0,0 C 0.038,0.03 0.076,0.059 0.105,0.094 0.171,0.176 0.191,0.286 0.228,0.383 0.224,0.378 0.219,0.373 0.214,0.367 0.132,0.256 0.059,0.129 0,0"
             style="fill:#100f0d;fill-opacity:1;fill-rule:nonzero;stroke:none"
             id="path54521" />
        </g>
        <g
           id="g54523"
           transform="translate(81.9914,607.666)">
          <path
             d="M 0,0 C 0.087,-0.064 0.171,-0.039 0.277,-0.009 0.403,0.027 0.517,0.073 0.611,0.167 0.637,0.193 0.654,0.237 0.684,0.259 0.711,0.278 0.755,0.286 0.786,0.296 0.857,0.32 0.93,0.341 1.002,0.364 1.121,0.402 1.249,0.432 1.358,0.492 1.424,0.528 1.49,0.547 1.562,0.571 1.697,0.616 1.768,0.59 1.9,0.542 1.965,0.518 2.014,0.475 2.072,0.448 2.26,0.36 2.501,0.358 2.704,0.359 2.839,0.36 2.992,0.349 3.121,0.302 3.231,0.263 3.319,0.201 3.442,0.186 3.629,0.163 3.813,0.088 3.997,0.047 c 0.287,-0.064 0.575,-0.142 0.854,-0.233 0.161,-0.052 0.311,-0.137 0.477,-0.176 0.061,-0.014 0.1,-0.037 0.156,-0.061 0.112,-0.049 0.249,-0.115 0.369,-0.132 -0.006,0.047 -0.02,0.084 -0.056,0.116 -0.07,0.063 -0.187,0.09 -0.269,0.136 -0.053,0.03 -0.099,0.058 -0.157,0.082 C 5.282,-0.183 5.188,-0.148 5.103,-0.106 5.038,-0.073 4.979,-0.029 4.91,0.001 4.804,0.046 4.668,0.087 4.557,0.053 4.411,0.009 4.329,0.056 4.192,0.096 4.034,0.142 3.88,0.227 3.72,0.275 3.679,0.288 3.64,0.289 3.598,0.297 3.529,0.311 3.462,0.344 3.395,0.364 3.196,0.423 2.972,0.422 2.78,0.494 2.7,0.523 2.612,0.594 2.549,0.637 2.426,0.723 2.3,0.805 2.177,0.891 2.09,0.952 2.03,0.983 1.922,0.974 1.828,0.965 1.737,0.96 1.646,0.934 1.566,0.91 1.486,0.871 1.404,0.854 1.36,0.845 1.316,0.853 1.273,0.843 1.206,0.828 1.172,0.776 1.117,0.741 1.074,0.714 1.044,0.707 1.009,0.666 0.934,0.578 0.811,0.479 0.7,0.433 0.465,0.338 0.24,0.229 -0.004,0.152 -0.036,0.142 -0.075,0.127 -0.114,0.113 -0.075,0.076 -0.042,0.031 0,0"
             style="fill:#100f0d;fill-opacity:1;fill-rule:nonzero;stroke:none"
             id="path54525" />
        </g>
        <g
           id="g54527"
           transform="translate(80.3841,609.759)">
          <path
             d="M 0,0 C -0.005,0.006 -0.011,0.01 -0.016,0.014 -0.001,-0.009 0.016,-0.031 0.034,-0.052 0.024,-0.034 0.013,-0.016 0,0"
             style="fill:#100f0d;fill-opacity:1;fill-rule:nonzero;stroke:none"
             id="path54529" />
        </g>
        <g
           id="g54531"
           transform="translate(84.8145,601.129)">
          <path
             d="m 0,0 c -0.149,-0.236 -0.353,-0.433 -0.513,-0.662 -0.092,-0.13 -0.188,-0.258 -0.283,-0.386 -0.058,-0.08 -0.138,-0.127 -0.203,-0.196 -0.051,-0.055 -0.084,-0.119 -0.141,-0.17 -0.045,-0.041 -0.095,-0.075 -0.139,-0.116 -0.043,-0.041 -0.089,-0.073 -0.134,-0.109 -0.04,-0.033 -0.058,-0.078 -0.094,-0.116 -0.069,-0.074 -0.154,-0.135 -0.219,-0.215 -0.031,-0.039 -0.06,-0.08 -0.089,-0.121 -0.02,0.051 -0.043,0.101 -0.054,0.138 -0.019,0.057 -0.04,0.115 -0.057,0.173 -0.029,0.096 -0.031,0.196 -0.064,0.29 -0.006,0.017 -0.026,0.056 -0.027,0.073 -0.003,0.053 0.033,0.104 0.04,0.156 0.011,0.072 -0.008,0.099 0.028,0.164 0.034,0.06 0.06,0.123 0.1,0.18 0.043,0.061 0.085,0.125 0.129,0.185 0.028,0.04 0.052,0.049 0.041,0.09 -0.052,0.003 -0.136,-0.08 -0.187,-0.105 -0.053,-0.027 -0.078,-0.029 -0.116,-0.071 -0.023,-0.025 -0.039,-0.053 -0.057,-0.081 -0.034,-0.049 -0.112,-0.121 -0.135,-0.175 -0.01,-0.024 -0.004,-0.058 -0.013,-0.083 -0.008,-0.023 -0.023,-0.038 -0.027,-0.062 -0.054,0.011 -0.129,0.086 -0.173,0.117 -0.06,0.044 -0.119,0.089 -0.181,0.131 -0.077,0.054 -0.168,0.095 -0.241,0.154 -0.062,0.051 -0.068,0.117 -0.112,0.181 -0.044,0.064 -0.089,0.141 -0.146,0.192 -0.045,0.04 -0.089,0.081 -0.135,0.122 -0.026,0.024 -0.098,0.072 -0.096,0.115 0.005,0.063 0.121,0.11 0.164,0.141 0.025,0.019 0.047,0.064 0.076,0.077 0.02,0.01 0.056,0 0.078,0 0.061,0.004 0.136,0.031 0.194,0.025 0.083,-0.01 0.164,-0.081 0.234,-0.119 0.079,-0.043 0.166,-0.074 0.25,-0.106 0.138,-0.052 0.291,-0.113 0.418,-0.195 0.067,-0.042 0.137,-0.069 0.198,-0.12 0.071,-0.061 0.135,-0.126 0.217,-0.169 -0.012,0.024 -0.012,0.056 -0.024,0.079 -0.027,0.05 -0.082,0.077 -0.13,0.109 -0.076,0.051 -0.133,0.103 -0.199,0.167 -0.035,0.034 -0.063,0.066 -0.103,0.093 -0.04,0.027 -0.054,0.048 -0.082,0.082 -0.049,0.058 -0.094,0.076 -0.157,0.117 -0.053,0.034 -0.101,0.05 -0.111,0.117 -0.016,0.108 0.084,0.14 0.156,0.193 0.143,0.104 0.242,0.231 0.333,0.376 0.032,0.051 0.047,0.13 0.112,0.15 C -1.644,0.774 -1.61,0.782 -1.57,0.766 -1.516,0.746 -1.475,0.695 -1.428,0.663 -1.363,0.62 -1.3,0.609 -1.232,0.586 -1.158,0.562 -1.089,0.524 -1.014,0.498 -0.881,0.452 -0.744,0.385 -0.605,0.355 -0.537,0.347 -0.469,0.337 -0.402,0.323 -0.337,0.297 -0.271,0.272 -0.204,0.249 -0.169,0.243 -0.132,0.235 -0.096,0.228 -0.05,0.172 0.012,0.115 0.067,0.101 0.051,0.064 0.022,0.035 0,0 m -2.138,-2.576 c -0.047,0.005 -0.094,0.011 -0.141,0.016 -0.058,0.005 -0.123,0.019 -0.18,0.022 -0.042,-0.008 -0.084,-0.017 -0.126,-0.03 -0.049,-0.007 -0.097,-0.007 -0.145,-10e-4 -0.065,10e-4 -0.115,-0.006 -0.18,0.024 -0.054,0.025 -0.08,0.078 -0.129,0.106 -0.077,0.044 -0.199,0.025 -0.283,0.013 -0.047,-0.013 -0.096,-0.017 -0.144,-0.012 -0.035,0.012 -0.071,0.018 -0.108,0.018 -0.067,-0.004 -0.125,-0.046 -0.192,-0.054 -0.041,0.123 -0.125,0.215 -0.163,0.335 -0.014,0.045 -0.036,0.091 -0.045,0.137 -0.012,0.058 0.002,0.116 0.001,0.175 -0.001,0.075 -0.001,0.132 0.015,0.202 0.034,0.145 0.043,0.315 0.097,0.452 0.03,0.074 0.094,0.111 0.133,0.178 -0.029,0.034 -0.063,0.056 -0.098,0.078 -0.005,-0.004 -0.009,-0.01 -0.015,-0.014 0,0.007 0.003,0.014 0.005,0.021 -0.035,0.022 -0.07,0.044 -0.101,0.076 0.046,0.018 0.14,0.059 0.144,-0.014 0.043,0.041 0.103,0.078 0.129,0.105 0.041,0.039 0.081,0.078 0.12,0.12 0.027,0.03 0.078,0.116 0.119,0.122 0.047,-0.103 0.16,-0.153 0.243,-0.226 0.075,-0.065 0.163,-0.073 0.239,-0.137 0.088,-0.074 0.149,-0.165 0.252,-0.223 0.046,-0.027 0.084,-0.054 0.127,-0.084 0.059,-0.04 0.091,-0.081 0.141,-0.128 0.054,-0.05 0.111,-0.041 0.15,-0.108 0.02,-0.035 0.038,-0.066 0.059,-0.099 0.042,-0.068 0.074,-0.148 0.111,-0.22 0.043,-0.087 0.101,-0.16 0.16,-0.236 0.04,-0.05 0.066,-0.114 0.097,-0.171 -0.1,-0.144 -0.192,-0.297 -0.292,-0.443 m -2.091,6.264 c -0.016,0.099 -0.02,0.206 -0.003,0.305 0.023,0.131 0.091,0.254 0.162,0.364 0.029,0.044 0.055,0.095 0.079,0.147 0.074,0.025 0.149,0.053 0.225,0.073 0.056,0.015 0.11,0.002 0.167,-0.009 0.079,-0.014 0.119,-0.012 0.193,0.012 0.1,0.034 0.215,0.088 0.318,0.089 C -3.05,4.67 -3.01,4.667 -2.972,4.666 -3.027,4.568 -3.084,4.472 -3.137,4.373 -3.177,4.299 -3.213,4.224 -3.245,4.145 -3.279,4.061 -3.291,3.953 -3.353,3.885 -3.386,3.849 -3.431,3.826 -3.469,3.795 -3.533,3.744 -3.582,3.679 -3.644,3.624 -3.708,3.567 -3.782,3.52 -3.844,3.459 -3.867,3.465 -3.891,3.47 -3.912,3.478 -4.02,3.516 -4.209,3.554 -4.229,3.688 m 0.173,-7.859 c -0.017,0.025 -0.015,0.058 -0.028,0.086 -0.034,0.066 -0.116,0.103 -0.186,0.102 -0.104,-0.002 -0.211,-0.035 -0.313,-0.034 -0.027,0.001 -0.054,0.018 -0.082,0.019 -0.015,0 -0.032,-0.009 -0.046,-0.007 -0.063,0.009 -0.135,0.028 -0.199,0.044 -0.037,0.009 -0.07,0.027 -0.108,0.036 -0.066,0.015 -0.136,0.011 -0.202,0.02 -0.103,0.015 -0.206,0.014 -0.309,0.026 -0.115,0.013 -0.233,0.016 -0.347,0.029 -0.026,0.003 -0.042,0.004 -0.07,0.004 -0.033,-10e-4 -0.073,-0.005 -0.105,0 -0.075,0.013 -0.148,0.047 -0.215,0.076 -0.019,0.007 -0.043,0.015 -0.067,0.022 -0.003,0.029 -0.007,0.058 -0.008,0.083 -0.003,0.051 0.014,0.102 0.014,0.154 0,0.1 -0.003,0.193 -0.012,0.291 -0.008,0.083 -0.022,0.172 -0.002,0.252 0.003,0.011 0.007,0.022 0.01,0.034 0.018,0.015 0.035,0.032 0.056,0.05 0.064,0.054 0.159,0.074 0.228,0.121 0.044,0.03 0.071,0.048 0.122,0.068 0.071,0.027 0.09,0.05 0.147,0.103 0.086,0.082 0.176,0.136 0.245,0.237 0.034,0.05 0.058,0.104 0.09,0.156 0.032,0.053 0.053,0.115 0.086,0.17 0.028,0.046 0.066,0.076 0.108,0.108 0.079,0.059 0.16,0.115 0.238,0.176 0.077,0.059 0.105,0.142 0.201,0.196 0.107,0.059 0.223,0.091 0.339,0.128 0.075,0.024 0.196,0.036 0.25,0.099 0.02,-0.061 0.01,-0.154 -0.005,-0.217 -0.02,-0.085 -0.021,-0.171 -0.029,-0.26 -0.009,-0.114 -0.023,-0.255 -0.002,-0.362 0.014,-0.073 0.016,-0.138 0.041,-0.212 0.023,-0.072 0.056,-0.147 0.068,-0.221 0.009,-0.053 0.002,-0.097 -0.006,-0.149 -0.008,-0.048 -0.004,-0.037 0,-0.082 0.007,-0.084 0.028,-0.191 0.025,-0.274 -0.004,-0.089 -0.024,-0.17 -0.016,-0.262 0.01,-0.12 0.04,-0.23 0.058,-0.351 0.024,-0.155 0.025,-0.312 0.04,-0.467 -0.003,0.003 -0.007,0.004 -0.009,0.008 m -2.403,0.443 c -0.022,-0.012 -0.046,-0.141 -0.062,-0.17 -0.041,-0.073 -0.116,-0.132 -0.192,-0.167 -0.094,-0.044 -0.209,-0.065 -0.309,-0.097 -0.13,-0.042 -0.261,-0.084 -0.392,-0.126 -0.155,-0.05 -0.312,-0.113 -0.47,-0.152 -0.053,-0.013 -0.108,-0.014 -0.161,-0.025 -0.062,-0.012 -0.121,-0.046 -0.182,-0.057 -0.05,-0.008 -0.168,-0.017 -0.211,0.005 -0.043,0.022 -0.043,0.066 -0.058,0.104 -0.021,0.054 -0.075,0.098 -0.109,0.146 -0.053,0.077 -0.101,0.165 -0.175,0.222 -0.013,0.011 -0.04,0.035 -0.07,0.059 0.092,0.124 0.173,0.257 0.232,0.398 0.085,0.199 0.213,0.373 0.276,0.58 0.032,0.104 0.114,0.177 0.166,0.269 0.056,0.099 0.075,0.211 0.124,0.313 0.094,0.195 0.139,0.408 0.278,0.584 0.1,0.128 0.206,0.249 0.311,0.372 0.068,0.078 0.176,0.154 0.222,0.245 0.034,0.067 0.038,0.093 0.104,0.135 0.054,0.036 0.112,0.052 0.175,0.068 0.16,0.041 0.314,0.065 0.412,-0.089 0.057,-0.09 0.062,-0.216 0.077,-0.316 0.014,-0.099 -0.013,-0.176 -0.023,-0.272 -0.009,-0.081 0.003,-0.148 0.011,-0.227 0.014,-0.134 0.015,-0.284 0.008,-0.418 -0.006,-0.13 -0.059,-0.246 -0.084,-0.37 -0.017,-0.083 -0.001,-0.177 -0.006,-0.262 -0.006,-0.082 0.001,-0.165 0.009,-0.247 0.015,-0.153 0.039,-0.314 0.085,-0.46 0.005,-0.016 0.01,-0.03 0.016,-0.044 -0.001,-0.001 -0.002,0 -0.002,-0.001 m -2.35,0.922 c -0.101,-0.057 -0.201,-0.085 -0.285,-0.166 -0.037,-0.036 -0.078,-0.064 -0.114,-0.1 -0.058,-0.057 -0.103,-0.125 -0.164,-0.178 -0.094,-0.082 -0.217,-0.159 -0.331,-0.208 -0.098,-0.042 -0.2,-0.064 -0.296,-0.113 -0.081,-0.042 -0.154,-0.089 -0.241,-0.118 -0.028,-0.009 -0.056,-0.015 -0.083,-0.028 -0.071,-0.035 -0.121,-0.102 -0.201,-0.116 -0.087,-0.016 -0.183,-0.025 -0.271,-0.033 -0.007,-10e-4 -0.017,0 -0.025,-10e-4 -0.021,0.05 -0.038,0.094 -0.071,0.137 -0.044,0.059 -0.098,0.115 -0.147,0.172 -0.114,0.134 -0.182,0.322 -0.276,0.474 -0.049,0.078 -0.082,0.152 -0.141,0.219 -0.033,0.037 -0.049,0.08 -0.082,0.118 -0.051,0.058 -0.117,0.101 -0.169,0.159 -0.057,0.064 -0.099,0.138 -0.165,0.194 -0.043,0.036 -0.039,0.023 -0.057,0.072 -0.054,0.146 -0.095,0.297 -0.143,0.445 -0.016,0.013 -0.039,0.011 -0.064,0.005 0.234,0.174 0.505,0.272 0.761,0.414 0.085,0.047 0.154,0.114 0.236,0.165 0.112,0.069 0.235,0.112 0.353,0.168 0.062,0.029 0.165,0.081 0.193,0.151 0.013,0.033 0.009,0.074 0.004,0.108 0.002,-0.014 -0.03,0.094 -0.028,0.101 0.018,0.091 0.178,0.137 0.251,0.16 0.162,0.05 0.274,0.087 0.394,0.205 -10e-4,0.004 0.096,0.118 0.099,0.119 0.021,0.007 0.029,-0.007 0.051,-0.004 0.067,0.01 0.091,-0.011 0.142,-0.056 0.073,-0.065 0.162,-0.104 0.223,-0.181 0.086,-0.111 0.068,-0.168 0.214,-0.157 0.034,0.002 0.068,0.019 0.1,0.022 0.104,0.008 0.239,-0.037 0.327,-0.058 0.14,-0.035 0.279,-0.057 0.408,-0.123 0.097,-0.05 0.053,-0.023 0.133,-0.015 0.096,0.01 0.252,-0.08 0.255,-0.186 10e-4,-0.04 -0.026,-0.088 -0.032,-0.13 -0.014,-0.115 -0.026,-0.218 -0.056,-0.33 -0.054,-0.2 -0.129,-0.387 -0.209,-0.578 -0.067,-0.159 -0.156,-0.311 -0.217,-0.472 -0.007,-0.019 -0.012,-0.037 -0.018,-0.056 -0.068,-0.083 -0.171,-0.151 -0.258,-0.201 m -2.708,1.857 c -0.081,0.066 -0.148,0.13 -0.243,0.168 -0.065,0.026 -0.131,0.044 -0.196,0.072 -0.088,0.037 -0.196,0.05 -0.274,0.109 -0.071,0.053 -0.148,0.102 -0.218,0.158 -0.078,0.062 -0.143,0.121 -0.234,0.167 -0.062,0.033 -0.161,0.097 -0.233,0.086 -0.003,0.058 0.047,0.118 0.082,0.165 0.022,0.031 0.04,0.066 0.06,0.097 0.02,0.031 0.053,0.052 0.072,0.084 0.041,0.069 0.077,0.183 0.091,0.262 0.012,0.067 0.014,0.125 0.053,0.185 0.016,0.025 0.026,0.051 0.037,0.077 0.002,-0.001 0.004,-0.001 0.005,-0.001 0.064,-0.023 0.127,-0.046 0.189,-0.072 0.069,-0.029 0.134,-0.038 0.205,-0.057 0.061,-0.025 0.123,-0.049 0.185,-0.072 0.061,-0.014 0.123,-0.022 0.185,-0.024 0.164,-0.021 0.32,0.001 0.484,-0.012 0.109,-0.008 0.187,-0.014 0.293,-0.002 0.1,0.011 0.196,-0.002 0.295,-0.007 0.105,-0.004 0.254,-0.002 0.34,-0.074 0.061,-0.05 0.073,-0.125 0.096,-0.196 0.032,-0.102 0.059,-0.204 0.104,-0.301 0.024,-0.053 0.036,-0.058 -0.007,-0.114 -0.077,-0.101 -0.223,-0.177 -0.329,-0.244 -0.047,-0.03 -0.09,-0.049 -0.136,-0.075 -0.077,-0.042 -0.134,-0.117 -0.213,-0.163 0.096,-0.053 0.06,-0.159 0.011,-0.231 -0.078,-0.117 -0.218,-0.2 -0.342,-0.258 -0.012,-0.006 -0.024,-0.009 -0.036,-0.014 -0.013,0.009 -0.025,0.017 -0.032,0.021 -0.033,0.022 -0.068,0.046 -0.102,0.073 -0.023,0.018 -0.058,0.035 -0.076,0.056 -0.041,0.046 -0.065,0.094 -0.116,0.137 m 2.44,7.32 c -0.035,0.048 -0.047,0.133 -0.066,0.191 -0.037,0.116 -0.08,0.214 -0.156,0.313 -0.043,0.055 -0.073,0.113 -0.127,0.158 -0.064,0.053 -0.161,0.079 -0.2,0.155 -0.024,0.045 -0.022,0.107 -0.046,0.154 -0.016,0.032 -0.02,0.027 -0.044,0.051 -0.052,0.053 -0.1,0.16 -0.166,0.195 -0.024,0.012 -0.051,0.004 -0.076,0.014 -0.039,0.016 -0.073,0.058 -0.101,0.087 -0.016,0.016 -0.028,0.034 -0.041,0.052 0.058,0.035 0.132,0.131 0.163,0.17 0.04,0.049 0.064,0.108 0.121,0.136 0.088,0.044 0.195,0.038 0.288,0.065 0.091,0.026 0.2,0.018 0.289,-10e-4 0.093,-0.019 0.189,-0.036 0.283,-0.056 0.094,-0.02 0.144,-0.045 0.214,0.022 0.026,0.024 0.039,0.041 0.067,0.063 0.041,0.033 0.08,0.036 0.123,0.059 0.028,0.015 0.044,0.039 0.072,0.054 0.034,0.018 0.083,0.026 0.121,0.037 0.059,0.019 0.158,0.045 0.156,0.124 0.064,-0.036 0.092,-0.13 0.129,-0.188 0.056,-0.089 0.115,-0.205 0.187,-0.28 C -7.806,7.861 -7.739,7.747 -7.649,7.683 -7.56,7.62 -7.448,7.49 -7.4,7.392 -7.362,7.312 -7.319,7.183 -7.236,7.133 -7.184,7.101 -7.111,7.096 -7.056,7.064 -6.944,6.997 -6.768,6.86 -6.738,6.725 -6.724,6.667 -6.744,6.61 -6.763,6.555 -6.776,6.52 -6.791,6.486 -6.804,6.451 -6.834,6.371 -6.864,6.284 -6.867,6.198 -6.869,6.121 -6.841,6.045 -6.86,5.968 -6.892,5.843 -6.954,5.732 -7.034,5.625 -7.101,5.533 -7.127,5.453 -7.152,5.343 -7.177,5.229 -7.225,5.033 -7.353,4.991 -7.389,5.074 -7.464,5.137 -7.544,5.183 -7.628,5.231 -7.685,5.194 -7.772,5.192 -7.833,5.191 -7.883,5.227 -7.947,5.217 -7.994,5.21 -7.99,5.209 -8.033,5.226 -8.118,5.259 -8.206,5.272 -8.275,5.335 -8.342,5.396 -8.392,5.455 -8.424,5.537 -8.456,5.62 -8.526,5.665 -8.568,5.741 -8.584,5.77 -8.586,5.808 -8.602,5.836 -8.619,5.866 -8.647,5.88 -8.669,5.906 -8.684,5.923 -8.716,5.96 -8.726,5.977 -8.744,6.006 -8.749,6.039 -8.767,6.07 -8.798,6.123 -8.852,6.169 -8.888,6.221 -8.937,6.29 -9.028,6.3 -9.077,6.371 m 0.723,2.339 c -0.028,0.095 -0.03,0.195 -0.013,0.294 0.024,0.133 0.043,0.253 0.024,0.384 -10e-4,0.012 10e-4,0.024 0,0.036 0.032,0.025 0.065,0.05 0.099,0.071 0.128,0.078 0.271,0.102 0.401,0.174 0.085,0.046 0.175,0.067 0.266,0.098 0.077,0.027 0.091,0.089 0.151,0.143 0.064,0.056 0.172,0.12 0.26,0.125 0.041,-0.061 0.077,-0.125 0.117,-0.18 0.031,-0.042 0.047,-0.11 0.081,-0.146 C -6.949,9.698 -6.93,9.687 -6.912,9.675 -6.901,9.654 -6.891,9.634 -6.88,9.613 -6.834,9.537 -6.781,9.459 -6.735,9.376 -6.691,9.297 -6.639,9.221 -6.601,9.139 -6.572,9.078 -6.561,9.012 -6.529,8.953 -6.483,8.867 -6.429,8.79 -6.398,8.695 -6.382,8.648 -6.36,8.62 -6.338,8.576 -6.316,8.535 -6.312,8.492 -6.293,8.452 -6.253,8.367 -6.194,8.301 -6.16,8.215 -6.134,8.149 -6.098,8.048 -6.046,7.988 -6.068,7.972 -6.093,7.964 -6.113,7.945 -6.132,7.926 -6.139,7.904 -6.158,7.884 -6.202,7.84 -6.244,7.809 -6.28,7.753 -6.317,7.695 -6.32,7.646 -6.345,7.591 -6.373,7.532 -6.398,7.481 -6.43,7.425 -6.465,7.363 -6.47,7.283 -6.497,7.218 -6.523,7.154 -6.558,7.097 -6.588,7.035 c -0.04,0.037 -0.089,0.074 -0.122,0.087 -0.065,0.026 -0.116,0 -0.168,0.052 -0.08,0.079 -0.168,0.15 -0.243,0.232 -0.095,0.104 -0.193,0.205 -0.321,0.277 -0.073,0.041 -0.135,0.089 -0.202,0.14 -0.074,0.055 -0.122,0.135 -0.174,0.198 -0.056,0.068 -0.107,0.144 -0.162,0.215 -0.069,0.089 -0.158,0.159 -0.228,0.247 -0.061,0.076 -0.12,0.137 -0.146,0.227 m 1.394,1.479 c 0.072,0.023 0.17,0.037 0.236,0.074 0.034,0.019 0.049,0.041 0.084,0.057 0.031,0.014 0.069,0.021 0.102,0.032 0.069,0.022 0.138,0.044 0.207,0.065 0.063,0.02 0.102,0.054 0.158,0.081 0.027,0.013 0.055,0.012 0.08,0.03 0.033,0.022 0.051,0.059 0.087,0.079 0.041,0.023 0.094,0.026 0.137,0.049 0.192,0.104 0.397,0.194 0.57,0.33 -0.04,-0.089 -0.089,-0.175 -0.138,-0.259 C -5.57,10.497 -5.609,10.243 -5.687,9.995 -5.737,9.834 -5.803,9.664 -5.883,9.517 -5.932,9.427 -6.003,9.224 -5.946,9.12 -5.911,9.057 -5.856,9.017 -5.819,8.959 -5.786,8.909 -5.773,8.85 -5.767,8.792 -5.807,8.782 -5.856,8.763 -5.88,8.746 -5.869,8.695 -5.873,8.671 -5.878,8.489 -5.888,8.452 -5.898,8.414 -5.903,8.376 -5.917,8.267 -5.948,8.09 -6.028,8.002 c 0,0.027 0,0.059 0,0.071 -0.001,0.035 0.016,0.06 -0.005,0.099 -0.03,0.053 -0.057,0.085 -0.077,0.148 -0.022,0.072 -0.046,0.145 -0.069,0.217 l -0.1,0.31 c -0.033,0.104 -0.052,0.234 -0.134,0.312 -0.08,0.076 -0.147,0.144 -0.187,0.253 -0.029,0.077 -0.065,0.13 -0.105,0.2 -0.033,0.057 -0.063,0.115 -0.1,0.17 -0.051,0.077 -0.07,0.18 -0.143,0.242 -0.069,0.059 -0.168,0.065 -0.252,0.089 0.081,0.024 0.16,0.05 0.24,0.076 m 0.7,-12.021 c -0.011,0.045 -0.031,0.086 -0.034,0.131 -0.009,0.102 0.007,0.209 0.014,0.309 0.005,0.075 0.054,0.128 0.087,0.19 0.034,0.064 0.053,0.118 0.097,0.174 0.064,0.083 0.089,0.168 0.196,0.212 0.107,0.045 0.257,0.044 0.373,0.045 0.041,0 0.102,0.009 0.142,-0.001 0.057,-0.015 0.102,-0.059 0.159,-0.078 0.076,-0.025 0.123,-0.069 0.124,-0.158 0,-0.049 -0.033,-0.094 -0.03,-0.145 10e-4,-0.033 0.01,-0.066 0.012,-0.098 0.007,-0.078 0.053,-0.183 0.001,-0.252 -0.101,-0.133 -0.225,-0.25 -0.328,-0.382 -0.028,-0.036 -0.069,-0.067 -0.102,-0.098 -0.035,-0.034 -0.056,-0.071 -0.09,-0.106 -0.053,-0.056 -0.087,-0.116 -0.132,-0.18 -0.074,-0.105 -0.176,-0.147 -0.276,-0.221 -0.077,-0.057 -0.101,-0.145 -0.153,-0.22 -0.033,-0.047 -0.071,-0.098 -0.107,-0.146 0.008,0.024 0.017,0.049 0.026,0.073 0.029,0.08 0.033,0.164 0.038,0.249 0.009,0.141 0.02,0.28 0.016,0.422 -0.002,0.094 -0.012,0.189 -0.033,0.28 m 2.383,6.678 c 0.022,0.103 0.071,0.198 0.103,0.299 0.021,0.071 0.025,0.125 0.061,0.191 0.08,0.149 0.135,0.307 0.194,0.464 0.001,0.002 0.002,0.004 0.003,0.006 0.025,-0.016 0.057,-0.039 0.078,-0.057 0.031,-0.027 0.034,-0.05 0.049,-0.09 0.018,-0.049 0.05,-0.083 0.071,-0.13 C -3.241,5.354 -3.2,5.155 -3.141,4.973 -3.133,4.946 -3.093,4.875 -3.105,4.847 -3.115,4.826 -3.245,4.776 -3.266,4.767 -3.383,4.714 -3.513,4.685 -3.636,4.646 -3.747,4.61 -3.859,4.574 -3.977,4.537 c 0.045,0.102 0.08,0.21 0.1,0.309 m 0.683,-2.734 c -0.002,0.086 -0.017,0.164 -0.014,0.253 0.003,0.076 0.02,0.139 0.064,0.197 0.031,0.042 0.072,0.108 0.119,0.135 0.084,0.048 0.199,0.012 0.291,0.021 0.1,0.01 0.174,0.038 0.281,0.028 0.067,-0.007 0.137,0 0.202,-0.019 0.169,-0.051 0.325,-0.13 0.5,-0.171 0.13,-0.031 0.264,-0.042 0.395,-0.072 0.076,-0.017 0.161,-0.05 0.24,-0.04 0.059,0.007 0.109,0.034 0.169,0.04 0.062,0.006 0.131,0.004 0.19,0.005 0.097,0.001 0.199,0.019 0.297,0.006 0.07,-0.01 0.135,-0.047 0.204,-0.054 0.029,-0.003 0.06,0.015 0.089,0.012 0.009,-10e-4 0.02,-0.006 0.031,-0.009 C -0.191,2.428 -0.214,2.379 -0.226,2.337 -0.238,2.298 -0.245,2.258 -0.251,2.219 -0.257,2.17 -0.272,2.13 -0.285,2.08 -0.328,1.921 -0.239,1.742 -0.236,1.581 -0.234,1.491 -0.216,1.393 -0.235,1.302 -0.242,1.268 -0.258,1.24 -0.267,1.204 -0.283,1.138 -0.301,1.07 -0.302,1.002 c 0,-0.108 -0.023,-0.214 0.012,-0.316 0.038,-0.11 0.065,-0.228 0.115,-0.334 -0.057,0.02 -0.114,0.039 -0.17,0.055 -0.107,0.031 -0.216,0.067 -0.32,0.105 -0.131,0.047 -0.245,0.12 -0.353,0.205 -0.09,0.071 -0.219,0.119 -0.329,0.155 C -1.427,0.897 -1.508,0.894 -1.59,0.91 -1.654,0.922 -1.677,0.952 -1.732,0.974 -1.749,0.981 -1.788,0.979 -1.806,0.981 -1.885,0.99 -1.955,1.034 -2.027,1.064 -2.1,1.094 -2.171,1.13 -2.244,1.16 -2.447,1.244 -2.661,1.253 -2.858,1.352 -2.925,1.385 -3.002,1.418 -3.065,1.458 -3.179,1.53 -3.221,1.595 -3.216,1.725 c 0.005,0.129 0.026,0.256 0.022,0.387 m -5.224,-8.854 c 0.101,-0.046 0.216,-0.052 0.322,-0.093 0.089,-0.034 0.179,-0.069 0.27,-0.104 0.066,-0.025 0.123,-0.042 0.183,-0.078 0.037,-0.022 0.079,-0.045 0.118,-0.06 0.033,-0.014 0.066,-0.024 0.1,-0.027 0.002,0 0.006,-0.001 0.009,-0.001 -0.063,-0.02 -0.127,-0.04 -0.19,-0.06 -0.095,-0.031 -0.191,-0.062 -0.287,-0.093 -0.042,-0.013 -0.103,-0.046 -0.147,-0.041 -0.058,0.006 -0.091,0.062 -0.129,0.099 -0.045,0.044 -0.054,0.067 -0.088,0.11 -0.033,0.041 -0.085,0.065 -0.126,0.097 -0.126,0.101 -0.227,0.217 -0.318,0.348 0.088,-0.045 0.195,-0.056 0.283,-0.097 m -2.575,9.581 c -0.085,0.013 -0.168,0.011 -0.253,0.029 -0.197,0.04 -0.393,0.042 -0.592,0.069 -0.114,0.015 -0.225,0.055 -0.342,0.062 -0.076,0.004 -0.148,-0.018 -0.224,-0.005 -0.05,0.008 -0.086,0.023 -0.138,0.023 -0.152,0.002 -0.299,-0.044 -0.452,-0.012 -0.132,0.029 -0.162,0.153 -0.26,0.232 -0.107,0.086 -0.244,0.098 -0.378,0.115 0.02,0.066 0.032,0.149 0.039,0.184 0.018,0.1 0.017,0.164 -0.016,0.257 -0.034,0.096 -0.05,0.208 -0.065,0.308 -0.026,0.173 -0.113,0.334 -0.141,0.505 -0.007,0.042 0.002,0.079 -0.009,0.121 -0.011,0.041 -0.036,0.082 -0.035,0.125 0.197,-0.028 0.422,-0.028 0.626,-0.014 0.101,0.008 0.186,0.026 0.281,0.057 0.115,0.037 0.252,0.033 0.372,0.028 0.039,-0.002 0.082,-0.022 0.12,-0.038 0.06,-0.025 0.124,-0.026 0.188,-0.05 0.122,-0.048 0.134,-0.084 0.193,-0.197 0.049,-0.095 0.103,-0.204 0.172,-0.287 0.015,-0.018 0.036,-0.043 0.059,-0.053 0.031,-0.014 0.051,0.001 0.08,-0.006 0.058,-0.014 0.12,-0.032 0.177,-0.049 0.052,-0.015 0.088,-0.049 0.142,-0.059 0.041,-0.007 0.105,0.007 0.14,-0.017 0.037,-0.025 0.063,-0.18 0.074,-0.212 0.012,-0.039 0.023,-0.078 0.037,-0.117 0.028,-0.078 0.076,-0.139 0.1,-0.221 0.028,-0.093 0.046,-0.181 0.102,-0.263 0.049,-0.073 0.108,-0.131 0.137,-0.216 0.036,-0.107 0.108,-0.227 0.14,-0.342 -0.1,0.003 -0.179,0.029 -0.274,0.043 m 0.944,2.867 c -0.03,0.025 -0.059,0.081 -0.078,0.116 -0.02,0.038 -0.038,0.059 -0.059,0.09 -0.002,0.002 -0.003,0.003 -0.004,0.005 0.042,-0.043 0.093,-0.082 0.129,-0.13 0.031,-0.041 0.061,-0.082 0.091,-0.122 -0.029,0.01 -0.057,0.022 -0.079,0.041 M 3.01,2.991 C 2.951,2.938 2.875,2.903 2.809,2.859 2.665,2.763 2.579,2.637 2.474,2.508 2.392,2.407 2.354,2.277 2.27,2.179 2.237,2.141 2.19,2.115 2.16,2.076 2.105,2.006 2.063,1.903 2.022,1.824 1.964,1.713 1.887,1.607 1.829,1.491 1.78,1.395 1.741,1.293 1.683,1.202 1.639,1.133 1.588,1.072 1.553,0.998 1.507,0.899 1.468,0.792 1.446,0.685 1.436,0.637 1.439,0.582 1.415,0.538 1.355,0.429 1.215,0.401 1.106,0.367 0.879,0.294 0.661,0.212 0.419,0.232 0.36,0.237 0.237,0.28 0.153,0.277 c 0,0.003 0,0.005 0,0.008 C 0.151,0.39 0.115,0.493 0.107,0.599 0.1,0.685 0.112,0.775 0.101,0.86 0.092,0.937 0.074,1.011 0.073,1.093 0.071,1.161 0.091,1.223 0.076,1.29 0.061,1.353 0.034,1.417 0.014,1.479 -0.031,1.618 -0.059,1.735 -0.063,1.883 -0.067,2.05 -0.066,2.23 -0.023,2.392 0.017,2.367 0.054,2.339 0.078,2.314 0.122,2.268 0.142,2.217 0.194,2.176 0.246,2.135 0.279,2.102 0.341,2.079 0.503,2.018 0.576,1.985 0.755,2.009 0.849,2.021 0.997,2.019 1.074,2.062 1.042,2.082 1.001,2.074 0.966,2.082 0.904,2.096 0.831,2.13 0.775,2.159 0.655,2.223 0.547,2.266 0.452,2.358 0.392,2.415 0.326,2.471 0.266,2.523 0.244,2.542 0.205,2.568 0.178,2.58 0.088,2.619 -0.05,2.658 -0.144,2.678 -0.389,2.733 -0.648,2.666 -0.892,2.653 -0.95,2.65 -0.997,2.669 -1.053,2.684 -1.164,2.716 -1.274,2.725 -1.38,2.776 -1.471,2.82 -1.529,2.846 -1.627,2.865 -1.816,2.903 -2.009,2.953 -2.192,3.013 -2.279,3.041 -2.28,3.055 -2.347,3.017 -2.386,2.995 -2.419,2.974 -2.464,2.956 c 0.082,0.041 0.14,0.121 0.202,0.182 0.093,0.089 0.174,0.217 0.225,0.335 0.031,0.072 0.022,0.151 0.015,0.228 -0.008,0.093 -0.004,0.162 0.015,0.256 0.022,0.109 0.083,0.169 0.142,0.261 0.033,0.051 0.057,0.108 0.09,0.159 0.06,0.09 0.156,0.209 0.174,0.321 0.007,0.048 0.003,0.096 0.011,0.145 0.015,0.094 0.028,0.178 0.025,0.274 C -1.569,5.265 -1.538,5.41 -1.566,5.555 -1.603,5.399 -1.717,5.271 -1.738,5.113 -1.747,5.04 -1.755,4.967 -1.78,4.897 -1.795,4.855 -1.823,4.818 -1.833,4.775 -1.846,4.724 -1.85,4.688 -1.874,4.638 -1.917,4.549 -1.946,4.445 -1.965,4.344 -1.98,4.273 -1.997,4.2 -1.998,4.127 -1.999,4.035 -2.03,3.981 -2.078,3.91 -2.182,3.754 -2.299,3.604 -2.409,3.449 -2.488,3.337 -2.608,3.267 -2.684,3.155 -2.733,3.083 -2.822,3.056 -2.903,3.054 -3.022,3.051 -3.118,3.071 -3.211,3.149 -3.272,3.2 -3.334,3.232 -3.406,3.273 -3.41,3.275 -3.413,3.278 -3.417,3.281 c 10e-4,0.006 0.003,0.013 0.003,0.019 0.003,0.1 0.017,0.221 0.073,0.31 0.034,0.055 0.074,0.098 0.12,0.142 0.084,0.082 0.14,0.166 0.206,0.262 0.08,0.116 0.096,0.26 0.156,0.388 0.047,0.101 0.07,0.193 0.094,0.3 0.044,0.193 0.079,0.388 0.11,0.583 C -2.654,5.293 -2.65,5.3 -2.648,5.308 -2.674,5.251 -2.688,5.193 -2.716,5.137 -2.757,5.054 -2.814,4.982 -2.852,4.896 -2.855,4.891 -2.858,4.886 -2.861,4.88 c -0.013,0.043 -0.027,0.085 -0.04,0.128 -0.028,0.083 -0.027,0.158 -0.049,0.239 -0.041,0.152 -0.1,0.291 -0.166,0.43 -0.052,0.109 -0.133,0.165 -0.254,0.163 -0.024,0 -0.044,-0.012 -0.068,-0.01 -0.016,0.002 -0.035,0.018 -0.053,0.02 -0.002,0.001 -0.004,0 -0.007,0 0.01,0.024 0.019,0.047 0.03,0.07 C -3.486,5.906 -3.505,5.892 -3.521,5.876 -3.531,5.867 -3.539,5.855 -3.548,5.844 -3.577,5.836 -3.604,5.827 -3.634,5.841 -3.609,5.832 -3.586,5.831 -3.564,5.826 -3.63,5.745 -3.682,5.644 -3.732,5.556 -3.801,5.437 -3.881,5.347 -3.955,5.236 -4.053,5.087 -4.17,4.93 -4.244,4.769 -4.282,4.689 -4.306,4.618 -4.373,4.555 -4.445,4.486 -4.507,4.412 -4.573,4.334 -4.664,4.228 -4.857,4.19 -4.992,4.155 -5.072,4.134 -5.141,4.13 -5.207,4.177 -5.259,4.214 -5.259,4.222 -5.319,4.225 -5.423,4.231 -5.463,4.268 -5.56,4.317 -5.622,4.349 -5.691,4.375 -5.752,4.409 -5.766,4.417 -5.789,4.44 -5.805,4.445 -5.922,4.479 -6.069,4.396 -6.186,4.437 c -0.031,0.01 -0.045,0.042 -0.072,0.06 -0.063,0.041 -0.151,0.049 -0.219,0.074 -0.057,0.02 -0.097,0.034 -0.153,0.048 -0.052,0.012 -0.085,0.05 -0.141,0.031 -0.014,0.091 0.026,0.203 0.045,0.292 0.008,0.038 0.022,0.075 0.019,0.114 -0.002,0.018 -0.014,0.031 -0.014,0.051 0.001,0.027 0.02,0.062 0.023,0.09 0.004,0.032 0.004,0.058 0.013,0.09 0.004,0.012 0.008,0.022 0.011,0.033 0.103,0.095 0.188,0.141 0.244,0.209 0.024,0.028 0.046,0.058 0.069,0.087 C -6.444,5.617 -6.526,5.611 -6.595,5.554 -6.603,5.547 -6.61,5.54 -6.618,5.533 c 0.002,0.01 0.006,0.018 0.006,0.029 0.004,0.05 -0.009,0.088 0.002,0.137 0.024,0.107 0.033,0.243 0.072,0.345 0.047,0.12 0.133,0.221 0.182,0.341 0.029,0.071 0.034,0.14 0.044,0.216 0.018,0.133 -0.01,0.261 0.013,0.395 0.016,0.096 0.037,0.19 0.052,0.286 0.03,-0.009 0.066,-0.028 0.235,-0.052 0.038,10e-4 0.071,-0.022 0.108,-0.032 C -5.86,7.187 -5.815,7.185 -5.772,7.17 -5.695,7.144 -5.612,7.12 -5.536,7.09 -5.498,7.074 -5.427,7.054 -5.395,7.031 -5.373,7.016 -5.35,6.974 -5.329,6.953 -5.305,6.929 -5.281,6.901 -5.256,6.873 -5.167,6.775 -5.029,6.796 -4.966,6.678 -4.9,6.688 -4.826,6.673 -4.76,6.669 -4.641,6.66 -4.521,6.649 -4.4,6.644 -4.357,6.642 -4.313,6.646 -4.267,6.65 -4.32,6.621 -4.374,6.568 -4.41,6.544 -4.514,6.477 -4.596,6.393 -4.706,6.332 -4.815,6.27 -4.93,6.185 -5.046,6.145 -5.127,6.117 -5.215,6.101 -5.292,6.064 -5.365,6.03 -5.425,5.994 -5.503,5.971 -5.657,5.924 -5.821,5.961 -5.975,5.904 -6.072,5.869 -6.159,5.799 -6.242,5.738 -6.288,5.705 -6.325,5.661 -6.361,5.616 c 0.055,-10e-4 0.111,-0.005 0.165,0 0.07,0.007 0.112,0.001 0.179,0.023 0.114,0.038 0.229,0.074 0.343,0.111 0.407,0.13 0.827,0.247 1.16,0.528 0.065,0.055 0.134,0.067 0.203,0.109 0.034,0.02 0.065,0.055 0.092,0.079 0.049,0.046 0.105,0.057 0.129,0.131 -0.024,0.017 -0.048,0.044 -0.074,0.06 0.037,0.002 0.073,0.003 0.108,0 0.046,-0.005 0.071,-0.028 0.101,-0.052 0.092,-0.143 0.124,-0.188 0.153,-0.176 0.042,0.017 0.002,0.056 -0.003,0.083 -10e-4,0.01 0,0.021 -10e-4,0.031 0,0 0,0 0,0 0.037,-0.006 0.075,0.002 0.109,-0.006 0.047,-0.011 0.034,-0.027 0.087,-0.015 0.03,0.006 0.058,0.025 0.089,0.027 0.035,0.002 0.069,-0.018 0.102,-0.016 0.075,0.004 0.128,0.08 0.188,0.111 0.009,0.005 0.021,0.01 0.033,0.015 C -3.224,6.673 -3.25,6.687 -3.277,6.7 -3.331,6.725 -3.393,6.738 -3.453,6.734 -3.543,6.729 -3.624,6.664 -3.712,6.656 -3.746,6.653 -3.776,6.66 -3.804,6.671 c 0.009,0.081 0.026,0.165 0.026,0.241 0,0.047 -0.005,0.084 0.002,0.13 0.027,0.154 0.139,0.275 0.189,0.422 0.043,0.126 0.057,0.281 0.019,0.409 -0.03,0.103 -0.069,0.171 -0.048,0.278 0.02,0.101 0.015,0.181 0.071,0.273 0.043,0.07 0.052,0.162 0.127,0.196 0.091,0.042 0.194,0.046 0.29,0.067 0.136,0.029 0.304,0.077 0.43,0.133 0.045,0.021 0.075,0.052 0.122,0.07 0.084,0.033 0.174,0.055 0.26,0.083 0.056,0.017 0.118,0.028 0.169,0.058 0.038,0.023 0.065,0.058 0.099,0.083 0.148,0.108 0.34,0.177 0.516,0.223 0.221,0.058 0.458,0.111 0.684,0.144 0.312,0.047 0.616,0.126 0.921,0.203 0.076,0.019 0.153,0.019 0.228,0.043 0.036,0.011 0.068,0.025 0.107,0.029 0.095,0.008 0.173,0.044 0.267,0.064 0.24,0.052 0.493,0.056 0.732,0.123 0.181,0.05 0.403,0.113 0.562,0.215 0.022,0.014 0.039,0.034 0.065,0.042 C 1.93,10.163 1.807,10.109 1.697,10.098 1.669,10.095 1.661,10.104 1.63,10.098 1.604,10.093 1.578,10.081 1.554,10.073 1.477,10.047 1.399,10.045 1.322,10.027 1.228,10.005 1.132,9.992 1.035,9.983 0.874,9.968 0.711,9.928 0.551,9.898 0.358,9.86 0.173,9.827 -0.014,9.765 -0.166,9.715 -0.312,9.694 -0.468,9.674 -0.636,9.652 -0.803,9.563 -0.966,9.515 -1.189,9.45 -1.424,9.428 -1.645,9.355 -1.788,9.308 -1.933,9.262 -2.077,9.216 -2.347,9.13 -2.634,9.004 -2.917,8.966 -3.036,8.95 -3.15,8.958 -3.263,8.92 -3.312,8.903 -3.387,8.863 -3.438,8.868 -3.465,8.924 -3.494,8.978 -3.523,9.033 -3.56,9.107 -3.629,9.167 -3.668,9.24 -3.704,9.308 -3.721,9.344 -3.779,9.405 -3.816,9.445 -3.844,9.488 -3.877,9.531 -3.922,9.59 -3.946,9.659 -3.992,9.717 -4.034,9.77 -4.074,9.828 -4.116,9.879 -4.152,9.921 -4.193,9.964 -4.23,10.003 -4.272,10.048 -4.322,10.118 -4.375,10.145 -4.378,10.002 -4.266,9.857 -4.22,9.73 -4.181,9.624 -4.157,9.565 -4.084,9.471 -3.992,9.356 -3.905,9.226 -3.805,9.124 -3.73,9.048 -3.636,9.037 -3.555,8.97 -3.496,8.921 -3.482,8.916 -3.474,8.838 -3.468,8.781 -3.461,8.742 -3.468,8.688 -3.472,8.658 -3.461,8.656 -3.472,8.625 -3.487,8.583 -3.512,8.544 -3.527,8.5 -3.54,8.459 -3.553,8.418 -3.567,8.378 -3.595,8.301 -3.661,8.237 -3.674,8.156 -3.681,8.109 -3.679,8.067 -3.68,8.025 c -0.016,0.034 -0.034,0.068 -0.052,0.09 -0.027,0.035 -0.074,0.066 -0.105,0.097 -0.054,0.054 -0.103,0.081 -0.17,0.119 -0.118,0.068 -0.268,0.125 -0.365,0.22 -0.01,0.009 -0.016,0.018 -0.024,0.026 0.005,-0.007 0.009,-0.015 0.014,-0.022 0.055,-0.071 0.116,-0.16 0.195,-0.206 0.064,-0.037 0.126,-0.088 0.18,-0.135 0.063,-0.054 0.104,-0.137 0.169,-0.186 0.039,-0.031 0.071,-0.059 0.11,-0.095 0.008,-0.008 0.017,-0.014 0.026,-0.02 0,0 0,-0.001 -10e-4,-0.001 -0.079,-0.18 -0.161,-0.31 -0.163,-0.507 -10e-4,-0.13 0.044,-0.25 0.01,-0.376 C -3.872,6.971 -3.882,6.911 -3.89,6.851 -3.896,6.805 -3.901,6.778 -3.93,6.739 -3.933,6.735 -3.937,6.732 -3.94,6.728 -4.054,6.771 -4.172,6.8 -4.295,6.804 -4.356,6.805 -4.4,6.82 -4.461,6.814 -4.519,6.808 -4.574,6.798 -4.626,6.803 c -0.053,0.004 -0.093,0.028 -0.146,0.038 -0.023,0.004 -0.05,0.002 -0.072,0.009 -0.05,0.015 -0.076,0.059 -0.123,0.077 -0.072,0.029 -0.12,0.038 -0.184,0.093 -0.06,0.052 -0.148,0.091 -0.213,0.135 -0.117,0.079 -0.229,0.167 -0.36,0.223 -0.094,0.041 -0.175,0.095 -0.275,0.121 -0.06,0.015 -0.131,0.05 -0.194,0.035 0.04,0.064 0.102,0.123 0.138,0.185 0.022,0.037 0.046,0.074 0.067,0.111 0.029,0.049 0.061,0.114 0.075,0.17 0.014,0.056 0.015,0.112 0.04,0.167 0.047,0.108 0.129,0.239 0.145,0.365 0.053,0.04 0.105,0.067 0.167,0.104 0.121,0.072 0.236,0.092 0.375,0.113 0.063,0.009 0.136,0.027 0.199,0.022 0.09,-0.007 0.129,-0.053 0.218,-0.027 0.056,0.017 0.094,0.014 0.148,0.018 0.019,0.002 0.038,0.023 0.059,0.017 0.033,-0.01 0.042,-0.061 0.059,-0.083 0.016,-0.021 0.037,-0.035 0.056,-0.052 -0.006,0.01 -0.012,0.018 -0.019,0.03 C -4.481,8.699 -4.504,8.715 -4.518,8.741 -4.53,8.764 -4.526,8.796 -4.54,8.819 -4.555,8.844 -4.591,8.886 -4.61,8.907 -4.65,8.95 -4.721,8.949 -4.775,8.938 -4.917,8.909 -5.062,8.845 -5.199,8.801 -5.269,8.779 -5.331,8.762 -5.4,8.758 -5.453,8.754 -5.467,8.762 -5.514,8.776 -5.536,8.783 -5.577,8.79 -5.619,8.795 c 0.028,0.062 0.05,0.127 0.072,0.191 0.014,0.04 0.029,0.061 0.029,0.101 -0.001,0.039 -0.017,0.092 -0.022,0.133 -0.013,0.112 -0.066,0.211 -0.078,0.324 -0.01,0.1 -0.03,0.217 -0.008,0.317 0.018,0.083 0.084,0.166 0.118,0.244 0.028,0.064 0.042,0.129 0.082,0.186 0.04,0.057 0.09,0.096 0.124,0.16 0.046,0.09 0.086,0.183 0.134,0.272 0.066,0.125 0.058,0.288 0.104,0.422 0.073,0.213 0.097,0.435 0.125,0.655 0.01,0.079 0.052,0.147 0.079,0.222 0.018,0.049 0.043,0.105 0.049,0.156 0.005,0.033 -0.001,0.067 0.005,0.102 0.027,0.142 0.037,0.286 0.064,0.427 0.015,0.076 0.018,0.145 0.013,0.222 -0.004,0.064 0.009,0.134 0.004,0.196 -0.032,-0.091 -0.071,-0.18 -0.109,-0.27 -0.044,-0.105 -0.094,-0.213 -0.126,-0.321 -0.027,-0.09 -0.038,-0.182 -0.068,-0.271 -0.033,-0.102 -0.083,-0.2 -0.101,-0.306 -0.019,-0.108 -0.027,-0.219 -0.036,-0.327 -0.013,-0.145 -0.03,-0.294 -0.061,-0.436 -0.011,-0.054 -0.03,-0.106 -0.051,-0.158 -0.106,-0.035 -0.213,-0.064 -0.317,-0.102 -0.114,-0.042 -0.218,-0.1 -0.335,-0.136 -0.055,-0.018 -0.111,-0.029 -0.157,-0.062 -0.067,-0.048 -0.109,-0.127 -0.185,-0.162 -0.019,-0.009 -0.067,-0.023 -0.088,-0.021 -0.023,0.002 -0.044,0.025 -0.062,0.026 -0.09,0.008 -0.257,-0.074 -0.332,-0.121 C -6.908,10.359 -7.057,10.22 -7.23,10.157 -7.333,10.12 -7.423,10.103 -7.511,10.032 -7.626,9.939 -7.775,9.883 -7.906,9.801 -7.985,9.752 -8.054,9.727 -8.142,9.698 -8.187,9.684 -8.249,9.675 -8.287,9.647 -8.286,9.639 -8.285,9.632 -8.285,9.625 L -8.318,9.581 c 0.031,0.072 0.013,0.123 0.01,0.205 -10e-4,0.05 -0.019,0.063 0.019,0.111 0.02,0.024 0.046,0.04 0.064,0.066 0.02,0.031 0.029,0.065 0.051,0.094 0.055,0.07 0.117,0.139 0.172,0.209 0.092,0.116 0.184,0.229 0.283,0.339 0.03,0.034 0.096,0.093 0.092,0.147 -0.062,-0.014 -0.111,-0.065 -0.164,-0.098 -0.049,-0.03 -0.094,-0.051 -0.134,-0.091 -0.079,-0.079 -0.118,-0.189 -0.193,-0.267 -0.068,-0.073 -0.155,-0.125 -0.217,-0.205 -0.049,-0.062 -0.085,-0.161 -0.142,-0.213 -0.119,0.044 -0.247,0.084 -0.374,0.096 -0.076,0.007 -0.141,0.025 -0.206,0.061 -0.045,0.025 -0.084,0.035 -0.129,0.057 -0.083,0.041 -0.141,0.107 -0.238,0.124 -0.097,0.018 -0.212,0.068 -0.309,0.034 0.118,-0.013 0.211,-0.035 0.304,-0.106 0.106,-0.079 0.235,-0.113 0.333,-0.206 0.085,-0.081 0.155,-0.206 0.274,-0.236 0.066,-0.016 0.129,0.014 0.19,0.034 0.023,0.008 0.067,0.033 0.091,0.028 C -8.517,9.761 -8.435,9.7 -8.415,9.678 -8.364,9.621 -8.403,9.514 -8.428,9.438 L -8.512,9.329 c 0.023,0.011 0.045,0.02 0.065,0.03 C -8.49,9.149 -8.465,8.968 -8.399,8.763 -8.378,8.698 -8.356,8.635 -8.351,8.572 -8.349,8.537 -8.342,8.472 -8.356,8.437 -8.396,8.341 -8.574,8.36 -8.659,8.355 -8.726,8.352 -8.794,8.325 -8.862,8.318 -8.905,8.314 -8.942,8.292 -8.984,8.288 -9.029,8.282 -9.067,8.286 -9.112,8.273 -9.209,8.244 -9.335,8.206 -9.438,8.226 -9.485,8.236 -9.533,8.281 -9.584,8.283 -9.651,8.286 -9.682,8.245 -9.727,8.214 -9.776,8.179 -9.83,8.153 -9.877,8.111 -9.909,8.082 -9.947,8.064 -9.978,8.035 -10.009,8.007 -10.02,7.968 -10.043,7.934 c -0.023,-0.032 -0.078,-0.089 -0.095,-0.141 -0.007,0.011 -0.014,0.022 -0.023,0.033 -0.022,0.028 -0.056,0.042 -0.077,0.07 -0.014,0.018 -0.014,0.046 -0.025,0.067 -0.014,0.027 -0.038,0.039 -0.057,0.06 -0.03,0.031 -0.046,0.078 -0.084,0.108 -0.031,0.026 -0.073,0.042 -0.105,0.065 -0.061,0.044 -0.091,0.107 -0.143,0.156 -0.102,0.094 -0.184,0.214 -0.28,0.313 -0.003,-0.056 0,-0.052 0.049,-0.088 0.031,-0.022 0.067,-0.059 0.091,-0.087 0.149,-0.18 0.218,-0.425 0.39,-0.586 0.129,-0.121 0.247,-0.242 0.342,-0.393 0.017,-0.027 0.032,-0.055 0.048,-0.083 -0.008,-0.003 -0.015,-0.007 -0.02,-0.008 -0.065,-0.023 -0.131,-0.042 -0.197,-0.063 -0.121,-0.039 -0.22,-0.068 -0.317,-0.149 -0.044,-0.036 -0.077,-0.087 -0.132,-0.11 -0.03,-0.012 -0.062,-0.012 -0.091,-0.028 -0.085,-0.047 -0.153,-0.131 -0.223,-0.196 -0.072,-0.065 -0.146,-0.105 -0.223,-0.16 -0.023,-0.017 -0.063,-0.039 -0.095,-0.063 0.036,0.025 0.086,0.051 0.105,0.06 0.042,0.018 0.091,0.02 0.132,0.039 0.119,0.055 0.194,0.157 0.285,0.247 0.092,0.092 0.257,0.182 0.391,0.19 0.13,0.007 0.241,-0.051 0.375,-0.015 0.067,0.018 0.1,0.009 0.159,0.024 0,0.001 -0.001,0.002 -0.001,0.003 0.001,-10e-4 0.001,-0.002 0.002,-0.003 0,0 0,0 -10e-4,0 0.006,-0.009 0.013,-0.016 0.019,-0.02 0.009,-0.009 0.016,-0.019 0.025,-0.027 0.08,-0.073 0.131,-0.146 0.198,-0.231 0.112,-0.141 0.234,-0.263 0.37,-0.38 C -9.204,6.497 -9.2,6.475 -9.182,6.42 -9.153,6.328 -9.096,6.241 -9.048,6.157 -9.015,6.098 -8.974,6.078 -8.991,6.01 -9.005,5.957 -9.06,5.893 -9.087,5.848 -9.143,5.752 -9.22,5.676 -9.284,5.584 -9.295,5.567 -9.308,5.542 -9.32,5.515 -9.343,5.561 -9.366,5.604 -9.384,5.662 -9.412,5.746 -9.428,5.875 -9.48,5.947 -9.495,5.945 -9.51,5.943 -9.525,5.942 c -0.011,0.014 -0.033,0.052 -0.03,0.071 0.006,0.04 0.015,0.022 0.043,0.04 0.067,0.042 0.119,0.063 0.174,0.127 0.036,0.043 0.087,0.142 0.1,0.197 0.014,0.06 -0.022,0.121 -0.069,0.157 C -9.347,6.52 -9.352,6.494 -9.369,6.462 -9.406,6.388 -9.439,6.388 -9.508,6.328 -9.542,6.296 -9.572,6.262 -9.597,6.224 -9.612,6.216 -9.626,6.209 -9.64,6.202 -9.662,6.179 -9.704,6.135 -9.709,6.101 -9.715,6.057 -9.704,6.063 -9.672,6.033 -9.613,5.977 -9.584,5.937 -9.559,5.859 -9.522,5.747 -9.486,5.633 -9.367,5.462 -9.375,5.466 -9.384,5.47 -9.393,5.475 -9.446,5.506 -9.496,5.542 -9.551,5.569 -9.591,5.588 -9.634,5.6 -9.678,5.61 c -0.035,0.018 -0.071,0.036 -0.109,0.053 -0.18,0.083 -0.34,0.188 -0.466,0.345 0.007,-0.019 0.018,-0.035 0.03,-0.051 -0.031,0.03 -0.064,0.049 -0.113,0.068 -0.036,0.014 -0.089,0.019 -0.12,0.039 -0.029,0.018 -0.024,0.05 -0.066,0.053 -0.042,0.004 -0.06,-0.039 -0.097,-0.039 -0.039,0 -0.09,0.046 -0.12,0.067 -0.077,0.053 -0.163,0.093 -0.241,0.141 -0.086,0.054 -0.176,0.099 -0.269,0.145 -0.031,0.016 -0.049,0.03 -0.077,0.051 -0.047,0.035 -0.102,0.055 -0.159,0.076 -0.083,0.03 -0.161,0.073 -0.249,0.101 -0.107,0.033 -0.212,0.077 -0.319,0.111 -0.036,0.012 -0.065,0.027 -0.099,0.042 -0.094,0.043 -0.239,0.073 -0.313,0.143 -0.047,0.043 -0.053,0.059 -0.123,0.081 -0.054,0.018 -0.104,0.033 -0.154,0.058 -0.089,0.044 -0.175,0.087 -0.259,0.138 -0.108,0.067 -0.224,0.122 -0.339,0.174 -0.112,0.052 -0.213,0.128 -0.32,0.191 -0.101,0.06 -0.195,0.13 -0.297,0.19 -0.065,0.039 -0.133,0.071 -0.199,0.107 -0.181,0.101 -0.33,0.238 -0.519,0.327 -0.113,0.053 -0.224,0.12 -0.341,0.164 -0.058,0.022 -0.118,0.027 -0.176,0.047 -0.066,0.023 -0.126,0.064 -0.191,0.09 -0.039,0.016 -0.085,0.032 -0.132,0.049 0.016,-0.009 0.031,-0.017 0.048,-0.026 0.041,-0.022 0.085,-0.056 0.125,-0.081 0.039,-0.024 0.041,-0.048 0.071,-0.076 0.043,-0.042 0.159,-0.058 0.213,-0.076 0.119,-0.037 0.218,-0.122 0.338,-0.164 0.375,-0.13 0.691,-0.376 1.025,-0.586 0.135,-0.084 0.296,-0.163 0.442,-0.237 0.096,-0.048 0.183,-0.112 0.272,-0.171 0.073,-0.047 0.14,-0.092 0.212,-0.136 0.08,-0.049 0.18,-0.151 0.275,-0.159 0.026,-0.002 0.047,0.019 0.074,0.014 0.017,-0.008 0.031,-0.019 0.044,-0.032 0.014,0 0.028,10e-4 0.042,0.002 0.05,-0.022 0.095,-0.053 0.146,-0.075 0.088,-0.039 0.169,-0.108 0.255,-0.155 0.057,-0.031 0.138,-0.067 0.187,-0.105 0.117,-0.09 0.252,-0.168 0.365,-0.269 0.135,-0.12 0.292,-0.172 0.447,-0.26 0.041,-0.023 0.095,-0.044 0.116,-0.089 0.048,0.012 0.157,-0.011 0.2,-0.021 0.101,-0.023 0.186,-0.06 0.264,-0.119 0.057,-0.042 0.104,-0.096 0.163,-0.138 0.05,-0.035 0.105,-0.064 0.155,-0.095 C -9.968,5.477 -9.899,5.414 -9.845,5.36 -9.783,5.297 -9.736,5.264 -9.66,5.219 -9.589,5.176 -9.525,5.124 -9.463,5.07 -9.436,5.012 -9.415,4.953 -9.385,4.894 -9.34,4.806 -9.273,4.726 -9.246,4.63 -9.229,4.57 -9.247,4.518 -9.25,4.456 -9.256,4.362 -9.248,4.286 -9.273,4.192 -9.332,3.978 -9.479,3.815 -9.56,3.613 -9.588,3.541 -9.612,3.446 -9.6,3.369 -9.592,3.319 -9.561,3.273 -9.556,3.221 -9.544,3.109 -9.604,3.031 -9.656,2.939 -9.673,2.909 -9.68,2.883 -9.709,2.864 -9.752,2.858 -9.796,2.851 -9.839,2.844 -9.93,2.828 -10.021,2.816 -10.112,2.81 c -0.065,-0.007 -0.1,-0.026 -0.165,-0.026 -0.145,0.002 -0.293,0.008 -0.438,0.012 -0.005,0.048 -0.005,0.098 -0.01,0.132 -0.02,0.147 -0.059,0.307 -0.101,0.451 -0.036,0.121 -0.079,0.24 -0.117,0.361 -0.033,0.102 -0.06,0.202 -0.115,0.295 -0.034,0.059 -0.055,0.158 -0.105,0.199 -0.023,0.018 -0.049,0.004 -0.061,0.038 0.092,0.071 0.213,0.11 0.31,0.174 0.052,0.035 0.103,0.064 0.156,0.096 0.085,0.051 0.145,0.133 0.216,0.201 0.039,0.037 0.081,0.079 0.124,0.112 0.093,0.072 0.213,0.105 0.299,0.188 0.059,0.058 0.165,0.116 0.203,0.191 -0.049,0.065 -0.216,-0.121 -0.245,-0.138 -0.088,-0.052 -0.206,-0.07 -0.302,-0.115 -0.14,-0.066 -0.305,-0.089 -0.433,-0.18 -0.076,-0.055 -0.126,-0.126 -0.202,-0.18 -0.087,-0.063 -0.147,-0.154 -0.24,-0.211 -0.188,-0.114 -0.417,0.06 -0.53,0.205 -0.058,0.075 -0.127,0.141 -0.186,0.216 -0.058,0.074 -0.09,0.132 -0.169,0.18 -0.045,0.027 -0.144,0.074 -0.187,0.085 0.041,0.029 0.066,0.093 0.085,0.138 0.027,0.064 0.052,0.11 0.097,0.164 0.062,0.072 0.098,0.18 0.1,0.274 10e-4,0.048 0.013,0.098 0.013,0.144 0,0.031 -0.014,0.061 -0.019,0.092 -0.011,0.071 -0.007,0.152 -10e-4,0.225 0.008,0.122 0.036,0.264 -0.002,0.385 0.026,-0.124 -0.078,-0.243 -0.113,-0.354 -0.027,-0.088 -0.049,-0.183 -0.072,-0.273 -0.024,-0.093 -0.075,-0.18 -0.1,-0.272 -0.009,-0.036 0.001,-0.079 -0.012,-0.113 -0.016,-0.041 -0.05,-0.075 -0.068,-0.116 -0.04,-0.093 -0.089,-0.253 -0.181,-0.299 -0.074,-0.037 -0.145,-0.024 -0.223,-0.021 -0.111,0.005 -0.208,-0.03 -0.312,-0.065 -0.088,-0.03 -0.162,-0.017 -0.256,-0.007 -0.156,0.017 -0.323,0.075 -0.479,0.022 -0.094,-0.032 -0.138,-0.034 -0.23,0.008 -0.065,0.029 -0.121,0.055 -0.193,0.058 -0.058,0.003 -0.102,-0.02 -0.16,-0.028 -0.067,-0.009 -0.139,0.016 -0.207,0.015 -0.101,-0.001 -0.196,0.011 -0.296,0.007 -0.09,-0.004 -0.36,-0.005 -0.33,-0.151 0.019,-0.096 0.085,-0.01 0.124,0.013 0.098,0.058 0.235,0.059 0.345,0.054 0.109,-0.006 0.222,0.013 0.327,-0.001 0.067,-0.009 0.16,-0.069 0.227,-0.05 0.064,-0.122 0.203,-0.163 0.291,-0.259 0.025,-0.027 0.027,-0.036 0.043,-0.074 0.019,-0.047 0.062,-0.073 0.088,-0.113 0.034,-0.054 0.05,-0.132 0.068,-0.193 0.029,-0.097 0.046,-0.222 0.041,-0.323 -0.001,-0.034 -0.019,-0.078 -0.02,-0.118 0,-0.04 0.001,-0.078 0.003,-0.117 0.005,-0.078 0.035,-0.151 0.059,-0.226 0.015,-0.048 0.027,-0.102 0.043,-0.154 -0.067,0.012 -0.132,0.032 -0.19,0.069 -0.014,-0.008 -0.022,-0.022 -0.029,-0.037 -0.047,0.042 -0.089,0.09 -0.138,0.128 -0.05,0.038 -0.141,0.066 -0.2,0.088 -0.048,0.018 -0.094,0.042 -0.141,0.06 -0.034,0.013 -0.069,0.013 -0.103,0.024 -0.015,0.005 -0.027,0.025 -0.04,0.029 -0.031,0.008 -0.044,10e-4 -0.074,0.016 -0.027,0.012 -0.046,0.031 -0.077,0.04 -0.067,0.019 -0.143,0.027 -0.213,0.044 -0.085,0.021 -0.189,0.027 -0.258,0.08 -0.079,0.062 -0.146,0.136 -0.196,0.217 -0.017,0.028 -0.028,0.028 -0.051,0.051 -0.037,0.037 -0.055,0.091 -0.09,0.13 -0.075,0.083 -0.18,0.156 -0.273,0.216 -0.129,0.083 -0.255,0.19 -0.377,0.285 -0.14,0.111 -0.287,0.212 -0.453,0.286 -0.065,0.03 -0.137,0.067 -0.204,0.09 -0.056,0.02 -0.126,0.037 -0.19,0.056 -0.081,0.024 -0.181,0.051 -0.247,0.109 -0.014,0.013 -0.02,0.036 -0.033,0.047 -0.017,0.014 -0.04,0.012 -0.055,0.024 -0.03,0.024 -0.052,0.075 -0.081,0.104 -0.064,0.065 -0.115,0.15 -0.167,0.226 -0.046,0.067 -0.107,0.13 -0.212,0.219 0.009,-0.02 0.018,-0.04 0.027,-0.059 0.026,-0.031 0.051,-0.064 0.074,-0.097 0.072,-0.113 0.151,-0.211 0.218,-0.331 0.045,-0.079 0.109,-0.143 0.177,-0.205 0.09,-0.083 0.204,-0.195 0.319,-0.24 0.077,-0.029 0.128,-0.053 0.195,-0.099 0.034,-0.023 0.067,-0.038 0.106,-0.053 0.074,-0.029 0.117,-0.072 0.18,-0.116 0.076,-0.053 0.172,-0.106 0.256,-0.147 0.029,-0.013 0.045,-0.024 0.071,-0.042 0.059,-0.039 0.125,-0.044 0.184,-0.081 0.037,-0.023 0.06,-0.06 0.094,-0.084 0.03,-0.02 0.054,-0.023 0.083,-0.047 0.065,-0.057 0.122,-0.133 0.185,-0.191 0.024,-0.022 0.045,-0.042 0.067,-0.07 0.069,-0.087 0.158,-0.169 0.245,-0.237 0.168,-0.129 0.326,-0.283 0.524,-0.365 0.099,-0.041 0.19,-0.081 0.296,-0.095 0.087,-0.012 0.177,-0.006 0.263,-0.028 0.088,-0.022 0.176,-0.038 0.263,-0.064 -0.024,-0.037 -0.05,-0.074 -0.079,-0.105 -0.068,-0.073 -0.149,-0.135 -0.217,-0.21 -0.079,-0.089 -0.139,-0.197 -0.195,-0.301 -0.059,-0.107 -0.125,-0.203 -0.197,-0.301 -0.038,-0.05 -0.071,-0.104 -0.113,-0.151 -0.047,-0.051 -0.104,-0.092 -0.148,-0.145 -0.04,-0.047 -0.064,-0.102 -0.095,-0.154 -0.072,-0.118 -0.162,-0.223 -0.245,-0.333 -0.24,-0.316 -0.483,-0.633 -0.676,-0.98 0.23,0.289 0.469,0.569 0.683,0.871 0.084,0.119 0.131,0.256 0.219,0.372 0.089,0.118 0.192,0.224 0.294,0.33 0.184,0.19 0.375,0.382 0.544,0.585 0.085,0.102 0.171,0.203 0.26,0.299 0.032,0.034 0.052,0.044 0.099,0.059 0.042,0.012 0.084,0.025 0.126,0.038 0.034,0.008 0.061,0.026 0.083,0.051 0.03,0.008 0.1,0.008 0.131,-10e-4 0.044,-0.013 0.059,-0.033 0.095,-0.066 0.085,-0.079 0.146,-0.173 0.263,-0.208 0.132,-0.04 0.274,-0.059 0.411,-0.075 0.19,-0.023 0.383,-0.065 0.575,-0.073 -0.016,-0.06 0.006,-0.099 0.016,-0.157 0.01,-0.067 -0.01,-0.122 -0.044,-0.177 -0.037,-0.06 -0.052,-0.108 -0.123,-0.119 -0.078,-0.013 -0.137,0.005 -0.211,0.025 -0.092,0.026 -0.147,0.013 -0.216,0.084 -0.063,0.065 -0.07,0.074 -0.155,0.065 -0.087,-0.01 -0.183,0.022 -0.27,0.034 -0.097,0.013 -0.215,0.055 -0.313,0.043 0.18,-0.059 0.345,-0.133 0.515,-0.212 0.081,-0.037 0.161,-0.06 0.248,-0.081 0.059,-0.018 0.119,-0.035 0.18,-0.05 0.004,0 0.009,-10e-4 0.014,-10e-4 -0.015,-0.006 -0.028,-0.012 -0.038,-0.018 -0.035,-0.02 -0.082,-0.073 -0.103,-0.109 C -12.694,2.119 -12.701,2.088 -12.72,2.06 -12.737,2.034 -12.753,2.03 -12.763,2 -12.775,1.964 -12.769,1.957 -12.792,1.927 -12.816,1.895 -12.873,1.878 -12.905,1.85 -12.956,1.803 -12.99,1.792 -13.055,1.768 -13.11,1.748 -13.14,1.721 -13.186,1.689 -13.227,1.66 -13.269,1.647 -13.312,1.621 -13.414,1.562 -13.521,1.49 -13.61,1.428 c -0.044,-0.03 -0.1,-0.054 -0.132,-0.093 -0.013,-0.017 -0.022,-0.049 -0.035,-0.068 -0.024,-0.034 -0.062,-0.056 0.08,0.015 0.093,0.02 0.12,0.099 0.198,0.143 0.059,0.034 0.145,0.05 0.206,0.075 0.109,0.045 0.233,0.102 0.334,0.167 0.058,0.036 0.105,0.085 0.161,0.126 0.089,0.066 0.199,0.096 0.266,0.19 0.037,0.052 0.042,0.093 0.046,0.155 0,0.011 0.003,0.057 0.005,0.064 0.007,0.02 0.036,0.036 0.033,0.056 -10e-4,0.005 -0.005,0.006 -0.008,0.01 0.019,-0.002 0.038,-0.003 0.056,-0.005 0.106,-0.018 0.202,-0.05 0.312,-0.05 0.017,0.045 -0.015,0.086 -0.021,0.13 -0.007,0.053 0.012,0.112 0.028,0.163 0.03,0.099 0.056,0.178 0.112,0.265 0.03,0.049 0.01,0.056 0.074,0.054 0.086,-0.002 0.178,-0.013 0.266,-0.015 0.125,-0.003 0.244,-0.025 0.365,0.003 0.068,-0.08 0.043,-0.208 0.072,-0.3 0.016,-0.054 0.03,-0.067 0.016,-0.122 -0.018,-0.073 -0.105,-0.158 -0.164,-0.202 -0.049,-0.035 -0.115,-0.059 -0.176,-0.05 -0.077,0.011 -0.138,0.063 -0.22,0.057 -0.006,-0.034 0.071,-0.113 0.096,-0.137 0.051,-0.049 0.088,-0.056 0.161,-0.081 0.061,-0.021 0.096,-0.041 0.159,-0.038 0.081,0.003 0.161,0.018 0.242,0.003 0.138,-0.027 0.257,-0.115 0.395,-0.139 0.093,-0.017 0.193,-0.05 0.288,-0.046 0.065,0.003 0.146,0.029 0.199,-0.025 -0.023,-0.042 -0.031,-0.052 -0.042,-0.103 -0.034,-0.15 -0.086,-0.307 -0.105,-0.46 -0.008,-0.07 0.019,-0.077 0.04,-0.138 0.018,-0.056 0.013,-0.117 0.005,-0.176 -0.022,-0.174 -0.23,-0.202 -0.369,-0.248 -0.135,-0.045 -0.253,-0.009 -0.394,-0.007 -0.089,0.001 -0.17,0.018 -0.259,0.035 -0.207,0.041 -0.407,0.009 -0.618,0.014 -0.155,0.004 -0.296,0.003 -0.444,0.056 -0.022,0.008 -0.065,0.024 -0.11,0.037 0.01,0.026 0.019,0.052 0.031,0.078 0.025,0.057 0.046,0.118 0.061,0.178 0.01,0.041 0.009,0.084 0.015,0.124 0.006,0.043 0.003,0.097 0.011,0.137 0.012,0.053 0.02,0.064 0.013,0.116 -0.004,0.036 -0.003,0.049 0.002,0.084 0.011,0.017 0.017,0.026 0.022,0.032 -0.032,-0.025 -0.039,-0.055 -0.063,-0.085 -0.011,-0.015 -0.029,-0.027 -0.04,-0.044 -0.033,-0.052 -0.036,-0.11 -0.043,-0.166 -0.015,-0.112 -0.063,-0.23 -0.119,-0.334 -0.08,-0.146 -0.193,-0.296 -0.251,-0.453 -0.011,-0.029 -0.012,-0.063 -0.025,-0.094 -0.012,-0.029 -0.031,-0.048 -0.044,-0.079 -0.017,-0.04 -0.026,-0.095 -0.035,-0.135 -0.006,-0.022 -0.023,-0.027 -0.013,-0.059 -0.076,-0.031 -0.133,-0.129 -0.185,-0.19 -0.104,-0.122 -0.17,-0.279 -0.276,-0.396 -0.173,-0.192 -0.525,-0.125 -0.708,-0.303 0.09,-0.006 0.173,0.035 0.257,0.062 0.042,0.013 0.103,0.017 0.121,0.061 -0.045,-0.035 -0.071,-0.16 -0.088,-0.217 -0.023,-0.08 -0.042,-0.169 -0.053,-0.248 -0.008,-0.06 -0.035,-0.108 -0.044,-0.168 -0.007,-0.053 -0.049,-0.132 -0.041,-0.184 0.043,0.031 0.052,0.1 0.066,0.151 0.024,0.085 0.071,0.179 0.121,0.25 0.033,0.049 0.069,0.116 0.11,0.159 0.016,0.016 0.043,0.034 0.062,0.047 0.016,0.009 0.032,0.018 0.049,0.028 0.007,0.012 0.012,0.024 0.014,0.038 0.027,0.03 0.052,0.065 0.079,0.097 0.046,0.055 0.105,0.092 0.148,0.152 0.032,0.048 0.056,0.104 0.098,0.143 0.055,0.051 0.098,0.06 0.128,0.128 0.084,-0.006 0.164,-0.026 0.254,-0.026 0.116,0.001 0.177,-0.052 0.27,-0.108 0.047,-0.028 0.086,-0.064 0.134,-0.09 0.033,-0.019 0.047,-0.042 0.074,-0.061 0.033,-0.022 0.074,-0.025 0.108,-0.045 0.065,-0.036 0.119,-0.09 0.19,-0.118 0.086,-0.033 0.166,-0.101 0.242,-0.161 0.035,-0.027 0.075,-0.041 0.112,-0.072 0.033,-0.029 0.058,-0.068 0.092,-0.097 0.048,-0.041 0.1,-0.074 0.145,-0.121 0.02,-0.022 0.04,-0.046 0.065,-0.065 -0.027,-0.009 -0.054,-0.02 -0.08,-0.034 -0.101,-0.055 -0.202,-0.124 -0.289,-0.199 -0.121,-0.105 -0.237,-0.216 -0.35,-0.33 -0.011,-0.003 -0.023,-0.007 -0.035,-0.01 -0.059,-0.018 -0.074,-0.016 -0.06,-0.074 -0.024,-0.022 -0.045,-0.047 -0.067,-0.072 0.023,0.021 0.046,0.044 0.069,0.065 0.012,-0.044 0.027,-0.091 0.043,-0.133 0.015,-0.039 0.036,-0.048 0.055,-0.079 0.043,-0.071 0.042,-0.165 0.088,-0.236 0.036,-0.055 0.048,-0.12 0.088,-0.174 0.029,-0.04 0.069,-0.069 0.095,-0.111 0.018,-0.03 0.028,-0.061 0.05,-0.089 0.051,-0.066 0.135,-0.107 0.197,-0.16 0.042,-0.037 0.078,-0.077 0.124,-0.112 0.093,-0.069 0.191,-0.157 0.249,-0.259 0.059,-0.105 0.141,-0.203 0.208,-0.306 0.036,-0.054 0.078,-0.101 0.116,-0.152 0.029,-0.038 0.059,-0.062 0.091,-0.091 -0.057,0 -0.126,0.005 -0.17,-0.014 0.034,-0.027 0.09,-0.045 0.131,-0.039 0.022,0.003 0.042,0.019 0.064,0.023 0.034,0.006 0.086,-0.003 0.121,0.002 0.155,0.023 0.303,0.075 0.452,0.125 0.049,0.016 0.07,0.04 0.114,0.065 0.073,0.043 0.177,0.056 0.259,0.082 0.186,0.059 0.377,0.117 0.551,0.204 0.094,0.047 0.172,0.122 0.256,0.188 0.104,0.082 0.204,0.166 0.292,0.262 0.058,0.062 0.11,0.129 0.163,0.195 -0.023,-0.09 -0.047,-0.18 -0.082,-0.266 -0.082,-0.203 -0.172,-0.408 -0.286,-0.594 -0.159,-0.263 -0.247,-0.564 -0.399,-0.831 -0.041,-0.071 -0.096,-0.128 -0.137,-0.201 -0.061,-0.106 -0.124,-0.212 -0.182,-0.32 -0.045,-0.083 -0.069,-0.17 -0.124,-0.249 -0.026,-0.038 -0.048,-0.093 -0.075,-0.124 -0.02,-0.023 -0.057,-0.036 -0.081,-0.053 -0.032,-0.021 -0.074,-0.066 -0.11,-0.087 -0.075,-0.045 -0.156,-0.089 -0.234,-0.129 -0.18,-0.092 -0.346,-0.209 -0.52,-0.313 -0.11,-0.066 -0.221,-0.13 -0.329,-0.199 -0.004,0.048 -0.003,0.096 -0.008,0.147 -0.008,0.068 -0.036,0.142 -0.042,0.209 -0.01,0.11 0.023,0.211 0.047,0.318 0.013,0.058 0.032,0.105 0.053,0.16 0.018,0.048 0.01,0.107 0.034,0.151 -0.157,-0.135 -0.216,-0.251 -0.245,-0.385 -0.02,-0.088 -0.034,-0.195 -0.014,-0.284 0.013,-0.06 0.02,-0.125 0.025,-0.186 0.01,-0.117 0.02,-0.231 0,-0.348 -0.023,-0.129 -0.025,-0.285 -10e-4,-0.413 0.019,-0.104 0.037,-0.198 0.069,-0.301 0.025,-0.08 0.066,-0.143 0.102,-0.215 0.048,0.04 0.009,0.117 0.017,0.17 0.006,0.039 0.016,0.042 0.013,0.087 -0.003,0.045 0.005,0.094 0,0.137 -0.005,0.044 -0.023,0.084 -0.029,0.129 -0.011,0.081 -0.021,0.171 -0.012,0.256 0.009,0.086 0.032,0.183 0.007,0.268 -10e-4,0.004 -10e-4,0.006 -0.002,0.009 0.041,0.023 0.084,0.067 0.128,0.09 0.109,0.058 0.222,0.111 0.337,0.158 0.108,0.045 0.22,0.081 0.316,0.15 0.035,0.025 0.065,0.052 0.103,0.072 0.107,0.06 0.214,0.101 0.335,0.138 0.149,0.045 0.274,0.107 0.344,0.25 10e-4,0.003 0.002,0.005 0.003,0.008 0.057,-0.131 0.137,-0.258 0.199,-0.38 0.036,-0.071 0.084,-0.131 0.138,-0.19 0.086,-0.095 0.15,-0.221 0.226,-0.33 0.052,-0.073 0.107,-0.142 0.16,-0.214 -0.008,0.008 -0.016,0.015 -0.024,0.022 -0.011,0.009 -0.021,0.017 -0.032,0.025 l 0.085,-0.086 c 0.007,-0.011 0.016,-0.02 0.023,-0.031 0.019,-0.029 0.037,-0.055 0.065,-0.075 0.003,-0.003 0.007,-0.004 0.011,-0.006 0.066,-0.095 0.13,-0.205 0.175,-0.308 0.078,-0.181 0.273,-0.322 0.402,-0.467 0.023,-0.026 0.031,-0.053 0.053,-0.08 0.02,-0.025 0.016,-0.044 0.058,-0.032 0.026,0.006 0.063,0.064 0.084,0.08 0.046,0.034 0.099,0.043 0.148,0.066 0.13,0.06 0.252,0.11 0.389,0.154 0.093,0.03 0.175,0.057 0.262,0.104 0.106,0.057 0.2,0.124 0.314,0.164 0.042,0.015 0.077,0.046 0.116,0.065 -0.193,-0.061 -0.385,-0.123 -0.578,-0.185 -0.064,0.042 -0.123,0.094 -0.193,0.129 -0.099,0.049 -0.211,0.056 -0.314,0.087 -0.063,0.019 -0.114,0.032 -0.171,0.06 -0.035,0.017 -0.081,0.041 -0.12,0.048 -0.051,0.009 -0.102,-0.008 -0.154,0.005 -0.044,0.012 -0.09,0.025 -0.134,0.038 -0.088,0.026 -0.205,0.052 -0.287,0.09 -0.034,0.017 -0.064,0.039 -0.093,0.061 -0.006,0.008 -0.013,0.015 -0.018,0.023 -0.024,0.038 -0.029,0.083 -0.051,0.123 -0.036,0.065 -0.056,0.135 -0.091,0.199 -0.082,0.149 -0.165,0.296 -0.255,0.439 -0.057,0.092 -0.086,0.195 -0.146,0.286 -0.041,0.06 -0.076,0.119 -0.113,0.179 -0.031,0.051 -0.051,0.103 -0.07,0.157 0.013,0.023 0.026,0.046 0.037,0.065 0.1,0.194 0.188,0.394 0.286,0.59 0.073,0.144 0.169,0.276 0.27,0.401 0.033,-0.017 0.059,-0.041 0.086,-0.069 0.056,-0.061 0.086,-0.136 0.134,-0.203 0.019,-0.026 0.038,-0.032 0.046,-0.073 0.008,-0.04 0.002,-0.08 0.002,-0.12 0,-0.095 0.011,-0.101 0.091,-0.101 0.14,0 0.264,0.036 0.401,0.043 0.18,0.01 0.346,0.083 0.516,0.138 0.164,0.052 0.328,0.105 0.492,0.157 0.051,0.017 0.116,0.025 0.162,0.051 0.03,0.017 0.033,0.034 0.061,0.05 0.093,0.051 0.222,0.07 0.324,0.103 0.091,0.029 0.182,0.058 0.272,0.087 0.001,0 0.001,0 0.001,0 0.002,-0.003 0.004,-0.007 0.006,-0.009 10e-4,0.004 10e-4,0.008 0.002,0.012 0.064,0.021 0.129,0.046 0.194,0.063 0.147,0.038 0.247,-0.067 0.388,-0.064 0.019,-0.009 0.037,-0.006 0.052,0.008 0.015,0.006 0.026,0.001 0.033,-0.015 0.088,-0.016 0.163,-0.043 0.258,-0.044 0.113,-10e-4 0.214,-0.019 0.324,-0.038 0.056,-0.009 0.111,-0.015 0.167,-0.017 0.037,-0.005 0.072,-0.001 0.107,0.01 0.08,-0.008 0.157,-0.056 0.244,-0.058 0.097,-0.002 0.197,0.015 0.294,0.02 0.065,0.003 0.157,0.002 0.22,-0.038 0.007,-0.067 0.016,-0.135 0.032,-0.201 0.019,-0.08 0.021,-0.153 0.048,-0.233 0.043,-0.128 0.052,-0.269 0.068,-0.403 0.008,-0.074 -0.01,-0.148 -0.004,-0.222 0.006,-0.075 0.044,-0.151 0.067,-0.223 0.028,-0.086 0.05,-0.281 0.127,-0.329 -0.008,0.334 -0.034,0.661 -0.013,0.994 0.008,0.119 -0.006,0.239 0.004,0.356 0.01,0.116 0.015,0.224 -0.003,0.339 -0.013,0.086 -0.026,0.166 -0.034,0.252 -0.006,0.057 -0.017,0.105 -0.035,0.158 -0.048,0.144 -0.074,0.275 -0.087,0.426 -0.009,0.114 -0.023,0.237 -0.048,0.348 -0.015,0.065 -0.054,0.176 0.012,0.217 0.095,0.059 0.222,-0.015 0.318,-0.033 0.128,-0.025 0.259,-0.007 0.387,0.011 0.073,0.01 0.098,0.019 0.158,-0.013 0.042,-0.023 0.065,-0.041 0.112,-0.052 0.166,-0.038 0.328,-0.043 0.499,-0.032 0.119,0.007 0.188,0.052 0.295,0.068 0.053,-0.091 0.091,-0.188 0.15,-0.276 0.07,-0.104 0.096,-0.216 0.134,-0.336 0.056,-0.173 0.112,-0.346 0.167,-0.519 0.099,-0.309 0.188,-0.621 0.321,-0.917 0.073,-0.161 0.169,-0.277 0.306,-0.389 0.049,-0.04 0.112,-0.072 0.15,-0.12 0.079,-0.097 0.102,-0.242 0.18,-0.343 0.092,-0.119 0.197,-0.229 0.306,-0.334 -0.044,0.049 -0.051,0.104 -0.081,0.158 -0.03,0.052 -0.058,0.086 -0.076,0.147 -0.024,0.08 -0.061,0.14 -0.109,0.209 -0.037,0.054 -0.064,0.116 -0.099,0.167 -0.044,0.063 -0.105,0.128 -0.154,0.187 -0.07,0.084 -0.1,0.148 -0.144,0.254 -0.046,0.109 -0.078,0.224 -0.115,0.336 -0.053,0.167 -0.107,0.334 -0.16,0.501 -0.043,0.133 -0.071,0.282 -0.135,0.406 -0.037,0.072 -0.095,0.13 -0.137,0.198 -0.035,0.059 -0.062,0.134 -0.09,0.196 -0.093,0.206 -0.147,0.423 -0.128,0.648 -0.028,-0.014 -0.059,-0.016 -0.093,-0.004 -0.044,0.005 -0.088,0.011 -0.132,0.016 0.113,0.075 0.227,0.151 0.325,0.235 0.051,0.043 0.091,0.097 0.133,0.147 0.085,0.105 0.208,0.201 0.306,0.297 0.133,0.13 0.268,0.259 0.405,0.387 0.096,0.09 0.18,0.188 0.276,0.277 0.094,0.087 0.152,0.21 0.209,0.322 0.03,0.059 0.064,0.113 0.096,0.17 0.027,0.048 0.03,0.104 0.057,0.152 0.045,0.08 0.089,0.16 0.137,0.241 0.061,0.104 0.079,0.23 0.137,0.333 0.043,0.076 0.156,0.071 0.23,0.076 C 0.396,0.066 0.577,0.037 0.741,0.081 0.877,0.118 1.01,0.151 1.154,0.158 1.208,0.161 1.297,0.189 1.342,0.164 1.363,0.153 1.388,0.119 1.409,0.103 1.445,0.075 1.471,0.052 1.503,0.019 1.529,-0.008 1.566,-0.031 1.589,-0.062 1.607,-0.087 1.61,-0.121 1.626,-0.147 1.652,-0.188 1.701,-0.215 1.729,-0.253 1.76,-0.295 1.773,-0.336 1.807,-0.377 1.836,-0.413 1.868,-0.446 1.897,-0.482 1.951,-0.548 2.011,-0.621 2.072,-0.68 2.248,-0.85 2.496,-0.935 2.679,-1.104 2.759,-1.179 2.81,-1.27 2.885,-1.347 2.905,-1.367 2.969,-1.426 3.001,-1.421 3.009,-1.377 2.937,-1.34 2.909,-1.311 2.823,-1.222 2.756,-1.124 2.69,-1.02 2.608,-0.891 2.523,-0.762 2.434,-0.638 2.376,-0.558 2.287,-0.438 2.207,-0.381 2.079,-0.289 1.963,-0.176 1.854,-0.066 1.82,-0.031 1.801,0.008 1.782,0.052 1.752,0.123 1.717,0.163 1.66,0.214 1.606,0.262 1.492,0.307 1.456,0.366 1.445,0.383 1.436,0.422 1.432,0.444 c -0.008,0.044 0.004,0.04 0.011,0.079 0.009,0.042 0,0.081 0.011,0.126 0.022,0.083 0.067,0.162 0.106,0.238 0.08,0.154 0.168,0.31 0.261,0.458 0.068,0.106 0.14,0.197 0.222,0.291 0.062,0.072 0.106,0.154 0.164,0.229 0.05,0.064 0.081,0.139 0.13,0.203 0.021,0.028 0.043,0.042 0.058,0.078 0.029,0.072 0.077,0.123 0.12,0.192 0.099,0.157 0.24,0.295 0.354,0.443 0.047,0.062 0.104,0.116 0.15,0.178 C 3.051,3.001 3.077,3.044 3.105,3.087 3.069,3.047 3.024,3.003 3.01,2.991"
             style="fill:#100f0d;fill-opacity:1;fill-rule:nonzero;stroke:none"
             id="path54533" />
        </g>
        <g
           id="g54535"
           transform="translate(87.92,604.217)">
          <path
             d="M 0,0 C 0.028,0.031 0.051,0.059 0.048,0.068 0.03,0.046 0.015,0.023 0,0"
             style="fill:#100f0d;fill-opacity:1;fill-rule:nonzero;stroke:none"
             id="path54537" />
        </g>
        <g
           id="g54539"
           transform="translate(73.4628,607.741)">
          <path
             d="M 0,0 C 0.007,0.013 0.023,0.027 0.042,0.04 0.021,0.025 0.003,0.011 0,0"
             style="fill:#100f0d;fill-opacity:1;fill-rule:nonzero;stroke:none"
             id="path54541" />
        </g>
        <g
           id="g54543"
           transform="translate(69.1537,609.768)">
          <path
             d="M 0,0 C -0.024,0.015 -0.046,0.031 -0.062,0.049 -0.05,0.023 -0.026,0.01 0,0"
             style="fill:#100f0d;fill-opacity:1;fill-rule:nonzero;stroke:none"
             id="path54545" />
        </g>
        <g
           id="g54547"
           transform="translate(69.1537,609.768)">
          <path
             d="M 0,0 C 0.043,-0.027 0.094,-0.048 0.146,-0.068 0.125,-0.055 0.103,-0.043 0.078,-0.029 0.056,-0.017 0.027,-0.01 0,0"
             style="fill:#100f0d;fill-opacity:1;fill-rule:nonzero;stroke:none"
             id="path54549" />
        </g>
        <g
           id="g54551"
           transform="translate(66.8826,607.188)">
          <path
             d="M 0,0 C 0.042,-0.033 0.077,-0.062 0.11,-0.09 0.107,-0.084 0.104,-0.077 0.101,-0.071 0.079,-0.041 0.038,0.002 0,0"
             style="fill:#100f0d;fill-opacity:1;fill-rule:nonzero;stroke:none"
             id="path54553" />
        </g>
        <g
           id="g54555"
           transform="translate(75.7823,594.817)">
          <path
             d="M 0,0 0.054,-0.054 C 0.039,-0.033 0.027,-0.012 0,0"
             style="fill:#100f0d;fill-opacity:1;fill-rule:nonzero;stroke:none"
             id="path54557" />
        </g>
        <g
           id="g54559"
           transform="translate(75.8566,594.736)">
          <path
             d="M 0,0 C 0.014,-0.016 0.029,-0.027 0.045,-0.039 L -0.021,0.028 C -0.015,0.018 -0.008,0.009 0,0"
             style="fill:#100f0d;fill-opacity:1;fill-rule:nonzero;stroke:none"
             id="path54561" />
        </g>
        <g
           id="g54563"
           transform="translate(82.2204,606.59)">
          <path
             d="m 0,0 c -0.024,-0.048 -0.043,-0.098 -0.054,-0.152 0.002,0.006 0.004,0.013 0.008,0.019 C -0.026,-0.092 -0.012,-0.046 0,0"
             style="fill:#100f0d;fill-opacity:1;fill-rule:nonzero;stroke:none"
             id="path54565" />
        </g>
        <g
           id="g54567"
           transform="translate(82.4864,607.299)">
          <path
             d="M 0,0 C 0.031,0.154 -0.046,0.257 -0.068,0.403 -0.075,0.315 -0.104,0.23 -0.125,0.144 -0.142,0.07 -0.156,-0.005 -0.174,-0.08 -0.192,-0.157 -0.231,-0.24 -0.241,-0.319 -0.252,-0.408 -0.22,-0.495 -0.239,-0.591 -0.247,-0.629 -0.256,-0.67 -0.266,-0.71 c 0.042,0.085 0.094,0.164 0.139,0.25 C -0.054,-0.321 -0.031,-0.154 0,0"
             style="fill:#100f0d;fill-opacity:1;fill-rule:nonzero;stroke:none"
             id="path54569" />
        </g>
        <g
           id="g54571"
           transform="translate(80.1647,614.6)">
          <path
             d="m 0,0 c -0.035,-0.121 -0.087,-0.219 -0.075,-0.342 v -0.003 c 0.001,0.002 0.001,0.004 0.002,0.005 0.04,0.113 0.037,0.232 0.073,0.34"
             style="fill:#100f0d;fill-opacity:1;fill-rule:nonzero;stroke:none"
             id="path54573" />
        </g>
        <g
           id="g54575"
           transform="translate(76.2741,610.421)">
          <path
             d="M 0,0 0.029,0.037 C 0.02,0.033 0.011,0.029 0.002,0.024 0.001,0.016 0.001,0.008 0,0"
             style="fill:#100f0d;fill-opacity:1;fill-rule:nonzero;stroke:none"
             id="path54577" />
        </g>
      </g>
    </g>
  </g>
</svg>
