<svg width="23" height="24" viewBox="0 0 23 24" fill="#000000" xmlns="http://www.w3.org/2000/svg">
  <path d="M8.77872 2.686C8.92979 2.25181 8.83154 1.73206 9.10198 1.36021C9.20128 1.22287 9.34178 1.12252 9.48017 1.02427C9.94499 0.692559 10.4119 0.378806 10.9359 0.146396C11.9131 0.0354735 12.941 0.421062 13.5885 1.16477C14.0143 1.65389 14.271 2.26449 14.5066 2.86876C14.6904 3.3378 14.8678 3.85227 14.7263 4.33716C14.589 4.80938 14.1738 5.15059 13.7385 5.38089C12.8892 5.83092 11.8793 5.97037 10.9391 5.76754C10.5556 5.68514 10.1584 5.52773 9.94394 5.20025C9.8795 5.102 9.83301 4.99213 9.75801 4.90234C9.67983 4.80938 9.57419 4.74388 9.47595 4.67204C9.10832 4.40477 8.82098 4.02763 8.6604 3.6019C8.6192 3.49098 8.5854 3.37477 8.58962 3.25751C8.59702 3.05574 8.71217 2.87615 8.77872 2.686ZM7.83746 4.11003C7.9188 4.35089 8.0086 4.59598 8.17023 4.79247C8.30122 4.95199 8.47553 5.07136 8.64667 5.18863C9.2784 5.6207 9.9302 6.0591 10.675 6.23447C11.9786 6.54294 13.3361 6.001 14.6724 6.0908C14.8446 6.10242 15.0379 6.11826 15.17 6.00628C15.2355 5.95135 15.2756 5.87318 15.3084 5.79395C15.5545 5.21398 15.5334 4.5495 15.3876 3.93678C15.2418 3.32301 14.9788 2.74516 14.7464 2.15991C14.4558 1.42359 14.1484 0.596426 13.4354 0.253094C13.1343 0.107309 12.7931 0.0692789 12.4592 0.0439251C11.9046 0.00272527 11.3468 -0.00995203 10.7901 0.00800689C10.7331 0.0101197 10.6707 0.0143457 10.6264 0.0513199C10.5894 0.0840686 10.582 0.148509 10.6148 0.181258C10.0306 0.275278 9.45059 0.511913 8.92556 0.756999C8.67625 0.873204 8.4206 1.01159 8.27693 1.24506C8.13326 1.47958 8.15016 1.83348 8.38257 1.98032C8.2558 2.3733 7.65048 2.44936 7.5385 2.84552C7.49519 2.99658 7.5385 3.15716 7.58287 3.30716C7.66315 3.57655 7.74767 3.84382 7.83746 4.11003Z"/>
  <path d="M4.32808 13.4064C4.34181 13.3061 4.34393 13.1888 4.42421 13.1265C4.4707 13.0906 4.53197 13.0832 4.59007 13.0758C4.98094 13.0251 5.44576 12.818 5.45632 12.4229C5.46266 12.1958 5.30526 11.9908 5.29681 11.7637C5.28836 11.545 5.39294 11.263 5.2049 11.1499C5.0982 11.0855 4.95664 11.1309 4.84044 11.0866C4.61965 11.0021 4.63127 10.6809 4.72635 10.4654C4.82142 10.2488 4.96193 10.008 4.86474 9.79247C4.78339 9.61182 4.57 9.53787 4.37985 9.48294C3.78826 9.3118 3.07518 9.08256 2.45507 9.23468C1.95011 9.35723 1.80538 9.90973 1.32789 10.1316C1.04477 10.2636 0.685592 10.2995 0.511284 10.5594C0.352823 10.7971 0.424659 11.114 0.501777 11.3887C0.557766 11.5873 0.613756 11.7848 0.669745 11.9835C0.776442 12.3627 0.88314 12.743 1.01519 13.1159C1.02998 13.1571 1.04583 13.1994 1.07541 13.2321C1.17893 13.3462 1.36169 13.2754 1.51276 13.2448C2.23428 13.099 2.74558 14.0794 3.4819 14.1121C3.88439 14.1301 4.27315 13.8058 4.32808 13.4064Z"/>
  <path d="M9.33121 13.6071C9.14423 13.5406 8.93823 13.4423 8.74913 13.5047C8.59173 13.5564 9.04704 14.2093 8.99739 14.3371C8.84209 14.7311 8.78188 14.5547 8.90653 14.9731C9.00795 15.3132 9.14317 15.3682 9.33015 15.6914C9.44213 15.8837 9.62172 15.9735 9.84568 16.0939C10.0496 16.2038 9.84568 16.5027 10.0855 16.4541C10.2577 16.4203 10.4309 16.3855 10.6031 16.3506C10.9338 16.2841 11.2655 16.2175 11.5898 16.1351C11.6257 16.1256 11.6627 16.1161 11.6912 16.096C11.7916 16.0284 12.1761 15.4368 12.1518 15.3354C12.0335 14.8484 12.4455 14.9879 12.4814 14.4945C12.5015 14.2251 12.5849 14.1396 12.2395 14.0973C12.1518 14.0867 12.231 12.8941 11.8106 13.4075C11.7831 13.4413 11.912 13.1846 11.9057 13.1455C11.8666 12.8814 11.3817 13.1582 11.0384 13.1455C10.8419 13.1381 10.6623 13.2406 10.4647 13.2427C10.2746 13.2458 10.0306 13.1719 9.93125 13.2955C9.8742 13.3663 9.49178 13.2575 9.45164 13.3346C9.37664 13.4814 9.51819 13.6737 9.33121 13.6071Z"/>
  <path d="M18.1448 18.3398C18.0846 18.3081 18.0117 18.2838 17.9578 18.3176C17.9272 18.3367 17.9071 18.3715 17.8765 18.3884C17.7634 18.4497 17.5965 18.2595 17.5004 18.3208C17.4962 18.3187 17.4919 18.3176 17.4877 18.3166C17.2342 18.2458 17.1581 18.1296 16.9014 18.1201C16.8423 18.5152 16.5486 18.8342 16.1883 18.8944C16.1197 18.9061 16.0489 18.9103 15.9866 18.9409C15.9253 18.9716 15.8746 19.0392 15.8862 19.1152C15.8915 19.1522 15.9095 19.1871 15.9137 19.223C15.9242 19.3138 15.845 19.3793 15.7658 19.4015C15.6876 19.4237 15.5999 19.4237 15.5334 19.4712C15.601 19.9371 15.6823 20.4315 15.9718 20.8013C16.0309 20.8773 16.0996 20.947 16.1524 21.0294C16.2 21.1023 16.2338 21.1837 16.275 21.2619C16.3732 21.4509 16.6479 21.4362 16.782 21.5999C16.8021 21.6253 16.8243 21.6517 16.8539 21.6612C16.8856 21.6728 17.4159 21.6168 17.4455 21.6041C17.8353 21.4488 17.9504 21.4974 18.1364 21.0949C18.1786 21.002 18.2177 20.9006 18.2969 20.8456C18.373 20.7928 18.2895 20.8689 18.3751 20.8372C18.5473 20.7738 18.6519 20.5942 18.7448 20.4252C18.9614 20.029 18.7575 19.4343 18.6308 18.9621C18.5589 18.6969 18.3751 18.4603 18.1448 18.3398Z"/>
  <path d="M19.2192 12.4038C19.2076 12.2665 19.1991 12.1197 19.1125 12.013C19.0195 11.8989 18.8632 11.8651 18.7343 11.7932C18.5283 11.677 18.3994 11.4626 18.2367 11.2904C17.7444 10.7653 17.0493 10.7231 16.4345 10.4347C15.8493 10.1611 15.4351 10.028 14.758 10.2054C14.2499 10.3396 13.766 10.6946 13.6308 11.2038C13.4776 11.7763 13.7893 12.3616 13.8548 12.951C13.9065 13.4148 13.7988 13.8944 13.5547 14.2927C13.3921 14.5568 13.1628 14.8082 13.1544 15.1188C13.1501 15.2751 13.204 15.4273 13.2685 15.5688C13.7238 16.5661 14.7844 17.2548 15.8799 17.2654C16.3944 17.2707 17.0029 17.1724 17.3409 17.5602C17.4677 17.7059 17.5849 17.9278 17.7751 17.895C17.8448 17.8834 17.9029 17.8359 17.9568 17.7904C18.3646 17.4482 18.7903 17.0805 18.9625 16.5777C19.0343 16.3685 19.0576 16.1446 19.14 15.9396C19.3586 15.3882 19.9375 15.0818 20.4721 14.8219C19.7611 14.2208 19.2995 13.3314 19.2192 12.4038Z"/>
  <path d="M22.8606 10.0206C22.8585 9.95931 22.8141 9.9086 22.7687 9.8674C22.5532 9.67513 22.2669 9.58745 22.0113 9.4554C21.7545 9.32441 21.5031 9.10996 21.4757 8.82261C21.4683 8.73282 21.4799 8.63563 21.4302 8.56062C21.3943 8.50569 21.3309 8.47506 21.2707 8.4497C21.1725 8.40745 21.0711 8.37258 20.9696 8.34195C21.5306 8.30392 22.0926 8.26694 22.6536 8.22891C21.8528 8.22046 21.0256 8.20567 20.2988 7.87079C20.0485 8.05672 19.7104 8.11905 19.4104 8.03453C19.2297 7.98383 19.0628 7.88241 18.8758 7.85706C18.6878 7.82959 18.4987 7.88136 18.3128 7.91939C17.5427 8.07785 16.7324 8.01235 15.9876 7.76092C15.7098 7.6669 15.3992 7.54859 15.1362 7.67958C15.0157 7.7398 14.9238 7.84649 14.8076 7.91516C14.6196 8.02608 14.3893 8.03031 14.1717 8.02291C13.6244 8.00707 13.0793 7.9458 12.5416 7.84121C12.0948 7.75353 11.6046 7.64578 11.1894 7.7905C10.9211 7.56338 10.8429 7.37428 10.47 7.21476C10.0802 7.75564 9.35445 8.03242 8.70265 7.88558C8.5801 7.85811 8.45756 7.81691 8.33185 7.82114C8.22726 7.82642 8.11951 7.87502 8.06352 7.96059C7.85435 7.95636 7.64624 7.95319 7.43707 7.95002C6.84865 7.94051 6.23065 7.93734 5.71407 8.21835C5.60632 8.10426 5.49962 7.99017 5.39187 7.87502C5.15206 8.11482 4.77176 8.12327 4.43371 8.11588C2.94629 8.11588 1.47366 8.01235 -3.05176e-05 7.91833C-3.05176e-05 8.3842 0.746848 8.11905 1.12399 8.2849C1.39126 8.40322 1.69233 8.40745 1.9839 8.40956C2.74557 8.41484 3.50724 8.42012 4.26785 8.4254C5.2239 8.4328 6.17995 8.43914 7.136 8.44653C6.92577 9.1332 6.73879 9.86106 6.9395 10.5456C6.98387 10.6977 7.04726 10.8446 7.07578 10.9999C7.10113 11.1383 7.09902 11.2809 7.10959 11.4214C7.13705 11.7647 7.60821 11.9221 7.71279 12.2496C7.72864 12.3003 7.7466 12.3531 7.7878 12.388C7.83322 12.426 8.76498 12.6891 8.82413 12.6912C9.59109 12.7165 9.7506 12.8644 10.357 12.3933C10.4964 12.2855 10.6359 12.1619 10.8102 12.1323C10.976 12.1049 10.7795 12.1609 10.9475 12.1704C11.2834 12.1894 11.5898 11.9939 11.8698 11.8059C12.5247 11.3664 12.6187 10.3586 12.7529 9.58111C12.7973 9.32758 12.7677 9.06347 12.6779 8.82261C14.2277 8.78987 15.7742 8.69056 17.3208 8.58703C17.6663 8.56379 18.0106 8.54055 18.3571 8.51731C18.298 8.57858 18.2504 8.65147 18.2135 8.72754C17.9673 9.22616 18.0804 9.87691 18.4797 10.2646C18.7723 10.5488 19.216 10.7252 19.3343 11.1161C19.3671 11.2238 19.3713 11.3379 19.385 11.4488C19.4727 12.1197 19.946 12.6658 20.3981 13.1687C20.7066 13.0028 20.9665 12.7461 21.1366 12.4397C21.3848 12.4144 21.632 12.3901 21.8792 12.3658C22.1655 12.3373 22.5162 12.2559 22.5859 11.977C22.4708 11.9295 22.3556 11.882 22.2405 11.8344C22.4507 11.6855 22.5859 11.434 22.5944 11.1763C22.5997 11.0347 22.568 10.8932 22.5701 10.7516C22.5733 10.5541 22.644 10.3586 22.7655 10.2044C22.8099 10.1484 22.8627 10.0914 22.8606 10.0206Z"/>
  <path d="M6.00353 19.241C5.79331 19.1311 5.51864 19.1068 5.3887 18.9093C5.35278 18.8554 5.33166 18.7931 5.30525 18.7329C5.14678 18.3758 4.79395 18.1508 4.46012 17.9458C4.31645 18.0895 4.21398 18.2744 4.17067 18.473C4.0365 18.5269 3.90339 18.5818 3.77029 18.6357C3.61605 18.6991 3.43541 18.8015 3.4428 18.9684C3.51358 18.9758 3.58542 18.9832 3.65725 18.9906C3.56534 19.1079 3.5326 19.2695 3.56957 19.4142C3.5907 19.4935 3.63084 19.5664 3.65303 19.6456C3.68366 19.7555 3.67732 19.8759 3.63507 19.9815C3.62028 20.0196 3.60021 20.0608 3.61288 20.0988C3.6245 20.1326 3.65725 20.1537 3.69 20.1685C3.84001 20.2404 4.01326 20.2414 4.17806 20.272C4.3418 20.3027 4.51611 20.3809 4.57844 20.5351C4.59851 20.5837 4.60696 20.6397 4.6471 20.6735C4.67668 20.6978 4.71683 20.7041 4.75486 20.7083C4.95874 20.7316 5.16686 20.7178 5.36546 20.6682L5.0253 20.7073C5.39187 20.6196 5.75316 20.5097 6.10706 20.3787C6.17889 20.3523 6.25179 20.3238 6.30461 20.2699C6.36271 20.2118 6.39123 20.1305 6.40496 20.0502C6.45884 19.7322 6.28876 19.3899 6.00353 19.241Z"/>
  <path d="M7.54695 17.0796C7.81105 16.8672 8.04134 16.6802 8.06247 16.3221C8.07726 16.0654 8.04134 15.9577 7.97162 15.7126C7.86492 15.346 7.96951 15.0565 7.72865 14.7766C7.09797 14.0424 6.28454 13.4487 5.26616 13.6462C4.76648 13.7434 4.31962 14.0667 3.97418 14.4755C3.93192 14.5252 3.89072 14.578 3.86959 14.6424C3.84424 14.7153 3.84952 14.7967 3.8548 14.8738C3.88967 15.4104 3.92347 15.946 3.95833 16.4827C3.96678 16.6074 3.97523 16.7352 4.02806 16.8461C4.08299 16.9591 4.17701 17.0415 4.26892 17.1208C4.49921 17.3204 4.73057 17.5201 4.96086 17.7187C5.0084 17.7599 5.06016 17.8021 5.11932 17.8064C5.19327 17.8106 5.25771 17.7567 5.32004 17.7145C5.72676 17.4335 6.25707 17.5518 6.7145 17.7124C7.136 17.8613 7.18988 17.3669 7.54695 17.0796Z"/>
  <path d="M15.1277 20.5572C15.0591 20.3977 14.9133 20.2783 14.8404 20.1198C14.6967 19.8082 14.871 19.4533 14.8742 19.1131C14.8763 18.9472 14.8351 18.7814 14.7717 18.6271C14.4643 17.8803 13.4512 17.1545 12.6621 16.9052C11.5909 16.5672 10.2482 16.846 9.32806 17.4271C9.40835 17.2897 9.4411 17.127 9.41785 16.9707C9.26784 17.2506 9.11678 17.5295 8.96677 17.8095C8.95515 17.7408 8.94353 17.6722 8.93191 17.6035C8.82732 17.7102 8.83894 17.875 8.81042 18.0187C8.79141 18.1148 8.75232 18.2056 8.69633 18.287C8.52942 18.5268 8.23362 18.6483 8.00227 18.8321C7.76986 19.0159 7.59661 19.3529 7.77303 19.5864C7.41702 19.7607 7.22053 20.1906 7.32617 20.5604C7.38744 20.7748 7.53745 20.9671 7.54907 21.1889C7.5533 21.2851 7.53428 21.3896 7.59027 21.4689C7.63147 21.528 7.70331 21.5576 7.76352 21.5999C7.93889 21.7224 7.9991 21.9738 7.89769 22.1577C8.01917 22.1513 8.13326 22.0774 8.18608 21.9728C8.2294 22.5263 8.40371 23.0714 8.69105 23.5532C8.765 23.5405 8.83155 23.4972 8.87275 23.437C8.99741 23.7106 9.29954 23.9007 9.61118 23.9007C9.79394 23.9007 10.0179 23.8574 10.1235 24C10.3697 23.7845 10.5905 23.5426 10.7827 23.2817C11.1937 23.6176 11.8761 23.231 12.3515 23.4771C12.4793 23.5426 12.5818 23.6514 12.7202 23.6937C12.8575 23.7359 13.0508 23.663 13.0424 23.5236C13.2843 23.7645 13.7005 23.8215 14.0027 23.6556C14.3048 23.4898 14.4643 23.1169 14.3713 22.7947C14.5118 22.5189 14.7833 22.3077 15.0929 22.2337C15.1246 21.8048 15.0728 21.3696 14.9429 20.9586C15.1225 20.9576 15.1964 20.7167 15.1277 20.5572Z"/>
</svg>
