<?xml version="1.0" encoding="UTF-8" standalone="no"?>
<!-- Created with Inkscape (http://www.inkscape.org/) -->

<svg
   width="22.860701"
   height="24"
   viewBox="0 0 6.0485602 6.35"
   version="1.1"
   id="svg58586"
   inkscape:version="1.2.1 (9c6d41e4, 2022-07-14)"
   sodipodi:docname="ice-and-death.svg"
   xmlns:inkscape="http://www.inkscape.org/namespaces/inkscape"
   xmlns:sodipodi="http://sodipodi.sourceforge.net/DTD/sodipodi-0.dtd"
   xmlns="http://www.w3.org/2000/svg"
   xmlns:svg="http://www.w3.org/2000/svg">
  <sodipodi:namedview
     id="namedview58588"
     pagecolor="#505050"
     bordercolor="#eeeeee"
     borderopacity="1"
     inkscape:showpageshadow="0"
     inkscape:pageopacity="0"
     inkscape:pagecheckerboard="0"
     inkscape:deskcolor="#505050"
     inkscape:document-units="mm"
     showgrid="false"
     inkscape:zoom="0.7046647"
     inkscape:cx="131.97766"
     inkscape:cy="230.60613"
     inkscape:window-width="1390"
     inkscape:window-height="941"
     inkscape:window-x="0"
     inkscape:window-y="25"
     inkscape:window-maximized="0"
     inkscape:current-layer="layer1" />
  <defs
     id="defs58583">
    <clipPath
       clipPathUnits="userSpaceOnUse"
       id="clipPath54841">
      <path
         d="m 188.725,591.119 h 24.7 v 24.699 h -24.7 z"
         id="path54839" />
    </clipPath>
  </defs>
  <g
     inkscape:label="Layer 1"
     inkscape:groupmode="layer"
     id="layer1"
     transform="translate(-70.193167,-87.689731)">
    <g
       id="g54835"
       transform="matrix(0.27950758,0,0,-0.27950758,16.964302,259.43946)">
      <g
         id="g54837"
         clip-path="url(#clipPath54841)">
        <g
           id="g54843"
           transform="translate(198.748,611.93)">
          <path
             d="M 0,0 C 0.143,0.411 0.05,0.903 0.306,1.255 0.4,1.385 0.533,1.48 0.664,1.573 1.104,1.887 1.546,2.184 2.042,2.404 2.967,2.509 3.94,2.144 4.553,1.44 4.956,0.977 5.199,0.399 5.422,-0.173 5.596,-0.617 5.764,-1.104 5.63,-1.563 5.5,-2.01 5.107,-2.333 4.695,-2.551 3.891,-2.977 2.935,-3.109 2.045,-2.917 1.682,-2.839 1.306,-2.69 1.103,-2.38 1.042,-2.287 0.998,-2.183 0.927,-2.098 0.853,-2.01 0.753,-1.948 0.66,-1.88 0.312,-1.627 0.04,-1.27 -0.112,-0.867 -0.151,-0.762 -0.183,-0.652 -0.179,-0.541 -0.172,-0.35 -0.063,-0.18 0,0 m -0.891,-1.348 c 0.077,-0.228 0.162,-0.46 0.315,-0.646 0.124,-0.151 0.289,-0.264 0.451,-0.375 0.598,-0.409 1.215,-0.824 1.92,-0.99 1.234,-0.292 2.519,0.221 3.784,0.136 0.163,-0.011 0.346,-0.026 0.471,0.08 0.062,0.052 0.1,0.126 0.131,0.201 0.233,0.549 0.213,1.178 0.075,1.758 C 6.118,-0.603 5.869,-0.056 5.649,0.498 5.374,1.195 5.083,1.978 4.408,2.303 4.123,2.441 3.8,2.477 3.484,2.501 2.959,2.54 2.431,2.552 1.904,2.535 1.85,2.533 1.791,2.529 1.749,2.494 1.714,2.463 1.707,2.402 1.738,2.371 1.185,2.282 0.636,2.058 0.139,1.826 -0.097,1.716 -0.339,1.585 -0.475,1.364 c -0.136,-0.222 -0.12,-0.557 0.1,-0.696 -0.12,-0.372 -0.693,-0.444 -0.799,-0.819 -0.041,-0.143 0,-0.295 0.042,-0.437 0.076,-0.255 0.156,-0.508 0.241,-0.76"
             style="fill:#100f0d;fill-opacity:1;fill-rule:nonzero;stroke:none"
             id="path54845" />
        </g>
        <g
           id="g54847"
           transform="translate(194.535,601.782)">
          <path
             d="m 0,0 c 0.013,0.095 0.015,0.206 0.091,0.265 0.044,0.034 0.102,0.041 0.157,0.048 0.37,0.048 0.81,0.244 0.82,0.618 C 1.074,1.146 0.925,1.34 0.917,1.555 0.909,1.762 1.008,2.029 0.83,2.136 0.729,2.197 0.595,2.154 0.485,2.196 0.276,2.276 0.287,2.58 0.377,2.784 0.467,2.989 0.6,3.217 0.508,3.421 0.431,3.592 0.229,3.662 0.049,3.714 -0.511,3.876 -1.186,4.093 -1.773,3.949 -2.251,3.833 -2.388,3.31 -2.84,3.1 -3.108,2.975 -3.448,2.941 -3.613,2.695 -3.763,2.47 -3.695,2.17 -3.622,1.91 c 0.053,-0.188 0.106,-0.375 0.159,-0.563 0.101,-0.359 0.202,-0.719 0.327,-1.072 0.014,-0.039 0.029,-0.079 0.057,-0.11 0.098,-0.108 0.271,-0.041 0.414,-0.012 0.683,0.138 1.167,-0.79 1.864,-0.821 C -0.42,-0.685 -0.052,-0.378 0,0"
             style="fill:#100f0d;fill-opacity:1;fill-rule:nonzero;stroke:none"
             id="path54849" />
        </g>
        <g
           id="g54851"
           transform="translate(199.271,601.592)">
          <path
             d="M 0,0 C -0.177,0.063 -0.372,0.156 -0.551,0.097 -0.7,0.048 -0.269,-0.57 -0.316,-0.691 -0.463,-1.064 -0.52,-0.897 -0.402,-1.293 c 0.096,-0.322 0.224,-0.374 0.401,-0.68 0.106,-0.182 0.276,-0.267 0.488,-0.381 0.193,-0.104 0,-0.387 0.227,-0.341 0.163,0.032 0.327,0.065 0.49,0.098 0.313,0.063 0.627,0.126 0.934,0.204 0.034,0.009 0.069,0.018 0.096,0.037 0.095,0.064 0.459,0.624 0.436,0.72 -0.112,0.461 0.278,0.329 0.312,0.796 0.019,0.255 0.098,0.336 -0.229,0.376 C 2.67,-0.454 2.745,0.675 2.347,0.189 2.321,0.157 2.443,0.4 2.437,0.437 2.4,0.687 1.941,0.425 1.616,0.437 1.43,0.444 1.26,0.347 1.073,0.345 0.893,0.342 0.662,0.412 0.568,0.295 0.514,0.228 0.152,0.331 0.114,0.258 0.043,0.119 0.177,-0.063 0,0"
             style="fill:#100f0d;fill-opacity:1;fill-rule:nonzero;stroke:none"
             id="path54853" />
        </g>
        <g
           id="g54855"
           transform="translate(207.614,597.112)">
          <path
             d="M 0,0 C -0.057,0.03 -0.126,0.053 -0.177,0.021 -0.206,0.003 -0.225,-0.03 -0.254,-0.046 -0.361,-0.104 -0.519,0.076 -0.61,0.018 -0.614,0.02 -0.618,0.021 -0.622,0.022 c -0.24,0.067 -0.312,0.177 -0.555,0.186 -0.056,-0.374 -0.334,-0.676 -0.675,-0.733 -0.065,-0.011 -0.132,-0.015 -0.191,-0.044 -0.058,-0.029 -0.106,-0.093 -0.095,-0.165 0.005,-0.035 0.022,-0.068 0.026,-0.102 0.01,-0.086 -0.065,-0.148 -0.14,-0.169 -0.074,-0.021 -0.157,-0.021 -0.22,-0.066 0.064,-0.441 0.141,-0.909 0.415,-1.259 0.056,-0.072 0.121,-0.138 0.171,-0.216 0.045,-0.069 0.077,-0.146 0.116,-0.22 0.093,-0.179 0.353,-0.165 0.48,-0.32 0.019,-0.024 0.04,-0.049 0.068,-0.058 0.03,-0.011 0.532,0.042 0.56,0.054 0.369,0.147 0.478,0.101 0.654,0.482 0.04,0.088 0.077,0.184 0.152,0.236 0.072,0.05 -0.007,-0.022 0.074,0.008 0.163,0.06 0.262,0.23 0.35,0.39 C 0.773,-1.599 0.58,-1.036 0.46,-0.589 0.392,-0.338 0.218,-0.114 0,0"
             style="fill:#100f0d;fill-opacity:1;fill-rule:nonzero;stroke:none"
             id="path54857" />
        </g>
        <g
           id="g54859"
           transform="translate(208.631,602.731)">
          <path
             d="M 0,0 C -0.011,0.13 -0.019,0.269 -0.101,0.37 -0.189,0.478 -0.337,0.51 -0.459,0.578 -0.654,0.688 -0.776,0.891 -0.93,1.054 -1.396,1.551 -2.054,1.591 -2.636,1.864 -3.19,2.123 -3.582,2.249 -4.223,2.081 -4.704,1.954 -5.162,1.618 -5.29,1.136 -5.435,0.594 -5.14,0.04 -5.078,-0.518 c 0.049,-0.439 -0.053,-0.893 -0.284,-1.27 -0.154,-0.25 -0.371,-0.488 -0.379,-0.782 -0.004,-0.148 0.047,-0.292 0.108,-0.426 0.431,-0.944 1.435,-1.596 2.472,-1.606 0.487,-0.005 1.063,0.088 1.383,-0.279 0.12,-0.138 0.231,-0.348 0.411,-0.317 0.066,0.011 0.121,0.056 0.172,0.099 0.386,0.324 0.789,0.672 0.952,1.148 0.068,0.198 0.09,0.41 0.168,0.604 0.207,0.522 0.755,0.812 1.261,1.058 C 0.513,-1.72 0.076,-0.878 0,0"
             style="fill:#100f0d;fill-opacity:1;fill-rule:nonzero;stroke:none"
             id="path54861" />
        </g>
        <g
           id="g54863"
           transform="translate(212.078,604.987)">
          <path
             d="M 0,0 C -0.002,0.058 -0.044,0.106 -0.087,0.145 -0.291,0.327 -0.562,0.41 -0.804,0.535 -1.047,0.659 -1.285,0.862 -1.311,1.134 -1.318,1.219 -1.307,1.311 -1.354,1.382 -1.388,1.434 -1.448,1.463 -1.505,1.487 -1.598,1.527 -1.694,1.56 -1.79,1.589 -1.259,1.625 -0.727,1.66 -0.196,1.696 -0.954,1.704 -1.737,1.718 -2.425,2.035 -2.662,1.859 -2.982,1.8 -3.266,1.88 -3.437,1.928 -3.595,2.024 -3.772,2.048 -3.95,2.074 -4.129,2.025 -4.305,1.989 -5.034,1.839 -5.801,1.901 -6.506,2.139 -6.769,2.228 -7.063,2.34 -7.312,2.216 -7.426,2.159 -7.513,2.058 -7.623,1.993 -7.801,1.888 -8.019,1.884 -8.225,1.891 c -0.518,0.015 -1.034,0.073 -1.543,0.172 -0.423,0.083 -0.887,0.185 -1.28,0.048 -0.254,0.215 -0.328,0.394 -0.681,0.545 -0.369,-0.512 -1.056,-0.774 -1.673,-0.635 -0.116,0.026 -0.232,0.065 -0.351,0.061 -0.099,-0.005 -0.201,-0.051 -0.254,-0.132 -0.198,0.004 -0.395,0.007 -0.593,0.01 -0.557,0.009 -1.142,0.012 -1.631,-0.254 -0.102,0.108 -0.203,0.216 -0.305,0.325 -0.227,-0.227 -0.587,-0.235 -0.907,-0.228 -1.408,0 -2.802,0.098 -4.197,0.187 0,-0.441 0.707,-0.19 1.064,-0.347 0.253,-0.112 0.538,-0.116 0.814,-0.118 0.721,-0.005 1.442,-0.01 2.162,-0.015 0.905,-0.007 1.81,-0.013 2.715,-0.02 -0.199,-0.65 -0.376,-1.339 -0.186,-1.987 0.042,-0.144 0.102,-0.283 0.129,-0.43 0.024,-0.131 0.022,-0.266 0.032,-0.399 0.026,-0.325 0.472,-0.474 0.571,-0.784 0.015,-0.048 0.032,-0.098 0.071,-0.131 0.043,-0.036 0.925,-0.285 0.981,-0.287 0.726,-0.024 0.877,-0.164 1.451,0.282 0.132,0.102 0.264,0.219 0.429,0.247 0.157,0.026 -0.029,-0.027 0.13,-0.036 0.318,-0.018 0.608,0.167 0.873,0.345 0.62,0.416 0.709,1.37 0.836,2.106 0.042,0.24 0.014,0.49 -0.071,0.718 1.467,0.031 2.931,0.125 4.395,0.223 0.327,0.022 0.653,0.044 0.981,0.066 C -4.319,1.365 -4.364,1.296 -4.399,1.224 -4.632,0.752 -4.525,0.136 -4.147,-0.231 -3.87,-0.5 -3.45,-0.667 -3.338,-1.037 c 0.031,-0.102 0.035,-0.21 0.048,-0.315 0.083,-0.635 0.531,-1.152 0.959,-1.628 0.292,0.157 0.538,0.4 0.699,0.69 0.235,0.024 0.469,0.047 0.703,0.07 0.271,0.027 0.603,0.104 0.669,0.368 -0.109,0.045 -0.218,0.09 -0.327,0.135 0.199,0.141 0.327,0.379 0.335,0.623 0.005,0.134 -0.025,0.268 -0.023,0.402 0.003,0.187 0.07,0.372 0.185,0.518 C -0.048,-0.121 0.002,-0.067 0,0"
             style="fill:#100f0d;fill-opacity:1;fill-rule:nonzero;stroke:none"
             id="path54865" />
        </g>
        <g
           id="g54867"
           transform="translate(196.121,596.259)">
          <path
             d="m 0,0 c -0.199,0.104 -0.459,0.127 -0.582,0.314 -0.034,0.051 -0.054,0.11 -0.079,0.167 -0.15,0.338 -0.484,0.551 -0.8,0.745 C -1.597,1.09 -1.694,0.915 -1.735,0.727 -1.862,0.676 -1.988,0.624 -2.114,0.573 -2.26,0.513 -2.431,0.416 -2.424,0.258 -2.357,0.251 -2.289,0.244 -2.221,0.237 -2.308,0.126 -2.339,-0.027 -2.304,-0.164 c 0.02,-0.075 0.058,-0.144 0.079,-0.219 0.029,-0.104 0.023,-0.218 -0.017,-0.318 -0.014,-0.036 -0.033,-0.075 -0.021,-0.111 0.011,-0.032 0.042,-0.052 0.073,-0.066 0.142,-0.068 0.306,-0.069 0.462,-0.098 0.155,-0.029 0.32,-0.103 0.379,-0.249 0.019,-0.046 0.027,-0.099 0.065,-0.131 0.028,-0.023 0.066,-0.029 0.102,-0.033 0.193,-0.022 0.39,-0.009 0.578,0.038 l -0.322,-0.037 c 0.347,0.083 0.689,0.187 1.024,0.311 0.068,0.025 0.137,0.052 0.187,0.103 0.055,0.055 0.082,0.132 0.095,0.208 C 0.431,-0.465 0.27,-0.141 0,0"
             style="fill:#100f0d;fill-opacity:1;fill-rule:nonzero;stroke:none"
             id="path54869" />
        </g>
        <g
           id="g54871"
           transform="translate(197.582,598.305)">
          <path
             d="M 0,0 C 0.25,0.201 0.468,0.378 0.488,0.717 0.502,0.96 0.468,1.062 0.402,1.294 0.301,1.641 0.4,1.915 0.172,2.18 -0.425,2.875 -1.195,3.437 -2.159,3.25 -2.632,3.158 -3.055,2.852 -3.382,2.465 -3.422,2.418 -3.461,2.368 -3.481,2.307 -3.505,2.238 -3.5,2.161 -3.495,2.088 -3.462,1.58 -3.43,1.073 -3.397,0.565 c 0.008,-0.118 0.016,-0.239 0.066,-0.344 0.052,-0.107 0.141,-0.185 0.228,-0.26 0.218,-0.189 0.437,-0.378 0.655,-0.566 0.045,-0.039 0.094,-0.079 0.15,-0.083 0.07,-0.004 0.131,0.047 0.19,0.087 0.385,0.266 0.887,0.154 1.32,0.002 C -0.389,-0.74 -0.338,-0.272 0,0"
             style="fill:#100f0d;fill-opacity:1;fill-rule:nonzero;stroke:none"
             id="path54873" />
        </g>
        <g
           id="g54875"
           transform="translate(204.758,595.013)">
          <path
             d="m 0,0 c -0.065,0.151 -0.203,0.264 -0.272,0.414 -0.136,0.295 0.029,0.631 0.032,0.953 0.002,0.157 -0.037,0.314 -0.097,0.46 -0.291,0.707 -1.25,1.394 -1.997,1.63 -1.014,0.32 -2.285,0.056 -3.156,-0.494 0.076,0.13 0.107,0.284 0.085,0.432 C -5.547,3.13 -5.69,2.866 -5.832,2.601 -5.843,2.666 -5.854,2.731 -5.865,2.796 -5.964,2.695 -5.953,2.539 -5.98,2.403 -5.998,2.312 -6.035,2.226 -6.088,2.149 -6.246,1.922 -6.526,1.807 -6.745,1.633 -6.965,1.459 -7.129,1.14 -6.962,0.919 -7.299,0.754 -7.485,0.347 -7.385,-0.003 c 0.058,-0.203 0.2,-0.385 0.211,-0.595 0.004,-0.091 -0.014,-0.19 0.039,-0.265 0.039,-0.056 0.107,-0.084 0.164,-0.124 0.166,-0.116 0.223,-0.354 0.127,-0.528 0.115,0.006 0.223,0.076 0.273,0.175 0.041,-0.524 0.206,-1.04 0.478,-1.496 0.07,0.012 0.133,0.053 0.172,0.11 0.118,-0.259 0.404,-0.439 0.699,-0.439 0.173,0 0.385,0.041 0.485,-0.094 0.233,0.204 0.442,0.433 0.624,0.68 0.389,-0.318 1.035,0.048 1.485,-0.185 0.121,-0.062 0.218,-0.165 0.349,-0.205 0.13,-0.04 0.313,0.029 0.305,0.161 0.229,-0.228 0.623,-0.282 0.909,-0.125 0.286,0.157 0.437,0.51 0.349,0.815 0.133,0.261 0.39,0.461 0.683,0.531 0.03,0.406 -0.019,0.818 -0.142,1.207 0.17,0.001 0.24,0.229 0.175,0.38"
             style="fill:#100f0d;fill-opacity:1;fill-rule:nonzero;stroke:none"
             id="path54877" />
        </g>
      </g>
    </g>
  </g>
</svg>
