<svg width="24" height="24" viewBox="0 0 24 24" fill="#000000" xmlns="http://www.w3.org/2000/svg">
  <path d="M15.75 7.27016C15.7289 7.23659 15.7115 7.19182 15.6841 7.16198C15.612 7.07992 15.5847 7.065 15.5287 6.95931C15.4641 6.83497 15.4007 6.71809 15.3372 6.59002C15.2875 6.48806 15.2017 6.26425 15.0736 6.23565C15.0202 6.22446 14.9244 6.23814 14.8722 6.24311C14.7429 6.25679 14.6347 6.29782 14.5067 6.25679C14.386 6.21825 14.2617 6.15981 14.1548 6.09142C14.0789 6.04168 14.0255 5.96335 13.9459 5.91734C13.8389 5.98449 13.87 6.17721 13.824 6.27544C13.7818 6.36497 13.7034 6.42838 13.6686 6.52412C13.6375 6.60618 13.6126 6.65716 13.5579 6.72555C13.3739 6.95309 13.2297 7.1968 13.1091 7.46288C13.0394 7.61831 12.9537 7.76503 12.8828 7.91921C12.8231 8.05225 12.8082 8.17162 12.7174 8.28725C12.6217 8.40911 12.5011 8.51604 12.4153 8.64287C12.3705 8.70877 12.3382 8.77218 12.2847 8.83311C12.2051 8.92387 12.1504 9.00345 12.0509 9.06811C11.939 9.13898 11.8197 9.19369 11.709 9.26332C11.6928 9.27451 11.6767 9.28446 11.6618 9.29565C11.6767 9.28943 11.6891 9.28446 11.7065 9.27824C11.6145 9.323 11.5735 9.44112 11.5076 9.51324C11.4628 9.56298 11.4106 9.63136 11.3609 9.67488C11.2676 9.75943 11.1308 9.7843 11.0562 9.89994C11.1731 9.98324 10.6969 10.3525 10.6011 10.4259C10.5067 10.4993 10.4519 10.5751 10.3786 10.6659C10.3239 10.733 10.2468 10.7927 10.1859 10.8561C10.1013 10.9419 10.0006 11.0177 9.91231 11.1048C9.85263 11.1632 9.81408 11.1757 9.75067 11.2154C9.70839 11.244 9.71212 11.2565 9.68601 11.2988C9.66114 11.3385 9.61638 11.3883 9.60022 11.4318C9.5567 11.5412 9.54675 11.6743 9.52934 11.7887C9.49577 11.9951 9.38138 12.097 9.2272 12.2127C9.14514 12.2736 9.07177 12.3258 9.01458 12.4116C8.97355 12.4725 8.94744 12.5409 8.90765 12.6006C8.82185 12.7287 8.71492 12.8145 8.60675 12.9214C8.49857 13.0296 8.38791 13.139 8.28098 13.2484C8.15912 13.3727 8.0037 13.4523 7.86071 13.5605C7.70404 13.6786 7.55608 13.8042 7.40438 13.9273C7.22658 14.0728 7.00525 14.1909 6.84113 14.35C6.79761 14.3923 6.7603 14.4408 6.72549 14.4905C6.62104 14.8648 6.47681 15.2192 6.20948 15.5338C5.82154 15.9888 5.40873 16.485 4.99717 16.9139C4.82807 17.0905 4.60053 17.1676 4.39412 17.2857C4.05219 17.4834 4.13674 17.5443 3.97013 17.839C3.94153 17.89 3.91293 17.936 3.88558 17.9808C3.79357 18.2841 3.62819 18.5179 3.36584 18.7728C2.99904 19.1297 2.80507 19.5972 2.442 19.954C2.24927 20.143 2.018 20.2437 1.79667 20.3917C1.57659 20.5384 1.46469 20.6864 1.3391 20.858C1.32543 20.9226 1.30553 20.945 1.25828 21.0109C1.13768 21.175 1.04691 21.3665 0.918837 21.5232C0.857911 21.5965 0.799472 21.6799 0.738546 21.7507C0.690053 21.8067 0.607989 21.8079 0.547062 21.8564C0.478676 21.9099 0.410289 21.936 0.344389 21.9944C0.216319 22.1063 0.116849 22.2282 -3.05176e-05 22.3513C0.052192 22.4209 0.147933 22.3625 0.21632 22.3886C0.310818 22.4222 0.411533 22.5428 0.463756 22.6211C0.576905 22.7877 0.709947 22.9593 0.851694 23.1023C0.942462 23.1931 1.03074 23.3075 1.15633 23.356C1.20109 23.3734 1.22471 23.3709 1.27321 23.3734C1.35278 23.3783 1.35776 23.3933 1.41993 23.4318C1.49453 23.4803 1.53059 23.4679 1.60022 23.5412C1.66736 23.6108 1.72953 23.6917 1.8004 23.7601C1.88744 23.8446 1.9894 23.9055 2.10504 23.9428C2.16596 23.9627 2.22689 23.9814 2.28782 24C2.74787 23.5474 3.30118 23.1757 3.84579 22.8126C3.95894 22.6945 4.07706 22.5701 4.16907 22.4396C4.24989 22.3264 4.27476 22.3065 4.28222 22.2021C4.29341 22.0392 4.31206 21.7793 4.44013 21.6562C4.64778 21.4585 4.88402 21.2583 5.01209 20.9972C5.04691 20.9251 5.0954 20.8592 5.13892 20.7859C5.26201 20.5795 5.41744 20.3842 5.55297 20.1865C5.65368 20.0411 5.76186 19.9006 5.86133 19.7551C5.89863 19.7004 5.93469 19.6457 5.97075 19.5922C6.03292 19.4803 6.08265 19.3622 6.11871 19.2391C6.15353 19.1682 6.16596 19.1122 6.21818 19.0476C6.27538 18.978 6.32263 18.9096 6.3761 18.8362C6.47184 18.7044 6.58374 18.5838 6.6857 18.457C6.87221 18.2269 6.99033 18.0156 7.1184 17.7545C7.18306 17.6251 7.24647 17.4946 7.32481 17.3727C7.50758 17.0868 7.75129 16.9326 8.01613 16.7075C8.29963 16.4675 8.57939 16.2139 8.83677 15.9441C9.03323 15.7402 9.0867 15.6494 9.21228 15.4417C9.26574 15.3522 9.35403 15.2888 9.43112 15.2179C9.49826 15.157 9.52188 15.152 9.58654 15.1185C9.67358 15.0749 9.75315 15.0041 9.83646 14.9518C10.064 14.8064 10.2754 14.6845 10.4122 14.4433C10.5253 14.2431 10.5614 14.0292 10.7081 13.8477C10.7964 13.7383 10.8871 13.6326 10.9816 13.5294C11.2129 13.277 11.4293 13.0134 11.6357 12.7411C11.7227 12.6267 11.7612 12.4899 11.8806 12.4128C12.0497 12.3034 12.1927 12.148 12.3431 12.015C12.5483 11.8347 12.787 11.6867 12.9785 11.4915C13.165 11.3012 13.3627 11.0513 13.4871 10.8151C13.5269 10.7392 13.589 10.6422 13.6127 10.5614C13.6288 10.508 13.6127 10.4545 13.6288 10.3998C13.6562 10.3078 13.7246 10.1896 13.7606 10.1026C13.8663 9.85518 14.0068 9.63012 14.1933 9.43118C14.401 9.20985 14.5328 8.92387 14.7516 8.71747C14.8312 8.64286 14.9294 8.60059 15.0102 8.51853C15.0724 8.45511 15.1122 8.37056 15.1731 8.31958C15.2601 8.24747 15.3422 8.16043 15.428 8.08085C15.4852 8.02863 15.5436 7.97019 15.6033 7.92294C15.6145 7.91299 15.6493 7.89683 15.6618 7.8844C15.6953 7.84834 15.6966 7.79238 15.7326 7.75757C15.7525 7.73892 15.7849 7.73519 15.8023 7.71902C15.8421 7.68172 15.8731 7.61582 15.9005 7.56857C15.9415 7.50019 15.9714 7.41688 16.0211 7.35844C15.9987 7.3746 15.8818 7.43429 15.8545 7.42558C15.8271 7.41564 15.7699 7.30124 15.75 7.27016Z"/>
  <path d="M22.6756 15.019C22.7079 15.1035 22.739 15.1881 22.7664 15.2726C22.7801 15.3149 22.7925 15.3559 22.8049 15.397C22.8298 15.4741 22.8522 15.5524 22.8721 15.6295C22.8833 15.673 22.8932 15.7165 22.9044 15.76C22.9591 15.9938 22.9989 16.2313 23.0163 16.475C23.0287 16.4949 23.0437 16.5123 23.0549 16.5322C23.1245 16.659 23.1867 16.8157 23.2749 16.9288C23.2787 16.9338 23.2824 16.9388 23.2861 16.9425C23.2986 17.0246 23.311 17.1253 23.352 17.1676C23.3682 17.1439 23.3819 17.1178 23.3918 17.0905C23.3931 17.093 23.3943 17.0942 23.3955 17.0955C23.4117 17.1241 23.4204 17.1626 23.4527 17.1651C23.4838 17.0793 23.4602 16.945 23.4602 16.8542V16.5459C23.4602 16.5434 23.4614 16.5409 23.4614 16.5384C23.4789 16.4091 23.459 16.2661 23.4602 16.1343C23.4627 15.9055 23.3881 15.7066 23.3595 15.4853C23.3371 15.3 23.2812 15.1234 23.2588 14.9407C23.2463 14.8374 23.2003 14.7405 23.1593 14.6485C23.1282 14.5179 23.1257 14.3799 23.1071 14.2481C23.0586 13.9236 23.0225 13.599 22.933 13.2832C22.8547 13.0072 22.7676 12.7336 22.7092 12.4526C22.6868 12.3444 22.6408 12.2412 22.6346 12.1331C22.6246 11.9602 22.504 11.7849 22.4257 11.632C22.3312 11.4467 22.2181 11.2714 22.131 11.0824C22.0713 10.9543 22.0191 10.8238 21.9532 10.6982C21.855 10.5117 21.753 10.3214 21.6461 10.1374C21.6448 10.1262 21.6436 10.115 21.6411 10.1038C21.6113 9.96334 21.5466 9.839 21.4695 9.72088C21.4646 9.70472 21.4596 9.6898 21.4546 9.67363C21.4235 9.58038 21.3937 9.48712 21.3638 9.39511C21.3328 9.30061 21.3228 9.1999 21.283 9.10789C21.1935 8.90646 21.0256 8.73736 20.8963 8.56204C20.7695 8.39045 20.6588 8.20518 20.537 8.02862C20.4698 7.78989 20.3927 7.55364 20.2771 7.32735C20.2659 7.30372 20.2547 7.2801 20.2435 7.25647C20.2125 7.20425 20.1926 7.1483 20.1851 7.08737C20.1155 6.97174 19.8743 6.82253 19.8146 6.77777C19.5895 6.60742 19.4005 6.45448 19.2264 6.23192C19.0884 6.05411 18.9243 5.90117 18.7403 5.76813C18.6445 5.69974 18.5948 5.70845 18.4804 5.71218C18.2752 5.71839 18.0502 5.73456 17.8463 5.7072C17.7331 5.69228 17.6996 5.64006 17.6299 5.55924C17.4981 5.40755 17.426 5.20487 17.3042 5.04447C17.2482 4.96863 17.1786 4.90397 17.1176 4.83185C17.007 4.70006 16.9249 4.54712 16.8143 4.41407C16.6961 4.27357 16.5805 4.12685 16.4325 4.01743C16.2721 3.89807 16.2137 3.89185 16.0148 3.89682C15.8718 3.9018 15.786 3.90677 15.6952 3.78865C15.5734 3.62825 15.4565 3.46536 15.3359 3.30497C15.0785 2.96055 14.6321 2.89216 14.2193 2.83621C14.1484 2.79269 14.0813 2.73674 14.0005 2.73301C13.9967 2.62359 13.86 2.53406 13.7816 2.47438C13.7369 2.44081 13.6859 2.38734 13.6312 2.37366C13.5852 2.36123 13.5591 2.36869 13.5143 2.34009C13.436 2.28663 13.3763 2.18467 13.3066 2.11752C13.2756 2.0852 13.2159 1.98199 13.1736 1.97205C13.1027 1.95837 13.0393 2.07152 12.9635 2.06157C12.8851 2.05162 12.8267 1.9049 12.7956 1.84771C12.7595 1.86014 12.7508 1.90366 12.7135 1.91734C12.6128 1.81538 12.5494 1.68234 12.445 1.58659C12.4388 1.60525 12.43 1.6239 12.4201 1.6413C12.3729 1.60525 12.3691 1.54183 12.3356 1.49707C12.3181 1.47345 12.2908 1.45355 12.2709 1.43117C12.1876 1.49334 12.1093 1.36776 12.062 1.31927C11.9762 1.22974 11.9638 1.16881 11.8444 1.19368C11.5932 1.24715 11.3645 1.20985 11.1158 1.16881C11.0275 1.09918 10.938 1.03328 10.8422 0.973602C10.5886 0.816934 10.3051 0.68389 10.0328 0.563281C9.79778 0.458836 9.54537 0.381745 9.3054 0.290977C9.29172 0.286004 9.27804 0.282274 9.26437 0.277301C8.87021 0.312116 8.48227 0.293464 8.16769 0.0646795C8.13288 0.0783568 8.09806 0.0895481 8.05703 0.095765C7.99238 0.105712 7.93021 0.101982 7.87052 0.0907918C7.65044 0.164152 7.42539 0.14923 7.21401 0.0733832C7.11081 0.111928 6.99144 0.109442 6.88575 0.0858174C6.8211 0.0708967 6.76266 0.0398115 6.71168 2.28882e-05C6.55004 0.113172 6.33617 0.130579 6.14842 0.0385683C6.04771 0.143013 5.93456 0.235026 5.82389 0.319576C5.50559 0.564525 5.32032 0.762224 5.19225 1.12032C5.12884 1.17006 5.06915 1.22601 5.00823 1.27699C4.93735 1.33667 4.89757 1.39884 4.84161 1.47469C4.74338 1.60898 4.70608 1.74948 4.65137 1.90366C4.64143 1.92977 4.59418 2.04541 4.61532 2.08271C4.63894 2.12498 4.66878 2.11131 4.71603 2.11131C4.82669 2.10882 4.92243 2.11255 5.02937 2.08768C5.15495 2.0566 5.25815 2.04416 5.38622 2.04541C5.43471 2.04541 5.47823 2.04665 5.52548 2.03795C5.63117 2.01681 5.71696 2.0193 5.82514 2.01432C5.93829 2.00811 6.01289 1.95837 6.11236 2.00438C6.23794 2.06033 6.36104 2.08022 6.50527 2.07898C6.78006 2.07525 7.06605 2.10758 7.33338 2.05287C7.39057 2.04043 7.44404 2.04416 7.49626 2.05287C7.50248 2.06033 7.50994 2.06903 7.51615 2.07401C7.71261 2.2543 7.99362 2.37491 8.14158 2.60618C8.18013 2.66586 8.19878 2.73176 8.25846 2.77777C8.32933 2.83123 8.4201 2.80761 8.51584 2.80637C8.77323 2.80637 9.0331 2.79766 9.29172 2.80512C9.47326 2.81134 9.65355 2.85361 9.82638 2.90584C9.87985 2.922 9.93083 2.9419 9.97932 2.97049C10.0738 3.02645 10.1621 3.11224 10.2529 3.17565C10.3237 3.22539 10.3635 3.24653 10.4195 3.30124C10.6222 3.50142 10.9479 3.46039 11.209 3.52629C11.4067 3.57603 11.5995 3.65312 11.7984 3.7041C11.9314 3.73767 11.9849 3.74015 12.0371 3.86574C12.0744 3.9565 12.1117 3.99505 12.2187 3.99629C12.3281 3.99754 12.44 4.02986 12.5333 4.09452C12.588 4.13307 12.6476 4.19772 12.7073 4.22135C12.7496 4.23876 12.8317 4.2487 12.8764 4.25616C12.9709 4.27233 12.9436 4.27357 13.0008 4.35812C13.0406 4.41656 13.0978 4.46257 13.1351 4.52225C13.1935 4.61799 13.2482 4.71746 13.2979 4.81818C13.4273 4.81693 13.5541 4.75352 13.6871 4.75476C13.7468 4.75476 13.8102 4.74855 13.8687 4.75725C13.9259 4.7672 13.9781 4.79953 14.0253 4.8132C14.0614 4.82439 14.1136 4.80574 14.1223 4.85175C14.1285 4.89029 14.0664 4.92387 14.0502 4.95122C13.9992 5.0395 13.9395 5.17503 13.9221 5.27575C14.0775 5.38143 14.3038 5.38641 14.4729 5.4722C14.6259 5.54929 14.8149 5.63136 14.9803 5.64876C15.0735 5.65747 15.219 5.70845 15.2998 5.75321C15.3632 5.78927 15.408 5.83652 15.4602 5.88501C15.4913 5.91361 15.5485 5.92853 15.5734 5.95961C15.5932 5.98448 15.592 6.01059 15.6057 6.03795C15.6579 6.14861 15.7661 6.23192 15.827 6.34009C15.8382 6.35999 15.8407 6.3861 15.8519 6.40475C15.8693 6.43335 15.919 6.46816 15.9426 6.49676C15.9911 6.55396 16.0297 6.61986 16.0744 6.68203C16.113 6.73673 16.154 6.75787 16.1888 6.80761C16.2473 6.89092 16.3094 7.04012 16.3231 7.13711C16.3306 7.19182 16.3132 7.25523 16.3691 7.29004C16.43 7.32859 16.5084 7.27264 16.5668 7.26269C16.6265 7.2515 16.7024 7.26393 16.7633 7.26393C16.8603 7.26393 16.9572 7.26145 17.0542 7.26269C17.1239 7.26393 17.1835 7.27885 17.2532 7.29004C17.3029 7.29751 17.3725 7.28258 17.4161 7.30372C17.4148 7.31864 17.4074 7.3261 17.3937 7.32735C17.4832 7.37211 17.5814 7.40444 17.671 7.4492C17.7891 7.50764 17.9072 7.60338 18.0129 7.68171C18.1161 7.7588 18.228 7.82222 18.3262 7.90677C18.3996 7.96894 18.4966 7.98386 18.5712 8.03981C18.6197 8.07587 18.6694 8.14674 18.7067 8.19524C18.7378 8.23627 18.7763 8.28352 18.7751 8.33698C18.7738 8.39169 18.7341 8.43024 18.7378 8.48619C18.744 8.6155 18.9852 8.65156 19.0698 8.73736C19.1506 8.81818 19.2339 8.92387 19.2973 9.01836C19.3582 9.10789 19.3371 9.22601 19.3458 9.33294C19.4403 9.369 19.5273 9.43366 19.5982 9.53562C19.8121 9.84522 20.0496 10.0703 20.2697 10.3165C20.3144 10.3662 20.3579 10.4172 20.4015 10.4694C20.4139 10.4856 20.4251 10.5017 20.4375 10.5179C20.4698 10.5589 20.5022 10.6 20.5333 10.6435C20.5544 10.6746 20.5755 10.7094 20.5967 10.743C20.6166 10.7753 20.6389 10.8064 20.6588 10.8412C20.6986 10.9121 20.7372 10.9867 20.7732 11.0675C21.1176 11.8533 21.4248 12.6205 21.8562 13.3653C21.9594 13.5431 22.0589 13.7209 22.1546 13.8999C22.177 13.941 22.1982 13.9832 22.2205 14.0243C22.2976 14.1722 22.371 14.3202 22.4419 14.4694C22.4543 14.498 22.4692 14.5254 22.4816 14.5527C22.4854 14.5614 22.4904 14.5714 22.4941 14.5801C22.5463 14.6945 22.5948 14.8101 22.6408 14.9257C22.6532 14.9568 22.6644 14.9879 22.6756 15.019Z"/>
  <path d="M21.6897 15.0351C21.6822 15.0625 21.671 15.0874 21.6623 15.1135C21.6635 15.1197 21.666 15.1247 21.6685 15.1309C21.6747 15.1023 21.681 15.0712 21.6897 15.0351Z"/>
  <path d="M21.9959 18.5602C21.9809 18.5104 21.9747 18.4445 21.9548 18.3985C21.9362 18.355 21.8902 18.3215 21.8628 18.2804C21.7248 18.0715 21.7223 17.834 21.7223 17.5903C21.7223 17.461 21.7335 17.3653 21.6813 17.2546C21.6539 17.1974 21.6253 17.1365 21.5992 17.0756C21.5619 16.991 21.5632 16.9065 21.5582 16.8157C21.5532 16.7137 21.5234 16.6242 21.5246 16.5185C21.5259 16.4017 21.491 16.3544 21.4351 16.2549C21.3729 16.1468 21.317 16.0634 21.3244 15.9304C21.3319 15.8173 21.4015 15.6942 21.4475 15.5922C21.5196 15.4281 21.603 15.2776 21.6626 15.1123C21.649 15.0687 21.6316 15.0289 21.6154 15.0066C21.5395 14.9083 21.45 14.8089 21.4077 14.687C21.3518 14.5279 21.307 14.3463 21.261 14.1785C21.22 14.0367 21.1839 13.8776 21.1615 13.7321C21.1479 13.6413 21.1404 13.5394 21.0944 13.4573C21.0944 13.5593 21.1292 13.6376 21.128 13.7395C21.128 13.8415 21.128 13.9435 21.128 14.0454V14.6472C21.128 14.8163 21.1392 14.9879 21.1329 15.1558C21.1267 15.3373 21.0546 15.4654 20.9999 15.632C20.9539 15.7737 20.9464 15.9453 20.9676 16.0945C20.99 16.2649 21.0658 16.4091 21.0621 16.5857C21.0596 16.7473 21.0546 16.9114 21.0608 17.0731C21.0658 17.1962 21.0869 17.3827 21.1367 17.4971C21.1889 17.6177 21.2536 17.7445 21.2623 17.88C21.271 18.0206 21.2772 18.1847 21.2548 18.3252C21.2362 18.4408 21.1951 18.5378 21.1914 18.6584C21.1839 18.978 21.2374 19.3075 21.1367 19.6158C21.1155 19.6792 21.082 19.7476 21.0683 19.8135C21.0596 19.8608 21.0683 19.9068 21.0559 19.954C21.0248 20.0672 20.9626 20.1841 20.9241 20.296C20.8718 20.4464 20.796 20.5683 20.7972 20.7299C20.7985 20.7971 20.7985 20.8642 20.7985 20.9313C20.7985 21.0072 20.7749 21.1377 20.8022 21.2123C20.8333 21.2932 20.9377 21.3951 21.0223 21.4076C21.1727 21.4275 21.358 21.4187 21.506 21.3814C21.6104 21.3553 21.731 21.3479 21.823 21.2845C21.9101 21.2235 21.8877 21.1353 21.8877 21.0408C21.8877 20.9574 21.9026 20.8605 21.8889 20.7784C21.8765 20.6976 21.8541 20.6354 21.8541 20.5521C21.8554 20.4601 21.8554 20.3681 21.8554 20.2761C21.8541 20.1691 21.8877 20.0759 21.8877 19.9702C21.8877 19.8508 21.9213 19.7451 21.92 19.622C21.92 19.5263 21.925 19.4455 21.9461 19.3572C21.9896 19.1757 22.0841 19.0277 22.0456 18.8275C22.0282 18.738 22.022 18.646 21.9959 18.5602Z"/>
  <path d="M21.692 15.2677C21.6933 15.2366 21.6833 15.1819 21.6684 15.1297C21.605 15.4393 21.6883 15.3373 21.692 15.2677Z"/>
  <path d="M18.8497 9.33919C18.8124 9.22853 18.7391 9.11165 18.7515 8.99353C18.7341 9.36406 18.8211 9.44488 18.851 9.50456C18.8808 9.56673 18.9156 9.6376 18.9492 9.70475C18.9778 9.76443 18.9977 9.82411 19.0164 9.88504C19.0164 9.87634 19.0164 9.86763 19.0164 9.85893C19.0164 9.67118 18.9094 9.51451 18.8497 9.33919Z"/>
  <path d="M19.4453 11.51C19.4528 11.2514 19.3197 11.0375 19.2787 10.7913C19.2675 10.7242 19.2737 10.7217 19.2402 10.6446C19.1755 10.4979 19.1755 10.3375 19.1146 10.1895C19.0736 10.0876 19.0474 9.98575 19.0164 9.88504C19.0176 10.0467 19.0288 10.2107 19.0213 10.3711C19.0101 10.5688 18.9368 10.7851 18.8908 10.9716C18.8684 11.0624 18.8684 11.1867 18.9082 11.2713C18.9281 11.316 18.9492 11.3521 18.9654 11.3993C18.989 11.464 18.994 11.5448 19.0151 11.6058C19.0338 11.6567 19.0512 11.7201 19.0847 11.7662C19.1158 11.8109 19.1395 11.8271 19.1494 11.8818C19.1506 11.8917 19.1506 11.9029 19.1494 11.9129C19.1618 11.8619 19.2004 11.8383 19.2526 11.7935C19.3633 11.6978 19.4416 11.6567 19.4453 11.51Z"/>
  <path d="M19.1477 11.9888C19.1477 11.9652 19.1502 11.9391 19.1502 11.9142C19.1453 11.9341 19.144 11.9577 19.1477 11.9888Z"/>
  <path d="M19.6936 16.899C19.6662 16.8157 19.6526 16.756 19.6401 16.669C19.6302 16.6006 19.6215 16.5198 19.6028 16.4539C19.5805 16.3718 19.5444 16.3208 19.5432 16.2301C19.5419 16.148 19.5432 16.0659 19.5432 15.9826V15.7277C19.5432 15.6606 19.5606 15.5462 19.5357 15.4815C19.4623 15.5412 19.4773 15.7066 19.4773 15.7974C19.4773 15.9031 19.4971 16.0373 19.4785 16.1418C19.4474 16.3171 19.3156 16.4676 19.3131 16.6528L19.4449 16.4874C19.43 16.5745 19.3678 16.664 19.3355 16.7473C19.3082 16.8219 19.3193 16.8393 19.338 16.9177C19.3504 16.9662 19.338 17.0147 19.3479 17.0631C19.3604 17.1154 19.379 17.1328 19.3778 17.1999C19.3778 17.2559 19.3666 17.3255 19.3778 17.379C19.3952 17.4573 19.4027 17.4449 19.4847 17.4449C19.5854 17.4449 19.5966 17.4424 19.6687 17.369C19.6961 17.3417 19.7321 17.318 19.7433 17.282C19.7545 17.2434 19.7471 17.1701 19.7396 17.1315C19.7247 17.0607 19.716 16.9686 19.6936 16.899Z"/>
  <path d="M23.4204 19.0687C23.1742 18.7541 23.2837 18.36 23.2016 17.9982C23.183 17.9136 23.1208 17.8514 23.0785 17.7793C23.0126 17.6674 22.9243 17.5369 22.8858 17.4125C22.8572 17.323 22.8485 17.2571 22.846 17.1626C22.846 17.1601 22.8447 17.1576 22.8447 17.1551C22.8447 17.3404 22.8435 17.5244 22.8447 17.7085C22.846 17.8788 22.8161 18.0728 22.8783 17.7756C22.9032 17.9285 22.8211 18.1436 22.7801 18.2904C22.7254 18.4831 22.6955 18.6795 22.5998 18.8586C22.5438 18.9655 22.5028 19.0364 22.5128 19.1582C22.519 19.2416 22.5662 19.4082 22.652 19.4529C22.7391 19.4977 22.9281 19.4592 23.03 19.4592C23.0959 19.4592 23.1755 19.4716 23.2389 19.4542C23.4217 19.4032 23.5435 19.2266 23.4204 19.0687Z"/>
  <path d="M22.8104 16.9275C22.8154 17.0096 22.841 17.0768 22.8447 17.1551L22.8452 17.114C22.8452 17.0506 22.8701 16.9698 22.8104 16.9275Z"/>
  <path d="M18.5961 14.2866C18.5687 14.1561 18.5177 14.033 18.4767 13.9074C18.4568 13.8465 18.4381 13.8316 18.4133 13.7843C18.3747 13.7122 18.3635 13.6289 18.3399 13.5518C18.2952 13.4113 18.2442 13.2683 18.2268 13.1216C18.2143 13.0283 18.2056 12.9338 18.1857 12.8406C18.1596 12.7137 18.1671 12.5832 18.1323 12.4588C18.1149 12.3942 18.1024 12.3295 18.0788 12.2661C18.0316 12.1443 17.952 12.0473 17.9246 11.9205C17.9122 11.8595 17.8935 11.8098 17.8923 11.7476C17.8923 11.7016 17.9172 11.6158 17.8674 11.6022C17.8363 11.6817 17.8662 11.7924 17.8537 11.8782C17.8339 12.0237 17.7928 12.1592 17.7928 12.3072C17.7941 12.4265 17.763 12.5956 17.7928 12.7075C17.8053 12.7573 17.8401 12.7585 17.8587 12.8045C17.8736 12.8443 17.86 12.9127 17.86 12.955C17.86 13.0321 17.8276 13.1987 17.9259 13.0544C17.9259 13.1253 17.9284 13.1949 17.9271 13.2658C17.9259 13.3914 17.8861 13.4822 17.8662 13.6003C17.8525 13.6736 17.8662 13.7395 17.8612 13.8104C17.855 13.895 17.8251 13.9845 17.7941 14.0628C17.7157 14.2605 17.6983 14.4644 17.7692 14.6646C17.8152 14.7952 17.9296 14.917 17.9557 15.0613C17.9855 15.2217 17.8687 15.3435 17.8339 15.4927C17.804 15.6258 17.8276 15.7775 17.8276 15.9155C17.8276 15.9777 17.8214 16.0448 17.8264 16.107C17.8301 16.1654 17.8612 16.2077 17.8774 16.2562C17.9109 16.3519 17.9122 16.6914 18.0726 16.5919C18.1236 16.5596 18.2193 16.4912 18.2442 16.4365C18.269 16.3855 18.2529 16.3183 18.2616 16.2624C18.2927 16.0485 18.4083 15.8732 18.4742 15.673C18.5239 15.5201 18.5973 15.3957 18.6508 15.2503C18.6881 15.1496 18.7477 15.0687 18.7676 14.9693C18.7913 14.8536 18.7067 14.7094 18.6682 14.59C18.6371 14.4918 18.6172 14.3874 18.5961 14.2866Z"/>
  <path d="M16.2132 3.45662C16.2717 3.50387 16.3264 3.53744 16.3811 3.58966C16.4358 3.64064 16.5079 3.68292 16.5713 3.73017C16.6322 3.77617 16.6857 3.81969 16.7479 3.86072C16.8436 3.92414 16.9319 4.00247 17.0264 4.06837C17.1085 4.12681 17.1681 4.13551 17.2651 4.15789C17.3049 4.16784 17.3397 4.18774 17.3745 4.21012C17.3783 4.22131 17.382 4.23125 17.3857 4.24244C17.4019 4.29218 17.4007 4.32202 17.4081 4.373C17.4156 4.41403 17.4293 4.46999 17.4442 4.50978C17.4479 4.52097 17.4765 4.59557 17.4827 4.5993C17.5138 4.62168 17.5698 4.60054 17.6046 4.60303C17.6643 4.60925 17.7302 4.62914 17.7861 4.64779C17.8184 4.65774 17.8557 4.6739 17.8818 4.6938C17.9167 4.72115 17.9129 4.76591 17.9664 4.7684C17.9813 4.73234 17.9714 4.68758 17.9776 4.64779C17.9875 4.59557 18.0099 4.53091 18.0286 4.47993C18.0634 4.38792 18.1305 4.32575 18.1815 4.24244C18.2437 4.14173 18.3568 4.03231 18.378 3.91543C18.3879 3.86197 18.3805 3.82839 18.4115 3.77866C18.4178 3.76747 18.521 3.62448 18.5122 3.62199C18.4501 3.60831 18.4115 3.59961 18.3755 3.54366C18.322 3.46532 18.286 3.38326 18.2288 3.30617C18.1579 3.21167 18.0845 3.11344 18.0211 3.0177C17.9863 2.96548 17.949 2.88093 17.8955 2.84363C17.8644 2.82124 17.8296 2.82622 17.7874 2.82249C17.7065 2.81503 17.6294 2.80259 17.5523 2.77773C17.4131 2.73172 17.2676 2.63847 17.152 2.5477C17.1159 2.52034 17.096 2.50542 17.055 2.49423C17.0351 2.48926 17.0115 2.49672 16.9903 2.49175C16.9692 2.48802 16.9642 2.45942 16.9394 2.45817C16.8511 2.4532 16.7715 2.62603 16.7205 2.67701C16.6733 2.72675 16.6186 2.74913 16.5738 2.80757C16.5067 2.89336 16.4694 2.97667 16.4209 3.04879C16.3699 3.06122 16.3189 3.06992 16.2629 3.06992C16.1722 3.06992 16.1523 3.06122 16.0901 3.13334C16.0429 3.1868 16.0267 3.2241 16.0478 3.29374C16.1311 3.29 16.156 3.41061 16.2132 3.45662Z"/>
</svg>
