<?xml version="1.0" encoding="UTF-8" standalone="no"?>
<!-- Created with Inkscape (http://www.inkscape.org/) -->

<svg
   width="23.470282"
   height="24"
   viewBox="0 0 6.2098453 6.35"
   version="1.1"
   id="svg56766"
   inkscape:version="1.2.1 (9c6d41e4, 2022-07-14)"
   sodipodi:docname="left-behind.svg"
   xmlns:inkscape="http://www.inkscape.org/namespaces/inkscape"
   xmlns:sodipodi="http://sodipodi.sourceforge.net/DTD/sodipodi-0.dtd"
   xmlns="http://www.w3.org/2000/svg"
   xmlns:svg="http://www.w3.org/2000/svg">
  <sodipodi:namedview
     id="namedview56768"
     pagecolor="#505050"
     bordercolor="#eeeeee"
     borderopacity="1"
     inkscape:showpageshadow="0"
     inkscape:pageopacity="0"
     inkscape:pagecheckerboard="0"
     inkscape:deskcolor="#505050"
     inkscape:document-units="mm"
     showgrid="false"
     inkscape:zoom="0.7046647"
     inkscape:cx="-97.918911"
     inkscape:cy="222.09144"
     inkscape:window-width="1390"
     inkscape:window-height="941"
     inkscape:window-x="0"
     inkscape:window-y="25"
     inkscape:window-maximized="0"
     inkscape:current-layer="layer1" />
  <defs
     id="defs56763">
    <clipPath
       clipPathUnits="userSpaceOnUse"
       id="clipPath54591">
      <path
         d="m 65.076,557.439 h 24.699 v 24.699 H 65.076 Z"
         id="path54589" />
    </clipPath>
  </defs>
  <g
     inkscape:label="Layer 1"
     inkscape:groupmode="layer"
     id="layer1"
     transform="translate(-130.93933,-89.942574)">
    <g
       id="g54585"
       transform="matrix(0.32898145,0,0,-0.32898145,108.24908,280.87288)">
      <g
         id="g54587"
         clip-path="url(#clipPath54591)">
        <g
           id="g54593"
           transform="translate(81.6382,574.521)">
          <path
             d="M 0,0 C -0.017,0.027 -0.031,0.063 -0.053,0.087 -0.111,0.153 -0.133,0.165 -0.178,0.25 -0.23,0.35 -0.281,0.444 -0.332,0.547 -0.372,0.629 -0.441,0.809 -0.544,0.832 -0.587,0.841 -0.664,0.83 -0.706,0.826 -0.81,0.815 -0.897,0.782 -1,0.815 -1.097,0.846 -1.197,0.893 -1.283,0.948 -1.344,0.988 -1.387,1.051 -1.451,1.088 -1.537,1.034 -1.512,0.879 -1.549,0.8 -1.583,0.728 -1.646,0.677 -1.674,0.6 -1.699,0.534 -1.719,0.493 -1.763,0.438 -1.911,0.255 -2.027,0.059 -2.124,-0.155 -2.18,-0.28 -2.249,-0.398 -2.306,-0.522 -2.354,-0.629 -2.366,-0.725 -2.439,-0.818 -2.516,-0.916 -2.613,-1.002 -2.682,-1.104 -2.718,-1.157 -2.744,-1.208 -2.787,-1.257 -2.851,-1.33 -2.895,-1.394 -2.975,-1.446 -3.065,-1.503 -3.161,-1.547 -3.25,-1.603 -3.263,-1.612 -3.276,-1.62 -3.288,-1.629 c 0.012,0.005 0.022,0.009 0.036,0.014 -0.074,-0.036 -0.107,-0.131 -0.16,-0.189 -0.036,-0.04 -0.078,-0.095 -0.118,-0.13 -0.075,-0.068 -0.185,-0.088 -0.245,-0.181 0.094,-0.067 -0.289,-0.364 -0.366,-0.423 -0.076,-0.059 -0.12,-0.12 -0.179,-0.193 -0.044,-0.054 -0.106,-0.102 -0.155,-0.153 -0.068,-0.069 -0.149,-0.13 -0.22,-0.2 -0.048,-0.047 -0.079,-0.057 -0.13,-0.089 C -4.859,-3.196 -4.856,-3.206 -4.877,-3.24 -4.897,-3.272 -4.933,-3.312 -4.946,-3.347 -4.981,-3.435 -4.989,-3.542 -5.003,-3.634 -5.03,-3.8 -5.122,-3.882 -5.246,-3.975 -5.312,-4.024 -5.371,-4.066 -5.417,-4.135 -5.45,-4.184 -5.471,-4.239 -5.503,-4.287 -5.572,-4.39 -5.658,-4.459 -5.745,-4.545 -5.832,-4.632 -5.921,-4.72 -6.007,-4.808 -6.105,-4.908 -6.23,-4.972 -6.345,-5.059 -6.471,-5.154 -6.59,-5.255 -6.712,-5.354 -6.855,-5.471 -7.033,-5.566 -7.165,-5.694 -7.2,-5.728 -7.23,-5.767 -7.258,-5.807 -7.342,-6.108 -7.458,-6.393 -7.673,-6.646 -7.985,-7.012 -8.317,-7.411 -8.648,-7.756 -8.784,-7.898 -8.967,-7.96 -9.133,-8.055 -9.408,-8.214 -9.34,-8.263 -9.474,-8.5 -9.497,-8.541 -9.52,-8.578 -9.542,-8.614 -9.616,-8.858 -9.749,-9.046 -9.96,-9.251 c -0.295,-0.287 -0.451,-0.663 -0.743,-0.95 -0.155,-0.152 -0.341,-0.233 -0.519,-0.352 -0.177,-0.118 -0.267,-0.237 -0.368,-0.375 -0.011,-0.052 -0.027,-0.07 -0.065,-0.123 -0.097,-0.132 -0.17,-0.286 -0.273,-0.412 -0.049,-0.059 -0.096,-0.126 -0.145,-0.183 -0.039,-0.045 -0.105,-0.046 -0.154,-0.085 -0.055,-0.043 -0.11,-0.064 -0.163,-0.111 -0.103,-0.09 -0.183,-0.188 -0.277,-0.287 0.042,-0.056 0.119,-0.009 0.174,-0.03 0.076,-0.027 0.157,-0.124 0.199,-0.187 0.091,-0.134 0.198,-0.272 0.312,-0.387 0.073,-0.073 0.144,-0.165 0.245,-0.204 0.036,-0.014 0.055,-0.012 0.094,-0.014 0.064,-0.004 0.068,-0.016 0.118,-0.047 0.06,-0.039 0.089,-0.029 0.145,-0.088 0.054,-0.056 0.104,-0.121 0.161,-0.176 0.07,-0.068 0.152,-0.117 0.245,-0.147 0.049,-0.016 0.098,-0.031 0.147,-0.046 0.37,0.364 0.815,0.663 1.253,0.955 0.091,0.095 0.186,0.195 0.26,0.3 0.065,0.091 0.085,0.107 0.091,0.191 0.009,0.131 0.024,0.34 0.127,0.439 0.167,0.159 0.357,0.32 0.46,0.53 0.028,0.058 0.067,0.111 0.102,0.17 0.099,0.166 0.224,0.323 0.333,0.482 0.081,0.117 0.168,0.23 0.248,0.347 0.03,0.044 0.059,0.088 0.088,0.131 0.05,0.09 0.09,0.185 0.119,0.284 0.028,0.057 0.038,0.102 0.08,0.154 0.046,0.056 0.084,0.111 0.127,0.17 0.077,0.106 0.167,0.203 0.249,0.305 0.15,0.185 0.245,0.355 0.348,0.565 0.052,0.104 0.103,0.209 0.166,0.307 0.147,0.23 0.343,0.354 0.556,0.535 0.228,0.193 0.453,0.397 0.66,0.614 0.158,0.164 0.201,0.237 0.302,0.404 0.043,0.072 0.114,0.123 0.176,0.18 0.054,0.049 0.073,0.053 0.125,0.08 0.07,0.035 0.134,0.092 0.201,0.134 0.183,0.117 0.353,0.215 0.463,0.409 0.091,0.161 0.12,0.333 0.238,0.479 0.071,0.088 0.144,0.173 0.22,0.256 0.186,0.203 0.36,0.415 0.526,0.634 0.07,0.092 0.101,0.202 0.197,0.264 0.136,0.088 0.251,0.213 0.372,0.32 0.165,0.145 0.357,0.264 0.511,0.421 0.15,0.153 0.309,0.354 0.409,0.544 0.032,0.061 0.082,0.139 0.101,0.204 0.013,0.043 0,0.086 0.013,0.13 0.022,0.074 0.077,0.169 0.106,0.239 0.085,0.199 0.198,0.38 0.348,0.54 0.167,0.178 0.273,0.408 0.449,0.574 0.064,0.06 0.143,0.094 0.208,0.16 0.05,0.051 0.082,0.119 0.131,0.16 0.07,0.058 0.136,0.128 0.205,0.192 0.046,0.042 0.093,0.089 0.141,0.127 0.009,0.008 0.037,0.021 0.047,0.031 0.027,0.029 0.028,0.074 0.057,0.102 0.016,0.015 0.042,0.018 0.056,0.031 0.032,0.03 0.057,0.083 0.079,0.121 0.033,0.055 0.057,0.122 0.097,0.169 C 0.2,-0.084 0.106,-0.132 0.084,-0.125 0.062,-0.117 0.016,-0.025 0,0"
             style="fill:#100f0d;fill-opacity:1;fill-rule:nonzero;stroke:none"
             id="path54595" />
        </g>
        <g
           id="g54597"
           transform="translate(87.2081,568.289)">
          <path
             d="m 0,0 c 0.026,-0.068 0.051,-0.136 0.073,-0.204 0.011,-0.034 0.021,-0.067 0.031,-0.1 0.02,-0.062 0.038,-0.125 0.054,-0.187 0.009,-0.035 0.017,-0.07 0.026,-0.105 0.044,-0.188 0.076,-0.379 0.09,-0.575 0.01,-0.016 0.022,-0.03 0.031,-0.046 0.056,-0.102 0.106,-0.228 0.177,-0.319 0.003,-0.004 0.006,-0.008 0.009,-0.011 0.01,-0.066 0.02,-0.147 0.053,-0.181 0.013,0.019 0.024,0.04 0.032,0.062 0.001,-0.002 0.002,-0.003 0.003,-0.004 0.013,-0.023 0.02,-0.054 0.046,-0.056 0.025,0.069 0.006,0.177 0.006,0.25 v 0.226 0.022 c 0,0.002 0.001,0.004 0.001,0.006 C 0.646,-1.118 0.63,-1.003 0.631,-0.897 0.633,-0.713 0.573,-0.553 0.55,-0.375 0.532,-0.226 0.487,-0.084 0.469,0.063 0.459,0.146 0.422,0.224 0.389,0.298 0.364,0.403 0.362,0.514 0.347,0.62 0.308,0.881 0.279,1.142 0.207,1.396 0.144,1.618 0.074,1.838 0.027,2.064 0.009,2.151 -0.028,2.234 -0.033,2.321 -0.041,2.46 -0.138,2.601 -0.201,2.724 -0.277,2.873 -0.368,3.014 -0.438,3.166 -0.486,3.269 -0.528,3.374 -0.581,3.475 -0.66,3.625 -0.742,3.778 -0.828,3.926 -0.829,3.935 -0.83,3.944 -0.832,3.953 -0.856,4.066 -0.908,4.166 -0.97,4.261 -0.974,4.274 -0.978,4.286 -0.982,4.299 -1.007,4.374 -1.031,4.449 -1.055,4.523 -1.08,4.599 -1.088,4.68 -1.12,4.754 -1.192,4.916 -1.327,5.052 -1.431,5.193 -1.533,5.331 -1.622,5.48 -1.72,5.622 -1.774,5.814 -1.836,6.004 -1.929,6.186 -1.938,6.205 -1.947,6.224 -1.956,6.243 -1.981,6.285 -1.997,6.33 -2.003,6.379 -2.059,6.472 -2.253,6.592 -2.301,6.628 -2.482,6.765 -2.634,6.888 -2.774,7.067 -2.885,7.21 -3.017,7.333 -3.165,7.44 -3.242,7.495 -3.282,7.488 -3.374,7.485 -3.539,7.48 -3.72,7.467 -3.884,7.489 -3.975,7.501 -4.002,7.543 -4.058,7.608 -4.164,7.73 -4.222,7.893 -4.32,8.022 -4.365,8.083 -4.421,8.135 -4.47,8.193 -4.559,8.299 -4.625,8.422 -4.714,8.529 -4.809,8.642 -4.902,8.76 -5.021,8.848 -5.15,8.944 -5.197,8.949 -5.357,8.945 -5.472,8.941 -5.541,8.937 -5.614,9.032 c -0.098,0.129 -0.192,0.26 -0.289,0.389 -0.207,0.277 -0.566,0.332 -0.898,0.377 -0.057,0.035 -0.111,0.08 -0.176,0.083 -0.003,0.088 -0.113,0.16 -0.176,0.208 -0.036,0.027 -0.077,0.07 -0.121,0.081 -0.037,0.01 -0.058,0.004 -0.094,0.027 -0.063,0.043 -0.111,0.125 -0.167,0.179 -0.025,0.026 -0.073,0.109 -0.107,0.117 -0.057,0.011 -0.108,-0.08 -0.169,-0.072 -0.063,0.008 -0.11,0.126 -0.135,0.172 -0.029,-0.01 -0.036,-0.045 -0.066,-0.056 -0.081,0.082 -0.132,0.189 -0.216,0.266 -0.005,-0.015 -0.012,-0.03 -0.02,-0.044 -0.038,0.029 -0.041,0.08 -0.068,0.116 -0.014,0.019 -0.036,0.035 -0.052,0.053 -0.067,-0.05 -0.13,0.051 -0.168,0.09 -0.069,0.072 -0.079,0.121 -0.175,0.101 -0.202,-0.043 -0.386,-0.013 -0.586,0.02 -0.071,0.056 -0.143,0.109 -0.22,0.157 -0.204,0.126 -0.432,0.233 -0.651,0.33 -0.189,0.084 -0.392,0.146 -0.585,0.219 -0.011,0.004 -0.022,0.007 -0.033,0.011 -0.317,-0.028 -0.629,-0.013 -0.882,0.171 -0.028,-0.011 -0.056,-0.02 -0.089,-0.025 -0.052,-0.008 -0.102,-0.005 -0.15,0.004 -0.177,-0.059 -0.358,-0.047 -0.528,0.014 -0.083,-0.031 -0.179,-0.029 -0.264,-0.01 -0.052,0.012 -0.099,0.037 -0.14,0.069 -0.13,-0.091 -0.302,-0.105 -0.453,-0.031 -0.081,-0.084 -0.172,-0.158 -0.261,-0.226 -0.256,-0.197 -0.405,-0.356 -0.508,-0.644 -0.051,-0.04 -0.099,-0.085 -0.148,-0.126 -0.057,-0.048 -0.089,-0.098 -0.134,-0.159 -0.079,-0.108 -0.109,-0.221 -0.153,-0.345 -0.008,-0.021 -0.046,-0.114 -0.029,-0.144 0.019,-0.034 0.043,-0.023 0.081,-0.023 0.089,0.002 0.166,-10e-4 0.252,0.019 0.101,0.025 0.184,0.035 0.287,0.034 0.039,0 0.074,-10e-4 0.112,0.006 0.085,0.017 0.154,0.015 0.241,0.019 0.091,0.005 0.151,0.045 0.231,0.008 0.101,-0.045 0.2,-0.061 0.316,-0.06 0.221,0.003 0.451,-0.023 0.666,0.021 0.046,0.01 0.089,0.007 0.131,0 0.005,-0.006 0.011,-0.013 0.016,-0.017 0.158,-0.145 0.384,-0.242 0.503,-0.428 0.031,-0.048 0.046,-0.101 0.094,-0.138 0.057,-0.043 0.13,-0.024 0.207,-0.023 0.207,0 0.416,0.007 0.624,0.001 0.146,-0.005 0.291,-0.039 0.43,-0.081 0.043,-0.013 0.084,-0.029 0.123,-0.052 0.076,-0.045 0.147,-0.114 0.22,-0.165 0.057,-0.04 0.089,-0.057 0.134,-0.101 0.163,-0.161 0.425,-0.128 0.635,-0.181 0.159,-0.04 0.314,-0.102 0.474,-0.143 0.107,-0.027 0.15,-0.029 0.192,-0.13 0.03,-0.073 0.06,-0.104 0.146,-0.105 0.088,-10e-4 0.178,-0.027 0.253,-0.079 0.044,-0.031 0.092,-0.083 0.14,-0.102 0.034,-0.014 0.1,-0.022 0.136,-0.028 0.076,-0.013 0.054,-0.014 0.1,-0.082 0.032,-0.047 0.078,-0.084 0.108,-0.132 0.047,-0.077 0.091,-0.157 0.131,-0.238 0.104,10e-4 0.206,0.052 0.313,0.051 0.048,0 0.099,0.005 0.146,-0.002 0.046,-0.008 0.088,-0.034 0.126,-0.045 0.029,-0.009 0.071,0.006 0.078,-0.031 C -6.874,8.146 -6.924,8.119 -6.937,8.097 -6.978,8.026 -7.026,7.917 -7.04,7.836 -6.915,7.751 -6.733,7.747 -6.597,7.678 -6.474,7.616 -6.322,7.55 -6.189,7.536 c 0.075,-0.007 0.192,-0.048 0.257,-0.084 0.051,-0.029 0.087,-0.067 0.129,-0.106 0.025,-0.023 0.071,-0.035 0.091,-0.06 0.016,-0.02 0.015,-0.041 0.026,-0.063 0.042,-0.089 0.129,-0.156 0.178,-0.243 0.009,-0.016 0.011,-0.037 0.02,-0.052 0.014,-0.023 0.054,-0.051 0.073,-0.074 0.039,-0.046 0.07,-0.099 0.106,-0.149 0.031,-0.044 0.064,-0.061 0.092,-0.101 0.047,-0.067 0.097,-0.187 0.108,-0.265 0.006,-0.044 -0.008,-0.095 0.037,-0.123 0.049,-0.031 0.112,0.014 0.159,0.022 0.048,0.009 0.109,-0.001 0.158,-0.001 0.078,0 0.156,0.002 0.234,0.001 0.056,-0.001 0.104,-0.013 0.16,-0.022 C -4.321,6.21 -4.265,6.222 -4.23,6.205 -4.231,6.193 -4.237,6.187 -4.248,6.186 -4.176,6.15 -4.097,6.124 -4.025,6.088 -3.93,6.041 -3.835,5.964 -3.75,5.901 -3.667,5.839 -3.577,5.788 -3.498,5.72 -3.439,5.67 -3.361,5.658 -3.301,5.613 -3.262,5.584 -3.222,5.527 -3.192,5.488 -3.167,5.455 -3.136,5.417 -3.137,5.374 -3.138,5.33 -3.17,5.299 -3.167,5.254 -3.162,5.15 -2.968,5.121 -2.9,5.052 -2.835,4.987 -2.768,4.902 -2.717,4.826 -2.668,4.754 -2.685,4.659 -2.678,4.573 -2.602,4.544 -2.532,4.492 -2.475,4.41 -2.303,4.161 -2.112,3.98 -1.935,3.782 -1.899,3.742 -1.864,3.701 -1.829,3.659 -1.819,3.646 -1.81,3.633 -1.8,3.62 -1.774,3.587 -1.748,3.554 -1.723,3.519 -1.706,3.494 -1.689,3.466 -1.672,3.439 -1.656,3.413 -1.638,3.388 -1.622,3.36 -1.59,3.303 -1.559,3.243 -1.53,3.178 -1.253,2.546 -1.006,1.929 -0.659,1.33 -0.576,1.187 -0.496,1.044 -0.419,0.9 -0.401,0.867 -0.384,0.833 -0.366,0.8 -0.304,0.681 -0.245,0.562 -0.188,0.442 -0.178,0.419 -0.166,0.397 -0.156,0.375 -0.153,0.368 -0.149,0.36 -0.146,0.353 -0.104,0.261 -0.065,0.168 -0.028,0.075 -0.018,0.05 -0.009,0.025 0,0"
             style="fill:#100f0d;fill-opacity:1;fill-rule:nonzero;stroke:none"
             id="path54599" />
        </g>
        <g
           id="g54601"
           transform="translate(86.4151,568.276)">
          <path
             d="m 0,0 c -0.006,-0.022 -0.015,-0.042 -0.022,-0.063 10e-4,-0.005 0.003,-0.009 0.005,-0.014 C -0.012,-0.054 -0.007,-0.029 0,0"
             style="fill:#100f0d;fill-opacity:1;fill-rule:nonzero;stroke:none"
             id="path54603" />
        </g>
        <g
           id="g54605"
           transform="translate(86.6614,565.441)">
          <path
             d="M 0,0 C -0.012,0.04 -0.017,0.093 -0.033,0.13 -0.048,0.165 -0.085,0.192 -0.107,0.225 -0.218,0.393 -0.22,0.584 -0.22,0.78 c 0,0.104 0.009,0.181 -0.033,0.27 -0.022,0.046 -0.045,0.095 -0.066,0.144 -0.03,0.068 -0.029,0.136 -0.033,0.209 -0.004,0.082 -0.028,0.154 -0.027,0.239 0.001,0.094 -0.027,0.132 -0.072,0.212 -0.05,0.087 -0.095,0.154 -0.089,0.261 0.006,0.091 0.062,0.19 0.099,0.272 0.058,0.132 0.125,0.253 0.173,0.386 -0.011,0.035 -0.025,0.067 -0.038,0.085 -0.061,0.079 -0.133,0.159 -0.167,0.257 -0.045,0.128 -0.081,0.274 -0.118,0.409 -0.033,0.114 -0.062,0.242 -0.08,0.359 -0.011,0.073 -0.017,0.155 -0.054,0.221 0,-0.082 0.028,-0.145 0.027,-0.227 0,-0.082 0,-0.164 0,-0.246 V 3.147 c 0,-0.136 0.009,-0.274 0.004,-0.409 C -0.699,2.592 -0.757,2.489 -0.801,2.355 -0.838,2.241 -0.844,2.103 -0.827,1.983 -0.809,1.846 -0.748,1.73 -0.751,1.588 -0.753,1.458 -0.757,1.326 -0.752,1.196 -0.748,1.097 -0.731,0.947 -0.691,0.855 -0.649,0.758 -0.597,0.656 -0.59,0.547 -0.583,0.434 -0.578,0.302 -0.596,0.189 -0.611,0.096 -0.644,0.018 -0.647,-0.079 -0.653,-0.336 -0.61,-0.601 -0.691,-0.849 -0.708,-0.9 -0.735,-0.955 -0.746,-1.008 c -0.007,-0.038 0,-0.075 -0.01,-0.113 -0.025,-0.091 -0.075,-0.185 -0.106,-0.275 -0.042,-0.121 -0.103,-0.219 -0.102,-0.349 0.001,-0.054 0.001,-0.108 0.001,-0.162 0,-0.061 -0.019,-0.166 0.003,-0.226 0.025,-0.065 0.109,-0.147 0.177,-0.157 0.121,-0.016 0.27,-0.009 0.389,0.021 0.084,0.021 0.181,0.027 0.255,0.078 0.07,0.049 0.052,0.12 0.052,0.196 0,0.067 0.012,0.145 0.001,0.211 -0.01,0.065 -0.028,0.115 -0.028,0.182 0.001,0.074 0.001,0.148 0.001,0.222 -0.001,0.086 0.026,0.161 0.026,0.246 0,0.096 0.027,0.181 0.026,0.28 0,0.077 0.004,0.142 0.021,0.213 0.035,0.146 0.111,0.265 0.08,0.426 C 0.026,-0.143 0.021,-0.069 0,0"
             style="fill:#100f0d;fill-opacity:1;fill-rule:nonzero;stroke:none"
             id="path54607" />
        </g>
        <g
           id="g54609"
           transform="translate(86.417,568.089)">
          <path
             d="M 0,0 C 0.001,0.025 -0.007,0.069 -0.019,0.111 -0.07,-0.138 -0.003,-0.056 0,0"
             style="fill:#100f0d;fill-opacity:1;fill-rule:nonzero;stroke:none"
             id="path54611" />
        </g>
        <g
           id="g54613"
           transform="translate(84.1311,572.857)">
          <path
             d="m 0,0 c -0.03,0.089 -0.089,0.183 -0.079,0.278 -0.014,-0.298 0.056,-0.363 0.08,-0.411 0.024,-0.05 0.052,-0.107 0.079,-0.161 0.023,-0.048 0.039,-0.096 0.054,-0.145 0,0.007 0,0.014 0,0.021 C 0.134,-0.267 0.048,-0.141 0,0"
             style="fill:#100f0d;fill-opacity:1;fill-rule:nonzero;stroke:none"
             id="path54615" />
        </g>
        <g
           id="g54617"
           transform="translate(84.6101,571.111)">
          <path
             d="M 0,0 C 0.006,0.208 -0.101,0.38 -0.134,0.578 -0.143,0.632 -0.138,0.634 -0.165,0.696 -0.217,0.814 -0.217,0.943 -0.266,1.062 -0.299,1.144 -0.32,1.226 -0.345,1.307 -0.344,1.177 -0.335,1.045 -0.341,0.916 -0.35,0.757 -0.409,0.583 -0.446,0.433 -0.464,0.36 -0.464,0.26 -0.432,0.192 c 0.016,-0.036 0.033,-0.065 0.046,-0.103 0.019,-0.052 0.023,-0.117 0.04,-0.166 0.015,-0.041 0.029,-0.092 0.056,-0.129 0.025,-0.036 0.044,-0.049 0.052,-0.093 0.001,-0.008 0.001,-0.017 0,-0.025 0.01,0.041 0.041,0.06 0.083,0.096 C -0.066,-0.151 -0.003,-0.118 0,0"
             style="fill:#100f0d;fill-opacity:1;fill-rule:nonzero;stroke:none"
             id="path54619" />
        </g>
        <g
           id="g54621"
           transform="translate(84.3708,570.726)">
          <path
             d="M 0,0 C 0,0.019 0.002,0.04 0.002,0.06 -0.002,0.044 -0.003,0.025 0,0"
             style="fill:#100f0d;fill-opacity:1;fill-rule:nonzero;stroke:none"
             id="path54623" />
        </g>
        <g
           id="g54625"
           transform="translate(84.8098,566.777)">
          <path
             d="m 0,0 c -0.022,0.067 -0.033,0.115 -0.043,0.185 -0.008,0.055 -0.015,0.12 -0.03,0.173 -0.018,0.066 -0.047,0.107 -0.048,0.18 -0.001,0.066 0,0.132 0,0.199 v 0.205 c 0,0.054 0.014,0.146 -0.006,0.198 -0.059,-0.048 -0.047,-0.181 -0.047,-0.254 0,-0.085 0.016,-0.193 0.001,-0.277 C -0.198,0.468 -0.304,0.347 -0.306,0.198 L -0.2,0.331 C -0.212,0.261 -0.262,0.189 -0.288,0.122 -0.31,0.062 -0.301,0.048 -0.286,-0.015 c 0.01,-0.039 0,-0.078 0.008,-0.117 0.01,-0.042 0.025,-0.056 0.024,-0.11 0,-0.045 -0.009,-0.101 0,-0.144 0.014,-0.063 0.02,-0.053 0.086,-0.053 0.081,0 0.09,0.002 0.148,0.061 0.022,0.022 0.051,0.041 0.06,0.07 0.009,0.031 0.003,0.09 -0.003,0.121 C 0.025,-0.13 0.018,-0.056 0,0"
             style="fill:#100f0d;fill-opacity:1;fill-rule:nonzero;stroke:none"
             id="path54627" />
        </g>
        <g
           id="g54629"
           transform="translate(87.8071,565.032)">
          <path
             d="m 0,0 c -0.198,0.253 -0.11,0.57 -0.176,0.861 -0.015,0.068 -0.065,0.118 -0.099,0.176 -0.053,0.09 -0.124,0.195 -0.155,0.295 -0.023,0.072 -0.03,0.125 -0.032,0.201 0,0.002 -0.001,0.004 -0.001,0.006 0,-0.149 -0.001,-0.297 0,-0.445 C -0.462,0.957 -0.486,0.801 -0.436,1.04 -0.416,0.917 -0.482,0.744 -0.515,0.626 -0.559,0.471 -0.583,0.313 -0.66,0.169 -0.705,0.083 -0.738,0.026 -0.73,-0.072 c 0.005,-0.067 0.043,-0.201 0.112,-0.237 0.07,-0.036 0.222,-0.005 0.304,-0.005 0.053,0 0.117,-0.01 0.168,0.004 C 0.001,-0.269 0.099,-0.127 0,0"
             style="fill:#100f0d;fill-opacity:1;fill-rule:nonzero;stroke:none"
             id="path54631" />
        </g>
        <g
           id="g54633"
           transform="translate(87.3165,566.754)">
          <path
             d="M 0,0 C 0.004,-0.066 0.025,-0.12 0.028,-0.183 V -0.15 C 0.028,-0.099 0.048,-0.034 0,0"
             style="fill:#100f0d;fill-opacity:1;fill-rule:nonzero;stroke:none"
             id="path54635" />
        </g>
        <g
           id="g54637"
           transform="translate(83.9271,568.878)">
          <path
             d="m 0,0 c -0.022,0.105 -0.063,0.204 -0.096,0.305 -0.016,0.049 -0.031,0.061 -0.051,0.099 -0.031,0.058 -0.04,0.125 -0.059,0.187 -0.036,0.113 -0.077,0.228 -0.091,0.346 -0.01,0.075 -0.017,0.151 -0.033,0.226 -0.021,0.102 -0.015,0.207 -0.043,0.307 -0.014,0.052 -0.024,0.104 -0.043,0.155 -0.038,0.098 -0.102,0.176 -0.124,0.278 -0.01,0.049 -0.025,0.089 -0.026,0.139 0,0.037 0.02,0.106 -0.02,0.117 C -0.611,2.095 -0.587,2.006 -0.597,1.937 -0.613,1.82 -0.646,1.711 -0.646,1.592 c 0.001,-0.096 -0.024,-0.232 0,-0.322 0.01,-0.04 0.038,-0.041 0.053,-0.078 0.012,-0.032 0.001,-0.087 0.001,-0.121 0,-0.062 -0.026,-0.196 0.053,-0.08 0,-0.057 0.002,-0.113 0.001,-0.17 C -0.539,0.72 -0.571,0.647 -0.587,0.552 -0.598,0.493 -0.587,0.44 -0.591,0.383 -0.596,0.315 -0.62,0.243 -0.645,0.18 c -0.063,-0.159 -0.077,-0.323 -0.02,-0.484 0.037,-0.105 0.129,-0.203 0.15,-0.319 0.024,-0.129 -0.07,-0.227 -0.098,-0.347 -0.024,-0.107 -0.005,-0.229 -0.005,-0.34 0,-0.05 -0.005,-0.104 -0.001,-0.154 0.003,-0.047 0.028,-0.081 0.041,-0.12 0.027,-0.077 0.028,-0.35 0.157,-0.27 0.041,0.026 0.118,0.081 0.138,0.125 0.02,0.041 0.007,0.095 0.014,0.14 0.025,0.172 0.118,0.313 0.171,0.474 0.04,0.123 0.099,0.223 0.142,0.34 0.03,0.081 0.078,0.146 0.094,0.226 0.019,0.093 -0.049,0.209 -0.08,0.305 C 0.033,-0.165 0.017,-0.081 0,0"
             style="fill:#100f0d;fill-opacity:1;fill-rule:nonzero;stroke:none"
             id="path54639" />
        </g>
        <g
           id="g54641"
           transform="translate(82.0107,577.588)">
          <path
             d="M 0,0 C 0.047,-0.038 0.091,-0.065 0.135,-0.107 0.179,-0.148 0.237,-0.182 0.288,-0.22 0.337,-0.257 0.38,-0.292 0.43,-0.325 0.507,-0.376 0.578,-0.439 0.654,-0.492 0.72,-0.539 0.768,-0.546 0.846,-0.564 0.878,-0.572 0.906,-0.588 0.934,-0.606 0.937,-0.615 0.94,-0.623 0.943,-0.632 0.956,-0.672 0.955,-0.696 0.961,-0.737 0.967,-0.77 0.978,-0.815 0.99,-0.847 0.993,-0.856 1.016,-0.916 1.021,-0.919 1.046,-0.937 1.091,-0.92 1.119,-0.922 1.167,-0.927 1.22,-0.943 1.265,-0.958 1.291,-0.966 1.321,-0.979 1.342,-0.995 1.37,-1.017 1.367,-1.053 1.41,-1.055 c 0.012,0.029 0.004,0.065 0.009,0.097 0.008,0.042 0.026,0.094 0.041,0.135 0.028,0.074 0.082,0.124 0.123,0.191 0.05,0.081 0.141,0.169 0.158,0.263 0.008,0.043 0.002,0.07 0.027,0.11 0.005,0.009 0.088,0.124 0.081,0.126 -0.05,0.011 -0.081,0.018 -0.11,0.063 C 1.696,-0.007 1.667,0.059 1.621,0.121 1.564,0.197 1.505,0.276 1.454,0.353 1.426,0.395 1.396,0.463 1.353,0.493 1.328,0.511 1.3,0.507 1.266,0.51 1.201,0.516 1.139,0.526 1.077,0.546 0.965,0.583 0.848,0.658 0.755,0.731 0.726,0.753 0.71,0.765 0.677,0.774 0.661,0.778 0.642,0.772 0.625,0.776 0.608,0.779 0.604,0.802 0.584,0.803 0.513,0.807 0.449,0.668 0.408,0.627 0.37,0.587 0.326,0.569 0.29,0.522 0.236,0.453 0.206,0.386 0.167,0.328 0.126,0.318 0.085,0.311 0.04,0.311 -0.033,0.311 -0.049,0.318 -0.099,0.26 -0.137,0.217 -0.15,0.187 -0.133,0.131 -0.066,0.134 -0.046,0.037 0,0"
             style="fill:#100f0d;fill-opacity:1;fill-rule:nonzero;stroke:none"
             id="path54643" />
        </g>
      </g>
    </g>
  </g>
</svg>
