<?xml version="1.0" encoding="UTF-8" standalone="no"?>
<!-- Created with Inkscape (http://www.inkscape.org/) -->

<svg
   width="28.963823"
   height="23.999998"
   viewBox="0 0 7.6633447 6.3499995"
   version="1.1"
   id="svg58746"
   inkscape:version="1.2.1 (9c6d41e4, 2022-07-14)"
   sodipodi:docname="lost-in-the-night.svg"
   xmlns:inkscape="http://www.inkscape.org/namespaces/inkscape"
   xmlns:sodipodi="http://sodipodi.sourceforge.net/DTD/sodipodi-0.dtd"
   xmlns="http://www.w3.org/2000/svg"
   xmlns:svg="http://www.w3.org/2000/svg">
  <sodipodi:namedview
     id="namedview58748"
     pagecolor="#505050"
     bordercolor="#eeeeee"
     borderopacity="1"
     inkscape:showpageshadow="0"
     inkscape:pageopacity="0"
     inkscape:pagecheckerboard="0"
     inkscape:deskcolor="#505050"
     inkscape:document-units="mm"
     showgrid="false"
     inkscape:zoom="0.7046647"
     inkscape:cx="-5.6764586"
     inkscape:cy="128.42988"
     inkscape:window-width="1390"
     inkscape:window-height="941"
     inkscape:window-x="0"
     inkscape:window-y="25"
     inkscape:window-maximized="0"
     inkscape:current-layer="layer1" />
  <defs
     id="defs58743">
    <clipPath
       clipPathUnits="userSpaceOnUse"
       id="clipPath54953">
      <path
         d="m 188.725,557.439 h 24.7 v 24.699 h -24.7 z"
         id="path54951" />
    </clipPath>
  </defs>
  <g
     inkscape:label="Layer 1"
     inkscape:groupmode="layer"
     id="layer1"
     transform="translate(-106.55771,-114.72387)">
    <g
       id="g54947"
       transform="matrix(0.35381765,0,0,-0.35381765,39.176371,319.30381)">
      <g
         id="g54949"
         clip-path="url(#clipPath54953)">
        <g
           id="g54955"
           transform="translate(194.697,575.8)">
          <path
             d="M 0,0 C 0.017,-0.027 0.113,-0.087 0.121,-0.094 0.205,-0.162 0.267,-0.251 0.346,-0.325 0.395,-0.37 0.434,-0.379 0.45,-0.445 0.464,-0.5 0.473,-0.542 0.495,-0.596 0.53,-0.681 0.562,-0.769 0.608,-0.855 0.668,-0.966 0.734,-1.057 0.845,-1.111 1.004,-1.19 1.177,-1.27 1.354,-1.307 1.388,-1.315 1.445,-1.31 1.479,-1.323 c 0.032,-0.013 0.02,-0.02 0.049,-0.04 0.047,-0.035 0.128,-0.066 0.174,-0.082 0.053,-0.018 0.092,-0.019 0.15,-0.014 0.109,0.009 0.162,-0.025 0.267,-0.053 0.075,-0.02 0.148,-0.027 0.221,0.003 0.068,0.028 0.12,0.038 0.196,0.057 0.112,0.028 0.171,0.087 0.257,0.151 0.091,0.067 0.168,0.136 0.239,0.224 0.058,0.071 0.079,0.069 0.164,0.11 0.047,0.023 0.092,0.066 0.148,0.063 0.01,0.058 0.066,0.054 0.087,0.106 0.017,0.042 0.014,0.108 0.021,0.155 0.007,0.051 0.012,0.103 0.022,0.154 0.013,0.065 0.055,0.082 0.081,0.132 0.012,0.024 0.005,0.048 0.019,0.073 0.014,0.026 0.051,0.045 0.069,0.069 0.037,0.047 0.046,0.09 0.053,0.149 0.006,0.059 0.003,0.102 -0.012,0.159 -0.01,0.037 0,0.153 -0.031,0.171 C 3.566,0.227 3.526,0.116 3.469,0.046 3.442,0.013 3.424,0.002 3.388,-0.019 3.331,-0.052 3.323,-0.068 3.287,-0.122 3.249,-0.179 3.198,-0.214 3.149,-0.264 3.109,-0.305 3.075,-0.362 3.02,-0.384 2.975,-0.402 2.928,-0.397 2.885,-0.42 2.858,-0.434 2.824,-0.464 2.798,-0.482 2.75,-0.518 2.71,-0.563 2.654,-0.587 2.515,-0.646 2.356,-0.545 2.218,-0.52 2.132,-0.504 2.024,-0.48 1.937,-0.487 1.898,-0.49 1.877,-0.51 1.824,-0.499 1.685,-0.469 1.486,-0.375 1.384,-0.276 1.311,-0.205 1.262,-0.081 1.184,-0.019 1.164,-0.003 1.13,-0.003 1.105,0.019 1.068,0.052 1.075,0.054 1.062,0.107 1.031,0.233 0.865,0.279 0.864,0.39 0.863,0.48 0.895,0.585 0.909,0.675 0.923,0.765 0.917,0.815 0.88,0.899 0.858,0.948 0.82,0.988 0.812,1.043 0.803,1.11 0.828,1.181 0.837,1.248 0.849,1.334 0.88,1.421 0.913,1.5 0.952,1.593 0.978,1.579 1.051,1.621 1.117,1.658 1.137,1.747 1.172,1.805 1.215,1.877 1.262,1.954 1.319,2.014 1.384,2.082 1.455,2.112 1.484,2.202 1.505,2.268 1.569,2.406 1.639,2.4 1.529,2.439 1.449,2.308 1.343,2.318 1.276,2.324 1.213,2.318 1.144,2.319 1.093,2.32 1.035,2.345 0.985,2.339 0.897,2.328 0.807,2.232 0.781,2.151 0.763,2.091 0.772,2.079 0.732,2.031 0.656,1.94 0.556,1.862 0.462,1.789 0.374,1.72 0.307,1.641 0.252,1.552 0.22,1.499 0.197,1.449 0.172,1.383 0.144,1.307 0.112,1.278 0.068,1.219 -0.007,1.119 0.011,0.954 0.013,0.838 0.014,0.724 -0.015,0.605 -0.032,0.492 -0.051,0.367 -0.087,0.253 -0.047,0.132 -0.032,0.09 -0.024,0.038 0,0"
             style="fill:#100f0d;fill-opacity:1;fill-rule:nonzero;stroke:none"
             id="path54957" />
        </g>
        <g
           id="g54959"
           transform="translate(204.975,565.818)">
          <path
             d="m 0,0 c -0.026,-0.209 -0.038,-0.415 -0.068,-0.625 -0.019,-0.138 -0.059,-0.269 -0.094,-0.403 -0.066,-0.251 -0.077,-0.543 -0.105,-0.801 -0.039,-0.359 -0.072,-0.718 -0.109,-1.077 -0.01,-0.09 -0.012,-0.18 -0.013,-0.269 -0.039,0.07 -0.074,0.141 -0.098,0.216 -0.088,0.266 -0.158,0.535 -0.227,0.806 -0.059,0.228 -0.119,0.456 -0.181,0.683 -0.028,0.118 -0.055,0.237 -0.082,0.355 -0.011,0.106 -0.011,0.205 -0.035,0.31 -0.037,0.165 -0.104,0.325 -0.132,0.494 -0.027,0.158 -0.077,0.239 -0.168,0.375 -0.118,0.177 -0.229,0.358 -0.353,0.531 -0.112,0.156 -0.209,0.271 -0.286,0.451 -0.089,0.208 -0.126,0.384 -0.121,0.604 10e-4,0.074 -0.006,0.249 0.063,0.292 -0.104,0.109 -0.215,0.222 -0.321,0.34 0.128,0.075 0.254,0.152 0.373,0.24 0.02,0.014 0.152,0.136 0.196,0.15 0.074,0.025 0.184,10e-4 0.26,0 0.197,0 0.395,0 0.592,10e-4 0.299,0 0.595,-0.032 0.893,-0.032 C 0.053,2.16 0.016,1.644 0.016,1.162 0.016,0.778 0.047,0.381 0,0 M 6.913,2.341 C 6.974,2.808 7.057,3.269 7.105,3.738 7.116,3.842 7.13,3.948 7.123,4.053 7.112,4.219 7.057,4.374 7.053,4.542 7.05,4.696 7.052,4.867 6.99,5.009 6.939,5.127 6.753,5.277 6.673,5.367 6.571,5.481 6.444,5.608 6.375,5.749 6.298,5.905 6.193,6.057 6.154,6.226 6.097,6.47 5.998,6.704 5.918,6.941 5.886,7.038 5.803,7.135 5.75,7.212 5.669,7.329 5.578,7.45 5.505,7.572 5.438,7.685 5.344,7.875 5.356,8.011 5.365,8.11 5.421,8.213 5.448,8.308 5.484,8.43 5.526,8.546 5.533,8.673 5.544,8.87 5.521,9.056 5.476,9.247 5.401,9.57 5.266,9.881 5.166,10.197 5.102,10.402 5.014,10.627 4.913,10.818 4.851,10.84 4.792,10.873 4.74,10.917 4.457,11.157 4.224,11.43 4.044,11.74 3.726,11.714 3.408,11.693 3.089,11.681 3.061,11.596 3.041,11.508 3.036,11.423 3.034,11.382 3.059,11.295 3.047,11.259 3.02,11.175 2.88,11.111 2.815,11.059 2.685,10.956 2.556,10.851 2.418,10.758 2.313,10.687 2.206,10.619 2.102,10.546 2.032,10.497 1.979,10.472 1.977,10.383 1.976,10.301 1.982,10.232 1.954,10.152 1.874,9.919 1.68,9.715 1.576,9.49 1.561,9.458 1.548,9.42 1.534,9.389 1.488,9.279 1.479,9.195 1.48,9.079 1.481,8.939 1.488,8.796 1.482,8.657 1.478,8.562 1.419,8.484 1.415,8.394 1.413,8.361 1.426,8.34 1.415,8.309 1.396,8.253 1.313,8.228 1.264,8.205 1.166,8.158 1.082,8.119 0.996,8.053 0.873,7.959 0.762,7.953 0.616,7.929 0.493,7.908 0.373,7.887 0.252,7.851 0.196,7.835 0.164,7.793 0.112,7.772 0.053,7.75 0.008,7.777 -0.019,7.712 -0.027,7.692 -0.016,7.606 -0.016,7.59 c 0.001,-0.087 0,-0.174 0,-0.261 0,-0.295 0.009,-0.584 -0.07,-0.873 C -0.134,6.279 -0.19,6.207 -0.285,6.077 -0.302,6.053 -0.408,5.926 -0.422,5.87 -0.455,5.746 -0.375,5.581 -0.326,5.47 -0.284,5.373 -0.257,5.264 -0.195,5.178 -0.131,5.089 -0.111,5.03 -0.076,4.929 -0.008,4.733 0.069,4.51 0.082,4.304 0.091,4.159 0.096,3.972 0.069,3.83 0.042,3.691 -0.009,3.564 -0.056,3.435 -0.243,3.419 -0.428,3.389 -0.608,3.328 -0.775,3.272 -0.918,3.207 -1.097,3.2 -1.149,3.198 -1.25,3.191 -1.307,3.208 -1.355,3.221 -1.386,3.253 -1.434,3.263 -1.509,3.278 -1.558,3.255 -1.627,3.24 -1.705,3.224 -1.778,3.225 -1.856,3.203 -1.994,3.165 -2.129,3.138 -2.271,3.14 -2.384,3.141 -2.522,3.163 -2.632,3.135 -2.674,3.124 -2.712,3.092 -2.759,3.083 -2.788,3.077 -2.817,3.076 -2.846,3.075 -2.884,3.199 -2.883,3.313 -2.883,3.448 -2.882,3.675 -2.884,3.903 -2.884,4.131 -3.036,4.106 -3.189,4.091 -3.349,4.086 -3.427,4.083 -3.493,4.101 -3.551,4.13 -3.666,4 -3.78,3.87 -3.861,3.715 -3.949,3.544 -4.042,3.366 -4.098,3.181 -4.131,3.073 -4.121,2.969 -4.174,2.87 -4.183,2.853 -4.192,2.834 -4.201,2.816 -4.506,2.775 -4.815,2.781 -5.117,2.882 -5.227,2.919 -5.352,2.985 -5.471,2.989 -5.503,2.99 -5.529,2.981 -5.561,2.985 -5.683,3.003 -5.781,3.056 -5.91,3.048 -5.996,3.042 -6.079,3.015 -6.165,3 -6.347,2.967 -6.54,2.951 -6.725,2.952 -6.955,2.954 -7.147,2.938 -7.359,3.031 -7.441,3.067 -7.527,3.112 -7.618,3.115 -7.727,3.119 -7.821,3.05 -7.916,3.007 -8.023,2.959 -8.134,2.923 -8.243,2.88 -8.399,2.82 -8.556,2.74 -8.723,2.713 -8.859,2.691 -8.972,2.732 -9.031,2.862 -9.076,2.962 -9.095,3.08 -9.117,3.186 -9.141,3.306 -9.122,3.43 -9.149,3.547 -9.188,3.52 -9.219,3.456 -9.266,3.433 c -0.062,-0.029 -0.178,-0.025 -0.243,0 -0.053,0.02 -0.099,0.056 -0.153,0.076 -0.024,0.008 -0.065,0.007 -0.085,0.026 -0.034,0.033 -0.048,0.117 -0.058,0.164 -0.043,-0.011 -0.058,-0.108 -0.094,-0.144 -0.048,0.013 -0.079,0.067 -0.104,0.106 -0.071,0.111 -0.136,0.21 -0.22,0.317 -0.047,0.06 -0.07,0.098 -0.1,0.162 -0.035,0.073 -0.078,0.145 -0.106,0.222 -0.018,0.048 -0.004,0.146 -0.061,0.167 -0.011,0.004 -0.091,-0.041 -0.1,-0.043 -0.042,-0.011 -0.079,-0.006 -0.121,-0.007 -0.106,-0.002 -0.204,0.008 -0.307,0.025 -0.072,0.011 -0.113,0.029 -0.175,0.07 -0.057,0.037 -0.15,0.07 -0.198,0.116 -0.023,0.023 -0.052,0.072 -0.066,0.106 -0.022,0.053 -10e-4,0.131 -0.052,0.153 -0.034,0.015 -0.118,-0.002 -0.158,-0.002 h -0.346 c -0.08,0 -0.167,-0.01 -0.247,-0.001 -0.042,0.005 -0.115,0.05 -0.157,0.035 -0.048,-0.018 -0.029,-0.08 -0.029,-0.125 0,-0.065 -0.005,-0.128 0.006,-0.194 0.008,-0.043 0.04,-0.065 0.05,-0.095 0.023,-0.069 0.021,-0.177 0.03,-0.247 0.009,-0.064 0.037,-0.12 0.04,-0.183 0.004,-0.099 0.123,-0.302 0,-0.369 -0.038,-0.021 -0.136,-0.005 -0.177,-0.005 -0.112,-10e-4 -0.236,-0.03 -0.295,0.091 -0.025,0.051 -0.029,0.11 -0.045,0.164 -0.022,0.075 -0.056,0.14 -0.093,0.209 -0.062,0.113 -0.154,0.186 -0.226,0.291 -0.077,0.112 -0.071,0.256 -0.069,0.386 10e-4,0.11 0.035,0.267 -0.029,0.351 -0.042,0.056 -0.161,0.101 -0.221,0.137 -0.111,0.065 -0.204,0.138 -0.305,0.219 -0.139,0.112 -0.242,0.113 -0.307,-0.061 -0.035,-0.094 -0.076,-0.158 -0.072,-0.261 0.006,-0.148 0.041,-0.292 0.033,-0.441 -0.007,-0.13 -0.047,-0.21 -0.127,-0.309 -0.066,-0.083 -0.091,-0.144 -0.093,-0.246 -0.006,-0.344 0.084,-0.701 0.024,-1.045 -0.035,-0.2 -0.206,-0.354 -0.212,-0.563 -0.009,-0.335 0.409,-0.261 0.637,-0.262 h 0.02 c 0.174,10e-4 0.305,0.012 0.463,-0.081 0.052,-0.031 0.092,-0.074 0.153,-0.077 0.084,-0.004 0.181,0.03 0.263,0.049 0.218,0.051 0.407,0.046 0.633,0.047 0.087,0 0.213,0.029 0.298,0.011 0.069,-0.015 0.141,-0.101 0.192,-0.145 0.078,-0.065 0.156,-0.131 0.228,-0.203 0.022,-0.02 0.069,-0.077 0.1,-0.093 0.112,-0.055 0.339,0.006 0.452,0.022 0.172,0.025 0.311,0.091 0.472,0.145 0.245,0.082 0.574,0.117 0.833,0.069 0.243,-0.044 0.484,-0.113 0.734,-0.133 0.481,-0.037 0.968,-0.015 1.451,-0.016 0.102,0 0.205,0.008 0.306,0.001 0.193,-0.013 0.368,-0.096 0.551,-0.146 0.18,-0.049 0.405,-0.01 0.589,-0.01 0.387,-10e-4 0.774,0 1.162,0 h 0.233 C -4.792,1.822 -4.821,1.782 -4.855,1.745 -4.894,1.704 -4.942,1.687 -4.97,1.642 -5.016,1.571 -5.001,1.47 -5,1.391 -4.999,1.264 -4.981,1.131 -5.035,1.012 -5.095,0.88 -5.201,0.749 -5.285,0.631 -5.38,0.499 -5.505,0.401 -5.605,0.275 -5.663,0.202 -5.757,0.192 -5.818,0.109 -5.891,0.012 -6.006,-0.038 -6.095,-0.118 c -0.07,-0.062 -0.091,-0.091 -0.089,-0.18 0.002,-0.113 0,-0.226 0,-0.339 0.001,-0.13 0.012,-0.213 -0.042,-0.327 -0.061,-0.129 -0.096,-0.32 -0.21,-0.419 -0.026,-0.023 -0.061,-0.026 -0.082,-0.043 -0.044,-0.037 -0.073,-0.151 -0.088,-0.2 -0.042,-0.134 -0.085,-0.255 -0.154,-0.38 -0.05,-0.092 -0.106,-0.192 -0.169,-0.276 -0.084,-0.112 -0.215,-0.192 -0.314,-0.292 0.024,0.023 -0.139,-0.136 -0.15,-0.157 -0.026,-0.049 -0.006,-0.135 -0.006,-0.186 0,-0.059 0.009,-0.129 -0.001,-0.187 -0.013,-0.077 -0.065,-0.144 -0.085,-0.22 -0.041,-0.156 -0.08,-0.27 -0.063,-0.431 0.009,-0.078 0.051,-0.232 0.026,-0.319 -0.018,-0.065 -0.094,-0.092 -0.143,-0.139 -0.042,-0.04 -0.086,-0.093 -0.136,-0.123 -0.03,-0.018 -0.07,-0.019 -0.096,-0.048 0.363,-10e-4 0.558,-0.14 0.719,-0.228 0.222,-0.12 0.425,-0.265 0.652,-0.378 0.181,-0.091 0.354,-0.153 0.551,-0.201 0.177,-0.029 0.352,-0.065 0.526,-0.109 0.091,-0.018 0.181,-0.042 0.268,-0.071 0.19,-0.031 0.37,-0.005 0.557,0.025 0.214,0.034 0.419,0.068 0.622,0.147 0.278,0.108 0.556,0.192 0.849,0.248 0.286,0.054 0.556,0.1 0.823,0.228 0.094,0.045 0.189,0.089 0.284,0.132 0.016,-0.007 0.032,-0.014 0.048,-0.021 0.092,-0.027 0.194,-0.02 0.289,-0.023 0.122,-0.002 0.413,0.064 0.515,-0.055 0.153,-0.178 0.297,-0.381 0.433,-0.577 0.029,-0.076 0.085,-0.116 0.168,-0.118 0.119,-0.012 0.237,-0.031 0.353,-0.058 0.059,-0.019 0.117,-0.044 0.177,-0.063 0.236,-0.073 0.436,-0.074 0.665,0.03 0.158,0.073 0.209,0.152 0.307,0.288 0.054,0.059 0.104,0.12 0.152,0.183 0.008,0.023 0.016,0.047 0.024,0.07 0.049,0.092 0.158,0.143 0.257,0.153 0.014,-0.001 0.028,-0.002 0.041,-0.003 0.182,-0.023 0.364,-0.038 0.547,-0.047 0.23,-0.005 0.298,0.004 0.482,0.056 0.176,0.049 0.358,0.086 0.531,0.145 0.048,0.017 0.091,0.032 0.131,0.062 0.082,0.06 0.125,0.153 0.217,0.207 0.094,0.055 0.162,0.111 0.238,0.19 0.119,0.122 0.255,0.215 0.381,0.324 0.081,0.068 0.138,0.153 0.172,0.255 0.081,0.137 0.144,0.281 0.188,0.434 0.037,0.167 0,0.316 0.015,0.48 0.04,0.473 0.361,0.816 0.7,1.125 0.295,0.269 0.631,0.434 0.967,0.64 0.138,0.084 0.273,0.158 0.347,0.298 0.087,0.164 0.163,0.324 0.273,0.474 0.038,0.05 0.071,0.094 0.095,0.155 0.047,0.119 0.067,0.231 0.122,0.354 0.05,0.11 0.118,0.207 0.14,0.325 C 6.95,0.8 6.935,0.934 6.933,1.042 6.929,1.255 6.914,1.467 6.892,1.679 6.876,1.833 6.851,1.991 6.874,2.146 c 0.01,0.067 0.02,0.042 0.039,0.195"
             style="fill:#100f0d;fill-opacity:1;fill-rule:nonzero;stroke:none"
             id="path54961" />
        </g>
      </g>
    </g>
  </g>
</svg>
