<svg width="24" height="24" viewBox="0 0 24 24" fill="#000000" xmlns="http://www.w3.org/2000/svg">
  <path d="M16.3509 10.8316C16.3531 10.8479 16.3542 10.8652 16.3553 10.8826C16.3607 10.8685 16.3672 10.8565 16.3726 10.8435C16.364 10.8403 16.3574 10.8348 16.3509 10.8316Z"/>
  <path d="M6.12401 15.1312C5.96766 14.9759 5.77548 14.8489 5.6061 14.7088C5.48124 14.6056 5.31294 14.5123 5.20545 14.395C5.07408 14.2528 4.98722 14.041 4.89058 13.8652C5.02847 13.749 5.22717 13.661 5.38786 13.5905C5.60284 13.4971 5.70708 13.3733 5.82868 13.2083C5.85257 13.2484 5.87863 13.2886 5.90577 13.3299C5.99697 13.4754 6.12727 13.5709 6.21847 13.7164C6.25756 13.7772 6.29339 13.8543 6.34225 13.9086C6.38242 13.9564 6.42259 13.9618 6.46494 14.0009C6.51597 14.0476 6.61152 14.1941 6.63432 14.2593C6.64735 14.2984 6.62563 14.3255 6.63757 14.3646C6.66363 14.4536 6.73529 14.5752 6.77872 14.6632C6.82433 14.7566 6.88513 14.8478 6.94593 14.9357C6.8949 15.0258 6.83953 15.1181 6.79718 15.2017C6.74072 15.3092 6.66906 15.4189 6.62455 15.534C6.453 15.4015 6.27927 15.2842 6.12401 15.1312ZM5.69948 15.8282C5.64085 15.9194 5.57027 16.0345 5.55833 16.1355C5.54313 16.2625 5.55833 16.4124 5.5605 16.5394C5.56376 16.7707 5.50404 16.9824 5.34769 17.1637C5.26083 17.2647 5.16962 17.3407 5.09905 17.4579C5.05236 17.5361 5.01545 17.6262 4.96333 17.699C4.95464 17.7109 4.9427 17.725 4.92858 17.7392C4.84281 17.686 4.75052 17.6447 4.63434 17.636C4.51057 17.6262 4.38787 17.6425 4.26844 17.6729C4.0046 17.7392 3.75922 17.7413 3.48778 17.7511C3.3336 17.7576 3.25977 17.7706 3.11536 17.7402C2.93838 17.7033 2.76466 17.7109 2.58768 17.7392C2.50951 17.7511 2.42047 17.7869 2.34338 17.7902C2.28258 17.7934 2.22395 17.7685 2.16315 17.7696C1.92537 17.7717 1.67455 17.7424 1.43243 17.7739C1.3814 17.7804 1.33037 17.7945 1.27825 17.8097C1.39117 17.762 1.50409 17.7131 1.61809 17.6642C1.79725 17.5893 1.92645 17.4829 2.07846 17.3733C2.34338 17.18 2.61591 16.9617 2.82872 16.7109C2.94272 16.5741 3.03827 16.4243 3.15119 16.2886C3.2424 16.1757 3.29777 16.0432 3.3792 15.9259C3.49864 15.7598 3.6387 15.6067 3.77225 15.4504C3.88842 15.3136 3.97746 15.1876 4.07626 15.0367C4.17941 14.8782 4.33033 14.7381 4.45085 14.5883C4.5388 14.4775 4.61914 14.3776 4.6832 14.2517C4.68972 14.2387 4.69297 14.2245 4.70057 14.2104C4.89275 14.4439 5.01436 14.7055 5.16637 14.9867C5.26409 15.167 5.40306 15.3689 5.56267 15.4981C5.6517 15.5687 5.72771 15.6469 5.80371 15.7251C5.76462 15.7489 5.72988 15.7794 5.69948 15.8282ZM6.42368 12.6904C6.46385 12.7284 6.51054 12.7642 6.54746 12.7989C6.62129 12.8706 6.69295 12.9585 6.77655 13.0172C6.86884 13.0823 7.01216 13.2267 7.13268 13.1876C7.20326 13.1637 7.28903 13.0378 7.34006 12.9857C7.44212 12.8836 7.54093 12.774 7.64733 12.6762C7.66036 12.7153 7.67231 12.7555 7.68859 12.7946C7.73311 12.8967 7.77437 12.9965 7.8102 13.0986C7.795 13.1279 7.77654 13.1561 7.76242 13.1866C7.65276 13.4113 7.49316 13.6046 7.38024 13.8304C7.34983 13.8912 7.31726 13.952 7.28686 14.0128C7.22823 13.9444 7.16634 13.8814 7.09577 13.8282C7.02845 13.7772 6.96656 13.7446 6.91336 13.6795C6.84061 13.5905 6.78198 13.4775 6.72118 13.3809C6.59414 13.1855 6.46928 12.9933 6.34225 12.7989L6.34008 12.7978C6.37156 12.7653 6.39762 12.7284 6.42368 12.6904ZM7.90032 14.5416C7.9242 14.4059 7.98392 14.2701 8.02844 14.1366C8.03929 14.1018 8.05449 14.0693 8.07187 14.04C8.08272 14.0714 8.0925 14.1051 8.10553 14.1366C8.1913 14.3852 8.31291 14.5807 8.51052 14.724C8.50726 14.749 8.50617 14.7739 8.50509 14.7989C8.50292 14.8347 8.504 14.8706 8.504 14.9053C8.47903 14.9498 8.44971 14.9933 8.4128 15.0247C8.4052 15.0302 8.39542 15.0334 8.38782 15.0389C8.23147 14.901 8.05775 14.7859 7.87643 14.6849C7.88512 14.6436 7.89054 14.597 7.90032 14.5416ZM6.86776 16.3418C7.19131 16.3461 7.32921 16.0855 7.4823 15.8206C7.4671 15.7489 7.45515 15.6773 7.44973 15.6067C7.44538 15.5503 7.45624 15.4873 7.47144 15.4254C7.48013 15.4297 7.48664 15.4362 7.49424 15.4406C7.55504 15.4786 7.62562 15.4884 7.68751 15.5199C7.70597 15.4992 7.72551 15.4786 7.74614 15.4591C7.75808 15.4493 7.77003 15.4417 7.78197 15.4319C7.86666 15.5188 7.97415 15.5763 8.12181 15.5785C8.23582 15.5817 8.30422 15.5926 8.41171 15.6176C8.5268 15.6447 8.64189 15.6121 8.75698 15.6284C8.88185 15.6458 8.89488 15.7077 9.01214 15.5904C9.08488 15.5177 9.10117 15.4308 9.1598 15.344C9.24992 15.2115 9.34438 15.1094 9.40518 14.9531C9.44753 14.8434 9.49965 14.7175 9.51919 14.6035C9.5333 14.5231 9.53982 14.319 9.51267 14.243C9.49964 14.2028 9.48119 14.1746 9.46381 14.1453C9.52027 14.0801 9.57782 14.0172 9.64079 13.9574C9.60062 13.9162 9.55719 13.8782 9.52787 13.8261C9.50182 13.7783 9.48119 13.7273 9.46599 13.6751C9.4649 13.6523 9.46273 13.6263 9.46164 13.6035C9.44427 13.2734 9.50399 12.9585 9.5713 12.6372C9.58433 12.5807 9.60388 12.547 9.60388 12.4862C9.60605 12.4558 9.60279 12.4265 9.59953 12.3961C9.64297 12.3103 9.68748 12.2256 9.72548 12.1247C9.73091 12.1084 9.73417 12.0921 9.73851 12.0769C9.74503 12.066 9.75154 12.0563 9.75588 12.0465C9.76457 12.0313 9.77651 12.0128 9.7852 11.9966C9.85577 11.9043 9.92635 11.8109 9.99475 11.7175C9.96761 11.7034 9.93829 11.6915 9.91006 11.6784C9.75046 11.6089 9.56371 11.5188 9.38347 11.547C9.28358 11.5633 9.32375 11.6003 9.18586 11.5394C9.07077 11.4873 8.98174 11.4048 8.85036 11.4254C8.73744 11.4862 8.62886 11.5536 8.52354 11.6274C8.4812 11.8022 8.47903 11.9727 8.52572 12.1464C8.49097 12.1779 8.45514 12.2094 8.42474 12.243C8.4052 12.2626 8.39108 12.2832 8.37262 12.3017C8.34222 12.1833 8.30205 12.0671 8.25862 11.9531C8.2445 11.913 8.23365 11.8706 8.22822 11.8261C8.18044 11.8641 8.13376 11.9086 8.09141 11.9596C7.98392 12.1127 7.86014 12.2495 7.72117 12.3711C7.64951 12.3755 7.57784 12.382 7.51704 12.382H7.25646C7.20109 12.382 7.1392 12.3874 7.08274 12.3831C7.00565 12.3787 6.9329 12.3397 6.85798 12.3397C6.79501 12.3407 6.73964 12.4113 6.67232 12.3874C6.6126 12.3657 6.64735 12.3386 6.61477 12.2941C6.57894 12.281 6.55289 12.2561 6.53551 12.2213C6.52791 12.1942 6.52031 12.167 6.51163 12.1399C6.46494 12.0682 6.41391 12.0432 6.35745 11.9835C6.27276 12.027 6.2163 12.0128 6.11641 12.0259C6.02412 12.0389 6.06429 12.0107 6.01543 12.0736C6.00023 12.0943 5.96766 12.2028 5.96223 12.23C5.95354 12.2778 5.98069 12.3321 5.97092 12.3798C5.95463 12.4591 5.87754 12.5079 5.858 12.5883C5.84931 12.6252 5.8656 12.6719 5.86017 12.711C5.85691 12.7294 5.85257 12.7436 5.84714 12.7577C5.73313 12.8456 5.6289 12.9433 5.55073 13.0128C5.34009 13.1985 5.15225 13.4938 4.92098 13.6415C4.78201 13.7327 4.57571 13.7587 4.41502 13.7913C4.26627 13.8076 4.12186 13.8348 3.97854 13.876C3.9058 14.0378 3.83305 14.2093 3.73207 14.3451C3.53772 14.6078 3.44435 14.8185 3.43458 15.1474C3.4324 15.2669 3.44109 15.3201 3.38572 15.42C3.326 15.5242 3.30103 15.5546 3.20982 15.6404C3.11319 15.7337 3.01764 15.8141 2.91341 15.902C2.69843 16.0866 2.52579 16.2821 2.34881 16.5057C2.24458 16.6404 2.1284 16.7424 2.01114 16.864C1.91125 16.9704 1.89279 17.0356 1.77662 17.1072C1.54535 17.2462 1.32277 17.4232 1.09693 17.573C0.988352 17.6458 0.892806 17.7229 0.82766 17.839C0.801602 17.8836 0.780972 17.9368 0.766857 17.9856C0.758171 18.0128 0.761428 18.0312 0.754913 18.0551C0.779886 18.0529 0.804859 18.0529 0.83526 18.054C0.957951 18.0638 1.0763 18.0768 1.20442 18.0888C1.38683 18.1051 1.56381 18.1409 1.73536 18.1083C1.86022 18.0855 1.97205 18.117 2.1056 18.142C2.71906 18.2549 3.31623 18.4102 3.9362 18.4742C4.11752 18.3537 4.34444 18.2896 4.54965 18.269C4.71795 18.2516 4.9199 18.3189 5.11968 18.3906C5.15877 18.3005 5.18482 18.2082 5.20763 18.1127C5.21523 18.1127 5.22174 18.1127 5.22934 18.1116C5.33792 18.0888 5.45192 17.9878 5.52793 17.914C5.63976 17.8054 5.72553 17.7174 5.71359 17.5578C5.7049 17.4373 5.65713 17.3537 5.66039 17.2278C5.67342 16.8358 6.07298 16.6208 6.34985 16.4156C6.40631 16.3743 6.49425 16.319 6.57894 16.2549C6.66689 16.3005 6.75918 16.3396 6.86776 16.3418Z"/>
  <path d="M0.572197 9.18446C0.692716 9.20617 0.815408 9.2268 0.935927 9.24852C1.12594 9.28217 1.29206 9.2648 1.48207 9.25503C1.80888 9.23766 2.15632 9.204 2.4712 9.10954C2.64275 9.05851 2.80344 8.98576 2.97173 8.93039C3.11071 8.88804 3.22797 8.80444 3.36261 8.75341C3.55261 8.67849 3.75348 8.62637 3.94892 8.56774C4.12264 8.51671 4.26488 8.46025 4.42991 8.38859C4.49723 8.35819 4.56889 8.33756 4.64381 8.31585C4.68398 8.62637 4.64163 8.9217 4.61449 9.25177C4.59929 9.4559 4.60472 9.70128 4.66769 9.89455C4.72524 10.0672 4.74478 10.2355 4.78387 10.4081C4.80667 10.508 4.85879 10.6035 4.89787 10.7013C4.98256 10.9086 5.06291 11.1204 5.16714 11.3191C5.08571 11.3907 5.00211 11.458 4.9261 11.533C4.86204 11.597 4.81753 11.6698 4.7589 11.7371C4.64815 11.8652 4.49723 11.9434 4.37997 12.0606C4.35391 12.0867 4.32568 12.1171 4.29745 12.1453C4.14544 11.9553 3.99669 11.7599 3.85989 11.5503C3.71114 11.3212 3.71439 11.0498 3.47987 10.8696C3.37998 10.7957 3.26815 10.7425 3.15088 10.7013C2.89573 10.6122 2.68726 10.4809 2.45491 10.343C2.32136 10.2626 2.25404 10.2322 2.14981 10.128C2.02169 10.002 1.87077 9.913 1.70682 9.83809C1.63407 9.8066 1.54178 9.78814 1.47447 9.74905C1.42126 9.71757 1.3876 9.66545 1.33549 9.63396C1.13571 9.50367 0.941356 9.34406 0.720946 9.23983C0.675344 9.21594 0.623228 9.19857 0.572197 9.18446ZM4.40385 3.78062C4.38214 3.72416 4.38974 3.66227 4.37019 3.60364C4.29853 3.37671 4.25402 3.12699 4.15304 2.90549C4.13133 2.8588 4.10527 2.8132 4.07487 2.76869C4.15304 2.86315 4.23339 2.95761 4.31156 3.05098C4.43534 3.20082 4.57432 3.29311 4.72524 3.4082C4.98582 3.60364 5.27355 3.80233 5.57756 3.93262C5.74151 4.0032 5.91198 4.05097 6.07484 4.1172C6.20839 4.17149 6.35171 4.18669 6.48852 4.23012C6.68287 4.29635 6.86853 4.38539 7.05528 4.46682C7.22249 4.54174 7.36798 4.58734 7.54062 4.63945C7.72303 4.69266 7.89892 4.79689 8.07807 4.86638C8.16711 4.90221 8.25288 4.93261 8.34191 4.9565C8.21705 5.09547 8.08024 5.2236 7.94018 5.36692C7.79577 5.51349 7.64377 5.7035 7.56668 5.89351C7.50153 6.0618 7.40707 6.20404 7.32673 6.36039C7.28112 6.45268 7.25832 6.55908 7.22575 6.65897C7.1834 6.78709 7.14106 6.9163 7.10197 7.0455C6.95214 7.05419 6.80339 7.04442 6.65572 7.05636C6.56669 7.06396 6.48526 7.09002 6.39623 7.10414C6.23119 7.13345 6.06398 7.09545 5.89895 7.10956C5.73391 7.12368 5.54607 7.14539 5.37995 7.17254C5.27898 7.18991 5.16606 7.24963 5.08028 7.30174C5.06291 7.3126 5.04445 7.32455 5.02708 7.3354C5.0336 7.12259 5.04662 6.91087 5.0716 6.69372C5.10308 6.42445 5.28223 6.21598 5.21709 5.92825C5.18886 5.80773 5.13891 5.6959 5.07485 5.5895C4.93479 5.35714 4.86204 5.12262 4.77301 4.86638C4.7209 4.72089 4.68941 4.65357 4.67529 4.50591C4.65901 4.32676 4.60038 4.16172 4.5222 3.99994C4.48854 3.92828 4.42991 3.85553 4.40385 3.78062ZM8.70022 5.00861C8.75559 5.01187 8.80879 5.02056 8.85657 5.0477C8.90977 5.07702 8.96188 5.11828 9.01292 5.16388C9.01509 5.32457 9.00749 5.48743 8.94777 5.63727C8.92171 5.70024 8.87068 5.75888 8.82834 5.81099C8.79359 5.85225 8.75667 5.90763 8.70456 5.93043C8.66221 5.94997 8.61335 5.92717 8.57752 5.96734C8.50261 6.0542 8.79576 6.20947 8.86851 6.28113C8.9304 6.34084 9.01943 6.41142 9.052 6.49719C9.07915 6.57103 9.0596 6.67309 9.06069 6.75126C9.06069 6.75452 9.0596 6.75886 9.0596 6.76321C9.03897 6.77081 9.01726 6.77732 8.9912 6.77732C8.81205 6.77624 8.60793 6.70675 8.42986 6.67635C8.27568 6.64812 8.10847 6.59274 7.9543 6.60903C7.99121 6.5124 8.03247 6.41685 8.08024 6.32456C8.18339 6.12912 8.24854 5.90763 8.33431 5.70459C8.3962 5.55692 8.43529 5.36909 8.51889 5.23011C8.56558 5.15302 8.63073 5.07919 8.70022 5.00861ZM9.09109 9.48956C9.09326 9.48956 9.09326 9.48847 9.09435 9.48847C9.09326 9.48956 9.09326 9.48956 9.09109 9.49173V9.48956ZM8.7317 7.67307C8.68284 7.77079 8.63616 7.85223 8.60575 7.96189C8.58838 8.03355 8.60032 8.10847 8.58512 8.17904C8.56341 8.28436 8.52215 8.38751 8.50478 8.49391C8.49392 8.55906 8.48198 8.62312 8.46895 8.68718C8.2898 8.75775 8.11607 8.84027 7.95104 8.93907C7.84463 9.00313 7.73063 9.05525 7.61662 9.10411C7.61337 9.08891 7.60577 9.07479 7.60468 9.05851C7.59165 8.94342 7.60577 8.81638 7.60577 8.70129V8.00858C7.60577 7.91954 7.60034 7.82617 7.59925 7.73388C7.65354 7.71433 7.70891 7.69262 7.76429 7.66547C7.91847 7.5873 8.07373 7.4809 8.23442 7.41901C8.33214 7.37992 8.47329 7.38643 8.57644 7.37992C8.67524 7.37232 8.74147 7.40598 8.81531 7.44724C8.77622 7.5189 8.77513 7.58947 8.7317 7.67307ZM8.16602 10.2083C8.0911 10.3973 8.04224 10.5536 7.81749 10.5569C7.77623 10.5579 7.71109 10.5471 7.64485 10.5286C7.66114 10.5004 7.67743 10.4743 7.69263 10.445C7.72846 10.3907 7.76972 10.3408 7.81206 10.2963C7.77515 10.1486 7.77623 9.97163 7.76754 9.81203C7.85875 9.77077 7.95755 9.7458 8.05527 9.70888C8.0911 9.69368 8.12802 9.68174 8.16602 9.66979C8.14973 9.72842 8.13562 9.78705 8.1215 9.84351C8.10305 9.91843 8.08893 9.99226 8.08242 10.0639C8.17796 9.97815 8.27785 9.89889 8.38209 9.82397C8.40054 9.81854 8.41683 9.81963 8.4342 9.81854C8.27242 9.91952 8.22248 10.0661 8.16602 10.2083ZM7.05311 9.39075C7.05311 9.39401 7.04986 9.39727 7.04877 9.40161C6.99014 9.43635 6.93151 9.47001 6.87288 9.50367C6.80665 9.54167 6.69264 9.58402 6.64161 9.64265C6.59384 9.69368 6.59926 9.76534 6.5352 9.81854C6.39623 9.93255 6.19536 10.0107 6.04118 10.1008C5.85117 10.2116 5.60905 10.293 5.54065 10.5113C5.46573 10.305 5.3843 10.1095 5.33761 9.89455C5.29201 9.67956 5.19972 9.46893 5.13349 9.2572C5.08788 9.10411 4.99668 8.93365 4.97062 8.77621C4.94131 8.60357 4.97388 8.40271 4.99125 8.21596C5.1248 8.17144 5.24532 8.13127 5.36801 8.06178C5.47984 7.99663 5.57213 7.88046 5.70025 7.85548C5.887 7.82074 6.13021 7.86091 6.31805 7.89348C6.57755 7.938 6.7415 7.87177 6.96842 7.78491C6.95757 7.92497 6.95214 8.06504 6.95105 8.2127C6.94888 8.38534 7.00425 8.53734 7.00208 8.70889C7.00208 8.78164 6.99014 8.86524 6.99991 8.93799C7.00968 8.99988 7.04117 9.02594 7.05311 9.08348C7.07157 9.14863 7.07157 9.32343 7.05311 9.39075ZM9.44288 8.09869C9.48196 7.91086 9.65026 7.72953 9.77621 7.55581C9.75992 7.53301 9.74689 7.50912 9.73169 7.48632C9.74472 7.48198 9.75775 7.47872 9.77078 7.47547C9.86415 7.44832 9.93798 7.381 10.0216 7.35712C10.0835 7.33975 10.1877 7.35603 10.2529 7.35929C10.3441 7.36472 10.3886 7.41466 10.4744 7.41901C10.4928 7.62204 10.2094 7.62747 10.0976 7.71325C10.0466 7.75342 10.002 7.81748 9.96947 7.89131C9.89781 7.94126 9.82615 7.99229 9.75883 8.04006C9.59163 8.16167 9.46351 8.29305 9.37665 8.45482C9.36687 8.45591 9.35602 8.45591 9.34516 8.45808C9.38425 8.34082 9.41573 8.2203 9.44288 8.09869ZM1.08359 9.91409C1.56893 10.3723 2.00866 10.863 2.53634 11.2735C2.68075 11.3831 2.78932 11.5558 2.94024 11.6513C3.07162 11.7371 3.21711 11.8131 3.32243 11.9021C3.35609 11.9303 3.39301 11.9857 3.42992 12.0194C3.46793 12.0552 3.49398 12.0834 3.52439 12.1236C3.60799 12.2398 3.68073 12.3625 3.75674 12.483C3.798 12.5449 3.85229 12.5927 3.91526 12.6339C3.90114 12.6676 3.88703 12.7034 3.87617 12.7338C3.86314 12.7686 3.8512 12.8066 3.84034 12.8435C3.97715 12.7848 4.11721 12.7403 4.2627 12.7067C4.41905 12.6556 4.61992 12.6035 4.74804 12.4971C4.95976 12.3234 5.11068 12.0074 5.29744 11.7968C5.43533 11.6415 5.66659 11.3549 5.88483 11.2789C5.96844 11.268 6.04987 11.268 6.13347 11.2745C6.1465 11.2745 6.15844 11.2735 6.17039 11.2735C6.23879 11.1193 6.28656 10.9434 6.368 10.7957C6.41794 10.7034 6.52978 10.6177 6.60469 10.5471C6.70676 10.4472 6.8099 10.4548 6.94562 10.4168C6.96191 10.4135 6.97168 10.4103 6.9858 10.4059C7.00425 10.4494 7.02706 10.4917 7.04117 10.5482C7.05311 10.6046 7.06506 10.6578 7.07917 10.71C7.07591 10.8489 7.07157 10.9901 7.07809 11.128C7.08677 11.3256 7.22032 11.4114 7.37341 11.3126C7.47547 11.2463 7.748 10.9933 7.86201 11.0433C7.91955 11.0683 7.91195 11.1519 7.9847 11.1595C8.03681 11.0031 7.92932 10.8033 8.1443 10.7165C8.26482 10.6676 8.45483 10.7805 8.50478 10.609C8.54929 10.4548 8.45809 10.2789 8.52866 10.1247C8.56884 10.0346 8.65353 9.96946 8.71976 9.89346C8.72193 9.89455 8.72519 9.89563 8.72845 9.89672C8.87285 9.94123 8.82833 9.90975 8.92605 9.88043C9.10195 9.83157 9.29739 9.89889 9.46351 9.94883C9.49391 9.95752 9.52431 9.96621 9.55254 9.97706C9.56557 9.95861 9.57643 9.93906 9.5862 9.91952C9.58837 9.91626 9.59163 9.913 9.5938 9.90975C9.63614 9.8522 9.68066 9.79683 9.72735 9.75231C9.85438 9.62528 9.9825 9.47544 10.1334 9.36904C10.2507 9.32126 10.3647 9.27457 10.4744 9.2344C10.6166 9.18229 10.7566 9.13125 10.8989 9.08022C10.9488 9.06177 10.9966 9.04548 11.0465 9.03136C11.0433 9.03028 11.0433 9.02593 11.0411 9.02485C10.9325 8.81638 11.0856 8.91953 10.8392 8.66546C10.6882 8.5102 10.5308 8.36471 10.3745 8.21596C10.4852 8.15081 10.5753 8.04549 10.6361 7.91086C10.711 7.74365 10.7881 7.55473 10.837 7.38535C10.8533 7.32563 10.9684 7.10305 10.9434 7.04985C10.9163 6.99013 10.7132 6.96733 10.6394 6.94236C10.4309 6.87287 10.2301 6.85767 10.0194 6.81315C9.92387 6.79252 9.83918 6.77624 9.74472 6.74475C9.65351 6.71326 9.49934 6.71218 9.44288 6.6264C9.39076 6.54714 9.41465 6.43531 9.37665 6.3441C9.33756 6.24855 9.27784 6.18015 9.23441 6.09112C9.17361 5.96843 9.30933 5.84682 9.40379 5.77191C9.50151 5.69482 9.49499 5.68287 9.52214 5.56344C9.53842 5.48852 9.58186 5.39623 9.60466 5.31046C9.63831 5.18342 9.69803 5.01187 9.67089 4.87398C9.63831 4.70243 9.51779 4.61665 9.3723 4.54716C9.37339 4.54174 9.37556 4.53414 9.37665 4.52871C9.33322 4.49722 9.2887 4.46899 9.24201 4.43859C9.29304 4.38104 9.34299 4.32241 9.3951 4.26595C9.38425 4.16498 9.34842 4.06834 9.28436 3.96194C9.2279 3.86639 9.16601 3.7665 9.10303 3.6677C9.06829 3.69918 9.03246 3.72959 8.9988 3.76107C8.90434 3.84902 8.85874 3.97171 8.82291 4.09223C8.80879 4.13783 8.79033 4.18452 8.77296 4.23012C8.76102 4.22904 8.74799 4.22578 8.73713 4.22361C8.53192 4.19104 8.29848 4.17909 8.10196 4.10852C7.79469 3.99777 7.56668 3.97171 7.24964 4.05857C7.13563 4.08789 7.08569 4.11286 6.97385 4.08789C6.85659 4.064 6.81859 4.04771 6.7111 3.98691C6.59384 3.91959 6.49069 3.8501 6.3756 3.77736C6.13564 3.62535 5.89895 3.51786 5.63294 3.41363C5.47441 3.35174 5.34304 3.27139 5.19212 3.19539C5.06291 3.13133 4.99342 3.13133 4.89245 3.04013C4.69158 2.8588 4.45705 2.6992 4.2475 2.52547C4.14544 2.44404 4.04447 2.37455 3.91526 2.34632C3.86531 2.33547 3.80885 2.33004 3.75674 2.33004C3.72851 2.32787 3.71114 2.33872 3.68725 2.33872C3.69702 2.36153 3.70571 2.3865 3.71114 2.41473C3.73937 2.53633 3.76 2.65359 3.78714 2.77954C3.82297 2.95869 3.84034 3.13676 3.92177 3.29311C3.98041 3.40494 3.98258 3.5222 3.99669 3.65684C4.0727 4.31915 4.09441 4.97821 4.23665 5.63076C4.27356 5.80774 4.24859 6.01077 4.30179 6.18124C4.34631 6.32999 4.41037 6.48308 4.43317 6.61771C4.44077 6.66006 4.43317 6.72846 4.44077 6.77732C4.4462 6.82944 4.44945 6.86853 4.4462 6.91847C4.43534 7.06179 4.41254 7.20185 4.39408 7.34192C4.37997 7.44724 4.40928 7.55256 4.44837 7.65027C4.18344 7.75668 4.00538 7.88263 3.83274 8.13127C3.76542 8.22899 3.74479 8.27893 3.64382 8.33213C3.53633 8.38751 3.49724 8.39945 3.37564 8.42225C3.24209 8.44505 3.1194 8.46025 2.98476 8.47762C2.70246 8.51454 2.45165 8.5862 2.1813 8.67632C2.01952 8.73169 1.86751 8.75341 1.70356 8.7925C1.56133 8.82724 1.50812 8.87176 1.37349 8.86633C1.10313 8.85764 0.820836 8.88479 0.549396 8.88587C0.418019 8.88804 0.296413 8.90216 0.179151 8.96296C0.133549 8.98576 0.086861 9.01942 0.0466878 9.05091C0.0249726 9.06937 0.018458 9.08891 0 9.10302C0.0217152 9.11497 0.0434305 9.128 0.0673173 9.14754C0.165036 9.22137 0.257326 9.29629 0.359387 9.37664C0.502708 9.49173 0.628657 9.61659 0.792607 9.68391C0.909869 9.73168 0.985872 9.82071 1.08359 9.91409Z"/>
  <path d="M21.3175 12.5601C21.1894 12.6697 21.0787 12.7935 20.9538 12.9032C20.8518 12.9933 20.4739 12.4417 20.3773 12.5384C20.2426 12.6741 20.0895 12.7946 19.9441 12.9173C19.8127 13.0269 19.7117 13.129 19.5977 13.2539C19.513 13.3462 19.4077 13.4265 19.3056 13.5079C19.1308 13.2289 19.0613 12.9271 18.9593 12.597C18.9528 12.5774 18.943 12.5557 18.9365 12.5351C18.9517 12.5351 18.9669 12.5351 18.9821 12.5351C19.1786 12.5351 19.374 12.5166 19.564 12.4852C19.6096 12.4776 19.6585 12.4428 19.6932 12.4417C19.7519 12.4396 19.8355 12.4743 19.8974 12.4797C20.0266 12.4884 20.1558 12.4862 20.2861 12.4852C20.4565 12.4841 20.6737 12.5188 20.8322 12.4472C20.9744 12.382 21.1134 12.3093 21.2643 12.281C21.3718 12.2615 21.4598 12.1996 21.5651 12.167C21.729 12.116 21.9039 12.1062 22.0754 12.0823C21.8127 12.2148 21.5423 12.369 21.3175 12.5601ZM20.2502 16.1724C20.3165 16.2679 20.3979 16.3483 20.488 16.4189C20.6889 16.5709 20.8322 16.7511 20.9983 16.9422C21.0928 17.053 21.1427 17.0996 21.2057 17.2234C21.2828 17.3765 21.3892 17.5014 21.5108 17.6143C21.5662 17.6642 21.6422 17.7055 21.69 17.7609C21.7269 17.8032 21.7421 17.8618 21.779 17.9064C21.9191 18.0801 22.0439 18.281 22.2079 18.4395C22.2415 18.4731 22.2795 18.5035 22.3219 18.5318C22.222 18.4775 22.1221 18.4232 22.0222 18.37C21.8648 18.2853 21.716 18.2538 21.5456 18.2093C21.2557 18.1333 20.943 18.066 20.6411 18.0649C20.4761 18.0627 20.3154 18.0823 20.1525 18.0844C20.0201 18.0866 19.8941 18.1279 19.7627 18.1387C19.576 18.1528 19.386 18.142 19.1981 18.1398C19.032 18.1387 18.892 18.1496 18.728 18.1691C18.5814 18.1865 17.7812 17.7446 17.6292 17.7402C17.728 17.4688 18.4989 17.6241 18.5945 17.2983C18.601 17.2745 18.2047 17.1376 18.2014 17.1127C18.171 16.8629 18.2318 16.6415 18.2372 16.4037C18.2112 16.1626 17.9582 15.6035 17.93 15.3646C18.0114 15.3288 18.095 15.294 18.1732 15.2506C18.247 15.2104 18.3067 15.1572 18.3762 15.1127C18.5076 15.0258 18.6607 14.9976 18.7964 14.9249C18.9321 14.8499 19.0841 14.7609 19.2144 14.6762C19.2546 14.6502 19.2926 14.6154 19.3263 14.5763C19.3762 14.7207 19.4229 14.8673 19.4631 15.0182C19.5293 15.268 20.095 15.9433 20.2502 16.1724ZM17.4468 13.9792C17.4229 13.914 17.4034 13.8348 17.3686 13.7761C17.3382 13.7229 17.3035 13.7131 17.272 13.6665C17.2351 13.6143 17.1732 13.4613 17.1656 13.3972C17.1591 13.357 17.183 13.3353 17.1797 13.2962C17.1775 13.281 17.1754 13.2647 17.171 13.2474C17.209 13.2028 17.2481 13.154 17.2633 13.1084C17.2839 13.0454 17.2568 12.9835 17.2926 12.914C17.3198 12.8597 17.3567 12.8076 17.3947 12.7566C17.4045 12.7696 17.4164 12.7805 17.4316 12.7848C17.4718 12.7957 17.5228 12.7349 17.5554 12.7132C17.6607 12.6404 17.8181 12.5829 17.9376 12.5546C18.0548 12.5275 18.1775 12.5264 18.3002 12.5286C18.373 12.6144 18.449 12.699 18.5174 12.7848C18.6097 12.9021 18.7465 13.0172 18.8235 13.1475C18.9245 13.319 18.9669 13.5611 19.0331 13.7533C18.9929 13.7957 18.9538 13.8391 18.9158 13.8901C18.8431 13.9868 18.8062 14.1236 18.7052 14.1931C18.5597 14.2929 18.3404 14.3472 18.1688 14.3896C17.9799 14.4352 17.8692 14.5188 17.7476 14.6328C17.7215 14.5535 17.6944 14.4754 17.6629 14.3939C17.6032 14.2419 17.5043 14.129 17.4468 13.9792ZM17.373 17.6002C17.3643 17.6501 17.3513 17.7001 17.3371 17.75C17.2818 17.7544 17.2286 17.762 17.1732 17.775C17.057 17.8032 16.9452 17.8825 16.8247 17.8694C16.6531 17.8499 16.4512 17.7446 16.2959 17.661C16.1363 17.5774 16.0071 17.5633 15.8605 17.5676C15.8974 17.4232 15.8974 17.2821 15.943 17.1409C15.9647 17.0736 15.9984 17.0008 16.0103 16.9314C16.019 16.8716 15.9984 16.8391 16.0027 16.7848C16.0071 16.7229 16.0483 16.5839 16.0798 16.5188C16.1059 16.5122 16.1287 16.5046 16.1461 16.4916C16.2014 16.4569 16.2188 16.3917 16.2883 16.3624C16.4403 16.2973 16.639 16.281 16.7986 16.243C17.0027 16.1952 17.2438 16.1898 17.3632 15.9911C17.3697 16.1529 17.3773 16.3114 17.3632 16.4753C17.3437 16.6849 17.3643 16.9042 17.3632 17.1148C17.3632 17.2679 17.3947 17.4482 17.373 17.6002ZM16.7031 19.4709C16.5999 19.7098 16.386 19.8477 16.3632 20.1289C16.3534 20.2462 16.3676 20.3645 16.3936 20.4785C16.4501 20.7304 16.4805 21.1398 16.4881 21.3993C16.4902 21.5469 16.5011 21.6175 16.4707 21.7554C16.436 21.9226 16.4403 22.0909 16.4642 22.2592C16.474 22.3352 16.5044 22.4188 16.5076 22.4937C16.5098 22.5513 16.487 22.6066 16.487 22.6642C16.4859 22.8911 16.4555 23.1311 16.4826 23.3623C16.4881 23.4112 16.5 23.46 16.513 23.51C16.4696 23.4014 16.4284 23.2939 16.3849 23.1843C16.3176 23.0138 16.2231 22.89 16.1222 22.7434C15.9474 22.4894 15.7519 22.2277 15.5228 22.0236C15.4001 21.9139 15.2644 21.8216 15.1396 21.7141C15.0375 21.6262 14.917 21.5752 14.8095 21.4937C14.6575 21.3797 14.4892 21.0703 14.3491 20.9432C14.2221 20.8292 14.1092 20.7456 13.9734 20.6501C13.829 20.5513 13.7031 20.408 13.5685 20.2929C13.7596 20.1506 13.9691 20.0475 14.1928 19.9248C14.3589 19.8314 14.5467 19.7011 14.6651 19.5491C14.7704 19.4145 14.892 19.3113 15.0071 19.1897C15.0722 19.1192 15.1211 19.028 15.1776 18.9476C15.3231 18.7337 15.4761 18.5242 15.5901 18.2896L15.5945 18.2788C15.6499 18.2983 15.7085 18.3157 15.7671 18.3298C15.8486 18.3472 15.9267 18.3472 16.0082 18.358C16.1591 18.3808 16.2948 18.4601 16.4425 18.4938C16.5912 18.5285 16.7639 18.56 16.9148 18.5828C16.9506 18.5882 16.9886 18.5861 17.0277 18.5828C16.93 18.8792 16.8323 19.1778 16.7031 19.4709ZM13.3144 20.1007C13.2959 20.0898 13.2775 20.0779 13.259 20.067C13.1537 20.0117 13.0191 19.9965 12.9365 19.9053C12.9018 19.8683 12.8692 19.8227 12.8399 19.7728C12.8421 19.8075 12.8464 19.8412 12.8508 19.8759C12.8584 19.9313 12.8649 19.9954 12.8714 20.0649C12.8367 20.041 12.803 20.0149 12.778 19.9823C12.7433 19.9411 12.7379 19.877 12.7042 19.8379C12.6651 19.7934 12.6032 19.7912 12.5706 19.7424C12.512 19.6544 12.4968 19.4601 12.5153 19.3635C12.537 19.2505 12.5826 19.143 12.613 19.0312C12.6608 18.8564 12.7357 18.7066 12.8627 18.5611C13.006 18.3971 13.2536 18.2723 13.3632 18.0812C13.3719 18.0768 13.3806 18.0714 13.3882 18.0681C13.4686 18.028 13.5457 17.9748 13.6227 17.9216C13.6303 17.9227 13.639 17.9227 13.6488 17.9259C13.8041 17.9769 13.9637 18.0975 14.1103 18.1756C14.3035 18.2788 14.5 18.4503 14.7259 18.3472C14.7845 18.32 14.7726 18.282 14.8649 18.2451C14.905 18.2288 14.9539 18.2169 15.0028 18.2071C14.9257 18.3168 14.8171 18.3982 14.7313 18.5079C14.5912 18.687 14.461 18.876 14.3068 19.0432C14.1754 19.1854 14.0636 19.3548 13.942 19.5046C13.8464 19.6219 13.7606 19.7826 13.6499 19.8846C13.5565 19.9704 13.4338 20.0366 13.3144 20.1007ZM12.36 19.2408C12.3611 19.1648 12.3687 19.104 12.4078 19.0301C12.4284 18.9932 12.4545 18.9596 12.4816 18.927C12.4545 19.0356 12.411 19.1387 12.36 19.2408ZM12.9485 17.8173C13.0245 17.6849 13.0375 17.5372 13.0299 17.3841C13.157 17.2777 13.2992 17.1583 13.3589 17.1083C13.3546 17.1268 13.3513 17.1463 13.348 17.167L13.145 17.5937C13.0766 17.6653 13.0082 17.737 12.9474 17.8195L12.9485 17.8173ZM13.1906 16.8673C13.2536 16.8434 13.3111 16.8184 13.3676 16.7924C13.3687 16.7924 13.3698 16.7924 13.3719 16.7935C13.3861 16.8825 13.3861 16.9748 13.3643 17.0758C13.2927 17.0497 13.2188 17.0204 13.1472 16.9954C13.0994 16.9791 13.0592 16.9542 13.0201 16.9259C13.0788 16.9075 13.1363 16.8857 13.1906 16.8673ZM14.1124 17.3874C14.1472 17.3277 14.158 17.256 14.1906 17.1952C14.2384 17.1062 14.3013 17.0226 14.3491 16.9303C14.3643 16.8988 14.3806 16.8673 14.3969 16.8347C14.5348 16.8184 14.6716 16.7989 14.8051 16.7641C15.0288 16.7066 15.259 16.7077 15.487 16.6534C15.4968 16.6512 15.5065 16.6491 15.5152 16.6447C15.5163 16.648 15.5163 16.6501 15.5141 16.6512C15.4924 16.7598 15.4457 16.8705 15.4132 16.9759C15.3632 17.1366 15.3155 17.2973 15.2666 17.4569C15.17 17.4362 15.0701 17.4449 14.968 17.4623C14.8106 17.4873 14.6455 17.5415 14.487 17.5546C14.3915 17.5611 14.2699 17.5144 14.1787 17.4927C14.1352 17.4829 14.1037 17.4645 14.0733 17.4417C14.0864 17.4243 14.0994 17.4069 14.1124 17.3874ZM15.0603 15.8076C15.1732 15.6143 15.2394 15.4297 15.2449 15.2289C15.3773 15.1583 15.5087 15.0845 15.6292 14.9922C15.6368 15.1094 15.651 15.2234 15.6716 15.3385C15.7009 15.5025 15.6368 15.7012 15.5901 15.8858C15.4881 15.9314 15.3763 15.9661 15.2753 16.0106C15.2688 16.0139 15.2579 16.0161 15.2503 16.0171L14.9235 16.0334C14.9713 15.9563 15.018 15.8792 15.0603 15.8076ZM15.8996 12.6165C15.9028 12.6068 15.9039 12.5959 15.905 12.5861C15.9756 12.6567 16.0473 12.7251 16.1233 12.7892C16.2318 12.8804 16.3002 13.0378 16.3676 13.1909C16.3513 13.218 16.3361 13.2463 16.3209 13.2745C16.2883 13.3331 16.2459 13.382 16.2003 13.4265C16.1949 13.3874 16.1895 13.3494 16.1851 13.3114C16.1471 13.0454 16.0635 12.8304 15.8887 12.6545C15.8909 12.6426 15.8974 12.6285 15.8996 12.6165ZM16.7497 13.8022C16.7736 13.8282 16.7953 13.8576 16.8149 13.8945C16.8637 13.99 16.8963 14.1073 16.9365 14.2083C17.0158 14.4113 17.0972 14.6143 17.1775 14.8174C17.1927 14.8565 17.2112 14.8955 17.2275 14.9357C17.1493 14.9857 17.0831 15.0519 17.0212 15.1257C16.9148 15.2506 16.8214 15.4026 16.7063 15.5177C16.6379 15.5872 16.5174 15.6339 16.4327 15.6773C16.4392 15.6013 16.4153 15.5372 16.424 15.4504C16.4305 15.3451 16.4425 15.256 16.4284 15.1496C16.4208 15.079 16.3838 15.0182 16.3719 14.9509C16.3524 14.8499 16.3524 14.7446 16.3296 14.6436C16.31 14.5503 16.2916 14.4569 16.2764 14.3646C16.3187 14.3147 16.3589 14.2658 16.3969 14.2126C16.5011 14.0649 16.6303 13.939 16.7497 13.8022ZM23.1145 11.5709C23.0993 11.584 23.0808 11.5916 23.0645 11.6035C23.0189 11.5775 22.9256 11.5395 22.9006 11.5319C22.7822 11.4949 22.6899 11.4689 22.5597 11.47C22.4478 11.47 22.3338 11.4754 22.2231 11.47C22.1536 11.4667 22.1264 11.4374 22.07 11.4233C21.9951 11.4048 21.9397 11.4287 21.8691 11.4439C21.7703 11.4656 21.6661 11.4819 21.5814 11.508C21.4174 11.5568 21.2437 11.5916 21.0852 11.6513C20.9158 11.7153 20.7779 11.8218 20.6281 11.9162C20.5206 11.9835 20.4305 12.0432 20.2991 12.0291C20.1308 12.0107 19.9332 11.913 19.792 11.8228C19.6466 11.7295 19.6053 11.6697 19.5184 11.8511C19.475 11.9434 19.4044 12.0128 19.3263 12.0834C19.2731 12.1312 19.1949 12.1953 19.1373 12.2311C19.0418 12.2919 18.9571 12.2658 18.8518 12.2799C18.8442 12.281 18.8388 12.2821 18.8312 12.2832C18.8214 12.2637 18.8138 12.243 18.8029 12.2246C18.7649 12.217 18.7269 12.2061 18.6889 12.192C18.6075 12.1605 18.5434 12.1203 18.487 12.0747C18.462 12.0769 18.4359 12.0758 18.411 12.0769L18.3968 12.028C18.2633 12.0324 18.1764 11.8511 18.1059 11.7718C17.9712 11.6198 18.019 11.8218 17.9864 11.8967C17.9408 12.0009 17.8312 11.9781 17.7367 11.977C17.6151 11.9748 17.5576 12.0248 17.4403 12.0346C17.4392 12.0454 17.4359 12.0628 17.4316 12.0834C17.31 12.0899 17.1884 12.0975 17.0668 12.1019C17.0407 12.1714 17.0049 12.2409 16.9788 12.3006C16.9474 12.3744 16.9007 12.4157 16.8464 12.4558C16.8225 12.432 16.7975 12.4059 16.7736 12.3711C16.7139 12.2865 16.6672 12.2126 16.5912 12.1399C16.5858 12.1355 16.5825 12.1323 16.5782 12.129L16.4229 12.1366C16.0483 12.1562 15.6759 12.1768 15.3024 12.1942C15.0842 12.2039 14.8583 12.1931 14.6499 12.2734C14.5163 12.3245 14.3969 12.4037 14.2883 12.496C14.3687 12.6784 14.4284 12.8684 14.4859 13.0628C14.5011 13.116 14.5 13.1518 14.5283 13.2028C14.5283 13.205 14.5294 13.2072 14.5294 13.2083C14.5315 13.2745 14.538 13.3418 14.5489 13.4146C14.5684 13.5405 14.6216 13.6447 14.6368 13.7718C14.639 13.7913 14.6401 13.8087 14.6401 13.8239C14.5891 14.0085 14.5218 14.1865 14.449 14.3646C14.4338 14.4037 14.4175 14.4276 14.4056 14.4612C14.2612 14.5959 14.1265 14.7468 13.993 14.8738C13.8898 14.9726 13.7878 15.0714 13.6846 15.1681C13.461 15.3831 13.753 15.4352 13.4838 15.5796C13.4827 15.5817 13.4794 15.5817 13.4773 15.5828L13.2221 15.5959L13.0451 16.0378C13.018 16.0486 12.9919 16.0595 12.9659 16.0725C12.8681 16.1214 12.7976 16.205 12.7107 16.2701C12.5815 16.3668 12.4827 16.382 12.3394 16.4362C11.993 16.5644 12.5001 16.8488 12.5891 16.9976C12.6597 17.1159 12.5663 17.2983 12.562 17.4319C12.5598 17.5068 12.5294 17.5274 12.5153 17.5872C12.499 17.6566 12.5098 17.7402 12.5109 17.8119C12.5142 18.0106 12.4121 18.1919 12.4078 18.3982C12.4056 18.5209 12.3817 18.6251 12.3633 18.7478C12.3394 18.9074 12.3524 19.0801 12.3567 19.2451C12.3155 19.3276 12.2677 19.408 12.2199 19.4883C12.132 19.6327 12.17 19.6957 12.2015 19.8694C12.2167 19.9498 12.2123 19.9443 12.2547 20.0041C12.2818 20.0421 12.3394 20.1159 12.3698 20.1485C12.4436 20.2245 12.5381 20.2809 12.6108 20.3591C12.7226 20.4796 12.7281 20.5024 12.892 20.5003C12.8942 20.5003 12.8985 20.5003 12.9018 20.5003C12.9061 20.5752 12.9094 20.6447 12.9116 20.7044L13.0766 20.8216C13.1048 20.7945 13.0962 20.8097 13.0831 20.8249C13.1732 20.8694 13.259 20.9183 13.3339 20.9769C13.5728 21.1637 13.7639 21.2538 14.0657 21.2625C14.1743 21.2668 14.2547 21.434 14.3459 21.4872C14.4403 21.5437 14.4696 21.5686 14.5467 21.6555C14.6314 21.7489 14.7031 21.8401 14.7823 21.94C14.9485 22.1474 15.1265 22.3113 15.3307 22.4807C15.4523 22.5827 15.5445 22.6935 15.6553 22.8053C15.7498 22.8998 15.8116 22.9193 15.8746 23.0312C15.9984 23.2527 16.1591 23.4655 16.2948 23.6826C16.3589 23.7858 16.4294 23.877 16.5348 23.9399C16.5749 23.9649 16.6227 23.9845 16.6672 23.9997C16.6922 24.0084 16.6792 23.8292 16.7009 23.8368C16.6976 23.8129 16.7302 23.9627 16.7324 23.9345C16.7421 23.8173 16.7552 23.7033 16.7671 23.5816C16.7845 23.4058 16.8203 23.2396 16.7932 23.0746C16.7725 22.9573 16.804 22.8477 16.8279 22.7217C16.9474 22.0952 17.0798 21.3124 17.1384 20.6783C17.1536 20.5046 17.2329 20.3287 17.234 20.1572C17.2351 20.0084 17.222 19.851 17.2394 19.7207C17.2459 19.6707 17.2818 19.5947 17.2807 19.5437C17.348 19.3168 17.4685 19.1126 17.5499 18.9009C17.5033 18.7728 17.5011 18.6208 17.5043 18.4699C17.601 18.4427 17.6976 18.4221 17.7921 18.4156C18.0928 18.3993 18.9386 18.7663 19.1775 18.5719C19.2633 18.5014 19.2969 18.4623 19.4012 18.4416C19.5076 18.421 19.5456 18.4221 19.6585 18.4351C19.7812 18.4514 19.893 18.4731 20.0168 18.4948C20.273 18.5394 20.513 18.548 20.7736 18.5394C20.9299 18.5372 21.07 18.5578 21.2231 18.5698C21.3577 18.5774 21.4153 18.5524 21.5325 18.5937C21.766 18.6783 22.0211 18.7337 22.2589 18.8086C22.3729 18.8445 22.4837 18.8662 22.6031 18.8445C22.6509 18.8358 22.7008 18.8173 22.7432 18.7999C22.7681 18.7902 22.7801 18.775 22.7996 18.7663C22.7844 18.7511 22.7681 18.7315 22.7529 18.7077C22.6878 18.611 22.6281 18.5177 22.5618 18.4156C22.4685 18.2712 22.3925 18.1203 22.2676 18.0128C22.1796 17.9357 22.1384 17.8325 22.0776 17.7207C21.7823 17.1659 21.5347 16.5937 21.1862 16.0725C21.0928 15.9292 20.4012 15.3147 20.2969 15.1844C20.2057 15.0704 20.0982 14.9596 20.032 14.8499C20.0103 14.813 19.9929 14.7511 19.9701 14.7099C19.9473 14.6686 19.931 14.6339 19.9158 14.5894C19.8757 14.458 19.8453 14.3255 19.8127 14.1952C19.7975 14.1333 19.766 14.0791 19.7291 14.0302C19.7497 14.0063 19.7682 13.9824 19.791 13.9618C20.0103 13.749 20.1308 13.5677 20.1938 13.2593C20.2177 13.1486 20.2188 13.0964 20.2872 13.0117C20.3566 12.9249 20.6932 13.5666 20.7899 13.5003C21.0048 13.3559 21.2068 13.255 21.4934 13.0563C21.5271 13.0345 21.5564 13.0041 21.5825 12.9737C21.7399 12.7816 21.9071 12.6871 22.0798 12.5546C22.1872 12.4732 22.2155 12.4135 22.3327 12.3668C22.5662 12.2756 22.7964 12.1486 23.0254 12.0443C23.1362 11.9944 23.235 11.939 23.3143 11.8413C23.3436 11.8044 23.3718 11.7566 23.3946 11.7132C23.4066 11.6904 23.4076 11.6719 23.4163 11.6513C23.3935 11.6491 23.3707 11.6448 23.3436 11.6383C23.2676 11.6165 23.1916 11.5937 23.1145 11.5709Z"/>
  <path d="M13.0714 14.4754C13.0768 14.4754 13.0822 14.4776 13.0855 14.4776C13.0877 14.4754 13.0888 14.4721 13.0888 14.4689C13.0833 14.4721 13.079 14.4732 13.0714 14.4754Z"/>
  <path d="M11.0895 17.8282C11.0906 17.952 11.0591 18.0236 11.0146 18.1083C10.9549 18.1322 10.8941 18.1539 10.8366 18.1789C10.6813 18.2441 10.5271 18.3092 10.3719 18.3765C10.3577 18.3646 10.3447 18.3505 10.3306 18.3374C10.1992 18.2256 10.0396 18.1257 9.91801 18.0019C9.84526 17.9259 9.79532 17.7946 9.74863 17.7023C9.69 17.5839 9.71606 17.4905 9.72366 17.3657C9.76709 17.3602 9.81052 17.3516 9.86264 17.3559C9.97447 17.3646 10.0657 17.3733 10.1786 17.3592C10.2513 17.3472 10.3154 17.307 10.3871 17.2929C10.4913 17.2712 10.601 17.268 10.7063 17.243C10.7595 17.23 10.8105 17.2202 10.8615 17.2104C10.8854 17.243 10.9115 17.2756 10.9386 17.307C11.0798 17.4688 11.0885 17.6121 11.0895 17.8282ZM9.76057 20.9487C9.49891 21.0247 9.60857 20.9878 9.36861 21.1615C9.26872 21.2332 9.18512 21.3244 9.11346 21.4232C8.95277 21.6436 8.7671 21.8032 8.56624 21.9867C8.45114 22.0898 8.4012 22.1463 8.27199 22.2158C8.11456 22.3026 7.98318 22.421 7.867 22.5556C7.81489 22.6153 7.77146 22.6979 7.71283 22.7511C7.66831 22.7923 7.60859 22.8119 7.56082 22.851C7.38167 23.0062 7.17103 23.1452 7.006 23.3243C6.97125 23.3623 6.93868 23.4058 6.91045 23.4503C6.96691 23.3406 7.0212 23.231 7.07766 23.1213C7.16452 22.9498 7.19709 22.7858 7.24269 22.6012C7.32087 22.2831 7.39036 21.9411 7.39144 21.6121C7.39144 21.4329 7.36973 21.2581 7.36538 21.0812C7.36321 20.9378 7.31978 20.7999 7.30784 20.6555C7.29372 20.4536 7.30132 20.2451 7.30349 20.041C7.30458 19.8586 7.29264 19.7066 7.27092 19.5285C7.25138 19.3678 7.26658 19.1974 7.26875 19.0312C7.39035 19.0779 7.51087 19.129 7.63899 19.1778C7.829 19.2527 8.0657 19.319 8.27091 19.3157C8.45006 19.3103 8.61835 19.3418 8.79425 19.3526C8.89739 19.3591 9.00271 19.3385 9.10803 19.3298C9.37947 19.3049 9.65526 19.2896 9.9191 19.2234C9.95384 19.2136 9.9875 19.2028 10.0222 19.193C10.0874 19.3244 9.76709 19.4221 9.83441 19.5513C9.87675 19.6306 9.93321 19.6957 9.98207 19.7717C10.0722 19.9129 10.1037 20.0801 10.1808 20.2256C10.2579 20.3722 10.3545 20.5383 10.4424 20.6794C10.4489 20.687 10.4544 20.6946 10.4609 20.7033C10.2318 20.7934 10.0016 20.8781 9.76057 20.9487ZM7.42293 17.8C7.46093 17.6881 7.47179 17.5329 7.54236 17.4449C7.67265 17.2832 7.91586 17.2462 8.0733 17.1246C8.1797 17.0443 8.25571 17.0171 8.38274 17.0009C8.48698 16.9878 8.56732 16.965 8.64875 16.9607C8.69327 16.9748 8.73561 16.9922 8.7595 17.0063C8.78665 17.0215 8.79425 17.0476 8.8127 17.0682C8.81922 17.0942 8.82465 17.1192 8.83116 17.1431C8.84636 17.2169 8.85396 17.3396 8.89522 17.4048C8.93105 17.4656 9.00054 17.4829 9.03311 17.5579C9.1026 17.7218 9.11889 17.9368 9.15906 18.1138C9.20358 18.3049 9.21552 18.5318 9.35559 18.6708C9.28175 18.6632 9.20792 18.6556 9.12975 18.6599C8.90499 18.6697 8.68893 18.6936 8.46417 18.674C8.24485 18.6556 8.01575 18.6816 7.79534 18.6838C7.63465 18.6838 7.44573 18.7218 7.28721 18.7012C7.27635 18.7001 7.26658 18.6947 7.25572 18.6936C7.25029 18.6404 7.24378 18.5904 7.23075 18.5361C7.22098 18.4981 7.20686 18.459 7.19275 18.421C7.2264 18.1995 7.3491 18.0128 7.42293 17.8ZM10.829 15.5101C10.7844 15.4667 10.3111 15.7533 9.89195 16.0161C9.75623 16.1301 9.61725 16.2408 9.46959 16.3429C9.11672 16.5883 8.58035 16.6903 8.20576 16.8977C8.20902 16.8988 8.21228 16.8988 8.21553 16.8999C8.20685 16.9031 8.20033 16.9064 8.19165 16.9097C7.86158 17.0161 7.51087 17.0736 7.20795 17.2636C7.03531 17.37 6.88873 17.5199 6.82576 17.711C6.7845 17.8369 6.71067 17.9379 6.73781 18.0627C6.76387 18.1811 6.77473 18.2712 6.7769 18.395C6.77799 18.484 6.78559 18.6089 6.82576 18.7023C6.80947 18.7696 6.7921 18.8412 6.7617 18.9237C6.70958 19.0606 6.64226 19.1724 6.56626 19.2679C6.58906 19.5676 6.65638 19.7793 6.85182 20.0258C6.92456 20.117 6.96691 20.1517 6.98645 20.2657C7.01034 20.383 7.00925 20.4243 6.99622 20.548C6.98102 20.6816 6.95931 20.8043 6.93542 20.9378C6.88982 21.218 6.8833 21.4785 6.89308 21.7641C6.89742 21.9346 6.87353 22.0855 6.86376 22.2549C6.85507 22.4004 6.8833 22.4644 6.83987 22.5915C6.75084 22.8477 6.69547 23.1256 6.61946 23.3862C6.58255 23.5122 6.55975 23.6327 6.58472 23.763C6.59232 23.8129 6.61186 23.8672 6.63032 23.9161C6.64118 23.9421 6.65638 23.953 6.66615 23.9758C6.68244 23.9573 6.70307 23.94 6.72804 23.9237C6.82793 23.852 6.92782 23.7847 7.03314 23.712C7.18297 23.6066 7.34041 23.522 7.45333 23.3851C7.5315 23.2874 7.63899 23.2397 7.75626 23.1734C8.33714 22.8444 8.93431 22.5643 9.48045 22.1799C9.6292 22.0746 9.82355 22.0193 9.96035 21.9042C10.0787 21.8032 9.82463 21.6403 9.93972 21.5665C9.97664 21.5426 10.0418 21.522 10.0863 21.4959C10.1286 21.4709 10.1645 21.4536 10.2133 21.4373C10.3469 21.3906 10.2828 21.0855 10.4196 21.0464C10.4641 21.0345 10.7084 21.2853 10.7464 21.2603L10.7823 20.9617C10.8116 20.7218 10.8691 20.4699 10.8605 20.2267C10.8572 20.1355 10.8572 20.0475 10.8637 19.9606C10.8072 19.8249 11.1384 19.7109 11.1069 19.5785C11.0429 19.3114 10.9126 19.1865 10.7312 18.9998C10.7139 18.9835 10.703 18.9661 10.6911 18.9498C10.8279 18.8825 10.9375 18.7902 11.0809 18.7316C11.1482 18.7033 11.2296 18.6816 11.2915 18.6436C11.3252 18.6241 11.3773 18.3125 11.4229 18.0671C11.4685 17.9889 11.5076 17.9064 11.5423 17.8369C11.6693 17.5839 11.5141 17.3874 11.3469 17.1963C11.3458 17.1952 11.3447 17.193 11.3436 17.192L11.0374 16.268L11.6617 15.749C11.3697 15.7142 11.0982 15.6187 10.829 15.5101Z"/>
  <path d="M21.3586 9.82829C21.2467 9.90863 21.2001 10.0509 21.0969 10.1366C20.9796 10.2344 20.7429 10.1833 20.5855 10.1833H19.7549C19.7158 10.1833 19.5953 10.1703 19.4824 10.166C19.4737 10.1562 19.465 10.1464 19.4574 10.1377C19.3619 10.0216 19.2663 9.90646 19.1675 9.79463C19.2196 9.69148 19.2793 9.59051 19.3249 9.48193C19.3597 9.40158 19.3781 9.31689 19.4064 9.23329C19.4617 9.07694 19.5671 8.95099 19.6333 8.80224C19.6659 8.72732 19.6995 8.64481 19.7321 8.56337C19.9145 8.68607 20.098 8.81419 20.2761 8.95751C20.478 9.12146 20.5605 9.3777 20.8222 9.46564C20.933 9.50147 21.0459 9.5145 21.1621 9.51233C21.414 9.5069 21.6344 9.56228 21.8808 9.61114C21.9091 9.61765 21.9319 9.62199 21.9547 9.62634C21.744 9.64588 21.541 9.69691 21.3586 9.82829ZM19.1241 7.7534C18.8776 7.63505 18.6713 7.45915 18.4346 7.28326C18.2783 7.166 18.0785 7.04874 17.8928 7.00748C17.7278 6.97056 17.5834 6.90324 17.427 6.85113C17.3358 6.82073 17.2338 6.81747 17.1382 6.80335C16.9786 6.77838 16.8168 6.75232 16.654 6.73604C16.6008 6.56231 16.5877 6.37773 16.5454 6.20076C16.5237 6.11389 16.4857 6.03789 16.4585 5.95429C16.4064 5.79468 16.4129 5.6253 16.3738 5.46569C16.3348 5.30392 16.2837 5.12368 16.2327 4.96516C16.2273 4.94779 16.2197 4.9315 16.211 4.91304C16.4759 4.8707 16.7397 4.83052 17.0134 4.81424C17.2653 4.80012 17.4824 4.93801 17.7365 4.82509C17.7484 4.81858 17.7604 4.80989 17.7723 4.80338C17.6963 4.96407 17.6279 5.12802 17.5921 5.30717C17.5573 5.48089 17.3695 5.77405 17.4422 5.94994C17.5291 5.92497 17.617 5.78165 17.6757 5.71216C17.7495 5.6253 17.7994 5.56124 17.8874 5.48849C17.9612 5.42552 18.0047 5.33214 18.0893 5.28111C18.1958 5.21705 18.3282 5.24746 18.4476 5.2442C18.6246 5.24094 18.7897 5.18231 18.9666 5.15625C19.161 5.12585 19.2989 5.07373 19.4715 4.98904C19.5074 4.97167 19.5519 4.95756 19.5975 4.94344C19.5736 5.08133 19.5551 5.21923 19.528 5.35603C19.4998 5.4961 19.5095 5.63942 19.49 5.78165C19.4617 5.98469 19.4107 6.18338 19.3662 6.38208C19.3271 6.55797 19.3054 6.71106 19.2869 6.88913C19.2696 7.07697 19.2012 7.27023 19.1653 7.45698C19.1458 7.56013 19.1328 7.65568 19.1241 7.7534ZM19.1262 8.25502C19.0687 8.43417 18.9232 8.62418 18.8092 8.77184C18.6735 8.95099 18.6387 9.10517 18.6073 9.30386C18.5204 9.24198 18.4314 9.18226 18.3358 9.12146C18.199 9.0346 18.0503 9.00637 17.9135 8.91842C17.8559 8.8815 17.7951 8.8283 17.731 8.80224C17.6768 8.77836 17.642 8.79247 17.5899 8.77727C17.5291 8.75773 17.389 8.66978 17.3423 8.62201C17.3141 8.59378 17.3206 8.55795 17.2946 8.52972C17.2631 8.49389 17.2186 8.45697 17.173 8.42114C17.1534 8.25067 17.1773 8.05198 17.1773 7.88152C17.1773 7.7534 17.1925 7.61659 17.1773 7.48956C17.3141 7.51344 17.4477 7.54059 17.5812 7.58727C17.7756 7.65459 17.9895 7.68065 18.1871 7.72842C18.3336 7.76425 18.5117 7.77185 18.6496 7.82831C18.8211 7.8978 18.984 8.04981 19.1404 8.16381C19.1393 8.19639 19.136 8.2257 19.1262 8.25502ZM18.3228 10.1377C18.3206 10.154 18.3217 10.1725 18.3206 10.1898C18.2034 10.2897 18.1273 10.4776 18.0372 10.5807C17.9102 10.7284 17.8537 10.6687 17.6713 10.6383C17.642 10.6339 17.6138 10.6296 17.5856 10.6252C17.528 10.5644 17.4748 10.4993 17.4118 10.4428C17.3456 10.382 17.2826 10.3245 17.2207 10.2615C17.2218 10.2137 17.2251 10.166 17.2251 10.1182C17.2207 9.86737 17.2718 9.62416 17.2718 9.3701V9.23872C17.3 9.24415 17.3261 9.25066 17.3554 9.26478C17.4531 9.31146 17.5465 9.38747 17.6409 9.44501C17.8244 9.5601 18.0112 9.67519 18.1958 9.79137C18.25 9.82503 18.3054 9.85652 18.3619 9.88909C18.3391 9.96835 18.3293 10.052 18.3228 10.1377ZM16.6062 9.54056C16.5715 9.50473 16.5367 9.46781 16.5041 9.43416C16.2902 9.21157 16.0698 9.08237 15.7745 9.07694C15.7072 9.07694 15.6377 9.09323 15.5704 9.09648C15.5682 9.09323 15.5682 9.0878 15.5649 9.08237C15.5074 8.94556 15.4433 8.81093 15.3728 8.67955C15.4281 8.68824 15.4846 8.69909 15.5411 8.7143C15.7387 8.77293 15.9406 8.7979 16.1447 8.8055C16.2718 8.80876 16.4053 8.87933 16.5367 8.95208C16.5389 8.95968 16.54 8.96511 16.5421 8.97162C16.5801 9.10408 16.5867 9.25066 16.6073 9.39181C16.6138 9.44284 16.6116 9.49279 16.6062 9.54056ZM15.0069 7.89454C14.9515 7.88043 14.8918 7.86957 14.8321 7.85871C14.806 7.81746 14.7799 7.7762 14.7528 7.73602C14.7745 7.72517 14.7962 7.71431 14.8158 7.70236C14.8831 7.66002 14.9341 7.6155 15.009 7.5927C15.1122 7.5623 15.2294 7.55253 15.3348 7.53299C15.5454 7.49281 15.756 7.45373 15.9667 7.41247C16.0264 7.40161 16.0894 7.38641 16.1513 7.37229C16.1567 7.38098 16.1621 7.38967 16.1665 7.39618C16.262 7.53733 16.3858 7.66979 16.4694 7.81746C16.5041 7.88152 16.5237 7.97055 16.5389 8.05198C16.502 8.04872 16.4629 8.04655 16.4184 8.03026C16.3217 7.99878 16.2392 7.96838 16.135 7.95752C16.0677 7.951 16.0003 7.97706 15.933 7.97381C15.8342 7.97272 15.7332 7.94883 15.6334 7.951C15.4216 7.951 15.2208 7.94558 15.0069 7.89454ZM14.5248 7.07154C14.4542 7.06285 14.3532 7.07371 14.2696 7.08022C14.2327 7.02593 14.1936 6.96513 14.1491 6.9369C14.0948 6.8989 14.0308 6.91519 13.971 6.86416C13.8462 6.74689 13.7409 6.5634 13.6334 6.42551C13.54 6.3039 13.4542 6.15298 13.3337 6.06829C13.4173 6.0292 13.5063 5.99663 13.591 5.94777C13.7702 5.83594 13.9396 5.7165 14.1339 5.6329C14.3218 5.5493 14.502 5.42118 14.6822 5.3202C14.8147 5.24746 14.9558 5.12802 15.0959 5.07482C15.1773 5.04442 15.2674 5.03248 15.3597 5.02162C15.3771 5.04985 15.3977 5.07916 15.4205 5.10739C15.4965 5.20511 15.616 5.27569 15.6605 5.39838C15.7235 5.57644 15.7246 5.82074 15.7267 6.01292C15.7289 6.2887 15.8201 6.43962 15.9439 6.66112C15.9634 6.69478 15.9754 6.72735 15.9841 6.75558C15.882 6.76752 15.781 6.78381 15.6735 6.80335C15.5172 6.83158 15.388 6.91193 15.2305 6.93799C15.1654 6.95102 15.0861 6.95427 15.0221 6.97708C14.9656 6.99662 14.9482 7.03245 14.8983 7.05525C14.8386 7.08239 14.679 7.11388 14.6171 7.10845C14.5791 7.1052 14.5628 7.07479 14.5248 7.07154ZM13.2957 7.43744C13.2403 7.4787 13.2034 7.54384 13.1513 7.59053C13.1263 7.61116 13.0981 7.6307 13.0699 7.65025C12.932 7.60465 12.7897 7.56556 12.6475 7.54059C12.4846 7.51344 12.3294 7.45698 12.1709 7.41138C12.2317 7.318 12.3131 7.23332 12.3804 7.14754C12.476 7.02376 12.5726 6.90107 12.6681 6.7773C12.7984 6.80335 12.932 6.8229 13.0525 6.86741C13.1448 6.90107 13.2414 6.99662 13.3185 7.05742C13.4141 7.13343 13.4325 7.22463 13.4759 7.33321C13.4141 7.36252 13.3554 7.39184 13.2957 7.43744ZM11.9342 5.44615C11.7984 5.36146 11.7029 5.22574 11.578 5.13019C11.5455 5.10522 11.5107 5.08025 11.4749 5.05528C11.4695 5.08568 11.4608 5.11825 11.4532 5.15191C11.3945 5.37123 11.3544 5.51998 11.363 5.71542C11.2664 5.68828 11.1633 5.6785 11.0579 5.68936C11.1296 5.6101 11.1372 5.49067 11.1904 5.39729C11.2881 5.2822 11.3815 5.16494 11.4695 5.04333C11.5476 4.90218 11.6312 4.76429 11.7203 4.62966C11.7778 4.55691 11.8354 4.42771 11.9016 4.36582C11.8777 4.37667 11.8592 4.38536 11.8375 4.39405C11.8886 4.33867 11.9374 4.28221 11.9917 4.22792C12.1763 4.04117 12.4249 3.99666 12.5498 3.7339C12.603 3.62424 12.6334 3.50481 12.6518 3.38429C12.692 3.11393 12.7789 2.88809 12.8679 2.63511C12.9189 2.4907 12.9363 2.41796 13.0145 2.29744C13.11 2.1476 13.1676 1.98474 13.2067 1.80993C13.2251 1.73393 13.2273 1.63947 13.2512 1.56672C13.2707 1.50809 13.3142 1.46574 13.3359 1.40928C13.4206 1.18887 13.5367 0.970638 13.5975 0.736113C13.6095 0.686168 13.6171 0.632966 13.6225 0.579763V0.948922C13.6225 1.1411 13.6649 1.30288 13.704 1.48746C13.7724 1.80559 13.8592 2.14218 13.996 2.43533C14.072 2.59602 14.1632 2.7426 14.2392 2.89895C14.3022 3.02707 14.3956 3.12805 14.4651 3.25291C14.5639 3.42663 14.6442 3.61556 14.7289 3.79796C14.8027 3.96191 14.8766 4.09112 14.9689 4.24095C15.0633 4.39079 15.1274 4.57645 15.2066 4.73932C15.0134 4.77515 14.8158 4.78709 14.604 4.80881C14.4162 4.82835 14.1915 4.87612 14.0253 4.97167C13.8788 5.05745 13.7257 5.10739 13.5758 5.17688C13.489 5.21597 13.4075 5.28329 13.3272 5.33975C13.1111 5.48415 12.8907 5.62204 12.7018 5.80119C12.6573 5.84245 12.616 5.8848 12.5748 5.92606C12.4184 5.83051 12.2925 5.6861 12.1459 5.57644C12.0786 5.52433 12.0047 5.49284 11.9342 5.44615ZM23.9329 9.76966C23.8015 9.71971 23.6745 9.66651 23.5399 9.66108C23.4226 9.65782 23.3271 9.59919 23.212 9.54599C22.6452 9.27998 22.1067 8.96836 21.5171 8.76641C21.3553 8.70887 21.2066 8.58618 21.0448 8.546C20.9047 8.51234 20.7516 8.49063 20.6333 8.44285C20.5953 8.42874 20.5443 8.38748 20.5008 8.36794C20.4563 8.34839 20.4259 8.33102 20.3857 8.30279C20.2761 8.22245 20.1729 8.13233 20.0698 8.04655C20.0068 7.99552 19.933 7.96838 19.857 7.951C19.8526 7.75557 19.8331 7.54276 19.8624 7.34841C19.9134 7.02702 19.9015 6.79792 19.7712 6.49934C19.7234 6.39294 19.6941 6.35059 19.6995 6.2355C19.7017 6.11607 19.7126 6.07698 19.7506 5.95972C19.7907 5.8316 19.8374 5.71759 19.8852 5.59164C19.9645 5.38752 20.0177 5.18882 20.0633 4.97927C20.0079 4.94236 19.9579 4.89784 19.9199 4.83921C19.9015 4.80989 19.8841 4.77623 19.8657 4.74475C19.8874 4.71326 19.9058 4.68177 19.9145 4.6568C20.0296 4.30176 19.6062 4.39513 19.4118 4.45594C19.2164 4.51782 19.0416 4.61554 18.8526 4.68612C18.7973 4.70783 18.7527 4.72086 18.6995 4.75018C18.6952 4.75235 18.5899 4.82944 18.5866 4.82944C18.44 4.85767 18.465 4.71978 18.4368 4.61337C18.4151 4.53194 18.3836 4.45268 18.3543 4.37342C18.4053 4.34084 18.4563 4.30936 18.5084 4.27787C18.4563 4.24855 18.4053 4.2149 18.3597 4.17255C18.326 4.14106 18.2967 4.10849 18.2707 4.07375C18.2533 3.98146 18.2403 3.89025 18.199 3.79796C18.1675 3.72739 18.1371 3.68939 18.1154 3.73065C18.1132 3.72087 18.11 3.7111 18.1089 3.70133C18.022 3.73499 17.9352 3.76973 17.8494 3.80665C17.693 3.87614 17.5052 3.88482 17.3575 3.96734C17.2305 4.03792 17.1002 4.12695 16.9797 4.17255C16.9417 4.18667 16.8798 4.19209 16.8353 4.20621C16.7908 4.2225 16.7539 4.23118 16.7083 4.23661C16.5747 4.25073 16.4433 4.2529 16.313 4.2605C16.1947 4.26484 16.0872 4.33107 15.9906 4.40056C15.9558 4.42445 15.9178 4.44616 15.8798 4.46896C15.8071 4.3821 15.7365 4.29198 15.6844 4.19427C15.5313 3.91197 15.3858 3.74476 15.1089 3.60795C15.009 3.55801 14.9613 3.54607 14.895 3.45486C14.8277 3.36149 14.8114 3.32348 14.7702 3.20622C14.7257 3.08027 14.692 2.96084 14.6551 2.83163C14.5758 2.56019 14.4716 2.32567 14.3456 2.07486C14.2696 1.92611 14.2251 1.77844 14.1621 1.62535C14.1079 1.49072 14.059 1.44837 14.0416 1.31265C14.0058 1.04447 13.9363 0.770857 13.8907 0.504845C13.8668 0.376725 13.8364 0.258377 13.7615 0.153058C13.7322 0.112885 13.6942 0.0737978 13.6583 0.0390534C13.6399 0.0195097 13.6225 0.0162521 13.6041 -3.43323e-05C13.5975 0.0249382 13.5878 0.0488252 13.5758 0.0748835C13.5237 0.185631 13.4694 0.289864 13.413 0.401698C13.3304 0.563476 13.2371 0.71114 13.2023 0.88269C13.1774 1.00538 13.1079 1.09659 13.0384 1.21059C12.6964 1.76542 12.3207 2.28441 12.0308 2.87615C11.9537 3.03576 11.8136 3.17474 11.7496 3.33977C11.6931 3.48201 11.6486 3.64053 11.5835 3.75888C11.5639 3.79579 11.5194 3.84465 11.4923 3.887C11.4684 3.92934 11.4467 3.95974 11.413 3.99666C11.3511 4.06615 11.287 4.13021 11.2208 4.19427C11.2784 4.29416 11.3359 4.39296 11.3891 4.48851C11.4076 4.52325 11.4195 4.55583 11.4336 4.5884C11.3706 4.62314 11.3413 4.64594 11.3153 4.66657C11.2284 4.71109 11.1426 4.75886 11.059 4.80881C11.008 4.85658 10.9624 4.90761 10.9233 4.96516C10.8256 5.05745 10.8169 5.06179 10.7735 5.17688C10.7398 5.26591 10.7344 5.32563 10.7333 5.42335C10.7322 5.71651 10.8842 6.46351 11.3207 6.39728C11.4249 6.38208 11.6041 6.32996 11.7127 6.24419C11.7876 6.2811 11.869 6.31042 11.9624 6.34516C12.0427 6.37556 12.0851 6.41465 12.1296 6.4646C12.0688 6.56557 12.021 6.67198 11.9472 6.76427C11.9027 6.82073 11.843 6.8761 11.8093 6.93799C11.7778 6.99336 11.7843 7.03245 11.7604 7.08565C11.7365 7.13777 11.6605 7.23657 11.6063 7.29195C11.5845 7.28869 11.565 7.28435 11.5433 7.28H11.54C11.5683 7.58185 11.6801 7.83374 11.8451 8.08238C11.8484 8.07912 11.8495 8.0737 11.8527 8.06935H11.8744C12.0134 8.0737 12.1296 8.14861 12.2621 8.19747C12.2783 8.2029 12.2957 8.2105 12.3131 8.21702C12.2317 8.26696 12.1513 8.32342 12.071 8.38205C12.3077 8.66978 12.5813 8.91516 12.8299 9.19203C13.059 9.4461 12.9168 9.34295 13.0177 9.55142C13.0188 9.5525 13.0188 9.55685 13.0221 9.55793C13.2675 9.48193 13.5183 9.4537 13.7734 9.4309C13.8049 9.42873 13.831 9.42873 13.8592 9.42656C13.8874 9.42873 13.9146 9.42656 13.9428 9.42547C13.9841 9.43958 14.0253 9.45587 14.0655 9.46999L14.4607 9.62416C14.5769 9.67194 14.6877 9.73057 14.7951 9.79463C14.8929 9.98464 15.0101 10.1692 15.1046 10.3451C15.1752 10.4765 15.2457 10.6068 15.3152 10.7382C15.3673 10.837 15.414 10.9401 15.452 11.0454C15.5649 10.9542 15.6887 10.8782 15.8255 10.8315C16.0394 10.7588 16.2664 10.7827 16.4878 10.7838C16.5324 10.7838 16.578 10.7838 16.6225 10.7838C16.642 10.8033 16.6605 10.8239 16.6811 10.8435C16.7495 10.9075 16.9808 11.1605 17.0959 11.1985C17.2262 11.242 17.2653 11.0932 17.3695 11.1019C17.4455 11.3071 17.6018 11.1095 17.7365 11.0932C17.9482 11.0682 18.072 11.318 18.2696 11.3527C18.4759 11.3885 18.478 11.2365 18.5595 11.0867C18.617 10.9792 18.6659 10.9195 18.6518 10.7881C18.6518 10.7859 18.6507 10.7848 18.6507 10.7827C18.6865 10.7816 18.7223 10.7827 18.7593 10.7827C18.7647 10.7816 18.7712 10.7827 18.7777 10.7827C18.8385 10.7273 18.9069 10.6795 18.9829 10.648C19.1295 10.5861 19.2924 10.5688 19.4476 10.6122C19.5508 10.6404 19.6941 10.7099 19.7625 10.7957C19.7712 10.8055 19.7799 10.8163 19.7886 10.8272C19.8298 10.825 19.8722 10.8228 19.9134 10.8174L19.9113 10.8163C19.8287 10.7002 19.7647 10.5785 19.6963 10.4569C19.7397 10.4689 19.782 10.483 19.8255 10.4906C19.946 10.5286 20.0057 10.5731 20.0263 10.724C20.3716 10.5785 20.7277 10.4472 21.0828 10.3299C21.2869 10.2615 21.4921 10.2126 21.6919 10.129C21.9775 10.0074 22.3108 9.98138 22.5768 9.81417C22.5953 9.80332 22.6137 9.79246 22.6311 9.7816C22.7853 9.79354 22.9416 9.79354 23.0947 9.78703C23.1457 9.78594 23.1968 9.78486 23.2478 9.78269L23.4183 9.82829C23.415 9.80983 23.4085 9.79354 23.3987 9.77834C23.5768 9.77291 23.7549 9.76857 23.9329 9.76966Z"/>
</svg>
