<?xml version="1.0" encoding="UTF-8" standalone="no"?>
<!-- Created with Inkscape (http://www.inkscape.org/) -->

<svg
   width="23.93292"
   height="24"
   viewBox="0 0 6.3322517 6.35"
   version="1.1"
   id="svg56976"
   inkscape:version="1.2.1 (9c6d41e4, 2022-07-14)"
   sodipodi:docname="memorials-of-the-lost.svg"
   xmlns:inkscape="http://www.inkscape.org/namespaces/inkscape"
   xmlns:sodipodi="http://sodipodi.sourceforge.net/DTD/sodipodi-0.dtd"
   xmlns="http://www.w3.org/2000/svg"
   xmlns:svg="http://www.w3.org/2000/svg">
  <sodipodi:namedview
     id="namedview56978"
     pagecolor="#505050"
     bordercolor="#eeeeee"
     borderopacity="1"
     inkscape:showpageshadow="0"
     inkscape:pageopacity="0"
     inkscape:pagecheckerboard="0"
     inkscape:deskcolor="#505050"
     inkscape:document-units="mm"
     showgrid="false"
     inkscape:zoom="0.7046647"
     inkscape:cx="-22.705834"
     inkscape:cy="180.93712"
     inkscape:window-width="1390"
     inkscape:window-height="941"
     inkscape:window-x="0"
     inkscape:window-y="25"
     inkscape:window-maximized="0"
     inkscape:current-layer="layer1" />
  <defs
     id="defs56973">
    <clipPath
       clipPathUnits="userSpaceOnUse"
       id="clipPath54975">
      <path
         d="m 65.075,523.759 h 24.7 v 24.699 h -24.7 z"
         id="path54973" />
    </clipPath>
  </defs>
  <g
     inkscape:label="Layer 1"
     inkscape:groupmode="layer"
     id="layer1"
     transform="translate(-110.978,-100.83132)">
    <g
       id="g54969"
       transform="matrix(0.28727466,0,0,-0.28727466,91.865181,258.08518)">
      <g
         id="g54971"
         clip-path="url(#clipPath54975)">
        <g
           id="g54977"
           transform="translate(81.5909,537.423)">
          <path
             d="M 0,0 C 0.002,-0.015 0.003,-0.031 0.004,-0.047 0.009,-0.034 0.015,-0.023 0.02,-0.011 0.012,-0.008 0.006,-0.003 0,0"
             style="fill:#100f0d;fill-opacity:1;fill-rule:nonzero;stroke:none"
             id="path54979" />
        </g>
        <g
           id="g54981"
           transform="translate(72.1718,533.463)">
          <path
             d="m 0,0 c -0.144,0.143 -0.321,0.26 -0.477,0.389 -0.115,0.095 -0.27,0.181 -0.369,0.289 -0.121,0.131 -0.201,0.326 -0.29,0.488 0.127,0.107 0.31,0.188 0.458,0.253 0.198,0.086 0.294,0.2 0.406,0.352 C -0.25,1.734 -0.226,1.697 -0.201,1.659 -0.117,1.525 0.003,1.437 0.087,1.303 0.123,1.247 0.156,1.176 0.201,1.126 0.238,1.082 0.275,1.077 0.314,1.041 0.361,0.998 0.449,0.863 0.47,0.803 0.482,0.767 0.462,0.742 0.473,0.706 0.497,0.624 0.563,0.512 0.603,0.431 0.645,0.345 0.701,0.261 0.757,0.18 0.71,0.097 0.659,0.012 0.62,-0.065 0.568,-0.164 0.502,-0.265 0.461,-0.371 0.303,-0.249 0.143,-0.141 0,0 m -0.391,-0.642 c -0.054,-0.084 -0.119,-0.19 -0.13,-0.283 -0.014,-0.117 0,-0.255 0.002,-0.372 0.003,-0.213 -0.052,-0.408 -0.196,-0.575 -0.08,-0.093 -0.164,-0.163 -0.229,-0.271 -0.043,-0.072 -0.077,-0.155 -0.125,-0.222 -0.008,-0.011 -0.019,-0.024 -0.032,-0.037 -0.079,0.049 -0.164,0.087 -0.271,0.095 -0.114,0.009 -0.227,-0.006 -0.337,-0.034 -0.243,-0.061 -0.469,-0.063 -0.719,-0.072 -0.142,-0.006 -0.21,-0.018 -0.343,0.01 -0.163,0.034 -0.323,0.027 -0.486,10e-4 -0.072,-0.011 -0.154,-0.044 -0.225,-0.047 -0.056,-0.003 -0.11,0.02 -0.166,0.019 -0.219,-0.002 -0.45,0.025 -0.673,-0.004 -0.047,-0.006 -0.094,-0.019 -0.142,-0.033 0.104,0.044 0.208,0.089 0.313,0.134 0.165,0.069 0.284,0.167 0.424,0.268 0.244,0.178 0.495,0.379 0.691,0.61 0.105,0.126 0.193,0.264 0.297,0.389 0.084,0.104 0.135,0.226 0.21,0.334 0.11,0.153 0.239,0.294 0.362,0.438 0.107,0.126 0.189,0.242 0.28,0.381 0.095,0.146 0.234,0.275 0.345,0.413 0.081,0.102 0.155,0.194 0.214,0.31 0.006,0.012 0.009,0.025 0.016,0.038 0.177,-0.215 0.289,-0.456 0.429,-0.715 0.09,-0.166 0.218,-0.352 0.365,-0.471 0.082,-0.065 0.152,-0.137 0.222,-0.209 -0.036,-0.022 -0.068,-0.05 -0.096,-0.095 m 0.667,2.89 C 0.313,2.213 0.356,2.18 0.39,2.148 0.458,2.082 0.524,2.001 0.601,1.947 0.686,1.887 0.818,1.754 0.929,1.79 0.994,1.812 1.073,1.928 1.12,1.976 1.214,2.07 1.305,2.171 1.403,2.261 1.415,2.225 1.426,2.188 1.441,2.152 1.482,2.058 1.52,1.966 1.553,1.872 1.539,1.845 1.522,1.819 1.509,1.791 1.408,1.584 1.261,1.406 1.157,1.198 1.129,1.142 1.099,1.086 1.071,1.03 1.017,1.093 0.96,1.151 0.895,1.2 0.833,1.247 0.776,1.277 0.727,1.337 0.66,1.419 0.606,1.523 0.55,1.612 0.433,1.792 0.318,1.969 0.201,2.148 L 0.199,2.149 c 0.029,0.03 0.053,0.064 0.077,0.099 m 1.36,-1.705 c 0.022,0.125 0.077,0.25 0.118,0.373 0.01,0.032 0.024,0.062 0.04,0.089 C 1.804,0.976 1.813,0.945 1.825,0.916 1.904,0.687 2.016,0.507 2.198,0.375 2.195,0.352 2.194,0.329 2.193,0.306 2.191,0.273 2.192,0.24 2.192,0.208 2.169,0.167 2.142,0.127 2.108,0.098 2.101,0.093 2.092,0.09 2.085,0.085 1.941,0.212 1.781,0.318 1.614,0.411 1.622,0.449 1.627,0.492 1.636,0.543 M 0.685,-1.115 c 0.298,-0.004 0.425,0.236 0.566,0.48 -0.014,0.066 -0.025,0.132 -0.03,0.197 -0.004,0.052 0.006,0.11 0.02,0.167 0.008,-0.004 0.014,-0.01 0.021,-0.014 0.056,-0.035 0.121,-0.044 0.178,-0.073 0.017,0.019 0.035,0.038 0.054,0.056 0.011,0.009 0.022,0.016 0.033,0.025 0.078,-0.08 0.177,-0.133 0.313,-0.135 0.105,-0.003 0.168,-0.013 0.267,-0.036 0.106,-0.025 0.212,0.005 0.318,-0.01 0.115,-0.016 0.127,-0.073 0.235,0.035 0.067,0.067 0.082,0.147 0.136,0.227 0.083,0.122 0.17,0.216 0.226,0.36 C 3.061,0.265 3.109,0.381 3.127,0.486 3.14,0.56 3.146,0.748 3.121,0.818 3.109,0.855 3.092,0.881 3.076,0.908 3.128,0.968 3.181,1.026 3.239,1.081 3.202,1.119 3.162,1.154 3.135,1.202 3.111,1.246 3.092,1.293 3.078,1.341 3.077,1.362 3.075,1.386 3.074,1.407 3.058,1.711 3.113,2.001 3.175,2.297 3.187,2.349 3.205,2.38 3.205,2.436 3.207,2.464 3.204,2.491 3.201,2.519 c 0.04,0.079 0.081,0.157 0.116,0.25 0.005,0.015 0.008,0.03 0.012,0.044 0.006,0.01 0.012,0.019 0.016,0.028 0.008,0.014 0.019,0.031 0.027,0.046 0.065,0.085 0.13,0.171 0.193,0.257 C 3.54,3.157 3.513,3.168 3.487,3.18 3.34,3.244 3.168,3.327 3.002,3.301 2.91,3.286 2.947,3.252 2.82,3.308 2.714,3.356 2.632,3.432 2.511,3.413 2.407,3.357 2.307,3.295 2.21,3.227 2.171,3.066 2.169,2.909 2.212,2.749 2.18,2.72 2.147,2.691 2.119,2.66 2.101,2.642 2.088,2.623 2.071,2.606 2.043,2.715 2.006,2.822 1.966,2.927 1.953,2.964 1.943,3.003 1.938,3.044 1.894,3.009 1.851,2.968 1.812,2.921 1.713,2.78 1.599,2.654 1.471,2.542 1.405,2.538 1.339,2.532 1.283,2.532 H 1.043 C 0.992,2.532 0.935,2.527 0.883,2.531 0.812,2.535 0.745,2.571 0.676,2.571 0.618,2.57 0.567,2.505 0.505,2.527 0.45,2.547 0.482,2.572 0.452,2.613 0.419,2.625 0.395,2.648 0.379,2.68 0.372,2.705 0.365,2.73 0.357,2.755 0.314,2.821 0.267,2.844 0.215,2.899 0.137,2.859 0.085,2.872 -0.007,2.86 -0.092,2.848 -0.055,2.874 -0.1,2.816 -0.114,2.797 -0.144,2.697 -0.149,2.672 -0.157,2.628 -0.132,2.578 -0.141,2.534 -0.156,2.461 -0.227,2.416 -0.245,2.342 -0.253,2.308 -0.238,2.265 -0.243,2.229 -0.246,2.212 -0.25,2.199 -0.255,2.186 -0.36,2.105 -0.456,2.015 -0.528,1.951 -0.722,1.78 -0.895,1.508 -1.108,1.372 -1.236,1.288 -1.426,1.264 -1.574,1.234 -1.711,1.219 -1.844,1.194 -1.976,1.156 -2.043,1.007 -2.11,0.849 -2.203,0.724 -2.382,0.482 -2.468,0.288 -2.477,-0.015 -2.479,-0.125 -2.471,-0.174 -2.522,-0.266 -2.577,-0.362 -2.6,-0.39 -2.684,-0.469 -2.773,-0.555 -2.861,-0.629 -2.957,-0.71 -3.155,-0.88 -3.314,-1.06 -3.477,-1.266 -3.573,-1.39 -3.68,-1.484 -3.788,-1.596 -3.88,-1.694 -3.897,-1.754 -4.004,-1.82 -4.217,-1.948 -4.422,-2.111 -4.63,-2.249 c -0.1,-0.067 -0.188,-0.138 -0.248,-0.245 -0.024,-0.041 -0.043,-0.09 -0.056,-0.135 -0.008,-0.025 -0.005,-0.042 -0.011,-0.064 0.023,0.002 0.046,0.002 0.074,10e-4 0.113,-0.009 0.222,-0.021 0.34,-0.032 0.168,-0.015 0.331,-0.048 0.489,-0.018 0.115,0.021 0.218,-0.008 0.341,-0.031 0.565,-0.104 1.115,-0.247 1.686,-0.306 0.167,0.111 0.376,0.17 0.565,0.189 0.155,0.016 0.341,-0.046 0.525,-0.112 0.036,0.083 0.06,0.168 0.081,0.256 0.007,0 0.013,0 0.02,10e-4 0.1,0.021 0.205,0.114 0.275,0.182 0.103,0.1 0.182,0.181 0.171,0.328 -0.008,0.111 -0.052,0.188 -0.049,0.304 0.012,0.361 0.38,0.559 0.635,0.748 0.052,0.038 0.133,0.089 0.211,0.148 0.081,-0.042 0.166,-0.078 0.266,-0.08"
             style="fill:#100f0d;fill-opacity:1;fill-rule:nonzero;stroke:none"
             id="path54983" />
        </g>
        <g
           id="g54985"
           transform="translate(67.0585,538.94)">
          <path
             d="M 0,0 C 0.111,-0.02 0.224,-0.039 0.335,-0.059 0.51,-0.09 0.663,-0.074 0.838,-0.065 1.139,-0.049 1.459,-0.018 1.749,0.069 1.907,0.116 2.055,0.183 2.21,0.234 2.338,0.273 2.446,0.35 2.57,0.397 2.745,0.466 2.93,0.514 3.11,0.568 3.27,0.615 3.401,0.667 3.553,0.733 3.615,0.761 3.681,0.78 3.75,0.8 3.787,0.514 3.748,0.242 3.723,-0.062 3.709,-0.25 3.714,-0.476 3.772,-0.654 3.825,-0.813 3.843,-0.968 3.879,-1.127 3.9,-1.219 3.948,-1.307 3.984,-1.397 4.062,-1.588 4.136,-1.783 4.232,-1.966 4.157,-2.032 4.08,-2.094 4.01,-2.163 3.951,-2.222 3.91,-2.289 3.856,-2.351 3.754,-2.469 3.615,-2.541 3.507,-2.649 3.483,-2.673 3.457,-2.701 3.431,-2.727 3.291,-2.552 3.154,-2.372 3.028,-2.179 2.891,-1.968 2.894,-1.718 2.678,-1.552 2.586,-1.484 2.483,-1.435 2.375,-1.397 2.14,-1.315 1.948,-1.194 1.734,-1.067 1.611,-0.993 1.549,-0.965 1.453,-0.869 1.335,-0.753 1.196,-0.671 1.045,-0.602 0.978,-0.573 0.893,-0.556 0.831,-0.52 0.782,-0.491 0.751,-0.443 0.703,-0.414 0.519,-0.294 0.34,-0.147 0.137,-0.051 0.095,-0.029 0.047,-0.013 0,0 M 3.529,4.977 C 3.509,5.029 3.516,5.086 3.498,5.14 3.432,5.349 3.391,5.579 3.298,5.783 3.278,5.826 3.254,5.868 3.226,5.909 3.298,5.822 3.372,5.735 3.444,5.649 3.558,5.511 3.686,5.426 3.825,5.32 4.065,5.14 4.33,4.957 4.61,4.837 4.761,4.772 4.918,4.728 5.068,4.667 5.191,4.617 5.323,4.603 5.449,4.563 5.628,4.502 5.799,4.42 5.971,4.345 6.125,4.276 6.259,4.234 6.418,4.186 6.586,4.137 6.748,4.041 6.913,3.977 6.995,3.944 7.074,3.916 7.156,3.894 7.041,3.766 6.915,3.648 6.786,3.516 6.653,3.381 6.513,3.206 6.442,3.031 6.382,2.876 6.295,2.745 6.221,2.601 6.179,2.516 6.158,2.418 6.128,2.326 6.089,2.208 6.05,2.089 6.014,1.97 5.876,1.962 5.739,1.971 5.603,1.96 5.521,1.953 5.446,1.929 5.364,1.916 5.212,1.889 5.058,1.924 4.906,1.911 4.754,1.898 4.581,1.878 4.428,1.853 4.335,1.837 4.231,1.782 4.152,1.734 4.136,1.724 4.119,1.713 4.103,1.703 4.109,1.899 4.121,2.094 4.144,2.294 4.173,2.542 4.338,2.734 4.278,2.999 4.252,3.11 4.206,3.213 4.147,3.311 4.018,3.525 3.951,3.741 3.869,3.977 3.821,4.111 3.792,4.173 3.779,4.309 3.764,4.474 3.71,4.626 3.638,4.775 3.607,4.841 3.553,4.908 3.529,4.977 M 7.486,3.846 C 7.537,3.843 7.586,3.835 7.63,3.81 7.679,3.783 7.727,3.745 7.774,3.703 7.776,3.555 7.769,3.405 7.714,3.267 7.69,3.209 7.643,3.155 7.604,3.107 7.572,3.069 7.538,3.018 7.49,2.997 7.451,2.979 7.406,3 7.373,2.963 7.304,2.883 7.574,2.74 7.641,2.674 7.698,2.619 7.78,2.554 7.81,2.475 7.835,2.407 7.817,2.313 7.818,2.241 7.818,2.238 7.817,2.234 7.817,2.23 7.798,2.223 7.778,2.217 7.754,2.217 7.589,2.218 7.401,2.282 7.237,2.31 7.095,2.336 6.941,2.387 6.799,2.372 6.833,2.461 6.871,2.549 6.915,2.634 7.01,2.814 7.07,3.018 7.149,3.205 7.206,3.341 7.242,3.514 7.319,3.642 7.362,3.713 7.422,3.781 7.486,3.846 m 0.36,-4.127 c 0.002,0 0.002,0.001 0.003,0.001 C 7.848,-0.281 7.848,-0.281 7.846,-0.283 Z M 7.515,1.392 C 7.47,1.302 7.427,1.227 7.399,1.126 7.383,1.06 7.394,0.991 7.38,0.926 7.36,0.829 7.322,0.734 7.306,0.636 7.296,0.576 7.285,0.517 7.273,0.458 7.108,0.393 6.948,0.317 6.796,0.226 6.698,0.167 6.593,0.119 6.488,0.074 6.485,0.088 6.478,0.101 6.477,0.116 6.465,0.222 6.478,0.339 6.478,0.445 v 0.638 c 0,0.082 -0.005,0.168 -0.006,0.253 0.05,0.018 0.101,0.038 0.152,0.063 0.142,0.072 0.285,0.17 0.433,0.227 0.09,0.036 0.22,0.03 0.315,0.036 C 7.463,1.669 7.524,1.638 7.592,1.6 7.556,1.534 7.555,1.469 7.515,1.392 M 6.994,-0.943 C 6.925,-1.117 6.88,-1.261 6.673,-1.264 6.635,-1.265 6.575,-1.255 6.514,-1.238 c 0.015,0.026 0.03,0.05 0.044,0.077 0.033,0.05 0.071,0.096 0.11,0.137 -0.034,0.136 -0.033,0.299 -0.041,0.446 0.084,0.038 0.175,0.061 0.265,0.095 0.033,0.014 0.067,0.025 0.102,0.036 C 6.979,-0.501 6.966,-0.555 6.953,-0.607 6.936,-0.676 6.923,-0.744 6.917,-0.81 c 0.088,0.079 0.18,0.152 0.276,0.221 0.017,0.005 0.032,0.004 0.048,0.005 C 7.092,-0.677 7.046,-0.812 6.994,-0.943 M 5.969,-0.19 C 5.969,-0.193 5.966,-0.196 5.965,-0.2 5.911,-0.232 5.857,-0.263 5.803,-0.294 5.742,-0.329 5.637,-0.368 5.59,-0.422 5.546,-0.469 5.551,-0.535 5.492,-0.584 5.364,-0.689 5.179,-0.761 5.037,-0.844 4.862,-0.946 4.639,-1.021 4.576,-1.222 4.507,-1.032 4.432,-0.852 4.389,-0.654 4.347,-0.456 4.262,-0.262 4.201,-0.067 4.159,0.074 4.075,0.231 4.051,0.376 4.024,0.535 4.054,0.72 4.07,0.892 4.193,0.933 4.304,0.97 4.417,1.034 4.52,1.094 4.605,1.201 4.723,1.224 4.895,1.256 5.119,1.219 5.292,1.189 5.531,1.148 5.682,1.209 5.891,1.289 5.881,1.16 5.876,1.031 5.875,0.895 5.873,0.736 5.924,0.596 5.922,0.438 5.922,0.371 5.911,0.294 5.92,0.227 5.929,0.17 5.958,0.146 5.969,0.093 c 0.017,-0.06 0.017,-0.221 0,-0.283 M 8.17,1 C 8.206,1.173 8.361,1.34 8.477,1.5 8.462,1.521 8.45,1.543 8.436,1.564 8.448,1.568 8.46,1.571 8.472,1.574 8.558,1.599 8.626,1.661 8.703,1.683 8.76,1.699 8.856,1.684 8.916,1.681 9,1.676 9.041,1.63 9.12,1.626 9.137,1.439 8.876,1.434 8.773,1.355 8.726,1.318 8.685,1.259 8.655,1.191 8.589,1.145 8.523,1.098 8.461,1.054 8.307,0.942 8.189,0.821 8.109,0.672 8.1,0.671 8.09,0.671 8.08,0.669 8.116,0.777 8.145,0.888 8.17,1 M 0.471,-0.672 C 0.918,-1.094 1.323,-1.546 1.809,-1.924 1.942,-2.025 2.042,-2.184 2.181,-2.272 2.302,-2.351 2.436,-2.421 2.533,-2.503 2.564,-2.529 2.598,-2.58 2.632,-2.611 2.667,-2.644 2.691,-2.67 2.719,-2.707 2.796,-2.814 2.863,-2.927 2.933,-3.038 2.971,-3.095 3.021,-3.139 3.079,-3.177 3.066,-3.208 3.053,-3.241 3.043,-3.269 3.031,-3.301 3.02,-3.336 3.01,-3.37 c 0.126,0.054 0.255,0.095 0.389,0.126 0.144,0.047 0.329,0.095 0.447,0.193 0.195,0.16 0.334,0.451 0.506,0.645 0.127,0.143 0.34,0.407 0.541,0.477 0.077,0.01 0.152,0.01 0.229,0.004 0.012,0 0.023,0.001 0.034,0.001 0.063,0.142 0.107,0.304 0.182,0.44 0.046,0.085 0.149,0.164 0.218,0.229 0.094,0.092 0.189,0.085 0.314,0.12 0.015,0.003 0.024,0.006 0.037,0.01 0.017,-0.04 0.038,-0.079 0.051,-0.131 C 5.969,-1.308 5.98,-1.357 5.993,-1.405 5.99,-1.533 5.986,-1.663 5.992,-1.79 6,-1.972 6.123,-2.051 6.264,-1.96 c 0.094,0.061 0.345,0.294 0.45,0.248 0.053,-0.023 0.046,-0.1 0.113,-0.107 0.048,0.144 -0.051,0.328 0.147,0.408 0.111,0.045 0.286,-0.059 0.332,0.099 0.041,0.142 -0.043,0.304 0.022,0.446 0.037,0.083 0.115,0.143 0.176,0.213 0.002,-0.001 0.005,-0.002 0.008,-0.003 0.133,-0.041 0.092,-0.012 0.182,0.015 0.162,0.045 0.342,-0.017 0.495,-0.063 0.028,-0.008 0.056,-0.016 0.082,-0.026 0.012,0.017 0.022,0.035 0.031,0.053 0.002,0.003 0.005,0.006 0.007,0.009 0.039,0.053 0.08,0.104 0.123,0.145 0.117,0.117 0.235,0.255 0.374,0.353 0.108,0.044 0.213,0.087 0.314,0.124 0.131,0.048 0.26,0.095 0.391,0.142 0.046,0.017 0.09,0.032 0.136,0.045 C 9.644,0.142 9.644,0.146 9.642,0.147 9.542,0.339 9.683,0.244 9.456,0.478 9.317,0.621 9.172,0.755 9.028,0.892 9.13,0.952 9.213,1.049 9.269,1.173 9.338,1.327 9.409,1.501 9.454,1.657 9.469,1.712 9.575,1.917 9.552,1.966 9.527,2.021 9.34,2.042 9.272,2.065 9.08,2.129 8.895,2.143 8.701,2.184 8.613,2.203 8.535,2.218 8.448,2.247 8.364,2.276 8.222,2.277 8.17,2.356 8.122,2.429 8.144,2.532 8.109,2.616 8.073,2.704 8.018,2.767 7.978,2.849 7.922,2.962 8.047,3.074 8.134,3.143 8.224,3.214 8.218,3.225 8.243,3.335 8.258,3.404 8.298,3.489 8.319,3.568 8.35,3.685 8.405,3.843 8.38,3.97 8.35,4.128 8.239,4.207 8.105,4.271 8.106,4.276 8.108,4.283 8.109,4.288 8.069,4.317 8.028,4.343 7.985,4.371 8.032,4.424 8.078,4.478 8.126,4.53 8.116,4.623 8.083,4.712 8.024,4.81 7.972,4.898 7.915,4.99 7.857,5.081 7.825,5.052 7.792,5.024 7.761,4.995 7.674,4.914 7.632,4.801 7.599,4.69 7.586,4.648 7.569,4.605 7.553,4.563 7.542,4.564 7.53,4.567 7.52,4.569 7.331,4.599 7.116,4.61 6.935,4.675 6.652,4.777 6.442,4.801 6.15,4.721 6.045,4.694 5.999,4.671 5.896,4.694 5.788,4.716 5.753,4.731 5.654,4.787 5.546,4.849 5.451,4.913 5.345,4.98 5.124,5.12 4.906,5.219 4.661,5.315 4.515,5.372 4.394,5.446 4.255,5.516 4.136,5.575 4.072,5.575 3.979,5.659 3.794,5.826 3.578,5.973 3.385,6.133 3.291,6.208 3.198,6.272 3.079,6.298 3.033,6.308 2.981,6.313 2.933,6.313 2.907,6.315 2.891,6.305 2.869,6.305 2.878,6.284 2.886,6.261 2.891,6.235 2.917,6.123 2.936,6.015 2.961,5.899 2.994,5.734 3.01,5.57 3.085,5.426 3.139,5.323 3.141,5.215 3.154,5.091 3.224,4.481 3.244,3.874 3.375,3.273 3.409,3.11 3.386,2.923 3.435,2.766 3.476,2.629 3.535,2.488 3.556,2.364 3.563,2.325 3.556,2.262 3.563,2.217 3.568,2.169 3.571,2.133 3.568,2.087 3.558,1.955 3.537,1.826 3.52,1.697 3.507,1.6 3.534,1.503 3.57,1.413 3.326,1.315 3.162,1.199 3.003,0.97 2.941,0.88 2.922,0.834 2.829,0.785 2.73,0.734 2.694,0.723 2.582,0.702 2.459,0.681 2.346,0.667 2.222,0.651 1.962,0.617 1.731,0.551 1.482,0.468 1.333,0.417 1.193,0.397 1.042,0.361 0.911,0.329 0.862,0.288 0.738,0.293 0.489,0.301 0.229,0.276 -0.021,0.275 -0.142,0.273 -0.254,0.26 -0.362,0.204 -0.404,0.183 -0.447,0.152 -0.484,0.123 -0.504,0.106 -0.51,0.088 -0.527,0.075 c 0.02,-0.011 0.04,-0.023 0.062,-0.041 0.09,-0.068 0.175,-0.137 0.269,-0.211 0.132,-0.106 0.248,-0.221 0.399,-0.283 0.108,-0.044 0.178,-0.126 0.268,-0.212"
             style="fill:#100f0d;fill-opacity:1;fill-rule:nonzero;stroke:none"
             id="path54987" />
        </g>
        <g
           id="g54989"
           transform="translate(86.1652,535.831)">
          <path
             d="m 0,0 c -0.118,-0.101 -0.22,-0.215 -0.335,-0.316 -0.094,-0.083 -0.442,0.425 -0.531,0.336 -0.124,-0.125 -0.265,-0.236 -0.399,-0.349 -0.121,-0.101 -0.214,-0.195 -0.319,-0.31 -0.078,-0.085 -0.175,-0.159 -0.269,-0.234 -0.161,0.257 -0.225,0.535 -0.319,0.839 -0.006,0.018 -0.015,0.038 -0.021,0.057 0.014,0 0.028,0 0.042,0 0.181,0 0.361,0.017 0.536,0.046 0.042,0.007 0.087,0.039 0.119,0.04 0.054,0.002 0.131,-0.03 0.188,-0.035 0.119,-0.008 0.238,-0.006 0.358,-0.005 0.157,0.001 0.357,-0.031 0.503,0.035 0.131,0.06 0.259,0.127 0.398,0.153 C 0.05,0.275 0.131,0.332 0.228,0.362 0.379,0.409 0.54,0.418 0.698,0.44 0.456,0.318 0.207,0.176 0,0 m -0.983,-3.327 c 0.061,-0.088 0.136,-0.162 0.219,-0.227 0.185,-0.14 0.317,-0.306 0.47,-0.482 0.087,-0.102 0.133,-0.145 0.191,-0.259 0.071,-0.141 0.169,-0.256 0.281,-0.36 0.051,-0.046 0.121,-0.084 0.165,-0.135 0.034,-0.039 0.048,-0.093 0.082,-0.134 0.129,-0.16 0.244,-0.345 0.395,-0.491 0.031,-0.031 0.066,-0.059 0.105,-0.085 -0.092,0.05 -0.184,0.1 -0.276,0.149 -0.145,0.078 -0.282,0.107 -0.439,0.148 -0.267,0.07 -0.555,0.132 -0.833,0.133 -0.152,0.002 -0.3,-0.016 -0.45,-0.018 -0.122,-0.002 -0.238,-0.04 -0.359,-0.05 -0.172,-0.013 -0.347,-0.003 -0.52,-0.001 -0.153,0.001 -0.282,-0.009 -0.433,-0.027 -0.135,-0.016 -0.872,0.391 -1.012,0.395 0.091,0.25 0.801,0.107 0.889,0.407 0.006,0.022 -0.359,0.148 -0.362,0.171 -0.028,0.23 0.028,0.434 0.033,0.653 -0.024,0.222 -0.257,0.737 -0.283,0.957 0.075,0.033 0.152,0.065 0.224,0.105 0.068,0.037 0.123,0.086 0.187,0.127 0.121,0.08 0.262,0.106 0.387,0.173 0.125,0.069 0.265,0.151 0.385,0.229 0.037,0.024 0.072,0.056 0.103,0.092 0.046,-0.133 0.089,-0.268 0.126,-0.407 0.061,-0.23 0.582,-0.852 0.725,-1.063 m -2.582,2.02 c -0.022,0.06 -0.04,0.133 -0.072,0.187 -0.028,0.049 -0.06,0.058 -0.089,0.101 -0.034,0.048 -0.091,0.189 -0.098,0.248 -0.006,0.037 0.016,0.057 0.013,0.093 -0.002,0.014 -0.004,0.029 -0.008,0.045 0.035,0.041 0.071,0.086 0.085,0.128 0.019,0.058 -0.006,0.115 0.027,0.179 0.025,0.05 0.059,0.098 0.094,0.145 0.009,-0.012 0.02,-0.022 0.034,-0.026 0.037,-0.01 0.084,0.046 0.114,0.066 0.097,0.067 0.242,0.12 0.352,0.146 0.108,0.025 0.221,0.026 0.334,0.024 0.067,-0.079 0.137,-0.157 0.2,-0.236 0.085,-0.108 0.211,-0.214 0.282,-0.334 0.093,-0.158 0.132,-0.381 0.193,-0.558 -0.037,-0.039 -0.073,-0.079 -0.108,-0.126 -0.067,-0.089 -0.101,-0.215 -0.194,-0.279 -0.134,-0.092 -0.336,-0.142 -0.494,-0.181 -0.174,-0.042 -0.276,-0.119 -0.388,-0.224 -0.024,0.073 -0.049,0.145 -0.078,0.22 -0.055,0.14 -0.146,0.244 -0.199,0.382 m -0.068,-3.335 c -0.008,-0.046 -0.02,-0.092 -0.033,-0.138 -0.051,-0.004 -0.1,-0.011 -0.151,-0.023 -0.107,-0.026 -0.21,-0.099 -0.321,-0.087 -0.158,0.018 -0.344,0.115 -0.487,0.192 -0.147,0.077 -0.266,0.09 -0.401,0.086 0.034,0.133 0.034,0.263 0.076,0.393 0.02,0.062 0.051,0.129 0.062,0.193 0.008,0.055 -0.011,0.085 -0.007,0.135 0.004,0.057 0.042,0.185 0.071,0.245 0.024,0.006 0.045,0.013 0.061,0.025 0.051,0.032 0.067,0.092 0.131,0.119 0.14,0.06 0.323,0.075 0.47,0.11 0.188,0.044 0.41,0.049 0.52,0.232 0.006,-0.149 0.013,-0.295 0,-0.446 -0.018,-0.193 10e-4,-0.395 0,-0.589 0,-0.141 0.029,-0.307 0.009,-0.447 M -4.25,-6.365 c -0.095,-0.22 -0.292,-0.347 -0.313,-0.606 -0.009,-0.108 0.004,-0.217 0.028,-0.322 0.052,-0.232 0.08,-0.609 0.087,-0.848 0.002,-0.136 0.012,-0.201 -0.016,-0.328 -0.032,-0.154 -0.028,-0.309 -0.006,-0.464 0.009,-0.07 0.037,-0.147 0.04,-0.216 0.002,-0.053 -0.019,-0.104 -0.019,-0.157 -0.001,-0.209 -0.029,-0.43 -0.004,-0.643 0.005,-0.045 0.016,-0.09 0.028,-0.136 -0.04,0.1 -0.078,0.199 -0.118,0.3 -0.062,0.157 -0.149,0.271 -0.242,0.406 -0.161,0.234 -0.341,0.475 -0.552,0.663 -0.113,0.101 -0.238,0.186 -0.353,0.285 -0.094,0.081 -0.205,0.128 -0.304,0.203 -0.14,0.105 -0.295,0.39 -0.424,0.507 -0.117,0.105 -0.221,0.182 -0.346,0.27 -0.133,0.091 -0.249,0.223 -0.373,0.329 0.176,0.131 0.369,0.226 0.575,0.339 0.153,0.086 0.326,0.206 0.435,0.346 0.097,0.124 0.209,0.219 0.315,0.331 0.06,0.065 0.105,0.149 0.157,0.223 0.134,0.197 0.275,0.39 0.38,0.606 l 0.004,0.01 c 0.051,-0.018 0.105,-0.034 0.159,-0.047 0.075,-0.016 0.147,-0.016 0.222,-0.026 0.139,-0.021 0.264,-0.094 0.4,-0.125 0.137,-0.032 0.296,-0.061 0.435,-0.082 0.033,-0.005 0.068,-0.003 0.104,0 -0.09,-0.273 -0.18,-0.548 -0.299,-0.818 m -3.121,-0.58 c -0.017,0.01 -0.034,0.021 -0.051,0.031 -0.097,0.051 -0.221,0.065 -0.297,0.149 -0.032,0.034 -0.062,0.076 -0.089,0.122 0.002,-0.032 0.006,-0.063 0.01,-0.095 0.007,-0.051 0.013,-0.11 0.019,-0.174 -0.032,0.022 -0.063,0.046 -0.086,0.076 -0.032,0.038 -0.037,0.097 -0.068,0.133 -0.036,0.041 -0.093,0.043 -0.123,0.088 -0.054,0.081 -0.068,0.26 -0.051,0.349 0.02,0.104 0.062,0.203 0.09,0.306 0.044,0.161 0.113,0.299 0.23,0.433 0.132,0.151 0.36,0.266 0.461,0.442 0.008,0.004 0.016,0.009 0.023,0.012 0.074,0.037 0.145,0.086 0.216,0.135 0.007,-0.001 0.015,-0.001 0.024,-0.004 0.143,-0.047 0.29,-0.158 0.425,-0.23 0.178,-0.095 0.359,-0.253 0.567,-0.158 0.054,0.025 0.043,0.06 0.128,0.094 0.037,0.015 0.082,0.026 0.127,0.035 -0.071,-0.101 -0.171,-0.176 -0.25,-0.277 -0.129,-0.165 -0.249,-0.339 -0.391,-0.493 -0.121,-0.131 -0.224,-0.287 -0.336,-0.425 -0.088,-0.108 -0.167,-0.256 -0.269,-0.35 -0.086,-0.079 -0.199,-0.14 -0.309,-0.199 m -0.879,0.792 c 10e-4,0.07 0.008,0.126 0.044,0.194 0.019,0.034 0.043,0.065 0.068,0.095 -0.025,-0.1 -0.065,-0.195 -0.112,-0.289 m 0.542,1.311 c 0.07,0.122 0.082,0.258 0.075,0.399 0.117,0.098 0.248,0.208 0.303,0.254 -0.004,-0.017 -0.007,-0.035 -0.01,-0.054 L -7.527,-4.636 C -7.59,-4.702 -7.653,-4.768 -7.709,-4.844 Z m 0.223,0.875 c 0.058,0.022 0.111,0.045 0.163,0.069 0.001,0 0.002,0 0.004,-10e-4 0.013,-0.082 0.013,-0.167 -0.007,-0.26 -0.066,0.024 -0.134,0.051 -0.2,0.074 -0.044,0.015 -0.081,0.038 -0.117,0.064 0.054,0.017 0.107,0.037 0.157,0.054 m 0.849,-0.479 c 0.032,0.055 0.042,0.121 0.072,0.177 0.044,0.082 0.102,0.159 0.146,0.244 0.014,0.029 0.029,0.058 0.044,0.088 0.127,0.015 0.253,0.033 0.376,0.065 0.206,0.053 0.418,0.052 0.628,0.102 0.009,0.002 0.018,0.004 0.026,0.008 0.001,-0.003 0.001,-0.005 -10e-4,-0.006 -0.02,-0.1 -0.063,-0.202 -0.093,-0.299 -0.046,-0.148 -0.09,-0.296 -0.135,-0.443 -0.089,0.019 -0.181,0.011 -0.275,-0.005 -0.145,-0.023 -0.297,-0.073 -0.443,-0.085 -0.088,-0.006 -0.2,0.037 -0.284,0.057 -0.04,0.009 -0.069,0.026 -0.097,0.047 0.012,0.016 0.024,0.032 0.036,0.05 m 0.873,1.455 c 0.104,0.178 0.165,0.348 0.17,0.533 0.122,0.065 0.243,0.133 0.354,0.218 0.007,-0.108 0.02,-0.213 0.039,-0.319 0.027,-0.151 -0.032,-0.334 -0.075,-0.504 -0.094,-0.042 -0.197,-0.074 -0.29,-0.115 -0.006,-0.003 -0.016,-0.005 -0.023,-0.006 l -0.301,-0.015 c 0.044,0.071 0.087,0.142 0.126,0.208 m 0.773,2.939 c 0.003,0.009 0.004,0.019 0.005,0.028 0.065,-0.065 0.131,-0.128 0.201,-0.187 0.1,-0.084 0.163,-0.229 0.225,-0.37 -0.015,-0.025 -0.029,-0.051 -0.043,-0.077 -0.03,-0.054 -0.069,-0.099 -0.111,-0.14 -0.005,0.036 -0.01,0.071 -0.014,0.106 -0.035,0.245 -0.112,0.443 -0.273,0.605 0.002,0.011 0.008,0.024 0.01,0.035 m 0.783,-1.092 c 0.022,-0.024 0.042,-0.051 0.06,-0.085 0.045,-0.088 0.075,-0.196 0.112,-0.289 0.073,-0.187 0.148,-0.374 0.222,-0.561 0.014,-0.036 0.031,-0.072 0.046,-0.109 -0.072,-0.046 -0.133,-0.107 -0.19,-0.175 -0.098,-0.115 -0.184,-0.255 -0.29,-0.361 -0.063,-0.064 -0.174,-0.107 -0.252,-0.147 0.006,0.07 -0.016,0.129 -0.008,0.209 0.006,0.097 0.017,0.179 0.004,0.277 -0.007,0.065 -0.041,0.121 -0.052,0.183 -0.018,0.093 -0.018,0.19 -0.039,0.283 -0.018,0.086 -0.035,0.172 -0.049,0.257 0.039,0.046 0.076,0.091 0.111,0.14 0.096,0.136 0.215,0.252 0.325,0.378 M 1.655,0.911 C 1.641,0.899 1.624,0.892 1.609,0.881 1.567,0.905 1.481,0.94 1.458,0.947 1.349,0.981 1.264,1.005 1.144,1.004 c -0.103,0 -0.208,-0.005 -0.31,0 C 0.77,1.007 0.745,1.034 0.693,1.047 0.624,1.064 0.573,1.042 0.508,1.028 0.417,1.008 0.321,0.993 0.243,0.969 0.092,0.924 -0.068,0.892 -0.214,0.837 -0.37,0.778 -0.497,0.68 -0.635,0.593 -0.734,0.531 -0.817,0.476 -0.938,0.489 -1.093,0.506 -1.275,0.596 -1.405,0.679 -1.539,0.765 -1.577,0.82 -1.657,0.653 -1.697,0.568 -1.762,0.504 -1.834,0.439 -1.883,0.395 -1.955,0.336 -2.008,0.303 -2.096,0.247 -2.174,0.271 -2.271,0.258 -2.278,0.257 -2.283,0.256 -2.29,0.255 -2.299,0.273 -2.306,0.292 -2.316,0.309 -2.351,0.316 -2.386,0.326 -2.421,0.339 -2.496,0.368 -2.555,0.405 -2.607,0.447 -2.63,0.445 -2.654,0.446 -2.677,0.445 L -2.69,0.49 C -2.813,0.486 -2.893,0.653 -2.958,0.726 -3.082,0.866 -3.038,0.68 -3.068,0.611 -3.11,0.515 -3.211,0.536 -3.298,0.537 -3.41,0.539 -3.463,0.493 -3.571,0.484 -3.572,0.474 -3.575,0.458 -3.579,0.439 -3.691,0.433 -3.803,0.426 -3.915,0.422 -3.939,0.358 -3.972,0.294 -3.996,0.239 -4.025,0.171 -4.068,0.133 -4.118,0.096 -4.14,0.118 -4.163,0.142 -4.185,0.174 -4.24,0.252 -4.283,0.32 -4.353,0.387 -4.358,0.391 -4.361,0.394 -4.365,0.397 L -4.508,0.39 C -4.853,0.372 -5.196,0.353 -5.54,0.337 -5.741,0.328 -5.949,0.338 -6.141,0.264 -6.264,0.217 -6.374,0.144 -6.474,0.059 c 0.074,-0.168 0.129,-0.343 0.182,-0.522 0.014,-0.049 0.013,-0.082 0.039,-0.129 0,-0.002 0.001,-0.004 0.001,-0.005 0.002,-0.061 0.008,-0.123 0.018,-0.19 0.018,-0.116 0.067,-0.212 0.081,-0.329 0.002,-0.018 0.003,-0.034 0.003,-0.048 -0.047,-0.17 -0.109,-0.334 -0.176,-0.498 -0.014,-0.036 -0.029,-0.058 -0.04,-0.089 -0.133,-0.124 -0.257,-0.263 -0.38,-0.38 -0.095,-0.091 -0.189,-0.182 -0.284,-0.271 -0.206,-0.198 0.063,-0.246 -0.185,-0.379 -0.001,-0.002 -0.004,-0.002 -0.006,-0.003 l -0.235,-0.012 -0.163,-0.407 c -0.025,-0.01 -0.049,-0.02 -0.073,-0.032 -0.09,-0.045 -0.155,-0.122 -0.235,-0.182 -0.119,-0.089 -0.21,-0.103 -0.342,-0.153 -0.319,-0.118 0.148,-0.38 0.23,-0.517 0.065,-0.109 -0.021,-0.277 -0.025,-0.4 -0.002,-0.069 -0.03,-0.088 -0.043,-0.143 -0.015,-0.064 -0.005,-0.141 -0.004,-0.207 0.003,-0.183 -0.091,-0.35 -0.095,-0.54 -0.002,-0.113 -0.024,-0.209 -0.041,-0.322 -0.022,-0.147 -0.01,-0.306 -0.006,-0.458 -0.038,-0.076 -0.082,-0.15 -0.126,-0.224 -0.081,-0.133 -0.046,-0.191 -0.017,-0.351 0.014,-0.074 0.01,-0.069 0.049,-0.124 0.025,-0.035 0.078,-0.103 0.106,-0.133 0.068,-0.07 0.155,-0.122 0.222,-0.194 0.103,-0.111 0.108,-0.132 0.259,-0.13 0.002,0 0.006,0 0.009,0 0.004,-0.069 0.007,-0.133 0.009,-0.188 l 0.152,-0.108 c 0.026,0.025 0.018,0.011 0.006,-0.003 0.083,-0.041 0.162,-0.086 0.231,-0.14 0.22,-0.172 0.396,-0.255 0.674,-0.263 0.1,-0.004 0.174,-0.158 0.258,-0.207 0.087,-0.052 0.114,-0.075 0.185,-0.155 0.078,-0.086 0.144,-0.17 0.217,-0.262 0.153,-0.191 0.317,-0.342 0.505,-0.498 0.112,-0.094 0.197,-0.196 0.299,-0.299 0.087,-0.087 0.144,-0.105 0.202,-0.208 0.114,-0.204 0.262,-0.4 0.387,-0.6 0.059,-0.095 0.124,-0.179 0.221,-0.237 0.037,-0.023 0.081,-0.041 0.122,-0.055 0.023,-0.008 0.011,0.157 0.031,0.15 -0.003,0.022 0.027,-0.116 0.029,-0.09 0.009,0.108 0.021,0.213 0.032,0.325 0.016,0.162 0.049,0.315 0.024,0.467 -0.019,0.108 0.01,0.209 0.032,0.325 0.11,0.577 0.232,1.298 0.286,1.882 0.014,0.16 0.087,0.322 0.088,0.48 0.001,0.137 -0.011,0.282 0.005,0.402 0.006,0.046 0.039,0.116 0.038,0.163 0.062,0.209 0.173,0.397 0.248,0.592 -0.043,0.118 -0.045,0.258 -0.042,0.397 0.089,0.025 0.178,0.044 0.265,0.05 0.277,0.015 1.056,-0.323 1.276,-0.144 0.079,0.065 0.11,0.101 0.206,0.12 0.098,0.019 0.133,0.018 0.237,0.006 0.113,-0.015 0.216,-0.035 0.33,-0.055 0.236,-0.041 0.457,-0.049 0.697,-0.041 0.144,0.002 0.273,-0.017 0.414,-0.028 0.124,-0.007 0.177,0.016 0.285,-0.022 0.215,-0.078 0.45,-0.129 0.669,-0.198 0.105,-0.033 0.207,-0.053 0.317,-0.033 0.044,0.008 0.09,0.025 0.129,0.041 0.023,0.009 0.034,0.023 0.052,0.031 -0.014,0.014 -0.029,0.032 -0.043,0.054 -0.06,0.089 -0.115,0.175 -0.176,0.269 C 1.06,-5.26 0.99,-5.121 0.875,-5.022 0.794,-4.951 0.756,-4.856 0.7,-4.753 c -0.272,0.511 -0.5,1.038 -0.821,1.518 -0.086,0.132 -0.723,0.698 -0.819,0.818 -0.084,0.105 -0.183,0.207 -0.244,0.308 -0.02,0.034 -0.036,0.091 -0.057,0.129 -0.021,0.038 -0.036,0.07 -0.05,0.111 -0.037,0.121 -0.065,0.243 -0.095,0.363 -0.014,0.057 -0.043,0.107 -0.077,0.152 0.019,0.022 0.036,0.044 0.057,0.063 0.202,0.196 0.313,0.363 0.371,0.647 0.022,0.102 0.023,0.15 0.086,0.228 0.064,0.08 0.374,-0.511 0.463,-0.45 0.198,0.133 0.384,0.226 0.648,0.409 0.031,0.02 0.058,0.048 0.082,0.076 0.145,0.177 0.299,0.264 0.458,0.386 C 0.801,0.08 0.827,0.135 0.935,0.178 1.15,0.262 1.362,0.379 1.573,0.475 1.675,0.521 1.766,0.572 1.839,0.662 1.866,0.696 1.892,0.74 1.913,0.78 1.924,0.801 1.925,0.818 1.933,0.837 1.912,0.839 1.891,0.843 1.866,0.849 1.796,0.869 1.726,0.89 1.655,0.911"
             style="fill:#100f0d;fill-opacity:1;fill-rule:nonzero;stroke:none"
             id="path54991" />
        </g>
        <g
           id="g54993"
           transform="translate(78.5704,534.067)">
          <path
             d="M 0,0 C 0.005,0 0.01,-0.002 0.013,-0.002 0.015,0 0.016,0.003 0.016,0.006 0.011,0.003 0.007,0.002 0,0"
             style="fill:#100f0d;fill-opacity:1;fill-rule:nonzero;stroke:none"
             id="path54995" />
        </g>
        <g
           id="g54997"
           transform="translate(76.7451,530.979)">
          <path
             d="M 0,0 C 0.001,-0.114 -0.028,-0.18 -0.069,-0.258 -0.124,-0.28 -0.18,-0.3 -0.233,-0.323 c -0.143,-0.06 -0.285,-0.12 -0.428,-0.182 -0.013,0.011 -0.025,0.024 -0.038,0.036 -0.121,0.103 -0.268,0.195 -0.38,0.309 -0.067,0.07 -0.113,0.191 -0.156,0.276 -0.054,0.109 -0.03,0.195 -0.023,0.31 0.04,0.005 0.08,0.013 0.128,0.009 0.103,-0.008 0.187,-0.016 0.291,-0.003 0.067,0.011 0.126,0.048 0.192,0.061 0.096,0.02 0.197,0.023 0.294,0.046 0.049,0.012 0.096,0.021 0.143,0.03 0.022,-0.03 0.046,-0.06 0.071,-0.089 C -0.009,0.331 -0.001,0.199 0,0 M -1.224,-2.874 C -1.465,-2.944 -1.364,-2.91 -1.585,-3.07 -1.677,-3.136 -1.754,-3.22 -1.82,-3.311 -1.968,-3.514 -2.139,-3.661 -2.324,-3.83 -2.43,-3.925 -2.476,-3.977 -2.595,-4.041 -2.74,-4.121 -2.861,-4.23 -2.968,-4.354 -3.016,-4.409 -3.056,-4.485 -3.11,-4.534 -3.151,-4.572 -3.206,-4.59 -3.25,-4.626 c -0.165,-0.143 -0.359,-0.271 -0.511,-0.436 -0.032,-0.035 -0.062,-0.075 -0.088,-0.116 0.052,0.101 0.102,0.202 0.154,0.303 0.08,0.158 0.11,0.309 0.152,0.479 0.072,0.293 0.136,0.608 0.137,0.911 0,0.165 -0.02,0.326 -0.024,0.489 -0.002,0.132 -0.042,0.259 -0.053,0.392 -0.013,0.186 -0.006,0.378 -0.004,0.566 10e-4,0.168 -0.01,0.308 -0.03,0.472 -0.018,0.148 -0.004,0.305 -0.002,0.458 0.112,-0.043 0.223,-0.09 0.341,-0.135 0.175,-0.069 0.393,-0.13 0.582,-0.127 0.165,0.005 0.32,-0.024 0.482,-0.034 0.095,-0.006 0.192,0.013 0.289,0.021 0.25,0.023 0.504,0.037 0.747,0.098 0.032,0.009 0.063,0.019 0.095,0.028 0.06,-0.121 -0.235,-0.211 -0.173,-0.33 0.039,-0.073 0.091,-0.133 0.136,-0.203 0.083,-0.13 0.112,-0.284 0.183,-0.418 0.071,-0.135 0.16,-0.288 0.241,-0.418 0.006,-0.007 0.011,-0.014 0.017,-0.022 -0.211,-0.083 -0.423,-0.161 -0.645,-0.226 m -2.153,2.9 c 0.035,0.103 0.045,0.246 0.11,0.327 0.12,0.149 0.344,0.183 0.489,0.295 0.098,0.074 0.168,0.099 0.285,0.114 0.096,0.012 0.17,0.033 0.245,0.037 C -2.207,0.786 -2.168,0.77 -2.146,0.757 -2.121,0.743 -2.114,0.719 -2.097,0.7 -2.091,0.676 -2.086,0.653 -2.08,0.631 -2.066,0.563 -2.059,0.45 -2.021,0.39 -1.988,0.334 -1.924,0.318 -1.894,0.249 -1.83,0.098 -1.815,-0.1 -1.778,-0.263 c 0.041,-0.176 0.052,-0.385 0.181,-0.513 -0.068,0.007 -0.136,0.014 -0.208,0.01 -0.207,-0.009 -0.406,-0.031 -0.613,-0.013 -0.202,0.017 -0.413,-0.007 -0.616,-0.009 -0.148,0 -0.322,-0.035 -0.468,-0.016 -0.01,0.001 -0.019,0.006 -0.029,0.007 -0.005,0.049 -0.011,0.095 -0.023,0.145 -0.009,0.035 -0.022,0.071 -0.035,0.106 0.031,0.204 0.144,0.376 0.212,0.572 M -0.24,2.135 C -0.281,2.175 -0.717,1.911 -1.103,1.669 -1.228,1.564 -1.356,1.462 -1.492,1.368 -1.817,1.142 -2.311,1.048 -2.656,0.857 -2.653,0.856 -2.65,0.856 -2.647,0.855 -2.655,0.852 -2.661,0.849 -2.669,0.846 -2.973,0.748 -3.296,0.695 -3.575,0.52 -3.734,0.422 -3.869,0.284 -3.927,0.108 c -0.038,-0.116 -0.106,-0.209 -0.081,-0.324 0.024,-0.109 0.034,-0.192 0.036,-0.306 10e-4,-0.082 0.008,-0.197 0.045,-0.283 -0.015,-0.062 -0.031,-0.128 -0.059,-0.204 -0.048,-0.126 -0.11,-0.229 -0.18,-0.317 0.021,-0.276 0.083,-0.471 0.263,-0.698 0.067,-0.084 0.106,-0.116 0.124,-0.221 0.022,-0.108 0.021,-0.146 0.009,-0.26 -0.014,-0.123 -0.034,-0.236 -0.056,-0.359 -0.042,-0.258 -0.048,-0.498 -0.039,-0.761 0.004,-0.157 -0.018,-0.296 -0.027,-0.452 -0.008,-0.134 0.018,-0.193 -0.022,-0.31 -0.082,-0.236 -0.133,-0.492 -0.203,-0.732 -0.034,-0.116 -0.055,-0.227 -0.032,-0.347 0.007,-0.046 0.025,-0.096 0.042,-0.141 0.01,-0.024 0.024,-0.034 0.033,-0.055 0.015,0.017 0.034,0.033 0.057,0.048 0.092,0.066 0.184,0.128 0.281,0.195 0.138,0.097 0.283,0.175 0.387,0.301 0.072,0.09 0.171,0.134 0.279,0.195 0.535,0.303 1.085,0.561 1.588,0.915 0.137,0.097 0.316,0.148 0.442,0.254 0.109,0.093 -0.125,0.243 -0.019,0.311 0.034,0.022 0.094,0.041 0.135,0.065 0.039,0.023 0.072,0.039 0.117,0.054 0.123,0.043 0.064,0.324 0.19,0.36 0.041,0.011 0.266,-0.22 0.301,-0.197 l 0.033,0.275 c 0.027,0.221 0.08,0.453 0.072,0.677 -0.003,0.084 -0.003,0.165 0.003,0.245 -0.052,0.125 0.253,0.23 0.224,0.352 -0.059,0.246 -0.179,0.361 -0.346,0.533 -0.016,0.015 -0.026,0.031 -0.037,0.046 0.126,0.062 0.227,0.147 0.359,0.201 0.062,0.026 0.137,0.046 0.194,0.081 0.031,0.018 0.079,0.305 0.121,0.531 0.042,0.072 0.078,0.148 0.11,0.212 C 0.534,0.225 0.391,0.406 0.237,0.582 0.236,0.583 0.235,0.585 0.234,0.586 L -0.048,1.437 0.527,1.915 C 0.258,1.947 0.008,2.035 -0.24,2.135"
             style="fill:#100f0d;fill-opacity:1;fill-rule:nonzero;stroke:none"
             id="path54999" />
        </g>
        <g
           id="g55001"
           transform="translate(86.203,538.347)">
          <path
             d="m 0,0 c -0.103,-0.074 -0.146,-0.205 -0.241,-0.284 -0.108,-0.09 -0.326,-0.043 -0.471,-0.043 h -0.765 c -0.036,0 -0.147,0.012 -0.251,0.016 -0.008,0.009 -0.016,0.018 -0.023,0.026 -0.088,0.107 -0.176,0.213 -0.267,0.316 0.048,0.095 0.103,0.188 0.145,0.288 0.032,0.074 0.049,0.152 0.075,0.229 0.051,0.144 0.148,0.26 0.209,0.397 0.03,0.069 0.061,0.145 0.091,0.22 C -1.33,1.052 -1.161,0.934 -0.997,0.802 -0.811,0.651 -0.735,0.415 -0.494,0.334 -0.392,0.301 -0.288,0.289 -0.181,0.291 0.051,0.296 0.254,0.245 0.481,0.2 0.507,0.194 0.528,0.19 0.549,0.186 0.355,0.168 0.168,0.121 0,0 M -2.058,1.911 C -2.285,2.02 -2.475,2.182 -2.693,2.344 -2.837,2.452 -3.021,2.56 -3.192,2.598 -3.344,2.632 -3.477,2.694 -3.621,2.742 -3.705,2.77 -3.799,2.773 -3.887,2.786 c -0.147,0.023 -0.296,0.047 -0.446,0.062 -0.049,0.16 -0.061,0.33 -0.1,0.493 -0.02,0.08 -0.055,0.15 -0.08,0.227 -0.048,0.147 -0.042,0.303 -0.078,0.45 -0.036,0.149 -0.083,0.315 -0.13,0.461 -0.005,0.016 -0.012,0.031 -0.02,0.048 0.244,0.039 0.487,0.076 0.739,0.091 0.232,0.013 0.432,-0.114 0.666,-0.01 0.011,0.006 0.022,0.014 0.033,0.02 -0.07,-0.148 -0.133,-0.299 -0.166,-0.464 -0.032,-0.16 -0.205,-0.43 -0.138,-0.592 0.08,0.023 0.161,0.155 0.215,0.219 0.068,0.08 0.114,0.139 0.195,0.206 0.068,0.058 0.108,0.144 0.186,0.191 0.098,0.059 0.22,0.031 0.33,0.034 0.163,0.003 0.315,0.057 0.478,0.081 0.179,0.028 0.306,0.076 0.465,0.154 0.033,0.016 0.074,0.029 0.116,0.042 C -1.644,4.372 -1.661,4.245 -1.686,4.119 -1.712,3.99 -1.703,3.858 -1.721,3.727 -1.747,3.54 -1.794,3.357 -1.835,3.174 -1.871,3.012 -1.891,2.871 -1.908,2.707 -1.924,2.534 -1.987,2.356 -2.02,2.184 -2.038,2.089 -2.05,2.001 -2.058,1.911 M -2.056,1.449 C -2.109,1.284 -2.243,1.109 -2.348,0.973 -2.473,0.808 -2.505,0.666 -2.534,0.483 c -0.08,0.057 -0.162,0.112 -0.25,0.168 -0.126,0.08 -0.263,0.106 -0.389,0.187 -0.053,0.034 -0.109,0.083 -0.168,0.107 -0.05,0.022 -0.082,0.009 -0.13,0.023 -0.056,0.018 -0.185,0.099 -0.228,0.143 -0.026,0.026 -0.02,0.059 -0.044,0.085 -0.029,0.033 -0.07,0.067 -0.112,0.1 -0.018,0.157 0.004,0.34 0.004,0.497 0,0.118 0.014,0.244 0,0.361 0.126,-0.022 0.249,-0.047 0.372,-0.09 0.179,-0.062 0.376,-0.086 0.558,-0.13 0.135,-0.033 0.299,-0.04 0.426,-0.092 0.158,-0.064 0.308,-0.204 0.452,-0.309 -10e-4,-0.03 -0.004,-0.057 -0.013,-0.084 m -0.74,-1.734 c -0.002,-0.015 -0.001,-0.032 -0.002,-0.048 -0.108,-0.092 -0.178,-0.265 -0.261,-0.36 -0.117,-0.136 -0.169,-0.081 -0.337,-0.053 -0.027,0.004 -0.053,0.008 -0.079,0.012 -0.053,0.056 -0.102,0.116 -0.16,0.168 -0.061,0.056 -0.119,0.109 -0.176,0.167 10e-4,0.044 0.004,0.088 0.004,0.132 -0.004,0.231 0.043,0.455 0.043,0.689 v 0.121 c 0.026,-0.005 0.05,-0.011 0.077,-0.024 0.09,-0.043 0.176,-0.113 0.263,-0.166 0.169,-0.106 0.341,-0.212 0.511,-0.319 0.05,-0.031 0.101,-0.06 0.153,-0.09 -0.021,-0.073 -0.03,-0.15 -0.036,-0.229 m -1.581,0.55 c -0.032,0.033 -0.064,0.067 -0.094,0.098 -0.197,0.205 -0.4,0.324 -0.672,0.329 -0.062,0 -0.126,-0.015 -0.188,-0.018 -0.002,0.003 -0.002,0.008 -0.005,0.013 -0.053,0.126 -0.112,0.25 -0.177,0.371 C -5.462,1.05 -5.41,1.04 -5.358,1.026 -5.176,0.972 -4.99,0.949 -4.802,0.942 -4.685,0.939 -4.562,0.874 -4.441,0.807 -4.439,0.8 -4.438,0.795 -4.436,0.789 -4.401,0.667 -4.395,0.532 -4.376,0.402 -4.37,0.355 -4.372,0.309 -4.377,0.265 M -5.85,1.781 c -0.051,0.013 -0.106,0.023 -0.161,0.033 -0.024,0.038 -0.048,0.076 -0.073,0.113 0.02,0.01 0.04,0.02 0.058,0.031 0.062,0.039 0.109,0.08 0.178,0.101 0.095,0.028 0.203,0.037 0.3,0.055 0.194,0.037 0.388,0.073 0.582,0.111 0.055,0.01 0.113,0.024 0.17,0.037 0.005,-0.008 0.01,-0.016 0.014,-0.022 0.088,-0.13 0.202,-0.252 0.279,-0.388 0.032,-0.059 0.05,-0.141 0.064,-0.216 -0.034,0.003 -0.07,0.005 -0.111,0.02 -0.089,0.029 -0.165,0.057 -0.261,0.067 -0.062,0.006 -0.124,-0.018 -0.186,-0.015 -0.091,0.001 -0.184,0.023 -0.276,0.021 -0.195,0 -0.38,0.005 -0.577,0.052 m -0.444,0.758 c -0.065,0.008 -0.158,-0.002 -0.235,-0.008 -0.034,0.05 -0.07,0.106 -0.111,0.132 -0.05,0.035 -0.109,0.02 -0.164,0.067 -0.115,0.108 -0.212,0.277 -0.311,0.404 -0.086,0.112 -0.165,0.251 -0.276,0.329 0.077,0.036 0.159,0.066 0.237,0.111 0.165,0.103 0.321,0.213 0.5,0.29 0.173,0.077 0.339,0.195 0.505,0.288 0.122,0.067 0.252,0.177 0.381,0.226 0.075,0.028 0.158,0.039 0.243,0.049 0.016,-0.026 0.035,-0.053 0.056,-0.079 0.07,-0.09 0.18,-0.155 0.221,-0.268 C -5.19,3.916 -5.189,3.691 -5.187,3.514 -5.185,3.26 -5.101,3.121 -4.987,2.917 -4.969,2.886 -4.958,2.856 -4.95,2.83 -5.044,2.819 -5.137,2.804 -5.236,2.786 -5.38,2.76 -5.499,2.686 -5.644,2.662 -5.704,2.65 -5.777,2.647 -5.836,2.626 -5.888,2.608 -5.904,2.575 -5.95,2.554 -6.005,2.529 -6.152,2.5 -6.209,2.505 -6.244,2.508 -6.259,2.536 -6.294,2.539 M -7.426,2.202 C -7.477,2.164 -7.511,2.104 -7.559,2.061 -7.582,2.042 -7.608,2.024 -7.634,2.006 c -0.127,0.042 -0.258,0.078 -0.389,0.101 -0.15,0.025 -0.293,0.077 -0.439,0.119 0.056,0.086 0.131,0.164 0.193,0.243 0.088,0.114 0.177,0.227 0.265,0.341 C -7.884,2.786 -7.761,2.768 -7.65,2.727 -7.565,2.696 -7.476,2.608 -7.405,2.552 -7.317,2.482 -7.3,2.398 -7.26,2.298 -7.317,2.271 -7.371,2.244 -7.426,2.202 M -8.68,4.036 C -8.805,4.114 -8.893,4.239 -9.008,4.327 -9.038,4.35 -9.07,4.373 -9.103,4.396 -9.108,4.368 -9.116,4.338 -9.123,4.307 -9.177,4.105 -9.214,3.968 -9.206,3.788 -9.295,3.813 -9.39,3.822 -9.487,3.812 c 0.066,0.073 0.073,0.183 0.122,0.269 0.09,0.106 0.176,0.214 0.257,0.326 0.072,0.13 0.149,0.257 0.231,0.381 0.053,0.067 0.106,0.186 0.167,0.243 -0.022,-0.01 -0.039,-0.018 -0.059,-0.026 0.047,0.051 0.092,0.103 0.142,0.153 0.17,0.172 0.399,0.213 0.514,0.455 0.049,0.101 0.077,0.211 0.094,0.322 0.037,0.249 0.117,0.457 0.199,0.69 0.047,0.133 0.063,0.2 0.135,0.311 0.088,0.138 0.141,0.288 0.177,0.449 0.017,0.07 0.019,0.157 0.041,0.224 0.018,0.054 0.058,0.093 0.078,0.145 0.078,0.203 0.185,0.404 0.241,0.62 0.011,0.046 0.018,0.095 0.023,0.144 v -0.34 c 0,-0.177 0.039,-0.326 0.075,-0.496 0.063,-0.293 0.143,-0.603 0.269,-0.873 0.07,-0.148 0.154,-0.283 0.224,-0.427 0.058,-0.118 0.144,-0.211 0.208,-0.326 0.091,-0.16 0.165,-0.334 0.243,-0.502 C -6.038,5.403 -5.97,5.284 -5.885,5.146 -5.798,5.008 -5.739,4.837 -5.666,4.687 -5.844,4.654 -6.026,4.643 -6.221,4.623 -6.394,4.605 -6.601,4.561 -6.754,4.473 -6.889,4.394 -7.03,4.348 -7.168,4.284 -7.248,4.248 -7.323,4.186 -7.397,4.134 -7.596,4.001 -7.799,3.874 -7.973,3.709 -8.014,3.671 -8.052,3.632 -8.09,3.594 -8.234,3.682 -8.35,3.815 -8.485,3.916 -8.547,3.964 -8.615,3.993 -8.68,4.036 M 2.371,0.054 C 2.25,0.1 2.133,0.149 2.009,0.154 1.901,0.157 1.813,0.211 1.707,0.26 1.185,0.505 0.689,0.792 0.146,0.978 -0.003,1.031 -0.14,1.144 -0.289,1.181 -0.418,1.212 -0.559,1.232 -0.668,1.276 -0.703,1.289 -0.75,1.327 -0.79,1.345 c -0.041,0.018 -0.069,0.034 -0.106,0.06 -0.101,0.074 -0.196,0.157 -0.291,0.236 -0.058,0.047 -0.126,0.072 -0.196,0.088 -0.004,0.18 -0.022,0.376 0.005,0.555 0.047,0.296 0.036,0.507 -0.084,0.782 -0.044,0.098 -0.071,0.137 -0.066,0.243 0.002,0.11 0.012,0.146 0.047,0.254 0.037,0.118 0.08,0.223 0.124,0.339 0.073,0.188 0.122,0.371 0.164,0.564 C -1.244,4.5 -1.29,4.541 -1.325,4.595 -1.342,4.622 -1.358,4.653 -1.375,4.682 -1.355,4.711 -1.338,4.74 -1.33,4.763 -1.224,5.09 -1.614,5.004 -1.793,4.948 -1.973,4.891 -2.134,4.801 -2.308,4.736 -2.359,4.716 -2.4,4.704 -2.449,4.677 -2.453,4.675 -2.55,4.604 -2.553,4.604 -2.688,4.578 -2.665,4.705 -2.691,4.803 -2.711,4.878 -2.74,4.951 -2.767,5.024 -2.72,5.054 -2.673,5.083 -2.625,5.112 -2.673,5.139 -2.72,5.17 -2.762,5.209 -2.793,5.238 -2.82,5.268 -2.844,5.3 -2.86,5.385 -2.872,5.469 -2.91,5.554 -2.939,5.619 -2.967,5.654 -2.987,5.616 -2.989,5.625 -2.992,5.634 -2.993,5.643 -3.073,5.612 -3.153,5.58 -3.232,5.546 -3.376,5.482 -3.549,5.474 -3.685,5.398 -3.802,5.333 -3.922,5.251 -4.033,5.209 -4.068,5.196 -4.125,5.191 -4.166,5.178 -4.207,5.163 -4.241,5.155 -4.283,5.15 -4.406,5.137 -4.527,5.135 -4.647,5.128 -4.756,5.124 -4.855,5.063 -4.944,4.999 -4.976,4.977 -5.011,4.957 -5.046,4.936 c -0.067,0.08 -0.132,0.163 -0.18,0.253 -0.141,0.26 -0.275,0.414 -0.53,0.54 C -5.848,5.775 -5.892,5.786 -5.953,5.87 -6.015,5.956 -6.03,5.991 -6.068,6.099 -6.109,6.215 -6.14,6.325 -6.174,6.444 -6.247,6.694 -6.343,6.91 -6.459,7.141 -6.529,7.278 -6.57,7.414 -6.628,7.555 -6.678,7.679 -6.723,7.718 -6.739,7.843 -6.772,8.09 -6.836,8.342 -6.878,8.587 -6.9,8.705 -6.928,8.814 -6.997,8.911 -7.024,8.948 -7.059,8.984 -7.092,9.016 -7.109,9.034 -7.125,9.037 -7.142,9.052 -7.148,9.029 -7.157,9.007 -7.168,8.983 -7.216,8.881 -7.266,8.785 -7.318,8.682 -7.394,8.533 -7.48,8.397 -7.512,8.239 -7.535,8.126 -7.599,8.042 -7.663,7.937 -7.978,7.426 -8.324,6.948 -8.591,6.403 -8.662,6.256 -8.791,6.128 -8.85,5.976 -8.902,5.845 -8.943,5.699 -9.003,5.59 -9.021,5.556 -9.062,5.511 -9.087,5.472 -9.109,5.433 -9.129,5.405 -9.16,5.371 -9.217,5.307 -9.276,5.248 -9.337,5.189 -9.284,5.097 -9.231,5.006 -9.182,4.918 -9.165,4.886 -9.154,4.856 -9.141,4.826 -9.199,4.794 -9.226,4.773 -9.25,4.754 -9.33,4.713 -9.409,4.669 -9.486,4.623 -9.533,4.579 -9.575,4.532 -9.611,4.479 -9.701,4.394 -9.709,4.39 -9.749,4.284 -9.78,4.202 -9.785,4.147 -9.786,4.057 -9.787,3.787 -9.647,3.099 -9.245,3.16 -9.149,3.174 -8.984,3.222 -8.884,3.301 -8.815,3.267 -8.74,3.24 -8.654,3.208 -8.58,3.18 -8.541,3.144 -8.5,3.098 -8.556,3.005 -8.6,2.907 -8.668,2.822 -8.709,2.77 -8.764,2.719 -8.795,2.662 -8.824,2.611 -8.818,2.575 -8.84,2.526 -8.862,2.478 -8.932,2.387 -8.982,2.336 -9.002,2.339 -9.02,2.343 -9.04,2.347 h -0.003 c 0.026,-0.278 0.129,-0.51 0.281,-0.739 0.003,0.003 0.004,0.008 0.007,0.012 h 0.02 C -8.607,1.616 -8.5,1.547 -8.378,1.502 -8.363,1.497 -8.347,1.49 -8.331,1.484 -8.406,1.438 -8.48,1.386 -8.554,1.332 c 0.218,-0.265 0.47,-0.491 0.699,-0.746 0.211,-0.234 0.08,-0.139 0.173,-0.331 0.001,-0.001 0.001,-0.005 0.004,-0.006 0.226,0.07 0.457,0.096 0.692,0.117 0.029,0.002 0.053,0.002 0.079,0.004 0.026,-0.002 0.051,0 0.077,0.001 0.038,-0.013 0.076,-0.028 0.113,-0.041 l 0.364,-0.142 c 0.107,-0.044 0.209,-0.098 0.308,-0.157 0.09,-0.175 0.198,-0.345 0.285,-0.507 0.065,-0.121 0.13,-0.241 0.194,-0.362 0.048,-0.091 0.091,-0.186 0.126,-0.283 0.104,0.084 0.218,0.154 0.344,0.197 0.197,0.067 0.406,0.045 0.61,0.044 0.041,0 0.083,0 0.124,0 0.018,-0.018 0.035,-0.037 0.054,-0.055 0.063,-0.059 0.276,-0.292 0.382,-0.327 0.12,-0.04 0.156,0.097 0.252,0.089 0.07,-0.189 0.214,-0.007 0.338,0.008 0.195,0.023 0.309,-0.207 0.491,-0.239 0.19,-0.033 0.192,0.107 0.267,0.245 0.053,0.099 0.098,0.154 0.085,0.275 0,0.002 -0.001,0.003 -0.001,0.005 0.033,0.001 0.066,0 0.1,0 0.005,0.001 0.011,0 0.017,0 0.056,0.051 0.119,0.095 0.189,0.124 0.135,0.057 0.285,0.073 0.428,0.033 0.095,-0.026 0.227,-0.09 0.29,-0.169 0.008,-0.009 0.016,-0.019 0.024,-0.029 0.038,0.002 0.077,0.004 0.115,0.009 l -0.002,0.001 c -0.076,0.107 -0.135,0.219 -0.198,0.331 0.04,-0.011 0.079,-0.024 0.119,-0.031 0.111,-0.035 0.166,-0.076 0.185,-0.215 0.318,0.134 0.646,0.255 0.973,0.363 0.188,0.063 0.377,0.108 0.561,0.185 0.263,0.112 0.57,0.136 0.815,0.29 0.017,0.01 0.034,0.02 0.05,0.03 C 1.314,0.032 1.458,0.032 1.599,0.038 1.646,0.039 1.693,0.04 1.74,0.042 L 1.897,0 C 1.894,0.017 1.888,0.032 1.879,0.046 2.043,0.051 2.207,0.055 2.371,0.054"
             style="fill:#100f0d;fill-opacity:1;fill-rule:nonzero;stroke:none"
             id="path55003" />
        </g>
      </g>
    </g>
  </g>
</svg>
