<?xml version="1.0" encoding="UTF-8" standalone="no"?>
<!-- Created with Inkscape (http://www.inkscape.org/) -->

<svg
   width="26.721291"
   height="24"
   viewBox="0 0 7.0700082 6.35"
   version="1.1"
   id="svg58928"
   inkscape:version="1.2.1 (9c6d41e4, 2022-07-14)"
   sodipodi:docname="miasma.svg"
   xmlns:inkscape="http://www.inkscape.org/namespaces/inkscape"
   xmlns:sodipodi="http://sodipodi.sourceforge.net/DTD/sodipodi-0.dtd"
   xmlns="http://www.w3.org/2000/svg"
   xmlns:svg="http://www.w3.org/2000/svg">
  <sodipodi:namedview
     id="namedview58930"
     pagecolor="#505050"
     bordercolor="#eeeeee"
     borderopacity="1"
     inkscape:showpageshadow="0"
     inkscape:pageopacity="0"
     inkscape:pagecheckerboard="0"
     inkscape:deskcolor="#505050"
     inkscape:document-units="mm"
     showgrid="false"
     inkscape:zoom="0.7046647"
     inkscape:cx="24.124949"
     inkscape:cy="166.74597"
     inkscape:window-width="1390"
     inkscape:window-height="941"
     inkscape:window-x="0"
     inkscape:window-y="25"
     inkscape:window-maximized="0"
     inkscape:current-layer="layer1" />
  <defs
     id="defs58925">
    <clipPath
       clipPathUnits="userSpaceOnUse"
       id="clipPath55017">
      <path
         d="m 188.725,523.759 h 24.7 v 24.699 h -24.7 z"
         id="path55015" />
    </clipPath>
  </defs>
  <g
     inkscape:label="Layer 1"
     inkscape:groupmode="layer"
     id="layer1"
     transform="translate(-98.593946,-104.58606)">
    <g
       id="g55011"
       transform="matrix(0.32299528,0,0,-0.32299528,37.169097,280.58235)">
      <g
         id="g55013"
         clip-path="url(#clipPath55017)">
        <g
           id="g55019"
           transform="translate(191.378,535.232)">
          <path
             d="m 0,0 c 0.183,-0.067 0.327,-0.06 0.507,-0.061 0.008,0.002 0.034,0.013 0.045,0.052 0.013,0.043 0,0.114 -0.001,0.16 C 0.549,0.235 0.582,0.266 0.638,0.331 0.689,0.39 0.694,0.453 0.739,0.515 0.794,0.591 0.899,0.692 0.995,0.71 1.06,0.722 1.129,0.732 1.198,0.741 1.21,0.731 1.221,0.721 1.233,0.712 1.281,0.666 1.334,0.626 1.391,0.592 1.485,0.596 1.579,0.596 1.673,0.593 1.801,0.564 1.92,0.583 2.03,0.651 2.152,0.743 2.272,0.838 2.39,0.934 2.648,1.144 2.846,1.407 3.067,1.651 3.083,1.653 3.098,1.655 3.114,1.657 3.12,1.654 3.127,1.653 3.133,1.651 3.207,1.622 3.284,1.606 3.362,1.595 3.396,1.63 3.434,1.663 3.478,1.686 3.485,1.693 3.494,1.699 3.502,1.706 3.532,1.734 3.562,1.762 3.595,1.786 3.802,2.002 3.998,2.192 4.349,2.214 4.726,2.238 4.919,2.027 5.165,1.824 5.241,1.783 5.311,1.729 5.377,1.664 5.383,1.658 5.39,1.653 5.396,1.647 5.454,1.585 5.487,1.514 5.501,1.441 5.628,1.443 5.753,1.447 5.877,1.45 5.979,1.493 6.1,1.494 6.224,1.428 6.283,1.413 6.339,1.393 6.396,1.37 6.63,1.331 6.9,1.436 7.121,1.477 7.441,1.538 7.766,1.567 8.073,1.439 8.155,1.405 8.217,1.353 8.262,1.293 c 0.013,0 0.025,-10e-4 0.037,-10e-4 0.25,0.003 0.489,0.063 0.732,0.11 0.193,0.037 0.397,0.043 0.587,-0.006 0.087,-0.023 0.169,-0.064 0.255,-0.087 0.134,-0.036 0.311,-0.02 0.442,-0.018 0.123,0.003 0.281,-0.019 0.401,0.015 0.075,0.022 0.14,0.111 0.205,0.154 0.082,0.055 0.162,0.101 0.26,0.115 0.051,0.057 0.108,0.1 0.168,0.134 0.027,0.016 0.055,0.029 0.084,0.04 0.011,0.004 0.021,0.009 0.031,0.013 0.04,0.014 0.082,0.024 0.124,0.031 0.038,0.013 0.077,0.022 0.116,0.03 0.039,0.008 0.078,0.013 0.118,0.016 0.099,0.006 0.199,-0.004 0.301,-0.038 0.06,-0.02 0.116,-0.048 0.171,-0.079 0.266,-0.046 0.516,-0.184 0.693,-0.4 0.105,-0.08 0.201,-0.177 0.282,-0.294 0.012,-0.017 0.021,-0.034 0.029,-0.052 10e-4,0 0.002,0 0.003,0.001 0.033,0.011 0.059,0.052 0.099,0.067 0.069,0.024 0.144,0.013 0.214,0.007 0.26,-0.025 0.512,-0.104 0.766,-0.064 0.035,0.067 0.094,0.127 0.185,0.169 0.594,0.281 1.332,0.107 1.823,-0.306 0.064,-0.053 0.102,-0.113 0.123,-0.173 0.022,-0.002 0.045,-0.002 0.068,-0.006 0.064,-0.009 0.166,-0.026 0.235,-0.054 0.182,-0.074 0.345,-0.216 0.545,-0.251 0.107,-0.019 0.214,0.006 0.322,0.001 0.107,-0.005 0.18,-0.024 0.28,-0.075 0.069,-0.036 0.112,-0.065 0.161,-0.12 0.014,-0.017 0.039,-0.062 0.059,-0.077 0.069,-0.052 0.082,0.011 0.139,0.001 0.063,-0.012 0.057,-0.107 0.069,-0.153 0.02,-0.075 0.074,-0.167 0.155,-0.191 0.064,-0.02 0.153,0.001 0.219,0.001 0.042,0 0.102,-0.011 0.142,0.004 0.039,0.016 0.036,0.05 0.079,0.046 0.036,-0.002 0.033,-0.041 0.061,-0.05 0.031,-0.01 0.083,0.017 0.109,0.026 0.057,0.018 0.117,0.025 0.171,0.047 0.029,0.012 0.051,0.028 0.075,0.045 0.053,0.038 0.079,0.057 0.142,0.085 0.085,0.038 0.157,0.094 0.25,0.113 0.045,0.009 0.09,0.015 0.135,0.023 0.074,0.013 0.15,0.014 0.224,0.026 0.134,0.022 0.259,0.014 0.388,0.057 0.029,0.095 0.003,0.282 -0.001,0.36 -0.008,0.15 -0.015,0.3 -0.02,0.451 -0.004,0.107 0.007,0.104 -0.037,0.166 -0.034,0.046 -0.076,0.091 -0.112,0.135 -0.073,0.091 -0.065,0.169 -0.064,0.28 C 20.306,1.679 20.294,1.77 20.267,1.882 20.182,2.222 20.011,2.51 19.836,2.809 19.743,2.967 19.56,3.14 19.438,3.262 19.321,3.378 19.205,3.48 19.068,3.573 18.761,3.781 18.382,3.831 18.017,3.86 17.932,3.867 17.866,3.862 17.79,3.842 17.786,3.841 17.768,3.812 17.761,3.807 17.749,3.947 17.752,4.081 17.729,4.219 17.717,4.29 17.7,4.35 17.678,4.419 17.646,4.52 17.632,4.612 17.572,4.704 c -0.059,0.089 -0.12,0.18 -0.188,0.262 -0.086,0.103 -0.203,0.169 -0.311,0.247 -0.069,0.05 -0.147,0.11 -0.198,0.18 -0.031,0.043 -0.044,0.065 -0.094,0.093 -0.192,0.107 -0.426,0.18 -0.643,0.215 C 15.935,5.733 15.73,5.802 15.525,5.81 15.47,5.812 15.438,5.796 15.393,5.831 15.264,5.931 15.242,6.102 15.14,6.222 14.924,6.474 14.773,6.771 14.537,7.01 14.356,7.192 14.117,7.382 13.857,7.411 13.696,7.429 13.506,7.476 13.344,7.453 13.233,7.438 13.126,7.373 13.038,7.306 12.992,7.269 12.954,7.221 12.902,7.19 12.888,7.23 12.885,7.271 12.891,7.315 12.879,7.426 12.872,7.537 12.87,7.649 12.871,7.73 12.859,7.785 12.832,7.863 12.783,8.008 12.703,8.122 12.636,8.258 12.519,8.495 12.299,8.67 12.079,8.811 11.928,8.908 11.781,9.011 11.633,9.113 11.53,9.219 11.431,9.32 11.282,9.358 11.158,9.389 11.049,9.438 10.931,9.396 10.89,9.381 10.846,9.369 10.801,9.357 10.775,9.361 10.749,9.353 10.72,9.358 10.685,9.365 10.642,9.397 10.614,9.419 10.545,9.471 10.504,9.528 10.416,9.545 10.385,9.551 10.364,9.548 10.337,9.562 10.316,9.573 10.304,9.59 10.281,9.598 10.262,9.605 10.238,9.599 10.216,9.604 10.16,9.615 10.107,9.64 10.049,9.648 9.954,9.66 9.845,9.657 9.749,9.65 9.666,9.644 9.564,9.641 9.483,9.622 9.439,9.611 9.404,9.584 9.362,9.567 9.288,9.537 9.216,9.529 9.145,9.489 8.977,9.393 8.799,9.25 8.695,9.087 8.649,9.016 8.632,8.97 8.625,8.908 8.554,8.844 8.484,8.778 8.411,8.715 8.297,8.615 8.236,8.478 8.159,8.351 8.154,8.342 8.15,8.333 8.145,8.324 8.098,8.368 8.052,8.412 8.012,8.456 7.847,8.637 7.699,8.824 7.513,8.985 7.339,9.137 7.104,9.318 6.876,9.387 6.768,9.42 6.65,9.413 6.539,9.41 6.4,9.407 6.283,9.386 6.151,9.336 6.048,9.297 5.968,9.241 5.873,9.187 5.807,9.149 5.739,9.125 5.682,9.071 5.626,9.019 5.577,8.96 5.529,8.901 5.383,8.719 5.272,8.537 5.193,8.314 5.157,8.213 5.147,8.109 5.13,8.003 5.123,7.965 5.127,7.9 5.104,7.869 5.075,7.831 5.068,7.848 5.029,7.855 4.968,7.893 4.902,7.916 4.829,7.925 4.712,7.947 4.594,7.969 4.477,7.99 4.184,8.036 3.872,8.047 3.575,8.029 3.285,8.013 3.047,7.875 2.797,7.742 2.599,7.637 2.448,7.566 2.348,7.366 2.274,7.218 2.25,7.056 2.234,6.893 2.203,6.585 2.206,6.268 2.299,5.971 2.359,5.78 2.45,5.593 2.523,5.407 2.53,5.388 2.538,5.371 2.545,5.353 2.524,5.354 2.503,5.357 2.482,5.358 2.341,5.361 2.226,5.284 2.111,5.202 1.991,5.117 1.887,5.031 1.819,4.897 1.751,4.764 1.724,4.512 1.702,4.366 1.682,4.232 1.673,4.1 1.679,3.965 1.682,3.908 1.69,3.823 1.705,3.736 c -0.039,0 -0.079,0 -0.118,0 C 1.501,3.735 1.425,3.745 1.338,3.756 1.279,3.764 1.209,3.773 1.151,3.752 1.059,3.718 0.98,3.645 0.896,3.595 0.746,3.506 0.502,3.5 0.556,3.267 0.577,3.178 0.577,3.141 0.577,3.038 0.577,2.944 0.582,2.848 0.578,2.755 0.577,2.722 0.583,2.691 0.561,2.665 0.314,2.716 0.078,2.898 -0.166,2.753 -0.225,2.718 -0.289,2.698 -0.341,2.649 -0.399,2.594 -0.41,2.54 -0.447,2.477 -0.493,2.401 -0.574,2.348 -0.623,2.272 -0.664,2.206 -0.708,2.135 -0.752,2.072 -0.784,2.026 -0.828,2.01 -0.858,1.965 -0.895,1.91 -0.884,1.854 -0.883,1.79 -0.881,1.619 -0.908,1.411 -1.016,1.27 -1.091,1.171 -1.225,1.151 -1.203,1.001 -1.196,0.957 -1.188,0.914 -1.152,0.894 -1.128,0.906 -1.104,0.904 -1.08,0.886 -0.989,0.831 -0.905,0.766 -0.828,0.691 -0.556,0.444 -0.363,0.133 0,0"
             style="fill:#100f0d;fill-opacity:1;fill-rule:nonzero;stroke:none"
             id="path55021" />
        </g>
        <g
           id="g55023"
           transform="translate(197.949,534.244)">
          <path
             d="M 0,0 C 0.195,0.034 0.388,-0.024 0.572,-0.08 0.671,-0.11 0.774,-0.145 0.875,-0.169 0.834,-0.171 0.794,-0.172 0.756,-0.173 c -0.254,-0.009 -0.508,0 -0.761,-0.005 -0.131,-0.003 -0.243,0.027 -0.356,0.08 C -0.243,-0.061 -0.124,-0.022 0,0 m -1.242,-0.415 c 0.335,0.006 0.671,-0.013 1.006,0.002 0.181,0.008 0.364,0.034 0.539,0.079 0.091,0.023 0.185,0.067 0.278,0.077 0.137,0.015 0.273,-0.048 0.407,-0.065 0.113,-0.014 0.218,-0.017 0.33,0.007 0.171,0.039 0.351,0.162 0.498,0.246 0.071,0.04 0.106,0.101 0.163,0.159 C 2.058,0.091 2.138,0.093 2.217,0.093 2.333,0.094 2.487,0.112 2.606,0.082 2.625,0.077 2.643,0.071 2.661,0.065 2.65,0.067 2.637,0.066 2.626,0.067 2.564,0.074 2.515,0.1 2.455,0.082 2.386,0.062 2.337,0 2.275,-0.033 2.231,-0.057 2.156,-0.109 2.102,-0.098 c 0.184,0 0.297,0.012 0.399,-0.006 0.145,-0.025 0.305,-0.108 0.451,-0.062 0.105,0.034 0.218,0.068 0.317,0.114 0.008,0.003 0.017,0.005 0.025,0.008 0.063,-0.019 0.126,-0.036 0.193,-0.043 0.131,-0.015 0.257,-0.032 0.387,-0.057 0.134,-0.026 0.273,-0.102 0.405,-0.11 0.073,-0.004 0.149,0.003 0.222,0.002 0.051,-0.001 0.113,-0.01 0.163,0.003 0.067,0.018 0.091,0.069 0.142,0.111 0.035,0.028 0.08,0.049 0.107,0.086 0.032,0.045 0.036,0.218 0.159,0.331 0,0.008 0,0.017 0,0.025 C 5.029,0.31 4.934,0.266 4.894,0.257 4.751,0.225 4.604,0.218 4.462,0.185 4.333,0.155 4.217,0.147 4.084,0.146 3.957,0.146 3.858,0.166 3.735,0.197 3.538,0.248 3.321,0.228 3.119,0.226 2.852,0.223 2.59,0.268 2.324,0.279 2.132,0.287 2.012,0.248 1.843,0.174 1.814,0.161 1.747,0.16 1.727,0.141 1.705,0.12 1.715,0.108 1.735,0.101 1.714,0.087 1.694,0.071 1.667,0.053 1.606,0.01 1.532,-0.003 1.461,-0.022 1.383,-0.044 1.322,-0.095 1.245,-0.12 1.213,-0.131 1.178,-0.138 1.144,-0.144 1.14,-0.129 1.134,-0.113 1.127,-0.099 1.122,-0.089 1.103,-0.079 1.099,-0.068 1.092,-0.05 1.101,-0.026 1.092,-0.01 1.071,0.027 1.025,0.024 0.988,0.038 0.892,0.072 0.825,0.169 0.744,0.228 0.701,0.26 0.647,0.287 0.61,0.325 0.552,0.384 0.504,0.444 0.442,0.5 0.369,0.567 0.296,0.589 0.194,0.606 0.001,0.638 -0.072,0.427 -0.199,0.324 -0.351,0.201 -0.538,0.097 -0.715,0.007 -0.74,0.009 -0.766,0.011 -0.793,0.014 -0.925,0.027 -1.051,0.06 -1.184,0.064 -1.252,0.066 -1.321,0.062 -1.389,0.061 -1.485,0.06 -1.582,0.057 -1.677,0.062 -1.78,0.068 -1.877,0.1 -1.979,0.11 -2.046,0.116 -2.112,0.114 -2.178,0.113 -2.29,0.156 -2.489,0.162 -2.571,0.165 -2.577,0.167 -2.584,0.168 -2.59,0.169 -2.692,0.197 -2.789,0.236 -2.894,0.245 -3.036,0.256 -3.182,0.255 -3.324,0.248 -3.344,0.247 -3.364,0.244 -3.383,0.242 -3.472,0.258 -3.559,0.273 -3.648,0.304 -3.734,0.334 -3.838,0.378 -3.917,0.428 -3.976,0.465 -4.023,0.511 -4.085,0.545 -4.212,0.614 -4.402,0.667 -4.549,0.644 -4.592,0.637 -4.63,0.619 -4.673,0.609 -4.748,0.591 -4.831,0.598 -4.902,0.565 -4.946,0.545 -4.97,0.512 -5.005,0.483 -5.053,0.444 -5.109,0.421 -5.163,0.392 -5.187,0.379 -5.209,0.368 -5.231,0.357 -5.532,0.347 -5.844,0.287 -6.133,0.205 -6.214,0.182 -6.283,0.166 -6.367,0.167 -6.324,0.16 -6.359,0.149 -6.393,0.134 -6.388,0.065 -6.501,0.013 -6.554,-0.005 -6.641,-0.034 -6.716,-0.078 -6.802,-0.11 c -0.03,-0.011 -0.074,-0.015 -0.087,-0.047 0.027,-0.05 0.066,-0.047 0.116,-0.047 0.131,-0.003 0.263,0 0.394,0 0.07,0 0.14,10e-4 0.209,0 0.111,-0.003 0.214,0.022 0.324,0.041 0.162,0.029 0.335,0.012 0.499,0.012 0.237,0 0.475,0.007 0.712,-0.002 0.136,-0.004 0.271,-0.022 0.407,-0.036 0.098,-0.01 0.213,0.006 0.307,-0.012 0.113,-0.022 0.219,-0.082 0.315,-0.142 0.184,-0.115 0.46,-0.113 0.667,-0.122 0.231,-0.011 0.461,-0.007 0.693,-0.007 0.337,0.001 0.669,0.052 1.004,0.057"
             style="fill:#100f0d;fill-opacity:1;fill-rule:nonzero;stroke:none"
             id="path55025" />
        </g>
        <g
           id="g55027"
           transform="translate(197.069,532.925)">
          <path
             d="m 0,0 c 0.158,-0.006 0.31,-0.04 0.469,-0.05 0.24,-0.014 0.526,-0.022 0.768,0.013 0.276,0.039 0.523,0.19 0.788,0.267 0.074,0.021 0.152,0.009 0.228,0.009 0.22,-0.001 0.439,0 0.658,0 0.465,0 0.927,-0.006 1.388,0.031 0.06,-0.032 0.12,-0.065 0.18,-0.092 0.143,-0.065 0.305,-0.101 0.456,-0.151 0.134,-0.044 0.29,-0.053 0.432,-0.058 0.057,-0.001 0.091,-0.001 0.14,0.027 0.161,0.094 0.309,0.2 0.485,0.277 C 6.116,0.327 6.246,0.371 6.374,0.418 6.555,0.412 6.743,0.406 6.915,0.43 6.953,0.435 6.991,0.439 7.029,0.444 7.078,0.368 7.144,0.294 7.216,0.243 7.302,0.182 7.429,0.107 7.538,0.101 7.652,0.094 7.699,0.14 7.795,0.183 c 0.121,0.054 0.259,0.103 0.361,0.192 0.057,0.049 0.109,0.106 0.165,0.156 0.095,0 0.19,0 0.287,0 0.101,0 0.207,0.011 0.308,0.006 0.191,-0.01 0.36,-0.116 0.544,-0.165 0.222,-0.059 0.502,-0.062 0.718,0.019 0.161,0.061 0.331,0.026 0.476,0.127 0.13,0.09 0.276,0.119 0.428,0.119 0.056,0 0.133,-0.014 0.188,-0.002 0.048,0.012 0.06,0.031 0.122,0.027 -0.023,0.027 -0.042,0.018 -0.069,0.033 -0.049,0.028 -0.071,0.058 -0.081,0.048 -0.215,0 -0.429,0.001 -0.644,0 C 10.398,0.742 10.204,0.731 10.009,0.776 9.87,0.807 9.724,0.809 9.59,0.853 9.459,0.896 9.324,0.925 9.196,0.975 9.084,1.018 8.979,1.075 8.859,1.089 8.73,1.105 8.557,1.109 8.434,1.07 8.373,1.051 8.331,1.018 8.275,0.99 8.172,0.938 8.054,0.915 7.943,0.886 7.718,0.828 7.518,0.801 7.292,0.849 7.099,0.891 6.906,0.873 6.708,0.891 6.615,0.9 6.523,0.912 6.43,0.925 6.408,0.928 6.385,0.934 6.364,0.929 6.319,0.918 6.259,0.866 6.216,0.846 6.146,0.814 6.074,0.78 6.003,0.752 5.843,0.687 5.635,0.715 5.465,0.716 5.406,0.716 5.344,0.72 5.284,0.718 5.179,0.714 5.075,0.677 4.973,0.65 4.88,0.625 4.785,0.59 4.689,0.576 4.544,0.556 4.399,0.556 4.253,0.557 4.087,0.558 3.921,0.556 3.755,0.557 3.687,0.558 3.627,0.561 3.559,0.547 3.351,0.504 3.14,0.502 2.933,0.464 2.724,0.425 2.512,0.445 2.305,0.411 2.031,0.367 1.74,0.398 1.464,0.398 c -0.231,0 -0.462,0.004 -0.692,0 -0.046,0 -0.078,0 -0.118,-0.025 C 0.588,0.333 0.547,0.302 0.467,0.28 0.414,0.266 0.366,0.25 0.314,0.232 0.27,0.215 0.239,0.214 0.186,0.21 0.105,0.203 0.029,0.183 -0.054,0.184 -0.15,0.185 -0.244,0.202 -0.34,0.21 -0.388,0.214 -0.444,0.219 -0.492,0.214 -0.561,0.207 -0.624,0.169 -0.693,0.16 -0.835,0.141 -1.01,0.146 -1.15,0.162 -1.032,0.142 -0.914,0.091 -0.796,0.065 -0.533,0.007 -0.267,0.01 0,0"
             style="fill:#100f0d;fill-opacity:1;fill-rule:nonzero;stroke:none"
             id="path55029" />
        </g>
        <g
           id="g55031"
           transform="translate(194.902,533.071)">
          <path
             d="M 0,0 C -0.038,0.003 -0.067,0.041 -0.103,0.054 -0.238,0.102 -0.401,0.084 -0.542,0.095 -0.605,0.099 -0.67,0.114 -0.732,0.101 -0.773,0.092 -0.805,0.079 -0.847,0.078 -0.911,0.076 -0.973,0.086 -1.026,0.125 -1.051,0.143 -1.069,0.176 -1.098,0.185 -1.144,0.2 -1.217,0.186 -1.266,0.186 -1.351,0.187 -1.424,0.204 -1.491,0.16 -1.508,0.149 -1.521,0.13 -1.537,0.118 -1.591,0.077 -1.661,0.054 -1.725,0.031 -1.858,-0.017 -1.99,0.018 -2.12,-0.027 -2.178,-0.046 -2.242,-0.038 -2.297,-0.055 -2.33,-0.066 -2.354,-0.089 -2.383,-0.107 c -0.12,-0.075 -0.293,-0.082 -0.427,-0.108 0.061,0.006 0.13,0.008 0.191,0.003 0.129,-0.012 0.255,-0.08 0.39,-0.1 0.26,-0.037 0.515,-0.033 0.779,-0.033 0.125,0 0.25,-0.001 0.376,0.005 0.194,0.01 0.348,0.054 0.529,0.113 0.066,0.022 0.055,0.004 0.108,-0.01 0.076,-0.02 0.145,0.018 0.219,0.026 0.045,0.005 0.098,0.001 0.142,-0.007 0.091,-0.018 0.17,-0.021 0.263,-0.021 0.066,0 0.184,0.021 0.247,0.001 C 0.45,-0.243 0.451,-0.26 0.467,-0.263 0.526,-0.274 0.635,-0.268 0.66,-0.201 0.686,-0.133 0.465,-0.115 0.427,-0.111 0.295,-0.094 0.149,-0.13 0.022,-0.08 -0.01,-0.067 -0.036,-0.042 -0.065,-0.027 -0.125,0.006 -0.172,0 0,0"
             style="fill:#100f0d;fill-opacity:1;fill-rule:nonzero;stroke:none"
             id="path55033" />
        </g>
        <g
           id="g55035"
           transform="translate(197.995,532.208)">
          <path
             d="m 0,0 h -0.244 c -0.095,0 -0.173,-0.005 -0.265,-0.021 -0.019,-0.003 -0.039,-0.004 -0.059,-0.006 0.287,0 0.574,0 0.86,-0.001 -0.02,0.013 -0.041,0.025 -0.064,0.03 C 0.194,0.009 0.004,0 0,0"
             style="fill:#100f0d;fill-opacity:1;fill-rule:nonzero;stroke:none"
             id="path55037" />
        </g>
        <g
           id="g55039"
           transform="translate(197.504,532.285)">
          <path
             d="m 0,0 c -0.036,0.007 -0.08,0.003 -0.116,0.005 -0.124,0.008 -0.25,0.017 -0.373,0.03 -0.201,0.021 -0.391,0.021 -0.596,0.021 -0.153,0 -0.311,0.01 -0.464,0.001 C -1.605,0.053 -1.651,0.03 -1.704,0.016 -1.895,-0.035 -2.1,-0.02 -2.294,-0.031 -2.36,-0.034 -2.537,-0.016 -2.587,-0.07 c 0.047,-0.006 0.609,-0.017 0.575,-0.148 0.208,-0.025 0.426,-0.031 0.636,-0.02 0.045,0.003 0.083,0.007 0.128,0.017 0.051,0.012 0.102,0.031 0.154,0.039 0.042,0.006 0.095,-0.002 0.136,0.003 0.078,0.011 0.148,0.036 0.221,0.057 0.004,0.001 0.016,0.017 0.022,0.02 0.042,0.017 0.227,-0.002 0.252,-0.002 h 0.105 c 0.092,0 0.189,-0.007 0.281,0 H -0.098 C 0.037,-0.021 0.023,-0.004 0,0"
             style="fill:#100f0d;fill-opacity:1;fill-rule:nonzero;stroke:none"
             id="path55041" />
        </g>
        <g
           id="g55043"
           transform="translate(211.929,532.794)">
          <path
             d="m 0,0 c -0.064,0.004 -0.117,-0.059 -0.179,-0.078 -0.045,-0.013 -0.103,-0.033 -0.149,-0.035 -0.144,-0.006 -0.292,0.06 -0.439,0.059 -0.091,0 -0.176,-0.013 -0.266,-0.028 -0.085,-0.012 -0.171,-0.023 -0.257,-0.033 -0.039,-0.007 -0.074,-0.022 -0.105,-0.044 -0.044,-0.025 -0.091,-0.02 -0.142,0.014 -0.119,0.025 -0.238,0.044 -0.358,0.056 -0.051,0.01 -0.101,0.014 -0.152,0.012 -0.033,-0.024 -0.068,-0.041 -0.108,-0.053 -0.141,-0.051 -0.176,-0.033 -0.29,0.042 -0.025,0.017 -0.05,0.053 -0.075,0.061 -0.056,0.017 -0.155,0.001 -0.215,-0.002 -0.153,-0.005 -0.3,-0.094 -0.448,-0.129 -0.045,-0.01 -0.09,-0.013 -0.137,-0.01 -0.05,-0.009 -0.1,-0.017 -0.15,-0.025 -0.061,0.01 -0.082,0.075 -0.084,0.13 -0.111,0.021 -0.255,-0.018 -0.37,-0.021 -0.132,-0.003 -0.265,0.002 -0.397,0.002 -0.027,0 -0.101,0.008 -0.136,0.003 -0.084,-0.013 -0.198,-0.081 -0.271,-0.099 -0.181,-0.043 -0.36,-0.04 -0.544,-0.037 -0.101,0.002 -0.156,-0.048 -0.25,-0.075 C -5.664,-0.33 -5.821,-0.3 -5.959,-0.364 -6.03,-0.397 -6.088,-0.448 -6.156,-0.481 -6.227,-0.507 -6.3,-0.525 -6.375,-0.535 -6.46,-0.564 -6.548,-0.58 -6.636,-0.582 c -0.103,-0.006 -0.219,0.008 -0.32,0.029 -0.152,0.032 -0.194,0.122 -0.318,0.185 -0.098,0.051 -0.269,0.021 -0.372,0.023 -0.155,0.001 -0.286,-0.012 -0.431,-0.064 -0.07,-0.024 -0.133,-0.033 -0.208,-0.039 -0.374,-0.03 -0.758,-0.007 -1.133,-0.006 -0.089,0 -0.181,0.007 -0.27,-0.004 -0.076,-0.01 -0.149,-0.04 -0.227,-0.048 -0.277,-0.027 -0.566,-0.001 -0.845,-0.003 -0.212,-0.002 -0.354,0.015 -0.556,0.064 -0.129,0.031 -0.272,0.034 -0.402,0.01 -0.277,-0.053 -0.531,-0.178 -0.818,-0.18 -0.368,-0.001 -0.737,-0.001 -1.106,0 0.028,-0.018 0.055,-0.039 0.086,-0.052 0.097,-0.04 0.209,-0.025 0.311,-0.026 0.07,0 0.132,0.011 0.202,0.021 0.124,0.017 0.254,0.005 0.379,0.006 0.052,0 0.088,-0.001 0.137,-0.019 0.029,-0.01 0.057,-0.015 0.083,-0.034 0.014,-0.009 0.032,-0.039 0.049,-0.048 0.07,-0.037 0.174,-0.017 0.251,-0.032 0.037,-0.008 0.074,-0.022 0.112,-0.027 0.191,-0.026 0.398,-0.013 0.592,-0.026 0.079,-0.006 0.049,0.005 0.105,-0.04 0.003,-0.003 0.021,-0.031 0.03,-0.035 0.049,-0.023 0.123,0 0.17,0.011 0.283,0.062 0.566,0.192 0.86,0.197 0.254,0.005 0.515,0.016 0.768,-0.006 0.321,-0.029 0.642,-0.015 0.963,-0.026 0.136,-0.005 0.292,-0.004 0.426,-0.039 0.093,-0.024 0.184,-0.053 0.278,-0.074 0.175,-0.039 0.298,-0.078 0.434,-0.203 0.047,-0.043 0.066,-0.073 0.134,-0.085 0.088,-0.015 0.226,0.02 0.317,0.032 0.092,0.012 0.189,0.026 0.278,0.056 0.128,0.044 0.245,0.131 0.365,0.194 0.204,0.107 0.419,0.198 0.633,0.284 0.103,0.041 0.205,0.022 0.316,0.038 0.084,0.011 0.165,0.034 0.248,0.049 0.124,0.023 0.265,0.045 0.39,0.033 0.06,-0.006 0.123,-0.006 0.183,-0.014 0.12,-0.017 0.236,-0.067 0.354,-0.095 0.163,-0.04 0.329,-0.04 0.493,-0.071 0.148,-0.027 0.278,-0.049 0.429,-0.049 0.246,0.001 0.55,0.023 0.79,0.092 0.094,0.027 0.185,0.074 0.279,0.098 0.099,0.024 0.199,0.026 0.297,0.064 0.066,0.026 0.116,0.058 0.183,0.075 0.146,0.036 0.317,0.05 0.467,0.067 0.147,0.016 0.294,0.011 0.44,0.044 0.052,0.012 0.096,0.029 0.147,0.039 0.113,0.023 0.238,-0.009 0.354,0.007 0.045,0.006 0.088,0.02 0.133,0.022 0.09,0.005 0.133,-0.007 0.215,0.048 0.029,0.021 0.1,0.062 0.093,0.105 C 0.091,-0.026 0.04,-0.002 0,0"
             style="fill:#100f0d;fill-opacity:1;fill-rule:nonzero;stroke:none"
             id="path55045" />
        </g>
        <g
           id="g55047"
           transform="translate(196.835,531.153)">
          <path
             d="m 0,0 c -0.058,-0.015 -0.12,-0.04 -0.18,-0.048 -0.112,-0.015 -0.231,0.013 -0.345,0.004 -0.056,-0.004 -0.087,-0.028 -0.136,-0.055 -0.052,-0.029 -0.098,-0.045 -0.155,-0.061 -0.176,-0.049 -0.366,-0.033 -0.538,-0.089 -0.084,-0.027 -0.198,-0.063 -0.262,-0.127 -0.062,-0.062 -0.13,-0.168 -0.09,-0.253 0.017,-0.035 0.072,-0.132 0.114,-0.132 0.006,0.035 0.023,0.064 0.029,0.093 0.006,0.032 -0.007,0.064 0.014,0.092 0.024,0.032 0.062,0.025 0.099,0.031 0.079,0.012 0.129,0.028 0.192,0.078 0.13,0.103 0.287,0.168 0.458,0.157 0.067,-0.004 0.143,-0.022 0.207,-0.041 0.025,-0.009 0.051,-0.019 0.076,-0.029 0.005,-0.009 0.01,-0.018 0.015,-0.028 0.102,-0.045 0.255,-0.006 0.365,-0.008 0.198,-0.004 0.388,-0.04 0.575,-0.103 0.282,-0.097 0.542,-0.115 0.836,-0.113 0.25,0.001 0.5,0.03 0.749,0.029 0.021,0 0.043,0 0.064,0 0.058,-0.025 0.114,-0.062 0.166,-0.085 0.102,-0.042 0.22,-0.022 0.323,-0.057 0.099,-0.033 0.144,-0.146 0.26,-0.156 0.116,-0.01 0.243,0.002 0.36,0.002 0.275,0 0.558,0.02 0.819,0.112 0.059,0.021 0.112,0.065 0.165,0.094 0.037,0.02 0.135,0.046 0.149,0.094 0.011,0.001 0.022,0 0.033,0.001 0.164,0.007 0.333,0.03 0.497,0.023 0.082,-0.003 0.16,-0.023 0.24,-0.03 0.152,-0.013 0.31,0.031 0.452,0.082 0.194,0.07 0.395,0.149 0.582,0.235 C 6.051,-0.274 5.945,-0.274 5.863,-0.291 5.735,-0.318 5.607,-0.31 5.473,-0.323 5.23,-0.345 4.995,-0.417 4.754,-0.441 4.608,-0.456 4.461,-0.438 4.314,-0.449 4.116,-0.464 3.923,-0.522 3.724,-0.526 c -0.08,-0.002 -0.16,-0.001 -0.24,-0.001 -0.027,0 -0.054,0 -0.082,0 -0.001,0 -0.001,0 -0.002,0 -0.095,0 -0.189,-0.002 -0.283,-0.001 -0.165,0.001 -0.325,0.045 -0.476,0.111 -0.048,0.015 -0.09,0.039 -0.127,0.073 -0.017,0.017 -0.024,0.037 -0.02,0.06 -0.063,0.043 -0.135,0.06 -0.217,0.049 C 2.16,-0.221 2.044,-0.223 1.928,-0.242 1.829,-0.262 1.729,-0.297 1.632,-0.326 1.552,-0.351 1.425,-0.405 1.351,-0.349 1.316,-0.321 1.292,-0.272 1.255,-0.244 1.204,-0.232 1.158,-0.208 1.117,-0.171 1.056,-0.125 0.998,-0.075 0.944,-0.022 0.919,0.018 0.882,0.029 0.834,0.012 0.74,0.007 0.647,0.004 0.554,0.005 0.389,0.013 0.227,0.022 0.063,0.027 c 0,0 -0.001,0 -0.001,0 C 0.05,0.024 0.017,0.004 0,0"
             style="fill:#100f0d;fill-opacity:1;fill-rule:nonzero;stroke:none"
             id="path55049" />
        </g>
        <g
           id="g55051"
           transform="translate(196.681,531.186)">
          <path
             d="M 0,0 C 0.073,0 0.145,-0.004 0.217,-0.006 0.229,-0.003 0.242,-0.001 0.256,0 Z"
             style="fill:#100f0d;fill-opacity:1;fill-rule:nonzero;stroke:none"
             id="path55053" />
        </g>
        <g
           id="g55055"
           transform="translate(196.937,531.186)">
          <path
             d="M 0,0 H 0.169 C 0.124,0 0.056,0.005 0,0"
             style="fill:#100f0d;fill-opacity:1;fill-rule:nonzero;stroke:none"
             id="path55057" />
        </g>
        <g
           id="g55059"
           transform="translate(208.211,531.107)">
          <path
             d="M 0,0 C -0.065,-0.001 -0.113,0 -0.178,0.011 -0.363,0.045 -0.539,0.047 -0.725,0.051 -0.819,0.053 -0.918,0.084 -1.01,0.104 -1.088,0.113 -1.159,0.139 -1.223,0.182 -1.24,0.208 -1.264,0.219 -1.294,0.216 -1.358,0.209 -1.421,0.201 -1.484,0.193 -1.517,0.19 -1.549,0.188 -1.581,0.185 -1.597,0.194 -1.612,0.201 -1.627,0.21 -1.736,0.277 -1.915,0.269 -2.046,0.263 -2.104,0.261 -2.121,0.242 -2.167,0.211 -2.265,0.146 -2.359,0.096 -2.434,0.001 -2.439,-0.005 -2.443,-0.01 -2.448,-0.015 c -0.088,-0.021 -0.177,-0.042 -0.264,-0.066 -0.166,-0.045 -0.282,-0.147 -0.434,-0.218 -0.082,-0.038 -0.14,-0.021 -0.232,-0.019 -0.136,-0.001 -0.271,-0.001 -0.406,0 -0.057,0.005 -0.113,0.005 -0.169,-0.001 -0.077,-0.038 -0.156,-0.071 -0.238,-0.099 -0.063,-0.013 -0.122,-0.037 -0.176,-0.071 -0.106,-0.069 -0.229,-0.179 -0.31,-0.276 -0.021,-0.025 -0.046,-0.054 -0.056,-0.085 -0.157,-0.122 -0.005,-0.07 0.122,-0.039 0.098,0.024 0.155,0.04 0.239,0.079 0.111,0.053 0.258,0.119 0.377,0.115 0.104,-0.002 0.208,-0.048 0.315,-0.051 0.189,-0.005 0.378,0.019 0.563,0.051 0.109,0.019 0.177,0.077 0.269,0.138 0.1,0.066 0.205,0.125 0.312,0.179 0.202,0.103 0.425,0.204 0.656,0.156 0.169,-0.036 0.313,-0.123 0.485,-0.124 0.295,-0.001 0.591,0.064 0.883,0.101 0.239,0.029 0.48,0.024 0.716,0.073 0.181,0.048 0.361,0.102 0.539,0.16 0.008,0.006 0.015,0.007 0.023,0.01 C 0.511,-0.011 0.255,0.003 0,0"
             style="fill:#100f0d;fill-opacity:1;fill-rule:nonzero;stroke:none"
             id="path55061" />
        </g>
        <g
           id="g55063"
           transform="translate(208.978,531.105)">
          <path
             d="M 0,0 C 0.028,0.001 0.055,0.001 0.083,0.003 0.058,0.019 0.03,0.015 0,0"
             style="fill:#100f0d;fill-opacity:1;fill-rule:nonzero;stroke:none"
             id="path55065" />
        </g>
        <g
           id="g55067"
           transform="translate(206.431,529.209)">
          <path
             d="m 0,0 c -0.054,0.046 -0.12,0.053 -0.2,0.022 -0.115,0.001 -0.228,0.011 -0.341,0.027 0.02,0.041 0.029,0.087 0.054,0.129 -0.07,0.016 -0.159,0.003 -0.23,0.003 H -1.78 C -1.747,0.143 -1.726,0.111 -1.688,0.082 -1.989,0.07 -2.287,0.049 -2.59,-0.009 c -0.288,-0.087 -0.582,-0.15 -0.88,-0.19 -0.233,-0.049 -0.469,-0.067 -0.708,-0.055 -0.273,0.006 -0.505,0.041 -0.746,0.169 -0.102,0.054 -0.139,0.101 -0.249,0.081 -0.202,-0.039 -0.401,-0.102 -0.603,-0.143 -0.499,-0.103 -1.016,-0.069 -1.522,-0.071 -0.157,0.002 -0.314,-0.001 -0.471,-0.006 -0.153,0.023 -0.298,0.071 -0.435,0.145 -0.116,0.048 -0.195,0.084 -0.32,0.077 -0.21,-0.01 -0.421,0.004 -0.632,-0.006 -0.219,-0.01 -0.453,-0.046 -0.671,-0.023 -0.131,-0.007 -0.239,0.035 -0.324,0.128 -0.02,0.029 -0.04,0.058 -0.06,0.087 -0.05,0.074 -0.125,0.093 -0.225,0.058 -0.293,0.003 -0.585,0.002 -0.878,-0.005 -0.347,0.003 -0.693,-0.018 -1.038,-0.062 -0.27,-0.044 -0.541,-0.083 -0.812,-0.117 -0.176,-0.023 -0.347,-0.044 -0.525,-0.034 -0.023,-0.123 0.05,-0.09 0.13,-0.079 0.16,0.022 0.312,-0.04 0.465,-0.069 0.166,-0.03 0.341,-0.007 0.509,-0.009 0.291,-0.004 0.573,-0.114 0.864,-0.112 0.186,0 0.368,0.026 0.552,0.045 0.153,0.016 0.303,0.012 0.456,0.011 0.151,0 0.347,0.027 0.499,0.001 0.16,-0.027 0.311,-0.101 0.462,-0.158 0.176,-0.067 0.366,-0.158 0.554,-0.082 0.068,0.027 0.06,0.044 0.134,0.066 0.095,0.027 0.189,0.062 0.285,0.081 0.196,0.037 0.411,0.011 0.609,-0.003 0.358,-0.025 0.716,-0.069 1.068,-0.137 0.286,-0.056 0.572,-0.09 0.86,-0.137 0.342,-0.056 0.653,-0.143 0.966,-0.291 0.198,-0.094 0.385,-0.212 0.609,-0.231 0.16,-0.013 0.278,0.023 0.427,0.074 0.228,0.077 0.463,0.147 0.677,0.259 0.131,0.07 0.26,0.142 0.393,0.208 0.093,0.064 0.194,0.107 0.303,0.129 0.134,0.043 0.272,0.069 0.413,0.078 0.142,0.027 0.299,0.097 0.444,0.114 0.511,0.061 1.028,-0.077 1.539,-0.022 0.14,0.03 0.28,0.057 0.421,0.081 l 0.096,0.019 c 0.039,0.012 0.079,0.032 0.113,0.053 C 0.13,-0.078 -0.087,-0.101 0,0"
             style="fill:#100f0d;fill-opacity:1;fill-rule:nonzero;stroke:none"
             id="path55069" />
        </g>
        <g
           id="g55071"
           transform="translate(208.458,529.894)">
          <path
             d="m 0,0 c -0.062,-0.006 -0.127,-0.009 -0.189,-0.004 -0.093,0.008 -0.175,0.045 -0.269,0.022 -0.164,-0.04 -0.351,-0.026 -0.519,-0.093 -0.077,-0.03 -0.16,-0.052 -0.235,-0.087 -0.029,-0.013 -0.073,-0.056 -0.105,-0.05 -0.001,0.008 -0.003,0.016 -0.004,0.024 -0.015,-0.023 -0.036,-0.034 0.032,-0.101 0.023,-0.022 0.076,-0.045 0.106,-0.053 0.121,-0.032 0.302,-0.011 0.422,0.01 0.176,0.031 0.349,0.093 0.521,0.143 0.068,0.02 0.503,0.086 0.459,0.209 C 0.151,0.043 0.069,0.007 0,0"
             style="fill:#100f0d;fill-opacity:1;fill-rule:nonzero;stroke:none"
             id="path55073" />
        </g>
        <g
           id="g55075"
           transform="translate(194.06,531.055)">
          <path
             d="M 0,0 C 0.039,0.015 0.138,0.045 0.331,0.253 0.112,0.289 -0.116,0.308 -0.343,0.309 -0.482,0.311 -0.574,0.299 -0.698,0.247 -0.785,0.211 -0.875,0.174 -0.97,0.171 -1.119,0.166 -1.261,0.181 -1.405,0.215 -1.524,0.242 -1.652,0.227 -1.774,0.227 -1.88,0.226 -1.979,0.247 -2.083,0.254 -2.139,0.257 -2.197,0.253 -2.253,0.253 -2.298,0.252 -2.324,0.267 -2.364,0.275 -2.494,0.303 -2.647,0.251 -2.78,0.253 -2.841,0.254 -2.892,0.243 -2.952,0.228 -3.04,0.205 -3.127,0.187 -3.217,0.176 -3.259,0.171 -3.326,0.181 -3.352,0.14 -3.33,0.115 -3.283,0.117 -3.252,0.115 -2.988,0.092 -2.7,0.132 -2.443,0.067 -2.331,0.039 -2.229,0.04 -2.113,0.041 -1.862,0.042 -1.616,0.025 -1.365,0.017 -1,0.007 -0.636,-0.032 -0.271,-0.04 -0.178,-0.042 -0.088,-0.033 0,0"
             style="fill:#100f0d;fill-opacity:1;fill-rule:nonzero;stroke:none"
             id="path55077" />
        </g>
        <g
           id="g55079"
           transform="translate(200.222,526.688)">
          <path
             d="m 0,0 c 0.153,-0.018 0.292,-0.025 0.446,-0.025 0.075,0 0.144,0.005 0.216,-0.007 0.153,-0.026 0.304,-0.054 0.459,-0.066 0.094,-0.007 0.148,-0.014 0.219,0.044 0.029,0.023 0.045,0.052 0.077,0.073 C 1.484,0.062 1.57,0.071 1.646,0.08 1.77,0.094 1.911,0.08 2.031,0.111 2.183,0.15 2.326,0.231 2.47,0.291 2.73,0.4 2.993,0.496 3.272,0.54 3.071,0.577 2.859,0.585 2.655,0.606 2.496,0.622 2.323,0.646 2.163,0.636 2.022,0.626 1.891,0.585 1.756,0.548 1.509,0.495 1.26,0.454 1.009,0.427 0.901,0.403 0.793,0.395 0.685,0.401 0.672,0.421 0.669,0.452 0.671,0.475 0.634,0.489 0.564,0.478 0.53,0.477 0.336,0.473 0.155,0.499 -0.035,0.532 -0.346,0.586 -0.656,0.595 -0.964,0.666 -1.166,0.713 -1.361,0.722 -1.567,0.723 -1.713,0.724 -1.858,0.734 -2,0.696 -2.202,0.641 -2.393,0.542 -2.602,0.51 -2.618,0.508 -2.688,0.491 -2.699,0.506 -2.685,0.649 -2.798,0.587 -2.917,0.533 -2.985,0.502 -3.072,0.483 -3.144,0.467 -3.246,0.444 -3.355,0.402 -3.459,0.397 -3.52,0.394 -3.7,0.435 -3.742,0.374 c 0.008,-0.031 0.078,-0.069 0.104,-0.091 0.026,-0.022 0.052,-0.048 0.079,-0.069 0.053,-0.04 0.124,-0.043 0.189,-0.05 0.14,-0.015 0.294,-0.011 0.435,0.002 0.077,0.008 0.15,0.022 0.227,0.021 0.132,-0.002 0.266,0.006 0.397,0.001 0.134,-0.005 0.265,-0.029 0.4,-0.028 0.197,0 0.376,-0.067 0.571,-0.094 C -1.151,0.039 -0.958,0.057 -0.768,0.055 -0.513,0.053 -0.253,0.03 0,0"
             style="fill:#100f0d;fill-opacity:1;fill-rule:nonzero;stroke:none"
             id="path55081" />
        </g>
        <g
           id="g55083"
           transform="translate(195.856,536.054)">
          <path
             d="m 0,0 c -0.131,0 -0.261,0.014 -0.392,0.021 -0.011,10e-4 -0.028,0.002 -0.042,0.003 0.009,0.005 0.018,0.01 0.027,0.013 0.053,0.018 0.234,0.01 0.244,0.011 0.075,0.005 0.151,0.017 0.226,0.021 C 0.125,0.073 0.196,0.075 0.257,0.068 0.335,0.058 0.408,0.026 0.483,0.005 0.325,0.018 0.154,0 0,0 M 7.998,-1.045 C 7.95,-1.014 7.901,-0.982 7.852,-0.951 7.809,-0.893 7.756,-0.84 7.695,-0.808 7.636,-0.776 7.603,-0.746 7.542,-0.721 7.454,-0.686 7.364,-0.662 7.274,-0.628 7.213,-0.605 7.169,-0.595 7.105,-0.596 7.091,-0.596 7.079,-0.597 7.068,-0.597 7.015,-0.56 6.962,-0.521 6.906,-0.491 6.889,-0.472 6.874,-0.453 6.856,-0.437 6.775,-0.368 6.659,-0.314 6.568,-0.257 6.513,-0.222 6.448,-0.196 6.38,-0.173 6.364,-0.157 6.347,-0.143 6.324,-0.132 6.263,-0.104 6.195,-0.11 6.131,-0.1 6.123,-0.099 6.116,-0.098 6.109,-0.097 6.091,-0.093 6.073,-0.089 6.056,-0.085 5.94,-0.056 5.819,0.007 5.703,0.018 5.647,0.024 5.587,0.015 5.531,0.015 5.502,0.015 5.444,0.026 5.417,0.016 5.392,0.007 5.367,-0.01 5.341,-0.028 5.232,-0.06 5.124,-0.107 5.029,-0.139 4.72,-0.244 4.375,-0.154 4.058,-0.218 3.907,-0.248 3.758,-0.26 3.607,-0.264 c -0.01,0.014 -0.02,0.028 -0.033,0.04 -0.139,0.132 -0.312,0.164 -0.49,0.187 -0.1,0.013 -0.223,0.009 -0.323,0 C 2.67,-0.045 2.577,-0.089 2.491,-0.124 2.405,-0.159 2.333,-0.213 2.258,-0.267 2.142,-0.351 1.95,-0.355 1.813,-0.364 1.716,-0.37 1.619,-0.376 1.523,-0.38 1.356,-0.326 1.194,-0.25 1.029,-0.179 0.964,-0.15 0.903,-0.132 0.836,-0.108 0.752,-0.077 0.672,-0.024 0.585,-0.006 0.56,0.05 0.535,0.069 0.473,0.101 0.399,0.137 0.317,0.152 0.245,0.19 0.187,0.219 0.173,0.229 0.105,0.228 -0.004,0.226 -0.112,0.226 -0.22,0.227 -0.242,0.228 -0.271,0.234 -0.291,0.229 -0.341,0.217 -0.405,0.159 -0.451,0.127 -0.491,0.098 -0.534,0.058 -0.578,0.033 c -0.048,0.001 -0.095,0 -0.131,-0.007 -0.005,-10e-4 -0.01,-0.003 -0.016,-0.003 -0.072,-0.02 -0.142,-0.061 -0.212,-0.09 -0.076,-0.031 -0.156,-0.048 -0.234,-0.073 -0.147,-0.046 -0.334,-0.133 -0.444,-0.24 -0.039,-0.039 -0.068,-0.085 0.077,-0.071 0.108,0.07 0.249,0.113 0.37,0.175 0.279,0.142 0.58,0.211 0.896,0.2 0.11,-0.005 0.198,-0.013 0.294,-0.063 0.174,-0.092 0.42,-0.189 0.618,-0.207 0.144,-0.013 0.29,0.024 0.43,-0.038 0.063,-0.028 0.105,-0.063 0.15,-0.115 0.028,-0.031 0.056,-0.081 0.095,-0.101 0.109,-0.056 0.279,0.015 0.394,-0.008 0.163,-0.033 0.317,-0.131 0.479,-0.178 0.102,-0.029 0.186,-0.041 0.291,-0.038 0.164,0.006 0.324,0.004 0.487,0.024 0.18,0.022 0.336,0.074 0.509,0.118 0.198,0.049 0.386,0.102 0.576,0.177 0.117,0.046 0.217,0.091 0.349,0.103 0.028,0.003 0.055,0.003 0.083,0.004 0.039,0.001 0.078,0.002 0.117,0.004 0.158,-0.001 0.316,-0.012 0.473,-0.006 0.116,0.005 0.23,0.022 0.345,0.043 0.043,-0.059 0.058,-0.087 0.125,-0.125 0.059,-0.035 0.09,-0.06 0.158,-0.075 0.072,-0.017 0.151,-0.026 0.225,-0.028 0.159,-0.005 0.316,-0.006 0.467,-0.072 0.141,-0.062 0.264,-0.152 0.4,-0.226 0.187,-0.102 0.409,-0.122 0.608,-0.178 0.137,-0.039 0.304,-0.057 0.446,-0.056 0.062,10e-4 0.071,0 0.126,-0.024 0.043,-0.019 0.206,-0.092 0.235,-0.036 -0.031,0.037 -0.099,0.064 -0.161,0.083 0.011,-10e-4 0.021,-0.002 0.032,-0.003 -0.038,0.024 -0.071,0.045 -0.081,0.052"
             style="fill:#100f0d;fill-opacity:1;fill-rule:nonzero;stroke:none"
             id="path55085" />
        </g>
        <g
           id="g55087"
           transform="translate(208.914,535.173)">
          <path
             d="M 0,0 C -0.048,0.035 -0.264,0.006 -0.323,0.007 -0.48,0.009 -0.634,-0.021 -0.792,-0.02 -0.92,-0.02 -1.06,-0.038 -1.186,-0.025 -1.369,-0.007 -1.557,0.057 -1.74,0.106 -1.757,0.115 -1.774,0.124 -1.791,0.132 -1.87,0.174 -1.93,0.218 -2.015,0.221 -2.062,0.222 -2.086,0.213 -2.134,0.229 c -0.061,0.02 -0.1,0.054 -0.161,0.068 -0.086,0.021 -0.164,0.109 -0.247,0.108 -0.059,0 -0.149,-0.067 -0.186,-0.112 C -2.755,0.26 -2.766,0.228 -2.781,0.192 -2.797,0.153 -2.816,0.123 -2.834,0.087 -2.838,0.079 -2.841,0.07 -2.844,0.06 -3.049,0.019 -3.264,0.033 -3.475,0.032 c -0.159,0 -0.451,-0.03 -0.581,0.107 -0.08,0.105 -0.179,0.147 -0.296,0.184 C -4.446,0.352 -4.528,0.4 -4.623,0.431 -4.702,0.425 -4.783,0.443 -4.857,0.498 -4.864,0.503 -4.872,0.508 -4.88,0.513 -4.898,0.521 -4.916,0.528 -4.935,0.538 -4.98,0.561 -5.043,0.582 -5.081,0.617 -5.103,0.638 -5.1,0.67 -5.139,0.668 -5.162,0.612 -5.136,0.548 -5.096,0.511 -5.066,0.483 -5.005,0.464 -4.969,0.438 -4.937,0.413 -4.905,0.387 -4.875,0.36 -4.78,0.28 -4.664,0.23 -4.567,0.152 c 0.086,-0.069 0.191,-0.118 0.288,-0.17 0.118,-0.064 0.262,-0.131 0.391,-0.159 0.067,-0.015 0.105,-0.024 0.174,-0.063 0.06,-0.035 0.126,-0.096 0.191,-0.119 0.05,-0.017 0.086,-0.009 0.143,-0.006 0.242,0.017 0.47,0.076 0.715,0.08 0.164,0.003 0.333,-0.019 0.496,0.005 0.137,0.02 0.255,0.027 0.394,0.005 0.265,-0.042 0.521,-0.065 0.792,-0.065 0.127,-0.001 0.327,-0.039 0.446,0.016 0.153,0.071 0.267,0.241 0.427,0.293 C -0.072,-0.018 -0.029,-0.029 0,0"
             style="fill:#100f0d;fill-opacity:1;fill-rule:nonzero;stroke:none"
             id="path55089" />
        </g>
        <g
           id="g55091"
           transform="translate(204.092,526.126)">
          <path
             d="m 0,0 c -0.096,-0.051 -0.203,-0.075 -0.309,-0.093 -0.136,-0.024 -0.271,-0.055 -0.405,-0.088 -0.04,-0.01 -0.083,-0.018 -0.12,-0.037 -0.046,-0.022 -0.063,-0.055 -0.096,-0.09 -0.065,-0.068 -0.151,-0.119 -0.235,-0.158 -0.192,-0.089 -0.346,-0.079 -0.554,-0.079 -0.164,0 -0.325,-0.006 -0.488,0.013 -0.111,0.013 -0.233,0.034 -0.341,-0.001 -0.179,-0.058 -0.371,-0.09 -0.557,-0.118 -0.131,-0.021 -0.262,-0.06 -0.395,-0.054 -0.082,0.004 -0.068,0.048 -0.132,0.089 -0.038,0.025 -0.084,0.02 -0.132,0.018 -0.107,-0.004 -0.21,-0.022 -0.303,-0.074 l 0.084,-0.006 c 0.16,0.005 0.306,-0.021 0.461,-0.054 0.107,-0.023 0.215,-0.015 0.322,-0.025 0.081,-0.008 0.159,-0.029 0.241,-0.037 0.096,-0.01 0.198,0 0.289,-0.035 0.084,-0.032 0.111,-0.057 0.196,-0.065 0.189,-0.015 0.343,0.018 0.518,0.078 0.127,0.043 0.253,0.103 0.388,0.118 0.114,0.012 0.241,-0.008 0.357,-0.001 0.138,0.009 0.277,0.014 0.415,0.024 0.196,0.015 0.358,0.065 0.543,0.125 0.051,0.016 0.084,0.026 0.124,0.06 0.041,0.059 0.085,0.116 0.131,0.171 0.052,0.063 0.103,0.126 0.153,0.19 0.038,0.065 0.115,0.246 0.08,0.321 C 0.15,0.135 0.094,0.049 0,0"
             style="fill:#100f0d;fill-opacity:1;fill-rule:nonzero;stroke:none"
             id="path55093" />
        </g>
        <g
           id="g55095"
           transform="translate(199.804,525.37)">
          <path
             d="M 0,0 C 0.086,-0.019 0.131,0.031 0.203,0.075 0.209,0.078 0.215,0.08 0.22,0.084 l -0.565,0.04 C -0.228,0.1 -0.115,0.025 0,0"
             style="fill:#100f0d;fill-opacity:1;fill-rule:nonzero;stroke:none"
             id="path55097" />
        </g>
        <g
           id="g55099"
           transform="translate(199.365,525.501)">
          <path
             d="M 0,0 0.095,-0.007 C 0.063,0 0.032,0.003 0,0"
             style="fill:#100f0d;fill-opacity:1;fill-rule:nonzero;stroke:none"
             id="path55101" />
        </g>
      </g>
    </g>
  </g>
</svg>
