<svg width="27" height="24" viewBox="0 0 27 24" fill="#000000" xmlns="http://www.w3.org/2000/svg">
  <path d="M1.47153 11.7879C1.69493 11.8697 1.87072 11.8611 2.09046 11.8623C2.10022 11.8599 2.13196 11.8465 2.14539 11.7989C2.16126 11.7464 2.14539 11.6597 2.14417 11.6035C2.14173 11.501 2.18201 11.4631 2.25038 11.3838C2.31264 11.3118 2.31874 11.2349 2.37367 11.1592C2.44082 11.0664 2.569 10.9431 2.68619 10.9211C2.76554 10.9065 2.84977 10.8943 2.93401 10.8833C2.94866 10.8955 2.96209 10.9077 2.97673 10.9187C3.03533 10.9748 3.10003 11.0237 3.16962 11.0652C3.28437 11.0603 3.39912 11.0603 3.51387 11.064C3.67013 11.0994 3.8154 11.0762 3.94969 10.9932C4.09862 10.8808 4.24511 10.7649 4.38916 10.6477C4.70412 10.3913 4.94584 10.0702 5.21563 9.77238C5.23516 9.76994 5.25347 9.7675 5.273 9.76506C5.28033 9.76872 5.28887 9.76994 5.2962 9.77238C5.38653 9.80778 5.48053 9.82732 5.57575 9.84074C5.61726 9.79802 5.66365 9.75773 5.71736 9.72965C5.72591 9.72111 5.73689 9.71378 5.74666 9.70524C5.78328 9.67106 5.81991 9.63688 5.86019 9.60758C6.11289 9.34389 6.35216 9.11194 6.78065 9.08509C7.24088 9.05579 7.47649 9.31337 7.7768 9.56119C7.86958 9.61124 7.95503 9.67716 8.0356 9.75651C8.04293 9.76384 8.05147 9.76994 8.0588 9.77726C8.1296 9.85295 8.16989 9.93963 8.18698 10.0287C8.34202 10.0263 8.49461 10.0214 8.64599 10.0178C8.77051 9.96526 8.91822 9.96404 9.0696 10.0446C9.14162 10.0629 9.20998 10.0873 9.27957 10.1154C9.56523 10.163 9.89484 10.0348 10.1646 9.98479C10.5553 9.91033 10.952 9.87493 11.3268 10.0312C11.4269 10.0727 11.5026 10.1362 11.5575 10.2094C11.5734 10.2094 11.588 10.2106 11.6027 10.2106C11.9079 10.207 12.1996 10.1337 12.4963 10.0764C12.7319 10.0312 12.9809 10.0239 13.2129 10.0837C13.3191 10.1118 13.4192 10.1618 13.5242 10.1899C13.6878 10.2338 13.9038 10.2143 14.0638 10.2119C14.2139 10.2082 14.4068 10.2351 14.5533 10.1935C14.6448 10.1667 14.7242 10.058 14.8035 10.0055C14.9037 9.93841 15.0013 9.88225 15.1209 9.86516C15.1832 9.79558 15.2528 9.74308 15.326 9.70158C15.359 9.68204 15.3932 9.66617 15.4286 9.65275C15.442 9.64786 15.4542 9.64176 15.4664 9.63688C15.5153 9.61978 15.5665 9.60758 15.6178 9.59903C15.6642 9.58316 15.7118 9.57217 15.7594 9.56241C15.807 9.55264 15.8546 9.54654 15.9035 9.54288C16.0243 9.53555 16.1464 9.54776 16.2709 9.58927C16.3442 9.61368 16.4125 9.64786 16.4797 9.68571C16.8044 9.74186 17.1096 9.91033 17.3257 10.174C17.4538 10.2717 17.571 10.3901 17.6699 10.5329C17.6846 10.5537 17.6956 10.5744 17.7053 10.5964C17.7065 10.5964 17.7078 10.5964 17.709 10.5952C17.7493 10.5818 17.781 10.5317 17.8298 10.5134C17.9141 10.4841 18.0056 10.4975 18.0911 10.5048C18.4085 10.5354 18.7161 10.6318 19.0262 10.583C19.0689 10.5012 19.1409 10.4279 19.252 10.3767C19.9772 10.0336 20.8781 10.246 21.4775 10.7502C21.5556 10.8149 21.602 10.8882 21.6277 10.9614C21.6545 10.9639 21.6826 10.9639 21.7107 10.9687C21.7888 10.9797 21.9133 11.0005 21.9975 11.0347C22.2197 11.125 22.4187 11.2983 22.6629 11.3411C22.7935 11.3643 22.9241 11.3337 23.056 11.3398C23.1866 11.346 23.2757 11.3691 23.3978 11.4314C23.482 11.4754 23.5345 11.5108 23.5943 11.5779C23.6114 11.5987 23.6419 11.6536 23.6663 11.6719C23.7506 11.7354 23.7664 11.6585 23.836 11.6707C23.9129 11.6853 23.9056 11.8013 23.9203 11.8575C23.9447 11.949 24.0106 12.0613 24.1095 12.0906C24.1876 12.115 24.2963 12.0894 24.3768 12.0894C24.4281 12.0894 24.5013 12.1028 24.5502 12.0845C24.5978 12.065 24.5941 12.0235 24.6466 12.0284C24.6906 12.0308 24.6869 12.0784 24.7211 12.0894C24.7589 12.1016 24.8224 12.0686 24.8541 12.0577C24.9237 12.0357 24.997 12.0271 25.0629 12.0003C25.0983 11.9856 25.1252 11.9661 25.1545 11.9454C25.2192 11.899 25.2509 11.8758 25.3278 11.8416C25.4316 11.7952 25.5195 11.7268 25.633 11.7036C25.6879 11.6927 25.7429 11.6853 25.7978 11.6756C25.8881 11.6597 25.9809 11.6585 26.0713 11.6438C26.2348 11.617 26.3874 11.6267 26.5449 11.5742C26.5803 11.4583 26.5486 11.23 26.5437 11.1348C26.5339 10.9516 26.5254 10.7685 26.5193 10.5842C26.5144 10.4536 26.5278 10.4572 26.4741 10.3815C26.4326 10.3254 26.3813 10.2705 26.3374 10.2167C26.2483 10.1057 26.258 10.0104 26.2593 9.87493C26.2605 9.7382 26.2458 9.62711 26.2129 9.49038C26.1091 9.07532 25.9003 8.72374 25.6867 8.35873C25.5732 8.16585 25.3498 7.95465 25.2008 7.80572C25.058 7.66411 24.9164 7.53959 24.7492 7.42606C24.3744 7.17214 23.9117 7.1111 23.4661 7.0757C23.3624 7.06716 23.2818 7.07326 23.189 7.09767C23.1841 7.0989 23.1622 7.1343 23.1536 7.1404C23.139 6.96949 23.1426 6.80591 23.1145 6.63744C23.0999 6.55077 23.0791 6.47752 23.0523 6.39329C23.0132 6.26999 22.9961 6.15768 22.9229 6.04537C22.8509 5.93672 22.7764 5.82563 22.6934 5.72553C22.5884 5.59979 22.4456 5.51922 22.3137 5.424C22.2295 5.36296 22.1343 5.28971 22.072 5.20426C22.0342 5.15177 22.0183 5.12491 21.9573 5.09073C21.7229 4.96011 21.4372 4.87099 21.1723 4.82826C20.9245 4.7892 20.6742 4.70497 20.424 4.6952C20.3568 4.69276 20.3178 4.71229 20.2628 4.66956C20.1054 4.54749 20.0785 4.33874 19.954 4.19224C19.6903 3.88461 19.506 3.52204 19.2179 3.23028C18.9969 3.0081 18.7051 2.77615 18.3877 2.74075C18.1912 2.71877 17.9592 2.6614 17.7615 2.68948C17.626 2.70779 17.4953 2.78714 17.3879 2.86893C17.3318 2.9141 17.2854 2.97269 17.2219 3.01054C17.2048 2.96171 17.2011 2.91166 17.2085 2.85794C17.1938 2.72244 17.1853 2.58693 17.1828 2.4502C17.184 2.35132 17.1694 2.28418 17.1364 2.18896C17.0766 2.01195 16.979 1.87278 16.8972 1.70676C16.7543 1.41743 16.4858 1.2038 16.2172 1.03167C16.0329 0.913256 15.8534 0.787517 15.6727 0.662998C15.547 0.533597 15.4261 0.410299 15.2442 0.36391C15.0929 0.326066 14.9598 0.266248 14.8158 0.31752C14.7657 0.335832 14.712 0.350481 14.6571 0.36513C14.6253 0.360247 14.5936 0.370014 14.5582 0.36391C14.5154 0.355364 14.463 0.3163 14.4288 0.289443C14.3445 0.225963 14.2945 0.156378 14.1871 0.135625C14.1492 0.128301 14.1236 0.131963 14.0906 0.114872C14.065 0.101444 14.0503 0.0806914 14.0223 0.0709252C13.9991 0.0623798 13.9698 0.0697038 13.9429 0.0636C13.8745 0.0501715 13.8098 0.0196527 13.739 0.00988651C13.6231 -0.00476272 13.49 -0.00110024 13.3728 0.00744515C13.2715 0.0147698 13.147 0.0184319 13.0481 0.0416266C12.9944 0.055055 12.9516 0.088015 12.9004 0.108768C12.81 0.145391 12.7221 0.155157 12.6355 0.203988C12.4304 0.321182 12.2131 0.495753 12.0861 0.694738C12.03 0.781413 12.0092 0.837568 12.0007 0.913256C11.914 0.991385 11.8285 1.07196 11.7394 1.14886C11.6003 1.27094 11.5258 1.43819 11.4318 1.59322C11.4257 1.60421 11.4208 1.6152 11.4147 1.62618C11.3573 1.57247 11.3012 1.51876 11.2523 1.46504C11.0509 1.24408 10.8702 1.0158 10.6432 0.819257C10.4308 0.6337 10.1439 0.41274 9.86554 0.328507C9.73369 0.288222 9.58964 0.296767 9.45414 0.30043C9.28445 0.304092 9.14162 0.329727 8.98048 0.390766C8.85474 0.438376 8.75708 0.506739 8.64111 0.572661C8.56053 0.61905 8.47752 0.648349 8.40794 0.71427C8.33958 0.77775 8.27976 0.849776 8.22116 0.921801C8.04293 1.14398 7.90742 1.36616 7.81098 1.63839C7.76703 1.76169 7.75483 1.88865 7.73407 2.01805C7.72553 2.06444 7.73041 2.14379 7.70233 2.18163C7.66693 2.22802 7.65839 2.20727 7.61078 2.19873C7.53631 2.15234 7.45574 2.12426 7.36662 2.11327C7.22379 2.08642 7.07974 2.05956 6.93691 2.03392C6.57923 1.97777 6.19835 1.96434 5.83578 1.98631C5.48175 2.00584 5.19121 2.17431 4.88602 2.33667C4.64431 2.46485 4.45997 2.55153 4.33789 2.79568C4.24756 2.97636 4.21826 3.17412 4.19872 3.37311C4.16088 3.7491 4.16454 4.13609 4.27807 4.49866C4.35132 4.73182 4.46241 4.96011 4.55153 5.18717C4.56007 5.21036 4.56984 5.23112 4.57838 5.25309C4.55275 5.25187 4.52711 5.24821 4.50148 5.24699C4.32935 5.24333 4.18896 5.33732 4.04857 5.43743C3.90208 5.54119 3.77512 5.64618 3.69211 5.80976C3.60909 5.97213 3.57613 6.27976 3.54928 6.45799C3.52486 6.62157 3.51387 6.78272 3.5212 6.94752C3.52486 7.0171 3.53463 7.12087 3.55294 7.22708C3.50533 7.22708 3.4565 7.22708 3.40889 7.22708C3.3039 7.2283 3.21112 7.21609 3.10492 7.20266C3.03289 7.19289 2.94744 7.18191 2.87663 7.20754C2.76432 7.24905 2.66788 7.33817 2.56534 7.3992C2.38222 7.50785 2.08435 7.51518 2.15027 7.79962C2.17591 7.90827 2.17591 7.95343 2.17591 8.07917C2.17591 8.19393 2.18201 8.31112 2.17713 8.42465C2.17591 8.46494 2.18323 8.50278 2.15638 8.53452C1.85485 8.47226 1.56675 8.25008 1.26888 8.42709C1.19685 8.46982 1.11872 8.49423 1.05524 8.55405C0.984439 8.62119 0.97101 8.68712 0.925842 8.76402C0.869686 8.8568 0.770804 8.9215 0.710986 9.01428C0.660935 9.09485 0.607221 9.18153 0.553507 9.25844C0.514442 9.31459 0.460729 9.33412 0.424106 9.38906C0.378937 9.4562 0.392365 9.52456 0.393586 9.60269C0.396028 9.81145 0.363067 10.0654 0.231224 10.2375C0.139666 10.3584 -0.0239168 10.3828 0.0029401 10.5659C0.0114855 10.6196 0.0212516 10.6721 0.0651993 10.6965C0.0944978 10.6819 0.123796 10.6843 0.153095 10.7063C0.264185 10.7734 0.366729 10.8528 0.460729 10.9443C0.792778 11.2458 1.02839 11.6255 1.47153 11.7879Z"/>
  <path d="M9.49321 12.9939C9.73126 12.9524 9.96687 13.0232 10.1915 13.0916C10.3123 13.1282 10.4381 13.171 10.5614 13.2003C10.5113 13.2027 10.4625 13.2039 10.4161 13.2051C10.106 13.2161 9.79596 13.2051 9.48711 13.2112C9.32718 13.2149 9.19046 13.1783 9.05251 13.1136C9.19656 13.0684 9.34183 13.0208 9.49321 12.9939ZM7.97701 13.5006C8.38597 13.4932 8.79615 13.5164 9.20511 13.4981C9.42607 13.4884 9.64947 13.4566 9.8631 13.4017C9.97419 13.3736 10.0889 13.3199 10.2025 13.3077C10.3697 13.2894 10.5357 13.3663 10.6993 13.387C10.8373 13.4041 10.9655 13.4078 11.1022 13.3785C11.3109 13.3309 11.5307 13.1807 11.7101 13.0782C11.7968 13.0293 11.8395 12.9549 11.9091 12.8841C12.0056 12.8829 12.1032 12.8804 12.1997 12.8804C12.3413 12.8792 12.5293 12.8572 12.6745 12.8938C12.6977 12.8999 12.7197 12.9073 12.7417 12.9146C12.7282 12.9122 12.7124 12.9134 12.6989 12.9122C12.6233 12.9036 12.5634 12.8719 12.4902 12.8938C12.406 12.9183 12.3461 12.9939 12.2705 13.0342C12.2167 13.0635 12.1252 13.127 12.0593 13.1136C12.2839 13.1136 12.4218 13.0989 12.5464 13.1209C12.7234 13.1514 12.9187 13.2527 13.0969 13.1966C13.2251 13.1551 13.363 13.1136 13.4839 13.0574C13.4937 13.0538 13.5047 13.0513 13.5144 13.0477C13.5913 13.0709 13.6682 13.0916 13.75 13.1002C13.91 13.1185 14.0638 13.1392 14.2225 13.1697C14.3861 13.2015 14.5557 13.2943 14.7169 13.304C14.806 13.3089 14.8988 13.3004 14.9879 13.3016C15.0502 13.3028 15.1258 13.3138 15.1869 13.2979C15.2687 13.2759 15.298 13.2137 15.3602 13.1624C15.403 13.1282 15.4579 13.1026 15.4909 13.0574C15.5299 13.0025 15.5348 12.7913 15.685 12.6534C15.685 12.6436 15.685 12.6326 15.685 12.6228C15.6325 12.6155 15.5165 12.6692 15.4677 12.6802C15.2931 12.7193 15.1136 12.7278 14.9403 12.7681C14.7828 12.8047 14.6412 12.8145 14.4788 12.8157C14.3238 12.8157 14.2029 12.7913 14.0528 12.7535C13.8123 12.6912 13.5474 12.7156 13.3008 12.7181C12.9748 12.7217 12.655 12.6668 12.3303 12.6534C12.0959 12.6436 11.9494 12.6912 11.7431 12.7815C11.7077 12.7974 11.6259 12.7986 11.6015 12.8218C11.5746 12.8475 11.5868 12.8621 11.6112 12.8706C11.5856 12.8877 11.5612 12.9073 11.5282 12.9292C11.4538 12.9817 11.3634 12.9976 11.2768 13.0208C11.1815 13.0477 11.1071 13.1099 11.0131 13.1404C10.974 13.1539 10.9313 13.1624 10.8898 13.1697C10.8849 13.1514 10.8776 13.1319 10.869 13.1148C10.8629 13.1026 10.8397 13.0904 10.8348 13.077C10.8263 13.055 10.8373 13.0257 10.8263 13.0062C10.8007 12.961 10.7445 12.9646 10.6993 12.9476C10.5821 12.9061 10.5003 12.7876 10.4015 12.7156C10.349 12.6765 10.283 12.6436 10.2379 12.5972C10.1671 12.5252 10.1085 12.4519 10.0328 12.3836C9.94367 12.3018 9.85456 12.2749 9.73004 12.2542C9.49443 12.2151 9.40531 12.4727 9.25028 12.5984C9.06472 12.7486 8.83644 12.8755 8.62036 12.9854C8.58984 12.983 8.5581 12.9805 8.52514 12.9769C8.364 12.961 8.21018 12.9207 8.04782 12.9158C7.96481 12.9134 7.88057 12.9183 7.79756 12.9195C7.68037 12.9207 7.56195 12.9244 7.44598 12.9183C7.32024 12.9109 7.20182 12.8719 7.07731 12.8597C6.99551 12.8523 6.91494 12.8548 6.83437 12.856C6.69765 12.8035 6.45471 12.7962 6.35461 12.7925C6.34729 12.7901 6.33874 12.7889 6.33142 12.7876C6.2069 12.7535 6.08848 12.7058 5.9603 12.6949C5.78695 12.6814 5.60872 12.6826 5.43537 12.6912C5.41096 12.6924 5.38654 12.6961 5.36335 12.6985C5.2547 12.679 5.14849 12.6607 5.03984 12.6228C4.93486 12.5862 4.8079 12.5325 4.71146 12.4715C4.63943 12.4263 4.58205 12.3701 4.50637 12.3286C4.35133 12.2444 4.11938 12.1797 3.93993 12.2078C3.88744 12.2163 3.84105 12.2383 3.78855 12.2505C3.697 12.2725 3.59567 12.2639 3.509 12.3042C3.45528 12.3286 3.42598 12.3689 3.38326 12.4043C3.32466 12.4519 3.2563 12.48 3.19038 12.5154C3.16108 12.5313 3.13422 12.5447 3.10736 12.5581C2.73991 12.5703 2.35903 12.6436 2.00623 12.7437C1.90735 12.7718 1.82311 12.7913 1.72057 12.7901C1.77306 12.7986 1.73034 12.8121 1.68883 12.8304C1.69493 12.9146 1.55699 12.9781 1.49229 13C1.38608 13.0355 1.29452 13.0892 1.18954 13.1282C1.15291 13.1417 1.0992 13.1465 1.08333 13.1856C1.11629 13.2466 1.1639 13.243 1.22494 13.243C1.38486 13.2466 1.546 13.243 1.70592 13.243C1.79137 13.243 1.87683 13.2418 1.96106 13.243C2.09657 13.2466 2.22231 13.2161 2.35659 13.1929C2.55436 13.1575 2.76555 13.1783 2.96575 13.1783C3.25508 13.1783 3.54562 13.1697 3.83494 13.1807C4.00097 13.1856 4.16577 13.2076 4.3318 13.2247C4.45143 13.2369 4.59182 13.2173 4.70657 13.2393C4.84452 13.2662 4.97392 13.3394 5.09111 13.4127C5.31574 13.5531 5.65267 13.5506 5.90537 13.5616C6.18737 13.575 6.46814 13.5701 6.75136 13.5701C7.16276 13.5689 7.56806 13.5067 7.97701 13.5006Z"/>
  <path d="M8.41893 14.6042C8.61181 14.6116 8.79737 14.6531 8.99147 14.6653C9.28446 14.6824 9.6336 14.6921 9.92902 14.6494C10.266 14.6018 10.5675 14.4175 10.891 14.3235C10.9813 14.2978 11.0765 14.3125 11.1693 14.3125C11.4379 14.3137 11.7052 14.3125 11.9726 14.3125C12.5402 14.3125 13.1042 14.3198 13.667 14.2746C13.7403 14.3137 13.8135 14.354 13.8868 14.3869C14.0613 14.4663 14.2591 14.5102 14.4434 14.5713C14.607 14.625 14.7975 14.636 14.9708 14.6421C15.0404 14.6433 15.0819 14.6433 15.1417 14.6091C15.3383 14.4944 15.5189 14.365 15.7338 14.271C15.8852 14.2051 16.0439 14.1513 16.2001 14.094C16.4211 14.1013 16.6506 14.1086 16.8606 14.0793C16.9069 14.0732 16.9533 14.0683 16.9997 14.0622C17.0595 14.155 17.1401 14.2453 17.228 14.3076C17.333 14.3821 17.488 14.4736 17.6211 14.4809C17.7603 14.4895 17.8176 14.4333 17.9348 14.3808C18.0825 14.3149 18.251 14.2551 18.3755 14.1465C18.4451 14.0866 18.5086 14.0171 18.577 13.956C18.6929 13.956 18.8089 13.956 18.9273 13.956C19.0506 13.956 19.18 13.9426 19.3033 13.9487C19.5365 13.9609 19.7428 14.0903 19.9674 14.1501C20.2384 14.2221 20.5802 14.2258 20.8439 14.1269C21.0405 14.0525 21.248 14.0952 21.425 13.9719C21.5837 13.862 21.7619 13.8266 21.9475 13.8266C22.0159 13.8266 22.1099 13.8437 22.177 13.8291C22.2356 13.8144 22.2502 13.7912 22.3259 13.7961C22.2979 13.7631 22.2747 13.7741 22.2417 13.7558C22.1819 13.7216 22.155 13.685 22.1428 13.6972C21.8804 13.6972 21.6191 13.696 21.3566 13.6972C21.1125 13.6984 20.8757 13.7119 20.6376 13.6569C20.4679 13.6191 20.2897 13.6166 20.1261 13.5629C19.9662 13.5104 19.8014 13.475 19.6451 13.414C19.5084 13.3615 19.3802 13.2919 19.2337 13.2748C19.0762 13.2553 18.8651 13.2504 18.7149 13.298C18.6404 13.3212 18.5892 13.3615 18.5208 13.3957C18.3951 13.4592 18.251 13.4872 18.1155 13.5226C17.8408 13.5934 17.5967 13.6264 17.3208 13.5678C17.0852 13.5165 16.8496 13.5385 16.6079 13.5165C16.4943 13.5056 16.382 13.4909 16.2685 13.475C16.2416 13.4714 16.2135 13.464 16.1879 13.4702C16.133 13.4836 16.0597 13.5471 16.0072 13.5715C15.9218 13.6105 15.8339 13.652 15.7472 13.6862C15.5519 13.7656 15.298 13.7314 15.0904 13.7302C15.0184 13.7302 14.9427 13.7253 14.8695 13.7277C14.7413 13.7326 14.6143 13.7778 14.4898 13.8107C14.3763 13.8413 14.2603 13.884 14.1431 13.9011C13.9661 13.9255 13.7891 13.9255 13.6109 13.9243C13.4082 13.9231 13.2056 13.9255 13.0029 13.9243C12.9199 13.9231 12.8467 13.9194 12.7636 13.9365C12.5097 13.989 12.2521 13.9914 11.9994 14.0378C11.7443 14.0854 11.4855 14.061 11.2328 14.1025C10.8983 14.1562 10.5431 14.1184 10.2061 14.1184C9.92414 14.1184 9.64214 14.1135 9.36136 14.1184C9.30521 14.1184 9.26614 14.1184 9.21731 14.1489C9.13674 14.1977 9.08669 14.2356 8.98903 14.2624C8.92433 14.2795 8.86573 14.2991 8.80225 14.321C8.74854 14.3418 8.71069 14.343 8.64599 14.3479C8.54711 14.3564 8.45433 14.3808 8.35301 14.3796C8.23581 14.3784 8.12106 14.3577 8.00387 14.3479C7.94527 14.343 7.87691 14.3369 7.81831 14.343C7.73408 14.3515 7.65717 14.3979 7.57294 14.4089C7.39959 14.4321 7.18595 14.426 7.01505 14.4065C7.1591 14.4309 7.30315 14.4932 7.4472 14.5249C7.76826 14.5957 8.09298 14.592 8.41893 14.6042Z"/>
  <path d="M5.77352 14.426C5.72713 14.4223 5.69173 14.3759 5.64778 14.3601C5.48297 14.3015 5.28399 14.3235 5.11186 14.31C5.03495 14.3051 4.9556 14.2868 4.87991 14.3027C4.82986 14.3137 4.7908 14.3296 4.73953 14.3308C4.6614 14.3332 4.58571 14.321 4.52101 14.2734C4.49049 14.2514 4.46851 14.2111 4.43311 14.2002C4.37696 14.1818 4.28784 14.1989 4.22802 14.1989C4.12426 14.1977 4.03514 14.177 3.95335 14.2307C3.9326 14.2441 3.91673 14.2673 3.89719 14.2819C3.83127 14.332 3.74582 14.3601 3.66769 14.3882C3.50533 14.4468 3.34419 14.404 3.18549 14.459C3.11468 14.4822 3.03655 14.4724 2.96941 14.4931C2.92912 14.5066 2.89983 14.5346 2.86442 14.5566C2.71793 14.6482 2.50674 14.6567 2.34315 14.6885C2.41762 14.6811 2.50185 14.6787 2.57632 14.6848C2.7338 14.6995 2.88762 14.7825 3.05242 14.8069C3.36982 14.852 3.68112 14.8472 4.0034 14.8472C4.156 14.8472 4.30859 14.8484 4.46241 14.8411C4.69924 14.8289 4.88724 14.7751 5.1082 14.7031C5.18877 14.6763 5.17534 14.6982 5.24004 14.7153C5.33282 14.7397 5.41705 14.6933 5.50739 14.6836C5.56232 14.6775 5.62703 14.6824 5.68074 14.6921C5.79183 14.7141 5.88827 14.7178 6.0018 14.7178C6.08237 14.7178 6.22642 14.6921 6.30333 14.7165C6.32286 14.7226 6.32408 14.7434 6.34362 14.7471C6.41564 14.7605 6.54871 14.7532 6.57923 14.6714C6.61097 14.5884 6.34118 14.5664 6.29479 14.5615C6.13364 14.5408 5.95541 14.5847 5.80037 14.5237C5.76131 14.5078 5.72957 14.4773 5.69417 14.459C5.62092 14.4187 5.56355 14.426 5.77352 14.426Z"/>
  <path d="M9.54937 15.4795H9.2515C9.13553 15.4795 9.04031 15.4856 8.928 15.5051C8.9048 15.5088 8.88039 15.51 8.85597 15.5124C9.20633 15.5124 9.55669 15.5124 9.90583 15.5136C9.88142 15.4978 9.85578 15.4831 9.82771 15.477C9.7862 15.4685 9.55425 15.4795 9.54937 15.4795Z"/>
  <path d="M8.94994 15.3855C8.90599 15.377 8.85228 15.3819 8.80833 15.3794C8.65696 15.3697 8.50314 15.3587 8.35298 15.3428C8.10761 15.3172 7.87566 15.3172 7.6254 15.3172C7.43863 15.3172 7.24575 15.305 7.05897 15.316C6.9906 15.3208 6.93445 15.3489 6.86975 15.366C6.63658 15.4283 6.38632 15.41 6.14949 15.4234C6.06892 15.4271 5.85285 15.4051 5.79181 15.471C5.84919 15.4783 6.53526 15.4918 6.49375 15.6517C6.74767 15.6822 7.0138 15.6895 7.27016 15.6761C7.3251 15.6724 7.37148 15.6675 7.42642 15.6553C7.48868 15.6407 7.55094 15.6175 7.61442 15.6077C7.66569 15.6004 7.73039 15.6102 7.78044 15.6041C7.87566 15.5906 7.96112 15.5601 8.05023 15.5345C8.05512 15.5333 8.06976 15.5137 8.07709 15.5101C8.12836 15.4893 8.3542 15.5125 8.38472 15.5125H8.5129C8.62521 15.5125 8.74366 15.521 8.85597 15.5124L8.8303 15.5125C8.99511 15.4112 8.97802 15.3904 8.94994 15.3855Z"/>
  <path d="M26.5596 14.7641C26.4814 14.7593 26.4167 14.8362 26.3411 14.8594C26.2861 14.8752 26.2153 14.8997 26.1592 14.9021C25.9834 14.9094 25.8027 14.8288 25.6232 14.8301C25.5122 14.8301 25.4084 14.8459 25.2985 14.8642C25.1948 14.8789 25.0898 14.8923 24.9848 14.9045C24.9372 14.9131 24.8944 14.9314 24.8566 14.9582C24.8029 14.9888 24.7455 14.9827 24.6833 14.9412C24.538 14.9106 24.3927 14.8874 24.2462 14.8728C24.184 14.8606 24.1229 14.8557 24.0607 14.8581C24.0204 14.8874 23.9777 14.9082 23.9288 14.9228C23.7567 14.9851 23.714 14.9631 23.5748 14.8716C23.5443 14.8508 23.5138 14.8069 23.4832 14.7971C23.4149 14.7764 23.294 14.7959 23.2208 14.7995C23.034 14.8057 22.8545 14.9143 22.6739 14.957C22.6189 14.9692 22.564 14.9729 22.5066 14.9692C22.4456 14.9802 22.3845 14.99 22.3235 14.9998C22.249 14.9875 22.2234 14.9082 22.221 14.8411C22.0855 14.8154 21.9097 14.863 21.7693 14.8667C21.6081 14.8704 21.4458 14.8642 21.2846 14.8642C21.2517 14.8642 21.1613 14.8545 21.1186 14.8606C21.0161 14.8765 20.8769 14.9595 20.7878 14.9814C20.5668 15.0339 20.3483 15.0303 20.1237 15.0266C20.0004 15.0242 19.9332 15.0852 19.8185 15.1182C19.6451 15.167 19.4535 15.1304 19.285 15.2085C19.1983 15.2488 19.1275 15.3111 19.0445 15.3513C18.9578 15.3831 18.8687 15.405 18.7772 15.4173C18.6734 15.4527 18.566 15.4722 18.4585 15.4746C18.3328 15.482 18.1912 15.4649 18.0679 15.4392C17.8823 15.4002 17.8311 15.2903 17.6797 15.2134C17.5601 15.1511 17.3513 15.1878 17.2256 15.1853C17.0364 15.1841 16.8764 15.2 16.6994 15.2634C16.614 15.2927 16.5371 15.3037 16.4455 15.3111C15.9889 15.3477 15.5202 15.3196 15.0624 15.3184C14.9537 15.3184 14.8414 15.3098 14.7328 15.3233C14.64 15.3355 14.5509 15.3721 14.4556 15.3819C14.1175 15.4148 13.7647 15.3831 13.4241 15.3855C13.1653 15.388 12.9919 15.3672 12.7453 15.3074C12.5879 15.2695 12.4133 15.2659 12.2546 15.2952C11.9164 15.3599 11.6064 15.5125 11.256 15.5149C10.8068 15.5161 10.3563 15.5161 9.90584 15.5149C9.94002 15.5369 9.97298 15.5625 10.0108 15.5784C10.1292 15.6272 10.266 15.6089 10.3905 15.6101C10.4759 15.6101 10.5516 15.5967 10.6371 15.5845C10.7885 15.5638 10.9472 15.5784 11.0998 15.5772C11.1632 15.5772 11.2072 15.5784 11.267 15.6004C11.3024 15.6126 11.3366 15.6187 11.3683 15.6419C11.3854 15.6529 11.4074 15.6895 11.4281 15.7005C11.5136 15.7456 11.6406 15.7212 11.7346 15.7395C11.7797 15.7493 11.8249 15.7664 11.8713 15.7725C12.1044 15.8042 12.3571 15.7884 12.594 15.8042C12.6904 15.8116 12.6538 15.7981 12.7222 15.8531C12.7258 15.8567 12.7478 15.8909 12.7588 15.8958C12.8186 15.9239 12.9089 15.8958 12.9663 15.8824C13.3118 15.8067 13.6573 15.648 14.0162 15.6419C14.3262 15.6358 14.6449 15.6223 14.9537 15.6492C15.3456 15.6846 15.7375 15.6675 16.1293 15.6809C16.2953 15.687 16.4858 15.6858 16.6494 15.7286C16.7629 15.7579 16.874 15.7933 16.9887 15.8189C17.2024 15.8665 17.3525 15.9141 17.5186 16.0667C17.5759 16.1192 17.5991 16.1558 17.6821 16.1705C17.7896 16.1888 17.958 16.1461 18.0691 16.1314C18.1814 16.1168 18.2999 16.0997 18.4085 16.063C18.5648 16.0093 18.7076 15.9031 18.8541 15.8262C19.1031 15.6956 19.3656 15.5845 19.6268 15.4795C19.7526 15.4295 19.8771 15.4527 20.0126 15.4331C20.1151 15.4197 20.214 15.3916 20.3153 15.3733C20.4667 15.3452 20.6388 15.3184 20.7914 15.333C20.8647 15.3403 20.9416 15.3403 21.0148 15.3501C21.1613 15.3709 21.3029 15.4319 21.447 15.4661C21.646 15.5149 21.8486 15.5149 22.0488 15.5528C22.2295 15.5857 22.3882 15.6126 22.5725 15.6126C22.8729 15.6114 23.244 15.5845 23.537 15.5003C23.6517 15.4673 23.7628 15.4099 23.8775 15.3806C23.9984 15.3513 24.1205 15.3489 24.2401 15.3025C24.3207 15.2708 24.3817 15.2317 24.4635 15.2109C24.6417 15.167 24.8505 15.1499 25.0336 15.1292C25.2131 15.1096 25.3925 15.1157 25.5708 15.0754C25.6342 15.0608 25.6879 15.04 25.7502 15.0278C25.8882 14.9998 26.0408 15.0388 26.1824 15.0193C26.2373 15.012 26.2898 14.9949 26.3447 14.9924C26.4546 14.9863 26.5071 15.001 26.6072 14.9338C26.6426 14.9082 26.7293 14.8581 26.7207 14.8057C26.6707 14.7959 26.6084 14.7666 26.5596 14.7641Z"/>
  <path d="M8.13327 16.7673C8.06246 16.7856 7.98678 16.8162 7.91353 16.8259C7.7768 16.8442 7.63153 16.8101 7.49237 16.821C7.424 16.8259 7.38616 16.8552 7.32634 16.8882C7.26286 16.9236 7.20671 16.9431 7.13712 16.9627C6.92227 17.0225 6.69032 17.0029 6.48035 17.0713C6.3778 17.1043 6.23864 17.1482 6.16051 17.2263C6.08482 17.302 6.00181 17.4314 6.05064 17.5352C6.07139 17.5779 6.13853 17.6963 6.1898 17.6963C6.19713 17.6536 6.21788 17.6182 6.22521 17.5828C6.23253 17.5437 6.21666 17.5047 6.2423 17.4705C6.2716 17.4314 6.31798 17.44 6.36315 17.4326C6.45959 17.418 6.52063 17.3985 6.59754 17.3374C6.75624 17.2117 6.9479 17.1323 7.15665 17.1458C7.23845 17.1507 7.33122 17.1726 7.40935 17.1958C7.43987 17.2068 7.47161 17.219 7.50213 17.2312C7.50824 17.2422 7.51434 17.2532 7.52044 17.2654C7.64496 17.3203 7.83174 17.2727 7.96602 17.2752C8.20774 17.2801 8.43968 17.324 8.66797 17.4009C9.01222 17.5193 9.32962 17.5413 9.68853 17.5389C9.99372 17.5376 10.2989 17.5022 10.6029 17.5035C10.6285 17.5035 10.6554 17.5035 10.681 17.5035C10.7518 17.534 10.8202 17.5791 10.8837 17.6072C11.0082 17.6585 11.1522 17.6341 11.278 17.6768C11.3988 17.7171 11.4538 17.855 11.5954 17.8672C11.737 17.8795 11.892 17.8648 12.0349 17.8648C12.3706 17.8648 12.716 17.8404 13.0347 17.7281C13.1067 17.7024 13.1714 17.6487 13.2361 17.6133C13.2813 17.5889 13.4009 17.5572 13.418 17.4986C13.4314 17.4974 13.4448 17.4986 13.4583 17.4974C13.6585 17.4888 13.8648 17.4607 14.065 17.4693C14.1651 17.4729 14.2603 17.4974 14.358 17.5059C14.5435 17.5218 14.7364 17.4681 14.9098 17.4058C15.1466 17.3203 15.392 17.2239 15.6202 17.1189C15.5201 17.1018 15.3907 17.1018 15.2906 17.1226C15.1344 17.1555 14.9781 17.1458 14.8145 17.1616C14.5179 17.1885 14.231 17.2764 13.9368 17.3057C13.7586 17.324 13.5791 17.302 13.3997 17.3155C13.158 17.3338 12.9223 17.4046 12.6794 17.4095C12.5818 17.4119 12.4841 17.4107 12.3864 17.4107C12.3535 17.4107 12.3205 17.4107 12.2863 17.4107C12.2851 17.4107 12.2851 17.4107 12.2839 17.4107C12.1679 17.4107 12.0532 17.4131 11.9384 17.4119C11.737 17.4107 11.5417 17.357 11.3573 17.2764C11.2987 17.2581 11.2475 17.2288 11.2023 17.1873C11.1815 17.1665 11.173 17.1421 11.1779 17.114C11.101 17.0615 11.0131 17.0408 10.913 17.0542C10.7701 17.0371 10.6285 17.0396 10.4869 17.0628C10.3661 17.0872 10.244 17.1299 10.1256 17.1653C10.0279 17.1958 9.87287 17.2617 9.78253 17.1934C9.7398 17.1592 9.7105 17.0994 9.66534 17.0652C9.60308 17.0505 9.54692 17.0213 9.49687 16.9761C9.4224 16.9199 9.3516 16.8589 9.28568 16.7942C9.25516 16.7454 9.20999 16.7319 9.15139 16.7527C9.03664 16.7588 8.92311 16.7624 8.80958 16.7612C8.60815 16.7515 8.41038 16.7405 8.21018 16.7344H8.20896C8.19431 16.738 8.15402 16.7624 8.13327 16.7673Z"/>
  <path d="M7.94527 16.7271C8.03438 16.7271 8.12228 16.7319 8.21018 16.7344C8.22483 16.7307 8.24069 16.7283 8.25778 16.7271H7.94527Z"/>
  <path d="M8.25778 16.7271L8.46409 16.7271C8.40916 16.7271 8.32615 16.721 8.25778 16.7271Z"/>
  <path d="M22.0207 16.8236C21.9414 16.8248 21.8828 16.8236 21.8035 16.8102C21.5776 16.7687 21.3628 16.7662 21.1357 16.7613C21.0209 16.7589 20.9001 16.7211 20.7878 16.6966C20.6926 16.6857 20.6059 16.6539 20.5277 16.6014C20.507 16.5697 20.4777 16.5563 20.4411 16.5599C20.3629 16.5685 20.286 16.5782 20.2091 16.588C20.1688 16.5917 20.1298 16.5941 20.0907 16.5978C20.0712 16.5868 20.0529 16.5782 20.0346 16.5672C19.9015 16.4855 19.683 16.4952 19.5231 16.5025C19.4522 16.505 19.4315 16.5282 19.3753 16.566C19.2557 16.6454 19.141 16.7064 19.0494 16.8224C19.0433 16.8297 19.0384 16.8358 19.0323 16.8419C18.9249 16.8676 18.8162 16.8932 18.71 16.9225C18.5074 16.9774 18.3658 17.1019 18.1802 17.1886C18.0801 17.235 18.0093 17.2143 17.897 17.2118C17.731 17.213 17.5662 17.213 17.4014 17.2118C17.3318 17.2057 17.2634 17.2057 17.195 17.213C17.101 17.2594 17.0046 17.2997 16.9045 17.3339C16.8276 17.3498 16.7556 17.3791 16.6896 17.4206C16.5602 17.5048 16.4101 17.6391 16.3112 17.7575C16.2856 17.788 16.2551 17.8234 16.2428 17.8613C16.0512 18.0102 16.2367 17.9467 16.3918 17.9089C16.5114 17.8796 16.581 17.86 16.6835 17.8124C16.819 17.7477 16.9985 17.6672 17.1438 17.672C17.2707 17.6745 17.3977 17.7306 17.5283 17.7343C17.759 17.7404 17.9898 17.7111 18.2156 17.672C18.3487 17.6488 18.4317 17.578 18.544 17.5036C18.6661 17.423 18.7943 17.351 18.9249 17.2851C19.1715 17.1593 19.4437 17.036 19.7257 17.0946C19.932 17.1386 20.1078 17.2448 20.3178 17.246C20.6779 17.2472 21.0392 17.1679 21.3957 17.1227C21.6875 17.0873 21.9817 17.0934 22.2698 17.0336C22.4907 16.975 22.7105 16.9091 22.9278 16.8383C22.9375 16.8309 22.9461 16.8297 22.9559 16.826C22.6446 16.837 22.332 16.8199 22.0207 16.8236Z"/>
  <path d="M22.9571 16.826C22.9913 16.8248 23.0242 16.8248 23.0584 16.8224C23.0279 16.8028 22.9937 16.8077 22.9571 16.826Z"/>
  <path d="M19.8478 19.1406C19.7819 19.0845 19.7013 19.0759 19.6036 19.1138C19.4632 19.1125 19.3253 19.1003 19.1874 19.0808C19.2118 19.0307 19.2228 18.9746 19.2533 18.9233C19.1678 18.9038 19.0592 18.9197 18.9725 18.9197H17.6748C17.7151 18.966 17.7407 19.0051 17.7871 19.0405C17.4197 19.0552 17.0559 19.0808 16.686 19.1516C16.3344 19.2578 15.9755 19.3347 15.6117 19.3836C15.3273 19.4434 15.0392 19.4653 14.7474 19.4507C14.4141 19.4434 14.1309 19.4006 13.8367 19.2444C13.7122 19.1785 13.667 19.1211 13.5327 19.1455C13.2862 19.1931 13.0432 19.27 12.7966 19.3201C12.1875 19.4458 11.5563 19.4043 10.9386 19.4067C10.747 19.4043 10.5553 19.408 10.3636 19.4141C10.1769 19.386 9.99984 19.3274 9.83259 19.2371C9.69099 19.1785 9.59455 19.1345 9.44195 19.1431C9.18559 19.1553 8.928 19.1382 8.67042 19.1504C8.40307 19.1626 8.11741 19.2065 7.85129 19.1785C7.69137 19.187 7.55952 19.1357 7.45576 19.0222C7.43134 18.9868 7.40693 18.9514 7.38251 18.916C7.32147 18.8257 7.22991 18.8025 7.10784 18.8452C6.75015 18.8415 6.39369 18.8428 6.036 18.8513C5.61239 18.8476 5.19001 18.8733 4.76884 18.927C4.43923 18.9807 4.10841 19.0283 3.77758 19.0698C3.56272 19.0979 3.35397 19.1235 3.13667 19.1113C3.1086 19.2615 3.19771 19.2212 3.29537 19.2078C3.4907 19.1809 3.67625 19.2566 3.86303 19.292C4.06568 19.3286 4.27931 19.3005 4.4844 19.303C4.83965 19.3079 5.1839 19.4421 5.53915 19.4397C5.76621 19.4397 5.98839 19.408 6.21301 19.3848C6.39979 19.3652 6.58291 19.3701 6.76968 19.3713C6.95402 19.3713 7.19329 19.3384 7.37885 19.3701C7.57417 19.4031 7.75851 19.4934 7.94284 19.563C8.1577 19.6448 8.38965 19.7559 8.61915 19.6631C8.70216 19.6301 8.6924 19.6094 8.78273 19.5825C8.89871 19.5496 9.01346 19.5068 9.13065 19.4837C9.36992 19.4385 9.63239 19.4702 9.8741 19.4873C10.3111 19.5178 10.7482 19.5715 11.1779 19.6546C11.527 19.7229 11.8762 19.7644 12.2277 19.8218C12.6452 19.8902 13.0249 19.9964 13.407 20.1771C13.6487 20.2918 13.877 20.4359 14.1505 20.459C14.3458 20.4749 14.4898 20.431 14.6717 20.3687C14.9501 20.2747 15.2369 20.1893 15.4982 20.0525C15.6581 19.9671 15.8156 19.8792 15.978 19.7986C16.0915 19.7205 16.2148 19.668 16.3478 19.6411C16.5114 19.5886 16.6799 19.5569 16.852 19.5459C17.0254 19.513 17.217 19.4275 17.394 19.4067C18.0179 19.3323 18.649 19.5007 19.2728 19.4336C19.4437 19.397 19.6146 19.364 19.7868 19.3347L19.9039 19.3115C19.9516 19.2969 20.0004 19.2725 20.0419 19.2468C20.0065 19.2358 19.7416 19.2639 19.8478 19.1406Z"/>
  <path d="M22.3223 18.3044C22.2466 18.3117 22.1672 18.3154 22.0916 18.3093C21.978 18.2995 21.8779 18.2544 21.7632 18.2824C21.563 18.3313 21.3347 18.3142 21.1296 18.396C21.0356 18.4326 20.9343 18.4594 20.8427 18.5022C20.8073 18.518 20.7536 18.5705 20.7145 18.5632C20.7133 18.5534 20.7109 18.5437 20.7096 18.5339C20.6913 18.562 20.6657 18.5754 20.7487 18.6572C20.7768 18.6841 20.8415 18.7121 20.8781 18.7219C21.0258 18.761 21.2468 18.7353 21.3933 18.7097C21.6081 18.6719 21.8193 18.5962 22.0293 18.5351C22.1123 18.5107 22.6433 18.4301 22.5896 18.28C22.5066 18.2519 22.4065 18.2959 22.3223 18.3044Z"/>
  <path d="M4.74562 16.887C4.79323 16.8687 4.91408 16.8321 5.14969 16.5782C4.88234 16.5342 4.60401 16.511 4.32689 16.5098C4.1572 16.5074 4.04489 16.522 3.89352 16.5855C3.78731 16.6295 3.67744 16.6746 3.56147 16.6783C3.37957 16.6844 3.20622 16.6661 3.03043 16.6246C2.88516 16.5916 2.7289 16.6099 2.57997 16.6099C2.45057 16.6111 2.32971 16.5855 2.20275 16.577C2.13439 16.5733 2.06358 16.5782 1.99522 16.5782C1.94029 16.5794 1.90855 16.5611 1.85972 16.5513C1.70102 16.5171 1.51424 16.5806 1.35188 16.5782C1.27741 16.577 1.21515 16.5904 1.1419 16.6087C1.03448 16.6368 0.928268 16.6588 0.818399 16.6722C0.767127 16.6783 0.685335 16.6661 0.653595 16.7161C0.680452 16.7466 0.737828 16.7442 0.775672 16.7466C1.09796 16.7747 1.44954 16.7259 1.76327 16.8052C1.9 16.8394 2.02452 16.8382 2.16613 16.837C2.47254 16.8358 2.77285 16.8565 3.07926 16.8663C3.52485 16.8785 3.96921 16.9261 4.41479 16.9359C4.52832 16.9383 4.63819 16.9273 4.74562 16.887Z"/>
  <path d="M12.268 22.2182C12.4548 22.2401 12.6245 22.2487 12.8125 22.2487C12.904 22.2487 12.9883 22.2426 13.0762 22.2572C13.2629 22.289 13.4473 22.3232 13.6365 22.3378C13.7512 22.3464 13.8172 22.3549 13.9038 22.2841C13.9392 22.256 13.9588 22.2206 13.9978 22.195C14.0796 22.1425 14.1846 22.1315 14.2774 22.1205C14.4288 22.1034 14.6009 22.1205 14.7474 22.0827C14.9329 22.0351 15.1075 21.9362 15.2833 21.8629C15.6007 21.7299 15.9218 21.6127 16.2624 21.559C16.017 21.5138 15.7582 21.504 15.5092 21.4784C15.3151 21.4589 15.1039 21.4296 14.9085 21.4418C14.7364 21.454 14.5765 21.504 14.4117 21.5492C14.1102 21.6139 13.8062 21.6639 13.4998 21.6969C13.3679 21.7262 13.2361 21.736 13.1042 21.7286C13.0884 21.7042 13.0847 21.6664 13.0871 21.6383C13.042 21.6212 12.9565 21.6346 12.915 21.6359C12.6782 21.6407 12.4572 21.609 12.2253 21.5687C11.8456 21.5028 11.4672 21.4918 11.0912 21.4051C10.8446 21.3478 10.6065 21.3368 10.3551 21.3356C10.1768 21.3343 9.99982 21.3221 9.82647 21.3685C9.57988 21.4357 9.34671 21.5565 9.09157 21.5956C9.07204 21.598 8.98658 21.6188 8.97315 21.6005C8.99024 21.4259 8.8523 21.5016 8.70703 21.5675C8.62401 21.6053 8.51781 21.6285 8.42991 21.6481C8.30539 21.6761 8.17233 21.7274 8.04537 21.7335C7.9709 21.7372 7.75116 21.6871 7.69989 21.7616C7.70966 21.7994 7.79511 21.8458 7.82685 21.8727C7.85859 21.8995 7.89033 21.9313 7.92329 21.9569C7.98799 22.0058 8.07467 22.0094 8.15402 22.018C8.32492 22.0363 8.51292 22.0314 8.68505 22.0155C8.77905 22.0058 8.86817 21.9887 8.96217 21.9899C9.12331 21.9923 9.28689 21.9826 9.44681 21.9887C9.61039 21.9948 9.77032 22.0241 9.93512 22.0228C10.1756 22.0228 10.3941 22.1046 10.6322 22.1376C10.8629 22.1706 11.0985 22.1486 11.3305 22.151C11.6418 22.1535 11.9592 22.1815 12.268 22.2182Z"/>
  <path d="M6.93816 10.7844C6.77824 10.7844 6.61954 10.7673 6.45962 10.7587C6.44619 10.7575 6.42543 10.7563 6.40834 10.7551C6.41933 10.749 6.43032 10.7429 6.4413 10.7392C6.506 10.7172 6.72696 10.727 6.73917 10.7258C6.83073 10.7197 6.92351 10.705 7.01507 10.7001C7.09075 10.6953 7.17743 10.6928 7.2519 10.7014C7.34712 10.7136 7.43623 10.7526 7.52779 10.7783C7.33491 10.7624 7.12616 10.7844 6.93816 10.7844ZM16.7019 12.0601C16.6433 12.0222 16.5835 11.9832 16.5236 11.9453C16.4711 11.8745 16.4064 11.8098 16.332 11.7708C16.26 11.7317 16.2197 11.6951 16.1452 11.6645C16.0378 11.6218 15.9279 11.5925 15.818 11.551C15.7436 11.5229 15.6899 11.5107 15.6117 11.512C15.5946 11.512 15.58 11.5132 15.5666 11.5132C15.5019 11.468 15.4372 11.4204 15.3688 11.3838C15.348 11.3606 15.3297 11.3374 15.3078 11.3179C15.2089 11.2336 15.0673 11.1677 14.9562 11.0981C14.889 11.0554 14.8097 11.0236 14.7267 10.9956C14.7071 10.976 14.6864 10.9589 14.6583 10.9455C14.5838 10.9113 14.5008 10.9187 14.4227 10.9065C14.4129 10.9052 14.4044 10.904 14.3958 10.9028C14.3739 10.8979 14.3519 10.893 14.3311 10.8881C14.1895 10.8527 14.0418 10.7758 13.9002 10.7624C13.8318 10.7551 13.7586 10.7661 13.6902 10.7661C13.6548 10.7661 13.584 10.7526 13.5511 10.7648C13.5205 10.7758 13.49 10.7966 13.4583 10.8186C13.3252 10.8576 13.1934 10.915 13.0774 10.9541C12.7002 11.0822 12.279 10.9724 11.892 11.0505C11.7077 11.0871 11.5258 11.1018 11.3415 11.1067C11.3293 11.0896 11.3171 11.0725 11.3012 11.0578C11.1315 10.8967 10.9203 10.8576 10.703 10.8295C10.5809 10.8137 10.4308 10.8186 10.3087 10.8295C10.1976 10.8393 10.0841 10.893 9.97909 10.9357C9.87411 10.9785 9.78621 11.0444 9.69466 11.1103C9.55305 11.2129 9.31866 11.2177 9.15141 11.2287C9.033 11.2361 8.91458 11.2434 8.79739 11.2483C8.59352 11.1823 8.39576 11.0896 8.19433 11.0029C8.11498 10.9675 8.04051 10.9455 7.95872 10.9162C7.85618 10.8784 7.75851 10.8137 7.65231 10.7917C7.62179 10.7233 7.59127 10.7001 7.51558 10.6611C7.42524 10.6171 7.32514 10.5988 7.23725 10.5524C7.16644 10.517 7.14935 10.5048 7.06634 10.506C6.93327 10.5085 6.80143 10.5085 6.66959 10.5073C6.64273 10.506 6.60733 10.4987 6.58291 10.5048C6.52187 10.5195 6.44375 10.5903 6.38759 10.6293C6.33876 10.6647 6.28627 10.7136 6.23255 10.7441C6.17396 10.7429 6.11658 10.7441 6.07263 10.7526C6.06653 10.7539 6.06042 10.7563 6.0531 10.7563C5.9652 10.7807 5.87975 10.8308 5.7943 10.8662C5.70152 10.904 5.60386 10.9248 5.50864 10.9553C5.32918 11.0114 5.1009 11.1176 4.96661 11.2483C4.919 11.2959 4.8836 11.352 5.06061 11.3349C5.19246 11.2495 5.36459 11.197 5.5123 11.1213C5.85289 10.948 6.22034 10.8637 6.60611 10.8772C6.74039 10.8833 6.84782 10.893 6.96501 10.9541C7.17743 11.0664 7.47774 11.1848 7.71945 11.2068C7.89524 11.2226 8.07347 11.1775 8.24438 11.2531C8.32129 11.2873 8.37256 11.3301 8.4275 11.3935C8.46168 11.4314 8.49586 11.4924 8.54347 11.5168C8.67653 11.5852 8.88406 11.4985 9.02445 11.5266C9.22344 11.5669 9.41144 11.6865 9.6092 11.7439C9.73372 11.7793 9.83626 11.794 9.96445 11.7903C10.1647 11.783 10.36 11.7854 10.559 11.761C10.7787 11.7341 10.9691 11.6707 11.1803 11.6169C11.422 11.5571 11.6515 11.4924 11.8835 11.4009C12.0263 11.3447 12.1484 11.2898 12.3095 11.2751C12.3437 11.2715 12.3767 11.2715 12.4109 11.2702C12.4585 11.269 12.5061 11.2678 12.5537 11.2654C12.7466 11.2666 12.9395 11.28 13.1311 11.2727C13.2727 11.2666 13.4119 11.2458 13.5523 11.2202C13.6048 11.2922 13.6231 11.3264 13.7049 11.3728C13.7769 11.4155 13.8148 11.446 13.8978 11.4643C13.9857 11.4851 14.0821 11.4961 14.1724 11.4985C14.3665 11.5046 14.5582 11.5058 14.7425 11.5864C14.9147 11.6621 15.0648 11.772 15.2308 11.8623C15.4591 11.9868 15.7301 12.0112 15.9731 12.0796C16.1403 12.1272 16.3442 12.1492 16.5175 12.148C16.5932 12.1468 16.6042 12.148 16.6714 12.1773C16.7238 12.2005 16.9228 12.2896 16.9582 12.2212C16.9204 12.1761 16.8374 12.1431 16.7617 12.1199C16.7751 12.1211 16.7873 12.1223 16.8008 12.1236C16.7544 12.0943 16.7141 12.0686 16.7019 12.0601Z"/>
  <path d="M22.879 11.8599C22.8204 11.8172 22.5567 11.8526 22.4846 11.8514C22.293 11.8489 22.105 11.8855 21.9121 11.8843C21.7558 11.8843 21.5849 11.9063 21.4311 11.8904C21.2077 11.8685 20.9782 11.7903 20.7548 11.7305C20.7341 11.7195 20.7133 11.7085 20.6926 11.6988C20.5961 11.6475 20.5229 11.5938 20.4191 11.5901C20.3617 11.5889 20.3324 11.5999 20.2738 11.5804C20.1994 11.5559 20.1518 11.5144 20.0773 11.4973C19.9723 11.4717 19.8771 11.3643 19.7758 11.3655C19.7037 11.3655 19.5939 11.4473 19.5487 11.5022C19.5157 11.5425 19.5023 11.5816 19.484 11.6255C19.4645 11.6731 19.4413 11.7098 19.4193 11.7537C19.4144 11.7635 19.4107 11.7745 19.4071 11.7867C19.1568 11.8367 18.8944 11.8196 18.6368 11.8208C18.4427 11.8208 18.0862 11.8575 17.9275 11.6902C17.8298 11.562 17.709 11.5108 17.5662 11.4656C17.4514 11.4302 17.3513 11.3716 17.2353 11.3338C17.1389 11.3411 17.04 11.3191 16.9497 11.252C16.9411 11.2459 16.9314 11.2398 16.9216 11.2337C16.8996 11.2239 16.8776 11.2153 16.8545 11.2031C16.7995 11.1751 16.7226 11.1494 16.6762 11.1067C16.6494 11.0811 16.653 11.042 16.6054 11.0444C16.5773 11.1128 16.6091 11.1909 16.6579 11.2361C16.6945 11.2703 16.769 11.2935 16.8129 11.3252C16.852 11.3557 16.8911 11.3875 16.9277 11.4204C17.0437 11.5181 17.1853 11.5791 17.3037 11.6744C17.4087 11.7586 17.5369 11.8184 17.6553 11.8819C17.7993 11.96 17.9751 12.0418 18.1326 12.076C18.2144 12.0943 18.2608 12.1053 18.345 12.1529C18.4183 12.1956 18.4988 12.2701 18.5782 12.2982C18.6392 12.3189 18.6832 12.3092 18.7527 12.3055C19.0482 12.2847 19.3265 12.2127 19.6256 12.2078C19.8258 12.2042 20.0321 12.231 20.2311 12.2017C20.3983 12.1773 20.5424 12.1688 20.7121 12.1956C21.0356 12.2469 21.3481 12.275 21.6789 12.275C21.834 12.2762 22.0781 12.3226 22.2234 12.2554C22.4102 12.1688 22.5493 11.9612 22.7447 11.8978C22.7911 11.8819 22.8435 11.8953 22.879 11.8599Z"/>
  <path d="M16.9924 22.9042C16.8752 22.9665 16.7446 22.9958 16.6152 23.0177C16.4492 23.047 16.2844 23.0849 16.1208 23.1252C16.0719 23.1374 16.0194 23.1471 15.9743 23.1703C15.9181 23.1972 15.8974 23.2375 15.8571 23.2802C15.7777 23.3632 15.6727 23.4255 15.5702 23.4731C15.3358 23.5817 15.1478 23.5695 14.8939 23.5695C14.6937 23.5695 14.4971 23.5769 14.2982 23.5537C14.1627 23.5378 14.0137 23.5121 13.8819 23.5549C13.6634 23.6257 13.429 23.6647 13.2019 23.6989C13.042 23.7246 12.8821 23.7722 12.7197 23.7648C12.6196 23.76 12.6367 23.7063 12.5586 23.6562C12.5122 23.6257 12.456 23.6318 12.3974 23.6342C12.2668 23.6391 12.1411 23.6611 12.0275 23.7246L12.1301 23.7319C12.3254 23.7258 12.5036 23.7575 12.6928 23.7978C12.8235 23.8259 12.9553 23.8161 13.0859 23.8283C13.1848 23.8381 13.28 23.8637 13.3801 23.8735C13.4973 23.8857 13.6219 23.8735 13.7329 23.9162C13.8355 23.9553 13.8684 23.9858 13.9722 23.9956C14.2029 24.0139 14.3909 23.9736 14.6046 23.9004C14.7596 23.8479 14.9134 23.7746 15.0782 23.7563C15.2174 23.7417 15.3724 23.7661 15.514 23.7575C15.6825 23.7465 15.8522 23.7404 16.0207 23.7282C16.2599 23.7099 16.4577 23.6489 16.6835 23.5756C16.7458 23.5561 16.7861 23.5439 16.8349 23.5024C16.885 23.4304 16.9387 23.3608 16.9948 23.2936C17.0583 23.2167 17.1206 23.1398 17.1816 23.0617C17.228 22.9823 17.322 22.7614 17.2793 22.6698C17.1755 22.7394 17.1071 22.8444 16.9924 22.9042Z"/>
  <path d="M11.7577 23.8271C11.8627 23.8503 11.9177 23.7893 12.0056 23.7356C12.0129 23.7319 12.0202 23.7295 12.0263 23.7246L11.3366 23.6757C11.4794 23.705 11.6174 23.7966 11.7577 23.8271Z"/>
  <path d="M11.2218 23.6672L11.3378 23.6758C11.2987 23.6672 11.2609 23.6635 11.2218 23.6672Z"/>
</svg>
