<?xml version="1.0" encoding="UTF-8" standalone="no"?>
<!-- Created with Inkscape (http://www.inkscape.org/) -->

<svg
   width="24.577932"
   height="24"
   viewBox="0 0 6.5029113 6.35"
   version="1.1"
   id="svg57146"
   inkscape:version="1.2.1 (9c6d41e4, 2022-07-14)"
   sodipodi:docname="nameless-horrors.svg"
   xmlns:inkscape="http://www.inkscape.org/namespaces/inkscape"
   xmlns:sodipodi="http://sodipodi.sourceforge.net/DTD/sodipodi-0.dtd"
   xmlns="http://www.w3.org/2000/svg"
   xmlns:svg="http://www.w3.org/2000/svg">
  <sodipodi:namedview
     id="namedview57148"
     pagecolor="#505050"
     bordercolor="#eeeeee"
     borderopacity="1"
     inkscape:showpageshadow="0"
     inkscape:pageopacity="0"
     inkscape:pagecheckerboard="0"
     inkscape:deskcolor="#505050"
     inkscape:document-units="mm"
     showgrid="false"
     inkscape:zoom="0.7046647"
     inkscape:cx="51.088127"
     inkscape:cy="176.67977"
     inkscape:window-width="1390"
     inkscape:window-height="941"
     inkscape:window-x="0"
     inkscape:window-y="25"
     inkscape:window-maximized="0"
     inkscape:current-layer="layer1" />
  <defs
     id="defs57143">
    <clipPath
       clipPathUnits="userSpaceOnUse"
       id="clipPath55113">
      <path
         d="m 65.075,490.08 h 24.7 v 24.699 h -24.7 z"
         id="path55111" />
    </clipPath>
  </defs>
  <g
     inkscape:label="Layer 1"
     inkscape:groupmode="layer"
     id="layer1"
     transform="translate(-91.743487,-101.95774)">
    <g
       id="g55107"
       transform="matrix(0.28877347,0,0,-0.28877347,72.748961,250.24022)">
      <g
         id="g55109"
         clip-path="url(#clipPath55113)">
        <g
           id="g55115"
           transform="translate(87.8765,502.805)">
          <path
             d="M 0,0 C -0.014,-0.01 -0.023,-0.025 -0.032,-0.042 -0.019,-0.031 -0.008,-0.019 0,0"
             style="fill:#100f0d;fill-opacity:1;fill-rule:nonzero;stroke:none"
             id="path55117" />
        </g>
        <g
           id="g55119"
           transform="translate(77.4678,507.982)">
          <path
             d="M 0,0 C -0.028,0.043 -0.08,0.05 -0.126,0.059 -0.149,0.003 -0.029,-0.076 0,0"
             style="fill:#100f0d;fill-opacity:1;fill-rule:nonzero;stroke:none"
             id="path55121" />
        </g>
        <g
           id="g55123"
           transform="translate(87.2308,501.651)">
          <path
             d="M 0,0 C 0.002,0.007 0.004,0.014 0.005,0.021 -0.03,0 -0.047,-0.015 -0.056,-0.027 -0.041,-0.013 -0.024,-0.003 0,0"
             style="fill:#100f0d;fill-opacity:1;fill-rule:nonzero;stroke:none"
             id="path55125" />
        </g>
        <g
           id="g55127"
           transform="translate(87.0017,501.461)">
          <path
             d="M 0,0 C -0.08,-0.069 -0.176,-0.109 -0.259,-0.172 -0.324,-0.222 -0.375,-0.289 -0.435,-0.345 -0.503,-0.41 -0.575,-0.47 -0.644,-0.534 -0.787,-0.669 -0.933,-0.843 -1.107,-0.943 -1.273,-1.038 -1.44,-1.15 -1.585,-1.276 -1.657,-1.338 -1.695,-1.393 -1.747,-1.475 -1.78,-1.527 -1.818,-1.577 -1.858,-1.625 -1.944,-1.727 -1.99,-1.83 -2.052,-1.946 -2.124,-2.081 -2.255,-2.15 -2.357,-2.259 -2.437,-2.345 -2.504,-2.436 -2.594,-2.511 -2.612,-2.526 -2.63,-2.537 -2.649,-2.55 c 0.072,0.045 0.149,0.086 0.213,0.133 0.113,0.084 0.231,0.154 0.334,0.249 0.122,0.11 0.246,0.228 0.374,0.332 0.034,0.028 0.079,0.041 0.113,0.067 0.045,0.035 0.063,0.088 0.098,0.131 0.041,0.05 0.107,0.112 0.158,0.152 0.052,0.04 0.117,0.061 0.168,0.103 0.094,0.077 0.171,0.172 0.275,0.239 0.047,0.031 0.098,0.049 0.143,0.083 0.102,0.076 0.191,0.169 0.285,0.255 0.078,0.071 0.155,0.139 0.224,0.219 0.035,0.04 0.076,0.083 0.103,0.129 0.021,0.036 0.028,0.08 0.051,0.115 0.055,0.086 0.114,0.169 0.16,0.263 0.019,0.04 0.026,0.087 0.051,0.126 C 0.117,0.071 0.138,0.093 0.152,0.118 0.161,0.135 0.159,0.146 0.173,0.163 0.16,0.151 0.148,0.137 0.134,0.123 0.091,0.08 0.046,0.04 0,0"
             style="fill:#100f0d;fill-opacity:1;fill-rule:nonzero;stroke:none"
             id="path55129" />
        </g>
        <g
           id="g55131"
           transform="translate(84.3153,498.885)">
          <path
             d="M 0,0 C 0.011,0.009 0.025,0.018 0.038,0.026 -0.013,-0.005 -0.062,-0.039 -0.101,-0.079 -0.057,-0.077 -0.029,-0.022 0,0"
             style="fill:#100f0d;fill-opacity:1;fill-rule:nonzero;stroke:none"
             id="path55133" />
        </g>
        <g
           id="g55135"
           transform="translate(86.7513,504.307)">
          <path
             d="M 0,0 C 0.035,-0.019 0.07,-0.039 0.105,-0.06 0.044,-0.009 -0.016,0.044 -0.084,0.084 -0.127,0.111 -0.169,0.143 -0.211,0.175 -0.149,0.105 -0.092,0.049 0,0"
             style="fill:#100f0d;fill-opacity:1;fill-rule:nonzero;stroke:none"
             id="path55137" />
        </g>
        <g
           id="g55139"
           transform="translate(73.2578,509.469)">
          <path
             d="m 0,0 c -0.16,-0.118 -0.286,-0.218 -0.398,-0.384 -0.059,-0.087 -0.259,-0.349 -0.155,-0.466 0.09,0.024 0.177,0.114 0.257,0.151 0.098,0.045 0.202,0.082 0.414,0.124 0.18,0.002 0.352,0.04 0.531,0.066 0.156,0.023 0.308,0.075 0.464,0.089 0.216,0.021 0.437,-0.019 0.652,0.018 0.083,0.014 0.16,0.013 0.245,0.012 0.06,-0.001 0.137,-0.013 0.193,0.012 0.019,0.009 0.034,0.029 0.053,0.039 0.065,0.035 0.141,0.045 0.207,0.082 0.071,0.039 0.126,0.094 0.19,0.141 0.04,0.029 0.086,0.038 0.125,0.061 0.084,0.05 0.123,0.147 0.175,0.224 C 3.005,0.248 3.076,0.31 3.133,0.383 3.184,0.449 3.215,0.528 3.266,0.596 3.359,0.72 3.43,0.86 3.538,0.975 3.619,1.06 3.714,1.139 3.789,1.229 3.827,1.274 3.856,1.329 3.889,1.377 3.925,1.431 3.977,1.47 4.016,1.522 4.061,1.583 4.09,1.64 4.155,1.683 4.224,1.729 4.261,1.787 4.322,1.843 4.41,1.925 4.516,1.988 4.612,2.061 4.76,2.173 4.898,2.296 5.054,2.397 5.185,2.482 5.289,2.604 5.415,2.698 5.506,2.765 5.574,2.795 5.688,2.798 5.776,2.8 5.865,2.797 5.953,2.797 6.227,2.797 6.512,2.817 6.785,2.792 6.941,2.778 6.973,2.756 7.057,2.648 7.131,2.553 7.246,2.473 7.307,2.369 7.377,2.251 7.376,2.062 7.368,1.929 7.363,1.842 7.318,1.719 7.27,1.652 7.322,1.657 7.378,1.687 7.424,1.705 7.56,1.758 7.695,1.809 7.823,1.88 7.976,1.963 8.033,2.039 8.072,2.209 8.097,2.323 8.126,2.45 8.114,2.568 8.104,2.657 8.054,2.719 8.005,2.797 7.916,2.937 7.804,3.111 7.66,3.202 7.631,3.22 7.605,3.23 7.557,3.25 7.336,3.347 7.139,3.501 6.918,3.603 6.742,3.684 6.547,3.752 6.366,3.82 6.25,3.863 6.127,3.904 6.009,3.941 5.862,3.988 5.667,4.02 5.511,4.019 5.371,4.018 5.232,4.033 5.093,4.001 5.021,3.97 4.945,3.947 4.868,3.931 4.803,3.927 4.74,3.912 4.68,3.886 4.221,3.697 3.795,3.371 3.457,3.011 3.327,2.872 3.294,2.701 3.196,2.544 3.055,2.32 2.902,2.061 2.715,1.872 2.659,1.816 2.587,1.742 2.512,1.71 2.481,1.704 2.45,1.698 2.418,1.693 2.295,1.648 2.18,1.587 2.073,1.51 1.899,1.396 1.707,1.279 1.583,1.109 1.499,0.994 1.449,0.859 1.369,0.741 1.241,0.551 1.028,0.453 0.82,0.367 0.684,0.311 0.539,0.302 0.405,0.242 0.259,0.175 0.129,0.096 0,0"
             style="fill:#100f0d;fill-opacity:1;fill-rule:nonzero;stroke:none"
             id="path55141" />
        </g>
        <g
           id="g55143"
           transform="translate(69.2555,507.057)">
          <path
             d="M 0,0 C 0.102,0.103 0.181,0.192 0.307,0.262 0.425,0.328 0.526,0.409 0.634,0.489 0.676,0.521 0.719,0.55 0.763,0.58 0.894,0.669 1.03,0.709 1.172,0.773 1.176,0.775 1.18,0.776 1.184,0.778 1.23,0.848 1.266,0.929 1.304,0.999 1.364,1.108 1.431,1.206 1.503,1.307 1.566,1.398 1.621,1.495 1.697,1.577 1.894,1.79 2.082,1.999 2.255,2.234 2.347,2.359 2.454,2.483 2.502,2.632 2.554,2.797 2.582,2.951 2.581,3.124 2.579,3.292 2.556,3.47 2.63,3.625 2.719,3.811 2.84,3.962 2.951,4.132 2.994,4.198 3.036,4.265 3.085,4.327 3.113,4.363 3.122,4.392 3.141,4.427 3.188,4.512 3.258,4.61 3.325,4.681 3.442,4.804 3.636,4.821 3.793,4.758 4.05,4.656 4.106,4.461 4.189,4.218 4.226,4.113 4.274,3.938 4.251,3.826 4.249,3.82 4.246,3.815 4.244,3.809 4.289,3.875 4.333,3.943 4.376,4.01 4.482,4.174 4.491,4.36 4.492,4.548 4.494,4.81 4.394,5.079 4.16,5.214 4.036,5.286 3.884,5.373 3.737,5.372 3.686,5.371 3.641,5.369 3.59,5.375 3.405,5.397 3.206,5.435 3.022,5.41 2.899,5.393 2.775,5.386 2.652,5.367 2.563,5.353 2.489,5.319 2.406,5.286 2.328,5.255 2.221,5.238 2.152,5.19 2.096,5.151 2.049,5.09 2.003,5.04 1.863,4.889 1.726,4.721 1.652,4.528 1.566,4.302 1.493,4.03 1.49,3.786 1.488,3.633 1.488,3.492 1.462,3.342 1.44,3.221 1.389,3.063 1.322,2.959 1.217,2.796 1.039,2.7 0.866,2.623 0.797,2.593 0.708,2.565 0.645,2.52 0.489,2.408 0.451,2.227 0.457,2.049 0.465,1.786 0.315,1.585 0.233,1.342 0.188,1.209 0.172,1.046 0.166,0.906 0.158,0.711 0.059,0.566 -0.015,0.391 -0.075,0.248 -0.113,0.134 -0.219,0.02 -0.39,-0.162 -0.552,-0.348 -0.665,-0.57 -0.704,-0.645 -0.764,-0.711 -0.814,-0.783 -0.773,-0.737 -0.711,-0.7 -0.673,-0.667 -0.435,-0.461 -0.221,-0.222 0,0"
             style="fill:#100f0d;fill-opacity:1;fill-rule:nonzero;stroke:none"
             id="path55145" />
        </g>
        <g
           id="g55147"
           transform="translate(73.4993,510.865)">
          <path
             d="M 0,0 C -0.023,-0.033 -0.046,-0.066 -0.07,-0.098 -0.04,-0.07 -0.014,-0.04 0,0"
             style="fill:#100f0d;fill-opacity:1;fill-rule:nonzero;stroke:none"
             id="path55149" />
        </g>
        <g
           id="g55151"
           transform="translate(70.3229,507.699)">
          <path
             d="M 0,0 C 0.234,0.167 0.18,0.161 0.117,0.135 0.105,0.117 0.093,0.099 0.079,0.083 0.055,0.053 0.009,0.041 0,0"
             style="fill:#100f0d;fill-opacity:1;fill-rule:nonzero;stroke:none"
             id="path55153" />
        </g>
        <g
           id="g55155"
           transform="translate(73.2525,510.561)">
          <path
             d="M 0,0 C 0.066,0.063 0.123,0.133 0.177,0.206 0.16,0.19 0.143,0.174 0.127,0.156 0.086,0.11 0.028,0.056 0,0"
             style="fill:#100f0d;fill-opacity:1;fill-rule:nonzero;stroke:none"
             id="path55157" />
        </g>
        <g
           id="g55159"
           transform="translate(68.4043,506.216)">
          <path
             d="M 0,0 C 0.011,0.02 0.024,0.039 0.037,0.058 0.021,0.04 0.007,0.021 0,0"
             style="fill:#100f0d;fill-opacity:1;fill-rule:nonzero;stroke:none"
             id="path55161" />
        </g>
        <g
           id="g55163"
           transform="translate(80.6189,510.243)">
          <path
             d="m 0,0 c -0.08,-0.018 -0.133,-0.073 -0.203,-0.109 -0.071,-0.037 -0.13,-0.082 -0.195,-0.126 -0.067,-0.045 -0.149,-0.059 -0.211,-0.109 -0.049,-0.038 -0.079,-0.096 -0.127,-0.136 -0.032,-0.027 -0.07,-0.047 -0.104,-0.074 -0.061,-0.049 -0.112,-0.11 -0.168,-0.166 -0.094,-0.019 -0.189,-0.037 -0.284,-0.051 -0.08,-0.014 -0.157,-0.035 -0.232,-0.065 -0.197,-0.06 -0.409,-0.077 -0.603,-0.143 -0.077,-0.025 -0.15,-0.068 -0.221,-0.106 -0.102,-0.055 -0.213,-0.093 -0.33,-0.106 -0.128,-0.014 -0.251,0.038 -0.377,0.051 0.023,-0.039 0.149,-0.049 0.199,-0.063 0.148,-0.041 0.291,-0.028 0.442,-0.04 0.084,-0.006 0.142,-0.087 0.227,-0.104 0.086,-0.018 0.186,-0.005 0.274,-0.015 0.03,-0.017 0.06,-0.031 0.093,-0.043 0.172,-0.058 0.357,-0.055 0.531,-0.104 0.176,-0.049 0.366,-0.048 0.547,-0.077 0.123,-0.019 0.237,-0.029 0.36,-0.029 0.098,0 0.271,-0.018 0.357,0.033 0.104,0.062 0.078,0.212 0.109,0.312 0.035,0.115 0.121,0.194 0.225,0.253 0.102,0.046 0.205,0.089 0.309,0.129 0.077,0.044 0.159,0.071 0.246,0.08 0.115,0.017 0.224,0.029 0.337,0.05 0.124,0.022 0.255,0.038 0.381,0.043 0.251,0.011 0.495,0.051 0.74,0.103 0.163,0.034 0.348,0.06 0.511,0.018 0.172,-0.045 0.329,-0.115 0.421,-0.278 0.056,-0.099 0.129,-0.18 0.187,-0.279 0.017,-0.028 0.03,-0.057 0.042,-0.087 0,-0.009 0,-0.017 10e-4,-0.027 0,-0.163 0.048,-0.321 0.054,-0.482 C 3.543,-1.879 3.521,-1.988 3.49,-2.113 3.478,-2.161 3.481,-2.201 3.453,-2.244 3.418,-2.297 3.364,-2.332 3.318,-2.372 3.273,-2.41 3.228,-2.448 3.185,-2.488 3.172,-2.487 3.161,-2.487 3.147,-2.485 3.018,-2.467 3.017,-2.413 2.927,-2.337 2.873,-2.292 2.813,-2.246 2.761,-2.198 2.721,-2.163 2.696,-2.141 2.668,-2.09 2.635,-2.03 2.625,-1.906 2.573,-1.862 2.512,-1.997 2.56,-2.27 2.631,-2.387 c 0.075,-0.124 0.165,-0.19 0.284,-0.264 0.116,-0.072 0.219,-0.107 0.347,-0.15 0.088,-0.03 0.166,-0.061 0.256,-0.081 0.074,-0.016 0.121,-0.047 0.203,-0.031 0.032,0.006 0.063,0.016 0.095,0.023 0.072,0.014 0.12,0.041 0.185,0.078 0.077,0.045 0.143,0.097 0.22,0.139 0.008,0.065 0.107,0.135 0.143,0.167 0.049,0.045 0.098,0.09 0.146,0.136 0.126,0.124 0.125,0.232 0.138,0.416 0.014,0.208 -0.017,0.449 -0.151,0.618 -0.121,0.152 -0.253,0.279 -0.332,0.461 -0.073,0.17 -0.134,0.341 -0.243,0.493 C 3.895,-0.347 3.87,-0.311 3.847,-0.273 3.821,-0.245 3.806,-0.212 3.801,-0.175 3.786,-0.155 3.792,-0.161 3.77,-0.139 3.721,-0.089 3.653,-0.031 3.595,0.009 3.511,0.066 3.409,0.067 3.32,0.113 3.191,0.179 3.009,0.138 2.877,0.197 2.801,0.231 2.75,0.311 2.666,0.341 2.525,0.392 2.368,0.464 2.242,0.547 2.118,0.629 1.952,0.582 1.813,0.56 1.463,0.504 1.126,0.378 0.798,0.237 0.614,0.157 0.43,0.055 0.233,0.009 0.157,-0.009 0.076,0.017 0,0"
             style="fill:#100f0d;fill-opacity:1;fill-rule:nonzero;stroke:none"
             id="path55165" />
        </g>
        <g
           id="g55167"
           transform="translate(81.8021,496.712)">
          <path
             d="m 0,0 c 0.1,0.04 0.201,0.089 0.307,0.111 0.065,0.014 0.125,0.022 0.188,0.044 l -0.531,0.08 c -0.106,0 -0.206,-0.002 -0.312,-0.02 C -0.454,0.197 -0.553,0.169 -0.655,0.136 -0.883,0.063 -1.117,0.025 -1.34,-0.065 -1.58,-0.161 -1.802,-0.297 -2.035,-0.403 -2.14,-0.451 -2.252,-0.45 -2.355,-0.503 -2.441,-0.547 -2.49,-0.578 -2.57,-0.64 -2.739,-0.772 -2.92,-0.874 -3.071,-1.026 -3.196,-1.151 -3.387,-1.183 -3.523,-1.299 -3.69,-1.443 -3.831,-1.663 -3.917,-1.862 -3.976,-1.998 -3.985,-2.133 -3.992,-2.28 -3.996,-2.372 -4.017,-2.444 -4.048,-2.529 -4.152,-2.821 -4.457,-2.942 -4.665,-3.144 -4.712,-3.197 -4.762,-3.246 -4.816,-3.293 -4.865,-3.332 -4.915,-3.369 -4.967,-3.404 -4.986,-3.434 -5.003,-3.465 -5.016,-3.497 -5.047,-3.56 -5.089,-3.616 -5.139,-3.665 -5.218,-3.745 -5.3,-3.821 -5.386,-3.893 -5.489,-3.957 -5.601,-4 -5.721,-4.022 -5.849,-4.068 -5.979,-4.107 -6.111,-4.14 -6.24,-4.151 -6.37,-4.155 -6.5,-4.15 c -0.194,0.008 -0.413,0.043 -0.594,0.113 -0.01,0.024 -0.029,0.034 -0.058,0.03 -0.063,0.009 -0.125,0.023 -0.186,0.042 -0.04,0.005 -0.07,0.005 -0.109,0.014 -0.107,0.025 -0.252,0.056 -0.343,0.121 -0.222,0.16 -0.444,0.321 -0.651,0.501 -0.091,0.079 -0.092,0.095 -0.093,0.213 0,0.145 0.015,0.305 0.085,0.436 0.05,0.095 0.167,0.215 0.272,0.252 0.073,0.026 0.085,0.008 0.14,-0.019 0.068,-0.033 0.168,-0.022 0.139,-0.129 0.096,0.162 0.066,0.39 -0.035,0.537 -0.062,0.09 -0.053,0.124 -0.16,0.123 -0.062,-0.001 -0.139,0.014 -0.2,10e-4 -0.098,-0.02 -0.197,-0.031 -0.295,-0.048 -0.072,-0.013 -0.109,-0.026 -0.158,-0.086 -0.081,-0.101 -0.154,-0.205 -0.21,-0.318 -0.046,-0.09 -0.124,-0.164 -0.166,-0.263 -0.086,-0.199 -0.079,-0.363 -0.049,-0.575 0.021,-0.142 0.032,-0.14 0.054,-0.245 0.005,-0.027 -0.002,-0.048 0.005,-0.077 0.013,-0.049 0.04,-0.089 0.05,-0.139 0.014,-0.075 0.009,-0.124 0.046,-0.199 0.078,-0.161 0.101,-0.378 0.278,-0.461 0.068,-0.032 0.123,-0.048 0.188,-0.085 0.129,-0.073 0.273,-0.08 0.415,-0.107 0.157,-0.029 0.294,-0.056 0.444,-0.108 0.207,-0.072 0.382,-0.202 0.575,-0.304 0.097,-0.051 0.216,-0.072 0.321,-0.107 0.092,-0.032 0.178,-0.084 0.272,-0.113 0.167,-0.052 0.385,-0.055 0.555,-0.06 0.182,-0.005 0.351,0.011 0.529,0.043 0.079,0.015 0.15,0.046 0.227,0.066 0.067,0.017 0.163,0.01 0.223,0.051 0.076,0.053 0.092,0.078 0.192,0.107 0.225,0.066 0.442,0.143 0.67,0.2 0.174,0.043 0.335,0.125 0.507,0.175 0.127,0.036 0.24,0.071 0.316,0.192 0.014,0.021 0.019,0.051 0.033,0.07 0.025,0.035 0.081,0.063 0.111,0.094 0.093,0.098 0.203,0.185 0.285,0.292 0.065,0.084 0.114,0.176 0.161,0.271 0.06,0.12 0.129,0.212 0.151,0.348 0.004,0.027 0,0.054 0.002,0.081 0.009,0.08 0.07,0.184 0.097,0.254 0.066,0.174 0.1,0.343 0.185,0.509 0.045,0.087 0.073,0.184 0.122,0.268 0.047,0.078 0.116,0.162 0.178,0.229 0.067,0.073 0.123,0.15 0.194,0.217 0.159,0.154 0.286,0.362 0.404,0.548 0.085,0.134 0.145,0.261 0.206,0.408 0.044,0.106 0.104,0.206 0.188,0.286 0.145,0.138 0.331,0.2 0.492,0.312 C -0.338,-0.081 -0.171,-0.068 0,0"
             style="fill:#100f0d;fill-opacity:1;fill-rule:nonzero;stroke:none"
             id="path55169" />
        </g>
        <g
           id="g55171"
           transform="translate(73.4319,495.623)">
          <path
             d="M 0,0 C 0.112,0.014 0.196,0.096 0.302,0.104 0.382,0.11 0.475,0.11 0.554,0.096 0.616,0.085 0.667,0.075 0.73,0.075 0.759,0.076 0.786,0.082 0.813,0.073 0.887,0.049 0.939,-0.034 1.023,-0.053 1.043,-0.058 1.064,-0.054 1.083,-0.06 1.151,-0.081 1.211,-0.153 1.281,-0.179 1.317,-0.193 1.352,-0.202 1.387,-0.217 1.449,-0.244 1.503,-0.284 1.563,-0.313 1.78,-0.416 1.977,-0.496 2.222,-0.508 2.424,-0.517 2.637,-0.529 2.83,-0.463 3.012,-0.4 3.152,-0.255 3.301,-0.139 3.45,-0.024 3.594,0.121 3.696,0.28 3.733,0.338 3.743,0.377 3.741,0.447 L 3.316,0.368 C 3.181,0.363 3.042,0.385 2.908,0.407 2.797,0.425 2.673,0.436 2.563,0.462 2.37,0.509 2.186,0.585 1.99,0.623 1.873,0.646 1.752,0.657 1.637,0.685 1.541,0.708 1.453,0.746 1.361,0.781 1.275,0.814 1.217,0.824 1.128,0.838 1.047,0.851 0.972,0.88 0.893,0.894 0.73,0.923 0.537,0.902 0.381,0.859 0.165,0.8 -0.043,0.745 -0.251,0.66 -0.506,0.555 -0.763,0.457 -1.021,0.358 -1.198,0.29 -1.35,0.256 -1.541,0.258 -1.718,0.261 -1.895,0.296 -2.066,0.337 -2.136,0.353 -2.217,0.387 -2.288,0.364 -2.397,0.329 -2.504,0.225 -2.596,0.161 -2.861,-0.024 -3.211,-0.005 -3.512,0.072 c -0.087,0.022 -0.171,0.092 -0.185,0.19 -0.013,0.09 0.011,0.216 0.023,0.303 0.008,0.052 0.008,0.124 0.035,0.168 0.042,0.072 0.154,0.146 0.237,0.162 0.064,0.011 0.135,0.004 0.2,0.004 0.045,-0.001 0.125,0.012 0.172,-0.004 0.01,-0.076 0.003,-0.163 -0.056,-0.218 -0.076,-0.07 -0.212,-0.047 -0.28,-0.117 0.044,-0.099 0.302,0.046 0.364,0.073 0.136,0.058 0.132,0.244 0.132,0.372 0,0.067 0.015,0.149 -0.005,0.213 C -2.911,1.332 -3.005,1.393 -3.09,1.471 -3.166,1.54 -3.212,1.595 -3.307,1.63 -3.383,1.657 -3.459,1.668 -3.539,1.682 -3.683,1.708 -3.824,1.738 -3.97,1.717 -4.109,1.698 -4.293,1.649 -4.378,1.529 -4.424,1.463 -4.489,1.406 -4.531,1.338 -4.583,1.253 -4.625,1.156 -4.669,1.067 c -0.08,-0.162 -0.086,-0.424 -0.054,-0.6 0.015,-0.084 0.064,-0.154 0.075,-0.238 0.013,-0.098 0.039,-0.181 0.086,-0.268 0.044,-0.083 0.102,-0.107 0.176,-0.168 0.054,-0.046 0.102,-0.095 0.159,-0.136 0.093,-0.067 0.205,-0.127 0.305,-0.182 0.051,-0.029 0.102,-0.056 0.16,-0.063 0.134,-0.015 0.268,-0.025 0.402,-0.047 0.071,-0.012 0.128,-0.013 0.196,-0.033 0.125,-0.035 0.264,-0.054 0.393,-0.053 0.207,0.001 0.404,0.007 0.591,0.113 0.117,0.066 0.245,0.118 0.368,0.175 0.114,0.053 0.229,0.059 0.347,0.101 0.137,0.048 0.26,0.13 0.403,0.162 0.187,0.042 0.372,0.096 0.559,0.135 C -0.332,0 -0.17,-0.022 0,0"
             style="fill:#100f0d;fill-opacity:1;fill-rule:nonzero;stroke:none"
             id="path55173" />
        </g>
        <g
           id="g55175"
           transform="translate(86.6141,498.834)">
          <path
             d="m 0,0 c 0.011,-0.171 -0.033,-0.327 -0.132,-0.468 -0.165,-0.185 -0.331,-0.369 -0.499,-0.552 -0.13,-0.171 -0.292,-0.303 -0.485,-0.396 -0.172,-0.094 -0.353,-0.169 -0.54,-0.226 -0.103,-0.017 -0.207,-0.018 -0.31,-0.006 -0.046,0.01 -0.086,10e-4 -0.12,-0.027 l 0.717,0.558 C -1.495,-1.147 -1.626,-1.167 -1.75,-1.2 -1.871,-1.232 -1.986,-1.303 -2.098,-1.356 -2.262,-1.433 -2.427,-1.504 -2.583,-1.596 -2.74,-1.69 -2.898,-1.783 -3.054,-1.88 -3.159,-1.946 -3.258,-2.027 -3.366,-2.088 -3.449,-2.135 -3.541,-2.144 -3.617,-2.207 -3.75,-2.316 -3.81,-2.479 -3.813,-2.646 c -10e-4,-0.104 0.024,-0.195 0.029,-0.297 0.01,-0.198 -0.023,-0.387 -0.027,-0.583 -0.003,-0.167 -0.055,-0.328 -0.055,-0.493 0,-0.105 -0.021,-0.202 -0.091,-0.287 -0.067,-0.082 -0.183,-0.163 -0.276,-0.215 -0.114,-0.065 -0.234,-0.142 -0.362,-0.174 -0.057,-0.014 -0.122,-0.065 -0.178,-0.063 -0.087,0.004 -0.119,0.104 -0.128,0.177 0.007,0.053 0.003,0.104 -0.012,0.154 -0.015,0.026 -0.028,0.053 -0.036,0.082 -0.011,0.048 -0.005,0.097 -0.005,0.146 0,0.064 0,0.122 0.013,0.184 0.009,0.037 0.024,0.069 0.011,0.107 -0.048,0.01 -0.089,-0.025 -0.125,-0.051 -0.086,-0.065 -0.194,-0.145 -0.27,-0.222 -0.072,-0.073 -0.137,-0.168 -0.181,-0.261 -0.073,-0.153 -0.036,-0.37 0.007,-0.525 0.026,-0.096 0.135,-0.187 0.216,-0.241 0.039,-0.025 0.079,-0.038 0.12,-0.056 0.08,-0.035 0.15,-0.092 0.235,-0.118 0.09,-0.028 0.188,-0.039 0.28,-0.064 0.086,-0.023 0.181,-0.037 0.27,-0.047 0.184,-0.021 0.421,-0.03 0.584,0.07 0.182,0.111 0.355,0.227 0.356,0.461 0.001,0.14 -0.006,0.276 0.014,0.416 0.033,0.234 0.071,0.47 0.12,0.701 0.057,0.268 0.147,0.548 0.322,0.766 0.094,0.117 0.215,0.209 0.326,0.31 0.115,0.104 0.205,0.207 0.345,0.275 0.22,0.109 0.446,0.211 0.663,0.326 0.13,0.07 0.249,0.15 0.381,0.216 0.116,0.058 0.213,0.12 0.318,0.196 0.182,0.131 0.409,0.239 0.549,0.416 0.159,0.2 0.302,0.466 0.362,0.713 0.04,0.165 0.051,0.334 0.078,0.501 0.021,0.125 0.036,0.248 0.02,0.375 C -0.029,0.237 0.002,0.04 0,0"
             style="fill:#100f0d;fill-opacity:1;fill-rule:nonzero;stroke:none"
             id="path55177" />
        </g>
        <g
           id="g55179"
           transform="translate(87.2931,503.611)">
          <path
             d="M 0,0 C -0.14,0 -0.287,-0.013 -0.423,0.025 -0.697,0.1 -0.883,0.306 -1.066,0.513 -0.993,0.466 -0.92,0.423 -0.832,0.398 -0.714,0.364 -0.602,0.29 -0.485,0.266 -0.409,0.25 -0.338,0.253 -0.264,0.227 -0.129,0.177 -0.004,0.092 0.134,0.042 0.175,0.027 0.216,0.014 0.257,0 H 0 m -0.214,-1.647 c -0.122,-0.116 -0.264,-0.205 -0.409,-0.29 0.018,0.02 0.036,0.04 0.057,0.058 0.058,0.047 0.136,0.065 0.191,0.111 0.043,0.035 0.064,0.091 0.111,0.124 0.031,0.022 0.067,0.038 0.103,0.052 -0.017,-0.018 -0.034,-0.037 -0.053,-0.055 M -2.26,1.728 C -2.263,1.736 -2.268,1.743 -2.272,1.75 -2.249,1.738 -2.226,1.725 -2.202,1.713 -2.151,1.696 -2.098,1.681 -2.045,1.668 -2.017,1.643 -1.989,1.617 -1.963,1.59 -1.934,1.566 -1.901,1.548 -1.87,1.527 -2.004,1.587 -2.133,1.656 -2.26,1.728 m 0.105,-3.013 c 0,-0.049 -0.003,-0.1 0,-0.149 0.004,-0.069 0.026,-0.129 0.028,-0.199 0.007,-0.298 -0.02,-0.582 -0.048,-0.877 -0.009,-0.102 -0.044,-0.192 -0.056,-0.291 -0.005,-0.039 -0.011,-0.065 -0.021,-0.09 -0.082,-0.021 -0.164,-0.047 -0.235,-0.09 C -2.534,-3.01 -2.572,-3.038 -2.622,-3.061 -2.66,-3.077 -2.7,-3.088 -2.74,-3.1 c 0.04,0.072 0.074,0.146 0.096,0.228 0.035,0.131 0.043,0.225 0.018,0.358 -0.023,0.124 -0.032,0.239 -0.033,0.367 -0.001,0.107 -0.053,0.2 -0.074,0.306 -0.032,0.164 -0.066,0.327 -0.09,0.491 -0.019,0.125 -0.069,0.241 -0.075,0.368 -0.005,0.103 0,0.206 0.001,0.309 0.002,0.099 -0.022,0.166 -0.043,0.258 -0.023,0.102 0.023,0.094 -0.05,0.187 -0.116,0.147 -0.276,0.257 -0.405,0.392 -0.027,0.028 -0.058,0.057 -0.073,0.094 -0.034,0.077 -0.023,0.16 0.029,0.223 0.069,0.085 0.153,0.19 0.172,0.301 0.031,0.177 -0.056,0.381 -0.122,0.543 -0.027,0.066 -0.054,0.137 -0.086,0.206 0.123,-0.04 0.245,-0.081 0.367,-0.12 0.147,-0.047 0.293,-0.098 0.439,-0.148 0.026,-0.013 0.041,-0.033 0.04,-0.064 0.038,-0.075 0.06,-0.165 0.077,-0.247 0.052,-0.239 0.155,-0.438 0.264,-0.653 0.054,-0.107 0.134,-0.202 0.176,-0.316 0.03,-0.082 0.043,-0.171 0.069,-0.254 0.022,-0.072 0.059,-0.138 0.079,-0.211 0.005,-0.017 0.009,-0.035 0.013,-0.052 -0.075,-0.084 -0.169,-0.192 -0.197,-0.295 -0.038,-0.135 -0.007,-0.315 -0.007,-0.456 m -1.38,-1.814 C -3.553,-3.185 -3.584,-3.264 -3.613,-3.345 -3.685,-3.399 -3.76,-3.453 -3.839,-3.49 -3.904,-3.52 -3.957,-3.537 -4.013,-3.585 -4.24,-3.782 -4.42,-4.03 -4.665,-4.207 -4.82,-4.32 -4.983,-4.406 -5.161,-4.47 c -0.072,-0.026 -0.144,-0.054 -0.213,-0.087 -0.188,-0.09 -0.349,-0.209 -0.551,-0.274 -0.128,-0.04 -0.256,-0.093 -0.387,-0.118 -0.074,-0.013 -0.147,-0.013 -0.222,-0.023 -0.121,-0.016 -0.231,-0.049 -0.354,-0.048 -0.108,0.002 -0.22,0.015 -0.326,-0.01 -0.071,-0.017 -0.136,-0.032 -0.206,-0.041 -0.116,-0.016 -0.187,-0.037 -0.275,-0.114 -0.019,-0.017 -0.037,-0.033 -0.055,-0.049 0.028,0.002 0.057,0.004 0.087,0.004 0.025,-10e-4 0.093,0.013 0.114,-0.005 0.034,-0.028 -0.009,-0.111 -0.017,-0.138 -0.04,-0.124 -0.063,-0.295 -0.173,-0.369 C -7.821,-5.797 -7.904,-5.819 -8,-5.834 -8.149,-5.857 -8.294,-5.898 -8.443,-5.922 -8.75,-5.974 -9.046,-5.973 -9.357,-5.974 c -0.266,-0.002 -0.527,0.031 -0.791,0.055 -0.208,0.019 -0.413,0.045 -0.623,0.055 -0.14,0.006 -0.298,0.01 -0.434,0.042 -0.364,0.085 -0.719,0.191 -1.094,0.193 -0.19,10e-4 -0.387,0.005 -0.576,0.032 -0.184,0.026 -0.365,0.071 -0.551,0.089 -0.187,0.018 -0.377,0.011 -0.563,0.042 -0.087,0.015 -0.169,0.042 -0.252,0.067 0.037,-0.032 0.064,-0.075 0.067,-0.146 -0.147,-0.027 -0.297,-0.058 -0.446,-0.076 -0.19,-0.023 -0.357,0.009 -0.537,0.062 -0.129,0.039 -0.222,0.099 -0.332,0.169 -0.12,0.077 -0.259,0.131 -0.387,0.193 -0.424,0.204 -0.843,0.427 -1.282,0.601 -0.269,0.106 -0.508,0.253 -0.733,0.437 -0.115,0.094 -0.212,0.198 -0.344,0.265 -0.037,0.019 -0.073,0.039 -0.11,0.059 0.06,-0.021 0.12,-0.043 0.178,-0.068 0.126,-0.055 0.245,-0.118 0.377,-0.158 0.076,-0.023 0.156,-0.04 0.237,-0.056 0.019,-0.021 0.039,-0.042 0.061,-0.061 0.077,-0.066 0.171,-0.106 0.258,-0.159 0.157,-0.098 0.3,-0.215 0.479,-0.272 0.106,-0.034 0.211,-0.084 0.323,-0.088 0.124,-0.004 0.233,-0.025 0.35,-0.068 0.092,-0.034 0.195,-0.058 0.285,-0.094 0.04,-0.017 0.063,-0.043 0.106,-0.052 0.134,-0.029 0.268,-0.056 0.402,-0.09 0.056,-0.014 0.123,-0.021 0.176,-0.046 0.058,-0.027 0.085,-0.075 0.128,-0.12 0.035,-0.035 0.079,-0.061 0.124,-0.086 -0.01,-0.002 -0.02,-0.004 -0.031,-0.005 0.015,0.001 0.03,-0.002 0.045,-0.003 0.019,-0.01 0.037,-0.02 0.056,-0.03 0.138,-0.074 0.291,-0.081 0.446,-0.078 0.035,-0.009 0.069,-0.019 0.104,-0.03 -0.014,0.012 -0.029,0.023 -0.045,0.032 0.05,0.002 0.101,0.004 0.15,0.004 0.438,0.005 0.861,-0.102 1.299,-0.108 0.166,-0.002 0.323,-0.009 0.488,-0.023 0.143,-0.012 0.288,0.011 0.431,10e-4 0.13,-0.009 0.253,-0.073 0.375,-0.11 0.135,-0.041 0.275,-0.069 0.415,-0.092 0.118,-0.018 0.235,-0.008 0.353,-0.019 0.224,-0.021 0.444,-0.021 0.67,-0.021 0.558,0.001 1.104,-10e-4 1.65,0.132 0.142,0.034 0.27,0.076 0.4,0.143 0.126,0.066 0.209,0.14 0.305,0.226 -0.036,-0.003 -0.071,-0.008 -0.107,-0.016 -0.089,-0.019 -0.16,-0.034 -0.25,-0.034 -0.046,0 -0.095,0.007 -0.139,-0.002 -0.036,-0.008 -0.057,-0.023 -0.095,-0.025 -0.03,-0.002 -0.062,0.005 -0.092,0.002 -0.051,-0.006 -0.097,-0.027 -0.15,-0.029 -0.113,-0.003 -0.219,-0.017 -0.331,-0.035 -0.107,-0.018 -0.216,-0.053 -0.323,-0.065 -0.238,-0.028 -0.493,-0.005 -0.732,-0.005 -0.132,0 -0.263,10e-4 -0.395,0 -0.144,-0.001 -0.281,0.027 -0.423,0.026 -0.123,0 -0.245,10e-4 -0.368,10e-4 -0.321,-10e-4 -0.625,0.06 -0.934,0.152 -0.179,0.053 -0.359,0.117 -0.546,0.136 -0.089,0.009 -0.153,0.033 -0.239,0.051 -0.176,0.038 -0.363,0.004 -0.534,0.057 -0.242,0.076 -0.49,0.089 -0.74,0.122 -0.138,0.018 -0.274,0.012 -0.409,0.052 -0.069,0.021 -0.138,0.035 -0.207,0.047 -0.075,0.048 -0.146,0.094 -0.218,0.15 -0.113,0.087 -0.218,0.164 -0.344,0.232 -0.151,0.08 -0.326,0.103 -0.472,0.2 -0.033,0.022 -0.065,0.049 -0.095,0.075 -0.007,0.009 -0.015,0.017 -0.017,0.025 -0.006,0.026 10e-4,0.067 0.002,0.094 0,0.061 -0.012,0.092 -0.033,0.146 -0.022,0.054 -0.02,0.096 -0.02,0.155 0,0.132 -0.026,0.249 -0.09,0.363 -0.049,0.089 -0.129,0.167 -0.164,0.265 -0.072,0.203 -0.047,0.443 -0.14,0.639 -0.016,0.034 0.006,0.01 -0.028,0.043 -0.028,0.028 -0.08,0.038 -0.112,0.061 -0.044,0.031 -0.075,0.063 -0.08,0.117 -0.006,0.071 0.03,0.154 0.03,0.228 0.001,0.056 0,0.112 0,0.169 0,0.202 -0.007,0.406 -0.002,0.609 0.003,0.093 0.012,0.199 0.03,0.29 0.012,0.058 0.048,0.104 0.059,0.164 0.023,0.121 0.035,0.244 0.05,0.365 0.022,0.173 0.067,0.35 0.109,0.52 0.037,0.15 0.079,0.24 0.183,0.358 0.098,0.111 0.192,0.23 0.301,0.327 0.04,0.037 0.059,0.056 0.081,0.112 0.048,0.125 0.04,0.291 -0.003,0.418 -0.019,0.055 -0.062,0.095 -0.068,0.154 -0.003,0.041 0.012,0.085 0.02,0.124 0.045,0.224 0.13,0.438 0.31,0.585 0.012,0.01 0.024,0.02 0.036,0.03 0.02,0.006 0.04,0.013 0.06,0.019 0.165,0.051 0.305,0.129 0.463,0.197 0.244,0.104 0.486,0.216 0.727,0.326 0.063,0.029 0.134,0.053 0.195,0.086 0.028,0.016 0.054,0.035 0.08,0.053 0.018,0.003 0.036,0.006 0.053,0.011 0.027,0.008 0.131,0.064 0.122,0.06 0.098,0.04 0.21,0.068 0.303,0.121 0.004,0.003 0.007,0.006 0.011,0.008 0.061,0.014 0.122,0.022 0.18,0.047 0.035,0.015 0.065,0.028 0.101,0.039 0.25,0.075 0.511,0.117 0.769,0.145 0.102,0.011 0.195,0.039 0.29,0.067 0.282,-0.004 0.566,-0.007 0.848,0.007 0.156,0.008 0.281,0.022 0.432,-0.005 0.16,-0.029 0.324,-0.029 0.484,-0.059 0.183,-0.035 0.355,-0.093 0.539,-0.121 0.19,-0.028 0.358,-0.113 0.532,-0.19 0.177,-0.078 0.347,-0.085 0.536,-0.083 0.474,0.007 0.963,-0.01 1.427,-0.105 C -6.91,2.764 -6.541,2.649 -6.164,2.569 -5.935,2.52 -5.711,2.471 -5.496,2.388 -5.448,2.361 -5.4,2.335 -5.353,2.309 -5.261,2.257 -5.173,2.212 -5.082,2.157 -4.879,2.033 -4.683,1.905 -4.512,1.735 -4.44,1.664 -4.369,1.556 -4.329,1.462 -4.28,1.346 -4.305,1.2 -4.305,1.077 c 0,-0.072 0.005,-0.147 0,-0.219 C -4.308,0.815 -4.316,0.819 -4.331,0.781 -4.371,0.68 -4.401,0.55 -4.383,0.439 c 0.022,-0.135 0.118,-0.236 0.195,-0.345 0.097,-0.135 0.188,-0.263 0.25,-0.419 0.055,-0.14 0.109,-0.281 0.155,-0.424 0.074,-0.228 0.102,-0.468 0.163,-0.699 0.036,-0.136 0.091,-0.265 0.126,-0.401 0.046,-0.176 0.064,-0.333 0.065,-0.514 10e-4,-0.249 -0.053,-0.492 -0.106,-0.736 m -5.968,-3.087 c -0.138,0 -0.281,0.011 -0.417,-0.006 -0.111,-0.014 -0.217,-0.025 -0.329,-0.019 -0.156,0.009 -0.309,0.019 -0.465,0.022 -0.006,0 -0.011,0.002 -0.017,0.002 0.077,-10e-4 0.154,-10e-4 0.231,-10e-4 0.162,-0.001 0.323,-0.01 0.482,0.028 0.071,0.017 0.136,0.029 0.209,0.028 0.114,-0.003 0.227,10e-4 0.34,10e-4 0.19,-0.002 0.378,-0.036 0.567,-0.048 -0.196,-0.025 -0.407,-0.007 -0.601,-0.007 m -8.716,5.342 c 0.05,0.128 0.082,0.267 0.102,0.403 0.008,0.057 0,0.109 0.019,0.162 0.037,0.1 0.087,0.186 0.112,0.291 0.019,0.079 0.043,0.14 0.072,0.212 0.018,0.045 0.05,0.083 0.069,0.127 0.021,0.047 0.013,0.09 0.03,0.135 0.012,0.031 0.041,0.056 0.056,0.086 0.014,0.027 0.012,0.042 0.024,0.071 0.013,0.031 0.033,0.061 0.047,0.091 0.028,0.062 0.062,0.124 0.083,0.191 0.01,0.029 0.017,0.061 0.022,0.095 0.227,0.115 0.444,0.256 0.663,0.381 0.118,0.067 0.192,0.133 0.25,0.254 0.032,0.067 0.079,0.11 0.122,0.167 0.039,0.052 0.068,0.101 0.123,0.139 0.022,0.016 0.045,0.029 0.069,0.042 0.061,0.01 0.122,0.02 0.183,0.03 -0.061,-0.071 -0.124,-0.141 -0.184,-0.213 -0.064,-0.075 -0.15,-0.14 -0.198,-0.226 -0.071,-0.127 -0.071,-0.223 -0.07,-0.362 0,-0.092 0.014,-0.187 -0.017,-0.274 -0.027,-0.076 -0.07,-0.158 -0.116,-0.224 -0.135,-0.194 -0.387,-0.295 -0.425,-0.552 -0.018,-0.122 0.072,-0.167 0.105,-0.273 0.02,-0.065 -0.006,-0.159 -0.015,-0.224 -0.013,-0.086 -0.025,-0.176 -0.05,-0.26 -0.029,-0.097 -0.07,-0.176 -0.066,-0.28 0.011,-0.253 0.035,-0.506 0.051,-0.759 0.003,-0.061 0.03,-0.235 -0.002,-0.289 -0.033,-0.055 -0.134,-0.036 -0.161,-0.087 -0.007,-0.013 0.003,-0.085 0.004,-0.101 0.004,-0.052 0.028,-0.087 0.042,-0.138 0.017,-0.059 0.016,-0.115 0.038,-0.171 0.05,-0.134 0.053,-0.247 0.164,-0.345 0.055,-0.049 0.134,-0.101 0.162,-0.174 0.041,-0.108 0.036,-0.292 -0.004,-0.4 -0.004,-0.009 -0.008,-0.014 -0.012,-0.021 -0.05,0.016 -0.101,0.029 -0.152,0.042 -0.005,0.006 -0.01,0.013 -0.015,0.019 -0.043,0.052 -0.094,0.067 -0.145,0.106 -0.18,0.136 -0.405,0.187 -0.562,0.351 -0.056,0.059 -0.058,0.131 -0.072,0.207 -0.024,0.137 -0.077,0.275 -0.113,0.411 -0.016,0.059 -0.047,0.083 -0.069,0.135 -0.033,0.074 0.059,-0.023 -0.034,0.11 -0.053,0.075 -0.119,0.139 -0.182,0.205 0,0.068 0,0.135 0,0.203 0,0.231 -0.033,0.489 0.052,0.707 m 4.009,3.738 c -0.065,-0.027 -0.124,-0.042 -0.2,-0.06 -0.146,-0.034 -0.294,-0.054 -0.441,-0.073 0.068,0.044 0.137,0.102 0.212,0.129 0.126,0.008 0.252,0.009 0.378,0.004 0.017,0 0.034,0 0.051,0 m 1,0.297 c -0.064,-0.026 -0.129,-0.051 -0.193,-0.076 0.021,0.015 0.041,0.031 0.062,0.04 0.023,0.012 0.077,0.025 0.131,0.036 m 0.431,0.154 c -0.028,-0.01 -0.056,-0.02 -0.084,-0.029 0.012,0.01 0.024,0.019 0.04,0.025 0.015,10e-4 0.03,0.003 0.044,0.004 m -3.722,-0.863 c 0.297,0.185 0.614,0.327 0.902,0.527 0.148,0.103 0.275,0.201 0.447,0.271 0.159,0.064 0.305,0.147 0.464,0.208 0.225,0.087 0.428,0.213 0.646,0.311 0.078,0.035 0.169,0.039 0.253,0.057 0.071,0.017 0.139,0.039 0.209,0.059 0.098,0.028 0.203,0.066 0.298,0.09 0.105,0.027 0.228,-0.026 0.33,0.003 0.021,0.006 0.026,0.023 0.052,0.029 0.09,0.018 0.18,-0.004 0.269,0.039 0.019,0.018 0.041,0.032 0.066,0.04 0.029,-0.012 0.059,-0.008 0.089,0.013 0.113,0.039 0.192,0.125 0.306,0.162 0.133,0.044 0.225,0.091 0.358,0.09 0.113,-0.001 0.242,-0.019 0.353,0.005 0.134,0.028 0.259,0.061 0.394,0.08 0.21,0.03 0.427,0.018 0.642,0.022 0.153,0.004 0.312,-0.025 0.461,-0.055 0.003,-10e-4 0.007,-0.002 0.011,-0.002 0.005,0.012 0.015,0.024 0.037,0.032 0.057,0.021 0.198,-0.035 0.243,-0.044 0.072,-0.013 0.127,-0.011 0.199,-0.017 0.191,-0.015 0.38,-0.038 0.567,-0.079 0.166,-0.036 0.332,-0.097 0.492,-0.147 0.094,-0.029 0.168,-0.098 0.255,-0.135 0.092,-0.039 0.209,-0.059 0.303,-0.092 0.13,-0.047 0.262,-0.07 0.387,-0.125 C -7.347,3.771 -7.229,3.743 -7.103,3.716 -7.092,3.711 -7.082,3.706 -7.07,3.702 -6.952,3.663 -6.836,3.623 -6.717,3.591 -6.697,3.584 -6.678,3.577 -6.658,3.57 -6.629,3.562 -6.601,3.559 -6.572,3.557 -6.553,3.554 -6.534,3.549 -6.515,3.546 -6.381,3.525 -6.252,3.49 -6.122,3.455 -6.072,3.442 -6.021,3.437 -5.971,3.429 -5.962,3.426 -5.952,3.424 -5.942,3.42 -5.889,3.4 -5.834,3.377 -5.78,3.353 -5.691,3.298 -5.613,3.229 -5.514,3.179 -5.442,3.143 -5.39,3.111 -5.311,3.099 -5.302,3.097 -5.293,3.096 -5.284,3.095 -5.255,3.076 -5.225,3.057 -5.193,3.041 -5.136,3.01 -5.075,2.994 -5.014,2.971 -4.9,2.928 -4.783,2.896 -4.668,2.855 -4.787,2.869 -4.904,2.889 -5.011,2.92 -5.127,2.954 -5.232,2.974 -5.348,3.001 -5.575,3.053 -5.791,3.167 -6.02,3.223 -6.202,3.267 -6.391,3.287 -6.575,3.324 -6.833,3.376 -7.088,3.442 -7.346,3.493 -7.501,3.523 -7.614,3.559 -7.752,3.631 -7.798,3.658 -7.847,3.68 -7.896,3.7 -7.912,3.713 -7.927,3.726 -7.943,3.739 -8.031,3.779 -8.091,3.645 -8.139,3.589 -8.414,3.647 -8.652,3.781 -8.9,3.908 -9.05,3.985 -9.2,4.059 -9.369,4.061 -9.56,4.063 -9.747,4.102 -9.937,4.114 c -0.08,0.005 -0.156,-0.002 -0.236,0.013 -0.454,0.083 -0.918,0.151 -1.381,0.119 -0.392,-0.027 -0.772,-0.247 -1.1,-0.45 -0.197,-0.123 -0.41,-0.143 -0.626,-0.212 -0.098,-0.032 -0.192,-0.084 -0.29,-0.119 -0.087,-0.032 -0.171,-0.028 -0.26,-0.051 -0.074,-0.019 -0.154,-0.047 -0.225,-0.077 -0.073,-0.031 -0.108,-0.093 -0.168,-0.139 -0.108,-0.082 -0.318,-0.118 -0.451,-0.122 -0.038,-10e-4 -0.078,0.004 -0.115,0.01 -0.064,0.009 -0.131,0.032 -0.195,0.016 C -15.066,3.083 -15.13,3.054 -15.218,3.052 -15.344,3.049 -15.403,3.053 -15.511,3 -15.545,2.983 -15.58,2.97 -15.614,2.955 -15.72,2.91 -15.81,2.838 -15.912,2.783 -16.021,2.725 -16.119,2.654 -16.22,2.587 c -0.064,-0.029 -0.133,-0.04 -0.196,-0.068 -0.058,-0.024 -0.12,-0.074 -0.176,-0.116 -0.032,-0.014 -0.064,-0.028 -0.096,-0.043 0.062,0.041 0.124,0.083 0.187,0.122 m -2.152,-1.675 0.058,0.185 c 0.033,0.022 0.067,0.041 0.101,0.058 -0.052,-0.081 -0.105,-0.163 -0.159,-0.243 m -1.41,-2.866 c -0.014,0.014 -0.03,0.035 -0.046,0.059 0.011,-0.004 0.021,-0.01 0.031,-0.015 0.006,-0.017 0.014,-0.034 0.02,-0.051 -0.002,0.003 -0.003,0.004 -0.005,0.007 M 0.971,-0.345 C 0.961,-0.326 0.942,-0.308 0.931,-0.286 0.909,-0.244 0.908,-0.198 0.876,-0.16 0.827,-0.102 0.735,-0.069 0.666,-0.047 0.661,-0.046 0.655,-0.044 0.65,-0.043 0.636,-0.024 0.619,-0.007 0.595,0 0.583,0.004 0.568,0.005 0.554,0.007 0.545,0.014 0.536,0.022 0.53,0.028 0.382,0.174 0.176,0.297 -0.01,0.388 -0.155,0.46 -0.294,0.553 -0.437,0.637 c 0.033,-0.028 0.066,-0.055 0.101,-0.079 0.011,0 0.022,-0.001 0.033,-0.005 0.01,-0.014 0.02,-0.03 0.028,-0.045 0.1,-0.132 0.273,-0.157 0.404,-0.216 L 0.481,0.007 c -0.001,0 -0.002,0 -0.003,0 C 0.414,0.024 0.35,0.04 0.286,0.058 0.142,0.099 0.051,0.197 -0.065,0.279 -0.204,0.375 -0.36,0.452 -0.488,0.561 -0.514,0.583 -0.539,0.608 -0.567,0.629 -0.701,0.73 -0.833,0.85 -0.956,0.964 -0.986,0.993 -1.011,1.024 -1.036,1.055 -0.933,1.017 -0.843,0.943 -0.753,0.872 -0.764,0.885 -0.776,0.898 -0.789,0.912 -0.854,0.987 -0.931,1.051 -0.994,1.13 -1.215,1.41 -1.528,1.595 -1.766,1.858 -1.805,1.901 -1.841,1.956 -1.89,1.988 -1.917,2.005 -1.949,2.016 -1.978,2.04 -2.086,2.132 -2.183,2.223 -2.276,2.329 -2.325,2.385 -2.381,2.432 -2.431,2.486 -2.458,2.514 -2.466,2.547 -2.49,2.575 -2.518,2.608 -2.566,2.62 -2.604,2.646 -2.641,2.672 -2.665,2.708 -2.705,2.73 c -0.032,0.018 -0.074,0.027 -0.107,0.044 -0.113,0.055 -0.19,0.05 -0.307,0.069 -0.07,0.012 -0.134,0.05 -0.204,0.064 -0.047,0.01 -0.093,0.016 -0.14,0.024 -0.006,0.005 -0.011,0.011 -0.017,0.015 -0.067,0.043 -0.118,0.119 -0.185,0.155 -0.155,0.083 -0.319,0.145 -0.481,0.214 -0.085,0.036 -0.16,0.082 -0.25,0.1 -0.144,0.03 -0.25,0.094 -0.377,0.159 -0.086,0.044 -0.191,0.058 -0.276,0.112 -0.131,0.084 -0.296,0.126 -0.45,0.16 -0.071,0.011 -0.137,0.035 -0.199,0.07 -0.028,0.021 -0.057,0.041 -0.086,0.061 -0.068,0.032 -0.142,0.042 -0.214,0.083 -0.176,0.102 -0.352,0.199 -0.534,0.29 -0.12,0.059 -0.253,0.086 -0.384,0.105 -0.134,0.019 -0.268,-0.005 -0.403,0.032 -0.195,0.055 -0.399,0.129 -0.598,0.16 -0.187,0.029 -0.37,0.084 -0.56,0.101 -0.149,0.013 -0.303,-0.002 -0.451,0.033 -0.102,0.024 -0.188,0.08 -0.285,0.118 -0.252,0.099 -0.495,-0.044 -0.75,-0.04 -0.324,0.005 -0.645,-0.029 -0.968,-0.027 -0.38,0.002 -0.761,0.001 -1.142,0.002 -0.262,0 -0.563,-10e-4 -0.822,-0.059 -0.048,-0.011 -0.097,-0.032 -0.143,-0.048 -0.131,-0.045 -0.268,-0.055 -0.405,-0.069 -0.134,-0.014 -0.258,-0.02 -0.377,-0.085 -0.183,-0.1 -0.37,-0.184 -0.561,-0.268 -0.302,-0.133 -0.638,-0.199 -0.957,-0.28 -0.239,-0.061 -0.469,-0.127 -0.673,-0.274 -0.088,-0.063 -0.16,-0.144 -0.238,-0.217 -0.104,-0.099 -0.203,-0.171 -0.316,-0.253 -0.122,-0.09 -0.229,-0.189 -0.325,-0.306 -0.117,-0.142 -0.24,-0.282 -0.359,-0.421 -0.161,-0.187 -0.41,-0.288 -0.602,-0.447 -0.049,-0.027 -0.096,-0.055 -0.147,-0.089 -0.038,-0.027 -0.101,-0.039 -0.131,-0.077 -0.028,-0.036 -0.024,-0.092 -0.04,-0.134 -0.041,-0.005 -0.101,0.002 -0.118,-0.047 0.038,-0.064 -0.101,-0.135 -0.14,-0.164 -0.108,-0.084 -0.201,-0.19 -0.306,-0.273 -0.06,-0.048 -0.084,-0.095 -0.121,-0.166 -0.135,-0.255 -0.242,-0.533 -0.44,-0.746 -0.062,-0.068 -0.145,-0.112 -0.203,-0.182 -0.046,-0.055 -0.092,-0.114 -0.141,-0.171 -0.022,-0.012 -0.045,-0.024 -0.065,-0.04 -0.029,-0.04 -0.062,-0.077 -0.098,-0.111 -0.035,-0.024 -0.07,-0.048 -0.106,-0.07 -0.114,-0.078 -0.219,-0.165 -0.327,-0.251 -0.075,-0.061 -0.112,-0.106 -0.163,-0.184 -0.04,-0.06 -0.098,-0.091 -0.147,-0.14 -0.013,-0.008 -0.026,-0.017 -0.04,-0.025 -0.012,-0.022 -0.029,-0.033 -0.05,-0.034 0.005,-0.004 0.009,-0.005 0.012,-0.006 -0.018,-0.013 -0.039,-0.024 -0.06,-0.024 -0.006,-0.016 -0.009,-0.032 -0.013,-0.048 -0.109,-0.062 -0.245,-0.073 -0.367,-0.094 -0.101,-0.018 -0.2,-0.013 -0.302,-0.013 -0.01,0 -0.115,0.011 -0.132,-0.002 -0.039,-0.029 -0.013,-0.149 10e-4,-0.191 0.018,-0.058 0.025,-0.135 0.064,-0.183 0.024,-0.03 0.102,-0.066 0.132,-0.077 0.094,-0.036 0.198,-0.031 0.295,-0.058 0.064,-0.018 0.129,-0.046 0.19,-0.067 0.033,-0.011 0.06,-0.016 0.093,-0.031 0.052,-0.025 0.078,-0.068 0.118,-0.102 0.035,-0.03 0.083,-0.045 0.121,-0.078 0.079,-0.072 0.173,-0.12 0.264,-0.178 0.029,-0.019 0.057,-0.03 0.084,-0.041 0.021,-0.056 0.039,-0.115 0.051,-0.183 0.014,-0.083 0.018,-0.098 0.055,-0.163 0.032,-0.056 0.06,-0.114 0.089,-0.171 0.008,-0.053 0.018,-0.106 0.033,-0.157 0.033,-0.103 0.044,-0.25 0.115,-0.335 0.043,-0.05 0.132,-0.086 0.188,-0.13 0.047,-0.036 0.093,-0.066 0.139,-0.102 0.022,-0.041 0.043,-0.083 0.076,-0.116 0.034,-0.033 0.08,-0.052 0.115,-0.084 0.088,-0.078 0.169,-0.186 0.244,-0.278 0.097,-0.119 0.207,-0.217 0.336,-0.297 0.133,-0.083 0.27,-0.165 0.394,-0.262 0.148,-0.117 0.287,-0.236 0.451,-0.331 0.11,-0.064 0.195,-0.117 0.295,-0.2 0.094,-0.078 0.18,-0.156 0.286,-0.215 0.124,-0.069 0.236,-0.151 0.354,-0.229 0.125,-0.083 0.265,-0.147 0.382,-0.241 0.071,-0.056 0.147,-0.102 0.231,-0.139 0.114,-0.049 0.24,-0.059 0.355,-0.103 0.016,-0.023 0.035,-0.044 0.057,-0.057 0.112,-0.069 0.298,-0.11 0.433,-0.112 0.09,-0.001 0.189,0.014 0.278,-0.003 0.239,-0.046 0.449,-0.163 0.68,-0.227 0.243,-0.067 0.499,-0.099 0.743,-0.166 0.149,-0.041 0.284,-0.107 0.44,-0.129 0.14,-0.005 0.276,-0.026 0.41,-0.063 0.079,-0.022 0.157,-0.044 0.236,-0.066 0.14,-0.034 0.283,-0.046 0.427,-0.036 0.167,-0.001 0.334,-0.014 0.499,-0.039 0.568,-0.058 1.143,-0.113 1.714,-0.142 0.151,-0.008 0.304,-0.01 0.456,-0.006 0.153,0.003 0.297,0.047 0.449,0.063 0.245,0.026 0.456,0.107 0.691,0.18 0.176,0.055 0.345,0.101 0.517,0.168 0.15,0.059 0.29,0.071 0.447,0.1 0.138,0.025 0.269,0.07 0.409,0.075 0.201,0.007 0.382,0.037 0.577,0.078 0.152,0.033 0.311,0.072 0.467,0.082 0.229,0.014 0.465,0.028 0.686,0.098 0.215,0.068 0.392,0.206 0.593,0.301 0.135,0.065 0.269,0.108 0.4,0.186 0.171,0.102 0.352,0.193 0.534,0.274 0.126,0.056 0.253,0.096 0.365,0.176 0.139,0.099 0.231,0.223 0.326,0.365 0.115,0.171 0.204,0.355 0.311,0.53 0.081,0.119 0.16,0.24 0.236,0.363 0.014,0.034 0.033,0.066 0.05,0.098 0.179,0.155 0.359,0.307 0.583,0.391 0.098,0.037 0.188,0.077 0.28,0.129 0.14,0.078 0.239,0.204 0.373,0.289 0.298,0.189 0.548,0.437 0.812,0.671 0.107,0.094 0.195,0.205 0.297,0.304 0.065,0.063 0.12,0.121 0.166,0.2 0.061,0.103 0.145,0.182 0.204,0.289 0.082,0.151 0.203,0.267 0.301,0.407 0.021,0.03 0.032,0.073 0.05,0.108 C 0.533,-0.863 0.51,-0.874 0.488,-0.891 0.462,-0.911 0.44,-0.934 0.418,-0.958 c 0.03,0.038 0.062,0.075 0.093,0.114 0.054,0.064 0.114,0.106 0.189,0.14 0.103,0.048 0.187,0.129 0.265,0.212 0.055,0.057 0.043,0.105 0.006,0.147"
             style="fill:#100f0d;fill-opacity:1;fill-rule:nonzero;stroke:none"
             id="path55181" />
        </g>
      </g>
    </g>
  </g>
</svg>
