<svg width="25" height="24" viewBox="0 0 25 24" fill="#000000" xmlns="http://www.w3.org/2000/svg">
  <path d="M24.1205 11.6626C24.1052 11.6735 24.0954 11.6899 24.0856 11.7085C24.0997 11.6965 24.1118 11.6834 24.1205 11.6626Z"/>
  <path d="M12.7601 6.01231C12.7296 5.96538 12.6728 5.95774 12.6226 5.94792C12.5975 6.00904 12.7285 6.09526 12.7601 6.01231Z"/>
  <path d="M23.4157 12.9222C23.4179 12.9145 23.4201 12.9069 23.4212 12.8992C23.383 12.9222 23.3644 12.9385 23.3546 12.9516C23.371 12.9364 23.3895 12.9254 23.4157 12.9222Z"/>
  <path d="M23.1657 13.1295C23.0784 13.2048 22.9736 13.2485 22.883 13.3172C22.8121 13.3718 22.7564 13.4449 22.6909 13.506C22.6167 13.577 22.5381 13.6425 22.4628 13.7123C22.3068 13.8597 22.1474 14.0496 21.9575 14.1587C21.7763 14.2624 21.5941 14.3846 21.4358 14.5222C21.3572 14.5898 21.3157 14.6498 21.259 14.7393C21.223 14.7961 21.1815 14.8507 21.1378 14.9031C21.044 15.0144 20.9938 15.1268 20.9261 15.2534C20.8475 15.4007 20.7045 15.4761 20.5932 15.595C20.5059 15.6889 20.4328 15.7882 20.3345 15.8701C20.3149 15.8864 20.2953 15.8984 20.2745 15.9126C20.3531 15.8635 20.4371 15.8188 20.507 15.7675C20.6303 15.6758 20.7591 15.5994 20.8715 15.4957C21.0047 15.3756 21.14 15.2469 21.2797 15.1333C21.3168 15.1028 21.3659 15.0886 21.4031 15.0602C21.4522 15.022 21.4718 14.9642 21.51 14.9172C21.5548 14.8627 21.6268 14.795 21.6825 14.7514C21.7392 14.7077 21.8102 14.6848 21.8658 14.6389C21.9684 14.5549 22.0525 14.4512 22.166 14.3781C22.2173 14.3442 22.2729 14.3246 22.322 14.2875C22.4334 14.2045 22.5305 14.103 22.6331 14.0092C22.7182 13.9317 22.8023 13.8575 22.8776 13.7702C22.9158 13.7265 22.9605 13.6796 22.99 13.6294C23.0129 13.5901 23.0206 13.542 23.0457 13.5038C23.1057 13.41 23.1701 13.3194 23.2203 13.2168C23.241 13.1731 23.2487 13.1218 23.2759 13.0793C23.2934 13.052 23.3163 13.028 23.3316 13.0007C23.3414 12.9821 23.3393 12.9702 23.3546 12.9516C23.3404 12.9647 23.3272 12.98 23.312 12.9952C23.265 13.0422 23.2159 13.0858 23.1657 13.1295Z"/>
  <path d="M20.2337 15.941C20.2457 15.9312 20.2603 15.9214 20.2745 15.9126C20.2189 15.9465 20.166 15.9836 20.1235 16.0273C20.1715 16.0251 20.202 15.965 20.2337 15.941Z"/>
  <path d="M22.8924 10.0233C22.9306 10.044 22.9688 10.0659 23.007 10.0888C22.9404 10.0331 22.875 9.97527 22.8007 9.93161C22.7538 9.90214 22.708 9.86722 22.6621 9.83229C22.7298 9.90869 22.792 9.96981 22.8924 10.0233Z"/>
  <path d="M8.16523 4.38933C7.9906 4.51812 7.85308 4.62727 7.73084 4.80844C7.66645 4.9034 7.44816 5.18935 7.56167 5.31705C7.6599 5.29085 7.75485 5.19262 7.84217 5.15224C7.94913 5.10313 8.06264 5.06275 8.29402 5.01691C8.49048 5.01472 8.6782 4.97325 8.87357 4.94487C9.04383 4.91977 9.20973 4.86301 9.37999 4.84773C9.61574 4.82481 9.85694 4.86847 10.0916 4.82809C10.1822 4.81281 10.2662 4.8139 10.359 4.81499C10.4245 4.81608 10.5085 4.82918 10.5696 4.80189C10.5904 4.79207 10.6068 4.77024 10.6275 4.75933C10.6984 4.72113 10.7814 4.71021 10.8534 4.66983C10.9309 4.62727 10.9909 4.56724 11.0608 4.51594C11.1044 4.48429 11.1546 4.47447 11.1972 4.44936C11.2889 4.39479 11.3315 4.28892 11.3882 4.20488C11.445 4.11866 11.5225 4.05099 11.5847 3.97132C11.6403 3.89928 11.6742 3.81306 11.7298 3.73884C11.8313 3.60351 11.9088 3.45071 12.0267 3.32519C12.1151 3.23242 12.2188 3.1462 12.3006 3.04797C12.3421 2.99886 12.3738 2.93883 12.4098 2.88644C12.4491 2.8275 12.5058 2.78494 12.5484 2.72818C12.5975 2.66161 12.6292 2.59939 12.7001 2.55246C12.7754 2.50226 12.8158 2.43895 12.8824 2.37783C12.9784 2.28834 13.0941 2.21958 13.1989 2.1399C13.3604 2.01766 13.511 1.88342 13.6813 1.77318C13.8243 1.68041 13.9378 1.54726 14.0753 1.44466C14.1746 1.37154 14.2488 1.33879 14.3733 1.33552C14.4693 1.33334 14.5665 1.33661 14.6625 1.33661C14.9615 1.33661 15.2726 1.31478 15.5706 1.34207C15.7408 1.35735 15.7758 1.38136 15.8674 1.49923C15.9482 1.60292 16.0737 1.69023 16.1403 1.80374C16.2167 1.93253 16.2156 2.13881 16.2069 2.28397C16.2014 2.37893 16.1523 2.51317 16.0999 2.5863C16.1567 2.58084 16.2178 2.5481 16.268 2.52845C16.4164 2.47061 16.5638 2.41494 16.7035 2.33745C16.8705 2.24686 16.9327 2.16391 16.9752 1.97837C17.0025 1.85395 17.0342 1.71534 17.0211 1.58655C17.0102 1.48941 16.9556 1.42174 16.9021 1.33661C16.805 1.18381 16.6827 0.993904 16.5256 0.894584C16.4939 0.874938 16.4655 0.864024 16.4131 0.842196C16.1719 0.736327 15.9569 0.568247 15.7157 0.456922C15.5236 0.368516 15.3108 0.294299 15.1133 0.220082C14.9866 0.173151 14.8524 0.128402 14.7236 0.0880195C14.5632 0.0367224 14.3503 0.00179664 14.1801 0.00288806C14.0273 0.00397949 13.8756 -0.0123918 13.7239 0.0225339C13.6453 0.0563681 13.5623 0.0814706 13.4783 0.0989335C13.4074 0.103299 13.3386 0.119671 13.2731 0.148048C12.7721 0.354328 12.3072 0.710133 11.9383 1.10305C11.7964 1.25476 11.7604 1.44139 11.6534 1.61274C11.4995 1.85722 11.3326 2.1399 11.1285 2.34618C11.0673 2.4073 10.9888 2.48807 10.9069 2.52299C10.8731 2.52954 10.8392 2.53609 10.8043 2.54155C10.6701 2.59066 10.5445 2.65724 10.4278 2.74128C10.2378 2.8657 10.0283 2.9934 9.89296 3.17894C9.80128 3.30446 9.74671 3.4518 9.65939 3.58059C9.51969 3.78796 9.28722 3.89492 9.0602 3.98878C8.91177 4.0499 8.75351 4.05972 8.60726 4.12521C8.44791 4.19833 8.30602 4.28456 8.16523 4.38933Z"/>
  <path d="M3.79703 7.02185C3.90835 6.90943 3.99458 6.81229 4.1321 6.73589C4.26089 6.66386 4.37112 6.57545 4.48899 6.48814C4.53483 6.45321 4.58177 6.42156 4.62979 6.38882C4.77277 6.29168 4.9212 6.24803 5.07618 6.17817C5.08055 6.17599 5.08491 6.1749 5.08928 6.17272C5.13948 6.09632 5.17878 6.00791 5.22025 5.93151C5.28574 5.81255 5.35886 5.70559 5.43744 5.59535C5.5062 5.49603 5.56623 5.39016 5.64918 5.30067C5.86419 5.06819 6.06938 4.84008 6.2582 4.5836C6.35861 4.44717 6.47539 4.31183 6.52778 4.14921C6.58453 3.96912 6.61509 3.80105 6.614 3.61223C6.61182 3.42887 6.58672 3.23459 6.66748 3.06542C6.76462 2.86242 6.89668 2.69761 7.01783 2.51207C7.06476 2.44004 7.1106 2.36691 7.16408 2.29924C7.19464 2.25995 7.20446 2.2283 7.2252 2.1901C7.2765 2.09733 7.3529 1.99037 7.42602 1.91288C7.55372 1.77863 7.76546 1.76008 7.93681 1.82884C8.21731 1.94016 8.27843 2.15299 8.36902 2.41821C8.4094 2.53281 8.46179 2.72381 8.43669 2.84605C8.4345 2.85259 8.43123 2.85805 8.42905 2.8646C8.47816 2.79257 8.52618 2.71835 8.57311 2.64522C8.68881 2.46623 8.69863 2.26322 8.69972 2.05804C8.7019 1.77208 8.59276 1.47849 8.33737 1.33114C8.20203 1.25256 8.03613 1.15761 7.87569 1.1587C7.82003 1.15979 7.77092 1.16197 7.71525 1.15543C7.51334 1.13141 7.29614 1.08994 7.09532 1.11723C6.96108 1.13578 6.82574 1.14342 6.69149 1.16416C6.59436 1.17944 6.51359 1.21655 6.423 1.25256C6.33787 1.2864 6.22109 1.30495 6.14578 1.35734C6.08466 1.39991 6.03336 1.46648 5.98316 1.52105C5.83036 1.68586 5.68083 1.86922 5.60007 2.07986C5.5062 2.32653 5.42653 2.62339 5.42326 2.8897C5.42107 3.05669 5.42107 3.21058 5.3927 3.3743C5.36868 3.50636 5.31302 3.67881 5.2399 3.79231C5.1253 3.97022 4.93102 4.07499 4.74221 4.15903C4.6669 4.19178 4.56976 4.22234 4.501 4.27145C4.33074 4.39369 4.28926 4.59124 4.29581 4.78551C4.30454 5.07256 4.14083 5.29193 4.05133 5.55715C4.00222 5.70231 3.98475 5.88021 3.97821 6.03301C3.96947 6.24584 3.86142 6.4041 3.78066 6.5951C3.71517 6.75117 3.6737 6.8756 3.55801 7.00002C3.37137 7.19866 3.19456 7.40166 3.07123 7.64396C3.02866 7.72582 2.96318 7.79785 2.90861 7.87643C2.95336 7.82623 3.02102 7.78585 3.0625 7.74983C3.32226 7.525 3.55582 7.26414 3.79703 7.02185Z"/>
  <path d="M8.42881 2.86573C8.40371 2.90174 8.3786 2.93776 8.35241 2.97269C8.38515 2.94213 8.41353 2.90938 8.42881 2.86573Z"/>
  <path d="M4.96201 6.3212C5.2174 6.13893 5.15846 6.14548 5.0897 6.17386C5.07661 6.1935 5.06351 6.21315 5.04823 6.23061C5.02203 6.26335 4.97183 6.27645 4.96201 6.3212Z"/>
  <path d="M8.15945 3.19748C8.23149 3.12872 8.29347 3.05236 8.35241 2.97269C8.33386 2.99015 8.31553 3.00757 8.29807 3.02722C8.25332 3.07742 8.19001 3.13636 8.15945 3.19748Z"/>
  <path d="M2.868 7.93979C2.88 7.91796 2.89442 7.89717 2.90861 7.87643C2.89114 7.89608 2.87564 7.91687 2.868 7.93979Z"/>
  <path d="M16.1994 3.54454C16.112 3.56418 16.0542 3.62421 15.9778 3.6635C15.9003 3.70388 15.8359 3.753 15.765 3.80102C15.6918 3.85014 15.6023 3.86542 15.5347 3.91999C15.4812 3.96146 15.4485 4.02476 15.3961 4.06842C15.3611 4.09789 15.3197 4.11972 15.2826 4.14919C15.216 4.20267 15.1603 4.26924 15.0992 4.33036C14.9966 4.3511 14.8929 4.37075 14.7892 4.38603C14.7019 4.40131 14.6179 4.42423 14.536 4.45697C14.321 4.52245 14.0896 4.54101 13.8779 4.61304C13.7938 4.64033 13.7142 4.68726 13.6367 4.72873C13.5254 4.78876 13.4042 4.83024 13.2765 4.84443C13.1368 4.85971 13.0026 4.80295 12.865 4.78876C12.8901 4.83133 13.0277 4.84224 13.0822 4.85752C13.2438 4.90227 13.3998 4.88808 13.5646 4.90118C13.6563 4.90773 13.7196 4.99613 13.8124 5.01469C13.9063 5.03433 14.0154 5.02015 14.1115 5.03106C14.1442 5.04961 14.1769 5.06489 14.213 5.07799C14.4007 5.14129 14.6026 5.13802 14.7925 5.1915C14.9846 5.24498 15.192 5.24389 15.3895 5.27554C15.5238 5.29628 15.6482 5.30719 15.7824 5.30719C15.8894 5.30719 16.0782 5.32684 16.1721 5.27117C16.2856 5.20351 16.2572 5.03979 16.291 4.93065C16.3292 4.80513 16.4231 4.71891 16.5366 4.65452C16.6479 4.60431 16.7603 4.55738 16.8739 4.51372C16.9579 4.4657 17.0474 4.43623 17.1423 4.42641C17.2679 4.40785 17.3868 4.39476 17.5102 4.37184C17.6455 4.34783 17.7885 4.33036 17.926 4.32491C18.1999 4.3129 18.4662 4.26924 18.7336 4.21249C18.9116 4.17538 19.1135 4.147 19.2914 4.19284C19.4791 4.24196 19.6504 4.31836 19.7509 4.49626C19.812 4.60431 19.8917 4.69272 19.955 4.80077C19.9735 4.83133 19.9877 4.86298 20.0008 4.89572C20.0008 4.90555 20.0008 4.91428 20.0019 4.92519C20.0019 5.10309 20.0543 5.27554 20.0608 5.45126C20.0663 5.59533 20.0423 5.71429 20.0084 5.85072C19.9953 5.90311 19.9986 5.94677 19.9681 5.9937C19.9299 6.05154 19.8709 6.08974 19.8207 6.1334C19.7716 6.17488 19.7225 6.21635 19.6756 6.26001C19.6614 6.25892 19.6494 6.25892 19.6341 6.25673C19.4933 6.23709 19.4922 6.17815 19.394 6.0952C19.335 6.04609 19.2695 5.99588 19.2128 5.94349C19.1691 5.90529 19.1418 5.88128 19.1113 5.82562C19.0753 5.76013 19.0644 5.6248 19.0076 5.57677C18.941 5.72412 18.9934 6.02208 19.0709 6.14977C19.1528 6.28511 19.251 6.35714 19.3809 6.43791C19.5075 6.51649 19.6199 6.55469 19.7596 6.60162C19.8556 6.63437 19.9408 6.6682 20.039 6.69003C20.1198 6.70749 20.1711 6.74133 20.2606 6.72386C20.2955 6.71732 20.3293 6.7064 20.3642 6.69876C20.4428 6.68348 20.4952 6.65401 20.5662 6.61363C20.6502 6.56452 20.7222 6.50776 20.8063 6.46192C20.815 6.39098 20.9231 6.31458 20.9623 6.27965C21.0158 6.23054 21.0693 6.18142 21.1217 6.13122C21.2592 5.99588 21.2581 5.87801 21.2723 5.67719C21.2876 5.45017 21.2538 5.18713 21.1075 5.00268C20.9754 4.83679 20.8314 4.69817 20.7451 4.49954C20.6655 4.31399 20.5989 4.12736 20.4799 3.96146C20.4505 3.92326 20.4232 3.88397 20.3981 3.8425C20.3697 3.81194 20.3533 3.77592 20.3479 3.73554C20.3315 3.71371 20.338 3.72026 20.314 3.69624C20.2606 3.64167 20.1863 3.57837 20.123 3.53471C20.0314 3.4725 19.92 3.47141 19.8229 3.4212C19.6821 3.34917 19.4835 3.39392 19.3394 3.32952C19.2564 3.29242 19.2008 3.2051 19.1091 3.17236C18.9552 3.1167 18.7839 3.03811 18.6463 2.94753C18.511 2.85803 18.3298 2.90933 18.1781 2.93334C17.7961 2.99446 17.4283 3.13198 17.0703 3.28587C16.8695 3.37318 16.6687 3.48451 16.4537 3.53471C16.3707 3.55436 16.2823 3.52598 16.1994 3.54454Z"/>
  <path d="M17.4907 18.3127C17.5999 18.2691 17.7101 18.2156 17.8258 18.1916C17.8967 18.1763 17.9622 18.1676 18.031 18.1435L17.4514 18.0562C17.3357 18.0562 17.2266 18.0584 17.1109 18.0781C16.9952 18.0977 16.8872 18.1283 16.7758 18.1643C16.527 18.244 16.2716 18.2854 16.0282 18.3837C15.7663 18.4884 15.524 18.6369 15.2697 18.7526C15.1551 18.8049 15.0328 18.8039 14.9204 18.8617C14.8265 18.9097 14.7731 18.9436 14.6857 19.0112C14.5013 19.1553 14.3037 19.2666 14.1389 19.4325C14.0025 19.5689 13.794 19.6039 13.6456 19.7305C13.4633 19.8876 13.3095 20.1278 13.2156 20.3449C13.1512 20.4934 13.1414 20.6407 13.1337 20.8012C13.1294 20.9016 13.1064 20.9802 13.0726 21.0729C12.9591 21.3916 12.6262 21.5237 12.3992 21.7442C12.3479 21.802 12.2933 21.8555 12.2344 21.9068C12.1809 21.9493 12.1263 21.9897 12.0696 22.0279C12.0489 22.0607 12.0303 22.0945 12.0161 22.1294C11.9823 22.1982 11.9364 22.2593 11.8819 22.3128C11.7956 22.4001 11.7061 22.4831 11.6123 22.5616C11.4999 22.6315 11.3776 22.6784 11.2467 22.7024C11.107 22.7526 10.9651 22.7952 10.821 22.8312C10.6802 22.8432 10.5383 22.8476 10.3964 22.8421C10.1847 22.8334 9.94568 22.7952 9.74813 22.7188C9.73721 22.6926 9.71648 22.6817 9.68482 22.6861C9.61606 22.6762 9.5484 22.661 9.48182 22.6402C9.43816 22.6348 9.40542 22.6348 9.36285 22.6249C9.24607 22.5977 9.08781 22.5638 8.98849 22.4929C8.7462 22.3182 8.5039 22.1425 8.27797 21.9461C8.17865 21.8598 8.17756 21.8424 8.17647 21.7136C8.17647 21.5553 8.19284 21.3807 8.26924 21.2377C8.32381 21.1341 8.45151 21.0031 8.56611 20.9627C8.64578 20.9343 8.65888 20.954 8.71891 20.9834C8.79313 21.0195 8.90227 21.0074 8.87062 21.1242C8.9754 20.9474 8.94265 20.6986 8.83242 20.5381C8.76475 20.4399 8.77457 20.4028 8.65779 20.4039C8.59012 20.405 8.50608 20.3886 8.4395 20.4028C8.33254 20.4246 8.22449 20.4366 8.11753 20.4552C8.03895 20.4694 7.99857 20.4836 7.94509 20.549C7.85668 20.6593 7.77701 20.7728 7.71589 20.8961C7.66568 20.9943 7.58055 21.0751 7.53471 21.1832C7.44085 21.4004 7.44849 21.5794 7.48123 21.8107C7.50415 21.9657 7.51616 21.9635 7.54017 22.0781C7.54563 22.1076 7.53799 22.1305 7.54563 22.1622C7.55981 22.2157 7.58928 22.2593 7.6002 22.3139C7.61548 22.3957 7.61002 22.4492 7.6504 22.5311C7.73553 22.7068 7.76064 22.9436 7.95382 23.0342C8.02804 23.0692 8.08807 23.0866 8.15901 23.127C8.2998 23.2067 8.45697 23.2143 8.61195 23.2438C8.7833 23.2754 8.93283 23.3049 9.09654 23.3617C9.32247 23.4402 9.51347 23.5821 9.72412 23.6934C9.82998 23.7491 9.95986 23.772 10.0745 23.8102C10.1749 23.8452 10.2687 23.9019 10.3713 23.9336C10.5536 23.9903 10.7915 23.9936 10.9771 23.999C11.1757 24.0045 11.3602 23.987 11.5544 23.9521C11.6407 23.9357 11.7182 23.9019 11.8022 23.8801C11.8753 23.8615 11.9801 23.8692 12.0456 23.8244C12.1285 23.7666 12.146 23.7393 12.2551 23.7076C12.5007 23.6356 12.7375 23.5516 12.9864 23.4894C13.1763 23.4424 13.352 23.3529 13.5397 23.2984C13.6784 23.2591 13.8017 23.2209 13.8846 23.0888C13.8999 23.0659 13.9054 23.0331 13.9207 23.0124C13.9479 22.9742 14.0091 22.9436 14.0418 22.9098C14.1433 22.8028 14.2634 22.7079 14.3529 22.5911C14.4238 22.4994 14.4773 22.399 14.5286 22.2953C14.5941 22.1644 14.6694 22.0639 14.6934 21.9155C14.6977 21.886 14.6934 21.8566 14.6956 21.8271C14.7054 21.7398 14.772 21.6263 14.8014 21.5499C14.8735 21.36 14.9106 21.1755 15.0033 20.9943C15.0525 20.8994 15.083 20.7935 15.1365 20.7018C15.1878 20.6167 15.2631 20.525 15.3308 20.4519C15.4039 20.3722 15.465 20.2882 15.5425 20.2151C15.7161 20.047 15.8547 19.82 15.9835 19.617C16.0762 19.4707 16.1417 19.3321 16.2083 19.1717C16.2563 19.056 16.3218 18.9468 16.4135 18.8595C16.5717 18.7089 16.7747 18.6412 16.9505 18.519C17.1218 18.4011 17.3041 18.3869 17.4907 18.3127Z"/>
  <path d="M8.35525 19.5013C8.47749 19.486 8.56917 19.3965 8.68486 19.3878C8.77218 19.3812 8.87368 19.3812 8.9599 19.3965C9.02757 19.4085 9.08323 19.4194 9.15199 19.4194C9.18365 19.4183 9.21311 19.4118 9.24258 19.4216C9.32335 19.4478 9.3801 19.5384 9.47178 19.5591C9.49361 19.5646 9.51653 19.5602 9.53727 19.5668C9.61148 19.5897 9.67697 19.6683 9.75337 19.6966C9.79266 19.7119 9.83086 19.7217 9.86906 19.7381C9.93673 19.7676 9.99567 19.8112 10.0612 19.8429C10.298 19.9553 10.513 20.0426 10.7804 20.0557C11.0009 20.0655 11.2333 20.0786 11.444 20.0066C11.6426 19.9378 11.7954 19.7796 11.9581 19.653C12.1207 19.5275 12.2778 19.3692 12.3892 19.1957C12.4295 19.1324 12.4405 19.0898 12.4383 19.0134L11.9744 19.0996C11.8271 19.1051 11.6754 19.0811 11.5291 19.0571C11.408 19.0374 11.2726 19.0254 11.1526 18.997C10.9419 18.9457 10.7411 18.8628 10.5272 18.8213C10.3995 18.7962 10.2674 18.7842 10.1419 18.7537C10.0371 18.7285 9.9411 18.6871 9.84068 18.6489C9.74682 18.6129 9.68352 18.6019 9.58638 18.5867C9.49798 18.5725 9.41612 18.5408 9.3299 18.5255C9.15199 18.4939 8.94135 18.5168 8.77108 18.5637C8.53534 18.6281 8.30832 18.6882 8.0813 18.7809C7.80299 18.8955 7.52249 19.0025 7.2409 19.1105C7.04772 19.1848 6.88182 19.2219 6.67336 19.2197C6.48018 19.2164 6.287 19.1782 6.10036 19.1335C6.02396 19.116 5.93556 19.0789 5.85807 19.104C5.7391 19.1422 5.62232 19.2557 5.52191 19.3256C5.23268 19.5275 4.85068 19.5067 4.52216 19.4227C4.4272 19.3987 4.33552 19.3223 4.32024 19.2153C4.30606 19.1171 4.33225 18.9796 4.34535 18.8846C4.35408 18.8279 4.35408 18.7493 4.38355 18.7013C4.42939 18.6227 4.55163 18.5419 4.64222 18.5245C4.71207 18.5124 4.78956 18.5201 4.8605 18.5201C4.90962 18.5212 4.99693 18.507 5.04823 18.5245C5.05914 18.6074 5.0515 18.7024 4.98711 18.7624C4.90416 18.8388 4.75572 18.8137 4.68151 18.8901C4.72953 18.9981 5.01112 18.8399 5.07879 18.8104C5.22722 18.7471 5.22286 18.5441 5.22286 18.4044C5.22286 18.3313 5.23923 18.2418 5.2174 18.1719C5.17811 18.0475 5.07551 17.9809 4.98274 17.8958C4.89979 17.8205 4.84959 17.7605 4.7459 17.7223C4.66295 17.6928 4.58 17.6808 4.49269 17.6655C4.33553 17.6371 4.18163 17.6044 4.02229 17.6273C3.87058 17.648 3.66975 17.7015 3.57698 17.8325C3.52678 17.9045 3.45583 17.9667 3.40999 18.0409C3.35324 18.1337 3.3074 18.2396 3.25938 18.3367C3.17206 18.5135 3.16551 18.7995 3.20044 18.9916C3.21681 19.0833 3.27029 19.1597 3.2823 19.2513C3.29649 19.3583 3.32486 19.4489 3.37616 19.5438C3.42418 19.6344 3.48749 19.6606 3.56825 19.7272C3.62719 19.7774 3.67958 19.8309 3.74179 19.8756C3.84329 19.9488 3.96553 20.0142 4.07467 20.0743C4.13034 20.1059 4.186 20.1354 4.2493 20.143C4.39555 20.1594 4.5418 20.1703 4.68806 20.1943C4.76555 20.2074 4.82776 20.2085 4.90198 20.2304C5.0384 20.2686 5.19011 20.2893 5.33091 20.2882C5.55683 20.2871 5.77184 20.2806 5.97594 20.1649C6.10364 20.0928 6.24334 20.0361 6.37759 19.9739C6.50201 19.916 6.62752 19.9095 6.75631 19.8636C6.90584 19.8112 7.04008 19.7217 7.19616 19.6868C7.40025 19.641 7.60217 19.582 7.80626 19.5395C7.9929 19.5013 8.16971 19.5253 8.35525 19.5013Z"/>
  <path d="M22.7426 15.9967C22.7547 16.1833 22.7066 16.3536 22.5986 16.5075C22.4185 16.7094 22.2373 16.9102 22.054 17.1099C21.9121 17.2966 21.7353 17.4406 21.5246 17.5422C21.3369 17.6447 21.1393 17.7266 20.9352 17.7888C20.8228 17.8074 20.7093 17.8085 20.5969 17.7954C20.5467 17.7844 20.503 17.7943 20.4659 17.8248L21.2485 17.2158C21.111 17.2486 20.968 17.2704 20.8327 17.3064C20.7006 17.3413 20.5751 17.4188 20.4528 17.4767C20.2738 17.5607 20.0938 17.6382 19.9235 17.7386C19.7521 17.8412 19.5797 17.9427 19.4094 18.0486C19.2948 18.1206 19.1868 18.209 19.0689 18.2756C18.9783 18.3269 18.8779 18.3367 18.795 18.4055C18.6498 18.5244 18.5843 18.7023 18.581 18.8846C18.5799 18.9981 18.6072 19.0974 18.6127 19.2088C18.6236 19.4249 18.5876 19.6311 18.5832 19.8451C18.5799 20.0273 18.5232 20.2031 18.5232 20.3831C18.5232 20.4977 18.5003 20.6036 18.4239 20.6964C18.3507 20.7859 18.2241 20.8743 18.1226 20.931C17.9982 21.002 17.8672 21.086 17.7275 21.1209C17.6653 21.1362 17.5944 21.1919 17.5333 21.1897C17.4383 21.1853 17.4034 21.0762 17.3936 20.9965C17.4012 20.9387 17.3968 20.883 17.3805 20.8284C17.3641 20.8001 17.3499 20.7706 17.3412 20.7389C17.3292 20.6866 17.3357 20.6331 17.3357 20.5796C17.3357 20.5097 17.3357 20.4464 17.3499 20.3788C17.3597 20.3384 17.3761 20.3035 17.3619 20.262C17.3095 20.2511 17.2648 20.2893 17.2255 20.3177C17.1316 20.3886 17.0137 20.4759 16.9308 20.5599C16.8522 20.6396 16.7813 20.7433 16.7333 20.8448C16.6536 21.0118 16.694 21.2486 16.7409 21.4178C16.7693 21.5226 16.8882 21.6219 16.9766 21.6808C17.0192 21.7081 17.0629 21.7223 17.1076 21.742C17.1949 21.7802 17.2713 21.8424 17.3641 21.8708C17.4623 21.9013 17.5693 21.9133 17.6697 21.9406C17.7636 21.9657 17.8672 21.981 17.9644 21.9919C18.1652 22.0148 18.4239 22.0246 18.6018 21.9155C18.8004 21.7944 18.9892 21.6677 18.9903 21.4124C18.9914 21.2596 18.9838 21.1111 19.0056 20.9583C19.0416 20.7029 19.0831 20.4453 19.1366 20.1932C19.1988 19.9007 19.297 19.5951 19.488 19.3572C19.5906 19.2295 19.7227 19.1291 19.8438 19.0189C19.9693 18.9053 20.0676 18.7929 20.2204 18.7187C20.4605 18.5997 20.7071 18.4884 20.944 18.3629C21.0859 18.2865 21.2157 18.1992 21.3598 18.1272C21.4864 18.0639 21.5923 17.9962 21.7069 17.9132C21.9055 17.7703 22.1533 17.6524 22.3061 17.4592C22.4796 17.2409 22.6357 16.9506 22.7012 16.681C22.7448 16.5009 22.7568 16.3165 22.7863 16.1342C22.8092 15.9978 22.8256 15.8635 22.8081 15.7249C22.711 15.738 22.7448 15.953 22.7426 15.9967Z"/>
  <path d="M23.4837 10.7829C23.3309 10.7829 23.1705 10.7971 23.0221 10.7556C22.723 10.6738 22.52 10.4489 22.3203 10.223C22.3999 10.2743 22.4796 10.3212 22.5757 10.3485C22.7045 10.3856 22.8267 10.4664 22.9544 10.4926C23.0373 10.5101 23.1148 10.5068 23.1956 10.5352C23.3429 10.5897 23.4794 10.6825 23.63 10.7371C23.6747 10.7534 23.7195 10.7676 23.7642 10.7829H23.4837ZM23.2502 12.5805C23.117 12.7071 22.962 12.8042 22.8038 12.897C22.8234 12.8752 22.8431 12.8533 22.866 12.8337C22.9293 12.7824 23.0144 12.7628 23.0744 12.7126C23.1214 12.6744 23.1443 12.6132 23.1956 12.5772C23.2294 12.5532 23.2687 12.5357 23.308 12.5205C23.2895 12.5401 23.2709 12.5608 23.2502 12.5805ZM21.0171 8.89693C21.0138 8.88819 21.0084 8.88055 21.004 8.87291C21.0291 8.88601 21.0542 8.9002 21.0804 8.9133C21.1361 8.93185 21.1939 8.94822 21.2518 8.96241C21.2823 8.9897 21.3129 9.01807 21.3413 9.04754C21.3729 9.07374 21.4089 9.09338 21.4428 9.1163C21.2965 9.05082 21.1557 8.97551 21.0171 8.89693ZM21.1317 12.1854C21.1317 12.2389 21.1284 12.2945 21.1317 12.348C21.1361 12.4233 21.1601 12.4888 21.1623 12.5652C21.1699 12.8905 21.1404 13.2004 21.1099 13.5224C21.1001 13.6337 21.0619 13.7319 21.0488 13.84C21.0433 13.8826 21.0368 13.9109 21.0258 13.9382C20.9363 13.9611 20.8468 13.9895 20.7694 14.0365C20.7181 14.0681 20.6766 14.0987 20.622 14.1238C20.5805 14.1412 20.5369 14.1532 20.4932 14.1663C20.5369 14.0878 20.574 14.007 20.598 13.9175C20.6362 13.7745 20.6449 13.6719 20.6176 13.5268C20.5925 13.3914 20.5827 13.2659 20.5816 13.1262C20.5805 13.0094 20.5238 12.9079 20.5009 12.7922C20.4659 12.6132 20.4288 12.4353 20.4026 12.2563C20.3819 12.1199 20.3273 11.9933 20.3208 11.8547C20.3153 11.7423 20.3208 11.6299 20.3219 11.5174C20.3241 11.4094 20.2979 11.3363 20.2749 11.2359C20.2498 11.1245 20.3 11.1333 20.2204 11.0318C20.0938 10.8713 19.9191 10.7513 19.7783 10.6039C19.7489 10.5734 19.715 10.5417 19.6987 10.5013C19.6616 10.4173 19.6736 10.3267 19.7303 10.2579C19.8056 10.1652 19.8973 10.0506 19.918 9.92942C19.9519 9.73623 19.8569 9.51358 19.7849 9.33677C19.7554 9.26474 19.726 9.18725 19.691 9.11194C19.8253 9.15559 19.9584 9.20034 20.0916 9.24291C20.252 9.29421 20.4114 9.34987 20.5707 9.40444C20.5991 9.41863 20.6155 9.44046 20.6144 9.47429C20.6558 9.55615 20.6799 9.65438 20.6984 9.74387C20.7552 10.0047 20.8676 10.2219 20.9865 10.4566C21.0455 10.5734 21.1328 10.677 21.1786 10.8015C21.2114 10.891 21.2256 10.9881 21.254 11.0787C21.278 11.1573 21.3183 11.2293 21.3402 11.309C21.3456 11.3275 21.35 11.3472 21.3544 11.3657C21.2725 11.4574 21.1699 11.5753 21.1393 11.6877C21.0979 11.835 21.1317 12.0315 21.1317 12.1854ZM19.6255 14.1652C19.6059 14.2591 19.5721 14.3453 19.5404 14.4337C19.4618 14.4927 19.38 14.5516 19.2937 14.592C19.2228 14.6247 19.165 14.6433 19.1038 14.6957C18.8561 14.9107 18.6596 15.1814 18.3922 15.3745C18.2231 15.4979 18.0452 15.5917 17.8509 15.6616C17.7723 15.69 17.6937 15.7205 17.6184 15.7565C17.4132 15.8548 17.2375 15.9847 17.017 16.0556C16.8773 16.0993 16.7376 16.1571 16.5946 16.1844C16.5139 16.1986 16.4342 16.1986 16.3524 16.2095C16.2203 16.227 16.1002 16.263 15.966 16.2619C15.8481 16.2597 15.7259 16.2455 15.6102 16.2728C15.5327 16.2913 15.4617 16.3077 15.3853 16.3175C15.2587 16.335 15.1812 16.3579 15.0852 16.442C15.0645 16.4605 15.0448 16.478 15.0252 16.4954C15.0557 16.4933 15.0874 16.4911 15.1201 16.4911C15.1474 16.4922 15.2216 16.4769 15.2446 16.4965C15.2817 16.5271 15.2347 16.6177 15.226 16.6472C15.1823 16.7825 15.1572 16.9691 15.0372 17.0499C14.9477 17.1099 14.8571 17.1339 14.7523 17.1503C14.5897 17.1754 14.4314 17.2201 14.2688 17.2463C13.9337 17.3031 13.6107 17.302 13.2713 17.3031C12.9809 17.3053 12.6961 17.2693 12.4079 17.2431C12.1809 17.2223 11.9572 17.194 11.728 17.183C11.5752 17.1765 11.4027 17.1721 11.2543 17.1372C10.857 17.0444 10.4696 16.9287 10.0603 16.9266C9.8529 16.9255 9.63789 16.9211 9.43161 16.8916C9.23079 16.8633 9.03324 16.8141 8.83023 16.7945C8.62614 16.7748 8.41877 16.7825 8.21576 16.7487C8.12081 16.7323 8.03131 16.7028 7.94072 16.6755C7.9811 16.7105 8.01057 16.7574 8.01385 16.8349C7.85341 16.8643 7.68969 16.8982 7.52707 16.9178C7.3197 16.9429 7.13743 16.908 6.94097 16.8502C6.80018 16.8076 6.69868 16.7421 6.57862 16.6657C6.44765 16.5817 6.29594 16.5227 6.15624 16.4551C5.69347 16.2324 5.23616 15.989 4.75703 15.7991C4.46343 15.6834 4.20258 15.523 3.95701 15.3222C3.8315 15.2196 3.72563 15.1061 3.58156 15.0329C3.54118 15.0122 3.50189 14.9904 3.4615 14.9685C3.52699 14.9915 3.59247 15.0155 3.65578 15.0428C3.7933 15.1028 3.92318 15.1715 4.06724 15.2152C4.15019 15.2403 4.23751 15.2589 4.32591 15.2763C4.34665 15.2992 4.36848 15.3222 4.39249 15.3429C4.47653 15.4149 4.57913 15.4586 4.67408 15.5164C4.84543 15.6234 5.00151 15.7511 5.19687 15.8133C5.31256 15.8504 5.42716 15.905 5.5494 15.9093C5.68474 15.9137 5.80371 15.9366 5.9314 15.9836C6.03181 16.0207 6.14423 16.0469 6.24246 16.0862C6.28612 16.1047 6.31122 16.1331 6.35815 16.1429C6.5044 16.1746 6.65065 16.204 6.79691 16.2411C6.85803 16.2564 6.93115 16.2641 6.989 16.2913C7.0523 16.3208 7.08177 16.3732 7.1287 16.4223C7.1669 16.4605 7.21492 16.4889 7.26404 16.5162C7.25312 16.5184 7.24221 16.5205 7.2302 16.5216C7.24657 16.5205 7.26294 16.5238 7.27932 16.5249C7.30005 16.5358 7.3197 16.5467 7.34044 16.5577C7.49105 16.6384 7.65804 16.6461 7.82721 16.6428C7.86541 16.6526 7.90252 16.6635 7.94072 16.6755C7.92544 16.6624 7.90907 16.6504 7.89161 16.6406C7.94618 16.6384 8.00184 16.6362 8.05532 16.6362C8.53337 16.6308 8.99504 16.7476 9.47308 16.7541C9.65426 16.7563 9.82562 16.7639 10.0057 16.7792C10.1618 16.7923 10.32 16.7672 10.4761 16.7781C10.618 16.7879 10.7522 16.8578 10.8854 16.8982C11.0327 16.9429 11.1855 16.9735 11.3383 16.9986C11.4671 17.0182 11.5948 17.0073 11.7236 17.0193C11.9681 17.0422 12.2082 17.0422 12.4549 17.0422C13.0639 17.0412 13.6598 17.0433 14.2557 16.8982C14.4107 16.8611 14.5504 16.8152 14.6923 16.7421C14.8298 16.6701 14.9204 16.5893 15.0252 16.4954C14.9859 16.4987 14.9477 16.5042 14.9084 16.5129C14.8113 16.5336 14.7338 16.55 14.6355 16.55C14.5853 16.55 14.5318 16.5424 14.4838 16.5522C14.4445 16.5609 14.4216 16.5773 14.3801 16.5795C14.3474 16.5817 14.3125 16.574 14.2797 16.5773C14.2241 16.5838 14.1739 16.6068 14.116 16.6089C13.9927 16.6122 13.877 16.6275 13.7548 16.6472C13.638 16.6668 13.519 16.705 13.4022 16.7181C13.1425 16.7487 12.8641 16.7236 12.6033 16.7236C12.4592 16.7236 12.3163 16.7225 12.1722 16.7236C12.015 16.7246 11.8655 16.6941 11.7105 16.6952C11.5763 16.6952 11.4431 16.6941 11.3089 16.6941C10.9585 16.6952 10.6267 16.6286 10.2895 16.5282C10.0941 16.4703 9.89765 16.4005 9.69355 16.3798C9.59642 16.3699 9.52656 16.3437 9.4327 16.3241C9.24061 16.2826 9.03651 16.3197 8.84988 16.2619C8.58575 16.1789 8.31508 16.1647 8.04222 16.1287C7.89161 16.1091 7.74317 16.1156 7.59583 16.072C7.52052 16.049 7.44521 16.0338 7.3699 16.0207C7.28805 15.9683 7.21056 15.9181 7.13197 15.857C7.00864 15.762 6.89404 15.678 6.75652 15.6037C6.59172 15.5164 6.40072 15.4913 6.24137 15.3855C6.20535 15.3614 6.17043 15.332 6.13768 15.3036C6.13004 15.2938 6.12131 15.285 6.11913 15.2763C6.11258 15.2479 6.12022 15.2032 6.12131 15.1737C6.12131 15.1071 6.10821 15.0733 6.08529 15.0144C6.06128 14.9554 6.06347 14.9096 6.06347 14.8452C6.06347 14.7011 6.03509 14.5734 5.96524 14.449C5.91176 14.3519 5.82444 14.2667 5.78624 14.1598C5.70766 13.9382 5.73495 13.6763 5.63344 13.4624C5.61598 13.4253 5.63999 13.4515 5.60288 13.4154C5.57232 13.3849 5.51557 13.374 5.48064 13.3489C5.43262 13.315 5.39879 13.2801 5.39333 13.2212C5.38678 13.1437 5.42607 13.0531 5.42607 12.9723C5.42716 12.9112 5.42607 12.8501 5.42607 12.7879C5.42607 12.5674 5.41843 12.3447 5.42389 12.1232C5.42716 12.0217 5.43699 11.906 5.45663 11.8067C5.46973 11.7434 5.50902 11.6932 5.52103 11.6277C5.54613 11.4956 5.55923 11.3614 5.5756 11.2293C5.59961 11.0405 5.64872 10.8473 5.69456 10.6618C5.73495 10.498 5.78079 10.3998 5.8943 10.271C6.00126 10.1499 6.10385 10.02 6.22282 9.91414C6.26647 9.87375 6.28721 9.85302 6.31122 9.7919C6.36361 9.65547 6.35488 9.47429 6.30795 9.33568C6.28721 9.27565 6.24028 9.23199 6.23373 9.1676C6.23045 9.12285 6.24683 9.07483 6.25556 9.03226C6.30467 8.78778 6.39744 8.55422 6.5939 8.39378C6.607 8.38286 6.62009 8.37195 6.63319 8.36103C6.65502 8.35449 6.67685 8.34685 6.69868 8.3403C6.87876 8.28463 7.03156 8.1995 7.20401 8.12529C7.47032 8.01178 7.73444 7.88954 7.99747 7.76948C8.06623 7.73783 8.14373 7.71164 8.2103 7.67562C8.24086 7.65816 8.26924 7.63742 8.29762 7.61777C8.31726 7.6145 8.33691 7.61122 8.35546 7.60577C8.38493 7.59704 8.49844 7.53592 8.48862 7.54028C8.59558 7.49662 8.71782 7.46606 8.81932 7.40822C8.82369 7.40494 8.82696 7.40167 8.83133 7.39949C8.8979 7.38421 8.96448 7.37548 9.02778 7.34819C9.06598 7.33182 9.09873 7.31763 9.13802 7.30562C9.41087 7.22377 9.69574 7.17793 9.97732 7.14737C10.0886 7.13536 10.1902 7.1048 10.2938 7.07424C10.6016 7.07861 10.9116 7.08188 11.2194 7.0666C11.3896 7.05787 11.5261 7.04259 11.6909 7.07206C11.8655 7.10371 12.0445 7.10371 12.2191 7.13645C12.4188 7.17465 12.6066 7.23796 12.8074 7.26852C13.0148 7.29908 13.1981 7.39185 13.388 7.47589C13.5812 7.56102 13.7668 7.56866 13.973 7.56648C14.4904 7.55884 15.0241 7.57739 15.5305 7.68108C15.942 7.76621 16.3447 7.89172 16.7562 7.97904C17.0061 8.03252 17.2506 8.086 17.4853 8.17658C17.5376 8.20605 17.59 8.23443 17.6413 8.26281C17.7417 8.31956 17.8378 8.36867 17.9371 8.4287C18.1587 8.56404 18.3726 8.70374 18.5592 8.88929C18.6378 8.96678 18.7153 9.08465 18.7589 9.18725C18.8124 9.31385 18.7851 9.4732 18.7851 9.60744C18.7851 9.68603 18.7906 9.76788 18.7851 9.84647C18.7819 9.8934 18.7731 9.88903 18.7568 9.93051C18.7131 10.0407 18.6804 10.1826 18.7 10.3038C18.724 10.4511 18.8288 10.5614 18.9128 10.6803C19.0187 10.8277 19.118 10.9674 19.1857 11.1376C19.2457 11.2904 19.3047 11.4443 19.3549 11.6004C19.4356 11.8492 19.4662 12.1112 19.5328 12.3633C19.5721 12.5117 19.6321 12.6525 19.6703 12.801C19.7205 12.9931 19.7401 13.1644 19.7412 13.362C19.7423 13.6337 19.6834 13.8989 19.6255 14.1652ZM13.1119 17.5345C12.9613 17.5345 12.8052 17.5225 12.6568 17.541C12.5356 17.5563 12.4199 17.5683 12.2977 17.5618C12.1274 17.5519 11.9604 17.541 11.7902 17.5378C11.7836 17.5378 11.7782 17.5356 11.7716 17.5356C11.8557 17.5367 11.9397 17.5367 12.0238 17.5367C12.2006 17.5378 12.3763 17.5476 12.5498 17.5061C12.6273 17.4875 12.6983 17.4745 12.7779 17.4755C12.9023 17.4788 13.0257 17.4745 13.149 17.4745C13.3564 17.4766 13.5616 17.5137 13.7678 17.5268C13.5539 17.5541 13.3236 17.5345 13.1119 17.5345ZM3.59902 11.7041C3.65359 11.5644 3.68852 11.4127 3.71035 11.2642C3.71908 11.202 3.71035 11.1453 3.73109 11.0874C3.77147 10.9783 3.82604 10.8844 3.85333 10.7698C3.87406 10.6836 3.90026 10.617 3.93191 10.5384C3.95155 10.4893 3.98648 10.4478 4.00722 10.3998C4.03014 10.3485 4.02141 10.3016 4.03996 10.2525C4.05306 10.2186 4.08471 10.1914 4.10108 10.1586C4.11636 10.1291 4.11418 10.1128 4.12727 10.0811C4.14146 10.0473 4.16329 10.0145 4.17857 9.9818C4.20913 9.91414 4.24624 9.84647 4.26916 9.77334C4.28007 9.74169 4.28771 9.70676 4.29317 9.66966C4.54092 9.54414 4.77776 9.39025 5.01679 9.25382C5.14558 9.1807 5.22634 9.10866 5.28964 8.9766C5.32457 8.90347 5.37587 8.85654 5.4228 8.79433C5.46536 8.73758 5.49702 8.6841 5.55704 8.64262C5.58106 8.62516 5.60616 8.61097 5.63235 8.59678C5.69893 8.58587 5.76551 8.57495 5.83208 8.56404C5.76551 8.64153 5.69675 8.71793 5.63126 8.79651C5.56141 8.87837 5.46755 8.94931 5.41516 9.04318C5.33767 9.18179 5.33767 9.28657 5.33876 9.43827C5.33876 9.53868 5.35404 9.64237 5.3202 9.73732C5.29074 9.82027 5.2438 9.90977 5.1936 9.9818C5.04626 10.1935 4.77122 10.3038 4.72974 10.5843C4.7101 10.7174 4.80833 10.7665 4.84434 10.8822C4.86617 10.9532 4.83779 11.0558 4.82797 11.1267C4.81378 11.2206 4.80069 11.3188 4.7734 11.4105C4.74175 11.5164 4.697 11.6026 4.70137 11.7161C4.71337 11.9922 4.73956 12.2683 4.75703 12.5445C4.7603 12.6111 4.78977 12.801 4.75485 12.8599C4.71883 12.9199 4.60859 12.8992 4.57913 12.9549C4.57149 12.969 4.5824 13.0476 4.58349 13.0651C4.58786 13.1218 4.61405 13.16 4.62933 13.2157C4.64789 13.2801 4.64679 13.3412 4.67081 13.4023C4.72538 13.5486 4.72865 13.6719 4.8498 13.7789C4.90983 13.8324 4.99605 13.8891 5.02661 13.9688C5.07136 14.0867 5.0659 14.2875 5.02224 14.4054C5.01788 14.4152 5.01351 14.4206 5.00915 14.4283C4.95458 14.4108 4.89891 14.3966 4.84325 14.3824C4.83779 14.3759 4.83234 14.3683 4.82688 14.3617C4.77995 14.3049 4.72428 14.2886 4.66862 14.246C4.47216 14.0976 4.22659 14.0419 4.05524 13.8629C3.99412 13.7985 3.99194 13.7199 3.97666 13.637C3.95046 13.4875 3.89262 13.3369 3.85333 13.1884C3.83586 13.124 3.80203 13.0978 3.77802 13.0411C3.742 12.9603 3.84241 13.0662 3.74091 12.921C3.68306 12.8392 3.61103 12.7693 3.54227 12.6973C3.54227 12.6231 3.54227 12.5499 3.54227 12.4757C3.54227 12.2236 3.50625 11.942 3.59902 11.7041ZM7.97456 7.62432C7.90361 7.65379 7.83922 7.67016 7.75627 7.68981C7.59692 7.72692 7.43539 7.74874 7.27495 7.76948C7.34917 7.72146 7.42448 7.65816 7.50633 7.62869C7.64385 7.61996 7.78137 7.61886 7.91889 7.62432C7.93745 7.62432 7.956 7.62432 7.97456 7.62432ZM9.06598 7.30017C8.99613 7.32854 8.92519 7.35583 8.85534 7.38312C8.87826 7.36674 8.90009 7.34928 8.92301 7.33946C8.94811 7.32636 9.00704 7.31217 9.06598 7.30017ZM9.53639 7.13209C9.50583 7.143 9.47527 7.15392 9.44471 7.16374C9.4578 7.15282 9.4709 7.143 9.48836 7.13645C9.50474 7.13536 9.52111 7.13318 9.53639 7.13209ZM5.4741 8.07399C5.79825 7.87208 6.14423 7.71709 6.45856 7.49881C6.62009 7.38639 6.7587 7.27943 6.94643 7.20303C7.11997 7.13318 7.27932 7.04259 7.45285 6.97601C7.69842 6.88106 7.91998 6.74354 8.15792 6.63658C8.24305 6.59838 8.34237 6.59401 8.43405 6.57437C8.51154 6.55581 8.58575 6.5318 8.66215 6.50997C8.76911 6.47941 8.88371 6.43794 8.9874 6.41175C9.102 6.38228 9.23624 6.44012 9.34757 6.40847C9.37049 6.40192 9.37595 6.38337 9.40433 6.37682C9.50255 6.35717 9.60078 6.38119 9.69792 6.33425C9.71866 6.31461 9.74267 6.29933 9.76995 6.2906C9.80161 6.30369 9.83435 6.29933 9.86709 6.27641C9.99042 6.23384 10.0766 6.13998 10.2011 6.0996C10.3462 6.05158 10.4466 6.00028 10.5918 6.00137C10.7151 6.00246 10.8559 6.02211 10.9771 5.99591C11.1233 5.96535 11.2598 5.92934 11.4071 5.9086C11.6363 5.87586 11.8731 5.88895 12.1078 5.88459C12.2748 5.88022 12.4483 5.91187 12.6109 5.94461C12.6142 5.94571 12.6186 5.9468 12.6229 5.9468C12.6284 5.9337 12.6393 5.9206 12.6633 5.91187C12.7255 5.88895 12.8794 5.95007 12.9285 5.9599C13.0071 5.97408 13.0672 5.9719 13.1457 5.97845C13.3542 5.99482 13.5605 6.01992 13.7646 6.06467C13.9458 6.10396 14.1269 6.17054 14.3016 6.22511C14.4042 6.25676 14.4849 6.33207 14.5799 6.37245C14.6803 6.41502 14.808 6.43685 14.9106 6.47287C15.0525 6.52416 15.1965 6.54927 15.333 6.60929C15.465 6.66714 15.5938 6.6977 15.7313 6.72717C15.7433 6.73263 15.7542 6.73808 15.7673 6.74245C15.8961 6.78501 16.0227 6.82867 16.1526 6.8636C16.1744 6.87124 16.1952 6.87888 16.217 6.88652C16.2487 6.89525 16.2792 6.89852 16.3109 6.90071C16.3316 6.90398 16.3523 6.90944 16.3731 6.91271C16.5193 6.93563 16.6601 6.97383 16.802 7.01203C16.8566 7.02622 16.9123 7.03168 16.9668 7.04041C16.9766 7.04368 16.9876 7.04586 16.9985 7.05023C17.0563 7.07206 17.1163 7.09716 17.1753 7.12336C17.2724 7.18338 17.3576 7.25869 17.4656 7.31326C17.5442 7.35256 17.6009 7.38748 17.6872 7.40058C17.697 7.40276 17.7068 7.40385 17.7166 7.40494C17.7483 7.42568 17.781 7.44642 17.816 7.46388C17.8782 7.49772 17.9447 7.51518 18.0113 7.54028C18.1357 7.58721 18.2634 7.62214 18.389 7.66689C18.2591 7.65161 18.1314 7.62978 18.0146 7.59594C17.888 7.55884 17.7734 7.53701 17.6468 7.50754C17.399 7.45078 17.1633 7.32636 16.9133 7.26524C16.7147 7.21722 16.5084 7.19539 16.3076 7.15501C16.026 7.09825 15.7477 7.02622 15.4661 6.97056C15.2969 6.93781 15.1736 6.89852 15.023 6.81994C14.9728 6.79047 14.9193 6.76646 14.8658 6.74463C14.8484 6.73044 14.832 6.71625 14.8145 6.70207C14.7185 6.65841 14.653 6.80466 14.6006 6.86578C14.3005 6.80248 14.0407 6.65623 13.77 6.51761C13.6063 6.43357 13.4426 6.35281 13.2582 6.35063C13.0497 6.34844 12.8456 6.30588 12.6382 6.29278C12.5509 6.28732 12.468 6.29496 12.3806 6.27859C11.8851 6.188 11.3787 6.11379 10.8734 6.14871C10.4455 6.17818 10.0308 6.41829 9.67282 6.63985C9.4578 6.7741 9.22533 6.79593 8.98958 6.87124C8.88262 6.90616 8.78003 6.96292 8.67307 7.00112C8.57811 7.03604 8.48643 7.03168 8.3893 7.05678C8.30853 7.07752 8.22122 7.10808 8.14373 7.14082C8.06405 7.17465 8.02585 7.24232 7.96037 7.29253C7.84249 7.38202 7.61329 7.42132 7.46813 7.42568C7.42666 7.42677 7.383 7.42132 7.34262 7.41477C7.27277 7.40494 7.19964 7.37984 7.12979 7.39731C7.04029 7.41804 6.97044 7.44969 6.8744 7.45188C6.73688 7.45515 6.67248 7.45078 6.55461 7.50863C6.5175 7.52718 6.4793 7.54137 6.44219 7.55774C6.3265 7.60686 6.22827 7.68544 6.11695 7.74547C5.99798 7.80877 5.89102 7.88626 5.78079 7.95939C5.71094 7.99104 5.63563 8.00305 5.56687 8.03361C5.50356 8.0598 5.4359 8.11437 5.37478 8.16021C5.33985 8.17549 5.30492 8.19077 5.27 8.20714C5.33767 8.1624 5.40534 8.11656 5.4741 8.07399ZM3.12534 9.90213L3.18865 9.70022C3.22466 9.6762 3.26177 9.65547 3.29888 9.63691C3.24213 9.72532 3.18428 9.81482 3.12534 9.90213ZM1.58643 13.0302C1.57115 13.0149 1.55369 12.992 1.53623 12.9658C1.54823 12.9701 1.55915 12.9767 1.57006 12.9821C1.57661 13.0007 1.58534 13.0192 1.59189 13.0378C1.58971 13.0345 1.58861 13.0334 1.58643 13.0302ZM24.5435 11.1595C24.5326 11.1387 24.5119 11.1191 24.4999 11.0951C24.4758 11.0492 24.4748 10.999 24.4398 10.9575C24.3863 10.8942 24.2859 10.8582 24.2106 10.8342C24.2052 10.8331 24.1986 10.8309 24.1932 10.8298C24.1779 10.8091 24.1593 10.7906 24.1331 10.7829C24.12 10.7785 24.1037 10.7775 24.0884 10.7753C24.0786 10.7676 24.0687 10.7589 24.0622 10.7524C23.9007 10.593 23.6758 10.4588 23.4728 10.3594C23.3146 10.2809 23.1629 10.1794 23.0068 10.0877C23.0428 10.1182 23.0788 10.1477 23.117 10.1739C23.129 10.1739 23.141 10.175 23.153 10.1794C23.1639 10.1946 23.1749 10.2121 23.1836 10.2285C23.2927 10.3725 23.4816 10.3998 23.6245 10.4642L24.0087 10.7753C24.0076 10.7753 24.0065 10.7753 24.0054 10.7753C23.9356 10.7567 23.8657 10.7393 23.7959 10.7196C23.6387 10.6749 23.5394 10.5679 23.4128 10.4784C23.2611 10.3736 23.0908 10.2896 22.9511 10.1706C22.9227 10.1466 22.8955 10.1193 22.8649 10.0964C22.7186 9.98617 22.5746 9.8552 22.4403 9.73078C22.4076 9.69912 22.3803 9.66529 22.353 9.63146C22.4654 9.67293 22.5637 9.7537 22.6619 9.83119C22.6499 9.817 22.6368 9.80281 22.6226 9.78753C22.5517 9.70567 22.4676 9.63582 22.3989 9.5496C22.1577 9.244 21.816 9.04209 21.5563 8.75504C21.5137 8.70811 21.4744 8.64808 21.4209 8.61315C21.3915 8.5946 21.3565 8.58259 21.3249 8.5564C21.207 8.45599 21.1011 8.35667 20.9996 8.24098C20.9462 8.17986 20.885 8.12856 20.8305 8.06962C20.801 8.03906 20.7923 8.00305 20.7661 7.97249C20.7355 7.93647 20.6831 7.92337 20.6417 7.895C20.6013 7.86662 20.5751 7.82733 20.5314 7.80332C20.4965 7.78367 20.4507 7.77385 20.4146 7.75529C20.2913 7.69526 20.2073 7.70072 20.0796 7.67998C20.0032 7.66689 19.9333 7.62541 19.8569 7.61013C19.8056 7.59922 19.7554 7.59267 19.7041 7.58394C19.6976 7.57848 19.6921 7.57193 19.6856 7.56757C19.6124 7.52064 19.5568 7.43769 19.4837 7.3984C19.3145 7.30781 19.1355 7.24014 18.9587 7.16483C18.8659 7.12554 18.784 7.07533 18.6858 7.05569C18.5287 7.02294 18.413 6.95309 18.2744 6.88215C18.1805 6.83413 18.0659 6.81885 17.9731 6.75991C17.8301 6.66823 17.6501 6.62239 17.482 6.58528C17.4045 6.57328 17.3325 6.54708 17.2648 6.50888C17.2342 6.48596 17.2026 6.46413 17.1709 6.44231C17.0967 6.40738 17.0159 6.39647 16.9374 6.35172C16.7453 6.24039 16.5532 6.13452 16.3545 6.0352C16.2236 5.97081 16.0784 5.94134 15.9354 5.9206C15.7892 5.89987 15.6429 5.92606 15.4956 5.88568C15.2828 5.82565 15.0601 5.74488 14.8429 5.71105C14.6388 5.6794 14.4391 5.61937 14.2317 5.60081C14.0691 5.58663 13.901 5.603 13.7395 5.5648C13.6281 5.5386 13.5343 5.47748 13.4284 5.43601C13.1534 5.32796 12.8882 5.48403 12.6098 5.47967C12.2562 5.47421 11.9059 5.51132 11.5533 5.50914C11.1386 5.50695 10.7228 5.50804 10.3069 5.50695C10.021 5.50695 9.69246 5.50804 9.40978 5.57135C9.35739 5.58335 9.30391 5.60627 9.25371 5.62373C9.11073 5.67285 8.96121 5.68376 8.81168 5.69904C8.66543 5.71432 8.53009 5.72087 8.40021 5.79181C8.20048 5.90096 7.99638 5.99264 7.78792 6.08432C7.45831 6.22948 7.09159 6.30151 6.74342 6.38992C6.48257 6.45649 6.23155 6.52853 6.00889 6.68897C5.91285 6.75773 5.83427 6.84613 5.74913 6.92581C5.63563 7.03386 5.52757 7.11244 5.40424 7.20194C5.27109 7.30017 5.15431 7.40822 5.04953 7.53592C4.92183 7.6909 4.78759 7.8437 4.65771 7.99541C4.48199 8.1995 4.21022 8.30974 4.00067 8.48328C3.94719 8.51274 3.89589 8.5433 3.84023 8.58041C3.79876 8.60988 3.72999 8.62298 3.69725 8.66445C3.66669 8.70374 3.67106 8.76486 3.65359 8.8107C3.60885 8.81616 3.54336 8.80852 3.52481 8.862C3.56628 8.93185 3.41457 9.00934 3.37201 9.04099C3.25413 9.13267 3.15263 9.24836 3.03803 9.33895C2.97254 9.39134 2.94635 9.44264 2.90597 9.52013C2.75862 9.79845 2.64184 10.1019 2.42574 10.3343C2.35807 10.4086 2.26748 10.4566 2.20418 10.533C2.15397 10.593 2.10377 10.6574 2.05029 10.7196C2.02628 10.7327 2.00117 10.7458 1.97935 10.7633C1.94769 10.8069 1.91168 10.8473 1.87238 10.8844C1.83418 10.9106 1.79599 10.9368 1.75669 10.9608C1.63227 11.0459 1.51767 11.1409 1.3998 11.2348C1.31794 11.3013 1.27756 11.3505 1.2219 11.4356C1.17824 11.5011 1.11493 11.5349 1.06145 11.5884C1.04727 11.5971 1.03308 11.6069 1.0178 11.6157C1.0047 11.6397 0.986146 11.6517 0.963226 11.6528C0.968683 11.6571 0.97305 11.6582 0.976324 11.6593C0.956678 11.6735 0.933759 11.6855 0.910839 11.6855C0.90429 11.703 0.901016 11.7204 0.89665 11.7379C0.777684 11.8056 0.62925 11.8176 0.496095 11.8405C0.385861 11.8602 0.27781 11.8547 0.166484 11.8547C0.15557 11.8547 0.0409703 11.8427 0.022416 11.8569C-0.0201497 11.8885 0.00822685 12.0195 0.0235068 12.0653C0.0431525 12.1286 0.0507937 12.2127 0.0933594 12.2651C0.119554 12.2978 0.204685 12.3371 0.237428 12.3491C0.340022 12.3884 0.45353 12.3829 0.559399 12.4124C0.62925 12.4321 0.700194 12.4626 0.766771 12.4855C0.802788 12.4975 0.832255 12.503 0.868272 12.5194C0.925026 12.5467 0.953403 12.5936 0.99706 12.6307C1.03526 12.6634 1.08765 12.6798 1.12912 12.7158C1.21535 12.7944 1.31794 12.8468 1.41726 12.9101C1.44891 12.9308 1.47947 12.9428 1.50894 12.9549C1.53186 13.016 1.55151 13.0804 1.5646 13.1546C1.57988 13.2452 1.58425 13.2615 1.62463 13.3325C1.65956 13.3936 1.69012 13.4569 1.72177 13.5191C1.7305 13.577 1.74141 13.6348 1.75779 13.6905C1.7938 13.8029 1.80581 13.9633 1.8833 14.0561C1.93023 14.1107 2.02737 14.15 2.08849 14.198C2.13978 14.2373 2.18999 14.27 2.2402 14.3093C2.26421 14.3541 2.28713 14.3999 2.32314 14.4359C2.36025 14.4719 2.41046 14.4927 2.44866 14.5276C2.5447 14.6127 2.63311 14.7306 2.71497 14.831C2.82084 14.9609 2.94089 15.0679 3.08169 15.1552C3.22685 15.2458 3.37637 15.3353 3.51171 15.4411C3.67324 15.5688 3.82495 15.6987 4.00394 15.8024C4.124 15.8722 4.21677 15.9301 4.32591 16.0207C4.42851 16.1058 4.52237 16.1909 4.63806 16.2553C4.7734 16.3306 4.89564 16.4201 5.02443 16.5053C5.16086 16.5959 5.31366 16.6657 5.44135 16.7683C5.51884 16.8294 5.60179 16.8796 5.69347 16.92C5.8179 16.9735 5.95542 16.9844 6.08093 17.0324C6.09839 17.0575 6.11913 17.0804 6.14314 17.0946C6.26538 17.1699 6.46839 17.2147 6.61573 17.2169C6.71396 17.218 6.82201 17.2016 6.91915 17.2201C7.18 17.2704 7.4092 17.3981 7.66132 17.4679C7.92653 17.541 8.20594 17.576 8.47225 17.6491C8.63487 17.6938 8.78221 17.7659 8.95247 17.7899C9.10527 17.7953 9.25371 17.8183 9.39996 17.8586C9.48618 17.8826 9.57131 17.9067 9.65754 17.9307C9.81034 17.9678 9.96641 17.9809 10.1236 17.97C10.3058 17.9711 10.4881 17.9852 10.6682 18.0125C11.2881 18.0758 11.9157 18.1359 12.5389 18.1675C12.7037 18.1762 12.8707 18.1784 13.0366 18.1741C13.2036 18.1708 13.3607 18.1228 13.5266 18.1053C13.794 18.0769 14.0243 17.9885 14.2808 17.9088C14.4729 17.8488 14.6574 17.7986 14.8451 17.7255C15.0088 17.6611 15.1616 17.648 15.333 17.6163C15.4836 17.5891 15.6266 17.5399 15.7794 17.5345C15.9987 17.5268 16.1963 17.4941 16.4091 17.4493C16.575 17.4133 16.7485 17.3708 16.9188 17.3599C17.1687 17.3446 17.4263 17.3293 17.6675 17.2529C17.9022 17.1787 18.0954 17.0281 18.3147 16.9244C18.4621 16.8534 18.6083 16.8065 18.7513 16.7214C18.9379 16.61 19.1355 16.5107 19.3341 16.4223C19.4716 16.3612 19.6103 16.3175 19.7325 16.2302C19.8842 16.1222 19.9846 15.9868 20.0883 15.8319C20.2138 15.6452 20.311 15.4444 20.4277 15.2534C20.5161 15.1235 20.6024 14.9915 20.6853 14.8572C20.7006 14.8201 20.7213 14.7852 20.7399 14.7502C20.9353 14.5811 21.1317 14.4152 21.3762 14.3235C21.4832 14.2831 21.5814 14.2395 21.6818 14.1827C21.8346 14.0976 21.9426 13.9601 22.0889 13.8673C22.4141 13.661 22.687 13.3903 22.9751 13.1349C23.0919 13.0323 23.188 12.9112 23.2993 12.8031C23.3702 12.7344 23.4303 12.6711 23.4805 12.5849C23.547 12.4724 23.6387 12.3862 23.7031 12.2694C23.7926 12.1046 23.9247 11.978 24.0316 11.8252C24.0546 11.7925 24.0666 11.7456 24.0862 11.7074C24.0655 11.7248 24.0404 11.7368 24.0164 11.7554C23.988 11.7772 23.964 11.8023 23.94 11.8285C23.9727 11.787 24.0076 11.7466 24.0415 11.7041C24.1004 11.6342 24.1659 11.5884 24.2477 11.5513C24.3602 11.4989 24.4518 11.4105 24.537 11.3199C24.597 11.2577 24.5839 11.2053 24.5435 11.1595Z"/>
</svg>
