<?xml version="1.0" encoding="UTF-8" standalone="no"?>
<!-- Created with Inkscape (http://www.inkscape.org/) -->

<svg
   width="19.404062"
   height="24"
   viewBox="0 0 5.1339914 6.35"
   version="1.1"
   id="svg59214"
   inkscape:version="1.2.1 (9c6d41e4, 2022-07-14)"
   sodipodi:docname="penguins.svg"
   xmlns:inkscape="http://www.inkscape.org/namespaces/inkscape"
   xmlns:sodipodi="http://sodipodi.sourceforge.net/DTD/sodipodi-0.dtd"
   xmlns="http://www.w3.org/2000/svg"
   xmlns:svg="http://www.w3.org/2000/svg">
  <sodipodi:namedview
     id="namedview59216"
     pagecolor="#505050"
     bordercolor="#eeeeee"
     borderopacity="1"
     inkscape:showpageshadow="0"
     inkscape:pageopacity="0"
     inkscape:pagecheckerboard="0"
     inkscape:deskcolor="#505050"
     inkscape:document-units="mm"
     showgrid="false"
     inkscape:zoom="0.7046647"
     inkscape:cx="150.42615"
     inkscape:cy="338.45884"
     inkscape:window-width="1390"
     inkscape:window-height="941"
     inkscape:window-x="0"
     inkscape:window-y="25"
     inkscape:window-maximized="0"
     inkscape:current-layer="layer1" />
  <defs
     id="defs59211">
    <clipPath
       clipPathUnits="userSpaceOnUse"
       id="clipPath55195">
      <path
         d="m 188.526,490.08 h 24.699 v 24.699 h -24.699 z"
         id="path55193" />
    </clipPath>
  </defs>
  <g
     inkscape:label="Layer 1"
     inkscape:groupmode="layer"
     id="layer1"
     transform="translate(-65.393813,-59.153698)">
    <g
       id="g55189"
       transform="matrix(0.29202718,0,0,-0.29202718,9.4113806,208.93606)">
      <g
         id="g55191"
         clip-path="url(#clipPath55195)">
        <g
           id="g55197"
           transform="translate(207.438,510.811)">
          <path
             d="M 0,0 C -0.025,0.012 -0.044,0.034 -0.047,0.063 -0.047,0.019 -0.04,-0.025 0,0"
             style="fill:#100f0d;fill-opacity:1;fill-rule:nonzero;stroke:none"
             id="path55199" />
        </g>
        <g
           id="g55201"
           transform="translate(209.249,498.025)">
          <path
             d="M 0,0 C -0.007,0.047 -0.023,0.091 -0.023,0.141 -0.024,0.106 -0.024,0.075 -0.018,0.043 -0.014,0.027 -0.005,0.015 0,0"
             style="fill:#100f0d;fill-opacity:1;fill-rule:nonzero;stroke:none"
             id="path55203" />
        </g>
        <g
           id="g55205"
           transform="translate(209.249,498.025)">
          <path
             d="M 0,0 C 0.002,-0.012 0.004,-0.023 0.004,-0.035 0.006,-0.021 0.004,-0.01 0,0"
             style="fill:#100f0d;fill-opacity:1;fill-rule:nonzero;stroke:none"
             id="path55207" />
        </g>
        <g
           id="g55209"
           transform="translate(202.363,494.17)">
          <path
             d="m 0,0 c -0.04,-0.08 -0.06,-0.185 -0.12,-0.254 -0.044,-0.051 -0.085,-0.088 -0.115,-0.151 -0.067,-0.141 -0.209,-0.204 -0.369,-0.194 -0.071,0.004 -0.135,0.037 -0.18,0.091 -0.031,0.036 -0.04,0.071 -0.05,0.117 -0.013,0.062 -0.034,0.096 -0.063,0.152 -0.032,0.06 -0.078,0.091 -0.116,0.147 -0.028,0.041 -0.032,0.081 -0.043,0.126 -0.034,0.14 -0.021,0.302 -0.02,0.452 0.001,0.161 -0.015,0.335 -0.053,0.491 -0.032,0.133 -0.032,0.271 -0.109,0.387 0.003,-0.054 0.015,-0.101 0.023,-0.153 0.011,-0.076 0,-0.151 0.004,-0.228 0.009,-0.137 0.055,-0.269 0.055,-0.409 0,-0.156 -0.044,-0.262 -0.101,-0.402 -0.024,-0.06 -0.061,-0.119 -0.08,-0.18 -0.004,-0.015 -0.007,-0.032 -0.011,-0.047 -0.025,-0.037 -0.05,-0.072 -0.075,-0.109 -0.033,-0.048 -0.018,-0.074 -0.027,-0.127 -0.007,-0.038 -0.022,-0.078 -0.031,-0.118 -0.013,-0.063 -0.033,-0.093 -0.061,-0.146 -0.011,-0.022 -0.007,-0.048 -0.017,-0.069 -0.01,-0.019 -0.035,-0.016 -0.043,-0.03 -0.071,-0.129 -0.131,-0.226 -0.275,-0.297 -0.051,-0.025 -0.1,-0.076 -0.155,-0.091 -0.042,-0.011 -0.072,-0.012 -0.112,-0.031 -0.02,-0.009 -0.038,-0.021 -0.057,-0.031 -0.021,0.002 -0.042,0.004 -0.064,0.004 -0.178,-10e-4 -0.327,0.06 -0.478,0.128 -0.007,0.006 -0.013,0.012 -0.019,0.018 -0.082,0.07 -0.191,0.119 -0.299,0.119 -0.055,0.028 -0.104,0.062 -0.159,0.096 -0.056,0.084 -0.093,0.203 -0.146,0.271 -0.033,0.041 -0.055,0.07 -0.079,0.117 -0.037,0.073 -0.079,0.143 -0.144,0.193 -0.058,0.044 -0.123,0.09 -0.185,0.126 -0.029,0.017 -0.058,0.028 -0.086,0.037 -0.042,0.092 -0.093,0.18 -0.132,0.272 -0.034,0.079 -0.083,0.145 -0.119,0.223 -0.042,0.093 -0.078,0.213 -0.099,0.312 -0.029,0.137 -0.087,0.267 -0.134,0.4 -0.039,0.114 -0.074,0.23 -0.116,0.343 -0.007,0.017 -0.014,0.033 -0.021,0.049 -0.009,0.027 -0.017,0.055 -0.022,0.083 -0.026,0.145 0.005,0.301 -0.019,0.449 -0.011,0.063 -0.011,0.097 -0.033,0.155 -0.018,0.05 -0.027,0.095 -0.026,0.15 0.002,0.135 -0.047,0.234 -0.085,0.356 -0.02,0.065 -0.057,0.122 -0.074,0.189 -0.024,0.099 -0.056,0.196 -0.081,0.294 -0.001,0.003 -0.001,0.006 -0.002,0.008 0.004,0.033 0.006,0.065 0.01,0.098 0.012,0.085 0.013,0.171 0.025,0.255 0.01,0.079 0.036,0.157 0.043,0.237 0.012,0.128 0.004,0.25 0.029,0.375 0.009,0.046 -0.003,0.096 0.002,0.143 0.004,0.057 0.036,0.097 0.048,0.152 0.009,0.044 0,0.087 0.01,0.132 0.008,0.039 0.032,0.075 0.043,0.113 0.038,0.132 0.019,0.296 0.039,0.43 0.018,0.123 0.011,0.248 0.04,0.365 0.017,0.068 -0.005,0.136 0.005,0.203 0.006,0.043 0.025,0.088 0.038,0.13 0.042,0.138 0.088,0.276 0.148,0.404 0.016,0.033 0.023,0.072 0.043,0.101 0.013,0.017 0.035,0.022 0.048,0.041 0.045,0.067 0.041,0.146 0.107,0.206 0.084,0.078 0.123,0.171 0.175,0.272 0.048,0.092 0.078,0.227 0.079,0.333 10e-4,0.069 -0.007,0.141 -10e-4,0.21 0.005,0.051 0.025,0.096 0.028,0.148 0.003,0.041 10e-4,0.083 0,0.124 -0.002,0.095 -0.045,0.17 -0.07,0.26 -0.01,0.036 -0.027,0.077 -0.034,0.109 -0.009,0.039 0.003,0.082 -10e-4,0.122 -0.005,0.044 -0.023,0.084 -0.029,0.127 -0.016,0.116 -0.044,0.236 -0.053,0.355 -0.008,0.103 -0.029,0.21 -0.051,0.31 -0.01,0.041 -0.025,0.082 -0.034,0.126 -0.014,0.06 -0.014,0.117 -0.026,0.177 -0.045,0.224 -0.047,0.444 -0.047,0.673 0,0.204 -0.013,0.413 -0.001,0.616 0.003,0.051 0.024,0.074 0.042,0.12 0.012,0.034 0.013,0.069 0.024,0.104 0.058,0.191 0.2,0.349 0.266,0.536 0.052,0.145 0.099,0.293 0.162,0.433 0.061,0.136 0.091,0.281 0.13,0.425 0.058,0.216 0.04,0.438 0.091,0.651 0.008,0.032 -0.003,0.063 10e-4,0.095 0.004,0.032 0.017,0.041 0.022,0.066 0.006,0.03 0.01,0.055 0.016,0.08 0.012,0.022 0.023,0.045 0.037,0.066 0.05,0.078 0.106,0.153 0.14,0.239 0.018,0.048 0.036,0.087 0.051,0.131 0.037,0.108 0.057,0.229 0.082,0.341 0.022,0.1 0.014,0.199 0.031,0.298 0.028,0.162 0.081,0.324 0.122,0.484 0.028,0.108 0.038,0.213 0.061,0.323 0.022,0.041 0.04,0.084 0.056,0.129 0.013,0.018 0.026,0.036 0.04,0.048 0.029,0.026 0.076,0.038 0.123,0.045 0.032,-0.052 0.047,-0.111 0.07,-0.166 0.021,-0.05 0.038,-0.111 0.071,-0.153 0.031,-0.039 0.083,-0.065 0.122,-0.093 0.098,-0.069 0.221,-0.126 0.34,-0.165 0.072,-0.024 0.134,-0.062 0.204,-0.087 0.013,-0.005 0.028,-0.008 0.042,-0.012 0.023,-0.048 0.049,-0.094 0.089,-0.122 0.031,-0.022 0.053,-0.015 0.089,-0.019 0.033,-0.003 0.047,-0.012 0.079,-0.021 0.085,-0.022 0.194,-0.005 0.281,-0.005 0.171,0 0.329,-0.02 0.482,0.059 0.065,0.034 0.124,0.062 0.166,0.126 0.003,0.004 0.004,0.007 0.007,0.011 0.017,0.004 0.034,0.008 0.048,0.011 0.049,0.009 0.092,0.008 0.135,0.024 0.088,0.033 0.168,0.075 0.235,0.14 0.042,0.041 0.068,0.085 0.105,0.127 0.044,0.049 0.109,0.078 0.162,0.113 0.011,0.007 0.02,0.013 0.03,0.02 -0.029,-0.083 -0.065,-0.164 -0.098,-0.245 -0.017,-0.04 -0.049,-0.081 -0.062,-0.122 -0.01,-0.032 -0.006,-0.058 -0.02,-0.088 -0.151,-0.321 -0.059,-0.708 0.095,-1.013 0.057,-0.113 0.083,-0.23 0.157,-0.334 0.108,-0.154 0.157,-0.33 0.275,-0.475 0.037,-0.046 0.09,-0.089 0.12,-0.137 0.037,-0.059 0.049,-0.171 0.065,-0.239 0.03,-0.128 0.062,-0.237 0.114,-0.357 0.032,-0.072 0.055,-0.135 0.142,-0.15 0.007,-0.053 0.028,-0.103 0.036,-0.158 0.018,-0.127 0.026,-0.26 0.064,-0.385 0.039,-0.133 0.11,-0.242 0.182,-0.359 C 1.217,10.807 1.27,10.632 1.319,10.443 1.335,10.38 1.361,10.327 1.367,10.263 1.371,10.218 1.379,10.174 1.393,10.129 1.416,10.058 1.464,9.991 1.474,9.92 1.492,9.788 1.499,9.659 1.499,9.525 c 0,-0.236 0,-0.472 0,-0.709 C 1.499,8.56 1.491,8.313 1.466,8.058 1.434,7.737 1.446,7.413 1.446,7.089 1.446,6.811 1.393,6.536 1.392,6.257 1.392,6.188 1.394,6.119 1.393,6.05 1.392,5.974 1.368,5.905 1.367,5.829 1.365,5.715 1.369,5.6 1.367,5.486 1.365,5.385 1.339,5.292 1.34,5.191 1.342,4.931 1.34,4.67 1.34,4.409 1.34,4.165 1.314,3.927 1.313,3.684 1.313,3.497 1.235,3.334 1.168,3.161 1.147,3.107 1.138,3.047 1.121,2.989 1.11,2.953 1.104,2.903 1.087,2.872 1.064,2.83 1.019,2.807 0.997,2.762 0.948,2.663 0.925,2.544 0.895,2.438 0.879,2.379 0.871,2.327 0.863,2.266 0.852,2.173 0.814,2.083 0.789,1.992 0.761,1.893 0.718,1.792 0.705,1.69 0.697,1.627 0.692,1.567 0.676,1.504 0.649,1.391 0.631,1.28 0.609,1.167 0.584,1.042 0.522,0.94 0.477,0.824 0.43,0.702 0.384,0.63 0.3,0.529 0.215,0.426 0.126,0.319 0.077,0.194 0.051,0.128 0.032,0.063 0,0 m -6.554,3.22 c 0,0 0,0 0,10e-4 0,-10e-4 0,-10e-4 0,-10e-4 M 6.91,4.764 C 6.894,4.852 6.848,4.944 6.816,5.028 6.799,5.075 6.773,5.117 6.751,5.161 6.718,5.231 6.691,5.301 6.65,5.368 6.62,5.416 6.576,5.463 6.548,5.512 6.533,5.54 6.533,5.565 6.511,5.597 6.437,5.706 6.309,5.783 6.204,5.857 6.122,5.913 6.079,5.974 6.012,6.045 5.965,6.095 5.903,6.132 5.853,6.181 5.78,6.253 5.741,6.341 5.674,6.417 5.641,6.454 5.599,6.479 5.567,6.518 5.541,6.551 5.523,6.592 5.497,6.625 5.454,6.681 5.405,6.731 5.356,6.781 5.381,6.773 5.405,6.764 5.427,6.754 5.516,6.713 5.596,6.657 5.687,6.62 5.788,6.579 5.891,6.516 5.993,6.468 6.051,6.441 6.107,6.382 6.173,6.386 6.283,6.393 6.186,6.466 6.151,6.521 6.114,6.579 6.065,6.609 6.014,6.657 5.965,6.703 5.92,6.75 5.871,6.794 5.857,6.802 5.844,6.811 5.83,6.819 5.828,6.832 5.826,6.846 5.822,6.858 5.786,6.898 5.728,6.925 5.688,6.963 5.624,7.022 5.601,7.121 5.54,7.177 5.498,7.216 5.39,7.237 5.335,7.263 5.261,7.299 5.177,7.328 5.106,7.367 5,7.427 4.891,7.483 4.776,7.527 4.764,7.549 4.752,7.571 4.739,7.592 4.671,7.701 4.605,7.812 4.531,7.921 4.482,7.994 4.449,8.073 4.392,8.141 4.359,8.181 4.356,8.201 4.336,8.245 4.314,8.295 4.227,8.367 4.187,8.401 4.098,8.479 3.96,8.472 3.85,8.504 3.72,8.541 3.65,8.613 3.546,8.69 3.411,8.79 3.245,8.855 3.14,8.987 3.077,9.065 3.018,9.129 2.94,9.188 2.88,9.232 2.814,9.29 2.763,9.342 2.725,9.382 2.719,9.426 2.688,9.468 2.671,9.491 2.645,9.509 2.625,9.531 2.551,9.617 2.498,9.722 2.429,9.812 2.362,9.9 2.272,9.969 2.215,10.065 c -0.043,0.07 -0.102,0.127 -0.132,0.197 -0.031,0.073 -0.058,0.151 -0.082,0.224 -0.025,0.079 -0.091,0.157 -0.136,0.228 -0.023,0.036 -0.05,0.07 -0.076,0.104 -0.007,0.056 -0.022,0.119 -0.035,0.173 -0.038,0.168 -0.195,0.271 -0.261,0.426 -0.032,0.076 -0.075,0.15 -0.096,0.23 -0.035,0.135 -0.047,0.278 -0.087,0.412 -0.041,0.132 -0.099,0.26 -0.157,0.384 -0.013,0.029 -0.042,0.063 -0.05,0.092 -0.015,0.059 0.007,0.116 -0.016,0.175 -0.03,0.073 -0.083,0.094 -0.145,0.129 -0.02,0.011 -0.025,0.017 -0.051,0.032 -0.045,0.028 -0.088,0.031 -0.131,0.054 -0.067,0.036 -0.17,0.159 -0.202,0.223 -0.019,0.04 -0.043,0.078 -0.068,0.116 -0.046,0.113 -0.098,0.226 -0.145,0.34 -0.025,0.095 -0.047,0.19 -0.07,0.284 -0.012,0.052 -0.024,0.1 -0.033,0.148 -0.001,0.06 0.002,0.121 0.015,0.184 0.044,0.206 0.077,0.425 0.13,0.623 0.021,0.08 0.048,0.161 0.084,0.232 0.036,-0.007 0.071,-0.015 0.104,-0.025 0.118,-0.035 0.186,-0.103 0.288,-0.161 0.03,-0.018 0.049,-0.022 0.077,-0.045 0.035,-0.028 0.072,-0.057 0.11,-0.08 0.006,-0.004 0.012,-0.007 0.019,-0.011 0.021,-0.002 0.042,-0.008 0.064,-0.013 0.062,0.006 0.124,0.007 0.186,0.011 0.019,0.001 0.037,0.002 0.056,0.003 0.197,-0.045 0.401,-0.056 0.603,-0.056 0.289,0 0.554,-0.046 0.826,-0.132 0.093,-0.029 0.179,-0.077 0.272,-0.104 0.065,-0.019 0.09,-0.048 0.13,-0.104 0.059,-0.083 0.13,-0.18 0.124,-0.284 0.003,0.04 0.025,0.073 0.029,0.113 0.004,0.037 -0.007,0.076 -0.002,0.113 0.005,0.037 0.021,0.045 0.029,0.078 0.007,0.03 -0.002,0.076 -0.002,0.107 0,0.075 0.008,0.146 -0.026,0.214 -0.023,0.046 -0.06,0.086 -0.087,0.13 C 3.24,14.88 3.205,14.935 3.153,14.97 3.121,14.991 3.102,14.984 3.066,14.995 3.028,15.006 3,15.034 2.961,15.044 2.807,15.08 2.652,15.077 2.507,15.156 2.452,15.186 2.411,15.22 2.35,15.229 2.306,15.236 2.264,15.224 2.22,15.235 2.209,15.237 2.172,15.256 2.158,15.261 2.112,15.276 2.07,15.316 2.025,15.33 1.98,15.344 1.916,15.348 1.869,15.355 1.801,15.367 1.724,15.347 1.658,15.367 1.596,15.385 1.527,15.434 1.475,15.471 1.444,15.499 1.413,15.527 1.382,15.555 1.34,15.577 1.297,15.593 1.25,15.602 c -0.041,0.013 -0.083,0.027 -0.123,0.044 -0.058,0.025 -0.129,0.059 -0.189,0.093 0.003,0.005 0.005,0.01 0.008,0.014 0.042,0.049 0.119,0.11 0.181,0.113 0.003,0.001 0.006,0 0.009,0.001 0.062,-0.026 0.124,-0.053 0.187,-0.081 0.141,-0.064 0.326,-0.088 0.482,-0.105 0.117,-0.012 0.244,0.028 0.36,0.052 0.158,0.033 0.325,0.054 0.487,0.053 0.059,0 0.122,0.009 0.181,-0.004 0.081,-0.019 0.14,-0.046 0.229,-0.049 0.15,-0.007 0.303,-0.008 0.453,-0.024 0.164,-0.018 0.323,-0.1 0.478,-0.154 0.142,-0.048 0.223,-0.036 0.359,0.004 0.08,0.024 0.187,0.038 0.254,0.089 0.011,0.008 0.018,0.018 0.025,0.028 0.078,-0.003 0.155,-0.009 0.233,-0.019 0.31,-0.038 0.59,0.115 0.782,0.366 0.103,0.134 0.187,0.268 0.181,0.44 -0.001,0.048 -0.008,0.058 -0.027,0.104 -0.025,0.061 -0.024,0.123 -0.046,0.184 -0.023,0.062 -0.06,0.1 -0.1,0.15 C 5.547,17.036 5.356,17.169 5.178,17.167 5.1,17.166 5.045,17.148 4.978,17.114 4.92,17.085 4.861,17.059 4.843,16.995 4.829,16.944 4.835,16.833 4.87,16.794 4.9,16.76 4.98,16.714 5.025,16.71 c 0,-0.002 0.002,-0.004 0.003,-0.006 0,0.026 0.003,0.053 0.003,0.065 -0.002,0.089 0.017,0.084 0.106,0.08 0.058,-0.003 0.098,-0.033 0.13,-0.075 C 5.272,16.729 5.289,16.69 5.32,16.656 5.356,16.62 5.39,16.581 5.421,16.54 5.434,16.508 5.428,16.483 5.428,16.45 5.429,16.43 5.435,16.389 5.431,16.37 5.421,16.328 5.392,16.318 5.362,16.291 5.303,16.238 5.255,16.226 5.177,16.204 5.093,16.181 5.016,16.184 4.93,16.185 4.903,16.185 4.872,16.182 4.845,16.184 4.831,16.185 4.82,16.189 4.809,16.192 4.813,16.232 4.816,16.27 4.82,16.311 4.81,16.275 4.792,16.239 4.77,16.202 4.76,16.206 4.75,16.21 4.738,16.211 L 4.727,16.141 C 4.646,16.036 4.529,15.945 4.422,15.919 4.32,15.894 4.19,15.882 4.081,15.887 4.017,15.923 3.959,15.972 3.903,16.04 3.83,16.13 3.726,16.136 3.612,16.151 3.501,16.166 3.387,16.184 3.275,16.184 3.209,16.216 3.14,16.24 3.065,16.239 3.003,16.238 2.955,16.22 2.895,16.204 2.804,16.179 2.713,16.184 2.619,16.184 2.552,16.215 2.494,16.262 2.408,16.265 2.328,16.267 2.264,16.255 2.196,16.297 2.027,16.4 1.88,16.534 1.682,16.579 1.589,16.6 1.488,16.596 1.406,16.634 1.389,16.642 1.375,16.652 1.359,16.66 c 0.004,0.005 0.008,0.011 0.012,0.016 0.058,0.062 0.139,0.114 0.205,0.169 0.054,0.046 0.1,0.068 0.165,0.095 0.179,0.072 0.352,0.154 0.528,0.234 0.09,0.041 0.192,0.071 0.278,0.115 0.25,0.128 0.576,0.065 0.844,0.016 0.031,-0.006 0.062,-0.006 0.093,-0.002 0.017,-0.004 0.034,-0.011 0.051,-0.015 0.15,-0.017 0.298,-0.051 0.44,-0.098 0.109,-0.037 0.216,-0.081 0.315,-0.14 -0.001,0.029 -0.003,0.058 -0.002,0.084 10e-4,0.093 -0.036,0.215 -0.081,0.295 -0.026,0.046 -0.031,0.048 -0.074,0.079 -0.065,0.049 -0.134,0.121 -0.208,0.154 -0.056,0.025 -0.079,0.031 -0.115,0.087 -0.012,0.018 -0.022,0.037 -0.032,0.056 -0.107,0.033 -0.214,0.068 -0.322,0.103 -0.083,0.027 -0.166,0.055 -0.25,0.082 -10e-4,0 -0.003,0 -0.005,0 C 3.132,18.013 3.063,18.036 2.993,18.057 2.765,18.038 2.539,18.036 2.315,18.054 2.3,18.044 2.284,18.036 2.268,18.027 2.235,18.041 2.203,18.056 2.167,18.07 1.88,18.103 1.596,18.164 1.318,18.251 c -0.027,10e-4 -0.054,0.004 -0.08,0.004 -0.112,0 -0.213,0.004 -0.319,-0.041 -0.03,-0.013 -0.059,-0.032 -0.089,-0.05 -0.04,0.019 -0.084,0.045 -0.12,0.064 -0.106,0.056 -0.201,0.082 -0.317,0.121 -0.149,0.049 -0.268,0.162 -0.407,0.232 -0.097,0.048 -0.209,0.095 -0.317,0.099 -0.08,0.003 -0.159,-0.01 -0.236,-0.015 -0.078,-0.005 -0.204,0.026 -0.279,0.035 -0.095,0.012 -0.188,0.031 -0.284,0.034 -0.143,0.004 -0.287,-0.001 -0.431,-0.001 -0.087,0.001 -0.134,0.002 -0.205,-0.032 -0.108,-0.052 -0.215,-0.097 -0.313,-0.161 -0.04,-0.026 -0.098,-0.045 -0.133,-0.077 -0.039,-0.036 -0.074,-0.084 -0.113,-0.122 -0.049,-0.047 -0.105,-0.088 -0.154,-0.134 -0.044,-0.041 -0.09,-0.089 -0.135,-0.135 -0.245,-0.244 -0.543,-0.387 -0.662,-0.735 -0.027,-0.081 -0.053,-0.179 -0.058,-0.264 -0.006,-0.096 -0.041,-0.167 -0.058,-0.26 -0.017,-0.091 -0.052,-0.171 -0.076,-0.256 -10e-4,-0.003 0,-0.007 0,-0.011 -0.009,-0.02 -0.016,-0.036 -0.02,-0.046 -0.031,-0.073 -0.056,-0.131 -0.097,-0.201 -0.064,-0.107 -0.087,-0.226 -0.146,-0.335 -0.058,-0.11 -0.115,-0.225 -0.18,-0.33 -0.058,-0.095 -0.108,-0.207 -0.186,-0.288 -0.038,-0.039 -0.074,-0.087 -0.109,-0.137 -0.007,-0.002 -0.013,-0.006 -0.02,-0.009 -0.054,-0.022 -0.098,-0.054 -0.153,-0.07 -0.058,-0.018 -0.11,-0.03 -0.164,-0.06 -0.059,-0.033 -0.174,-0.075 -0.209,-0.133 -0.062,-0.102 0.015,-0.253 0.013,-0.361 -0.007,-0.267 -0.312,-0.372 -0.425,-0.588 0.074,-0.009 0.132,-0.068 0.192,-0.106 0.029,-0.018 0.071,-0.034 0.091,-0.064 -0.056,-0.085 -0.155,-0.135 -0.232,-0.196 -0.089,-0.07 -0.157,-0.152 -0.235,-0.233 -0.058,-0.06 -0.122,-0.107 -0.166,-0.18 -0.096,-0.164 -0.152,-0.436 -0.063,-0.608 0.041,-0.079 0.04,-0.152 0.04,-0.238 0,-0.104 0.01,-0.2 -0.025,-0.297 -0.048,-0.135 -0.119,-0.251 -0.177,-0.379 -0.034,-0.075 -0.089,-0.142 -0.143,-0.203 -0.047,-0.051 -0.066,-0.092 -0.095,-0.16 -0.032,-0.073 -0.072,-0.14 -0.105,-0.212 C -6.11,11.053 -6.142,10.994 -6.16,10.931 -6.187,10.837 -6.168,10.74 -6.18,10.643 -6.189,10.573 -6.216,10.5 -6.243,10.436 -6.307,10.281 -6.357,10.126 -6.468,9.995 -6.559,9.887 -6.665,9.802 -6.743,9.684 -6.809,9.584 -6.9,9.503 -6.982,9.417 -7.12,9.272 -7.2,9.036 -7.248,8.844 -7.275,8.74 -7.307,8.625 -7.344,8.525 -7.366,8.468 -7.41,8.421 -7.447,8.374 -7.517,8.287 -7.579,8.196 -7.635,8.1 -7.651,8.082 -7.666,8.063 -7.682,8.047 -7.762,7.964 -7.822,7.862 -7.913,7.786 -8.064,7.663 -8.208,7.54 -8.366,7.428 -8.415,7.394 -8.483,7.381 -8.526,7.344 -8.559,7.316 -8.583,7.274 -8.617,7.244 -8.691,7.179 -8.741,7.102 -8.835,7.063 -9.055,6.972 -9.266,6.897 -9.446,6.739 -9.529,6.666 -9.619,6.601 -9.701,6.526 -9.759,6.472 -9.797,6.415 -9.859,6.367 -9.98,6.272 -10.093,6.147 -10.215,6.043 -10.294,5.975 -10.374,5.917 -10.436,5.831 -10.463,5.792 -10.478,5.754 -10.5,5.714 -10.531,5.661 -10.58,5.619 -10.605,5.561 -10.631,5.501 -10.648,5.42 -10.63,5.356 c 0.014,-0.003 0.029,-0.006 0.044,-0.009 0.018,-0.061 0.004,-0.143 0.004,-0.208 0,-0.07 0.007,-0.144 -0.002,-0.213 -0.008,-0.068 -0.026,-0.124 -0.025,-0.193 10e-4,-0.049 0.005,-0.102 10e-4,-0.151 -0.003,-0.044 -0.067,-0.148 -0.049,-0.18 0.04,0.03 0.045,0.09 0.067,0.132 0.028,0.055 0.067,0.098 0.089,0.156 0.02,0.052 0.042,0.103 0.059,0.157 0.038,0.124 0.082,0.234 0.151,0.351 0.054,0.09 0.117,0.175 0.187,0.253 0.052,0.059 0.114,0.099 0.165,0.159 0.106,0.127 0.261,0.155 0.376,0.262 0.163,0.152 0.359,0.272 0.538,0.409 0.229,0.176 0.435,0.372 0.648,0.563 0.008,0.007 0.016,0.013 0.024,0.02 C -8.394,6.795 -8.435,6.718 -8.485,6.665 -8.5,6.65 -8.514,6.649 -8.532,6.647 -8.538,6.593 -8.587,6.57 -8.617,6.53 -8.637,6.492 -8.658,6.454 -8.678,6.416 -8.734,6.329 -8.788,6.239 -8.838,6.148 -8.899,6.019 -8.964,5.888 -9.022,5.758 -9.106,5.569 -9.194,5.383 -9.28,5.195 -9.307,5.136 -9.328,5.075 -9.353,5.016 -9.402,4.901 -9.421,4.778 -9.467,4.663 -9.528,4.515 -9.579,4.358 -9.626,4.204 -9.64,4.164 -9.649,4.124 -9.653,4.081 -9.682,4.015 -9.72,3.955 -9.77,3.901 -9.834,3.808 -9.906,3.713 -9.948,3.608 -9.984,3.519 -9.998,3.455 -9.998,3.361 c 10e-4,-0.105 -0.009,-0.205 0.027,-0.305 0.042,-0.116 0.075,-0.251 0.19,-0.33 0.034,0.027 0.03,0.069 0.045,0.103 -0.007,0.034 0.011,0.054 0.055,0.059 0.07,0.025 0.14,0.051 0.21,0.077 0.083,0.042 0.137,0.112 0.185,0.19 0.024,0.04 0.035,0.082 0.057,0.123 C -9.17,3.169 -9.1,3.075 -9.036,2.964 -8.991,2.888 -8.95,2.814 -8.897,2.744 -8.869,2.707 -8.83,2.626 -8.78,2.62 c -0.03,0.079 -0.012,0.153 -0.021,0.236 -0.006,0.052 -0.026,0.098 -0.03,0.151 -0.004,0.069 0.005,0.14 0.003,0.209 -0.005,0.16 -0.028,0.316 -0.028,0.476 0,0.092 -0.002,0.185 -0.003,0.278 0.002,0.004 0.004,0.007 0.006,0.011 0.031,0.062 0.051,0.135 0.095,0.19 0.039,0.05 0.099,0.066 0.136,0.117 0.04,0.056 0.053,0.131 0.066,0.196 0.009,0.05 0.026,0.089 0.045,0.127 0.003,-0.047 0.012,-0.094 0.038,-0.132 0.037,-0.053 0.129,-0.081 0.188,-0.083 0.033,-0.002 0.084,0.011 0.114,-0.005 0.02,-0.011 0.024,-0.044 0.048,-0.048 0.066,-0.01 0.031,0.116 0.036,0.16 0.005,0.034 0.022,0.046 0.029,0.077 0.009,0.036 -0.009,0.079 -0.003,0.115 0.013,0.07 0.05,0.131 0.055,0.206 0.004,0.048 0.012,0.077 0.023,0.124 0.005,0.021 10e-4,0.048 0.008,0.069 0.01,0.023 0.035,0.041 0.043,0.064 0.019,0.051 0.017,0.092 0.045,0.141 0.022,0.039 0.047,0.08 0.064,0.122 0.034,0.086 0.074,0.171 0.12,0.252 0.04,0.046 0.076,0.094 0.102,0.15 0.001,0.003 0.004,0.005 0.006,0.009 0.025,0.031 0.05,0.062 0.078,0.09 0.059,0.047 0.131,0.082 0.195,0.125 0.022,0.031 0.05,0.056 0.083,0.076 0.08,0.053 0.158,0.107 0.235,0.163 0.068,0.05 0.132,0.079 0.198,0.127 0.073,0.052 0.103,0.057 0.15,0.129 0.053,0.082 0.123,0.174 0.197,0.239 0.031,0.021 0.063,0.042 0.094,0.064 0.021,0.023 0.04,0.048 0.058,0.074 0.064,0.07 0.151,0.123 0.23,0.175 0.101,0.066 0.151,0.118 0.23,0.217 0.102,0.128 0.127,0.178 0.171,0.342 0.045,0.166 0.061,0.299 0.061,0.471 -10e-4,0.102 -0.017,0.197 -0.031,0.297 0.054,-0.027 0.075,-0.186 0.08,-0.236 0.01,-0.087 -0.008,-0.176 0.008,-0.263 0.009,-0.049 0.037,-0.093 0.046,-0.141 0.02,-0.114 0.024,-0.23 0.027,-0.347 C -5.499,7.383 -5.515,7.333 -5.53,7.283 -5.556,7.201 -5.559,7.117 -5.583,7.035 -5.603,6.969 -5.626,6.91 -5.638,6.841 -5.663,6.699 -5.759,6.539 -5.828,6.414 -5.909,6.27 -5.991,6.124 -6.057,5.973 -6.113,5.844 -6.16,5.708 -6.227,5.584 -6.291,5.465 -6.32,5.342 -6.375,5.221 -6.429,5.103 -6.464,4.985 -6.505,4.862 -6.579,4.639 -6.683,4.392 -6.679,4.154 -6.676,3.962 -6.601,3.784 -6.6,3.595 -6.6,3.456 -6.579,3.318 -6.574,3.178 -6.597,3.137 -6.624,3.097 -6.634,3.065 -6.665,2.962 -6.68,2.855 -6.679,2.747 -6.677,2.536 -6.655,2.399 -6.539,2.21 -6.499,2.144 -6.447,2.084 -6.436,2.009 -6.432,1.98 -6.433,1.948 -6.427,1.918 -6.407,1.822 -6.412,1.723 -6.4,1.624 -6.388,1.523 -6.37,1.481 -6.31,1.398 -6.247,1.313 -6.185,1.227 -6.118,1.145 -6.046,1.057 -5.949,1.027 -5.865,0.953 -5.796,0.892 -5.735,0.847 -5.65,0.813 -5.626,0.804 -5.612,0.802 -5.591,0.788 -5.478,0.713 -5.404,0.545 -5.327,0.438 -5.219,0.289 -5.048,0.2 -4.878,0.124 L -4.873,0.11 C -4.892,0.052 -4.901,0.004 -4.9,-0.065 c 0.002,-0.082 -0.003,-0.117 -0.06,-0.18 -0.051,-0.056 -0.076,-0.116 -0.119,-0.178 -0.05,-0.073 -0.091,-0.141 -0.146,-0.21 -0.031,-0.04 -0.055,-0.083 -0.079,-0.125 -0.009,-0.004 -0.016,-0.008 -0.025,-0.011 -0.052,-0.014 -0.107,-0.017 -0.154,-0.043 -0.051,-0.029 -0.091,-0.082 -0.138,-0.117 -0.075,-0.054 -0.151,-0.082 -0.217,-0.146 -0.06,-0.058 -0.124,-0.11 -0.202,-0.145 -0.075,-0.034 -0.159,-0.061 -0.241,-0.067 -0.08,-0.006 -0.151,-0.026 -0.233,-0.026 -0.128,0.002 -0.257,0 -0.385,0 -0.142,0 -0.301,0.02 -0.44,-0.004 0.011,-0.093 0.208,-0.202 0.278,-0.238 0.082,-0.042 0.169,-0.071 0.25,-0.117 0.025,-0.014 0.052,-0.026 0.078,-0.039 0.043,-0.021 0.055,-0.045 0.093,-0.074 0.042,-0.032 0.099,-0.051 0.148,-0.059 0.048,-0.008 0.071,-0.026 0.124,-0.027 0.006,0 0.011,-0.001 0.016,-0.001 0.045,-0.026 0.088,-0.054 0.106,-0.103 0.055,0.019 0.103,0.02 0.158,0.028 0.031,-0.012 0.061,-0.023 0.09,-0.029 0.114,-0.023 0.23,0.032 0.342,0.093 0.11,0.011 0.218,0.027 0.328,0.055 0.052,0.013 0.095,0.012 0.153,0.012 0.026,0.006 0.051,0.005 0.075,-0.004 0.011,0 0.018,-0.006 0.021,-0.019 0.033,0 0.038,0.004 0.073,0.015 0.189,0.062 0.397,0.034 0.595,0.033 0.078,0 0.12,0.003 0.191,0.027 0.012,0.004 0.017,0.023 0.032,0.028 0.049,0.017 0.144,0.016 0.197,0.023 0.055,0.006 0.112,0.002 0.168,0.002 0.102,0 0.139,0.016 0.199,-0.072 0.035,-0.053 0.058,-0.097 0.112,-0.135 0.045,-0.032 0.061,-0.04 0.092,-0.086 0.02,-0.028 0.045,-0.051 0.066,-0.078 0.071,-0.088 0.137,-0.155 0.237,-0.216 0.102,-0.061 0.211,-0.101 0.318,-0.154 0.023,-0.011 0.066,-0.046 0.095,-0.057 0.122,-0.05 0.286,-0.034 0.414,-0.052 0.065,-0.01 0.13,-0.025 0.196,-0.028 0.088,-0.004 0.178,-0.004 0.268,-0.002 0.019,-0.033 0.034,-0.065 0.042,-0.084 0.033,-0.083 0.109,-0.203 0.172,-0.269 0.026,-0.027 0.069,-0.061 0.106,-0.065 0.017,0.033 0.06,0.022 0.091,0.035 0.034,0.013 0.07,0.05 0.098,0.073 0.065,0.054 0.13,0.113 0.188,0.168 0.044,0.041 0.071,0.066 0.077,0.12 0.126,0.027 0.188,-0.106 0.267,-0.187 0.034,-0.034 0.077,-0.071 0.126,-0.081 0.087,-0.016 0.248,-0.014 0.322,0.034 0.026,0.018 0.07,0.078 0.078,0.106 0.01,0.037 -0.008,0.085 0.02,0.113 0.07,0.07 0.242,-0.04 0.317,-0.04 0.111,-10e-4 0.133,0.12 0.121,0.214 -0.006,0.044 -0.094,0.164 -0.05,0.208 0.044,0.043 0.124,-0.02 0.155,-0.042 0.065,-0.046 0.096,-0.083 0.145,-0.146 0.079,-0.102 0.194,-0.148 0.2,0.006 0.003,0.082 0.125,0.239 0.214,0.21 0.054,-0.018 0.102,-0.097 0.158,-0.125 0.064,-0.031 0.142,-0.047 0.211,-0.028 0.011,0.066 0.004,0.126 -0.025,0.182 -0.029,0.056 -0.053,0.094 -0.053,0.159 -10e-4,0.256 0.285,-0.038 0.372,-0.087 0.07,-0.04 0.147,-0.07 0.219,-0.027 0.039,0.024 0.115,0.098 0.127,0.139 0.044,0.149 -0.095,0.322 -0.211,0.386 -0.029,0.015 -0.05,0.007 -0.082,0.019 -0.018,0.015 -0.035,0.029 -0.054,0.043 -0.016,0.003 -0.032,0.007 -0.047,0.011 -0.039,0.034 -0.043,0.088 -0.089,0.12 -0.038,0.027 -0.09,0.029 -0.131,0.054 -0.019,0.011 -0.031,0.027 -0.05,0.039 -0.043,0.028 -0.084,0.04 -0.135,0.051 C 0.976,-1.26 0.89,-1.219 0.797,-1.188 0.738,-1.168 0.685,-1.134 0.625,-1.126 0.574,-1.118 0.515,-1.127 0.462,-1.127 H 0.257 c -0.07,0 -0.159,-0.011 -0.243,-0.011 -0.001,0.015 -0.002,0.029 -0.002,0.038 0,0.063 -0.01,0.136 -0.001,0.199 0.025,0.174 0.194,0.346 0.289,0.486 0.012,0.018 0.025,0.035 0.038,0.052 0.04,0.007 0.089,0.03 0.112,0.047 0.148,0.104 0.205,0.288 0.33,0.405 C 0.82,0.125 0.875,0.144 0.916,0.187 0.956,0.231 1.02,0.273 1.051,0.322 1.088,0.38 1.061,0.418 1.073,0.487 1.081,0.532 1.102,0.584 1.12,0.626 1.141,0.672 1.157,0.724 1.18,0.769 1.193,0.797 1.212,0.81 1.23,0.835 1.269,0.889 1.309,0.992 1.329,1.045 1.385,1.191 1.428,1.34 1.466,1.491 1.479,1.546 1.5,1.59 1.5,1.648 1.499,1.701 1.477,1.743 1.471,1.794 1.468,1.827 1.482,1.864 1.474,1.895 1.471,1.908 1.453,1.927 1.452,1.933 1.435,2.016 1.431,2.15 1.456,2.229 1.493,2.347 1.593,2.424 1.655,2.526 1.704,2.607 1.722,2.669 1.739,2.766 1.774,2.968 1.798,3.23 1.738,3.428 1.711,3.518 1.704,3.605 1.685,3.695 c 0.02,0.16 10e-4,0.333 0,0.489 C 1.684,4.325 1.718,4.449 1.744,4.587 1.783,4.791 1.81,4.992 1.871,5.191 1.893,5.266 1.898,5.328 1.898,5.407 1.896,5.613 1.902,5.818 1.901,6.024 1.899,6.15 1.896,6.269 1.877,6.393 1.86,6.51 1.816,6.618 1.797,6.734 1.788,6.787 1.79,6.834 1.791,6.889 c 0.003,0.143 0,0.287 0,0.43 0,0.129 -0.046,0.395 0.039,0.504 C 1.88,7.825 1.947,7.772 1.985,7.744 2.07,7.68 2.152,7.629 2.229,7.555 2.358,7.433 2.48,7.208 2.66,7.162 2.745,7.141 2.821,7.171 2.904,7.131 2.986,7.092 3.035,7.01 3.093,6.943 3.147,6.883 3.184,6.838 3.256,6.794 3.436,6.683 3.605,6.558 3.781,6.441 3.884,6.371 4.003,6.328 4.092,6.236 4.213,6.112 4.214,5.915 4.33,5.794 4.447,5.673 4.599,5.594 4.71,5.461 4.797,5.356 4.91,5.275 4.987,5.162 5.107,4.985 5.203,4.762 5.263,4.555 5.311,4.392 5.362,4.202 5.457,4.061 5.568,3.895 5.706,3.734 5.802,3.56 5.851,3.469 5.885,3.383 5.953,3.303 5.995,3.254 6.058,3.221 6.096,3.169 6.128,3.123 6.14,3.055 6.17,3.005 6.185,2.98 6.203,2.973 6.202,2.938 6.287,2.921 6.413,3.11 6.444,3.174 6.471,3.23 6.501,3.279 6.521,3.339 6.545,3.41 6.576,3.485 6.561,3.562 6.552,3.608 6.529,3.664 6.517,3.709 6.495,3.793 6.443,3.863 6.42,3.952 6.384,4.089 6.358,4.267 6.391,4.409 6.41,4.492 6.409,4.516 6.392,4.606 6.373,4.712 6.331,4.799 6.29,4.898 6.263,4.964 6.242,5.034 6.222,5.104 6.234,5.093 6.246,5.082 6.257,5.07 6.311,5.011 6.33,4.939 6.391,4.887 6.428,4.856 6.451,4.825 6.481,4.79 6.532,4.732 6.574,4.677 6.623,4.622 6.74,4.492 6.784,4.342 6.808,4.183 6.814,4.144 6.846,4.128 6.857,4.098 6.867,4.071 6.864,4.04 6.863,4.011 6.867,4.082 6.896,4.135 6.91,4.204 6.926,4.279 6.916,4.363 6.916,4.44 c 0,0.106 0.013,0.22 -0.006,0.324"
             style="fill:#100f0d;fill-opacity:1;fill-rule:nonzero;stroke:none"
             id="path55211" />
        </g>
        <g
           id="g55213"
           transform="translate(209.226,498.165)">
          <path
             d="M 0,0 V 0.002 C 0,0.007 0,0.011 0,0.016 0,0.013 -0.001,0.01 -0.001,0.008 -0.001,0.005 0,0.003 0,0"
             style="fill:#100f0d;fill-opacity:1;fill-rule:nonzero;stroke:none"
             id="path55215" />
        </g>
      </g>
    </g>
  </g>
</svg>
