<?xml version="1.0" encoding="UTF-8" standalone="no"?>
<!-- Created with Inkscape (http://www.inkscape.org/) -->

<svg
   width="24.968571"
   height="24"
   viewBox="0 0 6.6062677 6.35"
   version="1.1"
   id="svg57672"
   inkscape:version="1.2.1 (9c6d41e4, 2022-07-14)"
   sodipodi:docname="seeping-nightmares.svg"
   xmlns:inkscape="http://www.inkscape.org/namespaces/inkscape"
   xmlns:sodipodi="http://sodipodi.sourceforge.net/DTD/sodipodi-0.dtd"
   xmlns="http://www.w3.org/2000/svg"
   xmlns:svg="http://www.w3.org/2000/svg">
  <sodipodi:namedview
     id="namedview57674"
     pagecolor="#505050"
     bordercolor="#eeeeee"
     borderopacity="1"
     inkscape:showpageshadow="0"
     inkscape:pageopacity="0"
     inkscape:pagecheckerboard="0"
     inkscape:deskcolor="#505050"
     inkscape:document-units="mm"
     showgrid="false"
     inkscape:zoom="0.7046647"
     inkscape:cx="62.441044"
     inkscape:cy="179.518"
     inkscape:window-width="1390"
     inkscape:window-height="941"
     inkscape:window-x="0"
     inkscape:window-y="25"
     inkscape:window-maximized="0"
     inkscape:current-layer="layer1" />
  <defs
     id="defs57669">
    <clipPath
       clipPathUnits="userSpaceOnUse"
       id="clipPath55227">
      <path
         d="m 65.075,456.4 h 24.7 v 24.699 h -24.7 z"
         id="path55225" />
    </clipPath>
  </defs>
  <g
     inkscape:label="Layer 1"
     inkscape:groupmode="layer"
     id="layer1"
     transform="translate(-88.688017,-101.2068)">
    <g
       id="g55221"
       transform="matrix(0.29012982,0,0,-0.29012982,69.498755,240.11508)">
      <g
         id="g55223"
         clip-path="url(#clipPath55227)">
        <g
           id="g55229"
           transform="translate(84.3056,466.852)">
          <path
             d="M 0,0 C 0.039,0.004 0.078,0.009 0.117,0.012 0.088,0.012 0.035,0.014 0,0"
             style="fill:#100f0d;fill-opacity:1;fill-rule:nonzero;stroke:none"
             id="path55231" />
        </g>
        <g
           id="g55233"
           transform="translate(81.9649,462.018)">
          <path
             d="M 0,0 C 0.052,0.003 0.104,0.003 0.157,0.002 H 0.019 C 0.013,0.002 0.006,0.001 0,0"
             style="fill:#100f0d;fill-opacity:1;fill-rule:nonzero;stroke:none"
             id="path55235" />
        </g>
        <g
           id="g55237"
           transform="translate(83.7719,462.893)">
          <path
             d="M 0,0 C 0.136,0.012 0.274,0.021 0.408,0.044 0.759,0.103 1.107,0.2 1.459,0.262 L 1.184,0.25 C 0.902,0.198 0.622,0.135 0.34,0.081 0.225,0.059 0.113,0.027 0,0"
             style="fill:#100f0d;fill-opacity:1;fill-rule:nonzero;stroke:none"
             id="path55239" />
        </g>
        <g
           id="g55241"
           transform="translate(87.1493,465.603)">
          <path
             d="m 0,0 c -0.04,-0.033 -0.086,-0.052 -0.139,-0.057 -0.049,-0.002 -0.098,-0.005 -0.148,-0.008 -0.136,-0.02 -0.263,-0.07 -0.402,-0.091 -0.008,-0.001 -0.014,-0.002 -0.021,-0.003 0.003,-0.001 0.008,-0.001 0.011,-0.002 0.062,-0.018 0.112,-0.054 0.177,-0.06 0.06,-0.004 0.431,0.042 0.448,-0.021 -0.042,-0.007 -0.079,-0.033 -0.12,-0.04 -0.027,0.004 -0.054,0.006 -0.082,0.007 -0.107,-0.014 -0.21,-0.041 -0.311,-0.083 -0.498,-0.139 -1.014,-0.076 -1.521,-0.126 -0.3,-0.03 -0.616,-0.096 -0.918,-0.081 -0.097,0.005 -0.19,0.041 -0.288,0.037 -0.124,-0.005 -0.247,-0.031 -0.373,-0.034 -0.271,-0.007 -0.555,-0.019 -0.825,0.006 0.014,0.019 0.026,0.039 0.038,0.059 -0.134,0.044 -0.28,0.032 -0.419,0.031 -0.213,-0.002 -0.426,-0.003 -0.638,0.001 -0.223,0.004 -0.471,-0.014 -0.685,0.067 0.027,0.027 0.061,0.039 0.103,0.037 0.065,0.02 0.126,0.048 0.182,0.084 0.105,0.042 0.215,0.023 0.324,0.028 0.061,0.002 0.074,0.02 0.129,0.032 0.096,0.022 0.273,-0.001 0.359,-0.001 0.176,0 0.318,-0.026 0.495,-0.008 0.103,0.011 0.197,0 0.295,0.038 0.043,0.017 0.071,0.047 0.108,0.066 0.094,0.047 0.246,-0.003 0.349,-0.003 0.12,0.001 0.242,-0.002 0.357,-0.039 0.032,-0.011 0.042,-0.027 0.077,-0.025 0.025,0.006 0.049,0.015 0.073,0.026 0.141,0.012 0.282,0.014 0.424,0.007 0.227,-0.002 0.441,0.001 0.664,0.038 0.293,0.048 0.578,0.068 0.873,0.095 0.192,0.018 0.369,0.025 0.562,0.023 0.146,-0.001 0.257,0.018 0.397,0.031 C -0.46,0.032 -0.473,0.033 -0.484,0.034 -0.489,0.033 -0.493,0.032 -0.5,0.031 c -0.036,-0.003 -0.063,0.007 0.016,0.003 0.036,0.004 0.06,0.012 0.098,0.021 0.123,0.031 0.279,0.002 0.406,0.014 C 0.096,0.076 0.177,0.097 0.255,0.097 0.17,0.065 0.084,0.034 0,0 m -0.725,-1.201 c -0.04,-0.028 -0.111,-0.047 -0.159,-0.06 -0.22,-0.063 -0.469,-0.082 -0.696,-0.079 -0.115,0.001 -0.207,0.001 -0.317,-0.029 0.092,0.006 -0.38,-0.25 -0.348,-0.232 -0.071,-0.041 -0.153,-0.107 -0.232,-0.145 -0.118,-0.056 -0.255,-0.06 -0.386,-0.061 0.003,0 0.008,0 0.011,0 h -0.109 c 0.032,0 0.065,0 0.098,0 -0.134,0.011 -0.292,-0.01 -0.414,-0.055 -0.057,-0.021 -0.088,-0.038 -0.151,-0.039 -0.274,-0.004 -0.549,-10e-4 -0.824,0 -0.03,0 -0.06,0 -0.09,0 -0.389,-0.003 -0.778,0.044 -1.162,0.1 0.003,0.07 0.233,0.132 0.299,0.154 0.086,0.028 0.177,0.026 0.267,0.029 0.202,0.005 0.406,-0.002 0.608,-0.002 h 0.514 c -0.168,0 -0.336,0 -0.503,0 -0.004,0 -0.007,0 -0.011,0 h -0.006 c 0.428,0 0.879,-0.036 1.299,0.051 0.176,0.037 0.309,0.12 0.472,0.168 0.09,0.025 0.178,0.03 0.268,0.031 -0.09,0.001 -0.18,0.001 -0.271,-0.003 -0.14,-0.008 -0.281,-0.052 -0.42,-0.02 0.065,0.086 0.145,0.16 0.257,0.147 -0.012,0 -0.024,-0.001 -0.036,-0.002 0.239,0.052 0.473,0.065 0.717,0.063 0.306,-0.004 0.598,0.037 0.9,0.073 0.104,0.012 0.256,0.052 0.359,0.016 0.001,-0.008 0.002,-0.017 0.003,-0.026 0.131,0.032 0.137,0.033 0.143,0.034 -0.033,-0.032 -0.041,-0.085 -0.08,-0.113 m -0.42,-1.54 c -0.071,-0.055 -0.189,-0.066 -0.271,-0.099 -0.124,-0.05 -0.242,-0.111 -0.358,-0.178 -0.052,-0.03 -0.103,-0.06 -0.155,-0.09 -0.033,-0.021 -0.062,-0.047 -0.093,-0.069 0.006,0.006 0.012,0.013 0.017,0.021 -0.203,-0.033 -0.411,-0.058 -0.614,-0.098 0.341,0.126 0.674,0.27 1.009,0.407 0.069,0.028 0.186,0.054 0.22,0.133 -0.044,-0.024 -0.072,-0.026 -0.137,-0.035 -0.141,-0.019 -0.284,-0.032 -0.425,-0.048 -0.549,-0.061 -1.113,-0.041 -1.664,-0.039 0.018,0.019 -0.252,0.007 -0.282,0.004 -0.095,-0.009 -0.19,-0.024 -0.285,-0.041 0.145,0.032 0.288,0.073 0.432,0.107 C -4.009,-2.793 -4.26,-2.833 -4.518,-2.883 -5.106,-2.997 -5.704,-2.96 -6.299,-2.96 h 0.408 c 0.18,0.022 0.357,0.091 0.534,0.127 0.193,0.038 0.386,0.07 0.578,0.113 0.243,0.055 0.486,0.106 0.731,0.151 0.078,0.015 0.22,0.082 0.298,0.074 10e-4,-0.01 0.002,-0.019 0.002,-0.029 l 1.555,0.064 c 0.112,0.021 0.224,0.04 0.337,0.056 0.097,0.013 0.18,0.005 0.276,0.036 0.105,0.035 0.181,0.026 0.291,0.033 -0.027,10e-4 -0.051,-0.007 -0.078,-0.016 -0.095,-0.032 -0.149,-0.044 -0.254,-0.054 -0.1,-0.01 -0.199,-0.026 -0.298,-0.043 l 0.445,0.018 c 0.039,0 0.077,-10e-4 0.116,0.001 -0.066,-0.033 -0.133,-0.068 -0.199,-0.093 -0.214,-0.084 -0.514,-0.016 -0.707,-0.161 0.339,0.061 0.709,0.053 1.052,0.036 0.079,-0.004 0.154,-0.026 0.067,-0.094 m -1.007,-0.532 c -0.042,-0.016 -0.1,0.002 -0.144,0.001 0.064,0.029 0.159,0.028 0.228,0.061 -0.028,-0.021 -0.058,-0.039 -0.084,-0.062 M -3.25,-3.457 C -3.267,-3.463 -3.284,-3.47 -3.298,-3.473 -3.369,-3.49 -3.44,-3.499 -3.512,-3.506 c -0.042,-0.01 -0.084,-0.021 -0.126,-0.031 -0.156,-0.036 -0.308,-0.072 -0.463,-0.107 -0.294,-0.066 -0.592,-0.103 -0.894,-0.12 -0.276,-0.016 -0.557,-0.032 -0.833,-0.04 -0.126,0.002 -0.252,0.007 -0.378,0.017 -0.081,0.003 -0.162,0.011 -0.243,0.024 -0.038,0.027 -0.057,0.032 -0.02,0.072 0.065,0.073 0.267,0.087 0.346,0.095 0.187,0.018 0.371,0.036 0.553,0.083 0.15,0.039 0.282,0.078 0.434,0.086 h -0.063 -0.002 c -0.086,0 -0.173,0 -0.26,0 h 0.262 c 0.066,0 0.157,0.015 0.227,0.002 0.045,-0.001 0.089,-0.002 0.134,-0.002 h -0.127 c 0.009,-0.002 0.019,-0.003 0.027,-0.006 -0.132,-0.018 -0.265,-0.029 -0.397,-0.048 0.205,-0.039 0.419,-0.006 0.622,-0.045 -0.15,-0.022 -0.301,-0.042 -0.452,-0.057 0.219,0 0.438,0.001 0.657,0 0.121,0 0.241,-0.004 0.361,0.002 0.136,0.006 0.268,0.037 0.403,0.053 0.078,0.009 0.155,0.015 0.232,0.022 0.064,0.016 0.128,0.032 0.192,0.043 0.023,0.003 0.047,0.004 0.07,0.006 0.031,0.011 0.063,0.023 0.089,0.025 -0.027,-0.019 -0.058,-0.023 -0.089,-0.025 m -8.134,-0.639 c -0.073,-0.019 -0.133,-0.059 -0.208,-0.072 -0.18,-0.033 -0.404,-0.017 -0.585,0 -0.273,0.025 -0.537,0.061 -0.814,0.056 -0.136,-0.001 -0.262,0.025 -0.395,0.032 -0.126,0.007 -0.225,0.015 -0.351,0.043 -0.074,0.016 -0.137,0.017 -0.213,0.017 -0.152,10e-4 -0.3,0.031 -0.452,0.034 -0.1,0.002 -0.201,-10e-4 -0.301,-0.002 -0.061,0 -0.197,-0.019 -0.264,0.007 0.047,0.065 0.289,0.025 0.381,0.025 h 0.272 c 0.149,0 0.297,0 0.446,10e-4 0.418,0.004 0.837,-0.012 1.253,-0.044 0.134,-0.011 0.261,-0.041 0.394,-0.051 -0.069,0.062 0.017,0.062 0.104,0.063 0.075,10e-4 0.124,-0.019 0.193,-0.029 0.084,-0.012 0.174,-0.003 0.259,-0.002 0.273,0.002 0.545,-0.006 0.817,-0.032 -0.177,-0.043 -0.363,-0.003 -0.536,-0.046 m -3.96,2.043 c -0.022,-0.002 -0.044,-0.004 -0.065,-0.008 -0.095,-0.019 -0.176,-0.081 -0.274,-0.091 -0.069,-0.007 -0.142,0.006 -0.211,0.004 -0.07,-0.003 -0.132,-0.032 -0.201,-0.033 -0.094,-0.003 -0.161,-0.038 -0.252,-0.056 -0.183,-0.038 -0.387,-0.051 -0.575,-0.066 -0.125,-0.01 -0.163,0.004 -0.265,0.06 -0.099,0.054 -0.264,0.063 -0.382,0.063 0.142,-0.004 0.284,-10e-4 0.208,0.061 0.049,0.002 0.092,0 0.141,0.005 0.138,0.015 0.266,0.087 0.405,0.091 0.238,0.008 0.476,0.031 0.714,0.053 0.126,0.012 0.253,-0.001 0.374,0.023 0.08,0.016 0.141,0.027 0.211,-0.007 0.05,-0.025 0.107,-0.079 0.154,-0.096 0.005,-0.002 0.012,-0.002 0.018,-0.003 0.094,0.007 0.196,-0.003 0.289,-0.003 h 0.051 c -0.087,0 -0.249,-0.022 -0.34,0.003 m -2.875,1.606 c -0.052,0.009 -0.105,0.019 -0.157,0.007 0.494,0.046 1,0.152 1.498,0.13 0.395,-0.018 0.797,-0.054 1.185,-0.13 0.095,-0.018 0.186,-0.034 0.277,-0.056 0.103,-0.025 0.224,0.025 0.325,-0.008 0.014,-0.024 0.036,-0.036 0.064,-0.039 0.06,-0.023 0.124,-0.03 0.19,-0.02 0.081,-0.001 0.163,0.002 0.244,0.002 0.131,-0.001 0.256,0.019 0.387,0.029 0.061,0.004 0.124,-0.006 0.185,0.001 0.039,0.004 0.073,0.018 0.11,0.031 0.173,0.057 0.364,0.089 0.537,0.126 0.006,0 0.168,0 0.33,0 0.108,0.001 0.219,0.011 0.326,-0.007 0.02,-0.003 0.096,-0.015 0.108,-0.027 0.026,-0.025 0.023,-0.079 0.01,-0.117 -0.246,-0.01 -0.493,0.009 -0.738,-0.024 -0.166,-0.022 -0.324,-0.102 -0.492,-0.109 -0.46,-0.02 -0.928,0.004 -1.39,0.004 -0.184,0 -1.487,-0.051 -1.5,0.095 -0.274,-0.006 -0.557,-0.022 -0.83,0.001 -0.227,0.019 -0.445,0.075 -0.669,0.111 m 6.527,-1.142 c -0.025,0.111 0.044,0.04 0.136,0.028 0.057,-0.007 0.112,0.012 0.169,-0.004 0.016,-0.018 0.036,-0.026 0.061,-0.025 0.024,0 0.049,0.001 0.073,0.003 0.033,-0.008 0.042,-0.041 0.081,-0.034 -0.081,0.003 -0.163,0.002 -0.244,0.002 -0.108,-0.001 -0.215,-0.016 -0.323,-0.025 -0.11,-0.01 -0.227,0.003 -0.337,-0.013 -0.104,-0.015 -0.195,-0.055 -0.3,-0.056 -0.077,-0.002 -0.153,-0.002 -0.23,-0.002 -0.128,0.001 -0.226,0.036 -0.345,0.068 -0.073,0.019 -0.121,0.022 -0.2,0.025 -0.056,0.002 -0.11,0.016 -0.164,0.032 -0.067,0 -0.134,0 -0.2,0 -0.171,-10e-4 -0.337,0.032 -0.507,0.032 0.142,-0.006 0.277,0.028 0.418,0.032 0.101,0.002 0.194,-0.035 0.289,-0.064 0.098,0.001 0.196,0.001 0.294,0.001 z M 1.116,1.26 C 0.95,1.24 0.777,1.255 0.61,1.255 H -0.038 C -0.433,1.255 -0.847,1.29 -1.233,1.239 -1.384,1.22 -1.536,1.223 -1.689,1.224 -2.081,1.225 -2.48,1.195 -2.87,1.231 -2.864,1.239 -2.854,1.244 -2.844,1.248 -3.196,1.215 -3.547,1.171 -3.899,1.142 -4.027,1.131 -4.083,1.129 -4.177,1.109 -4.231,1.084 -4.29,1.078 -4.352,1.091 -4.676,1.067 -4.999,1.046 -5.324,1.03 -5.626,1.026 -5.926,1.006 -6.226,0.972 -6.297,0.99 -6.356,0.977 -6.404,0.933 -6.35,0.899 -6.24,0.91 -6.183,0.905 -6.431,0.874 -6.676,0.882 -6.917,0.799 -6.942,0.79 -7.41,0.566 -7.384,0.441 -7.228,0.433 -7.07,0.435 -6.923,0.38 -6.906,0.281 -6.959,0.28 -7.004,0.201 -6.88,0.115 -6.75,0.047 -6.65,-0.067 c -0.105,-0.072 -0.207,-0.15 -0.305,-0.232 -0.11,-0.06 -0.187,-0.15 -0.229,-0.269 0.131,-0.024 0.263,-0.044 0.395,-0.059 0.129,0.002 0.247,-0.034 0.353,-0.109 -0.104,-0.131 -0.232,-0.231 -0.385,-0.299 -0.148,-0.082 -0.29,-0.174 -0.425,-0.276 -0.166,-0.089 -0.299,-0.215 -0.399,-0.377 0.011,-0.039 0.022,-0.079 0.033,-0.118 0.099,-0.003 0.188,-0.032 0.268,-0.086 -0.058,-0.125 -0.152,-0.19 -0.266,-0.264 -0.077,-0.05 -0.241,-0.087 -0.268,-0.173 0.322,-0.06 0.645,-0.102 0.97,-0.146 0.015,-0.072 -0.013,-0.125 -0.083,-0.159 -0.068,-0.057 -0.123,-0.127 -0.164,-0.207 0.016,-0.03 0.04,-0.035 0.073,-0.017 0.063,-0.078 -0.187,-0.245 -0.239,-0.291 -0.107,-0.095 -0.304,-0.23 -0.291,-0.392 0.174,-0.006 0.378,0.038 0.543,-0.017 -0.275,-0.18 -0.559,-0.342 -0.848,-0.499 -0.107,-0.058 -0.305,-0.12 -0.377,-0.224 0.082,-0.017 0.165,-0.026 0.248,-0.026 0.074,-0.005 0.147,-0.006 0.221,-0.004 0.066,-0.03 0.124,-0.125 0.169,-0.178 0.094,-0.109 0.106,-0.147 0.167,-0.248 0.017,-0.028 0.046,-0.047 0.063,-0.078 -0.062,-0.065 -0.13,-0.122 -0.204,-0.172 -0.084,-0.042 -0.142,-0.108 -0.174,-0.197 0.102,-0.017 0.205,-0.027 0.309,-0.03 0.07,0.025 0.119,0.009 0.147,-0.048 -0.321,-0.166 -0.609,-0.379 -0.896,-0.598 0.01,-0.073 0.053,-0.091 0.13,-0.055 0.092,0.004 0.184,0.007 0.275,0.01 -10e-4,-0.101 -0.065,-0.165 -0.192,-0.192 -0.144,-0.091 -0.27,-0.2 -0.38,-0.328 0.181,-0.11 0.366,-0.004 0.559,-0.051 -0.072,-0.022 -0.152,-0.087 -0.097,-0.165 0.033,-0.047 0.281,-0.022 0.34,-0.019 0.11,0.004 0.11,0.025 0.19,0.038 -0.382,-0.278 -0.837,-0.475 -1.271,-0.653 0.044,-0.013 0.088,0.001 0.131,-0.013 -0.08,-0.022 -0.161,-0.03 -0.244,-0.024 -0.08,-0.027 -0.137,0 -0.169,0.079 0.03,0.067 0.168,0.276 0.144,0.362 0.005,0.049 -0.02,0.074 -0.076,0.076 -0.057,0.02 -0.106,0.051 -0.149,0.095 -0.112,0.053 -0.134,0.147 -0.066,0.283 0.068,0.095 0.135,0.19 0.203,0.285 0.086,0.103 0.199,0.158 0.209,0.297 -0.169,0.062 -0.288,0.181 -0.355,0.356 -0.005,0.102 -0.01,0.205 -0.015,0.308 0.04,0.27 0.33,0.338 0.484,0.51 -0.271,0.039 -0.602,0.024 -0.848,0.155 0.076,0.184 0.348,0.233 0.519,0.299 -0.357,0.031 -0.713,0.03 -1.069,0.067 0.232,0.111 0.473,0.199 0.723,0.265 0.256,-0.027 0.377,0.043 0.363,0.21 -0.317,0.034 -0.632,0.052 -0.95,0.07 0.343,0.111 0.689,0.204 1.025,0.334 0.171,0.066 0.319,0.146 0.481,0.226 -0.098,0.148 -0.27,0.148 -0.517,0 -0.703,-0.009 -1.407,-0.012 -2.111,-0.01 -0.505,-10e-4 -1.01,0 -1.515,0.002 -0.05,0.014 -0.091,0.003 -0.124,-0.031 0.172,0.167 0.374,0.294 0.604,0.382 0.575,0.34 1.147,0.686 1.715,1.037 0.322,0.201 0.644,0.456 0.991,0.615 -0.1,0.032 -0.204,0.039 -0.312,0.02 -0.221,0.004 -0.442,0.004 -0.663,0.002 -0.385,-10e-4 -0.77,-0.014 -1.154,0 0.114,0.045 0.228,0.091 0.343,0.134 0.061,0.022 0.141,0.028 0.19,0.072 -0.326,0.045 -0.653,0.085 -0.979,0.125 0.03,0.034 0.068,0.057 0.115,0.067 0.079,0.03 0.147,0.077 0.204,0.141 0.087,0.075 0.269,0.182 0.238,0.316 -0.095,-0.012 -0.181,-0.02 -0.276,-0.012 -0.009,0.065 0.084,0.089 0.13,0.111 0.222,0.105 0.44,0.217 0.66,0.325 0.114,0.056 0.235,0.129 0.357,0.166 0.027,0.008 0.043,0.021 0.073,0.019 -0.125,-0.005 -0.251,-0.001 -0.376,-0.001 -0.291,0 -0.577,-0.016 -0.866,-0.029 -0.167,-0.007 -0.333,0.005 -0.499,0.002 -0.215,-0.004 -0.429,-0.078 -0.642,-0.101 -0.202,-0.022 -0.405,-0.029 -0.608,-0.028 -0.178,0.002 -0.366,0.016 -0.543,-0.019 -0.263,-0.053 -0.547,-0.157 -0.817,-0.094 -0.114,0.027 -0.224,0.085 -0.338,0.107 -0.184,0.036 -0.387,0.049 -0.573,0.063 -0.303,0.023 -0.613,0.005 -0.917,0.005 -0.152,0 -0.304,0 -0.456,0.001 -0.129,0 -0.249,0.004 -0.376,-0.019 -0.185,-0.034 -0.365,-0.094 -0.55,-0.127 -0.099,-0.018 -0.199,0.004 -0.296,-0.015 -0.06,-0.012 -0.114,-0.043 -0.174,-0.055 -0.211,-0.042 -0.438,-0.082 -0.65,-0.138 -0.067,-0.017 -0.072,-0.044 -0.132,-0.007 -0.034,0.042 -0.069,0.084 -0.104,0.127 -0.065,0.082 -0.133,0.161 -0.204,0.238 -0.082,0.091 -0.117,0.104 -0.233,0.082 -0.341,-0.065 -0.712,-0.024 -1.061,-0.024 -0.039,0.05 -0.211,-0.054 -0.214,-0.094 -0.002,-0.03 0.074,-0.123 0.098,-0.147 0.076,-0.078 0.187,-0.006 0.268,-0.089 0.02,-0.041 0.047,-0.078 0.079,-0.11 0.021,-0.029 0.046,-0.052 0.077,-0.07 0.078,-0.085 0.148,-0.191 0.218,-0.283 0.072,-0.095 0.126,-0.199 0.207,-0.289 0.064,-0.073 0.155,-0.143 0.202,-0.226 0.024,-0.074 0.049,-0.149 0.074,-0.223 0.027,-0.089 0.067,-0.172 0.122,-0.247 0.069,-0.126 0.141,-0.249 0.216,-0.371 0.13,-0.084 0.268,-0.153 0.414,-0.206 0.368,-0.187 0.756,-0.435 1.057,-0.721 0.135,-0.128 0.269,-0.291 0.36,-0.456 0.088,-0.217 0.14,-0.444 0.156,-0.679 0.026,-0.254 0.113,-0.484 0.259,-0.691 0.093,-0.144 0.195,-0.28 0.306,-0.409 0.138,-0.1 0.277,-0.199 0.418,-0.296 0.143,-0.114 0.261,-0.25 0.353,-0.409 0.131,-0.194 0.294,-0.355 0.491,-0.482 0.386,-0.289 0.811,-0.606 1.305,-0.638 0.233,0.012 0.465,0.006 0.696,-0.017 0.222,-0.007 0.418,-0.079 0.588,-0.215 0.029,-0.066 0.059,-0.132 0.088,-0.198 0.123,-0.227 0.298,-0.403 0.526,-0.528 0.237,-0.161 0.494,-0.284 0.768,-0.366 0.146,-0.039 0.295,-0.068 0.446,-0.085 0.26,-0.053 0.516,-0.119 0.77,-0.198 0.215,-0.059 0.424,-0.137 0.625,-0.236 0.075,-0.064 0.159,-0.112 0.25,-0.145 0.207,0.01 0.415,0.023 0.622,0.037 0.25,0.019 0.497,0.059 0.74,0.122 0.2,0.043 0.401,0.085 0.602,0.124 0.112,0.04 0.219,0.091 0.321,0.151 0.138,0.058 0.239,0.1 0.357,0.191 0.124,0.096 0.234,0.16 0.37,0.227 0.139,0.101 0.273,0.21 0.4,0.326 0.14,0.132 0.293,0.247 0.458,0.345 0.161,0.051 0.326,0.077 0.495,0.078 0.176,0.027 0.351,0.06 0.525,0.098 0.071,0.019 0.141,0.021 0.21,0.004 0.13,0.025 0.257,0.059 0.382,0.102 0.229,0.083 0.42,0.221 0.574,0.412 0.172,0.196 0.36,0.374 0.564,0.535 0.213,0.127 0.111,0.04 0.186,-0.079 0.248,0.253 0.393,0.595 0.595,0.884 0.354,0.506 0.792,0.937 1.174,1.419 0.319,0.404 0.572,0.852 0.857,1.28 0.143,0.215 0.265,0.397 0.361,0.637 0.055,0.139 0.095,0.293 0.177,0.42 0.116,0.181 0.219,0.351 0.29,0.557 0.082,0.239 0.012,0.488 0.088,0.731 0.068,0.214 0.289,0.35 0.453,0.49 0.095,0.066 0.18,0.144 0.253,0.232 C 1.503,0.675 1.523,0.737 1.541,0.8 1.56,0.854 1.558,0.891 1.565,0.945 1.578,1.034 1.633,1.121 1.673,1.2 1.704,1.259 1.752,1.344 1.761,1.409 1.543,1.375 1.333,1.286 1.116,1.26"
             style="fill:#100f0d;fill-opacity:1;fill-rule:nonzero;stroke:none"
             id="path55243" />
        </g>
        <g
           id="g55245"
           transform="translate(75.0941,476.412)">
          <path
             d="M 0,0 C -0.044,0.012 -0.088,0.023 -0.132,0.035 -0.034,0.02 0.042,0.008 0,0 m 7.726,-2.341 c 0.026,0.025 0.049,0.046 0.071,0.068 0.051,-0.011 0.103,-0.025 0.156,-0.038 0.026,-0.006 0.05,-0.014 0.076,-0.022 -0.03,-0.007 -0.06,-0.014 -0.091,-0.014 -0.066,0 -0.126,0.015 -0.191,0.003 -0.01,-0.002 -0.021,-0.005 -0.032,-0.007 0.003,0.003 0.007,0.007 0.011,0.01 m -13.038,0.006 c -0.005,0.051 -0.048,0.042 -0.08,0.067 -0.036,0.028 -0.075,0.075 -0.105,0.108 -0.07,0.074 -0.052,0.168 -0.042,0.266 0.005,0.047 0.013,0.097 0.054,0.12 0.069,0.038 0.197,-0.009 0.267,0.018 0.072,0.027 0.12,0.149 0.178,0.201 0.07,0.063 0.135,0.076 0.221,0.111 0.068,0.028 0.116,0.077 0.179,0.111 0.039,0.02 0.065,0.035 0.094,0.066 0.086,0.091 0.17,0.221 0.284,0.281 0.071,0.039 0.179,0.093 0.258,0.11 0.113,0.024 0.254,-0.007 0.367,-0.012 0.105,-0.004 0.209,-0.009 0.314,-0.014 -0.143,-0.123 -0.287,-0.244 -0.435,-0.361 -0.116,-0.093 -0.229,-0.188 -0.336,-0.29 -0.04,-0.038 -0.116,-0.086 -0.133,-0.14 -0.017,-0.051 0.002,-0.143 0.003,-0.194 0.001,-0.033 -10e-4,-0.067 -10e-4,-0.101 -0.106,-0.15 -0.195,-0.314 -0.256,-0.476 -0.034,-0.091 -0.06,-0.17 -0.081,-0.266 -0.018,-0.076 -0.014,-0.141 -0.021,-0.218 -0.013,-0.135 -0.098,-0.172 -0.184,-0.259 -0.044,-0.044 -0.071,-0.105 -0.102,-0.162 -0.033,-0.06 -0.053,-0.128 -0.092,-0.184 -0.06,-0.085 -0.149,-0.161 -0.167,-0.267 -0.019,-0.111 0.003,-0.194 0.039,-0.293 0.045,-0.121 -0.076,-0.251 -0.154,-0.339 -0.04,-0.046 -0.057,-0.078 -0.061,-0.11 -0.012,-0.018 -0.025,-0.035 -0.036,-0.054 -0.064,-0.115 -0.046,-0.205 -0.025,-0.326 0.019,-0.113 -0.004,-0.265 -0.016,-0.378 0.008,0.004 0.013,0.012 0.018,0.019 -0.007,-0.03 -0.013,-0.059 -0.016,-0.089 -0.003,-0.027 -0.014,-0.041 0,-0.064 0.034,0.006 0.045,0.041 0.082,0.045 0.03,0.116 0.042,0.234 0.05,0.352 0.017,0.033 0.033,0.067 0.042,0.097 0.013,0.047 -0.012,0.106 0.003,0.152 0.009,0.027 0.029,0.03 0.037,0.058 0.011,0.039 -0.008,0.087 0.002,0.126 0.007,0.027 0.017,0.048 0.026,0.07 0.046,0.022 0.103,0.035 0.151,0.06 0.154,0.081 0.256,0.193 0.39,0.298 0.043,0.034 0.09,0.048 0.14,0.069 0.106,0.045 0.21,0.072 0.325,0.088 0.081,0.012 0.157,0.027 0.236,0.045 0.04,0.01 0.125,0.01 0.159,0.031 0.028,0.017 0.038,0.055 0.044,0.085 0.028,0.144 0.014,0.31 0.019,0.458 0.005,0.125 0.035,0.187 0.119,0.281 0.08,0.091 0.146,0.121 0.256,0.177 0.219,0.112 0.4,0.284 0.609,0.41 0.123,0.074 0.263,0.133 0.396,0.188 0.079,0.033 0.16,0.079 0.245,0.091 0.037,0.006 0.076,0.007 0.115,0.008 0.038,-0.009 0.075,-0.02 0.111,-0.033 0.021,0.017 0.044,0.03 0.067,0.043 0.156,0.014 0.325,0.009 0.48,0.012 0.025,0 0.049,0 0.073,-0.001 0.041,-0.017 0.081,-0.036 0.118,-0.061 0.104,0.024 0.205,0.032 0.296,0.007 0.128,-0.036 0.06,-0.095 0.148,-0.169 0.036,0.008 0.072,0.014 0.11,0.016 0.007,0 0.014,0.003 0.021,0.003 0.135,0.012 0.243,-0.013 0.357,-0.063 0.015,0.005 0.03,0.008 0.045,0.013 l 0.831,-0.725 c 0.185,-0.169 0.36,-0.351 0.515,-0.548 0.162,-0.042 0.311,-0.144 0.402,-0.307 0.365,-0.654 0.8,-1.397 0.851,-2.16 C 2.509,-6.488 2.471,-6.725 2.411,-6.959 2.445,-7.016 2.468,-7.076 2.474,-7.138 2.543,-7.827 2.347,-8.482 1.925,-8.927 1.846,-9.111 1.754,-9.282 1.642,-9.427 1.63,-9.469 1.619,-9.512 1.602,-9.553 1.565,-9.643 1.43,-9.847 1.321,-9.838 c 0.137,-0.183 0.177,-0.207 0.342,-0.23 0.166,-0.024 0.331,0.01 0.497,0.008 0.08,-0.002 0.16,-0.007 0.239,-0.011 0.109,-0.006 0.349,0.008 0.45,-0.059 0.069,-0.045 0.128,-0.205 0.133,-0.281 0.01,-0.149 -0.034,-0.312 -0.142,-0.416 -0.126,-0.122 -0.27,-0.175 -0.2,-0.376 0.029,-0.083 0.044,-0.093 0.12,-0.076 0.131,0.03 0.272,-0.052 0.378,-0.121 0.045,-0.029 0.138,-0.128 0.195,-0.117 0.018,0.044 0.004,0.099 0.007,0.146 0.005,0.065 0.027,0.122 0.057,0.181 0.06,0.12 0.179,0.262 0.324,0.279 0.057,0.007 0.116,-0.017 0.173,-0.002 0.07,0.02 0.102,0.097 0.137,0.155 0.113,0.191 0.187,0.399 0.261,0.607 0.044,0.126 0.119,0.236 0.17,0.359 0.086,0.205 0.286,0.339 0.47,0.444 0.101,0.058 0.269,0.129 0.315,0.249 0.056,0.021 0.074,0.07 0.079,0.12 0.009,0.091 -0.007,0.191 -0.009,0.282 C 5.316,-8.588 5.275,-8.488 5.256,-8.38 5.235,-8.262 5.17,-8.194 5.1,-8.097 5.052,-8.03 4.949,-7.917 4.925,-7.84 4.914,-7.808 4.924,-7.776 4.92,-7.743 4.915,-7.708 4.897,-7.684 4.888,-7.65 c -0.021,0.078 -0.049,0.152 -0.072,0.232 -0.014,0.053 -0.027,0.09 -0.058,0.132 -0.014,0.02 -0.032,0.022 -0.041,0.049 -0.017,0.047 0.002,0.121 -0.009,0.173 -0.014,0.07 -0.04,0.15 -0.066,0.217 -0.012,0.031 -0.025,0.039 -0.03,0.076 -0.006,0.043 0.002,0.084 -0.009,0.127 -0.019,0.077 -0.06,0.103 -0.061,0.183 -10e-4,0.113 -0.023,0.214 0.028,0.317 0.025,0.05 0.094,0.115 0.088,0.174 -0.003,0.031 -0.027,0.037 -0.034,0.064 -0.008,0.026 -0.008,0.055 -0.009,0.084 -0.292,0.416 -0.38,0.994 -0.2,1.504 0.364,1.035 1.199,1.289 2.097,1.2 0.322,0.03 0.629,-0.011 0.916,-0.107 0.021,-0.024 0.043,-0.046 0.064,-0.071 0.059,-0.068 0.126,-0.06 0.198,-0.119 0.061,-0.05 0.128,-0.096 0.188,-0.147 0.023,-0.045 0.04,-0.093 0.047,-0.123 C 7.951,-3.797 7.886,-3.853 7.82,-3.931 7.793,-3.963 7.758,-3.974 7.729,-4.002 7.696,-4.035 7.686,-4.084 7.647,-4.113 7.606,-4.144 7.546,-4.167 7.499,-4.187 7.344,-4.255 7.147,-4.293 7.005,-4.176 6.959,-4.137 6.893,-4.085 6.863,-4.031 6.861,-4.026 6.858,-4.02 6.855,-4.013 6.852,-4.032 6.849,-4.05 6.846,-4.066 6.84,-4.101 6.812,-4.11 6.848,-4.155 6.865,-4.176 6.91,-4.187 6.933,-4.21 6.998,-4.276 7.029,-4.352 7.13,-4.371 7.251,-4.394 7.426,-4.398 7.554,-4.38 c 0.054,0.008 0.108,0.035 0.162,0.043 0.047,0.006 0.093,-0.005 0.138,0.002 0.06,0.011 0.114,0.072 0.177,0.086 0.067,0.015 0.13,-0.014 0.183,-0.042 0.014,-0.007 0.08,-0.04 0.095,-0.038 0.035,0.003 0.036,0.034 0.062,0.048 0.013,0.006 0.023,0.008 0.032,0.011 0.034,-0.041 0.067,-0.088 0.059,-0.115 0.008,0.051 -0.017,0.084 -0.024,0.131 0,0.004 0,0.008 0,0.012 0,0.001 0,0.001 10e-4,0.001 0.007,0.016 0.004,0.05 0.002,0.076 10e-4,0.008 10e-4,0.016 0,0.024 0.003,0.068 0.019,0.148 0.011,0.214 -0.005,0.034 -0.025,0.061 -0.03,0.095 -0.005,0.031 0.007,0.066 0.007,0.097 0,0.112 -0.04,0.166 -0.092,0.249 C 8.315,-3.451 8.288,-3.424 8.26,-3.398 8.46,-3.399 8.661,-3.407 8.861,-3.426 8.88,-3.446 8.899,-3.468 8.91,-3.492 8.932,-3.536 8.949,-3.584 8.932,-3.638 8.923,-3.67 8.847,-3.752 8.924,-3.766 9.035,-3.785 9.077,-3.547 9.058,-3.479 9.037,-3.401 8.95,-3.326 8.861,-3.269 8.826,-3.191 8.762,-3.149 8.667,-3.146 8.615,-3.128 8.564,-3.112 8.513,-3.095 8.471,-3.074 8.429,-3.053 8.391,-3.026 8.34,-2.99 8.309,-2.941 8.26,-2.9 8.181,-2.834 8.128,-2.739 8.046,-2.676 7.983,-2.627 7.907,-2.59 7.829,-2.557 l 0.584,0.125 C 8.479,-2.44 8.58,-2.447 8.635,-2.475 8.684,-2.5 8.701,-2.552 8.744,-2.582 8.779,-2.607 8.828,-2.615 8.868,-2.636 8.89,-2.647 8.918,-2.672 8.941,-2.685 9.063,-2.759 9.228,-2.796 9.367,-2.828 9.459,-2.85 9.756,-2.92 9.603,-2.753 9.471,-2.608 9.21,-2.706 9.043,-2.591 8.99,-2.555 9.001,-2.516 8.992,-2.446 8.979,-2.347 8.959,-2.325 8.877,-2.262 8.749,-2.163 8.661,-2.126 8.5,-2.121 8.448,-2.119 8.392,-2.125 8.343,-2.107 c -0.056,0.019 -0.098,0.055 -0.16,0.064 -0.038,0.006 -0.079,0.001 -0.117,0.004 -0.042,0.003 -0.062,0.013 -0.093,0.024 0.01,0.028 0.021,0.055 0.029,0.088 0.017,0.072 0.038,0.144 0.058,0.217 0.069,0.04 0.141,0.039 0.213,0.067 0.052,0.021 0.101,0.039 0.159,0.055 0.118,0.032 0.233,0.08 0.349,0.112 0.078,-0.013 0.065,-0.032 0.126,-0.072 0.036,-0.024 0.071,-0.026 0.11,-0.04 C 9.013,-1.742 9.299,-1.846 9.372,-1.947 9.404,-1.991 9.397,-2.02 9.406,-2.068 9.415,-2.12 9.446,-2.165 9.456,-2.219 9.472,-2.31 9.43,-2.325 9.372,-2.383 c 0.05,0.043 0.139,0.121 0.156,0.185 0.017,0.064 0.009,0.11 0.052,0.171 0.05,0.073 0.055,0.12 0.037,0.193 0.02,-0.024 0.045,-0.054 0.071,-0.079 -0.008,0.028 -0.018,0.054 -0.023,0.084 -0.01,0.053 -0.005,0.116 -0.015,0.173 -0.025,0.15 -0.089,0.268 -0.19,0.389 -0.041,0.049 -0.035,0.035 -0.116,0.05 -0.098,0.017 -0.196,0.05 -0.289,0.086 0.006,-0.006 0.015,-0.011 0.021,-0.017 0.016,-0.016 0.03,-0.034 0.044,-0.051 -0.015,0.002 -0.03,0.004 -0.044,0.01 -0.035,0.016 -0.047,0.038 -0.078,0.056 -0.107,0.063 -0.243,0.094 -0.344,0.165 -0.015,0.011 -0.029,0.02 -0.042,0.029 0.053,0 0.106,-0.004 0.159,-0.015 0.005,-0.013 0.013,-0.023 0.023,-0.031 0.066,-0.04 0.12,-0.09 0.193,-0.12 0.022,-0.01 0.045,-0.017 0.068,-0.026 -0.054,0.048 -0.119,0.092 -0.174,0.134 -0.059,0.046 -0.096,0.086 -0.147,0.139 -0.026,0.026 -0.058,0.047 -0.084,0.075 -0.102,0.107 -0.198,0.17 -0.322,0.249 -0.079,0.049 -0.152,0.098 -0.25,0.118 -0.067,0.013 -0.14,-0.006 -0.207,0.004 -0.097,0.015 -0.195,0.064 -0.287,0.094 -0.084,0.027 -0.164,0.05 -0.246,0.069 0,0.001 0.001,0.001 0.001,0.002 0.005,0.062 -0.008,0.12 -0.038,0.176 -0.013,0.043 -0.03,0.085 -0.049,0.125 0.004,0.009 0.008,0.018 0.01,0.027 0.02,0.003 0.055,-0.005 0.074,0.003 0.04,0.017 0.027,0.037 0.048,0.06 C 7.432,0.197 7.417,0.153 7.475,0.137 7.563,0.113 7.592,0.195 7.66,0.22 7.729,0.244 7.739,0.208 7.783,0.179 7.832,0.146 7.886,0.128 7.936,0.087 7.978,0.053 8.014,0.021 8.064,0.003 8.107,-0.012 8.156,-0.02 8.203,-0.034 8.229,-0.041 8.26,-0.044 8.291,-0.047 8.261,-0.016 8.232,0.022 8.221,0.036 8.219,0.039 8.217,0.042 8.214,0.045 8.268,0.015 8.32,-0.02 8.367,-0.063 8.344,-0.054 8.318,-0.05 8.291,-0.047 8.325,-0.081 8.359,-0.104 8.37,-0.065 8.374,-0.07 8.378,-0.074 8.382,-0.079 8.36,-0.051 8.339,-0.018 8.317,0.005 8.253,0.077 8.173,0.146 8.091,0.202 8.09,0.203 8.089,0.204 8.088,0.205 7.941,0.369 7.67,0.409 7.459,0.42 7.376,0.425 7.294,0.428 7.211,0.431 7.15,0.434 7.088,0.435 7.027,0.439 6.965,0.47 6.909,0.514 6.841,0.543 6.771,0.572 6.697,0.597 6.63,0.628 6.552,0.664 6.468,0.683 6.392,0.727 6.308,0.775 6.228,0.82 6.155,0.882 6.063,0.96 5.993,1.041 5.872,1.078 5.807,1.097 5.74,1.111 5.675,1.131 5.593,1.156 5.528,1.161 5.442,1.166 5.413,1.167 5.386,1.165 5.359,1.162 5.275,1.194 5.194,1.235 5.126,1.288 5.078,1.326 5.057,1.347 5.059,1.4 4.942,1.421 4.823,1.43 4.706,1.453 4.617,1.47 4.664,1.477 4.617,1.501 4.573,1.522 4.305,1.606 4.358,1.648 4.33,1.649 4.303,1.648 4.275,1.649 4.262,1.675 4.246,1.704 4.228,1.738 4.145,1.893 4.069,2.037 3.889,2.081 3.684,2.132 3.453,2.128 3.243,2.126 3.174,2.125 3.104,2.082 3.041,2.085 3.005,2.086 2.999,2.106 2.971,2.118 2.93,2.136 2.908,2.144 2.858,2.149 2.625,2.173 2.417,2.31 2.188,2.356 2.041,2.387 1.92,2.35 1.775,2.322 1.672,2.302 1.557,2.297 1.457,2.265 1.331,2.226 1.285,2.107 1.197,2.013 1.093,1.902 1.071,1.901 0.94,1.947 0.744,2.016 0.476,2.042 0.294,1.928 0.081,1.795 -0.055,1.555 -0.175,1.345 -0.24,1.231 -0.289,1.134 -0.31,1.014 -0.333,0.892 -0.348,0.751 -0.389,0.625 -0.433,0.492 -0.5,0.36 -0.473,0.237 -0.51,0.272 -0.546,0.309 -0.578,0.346 -0.842,0.647 -0.924,0.973 -1.322,1.108 -1.383,1.15 -1.442,1.144 -1.498,1.091 -1.505,1.086 -1.513,1.081 -1.52,1.076 -1.521,1.076 -1.522,1.077 -1.524,1.077 -1.554,1.08 -1.588,1.084 -1.618,1.078 -1.655,1.071 -1.675,1.038 -1.703,1.028 -1.784,1.002 -1.89,1.035 -1.977,1.035 -2.089,1.035 -2.293,0.959 -2.387,1.034 -2.42,1.061 -2.436,1.117 -2.459,1.149 -2.483,1.183 -2.526,1.247 -2.558,1.273 -2.625,1.327 -2.708,1.347 -2.79,1.351 -2.966,1.359 -3.125,1.286 -3.299,1.28 -3.389,1.276 -3.468,1.233 -3.558,1.227 -3.61,1.223 -3.61,1.232 -3.658,1.199 -3.763,1.126 -3.873,1.07 -3.975,0.998 -4.085,0.92 -4.16,0.896 -4.3,0.926 -4.393,0.946 -4.541,1.043 -4.633,0.975 -4.681,0.939 -4.685,0.864 -4.715,0.813 -4.749,0.758 -4.775,0.761 -4.749,0.685 -4.728,0.624 -4.685,0.579 -4.68,0.514 -4.673,0.402 -4.686,0.266 -4.573,0.205 c 0.057,-0.031 0.111,-0.027 0.174,-0.03 0.089,-0.003 0.217,-0.034 0.3,-0.01 0.042,0.011 0.144,0.021 0.116,0.082 -0.067,-0.021 -0.135,-0.033 -0.206,0.02 -0.036,0.026 -0.074,0.078 -0.102,0.113 -0.099,0.125 0,0.274 0.124,0.348 0.065,0.039 0.136,0.071 0.214,0.053 0.078,-0.018 0.193,-0.137 0.252,-0.18 0.059,-0.043 0.102,-0.081 0.173,-0.092 0.104,-0.017 0.139,-0.007 0.192,0.067 0.051,0.071 0.095,0.108 0.102,0.198 0.052,0.015 0.117,0 0.171,-0.002 0.111,-0.005 0.222,-0.009 0.33,-0.039 C -2.63,0.706 -2.578,0.67 -2.512,0.59 -2.442,0.506 -2.355,0.439 -2.287,0.354 -2.264,0.325 -2.243,0.292 -2.223,0.259 -2.229,0.255 -2.234,0.251 -2.241,0.246 -2.296,0.267 -2.362,0.309 -2.409,0.339 -2.426,0.35 -2.461,0.372 -2.498,0.399 -2.474,0.356 -2.443,0.317 -2.4,0.286 -2.366,0.261 -2.331,0.239 -2.295,0.217 -2.331,0.199 -2.366,0.183 -2.384,0.172 -2.448,0.13 -2.499,0.089 -2.57,0.064 -2.666,0.029 -2.762,0.003 -2.857,-0.036 -2.905,-0.056 -2.951,-0.073 -3.002,-0.075 -3.126,-0.08 -3.216,-0.097 -3.33,-0.151 -3.41,-0.19 -3.49,-0.231 -3.578,-0.25 c -0.066,-0.014 -0.099,-0.003 -0.15,-0.049 -0.081,-0.073 -0.096,-0.204 -0.179,-0.279 -0.075,-0.067 -0.185,-0.081 -0.275,-0.118 -0.109,-0.045 -0.192,-0.119 -0.287,-0.183 -0.187,-0.125 -0.411,-0.138 -0.626,-0.179 -0.061,-0.012 -0.118,-0.01 -0.174,-0.035 -0.091,-0.041 -0.189,-0.145 -0.25,-0.223 -0.072,-0.091 -0.124,-0.197 -0.194,-0.29 -0.036,-0.05 -0.073,-0.093 -0.1,-0.146 -0.058,-0.119 -0.061,-0.248 -0.009,-0.362 0.083,-0.181 0.311,-0.271 0.51,-0.221"
             style="fill:#100f0d;fill-opacity:1;fill-rule:nonzero;stroke:none"
             id="path55247" />
        </g>
      </g>
    </g>
  </g>
</svg>
