<svg width="25" height="24" viewBox="0 0 25 24" fill="#000000" xmlns="http://www.w3.org/2000/svg">
  <path d="M14.425 13.1095C14.444 13.0443 14.6112 13.0455 14.667 13.0621C14.7132 13.0751 14.7796 13.1297 14.8081 13.1724C14.8876 13.2898 14.7144 13.3111 14.6266 13.3064C14.5543 13.3028 14.5733 13.2898 14.5187 13.2507C14.4843 13.2258 14.4286 13.2293 14.4214 13.1807L14.4535 13.1178L14.425 13.1095ZM15.515 13.5519C15.432 13.7595 15.2612 13.8805 15.0702 14.0311C14.9801 14.1034 14.865 14.1473 14.7962 14.2327C14.7381 14.3063 14.6883 14.3952 14.6432 14.4735C14.5745 14.5909 14.5045 14.7048 14.4298 14.821C14.3574 14.9325 14.3811 15.0048 14.3503 15.114C14.3372 15.159 14.304 15.1436 14.304 15.2077C14.3028 15.2432 14.3242 15.2622 14.3349 15.2907C14.3384 15.3002 14.3408 15.3109 14.3444 15.3203C14.4203 15.3998 14.5068 15.4733 14.5875 15.5421C14.3942 15.4401 14.3645 15.3785 14.3444 15.3203C14.2376 15.2089 14.1498 15.0867 14.132 14.9515C14.1119 14.802 14.0419 14.6324 14.0775 14.4771C14.0822 14.4545 14.0905 14.4367 14.1012 14.4213C14.0467 14.3834 13.9862 14.33 13.9826 14.2683C13.9814 14.241 14.0111 14.1912 14.0206 14.1639C14.0324 14.126 14.036 14.1058 14.0419 14.0619C14.0538 13.992 14.0988 13.9409 14.1083 13.8733C14.1285 13.718 14.1119 13.5377 14.106 13.3799C14.1 13.412 14.1546 13.4819 14.1736 13.508C14.2044 13.5495 14.2376 13.5745 14.2803 13.6053C14.3254 13.6385 14.3811 13.6634 14.4286 13.6776C14.4582 13.6859 14.4914 13.6741 14.5187 13.6895C14.5211 13.6907 14.5223 13.6931 14.5246 13.6954C14.5306 13.6776 14.5365 13.6646 14.5412 13.6622C14.5887 13.6385 14.699 13.6954 14.7535 13.7014L15.2185 13.3266C15.2458 13.2186 15.2624 13.1688 15.1485 13.0811C14.8982 12.8901 14.4155 12.6102 14.1498 12.9352C14.1083 12.8616 14.138 12.7501 14.138 12.673C14.138 12.6351 14.1261 12.5853 14.1356 12.5473C14.1427 12.5224 14.1771 12.4951 14.1819 12.4785C14.2068 12.3943 14.1783 12.3054 14.1985 12.2188C14.2103 12.1725 14.259 12.1049 14.253 12.0515C14.2198 12.0266 14.2056 11.9982 14.157 11.9792C14.2246 11.9911 14.2495 12.0183 14.253 12.0515C14.2566 12.0551 14.2601 12.0575 14.2649 12.061C14.2839 12.0729 14.3242 12.0658 14.3455 12.0765C14.4689 12.1405 14.5899 12.1654 14.7215 12.2176C14.9303 12.3006 15.0738 12.4679 15.2031 12.6102C15.279 12.6944 15.3134 12.7774 15.3727 12.864C15.4177 12.9292 15.451 12.9909 15.4842 13.0621C15.5174 13.1297 15.5874 13.2435 15.5874 13.3147C15.5874 13.3871 15.5447 13.4808 15.515 13.5519ZM13.7478 10.2167C13.7003 10.206 13.679 10.1882 13.6185 10.1882C13.5699 10.1894 13.4916 10.1728 13.4441 10.1871C13.4074 10.1989 13.386 10.2345 13.3564 10.2594C13.3813 10.314 13.386 10.359 13.4287 10.4077C13.4524 10.4349 13.5034 10.4978 13.5414 10.5002C13.5888 10.5049 13.6102 10.4587 13.6564 10.4776C13.6256 10.5192 13.5248 10.5642 13.4773 10.5986C13.4145 10.6425 13.3611 10.6982 13.3113 10.7552C13.2508 10.8228 13.1891 10.8904 13.1298 10.958C13.1108 10.9793 13.08 11.0043 13.0598 11.0303C13.0836 10.977 13.0527 10.9034 13.0658 10.8489C13.0753 10.8097 13.0942 10.8002 13.1002 10.7564C13.1037 10.7303 13.1014 10.6876 13.1002 10.6615C13.0942 10.5773 13.0575 10.5405 13.0919 10.4646C13.1227 10.3958 13.131 10.3602 13.131 10.2831C13.131 10.212 13.1215 10.1313 13.1381 10.0625C13.15 10.0127 13.1796 9.89765 13.2164 9.86444C13.2627 9.82174 13.3528 9.84191 13.4133 9.84191H13.6659C13.7003 9.84665 13.7264 9.86919 13.7608 9.87512C13.7857 9.87986 13.8166 9.86563 13.8403 9.87156C13.8901 9.88579 13.9221 9.92493 13.9506 9.96763C13.9862 10.0222 14.0644 10.161 13.9862 10.2155C13.9446 10.244 13.7964 10.2286 13.7478 10.2167ZM12.5913 6.79016C12.5641 6.83405 12.5202 6.8127 12.4799 6.821C12.3707 6.84116 12.2687 6.90995 12.1703 6.96096C12.0944 7.0001 12.0422 7.01907 12.0114 7.10091C11.9829 7.17801 12.0232 7.29661 11.939 7.3488C11.9022 7.37133 11.8133 7.36303 11.7753 7.35592C11.6876 7.33931 11.6461 7.32152 11.5488 7.3227C11.3412 7.32389 11.1337 7.3227 10.9273 7.3227C10.7636 7.3227 10.575 7.29661 10.4197 7.36185C10.2323 7.44013 10.0674 7.64057 9.83968 7.60499C9.74479 7.59076 9.66414 7.52908 9.58349 7.48045C9.46251 7.46978 9.25969 7.36185 9.34153 7.38557C9.39372 7.40099 9.48149 7.42589 9.53249 7.4508C9.54909 7.4591 9.5657 7.46978 9.58349 7.48045C9.60721 7.48164 9.62975 7.48164 9.64398 7.47334C9.7104 7.43538 9.76496 7.36896 9.81714 7.3144C9.90373 7.22426 9.94287 7.10684 10.0069 6.99891C10.0544 6.91944 10.0816 6.79847 10.1457 6.73086C10.2275 6.64546 10.4683 6.46874 10.5489 6.62886C10.6059 6.74272 10.6355 6.92182 10.7767 6.97044C10.8312 6.98942 10.9309 6.98468 10.9902 6.97756C11.0518 6.96926 11.155 6.94316 11.2131 6.91351C11.2606 6.88861 11.3116 6.84709 11.3068 6.78779C11.3033 6.73798 11.2772 6.69172 11.2724 6.63835C11.2689 6.58497 11.2558 6.56125 11.244 6.51618C11.2333 6.47111 11.2487 6.44739 11.212 6.40825C11.187 6.37978 11.1349 6.35843 11.0993 6.34895C11.0234 6.32878 10.9415 6.32997 10.8656 6.31099C10.8561 6.26355 10.9736 6.18052 11.0186 6.16392C11.0922 6.13664 11.1799 6.17578 11.2547 6.15443C11.3827 6.12004 11.5049 6.06548 11.6508 6.0631C11.7718 5.96822 11.9236 5.97178 12.0754 5.96941C12.1988 5.96703 12.2628 5.90773 12.3601 5.8425C12.4443 5.78557 12.4395 5.83657 12.4383 5.92196C12.436 6.07141 12.4312 6.22441 12.4372 6.37504C12.4419 6.4972 12.487 6.59683 12.5522 6.69409C12.5747 6.72612 12.6234 6.7356 12.5913 6.79016ZM10.1908 15.9086C10.1587 15.9656 10.1398 16.0225 10.1089 16.0782C10.052 16.1767 9.99149 16.3024 9.89661 16.3688C9.85747 16.3973 9.74954 16.4756 9.70091 16.4613C9.64991 16.4459 9.60365 16.3522 9.55621 16.3166C9.25258 16.0818 8.86236 16.0011 8.53738 15.8007C8.40573 15.72 8.27763 15.5493 8.11514 15.5421C7.99772 15.5362 7.85539 15.5718 7.74509 15.5149C7.63953 15.4591 7.61581 15.3369 7.57429 15.2349C7.56125 15.2053 7.52092 15.1104 7.49246 15.0831C7.47704 15.0677 7.4628 15.076 7.44383 15.0642C7.35843 15.0132 7.25168 15.0001 7.16629 14.9479C7.10698 14.9112 7.07259 14.84 7.03463 14.7854C6.98245 14.7107 6.9184 14.6419 6.8757 14.5624C6.81521 14.4521 6.77963 14.3383 6.71084 14.2315C6.61121 14.0773 6.71321 13.8639 6.63612 13.6919C6.60884 13.6302 6.56377 13.5994 6.52818 13.5424C6.46176 13.4357 6.48667 13.2922 6.48667 13.1724C6.48667 13.0822 6.49023 12.9909 6.48667 12.9008C6.4843 12.8106 6.41907 12.7691 6.3989 12.6766C6.36095 12.5129 6.27792 12.2935 6.15339 12.1737C6.02411 12.0468 5.89008 11.9246 5.76199 11.7954C5.65761 11.6898 5.59712 11.5463 5.60305 11.3992C5.6078 11.2948 5.66236 11.0778 5.81773 11.1703C5.85687 11.1928 5.87822 11.2604 5.91855 11.2842C5.93278 11.2937 5.96718 11.2984 5.98259 11.3055C6.00632 11.3174 6.02055 11.334 5.92922 11.2984C6.00632 11.3435 6.08222 11.347 6.17118 11.3601C6.26725 11.3743 6.35383 11.385 6.45465 11.385C6.54716 11.385 6.64679 11.3707 6.73337 11.4087C6.90061 11.4799 7.0548 11.5404 7.24694 11.5427C7.30269 11.5439 7.35843 11.5427 7.41299 11.5427C7.46518 11.5427 7.56718 11.5605 7.62055 11.5439C7.64902 11.5356 7.65376 11.5166 7.68104 11.5095C7.71781 11.5012 7.77118 11.5107 7.80913 11.5119C7.91944 11.5119 8.02381 11.4988 8.12937 11.5415C8.24917 11.589 8.3737 11.6186 8.49349 11.6684C8.4164 11.7206 8.28356 11.7017 8.20291 11.7017C8.076 11.6993 7.97163 11.6886 7.85302 11.7337C7.70595 11.7894 7.53041 11.8001 7.41773 11.9211C7.34657 11.997 7.33115 12.1452 7.31217 12.2449C7.30031 12.3042 7.28608 12.3647 7.27659 12.4228C7.26117 12.507 7.27778 12.5912 7.25761 12.6754C7.21017 12.8747 7.27422 13.0894 7.23508 13.291C7.21254 13.406 7.18645 13.5412 7.21492 13.6587C7.25168 13.814 7.4035 13.9196 7.46873 14.0631C7.50906 14.1509 7.53041 14.2932 7.59564 14.3715C7.62767 14.4094 7.6763 14.4604 7.71544 14.4972C7.76762 14.5506 7.81862 14.5636 7.88979 14.5802C7.94197 14.5933 8.06058 14.6051 8.12226 14.6348C8.17326 14.6597 8.21477 14.7107 8.27289 14.7332C8.42589 14.7949 8.59431 14.8186 8.7485 14.8732C8.78883 14.8874 8.81966 14.9052 8.86117 14.9135C8.94301 14.9289 9.04264 14.9123 9.12567 14.9123C9.22174 14.9123 9.3273 14.9195 9.41388 14.8756C9.523 14.8198 9.65702 14.7214 9.69261 14.598C9.73293 14.4545 9.74005 14.3015 9.79224 14.1568C9.83375 14.0465 9.85866 13.9279 9.85628 13.8105C9.8551 13.7654 9.87289 13.7429 9.88 13.7109C9.89424 13.6456 9.88712 13.5768 9.88712 13.5092C9.88712 13.4286 9.86696 13.3183 9.88593 13.2412C9.88949 13.2269 9.90847 13.2163 9.91084 13.208C9.92033 13.1724 9.91796 13.1356 9.92626 13.1C9.94287 13.0289 9.96422 13.0075 10.0389 13.0229C10.1077 13.3195 10.2085 13.6089 10.2026 13.9196C10.1979 14.2078 10.2038 14.496 10.2026 14.7842C10.2014 14.9195 10.2204 15.0464 10.2311 15.1804C10.2418 15.3156 10.2335 15.4544 10.2335 15.5908C10.2335 15.7212 10.2489 15.8007 10.1908 15.9086ZM6.13915 7.78409C6.2293 7.67615 6.31825 7.5611 6.44635 7.50417C6.55546 7.45555 6.58867 7.41759 6.58156 7.28949C6.57681 7.21833 6.55665 7.22901 6.51632 7.18156C6.49735 7.15903 6.47125 7.13531 6.48311 7.10091C6.51395 7.01196 6.63019 7.09973 6.67407 7.13175C6.73219 7.17682 6.76065 7.21952 6.83182 7.22901C6.8674 7.23375 6.90654 7.22663 6.94331 7.22782C7.03582 7.23019 7.10105 7.28831 7.19357 7.29187C7.31573 7.29661 7.42366 7.28119 7.53041 7.3227C7.60869 7.35354 7.72137 7.36303 7.78541 7.40929C7.84234 7.44961 7.90046 7.54213 7.90402 7.60617C7.90876 7.6892 7.89453 7.75443 7.872 7.8256C7.84353 7.92285 7.79253 8.00113 7.74509 8.08772C7.70951 8.15176 7.68934 8.21937 7.65257 8.28342C7.62174 8.34035 7.43078 8.74124 7.43078 8.83494C7.43197 8.73768 7.35724 8.73768 7.2422 8.74005C7.09275 8.74243 6.95398 8.68431 6.80691 8.65228C6.66814 8.62263 6.53293 8.57756 6.3989 8.52893C6.34079 8.50758 6.31113 8.49335 6.24946 8.48861C6.16999 8.48268 6.15932 8.4471 6.14627 8.35933C6.13797 8.30121 6.14271 8.27274 6.11188 8.23123C6.07392 8.17904 5.9992 8.15295 5.96718 8.09365C5.89245 7.96081 6.06799 7.87067 6.13915 7.78409ZM8.72478 13.1226C8.81729 13.119 8.81848 12.9838 8.8161 12.9281L8.88015 12.8972C8.86829 12.8201 8.93115 12.7442 8.94301 12.6707C8.9525 12.6149 8.93708 12.4785 8.99876 12.4548C9.04146 12.5876 8.91573 12.934 9.08771 12.9909C9.15651 13.0134 9.15057 12.966 9.19209 12.9352C9.22767 12.9103 9.27037 12.9079 9.29765 12.8699C9.36169 12.8818 9.36169 12.9696 9.35339 13.0229C9.33204 13.157 9.20513 13.2115 9.09839 13.2625C8.98571 13.3159 8.99046 13.3882 9.09957 13.425C9.17074 13.4487 9.24427 13.4891 9.31781 13.5033C9.30476 13.5507 9.20632 13.5211 9.16244 13.5258C9.07941 13.5353 9.09839 13.5638 9.09957 13.6456C9.10195 13.7405 9.06874 13.8235 9.06755 13.9184C9.06755 13.9682 9.07704 14.1544 9.0118 14.1568C8.98453 14.0714 9.02011 13.9753 9.00232 13.8888C8.99401 13.8449 8.97741 13.8188 8.97385 13.7713C8.96911 13.7037 8.98927 13.6717 8.91218 13.6539C8.66547 13.5946 8.71766 13.9623 8.60261 14.0833C8.57415 14.0275 8.62871 13.922 8.62752 13.8556C8.62752 13.7939 8.63701 13.7263 8.62989 13.6658C8.62278 13.616 8.5955 13.578 8.59075 13.5282C8.54924 13.5163 8.51959 13.5662 8.49705 13.6219C8.49112 13.6693 8.47926 13.7156 8.45198 13.7536C8.46266 13.731 8.47689 13.6741 8.49705 13.6219C8.50061 13.5958 8.5018 13.5697 8.5018 13.5436C8.50061 13.4796 8.5267 13.3586 8.48756 13.3052C8.46266 13.2708 8.44368 13.2815 8.4081 13.2744C8.36066 13.2649 8.3061 13.259 8.25747 13.2507C8.17919 13.2352 8.025 13.2851 7.97637 13.2127C8.03805 13.189 8.07126 13.1522 8.14005 13.1463C8.18512 13.1427 8.23375 13.1475 8.28 13.1487C8.34168 13.1498 8.51129 13.1629 8.53619 13.087C8.55043 13.0455 8.46266 12.9269 8.44012 12.8972C8.38793 12.832 8.3144 12.7632 8.29424 12.6802C8.382 12.7264 8.43063 12.8403 8.49349 12.9114C8.54212 12.9672 8.63938 13.1261 8.72478 13.1226ZM8.81492 4.48208C8.86473 4.39431 8.87304 4.32315 8.90269 4.23182C8.95725 4.06103 8.90506 3.89023 9.02129 3.7479C9.0972 3.65539 9.16955 3.55458 9.28816 3.52018C9.47081 3.46799 9.65584 3.43241 9.83968 3.38971C10.0093 3.34939 10.1931 3.41225 10.3604 3.41699C10.4837 3.42055 10.6533 3.50832 10.7636 3.56762C10.8988 3.64116 11.0554 3.72537 11.2155 3.73367C11.3436 3.7396 11.4753 3.73367 11.6045 3.73248C11.6567 3.73248 11.7077 3.73842 11.7575 3.74553C11.7742 3.73842 11.7919 3.73249 11.8097 3.7313C11.8738 3.72537 11.9165 3.75977 11.977 3.7657C11.9011 3.7657 11.8299 3.75384 11.7575 3.74553C11.7386 3.75146 11.7208 3.75858 11.7006 3.76214C11.6745 3.7657 11.6425 3.75621 11.6176 3.76214C11.569 3.77518 11.5203 3.83211 11.4764 3.85584C11.4148 3.88905 11.365 3.87956 11.2938 3.89379C11.2641 3.89854 11.2404 3.9187 11.212 3.92344C11.1633 3.93056 11.1183 3.91988 11.0684 3.92937C10.9937 3.94242 10.9309 3.96021 10.8644 3.99224C10.7221 4.06221 10.5217 4.09661 10.4517 4.2591C10.4683 4.07289 10.4612 3.83449 10.2738 3.7396C10.071 3.63641 9.8634 3.74197 9.67363 3.80484C9.59772 3.82974 9.51351 3.8677 9.48386 3.95309C9.4637 4.01477 9.48149 4.1144 9.51588 4.16777C9.57163 4.24961 9.62026 4.2164 9.69972 4.23538C9.73886 4.24368 9.74717 4.26384 9.79224 4.26859C9.84087 4.27452 9.88238 4.25198 9.91914 4.29942C10.0117 4.32196 9.99743 4.38719 9.95117 4.45836C9.89424 4.5485 9.78156 4.51292 9.69142 4.49513C9.52656 4.46429 9.34272 4.48682 9.17548 4.48801C9.06636 4.4892 9.00113 4.53782 8.9015 4.5912C8.85169 4.61848 8.74968 4.66355 8.70343 4.70506C8.72715 4.63034 8.77696 4.55087 8.81492 4.48208ZM4.85583 5.57207C4.84279 5.64086 4.85465 5.70966 4.8499 5.77964C4.84279 5.88757 4.81551 6.07496 4.67674 5.95517C4.63167 5.91603 4.61506 5.8591 4.58067 5.81166C4.5439 5.75947 4.50713 5.74998 4.45494 5.71796C4.38852 5.67763 4.35413 5.63612 4.28059 5.60647C4.22603 5.58393 4.18689 5.56733 4.18096 5.50209C4.16436 5.49735 4.14657 5.49379 4.12996 5.49142C4.11691 5.44398 4.12996 5.41077 4.14064 5.37044C4.15012 5.33367 4.15724 5.27911 4.17859 5.24235C4.2201 5.17237 4.30194 5.10832 4.3138 5.02411V5.119C4.41462 5.11662 4.47985 5.18897 4.56643 5.23879C4.6032 5.26014 4.67318 5.26725 4.62336 5.34198C4.5949 5.3823 4.51899 5.37874 4.47748 5.40958C4.45613 5.425 4.40276 5.47007 4.41106 5.49735C4.4158 5.51277 4.51069 5.55666 4.53204 5.5614C4.57236 5.5697 4.64946 5.56496 4.69216 5.56021C4.75027 5.55428 4.76213 5.51514 4.81669 5.50209C4.90446 5.48075 4.86414 5.52463 4.85583 5.57207ZM23.7653 15.9063C23.7238 15.8315 23.7451 15.7734 23.7783 15.707C23.8519 15.5611 24.012 15.4461 24.0286 15.2765C24.0393 15.1579 23.993 15.0511 23.8993 14.9799C23.8661 14.9633 23.8317 14.9538 23.7949 14.9503C23.7178 14.9195 23.6514 14.8744 23.5957 14.8151C23.5292 14.7676 23.4545 14.7321 23.3774 14.6941C23.292 14.6526 23.1983 14.6218 23.1106 14.5826C23.0406 14.5506 22.967 14.4948 22.89 14.4854C22.7927 14.4735 22.7073 14.4948 22.6089 14.4557C22.4962 14.4106 22.412 14.311 22.3029 14.2647C22.2258 14.2315 22.1238 14.2114 22.0407 14.2031C21.8889 14.1877 21.7798 14.2683 21.6339 14.2671C21.443 14.2659 21.2769 14.1746 21.0859 14.1722C20.9377 14.1699 20.8831 14.1426 20.7728 14.0513C20.6957 13.9872 20.6198 13.935 20.5404 13.8769C20.4704 13.8271 20.3743 13.7666 20.3672 13.6729C20.3245 13.6527 20.2996 13.6836 20.2972 13.7215C20.2415 13.7002 20.175 13.6836 20.1347 13.6717C19.8963 13.6017 19.6401 13.5365 19.3899 13.5484C19.2048 13.5567 19.0317 13.5745 18.8443 13.546C18.7613 13.5341 18.6782 13.5223 18.5964 13.5033C18.4303 13.4665 18.2868 13.3633 18.1504 13.2684C18.0662 13.2103 17.8314 13.0656 17.8492 12.9458C17.8682 12.8237 18.135 12.8344 18.2382 12.826C18.326 12.8177 18.3983 12.813 18.4813 12.7881C18.5229 12.775 18.5596 12.7573 18.6035 12.7537C18.8668 12.7264 19.1432 12.8154 19.3958 12.8699C19.5251 12.8972 19.6022 12.8735 19.7267 12.8581C19.8809 12.8403 20.0244 12.8581 20.1727 12.8071C20.3684 12.7407 20.6779 12.7264 20.7681 12.5058C20.8049 12.4145 20.8369 12.3374 20.8974 12.2556C20.9401 12.1974 21.0089 12.1381 21.029 12.0658C21.0705 11.9163 21.0361 11.7669 21.1227 11.6281C21.1856 11.5273 21.2449 11.4348 21.2959 11.3292C21.322 11.2747 21.367 11.2272 21.3801 11.1691C21.4074 11.047 21.3872 10.8773 21.3659 10.7576C21.3481 10.6615 21.3528 10.5666 21.3208 10.4729C21.2852 10.3697 21.2295 10.2748 21.1915 10.1728C21.1453 10.0483 21.0919 9.92968 21.0646 9.80633C21.0492 9.7316 21.0041 9.65807 20.9816 9.58453C20.9602 9.51811 20.9365 9.45881 20.8938 9.40306C20.806 9.28683 20.659 9.17771 20.5427 9.08638C20.4384 9.00455 20.1573 8.91322 20.1193 8.76971C20.0707 8.58112 20.3387 8.60603 20.4478 8.59654C20.5273 8.58942 20.5831 8.57163 20.6507 8.53249C20.7408 8.4803 20.895 8.4293 20.9519 8.34272C21.1275 8.07823 21.099 7.78171 21.0978 7.47808C21.099 7.59076 21.0468 7.67378 21.0338 7.78527C21.0255 7.85406 21.0017 7.90506 20.9733 7.96911C20.9045 8.11737 20.7942 8.16956 20.6329 8.15888C20.5487 8.15414 20.4822 8.1316 20.3933 8.12804C20.3387 8.12686 20.3103 8.11262 20.2616 8.09602C20.1608 8.064 20.0553 8.05095 19.9497 8.03909C19.7564 8.01655 19.5725 8.05925 19.3804 8.064C19.1111 8.07111 18.7672 8.01655 18.53 8.17549C18.3592 8.29172 18.173 8.41507 18.1991 8.64754C18.2062 8.70329 18.2299 8.74717 18.2335 8.80529C18.237 8.85036 18.2299 8.87527 18.2524 8.91796C18.3046 9.01997 18.441 9.0852 18.5098 9.17297C18.5596 9.23583 18.6023 9.31055 18.549 9.37104C18.5086 9.4173 18.4493 9.41611 18.396 9.42323C18.4019 9.55725 18.173 9.54539 18.0899 9.54421C17.9725 9.54302 17.8112 9.53709 17.7353 9.63909C17.6926 9.69721 17.676 9.7233 17.5847 9.70432C17.5289 9.69365 17.453 9.64621 17.4103 9.60707C17.3404 9.54421 17.2894 9.43746 17.2478 9.35681C17.2265 9.31648 17.2289 9.27141 17.2075 9.23108C17.1672 9.15636 17.0344 9.10892 16.9644 9.06504C16.8066 8.96778 16.6169 8.94168 16.4639 8.83138C16.4117 8.79343 16.382 8.7614 16.3144 8.75547C16.2385 8.74835 16.1828 8.7531 16.1104 8.72582C16.0558 8.70447 16.0891 8.69735 16.0025 8.68668C15.8471 8.66889 15.7593 8.6428 15.6585 8.52893C15.5767 8.43761 15.5399 8.3107 15.4664 8.21107C15.3513 8.05688 15.2398 7.88371 15.1046 7.74613C15.0655 7.70699 15.0572 7.69869 15.0299 7.64887C15.0038 7.59906 14.9481 7.55399 14.954 7.49587C14.9575 7.46741 15.0026 7.38082 15.0121 7.35354C15.0346 7.29661 15.0418 7.26459 15.056 7.2041C15.0821 7.09735 15.1426 7.01907 15.1473 6.90877C15.1509 6.84354 15.1497 6.77237 15.1473 6.70714C15.139 6.55769 15.0323 6.36199 14.9315 6.25643C14.9113 6.23508 14.8876 6.21966 14.8662 6.20069C14.8057 6.1485 14.7666 6.13427 14.699 6.10699C14.6124 6.07141 14.5543 6.01448 14.4618 5.98482C14.4547 5.98245 14.4452 5.98127 14.4357 5.97889C14.4784 6.02871 14.5128 6.08445 14.5187 6.11055C14.5318 6.16866 14.5163 6.24932 14.5163 6.30981C14.5163 6.35488 14.527 6.41418 14.5175 6.45806C14.4997 6.54821 14.4345 6.62648 14.3657 6.67986C14.3017 6.73086 14.2601 6.74035 14.17 6.74153C14.0894 6.74153 14.0324 6.71425 13.9885 6.63953C13.9684 6.60514 13.9624 6.56006 13.9423 6.5233C13.9103 6.46281 13.9043 6.4213 13.8877 6.36081C13.8664 6.2849 13.8035 6.21967 13.762 6.15087C13.6979 6.04887 13.6173 5.98957 13.6019 5.8591C13.5948 5.7998 13.6185 5.75591 13.628 5.70017C13.6363 5.6551 13.6292 5.61477 13.6327 5.5697C13.6434 5.46414 13.7193 5.3823 13.7691 5.29453C13.8272 5.19016 13.9055 5.07867 13.9933 4.99565C14.1143 4.8806 14.2459 4.82722 14.4096 4.81892C14.5223 4.81418 14.6492 4.83078 14.7595 4.85094C14.8164 4.86162 14.8781 4.88297 14.9255 4.91855C14.9967 4.97311 15.0465 5.05732 15.1189 5.11544C15.1521 5.14272 15.3039 5.34672 15.3691 5.32181C15.445 5.29216 15.362 5.15814 15.4415 5.11069C15.4853 5.0846 15.5921 5.10358 15.6419 5.10358C15.7842 5.10239 15.9242 5.10714 16.063 5.14153C16.063 5.29216 16.0594 5.44398 16.0594 5.59461C16.0594 5.67289 16.0606 5.75117 16.0594 5.82945C16.0594 5.85792 16.0511 5.89706 16.0582 5.92434C16.0641 5.94924 16.0831 5.95161 16.0891 5.97296C16.1021 6.03227 16.0997 6.08445 16.1223 6.14257C16.1377 6.18171 16.1614 6.3359 16.1922 6.35369C16.2409 6.38216 16.3037 6.31218 16.3132 6.26948C16.3263 6.21611 16.3109 6.13545 16.3109 6.07971C16.3132 5.95161 16.2693 5.78557 16.2172 5.67289C16.1721 5.57326 16.127 5.4333 16.1602 5.32419C16.1745 5.27674 16.2029 5.221 16.2243 5.17593C16.2705 5.07155 16.267 4.99327 16.2871 4.88415C16.2966 4.82722 16.3085 4.78097 16.312 4.72285C16.3132 4.70743 16.3025 4.68253 16.3061 4.66711C16.3298 4.55562 16.4615 4.50699 16.5006 4.41447C16.5445 4.31247 16.5421 4.17963 16.5599 4.07289C16.5801 3.94005 16.5967 3.81314 16.5955 3.67911C16.5943 3.54627 16.5884 3.41106 16.5943 3.27822C16.5979 3.20113 16.6346 3.17622 16.6679 3.11454C16.6904 3.07066 16.707 2.9912 16.72 2.94731C16.739 2.88208 16.7295 2.81091 16.7521 2.74449C16.7687 2.69349 16.7948 2.64487 16.809 2.59149C16.8244 2.52626 16.8541 2.46696 16.8719 2.40172C16.9276 2.19891 17.1043 1.97948 17.0047 1.76362C16.9786 1.70669 16.9288 1.64501 16.892 1.58927C16.8553 1.53352 16.8137 1.47303 16.771 1.41966C16.7319 1.37222 16.6785 1.33782 16.6406 1.28682C16.6026 1.23463 16.5884 1.18482 16.5623 1.13145C16.5433 1.09468 16.5172 1.06265 16.5065 1.01877C16.4769 0.893047 16.4805 0.705647 16.6263 0.671251C16.7378 0.645158 16.8576 0.691414 16.9395 0.757834C17.0723 0.866952 17.255 0.902534 17.3522 1.05791C17.389 1.11484 17.4364 1.19312 17.4471 1.26073C17.4637 1.35798 17.4447 1.48133 17.4447 1.57978C17.4447 1.69483 17.421 1.8419 17.4435 1.95457C17.4566 2.01981 17.4922 2.0803 17.5076 2.14434C17.5195 2.19535 17.5372 2.22974 17.5396 2.2843C17.5455 2.39579 17.5408 2.51084 17.5396 2.62352C17.5396 2.70417 17.5538 2.73026 17.5728 2.79668C17.5942 2.87496 17.5491 2.97222 17.5693 3.05169L17.5954 3.09675C17.612 3.18334 17.6262 3.27466 17.6345 3.36362C17.6428 3.45495 17.6831 3.56169 17.6677 3.65539C17.6558 3.723 17.6404 3.77993 17.6357 3.84991C17.6309 3.92107 17.6048 3.98986 17.5942 4.05984C17.5835 4.14286 17.5847 4.23182 17.5633 4.31129C17.5384 4.40024 17.5396 4.46073 17.5396 4.55799C17.5396 4.69557 17.5218 4.82011 17.5111 4.95532C17.5017 5.06444 17.4934 5.19135 17.5064 5.30046C17.5183 5.39653 17.5396 5.47007 17.5396 5.5697C17.5384 5.74168 17.5396 5.91247 17.5396 6.08445C17.5396 6.21255 17.5669 6.3869 17.5254 6.50669C17.4756 6.64665 17.3795 6.76525 17.3795 6.923C17.3795 7.00603 17.402 7.18038 17.4732 7.22545C17.5372 7.26696 17.6926 7.26696 17.7579 7.2207C17.81 7.18394 17.8326 7.02263 17.848 6.97519C17.8658 6.92419 17.8848 6.87912 17.8895 6.82456C17.8942 6.76288 17.8942 6.67986 17.8871 6.61818C17.88 6.5482 17.8326 6.49127 17.8219 6.42723C17.8136 6.37978 17.8231 6.32048 17.8231 6.27067C17.8231 6.1485 17.8089 6.02159 17.8302 5.90061C17.8409 5.83657 17.8551 5.78438 17.8539 5.71796C17.8515 5.47482 17.8646 5.23049 17.8563 4.98853C17.8468 4.71574 17.7911 4.45361 17.7922 4.17963C17.7922 3.99579 17.7839 3.81907 17.7448 3.64353C17.695 3.42055 17.6974 3.17978 17.6974 2.94968C17.6974 2.72552 17.7021 2.49898 17.6985 2.27481C17.6974 2.17993 17.6962 2.07555 17.6653 1.98423C17.6547 1.94983 17.6404 1.9522 17.6333 1.91069C17.6238 1.85732 17.6215 1.72092 17.657 1.68178C17.7057 1.70075 17.7152 1.78141 17.7353 1.82055C17.7685 1.88578 17.8089 1.93797 17.8622 1.98778C17.9571 2.07555 17.9891 2.10758 18.1208 2.11232C18.1884 2.11469 18.256 2.11232 18.3236 2.11232C18.4078 2.11232 18.5276 2.1313 18.6106 2.10639C18.6782 2.08504 18.8265 2.00913 18.7992 1.92848C18.7197 1.90476 18.632 1.93323 18.5513 1.92611C18.4114 1.91543 18.2643 1.86206 18.1303 1.82173C18.1338 1.71973 18.1279 1.58215 18.0876 1.48489C18.0591 1.4161 17.9737 1.37103 17.9512 1.2975C17.9358 1.24887 17.9488 1.18482 17.9488 1.13382C17.9488 1.04842 17.9488 0.963024 17.9488 0.876441C17.95 0.68667 17.9037 0.536041 17.8136 0.368806C17.7495 0.250199 17.6606 0.195638 17.5752 0.0924504C17.4957 -0.00362089 17.408 0.00230983 17.2811 0.00112376C17.0794 -0.00243443 16.879 0.00112527 16.6809 0.0272187C16.6335 0.033149 16.5789 0.0236602 16.5315 0.0319626C16.4982 0.039079 16.4745 0.0592407 16.4413 0.0675431C16.3666 0.0853341 16.2931 0.0533119 16.216 0.0853356C16.1614 0.109057 16.0997 0.16243 16.0594 0.205128C16.0215 0.247826 16.0155 0.272735 15.9906 0.334411C15.9586 0.407947 15.9301 0.483852 15.9052 0.560947C15.8981 0.59297 15.8981 0.626181 15.904 0.658205C15.891 0.696159 15.859 0.711577 15.8447 0.749532C15.8257 0.795788 15.84 0.859837 15.8388 0.908465C15.8376 0.99149 15.8424 1.02707 15.8945 1.09824C15.9254 1.14093 15.9491 1.16821 15.9598 1.22277C15.9871 1.37222 15.872 1.52285 15.8435 1.66517C15.8186 1.79683 15.8388 1.94509 15.8388 2.07911C15.8388 2.22262 15.8388 2.36495 15.8388 2.50847C15.8388 2.67096 15.8269 2.81447 15.7439 2.96036C15.6929 3.05168 15.6123 3.09201 15.6644 3.20706C15.4972 3.40988 15.2446 3.51662 15.0014 3.5866C14.8733 3.62337 14.7512 3.61388 14.6195 3.621C14.4867 3.62811 14.3574 3.68148 14.2234 3.68979C14.1237 3.69572 14.0822 3.70283 13.9802 3.75028C13.8628 3.80365 13.8189 3.825 13.6932 3.80839C13.5402 3.78823 13.3421 3.75621 13.2081 3.67318C13.0859 3.59846 12.978 3.4929 12.8689 3.40157C12.7954 3.34108 12.736 3.29601 12.6815 3.22129C12.5937 3.1015 12.5309 2.95917 12.4383 2.84412C12.3577 2.74331 12.2901 2.7101 12.1608 2.7101C12.0351 2.70891 11.888 2.7184 11.7647 2.74924C11.7018 2.66621 11.6318 2.58912 11.5547 2.51796C11.4812 2.40291 11.3816 2.34598 11.2558 2.34716C11.1574 2.4207 11.0625 2.49661 10.9688 2.57489C10.9226 2.62826 10.8668 2.66265 10.8016 2.67807C10.6794 2.69824 10.5371 2.67926 10.4102 2.67926C10.2667 2.67926 10.1231 2.67926 9.97963 2.67926C9.85628 2.67926 9.63568 2.65198 9.50284 2.68519C9.35458 2.72077 9.16718 2.81685 9.06043 2.92834C8.94183 3.05287 8.93234 3.2462 8.83271 3.37785C8.73545 3.50595 8.56822 3.58541 8.46384 3.71351C8.41996 3.76807 8.38319 3.82974 8.34405 3.88905C8.21477 4.08712 8.16614 4.38126 8.15428 4.62203C8.14954 4.71455 8.13293 4.79639 8.12226 4.88653C8.1187 4.91855 8.12937 4.94939 8.12226 4.9826C8.0926 5.12137 7.8293 5.27556 7.68341 5.29453C7.57192 5.30877 7.50669 5.26844 7.43671 5.38586C7.42129 5.41195 7.38927 5.48312 7.3952 5.51633C7.40469 5.57563 7.50313 5.58038 7.49957 5.66459C7.49601 5.76066 7.38334 5.82589 7.30862 5.8508C7.18171 5.8935 7.04531 5.95636 6.9267 6.01685C6.85672 6.05243 6.78319 6.12952 6.70728 6.14494C6.61002 6.16392 6.53056 6.12952 6.42974 6.17341C6.3906 6.19001 6.3313 6.21373 6.2969 6.23508C6.2293 6.2766 6.20913 6.34539 6.18778 6.4213C6.09883 6.3015 6.03597 6.16629 5.96718 6.03345C5.93752 5.97771 5.91024 5.94924 5.92448 5.89113C5.68964 5.78675 5.35872 5.81877 5.19149 5.58393C5.1654 5.54717 5.14998 5.50091 5.13337 5.4594C5.11084 5.40365 5.07644 5.37163 5.05153 5.32656C5.01002 5.25184 5.0373 5.10595 5.0373 5.01937C5.03849 4.90313 5.0373 4.79283 4.92818 4.72878C4.90921 4.71692 4.88667 4.72166 4.86651 4.70743C4.85346 4.69794 4.85227 4.67778 4.8416 4.66948C4.76688 4.61848 4.66962 4.60899 4.58778 4.57103C4.48222 4.52241 4.43241 4.46073 4.35887 4.38126C4.30194 4.31959 4.25687 4.31722 4.17385 4.31484C4.0754 4.31247 3.786 4.29824 3.74449 4.40854C3.71484 4.48564 3.74923 4.63864 3.77414 4.71099C3.84175 4.9055 3.81209 5.09765 3.71602 5.28267C3.67451 5.36451 3.59505 5.41788 3.53574 5.48549C3.44679 5.58631 3.43137 5.72982 3.49186 5.85436C3.53574 5.94213 3.61521 6.00855 3.62232 6.10817C3.62588 6.17222 3.60691 6.23271 3.59623 6.29439C3.58318 6.36674 3.58912 6.44146 3.58912 6.51618C3.58912 6.60751 3.59505 6.70121 3.5903 6.79253C3.58318 6.9147 3.52388 6.974 3.46458 7.07245C3.44441 7.10803 3.44086 7.15191 3.41832 7.18394C3.40528 7.20173 3.37562 7.2124 3.3602 7.23019C3.33767 7.25273 3.30683 7.29424 3.2926 7.32389C3.26888 7.37371 3.2582 7.47334 3.27955 7.52908C3.30327 7.59313 3.40527 7.73308 3.46814 7.75325C3.54404 7.77697 3.65435 7.7568 3.70298 7.7058C3.75516 7.65243 3.77651 7.59906 3.76228 7.52908C3.75872 7.5101 3.75279 7.46978 3.74686 7.44961C3.73974 7.42115 3.71958 7.40099 3.71365 7.37252C3.70535 7.34168 3.70654 7.3061 3.69942 7.27408C3.68993 7.23375 3.67214 7.19461 3.68163 7.14954C3.69705 7.07838 3.71484 7.03212 3.71484 6.95503C3.71484 6.9064 3.70654 6.85184 3.71484 6.80439C3.71958 6.77237 3.73263 6.75932 3.73975 6.73442C3.75042 6.69884 3.74686 6.668 3.76347 6.6336C3.78956 6.57667 3.837 6.51381 3.87377 6.46399C3.89512 6.43434 3.92359 6.40944 3.93545 6.37741C3.94019 6.36199 3.92952 6.34302 3.93426 6.33115C3.94375 6.30743 3.96391 6.27185 3.98526 6.25643C4.03626 6.22085 4.12522 6.17934 4.18808 6.17341C4.32092 6.16036 4.45376 6.20069 4.58541 6.20662C4.6459 6.20899 4.70402 6.23153 4.75383 6.26711C4.81432 6.30981 4.91039 6.38453 4.93767 6.45569C4.96969 6.54228 4.9519 6.70951 4.91276 6.79135C4.86532 6.88979 4.80127 6.97993 4.72299 7.05703C4.6459 7.13294 4.58304 7.18394 4.53678 7.28001C4.47866 7.40099 4.40631 7.51485 4.31617 7.61448C4.17622 7.76985 4.05049 7.93116 3.92121 8.09721C3.83463 8.20632 3.66502 8.33561 3.6496 8.47437C3.64486 8.52182 3.66502 8.57519 3.65672 8.62145C3.64367 8.69261 3.57488 8.73531 3.53337 8.78987C3.41239 8.94643 3.25227 9.03657 3.08385 9.13857C2.9261 9.23583 2.81106 9.33071 2.68652 9.46355C2.64382 9.50862 2.63196 9.51337 2.6118 9.57623C2.60231 9.60825 2.59994 9.63553 2.57384 9.65925C2.53708 9.64739 2.52403 9.6213 2.49675 9.59995C2.45642 9.56911 2.41728 9.55369 2.38289 9.51455C2.31291 9.4339 2.29275 9.33309 2.21328 9.25599C2.13974 9.18601 2.09942 9.10655 2.04011 9.0259C2.00335 8.97371 1.96658 8.92271 1.92744 8.87171C1.88474 8.8385 1.84441 8.8041 1.80646 8.76615C1.78867 8.72938 1.77325 8.69261 1.75664 8.65584C1.73174 8.60603 1.7009 8.55977 1.66413 8.51707C1.63685 8.472 1.63685 8.4293 1.62143 8.3783C1.59297 8.2846 1.52536 8.23004 1.54197 8.12567C1.54908 8.07704 1.55739 8.08297 1.57755 8.04621C1.6155 8.01774 1.64397 7.97979 1.66413 7.9359C1.69497 7.86236 1.73648 7.79595 1.79104 7.73664C1.90253 7.60143 1.99742 7.4852 2.04011 7.31084C2.0579 7.23849 2.07925 7.18749 2.10891 7.11989C2.12907 7.07363 2.13974 7.03331 2.1777 7.00128C2.20853 6.97637 2.25123 6.97282 2.2797 6.94435C2.33307 6.89098 2.32833 6.80321 2.3307 6.73442C2.33307 6.65021 2.34256 6.53516 2.32714 6.44976C2.30816 6.34183 2.23226 6.23864 2.2026 6.1402C2.19193 6.10817 2.18007 6.07734 2.17058 6.04294C2.15042 5.96822 2.16109 5.93975 2.11958 5.86384C2.06739 5.76303 2.03656 5.71796 1.94997 5.67052C1.8966 5.64086 1.90965 5.63968 1.87525 5.57326C1.81002 5.47244 1.73885 5.37519 1.66176 5.28386C1.62618 5.24709 1.59771 5.20558 1.57755 5.15932C1.53366 5.12493 1.47792 5.10358 1.42099 5.08223C1.29764 5.03716 1.19208 4.94465 1.0628 4.94702C0.963167 4.9482 0.878956 4.93871 0.786443 4.91618C0.696302 4.89364 0.629882 4.88297 0.533811 4.88297C0.418763 4.93041 0.570579 5.02648 0.680883 5.08697C0.787629 5.14628 1.08533 5.23879 1.03907 5.40247C1.02247 5.46296 0.960794 5.52937 0.927585 5.58393C0.869467 5.67763 0.823211 5.78319 0.797118 5.89113C0.76035 6.04413 0.98926 6.3869 1.12447 6.17459C1.05094 5.98127 1.10668 5.73338 1.16361 5.54479C1.18615 5.61121 1.2158 5.70847 1.27273 5.75591C1.32966 5.80573 1.40082 5.79505 1.46487 5.8247C1.5989 5.88757 1.61194 6.00499 1.65583 6.12952C1.68074 6.19832 1.69971 6.24932 1.70208 6.32285C1.70327 6.36436 1.72225 6.50432 1.7009 6.55176C1.66769 6.62411 1.52299 6.7273 1.46013 6.76644C1.34864 6.8376 1.22054 6.88861 1.09956 6.94435C0.95012 7.01314 0.765093 7.05821 0.641743 7.17445C0.591928 7.22189 0.601416 7.22426 0.574137 7.28119C0.512461 7.40692 0.416391 7.51248 0.346413 7.63345C0.247969 7.80069 0.135293 7.96555 0.0463381 8.13872C0.0048258 8.217 -0.0236395 8.26444 0.0273613 8.34747C0.0783621 8.4293 0.205271 8.48979 0.290668 8.53249C0.237295 8.70447 8.21911e-05 8.8041 0.0451527 8.99506C0.0961535 9.20736 0.144782 9.41255 0.153084 9.63197C0.359459 9.7067 0.542113 9.86089 0.709349 9.99965C0.679697 10.1467 0.657162 10.2985 0.597859 10.4361C0.517206 10.6259 0.51602 10.7623 0.567021 10.9556C0.551602 10.8845 0.653603 10.8275 0.711721 10.8121C0.808978 10.7872 0.912166 10.8489 0.980958 10.9117C1.07466 10.9983 1.05924 11.0707 1.07703 11.1833C1.08415 11.2308 1.09245 11.3031 1.1304 11.3352C1.15531 11.3375 1.17784 11.3458 1.19801 11.3589C1.21817 11.4087 1.22766 11.4585 1.22647 11.5119C1.23478 11.64 1.23359 11.6768 1.16243 11.7871C1.12091 11.8511 0.95012 12.0504 0.963166 12.1488C0.970283 12.1974 1.04738 12.3054 1.09956 12.3149C1.12091 12.488 0.966725 12.6019 0.920469 12.7501C0.903864 12.8035 0.912166 12.8427 0.912166 12.8996C0.913352 13.0229 0.927584 13.157 0.893188 13.2768C0.837443 13.476 0.638185 13.6077 0.585998 13.8046C0.551602 13.935 0.575323 14.0275 0.659534 14.1367C0.69393 14.1817 0.753233 14.2173 0.800675 14.2493C0.884886 14.3027 0.973841 14.3454 1.06991 14.3762C1.10549 14.3976 1.14226 14.4177 1.17903 14.4379C1.23833 14.5221 1.20038 14.6965 1.19326 14.7925C1.18615 14.8744 1.16361 14.9562 1.16124 15.0381C1.15768 15.159 1.17429 15.3524 1.21817 15.4662C1.25138 15.5528 1.30594 15.6358 1.39489 15.675C1.52062 15.7295 1.53248 15.6252 1.64397 15.592C1.73885 15.5623 1.95116 15.6121 2.05197 15.6311C2.15991 15.6323 2.2453 15.6762 2.31054 15.7604C2.37696 15.8327 2.45049 15.8968 2.53114 15.9537C2.58808 15.9881 2.63908 15.994 2.69601 16.0225C2.76717 16.0593 2.80157 16.1186 2.85494 16.1791C2.92255 16.255 2.99371 16.3297 3.0542 16.4127C3.13604 16.5278 3.23567 16.6902 3.26176 16.829C3.27955 16.9251 3.24278 17.1101 3.21313 17.2074C3.16569 17.3651 3.10994 17.53 3.02811 17.6652C2.92848 17.8312 2.73278 17.9214 2.58333 18.0341C2.54656 18.0613 2.46235 18.1206 2.44931 18.1705C2.43982 18.2108 2.48607 18.3484 2.49319 18.3828C2.50742 18.4516 2.53352 18.518 2.54419 18.5856C2.55487 18.6496 2.54182 18.7125 2.55605 18.773C2.58452 18.8916 2.59045 18.99 2.57029 19.1193C2.55131 19.2415 2.52877 19.4016 2.42559 19.4858C2.38526 19.519 2.34493 19.5392 2.30579 19.5771C2.20379 19.6744 2.15635 19.7586 2.18126 19.8986C2.18956 19.9436 2.25005 20.0895 2.237 20.1488C2.22514 20.2034 2.16939 20.2556 2.14686 20.303C2.10179 20.3931 2.09823 20.4963 2.084 20.5948C2.06621 20.7205 2.08993 20.8782 2.17888 20.9755C2.32596 21.1332 2.56554 21.2009 2.72922 21.3408C2.79445 21.3977 2.82054 21.4333 2.90357 21.4511C2.9439 21.4594 2.98541 21.444 3.02929 21.4535C3.08978 21.4665 3.28311 21.5768 3.33411 21.4938C3.37681 21.4226 3.27481 21.3693 3.23211 21.3337C3.18822 21.2969 3.1396 21.2554 3.09334 21.2246C3.03759 21.1878 2.95694 21.1961 2.9095 21.1617C2.82648 21.1036 2.79445 20.9553 2.74701 20.8723C2.70194 20.7952 2.66517 20.7039 2.64975 20.6138C2.63196 20.5094 2.65924 20.3694 2.71024 20.2745C2.78378 20.1417 2.97355 20.1049 3.03522 19.9638C3.0625 19.8997 3.04708 19.844 3.05301 19.7799C3.07673 19.5072 3.13011 19.2759 3.33886 19.0861C3.4373 18.996 3.45509 18.9248 3.45983 18.7908C3.46221 18.7054 3.46339 18.633 3.50728 18.5583C3.58912 18.4172 3.633 18.2938 3.67333 18.1384C3.69705 18.0483 3.73144 18.0388 3.79668 17.9795C3.89986 17.8858 3.97221 17.8087 4.1098 17.7577C4.18808 17.7281 4.26754 17.7031 4.35057 17.6972C4.43122 17.6913 4.50713 17.6948 4.57829 17.645C4.77874 17.5051 4.61032 17.154 4.54983 16.9868C4.51069 16.8776 4.49052 16.765 4.44071 16.6606C4.38496 16.5455 4.30075 16.4495 4.21892 16.3534C4.12047 16.236 3.96866 16.1174 3.90224 15.9762C3.85361 15.873 3.87377 15.7485 3.84175 15.6394C3.837 15.6204 3.7777 15.5101 3.77889 15.4805C3.89512 15.5801 4.04931 15.6169 4.17622 15.7023C4.26992 15.7651 4.35887 15.8612 4.41462 15.9608C4.55339 16.2111 4.57711 16.5278 4.77992 16.7436C4.84872 16.816 4.92344 16.8943 5.0029 16.9536C5.09186 17.02 5.1903 17.039 5.29586 17.0769C5.4121 17.1184 5.5224 17.1504 5.61373 17.237C5.73589 17.3521 5.87703 17.4458 6.00039 17.5608C6.0668 17.6213 6.13085 17.6486 6.2115 17.6877C6.31825 17.7328 6.41788 17.7897 6.51158 17.8561C6.54242 17.9 6.57207 17.9451 6.60291 17.989C6.69068 18.1147 6.77607 18.1669 6.92433 18.174C7.08089 18.1799 7.28371 18.174 7.42011 18.2559C7.62411 18.378 7.62885 18.6046 7.62174 18.8133C7.61818 18.9153 7.5992 18.9841 7.58022 19.0766C7.56006 19.1668 7.57074 19.2688 7.5399 19.3542C7.49364 19.4787 7.39401 19.5415 7.27303 19.4597C7.01684 19.2877 7.07259 18.8868 6.75472 18.7872C6.60053 18.7398 6.47837 18.5524 6.29927 18.5773C6.20913 18.5903 6.11306 18.652 6.04664 18.7077C5.9565 18.7837 5.75724 18.8121 5.75487 18.9616C5.75368 19.0221 5.83434 19.1715 5.89601 19.2011C5.9399 19.1632 5.90669 19.1015 5.93278 19.0553C5.9565 19.0126 6.0158 18.9544 6.0502 18.9201C6.2376 18.7338 6.65509 19.0197 6.78912 19.1312C6.76658 19.2391 6.72389 19.334 6.69661 19.4407C6.6634 19.5688 6.67881 19.6661 6.71677 19.7894C6.75947 19.9282 6.85791 19.9626 6.96821 20.048C7.08682 20.137 7.13782 20.1891 7.28727 20.1891C7.4035 20.1891 7.5138 20.188 7.62767 20.1583C7.76525 20.1227 7.8376 20.061 7.94316 19.9697C8.05702 19.8713 8.1187 19.7669 8.12581 19.6186C8.13174 19.5036 8.1614 19.4158 8.21002 19.3103C8.32033 19.0659 8.37489 18.7006 8.2634 18.4433C8.17326 18.2392 8.10684 18.021 8.00958 17.8194C7.93011 17.6533 7.79846 17.53 7.68697 17.3865C7.62055 17.3011 7.56599 17.1825 7.47822 17.1184C7.43197 17.084 7.37029 17.071 7.3181 17.0473C7.22915 17.0057 7.16629 16.9381 7.11173 16.8587C7.06547 16.7911 7.03819 16.7092 6.99194 16.6416C6.94687 16.5764 6.87926 16.542 6.8247 16.4886C6.75591 16.4175 6.69779 16.3653 6.61951 16.3309C6.65865 16.3439 6.69779 16.3546 6.7393 16.3629C6.79268 16.3736 6.84961 16.3748 6.90061 16.3961C7.07496 16.4685 7.23152 16.5989 7.39994 16.6867C7.5482 16.7626 7.69409 16.8444 7.80558 16.969C7.86488 17.0354 7.92656 17.1196 7.95976 17.2038C7.97874 17.2524 7.97044 17.2975 7.98586 17.345C8.02025 17.4481 8.20884 17.5098 8.30017 17.5691C8.37726 17.6178 8.45317 17.6984 8.53738 17.734C8.56584 17.7458 8.58482 17.7328 8.61329 17.7494C8.63938 17.7648 8.6548 17.798 8.66785 17.8253C8.71647 17.9321 8.69513 17.9273 8.81136 17.9842C8.86118 18.008 9.24427 18.2049 9.20988 18.2547C9.4803 18.3294 9.74835 18.4041 10.0211 18.4717C10.1433 18.5014 10.2643 18.5298 10.371 18.6022C10.4458 18.6496 10.5039 18.7101 10.5466 18.786C10.5561 18.8014 10.5656 18.8169 10.575 18.8311C10.6308 18.8714 10.7482 18.8797 10.8182 18.9082C11.0056 18.9841 11.206 19.0007 11.4005 19.0517C11.5678 19.0956 11.7338 19.1537 11.9034 19.1869C12.0019 19.2071 12.092 19.213 12.1916 19.2118C12.2308 19.2118 12.2735 19.2 12.3067 19.2249C12.328 19.2652 12.3506 19.3043 12.3719 19.3435C12.417 19.4585 12.4692 19.5688 12.5285 19.6768C12.5558 19.704 12.5937 19.7242 12.6269 19.7408C12.723 19.7894 12.8072 19.7883 12.8618 19.8831C12.9234 19.9946 12.9567 20.1215 13.0231 20.2283C13.1014 20.354 13.1773 20.4797 13.2496 20.609C13.2982 20.6956 13.3528 20.8344 13.4382 20.8948C13.5295 20.9589 13.7134 20.9636 13.8154 20.9885C13.9209 21.0146 14.0134 21.049 14.1119 21.0977C14.208 21.1451 14.3361 21.2092 14.3657 21.3206C14.3704 21.3349 14.3574 21.4986 14.3586 21.4606C14.3562 21.5899 14.3408 21.6978 14.4796 21.7571C14.5021 21.7678 14.6788 21.7844 14.6255 21.7761C14.7322 21.7939 14.8603 21.8235 14.9647 21.8591C15.0655 21.8935 15.0702 21.9291 15.1141 22.0192C15.1746 22.145 15.1936 22.2197 15.1224 22.349C15.0868 22.4142 15.0204 22.4545 14.9718 22.5186C14.9172 22.5909 14.871 22.6751 14.7927 22.7261C14.5318 22.8934 14.2957 22.8175 14.0099 22.7261C13.9209 22.6977 13.8438 22.6609 13.7549 22.6384C13.7098 22.6265 13.6553 22.6028 13.6173 22.5767C13.571 22.5435 13.5521 22.4889 13.5094 22.4533C13.4643 22.4142 13.3991 22.3845 13.3504 22.3502C13.2615 22.2885 13.1725 22.2149 13.0741 22.1687C12.9353 22.1046 12.755 22.1011 12.6305 22.0074C12.5344 21.935 12.4312 21.8034 12.3577 21.7061C12.3245 21.6634 12.2972 21.6183 12.2593 21.5792C12.1845 21.5033 12.1561 21.5282 12.0719 21.4891C12.0031 21.457 12.0019 21.355 11.9449 21.2981C11.869 21.221 11.786 21.1973 11.684 21.1961C11.5215 21.1926 11.3543 21.2056 11.1942 21.2341C11.1432 21.2436 11.0969 21.2744 11.0507 21.2851C10.9961 21.2981 10.9427 21.2874 10.8882 21.2934C10.6438 21.3195 10.4149 21.412 10.1872 21.4962C10.0615 21.5424 9.92152 21.5531 9.79224 21.5899C9.67363 21.6243 9.63212 21.6468 9.56333 21.7476C9.53486 21.7903 9.51114 21.8378 9.4803 21.8793C9.44116 21.9315 9.3783 21.973 9.35458 22.0382C9.33086 22.1046 9.3356 22.2422 9.37474 22.298C9.41032 22.3502 9.44946 22.3454 9.50284 22.3585C9.57756 22.3786 9.64635 22.4035 9.71633 22.4379C9.81833 22.4889 9.9227 22.5565 10.0093 22.6312C10.0888 22.7 10.1492 22.7866 10.2299 22.8542C10.2667 22.8863 10.3082 22.891 10.326 22.942C10.3473 23.0072 10.2963 23.0914 10.2406 23.1282C10.1813 23.1662 10.0923 23.159 10.0235 23.1365C9.85273 23.0808 9.67244 22.9966 9.50995 22.9206C9.54909 22.9491 9.57163 22.9918 9.60958 23.0226C9.64872 23.0547 9.69854 23.0808 9.74005 23.1092C9.89424 23.216 10.0235 23.3168 10.2038 23.3702C10.358 23.4164 10.6225 23.4401 10.7707 23.3773C10.9154 23.3168 11.0186 23.2006 11.0222 23.0404C11.0269 22.7831 11.0412 22.5459 10.8134 22.3774C10.6794 22.279 10.0615 22.1165 10.3912 21.8864C10.4529 21.8437 10.511 21.8567 10.5857 21.8579C10.6355 21.8579 10.7209 21.8366 10.7672 21.8508C10.8123 21.8651 10.8882 21.9386 10.9131 21.954C11.0483 22.0418 11.2108 22.0857 11.3484 22.1734C11.4646 22.247 11.5701 22.3229 11.6911 22.3917C11.8382 22.4747 11.8987 22.5708 11.99 22.7072C12.0766 22.8364 12.1525 22.9633 12.2011 23.1092C12.2498 23.2516 12.334 23.3868 12.4158 23.5125C12.4799 23.6098 12.5593 23.7485 12.672 23.8007C12.7515 23.8363 12.844 23.8541 12.9282 23.8707C13.0741 23.9003 13.2555 23.9312 13.4038 23.9015C13.4501 23.892 13.4856 23.8683 13.5343 23.8683C13.6529 23.8683 13.7857 23.9312 13.9043 23.9454C14.1143 23.9703 14.3123 24 14.5234 23.9988C14.6017 23.9988 14.68 23.9988 14.7583 24C14.8449 24 14.8176 23.9893 14.8674 23.9762C14.9587 23.9513 15.0311 23.9347 15.1272 23.9359C15.1793 23.9371 15.2363 23.9407 15.2885 23.9383C15.3679 23.9347 15.4296 23.9015 15.5055 23.8802C15.7178 23.8232 16.0333 23.8517 16.1614 23.6406C16.3085 23.3974 16.3868 23.1092 16.5018 22.8495C16.6145 22.5945 16.5943 22.279 16.5943 22.0074C16.5955 21.8923 16.5991 21.8081 16.5552 21.7073C16.5267 21.6433 16.5089 21.5685 16.5006 21.4974C16.4805 21.3337 16.4472 21.1878 16.3025 21.0882C16.2077 21.0218 16.1246 20.9969 16.076 20.8877C16.0333 20.7917 15.9871 20.6778 15.9954 20.5699C16.0025 20.4702 16.0309 20.3813 16.0298 20.2793C16.0286 20.1702 15.9752 20.1654 15.9218 20.0777C15.8934 20.029 15.9088 20.029 15.8957 19.9863C15.853 19.8499 15.7973 19.7384 15.7012 19.6281C15.5814 19.4882 15.4296 19.4052 15.2707 19.3209C15.1746 19.2699 15.0868 19.2249 14.9765 19.2154C14.9089 19.2095 14.8413 19.2178 14.7737 19.2106C14.8484 19.1418 14.8639 19.0292 14.9255 18.9497C14.9884 18.9616 15.0512 18.958 15.1141 18.9675C15.1853 18.9782 15.2398 19.0043 15.3146 18.9888C15.3905 18.9734 15.4189 18.9402 15.4806 18.8821C15.5731 18.8097 15.6431 18.722 15.6941 18.6188C15.6858 18.5868 15.6834 18.5547 15.6858 18.5215C15.7439 18.5037 15.7842 18.5346 15.8352 18.5583C16.0013 18.6366 16.2207 18.6164 16.3974 18.5927C16.5279 18.5749 16.6679 18.5263 16.7687 18.4397C16.892 18.3341 16.9371 18.1527 17.0581 18.0412C17.0865 18.0151 17.1553 17.9427 17.1992 17.9463C17.2146 17.9475 17.2146 17.97 17.2253 17.9736C17.2858 17.9973 17.3522 18.0447 17.4174 18.0447C17.4957 18.0447 17.4483 18.0151 17.5266 17.9914C17.5835 17.9748 17.6475 18.0317 17.6831 18.0661C17.759 18.1408 17.7839 18.1788 17.8788 18.2333C18.0176 18.3104 18.1635 18.4112 18.3117 18.4646C18.3817 18.4907 18.4541 18.4931 18.5252 18.5097C18.6118 18.5298 18.6818 18.5642 18.7553 18.6129C18.8123 18.6496 18.8561 18.7066 18.9131 18.7421C19.008 18.8038 19.1503 18.8121 19.2547 18.7872C19.4278 18.7469 19.6247 18.7706 19.7991 18.7706C19.8833 18.7694 19.9639 18.7765 20.047 18.7872C20.1573 18.8003 20.2699 18.7908 20.3791 18.8062C20.5463 18.8323 20.6827 18.9533 20.8345 19.0173C20.8594 19.028 20.9128 19.0292 20.9306 19.0505C20.965 19.0932 20.9365 19.1418 20.9128 19.181C20.8357 19.3067 20.6779 19.3257 20.5439 19.353C20.3257 19.3992 20.1015 19.4455 19.8809 19.4656C20.0304 19.4336 20.1952 19.5499 20.3458 19.5593C20.4384 19.5653 20.5202 19.5724 20.6103 19.5878C20.6637 19.5961 20.6922 19.589 20.7396 19.5724C20.9152 19.5083 21.1132 19.5166 21.2247 19.347C21.2674 19.2818 21.3516 19.2261 21.3789 19.1584C21.4014 19.1003 21.3967 18.977 21.3789 18.9177C21.3682 18.8785 21.3338 18.8311 21.3184 18.7896C21.29 18.7172 21.2994 18.6354 21.2698 18.5678C21.22 18.4599 21.1381 18.3377 21.0195 18.3128C20.7989 18.2665 20.5771 18.2298 20.3541 18.2013C20.251 18.1882 20.2094 18.1562 20.1371 18.0851C20.0873 18.0352 20.0387 18.0222 19.9651 17.9985C19.8157 17.9534 19.6805 17.9653 19.5286 17.9463C19.2333 17.9119 18.9119 17.8775 18.6403 17.7482C18.4446 17.6533 18.3058 17.5086 18.1326 17.3805C18.0971 17.3544 18.0627 17.3414 18.0235 17.3236C17.9203 17.2762 17.8314 17.2097 17.7329 17.154C17.6582 17.1125 17.5669 17.0994 17.5337 17.0212C17.5171 16.9844 17.5052 16.9346 17.4922 16.8966C17.4649 16.8172 17.4151 16.7638 17.4127 16.6796C17.408 16.5384 17.4768 16.4103 17.6203 16.3676C17.7721 16.3226 18.0247 16.3261 18.1813 16.3451C18.2797 16.357 18.4031 16.4246 18.4873 16.4803C18.5608 16.5301 18.6545 16.6132 18.6723 16.7057C18.6925 16.8089 18.613 16.8717 18.5917 16.9607C18.5739 17.0378 18.6616 17.0567 18.613 17.1267C18.7103 17.173 18.8585 17.0034 18.9249 16.9441C18.9736 16.9014 19.0518 16.8729 19.0779 16.8136C19.0993 16.765 19.0945 16.6357 19.0839 16.5835C19.059 16.4578 18.9629 16.3178 18.8763 16.2206C18.7624 16.0948 18.5822 16.0379 18.4244 15.9869C18.3046 15.949 18.2109 15.8624 18.0923 15.8197C18.0247 15.796 17.9346 15.8114 17.8622 15.8114C17.7662 15.8114 17.6713 15.8114 17.5752 15.8114C17.5076 15.8102 17.4424 15.7995 17.3819 15.8339C17.3214 15.8659 17.2894 15.9193 17.2265 15.9525C17.1387 15.9988 17.0877 16.032 17.0343 16.1186C16.9964 16.1814 16.9715 16.2443 16.9549 16.3166C16.9347 16.4092 16.9478 16.4756 16.9774 16.5515C16.9347 16.4969 16.8873 16.4447 16.8339 16.3973C16.7331 16.2977 16.6358 16.1945 16.5433 16.0865C16.4129 15.9395 16.2539 15.8458 16.1057 15.7224C16.1804 15.7248 16.2515 15.7212 16.2776 15.7141C16.3986 15.6845 16.5172 15.6169 16.6346 15.5718C16.7497 15.5279 16.8742 15.4757 16.9727 15.3998C17.0272 15.3571 17.0664 15.2907 17.1233 15.2516C17.1945 15.2041 17.3676 15.1733 17.4388 15.1555C17.5206 15.1306 17.606 15.1163 17.6914 15.1128C17.7187 15.1199 17.7436 15.1341 17.7638 15.1555C17.899 15.2207 18.0556 15.2089 18.1825 15.2824C18.2572 15.3263 18.3117 15.3725 18.396 15.4034C18.4861 15.4354 18.5845 15.4413 18.6782 15.4579C18.7221 15.4662 18.7601 15.4698 18.804 15.484C18.9344 15.5267 19.1135 15.5516 19.2345 15.6192C19.3329 15.675 19.4053 15.7699 19.5037 15.8149C19.5642 15.8351 19.6152 15.8707 19.6532 15.9217C19.7089 15.9703 19.7742 16 19.8477 16.0106C19.9402 16.0415 20.0256 16.0854 20.1193 16.1079C20.3031 16.153 20.4621 16.096 20.6186 16C20.806 15.8837 21.0243 15.847 21.2188 15.7485C21.3077 15.7034 21.386 15.6513 21.469 15.5979C21.5284 15.5611 21.5865 15.5018 21.6505 15.471C21.832 15.3832 22.0478 15.3678 22.2459 15.3678C22.4049 15.3678 22.5555 15.4057 22.7085 15.4496C22.82 15.4805 22.8793 15.4769 22.8959 15.5896C22.9006 15.6287 22.9054 15.7011 22.8959 15.7414C22.8769 15.828 22.8081 15.8742 22.75 15.9383C22.648 16.0486 22.5413 16.1553 22.3847 16.1862C22.2246 16.217 21.9838 16.204 21.8332 16.1636C21.9541 16.2585 22.1558 16.2763 22.24 16.4163C22.2768 16.4768 22.2957 16.5183 22.3633 16.5384C22.4369 16.561 22.5211 16.5266 22.5863 16.504C22.6421 16.4839 22.6848 16.4886 22.7381 16.4744C22.8057 16.4554 22.865 16.4163 22.9386 16.4008C23.2126 16.3439 23.5091 16.3071 23.7676 16.1968C23.8898 16.1447 23.891 16.1375 23.8388 16.0225C23.8186 15.9786 23.789 15.9466 23.7653 15.9063Z"/>
  <path d="M6.56021 7.68451C6.61833 7.73788 6.63968 7.796 6.71321 7.75923C6.71559 7.75804 6.71796 7.75449 6.72033 7.7533C6.71321 7.74737 6.70491 7.74025 6.69068 7.73314C6.66577 7.7189 6.58986 7.68214 6.56021 7.68451Z"/>
  <path d="M7.04886 7.70941C7.04175 7.70585 7.03344 7.69992 7.0204 7.68687C7.00261 7.66671 6.98126 7.62164 6.98956 7.59199L7.04886 7.70941ZM6.60527 7.97271C6.61476 8.02134 6.63967 8.06285 6.64441 8.11148C6.65034 8.16604 6.61951 8.21823 6.69067 8.23958C6.7737 8.26449 6.81758 8.14588 6.88756 8.13165C6.91602 8.17079 6.96821 8.17672 6.99905 8.2123C7.02633 8.24432 7.02989 8.27753 7.06072 8.30718C7.10935 8.35463 7.10817 8.34632 7.14612 8.2977C7.17696 8.25618 7.20661 8.18858 7.23626 8.14114C7.26591 8.09488 7.2671 8.05574 7.27896 8.00474C7.3181 7.99406 7.38689 8.02253 7.39638 7.97627C7.34063 7.95374 7.26947 7.97627 7.21017 7.97034C7.20542 7.97034 7.20424 7.96916 7.20068 7.96797C7.19475 7.9656 7.19 7.96204 7.1817 7.96204C7.18882 7.93239 7.24338 7.92409 7.27303 7.90748C7.31928 7.87902 7.35368 7.8375 7.39875 7.80311C7.39519 7.79243 7.24812 7.74855 7.16628 7.7272C7.20305 7.69992 7.23745 7.67027 7.23982 7.66078C7.18645 7.63706 7.09275 7.71415 7.05835 7.68213C7.00616 7.63587 7.10342 7.5742 7.088 7.52675C7.07258 7.4805 6.97414 7.4805 6.93381 7.50303C6.91484 7.51371 6.83656 7.58013 6.83537 7.58368C6.90416 7.5825 6.89467 7.61215 6.88281 7.64655C6.86621 7.65366 6.8496 7.65959 6.833 7.66908C6.79267 7.68924 6.76065 7.72957 6.72151 7.75329C6.74879 7.7782 6.72981 7.79599 6.69897 7.83513C6.61713 7.93595 6.54597 7.94662 6.42618 7.97627C6.43567 8.04151 6.57088 7.98932 6.60527 7.97271Z"/>
</svg>
