<?xml version="1.0" encoding="UTF-8" standalone="no"?>
<!-- Created with Inkscape (http://www.inkscape.org/) -->

<svg
   width="24.030085"
   height="24"
   viewBox="0 0 6.3579598 6.35"
   version="1.1"
   id="svg59336"
   inkscape:version="1.2.1 (9c6d41e4, 2022-07-14)"
   sodipodi:docname="shoggoths.svg"
   xmlns:inkscape="http://www.inkscape.org/namespaces/inkscape"
   xmlns:sodipodi="http://sodipodi.sourceforge.net/DTD/sodipodi-0.dtd"
   xmlns="http://www.w3.org/2000/svg"
   xmlns:svg="http://www.w3.org/2000/svg">
  <sodipodi:namedview
     id="namedview59338"
     pagecolor="#505050"
     bordercolor="#eeeeee"
     borderopacity="1"
     inkscape:showpageshadow="0"
     inkscape:pageopacity="0"
     inkscape:pagecheckerboard="0"
     inkscape:deskcolor="#505050"
     inkscape:document-units="mm"
     showgrid="false"
     inkscape:zoom="0.7046647"
     inkscape:cx="-79.47042"
     inkscape:cy="56.055029"
     inkscape:window-width="1390"
     inkscape:window-height="941"
     inkscape:window-x="0"
     inkscape:window-y="25"
     inkscape:window-maximized="0"
     inkscape:current-layer="layer1" />
  <defs
     id="defs59333">
    <clipPath
       clipPathUnits="userSpaceOnUse"
       id="clipPath55261">
      <path
         d="m 188.526,456.4 h 24.699 v 24.699 h -24.699 z"
         id="path55259" />
    </clipPath>
  </defs>
  <g
     inkscape:label="Layer 1"
     inkscape:groupmode="layer"
     id="layer1"
     transform="translate(-125.9841,-133.87304)">
    <g
       id="g55255"
       transform="matrix(0.31381307,0,0,-0.31381307,65.916853,284.17694)">
      <g
         id="g55257"
         clip-path="url(#clipPath55261)">
        <g
           id="g55263"
           transform="translate(203.573,467.907)">
          <path
             d="M 0,0 C 0.016,0.055 0.157,0.054 0.204,0.04 0.243,0.029 0.299,-0.017 0.323,-0.053 0.39,-0.152 0.244,-0.17 0.17,-0.166 0.109,-0.163 0.125,-0.152 0.079,-0.119 0.05,-0.098 0.003,-0.101 -0.003,-0.06 l 0.027,0.053 z M 0.919,-0.373 C 0.849,-0.548 0.705,-0.65 0.544,-0.777 0.468,-0.838 0.371,-0.875 0.313,-0.947 0.264,-1.009 0.222,-1.084 0.184,-1.15 0.126,-1.249 0.067,-1.345 0.004,-1.443 -0.057,-1.537 -0.037,-1.598 -0.063,-1.69 c -0.011,-0.038 -0.039,-0.025 -0.039,-0.079 -0.001,-0.03 0.017,-0.046 0.026,-0.07 0.003,-0.008 0.005,-0.017 0.008,-0.025 0.064,-0.067 0.137,-0.129 0.205,-0.187 -0.163,0.086 -0.188,0.138 -0.205,0.187 -0.09,0.094 -0.164,0.197 -0.179,0.311 -0.017,0.126 -0.076,0.269 -0.046,0.4 0.004,0.019 0.011,0.034 0.02,0.047 -0.046,0.032 -0.097,0.077 -0.1,0.129 -0.001,0.023 0.024,0.065 0.032,0.088 0.01,0.032 0.013,0.049 0.018,0.086 0.01,0.059 0.048,0.102 0.056,0.159 0.017,0.131 0.003,0.283 -0.002,0.416 -0.005,-0.027 0.041,-0.086 0.057,-0.108 0.026,-0.035 0.054,-0.056 0.09,-0.082 0.038,-0.028 0.085,-0.049 0.125,-0.061 0.025,-0.007 0.053,0.003 0.076,-0.01 0.002,-0.001 0.003,-0.003 0.005,-0.005 0.005,0.015 0.01,0.026 0.014,0.028 0.04,0.02 0.133,-0.028 0.179,-0.033 l 0.392,0.316 c 0.023,0.091 0.037,0.133 -0.059,0.207 -0.211,0.161 -0.618,0.397 -0.842,0.123 -0.035,0.062 -0.01,0.156 -0.01,0.221 0,0.032 -0.01,0.074 -0.002,0.106 0.006,0.021 0.035,0.044 0.039,0.058 0.021,0.071 -0.003,0.146 0.014,0.219 0.01,0.039 0.051,0.096 0.046,0.141 -0.028,0.021 -0.04,0.045 -0.081,0.061 0.057,-0.01 0.078,-0.033 0.081,-0.061 0.003,-0.003 0.006,-0.005 0.01,-0.008 0.016,-0.01 0.05,-0.004 0.068,-0.013 C 0.037,0.817 0.139,0.796 0.25,0.752 0.426,0.682 0.547,0.541 0.656,0.421 0.72,0.35 0.749,0.28 0.799,0.207 0.837,0.152 0.865,0.1 0.893,0.04 0.921,-0.017 0.98,-0.113 0.98,-0.173 c 0,-0.061 -0.036,-0.14 -0.061,-0.2 m -1.49,2.812 C -0.611,2.448 -0.629,2.463 -0.68,2.463 -0.721,2.462 -0.787,2.476 -0.827,2.464 -0.858,2.454 -0.876,2.424 -0.901,2.403 -0.88,2.357 -0.876,2.319 -0.84,2.278 -0.82,2.255 -0.777,2.202 -0.745,2.2 -0.705,2.196 -0.687,2.235 -0.648,2.219 -0.674,2.184 -0.759,2.146 -0.799,2.117 -0.852,2.08 -0.897,2.033 -0.939,1.985 -0.99,1.928 -1.042,1.871 -1.092,1.814 -1.108,1.796 -1.134,1.775 -1.151,1.753 c 0.02,0.045 -0.006,0.107 0.005,0.153 0.008,0.033 0.024,0.041 0.029,0.078 0.003,0.022 10e-4,0.058 0,0.08 -0.005,0.071 -0.036,0.102 -0.007,0.166 0.026,0.058 0.033,0.088 0.033,0.153 0,0.06 -0.008,0.128 0.006,0.186 0.01,0.042 0.035,0.139 0.066,0.167 0.039,0.036 0.115,0.019 0.166,0.019 H -0.64 C -0.611,2.751 -0.589,2.732 -0.56,2.727 -0.539,2.723 -0.513,2.735 -0.493,2.73 -0.451,2.718 -0.424,2.685 -0.4,2.649 -0.37,2.603 -0.304,2.486 -0.37,2.44 -0.405,2.416 -0.53,2.429 -0.571,2.439 M -1.546,5.328 C -1.569,5.291 -1.606,5.309 -1.64,5.302 -1.732,5.285 -1.818,5.227 -1.901,5.184 -1.965,5.151 -2.009,5.135 -2.035,5.066 -2.059,5.001 -2.025,4.901 -2.096,4.857 -2.127,4.838 -2.202,4.845 -2.234,4.851 -2.308,4.865 -2.343,4.88 -2.425,4.879 c -0.175,-10e-4 -0.35,0 -0.524,0 -0.138,0 -0.297,0.022 -0.428,-0.033 -0.158,-0.066 -0.297,-0.235 -0.489,-0.205 -0.08,0.012 -0.148,0.064 -0.216,0.105 -0.102,0.009 -0.273,0.1 -0.204,0.08 0.044,-0.013 0.118,-0.034 0.161,-0.055 0.014,-0.007 0.028,-0.016 0.043,-0.025 0.02,-0.001 0.039,-0.001 0.051,0.006 0.056,0.032 0.102,0.088 0.146,0.134 0.073,0.076 0.106,0.175 0.16,0.266 0.04,0.067 0.063,0.169 0.117,0.226 0.069,0.072 0.272,0.221 0.34,0.086 0.048,-0.096 0.073,-0.247 0.192,-0.288 0.046,-0.016 0.13,-0.012 0.18,-0.006 0.052,0.007 0.139,0.029 0.188,0.054 0.04,0.021 0.083,0.056 0.079,0.106 -0.003,0.042 -0.025,0.081 -0.029,0.126 -0.003,0.045 -0.014,0.065 -0.024,0.103 -0.009,0.038 0.004,0.058 -0.027,0.091 -0.021,0.024 -0.065,0.042 -0.095,0.05 -0.064,0.017 -0.133,0.016 -0.197,0.032 -0.008,0.04 0.091,0.11 0.129,0.124 0.062,0.023 0.136,-0.01 0.199,0.008 0.108,0.029 0.211,0.075 0.334,0.077 0.102,0.08 0.23,0.077 0.358,0.079 0.104,0.002 0.158,0.052 0.24,0.107 C -1.67,6.175 -1.674,6.132 -1.675,6.06 -1.677,5.934 -1.681,5.805 -1.676,5.678 -1.672,5.575 -1.634,5.491 -1.579,5.409 -1.56,5.382 -1.519,5.374 -1.546,5.328 M -3.57,-2.36 c -0.027,-0.048 -0.043,-0.096 -0.069,-0.143 -0.048,-0.083 -0.099,-0.189 -0.179,-0.245 -0.033,-0.024 -0.124,-0.09 -0.165,-0.078 -0.043,0.013 -0.082,0.092 -0.122,0.122 -0.256,0.198 -0.585,0.266 -0.859,0.435 -0.111,0.068 -0.219,0.212 -0.356,0.218 -0.099,0.005 -0.219,-0.025 -0.312,0.023 -0.089,0.047 -0.109,0.15 -0.144,0.236 -0.011,0.025 -0.045,0.105 -0.069,0.128 -0.013,0.013 -0.025,0.006 -0.041,0.016 -0.072,0.043 -0.162,0.054 -0.234,0.098 -0.05,0.031 -0.079,0.091 -0.111,0.137 -0.044,0.063 -0.098,0.121 -0.134,0.188 -0.051,0.093 -0.081,0.189 -0.139,0.279 -0.084,0.13 0.002,0.31 -0.063,0.455 -0.023,0.052 -0.061,0.078 -0.091,0.126 -0.056,0.09 -0.035,0.211 -0.035,0.312 0,0.076 0.003,0.153 0,0.229 -0.002,0.076 -0.057,0.111 -0.074,0.189 -0.032,0.138 -0.102,0.323 -0.207,0.424 -0.109,0.107 -0.222,0.21 -0.33,0.319 -0.088,0.089 -0.139,0.21 -0.134,0.334 0.004,0.088 0.05,0.271 0.181,0.193 0.033,-0.019 0.051,-0.076 0.085,-0.096 0.012,-0.008 0.041,-0.012 0.054,-0.018 0.02,-0.01 0.032,-0.024 -0.045,0.006 0.065,-0.038 0.129,-0.041 0.204,-0.052 0.081,-0.012 0.154,-0.021 0.239,-0.021 0.078,0 0.162,0.012 0.235,-0.02 0.141,-0.06 0.271,-0.111 0.433,-0.113 0.047,-10e-4 0.094,0 0.14,0 0.044,0 0.13,-0.015 0.175,-10e-4 0.024,0.007 0.028,0.023 0.051,0.029 0.031,0.007 0.076,-10e-4 0.108,-0.002 0.093,0 0.181,0.011 0.27,-0.025 0.101,-0.04 0.206,-0.065 0.307,-0.107 C -5.066,1.171 -5.178,1.187 -5.246,1.187 -5.353,1.189 -5.441,1.198 -5.541,1.16 -5.665,1.113 -5.813,1.104 -5.908,1.002 -5.968,0.938 -5.981,0.813 -5.997,0.729 -6.007,0.679 -6.019,0.628 -6.027,0.579 -6.04,0.508 -6.026,0.437 -6.043,0.366 c -0.04,-0.168 0.014,-0.349 -0.019,-0.519 -0.019,-0.097 -0.041,-0.211 -0.017,-0.31 0.031,-0.131 0.159,-0.22 0.214,-0.341 0.034,-0.074 0.052,-0.194 0.107,-0.26 0.027,-0.032 0.068,-0.075 0.101,-0.106 0.044,-0.045 0.087,-0.056 0.147,-0.07 0.044,-0.011 0.144,-0.021 0.196,-0.046 0.043,-0.021 0.078,-0.064 0.127,-0.083 0.129,-0.052 0.271,-0.072 0.401,-0.118 0.034,-0.012 0.06,-0.027 0.095,-0.034 0.069,-0.013 0.153,10e-4 0.223,10e-4 0.081,0 0.17,-0.006 0.243,0.031 0.092,0.047 0.205,0.13 0.235,0.234 0.034,0.121 0.04,0.25 0.084,0.372 0.035,0.093 0.056,0.193 0.054,0.292 -0.001,0.038 0.014,0.057 0.02,0.084 0.012,0.055 0.006,0.113 0.006,0.17 0,0.068 -0.017,0.161 -10e-4,0.226 0.003,0.012 0.019,0.021 0.021,0.028 0.008,0.03 0.006,0.061 0.013,0.091 0.014,0.06 0.032,0.078 0.095,0.065 0.058,-0.25 0.143,-0.494 0.138,-0.756 -0.004,-0.243 10e-4,-0.486 0,-0.729 -10e-4,-0.114 0.015,-0.221 0.024,-0.334 0.009,-0.114 0.002,-0.231 0.002,-0.346 0,-0.11 0.013,-0.177 -0.036,-0.268 m -3.416,6.85 c 0.076,0.091 0.151,0.188 0.259,0.236 0.092,0.041 0.12,0.073 0.114,0.181 -0.004,0.06 -0.021,0.051 -0.055,0.091 -0.016,0.019 -0.038,0.039 -0.028,0.068 0.026,0.075 0.124,0.001 0.161,-0.026 0.049,-0.038 0.073,-0.074 0.133,-0.082 0.03,-0.004 0.063,0.002 0.094,10e-4 C -6.23,4.957 -6.175,4.908 -6.097,4.905 -5.994,4.901 -5.903,4.914 -5.813,4.879 -5.747,4.853 -5.652,4.845 -5.598,4.806 -5.55,4.772 -5.501,4.694 -5.498,4.64 -5.494,4.57 -5.506,4.515 -5.525,4.455 -5.549,4.373 -5.592,4.307 -5.632,4.234 -5.662,4.18 -5.679,4.123 -5.71,4.069 -5.736,4.021 -5.897,3.683 -5.897,3.604 -5.896,3.686 -5.959,3.686 -6.056,3.684 -6.182,3.682 -6.299,3.731 -6.423,3.758 -6.54,3.783 -6.654,3.821 -6.767,3.862 -6.816,3.88 -6.841,3.892 -6.893,3.896 -6.96,3.901 -6.969,3.931 -6.98,4.005 -6.987,4.054 -6.983,4.078 -7.009,4.113 -7.041,4.157 -7.104,4.179 -7.131,4.229 -7.194,4.341 -7.046,4.417 -6.986,4.49 m 2.18,-4.501 c 0.078,0.003 0.079,0.117 0.077,0.164 l 0.054,0.026 c -0.01,0.065 0.043,0.129 0.053,0.191 0.008,0.047 -0.005,0.162 0.047,0.182 C -4.539,0.44 -4.645,0.148 -4.5,0.1 c 0.058,-0.019 0.053,0.021 0.088,0.047 0.03,0.021 0.066,0.023 0.089,0.055 0.054,-0.01 0.054,-0.084 0.047,-0.129 -0.018,-0.113 -0.125,-0.159 -0.215,-0.202 -0.095,-0.045 -0.091,-0.106 10e-4,-0.137 0.06,-0.02 0.122,-0.054 0.184,-0.066 -0.011,-0.04 -0.094,-0.015 -0.131,-0.019 -0.07,-0.008 -0.054,-0.032 -0.053,-0.101 0.002,-0.08 -0.026,-0.15 -0.027,-0.23 0,-0.042 0.008,-0.199 -0.047,-0.201 -0.023,0.072 0.007,0.153 -0.008,0.226 -0.007,0.037 -0.021,0.059 -0.024,0.099 -0.004,0.057 0.013,0.084 -0.052,0.099 -0.208,0.05 -0.164,-0.26 -0.261,-0.362 -0.024,0.047 0.022,0.136 0.021,0.192 0,0.052 0.008,0.109 0.002,0.16 -0.006,0.042 -0.029,0.074 -0.033,0.116 -0.035,0.01 -0.06,-0.032 -0.079,-0.079 -0.005,-0.04 -0.015,-0.079 -0.038,-0.111 0.009,0.019 0.021,0.067 0.038,0.111 0.003,0.022 0.004,0.044 0.004,0.066 -0.001,0.054 0.021,0.156 -0.012,0.201 -0.021,0.029 -0.037,0.02 -0.067,0.026 -0.04,0.008 -0.086,0.013 -0.127,0.02 -0.066,0.013 -0.196,-0.029 -0.237,0.032 0.052,0.02 0.08,0.051 0.138,0.056 0.038,0.003 0.079,-0.001 0.118,-0.002 0.052,-0.001 0.195,-0.012 0.216,0.052 0.012,0.035 -0.062,0.135 -0.081,0.16 -0.044,0.055 -0.106,0.113 -0.123,0.183 0.074,-0.039 0.115,-0.135 0.168,-0.195 0.041,-0.047 0.123,-0.181 0.195,-0.178 m 0.076,7.285 c 0.042,0.074 0.049,0.134 0.074,0.211 0.046,0.144 0.002,0.288 0.1,0.408 0.064,0.078 0.125,0.163 0.225,0.192 0.154,0.044 0.31,0.074 0.465,0.11 0.143,0.034 0.298,-0.019 0.439,-0.023 0.104,-0.003 0.247,-0.077 0.34,-0.127 0.114,-0.062 0.246,-0.133 0.381,-0.14 0.108,-0.005 0.219,0 0.328,10e-4 0.044,0 0.087,-0.005 0.129,-0.011 0.014,0.006 0.029,0.011 0.044,0.012 0.054,0.005 0.09,-0.024 0.141,-0.029 -0.064,0 -0.124,0.01 -0.185,0.017 C -2.265,7.89 -2.28,7.884 -2.297,7.881 -2.319,7.878 -2.346,7.886 -2.367,7.881 -2.408,7.87 -2.449,7.822 -2.486,7.802 -2.538,7.774 -2.58,7.782 -2.64,7.77 -2.665,7.766 -2.685,7.749 -2.709,7.745 -2.75,7.739 -2.788,7.748 -2.83,7.74 -2.893,7.729 -2.946,7.714 -3.002,7.687 -3.122,7.628 -3.291,7.599 -3.35,7.462 -3.336,7.619 -3.342,7.82 -3.5,7.9 -3.671,7.987 -3.846,7.898 -4.006,7.845 -4.07,7.824 -4.141,7.792 -4.166,7.72 -4.183,7.668 -4.168,7.584 -4.139,7.539 -4.092,7.47 -4.051,7.498 -3.984,7.482 -3.951,7.475 -3.944,7.458 -3.906,7.454 -3.865,7.449 -3.83,7.468 -3.799,7.428 -3.721,7.409 -3.733,7.354 -3.772,7.294 -3.82,7.218 -3.915,7.248 -3.991,7.263 -4.13,7.289 -4.285,7.27 -4.426,7.269 -4.518,7.268 -4.573,7.227 -4.657,7.182 -4.699,7.159 -4.785,7.121 -4.824,7.086 c 0.02,0.063 0.062,0.13 0.094,0.188 M -8.068,6.355 C -8.079,6.297 -8.069,6.239 -8.073,6.18 -8.079,6.089 -8.102,5.931 -8.219,6.032 -8.257,6.065 -8.271,6.113 -8.3,6.153 -8.331,6.197 -8.362,6.205 -8.406,6.232 -8.462,6.266 -8.491,6.301 -8.553,6.326 -8.599,6.345 -8.632,6.359 -8.637,6.414 -8.651,6.418 -8.666,6.421 -8.68,6.423 c -0.011,0.04 0,0.068 0.009,0.102 0.008,0.031 0.014,0.077 0.032,0.108 0.035,0.059 0.104,0.113 0.114,0.184 V 6.737 C -8.44,6.739 -8.385,6.678 -8.312,6.636 -8.281,6.618 -8.222,6.612 -8.264,6.549 -8.288,6.515 -8.352,6.518 -8.387,6.492 -8.405,6.479 -8.45,6.441 -8.443,6.418 c 0.004,-0.013 0.084,-0.05 0.102,-0.054 0.034,-0.007 0.099,-0.003 0.135,0.001 0.049,0.005 0.059,0.038 0.105,0.049 0.074,0.018 0.04,-0.019 0.033,-0.059 M 7.875,-2.358 c -0.035,0.063 -0.017,0.112 0.011,0.168 0.062,0.123 0.197,0.22 0.211,0.363 0.009,0.1 -0.03,0.19 -0.109,0.25 C 7.96,-1.563 7.931,-1.555 7.9,-1.552 7.835,-1.526 7.779,-1.488 7.732,-1.438 7.676,-1.398 7.613,-1.368 7.548,-1.336 7.476,-1.301 7.397,-1.275 7.323,-1.242 7.264,-1.215 7.202,-1.168 7.137,-1.16 7.055,-1.15 6.983,-1.168 6.9,-1.135 6.805,-1.097 6.734,-1.013 6.642,-0.974 6.577,-0.946 6.491,-0.929 6.421,-0.922 6.293,-0.909 6.201,-0.977 6.078,-0.976 5.917,-0.975 5.777,-0.898 5.616,-0.896 5.491,-0.894 5.445,-0.871 5.352,-0.794 5.287,-0.74 5.223,-0.696 5.156,-0.647 5.097,-0.605 5.016,-0.554 5.01,-0.475 4.974,-0.458 4.953,-0.484 4.951,-0.516 4.904,-0.498 4.848,-0.484 4.814,-0.474 4.613,-0.415 4.397,-0.36 4.186,-0.37 4.03,-0.377 3.884,-0.392 3.726,-0.368 c -0.07,0.01 -0.14,0.02 -0.209,0.036 -0.14,0.031 -0.261,0.118 -0.376,0.198 C 3.07,-0.085 2.872,0.037 2.887,0.138 2.903,0.241 3.128,0.232 3.215,0.239 3.289,0.246 3.35,0.25 3.42,0.271 3.455,0.282 3.486,0.297 3.523,0.3 3.745,0.323 3.978,0.248 4.191,0.202 4.3,0.179 4.365,0.199 4.47,0.212 4.6,0.227 4.721,0.212 4.846,0.255 5.011,0.311 5.272,0.323 5.348,0.509 5.379,0.586 5.406,0.651 5.457,0.72 5.493,0.769 5.551,0.819 5.568,0.88 5.603,1.006 5.574,1.132 5.647,1.249 5.7,1.334 5.75,1.412 5.793,1.501 5.815,1.547 5.853,1.587 5.864,1.636 5.887,1.739 5.87,1.882 5.852,1.983 5.837,2.064 5.841,2.144 5.814,2.223 5.784,2.31 5.737,2.39 5.705,2.476 5.666,2.581 5.621,2.681 5.598,2.785 5.585,2.848 5.547,2.91 5.528,2.972 5.51,3.028 5.49,3.078 5.454,3.125 5.38,3.223 5.256,3.315 5.158,3.392 5.07,3.461 4.833,3.538 4.801,3.659 4.76,3.818 4.986,3.797 5.078,3.805 5.145,3.811 5.192,3.826 5.249,3.859 5.325,3.903 5.455,3.946 5.503,4.019 5.651,4.242 5.627,4.492 5.626,4.748 5.627,4.653 5.583,4.583 5.572,4.489 5.565,4.431 5.545,4.388 5.521,4.334 5.463,4.209 5.37,4.165 5.234,4.174 5.163,4.178 5.107,4.197 5.032,4.2 4.986,4.201 4.962,4.213 4.921,4.227 4.836,4.254 4.747,4.265 4.658,4.275 4.495,4.294 4.34,4.258 4.178,4.254 3.951,4.248 3.661,4.294 3.461,4.16 3.317,4.062 3.16,3.958 3.182,3.762 3.188,3.715 3.208,3.678 3.211,3.629 3.214,3.591 3.208,3.57 3.227,3.534 3.271,3.448 3.386,3.393 3.444,3.319 3.486,3.266 3.522,3.203 3.477,3.152 3.443,3.113 3.393,3.114 3.348,3.108 3.353,2.995 3.16,3.005 3.09,3.006 2.991,3.007 2.855,3.012 2.791,2.926 2.755,2.877 2.741,2.855 2.664,2.871 2.617,2.88 2.553,2.92 2.517,2.953 2.458,3.006 2.415,3.096 2.38,3.164 2.362,3.198 2.364,3.236 2.346,3.27 2.312,3.333 2.2,3.373 2.141,3.41 2.008,3.492 1.848,3.514 1.719,3.607 1.675,3.639 1.65,3.666 1.593,3.671 1.529,3.677 1.482,3.673 1.421,3.696 1.375,3.714 1.403,3.72 1.33,3.729 1.199,3.744 1.125,3.766 1.04,3.862 0.971,3.939 0.94,4.046 0.878,4.13 0.781,4.26 0.687,4.406 0.573,4.522 0.54,4.555 0.533,4.562 0.51,4.604 0.488,4.646 0.441,4.684 0.446,4.733 0.449,4.757 0.487,4.83 0.495,4.853 0.514,4.901 0.52,4.928 0.532,4.979 c 0.022,0.09 0.073,0.156 0.077,0.249 0.003,0.055 0.002,0.115 0,0.17 C 0.602,5.524 0.512,5.689 0.427,5.778 0.41,5.796 0.39,5.809 0.372,5.825 0.321,5.869 0.288,5.881 0.231,5.904 0.158,5.934 0.109,5.982 0.031,6.007 0.025,6.009 0.017,6.01 0.009,6.012 0.045,5.97 0.074,5.923 0.079,5.901 0.09,5.852 0.077,5.784 0.077,5.733 0.077,5.695 0.086,5.645 0.078,5.608 0.063,5.532 0.008,5.466 -0.05,5.421 -0.104,5.378 -0.139,5.37 -0.215,5.369 c -0.068,0 -0.116,0.023 -0.153,0.086 -0.017,0.029 -0.022,0.067 -0.039,0.098 -0.027,0.051 -0.032,0.086 -0.046,0.137 -0.018,0.064 -0.071,0.119 -0.106,0.177 -0.054,0.086 -0.122,0.136 -0.135,0.246 -0.006,0.05 0.014,0.087 0.022,0.134 0.007,0.038 0.001,0.072 0.004,0.11 0.009,0.089 0.073,0.158 0.115,0.232 0.049,0.088 0.115,0.182 0.189,0.252 0.102,0.097 0.213,0.142 0.351,0.149 C 0.082,6.994 0.189,6.98 0.282,6.963 0.33,6.954 0.382,6.936 0.422,6.906 0.482,6.86 0.524,6.789 0.585,6.74 0.613,6.717 0.741,6.545 0.796,6.566 0.86,6.591 0.79,6.704 0.857,6.744 0.894,6.766 0.984,6.75 1.026,6.75 1.146,6.751 1.264,6.747 1.381,6.718 1.381,6.591 1.378,6.463 1.378,6.336 1.378,6.27 1.379,6.204 1.378,6.138 1.378,6.114 1.371,6.081 1.377,6.058 1.382,6.037 1.398,6.035 1.403,6.017 1.414,5.967 1.412,5.923 1.431,5.874 1.444,5.841 1.464,5.711 1.49,5.696 1.531,5.672 1.584,5.731 1.592,5.767 1.603,5.812 1.59,5.88 1.59,5.927 1.592,6.035 1.555,6.175 1.511,6.27 1.473,6.354 1.435,6.472 1.463,6.564 1.475,6.604 1.499,6.651 1.517,6.689 1.556,6.777 1.553,6.843 1.57,6.935 1.578,6.983 1.588,7.022 1.591,7.071 1.592,7.084 1.583,7.105 1.586,7.118 1.606,7.212 1.717,7.253 1.75,7.331 1.787,7.417 1.785,7.529 1.8,7.619 1.817,7.731 1.831,7.838 1.83,7.951 1.829,8.063 1.824,8.177 1.829,8.289 1.832,8.354 1.863,8.375 1.891,8.427 1.91,8.464 1.924,8.531 1.935,8.568 1.951,8.623 1.943,8.683 1.962,8.739 1.976,8.782 1.998,8.823 2.01,8.868 2.023,8.923 2.048,8.973 2.063,9.028 2.11,9.199 2.259,9.384 2.175,9.566 2.153,9.614 2.111,9.666 2.08,9.713 2.049,9.76 2.014,9.811 1.978,9.856 1.945,9.896 1.9,9.925 1.868,9.968 1.836,10.012 1.824,10.054 1.802,10.099 1.786,10.13 1.764,10.157 1.755,10.194 1.73,10.3 1.733,10.458 1.856,10.487 1.95,10.509 2.051,10.47 2.12,10.414 2.232,10.322 2.386,10.292 2.468,10.161 2.499,10.113 2.539,10.047 2.548,9.99 2.562,9.908 2.546,9.804 2.546,9.721 2.546,9.624 2.526,9.5 2.545,9.405 2.556,9.35 2.586,9.299 2.599,9.245 2.609,9.202 2.624,9.173 2.626,9.127 2.631,9.033 2.627,8.936 2.626,8.841 2.626,8.773 2.638,8.751 2.654,8.695 2.672,8.629 2.634,8.547 2.651,8.48 c 0,0 0.022,-0.038 0.022,-0.038 C 2.687,8.369 2.699,8.292 2.706,8.217 2.713,8.14 2.747,8.05 2.734,7.971 2.724,7.914 2.711,7.866 2.707,7.807 2.703,7.747 2.681,7.689 2.672,7.63 2.663,7.56 2.664,7.485 2.646,7.418 2.625,7.343 2.626,7.292 2.626,7.21 2.626,7.094 2.611,6.989 2.602,6.875 2.594,6.783 2.587,6.676 2.598,6.584 2.608,6.503 2.626,6.441 2.626,6.357 2.625,6.212 2.626,6.068 2.626,5.923 2.626,5.815 2.649,5.668 2.614,5.567 2.572,5.449 2.491,5.349 2.491,5.216 2.491,5.146 2.51,4.999 2.57,4.961 2.624,4.926 2.755,4.926 2.81,4.965 2.854,4.996 2.873,5.132 2.886,5.172 2.901,5.215 2.917,5.253 2.921,5.299 2.925,5.351 2.925,5.421 2.919,5.473 2.913,5.532 2.873,5.58 2.864,5.634 c -0.007,0.04 0.001,0.09 0.001,0.132 0,0.103 -0.012,0.21 0.006,0.312 C 2.88,6.132 2.892,6.176 2.891,6.232 2.889,6.437 2.9,6.643 2.893,6.847 2.885,7.077 2.838,7.298 2.839,7.529 c 0,0.155 -0.007,0.304 -0.04,0.452 -0.042,0.188 -0.04,0.391 -0.04,0.585 0,0.189 0.004,0.38 10e-4,0.569 C 2.759,9.215 2.758,9.303 2.732,9.38 2.723,9.409 2.711,9.407 2.705,9.442 2.697,9.487 2.695,9.602 2.725,9.635 2.766,9.619 2.774,9.551 2.791,9.518 2.819,9.463 2.853,9.419 2.898,9.377 2.978,9.303 3.005,9.276 3.116,9.272 c 0.057,-0.002 0.114,0 0.171,0 0.071,0 0.172,-0.016 0.242,0.005 0.057,0.018 0.182,0.082 0.159,0.15 C 3.621,9.447 3.547,9.423 3.479,9.429 3.361,9.438 3.237,9.483 3.124,9.517 3.127,9.603 3.122,9.719 3.088,9.801 3.064,9.859 2.992,9.897 2.973,9.959 2.96,10 2.971,10.054 2.971,10.097 c 0,0.072 0,0.144 0,0.217 10e-4,0.16 -0.038,0.287 -0.114,0.428 -0.054,0.1 -0.129,0.146 -0.201,0.233 -0.067,0.081 -0.141,0.076 -0.248,0.077 -0.17,0.003 -0.339,0 -0.506,-0.022 C 1.862,11.025 1.816,11.033 1.776,11.026 1.748,11.02 1.728,11.003 1.7,10.996 1.637,10.981 1.575,11.008 1.51,10.981 1.464,10.961 1.412,10.916 1.378,10.88 1.346,10.844 1.341,10.823 1.32,10.771 1.293,10.709 1.269,10.645 1.248,10.58 1.242,10.553 1.242,10.525 1.247,10.498 1.236,10.466 1.209,10.453 1.197,10.421 1.181,10.382 1.193,10.328 1.192,10.287 1.191,10.217 1.195,10.187 1.239,10.127 1.265,10.091 1.285,10.068 1.294,10.022 1.317,9.896 1.22,9.769 1.196,9.649 1.175,9.538 1.192,9.413 1.192,9.3 c 0,-0.121 0,-0.241 0,-0.362 C 1.192,8.801 1.182,8.68 1.112,8.557 1.069,8.48 1.001,8.446 1.045,8.349 0.904,8.178 0.691,8.088 0.486,8.029 0.378,7.998 0.275,8.006 0.164,8 0.052,7.994 -0.057,7.949 -0.17,7.942 -0.254,7.937 -0.289,7.931 -0.375,7.891 -0.474,7.846 -0.511,7.828 -0.617,7.842 -0.746,7.859 -0.913,7.886 -1.026,7.956 -1.129,8.019 -1.22,8.108 -1.312,8.185 -1.374,8.236 -1.424,8.274 -1.47,8.337 -1.544,8.438 -1.597,8.558 -1.675,8.655 -1.743,8.74 -1.8,8.768 -1.909,8.768 -2.015,8.769 -2.139,8.761 -2.243,8.735 -2.296,8.805 -2.355,8.87 -2.42,8.93 -2.482,9.027 -2.566,9.075 -2.672,9.074 -2.755,9.012 -2.835,8.948 -2.914,8.882 -2.953,8.837 -3,8.808 -3.055,8.795 -3.158,8.778 -3.278,8.794 -3.385,8.794 c -0.121,0 -0.242,0 -0.363,0 -0.104,0 -0.29,0.023 -0.402,-0.005 C -4.275,8.759 -4.433,8.678 -4.523,8.584 -4.623,8.479 -4.631,8.316 -4.715,8.205 -4.797,8.097 -4.938,8.03 -5.026,7.922 -5.063,7.876 -5.094,7.824 -5.127,7.774 -5.236,7.607 -5.277,7.359 -5.287,7.156 -5.291,7.078 -5.305,7.009 -5.314,6.933 -5.317,6.906 -5.308,6.88 -5.314,6.852 -5.339,6.735 -5.561,6.605 -5.684,6.589 -5.778,6.577 -5.833,6.611 -5.892,6.512 -5.905,6.49 -5.932,6.43 -5.927,6.402 -5.919,6.352 -5.836,6.348 -5.839,6.277 -5.842,6.196 -5.937,6.141 -6,6.12 -6.107,6.084 -6.222,6.031 -6.322,5.98 -6.381,5.95 -6.443,5.885 -6.507,5.872 -6.589,5.856 -6.656,5.885 -6.741,5.848 -6.774,5.834 -6.824,5.814 -6.853,5.796 -6.91,5.761 -6.927,5.703 -6.945,5.639 -7.02,5.74 -7.073,5.854 -7.131,5.966 c -0.025,0.047 -0.048,0.071 -0.036,0.12 -0.198,0.088 -0.477,0.061 -0.618,0.259 -0.022,0.031 -0.035,0.07 -0.049,0.105 -0.019,0.047 -0.048,0.074 -0.069,0.112 -0.035,0.063 -0.012,0.186 -0.012,0.259 0.001,0.098 0,0.191 -0.092,0.245 -0.016,0.01 -0.035,0.006 -0.052,0.018 C -8.07,7.092 -8.071,7.109 -8.08,7.116 -8.143,7.159 -8.225,7.167 -8.294,7.199 -8.383,7.24 -8.425,7.292 -8.487,7.359 -8.535,7.411 -8.573,7.413 -8.643,7.415 -8.726,7.417 -8.97,7.429 -9.005,7.336 -9.03,7.271 -9.001,7.142 -8.98,7.081 -8.923,6.917 -8.948,6.755 -9.029,6.599 -9.064,6.53 -9.131,6.485 -9.181,6.428 -9.256,6.343 -9.269,6.222 -9.218,6.117 -9.181,6.043 -9.114,5.987 -9.108,5.903 -9.105,5.849 -9.121,5.798 -9.13,5.746 -9.141,5.685 -9.136,5.622 -9.136,5.559 -9.136,5.482 -9.131,5.403 -9.135,5.326 -9.141,5.223 -9.191,5.173 -9.241,5.09 -9.258,5.06 -9.261,5.023 -9.28,4.996 -9.291,4.981 -9.316,4.972 -9.329,4.957 -9.348,4.938 -9.374,4.903 -9.386,4.878 -9.406,4.836 -9.415,4.752 -9.397,4.705 c 0.02,-0.054 0.106,-0.172 0.159,-0.189 0.064,-0.02 0.157,-0.003 0.198,0.04 0.044,0.045 0.062,0.09 0.05,0.149 -0.003,0.016 -0.008,0.05 -0.013,0.067 -0.006,0.024 -0.023,0.041 -0.028,0.065 -0.007,0.026 -0.006,0.056 -0.012,0.083 -0.008,0.034 -0.023,0.067 -0.015,0.105 0.013,0.06 0.028,0.099 0.028,0.164 0,0.041 -0.007,0.087 0,0.127 0.004,0.027 0.015,0.038 0.021,0.059 0.009,0.03 0.006,0.056 0.02,0.085 0.022,0.048 0.062,0.101 0.093,0.143 0.018,0.025 0.042,0.046 0.052,0.073 0.004,0.013 -0.005,0.029 -0.001,0.039 0.008,0.02 0.025,0.05 0.043,0.063 0.043,0.03 0.118,0.065 0.171,0.07 0.112,0.011 0.224,-0.023 0.335,-0.028 0.051,-0.002 0.1,-0.021 0.142,-0.051 C -8.103,5.733 -8.022,5.67 -7.999,5.61 -7.972,5.537 -7.987,5.396 -8.02,5.327 -8.06,5.244 -8.114,5.168 -8.18,5.103 -8.245,5.039 -8.298,4.996 -8.337,4.915 -8.386,4.813 -8.447,4.717 -8.523,4.633 -8.641,4.502 -8.747,4.366 -8.856,4.226 -8.929,4.134 -9.072,4.025 -9.085,3.908 -9.089,3.868 -9.072,3.823 -9.079,3.784 -9.09,3.724 -9.148,3.688 -9.183,3.642 -9.285,3.51 -9.42,3.434 -9.562,3.348 -9.695,3.266 -9.792,3.186 -9.897,3.074 -9.933,3.036 -9.943,3.032 -9.96,2.979 -9.968,2.952 -9.97,2.929 -9.992,2.909 c -0.031,0.01 -0.042,0.032 -0.065,0.05 -0.034,0.026 -0.067,0.039 -0.096,0.072 -0.059,0.068 -0.076,0.153 -0.143,0.218 -0.062,0.059 -0.096,0.126 -0.146,0.194 -0.031,0.044 -0.062,0.087 -0.095,0.13 -0.036,0.028 -0.07,0.057 -0.102,0.089 -0.015,0.031 -0.028,0.062 -0.042,0.093 -0.021,0.042 -0.047,0.081 -0.078,0.117 -0.023,0.038 -0.023,0.074 -0.036,0.117 -0.024,0.079 -0.081,0.125 -0.067,0.213 0.006,0.041 0.013,0.036 0.03,0.067 0.032,0.024 0.056,0.056 0.073,0.093 0.026,0.062 0.061,0.118 0.107,0.168 0.094,0.114 0.174,0.212 0.21,0.359 0.015,0.061 0.033,0.104 0.058,0.161 0.017,0.039 0.026,0.073 0.058,0.1 0.026,0.021 0.062,0.024 0.086,0.048 0.045,0.045 0.041,0.119 0.043,0.177 0.002,0.071 0.01,0.168 -0.003,0.24 -0.016,0.091 -0.08,0.178 -0.105,0.261 -0.009,0.027 -0.019,0.053 -0.027,0.082 -0.017,0.063 -0.008,0.087 -0.043,0.151 -0.044,0.085 -0.07,0.123 -0.143,0.163 -0.045,0.025 -0.034,0.026 -0.063,0.082 -0.055,0.085 -0.115,0.167 -0.18,0.244 -0.03,0.031 -0.054,0.066 -0.071,0.105 -0.037,0.029 -0.084,0.047 -0.132,0.065 -0.104,0.038 -0.193,0.116 -0.302,0.114 -0.084,-10e-4 -0.155,0.007 -0.233,0.026 -0.076,0.019 -0.132,0.028 -0.213,0.028 -0.097,-0.04 0.031,-0.121 0.124,-0.172 0.09,-0.05 0.341,-0.128 0.302,-0.266 -0.014,-0.051 -0.066,-0.107 -0.094,-0.153 -0.049,-0.079 -0.088,-0.168 -0.11,-0.259 -0.031,-0.129 0.162,-0.418 0.276,-0.239 -0.062,0.163 -0.015,0.372 0.033,0.531 0.019,-0.056 0.044,-0.138 0.092,-0.178 0.048,-0.042 0.108,-0.033 0.162,-0.058 0.113,-0.053 0.124,-0.152 0.161,-0.257 0.021,-0.058 0.037,-0.101 0.039,-0.163 10e-4,-0.035 0.017,-0.153 -10e-4,-0.193 -0.028,-0.061 -0.15,-0.148 -0.203,-0.181 -0.094,-0.06 -0.202,-0.103 -0.304,-0.15 -0.126,-0.058 -0.282,-0.096 -0.386,-0.194 -0.042,-0.04 -0.034,-0.042 -0.057,-0.09 -0.052,-0.106 -0.133,-0.195 -0.192,-0.297 -0.083,-0.141 -0.178,-0.28 -0.253,-0.426 -0.035,-0.066 -0.059,-0.106 -0.016,-0.176 0.043,-0.069 0.15,-0.12 0.222,-0.156 -0.045,-0.145 -0.245,-0.229 -0.207,-0.39 0.043,-0.179 0.084,-0.352 0.091,-0.537 0.174,-0.063 0.328,-0.193 0.469,-0.31 -0.025,-0.124 -0.044,-0.252 -0.094,-0.368 -0.068,-0.16 -0.069,-0.275 -0.026,-0.438 -0.013,0.06 0.073,0.108 0.122,0.121 0.082,0.021 0.169,-0.031 0.227,-0.084 0.079,-0.073 0.066,-0.134 0.081,-0.229 0.006,-0.04 0.013,-0.101 0.045,-0.128 0.021,-0.002 0.04,-0.009 0.057,-0.02 0.017,-0.042 0.025,-0.084 0.024,-0.129 0.007,-0.108 0.006,-0.139 -0.054,-0.232 -0.035,-0.054 -0.179,-0.222 -0.168,-0.305 0.006,-0.041 0.071,-0.132 0.115,-0.14 0.018,-0.146 -0.112,-0.242 -0.151,-0.367 -0.014,-0.045 -0.007,-0.078 -0.007,-0.126 0.001,-0.104 0.013,-0.217 -0.016,-0.318 -0.047,-0.168 -0.215,-0.279 -0.259,-0.445 -0.029,-0.11 -0.009,-0.188 0.062,-0.28 0.029,-0.038 0.079,-0.068 0.119,-0.095 0.071,-0.045 0.146,-0.081 0.227,-0.107 0.03,-0.018 0.061,-0.035 0.092,-0.052 0.05,-0.071 0.018,-0.218 0.012,-0.299 -0.006,-0.069 -0.025,-0.138 -0.027,-0.207 -0.003,-0.102 0.011,-0.265 0.048,-0.361 0.028,-0.073 0.074,-0.143 0.149,-0.176 0.106,-0.046 0.116,0.042 0.21,0.07 0.08,0.025 0.259,-0.017 0.344,-0.033 0.091,-10e-4 0.163,-0.038 0.218,-0.109 0.056,-0.061 0.118,-0.115 0.186,-0.163 0.048,-0.029 0.091,-0.034 0.139,-0.058 0.06,-0.031 0.089,-0.081 0.134,-0.132 0.057,-0.064 0.117,-0.127 0.168,-0.197 0.069,-0.097 0.153,-0.234 0.175,-0.351 0.015,-0.081 -0.016,-0.237 -0.041,-0.319 -0.04,-0.133 -0.087,-0.272 -0.156,-0.386 -0.084,-0.14 -0.249,-0.216 -0.375,-0.311 -0.031,-0.023 -0.102,-0.073 -0.113,-0.115 -0.008,-0.034 0.031,-0.15 0.037,-0.179 0.012,-0.058 0.034,-0.114 0.043,-0.171 0.009,-0.054 -0.002,-0.107 0.01,-0.158 0.024,-0.1 0.029,-0.183 0.012,-0.292 -0.016,-0.103 -0.035,-0.238 -0.122,-0.309 -0.034,-0.028 -0.068,-0.045 -0.101,-0.077 -0.086,-0.082 -0.126,-0.153 -0.105,-0.271 0.007,-0.038 0.058,-0.161 0.047,-0.211 -0.01,-0.046 -0.057,-0.09 -0.076,-0.13 -0.038,-0.076 -0.041,-0.163 -0.053,-0.246 -0.015,-0.106 0.005,-0.239 0.08,-0.321 0.124,-0.133 0.326,-0.19 0.464,-0.308 0.055,-0.048 0.077,-0.078 0.147,-0.093 0.034,-0.007 0.069,0.006 0.106,-0.002 0.051,-0.011 0.214,-0.104 0.257,-0.034 0.036,0.06 -0.05,0.105 -0.086,0.135 -0.037,0.031 -0.078,0.066 -0.117,0.092 -0.047,0.031 -0.115,0.024 -0.155,0.053 -0.07,0.049 -0.097,0.174 -0.137,0.244 -0.038,0.065 -0.069,0.142 -0.082,0.218 -0.015,0.088 0.008,0.206 0.051,0.286 0.062,0.112 0.222,0.143 0.274,0.262 0.023,0.054 0.01,0.101 0.015,0.155 0.02,0.23 0.065,0.425 0.241,0.585 0.083,0.076 0.098,0.136 0.102,0.249 0.002,0.072 0.003,0.133 0.04,0.196 0.069,0.119 0.106,0.223 0.14,0.354 0.02,0.076 0.049,0.084 0.104,0.134 0.087,0.079 0.148,0.144 0.264,0.187 0.066,0.025 0.133,0.046 0.203,0.051 0.068,0.005 0.132,0.002 0.192,0.044 0.169,0.118 0.027,0.414 -0.024,0.555 -0.033,0.092 -0.05,0.187 -0.092,0.275 -0.047,0.097 -0.118,0.178 -0.187,0.259 -0.083,0.099 -0.211,0.199 -0.267,0.318 -0.041,0.087 -0.024,0.192 -0.051,0.284 -0.004,0.016 -0.054,0.109 -0.053,0.134 0.098,-0.084 0.228,-0.115 0.335,-0.187 0.079,-0.053 0.154,-0.134 0.201,-0.218 0.117,-0.211 0.137,-0.478 0.308,-0.66 0.058,-0.061 0.121,-0.127 0.188,-0.177 0.075,-0.056 0.158,-0.072 0.247,-0.104 0.098,-0.035 0.191,-0.062 0.268,-0.135 0.103,-0.097 0.222,-0.176 0.326,-0.273 0.056,-0.051 0.11,-0.074 0.178,-0.107 0.09,-0.038 0.174,-0.086 0.253,-0.142 0.026,-0.037 0.051,-0.075 0.077,-0.112 0.074,-0.106 0.146,-0.15 0.271,-0.156 0.132,-0.005 0.303,0 0.418,-0.069 0.172,-0.103 0.176,-0.294 0.17,-0.47 -0.003,-0.086 -0.019,-0.144 -0.035,-0.222 -0.017,-0.076 -0.008,-0.162 -0.034,-0.234 -0.039,-0.105 -0.123,-0.158 -0.225,-0.089 -0.216,0.145 -0.169,0.483 -0.437,0.567 -0.13,0.04 -0.233,0.198 -0.384,0.177 -0.076,-0.011 -0.157,-0.063 -0.213,-0.11 -0.076,-0.064 -0.244,-0.088 -0.246,-0.214 -0.001,-0.051 0.067,-0.177 0.119,-0.202 0.037,0.032 0.009,0.084 0.031,0.123 0.02,0.036 0.07,0.085 0.099,0.114 0.158,0.157 0.51,-0.084 0.623,-0.178 -0.019,-0.091 -0.055,-0.171 -0.078,-0.261 -0.028,-0.108 -0.015,-0.19 0.017,-0.294 0.036,-0.117 0.119,-0.146 0.212,-0.218 0.1,-0.075 0.143,-0.119 0.269,-0.119 0.098,0 0.191,0.001 0.287,0.026 0.116,0.03 0.177,0.082 0.266,0.159 0.096,0.083 0.148,0.171 0.154,0.296 0.005,0.097 0.03,0.171 0.071,0.26 0.093,0.206 0.139,0.514 0.045,0.731 -0.076,0.172 -0.132,0.356 -0.214,0.526 -0.067,0.14 -0.178,0.244 -0.272,0.365 -0.056,0.072 -0.102,0.172 -0.176,0.226 -0.039,0.029 -0.091,0.04 -0.135,0.06 -0.075,0.035 -0.128,0.092 -0.174,0.159 -0.039,0.057 -0.062,0.126 -0.101,0.183 -0.038,0.055 -0.095,0.084 -0.141,0.129 -0.058,0.06 -0.107,0.104 -0.173,0.133 0.033,-0.011 0.066,-0.02 0.101,-0.027 0.045,-0.009 0.093,-0.01 0.136,-0.028 0.147,-0.061 0.279,-0.171 0.421,-0.245 0.125,-0.064 0.248,-0.133 0.342,-0.238 0.05,-0.056 0.102,-0.127 0.13,-0.198 0.016,-0.041 0.009,-0.079 0.022,-0.119 0.029,-0.087 0.188,-0.139 0.265,-0.189 0.065,-0.041 0.129,-0.109 0.2,-0.139 0.024,-0.01 0.04,10e-4 0.064,-0.013 0.022,-0.013 0.035,-0.041 0.046,-0.064 0.041,-0.09 0.023,-0.086 0.121,-0.134 0.042,-0.02 0.365,-0.186 0.336,-0.228 0.228,-0.063 0.454,-0.126 0.684,-0.183 0.103,-0.025 0.205,-0.049 0.295,-0.11 0.063,-0.04 0.112,-0.091 0.148,-0.155 0.008,-0.013 0.016,-0.026 0.024,-0.038 0.047,-0.034 0.146,-0.041 0.205,-0.065 0.158,-0.064 0.327,-0.078 0.491,-0.121 0.141,-0.037 0.281,-0.086 0.424,-0.114 0.083,-0.017 0.159,-0.022 0.243,-0.021 0.033,0 0.069,0.01 0.097,-0.011 0.018,-0.034 0.037,-0.067 0.055,-0.1 0.038,-0.097 0.082,-0.19 0.132,-0.281 0.023,-0.023 0.055,-0.04 0.083,-0.054 0.081,-0.041 0.152,-0.04 0.198,-0.12 0.052,-0.094 0.08,-0.201 0.136,-0.291 0.066,-0.106 0.13,-0.212 0.191,-0.321 0.041,-0.073 0.087,-0.19 0.159,-0.241 0.077,-0.054 0.232,-0.058 0.318,-0.079 0.089,-0.022 0.167,-0.051 0.25,-0.092 0.081,-0.04 0.189,-0.094 0.214,-0.188 0.004,-0.012 -0.007,-0.15 -0.006,-0.118 -0.002,-0.109 -0.015,-0.2 0.102,-0.25 0.019,-0.009 0.168,-0.023 0.123,-0.016 0.09,-0.015 0.198,-0.04 0.286,-0.07 C 0.54,-7.406 0.544,-7.436 0.581,-7.512 0.632,-7.618 0.648,-7.681 0.588,-7.79 0.558,-7.845 0.502,-7.879 0.461,-7.933 0.415,-7.994 0.376,-8.065 0.31,-8.108 c -0.22,-0.141 -0.419,-0.077 -0.66,0 -0.075,0.024 -0.14,0.055 -0.215,0.074 -0.038,0.01 -0.084,0.03 -0.116,0.052 -0.039,0.028 -0.055,0.074 -0.091,0.104 -0.038,0.033 -0.093,0.058 -0.134,0.087 -0.075,0.052 -0.15,0.114 -0.233,0.153 -0.117,0.054 -0.269,0.057 -0.374,0.136 -0.081,0.061 -0.168,0.172 -0.23,0.254 -0.028,0.036 -0.051,0.074 -0.083,0.107 -0.063,0.064 -0.087,0.043 -0.158,0.076 -0.058,0.027 -0.059,0.113 -0.107,0.161 -0.064,0.065 -0.134,0.085 -0.22,0.086 C -2.448,-6.815 -2.589,-6.826 -2.724,-6.85 -2.767,-6.858 -2.806,-6.884 -2.845,-6.893 -2.891,-6.904 -2.936,-6.895 -2.982,-6.9 -3.188,-6.922 -3.381,-7 -3.573,-7.071 -3.679,-7.11 -3.797,-7.119 -3.906,-7.15 c -0.1,-0.029 -0.135,-0.048 -0.193,-0.133 -0.024,-0.036 -0.044,-0.076 -0.07,-0.111 -0.033,-0.044 -0.086,-0.079 -0.106,-0.134 -0.02,-0.056 -0.016,-0.172 0.017,-0.219 0.03,-0.044 0.063,-0.04 0.108,-0.051 0.063,-0.017 0.121,-0.038 0.18,-0.067 0.086,-0.043 0.174,-0.1 0.247,-0.163 0.067,-0.058 0.118,-0.131 0.186,-0.188 0.031,-0.027 0.066,-0.031 0.081,-0.074 0.018,-0.055 -0.025,-0.126 -0.072,-0.157 -0.05,-0.032 -0.125,-0.026 -0.183,-0.007 -0.144,0.047 -0.296,0.118 -0.433,0.182 0.033,-0.024 0.052,-0.06 0.084,-0.086 0.033,-0.027 0.075,-0.049 0.11,-0.073 0.13,-0.09 0.239,-0.175 0.391,-0.22 0.13,-0.039 0.353,-0.059 0.478,-0.006 0.122,0.051 0.209,0.149 0.212,0.284 0.004,0.217 0.016,0.417 -0.176,0.559 -0.113,0.083 -0.634,0.22 -0.356,0.414 0.052,0.036 0.101,0.025 0.164,0.024 0.042,0 0.114,0.018 0.153,0.006 0.038,-0.012 0.102,-0.074 0.123,-0.087 0.114,-0.074 0.251,-0.111 0.367,-0.185 0.098,-0.062 0.187,-0.126 0.289,-0.184 0.124,-0.07 0.175,-0.151 0.252,-0.266 0.073,-0.109 0.137,-0.216 0.178,-0.339 0.041,-0.12 0.112,-0.234 0.181,-0.34 0.054,-0.082 0.121,-0.199 0.216,-0.243 0.067,-0.03 0.145,-0.045 0.216,-0.059 0.123,-0.025 0.276,-0.051 0.401,-0.026 0.039,0.008 0.069,0.028 0.11,0.028 0.1,0 0.212,-0.053 0.312,-0.065 0.177,-0.021 0.344,-0.046 0.522,-0.045 0.066,0 0.132,0 0.198,-0.001 0.073,0 0.05,0.009 0.092,0.02 0.077,0.021 0.138,0.035 0.219,0.034 0.044,-10e-4 0.092,-0.004 0.136,-0.002 0.067,0.003 0.119,0.031 0.183,0.049 0.179,0.048 0.445,0.024 0.553,0.202 0.124,0.205 0.19,0.448 0.287,0.667 0.095,0.215 0.078,0.481 0.078,0.71 0.001,0.097 0.004,0.168 -0.033,0.253 -0.024,0.054 -0.039,0.117 -0.046,0.177 -0.017,0.138 -0.045,0.261 -0.167,0.345 -0.08,0.056 -0.15,0.077 -0.191,0.169 -0.036,0.081 -0.075,0.177 -0.068,0.268 0.006,0.084 0.03,0.159 0.029,0.245 -10e-4,0.092 -0.046,0.096 -0.091,0.17 -0.024,0.041 -0.011,0.041 -0.022,0.077 -0.036,0.115 -0.083,0.209 -0.164,0.302 -0.101,0.118 -0.229,0.188 -0.363,0.259 -0.081,0.043 -0.155,0.081 -0.248,0.089 -0.057,0.005 -0.114,-0.002 -0.171,0.004 0.063,0.058 0.076,0.153 0.128,0.22 0.053,-0.01 0.106,-0.007 0.159,-0.015 0.06,-0.009 0.106,-0.031 0.169,-0.018 0.064,0.013 0.088,0.041 0.14,0.09 0.078,0.061 0.137,0.135 0.18,0.222 -0.007,0.027 -0.009,0.054 -0.007,0.082 0.049,0.015 0.083,-0.011 0.126,-0.031 0.14,-0.066 0.325,-0.049 0.474,-0.029 0.11,0.015 0.228,0.056 0.313,0.129 0.104,0.089 0.142,0.242 0.244,0.336 0.024,0.022 0.082,0.083 0.119,0.08 0.013,-10e-4 0.013,-0.02 0.022,-0.023 0.051,-0.02 0.107,-0.06 0.162,-0.06 0.066,0 0.026,0.025 0.092,0.045 0.048,0.014 0.102,-0.034 0.132,-0.063 0.064,-0.063 0.085,-0.095 0.165,-0.141 0.117,-0.065 0.24,-0.15 0.365,-0.195 0.059,-0.022 0.12,-0.024 0.18,-0.038 0.073,-0.017 0.132,-0.046 0.194,-0.087 0.048,-0.031 0.085,-0.079 0.133,-0.109 0.08,-0.052 0.2,-0.059 0.288,-0.038 0.146,0.034 0.312,0.014 0.459,0.014 C 4.602,-4.772 4.67,-4.778 4.74,-4.787 4.833,-4.798 4.928,-4.79 5.02,-4.803 5.161,-4.825 5.276,-4.927 5.404,-4.981 5.425,-4.99 5.47,-4.991 5.485,-5.009 5.514,-5.045 5.49,-5.086 5.47,-5.119 5.405,-5.225 5.272,-5.241 5.159,-5.264 4.975,-5.303 4.786,-5.342 4.6,-5.359 4.726,-5.332 4.865,-5.43 4.992,-5.438 5.07,-5.443 5.139,-5.449 5.215,-5.462 c 0.045,-0.007 0.069,-0.001 0.109,0.013 0.148,0.054 0.315,0.047 0.409,0.19 0.036,0.055 0.107,0.102 0.13,0.159 0.019,0.049 0.015,0.153 0,0.203 -0.009,0.033 -0.038,0.073 -0.051,0.108 -0.024,0.061 -0.016,0.13 -0.041,0.187 -0.042,0.091 -0.111,0.194 -0.211,0.215 -0.186,0.039 -0.373,0.07 -0.561,0.094 -0.087,0.011 -0.122,0.038 -0.183,0.098 -0.042,0.042 -0.083,0.053 -0.145,0.073 -0.126,0.038 -0.24,0.028 -0.368,0.044 -0.249,0.029 -0.52,0.058 -0.749,0.167 -0.165,0.08 -0.282,0.202 -0.428,0.31 -0.03,0.022 -0.059,0.033 -0.092,0.048 -0.087,0.04 -0.162,0.096 -0.245,0.143 -0.063,0.035 -0.14,0.046 -0.168,0.112 -0.014,0.031 -0.024,0.073 -0.035,0.105 -0.023,0.067 -0.065,0.112 -0.067,0.183 -0.004,0.119 0.054,0.227 0.175,0.263 0.128,0.038 0.341,0.035 0.473,0.019 0.083,-0.01 0.187,-0.067 0.258,-0.114 0.062,-0.042 0.141,-0.112 0.156,-0.19 0.017,-0.087 -0.05,-0.14 -0.068,-0.215 -0.015,-0.065 0.059,-0.081 0.018,-0.14 0.082,-0.039 0.207,0.104 0.263,0.154 0.041,0.036 0.107,0.06 0.129,0.11 0.018,0.041 0.014,0.15 0.005,0.194 -0.021,0.106 -0.102,0.224 -0.175,0.306 -0.096,0.106 -0.248,0.154 -0.381,0.197 -0.101,0.032 -0.18,0.105 -0.28,0.141 -0.057,0.02 -0.133,0.007 -0.194,0.007 -0.081,0 -0.161,0 -0.242,0 C 2.599,-2.277 2.544,-2.268 2.493,-2.297 2.442,-2.324 2.415,-2.369 2.362,-2.397 2.288,-2.436 2.245,-2.464 2.2,-2.537 2.168,-2.59 2.147,-2.643 2.133,-2.704 2.116,-2.782 2.127,-2.838 2.152,-2.902 c -0.036,0.046 -0.076,0.09 -0.121,0.13 -0.085,0.084 -0.167,0.171 -0.245,0.262 -0.11,0.124 -0.244,0.203 -0.369,0.307 0.063,-0.002 0.123,10e-4 0.145,0.007 0.102,0.025 0.202,0.082 0.301,0.12 0.097,0.037 0.202,0.081 0.285,0.145 0.046,0.036 0.079,0.092 0.127,0.125 0.06,0.04 0.206,0.066 0.266,0.081 0.069,0.021 0.141,0.033 0.213,0.036 0.023,-0.006 0.044,-0.018 0.061,-0.036 0.114,-0.055 0.246,-0.045 0.353,-0.107 0.063,-0.037 0.109,-0.076 0.18,-0.102 0.076,-0.027 0.159,-0.032 0.238,-0.046 0.037,-0.007 0.069,-0.01 0.106,-0.022 0.11,-0.036 0.261,-0.057 0.363,-0.114 0.083,-0.047 0.144,-0.127 0.227,-0.165 0.051,-0.017 0.094,-0.047 0.126,-0.09 0.047,-0.041 0.102,-0.066 0.164,-0.075 0.078,-0.026 0.15,-0.063 0.229,-0.082 0.155,-0.038 0.289,0.01 0.421,0.091 0.158,0.098 0.342,0.129 0.506,0.212 0.075,0.038 0.141,0.082 0.211,0.127 0.05,0.031 0.099,0.081 0.153,0.107 0.153,0.074 0.335,0.087 0.502,0.087 0.134,0 0.261,-0.032 0.39,-0.069 0.094,-0.026 0.144,-0.023 0.158,-0.118 0.004,-0.033 0.008,-0.094 0,-0.128 C 7.126,-2.292 7.068,-2.331 7.019,-2.385 6.933,-2.478 6.843,-2.568 6.711,-2.594 6.576,-2.62 6.373,-2.609 6.246,-2.575 6.348,-2.655 6.518,-2.67 6.589,-2.788 6.62,-2.839 6.636,-2.874 6.693,-2.891 c 0.062,-0.019 0.133,0.01 0.188,0.029 0.047,0.017 0.083,0.013 0.128,0.025 0.057,0.016 0.107,0.049 0.169,0.062 0.231,0.048 0.481,0.079 0.699,0.172 0.103,0.044 0.104,0.05 0.06,0.147 -0.017,0.037 -0.042,0.064 -0.062,0.098"
             style="fill:#100f0d;fill-opacity:1;fill-rule:nonzero;stroke:none"
             id="path55265" />
        </g>
        <g
           id="g55267"
           transform="translate(196.942,472.481)">
          <path
             d="m 0,0 c 0.049,-0.045 0.067,-0.094 0.129,-0.063 0.002,0.001 0.004,0.004 0.006,0.005 C 0.129,-0.053 0.122,-0.047 0.11,-0.041 0.089,-0.029 0.025,0.002 0,0"
             style="fill:#100f0d;fill-opacity:1;fill-rule:nonzero;stroke:none"
             id="path55269" />
        </g>
        <g
           id="g55271"
           transform="translate(197.354,472.46)">
          <path
             d="m 0,0 c -0.006,0.003 -0.013,0.008 -0.024,0.019 -0.015,0.017 -0.033,0.055 -0.026,0.08 z m -0.374,-0.222 c 0.008,-0.041 0.029,-0.076 0.033,-0.117 0.005,-0.046 -0.021,-0.09 0.039,-0.108 0.07,-0.021 0.107,0.079 0.166,0.091 0.024,-0.033 0.068,-0.038 0.094,-0.068 0.023,-0.027 0.026,-0.055 0.052,-0.08 0.041,-0.04 0.04,-0.033 0.072,0.008 0.026,0.035 0.051,0.092 0.076,0.132 0.025,0.039 0.026,0.072 0.036,0.115 0.033,0.009 0.091,-0.015 0.099,0.024 -0.047,0.019 -0.107,0 -0.157,0.005 -0.004,0 -0.005,0.001 -0.008,0.002 -0.005,0.002 -0.009,0.005 -0.016,0.005 0.006,0.025 0.052,0.032 0.077,0.046 0.039,0.024 0.068,0.059 0.106,0.088 C 0.292,-0.07 0.168,-0.033 0.099,-0.015 0.13,0.008 0.159,0.033 0.161,0.041 0.116,0.061 0.037,-0.004 0.008,0.023 -0.036,0.062 0.046,0.114 0.033,0.154 0.02,0.193 -0.063,0.193 -0.097,0.174 -0.113,0.165 -0.179,0.109 -0.18,0.106 -0.122,0.107 -0.13,0.082 -0.14,0.053 -0.154,0.047 -0.168,0.042 -0.182,0.034 -0.216,0.017 -0.243,-0.017 -0.276,-0.037 c 0.023,-0.021 0.007,-0.036 -0.019,-0.069 -0.069,-0.085 -0.129,-0.094 -0.23,-0.119 0.008,-0.055 0.122,-0.011 0.151,0.003"
             style="fill:#100f0d;fill-opacity:1;fill-rule:nonzero;stroke:none"
             id="path55273" />
        </g>
      </g>
    </g>
  </g>
</svg>
