<svg width="21" height="24" viewBox="0 0 21 24" fill="#000000" xmlns="http://www.w3.org/2000/svg">
  <path d="M19.9525 19.4199C19.8639 19.2134 19.7514 19.0447 19.6228 18.8609C19.5319 18.7312 19.4054 18.596 19.3492 18.4457C19.3103 18.3398 19.3503 18.3722 19.2346 18.2706C19.1005 18.1517 19.027 18.0035 18.9319 17.8576C18.8897 17.7938 18.8551 17.7116 18.7654 17.7235C18.7081 17.7311 18.5783 18.0976 18.5708 18.1214C18.4864 18.3722 18.4605 18.6349 18.3362 18.8728C18.1686 19.1917 17.894 19.4653 17.6561 19.7345C17.601 19.7972 17.4258 20.0534 17.3242 20.0069C17.2766 19.7475 17.322 19.4458 17.375 19.1917C17.4183 18.9777 17.4258 19.0371 17.2647 18.8869C16.9663 18.6112 16.696 18.2987 16.4387 17.9852C16.2236 17.7246 16.0463 17.4186 16.0538 17.0683C16.0549 17.024 16.0711 16.9775 16.0517 16.9354C16.0182 16.8608 15.8938 16.8272 15.8592 16.7548C15.8398 16.7137 15.856 16.6618 15.8527 16.6186C15.843 16.5169 15.7933 16.4229 15.7543 16.3299C15.6581 16.0975 15.5911 15.8585 15.537 15.6131C15.5273 15.5688 15.5165 15.4531 15.4949 15.4055C15.4646 15.3374 15.3824 15.3104 15.3349 15.2617C15.2819 15.2055 15.2624 15.1385 15.2116 15.0736C15.1619 15.0098 15.0916 14.9806 15.0646 14.8974C14.7672 15.0185 14.5629 15.3796 14.3672 15.6217C14.045 16.0196 13.6623 16.4272 13.5715 16.9483C13.5347 17.1635 13.512 17.3765 13.4536 17.5873C13.3855 17.8295 13.2958 18.0727 13.2125 18.3117C13.1271 18.5593 13.1044 18.6447 12.9195 18.7906C12.7974 18.8858 12.6601 18.9625 12.54 19.0577C12.38 19.1831 12.2179 19.3074 12.0622 19.4404C11.9065 19.5745 11.8535 19.6966 11.78 19.8891C11.5886 20.3886 11.3724 21.0081 10.9897 21.4038C10.9215 21.3249 10.8859 21.1551 10.8502 21.073C10.7323 20.8038 10.6275 20.5313 10.5161 20.2589C10.4804 20.1734 10.4588 20.1345 10.4372 20.0469C10.4047 19.888 10.3788 19.7291 10.3593 19.5691C10.3874 19.4837 10.3701 19.4274 10.3085 19.3993C10.1626 19.4988 10.0134 19.6199 9.84254 19.6718C9.60793 19.2685 9.38196 18.836 9.23709 18.3906C9.16789 18.1765 9.16033 17.9549 9.08464 17.743C9.02842 17.5851 8.99707 17.4673 8.9095 17.3289C8.79706 17.1516 8.69326 16.9083 8.6392 16.7062C8.61001 16.6002 8.60569 16.4791 8.53433 16.3905C8.37864 16.198 8.09538 16.1288 7.92347 15.9547C7.88347 15.9158 7.82401 15.8499 7.78509 15.8012C7.71373 15.7126 7.70724 15.5493 7.63697 15.4747C7.46614 15.9947 7.04989 16.3796 6.64662 16.7245C6.34281 16.9851 6.15577 17.384 6.09955 17.7787C5.9817 17.7927 5.81412 17.6619 5.73196 17.5873C5.49734 17.3743 5.43788 17.0175 5.35571 16.7224C5.30489 16.5397 5.29516 16.2488 5.09515 16.4596C5.01731 16.5418 4.9773 16.6251 4.93297 16.7267C4.85837 16.8943 4.75242 17.0327 4.627 17.1656C4.52538 17.2748 4.40429 17.3613 4.29184 17.4565C4.0648 17.6468 3.87776 17.8771 3.65396 18.0727C3.51557 18.0273 3.40961 17.9095 3.2496 17.9214C3.16851 17.9279 3.08527 17.9787 3.01715 18.0176C2.97282 18.0436 2.87876 18.1333 2.8366 18.1311C2.67658 18.1236 2.47765 17.7289 2.39873 17.6132C2.36521 17.5635 2.31223 17.5062 2.30791 17.4424C2.21601 17.4565 2.11222 17.5722 2.03978 17.6262C1.91869 17.7149 1.79976 17.8003 1.68299 17.8944C1.50676 18.0338 1.2927 18.1711 1.0916 18.2663C1.01051 18.3041 0.925098 18.356 0.841849 18.383C0.766167 18.4079 0.679675 18.4122 0.596425 18.4403C0.427764 18.4966 0.247209 18.5085 0.0796282 18.5636C0.0147583 18.5852 -0.041462 18.6306 0.0417876 18.7398C0.0688167 18.7647 0.0850351 18.795 0.0926033 18.8306C0.156392 18.9225 0.235316 19.0015 0.327215 19.0674C0.333702 19.0728 0.581289 19.2977 0.652646 19.3377C0.77698 19.4058 0.953209 19.3507 1.07862 19.4112C1.22999 19.4826 1.30999 19.9453 1.37703 20.0675C1.49163 20.2751 1.62786 20.3129 1.78354 20.4632C1.88193 20.5583 1.9122 20.6708 1.99761 20.7962C2.22033 21.1259 2.40305 21.4795 2.70037 21.7563C2.95985 21.9974 3.41178 21.9703 3.72964 22.0752C3.90587 22.1347 3.92965 22.2774 4.08102 22.3833C4.20103 22.4666 4.3059 22.4796 4.44753 22.4763C4.7135 22.4688 4.98811 22.5325 5.253 22.5639C5.50707 22.5942 5.69087 22.6169 5.88872 22.7769C5.97846 22.8504 6.04657 22.9726 6.15037 23.0266C6.3666 23.0418 6.58175 23.0645 6.79582 23.0937C6.9634 23.1023 7.11801 23.1466 7.25856 23.2288C7.24883 23.3002 7.38181 23.3434 7.42938 23.3704C7.68778 23.5218 7.96888 23.6126 8.25755 23.6937C8.47162 23.7532 8.66948 23.8137 8.88139 23.8829C9.12249 23.9618 9.34953 23.9456 9.60036 23.9424C10.0101 23.9381 10.395 23.9932 10.8048 23.9932C11.4643 23.9943 12.1292 24.031 12.7822 23.9218C12.9758 23.8894 13.1639 23.8418 13.3498 23.7791C13.5098 23.6645 13.6655 23.5434 13.8169 23.4159C13.9423 23.3272 14.0537 23.271 14.1921 23.2126C14.6364 23.0277 15.1208 22.9931 15.5933 22.8926C16.0841 22.7888 16.5544 22.5898 16.9436 22.2677C17.2582 22.0071 17.4756 21.6536 17.7372 21.3454C17.961 21.0816 18.1859 20.82 18.4735 20.6232C18.8692 20.3529 19.2973 20.1356 19.6801 19.8415C19.7568 19.7831 19.9849 19.6621 20.0022 19.5475C20.0141 19.4696 19.9795 19.4837 19.9525 19.4199Z"/>
  <path d="M9.13245 4.4079C9.08596 4.45871 9.03514 4.51601 8.98216 4.58196C9.01676 4.69332 9.06649 4.76144 9.08596 4.88793C9.10001 4.98199 9.10325 5.08579 9.14326 5.17336C9.20813 5.31499 9.2438 5.47392 9.353 5.59393C9.48058 5.73448 9.60491 5.83287 9.75952 5.93774C9.96278 6.07721 10.179 6.12478 10.4234 6.16262C10.6655 6.1983 10.9001 6.18101 11.1445 6.18101C11.2104 6.18101 11.3132 6.17019 11.3986 6.16803C11.4624 6.2102 11.5251 6.25236 11.5889 6.29669C11.9727 6.56374 12.3078 6.88917 12.6419 7.21676C13.0776 7.64058 13.4485 8.07845 13.7587 8.60281C13.9263 8.88716 14.0496 9.14015 14.1004 9.4645C14.1285 9.6483 14.1501 9.82885 14.1534 10.0159C14.1609 10.39 14.0344 10.8441 13.8442 11.163C13.5209 11.7047 13.2884 12.2982 13.0322 12.8734C12.8398 13.3048 12.6603 13.7427 12.4711 14.1762C12.3154 14.5352 12.1186 14.8984 11.9997 15.2747C11.7856 15.9515 11.4137 16.5634 11.5553 17.2997C11.5694 17.3765 11.5867 17.4467 11.6051 17.517C11.6072 17.5235 11.6061 17.5321 11.6083 17.5376C11.6094 17.5397 11.6116 17.5397 11.6126 17.5419C11.6559 17.6976 11.7078 17.8424 11.7694 18.0003C11.8062 18.0933 11.8354 18.1776 11.8743 18.263C11.911 18.3657 11.9424 18.4684 11.9835 18.5701C12.0159 18.6501 12.0808 18.7517 12.0927 18.836C12.0938 18.7755 12.0721 18.7193 12.0667 18.6598C12.0765 18.6598 12.0862 18.6598 12.0959 18.6609C12.084 18.6414 12.0754 18.623 12.0646 18.6047C12.0635 18.5376 12.0656 18.4695 12.0656 18.4036V17.557C12.0656 17.3894 12.0656 17.2219 12.0656 17.0543C12.0656 16.878 12.0494 16.6813 12.1165 16.5148C12.2548 16.2975 12.47 16.1191 12.5824 15.8855C12.6679 15.7093 12.7392 15.5266 12.8419 15.3558C12.9868 15.1125 13.1252 14.919 13.3101 14.7038C13.4636 14.5233 13.576 14.3222 13.7609 14.1719C13.935 14.0292 14.1166 13.9048 14.2582 13.7275C14.4226 13.5232 14.6237 13.3145 14.8875 13.2778C15.1275 13.2453 15.1113 13.1891 15.2432 13.0086C15.2854 12.9523 15.3362 12.8994 15.3783 12.8399C15.4205 12.7815 15.4767 12.6983 15.4962 12.6301C15.5081 12.5847 15.5005 12.5415 15.5167 12.4972C15.5427 12.4215 15.7816 12.2626 15.8454 12.2063C16.0833 11.9955 16.2519 11.749 16.4584 11.5198C16.6 11.363 16.7752 11.2592 16.9493 11.1468C17.0725 11.0679 17.1893 10.976 17.3136 10.9003C17.4715 10.8051 17.6996 10.8116 17.8412 10.7057C17.9158 10.6505 17.9493 10.5554 17.9947 10.4743C18.0802 10.3186 18.1807 10.1737 18.2823 10.0278C18.4705 9.75641 18.5634 9.5045 18.5094 9.1715C18.4845 9.0169 18.4791 8.81796 18.4067 8.67741C18.3083 8.48713 18.1472 8.33252 18.0272 8.15521C17.8737 7.92817 17.6888 7.78761 17.4769 7.62328C17.3644 7.5357 17.2477 7.42975 17.145 7.3292C17.1093 7.2946 17.0844 7.25028 17.0433 7.21892C16.9936 7.18216 16.9276 7.17892 16.8811 7.14432C16.7265 7.02864 16.6844 6.85565 16.6552 6.6751C16.6184 6.4513 16.5103 6.17019 16.6044 5.95288C16.6811 5.77773 16.7665 5.64799 16.8984 5.51501C17.0833 5.33229 17.266 5.20471 17.4866 5.05984C17.6639 4.94415 17.8564 4.85333 18.0499 4.76684C18.158 4.71819 18.278 4.64143 18.3883 4.60467C18.4737 4.57656 18.5753 4.59169 18.6586 4.56034C18.7213 4.53655 18.7635 4.49006 18.8327 4.48033C18.7753 4.316 18.7289 4.15923 18.6391 4.01219C18.6013 3.95056 18.5721 3.88137 18.531 3.8219C18.491 3.76244 18.438 3.72892 18.3937 3.67378C18.2553 3.49972 18.1829 3.26727 18.0283 3.10293C17.9223 2.99049 17.8023 2.86724 17.6747 2.78399C17.4985 2.67046 17.3125 2.56451 17.1536 2.42504C17.0736 2.35585 17.0422 2.2726 16.9806 2.20016C16.8822 2.08664 16.6833 2.08988 16.5503 2.03042C16.3471 1.9396 16.1384 1.91041 15.9276 1.83581C15.7816 1.78391 15.6681 1.70823 15.5535 1.60552C15.4973 1.5547 15.441 1.47253 15.374 1.43361C15.2356 1.35253 15.0464 1.41199 14.8994 1.3828C14.7653 1.35685 14.6994 1.32442 14.5566 1.3482C14.3837 1.37523 14.1999 1.39145 14.0301 1.43469C13.9674 1.45199 13.9252 1.48551 13.8658 1.50929C13.8863 1.39577 13.9166 1.32009 13.9004 1.199C13.8961 1.15792 13.9242 1.14386 13.8896 1.10386C13.7966 1.09845 13.7036 1.09197 13.6117 1.08656C13.3998 1.1017 13.1901 1.09629 12.9814 1.0725C12.7652 1.05088 12.536 0.960064 12.3197 0.913574C12.1792 0.88222 12.0667 0.813024 11.9327 0.761129C11.7845 0.704908 11.6429 0.632471 11.4883 0.597874C11.3942 0.577332 11.2386 0.571925 11.1748 0.482189C11.0861 0.355693 11.1499 0.134053 11.0785 -1.14441e-05C10.9618 0.0443163 10.9272 0.229197 10.8991 0.331907C10.8645 0.456241 10.7953 0.558952 10.7293 0.676799C10.5542 0.99358 10.3671 1.27901 10.1217 1.5493C9.92818 1.76337 9.75628 1.99582 9.56167 2.20989C9.4449 2.33638 9.34976 2.44558 9.29354 2.60559C9.20705 2.85426 9.09028 3.11266 9.03622 3.36998C8.99514 3.56675 8.92919 3.82623 8.93892 4.02841C8.94324 4.13544 8.96919 4.25221 9.02757 4.33005C9.05676 4.36789 9.09569 4.38735 9.13245 4.4079Z"/>
  <path d="M0.635126 6.40915C0.7227 6.67404 0.742161 6.92054 0.949744 7.1184C1.12057 7.28057 1.15084 7.37896 1.15408 7.61249C1.15517 7.76169 1.12922 7.92278 1.16381 8.06874C1.22328 8.31849 1.23842 8.60608 1.35626 8.84285C1.39194 8.91421 1.44276 8.93475 1.50546 8.98557C1.59628 9.06017 1.67629 9.15531 1.74981 9.24721C1.90333 9.44074 2.14551 9.57372 2.36607 9.68508C2.7315 9.87104 3.17694 9.97267 3.57589 10.0365C3.9889 10.1035 4.39541 10.1673 4.80626 10.243C4.98573 10.2765 5.16304 10.3057 5.34468 10.3068C5.58253 10.3078 5.80742 10.3089 6.03987 10.2657C6.1869 10.2386 6.33394 10.2257 6.47774 10.1943C6.66478 10.2451 6.84966 10.2884 7.054 10.2722C7.5243 10.2343 7.99677 10.2635 8.46816 10.2613C8.61628 10.2613 8.75899 10.2797 8.90928 10.2689C8.99252 10.2613 9.09307 10.23 9.17632 10.2419C9.18281 10.243 9.1893 10.2462 9.19578 10.2484C9.25957 10.3468 9.30066 10.4451 9.36228 10.5565C9.39255 10.6106 9.4185 10.6462 9.44013 10.6938C9.45094 10.763 9.45959 10.8322 9.47148 10.9003C9.50067 11.0787 9.55797 11.2711 9.55473 11.4528C9.55257 11.5717 9.52662 11.7015 9.50932 11.8193C9.48986 11.9555 9.49202 12.1026 9.46715 12.2355C9.4531 12.3037 9.41202 12.361 9.40445 12.4334C9.3958 12.5026 9.40877 12.575 9.40445 12.6442C9.39688 12.7718 9.35904 12.894 9.35039 13.0216C9.34823 13.0389 9.34823 13.0572 9.34715 13.0756C9.3266 13.0853 9.30498 13.0983 9.28444 13.1167C9.21524 13.1783 9.20768 13.2724 9.18605 13.3664C9.1547 13.5048 9.13848 13.6292 9.08442 13.7589C9.03685 13.8757 9.00874 14.0065 9.0455 14.1297C9.06172 14.1838 9.11686 14.2379 9.13524 14.2941C9.22714 14.5773 9.22714 14.9244 9.27363 15.2163C9.30498 15.4088 9.38607 15.5807 9.42607 15.7731C9.46283 15.9526 9.56987 16.0467 9.63041 16.2132C9.72015 16.4586 9.7342 16.7267 9.77961 16.9797C9.80015 17.0932 10.024 17.3841 10.3007 17.7073C10.3699 17.8111 10.451 17.9073 10.5397 17.9949C10.7289 18.1841 10.8802 18.4101 11.0705 18.5982C11.1732 18.6987 11.2684 18.8263 11.3776 18.9171C11.4014 18.9377 11.4262 18.9442 11.4468 18.9344C11.4608 18.9474 11.4684 18.9528 11.4651 18.9474C11.4619 18.9409 11.4587 18.9355 11.4554 18.929C11.4651 18.9215 11.4738 18.9107 11.4792 18.8912C11.5138 18.7831 11.4489 18.6241 11.396 18.5322C11.3646 18.4771 11.3268 18.436 11.2976 18.3766C11.2284 18.236 11.1462 18.1019 11.0781 17.9614C11.0338 17.8717 10.9732 17.7711 10.9538 17.6781C10.9386 17.6024 10.8921 17.5408 10.8705 17.4619C10.8489 17.383 10.8283 17.3116 10.8013 17.2359C10.7656 17.1365 10.7051 17.0424 10.6629 16.944C10.6381 16.8835 10.6045 16.8251 10.5743 16.7656C10.5526 16.7245 10.5559 16.6932 10.544 16.6478C10.5321 16.6024 10.504 16.5375 10.4878 16.4899C10.4845 16.4824 10.4791 16.4759 10.4759 16.4694C10.4867 16.2121 10.5689 15.9937 10.6391 15.7331C10.7008 15.5028 10.757 15.3709 10.8683 15.1601C10.9581 14.9882 11.0046 14.8044 11.0911 14.6303C11.2424 14.3308 11.3419 14.0368 11.45 13.72C11.5322 13.4821 11.6846 13.2735 11.7765 13.0399C11.8554 12.8421 11.9257 12.6507 11.9787 12.4464C12.0403 12.2118 12.1917 11.9999 12.2749 11.7706C12.3258 11.6333 12.3787 11.4895 12.4155 11.349C12.4977 11.0257 12.4933 10.6743 12.4512 10.3468C12.4328 10.2051 12.4512 10.0678 12.436 9.92726C12.4133 9.71427 12.3733 9.48723 12.329 9.2764C12.2858 9.0699 12.1474 8.83637 12.0663 8.64392C12.0014 8.49039 11.9225 8.34228 11.7927 8.23308C11.6079 8.07631 11.3884 7.93143 11.1689 7.82872C10.9483 7.72601 10.704 7.75088 10.4651 7.72601C10.2564 7.70547 10.0737 7.61249 9.86502 7.58438C9.66501 7.55735 9.5277 7.48707 9.34498 7.3995C9.17416 7.31733 8.98063 7.26544 8.83251 7.14651C8.60979 6.96812 8.46492 6.7681 8.28436 6.55187C8.06921 6.29455 7.84973 6.05021 7.65621 5.77451C7.46592 5.50422 7.30266 5.16582 7.23023 4.84147C7.15346 4.49766 7.16103 4.16574 7.1632 3.82193C7.1632 3.70841 7.20212 3.5938 7.21077 3.47812C7.2205 3.3473 7.2432 3.21756 7.25618 3.08457C7.27888 2.85104 7.32537 2.61211 7.35672 2.37857C7.36429 2.32019 7.37727 2.26073 7.38483 2.20234C7.39348 2.12883 7.36429 2.05747 7.37078 1.98827C7.37294 1.96773 7.39889 1.92773 7.39997 1.91584C7.40321 1.84232 7.37835 1.78501 7.37402 1.7115C7.3697 1.62825 7.3924 1.54932 7.38916 1.46715C7.38808 1.4358 7.36645 1.4012 7.36754 1.36985C7.3697 1.29417 7.41619 1.23903 7.43024 1.16443C7.44538 1.07361 7.46484 0.982791 7.47998 0.891973C7.44322 0.899541 7.43024 0.928733 7.39889 0.954681C7.27672 1.05523 7.15346 1.15361 7.03021 1.252C6.92101 1.33957 6.8183 1.44445 6.71559 1.54283C6.53504 1.71906 6.27988 1.75799 6.0377 1.83583C5.97067 1.85745 5.90148 1.88124 5.8312 1.90719L5.59875 1.96557C5.52631 1.94286 5.45171 2.04125 5.3836 2.06612C5.21494 2.12883 5.03006 2.15477 4.85815 2.21856C4.77382 2.24992 4.66895 2.25316 4.5911 2.29857C4.5165 2.3429 4.50461 2.36992 4.41163 2.4002C4.14999 2.48561 3.84943 2.69427 3.6732 2.9051C3.564 3.037 3.49048 3.1981 3.41047 3.34946C3.33479 3.49217 3.22776 3.56786 3.09369 3.65867C2.80286 3.85436 2.4504 3.96356 2.1747 4.17547C1.96388 4.33656 1.87306 4.56469 1.74764 4.782C1.66656 4.92363 1.54655 5.0058 1.4687 5.15068C1.43843 5.20798 1.39627 5.26312 1.36059 5.30745C1.25788 5.43827 1.13679 5.57125 1.03083 5.70423C0.960556 5.79073 0.909741 5.82208 0.802706 5.85452C0.683778 5.89019 0.575662 5.94425 0.452409 5.96588C0.421055 6.04588 0.455652 6.13562 0.50863 6.19941C0.572418 6.27509 0.602691 6.30969 0.635126 6.40915Z"/>
</svg>
