<?xml version="1.0" encoding="UTF-8" standalone="no"?>
<!-- Created with Inkscape (http://www.inkscape.org/) -->

<svg
   width="20.00465"
   height="24"
   viewBox="0 0 5.292897 6.35"
   version="1.1"
   id="svg57794"
   inkscape:version="1.2.1 (9c6d41e4, 2022-07-14)"
   sodipodi:docname="silence-and-mystery.svg"
   xmlns:inkscape="http://www.inkscape.org/namespaces/inkscape"
   xmlns:sodipodi="http://sodipodi.sourceforge.net/DTD/sodipodi-0.dtd"
   xmlns="http://www.w3.org/2000/svg"
   xmlns:svg="http://www.w3.org/2000/svg">
  <sodipodi:namedview
     id="namedview57796"
     pagecolor="#505050"
     bordercolor="#eeeeee"
     borderopacity="1"
     inkscape:showpageshadow="0"
     inkscape:pageopacity="0"
     inkscape:pagecheckerboard="0"
     inkscape:deskcolor="#505050"
     inkscape:document-units="mm"
     showgrid="false"
     inkscape:zoom="0.7046647"
     inkscape:cx="-42.573439"
     inkscape:cy="190.87092"
     inkscape:window-width="1390"
     inkscape:window-height="941"
     inkscape:window-x="0"
     inkscape:window-y="25"
     inkscape:window-maximized="0"
     inkscape:current-layer="layer1" />
  <defs
     id="defs57791">
    <clipPath
       clipPathUnits="userSpaceOnUse"
       id="clipPath55285">
      <path
         d="m 65.075,422.72 h 24.7 v 24.699 h -24.7 z"
         id="path55283" />
    </clipPath>
  </defs>
  <g
     inkscape:label="Layer 1"
     inkscape:groupmode="layer"
     id="layer1"
     transform="translate(-116.37884,-98.203009)">
    <g
       id="g55279"
       transform="matrix(0.28605802,0,0,-0.28605802,96.949217,225.87242)">
      <g
         id="g55281"
         clip-path="url(#clipPath55285)">
        <g
           id="g55287"
           transform="translate(86.3766,428.344)">
          <path
             d="m 0,0 c -0.082,0.191 -0.186,0.347 -0.305,0.517 -0.084,0.12 -0.201,0.245 -0.253,0.384 -0.036,0.098 0.001,0.068 -0.106,0.162 -0.124,0.11 -0.192,0.247 -0.28,0.382 C -0.983,1.504 -1.015,1.58 -1.098,1.569 -1.151,1.562 -1.271,1.223 -1.278,1.201 -1.356,0.969 -1.38,0.726 -1.495,0.506 -1.65,0.211 -1.904,-0.042 -2.124,-0.291 c -0.051,-0.058 -0.213,-0.295 -0.307,-0.252 -0.044,0.24 -0.002,0.519 0.047,0.754 0.04,0.198 0.047,0.143 -0.102,0.282 -0.276,0.255 -0.526,0.544 -0.764,0.834 -0.199,0.241 -0.363,0.524 -0.356,0.848 10e-4,0.041 0.016,0.084 -0.002,0.123 -0.031,0.069 -0.146,0.1 -0.178,0.167 C -3.804,2.503 -3.789,2.551 -3.792,2.591 -3.801,2.685 -3.847,2.772 -3.883,2.858 -3.972,3.073 -4.034,3.294 -4.084,3.521 -4.093,3.562 -4.103,3.669 -4.123,3.713 -4.151,3.776 -4.227,3.801 -4.271,3.846 -4.32,3.898 -4.338,3.96 -4.385,4.02 -4.431,4.079 -4.496,4.106 -4.521,4.183 -4.796,4.071 -4.985,3.737 -5.166,3.513 -5.464,3.145 -5.818,2.768 -5.902,2.286 -5.936,2.087 -5.957,1.89 -6.011,1.695 -6.074,1.471 -6.157,1.246 -6.234,1.025 -6.313,0.796 -6.334,0.717 -6.505,0.582 -6.618,0.494 -6.745,0.423 -6.856,0.335 -7.004,0.219 -7.154,0.104 -7.298,-0.019 -7.442,-0.143 -7.491,-0.256 -7.559,-0.434 -7.736,-0.896 -7.936,-1.469 -8.29,-1.835 c -0.063,0.073 -0.096,0.23 -0.129,0.306 -0.109,0.249 -0.206,0.501 -0.309,0.753 -0.033,0.079 -0.053,0.115 -0.073,0.196 -0.03,0.147 -0.054,0.294 -0.072,0.442 0.026,0.079 0.01,0.131 -0.047,0.157 -0.135,-0.092 -0.273,-0.204 -0.431,-0.252 -0.217,0.373 -0.426,0.773 -0.56,1.185 -0.064,0.198 -0.071,0.403 -0.141,0.599 -0.052,0.146 -0.081,0.255 -0.162,0.383 -0.104,0.164 -0.2,0.389 -0.25,0.576 -0.027,0.098 -0.031,0.21 -0.097,0.292 -0.144,0.178 -0.406,0.242 -0.565,0.403 -0.037,0.036 -0.092,0.097 -0.128,0.142 -0.066,0.082 -0.072,0.233 -0.137,0.302 -0.158,-0.481 -0.543,-0.837 -0.916,-1.156 -0.281,-0.241 -0.454,-0.61 -0.506,-0.975 -0.109,-0.013 -0.264,0.108 -0.34,0.177 -0.217,0.197 -0.272,0.527 -0.348,0.8 -0.047,0.169 -0.056,0.438 -0.241,0.243 -0.072,-0.076 -0.109,-0.153 -0.15,-0.247 -0.069,-0.155 -0.167,-0.283 -0.283,-0.406 -0.094,-0.101 -0.206,-0.181 -0.31,-0.269 -0.21,-0.176 -0.383,-0.389 -0.59,-0.57 -0.128,0.042 -0.226,0.151 -0.374,0.14 -0.075,-0.006 -0.152,-0.053 -0.215,-0.089 -0.041,-0.024 -0.128,-0.107 -0.167,-0.105 -0.148,0.007 -0.332,0.372 -0.405,0.479 -0.031,0.046 -0.08,0.099 -0.084,0.158 -0.085,-0.013 -0.181,-0.12 -0.248,-0.17 -0.112,-0.082 -0.222,-0.161 -0.33,-0.248 -0.163,-0.129 -0.361,-0.256 -0.547,-0.344 -0.075,-0.035 -0.154,-0.083 -0.231,-0.108 -0.07,-0.023 -0.15,-0.027 -0.227,-0.053 -0.156,-0.052 -0.323,-0.063 -0.478,-0.114 -0.06,-0.02 -0.112,-0.062 -0.035,-0.163 0.025,-0.023 0.04,-0.051 0.047,-0.084 0.059,-0.085 0.132,-0.158 0.217,-0.219 0.006,-0.005 0.235,-0.213 0.301,-0.25 0.115,-0.063 0.278,-0.012 0.394,-0.068 0.14,-0.066 0.214,-0.494 0.276,-0.607 0.106,-0.192 0.232,-0.227 0.376,-0.366 0.091,-0.088 0.119,-0.192 0.198,-0.308 0.206,-0.305 0.375,-0.632 0.65,-0.888 0.24,-0.223 0.658,-0.198 0.952,-0.295 0.163,-0.055 0.185,-0.187 0.325,-0.285 0.111,-0.077 0.208,-0.089 0.339,-0.086 0.246,0.007 0.5,-0.052 0.745,-0.081 0.235,-0.028 0.405,-0.049 0.588,-0.197 0.083,-0.068 0.146,-0.181 0.242,-0.231 0.2,-0.014 0.399,-0.035 0.597,-0.062 0.155,-0.008 0.298,-0.049 0.428,-0.125 -0.009,-0.066 0.114,-0.106 0.158,-0.131 0.239,-0.14 0.499,-0.224 0.766,-0.299 0.198,-0.055 0.381,-0.111 0.577,-0.175 0.223,-0.073 0.433,-0.058 0.665,-0.055 0.379,0.004 0.735,-0.047 1.114,-0.047 0.61,-10e-4 1.225,-0.035 1.829,0.066 0.179,0.03 0.353,0.074 0.525,0.132 0.148,0.106 0.292,0.218 0.432,0.336 0.116,0.082 0.219,0.134 0.347,0.188 0.411,0.171 0.859,0.203 1.296,0.296 0.454,0.096 0.889,0.28 1.249,0.578 0.291,0.241 0.492,0.568 0.734,0.853 0.207,0.244 0.415,0.486 0.681,0.668 0.366,0.25 0.762,0.451 1.116,0.723 0.071,0.054 0.282,0.166 0.298,0.272 C 0.057,-0.046 0.025,-0.059 0,0"
             style="fill:#100f0d;fill-opacity:1;fill-rule:nonzero;stroke:none"
             id="path55289" />
        </g>
        <g
           id="g55291"
           transform="translate(76.3688,442.229)">
          <path
             d="m 0,0 c -0.043,-0.047 -0.09,-0.1 -0.139,-0.161 0.032,-0.103 0.078,-0.166 0.096,-0.283 0.013,-0.087 0.016,-0.183 0.053,-0.264 0.06,-0.131 0.093,-0.278 0.194,-0.389 0.118,-0.13 0.233,-0.221 0.376,-0.318 0.188,-0.129 0.388,-0.173 0.614,-0.208 0.224,-0.033 0.441,-0.017 0.667,-0.017 0.061,0 0.156,0.01 0.235,0.012 C 2.155,-1.667 2.213,-1.706 2.272,-1.747 2.627,-1.994 2.937,-2.295 3.246,-2.598 3.649,-2.99 3.992,-3.395 4.279,-3.88 4.434,-4.143 4.548,-4.377 4.595,-4.677 4.621,-4.847 4.641,-5.014 4.644,-5.187 4.651,-5.533 4.534,-5.953 4.358,-6.248 4.059,-6.749 3.844,-7.298 3.607,-7.83 3.429,-8.229 3.263,-8.634 3.088,-9.035 2.944,-9.367 2.762,-9.703 2.652,-10.051 2.454,-10.677 2.11,-11.243 2.241,-11.924 c 0.013,-0.071 0.029,-0.136 0.046,-0.201 0.002,-0.006 10e-4,-0.014 0.003,-0.019 10e-4,-0.002 0.003,-0.002 0.004,-0.004 0.04,-0.144 0.088,-0.278 0.145,-0.424 0.034,-0.086 0.061,-0.164 0.097,-0.243 0.034,-0.095 0.063,-0.19 0.101,-0.284 0.03,-0.074 0.09,-0.168 0.101,-0.246 10e-4,0.056 -0.019,0.108 -0.024,0.163 0.009,0 0.018,0 0.027,-10e-4 -0.011,0.018 -0.019,0.035 -0.029,0.052 -0.001,0.062 10e-4,0.125 10e-4,0.186 v 0.783 c 0,0.155 0,0.31 0,0.465 0,0.163 -0.015,0.345 0.047,0.499 0.128,0.201 0.327,0.366 0.431,0.582 0.079,0.163 0.145,0.332 0.24,0.49 0.134,0.225 0.262,0.404 0.433,0.603 0.142,0.167 0.246,0.353 0.417,0.492 0.161,0.132 0.329,0.247 0.46,0.411 0.152,0.189 0.338,0.382 0.582,0.416 0.222,0.03 0.207,0.082 0.329,0.249 0.039,0.052 0.086,0.101 0.125,0.156 0.039,0.054 0.091,0.131 0.109,0.194 0.011,0.042 0.004,0.082 0.019,0.123 0.024,0.07 0.245,0.217 0.304,0.269 0.22,0.195 0.376,0.423 0.567,0.635 0.131,0.145 0.293,0.241 0.454,0.345 0.114,0.073 0.222,0.158 0.337,0.228 0.146,0.088 0.357,0.082 0.488,0.18 0.069,0.051 0.1,0.139 0.142,0.214 0.079,0.144 0.172,0.278 0.266,0.413 0.174,0.251 0.26,0.484 0.21,0.792 -0.023,0.143 -0.028,0.327 -0.095,0.457 -0.091,0.176 -0.24,0.319 -0.351,0.483 -0.142,0.21 -0.313,0.34 -0.509,0.492 C 7.614,-2.893 7.506,-2.795 7.411,-2.702 7.378,-2.67 7.355,-2.629 7.317,-2.6 7.271,-2.566 7.21,-2.563 7.167,-2.531 7.024,-2.424 6.985,-2.264 6.958,-2.097 6.924,-1.89 6.824,-1.63 6.911,-1.429 c 0.071,0.162 0.15,0.282 0.272,0.405 0.171,0.169 0.34,0.287 0.544,0.421 0.164,0.107 0.342,0.191 0.521,0.271 0.1,0.045 0.211,0.116 0.313,0.15 0.079,0.026 0.173,0.012 0.25,0.041 0.058,0.022 0.097,0.065 0.161,0.074 C 8.919,0.085 8.876,0.23 8.793,0.366 8.758,0.423 8.731,0.487 8.693,0.542 8.656,0.597 8.607,0.628 8.566,0.679 8.438,0.84 8.371,1.055 8.228,1.207 8.13,1.311 8.019,1.425 7.901,1.502 7.738,1.607 7.566,1.705 7.419,1.834 7.345,1.898 7.316,1.975 7.259,2.042 7.168,2.147 6.984,2.144 6.861,2.199 6.673,2.283 6.48,2.31 6.285,2.379 6.15,2.427 6.045,2.497 5.939,2.592 5.887,2.639 5.835,2.715 5.773,2.751 5.645,2.826 5.47,2.771 5.334,2.798 5.21,2.822 5.149,2.852 5.017,2.83 4.857,2.805 4.687,2.79 4.53,2.75 4.472,2.734 4.433,2.703 4.378,2.681 4.397,2.786 4.425,2.856 4.41,2.968 4.406,3.006 4.432,3.019 4.4,3.056 4.314,3.061 4.228,3.067 4.143,3.072 3.947,3.058 3.753,3.063 3.56,3.085 3.36,3.105 3.148,3.189 2.948,3.232 2.818,3.261 2.714,3.325 2.59,3.373 2.453,3.425 2.322,3.492 2.179,3.524 2.092,3.543 1.948,3.548 1.889,3.631 1.807,3.748 1.866,3.953 1.8,4.077 1.692,4.036 1.66,3.865 1.634,3.77 1.602,3.655 1.538,3.56 1.477,3.451 1.315,3.158 1.142,2.894 0.915,2.644 0.736,2.446 0.577,2.231 0.397,2.033 0.289,1.916 0.201,1.815 0.149,1.667 0.069,1.437 -0.039,1.198 -0.089,0.96 -0.127,0.778 -0.188,0.538 -0.179,0.351 -0.175,0.252 -0.151,0.144 -0.097,0.072 -0.07,0.037 -0.034,0.019 0,0"
             style="fill:#100f0d;fill-opacity:1;fill-rule:nonzero;stroke:none"
             id="path55293" />
        </g>
        <g
           id="g55295"
           transform="translate(68.5094,440.378)">
          <path
             d="M 0,0 C 0.081,-0.245 0.099,-0.473 0.291,-0.656 0.449,-0.806 0.477,-0.897 0.48,-1.113 0.481,-1.251 0.457,-1.4 0.489,-1.535 0.544,-1.766 0.558,-2.032 0.667,-2.251 0.7,-2.317 0.747,-2.336 0.805,-2.383 0.889,-2.452 0.963,-2.54 1.031,-2.625 c 0.142,-0.179 0.366,-0.302 0.57,-0.405 0.338,-0.172 0.75,-0.266 1.119,-0.325 0.382,-0.062 0.758,-0.121 1.138,-0.191 0.166,-0.031 0.33,-0.058 0.498,-0.059 0.22,-10e-4 0.428,-0.002 0.643,0.038 0.136,0.025 0.272,0.037 0.405,0.066 0.173,-0.047 0.344,-0.087 0.533,-0.072 0.435,0.035 0.872,0.008 1.308,0.01 0.137,0 0.269,-0.017 0.408,-0.007 0.077,0.007 0.17,0.036 0.247,0.025 C 7.906,-3.546 7.912,-3.549 7.918,-3.551 7.977,-3.642 8.015,-3.733 8.072,-3.836 8.1,-3.886 8.124,-3.919 8.144,-3.963 8.154,-4.027 8.162,-4.091 8.173,-4.154 8.2,-4.319 8.253,-4.497 8.25,-4.665 8.248,-4.775 8.224,-4.895 8.208,-5.004 8.19,-5.13 8.192,-5.266 8.169,-5.389 8.156,-5.452 8.118,-5.505 8.111,-5.572 8.103,-5.636 8.115,-5.703 8.111,-5.767 8.104,-5.885 8.069,-5.998 8.061,-6.116 8.059,-6.132 8.059,-6.149 8.058,-6.166 8.039,-6.175 8.019,-6.187 8,-6.204 7.936,-6.261 7.929,-6.348 7.909,-6.435 7.88,-6.563 7.865,-6.678 7.815,-6.798 7.771,-6.906 7.745,-7.027 7.779,-7.141 c 0.015,-0.05 0.066,-0.1 0.083,-0.152 0.085,-0.262 0.085,-0.583 0.128,-0.853 0.029,-0.178 0.104,-0.337 0.141,-0.515 0.034,-0.166 0.133,-0.253 0.189,-0.407 0.083,-0.227 0.096,-0.475 0.138,-0.709 0.019,-0.105 0.226,-0.374 0.482,-0.673 0.064,-0.096 0.139,-0.185 0.221,-0.266 0.175,-0.175 0.315,-0.384 0.491,-0.558 0.095,-0.093 0.183,-0.211 0.284,-0.295 0.022,-0.019 0.045,-0.025 0.064,-0.016 0.013,-0.012 0.02,-0.017 0.017,-0.012 -0.003,0.006 -0.006,0.011 -0.009,0.017 0.009,0.007 0.017,0.017 0.022,0.035 0.032,0.1 -0.028,0.247 -0.077,0.332 -0.029,0.051 -0.064,0.089 -0.091,0.144 -0.064,0.13 -0.14,0.254 -0.203,0.384 -0.041,0.083 -0.097,0.176 -0.115,0.262 -0.014,0.07 -0.057,0.127 -0.077,0.2 -0.02,0.073 -0.039,0.139 -0.064,0.209 -0.033,0.092 -0.089,0.179 -0.128,0.27 -0.023,0.056 -0.054,0.11 -0.082,0.165 -0.02,0.038 -0.017,0.067 -0.028,0.109 -0.011,0.042 -0.037,0.102 -0.052,0.146 -0.003,0.007 -0.008,0.013 -0.011,0.019 0.01,0.238 0.086,0.44 0.151,0.681 0.057,0.213 0.109,0.335 0.212,0.53 0.083,0.159 0.126,0.329 0.206,0.49 0.14,0.277 0.232,0.549 0.332,0.842 0.076,0.22 0.217,0.413 0.302,0.629 0.073,0.183 0.138,0.36 0.187,0.549 0.057,0.217 0.197,0.413 0.274,0.625 0.047,0.127 0.096,0.26 0.13,0.39 0.076,0.299 0.072,0.624 0.033,0.927 -0.017,0.131 0,0.258 -0.014,0.388 -0.021,0.197 -0.058,0.407 -0.099,0.602 -0.04,0.191 -0.168,0.407 -0.243,0.585 -0.06,0.142 -0.133,0.279 -0.253,0.38 -0.171,0.145 -0.374,0.279 -0.577,0.374 -0.204,0.095 -0.43,0.072 -0.651,0.095 -0.193,0.019 -0.362,0.105 -0.555,0.131 -0.185,0.025 -0.312,0.09 -0.481,0.171 -0.158,0.076 -0.337,0.124 -0.474,0.234 -0.206,0.165 -0.34,0.35 -0.507,0.55 C 6.876,0.106 6.673,0.332 6.494,0.587 6.318,0.837 6.167,1.15 6.1,1.45 6.029,1.768 6.036,2.075 6.038,2.393 c 0,0.105 0.036,0.211 0.044,0.318 0.009,0.121 0.03,0.241 0.042,0.364 C 6.145,3.291 6.188,3.512 6.217,3.728 6.224,3.782 6.236,3.837 6.243,3.891 6.251,3.959 6.224,4.025 6.23,4.089 6.232,4.108 6.256,4.145 6.257,4.156 6.26,4.224 6.237,4.277 6.233,4.345 6.229,4.422 6.25,4.495 6.247,4.571 6.246,4.6 6.226,4.632 6.227,4.661 6.229,4.731 6.272,4.782 6.285,4.851 6.299,4.935 6.317,5.019 6.331,5.103 6.297,5.096 6.285,5.069 6.256,5.045 6.143,4.952 6.029,4.861 5.915,4.77 5.814,4.689 5.719,4.592 5.624,4.501 5.457,4.338 5.221,4.302 4.997,4.23 4.935,4.21 4.871,4.188 4.806,4.164 L 4.591,4.11 C 4.524,4.131 4.455,4.04 4.392,4.017 4.236,3.959 4.065,3.935 3.906,3.876 3.828,3.847 3.731,3.844 3.659,3.802 3.59,3.761 3.579,3.736 3.493,3.708 3.251,3.629 2.973,3.436 2.81,3.241 2.709,3.119 2.641,2.97 2.567,2.83 2.497,2.698 2.398,2.628 2.274,2.544 2.005,2.363 1.679,2.262 1.424,2.066 1.229,1.917 1.145,1.706 1.029,1.505 0.954,1.374 0.843,1.298 0.771,1.164 0.743,1.111 0.704,1.06 0.671,1.019 0.576,0.898 0.464,0.775 0.366,0.652 0.301,0.572 0.254,0.543 0.155,0.513 0.045,0.48 -0.055,0.43 -0.169,0.41 -0.198,0.336 -0.166,0.253 -0.117,0.194 -0.058,0.124 -0.03,0.092 0,0"
             style="fill:#100f0d;fill-opacity:1;fill-rule:nonzero;stroke:none"
             id="path55297" />
        </g>
      </g>
    </g>
  </g>
</svg>
