<?xml version="1.0" encoding="UTF-8" standalone="no"?>
<!-- Created with Inkscape (http://www.inkscape.org/) -->

<svg
   width="27.126196"
   height="24"
   viewBox="0 0 7.1771394 6.35"
   version="1.1"
   id="svg59448"
   inkscape:version="1.2.1 (9c6d41e4, 2022-07-14)"
   sodipodi:docname="stirring-in-the-deep.svg"
   xmlns:inkscape="http://www.inkscape.org/namespaces/inkscape"
   xmlns:sodipodi="http://sodipodi.sourceforge.net/DTD/sodipodi-0.dtd"
   xmlns="http://www.w3.org/2000/svg"
   xmlns:svg="http://www.w3.org/2000/svg">
  <sodipodi:namedview
     id="namedview59450"
     pagecolor="#505050"
     bordercolor="#eeeeee"
     borderopacity="1"
     inkscape:showpageshadow="0"
     inkscape:pageopacity="0"
     inkscape:pagecheckerboard="0"
     inkscape:deskcolor="#505050"
     inkscape:document-units="mm"
     showgrid="false"
     inkscape:zoom="0.7046647"
     inkscape:cx="7.0955732"
     inkscape:cy="41.863882"
     inkscape:window-width="1390"
     inkscape:window-height="941"
     inkscape:window-x="0"
     inkscape:window-y="25"
     inkscape:window-maximized="0"
     inkscape:current-layer="layer1" />
  <defs
     id="defs59445">
    <clipPath
       clipPathUnits="userSpaceOnUse"
       id="clipPath55311">
      <path
         d="m 188.526,422.719 h 24.699 v 24.7 h -24.699 z"
         id="path55309" />
    </clipPath>
  </defs>
  <g
     inkscape:label="Layer 1"
     inkscape:groupmode="layer"
     id="layer1"
     transform="translate(-103.42154,-137.62778)">
    <g
       id="g55305"
       transform="matrix(0.34488895,0,0,-0.34488895,37.66881,290.55687)">
      <g
         id="g55307"
         clip-path="url(#clipPath55311)">
        <g
           id="g55313"
           transform="translate(207.298,441.776)">
          <path
             d="m 0,0 c -0.093,-0.012 -0.187,-0.064 -0.275,-0.094 -0.068,-0.023 -0.157,-0.045 -0.222,-0.075 -0.214,-0.104 -0.429,-0.206 -0.646,-0.304 -0.12,-0.039 -0.229,-0.101 -0.326,-0.185 -0.022,-0.004 -0.044,-0.009 -0.066,-0.014 -0.107,0.057 -0.212,0.118 -0.317,0.18 -0.046,0.035 -0.096,0.045 -0.15,0.031 -0.284,-0.018 -0.567,-0.092 -0.83,-0.207 -0.133,-0.058 -0.25,-0.158 -0.369,-0.25 -0.07,-0.055 -0.148,-0.085 -0.222,-0.132 -0.027,-0.017 -0.098,-0.045 -0.115,-0.072 -0.02,-0.031 -0.005,-0.1 -0.003,-0.136 0.006,-0.108 0.018,-0.217 0.05,-0.318 0.014,0.001 0.023,-0.005 0.025,-0.018 0.006,-0.012 0.006,-0.025 0.001,-0.039 0.019,-0.081 -0.003,-0.193 -0.004,-0.277 -0.005,-0.401 -0.006,-0.81 0.091,-1.2 0.015,-0.062 0.039,-0.109 0.033,-0.173 -0.012,-0.13 -0.073,-0.261 -0.095,-0.389 -0.035,-0.201 -0.041,-0.405 -0.03,-0.609 0.01,-0.2 0.066,-0.388 0.094,-0.586 0.016,-0.113 0.031,-0.227 0.049,-0.34 0.035,-0.237 0.101,-0.487 0.078,-0.729 -0.025,-0.268 -0.057,-0.527 -0.064,-0.797 -0.002,-0.099 0.02,-0.127 0.052,-0.217 0.067,-0.191 0.079,-0.462 0.079,-0.661 0,-0.184 -0.029,-0.385 0.022,-0.565 0.031,-0.111 0.076,-0.193 0.075,-0.313 -10e-4,-0.182 -0.124,-0.358 -0.119,-0.536 0.077,0.002 0.165,0.001 0.247,-0.01 l -0.168,-0.01 c -0.007,-10e-4 -0.014,-0.002 -0.021,-0.002 -0.017,-0.091 -0.081,-0.157 -0.09,-0.25 -0.005,-0.052 -0.005,-0.115 -10e-4,-0.168 0.101,-0.036 0.225,0.015 0.33,-0.013 0.047,-0.013 0.079,-0.043 0.116,-0.073 0.073,-0.059 0.142,-0.117 0.221,-0.166 0.037,-0.023 0.07,-0.054 0.109,-0.075 0.05,-0.027 0.116,-0.033 0.161,-0.065 0.064,-0.047 0.097,-0.152 0.18,-0.181 0.042,-0.015 0.085,0 0.128,-0.016 0.086,-0.031 0.154,-0.051 0.247,-0.06 0.049,-0.005 0.117,-0.013 0.153,-0.031 0.11,-0.058 0.198,-0.164 0.332,-0.177 0.079,-0.008 0.166,0.016 0.245,0.002 0.038,-0.007 0.057,-0.023 0.093,-0.041 0.096,-0.048 0.202,-0.052 0.3,-0.09 0.043,-0.017 0.044,-0.04 0.079,-0.059 0.022,-0.012 0.053,-0.01 0.077,-0.02 0.037,-0.014 0.071,-0.034 0.104,-0.054 0.039,-0.064 0.083,-0.12 0.145,-0.148 0.063,-0.012 0.126,-0.029 0.187,-0.049 0.104,-0.029 0.206,-0.064 0.306,-0.108 0.105,-0.035 0.173,-0.035 0.275,-0.05 0.023,-0.091 0.118,-0.101 0.189,-0.086 0.038,0.098 -0.021,0.205 -0.02,0.303 0.001,0.071 -0.012,0.132 -0.018,0.203 -0.016,0.153 0.004,0.309 -0.005,0.462 -0.012,0.215 -0.044,0.428 -0.093,0.636 -0.041,0.18 -0.046,0.383 -0.074,0.567 -0.028,0.178 -0.076,0.383 -0.084,0.566 -0.009,0.22 0.008,0.448 0.011,0.668 0,0.029 0.012,0.12 0.005,0.16 -0.035,0.023 -0.049,0.062 -0.043,0.116 -0.019,0.318 -0.027,0.637 -0.024,0.955 -0.002,0.411 0.007,0.822 0.012,1.233 0.003,0.207 -0.002,0.417 0.029,0.623 0.01,0.07 0.04,0.145 0.041,0.217 0,0.086 -0.045,0.181 -0.07,0.261 -0.035,0.114 -0.038,0.203 -0.036,0.319 0.004,0.325 0.029,0.669 -0.047,0.985 -0.046,0.189 -0.118,0.334 -0.135,0.536 -0.017,0.205 -0.035,0.393 -0.088,0.592 -0.039,0.149 -0.076,0.294 -0.106,0.446 -0.073,0.375 0.032,0.76 0.037,1.14 C 0.003,0.016 0.002,0.008 0,0"
             style="fill:#100f0d;fill-opacity:1;fill-rule:nonzero;stroke:none"
             id="path55315" />
        </g>
        <g
           id="g55317"
           transform="translate(197.503,440.774)">
          <path
             d="M 0,0 C 0.01,0.016 0.018,0.033 0.023,0.05 0.016,0.044 0.009,0.039 0,0"
             style="fill:#100f0d;fill-opacity:1;fill-rule:nonzero;stroke:none"
             id="path55319" />
        </g>
        <g
           id="g55321"
           transform="translate(193.579,438.158)">
          <path
             d="m 0,0 c -0.007,-0.261 -0.006,-0.522 -0.01,-0.783 -0.004,-0.345 -0.055,-0.676 -0.071,-1.022 -0.028,-0.629 -0.015,-1.263 -0.024,-1.893 -0.005,-0.359 -0.01,-0.718 -0.015,-1.077 -0.003,-0.276 -0.026,-0.559 -0.009,-0.834 0.01,-0.156 0.017,-0.332 0.065,-0.479 0.047,-0.146 0.125,-0.245 0.118,-0.4 C 0.048,-6.614 0.045,-6.734 0.063,-6.858 0.08,-6.981 0.102,-7.1 0.097,-7.224 0.093,-7.323 0.123,-7.407 0.121,-7.507 0.12,-7.582 0.102,-7.683 0.114,-7.755 c 0.019,-0.116 0.155,-0.132 0.243,-0.133 0.133,-0.001 0.23,0.013 0.354,0.062 0.076,0.03 0.134,0.053 0.201,0.106 0.027,0.021 0.084,0.072 0.121,0.087 0.02,0.007 0.046,0.003 0.061,0.009 0.066,0.028 0.138,0.075 0.205,0.108 0.101,0.05 0.181,0.118 0.254,0.199 0.066,0.032 0.133,0.061 0.198,0.095 0.127,0.065 0.207,0.178 0.315,0.272 0.142,0.124 0.295,0.243 0.447,0.35 0.157,0.109 0.302,0.129 0.479,0.206 0.092,0.04 0.178,0.108 0.273,0.142 0.049,0.017 0.102,0.018 0.151,0.034 0.095,0.031 0.18,0.095 0.275,0.132 0.099,0.039 0.188,0.068 0.292,0.071 0.054,10e-4 0.076,-0.003 0.109,0.042 0.033,0.045 0.064,0.109 0.057,0.167 -0.005,0.044 -0.024,0.083 -0.029,0.127 -0.006,0.068 0.004,0.142 0.005,0.21 0.005,0.372 -0.037,0.738 -0.042,1.109 -0.004,0.277 0.026,0.538 -0.029,0.81 -0.03,0.147 -0.071,0.298 -0.092,0.446 -0.035,0.244 -0.027,0.503 -0.039,0.75 -0.008,0.164 -0.004,0.33 0,0.495 0.008,0.083 0.011,0.166 0.005,0.246 0.002,0.11 0.007,0.22 0.006,0.329 C 3.933,-1.178 3.9,-1.089 3.885,-0.987 3.866,-0.853 3.882,-0.708 3.87,-0.571 3.859,-0.451 3.848,-0.328 3.832,-0.208 3.819,-0.111 3.783,-0.021 3.781,0.08 3.78,0.151 3.782,0.223 3.785,0.295 3.798,0.433 3.813,0.57 3.818,0.709 3.83,0.98 3.827,1.251 3.831,1.522 V 1.524 C 3.859,1.817 3.893,2.11 3.898,2.404 3.908,2.52 3.916,2.582 3.924,2.617 3.901,2.578 3.866,2.542 3.828,2.507 3.817,2.531 3.8,2.55 3.772,2.567 3.74,2.588 3.702,2.599 3.667,2.614 3.533,2.675 3.399,2.753 3.26,2.8 3.045,2.873 2.814,2.905 2.595,2.962 2.46,2.997 2.325,3.021 2.19,3.054 2.052,3.088 1.919,3.109 1.776,3.108 1.391,3.102 1.008,2.961 0.632,3.145 0.487,3.216 0.366,3.335 0.218,3.403 0.136,3.44 0.049,3.459 0.186,3.401 0.179,3.399 0.171,3.397 0.163,3.396 0.139,3.321 0.163,3.223 0.153,3.145 0.134,2.998 0.119,2.857 0.121,2.708 0.122,2.613 0.169,2.533 0.174,2.439 0.18,2.345 0.173,2.244 0.17,2.149 0.167,2.016 0.138,1.89 0.136,1.755 0.135,1.616 0.111,1.489 0.088,1.352 0.077,1.285 0.075,1.222 0.073,1.154 0.069,0.994 0.041,0.834 0.037,0.673 0.034,0.576 0.04,0.478 0.036,0.381 0.029,0.253 0.004,0.128 0,0"
             style="fill:#100f0d;fill-opacity:1;fill-rule:nonzero;stroke:none"
             id="path55323" />
        </g>
        <g
           id="g55325"
           transform="translate(211.284,430.204)">
          <path
             d="m 0,0 c -0.088,0.015 -0.17,0.028 -0.255,0.055 -0.088,0.028 -0.173,0.058 -0.256,0.09 0.029,0.005 0.067,0.013 0.073,0.044 0.01,0.056 -0.026,0.03 -0.054,0.049 -0.06,0.041 -0.073,0.056 -0.147,0.058 C -0.836,0.3 -1.03,0.284 -1.224,0.27 c 0.003,0.053 0.006,0.105 0.007,0.159 0.005,0.199 -0.025,0.397 -0.02,0.598 0.003,0.116 -0.002,0.22 -0.018,0.334 -0.014,0.102 -0.01,0.207 -0.022,0.309 -0.016,0.135 -0.045,0.264 -0.072,0.395 -0.05,0.252 -0.084,0.51 -0.127,0.763 -0.042,0.243 -0.064,0.491 -0.08,0.737 -0.005,0.07 0.001,0.151 -0.014,0.219 -0.005,0.021 -0.012,0.04 -0.018,0.059 -0.005,0.066 -0.01,0.132 -0.018,0.199 -0.009,0.073 -0.018,0.146 -0.027,0.22 -0.007,0.229 -0.006,0.458 -10e-4,0.687 0.003,0.159 0,0.31 -0.02,0.469 -0.028,0.224 -0.021,0.443 -0.017,0.668 0.008,0.574 -0.012,1.154 0.024,1.727 0.006,0.093 0.01,0.122 -0.052,0.198 -0.081,0.1 -0.162,0.197 -0.221,0.311 -0.078,0.149 -0.043,0.36 -0.019,0.523 0.012,0.085 0.017,0.17 0.018,0.255 0,0.046 0.016,0.13 -10e-4,0.172 -0.014,0.036 -0.052,0.08 -0.076,0.114 -0.04,0.06 -0.063,0.097 -0.053,0.176 0.008,0.054 0.054,0.104 0.057,0.156 0.002,0.041 -0.023,0.077 -0.026,0.12 -0.006,0.111 0.004,0.225 0.006,0.336 0.003,0.23 0.005,0.461 0.009,0.691 0.002,0.105 -0.003,0.196 -0.022,0.298 -0.016,0.083 -0.012,0.181 -0.039,0.26 -0.028,0.081 -0.037,0.095 -0.035,0.185 0.002,0.089 0.003,0.178 0.004,0.266 10e-4,0.097 0.027,0.226 0.006,0.321 -0.011,0.048 -0.061,0.072 -0.077,0.123 -0.024,0.082 0.041,0.195 0.08,0.261 0.025,0.044 0.112,0.102 0.112,0.155 10e-4,0.109 -0.184,0.036 -0.228,0.019 -0.032,-0.013 -0.086,-0.021 -0.139,-0.033 -0.003,0.028 -0.007,0.052 -0.014,0.072 -0.056,-0.029 -0.125,-0.057 -0.181,-0.086 -0.02,-0.01 -0.043,-0.015 -0.064,-0.02 -0.138,0.024 -0.18,0.004 -0.227,-0.012 -0.041,0.003 -0.082,0.006 -0.12,0.007 -0.168,0.002 -0.336,0.004 -0.504,0.007 -0.314,0.007 -0.649,-0.012 -0.945,-0.127 -0.158,-0.061 -0.34,-0.012 -0.501,-0.067 -0.204,-0.07 -0.461,-0.03 -0.663,-0.018 -0.482,0.028 -0.959,0.101 -1.441,0.13 -0.429,0.026 -0.857,0.069 -1.287,0.096 -0.406,0.025 -0.816,0.013 -1.22,0.073 -0.524,0.077 -1.054,0.189 -1.583,0.224 -0.06,0.004 -0.121,0.007 -0.182,0.01 -0.032,0.01 -0.065,0.02 -0.103,0.03 -0.273,0.066 -0.562,0.136 -0.84,0.167 -0.15,0.015 -0.299,-10e-4 -0.447,-0.048 -0.275,-0.057 -0.548,-0.126 -0.818,-0.207 -0.117,-0.032 -0.205,-0.046 -0.319,-0.089 -0.296,-0.111 -0.61,-0.11 -0.916,-0.168 -0.197,-0.038 -0.38,-0.04 -0.575,0.009 -0.117,0.03 -0.218,0.061 -0.342,0.06 -0.052,0 -0.105,10e-4 -0.157,0.002 -0.211,0.004 -0.42,-0.038 -0.63,-0.048 -0.227,-0.01 -0.469,-0.016 -0.697,0.003 -0.064,0.005 -0.07,0.028 -0.12,0.038 -0.066,-0.01 -0.13,-0.028 -0.192,-0.054 -0.076,-0.039 -0.155,-0.062 -0.238,-0.07 -0.154,-0.024 -0.309,-0.025 -0.463,-0.021 -0.065,0.002 -0.133,-0.005 -0.196,0.015 -0.01,-0.042 -0.021,-0.084 -0.033,-0.127 -0.082,-10e-4 -0.165,0 -0.244,0.009 -0.074,0.009 -0.142,0.041 -0.216,0.052 -0.094,0.015 -0.189,0.014 -0.284,0.034 -0.047,-0.078 -0.085,-0.143 -0.088,-0.236 -0.004,-0.109 -0.012,-0.209 -0.023,-0.319 -0.027,-0.274 0.01,-0.549 -0.042,-0.821 -0.032,-0.165 -0.061,-0.306 -0.062,-0.475 -0.001,-0.162 -0.004,-0.324 -0.006,-0.486 -0.004,-0.259 0.001,-0.516 -0.031,-0.772 -0.011,-0.089 -0.007,-0.177 -0.01,-0.266 -0.006,-0.22 0.056,-0.405 0.099,-0.624 0.054,-0.273 0.079,-0.527 0.069,-0.803 -0.008,-0.211 0.018,-0.419 0.018,-0.629 0,-0.382 -0.012,-0.763 -0.017,-1.144 -0.004,-0.351 -0.013,-0.697 0.039,-1.045 0.101,-0.669 -0.141,-1.324 -0.187,-1.987 -0.017,-0.243 -0.008,-0.495 0.056,-0.731 0.016,-0.057 0.082,-0.234 0.064,-0.305 -0.045,-0.07 -0.073,-0.148 -0.085,-0.232 -0.027,-0.099 -0.048,-0.2 -0.061,-0.303 -0.01,-0.136 -0.012,-0.317 0.045,-0.442 0.07,-0.156 0.165,-0.398 0.086,-0.569 -0.031,-0.069 -0.034,-0.104 -0.036,-0.182 -10e-4,-0.045 -0.007,-0.089 0.008,-0.133 0.033,-0.094 0.111,-0.171 0.122,-0.273 0.003,-0.022 0,-0.038 -0.001,-0.05 -0.002,0 -0.004,-0.001 -0.006,-0.001 -0.067,0.009 -0.134,0.019 -0.203,0.02 -0.037,0 -0.092,0.013 -0.129,0.003 -0.034,-0.009 -0.037,-0.045 -0.081,-0.031 -0.011,-0.026 -0.035,-0.048 -0.058,-0.068 -0.026,0.001 -0.054,0.002 -0.059,0.001 -0.067,-0.009 -0.137,-0.023 -0.201,-0.047 -0.093,-0.034 -0.181,-0.085 -0.272,-0.123 -0.039,-0.016 -0.07,-0.04 -0.105,-0.057 -0.034,-0.017 -0.08,-0.013 -0.11,-0.03 -0.031,-0.017 -0.043,-0.039 -0.078,-0.053 -0.056,-0.023 -0.118,-0.024 -0.185,-0.016 0.042,-0.054 0.147,-0.101 0.204,-0.125 0.175,-0.076 0.368,-0.065 0.552,-0.101 0.135,-0.026 0.264,-0.037 0.394,-0.084 0.101,-0.036 0.208,-0.029 0.313,-0.03 0.095,-0.001 0.198,-0.018 0.292,0.002 0.139,0.029 0.292,0.017 0.425,0.068 0.121,0.047 0.244,-0.003 0.367,0.024 0.052,0.011 0.09,0.024 0.146,0.023 0.029,-0.001 0.068,-0.015 0.084,0.012 0.011,0.018 -0.018,0.076 -0.024,0.095 -0.025,0.084 -0.042,0.174 -0.089,0.251 -0.013,0.021 -0.024,0.042 -0.034,0.062 0.024,0 0.048,0.001 0.068,0.005 0.002,0.006 0.003,0.011 0.005,0.016 0.015,0.063 0.026,0.132 0.034,0.203 h 0.001 c 0,0.004 0,0.008 0,0.012 0.019,0.182 0.015,0.378 -0.013,0.541 -0.01,0.054 -0.023,0.106 -0.038,0.159 -0.012,0.125 -0.027,0.26 -0.051,0.379 -0.011,0.059 -0.027,0.115 -0.043,0.172 -10e-4,0.124 0.007,0.248 0.016,0.371 0.029,0.39 0,0.755 -0.085,1.134 -0.023,0.104 -0.052,0.207 -0.074,0.312 -0.036,0.165 -0.042,0.333 -0.066,0.5 -0.017,0.114 -0.037,0.228 -0.054,0.342 -0.023,0.152 -0.073,0.3 -0.073,0.455 0,0.308 0.053,0.639 0.113,0.94 0.063,0.311 0.073,0.619 0.077,0.931 0.028,0.205 0.047,0.411 0.05,0.618 0.001,0.106 0.009,0.214 0.007,0.319 -0.003,0.15 -0.049,0.283 -0.056,0.431 -0.003,0.071 0.01,0.141 0.008,0.211 -0.004,0.105 -0.026,0.205 -0.026,0.312 -0.001,0.253 -0.039,0.48 0.005,0.733 0.04,0.233 0.013,0.49 0.016,0.728 0.001,0.076 0.002,0.151 0.003,0.227 0.018,0.155 0.045,0.308 0.057,0.463 0.018,0.233 0.012,0.468 0.014,0.701 0.002,0.093 0.005,0.187 0.008,0.282 0.019,0.086 0.054,0.142 0.057,0.241 0.006,0.195 -0.042,0.45 0.045,0.63 0.026,0.054 0.063,0.08 0.118,0.089 0.139,0.022 0.291,-0.027 0.43,-0.027 0.166,0 0.332,-0.007 0.499,-0.005 0.242,0.003 0.474,0.042 0.713,0.057 0.062,0.004 0.188,0.003 0.256,0.015 0.132,0.024 0.32,0.115 0.429,0.155 0.159,0.065 0.321,0.12 0.485,0.166 0.106,0.039 0.215,0.063 0.326,0.074 0.167,-10e-4 0.35,-0.068 0.509,-0.096 0.356,-0.061 0.712,-0.056 1.071,-0.059 0.204,-0.037 0.408,-0.069 0.618,-0.073 0.359,-0.007 0.719,-0.002 1.078,0.005 0.658,0.012 1.315,-0.005 1.973,-0.011 0.475,-0.005 0.949,-0.057 1.424,-0.079 0.332,-0.015 0.655,-0.084 0.986,-0.104 0.266,-0.015 0.532,-0.011 0.798,-0.014 0.27,-0.004 0.549,-0.03 0.819,-0.008 0.151,0.013 0.294,0.054 0.442,0.085 0.256,0.053 0.526,0.023 0.785,0.018 0.221,-0.005 0.517,-0.055 0.735,0.002 0.075,0.019 0.087,0.041 0.143,0.066 -0.043,-0.127 -0.029,-0.263 -0.021,-0.4 0.05,-0.795 0.27,-1.582 0.433,-2.357 0.05,-0.236 0.14,-0.461 0.183,-0.696 0.026,-0.139 0.056,-0.279 0.078,-0.421 0.049,-0.31 0.076,-0.601 0.071,-0.92 C -2.626,7.039 -2.636,6.682 -2.641,6.325 -2.643,6.301 -2.646,6.278 -2.648,6.254 -2.677,5.849 -2.663,5.437 -2.669,5.031 -2.676,4.461 -2.716,3.879 -2.682,3.308 c 0.024,-0.397 0.095,-0.789 0.11,-1.187 0,-0.002 0,-0.003 0,-0.004 C -2.596,1.912 -2.629,1.705 -2.616,1.5 -2.609,1.403 -2.592,1.306 -2.583,1.208 -2.567,1.05 -2.571,0.887 -2.545,0.729 -2.534,0.656 -2.512,0.589 -2.49,0.521 -2.491,0.443 -2.493,0.364 -2.494,0.286 -2.496,0.174 -2.514,0.05 -2.5,-0.061 c -0.01,-0.004 -0.018,-0.008 -0.029,-0.012 0.022,-0.02 0.04,-0.043 0.058,-0.066 0.007,-0.009 0.013,-0.018 0.02,-0.028 0.017,-0.025 0.032,-0.051 0.044,-0.078 0.003,0 0.006,0 0.009,0.001 0,-0.005 -10e-4,-0.01 0,-0.016 0.014,-0.111 0.08,-0.124 0.174,-0.123 0.219,0.002 0.426,0.042 0.637,0.087 0.101,0.022 0.186,0.009 0.281,0.055 0.261,0.126 0.561,0.075 0.836,0.141 0.134,0.033 0.252,0.037 0.388,0.035 C 0.01,-0.067 0.101,-0.084 0.175,-0.021 0.127,-0.003 0.052,-0.009 0,0"
             style="fill:#100f0d;fill-opacity:1;fill-rule:nonzero;stroke:none"
             id="path55327" />
        </g>
        <g
           id="g55329"
           transform="translate(194.988,426.703)">
          <path
             d="M 0,0 C 0.01,-0.032 0.159,-0.05 0.258,-0.058 0.2,0.02 0.085,0.055 0,0"
             style="fill:#100f0d;fill-opacity:1;fill-rule:nonzero;stroke:none"
             id="path55331" />
        </g>
        <g
           id="g55333"
           transform="translate(195.329,426.641)">
          <path
             d="M 0,0 C -0.001,0 -0.002,0 -0.003,0 -0.016,0 -0.047,0.002 -0.084,0.005 -0.08,0 -0.075,-0.003 -0.073,-0.008 -0.049,-0.004 -0.024,-0.003 0,0"
             style="fill:#100f0d;fill-opacity:1;fill-rule:nonzero;stroke:none"
             id="path55335" />
        </g>
        <g
           id="g55337"
           transform="translate(200.922,429.601)">
          <path
             d="M 0,0 C -0.005,-0.002 -0.01,-0.005 -0.012,-0.005 -0.014,-0.007 -0.007,-0.004 0.002,0 0.002,0 0.001,0 0,0"
             style="fill:#100f0d;fill-opacity:1;fill-rule:nonzero;stroke:none"
             id="path55339" />
        </g>
        <g
           id="g55341"
           transform="translate(207.644,426.852)">
          <path
             d="m 0,0 c 0.003,-0.057 -0.05,-0.105 -0.105,-0.105 l -0.77,-0.092 c -0.058,0 0.35,0.14 0.347,0.197 L 0.214,0.197 C 0.273,0.197 -0.003,0.057 0,0 m -1.459,-0.197 c -0.254,0 -0.253,0.394 0,0.394 0.254,0 0.254,-0.394 0,-0.394 m -0.85,0.292 C -2.6,0.077 -2.895,0.07 -3.187,0.094 -3.481,0.119 -3.81,0.163 -4.041,0.365 c -0.063,0.056 0.102,0.225 0.147,0.294 0.133,0.209 0.212,0.229 0.445,0.265 0.237,0.036 0.476,0.043 0.716,0.043 0.099,0 0.158,-0.06 0.18,-0.133 0.002,0 0.004,0 0.006,0 0.136,0.002 0.197,-0.11 0.186,-0.216 C -2.267,0.566 -2.187,0.493 -2.138,0.391 -2.072,0.253 -2.153,0.105 -2.309,0.095 M -4.836,1.094 C -4.964,0.988 -4.964,0.988 -5.287,0.908 -5.389,0.883 -5.495,0.883 -5.599,0.887 -5.606,0.879 -5.616,0.871 -5.628,0.866 -5.795,0.784 -5.972,0.746 -6.158,0.745 c -0.103,-0.001 -0.492,-0.06 -0.432,0 -0.016,0.052 0.367,0.294 0.43,0.312 0.407,0.115 0.828,0.187 1.25,0.216 0.087,0.006 0.142,-0.122 0.074,-0.179 m -1.8,0.356 c -0.007,0.005 -0.014,0.011 -0.021,0.016 -0.013,0.013 -0.022,0.028 -0.027,0.046 0.004,0.013 0.016,0.092 0.027,0.102 0.009,0.01 -0.365,0.026 -0.352,0.031 0.013,0.006 0.411,0 0.426,0 0.012,0 0.023,-0.002 0.034,-0.004 C -6.537,1.64 -6.526,1.639 -6.515,1.636 -6.501,1.632 -6.486,1.625 -6.473,1.619 -6.467,1.616 -6.462,1.613 -6.456,1.61 -6.432,1.593 -6.41,1.574 -6.395,1.547 -6.38,1.52 -6.373,1.491 -6.372,1.46 -6.372,1.432 -6.384,1.407 -6.403,1.386 -6.416,1.373 -6.431,1.364 -6.449,1.359 -6.458,1.358 -6.468,1.357 -6.477,1.356 -6.491,1.355 -6.505,1.358 -6.517,1.365 -6.53,1.369 -6.542,1.376 -6.551,1.386 c -0.01,0.01 -0.017,0.021 -0.022,0.034 -0.002,0.004 -10e-4,0.009 -0.003,0.014 -0.001,0 -0.003,0.001 -0.005,0.001 -10e-4,0 -10e-4,0 -0.002,0 -0.019,0 -0.037,0.005 -0.053,0.015 m 0.164,1.165 C -6.485,2.628 -6.493,2.642 -6.498,2.659 -6.507,2.674 -6.734,2.726 -6.734,2.744 -6.735,2.747 -6.73,2.748 -6.722,2.749 -6.7,2.76 -6.649,2.784 -6.595,2.809 -6.647,2.784 -6.696,2.76 -6.72,2.75 c 0.047,0.006 0.205,-0.004 0.209,0.011 0.001,0.026 0.009,0.051 0.023,0.073 0.01,0.014 0.021,0.027 0.031,0.04 0.068,0.017 0.431,0.104 0.408,-0.301 0.023,0.405 0.008,0.005 0.018,-10e-4 0.025,-0.002 0.002,0 0,0 C -6.037,2.573 -6.043,2.573 -6.049,2.573 -6.067,2.56 -6.085,2.548 -6.106,2.538 -6.128,2.528 -6.152,2.516 -6.177,2.512 c -0.054,-0.009 -0.069,-0.01 -0.124,0 -0.041,0.007 -0.673,-0.032 -0.707,-0.007 -0.023,0.012 0.55,0.089 0.536,0.11 M -7.858,1.273 C -7.838,1.287 -8.339,1.268 -8.343,1.264 -8.376,1.228 -8.347,1.262 -8.365,1.238 -8.368,1.234 -8.369,1.231 -8.372,1.227 -8.307,1.116 -8.307,0.981 -8.406,0.873 -8.49,0.781 -8.935,0.548 -9.052,0.523 -9.209,0.49 -9.208,0.662 -9.368,0.656 -9.513,0.651 -9.514,0.659 -9.659,0.674 c -0.109,0.011 -0.547,-0.02 -0.641,0.044 -0.127,0.086 0.172,0.296 0.298,0.381 0.389,0.263 0.878,0.276 1.319,0.391 -0.013,-0.009 -0.019,-0.015 0.003,0.001 0.008,0.002 0.015,0.002 0.022,0.003 0.006,0.008 0.008,0.012 0.008,0.014 0.077,0.033 0.165,-0.006 0.405,0.052 0,0 0.474,-0.225 0.387,-0.287 m -2.974,-0.195 c -0.14,-0.069 -0.315,-0.099 -0.45,0 -0.035,0.025 -0.056,0.06 -0.05,0.104 0.064,0.004 0.356,0.144 0.421,0.144 0.052,0 0.091,-0.039 0.101,-0.088 0.005,-0.005 0.319,0.042 0.324,0.035 0.029,-0.045 -0.296,-0.171 -0.346,-0.195 m 0.052,-1.715 c -0.224,-0.139 -0.433,-0.174 -0.685,-0.133 -0.251,0.04 -1.567,0.172 -1.703,0.396 -0.057,0.095 0.423,0.168 0.511,0.225 -0.013,0.042 0.246,0.114 0.286,0.133 0.116,0.058 0.907,0.094 1.038,0.095 0.058,0 -0.564,-0.049 -0.562,-0.106 0.002,-0.041 -0.025,-0.076 -0.061,-0.093 0.032,-0.016 0.955,-0.191 1.083,-0.244 -0.146,0.024 -0.577,0.074 -0.443,0.003 0.135,-0.071 0.657,-0.201 0.536,-0.276 M 1.754,0.866 C 1.569,0.983 1.319,1.094 1.055,1.061 0.901,1.042 0.753,0.954 0.601,0.92 0.499,0.898 0.408,0.878 0.305,0.851 -0.026,0.763 -0.362,0.672 -0.72,0.661 -0.921,0.655 -1.112,0.67 -1.193,0.827 c -0.134,0.261 0.294,0.433 0.539,0.556 0.199,0.1 0.405,0.192 0.606,0.291 C 0.02,1.707 0.045,1.73 0.083,1.777 0.118,1.819 0.173,1.885 0.194,1.933 0.204,2.032 0.192,2.13 0.16,2.227 0.167,2.344 0.098,2.417 -0.048,2.448 -0.119,2.449 -0.189,2.45 -0.26,2.451 c -0.085,10e-4 -0.168,0.01 -0.249,0.028 -0.15,0.015 -0.288,0.017 -0.443,0.022 -0.24,0.009 -0.474,0.021 -0.715,0.022 -0.3,10e-4 -0.554,0.02 -0.835,-0.06 C -2.945,2.337 -3.371,2.125 -3.843,2.05 -3.955,2.033 -4.074,2.023 -4.189,2.018 -4.357,2.011 -4.54,1.962 -4.706,1.98 c -0.24,0.026 -0.373,0.153 -0.183,0.297 0.188,0.142 0.482,0.226 0.71,0.332 0.135,0.063 0.239,0.092 0.39,0.128 0.072,0.017 0.213,0.037 0.266,0.075 0.069,0.049 0.014,0.146 -0.038,0.188 -0.2,0.163 -0.509,0.073 -0.76,0.138 -0.177,0.045 -0.42,0.071 -0.435,0.232 -0.019,0.214 -10e-4,0.396 0.219,0.556 0.138,0.1 0.452,0.139 0.254,0.316 -0.084,0.074 -0.183,0.092 -0.302,0.115 -0.262,0.05 -0.532,0.046 -0.782,0.125 -0.265,0.082 -0.212,0.335 -0.168,0.499 0.031,0.118 0.143,0.149 0.291,0.195 0.14,0.044 0.303,0.11 0.406,0.192 0.098,0.077 0.136,0.125 0.126,0.235 -0.011,0.116 -0.122,0.184 -0.232,0.263 -0.324,0.231 -0.779,0.358 -1.207,0.459 -0.02,0.044 0.1,0.15 0.142,0.176 0.085,0.051 0.212,0.058 0.313,0.089 0.115,0.034 0.216,0.086 0.319,0.133 0.114,0.051 0.151,0.069 0.192,0.166 0.039,0.095 0.077,0.153 0.01,0.245 C -5.304,7.312 -5.613,7.38 -5.867,7.438 -6.13,7.499 -6.353,7.496 -6.583,7.604 -6.631,7.627 -6.719,7.664 -6.747,7.71 -6.721,7.659 -6.642,7.606 -6.6,7.57 -6.537,7.516 -6.466,7.487 -6.393,7.443 -6.34,7.413 -6.307,7.372 -6.251,7.341 -6.151,7.286 -6.049,7.233 -5.956,7.172 -5.903,7.138 -5.883,7.099 -5.84,7.061 -5.791,7.017 -5.735,7.016 -5.732,6.956 -5.728,6.892 -5.773,6.86 -5.794,6.848 -5.942,6.843 -6.074,6.808 -6.223,6.795 -6.287,6.789 -6.334,6.775 -6.395,6.768 -6.476,6.759 -6.575,6.772 -6.657,6.771 -6.838,6.769 -7.051,6.761 -7.21,6.697 -7.267,6.673 -7.371,6.614 -7.362,6.556 -7.358,6.532 -7.326,6.527 -7.311,6.507 -7.283,6.47 -7.279,6.433 -7.246,6.397 -7.173,6.318 -7.065,6.293 -6.948,6.25 -6.844,6.212 -6.76,6.209 -6.649,6.186 -6.575,6.17 -6.519,6.144 -6.454,6.114 -6.28,6.032 -6.164,5.948 -6.187,5.786 -6.201,5.682 -6.372,5.555 -6.494,5.502 -6.636,5.44 -6.754,5.429 -6.915,5.41 -7.341,5.358 -7.765,5.303 -8.186,5.236 -8.327,5.213 -8.46,5.178 -8.582,5.122 -8.627,5.101 -8.673,5.083 -8.719,5.064 -8.778,5.039 -8.767,5.039 -8.802,4.992 -8.913,4.843 -8.898,4.652 -8.722,4.526 -8.568,4.416 -8.37,4.434 -8.183,4.375 -8.11,4.352 -8.036,4.31 -7.955,4.288 -7.872,4.266 -7.79,4.242 -7.709,4.218 -7.692,4.203 -7.676,4.189 -7.66,4.174 -7.618,4.147 -7.597,4.161 -7.582,4.115 -7.574,4.092 -7.587,4.059 -7.585,4.035 -7.577,3.918 -7.676,3.856 -7.765,3.76 -7.94,3.571 -8.219,3.418 -8.455,3.268 -8.536,3.217 -8.737,3.072 -8.867,3.037 -8.97,3.01 -9.088,3.007 -9.196,2.992 -9.342,2.972 -9.476,2.976 -9.625,2.974 -9.859,2.971 -10.088,2.937 -10.321,2.924 -10.61,2.909 -10.903,2.937 -11.192,2.921 -11.381,2.911 -11.568,2.867 -11.754,2.846 -11.802,2.84 -11.85,2.842 -11.897,2.833 -12.014,2.794 -12.13,2.754 -12.245,2.712 c -0.091,-0.024 -0.178,-0.053 -0.262,-0.087 -0.111,-0.063 -0.201,-0.13 -0.181,-0.238 0.016,-0.083 0.104,-0.145 0.141,-0.223 0.066,-0.14 -0.122,-0.28 -0.245,-0.379 -0.085,-0.069 -0.175,-0.087 -0.304,-0.085 -0.183,0.003 -0.329,-0.008 -0.474,-0.093 -0.073,-0.041 -0.147,-0.099 -0.212,-0.149 -0.085,-0.067 -0.17,-0.143 -0.243,-0.217 -0.146,-0.146 -0.318,-0.346 -0.363,-0.525 -0.026,-0.105 0.034,-0.128 0.133,-0.211 0.072,-0.061 0.144,-0.121 0.219,-0.179 0.105,-0.082 0.148,-0.114 0.145,-0.225 -0.003,-0.111 0.099,-0.297 -10e-4,-0.381 -0.117,-0.1 -0.26,-0.158 -0.175,-0.31 0.073,-0.129 0.309,-0.209 0.461,-0.273 0.314,-0.134 0.642,-0.255 0.975,-0.364 0.246,-0.08 0.488,-0.135 0.753,-0.176 0.318,-0.05 0.682,-0.152 1.011,-0.146 0.229,0.005 0.445,0.08 0.668,0.106 0.201,0.023 0.395,0.008 0.595,-0.005 0.227,-0.015 0.46,-0.027 0.681,-0.071 0.164,-0.033 0.309,-0.097 0.471,-0.131 0.123,-0.026 0.26,-0.011 0.379,-0.047 0.092,-0.029 0.173,-0.071 0.271,-0.095 0.13,-0.032 0.248,-0.041 0.386,-0.043 0.203,-0.004 0.629,-0.058 0.759,0.085 0.084,0.092 0.111,0.258 0.125,0.363 0.01,0.076 0.007,0.151 0.006,0.226 0,0.096 10e-4,0.187 -0.028,0.282 -0.014,0.041 -0.049,0.092 -0.053,0.134 -0.012,0.149 0.265,0.18 0.422,0.214 0.303,0.066 0.785,0.164 1.057,-0.009 0.119,-0.075 0.189,-0.168 0.329,-0.228 0.068,-0.028 0.139,-0.055 0.207,-0.083 0.194,-0.079 0.406,-0.088 0.624,-0.113 0.379,-0.042 0.748,-0.084 1.133,-0.07 0.38,0.014 0.787,0.023 1.162,0.062 0.327,0.033 0.632,0.113 0.942,0.188 0.899,0.218 1.821,0.537 2.437,1.063 C 1.8,0.36 2.075,0.535 2.004,0.666 1.962,0.74 1.83,0.819 1.754,0.866"
             style="fill:#100f0d;fill-opacity:1;fill-rule:nonzero;stroke:none"
             id="path55343" />
        </g>
      </g>
    </g>
  </g>
</svg>
