<svg width="28" height="24" viewBox="0 0 28 24" fill="#000000" xmlns="http://www.w3.org/2000/svg">
  <path d="M21.7022 2.13703C21.581 2.15267 21.4585 2.22046 21.3438 2.25956C21.2551 2.28954 21.1391 2.31822 21.0544 2.35733C20.7754 2.49289 20.4952 2.62585 20.2123 2.75359C20.0559 2.80443 19.9138 2.88525 19.7874 2.99475C19.7587 2.99996 19.73 3.00648 19.7013 3.013C19.5618 2.93869 19.425 2.85918 19.2881 2.77836C19.2281 2.73274 19.163 2.7197 19.0926 2.73795C18.7224 2.76142 18.3535 2.85788 18.0107 3.00778C17.8373 3.08339 17.6848 3.21374 17.5297 3.33366C17.4384 3.40535 17.3367 3.44446 17.2403 3.50572C17.2051 3.52788 17.1125 3.56438 17.0904 3.59958C17.0643 3.63999 17.0839 3.72993 17.0865 3.77686C17.0943 3.91764 17.1099 4.05972 17.1516 4.19138C17.1699 4.19007 17.1816 4.19789 17.1842 4.21484C17.1921 4.23048 17.1921 4.24743 17.1855 4.26567C17.2103 4.37126 17.1816 4.51725 17.1803 4.62675C17.1738 5.14946 17.1725 5.6826 17.2989 6.19097C17.3185 6.27179 17.3498 6.33305 17.342 6.41648C17.3263 6.58594 17.2468 6.7567 17.2181 6.92355C17.1725 7.18555 17.1647 7.45147 17.179 7.71739C17.1921 7.97809 17.265 8.22315 17.3015 8.48125C17.3224 8.62855 17.342 8.77715 17.3654 8.92445C17.411 9.23338 17.4971 9.55926 17.4671 9.87471C17.4345 10.2241 17.3928 10.5617 17.3837 10.9136C17.3811 11.0427 17.4097 11.0792 17.4515 11.1965C17.5388 11.4454 17.5544 11.7987 17.5544 12.0581C17.5544 12.2979 17.5166 12.56 17.5831 12.7946C17.6235 12.9393 17.6822 13.0462 17.6809 13.2026C17.6796 13.4398 17.5192 13.6692 17.5258 13.9013C17.6261 13.8987 17.7408 13.9 17.8477 13.9143L17.6287 13.9273C17.6196 13.9286 17.6105 13.93 17.6014 13.93C17.5792 14.0486 17.4958 14.1346 17.484 14.2558C17.4775 14.3236 17.4775 14.4057 17.4827 14.4748C17.6144 14.5217 17.776 14.4553 17.9129 14.4918C17.9742 14.5087 18.0159 14.5478 18.0641 14.5869C18.1593 14.6638 18.2492 14.7394 18.3522 14.8033C18.4004 14.8333 18.4434 14.8737 18.4943 14.9011C18.5594 14.9363 18.6455 14.9441 18.7041 14.9858C18.7876 15.0471 18.8306 15.1839 18.9388 15.2217C18.9935 15.2413 19.0496 15.2217 19.1056 15.2426C19.2177 15.283 19.3064 15.3091 19.4276 15.3208C19.4915 15.3273 19.5801 15.3378 19.627 15.3612C19.7704 15.4368 19.8851 15.575 20.0598 15.5919C20.1628 15.6024 20.2762 15.5711 20.3792 15.5893C20.4287 15.5985 20.4535 15.6193 20.5004 15.6428C20.6255 15.7053 20.7637 15.7106 20.8914 15.7601C20.9475 15.7822 20.9488 15.8122 20.9944 15.837C21.0231 15.8526 21.0635 15.85 21.0948 15.8631C21.143 15.8813 21.1873 15.9074 21.2303 15.9335C21.2812 16.0169 21.3385 16.0899 21.4194 16.1264C21.5015 16.142 21.5836 16.1642 21.6631 16.1903C21.7987 16.2281 21.9316 16.2737 22.062 16.331C22.1989 16.3767 22.2875 16.3767 22.4205 16.3962C22.4504 16.5148 22.5743 16.5279 22.6668 16.5083C22.7164 16.3806 22.6394 16.2411 22.6408 16.1133C22.6421 16.0208 22.6251 15.9413 22.6173 15.8487C22.5964 15.6493 22.6225 15.4459 22.6108 15.2465C22.5951 14.9662 22.5534 14.6886 22.4895 14.4175C22.4361 14.1828 22.4296 13.9182 22.3931 13.6784C22.3566 13.4463 22.294 13.1791 22.2836 12.9406C22.2719 12.6538 22.294 12.3566 22.2979 12.0698C22.2979 12.032 22.3136 11.9134 22.3044 11.8613C22.2588 11.8313 22.2406 11.7805 22.2484 11.7101C22.2236 11.2955 22.2132 10.8797 22.2171 10.4652C22.2145 9.92946 22.2262 9.39371 22.2328 8.85797C22.2367 8.58814 22.2301 8.3144 22.2706 8.04588C22.2836 7.95463 22.3227 7.85687 22.324 7.76301C22.324 7.65091 22.2653 7.52708 22.2328 7.42279C22.1871 7.27419 22.1832 7.15818 22.1858 7.00697C22.191 6.58333 22.2236 6.13492 22.1246 5.72301C22.0646 5.47664 21.9707 5.28763 21.9486 5.02432C21.9264 4.7571 21.903 4.51204 21.8339 4.25264C21.783 4.05842 21.7348 3.86941 21.6957 3.67127C21.6005 3.18245 21.7374 2.6806 21.7439 2.18526C21.7061 2.11617 21.7048 2.1266 21.7022 2.13703Z"/>
  <path d="M8.93428 3.44318C8.94732 3.42232 8.95774 3.40016 8.96426 3.378C8.95514 3.38582 8.94601 3.39234 8.93428 3.44318Z"/>
  <path d="M3.81926 6.85323C3.81014 7.19345 3.81144 7.53366 3.80623 7.87388C3.80101 8.3236 3.73453 8.75506 3.71368 9.20608C3.67718 10.026 3.69412 10.8524 3.68239 11.6736C3.67588 12.1416 3.66936 12.6096 3.66284 13.0775C3.65893 13.4373 3.62895 13.8062 3.65111 14.1647C3.66414 14.368 3.67327 14.5974 3.73584 14.789C3.7971 14.9794 3.89878 15.1084 3.88965 15.3104C3.88183 15.4747 3.87792 15.6311 3.90138 15.7928C3.92354 15.9531 3.95222 16.1082 3.9457 16.2698C3.94049 16.3989 3.97959 16.5084 3.97699 16.6387C3.97568 16.7365 3.95222 16.8682 3.96786 16.962C3.99263 17.1132 4.16991 17.1341 4.28462 17.1354C4.45799 17.1367 4.58443 17.1184 4.74606 17.0546C4.84513 17.0155 4.92073 16.9855 5.00807 16.9164C5.04326 16.889 5.11757 16.8225 5.1658 16.803C5.19187 16.7939 5.22576 16.7991 5.24531 16.7912C5.33134 16.7547 5.4252 16.6935 5.51253 16.6505C5.64419 16.5853 5.74847 16.4966 5.84362 16.3911C5.92966 16.3494 6.01699 16.3116 6.10172 16.2672C6.26727 16.1825 6.37155 16.0352 6.51233 15.9127C6.69743 15.751 6.89687 15.5959 7.095 15.4564C7.29965 15.3144 7.48866 15.2883 7.71939 15.1879C7.83931 15.1358 7.95141 15.0471 8.07525 15.0028C8.13912 14.9807 8.20821 14.9794 8.27208 14.9585C8.39591 14.9181 8.50671 14.8347 8.63054 14.7864C8.75959 14.7356 8.87561 14.6978 9.01117 14.6939C9.08156 14.6926 9.11024 14.6978 9.15326 14.6391C9.19627 14.5805 9.23668 14.4971 9.22756 14.4215C9.22104 14.3641 9.19627 14.3133 9.18975 14.2559C9.18193 14.1673 9.19497 14.0708 9.19627 13.9822C9.20279 13.4973 9.14804 13.0202 9.14152 12.5366C9.13631 12.1755 9.17542 11.8353 9.10372 11.4807C9.06462 11.2891 9.01117 11.0923 8.9838 10.8993C8.93817 10.5813 8.9486 10.2437 8.93296 9.92171C8.92253 9.70793 8.92775 9.49155 8.93296 9.27647C8.94339 9.16828 8.9473 9.06008 8.93948 8.9558C8.94209 8.81242 8.9486 8.66903 8.9473 8.52695C8.946 8.38877 8.90298 8.27276 8.88343 8.1398C8.85866 7.96513 8.87952 7.77612 8.86387 7.59754C8.84954 7.44111 8.8352 7.28078 8.81434 7.12436C8.79739 6.99792 8.75047 6.8806 8.74786 6.74895C8.74656 6.6564 8.74917 6.56254 8.75308 6.46869C8.77002 6.28881 8.78957 6.11022 8.79609 5.92903C8.81173 5.57578 8.80782 5.22253 8.81304 4.86927V4.86667C8.84954 4.48474 8.89385 4.10281 8.90037 3.71957C8.91341 3.56836 8.92384 3.48755 8.93426 3.44192C8.90428 3.49276 8.85866 3.53969 8.80913 3.58531C8.79479 3.55403 8.77263 3.52926 8.73613 3.5071C8.69442 3.47973 8.64488 3.46539 8.59926 3.44583C8.42459 3.36632 8.24992 3.26464 8.06873 3.20338C7.78847 3.10822 7.48736 3.06651 7.20189 2.99221C7.02591 2.94659 6.84994 2.9153 6.67396 2.87229C6.49408 2.82797 6.32071 2.80059 6.13431 2.8019C5.63245 2.80972 5.13321 2.99351 4.64309 2.75367C4.45407 2.66112 4.29635 2.506 4.10343 2.41736C3.99654 2.36913 3.88313 2.34436 4.06172 2.41997C4.05259 2.42257 4.04216 2.42518 4.03174 2.42648C4.00045 2.52425 4.03174 2.65199 4.0187 2.75367C3.99393 2.94528 3.97438 3.12908 3.97699 3.3233C3.97829 3.44714 4.03956 3.55142 4.04607 3.67395C4.0539 3.79648 4.04477 3.92814 4.04086 4.05197C4.03695 4.22534 3.99915 4.38958 3.99654 4.56556C3.99524 4.74674 3.96395 4.91229 3.93397 5.09087C3.91963 5.17821 3.91703 5.26033 3.91442 5.34897C3.9092 5.55753 3.87271 5.76609 3.86749 5.97596C3.86358 6.1024 3.8714 6.23015 3.86619 6.35659C3.85706 6.52344 3.82448 6.68638 3.81926 6.85323Z"/>
  <path d="M26.898 17.2213C26.7833 17.2018 26.6764 17.1849 26.5657 17.1497C26.4509 17.1132 26.3401 17.0741 26.232 17.0323C26.2698 17.0258 26.3193 17.0154 26.3271 16.975C26.3401 16.902 26.2932 16.9359 26.2567 16.9111C26.1785 16.8577 26.1616 16.8381 26.0651 16.8355C25.8083 16.8303 25.5554 16.8512 25.3025 16.8694C25.3065 16.8003 25.3104 16.7325 25.3117 16.6621C25.3182 16.4027 25.2791 16.1446 25.2856 15.8826C25.2895 15.7314 25.283 15.5959 25.2621 15.4473C25.2439 15.3143 25.2491 15.1774 25.2335 15.0445C25.2126 14.8685 25.1748 14.7003 25.1396 14.5296C25.0744 14.2011 25.0301 13.8648 24.9741 13.535C24.9193 13.2182 24.8906 12.895 24.8698 12.5743C24.8633 12.4831 24.8711 12.3775 24.8515 12.2888C24.845 12.2615 24.8359 12.2367 24.8281 12.2119C24.8215 12.1259 24.815 12.0399 24.8046 11.9525C24.7929 11.8574 24.7811 11.7622 24.7694 11.6658C24.7603 11.3673 24.7616 11.0687 24.7681 10.7702C24.772 10.563 24.7681 10.3662 24.742 10.1589C24.7055 9.8669 24.7147 9.58143 24.7199 9.28814C24.7303 8.53992 24.7042 7.78388 24.7512 7.03697C24.759 6.91574 24.7642 6.87794 24.6834 6.77887C24.5778 6.64852 24.4722 6.52208 24.3953 6.37348C24.2936 6.17926 24.3392 5.90421 24.3705 5.69174C24.3862 5.58094 24.3927 5.47014 24.394 5.35934C24.394 5.29938 24.4148 5.18988 24.3927 5.13514C24.3744 5.08821 24.3249 5.03086 24.2936 4.98654C24.2415 4.90833 24.2115 4.86009 24.2245 4.75712C24.235 4.68673 24.2949 4.62155 24.2988 4.55377C24.3014 4.50032 24.2689 4.4534 24.2649 4.39735C24.2571 4.25266 24.2702 4.10406 24.2728 3.95936C24.2767 3.65956 24.2793 3.35844 24.2845 3.05863C24.2871 2.92176 24.2806 2.80314 24.2558 2.67019C24.235 2.56199 24.2402 2.43425 24.205 2.33127C24.1685 2.22569 24.1568 2.20744 24.1594 2.09012C24.162 1.97411 24.1633 1.8581 24.1646 1.74339C24.1659 1.61694 24.1998 1.44879 24.1724 1.32496C24.1581 1.26239 24.0929 1.2311 24.072 1.16462C24.0407 1.05774 24.1255 0.910437 24.1763 0.824405C24.2089 0.76705 24.3223 0.691446 24.3223 0.62236C24.3236 0.480276 24.0824 0.575433 24.0251 0.597593C23.9834 0.614539 23.913 0.624967 23.8439 0.640609C23.84 0.604111 23.8348 0.572827 23.8257 0.546756C23.7527 0.584558 23.6627 0.621056 23.5897 0.658858C23.5637 0.671893 23.5337 0.678412 23.5063 0.684929C23.3264 0.653645 23.2717 0.679715 23.2104 0.700571C23.157 0.696661 23.1035 0.69275 23.054 0.691447C22.835 0.68884 22.616 0.686233 22.397 0.682322C21.9877 0.673198 21.551 0.697964 21.1652 0.847869C20.9592 0.927383 20.722 0.86351 20.5121 0.935204C20.2462 1.02645 19.9112 0.97431 19.6479 0.958668C19.0196 0.922169 18.3978 0.827012 17.7695 0.78921C17.2103 0.755319 16.6524 0.699268 16.0919 0.664073C15.5627 0.631485 15.0282 0.647127 14.5016 0.568916C13.8186 0.468546 13.1277 0.322552 12.4381 0.276929C12.3599 0.271714 12.2804 0.267804 12.2009 0.263893C12.1592 0.250858 12.1162 0.237823 12.0666 0.224788C11.7108 0.138756 11.3341 0.0475085 10.9717 0.00709951C10.7761 -0.0124533 10.5819 0.00840347 10.389 0.0696688C10.0305 0.143969 9.67467 0.233912 9.32273 0.339497C9.17021 0.381209 9.0555 0.399458 8.9069 0.455509C8.52106 0.6002 8.11176 0.598897 7.71288 0.674501C7.45609 0.724034 7.21754 0.726641 6.96336 0.662769C6.81085 0.623664 6.67919 0.583255 6.51756 0.584559C6.44977 0.584559 6.38069 0.583254 6.3129 0.581951C6.03786 0.576737 5.76543 0.631485 5.49169 0.64452C5.19579 0.657555 4.88034 0.665376 4.58314 0.640609C4.49971 0.634091 4.49189 0.60411 4.42671 0.591075C4.34068 0.60411 4.25726 0.627574 4.17644 0.661465C4.07737 0.712302 3.97439 0.742284 3.8662 0.752712C3.66546 0.783996 3.46342 0.7853 3.26267 0.780086C3.17794 0.777479 3.08931 0.786603 3.00719 0.760533C2.99415 0.81528 2.97981 0.870028 2.96417 0.926079C2.85728 0.927383 2.74909 0.926079 2.64611 0.914348C2.54965 0.902616 2.46101 0.860903 2.36455 0.846565C2.24202 0.827012 2.11819 0.828316 1.99435 0.802246C1.93309 0.90392 1.88355 0.988649 1.87964 1.10988C1.87443 1.25196 1.864 1.38231 1.84966 1.5257C1.81447 1.88286 1.8627 2.24133 1.79491 2.59589C1.7532 2.81097 1.7154 2.99476 1.7141 3.21506C1.71279 3.42623 1.70888 3.6374 1.70627 3.84857C1.70106 4.18618 1.70758 4.52118 1.66586 4.85488C1.65153 4.97089 1.65674 5.0856 1.65283 5.20162C1.64501 5.48839 1.72583 5.72954 1.78188 6.01501C1.85227 6.37087 1.88486 6.70196 1.87182 7.06174C1.86139 7.33678 1.89528 7.60791 1.89528 7.88165C1.89528 8.37959 1.87964 8.87623 1.87312 9.37287C1.86791 9.83041 1.85618 10.2814 1.92396 10.735C2.05562 11.6071 1.74016 12.4609 1.6802 13.3251C1.65804 13.6419 1.66977 13.9704 1.7532 14.278C1.77406 14.3523 1.86009 14.583 1.83663 14.6756C1.77797 14.7668 1.74147 14.8685 1.72583 14.978C1.69063 15.107 1.66326 15.2387 1.64631 15.373C1.63328 15.5502 1.63067 15.7862 1.70497 15.9491C1.79622 16.1525 1.92005 16.4679 1.81707 16.6908C1.77666 16.7808 1.77275 16.8264 1.77015 16.9281C1.76884 16.9867 1.76102 17.0441 1.78058 17.1014C1.82359 17.224 1.92527 17.3243 1.9396 17.4573C1.94351 17.486 1.9396 17.5068 1.9383 17.5225C1.93569 17.5225 1.93309 17.5238 1.93048 17.5238C1.84314 17.512 1.75581 17.499 1.66586 17.4977C1.61763 17.4977 1.54594 17.4807 1.49771 17.4938C1.45339 17.5055 1.44948 17.5524 1.39213 17.5342C1.37779 17.5681 1.3465 17.5968 1.31652 17.6228C1.28263 17.6215 1.24613 17.6202 1.23961 17.6215C1.15228 17.6333 1.06103 17.6515 0.977607 17.6828C0.85638 17.7271 0.741672 17.7936 0.623052 17.8431C0.572214 17.864 0.531806 17.8953 0.486183 17.9174C0.441863 17.9396 0.381901 17.9344 0.342795 17.9565C0.302386 17.9787 0.286743 18.0074 0.241119 18.0256C0.168123 18.0556 0.0873051 18.0569 -3.05176e-05 18.0465C0.0547172 18.1169 0.191587 18.1781 0.265888 18.2094C0.494003 18.3085 0.745582 18.2941 0.985429 18.3411C1.1614 18.375 1.32956 18.3893 1.49901 18.4506C1.63067 18.4975 1.77015 18.4884 1.90701 18.4897C2.03085 18.491 2.16511 18.5131 2.28764 18.4871C2.46883 18.4493 2.66827 18.4649 2.84164 18.3984C2.99936 18.3372 3.1597 18.4023 3.32003 18.3671C3.38781 18.3528 3.43735 18.3359 3.51034 18.3372C3.54814 18.3385 3.59898 18.3567 3.61984 18.3215C3.63418 18.2981 3.59637 18.2225 3.58855 18.1977C3.55596 18.0882 3.5338 17.9709 3.47254 17.8705C3.45559 17.8431 3.44126 17.8158 3.42822 17.7897C3.45951 17.7897 3.49079 17.7884 3.51686 17.7832C3.51947 17.7753 3.52077 17.7688 3.52338 17.7623C3.54293 17.6802 3.55727 17.5902 3.5677 17.4977H3.569C3.569 17.4925 3.569 17.4873 3.569 17.4821C3.59377 17.2448 3.58855 16.9893 3.55205 16.7768C3.53902 16.7065 3.52207 16.6387 3.50252 16.5696C3.48688 16.4067 3.46732 16.2307 3.43604 16.0756C3.4217 15.9987 3.40085 15.9257 3.37999 15.8514C3.37869 15.6897 3.38912 15.5281 3.40085 15.3677C3.43865 14.8594 3.40085 14.3836 3.29005 13.8896C3.26007 13.754 3.22227 13.6197 3.19359 13.4829C3.14666 13.2678 3.13884 13.0488 3.10756 12.8311C3.0854 12.6825 3.05932 12.5339 3.03716 12.3853C3.00718 12.1872 2.94201 11.9942 2.94201 11.7922C2.94201 11.3907 3.0111 10.9593 3.08931 10.5669C3.17143 10.1615 3.18446 9.76002 3.18968 9.35332C3.22618 9.0861 3.25094 8.81757 3.25485 8.54774C3.25616 8.40957 3.26658 8.26879 3.26398 8.13192C3.26007 7.9364 3.2001 7.76303 3.19098 7.57011C3.18707 7.47756 3.20401 7.38631 3.20141 7.29507C3.19619 7.1582 3.16752 7.02784 3.16752 6.88837C3.16621 6.55858 3.11668 6.26268 3.17403 5.93289C3.22617 5.62917 3.19098 5.29417 3.19489 4.98393C3.19619 4.88486 3.1975 4.7871 3.1988 4.68803C3.22226 4.48599 3.25746 4.28655 3.2731 4.0845C3.29656 3.78078 3.28874 3.47446 3.29135 3.17074C3.29396 3.04951 3.29787 2.92698 3.30178 2.80314C3.32655 2.69104 3.37217 2.61805 3.37608 2.489C3.3839 2.23481 3.32133 1.90241 3.43474 1.66778C3.46863 1.59739 3.51686 1.5635 3.58855 1.55177C3.76974 1.52309 3.96788 1.58696 4.14907 1.58696C4.36545 1.58696 4.58183 1.59609 4.79952 1.59348C5.11497 1.58957 5.41739 1.53873 5.72893 1.51918C5.80975 1.51397 5.97399 1.51527 6.06263 1.49963C6.23469 1.46834 6.47975 1.34972 6.62184 1.29758C6.8291 1.21285 7.04027 1.14116 7.25404 1.0812C7.39222 1.03036 7.5343 0.999076 7.67899 0.984738C7.89668 0.986041 8.13522 1.07338 8.34248 1.10988C8.80653 1.18939 9.27058 1.18287 9.73855 1.18678C10.0045 1.23501 10.2704 1.27673 10.5441 1.28194C11.0121 1.29106 11.4813 1.28455 11.9493 1.27542C12.807 1.25978 13.6634 1.28194 14.5212 1.28976C15.1403 1.29628 15.7582 1.36406 16.3774 1.39274C16.8101 1.41229 17.2312 1.50223 17.6626 1.52831C18.0094 1.54786 18.3561 1.54264 18.7028 1.54655C19.0548 1.55177 19.4185 1.58566 19.7704 1.55698C19.9672 1.54004 20.1537 1.48659 20.3466 1.44618C20.6803 1.3771 21.0322 1.4162 21.3698 1.42272C21.6579 1.42924 22.0437 1.49441 22.3279 1.42011C22.4257 1.39535 22.4413 1.36667 22.5143 1.33408C22.4583 1.49963 22.4765 1.67691 22.4869 1.85549C22.5521 2.89178 22.8389 3.91765 23.0514 4.92788C23.1165 5.23551 23.2339 5.5288 23.2899 5.83513C23.3238 6.01632 23.3629 6.19881 23.3916 6.38391C23.4555 6.788 23.4907 7.16732 23.4841 7.58314C23.475 8.04589 23.462 8.51125 23.4555 8.9766C23.4529 9.00789 23.4489 9.03787 23.4463 9.06915C23.4085 9.59708 23.4268 10.1341 23.419 10.6634C23.4098 11.4064 23.3577 12.165 23.402 12.9093C23.4333 13.4268 23.5258 13.9378 23.5454 14.4566C23.5454 14.4592 23.5454 14.4605 23.5454 14.4618C23.5141 14.729 23.4711 14.9989 23.488 15.2661C23.4972 15.3925 23.5193 15.519 23.5311 15.6467C23.5519 15.8527 23.5467 16.0651 23.5806 16.2711C23.5949 16.3662 23.6236 16.4536 23.6523 16.5422C23.651 16.6439 23.6484 16.7469 23.6471 16.8485C23.6445 16.9945 23.621 17.1562 23.6393 17.3009C23.6262 17.3061 23.6158 17.3113 23.6015 17.3165C23.6301 17.3426 23.6536 17.3726 23.6771 17.4025C23.6862 17.4143 23.694 17.426 23.7031 17.439C23.7253 17.4716 23.7448 17.5055 23.7605 17.5407C23.7644 17.5407 23.7683 17.5407 23.7722 17.5394C23.7722 17.5459 23.7709 17.5524 23.7722 17.5603C23.7905 17.705 23.8765 17.7219 23.999 17.7206C24.2845 17.718 24.5543 17.6658 24.8294 17.6072C24.961 17.5785 25.0718 17.5955 25.1957 17.5355C25.5359 17.3713 25.9269 17.4377 26.2854 17.3517C26.4601 17.3087 26.6139 17.3035 26.7912 17.3061C26.9111 17.3087 27.0297 17.3308 27.1262 17.2487C27.0636 17.2253 26.9658 17.2331 26.898 17.2213Z"/>
  <path d="M5.65598 21.785C5.66901 21.8267 5.86323 21.8502 5.99228 21.8606C5.91668 21.7589 5.76677 21.7133 5.65598 21.785Z"/>
  <path d="M6.10043 21.8658C6.09913 21.8658 6.09782 21.8658 6.09652 21.8658C6.07958 21.8658 6.03917 21.8632 5.99094 21.8593C5.99615 21.8658 6.00267 21.8697 6.00527 21.8762C6.03656 21.871 6.06915 21.8697 6.10043 21.8658Z"/>
  <path d="M13.391 18.0074C13.3845 18.01 13.378 18.0139 13.3754 18.0139C13.3728 18.0165 13.3819 18.0126 13.3936 18.0074C13.3936 18.0074 13.3923 18.0074 13.391 18.0074Z"/>
  <path d="M22.1533 21.5907C22.1572 21.665 22.0881 21.7276 22.0164 21.7276L21.0127 21.8475C20.9371 21.8475 21.4689 21.665 21.465 21.5907L22.4322 21.3339C22.5091 21.3339 22.1494 21.5164 22.1533 21.5907ZM20.2514 21.8475C19.9203 21.8475 19.9216 21.3339 20.2514 21.3339C20.5825 21.3339 20.5825 21.8475 20.2514 21.8475ZM19.1434 21.4669C18.7641 21.4904 18.3796 21.4995 17.999 21.4682C17.6157 21.4356 17.1869 21.3783 16.8858 21.115C16.8036 21.042 17.0187 20.8217 17.0774 20.7317C17.2507 20.4593 17.3537 20.4332 17.6574 20.3863C17.9664 20.3394 18.2779 20.3302 18.5908 20.3302C18.7198 20.3302 18.7967 20.4084 18.8254 20.5036C18.828 20.5036 18.8306 20.5036 18.8332 20.5036C19.0105 20.501 19.09 20.647 19.0757 20.7852C19.1982 20.8529 19.3025 20.9481 19.3663 21.0811C19.4524 21.2609 19.3468 21.4539 19.1434 21.4669ZM15.8495 20.1647C15.6826 20.3029 15.6826 20.3029 15.2616 20.4071C15.1286 20.4397 14.9904 20.4397 14.8549 20.4345C14.8457 20.4449 14.8327 20.4554 14.8171 20.4619C14.5994 20.5688 14.3687 20.6183 14.1262 20.6196C13.9919 20.6209 13.4849 20.6978 13.5631 20.6196C13.5422 20.5518 14.0415 20.2364 14.1236 20.2129C14.6541 20.063 15.2029 19.9692 15.753 19.9314C15.8664 19.9235 15.9381 20.0904 15.8495 20.1647ZM13.5031 19.7006C13.494 19.6941 13.4849 19.6863 13.4758 19.6798C13.4588 19.6628 13.4471 19.6433 13.4406 19.6198C13.4458 19.6029 13.4614 19.4999 13.4758 19.4869C13.4875 19.4738 13 19.453 13.0169 19.4464C13.0339 19.4386 13.5527 19.4464 13.5722 19.4464C13.5879 19.4464 13.6022 19.4491 13.6165 19.4517C13.6322 19.453 13.6465 19.4543 13.6609 19.4582C13.6791 19.4634 13.6987 19.4725 13.7156 19.4803C13.7234 19.4843 13.7299 19.4882 13.7378 19.4921C13.769 19.5142 13.7977 19.539 13.8173 19.5742C13.8368 19.6094 13.846 19.6472 13.8473 19.6876C13.8473 19.7241 13.8316 19.7567 13.8068 19.7841C13.7899 19.801 13.7703 19.8127 13.7469 19.8193C13.7352 19.8206 13.7221 19.8219 13.7104 19.8232C13.6921 19.8245 13.6739 19.8206 13.6582 19.8114C13.6413 19.8062 13.6257 19.7971 13.6139 19.7841C13.6009 19.771 13.5918 19.7567 13.5852 19.7397C13.5826 19.7345 13.5839 19.728 13.5813 19.7215C13.58 19.7215 13.5774 19.7202 13.5748 19.7202C13.5735 19.7202 13.5735 19.7202 13.5722 19.7202C13.5474 19.7202 13.524 19.7137 13.5031 19.7006ZM13.7169 18.182C13.7 18.1651 13.6895 18.1468 13.683 18.1247C13.6713 18.1051 13.3754 18.0373 13.3754 18.0139C13.3741 18.01 13.3806 18.0087 13.391 18.0074C13.4197 17.993 13.4862 17.9617 13.5566 17.9292C13.4888 17.9617 13.4249 17.993 13.3936 18.0061C13.4549 17.9982 13.6609 18.0113 13.6661 17.9917C13.6674 17.9578 13.6778 17.9252 13.696 17.8966C13.7091 17.8783 13.7234 17.8614 13.7365 17.8444C13.8251 17.8223 14.2983 17.7089 14.2683 18.2368C14.2983 17.7089 14.2787 18.2303 14.2918 18.2381C14.2944 18.2381 14.3243 18.2407 14.2918 18.2381C14.2839 18.2368 14.2761 18.2368 14.2683 18.2368C14.2448 18.2537 14.2214 18.2694 14.194 18.2824C14.1653 18.2954 14.134 18.3111 14.1014 18.3163C14.0311 18.328 14.0115 18.3293 13.9398 18.3163C13.8864 18.3072 13.0625 18.358 13.0182 18.3254C12.9882 18.3098 13.7352 18.2094 13.7169 18.182ZM11.9102 19.9314C11.9363 19.9131 11.2832 19.9379 11.278 19.9431C11.235 19.99 11.2728 19.9457 11.2493 19.977C11.2454 19.9822 11.2441 19.9861 11.2402 19.9913C11.3249 20.136 11.3249 20.312 11.1959 20.4528C11.0864 20.5727 10.5063 20.8764 10.3538 20.909C10.1492 20.952 10.1505 20.7278 9.94192 20.7356C9.75291 20.7421 9.7516 20.7317 9.56259 20.7122C9.42051 20.6978 8.84957 20.7382 8.72704 20.6548C8.56149 20.5427 8.95124 20.269 9.11549 20.1582C9.62256 19.8153 10.26 19.7984 10.8348 19.6485C10.8179 19.6602 10.8101 19.668 10.8387 19.6472C10.8492 19.6446 10.8583 19.6446 10.8674 19.6433C10.8752 19.6329 10.8778 19.6276 10.8778 19.625C10.9782 19.582 11.0929 19.6329 11.4058 19.5572C11.4058 19.5572 12.0236 19.8505 11.9102 19.9314ZM8.03357 20.1855C7.85108 20.2755 7.62296 20.3146 7.44699 20.1855C7.40136 20.153 7.37399 20.1073 7.38181 20.05C7.46523 20.0448 7.84586 19.8623 7.93059 19.8623C7.99837 19.8623 8.04921 19.9131 8.06224 19.977C8.06876 19.9835 8.47807 19.9222 8.48458 19.9314C8.52239 19.99 8.09874 20.1543 8.03357 20.1855ZM8.10135 22.4211C7.80936 22.6023 7.53693 22.6479 7.20844 22.5944C6.88126 22.5423 5.16583 22.3702 4.98855 22.0783C4.91425 21.9544 5.53994 21.8593 5.65465 21.785C5.6377 21.7302 5.97531 21.6364 6.02745 21.6116C6.17866 21.536 7.20974 21.4891 7.38051 21.4878C7.45611 21.4878 6.64532 21.5516 6.64793 21.6259C6.65054 21.6794 6.61534 21.725 6.56841 21.7472C6.61013 21.768 7.81327 21.9961 7.98012 22.0652C7.78981 22.0339 7.22799 21.9688 7.40267 22.0613C7.57864 22.1539 8.25908 22.3233 8.10135 22.4211ZM24.4396 20.4619C24.1985 20.3094 23.8726 20.1647 23.5285 20.2077C23.3277 20.2325 23.1348 20.3472 22.9367 20.3915C22.8037 20.4202 22.6851 20.4462 22.5508 20.4814C22.1194 20.5962 21.6814 20.7148 21.2147 20.7291C20.9527 20.7369 20.7038 20.7174 20.5982 20.5127C20.4235 20.1725 20.9814 19.9483 21.3008 19.788C21.5602 19.6576 21.8287 19.5377 22.0907 19.4086C22.1793 19.3656 22.2119 19.3357 22.2615 19.2744C22.3071 19.2196 22.3788 19.1336 22.4061 19.071C22.4192 18.942 22.4035 18.8142 22.3618 18.6878C22.371 18.5353 22.281 18.4401 22.0907 18.3997C21.9981 18.3984 21.9069 18.3971 21.8144 18.3958C21.7036 18.3945 21.5954 18.3828 21.4898 18.3593C21.2942 18.3398 21.1144 18.3372 20.9123 18.3306C20.5995 18.3189 20.2945 18.3033 19.9803 18.302C19.5892 18.3007 19.2582 18.2759 18.8919 18.3802C18.3144 18.5444 17.7591 18.8208 17.1439 18.9185C16.9979 18.9407 16.8427 18.9537 16.6928 18.9602C16.4738 18.9694 16.2353 19.0332 16.0189 19.0098C15.7061 18.9759 15.5327 18.8103 15.7804 18.6226C16.0254 18.4375 16.4087 18.328 16.7059 18.1899C16.8818 18.1077 17.0174 18.0699 17.2142 18.023C17.3081 18.0008 17.4919 17.9748 17.561 17.9252C17.6509 17.8614 17.5792 17.7349 17.5114 17.6802C17.2507 17.4677 16.848 17.585 16.5208 17.5003C16.29 17.4416 15.9733 17.4077 15.9537 17.1979C15.929 16.9189 15.9524 16.6817 16.2392 16.4731C16.4191 16.3428 16.8284 16.2919 16.5703 16.0612C16.4608 15.9648 16.3318 15.9413 16.1766 15.9113C15.8351 15.8461 15.4832 15.8513 15.1573 15.7484C14.8119 15.6415 14.8809 15.3117 14.9383 15.0979C14.9787 14.9441 15.1247 14.9037 15.3176 14.8437C15.5001 14.7864 15.7126 14.7003 15.8469 14.5935C15.9746 14.4931 16.0241 14.4305 16.0111 14.2871C15.9968 14.1359 15.8521 14.0473 15.7087 13.9443C15.2863 13.6432 14.6932 13.4776 14.1353 13.346C14.1093 13.2886 14.2657 13.1505 14.3204 13.1166C14.4312 13.0501 14.5968 13.041 14.7284 13.0006C14.8783 12.9562 15.01 12.8885 15.1443 12.8272C15.2929 12.7607 15.3411 12.7372 15.3945 12.6108C15.4454 12.487 15.4949 12.4114 15.4076 12.2914C15.2394 12.0594 14.8366 11.9708 14.5055 11.8952C14.1627 11.8157 13.872 11.8196 13.5722 11.6788C13.5096 11.6488 13.3949 11.6006 13.3584 11.5406C13.3923 11.6071 13.4953 11.6762 13.5501 11.7231C13.6322 11.7935 13.7247 11.8313 13.8199 11.8887C13.889 11.9278 13.932 11.9812 14.005 12.0216C14.1353 12.0933 14.2683 12.1624 14.3895 12.2419C14.4586 12.2862 14.4847 12.3371 14.5407 12.3866C14.6046 12.444 14.6776 12.4453 14.6815 12.5235C14.6867 12.6069 14.6281 12.6486 14.6007 12.6642C14.4078 12.6708 14.2357 12.7164 14.0415 12.7333C13.9581 12.7412 13.8968 12.7594 13.8173 12.7685C13.7117 12.7803 13.5826 12.7633 13.4758 12.7646C13.2398 12.7672 12.9622 12.7777 12.7549 12.8611C12.6806 12.8924 12.545 12.9693 12.5568 13.0449C12.562 13.0762 12.6037 13.0827 12.6233 13.1087C12.6598 13.157 12.665 13.2052 12.708 13.2521C12.8031 13.3551 12.9439 13.3877 13.0964 13.4438C13.232 13.4933 13.3415 13.4972 13.4862 13.5272C13.5826 13.548 13.6556 13.5819 13.7404 13.621C13.9672 13.7279 14.1184 13.8374 14.0884 14.0486C14.0702 14.1842 13.8473 14.3497 13.6882 14.4188C13.5031 14.4996 13.3493 14.5139 13.1394 14.5387C12.5841 14.6065 12.0315 14.6782 11.4827 14.7655C11.2989 14.7955 11.1255 14.8411 10.9665 14.9141C10.9078 14.9415 10.8479 14.965 10.7879 14.9897C10.711 15.0223 10.7253 15.0223 10.6797 15.0836C10.535 15.2778 10.5546 15.5268 10.784 15.691C10.9847 15.8344 11.2428 15.8109 11.4866 15.8878C11.5817 15.9178 11.6782 15.9726 11.7838 16.0013C11.892 16.0299 11.9989 16.0612 12.1045 16.0925C12.1266 16.1121 12.1475 16.1303 12.1683 16.1499C12.2231 16.185 12.2504 16.1668 12.27 16.2268C12.2804 16.2567 12.2635 16.2998 12.2661 16.331C12.2765 16.4836 12.1475 16.5644 12.0315 16.6895C11.8033 16.9359 11.4397 17.1353 11.132 17.3308C11.0264 17.3973 10.7644 17.5863 10.595 17.632C10.4607 17.6671 10.3069 17.6711 10.1661 17.6906C9.97581 17.7167 9.80114 17.7115 9.60691 17.7141C9.30189 17.718 9.00338 17.7623 8.69967 17.7793C8.32295 17.7988 7.94102 17.7623 7.5643 17.7832C7.31794 17.7962 7.07418 17.8536 6.83173 17.8809C6.76916 17.8887 6.70659 17.8861 6.64532 17.8979C6.49281 17.9487 6.3416 18.0008 6.1917 18.0556C6.07308 18.0869 5.95967 18.1247 5.85018 18.169C5.70549 18.2511 5.58817 18.3385 5.61424 18.4792C5.6351 18.5874 5.74981 18.6682 5.79804 18.7699C5.88407 18.9524 5.63901 19.1349 5.47867 19.264C5.36787 19.3539 5.25056 19.3774 5.08241 19.3748C4.84386 19.3708 4.65355 19.3852 4.46454 19.496C4.36938 19.5494 4.27292 19.625 4.18819 19.6902C4.07739 19.7775 3.96659 19.8766 3.87144 19.9731C3.68112 20.1634 3.45692 20.4241 3.39826 20.6574C3.36437 20.7943 3.44258 20.8243 3.57163 20.9325C3.66548 21.012 3.75933 21.0902 3.8571 21.1658C3.99397 21.2727 4.05002 21.3144 4.04611 21.4591C4.0422 21.6038 4.17516 21.8462 4.0448 21.9557C3.89229 22.0861 3.70589 22.1617 3.81669 22.3598C3.91185 22.528 4.21948 22.6322 4.41761 22.7157C4.82692 22.8903 5.25447 23.0481 5.68854 23.1902C6.00921 23.2944 6.32466 23.3661 6.67009 23.4196C7.08461 23.4847 7.55909 23.6177 7.98795 23.6099C8.28645 23.6034 8.56801 23.5056 8.85869 23.4717C9.1207 23.4417 9.37358 23.4613 9.63429 23.4782C9.93019 23.4978 10.2339 23.5134 10.522 23.5708C10.7358 23.6138 10.9248 23.6972 11.1359 23.7415C11.2963 23.7754 11.4749 23.7559 11.63 23.8028C11.7499 23.8406 11.8555 23.8954 11.9832 23.9266C12.1527 23.9684 12.3065 23.9801 12.4864 23.9827C12.751 23.9879 13.3063 24.0583 13.4758 23.8719C13.5852 23.752 13.6204 23.5356 13.6387 23.3987C13.6517 23.2996 13.6478 23.2019 13.6465 23.1041C13.6465 22.979 13.6478 22.8604 13.61 22.7365C13.5918 22.6831 13.5461 22.6166 13.5409 22.5619C13.5253 22.3676 13.8864 22.3272 14.091 22.2829C14.486 22.1969 15.1143 22.0691 15.4688 22.2946C15.6239 22.3924 15.7152 22.5136 15.8977 22.5918C15.9863 22.6283 16.0789 22.6635 16.1675 22.7C16.4204 22.803 16.6967 22.8147 16.9809 22.8473C17.4749 22.9021 17.9559 22.9568 18.4578 22.9386C18.9531 22.9203 19.4837 22.9086 19.9725 22.8578C20.3987 22.8147 20.7963 22.7105 21.2004 22.6127C22.3723 22.3285 23.5741 21.9127 24.3771 21.2271C24.4996 21.1215 24.8581 20.8934 24.7655 20.7226C24.7108 20.6261 24.5387 20.5232 24.4396 20.4619Z"/>
</svg>
