<?xml version="1.0" encoding="UTF-8" standalone="no"?>
<!-- Created with Inkscape (http://www.inkscape.org/) -->

<svg
   width="24.14192"
   height="24"
   viewBox="0 0 6.3875497 6.35"
   version="1.1"
   id="svg57892"
   inkscape:version="1.2.1 (9c6d41e4, 2022-07-14)"
   sodipodi:docname="tekeli-li.svg"
   xmlns:inkscape="http://www.inkscape.org/namespaces/inkscape"
   xmlns:sodipodi="http://sodipodi.sourceforge.net/DTD/sodipodi-0.dtd"
   xmlns="http://www.w3.org/2000/svg"
   xmlns:svg="http://www.w3.org/2000/svg">
  <sodipodi:namedview
     id="namedview57894"
     pagecolor="#505050"
     bordercolor="#eeeeee"
     borderopacity="1"
     inkscape:showpageshadow="0"
     inkscape:pageopacity="0"
     inkscape:pagecheckerboard="0"
     inkscape:deskcolor="#505050"
     inkscape:document-units="mm"
     showgrid="false"
     inkscape:zoom="0.7046647"
     inkscape:cx="-14.191146"
     inkscape:cy="153.97394"
     inkscape:window-width="1390"
     inkscape:window-height="941"
     inkscape:window-x="0"
     inkscape:window-y="25"
     inkscape:window-maximized="0"
     inkscape:current-layer="layer1" />
  <defs
     id="defs57889">
    <clipPath
       clipPathUnits="userSpaceOnUse"
       id="clipPath55377">
      <path
         d="m 64.876,389.039 h 24.7 v 24.7 h -24.7 z"
         id="path55375" />
    </clipPath>
  </defs>
  <g
     inkscape:label="Layer 1"
     inkscape:groupmode="layer"
     id="layer1"
     transform="translate(-109.07298,-107.96534)">
    <g
       id="g55371"
       transform="matrix(0.27671114,0,0,-0.27671114,90.891673,222.19776)">
      <g
         id="g55373"
         clip-path="url(#clipPath55377)">
        <g
           id="g55379"
           transform="translate(85.3584,405.407)">
          <path
             d="M 0,0 C -0.079,-0.119 -0.195,-0.195 -0.285,-0.304 -0.364,-0.399 -0.401,-0.533 -0.526,-0.586 -0.614,-0.624 -0.714,-0.638 -0.805,-0.677 -1.059,-0.788 -1.31,-0.911 -1.565,-1.021 -1.737,-1.096 -1.897,-1.181 -2.049,-1.29 -2.189,-1.391 -2.317,-1.517 -2.466,-1.596 -2.736,-1.74 -3.035,-1.829 -3.303,-1.97 -3.504,-2.076 -3.695,-2.105 -3.911,-2.186 -4.012,-2.225 -4.11,-2.234 -4.2,-2.278 -4.277,-2.316 -4.364,-2.33 -4.439,-2.374 c 0.305,0.018 0.604,0.069 0.907,0.105 0.114,0.017 0.225,0.042 0.335,0.075 0.09,0.007 0.179,0.013 0.27,0.018 0.061,0.015 0.118,0.04 0.17,0.076 0.058,0.007 0.117,0.013 0.176,0.018 0.111,0.027 0.22,0.098 0.332,0.131 0.119,0.036 0.25,0.036 0.361,0.092 0.093,0.046 0.129,0.072 0.226,0.089 0.224,0.039 0.4,0.146 0.598,0.247 0.156,0.08 0.361,0.085 0.5,0.189 0.128,0.097 0.279,0.163 0.401,0.27 0.055,0.048 0.2,0.3 0.251,0.134 0.022,-0.071 -0.093,-0.191 -0.124,-0.249 -0.045,-0.085 -0.077,-0.147 -0.139,-0.218 -0.046,-0.051 -0.092,-0.088 -0.129,-0.141 -0.056,-0.078 -0.086,-0.178 -0.129,-0.263 -0.076,-0.148 -0.132,-0.35 -0.285,-0.429 -0.117,-0.06 -0.251,-0.085 -0.37,-0.14 -0.109,-0.051 -0.194,-0.114 -0.319,-0.135 -0.066,-0.002 -0.131,-0.007 -0.197,-0.014 -0.055,-0.034 -0.113,-0.063 -0.174,-0.088 -0.104,-0.042 -0.214,-0.099 -0.323,-0.126 -0.295,-0.073 -0.553,-0.262 -0.849,-0.341 -0.233,-0.062 -0.483,-0.064 -0.716,-0.127 -0.154,-0.041 -0.3,-0.06 -0.459,-0.058 -0.138,10e-4 -0.258,-0.083 -0.393,-0.095 0.915,0.012 1.823,-0.093 2.733,-0.092 0.427,0 0.906,-0.026 1.264,0.23 0.132,0.095 0.27,0.194 0.403,0.284 0.096,0.066 0.182,0.09 0.282,0.146 -0.17,-0.389 -0.566,-0.652 -0.816,-0.986 -0.099,-0.133 -0.234,-0.209 -0.394,-0.235 -0.378,-0.061 -0.745,-0.046 -1.13,-0.047 -0.477,0 -0.951,-0.048 -1.407,-0.188 -0.196,-0.06 -0.432,-0.096 -0.635,-0.092 -0.073,10e-4 -0.143,0.003 -0.216,-0.01 -0.037,-0.008 -0.058,-0.027 -0.091,-0.035 0.246,0.002 0.502,0.029 0.742,0.003 0.22,-0.024 0.396,-0.132 0.582,-0.229 0.048,-0.025 0.102,-0.034 0.15,-0.054 0.088,-0.037 0.129,-0.101 0.207,-0.158 0.087,-0.063 0.203,-0.14 0.302,-0.171 0.235,-0.075 0.478,-0.072 0.717,-0.104 0.156,-0.021 0.304,-0.061 0.459,-0.086 0.249,-0.04 0.519,0.01 0.728,0.148 0.008,0.008 0.017,0.016 0.025,0.025 0.032,0.047 0.074,0.08 0.124,0.099 -0.044,-0.048 -0.095,-0.088 -0.149,-0.124 -0.132,-0.138 -0.268,-0.272 -0.409,-0.401 -0.138,-0.138 -0.287,-0.267 -0.444,-0.384 -0.041,-0.04 -0.079,-0.044 -0.116,-0.015 -0.084,-0.029 -0.13,-0.045 -0.227,-0.046 -0.064,-10e-4 -0.128,-0.012 -0.192,-0.01 -0.226,0.008 -0.433,0.145 -0.644,0.208 -0.166,0.049 -0.336,0.06 -0.497,0.128 -0.376,0.159 -0.755,0.241 -1.155,0.317 -0.176,0.034 -0.353,0.014 -0.531,0.047 -0.136,0.026 -0.277,-0.003 -0.407,0.039 0.335,-0.234 0.677,-0.456 0.973,-0.731 0.202,-0.187 0.426,-0.312 0.699,-0.394 0.285,-0.084 0.65,-0.025 0.948,-0.025 0.162,0 0.332,-0.014 0.493,0.008 0.026,-0.073 -0.294,-0.23 -0.361,-0.248 -0.122,-0.033 -0.251,-0.041 -0.375,-0.064 -0.108,-0.02 -0.201,-0.019 -0.31,-0.021 -0.203,-0.005 -0.408,-0.064 -0.61,-0.087 -0.186,-0.021 -0.405,-0.003 -0.576,0.083 -0.119,0.06 -0.212,0.144 -0.336,0.199 -0.101,0.045 -0.198,0.112 -0.3,0.16 -0.11,0.052 -0.192,0.085 -0.314,0.121 -0.39,0.113 -0.983,0.196 -1.298,-0.108 -0.075,-0.072 -0.173,-0.109 -0.242,-0.179 -0.07,-0.072 -0.13,-0.159 -0.213,-0.228 -0.034,-0.028 -0.068,-0.06 -0.1,-0.092 0.158,-0.386 0.365,-0.748 0.612,-1.096 0.067,-0.095 0.108,-0.184 0.184,-0.268 0.086,-0.093 0.173,-0.18 0.228,-0.296 0.097,-0.208 0.255,-0.394 0.349,-0.603 0.044,-0.1 0.082,-0.224 0.115,-0.329 0.037,-0.118 0.094,-0.243 0.109,-0.364 0.041,-0.331 -0.004,-0.695 -0.004,-1.03 0.001,-0.428 -0.053,-0.85 -0.046,-1.278 0.01,0.09 -0.023,0.176 -0.037,0.264 -0.016,0.102 -0.011,0.201 -0.009,0.303 0.004,0.224 -0.055,0.385 -0.165,0.571 -0.057,0.097 -0.081,0.176 -0.113,0.281 -0.04,0.127 -0.132,0.209 -0.182,0.331 -0.051,0.122 -0.084,0.189 -0.157,0.318 -0.036,0.066 -0.105,0.166 -0.158,0.266 0.023,-0.097 0.026,-0.191 0.026,-0.322 v -0.48 c 0,-0.194 0,-0.388 10e-4,-0.582 0.002,-0.248 -0.047,-0.491 -0.049,-0.738 -0.004,-0.42 0.006,-0.832 -0.048,-1.251 -0.041,-0.324 -0.097,-0.805 -0.294,-1.096 -0.074,0.047 -0.03,0.348 -0.03,0.435 v 0.818 c 0,0.408 0.025,0.808 -0.063,1.207 -0.063,0.283 -0.125,0.566 -0.202,0.846 -0.077,0.277 -0.186,0.564 -0.237,0.846 -0.006,0.033 -0.017,0.062 -0.014,0.093 0.008,-0.154 0.026,-0.341 0.004,-0.492 -0.048,-0.329 -0.063,-0.671 -0.142,-0.997 -0.057,-0.242 -0.102,-0.492 -0.131,-0.739 -0.006,-0.192 -0.012,-0.385 -0.019,-0.577 -0.026,-0.172 -0.051,-0.344 -0.074,-0.516 -0.037,-0.324 -0.047,-0.646 -0.068,-0.97 -0.008,-0.109 0.013,-0.445 -0.046,-0.556 -0.085,0.025 -0.024,0.333 -0.047,0.419 -0.04,0.156 -0.084,0.3 -0.083,0.467 0.002,0.181 0.005,0.363 0.002,0.545 -0.004,0.212 -0.052,0.419 -0.048,0.632 0.012,0.631 -0.117,1.243 -0.17,1.869 -0.02,0.23 -0.024,0.46 -0.019,0.691 0.002,0.062 0.009,0.122 -0.009,0.182 -0.077,-0.045 -0.033,-0.328 -0.035,-0.412 -0.004,-0.303 -0.055,-0.612 -0.089,-0.914 -0.025,-0.225 -0.073,-0.451 -0.095,-0.676 -0.016,-0.167 -0.076,-0.318 -0.117,-0.484 -0.085,-0.346 -0.121,-0.667 -0.121,-1.027 0,-0.364 0,-0.728 0,-1.092 0,0.325 -0.186,0.669 -0.315,0.975 -0.081,0.191 -0.104,0.394 -0.139,0.596 -0.049,0.276 -0.104,0.543 -0.174,0.815 -0.093,0.358 -0.084,0.708 -0.036,1.073 0.025,0.191 0.011,0.39 0.009,0.583 -0.004,0.369 0.049,0.736 0.05,1.106 -0.106,-0.445 -0.402,-0.792 -0.542,-1.216 -0.027,-0.082 -0.02,-0.153 -0.02,-0.241 -10e-4,-0.155 -0.063,-0.286 -0.117,-0.432 -0.175,-0.474 -0.458,-0.939 -0.737,-1.357 0.147,0.348 0.292,0.669 0.294,1.053 0,0.094 -10e-4,0.188 -0.002,0.282 -0.002,0.108 0.029,0.193 0.043,0.298 0.039,0.292 -0.004,0.604 0.003,0.899 0.008,0.321 0.166,0.64 0.233,0.939 0.035,0.151 0.109,0.31 0.17,0.458 0.038,0.091 0.081,0.152 0.137,0.23 0.028,0.04 0.076,0.096 0.093,0.139 0.022,0.056 0.01,0.115 0.029,0.175 0.034,0.111 0.107,0.182 0.134,0.303 0.044,0.196 0.098,0.388 0.165,0.575 0.035,0.099 0.033,0.216 0.028,0.33 -0.119,0.088 -0.221,0.216 -0.336,0.31 -0.083,0.069 -0.143,0.156 -0.213,0.228 -0.069,0.07 -0.167,0.107 -0.241,0.179 -0.316,0.304 -0.909,0.221 -1.298,0.108 -0.123,-0.036 -0.205,-0.069 -0.315,-0.121 -0.102,-0.048 -0.199,-0.115 -0.3,-0.16 -0.124,-0.055 -0.217,-0.139 -0.336,-0.199 -0.171,-0.086 -0.39,-0.104 -0.576,-0.083 -0.202,0.023 -0.407,0.082 -0.61,0.087 -0.109,0.002 -0.202,10e-4 -0.31,0.021 -0.124,0.023 -0.253,0.031 -0.374,0.064 -0.068,0.018 -0.388,0.175 -0.361,0.248 0.16,-0.022 0.33,-0.008 0.492,-0.008 0.298,0 0.663,-0.059 0.948,0.025 0.273,0.082 0.497,0.207 0.699,0.394 0.296,0.275 0.638,0.497 0.973,0.731 -0.13,-0.042 -0.271,-0.013 -0.407,-0.039 -0.178,-0.033 -0.355,-0.013 -0.531,-0.047 -0.4,-0.076 -0.778,-0.158 -1.155,-0.317 -0.161,-0.068 -0.331,-0.079 -0.496,-0.128 -0.212,-0.063 -0.418,-0.2 -0.645,-0.208 -0.063,-0.002 -0.128,0.009 -0.191,0.01 -0.098,0.001 -0.144,0.017 -0.228,0.046 -0.037,-0.029 -0.075,-0.025 -0.116,0.015 -0.157,0.117 -0.305,0.246 -0.444,0.384 -0.141,0.129 -0.277,0.263 -0.408,0.401 -0.055,0.036 -0.106,0.076 -0.15,0.124 0.05,-0.019 0.092,-0.052 0.124,-0.099 0.008,-0.009 0.017,-0.017 0.026,-0.025 0.208,-0.138 0.478,-0.188 0.727,-0.148 0.155,0.025 0.303,0.065 0.459,0.086 0.239,0.032 0.482,0.029 0.717,0.104 0.099,0.031 0.216,0.108 0.302,0.171 0.079,0.057 0.119,0.121 0.207,0.158 0.048,0.02 0.102,0.029 0.15,0.054 0.186,0.097 0.362,0.205 0.582,0.229 0.24,0.026 0.496,-10e-4 0.742,-0.003 -0.032,0.008 -0.054,0.027 -0.091,0.035 -0.073,0.013 -0.142,0.011 -0.216,0.01 -0.203,-0.004 -0.439,0.032 -0.634,0.092 -0.457,0.14 -0.93,0.188 -1.408,0.188 -0.385,0.001 -0.751,-0.014 -1.129,0.047 -0.161,0.026 -0.296,0.102 -0.395,0.235 -0.25,0.334 -0.646,0.597 -0.816,0.986 0.1,-0.056 0.186,-0.08 0.282,-0.146 0.133,-0.09 0.271,-0.189 0.403,-0.284 0.358,-0.256 0.838,-0.23 1.264,-0.23 0.911,-10e-4 1.818,0.104 2.733,0.092 -0.135,0.012 -0.255,0.096 -0.393,0.095 -0.158,-0.002 -0.305,0.017 -0.458,0.058 -0.234,0.063 -0.484,0.065 -0.717,0.127 -0.296,0.079 -0.554,0.268 -0.849,0.341 -0.109,0.027 -0.219,0.084 -0.323,0.126 -0.061,0.025 -0.119,0.054 -0.174,0.088 -0.066,0.007 -0.131,0.012 -0.197,0.014 -0.125,0.021 -0.21,0.084 -0.319,0.135 -0.119,0.055 -0.253,0.08 -0.37,0.14 -0.153,0.079 -0.208,0.281 -0.285,0.429 -0.043,0.085 -0.073,0.185 -0.128,0.263 -0.038,0.053 -0.084,0.09 -0.129,0.141 -0.063,0.071 -0.094,0.133 -0.14,0.218 -0.03,0.058 -0.145,0.178 -0.124,0.249 0.051,0.166 0.197,-0.086 0.251,-0.134 0.122,-0.107 0.273,-0.173 0.402,-0.27 0.138,-0.104 0.343,-0.109 0.5,-0.189 0.197,-0.101 0.373,-0.208 0.598,-0.247 0.096,-0.017 0.132,-0.043 0.225,-0.089 0.112,-0.056 0.242,-0.056 0.361,-0.092 0.112,-0.033 0.222,-0.104 0.333,-0.131 0.058,-0.005 0.117,-0.011 0.175,-0.018 0.052,-0.036 0.109,-0.061 0.171,-0.076 0.09,-0.005 0.18,-0.011 0.269,-0.018 0.11,-0.033 0.222,-0.058 0.335,-0.075 0.304,-0.036 0.602,-0.087 0.907,-0.105 -0.075,0.044 -0.162,0.058 -0.239,0.096 -0.09,0.044 -0.188,0.053 -0.29,0.092 -0.214,0.081 -0.406,0.11 -0.607,0.216 -0.268,0.141 -0.567,0.23 -0.837,0.374 -0.149,0.079 -0.277,0.205 -0.417,0.306 -0.152,0.109 -0.312,0.194 -0.484,0.269 -0.255,0.11 -0.506,0.233 -0.76,0.344 -0.091,0.039 -0.191,0.053 -0.279,0.091 -0.125,0.053 -0.162,0.187 -0.241,0.282 -0.09,0.109 -0.206,0.185 -0.285,0.304 -0.287,0.433 -0.295,0.951 -0.314,1.457 0.019,-0.088 0.137,-0.22 0.187,-0.267 0.075,-0.071 0.148,-0.149 0.199,-0.241 0.05,-0.091 0.043,-0.197 0.08,-0.284 0.068,-0.161 0.13,-0.193 0.301,-0.278 0.1,-0.05 0.213,-0.096 0.312,-0.142 0.087,-0.041 0.146,-0.083 0.249,-0.094 0.226,-0.024 0.421,-0.076 0.639,-0.129 0.181,-0.044 0.302,-0.13 0.463,-0.208 0.073,-0.035 0.117,-0.079 0.183,-0.119 0.106,-0.065 0.252,-0.087 0.37,-0.118 0.144,-0.038 0.291,-0.034 0.437,-0.067 0.078,-0.017 0.128,-0.049 0.204,-0.071 0.249,-0.07 0.53,-0.091 0.767,-0.174 0.124,-0.043 0.215,-0.04 0.347,-0.045 0.252,-0.011 0.392,-0.186 0.624,-0.249 0.243,-0.067 0.444,-0.255 0.702,-0.27 0.067,-0.004 0.132,0.016 0.197,-0.005 0.078,-0.024 0.168,-0.103 0.243,-0.142 0.118,-0.061 0.323,-0.173 0.411,-0.278 0.028,-0.056 0.059,-0.109 0.094,-0.159 0.036,-0.031 0.068,-0.065 0.097,-0.103 0.043,-0.067 0.053,-0.12 0.043,-0.199 0.01,0.126 0.083,0.127 0.144,0.084 0.053,-0.038 0.058,-0.076 0.1,-0.12 0.053,-0.055 0.131,-0.095 0.185,-0.147 0.058,-0.056 0.113,-0.103 0.164,-0.15 0.161,0.262 0.325,0.532 0.355,0.839 0.017,0.175 0.013,0.377 -0.021,0.547 -0.036,0.175 -0.059,0.334 -0.107,0.504 -0.036,0.131 -0.058,0.271 -0.057,0.408 v 0.001 c -0.004,0.009 -0.009,0.017 -0.013,0.027 -0.057,0.13 -0.181,0.178 -0.274,0.276 -0.093,0.097 -0.133,0.232 -0.219,0.333 -0.042,0.049 -0.071,0.073 -0.085,0.146 -0.011,0.062 -0.008,0.125 -0.007,0.188 0.002,0.068 0.02,0.11 0.031,0.174 0.009,0.055 -0.005,0.113 0.006,0.167 0.004,0.023 0.022,0.03 0.03,0.057 0.014,0.053 0.004,0.104 0.023,0.158 0.017,0.047 0.048,0.098 0.075,0.141 0.105,0.173 0.263,0.215 0.45,0.264 0.07,0.018 0.298,0.007 0.519,-0.01 0.051,0.016 0.084,0.048 0.138,0.067 0.075,0.026 0.162,0.038 0.244,0.036 0.102,-0.002 0.135,0.014 0.214,0.066 0.029,0.019 0.065,0.042 0.096,0.056 0.027,0.013 0.055,0.015 0.082,0.026 0.08,0.032 0.135,0.102 0.21,0.147 0.062,0.036 0.132,0.05 0.199,0.077 0.053,0.021 0.103,0.052 0.153,0.084 l 1.036,0.74 c 0.074,0.033 0.153,0.034 0.236,0.036 0.059,0 0.138,0.012 0.195,-0.004 0.038,-0.01 0.095,-0.046 0.136,-0.064 0.085,-0.037 0.135,-0.092 0.198,-0.159 0.063,-0.067 0.129,-0.107 0.196,-0.164 0.057,-0.049 0.049,-0.065 0.048,-0.142 -0.001,-0.06 0,-0.119 0,-0.179 -0.001,0.181 -0.072,0.262 -0.243,0.3 C -5.628,2.651 -5.76,2.687 -5.877,2.694 -5.939,2.698 -5.987,2.698 -6.037,2.668 -6.076,2.644 -6.119,2.615 -6.159,2.59 -6.2,2.564 -6.242,2.539 -6.259,2.488 -6.273,2.45 -6.267,2.426 -6.29,2.384 -6.31,2.348 -6.337,2.314 -6.361,2.281 -6.396,2.234 -6.415,2.193 -6.443,2.142 -6.468,2.096 -6.507,2.075 -6.54,2.037 -6.58,1.99 -6.619,1.923 -6.653,1.87 -6.712,1.78 -6.794,1.718 -6.852,1.628 -6.949,1.478 -7.047,1.321 -7.148,1.177 -7.212,1.086 -7.29,1.014 -7.38,0.95 -7.427,0.915 -7.458,0.875 -7.51,0.847 -7.558,0.82 -7.677,0.787 -7.698,0.735 -7.65,0.671 -7.587,0.668 -7.526,0.623 c 0.045,-0.032 0.072,-0.071 0.12,-0.094 0.048,-0.023 0.113,-0.018 0.161,-0.033 0.026,-0.009 0.035,-0.028 0.062,-0.037 0.085,-0.027 0.192,-0.034 0.282,-0.033 0.157,0.002 0.3,-0.063 0.461,-0.032 0.079,0.016 0.134,0.058 0.216,0.066 0.022,0.003 0.062,0.007 0.098,0.018 0.02,0.026 0.041,0.052 0.068,0.072 C -6.05,0.512 -6.085,0.49 -6.126,0.478 -6.152,0.442 -6.177,0.404 -6.21,0.371 -6.259,0.322 -6.286,0.304 -6.324,0.254 -6.386,0.17 -6.488,0.101 -6.594,0.081 -6.668,0.067 -6.75,0.09 -6.825,0.084 -6.916,0.077 -6.989,0.047 -7.082,0.048 -7.215,0.049 -7.384,0.08 -7.512,0.05 -7.658,0.015 -7.768,-0.184 -7.825,-0.311 -7.839,-0.342 -7.831,-0.37 -7.838,-0.399 c -0.011,-0.038 -0.029,-0.055 -0.047,-0.09 -0.051,-0.097 -0.05,-0.232 -0.07,-0.339 -0.014,-0.066 -0.029,-0.134 -0.044,-0.202 0.002,-0.006 0.002,-0.013 0.004,-0.018 0.029,-0.109 0.043,-0.237 0.071,-0.35 0.016,-0.064 0.011,-0.086 0.04,-0.147 0.015,-0.032 0.033,-0.061 0.046,-0.092 0.051,-0.116 0.134,-0.228 0.221,-0.326 0.119,-0.135 0.216,-0.289 0.313,-0.442 0.013,0.012 0.027,0.024 0.04,0.037 0.054,0.052 0.132,0.092 0.185,0.147 0.042,0.044 0.047,0.082 0.1,0.12 0.061,0.043 0.134,0.042 0.144,-0.084 -0.01,0.079 0,0.132 0.043,0.199 0.029,0.038 0.061,0.072 0.097,0.103 0.036,0.05 0.067,0.103 0.094,0.159 0.088,0.105 0.293,0.217 0.411,0.278 0.075,0.039 0.165,0.118 0.243,0.142 0.066,0.021 0.13,0.001 0.197,0.005 0.258,0.015 0.459,0.203 0.702,0.27 0.232,0.063 0.372,0.238 0.624,0.249 0.132,0.005 0.223,0.002 0.347,0.045 0.238,0.083 0.518,0.104 0.767,0.174 0.076,0.022 0.126,0.054 0.204,0.071 0.146,0.033 0.293,0.029 0.437,0.067 0.118,0.031 0.264,0.053 0.37,0.118 0.066,0.04 0.11,0.084 0.184,0.119 0.16,0.078 0.281,0.164 0.462,0.208 0.218,0.053 0.413,0.105 0.639,0.129 0.103,0.011 0.162,0.053 0.249,0.094 0.099,0.046 0.212,0.092 0.312,0.142 0.171,0.085 0.234,0.117 0.301,0.278 0.037,0.087 0.03,0.193 0.08,0.284 0.051,0.092 0.124,0.17 0.199,0.241 0.05,0.047 0.169,0.179 0.187,0.267 C 0.295,0.951 0.287,0.433 0,0 m 3.383,-3.526 c -0.031,0.061 -0.063,0.125 -0.08,0.19 -0.036,0.13 -0.024,0.275 -0.06,0.399 -0.018,0.064 -0.057,0.114 -0.083,0.18 -0.046,0.114 -0.052,0.239 -0.101,0.352 -0.078,0.18 -0.189,0.344 -0.276,0.519 -0.064,0.127 -0.077,0.262 -0.128,0.39 -0.045,0.114 -0.113,0.211 -0.149,0.331 -0.073,0.239 -0.143,0.483 -0.187,0.724 -0.013,0.069 0,0.14 -0.014,0.207 C 2.29,-0.173 2.263,-0.14 2.26,-0.07 2.257,0.023 2.261,0.44 2.169,0.452 2.141,0.456 2.132,0.414 2.117,0.411 2.059,0.398 2.005,0.398 1.946,0.399 1.853,0.401 1.612,0.337 1.547,0.359 1.435,0.399 1.457,0.535 1.417,0.656 1.339,0.89 1.298,1.095 1.244,1.338 1.211,1.487 1.124,1.652 1.046,1.777 0.94,1.946 1.078,2.12 1.042,2.309 0.94,2.343 0.87,2.294 0.782,2.364 0.712,2.419 0.679,2.588 0.626,2.667 0.55,2.783 0.507,2.897 0.448,3.025 0.385,3.164 0.289,3.288 0.198,3.41 0.064,3.589 -0.088,3.791 -0.284,3.906 -0.455,4.006 -0.641,4.165 -0.843,4.185 -0.969,4.198 -1.001,4.192 -1.112,4.277 -1.269,4.397 -1.407,4.534 -1.545,4.675 -1.756,4.89 -2.043,5.111 -2.306,5.259 -2.438,5.333 -2.578,5.393 -2.717,5.471 -2.878,5.561 -3.047,5.665 -3.196,5.775 -3.284,5.84 -3.345,5.868 -3.449,5.901 -3.587,5.946 -3.678,6.033 -3.811,6.088 -4.08,6.201 -4.307,6.297 -4.507,6.512 -4.572,6.582 -4.601,6.677 -4.662,6.745 -4.748,6.84 -4.914,6.853 -5.025,6.893 -5.266,6.982 -5.485,7.068 -5.743,7.082 -5.85,7.088 -5.963,7.105 -6.066,7.139 -6.134,7.161 -6.192,7.208 -6.259,7.233 -6.49,7.319 -6.757,7.322 -6.997,7.366 -7.135,7.392 -7.251,7.423 -7.392,7.413 -7.485,7.406 -7.555,7.369 -7.645,7.362 -7.84,7.347 -8.035,7.398 -8.217,7.321 -8.348,7.266 -8.49,7.187 -8.634,7.17 -8.718,7.16 -8.826,7.176 -8.909,7.176 c -0.25,0 -0.504,0.02 -0.752,0.002 C -9.817,7.167 -9.99,7.134 -10.122,7.048 -10.27,6.951 -10.398,6.852 -10.564,6.773 -10.683,6.716 -10.791,6.71 -10.913,6.664 -11.193,6.56 -11.486,6.61 -11.764,6.522 -11.847,6.496 -11.926,6.457 -12.012,6.44 -12.09,6.424 -12.129,6.421 -12.19,6.394 -12.23,6.377 -12.275,6.345 -12.316,6.324 -12.406,6.278 -12.5,6.235 -12.588,6.183 -12.622,6.163 -12.653,6.134 -12.69,6.113 -12.758,6.076 -12.826,6.075 -12.892,6.045 -12.948,6.02 -12.974,5.984 -13.028,5.96 -13.09,5.932 -13.177,5.938 -13.241,5.905 -13.338,5.855 -13.44,5.768 -13.487,5.68 c -0.092,-0.175 -0.282,-0.214 -0.462,-0.282 -0.156,-0.059 -0.295,-0.144 -0.465,-0.175 -0.119,-0.022 -0.237,-0.065 -0.342,-0.092 -0.109,-0.027 -0.211,-0.085 -0.319,-0.107 -0.042,-0.008 -0.095,0.005 -0.139,0.004 -0.08,-0.004 -0.117,-0.023 -0.188,-0.05 -0.047,-0.017 -0.178,-0.077 -0.19,0.033 -0.01,-0.048 -0.035,-0.095 -0.043,-0.146 -0.035,-0.227 -0.147,-0.277 -0.339,-0.449 -0.336,-0.301 -0.683,-0.502 -0.809,-0.953 -0.047,-0.17 -0.054,-0.352 -0.149,-0.51 -0.038,-0.062 -0.091,-0.118 -0.133,-0.177 -0.138,-0.196 -0.208,-0.455 -0.368,-0.632 -0.061,-0.069 -0.061,-0.066 -0.165,-0.061 -0.124,0.004 -0.106,0.01 -0.166,-0.085 -0.121,-0.19 -0.246,-0.371 -0.346,-0.574 -0.054,-0.108 -0.103,-0.224 -0.163,-0.331 -0.12,-0.216 -0.204,-0.443 -0.312,-0.665 -0.11,-0.228 -0.134,-0.524 -0.171,-0.773 -0.035,-0.242 -0.126,-0.48 -0.153,-0.722 -0.035,-0.305 -0.131,-0.489 -0.281,-0.772 -0.097,-0.181 -0.181,-0.334 -0.216,-0.533 -0.017,-0.095 -0.025,-0.19 -0.06,-0.282 -0.024,-0.064 -0.069,-0.122 -0.088,-0.188 -0.075,-0.268 0.012,-0.63 0.03,-0.903 0.014,-0.231 0.048,-0.497 -0.021,-0.722 -0.053,-0.175 -0.114,-0.294 -0.108,-0.47 0.002,-0.089 0.017,-0.118 0.035,-0.185 0.034,-0.122 -0.004,-0.256 0.014,-0.381 0.045,-0.308 0.221,-0.59 0.268,-0.904 0.027,-0.179 -0.011,-0.351 -0.038,-0.529 -0.023,-0.157 -0.094,-0.35 -0.007,-0.475 0.067,-0.097 0.196,-0.145 0.262,-0.252 0.072,-0.117 0.125,-0.272 0.185,-0.398 0.044,-0.091 0.081,-0.165 0.145,-0.246 0.15,-0.195 0.281,-0.401 0.434,-0.594 0.225,-0.284 0.316,-0.628 0.479,-0.94 0.193,-0.371 0.759,-0.423 0.99,-0.766 0.165,-0.245 0.257,-0.55 0.365,-0.822 0.034,-0.085 0.06,-0.126 0.119,-0.188 0.108,-0.111 0.269,-0.142 0.37,-0.251 0.038,-0.041 0.066,-0.098 0.098,-0.143 0.078,-0.104 0.183,-0.198 0.244,-0.313 0.057,-0.108 0.1,-0.177 0.194,-0.266 0.098,-0.094 0.202,-0.181 0.301,-0.274 0.29,-0.269 0.641,-0.47 1,-0.633 0.18,-0.082 0.307,-0.197 0.46,-0.317 0.227,-0.178 0.431,-0.202 0.704,-0.282 0.22,-0.065 0.45,-0.13 0.626,-0.281 0.165,-0.141 0.453,-0.241 0.665,-0.303 0.147,-0.043 0.261,-0.083 0.395,-0.157 0.103,-0.056 0.18,-0.027 0.29,-0.049 0.07,-0.014 0.131,-0.054 0.197,-0.076 0.149,-0.049 0.292,-0.055 0.444,-0.073 0.133,-0.016 0.252,-0.033 0.386,-0.032 0.11,10e-4 0.22,0 0.33,0 0.12,0 0.28,0.027 0.393,-0.002 0.099,-0.025 0.174,-0.117 0.26,-0.174 0.201,-0.132 0.406,-0.222 0.638,-0.271 0.072,-0.015 0.126,-0.029 0.203,-0.01 0.135,0.035 0.262,0.029 0.407,0.047 0.13,0.016 0.251,0.038 0.382,0.036 0.145,-0.002 0.27,-0.008 0.407,0.044 0.268,0.101 0.547,0.169 0.826,0.233 0.104,0.024 0.225,0.034 0.321,0.081 0.046,0.023 0.081,0.056 0.132,0.066 0.081,0.018 0.178,-0.016 0.261,-0.005 0.023,0.003 0.044,0.021 0.058,0.025 0.081,0.02 0.179,0.017 0.27,0.029 0.314,0.039 0.425,0.267 0.695,0.382 0.11,0.048 0.228,0.054 0.342,0.088 0.225,0.066 0.508,0.113 0.706,0.24 0.203,0.13 0.401,0.276 0.599,0.412 0.108,0.075 0.207,0.123 0.321,0.211 0.146,0.114 0.304,0.216 0.46,0.314 0.365,0.228 0.736,0.5 1.063,0.79 0.091,0.081 0.203,0.178 0.269,0.264 0.038,0.049 -0.007,0.027 0.067,0.107 0.064,0.069 0.145,0.126 0.213,0.193 -0.004,0.017 -0.012,0.031 -0.025,0.043 0.069,0.051 0.142,0.104 0.215,0.153 0.094,0.063 0.106,0.061 0.148,0.156 0.063,0.144 0.163,0.366 0.281,0.474 0.064,0.06 0.136,0.067 0.209,0.101 0.128,0.06 0.269,0.142 0.368,0.245 0.067,0.07 0.076,0.154 0.115,0.24 0.118,0.258 -0.016,0.56 0.091,0.823 0.072,-0.011 0.137,0.018 0.204,0.041 0.133,0.045 0.304,0.08 0.415,0.176 0.134,0.114 0.179,0.281 0.28,0.418 0.071,0.096 0.176,0.156 0.245,0.257 0.063,0.093 0.081,0.206 0.143,0.297 -0.01,-0.015 0.065,0.082 0.065,0.082 0.023,0.067 0.002,0.135 0.025,0.209 0.044,0.144 0.118,0.276 0.156,0.423 0.073,0.278 0.115,0.594 0.107,0.881 -0.004,0.138 0.019,0.215 0.068,0.35 0.054,0.15 0.077,0.312 0.129,0.462 0.028,0.081 0.08,0.146 0.105,0.229 0.039,0.127 0.072,0.262 0.104,0.392 0.041,0.169 0.08,0.329 0.105,0.495 0.027,0.188 0.164,0.342 0.22,0.526 0.072,0.233 0.059,0.493 0.062,0.737 10e-4,0.124 0.004,0.132 -0.047,0.231"
             style="fill:#100f0d;fill-opacity:1;fill-rule:nonzero;stroke:none"
             id="path55381" />
        </g>
      </g>
    </g>
  </g>
</svg>
