<svg width="25" height="24" viewBox="0 0 25 24" fill="#000000" xmlns="http://www.w3.org/2000/svg">
  <path d="M20.5542 7.75478C20.4716 7.87923 20.3503 7.95871 20.2562 8.07271C20.1736 8.17206 20.1349 8.31221 20.0041 8.36764C19.9121 8.40738 19.8075 8.42202 19.7123 8.46281C19.4467 8.5789 19.1842 8.70753 18.9175 8.82258C18.7376 8.90101 18.5703 8.98991 18.4113 9.10391C18.2649 9.20954 18.131 9.34131 17.9752 9.42393C17.6928 9.57453 17.3801 9.66761 17.0998 9.81508C16.8896 9.92593 16.6899 9.95626 16.464 10.041C16.3583 10.0818 16.2558 10.0912 16.1617 10.1372C16.0812 10.1769 15.9902 10.1916 15.9118 10.2376C16.2307 10.2188 16.5435 10.1654 16.8603 10.1278C16.9796 10.11 17.0957 10.0839 17.2107 10.0493C17.3048 10.042 17.3979 10.0357 17.4931 10.0305C17.5569 10.0148 17.6165 9.98868 17.6709 9.95103C17.7315 9.94371 17.7932 9.93744 17.8549 9.93221C17.971 9.90397 18.085 9.82972 18.2022 9.79521C18.3266 9.75755 18.4636 9.75755 18.5797 9.69899C18.677 9.65088 18.7146 9.62369 18.8161 9.60591C19.0503 9.56512 19.2344 9.45322 19.4415 9.34759C19.6046 9.26392 19.819 9.25869 19.9644 9.14992C20.0983 9.04848 20.2562 8.97945 20.3838 8.86755C20.4413 8.81735 20.5929 8.55379 20.6463 8.7274C20.6693 8.80166 20.549 8.92716 20.5166 8.98782C20.4695 9.07671 20.4361 9.14156 20.3712 9.21581C20.3231 9.26915 20.275 9.30784 20.2363 9.36327C20.1777 9.44485 20.1464 9.54943 20.1014 9.63833C20.0219 9.79311 19.9633 10.0044 19.8033 10.087C19.681 10.1497 19.5408 10.1759 19.4164 10.2334C19.3024 10.2867 19.2135 10.3526 19.0827 10.3746C19.0137 10.3767 18.9457 10.3819 18.8767 10.3892C18.8192 10.4248 18.7585 10.4551 18.6947 10.4813C18.586 10.5252 18.4709 10.5848 18.3569 10.613C18.0484 10.6894 17.7786 10.8871 17.469 10.9697C17.2253 11.0345 16.9639 11.0366 16.7202 11.1025C16.5591 11.1454 16.4065 11.1653 16.2402 11.1632C16.0958 11.1621 15.9703 11.25 15.8291 11.2625C16.7861 11.25 17.7357 11.3598 18.6874 11.3587C19.134 11.3587 19.6349 11.3859 20.0094 11.1182C20.1474 11.0188 20.2917 10.9153 20.4308 10.8212C20.5312 10.7521 20.6212 10.727 20.7258 10.6685C20.548 11.0753 20.1338 11.3504 19.8724 11.6997C19.7688 11.8388 19.6276 11.9183 19.4603 11.9454C19.065 12.0092 18.6811 11.9936 18.2785 11.9946C17.7796 11.9946 17.2839 12.0448 16.807 12.1912C16.602 12.254 16.3552 12.2916 16.1429 12.2874C16.0666 12.2864 15.9933 12.2843 15.917 12.2979C15.8783 12.3063 15.8563 12.3261 15.8218 12.3345C16.0791 12.3324 16.3468 12.3042 16.5978 12.3314C16.8279 12.3565 17.012 12.4694 17.2065 12.5709C17.2567 12.597 17.3132 12.6064 17.3634 12.6273C17.4554 12.666 17.4983 12.733 17.5799 12.7926C17.6709 12.8585 17.7922 12.939 17.8957 12.9714C18.1415 13.0499 18.3956 13.0467 18.6456 13.0802C18.8087 13.1021 18.9635 13.144 19.1256 13.1701C19.386 13.212 19.6684 13.1597 19.887 13.0153C19.8954 13.007 19.9048 12.9986 19.9131 12.9892C19.9466 12.94 19.9905 12.9055 20.0428 12.8857C19.9968 12.9359 19.9435 12.9777 19.887 13.0153C19.7489 13.1597 19.6067 13.2998 19.4592 13.4347C19.3149 13.579 19.1591 13.714 18.9949 13.8363C18.952 13.8782 18.9123 13.8823 18.8736 13.852C18.7857 13.8823 18.7376 13.8991 18.6362 13.9001C18.5692 13.9012 18.5023 13.9127 18.4354 13.9106C18.199 13.9022 17.9825 13.7589 17.7619 13.693C17.5882 13.6418 17.4105 13.6303 17.2421 13.5592C16.8488 13.3929 16.4525 13.3071 16.0341 13.2276C15.8501 13.1921 15.665 13.213 15.4788 13.1785C15.3366 13.1513 15.1891 13.1816 15.0531 13.1377C15.4035 13.3824 15.7612 13.6146 16.0707 13.9022C16.282 14.0978 16.5163 14.2285 16.8018 14.3143C17.0998 14.4021 17.4816 14.3404 17.7932 14.3404C17.9627 14.3404 18.1404 14.3551 18.3088 14.332C18.336 14.4084 18.0014 14.5726 17.9313 14.5914C17.8037 14.6259 17.6688 14.6343 17.5391 14.6583C17.4261 14.6793 17.3289 14.6782 17.2149 14.6803C17.0026 14.6855 16.7882 14.7472 16.5769 14.7713C16.3824 14.7933 16.1534 14.7744 15.9745 14.6845C15.8501 14.6217 15.7528 14.5339 15.6231 14.4764C15.5175 14.4293 15.416 14.3592 15.3094 14.309C15.1943 14.2547 15.1086 14.2201 14.981 14.1825C14.5731 14.0643 13.9529 13.9775 13.6235 14.2954C13.545 14.3707 13.4425 14.4094 13.3704 14.4826C13.2972 14.5579 13.2344 14.6489 13.1476 14.7211C13.1121 14.7504 13.0765 14.7838 13.043 14.8173C13.2083 15.221 13.4248 15.5996 13.6831 15.9636C13.7532 16.0629 13.796 16.156 13.8755 16.2438C13.9655 16.3411 14.0565 16.4321 14.114 16.5534C14.2154 16.7709 14.3807 16.9655 14.479 17.184C14.525 17.2886 14.5647 17.4183 14.5992 17.5281C14.6379 17.6515 14.6976 17.7823 14.7132 17.9088C14.7561 18.255 14.7091 18.6357 14.7091 18.986C14.7101 19.4336 14.6536 19.875 14.6609 20.3226C14.6714 20.2285 14.6369 20.1385 14.6223 20.0465C14.6055 19.9398 14.6107 19.8363 14.6128 19.7296C14.617 19.4953 14.5553 19.327 14.4403 19.1324C14.3807 19.031 14.3556 18.9484 14.3221 18.8386C14.2803 18.7057 14.184 18.62 14.1318 18.4924C14.0784 18.3648 14.0439 18.2947 13.9676 18.1598C13.9299 18.0908 13.8577 17.9862 13.8023 17.8816C13.8264 17.9831 13.8295 18.0814 13.8295 18.2184V18.7204C13.8295 18.9233 13.8295 19.1262 13.8306 19.3291C13.8326 19.5884 13.7814 19.8426 13.7793 20.1009C13.7751 20.5401 13.7856 20.971 13.7291 21.4092C13.6862 21.7481 13.6277 22.2511 13.4216 22.5555C13.3442 22.5063 13.3903 22.1915 13.3903 22.1005V21.245C13.3903 20.8183 13.4164 20.4 13.3244 19.9827C13.2585 19.6867 13.1936 19.3908 13.1131 19.0979C13.0326 18.8082 12.9186 18.5081 12.8652 18.2131C12.859 18.1786 12.8475 18.1483 12.8506 18.1159C12.859 18.2769 12.8778 18.4725 12.8548 18.6304C12.8046 18.9745 12.7889 19.3322 12.7063 19.6731C12.6467 19.9262 12.5996 20.1877 12.5693 20.446C12.563 20.6468 12.5567 20.8487 12.5494 21.0495C12.5222 21.2293 12.4961 21.4092 12.472 21.5891C12.4333 21.928 12.4229 22.2647 12.4009 22.6036C12.3925 22.7176 12.4145 23.069 12.3528 23.1851C12.2639 23.1589 12.3277 22.8368 12.3036 22.7469C12.2618 22.5837 12.2158 22.4331 12.2168 22.2584C12.2189 22.0692 12.2221 21.8788 12.2189 21.6885C12.2147 21.4667 12.1645 21.2503 12.1687 21.0275C12.1813 20.3676 12.0464 19.7275 11.9909 19.0728C11.97 18.8323 11.9658 18.5917 11.9711 18.3502C11.9731 18.2853 11.9805 18.2226 11.9616 18.1598C11.8811 18.2069 11.9271 18.5028 11.925 18.5907C11.9209 18.9076 11.8675 19.2307 11.832 19.5466C11.8058 19.7819 11.7556 20.0183 11.7326 20.2536C11.7159 20.4282 11.6531 20.5862 11.6102 20.7598C11.5213 21.1216 11.4837 21.4573 11.4837 21.8338C11.4837 22.2145 11.4837 22.5952 11.4837 22.9759C11.4837 22.636 11.2892 22.2762 11.1543 21.9562C11.0695 21.7564 11.0455 21.5441 11.0089 21.3329C10.9576 21.0442 10.9001 20.765 10.8269 20.4805C10.7296 20.1061 10.7391 19.7401 10.7893 19.3583C10.8154 19.1586 10.8008 18.9505 10.7987 18.7486C10.7945 18.3627 10.8499 17.9789 10.851 17.5919C10.7401 18.0573 10.4305 18.4202 10.2841 18.8637C10.2559 18.9494 10.2632 19.0237 10.2632 19.1157C10.2622 19.2778 10.1973 19.4148 10.1408 19.5675C9.95782 20.0632 9.66184 20.5495 9.37006 20.9867C9.52379 20.6228 9.67544 20.287 9.67753 19.8854C9.67753 19.7871 9.67649 19.6888 9.67544 19.5905C9.67335 19.4776 9.70577 19.3887 9.72041 19.2789C9.7612 18.9735 9.71623 18.6472 9.72355 18.3386C9.73192 18.0029 9.89716 17.6693 9.96723 17.3566C10.0038 17.1987 10.0812 17.0324 10.145 16.8776C10.1848 16.7824 10.2297 16.7186 10.2883 16.6371C10.3176 16.5952 10.3678 16.5367 10.3856 16.4917C10.4086 16.4331 10.396 16.3714 10.4159 16.3087C10.4515 16.1926 10.5278 16.1183 10.556 15.9918C10.6021 15.7868 10.6585 15.586 10.7286 15.3904C10.7652 15.2869 10.7631 15.1645 10.7579 15.0453C10.6334 14.9533 10.5268 14.8194 10.4065 14.7211C10.3197 14.6489 10.2569 14.5579 10.1837 14.4826C10.1116 14.4094 10.0091 14.3707 9.93167 14.2954C9.60119 13.9775 8.981 14.0643 8.57417 14.1825C8.44553 14.2201 8.35978 14.2547 8.24473 14.309C8.13806 14.3592 8.03661 14.4293 7.93098 14.4764C7.8013 14.5339 7.70404 14.6217 7.57958 14.6845C7.40074 14.7744 7.1717 14.7933 6.97718 14.7713C6.76592 14.7472 6.55152 14.6855 6.33922 14.6803C6.22522 14.6782 6.12796 14.6793 6.01501 14.6583C5.88532 14.6343 5.75041 14.6259 5.62387 14.5914C5.55275 14.5726 5.21808 14.4084 5.24632 14.332C5.41365 14.3551 5.59144 14.3404 5.76087 14.3404C6.07253 14.3404 6.45426 14.4021 6.75233 14.3143C7.03784 14.2285 7.27211 14.0978 7.48336 13.9022C7.79293 13.6146 8.15061 13.3824 8.50097 13.1377C8.36501 13.1816 8.21754 13.1513 8.07531 13.1785C7.88915 13.213 7.70404 13.1921 7.51997 13.2276C7.10163 13.3071 6.70631 13.3929 6.31203 13.5592C6.14365 13.6303 5.96585 13.6418 5.79329 13.693C5.57157 13.7589 5.35613 13.9022 5.11873 13.9106C5.05284 13.9127 4.98486 13.9012 4.91897 13.9001C4.81648 13.8991 4.76837 13.8823 4.68052 13.852C4.64182 13.8823 4.60208 13.8782 4.5592 13.8363C4.39501 13.714 4.24022 13.579 4.09485 13.4347C3.94739 13.2998 3.80515 13.1597 3.66815 13.0153C3.61063 12.9777 3.55729 12.9359 3.51127 12.8857C3.56357 12.9055 3.60749 12.94 3.64096 12.9892C3.64932 12.9986 3.65874 13.007 3.66815 13.0153C3.88568 13.1597 4.16806 13.212 4.42847 13.1701C4.59058 13.144 4.74536 13.1021 4.90851 13.0802C5.15847 13.0467 5.41261 13.0499 5.65838 12.9714C5.76192 12.939 5.88428 12.8585 5.97422 12.7926C6.05684 12.733 6.09868 12.666 6.19071 12.6273C6.24091 12.6064 6.29739 12.597 6.34759 12.5709C6.54211 12.4694 6.72618 12.3565 6.95626 12.3314C7.20726 12.3042 7.475 12.3324 7.73227 12.3345C7.69881 12.3261 7.6758 12.3063 7.6371 12.2979C7.56076 12.2843 7.48859 12.2864 7.4112 12.2874C7.1989 12.2916 6.95208 12.254 6.74814 12.1912C6.27019 12.0448 5.77551 11.9946 5.2756 11.9946C4.87295 11.9936 4.49018 12.0092 4.09485 11.9454C3.92647 11.9183 3.78528 11.8388 3.68175 11.6997C3.42029 11.3504 3.00614 11.0753 2.82834 10.6685C2.93293 10.727 3.02287 10.7521 3.12327 10.8212C3.26237 10.9153 3.40669 11.0188 3.54474 11.1182C3.91915 11.3859 4.42115 11.3587 4.86668 11.3587C5.81944 11.3598 6.76801 11.25 7.72495 11.2625C7.58377 11.25 7.45827 11.1621 7.31394 11.1632C7.1487 11.1653 6.99496 11.1454 6.83495 11.1025C6.59022 11.0366 6.32876 11.0345 6.08508 10.9697C5.77551 10.8871 5.50569 10.6894 5.19716 10.613C5.08317 10.5848 4.96813 10.5252 4.85936 10.4813C4.79556 10.4551 4.7349 10.4248 4.67738 10.3892C4.60836 10.3819 4.54038 10.3767 4.47135 10.3746C4.34062 10.3526 4.25173 10.2867 4.13773 10.2334C4.01328 10.1759 3.87313 10.1497 3.75077 10.087C3.59076 10.0044 3.53324 9.79311 3.45271 9.63833C3.40774 9.54943 3.37636 9.44485 3.31884 9.36327C3.2791 9.30784 3.23099 9.26915 3.18393 9.21581C3.11804 9.14156 3.08562 9.07671 3.03751 8.98782C3.00613 8.92716 2.88586 8.80166 2.90783 8.7274C2.96116 8.55379 3.11386 8.81735 3.17033 8.86755C3.29792 8.97945 3.45585 9.04848 3.59076 9.14992C3.73508 9.25869 3.94948 9.26392 4.11368 9.34759C4.31971 9.45322 4.50377 9.56512 4.73909 9.60591C4.83949 9.62369 4.87714 9.65088 4.9744 9.69899C5.09153 9.75755 5.22749 9.75755 5.35195 9.79521C5.46908 9.82972 5.58412 9.90397 5.70021 9.93221C5.76087 9.93744 5.82257 9.94371 5.88323 9.95103C5.93762 9.98868 5.99723 10.0148 6.06207 10.0305C6.1562 10.0357 6.25032 10.042 6.3434 10.0493C6.45844 10.0839 6.57558 10.11 6.69376 10.1278C7.01169 10.1654 7.32335 10.2188 7.64233 10.2376C7.56389 10.1916 7.47291 10.1769 7.39238 10.1372C7.29825 10.0912 7.19576 10.0818 7.08908 10.041C6.86527 9.95626 6.66447 9.92593 6.45426 9.81508C6.17398 9.66761 5.86127 9.57453 5.57889 9.42393C5.42306 9.34131 5.2892 9.20954 5.14278 9.10391C4.98381 8.98991 4.81648 8.90101 4.6366 8.82258C4.36991 8.70753 4.1074 8.5789 3.84176 8.46281C3.74659 8.42202 3.642 8.40738 3.54997 8.36764C3.41924 8.31221 3.38054 8.17206 3.29792 8.07271C3.2038 7.95871 3.08248 7.87923 2.99986 7.75478C2.6997 7.30193 2.69134 6.76018 2.67147 6.23099C2.69134 6.32302 2.81475 6.46107 2.86704 6.51023C2.94548 6.58448 3.02182 6.66606 3.07516 6.76228C3.12745 6.85745 3.12013 6.96831 3.15883 7.05929C3.22994 7.22767 3.29479 7.26114 3.47362 7.35004C3.57821 7.40233 3.69639 7.45044 3.79993 7.49855C3.89091 7.54143 3.95262 7.58535 4.06034 7.59685C4.2967 7.62195 4.50064 7.67634 4.72863 7.73177C4.91793 7.77778 5.04447 7.86773 5.21285 7.9493C5.2892 7.98591 5.33521 8.03192 5.40424 8.07376C5.5151 8.14173 5.66779 8.16474 5.7912 8.19716C5.9418 8.23691 6.09554 8.23272 6.24823 8.26724C6.32981 8.28501 6.3821 8.31848 6.46158 8.34149C6.72199 8.4147 7.01588 8.43666 7.26374 8.52347C7.39342 8.56844 7.48859 8.5653 7.62664 8.57053C7.8902 8.58203 8.03661 8.76506 8.27925 8.83094C8.53338 8.90101 8.7436 9.09763 9.01342 9.11332C9.0835 9.1175 9.15148 9.09658 9.21945 9.11855C9.30103 9.14365 9.39515 9.22627 9.47359 9.26706C9.597 9.33085 9.8114 9.44799 9.90343 9.5578C9.93272 9.61637 9.96514 9.67179 10.0017 9.72409C10.0394 9.75651 10.0729 9.79207 10.1032 9.83181C10.1482 9.90188 10.1586 9.95731 10.1482 10.0399C10.1586 9.90815 10.235 9.90711 10.2988 9.95208C10.3542 9.99182 10.3594 10.0316 10.4033 10.0776C10.4588 10.1351 10.5403 10.1769 10.5968 10.2313C10.6575 10.2899 10.715 10.339 10.7683 10.3882C10.9367 10.1142 11.1082 9.83181 11.1396 9.51074C11.1574 9.32771 11.1532 9.11646 11.1177 8.93866C11.08 8.75564 11.0559 8.58935 11.0057 8.41156C10.9681 8.27456 10.9451 8.12814 10.9461 7.98486V7.98381C10.9419 7.9744 10.9367 7.96603 10.9325 7.95558C10.8729 7.81962 10.7432 7.76942 10.646 7.66692C10.5487 7.56548 10.5069 7.42429 10.4169 7.31866C10.373 7.26742 10.3427 7.24232 10.328 7.16597C10.3165 7.10113 10.3197 7.03524 10.3207 6.96935C10.3228 6.89824 10.3416 6.85431 10.3531 6.78738C10.3626 6.72985 10.3479 6.6692 10.3594 6.61272C10.3636 6.58867 10.3824 6.58135 10.3908 6.55311C10.4054 6.49768 10.395 6.44434 10.4148 6.38787C10.4326 6.33871 10.465 6.28537 10.4933 6.2404C10.6031 6.05947 10.7683 6.01555 10.9639 5.9643C11.0371 5.94548 11.2756 5.95698 11.5067 5.97476C11.56 5.95803 11.5946 5.92456 11.651 5.90469C11.7295 5.8775 11.8205 5.86495 11.9062 5.86704C12.0129 5.86913 12.0474 5.8524 12.13 5.79801C12.1603 5.77814 12.198 5.75409 12.2304 5.73945C12.2587 5.72585 12.2879 5.72376 12.3162 5.71225C12.3998 5.67879 12.4574 5.60558 12.5358 5.55852C12.6006 5.52087 12.6739 5.50623 12.7439 5.47799C12.7994 5.45603 12.8516 5.4236 12.9039 5.39014L13.9874 4.61622C14.0648 4.58171 14.1474 4.58066 14.2342 4.57857C14.2959 4.57857 14.3786 4.56602 14.4382 4.58275C14.4779 4.59321 14.5375 4.63086 14.5804 4.64969C14.6693 4.68838 14.7216 4.7459 14.7875 4.81597C14.8534 4.88604 14.9224 4.92788 14.9925 4.98749C15.0521 5.03874 15.0437 5.05547 15.0427 5.136C15.0416 5.19875 15.0427 5.26045 15.0427 5.3232C15.0416 5.13391 14.9674 5.0492 14.7885 5.00945C14.6683 4.98226 14.5302 4.94461 14.4079 4.93729C14.343 4.93311 14.2928 4.93311 14.2405 4.96448C14.1997 4.98958 14.1548 5.01991 14.1129 5.04606C14.07 5.07325 14.0261 5.09939 14.0083 5.15273C13.9937 5.19247 14 5.21757 13.9759 5.2615C13.955 5.29915 13.9268 5.33471 13.9017 5.36922C13.8651 5.41838 13.8452 5.46125 13.8159 5.51459C13.7898 5.5627 13.749 5.58466 13.7145 5.6244C13.6726 5.67356 13.6318 5.74363 13.5963 5.79906C13.5346 5.89318 13.4488 5.95803 13.3882 6.05215C13.2867 6.20903 13.1842 6.37323 13.0786 6.52383C13.0117 6.619 12.9301 6.6943 12.836 6.76123C12.7868 6.79783 12.7544 6.83967 12.7 6.86895C12.6498 6.89719 12.5253 6.9317 12.5034 6.98608C12.5536 7.05302 12.6195 7.05616 12.6833 7.10322C12.7303 7.13668 12.7586 7.17747 12.8088 7.20153C12.859 7.22558 12.9269 7.22035 12.9771 7.23604C13.0043 7.24545 13.0138 7.26532 13.042 7.27474C13.1309 7.30297 13.2428 7.31029 13.3369 7.30925C13.5011 7.30716 13.6507 7.37514 13.819 7.34272C13.9017 7.32598 13.9592 7.28206 14.0449 7.27369C14.068 7.27055 14.1098 7.26637 14.1474 7.25487C14.1684 7.22767 14.1903 7.20048 14.2186 7.17956C14.2269 7.21931 14.1903 7.24232 14.1474 7.25487C14.1202 7.29252 14.0941 7.33226 14.0596 7.36677C14.0083 7.41802 13.9801 7.43684 13.9404 7.48913C13.8755 7.57698 13.7688 7.64915 13.658 7.67006C13.5806 7.6847 13.4948 7.66065 13.4164 7.66692C13.3212 7.67425 13.2449 7.70562 13.1476 7.70458C13.0085 7.70353 12.8318 7.67111 12.6979 7.70248C12.5452 7.73909 12.4302 7.94721 12.3706 8.08003C12.3559 8.11245 12.3643 8.14174 12.357 8.17207C12.3455 8.21181 12.3266 8.22959 12.3078 8.26619C12.2545 8.36764 12.2555 8.50882 12.2346 8.62073C12.22 8.68975 12.2043 8.76087 12.1886 8.83199C12.1907 8.83826 12.1907 8.84558 12.1928 8.85081C12.2231 8.96481 12.2377 9.09868 12.267 9.21686C12.2838 9.28379 12.2785 9.3068 12.3089 9.37059C12.3245 9.40406 12.3434 9.43439 12.357 9.46681C12.4103 9.58813 12.4971 9.70526 12.5881 9.80775C12.7126 9.94894 12.814 10.11 12.9154 10.27C12.929 10.2575 12.9437 10.2449 12.9573 10.2313C13.0138 10.1769 13.0953 10.1351 13.1508 10.0776C13.1947 10.0316 13.1999 9.99182 13.2553 9.95208C13.3191 9.90711 13.3955 9.90815 13.4059 10.0399C13.3955 9.95731 13.4059 9.90188 13.4509 9.83181C13.4812 9.79207 13.5147 9.75651 13.5524 9.72409C13.59 9.67179 13.6224 9.61637 13.6507 9.5578C13.7427 9.44799 13.9571 9.33085 14.0805 9.26706C14.1589 9.22627 14.2531 9.14365 14.3346 9.11855C14.4037 9.09658 14.4706 9.1175 14.5407 9.11332C14.8105 9.09763 15.0207 8.90101 15.2749 8.83094C15.5175 8.76506 15.6639 8.58203 15.9275 8.57053C16.0655 8.5653 16.1607 8.56844 16.2904 8.52347C16.5393 8.43666 16.8321 8.4147 17.0925 8.34149C17.172 8.31848 17.2243 8.28501 17.3059 8.26724C17.4586 8.23272 17.6123 8.23691 17.7629 8.19716C17.8863 8.16474 18.039 8.14173 18.1499 8.07376C18.2189 8.03192 18.2649 7.98591 18.3423 7.9493C18.5096 7.86773 18.6362 7.77778 18.8255 7.73177C19.0535 7.67634 19.2574 7.62195 19.4938 7.59685C19.6015 7.58535 19.6632 7.54143 19.7542 7.49855C19.8577 7.45044 19.9759 7.40233 20.0805 7.35004C20.2593 7.26114 20.3252 7.22767 20.3953 7.05929C20.434 6.96831 20.4266 6.85745 20.4789 6.76228C20.5323 6.66606 20.6086 6.58448 20.6871 6.51023C20.7394 6.46107 20.8638 6.32302 20.8826 6.23099C20.8628 6.76018 20.8544 7.30193 20.5542 7.75478ZM24.0923 11.4424C24.0599 11.3786 24.0264 11.3117 24.0086 11.2437C23.971 11.1077 23.9835 10.9561 23.9459 10.8264C23.9271 10.7595 23.8863 10.7072 23.8591 10.6381C23.811 10.5189 23.8047 10.3882 23.7535 10.27C23.6719 10.0818 23.5558 9.91025 23.4648 9.72722C23.3979 9.5944 23.3843 9.45322 23.3309 9.31935C23.2839 9.20012 23.2128 9.09868 23.1751 8.97318C23.0988 8.72322 23.0256 8.46804 22.9795 8.21599C22.9659 8.14383 22.9795 8.06957 22.9649 7.9995C22.9492 7.93571 22.921 7.90119 22.9178 7.82798C22.9147 7.73072 22.9189 7.29461 22.8227 7.28206C22.7934 7.27787 22.784 7.3218 22.7683 7.32494C22.7076 7.33853 22.6511 7.33853 22.5894 7.33749C22.4922 7.3354 22.2401 7.40233 22.1722 7.37932C22.055 7.33749 22.078 7.19525 22.0362 7.06871C21.9546 6.82398 21.9117 6.60958 21.8553 6.35545C21.8208 6.19962 21.7298 6.02705 21.6482 5.89632C21.5373 5.71958 21.6817 5.5376 21.644 5.33994C21.5373 5.30438 21.4641 5.35562 21.3721 5.28242C21.2989 5.2249 21.2644 5.04815 21.2089 4.96553C21.1295 4.84421 21.0845 4.72499 21.0228 4.59112C20.9569 4.44575 20.8565 4.31606 20.7613 4.18847C20.6212 4.00127 20.4622 3.79001 20.2572 3.66974C20.0784 3.56515 19.8839 3.39886 19.6726 3.37795C19.5408 3.36435 19.5074 3.37063 19.3913 3.28173C19.2271 3.15623 19.0827 3.01295 18.9384 2.86549C18.7177 2.64063 18.4176 2.4095 18.1425 2.25472C18.0045 2.17732 17.8581 2.11457 17.7127 2.033C17.5443 1.93887 17.3676 1.83011 17.2117 1.71507C17.1197 1.64709 17.0559 1.6178 16.9471 1.58329C16.8028 1.53623 16.7077 1.44524 16.5686 1.38772C16.2872 1.26954 16.0498 1.16914 15.8407 0.944283C15.7727 0.871074 15.7423 0.77172 15.6785 0.700603C15.5886 0.601248 15.415 0.587653 15.2989 0.54582C15.0469 0.45274 14.8178 0.362797 14.548 0.348156C14.4361 0.341881 14.3179 0.324102 14.2102 0.288544C14.1391 0.265535 14.0784 0.216381 14.0083 0.190235C13.7668 0.100293 13.4875 0.0971543 13.2365 0.0511374C13.0922 0.0239456 12.9709 -0.00847424 12.8234 0.00198413C12.7261 0.009305 12.6529 0.0480016 12.5588 0.0553225C12.3549 0.07101 12.1509 0.0176707 11.9606 0.0982002C11.8236 0.155721 11.6751 0.238343 11.5245 0.256123C11.4366 0.266581 11.3237 0.249847 11.2369 0.249847C10.9754 0.249847 10.7098 0.228931 10.4504 0.247757C10.2873 0.259261 10.1063 0.293772 9.96828 0.383714C9.81349 0.485161 9.67962 0.588698 9.50601 0.671319C9.38156 0.730932 9.26861 0.737208 9.14102 0.785317C8.84818 0.894084 8.54175 0.841792 8.25101 0.933826C8.16421 0.961018 8.08158 1.0018 7.99164 1.01958C7.91007 1.03632 7.86928 1.03945 7.80548 1.06769C7.76365 1.08547 7.71659 1.11894 7.67371 1.1409C7.57958 1.18901 7.48127 1.23398 7.38924 1.28836C7.35368 1.30928 7.32126 1.33961 7.28256 1.36157C7.21145 1.40027 7.14033 1.40131 7.0713 1.43269C7.01274 1.45884 6.98555 1.49648 6.92907 1.52158C6.86423 1.55087 6.77324 1.54459 6.70631 1.57911C6.60486 1.6314 6.49819 1.72239 6.44903 1.81442C6.35281 1.99744 6.1541 2.03823 5.96585 2.10935C5.8027 2.17105 5.65733 2.25995 5.47954 2.29237C5.35509 2.31538 5.23168 2.36035 5.12186 2.38858C5.00787 2.41682 4.90119 2.47748 4.78824 2.50049C4.74432 2.50886 4.68889 2.49526 4.64287 2.49631C4.5592 2.50049 4.52051 2.52036 4.44625 2.5486C4.3971 2.56638 4.26009 2.62913 4.24754 2.51409C4.23709 2.56429 4.21094 2.61344 4.20257 2.66678C4.16597 2.90418 4.04883 2.95647 3.84803 3.13636C3.49663 3.45116 3.13373 3.66137 3.00195 4.13304C2.9528 4.31083 2.94548 4.50118 2.84612 4.66642C2.80638 4.73126 2.75095 4.78983 2.70702 4.85153C2.5627 5.05651 2.48949 5.32739 2.32216 5.5125C2.25836 5.58466 2.25836 5.58153 2.14959 5.5763C2.01991 5.57211 2.03874 5.56584 1.97599 5.66519C1.84944 5.8639 1.71871 6.0532 1.61412 6.2655C1.55765 6.37845 1.5064 6.49977 1.44365 6.61168C1.31815 6.83758 1.2303 7.07498 1.11735 7.30716C1.00231 7.54561 0.97721 7.85518 0.938514 8.11559C0.901909 8.36868 0.806738 8.61759 0.778501 8.87068C0.741896 9.18966 0.641496 9.3821 0.48462 9.67807C0.383174 9.86737 0.295324 10.0274 0.25872 10.2355C0.240941 10.3349 0.232574 10.4342 0.19597 10.5304C0.17087 10.5974 0.123806 10.658 0.103935 10.727C0.0254973 11.0073 0.116486 11.3859 0.135311 11.6714C0.149953 11.913 0.185511 12.1912 0.113348 12.4265C0.0579191 12.6096 -0.00587676 12.734 0.000398261 12.9181C0.00248994 13.0112 0.0181773 13.0415 0.0370024 13.1116C0.0725609 13.2391 0.032819 13.3793 0.0516441 13.51C0.0987068 13.8321 0.282774 14.1271 0.331928 14.4555C0.360166 14.6427 0.320424 14.8225 0.292186 15.0087C0.268132 15.1729 0.193878 15.3747 0.284865 15.5055C0.354936 15.6069 0.489851 15.6571 0.558876 15.769C0.634176 15.8914 0.689605 16.0535 0.752355 16.1853C0.798372 16.2804 0.837068 16.3578 0.904002 16.4425C1.06088 16.6465 1.19788 16.8619 1.3579 17.0638C1.59321 17.3608 1.68838 17.7206 1.85885 18.0469C2.0607 18.4349 2.65264 18.4893 2.89423 18.848C3.06679 19.1042 3.16301 19.4232 3.27596 19.7077C3.31152 19.7965 3.33871 19.8394 3.40042 19.9043C3.51337 20.0204 3.68175 20.0528 3.78738 20.1668C3.82712 20.2097 3.8564 20.2693 3.88987 20.3163C3.97144 20.4251 4.08126 20.5234 4.14505 20.6437C4.20467 20.7566 4.24964 20.8288 4.34794 20.9219C4.45044 21.0202 4.5592 21.1112 4.66274 21.2084C4.96603 21.4898 5.33312 21.7 5.70858 21.8704C5.89683 21.9562 6.02965 22.0765 6.18966 22.202C6.42707 22.3881 6.64042 22.4132 6.92593 22.4969C7.15602 22.5649 7.39656 22.6329 7.58063 22.7908C7.75319 22.9382 8.05439 23.0428 8.27611 23.1077C8.42985 23.1526 8.54907 23.1945 8.68921 23.2719C8.79694 23.3304 8.87747 23.3001 8.99251 23.3231C9.06572 23.3378 9.12951 23.3796 9.19854 23.4026C9.35437 23.4538 9.50392 23.4601 9.66289 23.4789C9.80199 23.4957 9.92644 23.5135 10.0666 23.5124C10.1816 23.5114 10.2967 23.5124 10.4117 23.5124C10.5372 23.5124 10.7045 23.4842 10.8227 23.5145C10.9263 23.5406 11.0047 23.6369 11.0946 23.6965C11.3049 23.8345 11.5193 23.9286 11.7619 23.9799C11.8372 23.9956 11.8937 24.0102 11.9742 23.9904C12.1154 23.9538 12.2482 23.96 12.3998 23.9412C12.5358 23.9245 12.6624 23.9015 12.7994 23.9035C12.951 23.9056 13.0817 23.9119 13.225 23.8575C13.5053 23.7519 13.7971 23.6808 14.0889 23.6139C14.1976 23.5888 14.3242 23.5783 14.4246 23.5291C14.4727 23.5051 14.5093 23.4706 14.5626 23.4601C14.6474 23.4413 14.7488 23.4768 14.8356 23.4653C14.8597 23.4622 14.8816 23.4434 14.8963 23.4392C14.981 23.4183 15.0835 23.4214 15.1786 23.4089C15.507 23.3681 15.6231 23.1296 15.9055 23.0094C16.0205 22.9592 16.1439 22.9529 16.2632 22.9173C16.4985 22.8483 16.7945 22.7991 17.0015 22.6663C17.2138 22.5304 17.4209 22.3777 17.628 22.2354C17.7409 22.157 17.8445 22.1068 17.9637 22.0148C18.1164 21.8955 18.2816 21.7889 18.4448 21.6864C18.8265 21.4479 19.2145 21.1635 19.5565 20.8602C19.6517 20.7754 19.7688 20.674 19.8378 20.5841C19.8776 20.5328 19.8305 20.5558 19.9079 20.4722C19.9748 20.4 20.0596 20.3404 20.1307 20.2703C20.1265 20.2525 20.1181 20.2379 20.1045 20.2253C20.1767 20.172 20.253 20.1166 20.3294 20.0653C20.4277 19.9994 20.4402 20.0015 20.4842 19.9022C20.5501 19.7516 20.6546 19.5194 20.7781 19.4064C20.845 19.3437 20.9203 19.3364 20.9966 19.3008C21.1305 19.2381 21.278 19.1523 21.3815 19.0446C21.4516 18.9714 21.461 18.8835 21.5018 18.7936C21.6252 18.5238 21.485 18.2079 21.5969 17.9329C21.6722 17.9444 21.7402 17.914 21.8103 17.89C21.9494 17.8429 22.1282 17.8063 22.2443 17.7059C22.3845 17.5867 22.4315 17.412 22.5371 17.2688C22.6114 17.1684 22.7212 17.1056 22.7934 17C22.8593 16.9027 22.8781 16.7845 22.9429 16.6894C22.9325 16.7051 23.0109 16.6036 23.0109 16.6036C23.035 16.5335 23.013 16.4624 23.0371 16.385C23.0831 16.2344 23.1605 16.0964 23.2002 15.9426C23.2766 15.6519 23.3205 15.3214 23.3121 15.0213C23.3079 14.8769 23.332 14.7964 23.3832 14.6552C23.4397 14.4983 23.4638 14.3289 23.5181 14.172C23.5474 14.0873 23.6018 14.0193 23.628 13.9325C23.6687 13.7997 23.7033 13.6585 23.7367 13.5226C23.7796 13.3458 23.8204 13.1785 23.8465 13.0049C23.8748 12.8083 24.0181 12.6472 24.0766 12.4548C24.1519 12.2111 24.1383 11.9392 24.1415 11.684C24.1425 11.5543 24.1456 11.5459 24.0923 11.4424Z"/>
</svg>
