<?xml version="1.0" encoding="UTF-8" standalone="no"?>
<!-- Created with Inkscape (http://www.inkscape.org/) -->

<svg
   width="23.629866"
   height="24"
   viewBox="0 0 6.2520686 6.35"
   version="1.1"
   id="svg58062"
   inkscape:version="1.2.1 (9c6d41e4, 2022-07-14)"
   sodipodi:docname="the-heart-of-madness.svg"
   xmlns:inkscape="http://www.inkscape.org/namespaces/inkscape"
   xmlns:sodipodi="http://sodipodi.sourceforge.net/DTD/sodipodi-0.dtd"
   xmlns="http://www.w3.org/2000/svg"
   xmlns:svg="http://www.w3.org/2000/svg">
  <sodipodi:namedview
     id="namedview58064"
     pagecolor="#505050"
     bordercolor="#eeeeee"
     borderopacity="1"
     inkscape:showpageshadow="0"
     inkscape:pageopacity="0"
     inkscape:pagecheckerboard="0"
     inkscape:deskcolor="#505050"
     inkscape:document-units="mm"
     showgrid="false"
     inkscape:zoom="0.7046647"
     inkscape:cx="46.830783"
     inkscape:cy="189.45181"
     inkscape:window-width="1390"
     inkscape:window-height="941"
     inkscape:window-x="0"
     inkscape:window-y="25"
     inkscape:window-maximized="0"
     inkscape:current-layer="layer1" />
  <defs
     id="defs58059">
    <clipPath
       clipPathUnits="userSpaceOnUse"
       id="clipPath55463">
      <path
         d="m 65.076,321.68 h 24.699 v 24.699 H 65.076 Z"
         id="path55461" />
    </clipPath>
  </defs>
  <g
     inkscape:label="Layer 1"
     inkscape:groupmode="layer"
     id="layer1"
     transform="translate(-92.619857,-98.578483)">
    <g
       id="g55457"
       transform="matrix(0.29521662,0,0,-0.29521662,72.903886,200.31859)">
      <g
         id="g55459"
         clip-path="url(#clipPath55463)">
        <g
           id="g55465"
           transform="translate(76.2403,338.446)">
          <path
             d="M 0,0 C 0.017,-0.112 0.032,-0.225 0.048,-0.338 0.046,-0.302 0.044,-0.265 0.039,-0.228 0.028,-0.152 0.01,-0.076 0,0 m -0.15,-1.604 c -0.073,-0.072 -0.137,-0.209 -0.134,-0.318 0.003,-0.083 0.069,-0.181 0.1,-0.258 0.026,-0.064 0.07,-0.145 0.142,-0.178 0.097,-0.044 0.21,-0.09 0.267,-0.01 0.081,0.116 0.032,0.152 0.079,0.014 0.012,0.003 0.024,0.007 0.037,0.01 0.037,0.318 0.052,0.646 0.085,0.966 0.018,0.18 -0.041,0.333 -0.154,0.472 C 0.184,-0.797 0.111,-0.712 0.085,-0.575 0.07,-0.497 0.059,-0.418 0.048,-0.338 0.056,-0.561 0.004,-0.778 0.014,-1 0.019,-1.118 0.089,-1.29 0.046,-1.402 0.016,-1.481 -0.093,-1.548 -0.15,-1.604 M 4.431,-2.46 C 4.43,-2.434 4.43,-2.406 4.429,-2.379 4.424,-2.405 4.423,-2.431 4.431,-2.46 m 0.885,1.591 C 5.314,-0.933 5.313,-0.996 5.318,-1.06 5.317,-0.997 5.326,-0.931 5.316,-0.869 M 3.031,-0.37 c -0.04,-0.194 -0.072,-0.39 -0.085,-0.589 0.044,-0.05 0.127,-0.022 0.178,0.024 0.045,0.04 0.083,0.109 0.093,0.164 0.007,0.038 -0.011,0.08 -0.004,0.118 0.008,0.049 0.038,0.083 0.045,0.131 C 3.177,-0.473 3.104,-0.42 3.031,-0.37 M 7.74,-6.725 C 7.608,-6.76 7.496,-6.488 7.408,-6.408 7.36,-6.364 7.316,-6.322 7.276,-6.276 l 0.393,-0.939 c 0.023,0.009 0.046,0.017 0.069,0.027 0.005,0.003 0.011,0.005 0.017,0.008 0.008,0.154 0.018,0.309 -0.015,0.455 M 4.335,0.38 C 4.346,0.307 4.356,0.233 4.366,0.159 4.369,0.174 4.371,0.188 4.373,0.203 4.422,0.538 4.362,0.885 4.241,1.2 4.252,0.923 4.295,0.656 4.335,0.38 m 7.008,-5.393 c 10e-4,-0.185 0.094,-0.322 0.096,-0.499 0.006,-0.363 -0.083,-0.7 -0.093,-1.059 C 11.34,-6.79 11.297,-6.99 11.298,-7.219 11.3,-7.547 11.329,-7.83 11.189,-8.135 11.05,-8.439 10.786,-8.749 10.785,-9.092 c -0.002,-0.324 -0.069,-0.601 -0.264,-0.869 -0.099,-0.136 -0.228,-0.269 -0.299,-0.422 -0.104,-0.222 -0.15,-0.494 -0.183,-0.736 -0.026,-0.195 -0.074,-0.306 -0.212,-0.445 -0.054,-0.055 -0.092,-0.093 -0.164,-0.119 -0.056,-0.019 -0.064,0.002 -0.117,-0.041 -0.101,-0.081 -0.15,-0.271 -0.194,-0.429 -0.424,0.391 -0.968,0.64 -1.416,1.017 -0.325,0.273 -0.578,0.624 -0.977,0.802 -0.109,0.049 -0.222,0.084 -0.335,0.116 -0.218,0.385 -0.613,0.551 -0.998,0.734 0.028,0.088 0.088,0.162 0.162,0.241 0.056,0.06 0.11,0.121 0.162,0.184 0.075,0.021 0.15,0.045 0.222,0.075 0.235,0.098 0.447,0.243 0.598,0.451 0.178,0.246 0.242,0.567 0.271,0.863 0.037,0.373 0.004,0.752 0.055,1.124 0.01,0.073 -0.008,0.145 -0.057,0.194 0.051,0.077 0.109,0.156 0.14,0.24 -0.005,0.013 -0.012,0.024 -0.016,0.037 -0.018,0.059 -0.031,0.114 -0.041,0.168 l 0.071,-0.169 c 0,0.002 0.002,0.004 0.002,0.006 0.022,0.092 -0.014,0.161 -0.044,0.245 -0.088,0.245 -0.011,0.491 0.027,0.742 0.077,0.009 0.156,0.024 0.231,0.046 0.042,-0.123 0.087,-0.244 0.127,-0.37 0.066,-0.207 0.185,-0.401 0.341,-0.549 0.127,-0.122 0.201,-0.269 0.298,-0.413 0.057,-0.084 0.122,-0.163 0.172,-0.251 0.026,-0.048 0.047,-0.099 0.067,-0.15 0.051,0.042 0.102,0.085 0.153,0.127 0.045,0.127 0.045,0.255 0.002,0.384 -0.027,0.185 -0.054,0.371 -0.08,0.556 0.084,-0.005 0.17,0.039 0.196,0.139 0.183,0.703 0.677,1.475 0.407,2.216 -0.255,0.704 -0.744,1.291 -1.081,1.954 -0.01,0.02 -0.027,0.037 -0.046,0.052 -0.01,0.058 -0.02,0.116 -0.021,0.176 -0.006,0.252 -0.389,0.252 -0.392,0 0,-0.019 -0.002,-0.038 -0.003,-0.056 C 7.547,-1.229 7.545,-1.245 7.544,-1.251 7.536,-1.286 7.525,-1.319 7.512,-1.352 7.508,-1.362 7.496,-1.389 7.493,-1.393 7.486,-1.409 7.477,-1.423 7.469,-1.438 7.448,-1.473 7.426,-1.507 7.403,-1.54 7.392,-1.557 7.38,-1.573 7.367,-1.589 7.363,-1.595 7.352,-1.609 7.349,-1.613 7.323,-1.645 7.297,-1.677 7.271,-1.709 7.261,-1.72 7.252,-1.732 7.243,-1.743 7.231,-1.751 7.218,-1.76 7.206,-1.768 7.152,-1.803 7.149,-1.749 7.101,-1.825 7.098,-1.83 7.098,-1.838 7.096,-1.843 c -0.012,0.077 -0.025,0.154 -0.041,0.23 -0.002,0.271 -0.013,0.54 -0.046,0.809 0,0.003 10e-4,0.007 10e-4,0.011 -10e-4,0 -0.002,0 -0.002,0 C 7.006,-0.775 7.005,-0.758 7.003,-0.74 6.989,-0.642 6.912,-0.602 6.83,-0.603 6.842,-0.44 6.852,-0.278 6.856,-0.115 6.843,-0.107 6.83,-0.099 6.817,-0.093 6.724,-0.046 6.553,0.004 6.467,0.083 6.398,0.148 6.385,0.254 6.348,0.337 6.28,0.489 6.179,0.613 6.103,0.756 5.97,1.004 5.844,1.259 5.67,1.483 5.657,1.377 5.64,1.272 5.622,1.175 5.593,1.022 5.603,0.88 5.601,0.725 5.593,0.191 5.334,-0.336 5.316,-0.869 5.314,-0.86 5.313,-0.85 5.311,-0.841 5.288,-0.763 5.222,-0.652 5.179,-0.58 5.113,-0.472 5.092,-0.453 5.08,-0.314 5.059,-0.074 4.997,0.153 4.991,0.394 4.989,0.479 5.005,0.58 4.946,0.652 4.923,0.68 4.881,0.69 4.86,0.715 4.795,0.789 4.801,0.878 4.803,0.977 4.807,1.164 4.742,1.36 4.7,1.542 4.544,1.508 4.607,1.121 4.652,1.018 4.748,0.804 4.712,0.557 4.71,0.317 4.706,-0.167 4.792,-0.629 4.722,-1.109 4.69,-1.33 4.69,-1.555 4.661,-1.774 4.635,-1.964 4.519,-2.099 4.46,-2.268 c 0.022,-0.061 0.031,-0.119 0.008,-0.157 -0.016,0.003 -0.029,0.022 -0.039,0.047 0,0 0,-10e-4 0,-10e-4 v 0.002 C 4.412,-2.334 4.402,-2.273 4.394,-2.241 4.382,-2.195 4.379,-2.142 4.38,-2.089 4.394,-2.118 4.409,-2.15 4.424,-2.182 4.42,-2.07 4.419,-1.957 4.421,-1.844 4.41,-1.883 4.401,-1.922 4.393,-1.962 4.385,-2.001 4.381,-2.045 4.38,-2.089 4.366,-2.059 4.353,-2.03 4.347,-2.008 4.308,-1.863 4.324,-1.696 4.29,-1.545 4.26,-1.414 4.256,-1.254 4.212,-1.128 4.14,-0.923 3.937,-0.807 3.915,-0.578 3.873,-0.126 4.028,0.378 3.784,0.784 3.729,0.875 3.722,0.97 3.685,1.069 3.636,1.199 3.61,1.307 3.593,1.44 3.573,1.599 3.525,1.766 3.496,1.921 3.471,2.056 3.47,2.186 3.452,2.32 3.434,2.461 3.315,2.564 3.256,2.692 3.203,2.807 3.214,2.911 3.217,3.033 3.221,3.318 3.185,3.604 3.174,3.891 3.166,3.891 3.16,3.893 3.153,3.893 3.139,3.798 3.131,3.7 3.111,3.614 3.062,3.402 2.934,3.251 2.839,3.059 2.769,2.917 2.712,2.777 2.655,2.631 2.622,2.548 2.556,2.371 2.541,2.217 2.52,2.29 2.498,2.365 2.467,2.441 2.421,2.558 2.397,2.679 2.361,2.8 2.336,2.883 2.303,2.917 2.332,3.012 2.364,3.119 2.458,3.195 2.473,3.311 2.486,3.409 2.477,3.54 2.443,3.632 2.436,3.649 2.428,3.666 2.419,3.683 2.254,3.598 2.086,3.512 1.919,3.434 1.894,3.421 1.867,3.412 1.839,3.404 1.81,3.322 1.805,3.239 1.769,3.156 1.727,3.059 1.651,2.978 1.611,2.884 1.568,2.784 1.564,2.649 1.63,2.551 1.733,2.397 2.158,2.317 1.949,2.081 1.886,2.008 1.874,2.015 1.859,1.921 1.842,1.815 1.852,1.715 1.826,1.607 1.764,1.343 1.766,1.085 1.767,0.816 1.768,0.603 1.74,0.391 1.711,0.18 1.664,-0.157 1.504,-0.466 1.429,-0.795 1.273,-0.844 1.347,-0.276 1.347,-0.229 1.349,0.069 1.297,0.358 1.298,0.657 1.301,1.165 1.324,1.681 1.279,2.187 1.267,2.318 1.286,2.375 1.197,2.474 1.112,2.552 1.029,2.63 0.945,2.708 0.935,2.699 0.926,2.689 0.914,2.682 0.829,2.786 0.752,2.887 0.645,2.969 0.608,2.997 0.587,3.025 0.575,3.054 0.559,3.068 0.543,3.083 0.527,3.098 0.48,3.183 0.486,3.295 0.509,3.4 0.48,3.469 0.437,3.541 0.386,3.598 0.274,3.43 0.04,3.309 -0.059,3.139 -0.107,3.058 -0.11,2.963 -0.146,2.878 -0.221,2.702 -0.318,2.392 -0.193,2.216 -0.153,2.16 -0.073,2.087 -0.051,2.026 -0.039,1.995 -0.052,1.941 -0.052,1.907 -0.053,1.726 -0.095,1.558 -0.144,1.381 -0.184,1.235 -0.234,1.092 -0.289,0.95 -0.325,0.856 -0.389,0.775 -0.427,0.678 -0.485,0.529 -0.486,0.203 -0.661,0.119 -0.73,0.159 -0.698,0.216 -0.711,0.273 -0.73,0.359 -0.737,0.444 -0.752,0.529 -0.765,0.596 -0.804,0.617 -0.837,0.679 -0.854,0.71 -0.854,0.744 -0.87,0.775 -0.909,0.85 -0.993,0.929 -1.071,1.004 -1.074,0.992 -1.076,0.979 -1.079,0.967 -1.13,0.784 -1.212,0.612 -1.292,0.439 -1.348,0.317 -1.376,0.191 -1.421,0.072 -1.448,0.003 -1.506,-0.026 -1.531,-0.106 -1.567,-0.223 -1.557,-0.369 -1.575,-0.49 c -0.028,-0.183 -0.058,-0.378 -0.07,-0.566 -0.012,-0.208 -0.097,-0.329 -0.141,-0.525 -0.06,0.337 -0.097,0.681 -0.093,1.025 0.001,0.075 0.013,0.161 0.002,0.234 -0.006,0.041 -0.031,0.07 -0.038,0.097 -0.032,0.144 0.025,0.308 -0.019,0.447 -0.006,0.018 -0.012,0.035 -0.019,0.053 0,-0.001 0,-0.001 0,-0.001 0,0.001 0,0.001 0,0.001 C -1.99,0.378 -2.037,0.48 -2.065,0.584 -2.096,0.699 -2.121,0.804 -2.164,0.911 -2.197,0.991 -2.176,1.254 -2.271,1.238 -2.316,1.231 -2.345,0.858 -2.343,0.869 -2.378,0.67 -2.432,0.504 -2.499,0.315 -2.535,0.216 -2.58,0.144 -2.627,0.051 c -0.04,-0.079 -0.038,-0.26 -0.139,-0.283 -0.066,0.038 -0.076,0.098 -0.114,0.16 -0.115,0.187 -0.352,0.33 -0.439,0.533 -0.06,0.138 -0.132,0.273 -0.196,0.413 -0.03,0.067 -0.066,0.124 -0.104,0.18 C -3.714,0.867 -3.81,0.679 -3.838,0.473 -3.871,0.225 -3.783,0.007 -3.705,-0.218 -3.93,-0.563 -3.92,-1.07 -3.898,-1.455 c 0.002,-0.041 0.005,-0.082 0.008,-0.123 -0.066,-0.004 -0.124,-0.04 -0.159,-0.092 -0.007,0.033 -0.015,0.067 -0.025,0.1 -0.042,0.134 -0.092,0.236 -0.097,0.383 -0.013,0.348 0.07,0.76 -0.051,1.097 -0.054,0.151 -0.173,0.304 -0.29,0.413 C -4.591,0.397 -4.665,0.475 -4.74,0.553 -4.743,0.548 -4.747,0.544 -4.75,0.539 -4.802,0.45 -4.776,0.313 -4.775,0.21 -4.774,0.063 -4.797,-0.048 -4.913,-0.151 -4.997,-0.227 -5.068,-0.286 -5.13,-0.381 -5.185,-0.464 -5.225,-0.556 -5.311,-0.61 c -0.138,-0.087 -0.246,-0.062 -0.318,-0.219 -0.04,-0.087 -0.023,-0.163 -0.04,-0.265 -0.058,-0.351 -0.319,-0.735 -0.281,-1.101 0.011,-0.111 0.078,-0.195 0.157,-0.267 0.02,-0.18 0.077,-0.363 0.148,-0.526 -0.04,-0.135 -0.087,-0.268 -0.137,-0.4 -0.026,0.094 -0.055,0.187 -0.089,0.278 -0.074,0.2 -0.164,0.39 -0.272,0.574 -0.122,0.207 -0.275,0.418 -0.259,0.669 0.011,0.253 -0.375,0.25 -0.392,0 -0.019,-0.434 -0.037,-0.869 -0.047,-1.303 -0.092,-0.013 -0.181,-0.089 -0.187,-0.193 -0.006,-0.113 -0.016,-0.225 -0.025,-0.337 -0.021,-0.01 -0.04,-0.021 -0.057,-0.038 -0.126,-0.127 -0.247,-0.293 -0.245,-0.481 0.001,-0.026 0.004,-0.051 0.008,-0.075 -10e-4,-0.001 -0.003,-0.001 -0.004,-0.001 -0.059,-0.019 -0.103,-0.056 -0.127,-0.114 -0.022,-0.051 -0.027,-0.126 0.01,-0.174 0.055,-0.073 0.111,-0.131 0.188,-0.183 0.04,-0.027 0.086,-0.047 0.132,-0.065 -0.021,-0.367 -0.021,-0.735 0.034,-1.107 0.03,-0.201 0.329,-0.172 0.378,0 0.015,0.053 0.03,0.106 0.045,0.16 0.012,-0.053 0.023,-0.106 0.036,-0.159 0.001,-0.014 0.001,-0.028 0.001,-0.043 0.002,-0.046 0.02,-0.086 0.045,-0.117 0.009,-0.031 0.016,-0.061 0.026,-0.092 0.15,-0.452 0.344,-0.887 0.497,-1.338 0.077,-0.227 0.388,-0.151 0.379,0.067 0.042,0.021 0.078,0.058 0.093,0.12 0.058,0.234 0.155,0.449 0.273,0.654 0,-0.106 -0.019,-0.208 -0.031,-0.325 -0.019,-0.181 -0.009,-0.362 -0.01,-0.543 -0.001,-0.104 -0.037,-0.221 0.052,-0.293 0.023,-0.019 0.052,-0.032 0.082,-0.043 0.012,-0.159 0.051,-0.314 0.135,-0.456 0.154,-0.259 0.42,-0.424 0.684,-0.552 0.045,-0.023 0.091,-0.043 0.137,-0.064 0.048,-0.071 0.113,-0.121 0.187,-0.155 -0.058,-0.063 -0.117,-0.116 -0.198,-0.163 -0.095,-0.055 -0.155,-0.081 -0.198,-0.179 -0.018,-0.043 -0.02,-0.103 -0.04,-0.142 -0.044,-0.085 -0.17,-0.118 -0.253,-0.17 -0.269,-0.168 -0.552,-0.258 -0.821,-0.44 -0.055,-0.038 -0.111,-0.064 -0.153,-0.11 -0.042,-0.047 -0.077,-0.108 -0.119,-0.157 -0.047,-0.055 -0.054,-0.09 -0.128,-0.127 -0.129,-0.064 -0.271,-0.101 -0.404,-0.155 -0.229,-0.091 -0.455,-0.219 -0.66,-0.357 -0.113,-0.076 -0.228,-0.309 -0.36,-0.33 0.046,0.186 0.061,0.209 -0.007,0.28 -0.046,0.049 -0.127,0.092 -0.183,0.131 -0.066,0.046 -0.133,0.066 -0.184,0.131 -0.096,0.124 -0.127,0.271 -0.188,0.416 -0.08,0.191 -0.094,0.415 -0.093,0.618 0.002,0.171 0.032,0.38 -0.001,0.549 -0.025,0.127 -0.153,0.243 -0.227,0.345 -0.145,0.2 -0.281,0.406 -0.432,0.601 -0.083,0.107 -0.226,0.241 -0.265,0.385 -0.032,0.116 -0.013,0.259 -0.005,0.375 0.029,0.394 0.081,0.793 0.032,1.189 -0.024,0.192 -0.065,0.282 -0.202,0.428 -0.077,0.082 -0.1,0.115 -0.125,0.215 -0.025,0.1 -0.069,0.186 -0.102,0.281 -0.043,0.122 -0.028,0.249 -0.027,0.376 0.001,0.343 -0.049,0.709 0.096,1.026 0.057,0.125 0.051,0.258 0.09,0.392 0.046,0.157 0.096,0.295 0.094,0.458 -0.003,0.269 0,0.539 0,0.807 0,0.416 -0.074,0.864 0.195,1.203 0.015,0.019 0.033,0.037 0.049,0.056 0.113,0.349 0.253,0.698 0.439,1.004 0.078,0.126 0.126,0.268 0.209,0.397 0.167,0.259 0.35,0.531 0.545,0.769 0.267,0.327 0.583,0.597 0.849,0.924 0.13,0.16 0.221,0.347 0.349,0.51 0.067,0.085 0.121,0.165 0.173,0.261 0.064,0.119 0.103,0.241 0.211,0.328 0.103,0.083 0.229,0.159 0.34,0.227 0.127,0.079 0.226,0.158 0.306,0.285 0.058,0.093 0.094,0.196 0.148,0.291 0.084,0.148 0.2,0.282 0.316,0.407 0.114,0.123 0.266,0.216 0.4,0.315 0.129,0.096 0.283,0.227 0.429,0.284 0.045,0.018 0.098,0.04 0.146,0.04 0.097,-0.037 0.197,-0.059 0.3,-0.065 0.099,-0.017 0.199,-0.028 0.299,-0.038 0.019,0.01 0.038,0.02 0.057,0.029 0.138,0.063 0.292,0.09 0.427,0.166 0.097,0.054 0.229,0.119 0.314,0.192 0.089,0.076 0.083,0.167 0.115,0.275 0.025,0.083 0.07,0.238 0.16,0.282 0.046,0.022 0.116,0.003 0.167,0.002 0.35,-0.009 0.712,0.067 1.041,0.187 0.133,0.049 0.273,0.081 0.402,0.141 0.091,0.043 0.168,0.088 0.267,0.109 0.128,0.028 0.25,0.035 0.38,0.033 C 0.058,6.169 0.268,6.196 0.459,6.174 0.618,6.155 0.685,6.032 0.799,5.919 0.964,5.755 1.124,5.784 1.34,5.795 1.723,5.813 2.105,5.854 2.482,5.916 2.731,5.957 2.949,6.063 3.186,6.141 3.248,6.161 3.305,6.178 3.37,6.175 3.562,6.166 3.757,6.032 3.931,5.957 4.182,5.849 4.436,5.771 4.677,5.634 4.868,5.525 5.052,5.405 5.239,5.29 5.302,5.251 5.41,5.196 5.464,5.135 5.484,5.112 5.494,5.083 5.509,5.053 5.516,5.052 5.524,5.051 5.529,5.05 5.651,5.03 5.725,4.917 5.847,4.879 5.991,4.833 6.104,4.875 6.252,4.805 6.323,4.772 6.388,4.732 6.463,4.707 6.542,4.68 6.665,4.676 6.739,4.63 6.87,4.55 6.805,4.347 6.894,4.236 6.961,4.152 7.08,4.121 7.178,4.115 7.359,4.103 7.337,3.983 7.365,3.826 7.51,3.865 7.875,4.136 8.001,4.045 7.966,3.924 7.99,3.796 7.971,3.673 7.951,3.539 7.898,3.386 8.036,3.291 8.089,3.255 8.156,3.279 8.213,3.256 L 8.27,3.193 C 8.323,3.15 8.382,3.113 8.444,3.083 8.521,3.024 8.587,2.95 8.646,2.869 8.777,2.827 8.832,2.786 8.926,2.674 8.976,2.615 9.02,2.553 9.061,2.49 9.131,2.528 9.201,2.565 9.278,2.589 9.396,2.651 9.485,2.614 9.546,2.481 9.612,2.384 9.677,2.287 9.743,2.19 9.88,1.967 9.882,1.847 9.941,1.618 9.998,1.397 10.102,1.195 10.15,0.97 c 0.027,-0.122 0.015,-0.205 0.036,-0.312 0.017,-0.087 0.082,-0.179 0.111,-0.261 0.074,-0.208 0.048,-0.447 0.121,-0.654 0.036,-0.103 0.115,-0.209 0.173,-0.299 0.034,-0.054 0.057,-0.052 0.106,-0.113 0.105,-0.131 0.216,-0.357 0.238,-0.518 0.011,-0.084 -0.009,-0.184 -0.01,-0.269 -0.001,-0.092 -0.014,-0.209 -0.018,-0.324 0.023,-0.036 0.045,-0.072 0.063,-0.109 0.062,-0.124 0.062,-0.27 0.144,-0.384 0.066,-0.092 0.147,-0.176 0.213,-0.27 0.105,-0.151 0.213,-0.272 0.298,-0.432 0.096,-0.181 0.099,-0.297 0.097,-0.504 -0.005,-0.541 -0.382,-0.993 -0.379,-1.534 m -9.907,0.99 C 1.424,-4.454 1.341,-4.898 1.059,-5.226 c -0.005,-0.212 0.023,-0.417 0.162,-0.59 0.041,-0.052 0.086,-0.059 0.124,-0.108 0.031,-0.039 0.034,-0.096 0.05,-0.142 0.016,-0.043 0.024,-0.085 0.03,-0.126 0.021,0.082 0.046,0.164 0.058,0.223 0.026,0.129 0.1,0.224 0.115,0.355 0.015,0.128 -0.023,0.234 -0.05,0.357 -0.03,0.136 -0.013,0.277 -0.037,0.414 -0.024,0.14 -0.048,0.266 -0.053,0.408 -0.004,0.126 0.017,0.293 -0.022,0.412 m 6.042,-8.319 c -0.337,0.343 -0.747,0.63 -1.021,1.03 -0.012,0.017 -0.019,0.035 -0.025,0.051 -0.181,0.115 -0.359,0.234 -0.552,0.332 -0.184,0.094 -0.28,0.147 -0.466,0.137 -0.062,-0.003 -0.14,-0.011 -0.193,0.033 -0.062,0.051 -0.08,0.168 -0.124,0.243 -0.13,0.227 -0.282,0.445 -0.433,0.659 C 4.656,-9.864 4.649,-9.87 4.641,-9.877 4.626,-9.89 4.612,-9.904 4.598,-9.918 4.539,-9.974 4.485,-10.034 4.427,-10.091 4.288,-10.229 4.12,-10.347 3.922,-10.374 c -0.111,-0.016 -0.204,0.026 -0.242,0.137 -0.003,0.01 -0.007,0.021 -0.011,0.031 -0.002,0.006 -0.004,0.011 -0.007,0.017 -0.005,0.013 -0.003,0.007 0.008,-0.018 0.002,0.015 -0.021,0.048 -0.027,0.062 -0.021,0.046 -0.043,0.091 -0.063,0.138 -0.022,0.053 -0.044,0.106 -0.062,0.16 C 3.456,-9.885 3.354,-9.859 3.322,-9.792 3.293,-9.733 3.273,-9.67 3.255,-9.607 3.195,-9.562 3.141,-9.504 3.093,-9.439 3.075,-9.441 3.057,-9.446 3.039,-9.448 3.038,-9.418 3.038,-9.388 3.038,-9.358 2.939,-9.2 2.869,-9.015 2.817,-8.868 2.785,-8.777 2.756,-8.685 2.729,-8.593 2.69,-8.833 2.64,-9.07 2.563,-9.303 2.532,-9.398 2.447,-9.455 2.348,-9.443 c -0.08,0.009 -0.131,0.062 -0.155,0.13 -0.085,-0.375 -0.192,-0.745 -0.284,-1.111 -0.017,-0.067 -0.058,-0.107 -0.106,-0.126 -0.016,-0.034 -0.04,-0.064 -0.078,-0.085 -0.224,-0.127 -0.466,-0.206 -0.719,-0.234 -0.061,-0.007 -0.121,-0.014 -0.184,-0.014 -0.313,-0.004 -0.625,0.065 -0.93,0.135 -0.025,0.006 -0.045,0.017 -0.063,0.031 -0.003,0.002 -0.008,0.004 -0.011,0.007 -0.013,0.012 -0.023,0.027 -0.033,0.042 -0.005,0.008 -0.01,0.016 -0.013,0.025 -0.018,0.042 -0.025,0.09 -0.017,0.136 0.063,0.359 -0.32,0.578 -0.564,0.76 -0.036,0.027 -0.063,0.063 -0.079,0.101 -0.117,-0.035 -0.23,-0.064 -0.353,-0.068 0.003,0.099 0.007,0.18 0.007,0.191 -0.011,0.22 -0.038,0.44 -0.038,0.661 0,0.036 0.013,0.095 0.004,0.128 -0.022,0.079 -0.106,0.188 -0.143,0.266 -0.045,0.094 -0.091,0.187 -0.137,0.28 0.003,-0.128 0.001,-0.255 -0.004,-0.381 -0.013,-0.303 -0.045,-0.61 -0.117,-0.904 -0.057,-0.231 -0.144,-0.485 -0.332,-0.642 -0.242,-0.202 -0.593,-0.19 -0.887,-0.148 -0.24,0.034 -0.486,0.107 -0.694,0.236 -0.148,-0.108 -0.305,-0.208 -0.463,-0.3 -0.379,-0.456 -0.773,-0.891 -1.217,-1.295 -0.369,-0.336 -0.701,-0.757 -1.125,-1.03 0.346,-0.187 0.68,-0.395 0.996,-0.628 0.002,-0.001 0.005,-0.002 0.008,-0.002 0.262,-0.071 0.529,-0.006 0.794,-0.081 0.06,-0.017 0.204,-0.035 0.253,-0.069 0.072,-0.05 0.09,-0.211 0.162,-0.275 0.061,-0.055 0.147,-0.091 0.216,-0.144 0.205,-0.16 0.485,-0.211 0.728,-0.284 0.349,-0.106 0.678,-0.227 1.014,-0.371 0.144,-0.061 0.301,-0.141 0.456,-0.169 0.11,-0.02 0.238,-0.01 0.351,-0.019 0.204,-0.016 0.433,0.021 0.6,-0.115 0.143,-0.116 0.26,-0.199 0.425,-0.291 0.4,-0.225 0.77,-0.231 1.212,-0.226 0.372,0.005 0.698,0.093 1.056,0.19 0.067,0.018 0.133,0.038 0.2,0.055 0.019,0.005 0.008,0.04 0.041,0.046 0.04,0.006 0.177,-0.068 0.205,-0.08 0.16,-0.067 0.312,-0.095 0.485,-0.066 0.208,0.035 0.408,0.028 0.62,0.038 0.251,0.012 0.492,0.172 0.727,0.259 0.223,0.082 0.442,0.123 0.673,0.171 0.183,0.038 0.34,0.147 0.515,0.212 0.37,0.137 0.803,0.05 1.192,0.061 0.175,0.004 0.271,0.138 0.411,0.238 0.12,0.085 0.248,0.153 0.353,0.256 0.139,0.135 0.286,0.234 0.446,0.339 0.092,0.061 0.177,0.106 0.288,0.149 0.097,0.037 0.227,0.064 0.347,0.103 -0.348,0.293 -0.591,0.689 -0.909,1.013 m -8.911,9.773 c -0.024,-0.215 -0.066,-0.518 0.051,-0.693 0.082,-0.123 0.092,-0.145 0.007,-0.291 -0.063,-0.108 -0.153,-0.229 -0.142,-0.361 l -0.049,-0.092 c 0.001,0.053 0.022,0.139 0.008,0.189 -0.014,0.048 -0.054,0.052 -0.072,0.092 -0.04,0.088 -0.015,0.209 -0.013,0.308 0.002,0.088 0.025,0.146 0.043,0.221 0.014,0.054 0.009,0.107 0.024,0.161 0.033,0.124 0.059,0.264 0.097,0.384 0.01,0.032 0.035,0.053 0.046,0.082"
             style="fill:#100f0d;fill-opacity:1;fill-rule:nonzero;stroke:none"
             id="path55467" />
        </g>
      </g>
    </g>
  </g>
</svg>
