<?xml version="1.0" encoding="UTF-8" standalone="no"?>
<!-- Created with Inkscape (http://www.inkscape.org/) -->

<svg
   width="25.418835"
   height="24"
   viewBox="0 0 6.7254 6.35"
   version="1.1"
   id="svg59684"
   inkscape:version="1.2.1 (9c6d41e4, 2022-07-14)"
   sodipodi:docname="the-great-seal.svg"
   xmlns:inkscape="http://www.inkscape.org/namespaces/inkscape"
   xmlns:sodipodi="http://sodipodi.sourceforge.net/DTD/sodipodi-0.dtd"
   xmlns="http://www.w3.org/2000/svg"
   xmlns:svg="http://www.w3.org/2000/svg">
  <sodipodi:namedview
     id="namedview59686"
     pagecolor="#505050"
     bordercolor="#eeeeee"
     borderopacity="1"
     inkscape:showpageshadow="0"
     inkscape:pageopacity="0"
     inkscape:pagecheckerboard="0"
     inkscape:deskcolor="#505050"
     inkscape:document-units="mm"
     showgrid="false"
     inkscape:zoom="0.7046647"
     inkscape:cx="-18.44849"
     inkscape:cy="131.2681"
     inkscape:window-width="1390"
     inkscape:window-height="941"
     inkscape:window-x="0"
     inkscape:window-y="25"
     inkscape:window-maximized="0"
     inkscape:current-layer="layer1" />
  <defs
     id="defs59681">
    <clipPath
       clipPathUnits="userSpaceOnUse"
       id="clipPath55427">
      <path
         d="m 188.526,355.36 h 24.699 v 24.7 h -24.699 z"
         id="path55425" />
    </clipPath>
  </defs>
  <g
     inkscape:label="Layer 1"
     inkscape:groupmode="layer"
     id="layer1"
     transform="translate(-110.03047,-113.97291)">
    <g
       id="g55421"
       transform="matrix(0.32351743,0,0,-0.32351743,48.129376,235.70831)">
      <g
         id="g55423"
         clip-path="url(#clipPath55427)">
        <g
           id="g55429"
           transform="translate(204.695,376.203)">
          <path
             d="M 0,0 -0.014,0.084 C -0.023,0.05 -0.013,0.025 0,0"
             style="fill:#100f0d;fill-opacity:1;fill-rule:nonzero;stroke:none"
             id="path55431" />
        </g>
        <g
           id="g55433"
           transform="translate(204.695,376.203)">
          <path
             d="M 0,0 0.01,-0.064 C 0.016,-0.062 0.022,-0.06 0.028,-0.059 0.021,-0.038 0.01,-0.019 0,0"
             style="fill:#100f0d;fill-opacity:1;fill-rule:nonzero;stroke:none"
             id="path55435" />
        </g>
        <g
           id="g55437"
           transform="translate(204.209,356.659)">
          <path
             d="M 0,0 C 0.054,0.192 0.085,0.361 0.094,0.546 0.079,0.518 0.065,0.491 0.051,0.465 -0.025,0.32 0.017,0.167 0,0"
             style="fill:#100f0d;fill-opacity:1;fill-rule:nonzero;stroke:none"
             id="path55439" />
        </g>
        <g
           id="g55441"
           transform="translate(204.747,375.973)">
          <path
             d="M 0,0 C 0.014,0.052 0.033,0.102 0.067,0.152 0.043,0.177 0.011,0.179 -0.024,0.171 -0.022,0.164 -0.018,0.159 -0.017,0.152 -0.007,0.093 -0.017,0.053 0,0"
             style="fill:#100f0d;fill-opacity:1;fill-rule:nonzero;stroke:none"
             id="path55443" />
        </g>
        <g
           id="g55445"
           transform="translate(204.261,357.875)">
          <path
             d="m 0,0 c -0.047,0.128 -0.129,0.228 -0.187,0.351 -0.03,0.064 -0.028,0.122 -0.051,0.183 -0.015,0.04 -0.057,0.076 -0.078,0.117 -0.126,0.253 -0.116,0.536 -0.199,0.802 -0.106,0.336 -0.191,0.666 -0.377,0.974 -0.117,0.194 -0.268,0.367 -0.362,0.58 -0.092,0.212 -0.216,0.407 -0.296,0.627 -0.063,0.175 -0.157,0.368 -0.263,0.523 -0.074,0.108 -0.149,0.174 -0.192,0.296 -0.082,0.236 -0.25,0.456 -0.371,0.681 -0.135,0.253 -0.31,0.486 -0.468,0.724 -0.118,0.176 -0.237,0.353 -0.351,0.533 0.053,0.041 0.106,0.081 0.161,0.117 0.079,0.046 0.155,0.095 0.231,0.146 0.007,0.024 0.02,0.045 0.039,0.061 0.118,0.09 0.321,0.247 0.461,0.283 0.077,0.019 0.132,0 0.211,0.012 0.192,0.103 0.37,0.225 0.536,0.366 0.119,0.099 0.239,0.197 0.36,0.294 0.056,0.033 0.114,0.043 0.168,0.086 0.042,0.033 0.078,0.105 0.143,0.101 0.056,-0.004 0.061,-0.064 0.129,-0.061 0.103,0.005 0.189,0.107 0.282,0.162 0.023,-0.07 0.043,-0.14 0.058,-0.212 C -0.393,7.524 -0.422,7.283 -0.421,7.06 -0.419,6.591 -0.556,6.145 -0.563,5.676 -0.568,5.343 -0.61,4.959 -0.543,4.632 -0.479,4.32 -0.363,3.998 -0.254,3.7 -0.221,3.608 -0.185,3.517 -0.147,3.426 -0.144,3.308 -0.134,3.191 -0.12,3.074 -0.073,2.777 0.014,2.495 0.049,2.197 0.081,1.924 0.047,1.624 0.047,1.349 V -0.049 -0.194 C 0.034,-0.127 0.022,-0.06 0,0 M -4.613,9.031 C -4.648,9.127 -4.76,9.18 -4.842,9.227 -5.051,9.345 -5.286,9.455 -5.51,9.544 c -0.103,0.041 -0.209,0.058 -0.312,0.109 -0.016,0.008 -0.03,0.016 -0.045,0.024 0.039,0.053 0.078,0.107 0.116,0.166 0.146,0.224 0.294,0.451 0.435,0.678 0.095,0.155 0.208,0.316 0.266,0.488 0.028,0.081 0.062,0.151 0.093,0.231 0.033,0.085 0.028,0.175 0.049,0.258 0.049,0.195 0.108,0.373 0.224,0.544 0.227,0.334 0.455,0.674 0.699,0.996 0.058,0.078 0.122,0.15 0.186,0.223 0.042,-0.072 0.081,-0.146 0.129,-0.193 0.091,-0.087 0.212,-0.161 0.324,-0.219 0.405,-0.214 0.939,-0.322 1.376,-0.157 0.226,0.085 0.43,0.215 0.653,0.304 0.156,0.064 0.326,0.043 0.491,0.041 0.212,-0.002 0.413,0.007 0.622,0.037 0.072,0.01 0.137,0.027 0.208,-0.003 C 0.045,13.054 0.086,13.028 0.126,12.999 0.109,12.697 0.072,12.4 -0.01,12.098 -0.137,11.625 -0.234,11.15 -0.344,10.672 -0.428,10.312 -0.499,9.95 -0.515,9.582 -0.519,9.488 -0.521,9.394 -0.522,9.299 -0.645,9.266 -0.758,9.229 -0.871,9.123 -0.996,9.006 -1.093,8.859 -1.214,8.736 -1.332,8.616 -1.459,8.505 -1.581,8.39 -1.809,8.177 -2.042,7.96 -2.234,7.713 -2.359,7.552 -2.465,7.423 -2.645,7.324 -2.776,7.252 -2.907,7.212 -3.048,7.171 -3.24,7.116 -3.434,7.077 -3.621,7.021 -3.675,7.087 -3.727,7.154 -3.769,7.229 -3.812,7.307 -3.811,7.307 -3.888,7.348 -4.024,7.421 -4.092,7.499 -4.185,7.62 -4.374,7.867 -4.448,8.136 -4.439,8.438 -4.438,8.476 -4.421,8.56 -4.432,8.595 -4.463,8.69 -4.568,8.742 -4.598,8.844 -4.615,8.901 -4.593,8.978 -4.613,9.031 M 7.816,11.588 C 7.755,11.507 7.706,11.486 7.615,11.449 7.485,11.397 7.382,11.305 7.259,11.236 7.107,11.151 6.929,11.138 6.781,11.075 6.575,10.987 6.302,10.975 6.083,10.944 5.91,10.919 5.747,10.895 5.572,10.886 5.199,10.867 4.849,10.732 4.506,10.596 4.218,10.481 3.938,10.352 3.655,10.226 3.388,10.107 3.081,10.079 2.831,9.917 2.872,10.077 2.902,10.222 3.003,10.364 2.916,10.268 2.788,10.206 2.684,10.129 2.583,10.053 2.485,9.971 2.384,9.895 2.006,9.61 1.541,9.58 1.08,9.581 0.834,9.582 0.605,9.54 0.373,9.497 c 0,0.2 0.001,0.399 0.003,0.598 0.003,0.232 -0.047,0.419 -0.088,0.642 -0.013,0.075 -0.01,0.142 -0.004,0.218 0.031,0.386 0.043,0.75 0.041,1.142 0,0.143 0.04,0.26 0.051,0.399 0.008,0.094 0.004,0.188 -0.001,0.282 0.048,-0.044 0.095,-0.087 0.142,-0.12 0.148,-0.104 0.306,-0.17 0.428,-0.303 0.09,-0.098 0.181,-0.146 0.296,-0.206 0.113,-0.06 0.21,-0.17 0.327,-0.215 0.095,-0.037 0.161,-0.022 0.255,-0.074 0.175,-0.096 0.395,-0.117 0.586,-0.173 0.363,-0.108 0.756,-0.022 1.127,-0.061 0.224,-0.025 0.485,-0.076 0.71,-0.045 0.179,0.025 0.294,0.223 0.451,0.288 0.137,0.058 0.356,0.091 0.502,0.097 0.117,0.005 0.22,-0.029 0.33,-0.067 C 5.659,11.855 5.766,11.781 5.89,11.726 5.997,11.679 6.077,11.681 6.191,11.683 6.48,11.685 6.846,11.469 7.133,11.636 7.106,11.671 7.084,11.671 7.043,11.69 6.907,11.751 6.783,11.795 6.66,11.886 6.592,11.937 6.531,11.993 6.448,12.02 6.297,12.07 6.145,12.071 5.996,12.139 5.932,12.167 5.868,12.201 5.805,12.232 5.559,12.351 5.31,12.495 5.048,12.576 4.924,12.614 4.822,12.611 4.695,12.612 4.4,12.613 4.165,12.853 3.871,12.893 3.561,12.934 3.219,12.897 2.905,12.897 2.594,12.898 2.31,12.974 2.023,13.091 1.849,13.163 1.71,13.307 1.531,13.379 1.373,13.442 1.21,13.492 1.052,13.553 c -0.177,0.068 -0.377,0.096 -0.578,0.096 0.002,0.013 0.006,0.026 0.009,0.04 0.04,0.231 0.031,0.469 0.053,0.702 0.021,0.237 0.062,0.458 0.11,0.689 0.022,0.105 0.001,0.209 0.019,0.314 0.023,0.138 0.05,0.275 0.072,0.414 0.04,0.248 0.009,0.516 0.013,0.767 0.002,0.114 0.002,0.222 -0.009,0.337 -0.016,0.174 -0.088,0.319 -0.126,0.489 -0.026,0.121 -0.05,0.26 -0.056,0.384 -0.003,0.059 0.013,0.122 -0.002,0.179 -0.01,0.037 -0.052,0.082 -0.067,0.12 C 0.488,18.089 0.488,18.093 0.486,18.098 0.471,18.044 0.461,17.988 0.444,17.929 0.405,17.794 0.372,17.696 0.374,17.551 0.382,17.04 0.245,16.536 0.231,16.026 0.22,15.599 0.257,15.171 0.224,14.744 0.196,14.369 0.152,13.999 0.143,13.623 0.076,13.613 0.01,13.601 -0.054,13.586 -0.181,13.555 -0.26,13.562 -0.39,13.554 c -0.291,-0.018 -0.575,-0.049 -0.868,-0.049 -0.141,0 -0.305,-0.021 -0.445,-0.002 -0.065,0.008 -0.102,0.043 -0.162,0.051 -0.12,0.017 -0.256,-0.002 -0.377,-0.002 -0.137,0 -0.29,-0.018 -0.426,-10e-4 -0.153,0.018 -0.197,0.13 -0.325,0.182 -0.093,0.038 -0.215,-0.015 -0.311,10e-4 -0.044,0.008 -0.061,0.015 -0.089,0.032 0.192,0.258 0.388,0.515 0.566,0.781 0.11,0.164 0.21,0.32 0.334,0.473 0.215,0.265 0.47,0.489 0.705,0.736 0.159,0.166 0.325,0.324 0.497,0.477 0.201,0.179 0.264,0.208 0.375,0.387 0.039,0.063 0.079,0.103 0.139,0.151 0.186,0.151 0.366,0.302 0.528,0.481 0.049,0.054 0.103,0.106 0.151,0.16 0.022,0.026 0.037,0.063 0.056,0.083 0.17,0.185 0.368,0.397 0.511,0.618 L 0.445,18.264 C 0.361,18.236 0.266,18.154 0.207,18.136 0.085,18.098 -0.299,18.042 -0.361,17.899 -0.35,17.883 -0.335,17.87 0.006,18.02 -0.027,17.998 -0.055,17.963 -0.083,17.938 -0.245,17.8 -0.451,17.691 -0.649,17.613 -0.732,17.581 -0.833,17.557 -0.912,17.519 -1.047,17.456 -1.155,17.308 -1.259,17.201 -1.43,17.024 -1.582,16.863 -1.77,16.707 -1.849,16.642 -1.931,16.581 -2.009,16.515 -2.187,16.365 -2.217,16.255 -2.289,16.05 -2.341,15.9 -2.42,15.796 -2.574,15.73 -2.793,15.636 -2.97,15.573 -3.146,15.402 c -0.068,-0.066 -0.119,-0.148 -0.168,-0.23 -0.052,-0.086 -0.05,-0.14 -0.083,-0.244 -0.039,-0.119 -0.123,-0.243 -0.183,-0.35 -0.113,-0.198 -0.225,-0.402 -0.352,-0.592 -0.09,0.07 -0.092,0.123 -0.21,0.172 -0.148,0.061 -0.278,0.076 -0.422,0.126 -0.124,0.043 -0.207,0.102 -0.34,0.108 -0.254,0.013 -0.462,-0.043 -0.708,-0.094 -0.388,-0.079 -0.932,-0.69 -1.291,-0.281 -0.109,0.123 -0.193,0.223 -0.346,0.292 -0.268,0.12 -0.509,0.292 -0.751,0.452 -0.054,0.037 -0.092,0.094 -0.14,0.136 -0.052,0.044 -0.11,0.077 -0.175,0.099 -0.083,0.044 -0.154,0.102 -0.215,0.174 -0.088,0.068 -0.055,0.052 -0.149,0.069 -0.24,0.046 -0.509,-0.034 -0.755,0.003 -0.466,0.072 -0.924,0.231 -1.38,0.33 -0.138,0.029 -0.256,0.078 -0.397,0.082 -0.219,0.008 -0.439,10e-4 -0.378,-0.046 0.012,-0.003 0.024,-0.005 0.036,-0.007 0.043,-0.261 0.452,-0.227 0.642,-0.227 0.171,10e-4 0.343,0.003 0.514,10e-4 0.196,-0.003 0.311,-0.176 0.42,-0.325 0.117,-0.16 0.211,-0.329 0.32,-0.492 0.048,-0.072 0.104,-0.182 0.172,-0.235 0.048,-0.036 0.126,-0.047 0.186,-0.07 0.073,-0.028 0.139,-0.031 0.21,-0.051 0.08,-0.023 0.138,-0.077 0.221,-0.091 0.111,-0.018 0.132,0.018 0.177,-0.091 0.025,-0.06 0.032,-0.127 0.064,-0.184 0.055,-0.103 0.183,-0.179 0.242,-0.286 0.047,-0.083 0.058,-0.189 0.126,-0.267 0.142,0.069 0.188,0.13 0.349,0.128 0.31,-0.003 0.572,-0.014 0.875,-0.115 0.137,-0.046 0.186,-0.11 0.271,-0.213 0.088,-0.104 0.18,-0.126 0.32,-0.166 0.113,-0.032 0.225,-0.019 0.343,-0.02 0.112,0 0.24,-0.017 0.35,-0.002 0.105,0.014 0.201,0.04 0.307,0.048 0.097,0.008 0.249,0.023 0.342,0.046 0.094,0.022 0.177,0.103 0.263,0.153 0.122,0.069 0.232,0.15 0.356,0.213 0.022,0.011 0.046,0.023 0.07,0.034 -0.043,-0.053 -0.085,-0.107 -0.124,-0.162 -0.202,-0.288 -0.33,-0.605 -0.509,-0.907 -0.186,-0.314 -0.397,-0.613 -0.583,-0.927 -0.159,-0.267 -0.32,-0.542 -0.52,-0.78 -0.081,-0.096 -0.171,-0.18 -0.227,-0.294 -0.025,-0.051 -0.034,-0.116 -0.071,-0.16 -0.233,0.284 -0.42,0.613 -0.568,0.941 -0.048,0.106 -0.126,0.21 -0.073,0.333 -0.405,0.115 -0.791,0.29 -1.17,0.472 -0.228,0.109 -0.474,0.211 -0.673,0.366 -0.096,0.075 -0.239,0.194 -0.307,0.297 -0.037,0.056 -0.055,0.134 -0.085,0.187 -0.029,0.006 -0.052,0.023 -0.069,0.052 -0.099,0.135 -0.193,0.272 -0.285,0.411 -0.103,0.152 -0.199,0.301 -0.285,0.463 -0.155,0.295 -0.424,0.68 -0.359,1.035 -0.072,0.038 -0.15,0.057 -0.235,0.057 -0.241,0.046 -0.482,0.094 -0.723,0.146 -0.344,0.088 -0.642,0.172 -0.895,0.435 -0.022,0.022 -0.043,0.047 -0.064,0.072 -0.073,0.089 -0.144,0.188 -0.238,0.248 -0.119,0.076 -0.32,0.029 -0.415,-0.075 -0.098,-0.107 0.056,-0.257 0.084,-0.377 0.032,-0.141 0.063,-0.292 0.086,-0.436 0.032,-0.2 0.144,-0.307 0.341,-0.389 0.212,-0.088 0.464,-0.039 0.668,-0.15 0.187,-0.101 0.292,-0.363 0.367,-0.554 0.048,-0.126 0.118,-0.248 0.156,-0.377 0.05,-0.164 -0.021,-0.161 0.167,-0.278 0.208,-0.129 0.424,-0.247 0.632,-0.377 0.333,-0.207 0.647,-0.522 0.888,-0.83 0.129,-0.165 0.225,-0.358 0.348,-0.528 0.112,-0.156 0.272,-0.261 0.398,-0.405 0.212,-0.243 0.426,-0.475 0.648,-0.709 C -7.877,9.945 -7.714,9.678 -7.441,9.472 -7.434,9.466 -7.426,9.46 -7.418,9.454 -7.436,9.44 -7.453,9.427 -7.47,9.413 -7.634,9.278 -7.796,9.124 -7.937,8.969 -8.04,8.856 -8.08,8.748 -8.139,8.604 -8.246,8.342 -8.377,8.135 -8.576,7.941 -8.742,7.779 -8.924,7.659 -9.109,7.523 -9.38,7.324 -9.582,7.049 -9.801,6.799 c -0.237,-0.272 -0.546,-0.508 -0.752,-0.806 -0.1,-0.144 -0.196,-0.288 -0.3,-0.429 -0.134,-0.183 -0.236,-0.35 -0.406,-0.502 -0.227,-0.202 -0.392,-0.481 -0.554,-0.735 -0.052,-0.082 -0.126,-0.15 -0.184,-0.227 -0.046,-0.061 -0.058,-0.091 -0.088,-0.167 0.108,-0.056 0.379,0.162 0.465,0.228 0.154,0.118 0.256,0.288 0.348,0.456 0.074,0.137 0.155,0.326 0.268,0.434 0.124,0.117 0.322,0.186 0.469,0.27 0.069,0.038 0.145,0.075 0.216,0.112 0.13,0.066 0.282,0.083 0.408,0.152 0.153,0.085 0.29,0.199 0.451,0.282 0.193,0.099 0.35,0.237 0.545,0.339 0.176,0.091 0.369,0.182 0.53,0.298 0.189,0.135 0.336,0.368 0.48,0.55 0.199,0.25 0.358,0.52 0.516,0.796 0.17,0.296 0.423,0.535 0.651,0.785 0.085,0.092 0.163,0.19 0.241,0.288 C -6.494,8.922 -6.491,8.92 -6.488,8.919 -6.154,8.794 -5.813,8.43 -5.595,8.147 -5.402,7.895 -5.23,7.612 -5.103,7.323 -5.052,7.207 -5.01,7.069 -4.936,6.973 -4.832,6.836 -4.705,6.704 -4.585,6.572 -4.798,6.485 -5.02,6.419 -5.248,6.387 -5.397,6.367 -5.675,6.41 -5.791,6.288 -5.886,6.189 -5.92,6.053 -6.026,5.954 -6.196,5.796 -6.422,5.648 -6.635,5.552 -6.714,5.517 -6.756,5.518 -6.844,5.516 -6.94,5.514 -7.01,5.477 -7.099,5.445 -7.264,5.386 -7.436,5.37 -7.608,5.349 -7.693,5.339 -7.792,5.306 -7.856,5.292 -7.977,5.266 -8.088,5.272 -8.201,5.213 -8.265,5.178 -8.318,5.114 -8.39,5.096 -8.51,5.065 -8.646,5.115 -8.77,5.086 -8.984,5.036 -9.136,4.954 -9.362,4.953 c -0.158,0 -0.297,0.062 -0.443,0.007 -0.168,-0.063 -0.313,-0.177 -0.479,-0.24 -0.132,-0.05 -0.264,-0.051 -0.403,-0.048 -0.117,0.004 -0.176,-0.029 -0.281,-0.048 -0.127,-0.023 -0.17,-0.01 -0.272,-0.113 -0.076,-0.076 -0.18,-0.229 -0.229,-0.354 0.005,0.002 0.01,0.003 0.016,0.005 0.078,0.018 0.188,-0.003 0.266,-0.003 0.34,-10e-4 0.653,0.132 0.979,0.226 0.293,0.085 0.544,0.139 0.849,0.148 0.283,0.008 0.57,0.015 0.851,0.059 0.354,0.057 0.698,0.117 1.052,0.2 0.356,0.084 0.709,0.201 1.07,0.254 0.147,0.022 0.264,0.097 0.405,0.135 0.306,0.083 0.533,0.385 0.806,0.544 0.092,0.05 0.183,0.099 0.275,0.148 0.164,0.037 0.33,0.055 0.498,0.054 -0.019,-10e-4 0.229,-0.009 0.277,0.015 0.011,0.005 0.022,0.012 0.035,0.02 0.323,-0.437 0.612,-0.9 0.916,-1.35 0.125,-0.186 0.268,-0.292 0.443,-0.44 0.124,-0.105 0.211,-0.259 0.308,-0.389 0.168,-0.224 0.286,-0.416 0.368,-0.682 0.054,-0.177 0.163,-0.285 0.277,-0.431 0.17,-0.217 0.281,-0.439 0.389,-0.693 0.171,-0.401 0.236,-0.822 0.399,-1.225 0.094,-0.234 0.192,-0.479 0.321,-0.698 0.076,-0.129 0.225,-0.208 0.371,-0.233 0.078,-0.014 0.147,0.011 0.208,-0.051 0.053,-0.054 0.054,-0.222 0.137,-0.243 v -0.078 c 0,-0.041 -0.003,-0.08 -0.005,-0.119 0.105,0.193 0.225,0.404 0.242,0.62 C 0.325,0.475 0.231,0.999 0.234,1.522 0.237,2.051 0.237,2.58 0.233,3.109 0.231,3.443 0.32,3.767 0.329,4.101 0.354,4.96 0.329,5.825 0.325,6.685 0.323,7.147 0.343,7.611 0.357,8.074 0.39,8.08 0.422,8.083 0.467,8.084 0.629,8.087 0.78,8.092 0.93,8.17 1.041,8.227 1.204,8.49 1.339,8.457 1.374,8.448 1.441,8.366 1.471,8.342 1.814,8.546 2.116,8.809 2.456,9.02 2.59,9.102 2.72,9.169 2.856,9.243 3.028,9.337 3.204,9.444 3.337,9.58 c 0.226,0.228 0.642,0.118 0.917,0.189 0.244,0.062 0.436,0.219 0.674,0.287 0.085,0.019 0.171,0.033 0.257,0.041 0.118,0.038 0.232,0.083 0.344,0.133 0.258,0.109 0.539,0.174 0.782,0.312 0.073,0.042 0.132,0.081 0.216,0.101 0.078,0.007 0.154,0.024 0.228,0.051 0.061,0.055 0.118,0.113 0.171,0.174 0.08,0.066 0.166,0.082 0.26,0.108 0.176,0.049 0.329,0.171 0.502,0.217 0.029,0.008 0.139,0.012 0.155,0.029 0.049,0.049 0.006,0.343 -0.027,0.366"
             style="fill:#100f0d;fill-opacity:1;fill-rule:nonzero;stroke:none"
             id="path55447" />
        </g>
        <g
           id="g55449"
           transform="translate(192.765,361.941)">
          <path
             d="M 0,0 C 0.004,0.027 0.014,0.059 0.027,0.091 -0.029,0.072 -0.063,0.029 0,0"
             style="fill:#100f0d;fill-opacity:1;fill-rule:nonzero;stroke:none"
             id="path55451" />
        </g>
      </g>
    </g>
  </g>
</svg>
