<?xml version="1.0" encoding="UTF-8" standalone="no"?>
<!-- Created with Inkscape (http://www.inkscape.org/) -->

<svg
   width="25.926744"
   height="24"
   viewBox="0 0 6.8597845 6.35"
   version="1.1"
   id="svg57984"
   inkscape:version="1.2.1 (9c6d41e4, 2022-07-14)"
   sodipodi:docname="the-crash.svg"
   xmlns:inkscape="http://www.inkscape.org/namespaces/inkscape"
   xmlns:sodipodi="http://sodipodi.sourceforge.net/DTD/sodipodi-0.dtd"
   xmlns="http://www.w3.org/2000/svg"
   xmlns:svg="http://www.w3.org/2000/svg">
  <sodipodi:namedview
     id="namedview57986"
     pagecolor="#505050"
     bordercolor="#eeeeee"
     borderopacity="1"
     inkscape:showpageshadow="0"
     inkscape:pageopacity="0"
     inkscape:pagecheckerboard="0"
     inkscape:deskcolor="#505050"
     inkscape:document-units="mm"
     showgrid="false"
     inkscape:zoom="0.7046647"
     inkscape:cx="26.963178"
     inkscape:cy="124.17253"
     inkscape:window-width="1390"
     inkscape:window-height="941"
     inkscape:window-x="0"
     inkscape:window-y="25"
     inkscape:window-maximized="0"
     inkscape:current-layer="layer1" />
  <defs
     id="defs57981">
    <clipPath
       clipPathUnits="userSpaceOnUse"
       id="clipPath55411">
      <path
         d="m 64.876,355.36 h 24.7 v 24.7 h -24.7 z"
         id="path55409" />
    </clipPath>
  </defs>
  <g
     inkscape:label="Layer 1"
     inkscape:groupmode="layer"
     id="layer1"
     transform="translate(-97.94811,-115.85029)">
    <g
       id="g55405"
       transform="matrix(0.28785131,0,0,-0.28785131,79.122634,224.77582)">
      <g
         id="g55407"
         clip-path="url(#clipPath55411)">
        <g
           id="g55413"
           transform="translate(77.098,367.652)">
          <path
             d="m 0,0 c -0.366,0 -0.663,0.296 -0.663,0.661 0,0.365 0.297,0.661 0.663,0.661 0.366,0 0.663,-0.296 0.663,-0.661 C 0.663,0.296 0.366,0 0,0 M 6.415,2.061 C 4.518,2.061 2.836,1.535 1.796,1.272 1.734,1.307 1.671,1.339 1.605,1.367 1.484,1.417 1.358,1.456 1.24,1.511 1.127,1.706 0.969,1.871 0.78,1.993 0.694,2.176 0.636,2.382 0.57,2.582 0.856,3.617 1.399,5.303 1.399,7.213 1.399,8.501 0.958,9.69 0.815,10.645 0.81,10.631 0.805,10.617 0.8,10.603 l 0.002,0.123 C 0.8,10.737 0.799,10.747 0.797,10.757 0.713,10.497 0.668,10.224 0.663,9.95 0.625,10.164 0.545,10.369 0.429,10.552 0.368,10.113 0.35,9.668 0.374,9.225 0.372,9.454 0.307,9.682 0.188,9.878 0.174,9.673 0.16,9.467 0.146,9.262 0.122,9.36 0.097,9.457 0.073,9.555 0.076,8.486 0.079,7.418 0.082,6.349 0.058,6.545 0.034,6.74 0.01,6.935 -0.01,6.71 -0.031,6.485 -0.051,6.259 -0.258,7.018 -0.32,7.816 -0.232,8.597 -0.337,8.336 -0.401,8.059 -0.422,7.778 l -0.026,2.16 C -0.567,9.581 -0.639,9.208 -0.661,8.832 -0.656,8.71 -0.658,8.589 -0.667,8.467 -0.67,8.589 -0.668,8.711 -0.661,8.832 -0.665,8.945 -0.675,9.059 -0.691,9.171 -0.762,8.784 -0.799,8.39 -0.802,7.997 -0.783,7.859 -0.78,7.72 -0.793,7.582 -0.8,7.72 -0.803,7.858 -0.802,7.997 -0.808,8.04 -0.816,8.083 -0.825,8.126 -0.787,7.953 -1.065,7.457 -1.138,7.294 -1.166,7.355 -1.194,7.417 -1.223,7.479 -1.224,7.39 -1.224,7.302 -1.224,7.213 -1.224,6.178 -1.176,5.14 -1.043,4.114 -0.992,3.721 -0.891,3.333 -0.842,2.941 -0.798,2.592 -0.856,2.225 -0.917,1.865 -0.924,1.859 -0.932,1.852 -0.939,1.846 -0.967,1.82 -0.995,1.794 -1.021,1.766 -1.115,1.67 -1.194,1.559 -1.258,1.439 -1.501,1.431 -1.743,1.43 -1.986,1.435 -3.034,1.692 -4.636,1.856 -6.434,1.856 -7.49,1.856 -8.479,1.799 -9.329,1.7 -9.309,1.687 -9.289,1.673 -9.271,1.658 -9.413,1.52 -9.721,1.546 -9.913,1.52 -9.879,1.516 -9.846,1.512 -9.813,1.509 -10.14,1.482 -10.464,1.43 -10.78,1.34 -10.312,1.28 -9.843,1.22 -9.374,1.16 L -9.638,1.158 c 0.37,-0.02 0.736,-0.104 1.077,-0.25 -0.436,0.01 -0.872,-0.01 -1.306,-0.058 0.053,-0.016 0.105,-0.032 0.157,-0.048 -0.2,-0.002 -0.399,-0.003 -0.599,-0.004 0.083,-0.024 0.165,-0.048 0.248,-0.073 0.109,-0.085 0.248,-0.131 0.386,-0.128 0.163,-0.106 0.361,-0.16 0.556,-0.15 -0.142,0 -0.284,-0.001 -0.426,-0.002 0.054,-0.028 0.114,-0.048 0.174,-0.058 0.06,0 0.12,-0.001 0.18,-0.005 -0.06,-0.007 -0.121,-0.006 -0.18,0.005 -0.177,-0.001 -0.355,-0.018 -0.529,-0.05 0.084,-0.057 0.183,-0.09 0.284,-0.094 -0.442,-0.045 -0.894,0.006 -1.317,0.142 -0.218,-0.118 -0.528,0.004 -0.765,-0.102 0.871,-0.405 2.9,-1.044 5.264,-1.044 1.862,0 3.513,0.532 4.557,0.804 0.236,-0.05 0.517,0.054 0.701,-0.101 0.093,-0.079 0.13,-0.204 0.161,-0.322 0.066,-0.242 0.132,-0.484 0.198,-0.726 -0.248,-1.043 -0.764,-2.668 -0.764,-4.494 0,-3.15 0.83,-5.703 1.415,-5.703 0.584,0 1.236,2.553 1.236,5.703 0,1.609 -0.246,3.059 -0.487,4.096 0.022,0.226 0.052,0.452 0.098,0.675 0.029,0.144 0.065,0.289 0.142,0.414 0.022,0.036 0.048,0.071 0.085,0.089 0.054,0.028 0.119,0.016 0.179,0.025 0.09,0.015 0.159,0.073 0.215,0.146 0.32,0.011 0.64,0.042 0.959,0.081 1.042,-0.204 2.516,-0.331 4.154,-0.331 3.158,0 5.718,0.472 5.718,1.055 0,0.583 -2.56,1.411 -5.718,1.411"
             style="fill:#242021;fill-opacity:1;fill-rule:nonzero;stroke:none"
             id="path55415" />
        </g>
      </g>
    </g>
  </g>
</svg>
