<svg width="26" height="24" viewBox="0 0 26 24" fill="none" xmlns="http://www.w3.org/2000/svg">
  <path d="M12.7267 11.703C12.3286 11.703 12.0054 11.381 12.0054 10.9839C12.0054 10.5868 12.3286 10.2648 12.7267 10.2648C13.1249 10.2648 13.4481 10.5868 13.4481 10.9839C13.4481 11.381 13.1249 11.703 12.7267 11.703ZM19.7059 9.46077C17.6421 9.46077 15.8121 10.033 14.6807 10.3192C14.6132 10.2811 14.5447 10.2463 14.4729 10.2158C14.3413 10.1614 14.2042 10.119 14.0758 10.0591C13.9529 9.84699 13.781 9.66748 13.5753 9.53475C13.4818 9.33566 13.4187 9.11155 13.3469 8.89396C13.658 7.76794 14.2488 5.93367 14.2488 3.8557C14.2488 2.45443 13.769 1.16086 13.6134 0.121879C13.608 0.137111 13.6025 0.152344 13.5971 0.167575L13.5993 0.0337589C13.5971 0.0217916 13.596 0.0109099 13.5938 3.05176e-05C13.5024 0.282895 13.4535 0.579905 13.4481 0.878001C13.4067 0.645181 13.3197 0.422154 13.1935 0.223061C13.1271 0.700667 13.1075 1.1848 13.1336 1.66676C13.1315 1.41762 13.0607 1.16957 12.9313 0.956333C12.916 1.17936 12.9008 1.40348 12.8856 1.6265C12.8595 1.51989 12.8323 1.41435 12.8062 1.30774C12.8094 2.47075 12.8127 3.63267 12.816 4.79568C12.7898 4.58244 12.7637 4.37029 12.7376 4.15814C12.7159 4.40293 12.693 4.64772 12.6713 4.89359C12.4461 4.06785 12.3786 3.19967 12.4743 2.34998C12.3601 2.63394 12.2905 2.9353 12.2676 3.24101L12.2393 0.891055C12.1099 1.27945 12.0316 1.68525 12.0076 2.09432C12.0131 2.22705 12.0109 2.35869 12.0011 2.49142C11.9978 2.35869 12 2.22596 12.0076 2.09432C12.0033 1.97138 11.9924 1.84736 11.975 1.72551C11.8977 2.14654 11.8575 2.57519 11.8542 3.00275C11.8749 3.15289 11.8782 3.30411 11.864 3.45425C11.8564 3.30411 11.8531 3.15397 11.8542 3.00275C11.8477 2.95597 11.839 2.90919 11.8292 2.86241C11.8705 3.05062 11.5681 3.59024 11.4887 3.76757C11.4582 3.70121 11.4277 3.63376 11.3962 3.5663C11.3951 3.66313 11.3951 3.75887 11.3951 3.8557C11.3951 4.98172 11.4473 6.111 11.592 7.22723C11.6475 7.65479 11.7574 8.07691 11.8107 8.50339C11.8586 8.88308 11.7955 9.28235 11.7291 9.67401C11.7215 9.68054 11.7128 9.68815 11.7052 9.69468C11.6747 9.72297 11.6442 9.75125 11.616 9.78172C11.5137 9.88616 11.4277 10.0069 11.3581 10.1375C11.0937 10.1462 10.8305 10.1473 10.5661 10.1418C9.42593 9.86222 7.68305 9.6838 5.72693 9.6838C4.57806 9.6838 3.50208 9.74582 2.57733 9.85352C2.59909 9.86766 2.62085 9.8829 2.64044 9.89921C2.48595 10.0494 2.15086 10.0211 1.94198 10.0494C1.97897 10.0537 2.01487 10.0581 2.05077 10.0613C1.69501 10.0907 1.34252 10.1473 0.998731 10.2452C1.50789 10.3105 2.01813 10.3757 2.52838 10.441L2.24116 10.4432C2.6437 10.4649 3.04189 10.5563 3.41287 10.7152C2.93853 10.7043 2.46419 10.7261 1.99202 10.7783C2.04968 10.7957 2.10626 10.8131 2.16283 10.8305C1.94524 10.8327 1.72874 10.8338 1.51115 10.8348C1.60145 10.861 1.69066 10.8871 1.78096 10.9143C1.89955 11.0067 2.05077 11.0568 2.20091 11.0535C2.37824 11.1688 2.59365 11.2276 2.8058 11.2167C2.65131 11.2167 2.49683 11.2178 2.34234 11.2189C2.40109 11.2494 2.46636 11.2711 2.53164 11.282C2.59692 11.282 2.66219 11.2831 2.72747 11.2874C2.66219 11.295 2.59583 11.294 2.53164 11.282C2.33908 11.2831 2.14542 11.3016 1.95612 11.3364C2.04751 11.3984 2.15521 11.4343 2.26509 11.4387C1.78422 11.4876 1.29248 11.4321 0.832276 11.2842C0.595105 11.4125 0.257842 11.2798 0 11.3951C0.947598 11.8358 3.15503 12.5309 5.72693 12.5309C7.75267 12.5309 9.54887 11.9522 10.6847 11.6562C10.9414 11.7106 11.2471 11.5975 11.4473 11.7661C11.5485 11.8521 11.5888 11.9881 11.6225 12.1164C11.6943 12.3797 11.7661 12.643 11.8379 12.9063C11.5681 14.041 11.0067 15.8089 11.0067 17.7955C11.0067 21.2225 11.9097 24 12.5461 24C13.1815 24 13.8908 21.2225 13.8908 17.7955C13.8908 16.045 13.6232 14.4675 13.361 13.3393C13.385 13.0934 13.4176 12.8475 13.4676 12.6049C13.4992 12.4483 13.5384 12.2905 13.6221 12.1545C13.6461 12.1154 13.6743 12.0773 13.7146 12.0577C13.7733 12.0272 13.8441 12.0403 13.9093 12.0305C14.0073 12.0142 14.0823 11.9511 14.1432 11.8717C14.4914 11.8597 14.8395 11.826 15.1866 11.7835C16.3202 12.0055 17.9238 12.1436 19.7059 12.1436C23.1416 12.1436 25.9267 11.6301 25.9267 10.9959C25.9267 10.3616 23.1416 9.46077 19.7059 9.46077Z" fill="black"/>
</svg>
