<?xml version="1.0" encoding="UTF-8" standalone="no"?>
<!-- Created with Inkscape (http://www.inkscape.org/) -->

<svg
   width="21.329487"
   height="24"
   viewBox="0 0 5.6434267 6.35"
   version="1.1"
   id="svg59841"
   inkscape:version="1.2.1 (9c6d41e4, 2022-07-14)"
   sodipodi:docname="to-the-forbidden-peaks.svg"
   xmlns:inkscape="http://www.inkscape.org/namespaces/inkscape"
   xmlns:sodipodi="http://sodipodi.sourceforge.net/DTD/sodipodi-0.dtd"
   xmlns="http://www.w3.org/2000/svg"
   xmlns:svg="http://www.w3.org/2000/svg">
  <sodipodi:namedview
     id="namedview59843"
     pagecolor="#505050"
     bordercolor="#eeeeee"
     borderopacity="1"
     inkscape:showpageshadow="0"
     inkscape:pageopacity="0"
     inkscape:pagecheckerboard="0"
     inkscape:deskcolor="#505050"
     inkscape:document-units="mm"
     showgrid="false"
     inkscape:zoom="0.7046647"
     inkscape:cx="-69.536618"
     inkscape:cy="88.694665"
     inkscape:window-width="1390"
     inkscape:window-height="941"
     inkscape:window-x="0"
     inkscape:window-y="25"
     inkscape:window-maximized="0"
     inkscape:current-layer="layer1" />
  <defs
     id="defs59838">
    <clipPath
       clipPathUnits="userSpaceOnUse"
       id="clipPath55481">
      <path
         d="m 188.725,321.68 h 24.7 v 24.699 h -24.7 z"
         id="path55479" />
    </clipPath>
  </defs>
  <g
     inkscape:label="Layer 1"
     inkscape:groupmode="layer"
     id="layer1"
     transform="translate(-123.71305,-125.23714)">
    <g
       id="g55475"
       transform="matrix(0.28253112,0,0,-0.28253112,69.76769,222.81096)">
      <g
         id="g55477"
         clip-path="url(#clipPath55481)">
        <g
           id="g55483"
           transform="translate(206.246,334.37)">
          <path
             d="m 0,0 c -0.055,0.068 -0.114,0.127 -0.17,0.193 -0.061,-0.009 -0.079,-0.09 -0.103,-0.136 -0.052,-0.102 -0.122,-0.193 -0.183,-0.289 -0.069,-0.105 -0.128,-0.213 -0.169,-0.332 -0.013,-0.04 -0.02,-0.147 -0.059,-0.18 -0.09,0.095 -0.134,0.212 -0.201,0.322 -0.023,0.039 -0.09,0.18 -0.146,0.174 -0.092,-0.122 -0.097,-0.282 -0.216,-0.391 -0.02,0.092 -0.029,0.187 -0.038,0.281 -0.059,0.015 -0.134,-0.119 -0.169,-0.16 -0.101,-0.122 -0.21,-0.236 -0.314,-0.356 -0.088,-0.102 -0.162,-0.207 -0.228,-0.324 -0.023,-0.038 -0.046,-0.087 -0.086,-0.111 0.036,0.136 0.126,0.258 0.194,0.379 0.041,0.074 0.082,0.148 0.122,0.223 0.016,0.042 0.025,0.086 0.026,0.131 0.013,0.018 0.022,0.037 0.026,0.058 -0.001,0.026 -0.011,0.047 -0.029,0.063 -0.002,0.041 0.025,0.053 0.042,0.085 0.021,0.038 0.031,0.081 0.06,0.118 0.044,0.056 0.105,0.078 0.16,0.121 0.19,0.152 0.388,0.429 0.43,0.676 0.03,0.174 0.055,0.348 0.091,0.522 0.016,0.073 0.009,0.154 0.028,0.225 0.027,0.097 0.026,0.192 0.056,0.292 0.033,0.11 0.012,0.225 0.037,0.335 0.015,0.068 0.059,0.123 0.078,0.191 0.009,0.052 0.024,0.103 0.047,0.152 0.032,0.051 0.06,0.104 0.084,0.16 0.014,0.053 0.002,0.113 0.003,0.167 -0.003,-0.185 0.094,-0.315 0.139,-0.454 0.029,-0.086 0.047,-0.203 0.095,-0.28 0.042,-0.068 0.073,-0.132 0.079,-0.217 0.01,-0.161 0.036,-0.313 0.14,-0.446 0.109,-0.14 0.137,-0.293 0.177,-0.46 C 0.028,0.623 0.063,0.518 0.105,0.414 0.145,0.317 0.199,0.226 0.215,0.122 0.233,-0.003 0.232,-0.134 0.255,-0.259 0.143,-0.218 0.072,-0.09 0,0 m -4.988,1.667 c -10e-4,0.04 -0.004,0.081 -0.005,0.121 -0.006,0.04 -0.014,0.08 -0.018,0.121 -0.002,0.073 -0.008,0.146 -0.02,0.218 -0.026,0.087 -0.058,0.171 -0.096,0.254 -0.051,0.122 -0.094,0.248 -0.129,0.376 -0.008,0.061 -0.03,0.116 -0.065,0.166 -0.046,0.055 -0.116,0.079 -0.165,0.131 -0.044,0.047 -0.097,0.1 -0.134,0.153 -0.021,0.045 -0.035,0.092 -0.044,0.14 0.004,0.04 -0.187,0.064 -0.228,0.073 -0.111,0.084 -0.045,0.175 -0.143,0.273 -0.072,0.073 -0.154,0.128 -0.247,0.167 -0.05,0.02 -0.111,0.04 -0.165,0.047 -0.076,-0.22 -0.038,-0.509 -0.037,-0.736 0.001,-0.293 0,-0.586 0,-0.879 0,-0.325 -0.018,-0.658 0.003,-0.983 -0.027,0.243 -0.072,0.495 -0.137,0.731 -0.05,0.182 -0.12,0.354 -0.2,0.525 C -6.865,2.666 -6.942,2.861 -7.042,2.941 -7.163,2.734 -7.167,2.506 -7.231,2.282 -7.3,2.38 -7.334,2.492 -7.357,2.608 -7.392,2.781 -7.437,2.982 -7.417,3.158 -7.431,2.965 -7.5,2.782 -7.511,2.589 -7.519,2.414 -7.512,2.004 -7.513,2.063 -7.525,2.195 -7.539,2.327 -7.558,2.458 -7.585,2.64 -7.625,2.846 -7.696,3.016 c -0.034,0.083 -0.106,0.16 -0.127,0.249 -0.011,0.049 -0.002,0.104 0,0.153 0.002,0.06 0.006,0.123 -10e-4,0.182 C -7.882,3.527 -7.928,3.441 -7.979,3.364 -8.028,3.29 -8.066,3.191 -8.132,3.132 -8.24,3.218 -8.35,3.305 -8.449,3.4 -8.517,3.464 -8.567,3.553 -8.642,3.608 -8.7,3.585 -8.854,3.537 -8.879,3.482 -8.905,3.423 -8.946,3.383 -8.978,3.327 -9.009,3.275 -8.995,3.29 -9.021,3.221 -9.075,3.081 -9.209,2.987 -9.315,2.888 -9.403,2.806 -9.479,2.716 -9.56,2.627 c -0.032,0.077 0.057,0.234 0.084,0.291 0.035,0.074 0.069,0.157 0.119,0.222 0.079,0.102 0.128,0.164 0.174,0.284 0.066,0.171 0.188,0.314 0.283,0.469 0.086,0.139 0.105,0.29 0.175,0.431 0.032,0.064 0.072,0.113 0.094,0.184 0.023,0.076 0.024,0.159 0.043,0.236 0.023,0.086 0.075,0.153 0.11,0.225 0.063,0.127 0.11,0.268 0.167,0.399 0.033,0.078 0.078,0.136 0.083,0.218 0.01,0.182 0.059,0.364 0.097,0.547 0.044,0.209 0.003,0.422 0.059,0.623 0.021,0.079 0.055,0.167 0.063,0.25 0.002,0.021 -0.009,0.042 -0.002,0.063 0.025,0.07 0.139,0.157 0.183,0.221 0.066,0.097 0.125,0.199 0.202,0.288 0.042,0.048 0.089,0.088 0.119,0.146 0.016,0.031 0.053,0.214 0.089,0.224 0.018,0.065 0.045,0.105 0.058,0.14 0.035,0.094 0.028,0.2 0.068,0.292 -0.003,-0.095 -0.02,-0.209 0.017,-0.296 0.04,-0.096 0.071,-0.196 0.114,-0.293 0.085,-0.193 0.12,-0.39 0.179,-0.59 0.068,-0.233 0.198,-0.45 0.336,-0.652 C -6.415,6.213 -6.338,5.91 -6.159,5.541 -6.117,5.453 -6.077,5.334 -6.014,5.259 -5.981,5.22 -5.936,5.204 -5.914,5.155 -5.908,5.096 -5.898,5.038 -5.885,4.981 -5.873,4.905 -5.854,4.83 -5.83,4.756 -5.795,4.637 -5.719,4.538 -5.697,4.417 -5.677,4.3 -5.659,4.183 -5.636,4.066 -5.621,3.989 -5.617,3.877 -5.564,3.812 -5.555,3.801 -5.53,3.793 -5.525,3.781 -5.442,3.612 -5.253,3.407 -5.201,3.22 -5.072,2.754 -5.005,2.271 -4.993,1.788 -4.987,1.748 -4.984,1.708 -4.988,1.667 M 4.661,-3.955 C 4.53,-3.939 4.382,-4.026 4.264,-3.941 4.105,-3.826 3.991,-3.642 3.909,-3.469 3.794,-3.226 3.696,-2.974 3.59,-2.728 3.416,-2.325 3.217,-1.908 3.068,-1.494 3.028,-1.374 2.989,-1.253 2.949,-1.133 2.927,-1.039 2.906,-0.945 2.885,-0.851 2.826,-0.72 2.722,-0.6 2.639,-0.479 2.513,-0.297 2.404,-0.085 2.26,0.086 2.225,0.046 2.182,0.031 2.131,0.043 2.05,0.022 2.001,0.062 1.984,0.163 1.822,0.41 1.768,0.714 1.676,0.994 1.571,0.941 1.563,0.775 1.51,0.67 1.414,0.902 1.335,1.122 1.199,1.333 1.12,1.279 1.074,1.204 1.061,1.108 1.014,0.972 0.956,0.841 0.887,0.715 0.746,0.792 0.684,0.922 0.701,1.105 0.678,1.177 0.665,1.251 0.664,1.325 0.654,1.37 0.648,1.515 0.575,1.49 0.563,1.423 0.551,1.356 0.541,1.289 0.476,1.632 0.472,1.98 0.421,2.323 0.393,2.512 0.325,2.888 0.133,3.009 0.098,2.877 0.071,2.744 0.041,2.61 -0.052,2.983 -0.051,3.368 -0.075,3.749 -0.116,3.802 -0.143,3.868 -0.162,3.94 c -0.179,0.096 -0.289,0.33 -0.225,0.524 0.024,0.072 0.049,0.145 0.074,0.217 -0.068,0.24 -0.16,0.469 -0.29,0.697 -0.01,0.008 -0.021,0.017 -0.031,0.026 C -0.661,5.22 -0.716,5.033 -0.785,4.845 -0.832,4.715 -0.912,4.63 -1.004,4.579 -0.999,4.407 -0.998,4.232 -1.021,4.07 -1.079,4.16 -1.123,4.247 -1.159,4.347 -1.174,4.387 -1.178,4.422 -1.216,4.447 -1.25,4.343 -1.254,4.235 -1.228,4.123 -1.228,3.919 -1.239,3.716 -1.261,3.513 -1.278,3.345 -1.29,3.176 -1.295,3.007 -1.287,2.936 -1.284,2.864 -1.286,2.793 -1.284,2.692 -1.315,2.598 -1.379,2.51 -1.538,2.09 -1.696,1.669 -1.853,1.247 -1.933,1.007 -2.01,0.77 -2.047,0.518 -2.085,0.551 -2.105,0.596 -2.106,0.655 -2.15,0.754 -2.194,0.852 -2.239,0.951 -2.367,1.245 -2.46,1.55 -2.611,1.835 -2.726,2.012 -2.841,2.188 -2.958,2.364 -3.062,2.512 -3.154,2.668 -3.233,2.831 -3.284,2.922 -3.293,3.009 -3.349,2.935 -3.43,3.03 -3.487,3.138 -3.57,3.231 -3.631,3.161 -3.694,3.318 -3.705,3.344 -3.754,3.455 -3.782,3.564 -3.777,3.685 -3.844,3.48 -3.926,3.28 -3.994,3.075 -4.054,2.893 -4.09,2.708 -4.143,2.525 -4.225,2.687 -4.246,2.853 -4.253,3.031 -4.257,3.124 -4.26,3.161 -4.309,3.239 -4.379,3.349 -4.426,3.486 -4.456,3.615 -4.478,3.708 -4.448,3.807 -4.473,3.897 -4.485,3.938 -4.52,3.984 -4.539,4.024 -4.639,4.243 -4.7,4.474 -4.821,4.683 -4.87,4.637 -4.899,4.557 -4.934,4.502 -4.993,4.41 -5.06,4.326 -5.132,4.246 -5.151,4.421 -5.188,4.601 -5.221,4.768 -5.235,4.857 -5.256,4.944 -5.283,5.03 -5.311,5.063 -5.329,5.102 -5.337,5.146 -5.362,5.243 -5.37,5.343 -5.399,5.436 -5.415,5.489 -5.423,5.577 -5.489,5.561 -5.558,5.739 -5.579,5.92 -5.622,6.103 -5.632,6.146 -5.649,6.268 -5.72,6.213 -5.814,6.357 -5.776,6.614 -5.774,6.78 -5.772,6.911 -5.711,7.182 -5.803,7.282 -5.853,7.223 -5.915,7.18 -5.989,7.155 -6.05,7.264 -6.046,7.367 -6.066,7.489 -6.074,7.536 -6.073,7.593 -6.108,7.549 -6.121,7.693 -6.128,7.835 -6.15,7.979 -6.169,8.105 -6.201,8.23 -6.207,8.357 -6.274,8.372 -6.364,7.754 -6.375,7.695 -6.492,7.837 -6.52,8.059 -6.561,8.234 c -0.001,0.007 -0.002,0.014 -0.004,0.021 0.015,0.288 0.048,0.576 0.057,0.862 0.005,0.112 0.006,0.224 0.003,0.335 l 0.014,0.123 c 0.002,0.063 -0.03,0.108 -0.096,0.135 -0.14,0.128 -0.278,0.258 -0.414,0.391 -0.144,0.161 -0.251,0.256 -0.257,0.449 0,0.027 0.004,0.056 0.004,0.084 10e-4,0.118 -0.025,0.234 -0.031,0.352 -0.144,-0.124 -0.178,-0.345 -0.272,-0.507 -0.015,-0.024 -0.029,-0.026 -0.035,-0.054 -0.009,-0.042 0.024,-0.097 0.028,-0.142 0.003,-0.036 0.001,-0.071 -0.006,-0.106 C -7.592,10.143 -7.606,10.106 -7.612,10.066 -7.644,9.955 -7.669,9.844 -7.686,9.73 -7.728,9.55 -7.76,9.339 -7.873,9.188 -7.904,9.148 -7.945,9.115 -7.965,9.069 -8.003,8.98 -7.994,8.833 -8.008,8.741 -8.022,8.652 -8.039,8.567 -8.079,8.486 -8.123,8.399 -8.187,8.321 -8.238,8.238 -8.247,8.196 -8.268,8.165 -8.301,8.147 -8.311,8.137 -8.323,8.133 -8.337,8.137 -8.389,8.068 -8.422,7.998 -8.475,7.929 -8.624,7.738 -8.741,7.514 -8.852,7.299 -8.909,7.196 -8.958,7.089 -8.998,6.979 -9.006,6.94 -9.023,6.906 -9.048,6.876 -9.102,6.891 -9.092,6.951 -9.117,6.994 -9.13,6.732 -9.118,6.47 -9.121,6.208 -9.122,6.135 -9.107,5.932 -9.185,5.865 -9.209,5.866 -9.23,5.874 -9.248,5.889 -9.333,5.712 -9.284,5.52 -9.314,5.332 -9.323,5.277 -9.324,5.205 -9.35,5.155 -9.394,5.153 -9.438,5.155 -9.482,5.162 -9.537,5.13 -9.564,5.08 -9.563,5.014 -9.635,4.753 -9.669,4.484 -9.731,4.221 -9.809,3.89 -9.849,3.542 -9.957,3.219 c -0.086,0.102 -0.135,0.219 -0.252,0.286 -0.053,-0.15 -0.096,-0.305 -0.153,-0.453 -0.009,-0.025 -0.03,-0.117 -0.062,-0.133 -0.02,0.016 -0.036,0.038 -0.046,0.063 -0.031,-0.129 -0.031,-0.263 -0.055,-0.393 -0.014,-0.074 -0.031,-0.143 -0.032,-0.218 -0.003,-0.139 -0.03,-0.305 0.054,-0.425 -0.023,-10e-4 -0.045,0 -0.067,0.004 -0.105,-0.247 -0.174,-0.527 -0.326,-0.752 -0.156,-0.231 -0.268,-0.481 -0.37,-0.741 -0.131,0.051 -0.231,0.214 -0.32,0.318 -0.121,0.143 -0.24,0.288 -0.373,0.42 -0.01,-0.031 0.006,-0.055 0,-0.086 -0.061,0.111 -0.092,0.295 -0.183,0.38 -0.011,-0.081 -0.012,-0.162 -0.003,-0.244 0.004,-0.318 0.002,-0.636 -0.006,-0.953 -0.007,-0.17 -0.003,-0.257 -0.048,-0.395 -0.048,-0.149 -0.081,-0.307 -0.12,-0.461 -0.074,-0.294 -0.181,-0.581 -0.234,-0.879 -0.054,0.023 -0.096,0.068 -0.152,0.086 -0.042,-0.212 -0.105,-0.418 -0.167,-0.625 -0.04,-0.135 -0.078,-0.363 -0.171,-0.477 -0.051,-0.063 -0.052,-0.059 -0.134,-0.057 -0.039,10e-4 -0.101,0.019 -0.138,0.007 -0.063,-0.02 -0.061,-0.065 -0.082,-0.13 -0.028,-0.087 -0.078,-0.175 -0.071,-0.269 -0.143,-0.008 -0.286,-0.003 -0.429,0.017 -0.085,0.018 -0.167,0.014 -0.247,-0.012 -0.077,-0.047 -0.089,-0.154 -0.16,-0.202 -0.088,-0.057 -0.093,-0.046 -0.138,-0.192 -0.039,-0.139 -0.068,-0.279 -0.089,-0.422 0.028,-0.081 0.014,-0.134 -0.042,-0.159 -0.046,0.098 -0.067,0.056 -0.115,-0.028 -0.111,-0.194 -0.202,-0.398 -0.29,-0.602 -0.082,-0.188 -0.237,-0.436 -0.189,-0.651 l 0.363,0.302 c -0.102,-0.098 -0.205,-0.194 -0.313,-0.285 -0.091,-0.076 -0.086,-0.205 -0.193,-0.27 0.01,-0.114 0.109,-0.219 0.202,-0.278 0.069,-0.042 0.082,-0.06 0.129,-0.127 0.043,-0.062 0.098,-0.118 0.148,-0.175 0.029,-0.035 0.062,-0.06 0.094,-0.083 0.01,-0.055 0.027,-0.109 0.049,-0.161 0.034,-0.077 0.032,-0.082 0.118,-0.104 0.141,-0.036 0.281,-0.074 0.418,-0.125 0.008,-0.103 -0.118,-0.205 -0.095,-0.299 0.008,-0.029 0.084,-0.1 0.1,-0.117 0.175,-0.194 0.425,-0.287 0.625,-0.448 0.042,-0.059 0.085,-0.117 0.133,-0.167 0.161,-0.172 0.422,-0.336 0.621,-0.45 0.122,-0.07 0.182,-0.083 0.281,-0.083 0.009,-0.01 0.02,-0.018 0.028,-0.029 -0.006,-0.039 -0.003,-0.078 0.008,-0.116 0.03,-0.127 0.129,-0.099 0.237,-0.122 0.052,-0.012 0.103,-0.028 0.153,-0.048 0.077,-0.023 0.155,-0.041 0.235,-0.054 0.082,-0.06 0.164,-0.122 0.244,-0.186 0.096,-0.053 0.179,-0.121 0.248,-0.204 0.082,-0.089 0.183,-0.092 0.281,-0.152 0.133,-0.082 0.246,-0.211 0.358,-0.317 0.098,-0.098 0.201,-0.189 0.311,-0.273 0.054,-0.075 0.123,-0.117 0.207,-0.126 0.017,0.054 0.037,0.032 0.087,0.053 0.067,0.028 0.13,0.09 0.152,0.159 0.06,-0.025 0.065,-0.12 0.094,-0.169 0.009,-0.013 0.032,-0.016 0.038,-0.03 0.018,-0.041 -0.008,-0.118 0.016,-0.151 0.027,-0.039 0.165,-0.034 0.197,-0.038 0.118,-0.01 0.234,-0.03 0.349,-0.06 0.035,-0.019 0.07,-0.038 0.105,-0.057 0.032,-0.06 -0.019,-0.166 0.089,-0.169 0.005,-0.017 0.008,-0.034 0.012,-0.051 0.039,-0.012 0.076,0.001 0.115,-0.01 l 0.025,-0.025 c 0.064,-0.037 0.134,-0.056 0.209,-0.057 0.054,0.012 0.095,-0.001 0.125,-0.038 0.005,-0.021 0.017,-0.031 0.036,-0.029 0.085,-0.026 0.086,0.012 0.159,-0.063 0.072,-0.075 0.133,-0.065 0.215,-0.117 0.076,-0.048 0.139,-0.117 0.219,-0.158 0.007,-0.011 0.014,-0.023 0.021,-0.034 0.019,-0.01 0.039,-0.011 0.06,-0.004 0.062,-0.01 0.075,0 0.128,-0.035 0.131,-0.086 0.207,-0.128 0.371,-0.122 0.043,0.002 0.098,0.01 0.141,0.004 0.081,-0.01 0.132,-0.082 0.212,-0.089 0.074,-0.007 0.108,0.047 0.174,0.006 0.032,-0.056 0.08,-0.091 0.144,-0.106 0.034,10e-4 0.069,0.003 0.104,0.004 0.036,0.032 0.075,0.037 0.118,0.016 0.118,-0.066 0.234,-0.137 0.348,-0.212 0.032,-0.015 0.065,-0.03 0.098,-0.045 0.071,0.033 0.134,0.079 0.189,0.136 0.142,0.108 0.166,0.127 0.319,0.063 0.091,-0.039 0.183,-0.076 0.275,-0.112 0.136,-0.041 0.271,-0.034 0.404,0.021 0.164,0.041 0.226,0.071 0.384,0.067 0.02,0 0.044,-0.002 0.066,-0.003 0.081,-0.066 0.173,-0.116 0.275,-0.146 0.227,-0.087 0.473,-0.026 0.711,-0.09 0.116,-0.031 0.204,-0.094 0.309,-0.131 0.083,-0.024 0.165,-0.01 0.246,0.041 0.231,0.102 0.452,0.222 0.663,0.361 0.354,0.207 0.697,0.432 1.03,0.672 0.368,0.268 0.735,0.537 1.101,0.807 0.061,0.019 0.122,0.038 0.183,0.057 0.1,-0.03 0.201,-0.045 0.305,-0.045 0.325,0.052 0.615,0.391 0.839,0.587 0.117,0.102 0.234,0.204 0.351,0.306 0.093,0.112 0.132,0.127 0.115,0.048 0.131,0.156 0.245,0.324 0.343,0.503 0.16,0.27 0.348,0.517 0.565,0.741 0.272,0.303 0.569,0.579 0.888,0.832 0.178,0.141 0.345,0.262 0.493,0.436 0.16,0.189 0.287,0.421 0.41,0.636 0.121,0.214 0.149,0.433 0.146,0.676 -0.003,0.241 0.034,0.482 0.059,0.721 0.004,0.046 0.018,0.099 0.008,0.144"
             style="fill:#100f0d;fill-opacity:1;fill-rule:nonzero;stroke:none"
             id="path55485" />
        </g>
      </g>
    </g>
  </g>
</svg>
