<svg width="33" height="24" viewBox="0 0 33 24" fill="none" xmlns="http://www.w3.org/2000/svg">
  <path d="M19.476 15.7644C18.168 15.2676 17.9388 14.9724 17.9952 13.8936C18.168 10.4772 19.8792 9.0468 23.3484 9.4272C25.4664 9.6564 28.4568 11.658 28.2468 12.7032C28.0212 13.8 24.6984 15.8904 22.7952 16.1304C21.8244 16.2516 20.3292 16.0872 19.476 15.7644ZM6.7356 15.7368C6.1776 15.4272 5.25 14.7336 4.6728 14.1888C3.6648 13.242 3.6516 13.158 4.3548 11.9388C5.2968 10.2888 6.5856 9.7404 9.4824 9.7404C12.0648 9.7404 12.3468 9.9516 13.2468 12.5904C13.818 14.2692 13.7952 14.3724 12.6516 15.3564C11.3064 16.5096 8.4696 16.692 6.7356 15.7368M9.2952 22.05C11.0532 21.6468 11.718 21.2484 12.2016 20.3064C13.7904 17.2404 16.176 16.9596 18.75 19.5288C21.0372 21.8208 24.15 22.8 26.3016 21.9C28.1568 21.1272 29.1468 19.9548 29.4936 18.1224C29.6532 17.2872 30.0276 16.3032 30.3276 15.9372C31.8 14.142 31.3308 11.7804 28.884 8.7096C28.3356 8.0208 27.876 7.224 27.8616 6.9372C27.8484 6.6516 26.4048 5.3256 24.6564 3.9852L21.468 1.5516L16.2648 1.4016L11.0616 1.2564L8.2728 3.2484C5.0436 5.55 2.7324 8.2032 1.3872 11.1564C0.214799 13.7352 0.2016 14.6304 1.326 16.0596C1.8132 16.6788 2.2116 17.55 2.2164 18C2.2212 19.2516 3.7824 21.3372 5.1696 21.9516C6.7824 22.6692 6.642 22.6644 9.2952 22.05M3.0276 21.8484C1.1148 19.1904 0 16.2516 0 13.8852C0 11.958 0.7548 9.2952 1.3032 9.2952C1.4856 9.2952 1.9824 8.5272 2.4084 7.5852C3.3648 5.466 5.2872 3.624 8.676 1.5804C11.2548 0.0240006 11.3532 0.00479905 16.218 -9.53674e-07H21.1452L23.8452 1.8048C26.5548 3.6096 29.6568 6.792 29.6568 7.758C29.6568 8.0436 30.0324 8.616 30.492 9.0288C30.9516 9.4452 31.584 10.6968 31.8936 11.8128C32.4084 13.6596 32.3664 14.1192 31.41 16.8804C30.7356 18.8304 29.7 20.6532 28.5228 21.9756C26.7276 23.982 26.634 24.024 24.51 23.8224C21.9936 23.5788 18.2856 21.258 17.3484 19.3368C17.034 18.6852 16.5276 18.15 16.2228 18.15C15.9228 18.15 14.7984 19.0452 13.7244 20.142C12.6468 21.2388 11.5824 22.1352 11.3532 22.1352C11.1276 22.1352 10.6968 22.4676 10.4016 22.8756C10.0308 23.382 9.0084 23.682 7.2132 23.808L4.5696 24L3.0276 21.8484Z" fill="#100F0D"/>
</svg>
