<?xml version="1.0" encoding="UTF-8" standalone="no"?>
<!-- Created with Inkscape (http://www.inkscape.org/) -->

<svg
   width="22.495426"
   height="24"
   viewBox="0 0 5.9519148 6.35"
   version="1.1"
   id="svg18433"
   inkscape:version="1.2.1 (9c6d41e4, 2022-07-14)"
   sodipodi:docname="elder_thing.svg"
   xmlns:inkscape="http://www.inkscape.org/namespaces/inkscape"
   xmlns:sodipodi="http://sodipodi.sourceforge.net/DTD/sodipodi-0.dtd"
   xmlns="http://www.w3.org/2000/svg"
   xmlns:svg="http://www.w3.org/2000/svg">
  <sodipodi:namedview
     id="namedview18435"
     pagecolor="#505050"
     bordercolor="#eeeeee"
     borderopacity="1"
     inkscape:showpageshadow="0"
     inkscape:pageopacity="0"
     inkscape:pagecheckerboard="0"
     inkscape:deskcolor="#505050"
     inkscape:document-units="mm"
     showgrid="false"
     inkscape:zoom="0.70199214"
     inkscape:cx="-141.02722"
     inkscape:cy="56.980695"
     inkscape:window-width="1390"
     inkscape:window-height="938"
     inkscape:window-x="0"
     inkscape:window-y="25"
     inkscape:window-maximized="0"
     inkscape:current-layer="layer1" />
  <defs
     id="defs18430" />
  <g
     inkscape:label="Layer 1"
     inkscape:groupmode="layer"
     id="layer1"
     transform="translate(-142.97879,-133.46427)">
    <g
       fill="#231f20"
       fill-opacity="1"
       id="g14102"
       transform="matrix(0.76337186,0,0,0.76337186,-111.65898,-187.91282)">
      <g
         id="use14100"
         transform="translate(333.35101,427.362)">
        <path
           d="m 2,-2.359375 c 0.00781,0 0.015625,0.00781 0.015625,0.015625 0.00781,0 0.019531,0 0.03125,0 -0.0625,0.199219 -0.125,0.46875 -0.1875,0.8125 -0.0625,0.335938 -0.089844,0.703125 -0.078125,1.109375 -0.011719,0.011719 -0.027344,0.015625 -0.046875,0.015625 0,0.011719 0,0.015625 0,0.015625 C 1.710938,-0.378906 1.695312,-0.375 1.6875,-0.375 c 0,0 -0.00781,0.007812 -0.015625,0.015625 -0.023437,0.011719 -0.039063,0.023437 -0.046875,0.03125 0,0 -0.00781,0.007813 -0.015625,0.015625 -0.023437,0.011719 -0.042969,0.023438 -0.0625,0.03125 -0.023437,0.011719 -0.042969,0.027344 -0.0625,0.046875 -0.023437,0.011719 -0.039063,0.027344 -0.046875,0.046875 0,0 -0.015625,0.007812 -0.046875,0.015625 -0.011719,0.023437 -0.027344,0.042969 -0.046875,0.0625 -0.023438,0.0117188 -0.042969,0.03125 -0.0625,0.0625 C 1.25,-0.0351562 1.21875,-0.015625 1.1875,0.015625 1.175781,0.0234375 1.171875,0.03125 1.171875,0.03125 c 0,0.0078125 -0.00781,0.0195312 -0.015625,0.03125 L 1.140625,0.09375 H 1.125 V 0.078125 c -0.011719,0 -0.015625,0 -0.015625,0 0,-0.03125 0,-0.0585938 0,-0.078125 V -0.015625 C 1.097656,-0.0546875 1.09375,-0.0859375 1.09375,-0.109375 c -0.011719,0 -0.015625,-0.007813 -0.015625,-0.03125 -0.011719,-0.03125 -0.023437,-0.054687 -0.03125,-0.078125 0,-0.019531 -0.00781,-0.039062 -0.015625,-0.0625 C 1.019531,-0.3125 1.007812,-0.332031 1,-0.34375 1,-0.363281 0.992188,-0.382812 0.984375,-0.40625 c 0,0 0,-0.003906 0,-0.015625 C 0.972656,-0.441406 0.960938,-0.460938 0.953125,-0.484375 0.941406,-0.503906 0.929688,-0.523438 0.921875,-0.546875 0.910156,-0.554688 0.898438,-0.570312 0.890625,-0.59375 0.878906,-0.613281 0.867188,-0.628906 0.859375,-0.640625 0.828125,-0.679688 0.796875,-0.726562 0.765625,-0.78125 0.742188,-0.800781 0.722656,-0.816406 0.703125,-0.828125 0.691406,-0.847656 0.679688,-0.863281 0.671875,-0.875 0.617188,-0.914062 0.570312,-0.953125 0.53125,-0.984375 L 0.5,-1.015625 c 0,0 -0.007812,-0.00391 -0.015625,-0.015625 C 0.460938,-1.039062 0.441406,-1.050781 0.421875,-1.0625 0.398438,-1.070312 0.382812,-1.082031 0.375,-1.09375 c -0.011719,0 -0.023438,-0.00391 -0.03125,-0.015625 -0.011719,0 -0.015625,-0.00781 -0.015625,-0.03125 V -1.15625 c 0,-0.03125 0,-0.050781 0,-0.0625 0.007813,-0.019531 0.015625,-0.039062 0.015625,-0.0625 0,-0.019531 0,-0.039062 0,-0.0625 v -0.046875 c 0,-0.019531 0,-0.035156 0,-0.046875 0,-0.019531 0,-0.039062 0,-0.0625 0.007812,-0.00781 0.015625,-0.03125 0.015625,-0.0625 0,-0.0625 -0.007813,-0.101562 -0.015625,-0.125 v -0.125 c 0.007812,-0.019531 0.015625,-0.039062 0.015625,-0.0625 -0.011719,-0.050781 -0.011719,-0.101562 0,-0.15625 0,-0.03125 -0.007813,-0.050781 -0.015625,-0.0625 0,-0.03125 0,-0.054688 0,-0.078125 v -0.15625 c -0.011719,-0.00781 -0.015625,-0.019531 -0.015625,-0.03125 0,-0.019531 0,-0.039063 0,-0.0625 0,-0.019531 -0.007813,-0.039063 -0.015625,-0.0625 v -0.0625 c 0,-0.019531 0,-0.039063 0,-0.0625 0,-0.019531 0,-0.039063 0,-0.0625 -0.011719,-0.019531 -0.023438,-0.039063 -0.03125,-0.0625 0,-0.03125 0,-0.0625 0,-0.09375 C 0.269531,-2.847656 0.265625,-2.863281 0.265625,-2.875 c 0,-0.00781 0,-0.023438 0,-0.046875 v -0.03125 C 0.253906,-2.960938 0.25,-2.972656 0.25,-2.984375 c 0,-0.00781 0,-0.023437 0,-0.046875 0,-0.019531 -0.007812,-0.035156 -0.015625,-0.046875 0,-0.019531 -0.007813,-0.03125 -0.015625,-0.03125 0,-0.00781 0.003906,-0.015625 0.015625,-0.015625 l 0.03125,0.03125 C 0.273438,-3.082031 0.300781,-3.0625 0.34375,-3.03125 0.363281,-3 0.375,-2.984375 0.375,-2.984375 c 0,0 0.015625,0.011719 0.046875,0.03125 0.019531,0.023437 0.050781,0.046875 0.09375,0.078125 0.007813,0.011719 0.023437,0.023438 0.046875,0.03125 0.019531,0.011719 0.039062,0.027344 0.0625,0.046875 0.019531,0.023437 0.039062,0.039063 0.0625,0.046875 0.03125,0.011719 0.054688,0.027344 0.078125,0.046875 0.019531,0.011719 0.046875,0.027344 0.078125,0.046875 0.019531,0.011719 0.039062,0.023438 0.0625,0.03125 0.019531,0 0.039062,0.011719 0.0625,0.03125 0.007812,0 0.015625,0 0.015625,0 0,0 0.003906,0.00781 0.015625,0.015625 0.00781,0 0.019531,0 0.03125,0 0.00781,0 0.019531,0 0.03125,0 0.00781,0 0.015625,0.00781 0.015625,0.015625 0.00781,0 0.015625,0 0.015625,0 0.03125,0.011719 0.046875,0.015625 0.046875,0.015625 0.03125,0.011719 0.054687,0.015625 0.078125,0.015625 0.00781,0.011719 0.023438,0.023438 0.046875,0.03125 0.03125,0 0.054687,0 0.078125,0 0.00781,0.011719 0.019531,0.015625 0.03125,0.015625 0.00781,0 0.019531,0.00781 0.03125,0.015625 0.019531,0 0.050781,0.00781 0.09375,0.015625 0.00781,0 0.015625,0 0.015625,0 0.00781,0.011719 0.019531,0.015625 0.03125,0.015625 0.00781,0 0.019531,0 0.03125,0 H 1.625 c 0.00781,0 0.03125,0.011719 0.0625,0.03125 h 0.015625 c 0.019531,0.011719 0.035156,0.015625 0.046875,0.015625 0.019531,0 0.039062,0 0.0625,0 h 0.03125 c 0,0.011719 0.00391,0.015625 0.015625,0.015625 H 1.90625 c 0.00781,0 0.019531,0.00781 0.03125,0.015625 0.019531,0 0.035156,0 0.046875,0 0.00781,0 0.015625,0 0.015625,0 z m 4.234375,-0.875 c 0,0 -0.011719,0 -0.03125,0 -0.023437,0.011719 -0.0625,0.027344 -0.125,0.046875 C 6.066406,-3.175781 6.050781,-3.171875 6.03125,-3.171875 6.019531,-3.160156 6.003906,-3.144531 5.984375,-3.125 5.972656,-3.113281 5.960938,-3.109375 5.953125,-3.109375 H 5.9375 c -0.011719,0 -0.023438,0.00781 -0.03125,0.015625 -0.011719,0 -0.023438,0 -0.03125,0 H 5.796875 c -0.011719,0 -0.027344,0.011719 -0.046875,0.03125 -0.011719,0.011719 -0.027344,0.023438 -0.046875,0.03125 -0.011719,0 -0.023437,0.011719 -0.03125,0.03125 -0.042969,0.023438 -0.074219,0.054688 -0.09375,0.09375 -0.023437,0.011719 -0.03125,0.023438 -0.03125,0.03125 0,0.011719 0,0.023438 0,0.03125 0,0.011719 -0.00781,0.023438 -0.015625,0.03125 v 0.03125 c 0.00781,0.011719 0.023438,0.039062 0.046875,0.078125 0,0 0,0.00781 0,0.015625 0,0 0.00391,0 0.015625,0 0.00781,0.023438 0.015625,0.039062 0.015625,0.046875 0,0 0.00781,0.00781 0.03125,0.015625 0,0 0,0.00781 0,0.015625 0,0.011719 0,0.015625 0,0.015625 0.00781,0.011719 0.015625,0.023438 0.015625,0.03125 0,0 0,0.011719 0,0.03125 0,0 0.00391,0.023438 0.015625,0.0625 0.019531,0.023438 0.03125,0.046875 0.03125,0.078125 0.00781,0.023437 0.019531,0.042969 0.03125,0.0625 0,0 0,0.00781 0,0.015625 0,0.011719 0,0.015625 0,0.015625 v 0.078125 c 0,0.011719 0,0.015625 0,0.015625 0.00781,0 0.015625,0.00781 0.015625,0.015625 0,0.011719 0.00391,0.015625 0.015625,0.015625 0,0.011719 0,0.023437 0,0.03125 0.00781,0.011719 0.015625,0.023437 0.015625,0.03125 0.00781,0.011719 0.019531,0.039063 0.03125,0.078125 0,0.011719 0,0.023438 0,0.03125 0.00781,0.011719 0.015625,0.023438 0.015625,0.03125 0,0.023438 0,0.039062 0,0.046875 v 0.015625 c 0,0.03125 0.00391,0.054688 0.015625,0.0625 0,0.03125 0,0.058594 0,0.078125 H 5.859375 C 5.867188,-1.722656 5.875,-1.695312 5.875,-1.6875 c 0.00781,0.023438 0.015625,0.042969 0.015625,0.0625 0.00781,0.011719 0.015625,0.027344 0.015625,0.046875 V -1.5 c 0,0 0,0.011719 0,0.03125 0,0.023438 0.00781,0.042969 0.03125,0.0625 v 0.140625 c 0.00781,0.0625 0.019531,0.105469 0.03125,0.125 v 0.046875 c 0.019531,0.023438 0.023438,0.042969 0.015625,0.0625 v 0.015625 c 0,0.03125 0,0.054687 0,0.0625 0,0 0.00391,0.011719 0.015625,0.03125 0,0.011719 0,0.023437 0,0.03125 0.00781,0.011719 0.015625,0.03125 0.015625,0.0625 0,0.011719 -0.00781,0.023437 -0.015625,0.03125 v 0.078125 c 0,0.054688 0,0.105469 0,0.15625 v 0.09375 c 0.00781,0.023438 0.00781,0.042969 0,0.0625 v 0.4375 C 6,0.0390625 5.992188,0.0507812 5.984375,0.0625 5.972656,0.0703125 5.960938,0.078125 5.953125,0.078125 c 0,0.0078125 -0.00781,0.0195312 -0.015625,0.03125 -0.023438,0 -0.039062,0.007813 -0.046875,0.03125 0,0 -0.00781,0 -0.015625,0 0,0.007813 -0.00781,0.019531 -0.015625,0.03125 C 5.847656,0.191406 5.835938,0.203125 5.828125,0.203125 5.816406,0.210938 5.796875,0.226562 5.765625,0.25 5.742188,0.257812 5.734375,0.269531 5.734375,0.28125 c -0.011719,0 -0.023437,0.015625 -0.03125,0.046875 -0.023437,0.019531 -0.03125,0.03125 -0.03125,0.03125 0,0 -0.011719,0.007813 -0.03125,0.03125 C 5.617188,0.398438 5.585938,0.425781 5.546875,0.46875 5.535156,0.476562 5.523438,0.484375 5.515625,0.484375 c 0,0.007813 0,0.019531 0,0.03125 -0.011719,0 -0.023437,0.003906 -0.03125,0.015625 0,0.007812 0,0.015625 0,0.015625 -0.03125,0.019531 -0.058594,0.050781 -0.078125,0.09375 0,0 -0.00781,0.003906 -0.015625,0.015625 0,0.007812 -0.00781,0.015625 -0.015625,0.015625 C 5.363281,0.679688 5.347656,0.695312 5.328125,0.71875 L 5.28125,0.765625 5.21875,0.8125 C 5.207031,0.820312 5.195312,0.828125 5.1875,0.828125 5.175781,0.835938 5.164062,0.847656 5.15625,0.859375 c 0,0 -0.00781,0.003906 -0.015625,0.015625 C 5.128906,0.90625 5.117188,0.925781 5.109375,0.9375 5.085938,0.957031 5.070312,0.972656 5.0625,0.984375 5.03125,1.003906 5.015625,1.015625 5.015625,1.015625 c 0,0 -0.011719,0.00781 -0.03125,0.03125 C 4.960938,1.078125 4.945312,1.09375 4.9375,1.09375 c 0,0 -0.015625,0.015625 -0.046875,0.046875 V 1.15625 c -0.011719,0 -0.023437,0 -0.03125,0 0,0.00781 -0.00781,0.023438 -0.015625,0.046875 L 4.8125,1.21875 C 4.8125,1.226562 4.800781,1.238281 4.78125,1.25 4.769531,1.257812 4.757812,1.269531 4.75,1.28125 4.738281,1.289062 4.726562,1.296875 4.71875,1.296875 c 0,0 0,0.00391 0,0.015625 C 4.695312,1.332031 4.679688,1.347656 4.671875,1.359375 4.648438,1.378906 4.628906,1.394531 4.609375,1.40625 c 0,0.00781 -0.00781,0.015625 -0.015625,0.015625 0,0.00781 -0.00781,0.019531 -0.015625,0.03125 L 4.546875,1.46875 c -0.023437,0.019531 -0.03125,0.035156 -0.03125,0.046875 -0.03125,0.03125 -0.054687,0.050781 -0.0625,0.0625 -0.03125,0.039063 -0.0625,0.070313 -0.09375,0.09375 L 4.34375,1.6875 C 4.320312,1.695312 4.3125,1.703125 4.3125,1.703125 c 0,0.00781 -0.00781,0.019531 -0.015625,0.03125 C 4.265625,1.742188 4.25,1.753906 4.25,1.765625 L 4.21875,1.796875 4.140625,1.90625 C 4.128906,1.914062 4.125,1.925781 4.125,1.9375 4.113281,1.9375 4.109375,1.94141 4.109375,1.953125 H 4.09375 C 4.082031,1.941406 4.070312,1.9375 4.0625,1.9375 c 0,0 -0.00781,-0.00781 -0.015625,-0.015625 V 1.90625 C 4.015625,1.875 3.988281,1.847656 3.96875,1.828125 3.945312,1.804688 3.925781,1.78125 3.90625,1.75 L 3.875,1.734375 C 3.84375,1.722656 3.820312,1.707031 3.8125,1.6875 3.78125,1.664062 3.757812,1.644531 3.75,1.625 c 0,0 -0.00781,0 -0.015625,0 L 3.65625,1.515625 3.546875,1.40625 C 3.535156,1.394531 3.523438,1.382812 3.515625,1.375 3.484375,1.351562 3.460938,1.335938 3.453125,1.328125 3.441406,1.316406 3.429688,1.304688 3.421875,1.296875 c 0,0 -0.00781,-0.00781 -0.015625,-0.015625 0,-0.011719 -0.00781,-0.027344 -0.015625,-0.046875 C 3.359375,1.222656 3.332031,1.207031 3.3125,1.1875 3.300781,1.164062 3.285156,1.148438 3.265625,1.140625 3.242188,1.109375 3.226562,1.085938 3.21875,1.078125 L 3.171875,1.03125 c 0,0 -0.00781,-0.00781 -0.015625,-0.015625 0,0 -0.00781,-0.00781 -0.015625,-0.015625 C 3.128906,0.988281 3.117188,0.984375 3.109375,0.984375 c 0,0 -0.00781,-0.007813 -0.015625,-0.015625 0,-0.011719 -0.00781,-0.015625 -0.015625,-0.015625 0,0 -0.00781,-0.007813 -0.015625,-0.015625 0,-0.011719 -0.00781,-0.023438 -0.015625,-0.03125 0,0 -0.00781,-0.007812 -0.015625,-0.015625 L 3,0.859375 c -0.011719,0 -0.023438,-0.007813 -0.03125,-0.015625 0,0 -0.00781,-0.007812 -0.015625,-0.015625 C 2.941406,0.816406 2.925781,0.804688 2.90625,0.796875 2.894531,0.785156 2.882812,0.773438 2.875,0.765625 2.875,0.753906 2.867188,0.742188 2.859375,0.734375 2.828125,0.703125 2.8125,0.679688 2.8125,0.671875 2.800781,0.660156 2.785156,0.648438 2.765625,0.640625 c 0,-0.011719 -0.011719,-0.023437 -0.03125,-0.03125 -0.011719,-0.011719 -0.023437,-0.023437 -0.03125,-0.03125 0,0 -0.00781,0 -0.015625,0 0,-0.011719 -0.00781,-0.023437 -0.015625,-0.03125 -0.011719,0 -0.015625,-0.011719 -0.015625,-0.03125 L 2.625,0.5 c 0,0 0,-0.007812 0,-0.015625 0,0 -0.00781,0 -0.015625,0 -0.023437,-0.023437 -0.03125,-0.03125 -0.03125,-0.03125 0,0 -0.00781,-0.011719 -0.015625,-0.03125 L 2.53125,0.375 2.5,0.34375 C 2.488281,0.332031 2.476562,0.320312 2.46875,0.3125 2.457031,0.3125 2.445312,0.304688 2.4375,0.296875 2.414062,0.285156 2.398438,0.273438 2.390625,0.265625 L 2.34375,0.203125 C 2.332031,0.191406 2.320312,0.179688 2.3125,0.171875 c 0,0 -0.00781,-0.007813 -0.015625,-0.015625 0,-0.011719 -0.00781,-0.027344 -0.015625,-0.046875 -0.011719,0 -0.015625,-0.007813 -0.015625,-0.015625 V 0.078125 c 0,0 0,-0.0078125 0,-0.015625 0,-0.0117188 0,-0.015625 0,-0.015625 0,-0.05078125 -0.00781,-0.0859375 -0.015625,-0.109375 -0.011719,-0.0195312 -0.015625,-0.050781 -0.015625,-0.09375 0,-0.019531 0,-0.03125 0,-0.03125 0,-0.007812 0,-0.019531 0,-0.03125 0,-0.007812 0,-0.015625 0,-0.015625 0,-0.007813 0,-0.019531 0,-0.03125 V -0.34375 c 0,-0.007812 0,-0.023438 0,-0.046875 -0.011719,-0.019531 -0.015625,-0.039063 -0.015625,-0.0625 0,-0.019531 -0.00781,-0.039063 -0.015625,-0.0625 v -0.0625 c 0,-0.019531 0,-0.035156 0,-0.046875 C 2.210935,-0.644531 2.21875,-0.664062 2.21875,-0.6875 2.22656,-0.71875 2.234375,-0.75 2.234375,-0.78125 v -0.015625 c 0,-0.007813 0,-0.035156 0,-0.078125 0,-0.019531 0,-0.039062 0,-0.0625 v -0.140625 c 0,-0.00781 0.00781,-0.039063 0.03125,-0.09375 0,-0.00781 0,-0.019531 0,-0.03125 0,-0.00781 0.00391,-0.019531 0.015625,-0.03125 v -0.15625 c 0,-0.00781 0,-0.019531 0,-0.03125 0,-0.00781 0.00391,-0.019531 0.015625,-0.03125 0,-0.00781 0,-0.019531 0,-0.03125 0.019531,-0.03125 0.03125,-0.0625 0.03125,-0.09375 C 2.335938,-1.609375 2.34375,-1.632812 2.34375,-1.65625 2.351562,-1.675781 2.363281,-1.707031 2.375,-1.75 c 0.00781,-0.00781 0.015625,-0.019531 0.015625,-0.03125 0,-0.00781 -0.00781,-0.015625 -0.015625,-0.015625 0,-0.00781 0,-0.023437 0,-0.046875 v -0.046875 c 0.00781,-0.00781 0.015625,-0.015625 0.015625,-0.015625 0,0 0,-0.00391 0,-0.015625 0.00781,-0.019531 0.019531,-0.035156 0.03125,-0.046875 V -1.984375 C 2.421875,-1.992188 2.425781,-2 2.4375,-2 v -0.046875 c 0,-0.019531 0.00391,-0.039063 0.015625,-0.0625 0,0 0,-0.00391 0,-0.015625 l 0.0625,-0.140625 c 0,0 0,-0.00391 0,-0.015625 0,-0.039062 0.00391,-0.066406 0.015625,-0.078125 0,-0.019531 0,-0.035156 0,-0.046875 0.019531,-0.019531 0.035156,-0.035156 0.046875,-0.046875 0,0 0,-0.00391 0,-0.015625 V -2.5 c 0,-0.019531 0.00391,-0.03125 0.015625,-0.03125 v -0.046875 c 0,-0.00781 0,-0.015625 0,-0.015625 C 2.601562,-2.601562 2.613281,-2.613281 2.625,-2.625 2.644531,-2.675781 2.660156,-2.71875 2.671875,-2.75 2.691406,-2.757812 2.703125,-2.78125 2.703125,-2.8125 2.710938,-2.84375 2.71875,-2.867188 2.71875,-2.890625 2.726562,-2.910156 2.738281,-2.9375 2.75,-2.96875 c 0,0 0.00391,-0.00391 0.015625,-0.015625 0.00781,-0.03125 0.019531,-0.050781 0.03125,-0.0625 0,-0.00781 0.00391,-0.015625 0.015625,-0.015625 L 2.796875,-3.078125 C 2.765625,-3.109375 2.738281,-3.132812 2.71875,-3.15625 2.695312,-3.175781 2.675781,-3.203125 2.65625,-3.234375 2.644531,-3.242188 2.632812,-3.25 2.625,-3.25 v -0.015625 c -0.03125,0 -0.058594,0 -0.078125,0 -0.023437,-0.00781 -0.042969,-0.019531 -0.0625,-0.03125 -0.011719,0 -0.023437,0 -0.03125,0 -0.011719,-0.00781 -0.023437,-0.019531 -0.03125,-0.03125 -0.011719,0 -0.015625,0 -0.015625,0 C 2.363281,-3.347656 2.335938,-3.363281 2.328125,-3.375 c -0.011719,0 -0.015625,0 -0.015625,0 0,-0.00781 -0.00781,-0.015625 -0.015625,-0.015625 -0.011719,-0.00781 -0.023437,-0.015625 -0.03125,-0.015625 0,0 -0.00781,-0.00391 -0.015625,-0.015625 C 2.226562,-3.429688 2.207031,-3.441406 2.1875,-3.453125 2.175781,-3.460938 2.164062,-3.472656 2.15625,-3.484375 2.132812,-3.503906 2.109375,-3.53125 2.078125,-3.5625 l -0.03125,-0.03125 c -0.011719,0 -0.023437,0 -0.03125,0 -0.011719,0 -0.023437,-0.00391 -0.03125,-0.015625 H 1.96875 C 1.957031,-3.617188 1.945312,-3.625 1.9375,-3.625 c 0,0 -0.00781,-0.00391 -0.015625,-0.015625 -0.023437,-0.00781 -0.039063,-0.019531 -0.046875,-0.03125 -0.011719,0 -0.015625,0 -0.015625,0 0,-0.00781 0,-0.015625 0,-0.015625 C 1.847656,-3.695312 1.84375,-3.703125 1.84375,-3.703125 1.820312,-3.722656 1.796875,-3.75 1.765625,-3.78125 1.753906,-3.800781 1.738281,-3.820312 1.71875,-3.84375 1.695312,-3.863281 1.679688,-3.890625 1.671875,-3.921875 L 1.640625,-3.9375 C 1.597656,-3.96875 1.578125,-3.984375 1.578125,-3.984375 1.566406,-3.992188 1.5625,-4 1.5625,-4 c 0,0 -0.00781,0 -0.015625,0 C 1.535156,-4.019531 1.519531,-4.039062 1.5,-4.0625 L 1.46875,-4.09375 C 1.457031,-4.101562 1.445312,-4.109375 1.4375,-4.109375 1.4375,-4.117188 1.429688,-4.125 1.421875,-4.125 1.410156,-4.125 1.398438,-4.132812 1.390625,-4.15625 1.378906,-4.164062 1.375,-4.171875 1.375,-4.171875 c 0,-0.00781 -0.011719,-0.019531 -0.03125,-0.03125 0,-0.00781 -0.011719,-0.023437 -0.03125,-0.046875 -0.023438,-0.03125 -0.03125,-0.046875 -0.03125,-0.046875 0,0 -0.015625,-0.00391 -0.046875,-0.015625 C 1.210938,-4.332031 1.191406,-4.347656 1.171875,-4.359375 1.148438,-4.378906 1.128906,-4.394531 1.109375,-4.40625 1.097656,-4.414062 1.082031,-4.425781 1.0625,-4.4375 1.050781,-4.445312 1.039062,-4.457031 1.03125,-4.46875 c 0,0 -0.00781,0 -0.015625,0 0,0 0,-0.00391 0,-0.015625 -0.011719,-0.00781 -0.023437,-0.019531 -0.03125,-0.03125 0,-0.00781 -0.007813,-0.019531 -0.015625,-0.03125 -0.011719,0 -0.015625,-0.00781 -0.015625,-0.03125 -0.011719,-0.019531 -0.023437,-0.039063 -0.03125,-0.0625 0,-0.03125 -0.007813,-0.0625 -0.015625,-0.09375 0,0 0,-0.00391 0,-0.015625 v -0.046875 c 0.007812,-0.019531 0.015625,-0.039063 0.015625,-0.0625 0,-0.019531 0.003906,-0.046875 0.015625,-0.078125 0,-0.00781 0.003906,-0.019531 0.015625,-0.03125 0,-0.00781 0.003906,-0.015625 0.015625,-0.015625 l 0.015625,-0.0625 c 0.019531,-0.00781 0.039063,-0.019531 0.0625,-0.03125 0,0 0.00391,0 0.015625,0 0.00781,-0.00781 0.019531,-0.015625 0.03125,-0.015625 0.00781,-0.00781 0.03125,-0.015625 0.0625,-0.015625 0,0 0.00391,0 0.015625,0 0.03125,-0.00781 0.050781,-0.015625 0.0625,-0.015625 0,-0.00781 0.00781,-0.015625 0.03125,-0.015625 0.019531,0 0.035156,0.00781 0.046875,0.015625 0.019531,0 0.039062,0.00781 0.0625,0.015625 0.019531,0 0.046875,0.00781 0.078125,0.015625 H 1.46875 c 0,0.011719 0,0.015625 0,0.015625 0.00781,0 0.019531,0 0.03125,0 0.00781,0.011719 0.019531,0.023437 0.03125,0.03125 0.00781,0.011719 0.019531,0.023437 0.03125,0.03125 0.00781,0.023437 0.023438,0.046875 0.046875,0.078125 0,0.011719 0,0.023438 0,0.03125 0.00781,0.023438 0.019531,0.046875 0.03125,0.078125 v 0.0625 c 0,0 -0.00781,0.00781 -0.015625,0.015625 0,0.03125 0,0.046875 0,0.046875 0,0 0.00391,0.011719 0.015625,0.03125 L 1.6875,-4.625 c 0,0.011719 0.00391,0.023438 0.015625,0.03125 0.019531,0.011719 0.050781,0.03125 0.09375,0.0625 0.00781,0.011719 0.019531,0.023438 0.03125,0.03125 0.019531,0 0.035156,0.00781 0.046875,0.015625 0.03125,0.011719 0.0625,0.027344 0.09375,0.046875 0.03125,0.011719 0.0625,0.023438 0.09375,0.03125 0.019531,0.011719 0.03125,0.015625 0.03125,0.015625 l 0.046875,0.046875 c 0.00781,0 0.015625,0 0.015625,0 0,0 0.00391,0.00781 0.015625,0.015625 0,0.011719 0.00391,0.015625 0.015625,0.015625 l 0.25,0.046875 C 2.445312,-4.253906 2.453125,-4.25 2.453125,-4.25 c 0.00781,0 0.019531,0 0.03125,0 0.00781,0 0.019531,0.00781 0.03125,0.015625 0.019531,0 0.035156,0 0.046875,0 H 2.625 c 0.00781,0 0.015625,0 0.015625,0 0.019531,0.011719 0.035156,0.023437 0.046875,0.03125 0.019531,0 0.035156,0.00781 0.046875,0.015625 0.00781,0.011719 0.015625,0.015625 0.015625,0.015625 0.019531,0.011719 0.039062,0.027344 0.0625,0.046875 0.00781,0.011719 0.015625,0.023438 0.015625,0.03125 0.019531,0.011719 0.03125,0.023438 0.03125,0.03125 0,0.011719 0.00391,0.023438 0.015625,0.03125 0,0.011719 0.00391,0.023438 0.015625,0.03125 0.03125,0.023438 0.046875,0.039062 0.046875,0.046875 0.019531,0.011719 0.03125,0.015625 0.03125,0.015625 0,0.011719 0.00391,0.015625 0.015625,0.015625 l 0.125,0.125 c 0.00781,0 0.019531,0.00781 0.03125,0.015625 L 3.25,-3.703125 c 0,0.011719 0.00391,0.015625 0.015625,0.015625 l 0.015625,0.03125 c 0.00781,0 0.019531,0.00781 0.03125,0.015625 0.00781,0 0.019531,0.00781 0.03125,0.015625 l 0.0625,0.046875 c 0,0 0,0.00781 0,0.015625 0.00781,0 0.015625,0 0.015625,0 0.03125,0.023438 0.050781,0.03125 0.0625,0.03125 0.00781,0 0.019531,0.00781 0.03125,0.015625 0.00781,0.011719 0.019531,0.023437 0.03125,0.03125 0.00781,0 0.019531,0.00781 0.03125,0.015625 0.00781,0.011719 0.015625,0.011719 0.015625,0 0,0 0,-0.00391 0,-0.015625 0.00781,0 0.015625,0 0.015625,0 C 3.597656,-3.484375 3.59375,-3.488281 3.59375,-3.5 3.582031,-3.519531 3.570312,-3.535156 3.5625,-3.546875 3.550781,-3.566406 3.539062,-3.582031 3.53125,-3.59375 L 3.5,-3.625 C 3.476562,-3.644531 3.46875,-3.660156 3.46875,-3.671875 3.457031,-3.679688 3.453125,-3.691406 3.453125,-3.703125 c 0,-0.00781 -0.011719,-0.019531 -0.03125,-0.03125 0,0 -0.00781,-0.00391 -0.015625,-0.015625 C 3.394531,-3.757812 3.382812,-3.765625 3.375,-3.765625 3.363281,-3.773438 3.351562,-3.78125 3.34375,-3.78125 c 0,-0.00781 -0.00781,-0.015625 -0.015625,-0.015625 0,-0.00781 -0.00781,-0.019531 -0.015625,-0.03125 C 3.289062,-3.847656 3.269531,-3.863281 3.25,-3.875 3.238281,-3.894531 3.226562,-3.914062 3.21875,-3.9375 3.195312,-3.945312 3.179688,-3.957031 3.171875,-3.96875 3.171875,-3.976562 3.164062,-3.988281 3.15625,-4 3.125,-4.03125 3.109375,-4.046875 3.109375,-4.046875 c 0,0 -0.00781,-0.015625 -0.015625,-0.046875 C 3.070312,-4.113281 3.0625,-4.125 3.0625,-4.125 c 0,0 -0.011719,-0.00781 -0.03125,-0.03125 0,-0.00781 -0.00781,-0.015625 -0.015625,-0.015625 0,-0.00781 -0.00781,-0.019531 -0.015625,-0.03125 -0.011719,-0.00781 -0.015625,-0.015625 -0.015625,-0.015625 0,-0.00781 0,-0.019531 0,-0.03125 L 2.953125,-4.296875 C 2.941406,-4.328125 2.929688,-4.351562 2.921875,-4.375 2.910156,-4.394531 2.898438,-4.414062 2.890625,-4.4375 l -0.03125,-0.046875 c 0,-0.019531 0,-0.035156 0,-0.046875 0,-0.00781 -0.011719,-0.03125 -0.03125,-0.0625 -0.023437,-0.039062 -0.042969,-0.078125 -0.0625,-0.109375 -0.011719,-0.039063 -0.03125,-0.082031 -0.0625,-0.125 V -4.84375 c 0,0 0,-0.00391 0,-0.015625 v -0.03125 c 0,-0.039063 0,-0.078125 0,-0.109375 0,-0.039062 0,-0.082031 0,-0.125 v -0.046875 c 0,-0.00781 0,-0.03125 0,-0.0625 V -5.25 c 0,-0.00781 -0.00781,-0.015625 -0.015625,-0.015625 0,-0.00781 -0.00781,-0.015625 -0.015625,-0.015625 0,-0.00781 -0.00781,-0.015625 -0.015625,-0.015625 0,0 -0.00781,-0.015625 -0.015625,-0.046875 C 2.628906,-5.351562 2.625,-5.359375 2.625,-5.359375 c 0,-0.00781 0,-0.019531 0,-0.03125 -0.011719,-0.00781 -0.015625,-0.015625 -0.015625,-0.015625 0,0 -0.00781,-0.00391 -0.015625,-0.015625 -0.011719,-0.00781 -0.023438,-0.023437 -0.03125,-0.046875 0,0 -0.00781,0 -0.015625,0 V -5.484375 C 2.535156,-5.503906 2.53125,-5.523438 2.53125,-5.546875 c 0,-0.00781 0,-0.023437 0,-0.046875 v -0.046875 c 0,-0.019531 -0.00781,-0.039063 -0.015625,-0.0625 V -5.71875 c 0,-0.019531 0,-0.03125 0,-0.03125 0,-0.00781 0.00391,-0.019531 0.015625,-0.03125 0.019531,-0.039062 0.050781,-0.082031 0.09375,-0.125 0,0 0,-0.00391 0,-0.015625 C 2.644531,-5.953125 2.664062,-5.976562 2.6875,-6 c 0,0 0.00391,0 0.015625,0 v -0.015625 l 0.1875,-0.046875 h 0.03125 c 0.019531,0 0.046875,0.011719 0.078125,0.03125 0.00781,0 0.019531,0.00781 0.03125,0.015625 0.019531,0.011719 0.039062,0.027344 0.0625,0.046875 0.00781,0 0.019531,0.00781 0.03125,0.015625 0.03125,0.03125 0.046875,0.054687 0.046875,0.0625 0.00781,0.011719 0.03125,0.039063 0.0625,0.078125 0,0.011719 0,0.023438 0,0.03125 v 0.125 C 3.222656,-5.625 3.21875,-5.59375 3.21875,-5.5625 c 0,0.03125 -0.011719,0.0625 -0.03125,0.09375 0,0.023438 -0.00781,0.042969 -0.015625,0.0625 0,0.011719 0,0.023438 0,0.03125 0.00781,0.011719 0.019531,0.023438 0.03125,0.03125 0.019531,0.023438 0.050781,0.058594 0.09375,0.109375 0,0 0.00391,0.00781 0.015625,0.015625 0.00781,0.011719 0.015625,0.027344 0.015625,0.046875 0.00781,0.011719 0.015625,0.027344 0.015625,0.046875 0,0 0,0.00781 0,0.015625 0.00781,0 0.015625,0 0.015625,0 0,0.023437 0,0.03125 0,0.03125 0,0 0.00391,0.00781 0.015625,0.015625 0.00781,0.042969 0.019531,0.074219 0.03125,0.09375 v 0.015625 c 0.03125,0.042969 0.050781,0.078125 0.0625,0.109375 0,0.011719 0,0.015625 0,0.015625 0,0 0,0.00781 0,0.015625 0.00781,0 0.015625,0.00781 0.015625,0.015625 0,0 0.00781,0.00781 0.03125,0.015625 L 3.5625,-4.75 c 0.00781,0.011719 0.015625,0.023438 0.015625,0.03125 0.00781,0.011719 0.015625,0.023438 0.015625,0.03125 0.00781,0 0.019531,0.00781 0.03125,0.015625 0.00781,0.011719 0.015625,0.023437 0.015625,0.03125 0,0 0.00391,0 0.015625,0 l 0.0625,0.0625 C 3.72656,-4.554688 3.734375,-4.539062 3.734375,-4.53125 3.742188,-4.519531 3.75,-4.507812 3.75,-4.5 c 0,0.011719 0.00391,0.023438 0.015625,0.03125 0.03125,0.023438 0.050781,0.039062 0.0625,0.046875 0.00781,0 0.03125,0.011719 0.0625,0.03125 0.00781,0.011719 0.023437,0.027344 0.046875,0.046875 0.019531,0.011719 0.035156,0.027344 0.046875,0.046875 0.019531,0.011719 0.046875,0.023437 0.078125,0.03125 0.00781,0.011719 0.023438,0.023437 0.046875,0.03125 l 0.0625,0.03125 c 0.019531,0.011719 0.035156,0.015625 0.046875,0.015625 0.019531,0.011719 0.039062,0.023438 0.0625,0.03125 H 4.3125 c 0.039062,0 0.070312,-0.00391 0.09375,-0.015625 h 0.015625 c 0.019531,0 0.03125,0 0.03125,0 C 4.472656,-4.179688 4.5,-4.191406 4.53125,-4.203125 l 0.046875,-0.03125 C 4.585938,-4.253906 4.597656,-4.269531 4.609375,-4.28125 4.617188,-4.300781 4.625,-4.3125 4.625,-4.3125 c 0.00781,0 0.023438,-0.00391 0.046875,-0.015625 0.00781,-0.00781 0.015625,-0.015625 0.015625,-0.015625 0.00781,0 0.015625,0 0.015625,0 0.00781,0 0.019531,-0.00391 0.03125,-0.015625 0.019531,-0.03125 0.039063,-0.054687 0.0625,-0.078125 C 4.816406,-4.457031 4.832031,-4.484375 4.84375,-4.515625 4.863281,-4.523435 4.875,-4.535156 4.875,-4.546875 4.88281,-4.566406 4.890625,-4.582031 4.890625,-4.59375 4.898435,-4.60156 4.90625,-4.609375 4.90625,-4.609375 c 0.00781,0 0.019531,-0.00391 0.03125,-0.015625 C 4.94531,-4.63281 4.957031,-4.640625 4.96875,-4.640625 4.976562,-4.648438 4.988281,-4.65625 5,-4.65625 c 0.00781,0 0.015625,-0.00781 0.015625,-0.03125 0,-0.00781 0.00391,-0.015625 0.015625,-0.015625 0.00781,0 0.015625,-0.00391 0.015625,-0.015625 C 5.054688,-4.738281 5.0625,-4.75 5.0625,-4.75 5.070312,-4.757812 5.078125,-4.769531 5.078125,-4.78125 5.109375,-4.800781 5.125,-4.816406 5.125,-4.828125 c 0.00781,-0.00781 0.015625,-0.019531 0.015625,-0.03125 0.00781,-0.00781 0.019531,-0.019531 0.03125,-0.03125 0.00781,-0.039063 0.015625,-0.0625 0.015625,-0.0625 C 5.19531,-4.992188 5.203125,-5.019531 5.203125,-5.03125 5.222656,-5.0625 5.238281,-5.082031 5.25,-5.09375 c 0,0 0,-0.00391 0,-0.015625 0.019531,-0.019531 0.03125,-0.03125 0.03125,-0.03125 V -5.15625 c 0.00781,-0.019531 0.015625,-0.039062 0.015625,-0.0625 0.00781,-0.03125 0.023437,-0.054688 0.046875,-0.078125 0,-0.00781 0,-0.019531 0,-0.03125 0,-0.00781 0,-0.019531 0,-0.03125 0.00781,-0.03125 0.015625,-0.050781 0.015625,-0.0625 C 5.367188,-5.429688 5.375,-5.445312 5.375,-5.46875 c 0,-0.00781 0,-0.019531 0,-0.03125 0,-0.019531 0,-0.035156 0,-0.046875 0,-0.00781 0,-0.015625 0,-0.015625 C 5.38281,-5.57031 5.390625,-5.582031 5.390625,-5.59375 5.398438,-5.625 5.40625,-5.644531 5.40625,-5.65625 V -5.671875 C 5.40625,-5.691406 5.394531,-5.707031 5.375,-5.71875 5.363281,-5.726562 5.351562,-5.738281 5.34375,-5.75 c 0,-0.00781 0,-0.019531 0,-0.03125 C 5.320312,-5.8125 5.300781,-5.84375 5.28125,-5.875 5.269531,-5.882812 5.265625,-5.890625 5.265625,-5.890625 c 0,0 -0.00781,-0.00391 -0.015625,-0.015625 V -6 c 0,0 0,-0.00391 0,-0.015625 V -6.03125 c 0.00781,-0.019531 0.015625,-0.03125 0.015625,-0.03125 0,-0.00781 0.00391,-0.023438 0.015625,-0.046875 0,-0.00781 0,-0.019531 0,-0.03125 0.00781,-0.00781 0.019531,-0.019531 0.03125,-0.03125 L 5.328125,-6.1875 c 0.00781,-0.00781 0.015625,-0.015625 0.015625,-0.015625 0.00781,-0.00781 0.019531,-0.019531 0.03125,-0.03125 0,0 0.00781,-0.00391 0.03125,-0.015625 0.019531,-0.00781 0.039062,-0.019531 0.0625,-0.03125 0.019531,-0.019531 0.039062,-0.035156 0.0625,-0.046875 0.00781,0 0.015625,-0.00391 0.015625,-0.015625 h 0.03125 c 0,0 0.00391,0 0.015625,0 H 5.625 c 0.03125,0 0.0625,-0.00391 0.09375,-0.015625 0.00781,0 0.015625,0 0.015625,0 0,0 0.00781,0 0.03125,0 0.00781,-0.00781 0.015625,-0.00781 0.015625,0 0,0 0.00391,0 0.015625,0 L 5.875,-6.34375 c 0.00781,0 0.015625,0.00781 0.015625,0.015625 0,0 0.00391,0 0.015625,0 0.019531,0.023437 0.046875,0.039063 0.078125,0.046875 0.00781,0.011719 0.019531,0.023438 0.03125,0.03125 0.00781,0.011719 0.019531,0.027344 0.03125,0.046875 H 6.0625 c 0.00781,0.011719 0.015625,0.023437 0.015625,0.03125 0.00781,0.023437 0.015625,0.039063 0.015625,0.046875 0.00781,0.011719 0.015625,0.027344 0.015625,0.046875 v 0.109375 c 0,0.011719 0,0.027344 0,0.046875 0,0.011719 -0.00781,0.023437 -0.015625,0.03125 -0.011719,0.03125 -0.015625,0.054687 -0.015625,0.0625 0,0 -0.00781,0.00781 -0.015625,0.015625 -0.011719,0.011719 -0.023438,0.027344 -0.03125,0.046875 0,0.011719 -0.00781,0.027344 -0.015625,0.046875 0,0 0,0.00781 0,0.015625 0,0.011719 -0.00781,0.015625 -0.015625,0.015625 0,0 0,0.00781 0,0.015625 -0.011719,0.011719 -0.023438,0.023437 -0.03125,0.03125 0,0 -0.00781,0.011719 -0.015625,0.03125 0,0 -0.00781,0 -0.015625,0 -0.023438,0.011719 -0.039062,0.015625 -0.046875,0.015625 0,0.011719 -0.00781,0.015625 -0.015625,0.015625 L 5.859375,-5.5625 v 0.015625 c 0,0.011719 -0.00781,0.023437 -0.015625,0.03125 0,0 0,0.00781 0,0.015625 0,0.011719 0,0.027344 0,0.046875 0,0.011719 0,0.023437 0,0.03125 v 0.078125 c 0,0.023438 0,0.042969 0,0.0625 0,0.023438 -0.00781,0.039062 -0.015625,0.046875 0,0.023437 -0.00781,0.054687 -0.015625,0.09375 0,0.011719 -0.00781,0.023437 -0.015625,0.03125 -0.011719,0.023437 -0.015625,0.039063 -0.015625,0.046875 0,0.011719 -0.00781,0.023438 -0.015625,0.03125 0,0.011719 0,0.015625 0,0.015625 0,0 0,0.00781 0,0.015625 v 0.0625 L 5.734375,-4.75 c 0,0.023438 -0.00781,0.039062 -0.015625,0.046875 0,0 0,0.00781 0,0.015625 L 5.6875,-4.625 c -0.011719,0.023438 -0.023438,0.042969 -0.03125,0.0625 0,0.023438 0,0.039062 0,0.046875 0,0.011719 -0.00781,0.023437 -0.015625,0.03125 -0.023437,0.023437 -0.039063,0.039063 -0.046875,0.046875 -0.011719,0.011719 -0.015625,0.015625 -0.015625,0.015625 0,0 0,0.00781 0,0.015625 0,0 -0.00781,0.00781 -0.015625,0.015625 0,0 -0.00781,0.00781 -0.015625,0.015625 0,0 0,0.00781 0,0.015625 0,0.011719 0,0.023437 0,0.03125 0,0 0,0.00781 0,0.015625 C 5.535156,-4.289062 5.53125,-4.28125 5.53125,-4.28125 5.5,-4.257812 5.476562,-4.242188 5.46875,-4.234375 5.457031,-4.222656 5.453125,-4.21875 5.453125,-4.21875 c 0,0 -0.00781,0.011719 -0.015625,0.03125 l -0.015625,0.046875 c -0.011719,0.011719 -0.015625,0.023437 -0.015625,0.03125 0,0 -0.00781,0.00781 -0.015625,0.015625 -0.03125,0.054688 -0.0625,0.101562 -0.09375,0.140625 L 5.21875,-3.875 c -0.023438,0.011719 -0.03125,0.023438 -0.03125,0.03125 0,0.011719 -0.00781,0.023438 -0.015625,0.03125 0,0.011719 -0.00781,0.023438 -0.015625,0.03125 -0.011719,0.011719 -0.015625,0.023438 -0.015625,0.03125 0,0 -0.00781,0 -0.015625,0 v 0.015625 c -0.011719,0.011719 -0.027344,0.027344 -0.046875,0.046875 0,0.023438 0,0.039062 0,0.046875 0,0.011719 -0.00781,0.027344 -0.015625,0.046875 0,0.011719 0,0.023438 0,0.03125 0,0.011719 0,0.023438 0,0.03125 0.00781,0 0.015625,-0.00391 0.015625,-0.015625 0.03125,-0.019531 0.050781,-0.035156 0.0625,-0.046875 C 5.160156,-3.613281 5.175781,-3.625 5.1875,-3.625 c 0,0 0.00391,-0.00391 0.015625,-0.015625 0.019531,-0.00781 0.03125,-0.015625 0.03125,-0.015625 0.00781,0 0.023437,-0.015625 0.046875,-0.046875 0.019531,-0.00781 0.035156,-0.03125 0.046875,-0.0625 L 5.34375,-3.78125 C 5.351562,-3.800781 5.363281,-3.8125 5.375,-3.8125 c 0.03125,-0.03125 0.046875,-0.046875 0.046875,-0.046875 0.00781,-0.00781 0.03125,-0.019531 0.0625,-0.03125 C 5.503906,-3.898435 5.519531,-3.90625 5.53125,-3.90625 5.550781,-3.91406 5.570312,-3.921875 5.59375,-3.921875 5.625,-3.929685 5.648438,-3.941406 5.671875,-3.953125 5.679685,-3.960935 5.6875,-3.96875 5.6875,-3.96875 c 0.00781,0 0.019531,-0.00391 0.03125,-0.015625 0.03125,0 0.054688,0 0.078125,0 0.019531,-0.00781 0.046875,-0.019531 0.078125,-0.03125 0.019531,-0.019531 0.03125,-0.03125 0.03125,-0.03125 0.00781,0 0.019531,0 0.03125,0 0.00781,-0.00781 0.019531,-0.019531 0.03125,-0.03125 0,-0.00781 0.00781,-0.015625 0.03125,-0.015625 h 0.0625 c 0.00781,0 0.015625,0 0.015625,0 0.00781,0 0.019531,0 0.03125,0 0.019531,-0.00781 0.03125,-0.015625 0.03125,-0.015625 0.019531,-0.00781 0.039063,-0.015625 0.0625,-0.015625 0.03125,-0.00781 0.054687,-0.019531 0.078125,-0.03125 0.00781,0 0.015625,0 0.015625,0 0,0 0.00391,0 0.015625,0 H 6.359375 C 6.367188,-4.164062 6.375,-4.171875 6.375,-4.171875 c 0,0 0.00781,-0.00391 0.03125,-0.015625 0.00781,-0.00781 0.015625,-0.015625 0.015625,-0.015625 0.00781,-0.00781 0.019531,-0.019531 0.03125,-0.03125 0.00781,0 0.015625,0 0.015625,0 0.00781,0 0.019531,0 0.03125,0 C 6.507812,-4.242188 6.519531,-4.25 6.53125,-4.25 c 0.00781,0 0.019531,0 0.03125,0 0.019531,0 0.035156,-0.00391 0.046875,-0.015625 0.019531,-0.00781 0.046875,-0.019531 0.078125,-0.03125 0.00781,0 0.019531,0 0.03125,0 0.00781,-0.00781 0.023438,-0.019531 0.046875,-0.03125 0,-0.00781 0.00781,-0.019531 0.03125,-0.03125 0.03125,-0.00781 0.054687,-0.019531 0.078125,-0.03125 0.019531,-0.00781 0.046875,-0.023437 0.078125,-0.046875 L 7,-4.46875 c 0.039062,-0.00781 0.066406,-0.015625 0.078125,-0.015625 0.00781,0 0.015625,-0.00391 0.015625,-0.015625 0.019531,-0.00781 0.035156,-0.019531 0.046875,-0.03125 0.00781,-0.00781 0.023437,-0.019531 0.046875,-0.03125 0,0 0,-0.00391 0,-0.015625 V -4.625 c 0,-0.039062 0.00391,-0.070312 0.015625,-0.09375 v -0.078125 c 0,-0.00781 0,-0.019531 0,-0.03125 C 7.210938,-4.835938 7.21875,-4.851562 7.21875,-4.875 7.226562,-4.894531 7.238281,-4.910156 7.25,-4.921875 7.269531,-4.960938 7.285156,-4.988281 7.296875,-5 c 0,-0.00781 0,-0.015625 0,-0.015625 0,0 0.00391,-0.00391 0.015625,-0.015625 0.00781,-0.00781 0.019531,-0.015625 0.03125,-0.015625 0.00781,-0.00781 0.019531,-0.019531 0.03125,-0.03125 0.00781,0 0.015625,0 0.015625,0 0,-0.00781 0.00391,-0.015625 0.015625,-0.015625 0.019531,-0.00781 0.039062,-0.015625 0.0625,-0.015625 0.019531,-0.00781 0.039062,-0.015625 0.0625,-0.015625 0.019531,-0.00781 0.039062,-0.015625 0.0625,-0.015625 0,-0.00781 0.00781,-0.015625 0.03125,-0.015625 0.019531,0.011719 0.03125,0.015625 0.03125,0.015625 0.00781,0 0.019531,0 0.03125,0 h 0.015625 c 0.00781,0 0.015625,0.00781 0.015625,0.015625 0,0 0.00391,0 0.015625,0 0.00781,0 0.019531,0.00781 0.03125,0.015625 0.019531,0 0.035156,0.00781 0.046875,0.015625 0.00781,0 0.015625,0.00781 0.015625,0.015625 0,0 0.00391,0 0.015625,0 0.019531,0.03125 0.035156,0.054687 0.046875,0.0625 C 7.898438,-5.003906 7.90625,-5 7.90625,-5 c 0,0 0,0.00781 0,0.015625 0,0 0.00391,0.015625 0.015625,0.046875 0.00781,0.011719 0.015625,0.023438 0.015625,0.03125 0.00781,0.011719 0.019531,0.023438 0.03125,0.03125 0,0.011719 0.00391,0.027344 0.015625,0.046875 C 7.992188,-4.816406 8,-4.8125 8,-4.8125 8,-4.78125 8,-4.753906 8,-4.734375 8,-4.710938 7.99219,-4.6875 7.984375,-4.65625 v 0.015625 c 0,0.023437 0,0.039063 0,0.046875 0,0.011719 0,0.027344 0,0.046875 -0.011719,0.011719 -0.015625,0.015625 -0.015625,0.015625 0,0 0,0.00781 0,0.015625 0,0.023437 -0.00781,0.039063 -0.015625,0.046875 -0.023437,0.023438 -0.039063,0.042969 -0.046875,0.0625 -0.011719,0.023438 -0.023438,0.042969 -0.03125,0.0625 -0.011719,0.011719 -0.015625,0.015625 -0.015625,0.015625 -0.011719,0.011719 -0.023437,0.023437 -0.03125,0.03125 -0.011719,0 -0.023437,0.00781 -0.03125,0.015625 -0.011719,0 -0.015625,0 -0.015625,0 -0.023438,0.011719 -0.042969,0.023438 -0.0625,0.03125 -0.023438,0 -0.03125,0.00781 -0.03125,0.015625 0,0 -0.00781,0 -0.015625,0 H 7.625 c -0.011719,0 -0.015625,0 -0.015625,0 H 7.59375 c -0.023438,0.023437 -0.054688,0.042969 -0.09375,0.0625 -0.011719,0.011719 -0.027344,0.023437 -0.046875,0.03125 -0.011719,0.011719 -0.023437,0.023437 -0.03125,0.03125 l -0.03125,0.03125 c -0.011719,0.023437 -0.023437,0.042969 -0.03125,0.0625 -0.023437,0.011719 -0.039063,0.023437 -0.046875,0.03125 -0.011719,0.011719 -0.023438,0.023437 -0.03125,0.03125 0,0 -0.00781,0.00781 -0.015625,0.015625 C 7.253906,-3.9375 7.25,-3.929688 7.25,-3.921875 L 7.21875,-3.875 c -0.011719,0.011719 -0.023438,0.027344 -0.03125,0.046875 0,0.011719 -0.00781,0.023437 -0.015625,0.03125 -0.011719,0 -0.015625,0.00781 -0.015625,0.015625 -0.011719,0.011719 -0.015625,0.015625 -0.015625,0.015625 0,0 -0.00781,0 -0.015625,0 -0.03125,0.011719 -0.058594,0.023437 -0.078125,0.03125 C 7.023438,-3.722656 7,-3.710938 6.96875,-3.703125 c -0.011719,0 -0.023438,0.00781 -0.03125,0.015625 0,0 -0.011719,0.00781 -0.03125,0.015625 -0.011719,0.011719 -0.023438,0.015625 -0.03125,0.015625 -0.011719,0 -0.023438,0.00781 -0.03125,0.015625 L 6.796875,-3.59375 c -0.011719,0.011719 -0.023437,0.023438 -0.03125,0.03125 -0.011719,0 -0.023437,0.011719 -0.03125,0.03125 C 6.710938,-3.519531 6.691406,-3.507812 6.671875,-3.5 6.648438,-3.488281 6.632812,-3.484375 6.625,-3.484375 l -0.109375,0.0625 c -0.023437,0.011719 -0.03125,0.015625 -0.03125,0.015625 l -0.0625,0.0625 c -0.011719,0.011719 -0.023437,0.015625 -0.03125,0.015625 -0.011719,0 -0.023437,0.00781 -0.03125,0.015625 -0.011719,0 -0.027344,0.011719 -0.046875,0.03125 -0.011719,0 -0.023438,0.00781 -0.03125,0.015625 0,0 -0.00781,0 -0.015625,0 -0.011719,0.023437 -0.023437,0.03125 -0.03125,0.03125 z m 1.78125,0.125 C 8.003906,-3.097656 8,-3.078125 8,-3.046875 7.988281,-3.003906 7.984375,-2.976562 7.984375,-2.96875 7.972656,-2.9375 7.96875,-2.90625 7.96875,-2.875 c 0,0.023438 -0.00781,0.042969 -0.015625,0.0625 0,0.023438 0,0.042969 0,0.0625 0,0.023438 -0.00781,0.042969 -0.015625,0.0625 0,0.023438 -0.00781,0.042969 -0.015625,0.0625 0,0 0,0.00781 0,0.015625 0,0.011719 0,0.023437 0,0.03125 V -2.5625 c 0,0.0625 -0.00781,0.105469 -0.015625,0.125 v 0.03125 c 0,0.03125 0,0.058594 0,0.078125 0,0.023437 -0.00781,0.042969 -0.015625,0.0625 0,0.023437 0,0.046875 0,0.078125 0,0.023438 0,0.042969 0,0.0625 V -2 c 0,0.042969 -0.00781,0.070312 -0.015625,0.078125 V -1.625 c 0.00781,0.03125 0.015625,0.074219 0.015625,0.125 v 0.03125 C 7.878906,-1.445312 7.875,-1.425781 7.875,-1.40625 c 0.00781,0.023438 0.015625,0.042969 0.015625,0.0625 0,0.011719 0,0.023438 0,0.03125 v 0.03125 c 0.00781,0.023438 0.015625,0.058594 0.015625,0.109375 V -1.125 c 0,0.011719 -0.00781,0.015625 -0.015625,0.015625 v 0.015625 c -0.03125,0.011719 -0.046875,0.015625 -0.046875,0.015625 -0.011719,0 -0.023438,0.00781 -0.03125,0.015625 C 7.800781,-1.050781 7.789062,-1.046875 7.78125,-1.046875 7.75,-1.035156 7.722656,-1.019531 7.703125,-1 7.679688,-0.976562 7.664062,-0.960938 7.65625,-0.953125 7.632812,-0.941406 7.617188,-0.929688 7.609375,-0.921875 l -0.125,0.125 c 0,0 -0.00781,0.007813 -0.015625,0.015625 -0.011719,0.011719 -0.023438,0.023438 -0.03125,0.03125 0,0.011719 -0.00781,0.023438 -0.015625,0.03125 -0.011719,0.011719 -0.015625,0.023438 -0.015625,0.03125 0,0 -0.00781,0 -0.015625,0 C 7.378906,-0.65625 7.363281,-0.628906 7.34375,-0.609375 7.332031,-0.585938 7.320312,-0.5625 7.3125,-0.53125 c 0,0 -0.00781,0.011719 -0.015625,0.03125 -0.03125,0.085938 -0.070313,0.167969 -0.109375,0.25 -0.011719,0.03125 -0.015625,0.054688 -0.015625,0.0625 -0.011719,0.03125 -0.023437,0.058594 -0.03125,0.078125 0,0.0234375 -0.00781,0.046875 -0.015625,0.078125 0,0.0117188 0,0.0234375 0,0.03125 0,0.0078125 0,0.0195312 0,0.03125 0,0.0195312 -0.00781,0.0351562 -0.015625,0.046875 0,0.0078125 -0.00781,0.015625 -0.015625,0.015625 0,-0.0117188 0,-0.015625 0,-0.015625 -0.011719,0 -0.015625,-0.0078125 -0.015625,-0.015625 0,-0.0117188 -0.00781,-0.015625 -0.015625,-0.015625 L 6.921875,-0.09375 C 6.910156,-0.101562 6.898438,-0.113281 6.890625,-0.125 6.878906,-0.132812 6.867188,-0.144531 6.859375,-0.15625 6.847656,-0.164062 6.820312,-0.179688 6.78125,-0.203125 6.769531,-0.210938 6.753906,-0.222656 6.734375,-0.234375 6.722656,-0.253906 6.710938,-0.269531 6.703125,-0.28125 6.671875,-0.289062 6.65625,-0.296875 6.65625,-0.296875 c 0,-0.007813 -0.011719,-0.019531 -0.03125,-0.03125 L 6.515625,-0.375 6.46875,-0.40625 C 6.4375,-0.675781 6.40625,-0.914062 6.375,-1.125 6.351562,-1.34375 6.328125,-1.53125 6.296875,-1.6875 6.273438,-1.84375 6.25,-1.972656 6.21875,-2.078125 6.1875,-2.191406 6.160156,-2.28125 6.140625,-2.34375 h 0.03125 C 6.191406,-2.351562 6.21875,-2.359375 6.25,-2.359375 c 0.00781,0 0.019531,0 0.03125,0 0.019531,0 0.035156,-0.00391 0.046875,-0.015625 0.019531,-0.00781 0.039063,-0.015625 0.0625,-0.015625 0.019531,0 0.039063,0 0.0625,0 C 6.472656,-2.398438 6.488281,-2.40625 6.5,-2.40625 c 0.019531,0 0.035156,0 0.046875,0 0.050781,-0.019531 0.09375,-0.03125 0.125,-0.03125 0.00781,-0.00781 0.023437,-0.015625 0.046875,-0.015625 0.019531,0 0.039062,0 0.0625,0 0.03125,-0.00781 0.054688,-0.019531 0.078125,-0.03125 0.019531,0 0.050781,-0.00391 0.09375,-0.015625 0.00781,0 0.015625,0 0.015625,0 0,-0.00781 0.00781,-0.015625 0.03125,-0.015625 0,0 0.00391,0 0.015625,0 0.00781,-0.00781 0.023437,-0.015625 0.046875,-0.015625 0.019531,0 0.035156,-0.00391 0.046875,-0.015625 H 7.125 C 7.13281,-2.554685 7.144531,-2.5625 7.15625,-2.5625 c 0.00781,0 0.019531,-0.00391 0.03125,-0.015625 0.03125,-0.00781 0.070312,-0.019531 0.125,-0.03125 0.019531,-0.00781 0.039062,-0.019531 0.0625,-0.03125 0.019531,-0.00781 0.039062,-0.019531 0.0625,-0.03125 C 7.457031,-2.691406 7.476562,-2.707031 7.5,-2.71875 7.519531,-2.726562 7.535156,-2.738281 7.546875,-2.75 c 0.00781,-0.00781 0.03125,-0.023438 0.0625,-0.046875 0.00781,-0.00781 0.03125,-0.019531 0.0625,-0.03125 0.00781,-0.019531 0.023437,-0.035156 0.046875,-0.046875 0,0 0.00391,-0.00391 0.015625,-0.015625 0.019531,-0.019531 0.046875,-0.039063 0.078125,-0.0625 0.03125,-0.019531 0.054688,-0.039063 0.078125,-0.0625 C 7.910156,-3.035156 7.9375,-3.0625 7.96875,-3.09375 c 0.00781,-0.00781 0.015625,-0.015625 0.015625,-0.015625 0,0 0.00391,-0.00391 0.015625,-0.015625 h 0.015625 z m 0,0"
           id="path18457" />
      </g>
    </g>
  </g>
</svg>
