<?xml version="1.0" encoding="UTF-8" standalone="no"?>
<!-- Created with Inkscape (http://www.inkscape.org/) -->

<svg
   width="23.096022"
   height="24"
   viewBox="0 0 6.1108223 6.35"
   version="1.1"
   id="svg8336"
   inkscape:version="1.2.1 (9c6d41e4, 2022-07-14)"
   sodipodi:docname="beyond_the_threshold.svg"
   xmlns:inkscape="http://www.inkscape.org/namespaces/inkscape"
   xmlns:sodipodi="http://sodipodi.sourceforge.net/DTD/sodipodi-0.dtd"
   xmlns="http://www.w3.org/2000/svg"
   xmlns:svg="http://www.w3.org/2000/svg">
  <sodipodi:namedview
     id="namedview8338"
     pagecolor="#505050"
     bordercolor="#eeeeee"
     borderopacity="1"
     inkscape:showpageshadow="0"
     inkscape:pageopacity="0"
     inkscape:pagecheckerboard="0"
     inkscape:deskcolor="#505050"
     inkscape:document-units="mm"
     showgrid="false"
     inkscape:zoom="0.70199214"
     inkscape:cx="165.24401"
     inkscape:cy="220.80019"
     inkscape:window-width="1390"
     inkscape:window-height="938"
     inkscape:window-x="0"
     inkscape:window-y="25"
     inkscape:window-maximized="0"
     inkscape:current-layer="layer1" />
  <defs
     id="defs8333">
    <clipPath
       clipPathUnits="userSpaceOnUse"
       id="clipPath3167">
      <path
         d="m 159.654,565.599 h 22.76 v 22.76 h -22.76 z"
         id="path3165" />
    </clipPath>
  </defs>
  <g
     inkscape:label="Layer 1"
     inkscape:groupmode="layer"
     id="layer1"
     transform="translate(-61.563551,-90.095221)">
    <g
       id="g3161"
       transform="matrix(0.37336239,0,0,-0.37336239,0.80740944,308.74109)">
      <g
         id="g3163"
         clip-path="url(#clipPath3167)">
        <g
           id="g3169"
           transform="translate(171.135,578.793)">
          <path
             d="m 0,0 c 0.002,0.176 -0.01,0.352 -0.03,0.526 -0.022,0.202 -0.036,0.406 -0.064,0.607 -0.021,0.144 -0.057,0.286 -0.063,0.431 -0.005,0.114 -0.002,0.223 0.017,0.334 0.027,0.163 0.04,0.328 0.068,0.491 0.037,0.224 0.077,0.445 0.099,0.671 0.038,0.39 0.016,0.788 0.016,1.179 0,0.145 -0.028,0.275 -0.067,0.414 -0.051,0.18 -0.081,0.365 -0.118,0.548 -0.05,0.245 -0.11,0.487 -0.157,0.733 -0.019,0.101 -0.036,0.201 -0.064,0.3 -0.02,0.071 -0.043,0.14 -0.056,0.214 -0.006,0.037 -0.014,0.075 -0.011,0.113 L -0.488,6.82 C -0.509,6.722 -0.53,6.626 -0.549,6.528 -0.556,6.492 -0.551,6.452 -0.559,6.418 -0.566,6.385 -0.573,6.367 -0.573,6.331 -0.574,6.256 -0.589,6.181 -0.603,6.108 -0.629,5.967 -0.621,5.819 -0.634,5.675 -0.647,5.528 -0.672,5.381 -0.696,5.235 -0.743,4.947 -0.744,4.653 -0.807,4.366 -0.83,4.257 -0.851,4.163 -0.858,4.05 -0.863,3.973 -0.866,3.898 -0.875,3.821 -0.894,3.666 -0.902,3.511 -0.911,3.356 -0.92,3.189 -0.927,3.02 -0.949,2.855 -0.967,2.726 -0.997,2.601 -1.002,2.47 -1.006,2.395 -1.005,2.32 -1.005,2.245 c 10e-4,-0.179 10e-4,-0.358 0,-0.537 -0.001,-0.148 0.02,-0.293 0.044,-0.438 0.021,-0.132 0.069,-0.261 0.099,-0.392 0.039,-0.162 0.091,-0.319 0.129,-0.48 0.071,-0.295 0.118,-0.593 0.116,-0.897 -0.001,-0.177 0.004,-0.355 -0.007,-0.532 -0.008,-0.155 -0.018,-0.309 -0.023,-0.465 -0.002,-0.091 -0.017,-0.181 -0.025,-0.272 -0.006,-0.074 -0.003,-0.148 -0.003,-0.221 0.001,-0.117 0.001,-0.233 0.001,-0.349 0,-0.161 -0.001,-0.322 0,-0.483 0.001,-0.091 -0.015,-0.176 -0.029,-0.266 -0.015,-0.096 -0.025,-0.184 -0.054,-0.277 -0.034,-0.109 -0.043,-0.217 -0.046,-0.331 -0.004,-0.13 -0.024,-0.255 -0.047,-0.382 -0.059,-0.324 -0.019,-0.648 -0.046,-0.974 -0.021,-0.237 -0.041,-0.489 -0.015,-0.727 0.044,-0.383 0.143,-0.755 0.206,-1.136 0.027,-0.164 0.04,-0.329 0.069,-0.493 0.031,-0.17 0.072,-0.337 0.098,-0.508 0.021,-0.146 0.037,-0.289 0.068,-0.433 0.036,-0.17 0.059,-0.334 0.066,-0.507 0.008,-0.201 -0.003,-0.402 0.018,-0.602 0.022,-0.212 0.073,-0.423 0.116,-0.632 -0.001,0.005 0.014,-0.127 0.052,-0.093 0.023,0.02 0.003,0.134 0.003,0.169 0,0.085 -0.012,0.167 -0.014,0.252 -0.01,0.663 -0.13,1.321 -0.116,1.985 0.007,0.336 0.04,0.67 0.077,1.004 0.017,0.154 0.023,0.309 0.046,0.463 0.027,0.18 0.066,0.358 0.087,0.539 0.022,0.201 0.05,0.402 0.061,0.604 0.01,0.171 0.001,0.343 -0.008,0.515 -0.017,0.353 -0.062,0.696 -0.138,1.043 -0.018,0.085 -0.043,0.168 -0.037,0.256 0.004,0.045 0.008,0.094 0.015,0.138 0.018,0.102 0.057,0.2 0.081,0.301 0.063,0.26 0.087,0.535 0.1,0.803 0.01,0.214 0.04,0.426 0.051,0.64 0.007,0.151 0.009,0.305 0.028,0.455 0.022,0.175 0.041,0.354 0.023,0.53 C 0.025,-0.321 -0.002,-0.165 0,0"
             style="fill:#231f20;fill-opacity:1;fill-rule:nonzero;stroke:none"
             id="path3171" />
        </g>
        <g
           id="g3173"
           transform="translate(166.012,584.12)">
          <path
             d="M 0,0 C -0.005,0.009 -0.009,0.017 -0.013,0.026 0.009,0.027 0.025,0.011 0.043,0.001 0.102,-0.029 0.168,-0.05 0.229,-0.075 0.324,-0.113 0.412,-0.163 0.507,-0.201 0.607,-0.24 0.711,-0.267 0.806,-0.316 0.936,-0.384 1.08,-0.42 1.21,-0.487 1.324,-0.545 1.449,-0.583 1.566,-0.634 1.647,-0.669 1.725,-0.704 1.808,-0.735 1.88,-0.762 1.954,-0.789 2.024,-0.821 2.132,-0.871 2.233,-0.935 2.341,-0.988 2.374,-1.004 2.408,-1.019 2.441,-1.035 2.506,-1.067 2.558,-1.124 2.624,-1.153 2.659,-1.168 2.758,-1.195 2.766,-1.235 2.756,-1.251 2.74,-1.251 2.724,-1.258 2.696,-1.27 2.672,-1.284 2.649,-1.305 2.618,-1.331 2.565,-1.387 2.57,-1.432 2.674,-1.492 2.779,-1.55 2.883,-1.611 2.99,-1.673 3.103,-1.722 3.21,-1.784 3.24,-1.802 3.364,-1.847 3.371,-1.895 3.372,-1.905 3.359,-1.925 3.357,-1.937 3.352,-1.966 3.352,-1.992 3.343,-2.023 3.338,-2.041 3.316,-2.098 3.331,-2.121 3.335,-2.127 3.352,-2.132 3.358,-2.138 3.373,-2.153 3.371,-2.157 3.387,-2.17 3.428,-2.201 3.504,-2.216 3.549,-2.237 3.652,-2.285 3.753,-2.335 3.854,-2.387 3.997,-2.463 4.138,-2.541 4.277,-2.623 4.422,-2.708 4.56,-2.806 4.708,-2.885 4.828,-2.948 4.951,-3.005 5.071,-3.07 5.13,-3.102 5.188,-3.138 5.249,-3.165 5.302,-3.189 5.36,-3.206 5.412,-3.232 5.609,-3.329 5.787,-3.45 5.906,-3.639 c 0.066,-0.105 0.143,-0.199 0.214,-0.3 0.085,-0.123 0.167,-0.251 0.248,-0.377 0.085,-0.133 0.167,-0.263 0.261,-0.39 0.097,-0.133 0.208,-0.241 0.34,-0.339 0.118,-0.087 0.255,-0.162 0.389,-0.222 0.108,-0.049 0.22,-0.087 0.325,-0.143 0.303,-0.162 0.636,-0.262 0.95,-0.401 0.307,-0.136 0.61,-0.273 0.893,-0.456 0.219,-0.141 0.437,-0.317 0.569,-0.547 0.058,-0.101 0.105,-0.209 0.153,-0.315 0.058,-0.132 0.123,-0.261 0.184,-0.391 0.15,-0.321 0.292,-0.651 0.507,-0.935 0.148,-0.195 0.314,-0.382 0.534,-0.497 0.072,-0.038 0.159,-0.04 0.235,-0.069 0.098,-0.038 0.198,-0.072 0.298,-0.104 0.148,-0.046 0.298,-0.101 0.442,-0.16 0.103,-0.042 0.218,-0.088 0.309,-0.152 0.122,-0.087 0.252,-0.171 0.325,-0.306 -0.018,0.012 -0.036,0.029 -0.055,0.043 -0.07,0.053 -0.158,0.091 -0.234,0.135 -0.133,0.075 -0.264,0.18 -0.414,0.221 -0.127,0.035 -0.259,0.012 -0.388,0.052 -0.055,0.017 -0.108,0.042 -0.165,0.05 -0.047,0.006 -0.096,0.007 -0.143,0.012 -0.088,0.007 -0.173,0.024 -0.258,0.047 -0.074,0.019 -0.15,0.034 -0.221,0.063 -0.114,0.045 -0.217,0.107 -0.324,0.166 -0.381,0.214 -0.774,0.492 -0.995,0.88 -0.096,0.169 -0.213,0.325 -0.31,0.493 -0.057,0.098 -0.121,0.178 -0.193,0.266 -0.103,0.123 -0.203,0.254 -0.327,0.357 -0.104,0.088 -0.225,0.152 -0.34,0.223 -0.097,0.06 -0.191,0.124 -0.287,0.185 -0.085,0.055 -0.176,0.103 -0.265,0.15 -0.042,0.022 -0.086,0.038 -0.127,0.06 -0.065,0.035 -0.122,0.08 -0.187,0.114 -0.16,0.081 -0.314,0.173 -0.472,0.256 -0.185,0.097 -0.368,0.204 -0.544,0.317 -0.096,0.062 -0.195,0.115 -0.285,0.187 -0.091,0.072 -0.159,0.154 -0.235,0.24 -0.085,0.097 -0.176,0.191 -0.257,0.291 -0.031,0.04 -0.058,0.081 -0.086,0.123 -0.051,0.076 -0.111,0.151 -0.154,0.233 -0.046,0.09 -0.088,0.167 -0.15,0.247 -0.07,0.092 -0.135,0.186 -0.216,0.268 -0.185,0.187 -0.391,0.35 -0.603,0.502 -0.111,0.08 -0.233,0.145 -0.354,0.207 C 4.368,-3.29 4.245,-3.22 4.117,-3.161 3.964,-3.091 3.824,-3 3.673,-2.926 3.517,-2.849 3.358,-2.782 3.206,-2.697 3.052,-2.611 2.895,-2.542 2.731,-2.476 2.556,-2.405 2.388,-2.315 2.21,-2.252 2.064,-2.2 1.916,-2.155 1.771,-2.103 c -0.087,0.031 -0.195,0.056 -0.274,0.106 0.026,0.015 0.108,0.003 0.135,0.006 0.076,0.006 0.15,0.009 0.226,0.01 0.049,0.002 0.113,0.005 0.161,0.019 0.006,0.002 0.031,0.013 0.033,0.019 0.013,0.034 -0.054,0.047 -0.072,0.056 -0.131,0.064 -0.256,0.144 -0.388,0.209 -0.174,0.087 -0.35,0.173 -0.529,0.25 -0.008,0.003 -0.251,0.085 -0.252,0.11 0.07,-0.007 0.142,-0.002 0.213,-0.002 0.077,0 0.162,-0.01 0.239,0.002 0.022,0.003 0.147,0.021 0.146,0.055 -0.001,0.024 -0.092,0.045 -0.11,0.054 -0.227,0.109 -0.452,0.214 -0.687,0.305 -0.351,0.136 -0.706,0.262 -1.06,0.391 -0.302,0.11 -0.61,0.212 -0.903,0.346 -0.237,0.108 -0.473,0.221 -0.713,0.324 -0.131,0.055 -0.258,0.116 -0.382,0.186 -0.025,0.014 -0.08,0.03 -0.098,0.055 -0.05,0.069 0.182,0.047 0.212,0.047 h 0.419 c 0.044,0 0.089,0 0.133,0 0.009,0 0.083,-0.009 0.1,0.003 0.086,0.058 -0.116,0.229 -0.138,0.283 0.022,0.007 0.04,-0.001 0.061,-0.008 0.053,-0.018 0.1,-0.047 0.154,-0.064 0.271,-0.085 0.551,-0.144 0.821,-0.234 0.069,-0.023 0.136,-0.051 0.207,-0.064 0.041,-0.007 0.079,-0.015 0.117,-0.034 0.027,-0.013 0.057,-0.044 0.086,-0.052 0.035,-0.01 0.081,0.006 0.114,0.012"
             style="fill:#231f20;fill-opacity:1;fill-rule:nonzero;stroke:none"
             id="path3175" />
        </g>
        <g
           id="g3177"
           transform="translate(163.917,581.136)">
          <path
             d="M 0,0 C -0.004,0.001 -0.009,0.002 -0.013,0.003 -0.01,0.05 0.087,0.018 0.101,0.015 0.252,-0.026 0.402,-0.084 0.55,-0.132 0.837,-0.225 1.126,-0.312 1.409,-0.418 1.855,-0.585 2.27,-0.817 2.714,-0.986 2.901,-1.057 3.082,-1.139 3.265,-1.22 3.388,-1.275 3.514,-1.325 3.633,-1.388 3.648,-1.396 3.767,-1.442 3.761,-1.478 3.756,-1.508 3.659,-1.516 3.642,-1.519 3.555,-1.539 3.462,-1.565 3.379,-1.596 3.255,-1.644 3.142,-1.711 3.023,-1.767 2.94,-1.805 2.854,-1.837 2.771,-1.873 2.713,-1.898 2.615,-1.927 2.59,-1.993 2.612,-2.035 2.684,-2.037 2.725,-2.049 2.808,-2.073 2.885,-2.124 2.963,-2.16 3.089,-2.219 3.217,-2.274 3.344,-2.33 3.496,-2.398 3.646,-2.47 3.798,-2.538 3.928,-2.595 4.06,-2.645 4.187,-2.707 4.37,-2.796 4.553,-2.884 4.737,-2.971 4.816,-3.008 4.881,-3.065 4.96,-3.101 5.01,-3.124 5.053,-3.15 5.101,-3.178 c 0.031,-0.018 0.051,-0.031 0.071,0.007 0.012,0.022 0.008,0.049 0.008,0.076 0,0.023 -0.012,0.078 0.001,0.098 0.008,0.013 0.029,0.021 0.041,0.029 0.059,0.042 0.111,0.089 0.184,0.106 0.132,0.032 0.265,-0.067 0.385,-0.109 0.134,-0.047 0.262,-0.103 0.397,-0.144 0.038,-0.011 0.106,-0.024 0.126,-0.056 0.002,-0.002 0.007,-0.026 0.01,-0.032 C 6.331,-3.217 6.34,-3.225 6.351,-3.236 6.386,-3.272 6.429,-3.301 6.465,-3.337 6.5,-3.372 6.531,-3.403 6.572,-3.43 6.721,-3.526 6.883,-3.607 7.047,-3.674 7.12,-3.704 7.186,-3.73 7.252,-3.774 7.278,-3.791 7.341,-3.825 7.361,-3.854 7.384,-3.886 7.387,-3.935 7.404,-3.973 7.501,-4.186 7.662,-4.363 7.757,-4.578 7.803,-4.683 7.831,-4.794 7.873,-4.9 7.91,-4.993 7.982,-5.085 8.055,-5.153 8.105,-5.198 8.149,-5.252 8.203,-5.293 8.257,-5.335 8.32,-5.362 8.379,-5.396 8.502,-5.467 8.62,-5.512 8.76,-5.539 c 0.163,-0.032 0.326,-0.068 0.491,-0.095 0.183,-0.03 0.379,-0.047 0.553,-0.112 0.168,-0.063 0.329,-0.143 0.485,-0.231 0.11,-0.062 0.2,-0.138 0.259,-0.252 0.045,-0.087 0.066,-0.187 0.1,-0.279 0.045,-0.121 0.077,-0.25 0.135,-0.365 0.064,-0.124 0.133,-0.248 0.223,-0.354 0.039,-0.046 0.066,-0.099 0.102,-0.146 0.048,-0.064 0.123,-0.118 0.19,-0.16 0.085,-0.052 0.181,-0.064 0.276,-0.088 0.084,-0.022 0.163,-0.059 0.247,-0.082 0.103,-0.027 0.211,-0.043 0.315,-0.064 0.099,-0.02 0.202,-0.031 0.3,-0.055 0.112,-0.027 0.22,-0.067 0.33,-0.103 0.086,-0.029 0.18,-0.044 0.263,-0.08 0.081,-0.034 0.16,-0.079 0.232,-0.128 0.131,-0.087 0.247,-0.201 0.351,-0.317 0.031,-0.034 0.062,-0.069 0.092,-0.105 0.065,-0.077 0.111,-0.165 0.164,-0.25 0.1,-0.162 0.178,-0.339 0.283,-0.498 0.036,-0.055 0.073,-0.105 0.116,-0.155 0.014,-0.017 0.127,-0.169 0.159,-0.147 -0.024,0.052 -0.066,0.102 -0.108,0.141 -0.076,0.071 -0.166,0.138 -0.248,0.203 -0.192,0.149 -0.415,0.243 -0.637,0.34 -0.165,0.073 -0.333,0.127 -0.507,0.177 -0.093,0.027 -0.183,0.058 -0.273,0.092 -0.111,0.041 -0.229,0.057 -0.338,0.1 -0.11,0.043 -0.212,0.109 -0.315,0.167 -0.096,0.053 -0.194,0.098 -0.284,0.162 -0.199,0.14 -0.382,0.301 -0.575,0.45 -0.075,0.059 -0.154,0.117 -0.22,0.186 -0.062,0.065 -0.114,0.138 -0.174,0.205 -0.051,0.057 -0.101,0.111 -0.146,0.173 -0.051,0.073 -0.102,0.146 -0.16,0.212 -0.122,0.14 -0.23,0.299 -0.385,0.405 -0.134,0.093 -0.272,0.175 -0.424,0.236 -0.155,0.061 -0.311,0.109 -0.474,0.148 -0.105,0.024 -0.213,0.041 -0.319,0.065 -0.064,0.015 -0.119,0.046 -0.179,0.07 -0.059,0.024 -0.12,0.038 -0.178,0.065 -0.095,0.045 -0.184,0.106 -0.28,0.152 -0.103,0.051 -0.201,0.111 -0.294,0.18 -0.102,0.075 -0.212,0.137 -0.314,0.211 -0.098,0.071 -0.189,0.149 -0.277,0.231 -0.091,0.084 -0.179,0.172 -0.261,0.265 -0.107,0.122 -0.215,0.255 -0.341,0.356 -0.083,0.067 -0.166,0.127 -0.257,0.182 -0.124,0.075 -0.236,0.167 -0.362,0.24 -0.136,0.08 -0.281,0.15 -0.424,0.219 C 5.614,-3.945 5.556,-3.916 5.495,-3.896 5.473,-3.888 5.43,-3.863 5.407,-3.862 5.381,-3.861 5.384,-3.859 5.381,-3.887 5.377,-3.92 5.381,-3.949 5.373,-3.982 5.365,-4.018 5.277,-4.185 5.348,-4.206 5.296,-4.178 5.247,-4.145 5.193,-4.12 5.009,-4.035 4.818,-3.968 4.626,-3.903 4.393,-3.824 4.163,-3.737 3.931,-3.655 3.668,-3.563 3.401,-3.471 3.145,-3.358 2.738,-3.18 2.356,-2.96 1.966,-2.747 1.78,-2.646 1.585,-2.562 1.387,-2.485 1.314,-2.456 1.243,-2.424 1.175,-2.384 1.151,-2.371 1.088,-2.345 1.09,-2.312 c 0.048,0.018 0.102,0.08 0.136,0.115 0.087,0.09 0.179,0.181 0.253,0.282 0.056,0.077 0.126,0.182 0.221,0.213 0.07,0.023 0.147,0.029 0.22,0.035 0.024,0.001 0.072,-0.007 0.086,0.016 -0.013,0.038 -0.067,0.044 -0.097,0.058 -0.111,0.051 -0.203,0.147 -0.302,0.218 -0.146,0.104 -0.298,0.191 -0.459,0.27 -0.172,0.085 -0.335,0.175 -0.521,0.229 -0.126,0.037 -0.242,0.094 -0.363,0.146 -0.144,0.061 -0.292,0.109 -0.439,0.163 -0.17,0.063 -0.342,0.13 -0.502,0.215 -0.021,0.011 -0.132,0.056 -0.126,0.091 0.018,0.003 0.051,0.007 0.056,0.025 0.007,0.021 -0.032,0.064 -0.045,0.079 -0.036,0.041 -0.078,0.076 -0.115,0.116 -0.062,0.067 -0.109,0.152 -0.139,0.238 -0.008,0.02 -0.033,0.073 -0.004,0.09 0.034,0.02 0.132,-0.029 0.16,-0.036 0.075,-0.017 0.165,-0.054 0.242,-0.052 0.033,0 0.107,0.024 0.125,0.051 0.039,0.06 -0.114,0.172 -0.151,0.21 -0.068,0.068 -0.14,0.119 -0.216,0.176 0.006,0.015 0.085,0.018 0.101,0.024"
             style="fill:#231f20;fill-opacity:1;fill-rule:nonzero;stroke:none"
             id="path3179" />
        </g>
        <g
           id="g3181"
           transform="translate(164.434,577.204)">
          <path
             d="m 0,0 c -0.007,0.007 -0.015,0.012 -0.024,0.016 0.03,0 0.063,-0.025 0.086,-0.038 0.152,-0.086 0.307,-0.156 0.466,-0.229 0.288,-0.13 0.578,-0.253 0.861,-0.393 0.302,-0.149 0.604,-0.296 0.908,-0.44 0.3,-0.142 0.613,-0.265 0.904,-0.424 0.036,-0.02 0.069,-0.043 0.105,-0.062 0.021,-0.012 0.093,-0.036 0.095,-0.064 -0.025,-0.009 -0.06,0 -0.086,-0.002 C 3.204,-1.643 3.103,-1.723 3.032,-1.803 2.973,-1.871 2.925,-1.952 2.855,-2.01 2.782,-2.071 2.697,-2.111 2.622,-2.168 2.58,-2.199 2.549,-2.232 2.518,-2.274 2.503,-2.293 2.452,-2.343 2.465,-2.366 c 0.053,-0.006 0.084,-0.036 0.128,-0.067 0.13,-0.093 0.232,-0.212 0.349,-0.319 0.06,-0.056 0.129,-0.105 0.183,-0.166 0.012,-0.013 0.029,-0.043 0.046,-0.05 0.024,-0.011 0.065,-10e-4 0.085,0.007 0.031,0.011 0.057,0.029 0.089,0.04 0.074,0.024 0.148,0.042 0.221,0.068 0.117,0.042 0.237,0.084 0.344,0.148 0.069,0.041 0.153,0.085 0.213,0.14 0.029,0.026 0.078,0.1 0.122,0.095 0,-0.025 0.023,-0.062 0.034,-0.086 0.058,-0.13 0.127,-0.218 0.25,-0.298 0.041,-0.028 0.089,-0.047 0.13,-0.074 0.035,-0.024 0.054,-0.061 0.09,-0.086 C 4.781,-3.037 4.848,-3.085 4.891,-3.069 4.897,-3.039 4.9,-3.012 4.934,-3 4.975,-2.987 5.039,-2.997 5.079,-3.01 5.1,-3.017 5.104,-3.022 5.122,-3.032 5.134,-3.038 5.138,-3.038 5.149,-3.041 5.191,-3.054 5.223,-3.066 5.266,-3.084 5.418,-3.15 5.579,-3.182 5.737,-3.229 5.767,-3.238 5.84,-3.247 5.864,-3.271 5.878,-3.285 5.88,-3.313 5.897,-3.329 5.964,-3.394 6.041,-3.455 6.118,-3.51 6.246,-3.6 6.381,-3.676 6.515,-3.756 6.577,-3.793 6.638,-3.833 6.7,-3.869 6.752,-3.899 6.814,-3.923 6.86,-3.961 6.913,-4.005 6.922,-4.04 6.913,-4.105 6.903,-4.185 6.888,-4.262 6.92,-4.34 c 0.037,-0.089 0.096,-0.168 0.14,-0.253 0.045,-0.086 0.099,-0.164 0.165,-0.236 0.048,-0.052 0.092,-0.093 0.157,-0.123 0.055,-0.025 0.1,-0.025 0.158,-0.033 0.089,-0.013 0.174,-0.044 0.26,-0.066 0.14,-0.036 0.285,-0.05 0.427,-0.075 0.098,-0.018 0.195,-0.037 0.296,-0.04 0.07,-10e-4 0.139,0.002 0.209,0 0.151,-0.004 0.307,-0.025 0.456,-0.05 0.128,-0.022 0.259,-0.068 0.382,-0.108 0.12,-0.039 0.238,-0.102 0.343,-0.171 0.09,-0.06 0.2,-0.133 0.203,-0.248 0.003,-0.103 0.063,-0.193 0.082,-0.294 0.023,-0.124 0.09,-0.237 0.174,-0.33 0.06,-0.068 0.149,-0.117 0.224,-0.166 0.092,-0.059 0.199,-0.116 0.302,-0.152 0.088,-0.03 0.184,-0.036 0.275,-0.05 0.107,-0.017 0.214,-0.022 0.321,-0.023 0.042,0 0.079,-0.007 0.12,-0.015 0.071,-0.012 0.148,-0.01 0.218,-0.027 0.093,-0.022 0.191,-0.06 0.277,-0.1 0.099,-0.046 0.205,-0.11 0.268,-0.201 0.043,-0.063 0.038,-0.12 0.065,-0.186 0.039,-0.098 0.096,-0.19 0.139,-0.287 0.019,-0.042 0.081,-0.122 0.059,-0.172 -0.028,0.019 -0.047,0.048 -0.067,0.074 -0.037,0.047 -0.086,0.077 -0.133,0.112 -0.092,0.066 -0.177,0.142 -0.277,0.196 -0.088,0.047 -0.181,0.06 -0.277,0.083 -0.164,0.04 -0.329,0.061 -0.495,0.09 -0.089,0.016 -0.172,0.05 -0.25,0.095 -0.079,0.046 -0.159,0.08 -0.243,0.116 -0.074,0.031 -0.14,0.081 -0.208,0.124 -0.075,0.048 -0.15,0.097 -0.223,0.148 -0.161,0.116 -0.292,0.276 -0.421,0.425 -0.225,0.26 -0.475,0.502 -0.793,0.645 C 9.173,-5.602 9.09,-5.59 9.006,-5.575 8.919,-5.558 8.836,-5.539 8.747,-5.538 8.545,-5.534 8.35,-5.549 8.149,-5.576 8.056,-5.589 7.966,-5.608 7.872,-5.615 7.763,-5.623 7.653,-5.622 7.544,-5.632 7.448,-5.641 7.35,-5.649 7.254,-5.635 7.147,-5.62 7.048,-5.572 6.947,-5.539 6.817,-5.496 6.701,-5.399 6.607,-5.302 6.497,-5.19 6.39,-5.068 6.293,-4.945 6.226,-4.86 6.166,-4.769 6.093,-4.689 6.009,-4.597 5.923,-4.505 5.837,-4.415 5.755,-4.33 5.673,-4.249 5.567,-4.196 5.48,-4.152 5.39,-4.117 5.303,-4.074 5.191,-4.02 5.076,-3.975 4.959,-3.932 4.83,-3.885 4.716,-3.813 4.597,-3.746 4.541,-3.715 4.475,-3.696 4.424,-3.659 4.402,-3.643 4.386,-3.621 4.362,-3.609 4.319,-3.589 4.276,-3.603 4.239,-3.622 4.172,-3.656 4.07,-3.629 4.009,-3.593 3.949,-3.558 3.898,-3.509 3.832,-3.483 3.835,-3.45 3.811,-3.44 3.781,-3.443 3.721,-3.449 3.644,-3.528 3.595,-3.559 3.455,-3.651 3.316,-3.748 3.171,-3.833 3.108,-3.869 3.026,-3.889 2.968,-3.933 2.952,-3.945 2.929,-3.965 2.927,-3.986 2.923,-3.947 2.895,-3.922 2.866,-3.901 2.815,-3.871 2.763,-3.844 2.709,-3.82 2.634,-3.781 2.561,-3.738 2.49,-3.692 c -0.104,0.063 -0.206,0.13 -0.313,0.188 -0.064,0.034 -0.128,0.067 -0.193,0.1 -0.028,0.015 -0.058,0.028 -0.088,0.037 -0.003,0.006 -0.005,0.013 -0.004,0.02 -0.01,0.006 -0.02,0.012 -0.03,0.019 -0.052,0.036 -0.101,0.073 -0.159,0.103 -0.116,0.06 -0.24,0.105 -0.355,0.169 -0.036,0.02 -0.141,0.07 -0.153,0.121 -0.011,0.042 0.055,0.071 0.081,0.097 0.092,0.092 0.144,0.236 0.205,0.349 0.055,0.101 0.106,0.203 0.18,0.293 0.053,0.065 0.159,0.138 0.175,0.226 0.005,0.023 0.003,0.041 -0.01,0.06 -0.025,0.035 -0.097,0.077 -0.127,0.1 -0.174,0.136 -0.373,0.247 -0.567,0.352 -0.101,0.053 -0.202,0.104 -0.303,0.155 -0.033,0.012 -0.061,0.03 -0.084,0.056 0.036,0.004 0.064,-0.036 0.064,-0.069 -0.116,-0.033 -0.271,0.037 -0.383,0.062 -0.37,0.085 -0.734,0.192 -1.101,0.288 -0.244,0.063 -0.489,0.119 -0.734,0.175 -0.08,0.016 -0.16,0.035 -0.239,0.057 -0.026,0.001 -0.046,0.011 -0.059,0.031 0.043,0.057 0.156,0.056 0.219,0.066 0.133,0.02 0.265,0.031 0.4,0.034 0.071,0.002 0.142,0.002 0.212,0 0.025,-0.005 0.049,-0.005 0.073,0.003 -0.016,0.022 -0.046,0.025 -0.067,0.04 -0.026,0.019 -0.02,0.018 -0.02,0.049 0,0.081 -0.012,0.145 -0.044,0.222 -0.047,0.111 -0.138,0.207 -0.205,0.306 -0.049,0.072 -0.128,0.169 -0.155,0.255 -0.015,0.05 -0.021,0.095 0.009,0.142 0.029,0.044 0.081,0.054 0.113,0.094 0.074,0.092 0.028,0.256 0.023,0.364 -0.002,0.032 -0.018,0.099 0.032,0.102 0.017,-0.008 0.034,-0.016 0.051,-0.025 0.037,-0.033 0.07,-0.069 0.098,-0.11 0.067,-0.09 0.139,-0.171 0.227,-0.241 0.095,-0.075 0.199,-0.111 0.308,-0.157 0.02,-0.005 0.037,-0.013 0.052,-0.025 0.006,-0.002 0.009,-0.006 0.009,-0.012 0.035,-0.01 0.079,-0.002 0.114,-0.002"
             style="fill:#231f20;fill-opacity:1;fill-rule:nonzero;stroke:none"
             id="path3183" />
        </g>
      </g>
    </g>
  </g>
</svg>
