<?xml version="1.0" encoding="UTF-8" standalone="no"?>
<!-- Created with Inkscape (http://www.inkscape.org/) -->

<svg
   width="15.671683"
   height="24"
   viewBox="0 0 4.1464663 6.35"
   version="1.1"
   id="svg7548"
   inkscape:version="1.2.1 (9c6d41e4, 2022-07-14)"
   sodipodi:docname="erratic_fear.svg"
   xmlns:inkscape="http://www.inkscape.org/namespaces/inkscape"
   xmlns:sodipodi="http://sodipodi.sourceforge.net/DTD/sodipodi-0.dtd"
   xmlns="http://www.w3.org/2000/svg"
   xmlns:svg="http://www.w3.org/2000/svg">
  <sodipodi:namedview
     id="namedview7550"
     pagecolor="#505050"
     bordercolor="#eeeeee"
     borderopacity="1"
     inkscape:showpageshadow="0"
     inkscape:pageopacity="0"
     inkscape:pagecheckerboard="0"
     inkscape:deskcolor="#505050"
     inkscape:document-units="mm"
     showgrid="false"
     inkscape:zoom="0.70199214"
     inkscape:cx="112.53687"
     inkscape:cy="129.63108"
     inkscape:window-width="1390"
     inkscape:window-height="938"
     inkscape:window-x="0"
     inkscape:window-y="25"
     inkscape:window-maximized="0"
     inkscape:current-layer="layer1" />
  <defs
     id="defs7545">
    <clipPath
       clipPathUnits="userSpaceOnUse"
       id="clipPath2439">
      <path
         d="m 159.654,679.47 h 22.76 v 22.76 h -22.76 z"
         id="path2437" />
    </clipPath>
  </defs>
  <g
     inkscape:label="Layer 1"
     inkscape:groupmode="layer"
     id="layer1"
     transform="translate(-75.385648,-114.13826)">
    <g
       id="g2433"
       transform="matrix(0.32412843,0,0,-0.32412843,21.970618,341.33868)">
      <g
         id="g2435"
         clip-path="url(#clipPath2439)">
        <g
           id="g2441"
           transform="translate(171.22,687.213)">
          <path
             d="M 0,0 C -0.02,1.264 -0.038,2.528 -0.05,3.792 -0.052,4 -0.021,4.208 -0.003,4.458 1.272,3.683 2.373,2.766 3.409,1.768 3.373,1.709 3.364,1.68 3.345,1.667 2.472,1.049 1.599,0.429 0.721,-0.181 0.623,-0.249 0.494,-0.282 0.374,-0.304 0.056,-0.365 0.005,-0.324 0,0 M 0.078,9.573 C 1.009,8.849 1.917,8.143 2.871,7.401 1.976,6.719 1.064,5.996 0.069,5.384 0.041,5.396 0.013,5.409 -0.015,5.421 0.016,6.798 0.047,8.175 0.078,9.573 M -4.327,1.735 c 0.501,0.324 0.939,0.607 1.377,0.889 0.067,0.043 0.154,0.067 0.203,0.124 0.426,0.506 1.029,0.768 1.555,1.135 0.141,0.099 0.301,0.171 0.506,0.286 0.032,-1.523 0.064,-2.983 0.096,-4.517 -1.258,0.701 -2.463,1.373 -3.737,2.083 m 2.846,4.488 c -0.394,0.299 -0.796,0.589 -1.169,0.912 -0.271,0.235 -0.259,0.602 0.033,0.799 0.607,0.409 1.237,0.785 1.858,1.174 0.012,0.007 0.034,-0.001 0.076,-0.004 V 5.642 C -0.974,5.853 -1.232,6.033 -1.481,6.223 M 5.149,-3.3 c -0.384,0.236 -0.773,0.469 -1.176,0.67 -0.28,0.138 -0.561,0.251 -0.743,0.528 -0.052,0.08 -0.168,0.126 -0.264,0.167 -0.35,0.149 -0.705,0.285 -1.055,0.435 -0.398,0.17 -0.792,0.35 -1.188,0.525 -0.116,0.051 -0.233,0.102 -0.397,0.173 0.1,0.048 0.144,0.074 0.191,0.091 1.409,0.517 2.704,1.233 3.858,2.196 0.192,0.161 0.242,0.52 0.044,0.668 C 4.111,2.385 3.784,2.612 3.432,2.762 3.112,2.897 2.796,3.015 2.529,3.246 1.849,3.834 1.164,4.417 0.466,5.015 0.571,5.129 0.632,5.205 0.702,5.27 1.433,5.949 2.247,6.512 3.127,6.977 3.646,7.252 3.7,7.47 3.312,7.906 3.271,7.952 3.227,7.996 3.178,8.033 2.416,8.613 1.653,9.19 0.893,9.771 0.749,9.88 0.089,10.002 -0.091,10.154 l -0.233,3.591 C -0.139,13.632 -0.683,9.987 -0.856,9.869 -1.273,9.586 -1.694,9.307 -2.097,9.005 -2.65,8.591 -3.187,8.156 -3.747,7.718 -3.753,7.728 -3.726,7.673 -3.685,7.631 -2.92,6.841 -2.112,6.101 -1.203,5.474 -0.583,5.045 -0.606,4.926 -1.242,4.502 -2.251,3.829 -3.248,3.137 -4.231,2.427 -4.576,2.178 -4.864,1.851 -5.242,1.5 c 0.697,-0.395 1.345,-0.773 2.003,-1.131 0.664,-0.361 1.338,-0.702 2.053,-1.077 -0.109,-0.06 -0.165,-0.099 -0.226,-0.124 -0.431,-0.18 -0.864,-0.356 -1.295,-0.537 -0.604,-0.252 -1.246,-0.441 -1.665,-1.005 -0.061,-0.083 -0.181,-0.124 -0.24,-0.207 -0.103,-0.148 -0.18,-0.313 -0.268,-0.471 0.025,-0.019 0.05,-0.039 0.076,-0.058 0.785,0.44 1.584,0.857 2.351,1.326 0.553,0.339 1.156,0.513 1.766,0.715 0.1,-1.615 0.197,-3.196 0.295,-4.777 0.077,0.137 0.126,0.273 0.135,0.412 0.063,0.961 0.118,1.922 0.176,2.884 0.026,0.423 0.048,0.846 0.087,1.268 0.004,0.053 0.123,0.149 0.153,0.137 0.516,-0.205 1.076,-0.351 1.528,-0.656 0.861,-0.58 1.711,-1.155 2.722,-1.452 0.343,-0.101 0.664,-0.277 0.995,-0.419 0.019,0.022 0.038,0.045 0.057,0.067 C 5.358,-3.501 5.27,-3.374 5.149,-3.3"
             style="fill:#231f20;fill-opacity:1;fill-rule:nonzero;stroke:none"
             id="path2443" />
        </g>
        <g
           id="g2445"
           transform="translate(168.719,688.717)">
          <path
             d="M 0,0 C -0.251,0 -0.428,0.148 -0.423,0.354 -0.418,0.561 -0.184,0.745 0.069,0.74 0.326,0.736 0.47,0.609 0.47,0.387 0.469,0.107 0.338,0 0,0"
             style="fill:#231f20;fill-opacity:1;fill-rule:nonzero;stroke:none"
             id="path2447" />
        </g>
        <g
           id="g2449"
           transform="translate(172.75,689.456)">
          <path
             d="m 0,0 c 0.289,0 0.51,-0.174 0.497,-0.391 -0.012,-0.2 -0.332,-0.428 -0.6,-0.427 -0.33,0 -0.451,0.103 -0.448,0.38 C -0.548,-0.124 -0.392,0 0,0"
             style="fill:#231f20;fill-opacity:1;fill-rule:nonzero;stroke:none"
             id="path2451" />
        </g>
        <g
           id="g2453"
           transform="translate(170.76,683.692)">
          <path
             d="m 0,0 c -0.01,-0.097 -0.019,-0.193 -0.024,-0.29 0,-0.019 -0.019,-0.039 -0.058,-0.053 -0.082,0.077 -0.135,0.14 -0.16,0.183 -0.12,0.107 -0.227,0.199 -0.324,0.276 -0.043,0.034 -0.062,0.068 -0.053,0.106 -0.043,0.034 -0.063,0.063 -0.063,0.087 0,0.078 0.155,0.116 0.247,0.111 0.184,0.015 0.314,-0.033 0.396,-0.14 C -0.01,0.237 0.005,0.145 0,0 M 1.334,1.015 C 1.261,1.044 1.199,1.039 1.145,1.005 0.967,0.884 0.817,0.826 0.701,0.831 0.633,0.831 0.57,0.831 0.507,0.826 0.42,0.831 0.372,0.865 0.362,0.933 0.338,1.088 0.324,1.16 0.324,1.15 L -0.087,1.015 C -0.087,0.942 -0.131,0.798 -0.131,0.744 -0.237,0.759 -0.319,0.778 -0.372,0.802 -0.401,0.798 -0.45,0.778 -0.522,0.74 -0.594,0.701 -0.638,0.682 -0.648,0.682 -0.86,0.701 -0.996,0.696 -1.054,0.667 -1.087,0.648 -1.107,0.623 -1.116,0.594 L -1.141,0.392 C -1.184,0.333 -1.203,0.271 -1.203,0.208 c 0,-0.111 0.062,-0.218 0.188,-0.319 0.3,-0.251 0.454,-0.382 0.464,-0.397 l 0.058,-0.154 c 0.15,-0.106 0.276,-0.338 0.377,-0.701 0.015,-0.058 0.01,-0.135 -0.015,-0.232 -0.014,-0.039 -0.067,-0.164 -0.067,-0.184 0.053,-0.101 0.097,-0.169 0.13,-0.207 0.015,-0.111 0,-0.232 0.111,-0.285 0.02,-0.01 0.034,-0.015 0.049,-0.015 0.111,0 0.159,0.155 0.155,0.285 -0.02,0.193 -0.03,0.3 -0.03,0.324 0,0.131 0.034,0.295 0.107,0.493 0.019,0.101 0.034,0.179 0.038,0.232 0.348,0.493 0.629,0.875 0.841,1.14 C 1.165,0.28 1.116,0.324 1.063,0.324 1.01,0.324 0.933,0.266 0.822,0.15 0.71,0.029 0.633,-0.044 0.58,-0.068 0.522,-0.116 0.478,-0.155 0.454,-0.188 c -0.082,0.009 -0.121,0.101 -0.116,0.28 0,0 -0.005,0.048 -0.019,0.145 -0.01,0.067 -0.005,0.111 0.014,0.13 0.141,0.126 0.334,0.189 0.585,0.189 0.073,0 0.121,-0.01 0.14,-0.034 0.087,0.024 0.155,0.029 0.208,0.019 0.044,0.01 0.077,0.02 0.102,0.029 0.058,0.174 0.087,0.266 0.087,0.271 0,0.077 -0.039,0.135 -0.121,0.174"
             style="fill:#231f20;fill-opacity:1;fill-rule:nonzero;stroke:none"
             id="path2455" />
        </g>
        <g
           id="g2457"
           transform="translate(172.19,686.313)">
          <path
             d="M 0,0 C -0.015,-0.015 -0.029,-0.03 -0.044,-0.045 0.044,0 0.033,-0.001 0,0"
             style="fill:#231f20;fill-opacity:1;fill-rule:nonzero;stroke:none"
             id="path2459" />
        </g>
        <g
           id="g2461"
           transform="translate(172.19,686.313)">
          <path
             d="M 0,0 C 0.001,0.002 0.003,0.003 0.004,0.005 -0.007,0.004 -0.018,0.004 -0.029,0.002 -0.019,0.001 -0.009,0 0,0"
             style="fill:#231f20;fill-opacity:1;fill-rule:nonzero;stroke:none"
             id="path2463" />
        </g>
        <g
           id="g2465"
           transform="translate(175.2,683.384)">
          <path
             d="m 0,0 c -0.07,-0.021 -0.136,-0.026 -0.204,-0.043 -0.035,-0.009 -0.082,-0.043 -0.085,0.008 -0.002,0.024 0.018,0.054 0.031,0.073 0.018,0.029 0.032,0.039 0.046,0.074 0.018,0.048 0.045,0.083 0.062,0.132 0.034,0.098 0.062,0.203 0.111,0.296 0.024,0.047 0.043,0.087 0.104,0.084 C 0.112,0.623 0.145,0.585 0.185,0.566 0.209,0.555 0.228,0.547 0.252,0.531 0.301,0.497 0.352,0.465 0.403,0.432 0.445,0.404 0.489,0.358 0.535,0.337 0.551,0.329 0.569,0.335 0.584,0.328 0.625,0.311 0.611,0.247 0.595,0.218 0.579,0.188 0.557,0.19 0.53,0.174 0.499,0.155 0.464,0.139 0.431,0.128 0.29,0.078 0.143,0.043 0,0 M 0.428,1.313 C 0.451,1.364 0.468,1.42 0.494,1.469 0.503,1.484 0.509,1.507 0.529,1.509 0.545,1.485 0.55,1.448 0.558,1.42 0.568,1.385 0.582,1.359 0.599,1.327 0.622,1.285 0.627,1.237 0.643,1.192 0.662,1.135 0.703,1.087 0.732,1.034 0.769,0.967 0.792,0.899 0.823,0.829 0.843,0.782 0.87,0.738 0.9,0.696 0.92,0.668 0.945,0.637 0.953,0.602 0.961,0.565 0.942,0.563 0.911,0.565 0.864,0.57 0.83,0.572 0.795,0.606 0.737,0.663 0.665,0.713 0.597,0.758 0.531,0.802 0.462,0.835 0.4,0.885 0.348,0.929 0.295,0.972 0.243,1.015 0.308,1.112 0.379,1.205 0.428,1.313 m 1.923,-1.97 c 0.01,0.01 0.027,0.025 0.032,0.039 0.004,0.015 0,0.033 0.003,0.048 0.004,0.033 0.003,0.066 -0.001,0.099 -10e-4,0.019 -0.014,0.035 -0.015,0.053 0,0.012 0.008,0.023 0.006,0.038 C 2.343,-0.37 2.31,-0.359 2.279,-0.346 2.246,-0.333 2.214,-0.32 2.181,-0.308 2.166,-0.303 2.139,-0.3 2.125,-0.292 2.106,-0.28 2.085,-0.264 2.068,-0.25 2.046,-0.231 2.028,-0.205 2.007,-0.185 1.958,-0.138 1.902,-0.098 1.849,-0.055 1.759,0.018 1.667,0.102 1.619,0.211 1.603,0.248 1.589,0.276 1.562,0.307 1.531,0.341 1.498,0.368 1.475,0.408 1.44,0.466 1.42,0.526 1.378,0.58 1.359,0.605 1.338,0.633 1.321,0.662 1.318,0.667 1.315,0.673 1.313,0.679 1.309,0.689 1.305,0.7 1.301,0.71 L 1.299,0.705 C 1.274,0.768 1.264,0.834 1.231,0.896 1.18,0.991 1.114,1.083 1.044,1.165 0.991,1.228 0.95,1.276 0.916,1.353 0.882,1.429 0.85,1.507 0.814,1.582 0.793,1.626 0.761,1.665 0.744,1.711 0.729,1.753 0.72,1.797 0.707,1.84 0.701,1.862 0.696,1.906 0.682,1.926 0.666,1.948 0.674,1.942 0.645,1.94 0.612,1.937 0.576,1.911 0.551,1.895 0.454,1.835 0.371,1.749 0.297,1.664 0.255,1.614 0.221,1.558 0.19,1.501 0.165,1.456 0.134,1.412 0.113,1.366 0.084,1.303 0.022,1.273 -0.045,1.262 -0.092,1.255 -0.123,1.273 -0.161,1.298 -0.285,1.383 -0.423,1.446 -0.546,1.534 -0.646,1.606 -0.755,1.654 -0.864,1.712 -0.844,1.661 -0.865,1.589 -0.891,1.549 -0.915,1.512 -0.936,1.476 -0.959,1.438 -0.975,1.411 -1.01,1.379 -1.01,1.347 -0.885,1.291 -0.775,1.196 -0.661,1.123 -0.581,1.071 -0.495,1.034 -0.415,0.981 -0.394,0.967 -0.367,0.952 -0.35,0.933 -0.338,0.919 -0.336,0.891 -0.33,0.874 -0.318,0.834 -0.307,0.793 -0.317,0.751 -0.319,0.738 -0.325,0.728 -0.332,0.717 -0.38,0.636 -0.432,0.56 -0.469,0.472 -0.488,0.427 -0.504,0.391 -0.517,0.344 -0.527,0.304 -0.549,0.276 -0.567,0.239 -0.584,0.202 -0.584,0.165 -0.598,0.128 -0.605,0.11 -0.617,0.095 -0.621,0.075 c -0.01,-0.043 0.019,-0.043 0.026,-0.081 0.003,-0.017 -0.002,-0.034 0.002,-0.054 0.008,-0.036 0.012,-0.069 0.018,-0.107 0.009,-0.05 0.027,-0.146 0.057,-0.191 0.088,0.011 0.172,0.055 0.263,0.066 0.156,0.02 0.305,0.066 0.46,0.091 0.128,0.021 0.255,0.052 0.382,0.076 0.121,0.023 0.235,0.073 0.356,0.095 0.027,-0.004 0.054,-0.01 0.081,-0.014 0.06,-0.01 0.121,-0.01 0.181,-0.021 0.155,-0.028 0.317,-0.091 0.45,-0.175 0.11,-0.07 0.211,-0.149 0.316,-0.226 0.043,-0.032 0.092,-0.056 0.135,-0.088 0.03,-0.022 0.055,-0.048 0.083,-0.071 0.026,-0.021 0.072,-0.068 0.107,-0.066 0.023,0.002 0.04,0.019 0.055,0.034"
             style="fill:#231f20;fill-opacity:1;fill-rule:nonzero;stroke:none"
             id="path2467" />
        </g>
        <g
           id="g2469"
           transform="translate(167.198,684.12)">
          <path
             d="m 0,0 c 0.03,-0.022 0.105,-0.094 0.06,-0.134 -0.007,-0.006 -0.088,-0.008 -0.1,-0.01 -0.04,-0.006 -0.08,0.006 -0.12,0.003 -0.029,-0.002 -0.04,-0.012 -0.066,-0.021 -0.029,-0.01 -0.058,-0.006 -0.087,-0.012 -0.127,-0.028 -0.257,-0.06 -0.385,-0.091 -0.087,-0.022 -0.164,-0.046 -0.254,-0.053 -0.011,-0.001 -0.021,-0.002 -0.033,-0.004 0.018,0.011 0.034,0.027 0.045,0.042 0.01,0.013 0.011,0.026 0.016,0.04 0.003,0.011 0.001,0.015 0.007,0.024 0.004,0.006 0.027,0.019 0.032,0.023 0.043,0.038 0.086,0.076 0.13,0.113 0.039,0.034 0.081,0.064 0.124,0.092 0.074,0.049 0.14,0.125 0.2,0.192 0.012,0.013 0.023,0.029 0.037,0.039 0.056,0.038 0.183,0.025 0.21,-0.041 C -0.166,0.16 -0.155,0.132 -0.121,0.099 -0.083,0.063 -0.042,0.03 0,0 M 0.604,1.378 C 0.53,1.342 0.46,1.3 0.391,1.256 0.202,1.138 0.017,0.994 -0.135,0.832 -0.207,0.755 -0.364,0.752 -0.444,0.814 -0.462,0.828 -0.48,0.843 -0.5,0.854 -0.527,0.869 -0.56,0.873 -0.585,0.89 -0.636,0.924 -0.637,0.979 -0.707,0.984 -0.763,0.988 -0.77,0.968 -0.81,0.934 -0.842,0.907 -0.835,0.875 -0.836,0.834 -0.838,0.812 -0.836,0.787 -0.839,0.766 -0.843,0.745 -0.854,0.728 -0.857,0.706 -0.86,0.672 -0.872,0.605 -0.854,0.578 -0.844,0.56 -0.824,0.558 -0.808,0.552 -0.773,0.538 -0.743,0.516 -0.709,0.502 -0.662,0.481 -0.609,0.46 -0.556,0.451 -0.599,0.4 -0.642,0.35 -0.69,0.305 -0.75,0.249 -0.819,0.225 -0.891,0.189 -0.937,0.165 -0.985,0.141 -1.029,0.114 -1.044,0.106 -1.053,0.101 -1.06,0.085 c -0.009,-0.018 0,-0.022 -0.018,-0.028 -0.032,-0.01 -0.138,0.012 -0.147,0.051 -0.005,0.02 0.019,0.041 0.029,0.055 0.058,0.085 0.077,0.205 0.098,0.304 0.006,0.032 0.021,0.061 0.044,0.083 0,0.005 -10e-4,0.01 0,0.014 0.006,0.039 0.019,0.073 0.02,0.113 0.001,0.037 0,0.075 0.003,0.112 0.004,0.035 0.021,0.066 0.034,0.099 0.02,0.051 0.056,0.096 0.079,0.148 0.03,0.067 0.018,0.141 -0.036,0.191 C -0.982,1.252 -1.015,1.269 -1.043,1.295 -1.07,1.32 -1.096,1.324 -1.131,1.313 -1.177,1.299 -1.218,1.271 -1.235,1.225 -1.254,1.175 -1.26,1.121 -1.277,1.07 -1.305,0.986 -1.331,0.901 -1.358,0.816 -1.403,0.677 -1.46,0.535 -1.488,0.392 -1.497,0.343 -1.505,0.291 -1.525,0.245 -1.548,0.193 -1.578,0.148 -1.594,0.092 -1.605,0.055 -1.613,0.016 -1.62,-0.022 c -0.006,-0.032 -10e-4,-0.087 -0.014,-0.115 -0.01,-0.019 -0.004,-0.012 -0.023,-0.025 -0.025,-0.016 -0.049,-0.031 -0.069,-0.054 -0.023,-0.027 -0.045,-0.06 -0.063,-0.092 -0.02,-0.034 -0.028,-0.073 -0.048,-0.108 -0.03,-0.054 -0.062,-0.113 -0.099,-0.162 -0.026,-0.034 -0.049,-0.066 -0.067,-0.105 -0.02,-0.045 -0.04,-0.089 -0.089,-0.104 C -2.107,-0.792 -2.126,-0.792 -2.141,-0.8 -2.157,-0.808 -2.167,-0.824 -2.182,-0.834 -2.205,-0.85 -2.23,-0.862 -2.249,-0.885 -2.293,-0.937 -2.31,-1.01 -2.354,-1.064 -2.389,-1.107 -2.43,-1.179 -2.376,-1.22 c 0.042,-0.032 0.076,-0.032 0.129,-0.034 0.039,-10e-4 0.082,0.008 0.105,0.043 0.007,0.012 0.009,0.026 0.017,0.037 0.031,0.036 0.093,0.032 0.132,0.061 0.037,0.028 0.083,0.041 0.117,0.072 0.025,0.023 0.047,0.052 0.068,0.079 0.017,0.024 0.026,0.056 0.046,0.077 0.022,0.025 0.059,0.048 0.086,0.067 0.036,0.027 0.075,0.049 0.112,0.074 0.022,0.002 0.045,0.006 0.068,0.013 0.034,0.01 0.164,0.031 0.095,0.024 0.072,0.012 0.143,0.038 0.216,0.051 0.178,0.032 0.36,0.052 0.538,0.085 0.076,0.014 0.148,0.039 0.226,0.049 0.109,0.016 0.214,0.031 0.323,0.051 0.118,0.021 0.248,0.028 0.362,0.067 0.022,0.008 0.042,0.021 0.065,0.027 0.031,0.008 0.061,-0.001 0.092,0.003 0.032,0.003 0.05,0.026 0.079,0.037 0.021,0.007 0.042,0.015 0.062,0.024 0.041,0.025 0.046,0.097 0.024,0.137 C 0.562,-0.132 0.512,-0.111 0.481,-0.073 0.441,-0.025 0.399,0.021 0.358,0.069 0.308,0.127 0.265,0.189 0.221,0.252 0.185,0.303 0.152,0.368 0.089,0.389 0.043,0.404 -0.011,0.411 -0.021,0.469 -0.027,0.5 0,0.518 0.018,0.54 c 0.02,0.024 0.035,0.052 0.058,0.073 0.016,0.014 0.035,0.025 0.052,0.036 0.067,0.043 0.126,0.097 0.2,0.128 0.041,0.017 0.084,0.03 0.125,0.046 0.053,0.021 0.094,0.04 0.107,0.099 0.003,0.013 0.002,0.03 0.009,0.042 0.02,0.033 0.071,0.021 0.103,0.02 C 0.716,0.982 0.771,0.987 0.813,0.975 0.823,0.971 0.849,0.949 0.858,0.95 0.881,0.952 0.864,0.998 0.859,1.012 0.853,1.033 0.832,1.045 0.824,1.065 0.818,1.081 0.82,1.092 0.818,1.107 0.809,1.218 0.739,1.312 0.686,1.408 0.656,1.413 0.629,1.39 0.604,1.378"
             style="fill:#231f20;fill-opacity:1;fill-rule:nonzero;stroke:none"
             id="path2471" />
        </g>
      </g>
    </g>
  </g>
</svg>
