<?xml version="1.0" encoding="UTF-8" standalone="no"?>
<!-- Created with Inkscape (http://www.inkscape.org/) -->

<svg
   width="23.869045"
   height="24"
   viewBox="0 0 6.3153516 6.35"
   version="1.1"
   id="svg6104"
   inkscape:version="1.2.1 (9c6d41e4, 2022-07-14)"
   sodipodi:docname="return_to_the_miskatonic_museum.svg"
   xmlns:inkscape="http://www.inkscape.org/namespaces/inkscape"
   xmlns:sodipodi="http://sodipodi.sourceforge.net/DTD/sodipodi-0.dtd"
   xmlns="http://www.w3.org/2000/svg"
   xmlns:svg="http://www.w3.org/2000/svg">
  <sodipodi:namedview
     id="namedview6106"
     pagecolor="#505050"
     bordercolor="#eeeeee"
     borderopacity="1"
     inkscape:showpageshadow="0"
     inkscape:pageopacity="0"
     inkscape:pagecheckerboard="0"
     inkscape:deskcolor="#505050"
     inkscape:document-units="mm"
     showgrid="false"
     inkscape:zoom="0.70199214"
     inkscape:cx="25.641313"
     inkscape:cy="222.22471"
     inkscape:window-width="1390"
     inkscape:window-height="938"
     inkscape:window-x="0"
     inkscape:window-y="25"
     inkscape:window-maximized="0"
     inkscape:current-layer="layer1" />
  <defs
     id="defs6101">
    <clipPath
       clipPathUnits="userSpaceOnUse"
       id="clipPath321">
      <path
         d="m 39.282,440.808 h 22.057 v 22.058 H 39.282 Z"
         id="path319" />
    </clipPath>
  </defs>
  <g
     inkscape:label="Layer 1"
     inkscape:groupmode="layer"
     id="layer1"
     transform="translate(-98.362287,-89.672775)">
    <g
       id="g315"
       transform="matrix(0.2948089,0,0,-0.2948089,86.686242,225.99317)">
      <g
         id="g317"
         clip-path="url(#clipPath321)">
        <g
           id="g323"
           transform="translate(45.365,446.632)">
          <path
             d="m 0,0 c -0.107,-0.116 -0.268,-0.292 -0.289,-0.383 -0.026,-0.111 0.085,-0.263 0.166,-0.374 l 0.027,-0.036 c 0.118,-0.164 0.222,-0.327 0.315,-0.496 0.003,0.012 0.005,0.025 0.007,0.037 0.043,0.271 0.098,0.546 0.146,0.779 0.014,0.065 0.024,0.184 0.035,0.322 C 0.437,0.21 0.47,0.53 0.565,0.734 0.557,0.737 0.549,0.741 0.542,0.744 0.429,0.546 0.293,0.36 0.172,0.198 0.128,0.139 0.066,0.072 0,0"
             style="fill:#231f20;fill-opacity:1;fill-rule:nonzero;stroke:none"
             id="path325" />
        </g>
        <g
           id="g327"
           transform="translate(45.0825,453.656)">
          <path
             d="M 0,0 C -0.016,0.035 -0.033,0.072 -0.05,0.11 -0.137,0.303 -0.249,0.554 -0.389,0.695 -0.418,0.529 -0.481,0.365 -0.531,0.238 L -0.542,0.209 c -0.039,-0.1 -0.083,-0.198 -0.125,-0.292 -0.016,-0.035 -0.032,-0.07 -0.047,-0.105 L -0.731,-0.224 C -0.74,-0.246 -0.75,-0.268 -0.759,-0.29 c -0.108,-0.267 -0.25,-0.376 -0.417,-0.503 -0.031,-0.024 -0.065,-0.049 -0.1,-0.078 -0.357,-0.285 -0.599,-0.418 -1.038,-0.568 -0.026,-0.009 -0.058,-0.022 -0.098,-0.038 -0.011,-0.005 -0.024,-0.01 -0.036,-0.015 l 0.038,-0.007 c 0.332,-0.064 0.708,-0.136 1.022,-0.278 0.157,-0.071 0.339,-0.154 0.52,-0.252 0.321,-0.173 0.55,-0.347 0.721,-0.546 l 0.053,-0.061 c 0.084,-0.098 0.183,-0.212 0.274,-0.328 0.051,0.241 0.098,0.486 0.099,0.709 0.001,0.136 -0.019,0.274 -0.038,0.407 -0.029,0.201 -0.059,0.409 -0.028,0.635 0.008,0.06 0.048,0.112 0.104,0.134 0,0 0.002,0.002 0.004,0.009 0.025,0.063 0.044,0.29 -0.305,1.035 z"
             style="fill:#231f20;fill-opacity:1;fill-rule:nonzero;stroke:none"
             id="path329" />
        </g>
        <g
           id="g331"
           transform="translate(54.7163,447.366)">
          <path
             d="m 0,0 c 0.095,-0.204 0.129,-0.524 0.158,-0.885 0.012,-0.138 0.021,-0.257 0.035,-0.323 0.048,-0.233 0.103,-0.508 0.146,-0.778 0.002,-0.012 0.005,-0.025 0.007,-0.038 0.093,0.169 0.197,0.333 0.316,0.497 l 0.026,0.036 C 0.769,-1.38 0.88,-1.228 0.855,-1.117 0.833,-1.026 0.672,-0.851 0.565,-0.734 0.5,-0.663 0.437,-0.595 0.393,-0.536 0.272,-0.374 0.137,-0.188 0.024,0.01 0.016,0.006 0.008,0.003 0,0"
             style="fill:#231f20;fill-opacity:1;fill-rule:nonzero;stroke:none"
             id="path333" />
        </g>
        <g
           id="g335"
           transform="translate(48.5353,446.925)">
          <path
             d="M 0,0 C -0.025,0.004 -0.052,0.006 -0.085,0.006 -0.119,0.006 -0.153,0.004 -0.189,0.002 -0.229,0 -0.27,-0.002 -0.31,-0.002 c -0.063,0 -0.159,0.004 -0.262,0.042 -0.09,0.033 -0.168,0.075 -0.243,0.115 -0.111,0.06 -0.207,0.111 -0.323,0.128 -0.229,0.033 -0.45,0.048 -0.685,0.063 -0.116,0.008 -0.224,0.016 -0.327,0.025 0.015,-0.107 0.021,-0.213 0.026,-0.32 0.004,-0.065 0.007,-0.131 0.013,-0.199 0.017,-0.208 -0.03,-0.399 -0.075,-0.583 -0.026,-0.106 -0.053,-0.215 -0.065,-0.32 -0.009,-0.085 -0.019,-0.171 -0.029,-0.259 0.386,0.506 0.995,0.869 1.645,0.967 0.076,0.011 0.16,0.032 0.25,0.054 0.152,0.037 0.31,0.076 0.462,0.077 0.088,0 0.186,-0.021 0.285,-0.05 C 0.286,-0.148 0.231,-0.005 0.191,0.124 0.171,0.05 0.105,-0.002 0.027,-0.002 0.018,-0.002 0.009,-0.002 0,0"
             style="fill:#231f20;fill-opacity:1;fill-rule:nonzero;stroke:none"
             id="path337" />
        </g>
        <g
           id="g339"
           transform="translate(59.087,451.9)">
          <path
             d="m 0,0 c -0.185,-0.125 -0.463,-0.18 -0.708,-0.23 -0.094,-0.018 -0.183,-0.036 -0.255,-0.056 -0.373,-0.102 -0.906,-0.278 -1.325,-0.54 -0.141,-0.088 -0.253,-0.219 -0.372,-0.358 -0.11,-0.128 -0.223,-0.26 -0.368,-0.37 -0.088,-0.068 -0.174,-0.172 -0.258,-0.272 -0.055,-0.067 -0.112,-0.135 -0.173,-0.197 l 0.053,-0.032 0.007,-0.005 c 0.338,-0.206 0.688,-0.42 1.04,-0.611 l 0.046,-0.024 c 0.691,-0.365 1.048,-0.633 1.146,-0.866 -0.067,0.414 -0.083,0.847 -0.099,1.254 -0.007,0.185 -0.014,0.361 -0.025,0.53 -0.177,-0.064 -0.389,-0.108 -0.543,-0.124 -0.018,-0.002 -0.035,-0.003 -0.053,-0.003 -0.046,0 -0.09,0.006 -0.125,0.011 -0.01,0.002 -0.019,0.003 -0.028,0.004 -0.058,-0.036 -0.103,-0.056 -0.157,-0.056 -0.014,0 -0.027,0.001 -0.048,0.005 -0.063,0.009 -0.116,0.053 -0.137,0.114 -0.021,0.061 -0.006,0.128 0.039,0.174 0.051,0.053 0.114,0.087 0.188,0.101 0.087,0.078 0.197,0.127 0.296,0.17 0.057,0.025 0.116,0.051 0.164,0.08 0.105,0.061 0.213,0.168 0.317,0.27 0.069,0.068 0.14,0.138 0.213,0.198 0.065,0.055 0.134,0.118 0.206,0.186 0.176,0.162 0.357,0.33 0.552,0.421 0.023,0.011 0.048,0.016 0.073,0.016 0.031,0 0.063,-0.008 0.09,-0.025 0.049,-0.03 0.079,-0.083 0.081,-0.141 0.007,-0.234 -0.12,-0.437 -0.243,-0.634 -0.08,-0.129 -0.163,-0.262 -0.189,-0.382 -0.048,-0.221 -0.036,-0.422 -0.023,-0.635 0.006,-0.091 0.011,-0.185 0.013,-0.284 0.004,-0.273 0.02,-0.531 0.037,-0.804 0.01,-0.17 0.021,-0.341 0.028,-0.519 0.005,-0.109 -0.013,-0.217 -0.031,-0.321 -0.017,-0.101 -0.033,-0.196 -0.024,-0.271 0.004,-0.031 0.034,-0.091 0.058,-0.139 0.036,-0.071 0.072,-0.144 0.089,-0.225 0.011,-0.053 -0.006,-0.107 -0.041,-0.146 0.034,-0.022 0.069,-0.043 0.099,-0.07 0.056,-0.049 0.074,-0.128 0.045,-0.196 -0.028,-0.063 -0.089,-0.104 -0.157,-0.104 -0.006,0 -0.011,10e-4 -0.017,10e-4 -0.025,0.003 -0.052,0.006 -0.08,0.009 -0.087,0.009 -0.185,0.02 -0.278,0.02 -0.22,0 -0.285,-0.059 -0.314,-0.104 -0.032,-0.048 -0.085,-0.077 -0.149,-0.077 h -10e-4 c -0.007,0 -0.015,0 -0.023,0 -0.237,0 -0.487,-0.141 -0.73,-0.277 C -2.18,-5.583 -2.262,-5.629 -2.346,-5.671 -2.433,-5.714 -2.49,-5.767 -2.563,-5.834 -2.613,-5.879 -2.664,-5.926 -2.729,-5.974 -2.81,-6.034 -2.881,-6.07 -2.939,-6.1 -3.034,-6.148 -3.086,-6.175 -3.154,-6.281 -3.263,-6.449 -3.375,-6.627 -3.451,-6.78 -3.482,-6.843 -3.504,-6.92 -3.528,-7 -3.562,-7.117 -3.598,-7.238 -3.667,-7.35 l -0.062,-0.098 c -0.08,-0.129 -0.144,-0.23 -0.218,-0.375 -0.006,-0.013 -0.013,-0.027 -0.02,-0.041 -0.034,-0.071 -0.082,-0.172 -0.174,-0.221 -0.014,-0.047 -0.048,-0.087 -0.096,-0.107 -0.021,-0.009 -0.044,-0.013 -0.067,-0.013 -0.056,0 -0.109,0.028 -0.141,0.074 -0.047,0.069 -0.063,0.131 -0.077,0.185 l -0.006,0.024 c -0.004,0.014 -0.006,0.028 -0.006,0.043 -0.079,0.203 -0.206,0.453 -0.288,0.564 -0.054,0.074 -0.158,0.149 -0.259,0.222 -0.069,0.05 -0.14,0.102 -0.202,0.157 -0.147,0.133 -0.226,0.247 -0.318,0.382 -0.017,0.024 -0.035,0.05 -0.054,0.077 -0.232,0.331 -0.616,0.462 -0.897,0.514 -0.151,0.027 -0.305,0.077 -0.455,0.125 -0.207,0.067 -0.422,0.136 -0.602,0.136 -0.022,0 -0.043,-0.001 -0.064,-0.003 -0.006,-0.001 -0.012,-0.001 -0.017,-0.001 -0.082,0 -0.152,0.058 -0.168,0.138 -0.017,0.087 0.034,0.172 0.119,0.197 0.043,0.013 0.095,0.031 0.155,0.052 0.172,0.062 0.368,0.133 0.536,0.133 0.147,-0.002 0.305,-0.04 0.457,-0.077 0.09,-0.022 0.175,-0.043 0.25,-0.054 0.651,-0.099 1.26,-0.461 1.645,-0.968 -0.01,0.088 -0.02,0.175 -0.029,0.259 -0.011,0.105 -0.038,0.215 -0.064,0.32 -0.046,0.185 -0.093,0.376 -0.075,0.584 0.006,0.068 0.009,0.134 0.012,0.199 0.006,0.107 0.012,0.213 0.026,0.319 -0.102,-0.009 -0.21,-0.017 -0.327,-0.025 -0.234,-0.015 -0.456,-0.029 -0.684,-0.062 -0.117,-0.017 -0.212,-0.069 -0.323,-0.128 -0.076,-0.041 -0.154,-0.082 -0.244,-0.116 -0.102,-0.038 -0.198,-0.042 -0.261,-0.042 -0.041,0 -0.081,0.002 -0.124,0.005 -0.034,0.001 -0.068,0.003 -0.102,0.003 -0.032,0 -0.06,-0.002 -0.085,-0.005 -0.009,-0.002 -0.018,-0.003 -0.027,-0.003 -0.079,0 -0.148,0.054 -0.166,0.132 -0.02,0.082 0.024,0.166 0.101,0.198 0.024,0.027 0.067,0.117 0.128,0.269 0.093,0.23 0.173,0.429 0.364,0.429 0.037,0 0.074,-0.009 0.108,-0.027 0.031,-0.016 0.055,-0.041 0.072,-0.072 0.031,-0.06 0.155,-0.097 0.324,-0.097 0.176,0 0.363,0.039 0.479,0.075 0.042,0.013 0.087,0.034 0.134,0.057 0.073,0.036 0.157,0.076 0.252,0.095 0.02,0.003 0.044,0.005 0.088,0.005 0.031,0 0.07,-0.001 0.107,-0.002 0.007,0 0.015,0 0.021,0 -0.002,0.021 -0.005,0.044 -0.007,0.056 -0.009,0.056 -0.019,0.127 -0.009,0.202 0.009,0.07 0.059,0.126 0.127,0.143 0.014,0.004 0.028,0.006 0.042,0.006 0.051,0 0.099,-0.023 0.131,-0.062 0.049,0.18 0.123,0.349 0.195,0.513 0.11,0.251 0.214,0.487 0.222,0.737 0.01,0.323 -0.079,0.634 -0.173,0.965 -0.051,0.176 -0.103,0.358 -0.139,0.543 -0.072,0.368 -0.135,0.947 -0.075,1.368 0.047,0.326 0.176,0.623 0.302,0.911 0.038,0.088 0.076,0.175 0.112,0.263 0.041,0.102 0.074,0.214 0.11,0.332 0.074,0.25 0.151,0.509 0.318,0.715 0.079,0.096 0.158,0.185 0.235,0.271 0.153,0.171 0.298,0.332 0.417,0.536 0.12,0.204 0.262,0.389 0.4,0.567 0.112,0.146 0.228,0.296 0.327,0.452 0.138,0.218 0.5,0.728 0.867,0.728 0.019,0 0.038,-0.002 0.057,-0.004 C -1.463,5.316 -1.407,5.266 -1.391,5.198 -1.374,5.13 -1.4,5.06 -1.457,5.019 -1.529,4.967 -1.589,4.891 -1.653,4.81 -1.676,4.78 -1.7,4.751 -1.725,4.721 -1.787,4.647 -1.855,4.584 -1.921,4.522 -2.01,4.44 -2.094,4.363 -2.146,4.274 -2.218,4.148 -2.233,3.988 -2.249,3.819 -2.255,3.758 -2.261,3.696 -2.269,3.635 -2.29,3.483 -2.345,3.354 -2.398,3.229 -2.454,3.1 -2.502,2.988 -2.501,2.873 -2.495,2.453 -2.288,1.768 -2.1,1.39 -1.942,1.075 -1.663,0.986 -1.339,0.884 -1.234,0.85 -1.125,0.816 -1.018,0.772 -0.779,0.675 -0.609,0.612 -0.399,0.558 -0.343,0.543 -0.298,0.501 -0.28,0.446 -0.269,0.413 -0.268,0.379 -0.277,0.346 -0.197,0.34 -0.122,0.326 -0.05,0.306 0.014,0.288 0.062,0.235 0.073,0.169 0.084,0.104 0.055,0.037 0,0 m -8.256,-5.097 c -0.057,0.049 -0.086,0.109 -0.11,0.156 l -0.013,0.025 c -0.051,0.096 -0.139,0.179 -0.224,0.26 -0.037,0.034 -0.074,0.069 -0.106,0.083 -0.013,0.005 -0.029,0.008 -0.045,0.008 -0.038,0 -0.083,-0.014 -0.123,-0.04 -0.061,-0.038 -0.115,-0.1 -0.172,-0.166 -0.057,-0.066 -0.116,-0.134 -0.194,-0.194 -0.055,-0.042 -0.112,-0.069 -0.158,-0.091 -0.072,-0.035 -0.104,-0.052 -0.129,-0.096 -0.006,-0.011 -0.012,-0.023 -0.018,-0.037 -0.018,-0.039 -0.041,-0.087 -0.081,-0.132 -0.034,-0.038 -0.068,-0.062 -0.101,-0.081 0.048,-0.039 0.073,-0.102 0.061,-0.166 -0.016,-0.08 -0.087,-0.138 -0.168,-0.138 -0.006,0 -0.011,0 -0.017,0.001 -0.021,0.002 -0.042,0.003 -0.064,0.003 -0.18,0 -0.395,-0.069 -0.603,-0.136 -0.149,-0.048 -0.304,-0.098 -0.454,-0.125 -0.281,-0.052 -0.665,-0.183 -0.897,-0.514 -0.02,-0.027 -0.038,-0.054 -0.055,-0.079 -0.092,-0.132 -0.17,-0.247 -0.318,-0.38 -0.061,-0.055 -0.133,-0.107 -0.202,-0.157 -0.1,-0.073 -0.204,-0.148 -0.258,-0.222 -0.082,-0.111 -0.208,-0.359 -0.288,-0.562 v -0.001 c 0,-0.018 -0.003,-0.036 -0.009,-0.053 l -0.003,-0.015 c -0.014,-0.054 -0.03,-0.116 -0.078,-0.185 -0.032,-0.046 -0.084,-0.074 -0.141,-0.074 -0.023,0 -0.045,0.004 -0.066,0.013 -0.048,0.02 -0.082,0.06 -0.097,0.107 -0.091,0.049 -0.14,0.15 -0.174,0.222 -0.007,0.013 -0.013,0.027 -0.02,0.04 -0.073,0.145 -0.137,0.246 -0.218,0.375 l -0.061,0.099 c -0.069,0.111 -0.105,0.232 -0.139,0.349 -0.024,0.08 -0.046,0.157 -0.078,0.22 -0.076,0.153 -0.188,0.331 -0.296,0.499 -0.069,0.106 -0.121,0.133 -0.215,0.181 -0.058,0.03 -0.13,0.066 -0.21,0.126 -0.066,0.048 -0.117,0.095 -0.166,0.14 -0.073,0.067 -0.131,0.12 -0.217,0.163 -0.084,0.042 -0.166,0.088 -0.253,0.137 -0.242,0.136 -0.492,0.277 -0.729,0.277 -0.008,0 -0.016,0 -0.03,0 -0.058,0 -0.112,0.029 -0.143,0.077 -0.03,0.045 -0.094,0.104 -0.314,0.104 -0.093,0 -0.191,-0.011 -0.278,-0.02 -0.028,-0.003 -0.055,-0.006 -0.08,-0.009 -0.006,0 -0.011,-10e-4 -0.017,-10e-4 -0.068,0 -0.13,0.041 -0.157,0.104 -0.03,0.068 -0.012,0.147 0.045,0.196 0.03,0.027 0.064,0.048 0.099,0.07 -0.035,0.039 -0.053,0.092 -0.041,0.146 0.016,0.081 0.053,0.154 0.089,0.225 0.024,0.048 0.054,0.108 0.057,0.139 0.01,0.075 -0.006,0.17 -0.023,0.271 -0.018,0.104 -0.036,0.212 -0.032,0.321 0.008,0.178 0.019,0.349 0.029,0.519 0.017,0.273 0.033,0.531 0.037,0.804 0.001,0.099 0.007,0.193 0.012,0.284 0.013,0.213 0.026,0.414 -0.022,0.635 -0.026,0.12 -0.109,0.253 -0.189,0.382 -0.123,0.197 -0.25,0.4 -0.243,0.634 0.002,0.058 0.032,0.111 0.081,0.141 0.027,0.017 0.058,0.025 0.09,0.025 0.025,0 0.05,-0.005 0.072,-0.016 0.196,-0.091 0.377,-0.259 0.552,-0.421 0.073,-0.068 0.141,-0.131 0.207,-0.186 0.073,-0.06 0.144,-0.13 0.212,-0.198 0.105,-0.102 0.212,-0.209 0.317,-0.27 0.049,-0.029 0.108,-0.055 0.165,-0.08 0.098,-0.043 0.209,-0.092 0.296,-0.17 0.073,-0.014 0.136,-0.048 0.188,-0.101 0.043,-0.045 0.057,-0.112 0.036,-0.174 -0.021,-0.061 -0.076,-0.105 -0.137,-0.114 -0.016,-0.003 -0.03,-0.005 -0.046,-0.005 -0.053,0 -0.098,0.02 -0.157,0.056 -0.009,-10e-4 -0.018,-0.002 -0.027,-0.004 -0.035,-0.005 -0.079,-0.011 -0.126,-0.011 -0.017,0 -0.035,10e-4 -0.052,0.003 -0.154,0.016 -0.366,0.06 -0.544,0.124 -0.01,-0.169 -0.017,-0.346 -0.024,-0.53 -0.016,-0.407 -0.033,-0.84 -0.099,-1.254 0.098,0.233 0.454,0.501 1.146,0.865 l 0.045,0.025 c 0.163,0.088 0.323,0.181 0.444,0.252 0.208,0.123 0.417,0.25 0.619,0.373 l 0.037,0.023 c -0.06,0.062 -0.117,0.13 -0.173,0.197 -0.083,0.1 -0.169,0.204 -0.258,0.272 -0.145,0.11 -0.258,0.242 -0.368,0.37 -0.062,0.072 -0.12,0.14 -0.182,0.202 -0.068,0.068 -0.128,0.117 -0.189,0.156 -0.42,0.262 -0.953,0.438 -1.326,0.54 -0.071,0.02 -0.16,0.038 -0.255,0.056 -0.245,0.05 -0.522,0.105 -0.707,0.23 -0.055,0.037 -0.084,0.103 -0.073,0.169 0.01,0.066 0.058,0.119 0.122,0.137 0.072,0.02 0.147,0.034 0.228,0.04 -0.009,0.033 -0.009,0.067 0.002,0.1 0.019,0.055 0.063,0.097 0.12,0.112 0.21,0.054 0.38,0.117 0.618,0.214 0.108,0.044 0.217,0.078 0.322,0.112 0.323,0.102 0.603,0.191 0.76,0.506 0.189,0.378 0.395,1.063 0.401,1.483 0.002,0.115 -0.046,0.227 -0.102,0.356 -0.053,0.125 -0.109,0.254 -0.129,0.406 -0.009,0.061 -0.015,0.123 -0.02,0.184 -0.016,0.169 -0.031,0.329 -0.104,0.455 -0.051,0.089 -0.135,0.166 -0.224,0.248 -0.066,0.062 -0.135,0.125 -0.197,0.199 -0.025,0.03 -0.048,0.059 -0.072,0.089 -0.063,0.081 -0.124,0.157 -0.196,0.209 -0.056,0.041 -0.082,0.111 -0.066,0.179 0.017,0.068 0.072,0.118 0.142,0.129 0.018,0.002 0.038,0.004 0.057,0.004 0.367,0 0.728,-0.51 0.867,-0.728 0.098,-0.156 0.214,-0.306 0.327,-0.452 0.138,-0.178 0.28,-0.363 0.4,-0.567 0.006,-0.012 0.013,-0.022 0.021,-0.034 l 0.013,-0.02 c 0.112,-0.179 0.245,-0.327 0.385,-0.484 0.076,-0.085 0.155,-0.173 0.232,-0.269 0.168,-0.206 0.244,-0.465 0.319,-0.715 0.035,-0.118 0.068,-0.23 0.11,-0.332 0.035,-0.088 0.073,-0.175 0.112,-0.264 0.125,-0.287 0.255,-0.584 0.302,-0.91 0.06,-0.421 -0.003,-1 -0.075,-1.368 -0.037,-0.185 -0.089,-0.367 -0.139,-0.543 -0.095,-0.33 -0.184,-0.642 -0.173,-0.965 0.007,-0.25 0.111,-0.487 0.222,-0.738 l 0.043,-0.1 c 0.053,-0.123 0.111,-0.262 0.151,-0.412 0.033,0.039 0.081,0.062 0.131,0.062 0.015,0 0.029,-0.002 0.043,-0.006 0.068,-0.017 0.118,-0.073 0.127,-0.143 0.01,-0.075 -0.001,-0.146 -0.009,-0.202 -0.002,-0.012 -0.006,-0.036 -0.008,-0.056 0.007,0 0.014,0 0.021,0 0.038,10e-4 0.076,0.002 0.107,0.002 0.044,0 0.068,-0.002 0.088,-0.005 0.096,-0.019 0.179,-0.059 0.253,-0.095 0.047,-0.023 0.092,-0.044 0.133,-0.057 0.116,-0.036 0.303,-0.075 0.48,-0.075 0.168,0 0.292,0.037 0.324,0.097 0.016,0.031 0.041,0.056 0.072,0.072 0.034,0.018 0.071,0.027 0.108,0.027 0.191,0 0.271,-0.199 0.364,-0.43 0.061,-0.151 0.103,-0.241 0.127,-0.268 0.022,-0.009 0.04,-0.023 0.055,-0.039 -0.022,0.097 -0.033,0.164 -0.033,0.166 -0.005,0.053 0.013,0.104 0.049,0.138 0,0 10e-4,0.003 10e-4,0.009 0,0.125 -0.008,0.267 -0.061,0.371 -0.011,0.023 -0.018,0.048 -0.018,0.074 -0.002,0.092 -0.005,0.18 -0.009,0.261 l -10e-4,0.023 c -0.02,0.35 -0.034,0.603 -0.064,0.815 -0.002,0.014 -0.002,0.029 0,0.043 0.026,0.237 -0.011,0.435 -0.11,0.589 -0.048,0.075 -0.112,0.138 -0.188,0.187 -0.019,0.012 -0.036,0.028 -0.049,0.047 -0.03,0.043 -0.063,0.089 -0.098,0.136 l -0.012,0.018 -0.012,0.016 -0.009,0.012 c -0.112,0.149 -0.251,0.335 -0.306,0.528 -0.024,0.081 -0.023,0.148 -0.021,0.202 10e-4,0.068 10e-4,0.084 -0.035,0.125 -0.192,0.223 -0.287,0.484 -0.38,0.737 -0.032,0.089 -0.066,0.182 -0.104,0.271 -0.106,0.25 -0.244,0.456 -0.39,0.675 l -0.075,0.114 c -0.01,0.006 -0.02,0.013 -0.032,0.024 -0.009,0.006 -0.017,0.013 -0.024,0.02 -0.022,0.019 -0.038,0.043 -0.047,0.07 -10e-4,0.001 -0.002,0.005 -0.003,0.009 -0.047,0.107 -0.107,0.208 -0.171,0.315 -0.053,0.09 -0.108,0.182 -0.156,0.28 -0.002,0.003 -0.004,0.007 -0.005,0.008 -0.011,0.019 -0.018,0.039 -0.021,0.06 -0.019,0.126 -0.031,0.261 -0.043,0.391 -0.022,0.241 -0.045,0.489 -0.108,0.657 -0.009,0.023 -0.012,0.049 -0.01,0.075 0.002,0.023 0.003,0.046 0.004,0.068 -0.035,0.216 -0.096,0.609 -0.111,0.752 -0.021,0.195 0.026,0.392 0.123,0.516 0.215,0.275 0.431,0.573 0.496,0.919 0.032,0.168 0.034,0.335 0.037,0.496 0.003,0.212 0.006,0.432 0.071,0.668 0.032,0.114 0.076,0.257 0.129,0.411 0.066,0.191 0.41,1.163 0.711,1.504 0.101,0.113 0.276,0.168 0.537,0.168 0.22,0 0.458,-0.039 0.618,-0.071 0.03,-0.006 0.059,-0.02 0.081,-0.041 10e-4,0 0.004,-0.003 0.006,-0.005 0.101,-0.084 0.204,-0.122 0.336,-0.122 0.093,0 0.199,0.02 0.335,0.063 0.019,0.012 0.041,0.02 0.064,0.024 0.188,0.03 0.386,0.093 0.622,0.199 0.226,0.101 0.443,0.15 0.665,0.15 0.18,0 0.363,-0.031 0.575,-0.097 0.066,-0.02 0.112,-0.077 0.12,-0.15 0.066,-0.019 0.129,-0.028 0.188,-0.028 0.087,0 0.158,0.021 0.212,0.061 0.026,0.019 0.056,0.031 0.088,0.034 0.048,0.004 0.096,0.009 0.145,0.014 0.113,0.012 0.23,0.024 0.348,0.024 0.179,0 0.326,-0.028 0.464,-0.088 C -5.626,8.048 -5.472,7.89 -5.37,7.516 -5.367,7.504 -5.364,7.492 -5.364,7.48 L -5.363,7.469 C -5.335,6.94 -5.303,6.341 -4.936,6.124 -4.92,6.115 -4.906,6.103 -4.893,6.089 L -4.888,6.082 -4.876,6.068 C -4.864,6.055 -4.854,6.039 -4.848,6.022 -4.83,5.979 -4.807,5.935 -4.774,5.883 -4.731,5.811 -4.745,5.72 -4.81,5.668 c 0,0 10e-4,-0.002 0.004,-0.007 0.189,-0.315 0.352,-0.536 0.526,-0.716 0.018,-0.019 0.032,-0.043 0.04,-0.068 0.139,-0.44 0.193,-0.872 0.157,-1.25 C -4.119,3.25 -4.366,2.675 -4.605,2.159 -4.606,2.152 -4.606,2.145 -4.607,2.138 -4.607,2.135 -4.609,2.126 -4.61,2.123 -4.616,2.097 -4.628,2.073 -4.645,2.052 -4.707,1.936 -5.03,1.19 -5.084,1.055 -5.104,1.005 -5.118,0.95 -5.132,0.896 -5.165,0.77 -5.202,0.627 -5.318,0.501 -5.399,0.413 -5.498,0.361 -5.585,0.316 -5.639,0.287 -5.691,0.261 -5.73,0.229 -5.847,0.133 -5.938,-0.046 -6.004,-0.177 -6.165,-0.497 -6.276,-0.856 -6.384,-1.204 L -6.419,-1.32 c -0.027,-0.086 -0.052,-0.174 -0.079,-0.278 -0.009,-0.032 -0.027,-0.062 -0.057,-0.089 -0.059,-0.099 -0.076,-0.214 -0.052,-0.341 0.004,-0.021 0.004,-0.042 0.001,-0.063 -0.022,-0.121 -0.042,-0.242 -0.063,-0.375 -0.024,-0.15 -0.05,-0.311 -0.083,-0.494 -0.003,-0.018 -0.01,-0.036 -0.019,-0.052 L -6.78,-3.029 c -0.106,-0.19 -0.206,-0.369 -0.229,-0.576 -0.009,-0.076 -0.008,-0.155 -0.008,-0.232 0.001,-0.15 0.002,-0.32 -0.064,-0.498 -0.079,-0.209 -0.166,-0.428 -0.29,-0.615 -0.12,-0.183 -0.311,-0.292 -0.511,-0.292 -0.135,0 -0.264,0.05 -0.374,0.145 m 10.193,3.764 c -0.035,0.168 -0.112,0.316 -0.08,0.51 0.032,0.19 -0.09,0.374 -0.204,0.541 V -0.394 C 1.64,-0.395 1.627,-0.396 1.614,-0.397 1.608,-0.307 1.585,-0.213 1.6,-0.125 1.649,0.161 1.715,0.445 1.766,0.731 1.78,0.812 1.777,0.901 1.758,0.98 1.694,1.244 1.623,1.506 1.549,1.768 1.488,1.984 1.427,2.201 1.352,2.413 1.308,2.54 1.241,2.659 1.178,2.779 1.152,2.827 1.107,2.865 1.074,2.91 1.059,2.93 1.05,2.954 1.041,2.977 0.993,3.111 1.102,3.25 1.026,3.386 1.001,3.432 0.987,3.487 0.98,3.539 0.96,3.689 0.948,3.84 0.93,3.99 0.928,4.016 0.92,4.044 0.906,4.064 0.823,4.179 0.736,4.291 0.656,4.407 0.641,4.428 0.649,4.463 0.645,4.502 0.458,4.671 0.373,4.936 0.176,5.126 -0.002,5.297 -0.114,5.536 -0.256,5.744 -0.349,5.881 -0.447,6.016 -0.538,6.155 -0.617,6.276 -0.746,6.357 -0.759,6.533 -0.765,6.628 -0.868,6.728 -0.948,6.803 -1.11,6.954 -1.286,7.089 -1.456,7.231 -1.459,7.205 -1.462,7.176 -1.466,7.147 -1.476,7.142 -1.487,7.138 -1.497,7.134 -1.564,7.233 -1.631,7.333 -1.699,7.432 -1.744,7.496 -1.791,7.558 -1.837,7.621 -1.871,7.668 -1.906,7.714 -1.939,7.762 -1.993,7.843 -2.045,7.925 -2.1,8.006 -2.119,8.033 -2.145,8.055 -2.166,8.081 -2.247,8.189 -2.323,8.3 -2.41,8.402 -2.433,8.428 -2.488,8.43 -2.529,8.435 c -0.06,0.008 -0.123,-0.001 -0.18,0.015 -0.238,0.07 -0.477,0.139 -0.71,0.223 -0.095,0.034 -0.187,0.094 -0.26,0.164 -0.222,0.214 -0.499,0.359 -0.708,0.595 -0.11,0.125 -0.288,0.193 -0.442,0.274 -0.172,0.09 -0.35,0.167 -0.527,0.246 -0.096,0.043 -0.193,0.1 -0.294,0.114 -0.199,0.029 -0.403,0.029 -0.603,0.049 -0.232,0.021 -0.472,0.003 -0.687,0.121 -0.23,0.127 -0.481,0.103 -0.728,0.107 -0.018,0 -0.04,-0.003 -0.052,-0.014 -0.111,-0.104 -0.237,-0.06 -0.359,-0.037 -0.019,0.004 -0.029,0.05 -0.049,0.087 -0.057,0.007 -0.129,0.024 -0.202,0.026 -0.154,0.002 -0.309,-0.004 -0.463,-0.006 -0.161,-0.003 -0.322,-0.016 -0.482,-0.003 -0.149,0.012 -0.297,0.051 -0.446,0.079 -0.003,0 -0.004,0.008 -0.006,0.009 -0.061,0.006 -0.128,0.03 -0.181,0.012 -0.139,-0.047 -0.278,-0.102 -0.404,-0.176 -0.066,-0.038 -0.172,-0.059 -0.17,-0.175 0,-0.016 -0.027,-0.038 -0.046,-0.049 -0.077,-0.043 -0.156,-0.083 -0.234,-0.123 0.001,0.012 0.001,0.024 0.002,0.036 -0.022,0.005 -0.047,0.018 -0.067,0.014 -0.114,-0.024 -0.225,-0.056 -0.339,-0.076 -0.045,-0.007 -0.096,0.019 -0.142,0.012 -0.177,-0.03 -0.353,-0.067 -0.529,-0.102 -0.216,-0.041 -0.433,-0.083 -0.649,-0.125 -0.03,-0.006 -0.061,-0.027 -0.089,-0.024 -0.198,0.029 -0.368,-0.079 -0.552,-0.117 -0.032,-0.007 -0.058,-0.049 -0.086,-0.075 0.005,-0.005 0.011,-0.01 0.017,-0.015 0.056,0.018 0.112,0.036 0.168,0.054 0.004,-0.011 0.008,-0.022 0.012,-0.032 -0.117,-0.08 -0.234,-0.159 -0.351,-0.238 -0.005,0.017 -0.011,0.033 -0.016,0.049 -0.041,-0.003 -0.09,0.007 -0.123,-0.011 -0.101,-0.057 -0.196,-0.125 -0.293,-0.189 -0.158,-0.105 -0.308,-0.222 -0.475,-0.31 -0.119,-0.063 -0.268,-0.071 -0.39,-0.132 -0.287,-0.144 -0.573,-0.293 -0.76,-0.573 -0.069,-0.102 -0.148,-0.196 -0.238,-0.316 -0.021,0.042 -0.032,0.064 -0.039,0.08 -0.217,-0.183 -0.296,-0.437 -0.431,-0.656 -0.123,-0.199 -0.25,-0.402 -0.412,-0.567 -0.198,-0.2 -0.438,-0.357 -0.652,-0.542 -0.211,-0.183 -0.251,-0.45 -0.316,-0.702 -0.026,-0.102 -0.049,-0.205 -0.074,-0.308 -0.012,0.003 -0.024,0.005 -0.036,0.008 0.003,0.031 0.007,0.061 0.01,0.092 -0.051,-0.05 -0.07,-0.112 -0.103,-0.165 -0.07,-0.113 -0.148,-0.222 -0.224,-0.332 -0.019,-0.028 -0.048,-0.05 -0.068,-0.078 -0.119,-0.177 -0.237,-0.354 -0.353,-0.533 -0.02,-0.031 -0.028,-0.072 -0.037,-0.109 -0.047,-0.2 -0.087,-0.402 -0.141,-0.6 -0.05,-0.183 -0.115,-0.361 -0.174,-0.541 -0.009,0.003 -0.019,0.005 -0.029,0.008 -0.006,0.018 -0.011,0.036 -0.015,0.046 -0.021,-0.113 -0.052,-0.229 -0.063,-0.347 -0.015,-0.15 -0.009,-0.303 -0.022,-0.453 -0.014,-0.155 0.017,-0.315 -0.067,-0.463 -0.047,-0.083 -0.088,-0.176 -0.103,-0.269 -0.068,-0.405 -0.119,-0.81 -0.33,-1.177 -0.153,-0.265 -0.165,-0.565 -0.112,-0.857 0.086,-0.477 0.17,-0.956 0.358,-1.407 0.011,-0.026 0.041,-0.044 0.058,-0.069 0.063,-0.096 0.124,-0.193 0.186,-0.29 l -0.021,-0.015 c -0.023,0.01 -0.045,0.021 -0.068,0.031 0.104,-0.138 0.123,-0.31 0.074,-0.439 -0.054,-0.145 -0.049,-0.256 0.014,-0.381 0.006,0.011 0.013,0.023 0.034,0.061 0.01,-0.111 0.018,-0.195 0.025,-0.278 0.008,-0.089 0.01,-0.179 0.025,-0.267 0.087,-0.495 0.284,-0.954 0.457,-1.422 0.173,-0.47 0.487,-0.857 0.737,-1.28 0.132,-0.224 0.313,-0.428 0.533,-0.589 0.247,-0.181 0.497,-0.355 0.67,-0.629 0.121,-0.193 0.311,-0.345 0.48,-0.504 0.27,-0.253 0.542,-0.503 0.823,-0.741 0.437,-0.371 0.863,-0.764 1.458,-0.872 0.04,-0.007 0.082,-10e-4 0.122,-0.008 0.14,-0.024 0.289,-0.03 0.417,-0.084 0.131,-0.054 0.241,-0.158 0.362,-0.238 0.02,-0.013 0.05,-0.011 0.075,-0.015 0.039,-0.007 0.088,-10e-4 0.117,-0.021 0.235,-0.169 0.481,-0.311 0.764,-0.387 0.202,-0.054 0.397,-0.131 0.594,-0.201 0.066,-0.024 0.126,-0.082 0.19,-0.084 0.243,-0.005 0.459,-0.114 0.691,-0.162 0.342,-0.07 0.68,-0.163 1.013,0.037 0.036,0.021 0.095,0.009 0.143,0.004 0.048,-0.004 0.097,-0.033 0.142,-0.028 0.449,0.055 0.896,0.116 1.344,0.173 0.226,0.029 0.452,0.054 0.677,0.082 0.179,0.023 0.358,0.042 0.535,0.074 0.223,0.039 0.443,0.091 0.664,0.137 0.012,0.002 0.024,-10e-4 0.035,10e-4 0.104,0.017 0.221,0.009 0.31,0.056 0.265,0.139 0.521,0.298 0.78,0.451 0.079,0.046 0.146,0.136 0.255,0.055 0.011,-0.008 0.043,0.01 0.064,0.02 0.268,0.138 0.559,0.206 0.853,0.252 0.208,0.032 0.298,0.195 0.417,0.33 0.012,0.013 0.005,0.042 0.008,0.081 -0.042,-0.037 -0.072,-0.063 -0.101,-0.089 -0.009,0.005 -0.018,0.011 -0.027,0.016 0.031,0.053 0.052,0.119 0.096,0.156 0.184,0.154 0.364,0.311 0.545,0.466 0.268,0.229 0.475,0.528 0.798,0.698 0.123,0.064 0.217,0.185 0.326,0.277 0.022,0.019 0.052,0.029 0.08,0.039 0.247,0.094 0.483,0.2 0.6,0.465 0.101,0.227 0.202,0.454 0.32,0.673 0.056,0.106 0.141,0.203 0.229,0.287 0.354,0.336 0.731,0.65 0.957,1.1 0.078,0.155 0.184,0.296 0.275,0.446 0.028,0.045 0.052,0.095 0.071,0.146 0.079,0.214 0.166,0.427 0.232,0.645 0.06,0.204 0.102,0.413 0.146,0.621 0.033,0.154 0.047,0.313 0.087,0.466 0.054,0.206 0.159,0.404 0.179,0.611 0.019,0.213 0.065,0.415 0.112,0.62 0.02,0.084 0.066,0.175 0.05,0.252"
             style="fill:#231f20;fill-opacity:1;fill-rule:nonzero;stroke:none"
             id="path341" />
        </g>
        <g
           id="g343"
           transform="translate(57.7072,447.916)">
          <path
             d="M 0,0 C -0.048,0 -0.093,0.02 -0.126,0.055 L -0.18,0.114 C -0.312,0.259 -0.427,0.385 -0.583,0.509 -0.618,0.536 -0.704,0.578 -0.787,0.618 -0.98,0.712 -1.179,0.809 -1.264,0.952 -1.516,1.029 -1.733,1.129 -1.984,1.243 L -2,1.251 C -2.044,1.271 -2.096,1.293 -2.155,1.317 -2.213,1.341 -2.275,1.366 -2.336,1.393 -2.343,1.212 -2.376,1.025 -2.41,0.908 -2.443,0.792 -2.503,0.7 -2.555,0.618 -2.6,0.55 -2.638,0.491 -2.659,0.425 -2.679,0.365 -2.681,0.293 -2.684,0.217 -2.685,0.167 -2.687,0.114 -2.694,0.061 -2.699,0.023 -2.702,-0.013 -2.706,-0.047 c -0.005,-0.044 -0.01,-0.091 -0.017,-0.136 0.234,-0.121 0.456,-0.333 0.655,-0.523 0.057,-0.055 0.113,-0.108 0.166,-0.156 0.127,-0.115 0.21,-0.154 0.327,-0.154 0.081,0 0.178,0.017 0.33,0.048 0.115,0.024 0.268,0.072 0.429,0.122 0.36,0.112 0.768,0.24 1.142,0.24 0.082,0 0.157,-0.009 0.23,-0.021 -0.157,0.27 -0.254,0.577 -0.317,0.9 C 0.234,0.176 0.186,0.09 0.096,0.029 0.067,0.01 0.034,0 0,0"
             style="fill:#231f20;fill-opacity:1;fill-rule:nonzero;stroke:none"
             id="path345" />
        </g>
        <g
           id="g347"
           transform="translate(42.3838,447.289)">
          <path
             d="m 0,0 c 0.072,0.013 0.148,0.021 0.23,0.021 0.374,0 0.782,-0.127 1.142,-0.24 0.161,-0.05 0.314,-0.098 0.429,-0.121 0.151,-0.031 0.249,-0.048 0.33,-0.048 0.117,0 0.2,0.039 0.327,0.154 0.053,0.048 0.108,0.101 0.167,0.156 0.198,0.189 0.42,0.401 0.654,0.522 C 3.271,0.49 3.266,0.536 3.261,0.581 3.258,0.614 3.254,0.65 3.249,0.688 3.243,0.742 3.241,0.794 3.239,0.844 3.237,0.921 3.234,0.993 3.215,1.052 3.206,1.081 3.192,1.11 3.173,1.145 3.154,1.179 3.133,1.211 3.111,1.245 3.059,1.327 2.999,1.419 2.966,1.535 2.932,1.653 2.899,1.84 2.892,2.021 2.831,1.994 2.768,1.968 2.71,1.944 2.653,1.92 2.6,1.898 2.555,1.878 2.421,1.817 2.295,1.759 2.167,1.706 2.041,1.654 1.93,1.613 1.82,1.579 1.735,1.436 1.536,1.339 1.343,1.246 1.26,1.205 1.173,1.163 1.139,1.136 0.983,1.012 0.868,0.887 0.735,0.742 L 0.681,0.683 C 0.649,0.648 0.603,0.627 0.556,0.627 0.521,0.627 0.488,0.638 0.46,0.657 0.37,0.718 0.321,0.804 0.316,0.901 0.254,0.578 0.156,0.27 0,0"
             style="fill:#231f20;fill-opacity:1;fill-rule:nonzero;stroke:none"
             id="path349" />
        </g>
        <g
           id="g351"
           transform="translate(57.8776,452.218)">
          <path
             d="m 0,0 c -0.439,0.15 -0.681,0.283 -1.037,0.568 -0.036,0.029 -0.07,0.055 -0.103,0.079 -0.164,0.126 -0.306,0.234 -0.414,0.502 -0.029,0.072 -0.064,0.147 -0.097,0.221 -0.041,0.09 -0.084,0.183 -0.12,0.277 l -0.012,0.03 C -1.832,1.804 -1.896,1.967 -1.924,2.133 -2.064,1.993 -2.177,1.742 -2.264,1.548 -2.281,1.51 -2.297,1.473 -2.314,1.438 L -2.33,1.404 C -2.678,0.659 -2.659,0.432 -2.635,0.369 -2.633,0.363 -2.631,0.36 -2.631,0.36 -2.574,0.337 -2.535,0.286 -2.526,0.225 -2.496,0 -2.525,-0.208 -2.555,-0.409 c -0.019,-0.134 -0.038,-0.272 -0.038,-0.407 10e-4,-0.223 0.048,-0.467 0.1,-0.71 0.091,0.117 0.189,0.231 0.274,0.328 l 0.052,0.061 c 0.336,0.391 0.859,0.627 1.241,0.799 0.315,0.141 0.691,0.214 1.023,0.278 l 0.038,0.007 C 0.121,-0.047 0.108,-0.042 0.095,-0.037 0.059,-0.022 0.027,-0.009 0,0"
             style="fill:#231f20;fill-opacity:1;fill-rule:nonzero;stroke:none"
             id="path353" />
        </g>
        <g
           id="g355"
           transform="translate(52.0663,451.071)">
          <path
             d="M 0,0 C 0.036,0.115 0.063,0.213 0.087,0.3 0.182,0.642 0.238,0.848 0.584,1.231 0.735,1.397 0.912,1.693 1.099,2.006 1.414,2.531 1.69,2.991 1.982,3.133 1.952,3.199 1.925,3.264 1.899,3.327 1.82,3.516 1.752,3.68 1.631,3.818 1.403,4.081 1.115,4.225 0.837,4.364 0.648,4.459 0.454,4.556 0.277,4.689 L 0.262,4.7 C 0.282,3.842 0.194,2.861 0.017,1.978 -0.151,1.138 -0.475,0.021 -1.061,-0.533 -1.062,-0.534 -1.066,-0.538 -1.067,-0.539 -1.098,-0.566 -1.138,-0.58 -1.179,-0.58 c -0.048,0 -0.095,0.02 -0.127,0.056 -0.048,0.054 -0.057,0.133 -0.023,0.195 0.006,0.019 0.02,0.061 0.032,0.099 0.076,0.241 0.121,0.368 0.173,0.441 0.039,0.124 0.079,0.245 0.119,0.368 0.213,0.656 0.415,1.275 0.485,2.032 0.039,0.427 -0.051,0.935 -0.139,1.425 -0.089,0.498 -0.173,0.97 -0.135,1.378 -0.034,0.017 -0.067,0.032 -0.099,0.047 -0.056,0.026 -0.114,0.055 -0.177,0.09 -0.027,0.014 -0.049,0.036 -0.065,0.062 -0.024,0.041 -0.049,0.08 -0.075,0.119 -0.04,0.062 -0.095,0.14 -0.169,0.205 -0.029,-0.023 -0.066,-0.035 -0.104,-0.035 -0.05,0 -0.098,0.022 -0.13,0.06 -0.029,0.034 -0.057,0.07 -0.084,0.105 -0.041,0.053 -0.117,0.151 -0.142,0.16 0,0 -0.014,-0.003 -0.043,-0.031 C -1.93,6.151 -1.976,6.055 -2.015,5.969 -2.024,5.949 -2.037,5.931 -2.053,5.915 -2.108,5.863 -2.166,5.813 -2.224,5.762 -2.385,5.62 -2.538,5.486 -2.634,5.315 -2.641,5.302 -2.65,5.29 -2.66,5.279 -2.67,5.269 -2.682,5.26 -2.694,5.252 -2.822,5.173 -2.954,5.098 -3.083,5.024 -3.138,4.992 -3.194,4.96 -3.249,4.928 -3.41,4.171 -3.223,2.867 -3.083,2.326 -2.997,1.989 -2.91,1.687 -2.819,1.402 c 0.222,-0.693 0.468,-1.239 0.774,-1.72 0.048,-0.076 0.029,-0.177 -0.044,-0.23 -0.029,-0.021 -0.064,-0.032 -0.1,-0.032 -0.052,0 -0.1,0.022 -0.133,0.062 -0.39,0.478 -0.705,0.929 -0.962,1.38 -0.384,0.673 -0.64,1.341 -0.782,2.042 -0.018,0.09 -0.045,0.202 -0.073,0.32 C -4.208,3.511 -4.29,3.856 -4.32,4.163 -4.512,4.011 -4.723,3.851 -4.945,3.721 -5.097,3.631 -5.252,3.607 -5.393,3.591 c 0.353,-0.438 0.65,-1.18 0.915,-1.843 0.107,-0.27 0.209,-0.524 0.302,-0.726 0.283,-0.611 0.373,-0.788 0.772,-1.211 l 0.009,-0.009 0.01,-0.011 c 0.381,-0.402 0.594,-0.881 0.691,-1.553 0.028,-0.193 0.025,-0.446 0.021,-0.714 -0.005,-0.331 -0.012,-0.87 0.097,-1.028 0.003,0.002 0.006,0.004 0.01,0.007 -0.011,0.856 0.081,1.41 0.197,2.111 0.023,0.143 0.048,0.291 0.073,0.448 0.013,0.084 0.084,0.144 0.168,0.144 0.008,0 0.015,0 0.022,-0.001 0.093,-0.012 0.158,-0.094 0.149,-0.187 -0.041,-0.396 0.011,-1.243 0.086,-1.904 0.077,0.049 0.166,0.09 0.257,0.09 0.028,0 0.056,-0.003 0.083,-0.007 0.09,0.592 0.189,1.26 0.121,1.818 -0.011,0.09 0.05,0.173 0.139,0.189 0.01,0.002 0.021,0.003 0.031,0.003 0.079,0 0.147,-0.054 0.166,-0.131 0.19,-0.776 0.27,-1.34 0.294,-2.126 0.115,0.242 0.146,0.581 0.176,0.909 0.026,0.287 0.054,0.584 0.136,0.841 0.07,0.218 0.15,0.427 0.228,0.63 0.082,0.215 0.167,0.437 0.24,0.67"
             style="fill:#231f20;fill-opacity:1;fill-rule:nonzero;stroke:none"
             id="path357" />
        </g>
        <g
           id="g359"
           transform="translate(52.3136,458.385)">
          <path
             d="m 0,0 0.01,-0.017 c 0.091,-0.15 0.223,-0.259 0.315,-0.259 0.016,0 0.03,0.003 0.044,0.01 0.176,0.085 0.33,0.402 0.265,0.684 C 0.628,0.441 0.617,0.471 0.599,0.507 0.561,0.586 0.501,0.668 0.437,0.73 0.392,0.757 0.343,0.778 0.292,0.791 0.28,0.794 0.269,0.798 0.258,0.803 0.253,0.806 0.248,0.808 0.242,0.81 0.228,0.797 0.214,0.783 0.2,0.769 -0.045,0.532 -0.207,0.375 -0.006,0.009 L 0,0"
             style="fill:#231f20;fill-opacity:1;fill-rule:nonzero;stroke:none"
             id="path361" />
        </g>
        <g
           id="g363"
           transform="translate(49.4223,457.69)">
          <path
             d="M 0,0 C 0.053,0.07 0.111,0.164 0.172,0.263 0.224,0.346 0.277,0.433 0.334,0.515 0.348,0.536 0.368,0.553 0.39,0.566 0.509,0.634 0.622,0.677 0.733,0.698 0.786,0.707 0.84,0.712 0.898,0.712 1.026,0.712 1.151,0.688 1.258,0.666 1.297,0.657 1.331,0.636 1.356,0.606 1.444,0.498 1.525,0.377 1.604,0.26 1.72,0.087 1.84,-0.091 1.97,-0.211 1.975,-0.215 1.979,-0.219 1.986,-0.226 2.285,-0.488 2.58,-0.677 2.892,-0.876 2.974,-0.929 3.057,-0.982 3.141,-1.037 3.783,-1.456 4.442,-1.96 4.88,-3.072 c 0.07,0.163 0.119,0.34 0.097,0.54 C 4.875,-1.585 4.76,-1.459 4.28,-0.927 3.99,-0.606 3.829,-0.283 3.724,-0.018 3.722,-0.019 3.72,-0.02 3.718,-0.022 3.561,-0.122 3.381,-0.177 3.21,-0.177 c -0.273,0 -0.498,0.135 -0.634,0.379 L 2.544,0.258 C 2.523,0.295 2.498,0.339 2.471,0.388 2.228,0.832 2.149,1.124 2.216,1.338 2.251,1.448 2.35,1.549 2.459,1.632 2.121,1.724 1.833,1.765 1.543,1.765 1.227,1.765 0.885,1.715 0.436,1.602 0.35,1.581 0.256,1.57 0.148,1.57 c -0.163,0 -0.33,0.024 -0.506,0.049 l -0.111,0.015 c -0.036,0.005 -0.074,0.01 -0.113,0.015 0.005,-0.012 0.01,-0.023 0.015,-0.035 0.154,-0.387 0.126,-0.797 -0.083,-1.219 -0.159,-0.322 -0.453,-0.523 -0.768,-0.523 -0.18,0 -0.346,0.067 -0.477,0.189 -0.069,-0.472 -0.147,-0.945 -0.356,-1.217 -0.214,-0.279 -0.499,-0.683 -0.628,-1.117 0.416,0.22 1.012,0.703 1.423,1.036 0.273,0.221 0.47,0.381 0.579,0.441 C -0.564,-0.62 -0.268,-0.353 0,0"
             style="fill:#231f20;fill-opacity:1;fill-rule:nonzero;stroke:none"
             id="path365" />
        </g>
        <g
           id="g367"
           transform="translate(48.1749,458.194)">
          <path
             d="M 0,0 C 0.058,0 0.096,0.018 0.133,0.061 0.189,0.127 0.261,0.385 0.257,0.558 0.254,0.682 0.218,0.737 0.168,0.813 0.136,0.862 0.1,0.918 0.072,0.991 0.062,0.998 0.053,1.005 0.046,1.013 0.003,1.02 -0.043,1.029 -0.089,1.045 -0.176,0.99 -0.251,0.912 -0.317,0.808 -0.33,0.769 -0.338,0.734 -0.344,0.699 -0.348,0.679 -0.351,0.657 -0.355,0.634 -0.394,0.377 -0.391,0.214 -0.375,0.138 -0.266,0.078 -0.118,0 0,0"
             style="fill:#231f20;fill-opacity:1;fill-rule:nonzero;stroke:none"
             id="path369" />
        </g>
      </g>
    </g>
  </g>
</svg>
