<?xml version="1.0" encoding="UTF-8" standalone="no"?>
<!-- Created with Inkscape (http://www.inkscape.org/) -->

<svg
   width="23.867979"
   height="24"
   viewBox="0 0 6.3150693 6.35"
   version="1.1"
   id="svg6346"
   inkscape:version="1.2.1 (9c6d41e4, 2022-07-14)"
   sodipodi:docname="return_to_the_essex_county_express.svg"
   xmlns:inkscape="http://www.inkscape.org/namespaces/inkscape"
   xmlns:sodipodi="http://sodipodi.sourceforge.net/DTD/sodipodi-0.dtd"
   xmlns="http://www.w3.org/2000/svg"
   xmlns:svg="http://www.w3.org/2000/svg">
  <sodipodi:namedview
     id="namedview6348"
     pagecolor="#505050"
     bordercolor="#eeeeee"
     borderopacity="1"
     inkscape:showpageshadow="0"
     inkscape:pageopacity="0"
     inkscape:pagecheckerboard="0"
     inkscape:deskcolor="#505050"
     inkscape:document-units="mm"
     showgrid="false"
     inkscape:zoom="0.70199214"
     inkscape:cx="72.650386"
     inkscape:cy="178.06467"
     inkscape:window-width="1390"
     inkscape:window-height="938"
     inkscape:window-x="0"
     inkscape:window-y="25"
     inkscape:window-maximized="0"
     inkscape:current-layer="layer1" />
  <defs
     id="defs6343">
    <clipPath
       clipPathUnits="userSpaceOnUse"
       id="clipPath529">
      <path
         d="m 150.565,440.808 h 22.058 v 22.058 h -22.058 z"
         id="path527" />
    </clipPath>
  </defs>
  <g
     inkscape:label="Layer 1"
     inkscape:groupmode="layer"
     id="layer1"
     transform="translate(-85.924639,-101.35678)">
    <g
       id="g523"
       transform="matrix(0.2948089,0,0,-0.2948089,41.442566,237.73732)">
      <g
         id="g525"
         clip-path="url(#clipPath529)">
        <g
           id="g531"
           transform="translate(162.696,449.654)">
          <path
             d="M 0,0 C 0.321,-0.014 0.644,0.051 0.976,0.036 0.964,0.067 0.953,0.098 0.943,0.129 0.912,0.233 0.895,0.369 0.885,0.513 0.741,0.514 0.598,0.516 0.455,0.516 -0.215,0.517 -0.862,0.588 -1.539,0.588 -1.674,0.587 -2.427,0.546 -3.179,0.534 -3.187,0.482 -3.194,0.43 -3.197,0.378 -3.204,0.257 -3.163,0.145 -3.179,0.06 c 0.363,0.01 0.728,0.027 1.08,0.027 0.392,0 0.79,-0.019 1.181,0.004 C -0.606,0.109 -0.294,0.013 0,0"
             style="fill:#231f20;fill-opacity:1;fill-rule:nonzero;stroke:none"
             id="path533" />
        </g>
        <g
           id="g535"
           transform="translate(160.344,445.583)">
          <path
             d="M 0,0 C 0.018,0.373 -0.022,0.738 0.05,1.103 0.093,1.318 0.073,2.269 0.14,2.632 0.006,2.646 -0.126,2.659 -0.259,2.669 -0.339,2.4 -0.458,2.133 -0.503,1.863 -0.597,1.297 -0.686,0.775 -0.752,0.186 -0.797,-0.213 -1.076,-0.52 -1.2,-0.896 -1.231,-0.99 -1.28,-1.444 -1.426,-1.542 c 0.065,-0.039 0.127,-0.081 0.198,-0.115 0.178,-0.085 0.352,-0.111 0.555,-0.149 0.093,-0.017 0.183,-0.035 0.272,-0.055 -0.081,0.191 0.132,0.698 0.179,0.845 C -0.117,-0.689 -0.017,-0.345 0,0"
             style="fill:#231f20;fill-opacity:1;fill-rule:nonzero;stroke:none"
             id="path537" />
        </g>
        <g
           id="g539"
           transform="translate(162.8,445.138)">
          <path
             d="M 0,0 C -0.046,0.584 -0.213,1.131 -0.251,1.708 -0.267,1.962 -0.355,2.172 -0.422,2.427 -0.454,2.55 -0.44,2.907 -0.507,3.096 -0.628,3.12 -0.749,3.144 -0.871,3.147 -0.856,2.947 -0.909,2.773 -0.927,2.58 -0.949,2.346 -0.841,2.126 -0.835,1.887 -0.826,1.574 -0.985,1.249 -1.002,0.891 c -0.031,-0.664 0.184,-1.319 0.181,-1.99 -0.001,-0.223 0.063,-0.471 0.026,-0.69 -0.01,-0.056 -0.03,-0.107 -0.052,-0.158 0.218,0.035 0.442,0.088 0.624,0.137 0.186,0.05 0.375,0.106 0.564,0.167 C 0.3,-1.505 0.261,-1.316 0.225,-1.171 0.132,-0.804 0.03,-0.385 0,0"
             style="fill:#231f20;fill-opacity:1;fill-rule:nonzero;stroke:none"
             id="path541" />
        </g>
        <g
           id="g543"
           transform="translate(161.624,443.682)">
          <path
             d="m 0,0 c 0.007,0.165 -0.065,0.314 -0.097,0.474 -0.047,0.242 -0.024,0.499 -0.051,0.743 -0.013,0.122 0.016,0.249 0.002,0.371 -0.006,0.055 -0.049,0.152 -0.047,0.199 0.003,0.077 0.073,0.154 0.071,0.221 -0.005,0.195 -0.098,0.341 -0.045,0.544 0.033,0.127 0.113,0.225 0.123,0.362 C -0.019,3.265 -0.07,3.67 -0.102,4.023 -0.119,4.205 -0.109,4.378 -0.172,4.552 -0.173,4.555 -0.174,4.557 -0.175,4.56 -0.363,4.534 -0.554,4.507 -0.75,4.508 c -0.005,0 -0.009,0 -0.014,0 C -0.752,4.35 -0.811,4.143 -0.828,4.075 -0.925,3.688 -0.801,3.269 -0.804,2.864 -0.807,2.363 -1.01,1.947 -1.107,1.473 -1.182,1.102 -1.313,0.771 -1.379,0.388 -1.392,0.309 -1.413,0.092 -1.478,-0.007 c 0.212,-0.053 0.419,-0.117 0.63,-0.208 0.262,-0.113 0.497,-0.312 0.797,-0.311 0.032,0 0.064,0.002 0.097,0.004 C 0.04,-0.485 0.031,-0.448 0.023,-0.41 -0.01,-0.247 -0.007,-0.175 0,0"
             style="fill:#231f20;fill-opacity:1;fill-rule:nonzero;stroke:none"
             id="path545" />
        </g>
        <g
           id="g547"
           transform="translate(166.629,444.519)">
          <path
             d="m 0,0 c -0.029,0.004 -0.061,0.01 -0.092,0.014 -0.672,-0.31 -1.388,-0.623 -2.122,-0.829 -0.637,-0.179 -1.231,-0.419 -1.858,-0.603 -0.216,-0.063 -0.334,-0.135 -0.525,-0.234 -0.189,-0.098 -0.239,-0.058 -0.456,-0.064 -0.044,0.068 -0.429,0.174 -0.561,0.235 -0.188,0.087 -0.387,0.131 -0.594,0.188 -0.521,0.145 -1.027,0.305 -1.53,0.498 -0.425,0.163 -0.867,0.243 -1.277,0.424 -0.205,0.091 -0.818,0.146 -0.722,0.459 0.011,0.009 0.02,0.014 0.03,0.019 -0.035,0.105 0.04,0.274 0.065,0.367 0.073,0.264 0.193,0.526 0.27,0.793 0.06,0.205 0.155,0.392 0.219,0.6 0.043,0.138 0.028,0.307 0.085,0.44 0.076,0.18 0.175,0.32 0.257,0.501 0.062,0.141 0.018,0.245 0.061,0.37 0.029,0.083 0.182,0.319 0.287,0.466 -0.427,-0.02 -0.862,-0.103 -1.274,-0.065 -0.088,0.277 -0.049,0.541 -0.03,0.833 0.008,0.125 -0.058,0.292 -0.057,0.397 0.002,0.097 0.129,0.257 0.107,0.317 0.002,0.077 -0.045,0.058 -0.103,0.095 0.437,0.154 1.017,0.045 1.472,-0.002 0.22,-0.022 0.446,-0.03 0.674,-0.032 0.008,0.159 0.008,0.324 0.047,0.479 -0.63,0.005 -1.149,0.046 -1.136,0.172 0.053,0.007 0.164,0.034 0.074,0.099 0.398,-0.014 0.775,0.065 1.173,0.118 0.03,0.107 0.06,0.215 0.088,0.323 0.06,0.233 0.005,0.562 0.012,0.86 -0.081,0.087 -0.152,0.186 -0.221,0.309 -0.284,0.507 -0.499,0.937 -0.569,1.52 -0.053,0.444 -0.168,1.081 0.047,1.488 0.226,0.428 0.527,0.712 0.89,0.959 0.198,0.135 0.401,0.218 0.602,0.345 0.172,0.11 0.284,0.253 0.483,0.339 0.017,0.128 0.094,0.219 0.141,0.349 0.053,0.148 0.048,0.173 0.051,0.347 -0.046,-0.009 -0.111,0.016 -0.156,0.008 -0.061,0.225 -0.017,0.455 -0.026,0.68 -0.005,0.127 -0.02,0.639 0.215,0.394 0.028,0.15 0.08,0.342 0.081,0.486 0.001,0.195 -0.107,0.364 0,0.551 0.005,-0.002 0.006,-0.005 0.009,-0.007 -0.016,0.027 -0.025,0.053 -0.056,0.083 0.304,0.028 0.607,-0.016 0.922,-0.001 0.199,0.009 0.516,-0.059 0.685,0.002 0.243,-0.223 -0.009,-0.827 0.031,-1.093 0.249,-0.026 0.194,-0.842 0.129,-1.069 -0.038,0.005 -0.09,-0.013 -0.128,-0.008 -0.051,-0.573 0.67,-0.959 1.091,-1.228 0.333,-0.213 0.453,-0.4 0.652,-0.73 0.145,-0.242 0.34,-0.435 0.475,-0.697 C -1.868,9.878 -2.142,9.616 -2.073,9.218 -2.036,9.001 -1.898,8.897 -1.936,8.647 -1.964,8.46 -2.046,8.265 -2.094,8.075 -2.197,7.666 -2.382,7.492 -2.741,7.254 -2.752,7.247 -2.762,7.239 -2.773,7.232 c 0.009,-0.075 0.009,-0.156 0.025,-0.23 0.05,-0.238 0.149,-0.362 0.262,-0.581 0.034,-0.066 0.059,-0.138 0.078,-0.213 0.544,0.008 1.131,-0.047 1.282,-0.41 -0.228,-0.1 -0.578,-0.104 -0.827,-0.125 -0.129,-0.01 -0.258,-0.017 -0.388,-0.021 0.01,-0.174 0.019,-0.347 0.051,-0.501 0.26,0.004 0.519,0.022 0.775,0.051 0.5,0.057 1.004,0.112 1.49,0.183 0,-0.327 -0.137,-0.618 -0.121,-0.964 0.008,-0.155 0.072,-0.314 0.1,-0.488 C -0.029,3.823 -0.054,3.739 0.001,3.65 -0.219,3.695 -0.475,3.786 -0.719,3.745 -0.873,3.718 -1.008,3.635 -1.165,3.622 -1.279,3.612 -1.39,3.622 -1.5,3.64 -1.275,3.351 -1.12,3.006 -0.947,2.689 -0.762,2.348 -0.548,2.01 -0.419,1.639 -0.248,1.146 0.204,0.535 0,0 m -5.978,16.201 c 0.312,0 0.626,0.012 0.937,-0.002 0.459,-0.02 0.921,-0.03 1.383,-0.023 -0.072,-0.148 -0.2,-0.315 -0.301,-0.459 -0.076,-0.108 -0.19,-0.383 -0.287,-0.449 -0.153,-0.103 -0.489,-0.014 -0.669,-0.006 -0.31,0.016 -0.836,0.131 -1.093,-0.022 -0.116,0.198 -0.335,0.78 -0.486,0.774 0.021,-0.004 0.03,0.024 0.024,0.049 -0.081,0.02 -0.157,0.082 -0.211,0.14 0.186,-0.087 0.49,-10e-4 0.703,-0.002 M 5.594,6.762 C 5.626,6.952 5.504,7.137 5.389,7.303 V 7.191 C 5.376,7.19 5.363,7.189 5.35,7.188 5.344,7.279 5.321,7.372 5.336,7.46 5.385,7.746 5.452,8.03 5.503,8.317 5.517,8.397 5.513,8.486 5.494,8.566 5.431,8.829 5.359,9.091 5.285,9.353 5.224,9.569 5.163,9.786 5.089,9.998 c -0.045,0.127 -0.111,0.246 -0.175,0.366 -0.025,0.048 -0.07,0.087 -0.104,0.131 -0.014,0.02 -0.024,0.044 -0.032,0.067 -0.048,0.134 0.061,0.273 -0.015,0.409 -0.026,0.046 -0.04,0.101 -0.047,0.153 -0.019,0.15 -0.032,0.301 -0.049,0.451 -0.003,0.026 -0.01,0.054 -0.025,0.074 -0.082,0.115 -0.169,0.227 -0.25,0.344 -0.014,0.02 -0.007,0.055 -0.01,0.095 -0.187,0.168 -0.272,0.433 -0.47,0.623 -0.177,0.171 -0.29,0.41 -0.431,0.619 C 3.387,13.467 3.29,13.601 3.199,13.74 3.12,13.861 2.99,13.942 2.978,14.118 2.971,14.213 2.869,14.313 2.788,14.388 2.627,14.539 2.451,14.674 2.281,14.816 2.278,14.79 2.274,14.761 2.271,14.732 2.26,14.727 2.25,14.723 2.239,14.719 2.172,14.818 2.105,14.918 2.037,15.017 1.993,15.081 1.945,15.143 1.899,15.206 1.865,15.253 1.83,15.299 1.798,15.347 1.743,15.428 1.691,15.51 1.636,15.591 1.618,15.618 1.591,15.64 1.571,15.666 1.49,15.774 1.413,15.885 1.326,15.987 1.304,16.014 1.248,16.015 1.207,16.02 c -0.06,0.008 -0.123,-0.001 -0.18,0.015 -0.238,0.07 -0.477,0.139 -0.71,0.223 -0.094,0.034 -0.187,0.094 -0.26,0.164 -0.222,0.214 -0.499,0.359 -0.707,0.595 -0.111,0.125 -0.289,0.193 -0.443,0.274 -0.171,0.09 -0.35,0.167 -0.527,0.246 -0.096,0.043 -0.192,0.1 -0.294,0.115 -0.199,0.029 -0.402,0.029 -0.603,0.048 -0.232,0.022 -0.472,0.003 -0.686,0.121 -0.23,0.127 -0.481,0.103 -0.729,0.107 -0.017,0 -0.04,-0.003 -0.052,-0.014 -0.11,-0.104 -0.237,-0.059 -0.359,-0.037 -0.018,0.004 -0.029,0.05 -0.049,0.087 -0.056,0.007 -0.129,0.025 -0.202,0.026 -0.154,0.002 -0.308,-0.004 -0.463,-0.006 -0.16,-0.003 -0.322,-0.016 -0.481,-0.003 -0.15,0.012 -0.298,0.051 -0.446,0.079 -0.003,0 -0.005,0.009 -0.007,0.009 -0.06,0.006 -0.128,0.03 -0.18,0.012 -0.139,-0.047 -0.278,-0.102 -0.405,-0.176 -0.065,-0.038 -0.172,-0.058 -0.17,-0.175 0.001,-0.016 -0.027,-0.038 -0.046,-0.049 -0.077,-0.043 -0.156,-0.083 -0.234,-0.123 10e-4,0.012 0.002,0.024 0.002,0.036 -0.022,0.005 -0.046,0.018 -0.067,0.014 -0.113,-0.024 -0.225,-0.056 -0.338,-0.075 -0.046,-0.008 -0.097,0.018 -0.142,0.011 -0.177,-0.03 -0.353,-0.067 -0.529,-0.101 -0.217,-0.042 -0.433,-0.084 -0.65,-0.126 -0.03,-0.006 -0.061,-0.027 -0.088,-0.024 -0.199,0.029 -0.368,-0.079 -0.552,-0.117 -0.033,-0.007 -0.058,-0.049 -0.087,-0.075 0.006,-0.005 0.012,-0.01 0.017,-0.015 l 0.168,0.054 c 0.005,-0.011 0.009,-0.022 0.013,-0.032 -0.117,-0.079 -0.235,-0.159 -0.352,-0.238 -0.005,0.017 -0.01,0.033 -0.016,0.049 -0.041,-0.003 -0.09,0.007 -0.122,-0.011 -0.102,-0.057 -0.197,-0.125 -0.294,-0.189 -0.157,-0.105 -0.308,-0.222 -0.474,-0.31 -0.12,-0.063 -0.269,-0.071 -0.39,-0.132 -0.287,-0.144 -0.573,-0.293 -0.761,-0.573 -0.068,-0.102 -0.147,-0.196 -0.238,-0.316 -0.02,0.042 -0.031,0.064 -0.039,0.08 -0.217,-0.183 -0.295,-0.437 -0.431,-0.656 -0.123,-0.198 -0.25,-0.402 -0.412,-0.567 -0.197,-0.2 -0.438,-0.357 -0.651,-0.542 -0.212,-0.183 -0.251,-0.45 -0.316,-0.702 -0.026,-0.102 -0.05,-0.205 -0.074,-0.308 -0.012,0.003 -0.025,0.006 -0.037,0.008 0.004,0.031 0.007,0.061 0.011,0.092 -0.051,-0.05 -0.071,-0.112 -0.104,-0.165 -0.07,-0.113 -0.147,-0.222 -0.223,-0.331 -0.02,-0.029 -0.049,-0.051 -0.068,-0.079 -0.119,-0.177 -0.238,-0.354 -0.354,-0.533 -0.02,-0.031 -0.027,-0.072 -0.036,-0.109 -0.048,-0.2 -0.087,-0.402 -0.142,-0.6 -0.05,-0.183 -0.115,-0.361 -0.173,-0.541 l -0.029,0.008 c -0.006,0.018 -0.012,0.036 -0.015,0.047 -0.022,-0.114 -0.053,-0.23 -0.064,-0.348 -0.015,-0.15 -0.008,-0.303 -0.022,-0.453 -0.013,-0.155 0.018,-0.315 -0.066,-0.463 -0.047,-0.083 -0.088,-0.176 -0.104,-0.269 -0.068,-0.405 -0.119,-0.81 -0.33,-1.177 -0.152,-0.265 -0.164,-0.565 -0.111,-0.857 0.086,-0.477 0.17,-0.956 0.358,-1.407 0.011,-0.026 0.041,-0.044 0.057,-0.069 0.063,-0.096 0.124,-0.193 0.186,-0.29 -0.007,-0.005 -0.014,-0.01 -0.021,-0.015 -0.022,0.01 -0.045,0.021 -0.068,0.031 0.104,-0.138 0.123,-0.31 0.075,-0.439 -0.055,-0.144 -0.05,-0.256 0.013,-0.381 0.007,0.011 0.013,0.023 0.034,0.061 0.011,-0.111 0.018,-0.195 0.026,-0.278 0.008,-0.089 0.009,-0.179 0.025,-0.266 0.086,-0.496 0.284,-0.955 0.456,-1.423 0.173,-0.47 0.488,-0.857 0.738,-1.28 0.131,-0.224 0.312,-0.428 0.532,-0.589 0.247,-0.181 0.498,-0.355 0.67,-0.629 0.122,-0.193 0.311,-0.345 0.481,-0.504 0.269,-0.252 0.541,-0.502 0.822,-0.741 0.437,-0.371 0.863,-0.764 1.458,-0.872 0.04,-0.007 0.083,-10e-4 0.123,-0.008 0.14,-0.024 0.288,-0.03 0.416,-0.083 0.131,-0.055 0.241,-0.159 0.362,-0.239 0.02,-0.013 0.05,-0.011 0.075,-0.015 0.04,-0.007 0.088,-10e-4 0.117,-0.021 0.235,-0.169 0.481,-0.31 0.764,-0.386 0.202,-0.055 0.398,-0.132 0.595,-0.202 0.065,-0.024 0.125,-0.082 0.189,-0.084 0.243,-0.005 0.46,-0.114 0.691,-0.162 0.342,-0.07 0.681,-0.163 1.013,0.037 0.036,0.021 0.096,0.009 0.144,0.004 0.047,-0.004 0.096,-0.033 0.142,-0.027 0.448,0.054 0.895,0.115 1.343,0.172 0.226,0.029 0.452,0.054 0.678,0.083 0.178,0.022 0.358,0.041 0.535,0.073 0.222,0.04 0.442,0.091 0.664,0.137 0.011,0.002 0.023,-0.001 0.035,10e-4 0.103,0.017 0.22,0.01 0.309,0.056 0.266,0.139 0.521,0.298 0.78,0.451 0.079,0.046 0.147,0.136 0.255,0.055 0.011,-0.008 0.044,0.01 0.064,0.02 0.269,0.138 0.559,0.206 0.853,0.252 0.208,0.033 0.299,0.195 0.418,0.33 0.011,0.013 0.004,0.042 0.008,0.081 C 0.656,-1.68 0.627,-1.706 0.597,-1.732 0.588,-1.726 0.579,-1.721 0.57,-1.715 c 0.032,0.052 0.052,0.118 0.096,0.155 0.184,0.154 0.364,0.312 0.546,0.466 0.268,0.229 0.474,0.528 0.797,0.698 0.123,0.065 0.217,0.185 0.326,0.277 0.022,0.019 0.052,0.029 0.08,0.039 0.248,0.094 0.484,0.2 0.601,0.465 0.1,0.227 0.202,0.455 0.319,0.673 0.057,0.106 0.141,0.203 0.229,0.287 0.354,0.336 0.732,0.65 0.958,1.1 0.077,0.156 0.184,0.296 0.275,0.446 0.028,0.046 0.051,0.095 0.07,0.145 0.08,0.215 0.166,0.428 0.232,0.646 C 5.16,3.886 5.201,4.095 5.245,4.303 5.278,4.458 5.292,4.617 5.332,4.769 5.386,4.975 5.492,5.173 5.511,5.38 5.531,5.593 5.576,5.796 5.624,6 5.643,6.084 5.689,6.175 5.673,6.252 5.638,6.421 5.561,6.568 5.594,6.762"
             style="fill:#231f20;fill-opacity:1;fill-rule:nonzero;stroke:none"
             id="path549" />
        </g>
        <g
           id="g551"
           transform="translate(159.263,445.78)">
          <path
             d="M 0,0 C 0.056,0.348 0.08,0.687 0.156,1.028 0.219,1.317 0.346,1.564 0.425,1.843 0.453,1.94 0.437,2.281 0.49,2.479 0.292,2.472 0.096,2.45 -0.1,2.429 -0.119,2.363 -0.14,2.297 -0.17,2.218 -0.222,2.084 -0.266,1.933 -0.308,1.799 -0.481,1.25 -0.401,0.578 -0.661,0.049 -0.835,-0.304 -0.963,-0.622 -1.189,-0.952 -1.297,-1.11 -1.343,-1.213 -1.333,-1.366 -1.053,-1.46 -0.776,-1.562 -0.521,-1.657 -0.59,-1.428 -0.36,-0.89 -0.32,-0.785 -0.222,-0.526 -0.045,-0.278 0,0"
             style="fill:#231f20;fill-opacity:1;fill-rule:nonzero;stroke:none"
             id="path553" />
        </g>
        <g
           id="g555"
           transform="translate(160.776,459.503)">
          <path
             d="M 0,0 C 0,-0.007 0,-0.015 -0.001,-0.023 0.003,-0.02 0.006,-0.017 0.01,-0.013 0.006,-0.008 0.003,-0.004 0,0"
             style="fill:#231f20;fill-opacity:1;fill-rule:nonzero;stroke:none"
             id="path557" />
        </g>
        <g
           id="g559"
           transform="translate(165.531,446.711)">
          <path
             d="m 0,0 c -0.092,0.178 -0.223,0.308 -0.335,0.473 -0.107,0.161 -0.072,0.246 -0.117,0.409 -0.038,0.138 -0.146,0.219 -0.202,0.339 -0.043,0.091 -0.041,0.193 -0.054,0.293 -0.083,0.021 -0.166,0.041 -0.247,0.057 -0.195,0.037 -0.398,0.04 -0.604,0.026 0.201,-0.202 0.225,-0.375 0.295,-0.524 0.179,-0.38 0.493,-0.672 0.686,-1.049 0.258,-0.506 0.311,-1.058 0.426,-1.603 0.048,-0.23 0.342,-0.456 0.329,-0.698 0.088,0.04 0.177,0.081 0.267,0.124 0.078,0.038 0.208,0.082 0.325,0.091 -0.031,0.274 -0.101,0.56 -0.226,0.803 C 0.336,-0.855 0.207,-0.4 0,0"
             style="fill:#231f20;fill-opacity:1;fill-rule:nonzero;stroke:none"
             id="path561" />
        </g>
        <g
           id="g563"
           transform="translate(165.172,444.99)">
          <path
             d="m 0,0 c -0.164,0.263 -0.176,0.458 -0.272,0.742 -0.174,0.519 -0.302,1.095 -0.602,1.552 -0.12,0.183 -0.158,0.369 -0.244,0.554 -0.071,0.153 -0.148,0.298 -0.205,0.46 -0.169,-0.016 -0.34,-0.04 -0.509,-0.062 0.143,-0.149 0.26,-0.387 0.306,-0.48 0.111,-0.218 0.216,-0.41 0.303,-0.643 0.044,-0.118 0.093,-0.172 0.128,-0.307 0.029,-0.111 0.026,-0.224 0.048,-0.333 0.055,-0.267 0.181,-0.522 0.246,-0.788 0.072,-0.296 0.089,-0.525 0.252,-0.779 0.089,-0.139 0.326,-0.597 0.218,-0.815 0.041,0.015 0.082,0.03 0.123,0.044 0.204,0.071 0.392,0.146 0.579,0.226 C 0.156,-0.524 0.121,-0.193 0,0"
             style="fill:#231f20;fill-opacity:1;fill-rule:nonzero;stroke:none"
             id="path565" />
        </g>
        <g
           id="g567"
           transform="translate(164.038,445.242)">
          <path
             d="M 0,0 C -0.073,0.251 -0.091,0.521 -0.15,0.778 -0.217,1.074 -0.338,1.357 -0.441,1.642 -0.502,1.81 -0.525,1.915 -0.565,2.089 -0.606,2.272 -0.75,2.393 -0.814,2.567 -0.844,2.649 -0.931,2.831 -0.975,2.964 -1.132,2.949 -1.287,2.941 -1.438,2.948 -1.503,2.951 -1.569,2.96 -1.634,2.972 c 0.244,-0.244 0.24,-0.671 0.32,-0.932 0.1,-0.323 0.237,-0.573 0.226,-0.903 -0.014,-0.397 0.06,-0.811 0.126,-1.194 0.062,-0.36 0.013,-0.774 0.122,-1.123 0.053,-0.173 0.204,-0.304 0.227,-0.473 0.42,0.141 0.842,0.297 1.254,0.445 C 0.334,-0.965 0.105,-0.361 0,0"
             style="fill:#231f20;fill-opacity:1;fill-rule:nonzero;stroke:none"
             id="path569" />
        </g>
        <g
           id="g571"
           transform="translate(162.569,454.52)">
          <path
             d="M 0,0 C 0.188,-0.359 0.716,0.25 0.278,0.439 0.261,0.43 0.249,0.417 0.244,0.399 0.147,0.436 0.091,0.408 0.005,0.369 -0.143,0.324 -0.151,0.165 -0.127,0.035 -0.085,0.016 -0.047,0.002 0,0"
             style="fill:#231f20;fill-opacity:1;fill-rule:nonzero;stroke:none"
             id="path573" />
        </g>
        <g
           id="g575"
           transform="translate(160.219,452.935)">
          <path
             d="M 0,0 C -0.295,-0.039 -0.18,-0.294 0.04,-0.34 0.266,-0.386 0.532,-0.287 0.544,-0.057 0.496,0.011 0.49,-0.002 0.461,0.1 0.318,0.146 0.187,0.118 0.055,0.052 Z"
             style="fill:#231f20;fill-opacity:1;fill-rule:nonzero;stroke:none"
             id="path577" />
        </g>
        <g
           id="g579"
           transform="translate(161.888,453.366)">
          <path
             d="M 0,0 C 0.58,0.252 0.295,1.079 -0.223,1.206 -0.518,1.278 -0.932,1.203 -0.93,0.977 -1.049,0.8 -1.222,0.741 -1.203,0.481 -1.195,0.37 -1.162,0.21 -1.069,0.127 -0.864,-0.054 -0.244,-0.106 0,0"
             style="fill:#231f20;fill-opacity:1;fill-rule:nonzero;stroke:none"
             id="path581" />
        </g>
        <g
           id="g583"
           transform="translate(160.083,454.916)">
          <path
             d="M 0,0 C 0.004,-0.001 0.008,-0.001 0.013,-0.002 0.018,-0.002 0.022,0 0.027,0 Z"
             style="fill:#231f20;fill-opacity:1;fill-rule:nonzero;stroke:none"
             id="path585" />
        </g>
        <g
           id="g587"
           transform="translate(160.969,457.648)">
          <path
             d="M 0,0 C -0.01,-0.223 0.445,-0.211 0.613,-0.225 0.962,-0.255 0.995,-0.069 1.232,0.034 1.207,0.233 1.248,0.335 1.316,0.518 1.177,0.583 1.186,0.769 1.045,0.864 0.94,0.935 0.742,1.026 0.617,0.967 c 0.003,0 0.006,0 0.01,0 C 0.606,0.966 0.592,0.96 0.606,0.942 0.489,1.077 0.185,1.012 0.109,0.842 -0.169,0.776 -0.387,0.056 0,0"
             style="fill:#231f20;fill-opacity:1;fill-rule:nonzero;stroke:none"
             id="path589" />
        </g>
        <g
           id="g591"
           transform="translate(162.464,453.169)">
          <path
             d="M 0,0 C 0.054,-0.098 0.146,-0.16 0.196,-0.257 0.412,-0.281 0.772,-0.251 0.651,0.072 0.559,0.317 0.194,0.264 -0.023,0.231 -0.031,0.204 -0.046,0.134 -0.046,0.107 0.002,0.101 0.063,0.124 0.109,0.156 Z"
             style="fill:#231f20;fill-opacity:1;fill-rule:nonzero;stroke:none"
             id="path593" />
        </g>
        <g
           id="g595"
           transform="translate(158.366,445.96)">
          <path
             d="M 0,0 C 0.158,0.391 0.088,0.795 0.228,1.177 0.302,1.38 0.507,1.547 0.552,1.783 0.578,1.917 0.581,2.077 0.579,2.226 0.416,2.211 0.252,2.201 0.086,2.205 0.074,2.136 0.059,2.071 0.051,2.04 -0.046,1.668 -0.223,1.267 -0.402,0.916 -0.61,0.507 -0.797,0.17 -0.877,-0.276 c -0.059,-0.328 -0.167,-0.63 -0.258,-0.95 -0.009,-0.032 -0.021,-0.067 -0.036,-0.101 0.163,-0.041 0.332,-0.089 0.505,-0.144 0.052,0.155 0.122,0.329 0.19,0.457 0.088,0.169 0.204,0.291 0.274,0.453 C -0.122,-0.377 -0.077,-0.189 0,0"
             style="fill:#231f20;fill-opacity:1;fill-rule:nonzero;stroke:none"
             id="path597" />
        </g>
        <g
           id="g599"
           transform="translate(162.966,451.133)">
          <path
             d="m 0,0 c -0.372,-0.174 -0.703,-0.265 -1.12,-0.317 -0.472,-0.059 -0.703,0.096 -1.119,0.192 0.026,0.288 -0.406,0.153 -0.61,0.204 C -2.991,0.114 -3.138,0.19 -3.267,0.263 -3.27,0.212 -3.274,0.161 -3.282,0.109 c -0.032,-0.216 -0.073,-0.397 -0.092,-0.62 0,-0.003 -10e-4,-0.007 -10e-4,-0.011 0.325,0.012 0.659,0.004 0.974,0.013 0.952,0.027 1.909,0.061 2.86,0.071 0.041,0 0.088,0.002 0.138,0.004 0,0.014 0,0.029 0,0.042 C 0.593,-0.245 0.58,0.065 0.534,0.346 0.376,0.221 0.214,0.1 0,0"
             style="fill:#231f20;fill-opacity:1;fill-rule:nonzero;stroke:none"
             id="path601" />
        </g>
        <g
           id="g603"
           transform="translate(160.104,454.415)">
          <path
             d="M 0,0 C 0.18,-0.051 0.25,0.105 0.413,0.14 0.426,0.238 0.414,0.33 0.387,0.418 0.258,0.466 0.119,0.477 -0.009,0.499 -0.106,0.492 -0.186,0.452 -0.243,0.371 -0.113,0.237 -0.199,0.057 0,0"
             style="fill:#231f20;fill-opacity:1;fill-rule:nonzero;stroke:none"
             id="path605" />
        </g>
        <g
           id="g607"
           transform="translate(159.285,454.211)">
          <path
             d="M 0,0 C 0.033,0.139 0.211,0.254 0.245,0.393 0.296,0.608 0.158,0.729 0.332,0.933 0.43,1.049 0.661,1.261 0.825,1.226 0.804,1.397 0.954,1.484 1.121,1.569 1.211,1.748 1.618,1.761 1.824,1.812 2.085,1.876 2.401,1.88 2.653,1.771 2.837,1.69 3.022,1.502 3.207,1.401 3.417,1.286 3.64,1.19 3.809,1.01 4.02,0.785 4.354,0.414 4.358,0.106 4.361,-0.134 4.276,-0.398 4.274,-0.651 4.272,-0.809 4.306,-1.003 4.274,-1.158 4.174,-1.65 3.787,-1.802 3.385,-2.044 2.907,-2.334 2.653,-2.463 2.055,-2.373 1.654,-2.313 1.196,-2.218 0.874,-2.006 0.517,-1.771 0.455,-1.393 0.25,-1.015 0.146,-0.822 0.051,-0.716 0.03,-0.491 0.018,-0.355 -0.03,-0.127 0,0 M 0.139,-1.871 H 0.14 c 0.173,-0.269 0.427,-0.514 0.668,-0.352 0.099,-0.321 0.843,-0.403 1.147,-0.443 0.469,-0.062 0.95,0.01 1.369,0.185 0.255,0.107 0.46,0.188 0.645,0.305 -0.009,0.004 -0.018,0.008 -0.028,0.01 l 0.035,-0.006 c 0.136,0.087 0.263,0.193 0.391,0.346 0.207,0.248 0.394,0.492 0.438,0.834 0.04,0.316 0.029,0.683 0.027,0.995 C 4.83,0.345 4.609,0.607 4.49,0.912 4.353,1.264 4.09,1.363 3.842,1.615 3.612,1.849 3.473,1.942 3.147,2.034 2.776,2.139 2.384,2.181 1.972,2.105 1.783,2.07 1.102,2.004 1.356,1.902 1.139,1.921 1.011,1.857 0.839,1.756 0.72,1.686 0.519,1.604 0.399,1.523 0.333,1.478 0.323,1.395 0.248,1.35 0.085,1.252 -0.054,1.241 -0.173,1.087 -0.298,0.925 -0.342,0.693 -0.342,0.494 c 0,-0.31 -0.01,-0.639 -0.041,-0.924 -0.04,-0.361 0.236,-0.639 0.315,-0.997 0.021,-0.094 0.098,-0.274 0.207,-0.444 z"
             style="fill:#231f20;fill-opacity:1;fill-rule:nonzero;stroke:none"
             id="path609" />
        </g>
      </g>
    </g>
  </g>
</svg>
