<?xml version="1.0" encoding="UTF-8" standalone="no"?>
<!-- Created with Inkscape (http://www.inkscape.org/) -->

<svg
   width="23.869074"
   height="24"
   viewBox="0 0 6.315359 6.35"
   version="1.1"
   id="svg5974"
   inkscape:version="1.2.1 (9c6d41e4, 2022-07-14)"
   sodipodi:docname="return_to_the_house_always_wins.svg"
   xmlns:inkscape="http://www.inkscape.org/namespaces/inkscape"
   xmlns:sodipodi="http://sodipodi.sourceforge.net/DTD/sodipodi-0.dtd"
   xmlns="http://www.w3.org/2000/svg"
   xmlns:svg="http://www.w3.org/2000/svg">
  <sodipodi:namedview
     id="namedview5976"
     pagecolor="#505050"
     bordercolor="#eeeeee"
     borderopacity="1"
     inkscape:showpageshadow="0"
     inkscape:pageopacity="0"
     inkscape:pagecheckerboard="0"
     inkscape:deskcolor="#505050"
     inkscape:document-units="mm"
     showgrid="false"
     inkscape:zoom="0.70199214"
     inkscape:cx="219.37567"
     inkscape:cy="280.62992"
     inkscape:window-width="1390"
     inkscape:window-height="938"
     inkscape:window-x="0"
     inkscape:window-y="25"
     inkscape:window-maximized="0"
     inkscape:current-layer="layer1" />
  <defs
     id="defs5971">
    <clipPath
       clipPathUnits="userSpaceOnUse"
       id="clipPath489">
      <path
         d="m 150.565,468.38 h 22.058 v 22.058 h -22.058 z"
         id="path487" />
    </clipPath>
  </defs>
  <g
     inkscape:label="Layer 1"
     inkscape:groupmode="layer"
     id="layer1"
     transform="translate(-47.103391,-74.219755)">
    <g
       id="g483"
       transform="matrix(0.2948087,0,0,-0.2948087,2.5762427,218.69737)">
      <g
         id="g485"
         clip-path="url(#clipPath489)">
        <g
           id="g491"
           transform="translate(166.217,478.513)">
          <path
             d="m 0,0 c -0.152,0.071 -0.317,0.113 -0.469,0.185 -0.215,0.103 -0.4,0.266 -0.528,0.467 -0.035,0.053 -0.067,0.111 -0.123,0.142 -0.081,0.045 -0.182,0.016 -0.273,0.03 -0.231,0.034 -0.353,0.324 -0.582,0.37 -0.076,0.015 -0.155,0.001 -0.233,0.001 -0.27,-0.001 -0.51,0.168 -0.706,0.353 -0.073,0.069 -0.179,0.099 -0.238,0.18 -0.667,0.916 -0.382,0.566 -0.31,-0.742 0.011,-0.198 -0.015,-0.396 -0.022,-0.595 -0.003,-0.077 0.026,-0.372 -10e-4,-0.496 0.162,0.389 0.255,0.434 0.481,0.672 0.141,0.147 0.697,0.111 0.888,0.035 0.243,-0.096 0.289,-0.114 0.494,-0.274 0.206,-0.16 0.37,-0.394 0.385,-0.655 0.014,-0.242 -0.1,-0.483 -0.063,-0.723 -0.243,0.678 -0.464,0.894 -0.829,0.894 -0.305,0 -0.672,-0.263 -0.631,-0.606 0.017,-0.133 0.051,-0.305 0.107,-0.427 0.167,-0.36 0.614,-0.484 1.01,-0.52 0.567,-0.051 1.141,-0.005 1.696,0.124 0.063,0.015 0.13,0.033 0.175,0.08 0.048,0.052 0.059,0.128 0.093,0.19 0.031,0.058 0.081,0.104 0.122,0.156 0.017,0.021 0.032,0.045 0.045,0.069 0.102,0.181 0.102,0.415 0.016,0.607 C 0.408,-0.265 0.216,-0.1 0,0"
             style="fill:#231f20;fill-opacity:1;fill-rule:nonzero;stroke:none"
             id="path493" />
        </g>
        <g
           id="g495"
           transform="translate(163.133,483.469)">
          <path
             d="m 0,0 c -0.022,-0.018 -0.042,-0.04 -0.057,-0.066 -0.091,-0.163 -0.318,-0.467 -0.368,-0.728 -0.02,-0.109 -0.01,-0.21 0.054,-0.291 0.188,-0.24 0.318,-0.039 0.424,0.145 0.126,0.216 0.216,0.304 0.465,0.38 0.147,0.044 0.31,0.117 0.351,0.265 C 0.927,-0.08 0.703,0.06 0.678,0.26 0.671,0.32 0.669,0.385 0.635,0.41 0.561,0.466 0.429,0.53 0.359,0.588 0.182,0.734 0.025,1.014 -0.166,1.237 -0.2,1.214 -0.233,1.196 -0.265,1.177 -0.306,1.181 -0.346,1.173 -0.385,1.159 -0.59,1.231 -0.823,1.19 -1.026,1.096 -1.056,1.12 -1.092,1.137 -1.132,1.144 -1.39,1.186 -1.644,1.198 -1.906,1.198 -1.946,1.198 -1.981,1.191 -2.013,1.179 -2.069,1.21 -2.136,1.226 -2.201,1.218 -2.234,1.248 -2.268,1.277 -2.302,1.297 -2.31,1.286 -2.32,1.275 -2.328,1.264 -2.588,0.9 -2.904,0.586 -3.223,0.257 -3.234,0.249 -3.245,0.24 -3.255,0.23 c -0.085,-0.093 -0.11,-0.269 0,-0.358 0.325,-0.263 0.537,-0.576 0.907,-0.785 0.099,-0.056 0.172,-0.134 0.225,-0.233 0.099,0.185 0.004,0.453 -0.072,0.635 -0.086,0.205 -0.214,0.402 -0.429,0.485 -0.003,0.004 -0.005,0.008 -0.009,0.011 -0.024,0.024 -0.048,0.047 -0.072,0.07 -0.013,0.131 0.18,0.281 0.366,0.416 0.037,-0.018 0.081,-0.029 0.131,-0.028 0.037,0 0.073,-0.001 0.109,-0.002 0.062,-0.025 0.13,-0.032 0.193,-0.01 0.538,-0.04 1.06,-0.156 1.589,0.029 C -0.213,0.306 -0.121,0.143 0,0"
             style="fill:#231f20;fill-opacity:1;fill-rule:nonzero;stroke:none"
             id="path497" />
        </g>
        <g
           id="g499"
           transform="translate(168.059,477.541)">
          <path
             d="M 0,0 C -0.228,-0.254 -0.429,-0.524 -0.653,-0.792 -0.885,-1.07 -1.158,-1.091 -1.495,-1.198 -1.76,-1.283 -1.921,-1.434 -2.21,-1.462 c -0.314,-0.031 -0.61,-0.016 -0.925,-0.072 -0.317,-0.057 -0.636,-0.046 -0.933,0.075 -0.154,0.062 -0.335,0.185 -0.489,0.222 -0.225,0.054 -0.202,0.021 -0.37,0.145 -0.17,0.127 -0.247,0.202 -0.306,0.33 -0.012,-0.922 -0.012,-1.207 0.022,-1.286 0.153,-0.354 0.251,-0.712 0.396,-1.073 0.154,-0.386 0.36,-0.782 0.705,-1.049 0.183,-0.142 0.397,-0.329 0.587,-0.446 0.178,-0.109 0.385,-0.169 0.567,-0.286 0.184,-0.118 0.508,-0.188 0.585,-0.384 0.067,-0.17 -10e-4,-0.357 -0.176,-0.378 -0.279,-0.035 -1.051,0.316 -1.31,0.076 -0.188,0.127 -0.23,0.394 -0.35,0.57 -0.182,0.268 -0.319,0.451 -0.582,0.661 -0.241,0.191 -0.418,0.277 -0.55,0.563 -0.009,0.019 -0.019,0.035 -0.037,0.047 0.107,-0.071 -0.112,-0.569 -0.12,-0.664 -0.021,-0.238 0.01,-0.481 0.091,-0.707 0.061,-0.169 0.286,-0.352 0.243,-0.52 -0.595,0.138 -1.197,0.164 -1.795,0.063 0.09,0.067 0.134,0.17 0.134,0.277 0,0.126 -0.052,0.246 -0.099,0.363 -0.12,0.303 0.065,0.435 0.019,0.725 -0.022,0.141 -0.132,0.505 -0.361,0.394 -0.003,-0.001 -0.006,-0.005 -0.008,-0.008 -0.073,-0.15 -0.084,-0.267 -0.117,-0.42 -0.039,-0.18 -0.037,-0.179 -0.206,-0.307 -0.287,-0.219 -0.55,-0.363 -0.803,-0.61 -0.177,-0.174 -0.136,-0.301 -0.058,-0.517 -0.072,0.06 -0.3,0.096 -0.395,0.079 -0.095,-0.016 -0.18,-0.094 -0.29,-0.11 -0.104,-0.014 -0.21,0.016 -0.31,0.019 -0.082,0.002 -0.41,-0.071 -0.458,-0.042 -0.071,0.042 -0.144,0.314 -0.171,0.4 0.537,-0.013 0.812,0.483 1.199,0.739 0.524,0.347 0.984,0.718 1.21,1.338 0.182,0.497 0.349,0.668 0.63,1.149 0.049,0.082 0.07,0.632 0.077,1.399 -0.033,-0.042 -0.066,-0.086 -0.099,-0.132 -0.1,-0.142 -0.115,-0.186 -0.258,-0.226 -0.078,-0.023 -0.194,0.009 -0.273,-0.016 -0.187,-0.061 -0.33,-0.233 -0.515,-0.318 -0.874,-0.402 -2.147,-0.376 -2.997,0.072 -0.284,0.149 -0.623,0.226 -0.911,0.391 -0.273,0.156 -0.405,0.463 -0.601,0.703 -0.18,0.22 -0.301,0.503 -0.323,0.779 -0.002,0.026 -0.005,0.05 -0.007,0.075 0.008,0.008 0.016,0.017 0.022,0.027 0.127,0.178 0.183,0.4 0.188,0.616 0,0.01 -0.002,0.019 -0.003,0.028 0.032,0.004 0.063,0.012 0.091,0.029 0.142,0.084 0.287,0.16 0.428,0.244 0.005,0.003 0.009,0.007 0.014,0.01 0.088,-0.095 0.234,-0.128 0.343,-10e-4 0.036,0.043 0.073,0.078 0.11,0.111 0.155,0.034 0.301,0.088 0.409,0.19 0.086,0.015 0.178,0.022 0.28,0.022 0.094,10e-4 0.16,0.045 0.2,0.105 0.069,-0.053 0.164,-0.07 0.263,-0.009 0.292,0.179 0.55,0.342 0.905,0.28 0.149,-0.026 0.257,0.067 0.298,0.179 0.049,0.007 0.095,0.03 0.131,0.069 0.027,0.03 0.052,0.064 0.075,0.097 0.007,0.01 0.014,0.02 0.02,0.03 0.08,0.093 0.096,0.239 0.012,0.335 0.063,0.199 -0.094,0.478 -0.154,0.631 -0.107,0.272 -0.024,0.378 0.114,0.585 0.014,0.001 0.029,0.003 0.043,0.004 0.017,0 0.034,-0.001 0.05,-0.001 0.003,0 0.004,0 0.006,0 0.124,0.147 0.388,0.269 0.49,-0.341 0.008,-0.044 -0.041,-0.446 0.003,-0.451 0.056,-0.005 0.108,-0.035 0.163,-0.045 0.495,-0.09 0.568,0.762 0.351,1.033 -0.206,0.258 -0.485,0.623 -0.843,0.631 -0.02,0.001 -0.04,-0.002 -0.06,-0.007 -0.02,0.004 -0.04,0.008 -0.062,0.007 C -9.19,5.028 -9.322,5.004 -9.433,4.934 -9.436,4.931 -9.44,4.928 -9.444,4.925 -9.452,4.926 -9.459,4.928 -9.468,4.928 -9.603,4.928 -9.681,4.841 -9.704,4.739 -9.709,4.737 -9.713,4.736 -9.718,4.734 -10,4.605 -10.509,4.126 -10.199,3.839 c 0.13,-0.121 0.357,-0.084 0.502,-0.253 0.179,-0.21 0.085,-0.319 -0.151,-0.414 -0.194,-0.077 -0.343,-0.011 -0.537,-0.044 -0.178,-0.031 -0.403,-0.159 -0.571,-0.226 -0.168,-0.067 -0.312,-0.193 -0.483,-0.256 -0.258,-0.094 -0.521,-0.098 -0.766,-0.242 -0.119,-0.07 -0.2,-0.204 -0.313,-0.278 -0.01,0.172 0.194,0.45 0.277,0.606 0.082,0.154 0.176,0.292 0.308,0.391 0.075,0.056 0.139,0.044 0.221,0.133 0.057,0.063 0.11,0.191 0.162,0.268 0.15,0.218 0.356,0.362 0.501,0.571 0.354,0.513 0.913,0.855 1.382,1.258 0.207,0.178 0.485,0.263 0.687,0.433 0.137,0.116 0.197,0.311 0.313,0.448 0.358,0.422 0.797,0.746 1.106,1.218 0.139,0.212 0.271,0.43 0.406,0.644 0.27,0.405 0.434,0.823 0.618,1.275 0.084,0.207 0.094,0.399 0.159,0.607 0.046,0.148 0.222,0.35 0.191,0.511 0.076,-0.392 0.165,-0.854 0.295,-1.225 0.076,-0.215 0.241,-0.43 0.352,-0.629 0.368,-0.655 0.725,-1.441 1.322,-1.926 0.373,-0.302 0.684,-0.668 1.035,-0.995 0.53,-0.267 0.916,-0.638 1.274,-1.101 0.285,-0.37 0.662,-0.639 0.969,-0.986 0.219,-0.249 0.298,-0.525 0.477,-0.79 C -0.303,2.599 -0.012,2.438 0.084,2.163 -0.055,2.271 -0.174,2.286 -0.35,2.37 -0.526,2.455 -0.755,2.345 -0.791,2.593 -0.919,2.578 -0.979,2.686 -1.113,2.701 -1.336,3.061 -2.025,3.166 -2.405,3.31 -2.65,3.403 -2.995,3.502 -2.664,3.746 -2.395,3.944 -2.097,3.883 -2.232,4.279 -2.296,4.47 -2.448,4.602 -2.637,4.671 -2.648,4.7 -2.666,4.728 -2.691,4.752 -2.707,4.767 -2.723,4.779 -2.739,4.792 -2.912,4.963 -3.149,5.012 -3.388,4.98 -3.46,5.015 -3.545,5.011 -3.629,4.975 -3.697,4.945 -3.751,4.901 -3.797,4.849 -4.003,4.745 -4.132,4.581 -4.275,4.404 -4.419,4.227 -4.436,4.093 -4.324,3.887 -4.222,3.7 -4.088,3.437 -3.878,3.35 c 0.161,-0.066 0.346,-0.146 0.402,0.049 0.025,0.088 -0.212,0.414 -0.188,0.502 0.142,0.53 0.448,0.489 0.721,0.138 0.026,-0.036 0.04,-0.084 0.034,-0.152 C -2.918,3.791 -3.049,3.7 -3.087,3.618 -3.192,3.388 -3.206,3.097 -2.995,2.929 -2.935,2.881 -2.85,2.842 -2.757,2.809 -2.747,2.77 -2.725,2.734 -2.692,2.702 -2.67,2.617 -2.611,2.54 -2.52,2.517 c 0.279,-0.07 0.503,-0.242 0.8,-0.253 0.016,-10e-4 0.03,0.001 0.044,0.003 0.014,-0.028 0.031,-0.055 0.053,-0.082 0.05,-0.061 0.136,-0.082 0.217,-0.069 0.027,-0.051 0.053,-0.103 0.079,-0.155 0.06,-0.118 0.236,-0.161 0.346,-0.09 0.019,0.012 0.035,0.026 0.049,0.041 C -0.92,1.91 -0.908,1.906 -0.896,1.903 -0.865,1.847 -0.816,1.802 -0.748,1.784 -0.723,1.777 -0.694,1.771 -0.671,1.76 -0.657,1.752 -0.64,1.742 -0.636,1.74 -0.59,1.715 -0.546,1.686 -0.503,1.657 -0.458,1.627 -0.402,1.618 -0.347,1.625 -0.155,1.484 0.02,1.314 0.201,1.15 0.2,1.018 0.206,0.888 0.255,0.774 0.423,0.382 0.28,0.311 0,0 M 4.317,1.206 C 4.349,1.396 4.227,1.58 4.113,1.747 V 1.634 C 4.1,1.634 4.087,1.633 4.074,1.632 4.068,1.723 4.045,1.816 4.06,1.903 4.109,2.19 4.175,2.474 4.226,2.76 4.24,2.841 4.237,2.93 4.218,3.01 4.154,3.273 4.083,3.535 4.009,3.796 3.948,4.013 3.886,4.23 3.812,4.442 3.768,4.568 3.701,4.688 3.638,4.808 3.612,4.856 3.567,4.894 3.534,4.939 3.519,4.959 3.51,4.982 3.501,5.006 3.453,5.14 3.562,5.279 3.486,5.415 3.461,5.46 3.447,5.516 3.44,5.568 3.42,5.718 3.408,5.869 3.39,6.019 3.387,6.045 3.38,6.073 3.366,6.093 3.283,6.208 3.196,6.32 3.116,6.436 3.101,6.457 3.109,6.492 3.105,6.531 2.918,6.7 2.833,6.964 2.636,7.155 2.459,7.326 2.346,7.565 2.204,7.773 2.111,7.91 2.013,8.045 1.922,8.184 1.843,8.305 1.714,8.386 1.701,8.562 1.695,8.657 1.592,8.757 1.512,8.832 1.35,8.983 1.174,9.118 1.004,9.26 1.001,9.234 0.998,9.205 0.994,9.175 0.984,9.171 0.973,9.167 0.963,9.162 0.895,9.262 0.829,9.362 0.761,9.461 0.716,9.525 0.669,9.587 0.623,9.65 0.589,9.697 0.554,9.743 0.521,9.791 0.467,9.872 0.415,9.954 0.36,10.034 c -0.019,0.028 -0.046,0.05 -0.066,0.076 -0.081,0.108 -0.157,0.219 -0.245,0.321 -0.022,0.026 -0.077,0.028 -0.118,0.033 -0.06,0.008 -0.124,-0.001 -0.18,0.015 -0.238,0.07 -0.477,0.138 -0.71,0.223 -0.095,0.034 -0.188,0.094 -0.26,0.164 -0.222,0.214 -0.5,0.359 -0.708,0.595 -0.11,0.125 -0.288,0.193 -0.442,0.274 -0.172,0.09 -0.35,0.167 -0.527,0.246 -0.097,0.043 -0.193,0.1 -0.294,0.114 -0.2,0.029 -0.403,0.029 -0.603,0.048 -0.232,0.022 -0.472,0.004 -0.687,0.122 -0.23,0.127 -0.481,0.103 -0.728,0.107 -0.018,0 -0.041,-0.003 -0.052,-0.014 -0.111,-0.104 -0.237,-0.06 -0.359,-0.037 -0.019,0.003 -0.029,0.049 -0.05,0.087 -0.056,0.007 -0.128,0.024 -0.201,0.025 -0.154,0.003 -0.309,-0.003 -0.463,-0.005 -0.161,-0.003 -0.322,-0.016 -0.481,-0.003 -0.15,0.012 -0.298,0.051 -0.447,0.079 -0.003,0 -0.004,0.008 -0.006,0.009 -0.061,0.005 -0.128,0.03 -0.181,0.012 -0.139,-0.047 -0.278,-0.102 -0.404,-0.176 -0.066,-0.038 -0.172,-0.059 -0.17,-0.175 0,-0.016 -0.027,-0.038 -0.047,-0.049 -0.076,-0.043 -0.155,-0.083 -0.233,-0.124 10e-4,0.013 10e-4,0.025 0.002,0.037 -0.023,0.005 -0.047,0.018 -0.067,0.014 -0.114,-0.024 -0.225,-0.056 -0.339,-0.076 -0.045,-0.007 -0.096,0.019 -0.142,0.012 -0.177,-0.03 -0.353,-0.068 -0.529,-0.102 -0.216,-0.042 -0.433,-0.083 -0.649,-0.125 -0.03,-0.006 -0.061,-0.028 -0.089,-0.024 -0.199,0.029 -0.368,-0.079 -0.552,-0.117 -0.032,-0.007 -0.058,-0.049 -0.086,-0.075 0.005,-0.005 0.011,-0.01 0.017,-0.015 0.056,0.018 0.112,0.036 0.168,0.054 0.004,-0.011 0.008,-0.022 0.012,-0.033 -0.117,-0.079 -0.234,-0.158 -0.351,-0.237 -0.005,0.016 -0.011,0.033 -0.016,0.049 -0.042,-0.003 -0.09,0.007 -0.123,-0.011 -0.101,-0.057 -0.196,-0.125 -0.293,-0.189 -0.158,-0.105 -0.308,-0.222 -0.475,-0.31 -0.12,-0.063 -0.268,-0.071 -0.39,-0.132 -0.287,-0.144 -0.573,-0.293 -0.76,-0.573 -0.069,-0.102 -0.148,-0.197 -0.238,-0.316 -0.021,0.042 -0.032,0.064 -0.039,0.08 -0.217,-0.183 -0.296,-0.438 -0.431,-0.656 -0.123,-0.199 -0.25,-0.402 -0.412,-0.567 -0.198,-0.2 -0.438,-0.357 -0.652,-0.542 -0.212,-0.183 -0.251,-0.45 -0.316,-0.702 -0.026,-0.102 -0.049,-0.205 -0.074,-0.308 -0.012,0.003 -0.024,0.005 -0.036,0.008 0.003,0.031 0.007,0.061 0.01,0.092 -0.051,-0.05 -0.07,-0.112 -0.103,-0.165 C -15.326,6.959 -15.403,6.85 -15.479,6.741 -15.498,6.712 -15.527,6.69 -15.547,6.662 -15.666,6.485 -15.784,6.308 -15.9,6.129 -15.92,6.098 -15.928,6.057 -15.937,6.02 c -0.047,-0.2 -0.087,-0.402 -0.141,-0.6 -0.05,-0.183 -0.115,-0.361 -0.174,-0.541 -0.01,0.003 -0.019,0.005 -0.029,0.008 -0.006,0.018 -0.011,0.036 -0.015,0.046 -0.021,-0.113 -0.052,-0.229 -0.064,-0.347 -0.014,-0.15 -0.008,-0.303 -0.021,-0.453 -0.014,-0.155 0.017,-0.316 -0.067,-0.463 -0.047,-0.083 -0.088,-0.176 -0.103,-0.269 -0.068,-0.405 -0.119,-0.81 -0.331,-1.177 -0.152,-0.265 -0.164,-0.566 -0.111,-0.857 0.086,-0.477 0.17,-0.956 0.358,-1.407 0.012,-0.026 0.041,-0.044 0.058,-0.07 0.063,-0.095 0.124,-0.192 0.186,-0.289 -0.007,-0.005 -0.014,-0.01 -0.021,-0.015 -0.023,0.01 -0.046,0.02 -0.068,0.031 0.104,-0.138 0.123,-0.31 0.074,-0.439 -0.054,-0.145 -0.049,-0.256 0.014,-0.381 0.006,0.011 0.013,0.022 0.034,0.06 0.01,-0.11 0.018,-0.194 0.025,-0.277 0.008,-0.089 0.01,-0.179 0.025,-0.267 0.086,-0.495 0.284,-0.954 0.457,-1.423 0.173,-0.469 0.487,-0.856 0.737,-1.279 0.132,-0.224 0.313,-0.428 0.533,-0.589 0.247,-0.182 0.497,-0.356 0.67,-0.629 0.121,-0.193 0.311,-0.345 0.48,-0.504 0.27,-0.253 0.542,-0.503 0.823,-0.741 0.437,-0.371 0.863,-0.765 1.458,-0.872 0.04,-0.007 0.082,-10e-4 0.122,-0.008 0.14,-0.024 0.288,-0.03 0.417,-0.084 0.13,-0.054 0.241,-0.159 0.362,-0.238 0.02,-0.013 0.05,-0.011 0.075,-0.015 0.039,-0.007 0.088,-10e-4 0.117,-0.021 0.235,-0.169 0.481,-0.311 0.764,-0.387 0.202,-0.054 0.397,-0.131 0.594,-0.201 0.066,-0.024 0.126,-0.082 0.19,-0.084 0.243,-0.005 0.459,-0.115 0.691,-0.162 0.341,-0.07 0.68,-0.163 1.013,0.036 0.036,0.022 0.095,0.01 0.143,0.005 0.048,-0.004 0.097,-0.033 0.142,-0.028 0.448,0.055 0.896,0.116 1.344,0.173 0.226,0.029 0.451,0.054 0.677,0.082 0.179,0.023 0.358,0.042 0.535,0.074 0.223,0.039 0.443,0.091 0.664,0.137 0.011,0.002 0.024,-10e-4 0.035,10e-4 0.104,0.017 0.221,0.009 0.309,0.056 0.266,0.139 0.522,0.298 0.781,0.451 0.079,0.046 0.146,0.136 0.255,0.055 0.01,-0.008 0.043,0.01 0.064,0.02 0.268,0.138 0.558,0.206 0.853,0.252 0.208,0.032 0.298,0.195 0.417,0.329 0.012,0.014 0.005,0.043 0.008,0.082 C -0.62,-7.236 -0.65,-7.262 -0.68,-7.288 l -0.026,0.016 c 0.031,0.053 0.052,0.119 0.096,0.156 0.184,0.154 0.364,0.311 0.545,0.466 0.268,0.229 0.475,0.527 0.797,0.697 0.124,0.065 0.217,0.185 0.327,0.278 0.022,0.019 0.052,0.029 0.08,0.039 0.247,0.094 0.483,0.2 0.6,0.465 0.101,0.227 0.202,0.454 0.319,0.673 0.057,0.106 0.141,0.203 0.23,0.286 0.354,0.337 0.731,0.651 0.957,1.101 0.078,0.155 0.184,0.296 0.275,0.446 0.028,0.045 0.052,0.095 0.071,0.145 0.079,0.215 0.166,0.428 0.231,0.646 0.062,0.204 0.103,0.413 0.147,0.621 0.033,0.154 0.047,0.313 0.087,0.465 0.054,0.207 0.159,0.405 0.179,0.612 0.019,0.213 0.064,0.415 0.112,0.62 0.02,0.084 0.066,0.174 0.05,0.252 -0.035,0.168 -0.113,0.316 -0.08,0.51"
             style="fill:#231f20;fill-opacity:1;fill-rule:nonzero;stroke:none"
             id="path501" />
        </g>
        <g
           id="g503"
           transform="translate(161.156,479.807)">
          <path
             d="M 0,0 C 0.036,0.127 -0.037,0.815 -0.121,0.984 -0.195,1.13 -0.885,0.249 -0.956,0.066 -0.969,0.035 -0.986,0.007 -1.01,-0.016 -1.224,-0.221 -1.148,-0.29 -1.751,-0.483 c -0.046,-0.015 -0.435,0.009 -0.794,-0.386 -0.04,0.013 -0.337,-0.229 -0.387,-0.24 -0.295,-0.061 -0.367,-0.167 -0.657,-0.25 -0.017,-0.005 -0.032,-0.011 -0.046,-0.018 -0.022,0.005 -0.045,0.008 -0.07,0.007 -0.585,-0.027 -0.896,-0.702 -0.692,-1.216 0.016,-0.04 0.038,-0.072 0.064,-0.097 0.012,-0.041 0.032,-0.081 0.062,-0.116 0.182,-0.216 0.459,-0.182 0.702,-0.249 0.058,-0.016 0.11,-0.012 0.154,0.006 0.01,-0.007 0.018,-0.015 0.03,-0.021 0.321,-0.159 0.66,-0.199 1.006,-0.103 0.3,0.082 0.556,0.27 0.858,0.359 0.355,0.105 0.546,0.616 0.243,0.895 -0.124,0.115 -0.474,0.341 -0.632,0.309 -0.194,-0.039 -0.52,-0.53 -0.574,-0.753 -0.142,0.924 0.712,1.311 1.133,1.527 0.104,0.053 0.208,0.158 0.347,0.14 0.317,-0.04 0.415,0 0.577,-0.16 0.173,-0.171 0.332,-0.524 0.435,-0.601 -0.002,0.215 0.005,0.876 10e-4,1.09 C 0.043,-0.31 -0.018,-0.065 0,0"
             style="fill:#231f20;fill-opacity:1;fill-rule:nonzero;stroke:none"
             id="path505" />
        </g>
      </g>
    </g>
  </g>
</svg>
