<?xml version="1.0" encoding="UTF-8" standalone="no"?>
<!-- Created with Inkscape (http://www.inkscape.org/) -->

<svg
   width="35.330013"
   height="24"
   viewBox="0 0 9.3477327 6.3500001"
   version="1.1"
   id="svg19832"
   inkscape:version="1.2.1 (9c6d41e4, 2022-07-14)"
   sodipodi:docname="reaction.svg"
   xmlns:inkscape="http://www.inkscape.org/namespaces/inkscape"
   xmlns:sodipodi="http://sodipodi.sourceforge.net/DTD/sodipodi-0.dtd"
   xmlns="http://www.w3.org/2000/svg"
   xmlns:svg="http://www.w3.org/2000/svg">
  <sodipodi:namedview
     id="namedview19834"
     pagecolor="#505050"
     bordercolor="#eeeeee"
     borderopacity="1"
     inkscape:showpageshadow="0"
     inkscape:pageopacity="0"
     inkscape:pagecheckerboard="0"
     inkscape:deskcolor="#505050"
     inkscape:document-units="mm"
     showgrid="false"
     inkscape:zoom="0.70199214"
     inkscape:cx="-31.339382"
     inkscape:cy="198.00792"
     inkscape:window-width="1390"
     inkscape:window-height="938"
     inkscape:window-x="0"
     inkscape:window-y="25"
     inkscape:window-maximized="0"
     inkscape:current-layer="layer1" />
  <defs
     id="defs19829" />
  <g
     inkscape:label="Layer 1"
     inkscape:groupmode="layer"
     id="layer1"
     transform="translate(-113.70514,-96.256505)">
    <g
       fill="#231f20"
       fill-opacity="1"
       id="g4810"
       transform="matrix(0.82267206,0,0,0.82267206,-38.616405,-186.79111)">
      <g
         id="use4808"
         transform="translate(185.008,350.26199)">
        <path
           d="M 0.1875,-4.828125 C 0.113281,-5.054688 0.140625,-5.285156 0.265625,-5.515625 0.378906,-5.703125 0.519531,-5.84375 0.6875,-5.9375 c 0.164062,-0.09375 0.34375,-0.160156 0.53125,-0.203125 0.195312,-0.039063 0.398438,-0.0625 0.609375,-0.0625 0.207031,0 0.398437,0 0.578125,0 0.21875,0 0.425781,0.011719 0.625,0.03125 0.207031,0.011719 0.414062,0.03125 0.625,0.0625 0.414062,0.074219 0.820312,0.171875 1.21875,0.296875 0.40625,0.117188 0.816406,0.246094 1.234375,0.390625 0.75,0.273437 1.5,0.605469 2.25,1 0.75,0.386719 1.429687,0.84375 2.046875,1.375 0.25,0.210937 0.46875,0.460937 0.65625,0.75 0.1875,0.28125 0.320312,0.585937 0.40625,0.90625 0.03906,0.15625 0.05078,0.296875 0.03125,0.421875 -0.01172,0.125 -0.04297,0.25 -0.09375,0.375 -0.05469,0.117188 -0.117188,0.230469 -0.1875,0.34375 C 11.144531,-0.132812 11.070312,-0.015625 11,0.109375 10.84375,0.359375 10.640625,0.539062 10.390625,0.65625 10.148438,0.769531 9.894531,0.859375 9.625,0.921875 9.4375,0.972656 9.242188,1.003906 9.046875,1.015625 8.847656,1.035156 8.648438,1.046875 8.453125,1.046875 8.054688,1.035156 7.660156,1 7.265625,0.9375 6.867188,0.882812 6.488281,0.78125 6.125,0.625 5.9375,0.539062 5.726562,0.445312 5.5,0.34375 5.269531,0.25 5.078125,0.125 4.921875,-0.03125 4.890625,0.09375 4.875,0.222656 4.875,0.359375 c 0.00781,0.144531 0.00781,0.273437 0,0.390625 0,0.03125 -0.00781,0.082031 -0.015625,0.15625 -0.011719,0.082031 -0.023437,0.164062 -0.03125,0.25 0,0.082031 0,0.160156 0,0.234375 0,0.070313 0.00391,0.113281 0.015625,0.125 -0.011719,0 -0.046875,-0.054687 -0.109375,-0.15625 C 4.671875,1.253906 4.582031,1.117188 4.46875,0.953125 4.363281,0.785156 4.242188,0.59375 4.109375,0.375 3.984375,0.164062 3.847656,-0.0507812 3.703125,-0.28125 3.554688,-0.507812 3.410156,-0.734375 3.265625,-0.953125 3.128906,-1.171875 3,-1.375 2.875,-1.5625 2.757812,-1.75 2.660156,-1.90625 2.578125,-2.03125 2.503906,-2.164062 2.457031,-2.257812 2.4375,-2.3125 2.40625,-2.363281 2.390625,-2.394531 2.390625,-2.40625 c 0.00781,-0.019531 0.050781,-0.035156 0.125,-0.046875 0.039063,0 0.171875,-0.015625 0.390625,-0.046875 0.226562,-0.03125 0.503906,-0.066406 0.828125,-0.109375 0.320313,-0.039063 0.664063,-0.082031 1.03125,-0.125 C 5.128906,-2.785156 5.472656,-2.832031 5.796875,-2.875 6.117188,-2.914062 6.394531,-2.953125 6.625,-2.984375 6.851562,-3.015625 6.988281,-3.03125 7.03125,-3.03125 7.019531,-2.976562 6.988281,-2.925781 6.9375,-2.875 c -0.042969,0.054688 -0.089844,0.105469 -0.140625,0.15625 -0.054687,0.042969 -0.105469,0.085938 -0.15625,0.125 -0.054687,0.042969 -0.089844,0.085938 -0.109375,0.125 -0.125,0.085938 -0.257812,0.183594 -0.390625,0.296875 -0.136719,0.117187 -0.246094,0.230469 -0.328125,0.34375 0.082031,0.0625 0.164062,0.125 0.25,0.1875 0.09375,0.054687 0.179688,0.117187 0.265625,0.1875 0.425781,0.25 0.882813,0.4375 1.375,0.5625 0.488281,0.117187 0.976563,0.195313 1.46875,0.234375 0.25,0.011719 0.507813,0.015625 0.78125,0.015625 0.269531,0 0.53125,-0.03125 0.78125,-0.09375 -0.09375,-0.25 -0.226563,-0.488281 -0.390625,-0.71875 C 10.175781,-1.691406 9.984375,-1.914062 9.765625,-2.125 9.554688,-2.332031 9.332031,-2.519531 9.09375,-2.6875 8.851562,-2.863281 8.625,-3.019531 8.40625,-3.15625 7.84375,-3.53125 7.269531,-3.867188 6.6875,-4.171875 6.101562,-4.472656 5.484375,-4.734375 4.828125,-4.953125 4.429688,-5.097656 4.03125,-5.222656 3.625,-5.328125 c -0.40625,-0.101563 -0.820312,-0.1875 -1.234375,-0.25 -0.117187,-0.00781 -0.234375,-0.019531 -0.359375,-0.03125 -0.125,-0.019531 -0.257812,-0.03125 -0.390625,-0.03125 -0.125,0 -0.25,0.011719 -0.375,0.03125 -0.117187,0.011719 -0.230469,0.039063 -0.34375,0.078125 -0.15625,0.0625 -0.273437,0.148438 -0.34375,0.25 -0.0625,0.105469 -0.101563,0.226562 -0.109375,0.359375 0,0.125 0.019531,0.261719 0.0625,0.40625 0.039062,0.136719 0.097656,0.257813 0.171875,0.359375 0.15625,0.304688 0.359375,0.578125 0.609375,0.828125 0.101562,0.117187 0.210938,0.242187 0.328125,0.375 0.113281,0.125 0.242187,0.214844 0.390625,0.265625 C 1.738281,-2.832031 1.460938,-3 1.203125,-3.1875 0.953125,-3.382812 0.738281,-3.617188 0.5625,-3.890625 0.476562,-4.023438 0.398438,-4.171875 0.328125,-4.328125 0.253906,-4.492188 0.207031,-4.660156 0.1875,-4.828125 Z m 0,0"
           id="path19856" />
      </g>
    </g>
  </g>
</svg>
