<svg width="26" height="24" viewBox="0 0 26 24" fill="#000000" xmlns="http://www.w3.org/2000/svg">
  <path d="M17.7342 2.07884C17.8631 2.08128 17.9909 2.08493 18.1174 2.08979C18.1332 2.08979 18.149 2.09101 18.1648 2.09222C18.3217 2.06425 18.4799 2.0387 18.638 2.01802C18.7171 2.00707 18.7973 1.99856 18.8776 1.99004C18.7682 1.73216 18.6222 1.49374 18.4519 1.24681C18.301 1.02907 18.104 0.849041 17.9033 0.676309C17.7889 0.578995 17.6709 0.484115 17.5578 0.384368C17.4252 0.267591 17.3097 0.0924268 17.1613 -2.12779e-05C16.9301 0.0656655 17.0348 0.969467 16.9849 1.43049L16.9155 1.42684C16.9143 1.50956 16.9155 1.59227 16.9168 1.67499C16.8462 1.81731 16.7489 1.94625 16.6431 2.06668C16.9958 2.03262 17.3656 2.04965 17.7342 2.07884Z"/>
  <path d="M15.2187 6.51636C15.1688 6.53218 15.1177 6.54556 15.0678 6.56016C15.0252 6.59665 14.979 6.62949 14.9291 6.65504C14.7297 6.756 14.4912 6.77911 14.2759 6.71464C14.1117 6.66598 13.9718 6.56989 13.855 6.45068C13.8088 6.43 13.7626 6.4081 13.7225 6.38012C13.6227 6.30957 13.5436 6.18307 13.5193 6.06386C13.4938 5.94465 13.5351 5.83152 13.63 5.75975C13.6726 5.66609 13.7492 5.58824 13.838 5.53593C14.0618 5.40577 14.3793 5.40091 14.6056 5.53228C14.6104 5.53471 14.6141 5.53836 14.619 5.54079C14.6518 5.53593 14.681 5.54201 14.7126 5.55539C14.7795 5.58459 14.8464 5.61621 14.9097 5.65392C14.9364 5.66974 14.962 5.6892 14.9887 5.70744C15.1639 5.78286 15.2856 5.96168 15.3257 6.14292C15.3415 6.21104 15.3354 6.27795 15.3123 6.33998C15.3366 6.41054 15.2953 6.49082 15.2187 6.51636ZM14.6518 8.11596C14.1896 8.22422 13.6677 7.86538 13.6616 7.38611C13.6604 7.3265 13.7054 7.2669 13.765 7.2523C14.0558 7.18418 14.3416 7.26568 14.58 7.43476C14.7175 7.49558 14.8513 7.58925 14.9012 7.73279C14.9632 7.90917 14.8233 8.07582 14.6518 8.11596M12.9184 8.18773C12.8466 8.25463 12.7603 8.29112 12.6629 8.30086C12.5498 8.31424 12.433 8.26801 12.3369 8.21327C12.2396 8.15853 12.1448 8.07703 12.0961 7.97485C12.0462 7.86903 12.0389 7.75833 12.0876 7.65007C12.1302 7.55762 12.225 7.49315 12.3224 7.46517C12.4452 7.43111 12.5802 7.44936 12.6994 7.48829C12.725 7.4968 12.7445 7.5114 12.7603 7.52721C12.7968 7.53451 12.8332 7.54424 12.8685 7.56005C12.9512 7.59776 13.0096 7.67075 13.0413 7.75347C13.0948 7.90187 13.0315 8.08312 12.9184 8.18773ZM10.9247 8.90785C10.9587 8.97475 10.9429 9.05869 10.8748 9.09761C10.8444 9.11464 10.8128 9.13167 10.7811 9.14505C10.6668 9.19614 10.5415 9.23263 10.415 9.21804C10.359 9.21195 10.3055 9.19736 10.2544 9.17546C10.2459 9.17303 10.2362 9.17303 10.2265 9.1706C10.1887 9.16208 10.1583 9.13289 10.1401 9.09883C10.1352 9.09396 10.1291 9.09031 10.1231 9.08423C9.98804 8.94799 9.95033 8.73633 10.0367 8.56603C10.0817 8.47724 10.1656 8.4152 10.2593 8.38479C10.308 8.36898 10.3627 8.36411 10.4126 8.36654C10.4868 8.36897 10.5634 8.37992 10.634 8.4006C10.7495 8.43345 10.8724 8.50035 10.9259 8.61348C10.9709 8.70836 10.9685 8.81297 10.9235 8.90663L10.9247 8.90785M7.80334 6.67085C7.80578 6.65747 7.80821 6.64287 7.81064 6.62949C7.85079 6.67815 7.89093 6.72802 7.93229 6.77668C7.89214 6.74505 7.84835 6.70978 7.80334 6.67085ZM2.00101 11.8759C1.98277 11.8857 1.99615 11.8601 2.02899 11.8127C2.02291 11.826 2.01683 11.8358 2.01074 11.8492C2.0071 11.8577 2.00466 11.8674 2.00101 11.8759M25.9767 13.7054C25.9767 13.3016 26.012 12.8685 25.9657 12.4659C25.9061 11.955 25.6908 11.5098 25.5351 11.0269C25.4585 10.7897 25.3393 10.5743 25.1678 10.3882C25.0279 10.2362 24.8807 10.0878 24.742 9.93694C24.6812 9.87126 24.6848 9.81165 24.635 9.74961C24.5486 9.64378 24.4635 9.58175 24.3856 9.46254C24.371 9.44064 24.354 9.41996 24.3382 9.39928C24.3442 9.3932 24.3503 9.38834 24.3564 9.38347C24.3138 9.32022 24.2713 9.25453 24.2287 9.19006C23.9282 8.98935 23.7652 8.64145 23.6776 8.27045C23.6691 8.23639 23.6643 8.20111 23.6558 8.16705C23.4976 7.83618 23.3541 7.49072 23.2872 7.13187C23.2154 7.16107 23.14 7.18175 23.0621 7.19756C23.0269 7.22432 22.9794 7.23405 22.9368 7.22189C22.8164 7.23892 22.6936 7.245 22.5744 7.24987C22.3554 7.25717 22.1352 7.24743 21.9163 7.23892C21.6389 7.32893 21.3348 7.33258 21.0477 7.20972C20.9772 7.18053 20.9626 7.07957 20.9967 7.02118C21.0392 6.95063 21.1195 6.94211 21.1888 6.97131C21.2643 7.00293 21.3397 7.02118 21.4163 7.03091C21.4346 6.98712 21.4747 6.95184 21.538 6.95306C21.6547 6.95306 21.7703 6.95793 21.8859 6.96279C22.1413 6.8594 22.3639 6.66112 22.4965 6.43122C22.5768 6.29133 22.7787 6.39107 22.7544 6.52488C22.8018 6.65747 22.8797 6.77303 22.9709 6.87886C23.0548 6.79371 23.1522 6.72072 23.2385 6.63922C23.2896 6.58935 23.3857 6.58205 23.4368 6.63922C23.7762 7.01753 23.8163 7.56005 23.9124 8.03324C23.9161 8.04906 23.9197 8.06487 23.9234 8.0819C23.9526 8.14029 23.983 8.19989 24.0122 8.25706C24.1399 8.50521 24.2822 8.74728 24.4318 8.98448C24.4732 9.0076 24.5158 9.02828 24.562 9.04409C24.5863 8.92366 24.59 8.79351 24.5973 8.68646C24.6204 8.33005 24.6982 8.02351 24.8101 7.68535C24.9281 7.32529 24.8977 6.92508 24.8965 6.55407C24.8953 6.35215 24.9281 6.15387 24.8454 5.96411C24.7408 5.72569 24.5802 5.48484 24.444 5.26467C24.1788 4.83284 23.7166 4.4375 23.292 4.16137C23.1327 4.05676 22.9685 4.01053 22.8067 3.92903C22.6376 3.84389 22.5075 3.71373 22.325 3.63101C22.1389 3.54586 22.1072 3.56654 21.9211 3.53005C21.5124 3.45098 21.1134 3.29285 20.729 3.14201C20.3872 3.00699 20.0758 2.68829 19.6975 2.65666C19.5114 2.6895 19.3204 2.7041 19.1294 2.70897C18.7487 2.71748 18.3509 2.71626 17.9714 2.68342C17.7257 2.66274 17.4848 2.60314 17.2416 2.56299C16.7878 2.68099 16.3463 2.82088 15.9157 2.96441C15.9108 2.96928 15.9084 2.97658 15.9035 2.98144C15.8488 3.05321 15.85 3.04105 15.7831 3.07876C15.6663 3.14566 15.5726 3.24906 15.4522 3.31839C15.395 3.35002 15.3415 3.37435 15.2904 3.40111C14.9279 3.35975 14.5667 3.32691 14.2613 3.57262C14.2625 3.56776 14.265 3.56411 14.2662 3.56046C14.2455 3.55194 14.2054 3.59695 14.164 3.65656C14.0874 3.72346 14.012 3.79401 13.9402 3.867C13.9524 3.89984 13.9511 3.93755 13.9232 3.97526C13.7991 4.14434 13.6641 4.30491 13.5254 4.46426C13.4512 4.47156 13.3782 4.47886 13.3223 4.5044C13.2347 4.54454 13.1398 4.65281 13.0656 4.71728C13.0108 4.76472 12.9768 4.82797 12.9269 4.87906C12.8551 4.95326 12.7688 5.00679 12.6994 5.08464C12.6277 5.16614 12.5401 5.2525 12.4793 5.34617C12.427 5.42645 12.4002 5.50795 12.3406 5.58945C12.2177 5.75488 12.1922 5.88261 12.1837 6.08697C12.1837 6.09792 12.1812 6.11251 12.18 6.12468C12.1411 6.19401 12.0997 6.26213 12.0645 6.33512C12.028 6.40932 11.9562 6.41783 11.8978 6.38986C11.7993 6.49569 11.6971 6.6003 11.5949 6.70613C11.4745 6.72194 11.3553 6.73654 11.2227 6.73654C11.0475 6.73654 10.7921 6.69153 10.6267 6.7487C10.6875 6.88494 10.9977 6.93238 11.1035 7.0893C11.1157 7.10876 11.1303 7.13917 11.1461 7.17202C11.0755 7.25352 11.0123 7.33745 10.9709 7.41895C10.8663 7.39705 10.7665 7.36056 10.634 7.31069C10.5172 7.26446 10.3858 7.21824 10.2581 7.20608C10.0841 7.19026 9.93938 7.21216 9.80436 7.29731C9.83599 7.39097 9.73016 7.47004 9.63284 7.45058C9.58662 7.50653 9.54648 7.5637 9.51363 7.62574C9.45281 7.56735 9.40051 7.50288 9.35915 7.4299C9.38956 7.37151 9.42119 7.31434 9.45281 7.25595C9.29833 6.97496 9.22048 6.6149 9.02463 6.36553C8.96138 6.30592 8.89812 6.24754 8.83244 6.19036C8.79716 6.16847 8.7631 6.14657 8.72296 6.12954C8.55996 6.06386 8.38236 6.05534 8.22788 5.96411C8.09407 5.88382 7.9554 5.79503 7.82646 5.70744C7.78996 5.71718 7.75347 5.72812 7.7182 5.74029C7.70238 5.6819 7.68535 5.62351 7.66832 5.56756C7.66832 5.56756 7.66346 5.54809 7.65616 5.52255C7.6367 5.49214 7.61967 5.46051 7.60142 5.42645C7.59412 5.40942 7.58561 5.39239 7.57709 5.37658C7.526 5.36563 7.44572 5.37171 7.40801 5.36685C7.16594 5.33887 6.95185 5.27197 6.73533 5.38023C6.63558 5.43132 6.55773 5.52012 6.51515 5.62473C6.50177 5.63689 6.48718 5.64906 6.47258 5.66C6.27309 5.79503 6.24997 5.96776 6.13928 6.16968C6.13563 6.17698 6.10157 6.21834 6.06873 6.25848C5.9775 6.23537 5.87653 6.17577 5.83882 6.13441C5.73178 6.01398 5.73543 5.73785 5.7707 5.58702C5.7926 5.4897 5.86802 5.4082 5.90086 5.31454C5.94952 5.17587 5.99696 4.99584 6.00669 4.84987C6.0225 4.61875 5.99574 4.38398 6.01034 4.15164C5.8814 4.32924 5.77679 4.55306 5.68069 4.75012C5.64298 4.82432 5.61135 4.89731 5.57973 4.97394C5.54202 5.06882 5.49458 5.15884 5.47633 5.2598C5.46538 5.31941 5.48241 5.40699 5.46052 5.46294C5.42281 5.55661 5.29022 5.68068 5.22453 5.76705C5.126 5.89599 5.07491 5.98965 5.03112 6.14779C4.98368 6.3193 5.00679 6.46892 4.98855 6.64774C4.96422 6.89346 4.77324 7.12336 4.68566 7.35205C4.65525 7.43233 4.59078 7.51261 4.5701 7.59411C4.54577 7.68899 4.5555 7.73887 4.50806 7.83862C4.44967 7.96391 4.43142 8.06365 4.40588 8.20354C4.36209 8.44804 4.25626 8.67065 4.15895 8.89812C4.04095 9.17668 3.82565 9.43578 3.6298 9.6669C3.4522 9.87612 3.29407 10.1048 3.10187 10.3007C2.92184 10.4831 2.76249 10.6558 2.63599 10.8772C2.55813 11.0123 2.47785 11.1315 2.38297 11.2531C2.36351 11.2774 2.34648 11.3006 2.32945 11.3237C2.23335 11.4295 2.1336 11.5305 2.02291 11.6156C1.99493 11.6205 1.96695 11.6253 1.93898 11.6278C1.90857 11.6643 1.8891 11.7056 1.88059 11.7518C1.85261 11.8102 1.8222 11.8577 1.79057 11.9124C1.61298 12.2238 1.62879 12.6192 1.62757 12.9731C1.61419 12.9877 1.60081 13.0011 1.58865 13.0157C1.44511 13.1872 1.30035 13.3964 1.20791 13.6008C1.08262 13.8733 0.900152 14.1008 0.828383 14.4061C0.785808 14.5922 0.750532 14.6883 0.639838 14.844C0.463457 15.0909 0.420881 15.3865 0.302889 15.6566C0.254232 15.7685 0.201925 15.8646 0.184895 15.9874C0.166649 16.1078 0.113127 16.1699 0.0766342 16.2818C0.0243281 16.4387 0.102179 16.5798 0 16.7307C0.054739 16.6857 0.072985 16.6346 0.108261 16.5762C0.184896 16.4497 0.293157 16.3463 0.371008 16.2173C0.479269 16.0361 0.565636 15.8463 0.644703 15.6529C0.763913 15.3622 0.979219 15.1335 1.12276 14.861C1.27967 14.5618 1.50715 14.3586 1.70056 14.0886C1.89762 13.8112 2.06792 13.5436 2.20416 13.2347C2.33553 12.9354 2.55084 12.6994 2.69802 12.4111C2.9036 12.1265 2.55692 12.2287 2.81602 11.989C3.03862 11.7823 3.31475 11.6959 3.5337 11.5086C3.69549 11.3687 3.77091 11.1351 3.9108 10.9746C4.0373 10.8322 4.15286 10.6972 4.30127 10.5768C4.52266 10.3968 4.79392 10.2836 4.99949 10.0878C5.26832 9.8299 5.54688 9.59269 5.81814 9.33846C5.91424 9.24723 6.0371 9.18519 6.13076 9.0964C6.222 9.01125 6.26092 8.89933 6.30715 8.78499C6.3704 8.62564 6.36189 8.50521 6.36432 8.33613C6.36675 8.13177 6.42879 7.94201 6.46285 7.74617C6.72073 7.89092 6.99078 7.96756 7.24866 7.81794C7.24744 7.81185 7.24379 7.80577 7.24379 7.79847C7.24379 7.72914 7.30948 7.6525 7.3849 7.6598C7.39706 7.66102 7.40801 7.66467 7.41896 7.66588C7.45058 7.61966 7.47491 7.56857 7.49559 7.51626C7.50654 7.5187 7.51992 7.52235 7.53695 7.52721C7.52357 7.52356 7.51019 7.5187 7.49681 7.5114C7.53816 7.51991 7.6075 7.53816 7.66224 7.55276C7.66346 7.5041 7.69387 7.46761 7.73401 7.44814C7.69508 7.3934 7.65737 7.33745 7.62331 7.27906C7.53452 7.12336 7.7778 6.98347 7.8666 7.13917C8.15611 7.6452 8.69863 7.96026 8.94556 8.49548C8.97233 8.55387 8.96624 8.61834 8.92124 8.66213C8.96381 8.67673 9.0076 8.69133 9.04896 8.70836C8.9407 9.0526 8.88109 9.41631 8.88353 9.76664C8.88474 10.0148 8.85433 10.2678 8.97233 10.4977C9.11708 10.7836 9.4589 10.8626 9.76543 10.8687C9.7703 10.8687 9.77395 10.8687 9.7776 10.8687C9.80071 10.8894 9.82747 10.9089 9.85788 10.9271C9.95033 10.9855 10.0927 10.9916 10.1778 11.0548C10.2897 11.1388 10.2629 11.2519 10.2642 11.3857C10.2654 11.5669 10.3311 11.7385 10.4673 11.8698C10.5671 11.9647 10.685 11.9854 10.8091 11.989C10.9636 11.5524 11.0925 11.1059 11.2981 10.6875C11.3249 10.6303 11.3565 10.5719 11.3894 10.5135C11.3419 10.5208 11.2933 10.5208 11.247 10.5099C11.1461 10.5135 11.0427 10.4916 10.9454 10.4685C10.8785 10.4515 10.8493 10.3943 10.8468 10.3335C10.797 10.3031 10.7787 10.2337 10.7872 10.1802C10.7921 10.1583 10.7994 10.1377 10.8067 10.1158C10.8043 10.1133 10.803 10.1121 10.8018 10.1097C10.7726 10.0562 10.7787 9.98682 10.8237 9.94181C10.9028 9.86517 10.9952 9.80679 11.0998 9.77029C11.2251 9.72772 11.3687 9.73502 11.4903 9.78854C11.5013 9.78732 11.5122 9.78489 11.5232 9.78367C11.5961 9.77881 11.6497 9.84206 11.657 9.90896C11.6776 9.93086 11.6959 9.95397 11.7141 9.97952C11.7409 9.99655 11.7555 10.0184 11.7664 10.0416C11.9221 9.91505 12.1046 9.83963 12.3138 9.87126C12.3905 9.53796 12.5304 9.22412 12.8028 8.99908C12.8673 8.94556 12.9379 8.94921 13.0023 8.99908C13.304 9.23507 13.6324 9.43213 14.0193 9.49417C14.1531 9.51484 14.1433 9.67176 14.0558 9.73502C14.0618 9.8226 13.9925 9.91505 13.8842 9.87855C13.5643 9.77029 13.2663 9.61337 12.9671 9.46132C12.8685 9.69974 12.8637 9.95884 12.8637 10.2167C12.8624 10.3043 12.7724 10.3773 12.6848 10.3505C12.5693 10.314 12.4671 10.3128 12.3759 10.3347C12.3576 10.3457 12.3369 10.3517 12.3138 10.353C12.0377 10.4588 11.8735 10.7957 11.7482 11.0804C11.5767 11.4672 11.4477 11.9197 11.1801 12.2627C11.1862 12.2932 11.1838 12.326 11.1643 12.3515C10.9758 12.6046 10.7118 12.7663 10.4308 12.9062C10.4187 12.9379 10.4065 12.9707 10.3968 13.0023C10.3505 13.1629 10.3323 13.3356 10.325 13.5035C10.314 13.7675 10.2192 14.0339 10.1437 14.2844C10.1109 14.3939 10.0428 14.4864 10.0209 14.5958C10.0051 14.6749 10.0002 14.7491 9.97952 14.8294C9.9187 15.0678 9.81531 15.2892 9.72407 15.5203C9.64379 15.7247 9.62311 15.9242 9.59027 16.1407C9.55378 16.3828 9.46984 16.6163 9.43335 16.8572C9.40902 17.0092 9.42362 17.1686 9.42362 17.3231C9.42362 17.6624 9.36401 17.9799 9.36401 18.323C9.36401 18.5881 9.37253 18.8363 9.31901 19.0954C9.26913 19.3362 9.23507 19.571 9.19858 19.8131C9.1779 19.9566 9.16939 20.0868 9.13168 20.2242C9.10248 20.3337 9.07329 20.4444 9.04774 20.5563C9.01733 20.6852 9.03558 20.8191 9.0076 20.9419C8.99301 21.0064 8.93218 21.038 8.93948 21.1086C9.02828 21.01 9.07937 20.8689 9.14384 20.7558C9.21926 20.6244 9.29833 20.504 9.35672 20.3605C9.43335 20.1743 9.54769 19.9578 9.59148 19.7608C9.62798 19.6026 9.64014 19.4773 9.69731 19.3241C9.73502 19.2219 9.73137 19.1124 9.75327 19.0054C9.78611 18.8436 9.78976 18.6794 9.81166 18.5164C9.83355 18.3631 9.89316 18.211 9.90654 18.0578C9.92478 17.8546 9.87369 17.6564 9.93938 17.4581C10.0063 17.2525 10.0355 17.053 10.0829 16.8438C10.1523 16.5336 10.2508 16.2258 10.4089 15.9461C10.5415 15.7101 10.5902 15.4449 10.7288 15.2126C10.8699 14.9754 10.9758 14.7187 11.1059 14.4705C11.1655 14.355 11.1972 14.2212 11.2604 14.1117C11.3139 14.0193 11.3881 13.956 11.4319 13.849C11.5451 13.5728 11.7531 13.3709 11.8869 13.1033C11.9769 12.922 12.1058 12.7371 12.2372 12.579C12.3978 12.388 12.6447 12.3394 12.8296 12.1776C12.905 12.1679 12.9731 12.1472 13.0242 12.1095C13.1361 12.0268 13.214 11.8869 13.3186 11.7956C13.4889 11.6472 13.7602 11.6667 13.9779 11.6874C14.046 11.6935 14.1044 11.7166 14.1628 11.7433C14.164 11.7579 14.1664 11.7725 14.1677 11.7859C14.1908 12.1715 14.0959 12.5729 13.9353 12.922C13.8502 13.1082 13.8623 13.2687 13.8623 13.4731C13.8623 13.7237 13.855 13.9378 13.7869 14.181C13.5813 14.9121 13.6823 15.721 13.6823 16.4764V18.0164V19.1088C13.6823 19.3204 13.675 19.5138 13.7285 19.7121C13.7869 19.925 13.7431 20.2133 13.7407 20.4334C13.7322 20.6208 13.7371 20.8081 13.7529 20.9954C13.7699 21.1122 13.8027 21.2253 13.8514 21.3336C13.8696 21.4102 13.8636 21.4784 13.8611 21.5562C13.8563 21.8408 13.8636 22.1255 13.8599 22.4101C13.8575 22.7155 13.9365 22.9989 13.9256 23.3054C13.9183 23.4818 13.8769 23.6594 13.8623 23.8346C13.8575 23.8808 13.8599 23.9161 13.8441 23.9465C14.1981 23.5718 14.0034 22.9673 14.0363 22.4904C14.0448 22.3736 14.0959 22.3104 14.1482 22.2094C14.2151 22.0841 14.2236 21.9747 14.2248 21.8335C14.2273 21.6791 14.2115 21.5209 14.22 21.3652C14.2297 21.2083 14.3221 21.1451 14.3866 21.0027C14.5508 20.6402 14.5216 20.2327 14.5216 19.8471C14.5204 19.4384 14.5229 19.0723 14.625 18.6709C14.7747 18.0858 14.7613 17.5238 14.7613 16.9241C14.7625 16.457 14.8282 15.9071 14.7321 15.4449C14.6275 14.9486 14.7065 14.3878 14.7017 13.8818C14.6992 13.6446 14.7248 13.4609 14.8051 13.2322C14.8732 13.0388 14.9267 12.8539 14.9401 12.6508C14.945 12.5668 14.9279 12.4805 14.9377 12.399C14.9547 12.2664 15.0021 12.146 15.035 12.0182C15.0775 12.0438 15.1286 12.0584 15.2065 12.0754C15.3452 12.107 15.4121 12.1083 15.5349 12.0474C15.8536 11.8917 16.1042 12.4671 16.4363 12.3187C16.5531 12.2664 16.6735 12.2068 16.7672 12.118C16.8912 12.0024 16.901 10.9916 17.0226 10.8724C17.0421 10.8529 17.064 10.8359 17.0871 10.8201C17.1236 10.8845 17.1625 11.7823 17.2075 11.8382C17.3048 11.9611 17.3425 11.9903 17.5019 11.9963C17.6028 12 17.7038 11.1643 17.8048 11.1619C17.8048 11.2045 17.8072 11.2458 17.8169 11.2811C17.8315 11.3334 17.8777 11.3748 17.913 11.4173C18.0189 11.5487 18.1223 11.6983 18.2074 11.8431C18.4081 12.1849 18.4945 12.5754 18.6076 12.95C18.6392 13.0571 18.6879 13.1738 18.7134 13.2894C18.7475 13.4402 18.801 13.5704 18.8339 13.7285C18.9141 14.1202 19.155 14.4937 19.2596 14.8914C19.3958 15.4108 19.6124 15.9777 19.6209 16.5166C19.627 16.9618 19.6841 17.4033 19.6805 17.8473C19.6768 18.2244 19.6793 18.6015 19.6793 18.9774C19.6793 19.7875 19.6999 20.6001 19.6793 21.409C19.6914 21.2959 19.7255 21.1803 19.734 21.0696C19.745 20.9188 19.7523 20.768 19.779 20.6171C19.8131 20.4383 19.8885 20.2692 19.9213 20.0941C19.9517 19.9286 19.9712 19.7547 19.9919 19.5856C20.0174 19.3837 20.0831 19.1757 20.1014 18.9737C20.1196 18.7888 20.0989 18.5894 20.0989 18.402C20.0989 18.1697 20.1293 17.9653 20.1537 17.7354C20.1938 17.3668 20.1464 16.9825 20.1561 16.6114C20.1683 16.2125 20.2206 15.7977 20.2741 15.4035C20.3179 15.0763 20.279 14.7223 20.279 14.3915C20.279 13.9937 20.3325 13.5582 20.2656 13.169C20.1914 12.7408 20.1038 12.3576 19.9919 11.938C19.9189 11.6618 19.689 11.4709 19.6172 11.1923C19.5552 10.9527 19.5467 10.6936 19.5503 10.4357C19.2997 10.2155 19.0516 9.99411 18.8375 9.7411C18.6404 9.50998 18.4884 9.25696 18.374 8.98448C18.059 8.88109 17.7598 8.72174 17.4459 8.61834C17.2793 8.61591 17.1126 8.63537 16.9496 8.67186C16.6796 8.92975 16.3803 9.17303 15.9984 9.2302C15.9728 9.23385 15.9485 9.2302 15.9254 9.22534C15.9217 9.22899 15.9169 9.23385 15.9132 9.23872C15.9278 9.28129 15.9217 9.32995 15.8804 9.37131C15.8378 9.41266 15.805 9.44672 15.8013 9.50876C15.7855 9.65595 15.5872 9.68149 15.5349 9.57688C15.4388 9.57202 15.3512 9.48443 15.4194 9.37982C15.4948 9.26548 15.5824 9.15965 15.6772 9.06355C15.6335 9.00395 15.6286 8.9115 15.7101 8.85919C15.8025 8.79959 15.8974 8.73998 15.9935 8.68038C16.1443 8.50278 16.2453 8.32397 16.1845 8.07095C16.1589 7.96147 16.2842 7.84348 16.3913 7.91525C16.7161 8.13056 17.0786 8.15367 17.4496 8.15732C17.6357 8.13785 17.8242 8.13785 17.9957 8.1707C18.0699 8.17556 18.1441 8.18408 18.2171 8.19624C18.2804 8.20719 18.3096 8.24733 18.3157 8.29234C18.3619 8.32275 18.4057 8.35438 18.4446 8.39574C18.4531 8.40182 18.458 8.41155 18.4653 8.42007C18.5285 8.4967 18.5808 8.58915 18.6149 8.70592C18.6173 8.71079 18.6161 8.71566 18.6161 8.72052C18.6271 8.72782 18.6368 8.73269 18.6465 8.7412C18.6648 8.7558 18.6806 8.77161 18.6976 8.78621C18.7511 8.79716 18.7803 8.83121 18.7913 8.87014C19.2304 9.28372 19.5151 9.82381 19.8471 10.3274C19.9153 10.387 19.9846 11.4903 20.0515 11.5511C20.0734 11.5536 20.0953 11.5548 20.1147 11.556C20.3945 11.5803 20.6682 11.618 20.9504 11.6168C21.2898 11.6144 21.6061 11.6278 21.9309 11.5232C22.2131 11.4319 22.4783 11.4696 22.7507 11.3091C22.9551 11.1886 23.1339 11.0451 23.3139 10.9003C23.348 10.8967 23.3821 10.8943 23.4161 10.8943C23.5001 10.9928 23.5828 11.0938 23.6631 11.1984C23.7993 11.3772 23.899 10.5245 24.0219 10.713C24.107 10.8444 24.1545 10.9928 24.2372 11.1254C24.3163 11.2543 24.4075 11.3869 24.4768 11.5256C24.5559 11.6849 24.5936 11.8479 24.6897 11.9963C24.8089 12.1812 24.9062 12.3515 25.0181 12.5291C25.0996 12.6569 25.1726 12.8101 25.2067 12.95C25.2468 13.1106 25.3381 13.2468 25.4025 13.3964C25.4548 13.5181 25.4707 13.6434 25.4962 13.7723C25.5388 13.9901 25.5376 14.1969 25.5692 14.4146C25.6178 14.7394 25.6799 15.0751 25.6762 15.406C25.6726 15.8889 25.7188 16.3487 25.7833 16.8268C25.804 16.9825 25.7176 18.0274 25.8429 18.059C25.8867 17.9787 25.8563 17.834 25.8611 17.7452C25.8721 17.4982 25.9219 17.2598 25.9645 17.0177C26.012 16.7453 25.9767 16.4509 25.9767 16.1735V13.7054Z"/>
  <path d="M9.48809 6.44948C9.55621 6.52855 9.62311 6.61005 9.68393 6.69763C9.68637 6.69155 9.6888 6.68668 9.69245 6.68182C9.80071 6.52125 9.8664 6.27188 10.0221 6.16119C10.1133 6.0955 10.235 6.04198 10.3359 5.97021C10.3408 5.97021 10.3457 5.97021 10.3505 5.97021C10.3931 6.00914 10.4478 6.03347 10.5208 6.03468C10.6656 6.132 10.8371 6.08334 10.9977 6.03225C11.078 6.0359 11.168 6.04806 11.241 6.03955C11.3079 6.03225 11.3784 6.00306 11.4465 5.969C11.5329 5.96535 11.6059 5.95197 11.6898 5.93372C11.764 5.42769 12.0535 5.03113 12.4537 4.71365C12.7651 4.46671 13.1118 4.26357 13.4305 4.02759C13.3697 3.99353 13.3125 3.95825 13.2614 3.92297C13.1629 3.85364 13.0936 3.77579 12.9744 3.73929C12.9099 3.71983 12.8868 3.7174 12.8381 3.69185C12.6058 3.57386 12.4744 3.35977 12.1958 3.37315C12 3.38288 11.9221 3.49844 11.7664 3.59819C11.6448 3.67726 11.4915 3.76484 11.3383 3.8135C11.3152 3.77457 11.286 3.74051 11.2373 3.72591C11.1278 3.69064 10.9673 3.69429 10.8152 3.71618C10.814 3.68456 10.8116 3.65414 10.8079 3.62495C10.7811 3.46073 10.7094 3.31598 10.741 3.1396C10.7641 3.00944 10.8043 2.84644 10.8578 2.7394C10.6899 2.63722 10.578 2.93037 10.6559 2.87199C10.5002 3.0362 10.2824 3.16028 10.1097 3.30382C9.94425 3.44005 9.82625 3.62617 9.6961 3.79282C9.42362 4.14315 9.30319 4.46915 9.19007 4.89854C9.15236 5.0433 9.13533 5.17589 9.08667 5.30483C9.23629 5.64664 9.37983 5.99332 9.50025 6.3473C9.51363 6.38623 9.50634 6.42029 9.48809 6.44948Z"/>
  <path d="M7.87266 8.19504C7.87144 8.19748 7.87023 8.19991 7.86901 8.20234C7.68533 8.68891 7.42502 9.08547 7.14038 9.51851C7.05644 9.64624 6.98346 9.74355 6.90682 9.87857C6.86303 9.95521 6.82167 10.0245 6.78518 10.1012C6.75234 10.1705 6.6976 10.235 6.67084 10.3068C6.64408 10.3785 6.63921 10.4612 6.62948 10.5415C6.61002 10.5561 6.59055 10.5707 6.57474 10.5853C6.46161 10.6838 6.37281 10.7958 6.26334 10.8955C6.20616 10.9478 6.12101 10.9794 6.07601 11.0403C6.03708 11.0913 6.02005 11.1862 5.97139 11.2483C5.90571 11.3334 5.84124 11.3809 5.80839 11.483C5.74879 11.6655 5.69648 11.8212 5.58944 11.983C5.36562 12.3187 5.14179 12.6581 4.90094 12.9853C4.79876 13.1264 4.70145 13.2371 4.63941 13.4038C4.58832 13.5437 4.55548 13.6872 4.52142 13.8332C4.45452 14.1275 4.446 14.3976 4.446 14.7005C4.446 14.9705 4.38883 15.2977 4.44478 15.5593C4.46303 15.6468 4.49831 15.6943 4.50682 15.7916C4.51899 15.9327 4.55791 15.9145 4.62117 16.0252C4.72335 16.204 4.74281 16.4339 4.74646 16.6334C4.73308 16.1736 4.93865 15.715 5.08097 15.2856C5.1868 14.9644 5.16977 14.7224 5.09922 14.411C5.08341 14.3428 5.07489 14.2832 5.07124 14.2248C5.19775 14.0655 5.28533 13.8903 5.40941 13.7407C5.50794 13.6203 5.52253 13.4281 5.6162 13.2846C5.71838 13.1264 5.80839 12.9598 5.91909 12.8077C6.01154 12.6812 6.11007 12.5924 6.18062 12.4501C6.26577 12.281 6.38011 12.1545 6.50419 12.0134C6.72314 11.764 6.86181 11.4575 7.02117 11.1692C7.19146 10.8614 7.4311 10.5963 7.6087 10.2958C7.82157 9.93453 8.12203 9.62556 8.33004 9.2582C8.36653 9.19494 8.39937 9.12804 8.43222 9.06235C8.34707 8.86286 8.24489 8.67067 8.12203 8.49307C8.05269 8.3921 7.96876 8.28749 7.87266 8.19504Z"/>
  <path d="M13.8453 23.9478C13.8283 23.966 13.8112 23.9842 13.7918 24.0001C13.8222 23.9842 13.8356 23.966 13.8453 23.9478Z"/>
</svg>
