<svg width="25" height="24" viewBox="0 0 25 24" fill="#000000" xmlns="http://www.w3.org/2000/svg">
  <path d="M12.1235 0.208291C12.1309 0.219922 12.1372 0.227323 12.1446 0.232609C12.1679 0.159655 12.1647 0.0951584 12.1647 0C12.1266 0.100445 12.0896 0.153311 12.1235 0.208291Z"/>
  <path d="M3.95868 3.15188C3.97136 3.15611 3.98194 3.15717 3.99145 3.15717C3.96185 3.08633 3.91744 3.03875 3.85612 2.9658C3.89207 3.0673 3.89841 3.13179 3.95868 3.15188Z"/>
  <path d="M0.197718 10.0804C0.209348 10.0752 0.218864 10.0699 0.226265 10.0635C0.15754 10.0286 0.0930438 10.0202 0 10.0033C0.0919864 10.0582 0.138508 10.1037 0.197718 10.0804Z"/>
  <path d="M1.38178 18.5443C1.38812 18.5326 1.39129 18.5231 1.39235 18.5136C1.31834 18.5295 1.2623 18.5644 1.18089 18.6119C1.28662 18.595 1.35111 18.6003 1.38178 18.5443Z"/>
  <path d="M8.12321 23.8181C8.12004 23.8055 8.11581 23.7959 8.11158 23.7875C8.06506 23.8478 8.04497 23.9101 8.01325 24C8.08304 23.9186 8.1359 23.8805 8.12321 23.8181Z"/>
  <path d="M16.4292 23.981C16.4302 23.8732 16.4471 23.8108 16.3964 23.7706C16.3869 23.7632 16.3774 23.7579 16.3678 23.7548C16.3721 23.8309 16.3964 23.8922 16.4292 23.981Z"/>
  <path d="M22.8628 18.3159C22.7952 18.2323 22.7666 18.1742 22.7032 18.1752C22.6894 18.1763 22.6799 18.1784 22.6704 18.1816C22.7222 18.2376 22.7804 18.2683 22.8628 18.3159Z"/>
  <path d="M24.2824 10.3564C24.1766 10.3363 24.1174 10.3088 24.0699 10.3522C24.0603 10.3606 24.054 10.3691 24.0487 10.3776C24.1248 10.3871 24.1883 10.3733 24.2824 10.3564Z"/>
  <path d="M22.5742 10.7487C22.2665 10.8787 21.9451 11.0331 21.6755 11.234C21.5296 11.3429 21.4006 11.4687 21.2568 11.5797C21.1405 11.6696 21.0559 11.7901 20.9459 11.8874C20.7894 12.0248 20.615 12.1454 20.4469 12.268C20.2967 12.379 20.1804 12.4827 20.0483 12.6085C19.9489 12.7036 19.8294 12.7829 19.7131 12.8644C19.5291 12.5556 19.4657 12.23 19.3674 11.8726C19.3113 11.6706 19.2214 11.438 19.0914 11.2742C18.9772 11.1293 18.899 10.9739 18.8006 10.8227C18.7435 10.7349 18.6611 10.6599 18.5892 10.5806C18.4845 10.4642 18.3798 10.3458 18.2709 10.2327C18.3291 10.1259 18.3936 10.0223 18.4443 9.91339C18.4834 9.82986 18.5025 9.74422 18.5342 9.65858C18.5955 9.49892 18.7118 9.36993 18.7837 9.21768C18.8197 9.14155 18.8567 9.05802 18.8926 8.97555C19.0946 9.10031 19.2955 9.23036 19.4911 9.37627C19.7142 9.54333 19.8061 9.8066 20.0937 9.89541C20.2153 9.93348 20.3401 9.94511 20.4659 9.94299C20.744 9.93876 20.9882 9.99269 21.26 10.0456C21.4154 10.0752 21.4915 10.0804 21.629 10.1439C21.796 10.2211 21.9715 10.2538 22.1534 10.2676C22.2348 10.2729 22.3289 10.2581 22.4082 10.2718C22.4695 10.2834 22.5213 10.3215 22.5816 10.3353C22.8195 10.3881 23.0616 10.4738 23.309 10.4981C23.3619 10.5034 23.4169 10.5023 23.4708 10.4991C23.3471 10.5203 23.2234 10.5425 23.0997 10.5647C22.9062 10.5975 22.7529 10.6725 22.5742 10.7487ZM20.7472 16.1357C20.8476 16.2573 20.9015 16.3112 20.966 16.4476C21.0443 16.6136 21.1585 16.7521 21.2896 16.879C21.3477 16.9361 21.4291 16.9858 21.4809 17.0471C21.5211 17.0947 21.5359 17.1571 21.574 17.2067C21.722 17.4002 21.8521 17.6212 22.0255 17.7999C22.0625 17.838 22.1047 17.8718 22.1492 17.9035C22.0413 17.8411 21.9313 17.7788 21.8235 17.7153C21.6533 17.6159 21.4873 17.5758 21.3022 17.5187C20.9829 17.4214 20.6372 17.3326 20.302 17.3125C20.1191 17.3019 19.9394 17.3157 19.7586 17.3083C19.6116 17.303 19.4689 17.34 19.3219 17.3442C19.1136 17.3484 18.9032 17.3283 18.6949 17.3157C18.5099 17.304 18.3534 17.3083 18.1715 17.3199C18.0066 17.3305 17.8343 17.3061 17.6661 17.2945C17.7338 17.1317 17.8131 16.971 17.8924 16.7986C17.9791 16.6083 18.0595 16.3715 18.0669 16.1621C18.0711 15.9781 18.1123 15.809 18.1335 15.6303C18.1462 15.5267 18.1314 15.4157 18.1271 15.3089C18.1208 15.1302 18.1166 14.9504 18.1018 14.7728C18.1948 14.7379 18.2878 14.7062 18.3777 14.6639C18.4602 14.6258 18.53 14.5719 18.6103 14.5275C18.7594 14.444 18.9317 14.4207 19.084 14.3499C19.2384 14.278 19.4128 14.1902 19.5608 14.1078C19.6053 14.0824 19.6486 14.0464 19.6888 14.0073C19.7374 14.1638 19.7839 14.3224 19.822 14.4863C19.8854 14.7569 19.7871 15.017 19.9499 15.2708C20.0187 15.3776 20.1064 15.4675 20.2048 15.5468C20.4204 15.7212 20.5727 15.92 20.7472 16.1357ZM16.1552 19.776C16.1394 19.9018 16.1489 20.0277 16.1722 20.1514C16.225 20.4231 16.2144 20.6737 16.2102 20.9507C16.2081 21.1093 16.2155 21.1844 16.1774 21.3303C16.1309 21.509 16.1277 21.6877 16.1468 21.8695C16.1552 21.9499 16.1859 22.0408 16.1859 22.1212C16.1859 22.1835 16.1573 22.2406 16.1542 22.303C16.1436 22.5451 16.1003 22.7999 16.1193 23.0474C16.1235 23.1002 16.1341 23.1541 16.1478 23.207C16.1045 23.0886 16.0611 22.9712 16.0188 22.8528C15.9512 22.6678 15.8507 22.5293 15.7461 22.3675C15.5642 22.0873 15.3559 21.7966 15.1117 21.5671C14.9784 21.4413 14.8325 21.3356 14.6983 21.214C14.5894 21.1156 14.4561 21.0522 14.3419 20.9602C14.1781 20.8312 14.03 20.679 13.8799 20.5362C13.7446 20.4072 13.6219 20.311 13.4749 20.2032C13.3195 20.0879 13.1863 19.9283 13.0414 19.7982C13.2603 19.6565 13.4982 19.5593 13.7509 19.4387C13.9402 19.3489 14.1537 19.2188 14.2922 19.0623C14.4149 18.9259 14.5555 18.8213 14.6866 18.6986C14.7628 18.6278 14.822 18.5326 14.8875 18.448C15.0599 18.2292 15.2396 18.0135 15.3739 17.7692C15.376 17.7661 15.3771 17.7618 15.3792 17.7587C15.4426 17.7809 15.505 17.8031 15.5695 17.8211C15.6583 17.8443 15.7461 17.8475 15.8359 17.8655C16.004 17.8972 16.151 17.9892 16.3138 18.0336C16.4777 18.078 16.667 18.1234 16.8351 18.1552C16.8732 18.1615 16.9165 18.1626 16.9609 18.1615C16.8372 18.4734 16.7167 18.7853 16.5612 19.0919C16.4354 19.3404 16.1933 19.4768 16.1552 19.776ZM11.2567 20.3406C11.0008 20.4495 10.727 20.3977 10.506 20.6028C10.4119 20.6885 10.3389 20.791 10.2776 20.901C10.1433 21.1442 9.97417 21.3282 9.79231 21.5386C9.68869 21.658 9.6464 21.7204 9.52375 21.8082C9.37361 21.9139 9.25625 22.0493 9.15369 22.2005C9.10823 22.2681 9.07334 22.358 9.02259 22.4193C8.98241 22.4669 8.9232 22.4923 8.88091 22.5377C8.71596 22.7175 8.52036 22.8835 8.37551 23.0865C8.34485 23.1298 8.31841 23.1774 8.2941 23.226C8.33745 23.1076 8.37974 22.9903 8.42309 22.8718C8.49181 22.6868 8.50239 22.5166 8.5267 22.3242C8.56794 21.9932 8.59437 21.6369 8.55525 21.3038C8.53411 21.123 8.4897 20.9475 8.46538 20.7678C8.44529 20.6219 8.38397 20.4887 8.35542 20.3449C8.31418 20.1408 8.29727 19.9293 8.27401 19.7221C8.25392 19.5371 8.2222 19.3848 8.17885 19.2072C8.13867 19.0465 8.13338 18.871 8.11541 18.7018C8.24334 18.7346 8.37234 18.7716 8.50767 18.8065C8.71068 18.8593 8.95809 18.8974 9.16427 18.8667C9.34612 18.8403 9.52058 18.8509 9.70033 18.8414C9.805 18.835 9.91179 18.8012 10.0154 18.779C10.2882 18.7208 10.5642 18.6711 10.8243 18.5707C10.8581 18.558 10.8919 18.5432 10.9258 18.5295C11.0082 18.6542 11.0748 18.7917 11.1605 18.9143C11.2133 18.9894 11.2778 19.0475 11.336 19.1194C11.4449 19.2516 11.4967 19.4176 11.5929 19.555C11.6902 19.6946 11.8065 19.8511 11.9143 19.9822C11.9207 19.9907 11.9291 19.9981 11.9365 20.0055C11.7156 20.1239 11.4925 20.2391 11.2567 20.3406ZM6.0177 17.894C5.75125 17.8136 5.57468 17.598 5.27334 17.6128C5.14752 17.618 5.02488 17.6498 4.90752 17.6952C4.64847 17.7946 4.4 17.8263 4.12616 17.8707C3.97073 17.8961 3.89672 17.9162 3.74658 17.9046C3.56367 17.8887 3.38604 17.9183 3.21052 17.968C3.13228 17.9902 3.04875 18.0367 2.97051 18.0505C2.90813 18.0611 2.84681 18.0431 2.78548 18.0505C2.54442 18.0822 2.28643 18.0843 2.04536 18.1456C1.99461 18.1583 1.94386 18.1784 1.89311 18.2006C2.00201 18.1382 2.11092 18.0748 2.21982 18.0124C2.3911 17.9141 2.50952 17.7914 2.6512 17.6593C2.89544 17.432 3.14497 17.1771 3.32894 16.8959C3.42939 16.7436 3.50763 16.5808 3.6049 16.4275C3.68314 16.3027 3.72226 16.1611 3.79205 16.0321C3.89143 15.8492 4.01514 15.6768 4.13039 15.5034C4.23295 15.349 4.30696 15.2116 4.38837 15.0477C4.47401 14.8733 4.61041 14.7136 4.71297 14.5465C4.7891 14.4239 4.85782 14.3118 4.90752 14.1754C4.91174 14.1617 4.91492 14.1469 4.91915 14.1331C5.1433 14.3446 5.29872 14.5952 5.48798 14.8616C5.60957 15.0329 5.77346 15.2211 5.95214 15.33C6.10863 15.4273 6.2355 15.5468 6.3793 15.6546C6.46283 15.718 6.56644 15.7593 6.66054 15.81C6.87306 15.9232 7.08558 16.0405 7.30868 16.1293C7.30868 16.1304 7.30868 16.1315 7.30973 16.1325C7.31185 16.3355 7.25158 16.5322 7.23361 16.732C7.22621 16.8229 7.23784 16.9107 7.23678 17.0016C7.23467 17.1729 7.16806 17.3336 7.15325 17.5017C7.13739 17.6709 7.12682 17.8655 7.1247 18.0357C7.12365 18.0727 7.12999 18.1129 7.13845 18.1541C6.76522 18.0769 6.39199 18.0071 6.0177 17.894ZM3.7783 11.8684C3.6768 11.7912 3.56367 11.7373 3.44419 11.696C3.18198 11.6051 2.97051 11.4708 2.73262 11.3281C2.59728 11.2477 2.52855 11.216 2.42071 11.1103C2.2896 10.9802 2.13629 10.8893 1.96923 10.8142C1.89522 10.7814 1.80112 10.7624 1.7324 10.7222C1.67847 10.6916 1.64252 10.6387 1.59072 10.6049C1.3856 10.4738 1.18682 10.3099 0.962671 10.202C0.914034 10.1788 0.863284 10.1608 0.810418 10.146C0.934124 10.1682 1.05783 10.1893 1.18154 10.2116C1.37502 10.2464 1.54525 10.2285 1.73874 10.2179C2.07285 10.201 2.42705 10.1661 2.74848 10.0699C2.92399 10.017 3.08893 9.94299 3.26127 9.88801C3.40084 9.84255 3.52243 9.75902 3.65883 9.7051C3.85337 9.62897 4.05743 9.5761 4.25727 9.51795C4.43595 9.46509 4.5808 9.40693 4.74892 9.33398C4.81764 9.30332 4.89166 9.28111 4.96672 9.25891C5.00902 9.5761 4.96461 9.8785 4.93818 10.2158C4.92126 10.4241 4.92655 10.6736 4.9921 10.8724C5.05025 11.0468 5.07034 11.2202 5.11052 11.3957C5.13484 11.4972 5.18665 11.5966 5.22682 11.695C5.31352 11.9085 5.396 12.1242 5.50173 12.3272C5.4182 12.3991 5.33256 12.4668 5.25537 12.544C5.19088 12.6085 5.1433 12.6836 5.08409 12.7523C4.97201 12.8823 4.8187 12.9627 4.69922 13.0822C4.67068 13.1097 4.64213 13.1414 4.61252 13.1699C4.45815 12.9743 4.30696 12.7755 4.16739 12.562C4.01408 12.3283 4.01831 12.0502 3.7783 11.8684ZM4.72143 4.62998C4.70028 4.57077 4.70662 4.50733 4.68865 4.44812C4.6157 4.21657 4.56917 3.96282 4.46661 3.73655C4.44441 3.68791 4.41586 3.64139 4.38626 3.59593C4.46661 3.69214 4.54803 3.78836 4.62838 3.88458C4.7542 4.03577 4.89588 4.13093 5.05025 4.24829C5.31775 4.44918 5.61169 4.65113 5.92042 4.7833C6.08748 4.85625 6.26194 4.90489 6.42899 4.97361C6.56538 5.02859 6.71129 5.04234 6.85086 5.08992C7.04858 5.15547 7.23995 5.24746 7.43027 5.33098C7.6005 5.405 7.74958 5.45363 7.92509 5.50544C8.11118 5.55936 8.29198 5.66615 8.47384 5.73911C8.56583 5.77506 8.65253 5.80572 8.7424 5.83109C8.61658 5.97172 8.47595 6.10282 8.33322 6.24873C8.18625 6.39781 8.02977 6.59236 7.95258 6.78691C7.88491 6.95819 7.7887 7.10304 7.70729 7.26376C7.65971 7.3568 7.63644 7.46676 7.60367 7.56721C7.56032 7.69937 7.51591 7.83048 7.47679 7.96264C7.32454 7.97216 7.17228 7.96158 7.02215 7.97427C6.93016 7.98167 6.84663 8.00916 6.75676 8.02397C6.58759 8.05146 6.41736 8.01339 6.25031 8.0282C6.08008 8.04194 5.88765 8.0652 5.71953 8.09269C5.61592 8.10961 5.50067 8.17199 5.41185 8.2238C5.39494 8.23437 5.37696 8.24706 5.35899 8.25763C5.36639 8.04194 5.37802 7.82413 5.40445 7.60421C5.43723 7.32719 5.61909 7.11679 5.55248 6.82285C5.52393 6.69915 5.47212 6.5839 5.40762 6.47606C5.26489 6.23816 5.18982 5.99921 5.09889 5.73805C5.04708 5.58791 5.01325 5.52024 4.9995 5.36905C4.98258 5.18613 4.92338 5.01696 4.84408 4.85308C4.80813 4.78012 4.74786 4.70505 4.72143 4.62998ZM10.3685 4.54751C10.5716 4.3572 10.8465 4.31279 10.985 4.04423C11.0431 3.93215 11.0769 3.81056 11.096 3.6858C11.1393 3.41196 11.2355 3.1804 11.3349 2.92136C11.391 2.77439 11.41 2.70038 11.4956 2.57562C11.6003 2.42548 11.6638 2.25737 11.7082 2.0808C11.7283 2.0015 11.7293 1.90528 11.7568 1.83021C11.779 1.77206 11.8255 1.72765 11.8488 1.67056C11.9429 1.44535 12.0698 1.22226 12.1364 0.982245C12.1512 0.931494 12.1596 0.877572 12.1649 0.822591C12.1649 0.948412 12.1649 1.07423 12.1649 1.20005C12.1649 1.39671 12.2114 1.5606 12.2559 1.74986C12.3299 2.07551 12.4261 2.41914 12.5773 2.71836C12.6587 2.88224 12.7613 3.03132 12.8458 3.19098C12.9135 3.32208 13.0171 3.42676 13.0943 3.55152C13.2022 3.72915 13.2899 3.92264 13.3819 4.10873C13.4654 4.27578 13.5479 4.40795 13.6483 4.5602C13.752 4.71563 13.8217 4.90383 13.9095 5.07088C13.6959 5.10789 13.4792 5.11846 13.2466 5.14067C13.0383 5.16076 12.793 5.20939 12.609 5.30878C12.4472 5.39548 12.2791 5.44623 12.1142 5.51601C12.018 5.55725 11.9291 5.62597 11.8393 5.68201C11.6035 5.83004 11.3603 5.97066 11.151 6.15463C11.1023 6.19692 11.0558 6.23922 11.0103 6.28257C10.8391 6.18318 10.7005 6.03727 10.5409 5.9252C10.4648 5.87233 10.3844 5.83849 10.3051 5.79197C10.1581 5.70421 10.0514 5.56676 9.9139 5.46949C9.83566 5.41451 9.74896 5.35742 9.66226 5.30138C9.88853 5.04445 10.1127 4.78752 10.3685 4.54751ZM15.8983 5.14701C16.1774 5.13115 16.4164 5.27389 16.6945 5.15653C16.8108 5.10789 16.9154 5.03705 17.0106 4.95458C17.22 4.77166 17.442 4.65642 17.6841 4.52214C17.8216 4.44495 17.8839 4.40055 18.0299 4.36037C18.2064 4.31173 18.3629 4.22397 18.5109 4.11719C18.5775 4.06961 18.6399 3.99771 18.7097 3.95753C18.7636 3.92687 18.8271 3.92264 18.8831 3.89409C19.0988 3.78202 19.3399 3.69214 19.545 3.55152C19.5894 3.52192 19.6296 3.48597 19.6687 3.44791C19.5883 3.54412 19.508 3.64034 19.4266 3.73655C19.2997 3.88669 19.231 4.04317 19.1422 4.21552C18.991 4.51368 18.844 4.83828 18.7657 5.16499C18.7245 5.34261 18.7065 5.52236 18.6674 5.69893C18.6368 5.84378 18.6484 5.98969 18.6262 6.1356C18.5955 6.34072 18.5384 6.54478 18.4898 6.74779C18.4464 6.92859 18.4242 7.08295 18.4041 7.26481C18.3819 7.45724 18.309 7.65391 18.2688 7.84634C18.2477 7.94995 18.2318 8.04723 18.2233 8.14873C17.9506 8.02608 17.7243 7.84739 17.4631 7.66765C17.2908 7.54817 17.0719 7.42764 16.8668 7.38535C16.686 7.34834 16.5264 7.27962 16.354 7.22675C16.2546 7.19609 16.1425 7.19186 16.0368 7.17811C15.8602 7.15274 15.6826 7.12525 15.5039 7.10939C15.4447 6.93176 15.431 6.7425 15.3834 6.56276C15.3591 6.47394 15.3178 6.39676 15.2882 6.31006C15.2311 6.14829 15.2385 5.97489 15.1952 5.81206C15.1518 5.64712 15.0958 5.46103 15.0398 5.30032C15.0334 5.2834 15.025 5.26543 15.0165 5.24851C15.3062 5.20516 15.598 5.16393 15.8983 5.14701ZM17.8776 9.18701C17.7264 9.36993 17.6883 9.52853 17.6556 9.73047C17.5583 9.66703 17.46 9.60571 17.3553 9.54438C17.2041 9.45557 17.0413 9.42597 16.8911 9.33715C16.8277 9.29909 16.759 9.24622 16.6902 9.21873C16.63 9.19441 16.5908 9.20816 16.5338 9.1923C16.4661 9.17221 16.3117 9.0834 16.262 9.03476C16.2314 9.00515 16.2377 8.97026 16.2092 8.94066C16.1743 8.90365 16.1256 8.86559 16.0749 8.82858C16.0527 8.65518 16.0802 8.45324 16.0802 8.27984C16.0802 8.14873 16.0971 8.00705 16.0812 7.87806C16.2303 7.90343 16.3783 7.93092 16.5253 7.9785C16.7378 8.04723 16.9736 8.07366 17.1925 8.12335C17.3521 8.1593 17.5488 8.16565 17.7021 8.2238C17.8892 8.2957 18.07 8.45006 18.2413 8.56743C18.2403 8.59915 18.236 8.62981 18.2255 8.66047C18.162 8.84338 18.0024 9.03687 17.8776 9.18701ZM17.9326 13.9809C17.9051 13.8952 17.8787 13.8096 17.848 13.7208C17.7888 13.5558 17.6831 13.429 17.626 13.2651C17.6016 13.1942 17.5837 13.1097 17.5477 13.0441C17.5171 12.987 17.4779 12.9733 17.4452 12.9236C17.406 12.8654 17.3447 12.6984 17.3384 12.6286C17.3331 12.5863 17.3606 12.563 17.3585 12.5218C17.3574 12.5059 17.3542 12.4869 17.3511 12.4689C17.3955 12.4235 17.4409 12.3738 17.46 12.3262C17.4853 12.2596 17.4578 12.193 17.5001 12.12C17.5921 11.9625 17.7571 11.8176 17.8755 11.677C18.0024 11.5247 18.1747 11.3799 18.2075 11.1864C18.2931 11.289 18.3767 11.3926 18.4486 11.5078C18.568 11.6981 18.7309 11.8694 18.8662 12.0481C18.9656 12.1792 19.1125 12.3103 19.1918 12.4531C19.2976 12.6423 19.3346 12.9024 19.398 13.1118C19.3515 13.1541 19.306 13.1995 19.2627 13.2503C19.1781 13.3507 19.1295 13.4945 19.0153 13.5632C18.8482 13.6637 18.6019 13.7092 18.4105 13.744C18.198 13.7832 18.07 13.8656 17.9326 13.9809ZM5.94051 12.9775C5.97012 13.0156 6.00078 13.0536 6.0325 13.0917C6.14352 13.227 6.28625 13.3095 6.39727 13.4448C6.44379 13.5019 6.49032 13.5759 6.5453 13.6246C6.59393 13.6679 6.63517 13.6679 6.68275 13.7028C6.73984 13.7451 6.85509 13.8815 6.88575 13.9439C6.90373 13.9819 6.88575 14.0126 6.90267 14.0507C6.94073 14.1384 7.02743 14.2526 7.08136 14.3351C7.13951 14.425 7.21246 14.5095 7.28436 14.591C7.24418 14.6903 7.19872 14.7887 7.16594 14.8807C7.12365 14.997 7.06338 15.1164 7.03166 15.2359C6.84134 15.1249 6.65103 15.0266 6.47551 14.8902C6.29894 14.7527 6.08748 14.647 5.89822 14.5265C5.75971 14.4366 5.57785 14.3636 5.45415 14.2568C5.30507 14.1278 5.18876 13.9259 5.07034 13.7588C5.19616 13.6256 5.38648 13.5104 5.53979 13.4205C5.74702 13.2989 5.83795 13.1604 5.94051 12.9775ZM11.5379 7.24367C11.6394 7.2775 11.7452 7.37477 11.8298 7.43716C11.9355 7.51434 11.9566 7.60738 12.0032 7.71946C11.9355 7.74801 11.8721 7.77867 11.8054 7.82519C11.7431 7.86748 11.7039 7.93409 11.6458 7.98062C11.6183 8.00282 11.5876 8.02291 11.558 8.043C11.4037 7.99542 11.2482 7.95524 11.0896 7.93092C10.912 7.90237 10.7418 7.84528 10.5673 7.79876C10.6329 7.70466 10.7238 7.6169 10.7968 7.5302C10.9036 7.40332 11.0093 7.27644 11.115 7.15062C11.2567 7.17811 11.4047 7.1982 11.5379 7.24367ZM16.4238 14.7813C16.4375 14.6692 16.4534 14.5751 16.4428 14.4598C16.4365 14.3858 16.3984 14.3182 16.3878 14.2442C16.372 14.1363 16.3752 14.0242 16.3551 13.9153C16.3371 13.8138 16.3212 13.7144 16.3096 13.614C16.3572 13.5632 16.4048 13.5125 16.4481 13.4586C16.5708 13.3053 16.7198 13.1784 16.8573 13.0378C16.8837 13.0684 16.907 13.1001 16.926 13.1393C16.9778 13.246 17.0085 13.3719 17.0487 13.4829C17.129 13.7039 17.2094 13.9248 17.2897 14.1469C17.3056 14.1892 17.3236 14.2325 17.3415 14.2769C17.2517 14.3245 17.1755 14.3911 17.1026 14.4672C16.9799 14.5952 16.8689 14.7527 16.7368 14.869C16.6564 14.9399 16.52 14.9822 16.4238 15.0245C16.4344 14.943 16.4122 14.8743 16.4238 14.7813ZM7.31819 11.4053C7.333 11.4021 7.34463 11.3979 7.35837 11.3936C7.3774 11.438 7.40066 11.4814 7.41441 11.5385C7.43978 11.6484 7.45776 11.7425 7.5064 11.8472C7.53706 11.9159 7.59627 11.9656 7.63222 12.0312C7.68402 12.1274 7.71892 12.2342 7.77495 12.3294C7.83205 12.4277 7.88597 12.5239 7.93461 12.6233C7.92298 12.655 7.90818 12.6857 7.8976 12.7184C7.81513 12.9595 7.67662 13.1741 7.58781 13.4184C7.56455 13.4839 7.54129 13.5484 7.51697 13.614C7.4493 13.5527 7.37846 13.4956 7.30022 13.4501C7.22621 13.4078 7.15854 13.3824 7.09722 13.3232C7.01263 13.2408 6.94073 13.1329 6.86461 13.042C6.71341 12.8622 6.56221 12.6814 6.41102 12.5017C6.40996 12.5006 6.40996 12.4996 6.4089 12.4985C6.45331 12.4361 6.4882 12.3664 6.52098 12.2934C6.59182 12.1316 6.64257 11.9455 6.72715 11.7912C6.77896 11.6971 6.89315 11.6093 6.96928 11.5364C7.07395 11.4359 7.17969 11.4433 7.31819 11.4053ZM16.2641 12.6074C16.261 12.5662 16.2567 12.525 16.2525 12.4848C16.2218 12.1972 16.1383 11.9635 15.9512 11.7669C15.9554 11.7531 15.9617 11.7394 15.966 11.7256C15.9691 11.7151 15.9713 11.7034 15.9734 11.6928C16.0474 11.7732 16.1256 11.8493 16.207 11.9223C16.3233 12.0259 16.3921 12.1982 16.4608 12.3632C16.4418 12.3928 16.4227 12.4224 16.4048 12.452C16.3667 12.5144 16.3181 12.562 16.2641 12.6074ZM13.79 15.1841C13.7964 15.182 13.8017 15.1799 13.808 15.1778C13.8069 15.1809 13.8059 15.1841 13.8048 15.1862C13.7995 15.1862 13.7953 15.1852 13.79 15.1841ZM8.20422 14.0739C8.21057 13.9344 8.25497 13.7895 8.28246 13.6478C8.28987 13.6119 8.3015 13.577 8.3163 13.5442C8.3311 13.5759 8.3459 13.6076 8.36071 13.6383C8.48018 13.8815 8.62715 14.0634 8.8439 14.1849C8.84496 14.2103 8.84496 14.2368 8.84707 14.2621C8.85553 14.3753 8.86928 14.4884 8.88619 14.6015C8.8513 14.5804 8.81641 14.5571 8.78152 14.5328C8.60072 14.4049 8.40088 14.3065 8.19682 14.2241C8.2 14.1807 8.20105 14.1331 8.20422 14.0739ZM15.3739 9.37204C15.3771 9.37944 15.3781 9.38473 15.3802 9.39213C15.4215 9.52535 15.4299 9.67655 15.4521 9.81929C15.4595 9.87215 15.4574 9.9229 15.4511 9.9726C15.413 9.93559 15.3749 9.89859 15.339 9.86369C15.1032 9.63637 14.859 9.50526 14.5354 9.49998C14.4604 9.49892 14.3842 9.51584 14.3102 9.52007C14.3081 9.51478 14.307 9.50949 14.3049 9.50527C14.2415 9.36464 14.1696 9.22719 14.0924 9.09291C14.1537 9.10243 14.2151 9.113 14.2785 9.12992C14.4952 9.18913 14.7183 9.21345 14.9425 9.22085C15.0821 9.22508 15.2301 9.29697 15.3739 9.37204ZM15.4341 13.134C15.4373 13.1424 15.4394 13.1498 15.4426 13.1583C15.4352 13.1615 15.4278 13.1646 15.4204 13.1689C15.4257 13.1572 15.4289 13.1456 15.4341 13.134ZM9.50789 10.46V10.4579C9.50895 10.4579 9.51001 10.4579 9.51107 10.4568C9.51001 10.4579 9.50895 10.459 9.50789 10.46ZM15.1762 10.9622C15.173 10.9443 15.1719 10.9263 15.1688 10.9094C15.1772 10.9136 15.1846 10.9178 15.1931 10.9221C15.1867 10.9358 15.1814 10.9485 15.1762 10.9622ZM10.9194 10.1978C11.0653 10.1449 11.2102 10.0921 11.355 10.0392C11.6712 9.92396 11.9979 9.88801 12.3309 9.86052C12.3669 9.85735 12.3954 9.85735 12.425 9.85629C12.4567 9.85735 12.4874 9.85735 12.5181 9.85524C12.5635 9.87004 12.609 9.88484 12.6523 9.89964C12.7972 9.95251 12.9421 10.0054 13.0869 10.0582C13.217 10.1058 13.3385 10.1661 13.457 10.2316C13.5648 10.4262 13.6938 10.6144 13.7974 10.7941C13.8746 10.9274 13.9518 11.0606 14.029 11.1949C14.1971 11.4867 14.2891 11.8007 14.3747 12.1253C14.3895 12.1824 14.3874 12.2215 14.4149 12.2775C14.416 12.2797 14.417 12.2807 14.4181 12.2828C14.4181 12.3537 14.4202 12.4256 14.4297 12.5049C14.4466 12.6402 14.5005 12.7555 14.5122 12.8908C14.5143 12.9119 14.5132 12.9299 14.5122 12.9468C14.4477 13.1403 14.3652 13.3275 14.2774 13.5146C14.2584 13.5537 14.2394 13.5791 14.2246 13.614C14.0586 13.7504 13.901 13.9037 13.7477 14.0327L13.3935 14.3309C13.1345 14.5476 12.8406 14.6925 12.5371 14.832C12.5339 14.8341 12.5318 14.8352 12.5286 14.8362H12.1649C11.8636 14.8362 11.5781 14.7728 11.2895 14.6967C11.1954 14.6237 11.1023 14.5518 11.0167 14.4799C10.8983 14.3805 10.7798 14.2812 10.6614 14.1828C10.4034 13.9661 10.21 13.7018 10.0186 13.4258C9.98474 13.3772 9.97417 13.3401 9.92871 13.2968C9.87478 13.245 9.81029 13.2122 9.76482 13.1498C9.73205 13.1044 9.70561 13.0557 9.68447 13.005C9.68024 12.9807 9.67601 12.9563 9.67178 12.932C9.61257 12.6 9.63371 12.2733 9.66438 11.9392C9.66966 11.88 9.68658 11.844 9.67918 11.7827C9.67601 11.751 9.66861 11.7214 9.66226 11.6918C9.69715 11.5987 9.73204 11.5078 9.75636 11.401C9.75953 11.3841 9.76165 11.3672 9.76376 11.3503C9.76905 11.3397 9.77434 11.3302 9.77751 11.3186C9.78491 11.3006 9.79443 11.2826 9.80183 11.2646C9.87267 11.142 9.94351 11.0193 10.0143 10.8977C10.0165 10.8935 10.0186 10.8903 10.0207 10.8872C10.0651 10.828 10.1106 10.7719 10.1571 10.7265C10.2882 10.5964 10.4182 10.4431 10.5737 10.3342C10.6921 10.2866 10.8084 10.238 10.9194 10.1978ZM8.24863 11.4063C8.15982 11.2393 8.16933 10.9993 8.15664 10.7878C8.24969 10.7444 8.35013 10.7201 8.44952 10.6821C8.48653 10.6673 8.52459 10.6546 8.56265 10.6419C8.54679 10.7021 8.53199 10.7624 8.51719 10.8206C8.45058 11.0902 8.44741 11.3302 8.54362 11.5702C8.51296 11.6062 8.48018 11.6421 8.45164 11.6812C8.43683 11.7024 8.42309 11.7246 8.40829 11.7468C8.36176 11.6305 8.30784 11.5173 8.24863 11.4063ZM12.9738 16.3577C12.8881 16.3249 12.8014 16.2858 12.7147 16.252C12.664 16.2319 12.6206 16.2034 12.5783 16.1716C12.6439 16.1537 12.7084 16.1357 12.7708 16.1177C12.8406 16.0976 12.9072 16.0744 12.9695 16.0469C13.0319 16.0638 13.0943 16.0807 13.1577 16.0955C13.1091 16.1621 13.0605 16.2298 13.0171 16.3006C13.0044 16.3207 12.9896 16.3387 12.9738 16.3577ZM15.4796 15.201C15.3834 15.237 15.2798 15.2645 15.1825 15.2972C15.0377 15.3469 14.8907 15.3194 14.7384 15.3226C14.7363 15.3226 14.7342 15.3216 14.7321 15.3216C14.7881 15.2433 14.8431 15.163 14.8939 15.0868C15.0271 14.8891 15.1096 14.6956 15.1244 14.481C15.2745 14.4112 15.4246 14.3414 15.561 14.2494C15.5653 14.3742 15.5769 14.4979 15.5938 14.6206C15.6192 14.7982 15.5388 15.0065 15.4796 15.201ZM14.9499 7.75858C14.9552 7.76704 14.9615 7.7755 14.9679 7.78396C15.0725 7.92669 15.2079 8.06309 15.2999 8.21428C15.339 8.27878 15.3591 8.36971 15.3771 8.45324C15.3358 8.44901 15.2935 8.44689 15.2449 8.43103C15.137 8.39825 15.0472 8.36759 14.9319 8.35702C14.8569 8.34962 14.7839 8.37605 14.7099 8.37394C14.5999 8.37076 14.49 8.3475 14.38 8.34856C14.1463 8.34962 13.9264 8.34327 13.6896 8.29041C13.6283 8.27666 13.5627 8.26503 13.4971 8.25552C13.4686 8.21323 13.44 8.17199 13.4115 8.13075C13.4348 8.11912 13.457 8.10855 13.4802 8.09586C13.5542 8.05251 13.6092 8.00705 13.6917 7.98379C13.8048 7.95101 13.9349 7.94361 14.0512 7.92246C14.2827 7.88123 14.5153 7.84105 14.7469 7.79981C14.8135 7.78818 14.8812 7.77338 14.9499 7.75858ZM10.2406 8.47121C10.3939 8.47544 10.5219 8.55051 10.6657 8.6002C10.6857 8.60655 10.7048 8.61501 10.7238 8.62241C10.543 8.72497 10.3569 8.85713 10.1899 8.97766C10.0196 9.10243 9.88853 9.23671 9.79971 9.40165C9.78914 9.4027 9.77857 9.40376 9.76799 9.40482C9.80817 9.28429 9.83989 9.16164 9.86632 9.03793C9.90756 8.84021 10.0884 8.65201 10.2174 8.47121C10.2258 8.47121 10.2332 8.47121 10.2406 8.47121ZM8.15242 8.59492C8.31101 8.51668 8.46961 8.40671 8.63349 8.34327C8.73394 8.30415 8.87773 8.3105 8.98241 8.30415C9.08285 8.29675 9.15158 8.33059 9.22665 8.37182C9.18753 8.44583 9.18541 8.51773 9.14206 8.60337C9.09025 8.70382 9.04373 8.78629 9.01413 8.89837C8.99404 8.97026 9.00673 9.04745 8.99192 9.1204C8.96972 9.22719 8.92849 9.33186 8.90945 9.44077C8.89782 9.50738 8.88619 9.57293 8.87245 9.63849C8.68953 9.71038 8.5119 9.79497 8.34379 9.89647C8.23489 9.96202 8.11858 10.0138 8.00228 10.0656C7.99805 10.0498 7.9917 10.035 7.98959 10.017C7.97796 9.89964 7.99276 9.77065 7.99276 9.65329V8.94594C7.99276 8.85502 7.98642 8.75986 7.9843 8.6647C8.0414 8.64567 8.09638 8.62241 8.15242 8.59492ZM8.0858 15.6662C8.0636 15.662 8.0414 15.6599 8.01919 15.6567C7.97056 15.5087 7.90712 15.3586 7.87751 15.2084C7.86588 15.1534 7.87011 15.0879 7.87751 15.0223C7.88597 15.0266 7.89443 15.0319 7.90289 15.0361C7.97056 15.0678 8.0488 15.0689 8.11752 15.0963C8.21903 15.1365 8.31524 15.1957 8.41886 15.2327C8.63878 15.311 8.8439 15.3924 9.04796 15.5235C9.07757 15.5425 9.1114 15.5616 9.14418 15.5795C9.16955 15.6694 9.19176 15.7603 9.21502 15.8523C9.1907 15.8544 9.16638 15.8566 9.13995 15.8544C9.02259 15.846 8.89782 15.809 8.78152 15.7889C8.54997 15.7477 8.31736 15.7075 8.0858 15.6662ZM11.1795 17.6572C11.1647 17.6466 11.1499 17.635 11.133 17.6244C10.986 17.5261 10.8116 17.4436 10.6741 17.3336C10.5906 17.267 10.524 17.1391 10.4658 17.0513C10.3908 16.9382 10.4066 16.8399 10.3982 16.713C10.4415 16.7014 10.4849 16.6887 10.5388 16.6855C10.6509 16.6802 10.7471 16.6781 10.8581 16.6485C10.931 16.6295 10.9903 16.5808 11.0611 16.5565C11.1647 16.5227 11.2757 16.5068 11.3804 16.4677C11.4555 16.4402 11.5295 16.4148 11.6035 16.3905C11.6468 16.4169 11.6881 16.4455 11.7325 16.4698C11.9344 16.5819 12.1078 16.732 12.3045 16.8557C12.2326 16.9118 12.1628 16.972 12.1047 17.0418C12.0497 17.1074 12.0127 17.1697 11.9429 17.2194C11.8477 17.2892 11.7293 17.341 11.6268 17.4002C11.4777 17.4859 11.3286 17.5715 11.1795 17.6572ZM14.7205 16.8504C14.5439 16.8695 14.3578 16.9192 14.1812 16.9223C14.0744 16.9255 13.9412 16.8695 13.8408 16.8409C13.7932 16.8261 13.7583 16.805 13.7266 16.7807C13.7414 16.7627 13.7562 16.7436 13.771 16.7236C13.8133 16.6622 13.8281 16.5861 13.8672 16.5227C13.9243 16.4296 13.9983 16.3461 14.0533 16.2499C14.0734 16.216 14.0924 16.1833 14.1125 16.1494C14.2658 16.141 14.4191 16.1262 14.5693 16.0966C14.8198 16.0479 15.0747 16.0596 15.3305 16.0141L15.3633 16.0088C15.3633 16.0109 15.3622 16.013 15.3622 16.0152C15.3337 16.1293 15.2755 16.2457 15.2354 16.3567C15.174 16.5248 15.1127 16.6929 15.0514 16.8621C14.9446 16.8346 14.8336 16.8377 14.7205 16.8504ZM16.2747 9.69135C16.3826 9.73893 16.4872 9.81611 16.5898 9.87532C16.7928 9.99269 16.9969 10.1111 17.2009 10.2285C17.2601 10.2623 17.3225 10.2951 17.3849 10.3279C17.3595 10.4093 17.3468 10.4939 17.3415 10.5816C17.3299 10.7582 17.3458 10.9506 17.3193 11.124C17.3035 11.2308 17.2252 11.3524 17.1787 11.4465C17.1407 11.5247 17.0867 11.567 17.0254 11.6051C16.999 11.5787 16.9715 11.5512 16.9472 11.512C16.8848 11.4179 16.8361 11.3355 16.7547 11.2541C16.7019 11.2012 16.63 11.1737 16.5739 11.124C16.4925 11.0511 16.4227 10.9633 16.3371 10.8925C16.2652 10.8322 16.1954 10.7719 16.1277 10.7095C16.1288 10.6599 16.133 10.6112 16.132 10.5615C16.1277 10.3057 16.1838 10.0572 16.1827 9.79814V9.6628C16.2134 9.66915 16.244 9.67655 16.2747 9.69135ZM14.0776 5.35847C14.0988 5.38808 14.1199 5.41663 14.1442 5.44517C14.2288 5.54668 14.362 5.61857 14.4096 5.74439C14.4783 5.9252 14.4804 6.17578 14.4826 6.37032C14.4836 6.65157 14.5851 6.80488 14.7215 7.03326C14.7427 7.06815 14.7554 7.09882 14.7649 7.12842C14.6528 7.14216 14.5418 7.15697 14.4244 7.17706C14.2521 7.2056 14.1083 7.28807 13.937 7.31662C13.864 7.32825 13.7763 7.33142 13.7065 7.35468C13.6441 7.37477 13.624 7.41072 13.569 7.43504C13.5056 7.46359 13.3301 7.49425 13.2603 7.48896C13.218 7.48685 13.2 7.45513 13.1588 7.4509C13.0806 7.44244 12.9695 7.45302 12.8776 7.45936C12.8384 7.40544 12.794 7.34306 12.7454 7.31345C12.6841 7.27644 12.6132 7.2923 12.5498 7.23838C12.4102 7.11996 12.296 6.93176 12.1776 6.79113C12.074 6.66743 11.9799 6.51412 11.8477 6.42636C11.9408 6.38724 12.038 6.35447 12.129 6.30266C12.3288 6.18952 12.5149 6.06899 12.7274 5.98229C12.9357 5.8977 13.1324 5.7666 13.3322 5.66404C13.4781 5.58897 13.6325 5.46738 13.7879 5.41345C13.8757 5.38279 13.9761 5.36905 14.0776 5.35847ZM8.9232 6.10917C8.97078 6.02987 9.03845 5.9548 9.10929 5.88184C9.16532 5.88713 9.21925 5.89559 9.26788 5.92308C9.43705 6.01718 9.59988 6.2075 9.72676 6.35658C9.90862 6.57121 10.0852 6.62302 10.3358 6.70972C10.4256 6.74038 10.4732 6.78056 10.5208 6.83237C10.4552 6.93493 10.4024 7.04278 10.3199 7.13899C10.2713 7.19503 10.2068 7.25318 10.1677 7.31662C10.1338 7.3716 10.1412 7.41284 10.1148 7.4657C10.0884 7.51857 10.0059 7.62007 9.94562 7.67717C9.92236 7.67294 9.8991 7.66871 9.87584 7.66448C9.79971 7.65073 9.68235 7.60844 9.60411 7.62007C9.53327 7.6317 9.48992 7.6888 9.40533 7.6888C9.22242 7.68774 9.01413 7.6169 8.83333 7.58518C8.67473 7.55769 8.5045 7.50059 8.34802 7.51751C8.38608 7.41918 8.42626 7.32085 8.47701 7.22569C8.58063 7.02797 8.6483 6.80065 8.735 6.59448C8.79844 6.44222 8.83967 6.24979 8.9232 6.10917ZM5.32304 9.15847C5.45943 9.113 5.58208 9.07176 5.70685 8.99987C5.81998 8.93431 5.91514 8.81589 6.04624 8.79052C6.23656 8.75351 6.48397 8.79475 6.6764 8.82753C6.94179 8.87299 7.10885 8.80744 7.3404 8.71756C7.32877 8.86136 7.32348 9.0041 7.32242 9.15529C7.32137 9.33081 7.3774 9.48623 7.37529 9.65963C7.37423 9.7347 7.3626 9.82034 7.37317 9.89436C7.38269 9.95885 7.41441 9.98423 7.42815 10.0424C7.44507 10.11 7.44507 10.2887 7.42815 10.3564C7.4271 10.3617 7.42498 10.3649 7.42287 10.3691C7.3626 10.4029 7.30233 10.4378 7.24207 10.4727C7.17546 10.5118 7.05915 10.5541 7.00629 10.6133C6.95871 10.6673 6.96294 10.7402 6.89844 10.7931C6.75782 10.9104 6.5527 10.9897 6.39304 11.0817C6.19955 11.1938 5.95426 11.2773 5.88236 11.5015C5.80729 11.2921 5.7227 11.0912 5.67618 10.8713C5.6286 10.6525 5.5345 10.4357 5.46789 10.2211C5.41925 10.0646 5.32727 9.89119 5.30084 9.72942C5.27229 9.55284 5.30401 9.34772 5.32304 9.15847ZM8.09321 18.3656C8.08263 18.3656 8.071 18.3624 8.06043 18.3613C8.0488 18.3095 8.03505 18.2577 8.01602 18.2059C7.97056 18.0822 7.87117 17.968 7.86905 17.8348C7.86588 17.6402 7.94941 17.4045 8.01496 17.2205C8.10907 16.9551 8.06677 16.7764 8.01602 16.5163C8.00122 16.4402 8.00545 16.3852 8.01919 16.3313C8.06994 16.3419 8.12175 16.3524 8.17568 16.362C8.34802 16.3937 8.50979 16.3651 8.68107 16.3979C8.75403 16.4116 8.8365 16.4381 8.91157 16.4402C8.97712 16.4423 9.00778 16.4159 9.06699 16.4116C9.13678 16.4074 9.31335 16.4381 9.37679 16.4666C9.40745 16.4804 9.41802 16.5047 9.43917 16.5237C9.44763 16.548 9.45714 16.5724 9.4656 16.5977C9.49203 16.6696 9.51318 16.7923 9.56287 16.8547C9.60834 16.9107 9.68024 16.9192 9.72147 16.9921C9.8124 17.1507 9.85575 17.3664 9.91813 17.5398C9.98791 17.7301 10.026 17.9574 10.1867 18.0801C10.1106 18.0822 10.0334 18.0833 9.95514 18.097C9.72887 18.1351 9.51212 18.1848 9.28269 18.1932C9.05853 18.2017 8.8291 18.2567 8.606 18.2852C8.44318 18.3064 8.25603 18.3677 8.09321 18.3656ZM12.7665 19.5783C12.7465 19.5656 12.7274 19.5519 12.7063 19.5402C12.5931 19.4747 12.443 19.4514 12.3552 19.351C12.2284 19.204 12.1406 18.9693 12.0729 18.7864C11.9746 18.5231 11.8266 18.4131 11.6204 18.2461C11.6014 18.2302 11.5876 18.2154 11.5739 18.1996C11.7039 18.116 11.8044 18.0071 11.9418 17.93C12.0063 17.894 12.0867 17.8612 12.1448 17.8158C12.1966 17.7756 12.203 17.7344 12.2463 17.6931C12.2971 17.6445 12.4515 17.5557 12.5181 17.5356C12.5593 17.525 12.5857 17.5483 12.6259 17.5377C12.719 17.5155 12.8469 17.4499 12.9378 17.4108C13.0277 17.3727 13.1176 17.3209 13.2043 17.2681C13.2138 17.2702 13.2222 17.2702 13.2318 17.2734C13.4041 17.3368 13.5754 17.4743 13.735 17.5662C13.9444 17.6878 14.1559 17.8813 14.4117 17.784C14.4783 17.7587 14.4667 17.7153 14.5703 17.6815C14.6168 17.6677 14.6708 17.6572 14.7257 17.6487C14.6327 17.764 14.5037 17.8464 14.4033 17.9648C14.2542 18.1393 14.121 18.3169 13.9507 18.4713C13.7847 18.6214 13.6431 18.8118 13.4908 18.9767C13.3798 19.0972 13.2762 19.2632 13.1493 19.3668C13.0425 19.4535 12.904 19.518 12.7665 19.5783ZM17.1565 17.3072C17.0275 17.3294 16.8985 17.4076 16.7664 17.3876C16.575 17.3569 16.3561 17.2332 16.187 17.1359C16.0136 17.0376 15.8698 17.0154 15.7069 17.0122C15.7545 16.861 15.7609 16.7098 15.818 16.5607C15.8444 16.4909 15.8846 16.4138 15.9004 16.3419C15.9131 16.2774 15.892 16.2425 15.8983 16.1833C15.9057 16.1177 15.9586 15.9718 15.9977 15.9041C16.0252 15.8989 16.0506 15.8914 16.0717 15.8798C16.1351 15.8449 16.1563 15.7762 16.2345 15.7477C16.4069 15.6863 16.6268 15.681 16.8076 15.6493C17.036 15.6091 17.3045 15.6165 17.4452 15.4104C17.4462 15.5838 17.4473 15.7551 17.424 15.9285C17.3934 16.1505 17.4071 16.3863 17.3965 16.6115C17.3881 16.7754 17.4166 16.9699 17.386 17.1306C17.3754 17.1824 17.3595 17.2353 17.3394 17.2882C17.2792 17.2903 17.22 17.2956 17.1565 17.3072ZM23.6093 10.239C23.4306 10.1798 23.2657 10.1037 23.0849 10.0963C22.9569 10.091 22.8523 10.0329 22.7254 9.97788C22.1016 9.70615 21.5074 9.38896 20.8582 9.18067C20.6816 9.12463 20.5167 8.99775 20.338 8.95757C20.1825 8.92268 20.0166 8.90048 19.8844 8.85184C19.8421 8.83598 19.7861 8.79581 19.7395 8.77572C19.6909 8.75563 19.656 8.73871 19.6127 8.70911C19.4911 8.62664 19.379 8.53465 19.2637 8.44689C19.1961 8.39403 19.1147 8.36759 19.0311 8.34962C19.0258 8.14979 19.0026 7.93198 19.0364 7.73426C19.0925 7.40649 19.0798 7.17283 18.936 6.86832C18.8842 6.75942 18.8514 6.71501 18.8556 6.59765C18.8609 6.47606 18.8704 6.43482 18.9127 6.31534C18.9582 6.18529 19.0089 6.06899 19.0618 5.94105C19.1728 5.6725 19.2394 5.41451 19.2965 5.13009C19.3314 4.95881 19.3896 4.8129 19.4382 4.6469C19.4805 4.50522 19.4678 4.43544 19.5408 4.31808C19.6877 4.08335 19.8072 3.82114 19.9436 3.57901C20.0102 3.46271 20.0599 3.34852 20.0662 3.21318C20.0684 3.16137 20.0631 3.10216 20.0546 3.05036C20.0504 3.02286 20.0377 3.007 20.0335 2.98269C20.0123 2.99643 19.988 3.00912 19.9605 3.02075C19.8432 3.06939 19.73 3.11274 19.6084 3.16032C19.4329 3.22904 19.2574 3.27768 19.1147 3.38764C19.0132 3.46588 18.8947 3.48808 18.7626 3.52826C18.1102 3.72069 17.4515 3.86026 16.8203 4.11824C16.6479 4.18802 16.4418 4.19754 16.2779 4.28107C16.1373 4.35402 15.9956 4.44495 15.8634 4.49147C15.8211 4.50733 15.7524 4.51262 15.7027 4.52742C15.653 4.54223 15.6149 4.55174 15.5621 4.55703C15.4172 4.57289 15.2713 4.57394 15.1275 4.58029C14.9964 4.58663 14.8801 4.65219 14.7733 4.72303C14.7342 4.7484 14.693 4.77166 14.6517 4.79493C14.5703 4.70505 14.4942 4.61307 14.436 4.51368C14.2669 4.22609 14.1072 4.0548 13.8017 3.91524C13.6917 3.86449 13.6378 3.85074 13.5669 3.75875C13.4919 3.66254 13.4728 3.62448 13.4284 3.50606C13.3808 3.37707 13.3438 3.25547 13.3026 3.12331C13.2148 2.84629 13.1007 2.60628 12.9611 2.35041C12.8776 2.19816 12.8279 2.04802 12.7591 1.89048C12.6999 1.75409 12.646 1.70968 12.6259 1.57223C12.5879 1.29838 12.5107 1.02031 12.4599 0.746464C12.4356 0.615357 12.4007 0.49588 12.3182 0.388033C12.2865 0.346798 12.2453 0.305563 12.2051 0.270671C12.184 0.252697 12.1636 0.248469 12.1446 0.232609C12.1372 0.256928 12.1279 0.281246 12.1131 0.308736C12.055 0.420811 11.9958 0.526543 11.9334 0.641791C11.8435 0.806732 11.7399 0.956871 11.7018 1.13344C11.6743 1.25821 11.5982 1.35125 11.5221 1.4665C11.1457 2.03427 10.7312 2.56505 10.414 3.16772C10.3273 3.3316 10.174 3.47222 10.1032 3.64139C10.0418 3.7873 9.99109 3.94801 9.92025 4.06961C9.89804 4.10767 9.84835 4.15631 9.82086 4.19966C9.79231 4.24301 9.76905 4.27473 9.73205 4.31279C9.63054 4.41746 9.52058 4.51262 9.41379 4.60989C9.31758 4.69871 9.27106 4.82453 9.23405 4.94718C9.2203 4.9937 9.20233 5.04128 9.1833 5.08886C9.17167 5.08674 9.15792 5.08357 9.14629 5.08146C8.93694 5.04762 8.69905 5.03599 8.49816 4.9641C8.18308 4.85202 7.95153 4.82347 7.62693 4.91229C7.51063 4.94401 7.46093 4.96833 7.34674 4.94401C7.22726 4.91863 7.1892 4.90171 7.07818 4.83933C6.95871 4.77166 6.85192 4.70082 6.73561 4.62681C6.49032 4.47139 6.24819 4.36037 5.97752 4.25464C5.81469 4.1912 5.68147 4.10873 5.5271 4.03154C5.39388 3.96599 5.3241 3.96599 5.22048 3.87295C5.01536 3.68792 4.77746 3.52509 4.56283 3.34852C4.46027 3.26288 4.3556 3.19415 4.22343 3.16455C4.17268 3.15291 4.11453 3.14868 4.06166 3.14763C4.03311 3.14657 4.01577 3.15611 3.99145 3.15717C4.00097 3.18043 4.0088 3.20578 4.01514 3.23538C4.04263 3.35803 4.06589 3.47751 4.09233 3.6065C4.12933 3.79047 4.14625 3.97233 4.23083 4.13199C4.29004 4.24512 4.2911 4.36565 4.30696 4.50205C4.38414 5.17873 4.40741 5.85224 4.5512 6.51835C4.59032 6.69915 4.56389 6.90533 4.61781 7.07978C4.66433 7.23204 4.72989 7.38746 4.75315 7.52597C4.76055 7.57038 4.7542 7.63805 4.76055 7.68985C4.76689 7.74061 4.76901 7.78078 4.76478 7.83365C4.75526 7.97956 4.73094 8.1223 4.71191 8.26609C4.69817 8.37394 4.72777 8.47861 4.76795 8.57906C4.49622 8.68902 4.31542 8.81695 4.1399 9.07071C4.07118 9.1701 4.04792 9.22085 3.94536 9.27583C3.83751 9.33292 3.79733 9.34455 3.67257 9.36781C3.53723 9.39319 3.41036 9.40693 3.27291 9.42597C2.98532 9.46297 2.72839 9.53487 2.45349 9.62791C2.28854 9.68395 2.13206 9.70615 1.96501 9.74633C1.82015 9.78122 1.76623 9.82669 1.62772 9.82246C1.35176 9.81189 1.06417 9.84043 0.787156 9.84255C0.652877 9.8436 0.529171 9.85735 0.408637 9.91973C0.362115 9.94405 0.314538 9.97788 0.273303 10.0107C0.252156 10.0286 0.24424 10.0477 0.226265 10.0635C0.248469 10.0752 0.271186 10.0889 0.294447 10.1079C0.394892 10.1841 0.488994 10.2612 0.591553 10.3427C0.739577 10.46 0.86857 10.588 1.03563 10.6567C1.15404 10.7053 1.23229 10.7962 1.33273 10.8914C1.8265 11.3598 2.27691 11.861 2.81509 12.2786C2.96205 12.3928 3.07413 12.5672 3.22744 12.6666C3.36066 12.7523 3.5108 12.8295 3.61759 12.9204C3.65142 12.95 3.69055 13.006 3.72861 13.042C3.76667 13.0769 3.79416 13.1054 3.82482 13.1477C3.91047 13.2661 3.98448 13.392 4.06272 13.5135C4.1029 13.578 4.15999 13.6267 4.22237 13.6679C4.20863 13.7028 4.19489 13.7388 4.18325 13.7705C4.11347 13.9703 4.0606 14.2029 3.95487 14.389C3.78993 14.6787 3.72121 14.9029 3.75293 15.237C3.7635 15.3575 3.77936 15.4104 3.73495 15.5193C3.68949 15.6324 3.66623 15.6673 3.58481 15.7646C3.49811 15.8714 3.41036 15.9633 3.31625 16.0659C3.12065 16.2795 2.96946 16.4994 2.81826 16.7479C2.72839 16.897 2.62266 17.0143 2.52115 17.1528C2.43234 17.2723 2.42071 17.341 2.31075 17.4267C2.09294 17.5969 1.89099 17.8031 1.68059 17.9839C1.57909 18.0706 1.49239 18.1604 1.44058 18.2852C1.42049 18.3338 1.40569 18.3909 1.39511 18.4417C1.38983 18.4702 1.39658 18.4893 1.39235 18.5136C1.41772 18.5083 1.44375 18.5041 1.47335 18.503C1.60023 18.4967 1.72182 18.4956 1.85293 18.4914C2.04008 18.4872 2.22193 18.502 2.39428 18.447C2.51587 18.4079 2.63429 18.4269 2.77279 18.4354C3.45265 18.4776 4.11876 18.5717 4.79967 18.5453C4.98576 18.5379 5.18347 18.6003 5.36533 18.577C5.52287 18.5569 5.68676 18.521 5.82738 18.5221C5.87179 18.5221 5.9384 18.54 5.99021 18.5432C6.04096 18.5464 6.08114 18.5506 6.13189 18.5633C6.27357 18.5982 6.41102 18.6468 6.54953 18.6902C6.67323 18.7293 6.8054 18.7071 6.93016 18.6764C7.04964 18.6479 7.17863 18.6341 7.30762 18.6204C7.3552 18.7399 7.40066 18.8604 7.42287 18.9809C7.48313 19.3097 7.57406 19.5244 7.81407 19.7612C7.89972 19.8458 7.94624 19.8765 7.98113 19.9885C8.01919 20.1038 8.02342 20.1461 8.02448 20.273C8.02554 20.4104 8.01814 20.5373 8.01285 20.6758C8.00016 20.9655 8.02554 21.2309 8.06889 21.5185C8.09532 21.6908 8.09003 21.8484 8.10061 22.0196C8.11012 22.1687 8.14607 22.229 8.11752 22.3643C8.05937 22.635 8.03717 22.9226 7.9917 23.1964C7.9695 23.3286 7.96104 23.4534 8.00228 23.5824C8.01708 23.6321 8.04245 23.6849 8.06783 23.7314C8.08158 23.7558 8.09995 23.7663 8.11158 23.7875C8.12744 23.7674 8.14501 23.7484 8.16722 23.7272C8.26026 23.6416 8.35225 23.5623 8.44952 23.4756C8.5912 23.3508 8.73923 23.2451 8.8365 23.0928C8.90417 22.985 9.00778 22.9237 9.1188 22.8412C9.66649 22.4362 10.2374 22.0799 10.7418 21.6221C10.8803 21.4973 11.0717 21.418 11.1954 21.2827C11.3032 21.1675 11.4058 21.0332 11.5136 20.9433C11.5485 20.9148 11.6109 20.8862 11.6521 20.8555C11.6934 20.8238 11.7272 20.8027 11.7748 20.7794C11.9059 20.7149 12.0412 20.6642 12.1755 20.6081C12.296 20.5584 12.3827 20.4569 12.4589 20.3533C12.4631 20.347 12.4684 20.3417 12.4737 20.3364C12.572 20.3893 12.6682 20.4464 12.7517 20.5151C13.0076 20.7287 13.2159 20.8344 13.5521 20.8619C13.6727 20.8714 13.7276 20.8651 13.826 20.9274C13.9296 20.993 13.9592 21.0215 14.0417 21.1178C14.1315 21.2224 14.2077 21.325 14.2922 21.435C14.4688 21.6654 14.6581 21.8515 14.8769 22.044C15.008 22.1582 15.1053 22.2829 15.2237 22.4077C15.3263 22.5155 15.3929 22.5388 15.4574 22.6614C15.5875 22.9057 15.7556 23.1404 15.8962 23.3794C15.9639 23.4946 16.0379 23.595 16.1521 23.668C16.1965 23.6966 16.2493 23.7209 16.299 23.7399C16.3244 23.7494 16.3456 23.7463 16.3678 23.7548C16.3668 23.7294 16.3678 23.7029 16.372 23.6722C16.3878 23.5475 16.4079 23.428 16.427 23.2979C16.4545 23.1119 16.501 22.9353 16.4767 22.7566C16.4597 22.6297 16.4989 22.5166 16.5316 22.3823C16.6902 21.7204 16.8985 21.0797 16.9916 20.4051C17.0169 20.2201 17.1121 20.0372 17.1216 19.8543C17.129 19.6957 17.1216 19.5265 17.1459 19.389C17.1544 19.3446 17.184 19.2823 17.1956 19.2326C17.2073 19.1818 17.2189 19.1438 17.24 19.0962C17.2993 18.9619 17.3711 18.8361 17.4378 18.7071C17.498 18.5918 17.498 18.4576 17.4906 18.3296C17.4853 18.244 17.4885 18.1552 17.4938 18.0653C17.6027 18.0431 17.7116 18.0251 17.8184 18.0251C18.1514 18.023 18.3788 17.9701 18.6537 17.7756C18.752 17.7058 18.7911 17.6656 18.9064 17.6498C19.0269 17.6328 19.0692 17.636 19.194 17.6572C19.3304 17.6794 19.4541 17.709 19.5894 17.7386C19.8728 17.802 20.1381 17.8221 20.4289 17.8295C20.6023 17.8327 20.7567 17.8655 20.928 17.8845C21.076 17.9014 21.1415 17.8771 21.2705 17.9289C21.5264 18.0325 21.8066 18.1044 22.0677 18.1975C22.1936 18.2419 22.3152 18.2715 22.4494 18.2535C22.5012 18.2471 22.5583 18.2313 22.608 18.2144C22.6345 18.2059 22.6482 18.19 22.6704 18.1816C22.6535 18.1625 22.6376 18.1414 22.6207 18.116C22.5531 18.0103 22.4907 17.9056 22.4219 17.7936C22.3236 17.6339 22.2454 17.469 22.1122 17.3474C22.018 17.2617 21.9747 17.1486 21.9134 17.0249C21.6099 16.4159 21.3583 15.791 20.9946 15.2148C20.8962 15.0572 20.8508 14.8553 20.7398 14.7094C20.6435 14.5825 20.5304 14.4588 20.4606 14.3372C20.4384 14.2981 20.4215 14.2315 20.3982 14.1849C20.3739 14.1395 20.3581 14.1025 20.3443 14.0517C20.3041 13.9122 20.2767 13.7694 20.246 13.6277C20.2312 13.5601 20.1995 13.4998 20.1603 13.4448C20.1836 13.4216 20.2058 13.3972 20.2312 13.3761C20.4849 13.1604 20.6256 12.9733 20.7112 12.6476C20.7408 12.5313 20.745 12.4753 20.8233 12.3886C20.9058 12.2987 20.9396 12.2733 21.0485 12.2088C21.1669 12.139 21.2811 12.0819 21.4037 12.0185C21.6617 11.8842 21.8774 11.7299 22.1047 11.548C22.2411 11.4391 22.3797 11.364 22.5234 11.2689C22.6472 11.1875 22.682 11.1261 22.8142 11.0828C23.0764 10.9971 23.3376 10.8734 23.5977 10.7762C23.7224 10.7296 23.8345 10.6736 23.9265 10.5742C23.9614 10.5361 23.9952 10.4875 24.0217 10.442C24.0365 10.4188 24.0375 10.3976 24.0492 10.3765C24.0238 10.3733 23.9984 10.368 23.9688 10.3585C23.8483 10.3205 23.7341 10.2813 23.6093 10.239Z"/>
  <path d="M20.1986 2.81777C20.1045 2.87064 20.0421 2.88755 20.0326 2.95099C20.0305 2.96368 20.0315 2.97425 20.0337 2.98377C20.0971 2.94253 20.1373 2.89073 20.1986 2.81777Z"/>
</svg>
