<svg width="33" height="24" viewBox="0 0 33 24" fill="#000000" xmlns="http://www.w3.org/2000/svg">
  <path d="M23.6924 20.1251C23.6924 19.8522 23.6924 19.5778 23.6924 19.3048C23.6938 19.148 23.7036 19.1032 23.6392 18.9744C23.5664 18.8316 23.3915 18.4439 23.4321 18.2647C23.4474 18.1975 23.5342 18.1023 23.572 18.0533C23.6672 17.9287 23.7008 17.8461 23.6924 17.6963C23.684 17.5508 23.7064 17.401 23.6952 17.2554C23.6854 17.1532 23.6602 17.0594 23.656 16.953C23.6504 16.8018 23.649 16.6506 23.6518 16.4995C23.6532 16.4589 23.6658 16.3511 23.6476 16.2965C23.6252 16.2293 23.5678 16.2083 23.5482 16.1523C23.488 15.9927 23.5314 15.7099 23.5314 15.5419C23.5314 15.2438 23.5314 14.9442 23.5328 14.646C23.5328 14.4626 23.5692 14.2554 23.5244 14.0763C23.5104 14.0147 23.467 13.9601 23.4586 13.8887C23.4279 13.6703 23.4572 13.4141 23.4544 13.1985C23.453 13.0698 23.4628 12.955 23.4069 12.8374C23.3285 12.675 23.2389 12.5882 23.2529 12.3908C23.2669 12.1962 23.3621 12.0366 23.4265 11.8631C23.4936 11.6797 23.4614 11.4879 23.3901 11.3157C23.2389 10.9503 23.3789 10.5206 23.4055 10.1426C23.4321 9.74084 23.4097 9.33348 23.4111 8.92891C23.4111 8.73993 23.4139 8.59574 23.3719 8.41376C23.3285 8.22897 23.3621 8.03719 23.3159 7.858C23.2669 7.66482 23.1801 7.48004 23.1255 7.28965C23.0905 7.17066 23.1297 7.08387 23.1717 6.97188C23.2207 6.84029 23.2277 6.7311 23.1969 6.58972C23.1549 6.39653 23.0625 6.21035 23.0415 6.01157C23.0247 5.84918 23.0583 5.6574 23.0527 5.49781C23.0485 5.40402 23.0289 5.32002 23.0177 5.22763C23.0037 5.10024 23.0247 4.97146 23.0149 4.84407C22.9981 4.62289 22.9155 4.34991 22.8511 4.14693C22.7769 3.90895 22.7517 3.65977 22.7349 3.40639C22.7223 3.22301 22.7293 3.03962 22.7307 2.85624C22.7321 2.61406 22.6845 2.37748 22.6845 2.1367C22.6845 1.93792 22.7447 1.75314 22.7937 1.56135C22.8707 1.26178 23.0835 1.0504 23.2473 0.799818C23.2053 0.683628 22.9785 0.704626 22.8833 0.669629C22.7671 0.627632 22.7937 0.605234 22.7125 0.54364C22.4913 0.531041 22.2716 0.529642 22.0518 0.536641C21.9734 0.536641 21.8964 0.536641 21.818 0.53804C21.5926 0.536641 21.37 0.531042 21.146 0.566039C21.2146 0.461048 21.2762 0.344859 21.335 0.234268C21.2062 0.204871 21.0299 0.231467 20.9025 0.231467C20.6799 0.231467 20.4573 0.241268 20.2361 0.234268C20.0639 0.227269 19.8456 0.225868 19.6874 0.143275C19.511 0.0508834 19.3052 0.133477 19.1064 0.141876C18.8558 0.151675 18.6627 0.129277 18.4065 0.147475C17.8031 0.192272 17.197 0.221669 16.595 0.153075C16.4327 0.134876 16.2829 0.181072 16.1205 0.192271C15.9091 0.20627 15.7845 0.0900798 15.6025 0.0172862C15.5367 -0.00931152 15.6571 -0.0023129 15.4653 0.0186853C15.2064 0.0466828 14.9474 0.0844791 14.687 0.116676C14.414 0.153073 14.1397 0.154473 13.8681 0.101278C13.8135 0.091479 13.7547 0.062081 13.7029 0.0536817C13.3655 -0.000913557 12.989 0.127877 12.6558 0.143275C12.2036 0.162874 11.7557 0.0130875 11.3203 0.224469C11.1803 0.293063 11.0501 0.403654 10.9059 0.462449C10.766 0.518444 10.5882 0.496045 10.4426 0.497445C10.2368 0.498845 9.93582 0.55904 9.77624 0.399454C9.62225 0.242668 9.41227 0.239867 9.21069 0.230068C9.14909 0.227268 9.12389 0.237066 9.0917 0.175471C8.89851 0.259464 8.69553 0.360257 8.52335 0.491846C8.56534 0.522643 8.54994 0.566038 8.55694 0.636032C8.58494 0.87821 8.66754 1.10639 8.67313 1.34997C8.68013 1.58375 8.62834 1.79093 8.63114 2.02891C8.63254 2.1731 8.63254 2.1703 8.60034 2.28089C8.57794 2.36348 8.57934 2.39288 8.62274 2.46007C8.70813 2.59166 8.83832 2.59166 8.87052 2.77365C8.89012 2.88704 8.88872 2.99903 8.91391 3.11242C8.93211 3.19361 8.94751 3.2636 8.97411 3.3476C9.0455 3.56738 9.0329 3.75776 8.96431 3.97754C8.88872 4.21272 8.70813 4.33591 8.59474 4.54029C8.54155 4.63688 8.55415 4.70548 8.55275 4.81187C8.54995 4.91546 8.51355 5.00925 8.49535 5.11144C8.46175 5.29063 8.47015 5.46701 8.47155 5.649C8.47155 5.86738 8.43516 6.11516 8.47155 6.32934C8.49815 6.45393 8.54995 6.56592 8.62554 6.66531C8.67314 6.70451 8.70393 6.7535 8.71653 6.8137C8.64934 6.83189 8.57514 6.83889 8.51075 6.87109C8.56814 6.92428 8.53175 6.95788 8.52055 7.03348C8.51075 7.11047 8.52755 7.19306 8.51215 7.26725C8.46875 7.35965 8.40996 7.44084 8.33576 7.50943C8.29097 7.54583 8.26577 7.59343 8.26297 7.65222C8.17898 7.72782 8.05019 7.69982 7.948 7.75301C8.19578 8.06379 8.54155 8.23037 8.79912 8.52155C8.89012 8.62514 8.86352 8.68533 8.82292 8.80852C8.80332 8.86872 8.80332 8.90091 8.79492 8.95831C8.77533 9.1053 8.71233 9.25648 8.67174 9.40067C8.58774 9.70584 8.51635 9.95222 8.55134 10.2756C8.56954 10.4506 8.65494 10.3498 8.78092 10.3904C8.74453 10.7124 8.75293 11.0329 8.75153 11.3563C8.75153 11.4445 8.75153 11.5103 8.78092 11.5803C8.81452 11.6545 8.83132 11.7007 8.83412 11.7889C8.83832 11.9191 8.83272 12.0506 8.83272 12.1808C8.83272 12.4902 8.79772 12.8178 8.84112 13.1243C8.85232 13.1943 8.88032 13.2685 8.89292 13.3357C8.95171 13.6549 8.83832 13.9671 8.75153 14.2722C8.64234 14.6628 8.62834 15.0156 8.62974 15.4159C8.63114 15.7351 8.68573 16.0235 8.76273 16.3329C8.82852 16.5918 8.88032 16.7878 8.87332 17.0496C8.86772 17.3352 8.89432 17.6264 8.87472 17.9091C8.83272 18.4789 8.56254 19.106 8.89152 19.6408C8.95591 19.7458 9.0735 19.778 9.13229 19.8872C9.19109 19.9977 9.16169 20.1965 9.14629 20.3141C9.1155 20.5437 9.0567 20.7635 9.0357 20.9917C9.0301 21.0477 8.98671 21.1372 8.97551 21.182C8.94611 21.329 8.90971 21.4732 8.86632 21.6146C8.86912 21.7406 8.91951 21.847 9.01471 21.9338C9.0777 22.0276 9.13929 22.1228 9.20229 22.2166C9.24289 22.2935 9.29328 22.3565 9.35627 22.4069C9.35347 22.4531 9.33388 22.4657 9.31708 22.5063C9.27228 22.6113 9.23309 22.7849 9.21069 22.8941C9.19109 22.9585 9.18409 23.0257 9.18969 23.0929C9.19249 23.1237 9.20649 23.1461 9.23449 23.1601C9.24568 23.1657 9.25688 23.1713 9.26808 23.1755C9.28208 23.2189 9.28488 23.2637 9.27508 23.3099C9.27368 23.4064 9.28348 23.4554 9.24569 23.531C9.20229 23.6164 9.16869 23.6542 9.20369 23.762C9.22889 23.8404 9.26108 23.923 9.28768 24C9.39967 23.986 9.41227 23.685 9.39687 23.594C9.38567 23.5324 9.36327 23.4946 9.35348 23.433C9.34788 23.3953 9.35488 23.3505 9.35488 23.3127C9.35488 23.1601 9.35628 23.0075 9.35488 22.8563C9.35348 22.7093 9.36467 22.6995 9.42907 22.5189C9.52286 22.2544 9.64885 21.9576 9.64185 21.6636C9.64045 21.5614 9.63345 21.4718 9.64465 21.3682C9.68105 21.0295 9.68105 20.6935 9.67545 20.3533C9.67545 20.3197 9.66565 20.2483 9.67265 20.2105C9.68805 20.1097 9.76364 20.0355 9.78884 19.9404C9.80844 19.8704 9.79864 19.7892 9.78744 19.7192C9.77064 19.61 9.75944 19.5176 9.75944 19.4084C9.75944 19.1886 9.67545 18.9716 9.63345 18.7589C9.54666 18.3109 9.51586 17.8531 9.51446 17.3968C9.51306 17.1224 9.56206 16.848 9.55646 16.575C9.55086 16.3133 9.66005 16.0375 9.73704 15.7925C9.80424 15.5769 9.91763 15.3879 9.91903 15.1584C9.92043 15.0268 9.91903 14.8952 9.90783 14.7622C9.88683 14.513 9.87703 14.268 9.87563 14.0161C9.87563 13.7487 9.92323 13.5191 9.95122 13.2587C9.96522 13.1257 9.95122 13.1243 9.90783 12.9704C9.83643 12.71 9.83643 12.5616 9.83643 12.2872C9.83783 12.0464 9.86023 11.7847 9.82803 11.5439C9.81683 11.4627 9.80004 11.3885 9.79584 11.3073C9.78884 11.1771 9.79164 11.0665 9.82103 10.9363C9.86163 10.7516 9.96802 10.5752 10.0002 10.3904C10.0058 10.354 10.003 10.2924 10.0002 10.2546C9.98902 10.0054 9.90643 9.75344 9.88403 9.50426C9.87003 9.27748 9.85743 9.0507 9.84483 8.82532C9.83643 8.71053 9.83363 8.59574 9.83923 8.48095C9.82663 8.40256 9.77624 8.35076 9.73144 8.29197C9.78884 8.19817 9.75664 8.01339 9.75664 7.9028C9.75664 7.71662 9.75664 7.52903 9.75664 7.34285C9.75664 7.21966 9.72304 7.02928 9.75104 6.90889C9.76364 6.85289 9.79724 6.8123 9.82943 6.7675C9.87423 6.7073 10.0534 6.54772 10.0772 6.46512C10.0968 6.40213 10.0674 6.33354 10.0576 6.26914C10.045 6.17955 10.0464 6.08016 10.0268 5.99197C10.0072 5.89817 9.96942 5.81138 9.95542 5.71479C9.91623 5.44321 9.92043 5.17444 9.91623 4.89866C9.91343 4.74748 9.98202 4.64528 10.0002 4.5039C10.0226 4.33311 9.99742 4.14833 10.017 3.97474C10.031 3.85575 10.0212 3.72416 10.0562 3.61217C10.0996 3.47219 10.1304 3.39659 10.0982 3.24681C10.0618 3.07322 10.1024 2.87444 10.059 2.69525C10.0212 2.53847 9.92743 2.38588 9.91343 2.22349C9.90643 2.1297 9.90503 2.07091 9.87703 1.97992C9.84623 1.87912 9.80284 1.74054 9.80004 1.63415C9.86443 1.59635 9.92323 1.55155 9.99742 1.54035C10.1094 1.52355 10.1178 1.57675 10.1962 1.62995C10.2844 1.68734 10.4132 1.68734 10.5112 1.66074C10.5868 1.64115 10.6848 1.60335 10.7744 1.58515C10.8933 1.56275 10.9941 1.54035 11.0991 1.47176C11.1705 1.42696 11.1677 1.41996 11.2405 1.40876C11.2797 1.41576 11.3175 1.41296 11.3539 1.39897C11.3679 1.38917 11.3805 1.37797 11.3931 1.36817C11.5331 1.34717 11.7865 1.52916 11.9209 1.59075C12.135 1.68874 12.2862 1.67474 12.513 1.66914C12.73 1.65514 12.9442 1.66214 13.1583 1.69014C13.2129 1.70414 13.2647 1.72514 13.3137 1.75034C13.4621 1.78113 13.6133 1.70554 13.7589 1.73494C13.9619 1.77553 14.1243 1.75174 14.3342 1.67054H15.0174C15.2778 1.67054 15.5479 1.66214 15.8041 1.62155C15.9455 1.59915 16.0645 1.51656 16.2017 1.48576C16.4355 1.43256 16.6748 1.45076 16.9128 1.45356C17.0248 1.45496 17.1382 1.42836 17.2488 1.41016C17.3538 1.39336 17.4462 1.33737 17.5526 1.31917C17.617 1.30937 17.6814 1.28977 17.7471 1.27718C17.9389 1.23938 18.0523 1.38357 18.2091 1.48156C18.4121 1.60755 18.6109 1.50396 18.8265 1.54175C18.9482 1.56275 19.0518 1.63555 19.1778 1.62575C19.2716 1.61735 19.3556 1.58935 19.4508 1.58935C19.5502 1.58935 19.623 1.62855 19.7182 1.64254C19.854 1.66214 19.9254 1.55575 20.0443 1.49836C20.1885 1.42696 20.3901 1.43396 20.5469 1.45216C20.6309 1.46196 20.6701 1.52775 20.7513 1.54455C20.8115 1.55715 20.8577 1.54035 20.9207 1.56415C21.0663 1.61875 21.2678 1.72514 21.3616 1.86233C21.3 1.97852 21.174 2.1381 21.1586 2.27529C21.1503 2.35648 21.1866 2.46147 21.2006 2.53987C21.237 2.73585 21.265 2.92903 21.335 3.11662C21.4456 3.41059 21.6612 3.67097 21.7186 3.98874C21.7256 4.03494 21.7242 4.07973 21.7284 4.12593C21.7466 4.28691 21.8362 4.4199 21.8712 4.57249C21.9034 4.70828 21.8992 4.86926 21.881 5.00925C21.86 5.17584 21.7774 5.31723 21.7382 5.47681C21.7102 5.5916 21.7214 5.70779 21.7214 5.82538C21.7242 6.01436 21.7522 6.19635 21.7606 6.37973C21.7676 6.55052 21.8194 6.70311 21.8894 6.85989L22.0672 7.18886C22.0924 7.23506 22.1176 7.28125 22.1428 7.32745C22.1568 7.41564 22.1274 7.54723 22.126 7.64102C22.126 7.75581 22.1414 7.84541 22.161 7.956C22.1876 8.10998 22.2492 8.17298 22.3205 8.31017C22.3681 8.39976 22.3877 8.52295 22.3681 8.62514C22.3331 8.80712 22.1862 8.96531 22.0896 9.11369C22.0042 9.24808 22.0476 9.43987 22.0462 9.59805C22.0462 9.69044 22.0336 9.78844 22.042 9.87943C22.0504 9.98862 22.1036 10.0838 22.119 10.1902C22.1694 10.5318 22.1554 10.8859 22.2198 11.2317C22.287 11.2569 22.2464 11.6125 22.2464 11.6671C22.2464 11.8967 22.2954 12.1794 22.2282 12.3992C22.1232 12.7534 22.1582 13.1355 22.224 13.4995C22.2744 13.7767 22.4073 14.0077 22.5011 14.2652C22.5655 14.4472 22.6215 14.646 22.6817 14.8336C22.7419 15.0212 22.7377 15.2186 22.7881 15.4075C22.8175 15.5139 22.8735 15.4999 22.9491 15.5629C22.7741 15.8177 22.5263 15.9409 22.3149 16.1481C22.4493 16.1173 22.4059 16.6002 22.4059 16.5904C22.4031 16.7234 22.4003 16.8578 22.3961 16.9908C22.3625 17.1868 22.4171 17.3338 22.5613 17.4304C22.6607 17.464 22.6929 17.5326 22.6579 17.6348C22.6439 17.6725 22.6313 17.7103 22.6173 17.7495C22.6019 17.8251 22.5991 17.9049 22.5879 17.9833C22.5571 18.1961 22.5683 18.4103 22.5683 18.6245C22.5683 18.8372 22.5515 19.0332 22.5305 19.246C22.5179 19.379 22.5263 19.4672 22.5823 19.5932C22.6467 19.6898 22.6915 19.7934 22.7195 19.9082C22.7601 20.0075 22.7783 20.1125 22.7727 20.2231C22.7587 20.2749 22.7699 20.3127 22.8091 20.3365C22.8203 20.3533 22.8315 20.3715 22.8427 20.3883C22.8651 20.4471 22.8497 20.5339 22.8483 20.5969C22.8469 20.9679 22.7923 21.3206 22.7615 21.6916C22.8833 21.6944 23.0037 21.6832 23.1255 21.6916C23.1927 21.8344 23.0611 22.0192 23.0499 22.1606C23.0261 22.4993 23.0891 22.8661 23.1717 23.1881C23.1857 23.2385 23.2011 23.2525 23.2165 23.3183C23.2543 23.489 23.3691 23.5492 23.4894 23.6444C23.5748 23.713 23.6406 23.804 23.6952 23.9118C23.6924 23.7634 23.7204 23.5842 23.684 23.4428C23.6784 23.4218 23.6574 23.3939 23.6504 23.3673C23.6462 23.3463 23.6588 23.3197 23.6546 23.2987C23.6462 23.2595 23.6196 23.2595 23.6098 23.2203C23.6028 23.1909 23.6112 23.1349 23.6112 23.1055C23.6126 23.0243 23.6168 22.9473 23.6028 22.8689C23.5832 22.7485 23.5594 22.6785 23.5916 22.5539C23.607 22.4951 23.6308 22.4405 23.635 22.3775C23.6392 22.3145 23.6084 22.26 23.6154 22.19C23.6336 21.98 23.7666 21.7896 23.8072 21.5894C23.8268 21.4998 23.8114 21.4004 23.8128 21.3066C23.8226 20.9063 23.6938 20.5227 23.6924 20.1251Z"/>
  <path d="M32.0147 9.68765C32.0049 9.56726 31.9433 9.45667 31.9013 9.34188C31.8033 9.07171 31.7683 8.78473 31.62 8.53975C31.4926 8.32837 31.1776 8.29337 30.9382 8.26258C30.8122 8.24718 30.682 8.26118 30.5533 8.25558C30.577 8.27658 30.6064 8.28917 30.6316 8.30877C30.7016 8.36337 30.6932 8.38857 30.7408 8.45716C30.7898 8.52995 30.8612 8.57335 30.9424 8.61115C31.1594 8.71334 31.4758 8.69794 31.4884 8.97511C31.4982 9.1865 31.5164 9.42588 31.4464 9.62746C31.389 9.79124 31.382 9.95223 31.298 10.1104C31.2476 10.2084 31.1958 10.2518 31.095 10.3092C31.0124 10.3554 31.0432 10.3218 30.969 10.3484C30.8976 10.3722 30.8262 10.4128 30.7506 10.4296C30.4945 10.4898 30.1571 10.4436 29.9107 10.375C29.7511 10.3302 29.6181 10.2378 29.4627 10.1874C29.285 10.1314 29.0876 10.0796 28.9196 10.0012C28.8412 9.96483 28.8678 9.93683 28.8216 9.88364C28.7278 9.77305 28.5248 9.73805 28.4436 9.61066C28.3582 9.63306 28.2015 9.78424 28.1189 9.74085C28.1021 9.64846 28.1245 9.55746 28.1049 9.46647C28.0741 9.32648 27.9747 9.26069 27.8613 9.1683C27.7381 9.06751 27.5995 8.98071 27.4819 8.87432C27.3629 8.76653 27.2467 8.73154 27.0886 8.68114C26.7036 8.55795 26.3144 8.23178 25.8791 8.38157C25.8511 8.38437 25.8217 8.38997 25.7951 8.39697C25.7825 8.42356 25.7643 8.44596 25.7419 8.46556C25.6691 8.51036 25.6089 8.52435 25.5249 8.51035C25.4507 8.49776 25.3793 8.47256 25.3009 8.46416C25.1497 8.44736 25.1483 8.46556 25.0125 8.54255C24.9495 8.57895 24.8935 8.58315 24.8333 8.60415C24.7662 8.62934 24.7368 8.68674 24.6794 8.72734C24.552 8.81833 24.4218 8.90932 24.4554 9.0857C24.363 9.1445 24.4204 9.23549 24.4638 9.37548C24.6066 9.32788 24.6794 9.30409 24.8361 9.30409C24.9551 9.30409 25.0741 9.30269 25.1917 9.30409C25.2421 9.30409 25.3121 9.31668 25.3611 9.30549C25.4073 9.29569 25.4255 9.26629 25.4745 9.25789C25.6285 9.23409 25.7363 9.33068 25.8511 9.40068C26.0736 9.53647 26.3214 9.55606 26.572 9.60926C26.8758 9.67365 27.1362 9.75765 27.3867 9.94663C27.5337 10.0586 27.5575 10.2042 27.7185 10.2938C27.8627 10.3736 27.8935 10.4296 28.0517 10.4436C28.1707 10.4534 28.2687 10.4576 28.3568 10.5332C28.4576 10.6228 28.4772 10.6508 28.613 10.6998C28.6858 10.7264 28.7516 10.7474 28.8286 10.7642C29.0876 10.8188 29.3564 10.83 29.6125 10.8859C29.8211 10.9307 30.0227 10.9559 30.2327 11.0203C30.3265 11.0497 30.3979 11.1169 30.4889 11.1379C30.5379 11.1505 30.6148 11.1351 30.6666 11.1351C30.913 11.1351 31.1748 11.1379 31.4156 11.0987C31.5794 11.0707 31.8201 10.8426 31.8817 10.7096C32.0007 10.4576 32.0105 10.2308 32.0105 9.96343C32.0105 9.87244 32.0217 9.77724 32.0147 9.68765Z"/>
  <path d="M30.5882 13.687C30.5826 13.6073 30.563 13.5807 30.514 13.5107C30.4245 13.3833 30.3923 13.2531 30.3573 13.1033C30.3335 12.9983 30.2929 12.9661 30.1963 12.9031C30.1655 12.8835 30.1277 12.8667 30.0885 12.8527C30.1081 12.8639 30.1249 12.8751 30.1305 12.8821C30.1599 12.9129 30.1977 13.0291 30.2061 13.0739C30.2369 13.2489 30.1669 13.4113 30.1571 13.5779C30.1515 13.6576 30.1291 13.7206 30.0983 13.7948C30.0689 13.8648 30.0815 13.939 30.0521 14.0034C30.0255 14.0636 29.9345 14.1392 29.8785 14.1742C29.8015 14.2232 29.7105 14.2904 29.6265 14.3296C29.5173 14.3814 29.4053 14.3646 29.2836 14.3632C29.0764 14.3604 28.8678 14.3618 28.6606 14.3618C28.5668 14.3632 28.5416 14.3506 28.466 14.3184C28.3694 14.2778 28.2518 14.296 28.1637 14.2498C28.0993 14.2162 28.0433 14.1476 28.0223 14.0832C27.9733 13.932 28.0363 13.813 27.8865 13.6954C27.8207 13.6436 27.7619 13.6003 27.6807 13.5569C27.5757 13.4995 27.3559 13.5079 27.3419 13.3665C27.2159 13.3665 27.1193 13.1243 27.1165 13.0291C27.1137 12.9381 27.1053 12.8933 27.0647 12.8177C27.0367 12.7673 26.999 12.7141 26.971 12.6609C26.95 12.6217 26.9472 12.5405 26.9248 12.5055C26.9136 12.4859 26.9178 12.4635 26.9038 12.444C26.8072 12.402 26.7134 12.3558 26.6238 12.304C26.4908 12.2382 26.3676 12.1612 26.2514 12.073C26.2136 12.0394 26.1842 11.9918 26.1366 11.9694C26.0428 11.9288 25.6747 11.9036 25.6411 11.898C25.4927 11.8784 24.9243 11.6936 24.9775 12.0072C25.0391 12.0926 24.8697 12.122 24.8109 12.1346C24.6878 12.1612 24.6836 12.1486 24.6248 12.2858C24.58 12.3908 24.5758 12.5531 24.5954 12.6665C24.6122 12.7659 24.6724 12.8261 24.7703 12.8821C24.8361 12.9199 24.9117 12.9199 24.9789 12.9535C25.0279 12.9787 25.0433 13.0235 25.0867 13.0473C25.1091 13.0585 25.1399 13.0613 25.1707 13.0613C25.3247 13.0263 25.4885 13.0277 25.6579 13.0851C25.956 13.1845 26.1646 13.4029 26.3228 13.6576C26.3592 13.673 26.3942 13.6884 26.4306 13.708C26.6798 13.8326 26.894 14.1294 26.9738 14.3716C27.0689 14.6628 27.3671 14.7705 27.6345 14.9217C27.7199 14.9693 27.7983 15.0323 27.9033 15.0519C28.1371 15.0995 28.4016 15.0729 28.6424 15.0953C28.7628 15.1065 28.7908 15.1177 28.8846 15.0533C28.9658 14.9987 29.0456 14.9427 29.1436 14.9133C29.201 14.8965 29.2892 14.8895 29.3269 14.8405C29.5551 14.9133 29.8883 15.1541 30.1235 15.0281C30.2047 14.9847 30.2929 14.9301 30.3685 14.8671C30.528 14.7342 30.6708 14.6866 30.6806 14.485C30.6904 14.2946 30.6526 14.1266 30.6064 13.9418C30.577 13.8284 30.5952 13.7948 30.5882 13.687Z"/>
  <path d="M28.1651 17.8195C28.1217 17.7468 28.0587 17.688 28.0167 17.6096C27.9915 17.5606 27.9747 17.5116 27.9313 17.4752C27.9747 17.5606 28.0125 17.5914 28.0195 17.6964C28.0265 17.8139 28.0041 17.8993 27.9677 18.0071C27.9159 18.1625 27.8319 18.3207 27.8277 18.4831C27.8263 18.5909 27.8333 18.6035 27.7577 18.6791C27.7339 18.7029 27.7101 18.7295 27.6849 18.7519C27.6261 18.8037 27.5939 18.8051 27.5561 18.7897C27.4567 18.945 27.2887 19.0556 27.048 19.0556C26.5804 19.0556 26.3802 18.6455 26.4432 18.2899C26.39 18.1597 26.4124 18.0435 26.404 17.9035C26.3956 17.7719 26.3536 17.639 26.2724 17.5312C26.2164 17.4556 26.1408 17.3856 26.0806 17.317C26.0219 17.2484 26.0079 17.1826 25.9659 17.1112C25.9407 17.0664 25.9071 17.0188 25.8819 16.9782C25.8413 16.9124 25.8455 16.9152 25.7517 16.8802C25.6439 16.8382 25.4731 16.7668 25.3569 16.757C25.2967 16.7528 25.0531 16.8256 25.0181 16.8564C24.9915 16.8802 24.9831 16.911 24.9775 16.9446C24.8362 16.967 24.6752 16.9712 24.5842 17.0958C24.4932 17.2204 24.5632 17.3898 24.6346 17.52C24.6976 17.5172 24.7592 17.5242 24.8194 17.541C25.1301 17.6334 25.3835 17.8363 25.5249 18.1317C25.5837 18.2563 25.6215 18.3837 25.6495 18.5111C25.7013 18.5489 25.7531 18.5881 25.7979 18.6329C25.8819 18.7155 25.8637 18.9184 25.9071 19.0346C25.9771 19.2292 26.0834 19.3244 26.2444 19.4462C26.341 19.519 26.4418 19.5862 26.5482 19.6464C26.7036 19.7346 26.8478 19.7402 27.0298 19.7528C27.4105 19.778 27.6695 19.7626 27.9999 19.6058C28.1133 19.5526 28.1343 19.554 28.1623 19.4644C28.1987 19.3538 28.1903 19.2222 28.2099 19.106C28.2323 18.9688 28.3471 18.8877 28.354 18.7365C28.361 18.5867 28.3597 18.4299 28.3555 18.2801C28.3527 18.1429 28.2855 18.1177 28.2281 18.0001C28.1973 17.9343 28.2029 17.8839 28.1651 17.8195Z"/>
  <path d="M7.56164 9.3517C7.59524 9.17531 7.46505 9.08432 7.33766 8.99473C7.28027 8.95273 7.25087 8.89534 7.18368 8.87154C7.12348 8.84914 7.06749 8.84494 7.00449 8.80854C6.8701 8.73155 6.8673 8.71335 6.71752 8.73015C6.63772 8.73855 6.56633 8.76375 6.49214 8.77635C6.40814 8.79034 6.34795 8.77635 6.27656 8.73155C6.25276 8.71195 6.23456 8.68955 6.22336 8.66296C6.19536 8.65596 6.16597 8.65176 6.13797 8.64756C5.70401 8.49917 5.31344 8.82254 4.92847 8.94713C4.77029 8.99753 4.6541 9.03252 4.53651 9.14031C4.41752 9.2467 4.28033 9.3335 4.15574 9.43569C4.04375 9.52668 3.94296 9.59248 3.91356 9.73246C3.89396 9.82345 3.91496 9.91445 3.89956 10.0068C3.81697 10.0502 3.66018 9.90045 3.57339 9.87665C3.4922 10.004 3.28922 10.039 3.19542 10.1496C3.14923 10.2028 3.17583 10.2308 3.09743 10.2672C2.93085 10.3456 2.73346 10.3974 2.55428 10.4534C2.39889 10.5038 2.2659 10.5962 2.10772 10.641C1.86134 10.7096 1.52397 10.7558 1.26639 10.697C1.1922 10.6788 1.1194 10.6382 1.04801 10.6144C0.975217 10.5892 1.00601 10.6214 0.923421 10.5752C0.82123 10.5178 0.770835 10.4744 0.719039 10.3764C0.636446 10.2182 0.628047 10.0572 0.570652 9.89345C0.502058 9.69187 0.518856 9.45249 0.528655 9.24111C0.542654 8.96533 0.857627 8.97933 1.07461 8.87714C1.1362 8.84774 1.1894 8.81134 1.23419 8.76655C1.1432 8.73435 1.05921 8.68535 0.997615 8.61956C0.976616 8.59716 0.959818 8.57196 0.94022 8.54817C0.730238 8.57896 0.500658 8.63356 0.398467 8.80574C0.25008 9.05212 0.213683 9.3377 0.115692 9.60787C0.0736956 9.72266 0.0135004 9.83465 0.00230133 9.95364C-0.00469806 10.0432 0.00650133 10.1384 0.00650133 10.2294C0.00650133 10.4968 0.0163005 10.725 0.13529 10.9756C0.198285 11.1085 0.437663 11.3367 0.602849 11.3647C0.842228 11.4039 1.10401 11.4011 1.35038 11.4011C1.40218 11.4011 1.47917 11.4165 1.52957 11.4039C1.61916 11.3829 1.69055 11.3157 1.78575 11.2863C1.99573 11.2219 2.19731 11.1967 2.40449 11.1519C2.66067 11.0959 2.92945 11.0847 3.18842 11.0301C3.26542 11.0134 3.33121 10.9924 3.40401 10.9658C3.54119 10.9168 3.56079 10.8888 3.66018 10.8006C3.74838 10.7236 3.84777 10.7194 3.96536 10.7096C4.12494 10.6956 4.15434 10.6396 4.29853 10.5598C4.45951 10.4716 4.48331 10.3232 4.6303 10.2126C4.70869 10.1524 4.78988 10.1062 4.87108 10.0656C4.92287 9.97464 4.99847 9.89625 5.09506 9.84165C5.44363 9.64707 5.84959 9.58408 6.24576 9.57988C6.26256 9.57988 6.27936 9.58408 6.29615 9.58548C6.36895 9.54208 6.44594 9.50848 6.54253 9.52388C6.59293 9.53228 6.60973 9.56168 6.65592 9.57148C6.70492 9.58268 6.77491 9.57008 6.82531 9.57008C6.9443 9.57008 7.06329 9.57008 7.18088 9.57008C7.33766 9.57008 7.41046 9.59388 7.55324 9.64147C7.59664 9.50148 7.65404 9.41049 7.56164 9.3517Z"/>
  <path d="M4.38394 15.1878C4.65131 15.0367 4.94949 14.9275 5.04468 14.6377C5.12447 14.3955 5.33865 14.0987 5.58643 13.9728C5.77262 13.8804 5.9462 13.8328 6.10999 13.697C6.28777 13.5472 6.44316 13.3246 6.69374 13.3176C6.75953 13.3162 6.87012 13.3442 6.93172 13.312C6.97511 13.2896 6.99051 13.2448 7.03951 13.2196C7.1053 13.186 7.18229 13.186 7.24809 13.1482C7.34608 13.0922 7.40627 13.032 7.42307 12.9326C7.44127 12.8193 7.43707 12.6569 7.39227 12.5519C7.33488 12.4147 7.32928 12.4273 7.20609 12.4007C7.1487 12.3881 6.97931 12.3587 7.03951 12.2733C7.0927 11.9597 6.52435 12.1445 6.37596 12.1641C6.34237 12.1697 5.9756 12.1949 5.88181 12.2355C5.83281 12.2579 5.80341 12.3055 5.76702 12.3391C5.65083 12.4273 5.52624 12.5043 5.39465 12.5701C5.30366 12.6219 5.21126 12.6681 5.11467 12.7101C5.10067 12.7297 5.10487 12.7521 5.09227 12.7717C5.07128 12.8067 5.06848 12.8878 5.04748 12.927C5.01808 12.9802 4.98168 13.0334 4.95369 13.0838C4.91169 13.1594 4.90469 13.2042 4.90189 13.2952C4.89909 13.3904 4.8025 13.6326 4.67511 13.6326C4.66111 13.774 4.44273 13.7656 4.33774 13.823C4.25655 13.8664 4.19775 13.9098 4.13056 13.963C3.98217 14.0791 4.04517 14.1981 3.99477 14.3493C3.97377 14.4137 3.91918 14.4823 3.85478 14.5159C3.76519 14.5621 3.649 14.5439 3.55101 14.5845C3.47682 14.6167 3.45022 14.6293 3.35783 14.6279C3.14924 14.6265 2.94206 14.6265 2.73348 14.6293C2.61169 14.6307 2.5011 14.6475 2.39191 14.5957C2.30792 14.5565 2.21693 14.4893 2.13853 14.4403C2.08394 14.4039 1.99154 14.3297 1.96495 14.2695C1.93695 14.2051 1.94955 14.1309 1.92015 14.0609C1.88935 13.9868 1.86556 13.9238 1.86136 13.844C1.85016 13.6774 1.78156 13.515 1.81236 13.34C1.81936 13.2952 1.85716 13.179 1.88655 13.1482C1.89355 13.1412 1.90895 13.13 1.92855 13.1188C1.88935 13.1328 1.85156 13.1496 1.82216 13.1692C1.72557 13.2322 1.68497 13.2644 1.65977 13.3694C1.62478 13.5192 1.59398 13.6494 1.50439 13.7768C1.45539 13.8468 1.43579 13.8734 1.43019 13.9532C1.42179 14.0609 1.44139 14.0931 1.412 14.2065C1.3658 14.3927 1.328 14.5607 1.3378 14.7511C1.3476 14.9527 1.48899 15.0003 1.64997 15.1333C1.72417 15.1962 1.81236 15.2508 1.89495 15.2942C2.13013 15.4202 2.4633 15.1808 2.69008 15.1067C2.72788 15.1557 2.81747 15.1627 2.87347 15.1794C2.97286 15.2088 3.05125 15.2648 3.13385 15.3194C3.22764 15.3838 3.25423 15.3726 3.37462 15.3614C3.6154 15.339 3.87998 15.3656 4.11516 15.318C4.21875 15.2984 4.29854 15.2354 4.38394 15.1878Z"/>
  <path d="M1.92855 13.1188C2.00414 13.0894 2.08394 13.0641 2.13154 13.0221C2.10494 13.0235 1.99294 13.0796 1.92855 13.1188Z"/>
  <path d="M6.9527 17.1952C6.9513 17.1896 6.9513 17.1868 6.9555 17.1966C6.9555 17.1952 6.9541 17.1952 6.9527 17.1952ZM7.03949 17.212C7.03529 17.1784 7.0255 17.1476 6.9989 17.1238C6.9653 17.093 6.72032 17.0202 6.66013 17.0258C6.54394 17.0342 6.37455 17.107 6.26536 17.1476C6.17157 17.1826 6.17717 17.1798 6.13517 17.2456C6.10998 17.2861 6.07638 17.3337 6.05118 17.3785C6.00918 17.4499 5.99518 17.5171 5.93639 17.5843C5.8762 17.6529 5.8006 17.7229 5.74461 17.7985C5.66481 17.9063 5.62142 18.0393 5.61302 18.1709C5.60322 18.3179 5.63262 18.4396 5.56682 18.5782C5.51083 18.6972 5.48143 18.6874 5.34844 18.6846C5.18886 18.6818 5.15666 18.7126 5.04047 18.7938C4.98167 18.8358 4.92848 18.861 4.85708 18.8806C4.74229 18.9128 4.6583 18.959 4.55331 19.0108C4.44972 19.0626 4.42872 19.1046 4.33353 19.0192C4.30833 18.9968 4.28313 18.9702 4.26074 18.9464C4.18514 18.8708 4.19214 18.8582 4.18934 18.7504C4.18654 18.588 4.10115 18.4298 4.04935 18.2745C4.01436 18.1667 3.99196 18.0813 3.99756 17.9637C4.00456 17.8587 4.04375 17.8279 4.08575 17.7411C4.04375 17.7789 4.02696 17.8293 4.00036 17.8769C3.95976 17.9553 3.89537 18.0141 3.85197 18.0869C3.81417 18.1513 3.82117 18.2031 3.78898 18.2675C3.73298 18.3851 3.66439 18.4103 3.66159 18.5474C3.65739 18.6972 3.65739 18.854 3.66439 19.0038C3.67139 19.1564 3.78478 19.2362 3.80858 19.3748C3.82817 19.4896 3.81977 19.6211 3.85477 19.7317C3.88417 19.8213 3.90377 19.8199 4.01716 19.8731C4.34753 20.0299 4.60651 20.0453 4.98727 20.0201C5.16926 20.0075 5.31484 20.0019 5.47023 19.9137C5.57522 19.8535 5.67741 19.7863 5.7726 19.7135C5.89999 19.6169 5.99099 19.5372 6.05958 19.4126C6.14497 18.7182 6.68393 18.0519 7.31947 17.7803C7.34607 17.7691 7.37406 17.7607 7.40206 17.7509C7.46506 17.6263 7.51545 17.4765 7.43286 17.3631C7.34187 17.2386 7.18088 17.2344 7.03949 17.212Z"/>
</svg>
