<svg width="25" height="24" viewBox="0 0 25 24" fill="#000000" xmlns="http://www.w3.org/2000/svg">
  <path d="M6.3441 17.8151C6.30066 17.8597 6.25492 17.9077 6.23434 17.9591C6.2755 17.9157 6.30752 17.8631 6.3441 17.8151Z"/>
  <path d="M6.3441 17.8151C6.36583 17.7922 6.38756 17.7706 6.40585 17.75C6.41386 17.7408 6.423 17.7317 6.43101 17.7225C6.407 17.7443 6.38299 17.766 6.36241 17.7911C6.35555 17.7991 6.34982 17.8071 6.3441 17.8151Z"/>
  <path d="M16.9457 7.94031C16.9102 8.02034 16.8428 8.08322 16.8073 8.16554C16.8039 8.17468 16.8005 8.18497 16.797 8.19412C16.8759 8.09465 16.98 8.01348 17.0543 7.91172C17.0726 7.88543 17.092 7.84884 17.1023 7.81226C17.116 7.80768 17.1297 7.80311 17.1446 7.79854C17.132 7.78825 17.1206 7.7791 17.108 7.76995C17.1092 7.74023 17.1046 7.71164 17.0829 7.68878C17.0634 7.70593 17.0451 7.72422 17.028 7.74366C16.9742 7.74137 16.9022 7.76309 16.845 7.7871C16.8873 7.80883 16.9297 7.82483 16.9788 7.82826C16.9651 7.86485 16.9605 7.90601 16.9457 7.94031Z"/>
  <path d="M16.165 16.3711C16.1422 16.394 16.1239 16.4168 16.1159 16.442C16.1193 16.4443 16.1239 16.4465 16.1273 16.45C16.149 16.4317 16.165 16.4077 16.1662 16.3802C16.1662 16.3757 16.165 16.3745 16.165 16.3711Z"/>
  <path d="M16.5364 8.63321C16.5798 8.59891 16.6233 8.56575 16.6564 8.52574C16.7319 8.43199 16.7547 8.30622 16.797 8.19532C16.7925 8.20104 16.7868 8.20675 16.781 8.21361C16.6873 8.34052 16.6038 8.48572 16.5364 8.63321Z"/>
  <path d="M17.2741 7.92775C17.3735 8.00092 17.4696 7.97234 17.5907 7.93804C17.7348 7.89688 17.8651 7.84429 17.9726 7.73681C18.0023 7.70709 18.0218 7.65678 18.0561 7.63163C18.0869 7.60991 18.1373 7.60076 18.1727 7.58933C18.2539 7.56189 18.3373 7.53788 18.4196 7.51158C18.5557 7.46814 18.702 7.43384 18.8267 7.36524C18.9021 7.32408 18.9776 7.30236 19.0599 7.27492C19.2142 7.22347 19.2954 7.2532 19.4463 7.30807C19.5207 7.33551 19.5767 7.38468 19.643 7.41554C19.8579 7.51616 20.1335 7.51844 20.3656 7.5173C20.5199 7.51616 20.6948 7.52873 20.8423 7.58247C20.9681 7.62706 21.0687 7.69794 21.2093 7.71509C21.4231 7.74139 21.6335 7.82714 21.8439 7.87401C22.172 7.94718 22.5013 8.03636 22.8202 8.1404C23.0043 8.19986 23.1758 8.29704 23.3656 8.34163C23.4353 8.35763 23.4799 8.38393 23.544 8.41137C23.672 8.46739 23.8286 8.54285 23.9658 8.56228C23.959 8.50855 23.943 8.46625 23.9018 8.42966C23.8218 8.35763 23.688 8.32676 23.5943 8.27417C23.5337 8.23987 23.4811 8.20786 23.4148 8.18042C23.313 8.13697 23.2055 8.09696 23.1084 8.04894C23.034 8.01121 22.9666 7.9609 22.8877 7.9266C22.7665 7.87516 22.611 7.82828 22.4841 7.86715C22.3172 7.91746 22.2234 7.86372 22.0668 7.81799C21.8862 7.7654 21.7101 7.66822 21.5272 7.61334C21.4803 7.59847 21.4357 7.59733 21.3877 7.58818C21.3088 7.57218 21.2322 7.53445 21.1556 7.51158C20.9281 7.44413 20.672 7.44527 20.4525 7.36295C20.361 7.3298 20.2604 7.24862 20.1883 7.19946C20.0477 7.10113 19.9037 7.00738 19.763 6.90906C19.6636 6.83932 19.595 6.80387 19.4715 6.81416C19.364 6.82445 19.26 6.83017 19.1559 6.8599C19.0645 6.88734 18.973 6.93193 18.8793 6.95136C18.829 6.96165 18.7786 6.9525 18.7295 6.96394C18.6529 6.98109 18.614 7.04054 18.5511 7.08056C18.502 7.11142 18.4677 7.11943 18.4277 7.1663C18.3419 7.26691 18.2013 7.3801 18.0744 7.43269C17.8057 7.54131 17.5484 7.66593 17.2695 7.75396C17.2329 7.7654 17.1892 7.78253 17.1446 7.79854C17.1892 7.84084 17.226 7.89231 17.2741 7.92775Z"/>
  <path d="M15.4364 5.53488C15.4307 5.52802 15.4238 5.52344 15.4181 5.51887C15.4353 5.54517 15.4547 5.57032 15.4753 5.59433C15.4638 5.57375 15.4513 5.55317 15.4364 5.53488Z"/>
  <path d="M20.5017 15.4016C20.3314 15.6714 20.0981 15.8966 19.9152 16.1584C19.81 16.3071 19.7003 16.4534 19.5917 16.5997C19.5253 16.6912 19.4339 16.7449 19.3596 16.8238C19.3013 16.8867 19.2635 16.9599 19.1984 17.0182C19.1469 17.0651 19.0897 17.1039 19.0394 17.1508C18.9903 17.1977 18.9377 17.2343 18.8862 17.2754C18.8405 17.3132 18.8199 17.3646 18.7788 17.4081C18.6999 17.4927 18.6027 17.5624 18.5284 17.6539C18.4929 17.6985 18.4598 17.7453 18.4266 17.7922C18.4038 17.7339 18.3775 17.6767 18.3649 17.6344C18.3432 17.5693 18.3191 17.503 18.2997 17.4366C18.2666 17.3269 18.2643 17.2126 18.2265 17.1051C18.2197 17.0856 18.1968 17.0411 18.1957 17.0216C18.1922 16.961 18.2334 16.9027 18.2414 16.8433C18.254 16.7609 18.2323 16.7301 18.2734 16.6558C18.3123 16.5872 18.342 16.5151 18.3877 16.45C18.4369 16.3802 18.4849 16.3071 18.5352 16.2385C18.5672 16.1927 18.5947 16.1824 18.5821 16.1356C18.5227 16.1321 18.4266 16.227 18.3683 16.2556C18.3077 16.2865 18.2791 16.2888 18.2357 16.3368C18.2094 16.3654 18.1911 16.3974 18.1705 16.4294C18.1316 16.4854 18.0425 16.5677 18.0162 16.6295C18.0047 16.6569 18.0116 16.6958 18.0013 16.7244C17.9922 16.7507 17.975 16.7678 17.9704 16.7952C17.9087 16.7827 17.823 16.6969 17.7726 16.6615C17.704 16.6112 17.6366 16.5597 17.5657 16.5117C17.4777 16.45 17.3736 16.4031 17.2902 16.3356C17.2193 16.2773 17.2124 16.2019 17.1621 16.1287C17.1118 16.0555 17.0604 15.9675 16.9952 15.9092C16.9437 15.8634 16.8934 15.8166 16.8409 15.7697C16.8111 15.7423 16.7288 15.6874 16.7311 15.6382C16.7368 15.5662 16.8694 15.5125 16.9186 15.477C16.9472 15.4553 16.9723 15.4038 17.0055 15.389C17.0284 15.3775 17.0695 15.389 17.0947 15.389C17.1644 15.3844 17.2502 15.3535 17.3165 15.3604C17.4114 15.3718 17.504 15.453 17.584 15.4964C17.6743 15.5456 17.7738 15.5811 17.8698 15.6176C18.0276 15.6771 18.2025 15.7468 18.3477 15.8406C18.4243 15.8886 18.5044 15.9195 18.5741 15.9778C18.6553 16.0475 18.7285 16.1218 18.8222 16.171C18.8085 16.1436 18.8085 16.107 18.7948 16.0807C18.7639 16.0235 18.701 15.9926 18.6461 15.9561C18.5592 15.8977 18.4941 15.8383 18.4186 15.7651C18.3786 15.7263 18.3466 15.6897 18.3009 15.6588C18.2551 15.6279 18.2391 15.6039 18.2071 15.565C18.1511 15.4987 18.0996 15.4782 18.0276 15.4313C17.967 15.3924 17.9121 15.3741 17.9007 15.2975C17.8824 15.174 17.9967 15.1374 18.0791 15.0769C18.2425 14.9579 18.3557 14.8127 18.4598 14.647C18.4964 14.5887 18.5135 14.4983 18.5878 14.4755C18.6221 14.5166 18.661 14.5075 18.7067 14.5258C18.7685 14.5486 18.8153 14.607 18.8691 14.6435C18.9434 14.6927 19.0154 14.7053 19.0932 14.7316C19.1778 14.759 19.2567 14.8025 19.3424 14.8322C19.4945 14.8848 19.6511 14.9614 19.81 14.9957C19.8878 15.0048 19.9655 15.0163 20.0421 15.0323C20.1164 15.062 20.1919 15.0906 20.2685 15.1169C20.3085 15.1237 20.3508 15.1329 20.392 15.1409C20.4446 15.2049 20.5154 15.2701 20.5783 15.2861C20.56 15.3284 20.5269 15.3615 20.5017 15.4016ZM18.0573 18.3467C18.0036 18.341 17.9499 18.3341 17.8961 18.3284C17.8298 18.3227 17.7555 18.3067 17.6903 18.3033C17.6423 18.3124 17.5943 18.3227 17.5463 18.3376C17.4903 18.3456 17.4354 18.3456 17.3805 18.3387C17.3062 18.3376 17.249 18.3456 17.1747 18.3113C17.113 18.2827 17.0832 18.2221 17.0272 18.1901C16.9392 18.1398 16.7997 18.1615 16.7037 18.1752C16.6499 18.1901 16.5939 18.1947 16.539 18.1889C16.499 18.1752 16.4578 18.1684 16.4155 18.1684C16.3389 18.1729 16.2726 18.221 16.196 18.2301C16.1491 18.0895 16.0531 17.9843 16.0097 17.8471C15.9937 17.7956 15.9685 17.743 15.9582 17.6905C15.9445 17.6241 15.9605 17.5578 15.9594 17.4904C15.9582 17.4046 15.9582 17.3395 15.9765 17.2594C16.0154 17.0937 16.0257 16.8993 16.0874 16.7427C16.1217 16.658 16.1949 16.6157 16.2395 16.5391C16.2063 16.5003 16.1673 16.4751 16.1273 16.45C16.1216 16.4546 16.1171 16.4614 16.1103 16.466C16.1103 16.458 16.1136 16.45 16.1159 16.442C16.0759 16.4168 16.036 16.3917 16.0005 16.3551C16.0531 16.3345 16.1605 16.2876 16.165 16.3711C16.2142 16.3242 16.2829 16.2819 16.3126 16.251C16.3595 16.2064 16.4052 16.1619 16.4498 16.1138C16.4807 16.0795 16.539 15.9812 16.5859 15.9743C16.6396 16.0921 16.7688 16.1493 16.8637 16.2327C16.9495 16.3071 17.0501 16.3162 17.137 16.3894C17.2376 16.474 17.3073 16.578 17.4251 16.6443C17.4777 16.6752 17.5211 16.7061 17.5703 16.7404C17.6377 16.7861 17.6743 16.833 17.7315 16.8867C17.7932 16.9439 17.8584 16.9336 17.903 17.0102C17.9259 17.0502 17.9464 17.0856 17.9704 17.1234C18.0185 17.2011 18.055 17.2926 18.0973 17.3749C18.1465 17.4744 18.2128 17.5578 18.2803 17.6447C18.326 17.7019 18.3557 17.7751 18.3912 17.8402C18.2768 18.0049 18.1717 18.1798 18.0573 18.3467ZM15.6667 11.185C15.6484 11.0718 15.6438 10.9495 15.6632 10.8363C15.6895 10.6865 15.7673 10.5459 15.8485 10.4202C15.8816 10.3698 15.9113 10.3115 15.9388 10.2521C16.0234 10.2235 16.1091 10.1915 16.196 10.1686C16.26 10.1515 16.3218 10.1663 16.387 10.1789C16.4773 10.1949 16.523 10.1926 16.6076 10.1652C16.7219 10.1263 16.8534 10.0646 16.9712 10.0634C17.0146 10.0623 17.0604 10.0657 17.1038 10.0669C17.0409 10.1789 16.9758 10.2887 16.9152 10.4019C16.8694 10.4865 16.8283 10.5722 16.7917 10.6625C16.7528 10.7586 16.7391 10.882 16.6682 10.9598C16.6305 11.001 16.579 11.0272 16.5356 11.0627C16.4624 11.121 16.4064 11.1953 16.3355 11.2582C16.2623 11.3234 16.1777 11.3771 16.1068 11.4468C16.0805 11.44 16.0531 11.4343 16.0291 11.4251C15.9056 11.3817 15.6895 11.3382 15.6667 11.185ZM15.8645 20.1703C15.845 20.1417 15.8473 20.104 15.8325 20.072C15.7936 19.9965 15.6998 19.9542 15.6198 19.9554C15.5009 19.9576 15.3786 19.9954 15.2619 19.9942C15.2311 19.9931 15.2002 19.9736 15.1682 19.9725C15.151 19.9725 15.1316 19.9828 15.1156 19.9805C15.0436 19.9702 14.9612 19.9485 14.8881 19.9302C14.8458 19.9199 14.808 19.8993 14.7646 19.889C14.6891 19.8719 14.6091 19.8765 14.5337 19.8662C14.4159 19.849 14.2981 19.8502 14.1804 19.8364C14.0489 19.8216 13.914 19.8182 13.7836 19.8033C13.7539 19.7999 13.7356 19.7987 13.7036 19.7987C13.6659 19.7999 13.6201 19.8044 13.5836 19.7987C13.4978 19.7839 13.4144 19.745 13.3378 19.7118C13.316 19.7038 13.2886 19.6947 13.2611 19.6867C13.2577 19.6535 13.2531 19.6204 13.252 19.5918C13.2486 19.5335 13.268 19.4752 13.268 19.4157C13.268 19.3014 13.2646 19.1951 13.2543 19.083C13.2451 18.9881 13.2291 18.8864 13.252 18.7949C13.2554 18.7823 13.26 18.7697 13.2634 18.756C13.284 18.7389 13.3035 18.7194 13.3275 18.6989C13.4006 18.6371 13.5092 18.6143 13.5881 18.5605C13.6384 18.5262 13.6693 18.5056 13.7276 18.4828C13.8088 18.4519 13.8305 18.4256 13.8957 18.365C13.994 18.2713 14.0969 18.2095 14.1758 18.094C14.2147 18.0369 14.2421 17.9751 14.2787 17.9157C14.3153 17.8551 14.3393 17.7842 14.377 17.7213C14.409 17.6687 14.4525 17.6344 14.5005 17.5978C14.5908 17.5304 14.6834 17.4664 14.7726 17.3966C14.8606 17.3292 14.8927 17.2343 15.0024 17.1725C15.1247 17.1051 15.2574 17.0685 15.39 17.0262C15.4757 16.9988 15.6141 16.985 15.6758 16.913C15.6987 16.9827 15.6873 17.0891 15.6701 17.1611C15.6472 17.2583 15.6461 17.3566 15.6369 17.4584C15.6267 17.5887 15.6106 17.7499 15.6347 17.8722C15.6507 17.9557 15.653 18.03 15.6815 18.1146C15.7078 18.1969 15.7456 18.2827 15.7593 18.3673C15.7696 18.4279 15.7616 18.4782 15.7524 18.5376C15.7433 18.5925 15.7478 18.58 15.7524 18.6314C15.7604 18.7274 15.7844 18.8498 15.781 18.9447C15.7764 19.0464 15.7536 19.139 15.7627 19.2442C15.7741 19.3814 15.8084 19.5072 15.829 19.6455C15.8565 19.8227 15.8576 20.0022 15.8748 20.1794C15.8713 20.176 15.8668 20.1749 15.8645 20.1703ZM13.1171 19.6638C13.0919 19.6775 13.0645 19.825 13.0462 19.8582C12.9993 19.9416 12.9136 20.0091 12.8267 20.0491C12.7192 20.0994 12.5877 20.1234 12.4734 20.16C12.3248 20.208 12.175 20.256 12.0252 20.3041C11.848 20.3612 11.6685 20.4333 11.4879 20.4778C11.4273 20.4927 11.3644 20.4939 11.3038 20.5064C11.2329 20.5201 11.1655 20.559 11.0957 20.5716C11.0386 20.5807 10.9036 20.591 10.8545 20.5659C10.8053 20.5407 10.8053 20.4904 10.7882 20.447C10.7642 20.3852 10.7024 20.3349 10.6635 20.2801C10.603 20.192 10.5481 20.0914 10.4635 20.0262C10.4486 20.0137 10.4177 19.9862 10.3834 19.9588C10.4886 19.817 10.5812 19.665 10.6487 19.5037C10.7459 19.2762 10.8922 19.0773 10.9642 18.8406C11.0008 18.7217 11.0946 18.6383 11.154 18.5331C11.2181 18.4199 11.2398 18.2918 11.2958 18.1752C11.4033 17.9523 11.4547 17.7088 11.6136 17.5075C11.728 17.3612 11.8492 17.2228 11.9692 17.0822C12.047 16.993 12.1704 16.9061 12.223 16.8021C12.2619 16.7255 12.2665 16.6958 12.3419 16.6478C12.4037 16.6066 12.47 16.5883 12.542 16.57C12.7249 16.5231 12.901 16.4957 13.0131 16.6718C13.0782 16.7747 13.0839 16.9187 13.1011 17.0331C13.1171 17.1462 13.0862 17.2343 13.0748 17.344C13.0645 17.4366 13.0782 17.5132 13.0874 17.6036C13.1034 17.7568 13.1045 17.9283 13.0965 18.0815C13.0897 18.2301 13.0291 18.3627 13.0005 18.5045C12.981 18.5994 12.9993 18.7069 12.9936 18.804C12.9868 18.8978 12.9948 18.9927 13.0039 19.0864C13.0211 19.2614 13.0485 19.4454 13.1011 19.6124C13.1068 19.6307 13.1125 19.6467 13.1194 19.6627C13.1182 19.6638 13.1171 19.6627 13.1171 19.6638ZM10.4303 18.6097C10.3148 18.6748 10.2005 18.7069 10.1045 18.7995C10.0622 18.8406 10.0153 18.8726 9.97413 18.9138C9.90782 18.979 9.85637 19.0567 9.78663 19.1173C9.67916 19.2111 9.53853 19.2991 9.40819 19.3551C9.29615 19.4031 9.17953 19.4283 9.06978 19.4843C8.97717 19.5323 8.89371 19.5861 8.79424 19.6192C8.76223 19.6295 8.73021 19.6364 8.69934 19.6512C8.61817 19.6912 8.561 19.7679 8.46954 19.7839C8.37007 19.8022 8.26031 19.8124 8.1597 19.8216C8.1517 19.8227 8.14027 19.8216 8.13112 19.8227C8.10711 19.7656 8.08767 19.7153 8.04994 19.6661C7.99964 19.5986 7.9379 19.5346 7.88188 19.4694C7.75154 19.3162 7.67379 19.1013 7.56632 18.9275C7.5103 18.8383 7.47257 18.7537 7.40512 18.6771C7.36739 18.6348 7.34909 18.5857 7.31137 18.5422C7.25306 18.4759 7.1776 18.4267 7.11815 18.3604C7.05298 18.2873 7.00496 18.2027 6.9295 18.1386C6.88034 18.0975 6.88491 18.1123 6.86433 18.0563C6.80259 17.8894 6.75572 17.7168 6.70084 17.5475C6.68254 17.5327 6.65625 17.535 6.62767 17.5418C6.8952 17.3429 7.20504 17.2308 7.49773 17.0685C7.59491 17.0148 7.67379 16.9382 7.76755 16.8799C7.8956 16.801 8.03622 16.7518 8.17113 16.6878C8.24202 16.6546 8.35978 16.5952 8.39179 16.5151C8.40666 16.4774 8.40208 16.4305 8.39637 16.3917C8.39865 16.4077 8.36207 16.2842 8.36435 16.2762C8.38493 16.1721 8.56786 16.1196 8.65132 16.0933C8.83654 16.0361 8.96459 15.9938 9.10179 15.8589C9.10065 15.8543 9.21155 15.724 9.21498 15.7228C9.23899 15.7148 9.24813 15.7308 9.27328 15.7274C9.34989 15.716 9.37733 15.74 9.43563 15.7914C9.5191 15.8657 9.62085 15.9103 9.69059 15.9984C9.78892 16.1253 9.76834 16.1904 9.93526 16.1779C9.97413 16.1756 10.013 16.1561 10.0496 16.1527C10.1685 16.1436 10.3228 16.195 10.4235 16.219C10.5835 16.259 10.7424 16.2842 10.8899 16.3596C11.0008 16.4168 10.9505 16.3859 11.042 16.3768C11.1517 16.3654 11.3301 16.4683 11.3335 16.5895C11.3347 16.6352 11.3038 16.6901 11.2969 16.7381C11.2809 16.8696 11.2672 16.9873 11.2329 17.1154C11.1712 17.344 11.0854 17.5578 10.994 17.7762C10.9174 17.958 10.8156 18.1318 10.7459 18.3158C10.7379 18.3376 10.7321 18.3582 10.7253 18.3799C10.6475 18.4748 10.5298 18.5525 10.4303 18.6097ZM7.33423 16.4866C7.24162 16.4111 7.16502 16.3379 7.05641 16.2945C6.98209 16.2647 6.90663 16.2442 6.83232 16.2122C6.73171 16.1699 6.60823 16.155 6.51905 16.0875C6.43788 16.0269 6.34984 15.9709 6.26981 15.9069C6.18063 15.836 6.10632 15.7686 6.00228 15.716C5.93139 15.6782 5.8182 15.6051 5.73588 15.6176C5.73245 15.5513 5.78962 15.4827 5.82964 15.429C5.85479 15.3935 5.87537 15.3535 5.89823 15.3181C5.9211 15.2826 5.95883 15.2586 5.98055 15.2221C6.02743 15.1432 6.06859 15.0128 6.08459 14.9225C6.09831 14.8459 6.1006 14.7796 6.14519 14.711C6.16348 14.6824 6.17492 14.6527 6.18749 14.623C6.18978 14.6241 6.19206 14.6241 6.19321 14.6241C6.26638 14.6504 6.33841 14.6767 6.40929 14.7064C6.48818 14.7396 6.5625 14.7499 6.64367 14.7716C6.71341 14.8002 6.7843 14.8276 6.85518 14.8539C6.92493 14.8699 6.99581 14.8791 7.0667 14.8813C7.2542 14.9054 7.43256 14.8802 7.62006 14.8951C7.74468 14.9042 7.83386 14.9111 7.95505 14.8974C8.06938 14.8848 8.17914 14.8996 8.29233 14.9054C8.41237 14.9099 8.58273 14.9076 8.68105 14.99C8.75079 15.0471 8.76451 15.1329 8.79081 15.214C8.82739 15.3307 8.85826 15.4473 8.90971 15.5582C8.93715 15.6188 8.95087 15.6245 8.90171 15.6885C8.81367 15.804 8.64675 15.8909 8.52556 15.9675C8.47182 16.0018 8.42266 16.0235 8.37007 16.0532C8.28203 16.1013 8.21687 16.187 8.12654 16.2396C8.2363 16.3002 8.19514 16.4214 8.13912 16.5037C8.04994 16.6375 7.88988 16.7324 7.74811 16.7987C7.73439 16.8055 7.72067 16.809 7.70695 16.8147C7.69209 16.8044 7.67837 16.7952 7.67036 16.7907C7.63264 16.7655 7.59262 16.7381 7.55375 16.7072C7.52745 16.6866 7.48743 16.6672 7.46686 16.6432C7.41998 16.5906 7.39254 16.5357 7.33423 16.4866ZM10.1239 8.11753C10.0839 8.06265 10.0702 7.96547 10.0484 7.89915C10.0061 7.76653 9.95698 7.65449 9.87009 7.5413C9.82093 7.47842 9.78663 7.4121 9.72489 7.36065C9.65172 7.30006 9.54082 7.27033 9.49623 7.18344C9.46879 7.13199 9.47108 7.06111 9.44364 7.00737C9.42534 6.97079 9.42077 6.9765 9.39333 6.94906C9.33388 6.88847 9.279 6.76613 9.20354 6.72612C9.1761 6.7124 9.14523 6.72154 9.11665 6.71011C9.07206 6.69182 9.03319 6.6438 9.00118 6.61064C8.98288 6.59235 8.96916 6.57177 8.9543 6.55119C9.02061 6.51118 9.10522 6.40142 9.14066 6.35683C9.18639 6.30081 9.21383 6.23335 9.279 6.20134C9.37961 6.15103 9.50195 6.15789 9.60827 6.12702C9.71232 6.0973 9.83694 6.10644 9.93869 6.12817C10.045 6.14989 10.1548 6.16933 10.2622 6.19219C10.3697 6.21506 10.4269 6.24364 10.5069 6.16704C10.5366 6.1396 10.5515 6.12016 10.5835 6.09501C10.6304 6.05728 10.675 6.05385 10.7241 6.02755C10.7562 6.01041 10.7745 5.98297 10.8065 5.96582C10.8453 5.94524 10.9014 5.93609 10.9448 5.92351C11.0123 5.90179 11.1254 5.87207 11.1232 5.78174C11.1963 5.8229 11.2283 5.93037 11.2706 5.99669C11.3347 6.09844 11.4021 6.23106 11.4844 6.31681C11.5771 6.41399 11.6537 6.54433 11.7566 6.6175C11.8583 6.68953 11.9864 6.83816 12.0412 6.95021C12.0847 7.04167 12.1338 7.18916 12.2287 7.24632C12.2882 7.28291 12.3717 7.28863 12.4345 7.32521C12.5626 7.40181 12.7638 7.55845 12.7981 7.71279C12.8141 7.77911 12.7912 7.84427 12.7695 7.90716C12.7547 7.94717 12.7375 7.98604 12.7226 8.02606C12.6884 8.11752 12.6541 8.21699 12.6506 8.31532C12.6483 8.40335 12.6803 8.49024 12.6586 8.57828C12.622 8.72119 12.5512 8.8481 12.4597 8.97043C12.3831 9.07562 12.3534 9.16708 12.3248 9.29285C12.2962 9.42319 12.2413 9.64727 12.095 9.69529C12.0538 9.6004 11.9681 9.52837 11.8766 9.47578C11.7806 9.4209 11.7154 9.4632 11.6159 9.46549C11.5462 9.46663 11.489 9.42547 11.4158 9.4369C11.3621 9.44491 11.3667 9.44605 11.3175 9.42661C11.2203 9.38889 11.1197 9.37402 11.0408 9.30199C10.9642 9.23225 10.9071 9.1648 10.8705 9.07105C10.8339 8.97615 10.7539 8.9247 10.7059 8.83781C10.6876 8.80465 10.6853 8.76121 10.667 8.7292C10.6475 8.6949 10.6155 8.67889 10.5904 8.64916C10.5732 8.62973 10.5366 8.58743 10.5252 8.56799C10.5046 8.53483 10.4989 8.4971 10.4783 8.46166C10.4429 8.40107 10.3812 8.34847 10.34 8.28902C10.284 8.21013 10.1799 8.1987 10.1239 8.11753ZM10.9505 5.44333C10.9185 5.33471 10.9162 5.22038 10.9357 5.10719C10.9631 4.95513 10.9848 4.81794 10.9631 4.66816C10.962 4.65444 10.9642 4.64072 10.9631 4.627C10.9997 4.59842 11.0374 4.56984 11.0763 4.54583C11.2226 4.45665 11.3861 4.42921 11.5347 4.34689C11.6319 4.2943 11.7348 4.27029 11.8389 4.23485C11.9269 4.20398 11.9429 4.13309 12.0115 4.07135C12.0847 4.00733 12.2082 3.93416 12.3088 3.92844C12.3556 3.99818 12.3968 4.07135 12.4425 4.13424C12.478 4.18225 12.4963 4.26 12.5351 4.30116C12.5569 4.31373 12.5786 4.32631 12.5992 4.34003C12.6117 4.36404 12.6232 4.38691 12.6358 4.41092C12.6883 4.49781 12.7489 4.58699 12.8015 4.68188C12.8518 4.7722 12.9113 4.85909 12.9547 4.95284C12.9879 5.02259 13.0005 5.09805 13.0371 5.1655C13.0897 5.26383 13.1514 5.35186 13.1868 5.46047C13.2051 5.51421 13.2303 5.54622 13.2554 5.59653C13.2806 5.6434 13.2852 5.69257 13.3069 5.7383C13.3526 5.83548 13.4201 5.91094 13.4589 6.00926C13.4887 6.08472 13.5298 6.2002 13.5893 6.26879C13.5641 6.28709 13.5355 6.29623 13.5127 6.31796C13.491 6.33968 13.483 6.36483 13.4612 6.3877C13.4109 6.438 13.3629 6.47345 13.3217 6.53747C13.2794 6.60378 13.276 6.65981 13.2474 6.72269C13.2154 6.79014 13.1868 6.84845 13.1502 6.91248C13.1102 6.98336 13.1045 7.07483 13.0736 7.14914C13.0439 7.22231 13.0039 7.28748 12.9696 7.35837C12.9239 7.31607 12.8678 7.27376 12.8301 7.2589C12.7558 7.22917 12.6975 7.2589 12.638 7.19945C12.5466 7.10913 12.446 7.02795 12.3602 6.9342C12.2516 6.8153 12.1396 6.69982 11.9932 6.6175C11.9098 6.57063 11.8389 6.51575 11.7623 6.45744C11.6777 6.39456 11.6228 6.30309 11.5633 6.23106C11.4993 6.15332 11.441 6.06643 11.3781 5.98525C11.2992 5.8835 11.1975 5.80347 11.1174 5.70286C11.0477 5.61596 10.9802 5.54622 10.9505 5.44333ZM12.5443 3.75237C12.6266 3.72607 12.7387 3.71007 12.8141 3.66777C12.853 3.64604 12.8701 3.62089 12.9102 3.6026C12.9456 3.58659 12.989 3.57859 13.0268 3.56601C13.1057 3.54086 13.1845 3.5157 13.2634 3.49169C13.3355 3.46883 13.3801 3.42996 13.4441 3.39909C13.4749 3.38422 13.507 3.38537 13.5355 3.36479C13.5733 3.33963 13.5939 3.29733 13.635 3.27447C13.6819 3.24817 13.7425 3.24474 13.7916 3.21844C14.0112 3.09954 14.2455 2.99664 14.4433 2.84115C14.3976 2.94291 14.3416 3.04123 14.2856 3.13727C14.1335 3.40023 14.0889 3.69063 13.9997 3.97417C13.9426 4.15825 13.8671 4.35261 13.7756 4.52067C13.7196 4.62357 13.6384 4.85566 13.7036 4.97457C13.7436 5.0466 13.8065 5.09233 13.8488 5.15864C13.8865 5.21581 13.9014 5.28326 13.9083 5.34957C13.8625 5.36101 13.8065 5.38273 13.7791 5.40216C13.7916 5.46047 13.7871 5.48791 13.7814 5.696C13.7699 5.7383 13.7585 5.78174 13.7528 5.82519C13.7368 5.94981 13.7013 6.15218 13.6099 6.25279C13.6099 6.22192 13.6099 6.18533 13.6099 6.17161C13.6087 6.1316 13.6282 6.10301 13.6041 6.05842C13.5698 5.99783 13.539 5.96124 13.5161 5.88922C13.491 5.8069 13.4635 5.72344 13.4372 5.64112L13.3229 5.28669C13.2852 5.16779 13.2634 5.01916 13.1697 4.92998C13.0782 4.84309 13.0016 4.76534 12.9559 4.64072C12.9227 4.55269 12.8816 4.49209 12.8358 4.41206C12.7981 4.34689 12.7638 4.28058 12.7215 4.2177C12.6632 4.12966 12.6415 4.0119 12.558 3.94102C12.4791 3.87356 12.3659 3.8667 12.2699 3.83926C12.3625 3.81182 12.4528 3.7821 12.5443 3.75237ZM13.3446 17.4961C13.332 17.4446 13.3092 17.3978 13.3057 17.3463C13.2954 17.2297 13.3137 17.1074 13.3217 16.993C13.3275 16.9073 13.3835 16.8467 13.4212 16.7758C13.4601 16.7026 13.4818 16.6409 13.5321 16.5769C13.6053 16.482 13.6339 16.3848 13.7562 16.3345C13.8785 16.283 14.05 16.2842 14.1827 16.283C14.2295 16.283 14.2993 16.2728 14.345 16.2842C14.4102 16.3013 14.4616 16.3516 14.5268 16.3734C14.6137 16.4019 14.6674 16.4523 14.6686 16.554C14.6686 16.61 14.6308 16.6615 14.6343 16.7198C14.6354 16.7575 14.6457 16.7952 14.648 16.8318C14.656 16.921 14.7086 17.0411 14.6491 17.1199C14.5337 17.272 14.3919 17.4058 14.2741 17.5567C14.2421 17.5978 14.1952 17.6333 14.1575 17.6687C14.1175 17.7076 14.0935 17.7499 14.0546 17.7899C13.994 17.8539 13.9551 17.9225 13.9037 17.9957C13.8191 18.1158 13.7025 18.1638 13.5881 18.2484C13.5001 18.3136 13.4727 18.4142 13.4132 18.4999C13.3755 18.5537 13.332 18.612 13.2909 18.6668C13.3 18.6394 13.3103 18.6108 13.3206 18.5834C13.3538 18.4919 13.3583 18.3959 13.364 18.2987C13.3743 18.1375 13.3869 17.9786 13.3823 17.8162C13.3801 17.7088 13.3686 17.6001 13.3446 17.4961ZM16.0691 9.86107C16.0943 9.74331 16.1503 9.6347 16.1869 9.51922C16.2109 9.43805 16.2155 9.37631 16.2566 9.30085C16.3481 9.1305 16.411 8.94985 16.4784 8.77036C16.4796 8.76807 16.4807 8.76578 16.4819 8.7635C16.5104 8.78179 16.547 8.80809 16.571 8.82866C16.6065 8.85953 16.6099 8.88583 16.6271 8.93156C16.6476 8.98758 16.6842 9.02646 16.7082 9.08019C16.7963 9.28027 16.8431 9.50779 16.9106 9.71587C16.9197 9.74674 16.9655 9.82792 16.9518 9.85993C16.9403 9.88394 16.7917 9.9411 16.7677 9.95139C16.6339 10.012 16.4853 10.0451 16.3447 10.0897C16.2177 10.1309 16.0897 10.1721 15.9548 10.2144C16.0062 10.0977 16.0463 9.97426 16.0691 9.86107ZM16.85 12.9869C16.8477 12.8886 16.8306 12.7994 16.834 12.6976C16.8374 12.6107 16.8569 12.5387 16.9072 12.4724C16.9426 12.4244 16.9895 12.3489 17.0432 12.318C17.1393 12.2632 17.2707 12.3043 17.3759 12.294C17.4903 12.2826 17.5749 12.2506 17.6972 12.262C17.7738 12.27 17.8538 12.262 17.9281 12.2837C18.1214 12.3421 18.2997 12.4324 18.4998 12.4793C18.6484 12.5147 18.8016 12.5273 18.9514 12.5616C19.0383 12.581 19.1355 12.6187 19.2258 12.6073C19.2933 12.5993 19.3504 12.5684 19.419 12.5616C19.4899 12.5547 19.5688 12.557 19.6362 12.5559C19.7471 12.5547 19.8638 12.5341 19.9758 12.549C20.0558 12.5604 20.1302 12.6027 20.209 12.6107C20.2422 12.6142 20.2776 12.5936 20.3108 12.597C20.3211 12.5982 20.3337 12.6039 20.3462 12.6073C20.2834 12.6256 20.2571 12.6816 20.2433 12.7296C20.2296 12.7742 20.2216 12.82 20.2148 12.8645C20.2079 12.9206 20.1907 12.9663 20.1759 13.0235C20.1267 13.2053 20.2285 13.4099 20.2319 13.594C20.2342 13.6969 20.2548 13.8089 20.233 13.913C20.225 13.9518 20.2068 13.9838 20.1965 14.025C20.1782 14.1005 20.1576 14.1782 20.1564 14.256C20.1564 14.3794 20.1302 14.5006 20.1702 14.6172C20.2136 14.743 20.2445 14.8779 20.3016 14.9991C20.2365 14.9762 20.1713 14.9545 20.1073 14.9362C19.985 14.9008 19.8603 14.8596 19.7414 14.8162C19.5917 14.7624 19.4613 14.679 19.3378 14.5818C19.2349 14.5006 19.0875 14.4457 18.9617 14.4046C18.8702 14.376 18.7776 14.3794 18.6839 14.3611C18.6107 14.3474 18.5844 14.3131 18.5215 14.288C18.5021 14.28 18.4575 14.2823 18.4369 14.28C18.3466 14.2697 18.2666 14.2194 18.1842 14.1851C18.1008 14.1508 18.0196 14.1096 17.9361 14.0753C17.7041 13.9793 17.4594 13.969 17.2341 13.8558C17.1575 13.8181 17.0695 13.7803 16.9975 13.7346C16.8671 13.6523 16.8191 13.578 16.8248 13.4293C16.8306 13.2819 16.8546 13.1367 16.85 12.9869ZM10.8773 23.1097C10.9928 23.1623 11.1243 23.1692 11.2455 23.2161C11.3472 23.2549 11.4501 23.295 11.5542 23.335C11.6296 23.3636 11.6948 23.383 11.7634 23.4242C11.8057 23.4493 11.8537 23.4756 11.8983 23.4928C11.9361 23.5088 11.9738 23.5202 12.0127 23.5236C12.0149 23.5236 12.0195 23.5248 12.0229 23.5248C11.9509 23.5476 11.8777 23.5705 11.8057 23.5934C11.6971 23.6288 11.5873 23.6642 11.4776 23.6997C11.4296 23.7146 11.3598 23.7523 11.3095 23.7466C11.2432 23.7397 11.2055 23.6757 11.162 23.6334C11.1106 23.5831 11.1003 23.5568 11.0614 23.5076C11.0237 23.4607 10.9642 23.4333 10.9174 23.3967C10.7733 23.2812 10.6578 23.1486 10.5538 22.9988C10.6544 23.0503 10.7767 23.0629 10.8773 23.1097ZM7.93333 12.1557C7.83614 12.1408 7.74125 12.1431 7.64407 12.1225C7.41884 12.0768 7.19475 12.0745 6.96723 12.0437C6.83689 12.0265 6.70998 11.9808 6.57622 11.9728C6.48933 11.9682 6.40701 11.9933 6.32012 11.9785C6.26295 11.9693 6.22179 11.9522 6.16234 11.9522C5.98856 11.9499 5.82049 12.0025 5.64556 11.9659C5.49465 11.9327 5.46035 11.791 5.3483 11.7007C5.22597 11.6023 5.06933 11.5886 4.91613 11.5692C4.939 11.4937 4.95272 11.3988 4.96072 11.3588C4.9813 11.2445 4.98016 11.1713 4.94243 11.065C4.90356 10.9552 4.88526 10.8272 4.86811 10.7128C4.83839 10.515 4.73892 10.331 4.70691 10.1355C4.6989 10.0874 4.70919 10.0451 4.69662 9.99713C4.68404 9.95025 4.65546 9.90338 4.6566 9.85421C4.88183 9.88623 5.13908 9.88623 5.37231 9.87022C5.48779 9.86107 5.58497 9.84049 5.69358 9.80505C5.82506 9.76275 5.9817 9.76732 6.11889 9.77304C6.16348 9.77532 6.21264 9.79819 6.25609 9.81648C6.32469 9.84507 6.39786 9.84621 6.47103 9.87365C6.61052 9.92853 6.62424 9.96969 6.69169 10.0989C6.74771 10.2075 6.80945 10.3321 6.88834 10.427C6.90549 10.4476 6.9295 10.4762 6.9558 10.4876C6.99124 10.5036 7.01411 10.4865 7.04726 10.4945C7.11357 10.5105 7.18446 10.5311 7.24963 10.5505C7.30908 10.5676 7.35024 10.6065 7.41198 10.6179C7.45885 10.6259 7.53202 10.6099 7.57204 10.6374C7.61434 10.666 7.64407 10.8432 7.65664 10.8798C7.67036 10.9244 7.68294 10.9689 7.69895 11.0135C7.73096 11.1027 7.78584 11.1724 7.81328 11.2662C7.84529 11.3725 7.86587 11.4731 7.9299 11.5669C7.98592 11.6504 8.05337 11.7167 8.08653 11.8138C8.12769 11.9362 8.21001 12.0734 8.24659 12.2049C8.13226 12.2014 8.04194 12.1717 7.93333 12.1557ZM9.01261 8.87783C8.97831 8.84924 8.94515 8.78522 8.92343 8.7452C8.90057 8.70176 8.87999 8.67775 8.85598 8.6423C8.85369 8.64002 8.85255 8.63887 8.8514 8.63659C8.89942 8.68575 8.95773 8.73034 8.99889 8.78522C9.03433 8.83209 9.06863 8.87897 9.10293 8.9247C9.06978 8.91327 9.03776 8.89955 9.01261 8.87783ZM23.9431 11.9819C23.8756 12.0425 23.7887 12.0825 23.7133 12.1328C23.5486 12.2426 23.4503 12.3866 23.3303 12.5341C23.2365 12.6496 23.1931 12.7982 23.097 12.9103C23.0593 12.9537 23.0056 12.9835 22.9713 13.028C22.9084 13.1081 22.8604 13.2258 22.8135 13.3162C22.7472 13.4431 22.6592 13.5643 22.5928 13.6969C22.5368 13.8066 22.4922 13.9233 22.4259 14.0273C22.3756 14.1062 22.3173 14.1759 22.2773 14.2605C22.2247 14.3737 22.1801 14.4961 22.155 14.6184C22.1435 14.6733 22.147 14.7361 22.1195 14.7865C22.0509 14.9111 21.8909 14.9431 21.7662 14.982C21.5067 15.0654 21.2575 15.1592 20.9808 15.1363C20.9133 15.1306 20.7727 15.0814 20.6767 15.0849C20.6767 15.0814 20.6767 15.0791 20.6767 15.0757C20.6744 14.9557 20.6332 14.8379 20.6241 14.7167C20.6161 14.6184 20.6298 14.5155 20.6172 14.4183C20.6069 14.3303 20.5863 14.2457 20.5852 14.1519C20.5829 14.0742 20.6058 14.0033 20.5886 13.9267C20.5715 13.8547 20.5406 13.7815 20.5177 13.7106C20.4663 13.5517 20.4343 13.4179 20.4297 13.2487C20.4251 13.0578 20.4263 12.852 20.4754 12.6668C20.5212 12.6953 20.5635 12.7274 20.5909 12.7559C20.6412 12.8085 20.6641 12.8668 20.7235 12.9137C20.783 12.9606 20.8207 12.9983 20.8916 13.0246C21.0768 13.0944 21.1603 13.1321 21.3649 13.1046C21.4724 13.0909 21.6416 13.0932 21.7296 13.044C21.6931 13.0212 21.6462 13.0303 21.6062 13.0212C21.5353 13.0052 21.4518 12.9663 21.3878 12.9331C21.2506 12.86 21.1271 12.8108 21.0185 12.7056C20.9499 12.6405 20.8744 12.5764 20.8058 12.517C20.7807 12.4953 20.7361 12.4655 20.7052 12.4518C20.6023 12.4072 20.4446 12.3626 20.3371 12.3398C20.057 12.2769 19.7609 12.3535 19.4819 12.3684C19.4156 12.3718 19.3618 12.3501 19.2978 12.3329C19.1709 12.2963 19.0452 12.286 18.924 12.2277C18.8199 12.1774 18.7536 12.1477 18.6416 12.126C18.4255 12.0825 18.2048 12.0254 17.9956 11.9568C17.8961 11.9247 17.895 11.9087 17.8184 11.9522C17.7738 11.9773 17.7361 12.0013 17.6846 12.0219C17.7784 11.9751 17.8447 11.8836 17.9156 11.8138C18.0219 11.7121 18.1145 11.5657 18.1728 11.4308C18.2082 11.3485 18.198 11.2582 18.19 11.1702C18.1808 11.0638 18.1854 10.9849 18.2071 10.8775C18.2323 10.7529 18.302 10.6843 18.3695 10.5791C18.4072 10.5208 18.4346 10.4556 18.4724 10.3973C18.541 10.2944 18.6507 10.1583 18.6713 10.0303C18.6793 9.9754 18.6747 9.92053 18.6839 9.8645C18.701 9.75703 18.7159 9.66099 18.7124 9.55124C18.7079 9.38203 18.7433 9.21625 18.7113 9.05047C18.669 9.22882 18.5387 9.37517 18.5147 9.55581C18.5044 9.63927 18.4952 9.72273 18.4666 9.80276C18.4495 9.85078 18.4175 9.89309 18.406 9.94225C18.3912 10.0006 18.3866 10.0417 18.3592 10.0989C18.31 10.2006 18.2768 10.3195 18.2551 10.435C18.238 10.5162 18.2185 10.5997 18.2174 10.6831C18.2163 10.7883 18.1808 10.85 18.1259 10.9312C18.007 11.1096 17.8733 11.2811 17.7475 11.4583C17.6572 11.5863 17.52 11.6664 17.4331 11.7944C17.3771 11.8767 17.2753 11.9076 17.1827 11.9099C17.0466 11.9133 16.9369 11.8904 16.8306 11.8013C16.7608 11.743 16.6899 11.7064 16.6076 11.6595C16.603 11.6572 16.5996 11.6538 16.595 11.6504C16.5962 11.6435 16.5985 11.6355 16.5985 11.6286C16.6019 11.5143 16.6179 11.376 16.6819 11.2742C16.7208 11.2113 16.7665 11.1622 16.8191 11.1119C16.9152 11.0181 16.9792 10.9221 17.0546 10.8123C17.1461 10.6797 17.1644 10.515 17.233 10.3687C17.2867 10.2532 17.313 10.148 17.3405 10.0257C17.3908 9.80505 17.4308 9.5821 17.4662 9.35916C17.4674 9.35001 17.472 9.34201 17.4742 9.33286C17.4445 9.39803 17.4285 9.46434 17.3965 9.52837C17.3496 9.62326 17.2845 9.70558 17.241 9.80391C17.2376 9.80962 17.2341 9.81534 17.2307 9.8222C17.2159 9.77304 17.1998 9.72502 17.185 9.67586C17.153 9.58096 17.1541 9.49521 17.129 9.40261C17.0821 9.22882 17.0146 9.0699 16.9392 8.91098C16.8797 8.78636 16.7871 8.72234 16.6488 8.72462C16.6213 8.72462 16.5985 8.73834 16.571 8.73606C16.5527 8.73377 16.531 8.71548 16.5104 8.71319C16.5081 8.71205 16.5059 8.71319 16.5024 8.71319C16.5139 8.68575 16.5238 8.6595 16.5364 8.63321C16.5158 8.64921 16.4944 8.66517 16.4761 8.68346C16.4647 8.69375 16.4556 8.70747 16.4453 8.72005C16.4121 8.7292 16.3812 8.73949 16.3469 8.72348C16.3755 8.73377 16.4018 8.73491 16.427 8.74063C16.3515 8.83324 16.2921 8.94871 16.2349 9.04932C16.156 9.18538 16.0645 9.28827 15.9799 9.41518C15.8679 9.58554 15.7341 9.76503 15.6495 9.94911C15.6061 10.0406 15.5786 10.1217 15.502 10.1938C15.4197 10.2727 15.3488 10.3573 15.2734 10.4464C15.1693 10.5676 14.9487 10.6111 14.7943 10.6511C14.7029 10.6751 14.624 10.6797 14.5485 10.6259C14.4891 10.5836 14.4891 10.5745 14.4205 10.5711C14.3016 10.5642 14.2558 10.5219 14.1449 10.4659C14.074 10.4293 13.9952 10.3996 13.9254 10.3607C13.9094 10.3516 13.8831 10.3253 13.8648 10.3195C13.731 10.2807 13.563 10.3756 13.4292 10.3287C13.3938 10.3173 13.3778 10.2807 13.3469 10.2601C13.2749 10.2132 13.1743 10.2041 13.0965 10.1755C13.0313 10.1526 12.9856 10.1366 12.9216 10.1206C12.8621 10.1069 12.8244 10.0634 12.7604 10.0852C12.7444 9.98112 12.7901 9.85307 12.8118 9.75132C12.821 9.70787 12.837 9.66557 12.8336 9.62098C12.8313 9.6004 12.8175 9.58554 12.8175 9.56267C12.8187 9.5318 12.8404 9.49178 12.8438 9.45977C12.8484 9.42319 12.8484 9.39346 12.8587 9.35687C12.8633 9.34315 12.8678 9.33172 12.8713 9.31914C12.989 9.21053 13.0862 9.15794 13.1502 9.08019C13.1777 9.04818 13.2028 9.01388 13.2291 8.98072C13.1342 8.97958 13.0405 8.98644 12.9616 9.05161C12.9525 9.05961 12.9445 9.06762 12.9353 9.07562C12.9376 9.06419 12.9422 9.05504 12.9422 9.04246C12.9467 8.9853 12.9319 8.94185 12.9445 8.88583C12.9719 8.7635 12.9822 8.60801 13.0268 8.49139C13.0805 8.35419 13.1788 8.23872 13.2349 8.10152C13.268 8.02034 13.2737 7.94146 13.2852 7.85456C13.3057 7.7025 13.2737 7.55616 13.3 7.40296C13.3183 7.2932 13.3423 7.18573 13.3595 7.07597C13.3938 7.08626 13.4349 7.10798 13.6282 7.13542C13.6716 7.13428 13.7093 7.16058 13.7516 7.17201C13.8019 7.18458 13.8534 7.18687 13.9025 7.20402C13.9906 7.23375 14.0855 7.26119 14.1724 7.29549C14.2158 7.31378 14.297 7.33664 14.3336 7.36294C14.3587 7.38009 14.385 7.42811 14.409 7.45212C14.4365 7.47956 14.4639 7.51157 14.4925 7.54358C14.5942 7.65563 14.752 7.63162 14.8241 7.76653C14.8995 7.7551 14.9841 7.77225 15.0596 7.77682C15.1956 7.78711 15.3328 7.79969 15.4712 7.8054C15.5203 7.80769 15.5706 7.80312 15.6232 7.79854C15.5626 7.8317 15.5009 7.89229 15.4597 7.91973C15.3408 7.99633 15.2471 8.09237 15.1213 8.16212C14.9967 8.233 14.8652 8.33018 14.7326 8.37591C14.64 8.40793 14.5394 8.42622 14.4513 8.46852C14.3679 8.50739 14.2993 8.54855 14.2101 8.57485C14.034 8.62858 13.8465 8.58628 13.6705 8.65145C13.5596 8.69147 13.4601 8.7715 13.3652 8.84124C13.3126 8.87897 13.2703 8.92928 13.2291 8.98072C13.292 8.98187 13.356 8.98644 13.4178 8.98072C13.4978 8.97272 13.5458 8.97958 13.6224 8.95443C13.7528 8.91098 13.8843 8.86982 14.0146 8.82752C14.4799 8.67889 14.9601 8.54512 15.3408 8.22385C15.4151 8.16097 15.494 8.14725 15.5729 8.09923C15.6118 8.07637 15.6472 8.03635 15.6781 8.00891C15.7341 7.95632 15.7982 7.94374 15.8256 7.85914C15.7982 7.8397 15.7707 7.80883 15.741 7.79054C15.7833 7.78825 15.8244 7.78711 15.8645 7.79054C15.9171 7.79626 15.9456 7.82255 15.9799 7.84999C16.0851 8.01348 16.1217 8.06493 16.1549 8.05121C16.2029 8.03178 16.1572 7.98719 16.1514 7.95632C16.1503 7.94489 16.1514 7.93231 16.1503 7.92088C16.1926 7.92774 16.236 7.91859 16.2749 7.92774C16.3286 7.94031 16.3138 7.95861 16.3744 7.94489C16.4087 7.93803 16.4407 7.9163 16.4761 7.91402C16.5162 7.91173 16.555 7.9346 16.5928 7.93231C16.6785 7.92774 16.7391 7.84084 16.8077 7.8054C16.818 7.79969 16.8317 7.79397 16.8454 7.78825C16.8157 7.77225 16.786 7.75624 16.7551 7.74138C16.6934 7.71279 16.6225 7.69793 16.5539 7.7025C16.451 7.70822 16.3584 7.78254 16.2578 7.79168C16.2189 7.79511 16.1846 7.78711 16.1526 7.77453C16.1629 7.68192 16.1823 7.58589 16.1823 7.499C16.1823 7.44526 16.1766 7.40296 16.1846 7.35036C16.2155 7.1743 16.3435 7.03595 16.4007 6.86789C16.4498 6.72383 16.4658 6.54662 16.4224 6.40027C16.3881 6.28251 16.3435 6.20477 16.3675 6.08243C16.3904 5.96696 16.3847 5.8755 16.4487 5.77031C16.4979 5.69028 16.5081 5.5851 16.5939 5.54622C16.6979 5.4982 16.8157 5.49363 16.9255 5.46962C17.0809 5.43646 17.273 5.38159 17.4171 5.31756C17.4685 5.29355 17.5028 5.25811 17.5566 5.23753C17.6526 5.1998 17.7555 5.17465 17.8538 5.14263C17.9178 5.1232 17.9887 5.11062 18.047 5.07632C18.0905 5.05003 18.1214 5.01001 18.1602 4.98143C18.3294 4.85795 18.549 4.77906 18.7502 4.72647C19.0028 4.66016 19.2738 4.59956 19.5322 4.56183C19.8889 4.5081 20.2365 4.41778 20.5852 4.32974C20.6721 4.30802 20.7601 4.30802 20.8459 4.28058C20.887 4.268 20.9236 4.252 20.9682 4.24742C21.0768 4.23828 21.166 4.19712 21.2735 4.17425C21.5479 4.1148 21.8371 4.11023 22.1104 4.03362C22.3173 3.97646 22.5711 3.90443 22.7529 3.78781C22.7781 3.77181 22.7975 3.74894 22.8272 3.73979C22.7083 3.7821 22.5677 3.84383 22.4419 3.85641C22.4099 3.85984 22.4008 3.84955 22.3653 3.85641C22.3356 3.86213 22.3059 3.87585 22.2784 3.88499C22.1904 3.91472 22.1012 3.91701 22.0132 3.93758C21.9057 3.96274 21.796 3.9776 21.6851 3.98789C21.501 4.00504 21.3146 4.05077 21.1317 4.08507C20.911 4.12852 20.6995 4.16625 20.4857 4.23713C20.3119 4.2943 20.145 4.31831 19.9667 4.34117C19.7746 4.36633 19.5837 4.46808 19.3973 4.52296C19.1423 4.59728 18.8737 4.62243 18.621 4.70589C18.4575 4.75963 18.2917 4.81222 18.1271 4.86481C17.8184 4.96313 17.4903 5.10719 17.1667 5.15064C17.0306 5.16893 16.9003 5.15978 16.7711 5.20323C16.7151 5.22267 16.6293 5.2684 16.571 5.26268C16.5402 5.19866 16.507 5.13692 16.4738 5.07404C16.4315 4.98943 16.3527 4.92083 16.3081 4.83737C16.2669 4.75963 16.2475 4.71847 16.1812 4.64873C16.1389 4.60299 16.1068 4.55383 16.0691 4.50467C16.0177 4.43721 15.9902 4.35832 15.9376 4.29201C15.8896 4.23142 15.8439 4.1651 15.7959 4.1068C15.7547 4.05878 15.7078 4.00961 15.6655 3.96502C15.6175 3.91358 15.5603 3.83354 15.4997 3.80267C15.4963 3.96617 15.6244 4.13195 15.677 4.27715C15.7216 4.39834 15.749 4.4658 15.8325 4.57327C15.9376 4.70475 16.0371 4.85338 16.1514 4.97C16.2372 5.05689 16.3447 5.06946 16.4373 5.14606C16.5047 5.20209 16.5207 5.2078 16.5299 5.29698C16.5367 5.36215 16.5447 5.40674 16.5367 5.46848C16.5322 5.50278 16.5447 5.50506 16.5322 5.54051C16.515 5.58852 16.4864 5.63311 16.4693 5.68342C16.4544 5.73029 16.4396 5.77717 16.4235 5.8229C16.3915 5.91094 16.3161 5.98411 16.3012 6.07672C16.2932 6.13045 16.2955 6.17847 16.2943 6.22649C16.2761 6.18762 16.2555 6.14875 16.2349 6.12359C16.204 6.08358 16.1503 6.04814 16.1148 6.01269C16.0531 5.95095 15.9971 5.92008 15.9205 5.87664C15.7856 5.79889 15.6141 5.73373 15.5032 5.62511C15.4917 5.61482 15.4849 5.60453 15.4757 5.59538C15.4815 5.60339 15.486 5.61253 15.4917 5.62054C15.5546 5.70171 15.6244 5.80347 15.7147 5.85606C15.7879 5.89836 15.8587 5.95667 15.9205 6.01041C15.9925 6.07214 16.0394 6.16704 16.1137 6.22306C16.1583 6.2585 16.1949 6.29052 16.2395 6.33168C16.2486 6.34082 16.2589 6.34768 16.2692 6.35454C16.2692 6.35454 16.2692 6.35569 16.2681 6.35569C16.1777 6.56148 16.084 6.71011 16.0817 6.93534C16.0806 7.08397 16.132 7.22117 16.0931 7.36523C16.0748 7.43154 16.0634 7.50014 16.0543 7.56874C16.0474 7.62133 16.0417 7.6522 16.0085 7.69679C16.0051 7.70136 16.0005 7.70479 15.9971 7.70936C15.8668 7.6602 15.7318 7.62705 15.5912 7.62247C15.5215 7.62133 15.4712 7.60418 15.4014 7.61104C15.3351 7.6179 15.2722 7.62933 15.2128 7.62362C15.1522 7.61904 15.1065 7.5916 15.0459 7.58017C15.0196 7.5756 14.9887 7.57788 14.9635 7.56988C14.9064 7.55273 14.8766 7.50242 14.8229 7.48184C14.7406 7.44869 14.6857 7.4384 14.6125 7.37552C14.5439 7.31607 14.4433 7.27148 14.369 7.22117C14.2352 7.13085 14.1072 7.03024 13.9574 6.96621C13.85 6.91934 13.7573 6.8576 13.643 6.82787C13.5744 6.81072 13.4932 6.77071 13.4212 6.78786C13.4669 6.71469 13.5378 6.64723 13.579 6.57634C13.6041 6.53404 13.6316 6.49174 13.6556 6.44944C13.6887 6.39341 13.7253 6.3191 13.7413 6.25507C13.7573 6.19105 13.7585 6.12702 13.7871 6.06414C13.8408 5.94066 13.9346 5.79089 13.9528 5.64683C14.0134 5.6011 14.0729 5.57023 14.1438 5.52793C14.2821 5.44561 14.4136 5.42275 14.5725 5.39874C14.6446 5.38845 14.728 5.36787 14.8 5.37358C14.9029 5.38159 14.9475 5.43418 15.0493 5.40445C15.1133 5.38502 15.1568 5.38845 15.2185 5.38387C15.2402 5.38159 15.2619 5.35758 15.2859 5.36444C15.3237 5.37587 15.334 5.43418 15.3534 5.45933C15.3717 5.48334 15.3964 5.49943 15.4181 5.51887C15.4112 5.50744 15.4037 5.4982 15.3957 5.48448C15.3786 5.4559 15.3523 5.43761 15.3363 5.40788C15.3225 5.38159 15.3271 5.345 15.3111 5.3187C15.294 5.29012 15.2528 5.2421 15.2311 5.21809C15.1853 5.16893 15.1042 5.17007 15.0424 5.18265C14.8801 5.21581 14.7143 5.28898 14.5577 5.33928C14.4776 5.36444 14.4067 5.38387 14.3279 5.38845C14.2673 5.39302 14.2513 5.38387 14.1975 5.36787C14.1724 5.35986 14.1255 5.35186 14.0775 5.34614C14.1095 5.27526 14.1346 5.20094 14.1598 5.12777C14.1758 5.08204 14.1929 5.05803 14.1929 5.0123C14.1918 4.96771 14.1735 4.90711 14.1678 4.86024C14.1529 4.73219 14.0923 4.619 14.0786 4.48981C14.0672 4.37547 14.0443 4.24171 14.0695 4.12737C14.09 4.03248 14.1655 3.93759 14.2044 3.84841C14.2364 3.77524 14.2524 3.70092 14.2981 3.63575C14.3439 3.57058 14.401 3.52599 14.4399 3.45282C14.4925 3.34992 14.5382 3.2436 14.5931 3.14184C14.6686 2.99893 14.6594 2.81257 14.712 2.65936C14.7955 2.41584 14.8229 2.16203 14.8549 1.9105C14.8664 1.82018 14.9144 1.74243 14.9452 1.65668C14.9658 1.60066 14.9944 1.53664 15.0013 1.47833C15.007 1.4406 15.0001 1.40173 15.007 1.36171C15.0379 1.19936 15.0493 1.03472 15.0802 0.873517C15.0973 0.786626 15.1007 0.707737 15.095 0.619702C15.0904 0.54653 15.1053 0.466498 15.0996 0.395612C15.063 0.499654 15.0184 0.601409 14.975 0.704306C14.9247 0.824354 14.8675 0.94783 14.8309 1.07131C14.8 1.17421 14.7875 1.27939 14.7532 1.38115C14.7154 1.49776 14.6583 1.60981 14.6377 1.731C14.616 1.85448 14.6068 1.98138 14.5965 2.10486C14.5817 2.27064 14.5622 2.44099 14.5268 2.60334C14.5142 2.66508 14.4925 2.72453 14.4685 2.78399C14.3473 2.824 14.225 2.85716 14.1061 2.9006C13.9757 2.94862 13.8568 3.01493 13.723 3.05609C13.6602 3.07667 13.5961 3.08925 13.5435 3.12698C13.4669 3.18186 13.4189 3.27218 13.332 3.3122C13.3103 3.32249 13.2554 3.33849 13.2314 3.33621C13.2051 3.33392 13.1811 3.30762 13.1605 3.30648C13.0576 3.29733 12.8667 3.39108 12.781 3.44482C12.6037 3.55801 12.4334 3.71693 12.2356 3.78896C12.1178 3.83126 12.0149 3.85069 11.9143 3.93187C11.7828 4.0382 11.6125 4.10222 11.4627 4.19597C11.3724 4.252 11.2935 4.28058 11.1929 4.31373C11.1415 4.32974 11.0706 4.34003 11.0271 4.37204C11.0283 4.38119 11.0294 4.38919 11.0294 4.3972L10.9917 4.4475C11.0271 4.36518 11.0065 4.30688 11.0031 4.21312C11.002 4.15596 10.9814 4.1411 11.0248 4.08622C11.0477 4.05878 11.0774 4.04048 11.098 4.01076C11.1209 3.97532 11.1312 3.93644 11.1563 3.90329C11.2192 3.82326 11.2901 3.74437 11.353 3.66434C11.4581 3.53171 11.5633 3.40252 11.6765 3.27675C11.7108 3.23788 11.7863 3.17043 11.7817 3.10869C11.7108 3.12469 11.6548 3.183 11.5942 3.22073C11.5382 3.25503 11.4867 3.27904 11.441 3.32477C11.3507 3.41509 11.3061 3.54086 11.2203 3.63004C11.1426 3.7135 11.0431 3.77295 10.9722 3.86441C10.9162 3.9353 10.8751 4.04849 10.8099 4.10794C10.6738 4.05763 10.5275 4.0119 10.3823 3.99818C10.2954 3.99018 10.2211 3.9696 10.1468 3.92844C10.0953 3.89986 10.0507 3.88842 9.99929 3.86327C9.90439 3.8164 9.83808 3.74094 9.72718 3.7215C9.61628 3.70092 9.4848 3.64375 9.3739 3.68263C9.50881 3.69749 9.61513 3.72264 9.72146 3.80382C9.84265 3.89414 9.99014 3.93301 10.1022 4.03934C10.1994 4.13195 10.2794 4.27486 10.4155 4.30916C10.4909 4.32745 10.5629 4.29315 10.6327 4.27029C10.659 4.26114 10.7093 4.23256 10.7367 4.23828C10.7642 4.24171 10.8579 4.31145 10.8808 4.3366C10.9391 4.40177 10.8945 4.5241 10.8659 4.611L10.7699 4.73561C10.7962 4.72304 10.8213 4.71275 10.8442 4.70132C10.795 4.94141 10.8236 5.14835 10.8991 5.38273C10.9231 5.45705 10.9482 5.52907 10.9539 5.6011C10.9562 5.64112 10.9642 5.71543 10.9482 5.75545C10.9025 5.86521 10.699 5.84348 10.6018 5.8492C10.5252 5.85263 10.4475 5.8835 10.3697 5.8915C10.3206 5.89608 10.2783 5.92123 10.2302 5.9258C10.1788 5.93266 10.1353 5.92809 10.0839 5.94295C9.97299 5.97611 9.82893 6.01955 9.71117 5.99669C9.65744 5.98525 9.60256 5.9338 9.54425 5.93152C9.46765 5.92809 9.4322 5.97496 9.38076 6.01041C9.32473 6.05042 9.26299 6.08015 9.20926 6.12817C9.17267 6.16132 9.12923 6.1819 9.09379 6.21506C9.05834 6.24707 9.04577 6.29166 9.01947 6.33053C8.99317 6.36712 8.93029 6.43229 8.91086 6.49174C8.90285 6.47916 8.89485 6.46659 8.88456 6.45401C8.85941 6.422 8.82053 6.40599 8.79652 6.37398C8.78052 6.3534 8.78052 6.32139 8.76794 6.29738C8.75194 6.26651 8.7245 6.25279 8.70277 6.22878C8.66847 6.19334 8.65018 6.1396 8.60673 6.1053C8.57129 6.07557 8.52327 6.05728 8.48669 6.03099C8.41695 5.98068 8.38265 5.90865 8.32319 5.85263C8.20658 5.74516 8.11282 5.60796 8.00307 5.49477C7.99964 5.5588 8.00307 5.55423 8.05909 5.59538C8.09453 5.62054 8.13569 5.66284 8.16313 5.69485C8.33348 5.90065 8.41237 6.18076 8.60902 6.36483C8.75651 6.50317 8.89142 6.64151 9.00003 6.81415C9.01947 6.84502 9.03662 6.87703 9.05491 6.90905C9.04577 6.91248 9.03776 6.91705 9.03205 6.91819C8.95773 6.94449 8.88227 6.96621 8.80681 6.99022C8.66847 7.03481 8.55529 7.06797 8.44439 7.16057C8.39408 7.20173 8.35635 7.26004 8.29347 7.28634C8.25917 7.30006 8.22258 7.30006 8.18943 7.31835C8.09225 7.37209 8.0145 7.46813 7.93447 7.54244C7.85215 7.61676 7.76755 7.66249 7.67951 7.72537C7.65321 7.74481 7.60748 7.76996 7.5709 7.7974C7.61206 7.76882 7.66922 7.73909 7.69094 7.7288C7.73896 7.70822 7.79499 7.70593 7.84186 7.68421C7.97791 7.62133 8.06366 7.50471 8.1677 7.40181C8.27289 7.29663 8.46153 7.19373 8.61474 7.18459C8.76337 7.17658 8.89028 7.24289 9.04348 7.20173C9.12008 7.18115 9.15781 7.19144 9.22527 7.17429C9.22527 7.17315 9.22412 7.17201 9.22412 7.17087C9.22527 7.17201 9.22526 7.17315 9.22641 7.17429C9.22641 7.17429 9.22641 7.17429 9.22527 7.17429C9.23213 7.18458 9.24013 7.19259 9.24699 7.19716C9.25728 7.20745 9.26528 7.21888 9.27557 7.22803C9.36704 7.31149 9.42534 7.39495 9.50195 7.49213C9.63 7.65334 9.76948 7.79283 9.92497 7.92659C9.97871 7.97347 9.98328 7.99862 10.0039 8.0615C10.037 8.16669 10.1022 8.26616 10.1571 8.36219C10.1948 8.42965 10.2417 8.45252 10.2222 8.53026C10.2062 8.59086 10.1433 8.66403 10.1125 8.71548C10.0484 8.82523 9.96041 8.91213 9.88724 9.01731C9.87466 9.03675 9.8598 9.06533 9.84608 9.0962C9.81979 9.04361 9.79349 8.99444 9.77291 8.92813C9.7409 8.83209 9.72261 8.68461 9.66315 8.60229C9.646 8.60458 9.62885 8.60686 9.6117 8.60801C9.59913 8.592 9.57397 8.54855 9.5774 8.52683C9.58426 8.4811 9.59455 8.50168 9.62657 8.4811C9.70317 8.43308 9.76262 8.40907 9.8255 8.3359C9.86666 8.28674 9.92497 8.17355 9.93983 8.11067C9.95584 8.04207 9.91468 7.97233 9.86095 7.93117C9.81521 7.94717 9.8095 7.9769 9.79006 8.01348C9.74776 8.09809 9.71003 8.09809 9.63114 8.16669C9.59227 8.20327 9.55797 8.24215 9.52939 8.28559C9.51224 8.29474 9.49623 8.30274 9.48022 8.31075C9.45507 8.33704 9.40705 8.38735 9.40134 8.42622C9.39448 8.47652 9.40705 8.46967 9.44364 8.50396C9.51109 8.56799 9.54425 8.61372 9.57283 8.7029C9.61513 8.83095 9.65629 8.96129 9.79235 9.15679C9.7832 9.15222 9.77291 9.14765 9.76262 9.14193C9.70203 9.10649 9.64486 9.06533 9.58198 9.03446C9.53625 9.01274 9.48708 8.99902 9.43678 8.98758C9.39676 8.967 9.3556 8.94642 9.31216 8.92699C9.10636 8.83209 8.92343 8.71205 8.77937 8.53255C8.78738 8.55427 8.79995 8.57256 8.81367 8.59086C8.77823 8.55656 8.7405 8.53483 8.68448 8.51311C8.64332 8.4971 8.58272 8.49139 8.54728 8.46852C8.51413 8.44794 8.51984 8.41136 8.47182 8.40793C8.4238 8.40335 8.40323 8.45251 8.36092 8.45251C8.31633 8.45251 8.25803 8.39992 8.22373 8.37591C8.13569 8.31532 8.03737 8.26959 7.94819 8.21471C7.84986 8.15297 7.74697 8.10152 7.64064 8.04893C7.6052 8.03063 7.58462 8.01463 7.5526 7.99062C7.49887 7.9506 7.43599 7.92774 7.37082 7.90373C7.27592 7.86943 7.18674 7.82027 7.08613 7.78825C6.9638 7.75052 6.84375 7.70022 6.72142 7.66135C6.68026 7.64763 6.6471 7.63048 6.60823 7.61333C6.50076 7.56416 6.33498 7.52986 6.25037 7.44983C6.19664 7.40067 6.18978 7.38238 6.10975 7.35723C6.04801 7.33665 5.99084 7.3195 5.93368 7.29091C5.83192 7.24061 5.7336 7.19145 5.63756 7.13314C5.51408 7.05653 5.38146 6.99365 5.24998 6.9342C5.12193 6.87475 5.00645 6.78786 4.88412 6.71583C4.76864 6.64723 4.66117 6.5672 4.54456 6.4986C4.47024 6.45401 4.3925 6.41742 4.31704 6.37626C4.1101 6.26079 3.93975 6.10416 3.72366 6.0024C3.59447 5.94181 3.46756 5.86521 3.33379 5.8149C3.26748 5.78975 3.19888 5.78403 3.13257 5.76116C3.05711 5.73487 2.98851 5.68799 2.9142 5.65827C2.86961 5.63997 2.81701 5.62168 2.76328 5.60225C2.78157 5.61254 2.79872 5.62168 2.81816 5.63197C2.86503 5.65712 2.91534 5.696 2.96107 5.72458C3.00566 5.75202 3.00795 5.77946 3.04225 5.81147C3.09141 5.85949 3.22403 5.87778 3.28577 5.89836C3.42183 5.94066 3.53501 6.03785 3.67221 6.08586C4.10095 6.23449 4.46224 6.51575 4.8441 6.75584C4.99845 6.85188 5.18252 6.9422 5.34945 7.02681C5.4592 7.08169 5.55867 7.15486 5.66043 7.22231C5.74389 7.27605 5.82049 7.3275 5.90281 7.3778C5.99427 7.43383 6.1086 7.55044 6.21722 7.55959C6.24694 7.56188 6.27095 7.53787 6.30182 7.54358C6.32126 7.55273 6.33727 7.56531 6.35213 7.58017C6.36813 7.58017 6.38414 7.57903 6.40015 7.57788C6.45731 7.60304 6.50876 7.63848 6.56707 7.66363C6.66768 7.70822 6.76029 7.78711 6.85861 7.84084C6.92378 7.87629 7.01639 7.91745 7.07241 7.96089C7.20618 8.06379 7.36053 8.15297 7.48972 8.26844C7.64407 8.40564 7.82357 8.46509 8.00078 8.5657C8.04766 8.592 8.1094 8.61601 8.1334 8.66746C8.18828 8.65374 8.3129 8.68003 8.36207 8.69147C8.47754 8.71776 8.57472 8.76007 8.6639 8.82752C8.72907 8.87554 8.7828 8.93728 8.85026 8.9853C8.90743 9.02531 8.97031 9.05847 9.02747 9.09391C9.10522 9.13964 9.18411 9.21167 9.24584 9.27341C9.31673 9.34544 9.37047 9.38317 9.45736 9.43462C9.53853 9.48378 9.6117 9.54323 9.68259 9.60497C9.71346 9.67128 9.73747 9.73874 9.77177 9.80619C9.82322 9.9068 9.89982 9.99827 9.93069 10.108C9.95012 10.1766 9.92954 10.2361 9.92611 10.307C9.91925 10.4144 9.9284 10.5013 9.89982 10.6088C9.83236 10.8535 9.6643 11.0398 9.57169 11.2708C9.53968 11.3531 9.51224 11.4617 9.52596 11.5497C9.5351 11.6069 9.57054 11.6595 9.57626 11.719C9.58998 11.847 9.52138 11.9362 9.46193 12.0414C9.44249 12.0757 9.43449 12.1054 9.40134 12.1271C9.35217 12.134 9.30187 12.142 9.25271 12.15C9.14866 12.1683 9.04462 12.182 8.94058 12.1889C8.86627 12.1969 8.82625 12.2186 8.75194 12.2186C8.58616 12.2163 8.41695 12.2094 8.25117 12.2049C8.24545 12.15 8.24545 12.0928 8.23973 12.0539C8.21687 11.8859 8.17228 11.7029 8.12426 11.5383C8.0831 11.4 8.03394 11.2639 7.99049 11.1256C7.95276 11.009 7.92189 10.8946 7.85901 10.7883C7.82014 10.7208 7.79613 10.6077 7.73896 10.5608C7.71267 10.5402 7.68294 10.5562 7.66922 10.5173C7.77441 10.4362 7.91275 10.3916 8.02365 10.3184C8.0831 10.2784 8.14141 10.2452 8.202 10.2086C8.29918 10.1503 8.36778 10.0566 8.44896 9.97883C8.49355 9.93653 8.54157 9.88851 8.59073 9.85078C8.69706 9.76847 8.83425 9.73074 8.93258 9.63584C9.00003 9.56953 9.12122 9.50322 9.16467 9.41747C9.10865 9.34315 8.91771 9.55581 8.88456 9.57524C8.78395 9.6347 8.64904 9.65528 8.53928 9.70673C8.37922 9.78218 8.19057 9.80848 8.04423 9.91252C7.95734 9.9754 7.90017 10.0566 7.81328 10.1183C7.71381 10.1903 7.64521 10.2944 7.53888 10.3596C7.32394 10.4899 7.06212 10.291 6.93293 10.1252C6.86662 10.0394 6.78773 9.96397 6.72027 9.87822C6.65396 9.79362 6.61738 9.72731 6.52706 9.67243C6.47561 9.64156 6.36242 9.58782 6.31326 9.57524C6.36013 9.54209 6.38871 9.46892 6.41044 9.41747C6.44131 9.3443 6.46989 9.2917 6.52134 9.22997C6.59222 9.14765 6.63338 9.02417 6.63567 8.9167C6.63681 8.86182 6.65053 8.80465 6.65053 8.75206C6.65053 8.71662 6.63453 8.68232 6.62881 8.64688C6.61623 8.5657 6.62081 8.4731 6.62767 8.38963C6.63681 8.25015 6.66882 8.0878 6.62538 7.94946C6.65511 8.09123 6.5362 8.22728 6.49619 8.35419C6.46532 8.4548 6.44016 8.56342 6.41387 8.66631C6.38643 8.77264 6.32812 8.87211 6.29954 8.97729C6.28925 9.01845 6.30068 9.06762 6.28582 9.10649C6.26752 9.15336 6.22865 9.19224 6.20807 9.23911C6.16234 9.34544 6.10632 9.52837 6.00113 9.58096C5.91653 9.62326 5.83535 9.6084 5.74617 9.60497C5.61927 9.59926 5.50837 9.63927 5.38946 9.67929C5.28885 9.71359 5.20425 9.69872 5.09677 9.68729C4.91842 9.66785 4.72749 9.60154 4.54913 9.66214C4.44166 9.69872 4.39135 9.70101 4.28617 9.65299C4.21185 9.61983 4.14783 9.59011 4.06551 9.58668C3.9992 9.58325 3.94889 9.60954 3.88258 9.61869C3.80598 9.62898 3.72366 9.6004 3.64591 9.60154C3.53044 9.60268 3.42183 9.58897 3.3075 9.59354C3.2046 9.59811 2.8959 9.59925 2.9302 9.76618C2.95193 9.87594 3.02738 9.77761 3.07197 9.75132C3.18402 9.685 3.34065 9.68386 3.46642 9.68958C3.59104 9.69644 3.72023 9.67471 3.84028 9.69072C3.91688 9.70101 4.02321 9.76961 4.09981 9.74788C4.17298 9.88737 4.3319 9.93424 4.43251 10.044C4.46109 10.0749 4.46338 10.0852 4.48167 10.1286C4.5034 10.1823 4.55256 10.2121 4.58229 10.2578C4.62116 10.3195 4.63945 10.4087 4.66003 10.4785C4.69319 10.5894 4.71262 10.7323 4.70691 10.8477C4.70576 10.8866 4.68518 10.9369 4.68404 10.9827C4.68404 11.0284 4.68518 11.0718 4.68747 11.1164C4.69319 11.2056 4.72749 11.2891 4.75493 11.3748C4.77207 11.4297 4.78579 11.4914 4.80409 11.5509C4.72749 11.5372 4.65317 11.5143 4.58686 11.472C4.57085 11.4811 4.56171 11.4971 4.5537 11.5143C4.49997 11.4663 4.45195 11.4114 4.39593 11.368C4.33876 11.3245 4.23472 11.2925 4.16726 11.2673C4.11239 11.2468 4.05979 11.2193 4.00606 11.1987C3.96718 11.1839 3.92717 11.1839 3.8883 11.1713C3.87115 11.1656 3.85743 11.1427 3.84256 11.1381C3.80712 11.129 3.79226 11.137 3.75796 11.1199C3.72709 11.1061 3.70537 11.0844 3.66992 11.0741C3.59332 11.0524 3.50643 11.0433 3.4264 11.0238C3.32922 10.9998 3.21031 10.9929 3.13143 10.9324C3.0411 10.8615 2.9645 10.7769 2.90734 10.6843C2.8879 10.6522 2.87532 10.6522 2.84903 10.6259C2.80673 10.5836 2.78615 10.5219 2.74613 10.4773C2.66038 10.3824 2.54033 10.299 2.43401 10.2304C2.28652 10.1355 2.14246 10.0131 2.00298 9.90452C1.84291 9.77761 1.67485 9.66214 1.48506 9.57753C1.41074 9.54323 1.32843 9.50093 1.25182 9.47463C1.1878 9.45177 1.10777 9.43233 1.0346 9.41061C0.941987 9.38317 0.827656 9.3523 0.752198 9.28599C0.736191 9.27112 0.729333 9.24483 0.71447 9.23225C0.695033 9.21625 0.668737 9.21853 0.651587 9.20481C0.617288 9.17737 0.592134 9.11906 0.558978 9.08591C0.485806 9.01159 0.427497 8.91441 0.368045 8.82752C0.315453 8.75092 0.245711 8.67889 0.125664 8.57714C0.135954 8.6 0.146244 8.62287 0.156534 8.64459C0.18626 8.68003 0.214842 8.71776 0.241138 8.75549C0.323456 8.88469 0.413778 8.99673 0.49038 9.13393C0.541829 9.22425 0.615001 9.29742 0.692746 9.36831C0.795643 9.4632 0.925981 9.59125 1.05746 9.6427C1.1455 9.67586 1.2038 9.7033 1.28041 9.75589C1.31928 9.78218 1.35701 9.79933 1.4016 9.81648C1.4862 9.84964 1.53537 9.8988 1.60739 9.94911C1.69429 10.0097 1.80404 10.0703 1.90008 10.1172C1.93324 10.132 1.95153 10.1446 1.98126 10.1652C2.04871 10.2098 2.12417 10.2155 2.19163 10.2578C2.23393 10.2841 2.26022 10.3264 2.2991 10.3538C2.3334 10.3767 2.36083 10.3801 2.39399 10.4076C2.46831 10.4727 2.53347 10.5596 2.6055 10.6259C2.63294 10.6511 2.65695 10.674 2.6821 10.706C2.76099 10.8054 2.86275 10.8992 2.96222 10.9769C3.15429 11.1244 3.33493 11.3005 3.56131 11.3943C3.6745 11.4411 3.77854 11.4869 3.89973 11.5029C3.9992 11.5166 4.10209 11.5097 4.20042 11.5349C4.30103 11.56 4.40164 11.5783 4.50111 11.608C4.47367 11.6504 4.44394 11.6927 4.41079 11.7281C4.33304 11.8116 4.24044 11.8824 4.16269 11.9682C4.07237 12.0699 4.00377 12.1934 3.93974 12.3123C3.87229 12.4347 3.79683 12.5444 3.71451 12.6565C3.67107 12.7136 3.63334 12.7754 3.58532 12.8291C3.53158 12.8874 3.46641 12.9343 3.41611 12.9949C3.37038 13.0486 3.34294 13.1115 3.3075 13.171C3.22518 13.3059 3.12228 13.4259 3.02738 13.5517C2.75299 13.913 2.47517 14.2754 2.25451 14.6721C2.51747 14.3417 2.79072 14.0216 3.03539 13.6763C3.13142 13.5402 3.18516 13.3836 3.28577 13.251C3.38753 13.1161 3.50529 12.9949 3.62191 12.8737C3.83227 12.6565 4.05065 12.4369 4.24387 12.2049C4.34105 12.0882 4.43937 11.9728 4.54113 11.863C4.57771 11.8241 4.60058 11.8127 4.65431 11.7956C4.70233 11.7818 4.75035 11.767 4.79837 11.7521C4.83724 11.743 4.86811 11.7224 4.89326 11.6938C4.92756 11.6847 5.0076 11.6847 5.04304 11.6949C5.09334 11.7098 5.11049 11.7327 5.15165 11.7704C5.24884 11.8607 5.31858 11.9682 5.45234 12.0082C5.60326 12.0539 5.76561 12.0757 5.92224 12.094C6.13947 12.1203 6.36013 12.1683 6.57965 12.1774C6.56135 12.246 6.58651 12.2906 6.59794 12.3569C6.60937 12.4335 6.58651 12.4964 6.54763 12.5593C6.50533 12.6279 6.48818 12.6828 6.40701 12.6953C6.31783 12.7102 6.25037 12.6896 6.16577 12.6668C6.06059 12.637 5.9977 12.6519 5.91881 12.5707C5.84679 12.4964 5.83878 12.4861 5.7416 12.4964C5.64213 12.5078 5.53238 12.4712 5.43291 12.4575C5.32201 12.4427 5.1871 12.3946 5.07505 12.4084C5.28085 12.4758 5.46949 12.5604 5.66386 12.6507C5.75646 12.6931 5.84793 12.7193 5.9474 12.7434C6.01485 12.7639 6.08345 12.7834 6.15319 12.8005C6.15777 12.8005 6.16348 12.8017 6.1692 12.8017C6.15205 12.8085 6.13719 12.8154 6.12575 12.8222C6.08574 12.8451 6.032 12.9057 6.00799 12.9469C5.98856 12.9789 5.98055 13.0143 5.95883 13.0463C5.93939 13.0761 5.9211 13.0806 5.90967 13.1149C5.89595 13.1561 5.90281 13.1641 5.87651 13.1984C5.84907 13.235 5.7839 13.2544 5.74732 13.2864C5.68901 13.3402 5.65014 13.3527 5.57582 13.3802C5.51294 13.403 5.47864 13.4339 5.42605 13.4705C5.37917 13.5037 5.33115 13.5185 5.28199 13.5482C5.16537 13.6157 5.04304 13.698 4.94128 13.7689C4.89098 13.8032 4.82695 13.8306 4.79037 13.8752C4.77551 13.8947 4.76521 13.9313 4.75035 13.953C4.72291 13.9919 4.67947 14.017 4.84182 13.9358C4.94814 13.913 4.97901 13.8226 5.06819 13.7723C5.13565 13.7335 5.23397 13.7152 5.30371 13.6866C5.42833 13.6351 5.57011 13.57 5.68558 13.4957C5.75189 13.4545 5.80563 13.3985 5.86965 13.3516C5.97141 13.2761 6.09717 13.2418 6.17377 13.1344C6.21607 13.0749 6.22179 13.028 6.22636 12.9572C6.22636 12.9446 6.22979 12.892 6.23208 12.884C6.24008 12.8611 6.27324 12.8428 6.26981 12.82C6.26867 12.8142 6.26409 12.8131 6.26066 12.8085C6.28239 12.8108 6.30411 12.812 6.32469 12.8142C6.44588 12.8348 6.55564 12.8714 6.6814 12.8714C6.70084 12.82 6.66425 12.7731 6.65739 12.7228C6.64939 12.6622 6.67111 12.5947 6.6894 12.5364C6.7237 12.4232 6.75343 12.3329 6.81746 12.2334C6.85176 12.1774 6.82889 12.1694 6.90206 12.1717C7.00038 12.174 7.10557 12.1866 7.20618 12.1889C7.34909 12.1923 7.48515 12.2174 7.62349 12.1854C7.70123 12.2769 7.67265 12.4232 7.70581 12.5284C7.7241 12.5902 7.74011 12.605 7.7241 12.6679C7.70352 12.7514 7.60405 12.8485 7.5366 12.8988C7.48057 12.9389 7.40512 12.9663 7.33537 12.956C7.24734 12.9434 7.1776 12.884 7.08385 12.8908C7.07699 12.9297 7.16502 13.02 7.1936 13.0475C7.25191 13.1035 7.29422 13.1115 7.37768 13.1401C7.44742 13.1641 7.48743 13.187 7.55946 13.1835C7.65207 13.1801 7.74354 13.163 7.83614 13.1801C7.99392 13.211 8.12998 13.3116 8.28775 13.339C8.39408 13.3585 8.50841 13.3962 8.61702 13.3916C8.69134 13.3882 8.78395 13.3585 8.84454 13.4202C8.81825 13.4682 8.8091 13.4796 8.79652 13.538C8.75765 13.7095 8.6982 13.889 8.67648 14.0639C8.66733 14.1439 8.6982 14.1519 8.72221 14.2217C8.74279 14.2857 8.73707 14.3554 8.72793 14.4229C8.70277 14.6218 8.46496 14.6538 8.30604 14.7064C8.1517 14.7579 8.01679 14.7167 7.85558 14.7144C7.75383 14.7133 7.66122 14.6938 7.55946 14.6744C7.3228 14.6275 7.09414 14.6641 6.8529 14.6584C6.67569 14.6538 6.51448 14.655 6.34527 14.5944C6.32012 14.5852 6.27095 14.5669 6.2195 14.5521C6.23094 14.5223 6.24123 14.4926 6.25495 14.4629C6.28353 14.3977 6.30754 14.328 6.32469 14.2594C6.33612 14.2125 6.33498 14.1633 6.34184 14.1176C6.3487 14.0685 6.34527 14.0067 6.35442 13.961C6.36814 13.9004 6.37728 13.8878 6.36928 13.8284C6.3647 13.7872 6.36585 13.7723 6.37156 13.7323C6.38414 13.7129 6.391 13.7026 6.39672 13.6957C6.36013 13.7243 6.35213 13.7586 6.32469 13.7929C6.31211 13.8101 6.29153 13.8238 6.27896 13.8432C6.24123 13.9027 6.2378 13.969 6.22979 14.033C6.21264 14.1611 6.15777 14.296 6.09374 14.4149C6.00228 14.5818 5.87308 14.7533 5.80677 14.9328C5.79419 14.9659 5.79305 15.0048 5.77819 15.0403C5.76447 15.0734 5.74274 15.0951 5.72788 15.1306C5.70845 15.1763 5.69816 15.2392 5.68787 15.2849C5.68101 15.3101 5.66157 15.3158 5.673 15.3524C5.58611 15.3878 5.52094 15.4999 5.46149 15.5696C5.34259 15.7091 5.26713 15.8886 5.14594 16.0224C4.94814 16.2419 4.5457 16.1653 4.33647 16.3688C4.43937 16.3757 4.53427 16.3288 4.6303 16.2979C4.67832 16.283 4.74807 16.2785 4.76864 16.2282C4.7172 16.2682 4.68747 16.4111 4.66803 16.4763C4.64174 16.5677 4.62001 16.6695 4.60744 16.7598C4.59829 16.8284 4.56742 16.8833 4.55713 16.9519C4.54913 17.0125 4.50111 17.1028 4.51026 17.1622C4.55942 17.1268 4.56971 17.0479 4.58572 16.9896C4.61316 16.8924 4.66689 16.785 4.72406 16.7038C4.76178 16.6478 4.80294 16.5712 4.84982 16.522C4.86811 16.5037 4.89898 16.4831 4.9207 16.4683C4.939 16.458 4.95729 16.4477 4.97673 16.4362C4.98473 16.4225 4.99045 16.4088 4.99273 16.3928C5.0236 16.3585 5.05219 16.3185 5.08305 16.2819C5.13565 16.219 5.2031 16.1767 5.25226 16.1081C5.28885 16.0532 5.31629 15.9892 5.36431 15.9446C5.42719 15.8863 5.47635 15.876 5.51065 15.7983C5.60669 15.8051 5.69816 15.828 5.80105 15.828C5.93368 15.8269 6.00342 15.8875 6.10975 15.9515C6.16348 15.9835 6.20807 16.0247 6.26295 16.0544C6.30068 16.0761 6.31669 16.1024 6.34756 16.1241C6.38528 16.1493 6.43216 16.1527 6.47103 16.1756C6.54535 16.2167 6.60709 16.2785 6.68826 16.3105C6.78659 16.3482 6.87805 16.426 6.96494 16.4946C7.00496 16.5254 7.05069 16.5414 7.09299 16.5769C7.13072 16.61 7.15931 16.6546 7.19818 16.6878C7.25306 16.7347 7.31251 16.7724 7.36396 16.8261C7.38682 16.8513 7.40969 16.8787 7.43827 16.9004C7.4074 16.9107 7.37653 16.9233 7.34681 16.9393C7.23133 17.0022 7.11586 17.0811 7.01639 17.1668C6.87805 17.2869 6.74543 17.4138 6.61623 17.5441C6.60366 17.5475 6.58994 17.5521 6.57622 17.5555C6.50876 17.5761 6.49161 17.5738 6.50762 17.6402C6.48018 17.6653 6.45616 17.694 6.43101 17.7225C6.4573 17.6985 6.48361 17.6722 6.50991 17.6482C6.52363 17.6985 6.54077 17.7522 6.55907 17.8002C6.57622 17.8448 6.60023 17.8551 6.62195 17.8905C6.67111 17.9717 6.66997 18.0792 6.72256 18.1604C6.76372 18.2232 6.77744 18.2976 6.82317 18.3593C6.85633 18.405 6.90206 18.4382 6.93179 18.4862C6.95237 18.5205 6.9638 18.5559 6.98895 18.588C7.04726 18.6634 7.1433 18.7103 7.21418 18.7709C7.2622 18.8132 7.30336 18.8589 7.35595 18.8989C7.46228 18.9778 7.57433 19.0784 7.64064 19.1951C7.70809 19.3151 7.80184 19.4271 7.87845 19.5449C7.91961 19.6066 7.96762 19.6604 8.01107 19.7187C8.04423 19.7621 8.07853 19.7896 8.11511 19.8227C8.04994 19.8227 7.97106 19.817 7.92075 19.8387C7.95962 19.8696 8.02365 19.8902 8.07052 19.8833C8.09568 19.8799 8.11854 19.8616 8.14369 19.857C8.18257 19.8502 8.24202 19.8605 8.28203 19.8547C8.45925 19.8284 8.62846 19.769 8.79881 19.7118C8.85483 19.6935 8.87884 19.6661 8.92915 19.6375C9.01261 19.5883 9.13151 19.5735 9.22527 19.5438C9.43792 19.4763 9.65629 19.41 9.85523 19.3105C9.9627 19.2568 10.0519 19.171 10.1479 19.0956C10.2668 19.0018 10.3812 18.9058 10.4818 18.796C10.5481 18.7252 10.6075 18.6485 10.6681 18.5731C10.6418 18.676 10.6144 18.7789 10.5744 18.8772C10.4806 19.1093 10.3777 19.3437 10.2474 19.5563C10.0656 19.857 9.96499 20.2012 9.7912 20.5064C9.74433 20.5876 9.68145 20.6528 9.63457 20.7362C9.56483 20.8574 9.4928 20.9786 9.42649 21.1021C9.37504 21.197 9.3476 21.2965 9.28472 21.3868C9.25499 21.4302 9.22984 21.4931 9.19897 21.5285C9.1761 21.5548 9.1338 21.5697 9.10636 21.5891C9.06978 21.6132 9.02176 21.6646 8.9806 21.6886C8.89485 21.7401 8.80224 21.7904 8.71306 21.8361C8.50727 21.9413 8.31748 22.075 8.11854 22.194C7.99278 22.2694 7.86587 22.3426 7.74239 22.4215C7.73782 22.3666 7.73896 22.3117 7.73325 22.2534C7.7241 22.1757 7.69209 22.0911 7.68523 22.0145C7.67379 21.8887 7.71152 21.7732 7.73896 21.6509C7.75383 21.5846 7.77555 21.5308 7.79956 21.468C7.82014 21.4131 7.81099 21.3456 7.83843 21.2953C7.65893 21.4497 7.59148 21.5823 7.55832 21.7355C7.53545 21.8361 7.51945 21.9584 7.54231 22.0602C7.55718 22.1288 7.56518 22.2031 7.5709 22.2728C7.58233 22.4066 7.59376 22.5369 7.5709 22.6707C7.5446 22.8182 7.54231 22.9966 7.56975 23.1429C7.59148 23.2618 7.61206 23.3693 7.64864 23.487C7.67722 23.5785 7.7241 23.6505 7.76526 23.7328C7.82014 23.6871 7.77555 23.5991 7.7847 23.5385C7.79156 23.4939 7.80299 23.4905 7.79956 23.439C7.79613 23.3876 7.80528 23.3315 7.79956 23.2824C7.79384 23.2321 7.77326 23.1863 7.7664 23.1349C7.75383 23.0423 7.74239 22.9394 7.75268 22.8422C7.76297 22.7439 7.78927 22.633 7.76069 22.5358C7.75954 22.5312 7.75954 22.5289 7.7584 22.5255C7.80528 22.4992 7.85444 22.4489 7.90474 22.4226C8.02936 22.3563 8.15856 22.2957 8.29004 22.242C8.41352 22.1905 8.54157 22.1494 8.65132 22.0705C8.69134 22.0419 8.72564 22.011 8.76908 21.9882C8.89142 21.9196 9.01375 21.8727 9.15209 21.8304C9.32245 21.7789 9.46536 21.708 9.54539 21.5446C9.54654 21.5411 9.54768 21.5388 9.54882 21.5354C9.61399 21.6852 9.70546 21.8304 9.77634 21.9699C9.8175 22.051 9.87238 22.1196 9.93412 22.1871C10.0324 22.2957 10.1056 22.4398 10.1925 22.5644C10.252 22.6478 10.3148 22.7267 10.3754 22.8091C10.3663 22.7999 10.3571 22.7919 10.348 22.7839C10.3354 22.7736 10.324 22.7645 10.3114 22.7553L10.4086 22.8536C10.4166 22.8662 10.4269 22.8765 10.4349 22.8891C10.4566 22.9222 10.4772 22.952 10.5092 22.9748C10.5126 22.9783 10.5172 22.9794 10.5218 22.9817C10.5972 23.0903 10.6704 23.2161 10.7219 23.3338C10.811 23.5408 11.034 23.702 11.1815 23.8678C11.2078 23.8975 11.2169 23.9284 11.2421 23.9592C11.2649 23.9878 11.2604 24.0095 11.3084 23.9958C11.3381 23.9889 11.3804 23.9226 11.4044 23.9043C11.457 23.8655 11.5176 23.8552 11.5736 23.8289C11.7223 23.7603 11.8617 23.7031 12.0184 23.6528C12.1247 23.6185 12.2184 23.5876 12.3179 23.5339C12.4391 23.4687 12.5466 23.3921 12.6769 23.3464C12.7249 23.3293 12.765 23.2938 12.8095 23.2721C12.5889 23.3418 12.3694 23.4127 12.1487 23.4836C12.0755 23.4356 12.0081 23.3761 11.928 23.3361C11.8149 23.2801 11.6868 23.2721 11.5691 23.2367C11.497 23.2149 11.4387 23.2001 11.3735 23.1681C11.3335 23.1486 11.2809 23.1212 11.2363 23.1132C11.178 23.1029 11.1197 23.1223 11.0603 23.1075C11.01 23.0937 10.9574 23.0789 10.9071 23.064C10.8065 23.0343 10.6727 23.0046 10.5789 22.9611C10.5401 22.9417 10.5058 22.9165 10.4726 22.8914C10.4658 22.8822 10.4578 22.8742 10.452 22.8651C10.4246 22.8216 10.4189 22.7702 10.3937 22.7244C10.3526 22.6501 10.3297 22.5701 10.2897 22.4969C10.1959 22.3266 10.101 22.1585 9.99814 21.995C9.93297 21.8898 9.89982 21.7721 9.83122 21.668C9.78434 21.5994 9.74433 21.532 9.70203 21.4634C9.66658 21.4051 9.64372 21.3456 9.62199 21.2839C9.63686 21.2576 9.65172 21.2313 9.6643 21.2096C9.77863 20.9878 9.87924 20.7591 9.99128 20.535C10.0747 20.3704 10.1845 20.2195 10.3 20.0765C10.3377 20.096 10.3674 20.1234 10.3983 20.1554C10.4623 20.2252 10.4966 20.3109 10.5515 20.3875C10.5732 20.4172 10.595 20.4241 10.6041 20.471C10.6132 20.5167 10.6064 20.5625 10.6064 20.6082C10.6064 20.7168 10.619 20.7237 10.7104 20.7237C10.8705 20.7237 11.0123 20.6825 11.1689 20.6745C11.3747 20.6631 11.5645 20.5796 11.7588 20.5167C11.9463 20.4573 12.1338 20.3967 12.3213 20.3372C12.3797 20.3178 12.454 20.3086 12.5066 20.2789C12.5409 20.2595 12.5443 20.24 12.5763 20.2217C12.6826 20.1634 12.8301 20.1417 12.9467 20.104C13.0508 20.0708 13.1548 20.0377 13.2577 20.0045C13.2589 20.0045 13.2589 20.0045 13.2589 20.0045C13.2611 20.0079 13.2634 20.0125 13.2657 20.0148C13.2669 20.0102 13.2669 20.0057 13.268 20.0011C13.3412 19.9771 13.4155 19.9485 13.4898 19.9291C13.6579 19.8856 13.7722 20.0057 13.9334 20.0022C13.9551 20.0125 13.9757 20.0091 13.9929 19.9931C14.01 19.9862 14.0226 19.9919 14.0306 20.0102C14.1312 20.0285 14.217 20.0594 14.3256 20.0605C14.4548 20.0617 14.5702 20.0823 14.696 20.104C14.76 20.1143 14.8229 20.1211 14.8869 20.1234C14.9292 20.1291 14.9693 20.1246 15.0093 20.112C15.1007 20.1211 15.1888 20.176 15.2882 20.1783C15.3991 20.1806 15.5135 20.1611 15.6244 20.1554C15.6987 20.152 15.8039 20.1531 15.8759 20.1989C15.8839 20.2755 15.8942 20.3532 15.9125 20.4287C15.9342 20.5201 15.9365 20.6036 15.9674 20.6951C16.0165 20.8414 16.0268 21.0026 16.0451 21.1558C16.0543 21.2404 16.0337 21.325 16.0405 21.4096C16.0474 21.4954 16.0908 21.5823 16.1171 21.6646C16.1491 21.7629 16.1743 21.9859 16.2623 22.0408C16.2532 21.6589 16.2235 21.285 16.2475 20.9043C16.2566 20.7682 16.2406 20.631 16.252 20.4973C16.2635 20.3647 16.2692 20.2412 16.2486 20.1097C16.2338 20.0114 16.2189 19.9199 16.2097 19.8216C16.2029 19.7564 16.1903 19.7015 16.1697 19.6409C16.1149 19.4763 16.0851 19.3265 16.0703 19.1539C16.06 19.0236 16.044 18.8829 16.0154 18.756C15.9982 18.6817 15.9536 18.5548 16.0291 18.5079C16.1377 18.4405 16.2829 18.5251 16.3927 18.5457C16.539 18.5742 16.6888 18.5537 16.8351 18.5331C16.9186 18.5216 16.9472 18.5114 17.0158 18.5479C17.0638 18.5742 17.0901 18.5948 17.1438 18.6074C17.3336 18.6508 17.5188 18.6566 17.7143 18.644C17.8504 18.636 17.9293 18.5845 18.0516 18.5662C18.1122 18.6703 18.1557 18.7812 18.2231 18.8818C18.3031 19.0007 18.3329 19.1287 18.3763 19.2659C18.4403 19.4637 18.5044 19.6615 18.5672 19.8593C18.6804 20.2126 18.7822 20.5693 18.9342 20.9077C19.0177 21.0918 19.1275 21.2244 19.2841 21.3525C19.3401 21.3982 19.4122 21.4348 19.4556 21.4897C19.5459 21.6006 19.5722 21.7664 19.6614 21.8818C19.7666 22.0179 19.8866 22.1436 20.0112 22.2637C19.9609 22.2077 19.9529 22.1448 19.9186 22.0831C19.8843 22.0236 19.8523 21.9847 19.8317 21.915C19.8043 21.8235 19.762 21.7549 19.7071 21.676C19.6648 21.6143 19.634 21.5434 19.5939 21.4851C19.5436 21.4131 19.4739 21.3388 19.4179 21.2713C19.3378 21.1753 19.3035 21.1021 19.2532 20.9809C19.2006 20.8563 19.1641 20.7248 19.1218 20.5968C19.0612 20.4058 18.9994 20.2149 18.9388 20.024C18.8897 19.8719 18.8576 19.7015 18.7845 19.5598C18.7422 19.4775 18.6759 19.4111 18.6278 19.3334C18.5878 19.2659 18.557 19.1802 18.5249 19.1093C18.4186 18.8738 18.3569 18.6257 18.3786 18.3684C18.3466 18.3844 18.3111 18.3867 18.2723 18.373C18.222 18.3673 18.1717 18.3604 18.1214 18.3547C18.2506 18.269 18.3809 18.1821 18.4929 18.086C18.5512 18.0369 18.597 17.9751 18.645 17.918C18.7422 17.7979 18.8828 17.6882 18.9948 17.5784C19.1469 17.4298 19.3013 17.2823 19.4579 17.136C19.5676 17.0331 19.6637 16.921 19.7734 16.8193C19.8809 16.7198 19.9472 16.5792 20.0124 16.4511C20.0467 16.3837 20.0856 16.3219 20.1221 16.2567C20.153 16.2019 20.1564 16.1378 20.1873 16.083C20.2388 15.9915 20.2891 15.9 20.344 15.8074C20.4137 15.6885 20.4343 15.5445 20.5006 15.4267C20.5497 15.3398 20.6789 15.3455 20.7635 15.3398C20.9545 15.3261 21.1614 15.3592 21.3489 15.3089C21.5044 15.2666 21.6565 15.2289 21.8211 15.2209C21.8828 15.2175 21.9846 15.1855 22.0361 15.214C22.0601 15.2266 22.0886 15.2655 22.1127 15.2838C22.1538 15.3158 22.1835 15.3421 22.2201 15.3798C22.2498 15.4107 22.2922 15.437 22.3184 15.4724C22.339 15.501 22.3425 15.5399 22.3607 15.5696C22.3905 15.6165 22.4465 15.6474 22.4785 15.6908C22.514 15.7388 22.5288 15.7857 22.5677 15.8326C22.6008 15.8737 22.6374 15.9115 22.6706 15.9526C22.7323 16.0281 22.8009 16.1115 22.8707 16.179C23.0719 16.3734 23.3554 16.4705 23.5647 16.6638C23.6561 16.7495 23.7144 16.8536 23.8002 16.9416C23.823 16.9645 23.8962 17.0319 23.9328 17.0262C23.9419 16.9759 23.8596 16.9336 23.8276 16.9004C23.7293 16.7987 23.6527 16.6866 23.5772 16.5677C23.4835 16.4202 23.3863 16.2728 23.2845 16.131C23.2182 16.0395 23.1165 15.9023 23.025 15.8372C22.8787 15.732 22.746 15.6028 22.6214 15.477C22.5826 15.437 22.5608 15.3924 22.5391 15.3421C22.5048 15.2609 22.4648 15.2152 22.3996 15.1569C22.3379 15.102 22.2075 15.0506 22.1664 14.9831C22.1538 14.9637 22.1435 14.9191 22.1389 14.8939C22.1298 14.8436 22.1435 14.8482 22.1515 14.8036C22.1618 14.7556 22.1515 14.711 22.1641 14.6595C22.1893 14.5646 22.2407 14.4743 22.2853 14.3874C22.3768 14.2114 22.4774 14.033 22.5837 13.8638C22.6614 13.7426 22.7438 13.6386 22.8375 13.5311C22.9084 13.4488 22.9587 13.355 23.025 13.2693C23.0822 13.1961 23.1176 13.1104 23.1736 13.0372C23.1977 13.0052 23.2228 12.9892 23.24 12.948C23.2731 12.8657 23.328 12.8074 23.3772 12.7285C23.4903 12.549 23.6515 12.3912 23.7819 12.222C23.8356 12.1511 23.9008 12.0894 23.9534 12.0185C23.99 11.9705 24.0197 11.9213 24.0517 11.8722C24.0105 11.9179 23.9591 11.9682 23.9431 11.9819Z"/>
  <path d="M24.0523 11.8711C24.0843 11.8356 24.1106 11.8036 24.1071 11.7933C24.0866 11.8185 24.0694 11.8448 24.0523 11.8711Z"/>
  <path d="M7.52321 7.84201C7.53121 7.82715 7.5495 7.81114 7.57123 7.79628C7.54722 7.81343 7.52664 7.82943 7.52321 7.84201Z"/>
  <path d="M2.59657 5.5245C2.56913 5.50735 2.54398 5.48906 2.52569 5.46848C2.53941 5.49821 2.56685 5.51307 2.59657 5.5245Z"/>
  <path d="M2.59657 5.5245C2.64574 5.55537 2.70383 5.57938 2.76328 5.60225C2.73927 5.58738 2.71433 5.57368 2.68575 5.55767C2.6606 5.54395 2.62744 5.53594 2.59657 5.5245Z"/>
  <path d="M0 8.47434C0.048019 8.51207 0.0879345 8.54512 0.125664 8.57714C0.122234 8.57028 0.118904 8.56238 0.115474 8.55552C0.0903215 8.52122 0.0434458 8.47205 0 8.47434Z"/>
  <path d="M10.1751 22.6182L10.2368 22.6799C10.2197 22.6559 10.206 22.6319 10.1751 22.6182Z"/>
  <path d="M10.26 22.7108C10.276 22.729 10.2931 22.7416 10.3114 22.7553L10.236 22.6787C10.2429 22.6902 10.2509 22.7005 10.26 22.7108Z"/>
  <path d="M17.5358 9.15791C17.5084 9.21279 17.4867 9.26995 17.4741 9.33169C17.4764 9.32483 17.4787 9.31683 17.4833 9.30997C17.5061 9.2631 17.5221 9.2105 17.5358 9.15791Z"/>
  <path d="M17.84 8.3474C17.8754 8.17133 17.7874 8.05357 17.7622 7.88664C17.7542 7.98726 17.7211 8.08444 17.6971 8.18276C17.6776 8.26737 17.6616 8.35311 17.6411 8.43886C17.6205 8.5269 17.5759 8.62179 17.5645 8.71211C17.5519 8.81387 17.5885 8.91334 17.5667 9.02309C17.5576 9.06654 17.5473 9.11341 17.5359 9.15915C17.5839 9.06197 17.6433 8.97165 17.6948 8.87332C17.7783 8.7144 17.8046 8.52347 17.84 8.3474Z"/>
  <path d="M15.1855 5.72205e-05C15.1455 0.138398 15.0861 0.250442 15.0998 0.391069V0.394499C15.1009 0.392212 15.1009 0.389926 15.1021 0.388782C15.1478 0.259588 15.1444 0.123535 15.1855 5.72205e-05Z"/>
  <path d="M10.7374 4.77798L10.7699 4.73561C10.7596 4.74019 10.75 4.74483 10.7397 4.75054C10.7385 4.75969 10.7385 4.76884 10.7374 4.77798Z"/>
</svg>
