<svg width="29" height="24" viewBox="0 0 29 24" fill="#000000" xmlns="http://www.w3.org/2000/svg">
  <path d="M5.6916 3.2192C5.71433 3.25531 5.84271 3.33554 5.8534 3.3449C5.96574 3.43584 6.04865 3.55486 6.15429 3.65381C6.21982 3.71399 6.27197 3.72602 6.29336 3.81428C6.31209 3.88783 6.32412 3.944 6.35354 4.01621C6.40035 4.12988 6.44314 4.24756 6.50465 4.36256C6.58489 4.511 6.67315 4.63269 6.82158 4.7049C7.03421 4.81055 7.26556 4.91753 7.50225 4.96701C7.54772 4.9777 7.62394 4.97102 7.66941 4.9884C7.7122 5.00579 7.69615 5.01515 7.73493 5.04189C7.79779 5.0887 7.9061 5.13015 7.96762 5.15155C8.03849 5.17562 8.09065 5.17696 8.16821 5.17027C8.31397 5.15823 8.38484 5.2037 8.52526 5.24114C8.62555 5.26789 8.72317 5.27725 8.82079 5.23713C8.91173 5.19969 8.98126 5.18632 9.0829 5.16091C9.23267 5.12347 9.31157 5.04457 9.42657 4.95898C9.54826 4.86938 9.65123 4.77711 9.74618 4.65943C9.82374 4.56449 9.85182 4.56716 9.96549 4.51234C10.0283 4.48158 10.0885 4.42408 10.1634 4.42809C10.1768 4.35053 10.2517 4.35588 10.2797 4.28634C10.3025 4.23017 10.2985 4.14191 10.3078 4.07906C10.3172 4.01086 10.3239 3.94132 10.3372 3.87312C10.3546 3.7862 10.4108 3.76347 10.4456 3.69661C10.4616 3.66451 10.4523 3.63242 10.471 3.59898C10.4897 3.56422 10.5392 3.53881 10.5632 3.50671C10.6127 3.44386 10.6248 3.38636 10.6341 3.30746C10.6421 3.22856 10.6381 3.17106 10.6181 3.09484C10.6047 3.04536 10.6181 2.89024 10.5766 2.86616C10.4603 2.91564 10.4068 3.06408 10.3306 3.15769C10.2945 3.20182 10.2704 3.21653 10.2222 3.24461C10.146 3.28874 10.1353 3.31014 10.0872 3.38235C10.0364 3.45857 9.96816 3.50538 9.90264 3.57224C9.84915 3.62707 9.80368 3.70329 9.73013 3.73271C9.66996 3.75678 9.6071 3.7501 9.5496 3.78085C9.5135 3.79957 9.46803 3.83969 9.43326 3.86376C9.36907 3.9119 9.31558 3.97208 9.24069 4.00418C9.05481 4.08307 8.84219 3.94801 8.65765 3.91458C8.54264 3.89318 8.39822 3.86109 8.28188 3.87045C8.22972 3.87446 8.20164 3.90121 8.13076 3.8865C7.94488 3.84638 7.67877 3.72068 7.54237 3.58829C7.44475 3.49334 7.37922 3.32752 7.27492 3.24461C7.24817 3.22321 7.2027 3.22321 7.16927 3.19379C7.11979 3.14966 7.12915 3.14699 7.11177 3.07611C7.07031 2.90762 6.84833 2.84611 6.84699 2.69767C6.84565 2.57732 6.88845 2.4369 6.90717 2.31655C6.92589 2.1962 6.91787 2.12933 6.86839 2.017C6.83897 1.95148 6.78815 1.89799 6.77745 1.82444C6.76542 1.73484 6.79885 1.63989 6.81089 1.5503C6.82693 1.43529 6.86839 1.31895 6.91252 1.21331C6.96467 1.08894 6.99944 1.10766 7.09706 1.0515C7.18532 1.00202 7.21206 0.883003 7.25887 0.805441C7.31637 0.709158 7.37922 0.606189 7.45545 0.525954C7.54237 0.43502 7.63731 0.394902 7.6761 0.274548C7.70418 0.186289 7.78976 0.00174602 7.88337 0.0097696C7.73627 -0.0423837 7.62929 0.132798 7.48754 0.119425C7.39794 0.111402 7.3137 0.119425 7.22143 0.118088C7.15323 0.116751 7.07566 0.0833192 7.0088 0.0913428C6.89112 0.106053 6.77077 0.23443 6.736 0.342748C6.71193 0.422984 6.72396 0.439031 6.67047 0.50322C6.56884 0.624911 6.43511 0.729217 6.30941 0.826838C6.19173 0.919109 6.10214 1.02475 6.02859 1.14377C5.98579 1.21464 5.95504 1.28151 5.92161 1.36977C5.88416 1.4714 5.84137 1.51018 5.78253 1.58908C5.68224 1.7228 5.70631 1.94345 5.70898 2.09858C5.71032 2.25102 5.67154 2.41016 5.6488 2.56127C5.6234 2.72843 5.57525 2.88087 5.62874 3.04268C5.6488 3.09885 5.6595 3.16839 5.6916 3.2192Z"/>
  <path d="M19.436 16.5677C19.4012 16.8472 19.3852 17.1227 19.345 17.4035C19.3196 17.588 19.2661 17.7632 19.2193 17.9424C19.1311 18.2781 19.1164 18.6685 19.0789 19.0136C19.0268 19.4936 18.9826 19.9737 18.9332 20.4538C18.9198 20.5741 18.9171 20.6945 18.9158 20.8135C18.8636 20.7199 18.8168 20.625 18.7847 20.5247C18.6671 20.1689 18.5734 19.8092 18.4812 19.4468C18.4023 19.1419 18.322 18.837 18.2391 18.5335C18.2017 18.3757 18.1656 18.2165 18.1295 18.0587C18.1148 17.917 18.1148 17.7846 18.0827 17.6442C18.0332 17.4235 17.9436 17.2096 17.9061 16.9836C17.87 16.7723 17.8032 16.664 17.6815 16.4821C17.5237 16.2454 17.3753 16.0034 17.2094 15.772C17.0597 15.5634 16.9299 15.4096 16.827 15.1689C16.708 14.8908 16.6585 14.6554 16.6652 14.3612C16.6665 14.2623 16.6571 14.0282 16.7494 13.9707C16.6103 13.825 16.4619 13.6739 16.3202 13.5161C16.4913 13.4158 16.6598 13.3128 16.819 13.1951C16.8457 13.1764 17.0222 13.0132 17.0811 12.9945C17.18 12.9611 17.3271 12.9932 17.4287 12.9945C17.6922 12.9945 17.957 12.9945 18.2204 12.9932C18.6202 12.9932 19.0161 13.036 19.4146 13.036C19.5069 13.6792 19.4574 14.3692 19.4574 15.0138C19.4574 15.5273 19.4988 16.0582 19.436 16.5677ZM28.6805 13.4372C28.7621 12.8127 28.873 12.1962 28.9372 11.569C28.9519 11.4299 28.9707 11.2882 28.9613 11.1478C28.9466 10.9258 28.873 10.7185 28.8677 10.4938C28.8637 10.2879 28.8664 10.0592 28.7835 9.86934C28.7153 9.71155 28.4665 9.51096 28.3595 9.3906C28.2231 9.23815 28.0533 9.06832 27.961 8.87977C27.8581 8.67115 27.7177 8.46789 27.6655 8.24189C27.5893 7.9156 27.4569 7.60268 27.3499 7.28575C27.3071 7.15604 27.1961 7.02632 27.1252 6.92335C27.0169 6.76689 26.8952 6.60508 26.7976 6.44194C26.708 6.29083 26.5823 6.03675 26.5984 5.85488C26.6104 5.72249 26.6853 5.58475 26.7214 5.45771C26.7695 5.29457 26.8257 5.13944 26.8351 4.96961C26.8498 4.70617 26.819 4.45744 26.7588 4.20202C26.6585 3.77008 26.478 3.3542 26.3443 2.93162C26.2587 2.65748 26.141 2.3566 26.006 2.10118C25.923 2.07176 25.8441 2.02763 25.7746 1.96879C25.3962 1.64785 25.0846 1.28277 24.8439 0.868221C24.4186 0.90299 23.9934 0.931072 23.5668 0.94712C23.5293 1.06079 23.5026 1.17847 23.4959 1.29213C23.4932 1.34696 23.5267 1.4633 23.5106 1.51145C23.4745 1.62378 23.2873 1.70936 23.2004 1.7789C23.0265 1.91664 22.854 2.05705 22.6695 2.18141C22.5291 2.27636 22.386 2.36729 22.2469 2.46491C22.1533 2.53044 22.0824 2.56387 22.0797 2.68289C22.0784 2.79254 22.0864 2.88481 22.049 2.9918C21.942 3.30338 21.6826 3.57618 21.5435 3.87707C21.5234 3.91986 21.5061 3.97067 21.4873 4.01213C21.4258 4.15923 21.4138 4.27156 21.4151 4.42668C21.4165 4.6139 21.4258 4.80513 21.4178 4.99101C21.4125 5.11805 21.3336 5.22235 21.3282 5.34271C21.3255 5.38684 21.3429 5.41492 21.3282 5.45637C21.3028 5.53126 21.1918 5.56469 21.1263 5.59545C20.9952 5.6583 20.8829 5.71045 20.7679 5.79871C20.6034 5.92442 20.455 5.93244 20.2597 5.96453C20.0952 5.99262 19.9348 6.0207 19.773 6.06884C19.6981 6.09024 19.6553 6.1464 19.5858 6.17448C19.5069 6.2039 19.4467 6.1678 19.4106 6.25472C19.3999 6.28147 19.4146 6.39647 19.4146 6.41787C19.4159 6.53421 19.4146 6.65055 19.4146 6.76689C19.4146 7.16138 19.4266 7.54785 19.321 7.93432C19.2568 8.17102 19.1819 8.2673 19.0549 8.44114C19.0321 8.47324 18.8904 8.64307 18.8717 8.71796C18.8275 8.88378 18.9345 9.10443 19 9.25286C19.0562 9.38258 19.0923 9.52834 19.1752 9.64334C19.2608 9.76236 19.2875 9.84126 19.3343 9.97632C19.4253 10.2384 19.5283 10.5366 19.5456 10.8121C19.5577 11.006 19.5644 11.2561 19.5282 11.446C19.4921 11.6319 19.4239 11.8017 19.3611 11.9742C19.111 11.9956 18.8636 12.0357 18.6229 12.1173C18.3996 12.1922 18.2084 12.2791 17.969 12.2885C17.8995 12.2911 17.7644 12.3005 17.6882 12.2778C17.624 12.2604 17.5825 12.2176 17.5183 12.2042C17.418 12.1841 17.3525 12.2149 17.2603 12.235C17.1559 12.2564 17.0583 12.255 16.954 12.2844C16.7695 12.3353 16.5889 12.3714 16.3991 12.3687C16.2479 12.3674 16.0634 12.3379 15.9163 12.3754C15.8601 12.3901 15.8093 12.4329 15.7465 12.4449C15.7077 12.4529 15.6689 12.4543 15.6301 12.4556C15.5793 12.2898 15.5806 12.1373 15.5806 11.9568C15.582 11.6533 15.5793 11.3484 15.5793 11.0435C15.376 11.0769 15.1714 11.097 14.9575 11.1036C14.8532 11.1076 14.7649 11.0836 14.6874 11.0448C14.5336 11.2186 14.3811 11.3925 14.2728 11.5998C14.1551 11.8284 14.0308 12.0665 13.9559 12.3139C13.9117 12.4583 13.9251 12.5974 13.8542 12.7297C13.8422 12.7525 13.8302 12.7779 13.8181 12.802C13.4103 12.8568 12.9971 12.8488 12.5932 12.7137C12.4461 12.6642 12.2789 12.576 12.1198 12.5706C12.077 12.5693 12.0422 12.5813 11.9995 12.576C11.8363 12.5519 11.7053 12.481 11.5328 12.4917C11.4177 12.4997 11.3068 12.5358 11.1917 12.5559C10.9484 12.6 10.6903 12.6214 10.4429 12.6201C10.1353 12.6174 9.87856 12.6388 9.59506 12.5145C9.4854 12.4663 9.3704 12.4061 9.24871 12.4021C9.10294 12.3968 8.97724 12.489 8.8502 12.5465C8.70711 12.6107 8.55868 12.6589 8.41292 12.7164C8.2043 12.7966 7.99435 12.9036 7.77103 12.9397C7.58916 12.9691 7.43805 12.9143 7.35915 12.7404C7.29898 12.6067 7.27357 12.4489 7.24415 12.3072C7.21205 12.1467 7.23746 11.9809 7.20136 11.8244C7.1492 11.8605 7.10775 11.9461 7.0449 11.9769C6.96199 12.0157 6.80686 12.0103 6.71994 11.9769C6.64907 11.9501 6.58755 11.902 6.51534 11.8752C6.48325 11.8645 6.42842 11.8659 6.40167 11.8405C6.35621 11.7963 6.33748 11.684 6.32411 11.6212C6.26661 11.6359 6.24655 11.7656 6.19841 11.8137C6.13422 11.7963 6.09276 11.7241 6.05933 11.672C5.96439 11.5235 5.87747 11.3911 5.76514 11.2481C5.70228 11.1678 5.67153 11.117 5.63141 11.0314C5.5846 10.9338 5.5271 10.8375 5.48966 10.7346C5.46559 10.6704 5.48431 10.5393 5.40809 10.5112C5.39338 10.5059 5.28639 10.5661 5.27436 10.5687C5.21819 10.5834 5.16871 10.5768 5.11255 10.5781C4.9708 10.5808 4.83975 10.5674 4.70201 10.5447C4.60573 10.53 4.5509 10.5059 4.46799 10.4511C4.39177 10.4016 4.2674 10.3574 4.20321 10.2959C4.17245 10.2652 4.13367 10.1996 4.11495 10.1542C4.08553 10.0833 4.11361 9.979 4.04541 9.94958C3.99995 9.92952 3.88762 9.95225 3.83413 9.95225H3.37143C3.26445 9.95225 3.14811 9.96563 3.04113 9.95359C2.98496 9.9469 2.88734 9.88673 2.83118 9.90679C2.76699 9.93086 2.7924 10.0138 2.7924 10.0739C2.7924 10.1609 2.78571 10.2451 2.80042 10.3334C2.81112 10.3909 2.85391 10.4203 2.86728 10.4604C2.89804 10.5527 2.89537 10.6971 2.9074 10.7907C2.91944 10.8763 2.95688 10.9512 2.96089 11.0354C2.96624 11.1678 3.12538 11.4393 2.96089 11.5289C2.91008 11.557 2.77903 11.5356 2.7242 11.5356C2.57442 11.5369 2.4086 11.5757 2.3297 11.4139C2.29627 11.3457 2.29092 11.2668 2.26953 11.1946C2.24011 11.0943 2.19464 11.0074 2.14516 10.9151C2.06225 10.764 1.93922 10.6664 1.84294 10.5259C1.73997 10.3762 1.74799 10.1836 1.75067 10.0098C1.75201 9.86266 1.79747 9.65271 1.71189 9.54038C1.65572 9.46549 1.49659 9.40531 1.41635 9.35717C1.26792 9.27025 1.14355 9.17263 1.00849 9.06431C0.822609 8.91454 0.684871 8.9132 0.597949 9.14588C0.551144 9.27159 0.496316 9.35717 0.501665 9.49491C0.509689 9.69282 0.556493 9.88539 0.545795 10.0846C0.536434 10.2585 0.482944 10.3655 0.375962 10.4979C0.287703 10.6088 0.254272 10.6904 0.251598 10.8268C0.243574 11.2868 0.363928 11.7642 0.283692 12.2243C0.236888 12.4917 0.00821481 12.6977 0.000191232 12.9771C-0.0118441 13.4251 0.547132 13.3262 0.852028 13.3275H0.878774C1.11146 13.3262 1.28664 13.3115 1.49793 13.4358C1.56747 13.4773 1.62096 13.5348 1.70253 13.5388C1.81486 13.5441 1.94457 13.4987 2.05423 13.4733C2.34575 13.4051 2.5985 13.4118 2.90072 13.4104C3.01706 13.4104 3.18555 13.3716 3.29922 13.3957C3.39149 13.4158 3.48778 13.5308 3.55598 13.5896C3.66028 13.6765 3.76459 13.7648 3.86087 13.8611C3.89029 13.8878 3.95314 13.964 3.9946 13.9854C4.14437 14.059 4.44793 13.9774 4.59904 13.956C4.82905 13.9226 5.01493 13.8343 5.23023 13.7621C5.55786 13.6525 5.99782 13.6057 6.34417 13.6698C6.66912 13.7287 6.99141 13.821 7.32572 13.8477C7.96895 13.8972 8.62019 13.8678 9.26609 13.8691C9.40249 13.8691 9.54023 13.8584 9.67529 13.8678C9.93338 13.8851 10.1674 13.9961 10.4121 14.063C10.6528 14.1285 10.9537 14.0764 11.1998 14.0764C11.7173 14.0777 12.2348 14.0764 12.7537 14.0764H13.0653C13.0278 14.1312 12.989 14.1847 12.9436 14.2342C12.8914 14.289 12.8272 14.3117 12.7898 14.3719C12.7283 14.4669 12.7483 14.6019 12.7497 14.7076C12.751 14.8774 12.7751 15.0553 12.7029 15.2144C12.6226 15.3909 12.4809 15.5661 12.3685 15.7239C12.2415 15.9004 12.0743 16.0315 11.9406 16.1999C11.8631 16.2976 11.7374 16.3109 11.6558 16.4219C11.5582 16.5516 11.4044 16.6185 11.2854 16.7255C11.1917 16.8084 11.1637 16.8472 11.1663 16.9662C11.169 17.1173 11.1663 17.2684 11.1663 17.4195C11.1677 17.5934 11.1824 17.7044 11.1102 17.8568C11.0286 18.0293 10.9818 18.2847 10.8294 18.4171C10.7946 18.4479 10.7478 18.4519 10.7197 18.4746C10.6609 18.5241 10.6221 18.6766 10.602 18.7421C10.5459 18.9213 10.4883 19.0831 10.3961 19.2502C10.3292 19.3733 10.2543 19.507 10.1701 19.6193C10.0578 19.7691 9.88257 19.8761 9.75018 20.0098C9.78227 19.9791 9.5643 20.1917 9.54959 20.2198C9.51482 20.2853 9.54157 20.4003 9.54157 20.4685C9.54157 20.5474 9.5536 20.641 9.54023 20.7186C9.52284 20.8215 9.45331 20.9111 9.42656 21.0128C9.37173 21.2214 9.31958 21.3738 9.34231 21.5891C9.35435 21.6934 9.41052 21.8994 9.37708 22.0157C9.35301 22.1026 9.25138 22.1387 9.18585 22.2016C9.12969 22.2551 9.07085 22.326 9.00399 22.3661C8.96387 22.3901 8.91038 22.3915 8.87561 22.4303C9.36104 22.4316 9.6218 22.6175 9.8371 22.7352C10.134 22.8956 10.4054 23.0895 10.709 23.2406C10.951 23.3623 11.1824 23.4452 11.4458 23.5094C11.6825 23.5482 11.9165 23.5964 12.1492 23.6552C12.2709 23.6793 12.3913 23.7114 12.5076 23.7501C12.7617 23.7916 13.0024 23.7568 13.2525 23.7167C13.5386 23.6712 13.8128 23.6258 14.0843 23.5201C14.456 23.3757 14.8278 23.2634 15.2196 23.1885C15.602 23.1163 15.9631 23.0548 16.3202 22.8836C16.4459 22.8234 16.5729 22.7646 16.6999 22.7071C16.7213 22.7164 16.7427 22.7258 16.7641 22.7352C16.8872 22.7713 17.0236 22.7619 17.1506 22.7659C17.3137 22.7686 17.7029 22.6803 17.8393 22.8395C18.0439 23.0775 18.2365 23.349 18.4183 23.6111C18.4571 23.7127 18.532 23.7662 18.643 23.7689C18.8021 23.7849 18.9599 23.8103 19.115 23.8464C19.1939 23.8718 19.2715 23.9053 19.3517 23.9307C19.6673 24.0283 19.9348 24.0296 20.241 23.8906C20.4523 23.7929 20.5205 23.6873 20.6516 23.5054C20.7238 23.4265 20.7906 23.3449 20.8548 23.2607C20.8655 23.2299 20.8762 23.1978 20.8869 23.1671C20.9524 23.0441 21.0982 22.9759 21.2306 22.9625C21.2493 22.9638 21.268 22.9652 21.2854 22.9665C21.5288 22.9973 21.7722 23.0173 22.0169 23.0294C22.3245 23.036 22.4154 23.024 22.6615 22.9545C22.8968 22.8889 23.1402 22.8395 23.3715 22.7606C23.4357 22.7378 23.4932 22.7178 23.5467 22.6777C23.6564 22.5974 23.7139 22.4731 23.8369 22.4008C23.9626 22.3273 24.0535 22.2524 24.1552 22.1468C24.3143 21.9836 24.4962 21.8592 24.6647 21.7135C24.773 21.6226 24.8492 21.5089 24.8947 21.3725C25.003 21.1893 25.0873 20.9967 25.1461 20.7921C25.1956 20.5688 25.1461 20.3695 25.1662 20.1502C25.2196 19.5177 25.6489 19.059 26.1022 18.6458C26.4967 18.2861 26.946 18.0654 27.3954 17.79C27.5799 17.6776 27.7604 17.5787 27.8594 17.3915C27.9757 17.1721 28.0774 16.9582 28.2245 16.7576C28.2753 16.6907 28.3194 16.6319 28.3515 16.5503C28.4144 16.3912 28.4411 16.2414 28.5147 16.0769C28.5815 15.9298 28.6725 15.8001 28.7019 15.6423C28.73 15.4979 28.7099 15.3187 28.7072 15.1743C28.7019 14.8894 28.6818 14.6059 28.6524 14.3224C28.631 14.1165 28.5976 13.9052 28.6283 13.6979C28.6417 13.6083 28.6551 13.6418 28.6805 13.4372Z"/>
</svg>
