<svg width="20" height="24" viewBox="0 0 20 24" fill="#000000" xmlns="http://www.w3.org/2000/svg">
  <path d="M17.3673 2.31181C17.3397 2.29857 17.3188 2.27429 17.3154 2.24228C17.3154 2.29084 17.3232 2.33941 17.3673 2.31181Z"/>
  <path d="M19.3661 16.424C19.3584 16.3722 19.3407 16.3236 19.3407 16.2684C19.3396 16.307 19.3396 16.3412 19.3463 16.3766C19.3507 16.3942 19.3606 16.4075 19.3661 16.424Z"/>
  <path d="M19.3661 16.424C19.3683 16.4373 19.3706 16.4494 19.3706 16.4627C19.3728 16.4472 19.3705 16.4351 19.3661 16.424Z"/>
  <path d="M11.7659 20.6789C11.7217 20.7672 11.6997 20.8831 11.6334 20.9593C11.5849 21.0155 11.5396 21.0564 11.5065 21.1259C11.4326 21.2815 11.2758 21.3511 11.0992 21.34C11.0209 21.3356 10.9502 21.2992 10.9006 21.2396C10.8664 21.1999 10.8564 21.1612 10.8454 21.1105C10.831 21.042 10.8079 21.0045 10.7759 20.9427C10.7405 20.8765 10.6898 20.8423 10.6478 20.7805C10.6169 20.7352 10.6125 20.691 10.6004 20.6414C10.5628 20.4869 10.5772 20.3081 10.5783 20.1425C10.5794 19.9648 10.5617 19.7727 10.5198 19.6006C10.4845 19.4538 10.4845 19.3015 10.3995 19.1734C10.4028 19.233 10.416 19.2849 10.4249 19.3423C10.437 19.4262 10.4249 19.509 10.4293 19.5939C10.4392 19.7452 10.49 19.8908 10.49 20.0454C10.49 20.2176 10.4414 20.3345 10.3785 20.4891C10.352 20.5553 10.3112 20.6204 10.2902 20.6877C10.2858 20.7043 10.2825 20.7231 10.2781 20.7396C10.2505 20.7805 10.2229 20.8191 10.1953 20.8599C10.1589 20.9129 10.1754 20.9416 10.1655 21.0001C10.1578 21.042 10.1412 21.0862 10.1313 21.1303C10.1169 21.1999 10.0949 21.233 10.064 21.2915C10.0518 21.3158 10.0562 21.3445 10.0452 21.3676C10.0342 21.3886 10.0066 21.3853 9.99773 21.4007C9.91936 21.5431 9.85314 21.6502 9.69421 21.7285C9.63792 21.7561 9.58383 21.8124 9.52313 21.829C9.47677 21.8411 9.44366 21.8422 9.39951 21.8632C9.37744 21.8731 9.35757 21.8864 9.3366 21.8974C9.31342 21.8952 9.29024 21.893 9.26596 21.893C9.0695 21.8941 8.90504 21.8268 8.73838 21.7517C8.73065 21.7451 8.72403 21.7385 8.71741 21.7319C8.6269 21.6546 8.5066 21.6005 8.38739 21.6005C8.32669 21.5696 8.27261 21.5321 8.2119 21.4946C8.15009 21.4018 8.10926 21.2705 8.05076 21.1955C8.01434 21.1502 7.99005 21.1182 7.96356 21.0663C7.92273 20.9857 7.87637 20.9085 7.80463 20.8533C7.74061 20.8047 7.66887 20.754 7.60044 20.7142C7.56843 20.6955 7.53642 20.6833 7.50552 20.6734C7.45916 20.5718 7.40287 20.4747 7.35983 20.3732C7.3223 20.286 7.26822 20.2131 7.22848 20.127C7.18213 20.0244 7.14239 19.892 7.11922 19.7827C7.08721 19.6315 7.02319 19.488 6.97132 19.3412C6.92827 19.2154 6.88964 19.0873 6.84328 18.9626C6.83556 18.9439 6.82783 18.9262 6.82011 18.9085C6.81017 18.8787 6.80134 18.8478 6.79582 18.8169C6.76713 18.6569 6.80134 18.4847 6.77485 18.3214C6.76271 18.2518 6.76271 18.2143 6.73843 18.1503C6.71856 18.0951 6.70863 18.0454 6.70973 17.9847C6.71194 17.8357 6.65786 17.7264 6.61592 17.5918C6.59384 17.52 6.553 17.4571 6.53424 17.3832C6.50775 17.2739 6.47243 17.1669 6.44484 17.0587C6.44374 17.0554 6.44374 17.0521 6.44263 17.0499C6.44705 17.0134 6.44925 16.9781 6.45367 16.9417C6.46691 16.8479 6.46802 16.753 6.48126 16.6602C6.4923 16.5731 6.521 16.487 6.52872 16.3987C6.54197 16.2574 6.53314 16.1227 6.56073 15.9848C6.57066 15.934 6.55742 15.8788 6.56294 15.8269C6.56735 15.764 6.60267 15.7199 6.61592 15.6592C6.62585 15.6106 6.61592 15.5631 6.62695 15.5135C6.63578 15.4704 6.66227 15.4307 6.67441 15.3888C6.71636 15.2431 6.69538 15.0621 6.71746 14.9142C6.73733 14.7784 6.7296 14.6404 6.76161 14.5113C6.78037 14.4362 6.75609 14.3612 6.76713 14.2872C6.77375 14.2398 6.79472 14.1901 6.80907 14.1438C6.85542 13.9914 6.9062 13.8391 6.97242 13.6978C6.99008 13.6614 6.99781 13.6184 7.01988 13.5864C7.03423 13.5676 7.05851 13.5621 7.07286 13.5411C7.12253 13.4672 7.11811 13.38 7.19096 13.3138C7.28367 13.2277 7.32672 13.125 7.38411 13.0135C7.43709 12.912 7.4702 12.763 7.4713 12.646C7.47241 12.5698 7.46358 12.4904 7.4702 12.4142C7.47572 12.3579 7.49779 12.3083 7.5011 12.2509C7.50442 12.2056 7.50221 12.1593 7.5011 12.114C7.4989 12.0091 7.45144 11.9264 7.42384 11.827C7.41281 11.7873 7.39404 11.742 7.38632 11.7067C7.37638 11.6637 7.38963 11.6162 7.38521 11.5721C7.37969 11.5235 7.35983 11.4794 7.35321 11.4319C7.33555 11.3039 7.30464 11.1714 7.29471 11.0401C7.28588 10.9264 7.2627 10.8083 7.23842 10.6979C7.22738 10.6527 7.21082 10.6074 7.20089 10.5589C7.18544 10.4926 7.18544 10.4297 7.17219 10.3635C7.12253 10.1163 7.12032 9.87344 7.12032 9.62069C7.12032 9.39553 7.10597 9.16485 7.11922 8.94079C7.12253 8.8845 7.1457 8.85912 7.16557 8.80835C7.17882 8.77082 7.17992 8.73219 7.19206 8.69356C7.25608 8.48275 7.41281 8.30836 7.48565 8.10196C7.54305 7.94192 7.59492 7.77857 7.66445 7.62405C7.73178 7.47394 7.76489 7.3139 7.80794 7.15497C7.87196 6.91656 7.85209 6.67154 7.90838 6.43644C7.91721 6.40112 7.90507 6.36691 7.90948 6.33159C7.9139 6.29627 7.92825 6.28634 7.93376 6.25874C7.94039 6.22563 7.9448 6.19804 7.95142 6.17044C7.96467 6.14616 7.97681 6.12078 7.99226 6.0976C8.04745 6.01151 8.10926 5.92873 8.14678 5.83381C8.16665 5.78083 8.18652 5.73779 8.20307 5.68922C8.24391 5.57002 8.26599 5.43647 8.29358 5.31285C8.31786 5.20248 8.30903 5.09321 8.32779 4.98394C8.3587 4.80514 8.4172 4.62633 8.46245 4.44974C8.49335 4.33053 8.50439 4.21464 8.52978 4.09323C8.55406 4.04798 8.57392 4.00052 8.59158 3.95085C8.60593 3.93099 8.62028 3.91112 8.63573 3.89787C8.66774 3.86918 8.71962 3.85593 8.77149 3.84821C8.80681 3.9056 8.82337 3.97072 8.84875 4.03143C8.87193 4.08661 8.89069 4.15394 8.92712 4.2003C8.96133 4.24334 9.01873 4.27204 9.06177 4.30294C9.16994 4.3791 9.30569 4.44201 9.43704 4.48506C9.51651 4.51155 9.58494 4.55349 9.6622 4.58108C9.67655 4.5866 9.6931 4.58991 9.70855 4.59433C9.73394 4.6473 9.76264 4.69808 9.80679 4.72898C9.841 4.75326 9.86528 4.74554 9.90502 4.74995C9.94144 4.75326 9.95689 4.7632 9.99221 4.77313C10.086 4.79741 10.2063 4.77865 10.3024 4.77865C10.4911 4.77865 10.6655 4.80072 10.8344 4.71353C10.9061 4.676 10.9712 4.6451 11.0176 4.57446C11.0209 4.57004 11.022 4.56673 11.0253 4.56232C11.0441 4.5579 11.0628 4.55349 11.0783 4.55018C11.1324 4.54024 11.1798 4.54135 11.2273 4.52369C11.3244 4.48726 11.4127 4.44091 11.4867 4.36916C11.533 4.32391 11.5617 4.27535 11.6025 4.22899C11.6511 4.17491 11.7229 4.1429 11.7813 4.10427C11.7935 4.09655 11.8034 4.08992 11.8145 4.0822C11.7825 4.17381 11.7427 4.26321 11.7063 4.35261C11.6875 4.39676 11.6522 4.44201 11.6379 4.48726C11.6268 4.52258 11.6312 4.55128 11.6158 4.58439C11.4491 4.93869 11.5507 5.36583 11.7206 5.70247C11.7836 5.82719 11.8123 5.95632 11.8939 6.07111C12.0131 6.24108 12.0672 6.43534 12.1975 6.59538C12.2383 6.64615 12.2968 6.69361 12.3299 6.74659C12.3707 6.81171 12.384 6.93533 12.4016 7.01038C12.4348 7.15166 12.4701 7.27196 12.5275 7.40441C12.5628 7.48388 12.5882 7.55341 12.6842 7.56997C12.6919 7.62847 12.7151 7.68365 12.7239 7.74436C12.7438 7.88453 12.7526 8.03133 12.7946 8.16929C12.8376 8.31609 12.916 8.43639 12.9954 8.56553C13.1091 8.75095 13.1676 8.94411 13.2217 9.15271C13.2394 9.22224 13.2681 9.28074 13.2747 9.35138C13.2791 9.40105 13.2879 9.44961 13.3034 9.49928C13.3288 9.57764 13.3817 9.65159 13.3928 9.72996C13.4127 9.87565 13.4204 10.018 13.4204 10.1659C13.4204 10.4264 13.4204 10.6869 13.4204 10.9485C13.4204 11.231 13.4116 11.5036 13.384 11.7851C13.3486 12.1394 13.3619 12.497 13.3619 12.8546C13.3619 13.1614 13.3034 13.465 13.3023 13.7729C13.3023 13.8491 13.3045 13.9252 13.3034 14.0014C13.3023 14.0853 13.2758 14.1614 13.2747 14.2453C13.2725 14.3711 13.2769 14.498 13.2747 14.6239C13.2725 14.7353 13.2438 14.838 13.2449 14.9495C13.2471 15.2364 13.2449 15.5245 13.2449 15.8126C13.2449 16.0819 13.2162 16.3446 13.2151 16.6128C13.2151 16.8192 13.129 16.9991 13.055 17.19C13.0319 17.2496 13.0219 17.3159 13.0032 17.3799C12.991 17.4196 12.9844 17.4748 12.9656 17.509C12.9403 17.5554 12.8906 17.5808 12.8663 17.6304C12.8122 17.7397 12.7868 17.871 12.7537 17.988C12.7361 18.0531 12.7272 18.1105 12.7184 18.1779C12.7063 18.2805 12.6643 18.3799 12.6367 18.4803C12.6058 18.5896 12.5584 18.701 12.544 18.8136C12.5352 18.8831 12.5297 18.9494 12.512 19.0189C12.4822 19.1436 12.4623 19.2661 12.4381 19.3909C12.4105 19.5288 12.342 19.6414 12.2924 19.7694C12.2405 19.9041 12.1897 19.9836 12.097 20.095C12.0032 20.2087 11.905 20.3268 11.8509 20.4648C11.8222 20.5376 11.8012 20.6094 11.7659 20.6789ZM19.3926 15.4208C19.375 15.3236 19.3242 15.2221 19.2889 15.1294C19.2701 15.0775 19.2414 15.0311 19.2171 14.9826C19.1807 14.9053 19.1509 14.8281 19.1057 14.7541C19.0726 14.7011 19.024 14.6493 18.9931 14.5952C18.9765 14.5643 18.9765 14.5367 18.9522 14.5014C18.8706 14.3811 18.7293 14.2961 18.6134 14.2144C18.5229 14.1526 18.4754 14.0853 18.4015 14.0069C18.3496 13.9517 18.2812 13.9109 18.226 13.8568C18.1454 13.7773 18.1024 13.6802 18.0284 13.5963C17.992 13.5555 17.9457 13.5279 17.9103 13.4848C17.8816 13.4484 17.8618 13.4032 17.8331 13.3667C17.7856 13.3049 17.7315 13.2497 17.6774 13.1946C17.705 13.2034 17.7315 13.2133 17.7558 13.2243C17.854 13.2696 17.9423 13.3314 18.0428 13.3723C18.1543 13.4175 18.2679 13.487 18.3805 13.54C18.4445 13.5698 18.5063 13.6349 18.5792 13.6305C18.7006 13.6228 18.5935 13.5422 18.5549 13.4815C18.5141 13.4175 18.46 13.3844 18.4037 13.3314C18.3496 13.2806 18.2999 13.2288 18.2459 13.1802C18.2304 13.1714 18.2161 13.1614 18.2006 13.1526C18.1984 13.1383 18.1962 13.1228 18.1918 13.1096C18.152 13.0654 18.088 13.0356 18.0439 12.9937C17.9732 12.9286 17.9479 12.8193 17.8805 12.7575C17.8342 12.7144 17.715 12.6913 17.6543 12.6626C17.5726 12.6228 17.4799 12.5908 17.4015 12.5478C17.2845 12.4815 17.1642 12.4197 17.0373 12.3712C17.024 12.3469 17.0108 12.3226 16.9964 12.2994C16.9214 12.1791 16.8485 12.0566 16.7669 11.9363C16.7128 11.8557 16.6764 11.7685 16.6135 11.6935C16.577 11.6493 16.5737 11.6273 16.5516 11.5787C16.5274 11.5235 16.4313 11.444 16.3872 11.4065C16.289 11.3204 16.1366 11.3282 16.0152 11.2928C15.8718 11.252 15.7945 11.1725 15.6797 11.0875C15.5307 10.9772 15.3475 10.9054 15.2316 10.7597C15.1621 10.6736 15.0969 10.603 15.0108 10.5379C14.9446 10.4893 14.8718 10.4253 14.8155 10.3679C14.7735 10.3238 14.7669 10.2752 14.7327 10.2288C14.7139 10.2035 14.6852 10.1836 14.6632 10.1593C14.5815 10.0644 14.523 9.9485 14.4468 9.84916C14.3729 9.75203 14.2736 9.67588 14.2106 9.56992C14.1632 9.49266 14.0981 9.42975 14.065 9.35248C14.0307 9.27191 14.0009 9.18582 13.9745 9.10525C13.9469 9.01806 13.874 8.93197 13.8243 8.8536C13.799 8.81387 13.7692 8.77634 13.7405 8.73881C13.7327 8.677 13.7162 8.60747 13.7018 8.54787C13.6599 8.36244 13.4866 8.24876 13.4138 8.07768C13.3784 7.9938 13.331 7.91212 13.3078 7.82382C13.2692 7.67482 13.2559 7.51699 13.2118 7.36909C13.1665 7.2234 13.1025 7.08212 13.0385 6.94526C13.0241 6.91325 12.9921 6.87573 12.9833 6.84372C12.9668 6.7786 12.991 6.71569 12.9656 6.65057C12.9325 6.56999 12.874 6.54682 12.8056 6.50819C12.7835 6.49604 12.778 6.48942 12.7493 6.47287C12.6996 6.44196 12.6522 6.43865 12.6047 6.41326C12.5308 6.37353 12.4171 6.23777 12.3818 6.16713C12.3608 6.12299 12.3343 6.08104 12.3067 6.0391C12.256 5.91438 12.1986 5.78966 12.1467 5.66383C12.1191 5.55898 12.0948 5.45413 12.0694 5.35038C12.0562 5.29298 12.0429 5.24001 12.033 5.18703C12.0319 5.1208 12.0352 5.05348 12.0496 4.98394C12.0981 4.75657 12.1345 4.51486 12.193 4.29632C12.2162 4.20802 12.246 4.11862 12.2858 4.04026C12.3255 4.04798 12.3641 4.05681 12.4005 4.06785C12.5308 4.10648 12.6058 4.18153 12.7184 4.24555C12.7515 4.26542 12.7725 4.26983 12.8034 4.29522C12.842 4.32612 12.8829 4.35813 12.9248 4.38351C12.9314 4.38793 12.9381 4.39124 12.9458 4.39565C12.969 4.39786 12.9921 4.40449 13.0164 4.41C13.0848 4.40338 13.1533 4.40228 13.2217 4.39786C13.2427 4.39676 13.2625 4.39566 13.2835 4.39455C13.501 4.44422 13.7261 4.45636 13.9491 4.45636C14.268 4.45636 14.5605 4.50713 14.8607 4.60205C14.9634 4.63406 15.0583 4.68704 15.161 4.71684C15.2327 4.73781 15.2603 4.76982 15.3044 4.83163C15.3696 4.92324 15.4479 5.0303 15.4413 5.14508C15.4446 5.10094 15.4689 5.06451 15.4733 5.02036C15.4777 4.97953 15.4656 4.93648 15.4711 4.89564C15.4766 4.85481 15.4943 4.84597 15.5031 4.80955C15.5108 4.77644 15.5009 4.72567 15.5009 4.69145C15.5009 4.60868 15.5097 4.53031 15.4722 4.45526C15.4468 4.40449 15.406 4.36034 15.3762 4.31177C15.342 4.25548 15.3033 4.19478 15.2459 4.15615C15.2106 4.13297 15.1897 4.1407 15.1499 4.12855C15.108 4.11641 15.0771 4.08551 15.034 4.07447C14.8641 4.03474 14.693 4.03805 14.5329 3.95085C14.4722 3.91774 14.427 3.88022 14.3597 3.87028C14.3111 3.86256 14.2647 3.8758 14.2162 3.86366C14.204 3.86145 14.1632 3.84048 14.1477 3.83496C14.097 3.81841 14.0506 3.77426 14.0009 3.75881C13.9513 3.74335 13.8806 3.73894 13.8288 3.73121C13.7537 3.71797 13.6687 3.74004 13.5959 3.71797C13.5274 3.6981 13.4513 3.64402 13.3939 3.60318C13.3597 3.57228 13.3255 3.54137 13.2912 3.51047C13.2449 3.48619 13.1974 3.46853 13.1456 3.45859C13.1003 3.44424 13.0539 3.42879 13.0098 3.41003C12.9458 3.38244 12.8674 3.34491 12.8012 3.30738C12.8045 3.30186 12.8067 3.29634 12.81 3.29193C12.8564 3.23785 12.9414 3.17052 13.0098 3.16721C13.0131 3.16611 13.0164 3.16721 13.0197 3.16611C13.0882 3.1948 13.1566 3.2246 13.2261 3.25551C13.3817 3.32615 13.5859 3.35264 13.7581 3.3714C13.8873 3.38464 14.0274 3.34049 14.1555 3.314C14.3298 3.27758 14.5142 3.2544 14.693 3.25551C14.7581 3.25551 14.8276 3.24557 14.8927 3.25992C14.9822 3.28089 15.0473 3.31069 15.1455 3.314C15.3111 3.32173 15.4799 3.32283 15.6455 3.34049C15.8265 3.36036 16.002 3.45087 16.1731 3.51047C16.3298 3.56345 16.4192 3.5502 16.5693 3.50605C16.6576 3.47956 16.7757 3.46411 16.8497 3.40782C16.8618 3.39899 16.8695 3.38796 16.8772 3.37692C16.9633 3.38023 17.0483 3.38685 17.1344 3.39789C17.4766 3.43983 17.7856 3.27096 17.9975 2.99392C18.1112 2.84602 18.2039 2.69813 18.1973 2.50829C18.1962 2.45531 18.1885 2.44427 18.1675 2.3935C18.1399 2.32617 18.141 2.25774 18.1167 2.19041C18.0913 2.12198 18.0505 2.08004 18.0064 2.02486C17.8883 1.87585 17.6774 1.72906 17.481 1.73126C17.3949 1.73237 17.3342 1.75223 17.2602 1.78976C17.1962 1.82177 17.1311 1.85046 17.1112 1.9211C17.0958 1.97739 17.1024 2.09991 17.141 2.14295C17.1741 2.18048 17.2624 2.23125 17.3121 2.23567C17.3121 2.23787 17.3143 2.24007 17.3154 2.24228C17.3154 2.21358 17.3187 2.18379 17.3187 2.17055C17.3165 2.07232 17.3375 2.07783 17.4357 2.08225C17.4997 2.08556 17.5439 2.11867 17.5792 2.16503C17.5847 2.21469 17.6035 2.25774 17.6377 2.29527C17.6774 2.335 17.715 2.37804 17.7492 2.4233C17.7635 2.45862 17.7569 2.48621 17.7569 2.52263C17.758 2.54471 17.7646 2.58996 17.7602 2.61093C17.7492 2.65729 17.7172 2.66833 17.6841 2.69813C17.619 2.75662 17.566 2.76987 17.4799 2.79415C17.3872 2.81954 17.3022 2.81623 17.2073 2.81512C17.1775 2.81512 17.1432 2.81843 17.1134 2.81622C17.098 2.81512 17.0859 2.81071 17.0737 2.8074C17.0781 2.76325 17.0814 2.7213 17.0859 2.67605C17.0748 2.71578 17.0549 2.75552 17.0307 2.79636C17.0196 2.79194 17.0086 2.78753 16.9953 2.78642L16.9832 2.86368C16.8938 2.97958 16.7647 3.08002 16.6466 3.10871C16.534 3.13631 16.3905 3.14955 16.2702 3.14403C16.1996 3.1043 16.1355 3.05021 16.0737 2.97516C15.9932 2.87582 15.8784 2.8692 15.7526 2.85265C15.63 2.83609 15.5042 2.81622 15.3806 2.81622C15.3078 2.78091 15.2316 2.75442 15.1488 2.75552C15.0804 2.75662 15.0274 2.77649 14.9612 2.79415C14.8607 2.82174 14.7603 2.81622 14.6566 2.81622C14.5826 2.78201 14.5186 2.73013 14.4237 2.72682C14.3354 2.72462 14.2647 2.73786 14.1897 2.6915C14.0031 2.57782 13.8409 2.42992 13.6224 2.38025C13.5197 2.35707 13.4082 2.36149 13.3177 2.31955C13.299 2.31072 13.2835 2.29968 13.2659 2.29085C13.2703 2.28533 13.2747 2.27871 13.2791 2.27319C13.3431 2.20476 13.4325 2.14737 13.5054 2.08666C13.565 2.03589 13.6157 2.01161 13.6875 1.98181C13.885 1.90234 14.076 1.81184 14.2702 1.72354C14.3696 1.67828 14.4822 1.64517 14.5771 1.59661C14.853 1.45533 15.2128 1.52487 15.5086 1.57895C15.5428 1.58557 15.5771 1.58557 15.6113 1.58116C15.63 1.58557 15.6488 1.5933 15.6676 1.59771C15.8331 1.61648 15.9965 1.654 16.1532 1.70588C16.2735 1.74671 16.3916 1.79528 16.5009 1.8604C16.4998 1.82839 16.4976 1.79638 16.4987 1.76769C16.4998 1.66504 16.4589 1.53038 16.4093 1.44209C16.3806 1.39132 16.3751 1.38911 16.3276 1.35489C16.2558 1.30081 16.1797 1.22134 16.098 1.18492C16.0362 1.15733 16.0108 1.1507 15.9711 1.08889C15.9578 1.06903 15.9468 1.04806 15.9358 1.02709C15.8177 0.990664 15.6996 0.952033 15.5804 0.913402C15.4888 0.883602 15.3972 0.852699 15.3044 0.822898C15.3033 0.822898 15.3011 0.822898 15.2989 0.822898C15.2228 0.797512 15.1466 0.772127 15.0693 0.748949C14.8177 0.76992 14.5683 0.772125 14.321 0.752258C14.3045 0.763296 14.2868 0.772126 14.2691 0.782059C14.2327 0.766607 14.1974 0.750052 14.1577 0.7346C13.8409 0.698177 13.5274 0.63085 13.2206 0.534826C13.1908 0.533722 13.161 0.530412 13.1323 0.530412C13.0087 0.530412 12.8972 0.525995 12.7802 0.575663C12.7471 0.590011 12.7151 0.610983 12.682 0.63085C12.6378 0.609879 12.5893 0.581181 12.5495 0.560211C12.4325 0.498402 12.3277 0.469705 12.1997 0.426659C12.0352 0.372577 11.9039 0.247858 11.7504 0.170597C11.6434 0.117618 11.5198 0.0657422 11.4006 0.0613273C11.3123 0.0580161 11.2251 0.0723638 11.1401 0.0778825C11.054 0.0834011 10.9149 0.0491858 10.8321 0.0392523C10.7273 0.0260076 10.6246 0.00503845 10.5187 0.00172728C10.3609 -0.00268762 10.2019 0.0028304 10.043 0.0028304C9.94696 0.00172667 9.89508 0.000622492 9.81672 0.0381491C9.69752 0.0955428 9.57942 0.14521 9.47125 0.215848C9.4271 0.244545 9.36309 0.265517 9.32446 0.300837C9.28141 0.340571 9.24278 0.393549 9.19974 0.435491C9.14565 0.487366 9.08384 0.532617 9.02976 0.583389C8.9812 0.628641 8.93043 0.68162 8.88076 0.732392C8.61035 1.0017 8.28144 1.15953 8.15009 1.54363C8.12029 1.63303 8.0916 1.7412 8.08608 1.83501C8.07946 1.94097 8.04083 2.01934 8.02206 2.12198C8.0033 2.22242 7.96467 2.31072 7.93818 2.40454C7.93708 2.40785 7.93818 2.41226 7.93818 2.41668C7.92825 2.43875 7.92052 2.45641 7.9161 2.46745C7.88189 2.54802 7.8543 2.61204 7.80904 2.6893C7.7384 2.8074 7.71302 2.93874 7.6479 3.05905C7.58388 3.18046 7.52097 3.30738 7.44923 3.42327C7.38521 3.52813 7.33003 3.65175 7.24394 3.74115C7.20199 3.78419 7.16226 3.83717 7.12363 3.89236C7.1159 3.89456 7.10928 3.89898 7.10156 3.90229C7.04195 3.92657 6.99339 3.96189 6.93269 3.97955C6.86867 3.99942 6.81128 4.01266 6.75167 4.04577C6.68655 4.0822 6.55963 4.12855 6.521 4.19257C6.45257 4.30515 6.53755 4.47181 6.53534 4.59101C6.52762 4.88571 6.19098 5.0016 6.06626 5.24001C6.14794 5.24994 6.21195 5.31506 6.27818 5.357C6.31018 5.37687 6.35654 5.39453 6.37862 5.42764C6.31681 5.52146 6.20754 5.57664 6.12255 5.64397C6.02432 5.72123 5.94927 5.81173 5.86318 5.90114C5.79916 5.96736 5.72852 6.01923 5.67996 6.09981C5.574 6.28082 5.51219 6.58103 5.61042 6.77087C5.65568 6.85807 5.65457 6.93864 5.65457 7.03356C5.65457 7.14835 5.66561 7.2543 5.62698 7.36136C5.574 7.51037 5.49564 7.6384 5.43162 7.77968C5.39409 7.86246 5.33339 7.93641 5.27379 8.00373C5.22191 8.06002 5.20094 8.10528 5.16893 8.18033C5.13361 8.2609 5.08947 8.33485 5.05304 8.41432C5.02214 8.47944 4.98682 8.54456 4.96695 8.61409C4.93715 8.71784 4.95812 8.8249 4.94488 8.93197C4.93494 9.00923 4.90514 9.0898 4.87534 9.16044C4.8047 9.33151 4.74952 9.50259 4.627 9.64718C4.52657 9.76638 4.40957 9.8602 4.32348 9.99044C4.25063 10.1008 4.1502 10.1902 4.05969 10.2851C3.90738 10.4452 3.81908 10.7057 3.7661 10.9176C3.7363 11.0324 3.70098 11.1593 3.66014 11.2697C3.63586 11.3326 3.5873 11.3844 3.54646 11.4363C3.4692 11.5323 3.40077 11.6328 3.33896 11.7387C3.3213 11.7586 3.30474 11.7796 3.28708 11.7972C3.19878 11.8888 3.13256 12.0014 3.03212 12.0853C2.86546 12.2211 2.70652 12.3568 2.53213 12.4804C2.47805 12.518 2.403 12.5323 2.35554 12.5732C2.31912 12.6041 2.29263 12.6504 2.2551 12.6835C2.17342 12.7553 2.11824 12.8403 2.01449 12.8833C1.77167 12.9837 1.53878 13.0665 1.34011 13.2409C1.2485 13.3215 1.14917 13.3932 1.05866 13.476C0.994646 13.5356 0.952704 13.5985 0.884273 13.6515C0.750723 13.7563 0.626002 13.8943 0.491347 14.0091C0.404153 14.0842 0.315855 14.1482 0.247424 14.2431C0.217624 14.2861 0.201068 14.3281 0.176786 14.3722C0.14257 14.4307 0.0884885 14.4771 0.0608954 14.5411C0.0321985 14.6073 0.0134346 14.6967 0.0333016 14.7674C0.0487538 14.7707 0.0653093 14.774 0.0818652 14.7773C0.101732 14.8446 0.0862808 14.9351 0.0862808 15.0069C0.0862808 15.0841 0.094007 15.1658 0.0840735 15.242C0.0752437 15.317 0.055376 15.3788 0.0564797 15.455C0.0575835 15.5091 0.0619988 15.5676 0.0575839 15.6216C0.0542727 15.6702 -0.0163654 15.785 0.00350163 15.8203C0.0476506 15.7872 0.0531686 15.721 0.0774506 15.6746C0.108355 15.6139 0.1514 15.5665 0.175682 15.5024C0.197756 15.445 0.222038 15.3888 0.240802 15.3292C0.282743 15.1923 0.331307 15.0709 0.407464 14.9417C0.467065 14.8424 0.5366 14.7486 0.613861 14.6625C0.671255 14.5974 0.739686 14.5532 0.795976 14.487C0.91297 14.3468 1.08405 14.3159 1.21098 14.1978C1.39088 14.0301 1.60721 13.8976 1.80478 13.7464C2.05753 13.5522 2.2849 13.3358 2.51999 13.125C2.52882 13.1173 2.53765 13.1107 2.54648 13.1029C2.50123 13.1791 2.45598 13.2641 2.40079 13.3226C2.38424 13.3391 2.36878 13.3402 2.34892 13.3424C2.34229 13.4021 2.28821 13.4274 2.2551 13.4716C2.23303 13.5135 2.20985 13.5555 2.18777 13.5974C2.12596 13.6934 2.06636 13.7928 2.01118 13.8932C1.94385 14.0356 1.87211 14.1802 1.80809 14.3237C1.71538 14.5323 1.61825 14.7376 1.52333 14.9451C1.49353 15.0102 1.47035 15.0775 1.44276 15.1426C1.38868 15.2696 1.3677 15.4053 1.31693 15.5322C1.24961 15.6956 1.19332 15.8689 1.14144 16.0388C1.12599 16.083 1.11606 16.1271 1.11164 16.1746C1.07963 16.2475 1.03769 16.3137 0.982505 16.3733C0.911866 16.4759 0.832399 16.5808 0.786042 16.6967C0.746308 16.7949 0.730856 16.8655 0.730856 16.9693C0.731959 17.0852 0.720923 17.1956 0.760657 17.3059C0.807013 17.434 0.843436 17.583 0.970364 17.6702C1.00789 17.6404 1.00348 17.594 1.02003 17.5565C1.01231 17.5189 1.03217 17.4969 1.08074 17.4914C1.158 17.4638 1.23526 17.4351 1.31252 17.4064C1.40413 17.36 1.46373 17.2827 1.51671 17.1967C1.5432 17.1525 1.55534 17.1062 1.57962 17.0609C1.64474 17.1812 1.722 17.285 1.79264 17.4075C1.84231 17.4914 1.88756 17.573 1.94606 17.6503C1.97696 17.6911 2.02001 17.7805 2.07519 17.7871C2.04208 17.7 2.06195 17.6183 2.05201 17.5267C2.04539 17.4693 2.02332 17.4185 2.0189 17.36C2.01449 17.2839 2.02442 17.2055 2.02221 17.1293C2.0167 16.9527 1.99131 16.7806 1.99131 16.604C1.99131 16.5024 1.9891 16.3998 1.988 16.2971C1.99021 16.2927 1.99241 16.2894 1.99462 16.285C2.02884 16.2165 2.05091 16.136 2.09947 16.0753C2.14252 16.0201 2.20874 16.0024 2.24958 15.9461C2.29373 15.8843 2.30808 15.8015 2.32243 15.7298C2.33236 15.6746 2.35112 15.6316 2.3721 15.5896C2.37541 15.6415 2.38534 15.6934 2.41404 15.7353C2.45487 15.7938 2.55642 15.8247 2.62154 15.8269C2.65796 15.8291 2.71425 15.8148 2.74736 15.8325C2.76944 15.8446 2.77385 15.881 2.80034 15.8854C2.87319 15.8965 2.83456 15.7574 2.84007 15.7088C2.84559 15.6713 2.86436 15.6581 2.87208 15.6238C2.88202 15.5841 2.86215 15.5367 2.86877 15.4969C2.88312 15.4197 2.92396 15.3523 2.92948 15.2696C2.93389 15.2166 2.94272 15.1846 2.95486 15.1327C2.96038 15.1095 2.95597 15.0797 2.96369 15.0565C2.97473 15.0311 3.00232 15.0113 3.01115 14.9859C3.03212 14.9296 3.02991 14.8844 3.06082 14.8303C3.0851 14.7872 3.11269 14.742 3.13146 14.6956C3.16898 14.6007 3.21313 14.5069 3.2639 14.4175C3.30805 14.3667 3.34779 14.3137 3.37648 14.2519C3.37759 14.2486 3.3809 14.2464 3.38311 14.242C3.4107 14.2078 3.43829 14.1736 3.4692 14.1427C3.53432 14.0908 3.61379 14.0521 3.68442 14.0047C3.70871 13.9705 3.73961 13.9429 3.77603 13.9208C3.86433 13.8623 3.95042 13.8027 4.03541 13.7409C4.11046 13.6857 4.1811 13.6537 4.25395 13.6007C4.33452 13.5433 4.36763 13.5378 4.4195 13.4583C4.478 13.3678 4.55526 13.2663 4.63694 13.1946C4.67115 13.1714 4.70647 13.1482 4.74069 13.1239C4.76387 13.0985 4.78484 13.0709 4.8047 13.0422C4.87534 12.965 4.97137 12.9065 5.05856 12.8491C5.17004 12.7762 5.22522 12.7188 5.31242 12.6096C5.425 12.4683 5.45259 12.4131 5.50115 12.2321C5.55082 12.0489 5.56848 11.9021 5.56848 11.7122C5.56738 11.5997 5.54972 11.4948 5.53427 11.3844C5.59387 11.4142 5.61705 11.5897 5.62256 11.6449C5.6336 11.7409 5.61373 11.8392 5.63139 11.9352C5.64133 11.9893 5.67223 12.0378 5.68217 12.0908C5.70424 12.2166 5.70865 12.3447 5.71197 12.4738C5.69651 12.5301 5.67885 12.5853 5.6623 12.6405C5.6336 12.731 5.63029 12.8237 5.6038 12.9142C5.58173 12.9871 5.55634 13.0522 5.5431 13.1283C5.5155 13.2851 5.40955 13.4617 5.33339 13.5996C5.24399 13.7586 5.15348 13.9197 5.08064 14.0864C5.01883 14.2287 4.96695 14.3788 4.893 14.5157C4.82236 14.6471 4.79036 14.7828 4.72965 14.9164C4.67005 15.0466 4.63142 15.1768 4.58617 15.3126C4.50449 15.5587 4.3897 15.8313 4.39412 16.094C4.39743 16.306 4.48021 16.5024 4.48131 16.711C4.48131 16.8644 4.50449 17.0167 4.51001 17.1713C4.48462 17.2165 4.45482 17.2607 4.44379 17.296C4.40957 17.4097 4.39302 17.5278 4.39412 17.647C4.39633 17.8799 4.42061 18.0311 4.54864 18.2397C4.59279 18.3125 4.65018 18.3787 4.66232 18.4615C4.66674 18.4935 4.66563 18.5289 4.67226 18.562C4.69433 18.6679 4.68881 18.7772 4.70206 18.8865C4.7153 18.9979 4.73517 19.0443 4.80139 19.1359C4.87093 19.2297 4.93936 19.3246 5.01331 19.4151C5.09278 19.5123 5.19984 19.5454 5.29255 19.6271C5.36871 19.6944 5.43603 19.7441 5.52985 19.7816C5.55634 19.7915 5.57179 19.7937 5.59497 19.8092C5.71969 19.892 5.80137 20.0774 5.88635 20.1955C6.00556 20.3599 6.19429 20.4582 6.38193 20.542L6.38745 20.5575C6.36647 20.6215 6.35654 20.6745 6.35764 20.7507C6.35985 20.8412 6.35433 20.8798 6.29142 20.9493C6.23513 21.0111 6.20754 21.0774 6.16008 21.1458C6.10489 21.2264 6.05964 21.3014 5.99893 21.3776C5.96472 21.4217 5.93823 21.4692 5.91174 21.5155C5.90181 21.5199 5.89408 21.5244 5.88415 21.5277C5.82675 21.5431 5.76605 21.5464 5.71417 21.5751C5.65788 21.6071 5.61373 21.6656 5.56186 21.7043C5.47908 21.7639 5.3952 21.7948 5.32235 21.8654C5.25613 21.9294 5.18549 21.9868 5.0994 22.0255C5.01662 22.063 4.92391 22.0928 4.8334 22.0994C4.7451 22.106 4.66674 22.1281 4.57623 22.1281C4.43496 22.1259 4.29258 22.1281 4.1513 22.1281C3.99457 22.1281 3.81908 22.106 3.66566 22.1325C3.6778 22.2352 3.89524 22.3555 3.9725 22.3952C4.063 22.4416 4.15903 22.4736 4.24843 22.5243C4.27602 22.5398 4.30582 22.553 4.33452 22.5674C4.38198 22.5906 4.39522 22.617 4.43716 22.6491C4.48352 22.6844 4.54643 22.7053 4.60051 22.7142C4.65349 22.723 4.67888 22.7429 4.73738 22.744C4.744 22.744 4.74952 22.7451 4.75504 22.7451C4.8047 22.7738 4.85216 22.8047 4.87203 22.8588C4.93274 22.8378 4.98572 22.8367 5.04642 22.8279C5.08064 22.8411 5.11375 22.8532 5.14575 22.8599C5.27158 22.8853 5.39961 22.8246 5.52323 22.7572C5.64464 22.7451 5.76384 22.7274 5.88525 22.6965C5.94264 22.6822 5.9901 22.6833 6.05412 22.6833C6.08282 22.6767 6.11041 22.6778 6.1369 22.6877C6.14904 22.6877 6.15677 22.6943 6.16008 22.7087C6.1965 22.7087 6.20202 22.7042 6.24065 22.6921C6.44925 22.6237 6.67883 22.6546 6.89737 22.6557C6.98346 22.6557 7.02981 22.6524 7.10818 22.6259C7.12142 22.6215 7.12694 22.6005 7.1435 22.595C7.19758 22.5762 7.30243 22.5773 7.36093 22.5696C7.42164 22.563 7.48455 22.5674 7.54636 22.5674C7.65894 22.5674 7.69977 22.5497 7.766 22.6469C7.80463 22.7053 7.83001 22.7539 7.88962 22.7959C7.93928 22.8312 7.95694 22.84 7.99116 22.8908C8.01323 22.9217 8.04082 22.9471 8.064 22.9769C8.14237 23.074 8.21521 23.1479 8.32559 23.2153C8.43817 23.2826 8.55847 23.3267 8.67657 23.3852C8.70196 23.3974 8.74942 23.436 8.78142 23.4482C8.91608 23.5033 9.09709 23.4857 9.23837 23.5055C9.31011 23.5166 9.38185 23.5331 9.4547 23.5365C9.55182 23.5409 9.65116 23.5409 9.75049 23.5387C9.77147 23.5751 9.78802 23.6104 9.79685 23.6314C9.83328 23.723 9.91716 23.8554 9.98669 23.9283C10.0154 23.9581 10.0628 23.9956 10.1037 24C10.1225 23.9636 10.1699 23.9757 10.2041 23.9614C10.2417 23.947 10.2814 23.9062 10.3123 23.8808C10.384 23.8212 10.4558 23.7561 10.5198 23.6954C10.5684 23.6501 10.5982 23.6225 10.6048 23.5629C10.7438 23.5331 10.8123 23.6799 10.8995 23.7693C10.937 23.8069 10.9845 23.8477 11.0385 23.8587C11.1346 23.8764 11.3123 23.8742 11.3939 23.8212C11.4226 23.8013 11.4712 23.7351 11.48 23.7042C11.4911 23.6634 11.4712 23.6104 11.5021 23.5795C11.5794 23.5022 11.7692 23.6236 11.852 23.6236C11.9745 23.6247 11.9988 23.4912 11.9855 23.3874C11.9789 23.3389 11.8818 23.2064 11.9304 23.1579C11.9789 23.1104 12.0672 23.1799 12.1014 23.2042C12.1732 23.255 12.2074 23.2958 12.2615 23.3654C12.3487 23.478 12.4756 23.5287 12.4822 23.3588C12.4855 23.2682 12.6202 23.095 12.7184 23.127C12.778 23.1468 12.831 23.234 12.8928 23.2649C12.9634 23.2992 13.0495 23.3168 13.1257 23.2958C13.1378 23.223 13.1301 23.1568 13.0981 23.095C13.0661 23.0332 13.0396 22.9912 13.0396 22.9195C13.0385 22.6369 13.3542 22.9614 13.4502 23.0155C13.5274 23.0596 13.6124 23.0928 13.6919 23.0453C13.7349 23.0188 13.8188 22.9371 13.8321 22.8919C13.8806 22.7274 13.7272 22.5365 13.5992 22.4658C13.5672 22.4493 13.544 22.4581 13.5087 22.4449C13.4888 22.4283 13.47 22.4129 13.4491 22.3974C13.4314 22.3941 13.4138 22.3897 13.3972 22.3853C13.3542 22.3477 13.3497 22.2881 13.299 22.2528C13.257 22.223 13.1996 22.2208 13.1544 22.1932C13.1334 22.1811 13.1202 22.1634 13.0992 22.1502C13.0517 22.1193 13.0065 22.106 12.9502 22.0939C12.8431 22.0696 12.7482 22.0243 12.6456 21.9901C12.5804 21.9681 12.5219 21.9305 12.4557 21.9217C12.3994 21.9129 12.3343 21.9228 12.2758 21.9228H12.0496C11.9723 21.9228 11.8741 21.9349 11.7813 21.9349C11.7802 21.9184 11.7791 21.9029 11.7791 21.893C11.7791 21.8235 11.7681 21.7429 11.778 21.6734C11.8056 21.4813 11.9922 21.2915 12.097 21.137C12.1103 21.1171 12.1246 21.0983 12.139 21.0796C12.1831 21.0718 12.2372 21.0464 12.2626 21.0277C12.4259 20.9129 12.4888 20.7098 12.6268 20.5807C12.671 20.5409 12.7317 20.52 12.7769 20.4725C12.8211 20.4239 12.8917 20.3776 12.9259 20.3235C12.9667 20.2595 12.9369 20.2176 12.9502 20.1414C12.959 20.0917 12.9822 20.0343 13.0021 19.988C13.0252 19.9372 13.0429 19.8798 13.0683 19.8301C13.0826 19.7992 13.1036 19.7849 13.1235 19.7573C13.1665 19.6977 13.2107 19.584 13.2327 19.5255C13.2946 19.3644 13.342 19.1999 13.384 19.0333C13.3983 18.9725 13.4215 18.924 13.4215 18.86C13.4204 18.8015 13.3961 18.7551 13.3895 18.6988C13.3862 18.6624 13.4016 18.6216 13.3928 18.5873C13.3895 18.573 13.3696 18.552 13.3685 18.5454C13.3497 18.4538 13.3453 18.3059 13.3729 18.2187C13.4138 18.0885 13.5241 18.0035 13.5926 17.8909C13.6466 17.8015 13.6665 17.7331 13.6853 17.626C13.7239 17.4031 13.7504 17.1139 13.6842 16.8953C13.6544 16.796 13.6466 16.7 13.6257 16.6006C13.6477 16.424 13.6268 16.2331 13.6257 16.0609C13.6246 15.9053 13.6621 15.7684 13.6908 15.6161C13.7338 15.391 13.7636 15.1691 13.831 14.9495C13.8552 14.8667 13.8608 14.7983 13.8608 14.7111C13.8586 14.4837 13.8652 14.2574 13.8641 14.0301C13.8619 13.891 13.8586 13.7597 13.8376 13.6228C13.8188 13.4937 13.7703 13.3745 13.7493 13.2464C13.7394 13.1879 13.7416 13.1361 13.7427 13.0753C13.746 12.9175 13.7427 12.7586 13.7427 12.6007C13.7427 12.4584 13.6919 12.1648 13.7857 12.0445C13.8409 12.0423 13.9148 12.1008 13.9568 12.1317C14.0506 12.2023 14.1411 12.2586 14.2261 12.3403C14.3685 12.4749 14.5031 12.7233 14.7018 12.774C14.7956 12.7972 14.8795 12.7641 14.9711 12.8082C15.0616 12.8513 15.1157 12.9418 15.1797 13.0157C15.2393 13.082 15.2802 13.1316 15.3596 13.1802C15.5583 13.3027 15.7448 13.4407 15.9391 13.5698C16.0528 13.6471 16.1841 13.6945 16.2823 13.7961C16.4159 13.9329 16.417 14.1504 16.545 14.2839C16.6742 14.4175 16.8419 14.5047 16.9644 14.6515C17.0605 14.7674 17.1852 14.8568 17.2702 14.9815C17.4026 15.1768 17.5086 15.423 17.5748 15.6514C17.6278 15.8313 17.6841 16.0411 17.7889 16.1967C17.9114 16.3799 18.0638 16.5576 18.1697 16.7496C18.2238 16.8501 18.2613 16.945 18.3364 17.0333C18.3827 17.0874 18.4523 17.1238 18.4942 17.1812C18.5295 17.232 18.5428 17.307 18.5759 17.3622C18.5924 17.3898 18.6123 17.3975 18.6112 17.4362C18.705 17.4549 18.8441 17.2463 18.8783 17.1757C18.9081 17.1139 18.9412 17.0598 18.9633 16.9936C18.9898 16.9152 19.024 16.8324 19.0074 16.7474C18.9975 16.6967 18.9721 16.6349 18.9589 16.5852C18.9346 16.4925 18.8772 16.4152 18.8518 16.317C18.8121 16.1658 18.7834 15.9693 18.8198 15.8126C18.8408 15.721 18.8397 15.6945 18.8209 15.5952C18.7999 15.4782 18.7536 15.3821 18.7083 15.2729C18.6785 15.2 18.6553 15.1228 18.6333 15.0455C18.6465 15.0576 18.6598 15.0698 18.6719 15.083C18.7315 15.1481 18.7525 15.2276 18.8198 15.285C18.8606 15.3192 18.886 15.3534 18.9191 15.3921C18.9754 15.4561 19.0218 15.5168 19.0759 15.5775C19.205 15.721 19.2536 15.8865 19.2801 16.062C19.2867 16.1051 19.322 16.1227 19.3341 16.1558C19.3452 16.1856 19.3419 16.2199 19.3408 16.2519C19.3452 16.1735 19.3772 16.115 19.3926 16.0388C19.4103 15.9561 19.3993 15.8634 19.3993 15.7784C19.3993 15.6614 19.4136 15.5356 19.3926 15.4208Z"/>
  <path d="M19.3407 16.2695V16.2673C19.3407 16.2618 19.3408 16.2574 19.3408 16.2519C19.3408 16.2552 19.3396 16.2584 19.3396 16.2607C19.3396 16.264 19.3407 16.2662 19.3407 16.2695Z"/>
</svg>
