<svg width="25" height="24" viewBox="0 0 25 24" fill="#000000" xmlns="http://www.w3.org/2000/svg">
  <path d="M19.9193 13.0794C19.962 13.075 20.0048 13.0695 20.0476 13.0662C20.0158 13.0662 19.9576 13.064 19.9193 13.0794Z"/>
  <path d="M17.3526 18.3802C17.4096 18.3769 17.4666 18.3769 17.5247 18.378H17.3734C17.3668 18.378 17.3591 18.3791 17.3526 18.3802Z"/>
  <path d="M19.334 17.4206C19.4832 17.4075 19.6345 17.3976 19.7814 17.3724C20.1663 17.3077 20.5479 17.2013 20.9339 17.1333L20.6323 17.1465C20.3231 17.2035 20.0161 17.2726 19.7069 17.3318C19.5808 17.3559 19.4579 17.391 19.334 17.4206Z"/>
  <path d="M23.0375 14.449C22.9937 14.4852 22.9432 14.506 22.8851 14.5115C22.8314 14.5137 22.7777 14.517 22.7228 14.5203C22.5737 14.5422 22.4344 14.597 22.282 14.62C22.2732 14.6211 22.2667 14.6222 22.259 14.6233C22.2623 14.6244 22.2678 14.6244 22.271 14.6255C22.339 14.6453 22.3939 14.6847 22.4651 14.6913C22.5309 14.6957 22.9378 14.6453 22.9564 14.7144C22.9103 14.722 22.8698 14.7505 22.8248 14.7582C22.7952 14.7538 22.7656 14.7516 22.7349 14.7505C22.6176 14.7659 22.5046 14.7955 22.3939 14.8416C21.8478 14.994 21.282 14.9249 20.726 14.9797C20.397 15.0126 20.0505 15.085 19.7194 15.0685C19.613 15.0631 19.511 15.0236 19.4036 15.028C19.2676 15.0334 19.1327 15.062 18.9945 15.0652C18.6974 15.0729 18.386 15.0861 18.0899 15.0587C18.1052 15.0378 18.1184 15.0159 18.1316 14.994C17.9846 14.9457 17.8245 14.9589 17.6721 14.96C17.4385 14.9622 17.205 14.9633 16.9725 14.9589C16.728 14.9545 16.456 14.9742 16.2214 14.8854C16.251 14.8558 16.2883 14.8426 16.3343 14.8448C16.4056 14.8229 16.4725 14.7922 16.5339 14.7527C16.649 14.7067 16.7696 14.7275 16.8892 14.722C16.9561 14.7198 16.9703 14.7001 17.0306 14.6869C17.1359 14.6628 17.33 14.688 17.4243 14.688C17.6173 14.688 17.773 14.7165 17.9671 14.6968C18.08 14.6847 18.1831 14.6968 18.2906 14.6551C18.3377 14.6365 18.3684 14.6036 18.409 14.5828C18.5121 14.5312 18.6787 14.5861 18.7917 14.5861C18.9233 14.585 19.057 14.5882 19.1832 14.6288C19.2182 14.6409 19.2292 14.6584 19.2676 14.6562C19.295 14.6497 19.3213 14.6398 19.3476 14.6277C19.5022 14.6146 19.6569 14.6124 19.8126 14.62C20.0615 14.6222 20.2962 14.619 20.5407 14.5784C20.862 14.5257 21.1745 14.5038 21.498 14.4742C21.7085 14.4545 21.9026 14.4468 22.1142 14.449C22.2743 14.4501 22.3961 14.4292 22.5496 14.415C22.5331 14.4139 22.5189 14.4128 22.5068 14.4117C22.5013 14.4128 22.4969 14.4139 22.4893 14.415C22.4498 14.4183 22.4202 14.4073 22.5068 14.4117C22.5463 14.4073 22.5726 14.3985 22.6143 14.3887C22.7491 14.3547 22.9202 14.3865 23.0595 14.3733C23.1428 14.3656 23.2316 14.3426 23.3172 14.3426C23.224 14.3777 23.1296 14.4117 23.0375 14.449ZM22.2425 15.7659C22.1987 15.7967 22.1208 15.8175 22.0682 15.8317C21.8269 15.9008 21.5539 15.9217 21.305 15.9184C21.1789 15.9173 21.078 15.9173 20.9574 15.9502C21.0583 15.9436 20.5407 16.2243 20.5758 16.2046C20.4979 16.2495 20.408 16.3219 20.3214 16.3636C20.192 16.425 20.0418 16.4294 19.8981 16.4305C19.9014 16.4305 19.9069 16.4305 19.9102 16.4305H19.7906C19.8257 16.4305 19.8619 16.4305 19.8981 16.4305C19.7512 16.4184 19.5779 16.4414 19.4441 16.4908C19.3816 16.5138 19.3476 16.5324 19.2786 16.5335C18.9781 16.5379 18.6765 16.5346 18.375 16.5335C18.3421 16.5335 18.3092 16.5335 18.2763 16.5335C17.8497 16.5368 17.4232 16.4853 17.0021 16.4239C17.0054 16.3471 17.2576 16.2791 17.33 16.255C17.4243 16.2243 17.5241 16.2265 17.6228 16.2232C17.8443 16.2177 18.068 16.2254 18.2895 16.2254H18.8531C18.6689 16.2254 18.4846 16.2254 18.3015 16.2254C18.2971 16.2254 18.2938 16.2254 18.2895 16.2254H18.2829C18.7522 16.2254 19.2468 16.2649 19.7073 16.1695C19.9003 16.1289 20.0461 16.0379 20.2249 15.9853C20.3236 15.9578 20.4201 15.9524 20.5188 15.9513C20.4201 15.9502 20.3214 15.9502 20.2216 15.9546C20.0681 15.9633 19.9135 16.0116 19.761 15.9765C19.8323 15.8822 19.92 15.801 20.0429 15.8153C20.0297 15.8153 20.0165 15.8164 20.0034 15.8175C20.2655 15.7605 20.522 15.7462 20.7896 15.7484C21.1251 15.7528 21.4453 15.7078 21.7765 15.6684C21.8905 15.6552 22.0572 15.6113 22.1702 15.6508C22.1713 15.6596 22.1724 15.6695 22.1735 15.6793C22.3171 15.6442 22.3237 15.6431 22.3303 15.642C22.2941 15.6771 22.2853 15.7352 22.2425 15.7659ZM21.782 17.4546C21.7041 17.5149 21.5747 17.527 21.4848 17.5632C21.3488 17.618 21.2195 17.6849 21.0923 17.7584C21.0352 17.7913 20.9793 17.8242 20.9223 17.8571C20.8861 17.8801 20.8543 17.9086 20.8203 17.9327C20.8269 17.9262 20.8335 17.9185 20.8389 17.9097C20.6163 17.9459 20.3883 17.9733 20.1657 18.0172C20.5396 17.879 20.9047 17.7211 21.2721 17.5709C21.3478 17.5402 21.476 17.5117 21.5133 17.425C21.4651 17.4513 21.4344 17.4535 21.3631 17.4634C21.2085 17.4842 21.0517 17.4985 20.8971 17.516C20.2951 17.5829 19.6766 17.561 19.0724 17.5588C19.0921 17.538 18.7961 17.5511 18.7632 17.5544C18.659 17.5643 18.5548 17.5807 18.4507 17.5994C18.6097 17.5643 18.7665 17.5193 18.9244 17.4821C18.6415 17.5117 18.3662 17.5555 18.0833 17.6103C17.4385 17.7354 16.7828 17.6948 16.1303 17.6948H16.5777C16.7751 17.6707 16.9692 17.595 17.1633 17.5555C17.3749 17.5139 17.5866 17.4788 17.7971 17.4316C18.0636 17.3713 18.33 17.3154 18.5987 17.266C18.6842 17.2496 18.8399 17.1761 18.9255 17.1849C18.9266 17.1959 18.9277 17.2057 18.9277 17.2167L20.6323 17.1465C20.7552 17.1235 20.8784 17.1026 21.0023 17.0851C21.1087 17.0708 21.1997 17.0796 21.305 17.0456C21.4201 17.0072 21.5035 17.0171 21.6241 17.0094C21.5945 17.0083 21.5682 17.0171 21.5386 17.027C21.4344 17.0621 21.3752 17.0752 21.26 17.0862C21.1504 17.0972 21.0425 17.1147 20.9339 17.1333L21.4212 17.1136C21.464 17.1136 21.5057 17.1147 21.5484 17.1125C21.476 17.1487 21.4026 17.1871 21.3302 17.2145C21.0955 17.3066 20.7666 17.232 20.5549 17.391C20.9267 17.3241 21.3324 17.3329 21.7085 17.3516C21.7951 17.356 21.8774 17.3801 21.782 17.4546ZM20.6778 18.038C20.6317 18.0556 20.5681 18.0358 20.5199 18.0369C20.59 18.0051 20.6942 18.0062 20.7699 17.97C20.7392 17.993 20.7063 18.0128 20.6778 18.038ZM19.4737 18.2398C19.4551 18.2464 19.4365 18.254 19.4211 18.2573C19.3432 18.276 19.2654 18.2858 19.1864 18.2935C19.1404 18.3045 19.0943 18.3165 19.0483 18.3275C18.8772 18.367 18.7105 18.4064 18.5406 18.4448C18.2182 18.5172 17.8914 18.5578 17.5603 18.5764C17.2576 18.594 16.9495 18.6115 16.6468 18.6203C16.5087 18.6181 16.3705 18.6126 16.2323 18.6016C16.1435 18.5983 16.0547 18.5896 15.9659 18.5753C15.9242 18.5457 15.9034 18.5402 15.9439 18.4964C16.0152 18.4163 16.2367 18.401 16.3233 18.3922C16.5284 18.3725 16.7302 18.3527 16.9297 18.3012C17.0942 18.2584 17.239 18.2156 17.4056 18.2069H17.3366H17.3344C17.2401 18.2069 17.1447 18.2069 17.0493 18.2069H17.3366C17.4089 18.2069 17.5087 18.1904 17.5855 18.2047C17.6348 18.2058 17.6831 18.2069 17.7324 18.2069H17.5931C17.603 18.2091 17.614 18.2102 17.6228 18.2135C17.478 18.2332 17.3322 18.2453 17.1874 18.2661C17.4122 18.3089 17.6469 18.2727 17.8695 18.3154C17.705 18.3396 17.539 18.3615 17.3734 18.378C17.6135 18.378 17.8541 18.3768 18.0943 18.3779C18.227 18.3779 18.3585 18.3823 18.4901 18.3757C18.6393 18.3692 18.784 18.3352 18.932 18.3176C19.0176 18.3078 19.102 18.3012 19.1864 18.2935C19.2566 18.276 19.3268 18.2584 19.397 18.2464C19.4222 18.2431 19.4485 18.242 19.4737 18.2398C19.5077 18.2277 19.5428 18.2146 19.5713 18.2124C19.5417 18.2332 19.5077 18.2376 19.4737 18.2398ZM10.5544 18.9405C10.4743 18.9613 10.4085 19.0052 10.3263 19.0194C10.1289 19.0556 9.88328 19.0381 9.68481 19.0194C9.38545 18.992 9.09596 18.9525 8.79221 18.958C8.64308 18.9591 8.50491 18.9306 8.35907 18.9229C8.22091 18.9152 8.11235 18.9065 7.97418 18.8758C7.89304 18.8582 7.82395 18.8571 7.74062 18.8571C7.57394 18.856 7.41165 18.8231 7.24497 18.8198C7.13532 18.8177 7.02457 18.8209 6.91491 18.822C6.84802 18.822 6.69889 18.8429 6.62542 18.8144C6.67696 18.7431 6.94232 18.787 7.04321 18.787H7.34147C7.50486 18.787 7.66715 18.787 7.83053 18.7859C8.28889 18.7815 8.74835 18.799 9.20452 18.8341C9.35145 18.8462 9.49072 18.8791 9.63656 18.89C9.5609 18.822 9.6552 18.822 9.7506 18.8209C9.83284 18.8198 9.88657 18.8418 9.96223 18.8527C10.0543 18.8659 10.153 18.856 10.2462 18.8549C10.5456 18.8527 10.8439 18.8615 11.1421 18.89C10.948 18.9372 10.7441 18.8933 10.5544 18.9405ZM6.21202 16.7002C6.1879 16.7024 6.16377 16.7046 6.14074 16.709C6.03657 16.7298 5.94775 16.7978 5.84029 16.8088C5.76463 16.8164 5.68458 16.8022 5.60892 16.8044C5.53216 16.8077 5.46417 16.8395 5.38851 16.8406C5.28543 16.8439 5.21196 16.8822 5.11218 16.902C4.91151 16.9436 4.68781 16.9579 4.48166 16.9743C4.34459 16.9853 4.30292 16.97 4.19107 16.9086C4.08251 16.8493 3.90158 16.8395 3.77219 16.8395C3.9279 16.8439 4.08361 16.8406 4.00027 16.7726C4.054 16.7704 4.10115 16.7726 4.15489 16.7671C4.30621 16.7507 4.44657 16.6717 4.59899 16.6673C4.85997 16.6585 5.12095 16.6333 5.38193 16.6092C5.52009 16.596 5.65936 16.6103 5.79204 16.584C5.87976 16.5664 5.94665 16.5544 6.02341 16.5917C6.07824 16.6191 6.14074 16.6783 6.19228 16.6969C6.19776 16.6991 6.20544 16.6991 6.21202 16.7002C6.3151 16.6925 6.42694 16.7035 6.52892 16.7035H6.58485C6.48945 16.7035 6.31181 16.7276 6.21202 16.7002ZM3.05943 14.9391C3.00241 14.9293 2.94429 14.9183 2.88727 14.9315C3.42897 14.881 3.98382 14.7648 4.52991 14.7889C4.96305 14.8087 5.40386 14.8481 5.82932 14.9315C5.9335 14.9512 6.03328 14.9688 6.13307 14.9929C6.24601 15.0203 6.3787 14.9655 6.48945 15.0016C6.5048 15.028 6.52892 15.0411 6.55963 15.0444C6.62542 15.0696 6.6956 15.0773 6.76797 15.0663C6.85679 15.0674 6.94671 15.0642 7.03553 15.0642C7.17918 15.0652 7.31625 15.0433 7.4599 15.0324C7.52679 15.028 7.59587 15.0389 7.66276 15.0313C7.70553 15.0269 7.74281 15.0115 7.78338 14.9973C7.97308 14.9348 8.18253 14.8997 8.37223 14.8591C8.37881 14.8591 8.55645 14.8591 8.73409 14.8591C8.85252 14.858 8.97424 14.847 9.09157 14.8668C9.1135 14.8701 9.19684 14.8832 9.21 14.8964C9.23851 14.9238 9.23522 14.983 9.22096 15.0247C8.95121 15.0356 8.68036 15.0148 8.41171 15.051C8.22968 15.0751 8.05642 15.1628 7.8722 15.1705C7.36779 15.1924 6.8546 15.1661 6.34799 15.1661C6.14623 15.1661 4.71742 15.2221 4.70316 15.062C4.40271 15.0685 4.09238 15.0861 3.79302 15.0609C3.54411 15.04 3.30506 14.9786 3.05943 14.9391ZM10.2166 16.1914C10.1892 16.0697 10.2649 16.1475 10.3658 16.1607C10.4283 16.1684 10.4886 16.1475 10.5511 16.1651C10.5686 16.1848 10.5906 16.1936 10.618 16.1925C10.6443 16.1925 10.6717 16.1914 10.698 16.1892C10.7342 16.198 10.7441 16.2342 10.7868 16.2265C10.698 16.2232 10.6081 16.2243 10.5193 16.2243C10.4009 16.2254 10.2835 16.2419 10.1651 16.2517C10.0445 16.2627 9.91618 16.2484 9.79556 16.266C9.68152 16.2824 9.58173 16.3263 9.46659 16.3274C9.38216 16.3296 9.29882 16.3296 9.21438 16.3296C9.07403 16.3285 8.96656 16.2901 8.83607 16.255C8.75602 16.2342 8.70339 16.2309 8.61676 16.2276C8.55536 16.2254 8.49614 16.2101 8.43693 16.1925C8.36346 16.1925 8.28999 16.1925 8.21762 16.1925C8.03011 16.1936 7.84808 16.1574 7.66166 16.1574C7.81737 16.164 7.96541 16.1267 8.12002 16.1223C8.23077 16.1201 8.33276 16.1607 8.43693 16.1925C8.54439 16.1914 8.65185 16.1914 8.75931 16.1914H10.2166ZM24.2613 13.0673C24.0793 13.0893 23.8896 13.0728 23.7064 13.0728H22.9959C22.5627 13.0728 22.1088 13.0344 21.6855 13.0904C21.5199 13.1112 21.3532 13.1079 21.1855 13.1068C20.7556 13.1057 20.3181 13.1386 19.8904 13.0991C19.897 13.0904 19.908 13.0849 19.9189 13.0805C19.533 13.1167 19.1481 13.1649 18.7621 13.1967C18.6217 13.2088 18.5603 13.211 18.4572 13.2329C18.398 13.2603 18.3333 13.2669 18.2653 13.2526C17.9101 13.279 17.5559 13.302 17.1995 13.3195C16.8683 13.3239 16.5394 13.3459 16.2104 13.3831C16.1325 13.3634 16.0678 13.3777 16.0152 13.4259C16.0744 13.4632 16.195 13.4511 16.2575 13.4566C15.9856 13.4906 15.7169 13.4818 15.4527 13.5728C15.4253 13.5827 14.9121 13.8283 14.9406 13.9654C15.1117 13.9742 15.2849 13.972 15.4461 14.0323C15.4647 14.1409 15.4066 14.142 15.3573 14.2286C15.4932 14.3229 15.6358 14.3974 15.7455 14.5225C15.6303 14.6014 15.5185 14.6869 15.411 14.7769C15.2904 14.8426 15.206 14.9413 15.1599 15.0718C15.3035 15.0981 15.4483 15.1201 15.593 15.1365C15.7345 15.1343 15.8639 15.1738 15.9801 15.2561C15.8661 15.3997 15.7257 15.5094 15.5579 15.5839C15.3957 15.6738 15.2399 15.7747 15.0919 15.8866C14.9099 15.9842 14.764 16.1223 14.6544 16.3C14.6664 16.3427 14.6785 16.3866 14.6906 16.4294C14.7991 16.4327 14.8967 16.4645 14.9845 16.5237C14.9209 16.6607 14.8178 16.732 14.6928 16.8132C14.6083 16.868 14.4285 16.9086 14.3989 17.0029C14.752 17.0687 15.1062 17.1147 15.4625 17.163C15.479 17.2419 15.4483 17.3 15.3715 17.3373C15.297 17.3998 15.2367 17.4766 15.1917 17.5643C15.2092 17.5972 15.2356 17.6027 15.2717 17.5829C15.3408 17.6685 15.0667 17.8516 15.0097 17.902C14.8923 18.0062 14.6763 18.1542 14.6906 18.3319C14.8814 18.3385 15.1051 18.2902 15.286 18.3505C14.9844 18.5479 14.673 18.7255 14.3561 18.8977C14.2388 18.9613 14.0217 19.0293 13.9427 19.1433C14.0326 19.162 14.1237 19.1718 14.2147 19.1718C14.2958 19.1773 14.3759 19.1784 14.457 19.1762C14.5294 19.2091 14.593 19.3133 14.6423 19.3714C14.7454 19.4909 14.7586 19.5326 14.8254 19.6434C14.8441 19.6741 14.8759 19.6949 14.8945 19.7289C14.8265 19.8002 14.752 19.8627 14.6708 19.9175C14.5787 19.9636 14.5151 20.0359 14.48 20.1335C14.5919 20.1522 14.7048 20.1631 14.8189 20.1664C14.8956 20.139 14.9494 20.1565 14.9801 20.2191C14.6281 20.4011 14.3123 20.6346 13.9976 20.8748C14.0085 20.9548 14.0557 20.9746 14.1401 20.9351C14.241 20.9307 14.3419 20.9274 14.4417 20.9241C14.4406 21.0349 14.3704 21.1051 14.2311 21.1347C14.0732 21.2345 13.935 21.354 13.8144 21.4943C14.0129 21.615 14.2158 21.4987 14.4274 21.5503C14.3484 21.5744 14.2607 21.6457 14.321 21.7312C14.3572 21.7827 14.6292 21.7553 14.6939 21.752C14.8145 21.7476 14.8145 21.7246 14.9022 21.7104C14.4833 22.0152 13.9844 22.2312 13.5085 22.4264C13.5567 22.4407 13.605 22.4253 13.6521 22.4407C13.5644 22.4648 13.4756 22.4736 13.3846 22.467C13.2969 22.4966 13.2344 22.467 13.1993 22.3804C13.2322 22.3069 13.3835 22.0777 13.3572 21.9834C13.3626 21.9297 13.3352 21.9023 13.2738 21.9001C13.2113 21.8781 13.1576 21.8441 13.1104 21.7959C12.9876 21.7378 12.9635 21.6347 13.0381 21.4856C13.1126 21.3814 13.1861 21.2772 13.2607 21.1731C13.355 21.0601 13.4789 20.9998 13.4898 20.8474C13.3045 20.7794 13.174 20.6489 13.1006 20.457C13.0951 20.3452 13.0896 20.2322 13.0841 20.1193C13.128 19.8232 13.446 19.7486 13.6149 19.56C13.3177 19.5173 12.9547 19.5337 12.685 19.3901C12.7683 19.1883 13.0666 19.1346 13.2541 19.0622C12.8626 19.0282 12.4722 19.0293 12.0819 18.9887C12.3363 18.867 12.6005 18.7705 12.8747 18.6981C13.1554 18.7277 13.2881 18.651 13.2727 18.4679C12.9251 18.4306 12.5797 18.4108 12.231 18.3911C12.6071 18.2694 12.9865 18.1674 13.355 18.0248C13.5425 17.9525 13.7048 17.8648 13.8824 17.777C13.775 17.6147 13.5863 17.6147 13.3155 17.777C12.5446 17.7869 11.7726 17.7902 11.0007 17.788C10.4469 17.7891 9.89315 17.788 9.33939 17.7858C9.28456 17.7704 9.23961 17.7825 9.20342 17.8198C9.39203 17.6367 9.61353 17.4974 9.86574 17.4009C10.4963 17.0281 11.1235 16.6487 11.7463 16.2638C12.0994 16.0434 12.4525 15.7638 12.833 15.5894C12.7234 15.5543 12.6093 15.5466 12.4909 15.5675C12.2485 15.5631 12.0062 15.5631 11.7639 15.5653C11.3417 15.5664 10.9195 15.5806 10.4984 15.5653C10.6235 15.5159 10.7485 15.4655 10.8746 15.4183C10.9415 15.3942 11.0292 15.3876 11.0829 15.3394C10.7254 15.29 10.3669 15.2462 10.0094 15.2023C10.0423 15.165 10.084 15.1398 10.1355 15.1288C10.2221 15.096 10.2967 15.0444 10.3592 14.9742C10.4546 14.892 10.6542 14.7747 10.6202 14.6277C10.516 14.6409 10.4217 14.6497 10.3175 14.6409C10.3076 14.5696 10.4096 14.5433 10.4601 14.5192C10.7035 14.404 10.9426 14.2812 11.1838 14.1628C11.3088 14.1014 11.4415 14.0213 11.5753 13.9808C11.6049 13.972 11.6224 13.9577 11.6553 13.9599C11.5182 13.9654 11.3801 13.961 11.243 13.961C10.9239 13.961 10.6103 13.9786 10.2934 13.9928C10.1103 14.0005 9.92824 13.9873 9.74621 13.9906C9.51045 13.995 9.27579 14.0762 9.04223 14.1014C8.82072 14.1255 8.59812 14.1332 8.37552 14.1321C8.18033 14.1299 7.97418 14.1145 7.78009 14.1529C7.4917 14.211 7.18028 14.3251 6.88421 14.256C6.7592 14.2264 6.63858 14.1628 6.51357 14.1387C6.31181 14.0992 6.08921 14.0849 5.88525 14.0696C5.55299 14.0444 5.21306 14.0641 4.87971 14.0641C4.71303 14.0641 4.54636 14.0641 4.37968 14.063C4.23822 14.063 4.10664 14.0586 3.96737 14.0838C3.76451 14.1211 3.56713 14.1869 3.36427 14.2231C3.25571 14.2428 3.14606 14.2187 3.03969 14.2395C2.9739 14.2527 2.91468 14.2867 2.84889 14.2999C2.61752 14.3459 2.3686 14.3898 2.13613 14.4512C2.06266 14.4698 2.05718 14.4994 1.99138 14.4589C1.9541 14.4128 1.91572 14.3667 1.87734 14.3196C1.80607 14.2297 1.7315 14.143 1.65365 14.0586C1.56373 13.9588 1.52535 13.9446 1.39815 13.9687C1.02423 14.04 0.617403 13.995 0.234706 13.995C0.19194 13.9402 0.00333214 14.0542 4.24796e-05 14.0981C-0.00215063 14.131 0.0811891 14.233 0.107506 14.2593C0.190844 14.3448 0.312562 14.2659 0.401382 14.3569C0.423313 14.4018 0.452921 14.4424 0.488011 14.4775C0.511038 14.5093 0.538452 14.5345 0.572445 14.5543C0.657976 14.6475 0.734735 14.7637 0.811494 14.8646C0.890446 14.9688 0.949658 15.0828 1.03848 15.1815C1.10866 15.2615 1.20844 15.3383 1.25998 15.4293C1.2863 15.5105 1.31372 15.5927 1.34113 15.6738C1.37074 15.7714 1.4146 15.8624 1.47491 15.9447C1.55057 16.0829 1.62952 16.2177 1.71176 16.3515C1.85432 16.4436 2.00564 16.5193 2.16574 16.5774C2.56927 16.7825 2.99473 17.0544 3.32479 17.368C3.47283 17.5084 3.61977 17.6871 3.71955 17.868C3.81605 18.106 3.87307 18.3549 3.89062 18.6126C3.91913 18.8911 4.01453 19.1433 4.17462 19.3703C4.2766 19.5282 4.38845 19.6774 4.51017 19.8188C4.66149 19.9285 4.81391 20.037 4.96853 20.1434C5.12533 20.2684 5.25473 20.4175 5.35561 20.5919C5.49926 20.8046 5.678 20.9812 5.89402 21.1204C6.31729 21.4373 6.78332 21.7849 7.32502 21.82C7.58052 21.8069 7.83492 21.8134 8.08822 21.8387C8.33166 21.8463 8.54658 21.9253 8.733 22.0744C8.7648 22.1468 8.79769 22.2192 8.82949 22.2915C8.96437 22.5405 9.15627 22.7334 9.40628 22.8705C9.66616 23.0471 9.94798 23.1819 10.2484 23.2719C10.4085 23.3146 10.5719 23.3464 10.7375 23.3651C11.0226 23.4232 11.3033 23.4956 11.5818 23.5822C11.8176 23.6469 12.0468 23.7324 12.2672 23.841C12.3494 23.9111 12.4415 23.9638 12.5413 24C12.7683 23.989 12.9964 23.9747 13.2234 23.9594C13.4975 23.9386 13.7684 23.8947 14.0348 23.8256C14.2541 23.7785 14.4746 23.7324 14.695 23.6896C14.8178 23.6458 14.9351 23.5899 15.047 23.5241C15.1983 23.4605 15.309 23.4144 15.4384 23.3146C15.5744 23.2094 15.695 23.1392 15.8441 23.0657C15.9966 22.955 16.1435 22.8354 16.2828 22.7082C16.4363 22.5635 16.6041 22.4374 16.785 22.3299C16.9615 22.274 17.1425 22.2455 17.3278 22.2444C17.5208 22.2148 17.7127 22.1786 17.9035 22.1369C17.9813 22.1161 18.0581 22.1139 18.1338 22.1325C18.2763 22.1051 18.4156 22.0678 18.5526 22.0207C18.8037 21.9297 19.0132 21.7784 19.1821 21.5689C19.3707 21.354 19.5768 21.1588 19.8005 20.9823C20.0341 20.843 19.9222 20.9384 20.0045 21.0689C20.2764 20.7915 20.4354 20.4164 20.6569 20.0995C21.0451 19.5447 21.5254 19.0721 21.9443 18.5435C22.2941 18.1005 22.5715 17.6093 22.884 17.1399C23.0408 16.9042 23.1746 16.7046 23.2799 16.4414C23.3402 16.289 23.3841 16.1201 23.474 15.9809C23.6012 15.7824 23.7141 15.596 23.792 15.3701C23.8819 15.108 23.8051 14.835 23.8885 14.5685C23.963 14.3338 24.2054 14.1847 24.3852 14.0312C24.4894 13.9588 24.5826 13.8733 24.6626 13.7768C24.6857 13.7088 24.7076 13.6408 24.7273 13.5717C24.7482 13.5125 24.746 13.472 24.7536 13.4127C24.7679 13.3152 24.8282 13.2198 24.8721 13.1331C24.9061 13.0684 24.9587 12.9752 24.9686 12.9039C24.7295 12.9412 24.4992 13.0388 24.2613 13.0673Z"/>
  <path d="M9.81834 2.59638C9.7701 2.58322 9.72185 2.57116 9.6736 2.558C9.78106 2.57445 9.8644 2.5876 9.81834 2.59638ZM18.2903 5.16341C18.3188 5.13599 18.344 5.11297 18.3682 5.08884C18.4241 5.10091 18.4811 5.11626 18.5392 5.13051C18.5677 5.13709 18.5941 5.14586 18.6226 5.15464C18.5897 5.16231 18.5568 5.16999 18.5228 5.16999C18.4504 5.16999 18.3846 5.15354 18.3133 5.1667C18.3024 5.16889 18.2903 5.17218 18.2783 5.17437C18.2815 5.17108 18.2859 5.1667 18.2903 5.16341ZM3.99345 5.15683C3.98797 5.10091 3.94082 5.11077 3.90573 5.08336C3.86625 5.05266 3.82349 5.00112 3.79059 4.96493C3.71383 4.88379 3.73357 4.78071 3.74453 4.67325C3.75002 4.62171 3.75879 4.56688 3.80375 4.54166C3.87941 4.49999 4.01977 4.55153 4.09653 4.52192C4.17548 4.49232 4.22811 4.35854 4.29171 4.30152C4.36847 4.23243 4.43975 4.21818 4.53405 4.1798C4.60862 4.1491 4.66125 4.09537 4.73034 4.05808C4.7731 4.03615 4.80161 4.0197 4.83341 3.98571C4.92772 3.88592 5.01983 3.74337 5.14483 3.67758C5.22269 3.63481 5.34112 3.5756 5.42774 3.55696C5.55165 3.53064 5.70627 3.56463 5.83018 3.57012C5.94532 3.5745 6.05936 3.57999 6.1745 3.58547C6.01769 3.72034 5.85979 3.85303 5.6975 3.98132C5.5703 4.0833 5.44639 4.18748 5.32905 4.29932C5.28519 4.34099 5.20185 4.39363 5.18321 4.45284C5.16457 4.50877 5.18541 4.60965 5.1865 4.66557C5.1876 4.70176 5.18541 4.73904 5.18541 4.77633C5.06917 4.94081 4.97158 5.12064 4.90469 5.29829C4.8674 5.39807 4.83889 5.4847 4.81587 5.58997C4.79613 5.67331 4.80051 5.74458 4.79284 5.82902C4.77858 5.97705 4.68538 6.01762 4.59107 6.11302C4.54282 6.16127 4.51322 6.22816 4.47922 6.29067C4.44304 6.35646 4.42111 6.43103 4.37834 6.49243C4.31255 6.58564 4.21496 6.66898 4.19522 6.78521C4.17438 6.90693 4.19851 6.99794 4.23798 7.1065C4.28733 7.23919 4.15464 7.38174 4.06911 7.47823C4.02525 7.52868 4.00661 7.56377 4.00222 7.59886C3.98907 7.61859 3.97481 7.63723 3.96275 7.65807C3.89257 7.78417 3.91231 7.88286 3.93533 8.01555C3.95617 8.13946 3.93095 8.30613 3.91779 8.43004C3.92656 8.42566 3.93204 8.41688 3.93753 8.40921C3.92985 8.4421 3.92327 8.4739 3.91998 8.5068C3.91669 8.53641 3.90463 8.55176 3.91998 8.57698C3.95726 8.5704 3.96933 8.53202 4.0099 8.52764C4.0428 8.40044 4.05595 8.27104 4.06473 8.14165C4.08337 8.10546 4.10091 8.06818 4.11078 8.03528C4.12504 7.98375 4.09762 7.91905 4.11407 7.86861C4.12394 7.839 4.14587 7.83571 4.15464 7.80501C4.16671 7.76224 4.14587 7.70961 4.15684 7.66684C4.16451 7.63723 4.17548 7.61421 4.18535 7.59008C4.23579 7.56596 4.29829 7.5517 4.35093 7.52429C4.5198 7.43547 4.63165 7.31265 4.77858 7.19752C4.82574 7.16023 4.87727 7.14488 4.9321 7.12185C5.04834 7.07251 5.16238 7.0429 5.28848 7.02536C5.3773 7.0122 5.46064 6.99575 5.54727 6.97601C5.59113 6.96505 5.68434 6.96505 5.72162 6.94202C5.75232 6.92338 5.76329 6.88171 5.76987 6.84881C5.80057 6.69091 5.78522 6.50888 5.7907 6.34659C5.79619 6.20952 5.82908 6.14154 5.92119 6.03846C6.00892 5.93867 6.08129 5.90578 6.20191 5.84437C6.44206 5.72155 6.64053 5.53295 6.86971 5.39478C7.00459 5.31364 7.15811 5.24894 7.30395 5.18863C7.39057 5.15244 7.4794 5.102 7.5726 5.08884C7.61318 5.08226 7.65594 5.08117 7.69871 5.08007C7.74038 5.08994 7.78095 5.102 7.82042 5.11626C7.84345 5.09762 7.86867 5.08336 7.89389 5.06911C8.06496 5.05375 8.25027 5.05924 8.42024 5.05595C8.44765 5.05595 8.47397 5.05595 8.50029 5.05704C8.54525 5.07568 8.58911 5.09652 8.62968 5.12393C8.74372 5.09762 8.85447 5.08884 8.95426 5.11626C9.09462 5.15573 9.02005 5.22043 9.11655 5.30158C9.15603 5.2928 9.1955 5.28622 9.23717 5.28403C9.24485 5.28403 9.25252 5.28074 9.2602 5.28074C9.40823 5.26758 9.52666 5.295 9.65167 5.34982C9.66812 5.34434 9.68457 5.34105 9.70101 5.33557L10.6122 6.13057C10.8151 6.31589 11.007 6.51546 11.177 6.73148C11.3546 6.77754 11.518 6.88939 11.6178 7.06812C12.018 7.78527 12.495 8.60001 12.551 9.43668C12.5696 9.71082 12.5279 9.9707 12.4621 10.2273C12.4994 10.2898 12.5246 10.3556 12.5312 10.4236C12.6069 11.1791 12.392 11.8973 11.9292 12.3853C11.8426 12.5871 11.7417 12.7746 11.6189 12.9336C11.6057 12.9796 11.5937 13.0268 11.575 13.0718C11.5345 13.1704 11.3864 13.3941 11.2669 13.3843C11.4171 13.5849 11.461 13.6113 11.6419 13.6365C11.8239 13.6628 12.0049 13.6255 12.1869 13.6277C12.2746 13.6299 12.3623 13.6354 12.449 13.6398C12.5685 13.6463 12.8317 13.631 12.9424 13.7045C13.0181 13.7538 13.0828 13.9293 13.0883 14.0126C13.0992 14.176 13.051 14.3547 12.9326 14.4688C12.7944 14.6025 12.6365 14.6607 12.7132 14.8811C12.745 14.9721 12.7615 14.983 12.8448 14.9644C12.9885 14.9315 13.1431 15.0214 13.2593 15.0971C13.3087 15.1289 13.4107 15.2374 13.4732 15.2254C13.4929 15.1771 13.4775 15.1168 13.4808 15.0653C13.4863 14.994 13.5104 14.9315 13.5433 14.8668C13.6091 14.7352 13.7396 14.5795 13.8986 14.5609C13.9611 14.5532 14.0258 14.5795 14.0883 14.5631C14.1651 14.5411 14.2002 14.4567 14.2386 14.3931C14.3625 14.1837 14.4436 13.9556 14.5248 13.7275C14.573 13.5893 14.6552 13.4687 14.7112 13.3338C14.8055 13.109 15.0248 12.9621 15.2265 12.847C15.3373 12.7834 15.5215 12.7055 15.572 12.5739C15.6334 12.5509 15.6531 12.4972 15.6586 12.4423C15.6685 12.3425 15.6509 12.2329 15.6487 12.1331C15.6476 12.0136 15.6027 11.9039 15.5818 11.7855C15.5588 11.6561 15.4875 11.5815 15.4108 11.4752C15.3581 11.4017 15.2452 11.2778 15.2189 11.1934C15.2068 11.1583 15.2178 11.1232 15.2134 11.087C15.2079 11.0486 15.1882 11.0223 15.1783 10.985C15.1553 10.8995 15.1246 10.8183 15.0993 10.7306C15.084 10.6725 15.0697 10.6319 15.0357 10.5859C15.0204 10.5639 15.0007 10.5617 14.9908 10.5321C14.9721 10.4806 14.993 10.3995 14.9809 10.3424C14.9656 10.2657 14.9371 10.1779 14.9085 10.1045C14.8954 10.0705 14.8811 10.0617 14.8757 10.0211C14.8691 9.97399 14.8778 9.92903 14.8658 9.88188C14.8449 9.79745 14.8 9.76893 14.7989 9.68121C14.7978 9.5573 14.7737 9.44655 14.8296 9.3336C14.857 9.27878 14.9327 9.2075 14.9261 9.1428C14.9228 9.10881 14.8965 9.10223 14.8888 9.07262C14.88 9.04411 14.88 9.01231 14.8789 8.98051C14.5587 8.52435 14.4622 7.89054 14.6596 7.3313C15.0588 6.19636 15.9744 5.91784 16.9591 6.01543C17.3122 5.98254 17.6488 6.02749 17.9635 6.13276C17.9866 6.15908 18.0107 6.1832 18.0337 6.21062C18.0984 6.28518 18.1719 6.27641 18.2508 6.34111C18.3177 6.39594 18.3912 6.44638 18.457 6.5023C18.4822 6.55165 18.5009 6.60428 18.5085 6.63718C18.537 6.75999 18.4658 6.8214 18.3934 6.90693C18.3638 6.94202 18.3254 6.95408 18.2936 6.98479C18.2574 7.02097 18.2465 7.0747 18.2037 7.1065C18.1587 7.1405 18.0929 7.16572 18.0414 7.18765C17.8714 7.26221 17.6554 7.30388 17.4997 7.17559C17.4493 7.13282 17.3769 7.0758 17.344 7.01659C17.3418 7.0111 17.3385 7.00452 17.3352 6.99685C17.3319 7.01768 17.3286 7.03742 17.3254 7.05496C17.3188 7.09334 17.2881 7.10321 17.3275 7.15256C17.3462 7.17559 17.3955 7.18765 17.4208 7.21287C17.492 7.28524 17.526 7.36858 17.6368 7.38941C17.7695 7.41463 17.9614 7.41902 18.1017 7.39928C18.1609 7.39051 18.2201 7.3609 18.2794 7.35213C18.3309 7.34555 18.3813 7.35761 18.4307 7.34994C18.4965 7.33788 18.5557 7.27099 18.6248 7.25563C18.6982 7.23919 18.7673 7.27099 18.8254 7.30169C18.8408 7.30937 18.9132 7.34555 18.9296 7.34336C18.968 7.34007 18.9691 7.30608 18.9976 7.29072C19.0119 7.28414 19.0228 7.28195 19.0327 7.27866C19.07 7.32362 19.1062 7.37516 19.0974 7.40477C19.1062 7.34884 19.0787 7.31266 19.0711 7.26112C19.0711 7.25673 19.0711 7.25234 19.0711 7.24796C19.0711 7.24686 19.0711 7.24686 19.0722 7.24686C19.0798 7.22932 19.0765 7.19203 19.0744 7.16352C19.0755 7.15475 19.0755 7.14598 19.0744 7.13721C19.0776 7.06264 19.0952 6.97492 19.0864 6.90254C19.0809 6.86526 19.059 6.83565 19.0535 6.79837C19.048 6.76438 19.0612 6.726 19.0612 6.692C19.0612 6.56919 19.0173 6.50998 18.9603 6.41896C18.9362 6.38058 18.9066 6.35098 18.8759 6.32247C19.0952 6.32356 19.3156 6.33234 19.5349 6.35317C19.5557 6.3751 19.5766 6.39923 19.5886 6.42554C19.6128 6.47379 19.6314 6.52643 19.6128 6.58564C19.6029 6.62073 19.5196 6.71065 19.604 6.726C19.7257 6.74683 19.7718 6.48585 19.7509 6.41129C19.7279 6.32576 19.6325 6.24351 19.5349 6.18101C19.4965 6.09548 19.4263 6.04942 19.3222 6.04613C19.2652 6.0264 19.2092 6.00885 19.1533 5.99021C19.1072 5.96718 19.0612 5.94416 19.0195 5.91455C18.9636 5.87507 18.9296 5.82134 18.8759 5.77638C18.7892 5.70401 18.7311 5.59984 18.6412 5.53075C18.5721 5.47702 18.4888 5.43645 18.4033 5.40027L19.0436 5.2632C19.116 5.27197 19.2268 5.27964 19.2871 5.31035C19.3408 5.33776 19.3595 5.39478 19.4066 5.42768C19.445 5.45509 19.4987 5.46386 19.5426 5.48689C19.5667 5.49895 19.5974 5.52637 19.6226 5.54062C19.7564 5.62177 19.9373 5.66234 20.0898 5.69743C20.1906 5.72156 20.5163 5.79831 20.3485 5.61519C20.2038 5.45619 19.9176 5.56365 19.7345 5.43755C19.6764 5.39807 19.6884 5.35531 19.6786 5.27855C19.6643 5.16999 19.6424 5.14586 19.5525 5.07678C19.4121 4.96822 19.3156 4.92765 19.139 4.92217C19.082 4.91997 19.0206 4.92655 18.9669 4.90682C18.9055 4.88598 18.8594 4.84651 18.7914 4.83664C18.7498 4.83006 18.7048 4.83554 18.6631 4.83225C18.6171 4.82896 18.5952 4.818 18.5612 4.80593C18.5721 4.77523 18.5842 4.74562 18.593 4.70944C18.6116 4.63048 18.6346 4.55153 18.6566 4.47148C18.7322 4.42762 18.8112 4.42872 18.8901 4.39801C18.9472 4.37499 19.0009 4.35525 19.0645 4.3377C19.1939 4.30261 19.32 4.24998 19.4472 4.21489C19.5327 4.22915 19.5185 4.24998 19.5853 4.29384C19.6248 4.32016 19.6632 4.32235 19.706 4.3377C19.7016 4.50657 20.0152 4.62061 20.0952 4.73137C20.1303 4.77961 20.1227 4.81142 20.1325 4.86405C20.1424 4.92107 20.1764 4.97042 20.1874 5.02963C20.2049 5.12942 20.1588 5.14586 20.0952 5.20946C20.1501 5.16231 20.2477 5.07678 20.2663 5.0066C20.2849 4.93642 20.2762 4.88598 20.3233 4.81909C20.3782 4.73904 20.3836 4.6875 20.3639 4.60746C20.3858 4.63377 20.4132 4.66667 20.4418 4.69408C20.433 4.66338 20.422 4.63487 20.4165 4.60197C20.4056 4.54386 20.4111 4.47477 20.4001 4.41227C20.3727 4.24779 20.3025 4.11839 20.1917 3.98571C20.1468 3.93198 20.1534 3.94733 20.0645 3.93088C19.9571 3.91224 19.8496 3.87606 19.7476 3.83658C19.7542 3.84316 19.7641 3.84864 19.7707 3.85522C19.7882 3.87277 19.8036 3.8925 19.8189 3.91114C19.8025 3.90895 19.786 3.90676 19.7707 3.90018C19.7323 3.88263 19.7191 3.85851 19.6851 3.83877C19.5678 3.76969 19.4187 3.7357 19.3079 3.65784C19.2915 3.64578 19.2761 3.63591 19.2619 3.62604C19.32 3.62604 19.3781 3.63043 19.4362 3.64249C19.4417 3.65674 19.4505 3.66771 19.4614 3.67648C19.5338 3.72034 19.593 3.77517 19.6731 3.80807C19.6972 3.81903 19.7224 3.82671 19.7476 3.83658C19.6884 3.78394 19.6171 3.7357 19.5568 3.68964C19.4921 3.6392 19.4516 3.59534 19.3956 3.53722C19.3671 3.50871 19.332 3.48568 19.3035 3.45498C19.1917 3.33765 19.0864 3.26856 18.9504 3.18194C18.8638 3.12821 18.7838 3.07447 18.6763 3.05254C18.6028 3.03829 18.5228 3.05912 18.4493 3.04816C18.343 3.03171 18.2355 2.97798 18.1346 2.94508C18.0425 2.91547 17.9548 2.89025 17.8649 2.86942C17.8649 2.86832 17.866 2.86832 17.866 2.86723C17.8714 2.79924 17.8572 2.73564 17.8243 2.67423C17.81 2.62708 17.7914 2.58103 17.7706 2.53716C17.7749 2.52729 17.7793 2.51742 17.7815 2.50756C17.8034 2.50427 17.8418 2.51304 17.8627 2.50427C17.9065 2.48562 17.8923 2.46369 17.9153 2.43847C17.9679 2.38036 17.9515 2.4286 18.0151 2.44615C18.1116 2.47247 18.1434 2.38255 18.2179 2.35514C18.2936 2.32882 18.3046 2.36829 18.3528 2.40009C18.4066 2.43628 18.4658 2.45602 18.5206 2.50098C18.5666 2.53826 18.6061 2.57335 18.661 2.59309C18.7081 2.60954 18.7618 2.61831 18.8134 2.63366C18.8419 2.64134 18.8759 2.64463 18.9099 2.64792C18.877 2.61392 18.8452 2.57225 18.8331 2.5569C18.8309 2.55361 18.8287 2.55032 18.8254 2.54703C18.8846 2.57993 18.9417 2.61831 18.9932 2.66546C18.968 2.65559 18.9395 2.6512 18.9099 2.64792C18.9472 2.6852 18.9844 2.71042 18.9965 2.66765C19.0009 2.67314 19.0053 2.67752 19.0097 2.683C18.9855 2.6523 18.9625 2.61612 18.9384 2.59089C18.8682 2.51194 18.7805 2.43628 18.6906 2.37487C18.6895 2.37378 18.6884 2.37268 18.6873 2.37158C18.5261 2.19175 18.2289 2.14789 17.9975 2.13582C17.9065 2.13034 17.8166 2.12705 17.7256 2.12376C17.6587 2.12047 17.5907 2.11938 17.5238 2.11499C17.4558 2.081 17.3944 2.03275 17.3199 2.00095C17.2431 1.96915 17.162 1.94173 17.0885 1.90774C17.003 1.86827 16.9109 1.84743 16.8275 1.79918C16.7354 1.74655 16.6477 1.6972 16.5676 1.62922C16.4667 1.54369 16.39 1.45486 16.2573 1.41429C16.186 1.39346 16.1126 1.37811 16.0413 1.35617C15.9514 1.32876 15.8801 1.32328 15.7858 1.3178C15.754 1.3167 15.7244 1.31889 15.6948 1.32218C15.6027 1.28709 15.5138 1.24213 15.4393 1.18402C15.3866 1.14235 15.3636 1.11932 15.3658 1.0612C15.2375 1.03817 15.107 1.02831 14.9787 1.00308C14.8811 0.984443 14.9327 0.976767 14.8811 0.95045C14.8329 0.927422 14.539 0.835312 14.5971 0.789257C14.5664 0.78816 14.5368 0.789257 14.5061 0.78816C14.4919 0.75965 14.4743 0.72785 14.4546 0.690567C14.3636 0.520601 14.2802 0.362697 14.0828 0.314449C13.858 0.258524 13.6047 0.262911 13.3745 0.265104C13.2988 0.2662 13.222 0.313352 13.153 0.310063C13.1135 0.308966 13.1069 0.287035 13.0762 0.273876C13.0312 0.254139 13.0071 0.245366 12.9523 0.239883C12.6968 0.213566 12.4687 0.0633383 12.2176 0.0128968C12.0564 -0.0210963 11.9237 0.0194755 11.7647 0.050179C11.6518 0.0721101 11.5257 0.077593 11.416 0.112683C11.2779 0.155448 11.2274 0.285938 11.1309 0.389014C11.0169 0.510732 10.9928 0.511828 10.8491 0.461387C10.6342 0.385724 10.3403 0.357214 10.1407 0.482221C9.90717 0.628063 9.75803 0.891236 9.62645 1.12151C9.55517 1.24652 9.50144 1.35289 9.47841 1.48447C9.45319 1.61825 9.43674 1.77287 9.39179 1.91103C9.34354 2.05687 9.27007 2.20162 9.29967 2.33649C9.2591 2.29811 9.21963 2.25754 9.18454 2.21697C8.89505 1.88691 8.80513 1.52943 8.3687 1.3814C8.30181 1.33534 8.23711 1.34192 8.17571 1.40004C8.16803 1.40552 8.15926 1.411 8.15158 1.41649C8.15049 1.41649 8.14939 1.41539 8.1472 1.41539C8.1143 1.4121 8.07702 1.40771 8.04412 1.41429C8.00355 1.42197 7.98162 1.45815 7.95091 1.46912C7.86209 1.49763 7.74586 1.46144 7.65046 1.46144C7.52764 1.46144 7.30395 1.54478 7.20087 1.46254C7.16468 1.43293 7.14714 1.37153 7.12192 1.33644C7.0956 1.29915 7.04845 1.22898 7.01336 1.20046C6.93989 1.14125 6.84888 1.11932 6.75896 1.11493C6.56597 1.10616 6.39161 1.18621 6.20081 1.19279C6.10212 1.19718 6.0155 1.24433 5.91681 1.25091C5.85979 1.25529 5.85979 1.24542 5.80715 1.28161C5.69201 1.36166 5.57139 1.42306 5.45954 1.50202C5.33892 1.58755 5.25668 1.61386 5.10316 1.58097C5.00118 1.55904 4.83889 1.45267 4.73801 1.52724C4.68538 1.56671 4.68099 1.64895 4.64809 1.70488C4.61081 1.76519 4.5823 1.7619 4.61081 1.84524C4.63384 1.91213 4.68099 1.96147 4.68647 2.03275C4.69415 2.15556 4.67989 2.30469 4.8038 2.37158C4.86631 2.40558 4.92552 2.40119 4.9946 2.40448C5.0922 2.40777 5.23256 2.44176 5.32357 2.41545C5.36963 2.40338 5.48147 2.39242 5.45077 2.32553C5.3773 2.34856 5.30274 2.36171 5.22488 2.3036C5.18541 2.27509 5.14374 2.21807 5.11303 2.17969C5.00447 2.04262 5.11303 1.87923 5.24901 1.79809C5.32028 1.75532 5.39814 1.72023 5.48367 1.73997C5.5692 1.75971 5.6953 1.8902 5.76 1.93735C5.8247 1.9845 5.87185 2.02617 5.9497 2.03823C6.06374 2.05687 6.10212 2.04591 6.16024 1.96476C6.21617 1.88691 6.26441 1.84633 6.27209 1.74764C6.32911 1.7312 6.40039 1.74764 6.4596 1.74984C6.58132 1.75532 6.70304 1.75971 6.82146 1.7926C6.93441 1.82221 6.99143 1.86169 7.0638 1.94941C7.14056 2.04152 7.23596 2.11499 7.31053 2.2082C7.33575 2.24 7.35877 2.27618 7.38071 2.31237C7.37413 2.31676 7.36864 2.32114 7.36097 2.32662C7.30066 2.3036 7.22828 2.25754 7.17675 2.22465C7.15811 2.21258 7.11973 2.18846 7.07915 2.15885C7.10547 2.206 7.13946 2.24877 7.18662 2.28276C7.2239 2.31018 7.26228 2.3343 7.30175 2.35843C7.26228 2.37816 7.2239 2.39571 7.20416 2.40777C7.13398 2.45383 7.07806 2.49878 7.0002 2.5262C6.89493 2.56458 6.78966 2.59309 6.68549 2.63585C6.63286 2.65778 6.58241 2.67643 6.52649 2.67862C6.39052 2.6841 6.29183 2.70274 6.16682 2.76196C6.0791 2.80472 5.99137 2.84968 5.89488 2.87052C5.8225 2.88587 5.78632 2.87381 5.73039 2.92425C5.64157 3.00429 5.62512 3.14794 5.53411 3.23019C5.45187 3.30365 5.33125 3.31901 5.23256 3.35958C5.11303 3.40892 5.02202 3.49007 4.91785 3.56025C4.71279 3.69732 4.46716 3.71157 4.2314 3.75653C4.16451 3.76969 4.10201 3.7675 4.0406 3.79491C3.94082 3.83987 3.83335 3.95391 3.76646 4.03944C3.68751 4.13923 3.63049 4.25546 3.55373 4.35744C3.51426 4.41227 3.47368 4.45942 3.44408 4.51754C3.38048 4.64803 3.37719 4.78949 3.43421 4.91449C3.52522 5.11297 3.77524 5.21166 3.99345 5.15683Z"/>
</svg>
