<svg width="24" height="24" viewBox="0 0 24 24" fill="#000000" xmlns="http://www.w3.org/2000/svg">
  <path d="M10.5503 6.89845C10.5693 7.02341 10.586 7.1495 10.6039 7.27558C10.6016 7.23541 10.5994 7.19413 10.5938 7.15284C10.5815 7.06804 10.5615 6.98325 10.5503 6.89845ZM10.3829 8.68816C10.3015 8.76849 10.2301 8.92135 10.2334 9.04297C10.2368 9.13558 10.3104 9.24493 10.345 9.33084C10.374 9.40225 10.4231 9.49263 10.5034 9.52945C10.6117 9.57855 10.7377 9.62987 10.8013 9.54061C10.8917 9.41118 10.837 9.37101 10.8895 9.52499C10.9029 9.52164 10.9163 9.51718 10.9308 9.51383C10.9721 9.15902 10.9888 8.79304 11.0256 8.43599C11.0457 8.23515 10.9799 8.06444 10.8538 7.90934C10.7556 7.78772 10.6741 7.69288 10.6451 7.54002C10.6284 7.45299 10.6161 7.36484 10.6039 7.27558C10.6128 7.5244 10.5548 7.76652 10.5659 8.01423C10.5715 8.14589 10.6496 8.3378 10.6016 8.46277C10.5681 8.55092 10.4465 8.62567 10.3829 8.68816ZM15.4943 9.64326C15.4932 9.61425 15.4932 9.58301 15.4921 9.55289C15.4865 9.5819 15.4854 9.61091 15.4943 9.64326ZM16.4818 7.86806C16.4795 7.93947 16.4784 8.00976 16.484 8.08117C16.4829 8.01088 16.4929 7.93724 16.4818 7.86806ZM13.9322 7.31128C13.8876 7.52775 13.8519 7.74644 13.8374 7.96848C13.8865 8.02427 13.9791 7.99302 14.036 7.9417C14.0862 7.89707 14.1286 7.82008 14.1398 7.75871C14.1476 7.71631 14.1275 7.66945 14.1353 7.62705C14.1442 7.57238 14.1777 7.53444 14.1855 7.48088C14.0951 7.42621 14.0137 7.36707 13.9322 7.31128ZM19.1864 14.4021C19.0391 14.4411 18.9142 14.1376 18.816 14.0484C18.7624 13.9993 18.7133 13.9524 18.6687 13.9011L19.1072 14.9488C19.1329 14.9388 19.1585 14.9298 19.1842 14.9187C19.1898 14.9153 19.1965 14.9131 19.2032 14.9097C19.2121 14.7379 19.2232 14.565 19.1864 14.4021ZM15.3872 6.47445C15.3995 6.5559 15.4106 6.63847 15.4218 6.72104C15.4251 6.7043 15.4274 6.68868 15.4296 6.67194C15.4843 6.29816 15.4173 5.91098 15.2823 5.55951C15.2946 5.86858 15.3426 6.16649 15.3872 6.47445ZM23.2066 12.4918C23.2077 12.6983 23.3115 12.8511 23.3137 13.0486C23.3204 13.4537 23.2211 13.8297 23.2099 14.2302C23.2032 14.4746 23.1553 14.6977 23.1564 14.9533C23.1586 15.3192 23.191 15.635 23.0347 15.9753C22.8797 16.3145 22.5851 16.6604 22.584 17.0431C22.5817 17.4046 22.507 17.7137 22.2894 18.0127C22.1789 18.1645 22.035 18.3129 21.9558 18.4836C21.8398 18.7313 21.7884 19.0348 21.7516 19.3048C21.7226 19.5224 21.669 19.6462 21.5151 19.8013C21.4548 19.8627 21.4124 19.9051 21.3321 19.9341C21.2696 19.9553 21.2607 19.9319 21.2015 19.9798C21.0888 20.0702 21.0342 20.2822 20.9851 20.4585C20.512 20.0222 19.905 19.7444 19.4051 19.3238C19.0425 19.0192 18.7602 18.6275 18.315 18.4289C18.1934 18.3742 18.0673 18.3352 17.9412 18.2995C17.698 17.8699 17.2572 17.6847 16.8277 17.4805C16.8589 17.3823 16.9259 17.2997 17.0084 17.2116C17.0709 17.1446 17.1312 17.0766 17.1892 17.0063C17.2729 16.9829 17.3565 16.9561 17.4369 16.9226C17.6991 16.8133 17.9356 16.6515 18.1041 16.4194C18.3027 16.1449 18.3741 15.7867 18.4065 15.4565C18.4478 15.0403 18.411 14.6174 18.4679 14.2023C18.479 14.1209 18.4589 14.0406 18.4043 13.9859C18.4612 13.9 18.5259 13.8118 18.5605 13.7181C18.5549 13.7036 18.5471 13.6913 18.5426 13.6768C18.5225 13.611 18.508 13.5496 18.4969 13.4894L18.5761 13.6779C18.5761 13.6757 18.5783 13.6735 18.5783 13.6712C18.6029 13.5686 18.5627 13.4916 18.5292 13.3979C18.431 13.1245 18.517 12.85 18.5594 12.57C18.6453 12.5599 18.7334 12.5432 18.8171 12.5186C18.864 12.6559 18.9142 12.7909 18.9588 12.9315C19.0324 13.1624 19.1652 13.3789 19.3393 13.544C19.481 13.6802 19.5636 13.8442 19.6718 14.0048C19.7354 14.0986 19.8079 14.1867 19.8637 14.2849C19.8927 14.3385 19.9161 14.3954 19.9385 14.4523C19.9954 14.4054 20.0523 14.3574 20.1092 14.3106C20.1594 14.1689 20.1594 14.026 20.1114 13.8821C20.0813 13.6757 20.0512 13.4682 20.0221 13.2617C20.1159 13.2673 20.2118 13.2182 20.2408 13.1066C20.445 12.3222 20.9962 11.4609 20.695 10.6341C20.4104 9.84857 19.8648 9.1936 19.4888 8.45384C19.4776 8.43153 19.4587 8.41256 19.4375 8.39582C19.4263 8.33111 19.4152 8.26639 19.414 8.19944C19.4073 7.91827 18.98 7.91827 18.9767 8.19944C18.9767 8.22064 18.9744 8.24184 18.9733 8.26193C18.9711 8.26974 18.9688 8.28759 18.9677 8.29429C18.9588 8.33334 18.9465 8.37016 18.932 8.40698C18.9276 8.41814 18.9142 8.44826 18.9108 8.45273C18.903 8.47058 18.893 8.4862 18.8841 8.50294C18.8606 8.54199 18.8361 8.57993 18.8104 8.61675C18.7981 8.63571 18.7847 8.65357 18.7702 8.67142C18.7658 8.67811 18.7535 8.69374 18.7502 8.6982C18.7211 8.7339 18.6921 8.76961 18.6631 8.80531C18.652 8.81759 18.6419 8.83098 18.6319 8.84325C18.6185 8.85218 18.604 8.86222 18.5906 8.87114C18.5303 8.9102 18.527 8.84994 18.4734 8.93474C18.4701 8.94032 18.4701 8.94925 18.4679 8.95483C18.4545 8.86891 18.44 8.783 18.4221 8.6982C18.4199 8.39582 18.4076 8.09568 18.3708 7.79553C18.3708 7.79219 18.3719 7.78772 18.3719 7.78326C18.3708 7.78326 18.3697 7.78326 18.3697 7.78326C18.3674 7.76317 18.3663 7.74421 18.3641 7.72412C18.3485 7.61478 18.2626 7.57014 18.1711 7.57126C18.1845 7.38939 18.1956 7.20863 18.2001 7.02676C18.1856 7.01783 18.1711 7.00891 18.1566 7.00221C18.0528 6.94977 17.862 6.89398 17.766 6.80584C17.6891 6.73331 17.6745 6.61504 17.6333 6.52243C17.5574 6.35283 17.4447 6.21447 17.3599 6.05492C17.2115 5.7782 17.0709 5.49368 16.8768 5.24374C16.8623 5.36202 16.8433 5.47917 16.8232 5.58741C16.7908 5.75812 16.802 5.91656 16.7998 6.08951C16.7908 6.68533 16.5019 7.27335 16.4818 7.86806C16.4795 7.85802 16.4784 7.84686 16.4762 7.83682C16.4505 7.74979 16.3769 7.62593 16.3289 7.5456C16.2553 7.42509 16.2318 7.40389 16.2185 7.2488C16.195 6.98101 16.1258 6.72773 16.1191 6.45883C16.1169 6.36399 16.1348 6.25129 16.0689 6.17096C16.0433 6.13972 15.9964 6.12856 15.973 6.10066C15.9005 6.0181 15.9072 5.91879 15.9094 5.80833C15.9138 5.59968 15.8413 5.38099 15.7945 5.17791C15.6204 5.21585 15.6907 5.64766 15.7409 5.76258C15.848 6.00136 15.8078 6.27696 15.8056 6.54474C15.8012 7.08478 15.8971 7.60027 15.819 8.13584C15.7833 8.38243 15.7833 8.63348 15.7509 8.87784C15.7219 9.08984 15.5925 9.24047 15.5267 9.42903C15.5512 9.4971 15.5613 9.56181 15.5356 9.60421C15.5177 9.60086 15.5032 9.57966 15.4921 9.55177V9.55289V9.55065C15.4731 9.50267 15.462 9.43461 15.453 9.39891C15.4396 9.34758 15.4363 9.28845 15.4374 9.22931C15.453 9.26167 15.4698 9.29737 15.4865 9.33308C15.482 9.20811 15.4809 9.08203 15.4832 8.95594C15.4709 8.99946 15.4608 9.04297 15.4519 9.08761C15.443 9.13112 15.4385 9.18021 15.4374 9.22931C15.4218 9.19584 15.4073 9.16348 15.4006 9.13893C15.3571 8.97714 15.3749 8.79081 15.337 8.62232C15.3035 8.47616 15.2991 8.29763 15.25 8.15704C15.1696 7.92831 14.9431 7.79888 14.9186 7.54337C14.8717 7.03903 15.0447 6.47668 14.7724 6.02368C14.711 5.92214 14.7032 5.81614 14.6619 5.70568C14.6073 5.56063 14.5783 5.44012 14.5593 5.29172C14.537 5.11432 14.4834 4.92798 14.4511 4.75503C14.4232 4.6044 14.422 4.45935 14.402 4.30984C14.3819 4.15251 14.2491 4.03759 14.1833 3.89477C14.1241 3.76645 14.1364 3.65041 14.1398 3.51429C14.1442 3.19629 14.1041 2.87718 14.0918 2.55695C14.0829 2.55695 14.0762 2.55472 14.0683 2.55472C14.0527 2.66072 14.0438 2.77006 14.0215 2.86602C13.9668 3.10256 13.824 3.27105 13.718 3.48528C13.6399 3.64372 13.5763 3.79993 13.5127 3.96283C13.4759 4.05544 13.4022 4.25293 13.3855 4.42476C13.3621 4.34331 13.3375 4.25963 13.3029 4.17483C13.2516 4.04428 13.2248 3.90927 13.1846 3.77426C13.1568 3.68165 13.1199 3.64372 13.1523 3.53772C13.188 3.41833 13.2929 3.33353 13.3096 3.2041C13.3241 3.09475 13.3141 2.94859 13.2761 2.84593C13.2683 2.82697 13.2594 2.808 13.2494 2.78903C13.0653 2.88387 12.8778 2.97983 12.6915 3.06686C12.6636 3.08136 12.6335 3.09141 12.6022 3.10033C12.5699 3.19183 12.5643 3.28444 12.5241 3.37704C12.4772 3.48528 12.3924 3.57566 12.3478 3.68054C12.2998 3.79212 12.2954 3.94275 12.369 4.05209C12.4839 4.22392 12.9581 4.31318 12.7249 4.57651C12.6547 4.65796 12.6413 4.65015 12.6245 4.75503C12.6056 4.87331 12.6167 4.98488 12.5877 5.10539C12.5185 5.39995 12.5208 5.68782 12.5219 5.98797C12.523 6.22563 12.4918 6.46218 12.4594 6.69761C12.407 7.07362 12.2284 7.4184 12.1447 7.78549C11.9707 7.84016 12.0532 7.2064 12.0532 7.15396C12.0555 6.82146 11.9975 6.499 11.9986 6.16538C12.0019 5.59856 12.0276 5.02282 11.9774 4.45824C11.964 4.31207 11.9852 4.24847 11.8859 4.13801C11.791 4.05098 11.6984 3.96394 11.6047 3.87691C11.5935 3.88696 11.5835 3.89812 11.5701 3.90593C11.4753 3.78988 11.3894 3.67719 11.27 3.5857C11.2287 3.55445 11.2053 3.52321 11.1919 3.49086C11.174 3.47524 11.1562 3.4585 11.1383 3.44176C11.0859 3.34692 11.0926 3.22195 11.1182 3.1048C11.0859 3.02781 11.0379 2.94747 10.981 2.88387C10.856 3.07132 10.5949 3.20633 10.4845 3.39601C10.4309 3.48639 10.4276 3.59239 10.3874 3.68723C10.3037 3.88361 10.1955 4.2295 10.3349 4.42588C10.3796 4.48836 10.4688 4.56981 10.4934 4.63788C10.5068 4.67247 10.4923 4.73272 10.4923 4.77065C10.4912 4.97261 10.4443 5.16006 10.3896 5.35756C10.345 5.52046 10.2892 5.68001 10.2278 5.83846C10.1877 5.94334 10.1163 6.03372 10.0739 6.14195C10.0091 6.3082 10.008 6.67194 9.81277 6.76567C9.73578 6.72104 9.77148 6.65744 9.75698 6.59384C9.73578 6.49788 9.72797 6.40304 9.71123 6.3082C9.69672 6.23344 9.65321 6.21001 9.61639 6.14083C9.59742 6.10624 9.59742 6.06831 9.57957 6.03372C9.53605 5.95003 9.44233 5.86189 9.35529 5.7782C9.35195 5.79159 9.34972 5.8061 9.34637 5.81949C9.28946 6.02368 9.19797 6.21559 9.10871 6.40862C9.04622 6.54474 9.01498 6.68533 8.96477 6.81811C8.93465 6.8951 8.86993 6.92746 8.84204 7.01672C8.80187 7.14726 8.81303 7.31017 8.79294 7.44518C8.7617 7.64937 8.72823 7.86694 8.71484 8.07671C8.70145 8.30879 8.60661 8.4438 8.55751 8.66249C8.49057 8.28648 8.44928 7.90265 8.45374 7.51882C8.45486 7.43514 8.46825 7.33918 8.45598 7.25773C8.44928 7.21198 8.42139 7.17962 8.41358 7.1495C8.37787 6.98882 8.44147 6.80584 8.39238 6.65074C8.38568 6.63066 8.37899 6.61169 8.37118 6.59161C8.37118 6.59272 8.37118 6.59272 8.37118 6.59272C8.37118 6.59161 8.37118 6.59161 8.37118 6.59161C8.32989 6.47668 8.27745 6.36287 8.24621 6.24683C8.21162 6.11852 8.18373 6.00136 8.13575 5.88197C8.09893 5.79271 8.12236 5.49926 8.01636 5.51711C7.96615 5.52492 7.93379 5.94111 7.93602 5.92883C7.89697 6.15087 7.83672 6.33609 7.76196 6.54698C7.72179 6.65744 7.67158 6.73777 7.61914 6.84154C7.57451 6.92969 7.57674 7.13164 7.46405 7.15731C7.39041 7.11491 7.37925 7.04796 7.33685 6.97878C7.20854 6.77013 6.9441 6.61057 6.84702 6.38407C6.78008 6.23009 6.69974 6.07946 6.62833 5.92326C6.59486 5.8485 6.55469 5.7849 6.51229 5.72241C6.40629 5.93107 6.29918 6.14083 6.26793 6.37068C6.23111 6.6474 6.3293 6.89064 6.41633 7.14169C6.16528 7.52663 6.17644 8.09233 6.20099 8.5219C6.20322 8.56765 6.20657 8.6134 6.20991 8.65915C6.13627 8.66361 6.07156 8.70378 6.0325 8.7618C6.02469 8.72498 6.01577 8.68704 6.00461 8.65022C5.95775 8.5007 5.90196 8.3869 5.89638 8.22288C5.88187 7.83458 5.97448 7.37488 5.83947 6.99887C5.77922 6.83038 5.64644 6.65967 5.5159 6.53805C5.42775 6.45548 5.34518 6.36845 5.2615 6.28142C5.25815 6.287 5.25369 6.29146 5.25034 6.29704C5.19232 6.39634 5.22133 6.54921 5.22245 6.66413C5.22356 6.82815 5.1979 6.952 5.06847 7.06693C4.97475 7.15173 4.89553 7.21756 4.82635 7.32356C4.76498 7.41617 4.72035 7.51882 4.62439 7.57907C4.47041 7.67614 4.34991 7.64825 4.26957 7.82343C4.22494 7.9205 4.24391 8.0053 4.22494 8.11911C4.16023 8.51075 3.86901 8.93921 3.91141 9.34758C3.92368 9.47143 3.99844 9.56516 4.08659 9.64549C4.1089 9.84633 4.1725 10.0505 4.25172 10.2324C4.20709 10.383 4.15465 10.5314 4.09886 10.6787C4.06985 10.5738 4.03749 10.4701 3.99955 10.3685C3.91699 10.1454 3.81657 9.93337 3.69606 9.72806C3.55994 9.4971 3.38922 9.26167 3.40708 8.98161C3.41935 8.69931 2.98866 8.70266 2.96969 8.98161C2.94849 9.46585 2.92841 9.95122 2.91725 10.4355C2.8146 10.45 2.71529 10.5348 2.7086 10.6508C2.7019 10.7769 2.69075 10.9019 2.6807 11.0268C2.65727 11.038 2.63607 11.0503 2.6171 11.0692C2.47652 11.2109 2.34151 11.3962 2.34374 11.6059C2.34485 11.6349 2.3482 11.6628 2.35266 11.6896C2.35155 11.6907 2.34932 11.6907 2.3482 11.6907C2.28237 11.7119 2.23328 11.7532 2.2065 11.8179C2.18195 11.8748 2.17637 11.9585 2.21765 12.0121C2.27902 12.0935 2.34151 12.1582 2.42742 12.2163C2.47205 12.2464 2.52338 12.2687 2.5747 12.2888C2.55127 12.6983 2.55127 13.1089 2.61264 13.5239C2.64611 13.7482 2.97973 13.7159 3.03441 13.5239C3.05114 13.4648 3.06788 13.4057 3.08462 13.3454C3.098 13.4046 3.11028 13.4637 3.12478 13.5228C3.1259 13.5384 3.1259 13.5541 3.1259 13.5708C3.12813 13.6221 3.14821 13.6668 3.17611 13.7014C3.18615 13.7359 3.19396 13.7694 3.20512 13.804C3.37249 14.3083 3.58895 14.7937 3.75966 15.2969C3.84558 15.5502 4.19258 15.4654 4.18254 15.2222C4.22941 15.1987 4.26957 15.1574 4.28631 15.0883C4.35102 14.8272 4.45926 14.5873 4.59092 14.3585C4.59092 14.4768 4.56972 14.5906 4.55633 14.7212C4.53513 14.9231 4.54629 15.1251 4.54517 15.327C4.54406 15.4431 4.50389 15.5736 4.60319 15.654C4.62885 15.6752 4.66121 15.6897 4.69468 15.7019C4.70807 15.8794 4.75159 16.0523 4.84532 16.2107C5.01715 16.4997 5.31394 16.6838 5.60851 16.8267C5.65872 16.8523 5.71004 16.8746 5.76137 16.8981C5.81493 16.9773 5.88745 17.0331 5.97002 17.071C5.90531 17.1413 5.83947 17.2004 5.7491 17.2529C5.6431 17.3142 5.57615 17.3433 5.52817 17.4526C5.50809 17.5006 5.50586 17.5675 5.48354 17.611C5.43445 17.7059 5.29386 17.7427 5.20125 17.8007C4.9011 17.9882 4.58534 18.0886 4.28519 18.2917C4.22383 18.3341 4.16134 18.3631 4.11448 18.4144C4.06762 18.4668 4.02856 18.5349 3.9817 18.5896C3.92926 18.651 3.92145 18.69 3.83888 18.7313C3.69495 18.8027 3.53651 18.844 3.38811 18.9042C3.13259 19.0058 2.88043 19.1486 2.65169 19.3026C2.52561 19.3874 2.3973 19.6473 2.25001 19.6708C2.30134 19.4632 2.31807 19.4376 2.2422 19.3584C2.19088 19.3037 2.1005 19.2557 2.03801 19.2122C1.96437 19.1609 1.88962 19.1385 1.83271 19.066C1.7256 18.9277 1.69101 18.7636 1.62294 18.6019C1.53368 18.3887 1.51806 18.1388 1.51918 17.9123C1.52141 17.7215 1.55488 17.4883 1.51806 17.2997C1.49017 17.158 1.34735 17.0286 1.26478 16.9148C1.10299 16.6916 0.951246 16.4618 0.782763 16.2442C0.690153 16.1248 0.530597 15.9753 0.487081 15.8146C0.451376 15.6852 0.472576 15.5257 0.481502 15.3962C0.51386 14.9566 0.571881 14.5114 0.517208 14.0696C0.490429 13.8553 0.444681 13.7549 0.29182 13.592C0.205905 13.5005 0.180242 13.4637 0.152347 13.3521C0.124453 13.2405 0.0753592 13.1446 0.0385385 13.0386C-0.00943998 12.9025 0.00729624 12.7608 0.00841202 12.619C0.00952779 12.2363 -0.0462615 11.828 0.115527 11.4743C0.179126 11.3348 0.172431 11.1864 0.215947 11.0369C0.267273 10.8617 0.323061 10.7077 0.32083 10.5258C0.317483 10.2257 0.32083 9.92444 0.32083 9.62541C0.32083 9.16125 0.238263 8.66138 0.538408 8.28313C0.555144 8.26193 0.575228 8.24184 0.593081 8.22064C0.719164 7.83124 0.875373 7.44183 1.08291 7.1004C1.16994 6.95981 1.2235 6.80137 1.31611 6.65744C1.50244 6.36845 1.70663 6.06496 1.92421 5.7994C2.22212 5.43454 2.5747 5.13328 2.8715 4.76842C3.01655 4.5899 3.11809 4.38125 3.26091 4.19938C3.33567 4.10453 3.39592 4.01527 3.45394 3.90816C3.52535 3.77538 3.56886 3.63925 3.68937 3.54218C3.80429 3.44957 3.94488 3.36477 4.06873 3.2889C4.21044 3.20075 4.3209 3.11261 4.41016 2.9709C4.47488 2.86714 4.51504 2.75221 4.5753 2.64621C4.66902 2.48108 4.79845 2.33156 4.92788 2.19209C5.05508 2.05485 5.22468 1.95108 5.37419 1.84062C5.51813 1.7335 5.68996 1.58734 5.85286 1.52374C5.90307 1.50365 5.96221 1.47911 6.01577 1.47911C6.124 1.52039 6.23558 1.54494 6.3505 1.55163C6.46096 1.5706 6.57254 1.58287 6.68412 1.59403C6.70532 1.58287 6.72652 1.57172 6.74772 1.56167C6.9017 1.49138 7.07353 1.46125 7.22416 1.37645C7.33239 1.3162 7.47967 1.24368 7.57451 1.16222C7.67382 1.07743 7.66712 0.97589 7.70283 0.855385C7.73072 0.762776 7.78093 0.589828 7.88135 0.540734C7.93268 0.516187 8.01078 0.537388 8.06769 0.538504C8.45821 0.548546 8.86212 0.463746 9.22921 0.329853C9.37761 0.275179 9.53382 0.239474 9.67776 0.172527C9.77929 0.124548 9.86521 0.0743391 9.97567 0.0509078C10.1185 0.0196659 10.2546 0.0118544 10.3997 0.014086C10.615 0.0152018 10.8493 -0.014924 11.0624 0.00962318C11.2398 0.030823 11.3146 0.168065 11.4418 0.294148C11.6259 0.477136 11.8044 0.444777 12.0454 0.432503C12.4728 0.412419 12.899 0.366674 13.3197 0.297496C13.5975 0.251749 13.8407 0.133476 14.1052 0.046445C14.1743 0.0241294 14.2379 0.00516068 14.3105 0.00850802C14.5247 0.01855 14.7423 0.168065 14.9364 0.251748C15.2165 0.372253 15.4999 0.459283 15.7688 0.612145C15.9819 0.733765 16.1872 0.867658 16.3959 0.995973C16.4662 1.03949 16.5867 1.10085 16.6469 1.16892C16.6692 1.19458 16.6804 1.22694 16.6971 1.26041C16.7049 1.26153 16.7139 1.26264 16.7194 1.26376C16.8556 1.28608 16.9381 1.41216 17.0743 1.45456C17.2349 1.50588 17.361 1.45902 17.5261 1.53713C17.6054 1.57395 17.6779 1.61858 17.7616 1.64647C17.8497 1.6766 17.987 1.68106 18.0695 1.73239C18.2157 1.82165 18.1432 2.04815 18.2425 2.172C18.3172 2.26573 18.45 2.30032 18.5594 2.30701C18.7613 2.3204 18.7368 2.4543 18.768 2.62947C18.9298 2.58596 19.3371 2.28358 19.4776 2.38512C19.4386 2.52013 19.4654 2.66295 19.4442 2.80019C19.4219 2.9497 19.3627 3.12042 19.5167 3.22642C19.5758 3.26658 19.6506 3.23981 19.7142 3.26547L19.7778 3.33576C19.8369 3.38374 19.9028 3.42502 19.9719 3.4585C20.0579 3.52433 20.1315 3.6069 20.1973 3.69727C20.3435 3.74414 20.4049 3.78988 20.5097 3.91485C20.5655 3.98068 20.6146 4.04986 20.6604 4.12015C20.7385 4.07775 20.8166 4.03647 20.9025 4.00969C21.0342 3.94052 21.1335 3.9818 21.2015 4.1302C21.2752 4.23843 21.3477 4.34666 21.4213 4.45489C21.5742 4.70371 21.5764 4.8376 21.6423 5.09311C21.7059 5.3397 21.8219 5.56509 21.8755 5.81614C21.9056 5.95226 21.8922 6.04487 21.9156 6.16426C21.9346 6.26134 22.0071 6.36399 22.0395 6.45548C22.122 6.68756 22.093 6.95423 22.1745 7.1852C22.2147 7.30013 22.3028 7.4184 22.3675 7.51882C22.4055 7.57907 22.4311 7.57684 22.4858 7.6449C22.6029 7.79107 22.7268 8.04324 22.7513 8.22288C22.7636 8.3166 22.7413 8.42818 22.7402 8.52302C22.7391 8.62567 22.7246 8.75622 22.7201 8.88453C22.7458 8.9247 22.7703 8.96487 22.7904 9.00615C22.8596 9.14451 22.8596 9.30741 22.9511 9.43461C23.0247 9.53726 23.1151 9.63099 23.1887 9.73587C23.3059 9.90435 23.4264 10.0394 23.5212 10.2179C23.6283 10.4198 23.6317 10.5493 23.6295 10.7802C23.6239 11.3839 23.2032 11.8882 23.2066 12.4918ZM12.1526 11.3872C12.1392 11.8681 12.0466 12.3635 11.7319 12.7295C11.7263 12.9661 11.7576 13.1948 11.9127 13.3878C11.9584 13.4458 12.0086 13.4536 12.051 13.5083C12.0856 13.5518 12.089 13.6154 12.1068 13.6668C12.1247 13.7147 12.1336 13.7616 12.1403 13.8074C12.1637 13.7159 12.1916 13.6244 12.205 13.5585C12.234 13.4146 12.3166 13.3086 12.3333 13.1624C12.35 13.0196 12.3076 12.9013 12.2775 12.7641C12.244 12.6124 12.263 12.455 12.2362 12.3022C12.2095 12.146 12.1827 12.0054 12.1771 11.8469C12.1726 11.7063 12.1961 11.52 12.1526 11.3872ZM18.8941 20.6694C18.5181 20.2867 18.0606 19.9665 17.7549 19.5201C17.7415 19.5012 17.7337 19.4811 17.727 19.4632C17.525 19.3349 17.3264 19.2021 17.1111 19.0928C16.9058 18.9879 16.7987 18.9288 16.5911 18.9399C16.5219 18.9433 16.4349 18.9522 16.3758 18.9031C16.3066 18.8462 16.2865 18.7157 16.2374 18.632C16.0924 18.3787 15.9228 18.1355 15.7543 17.8967C15.7454 17.9045 15.7376 17.9112 15.7286 17.919C15.7119 17.9335 15.6963 17.9491 15.6806 17.9647C15.6148 18.0272 15.5546 18.0942 15.4898 18.1578C15.3348 18.3118 15.1473 18.4434 14.9264 18.4735C14.8025 18.4914 14.6988 18.4445 14.6564 18.3207C14.653 18.3095 14.6486 18.2972 14.6441 18.2861C14.6419 18.2794 14.6396 18.2738 14.6363 18.2671C14.6307 18.2526 14.6329 18.2593 14.6452 18.2872C14.6474 18.2705 14.6218 18.2336 14.6151 18.218C14.5916 18.1667 14.5671 18.1165 14.5448 18.0641C14.5202 18.0049 14.4957 17.9458 14.4756 17.8855C14.4064 17.9279 14.2926 17.8989 14.2569 17.8242C14.2246 17.7583 14.2022 17.688 14.1822 17.6177C14.1152 17.5675 14.055 17.5028 14.0014 17.4303C13.9813 17.4325 13.9612 17.4381 13.9411 17.4403C13.94 17.4069 13.94 17.3734 13.94 17.3399C13.8296 17.1636 13.7515 16.9572 13.6934 16.7932C13.6577 16.6916 13.6254 16.589 13.5953 16.4863C13.5517 16.7541 13.496 17.0186 13.41 17.2785C13.3754 17.3845 13.2806 17.4481 13.1701 17.4347C13.0809 17.4247 13.024 17.3656 12.9972 17.2897C12.9024 17.7081 12.783 18.121 12.6803 18.5293C12.6613 18.6041 12.6156 18.6487 12.562 18.6699C12.5442 18.7079 12.5174 18.7413 12.475 18.7648C12.2251 18.9065 11.9551 18.9946 11.6728 19.0259C11.6047 19.0337 11.5378 19.0415 11.4675 19.0415C11.1182 19.0459 10.7701 18.9689 10.4298 18.8908C10.4019 18.8841 10.3796 18.8719 10.3595 18.8563C10.3561 18.854 10.3506 18.8518 10.3472 18.8484C10.3327 18.8351 10.3216 18.8183 10.3104 18.8016C10.3048 18.7927 10.2992 18.7837 10.2959 18.7737C10.2758 18.7268 10.268 18.6733 10.2769 18.6219C10.3472 18.2214 9.91988 17.977 9.64763 17.7739C9.60746 17.7438 9.57734 17.7037 9.55948 17.6613C9.42894 17.7003 9.30285 17.7327 9.16561 17.7371C9.16896 17.6267 9.17342 17.5363 9.17342 17.524C9.16115 17.2785 9.13102 17.0331 9.13102 16.7865C9.13102 16.7463 9.14553 16.6805 9.13549 16.6437C9.11094 16.5555 9.01721 16.4339 8.97593 16.3469C8.92572 16.242 8.87439 16.1382 8.82307 16.0344C8.82642 16.1773 8.82418 16.319 8.81861 16.4596C8.8041 16.7976 8.76839 17.1402 8.68806 17.4682C8.62446 17.726 8.52739 18.0094 8.31762 18.1846C8.0476 18.4099 7.65596 18.3966 7.32792 18.3497C7.06014 18.3118 6.78566 18.2303 6.55357 18.0864C6.38844 18.2069 6.21326 18.3184 6.03697 18.4211C5.61409 18.9299 5.17447 19.4153 4.67906 19.866C4.26734 20.2409 3.8969 20.7107 3.42381 21.0153C3.80987 21.2239 4.18254 21.456 4.53513 21.716C4.53736 21.7171 4.54071 21.7182 4.54405 21.7182C4.83639 21.7974 5.1343 21.7249 5.42998 21.8086C5.49693 21.8276 5.6576 21.8477 5.71228 21.8856C5.79261 21.9414 5.8127 22.121 5.89303 22.1924C5.96109 22.2538 6.05705 22.294 6.13404 22.3531C6.36278 22.5316 6.67519 22.5885 6.94633 22.67C7.33573 22.7883 7.70283 22.9233 8.07773 23.0839C8.2384 23.152 8.41358 23.2413 8.58652 23.2725C8.70926 23.2948 8.85208 23.2837 8.97816 23.2937C9.20578 23.3116 9.46129 23.2703 9.64763 23.422C9.80719 23.5515 9.93773 23.6441 10.1218 23.7467C10.5681 23.9978 10.981 24.0045 11.4742 23.9989C11.8892 23.9933 12.253 23.8951 12.6524 23.7869C12.7272 23.7668 12.8008 23.7445 12.8756 23.7255C12.8968 23.7199 12.8845 23.6809 12.9213 23.6742C12.966 23.6675 13.1188 23.7501 13.1501 23.7635C13.3286 23.8382 13.4982 23.8695 13.6912 23.8371C13.9233 23.798 14.1465 23.8059 14.383 23.7947C14.6631 23.7813 14.932 23.6028 15.1942 23.5057C15.443 23.4142 15.6873 23.3685 15.9451 23.3149C16.1493 23.2725 16.3245 23.1509 16.5197 23.0784C16.9326 22.9255 17.4157 23.0226 17.8497 23.0103C18.045 23.0058 18.1521 22.8563 18.3083 22.7447C18.4422 22.6499 18.585 22.574 18.7022 22.4591C18.8573 22.3085 19.0213 22.198 19.1998 22.0809C19.3025 22.0128 19.3973 21.9626 19.5212 21.9146C19.6294 21.8733 19.7744 21.8432 19.9083 21.7997C19.52 21.4728 19.2489 21.0309 18.8941 20.6694ZM8.95138 9.76488C8.9246 10.0048 8.87774 10.3429 9.00829 10.5381C9.09978 10.6754 9.11094 10.6999 9.0161 10.8628C8.9458 10.9833 8.84538 11.1183 8.85766 11.2656L8.80298 11.3683C8.8041 11.3091 8.82753 11.2132 8.81191 11.1574C8.79629 11.1038 8.75166 11.0994 8.73157 11.0547C8.68694 10.9565 8.71484 10.8215 8.71707 10.7111C8.7193 10.6129 8.74496 10.5482 8.76505 10.4645C8.78067 10.4042 8.77509 10.3451 8.79183 10.2848C8.82865 10.1465 8.85766 9.99027 8.90006 9.85638C8.91121 9.82067 8.93911 9.79724 8.95138 9.76488Z"/>
</svg>
