<svg width="26" height="24" viewBox="0 0 26 24" fill="#000000" xmlns="http://www.w3.org/2000/svg">
  <path d="M16.3325 0.102691L16.3154 -1.90735e-05C16.3044 0.0415542 16.3166 0.0721228 16.3325 0.102691Z"/>
  <path d="M16.3325 0.102691L16.3447 0.180938C16.3521 0.178493 16.3594 0.176047 16.3668 0.174825C16.3582 0.149147 16.3447 0.125923 16.3325 0.102691Z"/>
  <path d="M15.7382 24C15.8043 23.7652 15.8422 23.5586 15.8532 23.3324C15.8348 23.3666 15.8177 23.3996 15.8006 23.4314C15.7077 23.6087 15.759 23.7958 15.7382 24Z"/>
  <path d="M16.3961 0.383941C16.4132 0.320359 16.4364 0.259222 16.478 0.198084C16.4487 0.167516 16.4096 0.165043 16.3668 0.174825C16.3692 0.183384 16.3741 0.189525 16.3753 0.198084C16.3875 0.270226 16.3753 0.319136 16.3961 0.383941Z"/>
  <path d="M15.8018 22.5132C15.7444 22.3566 15.6441 22.2344 15.5732 22.084C15.5365 22.0057 15.539 21.9348 15.5108 21.8602C15.4925 21.8113 15.4411 21.7673 15.4155 21.7172C15.2614 21.4078 15.2736 21.0618 15.1721 20.7365C15.0425 20.3257 14.9386 19.9222 14.7112 19.5456C14.5681 19.3083 14.3835 19.0968 14.2685 18.8364C14.156 18.5771 14.0044 18.3387 13.9066 18.0697C13.8296 17.8557 13.7146 17.6197 13.585 17.4302C13.4945 17.2982 13.4028 17.2175 13.3502 17.0683C13.25 16.7797 13.0446 16.5107 12.8966 16.2356C12.7315 15.9262 12.5176 15.6413 12.3244 15.3503C12.1801 15.1351 12.0346 14.9187 11.8952 14.6986C11.96 14.6485 12.0248 14.5996 12.092 14.5555C12.1886 14.4993 12.2816 14.4394 12.3745 14.377C12.383 14.3477 12.3989 14.322 12.4222 14.3024C12.5665 14.1924 12.8147 14.0004 12.9859 13.9564C13.08 13.9332 13.1473 13.9564 13.2439 13.9417C13.4786 13.8158 13.6963 13.6666 13.8993 13.4942C14.0448 13.3732 14.1915 13.2533 14.3394 13.1347C14.4079 13.0944 14.4788 13.0821 14.5449 13.0296C14.5962 12.9892 14.6402 12.9012 14.7197 12.9061C14.7882 12.911 14.7943 12.9843 14.8774 12.9807C15.0034 12.9745 15.1085 12.8498 15.2223 12.7826C15.2504 12.8682 15.2748 12.9538 15.2932 13.0418C15.3213 13.3132 15.2858 13.6079 15.2871 13.8806C15.2895 14.4541 15.122 14.9994 15.1134 15.5729C15.1073 15.98 15.056 16.4496 15.1379 16.8494C15.2161 17.2309 15.358 17.6246 15.4913 17.989C15.5316 18.1015 15.5756 18.2128 15.6221 18.324C15.6258 18.4683 15.638 18.6114 15.6551 18.7544C15.7126 19.1176 15.819 19.4624 15.8618 19.8268C15.9009 20.1606 15.8593 20.5274 15.8593 20.8637V22.7504C15.8434 22.6684 15.8287 22.5865 15.8018 22.5132ZM10.1613 11.4706C10.1185 11.3532 9.98158 11.2884 9.88132 11.2309C9.62576 11.0866 9.33842 10.9521 9.06453 10.8433C8.93858 10.7932 8.80897 10.7724 8.68303 10.71C8.66347 10.7002 8.64635 10.6905 8.62801 10.6807C8.67569 10.6159 8.72338 10.5498 8.76985 10.4777C8.94837 10.2038 9.12933 9.92624 9.30174 9.64868C9.4179 9.45915 9.55607 9.26229 9.62699 9.05198C9.66122 8.95294 9.7028 8.86735 9.7407 8.76953C9.78105 8.66559 9.77494 8.55555 9.80062 8.45406C9.86053 8.21562 9.93267 7.99798 10.0745 7.78889C10.3521 7.38049 10.6309 6.96476 10.9292 6.57103C11.0001 6.47566 11.0784 6.38762 11.1566 6.29836C11.208 6.3864 11.2557 6.47688 11.3144 6.53435C11.4256 6.64073 11.5736 6.73121 11.7105 6.80213C12.2058 7.0638 12.8587 7.19586 13.393 6.9941C13.6694 6.89017 13.9188 6.73121 14.1915 6.62239C14.3822 6.54413 14.5901 6.56981 14.7919 6.57226C15.0511 6.5747 15.2968 6.5637 15.5524 6.52701C15.6404 6.51479 15.7199 6.494 15.8067 6.53068C15.8569 6.55147 15.907 6.58326 15.9559 6.61872C15.9351 6.98799 15.8899 7.35114 15.7896 7.72041C15.6343 8.29877 15.5157 8.87957 15.3812 9.46404C15.2785 9.90423 15.1917 10.3469 15.1721 10.7968C15.1672 10.9118 15.1648 11.0267 15.1636 11.1429C15.0132 11.1832 14.875 11.2285 14.7368 11.3581C14.584 11.5011 14.4654 11.6809 14.3174 11.8313C14.1731 11.978 14.0179 12.1137 13.8687 12.2543C13.5899 12.5148 13.305 12.7801 13.0702 13.0821C12.9174 13.279 12.7878 13.4367 12.5677 13.5578C12.4075 13.6458 12.2473 13.6947 12.0749 13.7449C11.8402 13.8121 11.6029 13.8598 11.3743 13.9283C11.3083 13.8476 11.2447 13.7657 11.1933 13.6739C11.1407 13.5786 11.142 13.5786 11.0478 13.5284C10.8815 13.4392 10.7984 13.3438 10.6847 13.1959C10.4536 12.8938 10.3631 12.5649 10.3741 12.1957C10.3753 12.1492 10.3961 12.0465 10.3826 12.0037C10.3447 11.8875 10.2163 11.8239 10.1797 11.6992C10.1589 11.6295 10.1858 11.5354 10.1613 11.4706ZM25.3588 8.34401C25.2842 8.44305 25.2243 8.46873 25.113 8.51397C24.9541 8.57755 24.8281 8.69005 24.6777 8.77442C24.4919 8.87835 24.2742 8.89425 24.0933 8.97128C23.8414 9.07888 23.5076 9.09355 23.2398 9.13146C23.0283 9.16203 22.8289 9.19137 22.615 9.20238C22.1589 9.22561 21.7309 9.39068 21.3115 9.55697C20.9594 9.69759 20.617 9.85532 20.271 10.0094C19.9445 10.1549 19.5691 10.1891 19.2634 10.3872C19.3136 10.1916 19.3502 10.0143 19.4737 9.84065C19.3674 9.95803 19.2108 10.0338 19.0837 10.128C18.9602 10.2209 18.8404 10.3212 18.7169 10.4141C18.2547 10.7626 17.6861 10.7993 17.1224 10.7981C16.8216 10.7968 16.5416 10.8482 16.2579 10.9008C16.2579 10.6562 16.2591 10.4129 16.2616 10.1696C16.2653 9.88589 16.2041 9.65724 16.154 9.38457C16.1381 9.29286 16.1418 9.21094 16.1491 9.11801C16.187 8.64603 16.2017 8.20095 16.1992 7.72163C16.1992 7.54678 16.2481 7.40372 16.2616 7.23376C16.2714 7.11882 16.2665 7.00389 16.2604 6.88895C16.3191 6.94275 16.3765 6.99533 16.434 7.03568C16.615 7.16284 16.8082 7.24354 16.9573 7.40617C17.0674 7.526 17.1786 7.58469 17.3193 7.65805C17.4574 7.73142 17.576 7.86592 17.7191 7.92094C17.8353 7.96618 17.916 7.94784 18.0309 8.01143C18.2449 8.12881 18.5139 8.15449 18.7474 8.22296C19.1913 8.35502 19.6718 8.24986 20.1255 8.29755C20.3994 8.32811 20.7185 8.39048 20.9936 8.35257C21.2125 8.322 21.3531 8.0799 21.5451 8.00042C21.7126 7.9295 21.9804 7.88915 22.1589 7.88181C22.3019 7.8757 22.4279 7.91727 22.5624 7.96374C22.7213 8.01754 22.8522 8.10802 23.0038 8.17527C23.1346 8.23274 23.2324 8.2303 23.3718 8.22785C23.7252 8.22541 24.1727 8.48952 24.5237 8.28532C24.4907 8.24252 24.4638 8.24252 24.4136 8.21929C24.2473 8.14471 24.0957 8.0909 23.9453 7.97963C23.8622 7.91727 23.7876 7.8488 23.6861 7.81579C23.5015 7.75465 23.3156 7.75343 23.1334 7.67028C23.0552 7.63604 22.9769 7.59447 22.8999 7.55656C22.5991 7.41106 22.2946 7.23498 21.9742 7.13594C21.8226 7.08948 21.6979 7.09314 21.5426 7.09192C21.1819 7.0907 20.8946 6.79724 20.5351 6.74833C20.156 6.6982 19.7378 6.74344 19.3539 6.74344C18.9736 6.74222 18.6264 6.64929 18.2754 6.50623C18.0627 6.41819 17.8927 6.24212 17.6739 6.15408C17.4807 6.07705 17.2814 6.01591 17.0882 5.94132C16.8717 5.85817 16.6272 5.82394 16.3814 5.82394C16.3839 5.80804 16.3888 5.79215 16.3924 5.77503C16.4413 5.49257 16.4303 5.20156 16.4572 4.91666C16.4829 4.62687 16.533 4.35665 16.5917 4.07419C16.6186 3.9458 16.593 3.81864 16.615 3.69025C16.6431 3.52151 16.6761 3.354 16.703 3.18404C16.7519 2.8808 16.714 2.5531 16.7189 2.24619C16.7213 2.1068 16.7213 1.97474 16.7079 1.83413C16.6883 1.62137 16.6003 1.44407 16.5538 1.23621C16.522 1.08825 16.4927 0.918293 16.4854 0.766672C16.4817 0.694531 16.5012 0.617497 16.4829 0.5478C16.4707 0.502559 16.4193 0.447537 16.401 0.401072C16.3985 0.394959 16.3985 0.390055 16.3961 0.383941C16.3777 0.449969 16.3655 0.518454 16.3447 0.590596C16.2971 0.755666 16.2567 0.875496 16.2591 1.05279C16.2689 1.67762 16.1014 2.29388 16.0843 2.91748C16.0708 3.43959 16.1161 3.96292 16.0757 4.48503C16.0415 4.94356 15.9877 5.39598 15.9767 5.85573C15.8948 5.86796 15.8141 5.88263 15.7358 5.90097C15.5805 5.93888 15.4839 5.93032 15.325 5.9401C14.9692 5.96211 14.6219 6.00001 14.2636 6.00001C14.0912 6.00001 13.8907 6.02569 13.7195 6.00246C13.64 5.99268 13.5948 5.94988 13.5214 5.9401C13.3747 5.91931 13.2084 5.94254 13.0604 5.94254C12.8929 5.94254 12.7059 5.96455 12.5396 5.94377C12.3525 5.92176 12.2987 5.78481 12.1422 5.72123C12.0285 5.67476 11.8793 5.73957 11.7619 5.72C11.7081 5.71022 11.6873 5.70166 11.6531 5.68088C11.8878 5.36541 12.1275 5.05116 12.3451 4.72591C12.4796 4.52538 12.6019 4.33464 12.7535 4.14756C13.0164 3.82353 13.3282 3.54964 13.6156 3.24762C13.81 3.04464 14.013 2.85145 14.2233 2.66437C14.469 2.4455 14.5461 2.41004 14.6818 2.19117C14.7295 2.11413 14.7784 2.06523 14.8518 2.00653C15.0792 1.8219 15.2993 1.63726 15.4974 1.41839C15.5573 1.35237 15.6233 1.28878 15.682 1.22275C15.7089 1.19096 15.7273 1.14572 15.7505 1.12127C15.9584 0.895059 16.2005 0.635838 16.3753 0.365611L16.346 0.180978C16.2433 0.215215 16.1271 0.31548 16.0549 0.33749C15.9058 0.383954 15.4362 0.452427 15.3604 0.627279C15.3739 0.646843 15.3922 0.662738 15.8092 0.479327C15.7688 0.506227 15.7346 0.549024 15.7004 0.579593C15.5023 0.748331 15.2504 0.881609 15.0083 0.976983C14.9068 1.01611 14.7833 1.04546 14.6867 1.09192C14.5216 1.16896 14.3896 1.34992 14.2624 1.48075C14.0533 1.69718 13.8675 1.89404 13.6376 2.08479C13.541 2.16427 13.4407 2.23886 13.3453 2.31956C13.1277 2.50297 13.091 2.63747 13.003 2.88813C12.9394 3.07154 12.8428 3.19871 12.6545 3.27941C12.3867 3.39435 12.1703 3.47138 11.9551 3.68047C11.8719 3.76117 11.8096 3.86144 11.7497 3.9617C11.6861 4.06686 11.6885 4.13288 11.6482 4.26005C11.6005 4.40556 11.4978 4.55718 11.4244 4.68801C11.2863 4.93011 11.1493 5.17955 10.994 5.41187C10.884 5.32628 10.8815 5.26148 10.7372 5.20156C10.5563 5.12697 10.3973 5.10863 10.2212 5.0475C10.0696 4.99492 9.96813 4.92278 9.80551 4.91544C9.49493 4.89954 9.2406 4.96802 8.93981 5.03038C8.46538 5.12697 7.80021 5.87407 7.36125 5.37397C7.22797 5.22357 7.12526 5.1013 6.93818 5.01693C6.61048 4.8702 6.3158 4.65989 6.0199 4.46425C5.95387 4.41901 5.9074 4.34931 5.84871 4.29795C5.78513 4.24415 5.71421 4.2038 5.63473 4.1769C5.53324 4.1231 5.44643 4.05218 5.37184 3.96415C5.26424 3.881 5.30459 3.90056 5.18965 3.87978C4.8962 3.82353 4.56728 3.92135 4.26648 3.87611C3.69668 3.78807 3.13667 3.59366 2.5791 3.4726C2.41036 3.43714 2.26607 3.37723 2.09367 3.37234C1.82589 3.36256 1.55688 3.37112 1.63147 3.42858C1.64614 3.43225 1.66082 3.4347 1.67549 3.43714C1.72807 3.75628 2.22817 3.71471 2.46049 3.71471C2.66958 3.71348 2.87989 3.71104 3.08898 3.71348C3.32864 3.71715 3.46925 3.92869 3.60253 4.11087C3.74559 4.30651 3.86053 4.51316 3.99381 4.71246C4.0525 4.8005 4.12098 4.935 4.20412 4.99981C4.26281 5.04383 4.35819 5.05728 4.43155 5.0854C4.52081 5.11964 4.60151 5.12331 4.68833 5.14776C4.78615 5.17588 4.85707 5.24191 4.95855 5.25903C5.09428 5.28104 5.11996 5.23702 5.17498 5.3703C5.20555 5.44366 5.21411 5.52559 5.25324 5.59528C5.32049 5.72123 5.477 5.81416 5.54914 5.94499C5.60661 6.04648 5.62006 6.17609 5.70321 6.27146C5.87684 6.18709 5.93308 6.1125 6.12994 6.11495C6.50899 6.11862 6.82935 6.13207 7.19984 6.25557C7.36736 6.31181 7.42727 6.39007 7.53121 6.51601C7.63881 6.64318 7.7513 6.67008 7.92248 6.71899C8.06065 6.75811 8.1976 6.74222 8.34188 6.74344C8.47883 6.74344 8.63534 6.76423 8.76985 6.74589C8.89823 6.72877 9.01562 6.69698 9.14523 6.68719C9.26383 6.67741 9.44969 6.65907 9.56341 6.63095C9.67834 6.60405 9.77983 6.50501 9.88499 6.44387C10.0342 6.3595 10.1687 6.26046 10.3203 6.18342C10.3472 6.16997 10.3765 6.1553 10.4059 6.14185C10.3533 6.20666 10.3019 6.27268 10.2543 6.33994C10.0073 6.69209 9.85075 7.0797 9.63188 7.44896C9.40445 7.8329 9.14645 8.19851 8.91902 8.58245C8.7246 8.90892 8.52774 9.24517 8.28319 9.53619C8.18415 9.65357 8.0741 9.75628 8.00563 9.89567C7.97506 9.95803 7.96406 10.0375 7.91882 10.0913C7.63392 9.74405 7.40526 9.34177 7.2243 8.94071C7.16561 8.8111 7.07023 8.68393 7.13504 8.53354C6.63983 8.39292 6.16785 8.17894 5.70443 7.9564C5.42564 7.82312 5.12485 7.6984 4.88152 7.50888C4.76414 7.41717 4.58929 7.27167 4.50614 7.14572C4.4609 7.07725 4.43889 6.98188 4.40221 6.91707C4.36675 6.90973 4.33862 6.88895 4.31784 6.85349C4.19679 6.68842 4.08185 6.5209 3.96936 6.35094C3.84341 6.16508 3.72603 5.98289 3.62087 5.78481C3.43135 5.4241 3.10243 4.95335 3.18191 4.51927C3.09387 4.47281 2.9985 4.44957 2.89456 4.44957C2.59988 4.39333 2.3052 4.33464 2.01052 4.27105C1.5899 4.16345 1.22552 4.06074 0.916166 3.73916C0.889266 3.71226 0.863588 3.68169 0.837911 3.65112C0.74865 3.5423 0.661836 3.42125 0.546898 3.34788C0.401392 3.25495 0.15562 3.31242 0.0394596 3.43959C-0.0803692 3.57042 0.107933 3.75383 0.14217 3.90056C0.181297 4.07297 0.219203 4.2576 0.247326 4.43368C0.286454 4.67823 0.423401 4.80906 0.664281 4.90933C0.923502 5.01693 1.23163 4.95701 1.48107 5.09274C1.70973 5.21623 1.83811 5.53659 1.92982 5.77014C1.98851 5.9242 2.0741 6.07338 2.12057 6.23111C2.1817 6.43164 2.09489 6.42797 2.32477 6.57103C2.5791 6.72877 2.84321 6.87305 3.09754 7.03201C3.50471 7.28512 3.88865 7.67028 4.18334 8.04688C4.34107 8.24864 4.45845 8.48463 4.60885 8.69249C4.7458 8.88324 4.94144 9.01163 5.0955 9.1877C5.35472 9.48483 5.61639 9.76851 5.88784 10.0546C6.17029 10.353 6.3696 10.6795 6.70341 10.9313C6.71197 10.9387 6.72175 10.946 6.73153 10.9533C6.70952 10.9705 6.68874 10.9864 6.66795 11.0035C6.46742 11.1685 6.26934 11.3569 6.09693 11.5464C5.97099 11.6845 5.92208 11.8166 5.84993 11.9927C5.7191 12.313 5.55892 12.5661 5.3156 12.8034C5.11262 13.0014 4.89008 13.1482 4.66387 13.3145C4.33251 13.5578 4.08552 13.894 3.81774 14.1997C3.52795 14.5323 3.15012 14.8209 2.89823 15.1853C2.77596 15.3613 2.65858 15.5374 2.53141 15.7098C2.36756 15.9336 2.24284 16.1378 2.03498 16.3236C1.75741 16.5706 1.55566 16.9118 1.35758 17.2223C1.29399 17.3226 1.20351 17.4058 1.13259 17.4999C1.07635 17.5745 1.06167 17.6112 1.02499 17.7041C1.15705 17.7726 1.48841 17.506 1.59357 17.4253C1.78187 17.281 1.90659 17.0732 2.01908 16.8678C2.10956 16.7002 2.20861 16.4691 2.34678 16.3371C2.4984 16.194 2.7405 16.1097 2.92024 16.0069C3.00461 15.9605 3.09754 15.9152 3.18435 15.87C3.34331 15.7893 3.52917 15.7685 3.68323 15.6841C3.87031 15.5802 4.03783 15.4408 4.23469 15.3393C4.47068 15.2183 4.66265 15.0495 4.90109 14.9248C5.11629 14.8135 5.35228 14.7023 5.54914 14.5604C5.78024 14.3954 5.95998 14.1105 6.13606 13.8879C6.37938 13.5822 6.5738 13.2521 6.76699 12.9146C6.97486 12.5527 7.28421 12.2605 7.563 11.9548C7.66693 11.8423 7.7623 11.7225 7.85768 11.6026C7.86135 11.6038 7.86502 11.6063 7.86868 11.6075C8.27708 11.7604 8.69404 12.2054 8.96059 12.5515C9.19658 12.8596 9.40689 13.2056 9.56218 13.559C9.62454 13.7008 9.6759 13.8696 9.76638 13.987C9.89355 14.1545 10.0488 14.3159 10.1956 14.4773C9.93512 14.5837 9.66367 14.6644 9.38488 14.7035C9.2027 14.728 8.86277 14.6754 8.72093 14.8245C8.60477 14.9456 8.5632 15.1119 8.43359 15.2329C8.22572 15.4261 7.94938 15.6071 7.68894 15.7245C7.59234 15.7673 7.54099 15.7661 7.43339 15.7685C7.316 15.771 7.23041 15.8162 7.12159 15.8553C6.91983 15.9275 6.70952 15.947 6.49921 15.9727C6.39528 15.9849 6.27423 16.0253 6.19597 16.0424C6.04802 16.0742 5.91229 16.0669 5.77412 16.139C5.69587 16.1818 5.63106 16.2601 5.54303 16.2821C5.3963 16.32 5.23 16.2588 5.07838 16.2943C4.81672 16.3554 4.63086 16.4557 4.35452 16.4569C4.16133 16.4569 3.99136 16.3811 3.81284 16.4484C3.60742 16.5254 3.43013 16.6648 3.22715 16.7418C3.06575 16.8029 2.90435 16.8042 2.73438 16.8005C2.59132 16.7956 2.51918 16.836 2.39079 16.8592C2.23551 16.8873 2.18293 16.8714 2.05821 16.9974C1.96528 17.0903 1.83811 17.2774 1.7782 17.4302C1.78431 17.4278 1.79043 17.4265 1.79776 17.4241C1.89314 17.4021 2.02764 17.4278 2.12301 17.4278C2.53875 17.429 2.92146 17.2664 3.32008 17.1514C3.67834 17.0475 3.98525 16.9815 4.35819 16.9705C4.70422 16.9607 5.05515 16.9521 5.39874 16.8983C5.83159 16.8286 6.25222 16.7553 6.68507 16.6538C7.12036 16.5511 7.55199 16.408 7.9934 16.3432C8.17315 16.3163 8.31621 16.2246 8.48861 16.1781C8.86277 16.0766 9.14034 15.7074 9.47414 15.513C9.58664 15.4518 9.69791 15.3919 9.8104 15.332C10.0109 15.2867 10.2139 15.2647 10.4193 15.266C10.3961 15.2672 10.6993 15.277 10.758 15.2476C10.7715 15.2415 10.7849 15.2329 10.8008 15.2232C11.1958 15.7575 11.5491 16.3236 11.9209 16.8739C12.0737 17.1013 12.2485 17.2309 12.4625 17.4119C12.6141 17.5403 12.7205 17.7286 12.8391 17.8875C13.0446 18.1614 13.1888 18.3962 13.2891 18.7214C13.3551 18.9379 13.4884 19.0699 13.6278 19.2484C13.8357 19.5138 13.9714 19.7852 14.1034 20.0958C14.3125 20.5861 14.392 21.1009 14.5913 21.5937C14.7063 21.8798 14.8261 22.1793 14.9838 22.4471C15.0768 22.6049 15.2589 22.7015 15.4375 22.732C15.5328 22.7491 15.6172 22.7186 15.6918 22.7944C15.7566 22.8604 15.7578 23.0658 15.8593 23.0915V23.1869C15.8593 23.237 15.8556 23.2847 15.8532 23.3324C15.9816 23.0964 16.1283 22.8384 16.1491 22.5743C16.1992 21.9324 16.0843 21.2916 16.088 20.6521C16.0916 20.0053 16.0916 19.3585 16.0867 18.7117C16.0843 18.3033 16.1931 17.9071 16.2041 17.4987C16.2347 16.4484 16.2041 15.3907 16.1992 14.3391C16.1968 13.7742 16.2212 13.2069 16.2384 12.6407C16.2787 12.6334 16.3178 12.6297 16.3729 12.6285C16.5709 12.6248 16.7556 12.6187 16.939 12.5233C17.0747 12.4537 17.274 12.1321 17.4391 12.1724C17.4819 12.1834 17.5638 12.2837 17.6005 12.313C18.0199 12.0636 18.3892 11.742 18.8049 11.484C18.9687 11.3838 19.1277 11.3018 19.294 11.2113C19.5043 11.0964 19.7195 10.9656 19.8821 10.7993C20.1585 10.5205 20.6671 10.655 21.0034 10.5682C21.3017 10.4924 21.5365 10.3004 21.8275 10.2173C21.9314 10.194 22.0366 10.1769 22.1418 10.1671C22.286 10.1207 22.4254 10.0656 22.5624 10.0045C22.8779 9.87122 23.2214 9.79174 23.5186 9.623C23.6078 9.57165 23.68 9.52396 23.7827 9.4995C23.8781 9.49094 23.971 9.47016 24.0615 9.43714C24.1361 9.36989 24.2058 9.29897 24.2706 9.22439C24.3684 9.14369 24.4735 9.12412 24.5885 9.09233C24.8037 9.03242 24.9908 8.88324 25.2023 8.82699C25.2377 8.81721 25.3722 8.81232 25.3918 8.79154C25.4517 8.73162 25.3991 8.37213 25.3588 8.34401Z"/>
  <path d="M1.74514 17.5414C1.75003 17.5084 1.7623 17.4693 1.7782 17.4302C1.70973 17.4534 1.66811 17.506 1.74514 17.5414Z"/>
</svg>
