<svg width="22" height="24" viewBox="0 0 22 24" fill="none" xmlns="http://www.w3.org/2000/svg">
  <path d="M16.3485 11.7313C16.2898 11.6586 16.2268 11.5956 16.167 11.5252C16.1019 11.5348 16.0827 11.6213 16.057 11.6704C16.0015 11.7793 15.9267 11.8765 15.8616 11.979C15.7879 12.0911 15.7249 12.2064 15.6811 12.3335C15.6673 12.3762 15.6598 12.4905 15.6181 12.5257C15.522 12.4243 15.4751 12.2993 15.4035 12.1819C15.3789 12.1402 15.3074 11.9897 15.2476 11.9961C15.1494 12.1264 15.144 12.2972 15.017 12.4136C14.9956 12.3154 14.986 12.2139 14.9764 12.1135C14.9134 12.0975 14.8333 12.2406 14.7959 12.2844C14.6881 12.4147 14.5717 12.5364 14.4606 12.6645C14.3666 12.7735 14.2876 12.8856 14.2171 13.0105C14.1926 13.0511 14.168 13.1034 14.1253 13.1291C14.1638 12.9838 14.2599 12.8535 14.3325 12.7243C14.3763 12.6453 14.42 12.5663 14.4627 12.4862C14.4798 12.4414 14.4894 12.3944 14.4905 12.3463C14.5044 12.3271 14.514 12.3068 14.5183 12.2844C14.5172 12.2566 14.5065 12.2342 14.4873 12.2171C14.4852 12.1733 14.514 12.1605 14.5322 12.1264C14.5546 12.0858 14.5653 12.0399 14.5962 12.0003C14.6432 11.9406 14.7083 11.9171 14.7671 11.8711C14.97 11.7088 15.1814 11.413 15.2262 11.1493C15.2583 10.9635 15.285 10.7777 15.3234 10.5919C15.3405 10.5139 15.333 10.4274 15.3533 10.3516C15.3822 10.248 15.3811 10.1466 15.4131 10.0398C15.4484 9.92234 15.4259 9.79954 15.4526 9.68208C15.4686 9.60947 15.5156 9.55074 15.5359 9.47812C15.5455 9.4226 15.5615 9.36814 15.5861 9.31581C15.6203 9.26135 15.6502 9.20476 15.6758 9.14496C15.6908 9.08837 15.6779 9.02429 15.679 8.96663C15.6758 9.16418 15.7794 9.303 15.8274 9.45143C15.8584 9.54326 15.8776 9.6682 15.9289 9.75042C15.9737 9.82303 16.0068 9.89138 16.0132 9.98214C16.0239 10.1541 16.0517 10.3164 16.1627 10.4584C16.2791 10.6079 16.309 10.7713 16.3517 10.9496C16.3784 11.066 16.4158 11.1781 16.4607 11.2892C16.5034 11.3928 16.561 11.4899 16.5781 11.601C16.5973 11.7345 16.5963 11.8743 16.6208 12.0078C16.5012 11.964 16.4254 11.8274 16.3485 11.7313ZM11.0222 9.95118C11.0211 9.90846 11.0179 9.86468 11.0168 9.82197C11.0104 9.77925 11.0019 9.73654 10.9976 9.69276C10.9955 9.61481 10.9891 9.53686 10.9763 9.45997C10.9485 9.36707 10.9143 9.27737 10.8738 9.18874C10.8193 9.05846 10.7734 8.92392 10.736 8.78724C10.7275 8.7221 10.704 8.66337 10.6666 8.60997C10.6175 8.55124 10.5427 8.52562 10.4904 8.47009C10.4434 8.4199 10.3868 8.36331 10.3473 8.30671C10.3249 8.25866 10.3099 8.20847 10.3003 8.15721C10.3046 8.1145 10.1006 8.08887 10.0569 8.07926C9.93833 7.98956 10.0088 7.89239 9.90416 7.78774C9.82728 7.70979 9.73972 7.65106 9.64041 7.60942C9.58702 7.58806 9.52188 7.5667 9.46422 7.55923C9.38306 7.79415 9.42364 8.10275 9.42471 8.34515C9.42577 8.65803 9.42471 8.9709 9.42471 9.28378C9.42471 9.63083 9.40548 9.98641 9.42791 10.3335C9.39908 10.074 9.35103 9.80488 9.28162 9.55287C9.22822 9.35853 9.15348 9.17486 9.06805 8.99226C9.01786 8.88441 8.93564 8.67618 8.82885 8.59075C8.69965 8.8118 8.69537 9.05526 8.62703 9.29446C8.55335 9.18981 8.51705 9.07021 8.49249 8.94634C8.45511 8.76161 8.40706 8.54697 8.42842 8.35903C8.41347 8.56513 8.33979 8.76054 8.32804 8.96663C8.3195 9.1535 8.32697 9.59132 8.3259 9.52831C8.31309 9.38736 8.29814 9.2464 8.27785 9.10652C8.24902 8.91217 8.20631 8.6922 8.13049 8.51067C8.09418 8.42204 8.0173 8.33981 7.99488 8.24478C7.98313 8.19245 7.99274 8.13372 7.99488 8.0814C7.99701 8.01733 8.00128 7.95005 7.99381 7.88705C7.93187 7.965 7.88275 8.05684 7.82829 8.13906C7.77597 8.21808 7.73539 8.3238 7.66491 8.3868C7.54959 8.29496 7.43213 8.20206 7.32641 8.10062C7.2538 8.03228 7.20041 7.93724 7.12032 7.87851C7.05838 7.90307 6.89394 7.95432 6.86724 8.01306C6.83948 8.07606 6.7957 8.11877 6.76153 8.17857C6.72842 8.2341 6.74337 8.21808 6.71561 8.29176C6.65795 8.44126 6.51486 8.54163 6.40167 8.64735C6.3077 8.73491 6.22654 8.83102 6.14005 8.92605C6.10588 8.84383 6.20091 8.67618 6.22975 8.61531C6.26712 8.53629 6.30343 8.44766 6.35682 8.37825C6.44118 8.26934 6.4935 8.20313 6.54262 8.07499C6.6131 7.89239 6.74337 7.73969 6.84482 7.57418C6.93665 7.42575 6.95694 7.2645 7.03169 7.11394C7.06586 7.0456 7.10857 6.99327 7.13207 6.91746C7.15663 6.8363 7.15769 6.74767 7.17798 6.66545C7.20254 6.57361 7.25807 6.50207 7.29544 6.42519C7.36272 6.28957 7.41291 6.13901 7.47377 5.99912C7.50901 5.91583 7.55706 5.8539 7.5624 5.76633C7.57308 5.57199 7.62541 5.37764 7.66598 5.18223C7.71297 4.95905 7.66919 4.7316 7.72899 4.51697C7.75141 4.43261 7.78772 4.33864 7.79626 4.25001C7.79839 4.22758 7.78665 4.20516 7.79412 4.18274C7.82082 4.10799 7.94255 4.01508 7.98954 3.94674C8.06001 3.84316 8.12302 3.73424 8.20524 3.63921C8.25009 3.58795 8.30028 3.54524 8.33231 3.4833C8.3494 3.4502 8.38891 3.25479 8.42735 3.24411C8.44657 3.1747 8.4754 3.13199 8.48928 3.09461C8.52666 2.99423 8.51918 2.88104 8.5619 2.7828C8.55869 2.88425 8.54054 3.00598 8.58005 3.09888C8.62276 3.20139 8.65586 3.30818 8.70178 3.41176C8.79255 3.61785 8.82992 3.82821 8.89293 4.04178C8.96554 4.29058 9.10436 4.52231 9.25172 4.73801C9.49839 5.0968 9.58061 5.42036 9.77175 5.81439C9.8166 5.90836 9.85931 6.03543 9.92659 6.11551C9.96183 6.15716 10.0099 6.17425 10.0334 6.22657C10.0398 6.28957 10.0505 6.35151 10.0643 6.41237C10.0772 6.49353 10.0974 6.57362 10.1231 6.65264C10.1604 6.77971 10.2416 6.88542 10.2651 7.01463C10.2864 7.13957 10.3057 7.2645 10.3302 7.38944C10.3462 7.47166 10.3505 7.59126 10.4071 7.66067C10.4167 7.67242 10.4434 7.68096 10.4488 7.69377C10.5374 7.87424 10.7392 8.09314 10.7947 8.29283C10.9325 8.79044 11.004 9.3062 11.0168 9.82197C11.0233 9.86468 11.0265 9.90739 11.0222 9.95118ZM21.3257 15.9545C21.1858 15.9375 21.0278 16.0304 20.9018 15.9396C20.732 15.8168 20.6103 15.6203 20.5227 15.4356C20.3999 15.1761 20.2953 14.907 20.1821 14.6443C19.9963 14.214 19.7838 13.7687 19.6247 13.3266C19.5819 13.1985 19.5403 13.0693 19.4976 12.9411C19.4741 12.8407 19.4517 12.7404 19.4292 12.64C19.3662 12.5001 19.2552 12.372 19.1666 12.2427C19.032 12.0484 18.9156 11.822 18.7618 11.6394C18.7245 11.6821 18.6786 11.6982 18.6241 11.6853C18.5376 11.7078 18.4853 11.665 18.4671 11.5572C18.2941 11.2934 18.2365 10.9688 18.1382 10.6698C18.0261 10.7264 18.0176 10.9037 17.961 11.0158C17.8585 10.7681 17.7741 10.5331 17.6289 10.3078C17.5445 10.3655 17.4954 10.4456 17.4815 10.5481C17.4313 10.6933 17.3694 10.8332 17.2957 10.9678C17.1451 10.8855 17.0789 10.7467 17.0971 10.5513C17.0725 10.4744 17.0587 10.3954 17.0576 10.3164C17.0469 10.2683 17.0405 10.1135 16.9625 10.1402C16.9497 10.2117 16.9369 10.2833 16.9262 10.3548C16.8568 9.98855 16.8526 9.61694 16.7981 9.25068C16.7682 9.04886 16.6956 8.64735 16.4906 8.51814C16.4532 8.6591 16.4244 8.80112 16.3923 8.94421C16.293 8.54591 16.2941 8.13479 16.2685 7.72794C16.2247 7.67135 16.1958 7.60087 16.1756 7.52399C15.9844 7.42148 15.8669 7.1716 15.9353 6.96444C15.9609 6.88756 15.9876 6.80961 16.0143 6.73272C15.9417 6.47644 15.8435 6.23191 15.7046 5.98844C15.694 5.9799 15.6822 5.97029 15.6715 5.96068C15.6427 6.15716 15.584 6.35684 15.5103 6.5576C15.4601 6.69642 15.3747 6.78718 15.2764 6.84164C15.2818 7.02531 15.2828 7.21218 15.2583 7.38517C15.1964 7.28906 15.1494 7.19616 15.1109 7.08938C15.0949 7.04667 15.0906 7.00929 15.0501 6.9826C15.0138 7.09365 15.0095 7.20898 15.0372 7.32857C15.0372 7.54641 15.0255 7.76318 15.002 7.97995C14.9839 8.15935 14.971 8.33981 14.9657 8.52028C14.9742 8.59609 14.9774 8.67298 14.9753 8.74879C14.9774 8.85664 14.9443 8.95702 14.876 9.05099C14.7062 9.49948 14.5375 9.94904 14.3698 10.3997C14.2844 10.6559 14.2022 10.909 14.1627 11.1781C14.1221 11.1429 14.1008 11.0948 14.0997 11.0318C14.0527 10.9261 14.0057 10.8215 13.9577 10.7157C13.821 10.4018 13.7217 10.0761 13.5604 9.77178C13.4376 9.58277 13.3148 9.39483 13.1899 9.20689C13.0788 9.04886 12.9806 8.88227 12.8962 8.70822C12.8418 8.61104 12.8322 8.51814 12.7724 8.59716C12.6859 8.49572 12.625 8.38039 12.5364 8.28108C12.4712 8.35583 12.404 8.18818 12.3922 8.16042C12.3399 8.04189 12.31 7.92549 12.3153 7.79629C12.2438 8.01519 12.1562 8.22876 12.0836 8.44767C12.0195 8.64201 11.9811 8.83956 11.9245 9.03497C11.8369 8.86198 11.8145 8.68472 11.807 8.49465C11.8028 8.39534 11.7996 8.35583 11.7472 8.27254C11.6725 8.15508 11.6223 8.00878 11.5903 7.87103C11.5668 7.77173 11.5988 7.66601 11.5721 7.5699C11.5593 7.52612 11.5219 7.477 11.5016 7.43429C11.3949 7.20043 11.3297 6.95376 11.2005 6.73059C11.1482 6.77971 11.1172 6.86513 11.0798 6.92387C11.0168 7.02211 10.9453 7.1118 10.8684 7.19723C10.8481 7.01036 10.8086 6.81815 10.7734 6.63982C10.7584 6.54478 10.736 6.45188 10.7072 6.36005C10.6773 6.32481 10.6581 6.28316 10.6495 6.23618C10.6228 6.1326 10.6143 6.02582 10.5833 5.92651C10.5662 5.86991 10.5577 5.77594 10.4872 5.79303C10.4135 5.60295 10.3911 5.40968 10.3452 5.21426C10.3345 5.16835 10.3163 5.03807 10.2405 5.0968C10.1402 4.94303 10.1807 4.6686 10.1829 4.49134C10.185 4.35145 10.2501 4.06207 10.1519 3.95529C10.0985 4.01829 10.0323 4.06421 9.95328 4.0909C9.88815 3.97451 9.89242 3.86452 9.87106 3.73424C9.86252 3.68406 9.86359 3.62319 9.82621 3.67017C9.81233 3.51641 9.80485 3.36477 9.78136 3.211C9.76107 3.07646 9.7269 2.94298 9.7205 2.80736C9.64895 2.79135 9.55285 3.45127 9.5411 3.51427C9.41616 3.36264 9.38626 3.12558 9.34248 2.93871C9.34141 2.93123 9.34035 2.92376 9.33821 2.91628C9.35423 2.60875 9.38947 2.30121 9.39908 1.99581C9.40442 1.87621 9.40548 1.75661 9.40228 1.63808L9.41723 1.50674C9.41937 1.43947 9.3852 1.39142 9.31472 1.36258C9.16522 1.2259 9.01786 1.08708 8.87263 0.94506C8.71887 0.773139 8.60461 0.671695 8.5982 0.465603C8.5982 0.436772 8.60247 0.405805 8.60247 0.375906C8.60354 0.249901 8.57578 0.126031 8.56937 2.67029e-05C8.4156 0.132438 8.3793 0.368429 8.27892 0.541419C8.2629 0.567047 8.24795 0.569183 8.24155 0.599083C8.23194 0.643932 8.26717 0.702663 8.27144 0.750715C8.27465 0.789157 8.27251 0.82653 8.26504 0.863905C8.24155 0.900211 8.2266 0.939721 8.22019 0.982434C8.18602 1.10096 8.15932 1.21949 8.14117 1.34123C8.09632 1.53344 8.06215 1.75875 7.94148 1.91999C7.90838 1.96271 7.8646 1.99794 7.84324 2.04706C7.80267 2.1421 7.81228 2.29907 7.79733 2.39732C7.78238 2.49235 7.76422 2.58312 7.72151 2.66961C7.67452 2.76251 7.60618 2.84581 7.55172 2.93444C7.54211 2.97929 7.51969 3.01239 7.48445 3.03161C7.47377 3.04229 7.46096 3.04656 7.44601 3.04229C7.39048 3.11597 7.35524 3.19072 7.29865 3.2644C7.13954 3.46835 7.0146 3.70755 6.89607 3.93713C6.83521 4.04712 6.78288 4.16138 6.74017 4.27884C6.73163 4.32048 6.71347 4.35679 6.68678 4.38883C6.62912 4.37281 6.63979 4.30874 6.6131 4.26282C6.59922 4.54259 6.61203 4.82237 6.60883 5.10214C6.60776 5.18009 6.62378 5.39686 6.54048 5.46841C6.51486 5.46734 6.49243 5.4588 6.47321 5.44278C6.38245 5.63178 6.43477 5.83681 6.40273 6.03756C6.39312 6.09629 6.39206 6.17318 6.36429 6.22657C6.31731 6.22871 6.27032 6.22657 6.22334 6.21909C6.16461 6.25327 6.13578 6.30666 6.13684 6.37713C6.05996 6.65584 6.02365 6.94309 5.95745 7.22393C5.87416 7.57738 5.83144 7.94899 5.71612 8.2939C5.62428 8.18498 5.57196 8.06004 5.44702 7.9885C5.39043 8.14867 5.34451 8.31419 5.28364 8.47223C5.27403 8.49892 5.25161 8.59716 5.21744 8.61425C5.19608 8.59716 5.179 8.57367 5.16832 8.54697C5.13521 8.68472 5.13522 8.82781 5.10959 8.96663C5.09464 9.04565 5.07648 9.11933 5.07542 9.19942C5.07221 9.34785 5.04338 9.52511 5.13308 9.65325C5.10852 9.65432 5.08503 9.65325 5.06154 9.64898C4.94941 9.91273 4.87573 10.2117 4.71342 10.452C4.54684 10.6987 4.42724 10.9656 4.31832 11.2433C4.17844 11.1888 4.07165 11.0147 3.97661 10.9037C3.84741 10.751 3.72034 10.5961 3.57831 10.4552C3.56764 10.4883 3.58472 10.5139 3.57831 10.547C3.51318 10.4285 3.48007 10.232 3.3829 10.1412C3.37115 10.2277 3.37008 10.3142 3.3797 10.4018C3.38397 10.7414 3.38183 11.0809 3.37329 11.4194C3.36581 11.601 3.37008 11.6939 3.32203 11.8412C3.27078 12.0003 3.23554 12.1691 3.19389 12.3335C3.11487 12.6475 3.00061 12.9539 2.94402 13.2721C2.88636 13.2476 2.84151 13.1995 2.78171 13.1803C2.73686 13.4067 2.66959 13.6267 2.60338 13.8477C2.56067 13.9919 2.52009 14.2353 2.42078 14.3571C2.36632 14.4243 2.36525 14.4201 2.27769 14.4179C2.23605 14.4169 2.16984 14.3976 2.13033 14.4105C2.06306 14.4318 2.06519 14.4799 2.04277 14.5493C2.01287 14.6422 1.95948 14.7361 1.96695 14.8365C1.81425 14.8451 1.66155 14.8397 1.50885 14.8184C1.41808 14.7991 1.33052 14.8034 1.2451 14.8312C1.16287 14.8814 1.15006 14.9956 1.07424 15.0469C0.980272 15.1077 0.974933 15.096 0.92688 15.2519C0.885235 15.4003 0.854268 15.5498 0.831843 15.7025C0.861743 15.789 0.846793 15.8456 0.786994 15.8723C0.737874 15.7677 0.71545 15.8125 0.664194 15.9022C0.545664 16.1094 0.448491 16.3272 0.354522 16.5451C0.266959 16.7458 0.101445 17.0106 0.152701 17.2402L0.540325 16.9177C0.431406 17.0224 0.321419 17.1249 0.206093 17.2221C0.10892 17.3032 0.114258 17.441 0 17.5104C0.0106783 17.6321 0.116395 17.7442 0.215703 17.8072C0.289384 17.8521 0.303265 17.8713 0.353453 17.9428C0.39937 18.0091 0.458101 18.0689 0.511493 18.1297C0.54246 18.1671 0.577698 18.1938 0.611869 18.2183C0.622547 18.2771 0.640701 18.3347 0.664194 18.3903C0.7005 18.4725 0.698364 18.4778 0.790198 18.5013C0.940763 18.5398 1.09026 18.5803 1.23655 18.6348C1.24509 18.7448 1.11055 18.8537 1.13511 18.9541C1.14365 18.9851 1.22481 19.0609 1.24189 19.079C1.42876 19.2862 1.69572 19.3855 1.90929 19.5574C1.95414 19.6204 2.00005 19.6823 2.05131 19.7357C2.22323 19.9194 2.50194 20.0945 2.71444 20.2163C2.84471 20.291 2.90878 20.3049 3.0145 20.3049C3.02411 20.3156 3.03585 20.3241 3.0444 20.3359C3.03799 20.3775 3.04119 20.4192 3.05294 20.4597C3.08497 20.5953 3.19069 20.5654 3.30602 20.59C3.36154 20.6028 3.416 20.6199 3.46939 20.6413C3.55162 20.6658 3.63491 20.685 3.72033 20.6989C3.8079 20.763 3.89546 20.8292 3.98089 20.8975C4.0834 20.9541 4.17203 21.0268 4.24571 21.1154C4.33327 21.2104 4.44112 21.2136 4.54577 21.2777C4.68779 21.3653 4.80846 21.503 4.92806 21.6162C5.0327 21.7208 5.14269 21.818 5.26015 21.9077C5.31782 21.9878 5.3915 22.0327 5.48119 22.0423C5.49935 21.9846 5.5207 22.0081 5.5741 21.9857C5.64564 21.9558 5.71291 21.8896 5.73641 21.8159C5.80048 21.8426 5.80582 21.944 5.83678 21.9963C5.84639 22.0102 5.87095 22.0134 5.87736 22.0284C5.89658 22.0722 5.86882 22.1544 5.89445 22.1896C5.92328 22.2313 6.07064 22.2259 6.10481 22.2302C6.23081 22.2409 6.35468 22.2622 6.47748 22.2943C6.51486 22.3146 6.55223 22.3348 6.58961 22.3551C6.62378 22.4192 6.56932 22.5324 6.68464 22.5356C6.68998 22.5538 6.69319 22.5719 6.69746 22.5901C6.7391 22.6029 6.77861 22.589 6.82026 22.6007L6.84695 22.6274C6.9153 22.6669 6.99004 22.6872 7.07013 22.6883C7.12779 22.6755 7.17158 22.6894 7.20361 22.7289C7.20895 22.7513 7.22176 22.762 7.24205 22.7598C7.33282 22.7876 7.33389 22.747 7.41184 22.8271C7.48872 22.9072 7.55386 22.8965 7.64142 22.9521C7.72258 23.0033 7.78985 23.077 7.87528 23.1208C7.88275 23.1325 7.89023 23.1453 7.8977 23.1571C7.91799 23.1678 7.93935 23.1688 7.96177 23.1614C8.02798 23.172 8.04186 23.1614 8.09846 23.1987C8.23834 23.2906 8.3195 23.3354 8.49462 23.329C8.54054 23.3269 8.59927 23.3183 8.64519 23.3247C8.73168 23.3354 8.78614 23.4123 8.87157 23.4198C8.95059 23.4272 8.98689 23.3696 9.05737 23.4134C9.09154 23.4732 9.1428 23.5105 9.21114 23.5266C9.24745 23.5255 9.28482 23.5233 9.32219 23.5223C9.36064 23.4881 9.40228 23.4828 9.4482 23.5052C9.5742 23.5757 9.69807 23.6515 9.81981 23.7316C9.85398 23.7476 9.88921 23.7636 9.92445 23.7796C10.0003 23.7444 10.0675 23.6953 10.1263 23.6344C10.2779 23.5191 10.3035 23.4988 10.4669 23.5671C10.5641 23.6088 10.6623 23.6483 10.7606 23.6867C10.9058 23.7305 11.0499 23.723 11.192 23.6643C11.3671 23.6205 11.4333 23.5885 11.602 23.5928C11.6234 23.5928 11.649 23.5949 11.6725 23.596C11.759 23.6664 11.8572 23.7198 11.9662 23.7519C12.2085 23.8448 12.4712 23.7796 12.7254 23.848C12.8493 23.8811 12.9432 23.9483 13.0553 23.9879C13.144 24.0135 13.2315 23.9985 13.318 23.9441C13.5647 23.8352 13.8007 23.707 14.026 23.5586C14.404 23.3375 14.7703 23.0973 15.1259 22.841C15.5188 22.5548 15.9107 22.2676 16.3016 21.9793C16.3667 21.959 16.4318 21.9387 16.497 21.9184C16.6038 21.9504 16.7116 21.9664 16.8227 21.9664C17.1697 21.9109 17.4794 21.5489 17.7186 21.3396C17.8435 21.2307 17.9684 21.1218 18.0934 21.0129C18.1927 20.8933 18.2343 20.8773 18.2162 20.9616C18.3561 20.795 18.4778 20.6156 18.5825 20.4245C18.7533 20.1362 18.9541 19.8724 19.1858 19.6332C19.4762 19.3097 19.7934 19.015 20.134 18.7448C20.3241 18.5942 20.5024 18.465 20.6605 18.2792C20.8313 18.0774 20.9669 17.8297 21.0983 17.6001C21.2275 17.3716 21.2574 17.1377 21.2542 16.8782C21.251 16.6209 21.2905 16.3635 21.3172 16.1083C21.3214 16.0592 21.3364 16.0026 21.3257 15.9545Z" fill="black"/>
</svg>
