<?xml version="1.0" encoding="UTF-8" standalone="no"?>
<!-- Created with Inkscape (http://www.inkscape.org/) -->

<svg
   width="18.351049"
   height="24"
   viewBox="0 0 4.8553817 6.35"
   version="1.1"
   id="svg7708"
   inkscape:version="1.2.1 (9c6d41e4, 2022-07-14)"
   sodipodi:docname="creeping_cold.svg"
   xmlns:inkscape="http://www.inkscape.org/namespaces/inkscape"
   xmlns:sodipodi="http://sodipodi.sourceforge.net/DTD/sodipodi-0.dtd"
   xmlns="http://www.w3.org/2000/svg"
   xmlns:svg="http://www.w3.org/2000/svg">
  <sodipodi:namedview
     id="namedview7710"
     pagecolor="#505050"
     bordercolor="#eeeeee"
     borderopacity="1"
     inkscape:showpageshadow="0"
     inkscape:pageopacity="0"
     inkscape:pagecheckerboard="0"
     inkscape:deskcolor="#505050"
     inkscape:document-units="mm"
     showgrid="false"
     inkscape:zoom="0.70199214"
     inkscape:cx="183.76274"
     inkscape:cy="206.55502"
     inkscape:window-width="1390"
     inkscape:window-height="938"
     inkscape:window-x="0"
     inkscape:window-y="25"
     inkscape:window-maximized="0"
     inkscape:current-layer="layer1" />
  <defs
     id="defs7705">
    <clipPath
       clipPathUnits="userSpaceOnUse"
       id="clipPath2799">
      <path
         d="m 159.654,650.983 h 22.76 v 22.761 h -22.76 z"
         id="path2797" />
    </clipPath>
  </defs>
  <g
     inkscape:label="Layer 1"
     inkscape:groupmode="layer"
     id="layer1"
     transform="translate(-56.379905,-93.964005)">
    <g
       id="g2793"
       transform="matrix(0.30653167,0,0,-0.30653167,6.4986359,300.19779)">
      <g
         id="g2795"
         clip-path="url(#clipPath2799)">
        <g
           id="g2801"
           transform="translate(177.492,670.4)">
          <path
             d="M 0,0 C 0.001,-0.01 0.001,-0.02 0.002,-0.03 0.023,-0.035 0.044,-0.039 0.067,-0.043 0.038,-0.039 0.014,-0.021 0,0"
             style="fill:#231f20;fill-opacity:1;fill-rule:nonzero;stroke:none"
             id="path2803" />
        </g>
        <g
           id="g2805"
           transform="translate(178.556,668.849)">
          <path
             d="M 0,0 C -0.032,0.133 -0.153,0.259 -0.241,0.374 -0.37,0.543 -0.534,0.693 -0.649,0.871 -0.745,1.019 -0.735,1.198 -0.746,1.362 -1.161,1.451 -1.249,1.588 -1.407,1.614 -1.598,1.645 -1.797,1.557 -1.926,1.456 -2.035,1.371 -2.135,1.278 -2.241,1.19 -2.267,1.168 -2.296,1.14 -2.328,1.127 -2.346,1.119 -2.36,1.117 -2.373,1.117 -2.455,1.26 -2.547,1.399 -2.647,1.534 -2.673,1.582 -2.699,1.63 -2.723,1.679 -2.769,1.777 -2.836,1.86 -2.885,1.957 -2.944,2.073 -3.051,2.15 -3.151,2.229 -3.226,2.289 -3.316,2.317 -3.39,2.374 -3.503,2.46 -3.577,2.552 -3.708,2.609 -3.835,2.663 -3.941,2.753 -4.06,2.822 -4.258,2.947 -4.467,3.06 -4.685,3.164 -4.735,3.201 -4.785,3.238 -4.841,3.268 -5.002,3.357 -5.168,3.381 -5.337,3.446 -5.414,3.475 -5.493,3.498 -5.573,3.518 -5.582,3.521 -5.59,3.521 -5.6,3.523 -6.208,3.709 -6.867,3.816 -7.554,3.834 -7.613,3.854 -7.671,3.873 -7.732,3.887 -7.883,3.921 -8.025,3.911 -8.177,3.926 -8.337,3.941 -8.497,3.964 -8.657,3.934 -8.789,3.909 -8.927,3.899 -9.05,3.842 -9.285,3.731 -9.542,3.678 -9.782,3.578 -9.807,3.567 -9.831,3.555 -9.854,3.542 c -0.129,-0.039 -0.255,-0.081 -0.38,-0.125 -0.04,-0.01 -0.079,-0.022 -0.115,-0.036 -0.014,-0.006 -0.028,-0.014 -0.042,-0.022 -0.041,-0.016 -0.082,-0.034 -0.123,-0.051 -0.055,-0.014 -0.11,-0.025 -0.164,-0.046 -0.054,-0.021 -0.107,-0.047 -0.162,-0.064 -0.037,-0.012 -0.084,-0.015 -0.116,-0.039 -0.028,-0.022 -0.04,-0.051 -0.055,-0.08 -0.338,-0.175 -0.652,-0.376 -0.937,-0.6 -0.02,-0.015 -0.039,-0.029 -0.06,-0.043 -0.08,-0.054 -0.167,-0.095 -0.251,-0.143 -0.129,-0.071 -0.251,-0.166 -0.373,-0.248 -0.134,-0.091 -0.239,-0.217 -0.341,-0.341 -0.136,-0.164 -0.279,-0.325 -0.406,-0.496 -0.117,-0.159 -0.165,-0.355 -0.261,-0.524 -0.124,-0.218 -0.222,-0.404 -0.232,-0.662 -0.002,-0.063 -0.005,-0.128 -0.01,-0.193 -0.208,0.042 -0.287,0.086 -0.406,0.096 -0.191,0.017 -0.39,-0.03 -0.519,-0.084 -0.103,-0.043 -0.201,-0.09 -0.297,-0.135 -0.093,-0.043 -0.114,-0.09 -0.139,-0.146 -0.02,-0.043 -0.021,-0.089 -0.053,-0.13 -0.034,-0.043 -0.097,-0.081 -0.151,-0.119 -0.069,-0.05 -0.069,-0.1 -0.112,-0.154 -0.029,-0.035 -0.076,-0.064 -0.117,-0.096 -0.104,-0.084 -0.131,-0.197 -0.146,-0.29 -0.016,-0.093 0.03,-0.167 0.129,-0.248 0.058,-0.048 0.109,-0.096 0.147,-0.148 -0.005,-0.046 -0.001,-0.094 0.008,-0.141 0.025,-0.133 0.03,-0.257 0.015,-0.386 -0.023,-0.203 -0.123,-0.393 -0.141,-0.596 -0.01,-0.103 -0.025,-0.205 -0.036,-0.308 -0.004,-0.007 -0.008,-0.014 -0.013,-0.021 -0.053,-0.074 -0.112,-0.138 -0.113,-0.217 -0.003,-0.146 -0.013,-0.298 0.067,-0.44 0.083,-0.149 0.117,-0.299 0.18,-0.449 0.089,-0.213 0.198,-0.424 0.241,-0.64 0.057,-0.288 0.091,-0.576 0.155,-0.863 0.072,-0.33 0.064,-0.66 0.12,-0.99 0.025,-0.146 0.081,-0.291 0.101,-0.438 0.016,-0.123 0.044,-0.246 0.054,-0.369 0.023,-0.275 10e-4,-0.551 -0.028,-0.826 -0.008,-0.081 -10e-4,-0.161 -0.003,-0.243 -0.002,-0.083 0.034,-0.156 0.067,-0.238 0.037,-0.092 0.046,-0.184 0.071,-0.277 0.032,-0.114 0.074,-0.228 0.109,-0.342 0.051,-0.17 0.128,-0.338 0.181,-0.509 -0.019,0.111 -0.014,0.232 0.015,0.342 0.039,0.146 0.016,0.295 0.04,0.442 0.061,0.37 0.054,0.742 0.1,1.112 0.04,0.333 0.082,0.666 0.131,0.999 0.027,0.185 0.041,0.371 0.06,0.556 0.062,-0.175 0.134,-0.351 0.185,-0.525 0.041,-0.14 0.02,-0.281 0.034,-0.42 0.014,-0.13 0.028,-0.26 0.058,-0.392 0.061,-0.266 0.108,-0.534 0.193,-0.802 0.128,-0.401 0.081,-0.795 0.112,-1.189 0.014,-0.173 0,-0.347 0.075,-0.524 0.016,-0.04 0.051,-0.081 0.059,-0.12 0.04,0.33 0.073,0.66 0.109,0.989 0.019,0.172 0.037,0.344 0.056,0.516 0.026,0.229 -0.029,0.464 -10e-4,0.691 0.033,0.262 0.06,0.524 0.09,0.786 0.017,0.154 0.017,0.31 0.065,0.461 0.015,-0.056 0.031,-0.111 0.044,-0.165 0.031,-0.127 0.043,-0.255 0.067,-0.382 0.026,-0.136 0.081,-0.267 0.111,-0.402 0.049,-0.219 0.034,-0.439 0.034,-0.66 0.001,-0.091 -0.005,-0.182 -0.002,-0.273 0.003,-0.093 0.044,-0.174 0.063,-0.265 0.025,-0.128 -0.022,-0.257 0.035,-0.382 0.051,-0.112 0.176,-0.19 0.243,-0.297 0.094,-0.15 0.187,-0.32 0.219,-0.484 0.041,-0.208 0.111,-0.417 0.188,-0.621 0.031,-0.082 0.086,-0.152 0.115,-0.235 0.028,-0.083 0.079,-0.173 0.092,-0.258 0.01,-0.072 -0.018,-0.124 -0.037,-0.19 -0.011,-0.039 0.004,-0.086 -0.005,-0.127 -0.009,-0.039 -0.024,-0.072 -0.026,-0.112 -0.006,-0.103 0.047,-0.169 0.076,-0.267 0.028,-0.092 0.036,-0.186 0.066,-0.277 0.031,-0.093 0.063,-0.183 0.077,-0.279 0.018,-0.121 10e-4,-0.232 -0.04,-0.348 -0.108,-0.311 -0.046,-0.631 -0.047,-0.951 0,-0.179 -0.011,-0.361 0.013,-0.539 0.022,-0.169 0.002,-0.336 0.014,-0.505 0.009,-0.127 0.046,-0.25 0.048,-0.378 0.003,-0.171 0.016,-0.327 0.044,-0.494 0.003,-0.017 0.003,-0.033 0.004,-0.049 0.019,0.113 0.042,0.226 0.051,0.338 0.02,0.23 0.029,0.461 0.048,0.692 0.021,0.262 0.057,0.522 0.081,0.783 0.033,0.372 0.09,0.742 0.128,1.113 0.045,0.445 0.063,0.891 0.088,1.337 0.015,0.267 0.047,0.536 0.052,0.804 0.003,0.144 -0.008,0.284 0.012,0.427 0.021,0.156 0.05,0.308 0.062,0.465 0.014,0.187 0.018,0.375 0.034,0.562 0.028,0.301 0.131,0.584 0.159,0.885 0.015,0.167 0.004,0.338 0.002,0.505 -0.001,0.179 0.025,0.346 0.052,0.522 0.006,0.041 0.016,0.081 0.026,0.12 0.011,-0.118 0.022,-0.237 0.042,-0.356 0.025,-0.147 0.082,-0.291 0.101,-0.438 0.016,-0.123 0.044,-0.246 0.054,-0.369 0.023,-0.276 0.002,-0.551 -0.027,-0.826 -0.009,-0.081 -0.002,-0.162 -0.004,-0.243 -0.002,-0.084 0.034,-0.157 0.067,-0.238 0.037,-0.092 0.046,-0.185 0.071,-0.277 0.032,-0.114 0.074,-0.228 0.109,-0.342 0.051,-0.171 0.129,-0.339 0.182,-0.509 -0.02,0.11 -0.015,0.232 0.014,0.342 0.039,0.145 0.017,0.295 0.041,0.441 0.06,0.371 0.054,0.742 0.099,1.113 0.041,0.333 0.082,0.666 0.131,0.999 0.048,0.33 0.054,0.662 0.124,0.992 0.047,0.225 0.064,0.45 0.12,0.674 0.027,0.108 0.077,0.217 0.133,0.325 0.032,-0.132 0.015,-0.265 0.029,-0.395 0.014,-0.13 0.028,-0.26 0.058,-0.391 0.061,-0.267 0.108,-0.535 0.193,-0.803 0.128,-0.401 0.081,-0.795 0.112,-1.189 0.014,-0.173 0,-0.347 0.074,-0.524 0.017,-0.041 0.052,-0.081 0.06,-0.12 0.04,0.329 0.073,0.66 0.109,0.989 0.019,0.172 0.037,0.344 0.056,0.516 0.026,0.229 -0.029,0.464 -0.001,0.691 0.032,0.262 0.06,0.524 0.089,0.786 0.022,0.198 0.016,0.398 0.119,0.586 0.039,0.071 0.071,0.145 0.098,0.219 0.035,-0.083 0.066,-0.166 0.08,-0.256 0.022,-0.138 -0.008,-0.283 -0.033,-0.42 -0.021,-0.113 -0.095,-0.21 -0.12,-0.321 -0.018,-0.083 -0.004,-0.171 -0.005,-0.255 -0.001,-0.189 0.033,-0.371 0.033,-0.561 0,-0.198 0,-0.395 0,-0.593 0,-0.108 -0.004,-0.216 -10e-4,-0.324 0.002,-0.11 0.033,-0.218 0.035,-0.328 0.003,-0.199 -0.028,-0.408 0.006,-0.605 0.022,-0.128 0.021,-0.255 0.042,-0.382 0.02,-0.128 0.02,-0.242 0,-0.371 -0.014,-0.088 -0.032,-0.177 -0.046,-0.264 -0.005,-0.027 -0.009,-0.062 -0.004,-0.09 0.013,-0.083 0.126,-0.112 0.181,-0.185 0.104,-0.136 0.207,-0.304 0.248,-0.459 0.148,-0.561 0.096,-1.139 0.096,-1.709 0,-0.353 0.004,-0.71 0.04,-1.062 0.039,-0.374 0.031,-0.749 0.082,-1.123 0.046,-0.333 0.081,-0.669 0.14,-1.002 0.036,-0.205 0.065,-0.41 0.092,-0.616 0.005,-0.037 0,-0.077 0.013,-0.111 0.149,0.008 0.092,0.52 0.092,0.594 0,0.296 0.022,0.59 0.031,0.886 0.005,0.164 0.037,0.323 0.035,0.487 -0.001,0.141 0.006,0.266 0.03,0.403 0.025,0.152 0.004,0.321 -0.023,0.472 -0.037,0.204 -0.021,0.451 0.018,0.654 0.037,0.189 -0.013,0.373 0.057,0.56 0.032,0.089 0.026,0.196 0.08,0.278 0.03,0.047 0.091,0.115 0.134,0.154 0.065,0.061 0.15,0.016 0.223,-0.03 0.023,0.064 0.005,0.156 0.005,0.223 0,0.031 -0.004,0.065 0.003,0.096 0.006,0.029 0.027,0.034 0.03,0.073 0.019,0.217 0,0.44 0,0.657 v 1.026 c 0,0.299 -0.017,0.6 -0.002,0.899 0.005,0.092 0.047,0.18 0.06,0.272 0.01,0.071 0.016,0.124 0.039,0.194 0.028,0.08 0.052,0.164 0.073,0.247 0.008,-0.033 0.014,-0.065 0.019,-0.098 0.016,-0.124 0.044,-0.247 0.054,-0.37 0.023,-0.275 0.001,-0.551 -0.028,-0.826 -0.008,-0.08 -0.001,-0.161 -0.003,-0.242 -0.002,-0.084 0.034,-0.157 0.067,-0.239 0.037,-0.092 0.046,-0.184 0.071,-0.276 0.032,-0.115 0.074,-0.229 0.108,-0.343 0.052,-0.17 0.129,-0.338 0.182,-0.509 -0.019,0.111 -0.014,0.232 0.015,0.342 0.039,0.146 0.016,0.295 0.04,0.442 0.061,0.37 0.054,0.742 0.099,1.112 0.041,0.334 0.083,0.666 0.131,0.999 0.041,0.277 0.054,0.554 0.097,0.83 0.009,-0.074 0.016,-0.148 0.015,-0.225 -0.001,-0.167 -0.016,-0.338 0.004,-0.505 0.037,-0.301 0.173,-0.584 0.21,-0.885 0.022,-0.187 0.027,-0.375 0.046,-0.562 0.016,-0.157 0.053,-0.309 0.082,-0.465 0.026,-0.143 0.011,-0.283 0.015,-0.427 0.006,-0.268 0.049,-0.537 0.069,-0.804 0.034,-0.446 0.057,-0.892 0.117,-1.337 0.05,-0.371 0.126,-0.741 0.17,-1.113 0.031,-0.261 0.079,-0.521 0.107,-0.783 0.025,-0.231 0.037,-0.462 0.063,-0.692 0.012,-0.111 0.043,-0.223 0.068,-0.336 0.002,0.016 0.002,0.031 0.005,0.047 0.037,0.167 0.054,0.323 0.058,0.494 0.003,0.128 0.052,0.251 0.064,0.378 0.015,0.169 -0.01,0.336 0.019,0.505 0.031,0.178 0.017,0.36 0.016,0.539 0,0.237 0.012,0.464 0.042,0.699 0.046,0.362 -10e-4,0.724 0.081,1.084 0.013,0.057 0.032,0.113 0.039,0.171 0.004,0.038 -0.009,0.081 0.001,0.118 0.01,0.044 0.03,0.07 0.082,0.078 0.16,0.026 0.228,-0.226 0.252,-0.314 0.036,-0.133 0.151,-0.244 0.185,-0.379 0.037,-0.147 0.087,-0.284 0.152,-0.425 0.064,-0.142 0.111,-0.289 0.158,-0.435 0.044,0.007 0.022,0.059 0.024,0.09 0.002,0.041 0.016,0.056 0.029,0.093 0.074,0.219 0.029,0.463 0.035,0.687 0.003,0.124 0.058,0.241 0.068,0.364 0.012,0.142 0.034,0.281 0.033,0.424 -0.002,0.272 -10e-4,0.544 -10e-4,0.815 0,0.127 0.005,0.254 0.002,0.381 -0.003,0.095 -0.027,0.188 -0.034,0.284 -0.007,0.1 -0.04,0.189 -0.061,0.287 -0.017,0.084 -0.005,0.175 -0.005,0.26 0,0.175 0,0.351 0,0.527 0,0.068 -0.007,0.137 -0.002,0.205 0.006,0.073 0.034,0.141 0.036,0.214 0.003,0.137 0.01,0.265 0.034,0.401 0.028,0.154 0.099,0.315 0.141,0.468 0.096,0.343 0.149,0.695 0.298,1.027 0.025,0.056 0.053,0.11 0.078,0.164 0.033,-0.149 0.069,-0.298 0.116,-0.448 0.128,-0.401 0.081,-0.795 0.112,-1.189 0.014,-0.173 0,-0.346 0.075,-0.524 0.017,-0.04 0.051,-0.081 0.059,-0.12 0.04,0.33 0.073,0.66 0.109,0.99 0.019,0.172 0.037,0.344 0.057,0.515 0.025,0.229 -0.03,0.464 -0.002,0.691 0.026,0.21 0.049,0.42 0.072,0.63 0.084,-0.366 0.18,-0.731 0.22,-1.103 0.057,-0.537 0.091,-1.074 0.155,-1.611 0.072,-0.614 0.064,-1.23 0.12,-1.844 0.025,-0.274 0.081,-0.543 0.101,-0.817 0.016,-0.23 0.043,-0.459 0.054,-0.689 0.023,-0.513 0.002,-1.028 -0.028,-1.54 -0.008,-0.151 -10e-4,-0.302 -0.003,-0.453 -0.002,-0.156 0.034,-0.292 0.067,-0.445 0.037,-0.171 0.046,-0.343 0.071,-0.515 0.032,-0.214 0.074,-0.426 0.109,-0.639 0.051,-0.318 0.128,-0.631 0.181,-0.948 -0.019,0.206 -0.014,0.432 0.015,0.637 0.039,0.272 0.016,0.55 0.04,0.823 0.061,0.691 0.054,1.384 0.1,2.075 0.04,0.621 0.082,1.242 0.131,1.863 0.048,0.617 0.054,1.236 0.123,1.851 0.048,0.419 0.065,0.839 0.121,1.257 0.051,0.381 0.182,0.765 0.288,1.138 0.16,0.561 0.295,1.129 0.295,1.705 0,0.169 0.008,0.331 -0.032,0.497 -0.06,0.244 -0.074,0.495 -0.164,0.736 -0.045,0.118 -0.067,0.194 -0.066,0.316 0,0.075 -0.007,0.152 -0.002,0.226 0.006,0.085 0.034,0.165 0.035,0.25 0.002,0.105 0,0.21 0,0.316 v 0.845 c 0,0.263 -0.024,0.516 0.098,0.764 0.055,0.112 0.107,0.224 0.164,0.337 0.045,0.09 0.123,0.161 0.184,0.245 0.099,0.135 0.178,0.262 0.234,0.412 C -0.015,-0.309 0.035,-0.146 0,0"
             style="fill:#231f20;fill-opacity:1;fill-rule:nonzero;stroke:none"
             id="path2807" />
        </g>
        <g
           id="g2809"
           transform="translate(173.169,652.795)">
          <path
             d="M 0,0 C 0.004,0.092 -0.012,0.186 -0.033,0.279 -0.04,0.186 -0.016,0.093 0,0"
             style="fill:#231f20;fill-opacity:1;fill-rule:nonzero;stroke:none"
             id="path2811" />
        </g>
        <g
           id="g2813"
           transform="translate(166.506,653.071)">
          <path
             d="M 0,0 C -0.015,-0.093 -0.028,-0.185 -0.025,-0.277 -0.013,-0.185 0.006,-0.093 0,0"
             style="fill:#231f20;fill-opacity:1;fill-rule:nonzero;stroke:none"
             id="path2815" />
        </g>
        <g
           id="g2817"
           transform="translate(169.084,659.491)">
          <path
             d="M 0,0 C -0.002,-0.015 -0.003,-0.03 -0.005,-0.044 0.003,-0.03 0.003,-0.015 0,0"
             style="fill:#231f20;fill-opacity:1;fill-rule:nonzero;stroke:none"
             id="path2819" />
        </g>
        <g
           id="g2821"
           transform="translate(175.327,660.044)">
          <path
             d="M 0,0 C -0.002,-0.015 -0.003,-0.03 -0.005,-0.044 0.003,-0.03 0.003,-0.015 0,0"
             style="fill:#231f20;fill-opacity:1;fill-rule:nonzero;stroke:none"
             id="path2823" />
        </g>
        <g
           id="g2825"
           transform="translate(164.791,658.569)">
          <path
             d="M 0,0 C -0.002,-0.015 -0.003,-0.03 -0.005,-0.044 0.003,-0.03 0.003,-0.015 0,0"
             style="fill:#231f20;fill-opacity:1;fill-rule:nonzero;stroke:none"
             id="path2827" />
        </g>
      </g>
    </g>
  </g>
</svg>
