<?xml version="1.0" encoding="UTF-8" standalone="no"?>
<!-- Created with Inkscape (http://www.inkscape.org/) -->

<svg
   width="23.869093"
   height="24"
   viewBox="0 0 6.315364 6.35"
   version="1.1"
   id="svg6656"
   inkscape:version="1.2.1 (9c6d41e4, 2022-07-14)"
   sodipodi:docname="return_to_blood_on_the_altar.svg"
   xmlns:inkscape="http://www.inkscape.org/namespaces/inkscape"
   xmlns:sodipodi="http://sodipodi.sourceforge.net/DTD/sodipodi-0.dtd"
   xmlns="http://www.w3.org/2000/svg"
   xmlns:svg="http://www.w3.org/2000/svg">
  <sodipodi:namedview
     id="namedview6658"
     pagecolor="#505050"
     bordercolor="#eeeeee"
     borderopacity="1"
     inkscape:showpageshadow="0"
     inkscape:pageopacity="0"
     inkscape:pagecheckerboard="0"
     inkscape:deskcolor="#505050"
     inkscape:document-units="mm"
     showgrid="false"
     inkscape:zoom="0.70199214"
     inkscape:cx="84.046525"
     inkscape:cy="259.26216"
     inkscape:window-width="1390"
     inkscape:window-height="938"
     inkscape:window-x="85"
     inkscape:window-y="25"
     inkscape:window-maximized="0"
     inkscape:current-layer="layer1" />
  <defs
     id="defs6653">
    <clipPath
       clipPathUnits="userSpaceOnUse"
       id="clipPath393">
      <path
         d="m 39.282,412.872 h 22.057 v 22.057 H 39.282 Z"
         id="path391" />
    </clipPath>
  </defs>
  <g
     inkscape:label="Layer 1"
     inkscape:groupmode="layer"
     id="layer1"
     transform="translate(-82.909234,-79.873281)">
    <g
       id="g387"
       transform="matrix(0.29480893,0,0,-0.29480893,71.234821,208.018)">
      <g
         id="g389"
         clip-path="url(#clipPath393)">
        <g
           id="g395"
           transform="translate(50.4907,429.743)">
          <path
             d="m 0,0 c -0.213,0.174 -0.494,0.113 -0.727,-0.071 0.21,-0.02 0.581,-0.014 0.664,0.028 C -0.039,-0.031 -0.019,-0.016 0,0"
             style="fill:#231f20;fill-opacity:1;fill-rule:nonzero;stroke:none"
             id="path397" />
        </g>
        <g
           id="g399"
           transform="translate(49.1409,430.665)">
          <path
             d="m 0,0 c 0.057,-0.203 0.124,-0.396 0.196,-0.556 0.34,0.141 0.956,-0.073 1.128,-0.111 0.052,-0.011 0.099,-0.023 0.144,-0.035 0.022,0.09 0.027,0.185 0.031,0.263 0.007,0.138 -0.028,0.282 -0.056,0.425 C 0.963,0.007 0.479,0.019 0,0"
             style="fill:#231f20;fill-opacity:1;fill-rule:nonzero;stroke:none"
             id="path401" />
        </g>
        <g
           id="g403"
           transform="translate(49.287,421.112)">
          <path
             d="m 0,0 c -0.52,0.898 -0.44,1.853 -0.576,2.826 -0.063,0.195 -0.003,0.329 0.122,0.423 -0.197,0.847 0.015,1.637 0.123,2.468 -0.021,0.007 -0.043,0.015 -0.063,0.02 -0.183,0.871 0.026,1.68 0.163,2.527 -0.005,0 -0.01,0 -0.014,0 -0.243,0.4 -0.365,0.812 -0.44,1.232 C -1.544,9.35 -2.373,8.935 -2.968,8.403 -3.08,8.302 -3.219,8.208 -3.347,8.07 -3.74,7.538 -4.095,7.026 -4.35,6.396 -4.612,5.751 -4.985,5.163 -5.289,4.533 -5.599,3.888 -5.465,3.26 -5.45,2.555 c 0.006,-0.278 0,-0.558 0,-0.837 0,-0.556 0.05,-0.925 0.29,-1.433 0.28,-0.594 0.275,-1.437 0.751,-1.905 0.23,-0.225 0.544,-0.364 0.795,-0.577 0.299,-0.256 0.606,-0.514 0.889,-0.785 0.251,-0.241 0.461,-0.51 0.77,-0.667 0.251,-0.127 0.56,-0.169 0.831,-0.247 0.289,-0.083 0.604,-0.144 0.922,-0.193 0.001,0.375 0.019,0.754 0.004,1.14 -0.033,0.15 0.001,0.259 0.076,0.338 -0.105,0.883 0.046,1.731 0.144,2.61 C 0.015,-0.001 0.007,0 0,0"
             style="fill:#231f20;fill-opacity:1;fill-rule:nonzero;stroke:none"
             id="path405" />
        </g>
        <g
           id="g407"
           transform="translate(49.0953,431.375)">
          <path
             d="M 0,0 C 0.514,0 1.01,0.06 1.509,0.095 1.502,0.145 1.489,0.201 1.465,0.271 1.381,0.521 1.331,0.862 1.145,1.043 1.058,1.128 0.644,1.321 0.488,1.301 0.361,1.285 0.385,1.126 0.299,1.076 0.152,0.991 -0.009,1.049 -0.096,0.706 -0.155,0.585 -0.152,0.317 -0.107,0.002 -0.071,0.001 -0.036,0 0,0"
             style="fill:#231f20;fill-opacity:1;fill-rule:nonzero;stroke:none"
             id="path409" />
        </g>
        <g
           id="g411"
           transform="translate(50.7004,421.924)">
          <path
             d="M 0,0 C 0.073,-0.016 0.138,-0.033 0.197,-0.05 0.199,-0.023 0.201,0.003 0.203,0.027 0.221,0.274 0.107,0.543 0.133,0.788 0.164,1.078 0.256,1.136 0.157,1.453 0.13,1.542 0.106,1.643 0.08,1.744 -0.338,1.611 -0.873,1.869 -1.322,2.074 -1.348,2.032 -1.372,1.977 -1.393,1.902 -1.527,1.643 -1.385,0.696 -1.159,0.068 -0.831,0.278 -0.177,0.039 0,0"
             style="fill:#231f20;fill-opacity:1;fill-rule:nonzero;stroke:none"
             id="path413" />
        </g>
        <g
           id="g415"
           transform="translate(51.0741,417.922)">
          <path
             d="m 0,0 c -0.05,-0.139 -0.114,-0.249 -0.201,-0.301 -0.363,-0.22 -0.838,0.079 -1.232,0.308 -0.072,-0.189 -0.083,-0.57 -0.049,-0.975 0.209,-0.025 0.416,-0.046 0.613,-0.066 0.323,-0.033 0.625,-0.021 0.921,0.023 0.05,0.151 0.093,0.238 0.043,0.483 C 0.062,-0.367 0.047,-0.172 0,0"
             style="fill:#231f20;fill-opacity:1;fill-rule:nonzero;stroke:none"
             id="path417" />
        </g>
        <g
           id="g419"
           transform="translate(53.7836,429.62)">
          <path
             d="M 0,0 C -0.767,0.506 -1.65,0.895 -2.564,0.993 -2.578,0.69 -2.467,0.131 -2.63,-0.154 c 0.023,-0.107 0.037,-0.237 0.055,-0.398 0.053,-0.502 -0.065,-1.048 -0.217,-1.524 -0.026,-0.081 -0.049,-0.184 -0.073,-0.296 0.439,-0.14 0.48,-0.339 0.57,-0.857 0.088,-0.505 -0.024,-1.051 -0.178,-1.527 -0.055,-0.167 -0.09,-0.431 -0.156,-0.669 0.047,-0.089 0.094,-0.195 0.15,-0.322 0.205,-0.471 0.226,-1.03 0.188,-1.53 -0.022,-0.287 0.067,-0.815 -0.07,-1.113 0.017,-0.106 0.032,-0.23 0.049,-0.375 0.069,-0.592 -0.033,-1.243 -0.17,-1.813 -0.032,-0.13 -0.057,-0.309 -0.087,-0.496 0.25,-0.106 0.32,-0.308 0.448,-0.705 0.081,-0.25 0.11,-0.517 0.109,-0.785 0.148,0.044 0.296,0.095 0.447,0.152 0.546,0.208 1.036,0.631 1.494,0.996 0.506,0.403 0.822,1.032 1.315,1.467 0.643,0.568 1.15,1.48 1.484,2.282 0.273,0.654 0.362,1.511 0.39,2.212 0.034,0.812 0.101,1.446 -0.104,2.234 C 2.628,-1.739 1.215,-0.801 0,0"
             style="fill:#231f20;fill-opacity:1;fill-rule:nonzero;stroke:none"
             id="path421" />
        </g>
        <g
           id="g423"
           transform="translate(49.7499,416.045)">
          <path
             d="m 0,0 c 0.069,-0.241 0.156,-0.424 0.255,-0.487 0.09,-0.057 0.68,-0.125 0.792,-0.083 0.201,0.075 0.246,0.33 0.276,0.5 0.002,0.014 0.003,0.028 0.005,0.042 C 1.274,-0.044 1.221,-0.059 1.168,-0.072 0.822,-0.158 0.411,-0.092 0,0"
             style="fill:#231f20;fill-opacity:1;fill-rule:nonzero;stroke:none"
             id="path425" />
        </g>
        <g
           id="g427"
           transform="translate(49.4924,429.325)">
          <path
             d="m 0,0 c -0.142,-0.389 -0.222,-1.279 -0.168,-1.841 0.338,0.068 0.839,-0.054 1.109,-0.12 0.052,0.221 0.036,0.476 0.109,0.686 0.096,0.274 0.185,0.309 0.181,0.638 -0.002,0.163 0.016,0.357 0.005,0.532 C 0.862,-0.176 0.391,-0.069 0,0"
             style="fill:#231f20;fill-opacity:1;fill-rule:nonzero;stroke:none"
             id="path429" />
        </g>
        <g
           id="g431"
           transform="translate(49.9274,418.28)">
          <path
             d="M 0,0 C 0.173,-0.069 0.438,-0.136 0.509,-0.11 0.607,-0.074 0.671,0.029 0.718,0.148 0.476,0.248 0.216,0.175 0,0"
             style="fill:#231f20;fill-opacity:1;fill-rule:nonzero;stroke:none"
             id="path433" />
        </g>
        <g
           id="g435"
           transform="translate(50.995,420.949)">
          <path
             d="m 0,0 c -0.378,-0.079 -0.856,0.033 -1.254,0.108 -0.14,-0.539 -0.185,-1.762 -0.074,-2.373 0.37,0.035 0.805,-0.028 0.954,-0.037 0.032,-10e-4 0.062,-0.004 0.092,-0.006 0.007,0.029 0.014,0.058 0.021,0.085 0.066,0.281 0.03,0.619 0.103,0.896 0.087,0.328 0.175,0.373 0.162,0.763 C -0.001,-0.431 0.011,-0.217 0,0"
             style="fill:#231f20;fill-opacity:1;fill-rule:nonzero;stroke:none"
             id="path437" />
        </g>
        <g
           id="g439"
           transform="translate(57.9975,423.126)">
          <path
             d="m 0,0 c -0.055,-0.996 -0.613,-2.002 -1.073,-2.859 -0.203,-0.379 -0.579,-0.618 -0.854,-0.939 -0.206,-0.241 -0.273,-0.547 -0.441,-0.826 -0.21,-0.35 -0.5,-0.58 -0.8,-0.835 -0.132,-0.113 -0.23,-0.274 -0.357,-0.378 -0.197,-0.161 -0.457,-0.2 -0.678,-0.313 -0.133,-0.068 -0.247,-0.158 -0.373,-0.223 -0.303,-0.154 -0.677,-0.185 -1.017,-0.28 -0.241,-0.067 -0.48,-0.157 -0.718,-0.246 -0.042,-0.363 -0.005,-0.991 -0.306,-1.162 -0.555,-0.314 -1.494,0.191 -1.999,0.237 -0.135,0.295 -0.209,0.589 -0.25,0.885 -0.168,0.036 -0.331,0.065 -0.483,0.078 -0.196,0.016 -0.357,0.067 -0.544,0.12 -0.359,0.103 -0.742,0.137 -1.095,0.294 -0.406,0.181 -0.728,0.456 -1.04,0.765 -0.307,0.304 -0.547,0.535 -0.896,0.745 -0.334,0.202 -0.76,0.585 -0.978,0.883 -0.524,0.721 -0.677,1.527 -0.898,2.368 -0.25,0.951 -0.616,1.882 -0.575,2.867 0.01,0.24 0.009,0.602 0.103,0.827 0.151,0.362 0.432,0.706 0.605,1.074 0.189,0.402 0.418,0.83 0.574,1.236 0.13,0.342 0.179,0.555 0.421,0.86 0.311,0.392 1.031,1.57 1.615,1.696 -0.096,0.002 -0.063,0.08 -0.017,0.131 0.285,0.309 0.704,0.401 1.05,0.623 0.261,0.168 0.482,0.35 0.761,0.485 0.244,0.117 0.501,0.144 0.765,0.146 -0.029,0.265 -0.056,0.533 -0.1,0.802 -0.247,0.711 1.169,0.63 1.462,0.645 0.789,0.04 0.864,-0.104 1.135,-0.689 C -6.907,8.813 -6.849,8.592 -6.814,8.366 -6.041,8.357 -4.933,7.955 -4.36,7.513 -4.039,7.265 -3.781,7.02 -3.432,6.809 -3.137,6.632 -2.826,6.45 -2.55,6.237 -2.161,5.936 -1.75,5.548 -1.321,5.317 -1.03,5.161 -0.994,5.235 -0.861,4.82 -0.655,4.178 -0.535,3.545 -0.268,2.924 -0.131,2.608 -0.148,2.346 -0.148,1.993 -0.148,1.31 0.038,0.693 0,0 m 2.941,0.219 c 0.032,0.19 -0.09,0.374 -0.204,0.54 V 0.647 C 2.724,0.646 2.711,0.645 2.697,0.644 2.692,0.735 2.669,0.829 2.684,0.916 2.733,1.203 2.799,1.486 2.85,1.773 2.864,1.853 2.861,1.943 2.842,2.022 2.778,2.286 2.707,2.548 2.633,2.809 2.572,3.025 2.511,3.242 2.436,3.454 2.392,3.581 2.325,3.701 2.262,3.82 2.236,3.869 2.191,3.907 2.158,3.952 2.143,3.971 2.134,3.995 2.125,4.018 2.077,4.152 2.186,4.292 2.11,4.427 2.084,4.473 2.071,4.528 2.064,4.581 2.044,4.731 2.032,4.882 2.014,5.032 2.011,5.057 2.004,5.085 1.99,5.106 1.907,5.221 1.82,5.333 1.739,5.449 1.725,5.469 1.733,5.504 1.729,5.544 1.542,5.712 1.457,5.977 1.26,6.167 1.082,6.339 0.97,6.577 0.828,6.786 0.735,6.923 0.637,7.057 0.546,7.196 0.467,7.317 0.338,7.398 0.325,7.574 0.318,7.669 0.216,7.77 0.136,7.845 -0.026,7.995 -0.202,8.13 -0.372,8.272 -0.375,8.247 -0.378,8.217 -0.382,8.188 -0.392,8.184 -0.403,8.179 -0.413,8.175 -0.481,8.275 -0.547,8.375 -0.615,8.473 -0.66,8.537 -0.707,8.6 -0.753,8.663 -0.787,8.71 -0.822,8.756 -0.855,8.803 -0.909,8.884 -0.961,8.967 -1.016,9.047 -1.035,9.074 -1.062,9.096 -1.082,9.123 -1.163,9.23 -1.239,9.342 -1.327,9.444 -1.349,9.47 -1.404,9.472 -1.446,9.477 -1.505,9.485 -1.569,9.475 -1.625,9.492 c -0.238,0.069 -0.477,0.138 -0.71,0.222 -0.095,0.034 -0.188,0.094 -0.26,0.164 -0.222,0.215 -0.5,0.359 -0.708,0.596 -0.11,0.124 -0.288,0.193 -0.442,0.274 -0.172,0.089 -0.35,0.166 -0.527,0.245 -0.097,0.043 -0.193,0.1 -0.295,0.115 -0.199,0.029 -0.402,0.029 -0.602,0.048 -0.232,0.022 -0.472,0.004 -0.687,0.122 -0.23,0.126 -0.481,0.103 -0.728,0.106 -0.018,0 -0.041,-0.003 -0.052,-0.014 -0.111,-0.103 -0.237,-0.059 -0.359,-0.036 -0.019,0.003 -0.029,0.049 -0.05,0.086 -0.056,0.008 -0.128,0.025 -0.201,0.026 -0.154,0.002 -0.309,-0.004 -0.463,-0.006 -0.161,-0.002 -0.322,-0.015 -0.482,-0.003 -0.15,0.012 -0.297,0.051 -0.446,0.079 -0.003,10e-4 -0.004,0.009 -0.007,0.009 -0.06,0.006 -0.127,0.031 -0.18,0.013 -0.139,-0.048 -0.278,-0.102 -0.404,-0.176 -0.066,-0.039 -0.172,-0.059 -0.17,-0.176 0,-0.016 -0.027,-0.038 -0.047,-0.048 -0.076,-0.043 -0.155,-0.083 -0.233,-0.124 0.001,0.012 0.001,0.024 0.002,0.037 -0.023,0.005 -0.047,0.017 -0.067,0.013 -0.114,-0.023 -0.225,-0.055 -0.339,-0.075 -0.045,-0.008 -0.097,0.019 -0.142,0.011 -0.177,-0.03 -0.353,-0.067 -0.529,-0.101 -0.216,-0.042 -0.433,-0.083 -0.649,-0.125 -0.03,-0.006 -0.061,-0.028 -0.089,-0.024 -0.199,0.028 -0.368,-0.08 -0.552,-0.118 -0.033,-0.007 -0.058,-0.049 -0.086,-0.075 0.005,-0.005 0.011,-0.01 0.017,-0.015 l 0.168,0.054 c 0.004,-0.01 0.008,-0.021 0.012,-0.032 -0.117,-0.079 -0.234,-0.158 -0.351,-0.237 -0.005,0.016 -0.011,0.032 -0.016,0.049 -0.042,-0.003 -0.09,0.007 -0.123,-0.012 -0.101,-0.057 -0.196,-0.125 -0.293,-0.189 -0.158,-0.104 -0.308,-0.222 -0.475,-0.31 -0.12,-0.063 -0.268,-0.071 -0.39,-0.132 -0.287,-0.143 -0.573,-0.293 -0.76,-0.572 -0.069,-0.102 -0.148,-0.197 -0.238,-0.317 -0.021,0.042 -0.032,0.065 -0.04,0.08 -0.217,-0.183 -0.295,-0.437 -0.43,-0.656 -0.123,-0.198 -0.25,-0.402 -0.413,-0.567 -0.197,-0.2 -0.437,-0.357 -0.651,-0.542 -0.212,-0.182 -0.251,-0.449 -0.316,-0.701 -0.026,-0.103 -0.049,-0.206 -0.074,-0.308 -0.012,0.002 -0.024,0.005 -0.036,0.008 0.003,0.03 0.007,0.061 0.01,0.091 -0.051,-0.049 -0.07,-0.111 -0.103,-0.165 -0.071,-0.113 -0.148,-0.222 -0.224,-0.331 -0.02,-0.028 -0.048,-0.05 -0.068,-0.079 -0.119,-0.176 -0.237,-0.353 -0.353,-0.532 -0.02,-0.032 -0.028,-0.072 -0.037,-0.11 -0.047,-0.2 -0.087,-0.402 -0.141,-0.6 -0.05,-0.182 -0.115,-0.36 -0.174,-0.541 l -0.029,0.008 c -0.006,0.019 -0.012,0.037 -0.015,0.047 -0.021,-0.114 -0.052,-0.23 -0.064,-0.347 -0.014,-0.151 -0.008,-0.303 -0.021,-0.454 -0.014,-0.155 0.017,-0.315 -0.067,-0.463 -0.047,-0.083 -0.088,-0.176 -0.103,-0.269 -0.068,-0.404 -0.119,-0.81 -0.331,-1.177 -0.152,-0.265 -0.164,-0.565 -0.111,-0.857 0.086,-0.477 0.17,-0.955 0.358,-1.406 0.011,-0.027 0.041,-0.045 0.058,-0.07 0.063,-0.096 0.124,-0.193 0.186,-0.289 -0.007,-0.006 -0.014,-0.011 -0.021,-0.016 -0.023,0.011 -0.046,0.021 -0.068,0.031 0.104,-0.138 0.123,-0.309 0.074,-0.438 -0.054,-0.145 -0.049,-0.256 0.014,-0.382 0.006,0.011 0.013,0.023 0.034,0.061 0.01,-0.111 0.018,-0.194 0.025,-0.278 0.008,-0.089 0.01,-0.178 0.025,-0.266 0.086,-0.495 0.284,-0.955 0.457,-1.423 0.173,-0.47 0.487,-0.857 0.737,-1.28 0.132,-0.224 0.313,-0.427 0.533,-0.589 0.247,-0.181 0.497,-0.355 0.67,-0.629 0.121,-0.192 0.311,-0.344 0.48,-0.503 0.269,-0.253 0.542,-0.503 0.823,-0.742 0.437,-0.371 0.863,-0.764 1.458,-0.871 0.04,-0.008 0.082,-0.002 0.122,-0.008 0.14,-0.025 0.288,-0.03 0.416,-0.084 0.131,-0.055 0.241,-0.159 0.363,-0.238 0.02,-0.013 0.05,-0.012 0.075,-0.016 0.039,-0.007 0.088,0 0.117,-0.021 0.235,-0.168 0.481,-0.31 0.764,-0.386 0.202,-0.054 0.397,-0.131 0.594,-0.202 0.065,-0.023 0.126,-0.082 0.189,-0.083 0.244,-0.006 0.46,-0.115 0.692,-0.162 0.341,-0.07 0.68,-0.163 1.013,0.036 0.036,0.022 0.095,0.01 0.143,0.005 0.048,-0.005 0.097,-0.034 0.142,-0.028 0.448,0.055 0.896,0.115 1.344,0.173 0.225,0.028 0.452,0.053 0.677,0.082 0.179,0.022 0.358,0.041 0.535,0.073 0.223,0.04 0.443,0.091 0.664,0.137 0.011,0.003 0.024,-10e-4 0.035,10e-4 0.104,0.017 0.221,0.01 0.309,0.056 0.266,0.139 0.522,0.299 0.781,0.451 0.079,0.047 0.146,0.137 0.255,0.056 0.01,-0.008 0.044,0.009 0.063,0.02 0.269,0.137 0.559,0.206 0.854,0.251 0.208,0.033 0.298,0.196 0.417,0.33 0.012,0.013 0.005,0.043 0.008,0.082 -0.042,-0.037 -0.072,-0.063 -0.102,-0.09 -0.009,0.006 -0.017,0.011 -0.026,0.017 0.031,0.053 0.052,0.118 0.096,0.156 0.184,0.153 0.364,0.311 0.545,0.466 0.268,0.229 0.475,0.527 0.798,0.697 0.123,0.065 0.217,0.185 0.326,0.278 0.022,0.018 0.052,0.028 0.08,0.039 0.247,0.094 0.483,0.199 0.6,0.465 0.101,0.227 0.202,0.454 0.319,0.672 0.057,0.107 0.142,0.203 0.23,0.287 0.354,0.336 0.731,0.65 0.957,1.1 0.078,0.156 0.184,0.297 0.275,0.446 0.028,0.046 0.052,0.095 0.071,0.146 0.079,0.214 0.166,0.427 0.231,0.646 0.061,0.203 0.103,0.412 0.147,0.62 0.033,0.155 0.047,0.314 0.087,0.466 0.054,0.206 0.159,0.404 0.178,0.612 0.02,0.212 0.065,0.415 0.113,0.62 0.02,0.084 0.066,0.174 0.05,0.251 -0.035,0.169 -0.113,0.317 -0.08,0.511"
             style="fill:#231f20;fill-opacity:1;fill-rule:nonzero;stroke:none"
             id="path441" />
        </g>
        <g
           id="g443"
           transform="translate(50.5282,426.36)">
          <path
             d="m 0,0 c -0.329,-0.154 -0.736,0.044 -1.095,0.236 -0.154,-0.505 -0.179,-1.587 -0.013,-2.052 0.317,0.037 0.642,0.024 0.767,0.029 0.181,0.008 0.322,0.006 0.439,-0.008 0.007,0.02 0.013,0.04 0.019,0.059 0.076,0.235 0.028,0.523 0.111,0.754 0.099,0.274 0.202,0.308 0.181,0.638 C 0.393,-0.082 0.432,0.261 0.3,0.481 0.299,0.482 0.296,0.485 0.295,0.487 0.23,0.263 0.143,0.067 0,0"
             style="fill:#231f20;fill-opacity:1;fill-rule:nonzero;stroke:none"
             id="path445" />
        </g>
        <g
           id="g447"
           transform="translate(50.8187,421.567)">
          <path
             d="M 0,0 C -0.069,0.08 -0.163,0.131 -0.293,0.131 -0.521,0.13 -0.76,0.025 -0.905,-0.148 -0.75,-0.186 -0.239,-0.19 -0.14,-0.141 -0.076,-0.11 -0.032,-0.059 0,0"
             style="fill:#231f20;fill-opacity:1;fill-rule:nonzero;stroke:none"
             id="path449" />
        </g>
        <g
           id="g451"
           transform="translate(50.3849,427.203)">
          <path
             d="m 0,0 c -0.048,0.025 -0.093,0.044 -0.127,0.048 -0.127,0.015 -0.145,-0.145 -0.242,-0.172 -0.136,-0.039 -0.257,0.02 -0.393,-0.137 0.171,-0.062 0.414,-0.121 0.483,-0.103 C -0.132,-0.324 -0.053,-0.152 0,0"
             style="fill:#231f20;fill-opacity:1;fill-rule:nonzero;stroke:none"
             id="path453" />
        </g>
        <g
           id="g455"
           transform="translate(49.7682,424.265)">
          <path
             d="M 0,0 C 0.2,-0.06 0.46,-0.114 0.535,-0.097 0.587,-0.086 0.632,-0.061 0.67,-0.029 0.511,0.062 0.254,0.168 0.137,0.154 0.049,0.144 0.031,0.065 0,0"
             style="fill:#231f20;fill-opacity:1;fill-rule:nonzero;stroke:none"
             id="path457" />
        </g>
      </g>
    </g>
  </g>
</svg>
