<?xml version="1.0" encoding="UTF-8" standalone="no"?>
<!-- Created with Inkscape (http://www.inkscape.org/) -->

<svg
   width="25.286753"
   height="24"
   viewBox="0 0 6.6904532 6.35"
   version="1.1"
   id="svg7856"
   inkscape:version="1.2.1 (9c6d41e4, 2022-07-14)"
   sodipodi:docname="secret_doors.svg"
   xmlns:inkscape="http://www.inkscape.org/namespaces/inkscape"
   xmlns:sodipodi="http://sodipodi.sourceforge.net/DTD/sodipodi-0.dtd"
   xmlns="http://www.w3.org/2000/svg"
   xmlns:svg="http://www.w3.org/2000/svg">
  <sodipodi:namedview
     id="namedview7858"
     pagecolor="#505050"
     bordercolor="#eeeeee"
     borderopacity="1"
     inkscape:showpageshadow="0"
     inkscape:pageopacity="0"
     inkscape:pagecheckerboard="0"
     inkscape:deskcolor="#505050"
     inkscape:document-units="mm"
     showgrid="false"
     inkscape:zoom="0.70199214"
     inkscape:cx="162.39498"
     inkscape:cy="131.0556"
     inkscape:window-width="1390"
     inkscape:window-height="938"
     inkscape:window-x="0"
     inkscape:window-y="25"
     inkscape:window-maximized="0"
     inkscape:current-layer="layer1" />
  <defs
     id="defs7853">
    <clipPath
       clipPathUnits="userSpaceOnUse"
       id="clipPath2835">
      <path
         d="m 159.654,622.534 h 22.76 v 22.76 h -22.76 z"
         id="path2833" />
    </clipPath>
  </defs>
  <g
     inkscape:label="Layer 1"
     inkscape:groupmode="layer"
     id="layer1"
     transform="translate(-62.039931,-113.85593)">
    <g
       id="g2829"
       transform="matrix(0.33324658,0,0,-0.33324658,8.4142712,328.08481)">
      <g
         id="g2831"
         clip-path="url(#clipPath2835)">
        <g
           id="g2837"
           transform="translate(176.487,624.115)">
          <path
             d="M 0,0 C -0.006,0 -0.012,0 -0.017,0 0.039,-0.01 0.037,0.006 0.058,0.044 0.14,0.187 0.12,0.42 0.132,0.578 c 0.012,0.166 0.032,0.333 0.032,0.5 0,0.236 -0.048,0.465 -0.095,0.695 -0.124,0.604 -0.226,1.212 -0.28,1.827 -0.048,0.536 -0.103,1.073 -0.106,1.611 -0.002,0.497 -0.029,0.99 -0.047,1.486 -0.018,0.508 -0.016,1.021 0,1.529 0.018,0.536 0.078,1.068 0.076,1.605 -0.009,1.922 -0.002,3.843 -0.002,5.765 0,0.547 0.03,1.105 -0.004,1.652 -0.012,0.182 -0.049,0.354 -0.05,0.537 -0.001,0.114 10e-4,0.228 0.002,0.341 0,0.12 0.028,0.277 -0.005,0.392 -0.026,-0.002 -0.078,0.02 -0.1,0.032 -0.058,0.033 -0.061,0.047 -0.131,0.048 -0.086,0.001 -0.178,0.011 -0.263,-0.005 -0.107,-0.019 -0.178,-0.052 -0.292,-0.051 -0.104,10e-4 -0.209,0.013 -0.313,0.022 -0.287,0.024 -0.574,0.053 -0.86,0.087 -0.269,0.032 -0.538,0.027 -0.808,0.046 -0.387,0.029 -0.784,0.006 -1.173,0.006 -0.227,0.001 -0.451,0.014 -0.677,0.024 -0.268,0.013 -0.537,0.003 -0.804,0.003 -0.28,0 -0.574,0.028 -0.851,-0.015 -0.213,-0.034 -0.427,-0.059 -0.641,-0.077 -0.55,-0.048 -1.097,-0.118 -1.647,-0.159 -0.267,-0.021 -0.534,-0.019 -0.8,-0.052 -0.122,-0.016 -0.26,-0.025 -0.377,-0.067 0.157,0.006 0.31,-0.027 0.467,-0.026 0.141,0.001 0.282,-0.005 0.422,0.014 0.172,0.024 0.337,-0.004 0.51,-0.011 0.225,-0.01 0.45,0.002 0.675,-0.001 0.285,-0.004 0.57,-0.023 0.856,-0.027 0.277,-0.004 0.553,-0.028 0.832,-0.028 0.303,0.001 0.606,0.001 0.909,0.001 0.26,0 0.52,0 0.78,0.001 0.221,10e-4 0.442,-0.022 0.663,-0.031 0.317,-0.012 0.629,-0.049 0.947,-0.049 0.322,0 0.64,0.001 0.959,-0.052 0.184,-0.03 0.368,-0.09 0.553,-0.105 0.081,-0.007 0.167,0.012 0.246,-0.004 0.002,-0.039 -0.04,-0.086 -0.053,-0.124 -0.035,-0.102 -0.045,-0.223 -0.051,-0.329 -0.008,-0.151 0.016,-0.299 0.036,-0.447 0.039,-0.285 0.09,-0.563 0.148,-0.845 0.048,-0.232 0.096,-0.467 0.12,-0.703 0.023,-0.22 0.034,-0.439 0.064,-0.658 0.057,-0.42 0.077,-0.844 0.112,-1.266 0.035,-0.419 0.082,-0.837 0.106,-1.258 0.029,-0.51 0.084,-1.019 0.095,-1.531 0.011,-0.543 0.082,-1.08 0.103,-1.622 C -0.569,8.845 -0.579,8.428 -0.579,8.014 -0.581,7.156 -0.51,6.294 -0.557,5.436 -0.577,5.074 -0.669,4.718 -0.684,4.355 -0.697,4.012 -0.696,3.658 -0.666,3.317 -0.602,2.584 -0.513,1.856 -0.395,1.129 -0.317,0.647 -0.239,0.159 -0.126,-0.316 -0.11,-0.306 -0.096,-0.298 0,0"
             style="fill:#231f20;fill-opacity:1;fill-rule:nonzero;stroke:none"
             id="path2839" />
        </g>
        <g
           id="g2841"
           transform="translate(166.187,641.949)">
          <path
             d="M 0,0 C 0.014,0 0.023,0.006 0.028,0.017 0.026,-0.096 0.057,-0.22 0.069,-0.334 0.109,-0.713 0.106,-1.091 0.106,-1.472 0.105,-1.966 0.097,-2.46 0.129,-2.953 c 0.034,-0.527 0.086,-1.05 0.166,-1.572 0.166,-1.087 0.366,-2.166 0.549,-3.25 0.168,-0.991 0.27,-1.991 0.392,-2.988 0.101,-0.82 0.134,-1.649 0.134,-2.474 0,-0.353 0.003,-0.702 -0.026,-1.054 -0.027,-0.323 -0.07,-0.648 -0.077,-0.972 -0.006,-0.289 -0.034,-0.572 -0.055,-0.86 -0.024,-0.327 -0.043,-0.667 -0.125,-0.985 -0.042,-0.162 -0.104,-0.316 -0.14,-0.481 -0.022,-0.102 -0.036,-0.203 -0.052,-0.306 -0.007,-0.039 -0.007,-0.09 -0.033,-0.123 -0.029,0.008 -0.037,0.252 -0.039,0.271 -0.034,0.295 0.018,0.59 0.021,0.883 0.003,0.276 0.009,0.555 -0.007,0.83 -0.025,0.449 -0.025,0.898 -0.054,1.348 -0.065,1.001 -0.06,2.008 -0.223,3 -0.096,0.584 -0.166,1.165 -0.231,1.754 -0.055,0.486 -0.108,0.973 -0.145,1.462 -0.032,0.426 -0.066,0.849 -0.078,1.276 -0.014,0.481 -0.102,0.956 -0.127,1.435 -0.012,0.215 -0.006,0.428 -0.03,0.642 -0.024,0.221 -0.057,0.44 -0.081,0.661 -0.06,0.544 -0.062,1.088 -0.098,1.633 -0.047,0.721 -0.033,1.443 -0.033,2.166 0,0.192 0,0.385 0,0.577 0,0.069 -0.012,0.153 0.004,0.221 0.012,0.053 0.046,0.093 0.055,0.147 0.043,-0.01 0.008,-0.072 0.018,-0.105 C -0.175,0.149 -0.139,0.141 0,0"
             style="fill:#231f20;fill-opacity:1;fill-rule:nonzero;stroke:none"
             id="path2843" />
        </g>
        <g
           id="g2845"
           transform="translate(179.858,636.575)">
          <path
             d="M 0,0 C -0.042,0.001 -0.068,-0.001 -0.104,0.012 -0.159,0.032 -0.207,0.079 -0.259,0.105 -0.485,0.219 -0.717,0.222 -0.96,0.262 -1.169,0.297 -1.362,0.318 -1.575,0.316 -1.766,0.314 -1.954,0.337 -2.145,0.344 -2.32,0.351 -2.475,0.307 -2.647,0.279 -2.848,0.246 -3.049,0.237 -3.238,0.156 c -0.671,-0.287 -1.377,-0.463 -2.069,-0.689 -0.405,-0.132 -0.828,-0.264 -1.251,-0.321 -0.429,-0.058 -0.857,-0.067 -1.289,-0.068 -0.592,-0.002 -1.202,0.186 -1.765,0.363 -0.668,0.21 -1.312,0.493 -1.981,0.702 -0.323,0.101 -0.654,0.13 -0.984,0.2 -0.22,0.047 -0.443,0.055 -0.667,0.078 -0.231,0.023 -0.448,0.055 -0.68,0.053 C -14.19,0.473 -14.465,0.489 -14.728,0.443 -15.024,0.39 -15.296,0.219 -15.582,0.132 -15.746,0.083 -15.899,0 -16.049,-0.08 c -0.13,-0.069 -0.271,-0.106 -0.408,-0.157 -0.221,-0.081 -0.428,-0.121 -0.665,-0.107 -0.187,0.011 -0.396,0.104 -0.529,0.237 -0.026,0.027 -0.041,0.063 -0.064,0.091 -0.024,0.029 -0.06,0.05 -0.078,0.082 -0.018,0.03 -0.031,0.095 0.002,0.12 -0.045,-0.003 -0.073,0.004 -0.108,-0.025 -0.069,-0.057 -0.093,-0.206 -0.12,-0.286 -0.032,-0.094 -0.066,-0.224 -0.054,-0.325 0.013,-0.121 0.119,-0.141 0.18,-0.232 -0.037,-0.01 -0.089,-0.007 -0.125,0.003 -0.067,0.018 -0.134,0.034 -0.208,0.022 -0.213,-0.034 -0.27,-0.255 -0.346,-0.429 -0.089,-0.203 -0.088,-0.406 -0.079,-0.621 0.005,-0.128 0.048,-0.234 0.105,-0.348 0.047,-0.093 0.124,-0.184 0.161,-0.282 -0.007,0.083 -0.02,0.202 0.02,0.276 0.043,0.08 0.119,0.145 0.169,0.222 0.067,0.104 0.124,0.2 0.215,0.285 0.17,0.157 0.372,0.293 0.579,0.396 0.154,0.077 0.331,0.114 0.492,0.177 0.167,0.064 0.33,0.131 0.502,0.181 0.324,0.093 0.635,0.19 0.969,0.244 0.342,0.055 0.692,0.103 1.039,0.109 0.343,0.007 0.699,0.019 1.04,-0.019 0.128,-0.015 0.248,-0.043 0.373,-0.074 0.183,-0.044 0.369,-0.074 0.552,-0.118 0.381,-0.092 0.747,-0.237 1.117,-0.367 0.424,-0.15 0.839,-0.328 1.264,-0.475 0.322,-0.111 0.644,-0.175 0.979,-0.238 0.214,-0.04 0.423,-0.09 0.64,-0.114 0.263,-0.029 0.526,-0.057 0.79,-0.082 0.247,-0.024 0.494,-0.015 0.741,-0.015 0.241,0 0.485,-0.009 0.725,0.002 0.376,0.017 0.794,0.017 1.149,0.149 0.156,0.057 0.316,0.097 0.474,0.151 0.132,0.045 0.259,0.102 0.395,0.133 0.151,0.035 0.301,0.068 0.451,0.106 0.147,0.037 0.294,0.042 0.444,0.058 0.247,0.026 0.522,0.079 0.759,-0.019 0.114,-0.048 0.255,-0.107 0.294,-0.23 0.033,-0.104 0.095,-0.218 0.013,-0.313 -0.051,-0.059 -0.127,-0.161 -0.198,-0.199 -0.052,-0.028 -0.083,-0.029 -0.121,-0.077 0.039,0.004 0.085,-0.02 0.123,-0.03 0.13,-0.034 0.259,-0.081 0.394,-0.096 0.15,-0.017 0.314,-0.011 0.466,-0.005 0.107,0.003 0.221,0.017 0.313,0.077 0.09,0.058 0.158,0.151 0.223,0.234 0.064,0.08 0.135,0.167 0.154,0.271 0.029,0.15 0.013,0.34 -0.068,0.469 -0.098,0.158 -0.288,0.323 -0.458,0.399 -0.125,0.056 -0.263,0.106 -0.401,0.108 -0.118,0.001 -0.227,-0.024 -0.334,0.042 -0.154,0.095 0.073,0.185 0.157,0.218 0.112,0.046 0.209,0.113 0.332,0.129 0.142,0.018 0.291,0.002 0.434,0.004 0.118,0.001 0.218,-0.015 0.33,-0.052 0.101,-0.035 0.183,-0.095 0.279,-0.14 0.223,-0.106 0.481,-0.175 0.727,-0.179 0.143,-0.003 0.312,-0.023 0.448,0.03 0.1,0.039 0.262,0.116 0.32,0.211 0.064,0.105 0.082,0.245 0.142,0.356 C 1.111,-0.05 1.145,0.016 1.136,0.123 1.133,0.164 1.011,0.536 0.953,0.471 0.936,0.452 0.937,0.361 0.925,0.333 0.885,0.235 0.833,0.139 0.75,0.072 0.616,-0.034 0.5,-0.064 0.336,-0.086 0.214,-0.102 0.094,-0.145 -0.031,-0.135 c -0.14,0.01 -0.287,0.082 -0.423,0.117 -0.085,0.026 -0.172,0.044 -0.261,0.054 -0.059,0 -0.093,-0.03 -0.102,-0.089"
             style="fill:#231f20;fill-opacity:1;fill-rule:nonzero;stroke:none"
             id="path2847" />
        </g>
        <g
           id="g2849"
           transform="translate(178.489,631.175)">
          <path
             d="M 0,0 C 0.001,0.077 0.002,0.142 0.105,0.102 0.143,0.086 0.18,0.033 0.203,0.002 0.239,-0.044 0.295,-0.109 0.313,-0.164 0.331,-0.221 0.318,-0.301 0.317,-0.361 0.315,-0.449 0.309,-0.528 0.266,-0.608 0.174,-0.778 -0.05,-0.896 -0.227,-0.949 -0.364,-0.991 -0.492,-1.003 -0.633,-1.001 -0.749,-1 -0.869,-1.02 -0.978,-0.971 c -0.131,0.058 -0.274,0.198 -0.288,0.346 -0.011,0.119 0.002,0.17 0.107,0.223 0.079,0.04 0.152,0.011 0.228,0.038 -0.052,0.045 -0.091,0.045 -0.155,0.067 -0.057,0.02 -0.102,0.03 -0.162,0.034 -0.069,0.003 -0.132,0.027 -0.201,0.028 -0.121,0.003 -0.144,-0.049 -0.202,-0.133 -0.03,-0.043 -0.08,-0.062 -0.11,-0.106 -0.028,-0.043 -0.033,-0.085 -0.075,-0.12 -0.044,-0.035 -0.1,-0.054 -0.152,-0.07 -0.053,-0.018 -0.101,-0.055 -0.152,-0.07 -0.062,-0.018 -0.147,-0.004 -0.21,-0.004 -0.076,0 -0.156,-0.008 -0.231,-0.002 -0.131,0.011 -0.278,0.082 -0.399,0.133 -0.096,0.04 -0.197,0.079 -0.297,0.104 -0.119,0.029 -0.219,0.081 -0.335,0.119 -0.225,0.074 -0.455,0.131 -0.683,0.2 -0.252,0.076 -0.498,0.134 -0.763,0.132 -0.195,-0.002 -0.39,-0.001 -0.584,-0.001 -0.193,0 -0.389,0.021 -0.574,-0.035 -0.154,-0.047 -0.3,-0.103 -0.449,-0.162 -0.144,-0.058 -0.272,-0.128 -0.409,-0.199 -0.058,-0.03 -0.113,-0.056 -0.164,-0.097 C -7.274,-0.575 -7.31,-0.609 -7.35,-0.633 -7.437,-0.687 -7.522,-0.7 -7.619,-0.717 -7.742,-0.739 -7.862,-0.74 -7.988,-0.738 c -0.144,0.003 -0.279,0.074 -0.39,0.165 -0.18,0.149 -0.388,0.286 -0.605,0.376 -0.179,0.074 -0.367,0.141 -0.557,0.181 -0.082,0.018 -0.205,0.041 -0.286,0.011 0.013,-0.031 0.058,-0.052 0.087,-0.07 0.102,-0.065 0.196,-0.133 0.284,-0.215 0.103,-0.097 0.162,-0.178 0.156,-0.322 -0.003,-0.096 -0.013,-0.151 -0.109,-0.172 -0.166,-0.036 -0.37,-0.005 -0.537,-0.007 -0.099,-0.001 -0.182,-0.003 -0.276,0.026 -0.128,0.039 -0.257,0.043 -0.384,0.077 -0.125,0.035 -0.243,0.109 -0.365,0.155 -0.108,0.04 -0.219,0.075 -0.326,0.118 -0.143,0.058 -0.277,0.117 -0.429,0.153 -0.126,0.029 -0.253,0.076 -0.384,0.079 -0.104,0.003 -0.209,-0.001 -0.312,-0.001 -0.132,0 -0.274,0.016 -0.404,-0.005 -0.055,-0.014 -0.11,-0.028 -0.164,-0.043 -0.044,-0.003 -0.088,-0.006 -0.132,-0.009 -0.057,-0.014 -0.105,-0.054 -0.163,-0.07 -0.068,-0.018 -0.137,-0.028 -0.202,-0.056 -0.084,-0.036 -0.158,-0.092 -0.239,-0.134 -0.455,-0.236 -0.931,-0.416 -1.444,-0.468 -0.093,-0.01 -0.206,-0.021 -0.299,0 -0.061,0.013 -0.065,0.027 -0.099,0.072 -0.064,0.086 -0.162,0.16 -0.207,0.257 -0.037,0.08 -0.03,0.161 -0.032,0.245 0,0.046 -0.007,0.055 0.025,0.079 0.019,0.015 0.075,0.028 0.099,0.027 -0.077,-0.002 -0.157,-0.007 -0.235,0.005 -0.164,0.025 -0.295,0.021 -0.457,-0.016 -0.109,-0.024 -0.213,-0.031 -0.3,-0.107 -0.067,-0.059 -0.125,-0.143 -0.16,-0.225 -0.028,-0.064 -0.054,-0.144 -0.073,-0.211 -0.012,-0.042 -0.014,-0.112 0,-0.153 0.018,-0.048 0.081,-0.093 0.108,-0.136 0.031,-0.05 0.039,-0.095 0.088,-0.134 -0.086,-0.008 -0.169,0.036 -0.258,0.03 -0.154,-0.011 -0.257,-0.124 -0.344,-0.237 -0.219,-0.286 -0.355,-0.664 -0.171,-1.003 0.032,0.01 0.012,0.027 0.017,0.057 0.01,0.063 0.025,0.08 0.078,0.12 0.113,0.085 0.203,0.197 0.324,0.273 0.18,0.113 0.378,0.159 0.582,0.21 0.161,0.04 0.357,0.044 0.52,0.019 0.132,-0.02 0.26,-0.071 0.394,-0.075 0.2,-0.006 0.4,-10e-4 0.597,0.028 0.232,0.033 0.458,0.063 0.688,0.106 0.13,0.023 0.263,0.042 0.388,0.082 0.144,0.046 0.273,0.124 0.418,0.166 0.255,0.072 0.512,0.131 0.77,0.193 0.274,0.066 0.544,0.084 0.824,0.105 0.553,0.04 1.136,0.072 1.666,-0.131 0.332,-0.128 0.666,-0.278 1.022,-0.331 0.196,-0.03 0.394,-0.052 0.59,-0.08 0.15,-0.021 0.311,-0.005 0.462,-0.005 0.197,0.001 0.393,0.001 0.59,0 0.258,-10e-4 0.491,0.018 0.743,0.085 0.238,0.063 0.469,0.131 0.699,0.218 0.312,0.117 0.639,0.305 0.98,0.304 0.113,0 0.303,0.008 0.393,-0.079 0.053,-0.051 0.054,-0.147 0.07,-0.212 0.022,-0.093 0.06,-0.165 -0.006,-0.248 -0.03,-0.037 -0.15,-0.12 -0.099,-0.177 0.025,-0.027 0.246,0.043 0.271,0.055 0.047,0.022 0.095,0.063 0.133,0.098 0.058,0.056 0.053,0.097 0.051,0.174 -0.003,0.088 -0.032,0.179 0.048,0.225 0.109,0.063 0.297,0.066 0.419,0.06 0.092,-0.005 0.18,-0.027 0.273,-0.029 0.119,-0.003 0.223,0.002 0.34,-0.024 0.187,-0.041 0.367,-0.105 0.555,-0.147 0.209,-0.046 0.39,-0.15 0.587,-0.23 0.215,-0.087 0.441,-0.219 0.672,-0.254 0.117,-0.017 0.24,0 0.359,-0.009 0.119,-0.009 0.234,-0.026 0.355,-0.023 0.12,0.003 0.231,0.028 0.348,0.055 0.155,0.036 0.325,0.032 0.475,0.083 0.077,0.025 0.157,0.061 0.229,0.096 0.095,0.046 0.201,0.094 0.291,0.148 0.13,0.078 0.26,0.193 0.317,0.336 0.06,0.155 0.103,0.291 0.064,0.457 -0.032,0.136 -0.109,0.284 -0.174,0.408 -0.066,0.127 -0.225,0.278 -0.34,0.364 -0.28,0.208 -0.611,0.085 -0.921,0.189"
             style="fill:#231f20;fill-opacity:1;fill-rule:nonzero;stroke:none"
             id="path2851" />
        </g>
        <g
           id="g2853"
           transform="translate(172.061,639.894)">
          <path
             d="M 0,0 C 0.052,-0.017 0.135,0.079 0.18,0.104 0.417,0.231 0.628,0.348 0.899,0.399 1.146,0.446 1.389,0.44 1.639,0.455 1.803,0.464 1.967,0.477 2.133,0.478 2.57,0.484 2.937,0.345 3.33,0.174 3.479,0.11 3.632,0.062 3.784,0.007 3.938,-0.05 4.082,-0.128 4.236,-0.186 4.569,-0.312 4.909,-0.314 5.259,-0.317 5.414,-0.319 5.584,-0.334 5.73,-0.268 5.838,-0.218 5.927,-0.149 6.018,-0.073 6.1,-0.005 6.184,0.05 6.272,0.109 6.318,0.14 6.391,0.167 6.405,0.228 6.373,0.208 6.38,0.184 6.372,0.152 6.34,0.031 6.283,-0.095 6.238,-0.212 6.186,-0.352 6.091,-0.442 5.988,-0.546 5.872,-0.663 5.77,-0.755 5.619,-0.825 5.465,-0.896 5.314,-0.949 5.145,-0.977 4.954,-1.009 4.762,-1 4.569,-1.001 4.394,-1.003 4.23,-0.988 4.058,-0.951 c -0.206,0.045 -0.397,0.131 -0.6,0.187 -0.204,0.057 -0.405,0.099 -0.6,0.185 -0.157,0.07 -0.299,0.117 -0.471,0.132 -0.193,0.018 -0.391,0.048 -0.585,0.049 -0.159,0.001 -0.31,-0.05 -0.463,-0.09 C 1.165,-0.532 0.997,-0.549 0.818,-0.557 0.662,-0.563 0.508,-0.595 0.352,-0.605 c -0.207,-0.014 -0.401,0.036 -0.6,0.09 -0.1,0.027 -0.324,0.078 -0.337,0.212 0.064,-0.06 0.165,-0.095 0.243,-0.145"
             style="fill:#231f20;fill-opacity:1;fill-rule:nonzero;stroke:none"
             id="path2855" />
        </g>
        <g
           id="g2857"
           transform="translate(163.5,627.987)">
          <path
             d="M 0,0 C 0.095,-0.019 0.223,0.1 0.289,0.144 0.424,0.234 0.579,0.257 0.734,0.296 0.981,0.357 1.225,0.41 1.478,0.438 1.768,0.471 2.022,0.487 2.31,0.42 2.548,0.366 2.816,0.321 3.038,0.218 3.16,0.161 3.238,0.077 3.344,-0.005 c 0.155,-0.12 0.331,-0.2 0.509,-0.281 0.174,-0.08 0.338,-0.15 0.529,-0.179 0.214,-0.034 0.444,-0.034 0.66,-0.037 0.515,-0.007 1.035,0.014 1.526,0.186 0.249,0.088 0.479,0.233 0.712,0.356 0.212,0.113 0.431,0.219 0.633,0.35 0.135,0.088 0.23,0.226 0.368,0.304 C 8.342,0.729 8.408,0.751 8.476,0.767 8.407,0.725 8.369,0.628 8.333,0.559 8.27,0.437 8.224,0.323 8.142,0.21 8.058,0.093 7.965,-0.031 7.865,-0.134 7.771,-0.229 7.66,-0.338 7.556,-0.423 7.441,-0.518 7.3,-0.574 7.181,-0.665 7.077,-0.745 6.996,-0.844 6.874,-0.899 6.744,-0.959 6.582,-0.983 6.444,-1.022 6.2,-1.091 5.954,-1.144 5.699,-1.135 5.602,-1.132 5.52,-1.106 5.427,-1.08 5.33,-1.053 5.232,-1.04 5.135,-1.008 5.057,-0.982 4.978,-0.943 4.899,-0.926 4.847,-0.915 4.794,-0.924 4.742,-0.919 4.626,-0.909 4.522,-0.896 4.405,-0.896 4.627,-0.898 4.839,-0.991 4.971,-1.175 5.017,-1.24 5.055,-1.301 5.091,-1.37 5.133,-1.452 5.187,-1.509 5.239,-1.582 5.265,-1.619 5.335,-1.737 5.318,-1.781 5.265,-1.77 5.231,-1.723 5.188,-1.694 5.064,-1.612 4.917,-1.536 4.781,-1.476 4.644,-1.415 4.513,-1.393 4.363,-1.395 4.208,-1.397 4.046,-1.38 3.892,-1.4 3.744,-1.42 3.603,-1.477 3.462,-1.524 3.304,-1.577 3.113,-1.572 2.95,-1.538 2.678,-1.481 2.452,-1.301 2.259,-1.112 2.062,-0.919 1.792,-0.826 1.539,-0.729 1.35,-0.656 1.128,-0.635 0.925,-0.659 0.834,-0.67 0.723,-0.724 0.661,-0.794 0.604,-0.859 0.604,-0.952 0.605,-1.034 0.607,-1.115 0.583,-1.222 0.634,-1.289 c 0.043,-0.055 0.135,-0.118 0.203,-0.136 -0.363,0.047 -0.726,0.114 -1.005,0.377 -0.07,0.066 -0.185,0.165 -0.227,0.257 -0.039,0.083 -0.031,0.182 -0.03,0.271 0,0.125 0.034,0.178 0.124,0.258 0.257,0.228 0.589,0.356 0.907,0.473"
             style="fill:#231f20;fill-opacity:1;fill-rule:nonzero;stroke:none"
             id="path2859" />
        </g>
      </g>
    </g>
  </g>
</svg>
