<?xml version="1.0" encoding="UTF-8" standalone="no"?>
<!-- Created with Inkscape (http://www.inkscape.org/) -->

<svg
   width="60.87318"
   height="24"
   viewBox="0 0 16.106029 6.3500001"
   version="1.1"
   id="svg19763"
   inkscape:version="1.2.1 (9c6d41e4, 2022-07-14)"
   sodipodi:docname="free_action.svg"
   xmlns:inkscape="http://www.inkscape.org/namespaces/inkscape"
   xmlns:sodipodi="http://sodipodi.sourceforge.net/DTD/sodipodi-0.dtd"
   xmlns="http://www.w3.org/2000/svg"
   xmlns:svg="http://www.w3.org/2000/svg">
  <sodipodi:namedview
     id="namedview19765"
     pagecolor="#505050"
     bordercolor="#eeeeee"
     borderopacity="1"
     inkscape:showpageshadow="0"
     inkscape:pageopacity="0"
     inkscape:pagecheckerboard="0"
     inkscape:deskcolor="#505050"
     inkscape:document-units="mm"
     showgrid="false"
     inkscape:zoom="0.70199214"
     inkscape:cx="-96.867181"
     inkscape:cy="84.046525"
     inkscape:window-width="1390"
     inkscape:window-height="938"
     inkscape:window-x="0"
     inkscape:window-y="25"
     inkscape:window-maximized="0"
     inkscape:current-layer="layer1" />
  <defs
     id="defs19760" />
  <g
     inkscape:label="Layer 1"
     inkscape:groupmode="layer"
     id="layer1"
     transform="translate(-131.19216,-126.44464)">
    <g
       fill="#231f20"
       fill-opacity="1"
       id="g2954"
       transform="matrix(0.84490644,0,0,0.84490644,-62.402723,-74.999648)">
      <g
         id="use2952"
         transform="translate(228.41299,244.422)">
        <path
           d="m 19.78125,-1.90625 c -0.867188,-0.070312 -1.71875,-0.085938 -2.5625,-0.046875 -0.835938,0.042969 -1.640625,0.136719 -2.421875,0.28125 -0.78125,0.136719 -1.539063,0.320313 -2.265625,0.546875 -0.730469,0.230469 -1.429688,0.492188 -2.09375,0.78125 C 10.42578,-0.675781 10.41406,-0.976562 10.40625,-1.25 10.39453,-1.53125 10.39062,-1.835938 10.39062,-2.171875 9.734375,-1.878906 9.09375,-1.582031 8.46875,-1.28125 7.851562,-0.988281 7.265625,-0.632812 6.703125,-0.21875 6.585938,-0.613281 6.476562,-1.003906 6.375,-1.390625 6.269531,-1.773438 6.160156,-2.125 6.046875,-2.4375 4.992188,-1.925781 4.019531,-1.34375 3.125,-0.6875 2.238281,-0.0390625 1.4375,0.691406 0.71875,1.515625 1.050781,0.804688 1.445312,0.109375 1.90625,-0.578125 2.363281,-1.265625 2.875,-1.925781 3.4375,-2.5625 4.007812,-3.195312 4.628906,-3.800781 5.296875,-4.375 5.972656,-4.957031 6.695312,-5.5 7.46875,-6 c 0.164062,0.429688 0.316406,0.871094 0.453125,1.328125 0.132813,0.449219 0.242187,0.898437 0.328125,1.34375 0.644531,-0.382813 1.34375,-0.710937 2.09375,-0.984375 0.757812,-0.269531 1.523438,-0.523438 2.296875,-0.765625 0.0078,0.375 0.01563,0.742187 0.01563,1.09375 0,0.355469 -0.0078,0.671875 -0.01563,0.953125 1.175781,-0.019531 2.363281,0.074219 3.5625,0.28125 1.195313,0.210938 2.390625,0.492188 3.578125,0.84375 z m 0,0"
           id="path19787" />
      </g>
    </g>
  </g>
</svg>
