<?xml version="1.0" encoding="UTF-8" standalone="no"?>
<!-- Created with Inkscape (http://www.inkscape.org/) -->

<svg
   width="8.2418985"
   height="24"
   viewBox="0 0 2.180669 6.35"
   version="1.1"
   id="svg58692"
   inkscape:version="1.2.1 (9c6d41e4, 2022-07-14)"
   sodipodi:docname="a-light-in-the-fog.svg"
   xmlns:inkscape="http://www.inkscape.org/namespaces/inkscape"
   xmlns:sodipodi="http://sodipodi.sourceforge.net/DTD/sodipodi-0.dtd"
   xmlns="http://www.w3.org/2000/svg"
   xmlns:svg="http://www.w3.org/2000/svg">
  <sodipodi:namedview
     id="namedview58694"
     pagecolor="#505050"
     bordercolor="#eeeeee"
     borderopacity="1"
     inkscape:showpageshadow="0"
     inkscape:pageopacity="0"
     inkscape:pagecheckerboard="0"
     inkscape:deskcolor="#505050"
     inkscape:document-units="mm"
     showgrid="false"
     inkscape:zoom="0.7046647"
     inkscape:cx="39.73521"
     inkscape:cy="318.59124"
     inkscape:window-width="1390"
     inkscape:window-height="941"
     inkscape:window-x="0"
     inkscape:window-y="25"
     inkscape:window-maximized="0"
     inkscape:current-layer="layer1" />
  <defs
     id="defs58689">
    <clipPath
       clipPathUnits="userSpaceOnUse"
       id="clipPath57665">
      <path
         d="m 76.951,444.219 h 24.699 v 24.699 H 76.951 Z"
         id="path57663" />
    </clipPath>
  </defs>
  <g
     inkscape:label="Layer 1"
     inkscape:groupmode="layer"
     id="layer1"
     transform="translate(-94.655556,-64.410328)">
    <g
       id="g57659"
       transform="matrix(0.3030951,0,0,-0.3030951,68.679523,205.96923)">
      <g
         id="g57661"
         clip-path="url(#clipPath57665)">
        <g
           id="g57667"
           transform="translate(92.8972,446.388)">
          <path
             d="m 0,0 c 0.003,0.544 -0.121,1.073 -0.142,1.617 -0.005,0.139 -0.009,0.282 -0.034,0.419 -0.014,0.082 -0.045,0.159 -0.062,0.241 -0.043,0.206 -0.073,0.429 -0.075,0.641 0,0.146 -0.018,0.284 -0.027,0.429 C -0.344,3.415 -0.357,3.455 -0.421,3.413 -0.47,3.381 -0.516,3.342 -0.574,3.312 -0.72,3.236 -0.817,3.156 -0.929,3.037 -1.114,2.84 -1.335,2.732 -1.57,2.604 -1.764,2.498 -1.949,2.386 -2.148,2.289 -2.438,2.148 -2.73,2.012 -3.014,1.861 -3.236,1.743 -3.442,1.604 -3.66,1.481 -3.872,1.361 -4.052,1.213 -4.252,1.076 -4.491,0.914 -4.756,0.772 -5.015,0.646 -5.176,0.568 -5.321,0.541 -5.493,0.497 -5.757,0.429 -6.016,0.39 -6.287,0.354 c -0.151,-0.02 -0.3,-0.045 -0.45,-0.072 -0.07,-0.013 -0.169,-0.011 -0.229,-0.05 0.033,-0.009 0.066,-0.003 0.1,-0.006 0.118,-0.008 0.244,-0.058 0.36,-0.083 0.4,-0.085 0.808,-0.151 1.214,-0.2 0.424,-0.052 0.841,-0.118 1.263,-0.179 0.46,-0.067 0.921,-0.047 1.384,-0.047 0.419,0 0.842,-0.021 1.26,-0.005 0.337,0.013 0.68,0.12 0.991,0.245 C -0.235,0.02 -0.009,0.073 0,0"
             style="fill:#100f0d;fill-opacity:1;fill-rule:nonzero;stroke:none"
             id="path57669" />
        </g>
        <g
           id="g57671"
           transform="translate(91.9907,452.307)">
          <path
             d="M 0,0 C 0,0.332 0,0.663 0,0.995 0,1.124 0.003,1.253 0.002,1.382 0,1.516 -0.027,1.647 -0.03,1.782 -0.034,1.939 -0.053,2.092 -0.058,2.249 -0.065,2.444 -0.033,2.628 -0.128,2.805 -0.147,2.84 -0.162,2.868 -0.187,2.902 -0.249,2.985 -0.243,2.984 -0.307,2.9 -0.422,2.75 -0.565,2.602 -0.694,2.464 -0.764,2.389 -0.825,2.312 -0.887,2.231 -0.955,2.14 -1.042,2.069 -1.124,1.992 -1.351,1.777 -1.55,1.534 -1.775,1.318 -2.01,1.093 -2.29,0.927 -2.586,0.795 -2.888,0.661 -3.176,0.498 -3.46,0.328 -3.719,0.173 -3.959,-0.016 -4.239,-0.128 -4.396,-0.19 -4.538,-0.273 -4.703,-0.314 -4.8,-0.338 -4.892,-0.362 -4.987,-0.395 c -0.188,-0.064 -0.365,-0.109 -0.561,-0.146 -0.085,-0.016 -0.178,-0.025 -0.259,-0.058 -0.009,-0.069 0.001,-0.146 0.001,-0.214 0.002,-0.273 -0.011,-0.54 -0.057,-0.809 -0.039,-0.225 -0.058,-0.434 -0.058,-0.663 -0.004,-0.088 -0.002,-0.177 0.006,-0.265 0.014,-0.05 0.029,-0.101 0.047,-0.15 0.012,-0.065 -0.02,-0.148 0.061,-0.165 0.018,0.005 0.034,0.012 0.049,0.022 0.091,0.023 0.182,0.044 0.273,0.062 0.292,0.07 0.547,0.174 0.809,0.316 0.248,0.135 0.517,0.218 0.755,0.37 0.293,0.186 0.582,0.384 0.888,0.549 0.232,0.125 0.474,0.226 0.71,0.341 0.219,0.107 0.437,0.221 0.651,0.337 0.144,0.078 0.26,0.16 0.391,0.258 0.158,0.118 0.343,0.175 0.516,0.264 0.089,0.047 0.155,0.115 0.228,0.183 0.09,0.082 0.149,0.201 0.22,0.299 C -0.283,0.184 -0.173,0.295 0,0"
             style="fill:#100f0d;fill-opacity:1;fill-rule:nonzero;stroke:none"
             id="path57673" />
        </g>
        <g
           id="g57675"
           transform="translate(91.5376,457.349)">
          <path
             d="M 0,0 C -0.128,-0.025 -0.11,0.222 -0.12,0.303 -0.14,0.458 -0.168,0.611 -0.171,0.767 -0.174,0.942 -0.176,1.096 -0.209,1.268 -0.231,1.381 -0.247,1.493 -0.254,1.609 -0.261,1.711 -0.291,1.803 -0.311,1.902 -0.333,2.006 -0.358,2.115 -0.37,2.22 -0.375,2.267 -0.356,2.336 -0.401,2.371 -0.452,2.338 -0.509,2.326 -0.56,2.295 -0.63,2.252 -0.692,2.182 -0.757,2.131 -0.824,2.079 -0.893,2.032 -0.96,1.98 -1.072,1.892 -1.187,1.808 -1.305,1.729 -1.468,1.62 -1.647,1.548 -1.815,1.45 -2.031,1.324 -2.227,1.166 -2.443,1.038 -2.65,0.915 -2.873,0.818 -3.084,0.701 -3.318,0.571 -3.574,0.482 -3.816,0.368 -4.04,0.264 -4.28,0.14 -4.522,0.086 -4.633,0.061 -4.718,0.032 -4.82,-0.012 c -0.047,-0.02 -0.105,-0.021 -0.138,-0.061 -0.047,-0.055 -0.027,-0.144 -0.026,-0.209 0.001,-0.175 -0.028,-0.347 -0.031,-0.522 -0.003,-0.206 0.01,-0.412 -0.001,-0.617 -0.005,-0.101 -0.027,-0.189 -0.026,-0.291 10e-4,-0.163 0.005,-0.327 10e-4,-0.49 -0.002,-0.074 -0.054,-0.193 -0.027,-0.261 0.026,-0.008 0.047,-0.004 0.073,10e-4 0.096,0.019 0.194,0.069 0.289,0.094 0.221,0.059 0.432,0.169 0.639,0.266 0.28,0.133 0.529,0.314 0.799,0.465 0.263,0.146 0.512,0.315 0.768,0.472 0.204,0.125 0.419,0.231 0.626,0.35 0.135,0.078 0.285,0.139 0.416,0.223 0.065,0.041 0.125,0.092 0.189,0.135 0.108,0.07 0.225,0.126 0.332,0.196 0.083,0.055 0.161,0.118 0.245,0.172 C -0.57,-0.01 -0.396,0.023 0,0"
             style="fill:#100f0d;fill-opacity:1;fill-rule:nonzero;stroke:none"
             id="path57677" />
        </g>
        <g
           id="g57679"
           transform="translate(90.7445,461.031)">
          <path
             d="M 0,0 C 0,0.103 -0.005,0.207 -0.001,0.31 0.001,0.387 0.007,0.465 0.019,0.541 0.031,0.614 0.073,0.682 0.081,0.752 0.089,0.809 0.06,0.987 -0.011,0.992 -0.042,0.994 -0.091,0.945 -0.116,0.929 -0.178,0.889 -0.239,0.857 -0.31,0.837 -0.399,0.811 -0.491,0.787 -0.582,0.771 -0.684,0.753 -0.789,0.732 -0.892,0.722 -1.014,0.709 -1.139,0.719 -1.26,0.696 -1.392,0.672 -1.518,0.633 -1.654,0.622 -1.921,0.602 -2.178,0.535 -2.441,0.486 -2.646,0.448 -2.854,0.44 -3.059,0.407 -3.242,0.378 -3.409,0.368 -3.593,0.368 -3.625,0.368 -3.846,0.395 -3.877,0.364 -3.902,0.338 -3.88,0.216 -3.88,0.183 c -10e-4,-0.174 0,-0.348 0,-0.523 0,-0.32 0.011,-0.641 -0.022,-0.96 -0.005,-0.045 -0.012,-0.089 -0.005,-0.135 0.186,0.056 0.363,0.11 0.538,0.198 0.225,0.114 0.442,0.238 0.674,0.337 0.199,0.085 0.394,0.171 0.591,0.26 0.337,0.152 0.689,0.281 1.019,0.448 C -0.86,-0.079 -0.621,-0.001 0,0"
             style="fill:#100f0d;fill-opacity:1;fill-rule:nonzero;stroke:none"
             id="path57681" />
        </g>
        <g
           id="g57683"
           transform="translate(89.3623,462.278)">
          <path
             d="M 0,0 C 0.022,-0.004 0.03,0.007 0.05,0.013 0.1,0.027 0.151,0.043 0.201,0.056 0.39,0.105 0.58,0.124 0.771,0.149 1.097,0.193 1.43,0.17 1.757,0.17 c 0.115,0 0.23,0.001 0.344,0 0.042,0 0.085,-0.006 0.126,-0.002 C 2.254,0.171 2.275,0.191 2.3,0.196 2.34,0.204 2.358,0.179 2.369,0.239 2.376,0.278 2.375,0.386 2.367,0.421 2.326,0.437 2.277,0.425 2.235,0.425 c -0.092,0 -0.183,0 -0.275,0 -0.265,0 -0.531,0 -0.797,0 -0.245,0 -0.49,0.03 -0.735,0.029 C 0.045,0.452 -0.338,0.453 -0.722,0.453 h -1.231 c -0.404,0 -0.813,-0.034 -1.214,0.039 C -3.23,0.504 -3.294,0.529 -3.356,0.54 -3.375,0.543 -3.396,0.531 -3.414,0.537 -3.475,0.555 -3.547,0.595 -3.613,0.569 -3.694,0.537 -3.659,0.258 -3.589,0.204 -3.563,0.184 -3.521,0.198 -3.493,0.199 -3.427,0.201 -3.364,0.186 -3.298,0.176 -3.195,0.161 -3.091,0.172 -2.987,0.172 -2.828,0.17 -2.671,0.138 -2.512,0.142 -2.405,0.144 -2.305,0.136 -2.199,0.113 -2.061,0.084 -1.926,0.089 -1.787,0.08 -1.599,0.067 -1.416,0.025 -1.226,0.028 -1.116,0.03 -1.012,0.018 -0.903,0.006 -0.685,-0.017 -0.462,0 -0.243,0 -0.186,0 -0.147,-0.005 0,0"
             style="fill:#100f0d;fill-opacity:1;fill-rule:nonzero;stroke:none"
             id="path57685" />
        </g>
        <g
           id="g57687"
           transform="translate(90.0931,462.957)">
          <path
             d="m 0,0 c -0.041,0.036 -0.042,0.113 -0.056,0.164 -0.046,0.167 -0.048,0.33 -0.064,0.502 -0.018,0.185 -0.042,0.369 -0.006,0.553 0.032,0.169 0.093,0.329 0.134,0.495 0.048,0.198 0.067,0.404 0.1,0.605 C 0.121,2.4 0.098,2.446 0.087,2.523 0.079,2.586 0.099,2.657 0.086,2.719 0.076,2.769 0.038,2.805 0.062,2.858 0.12,2.842 0.134,2.763 0.176,2.725 0.235,2.671 0.301,2.701 0.369,2.691 0.437,2.682 0.403,2.69 0.424,2.636 0.447,2.576 0.452,2.521 0.455,2.455 0.466,2.186 0.453,1.913 0.453,1.644 0.453,1.35 0.454,1.057 0.453,0.763 0.453,0.665 0.44,0.545 0.46,0.445 0.464,0.425 0.483,0.39 0.484,0.371 0.485,0.204 0.355,0.079 0,0"
             style="fill:#100f0d;fill-opacity:1;fill-rule:nonzero;stroke:none"
             id="path57689" />
        </g>
        <g
           id="g57691"
           transform="translate(87.6572,463.042)">
          <path
             d="m 0,0 c -0.052,0.006 -0.066,0.104 -0.077,0.145 -0.05,0.18 -0.097,0.349 -0.116,0.535 -0.022,0.219 -0.042,0.436 -0.033,0.656 0.008,0.184 0.072,0.341 0.1,0.519 0.037,0.235 0.051,0.549 -0.151,0.72 -0.048,0.041 -0.086,0.029 -0.144,0.037 -0.052,0.007 -0.108,0.025 -0.16,0.039 -0.035,0.009 -0.13,0.068 -0.16,0.066 C -0.805,2.713 -0.792,2.649 -0.798,2.598 -0.818,2.438 -0.848,2.285 -0.853,2.123 -0.857,1.967 -0.849,1.81 -0.85,1.654 c 0,-0.298 0,-0.595 0,-0.893 V 0.303 c 0,-0.079 -0.012,-0.169 0,-0.247 0.009,-0.06 0.015,-0.058 0.081,-0.057 C -0.644,0.001 -0.523,0.033 0,0"
             style="fill:#100f0d;fill-opacity:1;fill-rule:nonzero;stroke:none"
             id="path57693" />
        </g>
        <g
           id="g57695"
           transform="translate(90.8011,465.875)">
          <path
             d="M 0,0 H -1.251 C -1.537,0 -1.823,0 -2.109,-0.001 -2.374,-0.002 -2.637,0.03 -2.902,0.029 -3.251,0.027 -3.601,0.03 -3.95,0.028 -4.135,0.027 -4.317,0.043 -4.501,0.064 c -0.096,0.012 -0.191,0.022 -0.288,0.022 -0.05,0 -0.115,-0.014 -0.163,0.003 0.035,0.083 0.13,0.113 0.204,0.147 0.107,0.051 0.212,0.106 0.322,0.151 0.076,0.031 0.158,0.047 0.233,0.08 0.061,0.027 0.115,0.066 0.18,0.087 0.073,0.023 0.154,0.028 0.228,0.042 0.135,0.024 0.255,0.069 0.385,0.112 0.134,0.045 0.269,0.081 0.402,0.128 0.102,0.036 0.207,0.056 0.298,0.112 0.071,0.044 0.147,0.076 0.216,0.123 0.041,0.028 0.087,0.049 0.134,0.062 0.185,0.048 0.402,0.038 0.594,0.029 0.082,-0.004 0.104,-0.036 0.15,-0.106 0.051,-0.075 0.101,-0.154 0.159,-0.224 0.072,-0.088 0.149,-0.12 0.238,-0.181 C -1.136,0.6 -1.078,0.533 -1.007,0.479 -0.934,0.423 -0.855,0.393 -0.77,0.361 -0.61,0.3 -0.454,0.221 -0.29,0.169 -0.128,0.117 0.033,0.071 0.202,0.049 0.259,0.041 0.407,0.039 0.425,-0.028"
             style="fill:#100f0d;fill-opacity:1;fill-rule:nonzero;stroke:none"
             id="path57697" />
        </g>
      </g>
    </g>
  </g>
</svg>
