<?xml version="1.0" encoding="UTF-8" standalone="no"?>
<!-- Created with Inkscape (http://www.inkscape.org/) -->

<svg
   width="21.296843"
   height="24"
   viewBox="0 0 5.6347895 6.35"
   version="1.1"
   id="svg62982"
   inkscape:version="1.2.1 (9c6d41e4, 2022-07-14)"
   sodipodi:docname="creatures-of-the-deep.svg"
   xmlns:inkscape="http://www.inkscape.org/namespaces/inkscape"
   xmlns:sodipodi="http://sodipodi.sourceforge.net/DTD/sodipodi-0.dtd"
   xmlns="http://www.w3.org/2000/svg"
   xmlns:svg="http://www.w3.org/2000/svg">
  <sodipodi:namedview
     id="namedview62984"
     pagecolor="#505050"
     bordercolor="#eeeeee"
     borderopacity="1"
     inkscape:showpageshadow="0"
     inkscape:pageopacity="0"
     inkscape:pagecheckerboard="0"
     inkscape:deskcolor="#505050"
     inkscape:document-units="mm"
     showgrid="false"
     inkscape:zoom="0.7046647"
     inkscape:cx="-26.963178"
     inkscape:cy="274.59868"
     inkscape:window-width="1390"
     inkscape:window-height="941"
     inkscape:window-x="0"
     inkscape:window-y="25"
     inkscape:window-maximized="0"
     inkscape:current-layer="layer1" />
  <defs
     id="defs62979">
    <clipPath
       clipPathUnits="userSpaceOnUse"
       id="clipPath57953">
      <path
         d="m 319.951,404.638 h 24.699 v 24.699 h -24.699 z"
         id="path57951" />
    </clipPath>
  </defs>
  <g
     inkscape:label="Layer 1"
     inkscape:groupmode="layer"
     id="layer1"
     transform="translate(-112.45315,-76.050041)">
    <g
       id="g57947"
       transform="matrix(0.27944015,0,0,-0.27944015,22.315031,195.73286)">
      <g
         id="g57949"
         clip-path="url(#clipPath57953)">
        <g
           id="g57955"
           transform="translate(328.914,418.306)">
          <path
             d="m 0,0 c -0.266,-0.069 -0.521,-0.149 -0.792,-0.159 -0.647,-0.158 -1.394,-0.288 -1.848,0.086 -0.351,0.289 -0.561,0.733 -0.742,1.182 -0.078,0.337 -0.19,0.667 -0.344,0.986 0.071,0.226 0.15,0.452 0.244,0.674 0.08,0.192 0.171,0.378 0.266,0.563 0.011,0.069 0.022,0.137 0.036,0.205 -0.098,0.016 -0.154,0.131 -0.138,0.23 C -3.596,3.319 -3.834,2.846 -4.023,2.354 -4.086,2.19 -4.143,2.023 -4.196,1.855 -4.164,1.802 -4.135,1.747 -4.108,1.693 -3.917,0.419 -3.73,-0.743 -3.924,-2.046 -3.945,-2.187 -3.968,-2.329 -3.992,-2.471 -3.995,-2.473 -3.998,-2.475 -4.001,-2.476 -4.013,-2.977 -4.237,-3.49 -4.382,-3.949 -4.448,-4.16 -4.518,-4.372 -4.594,-4.58 c 0.004,-0.084 0.012,-0.167 0.025,-0.249 -0.04,-0.4 -0.149,-0.772 -0.298,-1.131 -0.123,-0.769 -0.325,-1.522 -0.839,-1.945 -0.006,-0.016 -0.011,-0.031 -0.017,-0.047 -0.004,-0.003 -0.006,-0.006 -0.01,-0.009 -0.055,-0.047 -0.102,-0.178 -0.019,-0.155 -0.029,-0.051 -0.057,-0.101 -0.085,-0.151 -0.046,-0.082 -0.026,-0.168 0.075,-0.167 1.005,0.015 2,0.347 2.774,0.993 0.092,0.2 0.172,0.406 0.253,0.613 -0.685,-0.53 -1.494,-0.812 -2.332,-1.076 -0.01,-0.003 -0.022,-0.01 -0.034,-0.018 -0.047,-0.004 -0.096,-0.005 -0.144,-0.008 0.085,0.151 0.17,0.301 0.254,0.452 0.212,0.263 0.376,0.565 0.497,0.892 0.002,0.004 0.004,0.007 0.006,0.01 L -4.49,-6.577 c 0.007,0.019 0.015,0.038 0.022,0.057 0.037,0.105 -0.033,0.103 -0.131,0.058 0.149,0.329 0.258,0.673 0.331,1.025 0.03,0.031 0.052,0.06 0.06,0.081 0.186,0.522 0.334,1.052 0.402,1.602 0.272,1.075 0.533,2.205 0.565,3.305 0.086,-0.084 0.181,-0.159 0.287,-0.217 0.713,-0.396 1.915,-0.014 2.629,0.237 C -0.231,-0.396 0.04,-0.083 0,0"
             style="fill:#231f20;fill-opacity:1;fill-rule:nonzero;stroke:none"
             id="path57957" />
        </g>
        <g
           id="g57959"
           transform="translate(324.811,408.857)">
          <path
             d="M 0,0 C 0.236,0.202 0.452,0.434 0.668,0.663 0.414,0.565 0.172,0.426 -0.084,0.333 -0.133,0.316 -0.182,0.302 -0.232,0.285 -0.237,0.245 -0.258,0.207 -0.299,0.175 c -0.015,0.012 -0.042,0.012 -0.09,-0.007 -0.498,-0.191 -0.974,-0.305 -1.49,-0.415 0.097,0.094 0.192,0.19 0.294,0.279 0.133,0.114 0.281,0.211 0.391,0.349 0.063,0.077 0.132,0.251 -0.04,0.2 C -1.432,0.521 -1.602,0.346 -1.746,0.204 -1.892,0.06 -2.04,-0.093 -2.149,-0.268 c -0.026,-0.041 -0.06,-0.111 -0.004,-0.14 -0.078,-0.079 -0.132,-0.165 -0.051,-0.182 0.549,-0.114 1.186,0.118 1.66,0.409 C -0.358,-0.132 -0.177,-0.07 0,0"
             style="fill:#231f20;fill-opacity:1;fill-rule:nonzero;stroke:none"
             id="path57961" />
        </g>
        <g
           id="g57963"
           transform="translate(331.393,425.178)">
          <path
             d="m 0,0 c -0.288,0.696 -0.765,1.325 -1.276,1.912 -0.039,0.028 -0.078,0.054 -0.114,0.08 -0.035,-0.005 -0.072,0 -0.107,0.026 -0.081,0.06 -0.16,0.121 -0.233,0.184 -0.029,0.022 -0.058,0.044 -0.088,0.066 0.239,-0.3 0.467,-0.612 0.679,-0.933 -0.557,0.424 -1.225,0.726 -1.891,0.729 -0.01,0 -0.031,-0.011 -0.052,-0.027 -0.167,0.031 -0.332,0.052 -0.49,0.061 -0.03,0.001 -0.078,-0.025 -0.125,-0.061 0.233,-0.046 0.465,-0.1 0.694,-0.163 0.367,-0.254 0.79,-0.405 1.13,-0.719 C -1.575,0.879 -1.28,0.602 -1.016,0.297 -1.322,0.219 -1.622,0.131 -1.908,0.031 -2.58,0.169 -3.236,0.258 -3.914,0.228 -3.48,0.524 -3.066,0.987 -3.015,1.512 -3.052,1.523 -3.088,1.533 -3.125,1.543 -3.206,1.494 -3.303,1.395 -3.318,1.352 -3.473,0.898 -3.647,0.517 -4.071,0.254 -4.084,0.246 -4.097,0.232 -4.108,0.216 -4.175,0.211 -4.242,0.207 -4.309,0.199 -4.393,0.19 -4.636,-0.057 -4.486,-0.059 -3.772,-0.068 -3.057,-0.06 -2.347,-0.132 -2.368,-0.141 -2.39,-0.149 -2.412,-0.157 -2.934,-0.37 -3.419,-0.649 -3.865,-0.98 c -0.249,0.043 -0.544,0.013 -0.735,-0.017 -0.328,-0.051 -0.638,-0.191 -0.893,-0.402 -0.089,-0.074 -0.165,-0.157 -0.236,-0.245 -0.137,-0.097 -0.233,-0.265 -0.288,-0.417 0.049,-0.026 0.082,-0.075 0.073,-0.151 -0.035,-0.266 -0.084,-0.529 -0.063,-0.798 0,-0.002 -0.001,-0.004 -0.001,-0.007 0.003,-10e-4 0.004,-0.002 0.006,-0.003 0.103,-0.043 0.259,0.138 0.281,0.222 0.132,0.499 0.122,1.183 0.776,1.303 0.475,0.247 1.119,0.373 1.696,0.3 -0.003,0.006 -0.004,0.012 -0.008,0.018 -0.09,0.058 -0.192,0.092 -0.298,0.11 0.251,0.169 0.515,0.32 0.794,0.447 0.592,0.268 1.293,0.48 2.02,0.622 0.027,-0.003 0.06,0.004 0.094,0.017 0.073,0.014 0.145,0.027 0.219,0.04 0.082,-0.186 0.156,-0.375 0.222,-0.567 0.069,-0.005 0.135,-0.043 0.163,-0.126 C 0.05,-0.907 0.154,-1.176 0.25,-1.447 0.207,-0.966 0.091,-0.481 0,0"
             style="fill:#231f20;fill-opacity:1;fill-rule:nonzero;stroke:none"
             id="path57965" />
        </g>
        <g
           id="g57967"
           transform="translate(338.459,419.326)">
          <path
             d="m 0,0 c -0.025,0.127 -0.05,0.253 -0.074,0.379 -0.002,0.053 -0.004,0.107 -0.007,0.159 0.002,0.007 0.003,0.014 0.005,0.021 C -0.038,0.371 -0.007,0.184 0.021,-0.003 0.014,-0.002 0.007,-0.001 0,0 m 1.659,-9.631 c 0.126,-0.04 0.253,-0.074 0.38,-0.106 -0.003,-0.009 -0.005,-0.017 -0.005,-0.023 0.004,-0.088 0.021,-0.176 0.045,-0.261 0.373,-0.161 0.741,-0.331 1.129,-0.448 0.031,0.043 0.045,0.085 0.016,0.108 -0.128,0.103 -0.277,0.147 -0.391,0.271 -0.063,0.069 -0.107,0.149 -0.14,0.234 0.032,-0.003 0.063,-0.007 0.095,-0.01 0.02,0.038 0.056,0.069 0.111,0.082 0.077,0.018 0.185,0.033 0.298,0.052 0.006,0.031 0.02,0.061 0.046,0.089 0.127,0.113 0.223,0.245 0.292,0.392 0.007,0.018 0.013,0.036 0.02,0.055 C 3.288,-8.959 3.001,-8.74 2.729,-8.512 2.687,-8.476 2.649,-8.438 2.611,-8.4 2.356,-8.182 2.125,-7.957 1.971,-7.728 1.952,-7.729 1.931,-7.736 1.909,-7.748 1.775,-7.505 1.642,-7.261 1.517,-7.013 1.472,-6.993 1.434,-6.958 1.416,-6.902 1.301,-6.528 1.18,-6.158 1.081,-5.779 1.069,-5.77 1.056,-5.761 1.044,-5.752 0.992,-5.551 0.949,-5.348 0.91,-5.143 0.961,-5.098 1.002,-5.045 1.01,-5 0.7,-4.687 0.674,-3.868 0.688,-3.26 0.628,-2.33 0.615,-1.396 0.539,-0.467 0.456,0.529 0.265,1.539 -0.083,2.475 -0.103,2.469 -0.124,2.468 -0.145,2.469 -0.143,2.457 -0.14,2.445 -0.137,2.432 -0.053,1.939 0.057,1.166 -0.14,0.601 c 0.016,-0.72 0.062,-1.439 0.112,-2.158 -0.04,-0.045 -0.068,-0.092 -0.067,-0.127 0.012,-0.187 0.036,-0.374 0.066,-0.561 0.024,-0.2 0.048,-0.4 0.069,-0.601 0.002,-0.028 0.002,-0.056 0.005,-0.085 0,-0.005 0.003,-0.006 0.005,-0.009 C 0.062,-3.057 0.073,-3.174 0.085,-3.291 0.274,-4.062 0.584,-4.808 0.632,-5.606 0.768,-6.125 0.957,-6.63 1.227,-7.111 1.281,-7.206 1.241,-7.296 1.173,-7.346 1.222,-7.473 1.27,-7.6 1.32,-7.727 1.452,-7.976 1.594,-8.223 1.751,-8.467 1.762,-8.469 1.773,-8.473 1.784,-8.476 1.86,-8.618 1.981,-8.744 2.117,-8.866 2.188,-8.93 2.261,-8.995 2.333,-9.06 2.062,-9.007 1.792,-8.977 1.532,-8.994 1.503,-8.976 1.474,-8.959 1.447,-8.939 0.895,-8.746 0.354,-8.528 -0.182,-8.293 -0.225,-8.274 -0.29,-8.296 -0.354,-8.338 0.15,-8.666 0.664,-8.976 1.18,-9.283 1.162,-9.33 1.168,-9.37 1.218,-9.393 c 0.1,-0.047 0.21,-0.08 0.324,-0.106 0.011,-0.006 0.022,-0.014 0.034,-0.02 0.048,-0.03 0.073,-0.07 0.083,-0.112"
             style="fill:#231f20;fill-opacity:1;fill-rule:nonzero;stroke:none"
             id="path57969" />
        </g>
        <g
           id="g57971"
           transform="translate(338.169,423.618)">
          <path
             d="M 0,0 C -0.01,0.026 -0.033,0.03 -0.062,0.022 -0.082,0.12 -0.135,0.216 -0.231,0.309 -0.564,0.63 -1.209,0.891 -1.658,0.954 -1.668,0.956 -1.677,0.956 -1.687,0.957 -1.883,1.12 -2.09,1.274 -2.316,1.412 -2.908,1.777 -3.585,1.991 -4.298,2.094 -4.293,2.142 -4.318,2.174 -4.387,2.176 -4.545,2.179 -4.705,2.178 -4.865,2.171 -4.867,2.186 -4.868,2.201 -4.87,2.216 -4.884,2.31 -5.028,2.233 -5.064,2.211 -5.085,2.198 -5.105,2.183 -5.124,2.168 -5.186,2.169 -5.249,2.17 -5.311,2.171 -5.307,2.159 -5.303,2.146 -5.299,2.134 -5.497,2.106 -5.692,2.063 -5.881,1.997 -5.892,1.993 -5.916,1.976 -5.945,1.952 -5.954,2.019 -5.965,2.086 -5.971,2.153 -5.988,2.152 -6.005,2.151 -6.022,2.15 -6.076,2.313 -6.134,2.476 -6.195,2.638 -6.348,3.052 -6.85,4.538 -7.434,4.677 -7.074,4.04 -6.679,3.377 -6.54,2.668 -6.494,2.435 -6.47,2.2 -6.447,1.965 -6.286,1.633 -6.143,1.293 -6.069,0.93 c 0.063,-0.307 0.101,-0.617 0.126,-0.928 0.063,-0.319 0.115,-0.638 0.146,-0.957 0.129,0.433 0.169,0.863 0.151,1.291 0.008,-0.074 0.016,-0.147 0.021,-0.221 0.003,-0.044 0.032,-0.057 0.074,-0.051 -0.078,0.295 -0.113,0.601 -0.121,0.909 -0.09,0.224 -0.163,0.453 -0.217,0.687 0.284,-0.027 0.585,-0.003 0.875,0.01 0.098,-0.003 0.198,0.006 0.286,0.006 0.032,0 0.071,0.015 0.112,0.039 0.161,-0.008 0.321,-0.022 0.482,-0.042 0.002,0 0.004,0 0.007,0 0,0 0,-0.001 0,-0.001 0.016,-0.002 0.033,-0.003 0.049,-0.005 0.063,-0.009 0.099,-0.041 0.118,-0.081 0.297,-0.078 0.577,-0.181 0.841,-0.307 0.44,-0.066 0.878,-0.168 1.273,-0.31 -0.383,0.011 -0.772,-0.106 -1.039,-0.352 0.175,0.032 0.352,0.053 0.53,0.055 0.149,0.024 0.298,0.044 0.45,0.057 C -1.89,0.73 -1.877,0.728 -1.863,0.727 -1.414,0.79 -0.962,0.62 -0.625,0.305 -0.64,0.297 -0.655,0.287 -0.67,0.277 c 0.311,-0.317 0.463,-0.732 0.512,-1.165 0.025,0.06 0.049,0.121 0.067,0.181 0.009,-0.057 0.017,-0.114 0.019,-0.173 0.002,-0.048 -0.011,-0.085 -0.033,-0.113 0.002,-0.025 0.005,-0.051 0.008,-0.076 0.041,-0.083 0.079,-0.169 0.111,-0.26 0.085,0.039 0.202,0.152 0.204,0.215 C 0.231,-0.728 0.133,-0.36 0,0"
             style="fill:#231f20;fill-opacity:1;fill-rule:nonzero;stroke:none"
             id="path57973" />
        </g>
        <g
           id="g57975"
           transform="translate(336.109,412.544)">
          <path
             d="M 0,0 C -0.036,-0.032 -0.07,-0.064 -0.107,-0.094 -0.189,-0.164 -0.269,-0.235 -0.345,-0.31 -0.068,0.163 -0.03,0.741 0.007,1.284 0.031,1.278 0.053,1.272 0.072,1.265 0.155,1.236 0.225,1.194 0.295,1.146 0.283,1.095 0.27,1.044 0.257,0.993 0.275,0.91 0.293,0.826 0.313,0.742 0.246,0.483 0.131,0.237 0,0 m -4.412,2.622 c -0.065,0.392 -0.159,0.783 -0.358,1.125 -0.082,0.562 -0.118,1.18 0.392,1.39 0.742,0.305 0.832,-0.738 0.852,-1.221 0.004,-0.107 0.009,-0.294 -0.004,-0.497 v 0 -0.021 c 0,0 0,-0.001 0,-0.002 0,-0.043 -0.001,-0.086 -0.004,-0.128 0.009,-0.02 0.017,-0.041 0.025,-0.062 C -3.489,3.144 -3.502,3.094 -3.532,3.055 -3.561,2.068 -3.641,1.086 -3.769,0.11 -3.977,0.948 -4.194,1.786 -4.412,2.622 m -0.052,-7.657 c 0.036,0.058 0.073,0.116 0.109,0.174 0.083,0.131 0.047,0.173 -0.026,0.168 0.067,0.196 0.125,0.394 0.177,0.593 0.058,-0.33 0.121,-0.659 0.191,-0.987 -0.153,0.017 -0.305,0.034 -0.451,0.052 m 1.188,1.902 c 0.235,-0.591 0.406,-1.2 0.512,-1.828 0.091,-0.01 0.169,-0.092 0.173,-0.183 -0.255,-0.023 -0.511,-0.033 -0.766,-0.055 0,0.013 0.001,0.025 0.003,0.037 -0.016,0.002 -0.031,0.003 -0.048,0.005 0.002,0.009 0.004,0.019 0.004,0.028 -0.016,0.667 0.009,1.339 0.122,1.996 m 0.655,8.008 c 0.122,-0.046 0.202,-0.132 0.252,-0.246 0.003,-0.003 0.006,-0.006 0.008,-0.01 0.12,-0.218 0.168,-0.446 0.178,-0.677 0.024,-0.027 0.042,-0.063 0.042,-0.11 C -2.143,3.206 -2.163,2.569 -2.445,1.997 -2.448,1.991 -2.452,1.989 -2.455,1.984 -2.457,1.957 -2.461,1.931 -2.462,1.905 -2.465,1.858 -2.485,1.823 -2.511,1.795 -2.517,1.747 -2.524,1.7 -2.531,1.652 -2.557,1.556 -2.585,1.46 -2.62,1.366 -2.688,1.189 -2.774,1.022 -2.865,0.858 c 0.016,0.323 0.044,0.646 0.062,0.967 -0.01,0.023 -0.016,0.049 -0.014,0.08 0.006,0.113 0.017,0.225 0.03,0.337 0.002,0.112 0.004,0.223 0,0.334 -0.047,0.027 -0.08,0.076 -0.08,0.148 0.004,0.342 0.043,0.695 -0.02,1.033 -0.035,0.192 -0.088,0.38 -0.108,0.575 -0.026,0.24 0.016,0.677 0.374,0.543 m 0.881,-9.002 c 0.047,-0.163 0.082,-0.328 0.12,-0.493 -10e-4,-0.103 -0.003,-0.206 -0.005,-0.308 -0.106,-0.044 -0.218,-0.081 -0.336,-0.112 -0.015,0.024 -0.027,0.051 -0.032,0.084 -0.005,0.046 -0.012,0.092 -0.019,0.137 -0.013,-0.013 -0.027,-0.024 -0.04,-0.036 0.003,0.145 -0.005,0.291 -0.034,0.433 -0.006,0.03 -0.036,0.028 -0.071,0.012 0.002,0.199 0.004,0.397 0.007,0.596 0.002,0.211 -0.017,0.482 -0.02,0.756 0.106,-0.205 0.2,-0.415 0.288,-0.628 0.047,-0.148 0.1,-0.294 0.142,-0.441 m -0.021,8.26 c 0.015,0.141 0.137,0.211 0.267,0.153 C -0.992,4.063 -0.857,3.587 -0.826,3.087 -0.858,2.691 -0.984,2.247 -1.044,1.94 -1.112,1.591 -1.258,1.219 -1.309,0.855 -1.329,0.812 -1.347,0.768 -1.367,0.726 -1.422,1.039 -1.471,1.354 -1.516,1.669 -1.52,1.791 -1.529,1.917 -1.534,2.046 c -0.012,0.32 0.044,0.772 -0.082,1.096 0,0.031 0.001,0.061 -10e-4,0.091 -0.025,0.314 -0.179,0.577 -0.144,0.9 m 0.491,-8.564 c -0.003,0.023 -0.006,0.046 -0.01,0.069 0,0.005 0,0.009 0,0.014 0.089,0.708 0.06,1.413 -0.125,2.094 -0.006,0.172 -0.023,0.344 -0.043,0.513 0.078,-0.106 0.16,-0.21 0.247,-0.317 0.088,-0.108 0.154,-0.218 0.21,-0.332 0.106,-0.473 0.142,-0.959 0.121,-1.445 0.103,-0.008 0.207,-0.096 0.181,-0.228 -0.015,-0.074 -0.031,-0.147 -0.047,-0.221 0.022,-0.001 0.043,-0.008 0.064,-0.017 -0.182,-0.163 -0.367,-0.308 -0.566,-0.43 10e-4,0.083 10e-4,0.166 0.003,0.249 -0.015,0.014 -0.027,0.031 -0.035,0.051 m 0.612,6.797 c 0.008,0.055 0.02,0.114 0.032,0.176 0.003,0.076 0.005,0.152 0,0.229 -0.002,0.035 0.005,0.064 0.018,0.088 0.004,-0.003 0.009,-0.005 0.012,-0.007 0.06,-0.036 0.121,-0.075 0.184,-0.105 C -0.359,2.723 -0.305,2.72 -0.253,2.732 -0.2,2.544 -0.182,2.358 -0.193,2.174 -0.336,1.766 -0.443,1.348 -0.62,0.952 -0.675,0.832 -0.76,0.7 -0.839,0.564 c 0.066,0.234 0.081,0.479 0.104,0.722 -0.02,0.026 -0.033,0.059 -0.03,0.103 0.005,0.099 0.017,0.197 0.03,0.295 -0.013,0.004 -0.027,0.006 -0.038,0.012 0.045,0.22 0.08,0.445 0.115,0.67 m -4.946,-7.187 c 0.086,0.778 0.158,1.563 0.29,2.336 0.135,-0.81 0.202,-1.625 0.207,-2.453 -0.169,0.032 -0.335,0.071 -0.497,0.117 m -0.311,0.103 c -0.232,0.088 -0.455,0.201 -0.673,0.346 -0.013,0.022 -0.028,0.04 -0.045,0.055 0.025,0.026 0.044,0.049 0.049,0.06 0.025,0.057 0.05,0.114 0.076,0.171 0.423,0.616 0.682,1.281 0.767,1.985 0.019,0.021 0.037,0.042 0.055,0.063 -0.198,-0.884 -0.247,-1.767 -0.229,-2.68 m -0.812,6.279 c -10e-4,0.001 -0.002,0.002 -0.003,0.003 -0.22,0.347 -0.41,0.703 -0.481,1.101 -0.059,0.146 -0.094,0.295 -0.08,0.443 0.037,0.043 0.073,0.087 0.107,0.131 0.059,0.012 0.126,0.025 0.187,0.021 C -6.957,3.205 -6.9,3.159 -6.827,3.125 -6.802,2.91 -6.735,2.693 -6.68,2.491 -6.674,2.47 -6.664,2.458 -6.652,2.45 -6.653,2.421 -6.657,2.391 -6.662,2.362 c 0.105,-0.177 0.211,-0.354 0.243,-0.563 0.002,-0.015 0,-0.029 -0.001,-0.043 0.004,-0.003 0.009,-0.008 0.013,-0.01 0.131,-0.31 0.28,-0.612 0.419,-0.919 -0.084,0.06 -0.166,0.121 -0.24,0.185 -0.14,0.122 -0.283,0.244 -0.422,0.368 -0.027,0.06 -0.051,0.121 -0.077,0.181 M -7.36,-3.947 c -0.083,0.542 -0.109,1.084 -0.096,1.627 0.047,0.241 0.092,0.481 0.145,0.721 0.021,0.094 0.047,0.188 0.073,0.282 0.01,10e-4 0.02,0.005 0.03,0.005 0.005,-0.095 0.01,-0.18 0.016,-0.212 0.028,-0.131 0.062,-0.262 0.092,-0.392 0.008,-0.034 0.015,-0.067 0.022,-0.1 -0.033,-0.612 -0.02,-1.225 0.073,-1.833 0.035,-0.232 -0.319,-0.331 -0.355,-0.098 m -0.337,5.159 c -0.079,0.192 -0.151,0.387 -0.223,0.582 0.054,0.119 0.111,0.238 0.172,0.354 0.055,-0.014 0.105,-0.049 0.13,-0.115 C -7.573,1.912 -7.528,1.79 -7.483,1.669 -7.485,1.663 -7.486,1.655 -7.487,1.65 -7.524,1.456 -7.488,1.285 -7.409,1.107 -7.385,1.053 -7.357,1 -7.331,0.947 -7.352,0.961 -7.374,0.974 -7.395,0.988 -7.493,1.053 -7.606,1.125 -7.697,1.212 m 2.045,3.212 c 0.101,0.045 0.229,0.015 0.26,-0.106 C -5.325,4.06 -5.309,3.797 -5.301,3.534 -5.379,3.29 -5.372,3.019 -5.347,2.765 -5.34,2.695 -5.332,2.632 -5.32,2.574 -5.324,2.57 -5.328,2.565 -5.332,2.562 -5.349,2.193 -5.295,1.825 -5.228,1.458 c -0.019,0.047 -0.037,0.094 -0.056,0.14 -0.191,0.449 -0.644,0.936 -0.64,1.434 0.008,0.002 0.017,0.003 0.025,0.005 -0.195,0.519 -0.327,1.133 0.247,1.387 m -2.49,-6.974 c -0.03,-0.232 -0.398,-0.234 -0.368,0 0.012,0.093 0.023,0.186 0.035,0.279 0.011,0.052 0.02,0.102 0.029,0.143 10e-4,0.008 0.003,0.016 0.004,0.023 0.036,0.126 0.088,0.249 0.146,0.368 -0.032,-0.321 -0.019,-0.679 0.16,-0.763 -0.002,-0.017 -0.004,-0.034 -0.006,-0.05 m 9.339,2.206 c 0.015,0.028 0.024,0.052 0.024,0.068 C 1.222,0.227 0.995,0.727 0.832,1.2 0.816,1.245 0.802,1.29 0.786,1.335 0.796,1.348 0.802,1.36 0.81,1.372 0.786,1.413 0.761,1.455 0.744,1.496 0.723,1.548 0.716,1.598 0.714,1.647 0.701,1.653 0.689,1.66 0.676,1.666 0.597,1.905 0.52,2.146 0.443,2.386 0.48,2.315 0.517,2.243 0.549,2.169 0.568,2.169 0.586,2.165 0.604,2.16 0.528,2.346 0.455,2.536 0.379,2.726 0.338,2.83 0.292,2.931 0.244,3.032 0.236,3.044 0.228,3.055 0.22,3.067 0.186,3.109 0.152,3.151 0.118,3.193 0.04,3.319 -0.049,3.435 -0.147,3.542 -0.16,3.559 -0.173,3.575 -0.185,3.592 -0.181,3.603 -0.179,3.614 -0.176,3.625 -0.487,4.035 -0.825,4.41 -1.219,4.729 -1.308,4.795 -1.399,4.861 -1.493,4.924 -1.559,4.906 -1.632,4.911 -1.708,4.951 -1.937,5.072 -2.169,5.188 -2.401,5.302 -2.525,5.319 -2.652,5.332 -2.779,5.34 -2.82,5.356 -2.862,5.369 -2.904,5.382 -3.224,5.414 -3.549,5.418 -3.877,5.388 -5.246,5.263 -6.85,4.396 -7.707,3.171 -7.841,2.921 -7.953,2.659 -8.04,2.39 -8.39,1.819 -8.678,1.175 -8.672,0.561 -8.759,0.316 -8.804,0.054 -8.817,-0.211 -8.874,-0.378 -8.93,-0.544 -8.974,-0.712 -9.054,-1.019 -9.16,-1.376 -9.094,-1.694 -9.1,-1.715 -9.107,-1.735 -9.113,-1.756 c 0.005,-0.017 0.008,-0.034 0.006,-0.052 -0.007,-0.064 -0.01,-0.128 -0.012,-0.193 0.194,-0.722 0.836,-1.418 1.286,-1.943 0.559,-0.653 1.236,-1.126 2.058,-1.392 0.028,-0.009 0.05,-0.024 0.069,-0.041 0.041,-0.011 0.083,-0.022 0.124,-0.033 0.17,-0.023 0.342,-0.039 0.513,-0.052 0.003,-0.034 0.023,-0.048 0.052,-0.05 0.003,0 0.006,0 0.009,-0.001 0.033,0.002 0.076,0.016 0.121,0.039 0.336,-0.021 0.666,-0.031 0.974,-0.054 0.005,-0.014 0.014,-0.025 0.024,-0.032 0.036,0.002 0.072,0.003 0.107,0.004 0.012,0.005 0.023,0.009 0.036,0.016 0.038,-0.003 0.077,-0.004 0.115,-0.006 0.074,0.004 0.149,0.007 0.223,0.013 0.06,0.01 0.121,0.019 0.181,0.029 0.564,-0.079 1.166,0.074 1.707,0.353 0.127,0.055 0.251,0.124 0.372,0.204 -0.004,0.002 -0.007,0.004 -0.01,0.006 0.352,0.23 0.661,0.507 0.895,0.796 0.021,0.024 0.039,0.049 0.06,0.073 0.001,0.002 0.003,0.003 0.004,0.005 v 0 c 0.062,0.074 0.125,0.149 0.182,0.224 -0.01,0.049 0.001,0.103 0.043,0.15 0.062,0.069 0.125,0.136 0.188,0.204 -0.124,-0.056 -0.309,0.041 -0.262,0.211 0.104,0.373 0.115,0.75 0.082,1.126 v 0 c 0.074,0.269 0.156,0.68 0.112,1.027 C 0.191,-1.181 0.237,-1.237 0.278,-1.297 0.41,-1.986 0.497,-2.688 0.307,-3.375 0.305,-3.383 0.301,-3.39 0.298,-3.397 c 0.245,0.262 0.488,0.526 0.687,0.823 0.327,0.489 0.409,0.986 0.447,1.549 -0.067,0.232 -0.154,0.463 -0.235,0.681"
             style="fill:#231f20;fill-opacity:1;fill-rule:nonzero;stroke:none"
             id="path57977" />
        </g>
        <g
           id="g57979"
           transform="translate(342.205,408.281)">
          <path
             d="M 0,0 C -0.394,-0.014 -0.796,0.039 -1.191,0.131 -1.223,0.135 -1.256,0.137 -1.287,0.141 -1.455,0.174 -1.62,0.217 -1.783,0.262 -1.985,0.293 -2.186,0.33 -2.386,0.381 -2.632,0.445 -2.943,0.519 -3.188,0.666 -3.398,0.729 -3.604,0.804 -3.805,0.897 -3.964,0.774 -4.116,0.648 -4.265,0.516 -4.784,0.135 -5.338,-0.215 -5.864,-0.578 c -0.029,-0.06 -0.046,-0.117 -0.034,-0.151 -0.181,-0.109 -0.356,-0.227 -0.529,-0.347 -0.102,-0.08 -0.209,-0.152 -0.321,-0.22 -0.231,-0.159 -0.466,-0.31 -0.712,-0.441 l -0.027,-0.011 c 0.033,0.019 0.065,0.041 0.099,0.06 0.133,0.076 0.267,0.158 0.39,0.253 -0.209,-0.106 -0.43,-0.195 -0.659,-0.268 -0.133,-0.098 -0.268,-0.194 -0.403,-0.29 -0.169,-0.053 -0.346,-0.092 -0.533,-0.113 -0.111,-0.012 -0.223,-0.022 -0.335,-0.031 -0.578,0.008 -1.148,0.025 -1.72,0.07 -0.011,-10e-4 -0.023,-10e-4 -0.034,-10e-4 -0.008,0 -0.014,0.004 -0.022,0.004 -0.49,0.04 -0.982,0.102 -1.483,0.197 -0.003,0 -0.008,-0.002 -0.012,-0.002 -0.002,0.003 -0.004,0.004 -0.006,0.007 -0.272,0.274 -0.602,0.498 -0.948,0.71 -0.043,-0.002 -0.088,0.012 -0.129,0.049 -0.064,0.058 -0.133,0.108 -0.204,0.154 -0.013,0.007 -0.025,0.015 -0.038,0.022 -0.211,0.127 -0.446,0.216 -0.666,0.33 0,0.001 -0.001,0.001 -0.001,0.001 0.181,-0.186 0.346,-0.378 0.549,-0.543 0.287,-0.233 0.589,-0.443 0.88,-0.668 0.122,-0.074 0.247,-0.142 0.375,-0.205 -0.02,-0.014 -0.039,-0.035 -0.026,-0.045 0.995,-0.788 2.71,-0.739 3.898,-0.493 0.979,0.203 2.023,0.908 2.826,1.58 0.104,0.055 0.21,0.11 0.315,0.164 0.084,0.056 0.169,0.109 0.252,0.167 0.044,0.03 0.087,0.037 0.125,0.029 0.019,0.071 0.073,0.134 0.163,0.144 0.055,0.007 0.111,0.024 0.167,0.046 0.199,0.158 0.423,0.283 0.644,0.409 0.046,-0.002 0.102,0.011 0.145,0.029 0.051,0.022 0.099,0.048 0.145,0.075 0.021,-0.018 0.045,-0.033 0.07,-0.046 0.052,0.064 0.14,0.101 0.234,0.055 0.691,-0.338 1.439,-0.386 2.191,-0.469 0.284,-0.031 0.566,-0.065 0.848,-0.086 0.001,0.001 0.003,0.002 0.004,0.003 0.023,0.009 0.052,0.025 0.086,0.052 C -0.175,-0.35 0.162,-0.031 0,0"
             style="fill:#231f20;fill-opacity:1;fill-rule:nonzero;stroke:none"
             id="path57981" />
        </g>
        <g
           id="g57983"
           transform="translate(342.693,406.64)">
          <path
             d="M 0,0 C -0.061,0.007 -0.121,0.017 -0.182,0.025 -0.17,0.054 -0.17,0.079 -0.177,0.1 -0.396,0.189 -0.6,0.308 -0.739,0.46 -0.83,0.507 -0.911,0.566 -0.973,0.653 -0.98,0.654 -0.988,0.654 -0.996,0.655 -0.937,0.586 -0.88,0.514 -0.828,0.436 -0.767,0.345 -0.822,0.222 -0.915,0.182 c 0.009,-0.011 0.018,-0.023 0.027,-0.034 -0.03,0.006 -0.061,0.014 -0.091,0.021 -0.001,0 -0.002,0 -0.002,0 -0.485,0.02 -0.956,0.15 -1.412,0.313 -0.173,0.062 -0.365,0.111 -0.555,0.165 0.348,-0.264 0.707,-0.513 1.085,-0.726 0.476,-0.17 0.969,-0.291 1.484,-0.357 C -0.193,-0.46 0.154,-0.018 0,0"
             style="fill:#231f20;fill-opacity:1;fill-rule:nonzero;stroke:none"
             id="path57985" />
        </g>
        <g
           id="g57987"
           transform="translate(327.952,420.899)">
          <path
             d="M 0,0 C 0.024,0.155 0.048,0.313 0.087,0.467 0.186,0.449 0.292,0.38 0.387,0.298 0.514,0.146 0.58,-0.072 0.547,-0.271 0.478,-0.376 0.375,-0.397 0.236,-0.326 0.16,-0.298 0.044,-0.204 -0.048,-0.09 -0.021,-0.054 -0.003,-0.022 0,0 M 1.324,1.554 C 0.637,1.989 -0.823,2.051 -1.262,1.214 -1.966,0.682 -2.094,-0.24 -1.622,-1.193 -1.04,-2.369 0.722,-2.197 1.585,-1.435 2.546,-0.586 2.406,0.87 1.324,1.554"
             style="fill:#231f20;fill-opacity:1;fill-rule:nonzero;stroke:none"
             id="path57989" />
        </g>
        <g
           id="g57991"
           transform="translate(335.455,421.473)">
          <path
             d="m 0,0 c 0.001,0.001 0.003,0.002 0.004,0.003 0.074,-0.013 0.147,-0.034 0.219,-0.061 0.2,-0.18 0.392,-0.44 0.448,-0.646 C 0.659,-0.881 0.509,-0.975 0.141,-0.848 0.115,-0.839 0.088,-0.829 0.061,-0.818 0.058,-0.812 0.057,-0.806 0.054,-0.801 -0.113,-0.532 -0.083,-0.274 0,0 m -0.841,-1.935 c 0.352,-0.135 0.835,-0.327 1.311,-0.458 0.143,-0.01 0.284,-0.008 0.422,0.009 1.118,0.134 1.63,1.576 1.387,2.553 C 2.093,0.914 1.234,1.355 0.446,1.336 0.443,1.338 0.442,1.341 0.438,1.342 c -0.933,0.251 -1.883,-0.726 -2.05,-1.583 -0.141,-0.717 0.22,-1.311 0.771,-1.694"
             style="fill:#231f20;fill-opacity:1;fill-rule:nonzero;stroke:none"
             id="path57993" />
        </g>
        <g
           id="g57995"
           transform="translate(338.934,417.934)">
          <path
             d="m 0,0 c -0.211,0.104 -0.346,0.2 -0.479,0.337 0.03,0.055 0.05,0.109 0.053,0.16 l 0.032,0.079 c 0.066,0.163 -0.015,0.173 -0.126,0.128 0.273,0.434 0.328,0.997 0.417,1.517 C -0.07,2.418 -0.396,2.153 -0.427,2.107 -0.71,1.682 -0.686,0.699 -1.198,0.552 -1.283,0.528 -1.373,0.515 -1.467,0.51 -2.182,0.253 -3.249,0.603 -4.071,0.894 -4.01,0.855 -3.949,0.813 -3.886,0.776 -3.936,0.69 -3.946,0.609 -3.874,0.574 -2.781,0.043 -1.642,-0.308 -0.442,-0.492 -0.278,-0.517 0.228,-0.112 0,0"
             style="fill:#231f20;fill-opacity:1;fill-rule:nonzero;stroke:none"
             id="path57997" />
        </g>
        <g
           id="g57999"
           transform="translate(325.153,407.761)">
          <path
             d="m 0,0 c -0.46,-0.122 -0.887,-0.355 -1.344,-0.493 -0.1,-0.03 -0.557,-0.214 -0.618,-0.118 -0.027,0.044 0.186,0.523 0.204,0.59 0.021,0.076 -0.118,-0.026 -0.131,-0.043 -0.17,-0.244 -0.362,-0.506 -0.494,-0.774 -0.038,-0.078 -0.083,-0.132 -0.047,-0.22 0.005,-0.026 0.02,-0.043 0.046,-0.051 0.352,-0.04 0.792,0.141 1.12,0.251 0.424,0.141 0.836,0.305 1.201,0.565 C 0.009,-0.242 0.247,0.065 0,0"
             style="fill:#231f20;fill-opacity:1;fill-rule:nonzero;stroke:none"
             id="path58001" />
        </g>
      </g>
    </g>
  </g>
</svg>
