<?xml version="1.0" encoding="UTF-8" standalone="no"?>
<!-- Created with Inkscape (http://www.inkscape.org/) -->

<svg
   width="28.478348"
   height="24"
   viewBox="0 0 7.534896 6.35"
   version="1.1"
   id="svg61234"
   inkscape:version="1.2.1 (9c6d41e4, 2022-07-14)"
   sodipodi:docname="flooded-caverns.svg"
   xmlns:inkscape="http://www.inkscape.org/namespaces/inkscape"
   xmlns:sodipodi="http://sodipodi.sourceforge.net/DTD/sodipodi-0.dtd"
   xmlns="http://www.w3.org/2000/svg"
   xmlns:svg="http://www.w3.org/2000/svg">
  <sodipodi:namedview
     id="namedview61236"
     pagecolor="#505050"
     bordercolor="#eeeeee"
     borderopacity="1"
     inkscape:showpageshadow="0"
     inkscape:pageopacity="0"
     inkscape:pagecheckerboard="0"
     inkscape:deskcolor="#505050"
     inkscape:document-units="mm"
     showgrid="false"
     inkscape:zoom="0.7046647"
     inkscape:cx="36.896981"
     inkscape:cy="202.22384"
     inkscape:window-width="1390"
     inkscape:window-height="941"
     inkscape:window-x="0"
     inkscape:window-y="25"
     inkscape:window-maximized="0"
     inkscape:current-layer="layer1" />
  <defs
     id="defs61231">
    <clipPath
       clipPathUnits="userSpaceOnUse"
       id="clipPath57797">
      <path
         d="m 76.951,365.056 h 24.699 v 24.7 H 76.951 Z"
         id="path57795" />
    </clipPath>
  </defs>
  <g
     inkscape:label="Layer 1"
     inkscape:groupmode="layer"
     id="layer1"
     transform="translate(-95.357709,-95.199207)">
    <g
       id="g57791"
       transform="matrix(0.32195779,0,0,-0.32195779,70.272622,219.82748)">
      <g
         id="g57793"
         clip-path="url(#clipPath57797)">
        <g
           id="g57799"
           transform="translate(88.7687,369.632)">
          <path
             d="M 0,0 C 1.018,0.06 2.027,0.197 3.041,0.299 3.281,0.323 3.523,0.333 3.765,0.341 3.772,0.368 3.782,0.394 3.795,0.419 2.243,0.614 0.648,0.618 -0.946,0.581 -0.971,0.563 -1,0.55 -1.039,0.551 -1.239,0.552 -1.438,0.557 -1.637,0.563 -2.467,0.54 -3.294,0.511 -4.113,0.499 -4.143,0.496 -4.173,0.493 -4.203,0.49 -4.506,0.442 -4.806,0.388 -5.108,0.341 -5.128,0.323 -5.148,0.305 -5.167,0.285 -3.442,0.214 -1.747,-0.103 0,0"
             style="fill:#231f20;fill-opacity:1;fill-rule:nonzero;stroke:none"
             id="path57801" />
        </g>
        <g
           id="g57803"
           transform="translate(98.2753,368.806)">
          <path
             d="m 0,0 c -1.15,0.132 -2.342,0.123 -3.537,0.052 -1.381,0.083 -2.81,0.193 -4.199,0.098 -1.06,-0.011 -2.165,-0.182 -3.196,-0.337 0.708,-0.041 1.415,-0.088 2.123,-0.131 1.102,0.008 2.205,0.016 3.307,0.017 1.257,0.001 2.515,0.01 3.769,0.072 0.073,0.005 0.146,0.011 0.219,0.017 0.31,0.024 0.618,0.053 0.925,0.075 0.215,0.021 0.43,0.044 0.645,0.065 C 0.063,-0.033 0.048,-0.005 0,0"
             style="fill:#231f20;fill-opacity:1;fill-rule:nonzero;stroke:none"
             id="path57805" />
        </g>
        <g
           id="g57807"
           transform="translate(89.1081,367.649)">
          <path
             d="M 0,0 C -0.199,0.019 -0.398,0.041 -0.596,0.062 -0.917,0.06 -1.238,0.055 -1.556,0.051 -2.808,0.034 -4.033,-0.046 -5.274,-0.21 c -0.021,-0.003 -0.083,-0.065 -0.045,-0.065 1.152,-0.009 2.299,0.014 3.451,0.033 1.19,0.019 2.387,-0.03 3.576,0.021 0.031,0.002 0.097,0.055 0.136,0.103 C 1.232,-0.154 0.604,-0.057 0,0"
             style="fill:#231f20;fill-opacity:1;fill-rule:nonzero;stroke:none"
             id="path57809" />
        </g>
        <g
           id="g57811"
           transform="translate(94.0947,376.532)">
          <path
             d="m 0,0 c -0.091,-0.003 -0.183,-0.006 -0.275,-0.008 -1.4,-0.034 -2.801,-0.082 -4.202,-0.071 -1.419,0.012 -2.835,0.083 -4.253,0.111 -1.155,0.023 -2.308,-0.022 -3.462,-0.03 1.873,0.103 3.751,0.15 5.628,0.172 0.695,-0.022 1.391,-0.042 2.087,-0.048 1.434,-0.011 2.869,0.039 4.303,0.073 0.1,0.002 0.202,0.005 0.304,0.009 C 0.942,0.203 1.754,0.186 2.566,0.156 1.712,0.123 0.853,0.075 0,0 m 0.774,-2.207 c -0.818,-0.001 -1.635,-0.005 -2.451,-0.031 -0.037,-10e-4 -0.065,0.01 -0.09,0.025 0.476,0.054 0.952,0.147 1.428,0.16 0.524,0.015 1.046,-0.017 1.563,-0.084 -0.15,-0.023 -0.3,-0.048 -0.45,-0.07 m -12.605,6.601 c 0.076,0.187 0.152,0.374 0.228,0.561 0.109,0.192 0.229,0.374 0.363,0.552 -0.019,-0.003 -0.039,-0.003 -0.058,0 0.021,0.035 0.041,0.07 0.062,0.105 0.009,0.015 0.015,0.028 0.019,0.04 0.166,0.294 0.349,0.566 0.547,0.839 0.268,0.369 0.659,0.652 1.02,0.937 0.008,-0.013 0.015,-0.027 0.019,-0.042 0.035,0.031 0.069,0.062 0.105,0.093 0.322,0.219 0.667,0.407 1.026,0.566 0.01,-0.017 0.036,-0.02 0.091,0.007 0.248,0.122 0.499,0.227 0.758,0.317 0.339,0.094 0.679,0.182 1.022,0.261 C -6.913,8.522 -7.192,8.4 -7.469,8.272 -7.778,8.163 -8.082,8.036 -8.378,7.892 -8.97,7.605 -9.602,7.306 -9.974,6.745 -10.02,6.707 -10.059,6.664 -10.086,6.619 -10.105,6.6 -10.125,6.581 -10.144,6.561 c 0.01,0.003 0.021,0.001 0.03,0.002 -0.012,-0.041 -0.011,-0.077 -0.014,-0.126 -0.024,-0.047 -0.047,-0.094 -0.069,-0.144 -0.02,-0.045 -0.001,-0.052 0.03,-0.042 -0.019,-0.066 -0.042,-0.131 -0.058,-0.194 -0.025,-0.099 0.159,0.036 0.175,0.067 0.08,0.149 0.174,0.285 0.292,0.401 0.02,0.017 0.038,0.036 0.058,0.052 0.035,0.031 0.07,0.061 0.11,0.087 0.082,0.054 0.17,0.101 0.257,0.148 C -9.314,6.809 -9.297,6.799 -9.28,6.789 -9.626,6.465 -9.953,6.155 -10.192,5.715 -10.2,5.701 -10.208,5.687 -10.216,5.672 c -0.051,-0.078 -0.1,-0.158 -0.145,-0.241 -0.002,-0.006 -0.004,-0.01 -0.005,-0.014 -0.109,-0.183 -0.216,-0.374 -0.274,-0.572 -0.032,0.037 -0.051,0.088 -0.041,0.153 0.021,0.134 0.058,0.26 0.101,0.383 -0.02,0.011 -0.037,0.026 -0.052,0.042 0.043,0.07 0.087,0.14 0.131,0.21 0.044,0.071 0.02,0.092 -0.02,0.088 0.027,0.051 0.053,0.102 0.08,0.153 0.04,0.071 -0.019,0.084 -0.073,0.041 -0.388,-0.312 -0.684,-0.682 -0.925,-1.118 -0.088,-0.158 -0.289,-0.391 -0.377,-0.619 -0.026,0.023 -0.047,0.054 -0.058,0.09 0.014,0.042 0.029,0.084 0.043,0.126 M -2.333,8.24 C -1.872,8.195 -1.429,8.153 -0.993,7.948 -0.571,7.749 0.028,7.365 0.135,6.877 0.134,6.877 0.132,6.876 0.13,6.876 0.028,7.034 -0.086,7.178 -0.253,7.303 -0.509,7.494 -0.793,7.655 -1.082,7.791 -1.485,7.98 -1.906,8.11 -2.338,8.188 -2.339,8.205 -2.336,8.223 -2.333,8.24 M 0.981,4.477 C 0.974,4.499 0.968,4.522 0.96,4.544 0.833,4.893 0.738,5.182 0.521,5.443 0.412,5.573 0.353,5.651 0.285,5.727 0.38,5.683 0.472,5.633 0.557,5.555 0.681,5.442 0.773,5.304 0.876,5.178 0.903,5.091 0.936,4.965 0.955,4.935 1.01,4.776 0.962,4.635 0.981,4.477 m 6.156,-7.141 c -0.142,0.009 -0.284,0.018 -0.426,0.027 -0.741,0.151 -1.568,0.22 -2.364,0.203 -0.147,0.012 -0.294,0.027 -0.441,0.035 0.017,0.022 0.033,0.042 0.047,0.063 0.178,-0.01 0.357,-0.016 0.539,-0.015 0.043,10e-4 0.102,0.02 0.171,0.052 0.14,0.016 0.281,0.044 0.438,0.095 0.118,0.038 0.761,0.532 0.944,0.85 -0.017,0.085 -0.036,0.169 -0.058,0.253 -0.007,0.002 -0.01,0.004 -0.016,0.006 -0.009,0.052 -0.02,0.105 -0.03,0.157 C 5.819,-0.53 5.655,-0.133 5.529,0.277 5.51,0.305 5.487,0.33 5.467,0.358 5.434,0.481 5.376,0.593 5.319,0.705 5.278,0.722 5.237,0.738 5.195,0.753 5.183,0.758 5.175,0.765 5.165,0.77 5.16,0.652 5.147,0.534 5.13,0.413 5.09,0.123 5.08,-0.158 4.965,-0.428 4.963,-0.478 4.963,-0.527 4.96,-0.577 4.944,-0.582 4.927,-0.585 4.909,-0.583 4.534,-0.558 4.17,-0.58 3.796,-0.607 c -0.119,-0.008 -0.192,0.116 -0.171,0.22 0.014,0.035 0.028,0.07 0.042,0.106 0.09,0.174 0.178,0.348 0.21,0.553 0.034,0.207 0.027,0.415 0.005,0.622 0.004,0.026 0.007,0.052 0.011,0.078 0.1,-0.365 0.17,-0.737 0.191,-1.106 0.003,-0.054 0.139,0.049 0.142,0.09 C 4.27,0.538 4.315,1.243 3.931,1.729 3.87,1.934 3.798,2.139 3.709,2.343 3.652,2.473 3.59,2.607 3.524,2.742 3.474,2.923 3.425,3.104 3.372,3.287 3.37,3.38 3.368,3.477 3.349,3.589 3.314,3.798 3.196,3.99 3.125,4.189 3.053,4.392 3.002,4.6 2.953,4.809 2.888,4.916 2.819,5.023 2.752,5.131 2.727,5.256 2.689,5.382 2.64,5.507 2.525,5.799 2.431,6.199 2.231,6.445 2.211,6.469 2.187,6.49 2.164,6.51 2.117,6.585 2.068,6.657 2.017,6.725 1.922,6.854 1.723,7.12 1.516,7.298 2.069,6.942 2.425,6.535 2.722,5.929 2.739,5.914 2.755,5.897 2.768,5.871 2.798,5.808 2.826,5.743 2.855,5.679 3.074,5.292 3.333,4.925 3.51,4.52 3.55,4.463 3.591,4.405 3.631,4.347 3.741,4.11 3.867,3.877 3.954,3.654 4.127,3.212 4.329,2.816 4.623,2.44 4.628,2.433 4.637,2.43 4.645,2.428 4.651,2.414 4.657,2.4 4.663,2.386 4.706,2.365 4.741,2.331 4.755,2.283 4.779,2.206 4.805,2.129 4.831,2.051 4.965,1.8 5.113,1.554 5.272,1.312 5.184,1.73 5.11,2.153 5.061,2.565 5.057,2.6 5.07,2.625 5.09,2.641 5.007,2.844 4.921,3.047 4.83,3.247 4.827,3.255 4.826,3.263 4.822,3.271 4.684,3.479 4.541,3.683 4.384,3.881 4.384,3.884 4.383,3.887 4.382,3.89 4.374,3.899 4.366,3.909 4.359,3.919 4.284,4.082 4.183,4.242 4.13,4.398 4.035,4.676 3.924,4.952 3.827,5.23 3.907,5.084 3.964,4.922 4.05,4.778 4.16,4.596 4.299,4.473 4.437,4.318 4.602,4.133 4.725,3.908 4.867,3.706 4.885,3.682 4.957,3.748 4.949,3.773 4.914,3.894 4.87,4.009 4.821,4.12 4.777,4.235 4.729,4.349 4.678,4.463 4.696,4.444 4.711,4.422 4.72,4.392 4.761,4.391 4.802,4.377 4.834,4.341 4.577,4.776 4.324,5.189 4.14,5.664 3.996,6.036 3.881,6.397 3.658,6.732 3.538,6.913 3.407,7.086 3.282,7.263 3.258,7.334 3.233,7.404 3.204,7.474 3.196,7.494 3.185,7.513 3.176,7.533 3.072,7.68 2.973,7.826 2.902,7.973 2.874,8.031 2.843,8.086 2.81,8.139 2.742,8.233 2.672,8.327 2.603,8.421 2.336,8.725 1.995,8.943 1.632,9.159 1.639,9.183 1.641,9.206 1.632,9.223 1.485,9.49 1.182,9.642 0.93,9.797 0.854,9.843 0.779,9.884 0.703,9.927 0.493,9.979 0.28,10.017 0.073,10.041 0.097,10.018 0.121,9.996 0.146,9.974 c -0.553,0.16 -1.201,0.14 -1.739,0.236 -0.041,0.007 -0.15,-0.098 -0.1,-0.116 C -1.396,9.99 -1.104,9.871 -0.813,9.749 -0.648,9.63 -0.494,9.492 -0.349,9.345 -0.127,9.187 0.055,8.989 0.172,8.745 0.193,8.7 0.192,8.652 0.177,8.608 -0.09,8.874 -0.41,9.056 -0.759,9.178 -0.994,9.304 -1.264,9.391 -1.542,9.448 -1.545,9.417 -1.556,9.387 -1.572,9.361 -1.698,9.377 -1.825,9.389 -1.952,9.396 -2.17,9.449 -2.389,9.496 -2.61,9.532 -2.666,9.53 -2.724,9.528 -2.776,9.524 -2.835,9.519 -2.878,9.539 -2.906,9.572 -3.78,9.682 -4.669,9.666 -5.561,9.551 -5.829,9.517 -6.092,9.469 -6.352,9.415 c -0.002,0 -0.002,0.001 -0.004,0.001 -1.222,-0.23 -2.524,-0.506 -3.579,-1.191 0.005,0.033 0.023,0.065 0.057,0.094 0.772,0.646 1.87,1.069 2.902,1.299 0.019,0.031 0.048,0.059 0.091,0.073 1.153,0.383 2.549,0.656 3.776,0.437 0.013,0 0.027,0.002 0.041,0.003 -0.017,0.07 0.015,0.151 0.076,0.196 -0.051,0.009 -0.102,0.018 -0.153,0.027 -0.061,0.012 -0.101,0.058 -0.117,0.112 -1.01,0.033 -2.007,0.154 -3.012,0.065 -0.129,-0.038 -0.261,-0.091 -0.395,-0.148 -0.186,-0.007 -0.371,-0.015 -0.557,-0.026 -0.035,-0.002 -0.07,-0.007 -0.105,-0.01 -0.041,-0.011 -0.082,-0.021 -0.123,-0.033 -0.046,-0.014 -0.086,-0.007 -0.119,0.01 -0.857,-0.112 -1.71,-0.455 -2.3,-1.079 -0.829,-0.432 -1.598,-0.961 -2.263,-1.594 -0.892,-0.849 -1.731,-2.19 -2.002,-3.538 0.02,0.028 0.038,0.057 0.059,0.084 0.038,0.05 0.077,0.097 0.115,0.145 0.306,0.747 0.917,1.33 1.397,1.961 0.024,0.032 0.056,0.042 0.088,0.042 -0.003,-0.004 -0.006,-0.008 -0.008,-0.011 -0.168,-0.294 -0.418,-0.54 -0.559,-0.846 -0.018,-0.025 -0.035,-0.051 -0.054,-0.076 0.023,0.026 0.044,0.052 0.067,0.078 0.276,0.31 0.517,0.694 0.853,0.939 0.016,0.012 0.032,0.019 0.048,0.024 0.048,0.024 0.102,0.02 0.15,-0.002 -0.187,-0.219 -0.35,-0.453 -0.485,-0.706 -0.256,-0.376 -0.488,-0.773 -0.658,-1.18 -0.01,-0.012 -0.02,-0.023 -0.03,-0.035 -0.25,-0.493 -0.353,-1.069 -0.539,-1.59 -0.033,-0.094 -0.06,-0.189 -0.086,-0.284 -0.112,-0.609 -0.152,-1.188 -0.087,-1.781 0.013,-0.093 0.027,-0.185 0.04,-0.278 0.037,-0.152 0.078,-0.303 0.122,-0.453 0.017,0.138 0.035,0.273 0.058,0.4 0.077,0.434 0.217,0.839 0.365,1.244 10e-4,-0.098 0.002,-0.197 0.006,-0.295 -0.1,-0.405 -0.136,-0.817 -0.053,-1.227 -0.004,-0.027 -0.01,-0.052 -0.014,-0.079 -0.044,-0.271 -0.074,-0.558 -0.113,-0.843 0.096,-0.298 0.193,-0.596 0.277,-0.897 0.023,-0.083 -0.029,-0.205 -0.124,-0.219 -0.157,-0.022 -0.298,-0.04 -0.422,-0.008 -0.002,-0.003 -0.002,-0.006 -0.004,-0.009 -0.05,-0.118 -0.255,-0.114 -0.306,0 -0.045,0.1 -0.075,0.196 -0.099,0.292 -0.007,0.007 -0.013,0.015 -0.019,0.023 -0.191,0.28 -0.264,0.584 -0.304,0.899 -0.043,0.019 -0.077,0.054 -0.088,0.109 -0.104,0.516 -0.114,1.031 -0.065,1.542 -0.013,0.049 -0.025,0.098 -0.034,0.151 -0.008,0.054 -0.013,0.108 -0.014,0.163 -0.075,-0.253 -0.15,-0.505 -0.224,-0.759 -0.092,-0.644 -0.131,-1.3 -0.198,-1.955 0.005,-0.008 0.011,-0.016 0.017,-0.024 -0.015,-0.009 -0.029,-0.02 -0.043,-0.031 0.028,-0.166 0.079,-0.33 0.087,-0.509 0.008,-0.192 -0.066,-0.354 -0.138,-0.522 0.023,-0.008 0.047,-0.014 0.07,-0.019 -0.049,-0.07 -0.141,-0.236 -0.048,-0.262 0,0 0,0 -10e-4,-0.001 -0.057,-0.084 -0.102,-0.23 0.046,-0.23 0.337,-10e-4 0.675,-10e-4 1.012,-10e-4 -0.104,-0.024 -0.207,-0.05 -0.309,-0.082 -0.017,-0.005 -0.113,-0.092 -0.066,-0.099 0.047,-0.007 0.094,-0.012 0.141,-0.016 -0.019,-0.021 -0.031,-0.042 -0.013,-0.043 1.18,-0.077 2.365,0.037 3.545,0.086 10e-4,-0.004 0.005,-0.007 0.013,-0.008 0.154,-0.008 0.322,-0.004 0.479,0.019 0.024,0.002 0.047,0.003 0.071,0.006 0.002,0 0.008,0.004 0.014,0.009 0.011,0.002 0.023,0.004 0.034,0.006 0,0 0.001,10e-4 0,10e-4 -0.007,0.003 -0.016,0.003 -0.024,0.005 10e-4,0.003 10e-4,0.004 -0.002,0.005 -0.026,0.006 -0.05,0.007 -0.075,0.011 -0.02,0.003 -0.038,0.007 -0.058,0.009 -0.032,0.003 -0.063,0.006 -0.095,0.007 -0.005,0 -0.011,0.001 -0.016,0.001 -0.016,10e-4 -0.033,0 -0.049,10e-4 -0.018,0 -0.037,10e-4 -0.056,10e-4 -10e-4,0.005 -0.004,0.009 -0.005,0.014 -0.001,0 -0.002,0 -0.003,0 -0.025,0 -0.05,0.001 -0.074,0.001 -0.097,0.019 -0.191,0.036 -0.287,0.051 0.146,0.012 0.291,0.021 0.435,0.023 0.204,0.003 0.411,0 0.617,0.005 0.214,-0.009 0.429,-0.013 0.646,-0.007 0.13,-0.01 0.271,-0.026 0.391,-0.051 10e-4,-0.008 0.003,-0.015 0.003,-0.022 -0.129,-0.022 -0.259,-0.037 -0.389,-0.053 -0.122,-0.007 -0.245,-0.025 -0.343,-0.031 -0.071,-0.004 -0.139,-0.01 -0.206,-0.017 -10e-4,0 -0.002,0.001 -0.002,0.001 -0.031,-0.004 -0.062,-0.008 -0.093,-0.012 -0.001,-0.001 -0.003,-0.002 -0.004,-0.003 -0.066,-0.01 -0.133,-0.024 -0.198,-0.041 -0.045,10e-4 -0.089,10e-4 -0.134,0 -0.124,-0.016 -0.248,-0.032 -0.372,-0.048 -0.004,-10e-4 -0.008,-10e-4 -0.013,-0.002 -0.002,0.002 -0.005,0.003 -0.006,0.005 -0.359,-0.038 -0.72,-0.063 -1.095,-0.069 -0.488,-0.009 -0.97,-0.022 -1.446,-0.09 -0.258,-0.006 -0.515,-0.017 -0.771,-0.043 -0.038,-0.004 -0.076,-0.01 -0.114,-0.015 -0.003,-0.034 -0.02,-0.066 -0.058,-0.084 -0.335,-0.161 -0.683,-0.161 -1.047,-0.185 -0.274,-0.018 -0.656,-0.022 -0.903,-0.168 -0.186,-0.111 -0.216,-0.22 -0.086,-0.324 0.112,-0.058 0.253,-0.088 0.356,-0.123 0.074,-0.025 0.092,-0.088 0.075,-0.143 0.273,-0.053 0.548,-0.107 0.823,-0.158 0.1,-0.011 0.196,-0.023 0.288,-0.038 0.02,-0.003 0.035,-0.012 0.048,-0.022 0.28,-0.049 0.559,-0.093 0.838,-0.128 0.107,0.004 0.213,0.011 0.318,0.022 0.189,0.008 0.374,0.02 0.541,0.032 1.637,-0.064 3.273,-0.139 4.906,-0.27 -0.449,-0.034 -0.894,-0.087 -1.309,-0.117 -1.311,-0.095 -2.623,-0.138 -3.932,-0.242 -0.054,-0.004 -0.142,-0.071 -0.212,-0.145 -0.05,-10e-4 -0.101,-0.002 -0.151,-0.002 -0.023,-10e-4 -0.095,-0.074 -0.06,-0.081 1.458,-0.325 3.053,-0.405 4.581,-0.283 0.372,-0.033 0.744,-0.064 1.116,-0.087 0.377,0.011 0.755,0.027 1.133,0.046 0.403,-0.025 0.813,0.01 1.22,0.048 1.044,0.027 2.086,-0.005 3.128,-0.051 0,-0.001 0,-0.001 0,-0.001 1.546,-0.081 3.115,-0.187 4.652,0.05 0.061,0.009 0.272,0.196 0.146,0.203 -0.786,0.04 -1.565,0.145 -2.349,0.213 -0.343,0.03 -0.686,0.05 -1.029,0.081 -0.019,0.002 -0.046,0.006 -0.076,0.011 0.041,0.018 0.082,0.037 0.123,0.052 1.409,0.189 2.837,0.197 4.264,0.193 0.26,0.035 0.522,0.053 0.781,0.089 0.062,0.061 0.101,0.132 0.025,0.138 -0.204,0.016 -0.408,0.026 -0.611,0.032 -0.009,0.009 -0.021,0.016 -0.044,0.018 -0.058,0.006 -0.115,0.01 -0.172,0.015 0,0.001 -10e-4,0.001 -10e-4,0.002 -0.18,0.005 -0.36,0.014 -0.54,0.033 -0.023,0.003 -0.039,0.013 -0.056,0.021 -0.206,0.006 -0.413,0.014 -0.62,0.019 -0.137,0.005 -0.274,0.01 -0.411,0.013 -0.104,0.029 -0.21,0.052 -0.318,0.071 -0.488,0.01 -0.976,0.023 -1.464,0.055 -0.013,0 -0.024,0.004 -0.035,0.007 -0.291,-0.01 -0.578,-0.023 -0.851,-0.025 -0.004,0 -0.008,0 -0.012,0 -0.179,-0.017 -0.357,-0.038 -0.536,-0.065 -0.063,-0.01 -0.113,0.013 -0.15,0.049 -0.151,-0.003 -0.303,-0.008 -0.454,-0.011 -0.587,-0.02 -1.173,-0.05 -1.76,-0.087 -0.526,-0.032 -1.052,-0.056 -1.577,-0.078 0.048,0.034 0.1,0.074 0.152,0.117 0.111,0.008 0.221,0.023 0.328,0.036 0.394,0.048 0.788,0.112 1.182,0.167 0.028,0.004 0.118,0.083 0.13,0.124 0.029,0.027 0.054,0.063 0.024,0.081 -0.259,0.156 -0.667,0.165 -0.969,0.201 -0.186,0.022 -0.374,0.036 -0.561,0.035 -0.019,0.006 -0.038,0.011 -0.065,0.012 -0.138,0.003 -0.278,0.008 -0.416,0.013 -0.8,0.032 -1.655,0.106 -2.508,0.134 -0.482,0.039 -1.193,0.095 -1.428,0.164 0.06,0.029 0.122,0.055 0.187,0.078 0.793,0.142 1.643,0.23 2.441,0.253 0.034,0.001 0.061,-0.009 0.084,-0.022 0.347,0.017 0.693,0.047 1.039,0.075 0.03,0.002 0.052,-0.005 0.073,-0.015 0.187,0.025 0.375,0.043 0.563,0.053 0.243,0.033 0.485,0.071 0.722,0.118 0.107,0.008 0.212,0.016 0.314,0.023 0.021,10e-4 0.063,0.032 0.089,0.063 0.009,0.002 0.018,0.003 0.026,0.005 -0.007,0 -0.015,0 -0.022,10e-4 0.022,0.027 0.029,0.053 -0.005,0.055 -0.451,0.03 -0.924,0.055 -1.383,0.023 -0.006,0.01 -0.013,0.02 -0.017,0.03 0.593,0.018 1.179,0.069 1.783,0.018 0.219,-0.019 0.438,-0.025 0.658,-0.025 0.223,-0.069 0.472,-0.038 0.705,-0.008 0.184,0.023 0.369,0.047 0.554,0.073 0.344,-0.006 0.688,-0.012 1.032,-0.022 -0.542,-0.033 -1.084,-0.081 -1.624,-0.135 -0.006,-0.013 -0.016,-0.024 -0.027,-0.034 -0.116,-0.009 -0.231,-0.02 -0.34,-0.031 -0.095,-0.01 -0.194,-0.017 -0.282,-0.059 -0.04,-0.019 -0.073,-0.047 -0.106,-0.074 -0.147,-0.049 -0.281,-0.098 -0.438,-0.105 -0.003,0 -0.004,10e-4 -0.007,10e-4 -0.154,-0.035 -0.318,-0.049 -0.473,-0.064 -0.646,-0.062 -1.294,-0.021 -1.935,-0.142 -0.023,-0.004 -0.043,0 -0.06,0.008 -0.103,-0.01 -0.204,-0.021 -0.307,-0.03 -0.03,-0.002 -0.144,-0.103 -0.092,-0.115 0.141,-0.033 0.109,-0.031 0.222,-0.026 -0.006,-0.016 -0.003,-0.027 0.019,-0.027 0.028,0 0.057,-10e-4 0.085,-10e-4 0.005,-0.002 0.009,-0.004 0.018,-0.004 0.013,0 0.027,0.002 0.04,0.003 0.199,-0.003 0.397,-0.013 0.595,-0.02 2.753,-0.311 5.548,-0.385 8.324,-0.355 0.247,0.016 0.494,0.039 0.739,0.072 0.468,0.015 0.935,0.05 1.384,0.181 0.039,0.012 0.262,0.2 0.155,0.224 -0.021,0.005 -0.043,0.008 -0.065,0.012 0.003,0.022 -0.01,0.038 -0.047,0.042 -0.825,0.077 -1.737,0.168 -2.609,0.12 0,0 -10e-4,10e-4 -0.002,10e-4 -0.082,0 -0.166,0.003 -0.25,0.005 0.357,0.063 0.714,0.13 1.076,0.152 0.093,0.003 0.184,0.005 0.276,0.008 0.468,10e-4 0.924,-0.053 1.39,0.02 0.689,-0.05 1.442,0.032 1.995,0.251 0.086,0.034 0.503,0.395 0.24,0.411"
             style="fill:#231f20;fill-opacity:1;fill-rule:nonzero;stroke:none"
             id="path57813" />
        </g>
      </g>
    </g>
  </g>
</svg>
