<?xml version="1.0" encoding="UTF-8" standalone="no"?>
<!-- Created with Inkscape (http://www.inkscape.org/) -->

<svg
   width="51.89497"
   height="24"
   viewBox="0 0 13.730544 6.35"
   version="1.1"
   id="svg63288"
   inkscape:version="1.2.1 (9c6d41e4, 2022-07-14)"
   sodipodi:docname="horror-in-high-gear.svg"
   xmlns:inkscape="http://www.inkscape.org/namespaces/inkscape"
   xmlns:sodipodi="http://sodipodi.sourceforge.net/DTD/sodipodi-0.dtd"
   xmlns="http://www.w3.org/2000/svg"
   xmlns:svg="http://www.w3.org/2000/svg">
  <sodipodi:namedview
     id="namedview63290"
     pagecolor="#505050"
     bordercolor="#eeeeee"
     borderopacity="1"
     inkscape:showpageshadow="0"
     inkscape:pageopacity="0"
     inkscape:pagecheckerboard="0"
     inkscape:deskcolor="#505050"
     inkscape:document-units="mm"
     showgrid="false"
     inkscape:zoom="0.7046647"
     inkscape:cx="78.051306"
     inkscape:cy="324.2677"
     inkscape:window-width="1390"
     inkscape:window-height="941"
     inkscape:window-x="0"
     inkscape:window-y="25"
     inkscape:window-maximized="0"
     inkscape:current-layer="layer1" />
  <defs
     id="defs63285">
    <clipPath
       clipPathUnits="userSpaceOnUse"
       id="clipPath58101">
      <path
         d="m 319.951,325.475 h 24.699 v 24.699 h -24.699 z"
         id="path58099" />
    </clipPath>
  </defs>
  <g
     inkscape:label="Layer 1"
     inkscape:groupmode="layer"
     id="layer1"
     transform="translate(-84.37493,-62.908433)">
    <g
       id="g58095"
       transform="matrix(0.59624548,0,0,-0.59624548,-106.89207,267.50968)">
      <g
         id="g58097"
         clip-path="url(#clipPath58101)">
        <g
           id="g58103"
           transform="translate(332.432,340.087)">
          <path
             d="m 0,0 c -0.049,-0.039 -0.105,-0.07 -0.139,-0.124 -0.02,-0.03 -0.018,-0.063 -0.032,-0.094 -0.031,-0.066 -0.117,-0.115 -0.163,-0.171 -0.113,-0.133 -0.197,-0.274 -0.215,-0.45 -0.004,-0.039 -0.008,-0.061 -0.018,-0.1 -0.018,-0.074 0.008,-0.145 0.022,-0.217 0.014,-0.069 0.024,-0.141 0.068,-0.198 0.059,-0.074 0.146,-0.126 0.227,-0.172 0.076,-0.045 0.151,-0.095 0.231,-0.134 0.18,-0.089 0.416,-0.057 0.61,-0.056 0.229,10e-4 0.457,-0.005 0.685,0.017 0.21,0.019 0.407,0.058 0.619,0.056 0.388,-0.004 0.772,-10e-4 1.159,0.029 0.303,0.024 0.607,0.018 0.911,0.016 0.241,-10e-4 0.469,0.019 0.709,0.047 0.373,0.043 0.808,-0.016 1.153,0.165 0.202,0.106 0.35,0.294 0.471,0.484 0.066,0.103 0.129,0.205 0.154,0.326 0.021,0.1 0.016,0.209 0.007,0.31 C 6.449,-0.147 6.422,-0.033 6.418,0.087 6.417,0.142 6.421,0.203 6.413,0.258 6.4,0.359 6.305,0.465 6.245,0.543 6.17,0.639 6.095,0.72 5.987,0.781 5.882,0.84 5.791,0.896 5.7,0.974 5.567,1.088 5.342,1.082 5.181,1.126 5.046,1.162 4.914,1.162 4.775,1.161 4.578,1.16 4.38,1.159 4.182,1.162 3.73,1.167 3.279,1.079 2.848,0.951 2.641,0.89 2.431,0.855 2.221,0.804 1.996,0.749 1.787,0.65 1.572,0.564 1.301,0.456 1.018,0.381 0.737,0.304 0.485,0.235 0.25,0.124 0.009,0.024 -0.515,-0.193 0.006,0.004 0.006,0.004 0.004,0.002 0.002,0.002 0,0"
             style="fill:#100f0d;fill-opacity:1;fill-rule:nonzero;stroke:none"
             id="path58105" />
        </g>
        <g
           id="g58107"
           transform="translate(339.252,340.314)">
          <path
             d="m 0,0 c -0.039,-0.068 -0.053,-0.146 -0.096,-0.214 -0.025,-0.04 -0.038,-0.065 -0.052,-0.109 -0.038,-0.121 -0.018,-0.205 0.053,-0.307 0.133,-0.193 0.406,-0.334 0.63,-0.379 0.073,-0.015 0.135,-0.043 0.206,-0.06 0.069,-0.016 0.136,-0.011 0.204,-0.022 0.131,-0.021 0.262,-0.019 0.397,-0.019 0.145,0 0.291,0.002 0.435,0 0.065,-10e-4 0.078,-0.007 0.101,0.048 0.017,0.04 0.018,0.077 0.027,0.12 0.022,0.106 0.059,0.204 0.075,0.313 0.016,0.118 0.016,0.234 0.017,0.354 0,0.086 -0.008,0.168 -0.029,0.253 C 1.949,0.058 1.898,0.121 1.871,0.199 1.828,0.327 1.694,0.396 1.615,0.502 1.579,0.55 1.52,0.675 1.354,0.72 1.323,0.729 1.308,0.707 1.284,0.696 1.269,0.7 1.256,0.699 1.242,0.693 1.232,0.674 1.216,0.661 1.195,0.655 1.088,0.606 0.949,0.625 0.836,0.596 0.787,0.583 0.731,0.557 0.686,0.533 0.612,0.493 0.52,0.456 0.454,0.405 0.405,0.368 0.359,0.325 0.31,0.288 0.207,0.21 0.067,0.115 0,0"
             style="fill:#100f0d;fill-opacity:1;fill-rule:nonzero;stroke:none"
             id="path58109" />
        </g>
        <g
           id="g58111"
           transform="translate(335.686,342.411)">
          <path
             d="M 0,0 C 0.138,-0.005 0.28,-0.005 0.419,0 0.536,0.004 0.645,0.043 0.762,0.048 0.903,0.055 1.046,0.112 1.187,0.121 1.384,0.135 1.588,0.119 1.786,0.12 1.949,0.121 2.15,0.094 2.304,0.038 2.524,-0.042 2.772,-0.103 2.967,-0.237 3.022,-0.273 3.047,-0.332 3.09,-0.379 3.15,-0.444 3.131,-0.507 3.162,-0.586 3.192,-0.665 3.191,-0.745 3.186,-0.832 3.182,-0.906 3.14,-0.973 3.136,-1.048 3.134,-1.082 3.142,-1.11 3.134,-1.145 3.123,-1.186 3.095,-1.217 3.089,-1.26 3.082,-1.303 3.091,-1.356 3.09,-1.4 c 0,-0.047 -0.015,-0.109 0.029,-0.139 0.013,-0.009 0.027,0 0.04,-0.004 0.064,-0.018 0.129,-0.031 0.145,0.023 0.045,0.006 0.056,0.069 0.07,0.104 0.041,0.1 0.076,0.201 0.12,0.3 0.09,0.201 0.195,0.401 0.114,0.623 C 3.573,-0.395 3.527,-0.26 3.448,-0.191 3.361,-0.117 3.256,-0.064 3.165,0.003 3.096,0.053 3.023,0.095 2.96,0.154 2.875,0.235 2.804,0.293 2.7,0.348 2.515,0.445 2.322,0.534 2.125,0.607 2.031,0.642 1.941,0.691 1.844,0.715 1.73,0.743 1.617,0.738 1.501,0.738 1.289,0.738 1.081,0.73 0.869,0.72 0.678,0.71 0.492,0.688 0.301,0.671 0.21,0.663 0.12,0.673 0.03,0.667 -0.028,0.664 -0.084,0.64 -0.14,0.626 -0.2,0.61 -0.248,0.601 -0.308,0.596 -0.355,0.592 -0.374,0.583 -0.408,0.55 -0.5,0.461 -0.59,0.279 -0.474,0.181 -0.336,0.063 -0.184,0.007 0,0"
             style="fill:#100f0d;fill-opacity:1;fill-rule:nonzero;stroke:none"
             id="path58113" />
        </g>
        <g
           id="g58115"
           transform="translate(339.512,334.024)">
          <path
             d="m 0,0 c 0.153,0.017 0.305,0.104 0.423,0.199 0.143,0.117 0.299,0.27 0.386,0.431 0.086,0.158 0.175,0.313 0.265,0.468 0.039,0.067 0.098,0.122 0.139,0.188 0.051,0.081 0.082,0.167 0.123,0.252 0.092,0.192 0.25,0.331 0.429,0.44 0.167,0.102 0.34,0.191 0.504,0.3 0.08,0.054 0.169,0.093 0.25,0.145 0.1,0.065 0.183,0.153 0.28,0.222 C 3.088,2.85 3.428,2.964 3.772,3.042 3.894,3.07 4.023,3.093 4.139,3.137 4.208,3.163 4.236,3.167 4.302,3.207 4.232,3.273 4.144,3.317 4.078,3.391 4.015,3.46 3.962,3.501 3.878,3.54 3.741,3.605 3.598,3.681 3.453,3.727 3.19,3.809 2.91,3.824 2.637,3.849 2.381,3.873 2.127,3.873 1.87,3.873 1.535,3.873 1.187,3.898 0.861,3.802 0.787,3.78 0.717,3.752 0.643,3.731 0.555,3.707 0.481,3.665 0.396,3.637 0.235,3.584 0.076,3.518 -0.082,3.455 -0.216,3.402 -0.3,3.363 -0.401,3.259 -0.536,3.12 -0.576,2.958 -0.671,2.796 -0.746,2.669 -0.8,2.541 -0.892,2.426 -0.974,2.325 -1.033,2.212 -1.093,2.097 -1.158,1.972 -1.223,1.841 -1.26,1.705 -1.34,1.406 -1.334,1.092 -1.33,0.786 -1.329,0.725 -1.353,0.679 -1.354,0.618 -1.354,0.576 -1.353,0.542 -1.359,0.499 -1.365,0.458 -1.364,0.379 -1.397,0.349 -1.375,0.317 -1.367,0.255 -1.376,0.213 -1.388,0.161 -1.427,0.12 -1.379,0.075 -1.351,0.049 -1.307,0.049 -1.272,0.044 -1.174,0.029 -1.082,0.022 -0.982,0.022 -0.87,0.023 -0.757,0.027 -0.645,0.024 -0.556,0.022 -0.47,0.001 -0.382,-0.002 -0.259,-0.007 -0.122,-0.014 0,0"
             style="fill:#100f0d;fill-opacity:1;fill-rule:nonzero;stroke:none"
             id="path58117" />
        </g>
        <g
           id="g58119"
           transform="translate(343.715,336.145)">
          <path
             d="M 0,0 C -0.014,0.112 -0.046,0.202 -0.086,0.306 -0.109,0.367 -0.129,0.497 -0.21,0.516 -0.37,0.498 -0.428,0.503 -0.494,0.475 -0.569,0.445 -0.663,0.419 -0.703,0.345 -0.756,0.247 -0.757,0.151 -0.756,0.042 c 0.001,-0.193 -0.006,-0.384 0.018,-0.576 0.027,-0.221 0.014,-0.475 -0.023,-0.69 -0.02,-0.111 -0.061,-0.214 -0.085,-0.323 -0.009,-0.04 -0.013,-0.082 -0.029,-0.121 -0.042,-0.104 -0.126,-0.189 -0.214,-0.259 -0.07,-0.056 -0.138,-0.102 -0.197,-0.172 -0.037,-0.043 -0.072,-0.084 -0.118,-0.118 -0.086,-0.065 -0.152,-0.163 -0.245,-0.217 -0.078,-0.044 -0.137,-0.109 -0.226,-0.134 -0.073,-0.02 -0.144,-0.026 -0.217,-0.053 -0.056,-0.022 -0.106,-0.033 -0.165,-0.042 -0.189,-0.029 -0.38,-0.079 -0.572,-0.078 -0.156,10e-4 -0.315,-0.009 -0.471,0 -0.214,0.011 -0.404,0.062 -0.571,0.198 -0.033,0.027 -0.113,0.071 -0.137,0.111 -0.016,0.026 0.003,0.046 -0.025,0.069 -0.022,0.018 -0.097,0.005 -0.121,0 -0.054,-0.012 -0.097,-0.05 -0.149,-0.064 -0.052,-0.014 -0.101,-0.008 -0.153,-0.026 -0.058,-0.02 -0.203,-0.043 -0.248,-0.096 -0.047,-0.056 0.038,-0.082 0.074,-0.119 0.044,-0.043 0.062,-0.087 0.094,-0.137 0.081,-0.131 0.221,-0.248 0.357,-0.317 0.078,-0.039 0.162,-0.065 0.243,-0.099 0.044,-0.018 0.087,-0.049 0.133,-0.062 0.044,-0.012 0.085,-0.012 0.13,-0.026 0.28,-0.087 0.582,-0.096 0.873,-0.096 0.164,0 0.335,-0.016 0.498,0.004 0.131,0.017 0.257,0.05 0.382,0.091 0.165,0.053 0.328,0.107 0.481,0.189 0.124,0.066 0.241,0.145 0.361,0.219 0.078,0.048 0.132,0.098 0.197,0.158 0.055,0.05 0.118,0.074 0.175,0.122 0.147,0.128 0.245,0.282 0.354,0.44 0.085,0.125 0.12,0.256 0.177,0.394 0.071,0.17 0.104,0.335 0.126,0.518 0.012,0.105 0.043,0.203 0.061,0.307 0.014,0.081 0.011,0.162 0.022,0.244 0.018,0.139 0.02,0.254 0,0.394 C 0.019,-0.217 0.013,-0.108 0,0"
             style="fill:#100f0d;fill-opacity:1;fill-rule:nonzero;stroke:none"
             id="path58121" />
        </g>
        <g
           id="g58123"
           transform="translate(334.903,336.614)">
          <path
             d="M 0,0 C 0.03,0.032 0.052,0.066 0.084,0.094 0.113,0.119 0.194,0.146 0.19,0.333 0.177,0.451 0.075,0.546 0.042,0.659 0.022,0.73 -0.026,0.782 -0.042,0.855 -0.06,0.934 -0.089,1.058 -0.131,1.125 -0.288,1.381 -0.64,1.439 -0.905,1.343 -1.088,1.277 -1.272,1.15 -1.468,1.139 -1.512,1.137 -1.551,1.139 -1.57,1.094 -1.575,1.083 -1.57,1.057 -1.574,1.045 -1.58,1.026 -1.609,1.008 -1.612,0.992 -1.62,0.96 -1.605,0.956 -1.589,0.93 c 0.046,-0.071 0.092,-0.144 0.128,-0.221 0.033,-0.071 0.072,-0.137 0.106,-0.208 0.018,-0.038 0.031,-0.077 0.047,-0.116 0.023,-0.058 0.055,-0.079 0.085,-0.129 0.03,-0.051 0.046,-0.095 0.082,-0.142 0.049,-0.067 0.091,-0.138 0.142,-0.204 0.093,-0.12 0.173,-0.243 0.256,-0.37 0.036,-0.054 0.071,-0.086 0.101,-0.144 0.023,-0.045 0.044,-0.088 0.065,-0.135 0.033,-0.072 0.066,-0.136 0.089,-0.211 0.021,-0.072 0.072,-0.13 0.113,-0.191 0.024,-0.035 0.038,-0.062 0.077,-0.072 0.032,-0.009 0.085,0.001 0.119,0.001 0.047,0 0.17,-0.023 0.199,0.022 0.041,0.066 -0.011,0.144 -0.05,0.191 -0.076,0.093 -0.123,0.219 -0.167,0.328 -0.028,0.073 -0.041,0.116 -0.041,0.195 0,0.067 -0.001,0.122 0.028,0.184 C -0.161,-0.186 -0.079,-0.084 0,0"
             style="fill:#100f0d;fill-opacity:1;fill-rule:nonzero;stroke:none"
             id="path58125" />
        </g>
        <g
           id="g58127"
           transform="translate(337.753,337.523)">
          <path
             d="M 0,0 C -0.045,0.037 -0.085,0.083 -0.131,0.122 -0.2,0.181 -0.28,0.224 -0.355,0.276 -0.406,0.311 -0.449,0.358 -0.501,0.392 -0.676,0.507 -0.854,0.583 -1.063,0.59 -1.257,0.596 -1.456,0.594 -1.65,0.588 -1.723,0.586 -1.721,0.567 -1.739,0.492 -1.771,0.356 -1.814,0.229 -1.834,0.09 -1.856,-0.058 -1.891,-0.218 -1.941,-0.359 -1.968,-0.433 -2.03,-0.517 -2.043,-0.576 c 0.086,0.001 0.156,0.024 0.244,0.023 0.131,0 0.229,-0.003 0.351,-0.064 0.053,-0.028 0.061,-0.045 0.073,-0.104 0.007,-0.036 0.033,-0.066 0.041,-0.1 0.005,-0.022 -10e-4,-0.045 0.003,-0.065 0.016,-0.078 0.035,-0.146 0.051,-0.222 0.051,-0.253 0.05,-0.58 -0.097,-0.806 -0.062,-0.095 -0.11,-0.111 -0.209,-0.141 -0.01,-0.003 -0.027,-0.015 -0.04,-0.019 -0.039,-0.011 -0.083,-0.002 -0.123,-0.016 -0.048,-0.017 -0.073,-0.044 -0.051,-0.097 0.038,-0.095 0.185,-0.077 0.264,-0.077 0.107,0 0.223,0.014 0.328,-0.001 0.054,-0.008 0.089,-0.047 0.14,-0.047 0.043,0 0.044,0.01 0.064,0.046 0.046,0.081 0.059,0.178 0.103,0.261 0.046,0.088 0.06,0.173 0.091,0.268 0.046,0.14 0.128,0.272 0.203,0.398 0.075,0.126 0.128,0.26 0.201,0.386 0.053,0.092 0.133,0.177 0.166,0.278 0.024,0.073 0.041,0.15 0.081,0.22 0.035,0.06 0.052,0.13 0.093,0.188 0.046,0.064 0.072,0.104 0.094,0.179 C 0.047,-0.021 0.048,-0.039 0,0"
             style="fill:#100f0d;fill-opacity:1;fill-rule:nonzero;stroke:none"
             id="path58129" />
        </g>
        <g
           id="g58131"
           transform="translate(336.079,336.304)">
          <path
             d="m 0,0 c -0.021,0.117 -0.018,0.25 -0.13,0.316 -0.12,0.07 -0.27,0.04 -0.406,0.042 -0.069,0 -0.184,0.011 -0.226,-0.06 C -0.783,0.262 -0.773,0.209 -0.773,0.167 -0.947,0.162 -0.952,0.129 -0.968,0.092 c -0.025,-0.06 -0.057,-0.116 -0.085,-0.175 -0.042,-0.086 -0.058,-0.159 -0.053,-0.255 0.009,-0.169 0.136,-0.272 0.283,-0.339 0.089,-0.041 0.202,-0.056 0.301,-0.06 0.095,-0.003 0.207,-0.013 0.296,0.029 0.121,0.057 0.18,0.179 0.214,0.299 C 0.025,-0.281 0.024,-0.132 0,0"
             style="fill:#100f0d;fill-opacity:1;fill-rule:nonzero;stroke:none"
             id="path58133" />
        </g>
        <g
           id="g58135"
           transform="translate(328.096,338.398)">
          <path
             d="m 0,0 c 0.065,-0.021 0.127,-0.052 0.197,-0.063 0.247,-0.039 0.499,-0.013 0.747,-0.045 0.289,-0.038 0.579,-0.063 0.869,-0.086 0.141,-0.012 0.279,-0.054 0.419,-0.068 0.147,-0.015 0.303,-0.001 0.451,-0.002 0.11,0 0.225,-0.001 0.331,0.037 0.036,0.013 0.214,0.08 0.204,0.13 l 0.357,0.19 C 3.541,0.1 3.52,0.138 3.502,0.163 3.446,0.242 3.417,0.336 3.384,0.426 3.355,0.506 3.326,0.588 3.289,0.665 3.261,0.723 3.243,0.789 3.2,0.837 3.145,0.899 3.06,0.924 2.982,0.954 2.881,0.994 2.772,0.999 2.672,1.025 2.609,1.041 2.542,1.042 2.481,1.056 2.361,1.082 2.223,1.067 2.098,1.067 H 1.436 C 1.227,1.067 1.022,1.099 0.833,1.198 0.759,1.237 0.715,1.282 0.628,1.281 0.55,1.281 0.48,1.268 0.415,1.223 0.354,1.181 0.319,1.13 0.272,1.074 0.219,1.009 0.16,0.956 0.128,0.877 0.098,0.805 0.071,0.733 0.04,0.661 0.007,0.586 -0.042,0.509 -0.06,0.429 -0.082,0.324 -0.133,0.188 -0.086,0.094 -0.064,0.051 -0.052,0.017 0,0"
             style="fill:#100f0d;fill-opacity:1;fill-rule:nonzero;stroke:none"
             id="path58137" />
        </g>
        <g
           id="g58139"
           transform="translate(322.853,337.422)">
          <path
             d="M 0,0 C 0.064,-0.002 0.113,-0.029 0.167,-0.001 0.247,0.04 0.326,0.101 0.393,0.16 0.437,0.198 0.476,0.24 0.525,0.273 0.557,0.293 0.591,0.307 0.62,0.332 0.687,0.392 0.718,0.424 0.807,0.457 0.808,0.463 0.808,0.469 0.904,0.499 0.896,0.546 0.933,0.581 0.929,0.629 0.923,0.684 0.883,0.732 0.862,0.784 0.836,0.849 0.828,0.904 0.773,0.951 0.716,1.001 0.654,1.027 0.583,1.051 0.499,1.08 0.428,1.112 0.337,1.117 0.267,1.121 0.2,1.144 0.13,1.141 0.076,1.139 0.05,1.127 0.029,1.071 0.018,1.042 0.022,1.005 0.013,0.975 0,0.927 -0.021,0.882 -0.033,0.834 -0.056,0.745 -0.039,0.66 -0.046,0.569 -0.051,0.491 -0.064,0.404 -0.076,0.327 -0.089,0.247 -0.093,0.175 -0.095,0.095 -0.096,0.01 -0.083,0.003 0,0"
             style="fill:#100f0d;fill-opacity:1;fill-rule:nonzero;stroke:none"
             id="path58141" />
        </g>
        <g
           id="g58143"
           transform="translate(327.297,336.328)">
          <path
             d="M 0,0 0.003,0.006 C 0.002,0.01 -0.001,0.013 -0.002,0.017 -0.001,0.011 -0.001,0.006 0,0"
             style="fill:#100f0d;fill-opacity:1;fill-rule:nonzero;stroke:none"
             id="path58145" />
        </g>
        <g
           id="g58147"
           transform="translate(333.169,336.204)">
          <path
             d="M 0,0 C -0.058,0.087 -0.101,0.157 -0.139,0.257 -0.175,0.354 -0.223,0.443 -0.274,0.533 -0.336,0.643 -0.384,0.754 -0.435,0.869 -0.54,1.104 -0.688,1.305 -0.815,1.527 -0.896,1.67 -1.003,1.719 -1.142,1.788 -1.266,1.61 -1.301,1.636 -1.341,1.642 -1.383,1.633 -1.424,1.626 -1.467,1.622 -1.526,1.614 -1.585,1.608 -1.645,1.604 -1.702,1.598 -1.751,1.588 -1.807,1.574 -1.939,1.541 -2.068,1.534 -2.198,1.49 -2.327,1.447 -2.461,1.441 -2.596,1.42 -2.92,1.369 -3.242,1.393 -3.57,1.385 -3.765,1.381 -3.958,1.356 -4.152,1.338 -4.25,1.328 -4.399,1.323 -4.472,1.242 -4.535,1.173 -4.573,1.074 -4.608,0.99 -4.632,0.929 -4.665,0.88 -4.656,0.816 -4.644,0.742 -4.594,0.668 -4.565,0.601 -4.52,0.499 -4.471,0.4 -4.428,0.297 c 0.096,-0.224 0.191,-0.437 0.31,-0.649 0.085,-0.15 0.173,-0.3 0.262,-0.447 0.034,-0.056 0.074,-0.105 0.125,-0.147 0.043,-0.034 0.094,-0.052 0.139,-0.079 0.048,-0.029 0.068,-0.038 0.131,-0.039 0.04,-10e-4 0.079,0.004 0.119,-10e-4 0.064,-0.008 0.123,-0.032 0.188,-0.041 0.321,-0.044 0.64,-0.052 0.964,-0.053 0.261,-10e-4 0.515,0.041 0.774,0.049 0.379,0.01 0.761,0.001 1.14,-0.002 0.175,-10e-4 0.456,-0.026 0.551,0.158 0.056,0.107 0.042,0.255 0.004,0.366 C 0.237,-0.466 0.146,-0.368 0.098,-0.25 0.065,-0.167 0.051,-0.077 0,0"
             style="fill:#100f0d;fill-opacity:1;fill-rule:nonzero;stroke:none"
             id="path58149" />
        </g>
        <g
           id="g58151"
           transform="translate(335.806,335.188)">
          <path
             d="m 0,0 -0.356,-0.119 c -0.082,0.048 -0.193,0.044 -0.286,0.059 -0.085,0.015 -0.166,0.012 -0.252,0.013 -0.087,0 -0.204,0.018 -0.284,-0.023 -0.032,-0.017 -0.074,-0.054 -0.092,-0.085 -0.021,-0.034 -0.014,-0.062 -0.048,-0.092 -0.024,-0.022 -0.07,-0.057 -0.095,-0.073 -0.041,-0.024 -0.098,-0.012 -0.146,-0.017 -0.17,-0.018 -0.34,-0.06 -0.51,-0.068 -0.212,-0.01 -0.427,0.001 -0.639,0.001 -0.229,0 -0.459,-0.001 -0.689,0 -0.139,0 -0.273,-0.007 -0.411,-0.018 -0.171,-0.014 -0.342,-0.037 -0.513,-0.049 -0.501,-0.034 -1.003,-0.028 -1.504,-0.028 h -1.821 c 0.028,0.095 0.048,0.196 0.06,0.29 0.016,0.128 0.004,0.264 0.005,0.392 0,0.124 -0.019,0.241 -0.025,0.362 -0.005,0.103 -0.003,0.208 -0.028,0.309 -0.013,0.055 -0.045,0.1 -0.06,0.155 -0.035,0.123 -0.084,0.243 -0.13,0.363 -0.043,0.113 -0.082,0.24 -0.179,0.317 -0.043,0.034 -0.116,0.087 -0.173,0.093 L -8.505,1.147 C -8.49,1.101 -8.457,1.064 -8.437,1.019 -8.408,0.953 -8.37,0.874 -8.351,0.804 -8.306,0.64 -8.343,0.431 -8.36,0.266 c -0.015,-0.147 -0.039,-0.27 -0.103,-0.405 -0.055,-0.116 -0.133,-0.219 -0.189,-0.334 -0.005,-0.01 -0.01,-0.018 -0.015,-0.026 -0.435,0 -0.87,0.001 -1.305,-0.001 -0.198,-0.001 -0.394,0.026 -0.593,0.026 -0.191,-0.001 -0.384,-0.008 -0.575,0.004 -0.039,0.002 -0.078,0.003 -0.117,0.005 0.015,0.036 0.029,0.073 0.045,0.108 0.119,0.274 0.307,0.518 0.487,0.756 0.119,0.156 0.254,0.321 0.418,0.431 0.131,0.088 0.269,0.167 0.404,0.25 0.114,0.071 0.234,0.137 0.354,0.199 0.051,0.026 0.102,0.03 0.153,0.051 0.053,0.023 0.093,0.067 0.144,0.096 0.04,0.021 0.067,0.043 0.105,0.071 0.06,0.042 0.129,0.063 0.195,0.095 0.123,0.061 0.23,0.144 0.328,0.24 0.139,0.136 0.226,0.269 0.283,0.456 0.024,0.078 0.055,0.16 0.069,0.241 0.015,0.093 10e-4,0.196 0.002,0.29 0.002,0.163 -0.082,0.233 -0.048,0.366 -0.011,0.052 -0.079,0.057 -0.119,0.076 -0.025,0.012 -0.045,0.037 -0.07,0.044 C -8.522,3.309 -8.54,3.3 -8.556,3.302 -8.58,3.306 -8.608,3.32 -8.632,3.327 -8.707,3.35 -8.785,3.361 -8.859,3.38 -8.893,3.389 -8.916,3.399 -8.959,3.398 -9.021,3.397 -9.068,3.413 -9.126,3.423 -9.184,3.434 -9.255,3.422 -9.314,3.422 h -0.287 -0.301 c -0.102,0 -0.174,-0.026 -0.274,-0.052 -0.086,-0.022 -0.18,-0.047 -0.263,-0.077 -0.048,-0.017 -0.092,-0.046 -0.14,-0.063 -0.026,-0.01 -0.068,-0.011 -0.095,-0.021 -0.099,-0.039 -0.198,-0.092 -0.3,-0.132 -0.05,-0.019 -0.102,-0.034 -0.153,-0.052 -0.058,-0.021 -0.088,-0.041 -0.138,-0.073 -0.075,-0.047 -0.162,-0.077 -0.236,-0.123 -0.228,-0.139 -0.493,-0.243 -0.706,-0.405 -0.072,-0.055 -0.147,-0.106 -0.211,-0.169 -0.059,-0.058 -0.12,-0.111 -0.181,-0.167 -0.061,-0.055 -0.132,-0.096 -0.187,-0.155 -0.135,-0.145 -0.235,-0.313 -0.357,-0.466 -0.085,-0.108 -0.153,-0.229 -0.215,-0.351 -0.037,-0.075 -0.061,-0.155 -0.099,-0.231 -0.025,-0.05 -0.047,-0.088 -0.06,-0.145 -0.01,-0.046 -0.016,-0.093 -0.023,-0.139 -0.01,-0.073 -0.035,-0.131 -0.05,-0.2 -0.018,-0.084 -0.009,-0.174 -0.033,-0.258 -0.019,-0.071 -0.06,-0.145 -0.089,-0.214 -0.027,-0.062 -0.063,-0.125 -0.096,-0.184 -0.006,-0.011 -0.01,-0.022 -0.015,-0.032 -0.147,0.021 -0.293,0.046 -0.44,0.069 -0.137,0.021 -0.346,0.027 -0.442,-0.096 -0.061,-0.077 -0.107,-0.173 -0.161,-0.255 -0.071,-0.111 -0.135,-0.264 -0.153,-0.396 -0.01,-0.077 0.037,-0.119 0.106,-0.15 0.061,-0.028 0.144,-0.048 0.21,-0.05 0.161,-0.006 0.323,-0.006 0.484,-0.004 -0.021,-0.053 -0.046,-0.1 -0.089,-0.148 -0.008,-0.009 -0.043,-0.039 -0.043,-0.05 0.001,-0.039 0.065,-0.034 0.088,-0.04 0.077,-0.019 0.144,-0.036 0.222,-0.048 0.096,-0.015 0.186,-0.019 0.283,-0.018 0.173,0 0.346,-10e-4 0.519,-10e-4 0.142,0 0.286,-0.006 0.428,-0.001 0.204,0.007 0.393,0.09 0.585,0.156 0.078,0.027 0.153,0.068 0.234,0.081 0.058,0.01 0.103,0.019 0.156,0.043 0.003,0.002 0.006,0.004 0.009,0.006 0.029,0 0.058,0.001 0.086,0.001 0.426,0 0.852,-0.001 1.278,0 0.207,0 0.418,0.014 0.623,-0.014 0.186,-0.026 0.363,-0.035 0.55,-0.034 0.031,0 0.061,0 0.092,0 -0.007,-0.009 -0.014,-0.017 -0.02,-0.025 -0.051,-0.069 -0.078,-0.147 -0.138,-0.209 -0.119,-0.123 -0.254,-0.171 -0.409,-0.236 -0.077,-0.032 -0.139,-0.061 -0.221,-0.077 -0.083,-0.015 -0.167,-0.025 -0.25,-0.042 -0.301,-0.06 -0.606,-0.052 -0.912,-0.052 -0.115,0 -0.229,-0.005 -0.344,-0.002 -0.121,0.004 -0.228,0.04 -0.343,0.073 -0.143,0.041 -0.272,0.091 -0.4,0.167 -0.041,0.025 -0.064,0.04 -0.103,0.031 -0.033,-0.008 -0.062,-0.038 -0.09,-0.055 -0.046,-0.029 -0.08,-0.042 -0.132,-0.059 -0.073,-0.025 -0.183,-0.076 -0.228,-0.144 -0.159,-0.241 0.323,-0.393 0.457,-0.487 0.073,-0.051 0.17,-0.062 0.251,-0.095 0.093,-0.038 0.191,-0.049 0.287,-0.076 0.261,-0.075 0.516,-0.129 0.788,-0.157 0.136,-0.014 0.275,-0.008 0.41,0.012 0.135,0.02 0.296,0.038 0.418,0.101 0.144,0.075 0.301,0.115 0.455,0.168 0.133,0.045 0.256,0.087 0.385,0.146 0.498,0.228 0.93,0.588 1.265,1.02 0.862,0 1.724,-0.002 2.586,-0.002 h 2.943 c 0.103,0 0.208,-0.005 0.311,10e-4 0.127,0.008 0.257,0.035 0.383,0.053 0.127,0.018 0.256,0.03 0.383,0.051 0.135,0.022 0.271,0.072 0.406,0.102 0.348,0.077 0.629,0.25 0.869,0.506 0.085,0.089 0.202,0.188 0.217,0.316 C 0.031,-0.16 0.037,-0.051 0.02,-0.004 0.013,-0.003 0.007,-0.001 0,0"
             style="fill:#100f0d;fill-opacity:1;fill-rule:nonzero;stroke:none"
             id="path58153" />
        </g>
        <g
           id="g58155"
           transform="translate(341.628,335.877)">
          <path
             d="m 0,0 c -0.343,-0.17 -0.451,-0.311 -0.504,-0.38 -0.08,-0.102 -0.154,-0.21 -0.192,-0.333 -0.02,-0.063 -0.031,-0.133 -0.039,-0.198 -0.008,-0.073 -0.014,-0.1 0.057,-0.123 0.105,-0.034 0.21,-0.053 0.323,-0.03 0.144,0.029 0.283,0.058 0.398,0.16 0.102,0.09 0.193,0.241 0.196,0.379 C 0.241,-0.398 0.22,-0.274 0.184,-0.153 0.167,-0.095 0.07,0.016 0,0"
             style="fill:#100f0d;fill-opacity:1;fill-rule:nonzero;stroke:none"
             id="path58157" />
        </g>
        <g
           id="g58159"
           transform="translate(325.674,335.878)">
          <path
             d="m 0,0 c -0.084,-0.034 -0.161,-0.056 -0.232,-0.114 -0.112,-0.091 -0.203,-0.257 -0.243,-0.393 -0.028,-0.096 -0.066,-0.224 -0.042,-0.327 0.017,-0.073 0.093,-0.077 0.155,-0.069 0.053,0.007 0.104,0.029 0.157,0.041 0.055,0.011 0.112,0.015 0.166,0.034 0.071,0.023 0.118,0.07 0.16,0.13 0.048,0.07 0.104,0.13 0.156,0.197 0.081,0.106 0.087,0.212 0.087,0.34 0,0.051 0.007,0.105 -0.005,0.155 C 0.35,0.032 0.334,0.053 0.34,0.093 0.059,0.028 0.04,0.016 0,0"
             style="fill:#100f0d;fill-opacity:1;fill-rule:nonzero;stroke:none"
             id="path58161" />
        </g>
      </g>
    </g>
  </g>
</svg>
