<?xml version="1.0" encoding="UTF-8" standalone="no"?>
<!-- Created with Inkscape (http://www.inkscape.org/) -->

<svg
   width="31.074884"
   height="24"
   viewBox="0 0 8.2218963 6.35"
   version="1.1"
   id="svg61554"
   inkscape:version="1.2.1 (9c6d41e4, 2022-07-14)"
   sodipodi:docname="in-too-deep.svg"
   xmlns:inkscape="http://www.inkscape.org/namespaces/inkscape"
   xmlns:sodipodi="http://sodipodi.sourceforge.net/DTD/sodipodi-0.dtd"
   xmlns="http://www.w3.org/2000/svg"
   xmlns:svg="http://www.w3.org/2000/svg">
  <sodipodi:namedview
     id="namedview61556"
     pagecolor="#505050"
     bordercolor="#eeeeee"
     borderopacity="1"
     inkscape:showpageshadow="0"
     inkscape:pageopacity="0"
     inkscape:pagecheckerboard="0"
     inkscape:deskcolor="#505050"
     inkscape:document-units="mm"
     showgrid="false"
     inkscape:zoom="0.7046647"
     inkscape:cx="22.705834"
     inkscape:cy="101.4667"
     inkscape:window-width="1390"
     inkscape:window-height="941"
     inkscape:window-x="0"
     inkscape:window-y="25"
     inkscape:window-maximized="0"
     inkscape:current-layer="layer1" />
  <defs
     id="defs61551">
    <clipPath
       clipPathUnits="userSpaceOnUse"
       id="clipPath57849">
      <path
         d="m 76.951,285.893 h 24.699 v 24.7 H 76.951 Z"
         id="path57847" />
    </clipPath>
  </defs>
  <g
     inkscape:label="Layer 1"
     inkscape:groupmode="layer"
     id="layer1"
     transform="translate(-99.144425,-121.85788)">
    <g
       id="g57843"
       transform="matrix(0.39489647,0,0,-0.39489647,67.991084,242.808)">
      <g
         id="g57845"
         clip-path="url(#clipPath57849)">
        <g
           id="g57851"
           transform="translate(82.4945,296.086)">
          <path
             d="m 0,0 h 0.67 c 0.403,0 0.806,0 1.209,0 0.454,0 0.922,0.024 1.376,-0.007 0.316,-0.021 0.629,-0.065 0.946,-0.073 0.369,-0.01 0.738,0.001 1.107,0 0.499,-0.001 0.993,-0.05 1.49,-0.062 0.213,-0.004 0.425,-0.003 0.638,-0.002 0.278,0 0.557,0.001 0.836,0 0.343,-0.001 0.682,0.019 1.024,0.038 0.3,0.016 0.603,0.003 0.902,0.003 h 1.165 1.021 c 0.233,0 0.471,-0.012 0.704,0.002 0.055,0.003 0.108,0.015 0.162,0.024 0.026,0.005 0.132,0.032 0.164,0.013 0.014,-0.009 0.022,-0.048 0.028,-0.06 0.05,-0.104 0.194,-0.19 0.278,-0.27 0.135,-0.129 0.187,-0.258 0.289,-0.41 0.074,-0.11 0.161,-0.204 0.252,-0.3 0.073,-0.076 0.141,-0.152 0.224,-0.216 0.07,-0.053 0.136,-0.101 0.203,-0.158 0.065,-0.055 0.074,-0.108 0.094,-0.188 0.013,-0.052 0.048,-0.131 0.043,-0.184 -0.062,0.03 -0.07,0.011 -0.046,-0.061 0.017,-0.053 0.051,-0.103 0.112,-0.108 0.053,-0.004 0.08,0.001 0.13,-0.025 0.084,-0.043 0.177,-0.096 0.252,-0.154 0.015,-0.014 0.031,-0.028 0.047,-0.042 0.003,-0.014 0.005,-0.029 0.006,-0.043 0.01,-0.024 0.04,-0.032 0.037,-0.062 -0.005,-0.049 -0.146,-0.061 -0.177,-0.066 -0.453,-0.07 -0.925,-0.058 -1.383,-0.058 -0.727,0.002 -1.453,10e-4 -2.18,10e-4 -0.52,0 -1.041,0.022 -1.559,-0.041 C 9.638,-2.561 9.221,-2.546 8.793,-2.548 8.474,-2.55 8.166,-2.576 7.849,-2.617 7.508,-2.663 7.179,-2.694 6.834,-2.67 6.402,-2.639 5.973,-2.55 5.544,-2.492 5.222,-2.448 4.902,-2.393 4.581,-2.348 4.384,-2.32 4.186,-2.312 3.99,-2.278 3.835,-2.252 3.681,-2.218 3.524,-2.199 3.221,-2.163 2.911,-2.17 2.606,-2.154 2.25,-2.136 1.897,-2.134 1.542,-2.155 1.096,-2.181 0.648,-2.138 0.203,-2.175 0.025,-2.189 -0.151,-2.212 -0.329,-2.226 c -0.261,-0.02 -0.52,-0.076 -0.78,-0.1 -0.188,-0.017 -0.372,-0.02 -0.56,-0.019 -0.102,0.001 -0.226,-0.018 -0.327,0.004 -0.005,0.03 0.004,0.049 0.016,0.075 0.111,0.24 0.29,0.452 0.465,0.646 0.158,0.174 0.304,0.351 0.438,0.543 0.089,0.127 0.175,0.253 0.268,0.376 0.035,0.047 0.051,0.09 0.07,0.141 0.033,0.087 0.105,0.168 0.167,0.235 0.059,0.065 0.077,0.137 0.078,0.222"
             style="fill:#100f0d;fill-opacity:1;fill-rule:nonzero;stroke:none"
             id="path57853" />
        </g>
        <g
           id="g57855"
           transform="translate(94.6902,297.957)">
          <path
             d="M 0,0 C -0.058,-0.003 -0.118,0.169 -0.148,0.21 -0.275,0.382 -0.432,0.533 -0.555,0.708 -0.59,0.759 -0.62,0.814 -0.66,0.862 -0.693,0.902 -0.717,0.919 -0.739,0.967 -0.794,1.087 -0.857,1.198 -0.934,1.305 -0.956,1.336 -0.981,1.366 -1.003,1.398 -1.029,1.435 -1.04,1.485 -1.069,1.52 -1.133,1.596 -1.297,1.583 -1.378,1.585 -1.542,1.587 -1.691,1.569 -1.853,1.547 -2.214,1.499 -2.584,1.522 -2.947,1.522 c -0.295,0 -0.593,-0.01 -0.889,0.002 -0.348,0.013 -0.696,0.016 -1.042,0.064 -0.211,0.029 -0.421,0.067 -0.635,0.075 -0.157,0.006 -0.314,0.004 -0.471,0.003 -0.402,-10e-4 -0.804,0 -1.206,0 -0.354,0 -0.704,0.004 -1.057,0.026 -0.103,0.006 -0.207,0.007 -0.308,0.028 -0.067,0.013 -0.129,0.027 -0.198,0.033 -0.195,0.017 -0.39,0.033 -0.585,0.057 -0.16,0.02 -0.318,0.051 -0.48,0.059 -0.165,0.007 -0.331,-0.01 -0.495,0.007 -0.054,0.006 -0.121,0.029 -0.175,0.014 -0.022,-0.085 -0.126,-0.153 -0.185,-0.214 -0.055,-0.057 -0.109,-0.114 -0.156,-0.179 -0.07,-0.095 -0.119,-0.203 -0.181,-0.303 -0.139,-0.225 -0.291,-0.449 -0.384,-0.699 -0.059,-0.16 -0.14,-0.329 -0.258,-0.456 -0.047,-0.052 -0.106,-0.091 -0.153,-0.141 -0.017,-0.017 -0.088,-0.079 -0.079,-0.102 0.083,-0.009 0.179,0.042 0.259,0.06 0.281,0.062 0.579,0.088 0.864,0.126 0.343,0.045 0.678,0.035 1.022,0.037 0.399,0.003 0.797,0.024 1.196,0.022 0.227,-0.006 0.453,-0.002 0.679,0.009 0.207,0.018 0.414,0.029 0.622,0.034 0.356,0.006 0.712,-0.013 1.068,0.007 0.331,0.019 0.655,0.033 0.987,0.032 0.28,-0.001 0.561,0 0.842,0 0.528,0 1.057,-0.001 1.585,0.001 0.135,0.003 0.269,0.001 0.404,-0.004 0.115,-0.011 0.231,-0.023 0.347,-0.034 0.145,-0.009 0.287,-0.007 0.431,-0.02 0.136,-0.012 0.267,0 0.402,-0.024 0.137,-0.024 0.265,-0.044 0.404,-0.056 0.176,-0.015 0.354,-0.062 0.531,-0.05 C -0.162,-0.059 -0.177,-0.039 0,0"
             style="fill:#100f0d;fill-opacity:1;fill-rule:nonzero;stroke:none"
             id="path57857" />
        </g>
        <g
           id="g57859"
           transform="translate(92.1812,301.31)">
          <path
             d="M 0,0 C 0.019,-0.004 0.033,-0.016 0.039,-0.034 0.016,-0.02 0,-0.001 -0.017,0.019 -0.079,0.097 -0.129,0.185 -0.187,0.266 -0.279,0.393 -0.35,0.539 -0.454,0.657 -0.494,0.703 -0.52,0.739 -0.547,0.793 -0.578,0.856 -0.623,0.909 -0.657,0.97 -0.678,1.008 -0.69,1.078 -0.732,1.091 -0.759,1.1 -0.808,1.09 -0.836,1.09 -0.937,1.091 -1.034,1.081 -1.135,1.074 -1.348,1.058 -1.565,1.069 -1.779,1.069 -2.221,1.07 -2.663,1.067 -3.105,1.07 -3.279,1.071 -3.449,1.071 -3.622,1.047 -3.793,1.023 -3.962,1.004 -4.136,1.007 -4.264,1.008 -4.392,1.008 -4.52,1.008 -4.684,1.007 -4.854,0.992 -5.015,1.031 -5.14,1.062 -5.257,1.099 -5.388,1.108 -5.518,1.117 -5.65,1.111 -5.78,1.11 c -0.121,0 -0.241,10e-4 -0.362,10e-4 -0.072,0 -0.144,-10e-4 -0.216,0 -0.05,0 -0.143,0.017 -0.192,-10e-4 C -6.598,1.092 -6.625,1.021 -6.643,0.972 -6.669,0.9 -6.669,0.817 -6.685,0.743 -6.697,0.685 -6.695,0.616 -6.718,0.562 -6.748,0.492 -6.816,0.436 -6.857,0.372 -6.885,0.329 -7.03,0.116 -6.969,0.065 c 0.012,-0.01 0.04,-0.003 0.054,-0.003 0.067,-0.001 0.134,0 0.2,0 0.179,0 0.358,0.006 0.535,-0.004 0.224,-0.012 0.443,-0.04 0.667,-0.038 0.284,0.001 0.573,0.018 0.857,-0.007 0.103,-0.01 0.206,-0.027 0.308,-0.04 0.13,-0.017 0.258,-0.016 0.388,-0.015 0.319,0.004 0.638,0.011 0.954,-0.034 0.188,-0.027 0.372,-0.063 0.562,-0.067 0.265,-0.006 0.532,0.012 0.797,-0.004 0.143,-0.01 0.282,-0.041 0.425,-0.039 0.291,0.003 0.582,0.001 0.872,0.001"
             style="fill:#100f0d;fill-opacity:1;fill-rule:nonzero;stroke:none"
             id="path57861" />
        </g>
        <g
           id="g57863"
           transform="translate(90.577,303.243)">
          <path
             d="M 0,0 C 0.004,0.001 0.009,0.002 0.014,0.002 -0.023,0.087 -0.094,0.158 -0.127,0.243 -0.158,0.32 -0.193,0.392 -0.228,0.467 -0.247,0.506 -0.248,0.526 -0.291,0.536 -0.351,0.552 -0.446,0.504 -0.503,0.497 -0.749,0.465 -1.013,0.494 -1.261,0.493 c -0.325,0 -0.65,0 -0.975,0.001 -0.126,0 -0.254,-0.009 -0.379,0.003 -0.216,0.019 -0.428,0.051 -0.645,0.064 -0.174,0.01 -0.344,0.02 -0.515,0.056 C -3.816,0.626 -3.929,0.672 -3.972,0.66 -4.023,0.646 -4.007,0.634 -4.009,0.578 -4.012,0.502 -4.045,0.423 -4.057,0.347 -4.079,0.211 -4.159,0.128 -4.214,0.004 c 0.065,-0.034 0.183,0.011 0.253,0.014 0.285,0.013 0.572,0.025 0.857,0.024 0.54,-0.003 1.08,-0.002 1.621,-0.001 0.199,0.001 0.392,0.002 0.589,-0.03 0.102,-0.017 0.204,-0.039 0.307,-0.049 0.03,-0.002 0.062,-0.001 0.092,-0.008 C -0.396,-0.071 -0.29,-0.062 0,0"
             style="fill:#100f0d;fill-opacity:1;fill-rule:nonzero;stroke:none"
             id="path57865" />
        </g>
        <g
           id="g57867"
           transform="translate(90.4536,303.778)">
          <path
             d="M 0,0 C -0.005,0.04 0.007,0.067 0.02,0.103 0.057,0.203 0.056,0.321 0.07,0.425 0.093,0.584 0.083,0.748 0.082,0.908 0.08,1.097 0.121,1.279 0.123,1.468 0.124,1.621 0.167,1.751 0.113,1.901 0.088,1.972 0.055,2.046 0.111,2.108 0.163,2.165 0.248,2.178 0.306,2.23 0.34,2.26 0.362,2.308 0.4,2.332 0.433,2.353 0.476,2.348 0.514,2.343 0.623,2.329 0.724,2.301 0.808,2.231 0.845,2.2 0.869,2.186 0.89,2.144 0.907,2.107 0.918,2.085 0.927,2.046 0.943,1.984 0.947,1.934 0.947,1.868 0.946,1.698 0.946,1.528 0.946,1.357 0.946,1.221 0.953,1.098 0.92,0.967 0.886,0.836 0.904,0.689 0.905,0.555 0.905,0.417 0.884,0.282 0.884,0.144 0.885,-0.086 0.888,-0.317 0.838,-0.541 0.828,-0.582 0.824,-0.664 0.77,-0.678 0.746,-0.684 0.723,-0.664 0.702,-0.654 0.63,-0.617 0.55,-0.599 0.48,-0.556 0.378,-0.493 0.321,-0.39 0.243,-0.304 0.206,-0.263 0.165,-0.233 0.138,-0.184 0.124,-0.16 0.12,-0.132 0,0"
             style="fill:#100f0d;fill-opacity:1;fill-rule:nonzero;stroke:none"
             id="path57869" />
        </g>
        <g
           id="g57871"
           transform="translate(85.9702,303.161)">
          <path
             d="m 0,0 c 0.036,0.007 0.075,0.08 0.092,0.111 0.02,0.038 0.041,0.075 0.06,0.114 0.029,0.059 0.036,0.122 0.059,0.184 0.027,0.073 0.067,0.142 0.106,0.21 0.023,0.039 0.052,0.065 0.064,0.11 0.02,0.075 0.014,0.166 0.008,0.244 C 0.376,1.147 0.37,1.318 0.37,1.494 0.37,1.781 0.379,2.068 0.351,2.353 0.345,2.422 0.352,2.491 0.35,2.56 0.349,2.617 0.333,2.668 0.328,2.724 0.324,2.775 0.335,2.825 0.325,2.876 0.316,2.921 0.308,2.955 0.308,3.001 0.309,3.076 0.316,3.079 0.246,3.089 0.193,3.096 0.136,3.121 0.083,3.122 0.044,3.123 0.056,3.118 0.023,3.1 -0.048,3.062 -0.115,3.073 -0.139,2.979 -0.156,2.916 -0.166,2.859 -0.195,2.798 -0.215,2.756 -0.248,2.719 -0.263,2.675 -0.29,2.595 -0.315,2.526 -0.356,2.452 -0.38,2.408 -0.415,2.357 -0.428,2.306 -0.445,2.238 -0.435,2.147 -0.433,2.079 -0.429,1.961 -0.41,1.842 -0.4,1.725 -0.392,1.624 -0.397,1.525 -0.392,1.424 -0.388,1.314 -0.351,1.209 -0.348,1.097 -0.343,0.882 -0.343,0.663 -0.349,0.448 -0.35,0.381 -0.38,0.29 -0.367,0.226 -0.358,0.188 -0.326,0.136 -0.308,0.103"
             style="fill:#100f0d;fill-opacity:1;fill-rule:nonzero;stroke:none"
             id="path57873" />
        </g>
        <g
           id="g57875"
           transform="translate(93.5797,299.726)">
          <path
             d="M 0,0 C -0.033,-0.007 -0.056,0.015 -0.083,0.03 -0.136,0.06 -0.191,0.084 -0.24,0.121 -0.309,0.173 -0.369,0.234 -0.435,0.289 -0.503,0.346 -0.566,0.384 -0.616,0.459 -0.696,0.582 -0.763,0.715 -0.841,0.84 -0.933,0.987 -0.984,1.161 -0.988,1.335 -0.99,1.395 -1,1.482 -0.983,1.542 c 0.012,0.042 0.04,0.083 0.055,0.124 0.035,0.093 0.038,0.191 0.056,0.288 0.044,0.241 0.049,0.478 0.049,0.723 0,0.249 0.003,0.499 0,0.748 -0.001,0.11 0.016,0.214 0.029,0.323 0.01,0.075 0.027,0.164 0.008,0.239 -0.013,0.049 -0.034,0.095 0.004,0.137 0.021,0.024 0.062,0.039 0.089,0.054 0.074,0.041 0.147,0.09 0.23,0.11 0.111,0.027 0.231,0.01 0.344,0.01 0.088,0 0.175,0 0.262,0.001 C 0.281,4.3 0.482,4.28 0.598,4.196 0.642,4.165 0.688,4.123 0.731,4.089 0.781,4.048 0.823,4.007 0.824,3.941 0.826,3.794 0.843,3.649 0.844,3.502 0.845,3.334 0.835,3.171 0.808,3.005 0.78,2.839 0.764,2.682 0.763,2.514 0.76,2.282 0.709,2.053 0.718,1.82 0.726,1.623 0.748,1.432 0.737,1.234 0.73,1.101 0.702,0.977 0.683,0.848 0.67,0.76 0.68,0.674 0.658,0.586 0.626,0.454 0.538,0.347 0.485,0.224 0.433,0.104 0.268,0.043 0,0"
             style="fill:#100f0d;fill-opacity:1;fill-rule:nonzero;stroke:none"
             id="path57877" />
        </g>
        <g
           id="g57879"
           transform="translate(84.1192,300.24)">
          <path
             d="M 0,0 C 0.136,0.133 0.311,0.233 0.393,0.41 0.434,0.497 0.466,0.589 0.501,0.678 0.518,0.713 0.531,0.749 0.538,0.787 0.536,0.797 0.529,0.803 0.52,0.806 0.461,0.945 0.43,1.094 0.396,1.243 0.356,1.423 0.323,1.61 0.268,1.786 0.229,1.908 0.193,2.02 0.179,2.148 0.16,2.307 0.151,2.468 0.119,2.625 0.093,2.755 0.069,2.878 0.057,3.01 0.043,3.154 0.005,3.291 0,3.437 -0.004,3.53 -0.023,3.61 -0.037,3.699 -0.045,3.753 -0.043,3.778 -0.102,3.785 -0.159,3.791 -0.199,3.79 -0.231,3.744 -0.304,3.639 -0.35,3.519 -0.44,3.425 -0.545,3.315 -0.663,3.226 -0.761,3.111 -0.803,3.061 -0.847,3.024 -0.869,2.962 -0.903,2.867 -0.9,2.763 -0.918,2.664 -0.935,2.565 -0.951,2.469 -0.961,2.369 -0.975,2.212 -1.006,2.057 -1.009,1.899 -1.012,1.767 -1.011,1.633 -1.01,1.5 -1.015,1.416 -1.005,1.334 -0.98,1.253 c 0.032,-0.074 0.058,-0.15 0.078,-0.228 0.02,-0.093 0.029,-0.191 0.046,-0.285 0.021,-0.111 0.033,-0.227 0.034,-0.341 0,-0.123 0.019,-0.256 0.041,-0.378 0.023,-0.128 0.202,-0.191 0.308,-0.247"
             style="fill:#100f0d;fill-opacity:1;fill-rule:nonzero;stroke:none"
             id="path57881" />
        </g>
        <g
           id="g57883"
           transform="translate(97.3842,294.585)">
          <path
             d="m 0,0 c 0,0.466 -0.026,0.939 0.021,1.403 0.035,0.351 0.02,0.705 0.02,1.057 0,0.43 0.018,0.863 -0.001,1.291 -0.008,0.189 -0.058,0.368 -0.092,0.553 -0.025,0.146 -0.046,0.292 -0.073,0.437 -0.035,0.185 -0.061,0.354 -0.06,0.543 0,0.106 -0.004,0.211 0.016,0.313 0.008,0.039 0.007,0.058 0.036,0.087 0.069,0.068 0.162,0.121 0.24,0.182 C 0.223,5.957 0.318,6.027 0.469,6.043 0.613,6.057 0.762,6.068 0.906,6.069 1.122,6.071 1.322,5.99 1.482,5.842 1.685,5.653 1.854,5.426 2.001,5.192 2.057,5.086 2.114,4.98 2.17,4.874 2.233,4.752 2.284,4.625 2.324,4.494 2.328,4.468 2.325,4.444 2.325,4.419 2.324,4.353 2.322,4.289 2.313,4.223 2.278,3.967 2.259,3.711 2.23,3.454 2.2,3.182 2.229,2.905 2.21,2.632 2.191,2.373 2.162,2.115 2.166,1.855 2.168,1.645 2.187,1.439 2.201,1.229 2.24,0.653 2.195,0.075 2.263,-0.498 2.288,-0.707 2.282,-0.914 2.283,-1.124 2.284,-1.306 2.258,-1.484 2.246,-1.666 2.233,-1.861 2.242,-2.057 2.242,-2.253 c 0,-0.506 0,-1.013 0,-1.519 0,-0.093 0.011,-0.199 -0.005,-0.291 C 2.233,-4.089 2.222,-4.114 2.22,-4.141 2.219,-4.16 2.229,-4.188 2.222,-4.206 2.2,-4.262 2.087,-4.284 2.035,-4.299 2,-4.309 1.964,-4.316 1.93,-4.328 1.837,-4.363 1.767,-4.381 1.666,-4.382 c -0.254,-0.002 -0.501,0.066 -0.74,0.144 -0.148,0.049 -0.22,0.13 -0.29,0.261 -0.084,0.157 -0.136,0.306 -0.143,0.491 -0.011,0.336 -0.017,0.69 0.025,1.024 0.025,0.191 0.091,0.373 0.115,0.564 0.017,0.141 0.062,0.275 0.084,0.415 0.016,0.102 0.012,0.224 -0.008,0.324 -0.037,0.184 -0.101,0.358 -0.134,0.545 -0.007,0.036 -0.008,0.085 -0.028,0.117 -0.028,0.047 -0.069,0.097 -0.1,0.144 -0.038,0.06 -0.101,0.139 -0.179,0.127"
             style="fill:#100f0d;fill-opacity:1;fill-rule:nonzero;stroke:none"
             id="path57885" />
        </g>
        <g
           id="g57887"
           transform="translate(80.5819,294.585)">
          <path
             d="M 0,0 C 0.023,0.114 0.082,0.239 0.146,0.333 0.177,0.38 0.201,0.418 0.245,0.45 0.28,0.475 0.331,0.517 0.346,0.557 0.375,0.637 0.344,0.747 0.326,0.826 0.289,0.988 0.239,1.136 0.229,1.304 0.222,1.426 0.228,1.544 0.211,1.665 0.194,1.789 0.184,1.911 0.185,2.036 c 0.001,0.3 0.002,0.6 0,0.9 C 0.183,3.099 0.202,3.25 0.227,3.41 0.248,3.547 0.255,3.684 0.272,3.821 0.287,3.938 0.296,4.057 0.314,4.174 0.322,4.225 0.338,4.279 0.327,4.331 0.321,4.359 0.287,4.416 0.28,4.431 0.25,4.497 0.225,4.564 0.197,4.632 0.152,4.74 0.103,4.87 0.01,4.947 -0.046,4.993 -0.122,5.021 -0.186,5.055 -0.273,5.101 -0.331,5.124 -0.43,5.122 -0.613,5.119 -0.797,5.129 -0.98,5.122 -1.079,5.118 -1.169,5.11 -1.258,5.069 -1.325,5.038 -1.383,4.999 -1.445,4.962 -1.519,4.918 -1.569,4.907 -1.564,4.813 -1.551,4.563 -1.606,4.317 -1.605,4.067 -1.604,3.849 -1.601,3.631 -1.603,3.413 -1.605,3.172 -1.626,2.932 -1.625,2.69 c 10e-4,-0.448 10e-4,-0.896 0,-1.344 0,-0.307 0.012,-0.614 -0.022,-0.921 -0.029,-0.257 -0.049,-0.504 -0.032,-0.763 0.012,-0.183 0.041,-0.366 0.052,-0.55 0.008,-0.137 0,-0.273 0.001,-0.409 0.002,-0.164 0.023,-0.324 0.022,-0.488 -10e-4,-0.219 0.018,-0.447 -0.01,-0.664 -0.024,-0.19 -0.074,-0.374 -0.073,-0.568 0.001,-0.068 -0.011,-0.15 -10e-4,-0.218 0.013,-0.08 0.067,-0.085 0.139,-0.112 0.087,-0.032 0.172,-0.072 0.261,-0.103 0.105,-0.036 0.211,-0.053 0.322,-0.063 0.085,-0.008 0.171,-0.011 0.256,-0.019 0.072,-0.007 0.146,-0.026 0.218,-0.024 0.028,0.085 0.075,0.156 0.08,0.247 0.01,0.177 0.001,0.347 -0.03,0.521 -0.014,0.082 -0.02,0.165 -0.042,0.245 -0.019,0.068 -0.048,0.131 -0.076,0.195 -0.08,0.183 -0.097,0.372 -0.099,0.569 -0.002,0.172 -0.014,0.352 0.032,0.519 0.043,0.157 0.07,0.318 0.112,0.476 0.043,0.158 0.129,0.294 0.205,0.436 0.02,0.037 0.059,0.101 0.063,0.142"
             style="fill:#100f0d;fill-opacity:1;fill-rule:nonzero;stroke:none"
             id="path57889" />
        </g>
      </g>
    </g>
  </g>
</svg>
