<?xml version="1.0" encoding="UTF-8" standalone="no"?>
<!-- Created with Inkscape (http://www.inkscape.org/) -->

<svg
   width="23.431177"
   height="24"
   viewBox="0 0 6.1994989 6.35"
   version="1.1"
   id="svg63514"
   inkscape:version="1.2.1 (9c6d41e4, 2022-07-14)"
   sodipodi:docname="into-the-maelstrom.svg"
   xmlns:inkscape="http://www.inkscape.org/namespaces/inkscape"
   xmlns:sodipodi="http://sodipodi.sourceforge.net/DTD/sodipodi-0.dtd"
   xmlns="http://www.w3.org/2000/svg"
   xmlns:svg="http://www.w3.org/2000/svg">
  <sodipodi:namedview
     id="namedview63516"
     pagecolor="#505050"
     bordercolor="#eeeeee"
     borderopacity="1"
     inkscape:showpageshadow="0"
     inkscape:pageopacity="0"
     inkscape:pagecheckerboard="0"
     inkscape:deskcolor="#505050"
     inkscape:document-units="mm"
     showgrid="false"
     inkscape:zoom="0.7046647"
     inkscape:cx="46.830783"
     inkscape:cy="132.68722"
     inkscape:window-width="1390"
     inkscape:window-height="941"
     inkscape:window-x="0"
     inkscape:window-y="25"
     inkscape:window-maximized="0"
     inkscape:current-layer="layer1" />
  <defs
     id="defs63511">
    <clipPath
       clipPathUnits="userSpaceOnUse"
       id="clipPath58369">
      <path
         d="m 319.951,285.893 h 24.699 v 24.7 h -24.699 z"
         id="path58367" />
    </clipPath>
  </defs>
  <g
     inkscape:label="Layer 1"
     inkscape:groupmode="layer"
     id="layer1"
     transform="translate(-92.64614,-113.59745)">
    <g
       id="g58363"
       transform="matrix(0.31919775,0,0,-0.31919775,-10.323538,211.97099)">
      <g
         id="g58365"
         clip-path="url(#clipPath58369)">
        <g
           id="g58371"
           transform="translate(337.256,288.507)">
          <path
             d="m 0,0 c -0.081,-0.011 -0.182,0.027 -0.261,0.04 -0.183,0.03 -0.371,0.088 -0.549,0.14 -0.176,0.052 -0.363,0.118 -0.523,0.209 -0.096,0.054 -0.178,0.126 -0.266,0.19 -0.159,0.115 -0.339,0.195 -0.505,0.298 -0.215,0.133 -0.379,0.306 -0.545,0.494 -0.214,0.243 -0.422,0.473 -0.602,0.742 -0.27,0.406 -0.467,0.868 -0.628,1.328 -0.099,0.283 -0.164,0.561 -0.19,0.859 -0.022,0.248 -0.082,0.492 -0.101,0.738 -0.018,0.228 -0.035,0.461 -0.041,0.69 -0.004,0.149 0.002,0.299 0.002,0.448 0,0.159 -0.027,0.365 0.011,0.525 0.027,0.117 0.082,0.229 0.115,0.344 0.028,0.095 0.044,0.191 0.069,0.287 0.049,0.183 0.155,0.345 0.219,0.523 0.056,0.156 0.138,0.315 0.219,0.459 0.057,0.103 0.134,0.196 0.198,0.295 0.084,0.129 0.146,0.271 0.22,0.405 0.093,0.167 0.201,0.314 0.302,0.474 0.085,0.134 0.151,0.271 0.252,0.396 0.105,0.132 0.229,0.247 0.337,0.376 0.129,0.155 0.273,0.306 0.42,0.445 0.158,0.151 0.311,0.295 0.495,0.416 0.143,0.093 0.303,0.165 0.442,0.265 0.098,0.071 0.162,0.167 0.264,0.232 0.353,0.223 0.774,0.31 1.186,0.355 0.625,0.067 1.254,0.084 1.883,0.091 0.414,0.005 0.767,-0.18 1.123,-0.363 0.081,-0.042 0.152,-0.118 0.227,-0.17 0.042,-0.029 0.096,-0.053 0.152,-0.078 0.119,-0.052 0.232,-0.12 0.35,-0.184 0.11,-0.059 0.154,-0.155 0.217,-0.26 0.036,-0.06 0.035,-0.103 0.056,-0.164 0.011,-0.034 0.044,-0.072 0.059,-0.106 0.017,-0.039 0.021,-0.12 0.06,-0.131 0.004,0.035 -0.021,0.09 -0.032,0.124 -0.057,0.16 -0.145,0.305 -0.221,0.456 -0.084,0.166 -0.15,0.32 -0.262,0.47 C 4.039,11.81 3.922,11.96 3.774,12.079 3.622,12.2 3.492,12.276 3.307,12.338 3.12,12.4 2.93,12.448 2.741,12.501 2.239,12.642 1.72,12.685 1.209,12.776 c -0.244,0.043 -0.488,0.09 -0.732,0.131 -0.226,0.038 -0.464,0.017 -0.692,0.018 -0.551,0.003 -1.044,-0.077 -1.54,-0.326 -0.171,-0.086 -0.343,-0.15 -0.508,-0.25 -0.19,-0.114 -0.444,-0.203 -0.597,-0.366 -0.07,-0.076 -0.12,-0.135 -0.204,-0.195 -0.082,-0.058 -0.167,-0.097 -0.243,-0.162 -0.171,-0.144 -0.33,-0.293 -0.458,-0.475 -0.15,-0.214 -0.336,-0.412 -0.45,-0.65 -0.096,-0.2 -0.207,-0.395 -0.298,-0.598 C -4.636,9.627 -4.744,9.344 -4.871,9.07 -4.971,8.857 -5.088,8.655 -5.172,8.434 -5.229,8.285 -5.269,8.133 -5.337,7.988 -5.42,7.807 -5.438,7.641 -5.459,7.444 -5.485,7.196 -5.539,6.952 -5.563,6.704 -5.595,6.37 -5.568,6.023 -5.568,5.689 c 0,-0.218 0.002,-0.436 0,-0.654 -0.002,-0.202 0.03,-0.381 0.065,-0.579 0.055,-0.31 0.098,-0.626 0.189,-0.929 0.103,-0.345 0.251,-0.68 0.394,-1.01 0.162,-0.373 0.325,-0.702 0.593,-1.009 0.272,-0.311 0.587,-0.547 0.932,-0.771 0.331,-0.216 0.648,-0.46 1.01,-0.622 0.123,-0.054 0.229,-0.112 0.361,-0.141 0.196,-0.042 0.404,-0.071 0.605,-0.075 C -0.802,-0.112 -0.188,-0.133 0,0"
             style="fill:#100f0d;fill-opacity:1;fill-rule:nonzero;stroke:none"
             id="path58373" />
        </g>
        <g
           id="g58375"
           transform="translate(327.7,291.648)">
          <path
             d="m 0,0 c -0.478,0.576 -0.817,1.267 -0.996,2.001 -0.169,0.691 -0.263,1.41 -0.169,2.121 0.034,0.252 0.107,0.499 0.161,0.748 0.077,0.358 0.168,0.713 0.312,1.051 0.209,0.491 0.434,0.97 0.678,1.443 0.227,0.439 0.593,0.826 0.907,1.202 0.157,0.187 0.333,0.351 0.537,0.485 0.242,0.158 0.501,0.286 0.746,0.438 0.17,0.105 0.327,0.215 0.511,0.294 0.344,0.147 0.7,0.283 1.057,0.393 0.269,0.082 0.537,0.177 0.814,0.228 0.262,0.048 0.53,0.061 0.796,0.069 0.404,0.013 0.802,0.104 1.205,0.1 0.391,-0.004 0.784,0.015 1.174,-0.002 0.242,-0.011 0.481,-0.061 0.72,-0.098 0.22,-0.035 0.443,-0.064 0.661,-0.116 0.44,-0.105 0.881,-0.205 1.313,-0.34 0.446,-0.14 0.898,-0.273 1.322,-0.471 0.165,-0.077 0.32,-0.166 0.481,-0.252 0.158,-0.083 0.332,-0.131 0.469,-0.25 0.211,-0.183 0.397,-0.402 0.596,-0.598 0.162,-0.16 0.273,-0.338 0.401,-0.525 0.128,-0.188 0.246,-0.371 0.337,-0.581 0.062,-0.144 0.071,-0.296 0.093,-0.45 0.02,-0.134 0.065,-0.264 0.085,-0.398 0.014,-0.089 0.008,-0.159 0.04,-0.247 0.022,-0.06 0.041,-0.104 0.033,-0.171 10e-4,0.239 10e-4,0.479 0,0.718 -0.001,0.118 -0.006,0.235 0.008,0.353 0.012,0.101 0.031,0.177 0.009,0.276 -0.019,0.081 -0.06,0.158 -0.084,0.238 -0.04,0.139 -0.064,0.282 -0.106,0.421 -0.083,0.272 -0.192,0.536 -0.3,0.8 -0.095,0.234 -0.274,0.42 -0.375,0.651 -0.058,0.133 -0.131,0.243 -0.216,0.361 -0.114,0.158 -0.215,0.316 -0.351,0.455 -0.155,0.157 -0.269,0.346 -0.42,0.506 -0.204,0.215 -0.434,0.367 -0.679,0.53 -0.218,0.144 -0.494,0.229 -0.739,0.315 -0.322,0.114 -0.654,0.215 -0.985,0.301 C 9.878,12.042 9.694,12.051 9.523,12.081 9.43,12.097 9.341,12.111 9.248,12.122 8.869,12.164 8.496,12.239 8.116,12.278 7.407,12.35 6.681,12.297 5.978,12.205 5.511,12.144 5.04,12.115 4.574,12.051 4.347,12.02 4.123,11.977 3.897,11.947 3.521,11.898 3.166,11.763 2.814,11.627 2.532,11.517 2.262,11.386 1.967,11.313 1.704,11.249 1.469,11.126 1.215,11.037 0.866,10.914 0.535,10.736 0.212,10.557 -0.046,10.415 -0.357,10.332 -0.576,10.13 -0.791,9.931 -0.99,9.754 -1.148,9.505 -1.301,9.264 -1.426,9.009 -1.576,8.766 -1.729,8.517 -1.818,8.231 -1.926,7.96 -1.983,7.817 -2.053,7.672 -2.086,7.521 -2.111,7.404 -2.124,7.287 -2.157,7.171 -2.231,6.916 -2.253,6.661 -2.304,6.4 -2.348,6.175 -2.407,5.951 -2.439,5.723 -2.462,5.566 -2.469,5.409 -2.501,5.253 -2.637,4.599 -2.705,3.948 -2.685,3.28 -2.674,2.931 -2.499,2.583 -2.384,2.256 -2.332,2.11 -2.3,1.957 -2.247,1.811 -2.206,1.696 -2.135,1.607 -2.086,1.497 -1.991,1.286 -1.85,1.161 -1.691,0.997 -1.597,0.9 -1.522,0.78 -1.418,0.692 -1.33,0.618 -1.223,0.566 -1.132,0.496 -1,0.395 -0.864,0.302 -0.736,0.197 c 0.12,-0.097 0.222,-0.205 0.338,-0.306 0.124,-0.111 0.268,-0.21 0.419,-0.28 0.213,-0.099 0.436,-0.154 0.642,-0.274"
             style="fill:#100f0d;fill-opacity:1;fill-rule:nonzero;stroke:none"
             id="path58377" />
        </g>
        <g
           id="g58379"
           transform="translate(323.318,298.799)">
          <path
             d="m 0,0 c 0,0.117 -0.011,0.206 -0.038,0.323 -0.105,0.45 -0.144,0.916 -0.128,1.378 0.006,0.266 0.039,0.528 0.099,0.786 C -0.003,2.69 0.076,2.888 0.169,3.08 0.35,3.481 0.553,3.856 0.781,4.232 1.11,4.776 1.505,5.311 1.987,5.731 2.259,5.967 2.577,6.164 2.871,6.372 3.197,6.604 3.552,6.787 3.91,6.965 4.516,7.266 5.128,7.549 5.801,7.658 6.158,7.716 6.526,7.753 6.887,7.781 7.231,7.807 7.576,7.853 7.921,7.857 8.586,7.866 9.252,7.854 9.918,7.854 c 0.49,0.001 0.981,0.018 1.469,-0.037 0.37,-0.041 0.706,-0.14 1.065,-0.221 0.153,-0.028 0.306,-0.053 0.46,-0.075 0.189,-0.042 0.372,-0.101 0.55,-0.177 0.356,-0.138 0.744,-0.24 1.083,-0.418 0.424,-0.224 0.798,-0.522 1.205,-0.771 0.275,-0.169 0.537,-0.314 0.767,-0.545 0.205,-0.204 0.411,-0.426 0.556,-0.677 0.391,-0.68 0.534,-1.476 0.748,-2.219 0.113,-0.392 0.282,-0.765 0.386,-1.159 0.055,-0.209 0.089,-0.419 0.113,-0.632 0.022,-0.206 0.061,-0.412 0.074,-0.618 0.046,-0.729 0.032,-1.458 0.032,-2.189 0.002,0.177 0.001,0.339 0.04,0.514 0.059,0.261 0.082,0.519 0.102,0.785 0.048,0.634 0.019,1.281 -0.074,1.911 C 18.41,1.892 18.293,2.45 18.162,3.007 18.11,3.231 18.049,3.455 17.989,3.676 17.946,3.836 17.892,3.993 17.847,4.152 17.804,4.303 17.73,4.441 17.68,4.59 17.52,5.072 17.301,5.512 17.053,5.955 16.905,6.22 16.704,6.445 16.504,6.671 16.418,6.768 16.333,6.87 16.242,6.963 16.096,7.112 15.919,7.216 15.74,7.318 15.493,7.458 15.242,7.581 15.011,7.748 14.82,7.887 14.638,8.046 14.421,8.143 14.086,8.295 13.722,8.365 13.387,8.52 13.254,8.581 13.131,8.655 12.992,8.7 12.859,8.743 12.718,8.76 12.581,8.782 12.262,8.835 11.945,8.901 11.626,8.948 10.806,9.069 9.982,9.168 9.163,9.295 9.003,9.32 8.846,9.358 8.685,9.375 8.477,9.397 8.263,9.38 8.055,9.379 c -0.592,-10e-4 -1.184,0 -1.776,0 -0.46,0 -0.929,0.03 -1.387,-0.005 C 4.583,9.35 4.275,9.276 3.968,9.231 3.707,9.192 3.426,9.138 3.175,9.048 2.971,8.975 2.798,8.844 2.619,8.726 2.124,8.4 1.69,7.994 1.234,7.618 1.145,7.544 1.077,7.454 0.993,7.376 0.889,7.281 0.789,7.185 0.692,7.082 0.498,6.873 0.348,6.653 0.212,6.402 -0.02,5.974 -0.108,5.494 -0.28,5.041 -0.338,4.886 -0.419,4.74 -0.478,4.586 -0.501,4.526 -0.508,4.463 -0.528,4.402 -0.56,4.306 -0.607,4.215 -0.624,4.115 -0.683,3.763 -0.73,3.397 -0.729,3.041 -0.728,2.781 -0.723,2.54 -0.687,2.284 -0.653,2.043 -0.656,1.798 -0.626,1.557 -0.596,1.312 -0.548,1.07 -0.52,0.825 c 0.022,-0.198 0.004,-0.391 0.093,-0.573 0.096,-0.192 0.202,-0.377 0.289,-0.573 0.029,-0.064 0.085,-0.146 0.105,-0.209"
             style="fill:#100f0d;fill-opacity:1;fill-rule:nonzero;stroke:none"
             id="path58381" />
        </g>
        <g
           id="g58383"
           transform="translate(337.375,288.613)">
          <path
             d="m 0,0 c -0.276,0.003 -0.545,0.021 -0.819,0.065 -0.408,0.065 -0.79,0.24 -1.149,0.441 -0.351,0.196 -0.72,0.402 -1.01,0.684 -0.136,0.131 -0.275,0.253 -0.423,0.371 -0.151,0.119 -0.232,0.266 -0.322,0.433 -0.411,0.765 -0.477,1.7 -0.455,2.555 0.009,0.36 0.075,0.724 0.166,1.072 0.096,0.361 0.286,0.665 0.504,0.965 0.193,0.266 0.377,0.512 0.643,0.711 0.236,0.175 0.504,0.277 0.784,0.358 0.263,0.076 0.513,0.159 0.786,0.192 0.265,0.033 0.536,0.041 0.802,0.041 C -0.316,7.887 -0.105,7.922 0.066,7.883 0.215,7.849 0.378,7.787 0.521,7.732 0.604,7.7 0.67,7.651 0.747,7.607 0.843,7.551 0.949,7.515 1.042,7.455 1.145,7.389 1.214,7.309 1.275,7.204 1.308,7.147 1.4,7.035 1.391,6.97 1.256,7.01 1.117,7.054 0.985,7.1 0.904,7.129 0.85,7.153 0.759,7.159 0.631,7.168 0.505,7.183 0.378,7.201 0.004,7.253 -0.388,7.29 -0.766,7.257 -0.968,7.239 -1.176,7.14 -1.326,7.008 -1.404,6.939 -1.472,6.93 -1.558,6.879 -1.656,6.823 -1.741,6.739 -1.838,6.678 -1.953,6.606 -2.058,6.522 -2.171,6.449 -2.24,6.405 -2.307,6.373 -2.368,6.318 -2.51,6.188 -2.587,6.003 -2.68,5.838 -2.717,5.771 -2.724,5.714 -2.747,5.641 -2.792,5.506 -2.849,5.375 -2.892,5.239 -2.945,5.072 -2.982,4.906 -3.013,4.734 -3.062,4.461 -3.145,4.197 -3.198,3.926 -3.236,3.729 -3.271,3.527 -3.243,3.326 -3.2,3.018 -3.082,2.701 -2.968,2.415 -2.903,2.253 -2.802,2.107 -2.72,1.954 -2.593,1.719 -2.499,1.476 -2.339,1.26 c 0.123,-0.168 0.263,-0.322 0.403,-0.476 0.157,-0.172 0.303,-0.368 0.48,-0.519 0.115,-0.098 0.258,-0.173 0.386,-0.253 0.066,-0.042 0.129,-0.084 0.206,-0.103 0.164,-0.041 0.34,-0.062 0.507,-0.093 0.111,-0.02 0.234,-0.048 0.347,-0.051 C -0.024,-0.228 -0.032,-0.216 0,0"
             style="fill:#100f0d;fill-opacity:1;fill-rule:nonzero;stroke:none"
             id="path58385" />
        </g>
        <g
           id="g58387"
           transform="translate(339.283,288.725)">
          <path
             d="m 0,0 c -0.258,-0.119 -0.538,-0.113 -0.817,-0.066 -0.5,0.086 -0.982,0.253 -1.414,0.518 -0.256,0.158 -0.435,0.362 -0.634,0.584 -0.136,0.151 -0.266,0.297 -0.365,0.475 -0.094,0.169 -0.213,0.326 -0.303,0.496 -0.11,0.209 -0.162,0.449 -0.152,0.683 0.006,0.155 0.033,0.307 0.057,0.46 0.034,0.213 0.048,0.437 0.142,0.634 0.082,0.174 0.179,0.343 0.266,0.514 0.09,0.175 0.172,0.33 0.316,0.465 0.162,0.151 0.33,0.276 0.53,0.372 0.207,0.098 0.452,0.201 0.679,0.229 0.397,0.049 0.791,-0.083 1.16,-0.213 C -0.146,5.014 0.214,4.779 0.581,4.592 0.795,4.484 1.006,4.306 1.114,4.086 1.224,3.859 1.282,3.594 1.29,3.343 1.297,3.105 1.289,2.884 1.223,2.656 1.197,2.566 1.18,2.487 1.137,2.401 1.08,2.285 1.029,2.14 0.934,2.051 0.577,1.719 0.129,1.512 -0.362,1.536 -0.511,1.543 -0.678,1.551 -0.822,1.591 -1.016,1.644 -1.203,1.744 -1.38,1.837 -1.623,1.965 -1.813,2.098 -1.941,2.35 -2.023,2.512 -2.087,2.649 -2.128,2.826 -2.158,2.957 -2.21,3.065 -2.201,3.2 -2.182,3.485 -2.073,3.741 -1.924,3.981 -1.954,3.961 -1.989,3.95 -2.018,3.929 -2.132,3.845 -2.222,3.696 -2.318,3.593 -2.403,3.5 -2.457,3.464 -2.514,3.355 -2.577,3.233 -2.634,3.139 -2.627,2.998 -2.617,2.83 -2.557,2.643 -2.479,2.493 -2.389,2.32 -2.269,2.183 -2.147,2.033 -2.02,1.875 -1.921,1.704 -1.76,1.578 -1.661,1.5 -1.578,1.403 -1.473,1.331 -1.39,1.275 -1.296,1.238 -1.21,1.186 -1.119,1.131 -1.038,1.064 -0.946,1.011 -0.817,0.936 -0.686,0.924 -0.544,0.89 -0.411,0.857 -0.286,0.869 -0.151,0.862 0.028,0.853 0.153,0.87 0.312,0.957 0.795,1.22 1.18,1.642 1.489,2.089 1.571,2.207 1.637,2.347 1.701,2.476 1.801,2.679 1.776,2.89 1.759,3.109 1.745,3.29 1.7,3.475 1.667,3.653 1.652,3.739 1.621,3.806 1.582,3.882 1.549,3.938 1.517,3.995 1.488,4.053 1.465,4.125 1.444,4.196 1.424,4.269 1.364,4.429 1.26,4.576 1.189,4.733 1.102,4.929 0.989,5.102 0.875,5.282 0.815,5.375 0.733,5.413 0.649,5.481 0.484,5.614 0.258,5.685 0.065,5.764 -0.195,5.871 -0.427,6.031 -0.699,6.11 -0.788,6.136 -0.882,6.14 -0.973,6.155 -1.119,6.178 -1.259,6.235 -1.406,6.251 -1.86,6.303 -2.359,6.096 -2.719,5.836 -2.83,5.756 -2.921,5.657 -3.024,5.569 -3.156,5.456 -3.292,5.372 -3.406,5.24 -3.514,5.116 -3.643,4.979 -3.726,4.835 -3.917,4.507 -4.117,4.115 -4.176,3.738 -4.208,3.534 -4.247,3.335 -4.316,3.139 -4.355,3.029 -4.4,2.922 -4.399,2.803 c 0,-0.054 0.016,-0.107 0.014,-0.162 -0.003,-0.062 -0.016,-0.105 -0.01,-0.168 0.007,-0.075 0.019,-0.159 0.03,-0.235 0.007,-0.046 0.025,-0.087 0.039,-0.132 0.048,-0.151 0.042,-0.313 0.093,-0.462 0.13,-0.388 0.343,-0.761 0.679,-1.002 0.258,-0.185 0.508,-0.368 0.792,-0.514 0.192,-0.098 0.383,-0.197 0.574,-0.299 0.14,-0.075 0.32,-0.147 0.476,-0.175 0.201,-0.035 0.404,-0.08 0.609,-0.082 0.262,-0.003 0.506,0.001 0.756,0.084 0.12,0.04 0.23,0.061 0.352,0.086 C 0.05,-0.249 0.083,-0.241 0,0"
             style="fill:#100f0d;fill-opacity:1;fill-rule:nonzero;stroke:none"
             id="path58389" />
        </g>
      </g>
    </g>
  </g>
</svg>
