<?xml version="1.0" encoding="UTF-8" standalone="no"?>
<!-- Created with Inkscape (http://www.inkscape.org/) -->

<svg
   width="24.42045"
   height="24"
   viewBox="0 0 6.461244 6.35"
   version="1.1"
   id="svg61796"
   inkscape:version="1.2.1 (9c6d41e4, 2022-07-14)"
   sodipodi:docname="malfunction.svg"
   xmlns:inkscape="http://www.inkscape.org/namespaces/inkscape"
   xmlns:sodipodi="http://sodipodi.sourceforge.net/DTD/sodipodi-0.dtd"
   xmlns="http://www.w3.org/2000/svg"
   xmlns:svg="http://www.w3.org/2000/svg">
  <sodipodi:namedview
     id="namedview61798"
     pagecolor="#505050"
     bordercolor="#eeeeee"
     borderopacity="1"
     inkscape:showpageshadow="0"
     inkscape:pageopacity="0"
     inkscape:pagecheckerboard="0"
     inkscape:deskcolor="#505050"
     inkscape:document-units="mm"
     showgrid="false"
     inkscape:zoom="0.7046647"
     inkscape:cx="15.610261"
     inkscape:cy="213.57675"
     inkscape:window-width="1390"
     inkscape:window-height="941"
     inkscape:window-x="0"
     inkscape:window-y="25"
     inkscape:window-maximized="0"
     inkscape:current-layer="layer1" />
  <defs
     id="defs61793">
    <clipPath
       clipPathUnits="userSpaceOnUse"
       id="clipPath58185">
      <path
         d="m 76.951,246.312 h 24.699 v 24.699 H 76.951 Z"
         id="path58183" />
    </clipPath>
  </defs>
  <g
     inkscape:label="Layer 1"
     inkscape:groupmode="layer"
     id="layer1"
     transform="translate(-101.15117,-92.195418)">
    <g
       id="g58179"
       transform="matrix(0.35277777,0,0,-0.35277777,73.787401,187.53361)">
      <g
         id="g58181"
         clip-path="url(#clipPath58185)"
         transform="matrix(0.78053859,0,0,0.78053859,17.022875,59.309446)">
        <g
           id="g58187"
           transform="translate(98.2005,260.713)">
          <path
             d="m 0,0 -0.199,0.14 -0.434,0.274 -0.4,-0.424 -0.425,-0.381 -0.335,0.18 L -2.119,-0.08 -2.517,-0.093 -2.562,0.489 -2.819,0.976 -3.278,1.101 -3.758,1.045 -4.035,0.57 -4.2,0.028 -4.74,0.016 -5.237,-0.174 -5.266,-0.136 -5.572,0.33 -6.021,0.642 -6.211,0.564 -6.469,0.553 -6.917,0.334 -6.834,-0.231 -6.852,-0.79 -7.289,-1.087 -7.439,-1.173 c 0.039,-0.121 0.104,-0.232 0.171,-0.341 0.163,-0.113 0.34,-0.216 0.418,-0.406 0.019,-0.048 0.026,-0.095 0.027,-0.142 0.02,-0.037 0.039,-0.074 0.052,-0.115 0.009,-0.028 0.005,-0.055 -0.007,-0.078 0.04,-0.035 0.08,-0.072 0.119,-0.109 0.041,-0.033 0.08,-0.068 0.12,-0.103 l 0.098,0.091 0.449,0.243 0.428,0.287 0.499,0.125 0.501,0.081 0.499,0.076 0.507,0.069 0.521,-0.075 -0.163,-0.503 -0.156,-0.466 c 0.469,0.064 0.943,0.082 1.417,0.051 0.129,0.069 0.257,0.152 0.384,0.243 0.271,0.221 0.536,0.45 0.806,0.673 0.013,0.011 0.026,0.017 0.039,0.02 0.008,0.009 0.017,0.019 0.03,0.026 0.064,0.031 0.127,0.061 0.188,0.098 0.034,0.019 0.068,0.017 0.097,0.004 0.097,0.063 0.195,0.126 0.291,0.191 0.072,0.063 0.146,0.124 0.22,0.185 l 0.065,0.389 0.006,0.546 z"
             style="fill:#231f20;fill-opacity:1;fill-rule:nonzero;stroke:none"
             id="path58189" />
        </g>
        <g
           id="g58191"
           transform="translate(90.6418,250.691)">
          <path
             d="m 0,0 c -0.093,0.065 -0.161,0.153 -0.234,0.244 -0.085,0.106 -0.196,0.184 -0.294,0.277 -0.01,0 -0.019,0.001 -0.029,0 -0.196,0.165 -0.392,0.329 -0.587,0.495 L -1.157,0.998 -1.483,1.314 -1.748,1.75 -2.012,2.102 C -2.183,2.079 -2.358,2.07 -2.526,2.055 -2.859,2.027 -3.083,1.995 -3.352,1.762 -3.414,1.707 -3.473,1.646 -3.533,1.585 l 0.008,-0.032 0.322,-0.442 -0.36,-0.446 -0.261,-0.504 0.342,-0.353 0.121,-0.209 0.149,-0.195 0.539,0.136 0.516,0.205 0.407,-0.332 0.439,-0.286 10e-4,-0.053 -0.105,-0.541 -0.053,-0.555 0.197,-0.17 0.258,-0.024 0.429,-0.25 0.398,0.4 0.306,0.261 C 0.086,-1.551 0.052,-1.297 0.048,-1.041 0.047,-0.959 0.051,-0.877 0.056,-0.796 0.042,-0.619 0.031,-0.441 0.025,-0.265 0.019,-0.204 0.017,-0.143 0.014,-0.081 0.008,-0.067 0,-0.054 -0.007,-0.04 -0.003,-0.027 -0.002,-0.013 0,0"
             style="fill:#231f20;fill-opacity:1;fill-rule:nonzero;stroke:none"
             id="path58193" />
        </g>
        <g
           id="g58195"
           transform="translate(97.1186,251.719)">
          <path
             d="m 0,0 c -0.245,-0.019 -0.483,-0.061 -0.695,-0.146 -0.087,0.006 -0.175,0.013 -0.262,0.016 -0.006,-0.007 -0.013,-0.013 -0.02,-0.019 -0.004,-0.026 -0.018,-0.052 -0.046,-0.07 -0.031,-0.02 -0.061,-0.039 -0.093,-0.056 -0.018,-0.01 -0.036,-0.012 -0.053,-0.011 -0.013,-0.01 -0.026,-0.02 -0.038,-0.03 -0.033,-0.029 -0.065,-0.06 -0.098,-0.088 l 0.322,-0.341 0.366,-0.351 -0.363,-0.273 -0.472,-0.195 -0.455,-0.242 -0.509,-0.073 -0.507,-0.029 -0.504,-0.024 -0.512,-0.017 -0.51,0.128 0.214,0.484 0.216,0.477 0.246,0.464 0.196,0.487 0.207,0.484 0.337,0.269 0.184,-0.037 0.392,-0.059 0.321,-0.38 C -1.645,0.252 -1.145,0.163 -0.641,0.124 -0.423,0.107 -0.206,0.111 0.009,0.092 0.004,0.062 0.001,0.031 0,0 m -3.947,2.952 c 0.02,0.142 0.107,0.251 0.23,0.325 l 0.031,0.043 0.1,0.018 c 0.086,0.03 0.181,0.046 0.276,0.049 l 0.193,0.035 0.063,-0.059 C -2.87,3.319 -2.71,3.217 -2.638,3.055 -2.589,3.005 -2.548,2.945 -2.518,2.874 -2.405,2.601 -2.527,2.274 -2.787,2.135 -2.82,2.117 -2.857,2.105 -2.895,2.093 L -2.927,2.048 -2.997,2.038 C -3.054,2.009 -3.115,1.988 -3.183,1.981 -3.246,1.974 -3.306,1.975 -3.363,1.983 L -3.484,1.964 -3.607,2.066 C -3.666,2.099 -3.72,2.141 -3.766,2.19 -3.795,2.212 -3.82,2.235 -3.843,2.26 L -3.911,2.317 -3.923,2.379 C -3.964,2.465 -3.98,2.563 -3.977,2.666 L -4.014,2.858 Z M 2.895,2.201 3.411,2.417 3.895,2.653 3.913,3.125 3.84,3.599 3.324,3.754 2.76,3.891 2.687,4.442 2.477,4.939 2.901,5.324 3.212,5.778 3.012,6.216 2.919,6.445 2.773,6.669 2.2,6.528 1.657,6.463 1.275,6.817 1.216,6.892 C 1.025,6.852 0.834,6.813 0.647,6.765 0.623,6.788 0.568,6.784 0.466,6.736 0.443,6.726 0.42,6.713 0.397,6.702 0.151,6.633 -0.085,6.521 -0.32,6.4 -0.637,6.235 -0.946,6.061 -1.247,5.873 -1.11,5.422 -1.115,4.948 -1.037,4.48 -1.031,4.476 -1.025,4.474 -1.02,4.469 -0.96,4.415 -0.889,4.375 -0.814,4.342 -0.754,4.325 -0.696,4.304 -0.638,4.282 L -0.262,4.639 0.12,5 0.471,5.366 0.744,5.003 0.939,4.531 1.181,4.077 1.254,3.567 1.283,3.06 1.308,2.556 1.325,2.044 1.196,1.534 0.712,1.748 0.235,1.964 -0.229,2.21 l -0.487,0.197 -0.483,0.206 -0.27,0.337 0.037,0.184 0.059,0.392 0.317,0.267 C -1.112,3.967 -1.182,4.139 -1.21,4.252 -1.338,4.765 -1.293,5.3 -1.444,5.8 c -0.047,0.001 -0.094,0.002 -0.142,0.002 -0.022,0 -0.04,0.007 -0.055,0.017 C -1.643,5.82 -1.645,5.82 -1.647,5.82 -1.659,5.821 -1.669,5.824 -1.678,5.828 -1.911,5.823 -2.146,5.858 -2.377,5.864 -2.512,5.867 -2.643,5.867 -2.774,5.87 L -2.835,5.754 -3.031,5.267 -3.237,4.784 -3.575,4.515 -3.759,4.551 -4.151,4.61 -4.491,5.014 -4.902,5.341 -5.263,5.721 -5.304,5.764 C -5.369,5.732 -5.437,5.703 -5.504,5.674 -5.546,5.706 -5.593,5.729 -5.647,5.738 -5.938,5.781 -6.392,5.617 -6.681,5.571 -6.698,5.568 -6.719,5.559 -6.743,5.546 -6.824,5.539 -6.905,5.529 -6.987,5.516 c -0.002,0 -0.006,-0.002 -0.008,-0.002 0.021,0.035 0.042,0.07 0.064,0.105 0.179,0.287 0.448,0.626 0.764,0.848 -0.207,0.098 -0.45,0.381 -0.485,0.521 -0.018,0.074 0.006,0.136 0.014,0.204 -0.039,0.066 -0.076,0.132 -0.111,0.2 -0.053,0.08 -0.107,0.162 -0.163,0.24 -0.004,0.006 -0.005,0.011 -0.007,0.016 -0.008,0.006 -0.015,0.011 -0.022,0.017 -0.153,0.113 -0.295,0.218 -0.38,0.383 L -7.828,8.185 -8.328,8.411 -8.672,8.079 -9.015,7.726 -8.75,7.215 -8.515,6.722 -8.824,6.306 -9.077,5.85 -9.581,5.809 -10.132,5.753 -10.312,5.306 -10.369,5.07 -10.468,4.801 -9.984,4.491 -9.546,4.157 -9.572,3.632 -9.628,3.111 -10.139,2.897 -10.543,2.55 l 0.026,-0.449 0.095,-0.464 0.515,-0.104 0.4,-0.087 c 0.56,0.072 1.128,0.174 1.694,0.212 l -0.05,0.22 -0.073,0.503 -0.066,0.5 -0.043,0.366 c -0.01,0.01 -0.021,0.021 -0.032,0.031 -0.002,0.015 -0.006,0.028 -0.013,0.04 -0.081,0.135 -0.106,0.293 -0.183,0.43 -0.053,0.094 -0.124,0.185 -0.2,0.267 0.001,-10e-4 0.002,0 0.004,-10e-4 0.016,-0.004 0.033,-0.007 0.05,-0.011 0.016,0.006 0.034,0.009 0.057,0.004 0.105,-0.022 0.208,-0.052 0.311,-0.081 0.008,-0.01 0.019,-0.02 0.033,-0.028 C -7.778,3.76 -7.54,3.664 -7.272,3.597 -7.273,3.594 -7.273,3.592 -7.273,3.59 L -6.843,3.394 -6.379,3.148 -5.892,2.952 -5.409,2.746 -5.139,2.408 -5.176,2.224 -5.235,1.832 -5.638,1.493 -5.965,1.081 -6.346,0.72 -6.728,0.358 -6.858,0.222 c 0.064,-0.09 0.16,-0.19 0.248,-0.28 0.055,-0.05 0.108,-0.101 0.154,-0.16 0.003,-0.003 0.004,-0.007 0.006,-0.01 0.008,-0.01 0.016,-0.02 0.023,-0.028 0.163,-0.221 0.415,-0.48 0.535,-0.748 0.013,-0.012 0.022,-0.029 0.028,-0.049 0.017,-0.02 0.034,-0.039 0.05,-0.058 -0.026,-0.24 -0.038,-0.478 0.004,-0.717 10e-4,-0.004 0.003,-0.006 0.004,-0.009 -0.011,-0.386 -0.079,-0.771 -0.112,-1.16 l 0.093,-0.043 0.348,-0.073 0.3,-0.161 0.14,-0.527 0.089,-0.55 0.463,-0.155 0.503,-0.024 0.23,0.521 0.278,0.505 0.557,-0.078 0.514,0.14 -0.041,-0.075 0.384,-0.406 0.348,-0.412 0.228,-0.027 0.202,0.166 0.477,0.097 0.075,0.551 -0.026,0.573 0.492,0.229 0.453,0.283 0.46,-0.323 0.519,-0.215 0.366,0.325 0.311,0.356 -0.161,0.494 -0.225,0.515 0.309,0.434 0.306,0.424 0.004,-0.024 0.558,0.047 0.559,-0.068 0.217,0.44 0.06,0.237 0.098,0.24 -0.453,0.333 -0.357,0.41 0.071,0.51 z"
             style="fill:#231f20;fill-opacity:1;fill-rule:nonzero;stroke:none"
             id="path58197" />
        </g>
        <g
           id="g58199"
           transform="translate(85.075,267.433)">
          <path
             d="m 0,0 -0.217,-0.386 c 0.237,-0.131 0.502,-0.196 0.736,-0.335 0.004,-0.002 0.007,-0.005 0.01,-0.007 0.005,-0.001 0.01,0 0.015,-0.001 0.137,-0.034 0.274,-0.07 0.403,-0.124 L 1.165,-0.519 1.486,-0.084 1.933,0.22 2.07,0.277 C 2.075,0.41 2.085,0.542 2.097,0.674 2.086,0.816 2.075,0.958 2.069,1.099 1.97,1.208 1.9,1.344 1.816,1.465 L 1.367,1.269 1.331,1.226 0.866,1.542 0.363,1.753 -0.06,1.432 -0.444,1.035 -0.193,0.521 Z"
             style="fill:#231f20;fill-opacity:1;fill-rule:nonzero;stroke:none"
             id="path58201" />
        </g>
        <g
           id="g58203"
           transform="translate(93.0575,263.38)">
          <path
             d="M 0,0 -0.189,0.209 C -0.744,0.156 -1.299,0.092 -1.855,0.04 l -0.058,-0.119 -0.3,-0.431 -0.33,-0.421 -0.451,-0.289 -0.441,-0.169 -0.198,0.505 -0.091,0.545 -0.017,0.402 C -3.773,0.11 -3.801,0.152 -3.821,0.178 -3.967,0.37 -4.14,0.546 -4.292,0.736 L -4.497,0.709 C -4.499,0.705 -4.502,0.703 -4.505,0.699 -4.507,0.7 -4.509,0.7 -4.511,0.701 -4.513,0.693 -4.517,0.687 -4.519,0.679 -4.673,0.687 -4.818,0.697 -4.955,0.75 c -0.113,0.102 -0.219,0.215 -0.323,0.31 -0.009,0.023 -0.01,0.048 -0.002,0.071 -0.038,0.123 -0.042,0.257 -0.022,0.404 0.004,0.033 0.021,0.058 0.043,0.074 l 0.194,0.23 C -5.212,1.996 -5.353,2.158 -5.488,2.326 L -5.576,2.276 -5.805,2.15 -6.347,2.306 -6.901,2.383 -7.479,2.378 -7.391,2.574 c -0.007,0.01 -0.013,0.022 -0.016,0.037 -0.004,0.011 -0.006,0.024 -0.008,0.036 0.017,0.041 0.019,0.078 -0.004,0.106 -0.017,0.02 -0.032,0.042 -0.047,0.064 -0.135,0.06 -0.271,0.117 -0.406,0.177 -0.043,0.019 -0.056,0.054 -0.052,0.089 -0.012,0 -0.024,0.002 -0.037,10e-4 -0.152,0.072 -0.311,0.128 -0.462,0.204 L -8.584,2.825 -9.156,2.747 -9.45,2.732 -9.696,2.595 -9.78,2.059 -9.816,1.526 l 0.474,-0.297 0.534,-0.204 0.11,-0.558 0.184,-0.554 -0.429,-0.413 -0.276,-0.476 0.074,-0.261 0.186,-0.209 0.129,-0.246 0.165,-0.246 0.592,0.094 0.534,0.243 0.003,-0.002 c 0.151,0.075 0.308,0.138 0.466,0.197 0.134,0.076 0.238,0.226 0.37,0.305 0.063,0.038 0.126,0.077 0.188,0.116 -0.005,0.015 -0.01,0.029 -0.015,0.044 -0.005,0.011 -0.008,0.021 -0.011,0.033 0,0.001 0,0.002 0,0.003 v 0 c -10e-4,0.009 -0.005,0.017 -0.004,0.027 l -0.357,0.268 -0.292,0.437 -0.176,0.427 0.502,0.198 0.542,0.091 0.554,0.022 0.037,-0.007 C -5.717,0.57 -5.702,0.58 -5.687,0.591 -5.631,0.43 -5.492,0.299 -5.336,0.197 -5.337,0.196 -5.337,0.195 -5.338,0.194 l 0.005,-0.011 -0.153,-0.528 -0.075,-0.541 0.007,-0.564 -0.497,0.236 -0.211,0.142 C -6.37,-1.144 -6.482,-1.213 -6.595,-1.282 -6.738,-1.37 -6.838,-1.507 -6.98,-1.591 -6.981,-1.598 -6.985,-1.605 -6.987,-1.613 -7.001,-1.673 -7.005,-1.734 -7.013,-1.795 -7.051,-1.86 -7.088,-1.926 -7.121,-1.994 -7.122,-1.996 -7.123,-1.997 -7.124,-1.998 l 10e-4,-0.001 0.046,-0.022 c -0.001,-0.012 -0.003,-0.024 -0.003,-0.036 0.011,-0.002 0.021,-0.005 0.033,-0.012 0.023,-0.014 0.047,-0.026 0.071,-0.04 0.013,0.003 0.026,0.006 0.035,0.009 0.004,0.002 0.008,0.005 0.012,0.006 l 0.311,-0.152 -0.026,-0.049 -0.042,-0.565 0.065,-0.508 c 0.378,-0.072 0.746,-0.182 1.115,-0.292 l 0.356,0.34 0.278,0.501 0.567,-0.039 0.552,0.111 -0.046,-0.051 0.368,-0.433 0.465,-0.326 0.251,0.049 0.253,0.106 0.441,0.279 0.006,0.54 -0.031,0.556 0.456,0.334 0.384,0.415 -0.022,0.041 0.552,-0.132 0.564,-0.022 0.272,0.476 0.173,0.495 z"
             style="fill:#231f20;fill-opacity:1;fill-rule:nonzero;stroke:none"
             id="path58205" />
        </g>
        <g
           id="g58207"
           transform="translate(93.7908,265.691)">
          <path
             d="M 0,0 -0.148,0.499 -0.662,0.628 -1.221,0.75 -1.41,1.291 -1.709,1.75 -1.503,2.262 -1.341,2.79 -1.718,3.168 -2.138,3.491 -2.649,3.272 -2.893,3.14 -3.121,3.026 -3.64,3.212 -4.171,3.397 -4.3,3.952 -4.49,4.507 -5.062,4.481 -5.645,4.559 -5.82,3.976 -5.932,3.603 C -5.98,3.121 -6.073,2.641 -6.15,2.161 -5.684,2.225 -5.222,2.218 -4.751,2.173 -4.469,2.147 -4.144,2.127 -3.872,2.014 -3.864,2.012 -3.856,2.011 -3.848,2.009 -3.849,2.007 -3.849,2.006 -3.849,2.005 -3.791,1.979 -3.734,1.951 -3.682,1.915 -3.679,1.913 -3.678,1.911 -3.676,1.909 l 0.2,-0.084 0.412,-0.366 0.331,-0.435 0.244,-0.482 0.19,-0.443 -0.398,-0.139 -0.433,-0.031 -0.439,0.037 -0.428,-0.083 -0.147,0.088 c -0.204,-0.089 -0.406,-0.183 -0.611,-0.272 0.229,-0.234 0.27,-0.705 0.028,-0.862 l -0.06,-0.099 c 0.158,-0.052 0.318,-0.101 0.481,-0.134 0.125,-0.026 0.262,-0.022 0.385,-0.055 0.177,-0.048 0.198,-0.208 0.238,-0.36 0.199,0.04 0.468,-0.021 0.611,-0.041 0.312,-0.043 0.64,-0.043 0.957,-0.085 0.101,0.026 0.192,0.075 0.239,0.165 0.038,0.074 0.081,0.163 0.109,0.254 0.007,0.102 0.015,0.206 0.015,0.309 0,0.022 0.007,0.037 0.016,0.051 0.006,-0.021 0.014,-0.042 0.018,-0.062 0.045,-0.192 0.059,-0.408 0.193,-0.557 0.007,-0.061 0.014,-0.121 0.017,-0.182 0.066,0.004 0.132,0.007 0.198,0.01 0,0 0.001,0.001 0.001,0.001 0.056,0.054 0.115,0.103 0.177,0.147 0.028,0.024 0.059,0.046 0.087,0.069 l 0.023,0.099 0.085,0.54 0.527,0.209 0.427,0.366 0.076,0.251 z"
             style="fill:#231f20;fill-opacity:1;fill-rule:nonzero;stroke:none"
             id="path58209" />
        </g>
        <g
           id="g58211"
           transform="translate(89.2027,267.189)">
          <path
             d="M 0,0 -0.003,0.223 C -0.182,0.261 -0.389,0.374 -0.508,0.418 -0.535,0.428 -0.554,0.447 -0.565,0.469 -0.681,0.466 -0.798,0.461 -0.914,0.456 -0.945,0.455 -0.968,0.466 -0.985,0.483 -1.349,0.383 -1.697,0.257 -2.031,0.085 l 0.212,-0.298 0.233,-0.526 0.131,-0.425 c 0.083,0.019 0.169,0.028 0.244,0.032 0.007,0 0.015,0 0.023,0 0.031,-0.081 0.061,-0.162 0.096,-0.24 0.029,-0.063 0.077,-0.095 0.136,-0.121 -0.002,-0.004 -0.002,-0.009 -0.005,-0.013 0.069,-0.044 0.135,-0.091 0.194,-0.145 0.022,-0.017 0.042,-0.035 0.063,-0.052 l 0.391,0.198 0.026,-0.015 c 0.177,0.162 0.358,0.319 0.541,0.474 l -0.068,0.189 -0.05,0.433 z"
             style="fill:#231f20;fill-opacity:1;fill-rule:nonzero;stroke:none"
             id="path58213" />
        </g>
        <g
           id="g58215"
           transform="translate(82.2666,258.95)">
          <path
             d="m 0,0 c -0.009,-0.005 -0.016,-0.01 -0.023,-0.014 -0.008,-0.005 -0.017,-0.011 -0.026,-0.016 -0.036,-0.022 -0.077,-0.056 -0.112,-0.095 -0.081,-0.026 -0.163,-0.048 -0.25,-0.064 -0.069,-0.003 -0.138,-0.003 -0.207,0 -0.137,0.094 -0.253,0.23 -0.294,0.334 -0.05,0.127 -0.065,0.324 -0.03,0.503 0.065,0.05 0.14,0.12 0.17,0.187 C -0.55,0.902 -0.204,0.824 -0.061,0.719 0.027,0.653 0.079,0.571 0.106,0.478 0.097,0.334 0.05,0.157 0,0 M 3.49,1.846 3.284,2.355 2.729,2.321 2.186,2.342 1.77,2.678 1.401,3.101 1.338,3.059 1.45,3.612 1.324,4.153 0.835,4.382 0.554,4.423 0.408,4.499 C 0.354,4.505 0.3,4.513 0.246,4.524 L -0.067,4.069 -0.364,3.628 C -0.344,3.612 -0.328,3.589 -0.329,3.553 -0.33,3.519 -0.33,3.485 -0.331,3.452 -0.329,3.445 -0.328,3.439 -0.326,3.433 -0.322,3.415 -0.323,3.399 -0.327,3.384 -0.321,3.351 -0.317,3.318 -0.311,3.285 -0.245,3.272 -0.191,3.243 -0.122,3.223 -0.116,3.221 -0.109,3.219 -0.102,3.218 0.043,3.039 0.24,2.917 0.433,2.787 0.478,2.756 0.521,2.722 0.563,2.687 0.289,2.757 0.014,2.874 -0.268,2.891 -0.267,2.88 -0.265,2.87 -0.265,2.859 -0.263,2.85 -0.259,2.842 -0.257,2.834 -0.236,2.721 -0.254,2.655 -0.292,2.544 -0.374,2.31 -0.448,2.07 -0.532,1.836 L -0.533,1.74 -0.785,1.576 -1.221,1.23 -1.577,0.827 -1.646,0.27 -1.642,0.241 c -0.003,-0.02 -0.009,-0.037 -0.012,-0.058 -0.02,-0.175 0.009,-0.314 0.071,-0.425 l 0.007,-0.061 0.035,-0.281 -0.234,-0.314 -0.163,-0.378 -0.364,0.354 -0.205,0.418 -0.14,0.445 -0.008,0.465 0.132,0.442 0.072,0.375 c -0.061,0.131 -0.111,0.268 -0.142,0.409 -0.26,0.06 -0.519,0.119 -0.772,0.201 L -3.503,1.473 -4.053,1.394 -4.629,1.239 -4.69,0.946 -4.7,0.658 l 0.015,-0.566 0.525,-0.195 0.5,-0.251 0.169,-0.512 0.199,-0.52 0.046,0.026 -0.309,-0.479 -0.142,-0.531 0.385,-0.388 0.144,-0.266 0.267,-0.19 0.532,0.274 0.45,0.316 0.514,-0.163 0.141,-0.05 c 0.111,0.316 0.302,0.613 0.454,0.899 0.107,0.202 0.205,0.518 0.38,0.678 0.027,0.046 0.058,0.087 0.095,0.125 v 0.037 l 0.252,0.164 0.436,0.346 0.356,0.403 L 0.777,0.372 0.708,0.946 0.673,1.226 0.907,1.54 1.07,1.918 1.434,1.564 1.639,1.146 1.779,0.701 1.786,0.28 C 2.058,0.269 2.329,0.204 2.605,0.21 2.664,0.211 2.722,0.213 2.78,0.213 l 0.014,0.399 0.033,0.004 0.482,0.292 0.356,0.427 z"
             style="fill:#231f20;fill-opacity:1;fill-rule:nonzero;stroke:none"
             id="path58217" />
        </g>
        <g
           id="g58219"
           transform="translate(81.6596,262.007)">
          <path
             d="M 0,0 C -0.083,0.118 -0.179,0.224 -0.273,0.331 -0.35,0.407 -0.415,0.496 -0.474,0.586 L -0.923,0.474 -1.349,0.871 -1.796,1.18 -2.266,0.921 -2.767,0.612 -2.649,0.036 -2.452,-0.48 -2.743,-0.881 c 0.243,-0.079 0.492,-0.135 0.742,-0.192 0.042,0.017 0.09,0.012 0.114,-0.026 0.087,-0.02 0.173,-0.04 0.259,-0.061 l 0.01,0.016 0.379,0.326 0.417,0.278 0.498,0.06 0.315,0.054 C 0.02,-0.28 0.031,-0.134 0,0"
             style="fill:#231f20;fill-opacity:1;fill-rule:nonzero;stroke:none"
             id="path58221" />
        </g>
        <g
           id="g58223"
           transform="translate(85.7178,257.767)">
          <path
             d="m 0,0 -0.356,0.436 0.013,0.079 c -0.032,0.022 -0.05,0.053 -0.057,0.091 -0.094,0.034 -0.184,0.077 -0.264,0.137 -0.01,0.008 -0.018,0.015 -0.028,0.022 0.001,0.002 0.002,0.005 0.003,0.007 0.004,0.014 0.006,0.028 0.009,0.042 0,0 -0.001,0 -0.001,0.001 -0.001,0.002 -0.003,0.01 -0.005,0.019 L -0.72,0.876 C -0.732,0.892 -0.737,0.907 -0.74,0.922 -0.743,0.923 -0.744,0.925 -0.746,0.926 -0.764,0.937 -0.774,0.955 -0.78,0.974 -0.928,1.006 -1.071,1.058 -1.218,1.091 -1.239,1.086 -1.258,1.084 -1.279,1.077 -1.309,1.068 -1.353,1.046 -1.395,1.016 -1.389,0.891 -1.397,0.734 -1.469,0.657 L -1.563,0.367 -1.886,-0.019 -2.303,-0.296 -2.751,-0.52 -3.252,-0.518 -3.333,-0.522 C -3.427,-0.564 -3.521,-0.608 -3.614,-0.652 -3.632,-0.66 -3.649,-0.661 -3.665,-0.66 -3.682,-0.668 -3.699,-0.677 -3.716,-0.686 -3.77,-0.781 -3.828,-0.875 -3.89,-0.964 c -0.138,-0.202 -0.283,-0.402 -0.43,-0.6 l 0.03,-0.015 0.206,-0.505 0.154,-0.582 0.608,0.06 0.29,-0.08 0.242,0.125 0.192,0.521 0.184,0.512 0.48,0.238 0.473,0.257 0.514,-0.187 0.565,-0.234 0.405,0.456 0.235,0.513 z"
             style="fill:#231f20;fill-opacity:1;fill-rule:nonzero;stroke:none"
             id="path58225" />
        </g>
      </g>
    </g>
  </g>
</svg>
