<?xml version="1.0" encoding="UTF-8" standalone="no"?>
<!-- Created with Inkscape (http://www.inkscape.org/) -->

<svg
   width="23.395042"
   height="24"
   viewBox="0 0 6.1899383 6.35"
   version="1.1"
   id="svg63656"
   inkscape:version="1.2.1 (9c6d41e4, 2022-07-14)"
   sodipodi:docname="rising-tide.svg"
   xmlns:inkscape="http://www.inkscape.org/namespaces/inkscape"
   xmlns:sodipodi="http://sodipodi.sourceforge.net/DTD/sodipodi-0.dtd"
   xmlns="http://www.w3.org/2000/svg"
   xmlns:svg="http://www.w3.org/2000/svg">
  <sodipodi:namedview
     id="namedview63658"
     pagecolor="#505050"
     bordercolor="#eeeeee"
     borderopacity="1"
     inkscape:showpageshadow="0"
     inkscape:pageopacity="0"
     inkscape:pagecheckerboard="0"
     inkscape:deskcolor="#505050"
     inkscape:document-units="mm"
     showgrid="false"
     inkscape:zoom="0.7046647"
     inkscape:cx="0"
     inkscape:cy="180.93712"
     inkscape:window-width="1390"
     inkscape:window-height="941"
     inkscape:window-x="0"
     inkscape:window-y="25"
     inkscape:window-maximized="0"
     inkscape:current-layer="layer1" />
  <defs
     id="defs63653">
    <clipPath
       clipPathUnits="userSpaceOnUse"
       id="clipPath58401">
      <path
         d="m 319.951,246.312 h 24.699 v 24.699 h -24.699 z"
         id="path58399" />
    </clipPath>
  </defs>
  <g
     inkscape:label="Layer 1"
     inkscape:groupmode="layer"
     id="layer1"
     transform="translate(-105.04157,-100.83131)">
    <g
       id="g58395"
       transform="matrix(0.28339377,0,0,-0.28339377,13.639758,177.31576)">
      <g
         id="g58397"
         clip-path="url(#clipPath58401)">
        <g
           id="g58403"
           transform="translate(334.052,252.481)">
          <path
             d="M 0,0 C 0.328,0.088 0.657,0.168 0.996,0.217 1.711,0.321 2.435,0.351 3.156,0.312 3.93,0.271 4.704,0.154 5.469,0.031 5.489,0.028 5.508,0.024 5.528,0.02 5.925,0.001 6.323,-0.008 6.725,0.006 6.73,0.01 6.735,0.013 6.741,0.017 6.793,0.051 6.861,0.114 6.865,0.152 6.874,0.175 6.868,0.195 6.839,0.203 5.901,0.463 4.833,0.617 3.827,0.663 3.204,0.833 2.538,0.915 1.915,1.026 c -0.001,0 -0.001,0 -0.002,0 C 1.906,1.02 1.9,1.014 1.891,1.01 1.528,0.82 1.102,0.756 0.696,0.81 0.615,0.805 0.534,0.802 0.454,0.796 0.397,0.798 0.339,0.801 0.282,0.803 0.08,0.84 -0.122,0.874 -0.326,0.899 -0.833,0.963 -1.342,1.012 -1.851,1.057 -2.21,1.088 -2.652,1.054 -2.99,1.184 -2.994,1.186 -2.996,1.188 -3,1.19 -3.632,1.259 -4.263,1.42 -4.868,1.578 -4.874,1.586 -4.885,1.593 -4.904,1.595 -4.921,1.597 -4.938,1.599 -4.956,1.601 -5.003,1.613 -5.05,1.625 -5.097,1.637 -5.142,1.635 -5.187,1.633 -5.232,1.631 -5.759,1.688 -6.287,1.735 -6.815,1.77 c 0.001,0.004 0.001,0.008 -0.004,0.009 -1.057,0.159 -2.17,0.133 -3.268,0.03 -0.494,-0.115 -0.956,-0.328 -0.513,-0.626 0.069,-0.047 0.143,-0.085 0.22,-0.12 0.105,-0.017 0.204,-0.034 0.277,-0.065 0.058,-0.025 0.109,-0.051 0.157,-0.076 0.076,-0.017 0.154,-0.029 0.232,-0.042 0.939,0.058 1.845,-0.121 2.757,-0.352 0.562,-0.142 1.297,-0.216 1.88,-0.464 1.648,-0.441 3.358,-0.408 5.021,-0.061 C -0.036,0.007 -0.017,0.005 0,0"
             style="fill:#231f20;fill-opacity:1;fill-rule:nonzero;stroke:none"
             id="path58405" />
        </g>
        <g
           id="g58407"
           transform="translate(327.868,252.271)">
          <path
             d="M 0,0 C -0.297,0.152 -0.714,0.27 -0.773,0.287 -1.091,0.375 -1.411,0.462 -1.736,0.525 -1.963,0.568 -2.189,0.597 -2.416,0.615 -2.529,0.605 -2.642,0.593 -2.755,0.584 -3.245,0.546 -3.735,0.508 -4.226,0.478 -4.239,0.466 -4.255,0.455 -4.268,0.443 -4.359,0.354 -4.559,0.163 -4.518,0.009 c 0.005,-0.015 0.02,-0.038 0.043,-0.065 -0.158,-0.085 -0.308,-0.188 -0.431,-0.319 -0.171,-0.183 -0.378,-0.486 -0.097,-0.662 0.159,-0.1 0.483,-0.079 0.665,-0.097 0.18,-0.018 0.361,-0.03 0.542,-0.037 0.012,-0.003 0.024,-0.007 0.037,-0.01 0.066,-0.012 0.131,-0.019 0.196,-0.023 0.537,0.053 1.081,0.154 1.6,0.226 0.227,0.031 0.455,0.067 0.683,0.105 0.007,-0.001 0.015,-0.002 0.023,-0.003 0.027,0.004 0.054,0.008 0.081,0.013 0.218,0.042 0.436,0.09 0.644,0.167 0.137,0.048 0.268,0.109 0.392,0.182 0.082,0.072 0.157,0.156 0.202,0.241 0.007,0.022 0.012,0.044 0.015,0.065 C 0.055,-0.137 0.03,-0.068 0,0"
             style="fill:#231f20;fill-opacity:1;fill-rule:nonzero;stroke:none"
             id="path58409" />
        </g>
        <g
           id="g58411"
           transform="translate(335.283,248.598)">
          <path
             d="m 0,0 c -0.056,0.009 -0.084,0.06 -0.084,0.111 -0.043,0.006 -0.085,0.011 -0.128,0.017 -0.343,0.015 -0.703,0.021 -1.035,0.121 -0.767,0.072 -1.534,0.088 -2.31,-0.05 -0.651,-0.115 -1.275,-0.332 -1.931,-0.421 -0.2,-0.027 -0.398,-0.041 -0.591,-0.101 -0.123,-0.038 -0.326,-0.163 -0.39,-0.146 0,0 0,0 0,0 0.01,-0.005 0.019,-0.008 0.028,-0.012 0.024,-0.01 0.039,-0.025 0.049,-0.042 0.657,-0.128 1.348,-0.196 2.014,-0.146 0.532,-0.034 1.065,-0.071 1.598,-0.098 0.956,0.197 1.864,0.564 2.804,0.764 C 0.016,-0.002 0.008,-0.001 0,0"
             style="fill:#231f20;fill-opacity:1;fill-rule:nonzero;stroke:none"
             id="path58413" />
        </g>
        <g
           id="g58415"
           transform="translate(339.559,248.027)">
          <path
             d="m 0,0 c -0.029,0.022 -0.057,0.041 -0.086,0.058 0.007,0 0.014,10e-4 0.02,10e-4 -0.023,0.009 -0.046,0.019 -0.07,0.028 C -0.259,0.155 -0.381,0.191 -0.511,0.221 -0.73,0.296 -0.953,0.364 -1.177,0.424 -1.451,0.541 -1.714,0.681 -2.019,0.732 -2.678,0.843 -3.384,0.68 -3.997,0.409 -4.232,0.368 -4.465,0.307 -4.701,0.219 -4.94,0.13 -5.18,0.043 -5.422,-0.038 -5.481,-0.049 -5.539,-0.06 -5.597,-0.07 c -0.029,-0.005 -0.068,-0.029 -0.11,-0.061 -0.109,-0.034 -0.218,-0.067 -0.327,-0.097 0.072,-0.001 0.144,-0.004 0.216,-0.004 -0.127,-0.135 -0.221,-0.302 -0.067,-0.287 0.74,0.067 1.48,0.139 2.219,0.215 0.284,-0.008 0.571,-0.029 0.868,-0.069 0.761,-0.101 1.508,-0.204 2.277,-0.165 C -0.398,-0.531 0.195,-0.149 0,0"
             style="fill:#231f20;fill-opacity:1;fill-rule:nonzero;stroke:none"
             id="path58417" />
        </g>
        <g
           id="g58419"
           transform="translate(341.349,248.496)">
          <path
             d="m 0,0 c -0.002,0.001 -0.004,0.001 -0.006,0.002 -0.139,0.05 -0.278,0.095 -0.417,0.142 -0.224,0.048 -0.45,0.091 -0.675,0.134 -0.008,0.028 -0.029,0.048 -0.07,0.055 -0.863,0.143 -1.672,0.52 -2.534,0.694 -0.065,0.013 -0.13,0.024 -0.195,0.035 -0.513,0.064 -1.028,0.112 -1.545,0.129 -0.153,0.006 -0.52,0.028 -0.911,0.017 -0.004,0.013 -0.014,0.023 -0.04,0.024 -0.45,0.024 -0.855,0 -1.293,-0.115 C -7.77,1.095 -8.135,0.819 -7.96,0.732 -7.733,0.62 -7.394,0.634 -7.142,0.625 c 0.109,-0.004 0.216,-0.007 0.32,-0.005 0.346,-0.022 0.691,-0.044 1.037,-0.056 0.053,-0.001 0.123,0 0.201,0 0.014,0.005 0.028,0.009 0.045,0.009 0.634,-0.015 1.267,-0.088 1.889,-0.211 0.627,-0.115 1.271,-0.31 1.866,-0.547 0.042,-0.017 0.084,-0.034 0.126,-0.051 0.082,-0.033 0.162,-0.068 0.241,-0.102 0.46,0.042 0.918,0.095 1.372,0.172 0,0.004 -0.001,0.007 0,0.01 0.001,0.007 0.002,0.014 0.003,0.022 -0.003,0.012 -0.003,0.026 0.001,0.039 l 0.011,0.047 c 0.006,0.022 0.018,0.037 0.032,0.047 C 0.001,-0.001 0.001,0 0,0"
             style="fill:#231f20;fill-opacity:1;fill-rule:nonzero;stroke:none"
             id="path58421" />
        </g>
        <g
           id="g58423"
           transform="translate(339.753,249.974)">
          <path
             d="M 0,0 C -0.164,0.059 -0.327,0.124 -0.493,0.176 -0.938,0.235 -1.384,0.284 -1.831,0.327 -2.901,0.373 -3.97,0.5 -5.04,0.543 -5.637,0.568 -6.232,0.536 -6.827,0.481 -7.288,0.439 -7.757,0.277 -8.221,0.313 -8.223,0.314 -8.224,0.315 -8.225,0.315 -8.788,0.244 -9.348,0.217 -9.931,0.2 c -0.908,-0.026 -1.71,-0.289 -2.471,-0.761 -0.096,-0.224 -0.124,-0.442 -0.043,-0.633 1.046,-0.251 2.108,-0.261 3.192,0.029 0.329,0.088 0.651,0.186 0.972,0.286 0.013,0.02 0.03,0.038 0.056,0.049 0.376,0.156 0.749,0.333 1.135,0.465 0.391,0.134 0.807,0.175 1.207,0.282 0.042,0.011 0.076,-0.001 0.101,-0.022 1.146,0.182 2.301,0.137 3.451,-0.016 0.737,-0.01 1.473,-0.018 2.202,-0.047 0.064,0.022 0.124,0.05 0.176,0.09 0.004,0.004 0.008,0.009 0.012,0.014 C 0.039,-0.043 0.019,-0.022 0,0"
             style="fill:#231f20;fill-opacity:1;fill-rule:nonzero;stroke:none"
             id="path58425" />
        </g>
        <g
           id="g58427"
           transform="translate(342.642,251.334)">
          <path
             d="M 0,0 C -0.369,0.078 -0.735,0.171 -1.103,0.256 -1.239,0.272 -1.376,0.29 -1.513,0.308 -1.874,0.354 -2.236,0.393 -2.599,0.428 -3.554,0.626 -4.54,0.736 -5.49,0.895 -5.615,0.916 -5.741,0.94 -5.868,0.963 -6.675,1.027 -7.451,1.046 -8.298,0.854 -8.467,0.816 -8.636,0.776 -8.804,0.736 -8.917,0.683 -9.03,0.629 -9.141,0.573 -9.192,0.505 -9.209,0.433 -9.203,0.362 -9.055,0.343 -8.908,0.332 -8.76,0.325 -8.375,0.09 -7.891,0.082 -7.442,0.083 -7.727,0.05 -8.012,0.015 -8.297,-0.011 c -0.298,-0.005 -0.601,-0.012 -0.9,-0.038 -0.116,0.003 -0.231,0.008 -0.346,0.019 -1.075,0.105 -2.064,0.486 -3.165,0.425 -0.045,-0.003 -0.074,0.016 -0.093,0.044 -0.165,-0.002 -0.33,-0.007 -0.494,-0.02 -0.198,-0.026 -0.395,-0.051 -0.592,-0.074 -0.271,-0.049 -0.538,-0.118 -0.802,-0.213 -0.018,-0.006 -0.034,-0.008 -0.049,-0.007 -0.148,-0.046 -0.298,-0.085 -0.449,-0.122 -0.45,-0.178 -0.986,-0.229 -1.476,-0.285 -0.518,-0.09 -1.046,-0.176 -1.569,-0.222 0.042,-0.075 0.097,-0.147 0.171,-0.214 0.348,-0.312 1.011,-0.43 1.448,-0.544 0.117,-0.03 0.234,-0.057 0.352,-0.085 0.278,-0.113 0.572,-0.18 0.872,-0.228 0.022,-0.03 0.041,-0.059 0.061,-0.088 0.142,0.091 0.285,0.177 0.433,0.248 0.657,0.317 1.349,0.47 2.076,0.491 0.579,0.017 1.134,0.068 1.688,0.143 0.013,0.004 0.025,0.006 0.038,0.005 0.199,0.027 0.398,0.058 0.598,0.092 0.133,-0.03 0.272,-0.029 0.413,-0.017 0.159,0.028 0.316,0.054 0.469,0.066 0.562,0.047 1.121,0.077 1.684,0.054 0.783,-0.031 1.564,-0.108 2.346,-0.165 0.185,0.025 0.367,0.062 0.544,0.122 0.036,0.012 0.101,0.059 0.174,0.121 0.82,0.03 1.641,0.012 2.46,0.031 1.312,-0.065 2.625,-0.11 3.933,-0.121 0.037,0 0.152,0.073 0.198,0.134 C 1.161,-0.269 0.584,-0.124 0,0"
             style="fill:#231f20;fill-opacity:1;fill-rule:nonzero;stroke:none"
             id="path58429" />
        </g>
        <g
           id="g58431"
           transform="translate(326.113,254.662)">
          <path
             d="M 0,0 C -0.003,0.049 -0.005,0.097 -0.008,0.146 -0.022,0.154 -0.033,0.16 -0.037,0.162 -0.068,0.18 -0.085,0.206 -0.091,0.233 -0.138,0.253 -0.184,0.274 -0.228,0.296 -0.221,0.309 -0.217,0.321 -0.214,0.332 -0.375,0.42 -0.527,0.522 -0.685,0.616 -1.119,0.77 -1.545,0.912 -2.007,0.987 -2.015,1 -2.033,1.007 -2.066,1.005 -2.078,1.004 -2.09,1.003 -2.102,1.002 -2.2,1.017 -2.298,1.031 -2.396,1.045 -2.351,1.026 -2.303,1.007 -2.255,0.987 -2.745,0.926 -3.176,0.732 -3.498,0.326 -3.528,0.289 -3.606,0.16 -3.583,0.101 c 0.129,-0.323 0.602,-0.301 0.902,-0.304 0.26,-10e-4 0.517,0.026 0.776,0.05 0.301,0.028 0.864,0.158 1.131,0.083 0.038,-0.012 0.097,0.003 0.162,0.034 0.017,-0.002 0.034,-0.004 0.051,-0.006 0.17,-0.016 0.34,-0.027 0.51,-0.039 C -0.045,-0.049 -0.03,-0.019 0,0"
             style="fill:#231f20;fill-opacity:1;fill-rule:nonzero;stroke:none"
             id="path58433" />
        </g>
        <g
           id="g58435"
           transform="translate(326.884,256.802)">
          <path
             d="m 0,0 c 0.001,0.001 0.003,0.003 0.004,0.004 -0.663,0.302 -1.615,0.677 -2.357,0.49 -0.096,0.021 -0.19,0.044 -0.286,0.062 -0.022,-0.504 -1.007,-0.754 -0.991,-1.209 1.019,-0.014 2.035,-0.034 3.034,0.16 0.047,-0.005 0.093,-0.012 0.139,-0.016 C -0.225,-0.531 0.159,-0.063 0,0"
             style="fill:#231f20;fill-opacity:1;fill-rule:nonzero;stroke:none"
             id="path58437" />
        </g>
        <g
           id="g58439"
           transform="translate(329.89,257.3)">
          <path
             d="M 0,0 C -0.027,0.294 -0.246,0.453 -0.498,0.576 -0.536,0.565 -0.577,0.563 -0.616,0.573 -1.23,0.735 -1.763,0.796 -2.385,0.854 -2.618,0.876 -2.881,0.909 -3.069,1.065 -3.413,1.351 -3.479,1.632 -4.007,1.746 -4.716,1.899 -5.434,1.883 -6.152,1.844 -6.376,1.782 -6.596,1.706 -6.763,1.613 -6.879,1.482 -6.978,1.34 -7.056,1.19 c 0.023,-0.092 0.095,-0.192 0.233,-0.301 0.252,-0.2 0.647,-0.162 0.913,-0.347 0.613,-0.068 1.207,-0.246 1.81,-0.388 0.535,-0.127 1.105,-0.255 1.624,-0.462 0.106,-0.024 0.237,-0.058 0.345,-0.112 0.348,-0.063 0.734,-0.061 1.062,-0.067 0.489,0.091 0.875,0.146 1.009,0.157 h 0.001 C -0.014,-0.225 0.01,-0.114 0,0"
             style="fill:#231f20;fill-opacity:1;fill-rule:nonzero;stroke:none"
             id="path58441" />
        </g>
        <g
           id="g58443"
           transform="translate(330.648,253.991)">
          <path
             d="m 0,0 c -0.084,0.034 -0.174,0.069 -0.259,0.114 -0.08,0.036 -0.158,0.074 -0.23,0.124 -0.033,0.017 -0.063,0.037 -0.09,0.061 -0.15,0.064 -0.285,0.142 -0.299,0.221 l 0.087,0.102 c 0.131,0.033 0.265,0.058 0.398,0.077 0.023,0.358 0.068,0.714 0.107,1.071 -0.028,0 -0.057,-0.002 -0.085,-0.003 0.009,0.055 0.007,0.103 -0.003,0.148 0.001,0.132 -0.028,0.258 -0.084,0.372 0.011,10e-4 0.023,0.002 0.035,0.002 C -0.548,2.424 -0.616,2.608 -0.637,2.797 -0.665,2.802 -0.692,2.805 -0.72,2.809 -0.738,2.775 -0.769,2.747 -0.817,2.743 -1.105,2.719 -1.398,2.673 -1.692,2.617 -1.71,2.599 -1.735,2.586 -1.768,2.584 -1.805,2.583 -1.844,2.581 -1.882,2.579 -2.207,2.51 -2.532,2.427 -2.852,2.34 -3.077,2.191 -3.462,2.152 -3.651,2.113 -3.655,2.112 -3.658,2.114 -3.662,2.113 -3.674,2.11 -3.687,2.106 -3.7,2.103 -4.046,2.005 -4.672,1.912 -4.892,1.621 -4.941,1.557 -4.955,1.502 -4.947,1.454 -4.924,1.441 -4.901,1.429 -4.878,1.415 -4.849,1.397 -4.833,1.37 -4.828,1.341 -4.61,1.217 -4.393,1.099 -4.136,1.02 c 0.25,-0.077 0.49,-0.146 0.723,-0.246 0.176,-0.042 0.355,-0.08 0.535,-0.113 0.017,0.033 0.048,0.056 0.098,0.051 0.349,-0.039 0.691,-0.075 1.031,-0.145 0.07,0.016 0.139,0.033 0.208,0.047 0.003,-0.001 0.007,-0.001 0.01,-0.003 C -1.512,0.604 -1.499,0.588 -1.487,0.578 -1.511,0.562 -1.533,0.543 -1.552,0.523 -1.536,0.519 -1.521,0.517 -1.505,0.512 -1.393,0.483 -1.399,0.326 -1.49,0.288 -0.999,0.16 -0.505,0.04 -0.005,-0.033 c 0.002,0.005 0.004,0.011 0.008,0.015 0,0.006 0.001,0.011 0.003,0.015 z"
             style="fill:#231f20;fill-opacity:1;fill-rule:nonzero;stroke:none"
             id="path58445" />
        </g>
        <g
           id="g58447"
           transform="translate(334.68,257.392)">
          <path
             d="M 0,0 C -0.396,0.018 -0.969,-0.477 -1.097,-0.905 -1.146,-0.942 -1.189,-0.995 -1.135,-1 c 0.006,-10e-4 0.012,-10e-4 0.017,-0.002 -0.003,-0.026 -0.006,-0.052 -0.005,-0.077 -0.001,-0.014 -0.002,-0.027 -0.003,-0.04 0.553,-0.026 1.114,0.195 1.652,0.285 0.491,0.082 0.992,0.118 1.489,0.083 0.851,-0.06 1.764,-0.466 2.64,-0.469 0,0 0,0 -0.001,0 C 4.62,-1.215 4.585,-1.211 4.55,-1.206 4.509,-0.919 4.335,-0.898 4.064,-0.649 3.932,-0.527 3.918,-0.384 3.753,-0.263 3.549,-0.113 3.289,-0.041 3.049,0.027 2.55,0.169 2.029,0.225 1.512,0.209 1.262,0.201 1.008,0.199 0.76,0.173 0.504,0.146 0.244,-0.011 0,0"
             style="fill:#231f20;fill-opacity:1;fill-rule:nonzero;stroke:none"
             id="path58449" />
        </g>
        <g
           id="g58451"
           transform="translate(331.819,258.683)">
          <path
             d="M 0,0 C -0.002,0.007 -0.004,0.014 -0.009,0.02 0.025,0.051 0.053,0.082 0.067,0.1 L 0.08,0.117 C 0.105,0.149 0.15,0.237 0.088,0.258 0.08,0.261 0.072,0.264 0.064,0.266 0.06,0.268 0.054,0.267 0.049,0.268 0.295,0.452 0.175,2.138 0.177,2.435 0.18,3.11 0.201,3.806 0.143,4.486 0.982,4.668 1.828,5.029 2.645,5.363 2.356,4.572 2.111,3.77 1.905,2.949 1.728,2.243 1.487,1.483 1.392,0.739 0.945,0.452 0.477,0.229 0,0 M -0.314,2.111 C -0.324,1.8 -0.486,0.723 -0.375,0.198 -0.654,0.29 -0.966,0.34 -1.229,0.416 -1.478,0.487 -1.716,0.585 -1.956,0.671 -2.125,1.534 -2.313,2.394 -2.523,3.248 -2.674,3.866 -2.809,4.527 -3.051,5.13 -2.972,5.112 -2.904,5.096 -2.852,5.081 -2.037,4.847 -1.22,4.622 -0.398,4.418 -0.35,4.37 -0.275,4.38 -0.196,4.423 -0.193,4.424 -0.19,4.424 -0.187,4.424 -0.275,3.658 -0.291,2.879 -0.314,2.111 m -0.784,8.42 c 0.019,0.079 0.064,0.144 0.123,0.193 0.05,0.081 0.129,0.14 0.228,0.133 0.03,-0.002 0.057,-0.013 0.083,-0.027 -0.006,-0.039 -0.011,-0.079 -0.024,-0.116 -0.023,-0.062 -0.092,-0.133 -0.048,-0.205 0.033,-0.054 0.102,-0.052 0.112,-0.128 0.004,-0.031 -0.01,-0.066 -0.014,-0.1 -0.074,-0.008 -0.148,-0.005 -0.226,0.012 -0.035,0.008 -0.06,0.039 -0.073,0.074 -0.017,10e-4 -0.035,0.002 -0.053,0.005 -0.082,0.014 -0.127,0.076 -0.108,0.159 M 10.52,-3.883 c -0.7,0.261 -1.507,0.272 -2.243,0.346 -0.375,0.038 -0.75,0.076 -1.125,0.113 0.013,0.018 0.027,0.036 0.039,0.055 0.7,0.02 1.399,0.066 2.09,0.117 0.057,0.005 0.222,0.156 0.132,0.155 C 8.8,-3.107 8.185,-3.027 7.573,-2.932 6.848,-2.928 6.129,-2.675 5.385,-2.548 4.5,-2.397 3.65,-2.514 2.783,-2.708 2.281,-2.821 1.798,-2.92 1.291,-2.791 1.097,-2.803 0.904,-2.819 0.712,-2.843 c 0.001,0.054 0,0.109 0.003,0.163 0.001,0.04 0.014,0.071 0.031,0.097 -0.002,0.023 -0.004,0.045 -0.006,0.067 0.137,0.076 0.256,0.183 0.342,0.331 0.186,0.323 -0.032,0.565 -0.295,0.753 0.075,0.084 0.147,0.167 0.213,0.248 0.391,0.484 0.367,0.674 0.056,1.09 0.013,0.017 0.024,0.035 0.033,0.054 0.231,0.085 0.475,0.177 0.659,0.341 0.016,0.015 0.263,0.283 0.113,0.298 -0.006,0.001 -0.012,0 -0.017,0 C 1.858,0.634 1.863,0.668 1.847,0.698 1.845,0.702 1.842,0.704 1.84,0.707 2.1,1.515 2.237,2.383 2.429,3.205 2.603,3.956 2.767,4.704 2.891,5.463 3.1,5.548 3.307,5.629 3.511,5.704 3.542,5.715 3.583,5.746 3.626,5.785 3.808,5.869 4.097,6.08 3.979,6.188 3.984,6.226 3.964,6.252 3.905,6.253 3.34,6.744 2.775,7.235 2.209,7.724 1.768,8.105 1.235,8.462 0.927,8.966 c 0.156,0.073 0.286,0.17 0.36,0.3 -0.167,0.271 -0.683,0.41 -1.088,0.475 0.003,0.002 0.006,0.004 0.009,0.007 0.118,0.105 0.332,0.401 0.314,0.612 0.012,0.082 0.007,0.161 -0.016,0.237 0.019,0.118 -0.027,0.233 -0.183,0.33 -0.035,0.022 -0.074,0.038 -0.113,0.052 -0.049,0.035 -0.104,0.068 -0.163,0.099 -0.216,0.11 -0.421,0.177 -0.65,0.079 -0.172,-0.054 -0.342,-0.19 -0.455,-0.297 -0.061,-0.057 -0.121,-0.131 -0.177,-0.209 0.009,-0.026 0.009,-0.056 -0.008,-0.087 -0.054,-0.098 -0.044,-0.239 -0.011,-0.358 0.001,-0.005 0.003,-0.011 0.005,-0.016 C -1.278,10.111 -1.283,10.026 -1.25,9.94 -1.252,9.918 -1.249,9.897 -1.236,9.878 -1.22,9.866 -1.204,9.853 -1.187,9.841 -1.176,9.832 -1.162,9.83 -1.149,9.826 -1.13,9.78 -1.103,9.738 -1.067,9.7 -1.076,9.7 -1.085,9.699 -1.094,9.7 -1.111,9.701 -1.126,9.706 -1.143,9.708 -1.387,9.646 -1.619,9.546 -1.829,9.402 -1.834,9.396 -1.838,9.39 -1.844,9.384 -1.889,9.288 -1.897,9.176 -1.906,9.05 -1.854,8.927 -1.754,8.846 -1.601,8.808 -1.505,8.77 -1.403,8.746 -1.301,8.729 -1.327,8.653 -1.346,8.576 -1.372,8.493 -1.52,8.391 -1.658,8.23 -1.571,8.169 -1.557,8.159 -1.543,8.151 -1.529,8.142 -1.556,7.989 -1.553,7.789 -1.634,7.689 -1.683,7.63 -1.742,7.51 -1.65,7.464 -1.613,7.446 -1.576,7.429 -1.539,7.411 -1.548,7.4 -1.557,7.389 -1.567,7.377 -1.659,7.257 -1.884,6.987 -1.863,6.818 -1.854,6.748 -1.806,6.685 -1.742,6.629 -1.814,6.58 -1.873,6.511 -1.868,6.438 -1.866,6.405 -1.863,6.372 -1.861,6.339 -1.859,6.322 -1.85,6.309 -1.838,6.299 -1.865,6.248 -1.892,6.194 -1.919,6.138 -2.017,6.167 -2.115,6.194 -2.212,6.226 -2.351,6.271 -2.641,6.039 -2.71,5.881 -3.158,6.004 -3.605,6.093 -4.033,6.107 -3.297,6.569 -2.546,7.146 -1.935,7.802 -1.942,7.806 -1.948,7.809 -1.954,7.813 -2.067,7.727 -2.18,7.642 -2.292,7.555 -2.314,7.539 -2.336,7.533 -2.358,7.533 -2.656,7.256 -2.973,6.999 -3.298,6.778 -3.597,6.574 -4.016,6.225 -4.411,6.202 -4.412,6.202 -4.413,6.201 -4.413,6.2 -4.5,6.144 -4.568,6.056 -4.6,5.98 -4.67,5.928 -4.721,5.862 -4.72,5.798 c 0,-0.016 10e-4,-0.031 0.008,-0.046 0.117,-0.24 0.658,-0.397 1.144,-0.509 0.084,-0.847 0.344,-1.686 0.536,-2.51 0.213,-0.912 0.402,-1.828 0.586,-2.746 0.022,-0.108 0.179,-0.062 0.321,0.034 0.05,-0.04 0.118,-0.067 0.183,-0.093 0.052,-0.021 0.107,-0.042 0.163,-0.062 -0.043,-0.069 -0.085,-0.138 -0.119,-0.212 -0.043,-0.177 -0.075,-0.359 -0.035,-0.515 0.059,-0.223 0.29,-0.469 0.458,-0.674 -0.179,-0.147 -0.287,-0.376 -0.187,-0.608 0.081,-0.187 0.241,-0.272 0.42,-0.314 -0.046,-0.624 -0.157,-1.243 -0.164,-1.868 0,-0.016 -0.004,-0.028 -0.01,-0.039 0.014,-0.011 0.029,-0.021 0.043,-0.032 0,-0.005 0.002,-0.01 0.002,-0.015 0.003,-0.004 0.006,-0.007 0.007,-0.011 0.035,-0.016 0.069,-0.031 0.104,-0.045 0.051,-0.022 0.11,-0.042 0.166,-0.065 0.372,-0.099 0.731,-0.18 1.098,-0.192 0.164,-0.091 0.422,-0.067 0.591,-0.072 0.36,-0.009 0.761,-0.023 1.13,0.022 0.162,-0.011 0.319,-0.002 0.455,0.044 0.066,0.023 0.181,0.1 0.19,0.179 0.009,0.084 -0.044,0.174 -0.121,0.256 C 2.213,-4.232 2.153,-4.17 2.064,-4.112 2.048,-4.102 2.03,-4.1 2.011,-4.102 1.967,-4.073 1.926,-4.05 1.888,-4.031 1.811,-3.982 1.709,-3.952 1.65,-3.934 1.557,-3.906 1.464,-3.894 1.37,-3.892 1.197,-3.855 1.026,-3.842 0.854,-3.903 0.849,-3.905 0.812,-3.931 0.824,-3.941 c 0.167,-0.022 0.344,-0.086 0.499,-0.154 0,0 0.001,-0.001 0.002,-0.001 C 1.337,-4.142 1.321,-4.187 1.292,-4.226 1.261,-4.228 1.229,-4.231 1.198,-4.231 1.121,-4.232 1.044,-4.229 0.967,-4.225 0.87,-4.22 0.776,-4.217 0.682,-4.22 c 0.003,0.053 0.002,0.108 -0.018,0.152 0.003,0.035 0.004,0.071 -0.002,0.104 0.006,0.042 0.014,0.083 0.017,0.125 0.003,0.025 0.003,0.052 0.003,0.079 0.002,0.031 0.004,0.063 0.005,0.094 0.034,-0.002 0.068,-0.006 0.102,-0.008 0.01,0.005 0.023,0.008 0.037,0.008 0.201,0 0.401,-10e-4 0.601,-10e-4 0.4,-0.098 0.767,-0.199 1.195,-0.164 0.113,0.009 0.735,0.124 1.205,0.122 C 3.841,-3.715 3.856,-3.719 3.87,-3.725 4.054,-3.799 4.116,-3.852 4.161,-3.908 4.057,-3.977 3.846,-3.973 3.761,-3.978 3.514,-3.991 3.271,-3.983 3.029,-3.991 2.939,-4.015 2.821,-4.059 2.764,-4.128 2.728,-4.173 2.727,-4.219 2.735,-4.27 2.79,-4.306 2.847,-4.342 2.904,-4.376 c 0.144,-0.083 0.294,-0.157 0.44,-0.236 0.002,-0.001 0.002,-0.003 0.004,-0.004 0.127,-0.039 0.253,-0.087 0.379,-0.131 0.555,-0.461 2.519,-0.569 2.95,-0.531 0.225,0.02 0.412,0.084 0.625,0.167 0.545,0.213 1.01,0.314 1.591,0.342 0.565,0.027 0.982,0.063 1.435,0.414 0.065,0.051 0.41,0.39 0.192,0.472"
             style="fill:#231f20;fill-opacity:1;fill-rule:nonzero;stroke:none"
             id="path58453" />
        </g>
      </g>
    </g>
  </g>
</svg>
