<?xml version="1.0" encoding="UTF-8" standalone="no"?>
<!-- Created with Inkscape (http://www.inkscape.org/) -->

<svg
   width="24.799208"
   height="24"
   viewBox="0 0 6.5614571 6.35"
   version="1.1"
   id="svg62102"
   inkscape:version="1.2.1 (9c6d41e4, 2022-07-14)"
   sodipodi:docname="shattered-memories.svg"
   xmlns:inkscape="http://www.inkscape.org/namespaces/inkscape"
   xmlns:sodipodi="http://sodipodi.sourceforge.net/DTD/sodipodi-0.dtd"
   xmlns="http://www.w3.org/2000/svg"
   xmlns:svg="http://www.w3.org/2000/svg">
  <sodipodi:namedview
     id="namedview62104"
     pagecolor="#505050"
     bordercolor="#eeeeee"
     borderopacity="1"
     inkscape:showpageshadow="0"
     inkscape:pageopacity="0"
     inkscape:pagecheckerboard="0"
     inkscape:deskcolor="#505050"
     inkscape:document-units="mm"
     showgrid="false"
     inkscape:zoom="0.7046647"
     inkscape:cx="167.45553"
     inkscape:cy="136.94456"
     inkscape:window-width="1390"
     inkscape:window-height="941"
     inkscape:window-x="0"
     inkscape:window-y="25"
     inkscape:window-maximized="0"
     inkscape:current-layer="layer1" />
  <defs
     id="defs62099">
    <clipPath
       clipPathUnits="userSpaceOnUse"
       id="clipPath58237">
      <path
         d="m 76.951,206.73 h 24.699 v 24.7 H 76.951 Z"
         id="path58235" />
    </clipPath>
  </defs>
  <g
     inkscape:label="Layer 1"
     inkscape:groupmode="layer"
     id="layer1"
     transform="translate(-60.92534,-112.47102)">
    <g
       id="g58231"
       transform="matrix(0.29148817,0,0,-0.29148817,38.312912,179.41033)">
      <g
         id="g58233"
         clip-path="url(#clipPath58237)">
        <g
           id="g58239"
           transform="translate(87.6762,217.037)">
          <path
             d="M 0,0 C 0.003,-0.003 0.005,-0.005 0.008,-0.007 0.012,-0.011 0.017,-0.011 0.022,-0.014 0.09,0.077 0.163,0.164 0.235,0.25 0.333,0.368 0.428,0.508 0.528,0.641 0.326,0.917 0.004,1.145 -0.252,1.356 c -0.164,0.135 -0.34,0.314 -0.539,0.407 0.04,0.046 0.076,0.089 0.098,0.116 0.143,0.178 0.284,0.357 0.43,0.533 0.291,0.351 0.596,0.69 0.91,1.021 C 0.692,3.48 0.811,3.632 0.742,3.703 0.653,3.795 0.587,3.879 0.52,3.988 0.505,4.012 0.483,4.023 0.458,4.025 0.45,4.036 0.442,4.047 0.435,4.058 0.382,4.142 0.341,4.217 0.246,4.257 0.227,4.265 0.207,4.272 0.187,4.278 -0.099,3.921 -0.384,3.564 -0.687,3.222 -1.073,2.704 -1.439,2.172 -1.785,1.621 -1.819,1.566 -1.839,1.522 -1.848,1.487 -1.42,1.093 -0.936,0.76 -0.496,0.383 -0.328,0.285 -0.166,0.176 -0.004,0.065 -0.016,0.04 -0.018,0.017 0,0"
             style="fill:#231f20;fill-opacity:1;fill-rule:nonzero;stroke:none"
             id="path58241" />
        </g>
        <g
           id="g58243"
           transform="translate(91.3815,218.445)">
          <path
             d="m 0,0 c -0.073,0.061 -0.162,0.121 -0.23,0.195 -0.329,0.044 -0.628,-0.329 -0.886,-0.58 -0.232,-0.227 -0.463,-0.458 -0.674,-0.704 -0.055,-0.064 -0.115,-0.13 -0.168,-0.2 -0.069,0.04 -0.14,0.077 -0.207,0.119 -0.121,0.075 -0.223,0.158 -0.352,0.19 -0.099,-0.098 -0.19,-0.203 -0.247,-0.32 -0.071,-0.143 -0.164,-0.266 -0.272,-0.378 0.015,-0.034 0.045,-0.064 0.098,-0.109 0.091,-0.077 0.195,-0.141 0.294,-0.208 0.171,-0.115 0.338,-0.239 0.515,-0.344 0.006,-0.057 0.088,-0.057 0.148,-0.02 0.422,0.263 0.742,0.673 1.089,1.025 0.339,0.342 0.694,0.67 1.025,1.02 0.057,0.06 0.086,0.11 0.096,0.149 C 0.15,-0.111 0.071,-0.059 0,0"
             style="fill:#231f20;fill-opacity:1;fill-rule:nonzero;stroke:none"
             id="path58245" />
        </g>
        <g
           id="g58247"
           transform="translate(94.1227,218.903)">
          <path
             d="m 0,0 c 0.035,1.563 -0.64,3.199 -1.747,4.196 -1.392,1.252 -3.291,1.647 -5.035,1.234 0.132,-0.237 0.191,-0.503 0.241,-0.77 0.114,-0.039 0.256,-0.051 0.403,-0.049 0.096,0.001 0.19,0.002 0.284,0.002 -0.002,-0.084 0.001,-0.166 0.002,-0.239 0.005,-0.279 0.049,-0.556 0.092,-0.831 0.022,-0.139 0.251,-0.008 0.298,0.026 0.085,0.063 0.171,0.125 0.256,0.188 0.003,0.002 0.007,0.006 0.011,0.009 0.04,-0.027 0.128,0.048 0.144,0.077 0.035,0.062 0.053,0.127 0.063,0.193 0.025,0.051 0.033,0.096 0.01,0.12 0.002,0.117 -0.009,0.237 0.005,0.359 0.002,0.023 0.003,0.046 0.005,0.069 C -4.49,4.544 -4.024,4.452 -3.539,4.241 -1.963,3.554 -1.04,1.872 -0.86,0.193 -1.136,0.232 -1.412,0.265 -1.688,0.292 -1.728,0.29 -1.779,0.287 -1.819,0.3 -1.851,0.311 -1.877,0.328 -1.9,0.348 -1.927,0.347 -1.954,0.348 -1.98,0.346 -2.388,0.776 -2.832,1.178 -3.221,1.628 -3.664,2.142 -4.32,2.557 -4.69,3.113 -4.696,3.122 -4.7,3.131 -4.704,3.139 -4.822,3.235 -4.941,3.329 -5.057,3.426 -5.159,3.337 -5.269,3.258 -5.365,3.16 -5.436,3.088 -5.503,3.011 -5.57,2.934 c 0.142,-0.538 0.873,-1.083 1.247,-1.411 0.628,-0.549 1.234,-1.105 1.833,-1.688 0.005,-0.004 0.01,-0.007 0.015,-0.01 0.095,-0.14 0.251,-0.245 0.425,-0.278 0.645,-0.124 1.399,-0.047 2.06,-0.063 0.018,0.171 0.013,0.344 0.02,0.515 z"
             style="fill:#231f20;fill-opacity:1;fill-rule:nonzero;stroke:none"
             id="path58249" />
        </g>
        <g
           id="g58251"
           transform="translate(79.4368,218.34)">
          <path
             d="M 0,0 C 0.017,0.003 0.038,0.011 0.06,0.023 0.344,0.07 0.628,0.118 0.912,0.166 1.136,0.184 1.36,0.203 1.584,0.221 1.65,0.226 1.754,0.299 1.844,0.388 1.84,0.405 1.836,0.42 1.833,0.433 1.799,0.597 1.761,0.761 1.744,0.928 1.741,0.961 1.739,0.994 1.738,1.027 1.147,1.026 0.547,1.006 -0.039,0.929 -0.226,0.926 -0.413,0.913 -0.6,0.892 -0.685,1.229 -0.668,1.595 -0.646,1.943 -0.731,2.024 -0.849,2.082 -1.011,2.11 -1.026,2.112 -1.045,2.107 -1.067,2.1 c -0.109,0.024 -0.217,0.052 -0.324,0.085 -0.07,-0.954 -0.052,-1.908 0.076,-2.799 0.168,-1.167 0.612,-2.25 1.248,-3.221 0.036,0.026 0.072,0.054 0.105,0.088 0.01,0.011 0.018,0.023 0.028,0.033 0.03,0.008 0.065,0.023 0.111,0.056 0.262,0.184 0.473,0.381 0.679,0.626 0.041,0.048 0.159,0.202 0.087,0.271 -0.652,0.621 -1.217,1.59 -1.428,2.508 0,0.06 0.001,0.12 0.002,0.178 C -0.322,-0.05 -0.161,-0.025 0,0"
             style="fill:#231f20;fill-opacity:1;fill-rule:nonzero;stroke:none"
             id="path58253" />
        </g>
        <g
           id="g58255"
           transform="translate(78.9279,221.613)">
          <path
             d="M 0,0 C -0.002,-0.006 -0.007,-0.014 -0.013,-0.022 -0.066,-0.152 -0.107,-0.262 0,0"
             style="fill:#231f20;fill-opacity:1;fill-rule:nonzero;stroke:none"
             id="path58257" />
        </g>
        <g
           id="g58259"
           transform="translate(80.3842,224.404)">
          <path
             d="m 0,0 c -0.172,0.063 -0.36,-0.051 -0.525,-0.202 -0.241,-0.001 -0.483,-0.018 -0.726,-0.038 -0.202,-0.35 -0.39,-0.708 -0.591,-1.078 -0.114,-0.328 -0.216,-0.664 -0.308,-1.005 0.099,-0.194 0.189,-0.432 0.296,-0.66 v 0 c -0.004,-0.051 0.012,-0.074 0.037,-0.08 0.005,-0.008 0.009,-0.018 0.013,-0.026 0.002,0.008 0.005,0.017 0.007,0.025 0.094,0.009 0.275,0.175 0.328,0.251 0.025,0.061 0.053,0.127 0.069,0.16 0.162,0.323 0.329,0.646 0.513,0.958 0.297,0.506 0.74,0.969 0.923,1.532 C 0.055,-0.102 0.077,-0.028 0,0"
             style="fill:#231f20;fill-opacity:1;fill-rule:nonzero;stroke:none"
             id="path58261" />
        </g>
        <g
           id="g58263"
           transform="translate(84.0951,210.284)">
          <path
             d="M 0,0 C -0.847,0.529 -1.765,1.01 -2.553,1.625 -2.817,1.831 -3.964,2.877 -4.125,3.425 -4.128,3.431 -4.132,3.436 -4.136,3.442 -4.228,3.549 -4.308,3.664 -4.37,3.79 -4.389,3.787 -4.412,3.777 -4.44,3.759 -4.724,3.572 -4.907,3.371 -5.025,3.048 -5.055,2.967 -5.049,2.924 -5.021,2.906 -5.031,2.891 -5.039,2.876 -5.049,2.861 c 0.963,-1.528 2.384,-2.811 3.998,-3.71 0.239,0.096 0.46,0.183 0.625,0.366 0.001,0.001 0.002,0.001 0.004,0.001 C -0.335,-0.462 0.186,-0.116 0,0"
             style="fill:#231f20;fill-opacity:1;fill-rule:nonzero;stroke:none"
             id="path58265" />
        </g>
        <g
           id="g58267"
           transform="translate(93.7644,212.439)">
          <path
             d="M 0,0 C -0.166,0.216 -0.313,0.446 -0.4,0.701 -2.009,0.704 -3.688,0.824 -5.283,0.641 -5.381,0.63 -5.735,0.307 -5.615,0.262 -5.634,0.214 -5.655,0.166 -5.676,0.115 -5.703,0.047 -5.727,-0.018 -5.75,-0.082 c -0.135,-0.142 -0.229,-0.316 -0.069,-0.305 0.126,0.009 0.252,0.018 0.379,0.027 -0.028,-0.301 0.015,-0.618 0.021,-0.933 -0.079,-0.566 -0.122,-1.141 -0.152,-1.7 -0.368,0.03 -0.724,0.076 -1.054,0.131 -0.364,0.06 -0.735,0.137 -1.103,0.23 0.031,-0.269 0.058,-0.54 0.078,-0.81 0.811,-0.229 1.636,-0.364 2.447,-0.381 0.607,-0.013 1.205,0.025 1.79,0.111 -0.156,0.13 -0.309,0.264 -0.483,0.368 -0.131,0.078 -0.255,0.136 -0.36,0.25 -0.02,0.021 -0.038,0.046 -0.056,0.073 -0.096,-0.004 -0.192,-0.004 -0.288,-0.005 0.049,0.348 10e-4,0.718 -0.003,1.064 -0.005,0.324 -0.009,0.649 -0.013,0.974 -0.002,0.138 0.053,0.455 0.044,0.692 1.431,0.042 2.861,0.085 4.292,0.13 C -0.211,-0.164 -0.097,-0.09 0,0"
             style="fill:#231f20;fill-opacity:1;fill-rule:nonzero;stroke:none"
             id="path58269" />
        </g>
        <g
           id="g58271"
           transform="translate(85.1166,208.191)">
          <path
             d="M 0,0 C 0.014,0.05 0.044,0.081 0.079,0.101 0.064,0.248 0.052,0.397 0.035,0.543 -0.178,0.604 -0.389,0.669 -0.597,0.743 -0.747,0.701 -0.872,0.631 -1.027,0.581 -1.192,0.529 -1.356,0.468 -1.521,0.409 -1.052,0.174 -0.568,-0.027 -0.078,-0.195 -0.048,-0.131 -0.02,-0.068 0,0"
             style="fill:#231f20;fill-opacity:1;fill-rule:nonzero;stroke:none"
             id="path58273" />
        </g>
        <g
           id="g58275"
           transform="translate(96.4803,224.92)">
          <path
             d="m 0,0 c 0.018,0.089 0.035,0.179 0.053,0.268 0.007,0.036 0,0.101 -0.05,0.107 -0.993,0.121 -2.13,0.002 -3.091,0.242 -0.129,0.032 -0.306,-0.122 -0.372,-0.211 -0.17,-0.23 -0.319,-0.426 -0.365,-0.711 -0.021,-0.131 0.147,-0.023 0.219,0.037 0.027,-0.013 0.054,-0.025 0.081,-0.035 -0.018,-0.047 -0.013,-0.081 0.038,-0.085 0.652,-0.06 1.383,-0.15 2.082,-0.138 -0.426,-0.301 -0.85,-0.605 -1.27,-0.915 -0.076,-0.056 -0.303,-0.23 -0.252,-0.35 0,-0.001 10e-4,-0.001 10e-4,-0.001 0.06,-0.029 0.12,-0.059 0.178,-0.094 0.006,0.002 0.012,0.003 0.018,0.006 0.034,-0.028 0.067,-0.056 0.1,-0.084 0.046,-0.032 0.089,-0.066 0.132,-0.101 0.54,0.395 1.108,0.745 1.67,1.107 0.107,-0.765 -0.098,-1.671 -0.118,-2.411 -0.015,-0.55 0.034,-1.107 -0.009,-1.655 -0.032,-0.407 -0.13,-0.769 -0.112,-1.178 0.075,-1.721 -0.555,-3.526 -0.387,-5.267 -0.254,0.228 -0.509,0.454 -0.77,0.674 -0.288,0.242 -0.613,0.598 -0.98,0.754 0.284,0.282 0.515,0.609 0.64,0.957 0.315,0.46 0.517,0.975 0.62,1.516 -0.004,0.004 -0.008,0.006 -0.012,0.01 -0.031,0.03 -0.05,0.057 -0.068,0.089 -0.208,0.023 -0.418,0.026 -0.624,0.064 -0.09,-0.069 -0.166,-0.149 -0.183,-0.213 -0.43,-1.642 -1.545,-2.818 -3.299,-2.878 -0.122,-0.005 -0.24,-0.002 -0.356,0.002 0.004,0.017 0.003,0.034 0,0.05 0.006,0.078 0.011,0.185 -0.003,0.284 0.096,0.264 0.119,0.559 0.105,0.835 0,0.003 -0.002,0.004 -0.002,0.007 -0.189,-0.023 -0.377,-0.05 -0.566,-0.059 -0.093,-0.085 -0.169,-0.197 -0.186,-0.283 -0.038,-0.184 -0.13,-0.422 -0.145,-0.636 -0.011,-0.037 -0.021,-0.074 -0.032,-0.111 -0.826,0.155 -1.57,0.486 -2.392,0.855 -0.109,0.049 -0.391,-0.222 -0.34,-0.332 0.022,-0.048 0.048,-0.093 0.078,-0.137 -0.02,-0.039 -0.043,-0.076 -0.069,-0.111 0.008,-0.073 0.03,-0.147 0.037,-0.217 0.002,-0.008 10e-4,-0.017 0.002,-0.025 0.434,-0.278 0.913,-0.504 1.427,-0.668 0.19,-0.06 0.391,-0.122 0.599,-0.18 0.005,10e-4 0.01,10e-4 0.015,10e-4 0.005,-0.002 0.01,-0.003 0.016,-0.004 0.092,-0.016 0.184,-0.025 0.277,-0.028 0.572,-0.05 1.151,-0.032 1.719,0.06 0.113,0.009 0.227,0.02 0.341,0.038 0.024,0.004 0.047,0.009 0.07,0.013 0.322,-0.021 0.681,0.089 1.024,0.259 0.213,0.075 0.438,0.186 0.66,0.327 0.231,-0.303 0.587,-0.529 0.862,-0.782 0.143,-0.13 0.275,-0.272 0.405,-0.416 0.003,-0.015 0.008,-0.029 0.018,-0.041 0.048,-0.058 0.101,-0.108 0.155,-0.155 0.068,-0.077 0.137,-0.154 0.207,-0.23 0.088,-0.064 0.17,-0.138 0.251,-0.217 0.053,-0.051 0.105,-0.105 0.159,-0.158 0.043,-0.028 0.088,-0.054 0.13,-0.085 0.242,0.008 0.48,0.019 0.713,0.036 0.027,10e-4 0.083,0.037 0.134,0.08 0.002,0.054 0.008,0.109 0.016,0.164 -0.001,0 -0.002,0 -0.002,0 0.001,10e-4 0.001,0.003 0.002,0.004 0.025,0.169 0.068,0.333 0.099,0.444 0.002,0.009 0.006,0.015 0.01,0.022 -0.006,0.001 -0.011,0.001 -0.016,0.002 0.186,1.873 0.101,3.576 0.366,5.843 -0.011,0.081 0.003,0.169 0.03,0.256 0.001,0.011 0.002,0.02 0.004,0.031 0.239,1.881 0.167,3.808 0.368,5.695 C 0.064,-0.025 0.031,-0.008 0,0"
             style="fill:#231f20;fill-opacity:1;fill-rule:nonzero;stroke:none"
             id="path58277" />
        </g>
        <g
           id="g58279"
           transform="translate(87.7111,212.712)">
          <path
             d="m 0,0 c -1.366,0.037 -2.729,0.06 -4.093,0.123 0.173,0.209 0.307,0.456 0.46,0.675 0.17,0.244 0.362,0.451 0.517,0.686 -0.008,0.02 -0.018,0.04 -0.023,0.06 C -3.144,1.55 -3.15,1.553 -3.154,1.559 -3.187,1.607 -3.179,1.641 -3.2,1.686 -3.213,1.712 -3.225,1.732 -3.237,1.75 -3.295,1.785 -3.359,1.81 -3.421,1.822 -3.765,1.525 -4.081,1.199 -4.384,0.859 -4.437,0.799 -4.495,0.737 -4.554,0.673 c 0.102,1.828 -0.291,3.637 -0.333,5.459 -0.043,1.871 0.066,3.795 -0.138,5.657 -0.14,-0.045 -0.278,-0.095 -0.418,-0.141 -0.063,-0.021 -0.158,-0.044 -0.249,-0.077 -0.248,-0.303 -0.205,-0.779 -0.194,-1.243 0.02,-0.783 0.039,-1.566 0.06,-2.348 0.018,-0.668 -0.076,-1.461 0.143,-2.104 0.007,-0.154 0.017,-0.307 0.026,-0.46 0.008,0.002 0.016,0.004 0.024,0.008 0.001,-1.01 0.062,-2.023 0.107,-3.031 0.024,-0.538 0.048,-1.076 0.077,-1.614 0.022,-0.398 -0.024,-0.892 0.159,-1.257 0.016,-0.031 0.088,-0.012 0.106,-0.005 0.003,0.001 0.006,0.002 0.009,0.003 -0.025,-0.057 -0.022,-0.101 0.032,-0.112 1.529,-0.318 3.154,-0.316 4.735,-0.254 0.026,0.017 0.055,0.033 0.09,0.05 0.068,0.034 0.031,-0.001 0.056,0.04 0.027,0.047 0.044,0.111 0.066,0.161 0.04,0.093 0.079,0.188 0.124,0.279 -0.005,0 -0.011,0.001 -0.016,0.001 C 0.059,-0.18 0.167,-0.004 0,0"
             style="fill:#231f20;fill-opacity:1;fill-rule:nonzero;stroke:none"
             id="path58281" />
        </g>
        <g
           id="g58283"
           transform="translate(91.3234,225.8)">
          <path
             d="m 0,0 c -0.53,0.007 -1.06,-0.004 -1.589,-0.024 -0.082,0.327 -0.177,0.625 -0.204,0.97 -0.014,0.185 0.002,0.492 -0.097,0.688 -0.029,0.368 -0.054,0.734 -0.054,1.105 0.162,0.097 0.305,0.243 0.432,0.466 0.008,-10e-4 0.016,-10e-4 0.024,-10e-4 0.008,0.011 0.017,0.022 0.024,0.034 0.073,0.114 0.09,0.164 0.193,0.266 0.065,0.065 0.116,0.136 0.158,0.211 10e-4,0 10e-4,0 10e-4,0.001 0.005,0.008 0.009,0.017 0.013,0.026 C -1.121,3.769 -1.14,3.8 -1.157,3.832 -1.589,3.854 -2.026,3.852 -2.465,3.822 -3.992,3.809 -5.553,3.514 -6.923,2.844 -6.927,2.842 -6.932,2.838 -6.938,2.832 -7.38,2.676 -7.806,2.491 -8.212,2.276 -8.233,2.269 -8.255,2.257 -8.277,2.242 -8.316,2.22 -8.357,2.2 -8.396,2.178 -8.387,2.171 -8.379,2.162 -8.369,2.155 -8.399,2.116 -8.418,2.077 -8.407,2.05 -8.395,2.018 -8.392,1.988 -8.389,1.958 -8.41,1.919 -8.419,1.882 -8.404,1.855 -8.391,1.831 -8.376,1.805 -8.359,1.781 -8.378,1.717 -8.393,1.653 -8.403,1.589 -8.41,1.57 -8.412,1.551 -8.411,1.533 -8.424,1.41 -8.421,1.281 -8.402,1.13 c 0.014,-0.11 0.178,-0.038 0.227,-0.013 1.491,0.754 3.092,1.232 4.76,1.378 0.062,0.005 0.121,0.009 0.179,0.013 v 10e-4 c 0.008,-10e-4 0.016,0 0.023,-10e-4 0.008,-10e-4 0.015,-0.003 0.024,-0.003 0.065,0 0.129,0 0.193,-10e-4 0.026,10e-4 0.057,0.012 0.089,0.029 0.022,0.002 0.043,0.006 0.064,0.009 0.021,-0.284 0.049,-0.566 0.077,-0.847 0.015,-0.021 0.027,-0.046 0.033,-0.078 0.022,-0.133 0.039,-0.257 0.057,-0.387 0,-0.002 0.001,-0.003 0.001,-0.004 0,-0.002 10e-4,-0.003 10e-4,-0.004 0.042,-0.165 0.068,-0.32 0.061,-0.535 0,-0.006 -0.003,-0.011 -0.004,-0.017 0.006,-0.078 0.011,-0.156 0.019,-0.233 0.026,-0.176 0.058,-0.353 0.094,-0.533 -0.126,-0.005 -0.251,-0.014 -0.376,-0.026 -0.002,0.011 -0.004,0.022 -0.007,0.032 -0.22,-0.013 -0.44,-0.025 -0.661,-0.04 -1.172,0.002 -2.339,-0.052 -3.504,-0.16 -0.4,-0.016 -0.8,-0.034 -1.2,-0.054 -0.108,-0.005 -0.309,-0.194 -0.378,-0.334 0.048,-0.048 0.095,-0.097 0.139,-0.15 0.007,0.001 0.013,0.001 0.02,0.001 -10e-4,-0.013 0.002,-0.022 0.005,-0.03 0.004,-0.005 0.007,-0.011 0.011,-0.016 0.007,-0.007 0.014,-0.013 0.027,-0.015 0.057,-0.106 0.139,-0.203 0.232,-0.294 0.177,-0.374 0.515,-0.603 0.829,-0.866 0.165,-0.137 0.326,-0.278 0.488,-0.418 0.117,-0.171 0.266,-0.32 0.425,-0.458 C -6.461,-2.93 -6.468,-2.935 -6.475,-2.941 -6.664,-3.206 -6.853,-3.471 -7.06,-3.723 -7.068,-3.732 -7.077,-3.741 -7.086,-3.748 -7.093,-3.757 -7.1,-3.766 -7.107,-3.775 -7.148,-3.831 -7.143,-3.862 -7.119,-3.869 -7.236,-4.077 -7.354,-4.285 -7.472,-4.493 -7.522,-4.583 -7.486,-4.618 -7.43,-4.61 -7.58,-5 -7.709,-5.362 -7.752,-5.809 c -0.004,-0.036 0.009,-0.049 0.027,-0.052 -0.029,-0.162 -0.053,-0.325 -0.066,-0.491 -0.148,-1.957 0.832,-3.528 2.344,-4.428 0.106,0.306 0.282,0.574 0.47,0.835 -0.97,0.547 -1.692,1.481 -1.98,2.567 0.207,0.028 0.415,0.055 0.623,0.073 0.051,-0.001 0.102,-0.001 0.153,-0.002 0.02,0 0.042,0.006 0.066,0.015 0.042,0.003 0.084,0.006 0.126,0.007 0.048,0.05 0.082,0.103 0.059,0.128 0.084,0.085 0.152,0.187 0.166,0.261 0.03,0.066 0.045,0.141 -0.029,0.153 -0.218,0.035 -0.447,0.02 -0.668,0.03 -0.172,0.008 -0.333,0.032 -0.493,0.011 0.005,0.073 0.013,0.145 0.027,0.216 -0.05,0.26 0.113,0.86 0.138,1.072 0.044,0.387 0.135,0.722 0.272,1.028 0.29,0.434 0.716,0.757 1.171,1.097 0.386,0.288 0.545,0.447 0.195,0.846 -0.023,0.026 -0.055,0.029 -0.091,0.022 -0.019,0.025 -0.038,0.05 -0.057,0.075 -0.033,0.043 -0.061,0.091 -0.09,0.139 -0.148,-0.078 -0.291,-0.163 -0.433,-0.253 -0.028,0.027 -0.058,0.053 -0.088,0.08 -0.237,0.324 -0.497,0.587 -0.822,0.865 -0.157,0.135 -0.295,0.285 -0.44,0.426 2.189,0.136 4.38,0.182 6.574,0.133 0.095,-0.003 0.251,0.124 0.347,0.25 0.022,0.052 0.049,0.1 0.078,0.147 0.003,0.01 0.007,0.021 0.007,0.03 0.008,0.01 0.015,0.02 0.022,0.03 0.016,0.018 0.034,0.036 0.05,0.055 0.008,0.01 0.015,0.02 0.022,0.03 0.009,0.016 0.017,0.033 0.025,0.048 0.031,0.056 0.062,0.111 0.094,0.165 -0.005,0 -0.01,0 -0.016,0 C 0.106,-0.095 0.125,-0.002 0,0"
             style="fill:#231f20;fill-opacity:1;fill-rule:nonzero;stroke:none"
             id="path58285" />
        </g>
        <g
           id="g58287"
           transform="translate(82.4023,227.623)">
          <path
             d="M 0,0 C 0.012,0.012 0.023,0.025 0.04,0.034 0.029,0.028 0.032,0.031 0.043,0.037 0.025,0.044 0.007,0.053 -0.011,0.068 -0.013,0.069 -0.014,0.07 -0.015,0.071 c -0.001,0.001 0,0.002 0,0.002 -0.03,0.079 -0.063,0.184 -0.121,0.246 C -0.141,0.324 -0.149,0.325 -0.155,0.328 -0.183,0.365 -0.211,0.401 -0.243,0.435 -0.676,0.239 -1.086,0.001 -1.458,-0.292 -1.496,-0.313 -1.536,-0.331 -1.574,-0.351 -1.89,-0.6 -2.166,-0.894 -2.469,-1.162 -2.817,-1.469 -3.106,-1.79 -3.373,-2.121 -3.365,-2.122 -3.357,-2.123 -3.348,-2.123 -3.367,-2.137 -3.385,-2.152 -3.401,-2.169 -3.415,-2.184 -3.427,-2.2 -3.438,-2.216 -3.442,-2.221 -3.444,-2.223 -3.448,-2.227 -3.467,-2.24 -3.486,-2.253 -3.503,-2.269 -3.523,-2.287 -3.6,-2.374 -3.54,-2.394 c 0.082,-0.026 0.162,-0.029 0.246,-0.028 0,-0.023 0.012,-0.043 0.041,-0.055 0.537,-0.216 0.781,-0.044 1.161,0.332 0.57,0.564 1.208,1.026 1.913,1.407 0.116,0.062 0.33,0.249 0.302,0.406 C 0.087,-0.121 0.096,-0.145 0,0"
             style="fill:#231f20;fill-opacity:1;fill-rule:nonzero;stroke:none"
             id="path58289" />
        </g>
        <g
           id="g58291"
           transform="translate(99.1948,223.973)">
          <path
             d="M 0,0 C -0.047,0.109 -0.086,0.221 -0.113,0.338 -0.114,0.336 -0.115,0.336 -0.117,0.334 -0.149,0.399 -0.179,0.465 -0.213,0.529 -1.891,3.672 -4.789,5.293 -7.938,5.501 -7.942,5.476 -7.945,5.451 -7.952,5.427 -8.004,5.249 -8.137,5.109 -8.196,4.929 -8.202,4.911 -8.208,4.893 -8.215,4.876 -8.203,4.875 -8.191,4.874 -8.179,4.874 -8.251,4.771 -8.312,4.659 -8.365,4.527 -8.397,4.446 -8.393,4.352 -8.284,4.362 c 1.618,0.149 3.24,-0.255 4.573,-1.193 1.305,-0.918 2.203,-2.355 3.172,-3.597 0.117,-0.149 0.595,0.237 0.53,0.421 C -0.006,-0.005 -0.003,-0.002 0,0"
             style="fill:#231f20;fill-opacity:1;fill-rule:nonzero;stroke:none"
             id="path58293" />
        </g>
        <g
           id="g58295"
           transform="translate(100.086,220.637)">
          <path
             d="m 0,0 c -0.002,0.015 -0.004,0.031 -0.005,0.046 -0.041,0.174 -0.091,0.347 -0.13,0.509 -0.004,0.015 -0.011,0.023 -0.021,0.028 -0.013,0.139 -0.031,0.28 -0.052,0.421 0.006,0.008 0.012,0.016 0.015,0.023 0.005,0.02 0.009,0.038 0.012,0.056 -0.007,0.028 -0.013,0.055 -0.02,0.082 -0.075,0.208 -0.16,0.414 -0.237,0.621 -0.147,-0.173 -0.289,-0.35 -0.42,-0.535 -0.056,-0.116 -0.097,-0.235 -0.125,-0.358 0.134,-0.504 0.085,-1.097 0.031,-1.587 0.028,-0.237 0.052,-0.472 0.053,-0.7 -0.81,0.142 -1.65,0.305 -2.446,0.275 -0.084,-0.151 -0.252,-0.45 -0.235,-0.567 0.845,-0.174 1.742,-0.384 2.608,-0.434 -0.107,-0.568 -0.301,-1.093 -0.437,-1.67 -0.072,-0.306 -0.095,-0.57 0.148,-0.704 0.039,-0.141 0.097,-0.274 0.194,-0.396 0.03,-0.038 0.057,-0.074 0.085,-0.11 0.094,0.155 0.185,0.311 0.272,0.471 0.131,0.501 0.262,1.002 0.414,1.498 0.045,0.363 0.092,0.706 0.182,1.074 0.006,0.027 0.01,0.054 0.016,0.081 0.012,0.084 0.025,0.168 0.038,0.252 0.024,0.24 0.023,0.483 0.035,0.725 0.007,0.007 0.013,0.013 0.014,0.017 0.002,0.004 0.002,0.008 0.004,0.012 C -0.034,-0.581 -0.029,-0.29 0,0"
             style="fill:#231f20;fill-opacity:1;fill-rule:nonzero;stroke:none"
             id="path58297" />
        </g>
        <g
           id="g58299"
           transform="translate(98.0187,212.605)">
          <path
             d="M 0,0 C -0.045,0.084 -0.105,0.187 -0.149,0.294 -0.298,0.272 -0.527,0.022 -0.557,-0.051 -0.572,-0.088 -0.588,-0.123 -0.604,-0.159 -0.612,-0.166 -0.619,-0.172 -0.622,-0.176 -1.263,-0.978 -2.064,-1.577 -2.931,-2.114 -3.79,-2.645 -4.69,-3.251 -5.691,-3.457 -5.76,-3.471 -5.86,-3.554 -5.944,-3.649 c -0.254,-0.073 -0.503,-0.143 -0.745,-0.212 -0.026,-0.007 -0.102,-0.077 -0.155,-0.144 -0.127,-0.026 -0.255,-0.05 -0.384,-0.068 0.043,-0.12 0.094,-0.233 0.219,-0.317 0.162,-0.11 0.325,-0.2 0.438,-0.353 2.737,0.539 5.151,2.118 6.817,4.313 C 0.161,-0.288 0.078,-0.146 0,0"
             style="fill:#231f20;fill-opacity:1;fill-rule:nonzero;stroke:none"
             id="path58301" />
        </g>
        <g
           id="g58303"
           transform="translate(100.05,214.567)">
          <path
             d="M 0,0 C -0.062,0.063 -0.129,0.122 -0.194,0.182 -0.296,0.227 -0.395,0.276 -0.485,0.338 -0.588,0.28 -0.688,0.201 -0.717,0.154 -0.729,0.133 -0.739,0.111 -0.75,0.09 c -0.001,0 -0.001,0 -0.002,0 -0.005,-0.011 -0.01,-0.021 -0.015,-0.032 -0.005,-0.01 -0.01,-0.02 -0.015,-0.03 -0.232,-0.495 -0.501,-0.963 -0.76,-1.443 -0.009,-0.017 -0.014,-0.034 -0.022,-0.051 0.139,-0.239 0.288,-0.47 0.428,-0.708 0.075,0.107 0.148,0.217 0.22,0.326 0.005,0.008 0.011,0.016 0.016,0.025 0.357,0.544 0.673,1.119 0.936,1.723 C 0.033,-0.096 0.031,-0.093 0.028,-0.089 0.008,-0.059 0,-0.028 0,0"
             style="fill:#231f20;fill-opacity:1;fill-rule:nonzero;stroke:none"
             id="path58305" />
        </g>
        <g
           id="g58307"
           transform="translate(77.8468,221.617)">
          <path
             d="m 0,0 c -0.099,-0.138 -0.189,-0.283 -0.271,-0.433 0.002,-0.067 0.016,-0.135 0.047,-0.201 0.078,-0.163 0.23,-0.281 0.41,-0.303 0.038,-0.005 0.076,0.001 0.113,0.013 0.038,-0.012 0.077,-0.021 0.116,-0.029 0.058,-0.011 0.181,0.084 0.207,0.164 C 0.375,-0.563 0.166,-0.292 0,0"
             style="fill:#231f20;fill-opacity:1;fill-rule:nonzero;stroke:none"
             id="path58309" />
        </g>
      </g>
    </g>
  </g>
</svg>
