<?xml version="1.0" encoding="UTF-8" standalone="no"?>
<!-- Created with Inkscape (http://www.inkscape.org/) -->

<svg
   width="25.390209"
   height="24"
   viewBox="0 0 6.7178262 6.35"
   version="1.1"
   id="svg63880"
   inkscape:version="1.2.1 (9c6d41e4, 2022-07-14)"
   sodipodi:docname="syzygy.svg"
   xmlns:inkscape="http://www.inkscape.org/namespaces/inkscape"
   xmlns:sodipodi="http://sodipodi.sourceforge.net/DTD/sodipodi-0.dtd"
   xmlns="http://www.w3.org/2000/svg"
   xmlns:svg="http://www.w3.org/2000/svg">
  <sodipodi:namedview
     id="namedview63882"
     pagecolor="#505050"
     bordercolor="#eeeeee"
     borderopacity="1"
     inkscape:showpageshadow="0"
     inkscape:pageopacity="0"
     inkscape:pagecheckerboard="0"
     inkscape:deskcolor="#505050"
     inkscape:document-units="mm"
     showgrid="false"
     inkscape:zoom="0.7046647"
     inkscape:cx="26.963178"
     inkscape:cy="260.40754"
     inkscape:window-width="1390"
     inkscape:window-height="941"
     inkscape:window-x="0"
     inkscape:window-y="25"
     inkscape:window-maximized="0"
     inkscape:current-layer="layer1" />
  <defs
     id="defs63877">
    <clipPath
       clipPathUnits="userSpaceOnUse"
       id="clipPath58025">
      <path
         d="m 319.951,206.73 h 24.699 v 24.7 h -24.699 z"
         id="path58023" />
    </clipPath>
  </defs>
  <g
     inkscape:label="Layer 1"
     inkscape:groupmode="layer"
     id="layer1"
     transform="translate(-98.019089,-79.804778)">
    <g
       id="g58019"
       transform="matrix(0.2966458,0,0,-0.2966458,2.678909,147.96894)">
      <g
         id="g58021"
         clip-path="url(#clipPath58025)">
        <g
           id="g58027"
           transform="translate(335.452,209.695)">
          <path
             d="m 0,0 c -1.492,-0.909 -3.046,-0.789 -4.664,-0.398 -1.528,0.37 -2.547,0.964 -3.423,2.354 -1.025,1.626 -1.157,3.322 -0.718,5.204 0.351,1.508 1.505,2.5 2.809,3.105 1.002,0.294 2.09,0.356 3.218,0.227 C -1.319,10.326 -0.617,10.225 0.88,8.884 2.018,7.865 2.389,6.134 2.445,4.638 2.52,2.615 1.674,1.02 0,0 M 1.284,9.264 C -0.196,10.727 -1.4,11.028 -3.012,11.082 -4.62,11.135 -6.349,10.981 -7.44,9.73 -7.451,9.717 -7.462,9.7 -7.452,9.687 -7.677,9.478 -7.915,9.277 -8.121,9.051 -8.358,8.793 -8.569,8.515 -8.75,8.22 -9.135,7.595 -9.383,6.901 -9.49,6.187 -9.74,4.517 -9.659,3.135 -8.791,1.679 c 0.849,-1.426 1.792,-2.184 3.347,-2.579 0.598,-0.152 1.193,-0.285 1.787,-0.352 -0.002,-0.014 -0.002,-0.027 -0.003,-0.041 0.177,0.002 0.353,-0.005 0.529,-0.025 0,0.009 -0.002,0.018 -0.003,0.026 0.635,-0.024 1.271,0.046 1.91,0.271 1.261,0.446 2.399,1.336 3.227,2.424 1.627,2.138 1.236,5.929 -0.719,7.861"
             style="fill:#231f20;fill-opacity:1;fill-rule:nonzero;stroke:none"
             id="path58029" />
        </g>
        <g
           id="g58031"
           transform="translate(338.642,223.846)">
          <path
             d="m 0,0 c -0.037,0.217 -0.085,0.437 -0.148,0.638 -0.063,0.202 -0.132,0.376 -0.116,0.583 -0.01,0.018 -0.018,0.037 -0.027,0.055 -0.154,0.953 -0.607,1.953 -1.233,2.598 -0.018,0.055 -0.043,0.109 -0.07,0.163 -0.018,0.01 -0.035,0.022 -0.051,0.038 -0.097,0.097 -0.195,0.195 -0.292,0.292 -0.132,0.068 -0.254,0.129 -0.328,0.181 -0.269,0.189 -0.503,0.424 -0.776,0.595 -0.071,0.04 -0.144,0.078 -0.217,0.115 -0.031,0.013 -0.061,0.028 -0.093,0.039 -0.06,0.011 -0.113,0.026 -0.172,0.048 -0.002,0.001 -0.005,0.002 -0.008,0.003 H -3.53 C -3.55,5.356 -3.57,5.363 -3.591,5.373 -3.638,5.393 -3.669,5.422 -3.69,5.454 -3.802,5.478 -3.915,5.5 -4.03,5.516 -4.289,5.628 -4.569,5.698 -4.863,5.735 -5.218,5.834 -5.581,5.912 -5.962,5.935 -5.971,5.936 -5.981,5.936 -5.991,5.937 -6.175,5.918 -6.361,5.914 -6.547,5.918 -6.611,5.913 -6.674,5.916 -6.735,5.924 c -0.002,0 -0.005,0 -0.008,0 -0.003,0 -0.005,0 -0.008,-0.001 C -6.75,5.921 -6.749,5.919 -6.748,5.917 -6.871,5.89 -6.994,5.863 -7.117,5.835 -7.436,5.828 -7.765,5.745 -8.067,5.678 -8.459,5.59 -8.858,5.49 -9.206,5.288 -9.283,5.266 -9.361,5.244 -9.438,5.221 -10.188,4.839 -10.86,4.343 -11.37,3.587 c -0.727,-1.077 -1.106,-2.468 -1.133,-3.856 -0.026,-1.318 0.51,-2.786 1.368,-3.987 0.137,0.185 0.29,0.358 0.451,0.524 -0.113,0.148 -0.223,0.298 -0.332,0.451 -1.203,1.689 -1.449,3.521 -0.727,5.319 0.584,1.453 1.687,2.209 2.989,2.754 0.177,0.12 0.407,0.184 0.599,0.228 0.241,0.054 0.5,0.095 0.751,0.089 0.091,0.028 0.182,0.05 0.277,0.062 0.046,0.007 0.09,0.002 0.133,-0.009 0.546,0.045 1.087,0.088 1.626,0.05 0.069,-0.019 0.139,-0.04 0.209,-0.062 0.033,0.015 0.073,0.022 0.121,0.017 1.905,-0.224 3.983,-2.053 4.134,-4.031 0.011,-0.017 0.021,-0.035 0.034,-0.048 0.066,-0.238 0.131,-0.476 0.158,-0.725 0.026,-0.102 0.045,-0.207 0.059,-0.312 0.08,-0.23 0.132,-0.465 0.099,-0.722 -0.005,-0.042 -0.02,-0.078 -0.038,-0.111 -0.007,-0.494 -0.083,-0.963 -0.18,-1.43 -0.126,-0.425 -0.302,-0.835 -0.51,-1.22 -0.213,-0.28 -0.443,-0.538 -0.694,-0.774 0.169,-0.118 0.265,-0.194 0.426,-0.334 0.287,0.323 0.545,0.675 0.78,1.051 0.045,0.131 0.091,0.262 0.137,0.393 0.387,0.77 0.565,1.612 0.579,2.488 0.002,0.071 -0.002,0.138 -0.005,0.206 C -0.025,-0.272 -0.007,-0.137 0,0"
             style="fill:#231f20;fill-opacity:1;fill-rule:nonzero;stroke:none"
             id="path58033" />
        </g>
        <g
           id="g58035"
           transform="translate(337.062,216.263)">
          <path
             d="M 0,0 C -0.202,0.585 -0.478,1.154 -0.876,1.629 -0.961,1.73 -1.151,1.857 -1.167,1.988 -1.233,2.034 -1.3,2.078 -1.372,2.116 -2.439,3.158 -4.216,3.654 -5.795,3.39 -6.521,3.386 -7.241,3.259 -7.91,2.972 -8.635,2.661 -9.367,2.117 -9.592,1.41 c -1.614,-2.208 -0.302,-6.076 2.015,-7.387 2.484,-1.406 5.805,-1.043 7.267,1.465 0.436,0.748 0.681,1.591 0.694,2.446 0.006,0.412 -0.042,0.825 -0.14,1.227 C 0.176,-0.561 0.096,-0.279 0,0"
             style="fill:#231f20;fill-opacity:1;fill-rule:nonzero;stroke:none"
             id="path58037" />
        </g>
        <g
           id="g58039"
           transform="translate(326.948,219.758)">
          <path
             d="m 0,0 c -1.274,0.199 -2.634,0.101 -3.973,-0.005 -0.334,-0.013 -0.668,-0.036 -1.003,-0.061 -0.192,-0.005 -0.383,-0.019 -0.572,-0.047 -0.002,-0.008 -0.004,-0.017 -0.006,-0.026 0.184,-0.025 0.424,-0.119 0.584,-0.134 0.242,-0.022 0.49,-0.014 0.733,-0.028 0.232,-0.013 0.463,-0.028 0.695,-0.044 0.182,0.005 0.364,0.012 0.546,0.025 10e-4,0 10e-4,0 0.002,0 0.012,0.001 0.025,0.002 0.038,0.003 0.108,0.008 0.216,0.016 0.324,0.029 0.809,0.057 1.62,0.027 2.433,0.009 C -0.098,-0.222 0.117,-0.018 0,0"
             style="fill:#231f20;fill-opacity:1;fill-rule:nonzero;stroke:none"
             id="path58041" />
        </g>
        <g
           id="g58043"
           transform="translate(325.816,220.885)">
          <path
             d="M 0,0 C -0.091,0.047 -0.176,0.101 -0.263,0.154 -0.348,0.18 -0.435,0.203 -0.513,0.231 -0.595,0.26 -0.676,0.286 -0.757,0.314 -1.066,0.386 -1.381,0.447 -1.697,0.502 -1.882,0.519 -2.067,0.541 -2.252,0.563 -2.44,0.585 -2.691,0.666 -2.869,0.583 -2.9,0.568 -2.92,0.556 -2.935,0.544 -2.911,0.531 -2.887,0.516 -2.864,0.498 -2.835,0.49 -2.807,0.48 -2.778,0.471 c 0.011,-0.002 0.02,-0.007 0.031,-0.008 0,-0.001 -0.001,-0.002 -0.001,-0.003 0.014,-0.005 0.029,-0.009 0.043,-0.015 10e-4,0 0.002,-0.001 0.002,-0.001 0.042,-0.006 0.085,-0.011 0.122,-0.02 0.046,-0.01 0.079,-0.035 0.106,-0.063 0.534,-0.082 1.071,-0.163 1.586,-0.305 0.057,-0.016 0.099,-0.047 0.127,-0.085 0.065,-0.013 0.131,-0.024 0.194,-0.042 0.091,-0.018 0.181,-0.036 0.272,-0.052 0.145,-0.025 0.292,-0.084 0.41,-0.023 C 0.077,-0.094 0.039,-0.043 0,0"
             style="fill:#231f20;fill-opacity:1;fill-rule:nonzero;stroke:none"
             id="path58045" />
        </g>
        <g
           id="g58047"
           transform="translate(325.11,222.368)">
          <path
             d="M 0,0 C 0.028,-0.012 0.056,-0.025 0.084,-0.037 0.176,-0.075 0.473,0.123 0.364,0.189 -0.271,0.579 -1,0.853 -1.675,1.168 -1.701,1.18 -1.748,1.164 -1.791,1.138 -1.245,0.685 -0.609,0.363 0,0"
             style="fill:#231f20;fill-opacity:1;fill-rule:nonzero;stroke:none"
             id="path58049" />
        </g>
        <g
           id="g58051"
           transform="translate(326.241,218.838)">
          <path
             d="m 0,0 c -0.019,-0.018 -0.042,-0.032 -0.068,-0.037 -0.011,-0.002 -0.02,-0.005 -0.03,-0.007 -0.041,-0.019 -0.082,-0.037 -0.123,-0.056 0,0.011 -0.004,0.018 -0.011,0.023 -0.03,-0.008 -0.06,-0.018 -0.09,-0.024 -0.012,-0.002 -0.022,0 -0.034,0 -0.766,-0.286 -1.591,-0.619 -2.295,-1.047 -0.129,-0.053 -0.258,-0.107 -0.386,-0.16 -0.123,-0.051 -0.431,-0.463 -0.172,-0.364 1.076,0.41 2.118,0.888 3.153,1.391 C 0.077,-0.216 0.268,0.124 0,0"
             style="fill:#231f20;fill-opacity:1;fill-rule:nonzero;stroke:none"
             id="path58053" />
        </g>
        <g
           id="g58055"
           transform="translate(325.802,217.522)">
          <path
             d="m 0,0 c -0.024,0.085 -0.147,0.008 -0.186,-0.016 -0.183,-0.115 -0.366,-0.229 -0.549,-0.344 -0.059,-0.037 -0.181,-0.147 -0.159,-0.229 0.024,-0.087 0.152,-0.01 0.192,0.016 0.183,0.117 0.366,0.233 0.549,0.35 C -0.096,-0.187 0.022,-0.079 0,0"
             style="fill:#231f20;fill-opacity:1;fill-rule:nonzero;stroke:none"
             id="path58057" />
        </g>
        <g
           id="g58059"
           transform="translate(341.112,217.272)">
          <path
             d="m 0,0 c -0.439,0.351 -0.902,0.673 -1.374,0.977 -0.38,0.15 -0.762,0.294 -1.124,0.485 -0.148,0.029 -0.297,0.051 -0.448,0.063 -0.009,-0.01 -0.019,-0.019 -0.029,-0.029 0.146,-0.399 0.764,-0.593 1.121,-0.778 0.538,-0.279 1.087,-0.496 1.609,-0.814 0.05,-0.013 0.1,-0.027 0.15,-0.036 0.024,0.012 0.049,0.019 0.074,0.028 -0.006,0.004 -0.011,0.007 -0.017,0.011 C -0.003,-0.058 0.021,-0.017 0,0"
             style="fill:#231f20;fill-opacity:1;fill-rule:nonzero;stroke:none"
             id="path58061" />
        </g>
        <g
           id="g58063"
           transform="translate(343.978,219.436)">
          <path
             d="M 0,0 C -1.079,0.05 -2.158,0.09 -3.237,0.127 -3.727,0.167 -4.218,0.211 -4.708,0.255 -4.792,0.244 -4.877,0.234 -4.961,0.218 -5.011,0.208 -5.062,0.197 -5.112,0.187 -5.233,0.196 -5.285,0.137 -5.271,0.014 -5.247,0.007 -5.225,0 -5.206,-0.007 c 0.021,-0.008 0.039,-0.021 0.056,-0.034 1.175,-0.079 2.35,-0.156 3.526,-0.225 0.54,0.026 1.08,0.058 1.619,0.083 C 0.067,-0.095 0.098,-0.004 0,0"
             style="fill:#231f20;fill-opacity:1;fill-rule:nonzero;stroke:none"
             id="path58065" />
        </g>
        <g
           id="g58067"
           transform="translate(340.645,220.645)">
          <path
             d="m 0,0 c -0.547,-0.061 -1.093,-0.128 -1.636,-0.202 -0.084,-0.012 -0.32,-0.261 -0.175,-0.255 0.239,0.009 0.479,0.023 0.718,0.036 0.004,-0.005 0.01,-0.009 0.02,-0.01 0.106,-0.01 0.213,0.005 0.32,0.027 0.029,0.002 0.059,0.003 0.089,0.005 0.006,0.007 0.014,0.012 0.021,0.019 0.035,0.008 0.069,0.016 0.103,0.023 0.106,0.023 0.211,0.045 0.317,0.067 0.164,0.019 0.327,0.048 0.475,0.091 0.001,0.002 0.002,0.004 0.003,0.006 0.035,0.019 0.084,0.06 0.113,0.097 C 0.254,-0.042 0.129,-0.014 0,0"
             style="fill:#231f20;fill-opacity:1;fill-rule:nonzero;stroke:none"
             id="path58069" />
        </g>
        <g
           id="g58071"
           transform="translate(340.913,222.243)">
          <path
             d="m 0,0 c -0.17,-0.088 -0.338,-0.178 -0.508,-0.268 -0.431,-0.18 -0.873,-0.36 -1.273,-0.595 -0.013,-0.008 -0.035,-0.029 -0.059,-0.056 -0.046,-0.019 -0.092,-0.04 -0.138,-0.059 -0.04,-0.016 -0.103,-0.081 -0.149,-0.144 -0.032,-0.017 -0.063,-0.034 -0.095,-0.05 0.032,-0.018 0.061,-0.045 0.083,-0.082 0.009,0.002 0.017,0.002 0.031,0.007 0.598,0.242 1.185,0.482 1.756,0.785 0.039,0.02 0.087,0.066 0.126,0.117 0.057,0.029 0.113,0.057 0.17,0.086 C 0.066,-0.196 0.242,0.126 0,0"
             style="fill:#231f20;fill-opacity:1;fill-rule:nonzero;stroke:none"
             id="path58073" />
        </g>
        <g
           id="g58075"
           transform="translate(339.487,216.545)">
          <path
             d="M 0,0 C -0.179,0.17 -0.354,0.342 -0.535,0.509 -0.694,0.656 -0.842,0.825 -1.013,0.96 -1.048,0.975 -1.083,0.989 -1.118,1.005 -1.127,1.009 -1.132,1.016 -1.139,1.021 -1.232,1.004 -1.357,0.876 -1.319,0.805 -1.297,0.762 -1.269,0.721 -1.242,0.68 -1.042,0.557 -0.84,0.437 -0.669,0.273 -0.64,0.245 -0.621,0.215 -0.609,0.185 -0.417,0.08 -0.219,-0.027 -0.059,-0.164 0,-0.104 0.037,-0.035 0,0"
             style="fill:#231f20;fill-opacity:1;fill-rule:nonzero;stroke:none"
             id="path58077" />
        </g>
        <g
           id="g58079"
           transform="translate(339.648,222.533)">
          <path
             d="m 0,0 c -0.037,0.041 -0.126,-0.028 -0.15,-0.05 -0.092,-0.08 -0.183,-0.16 -0.275,-0.239 -0.028,-0.025 -0.104,-0.105 -0.067,-0.146 0.037,-0.041 0.126,0.03 0.151,0.052 0.091,0.08 0.182,0.16 0.273,0.24 C -0.04,-0.119 0.037,-0.041 0,0"
             style="fill:#231f20;fill-opacity:1;fill-rule:nonzero;stroke:none"
             id="path58081" />
        </g>
      </g>
    </g>
  </g>
</svg>
