<?xml version="1.0" encoding="UTF-8" standalone="no"?>
<!-- Created with Inkscape (http://www.inkscape.org/) -->

<svg
   width="21.758236"
   height="24"
   viewBox="0 0 5.7568666 6.35"
   version="1.1"
   id="svg64162"
   inkscape:version="1.2.1 (9c6d41e4, 2022-07-14)"
   sodipodi:docname="the-vanishing-of-elina-harper.svg"
   xmlns:inkscape="http://www.inkscape.org/namespaces/inkscape"
   xmlns:sodipodi="http://sodipodi.sourceforge.net/DTD/sodipodi-0.dtd"
   xmlns="http://www.w3.org/2000/svg"
   xmlns:svg="http://www.w3.org/2000/svg">
  <sodipodi:namedview
     id="namedview64164"
     pagecolor="#505050"
     bordercolor="#eeeeee"
     borderopacity="1"
     inkscape:showpageshadow="0"
     inkscape:pageopacity="0"
     inkscape:pagecheckerboard="0"
     inkscape:deskcolor="#505050"
     inkscape:document-units="mm"
     showgrid="false"
     inkscape:zoom="0.7046647"
     inkscape:cx="45.411669"
     inkscape:cy="131.2681"
     inkscape:window-width="1390"
     inkscape:window-height="941"
     inkscape:window-x="0"
     inkscape:window-y="25"
     inkscape:window-maximized="0"
     inkscape:current-layer="layer1" />
  <defs
     id="defs64159" />
  <g
     inkscape:label="Layer 1"
     inkscape:groupmode="layer"
     id="layer1"
     transform="translate(-93.242933,-113.97292)">
    <g
       id="g58167"
       transform="matrix(0.27345937,0,0,-0.27345937,98.4228,118.88835)">
      <path
         d="m 0,0 -0.712,-0.285 -0.768,-0.209 -0.249,-0.033 -0.118,0.076 -0.599,0.182 -0.458,0.443 -0.545,0.412 -0.069,-0.022 -0.096,0.159 -0.171,0.094 -0.058,0.713 -0.151,0.673 0.034,0.243 -0.022,0.127 0.142,0.492 0.082,0.528 0.176,0.118 0.396,0.5 0.484,0.364 0.557,0.242 0.61,-0.01 0.365,0.098 0.752,-0.14 L 0.294,4.477 0.288,4.395 0.789,3.823 1.073,3.414 1.224,2.938 1.284,2.259 1.195,1.587 0.963,0.943 0.551,0.396 Z m -5.234,-0.611 -0.283,0.501 -0.421,0.45 -0.448,0.3 -0.444,0.328 -0.107,0.027 -0.369,0.319 -0.011,-0.004 -0.41,0.094 -0.144,0.054 -0.189,0.069 0.108,0.676 0.01,0.665 -0.064,0.672 -0.046,0.67 0.032,0.707 -0.092,0.744 0.567,-0.394 0.566,-0.33 -0.109,-0.273 -0.069,-0.646 -0.155,-0.63 -0.074,-0.643 0.001,-0.12 0.549,-0.03 0.507,-0.205 0.143,-0.036 0.346,-0.07 0.136,0.173 0.126,0.226 -0.06,0.016 0.218,0.792 -0.276,0.102 -0.214,-0.122 -0.206,-0.627 -0.343,0.073 0.005,0.019 -0.21,0.048 -0.027,0.099 -0.034,-0.02 -0.014,0.071 -0.144,-0.062 0.095,0.407 0.039,0.239 0.101,0.589 0.084,0.36 0.44,-0.195 0.467,-0.15 0.605,-0.323 0.52,-0.422 L -4.649,2.966 -4.761,2.327 -4.688,1.961 -5.122,1.726 -5.532,1.448 -6.053,1.683 -6.612,1.841 -7.21,1.947 -7.193,1.899 -7.257,1.937 -7.31,1.919 -7.341,1.762 -7.295,1.696 -7.31,1.658 -6.548,1.474 -6.374,1.31 -6.047,1.221 -5.939,1.157 -5.811,1.128 -5.824,1.117 l 0.02,-0.005 0.195,-0.444 0.163,-0.228 0.274,-0.343 0.231,0.195 -0.275,0.801 0.54,0.323 0.152,-0.46 0.258,-0.327 0.232,-0.614 -0.609,-0.321 z m -0.853,-1.907 0.013,-0.116 -0.087,-0.654 -0.399,-0.537 -0.549,-0.374 -0.608,-0.264 -0.663,0.018 -0.638,0.015 -0.644,0.088 -0.579,0.309 -0.528,0.498 -0.184,0.697 -0.068,0.702 -0.104,0.23 0.118,0.341 v 0.125 l 0.054,0.666 0.339,0.576 0.426,0.516 0.605,0.286 0.634,0.21 0.653,-0.046 0.648,-0.074 0.594,-0.273 0.59,-0.293 0.225,-0.613 0.115,-0.067 0.176,-0.669 0.122,-0.684 z m -5.532,2.497 0.219,-0.101 -0.26,-0.695 -0.635,0.395 -0.592,0.432 0.311,0.676 0.44,0.58 -0.014,0.139 0.317,-0.023 0.526,-0.103 0.651,0.609 0.438,0.351 0.156,-0.043 0.336,-0.048 0.356,0.393 -0.332,0.168 -0.152,-0.089 -0.112,0.103 -0.066,0.149 0.018,0.056 -0.309,0.822 -0.082,0.028 -0.535,-0.242 -0.57,-0.152 -0.177,-0.25 0.023,-0.296 0.038,0.013 0.117,-0.288 0.348,0.063 -0.114,0.482 0.569,0.226 0.213,-0.712 -0.105,-0.105 -0.412,-0.342 -0.33,-0.443 -0.866,0.071 0.021,0.625 -0.137,0.497 -0.057,0.521 -0.033,0.162 0.002,0.148 -0.028,-0.035 0.198,0.073 0.024,-0.03 0.051,0.044 0.655,0.358 0.625,0.401 0.497,0.315 0.513,0.288 0.535,0.168 0.452,0.249 L -8.88,5.033 -8.828,4.451 -9.244,4.289 -9.299,4.241 -9.364,4.192 -9.361,4.208 -9.625,3.965 -9.566,3.729 -8.941,3.861 -8.788,3.935 -8.802,3.401 -8.745,2.865 -8.847,2.19 -8.84,1.489 -9.492,1.371 -10.086,1.15 l -0.485,-0.384 -0.45,-0.428 -0.053,-0.057 -0.212,0.072 -0.527,0.269 -0.245,-0.309 z m -2.132,5.113 -0.535,0.323 -0.597,0.209 -0.004,0.111 0.485,0.322 0.471,0.351 0.266,0.184 -0.342,0.197 -0.583,-0.412 -0.504,-0.462 -0.283,-0.289 -0.686,0.112 0.018,0.559 -0.028,0.636 0.493,0.011 0.891,0.134 0.834,0.375 0.553,-0.285 0.78,-0.445 -0.685,-0.53 0.006,-0.062 -0.026,0.027 -0.029,-0.084 -0.07,-0.218 0.033,0.049 0.029,-0.1 0.119,-0.026 0.446,0.378 0.472,0.366 0.108,0.036 0.023,0.03 0.033,0.072 0.009,-0.011 0.107,0.024 0.027,0.302 -0.029,0.002 -0.008,0.021 -0.663,0.452 -0.691,0.332 0.516,0.634 0.554,-0.406 0.607,-0.324 0.492,-0.294 0.229,-0.239 0.418,-0.145 0.093,0.003 0.57,-0.372 0.606,-0.345 -0.607,-0.399 -0.664,-0.268 -0.822,-0.432 0.031,0.016 -0.527,0.345 0.338,0.254 0.578,0.39 -0.002,0.006 0.008,-0.01 0.019,0.073 0.049,0.066 0.193,0.103 -0.093,0.043 -0.054,0.039 -0.093,-0.005 -0.149,0.002 -0.561,-0.386 -0.588,-0.353 -0.272,-0.487 0.247,-0.249 0.31,-0.275 -0.465,-0.264 -0.48,-0.276 -0.459,0.451 z m 0.62,-3.55 -0.219,-0.446 -0.112,-0.52 -0.365,-0.38 -0.388,-0.364 -0.52,-0.096 -0.521,0.055 -0.487,-0.002 -0.497,-0.068 -0.455,0.21 -0.477,0.183 -0.287,0.446 -0.338,0.354 -0.227,0.636 -0.212,0.646 0.274,0.615 0.144,0.679 0.457,0.52 0.402,0.575 0.706,0.117 0.676,0.216 0.677,-0.206 0.698,-0.133 0.45,-0.554 0.551,-0.454 0.079,-0.535 0.181,-0.494 -0.033,-0.517 z m -4.589,7.425 -0.127,0.116 -0.134,0.134 -0.203,0.902 0.006,0.034 -0.002,0.22 0.117,-0.025 0.024,0.681 0.084,0.546 0.334,0.451 0.037,0.119 0.561,0.38 0.581,0.298 0.625,0.195 0.667,0.011 0.629,-0.208 0.628,-0.257 0.43,-0.527 0.407,-0.702 -0.021,-0.083 0.161,-0.148 -0.008,-0.813 0.043,-0.452 -0.243,-0.571 -0.272,-0.56 -0.499,-0.374 -0.03,-0.093 -0.076,-0.059 -0.192,-0.076 -0.61,-0.195 -0.095,-0.048 -0.087,-0.032 -0.746,-0.033 -0.709,0.208 -0.427,0.113 -0.027,-0.005 -0.011,0.012 -0.513,0.318 z m 6.002,4.237 0.284,-0.501 0.42,-0.45 0.498,-0.335 0.491,-0.361 0.548,-0.212 0.468,-0.33 -10e-4,-0.452 0.077,-0.49 -0.065,-0.043 -0.583,-0.194 -0.621,-0.107 -0.417,-0.495 0.396,-0.589 0.489,-0.504 0.403,0.364 -0.58,0.778 0.359,0.176 0.275,0.138 0.273,0.007 0.104,-0.012 -0.007,-0.606 0.072,-0.602 -0.06,-0.708 0.057,-0.756 -0.606,0.457 -0.607,0.36 -0.631,0.24 -0.612,0.293 -0.101,0.101 0.06,0.046 0.11,0.158 0.345,0.342 0.059,0.035 -0.159,0.119 -0.096,0.107 L -11.175,9.117 -11.58,8.766 -11.778,8.624 -12.45,9 l 0.092,0.176 0.27,0.352 0.401,0.39 0.404,0.276 0.406,0.281 0.259,0.224 0.098,0.125 -0.118,0.23 -0.049,0.092 -0.437,0.382 -0.183,0.125 -0.029,0.016 -0.08,0.005 -0.012,0.026 -0.005,-0.006 -0.027,0.022 -0.272,0.438 -0.163,0.159 -0.019,-0.001 -0.134,-0.042 -0.007,-0.039 -0.037,-0.208 0.09,-0.029 0.18,-0.527 0.091,-0.074 -0.004,-0.049 0.291,-0.1 0.056,-0.052 0.208,-0.044 0.176,-0.313 -0.47,-0.26 -0.463,-0.244 -0.309,-0.274 0.019,0.11 -0.079,0.548 -0.048,0.544 -0.335,0.638 -0.262,0.69 0.61,0.375 z m 2.132,3.663 0.593,0.152 0.625,0.134 0.629,-0.124 0.578,-0.274 0.529,-0.362 0.311,-0.564 0.07,-0.049 0.1,-0.079 0.135,-0.278 0.185,-0.587 -0.012,-0.34 -0.104,-0.232 -0.21,-0.809 -0.39,-0.702 -0.582,-0.524 0.034,-0.116 -0.051,0.024 -0.539,-0.367 -0.65,-0.044 -0.646,0.061 -0.579,0.295 -0.296,0.035 -0.445,0.551 -0.548,0.449 0.021,0.21 -0.263,0.551 -0.095,0.608 0.103,0.605 0.229,0.563 0.308,0.519 0.404,0.455 z m 4.32,-3.572 0.54,-0.388 0.678,-0.323 -0.294,-0.581 -0.305,-0.512 -0.032,-0.595 -0.177,-0.576 -0.55,-0.23 -0.509,-0.392 -0.638,-0.466 -0.216,-0.2 -0.224,-0.047 0.031,0.611 -0.079,0.6 0.477,-0.303 0.03,-0.056 -0.021,0.1 0.374,0.302 -0.475,0.206 -0.489,0.204 -0.32,-0.319 0.014,-0.6 0.062,-0.595 -0.07,-0.596 0.076,-0.074 -0.072,-0.085 0.07,-0.028 0.007,0.008 0.664,0.35 0.488,0.194 0.455,0.255 0.537,0.315 0.56,0.282 L -4.546,9.02 -5.114,8.696 -5.73,8.402 -6.268,7.997 -6.806,7.58 -7.472,7.322 l -0.614,-0.35 0.028,0.707 -0.07,0.703 0.029,0.671 0.023,0.671 -0.017,0.678 0.029,0.666 0.602,0.162 0.595,0.217 0.299,0.289 0.344,-0.36 0.224,-0.206 0.006,-0.037 0.203,-0.087 0.049,-0.04 0.108,0.119 0.209,0.233 0.006,-0.002 0.471,0.74 -0.007,0.176 -0.345,-0.174 -0.21,-0.284 -0.173,-0.196 -0.072,-0.027 -0.225,0.284 -0.205,0.151 0.321,0.164 0.268,0.596 z M -2.791,5.663 -3.221,5.082 -3.223,4.948 -3.646,4.614 -4.113,4.289 -4.869,4.586 -4.415,5.098 -4.059,5.845 -4.146,5.871 -4.139,5.879 -4.682,6.036 -5.177,6.324 -5.256,6.47 -5.423,6.658 -5.453,6.68 -5.55,6.764 -5.816,6.529 -5.831,6.564 -5.816,6.524 -5.878,6.559 -5.883,6.509 -6.135,6.387 -6.281,6.188 -6.344,6.185 -5.898,6.056 -5.887,5.973 -5.672,6.105 -5.58,6.041 -5.493,5.994 -5.221,5.79 -5.215,5.795 -4.97,5.737 -4.566,5.581 -4.93,5.2 -5.12,4.742 -5.363,4.826 -5.937,5.178 -6.516,5.52 l -0.577,0.434 -0.63,0.342 0.643,0.321 0.593,0.406 0.604,0.293 0.603,0.299 0.263,0.193 0.165,-0.426 0.329,-0.837 0.614,-0.131 0.602,-0.08 0.079,0.003 0.057,0.086 0.04,0.084 0.019,0.131 -0.53,0.166 -0.335,0.094 -0.104,0.345 -0.401,0.843 0.365,0.236 0.656,-0.591 -0.023,-0.129 0.606,-0.378 0.672,-0.242 0.719,-0.04 0.118,-0.118 0.27,0.092 0.169,-0.03 0.095,-0.589 0.004,-0.65 L -1.409,5.537 -2.004,5.492 -2.123,6.171 -2.192,6.248 -2.432,6.178 -2.63,5.9 -2.722,5.645 Z m -1.165,4.72 0.03,0.079 -0.135,0.083 0.12,0.627 0.274,0.574 0.369,0.52 0.563,0.298 0.547,0.269 0.59,0.193 0.224,0.08 0.198,-0.038 0.528,-0.231 0.5,-0.255 L 0.315,12.257 0.758,11.706 0.775,11.64 0.924,11.526 1.079,10.973 1.206,10.734 1.152,10.005 1.202,9.748 1.164,9.717 1.199,9.698 0.99,9.226 0.803,8.744 0.739,8.774 0.766,8.746 0.533,8.437 -0.038,8.026 -0.682,7.764 -1.362,7.71 -1.6,7.658 -1.761,7.774 -2.056,7.859 -2.274,7.881 -2.805,8.068 -3.271,8.389 -3.671,8.865 -3.835,9.46 -3.974,10.055 Z M 1.977,3.094 1.685,3.912 1.514,3.954 1.198,4.49 0.784,4.852 0.345,5.184 0.285,5.299 0.274,5.79 0.194,6.295 0.085,7.197 0.114,7.284 0.275,7.29 0.267,7.278 0.402,7.332 0.845,7.844 1.329,8.325 1.544,8.962 1.88,9.524 1.868,10.18 l 0.086,0.655 -0.251,0.608 -0.167,0.634 -0.452,0.497 0.015,0.067 -0.476,0.346 -0.419,0.411 -0.305,0.117 -0.413,0.124 -0.561,0.111 -0.58,0.004 -0.575,-0.088 -0.51,-0.241 -0.177,-0.065 -0.279,-0.11 -0.232,0.075 -0.114,0.048 -0.605,0.415 -0.691,0.289 -0.053,0.188 -0.145,0.021 0.073,0.222 -0.21,0.638 -0.156,0.653 -0.319,0.593 -0.371,0.56 -0.473,0.328 -0.468,0.329 -0.118,-0.012 -0.366,0.11 0.02,0.1 -0.71,0.168 -0.821,-0.049 -0.038,-0.02 -0.631,-0.217 -0.621,-0.261 -0.614,-0.548 -0.331,-0.364 -0.281,-0.405 10e-4,-0.065 -0.125,-0.165 -0.083,-0.26 h -0.007 l 0.058,-0.025 -0.084,-0.013 -0.013,-0.071 -0.125,-0.502 -0.002,-0.515 -0.062,-0.208 -0.437,-0.271 -0.461,-0.214 -0.861,-0.457 -0.527,0.263 -0.541,0.121 -0.15,-0.022 -0.025,-0.029 -0.765,0.062 -0.47,0.006 -0.884,-0.268 -0.442,-0.31 -0.5,-0.228 -0.316,-0.396 -0.334,-0.393 -0.147,-0.661 -0.113,-0.658 -0.056,-0.581 0.123,-0.58 -0.033,-0.217 0.3,-0.557 0.28,-0.569 0.554,-0.364 0.507,-0.42 0.165,-0.228 0.025,-0.514 -0.099,-0.505 0.012,-0.51 -0.003,-0.523 -0.272,0.045 -0.486,-0.49 -0.451,-0.519 -0.308,-0.599 -0.232,-0.624 -0.005,-0.658 0.012,-0.654 0.175,-0.629 0.134,-0.652 0.473,-0.465 0.473,-0.458 0.582,-0.327 0.54,-0.395 0.906,-0.13 0.544,0.248 0.59,0.089 0.562,0.185 0.261,0.234 0.346,-0.434 0.376,-0.377 0.517,-0.118 0.482,-0.205 -0.052,-0.24 0.106,-0.676 0.038,-0.696 0.471,-0.51 0.457,-0.51 0.548,-0.379 0.513,-0.449 0.671,-0.09 0.664,-0.027 0.667,0.044 0.668,0.071 0.606,0.336 0.585,0.365 0.213,0.336 0.318,0.589 0.248,0.61 0.17,0.898 0.011,0.06 0.014,0.065 -0.013,0.031 0.005,0.044 -0.029,0.085 0.422,0.258 0.46,0.224 0.406,0.313 0.441,0.259 0.222,-0.085 0.615,-0.169 0.59,-0.253 0.498,0.043 0.343,-0.022 0.806,0.131 0.456,0.238 0.472,0.196 0.536,0.441 0.417,0.438 0.066,0.166 0.157,0.537 0.104,0.55 0.112,0.309 -0.078,0.61 z"
         style="fill:#231f20;fill-opacity:1;fill-rule:nonzero;stroke:none"
         id="path58169" />
    </g>
  </g>
</svg>
