<?xml version="1.0" encoding="UTF-8" standalone="no"?>
<!-- Created with Inkscape (http://www.inkscape.org/) -->

<svg
   width="23.227087"
   height="24"
   viewBox="0 0 6.1455001 6.35"
   version="1.1"
   id="svg62676"
   inkscape:version="1.2.1 (9c6d41e4, 2022-07-14)"
   sodipodi:docname="the-pit-of-despair.svg"
   xmlns:inkscape="http://www.inkscape.org/namespaces/inkscape"
   xmlns:sodipodi="http://sodipodi.sourceforge.net/DTD/sodipodi-0.dtd"
   xmlns="http://www.w3.org/2000/svg"
   xmlns:svg="http://www.w3.org/2000/svg">
  <sodipodi:namedview
     id="namedview62678"
     pagecolor="#505050"
     bordercolor="#eeeeee"
     borderopacity="1"
     inkscape:showpageshadow="0"
     inkscape:pageopacity="0"
     inkscape:pagecheckerboard="0"
     inkscape:deskcolor="#505050"
     inkscape:document-units="mm"
     showgrid="false"
     inkscape:zoom="0.7046647"
     inkscape:cx="124.88209"
     inkscape:cy="202.22384"
     inkscape:window-width="1390"
     inkscape:window-height="941"
     inkscape:window-x="0"
     inkscape:window-y="25"
     inkscape:window-maximized="0"
     inkscape:current-layer="layer1" />
  <defs
     id="defs62673">
    <clipPath
       clipPathUnits="userSpaceOnUse"
       id="clipPath57897">
      <path
         d="m 76.951,127.567 h 24.699 v 24.7 H 76.951 Z"
         id="path57895" />
    </clipPath>
  </defs>
  <g
     inkscape:label="Layer 1"
     inkscape:groupmode="layer"
     id="layer1"
     transform="translate(-72.022067,-95.199216)">
    <g
       id="g57891"
       transform="matrix(0.29132082,0,0,-0.29132082,49.0058,138.94162)">
      <g
         id="g57893"
         clip-path="url(#clipPath57897)">
        <g
           id="g57899"
           transform="translate(98.0718,150.152)">
          <path
             d="m 0,0 c -0.064,-0.043 -0.13,-0.084 -0.196,-0.126 -0.049,-0.071 -0.098,-0.144 -0.159,-0.205 -0.114,-0.115 -0.241,-0.218 -0.359,-0.33 -0.177,-0.169 -0.354,-0.338 -0.527,-0.511 -0.173,-0.173 -0.341,-0.351 -0.512,-0.526 -0.025,-0.027 -0.056,-0.048 -0.084,-0.072 -0.066,0.011 -0.126,0.02 -0.185,0.03 -0.053,-0.047 -0.102,-0.087 -0.147,-0.131 -0.208,-0.208 -0.416,-0.417 -0.623,-0.627 -0.264,-0.268 -0.526,-0.539 -0.793,-0.805 -0.129,-0.128 -0.262,-0.254 -0.404,-0.368 -0.175,-0.14 -0.359,-0.27 -0.537,-0.408 -0.341,-0.268 -0.668,-0.55 -0.979,-0.853 -0.247,-0.241 -0.511,-0.465 -0.767,-0.696 -0.033,-0.029 -0.067,-0.057 -0.1,-0.085 C -6.533,-5.852 -6.694,-5.991 -6.855,-6.131 -6.874,-6.148 -6.887,-6.17 -6.904,-6.189 -6.958,-6.25 -7.01,-6.312 -7.067,-6.37 -7.129,-6.433 -7.195,-6.491 -7.258,-6.553 -7.421,-6.716 -7.582,-6.881 -7.745,-7.045 -7.762,-7.062 -7.785,-7.074 -7.804,-7.09 -7.852,-7.13 -7.903,-7.168 -7.946,-7.212 -8.046,-7.315 -8.125,-7.437 -8.242,-7.528 -8.314,-7.584 -8.378,-7.656 -8.434,-7.731 -8.587,-7.937 -8.776,-8.112 -8.955,-8.294 -9.069,-8.41 -9.199,-8.509 -9.282,-8.653 -9.3,-8.684 -9.336,-8.705 -9.363,-8.732 c -0.035,-0.034 -0.07,-0.07 -0.106,-0.104 -0.116,-0.108 -0.206,-0.237 -0.309,-0.355 -0.273,-0.313 -0.509,-0.653 -0.745,-0.993 -0.186,-0.268 -0.362,-0.544 -0.542,-0.815 -0.122,-0.183 -0.241,-0.369 -0.369,-0.547 -0.146,-0.204 -0.3,-0.402 -0.452,-0.6 -0.021,-0.028 -0.054,-0.047 -0.084,-0.072 -0.126,0.108 -0.243,0.211 -0.362,0.311 -0.11,0.092 -0.239,0.164 -0.306,0.3 -0.01,0.021 -0.035,0.035 -0.055,0.051 -0.082,0.068 -0.168,0.132 -0.248,0.202 -0.139,0.122 -0.294,0.226 -0.431,0.351 -0.315,0.216 -0.631,0.428 -0.946,0.641 -0.025,-0.004 -0.053,0.011 -0.1,0.043 -0.12,0.081 -0.237,0.164 -0.357,0.244 -0.083,0.056 -0.171,0.105 -0.253,0.163 -0.09,0.065 -0.151,0.17 -0.269,0.199 -0.011,0.002 -0.02,0.015 -0.028,0.024 -0.018,0.024 -0.04,0.044 -0.06,0.065 -0.317,0.228 -0.631,0.462 -0.936,0.71 -0.009,-0.009 -0.017,-0.017 -0.025,-0.029 -0.011,-0.015 -0.019,-0.031 -0.035,-0.057 -0.032,0.005 -0.051,0.005 -0.068,0.01 -0.16,0.055 -0.32,0.109 -0.479,0.167 -0.028,0.01 -0.053,0.033 -0.074,0.056 -0.081,0.087 -0.189,0.094 -0.295,0.104 -0.031,0.003 -0.058,-0.005 -0.08,-0.021 0.126,-0.164 0.253,-0.327 0.374,-0.495 0.017,-0.01 0.034,-0.022 0.052,-0.031 0.081,-0.044 0.142,-0.098 0.188,-0.177 0.126,-0.218 0.274,-0.421 0.432,-0.616 0.156,-0.193 0.275,-0.407 0.382,-0.628 0.354,-0.437 0.749,-0.837 1.096,-1.281 0.226,-0.288 0.492,-0.539 0.708,-0.83 0.151,-0.096 0.291,-0.206 0.408,-0.351 0.113,-0.139 0.205,-0.283 0.237,-0.463 0.006,-0.036 0.019,-0.073 0.039,-0.104 0.06,-0.092 0.075,-0.197 0.103,-0.299 -0.038,-0.056 -0.069,-0.113 -0.11,-0.158 -0.27,-0.298 -0.488,-0.637 -0.76,-0.934 -0.199,-0.217 -0.385,-0.447 -0.576,-0.671 -0.122,-0.144 -0.256,-0.28 -0.362,-0.435 -0.195,-0.284 -0.375,-0.579 -0.559,-0.872 -0.073,-0.116 -0.132,-0.243 -0.211,-0.355 -0.042,-0.059 -0.075,-0.112 -0.075,-0.185 -0.002,-0.111 -0.048,-0.206 -0.115,-0.293 -0.038,-0.049 -0.076,-0.099 -0.109,-0.152 -0.103,-0.165 -0.208,-0.329 -0.304,-0.498 -0.077,-0.136 -0.18,-0.259 -0.219,-0.415 -0.023,-0.094 -0.073,-0.172 -0.129,-0.25 -0.107,-0.148 -0.193,-0.308 -0.241,-0.486 -0.027,-0.097 -0.058,-0.192 -0.091,-0.287 -0.012,-0.035 -0.03,-0.069 -0.051,-0.099 -0.104,-0.149 -0.212,-0.295 -0.314,-0.446 -0.042,-0.061 -0.08,-0.127 -0.082,-0.207 -0.001,-0.037 -0.01,-0.077 -0.028,-0.108 -0.096,-0.168 -0.198,-0.334 -0.296,-0.502 -0.063,-0.109 -0.126,-0.217 -0.182,-0.329 -0.029,-0.057 -0.003,-0.119 0.048,-0.146 0.045,-0.025 0.115,-0.003 0.145,0.051 0.019,0.033 0.023,0.074 0.044,0.104 0.05,0.07 0.079,0.161 0.168,0.194 0.134,0.05 0.243,0.124 0.303,0.259 0.01,0.022 0.029,0.041 0.048,0.057 0.138,0.119 0.27,0.246 0.416,0.354 0.238,0.176 0.438,0.392 0.639,0.606 0.081,0.087 0.147,0.188 0.241,0.255 0.019,0.001 0.032,0.005 0.044,0.002 0.138,-0.035 0.247,-0.016 0.294,0.142 0.006,0.02 0.034,0.034 0.053,0.051 0.071,0.064 0.13,0.134 0.157,0.229 0.015,0.054 0.043,0.104 0.067,0.155 0.035,0.075 0.081,0.14 0.157,0.182 0.043,0.024 0.082,0.058 0.119,0.092 0.197,0.184 0.396,0.367 0.59,0.554 0.184,0.18 0.364,0.363 0.544,0.547 0.109,0.111 0.208,0.235 0.322,0.34 0.111,0.103 0.226,0.198 0.305,0.33 0.02,0.032 0.044,0.064 0.074,0.085 0.063,0.045 0.1,0.11 0.148,0.168 0.12,0.144 0.251,0.279 0.38,0.416 0.091,0.096 0.195,0.179 0.276,0.282 0.124,0.157 0.225,0.333 0.387,0.458 0.019,0.015 0.024,0.046 0.041,0.063 0.103,0.101 0.197,0.215 0.314,0.295 0.117,0.08 0.262,0.11 0.404,0.115 0.018,-0.021 0.037,-0.039 0.056,-0.057 0.047,0.007 0.097,-0.004 0.143,-0.043 0.228,-0.198 0.514,-0.354 0.808,-0.499 0.069,0.006 0.127,-0.014 0.186,-0.057 0.048,-0.035 0.097,-0.069 0.145,-0.103 0.19,-0.091 0.376,-0.184 0.545,-0.285 0.527,-0.317 1.095,-0.581 1.607,-0.922 0.451,-0.3 0.838,-0.635 1.331,-0.877 0.149,-0.073 0.301,-0.149 0.452,-0.228 0.013,0.019 0.02,0.043 0.015,0.067 -0.016,0.08 -0.034,0.161 -0.088,0.226 -0.141,0.168 -0.28,0.337 -0.425,0.502 -0.061,0.071 -0.142,0.125 -0.2,0.199 -0.197,0.252 -0.41,0.491 -0.64,0.712 -0.143,0.138 -0.297,0.273 -0.467,0.373 -0.182,0.108 -0.328,0.252 -0.482,0.389 -0.075,0.066 -0.139,0.145 -0.207,0.218 -0.103,0.11 -0.205,0.22 -0.306,0.331 -0.008,0.008 -0.016,0.017 -0.023,0.025 -0.023,0.008 -0.045,0.02 -0.065,0.036 -0.063,0.051 -0.127,0.101 -0.186,0.158 -0.013,0.013 -0.022,0.026 -0.029,0.04 -0.049,0.029 -0.093,0.072 -0.136,0.131 -0.145,0.195 -0.318,0.37 -0.488,0.545 -0.057,0.06 -0.107,0.12 -0.152,0.189 -0.093,0.142 -0.191,0.28 -0.292,0.416 -0.089,0.121 -0.187,0.235 -0.277,0.356 -0.051,0.07 -0.093,0.147 -0.143,0.226 0.111,0.208 0.2,0.422 0.374,0.587 0.21,0.198 0.415,0.403 0.623,0.603 0.254,0.243 0.516,0.477 0.751,0.74 0.049,0.056 0.108,0.104 0.16,0.158 0.119,0.128 0.243,0.253 0.347,0.396 0.146,0.203 0.294,0.408 0.468,0.587 0.14,0.144 0.276,0.292 0.396,0.452 0.168,0.225 0.35,0.441 0.495,0.684 0.112,0.189 0.247,0.364 0.403,0.52 0.024,0.023 0.063,0.031 0.095,0.046 0.059,-0.062 0.122,-0.114 0.187,-0.159 0.014,-0.002 0.029,-0.005 0.044,-0.011 0.708,-0.268 1.378,-0.622 2.065,-0.936 0.015,0.022 0.026,0.048 0.024,0.079 -0.001,0.043 -0.016,0.086 -0.031,0.126 -0.024,0.065 -0.065,0.125 -0.079,0.191 -0.006,0.029 -0.016,0.057 -0.025,0.084 -0.176,0.218 -0.334,0.451 -0.535,0.647 -0.015,0.015 -0.025,0.031 -0.033,0.047 -0.014,0.016 -0.028,0.031 -0.042,0.046 -0.099,0.106 -0.2,0.209 -0.298,0.315 -0.127,0.137 -0.219,0.29 -0.223,0.483 0.164,0.229 0.345,0.447 0.486,0.692 0.037,0.065 0.081,0.127 0.125,0.187 0.128,0.171 0.259,0.34 0.387,0.511 0.176,0.236 0.342,0.48 0.529,0.708 0.328,0.398 0.604,0.833 0.904,1.251 0.175,0.245 0.391,0.455 0.588,0.682 0.102,0.118 0.225,0.22 0.318,0.344 0.09,0.119 0.19,0.233 0.245,0.376 0.013,0.033 0.047,0.058 0.068,0.089 0.089,0.137 0.221,0.24 0.294,0.389 0.028,0.056 0.053,0.114 0.086,0.167 0.125,0.196 0.252,0.389 0.379,0.583 0.002,0.003 0.006,0.004 0.008,0.007 0.102,0.195 0.257,0.363 0.41,0.532 0.223,0.247 0.451,0.507 0.64,0.789 0.054,0.108 0.104,0.218 0.156,0.327 C 0.017,-0.007 0.009,-0.005 0,0"
             style="fill:#231f20;fill-opacity:1;fill-rule:nonzero;stroke:none"
             id="path57901" />
        </g>
        <g
           id="g57903"
           transform="translate(90.1258,145.227)">
          <path
             d="M 0,0 C -0.05,0.021 -0.101,0.044 -0.151,0.068 -0.215,0.093 -0.277,0.12 -0.34,0.146 -0.351,0.138 -0.361,0.129 -0.371,0.121 -0.436,0.156 -0.491,0.185 -0.545,0.216 -0.703,0.305 -0.85,0.416 -1.025,0.469 -1.147,0.506 -1.256,0.563 -1.368,0.622 -1.562,0.724 -1.761,0.816 -1.957,0.915 -2.142,1.008 -2.328,1.1 -2.507,1.202 -2.621,1.267 -2.733,1.333 -2.845,1.399 -2.858,1.405 -2.871,1.412 -2.883,1.421 -2.886,1.423 -2.889,1.425 -2.891,1.426 -3.039,1.514 -3.186,1.602 -3.334,1.69 -3.369,1.711 -3.403,1.733 -3.435,1.758 -3.661,1.882 -3.888,2.002 -4.098,2.156 -4.44,2.406 -4.81,2.543 -5.184,2.69 -5.191,2.692 -5.197,2.693 -5.204,2.694 -5.289,2.717 -5.369,2.739 -5.435,2.793 -5.54,2.838 -5.646,2.885 -5.75,2.939 -5.801,2.965 -5.856,2.991 -5.913,3.016 -5.928,3 -5.943,2.985 -5.96,2.967 -6.027,3.002 -6.093,3.027 -6.148,3.066 -6.187,3.095 -6.226,3.126 -6.264,3.156 -6.59,3.277 -6.948,3.398 -7.27,3.554 -7.287,3.549 -7.304,3.544 -7.322,3.54 -7.327,3.539 -7.332,3.539 -7.337,3.539 -7.331,3.509 -7.333,3.474 -7.348,3.432 -7.389,3.319 -7.342,3.253 -7.233,3.187 c 0.091,-0.054 0.18,-0.113 0.266,-0.175 0.087,-0.063 0.161,-0.144 0.253,-0.196 0.238,-0.135 0.439,-0.315 0.626,-0.51 0.049,-0.051 0.102,-0.099 0.152,-0.15 0.325,-0.161 0.563,-0.423 0.838,-0.685 0.519,-0.493 1.071,-0.99 1.633,-1.432 0.53,-0.415 1.002,-0.882 1.539,-1.29 0.17,-0.128 0.332,-0.252 0.482,-0.389 0.08,0.055 0.159,0.112 0.233,0.174 0.106,0.088 0.21,0.18 0.302,0.281 0.208,0.229 0.453,0.416 0.692,0.609 0.082,0.066 0.185,0.114 0.156,0.249 -0.001,0.009 0.016,0.02 0.019,0.032 0.012,0.041 0.036,0.086 0.029,0.124 C -0.024,-0.108 -0.018,-0.052 0,0"
             style="fill:#231f20;fill-opacity:1;fill-rule:nonzero;stroke:none"
             id="path57905" />
        </g>
        <g
           id="g57907"
           transform="translate(96.8787,132.018)">
          <path
             d="M 0,0 C -0.549,0.656 -1.167,1.241 -1.813,1.816 -1.84,1.828 -1.865,1.842 -1.891,1.86 -2.016,1.945 -2.141,2.031 -2.274,2.1 -2.454,2.194 -2.611,2.317 -2.762,2.45 -2.827,2.508 -2.905,2.561 -2.949,2.633 -2.997,2.711 -3.073,2.747 -3.13,2.806 -3.278,2.958 -3.435,3.103 -3.556,3.282 -3.64,3.407 -3.738,3.522 -3.834,3.638 -4.06,3.913 -4.36,4.103 -4.631,4.326 -4.703,4.385 -4.779,4.441 -4.844,4.508 -4.97,4.639 -5.083,4.783 -5.212,4.91 -5.351,5.046 -5.501,5.17 -5.648,5.298 -5.687,5.332 -5.733,5.355 -5.786,5.339 -5.835,5.324 -5.874,5.34 -5.907,5.372 -6.015,5.476 -6.124,5.579 -6.231,5.685 -6.365,5.819 -6.453,5.988 -6.565,6.138 -6.595,6.178 -6.641,6.219 -6.645,6.263 -6.652,6.338 -6.693,6.395 -6.727,6.456 -6.844,6.331 -6.954,6.199 -7.065,6.057 -7.219,5.862 -7.419,5.704 -7.627,5.56 -7.653,5.516 -7.68,5.474 -7.705,5.43 -7.727,5.393 -7.742,5.351 -7.754,5.309 -7.717,5.264 -7.677,5.221 -7.636,5.18 -7.606,5.151 -7.569,5.116 -7.531,5.083 -7.523,5.081 -7.515,5.079 -7.508,5.076 -7.467,5.062 -7.427,5.045 -7.392,5.022 -7.36,5.002 -7.338,4.969 -7.308,4.947 -7.032,4.739 -6.765,4.521 -6.515,4.282 -6.407,4.179 -6.283,4.091 -6.162,4.001 -6.051,3.919 -5.932,3.848 -5.824,3.762 -5.707,3.669 -5.597,3.568 -5.503,3.447 -5.373,3.279 -5.237,3.112 -5.063,2.985 -4.835,2.818 -4.61,2.648 -4.337,2.561 -4.319,2.555 -4.301,2.548 -4.285,2.539 -4.078,2.412 -3.853,2.308 -3.695,2.111 -3.672,2.082 -3.641,2.058 -3.612,2.036 -3.482,1.937 -3.349,1.842 -3.22,1.742 -3.021,1.589 -2.815,1.443 -2.63,1.274 -2.436,1.097 -2.207,0.986 -1.982,0.863 -1.938,0.84 -1.892,0.815 -1.845,0.802 -1.752,0.776 -1.669,0.728 -1.6,0.667 -1.546,0.62 -1.491,0.616 -1.431,0.613 -1.422,0.599 -1.414,0.589 -1.405,0.578 -1.306,0.576 -1.208,0.552 -1.111,0.515 -1.079,0.518 -1.051,0.51 -1.027,0.483 -1.026,0.481 -1.024,0.48 -1.023,0.479 -0.969,0.455 -0.918,0.427 -0.867,0.399 -0.86,0.397 -0.853,0.395 -0.845,0.394 -0.802,0.387 -0.757,0.379 -0.718,0.36 -0.675,0.339 -0.629,0.312 -0.599,0.275 -0.57,0.241 -0.543,0.205 -0.515,0.171 -0.397,0.087 -0.28,-0.001 -0.167,-0.092 -0.082,-0.119 -0.003,-0.156 0.073,-0.198 0.053,-0.13 0.03,-0.063 0,0"
             style="fill:#231f20;fill-opacity:1;fill-rule:nonzero;stroke:none"
             id="path57909" />
        </g>
        <g
           id="g57911"
           transform="translate(87.5979,141.094)">
          <path
             d="M 0,0 C -0.011,0.048 -0.047,0.069 -0.087,0.091 -0.262,0.182 -0.413,0.3 -0.504,0.482 -0.521,0.514 -0.546,0.545 -0.575,0.568 -0.661,0.64 -0.746,0.717 -0.842,0.776 -1.056,0.907 -1.266,1.04 -1.466,1.194 -1.74,1.405 -2.039,1.578 -2.338,1.751 -2.354,1.76 -2.37,1.775 -2.388,1.778 -2.514,1.799 -2.593,1.89 -2.678,1.974 -2.844,2.138 -3.03,2.271 -3.246,2.366 -3.419,2.443 -3.604,2.485 -3.772,2.566 -3.897,2.625 -4.026,2.63 -4.145,2.659 -4.197,2.664 -4.235,2.65 -4.257,2.624 c 0.488,-0.568 1.101,-1.07 1.602,-1.612 0.322,-0.348 0.596,-0.754 0.949,-1.071 0.118,-0.106 0.28,-0.273 0.439,-0.426 0.011,0 0.021,-0.001 0.032,0 0.029,0.002 0.06,-0.016 0.088,-0.028 0.047,-0.019 0.091,-0.042 0.138,-0.06 0.093,-0.035 0.173,-0.021 0.231,0.067 0.061,0.093 0.153,0.147 0.248,0.195 0.133,0.068 0.26,0.149 0.421,0.147 C -0.027,-0.165 0.019,-0.08 0,0"
             style="fill:#231f20;fill-opacity:1;fill-rule:nonzero;stroke:none"
             id="path57913" />
        </g>
        <g
           id="g57915"
           transform="translate(84.2996,146.152)">
          <path
             d="m 0,0 c -0.376,0.361 -0.782,0.629 -1.228,0.839 -0.008,0.014 -0.021,0.021 -0.042,0.019 -0.011,0.005 -0.023,0.01 -0.034,0.015 -0.397,-0.299 -0.845,-0.511 -1.21,-0.86 0,-10e-4 -0.001,-10e-4 -0.001,-0.002 -1.333,-1.095 -2.372,-2.59 -2.778,-4.393 l 0.024,-0.324 c 0.01,0.004 0.019,0.008 0.03,0.014 -0.009,-0.091 0.117,-0.006 0.15,0.059 0.03,0.059 0.061,0.114 0.092,0.172 0.039,0.051 0.069,0.099 0.079,0.133 0.004,0.013 0.009,0.026 0.013,0.039 0.376,0.673 0.798,1.249 1.273,1.754 0.01,0.017 0.022,0.033 0.038,0.048 0.012,0.01 0.025,0.021 0.037,0.031 0.291,0.301 0.602,0.577 0.935,0.83 0.283,0.185 0.576,0.367 0.877,0.531 0.198,0.129 0.397,0.256 0.598,0.379 0.372,0.23 0.766,0.482 1.183,0.623 C 0.036,-0.057 0.025,-0.025 0,0"
             style="fill:#231f20;fill-opacity:1;fill-rule:nonzero;stroke:none"
             id="path57917" />
        </g>
        <g
           id="g57919"
           transform="translate(99.1839,144.299)">
          <path
             d="M 0,0 C -0.061,0.091 -0.129,0.181 -0.209,0.268 -0.397,0.475 -0.557,0.667 -0.641,0.916 -0.929,1.191 -1.236,1.448 -1.559,1.687 -1.872,1.919 -2.231,2.332 -2.625,2.159 -2.684,2.133 -2.741,2.097 -2.797,2.056 -3.023,1.773 -3.216,1.458 -3.413,1.145 c 0.849,-0.307 1.614,-0.99 2.285,-1.578 0.361,-0.317 0.672,-0.684 0.943,-1.082 0.283,-0.285 0.541,-0.597 0.746,-0.936 0.044,-0.06 0.09,-0.118 0.132,-0.179 0.037,-0.053 0.105,-0.045 0.18,-0.005 0.006,-0.007 0.012,-0.013 0.018,-0.02 0.007,-0.008 0.017,-0.01 0.027,-0.013 -0.05,0.485 -0.149,0.954 -0.294,1.414 C 0.439,-0.83 0.179,-0.431 0,0"
             style="fill:#231f20;fill-opacity:1;fill-rule:nonzero;stroke:none"
             id="path57921" />
        </g>
        <g
           id="g57923"
           transform="translate(89.196,149.519)">
          <path
             d="m 0,0 c -1.09,-0.102 -2.17,-0.372 -3.186,-0.762 -10e-4,0 -0.002,-0.001 -0.003,-0.002 -0.131,-0.093 -0.257,-0.193 -0.391,-0.281 -0.015,-0.025 -0.027,-0.049 -0.034,-0.069 -0.047,-0.035 -0.091,-0.078 -0.129,-0.122 0.451,-0.254 0.915,-0.482 1.388,-0.694 0.142,-0.058 0.33,-0.122 0.507,-0.205 0.002,0.004 0.007,0.01 0.009,0.013 -0.003,-0.004 0.032,-0.008 0.091,-0.011 0.268,0.117 0.566,0.19 0.839,0.246 0.272,0.056 0.581,0.113 0.862,0.06 0.399,0.039 0.812,0.017 1.192,0.002 0.924,-0.035 1.848,-0.135 2.623,-0.669 0.538,0.263 1.003,0.732 1.434,1.117 0.027,0.025 0.078,0.076 0.119,0.133 C 3.756,-0.237 1.877,0.083 0,0"
             style="fill:#231f20;fill-opacity:1;fill-rule:nonzero;stroke:none"
             id="path57925" />
        </g>
      </g>
    </g>
  </g>
</svg>
