<?xml version="1.0" encoding="UTF-8" standalone="no"?>
<!-- Created with Inkscape (http://www.inkscape.org/) -->

<svg
   width="21.516085"
   height="24"
   viewBox="0 0 5.6927974 6.35"
   version="1.1"
   id="svg62454"
   inkscape:version="1.2.1 (9c6d41e4, 2022-07-14)"
   sodipodi:docname="the-lair-of-dagon.svg"
   xmlns:inkscape="http://www.inkscape.org/namespaces/inkscape"
   xmlns:sodipodi="http://sodipodi.sourceforge.net/DTD/sodipodi-0.dtd"
   xmlns="http://www.w3.org/2000/svg"
   xmlns:svg="http://www.w3.org/2000/svg">
  <sodipodi:namedview
     id="namedview62456"
     pagecolor="#505050"
     bordercolor="#eeeeee"
     borderopacity="1"
     inkscape:showpageshadow="0"
     inkscape:pageopacity="0"
     inkscape:pagecheckerboard="0"
     inkscape:deskcolor="#505050"
     inkscape:document-units="mm"
     showgrid="false"
     inkscape:zoom="0.7046647"
     inkscape:cx="76.632191"
     inkscape:cy="145.45925"
     inkscape:window-width="1390"
     inkscape:window-height="941"
     inkscape:window-x="0"
     inkscape:window-y="25"
     inkscape:window-maximized="0"
     inkscape:current-layer="layer1" />
  <defs
     id="defs62451">
    <clipPath
       clipPathUnits="userSpaceOnUse"
       id="clipPath58321">
      <path
         d="m 76.951,167.149 h 24.699 v 24.699 H 76.951 Z"
         id="path58319" />
    </clipPath>
  </defs>
  <g
     inkscape:label="Layer 1"
     inkscape:groupmode="layer"
     id="layer1"
     transform="translate(-85.014536,-110.21817)">
    <g
       id="g58315"
       transform="matrix(0.28372808,0,0,-0.28372808,62.52405,164.32188)">
      <g
         id="g58317"
         clip-path="url(#clipPath58321)">
        <g
           id="g58323"
           transform="translate(99.1804,177.601)">
          <path
             d="m 0,0 c 0,0.042 -0.021,0.086 -0.049,0.121 0,0 0,0 0,0 C -0.037,0.081 -0.034,0.028 0,0"
             style="fill:#100f0d;fill-opacity:1;fill-rule:nonzero;stroke:none"
             id="path58325" />
        </g>
        <g
           id="g58327"
           transform="translate(79.4292,177.199)">
          <path
             d="m 0,0 c -0.031,-0.057 -0.041,-0.131 -0.063,-0.192 -0.02,-0.056 -0.031,-0.115 -0.051,-0.17 -0.014,-0.039 -0.052,-0.078 -0.047,-0.12 0.041,0.04 0.049,0.105 0.068,0.157 0.064,0.177 0.163,0.35 0.238,0.52 C 0.253,0.44 0.346,0.688 0.428,0.939 0.365,0.81 0.304,0.679 0.246,0.55 0.166,0.368 0.092,0.172 0,0"
             style="fill:#100f0d;fill-opacity:1;fill-rule:nonzero;stroke:none"
             id="path58329" />
        </g>
        <g
           id="g58331"
           transform="translate(97.1827,179.633)">
          <path
             d="m 0,0 c -0.157,-0.26 -0.345,-0.504 -0.526,-0.747 -0.249,-0.333 -0.472,-0.674 -0.759,-0.976 -0.279,-0.294 -0.542,-0.599 -0.813,-0.9 -0.111,-0.124 -0.244,-0.215 -0.385,-0.304 -0.105,-0.067 -0.216,-0.134 -0.328,-0.19 -0.106,-0.053 -0.22,-0.082 -0.324,-0.138 -0.168,-0.092 -0.325,-0.201 -0.5,-0.284 -0.162,-0.076 -0.3,-0.177 -0.473,-0.232 -0.428,-0.136 -0.845,-0.332 -1.293,-0.398 -0.335,-0.05 -0.673,-0.071 -1.008,-0.125 -0.294,-0.048 -0.577,-0.074 -0.874,-0.073 -0.244,0.001 -0.463,0.026 -0.701,0.073 -0.255,0.05 -0.511,0.086 -0.763,0.156 -0.169,0.047 -0.326,0.12 -0.498,0.162 -0.267,0.067 -0.527,0.153 -0.792,0.226 -0.626,0.172 -1.227,0.415 -1.789,0.738 -0.248,0.143 -0.5,0.267 -0.74,0.424 -0.216,0.141 -0.415,0.303 -0.636,0.435 -0.177,0.105 -0.348,0.219 -0.516,0.336 -0.233,0.161 -0.407,0.381 -0.623,0.563 -0.27,0.226 -0.517,0.472 -0.739,0.745 -0.164,0.201 -0.361,0.371 -0.482,0.603 -0.12,0.232 -0.291,0.421 -0.428,0.641 -0.018,0.029 -0.034,0.059 -0.052,0.089 0.032,0.061 0.063,0.122 0.096,0.182 0.248,0.451 0.499,0.863 0.874,1.218 0.296,0.28 0.626,0.507 0.953,0.749 0.116,0.086 0.25,0.151 0.378,0.217 0.133,0.069 0.269,0.138 0.407,0.195 0.21,0.088 0.429,0.146 0.646,0.215 0.316,0.1 0.629,0.195 0.948,0.285 0.592,0.166 1.172,0.386 1.77,0.531 0.167,0.041 0.326,0.101 0.498,0.114 0.208,0.016 0.413,0.052 0.619,0.084 0.272,0.043 0.543,0.089 0.817,0.109 0.282,0.021 0.57,0.004 0.852,0.004 0.416,10e-4 0.853,0.036 1.266,-0.031 0.115,-0.019 0.225,-0.076 0.337,-0.107 0.13,-0.036 0.263,-0.054 0.396,-0.076 0.24,-0.04 0.47,-0.119 0.703,-0.188 0.284,-0.084 0.571,-0.148 0.85,-0.248 0.197,-0.071 0.39,-0.152 0.587,-0.224 0.136,-0.05 0.27,-0.094 0.393,-0.173 0.058,-0.038 0.111,-0.078 0.171,-0.111 0.186,-0.107 0.379,-0.18 0.559,-0.301 0.187,-0.124 0.361,-0.264 0.55,-0.386 C -1.17,2.752 -0.974,2.621 -0.801,2.453 -0.634,2.29 -0.457,2.144 -0.305,1.967 -0.191,1.834 -0.078,1.699 0.025,1.556 0.134,1.403 0.235,1.244 0.339,1.087 0.38,1.024 0.425,0.964 0.469,0.904 0.335,0.592 0.175,0.29 0,0 M 1.456,2.181 C 1.571,2.302 1.623,2.467 1.712,2.61 1.855,2.84 1.952,3.087 2.075,3.329 2.16,3.495 2.214,3.638 1.996,3.509 1.916,3.25 1.757,3.045 1.626,2.809 1.515,2.609 1.412,2.398 1.281,2.21 1.186,2.075 1.074,1.956 0.971,1.828 0.906,1.747 0.837,1.664 0.778,1.576 0.764,1.601 0.75,1.627 0.737,1.653 0.707,1.717 0.683,1.779 0.641,1.838 0.524,2.005 0.324,2.123 0.156,2.233 0.014,2.326 -0.099,2.437 -0.226,2.549 -0.418,2.718 -0.641,2.858 -0.851,3.003 -1.106,3.18 -1.31,3.405 -1.562,3.585 c -0.121,0.086 -0.244,0.172 -0.359,0.267 -0.128,0.105 -0.232,0.234 -0.36,0.341 -0.337,0.281 -0.774,0.39 -1.19,0.507 -0.168,0.048 -0.343,0.073 -0.506,0.139 -0.086,0.035 -0.171,0.078 -0.257,0.115 -0.269,0.115 -0.555,0.204 -0.819,0.331 -0.111,0.054 -0.212,0.121 -0.321,0.177 -0.098,0.05 -0.205,0.08 -0.308,0.117 -0.199,0.07 -0.416,0.101 -0.622,0.142 -0.228,0.046 -0.467,0.026 -0.697,0.026 -0.138,0 -0.276,0 -0.414,0 -0.325,0 -0.656,0.022 -0.979,-0.004 C -8.67,5.721 -8.949,5.683 -9.223,5.645 -9.37,5.625 -9.515,5.596 -9.662,5.574 -9.769,5.559 -9.867,5.514 -9.972,5.497 -10.167,5.465 -10.367,5.455 -10.563,5.436 -10.983,5.395 -11.389,5.253 -11.789,5.125 -11.924,5.082 -12.077,5.055 -12.197,4.98 -12.276,4.931 -12.345,4.865 -12.42,4.811 -12.66,4.639 -12.944,4.527 -13.189,4.362 -13.311,4.28 -13.411,4.176 -13.528,4.088 c -0.102,-0.076 -0.204,-0.141 -0.31,-0.212 -0.2,-0.133 -0.388,-0.279 -0.598,-0.395 -0.271,-0.149 -0.538,-0.32 -0.761,-0.535 -0.145,-0.138 -0.255,-0.297 -0.378,-0.453 -0.105,-0.133 -0.232,-0.247 -0.311,-0.399 -0.14,-0.268 -0.303,-0.519 -0.444,-0.786 -0.029,0.049 -0.058,0.098 -0.088,0.146 -0.278,0.441 -0.505,0.908 -0.773,1.354 -0.06,0.098 -0.113,0.199 -0.16,0.305 -0.034,0.076 -0.087,0.152 -0.109,0.233 -0.02,0.068 -0.01,0.148 -0.054,0.209 -0.042,-0.119 0.034,-0.315 0.051,-0.43 0.021,-0.147 0.024,-0.293 0.061,-0.437 0.037,-0.143 0.074,-0.287 0.109,-0.43 0.109,-0.439 0.25,-0.862 0.431,-1.276 0.05,-0.115 0.106,-0.225 0.164,-0.333 -0.026,-0.068 -0.05,-0.138 -0.074,-0.21 -0.08,-0.238 -0.156,-0.481 -0.211,-0.727 -0.045,-0.205 -0.118,-0.399 -0.168,-0.603 -0.051,-0.205 -0.11,-0.406 -0.175,-0.604 0.039,0.08 0.079,0.16 0.121,0.237 0.119,0.218 0.269,0.413 0.373,0.639 0.105,0.228 0.223,0.434 0.357,0.645 0.02,0.03 0.037,0.061 0.055,0.092 0.03,-0.07 0.061,-0.14 0.096,-0.209 0.03,-0.059 0.069,-0.107 0.105,-0.161 0.085,-0.128 0.134,-0.271 0.207,-0.405 0.098,-0.179 0.2,-0.355 0.297,-0.535 0.18,-0.333 0.389,-0.65 0.609,-0.958 0.059,-0.082 0.126,-0.155 0.192,-0.231 0.095,-0.107 0.174,-0.226 0.263,-0.338 0.155,-0.195 0.376,-0.362 0.592,-0.482 0.399,-0.223 0.801,-0.435 1.231,-0.592 0.175,-0.063 0.356,-0.098 0.526,-0.174 0.208,-0.091 0.425,-0.153 0.62,-0.269 0.277,-0.166 0.589,-0.319 0.9,-0.413 0.096,-0.029 0.196,-0.045 0.294,-0.069 0.098,-0.024 0.192,-0.063 0.29,-0.088 0.232,-0.059 0.472,-0.028 0.706,-0.083 0.252,-0.058 0.501,-0.032 0.757,-0.046 0.227,-0.012 0.453,-0.066 0.678,-0.097 0.128,-0.017 0.258,-0.028 0.385,-0.047 0.123,-0.019 0.24,-0.058 0.363,-0.077 0.123,-0.019 0.247,-0.024 0.371,-0.037 0.249,-0.027 0.484,-0.029 0.732,0.018 0.365,0.071 0.72,0.179 1.082,0.259 0.346,0.076 0.704,0.155 1.019,0.324 0.104,0.056 0.201,0.12 0.308,0.169 0.08,0.037 0.162,0.066 0.228,0.125 0.058,0.051 0.103,0.116 0.155,0.173 0.112,0.121 0.258,0.198 0.402,0.275 0.19,0.102 0.386,0.182 0.567,0.3 0.141,0.093 0.306,0.155 0.453,0.239 0.122,0.07 0.262,0.135 0.378,0.213 0.12,0.082 0.228,0.21 0.331,0.312 0.066,0.066 0.139,0.117 0.192,0.195 0.065,0.096 0.101,0.214 0.157,0.317 0.156,0.291 0.385,0.534 0.548,0.821 0.1,0.177 0.165,0.372 0.272,0.546 0.129,0.212 0.3,0.401 0.414,0.621 0.045,0.087 0.059,0.161 0.082,0.253 0.06,0.243 0.195,0.412 0.32,0.618 C 0.708,0.576 0.715,0.567 0.721,0.558 0.99,0.176 1.217,-0.218 1.426,-0.637 1.506,-0.798 1.562,-0.971 1.646,-1.132 1.666,-1.171 1.681,-1.2 1.69,-1.244 1.697,-1.246 1.705,-1.247 1.712,-1.249 L 1.911,-1.872 C 1.924,-1.883 1.936,-1.896 1.948,-1.911 1.918,-1.813 1.883,-1.718 1.852,-1.62 1.807,-1.478 1.785,-1.333 1.741,-1.19 1.698,-1.049 1.683,-0.904 1.658,-0.758 1.631,-0.602 1.574,-0.483 1.508,-0.34 1.39,-0.083 1.336,0.191 1.231,0.451 1.135,0.689 1.078,0.94 0.981,1.176 1.013,1.242 1.043,1.31 1.065,1.382 1.149,1.67 1.244,1.957 1.456,2.181"
             style="fill:#100f0d;fill-opacity:1;fill-rule:nonzero;stroke:none"
             id="path58333" />
        </g>
        <g
           id="g58335"
           transform="translate(92.4088,175.835)">
          <path
             d="M 0,0 C 0.128,0.051 0.189,0.131 0.237,0.197 0.2,0.16 0.162,0.123 0.12,0.091 0.086,0.066 0.008,0.042 0,0"
             style="fill:#100f0d;fill-opacity:1;fill-rule:nonzero;stroke:none"
             id="path58337" />
        </g>
        <g
           id="g58339"
           transform="translate(93.6882,179.457)">
          <path
             d="m 0,0 c -0.056,0.18 -0.095,0.367 -0.146,0.549 -0.062,0.224 -0.167,0.427 -0.256,0.642 -0.077,0.182 -0.176,0.375 -0.206,0.571 -0.021,0.139 -0.054,0.273 -0.105,0.404 -0.048,0.121 -0.094,0.24 -0.162,0.351 -0.096,0.16 -0.206,0.309 -0.291,0.475 -0.113,0.223 -0.262,0.438 -0.452,0.601 -0.097,0.083 -0.181,0.174 -0.291,0.243 -0.123,0.077 -0.26,0.185 -0.395,0.234 -0.663,0.242 -1.383,0.383 -2.092,0.381 -0.192,0 -0.382,0.008 -0.572,-0.019 C -5.228,4.394 -5.456,4.291 -5.71,4.229 -5.939,4.172 -6.195,4.188 -6.413,4.086 -6.601,3.997 -6.802,3.891 -6.969,3.767 -7.27,3.544 -7.616,3.332 -7.836,3.024 -7.954,2.859 -8.087,2.682 -8.181,2.502 -8.23,2.408 -8.248,2.311 -8.278,2.209 -8.334,2.021 -8.416,1.842 -8.479,1.657 -8.58,1.359 -8.644,1.062 -8.644,0.748 -8.643,0.612 -8.65,0.475 -8.646,0.34 c 0.003,-0.102 0.042,-0.197 0.053,-0.298 0.016,-0.133 0.009,-0.257 0.032,-0.39 0.084,-0.473 0.176,-0.939 0.346,-1.389 0.072,-0.187 0.218,-0.369 0.342,-0.526 0.125,-0.157 0.255,-0.318 0.404,-0.454 0.056,-0.052 0.104,-0.08 0.166,-0.12 0.088,-0.056 0.153,-0.142 0.245,-0.191 0.123,-0.065 0.239,-0.156 0.376,-0.19 0.219,-0.056 0.459,-0.066 0.683,-0.099 0.054,-0.009 0.108,-0.014 0.163,-0.021 0.059,-0.007 0.137,-0.046 0.196,-0.026 -0.024,0.096 -0.234,0.227 -0.305,0.275 -0.136,0.093 -0.276,0.166 -0.405,0.269 -0.127,0.1 -0.254,0.189 -0.368,0.304 -0.097,0.098 -0.188,0.199 -0.277,0.304 -0.092,0.106 -0.165,0.232 -0.219,0.361 -0.022,0.052 -0.045,0.103 -0.07,0.154 -0.039,0.078 -0.052,0.164 -0.09,0.243 -0.064,0.132 -0.141,0.249 -0.193,0.388 -0.028,0.074 -0.05,0.15 -0.085,0.222 -0.043,0.089 -0.095,0.164 -0.121,0.261 -0.018,0.067 -0.044,0.107 -0.077,0.165 -0.035,0.061 -0.059,0.126 -0.093,0.189 -0.099,0.186 -0.141,0.354 -0.177,0.563 -0.05,0.293 -0.156,0.682 -0.016,0.964 0.121,0.245 0.252,0.484 0.342,0.745 0.086,0.251 0.143,0.52 0.32,0.727 0.212,0.246 0.556,0.475 0.868,0.577 0.107,0.035 0.21,0.075 0.315,0.113 0.239,0.085 0.508,0.05 0.753,0.12 0.134,0.039 0.269,0.07 0.405,0.106 0.212,0.055 0.433,0.133 0.65,0.165 0.173,0.025 0.346,0.034 0.521,0.034 0.117,-10e-4 0.225,0.007 0.335,-0.039 C -3.54,3.809 -3.46,3.749 -3.375,3.707 -3.288,3.663 -3.2,3.622 -3.115,3.574 -2.949,3.482 -2.786,3.391 -2.609,3.323 -2.454,3.264 -2.311,3.241 -2.186,3.122 -2.03,2.974 -1.903,2.807 -1.762,2.646 -1.66,2.529 -1.556,2.432 -1.474,2.298 c 0.058,-0.095 0.105,-0.193 0.169,-0.284 0.088,-0.126 0.154,-0.249 0.189,-0.402 0.033,-0.14 0.077,-0.272 0.12,-0.41 0.029,-0.096 0.06,-0.192 0.085,-0.289 0.038,-0.144 0.047,-0.292 0.084,-0.435 0.038,-0.15 0.075,-0.3 0.107,-0.452 0.028,-0.132 0.066,-0.256 0.065,-0.391 -0.002,-0.128 -0.008,-0.257 0.003,-0.386 0.018,-0.212 0.077,-0.418 0.111,-0.627 0.037,-0.219 0.056,-0.469 0.055,-0.693 -0.001,-0.188 -0.011,-0.351 -0.074,-0.53 -0.049,-0.14 -0.125,-0.268 -0.172,-0.409 -0.057,-0.174 -0.188,-0.254 -0.293,-0.392 -0.005,-0.007 -0.011,-0.015 -0.017,-0.022 0.055,0.054 0.107,0.11 0.16,0.164 0.076,0.078 0.159,0.147 0.223,0.236 0.065,0.089 0.138,0.174 0.202,0.263 0.078,0.11 0.13,0.235 0.191,0.354 0.155,0.297 0.235,0.603 0.317,0.928 0.06,0.236 0.048,0.479 0.072,0.72 0.011,0.11 0.025,0.219 0.012,0.33 C 0.117,-0.276 0.045,-0.145 0,0"
             style="fill:#100f0d;fill-opacity:1;fill-rule:nonzero;stroke:none"
             id="path58341" />
        </g>
        <g
           id="g58343"
           transform="translate(93.3718,185.381)">
          <path
             d="m 0,0 c 0.05,0.352 0.176,0.392 0.26,0.486 0.109,0.122 0.222,0.235 0.326,0.362 0.088,0.108 0.182,0.251 0.293,0.337 0.068,0.052 0.086,0.055 0.084,0.146 -0.006,0.293 0,0.586 0,0.878 0,0.168 -0.014,0.339 0.006,0.506 C 0.983,2.829 1.006,2.941 0.986,3.057 0.974,3.123 0.964,3.185 0.962,3.254 0.954,3.557 0.969,3.862 0.963,4.166 0.962,4.246 0.972,4.25 1.052,4.249 c 0.133,-0.003 0.266,0 0.4,0 0.49,0 0.98,0 1.47,0 0.122,0 0.247,-0.008 0.369,-0.002 C 3.36,4.251 3.423,4.275 3.492,4.278 3.568,4.283 3.726,4.243 3.787,4.296 3.759,4.324 3.771,4.354 3.768,4.388 3.763,4.44 3.747,4.483 3.738,4.534 3.719,4.648 3.701,4.762 3.669,4.875 3.647,4.952 3.614,5.031 3.602,5.111 3.596,5.148 3.611,5.207 3.601,5.242 3.564,5.37 3.264,5.274 3.174,5.258 3.017,5.228 2.845,5.188 2.685,5.182 2.448,5.175 2.22,5.112 1.983,5.099 1.711,5.085 1.441,5.104 1.168,5.077 0.98,5.059 0.797,5.041 0.607,5.042 0.542,5.042 0.29,5.083 0.251,5.012 0.238,4.988 0.255,4.853 0.255,4.828 c 0,-0.115 0,-0.23 0,-0.345 C 0.255,4.245 0.262,4.007 0.25,3.769 0.232,3.412 0.128,3.073 0.072,2.722 -0.022,2.134 -0.2,1.564 -0.122,0.962 -0.08,0.642 0,0.323 0,0"
             style="fill:#100f0d;fill-opacity:1;fill-rule:nonzero;stroke:none"
             id="path58345" />
        </g>
        <g
           id="g58347"
           transform="translate(81.7088,189.091)">
          <path
             d="M 0,0 C 0.157,0 0.315,0.003 0.472,0.001 0.652,-0.001 0.818,-0.061 0.998,-0.058 1.262,-0.053 1.513,-0.074 1.774,-0.107 1.973,-0.132 2.165,-0.194 2.242,-0.406 2.264,-0.467 2.266,-0.532 2.255,-0.594 2.229,-0.732 2.176,-0.84 2.173,-0.983 2.16,-1.618 2.165,-2.267 2.301,-2.89 2.316,-2.96 2.33,-3.001 2.401,-3.022 2.48,-3.046 2.559,-3.057 2.638,-3.087 2.751,-3.13 2.853,-3.193 2.96,-3.247 3.082,-3.308 3.201,-3.348 3.328,-3.397 3.421,-3.434 3.594,-3.481 3.902,-3.512 3.856,-3.51 3.859,-3.457 3.853,-3.419 3.827,-3.253 3.812,-3.084 3.79,-2.917 3.766,-2.747 3.729,-2.579 3.708,-2.409 3.692,-2.28 3.703,-2.148 3.69,-2.018 c -0.014,0.13 -0.007,0.261 -0.017,0.39 -0.01,0.128 -0.028,0.252 -0.027,0.381 0.003,0.307 -0.029,0.61 -0.027,0.917 0,0.143 0,0.286 0,0.429 0,0.115 -0.017,0.24 0.006,0.353 0.021,0.103 0.022,0.193 0.022,0.3 0,0.068 0.021,0.132 -0.037,0.175 C 3.564,0.962 3.468,0.963 3.415,0.964 3.32,0.965 3.237,0.973 3.143,0.991 2.86,1.046 2.569,1.013 2.283,1.042 2.016,1.069 1.739,1.049 1.47,1.048 c -0.208,0 -0.417,0 -0.622,0.035 C 0.671,1.114 0.493,1.101 0.314,1.125 0.216,1.139 0.114,1.157 0.022,1.183 -0.052,1.204 -0.086,1.177 -0.126,1.115 -0.233,0.953 -0.239,0.717 -0.272,0.529 -0.301,0.362 -0.372,0.176 -0.344,0.004 -0.246,-0.025 -0.101,0 0,0"
             style="fill:#100f0d;fill-opacity:1;fill-rule:nonzero;stroke:none"
             id="path58349" />
        </g>
        <g
           id="g58351"
           transform="translate(92.112,173.147)">
          <path
             d="m 0,0 c -0.137,-0.007 -0.274,0.001 -0.411,0 -0.176,-0.001 -0.343,-0.042 -0.518,-0.054 -0.252,-0.017 -0.507,-0.005 -0.76,-0.005 H -2.661 -4.055 -4.41 c -0.084,0 -0.217,0.023 -0.299,-0.002 0.05,-0.098 0.122,-0.179 0.187,-0.267 0.1,-0.137 0.2,-0.285 0.282,-0.434 0.039,-0.082 0.082,-0.161 0.129,-0.238 0.063,-0.085 0.127,-0.171 0.19,-0.256 0.076,-0.115 0.139,-0.234 0.189,-0.362 0.113,-0.284 0.287,-0.538 0.409,-0.82 0.121,-0.28 0.289,-0.54 0.419,-0.816 0.047,-0.099 0.1,-0.175 0.164,-0.261 0.074,-0.1 0.129,-0.213 0.203,-0.313 0.057,-0.077 0.133,-0.125 0.192,-0.199 0.082,-0.106 0.15,-0.222 0.244,-0.319 0.074,-0.077 0.13,-0.159 0.186,-0.249 0.052,-0.084 0.142,-0.149 0.174,-0.244 -0.005,0.131 0.007,0.255 -0.028,0.384 -0.04,0.141 -0.06,0.293 -0.112,0.429 -0.067,0.175 -0.182,0.34 -0.231,0.521 -0.028,0.107 -0.043,0.214 -0.086,0.316 -0.035,0.082 -0.083,0.157 -0.113,0.24 -0.07,0.192 -0.087,0.398 -0.16,0.589 -0.06,0.156 -0.109,0.317 -0.15,0.48 -0.045,0.183 -0.131,0.388 -0.143,0.578 -0.004,0.066 -0.036,0.145 -0.024,0.209 0.026,0.143 0.044,0.272 0.183,0.329 0.328,0.131 0.694,0.148 1.031,0.255 0.221,0.07 0.449,0.101 0.671,0.168 0.147,0.044 0.313,0.09 0.464,0.11 0.067,0.009 0.132,0.003 0.196,0.028 0.101,0.04 0.184,0.071 0.296,0.082 0.075,0.008 0.146,0.005 0.219,0.026 0.037,0.01 0.072,0.03 0.053,0.121 C 0.215,0.025 0.11,0.005 0,0"
             style="fill:#100f0d;fill-opacity:1;fill-rule:nonzero;stroke:none"
             id="path58353" />
        </g>
        <g
           id="g58355"
           transform="translate(88.3828,186.627)">
          <path
             d="M 0,0 C 0.159,0 0.318,0 0.477,0 0.611,0 0.749,0.009 0.882,0.002 0.992,-0.005 1.099,-0.027 1.21,-0.032 1.39,-0.039 1.558,-0.082 1.733,-0.111 1.825,-0.126 1.898,-0.101 1.873,0 1.767,0.121 1.709,0.284 1.656,0.433 1.564,0.692 1.468,0.951 1.377,1.211 1.238,1.61 1.101,2.022 1.017,2.437 0.925,2.426 0.851,2.163 0.829,2.111 0.714,1.839 0.593,1.575 0.427,1.331 0.266,1.094 0.14,0.833 0.032,0.568 -0.018,0.445 -0.06,0.32 -0.111,0.199 -0.135,0.141 -0.199,0.066 -0.194,0.002 -0.134,-0.012 -0.062,0 0,0"
             style="fill:#100f0d;fill-opacity:1;fill-rule:nonzero;stroke:none"
             id="path58357" />
        </g>
      </g>
    </g>
  </g>
</svg>
