<?xml version="1.0" encoding="UTF-8" standalone="no"?>
<!-- Created with Inkscape (http://www.inkscape.org/) -->

<svg
   width="19.509447"
   height="24"
   viewBox="0 0 5.1618746 6.35"
   version="1.1"
   id="svg64088"
   inkscape:version="1.2.1 (9c6d41e4, 2022-07-14)"
   sodipodi:docname="the-locals.svg"
   xmlns:inkscape="http://www.inkscape.org/namespaces/inkscape"
   xmlns:sodipodi="http://sodipodi.sourceforge.net/DTD/sodipodi-0.dtd"
   xmlns="http://www.w3.org/2000/svg"
   xmlns:svg="http://www.w3.org/2000/svg">
  <sodipodi:namedview
     id="namedview64090"
     pagecolor="#505050"
     bordercolor="#eeeeee"
     borderopacity="1"
     inkscape:showpageshadow="0"
     inkscape:pageopacity="0"
     inkscape:pagecheckerboard="0"
     inkscape:deskcolor="#505050"
     inkscape:document-units="mm"
     showgrid="false"
     inkscape:zoom="0.7046647"
     inkscape:cx="83.727764"
     inkscape:cy="258.98842"
     inkscape:window-width="1390"
     inkscape:window-height="941"
     inkscape:window-x="0"
     inkscape:window-y="25"
     inkscape:window-maximized="0"
     inkscape:current-layer="layer1" />
  <defs
     id="defs64085">
    <clipPath
       clipPathUnits="userSpaceOnUse"
       id="clipPath58089">
      <path
         d="m 319.951,167.149 h 24.699 v 24.699 h -24.699 z"
         id="path58087" />
    </clipPath>
  </defs>
  <g
     inkscape:label="Layer 1"
     inkscape:groupmode="layer"
     id="layer1"
     transform="translate(-83.027153,-80.180247)">
    <g
       id="g58083"
       transform="matrix(0.27580613,0,0,-0.27580613,-6.0511692,132.71111)">
      <g
         id="g58085"
         clip-path="url(#clipPath58089)">
        <g
           id="g58091"
           transform="translate(341.119,182.041)">
          <path
             d="M 0,0 C -0.149,0.364 -0.314,0.722 -0.479,1.078 -0.656,1.461 -0.8,1.925 -1.05,2.264 -1.284,2.582 -1.515,2.87 -1.662,3.248 -1.683,3.304 -1.704,3.361 -1.705,3.42 c -0.006,0.343 0.533,0.596 0.724,0.829 0.271,0.329 0.341,0.614 0.437,1.012 0.054,0.226 0.081,0.465 0.018,0.688 C -0.664,6.439 -0.96,6.866 -1.441,7.032 -1.936,7.203 -2.509,7.206 -2.989,6.988 -3.577,6.72 -3.831,6.215 -4.133,5.682 c 0.365,0.197 0.694,0.458 1.102,0.594 0.25,0.083 0.542,0.166 0.806,0.157 0.226,-0.008 0.462,-0.105 0.577,-0.299 0.072,-0.121 0.09,-0.266 0.097,-0.406 0.03,-0.572 -0.142,-0.96 -0.543,-1.344 -0.332,-0.318 -0.714,-0.73 -0.568,-1.23 0.028,-0.095 0.074,-0.185 0.12,-0.274 0.303,-0.72 0.756,-1.37 1.044,-2.099 0.352,-0.89 0.682,-1.805 0.78,-2.763 0.101,-0.972 -0.068,-2.012 -0.248,-2.967 -0.09,-0.482 -0.306,-0.994 -0.554,-1.417 -0.205,-0.349 -0.497,-0.647 -0.846,-0.852 -0.223,-0.131 -0.465,-0.225 -0.709,-0.314 -0.246,-0.09 -0.497,-0.175 -0.757,-0.202 -0.162,-0.017 -0.325,-0.012 -0.488,-0.006 -0.832,0.029 -1.663,0.042 -2.492,0.132 -0.145,0.01 -0.29,0.02 -0.435,0.03 -0.341,0.024 -0.95,0.037 -0.967,0.518 -0.005,0.124 0.009,0.251 0.013,0.375 0.007,0.185 0.022,0.372 0.02,0.557 -0.003,0.289 -0.006,0.578 -0.008,0.866 -0.004,0.455 -0.082,0.917 -0.11,1.369 -0.034,0.554 -0.073,1.109 -0.11,1.663 -0.056,0.853 -0.042,1.707 -0.028,2.56 0.007,0.397 0.045,0.802 -0.03,1.193 -0.124,0.65 -0.084,1.334 -0.079,2.004 0.008,1.092 -0.305,2.141 -0.384,3.224 -0.027,0.371 -0.052,0.699 -0.167,1.051 -0.067,0.206 -0.134,0.413 -0.202,0.62 0,0 -0.049,-0.984 -0.05,-1.022 C -9.368,7.023 -9.495,6.701 -9.471,6.323 -9.446,5.915 -9.473,5.504 -9.51,5.097 -9.55,4.662 -9.601,4.226 -9.596,3.788 c 0.013,-1.045 0.157,-2.079 0.015,-3.136 -0.107,-0.795 -0.038,-1.638 -0.036,-2.443 0.001,-0.819 0.038,-1.637 0.042,-2.456 l 0.043,-0.978 c 0,0 -0.002,-0.978 -0.002,-0.978 -0.078,-0.642 -0.066,-1.224 -0.83,-1.377 -0.33,-0.066 -0.668,-0.027 -1,-0.059 -0.383,-0.037 -0.756,-0.143 -1.136,-0.198 -0.87,-0.128 -1.847,-0.057 -2.545,0.437 -0.356,0.251 -0.8,0.626 -1.084,0.956 -0.181,0.21 -0.314,0.745 -0.4,1.004 0,0 -0.289,0.878 -0.303,0.921 -0.263,0.796 -0.247,1.905 -0.126,2.709 0.096,0.638 0.264,1.139 0.425,1.764 0.081,0.314 0.338,0.782 0.478,1.075 0.119,0.249 0.311,0.48 0.456,0.716 0.318,0.52 0.791,1.009 0.699,1.652 -0.047,0.326 -0.214,0.552 -0.427,0.819 -0.186,0.233 -0.489,0.373 -0.617,0.655 -0.302,0.669 -0.113,1.522 0.704,1.619 0.348,0.042 0.802,-0.002 1.068,-0.257 0,0 0.664,-0.635 0.679,-0.646 -0.151,0.115 -0.101,0.377 -0.211,0.532 -0.457,0.639 -0.595,0.859 -1.341,1.02 -0.444,0.095 -1.157,-0.154 -1.47,-0.456 -0.276,-0.267 -0.471,-0.619 -0.542,-0.996 -0.121,-0.653 0.137,-1.153 0.515,-1.653 l 0.533,-0.597 -0.101,-0.526 c 0,0 -0.541,-0.965 -0.541,-0.966 -0.206,-0.366 -0.476,-0.796 -0.668,-1.183 -0.206,-0.413 -0.475,-1.086 -0.574,-1.534 -0.396,-1.784 -0.286,-3.101 0.063,-4.885 0.076,-0.392 0.222,-0.761 0.426,-1.105 0.266,-0.446 0.553,-0.88 0.872,-1.291 0.319,-0.412 0.802,-0.505 1.253,-0.75 0.522,-0.284 1.164,-0.495 1.743,-0.468 0.532,0.025 0.871,0.033 1.4,-0.007 0.527,-0.04 1.009,0.008 1.526,0.101 l 0.305,-0.224 -0.122,-0.166 -0.09,-1.323 -0.127,-0.932 -0.084,-0.94 -0.045,-0.941 c 0,0 0.11,-0.35 0.11,-0.35 0.038,-0.115 0.375,-0.181 0.473,-0.215 0.599,-0.205 1.248,-0.342 1.892,-0.333 0.329,0.005 0.659,0.045 0.977,0.128 0.29,0.075 0.455,0.28 0.651,0.494 l -0.068,0.97 -0.169,0.952 -0.141,0.954 -0.012,0.969 -0.083,0.738 -0.143,0.095 0.354,0.121 1.149,-0.086 1.159,-0.008 0.951,0.025 0.802,0.096 0.052,0.01 0.901,0.363 0.817,0.593 0.659,0.765 c 0,0 0.414,0.813 0.417,0.818 0.362,0.709 0.503,1.325 0.539,2.126 0,0.805 0.098,1.594 0.037,2.396 C 0.523,-1.715 0.45,-1.352 0.35,-0.998 0.254,-0.658 0.133,-0.327 0,0"
             style="fill:#231f20;fill-opacity:1;fill-rule:nonzero;stroke:none"
             id="path58093" />
        </g>
      </g>
    </g>
  </g>
</svg>
