<?xml version="1.0" encoding="UTF-8" standalone="no"?>
<!-- Created with Inkscape (http://www.inkscape.org/) -->

<svg
   width="22.456963"
   height="24"
   viewBox="0 0 5.941738 6.35"
   version="1.1"
   id="svg4898"
   inkscape:version="1.2.1 (9c6d41e4, 2022-07-14)"
   sodipodi:docname="barkham-horror.svg"
   xmlns:inkscape="http://www.inkscape.org/namespaces/inkscape"
   xmlns:sodipodi="http://sodipodi.sourceforge.net/DTD/sodipodi-0.dtd"
   xmlns="http://www.w3.org/2000/svg"
   xmlns:svg="http://www.w3.org/2000/svg">
  <sodipodi:namedview
     id="namedview4900"
     pagecolor="#505050"
     bordercolor="#eeeeee"
     borderopacity="1"
     inkscape:showpageshadow="0"
     inkscape:pageopacity="0"
     inkscape:pagecheckerboard="0"
     inkscape:deskcolor="#505050"
     inkscape:document-units="mm"
     showgrid="false"
     inkscape:zoom="0.7046647"
     inkscape:cx="114.94829"
     inkscape:cy="169.5842"
     inkscape:window-width="1390"
     inkscape:window-height="941"
     inkscape:window-x="0"
     inkscape:window-y="25"
     inkscape:window-maximized="0"
     inkscape:current-layer="layer1" />
  <defs
     id="defs4895">
    <clipPath
       clipPathUnits="userSpaceOnUse"
       id="clipPath255">
      <path
         d="m 101.132,28.543 h 49.736 v 49.731 h -49.736 z"
         id="path253" />
    </clipPath>
  </defs>
  <g
     inkscape:label="Layer 1"
     inkscape:groupmode="layer"
     id="layer1"
     transform="translate(-74.752266,-103.83511)">
    <g
       id="g249"
       transform="matrix(0.18493495,0,0,-0.18493495,54.352783,116.88724)">
      <g
         id="g251"
         clip-path="url(#clipPath255)">
        <g
           id="g257"
           transform="matrix(0.3453881,0,0,-0.3453562,126,46.91571)">
          <g
             id="g259"
             transform="translate(31.6201,16.6007)">
            <path
               d="M 0,0 C -0.058,-0.158 -0.111,-0.318 -0.182,-0.47 -0.191,-3.76 -1.537,-7 -4.006,-9.292 c -1.736,-2.661 -4.184,-4.753 -6.762,-6.781 -2.44,-1.92 -4.667,-3.735 -6.505,-6.489 -1.852,-2.775 -3.275,-5.692 -5.77,-7.764 -4.422,-3.673 -10.603,-4.059 -15.302,-0.343 -2.31,1.828 -3.556,4.119 -4.968,6.889 -1.787,3.507 -4.62,5.867 -7.218,8.516 -2.8,2.855 -6.118,5.931 -7.913,9.804 -3.611,5.275 -3.346,12.226 2.324,16.402 6.302,4.644 14.128,4.168 19.991,0.509 1.609,0.664 3.437,1.101 5.525,1.244 4.588,0.316 9.169,-0.655 12.837,-2.921 3.983,2.233 8.538,2.63 13.092,-0.957 2.154,-1.696 3.473,-3.88 4.09,-6.194 l 0.119,0.005 C -0.293,1.801 -0.175,0.9 0,0"
               style="fill:#231f20;fill-opacity:1;fill-rule:nonzero;stroke:none"
               id="path261" />
          </g>
        </g>
        <g
           id="g263"
           transform="matrix(0.3453881,0,0,-0.3453562,126,46.91571)">
          <g
             id="g265"
             transform="translate(-2.8545,-35.706)">
            <path
               d="m 0,0 c -1.956,-8.678 -6.75,-23.723 -17.552,-17.857 -4.78,2.595 -6.135,8.374 -6.991,13.745 -0.943,5.921 -1.301,12.333 1.542,17.858 1.353,2.631 3.582,3.599 5.699,3.425 0.387,0.384 0.809,0.745 1.288,1.062 4.142,2.746 9.556,1.118 12.801,-2.213 C 0.798,11.901 1.292,5.733 0,0"
               style="fill:#231f20;fill-opacity:1;fill-rule:nonzero;stroke:none"
               id="path267" />
          </g>
        </g>
        <g
           id="g269"
           transform="matrix(0.3453881,0,0,-0.3453562,126,46.91571)">
          <g
             id="g271"
             transform="translate(-25.6797,-11.3241)">
            <path
               d="m 0,0 c -1.842,-2.147 -3.416,-4.417 -4.797,-6.888 -2.201,-3.934 -3.582,-8.587 -6.193,-12.265 -0.583,-0.222 -1.178,-0.407 -1.79,-0.545 -0.237,0.13 -0.474,0.263 -0.717,0.416 -4.562,2.876 -5.519,8.264 -6.008,13.228 -0.538,5.474 -0.465,11.326 2.721,16.027 1.517,2.238 3.79,2.872 5.876,2.482 0.41,0.307 0.852,0.587 1.347,0.822 C -5.272,15.313 -0.017,13.245 2.975,9.87 3.362,9.433 3.702,8.977 4.012,8.509 3.65,5.329 2.556,2.98 0,0"
               style="fill:#231f20;fill-opacity:1;fill-rule:nonzero;stroke:none"
               id="path273" />
          </g>
        </g>
        <g
           id="g275"
           transform="matrix(0.3453881,0,0,-0.3453562,126,46.91571)">
          <g
             id="g277"
             transform="translate(4.4531,-35.5527)">
            <path
               d="m 0,0 c 2.28,-8.598 7.637,-23.452 18.21,-17.185 4.679,2.773 5.816,8.598 6.47,13.997 0.719,5.953 0.837,12.374 -2.211,17.788 -1.451,2.579 -3.715,3.462 -5.824,3.209 -0.402,0.37 -0.836,0.713 -1.328,1.013 C 11.075,21.409 5.727,19.579 2.609,16.129 -1.245,11.863 -1.507,5.681 0,0"
               style="fill:#231f20;fill-opacity:1;fill-rule:nonzero;stroke:none"
               id="path279" />
          </g>
        </g>
        <g
           id="g281"
           transform="matrix(0.3453881,0,0,-0.3453562,126,46.91571)">
          <g
             id="g283"
             transform="translate(26.2744,-12.6825)">
            <path
               d="m 0,0 c 1.921,-2.076 3.579,-4.285 5.053,-6.702 2.347,-3.849 3.901,-8.447 6.649,-12.024 0.59,-0.2 1.193,-0.363 1.81,-0.477 0.231,0.139 0.464,0.281 0.7,0.442 4.451,3.046 5.205,8.467 5.507,13.446 0.333,5.489 0.039,11.335 -3.322,15.912 -1.599,2.179 -3.894,2.727 -5.964,2.259 C 10.012,13.147 9.56,13.411 9.056,13.628 4.694,15.502 -0.48,13.237 -3.343,9.752 -3.714,9.301 -4.036,8.831 -4.328,8.353 -3.848,5.189 -2.666,2.883 0,0"
               style="fill:#231f20;fill-opacity:1;fill-rule:nonzero;stroke:none"
               id="path285" />
          </g>
        </g>
        <g
           id="g287"
           transform="matrix(0.3453881,0,0,-0.3453562,126,46.91571)">
          <g
             id="g289"
             transform="translate(22.5674,-62.099)">
            <path
               d="M 0,0 C 0.009,-0.244 0.027,-0.489 0.035,-0.729 0.047,-1.097 0.068,-1.473 0.05,-1.841 0.022,-2.394 -0.117,-2.904 -0.314,-3.413 -0.437,-3.729 -0.551,-4.056 -0.708,-4.354 -0.736,-4.408 -0.765,-4.46 -0.795,-4.512 c -0.04,-0.205 -0.08,-0.41 -0.124,-0.615 -0.153,-0.718 -0.957,-1.318 -1.687,-1.285 -0.311,0.014 -0.609,0.094 -0.883,0.239 -0.337,0.178 -0.745,0.658 -0.805,1.046 -0.033,0.22 -0.071,0.44 -0.109,0.66 -0.104,0.191 -0.21,0.381 -0.301,0.58 -0.066,0.143 -0.126,0.288 -0.191,0.431 -0.114,0.258 -0.246,0.518 -0.334,0.785 -0.073,0.219 -0.092,0.452 -0.114,0.683 -0.029,0.193 -0.055,0.386 -0.089,0.579 -0.037,0.214 -0.072,0.436 -0.118,0.655 -0.302,0.522 -0.457,1.106 -0.484,1.716 -0.069,1.528 1.195,2.871 2.651,3.066 1.402,0.189 2.686,-0.593 3.23,-1.882 C 0.137,1.458 0.179,0.714 0,0"
               style="fill:#231f20;fill-opacity:1;fill-rule:nonzero;stroke:none"
               id="path291" />
          </g>
        </g>
        <g
           id="g293"
           transform="matrix(0.3453881,0,0,-0.3453562,126,46.91571)">
          <g
             id="g295"
             transform="translate(47.4609,-36.7944)">
            <path
               d="M 0,0 -0.022,-0.057 C -0.135,-0.323 -0.247,-0.589 -0.359,-0.855 -0.46,-1.047 -0.596,-1.215 -0.742,-1.373 -0.912,-1.625 -1.1,-1.866 -1.319,-2.081 -1.504,-2.261 -1.7,-2.447 -1.917,-2.597 -1.972,-2.713 -2.021,-2.83 -2.103,-2.938 -2.238,-3.117 -2.371,-3.289 -2.569,-3.405 -2.822,-3.554 -3.112,-3.599 -3.4,-3.56 c -0.234,0.032 -0.429,0.112 -0.616,0.257 -0.237,0.182 -0.345,0.386 -0.459,0.66 l 0.062,-0.148 c -0.046,0.109 -0.099,0.221 -0.141,0.335 -0.007,0.018 -0.013,0.037 -0.019,0.055 -0.043,0.035 -0.09,0.065 -0.131,0.102 -0.03,0.026 -0.06,0.052 -0.09,0.078 -0.023,0.02 -0.048,0.038 -0.071,0.058 -0.069,0.049 -0.128,0.104 -0.193,0.156 -0.041,0.032 -0.08,0.067 -0.121,0.098 0.03,-0.022 0.059,-0.045 0.087,-0.067 -0.073,0.062 -0.151,0.121 -0.212,0.194 -0.01,0.013 -0.022,0.026 -0.033,0.039 -0.091,0.07 -0.182,0.14 -0.272,0.211 -0.102,0.127 -0.201,0.255 -0.298,0.384 -0.209,0.211 -0.354,0.459 -0.434,0.745 -0.153,0.263 -0.23,0.547 -0.23,0.852 -0.037,0.272 -0.075,0.367 -0.05,0.58 0.039,0.296 0.079,0.593 0.119,0.889 0.104,0.436 0.303,0.814 0.599,1.138 0.148,0.251 0.348,0.451 0.6,0.6 0.323,0.295 0.702,0.495 1.137,0.598 0.297,0.04 0.593,0.08 0.89,0.12 0.297,-0.04 0.592,-0.08 0.889,-0.12 C -1.952,4.151 -1.572,3.951 -1.25,3.656 -0.886,3.42 -0.599,3.107 -0.388,2.717 -0.252,2.425 -0.086,2.138 -0.012,1.826 0.047,1.675 0.071,1.515 0.061,1.346 0.161,0.897 0.141,0.449 0,0"
               style="fill:#231f20;fill-opacity:1;fill-rule:nonzero;stroke:none"
               id="path297" />
          </g>
        </g>
        <g
           id="g299"
           transform="matrix(0.3453881,0,0,-0.3453562,126,46.91571)">
          <g
             id="g301"
             transform="translate(-15.7803,-62.6635)">
            <path
               d="m 0,0 c -0.144,-0.341 -0.157,-0.382 -0.312,-0.586 -0.1,-0.13 -0.206,-0.257 -0.306,-0.387 -0.002,-0.006 -0.003,-0.01 -0.004,-0.016 0.088,0.114 0.177,0.229 0.266,0.344 -0.02,-0.026 -0.032,-0.042 -0.056,-0.072 L -0.623,-0.99 c -0.005,-0.028 -0.014,-0.056 -0.02,-0.085 -0.028,-0.13 -0.07,-0.254 -0.116,-0.378 -0.012,-0.171 -0.025,-0.342 -0.034,-0.513 -0.007,-0.14 -0.01,-0.281 -0.019,-0.422 -0.026,-0.42 -0.121,-0.782 -0.323,-1.152 -0.245,-0.448 -0.703,-0.715 -1.195,-0.781 -0.473,-0.064 -1.05,0.059 -1.374,0.45 -0.247,0.299 -0.464,0.58 -0.566,0.969 -0.039,0.148 -0.064,0.302 -0.095,0.452 -0.055,0.275 -0.105,0.551 -0.153,0.827 -0.076,0.163 -0.148,0.328 -0.195,0.504 -0.006,0.02 -0.012,0.04 -0.017,0.061 -0.502,0.633 -0.92,1.361 -0.89,2.189 0.024,0.662 0.118,1.263 0.465,1.836 0.172,0.283 0.34,0.496 0.572,0.695 0.348,0.346 0.758,0.585 1.23,0.717 0.255,0.051 0.511,0.085 0.769,0.102 0.98,0.067 1.857,-0.58 2.364,-1.356 C -0.071,2.896 0.022,2.592 0.104,2.33 0.203,2.021 0.242,1.674 0.25,1.35 0.25,1.293 0.253,1.235 0.252,1.178 0.248,0.766 0.159,0.375 0,0"
               style="fill:#231f20;fill-opacity:1;fill-rule:nonzero;stroke:none"
               id="path303" />
          </g>
        </g>
        <g
           id="g305"
           transform="matrix(0.3453881,0,0,-0.3453562,126,46.91571)">
          <g
             id="g307"
             transform="translate(-16.0669,-63.2187)">
            <path
               d="m 0,0 c -0.023,-0.03 -0.047,-0.06 -0.07,-0.09 0.016,0.021 0.031,0.041 0.045,0.059 z"
               style="fill:#231f20;fill-opacity:1;fill-rule:nonzero;stroke:none"
               id="path309" />
          </g>
        </g>
        <g
           id="g311"
           transform="matrix(0.3453881,0,0,-0.3453562,126,46.91571)">
          <g
             id="g313"
             transform="translate(-39.5659,-38.0234)">
            <path
               d="m 0,0 c -0.119,-0.366 -0.323,-0.683 -0.611,-0.951 l -0.272,-0.21 c -0.087,-0.276 -0.162,-0.558 -0.228,-0.835 -0.071,-0.292 -0.175,-0.558 -0.304,-0.83 0,-0.007 0.002,-0.007 -0.012,-0.051 -0.02,-0.099 -0.053,-0.197 -0.079,-0.295 -0.1,-0.388 -0.452,-0.671 -0.839,-0.724 -0.426,-0.057 -0.762,0.146 -1.007,0.483 -0.051,0.071 -0.102,0.142 -0.152,0.214 -0.023,0.026 -0.047,0.052 -0.07,0.077 -0.202,0.229 -0.373,0.462 -0.502,0.739 -0.162,0.351 -0.302,0.713 -0.445,1.073 -0.055,0.113 -0.137,0.211 -0.2,0.321 -0.209,0.18 -0.395,0.384 -0.531,0.636 -0.373,0.707 -0.508,1.491 -0.298,2.277 0.007,0.027 0.014,0.054 0.021,0.081 0.182,0.68 0.72,1.423 1.352,1.757 0.234,0.098 0.468,0.197 0.702,0.296 0.391,0.123 0.782,0.14 1.172,0.053 C -2.037,4.11 -1.79,4.043 -1.561,3.91 -1.196,3.792 -0.881,3.589 -0.614,3.302 -0.461,3.104 -0.308,2.905 -0.155,2.707 0.111,2.249 0.245,1.754 0.247,1.223 0.25,1.195 0.252,1.167 0.254,1.139 0.27,0.732 0.185,0.353 0,0"
               style="fill:#231f20;fill-opacity:1;fill-rule:nonzero;stroke:none"
               id="path315" />
          </g>
        </g>
      </g>
    </g>
  </g>
</svg>
