<svg width="9" height="24" viewBox="0 0 9 24" fill="none" xmlns="http://www.w3.org/2000/svg">
  <path d="M3.62099 0.483246C4.03292 -0.176724 4.39876 -0.145262 4.72436 0.483246C5.34189 1.74612 6.35672 2.46974 7.42277 3.11801C8.1142 3.34702 8.33151 3.88992 8.40614 4.53014C8.44565 5.68472 7.97153 5.61667 7.4857 5.51058C5.41872 4.83305 3.35539 5.03646 1.29207 5.51058C0.291873 5.88227 -0.0344536 5.5018 0.00286179 4.71306C0.291873 3.09825 0.966477 3.36165 1.47499 2.8129C2.5725 2.18366 3.03565 1.30931 3.62099 0.483246Z" fill="#100F0D"/>
  <path d="M6.53087 18.5351L6.46502 21.6389C4.92484 21.4589 3.52954 22.1394 2.28057 23.2478L2.26082 20.5158C3.95538 18.2549 5.11581 18.5893 6.53087 18.5351ZM5.52774 13.2649C5.86212 13.2678 6.19942 13.2846 6.55355 13.27L6.4877 16.3774C4.94753 16.1967 3.55295 16.8742 2.30399 17.9834L2.28057 15.1226C3.55588 13.4244 4.52462 13.2649 5.52774 13.2649M4.93875 7.98877C5.43921 7.97414 5.93675 8.05169 6.46502 8.0312V10.9155C4.92484 10.7355 3.46442 11.6325 2.21545 12.7447L2.19204 9.70308C3.25516 8.29168 4.10464 8.01145 4.93875 7.98877ZM4.32414 6.99954C3.53247 6.98857 2.73787 7.0654 1.9462 7.26295V24C3.65027 23.7622 5.23361 23.7622 6.70208 24V7.26295C5.91041 7.10856 5.11581 7.00832 4.32414 6.99954" fill="#100F0D"/>
  <path d="M1.58328 6.04616C3.49588 5.46302 5.44506 5.39717 7.25083 6.04616C8.30006 6.04909 8.02568 6.98344 7.19084 7.22928C5.14215 6.9549 3.25809 7.00904 1.46036 7.22928C0.809172 7.02075 0.597718 6.08055 1.58328 6.04616Z" fill="#100F0D"/>
</svg>
