<?xml version="1.0" encoding="UTF-8" standalone="no"?>
<!-- Created with Inkscape (http://www.inkscape.org/) -->

<svg
   width="27.414661"
   height="24"
   viewBox="0 0 7.2534625 6.35"
   version="1.1"
   id="svg7258"
   inkscape:version="1.2.1 (9c6d41e4, 2022-07-14)"
   sodipodi:docname="murder-at-the-excelsior-hotel.svg"
   xmlns:inkscape="http://www.inkscape.org/namespaces/inkscape"
   xmlns:sodipodi="http://sodipodi.sourceforge.net/DTD/sodipodi-0.dtd"
   xmlns="http://www.w3.org/2000/svg"
   xmlns:svg="http://www.w3.org/2000/svg">
  <sodipodi:namedview
     id="namedview7260"
     pagecolor="#505050"
     bordercolor="#eeeeee"
     borderopacity="1"
     inkscape:showpageshadow="0"
     inkscape:pageopacity="0"
     inkscape:pagecheckerboard="0"
     inkscape:deskcolor="#505050"
     inkscape:document-units="mm"
     showgrid="false"
     inkscape:zoom="0.7046647"
     inkscape:cx="72.374847"
     inkscape:cy="131.2681"
     inkscape:window-width="1390"
     inkscape:window-height="941"
     inkscape:window-x="0"
     inkscape:window-y="25"
     inkscape:window-maximized="0"
     inkscape:current-layer="layer1" />
  <defs
     id="defs7255">
    <clipPath
       clipPathUnits="userSpaceOnUse"
       id="clipPath241">
      <path
         d="m 98.369,28.543 h 55.262 V 83.8 H 98.369 Z"
         id="path239" />
    </clipPath>
  </defs>
  <g
     inkscape:label="Layer 1"
     inkscape:groupmode="layer"
     id="layer1"
     transform="translate(-86.111575,-113.97291)">
    <g
       id="g235"
       transform="matrix(0.15874529,0,0,-0.15874529,69.684903,126.21565)">
      <g
         id="g237"
         clip-path="url(#clipPath241)">
        <g
           id="g243"
           transform="matrix(0.3837645,0,0,-0.3837291,126,48.957123)">
          <g
             id="g245"
             transform="translate(57.7178,-65.6703)">
            <path
               d="M 0,0 C -0.136,0.077 -0.24,0.147 -0.35,0.217 -0.202,0.212 -0.083,0.144 0,0"
               style="fill:#231f20;fill-opacity:1;fill-rule:nonzero;stroke:none"
               id="path247" />
          </g>
        </g>
        <g
           id="g249"
           transform="matrix(0.3837645,0,0,-0.3837291,126,48.957123)">
          <g
             id="g251"
             transform="translate(60.1494,-60.4906)">
            <path
               d="m 0,0 c -0.387,-1.067 -1.216,-2.157 -2.04,-2.938 -0.402,-0.381 -0.866,-0.427 -1.332,-0.688 -0.307,-0.172 -0.569,-0.582 0.591,-1.336 -0.01,0 -0.017,0.007 -0.027,0.006 -0.375,-0.612 -0.848,-1.238 -1.317,-1.778 -0.581,-0.669 -1.41,-1.121 -2.101,-1.674 -0.841,-0.674 -1.802,-1.009 -2.678,-1.609 -0.834,-0.57 -1.614,-1.147 -2.549,-1.546 -1.706,-0.729 -3.188,-1.529 -5.08,-1.306 -0.581,0.068 -1.193,0.236 -1.748,0.418 -0.81,0.264 -1.587,0.429 -2.406,0.655 -1.003,0.277 -2.016,0.55 -2.996,0.902 -1.787,0.644 -3.713,0.946 -5.431,1.755 -1.364,0.643 -2.739,1.212 -4.17,1.666 -0.633,0.201 -1.137,0.567 -1.721,0.863 -0.808,0.407 -1.644,0.713 -2.441,1.15 -1.268,0.695 -2.521,1.449 -3.704,2.278 -1.063,0.744 -2.278,1.406 -3.203,2.315 -0.889,0.876 -1.862,1.636 -2.758,2.502 -0.496,0.478 -1.056,0.895 -1.589,1.332 -0.678,0.555 -1.219,1.222 -1.892,1.774 -0.625,0.512 -1.283,0.928 -1.838,1.528 -0.352,0.382 -0.612,0.833 -0.966,1.209 -0.698,0.744 -1.378,1.511 -1.992,2.323 -0.31,0.41 -0.472,0.827 -0.715,1.312 -0.266,0.533 -0.528,0.957 -0.886,1.371 -0.419,0.484 -0.461,1.167 -0.709,1.724 -0.19,0.424 -0.393,0.84 -0.446,1.304 -0.056,0.495 0.157,1.123 -0.096,1.555 -0.257,0.436 -0.875,0.644 -1.228,0.983 -0.2,0.193 -0.301,0.499 -0.534,0.65 -0.248,0.16 -0.496,0.102 -0.779,0.169 -0.539,0.125 -0.894,0.287 -1.31,0.651 -0.665,0.581 -1.213,1.42 -1.6,2.211 -0.181,0.37 -0.392,0.794 -0.621,1.129 -0.143,0.21 -0.356,0.352 -0.492,0.574 -0.288,0.47 -0.157,1.149 -0.16,1.68 -0.001,0.31 -0.081,0.687 0.038,0.978 0.066,0.163 0.297,0.26 0.365,0.424 0.1,0.239 0.026,0.524 0.056,0.773 0.103,0.856 0.526,1.708 0.697,2.559 0.434,2.149 0.681,4.387 1.007,6.555 0.257,1.705 0.147,3.737 -0.172,5.421 -0.401,2.123 -1.272,4.034 -2.145,5.995 -0.882,1.978 -1.874,3.868 -2.941,5.752 -0.551,0.973 -1.151,1.92 -1.689,2.899 -0.595,1.086 -1.405,1.965 -2.063,3.005 -1.283,2.027 -2.637,3.993 -4.216,5.809 -0.77,0.883 -1.533,1.817 -2.368,2.636 -0.791,0.777 -1.398,1.72 -2.252,2.427 -3.17,2.627 -6.726,4.811 -10.31,6.83 -0.727,0.41 -1.464,0.802 -2.195,1.205 -0.824,0.453 -1.638,1.059 -2.52,1.39 -1.383,0.518 -2.731,1.065 -4.092,1.642 -1.541,0.651 -3.099,1.308 -4.602,2.04 -1.294,0.63 -2.576,0.938 -3.908,1.432 -1.881,0.697 -3.746,1.22 -5.688,1.75 -1.13,0.309 -2.222,0.702 -3.392,0.837 -0.408,0.046 -1.088,0.305 -1.482,0.265 0.243,-0.045 0.368,0.134 0.571,0.22 0.375,0.158 0.777,0.179 1.168,0.269 0.58,0.133 1.082,0.343 1.684,0.386 1.183,0.085 2.17,0.614 3.318,0.843 1.832,0.363 3.704,0.401 5.538,0.72 2.872,0.498 5.649,0.889 8.571,0.859 1.236,-0.013 2.424,0.182 3.654,0.237 1.422,0.062 2.865,-0.012 4.288,-0.012 2.387,0 4.875,0.198 7.252,-0.044 1.893,-0.192 3.873,-0.458 5.675,-1.063 0.796,-0.269 1.617,-0.522 2.421,-0.771 0.681,-0.212 1.335,-0.52 2.01,-0.716 2.163,-0.629 4.26,-1.405 6.287,-2.412 3.107,-1.542 6.201,-3.18 8.987,-5.277 2.052,-1.543 3.886,-3.45 5.492,-5.447 1.594,-1.982 3.204,-4.153 4.344,-6.43 0.473,-0.945 0.665,-1.986 1.123,-2.942 0.381,-0.794 0.869,-1.534 1.2,-2.354 0.839,-2.074 1.517,-4.24 2.143,-6.387 0.791,-2.716 1.684,-5.43 2.381,-8.17 0.284,-1.115 0.352,-2.164 0.474,-3.294 0.121,-1.127 0.368,-2.244 0.51,-3.369 0.094,-0.75 0.229,-1.672 0.106,-2.433 -0.093,-0.58 -0.405,-1.027 -0.71,-1.555 -0.945,-1.638 -1.843,-3.285 -2.977,-4.803 -0.48,-0.642 -1.041,-1.211 -1.51,-1.863 -0.217,-0.303 -0.358,-0.659 -0.583,-0.95 -0.35,-0.452 -0.851,-0.39 -1.298,-0.655 -0.208,-0.123 -0.35,-0.339 -0.539,-0.491 0.277,-0.31 0.491,-0.96 0.68,-1.353 0.23,-0.479 0.525,-0.983 0.552,-1.514 0.017,-0.333 -0.018,-0.486 -0.133,-0.779 -0.167,-0.424 -0.241,-0.744 -0.341,-1.192 -0.125,-0.569 -0.374,-1.298 -0.157,-1.874 0.324,-0.857 1.191,-1.339 1.769,-1.977 0.671,-0.739 1.466,-1.35 2.21,-2.017 0.848,-0.759 1.776,-1.486 2.533,-2.338 0.403,-0.453 0.748,-0.796 1.249,-1.146 0.9,-0.629 1.651,-1.427 2.498,-2.123 1.038,-0.853 2.363,-1.45 3.562,-2.05 1.377,-0.689 2.844,-1.194 4.191,-1.948 1.838,-1.028 3.851,-1.72 5.852,-2.383 0.901,-0.299 1.821,-0.502 2.731,-0.765 1.534,-0.441 2.986,-1.218 4.553,-1.544 0.93,-0.194 1.798,-0.474 2.743,-0.591 1.539,-0.191 3.074,-0.442 4.598,-0.728 0.892,-0.167 1.741,-0.329 2.647,-0.324 1.248,0.007 2.516,0.067 3.762,0.011 C -0.839,3.157 0.187,3.078 0.22,1.994 0.241,1.308 0.235,0.65 0,0"
               style="fill:#231f20;fill-opacity:1;fill-rule:nonzero;stroke:none"
               id="path253" />
          </g>
        </g>
      </g>
    </g>
  </g>
</svg>
