<svg width="24" height="24" viewBox="0 0 24 24" fill="none" xmlns="http://www.w3.org/2000/svg">
  <path d="M15.5961 14.7726C15.6183 14.7504 15.6405 14.7504 15.6405 14.7726C15.6627 14.7726 15.6959 14.7726 15.7292 14.7726C15.8179 14.7726 15.9177 14.7948 16.0397 14.817C16.1506 14.817 16.2616 14.8391 16.3503 14.8613C16.7052 14.8946 17.0268 14.9501 17.3262 15.0388C17.6479 15.1275 17.9695 15.2384 18.3022 15.3493C18.3244 15.3493 18.3688 15.3493 18.4353 15.3493H18.4797C18.4797 15.3271 18.4797 15.305 18.4797 15.305C18.4797 15.2828 18.4797 15.2606 18.4797 15.2606C18.3022 14.8835 18.1248 14.4953 17.9473 14.1072C17.7921 13.7301 17.6479 13.3308 17.5037 12.9094C17.415 12.7319 17.3373 12.5989 17.2819 12.5101C17.2486 12.4214 17.2153 12.3549 17.1932 12.2883C17.1932 12.1996 17.1599 12.1109 17.1044 12.0221C17.0712 11.9334 16.9935 11.8003 16.8826 11.6229C16.8826 11.6229 16.8937 11.6118 16.927 11.5785C16.9824 11.5231 17.0379 11.4787 17.1044 11.4454C17.1599 11.39 17.2153 11.3456 17.2819 11.3124C17.3373 11.2902 17.3706 11.2569 17.3706 11.2236C17.3928 11.2015 17.4372 11.1793 17.5037 11.1793C17.5591 11.1571 17.6035 11.1238 17.6368 11.0905C17.659 11.0684 17.7033 11.0351 17.7699 11.0018C17.8253 10.9796 17.8697 10.9353 17.903 10.8687C17.9251 10.8687 17.9584 10.902 17.9917 10.9575C18.1026 11.0795 18.2246 11.2014 18.3466 11.3124C18.4575 11.4343 18.5795 11.5674 18.7015 11.7116C19.0564 12.0998 19.3891 12.5101 19.7218 12.9538C20.0434 13.3752 20.3429 13.7966 20.6091 14.2403C20.8974 14.6617 21.1858 15.0831 21.4519 15.5268C21.7181 15.9482 21.9621 16.3697 22.2061 16.8133L23.4926 19.2088C23.5148 19.2643 23.537 19.2976 23.537 19.2976C23.537 19.353 23.537 19.3863 23.537 19.3863C23.4482 19.3863 23.3595 19.3863 23.2708 19.3863C23.2043 19.3863 23.1377 19.353 23.049 19.2976C22.8383 19.2643 22.6275 19.2199 22.4279 19.1645C22.2172 19.0979 22.0065 19.0314 21.8068 18.9427C21.4187 18.8539 21.0305 18.743 20.6534 18.6321C20.2652 18.5101 19.8993 18.3881 19.5444 18.2772C19.1562 18.1663 18.768 18.0443 18.3909 17.9223C18.036 17.8114 17.6811 17.6783 17.3262 17.5231C16.9935 17.3789 16.6608 17.2458 16.3059 17.1238C15.951 16.9796 15.6072 16.8465 15.2856 16.7246C14.5758 16.4362 13.8882 16.1478 13.2449 15.8817C12.5906 15.6155 11.9362 15.3271 11.293 14.9944C10.8715 14.7948 10.4612 14.5841 10.0508 14.3734C9.66266 14.1737 9.2634 13.9519 8.85305 13.7079C8.69778 13.6192 8.5536 13.5526 8.40943 13.4861C8.25416 13.3974 8.10998 13.3087 7.9658 13.2199C7.93253 13.1977 7.89926 13.1645 7.87708 13.1312C7.84381 13.109 7.81053 13.0758 7.78835 13.0425C7.63309 12.9538 7.58873 12.8429 7.65527 12.6876C7.65527 12.6654 7.65527 12.6321 7.65527 12.5989C7.65527 12.5767 7.65527 12.5545 7.65527 12.5545C7.67744 12.5323 7.72181 12.5101 7.78835 12.5101L7.92144 12.5545C8.24307 12.7098 8.49815 12.8207 8.6756 12.9094C8.87523 12.9759 9.07486 13.0425 9.25231 13.1312C9.42976 13.1977 9.6183 13.2643 9.82902 13.353C10.0286 13.4196 10.2948 13.5194 10.6275 13.6636C10.9492 13.8188 11.2708 13.9519 11.6035 14.0628C11.9584 14.1848 12.3133 14.2846 12.6682 14.3734C12.9011 14.4621 13.1562 14.5397 13.4224 14.5952C13.6885 14.6617 13.9325 14.7172 14.1765 14.7726V14.7282L14.0434 14.5952V14.5508H14.1765C14.1765 14.5508 14.1876 14.5508 14.2209 14.5508C14.3651 14.5841 14.4981 14.6284 14.6201 14.6839C14.7643 14.7172 14.8974 14.7615 15.0194 14.817C15.1081 14.817 15.1747 14.8391 15.2412 14.8613C15.2967 14.8613 15.3743 14.8835 15.463 14.9057C15.4852 14.9057 15.5518 14.9057 15.6405 14.9057C15.6405 14.9057 15.6405 14.8946 15.6405 14.8613C15.6405 14.8613 15.6183 14.8613 15.5961 14.8613C15.5961 14.8392 15.5961 14.8059 15.5961 14.7726H15.6405H15.5961ZM11.1599 15.6599C11.1599 15.6931 11.1377 15.7264 11.1155 15.7486C10.9048 16.048 10.6941 16.3253 10.4945 16.5915C10.2837 16.8576 10.073 17.1238 9.87338 17.39C9.75139 17.5453 9.62939 17.6894 9.51848 17.8336C9.42976 17.9889 9.34103 18.1331 9.25231 18.2772C9.04159 18.5989 8.85305 18.9205 8.6756 19.2532C8.52033 19.5748 8.38725 19.9186 8.27634 20.2735C8.09889 20.7393 7.97689 21.2606 7.92144 21.8262C7.88817 21.9704 7.87708 22.1146 7.87708 22.2698C7.87708 22.414 7.87708 22.5582 7.87708 22.7135C7.87708 22.7356 7.85491 22.7689 7.83272 22.8022C7.83272 22.7689 7.81053 22.7578 7.78835 22.7578C7.69963 22.6358 7.61091 22.5138 7.52218 22.4029C7.45564 22.2809 7.38909 22.1589 7.30037 22.048C7.2671 21.9815 7.22273 21.9371 7.16728 21.9149C7.16728 21.9371 7.14511 21.9593 7.12292 21.9593C7.12292 21.9815 7.13402 22.0148 7.16728 22.048L7.30037 22.8022C7.35582 22.9796 7.40018 23.1349 7.43346 23.2902C7.45563 23.4676 7.48891 23.6229 7.52218 23.7782C7.54436 23.8003 7.56654 23.8669 7.56654 23.9556C7.56654 23.9778 7.54436 24 7.52218 24C7.52218 24 7.52218 23.9778 7.52218 23.9556C7.48891 23.9556 7.45564 23.9556 7.43346 23.9556C7.40018 23.8891 7.35582 23.8336 7.30037 23.7782C7.2671 23.7449 7.22273 23.7005 7.16728 23.6451C7.10074 23.5563 7.0342 23.4454 6.94547 23.3345C6.87893 23.2125 6.82347 23.0905 6.76802 22.9796C6.61276 22.7356 6.47967 22.4916 6.36876 22.2255C6.24676 21.9593 6.14695 21.7042 6.05823 21.4713C5.75878 20.7615 5.53697 20.0074 5.39279 19.2088C5.30407 18.7874 5.2597 18.3881 5.2597 18.0111V17.7892C5.2597 17.7671 5.27081 17.7449 5.30407 17.7449V17.7892C5.30407 17.8225 5.32624 17.9002 5.39279 18.0111C5.41497 18.1331 5.44824 18.2551 5.48152 18.366C5.53697 18.4769 5.58133 18.5989 5.6146 18.7209C5.6146 18.743 5.6257 18.8096 5.65897 18.8983C5.65897 18.8983 5.67007 18.9094 5.70333 18.9427C5.7255 18.9648 5.74769 18.9538 5.74769 18.8983C5.74769 18.8096 5.72552 18.743 5.70333 18.7209C5.70333 18.5434 5.68115 18.377 5.65897 18.2329C5.62569 18.0887 5.6146 17.9445 5.6146 17.7892C5.6146 17.5563 5.59243 17.3345 5.57024 17.1238C5.57024 16.8909 5.57024 16.658 5.57024 16.414C5.59241 16.1811 5.6146 15.926 5.6146 15.6599C5.6146 15.3937 5.6257 15.1497 5.65897 14.9057L5.74769 14.0628C5.74769 14.0074 5.74769 13.9297 5.74769 13.841C5.74769 13.7301 5.75879 13.6192 5.79205 13.5305C5.81423 13.2421 5.8475 12.9538 5.88078 12.6876C5.90295 12.4214 5.93623 12.1441 5.9695 11.8447C6.02495 11.6118 6.06932 11.3789 6.10259 11.1349C6.12476 10.8687 6.15804 10.6247 6.19131 10.3807C6.24676 10.0924 6.29113 9.79295 6.3244 9.4935C6.37985 9.20514 6.42421 8.9057 6.45749 8.60625C6.45749 8.58408 6.46859 8.5508 6.50185 8.51753C6.50185 8.46208 6.52402 8.4288 6.59057 8.4288C6.61275 8.46208 6.64603 8.47317 6.6793 8.47317C6.73475 8.47317 6.77911 8.47317 6.81238 8.47317C6.90111 8.50644 7.01201 8.51753 7.16728 8.51753C7.31146 8.51753 7.41128 8.5397 7.47782 8.56189C7.56654 8.59516 7.58873 8.63953 7.56654 8.69498C7.53327 8.81697 7.5 8.93897 7.47782 9.04988C7.47782 9.17187 7.45564 9.30496 7.43346 9.44914C7.34473 9.98148 7.27819 10.5804 7.25601 11.2236C7.22273 11.878 7.22273 12.4658 7.25601 12.9981C7.25601 13.1756 7.25601 13.353 7.25601 13.5305C7.27818 13.6857 7.31146 13.841 7.34473 14.0185C7.34473 14.1737 7.34473 14.3068 7.34473 14.4177C7.36691 14.5397 7.38909 14.6728 7.38909 14.817C7.41127 14.939 7.43346 15.061 7.43346 15.1719C7.43346 15.2939 7.44456 15.4159 7.47782 15.5268C7.47782 15.682 7.48892 15.8373 7.52218 16.0148C7.54436 16.17 7.56654 16.3142 7.56654 16.4584C7.56654 16.4917 7.56654 16.5027 7.56654 16.5027C7.56654 16.5027 7.53327 16.5027 7.47782 16.5027C7.44455 16.4806 7.41128 16.4362 7.38909 16.3697L7.34473 16.414H7.30037V16.4584C7.35582 16.5471 7.38909 16.658 7.38909 16.7689C7.41127 16.8576 7.44455 16.9464 7.47782 17.0351C7.53327 17.0684 7.57763 17.0684 7.61091 17.0351C7.61091 17.0129 7.63308 16.9685 7.69963 16.902C7.81053 16.7578 7.93253 16.6136 8.05453 16.4584C8.16543 16.2809 8.28743 16.1035 8.40943 15.926C8.58688 15.7264 8.76433 15.5157 8.94177 15.305C9.11922 15.0721 9.29667 14.8392 9.47412 14.5952L9.65157 14.5064C9.67374 14.451 9.7403 14.4953 9.82902 14.6395C9.93992 14.7615 10.0286 14.8392 10.0952 14.8613C10.2394 14.9833 10.4057 15.1053 10.5832 15.2162C10.7606 15.3382 10.9381 15.4602 11.1155 15.5711C11.1155 15.5711 11.1266 15.6044 11.1599 15.6599ZM3.2634 8.11827C3.2634 8.11827 3.2745 8.14044 3.30776 8.16263C3.36322 8.22917 3.40758 8.28463 3.44085 8.34008C3.4963 8.40662 3.55175 8.45099 3.6183 8.47317C3.70702 8.56189 3.77357 8.62844 3.84011 8.65062C3.92884 8.73934 3.99538 8.82806 4.06192 8.91679C4.15065 8.98333 4.23937 9.04988 4.3281 9.1386C4.47227 9.2606 4.60536 9.36041 4.72736 9.44914C4.83826 9.53786 4.97135 9.65986 5.12662 9.80404C5.21534 9.87058 5.30407 9.92603 5.39279 9.98148C5.5037 10.048 5.6146 10.1146 5.70333 10.2033C5.8475 10.3253 5.90296 10.4695 5.88078 10.6469C5.88078 10.6802 5.8586 10.7578 5.83641 10.8687C5.80314 10.9907 5.79205 11.0684 5.79205 11.0905C5.79205 11.1571 5.76988 11.2125 5.74769 11.268C5.74769 11.3345 5.72552 11.4011 5.70333 11.4898H5.65897C5.62569 11.4898 5.59242 11.4676 5.57024 11.4011C5.1488 11.1349 4.73845 10.8576 4.3281 10.5582C3.93993 10.2366 3.55175 9.89276 3.17468 9.53786C2.43161 8.86134 1.79945 8.14045 1.2671 7.36411C0.756933 6.63213 0.35767 5.81143 0.0693166 4.92418C0.0360442 4.81328 0.0249543 4.73564 0.0249543 4.70237C-0.00831811 4.6802 -0.00831811 4.65801 0.0249543 4.65801C0.0471369 4.63584 0.0804065 4.61365 0.113679 4.61365C0.202403 4.64692 0.268945 4.69128 0.33549 4.74673C0.35767 4.74673 0.379853 4.74673 0.379853 4.74673C0.579484 4.902 0.790203 5.03509 1.00092 5.14599C1.23383 5.26799 1.46673 5.38999 1.71072 5.50089C1.8549 5.56744 1.99908 5.62289 2.15434 5.67834C2.29852 5.74488 2.46488 5.78925 2.64233 5.81143C3.08595 5.9667 3.5074 6.09978 3.92884 6.21069C4.37246 6.33269 4.81608 6.46577 5.2597 6.60995C5.58133 6.6765 5.89187 6.74304 6.19131 6.83176C6.51294 6.8983 6.83456 6.94267 7.16728 6.96485C7.34473 6.99812 7.5 7.03139 7.65527 7.05357C7.83272 7.08685 8.02126 7.09794 8.23198 7.09794L8.80869 7.18666C9.00832 7.21993 9.21904 7.2532 9.42976 7.27538C9.62939 7.27538 9.82902 7.29756 10.0065 7.31975C10.0952 7.35302 10.1839 7.36411 10.2726 7.36411C10.3835 7.36411 10.5055 7.36411 10.6275 7.36411C10.7163 7.39738 10.7828 7.40847 10.8494 7.40847C10.9381 7.40847 11.0268 7.43065 11.1155 7.45283C11.293 7.45283 11.4482 7.47501 11.6035 7.4972C11.781 7.4972 11.9584 7.4972 12.1359 7.4972C12.2468 7.4972 12.3577 7.51937 12.4464 7.54156C12.5573 7.54156 12.6793 7.54156 12.8013 7.54156C12.8567 7.54156 12.9344 7.56373 13.0231 7.58592C13.1118 7.61919 13.2006 7.67465 13.2893 7.76337C13.378 7.82991 13.4445 7.89646 13.5111 7.98518C13.5998 8.07391 13.6885 8.16263 13.7773 8.25136L13.7329 8.29572C13.6996 8.29572 13.6664 8.31789 13.6442 8.34008C13.6442 8.34008 13.6109 8.34008 13.5555 8.34008C13.0453 8.34008 12.5351 8.34008 12.0028 8.34008C11.4926 8.34008 10.9935 8.32898 10.4945 8.29572C10.2837 8.29572 10.073 8.29572 9.87338 8.29572C9.66266 8.29572 9.45194 8.28462 9.25231 8.25136C9.13031 8.22917 8.99723 8.20699 8.85305 8.20699C8.73105 8.20699 8.59797 8.19589 8.45379 8.16263C8.36506 8.16263 8.27634 8.16263 8.18762 8.16263C8.12107 8.16263 8.05453 8.15153 7.9658 8.11827C7.52218 8.06282 7.08965 8.00736 6.6793 7.94082C6.29113 7.88537 5.89187 7.79664 5.48152 7.67465C5.30407 7.65247 5.12662 7.61919 4.94917 7.58592C4.7939 7.53047 4.61645 7.47502 4.41682 7.40847C4.38355 7.40847 4.35028 7.40847 4.3281 7.40847C4.29482 7.38629 4.26155 7.36411 4.23937 7.36411L4.19501 7.40847V7.45283C4.25046 7.48611 4.28373 7.4972 4.28373 7.4972C4.48337 7.56374 4.68299 7.63028 4.86044 7.71901C5.06007 7.78555 5.2597 7.841 5.43715 7.89646C5.49261 7.92973 5.54806 7.963 5.6146 7.98518C5.67005 7.98518 5.72551 8.00736 5.79205 8.02954V8.07391C5.79205 8.10718 5.79205 8.11827 5.79205 8.11827C5.67005 8.11827 5.54806 8.11827 5.43715 8.11827C5.34843 8.09609 5.23752 8.06282 5.12662 8.02954L4.23937 7.98518C4.2061 7.98518 4.17283 7.98518 4.15065 7.98518H4.10628V8.02954L4.28373 8.11827C4.30591 8.15154 4.35028 8.18481 4.41682 8.20699C4.439 8.20699 4.46118 8.22917 4.46118 8.25136L4.41682 8.29572C4.2061 8.32899 4.02865 8.3179 3.88447 8.25136C3.79575 8.22917 3.70702 8.20699 3.6183 8.20699C3.52958 8.18481 3.44085 8.15154 3.35213 8.11827C3.28558 8.11827 3.2634 8.11827 3.2634 8.11827ZM6.90111 6.52123C6.90111 6.4325 6.90111 6.34378 6.90111 6.25505C6.92328 6.16633 6.95656 6.0776 6.98983 5.98888C7.01201 5.90015 7.0342 5.81143 7.0342 5.7227C7.05637 5.63398 7.08965 5.54526 7.12292 5.45653L7.30037 4.92418C7.32255 4.83546 7.34473 4.76891 7.34473 4.70237C7.36691 4.61365 7.40018 4.52492 7.43346 4.4362L7.56654 3.90385C7.58873 3.81513 7.61091 3.7264 7.61091 3.63768C7.63309 3.52677 7.66636 3.41587 7.69963 3.32714L7.83272 2.79479C7.88817 2.70607 7.92144 2.63952 7.92144 2.57298C7.92144 2.48426 7.93254 2.39553 7.9658 2.30681L8.14325 1.77446L8.27634 1.24211C8.29851 1.06466 8.34288 0.887215 8.40943 0.709766C8.4316 0.709766 8.45379 0.73194 8.45379 0.754128C8.47596 0.754128 8.49815 0.754128 8.49815 0.754128C8.5536 0.787401 8.58688 0.776302 8.58688 0.709766V0.487955C8.58688 0.39923 8.58688 0.266143 8.58688 0.0886941C8.60905 0.06652 8.63124 0.0443318 8.63124 0.0443318C8.63124 0.0443318 8.63124 0.0332306 8.63124 -3.05176e-05H8.6756C8.6756 0.0332419 8.6867 0.0443318 8.71996 0.0443318C8.74214 0.133056 8.77542 0.199601 8.80869 0.221781C8.89741 0.465775 8.99723 0.687584 9.11922 0.887215C9.23013 1.09794 9.34103 1.31975 9.42976 1.55265C9.57394 1.79664 9.71812 2.02954 9.87338 2.26245C10.0176 2.50644 10.1839 2.72825 10.3614 2.92788C10.7384 3.40478 11.1599 3.81513 11.6035 4.17002C11.6257 4.2033 11.659 4.23657 11.6922 4.25875C11.7144 4.25875 11.7366 4.28092 11.7366 4.30311C11.7033 4.30311 11.6701 4.30311 11.6479 4.30311H11.4704C11.4372 4.30311 11.4261 4.32529 11.4261 4.34747V4.39184C11.4482 4.39184 11.4704 4.41401 11.4704 4.4362C11.4926 4.4362 11.5259 4.45837 11.5591 4.48056C12.0915 4.86873 12.5795 5.2569 13.0231 5.63398C13.5776 6.0776 14.0989 6.54341 14.5758 7.00921C15.0749 7.48611 15.5628 7.97409 16.0397 8.47317C16.0952 8.53971 16.1396 8.59516 16.1728 8.65062C16.195 8.68389 16.2394 8.72825 16.3059 8.7837C16.3281 8.81697 16.3281 8.85024 16.3059 8.87243C16.2394 8.93897 16.1839 8.99442 16.1285 9.04988C16.0619 9.08315 15.9954 9.11642 15.9067 9.1386C15.8734 9.17187 15.829 9.17187 15.7736 9.1386C15.7403 9.11642 15.707 9.09424 15.6848 9.09424C15.6516 9.07206 15.6183 9.03879 15.5961 9.00551C15.5296 8.98333 15.4741 8.93897 15.4187 8.87243C15.3521 8.81697 15.2967 8.77261 15.2412 8.73934C15.0859 8.65062 14.9529 8.56189 14.842 8.47317C14.72 8.36226 14.598 8.25136 14.4871 8.16263C14.3318 8.07391 14.1987 8.00736 14.0878 7.94082C13.9658 7.85209 13.8327 7.76337 13.6885 7.67465C13.5333 7.56374 13.3891 7.45283 13.2449 7.36411C13.0896 7.2532 12.9455 7.13121 12.8013 7.00921C12.6793 6.95376 12.5573 6.87612 12.4464 6.7874C12.3577 6.69867 12.2689 6.60995 12.1802 6.52123C12.025 6.4325 11.8808 6.34378 11.7366 6.25505C11.5813 6.16633 11.4372 6.06651 11.293 5.94452V5.98888L11.4261 6.21069C11.4482 6.24396 11.4704 6.27723 11.4704 6.29941C11.4926 6.33269 11.5148 6.36596 11.5148 6.38814V6.4325C11.4815 6.4325 11.4704 6.4214 11.4704 6.38814C11.3484 6.33269 11.2264 6.27723 11.1155 6.21069C10.9935 6.15524 10.8715 6.0776 10.7606 5.98888C10.4945 5.8447 10.2394 5.65616 10.0065 5.41217C9.9732 5.38999 9.93992 5.36781 9.91774 5.36781C9.91774 5.34563 9.89557 5.32344 9.87338 5.32344C9.84011 5.35672 9.84011 5.38999 9.87338 5.41217C9.89556 5.50089 9.91774 5.6118 9.91774 5.7227C9.93992 5.81143 9.9732 5.90015 10.0065 5.98888H9.96211C9.96211 5.98888 9.93993 5.97778 9.91774 5.94452L9.60721 5.7227C9.45194 5.63398 9.35212 5.57853 9.29667 5.54526C9.2634 5.4898 9.20795 5.41217 9.11922 5.32344L8.94177 5.14599C8.85305 5.12381 8.80869 5.10163 8.80869 5.10163C8.77542 5.07946 8.73105 5.07946 8.6756 5.10163C8.64233 5.13491 8.60906 5.17927 8.58688 5.23472C8.58688 5.26799 8.5647 5.31235 8.54251 5.36781C8.50924 5.40108 8.49815 5.43435 8.49815 5.45653C8.43161 5.57853 8.37615 5.7227 8.3207 5.90015C8.28743 6.05542 8.24307 6.18851 8.18762 6.29941C8.15434 6.38814 8.14325 6.46577 8.14325 6.52123C8.14325 6.5545 8.12107 6.60995 8.09889 6.69867C8.06562 6.76522 8.02126 6.77631 7.9658 6.74304C7.84381 6.72085 7.66636 6.68759 7.43346 6.65431C7.22273 6.63213 7.07856 6.60995 6.98983 6.60995C6.92329 6.5545 6.90111 6.52123 6.90111 6.52123ZM17.9917 7.98518C17.8697 7.98518 17.7255 7.98518 17.5481 7.98518C17.3928 7.98518 17.2597 7.98518 17.1488 7.98518C17.0823 8.01845 17.0268 8.02954 16.9713 8.02954C16.9048 8.02954 16.8383 8.02954 16.7495 8.02954C16.5721 8.02954 16.4168 7.98518 16.3059 7.89646L16.0841 7.67465C16.0508 7.67465 16.0397 7.65247 16.0397 7.58592C16.1285 7.58592 16.2172 7.58592 16.3059 7.58592C16.3946 7.58592 16.4834 7.57482 16.5721 7.54156C16.6608 7.51938 16.7274 7.4972 16.7939 7.4972C16.8494 7.4972 16.9048 7.4972 16.9713 7.4972C16.9935 7.4972 17.0157 7.48609 17.0157 7.45283C16.9824 7.43065 16.9381 7.40847 16.8826 7.40847C16.8494 7.38629 16.8161 7.35302 16.7939 7.31975V7.27538C16.8161 7.25321 16.8494 7.23102 16.8826 7.23102C16.9381 7.23102 16.9824 7.21992 17.0157 7.18666C17.2486 7.16449 17.4704 7.13121 17.6811 7.09794C17.914 7.07576 18.1359 7.04248 18.3466 7.00921C18.524 6.98704 18.6793 6.95376 18.8346 6.92049C19.012 6.89831 19.2006 6.86503 19.4113 6.83176L19.8549 6.74304C19.9103 6.74304 19.9214 6.72086 19.8993 6.65431L19.8549 6.60995C19.8549 6.5545 19.8771 6.52123 19.9436 6.52123C19.9991 6.49905 20.0545 6.47686 20.1211 6.47686C20.1765 6.47686 20.2542 6.46576 20.3429 6.4325C20.8087 6.28832 21.2967 6.15524 21.8068 6.03324C22.3059 5.88906 22.7939 5.74488 23.2708 5.58962C23.3262 5.58962 23.4039 5.57852 23.4926 5.54526C23.4926 5.54526 23.5037 5.56743 23.537 5.58962C23.537 5.58962 23.5037 5.61179 23.4482 5.63398C23.0601 5.98888 22.6719 6.36596 22.2948 6.74304C21.9067 7.09794 21.5074 7.45283 21.097 7.80773C20.7089 8.14045 20.3207 8.45099 19.9436 8.73934C19.5555 9.03879 19.1673 9.33823 18.7902 9.62659C18.4353 9.87058 18.0804 10.1146 17.7255 10.3807C17.3706 10.6469 17.0268 10.902 16.7052 11.1349C16.3503 11.3789 16.0065 11.6229 15.6848 11.8891C15.3521 12.1331 15.0194 12.377 14.6645 12.6432C14.4205 12.8207 14.1765 13.0314 13.9103 13.2643C13.6664 13.475 13.4335 13.7079 13.2006 13.9741C13.1673 13.9741 13.1229 14.0074 13.0675 14.0628C12.89 14.1848 12.6904 14.1848 12.4908 14.0628C12.4575 14.0074 12.4464 13.9297 12.4464 13.841C12.4464 13.8188 12.4464 13.7856 12.4464 13.7523C12.4686 13.7301 12.4908 13.6968 12.4908 13.6636L12.6238 13.5305C12.8235 13.2976 13.0231 13.0758 13.2006 12.865C13.4002 12.6321 13.6109 12.4103 13.8216 12.1996C13.9103 12.1109 13.9991 12.0221 14.0878 11.9334C14.1765 11.8447 14.2763 11.756 14.3983 11.6673C14.8974 11.1349 15.4187 10.6802 15.951 10.292C16.0952 10.1811 16.2283 10.0591 16.3503 9.93712C16.4945 9.82621 16.6275 9.70422 16.7495 9.58222C16.8604 9.4935 16.9713 9.40477 17.0601 9.31605C17.1488 9.22733 17.2375 9.12751 17.3262 9.00551C17.3817 8.86134 17.4815 8.72825 17.6368 8.60625C17.6922 8.5508 17.7477 8.47317 17.8142 8.38444L17.9917 8.07391V7.98518ZM10.9824 8.60625C11.0046 8.58408 11.049 8.58408 11.1155 8.60625C11.1377 8.60625 11.171 8.62843 11.2043 8.65062C11.3484 8.73934 11.4926 8.85024 11.6479 8.96115C11.792 9.08315 11.9362 9.21624 12.0915 9.36041C12.2024 9.44914 12.2911 9.56004 12.3577 9.67095C12.4464 9.75967 12.5351 9.87058 12.6238 9.98148C12.6793 10.1368 12.7126 10.292 12.7126 10.4695C12.7126 10.7135 12.6793 10.9796 12.6238 11.268C12.5906 11.3013 12.5573 11.3456 12.5351 11.4011C12.5351 11.4676 12.5129 11.512 12.4908 11.5342C12.4908 11.6229 12.4686 11.7116 12.4464 11.8003C12.3799 11.9556 12.402 12.0998 12.4908 12.244C12.5129 12.3327 12.5795 12.4436 12.6682 12.5545C12.6904 12.5545 12.7126 12.5767 12.7126 12.5989V12.6432C12.6793 12.6432 12.6682 12.6432 12.6682 12.6432C12.2246 12.6765 11.781 12.5989 11.3373 12.4214C10.8937 12.244 10.5388 12 10.2726 11.6673C10.0952 11.4898 10.0065 11.268 10.0065 11.0018C10.0065 10.8244 10.0065 10.6913 10.0065 10.6026C10.1174 10.2255 10.2837 9.89276 10.4945 9.62659C10.5166 9.62659 10.5499 9.61548 10.5832 9.58222C10.5832 9.6155 10.5832 9.62659 10.5832 9.62659V9.71531C10.6054 9.80404 10.6275 9.88167 10.6275 9.93712C10.6275 10.0037 10.6275 10.0702 10.6275 10.1589C10.6497 10.3697 10.7274 10.536 10.8494 10.6469C10.9048 10.6802 10.9381 10.6802 10.9381 10.6469C10.9603 10.6247 10.9824 10.5915 10.9824 10.5582C11.0712 10.3807 11.1266 10.2033 11.1599 10.0258C11.2153 9.82621 11.2486 9.6155 11.2486 9.40477C11.2486 9.11642 11.171 8.86134 11.0268 8.65062C11.0268 8.62844 11.0046 8.60625 10.9824 8.60625ZM10.1396 12.6876C9.92883 12.6876 9.7403 12.6876 9.56285 12.6876C9.3854 12.6654 9.20795 12.6321 9.0305 12.5989C8.85305 12.5767 8.6756 12.5323 8.49815 12.4658C8.3207 12.377 8.14325 12.2883 7.9658 12.1996C7.93253 12.1774 7.89926 12.1552 7.87708 12.1552C7.84381 12.1331 7.81053 12.0998 7.78835 12.0665C7.75508 12.0443 7.71072 12.0111 7.65527 11.9778C7.622 11.9223 7.58873 11.878 7.56654 11.8447C7.30037 11.5231 7.30037 11.0795 7.56654 10.5138C7.622 10.4029 7.69963 10.292 7.78835 10.2033C7.87708 10.0924 8.01017 9.9593 8.18762 9.80404C8.33179 9.71531 8.46488 9.64877 8.58688 9.58222C8.73105 9.52677 8.86414 9.47132 8.98614 9.40477C9.09704 9.3826 9.20795 9.34932 9.29667 9.31605C9.40758 9.29388 9.51848 9.2606 9.60721 9.22733C9.62938 9.20515 9.67375 9.18296 9.7403 9.18296C9.79575 9.18296 9.8512 9.18296 9.91774 9.18296H9.96211C9.96211 9.24951 9.93993 9.27169 9.91774 9.27169C9.91774 9.30496 9.88447 9.33823 9.82902 9.36041C9.7403 9.44914 9.65157 9.60441 9.56285 9.80404C9.47412 9.98148 9.3854 10.1146 9.29667 10.2033C9.2634 10.2698 9.23013 10.3697 9.20795 10.5138C9.17468 10.6691 9.16359 10.8133 9.16359 10.9575C9.18576 11.3124 9.27449 11.5674 9.42976 11.7116C9.60721 11.8669 9.7403 11.9667 9.82902 12.0221L10.1839 12.244L10.3614 12.3327C10.4168 12.366 10.4501 12.3992 10.4501 12.4214C10.4501 12.488 10.4612 12.5101 10.4945 12.5101C10.5499 12.5101 10.5943 12.5101 10.6275 12.5101C10.683 12.5101 10.7384 12.5323 10.805 12.5545C10.8272 12.5545 10.8494 12.5545 10.8494 12.5545C10.8494 12.5545 10.8715 12.5767 10.9381 12.5989V12.6432C10.8494 12.6765 10.7163 12.6876 10.5388 12.6876C10.4501 12.6876 10.317 12.6876 10.1396 12.6876ZM12.4908 9.36041C12.4908 9.33824 12.4908 9.31605 12.4908 9.31605C12.4908 9.31605 12.5019 9.30495 12.5351 9.27169C12.6238 9.21624 12.7237 9.18296 12.8457 9.18296C12.9011 9.16079 12.9566 9.1386 13.0231 9.1386C13.1118 9.1386 13.1784 9.1386 13.2449 9.1386C13.3004 9.1386 13.3558 9.1386 13.4224 9.1386C13.4778 9.11642 13.5555 9.09424 13.6442 9.09424C13.6664 9.09424 13.6664 9.07206 13.6442 9.00551C13.6442 9.00551 13.6442 8.99441 13.6442 8.96115V8.87243C13.6442 8.85025 13.6442 8.82806 13.6442 8.82806H13.6885C14.0989 8.80589 14.4871 8.86134 14.842 9.00551L15.0638 9.18296C15.1525 9.24951 15.219 9.30496 15.2856 9.36041C15.341 9.48241 15.3521 9.67095 15.3299 9.93712C15.3299 10.2033 15.2856 10.4029 15.1969 10.5138C15.1303 10.6358 15.0749 10.7135 15.0194 10.7356C14.9307 10.8244 14.842 10.902 14.7532 10.9575C14.6645 11.024 14.5758 11.0905 14.4871 11.1793C14.3651 11.268 14.232 11.3789 14.0878 11.4898C13.9658 11.5785 13.8327 11.6562 13.6885 11.7116C13.5665 11.8003 13.4445 11.8669 13.3336 11.8891C13.2449 11.8891 13.134 11.9223 13.0231 11.9778C12.9898 11.9556 12.9455 11.9556 12.89 11.9778C12.8567 11.9778 12.8457 11.9667 12.8457 11.9334C12.8678 11.9113 12.89 11.8891 12.89 11.8891L12.9787 11.8003C13.0675 11.6894 13.1673 11.5674 13.2893 11.4454C13.4335 11.3013 13.5555 11.1793 13.6442 11.0905C13.6664 11.0684 13.6996 10.9907 13.7329 10.8687C13.7884 10.7246 13.8327 10.6247 13.866 10.5582C13.9214 10.414 13.9103 10.2698 13.8216 10.1146C13.7329 9.93712 13.622 9.82621 13.5111 9.75967C13.3336 9.6155 13.134 9.51568 12.9344 9.44914C12.8457 9.44914 12.768 9.43805 12.7126 9.40477C12.646 9.38259 12.5795 9.36041 12.4908 9.36041Z" fill="black"/>
</svg>
