<svg width="24" height="24" viewBox="0 0 24 24" fill="none" xmlns="http://www.w3.org/2000/svg">
  <g clip-path="url(#clip0_9_56)">
    <path d="M8.59694 12.9024C9.20932 12.9024 9.7063 12.4062 9.7063 11.7931C9.7063 11.1807 9.20932 10.6845 8.59694 10.6845C7.98455 10.6845 7.48758 11.1807 7.48758 11.7931C7.48758 12.4062 7.98455 12.9024 8.59694 12.9024Z" fill="black"/>
    <path d="M11.3158 18.2538V15.0812L9.19911 16.6671L11.3158 18.2538Z" fill="black"/>
    <path d="M19.2258 5.40469V19.1441H13.9271V11.8936L12.5413 9.67176L8.59302 7.02987L4.77896 9.69296L3.25428 12.2556L2.73925 11.9117L4.38091 9.18185L4.40839 9.19991L4.40525 9.19363L8.56476 6.36331L8.57575 6.34211L12.9158 9.17243L12.9127 9.17871L12.9402 9.16065L13.9271 10.734V5.70853C13.9106 5.60646 13.9004 5.50283 13.9004 5.39684C13.9004 4.1179 15.0922 3.08077 16.5627 3.08077C18.034 3.08077 19.2258 4.1179 19.2258 5.39684C19.2258 5.3992 19.2258 5.40234 19.2258 5.40469ZM13.1702 19.1441H3.87608V11.9847L5.09065 10.1208L8.59694 7.63283L12.1668 10.1004L13.2189 11.9235L13.1702 19.1441ZM11.9996 0C5.3725 0 0 5.3725 0 11.9996C0 18.6275 5.3725 24 11.9996 24C18.6275 24 24 18.6275 24 11.9996C24 5.3725 18.6275 0 11.9996 0Z" fill="black"/>
  </g>
  <defs>
    <clipPath id="clip0_9_56">
      <rect width="23.9992" height="24" fill="white"/>
    </clipPath>
  </defs>
</svg>
