<svg width="24" height="24" viewBox="0 0 24 24" fill="none" xmlns="http://www.w3.org/2000/svg">
  <g clip-path="url(#clip0_9_32)">
    <path d="M11.9492 1.28501e-05C11.9146 0.0104848 11.8793 0.0230526 11.8398 0.0351356C11.8108 0.0439965 11.7794 0.0508449 11.748 0.0605113C11.7762 0.0572892 11.8015 0.0589002 11.8184 0.0605113C11.8409 0.0605113 11.8324 0.0700143 11.8066 0.0780696C11.3313 0.212593 11.6121 0.183577 11.2988 0.298768C11.1087 0.330184 11.3394 0.207682 11.0293 0.339773C10.8279 0.385688 10.9705 0.302718 11.043 0.261636C10.9801 0.292246 10.9175 0.317698 10.8554 0.337837C10.8248 0.347503 10.7954 0.356367 10.7656 0.365228L10.7207 0.376905C10.7054 0.381738 10.7103 0.380131 10.7031 0.380937C10.7047 0.37852 10.6556 0.376906 10.625 0.375295C10.5911 0.373684 10.5599 0.37288 10.5293 0.371269C10.468 0.368047 10.4147 0.364017 10.3672 0.365628L10.5273 0.338242C10.4314 0.354353 10.352 0.359908 10.2714 0.365628L10.3652 0.40075C10.2701 0.399945 10.1906 0.403974 10.1914 0.387058C10.0955 0.420085 10.271 0.449242 10.08 0.498387C9.95277 0.486304 9.69788 0.545191 9.65036 0.494362C10.0483 0.486307 9.60234 0.442971 9.93746 0.412329C9.87302 0.422801 9.79504 0.428757 9.69918 0.427951C9.68468 0.423118 9.71053 0.415226 9.73631 0.410393C9.67187 0.406365 9.62608 0.407172 9.58983 0.408783C9.57131 0.410394 9.55583 0.411197 9.54294 0.412808C9.52522 0.41603 9.50895 0.420058 9.49606 0.422555C9.4872 0.424972 9.47875 0.428196 9.47069 0.430612L9.457 0.436248L9.4375 0.449947C9.42301 0.459613 9.40802 0.46992 9.38868 0.481198C9.34921 0.502142 9.2871 0.523892 9.15822 0.545642C9.20252 0.506976 9.05813 0.50448 8.99611 0.522202C9.15319 0.49562 9.08158 0.55982 8.94141 0.608144C8.68928 0.628282 8.67347 0.670814 8.54297 0.690171L8.69337 0.676478C8.64826 0.715143 8.52315 0.7327 8.35157 0.772179C8.34432 0.764124 8.36455 0.757119 8.38871 0.750675C8.35971 0.759536 8.32733 0.76606 8.27738 0.774115C8.2218 0.803114 8.18565 0.815761 8.14457 0.832678C8.10268 0.848788 8.05996 0.866507 8.01566 0.883423C7.92785 0.919672 7.83692 0.962047 7.75395 1.02405C7.63312 1.06755 7.71528 0.980223 7.61137 1.02243C7.36326 1.20609 7.30135 1.1461 7.03714 1.33298C7.13783 1.32251 7.146 1.30552 6.96875 1.45212L7.41602 1.16892L7.14843 1.38571C7.28779 1.30838 7.43059 1.19943 7.51758 1.15915C7.39192 1.26709 7.4006 1.24924 7.4844 1.24118C7.26287 1.29354 7.12403 1.48265 6.88478 1.57126L6.84185 1.47947C6.7041 1.53747 6.5887 1.60721 6.4727 1.68454C6.4147 1.72401 6.35619 1.76372 6.29497 1.80564C6.23858 1.84269 6.18008 1.88176 6.11724 1.92283L6.10161 1.92846L6.06842 1.94015C6.04587 1.94659 6.02227 1.95247 5.9981 1.95972C5.95058 1.97261 5.90087 1.98477 5.84771 1.99685L6.00395 1.97148C5.95159 2.02787 5.71352 2.05915 5.5645 2.11796C5.56933 2.0809 5.47132 2.09613 5.40043 2.09452C5.41493 2.11627 5.05157 2.19182 5.0274 2.26834L4.9942 2.26995L4.94926 2.27559L4.85161 2.29122L4.75199 2.39278C4.49905 2.70049 4.55683 2.81463 4.31839 3.11348C4.35786 2.9991 4.23432 3.12323 4.36722 2.90255C4.28988 3.00485 4.21667 3.09232 4.23439 3.10763C4.21426 3.12293 4.19034 3.15934 4.16214 3.20528C4.13798 3.24636 4.09319 3.31727 4.08594 3.33419L4.06644 3.35175C4.05275 3.35981 4.03946 3.36907 4.02738 3.37713C4.0016 3.39243 3.97687 3.40468 3.95512 3.41031C3.91726 3.4514 3.92016 3.49014 3.79692 3.56265C3.78 3.56426 3.78885 3.54703 3.78885 3.54703C3.79771 3.56233 3.6085 3.68438 3.73416 3.65054C3.63185 3.68115 3.52089 3.73568 3.40408 3.80093C3.34528 3.83396 3.28596 3.86932 3.22635 3.90641L3.03493 4.02554C2.99224 4.08032 2.94907 4.13448 2.90799 4.18765C2.86932 4.23437 2.83291 4.28087 2.79666 4.32437C2.72256 4.41056 2.64949 4.48456 2.58182 4.53531C2.46663 4.68997 2.33521 4.86629 2.22243 5.01773C2.18538 5.12728 2.15494 5.21991 2.12675 5.30288C2.12513 5.29362 2.11949 5.29201 2.11868 5.28726C2.00733 5.55308 2.14164 5.50407 1.98392 5.8478C1.8647 6.02019 2.02645 5.64013 1.96442 5.7521C1.87582 5.76015 1.83597 6.00613 1.76911 6.20913C1.74011 6.27277 1.6959 6.35748 1.64997 6.41226L1.67148 6.35168C1.54824 6.51923 1.49055 6.81891 1.3375 7.11534C1.3375 7.11534 1.33672 7.09593 1.32381 7.1056C1.27145 7.33276 1.11455 7.73804 0.993721 8.03528C0.995332 7.92654 1.0336 7.89276 0.968351 7.92982C0.914381 8.06354 1.05089 7.92177 0.942969 8.18763C0.882555 8.26335 0.776578 8.4421 0.724219 8.44935L0.831646 8.2013C0.716455 8.3028 0.6902 8.52325 0.626563 8.65052L0.610941 8.62321C0.45789 9.00986 0.517483 9.04212 0.33946 9.45133L0.376593 9.41621C0.370148 9.46051 0.361208 9.49426 0.353153 9.52168C0.343486 9.55148 0.333173 9.57774 0.321896 9.59788C0.320285 9.69294 0.28895 9.72596 0.331643 9.88304L0.269141 9.96117C0.296529 10.1207 0.371683 10.5182 0.403904 10.8049C0.343489 10.6454 0.295868 10.3119 0.251564 10.1057C0.259942 10.2332 0.283782 10.4717 0.312136 10.6155C0.306498 10.5816 0.303192 10.5482 0.306494 10.5178C0.340327 10.6129 0.36957 10.7413 0.390482 10.8557C0.382427 10.9636 0.360119 11.1145 0.331925 11.262C0.2409 11.2056 0.183851 11.6974 0.0936315 12.051C0.080743 12.1759 0.0647239 12.2516 0.0389469 12.3088C0.0453911 12.4715 0.0429706 12.6336 0.0349153 12.7971C0.0300821 12.8793 0.0249193 12.9622 0.0192806 13.0451C0.0128363 13.133 0.00703616 13.2214 -0.000213623 13.3108C0.0102583 13.4389 0.0205716 13.5688 0.0310435 13.7034C0.0431265 13.8331 0.0571419 13.9649 0.0739775 14.1018C0.148892 13.8601 0.0999251 14.2928 0.198981 14.2405C0.223147 14.3887 0.227254 14.4459 0.222421 14.4612V14.4628V14.4644C0.221616 14.4948 0.22081 14.5159 0.222421 14.5601L0.290811 14.9429C0.294838 15.0565 0.225318 14.8134 0.206823 14.8335C0.300265 15.1541 0.205206 14.9797 0.245885 15.1988C0.26844 15.1448 0.332448 15.292 0.376752 15.4781L0.34155 15.2085C0.414047 15.3672 0.437699 15.4651 0.448977 15.5464C0.45381 15.5883 0.456229 15.6242 0.46074 15.6636C0.463156 15.6829 0.466374 15.7024 0.468791 15.7242C0.470402 15.7347 0.472016 15.7453 0.474432 15.7574C0.479266 15.7775 0.486358 15.8001 0.491997 15.8218C0.531468 15.8871 0.543551 15.9101 0.570133 15.9488C0.596716 15.9858 0.627169 16.0263 0.665835 16.0738L0.558407 15.9663C0.632516 16.0622 0.753403 16.2488 0.880676 16.4292C0.945119 16.5203 1.01005 16.6105 1.07208 16.687C1.10269 16.7249 1.13291 16.758 1.16193 16.7886L1.20292 16.8296C1.21661 16.8433 1.23047 16.8547 1.23611 16.8531V16.8547C1.23127 16.8579 1.23773 16.8951 1.23048 16.9015C1.22806 16.9064 1.22404 16.9072 1.21679 16.9015C1.21195 16.8999 1.19608 16.8738 1.19528 16.8762H1.19367C1.33624 17.1984 1.57851 17.6106 1.74444 17.9328C1.81211 18.0963 1.87662 18.2704 1.91045 18.4113L1.87139 18.3801C1.91569 18.4783 1.98084 18.5397 2.0042 18.675C1.99131 18.6718 1.96465 18.6431 1.98076 18.6906C1.99445 18.7156 2.03046 18.7794 2.06669 18.8527C2.08522 18.8906 2.10415 18.9285 2.11946 18.968C2.12751 18.9873 2.1337 19.008 2.14095 19.0265C2.15143 19.0579 2.16254 19.0881 2.17221 19.1164L2.1234 19.0285L2.0882 18.9757C2.09787 19.0055 2.10672 19.0354 2.11558 19.0636C2.13089 19.1071 2.14684 19.1503 2.16053 19.1906C2.20403 19.2196 2.24641 19.2483 2.28749 19.2765C2.31166 19.2918 2.33639 19.3062 2.35975 19.3215C2.40486 19.3497 2.44906 19.3746 2.49256 19.3996C2.57956 19.4487 2.66235 19.4913 2.74451 19.5324C2.90965 19.6154 3.07303 19.6947 3.25428 19.8058C3.24864 19.8147 3.25106 19.8291 3.25992 19.8468C3.26475 19.8549 3.27055 19.8637 3.27941 19.8742C3.28586 19.8838 3.28424 19.8872 3.28746 19.8936C3.28263 19.9001 3.31324 19.9456 3.33821 19.9835C3.36399 20.023 3.39355 20.0666 3.42415 20.1085C3.48457 20.1923 3.54965 20.275 3.59798 20.337H3.58236C3.66049 20.4296 3.73676 20.5162 3.81087 20.5968C3.89062 20.6814 3.96722 20.762 4.04133 20.8409L4.11359 20.8917L4.16829 20.9288L4.27571 21.0011C4.3482 21.0486 4.42 21.0973 4.4925 21.1456C4.6375 21.2415 4.7835 21.3391 4.93977 21.4503C4.96475 21.4809 5.01162 21.5268 5.03742 21.5558C5.1228 21.6629 5.27041 21.8153 5.42023 21.9659C5.58295 22.1286 5.75889 22.3042 5.92805 22.4718C5.97961 22.4943 6.03159 22.5164 6.08234 22.5382C6.121 22.5559 6.15774 22.574 6.19563 22.5909C6.26893 22.6248 6.34052 22.6575 6.40657 22.6905C6.32602 22.6422 6.44298 22.643 6.54524 22.6769C6.6709 22.7453 6.92789 22.7783 6.88117 22.8331L6.83429 22.8116C6.8794 22.8704 6.96952 22.9203 7.10968 22.9816C7.21198 23.0138 7.32311 23.0478 7.42219 23.0792L7.48469 23.005C7.59505 23.0678 7.7262 23.123 7.86555 23.173C7.93483 23.1979 8.00709 23.2227 8.0804 23.2452L8.18976 23.2765L8.24446 23.2921C8.26379 23.2977 8.28272 23.3038 8.28352 23.3038C8.37535 23.3457 8.46607 23.3874 8.55306 23.4269C8.64409 23.4704 8.73226 23.5112 8.81282 23.5499C8.97231 23.6288 9.10177 23.704 9.17024 23.7765C9.24596 23.8022 9.29626 23.8221 9.44368 23.8898C9.59914 23.8664 9.65129 23.8544 9.72299 23.8351L9.72138 23.8839C9.91309 23.8662 10.0592 23.8546 10.2155 23.8409C10.2928 23.8321 10.3733 23.8221 10.4636 23.8116C10.5079 23.806 10.5554 23.8005 10.6061 23.7941C10.6319 23.7908 10.6569 23.7864 10.6843 23.7823L10.7272 23.7785L10.7353 23.7765C10.7361 23.7773 10.7377 23.7765 10.7409 23.7765C10.7377 23.7798 10.7345 23.7842 10.7328 23.7883C10.7264 23.7963 10.7385 23.8032 10.7094 23.8136C10.7416 23.8104 10.7272 23.8102 10.7328 23.8078L10.7369 23.8038C10.749 23.8038 10.7599 23.8058 10.772 23.8058C10.797 23.8058 10.8217 23.8043 10.8443 23.8019C10.8894 23.7962 10.9293 23.7865 10.9712 23.7784C11.0542 23.7615 11.1384 23.7477 11.2544 23.7687L11.315 23.8546C11.4141 23.8739 11.5147 23.8957 11.6138 23.9191L11.7623 23.9542L11.9537 23.9991L12.2056 23.9464L12.4126 23.8976C12.5496 23.8629 12.6845 23.8233 12.815 23.7726C12.8102 23.7847 12.8009 23.8083 12.7251 23.8292C12.8258 23.8083 13.0156 23.7673 13.1783 23.7335C13.2169 23.7327 13.2546 23.7324 13.2876 23.7316C13.3287 23.73 13.3661 23.7286 13.3951 23.7238C13.4531 23.7149 13.4805 23.6988 13.4595 23.673C13.4643 23.7374 13.9586 23.682 14.2212 23.6554L14.1802 23.7023C14.2261 23.6894 14.264 23.6799 14.2955 23.671C14.3269 23.6622 14.3531 23.6548 14.399 23.6476C14.4634 23.6234 14.4825 23.6114 14.5357 23.5929C14.5848 23.5752 14.646 23.5554 14.733 23.5304C14.8055 23.5191 14.8031 23.5512 14.7056 23.5617C14.9481 23.5303 14.8792 23.4743 15.1725 23.4308L15.0728 23.4855C15.3169 23.4315 15.2948 23.4215 15.4205 23.3546C15.5695 23.2974 15.8871 23.2622 15.9322 23.296C15.9596 23.263 16.0864 23.2001 16.233 23.1808C16.2564 23.1929 16.2052 23.2133 16.1802 23.2238C16.3244 23.2044 16.4404 23.1766 16.5435 23.1476C16.5943 23.1323 16.6421 23.1172 16.688 23.1027C16.7114 23.0962 16.7347 23.0896 16.7564 23.0831L16.8463 23.0578L16.9127 23.005L16.9615 22.9679C16.9953 22.9437 17.0303 22.9213 17.0689 22.8995C17.0834 22.9084 17.1038 22.9011 17.1255 22.8898C17.0297 22.9647 16.9395 23.0353 16.8638 23.0949C16.7615 23.115 16.68 23.1324 16.6236 23.1437C16.5881 23.1509 16.5656 23.1566 16.5591 23.1574C16.5728 23.1984 16.8303 23.1492 16.6353 23.2531C16.6651 23.2418 16.6975 23.2296 16.733 23.216C16.7507 23.2087 16.7703 23.2017 16.7896 23.1945C16.8235 23.184 16.8596 23.1725 16.8951 23.1613C16.9249 23.1331 16.9684 23.0935 16.9869 23.0734L17.0416 23.0148L17.1568 22.8995C17.235 22.8246 17.3166 22.7577 17.3932 22.7062C17.406 22.7014 17.4182 22.6964 17.4303 22.6964L17.4127 22.716C17.4635 22.6821 17.5023 22.6456 17.5377 22.6085C17.6078 22.5626 17.6538 22.5327 17.7174 22.4835C17.7496 22.4868 17.828 22.427 17.9303 22.3449C17.9851 22.2925 18.0412 22.2401 18.0807 22.2023C18.0404 22.1749 18.1734 22.0627 18.026 22.1456C18.0437 22.1336 18.0123 22.1657 17.9479 22.2277C17.9342 22.243 17.9169 22.2594 17.9088 22.2706C17.9104 22.2682 17.9112 22.2641 17.9128 22.2609L17.8835 22.2882L17.6452 22.4796C17.704 22.4071 17.7604 22.3407 17.8659 22.2707C17.8893 22.2521 17.9027 22.2422 17.9245 22.2277C17.9543 22.1584 17.9895 22.0844 18.0104 22.0441C18.1909 21.9692 18.4733 21.7543 18.5378 21.7511C18.6199 21.6673 18.7116 21.5758 18.8034 21.4816C18.8638 21.4341 18.9243 21.3838 18.9831 21.3371C19.0451 21.2871 19.1041 21.2389 19.1589 21.1906C19.2684 21.0939 19.3599 21.0019 19.4147 20.923C19.5017 20.8449 19.5392 20.8652 19.5827 20.8507C19.5336 20.8975 19.4677 20.9435 19.446 20.9757C19.4838 20.9419 19.5319 20.9027 19.5827 20.8624C19.6375 20.8198 19.6951 20.7751 19.7507 20.7316C19.7821 20.6937 19.8123 20.658 19.8405 20.6242C19.8655 20.5927 19.8875 20.5617 19.9069 20.5343C19.9455 20.4803 19.9699 20.4366 19.9675 20.4132C20.1849 20.2159 19.8994 20.5751 20.1628 20.2706L20.1393 20.3234C20.6645 19.8562 20.8639 19.4246 21.4108 18.9445C21.4463 18.8865 21.4673 18.856 21.4987 18.8117C21.5277 18.7706 21.5583 18.7305 21.5905 18.6886C21.5534 18.7378 21.5363 18.7631 21.5202 18.7687C21.7006 18.4884 21.8716 18.185 22.0319 17.8918L22.3718 17.3839C22.4878 17.2108 22.5965 17.0494 22.7214 16.8722C22.8502 16.6169 22.9738 16.387 23.1139 16.1574C23.1752 16.051 23.2059 15.983 23.2253 15.925C23.2349 15.896 23.2411 15.8695 23.2468 15.8429C23.25 15.8292 23.2532 15.8164 23.2565 15.8019C23.2613 15.7842 23.2676 15.7654 23.2741 15.7453C23.2733 15.7268 23.2709 15.7024 23.27 15.675L23.3306 15.6203L23.3131 15.3215C23.3179 15.1748 23.3471 15.046 23.3834 14.9172C23.4019 14.8527 23.4207 14.7868 23.44 14.7199C23.4489 14.6869 23.4577 14.653 23.4673 14.6183C23.4746 14.5869 23.4827 14.5557 23.4908 14.5226L23.4964 14.5109L23.5045 14.4875L23.522 14.4426C23.5325 14.4111 23.5417 14.3788 23.5513 14.3449C23.5699 14.278 23.5861 14.2051 23.5982 14.1262L23.5435 14.1808C23.608 14.0028 23.7067 13.6038 23.7349 13.6457C23.7349 13.6255 23.72 13.5754 23.7603 13.5109L23.7876 13.5125L23.8071 13.4227L23.8306 13.3192L23.8033 13.0262C23.8218 12.6661 23.9086 13.0815 23.9126 12.5555C23.9021 12.3598 23.8355 11.9998 23.8169 12.0731C23.8161 12.152 23.7994 12.2745 23.772 12.2801L23.7583 12.1024L23.7427 12.0943V12.0669L23.7993 10.8208L23.4438 10.0298L23.4653 10.0435L23.4262 9.99277L23.3149 9.74277C23.3278 9.746 23.3458 9.76557 23.3716 9.81309C23.3482 9.71885 23.3245 9.67803 23.3052 9.64903C23.2907 9.6144 23.2755 9.5775 23.2739 9.48888C23.2747 9.46874 23.2804 9.47671 23.2876 9.4929L23.2192 9.3093C23.2426 9.34233 23.2584 9.26589 23.2778 9.3835C23.2327 9.03631 23.0897 8.85373 23.1098 8.71357C23.0238 8.44214 23.0314 8.54386 22.9868 8.50068L22.9811 8.48111L22.9518 8.28189L23.0143 8.10416L22.9558 8.06703C22.9501 8.01708 22.9402 7.91695 22.9638 7.93226C22.901 7.75424 22.9466 7.96738 22.8974 7.86588C22.9063 7.66853 22.8263 7.38476 22.8271 7.22526C22.807 7.1866 22.7956 7.15316 22.8037 7.13541C22.7175 7.08627 22.9248 7.34932 22.7412 7.14709C22.7694 7.03512 22.5527 6.91993 22.456 6.71935C22.5325 6.74593 22.6355 6.9266 22.538 6.72499C22.3971 6.66619 22.2991 6.37101 22.1767 6.23085C22.1251 6.25904 21.9103 5.92964 21.704 5.69765C21.7137 5.69846 21.6739 5.63595 21.6103 5.54335C21.5475 5.45474 21.4646 5.33582 21.3857 5.22304C21.3519 5.12638 21.3188 5.03301 21.2939 4.96132L21.3056 4.96535C21.2258 4.93877 21.1221 4.66029 21.0263 4.46535C21.0641 4.4589 21.092 4.48686 21.1532 4.58839L21.0751 4.40285C21.0372 4.36579 21.0042 4.31113 20.9462 4.19191L21.0087 4.22123L20.9677 4.13138C20.95 4.09352 20.9327 4.05598 20.9149 4.0181C20.8279 3.9448 20.7366 3.86934 20.6415 3.78959C20.5553 3.71387 20.4676 3.63166 20.3798 3.53178C20.35 3.54386 20.4124 3.66676 20.3681 3.6724L20.2333 3.5435C20.2478 3.53705 20.2701 3.54028 20.3095 3.57081C20.2846 3.55148 20.2154 3.5091 20.1767 3.45753L20.3095 3.52978C20.2064 3.40815 20.2271 3.49692 20.1377 3.40674C20.1626 3.38418 20.0867 3.32334 20.1182 3.31689C20.1439 3.33703 20.1891 3.40405 20.2334 3.42822C20.1843 3.37666 20.1296 3.31732 20.0869 3.26416C20.0434 3.21099 20.014 3.16635 19.9834 3.11963L19.9818 3.11802C19.9826 3.12043 19.9842 3.12285 19.9818 3.12365C19.9826 3.1301 19.9794 3.13534 19.9737 3.13534C19.9608 3.145 19.9107 3.13538 19.8487 3.10803C19.6047 2.99042 19.7832 3.03013 19.6495 2.94396C19.5802 2.93591 19.4359 2.83797 19.4093 2.88146C19.3384 2.84601 19.3353 2.81935 19.3136 2.79357C19.1782 2.75087 18.7253 2.50718 18.8429 2.6256L18.8722 2.64517C18.8657 2.64276 18.8599 2.64034 18.8526 2.63712L18.8057 2.61956C18.4223 2.40851 18.0699 2.06993 17.6905 1.85002L17.7002 1.83633C17.4586 1.70825 17.1777 1.52521 16.9932 1.45352C16.9255 1.41082 16.8494 1.3269 16.8897 1.32851C16.8398 1.30193 16.8005 1.28179 16.7667 1.26407C16.6523 1.2254 16.5942 1.20519 16.3936 1.09805C16.5974 1.15283 16.3372 1.0465 16.6006 1.16249C16.3566 1.04408 16.3096 0.994293 16.0245 0.924212C16.1324 0.922601 15.8567 0.794097 15.7334 0.756237L15.8975 0.857801C15.7614 0.808664 15.6456 0.752182 15.5264 0.705461L15.6124 0.67815C15.4086 0.569403 15.2053 0.507856 15.0128 0.455496C14.9169 0.428914 14.8237 0.404261 14.7334 0.37929C14.6883 0.365596 14.6461 0.349645 14.6026 0.33434L14.5381 0.3109L14.4444 0.271832C14.3171 0.283915 14.2671 0.279888 14.1866 0.270222C14.1165 0.299221 14.1914 0.296078 14.2686 0.293661C14.3339 0.292856 14.466 0.284724 14.3702 0.320973C14.1035 0.347555 13.841 0.300754 13.7589 0.311226C13.5945 0.31767 13.5162 0.345053 13.4405 0.375664C13.4026 0.390969 13.3661 0.40805 13.3194 0.422549C13.2791 0.435438 13.2 0.451384 13.171 0.4538C13.1629 0.450578 13.1518 0.444941 13.1397 0.440108C13.1478 0.464274 13.2124 0.543854 12.9385 0.471365C12.7001 0.382756 12.6713 0.288639 12.8292 0.324888C12.8872 0.342609 12.9121 0.360247 12.9073 0.365886C12.9878 0.385219 13.0927 0.411242 13.0049 0.357835L12.9678 0.365886C12.8542 0.306276 12.521 0.194945 12.6104 0.190112C12.4211 0.146613 12.5212 0.196555 12.6533 0.25262C12.5293 0.197039 12.4236 0.157552 12.3213 0.12372C12.2029 0.0834434 12.0863 0.0446153 11.9502 -0.0012839L11.9492 1.28501e-05ZM9.81445 2.49025C9.84183 2.53536 9.8739 2.57749 9.89648 2.62501C10.2058 3.27508 10.5121 3.92668 10.9277 4.51955C11.2701 5.00851 11.6757 5.43543 12.1445 5.80275C12.1848 5.83416 12.2222 5.86663 12.2891 5.92384C12.1819 5.93512 12.1138 5.94302 12.0058 5.9551C12.0679 6.00988 12.1057 6.04788 12.1484 6.0801C13.3922 7.01774 14.5664 8.03437 15.6289 9.17581C15.6772 9.22736 15.7269 9.27877 15.7656 9.33596C15.8139 9.40685 15.9048 9.53389 15.8887 9.55081C15.7904 9.6515 15.6761 9.74925 15.5488 9.8008C15.4965 9.82175 15.3909 9.73241 15.3184 9.68166C14.6804 9.23459 14.0414 8.78947 13.4082 8.33596C12.9241 7.98797 12.4488 7.62904 11.9687 7.27541C11.9583 7.28427 11.946 7.29192 11.9356 7.30079L12.0957 7.58985C11.6132 7.38202 11.1767 7.11028 10.7715 6.76954C10.811 6.93548 10.8502 7.10173 10.8945 7.29103C10.8494 7.27411 10.8124 7.26935 10.7891 7.25002C10.5514 7.05669 10.3116 6.86432 10.082 6.66214C9.90483 6.50586 9.82287 6.5045 9.73829 6.71877C9.60618 7.05145 9.49398 7.39285 9.38282 7.73439C9.34657 7.84636 9.31919 7.90965 9.1758 7.87502C8.96797 7.82346 8.75253 7.80018 8.53906 7.76955C8.42468 7.75263 8.36369 7.71622 8.40236 7.5801C8.5111 7.19264 8.60945 6.802 8.71095 6.41213C8.88091 5.75884 9.04832 5.10448 9.22071 4.45119C9.33268 4.02587 9.44869 3.60065 9.57033 3.17775C9.58483 3.12619 9.64379 3.08614 9.68165 3.04103C9.69534 3.04909 9.70896 3.05835 9.72265 3.06641C9.73313 2.87872 9.74263 2.69045 9.75391 2.50195C9.77324 2.49792 9.79434 2.4939 9.81448 2.49028L9.81445 2.49025ZM2.96093 6.18556C2.97784 6.18575 2.99686 6.18878 3.01757 6.19531C3.08281 6.21625 3.15109 6.24606 3.20506 6.2871C3.77135 6.71806 4.41629 6.97866 5.09374 7.16796C6.07084 7.44104 7.0456 7.73492 8.03318 7.96289C8.63814 8.10305 9.26772 8.13094 9.88475 8.21874C10.9609 8.37179 12.0435 8.45071 13.1269 8.51756C13.2599 8.52562 13.4034 8.60405 13.5098 8.68944C13.6459 8.79899 13.7507 8.9478 13.8965 9.11133C13.7998 9.12905 13.7317 9.15587 13.664 9.15426C12.5565 9.13573 11.445 9.14781 10.3398 9.08393C9.0671 9.01063 7.80413 8.83236 6.57811 8.45698C6.48306 8.42798 6.38456 8.41461 6.28709 8.39447C6.28225 8.40897 6.27742 8.42492 6.2734 8.43942L7.52926 8.90817C7.52443 8.92911 7.52039 8.94973 7.51555 8.97068C7.08782 8.93443 6.66009 8.89834 6.23235 8.8613L6.21673 8.89256C6.29326 8.94814 6.36935 9.00387 6.47649 9.08201C6.11158 9.19398 5.83049 9.00588 5.52922 8.96482C5.51714 8.97771 5.50417 8.98907 5.49209 9.00196C5.57425 9.07123 5.65764 9.14005 5.73819 9.21094C6.1627 9.58229 6.58389 9.95609 7.01162 10.3242C7.09137 10.3935 7.1937 10.4392 7.28311 10.498C7.59002 10.701 7.65089 10.8292 7.56631 11.1191C7.51556 11.2915 7.49398 11.4713 7.45694 11.6582C7.40377 11.6405 7.37551 11.6395 7.35537 11.625C6.08666 10.7575 4.91831 9.78284 4.00967 8.52541C3.54327 7.88018 3.18216 7.1815 2.94131 6.42189C2.92762 6.3808 2.91546 6.33878 2.90418 6.2969C2.88122 6.21534 2.90981 6.185 2.9608 6.18556H2.96093ZM21.6367 6.91017C21.6432 6.92145 21.6478 6.9332 21.6543 6.94529C21.6285 6.9767 21.6091 7.01247 21.5801 7.03904C20.5603 7.98071 19.564 8.94948 18.4395 9.76951C17.5485 10.4196 16.6452 11.0534 15.7559 11.7051C14.9528 12.2931 14.1557 12.8904 13.4492 13.5976C13.3687 13.6782 13.2622 13.7446 13.1543 13.7793C13.0319 13.8187 12.8817 13.7875 12.8398 13.6562C12.8125 13.5684 12.8423 13.4248 12.9024 13.3515C13.7047 12.3768 14.6103 11.5029 15.5899 10.707C15.8823 10.4694 16.1694 10.2264 16.4473 9.97263C16.5641 9.8663 16.6497 9.72559 16.752 9.60154C16.8124 9.52662 16.8831 9.45898 16.9395 9.38084C17.0474 9.23182 17.1492 9.078 17.2539 8.92576C17.2394 8.90321 17.2255 8.87993 17.211 8.85737C16.9234 8.87429 16.6345 8.88275 16.3477 8.91013C16.0682 8.93752 15.8582 8.83635 15.7051 8.56248C15.9516 8.52945 16.1916 8.49634 16.459 8.46091C16.389 8.40372 16.3391 8.36367 16.2891 8.3242C16.2891 8.30729 16.2899 8.2923 16.2907 8.27539C16.704 8.21094 17.1166 8.14855 17.529 8.08007C17.9422 8.01241 18.3537 7.93738 18.779 7.86327C18.7693 7.81655 18.7619 7.7794 18.7458 7.71093C19.7084 7.4443 20.673 7.17678 21.6364 6.91015L21.6367 6.91017ZM8.16796 9.23634C8.19293 9.23393 8.22331 9.2363 8.25976 9.2444C8.43215 9.28226 8.60874 9.29909 8.78515 9.31279C8.91081 9.32246 8.95753 9.36668 8.92773 9.49639C8.65143 10.7143 8.62716 11.9497 8.71093 13.1878C8.76249 13.9651 8.85443 14.7402 8.92773 15.5159C8.93176 15.5578 8.92773 15.6005 8.92773 15.6722C8.86087 15.6383 8.81367 15.6154 8.72265 15.5686C8.78145 15.7692 8.8294 15.9359 8.89062 16.1429C8.96956 16.0535 9.02622 15.9936 9.07616 15.93C9.50873 15.3742 9.94047 14.8186 10.373 14.262C10.3795 14.2532 10.3853 14.2447 10.3925 14.2366C10.5963 13.9974 10.6018 14.0044 10.8242 14.2171C10.9821 14.3678 11.163 14.4983 11.3378 14.6312C11.4917 14.748 11.6513 14.856 11.8261 14.9808C11.7238 15.1234 11.6321 15.2539 11.5371 15.3812C11.1536 15.8935 10.7537 16.3936 10.3847 16.9164C9.75238 17.8137 9.34022 18.8051 9.22261 19.9046C9.19603 20.1584 9.18676 20.413 9.13276 20.6918C8.96682 20.4582 8.79952 20.2242 8.63277 19.9906L8.59757 20.0062C8.70712 20.5419 8.81614 21.0771 8.92569 21.6136C8.91038 21.6233 8.89604 21.6333 8.88074 21.6429C8.79535 21.5527 8.6945 21.4729 8.62684 21.3714C8.45204 21.1072 8.27217 20.842 8.12879 20.5609C7.58425 19.4928 7.24011 18.3608 7.09754 17.1703C7.0782 17.0116 7.09512 16.8493 7.12686 16.6761C7.22514 16.979 7.32233 17.283 7.4335 17.6253C7.45041 17.5617 7.46605 17.5335 7.46282 17.5101C7.34199 16.6659 7.30473 15.8154 7.37884 14.9671C7.47631 13.8483 7.58657 12.7312 7.71867 11.6156C7.80567 10.8737 7.94001 10.1383 8.04876 9.39879C8.06326 9.2985 8.09298 9.24419 8.1679 9.23667L8.16796 9.23634ZM11.6523 9.32814C11.7361 9.35311 11.7948 9.35657 11.8359 9.38477C12.2347 9.66187 12.6163 9.95395 12.8926 10.3672C13.0295 10.5734 13.09 10.789 13.0449 11.0234C12.9974 11.2764 12.9425 11.5287 12.8555 11.7695C12.7612 12.0297 12.8264 12.2433 12.9746 12.4512C12.998 12.4842 13.0173 12.52 13.0391 12.5547C13.0342 12.5724 13.0291 12.5897 13.0234 12.6075C12.8091 12.5881 12.5907 12.5847 12.3789 12.5469C11.9286 12.4663 11.544 12.2528 11.1992 11.9531C10.8963 11.6913 10.7956 11.3571 10.8906 10.9922C10.9607 10.7223 11.1148 10.4738 11.2324 10.2168C11.2429 10.1942 11.2681 10.179 11.289 10.1621C11.2955 10.1573 11.3086 10.1605 11.332 10.1605C11.3948 10.4481 11.318 10.7726 11.6113 11.0062C11.8457 10.456 11.968 9.92133 11.6523 9.32845L11.6523 9.32814ZM23.1973 9.34183C23.2061 9.36761 23.215 9.39291 23.2246 9.42191C23.2255 9.43399 23.2238 9.44083 23.223 9.44728L23.1973 9.34183ZM14.0723 9.53715C14.3684 9.54198 14.6462 9.60723 14.9023 9.78911C15.0634 9.90269 15.1521 10.0507 15.1601 10.2481C15.1755 10.6227 15.0872 10.9505 14.7617 11.1817C14.4733 11.3879 14.1931 11.6068 13.9023 11.8106C13.6824 11.9644 13.4313 12.0332 13.1445 11.9961C13.3346 11.7996 13.5406 11.617 13.709 11.4043C14.0425 10.983 14.1082 10.5177 13.6152 10.2422C13.4308 10.1391 13.2216 10.0774 13.0234 10C12.9711 9.9791 12.9143 9.97297 12.8281 9.95122C13.1278 9.70232 13.471 9.80842 13.7851 9.73834C13.7803 9.67793 13.7744 9.6177 13.7695 9.55084C13.872 9.54101 13.9735 9.53561 14.0723 9.53714V9.53715ZM10.6953 9.83402C10.7348 9.83563 10.7755 9.83966 10.8125 9.83966C10.6659 10.0837 10.5289 10.3202 10.3848 10.5506C10.0617 11.0661 10.1665 11.6557 10.6562 12.0174C10.7811 12.1092 10.923 12.1773 11.0527 12.2635C11.1172 12.3054 11.1668 12.3676 11.2305 12.4119C11.2756 12.4433 11.3308 12.4642 11.3848 12.4803C11.4532 12.5021 11.5256 12.5162 11.5957 12.5331V12.5819C11.4523 12.5964 11.3094 12.6193 11.166 12.6249C10.4668 12.6531 9.79614 12.5593 9.18554 12.1815C8.90441 12.0075 8.73672 11.7081 8.77539 11.3827C8.83097 10.9099 9.06046 10.5463 9.46483 10.2909C9.8096 10.0726 10.1918 9.95079 10.5801 9.84366C10.6171 9.83359 10.6559 9.83214 10.6953 9.83391V9.83402ZM17.1387 11.211C17.1677 11.1916 17.2567 11.2286 17.293 11.2657C17.9889 11.96 18.5755 12.7431 19.1426 13.543C20.0955 14.8858 20.8311 16.3533 21.6269 17.7872C21.6495 17.8274 21.6639 17.8726 21.6816 17.9161C21.6744 17.9338 21.6674 17.953 21.6601 17.9708C21.499 17.9418 21.3332 17.9277 21.1777 17.8809C19.9018 17.4967 18.6071 17.1643 17.3594 16.7051C15.3077 15.9504 13.2522 15.1919 11.3125 14.168C10.5859 13.7838 9.87625 13.3696 9.16014 12.9669C9.01353 12.8839 8.95027 12.7611 8.99216 12.5879C9.01794 12.48 9.05387 12.4439 9.1699 12.4922C10.0914 12.8773 11.0041 13.2898 11.9433 13.629C12.6586 13.8875 13.4079 14.0517 14.1426 14.2579C14.1554 14.2619 14.1704 14.2546 14.1953 14.2522C14.1671 14.2031 14.1413 14.1606 14.0938 14.0784C14.5312 14.1952 14.9326 14.3016 15.3555 14.4143C15.3506 14.3499 15.3482 14.3141 15.3457 14.2835C15.3586 14.2738 15.3632 14.2671 15.3672 14.2679C16.1381 14.3162 16.8757 14.5255 17.6329 14.764C17.6143 14.6971 17.6075 14.6614 17.5938 14.6292C17.2595 13.814 16.9255 12.9983 16.5879 12.1839C16.5412 12.0703 16.4682 11.9682 16.4239 11.8538C16.4061 11.8095 16.4128 11.7209 16.4434 11.6975C16.6689 11.5268 16.9019 11.3643 17.1387 11.2112L17.1387 11.211ZM17.8691 22.3496C17.8675 22.3617 17.8651 22.3746 17.8554 22.3907C17.7894 22.4511 17.7602 22.4618 17.7441 22.461C17.7763 22.4344 17.8141 22.4033 17.8633 22.3614C17.8641 22.3582 17.8673 22.3529 17.8689 22.3497L17.8691 22.3496Z" fill="black"/>
    <path d="M23.7551 12.0677L23.7575 12.1031C23.7672 12.1072 23.776 12.1104 23.7849 12.1104L23.7551 12.0677Z" fill="#050606"/>
  </g>
  <defs>
    <clipPath id="clip0_9_32">
      <rect width="23.9121" height="24" fill="white"/>
    </clipPath>
  </defs>
</svg>
