<svg width="24" height="24" viewBox="0 0 24 24" fill="none" xmlns="http://www.w3.org/2000/svg">
  <g clip-path="url(#clip0_9_95)">
    <path d="M18.4165 10.6245C18.3843 11.4143 17.9015 13.8386 17.3982 14.1652C16.4734 14.765 15.9867 16.1538 15.6993 17.1485C15.3978 18.1919 14.7776 19.0649 14.4055 20.0808C14.2595 20.4788 14.0993 20.9201 13.6911 21.1477C13.1855 21.4288 12.4868 21.3519 11.9317 21.3173C11.9223 21.3165 11.9129 21.3165 11.9034 21.3157C11.894 21.3165 11.8846 21.3165 11.8752 21.3173C11.3201 21.3519 10.6214 21.4288 10.1158 21.1477C9.70756 20.9201 9.5474 20.4788 9.40137 20.0808C9.02924 19.0649 8.40903 18.1919 8.10756 17.1485C7.82022 16.1538 7.33346 14.765 6.40864 14.1652C5.9054 13.8386 5.42257 11.4143 5.39038 10.6245C5.36605 10.0215 5.39117 9.41466 5.48224 8.81878C5.45005 8.00465 5.51364 7.18659 5.67223 6.38816L5.79392 6.50357C6.0475 6.08591 6.30029 5.66824 6.55388 5.25058L6.60648 4.97109C6.74858 5.19719 6.80746 5.45548 6.81217 5.7232C6.8208 5.71142 6.8318 5.70043 6.84122 5.68944C6.88283 6.00269 6.91109 6.28924 6.90167 6.45097C6.89225 6.61976 6.75015 7.98973 6.49107 8.00779C8.50873 7.86648 10.3553 8.86667 11.1576 10.1707C11.2094 9.50573 10.2563 8.68061 9.49951 8.27786C8.74269 7.87511 8.03768 7.78954 7.13719 7.57678C7.30206 7.00759 7.31776 6.08277 7.11678 5.30161C7.16075 4.97658 7.46771 4.43566 7.57527 4.16481C7.65064 4.27158 7.81943 4.45607 7.93876 4.59974C7.95368 4.58797 7.96781 4.57541 7.98351 4.56363C7.96624 4.34302 8.09343 4.0125 8.12954 3.65215C8.28185 3.77305 8.45692 3.99994 8.62022 4.12398C8.76624 4.03448 8.91619 3.95048 9.0685 3.87276C9.16114 3.53988 9.43984 3.30279 9.55604 3.0021C9.66281 3.22035 9.83238 3.35617 10.0734 3.45823C10.1268 3.44175 10.181 3.42997 10.2343 3.41427C10.3639 3.22585 10.5971 2.92045 10.5971 2.92045C10.5971 2.92045 10.8318 3.09788 10.981 3.25097C11.0665 3.23762 11.1521 3.22506 11.2385 3.21564C11.4756 2.90082 11.7025 2.70848 11.9168 2.323C12.2504 2.54832 12.4922 2.86785 12.599 3.218C12.7058 3.23056 12.8118 3.24626 12.917 3.26432C12.9892 3.08061 13.0308 2.83095 13.1368 2.7179C13.2114 2.81525 13.4626 3.21093 13.6196 3.42761C13.6628 3.44018 13.706 3.45038 13.7484 3.46373C13.79 3.29729 13.8559 3.03429 13.9768 3.08532C14.0444 3.03036 14.1087 2.97384 14.1825 2.93144C14.3129 3.21957 14.5083 3.48885 14.674 3.75813C14.7549 3.43704 14.8365 3.11594 14.9182 2.79484C15.2589 3.32555 15.2463 3.69533 15.5368 4.14204C15.6467 3.97953 15.7299 3.79425 15.8186 3.6176C15.8375 3.5807 15.8563 3.54381 15.8752 3.50691C16.0966 3.93321 16.0832 4.41211 16.3274 4.79837C16.3855 4.69709 16.5684 4.35244 16.6265 4.25117C16.6422 4.4969 16.7717 4.76147 16.8322 5.03939C16.5472 5.86608 16.5386 6.94243 16.7231 7.57678C15.8226 7.78954 15.1168 7.87511 14.3607 8.27786C13.6039 8.68061 12.6642 9.50573 12.716 10.1707C13.5184 8.86667 15.3649 7.86648 17.3817 8.00779C17.1227 7.98973 16.9806 6.61976 16.9711 6.45097C16.9633 6.3018 16.9861 6.04744 17.023 5.76245C17.0261 5.76716 17.03 5.77187 17.034 5.77658C17.1313 5.70278 17.2616 5.67766 17.3755 5.72006C17.4312 5.60858 17.4869 5.49631 17.5427 5.38404C17.8685 5.74047 18.0648 6.22016 18.0852 6.71083C18.1464 6.52555 18.265 6.36226 18.4196 6.25077C18.5154 7.48414 18.5154 8.72536 18.4228 9.95872C18.4275 10.1809 18.4251 10.4031 18.4165 10.6245ZM11.9992 -5.72205e-05C5.37233 -5.72205e-05 0 5.37305 0 11.9999C0 18.6276 5.37233 23.9999 11.9992 23.9999C18.6269 23.9999 23.9992 18.6276 23.9992 11.9999C23.9992 5.37305 18.6269 -5.72205e-05 11.9992 -5.72205e-05" fill="black"/>
    <path d="M12.0244 12.5561C11.9953 12.3677 11.9608 12.3669 11.9294 12.5569C11.6813 14.0407 10.5908 14.613 10.5908 14.613L10.6976 14.6272C11.1152 14.3971 11.6891 14.5102 11.9883 14.8807C12.2434 14.5659 12.7521 14.4741 13.1502 14.5353C13.2216 14.5463 13.2146 14.5008 13.2829 14.5267C13.2829 14.5267 12.2552 14.0478 12.0244 12.5561V12.5561Z" fill="black"/>
    <path d="M10.5962 10.81C10.4934 10.6067 10.3167 10.4489 10.1377 10.3139C9.79856 10.0603 9.39659 9.88679 9.00013 9.7439C8.36264 9.51544 7.24154 9.33566 6.61426 9.68266C6.86548 10.4913 7.81936 11.0652 8.58403 11.2874C9.15871 11.4538 9.68079 11.4201 10.2633 11.3384C10.4423 11.3133 10.5766 11.2803 10.6402 11.2018C10.7014 11.1249 10.6959 11.0063 10.5962 10.81Z" fill="black"/>
    <path d="M14.8729 9.74427C14.4764 9.88637 14.0745 10.0599 13.7361 10.3142C13.5571 10.4485 13.3797 10.6071 13.2768 10.8104C13.1779 11.0059 13.1716 11.1252 13.2329 11.2014C13.2965 11.2799 13.4315 11.3137 13.6105 11.3388C14.193 11.4204 14.7143 11.4534 15.2898 11.287C16.0537 11.0648 17.0075 10.4917 17.2588 9.68304C16.6315 9.33524 15.5104 9.51503 14.8729 9.74427V9.74427Z" fill="black"/>
  </g>
  <defs>
    <clipPath id="clip0_9_95">
      <rect width="23.9984" height="23.9999" fill="white"/>
    </clipPath>
  </defs>
</svg>
