<svg width="25" height="24" viewBox="0 0 25 24" fill="none" xmlns="http://www.w3.org/2000/svg">
  <path fill-rule="evenodd" clip-rule="evenodd" d="M0 12.0002C0 5.37222 5.37259 -0.000366211 12.0006 -0.000366211C18.6286 -0.000366211 24.0012 5.37222 24.0012 12.0002C24.0012 18.6274 18.6286 24 12.0006 24C5.37259 24 0 18.6274 0 12.0002ZM20.8802 13.629C20.8873 13.605 20.8943 13.5816 20.8961 13.5507C20.9015 13.4537 20.8979 13.3552 20.8943 13.2564C20.8895 13.1257 20.8847 12.9948 20.9008 12.8668L20.9016 12.8605C20.9178 12.7308 20.9335 12.6056 20.915 12.4743C20.9125 12.4565 20.9098 12.4399 20.9071 12.4238C20.9003 12.3829 20.894 12.3451 20.8946 12.2984C20.8954 12.2094 20.8951 12.1204 20.8948 12.0314C20.8945 11.9602 20.8942 11.8891 20.8946 11.8179C20.895 11.7544 20.888 11.6942 20.881 11.6337C20.876 11.5902 20.8709 11.5465 20.8686 11.5015C20.8639 11.4041 20.8584 11.3405 20.8168 11.2518C20.7901 11.1937 20.7689 11.1458 20.7634 11.0799C20.7589 11.0286 20.759 10.9791 20.7591 10.9303C20.7592 10.8447 20.7594 10.7609 20.7344 10.6724C20.6968 10.5403 20.6736 10.411 20.6498 10.2789C20.6454 10.2539 20.6409 10.2289 20.6363 10.2037C20.6327 10.1838 20.6295 10.1642 20.6263 10.1449C20.6113 10.0533 20.5973 9.96819 20.5538 9.88257C20.5228 9.82106 20.4832 9.77136 20.4428 9.72064C20.4311 9.70598 20.4194 9.69123 20.4078 9.67609C20.3576 9.61014 20.3344 9.53965 20.3098 9.46542C20.299 9.43271 20.288 9.39927 20.2743 9.36518C20.2522 9.30997 20.2242 9.26551 20.1943 9.21801C20.1881 9.20809 20.1818 9.19804 20.1754 9.18774C20.1212 9.10216 20.1204 9.04406 20.1196 8.94278C20.1196 8.85092 20.0906 8.78968 20.0482 8.7151C20.0242 8.67335 20.0004 8.62893 19.9761 8.5837C19.9018 8.44517 19.8234 8.29891 19.7239 8.1977C19.6575 8.12996 19.5829 8.07695 19.5082 8.0239C19.4504 7.98286 19.3925 7.94179 19.3384 7.89386C19.2862 7.847 19.2391 7.78943 19.1924 7.7323C19.171 7.70614 19.1497 7.68008 19.128 7.65518C19.1098 7.63394 19.0915 7.61281 19.0732 7.5917C19.0103 7.51918 18.9476 7.4468 18.8886 7.37018C18.7771 7.22493 18.6507 7.0632 18.5109 6.95564C18.3644 6.84306 18.2159 6.73587 18.0669 6.62834C17.9883 6.57163 17.9096 6.51483 17.831 6.45708C17.7631 6.40719 17.7059 6.34268 17.6487 6.27803C17.6014 6.22467 17.5541 6.1712 17.5005 6.12576C17.4295 6.06518 17.3695 5.99314 17.3089 5.92044C17.2918 5.89987 17.2746 5.87925 17.2571 5.85882C17.2267 5.82358 17.1959 5.7864 17.1645 5.74853C17.0323 5.58897 16.8899 5.41709 16.7224 5.32572C16.6406 5.28127 16.552 5.26865 16.4636 5.25604C16.3943 5.24615 16.3251 5.23628 16.2592 5.2111C16.2033 5.18989 16.1534 5.16039 16.1041 5.13125C16.0237 5.08377 15.9449 5.03722 15.8447 5.02895C15.7374 5.01949 15.6598 4.95161 15.5791 4.88115C15.5393 4.84637 15.4988 4.81096 15.4537 4.78164C15.3958 4.74454 15.3395 4.72233 15.2808 4.69916C15.2575 4.68997 15.2338 4.68063 15.2095 4.67015C15.1636 4.65084 15.1237 4.62204 15.0835 4.59305C15.0584 4.57488 15.0331 4.55663 15.0061 4.5406C14.9218 4.49139 14.8335 4.47128 14.7446 4.45103C14.6846 4.43736 14.6244 4.42363 14.5649 4.40085C14.5115 4.38051 14.455 4.36802 14.3985 4.35551C14.3154 4.33712 14.2321 4.31869 14.1582 4.27523C14.1323 4.26019 14.1047 4.24292 14.0759 4.22491C13.965 4.15549 13.8365 4.07514 13.7225 4.06953C13.6827 4.06758 13.6436 4.06129 13.6048 4.05503C13.5342 4.04363 13.4641 4.03234 13.3911 4.04754C13.2467 4.07817 13.07 4.09779 12.924 4.06639C12.8536 4.05128 12.7867 4.02537 12.72 3.99951C12.6237 3.96221 12.5277 3.92499 12.4215 3.92036C12.2857 3.91408 12.1436 3.91408 12.0078 3.92036C11.9459 3.92297 11.8862 3.93707 11.8264 3.95117C11.7603 3.96678 11.6943 3.98238 11.6254 3.98238C11.5659 3.98198 11.5088 3.9897 11.4518 3.99739C11.3983 4.00463 11.345 4.01183 11.2902 4.01221C11.2537 4.01242 11.2148 4.00993 11.175 4.00737C11.0598 3.99999 10.9368 3.99211 10.8411 4.04754C10.7649 4.0923 10.7288 4.10564 10.6424 4.1025C10.6257 4.10198 10.6085 4.10079 10.5912 4.0996C10.5308 4.09541 10.4684 4.09109 10.4116 4.11428C10.3948 4.12117 10.3805 4.1283 10.3672 4.13494C10.3319 4.15249 10.3036 4.16659 10.2546 4.16374C10.2188 4.16144 10.1842 4.15405 10.1496 4.14665C10.1134 4.13894 10.0771 4.1312 10.0395 4.1292C10.0285 4.12871 10.017 4.12806 10.0053 4.12739C9.94219 4.12382 9.86989 4.11972 9.81099 4.13626C9.79078 4.1416 9.77186 4.15102 9.7529 4.16046C9.73281 4.17045 9.71267 4.18048 9.69087 4.18573C9.64733 4.19595 9.60343 4.19631 9.55943 4.19668C9.51217 4.19707 9.4648 4.19746 9.41765 4.21007C9.36222 4.22518 9.31797 4.25188 9.27151 4.2799C9.25283 4.29118 9.23378 4.30267 9.21351 4.3137C9.16485 4.33977 9.11479 4.34384 9.06472 4.3479C9.0017 4.35301 8.93864 4.35813 8.87827 4.40713C8.86954 4.41417 8.86144 4.42088 8.85372 4.42728C8.81834 4.4566 8.79069 4.47952 8.74558 4.49821C8.72531 4.50683 8.70712 4.5124 8.69001 4.51765C8.64947 4.53008 8.61505 4.54063 8.57364 4.58535C8.55517 4.60524 8.54092 4.62492 8.52728 4.64376C8.50321 4.67699 8.48104 4.70762 8.44095 4.73217C8.41409 4.74856 8.38433 4.7573 8.35456 4.76603C8.333 4.77235 8.31144 4.77868 8.29099 4.78792C8.26574 4.79887 8.24295 4.81407 8.22046 4.82909C8.18491 4.85281 8.15007 4.87606 8.10728 4.88134C8.05729 4.88732 8.0028 4.88427 7.94978 4.88131C7.92618 4.87999 7.90287 4.87869 7.88038 4.8782C7.81521 4.87742 7.77988 4.87821 7.721 4.90725C7.70295 4.91628 7.68796 4.92512 7.67368 4.93354C7.64571 4.95003 7.62048 4.96491 7.58046 4.97635C7.49918 4.99882 7.42955 5.03846 7.35933 5.07845C7.31424 5.10412 7.2689 5.12994 7.22009 5.15143C7.15364 5.18035 7.08719 5.18119 7.02161 5.18201C6.93763 5.18307 6.85506 5.18412 6.77571 5.24407C6.76993 5.24843 6.76434 5.25268 6.7589 5.25681C6.68891 5.30995 6.64397 5.34407 6.55509 5.35791C6.55137 5.35843 6.54787 5.35889 6.54454 5.35933C6.51765 5.36288 6.50191 5.36496 6.47187 5.38382C6.44797 5.39871 6.43247 5.4224 6.41729 5.44562C6.40205 5.46892 6.38712 5.49175 6.36431 5.50473C6.33752 5.51916 6.29958 5.51398 6.26424 5.50915C6.24571 5.50662 6.2279 5.50419 6.21278 5.50473C6.15429 5.5064 6.11492 5.54142 6.07503 5.5769C6.03996 5.60809 6.00448 5.63964 5.95526 5.64919C5.94193 5.65199 5.9305 5.65382 5.92032 5.65545C5.8819 5.66161 5.86122 5.66493 5.82336 5.70651C5.80774 5.72363 5.7989 5.7427 5.79038 5.7611C5.77662 5.79077 5.7637 5.81867 5.72443 5.8337C5.68906 5.84692 5.65418 5.84534 5.61934 5.84377C5.57762 5.84188 5.53596 5.84 5.49361 5.86353C5.46635 5.87867 5.44291 5.90287 5.41947 5.92707C5.40038 5.94679 5.38128 5.9665 5.36013 5.9813C5.31874 6.00962 5.2745 6.02266 5.23019 6.03572C5.17869 6.0509 5.12711 6.0661 5.07985 6.10535C5.06663 6.11603 5.05503 6.12671 5.04374 6.13711C5.0235 6.15574 5.00427 6.17345 4.97857 6.18857C4.9611 6.19869 4.94605 6.2049 4.93244 6.21051C4.89957 6.22408 4.87508 6.23419 4.84509 6.2875C4.82331 6.32646 4.81203 6.37124 4.80076 6.41599C4.79091 6.45509 4.78107 6.49417 4.76423 6.52932C4.74164 6.57695 4.71936 6.59202 4.69239 6.61027C4.67624 6.6212 4.65841 6.63327 4.63782 6.65415C4.59009 6.70282 4.57834 6.77186 4.56649 6.84147C4.55846 6.88864 4.55039 6.93608 4.53105 6.97762C4.51092 7.02164 4.48324 7.05811 4.45486 7.09549C4.44781 7.10478 4.44072 7.11412 4.43369 7.12365C4.40794 7.15877 4.37869 7.18536 4.34972 7.2117C4.32039 7.23836 4.29134 7.26477 4.26646 7.29952C4.18324 7.41258 4.12278 7.53349 4.0639 7.66382C4.04424 7.70761 4.01872 7.74658 3.99315 7.78563C3.97379 7.81519 3.9544 7.84479 3.93749 7.87659C3.89143 7.96136 3.83743 8.03308 3.78272 8.10574C3.77308 8.11854 3.76342 8.13138 3.75378 8.14431C3.71832 8.19204 3.70182 8.23857 3.68318 8.29113C3.68035 8.29909 3.67748 8.3072 3.67448 8.31547C3.65984 8.35589 3.65201 8.36909 3.63232 8.40229C3.62983 8.4065 3.62714 8.41102 3.62423 8.41596C3.57477 8.50076 3.52766 8.57691 3.47349 8.65778C3.46085 8.6762 3.45319 8.69362 3.4457 8.71066C3.43691 8.73066 3.42836 8.75013 3.41225 8.77005C3.39755 8.78809 3.38315 8.79973 3.36902 8.81114C3.34994 8.82656 3.33137 8.84156 3.31332 8.87134C3.24345 8.98518 3.15787 9.12885 3.1563 9.27253C3.15582 9.33639 3.14389 9.39555 3.13182 9.4554C3.12415 9.49341 3.11643 9.53171 3.11155 9.57166C3.11047 9.58052 3.11013 9.59149 3.10977 9.60306C3.10908 9.62534 3.10833 9.64986 3.10212 9.66588C3.0957 9.68314 3.08435 9.69794 3.0728 9.713C3.06176 9.7274 3.05053 9.74204 3.04324 9.75931C3.02672 9.79726 3.01706 9.83952 3.00746 9.88148C3.00018 9.91331 2.99295 9.94497 2.98279 9.97443C2.97309 10.0032 2.96063 10.0311 2.94811 10.059C2.92718 10.1058 2.90605 10.153 2.89721 10.206C2.89505 10.2197 2.89569 10.2327 2.89635 10.2459C2.89712 10.2614 2.89789 10.277 2.89407 10.294C2.88964 10.3124 2.88192 10.3295 2.87417 10.3466C2.86541 10.366 2.85662 10.3854 2.85246 10.407C2.82256 10.5638 2.84751 10.7402 2.86946 10.8953C2.87115 10.9073 2.87281 10.9191 2.87444 10.9307C2.87725 10.9525 2.87613 10.9736 2.87502 10.9946C2.87365 11.0206 2.87229 11.0463 2.87836 11.0728C2.88154 11.0855 2.88511 11.0956 2.88847 11.1051C2.89177 11.1144 2.89488 11.1232 2.89721 11.1333C2.89603 11.1486 2.89618 11.1639 2.89632 11.1792C2.89637 11.1843 2.89642 11.1894 2.89642 11.1945C2.89421 11.2037 2.8913 11.2119 2.88826 11.2205C2.88485 11.2301 2.88128 11.2401 2.87836 11.2526C2.87439 11.2707 2.87489 11.2868 2.87538 11.303C2.87577 11.3157 2.87616 11.3284 2.87444 11.3421C2.87111 11.3659 2.86635 11.3856 2.8619 11.404C2.8527 11.442 2.84478 11.4748 2.85324 11.5282C2.85762 11.5566 2.86586 11.5865 2.87419 11.6166C2.8858 11.6587 2.8976 11.7014 2.89934 11.7419C2.89949 11.7452 2.89956 11.7486 2.89956 11.7519M2.89934 11.7419C2.89878 11.7131 2.89878 11.6842 2.89878 11.6547V11.6546V11.3398C2.89878 11.3164 2.8982 11.2925 2.89761 11.2683C2.89702 11.2438 2.89642 11.219 2.89642 11.1945C2.89665 11.1932 2.8969 11.1919 2.89716 11.1906C2.89864 11.1828 2.90035 11.1738 2.90035 11.1631C2.90035 11.1513 2.89878 11.1419 2.89721 11.1333V11.1301C2.90038 11.0944 2.91164 11.0659 2.92317 11.0368C2.93163 11.0154 2.94023 10.9937 2.94588 10.9684C2.95839 10.9138 2.9556 10.8556 2.95281 10.7975C2.95088 10.7572 2.94895 10.7169 2.95217 10.6779C2.97729 10.3984 3.09035 10.1189 3.20812 9.87708C3.21959 9.85361 3.2324 9.83197 3.24505 9.81059C3.27133 9.76615 3.29695 9.72285 3.30861 9.66666C3.31073 9.65684 3.31275 9.64734 3.31472 9.63809C3.32883 9.57187 3.34025 9.51826 3.36435 9.45075C3.37468 9.42197 3.38716 9.39232 3.39987 9.36214C3.43256 9.28449 3.46673 9.2033 3.46956 9.12414C3.47022 9.10743 3.46842 9.08676 3.46649 9.06476C3.46156 9.00824 3.45585 8.9429 3.48919 8.91295C3.48834 8.91379 3.50456 8.91342 3.52454 8.91296C3.56012 8.91215 3.60762 8.91106 3.59204 8.91609C3.67846 8.88958 3.71288 8.78106 3.74369 8.68391C3.75487 8.64866 3.76558 8.61492 3.77811 8.58712C3.81364 8.50867 3.87025 8.442 3.92612 8.3762C3.95915 8.3373 3.99193 8.2987 4.01993 8.25815C4.07646 8.1765 4.13927 8.08935 4.20522 8.01948C4.23436 7.98913 4.26537 7.96605 4.29581 7.9434C4.34412 7.90746 4.39099 7.87259 4.42663 7.81142C4.45807 7.75757 4.49922 7.71034 4.54058 7.66285C4.5746 7.62379 4.60877 7.58456 4.63782 7.54134C4.67938 7.47978 4.73622 7.45131 4.79337 7.42269C4.85065 7.394 4.90825 7.36515 4.95109 7.30266C4.9886 7.24827 5.03536 7.20759 5.08249 7.16659C5.11427 7.13895 5.14622 7.11115 5.17563 7.0789C5.19752 7.05428 5.21799 7.02957 5.23822 7.00516C5.28183 6.95253 5.32431 6.90127 5.37741 6.85514C5.42362 6.81439 5.46292 6.76861 5.50226 6.72278C5.52508 6.6962 5.54791 6.66959 5.57212 6.64394C5.63571 6.57564 5.67261 6.52853 5.72129 6.44217C5.76683 6.3613 5.80923 6.28671 5.86889 6.21841C5.95447 6.12027 6.03848 6.02998 6.15389 5.98444C6.19943 5.9656 6.23476 5.9601 6.28344 5.95618C6.35582 5.95039 6.40884 5.92858 6.47389 5.90184C6.47941 5.89957 6.48501 5.89727 6.49071 5.89494C6.58448 5.85731 6.68325 5.86148 6.78149 5.86563C6.81239 5.86694 6.84323 5.86824 6.87385 5.86824C6.88651 5.86814 6.89926 5.86813 6.91208 5.86812C6.99625 5.86807 7.08316 5.86802 7.16356 5.84076C7.22208 5.82105 7.25981 5.78878 7.30293 5.7519C7.31477 5.74177 7.32702 5.7313 7.34021 5.72064C7.45798 5.62486 7.58203 5.54242 7.71472 5.47725C7.77931 5.4458 7.83724 5.40469 7.89509 5.36363C7.94412 5.32884 7.9931 5.29408 8.04604 5.26527C8.11445 5.22795 8.18328 5.21099 8.25398 5.19357C8.28145 5.18681 8.3092 5.17997 8.33732 5.17184C8.35805 5.16576 8.37764 5.15611 8.39713 5.1465C8.42045 5.13501 8.44363 5.12358 8.46843 5.11845C8.50301 5.11187 8.53605 5.12139 8.56917 5.13094C8.58343 5.13506 8.5977 5.13917 8.61211 5.14201C8.87513 5.19304 9.15227 5.06114 9.37054 4.90882C9.39167 4.89407 9.41327 4.87855 9.43518 4.86281C9.50768 4.81072 9.58355 4.75621 9.65711 4.71883C9.68166 4.70675 9.70704 4.70066 9.73261 4.69452C9.75691 4.68869 9.78139 4.68281 9.8055 4.67172C9.82822 4.66151 9.84929 4.64687 9.87038 4.63222C9.89957 4.61196 9.92879 4.59166 9.96252 4.583C10.0438 4.56362 10.1384 4.56934 10.2295 4.57485C10.2713 4.57737 10.3124 4.57986 10.3512 4.57986C10.3936 4.57986 10.4359 4.57977 10.4782 4.57968C10.5628 4.57951 10.6472 4.57934 10.7319 4.57986C10.7517 4.57986 10.772 4.58077 10.7925 4.5817C10.8845 4.58583 10.9806 4.59016 11.0499 4.51312C11.0558 4.50666 11.0611 4.50066 11.0661 4.4951C11.0952 4.46216 11.1111 4.44423 11.1575 4.43147C11.1768 4.4264 11.1949 4.42414 11.2128 4.42191C11.2391 4.41862 11.2651 4.41537 11.2941 4.40321C11.3294 4.3883 11.3597 4.36577 11.3898 4.34339C11.4151 4.32451 11.4404 4.30573 11.4684 4.29172C11.5149 4.26846 11.5735 4.27319 11.6272 4.27753C11.646 4.27905 11.6642 4.28052 11.6812 4.28073C11.778 4.28125 11.8745 4.28108 11.9709 4.2809C12.0191 4.28081 12.0672 4.28073 12.1153 4.28073C12.2195 4.28073 12.3236 4.28081 12.4278 4.2809C12.6361 4.28108 12.8444 4.28125 13.0528 4.28073C13.0762 4.2806 13.0998 4.28015 13.1235 4.27971C13.2441 4.27743 13.3668 4.27511 13.483 4.31449C13.5228 4.3282 13.5575 4.35242 13.5923 4.37671C13.6213 4.39693 13.6503 4.4172 13.6824 4.43147C13.7106 4.44442 13.7397 4.45458 13.7687 4.46469C13.7907 4.47235 13.8126 4.47998 13.834 4.48878C13.9303 4.5288 14.0136 4.59584 14.0973 4.6631C14.1547 4.70933 14.2124 4.75567 14.2744 4.79341C14.3685 4.85151 14.471 4.88301 14.5738 4.91459C14.6279 4.93123 14.6822 4.9479 14.7353 4.96849C14.8083 4.99695 14.8774 5.0363 14.9464 5.07563C14.9916 5.1014 15.0368 5.12717 15.0831 5.14986C15.1186 5.16719 15.1543 5.17918 15.1897 5.19106C15.2472 5.21039 15.3039 5.22943 15.3579 5.27077C15.3964 5.30065 15.433 5.33116 15.4692 5.36131C15.5479 5.427 15.6247 5.491 15.7151 5.5432C15.7952 5.58874 15.8878 5.65312 15.9459 5.73085C16.0276 5.83998 16.1242 5.93027 16.2411 5.98758C16.3095 6.02124 16.376 6.06436 16.4427 6.10756C16.5284 6.1631 16.6143 6.21875 16.7044 6.25452C16.737 6.26718 16.7712 6.27221 16.8053 6.27721C16.8515 6.28401 16.8975 6.29078 16.9391 6.31655C16.9744 6.33835 17.0097 6.37627 17.0423 6.41126C17.059 6.42921 17.075 6.44639 17.0899 6.46023C17.1371 6.50367 17.1891 6.53398 17.2411 6.56429C17.2859 6.59039 17.3307 6.6165 17.3725 6.65101C17.4551 6.71839 17.536 6.75385 17.6229 6.79197C17.6525 6.80494 17.6827 6.81821 17.714 6.83316C17.7608 6.85504 17.7959 6.8952 17.8309 6.93516C17.8423 6.94824 17.8537 6.9613 17.8656 6.9737C17.9201 7.03149 17.9784 7.07562 18.039 7.12156C18.0525 7.1318 18.0662 7.14212 18.0799 7.1527C18.169 7.22198 18.2347 7.30811 18.3018 7.39608C18.3381 7.44371 18.3748 7.49187 18.4159 7.5382C18.4345 7.55902 18.4528 7.5792 18.4709 7.59911C18.5526 7.68879 18.6293 7.77307 18.6954 7.88679C18.726 7.93901 18.7521 7.9941 18.778 8.04895C18.8198 8.13757 18.8614 8.22556 18.9215 8.29977C18.9472 8.33097 18.9688 8.36336 18.99 8.39517C19.0313 8.45699 19.0711 8.51663 19.1359 8.56121C19.1899 8.5984 19.2293 8.65062 19.2689 8.70318C19.3088 8.75602 19.3489 8.8092 19.4044 8.84778C19.441 8.87302 19.4797 8.88919 19.518 8.9052C19.5726 8.92803 19.6264 8.95052 19.6721 8.99852C19.7521 9.08404 19.7841 9.21503 19.8141 9.33786C19.8221 9.37065 19.83 9.40287 19.8386 9.43348C19.8629 9.52145 19.8969 9.60246 19.9307 9.68338C19.9613 9.75629 19.9918 9.82913 20.0152 9.90691C20.046 10.0077 20.0933 10.0971 20.1407 10.1866C20.1889 10.2777 20.2371 10.3688 20.268 10.4722C20.2745 10.494 20.2805 10.5155 20.2864 10.5366C20.3117 10.6266 20.3355 10.7111 20.3819 10.7957C20.3848 10.8011 20.3878 10.8064 20.3907 10.8116C20.4285 10.88 20.4611 10.9388 20.4902 11.0139C20.5444 11.1537 20.5766 11.3099 20.5852 11.4638C20.5879 11.5094 20.5864 11.5551 20.585 11.6007C20.583 11.6621 20.581 11.7234 20.5891 11.7841C20.5897 11.7877 20.5902 11.7912 20.5907 11.7947C20.5979 11.8457 20.6054 11.8983 20.6363 11.9365C20.6402 11.9418 20.646 11.9446 20.6517 11.9474C20.6586 11.9506 20.6654 11.9539 20.6692 11.9616C20.7004 12.0175 20.7067 12.0917 20.7131 12.1669C20.7187 12.2321 20.7243 12.298 20.7462 12.3534C20.7956 12.4805 20.842 12.6062 20.8443 12.7545C20.8455 12.8519 20.8316 12.9465 20.8177 13.0412C20.8043 13.1322 20.7909 13.2232 20.7909 13.3167C20.7909 13.3443 20.792 13.3726 20.793 13.4012C20.7956 13.4718 20.7983 13.5441 20.7854 13.6111C20.7729 13.6786 20.7666 13.7312 20.7658 13.8019C20.7648 13.9126 20.7373 14.0268 20.7102 14.1394C20.6947 14.2033 20.6795 14.2667 20.6692 14.3287C20.6573 14.3962 20.6327 14.4506 20.607 14.5075C20.5971 14.5294 20.587 14.5517 20.5774 14.5752C20.5739 14.5835 20.5705 14.5933 20.5669 14.6036C20.5539 14.6406 20.5384 14.6847 20.5114 14.6914C20.5114 14.6888 20.5111 14.6866 20.5108 14.6842C20.5109 14.683 20.5109 14.6818 20.5106 14.6805C20.5091 14.6663 20.5075 14.6514 20.5067 14.6341C20.5036 14.6498 20.5059 14.6655 20.5106 14.6805C20.5106 14.6818 20.5107 14.683 20.5108 14.6842C20.5107 14.6866 20.5104 14.6888 20.5114 14.6914C20.5247 14.8099 20.5376 14.774 20.556 14.7227C20.5626 14.7043 20.5699 14.6839 20.5782 14.6679C20.5894 14.6471 20.6017 14.6298 20.6142 14.6122C20.6234 14.5992 20.6327 14.586 20.6417 14.5713C20.6634 14.536 20.6754 14.4994 20.6878 14.4619C20.6952 14.4395 20.7027 14.4168 20.7124 14.3939C20.7564 14.2934 20.7925 14.2102 20.8121 14.0924C20.8231 14.0241 20.8357 13.9589 20.8506 13.8922C20.8587 13.8529 20.8596 13.8148 20.8605 13.7769C20.8613 13.745 20.8621 13.7132 20.8671 13.681C20.8706 13.6617 20.8754 13.6452 20.8802 13.629M19.6189 13.9206C19.6176 13.8632 19.6163 13.8059 19.625 13.7485C19.627 13.7359 19.6291 13.7235 19.6312 13.7111C19.643 13.6404 19.6543 13.573 19.6423 13.4988C19.5917 13.1925 19.4596 12.8868 19.3373 12.6041L19.3337 12.596L19.3302 12.5878C19.2894 12.4941 19.2552 12.4157 19.2277 12.318C19.215 12.2712 19.1966 12.2277 19.1782 12.1843C19.156 12.1317 19.1338 12.0793 19.1218 12.0212C19.0819 11.8329 19.0822 11.6471 19.0825 11.4561C19.0825 11.4401 19.0825 11.4241 19.0825 11.4081C19.0825 11.3867 19.0841 11.3624 19.0857 11.3369C19.0897 11.2762 19.0941 11.2087 19.0786 11.1584C19.0693 11.1291 19.0569 11.1035 19.0447 11.0783C19.0229 11.0333 19.0019 10.9899 19.0008 10.9299C18.9994 10.8748 18.9937 10.8211 18.988 10.7674C18.981 10.7018 18.9741 10.6362 18.9749 10.568C18.9753 10.5166 18.9753 10.4651 18.9753 10.4137C18.9753 10.3623 18.9753 10.3109 18.9757 10.2594C18.9765 10.1629 18.9632 10.0686 18.9412 9.97443C18.9319 9.93522 18.9284 9.89763 18.9248 9.8596C18.9223 9.83291 18.9198 9.806 18.9153 9.77815C18.9099 9.74346 18.9077 9.70615 18.9055 9.66847C18.9019 9.60724 18.8982 9.54505 18.8807 9.49158C18.8588 9.42511 18.8236 9.35012 18.7909 9.28041C18.7792 9.25544 18.7678 9.23114 18.7575 9.20815C18.7457 9.18231 18.7335 9.15891 18.7218 9.13633C18.6936 9.08209 18.6678 9.03263 18.6562 8.96555C18.6551 8.95845 18.6541 8.95166 18.6532 8.94511C18.6481 8.90891 18.644 8.87987 18.6248 8.84464C18.6054 8.81067 18.5747 8.78063 18.5454 8.75191C18.5354 8.74214 18.5256 8.73252 18.5164 8.72295C18.3478 8.54745 18.149 8.40205 17.9519 8.25781C17.9003 8.22007 17.8488 8.18241 17.798 8.14431C17.6752 8.05257 17.5694 7.94735 17.4626 7.84103C17.4213 7.79994 17.3798 7.75869 17.3372 7.71799C17.2194 7.60572 17.0844 7.50915 16.9478 7.41964C16.8881 7.38088 16.826 7.34888 16.7638 7.31681C16.7138 7.29107 16.6638 7.26529 16.6149 7.23593C16.5744 7.21174 16.5342 7.18581 16.4938 7.15978C16.4189 7.11145 16.3433 7.06272 16.2647 7.02394C16.2141 6.99902 16.1614 6.97972 16.1086 6.96037C16.0533 6.94008 15.9978 6.91975 15.9444 6.89283C15.8476 6.84373 15.7491 6.82196 15.6491 6.79986C15.5891 6.78663 15.5287 6.77327 15.4678 6.75386C15.4283 6.7413 15.3886 6.72882 15.3489 6.71634C15.2695 6.6914 15.1901 6.66645 15.1121 6.6408C15.0795 6.63023 15.0471 6.6079 15.0164 6.58676C14.997 6.57336 14.9783 6.56044 14.9606 6.5513C14.9208 6.53045 14.8796 6.51426 14.8383 6.49803C14.8096 6.48675 14.7809 6.47546 14.7525 6.46258C14.7128 6.44488 14.6758 6.42662 14.6394 6.40864C14.5707 6.37477 14.5041 6.34192 14.4252 6.31576C14.2399 6.25531 14.0671 6.22547 13.874 6.20192C13.8577 6.19993 13.8412 6.19803 13.8246 6.19612C13.7169 6.18366 13.605 6.17073 13.505 6.13126C13.4383 6.10434 13.378 6.06695 13.3177 6.02955C13.2636 5.99603 13.2095 5.96252 13.1509 5.93655C13.0935 5.91163 13.0355 5.89013 12.9778 5.86873C12.8628 5.8261 12.7491 5.78389 12.6429 5.71593C12.4592 5.59738 12.2983 5.54791 12.0808 5.5432C11.9096 5.53928 11.7361 5.53928 11.5657 5.54242C11.4469 5.54478 11.3339 5.57812 11.2212 5.61138C11.1092 5.64446 10.9974 5.67746 10.8803 5.67981C10.8552 5.68037 10.8308 5.68019 10.8069 5.68001C10.7288 5.67943 10.6559 5.67889 10.5765 5.70415C10.5575 5.71013 10.5398 5.71671 10.5225 5.72317C10.4873 5.73625 10.4534 5.74888 10.4124 5.75519C10.379 5.75974 10.3447 5.75898 10.3104 5.75821C10.2736 5.75739 10.2369 5.75657 10.2012 5.76225C10.1576 5.76944 10.121 5.78656 10.0838 5.804C10.06 5.81513 10.0359 5.82639 10.0096 5.83527C9.92882 5.86264 9.84538 5.86621 9.76168 5.86979C9.69411 5.87268 9.62638 5.87558 9.55975 5.89101C9.44988 5.9169 9.34143 5.93425 9.23249 5.95168C9.17951 5.96016 9.12641 5.96865 9.07298 5.97816C8.98232 5.99457 8.89478 6.02401 8.80706 6.05351C8.71853 6.08329 8.62981 6.11312 8.53752 6.12969C8.46398 6.14261 8.39013 6.15333 8.31636 6.16403C8.27357 6.17024 8.2308 6.17645 8.18814 6.18308C8.14969 6.18918 8.11194 6.18947 8.0745 6.18976C8.01561 6.19021 7.95746 6.19066 7.89843 6.2137C7.86013 6.22859 7.82598 6.25018 7.79173 6.27182C7.7628 6.29011 7.73379 6.30845 7.70215 6.32283C7.50572 6.41047 7.30275 6.47484 7.09812 6.53974C7.0901 6.54228 7.08208 6.54483 7.07406 6.54737C6.91154 6.59919 6.75216 6.70754 6.63596 6.83394C6.59304 6.88081 6.5619 6.93821 6.53086 6.99544C6.51249 7.02929 6.49416 7.06309 6.47344 7.0946C6.41612 7.18097 6.3486 7.25555 6.26616 7.31836C6.21906 7.35448 6.18059 7.37882 6.12484 7.39138C6.10741 7.39514 6.08924 7.39706 6.07093 7.399C6.03565 7.40273 5.99986 7.40651 5.96782 7.42357C5.93351 7.44246 5.9077 7.47238 5.88203 7.50215C5.86716 7.51939 5.85233 7.53657 5.83592 7.55154C5.8033 7.58196 5.77379 7.59952 5.74191 7.61849C5.72853 7.62645 5.71472 7.63467 5.70009 7.64419C5.58838 7.71624 5.54011 7.81167 5.48547 7.91969C5.47521 7.93997 5.46473 7.9607 5.45356 7.98179C5.40736 8.0688 5.34832 8.14524 5.2883 8.22296L5.28476 8.22754C5.23059 8.2982 5.19526 8.36729 5.15993 8.44815C5.12457 8.52897 5.07042 8.58237 5.01178 8.64021C4.9975 8.65428 4.98296 8.66863 4.96836 8.68369C4.87744 8.77744 4.82977 8.90567 4.78226 9.03344C4.7506 9.11862 4.719 9.2036 4.67472 9.27803C4.63645 9.34222 4.60921 9.40684 4.58109 9.47357C4.57172 9.49581 4.56225 9.51828 4.55224 9.54104C4.5367 9.57602 4.51797 9.61008 4.49922 9.64419C4.46871 9.69966 4.43815 9.75525 4.42113 9.81505C4.39295 9.91332 4.39859 10.0184 4.40423 10.1235C4.41116 10.2527 4.41809 10.382 4.36224 10.4989C4.33492 10.5565 4.29368 10.6155 4.25481 10.671C4.2423 10.6889 4.23004 10.7064 4.21857 10.7234C4.18974 10.7659 4.16638 10.81 4.14282 10.8544C4.12853 10.8813 4.11416 10.9084 4.09844 10.9354C4.06933 10.985 4.04486 11.0345 4.02008 11.0847C4.00677 11.1117 3.99337 11.1388 3.9791 11.1662C3.95459 11.2134 3.92036 11.2516 3.88597 11.2901C3.86419 11.3145 3.84235 11.3389 3.82287 11.3657L3.81906 11.3708C3.72596 11.4973 3.62816 11.6301 3.62816 11.7904C3.62816 11.8018 3.62833 11.8128 3.62849 11.8234C3.62938 11.8815 3.63012 11.9294 3.60225 11.9851C3.57869 12.0307 3.57555 12.0432 3.57555 12.0966C3.57488 12.2615 3.69647 12.3589 3.81774 12.456C3.83797 12.4722 3.85818 12.4884 3.87782 12.5049C4.0372 12.6391 4.16361 12.877 4.16675 13.0835C4.16807 13.159 4.16716 13.2348 4.16625 13.3106C4.16554 13.3695 4.16484 13.4283 4.16518 13.4871C4.16675 13.6252 4.12906 13.6771 4.00973 13.7485C3.9532 13.7815 3.8582 13.8741 3.84171 13.9424C3.82735 14.0009 3.83309 14.072 3.83857 14.1402C3.84149 14.1764 3.84434 14.2118 3.84406 14.2439C3.84359 14.2843 3.83159 14.3079 3.81866 14.3332C3.80999 14.3502 3.8009 14.368 3.7946 14.3923C3.78973 14.4095 3.78705 14.4233 3.78459 14.4359C3.7803 14.4579 3.77666 14.4767 3.7632 14.5046C3.73964 14.5493 3.72002 14.6121 3.73415 14.6655C3.74076 14.6913 3.75057 14.7122 3.76018 14.7327C3.7734 14.7609 3.78625 14.7883 3.78989 14.8265C3.80481 14.9851 3.89667 15.1507 3.97754 15.2842C4.0427 15.3926 4.07725 15.4538 4.09923 15.581C4.11056 15.649 4.12917 15.7061 4.15014 15.7705L4.15262 15.7781C4.16639 15.8206 4.18685 15.8562 4.20731 15.8919C4.22651 15.9253 4.24571 15.9587 4.25939 15.9979C4.27648 16.0474 4.29688 16.0734 4.32207 16.1056C4.33161 16.1177 4.34183 16.1308 4.35282 16.1463C4.38504 16.1907 4.40615 16.2447 4.42657 16.2969C4.43104 16.3083 4.43547 16.3197 4.43997 16.3308C4.46399 16.3876 4.50067 16.4405 4.53666 16.4924C4.54891 16.51 4.56109 16.5276 4.57266 16.5451C4.65902 16.6747 4.74931 16.7964 4.85766 16.9141C4.91105 16.9722 4.95894 17.0421 4.99819 17.1096C5.01971 17.1467 5.04417 17.1735 5.06981 17.2016C5.0816 17.2145 5.09364 17.2277 5.10576 17.2423C5.11963 17.259 5.1299 17.2778 5.1401 17.2965C5.15011 17.3149 5.16006 17.3331 5.17328 17.3491C5.18198 17.3594 5.19441 17.3698 5.20697 17.3803C5.2182 17.3897 5.22955 17.3991 5.23844 17.4088C5.24788 17.4195 5.25436 17.4297 5.26077 17.4398C5.26982 17.4541 5.27875 17.4682 5.29575 17.4833C5.30925 17.4949 5.32235 17.5058 5.33504 17.5163C5.39104 17.5628 5.4393 17.6028 5.48026 17.6726C5.52108 17.7409 5.56976 17.8076 5.64121 17.8476C5.72564 17.8957 5.81729 17.9321 5.9089 17.9685C6.03708 18.0193 6.16517 18.0702 6.27323 18.153C6.31897 18.1877 6.36698 18.2181 6.41497 18.2484C6.45182 18.2717 6.48866 18.295 6.52447 18.3203C6.53589 18.3283 6.54703 18.3362 6.55799 18.344C6.63293 18.3972 6.69953 18.4445 6.79063 18.4781C6.79896 18.4812 6.80703 18.4841 6.81488 18.4869C6.86916 18.5065 6.91298 18.5223 6.961 18.5621C7.03244 18.6218 7.08112 18.6445 7.16984 18.6697C7.20985 18.6801 7.23888 18.7004 7.26867 18.7213C7.28799 18.7348 7.30763 18.7485 7.33079 18.7599C7.35604 18.7726 7.38296 18.7785 7.41003 18.7844C7.42 18.7866 7.42999 18.7888 7.43992 18.7914C7.48589 18.8033 7.53035 18.8239 7.5741 18.8441C7.58489 18.8491 7.59565 18.8541 7.60637 18.8589C7.66242 18.884 7.71896 18.9067 7.77555 18.9294C7.84261 18.9563 7.90973 18.9832 7.97616 19.0143C8.05699 19.0515 8.14706 19.0717 8.23597 19.0916C8.27661 19.1007 8.317 19.1097 8.35616 19.1203C8.38584 19.1284 8.41599 19.1335 8.44605 19.1386C8.48279 19.1449 8.51939 19.1511 8.5548 19.1627C8.58336 19.172 8.61155 19.1833 8.63982 19.1947C8.66905 19.2065 8.69837 19.2183 8.72831 19.2279C8.86099 19.2695 8.99525 19.3103 9.12872 19.3496C9.17052 19.3616 9.20732 19.3611 9.24702 19.3605C9.26175 19.3603 9.27688 19.3601 9.29281 19.3606C9.33393 19.3615 9.36435 19.3745 9.39542 19.3879C9.41951 19.3983 9.444 19.4088 9.47417 19.414C9.53814 19.4252 9.60452 19.4203 9.67088 19.4155C9.72995 19.4112 9.78901 19.4069 9.84632 19.414C9.94289 19.4257 10.0528 19.4493 10.1462 19.4736C10.2162 19.492 10.282 19.5244 10.3477 19.5569C10.4058 19.5856 10.4639 19.6142 10.5247 19.633C10.6094 19.6596 10.6958 19.6583 10.7831 19.657C10.7961 19.6569 10.8092 19.6567 10.8222 19.6566C10.8436 19.6566 10.8667 19.6578 10.8905 19.6592C10.9477 19.6623 11.0086 19.6657 11.0585 19.6518C11.0573 19.6028 10.8905 19.5692 10.803 19.5516C10.7826 19.5475 10.7666 19.5443 10.7578 19.5419C10.6828 19.5227 10.6112 19.5234 10.537 19.524C10.511 19.5242 10.4848 19.5245 10.4579 19.5239C10.3901 19.5221 10.3419 19.4973 10.2888 19.4698C10.27 19.4601 10.2506 19.4501 10.2295 19.4406C10.1858 19.4211 10.1381 19.4093 10.0906 19.3976C10.0654 19.3914 10.0403 19.3852 10.0159 19.3778C10.0075 19.3753 9.9991 19.3727 9.99068 19.3702C9.91244 19.3462 9.83291 19.3218 9.75211 19.3409C9.74088 19.3435 9.73086 19.3468 9.72106 19.35C9.69729 19.3579 9.67486 19.3653 9.63983 19.3598C9.5826 19.3501 9.52356 19.3272 9.46854 19.3057C9.46091 19.3028 9.45337 19.2998 9.44591 19.297C9.35719 19.2616 9.28496 19.2208 9.20723 19.1643C9.17117 19.1381 9.13387 19.1275 9.09552 19.1165C9.07291 19.1101 9.04995 19.1035 9.02665 19.0936C9.01283 19.0877 8.9958 19.0842 8.97879 19.0806C8.95718 19.076 8.9356 19.0714 8.92066 19.0622C8.89702 19.0486 8.87363 19.0202 8.85067 18.9923C8.83398 18.972 8.81751 18.952 8.80132 18.9382C8.73743 18.8834 8.65854 18.853 8.57994 18.8228C8.5301 18.8036 8.48038 18.7845 8.43467 18.7592C8.3379 18.7054 8.2464 18.6419 8.15495 18.5785C8.00454 18.4741 7.85429 18.3698 7.68095 18.3093C7.61091 18.2847 7.55052 18.2482 7.49003 18.2116C7.45763 18.192 7.4252 18.1724 7.39124 18.1546C7.33826 18.1274 7.29085 18.091 7.24352 18.0545C7.23754 18.0499 7.23157 18.0454 7.22558 18.0408C7.17894 18.0052 7.12885 17.9755 7.0788 17.9458C7.03618 17.9206 6.99359 17.8954 6.95315 17.8665C6.86102 17.8006 6.78754 17.7147 6.71431 17.6292C6.66273 17.5689 6.61128 17.5088 6.55352 17.4559C6.52511 17.4295 6.49655 17.4039 6.46811 17.3784C6.40067 17.3179 6.33383 17.2579 6.27088 17.1905C6.25843 17.1773 6.24659 17.1664 6.23526 17.1559C6.21227 17.1348 6.19141 17.1155 6.17195 17.0829C6.14212 17.0342 6.11778 16.9871 6.09658 16.9338C6.03612 16.7767 5.94898 16.6166 5.86418 16.4713C5.80709 16.3746 5.73987 16.281 5.67345 16.1886C5.6531 16.1603 5.63283 16.132 5.61294 16.1039C5.58241 16.0606 5.55554 16.0158 5.52875 15.971C5.50594 15.933 5.48319 15.895 5.45827 15.8581C5.38133 15.7419 5.34365 15.6626 5.346 15.526L5.34606 15.5206C5.34685 15.4524 5.34749 15.3964 5.3146 15.3329C5.27605 15.2575 5.24187 15.1809 5.20754 15.1039C5.19363 15.0727 5.17969 15.0415 5.16542 15.0102C5.07618 14.812 5.0217 14.6103 4.96578 14.4034C4.96168 14.3882 4.95757 14.373 4.95344 14.3578C4.95046 14.3468 4.94739 14.336 4.94434 14.3252C4.92565 14.2594 4.90755 14.1956 4.91497 14.1254C4.91961 14.0784 4.93443 14.0328 4.94917 13.9875C4.95686 13.9638 4.96452 13.9402 4.97071 13.9165L4.97483 13.9008C5.01576 13.7441 5.0546 13.5954 5.0508 13.4305C5.04918 13.3507 5.06239 13.2731 5.07565 13.1951C5.08169 13.1597 5.08774 13.1241 5.09241 13.0882C5.09601 13.0588 5.09688 13.0282 5.09775 12.9976C5.09897 12.9548 5.1002 12.9118 5.1089 12.8715C5.12823 12.7826 5.15226 12.6941 5.17624 12.6059C5.19608 12.5329 5.21588 12.46 5.23294 12.3871C5.24141 12.3498 5.24892 12.3119 5.25647 12.2738C5.28183 12.1457 5.3076 12.0157 5.37113 11.9019C5.40292 11.8451 5.44638 11.7971 5.48956 11.7494L5.49439 11.7441C5.57133 11.6609 5.62394 11.5918 5.68517 11.4984C5.70922 11.4615 5.73811 11.4298 5.76704 11.3979C5.79858 11.3633 5.83016 11.3285 5.85555 11.2872C5.87187 11.2598 5.88975 11.2339 5.90757 11.2081C5.93174 11.1731 5.95579 11.1383 5.97567 11.1003C6.02256 11.0123 6.07173 10.9261 6.12088 10.84C6.15814 10.7747 6.19539 10.7094 6.23162 10.6434C6.27334 10.5674 6.30162 10.4853 6.32984 10.4034C6.34889 10.3481 6.3679 10.293 6.391 10.2398C6.41773 10.1779 6.44713 10.1174 6.47653 10.057C6.51277 9.98243 6.54901 9.90791 6.58021 9.83075C6.60875 9.75896 6.63957 9.68919 6.67051 9.61915C6.69405 9.56587 6.71765 9.51243 6.74038 9.45782C6.75228 9.42858 6.76197 9.39883 6.7716 9.36924C6.79119 9.30905 6.81057 9.24954 6.84794 9.19638L6.85522 9.18623C6.90084 9.12266 6.9478 9.05721 6.99476 8.9946C7.04658 8.92472 7.1243 8.84229 7.19968 8.79675C7.24297 8.77061 7.29009 8.75063 7.33727 8.73062C7.38079 8.71217 7.42436 8.6937 7.46505 8.67034C7.55219 8.6201 7.63699 8.57377 7.73434 8.54708C7.75833 8.54061 7.7838 8.5369 7.80931 8.53319C7.8364 8.52925 7.86354 8.52531 7.88901 8.51803C7.91357 8.5105 7.93593 8.49798 7.95821 8.4855C7.98009 8.47325 8.00189 8.46104 8.02562 8.45365C8.08381 8.43508 8.14633 8.43039 8.2092 8.42568C8.26594 8.42142 8.32298 8.41714 8.37736 8.40262C8.44252 8.38456 8.47079 8.36022 8.51868 8.31468C8.54751 8.28781 8.57876 8.2655 8.61 8.24321C8.62895 8.22968 8.6479 8.21616 8.66628 8.20163C8.69323 8.17965 8.71689 8.15484 8.74062 8.12995C8.76184 8.1077 8.7831 8.0854 8.80682 8.06501C8.83635 8.03978 8.86919 8.01638 8.90156 7.99331C8.91652 7.98265 8.93139 7.97205 8.94579 7.96138C8.97661 7.93903 9.00139 7.91025 9.02586 7.88182C9.05126 7.85232 9.07634 7.82319 9.10752 7.802C9.12602 7.78967 9.14691 7.78152 9.1681 7.77325C9.19548 7.76257 9.22337 7.7517 9.24727 7.73134C9.2793 7.70508 9.30924 7.67411 9.33836 7.64399C9.34494 7.63719 9.35147 7.63043 9.35798 7.62378C9.4031 7.57759 9.4396 7.52639 9.47623 7.47501C9.49378 7.45039 9.51135 7.42574 9.52992 7.40159C9.56922 7.35087 9.61723 7.31858 9.66857 7.28405C9.68081 7.27582 9.69324 7.26746 9.70578 7.25869C9.75785 7.22237 9.80104 7.18278 9.84545 7.14208C9.85863 7.13 9.87192 7.11782 9.88558 7.1056C9.92672 7.06878 9.97608 7.05511 10.0264 7.04117C10.0491 7.03489 10.072 7.02855 10.0944 7.02002C10.1871 6.98469 10.2946 6.9525 10.3904 6.92737C10.4317 6.91663 10.4731 6.91676 10.5144 6.91689C10.5516 6.91701 10.5888 6.91713 10.6259 6.90932C10.6605 6.90178 10.6906 6.88678 10.7206 6.87186C10.7593 6.85258 10.7976 6.83346 10.845 6.8308C10.893 6.8278 10.942 6.82926 10.9908 6.83072C11.0185 6.83155 11.0461 6.83237 11.0735 6.83237C11.1275 6.83237 11.1829 6.83037 11.2387 6.82835C11.354 6.82417 11.4711 6.81993 11.5822 6.83316C11.5803 6.83652 11.5785 6.8398 11.5766 6.84303C11.5725 6.85039 11.5685 6.85748 11.5642 6.86456C11.4904 6.99568 11.3412 7.14642 11.1983 7.23122C11.0672 7.30894 10.951 7.40551 10.8968 7.53427C10.8842 7.56343 10.864 7.59371 10.8441 7.62356C10.8233 7.6548 10.8028 7.68556 10.7916 7.71407C10.7708 7.76786 10.8014 7.79453 10.8375 7.82594C10.8478 7.83486 10.8585 7.84417 10.8686 7.8546C10.8785 7.86507 10.8886 7.8754 10.8985 7.88568C10.953 7.94173 11.0059 7.99619 11.0397 8.06187C11.051 8.08408 11.0573 8.10586 11.0637 8.12777C11.0697 8.14847 11.0757 8.16927 11.086 8.19063C11.119 8.2613 11.1394 8.30919 11.1418 8.3877C11.1423 8.40511 11.143 8.42265 11.1437 8.44026C11.149 8.57831 11.1545 8.72133 11.0939 8.85014C11.0481 8.94834 10.9865 9.04292 10.9253 9.13686C10.892 9.18787 10.8589 9.23869 10.8285 9.2898C10.7889 9.3567 10.7369 9.41568 10.6848 9.47484C10.647 9.51776 10.609 9.56078 10.5757 9.60699C10.5633 9.62421 10.5513 9.64161 10.5394 9.65899C10.5084 9.70422 10.4774 9.74931 10.4383 9.79071C10.4149 9.8151 10.3933 9.84146 10.3717 9.86781C10.3405 9.90591 10.3093 9.94397 10.2726 9.976C10.2477 9.99796 10.2192 10.0174 10.1906 10.0368C10.1599 10.0578 10.1291 10.0788 10.1023 10.1032C10.0693 10.1337 10.0551 10.1476 10.0387 10.158C10.0229 10.1679 10.0052 10.1746 9.96723 10.1896C9.96349 10.1911 9.95915 10.1927 9.9544 10.1945C9.92435 10.206 9.87826 10.2236 9.86673 10.2453C9.83559 10.3027 9.88888 10.3251 9.94268 10.3477C9.96618 10.3575 9.98978 10.3675 10.0065 10.3803C10.112 10.4613 10.1774 10.5936 10.232 10.704C10.2351 10.7103 10.2382 10.7165 10.2412 10.7227C10.2766 10.7949 10.3103 10.8695 10.3362 10.9441C10.352 10.991 10.3547 11.0367 10.3574 11.0831C10.3591 11.1128 10.3609 11.1427 10.3661 11.1733C10.4148 11.4638 10.4509 11.7441 10.4391 12.0385C10.4357 12.115 10.4253 12.1912 10.4149 12.2675C10.4062 12.3315 10.3974 12.3957 10.3928 12.4601C10.3841 12.5834 10.3739 12.7255 10.3355 12.8456C10.293 12.98 10.2629 13.1163 10.233 13.2522C10.1897 13.4481 10.1467 13.6432 10.0669 13.831C10.0332 13.9098 9.97229 13.9864 9.91597 14.0572C9.90672 14.0688 9.89758 14.0803 9.88872 14.0916C9.88136 14.1011 9.87515 14.1113 9.8689 14.1216C9.85648 14.1421 9.84392 14.1628 9.82198 14.178C9.80959 14.186 9.79524 14.1907 9.78179 14.195C9.76114 14.2017 9.74258 14.2077 9.7364 14.2243C9.79686 14.2282 9.88715 14.2651 9.9374 14.2863C10.0575 14.3381 10.1313 14.4355 10.1933 14.5289C10.3433 14.7535 10.4862 14.9827 10.5616 15.2324C10.5721 15.2668 10.5852 15.3 10.5983 15.3332C10.6153 15.3766 10.6324 15.4201 10.644 15.4664C10.6593 15.528 10.6656 15.59 10.6719 15.652C10.6782 15.7141 10.6844 15.7761 10.6997 15.8377C10.7035 15.8527 10.7072 15.8677 10.711 15.8827C10.7484 16.0325 10.7858 16.182 10.79 16.3355C10.7928 16.4157 10.7916 16.4959 10.7903 16.576C10.7895 16.6346 10.7886 16.6932 10.7893 16.7516C10.7893 16.8033 10.7784 16.8397 10.7669 16.878C10.7609 16.8979 10.7548 16.9183 10.75 16.9416C10.7348 17.0131 10.713 17.0351 10.6731 17.0755C10.6634 17.0852 10.6528 17.096 10.6409 17.1088C10.6385 17.1112 10.6016 17.1709 10.6016 17.174C10.5962 17.2164 10.6047 17.2201 10.6252 17.229C10.6373 17.2343 10.6537 17.2415 10.6738 17.2596C10.6911 17.2755 10.696 17.2929 10.7009 17.3101C10.7049 17.3241 10.7088 17.3379 10.7194 17.3507C10.7288 17.362 10.7412 17.3711 10.7535 17.3801C10.7659 17.3891 10.7783 17.3982 10.7877 17.4095C10.8024 17.4273 10.8133 17.4471 10.8242 17.4671C10.8389 17.4939 10.8536 17.5209 10.878 17.543C10.8878 17.5516 10.9001 17.5583 10.9122 17.5648C10.9244 17.5714 10.9364 17.5779 10.9455 17.5862C11.0084 17.6427 11.0569 17.7316 11.1001 17.8109C11.1103 17.8296 11.1202 17.8478 11.13 17.8649C11.1732 17.9395 11.2022 18.0149 11.2297 18.0934C11.2377 18.1169 11.2516 18.1368 11.2649 18.1557C11.2738 18.1683 11.2823 18.1805 11.2886 18.1931C11.3223 18.2615 11.323 18.3314 11.3237 18.4011C11.3241 18.4466 11.3245 18.492 11.3341 18.537C11.3392 18.56 11.3451 18.5807 11.3507 18.6006C11.3644 18.6488 11.3767 18.6924 11.3734 18.7529C11.3957 18.7073 11.4009 18.6617 11.406 18.6159C11.4097 18.5829 11.4134 18.5498 11.4236 18.5166C11.4307 18.4925 11.4439 18.4748 11.4573 18.4569C11.4675 18.4431 11.4778 18.4292 11.4857 18.4121C11.5107 18.3564 11.508 18.2956 11.5052 18.2344C11.5025 18.1749 11.4997 18.115 11.5226 18.0588C11.5502 17.991 11.5721 17.9207 11.5941 17.8501C11.637 17.7122 11.6803 17.5732 11.7675 17.4496C11.8492 17.3357 11.9701 17.2274 12.0894 17.1402C12.1118 17.1239 12.126 17.1223 12.135 17.1213C12.1479 17.1199 12.1499 17.1197 12.1499 17.0774C12.1499 17.0829 12.12 17.0099 12.1192 17.0068C12.1092 16.967 12.0952 16.9283 12.081 16.8893C12.0708 16.8613 12.0606 16.8331 12.0517 16.8042C11.9936 16.6177 11.9968 16.4297 12 16.2401C12.0007 16.1966 12.0015 16.153 12.0015 16.1094C12.0015 16.0821 12.0012 16.0552 12.0009 16.0284C11.9989 15.8245 11.9969 15.6337 12.1177 15.4428C12.1438 15.4016 12.1685 15.3598 12.1932 15.318C12.2627 15.2002 12.3323 15.0823 12.4349 14.978C12.47 14.9425 12.4988 14.9055 12.5275 14.8686C12.5611 14.8254 12.5947 14.7823 12.6382 14.7417C12.7013 14.6828 12.7684 14.6266 12.835 14.5709C12.9087 14.5094 12.9817 14.4483 13.048 14.3845C13.0587 14.3741 13.0694 14.3637 13.0801 14.3532C13.188 14.2479 13.3002 14.1384 13.4202 14.0484C13.5262 13.9699 13.5537 13.8796 13.4995 13.7791C13.4783 13.7399 13.4531 13.703 13.4278 13.6661C13.397 13.621 13.3662 13.5759 13.3425 13.5263C13.3274 13.495 13.3123 13.4641 13.2971 13.4332C13.2553 13.348 13.2139 13.2636 13.1776 13.1754C13.1415 13.0881 13.1029 13.0024 13.0646 12.9171C12.9763 12.7207 12.8888 12.526 12.8329 12.318C12.8192 12.2675 12.805 12.2166 12.7908 12.1654C12.6717 11.7384 12.5473 11.2925 12.6665 10.8585C12.6856 10.7883 12.7146 10.7215 12.7436 10.6545C12.761 10.6145 12.7784 10.5743 12.7937 10.5334C12.8306 10.4353 12.8714 10.327 12.9311 10.2374C12.9382 10.2265 12.9504 10.2133 12.9636 10.1989C12.9968 10.1628 13.0367 10.1194 13.0221 10.0851C13.0124 10.0617 12.9841 10.0516 12.9547 10.0411C12.9368 10.0348 12.9184 10.0282 12.9036 10.0184C12.8337 9.97208 12.7623 9.88414 12.7144 9.8229C12.6936 9.79625 12.6692 9.77193 12.6457 9.74861C12.6285 9.7314 12.6117 9.71474 12.5974 9.69807C12.5766 9.67449 12.5629 9.64766 12.5492 9.62057C12.5359 9.59445 12.5224 9.56808 12.5024 9.54418C12.4794 9.51708 12.455 9.49051 12.4305 9.46389C12.404 9.43498 12.3774 9.406 12.3524 9.37617C12.204 9.19873 12.0918 9.01737 12.0486 8.80381C12.0403 8.7626 12.0403 8.72196 12.0403 8.68143C12.0403 8.6409 12.0403 8.60047 12.0321 8.55964C12.0305 8.55218 12.0289 8.54481 12.0273 8.53751C12.0126 8.46964 11.9993 8.40835 12.0007 8.33745C12.0009 8.31586 11.9999 8.29383 11.9989 8.27165C11.9964 8.2164 11.9939 8.1603 12.0101 8.1082C12.0282 8.0501 12.0604 7.98179 12.0894 7.92605C12.0975 7.91042 12.1094 7.89543 12.1213 7.88029C12.1418 7.85437 12.1626 7.82802 12.1656 7.79729C12.1762 7.79533 12.1868 7.79317 12.1974 7.79101C12.208 7.78885 12.2186 7.78669 12.2292 7.78473C12.2339 7.76745 12.2386 7.75018 12.2441 7.73369C12.2896 7.7282 12.343 7.71092 12.3485 7.6701C12.2786 7.66617 12.1844 7.59159 12.1373 7.55311C12.1128 7.53274 12.0964 7.51018 12.0799 7.48737C12.0684 7.4715 12.0568 7.45552 12.0423 7.44006C12.0209 7.41692 11.9932 7.39718 11.9655 7.37746C11.9434 7.36172 11.9214 7.346 11.9026 7.32857C11.8515 7.28146 11.8358 7.24927 11.817 7.18725C11.8037 7.14488 11.7801 7.10469 11.7566 7.06476C11.7314 7.02183 11.7063 6.97919 11.6945 6.93444C11.6866 6.90696 11.6851 6.87791 11.6843 6.84808C11.6953 6.85013 11.7062 6.8522 11.7171 6.85427C11.798 6.86959 11.8764 6.88447 11.9622 6.88655C12.1177 6.8889 12.2174 6.91717 12.3634 6.96506C12.4234 6.98463 12.4856 6.99288 12.548 7.00115C12.5982 7.00781 12.6485 7.01448 12.6979 7.02708C12.7595 7.04383 12.8143 7.04457 12.8759 7.04541C12.8865 7.04555 12.8972 7.0457 12.9083 7.04593C12.9622 7.04694 13.0055 7.06047 13.0507 7.07457C13.0753 7.08224 13.1005 7.09009 13.1281 7.09617C13.1615 7.10348 13.1942 7.10539 13.2269 7.1073C13.2679 7.1097 13.3091 7.11211 13.3519 7.12522C13.4649 7.16134 13.5764 7.19196 13.6903 7.22258C13.7298 7.23345 13.7681 7.24816 13.8064 7.26286C13.8676 7.28637 13.9287 7.30985 13.9949 7.31758C14.1394 7.3344 14.2612 7.38828 14.3897 7.44512C14.4231 7.45992 14.457 7.47492 14.4919 7.48952C14.7094 7.58216 14.9245 7.69758 15.1239 7.82398C15.2118 7.87973 15.3021 7.92683 15.394 7.97473C15.4364 7.99746 15.4752 8.0268 15.5139 8.05614C15.5648 8.09469 15.6158 8.13325 15.6751 8.15687C15.7497 8.18749 15.8172 8.21811 15.8894 8.25501C15.9156 8.26811 15.9429 8.27666 15.9698 8.28507C15.9929 8.29229 16.0156 8.2994 16.037 8.30919C16.0741 8.3258 16.1043 8.3579 16.1342 8.38982C16.1524 8.4092 16.1705 8.42851 16.1901 8.44423C16.2213 8.46855 16.2532 8.48929 16.285 8.50996C16.3261 8.53666 16.3671 8.56325 16.406 8.59733C16.4572 8.64181 16.5146 8.6752 16.5717 8.70835C16.6153 8.73372 16.6587 8.75895 16.6989 8.7889C16.8017 8.86427 16.8951 8.97497 16.976 9.07468C17.0032 9.1081 17.0309 9.14138 17.0587 9.17475C17.1819 9.32254 17.3066 9.47225 17.3937 9.6439C17.4393 9.73454 17.4921 9.82151 17.5449 9.90853C17.6256 10.0416 17.7064 10.1748 17.7619 10.3215C17.7797 10.3682 17.7955 10.4157 17.8113 10.4634C17.8311 10.523 17.851 10.5829 17.875 10.6418C17.8864 10.6695 17.8989 10.6968 17.9112 10.7239C17.941 10.7896 17.9704 10.8543 17.9849 10.9221C18.0037 11.0111 18.0393 11.0998 18.074 11.1865C18.0886 11.2228 18.103 11.2587 18.116 11.2942C18.1375 11.3522 18.1517 11.4107 18.1659 11.4694C18.1771 11.5156 18.1883 11.5619 18.2032 11.6083C18.2093 11.6274 18.2154 11.6465 18.2216 11.6656C18.2989 11.9057 18.3764 12.1467 18.4324 12.391C18.4931 12.6561 18.4926 12.9165 18.4922 13.1844C18.4921 13.2078 18.4921 13.2312 18.4921 13.2547C18.4921 13.297 18.4941 13.3413 18.4961 13.3863C18.5009 13.4901 18.5058 13.5977 18.4866 13.6936C18.4648 13.7992 18.465 13.9036 18.4653 14.0118C18.4654 14.0242 18.4654 14.0367 18.4654 14.0492C18.4654 14.0876 18.4658 14.1258 18.4663 14.1641C18.4668 14.215 18.4674 14.2658 18.467 14.3169C18.466 14.3783 18.4522 14.4324 18.4383 14.4872C18.4288 14.5243 18.4193 14.5617 18.4136 14.6019C18.4081 14.6439 18.4038 14.6863 18.3994 14.7287C18.3951 14.7711 18.3908 14.8135 18.3853 14.8555C18.3786 14.9063 18.3616 14.9514 18.3444 14.9968C18.3316 15.0308 18.3187 15.0651 18.3099 15.1021C18.3043 15.1264 18.299 15.151 18.2938 15.1757C18.2801 15.24 18.2663 15.3048 18.2448 15.3666C18.2326 15.4014 18.2126 15.4219 18.1922 15.4428C18.1771 15.4584 18.1617 15.4742 18.149 15.4962C18.1306 15.5272 18.1227 15.5646 18.1149 15.6017C18.1086 15.6313 18.1024 15.6609 18.0909 15.687C18.0665 15.7435 18.032 15.7977 17.9959 15.8479L17.9927 15.8523C17.9444 15.918 17.9154 15.9573 17.8962 16.0403C17.8808 16.1046 17.8522 16.1605 17.8229 16.2177C17.8132 16.2365 17.8035 16.2555 17.7941 16.275C17.7654 16.3342 17.7455 16.397 17.7256 16.4597C17.7008 16.5378 17.6761 16.6156 17.6347 16.6857C17.577 16.7829 17.5166 16.8775 17.4563 16.9721C17.4304 17.0126 17.4045 17.0532 17.3788 17.0939C17.3714 17.1059 17.364 17.1182 17.3566 17.1305C17.3224 17.1878 17.2868 17.2472 17.239 17.2918C17.2139 17.3149 17.1911 17.3313 17.1695 17.3469C17.1324 17.3736 17.0989 17.3977 17.0632 17.4488C16.9917 17.5524 16.902 17.6242 16.8099 17.6981C16.7624 17.7362 16.7142 17.7748 16.6675 17.8186C16.6253 17.8588 16.5811 17.8942 16.5366 17.9299C16.509 17.952 16.4813 17.9741 16.4539 17.9976C16.4167 18.0291 16.3836 18.0644 16.3504 18.0998C16.3149 18.1376 16.2794 18.1755 16.2388 18.2088C16.1545 18.2787 16.0637 18.3335 15.9729 18.3883C15.8894 18.4387 15.8059 18.489 15.7277 18.5511C15.6126 18.6417 15.4787 18.7033 15.3454 18.7646C15.3205 18.7761 15.2955 18.7875 15.2707 18.7992C15.2085 18.8282 15.1478 18.8629 15.0869 18.8977C14.991 18.9526 14.8949 19.0076 14.7926 19.0402C14.7871 19.042 14.7818 19.0437 14.7767 19.0453C14.7388 19.0572 14.7109 19.0659 14.6811 19.0936C14.6743 19.0998 14.6695 19.1055 14.665 19.1107C14.6638 19.1121 14.6626 19.1135 14.6615 19.1148C14.6532 19.1162 14.645 19.1175 14.6368 19.1187C14.612 19.1226 14.5873 19.1264 14.5625 19.1329C14.5178 19.1447 14.4723 19.1596 14.4267 19.1745L14.6018 19.147C14.6379 19.1415 14.6489 19.1297 14.6615 19.1148C14.6666 19.114 14.6717 19.1133 14.6768 19.1125C14.7235 19.1055 14.7701 19.0985 14.8161 19.0858C14.8801 19.069 14.9473 19.0601 15.0137 19.0514C15.028 19.0495 15.0422 19.0477 15.0564 19.0457C15.1216 19.0362 15.1873 19.0382 15.2531 19.0403C15.2959 19.0416 15.3387 19.0429 15.3814 19.041C15.4741 19.0371 15.5754 19.0167 15.6641 18.9931C15.8619 18.9413 16.0433 18.8133 16.205 18.6924C16.2695 18.6442 16.333 18.5938 16.3963 18.5434C16.4155 18.5282 16.4347 18.5129 16.4539 18.4977C16.5019 18.459 16.5407 18.4142 16.5798 18.3692C16.6033 18.3421 16.6269 18.3149 16.6525 18.2889C16.8017 18.1381 16.9517 17.9905 17.1173 17.8578C17.1504 17.8315 17.1852 17.8104 17.2198 17.7894C17.2707 17.7586 17.3209 17.7282 17.3639 17.682C17.4581 17.5807 17.5507 17.488 17.6567 17.4001C17.8137 17.2718 17.9338 17.0948 18.0475 16.9271C18.052 16.9204 18.0565 16.9137 18.0611 16.9071C18.0821 16.8754 18.0999 16.8429 18.1176 16.8106C18.1447 16.7612 18.1714 16.7122 18.2094 16.6676C18.262 16.6056 18.3217 16.553 18.3861 16.5035C18.4764 16.4321 18.5651 16.352 18.6295 16.2546C18.6789 16.1808 18.6821 16.1227 18.6797 16.0348C18.6758 15.8495 18.7292 15.6571 18.8336 15.504C18.8724 15.4479 18.9152 15.3963 18.9579 15.3447C18.9887 15.3075 19.0195 15.2704 19.0487 15.2316C19.0637 15.2122 19.0762 15.191 19.0886 15.1698C19.1028 15.1454 19.1171 15.1211 19.1351 15.0997C19.1522 15.0791 19.1733 15.0656 19.1941 15.0522C19.2106 15.0416 19.2269 15.0311 19.2411 15.0173C19.2796 14.9802 19.2798 14.9142 19.2801 14.8489C19.2802 14.8024 19.2804 14.7563 19.2945 14.7213C19.3119 14.6782 19.3435 14.6423 19.3751 14.6065C19.3976 14.581 19.4201 14.5555 19.4374 14.5274C19.4505 14.5064 19.4645 14.4859 19.4785 14.4654C19.5195 14.4051 19.5603 14.345 19.5803 14.2753C19.6038 14.189 19.6179 14.1018 19.6195 14.0123C19.6203 13.9817 19.6196 13.9511 19.6189 13.9206ZM14.1841 19.2679C14.2603 19.2326 14.3435 19.202 14.4267 19.1745L13.5827 19.308C13.6302 19.31 13.6755 19.3137 13.7196 19.3173C13.8796 19.3302 14.0222 19.3418 14.1841 19.2679Z" fill="black"/>
</svg>
