<svg width="46" height="24" viewBox="0 0 46 24" fill="none" xmlns="http://www.w3.org/2000/svg">
  <g clip-path="url(#clip0_9_129)">
    <path d="M41.3823 19.9505C38.6313 21.7376 34.3051 19.1115 31.9713 17.6648C30.507 16.7564 29.2638 15.6085 28.1214 14.3542C28.8707 13.9269 29.6218 13.5023 30.3812 13.0962C32.2645 12.088 34.7602 11.508 36.896 11.5922C37.6841 11.6236 38.8811 11.5459 39.5813 11.927C39.6016 11.939 39.6201 11.9548 39.6405 11.9668C39.9263 12.0454 40.2029 12.1583 40.4573 12.3053C41.0419 12.643 41.4933 13.1304 41.8374 13.7067C42.0196 14.012 42.1398 14.3394 42.2518 14.6706C42.2777 14.6835 42.3017 14.7002 42.3276 14.7122C43.0158 16.5853 43.0149 18.8904 41.3823 19.9505ZM45.4587 18.2818C45.2266 15.1238 43.4598 11.7957 41.065 9.77546C40.8818 9.62098 40.6737 9.49703 40.4702 9.43136C40.288 9.29446 40.1011 9.1668 39.8976 9.07338C39.5554 8.91613 39.1687 8.79865 38.7849 8.69505C37.6508 8.23903 36.3586 8.18723 35.1496 8.1382C32.0148 8.01148 29.2148 9.26578 26.5323 10.7032C26.7349 11.7133 26.5175 12.6911 25.0514 13.6688C24.1957 14.0961 24.4806 15.0304 25.0042 16.096C25.4676 15.849 25.9283 15.5965 26.388 15.3384C27.856 17.045 29.4386 18.6832 31.2387 19.9782C33.8167 21.8328 37.3132 23.7726 40.5692 23.9872C43.9815 24.2129 45.6891 21.4184 45.4587 18.2818" fill="black"/>
    <path d="M10.7074 13.0343C8.87957 13.3534 7.06657 13.4052 5.47371 12.2804C3.90029 11.1676 2.85041 9.399 3.17509 7.47777C3.53676 5.33177 4.29156 4.21159 6.43386 3.62976C8.53269 3.05996 10.2402 3.03776 12.3428 3.70376C15.3712 4.66207 17.4183 6.41772 19.6346 8.45827C16.9289 10.5025 14.1465 12.4339 10.7074 13.0343ZM21.0803 9.7283C22.3892 8.54892 22.4623 7.54992 22.1154 6.57959C21.8129 6.80344 21.5132 7.02914 21.2154 7.25577C18.6531 4.82487 16.1159 2.36344 12.7294 1.14891C9.37722 -0.0526656 5.96119 -0.619691 2.62101 1.00091C0.195656 2.17751 -0.529545 6.11247 0.375106 8.4555C1.52951 11.4414 4.05014 14.4134 7.03604 15.6807C10.0562 16.9627 13.6211 16.4595 16.5552 15.1007C18.2896 14.2969 19.8658 13.2581 21.3865 12.137C20.714 11.1593 20.2969 10.2759 21.0803 9.7283" fill="black"/>
    <path d="M22.0784 16.0877C22.2764 16.1524 22.3522 16.3115 22.4947 16.4632C23.033 17.0339 23.6371 16.6047 24.0663 16.1089C23.9155 15.9202 23.7656 15.7306 23.6176 15.5391V15.5401C23.6075 15.5169 23.589 15.4957 23.5603 15.4753C23.5584 15.4688 23.5547 15.4614 23.551 15.4531C23.5122 15.4041 23.4743 15.3551 23.4363 15.306C23.3919 15.2579 23.3466 15.2135 23.3216 15.1886C23.1274 14.9906 22.9331 14.9 22.6676 14.8833C22.3985 14.8667 22.1311 14.9397 21.8962 15.0711C21.7547 15.1497 21.6094 15.2404 21.4809 15.3449C21.4966 15.4189 21.5179 15.491 21.5364 15.5641C21.7297 15.7241 21.9045 15.9101 22.0784 16.0877Z" fill="black"/>
    <path d="M23.1782 10.1843C22.9756 10.1372 22.8859 9.98546 22.7305 9.84671C22.1441 9.325 21.5807 9.80601 21.1959 10.337C21.3634 10.5118 21.528 10.6885 21.6927 10.8651C21.6927 10.8651 21.6936 10.8651 21.6936 10.8642C21.7056 10.8864 21.725 10.9068 21.7556 10.9243C21.7583 10.9308 21.763 10.9382 21.7667 10.9456C21.8092 10.9909 21.8518 11.0372 21.8943 11.0816C21.9424 11.126 21.9924 11.1658 22.0183 11.1889C22.2292 11.3693 22.4317 11.4423 22.6963 11.4349C22.9655 11.4285 23.2263 11.3323 23.4492 11.1815C23.5834 11.0908 23.7193 10.9872 23.8387 10.8716C23.8165 10.7995 23.7887 10.7292 23.7637 10.6589C23.5575 10.5164 23.3669 10.3471 23.1782 10.1843Z" fill="black"/>
    <path d="M25.8034 12.2258C25.7988 12.1277 25.8561 12.0685 25.8987 11.9816C26.0596 11.6514 25.7719 11.458 25.4843 11.3517C25.4269 11.4497 25.3677 11.5459 25.3085 11.643H25.3094C25.3002 11.6514 25.2946 11.6625 25.29 11.6782C25.2872 11.68 25.2845 11.6837 25.2826 11.6865C25.2678 11.7115 25.2521 11.7365 25.2373 11.7605C25.2234 11.7883 25.2114 11.8151 25.204 11.8308C25.1494 11.9483 25.1429 12.0482 25.179 12.1666C25.216 12.2868 25.2928 12.3923 25.389 12.4737C25.4463 12.5227 25.5102 12.5708 25.5777 12.6097C25.6073 12.5912 25.635 12.5699 25.6637 12.5495C25.7016 12.4385 25.7544 12.3312 25.8034 12.2258Z" fill="black"/>
    <path d="M21.6067 14.4967C21.602 14.3995 21.6594 14.3394 21.7019 14.2525C21.8629 13.9222 21.5752 13.7289 21.2875 13.6235C21.2302 13.7206 21.171 13.8177 21.1118 13.9139H21.1127C21.1044 13.9222 21.0979 13.9333 21.0942 13.9491C21.0914 13.9509 21.0887 13.9546 21.0859 13.9574C21.0702 13.9824 21.0554 14.0073 21.0406 14.0323C21.0267 14.0591 21.0147 14.0869 21.0082 14.1017C20.9527 14.2192 20.9462 14.3191 20.9823 14.4384C21.0193 14.5586 21.0961 14.6632 21.1923 14.7446C21.2496 14.7936 21.3134 14.8417 21.381 14.8805C21.4106 14.862 21.4383 14.8408 21.467 14.8204C21.5049 14.7094 21.5576 14.6021 21.6067 14.4967Z" fill="black"/>
    <path d="M19.3006 17.1681C19.3931 17.1977 19.4301 17.2717 19.4977 17.342C19.752 17.6056 20.0323 17.4021 20.2312 17.169C20.159 17.0811 20.0887 16.9933 20.0184 16.9045H20.0175C20.0129 16.8943 20.0046 16.8841 19.9907 16.8749C19.9907 16.8712 19.9879 16.8675 19.9861 16.8647C19.9685 16.8416 19.95 16.8184 19.9324 16.7962C19.9111 16.774 19.8899 16.7537 19.8778 16.7417C19.7863 16.6501 19.6947 16.6085 19.5707 16.602C19.4449 16.5955 19.3201 16.6316 19.2109 16.6936C19.1443 16.7306 19.0777 16.774 19.0176 16.824C19.025 16.8582 19.0352 16.8915 19.0444 16.9257C19.136 16.9997 19.2183 17.0858 19.3006 17.1681Z" fill="black"/>
    <path d="M23.4197 7.66832C23.2189 7.7229 23.0672 7.63225 22.8656 7.58415C22.1015 7.4047 21.8342 8.09567 21.7491 8.74595C21.9785 8.81995 22.2079 8.89672 22.4373 8.9735C22.4586 8.98737 22.4854 8.99477 22.5206 8.9957C22.5252 9.00032 22.5326 9.00495 22.54 9.00865C22.5992 9.029 22.6584 9.04935 22.7176 9.06877C22.7805 9.0845 22.8425 9.09652 22.8776 9.10392C23.1856 9.1696 23.4178 9.11965 23.687 8.93742C23.8655 8.81717 24.008 8.64882 24.1088 8.4592C24.1874 8.31212 24.2642 8.15025 24.3188 7.98467C24.2679 7.91345 24.2457 7.882 24.1948 7.81077C23.934 7.7858 23.6741 7.72382 23.4197 7.66832Z" fill="black"/>
    <path d="M24.6767 6.72298C24.5898 6.53983 24.2059 6.55186 23.872 6.48433C22.6103 6.22811 23.9737 5.2846 25.4361 4.4965C25.8644 4.55015 26.2973 4.60195 26.7321 4.65098L26.7302 4.65283C26.7857 4.65005 26.8347 4.65745 26.8745 4.67688C26.8912 4.6741 26.9097 4.6741 26.9291 4.6741C27.0401 4.68705 27.1529 4.69908 27.2639 4.71295C27.3703 4.7333 27.4674 4.75735 27.5229 4.7703C27.979 4.87205 28.127 5.04873 28.0335 5.366C27.942 5.67773 27.6191 6.01165 27.1511 6.37611C26.9124 6.56203 26.6479 6.75443 26.3611 6.94036C26.1761 6.96718 25.9967 6.98846 25.8145 7.01158C25.4796 6.89226 25.068 6.80993 24.6767 6.72298Z" fill="black"/>
    <path d="M23.7277 13.9722C23.7601 13.9112 23.9552 13.9731 24.1347 13.9278C24.8664 13.7419 25.3705 10.9391 23.1607 13.1369C22.9377 13.1351 22.7139 13.1314 22.4873 13.1268C22.4882 13.1277 22.4882 13.1277 22.4891 13.1277C22.4595 13.124 22.4336 13.124 22.4142 13.1286C22.4059 13.1277 22.3957 13.1258 22.3855 13.1249C22.3272 13.124 22.269 13.1231 22.2116 13.1221C22.157 13.124 22.108 13.1277 22.0793 13.1295C21.8462 13.1425 21.7815 13.198 21.8546 13.3173C21.9258 13.4329 22.1219 13.5689 22.3957 13.7234C22.5409 13.8048 22.7019 13.8899 22.8748 13.9741C22.9673 13.9889 23.0552 14.0027 23.1477 14.0175C23.3161 13.9926 23.527 13.9833 23.7277 13.9722Z" fill="black"/>
    <path d="M28.892 3.84342C28.842 3.84435 28.8143 3.70097 28.7245 3.60385C28.3564 3.20979 26.4278 3.85822 28.5645 4.48537C28.6394 4.62597 28.7144 4.7675 28.7893 4.91087C28.7893 4.90995 28.7893 4.90995 28.7893 4.90995C28.7967 4.92937 28.8059 4.9451 28.8152 4.9562C28.817 4.96175 28.8207 4.96822 28.8235 4.9747C28.842 5.0117 28.8614 5.0487 28.8809 5.0857C28.9003 5.119 28.9206 5.1486 28.9308 5.16617C29.0196 5.30677 29.077 5.32805 29.126 5.24202C29.1741 5.15785 29.1917 4.98857 29.1935 4.76287C29.1944 4.65187 29.1935 4.5307 29.187 4.40397C29.1658 4.33922 29.1315 4.24117 29.1093 4.17735C29.0381 4.08207 28.9641 3.95997 28.892 3.84342Z" fill="black"/>
    <path d="M20.739 15.7362C20.689 15.7371 20.6613 15.5928 20.5716 15.4966C20.2034 15.1026 18.2748 15.751 20.4115 16.3781C20.4865 16.5187 20.5614 16.6603 20.6363 16.8027C20.6437 16.8221 20.653 16.8379 20.6622 16.849C20.6641 16.8545 20.6678 16.861 20.6705 16.8675C20.689 16.9045 20.7094 16.9415 20.7279 16.9785C20.7482 17.0108 20.7677 17.0404 20.7778 17.058C20.8666 17.1995 20.924 17.2208 20.973 17.1348C21.0211 17.0506 21.0387 16.8813 21.0405 16.6556C21.0415 16.5446 21.0405 16.4235 21.035 16.2967C21.0128 16.232 20.9786 16.1339 20.9564 16.0701C20.8861 15.9748 20.8111 15.8518 20.739 15.7362Z" fill="black"/>
  </g>
  <defs>
    <clipPath id="clip0_9_129">
      <rect width="45.4793" height="24" fill="white"/>
    </clipPath>
  </defs>
</svg>
