<svg width="26" height="24" viewBox="0 0 26 24" fill="none" xmlns="http://www.w3.org/2000/svg">
  <g clip-path="url(#clip0_9_163)">
    <path d="M21.0506 10.7614C20.9162 10.7883 20.8919 10.831 20.7929 10.8616C20.6574 10.9032 20.512 10.9375 20.3713 10.9664C20.3149 10.9775 20.2648 10.9828 20.2084 10.9991C20.1388 11.0191 20.0693 11.0402 19.9997 11.0597C19.9333 11.0787 19.859 11.0792 19.7963 11.1019C19.7747 11.1093 19.7315 11.1145 19.7367 11.1351C19.7773 11.1293 19.8232 11.1514 19.8643 11.153C19.9354 11.1562 20.0118 11.1693 20.0761 11.1867C20.1373 11.2031 20.1868 11.2236 20.2511 11.2342C20.3186 11.2452 20.3944 11.2658 20.4529 11.289C20.5752 11.3375 20.6896 11.4028 20.6954 11.5072C20.698 11.552 20.6885 11.5978 20.698 11.6415C20.7017 11.6584 20.7101 11.6747 20.7085 11.6921C20.7059 11.7243 20.6885 11.757 20.6801 11.7891C20.6648 11.8487 20.6732 11.9082 20.6558 11.9678C20.6385 12.0294 20.6105 12.0911 20.5968 12.1528C20.5699 12.2755 20.4998 12.3894 20.4429 12.5085C20.4081 12.5802 20.3628 12.6497 20.3286 12.7209C20.3112 12.7567 20.2991 12.7931 20.2822 12.8289C20.2622 12.8721 20.2316 12.9106 20.2079 12.9528C20.181 13.0002 20.1678 13.0561 20.1204 13.0993C20.093 13.1246 20.0519 13.1404 20.0297 13.1651C19.81 13.4144 19.4495 13.5947 19.0463 13.6595C18.826 13.6948 18.6063 13.7428 18.3849 13.7723C18.3064 13.7828 18.2326 13.7844 18.1588 13.7833C18.1436 13.7854 18.1283 13.7854 18.113 13.7876C18.0471 13.7976 17.9802 13.7965 17.9143 13.8034C17.7177 13.8229 17.527 13.8134 17.3414 13.7818C17.2998 13.7749 17.2629 13.7623 17.2208 13.7559C17.1791 13.7501 17.1428 13.7438 17.1043 13.7327C17.0642 13.7206 17.0194 13.7164 16.9783 13.7064C16.9393 13.6969 16.9109 13.6774 16.8771 13.6621C16.7944 13.6247 16.7275 13.5815 16.6526 13.5377C16.611 13.513 16.5609 13.4961 16.523 13.4682C16.4935 13.446 16.4613 13.4223 16.4281 13.4023C16.3638 13.3644 16.2958 13.3275 16.2352 13.2864C16.2041 13.2653 16.1836 13.24 16.1546 13.2184C16.1235 13.1952 16.0914 13.1752 16.0645 13.1493C16.0413 13.1272 15.9986 13.0998 15.9986 13.0703C15.9991 13.0481 16.0186 13.0239 16.0255 13.0018C16.0339 12.9759 16.0418 12.948 16.0413 12.9222C16.0413 12.9211 16.0418 12.9206 16.0418 12.9196C16.0049 12.8911 15.9654 12.8642 15.9201 12.8468C15.7799 12.7941 15.7651 12.8257 15.645 12.8658C15.469 12.9243 15.2655 12.9601 15.0885 13.0445C14.7744 13.1936 14.5182 13.3185 14.1546 13.3955C14.2468 13.2974 14.3933 13.2326 14.4956 13.1372C14.572 13.0655 14.6363 12.9875 14.7153 12.9169C14.9361 12.7188 15.2355 12.587 15.4394 12.3846C15.6202 12.2055 15.762 12.0452 15.9749 11.8813C16.1978 11.7095 16.4872 11.5888 16.7327 11.4402C16.7543 11.427 16.7786 11.416 16.8007 11.4039C16.8018 11.4039 16.8023 11.4044 16.8028 11.4044C16.835 11.4097 16.8634 11.4123 16.894 11.4213C16.9161 11.427 16.9414 11.4281 16.9625 11.4344C16.9767 11.4392 16.9868 11.4481 16.9999 11.4539C17.0279 11.466 17.059 11.4729 17.0848 11.4877C17.157 11.5282 17.2292 11.5683 17.2982 11.6115C17.3562 11.6479 17.4073 11.6884 17.4679 11.7232C17.5296 11.7591 17.5891 11.7928 17.6429 11.8344C17.7346 11.9051 17.8316 11.973 17.9227 12.0437C17.9612 12.0732 17.9965 12.1053 18.0324 12.1364C18.0492 12.1512 18.0603 12.1643 18.0735 12.1802C18.0882 12.1986 18.1088 12.2102 18.1256 12.2271C18.1952 12.2966 18.2716 12.3662 18.328 12.4416C18.3791 12.5101 18.4366 12.5791 18.4814 12.6492C18.5209 12.7103 18.5704 12.7667 18.6242 12.8231C18.6669 12.8684 18.7085 12.9122 18.7538 12.9554C18.7986 12.9997 18.8461 13.0455 18.8998 13.0845C18.9425 13.1156 18.9747 13.1525 19.0174 13.1831C19.0437 13.202 19.0764 13.2205 19.099 13.2416C19.0859 13.2184 19.118 13.1767 19.1217 13.1536C19.1233 13.1388 19.1112 13.1251 19.1117 13.1103C19.1127 13.094 19.1164 13.0808 19.1159 13.064C19.1159 13.0471 19.1222 13.0329 19.1201 13.0155C19.1175 12.996 19.1196 12.9807 19.1238 12.9607C19.1286 12.9401 19.1217 12.9243 19.1233 12.9053C19.1243 12.8885 19.1317 12.8763 19.128 12.859C19.1222 12.8263 19.1212 12.7947 19.1233 12.7615C19.1259 12.7135 19.1127 12.6698 19.1017 12.6228C19.0911 12.5791 19.0806 12.5348 19.0701 12.4916C19.0637 12.4658 19.0574 12.441 19.0521 12.4157C19.0448 12.3831 19.0279 12.3593 19.0152 12.3282C19.0026 12.2977 18.9899 12.2655 18.9762 12.235C18.9657 12.2128 18.943 12.1939 18.9325 12.1717C18.9156 12.1359 18.9067 12.0979 18.8909 12.0621C18.8809 12.0405 18.8682 12.0194 18.8571 11.9978C18.8482 11.9788 18.835 11.9551 18.8218 11.9377C18.7965 11.904 18.7765 11.8634 18.7433 11.8329C18.7038 11.7981 18.669 11.7612 18.6326 11.7243C18.591 11.6827 18.5457 11.6426 18.5083 11.5989C18.4624 11.5451 18.4102 11.494 18.3575 11.4439C18.3354 11.4234 18.3217 11.4002 18.298 11.3807C18.2748 11.3617 18.2458 11.3527 18.2173 11.338C18.1567 11.3064 18.1077 11.2631 18.0471 11.2305C17.9797 11.1936 17.8932 11.1709 17.8205 11.1388C17.762 11.1129 17.6967 11.0971 17.6318 11.0797C18.0202 10.9733 18.4339 10.9011 18.8224 10.8352C19.2044 10.7704 19.5865 10.7077 19.9676 10.6413C20.1699 10.606 20.3154 10.6239 20.5114 10.6133C20.6917 10.6033 20.8872 10.4953 20.9794 10.6523C20.8935 10.6075 21.2814 10.5206 21.4068 10.6576C21.3225 10.7419 21.1802 10.7356 21.0506 10.7614ZM15.304 16.6687C15.2018 16.6503 15.0942 16.6387 14.9794 16.6387C14.2363 16.6387 13.7551 17.0456 13.5338 17.5715C13.334 17.6174 13.129 17.6411 12.9171 17.6253C12.8223 17.6184 12.7322 17.601 12.6457 17.5768C12.4418 17.0108 11.9495 16.5612 11.1675 16.5612C10.9793 16.5612 10.8096 16.5886 10.6547 16.6361C10.5756 16.4474 10.6879 16.205 10.9988 16.2097C11.7203 16.2218 12.1609 16.3857 12.7849 16.634C13.2123 16.8037 13.3403 16.6145 13.7403 16.4795C14.1187 16.352 14.5367 16.3336 14.9388 16.3246C15.2018 16.3188 15.3224 16.498 15.304 16.6687M9.23489 12.8315C9.18957 12.8489 9.15004 12.8758 9.11421 12.9048C9.11421 12.9059 9.11421 12.9064 9.11421 12.9074C9.11421 12.9333 9.12211 12.9612 9.13054 12.987C9.13845 13.0091 9.15795 13.0329 9.15847 13.0555C9.159 13.085 9.11684 13.113 9.09418 13.1351C9.0673 13.1609 9.03515 13.181 9.00459 13.2041C8.9756 13.2268 8.95505 13.2516 8.92448 13.2732C8.8644 13.3148 8.79694 13.3522 8.73317 13.3912C8.69997 13.4107 8.66835 13.435 8.63884 13.4571C8.60089 13.485 8.55188 13.503 8.50972 13.5283C8.43594 13.5725 8.36901 13.6163 8.28732 13.6537C8.25359 13.6695 8.22566 13.689 8.18666 13.699C8.14502 13.7096 8.10075 13.7143 8.0607 13.7264C8.02223 13.738 7.98639 13.7443 7.94423 13.7507C7.90207 13.757 7.86571 13.7702 7.82407 13.7775C7.63909 13.8107 7.44831 13.8213 7.25173 13.8034C7.18533 13.797 7.1184 13.7986 7.05252 13.7897C7.03724 13.7876 7.02248 13.787 7.0072 13.7854C6.93342 13.787 6.85911 13.7865 6.78058 13.7765C6.55923 13.7486 6.33842 13.7022 6.1176 13.6684C5.7139 13.6073 5.35132 13.4297 5.12891 13.1825C5.10625 13.1578 5.06515 13.1425 5.03721 13.1172C4.98978 13.0745 4.97555 13.0186 4.94815 12.9717C4.92391 12.9296 4.89334 12.8911 4.87226 12.8484C4.85487 12.8126 4.84275 12.7762 4.82483 12.7409C4.78952 12.6698 4.74367 12.6002 4.70836 12.529C4.64986 12.4105 4.57818 12.2972 4.54973 12.1744C4.5355 12.1132 4.50704 12.0516 4.48912 11.9904C4.4712 11.9309 4.47858 11.8708 4.46277 11.8118C4.45381 11.7796 4.43642 11.7469 4.43325 11.7148C4.43167 11.6974 4.43958 11.6811 4.44274 11.6642C4.45223 11.6205 4.44221 11.5746 4.44432 11.5298C4.44906 11.4255 4.5629 11.3596 4.68411 11.3101C4.74209 11.2863 4.81798 11.2647 4.88491 11.2531C4.95026 11.2426 4.99874 11.2215 5.05988 11.2041C5.12417 11.1867 5.20059 11.1725 5.27121 11.1693C5.31232 11.1672 5.35817 11.1446 5.39822 11.1498C5.40402 11.1293 5.36027 11.1245 5.33867 11.1172C5.27543 11.095 5.20164 11.095 5.13471 11.0771C5.06462 11.0576 4.99505 11.0376 4.92549 11.0181C4.8691 11.0017 4.81903 10.9975 4.76211 10.9865C4.6214 10.9585 4.47542 10.9253 4.33945 10.8853C4.23984 10.8552 4.21507 10.8125 4.08068 10.7867C3.95051 10.762 3.80821 10.7699 3.72337 10.6861C3.84721 10.5475 4.23562 10.6318 4.15077 10.6771C4.24089 10.5195 4.438 10.626 4.61824 10.6344C4.81429 10.6434 4.95974 10.6244 5.16212 10.6581C5.5442 10.7214 5.92682 10.7815 6.30943 10.8431C6.69889 10.9058 7.11313 10.9749 7.50312 11.0776C7.4383 11.0961 7.37295 11.1124 7.31445 11.1388C7.24225 11.1714 7.15634 11.1946 7.08941 11.2321C7.02933 11.2653 6.98032 11.3085 6.92024 11.3406C6.89231 11.3559 6.8628 11.3649 6.84066 11.3838C6.81695 11.4039 6.80272 11.427 6.78111 11.4481C6.72946 11.4982 6.67729 11.5498 6.63196 11.6041C6.5956 11.6479 6.5508 11.6884 6.50917 11.7306C6.47333 11.7675 6.43908 11.8044 6.40008 11.8402C6.3674 11.8703 6.34737 11.9114 6.32261 11.9451C6.30943 11.963 6.29731 11.9867 6.28782 12.0057C6.27728 12.0273 6.26516 12.0489 6.25567 12.0705C6.23934 12.1058 6.2309 12.1443 6.21457 12.1802C6.20455 12.2023 6.18189 12.2218 6.17188 12.2439C6.15818 12.2745 6.14605 12.3066 6.13393 12.3377C6.12128 12.3683 6.10495 12.3925 6.0981 12.4252C6.09283 12.4505 6.08703 12.4758 6.0807 12.5006L6.05066 12.6323C6.04012 12.6803 6.028 12.7235 6.03064 12.7715C6.03275 12.8052 6.03275 12.8363 6.02695 12.8695C6.02379 12.8864 6.03064 12.8985 6.03222 12.9159C6.0338 12.9343 6.02748 12.9501 6.03222 12.9707C6.03696 12.9902 6.03907 13.006 6.03696 13.0255C6.03433 13.0424 6.04171 13.0571 6.04118 13.074C6.04118 13.0908 6.04539 13.104 6.04645 13.1203C6.04698 13.1351 6.03433 13.1488 6.03696 13.1636C6.04065 13.1868 6.07333 13.2279 6.06015 13.2511C6.08281 13.23 6.11549 13.2115 6.14131 13.192C6.184 13.1609 6.21562 13.124 6.25778 13.0924C6.31101 13.0534 6.35791 13.0065 6.40271 12.9628C6.44698 12.9185 6.48809 12.8748 6.53025 12.8294C6.58348 12.772 6.63196 12.7156 6.67096 12.6539C6.71523 12.5833 6.77162 12.5143 6.82222 12.4452C6.87808 12.3694 6.95344 12.2993 7.02195 12.2292C7.03935 12.2118 7.05937 12.2002 7.0736 12.1823C7.08678 12.1654 7.09784 12.1522 7.11418 12.138C7.15002 12.1064 7.1848 12.0737 7.22275 12.0437C7.31339 11.9725 7.40984 11.904 7.50048 11.8329C7.55371 11.7907 7.61274 11.7564 7.67387 11.7201C7.73395 11.6848 7.78507 11.6437 7.84252 11.6068C7.91103 11.563 7.98323 11.5224 8.05438 11.4813C8.0802 11.466 8.11129 11.4592 8.13923 11.4471C8.15188 11.4413 8.16136 11.4318 8.17612 11.427C8.1972 11.4207 8.2225 11.4197 8.24463 11.4133C8.2752 11.4039 8.30313 11.4018 8.33528 11.396C8.33633 11.396 8.33686 11.3954 8.33739 11.3949C8.35952 11.4075 8.38429 11.4181 8.4059 11.4307C8.65307 11.5778 8.94398 11.6964 9.16849 11.8661C9.38404 12.0284 9.52739 12.187 9.71026 12.3651C9.91632 12.5659 10.2167 12.695 10.4402 12.8916C10.5198 12.9617 10.5851 13.0392 10.6631 13.1098C10.7659 13.2041 10.9129 13.2684 11.0062 13.3659C10.642 13.2916 10.3843 13.1683 10.0686 13.0218C9.8905 12.9391 9.68654 12.9048 9.50999 12.8474C9.38931 12.8089 9.37402 12.7773 9.23489 12.8315M25.3726 19.9911C25.2456 19.7634 25.155 19.5357 24.9558 19.3397C24.6332 19.0208 24.1547 18.683 23.7178 18.4785C23.2567 18.263 22.7686 18.0738 22.2964 17.8751C22.239 17.8508 22.1794 17.8197 22.1178 17.7929C22.2037 17.6558 22.2532 17.523 22.3191 17.3744C22.4098 17.1694 22.5368 16.9776 22.63 16.7726C22.8661 16.2577 23.147 15.7712 23.4337 15.2748C23.5081 15.1457 23.5391 15.006 23.5855 14.8695C23.6767 14.6002 23.7716 14.3541 23.82 14.0848C23.9829 13.6626 24.0688 13.2268 24.0841 12.7857C24.0936 12.7572 24.1036 12.7288 24.1099 12.6998C24.1389 12.567 24.1215 12.4289 24.121 12.295C24.121 12.0774 24.0941 11.9098 24.0171 11.7022C24.0045 11.6684 23.9876 11.6379 23.9739 11.6052C23.8733 11.1404 23.7088 10.6803 23.4965 10.2334C23.5044 10.1786 23.5096 10.1206 23.5049 10.0568C23.4975 9.95457 23.4569 9.90608 23.438 9.80648C23.3947 9.58302 23.2535 9.34323 23.1455 9.13559C23.0459 8.94481 22.8546 8.71661 22.6764 8.57484C22.6069 8.51951 22.5136 8.47682 22.5146 8.3809C22.5146 8.31977 22.5874 8.19908 22.6179 8.13373C22.7465 7.86232 23.019 7.65783 23.1613 7.38695C23.2272 7.26152 23.3215 7.13187 23.3605 7.0017C23.3921 6.89577 23.4506 6.81988 23.4896 6.71975C23.586 6.47363 23.4416 6.22172 23.3658 5.99826C23.2972 5.79642 23.2261 5.61354 23.2293 5.39694C23.2303 5.30945 23.2177 5.24358 23.195 5.16769C23.1792 5.11499 23.1186 5.02961 23.1075 4.98218C23.0764 4.8499 23.0506 4.61116 23.0885 4.47572C23.1249 4.34554 23.2171 4.2101 23.2804 4.07518C23.3484 3.93184 23.4258 3.78374 23.4943 3.64356C23.5033 3.62564 23.5107 3.60878 23.5186 3.59191C22.5968 3.28466 22.7286 1.91653 23.9144 1.91653C24.0693 1.91653 24.2048 1.94183 24.3239 1.98346C24.3576 1.88702 24.3955 1.79163 24.4293 1.69729C24.6359 1.10967 24.6359 0.225864 23.7774 0.014004C23.5644 -0.0381706 23.2298 0.0677582 23.0237 0.129946C22.7824 0.203201 22.5905 0.380807 22.405 0.518885C22.1136 0.737069 21.8211 0.942604 21.5201 1.15446C21.3062 1.30519 20.9984 1.44854 20.8229 1.62614C20.6933 1.75632 20.5647 1.84802 20.4008 1.95342C19.9913 2.21798 19.5792 2.47833 19.1338 2.70073C18.922 2.80613 18.7781 2.81404 18.5357 2.81456C18.2553 2.81456 17.9965 2.79295 17.7214 2.7471L17.6935 2.69967H17.5001C17.216 2.62694 16.9377 2.51733 16.6553 2.46726C16.455 2.43195 16.2495 2.46252 16.0476 2.4915C15.7925 2.38715 15.6613 2.14578 15.3878 2.05303C15.1095 1.95816 14.7317 1.99822 14.4576 2.06831C14.2531 2.12048 14.0339 2.21166 13.8089 2.2807C13.6681 2.19427 13.5316 2.10098 13.3656 2.06567C13.1522 2.01982 12.9883 2.13471 12.8212 2.23537C12.6547 2.13471 12.4908 2.01982 12.2768 2.06567C12.1113 2.10098 11.9748 2.19427 11.8341 2.2807C11.6096 2.21166 11.3899 2.12048 11.1854 2.06831C10.9113 1.99822 10.534 1.95816 10.2552 2.05303C9.98167 2.14578 9.85045 2.38715 9.59537 2.4915C9.39352 2.46252 9.18799 2.43195 8.98825 2.46726C8.70524 2.51733 8.42698 2.62694 8.14239 2.69967H7.9495L7.92157 2.7471C7.64647 2.79295 7.38823 2.81456 7.10733 2.81456C6.86543 2.81404 6.72103 2.80613 6.50917 2.70073C6.06384 2.47833 5.65171 2.21798 5.24222 1.95342C5.07832 1.84802 4.94973 1.75632 4.82061 1.62614C4.64459 1.44854 4.33681 1.30519 4.12284 1.15446C3.82244 0.942604 3.52942 0.737069 3.23798 0.518885C3.053 0.380807 2.86064 0.203201 2.61927 0.129946C2.4132 0.0677582 2.07855 -0.0381706 1.86564 0.014004C1.00713 0.225864 1.00713 1.10967 1.21424 1.69729C1.27538 1.87173 1.35654 2.04881 1.38763 2.22852C1.40397 2.32233 1.41714 2.38241 1.47195 2.4699C1.60423 2.6807 1.59738 2.94526 1.74231 3.14711C1.79765 3.22511 1.87934 3.26358 1.9489 3.3263C2.06063 3.42748 2.08962 3.52234 2.14864 3.64356C2.21715 3.78374 2.29463 3.93184 2.36208 4.07518C2.42585 4.2101 2.51808 4.34554 2.55444 4.47572C2.59186 4.61116 2.56709 4.8499 2.53547 4.98218C2.5244 5.02961 2.4638 5.11499 2.44799 5.16769C2.42533 5.24358 2.41268 5.30945 2.41373 5.39694C2.41689 5.61354 2.34627 5.79642 2.27723 5.99826C2.20134 6.22172 2.05694 6.47363 2.15339 6.71975C2.19239 6.81988 2.25141 6.89577 2.2825 7.0017C2.3215 7.13187 2.41584 7.26152 2.48172 7.38695C2.62401 7.65783 2.897 7.86232 3.02507 8.13373C3.05616 8.19908 3.12784 8.31977 3.12889 8.3809C3.12942 8.47682 3.03666 8.51951 2.96657 8.57484C2.78844 8.71661 2.59713 8.94481 2.49753 9.13559C2.38949 9.34323 2.24772 9.58302 2.20503 9.80648C2.18606 9.90608 2.14548 9.95457 2.1381 10.0568C2.13336 10.1206 2.1381 10.1786 2.14653 10.2334C1.93415 10.6803 1.76972 11.1404 1.66958 11.6052C1.65536 11.6379 1.63849 11.6684 1.62584 11.7022C1.5489 11.9098 1.52202 12.0774 1.52202 12.295C1.52202 12.4289 1.5041 12.567 1.53309 12.6998C1.53941 12.7288 1.54995 12.7572 1.55944 12.7857C1.57472 13.2268 1.6601 13.6626 1.82295 14.0848C1.87143 14.3541 1.96629 14.6002 2.05747 14.8695C2.10385 15.006 2.13494 15.1457 2.20925 15.2748C2.49647 15.7712 2.77684 16.2577 3.01295 16.7726C3.10676 16.9776 3.23324 17.1694 3.32441 17.3744C3.38976 17.523 3.4393 17.6558 3.52573 17.7929C3.46355 17.8197 3.40399 17.8508 3.34708 17.8751C2.87434 18.0738 2.38633 18.263 1.92519 18.4785C1.48776 18.683 1.01029 19.0208 0.687229 19.3397C0.488544 19.5357 0.39737 19.7634 0.270359 19.9911C0.181821 20.1502 0.0621878 20.3009 0 20.4685C0.115416 20.332 0.312522 20.2356 0.469572 20.1381C0.865888 19.8925 1.22531 19.6754 1.66326 19.4814C1.95681 19.3518 2.23138 19.2084 2.53073 19.0899C2.69621 19.025 2.86644 18.9713 3.01664 18.8833C3.29806 18.7178 3.60637 18.6287 3.91941 18.5244C3.94682 18.5154 3.97212 18.5054 3.99899 18.4964C4.01691 18.5133 4.0343 18.5307 4.05486 18.5476C4.17871 18.6477 4.30519 18.7441 4.4322 18.839C4.36948 18.8822 4.30519 18.926 4.2372 18.9739C3.90308 19.2079 3.61111 19.4883 3.30281 19.7449C3.04088 19.9636 2.7331 20.1665 2.55339 20.4422C2.49278 20.5355 2.39529 20.6635 2.4111 20.7774C2.42006 20.8401 2.38949 20.8796 2.47486 20.9012C2.5829 20.9286 2.95919 20.6461 3.03561 20.6087C3.52046 20.371 3.97317 20.0901 4.45539 19.853C4.58925 19.7871 4.7463 19.7613 4.88543 19.6996C4.96976 19.6622 5.02984 19.6416 5.12101 19.6274C5.18741 19.6174 5.24749 19.6063 5.30757 19.5958C5.41403 19.7054 5.52049 19.8156 5.63011 19.9225C5.41508 20.2198 5.16581 20.4005 4.84116 20.6034C4.62983 20.7352 4.40321 21.1104 4.47647 21.336C4.72364 21.1879 4.91284 21.0551 5.2027 20.9634C5.50152 20.8691 5.78031 20.7067 6.08545 20.6308C6.16977 20.6098 6.262 20.5982 6.35633 20.5934C7.07518 21.2258 7.8499 21.8135 8.68047 22.3458C9.55532 22.9719 10.5561 23.5352 11.6022 23.8367C12.0239 23.9579 12.4286 24.0053 12.8212 23.9995C13.2144 24.0053 13.6191 23.9579 14.0407 23.8367C15.0869 23.5352 16.0877 22.9719 16.9625 22.3458C17.7931 21.8135 18.5678 21.2258 19.2867 20.5934C19.381 20.5982 19.4732 20.6098 19.5581 20.6308C19.8627 20.7067 20.1415 20.8691 20.4403 20.9634C20.7302 21.0551 20.9199 21.1879 21.1665 21.336C21.2398 21.1104 21.0132 20.7352 20.8018 20.6034C20.4777 20.4005 20.2279 20.2198 20.0129 19.9225C20.1225 19.8156 20.229 19.7054 20.3359 19.5958C20.3955 19.6063 20.4556 19.6174 20.522 19.6274C20.6132 19.6416 20.6732 19.6622 20.7576 19.6996C20.8967 19.7613 21.0543 19.7871 21.1876 19.853C21.6703 20.0901 22.1225 20.371 22.6074 20.6087C22.6838 20.6461 23.0601 20.9286 23.1681 20.9012C23.2535 20.8796 23.2235 20.8401 23.2319 20.7774C23.2477 20.6635 23.1502 20.5355 23.0896 20.4422C22.9099 20.1665 22.6021 19.9636 22.3402 19.7449C22.0319 19.4883 21.7399 19.2079 21.4058 18.9739C21.3378 18.926 21.2735 18.8822 21.2108 18.839C21.3378 18.7441 21.4643 18.6477 21.5881 18.5476C21.6087 18.5307 21.6261 18.5133 21.644 18.4964C21.6709 18.5054 21.6962 18.5154 21.7236 18.5244C22.0372 18.6287 22.3444 18.7178 22.6264 18.8833C22.7766 18.9713 22.9468 19.025 23.1123 19.0899C23.4116 19.2084 23.6867 19.3518 23.9797 19.4814C24.4177 19.6754 24.7771 19.8925 25.1734 20.1381C25.3305 20.2356 25.5276 20.332 25.643 20.4685C25.5808 20.3009 25.4612 20.1502 25.3726 19.9911" fill="black"/>
  </g>
  <defs>
    <clipPath id="clip0_9_163">
      <rect width="25.643" height="24" fill="white"/>
    </clipPath>
  </defs>
</svg>
