<?xml version="1.0" encoding="UTF-8" standalone="no"?>
<!-- Created with Inkscape (http://www.inkscape.org/) -->

<svg
   width="24.966093"
   height="24"
   viewBox="0 0 6.6056121 6.35"
   version="1.1"
   id="svg25506"
   inkscape:version="1.2.1 (9c6d41e4, 2022-07-14)"
   sodipodi:docname="war-of-the-outer-gods.svg"
   xmlns:inkscape="http://www.inkscape.org/namespaces/inkscape"
   xmlns:sodipodi="http://sodipodi.sourceforge.net/DTD/sodipodi-0.dtd"
   xmlns="http://www.w3.org/2000/svg"
   xmlns:svg="http://www.w3.org/2000/svg">
  <sodipodi:namedview
     id="namedview25508"
     pagecolor="#505050"
     bordercolor="#eeeeee"
     borderopacity="1"
     inkscape:showpageshadow="0"
     inkscape:pageopacity="0"
     inkscape:pagecheckerboard="0"
     inkscape:deskcolor="#505050"
     inkscape:document-units="mm"
     showgrid="false"
     inkscape:zoom="0.7046647"
     inkscape:cx="178.80845"
     inkscape:cy="220.67233"
     inkscape:window-width="1390"
     inkscape:window-height="941"
     inkscape:window-x="0"
     inkscape:window-y="25"
     inkscape:window-maximized="0"
     inkscape:current-layer="layer1" />
  <defs
     id="defs25503">
    <clipPath
       clipPathUnits="userSpaceOnUse"
       id="clipPath215">
      <path
         d="m 98.369,36.543 h 55.262 V 91.8 H 98.369 Z"
         id="path213" />
    </clipPath>
  </defs>
  <g
     inkscape:label="Layer 1"
     inkscape:groupmode="layer"
     id="layer1"
     transform="translate(-57.89947,-90.318046)">
    <g
       id="g209"
       transform="matrix(0.13625247,0,0,-0.13625247,44.144718,102.33149)">
      <g
         id="g211"
         clip-path="url(#clipPath215)">
        <g
           id="g217"
           transform="matrix(0.383765,0,0,-0.383729,126,56.9571)">
          <g
             id="g219"
             transform="translate(58.334,22.7999)">
            <path
               d="m 0,0 c 0.184,-0.126 0.332,-0.233 0.465,-0.333 0.094,-0.706 0.185,-1.414 0.31,-2.114 0.455,-2.547 1.831,-6.126 1.947,-9.238 -1.022,-2.237 -2.052,-4.466 -2.936,-6.762 -0.459,-1.193 -1.017,-2.409 -1.577,-3.554 -0.53,-1.086 -1.202,-2.11 -1.658,-3.228 -0.281,-0.69 -0.533,-1.589 -1.013,-2.187 -0.258,-0.32 -0.615,-0.373 -1.026,-0.46 -0.688,-0.145 -1.323,-0.403 -2.013,-0.525 -0.391,-0.07 -0.741,-0.228 -1.128,-0.313 -0.105,-0.022 -0.436,-0.064 -0.556,-0.141 -0.292,-0.187 -0.505,-0.623 -0.664,-0.934 -0.197,-0.389 -0.27,-0.785 -0.398,-1.201 -0.149,-0.481 -0.342,-0.87 -0.409,-1.368 -0.062,-0.457 -0.087,-0.896 -0.212,-1.345 -0.18,-0.651 -0.475,-1.261 -0.64,-1.918 -0.258,-1.03 -0.496,-2.009 -0.963,-2.97 -0.441,-0.909 -0.826,-1.771 -1.063,-2.758 -0.122,-0.507 -0.336,-1.013 -0.541,-1.482 -0.048,-0.108 0.003,-0.125 -0.098,-0.249 -0.074,-0.092 -0.289,-0.158 -0.39,-0.222 -0.224,-0.141 -0.375,-0.208 -0.619,-0.325 -0.314,-0.151 -0.603,-0.338 -0.921,-0.491 -0.232,-0.111 -0.407,-0.212 -0.575,-0.404 -0.4,-0.46 -0.579,-1.195 -0.829,-1.737 -0.412,-0.897 -0.638,-1.787 -0.91,-2.73 -0.292,-1.016 -0.635,-2.019 -0.924,-3.035 -0.107,-0.379 -0.159,-0.754 -0.248,-1.134 -0.142,-0.613 -0.459,-1.163 -0.676,-1.752 -0.274,-0.749 -0.417,-2.095 -1.375,-2.317 -0.215,-0.049 -0.492,0.075 -0.621,-0.143 -0.079,-0.133 0.029,-0.289 0.025,-0.416 -0.009,-0.253 -0.073,-0.519 -0.119,-0.766 -0.128,-0.681 -0.165,-1.377 -0.336,-2.05 -0.126,-0.492 -0.167,-0.905 -0.203,-1.408 -0.018,-0.276 -0.126,-0.583 -0.025,-0.841 0.094,-0.245 0.312,-0.387 0.41,-0.65 0.131,-0.351 0.108,-0.674 0.069,-1.032 -0.032,-0.294 -0.018,-0.794 -0.125,-1.05 -0.161,-0.381 -0.679,-0.696 -1.021,-0.907 -0.281,-0.174 -0.811,-0.281 -1.009,-0.539 -0.222,-0.291 -0.129,-0.884 -0.129,-1.228 0.001,-0.562 -0.118,-1.093 -0.127,-1.658 -0.01,-0.716 -0.183,-1.415 -0.25,-2.124 -0.022,-0.239 0.017,-0.446 0.028,-0.683 0.012,-0.282 -0.037,-0.537 -0.041,-0.814 -10e-4,-0.143 0.047,-0.289 0.033,-0.432 -0.023,-0.232 -0.001,-0.157 -0.156,-0.31 -0.255,-0.253 -0.617,-0.202 -0.951,-0.279 0.033,-0.39 0.223,-0.77 0.308,-1.156 0.114,-0.513 0.193,-0.998 0.336,-1.499 0.193,-0.68 0.316,-1.328 0.578,-1.986 0.074,-0.186 0.061,-0.295 0.099,-0.483 0.036,-0.182 0.306,-0.427 0.295,-0.592 -0.018,-0.22 -0.498,-0.428 -0.66,-0.501 -0.234,-0.106 -0.474,-0.07 -0.467,-0.408 0.002,-0.114 0.136,-0.485 0.176,-0.61 0.114,-0.36 0.157,-0.732 0.274,-1.097 0.11,-0.346 0.243,-0.665 0.346,-1.017 -0.24,0.149 -0.332,0.449 -0.484,0.645 -0.407,0.527 -0.815,1.027 -1.154,1.612 -0.233,0.4 -1.021,1.683 -0.636,2.111 0.066,0.073 0.205,0.11 0.294,0.222 0.098,0.123 0.141,0.244 0.26,0.351 0.195,0.174 0.483,0.357 0.562,0.679 0.067,0.269 -0.049,0.71 -0.087,0.986 -0.086,0.623 -0.081,1.246 -0.101,1.874 -0.017,0.505 0.028,1.137 -0.07,1.626 -0.086,0.434 -0.436,0.72 -0.465,1.154 -0.017,0.241 -0.091,0.512 0,0.73 0.141,0.341 0.585,0.406 0.694,0.772 0.096,0.323 -0.067,0.769 -0.038,1.112 0.068,0.785 0.062,1.573 0.107,2.361 0.037,0.617 0.062,1.257 0.082,1.868 0.013,0.434 -0.106,0.744 0.327,0.99 0.213,0.121 0.448,0.217 0.617,0.376 0.374,0.353 0.2,0.718 0.164,1.182 -0.04,0.529 0.011,1.061 -0.029,1.594 -0.04,0.541 -0.093,1.069 -0.082,1.612 0.023,1.174 -0.033,2.347 -0.001,3.522 0.009,0.376 -0.045,1.247 0.174,1.584 0.175,0.266 0.597,0.205 0.866,0.317 0.268,0.111 0.661,0.284 0.757,0.568 0.088,0.257 -0.026,0.728 -0.056,0.986 -0.094,0.789 -0.232,1.548 -0.222,2.346 0.008,0.633 -0.13,1.243 -0.165,1.871 -0.042,0.76 0.129,1.515 0.096,2.279 -0.046,1.065 -0.119,2.32 0.139,3.364 0.108,0.436 -0.115,0.858 0.251,1.121 0.278,0.199 0.603,0.268 0.892,0.444 0.533,0.325 1.024,0.846 1.161,1.45 0.152,0.667 0.24,1.346 0.293,2.03 0.042,0.563 -0.049,1.132 0.035,1.692 0.103,0.685 0.216,1.351 0.292,2.042 0.132,1.194 0.384,2.384 0.577,3.57 0.134,0.814 0.155,1.649 0.288,2.459 0.048,0.296 0.044,0.281 0.334,0.365 0.459,0.133 0.935,0.217 1.397,0.349 0.524,0.149 0.775,0.155 1.063,0.638 0.424,0.716 0.295,1.559 0.484,2.355 0.232,0.98 0.517,1.93 0.713,2.922 0.209,1.059 0.471,2.133 0.796,3.163 0.553,1.761 1.302,3.566 1.564,5.403 0.109,0.758 0.076,1.782 0.418,2.476 0.766,-0.054 1.514,0.318 2.292,0.319 0.554,10e-4 0.98,0.092 1.459,0.378 0.287,0.17 0.397,0.341 0.573,0.621 0.649,1.027 1.164,2.034 1.647,3.153 0.7,1.626 1.46,3.238 2.108,4.885 0.595,1.51 1.048,3.072 1.492,4.634 C -2.426,1.946 -1.255,0.861 0,0"
               style="fill:#231f20;fill-opacity:1;fill-rule:nonzero;stroke:none"
               id="path221" />
          </g>
        </g>
        <g
           id="g223"
           transform="matrix(0.383765,0,0,-0.383729,126,56.9571)">
          <g
             id="g225"
             transform="translate(-35.1982,11.4786)">
            <path
               d="M 0,0 C 0.456,-1.343 0.372,-2.901 0.172,-4.307 0.057,-5.116 -0.2,-5.943 -0.196,-6.752 c 0.005,-1.021 0.214,-2.011 0.126,-3.044 -0.151,-1.767 -0.054,-3.463 -0.026,-5.216 0.01,-0.664 0.183,-1.331 0.146,-1.996 -0.031,-0.556 -0.184,-1.13 -0.284,-1.687 -0.081,-0.451 0.036,-0.857 -0.009,-1.296 -0.027,-0.263 -0.16,-0.458 -0.134,-0.734 0.022,-0.236 0.046,-0.555 0.134,-0.784 0.097,-0.249 0.262,-0.341 0.381,-0.568 0.209,-0.398 0.249,-0.948 0.603,-1.277 0.383,-0.355 1.018,-0.328 1.561,-0.329 0.743,-0.001 1.066,0.022 1.176,-0.509 0.138,-0.668 -0.14,-1.067 -0.205,-1.736 -0.144,-1.507 -0.023,-2.967 -0.192,-4.484 -0.107,-0.965 -0.518,-1.995 -0.51,-2.95 0.004,-0.439 0.45,-0.801 0.665,-1.2 0.422,-0.78 0.032,-1.786 0.798,-2.425 0.36,-0.3 1.01,-0.376 1.173,-0.742 0.117,-0.264 -0.13,-0.778 -0.18,-1.062 -0.146,-0.844 -0.279,-1.699 -0.277,-2.541 0.004,-1.644 0.112,-3.322 0.487,-4.928 0.11,-0.467 0.412,-0.592 0.853,-0.861 0.466,-0.285 0.558,-0.681 0.894,-1.025 0.278,-0.286 0.517,-0.356 0.605,-0.731 0.125,-0.529 -0.049,-0.903 -0.174,-1.434 -0.235,-0.995 -0.299,-2.422 0.136,-3.354 0.199,-0.428 0.491,-0.969 1.139,-1.035 0.578,-0.058 1.441,0.043 2.012,-0.121 0.642,-0.185 0.452,-0.972 0.417,-1.397 -0.056,-0.679 -0.155,-1.769 0.636,-2.2 0.641,-0.35 1.155,-0.137 1.084,-0.908 -0.029,-0.323 -0.263,-0.647 -0.308,-0.968 -0.061,-0.439 -0.016,-0.913 -0.039,-1.358 -0.041,-0.806 0.055,-1.372 1.035,-1.678 0.401,-0.125 1.081,-0.422 1.542,-0.759 0.058,-0.01 0.119,-0.021 0.196,-0.059 0.998,-0.478 1.902,-1.288 2.665,-2.068 0.44,-0.451 0.831,-0.967 1.32,-1.367 0.617,-0.506 1.299,-0.912 1.885,-1.461 1.002,-0.941 2.064,-1.743 3.131,-2.603 0.404,-0.326 0.878,-0.586 1.263,-0.932 0.322,-0.289 0.603,-0.637 0.898,-0.955 0.238,-0.258 0.531,-0.411 0.776,-0.648 0.147,-0.141 0.21,-0.294 0.386,-0.42 0.152,-0.108 0.354,-0.257 0.529,-0.334 0.19,-0.084 0.313,-0.062 0.5,-0.126 0.326,-0.111 0.674,-0.368 1.02,-0.385 0.373,-0.019 0.62,0.256 0.847,0.48 0.31,0.305 0.431,0.449 0.796,0.231 0.46,-0.276 0.584,-0.588 0.961,-0.947 0.846,-0.808 1.776,-1.484 2.62,-2.308 0.536,-0.524 0.986,-1.205 1.565,-1.676 0.265,-0.216 0.668,-0.212 0.999,-0.322 0.644,-0.214 1.088,-0.875 1.792,-0.876 0.331,-0.001 0.646,0.229 0.934,0.114 0.208,-0.083 0.414,-0.44 0.566,-0.601 0.447,-0.48 0.906,-0.96 1.414,-1.377 0.992,-0.816 2.048,-1.605 3.172,-2.249 0.326,-0.187 0.526,-0.124 0.873,-0.076 0.364,0.051 0.641,-0.108 0.989,-0.141 0.287,-0.027 0.429,0.036 0.691,-0.114 0.371,-0.211 0.523,-0.469 0.79,-0.784 0.503,-0.592 1.335,-1.327 2.078,-1.611 0.34,-0.13 0.788,-0.279 1.096,-0.045 0.276,0.209 0.575,0.615 0.91,0.769 0.378,0.173 0.774,-0.296 1.015,-0.522 0.386,-0.361 1.001,-0.943 1.59,-0.831 0.477,0.09 0.562,0.408 0.998,-0.004 0.182,-0.173 0.279,-0.431 0.454,-0.609 0.239,-0.243 0.543,-0.46 0.802,-0.691 0.469,-0.417 0.849,-0.658 1.44,-0.406 0.371,0.157 1.265,0.391 1.628,0.176 0.22,-0.13 0.279,-0.529 0.424,-0.712 0.197,-0.248 0.45,-0.45 0.652,-0.706 0.251,-0.319 0.556,-0.61 0.817,-0.919 0.188,-0.223 0.459,-0.318 0.652,-0.538 -0.271,-0.246 -1.323,0.159 -1.603,0.197 -1.199,0.163 -2.373,0.413 -3.568,0.598 -2.461,0.383 -4.913,0.774 -7.342,1.321 -0.602,0.135 -1.162,0.369 -1.742,0.572 -0.852,0.298 -1.733,0.501 -2.586,0.803 -1.363,0.483 -2.76,0.797 -4.126,1.257 -0.667,0.224 -1.333,0.406 -2.011,0.586 -1.08,0.288 -2.071,0.848 -3.137,1.186 -1.246,0.394 -2.393,0.858 -3.577,1.399 -0.879,0.402 -1.765,0.817 -2.68,1.128 -3.73,1.268 -7.591,2.153 -11.331,3.385 -1.768,0.581 -3.444,1.398 -5.149,2.133 -2.367,1.019 -4.565,2.223 -6.798,3.503 -1.018,0.583 -2.05,1.178 -2.985,1.889 -0.675,0.514 -1.248,1.121 -1.88,1.681 -0.94,0.831 -1.366,1.806 -2.047,2.829 -0.143,0.216 -0.392,0.451 -0.265,0.713 0.195,0.136 0.691,0.256 0.552,0.449 -19.975,27.655 -30.435,54.442 -30.178,54.756 0.728,0.83 -1.249,12.806 -0.74,13.787 0.055,0.106 4.748,4.033 7.791,6.299 0.249,0.565 0.517,1.133 0.758,1.746 0.129,0.328 0.168,0.768 0.654,0.892 0.393,-0.053 0.792,-0.083 1.198,-0.089 0.682,-0.041 1.371,-0.034 2.067,0.019 1.893,0.099 3.817,0.362 5.671,0.798 0.255,0.059 1.672,0.719 5.661,-0.101 C -6.12,10.6 -6.1,10.282 -6.161,9.877 -6.314,8.862 -6.227,7.888 -6.252,6.878 -6.284,5.598 -6.189,4.442 -5.978,3.18 -5.893,2.67 -5.918,2.248 -5.49,1.887 -5.141,1.593 -4.896,1.563 -4.413,1.429 -3.359,1.137 -2.25,0.854 -1.174,0.584 -0.562,0.431 -0.18,0.527 0,0"
               style="fill:#231f20;fill-opacity:1;fill-rule:nonzero;stroke:none"
               id="path227" />
          </g>
        </g>
        <g
           id="g229"
           transform="matrix(0.383765,0,0,-0.383729,126,56.9571)">
          <g
             id="g231"
             transform="translate(35.7451,-10.62)">
            <path
               d="m 0,0 c -0.201,-0.892 -0.342,-1.804 -0.819,-2.593 -0.139,-0.229 -0.202,-0.453 -0.458,-0.442 -0.187,0.008 -0.509,0.275 -0.748,0.466 -0.575,-0.628 -0.804,0.057 -1.197,0.597 -0.412,0.566 -0.998,1.173 -1.707,1.327 -2.403,0.526 -5.162,0.208 -7.633,0.208 h -10.381 -9.735 c -3.482,0 -6.939,-0.096 -10.409,-0.209 -1.891,-0.06 -3.71,-0.617 -5.606,-0.663 -1.631,-0.039 -3.367,-0.41 -4.968,-0.718 -1.585,-0.305 -3.188,-0.567 -4.795,-0.597 -0.769,-0.015 -1.492,-0.166 -2.252,-0.28 -0.499,-0.075 -1.28,-0.374 -1.779,-0.35 0.723,0.278 1.509,0.375 2.244,0.635 0.507,0.179 1.129,0.047 1.585,0.245 0.133,0.122 0.268,0.242 0.405,0.359 0.223,0.046 0.448,0.077 0.676,0.091 0.388,0.093 0.723,0.28 1.107,0.366 1.275,0.286 2.611,0.412 3.903,0.628 0.968,0.162 1.986,0.133 2.907,0.493 0.57,0.223 1.131,0.302 1.725,0.433 1.613,0.356 3.23,0.741 4.847,1.06 0.702,0.138 1.421,0.173 2.128,0.318 0.605,0.123 1.22,0.3 1.833,0.364 1.597,0.17 3.21,0.19 4.803,0.409 0.532,0.074 1.072,0.072 1.612,0.06 0.566,0.086 1.136,0.152 1.705,0.191 1.227,0.084 2.481,0.324 3.707,0.271 0.028,-10e-4 0.054,-0.004 0.081,-0.005 -0.026,-0.008 -0.053,-0.016 -0.08,-0.023 0.048,0.005 0.095,0.013 0.143,0.019 -0.021,10e-4 -0.041,0.003 -0.063,0.004 0.029,0.008 0.058,0.017 0.086,0.024 1.466,0.421 3.016,0.901 4.54,1.013 1.266,0.093 2.519,0.264 3.781,0.385 0.807,0.077 1.647,0.022 2.477,-0.04 -0.012,-0.004 -0.025,-0.006 -0.037,-0.009 -0.605,-0.183 -1.186,-0.394 -1.786,-0.555 1.221,0.105 2.44,0.234 3.658,0.385 -0.216,0.042 -0.432,0.085 -0.66,0.097 -0.386,0.021 -0.779,0.052 -1.175,0.082 1.784,0.531 3.747,0.576 5.58,0.825 1.512,0.206 2.998,0.382 4.53,0.413 1.078,0.022 2.127,0.188 3.206,0.146 0.286,-0.012 0.568,-0.027 0.851,-0.035 0.269,0.044 0.537,0.089 0.814,0.097 C -0.782,5.508 0.867,5.77 1.215,5.268 1.202,5.243 1.187,5.218 1.174,5.193 1.452,5.19 1.722,5.286 1.96,5.236 1.038,3.778 0.96,3.436 0.843,3.068 0.518,2.05 0.236,1.044 0,0"
               style="fill:#231f20;fill-opacity:1;fill-rule:nonzero;stroke:none"
               id="path233" />
          </g>
        </g>
        <g
           id="g235"
           transform="matrix(0.383765,0,0,-0.383729,126,56.9571)">
          <g
             id="g237"
             transform="translate(34.0566,-26.7182)">
            <path
               d="m 0,0 c -0.072,-0.511 -0.081,-1.104 -0.29,-1.578 -0.28,-0.638 -0.524,-0.244 -0.908,0.185 -0.285,0.318 -0.578,0.643 -0.812,1.001 -0.244,0.373 -0.38,0.82 -0.663,1.168 C -3.3,1.549 -4.212,2.239 -5.058,2.75 -5.823,3.21 -6.793,3.5 -7.687,3.587 -8.433,3.66 -9.192,3.518 -9.936,3.48 -10.678,3.442 -11.408,3.432 -12.14,3.292 c -1.034,-0.196 -2.059,-0.62 -3.086,-0.871 -0.63,-0.154 -1.216,-0.365 -1.816,-0.62 -1.465,-0.624 -2.97,-1.194 -4.45,-1.78 -3.317,-1.316 -6.637,-2.849 -10.113,-3.698 -3.992,-0.974 -8.106,-1.236 -12.179,-1.682 -1.143,-0.125 -2.274,-0.243 -3.424,-0.297 -0.689,-0.031 -1.349,-0.059 -2.024,-0.223 -0.38,-0.093 -2.04,-0.678 -2.375,-0.191 0.087,0.194 0.49,0.331 0.663,0.478 0.198,0.169 0.363,0.337 0.587,0.472 0.639,0.389 1.37,0.617 2.057,0.906 2.685,1.128 5.685,1.292 8.542,1.627 2.412,0.282 4.733,1.099 7.063,1.742 1.349,0.372 2.725,0.694 4.057,1.129 1.965,0.641 3.808,1.548 5.799,2.133 1.477,0.434 2.964,1.081 4.488,1.327 1.255,0.203 2.413,0.567 3.692,0.667 0.853,0.066 1.658,0.35 2.504,0.464 0.866,0.118 1.738,0.098 2.607,0.176 0.68,0.06 1.369,0.201 2.026,0.39 0.538,0.156 1.109,0.232 1.638,0.415 0.454,0.157 0.724,0.311 1.19,0.379 0.45,0.065 0.762,0.29 1.185,0.444 0.498,0.179 1.037,0.229 1.549,0.355 0.396,0.097 0.765,0.244 1.139,0.403 C -0.664,7.504 -0.573,7.65 -0.384,7.5 0.257,4.651 0.518,3.509 0.428,2.384 0.365,1.602 0.108,0.779 0,0"
               style="fill:#231f20;fill-opacity:1;fill-rule:nonzero;stroke:none"
               id="path239" />
          </g>
        </g>
        <g
           id="g241"
           transform="matrix(0.383765,0,0,-0.383729,126,56.9571)">
          <g
             id="g243"
             transform="translate(8.9697,-42.7646)">
            <path
               d="m 0,0 c -1.455,-0.442 -2.889,-0.862 -4.248,-1.544 -0.588,-0.295 -1.156,-0.631 -1.731,-0.96 0.044,0.018 0.086,0.04 0.13,0.056 0.662,0.248 1.311,0.476 1.945,0.795 1.05,0.528 2.2,0.777 3.272,1.251 0.446,0.197 0.89,0.408 1.335,0.609 C 0.469,0.137 0.233,0.071 0,0 m 21.948,2.519 c -0.262,0.287 -0.405,0.658 -0.679,0.95 -0.29,0.309 -0.467,0.642 -0.686,0.945 0.034,-0.193 0.084,-0.385 0.163,-0.577 0.127,-0.31 0.22,-0.692 0.371,-1.014 -0.146,0.273 -0.26,0.517 -0.597,0.76 -0.268,0.193 -0.537,0.354 -0.868,0.434 -0.611,0.149 -1.34,0.05 -1.966,0.05 C 16.882,4.066 16.185,4.033 15.397,3.9 14.222,3.703 13.048,3.485 11.866,3.299 10.556,3.091 9.326,2.684 8.05,2.324 7.107,2.059 6.166,1.792 5.225,1.524 4.605,1.316 3.979,1.125 3.381,0.867 1.73,0.152 0.104,-0.668 -1.579,-1.298 -2.792,-1.751 -4.02,-1.951 -5.19,-2.537 c -0.58,-0.29 -1.106,-0.48 -1.747,-0.607 -0.164,-0.033 -0.321,-0.08 -0.48,-0.123 -0.891,-0.444 -1.769,-0.879 -2.717,-1.223 -2.64,-0.957 -5.158,-2.296 -7.769,-3.338 -2.259,-0.902 -4.528,-2.058 -6.918,-2.55 0.179,0.24 0.552,0.251 0.806,0.383 0.408,0.212 0.725,0.543 1.121,0.771 0.465,0.268 0.991,0.369 1.487,0.561 0.546,0.211 0.877,0.5 1.349,0.83 1.805,1.263 3.841,2.31 5.858,3.179 1.465,0.632 2.956,1.149 4.408,1.816 1.416,0.651 2.917,0.982 4.226,1.832 1.003,0.651 2.113,1.069 3.156,1.648 0.837,0.463 1.684,0.914 2.542,1.343 3.53,1.766 7.336,2.775 10.923,4.33 0.834,0.362 1.591,0.842 2.456,1.16 0.995,0.368 2.058,0.457 3.045,0.867 0.761,0.317 1.463,0.687 2.231,0.989 0.373,0.147 0.872,0.537 1.274,0.417 C 20.19,9.4 20.102,9.031 20.253,8.662 20.277,8.603 20.312,8.547 20.342,8.489 20.709,8.698 21.093,8.834 21.244,8.582 21.271,8.477 21.278,8.371 21.266,8.263 21.305,8.216 21.346,8.17 21.389,8.126 21.428,8.018 21.496,7.887 21.502,7.758 21.519,7.369 21.47,6.95 21.535,6.539 21.654,5.792 21.882,5.043 22.025,4.304 22.126,3.79 22.361,3.302 22.517,2.803 22.589,2.57 22.575,2.129 22.724,1.951 21.997,2.562 21.973,2.54 21.948,2.519"
               style="fill:#231f20;fill-opacity:1;fill-rule:nonzero;stroke:none"
               id="path245" />
          </g>
        </g>
        <g
           id="g247"
           transform="matrix(0.383765,0,0,-0.383729,126,56.9571)">
          <g
             id="g249"
             transform="translate(29.168,-48.6733)">
            <path
               d="M 0,0 C -0.313,-0.015 -0.463,-0.084 -0.755,-0.187 -1.142,-0.323 -1.542,-0.284 -1.933,-0.347 -2.422,-0.426 -2.762,-0.59 -3.281,-0.598 -3.95,-0.608 -4.609,-0.685 -5.28,-0.672 -5.891,-0.662 -6.214,-0.79 -6.752,-1 c -1.438,-0.561 -2.814,-1.258 -4.222,-1.899 -3.82,-1.741 -7.128,-4.342 -10.56,-6.721 -1.076,-0.745 -2.131,-1.53 -3.258,-2.196 -0.739,-0.436 -1.49,-0.838 -2.238,-1.257 -0.371,-0.208 -0.835,-0.392 -1.276,-0.603 0.249,0.182 0.499,0.361 0.75,0.541 0.957,0.685 2.004,1.24 2.953,1.94 1.332,0.981 2.696,1.906 4.057,2.841 0.807,0.555 1.673,1.015 2.485,1.556 0.716,0.476 1.38,0.999 2.106,1.462 1.058,0.675 2.069,1.403 3.11,2.098 1.62,1.083 3.262,2.293 4.985,3.212 0.888,0.474 1.721,0.859 2.522,1.484 0.716,0.559 1.57,0.91 2.36,1.349 0.487,0.271 0.995,0.458 1.454,0.784 0.352,0.252 0.672,0.473 1.08,0.633 0.33,0.129 1.666,0.91 2.038,0.732 C 1.719,4.487 1.547,3.988 1.548,3.516 1.548,3.055 1.417,2.602 1.445,2.143 1.483,1.546 1.729,0.974 1.803,0.381 1.827,0.185 1.947,-0.198 1.873,-0.388 0.581,0.042 0.292,0.014 0,0"
               style="fill:#231f20;fill-opacity:1;fill-rule:nonzero;stroke:none"
               id="path251" />
          </g>
        </g>
        <g
           id="g253"
           transform="matrix(0.383765,0,0,-0.383729,126,56.9571)">
          <g
             id="g255"
             transform="translate(-0.6558,-63.4604)">
            <path
               d="M 0,0 C 0.122,0.14 0.27,0.253 0.425,0.358 0.305,0.223 0.193,0.095 0,0"
               style="fill:#231f20;fill-opacity:1;fill-rule:nonzero;stroke:none"
               id="path257" />
          </g>
        </g>
        <g
           id="g259"
           transform="matrix(0.383765,0,0,-0.383729,126,56.9571)">
          <g
             id="g261"
             transform="translate(-0.2305,-63.1025)">
            <path
               d="M 0,0 C 0.047,0.053 0.091,0.105 0.149,0.16 0.403,0.399 0.741,0.584 1.093,0.753 0.879,0.596 0.668,0.435 0.447,0.288 0.303,0.191 0.148,0.1 0,0"
               style="fill:#231f20;fill-opacity:1;fill-rule:nonzero;stroke:none"
               id="path263" />
          </g>
        </g>
        <g
           id="g265"
           transform="matrix(0.383765,0,0,-0.383729,126,56.9571)">
          <g
             id="g267"
             transform="translate(31.3955,-62.3749)">
            <path
               d="m 0,0 c -0.154,-0.164 -0.814,-0.068 -1.139,-0.096 -0.247,-0.3 -0.893,-0.439 -1.194,-0.626 -0.596,-0.37 -1.183,-0.671 -1.805,-1.049 -0.663,-0.404 -1.333,-0.77 -2.036,-1.096 -0.482,-0.224 -0.803,-0.57 -1.26,-0.823 -1.075,-0.595 -1.889,-1.432 -2.967,-2.04 -0.398,-0.226 -0.827,-0.358 -1.202,-0.631 -0.376,-0.274 -0.646,-0.639 -1.042,-0.9 -0.388,-0.257 -0.726,-0.515 -1.088,-0.81 -0.248,-0.203 -0.964,-1.005 -1.31,-0.927 -0.08,0.433 1.053,1.274 1.352,1.578 0.503,0.511 1.118,0.805 1.662,1.262 0.408,0.342 0.734,0.74 1.141,1.097 0.483,0.424 1.015,0.819 1.535,1.209 0.617,0.462 1.306,1.089 1.981,1.441 0.667,0.348 1.361,0.626 1.973,1.074 0.58,0.424 1.097,0.962 1.643,1.431 0.389,0.334 0.873,0.927 1.423,0.988 0.077,-0.058 0.133,-0.099 0.2,-0.15 0.18,0.238 0.362,0.474 0.575,0.648 0.398,0.325 0.395,-0.148 0.649,-0.406 0.254,-0.259 0.503,-0.555 0.814,-0.745 z"
               style="fill:#231f20;fill-opacity:1;fill-rule:nonzero;stroke:none"
               id="path269" />
          </g>
        </g>
        <g
           id="g271"
           transform="matrix(0.383765,0,0,-0.383729,126,56.9571)">
          <g
             id="g273"
             transform="translate(36.1699,6.0655)">
            <path
               d="m 0,0 c -0.424,0.491 -0.827,0.705 -1.355,1.086 -3.684,2.658 -8.232,3.782 -12.774,3.724 -1.267,-0.017 -2.512,0.21 -3.777,0.237 -1.166,0.025 -2.319,-0.071 -3.484,0.037 -2.612,0.242 -5.226,0.171 -7.852,0.171 -2.232,0 -4.416,0.064 -6.641,0.219 -2.521,0.174 -5.006,0.219 -7.535,0.219 h -14.583 c -2.278,0 -4.555,-0.01 -6.832,0.005 -0.129,10e-4 -0.539,0.006 -0.995,-0.012 0.421,0.135 0.84,0.278 1.243,0.392 1.472,0.416 2.945,0.727 4.449,0.981 1.524,0.256 2.923,0.841 4.477,0.999 1.868,0.188 3.699,0.475 5.525,0.925 1.263,0.311 2.454,0.646 3.757,0.768 1.761,0.165 3.51,0.536 5.279,0.56 3.259,0.042 6.524,-0.011 9.783,-0.011 h 8.857 c 1.353,0 2.804,0.145 4.144,-0.038 2.034,-0.279 4.092,-0.501 6.122,-0.823 1.199,-0.189 2.392,-0.378 3.587,-0.561 0.126,0.011 0.253,0.011 0.38,0.023 0.863,0.08 1.765,0.245 2.631,0.254 0.419,0.004 0.829,-0.07 1.248,-0.061 0.432,0.009 0.852,0.072 1.286,0.052 0.568,-0.024 1.135,-0.007 1.7,-0.032 C -0.313,9.068 0.726,8.973 1.77,8.86 2.426,8.79 3.088,8.792 3.741,8.711 4.578,8.607 5.388,8.365 6.215,8.259 6.89,8.173 7.634,8.156 8.306,8.129 8.569,8.118 8.762,8.226 9.03,8.102 7.852,5.677 7.028,4.605 6.515,3.437 6.214,2.75 5.943,2.158 5.727,1.446 5.618,1.091 5.478,0.744 5.396,0.381 5.341,0.131 5.359,-0.098 5.142,-0.275 4.921,-0.134 4.771,0.052 4.64,0.249 4.443,-0.271 4.249,-0.792 4.087,-1.325 3.987,-1.652 3.787,-1.937 3.686,-2.258 3.592,-2.551 3.635,-2.876 3.539,-3.173 3.382,-3.66 3.218,-4.119 3.094,-4.62 2.897,-5.41 2.536,-6.103 2.546,-6.921 c -0.022,0.8 0.218,1.485 0.217,2.31 0,0.966 -0.184,1.703 -0.646,2.57 C 1.616,-1.101 0.67,-0.777 0,0"
               style="fill:#231f20;fill-opacity:1;fill-rule:nonzero;stroke:none"
               id="path275" />
          </g>
        </g>
        <g
           id="g277"
           transform="matrix(0.383765,0,0,-0.383729,126,56.9571)">
          <g
             id="g279"
             transform="translate(-29.6577,11.7511)">
            <path
               d="M 0,0 C -0.534,-0.171 -1.072,-0.329 -1.587,-0.393 -1.562,-0.12 -0.723,-0.029 0,0"
               style="fill:#231f20;fill-opacity:1;fill-rule:nonzero;stroke:none"
               id="path281" />
          </g>
        </g>
        <g
           id="g283"
           transform="matrix(0.383765,0,0,-0.383729,126,56.9571)">
          <g
             id="g285"
             transform="translate(51.0088,29.8468)">
            <path
               d="m 0,0 c -0.162,-0.704 -0.444,-1.362 -0.606,-2.067 -0.144,-0.624 -0.448,-1.129 -0.676,-1.719 -0.225,-0.582 -0.317,-1.2 -0.594,-1.762 -0.271,-0.551 -0.748,-1.377 -0.814,-1.987 -0.408,0.124 -0.731,0.966 -0.989,1.301 -0.189,0.247 -0.396,0.479 -0.596,0.716 -0.197,0.117 -0.386,0.247 -0.561,0.422 -0.612,0.612 -1.405,0.832 -2.074,1.379 -1.229,1.003 -2.505,2.059 -3.952,2.746 -0.868,0.412 -1.829,0.634 -2.742,0.92 -1.103,0.346 -2.146,0.804 -3.278,1.051 -2.012,0.439 -3.979,1.157 -5.977,1.664 -2.539,0.645 -5.05,1.367 -7.566,2.118 -1.198,0.358 -2.47,0.734 -3.704,0.941 -0.736,0.124 -1.433,0.149 -2.158,0.358 -0.861,0.247 -1.672,0.547 -2.561,0.685 -1.693,0.261 -3.385,0.549 -5.086,0.758 -1.995,0.247 -3.964,0.749 -5.96,0.932 -0.606,0.056 -1.211,0.136 -1.816,0.227 -0.518,-0.003 -1.035,-0.007 -1.551,-0.007 -2.995,0 -6.054,-0.196 -9.041,0.037 -1.687,0.132 -3.351,0.411 -5.048,0.418 -1.03,0.004 -2.06,-0.018 -3.089,-0.017 -3.788,0.002 -7.575,0 -11.362,0 2.717,-0.002 -6.116,0.055 -3.435,0.549 0.272,0.05 -0.312,0.369 -0.036,0.402 -1.028,0.054 0.304,0.197 -0.732,0.198 -1.443,0 7.122,-0.266 5.678,-0.276 -1.015,-0.008 -1.978,0.195 -2.984,0.235 7.011,0.022 14.025,0.081 21.033,-0.003 0.755,-0.009 1.499,-0.111 2.241,-0.231 3.531,-0.007 7.062,-0.024 10.593,0.008 3.109,0.029 6.233,-0.424 9.333,-0.928 0.289,-0.013 0.578,-0.024 0.866,-0.063 1.614,-0.217 3.266,0.079 4.864,-0.269 1.837,-0.401 3.71,-0.28 5.584,-0.45 1.098,-0.099 2.183,-0.002 3.28,-0.032 1.183,-0.034 2.287,-0.458 3.479,-0.473 1.939,-0.023 3.872,-0.091 5.788,-0.373 1.299,-0.191 2.711,-0.057 4.021,-0.044 0.737,0.009 1.394,-0.203 2.123,-0.235 0.724,-0.032 1.462,0.011 2.189,0.011 1.607,0 3.312,0.18 4.89,-0.16 C -2.049,6.771 -0.997,6.464 -0.009,6.482 -0.242,6.176 -0.42,5.907 -0.575,5.653 -0.171,5.709 0.221,5.76 0.649,5.824 L 0.831,5.786 C 1.104,4.821 0.566,3.646 0.37,2.715 0.181,1.816 0.205,0.898 0,0"
               style="fill:#231f20;fill-opacity:1;fill-rule:nonzero;stroke:none"
               id="path287" />
          </g>
        </g>
        <g
           id="g289"
           transform="matrix(0.383765,0,0,-0.383729,126,56.9571)">
          <g
             id="g291"
             transform="translate(30.0869,-39.9413)">
            <path
               d="M 0,0 C 0.057,-0.105 0.117,-0.213 0.198,-0.329 0.12,-0.232 0.057,-0.12 0,0"
               style="fill:#231f20;fill-opacity:1;fill-rule:nonzero;stroke:none"
               id="path293" />
          </g>
        </g>
        <g
           id="g295"
           transform="matrix(0.383765,0,0,-0.383729,126,56.9571)">
          <g
             id="g297"
             transform="translate(9.2959,-64.9789)">
            <path
               d="m 0,0 c -0.615,-0.379 -1.544,-1.168 -2.313,-1.156 0.74,0.795 1.858,1.456 2.777,2.016 0.537,0.328 1.084,0.705 1.599,1.071 0.298,0.212 0.431,0.461 0.695,0.669 0.202,0.16 0.461,0.194 0.669,0.337 0.916,0.621 1.775,1.279 2.629,1.955 0.796,0.629 1.539,1.246 2.405,1.779 0.452,0.28 0.946,0.449 1.428,0.683 0.541,0.265 1.027,0.591 1.548,0.89 0.855,0.491 1.79,0.832 2.643,1.31 0.31,0.175 0.553,0.478 0.862,0.665 0.393,0.237 0.817,0.416 1.241,0.594 0.068,0.063 0.129,0.134 0.204,0.19 0.331,0.246 0.683,0.423 1.004,0.686 0.318,0.263 0.63,0.582 0.969,0.817 0.303,0.209 0.674,0.344 0.997,0.523 0.161,0.086 0.323,0.169 0.487,0.248 0.057,0.068 0.119,0.131 0.184,0.191 0.544,0.189 0.687,-0.234 0.835,-0.665 0.092,-0.268 0.259,-0.912 0.019,-1.127 C 20.752,11.049 20.42,10.908 20.199,10.898 20.182,10.643 20.075,10.431 19.771,10.316 18.897,9.986 18.01,9.764 17.183,9.328 16.258,8.841 15.243,8.412 14.287,7.913 13.085,7.286 11.981,6.49 10.776,5.878 9.959,5.463 9.204,4.922 8.359,4.563 7.646,4.26 6.819,3.921 6.149,3.521 5.354,3.046 4.571,2.603 3.764,2.149 3.165,1.812 2.542,1.535 1.937,1.224 1.276,0.885 0.641,0.394 0,0"
               style="fill:#231f20;fill-opacity:1;fill-rule:nonzero;stroke:none"
               id="path299" />
          </g>
        </g>
        <g
           id="g301"
           transform="matrix(0.383765,0,0,-0.383729,126,56.9571)">
          <g
             id="g303"
             transform="translate(28.5889,-57.164)">
            <path
               d="M 0,0 C 0.179,0.181 0.433,0.429 0.547,0.442 0.687,0.459 1.028,0.181 1.107,0.097 1.202,-0.004 1.308,-0.233 1.385,-0.358 1.475,-0.506 1.449,-0.621 1.58,-0.755 1.678,-0.856 1.87,-0.927 1.989,-1.003 1.535,-1.231 1.138,-1.409 0.784,-1.553 0.59,-1.706 0.35,-1.81 0.139,-1.911 -0.386,-2.164 -0.868,-2.582 -1.41,-2.786 -2.153,-3.066 -2.641,-3.588 -3.359,-3.91 -4.338,-4.348 -5.235,-4.881 -6.151,-5.447 -7.313,-6.164 -8.609,-6.681 -9.72,-7.474 c -0.972,-0.695 -2.19,-1.295 -3.274,-1.799 -0.801,-0.373 -1.4,-0.868 -2.138,-1.311 -0.384,-0.23 -0.813,-0.337 -1.092,-0.707 0.328,0.677 1.17,1.21 1.732,1.684 0.629,0.529 1.165,1.249 1.852,1.7 0.46,0.301 0.824,0.461 1.225,0.878 0.23,0.239 0.466,0.533 0.749,0.717 0.385,0.25 0.691,0.359 1.053,0.652 0.226,0.184 0.453,0.323 0.691,0.476 0.624,0.402 1.297,0.814 1.889,1.268 0.248,0.19 0.449,0.418 0.695,0.609 0.391,0.303 0.889,0.431 1.284,0.708 0.415,0.29 0.686,0.634 1.141,0.889 0.445,0.248 0.85,0.475 1.243,0.799 0.436,0.358 1.602,1.544 2.267,1.389 C -0.474,0.436 -0.265,0.232 0,0"
               style="fill:#231f20;fill-opacity:1;fill-rule:nonzero;stroke:none"
               id="path305" />
          </g>
        </g>
        <g
           id="g307"
           transform="matrix(0.383765,0,0,-0.383729,126,56.9571)">
          <g
             id="g309"
             transform="translate(26.6387,-68.082)">
            <path
               d="m 0,0 c -0.142,-0.157 -0.286,-0.312 -0.433,-0.463 -0.262,-0.22 -0.538,-0.425 -0.806,-0.64 -1.171,-0.941 -2.428,-1.82 -3.73,-2.562 0.613,0.62 1.307,1.168 1.925,1.78 0.377,0.372 0.898,0.627 1.263,0.995 0.313,0.318 0.48,0.587 0.85,0.872 0.996,0.769 1.933,1.593 2.922,2.37 C 2.456,2.717 2.948,3.05 3.413,3.415 3.655,3.605 3.892,3.876 4.164,4.042 4.326,4.24 4.479,4.445 4.665,4.625 5.212,5.153 5.287,4.733 5.728,4.34 6.083,4.023 6.413,3.728 6.828,3.464 L 6.505,2.379 C 6.239,2.55 6.038,2.683 5.743,2.774 5.45,2.866 5.286,2.854 5.076,2.787 4.26,2.303 3.348,1.964 2.527,1.441 2.226,1.248 1.91,1.091 1.596,0.919 1.231,0.721 0.977,0.468 0.62,0.255 0.393,0.22 0.186,0.135 0,0"
               style="fill:#231f20;fill-opacity:1;fill-rule:nonzero;stroke:none"
               id="path311" />
          </g>
        </g>
      </g>
    </g>
  </g>
</svg>
