<?xml version="1.0" encoding="UTF-8" standalone="no"?>
<!-- Created with Inkscape (http://www.inkscape.org/) -->

<svg
   width="22.042057"
   height="24"
   viewBox="0 0 5.8319609 6.35"
   version="1.1"
   id="svg5729"
   inkscape:version="1.2.1 (9c6d41e4, 2022-07-14)"
   sodipodi:docname="curse-of-the-rougarou.svg"
   xmlns:inkscape="http://www.inkscape.org/namespaces/inkscape"
   xmlns:sodipodi="http://sodipodi.sourceforge.net/DTD/sodipodi-0.dtd"
   xmlns="http://www.w3.org/2000/svg"
   xmlns:svg="http://www.w3.org/2000/svg">
  <sodipodi:namedview
     id="namedview5731"
     pagecolor="#505050"
     bordercolor="#eeeeee"
     borderopacity="1"
     inkscape:showpageshadow="0"
     inkscape:pageopacity="0"
     inkscape:pagecheckerboard="0"
     inkscape:deskcolor="#505050"
     inkscape:document-units="mm"
     showgrid="false"
     inkscape:zoom="0.7046647"
     inkscape:cx="28.382293"
     inkscape:cy="155.39305"
     inkscape:window-width="1390"
     inkscape:window-height="941"
     inkscape:window-x="0"
     inkscape:window-y="25"
     inkscape:window-maximized="0"
     inkscape:current-layer="layer1" />
  <defs
     id="defs5726">
    <clipPath
       clipPathUnits="userSpaceOnUse"
       id="clipPath3871">
      <path
         d="m 413.45,365.23 h 24 v 26.209 h -24 z"
         clip-rule="evenodd"
         id="path3869" />
    </clipPath>
    <clipPath
       clipPathUnits="userSpaceOnUse"
       id="clipPath3881">
      <path
         d="M 0,0 H 3.9746 V 4.3225 H 0 Z"
         id="path3879" />
    </clipPath>
    <clipPath
       clipPathUnits="userSpaceOnUse"
       id="clipPath3889">
      <path
         d="m 0.085029,0.037363 h 3.84 v 4.2 h -3.84 z"
         clip-rule="evenodd"
         id="path3887" />
    </clipPath>
  </defs>
  <g
     inkscape:label="Layer 1"
     inkscape:groupmode="layer"
     id="layer1"
     transform="translate(-97.711073,-107.58985)">
    <g
       id="g3865"
       transform="matrix(0.25151874,0,0,-0.25151874,-6.4084831,205.92429)">
      <g
         id="g3867"
         clip-path="url(#clipPath3871)">
        <g
           id="g3873"
           transform="matrix(0.33333,-3.77e-7,-3.77e-7,0.36458,413.45,365.23)">
          <g
             id="g3875"
             transform="scale(18.115,16.657)">
            <g
               id="g3877"
               clip-path="url(#clipPath3881)">
              <g
                 id="g3883">
                <g
                   id="g3885"
                   clip-path="url(#clipPath3889)">
                  <path
                     d="M 1.357,0.25829 C 1.3047,0.37738 1.2202,0.47481 1.1692,0.47481 1.113,0.47481 1.0535,0.57475 1.0181,0.72843 0.94527,1.0453 0.93958,1.0511 0.80969,0.94353 0.71202,0.86263 0.70689,0.87549 0.74847,1.0975 0.77343,1.2307 0.80948,1.3805 0.82861,1.4304 0.84971,1.4854 0.824,1.521 0.76306,1.521 0.68544,1.521 0.67136,1.564 0.70081,1.7112 0.74026,1.9084 0.67634,1.9562 0.54652,1.8264 0.42931,1.7092 0.36909,1.828 0.46678,1.9835 0.57477,2.1556 0.60068,2.4722 0.50675,2.4716 0.46876,2.4715 0.35833,2.4299 0.26136,2.3793 L 0.085029,2.2873 0.19795,2.4837 C 0.26315,2.5971 0.42369,2.7307 0.57788,2.7999 0.82487,2.9106 0.86242,2.9123 1.079,2.8218 1.3408,2.7124 1.4089,2.7281 1.2708,2.8662 1.2201,2.917 1.0726,3.1272 0.94313,3.3334 0.81366,3.5397 0.60417,3.7994 0.47759,3.9105 L 0.24747,4.1127 0.59618,4.0164 C 0.78798,3.9634 1.0348,3.8795 1.1447,3.8301 1.4723,3.6825 1.6584,3.7304 1.4741,3.9147 1.4195,3.9692 1.4627,3.9689 1.6438,3.9134 1.8293,3.8565 1.8924,3.8564 1.9113,3.9133 1.929,3.9663 1.9828,3.9698 2.0992,3.9256 2.3042,3.8476 2.3273,3.8716 2.248,4.0802 2.1692,4.2876 2.1989,4.2889 2.461,4.089 2.5752,4.0019 2.7039,3.9305 2.7469,3.9305 c 0.173,0 0.8005,-0.5178 0.9052,-0.747 C 3.7115,3.0535 3.7328,2.9383 3.6997,2.9267 3.6666,2.915 3.6395,2.8803 3.6395,2.8494 3.6395,2.8185 3.6802,2.8088 3.7298,2.8279 3.7826,2.8481 3.8517,2.8034 3.8963,2.72 3.9595,2.602 3.9548,2.5644 3.8695,2.502 3.7527,2.4166 3.7269,2.3136 3.8397,2.3833 3.8924,2.4159 3.8985,2.3857 3.8613,2.2761 3.8328,2.1922 3.8135,1.9925 3.8184,1.8323 3.8254,1.6035 3.7961,1.5118 3.6821,1.4046 3.5544,1.2847 3.5163,1.2777 3.3668,1.3471 3.2732,1.3906 3.1965,1.4713 3.1962,1.5265 3.1947,1.691 3.1199,1.7179 2.9575,1.6115 2.8733,1.5563 2.7888,1.5266 2.7698,1.5456 2.6935,1.6219 2.5041,1.4456 2.4339,1.233 2.3581,1.0033 2.3959,0.66539 2.4908,0.72406 2.5195,0.7418 2.5971,0.71536 2.6633,0.66526 2.7295,0.61519 2.8478,0.57331 2.9263,0.57219 3.0316,0.57053 3.0687,0.53289 3.0679,0.42752 3.0656,0.099546 2.8138,0.011693 2.2161,0.13049 1.8538,0.20249 1.7981,0.23365 1.7278,0.40335 1.6532,0.58327 1.6422,1.3576 1.7063,1.9016 1.7207,2.0237 1.7159,2.0665 1.6957,1.9967 1.6754,1.927 1.6216,1.8167 1.5761,1.7516 1.5137,1.6624 1.5103,1.596 1.5622,1.4821 1.6125,1.3717 1.6097,1.1812 1.552,0.77618 1.5084,0.47108 1.4682,0.18109 1.4625,0.13174 1.4569,0.082398 1.4095,0.13942 1.3572,0.25855 Z M 1.5155,2.5988 C 1.494,2.6337 1.4478,2.6622 1.4129,2.6622 1.3781,2.6622 1.3672,2.6337 1.3887,2.5988 1.4103,2.5639 1.4564,2.5354 1.4913,2.5354 c 0.0349,0 0.0458,0.0285 0.0242,0.0634 z m 1.5217,0 C 3.0157,2.6337 2.9695,2.6622 2.9346,2.6622 2.8997,2.6622 2.8889,2.6337 2.9104,2.5988 2.932,2.5639 2.9781,2.5354 3.013,2.5354 c 0.0349,0 0.0458,0.0285 0.0242,0.0634 z M 1.7985,3.3007 C 1.7655,3.3623 1.6455,3.4329 1.5319,3.4576 1.4183,3.4822 1.3075,3.5304 1.2857,3.5646 1.26,3.605 1.2323,3.6045 1.2067,3.5629 1.1851,3.5279 1.3017,3.35 1.4657,3.1675 L 1.7641,2.8357 1.8113,3.0121 c 0.0259,0.097 0.0201,0.2268 -0.0129,0.2884 z"
                     style="fill:#000000;fill-opacity:0.99216;fill-rule:nonzero;stroke:none"
                     id="path3891" />
                </g>
              </g>
            </g>
          </g>
        </g>
      </g>
    </g>
  </g>
</svg>
