<svg width="25" height="25" viewBox="0 0 25 25" fill="#000000" xmlns="http://www.w3.org/2000/svg">
  <path d="M3.40331 23.3329C3.67108 22.9284 4.45928 22.3014 5.15489 21.9394C6.77965 21.0937 11.2826 21.0446 14.2267 21.8403C16.9719 22.5823 18.72 22.5385 20.5362 21.6823C22.0989 20.9459 22.7449 21.0186 22.0539 21.8537C20.6501 23.5498 15.5282 24.0552 11.0954 22.9351L8.68017 22.3246L5.98509 23.1963C2.73099 24.249 2.799 24.2453 3.40331 23.3327L3.40331 23.3329ZM0.000111324 20.8049C0.000111163 20.6669 0.617965 20.0444 1.36575 19.4216C4.25796 17.0131 8.60618 16.499 15.7515 17.7215C19.3254 18.3328 19.9205 18.3553 21.5456 17.9403C22.5416 17.6861 23.3567 17.5274 23.3567 17.588C23.3567 17.648 22.6111 18.077 21.6988 18.5403C19.6921 19.5599 17.0414 19.6447 11.1945 18.8762C7.4642 18.3858 7.27633 18.3919 5.27712 19.0672C4.14151 19.4508 2.64452 20.0553 1.95026 20.4103C0.616744 21.0925 -0.00977036 21.2193 0.000111324 20.8049ZM0.327865 16.4331C0.327864 16.0647 1.9902 14.5338 2.89903 14.0654C3.30364 13.8564 4.58015 13.5989 5.73591 13.4919C8.89376 13.2002 9.91865 12.7828 10.8483 11.4119C11.989 9.72799 11.9388 8.21638 10.6997 6.9738C10.1631 6.43574 9.48758 5.99574 9.19807 5.99574C8.90855 5.99574 8.67179 5.84477 8.67179 5.6609C8.67179 5.23574 9.06424 5.23767 10.1927 5.66929C11.3527 6.11122 12.1325 5.53187 11.8571 4.43187C11.7014 3.80994 11.7979 3.65381 12.3364 3.65381C12.7733 3.65381 13.0107 3.8751 13.0107 4.2822C13.0107 5.45961 13.8889 5.83381 15.5842 5.37897C17.1662 4.95446 17.935 5.13897 16.932 5.7022C14.9858 6.79381 13.6836 9.32606 14.1372 11.1377C14.4306 12.3112 16.3041 13.9899 17.5896 14.2319C18.8036 14.4603 22.3357 13.6312 23.607 12.8196C24.262 12.4009 24.3578 12.4028 24.3578 12.8325C24.3578 13.5551 22.3659 15.3074 21.0445 15.7474C19.6676 16.2054 15.5855 15.9596 11.9678 15.2002C8.97933 14.5731 5.26213 14.8886 2.28905 16.0222C0.220616 16.8106 0.327865 16.788 0.327865 16.4338L0.327865 16.4331ZM17.0157 9.67703C17.0157 8.62026 17.1431 8.04348 17.3489 8.17123C17.5329 8.28478 17.6828 8.96219 17.6828 9.67703C17.6828 10.3912 17.5329 11.0693 17.3489 11.1828C17.1431 11.3106 17.0157 10.7338 17.0157 9.67703ZM8.54055 10.1519C8.23494 9.35315 8.29735 7.33444 8.62804 7.33444C8.88603 7.33444 9.3261 9.1538 9.33575 10.2628C9.33575 10.859 8.78117 10.7809 8.54055 10.1519ZM19.0667 10.2377C18.718 9.81639 18.7019 9.22865 18.9902 7.36929C19.189 6.08284 19.3517 4.88156 19.3517 4.70027C19.3517 3.96801 18.2419 3.31769 16.9919 3.31768C16.0763 3.31768 15.6807 3.17317 15.6807 2.83833C15.6807 1.61059 18.1396 2.07382 19.3788 3.53446C19.9436 4.20091 20.6925 6.5093 20.6784 7.54026C20.6784 7.88736 20.4075 8.7551 20.0878 9.46929C19.5763 10.6112 19.4528 10.7041 19.0674 10.2377L19.0667 10.2377ZM6.48305 9.75508C5.38681 8.99121 5.14844 6.00476 6.04491 4.26154C6.57697 3.22606 8.30442 2.23316 9.18648 2.4551C10.4172 2.76477 10.176 3.23058 8.64927 3.48929C6.86327 3.79187 6.37688 4.74993 6.93919 6.85831C7.6083 9.3667 7.44231 10.4235 6.48305 9.75508ZM12.0656 0.918327C12.1389 0.398328 12.4355 0.101554 12.9534 0.0280066C13.6006 -0.0642506 13.7126 0.0486521 13.6212 0.697038C13.5479 1.21704 13.2519 1.51381 12.7334 1.58736C12.0862 1.67962 11.9742 1.56671 12.0656 0.918327Z"/>
</svg>
