<?xml version="1.0" encoding="UTF-8" standalone="no"?>
<!-- Created with Inkscape (http://www.inkscape.org/) -->

<svg
   width="24.357817"
   height="24"
   viewBox="0 0 6.4446723 6.35"
   version="1.1"
   id="svg5869"
   inkscape:version="1.2.1 (9c6d41e4, 2022-07-14)"
   sodipodi:docname="the-bayou.svg"
   xmlns:inkscape="http://www.inkscape.org/namespaces/inkscape"
   xmlns:sodipodi="http://sodipodi.sourceforge.net/DTD/sodipodi-0.dtd"
   xmlns="http://www.w3.org/2000/svg"
   xmlns:svg="http://www.w3.org/2000/svg">
  <sodipodi:namedview
     id="namedview5871"
     pagecolor="#505050"
     bordercolor="#eeeeee"
     borderopacity="1"
     inkscape:showpageshadow="0"
     inkscape:pageopacity="0"
     inkscape:pagecheckerboard="0"
     inkscape:deskcolor="#505050"
     inkscape:document-units="mm"
     showgrid="false"
     inkscape:zoom="0.7046647"
     inkscape:cx="68.117503"
     inkscape:cy="273.17957"
     inkscape:window-width="1390"
     inkscape:window-height="941"
     inkscape:window-x="0"
     inkscape:window-y="25"
     inkscape:window-maximized="0"
     inkscape:current-layer="layer1" />
  <defs
     id="defs5866">
    <clipPath
       clipPathUnits="userSpaceOnUse"
       id="clipPath3899">
      <path
         d="m 454.55,365.23 h 24 v 23.25 h -24 z"
         clip-rule="evenodd"
         id="path3897" />
    </clipPath>
    <clipPath
       clipPathUnits="userSpaceOnUse"
       id="clipPath3909">
      <path
         d="M 0,0 H 3.9746 V 3.8398 H 0 Z"
         id="path3907" />
    </clipPath>
    <clipPath
       clipPathUnits="userSpaceOnUse"
       id="clipPath3917">
      <path
         d="m 0.085029,0.034637 h 3.84 v 3.72 h -3.84 z"
         clip-rule="evenodd"
         id="path3915" />
    </clipPath>
  </defs>
  <g
     inkscape:label="Layer 1"
     inkscape:groupmode="layer"
     id="layer1"
     transform="translate(-87.266916,-76.425505)">
    <g
       id="g3893"
       transform="matrix(0.28191027,0,0,-0.28191027,-41.020135,185.79671)">
      <g
         id="g3895"
         clip-path="url(#clipPath3899)">
        <g
           id="g3901"
           transform="matrix(0.33333,-3.77e-7,-3.77e-7,0.32292,454.55,365.23)">
          <g
             id="g3903"
             transform="scale(18.115,18.751)">
            <g
               id="g3905"
               clip-path="url(#clipPath3909)">
              <g
                 id="g3911">
                <g
                   id="g3913"
                   clip-path="url(#clipPath3917)">
                  <path
                     d="M 0.61401,0.13804 C 0.65563,0.20073 0.77814,0.29792 0.88626,0.35403 1.1388,0.48511 1.8387,0.49273 2.2963,0.36939 2.723,0.25438 2.9947,0.26117 3.277,0.39388 3.5199,0.50803 3.6203,0.49675 3.5129,0.36731 3.2947,0.10442 2.4986,0.026081 1.8096,0.1997 L 1.4342,0.29432 1.0153,0.15921 C 0.50951,-0.0039549 0.52008,-0.003391 0.61401,0.13807 Z M 0.085046,0.52987 c 0,0.0214 0.096034,0.11788 0.212264,0.21441 C 0.74685,1.1176 1.4227,1.1973 2.5333,1.0078 3.0888,0.91305 3.1813,0.90957 3.4339,0.9739 3.5887,1.0133 3.7154,1.0379 3.7154,1.0285 3.7154,1.0192 3.5995,0.9527 3.4577,0.88089 3.1458,0.72285 2.7338,0.70971 1.825,0.82883 1.2452,0.90484 1.216,0.90389 0.90526,0.79922 0.72875,0.73976 0.49607,0.64607 0.38816,0.59104 0.18089,0.4853 0.08351,0.46564 0.085046,0.52987 Z M 0.13599,1.2075 c 0,0.0571 0.25838,0.2944 0.39964,0.367 0.06289,0.0324 0.2613,0.0723 0.44094,0.0889 C 1.4674,1.7086 1.6267,1.7733 1.7712,1.9858 1.9485,2.2468 1.9407,2.4811 1.7481,2.6737 1.6647,2.7571 1.5597,2.8253 1.5147,2.8253 c -0.045,0 -0.0818,0.0234 -0.0818,0.0519 0,0.0659 0.061,0.0656 0.2364,-0.0013 0.1803,-0.0685 0.3015,0.0213 0.2587,0.1918 -0.0242,0.0964 -0.0092,0.1206 0.0745,0.1206 0.0679,0 0.1048,-0.0343 0.1048,-0.0974 0,-0.1825 0.1365,-0.2405 0.4,-0.17 C 2.7532,2.9867 2.8727,2.9581 2.7168,2.8708 2.4143,2.7016 2.2119,2.3091 2.2824,2.0283 2.328,1.8464 2.6192,1.5862 2.819,1.5487 3.0077,1.5133 3.5567,1.6418 3.7543,1.7676 3.8561,1.8325 3.871,1.8322 3.871,1.7656 3.871,1.6536 3.5614,1.382 3.356,1.3138 3.142,1.2428 2.5075,1.2809 1.9452,1.3986 1.4807,1.4958 0.90293,1.4469 0.44082,1.2712 0.11932,1.149 0.13599,1.1525 0.13599,1.2074 Z M 2.7298,2.2547 c 0,0.1638 0.0198,0.2532 0.0518,0.2334 C 2.8102,2.4705 2.8335,2.3655 2.8335,2.2547 2.8335,2.144 2.8102,2.0389 2.7816,2.0213 2.7496,2.0015 2.7298,2.0909 2.7298,2.2547 Z M 1.4125,2.1811 C 1.365,2.3049 1.3747,2.6178 1.4261,2.6178 c 0.0401,0 0.1085,-0.282 0.11,-0.4539 0,-0.0924 -0.0862,-0.0803 -0.1236,0.0172 z M 3.0486,2.1678 C 2.9944,2.2331 2.9919,2.3242 3.0367,2.6124 3.0676,2.8118 3.0929,2.998 3.0929,3.0261 c 0,0.1135 -0.1725,0.2143 -0.3668,0.2143 -0.1423,0 -0.2038,0.0224 -0.2038,0.0743 0,0.1903 0.3822,0.1185 0.5748,-0.1079 C 3.1849,3.1035 3.3013,2.7457 3.2991,2.5859 3.2991,2.5321 3.257,2.3976 3.2073,2.2869 3.1278,2.1099 3.1086,2.0955 3.0487,2.1678 Z M 1.0927,2.2426 C 0.92231,2.361 0.88526,2.8239 1.0246,3.0941 1.1073,3.2546 1.3758,3.4085 1.5129,3.3741 1.7042,3.3261 1.6667,3.2539 1.4294,3.2138 1.1518,3.1669 1.0762,3.0184 1.1636,2.6916 1.2676,2.3028 1.2418,2.139 1.0927,2.2426 Z M 1.9604,3.6123 C 1.9718,3.6929 2.0179,3.7389 2.0984,3.7503 2.199,3.7646 2.2164,3.7471 2.2022,3.6466 2.1908,3.566 2.1448,3.52 2.0642,3.5086 1.9636,3.4943 1.9462,3.5118 1.9604,3.6123 Z"
                     style="fill:#000000;fill-opacity:0.99216;fill-rule:nonzero;stroke:none"
                     id="path3919" />
                </g>
              </g>
            </g>
          </g>
        </g>
      </g>
    </g>
  </g>
</svg>
