<?xml version="1.0" encoding="UTF-8" standalone="no"?>
<!-- Created with Inkscape (http://www.inkscape.org/) -->

<svg
   width="23.516211"
   height="24"
   viewBox="0 0 6.2219975 6.35"
   version="1.1"
   id="svg53848"
   inkscape:version="1.2.1 (9c6d41e4, 2022-07-14)"
   sodipodi:docname="beyond-the-gates-of-sleep.svg"
   xmlns:inkscape="http://www.inkscape.org/namespaces/inkscape"
   xmlns:sodipodi="http://sodipodi.sourceforge.net/DTD/sodipodi-0.dtd"
   xmlns="http://www.w3.org/2000/svg"
   xmlns:svg="http://www.w3.org/2000/svg">
  <sodipodi:namedview
     id="namedview53850"
     pagecolor="#505050"
     bordercolor="#eeeeee"
     borderopacity="1"
     inkscape:showpageshadow="0"
     inkscape:pageopacity="0"
     inkscape:pagecheckerboard="0"
     inkscape:deskcolor="#505050"
     inkscape:document-units="mm"
     showgrid="false"
     inkscape:zoom="0.7046647"
     inkscape:cx="-49.669013"
     inkscape:cy="304.40009"
     inkscape:window-width="1390"
     inkscape:window-height="941"
     inkscape:window-x="0"
     inkscape:window-y="25"
     inkscape:window-maximized="0"
     inkscape:current-layer="layer1" />
  <defs
     id="defs53845">
    <clipPath
       clipPathUnits="userSpaceOnUse"
       id="clipPath52211">
      <path
         d="m 76.75,325.475 h 24.7 v 24.699 h -24.7 z"
         id="path52209" />
    </clipPath>
  </defs>
  <g
     inkscape:label="Layer 1"
     inkscape:groupmode="layer"
     id="layer1"
     transform="translate(-118.38733,-68.366633)">
    <g
       id="g52205"
       transform="matrix(0.2731969,0,0,-0.2731969,97.252713,163.84602)">
      <g
         id="g52207"
         clip-path="url(#clipPath52211)">
        <g
           id="g52213"
           transform="translate(84.5061,347.921)">
          <path
             d="M 0,0 C 0.071,0 0.14,0.005 0.211,-0.004 0.406,-0.03 0.596,-0.079 0.792,-0.105 0.921,-0.122 1.048,-0.133 1.178,-0.146 1.356,-0.165 1.523,-0.196 1.695,-0.237 1.87,-0.278 2.046,-0.304 2.224,-0.33 2.698,-0.398 3.177,-0.442 3.652,-0.507 3.961,-0.549 4.271,-0.58 4.579,-0.622 4.795,-0.651 5.012,-0.663 5.228,-0.685 5.354,-0.697 5.48,-0.709 5.605,-0.726 5.613,-0.727 5.735,-0.735 5.755,-0.743 5.783,-0.754 5.801,-0.781 5.807,-0.807 5.817,-0.845 5.798,-0.882 5.791,-0.918 5.781,-0.967 5.787,-1.02 5.787,-1.069 v -0.233 -0.08 c 0,-0.05 -0.015,-0.116 -0.001,-0.164 C 5.793,-1.573 5.817,-1.59 5.796,-1.614 5.778,-1.635 5.709,-1.65 5.681,-1.666 5.605,-1.71 5.511,-1.731 5.428,-1.766 5.371,-1.791 5.309,-1.792 5.25,-1.813 5.173,-1.84 5.101,-1.881 5.035,-1.922 4.898,-2.008 4.752,-2.083 4.608,-2.159 4.559,-2.184 4.507,-2.21 4.46,-2.239 4.396,-2.279 4.354,-2.329 4.302,-2.379 4.259,-2.419 4.213,-2.454 4.169,-2.493 4.134,-2.523 4.106,-2.563 4.064,-2.586 4.024,-2.608 3.974,-2.632 3.93,-2.643 3.902,-2.65 3.875,-2.654 3.847,-2.666 3.809,-2.683 3.793,-2.695 3.749,-2.703 3.71,-2.711 3.682,-2.722 3.647,-2.738 3.608,-2.755 3.571,-2.765 3.536,-2.786 3.502,-2.806 3.448,-2.867 3.401,-2.863 c -10e-4,0 -0.016,0.017 -0.02,0.019 -0.049,0.021 -0.089,0.024 -0.144,0.031 -0.27,0.032 -0.515,0.149 -0.783,0.19 -0.124,0.018 -0.252,0.025 -0.376,0.045 -0.139,0.024 -0.273,0.064 -0.41,0.096 -0.078,0.018 -0.153,0.039 -0.229,0.062 -0.134,0.039 -0.267,0.061 -0.405,0.085 -0.319,0.055 -0.625,0.159 -0.941,0.225 -0.162,0.035 -0.325,0.063 -0.487,0.101 -0.105,0.026 -0.206,0.048 -0.314,0.067 -0.309,0.052 -0.624,0.071 -0.932,0.127 -0.084,0.016 -0.168,0.031 -0.253,0.044 -0.031,0.005 -0.097,0.005 -0.119,0.029 -0.007,0.008 0,0.019 -0.002,0.026 -0.02,0.059 -0.015,0.138 -0.019,0.199 -0.011,0.203 -10e-4,0.407 -10e-4,0.61 0,0.094 -0.022,0.21 0.015,0.3 0.021,0.051 0.032,0.041 0.097,0.05 0.107,0.015 0.207,0.074 0.305,0.109 0.179,0.065 0.349,0.147 0.531,0.207 0.181,0.061 0.345,0.148 0.54,0.177 0.1,0.015 0.207,0.033 0.546,0.064"
             style="fill:#100f0d;fill-opacity:1;fill-rule:nonzero;stroke:none"
             id="path52215" />
        </g>
        <g
           id="g52217"
           transform="translate(80.696,345.778)">
          <path
             d="M 0,0 C 0.361,-0.029 0.718,-0.085 1.079,-0.116 1.722,-0.171 2.362,-0.249 2.984,-0.399 3.17,-0.444 3.355,-0.491 3.543,-0.529 3.674,-0.556 3.801,-0.585 3.93,-0.619 4.027,-0.644 4.123,-0.673 4.223,-0.686 4.492,-0.72 4.771,-0.735 5.036,-0.784 5.114,-0.799 5.19,-0.808 5.266,-0.822 5.3,-0.828 5.335,-0.82 5.37,-0.827 5.385,-0.83 5.396,-0.838 5.412,-0.84 5.434,-0.844 5.479,-0.828 5.49,-0.849 5.498,-0.862 5.473,-0.897 5.47,-0.912 5.453,-1.002 5.471,-1.108 5.471,-1.198 5.471,-1.294 5.449,-1.407 5.496,-1.495 5.522,-1.543 5.523,-1.593 5.471,-1.63 5.445,-1.648 5.423,-1.662 5.395,-1.677 5.266,-1.747 5.162,-1.854 5.054,-1.944 5.013,-1.978 4.981,-2.017 4.936,-2.048 4.849,-2.109 4.766,-2.168 4.686,-2.235 4.511,-2.382 4.321,-2.522 4.127,-2.651 4.067,-2.691 4.009,-2.733 3.95,-2.774 3.901,-2.808 3.843,-2.866 3.785,-2.888 3.725,-2.911 3.677,-2.875 3.62,-2.854 3.481,-2.804 3.343,-2.761 3.194,-2.735 3.019,-2.706 2.855,-2.684 2.686,-2.634 2.496,-2.579 2.311,-2.551 2.112,-2.528 1.864,-2.5 1.631,-2.427 1.385,-2.396 1.251,-2.379 1.12,-2.387 0.986,-2.388 0.793,-2.39 0.618,-2.37 0.428,-2.342 c -0.174,0.025 -0.346,0.062 -0.522,0.081 -0.069,0.007 -0.14,0.009 -0.208,0.022 -0.035,0.006 -0.064,10e-4 -0.076,0.032 -0.013,0.036 0.006,0.097 0.004,0.135 -0.004,0.079 -0.018,0.156 -0.02,0.235 -0.002,0.068 -0.017,0.13 -0.04,0.195 -0.022,0.06 -0.046,0.12 -0.065,0.18 -0.008,0.028 -0.022,0.054 -0.03,0.081 -0.006,0.018 0.003,0.048 -0.021,0.058 0.056,-0.068 0.08,-0.16 0.102,-0.242 0.026,-0.1 0.049,-0.211 0.054,-0.313 0.003,-0.077 0.019,-0.148 0.019,-0.226 0,-0.048 0.023,-0.142 -0.003,-0.179 -0.064,0.024 -0.122,0.041 -0.19,0.055 -0.141,0.028 -0.265,0.08 -0.399,0.121 -0.163,0.05 -0.334,0.083 -0.497,0.131 -0.067,0.019 -0.138,0.021 -0.205,0.035 -0.018,0.003 -0.031,0.013 -0.049,0.015 -0.012,0.002 -0.046,-0.008 -0.056,0.002 -0.025,0.023 0.023,0.102 0.028,0.123 0.027,0.09 0.049,0.184 0.063,0.277 0.014,0.088 -0.004,0.169 -0.016,0.256 -0.006,0.049 -0.017,0.098 -0.025,0.147 -0.008,0.052 -0.004,0.115 -0.019,0.166 -0.007,0.025 -0.033,0.058 -0.009,0.083 0.021,0.022 0.083,0.014 0.11,0.018 0.068,0.011 0.136,0.037 0.197,0.061 0.084,0.034 0.167,0.069 0.247,0.109 0.075,0.037 0.136,0.085 0.204,0.129 0.084,0.056 0.172,0.071 0.262,0.115 0.049,0.023 0.092,0.058 0.138,0.085 C -0.393,-0.234 -0.17,-0.133 0,0"
             style="fill:#100f0d;fill-opacity:1;fill-rule:nonzero;stroke:none"
             id="path52219" />
        </g>
        <g
           id="g52221"
           transform="translate(83.6204,341.314)">
          <path
             d="m 0,0 h -0.001 c 0.003,0.03 0.006,0.059 0.008,0.089 0,0.007 0,0.015 0,0.022 0,0.075 -0.014,0.157 0,0.228 C 0.025,0.333 0.037,0.315 0.053,0.308 0.046,0.395 0.013,0.482 0,0.569 -0.014,0.663 -0.038,0.756 -0.046,0.85 -0.051,0.902 -0.036,0.958 -0.044,1.009 -0.052,1.056 -0.073,1.1 -0.082,1.146 l 0.017,0.003 c -0.006,0 -0.012,-0.001 -0.017,-0.001 -0.001,0.005 -0.004,0.01 -0.004,0.015 C -0.174,1.181 -0.312,1.169 -0.397,1.166 -0.502,1.163 -0.611,1.151 -0.715,1.137 -0.728,1.135 -0.742,1.133 -0.755,1.132 -0.92,1.126 -1.082,1.106 -1.247,1.1 -1.553,1.09 -1.866,1.122 -2.17,1.09 -2.469,1.059 -2.767,1.067 -3.069,1.067 h -1.35 c -0.236,0 -0.489,-0.019 -0.721,0.02 -0.064,0.01 -0.13,0.024 -0.194,0.03 -0.022,0.002 -0.037,-10e-4 -0.059,0.003 -0.015,0.002 -0.022,0.011 -0.043,0.013 -0.02,0.002 -0.037,0 -0.056,0.003 -0.024,0.003 -0.007,0.025 -0.044,0.01 -0.05,-0.019 -0.078,-0.11 -0.1,-0.144 C -5.725,0.865 -5.812,0.726 -5.897,0.588 -5.918,0.553 -5.949,0.523 -5.971,0.491 -5.994,0.456 -6.004,0.416 -6.027,0.38 -6.082,0.295 -6.151,0.219 -6.196,0.13 -6.212,0.099 -6.235,0.067 -6.26,0.041 -6.247,0.03 -6.22,0.027 -6.192,0.026 c 0.008,0.019 0.021,0.038 0.044,0.053 l 0.045,0.008 C -6.106,0.084 -6.11,0.08 -6.114,0.078 -6.137,0.062 -6.167,0.055 -6.182,0.032 -6.167,0.028 -6.147,0.028 -6.128,0.028 -6.148,0.027 -6.17,0.026 -6.192,0.026 c -0.017,-0.042 -0.007,-0.092 0.003,-0.137 0.009,-0.044 0.006,-0.084 0.021,-0.129 0.027,-0.079 0.055,-0.157 0.089,-0.234 0.018,-0.041 0.046,-0.08 0.062,-0.121 0.006,-0.016 0.005,-0.037 0.012,-0.053 0.023,-0.044 0.046,-0.028 0.094,-0.019 0.151,0.03 0.311,0.029 0.465,0.041 0.167,0.013 0.331,0.044 0.498,0.058 0.171,0.014 0.343,0.036 0.513,0.053 0.244,0.025 0.476,0.034 0.721,0.034 0.447,-0.001 0.895,0 1.343,0 0.392,0 0.785,0 1.178,0 0.176,0 0.352,0.003 0.527,0 0.152,-0.003 0.293,-0.026 0.443,-0.047 0.087,-0.012 0.186,-0.033 0.274,-0.017 0.009,0.021 0.005,0.05 0.001,0.071 -0.009,0.045 -0.014,0.064 -0.004,0.111 0.017,0.08 0.027,0.164 0.041,0.245 0.006,0.038 0.008,0.072 0.015,0.108 -0.01,0.003 -0.02,0.006 -0.031,0.007 C 0.047,-0.002 0.025,-0.005 0,0"
             style="fill:#100f0d;fill-opacity:1;fill-rule:nonzero;stroke:none"
             id="path52223" />
        </g>
        <g
           id="g52225"
           transform="translate(84.0789,341.228)">
          <path
             d="M 0,0 C 0.001,-0.025 0,-0.052 -0.007,-0.072 -0.009,-0.08 -0.01,-0.088 -0.011,-0.096 0.004,-0.1 0.02,-0.105 0.034,-0.104 0.046,-0.076 0.026,-0.038 0,0"
             style="fill:#100f0d;fill-opacity:1;fill-rule:nonzero;stroke:none"
             id="path52227" />
        </g>
        <g
           id="g52229"
           transform="translate(85.2083,340.297)">
          <path
             d="M 0,0 C -0.041,0.003 -0.083,-0.006 -0.124,-0.01 -0.31,-0.031 -0.495,-0.056 -0.68,-0.082 -1.148,-0.15 -1.623,-0.206 -2.096,-0.251 -2.367,-0.277 -2.637,-0.311 -2.909,-0.331 -3.08,-0.343 -3.25,-0.351 -3.42,-0.37 c -0.239,-0.027 -0.479,-0.04 -0.718,-0.066 -0.21,-0.023 -0.415,-0.045 -0.623,-0.072 -0.158,-0.021 -0.312,-0.04 -0.47,-0.054 -0.004,-0.041 -0.019,-0.081 -0.023,-0.122 -0.004,-0.048 -0.006,-0.107 -0.019,-0.153 -0.01,-0.037 -0.02,-0.062 -0.02,-0.102 0.001,-0.027 0,-0.054 0,-0.081 0,-0.058 0.01,-0.124 -0.004,-0.181 -0.009,-0.036 -0.031,-0.074 -0.012,-0.112 0.024,-0.049 0.103,-0.073 0.152,-0.1 0.104,-0.059 0.196,-0.129 0.301,-0.186 0.062,-0.034 0.128,-0.066 0.184,-0.106 0.053,-0.038 0.096,-0.084 0.151,-0.121 0.082,-0.055 0.159,-0.098 0.236,-0.159 0.061,-0.048 0.135,-0.093 0.205,-0.13 0.05,-0.026 0.091,-0.045 0.138,-0.078 0.037,-0.026 0.102,-0.048 0.134,-0.08 0.006,-0.006 0.013,-0.026 0.02,-0.029 0.032,-0.018 0.099,0.009 0.13,0.014 0.11,0.014 0.218,0.011 0.328,0.017 0.432,0.025 0.861,0.102 1.291,0.147 0.119,0.012 0.239,0.021 0.353,0.051 0.098,0.025 0.185,0.052 0.286,0.066 0.089,0.012 0.178,0.019 0.266,0.031 0.143,0.019 0.284,0.05 0.429,0.065 0.283,0.03 0.565,0.075 0.846,0.116 0.139,0.021 0.284,0.02 0.419,0.053 0.07,0.017 0.131,0.034 0.203,0.044 0.065,0.009 0.15,0.002 0.213,0.021 0.035,0.009 0.073,0.021 0.112,0.031 0.041,0.009 0.046,0.023 0.074,0.044 0.054,0.039 0.126,0.078 0.184,0.114 0.004,0.002 0.013,0.016 0.02,0.019 0.026,0.011 0.067,0.012 0.096,0.02 0.044,0.013 0.083,0.007 0.1,0.043 0.012,0.025 -0.002,0.115 -0.002,0.135 -0.001,0.053 -0.001,0.105 0.004,0.157 0.007,0.074 0.038,0.148 0.036,0.221 -0.002,0.05 0.025,0.088 0.035,0.137 0.005,0.027 0.004,0.053 0.004,0.081 C 1.64,-0.629 1.633,-0.623 1.577,-0.613 1.552,-0.609 1.534,-0.611 1.51,-0.61 1.417,-0.606 1.332,-0.584 1.241,-0.568 1.113,-0.546 0.986,-0.509 0.868,-0.461 0.756,-0.416 0.65,-0.36 0.538,-0.316 0.501,-0.301 0.461,-0.292 0.424,-0.277 0.368,-0.253 0.32,-0.218 0.262,-0.196 0.21,-0.177 0.153,-0.167 0.101,-0.148 0.064,-0.135 0.036,-0.113 0,-0.098 -0.04,-0.081 -0.106,-0.077 0,0"
             style="fill:#100f0d;fill-opacity:1;fill-rule:nonzero;stroke:none"
             id="path52231" />
        </g>
        <g
           id="g52233"
           transform="translate(88.5186,338.34)">
          <path
             d="m 0,0 c 0.032,0.001 0.047,-0.006 0.076,-0.013 0.07,-0.016 0.153,-0.007 0.226,-0.015 0.161,-0.02 0.328,-0.053 0.491,-0.055 0.067,-0.001 0.126,-0.003 0.192,-0.012 0.027,-0.004 0.055,0 0.082,-0.007 0.038,-0.01 0.032,-0.02 0.039,-0.046 0.01,-0.039 0.016,-0.083 0.022,-0.124 0.017,-0.113 0.018,-0.223 0.018,-0.337 0,-0.054 0.007,-0.112 -10e-4,-0.166 C 1.136,-0.829 1.113,-0.882 1.102,-0.938 1.078,-1.058 1.034,-1.183 0.99,-1.299 0.962,-1.371 0.922,-1.434 0.902,-1.509 0.88,-1.594 0.874,-1.68 0.854,-1.766 0.826,-1.882 0.806,-2.003 0.79,-2.121 0.771,-2.267 0.694,-2.401 0.671,-2.544 0.665,-2.585 0.659,-2.628 0.647,-2.667 0.632,-2.718 0.632,-2.764 0.632,-2.818 c 0,-0.059 0,-0.119 0,-0.179 0,-0.046 -0.01,-0.07 -0.042,-0.105 C 0.573,-3.121 0.541,-3.158 0.514,-3.17 0.49,-3.181 0.456,-3.179 0.427,-3.185 0.318,-3.208 0.205,-3.213 0.093,-3.227 c -0.201,-0.024 -0.4,-0.035 -0.603,-0.045 -0.153,-0.008 -0.308,-0.02 -0.462,-0.022 -0.074,0 -0.14,0.01 -0.213,0.021 -0.06,0.009 -0.119,0.021 -0.178,0.03 -0.118,0.018 -0.239,0.013 -0.356,0.032 -0.317,0.052 -0.643,0.033 -0.965,0.033 h -0.199 c -0.039,0 -0.101,-0.01 -0.137,0.003 -0.009,0.04 -0.002,0.086 -0.002,0.127 v 0.277 c 0,0.088 -0.001,0.177 0,0.266 10e-4,0.047 -0.031,0.077 0,0.118 0.031,0.041 0.093,0.048 0.126,0.091 0.016,0.02 0.016,0.037 0.035,0.059 0.031,0.036 0.065,0.069 0.091,0.109 0.071,0.105 0.148,0.209 0.222,0.313 0.096,0.133 0.189,0.272 0.291,0.403 0.11,0.141 0.201,0.294 0.324,0.427 0.133,0.144 0.27,0.283 0.389,0.434 0.078,0.098 0.192,0.176 0.263,0.277 0.046,0.066 0.094,0.134 0.155,0.192 0.084,0.081 0.166,0.148 0.302,0.148 0.164,-0.001 0.325,0 0.489,-0.013 C -0.191,0.041 -0.045,0.062 0.097,0.03 0.097,0.025 0.098,0.021 0,0"
             style="fill:#100f0d;fill-opacity:1;fill-rule:nonzero;stroke:none"
             id="path52235" />
        </g>
        <g
           id="g52237"
           transform="translate(90.5529,337.023)">
          <path
             d="M 0,0 C 0.005,-0.001 0.011,-0.001 0.016,-0.002 0.028,-0.026 0.03,-0.073 0.033,-0.095 0.045,-0.167 0.066,-0.238 0.075,-0.31 0.083,-0.366 0.1,-0.466 0.075,-0.523 0.062,-0.553 0.039,-0.552 0.064,-0.589 0.068,-0.595 0.078,-0.6 0.082,-0.606 0.124,-0.661 0.149,-0.716 0.182,-0.775 0.277,-0.943 0.463,-1.053 0.598,-1.194 0.682,-1.282 0.789,-1.348 0.865,-1.443 0.928,-1.521 0.978,-1.604 1.046,-1.679 1.138,-1.783 1.231,-1.884 1.316,-1.992 1.385,-2.079 1.474,-2.131 1.56,-2.205 1.622,-2.258 1.662,-2.325 1.717,-2.383 1.787,-2.456 1.86,-2.518 1.918,-2.6 1.94,-2.632 1.949,-2.686 1.993,-2.701 2.01,-2.707 2.041,-2.699 2.06,-2.699 2.097,-2.7 2.125,-2.708 2.161,-2.716 c 0.07,-0.016 0.133,-0.034 0.204,-0.033 0.264,10e-4 0.528,0 0.792,0 h 0.796 c 0.077,0 0.155,0 0.232,-10e-4 0.039,0 0.084,-0.004 0.121,0.008 0.055,0.018 0.088,0.043 0.151,0.054 0.069,0.012 0.225,0.031 0.262,0.096 0.025,0.043 -0.007,0.126 -0.014,0.168 -0.021,0.112 0,0.222 -0.03,0.335 -0.02,0.076 -0.014,0.152 -0.014,0.229 0,0.035 0.011,0.081 0.001,0.115 -0.018,0.061 -0.126,0.099 -0.181,0.129 -0.083,0.046 -0.159,0.098 -0.24,0.147 -0.053,0.027 -0.105,0.056 -0.154,0.088 -0.048,0.04 -0.094,0.081 -0.138,0.124 -0.105,0.085 -0.24,0.148 -0.352,0.229 -0.056,0.04 -0.108,0.084 -0.165,0.123 -0.054,0.037 -0.117,0.064 -0.173,0.097 -0.062,0.037 -0.117,0.08 -0.178,0.117 C 3.023,-0.656 2.963,-0.626 2.912,-0.584 2.823,-0.513 2.721,-0.46 2.631,-0.391 2.51,-0.299 2.39,-0.196 2.255,-0.118 2.206,-0.089 2.16,-0.058 2.112,-0.028 2.079,-0.007 2.033,0.034 1.994,0.047 1.954,0.061 1.888,0.05 1.847,0.046 1.671,0.03 1.498,0.002 1.322,-0.013 1.251,-0.019 1.182,-0.013 1.11,-0.015 1.024,-0.018 0.933,-0.029 0.847,-0.037 0.716,-0.049 0.586,-0.049 0.454,-0.049 0.263,-0.049 0.072,-0.049 0,0"
             style="fill:#100f0d;fill-opacity:1;fill-rule:nonzero;stroke:none"
             id="path52239" />
        </g>
        <g
           id="g52241"
           transform="translate(94.7823,336.32)">
          <path
             d="m 0,0 c 0.002,-0.139 -0.031,-0.283 -0.05,-0.421 -0.006,-0.037 -0.031,-0.089 0.009,-0.111 0.017,-0.009 0.047,-0.016 0.064,-0.023 0.034,-0.013 0.06,-0.026 0.091,-0.044 0.105,-0.06 0.221,-0.094 0.337,-0.137 0.117,-0.043 0.236,-0.078 0.353,-0.12 0.182,-0.067 0.37,-0.111 0.56,-0.16 0.344,-0.089 0.689,-0.157 1.023,-0.269 0.169,-0.057 0.343,-0.094 0.522,-0.119 0.147,-0.021 0.292,-0.049 0.437,-0.077 0.136,-0.026 0.291,-0.055 0.403,-0.127 0.011,0.059 0.073,0.121 0.113,0.169 0.089,0.109 0.215,0.188 0.364,0.231 0.104,0.03 0.206,0.049 0.312,0.071 0.094,0.02 0.181,0.053 0.27,0.085 0.113,0.041 0.229,0.074 0.342,0.114 0.046,0.016 0.139,0.033 0.162,0.072 0.014,0.024 -0.002,0.062 0.005,0.088 0.012,0.044 0.018,0.087 0.025,0.133 0.013,0.083 0.01,0.166 0.01,0.25 10e-4,0.067 0.005,0.134 -0.019,0.199 C 5.314,-0.142 5.301,-0.086 5.28,-0.033 5.271,-0.009 5.259,0.033 5.236,0.051 5.206,0.074 5.156,0.065 5.119,0.067 5.022,0.073 4.923,0.082 4.827,0.092 4.576,0.118 4.328,0.161 4.077,0.188 3.671,0.232 3.269,0.298 2.871,0.379 2.713,0.411 2.561,0.437 2.401,0.461 2.325,0.473 2.262,0.494 2.183,0.494 2.086,0.494 1.994,0.524 1.898,0.528 1.806,0.531 1.72,0.516 1.633,0.494 1.597,0.485 1.558,0.469 1.52,0.464 1.486,0.459 1.45,0.463 1.417,0.458 1.333,0.445 1.252,0.411 1.169,0.394 1.045,0.369 0.939,0.344 0.83,0.287 0.72,0.23 0.623,0.156 0.51,0.103 0.447,0.073 0.374,0.053 0.306,0.034 0.261,0.022 0.196,0.009 0,0"
             style="fill:#100f0d;fill-opacity:1;fill-rule:nonzero;stroke:none"
             id="path52243" />
        </g>
        <g
           id="g52245"
           transform="translate(85.5419,328.561)">
          <path
             d="M 0,0 C 0.001,-0.017 0,-0.035 -0.005,-0.049 -0.006,-0.055 -0.007,-0.06 -0.008,-0.065 0.003,-0.068 0.014,-0.072 0.023,-0.071 0.032,-0.052 0.017,-0.026 0,0"
             style="fill:#100f0d;fill-opacity:1;fill-rule:nonzero;stroke:none"
             id="path52247" />
        </g>
        <g
           id="g52249"
           transform="translate(94.8116,348.661)">
          <path
             d="M 0,0 C 0.008,0.039 0.016,0.101 0.008,0.141 -0.008,0.212 -0.104,0.209 -0.167,0.22 -0.451,0.269 -0.749,0.289 -1.035,0.34 -1.222,0.374 -1.41,0.398 -1.599,0.418 -1.894,0.45 -2.183,0.516 -2.478,0.548 -2.681,0.57 -2.876,0.622 -3.077,0.649 -3.261,0.674 -3.434,0.703 -3.615,0.741 -3.742,0.768 -3.873,0.773 -4.001,0.798 -4.065,0.811 -4.125,0.827 -4.19,0.828 -4.392,0.833 -4.599,0.769 -4.798,0.74 -4.957,0.716 -5.126,0.709 -5.284,0.677 -5.376,0.659 -5.46,0.617 -5.551,0.596 -5.745,0.552 -5.947,0.542 -6.143,0.505 -6.313,0.474 -6.483,0.449 -6.653,0.419 -6.736,0.404 -6.837,0.4 -6.911,0.37 -6.952,0.354 -7.036,0.314 -7.054,0.268 -7.066,0.237 -7.039,0.206 -7.033,0.177 -7.02,0.112 -7.026,0.046 -7.027,-0.02 c 0,-0.099 0.013,-0.193 -0.025,-0.284 -0.019,-0.048 -0.024,-0.108 -0.05,-0.152 0.042,-0.01 0.089,-0.002 0.134,-0.01 0.094,-0.015 0.188,-0.031 0.281,-0.052 0.197,-0.044 0.399,-0.068 0.597,-0.113 0.165,-0.037 0.32,-0.096 0.485,-0.12 0.069,-0.021 0.139,-0.036 0.21,-0.047 0.055,-0.002 0.11,-0.006 0.164,-0.012 0.045,-0.007 0.09,-0.012 0.135,-0.018 0.111,-0.024 0.221,-0.049 0.329,-0.082 0.382,-0.117 0.779,-0.153 1.175,-0.194 0.071,-0.02 0.135,-0.052 0.204,-0.077 0.128,-0.047 0.262,-0.066 0.394,-0.099 0.163,-0.04 0.345,-0.084 0.513,-0.095 l -0.609,0.218 c 0.13,-0.011 0.259,-0.018 0.393,-0.018 0.073,0 0.149,0.007 0.221,-0.005 0.074,-0.014 0.135,-0.046 0.21,-0.051 0.062,-0.005 0.12,-0.009 0.181,-0.022 0.064,-0.013 0.143,-0.054 0.206,-0.059 0.076,-0.007 0.096,0.042 0.162,0.082 0.058,0.034 0.123,0.05 0.183,0.082 0.084,0.046 0.182,0.07 0.26,0.116 0.093,0.055 0.206,0.079 0.31,0.114 0.213,0.073 0.436,0.155 0.66,0.196 0.061,0.011 0.108,0.012 0.167,0.034 0.007,0.003 0.043,-0.007 0.053,0.003 0.017,0.02 0.004,0.085 0.004,0.109 -0.001,0.093 -0.007,0.189 -0.002,0.281 C -0.077,-0.192 -0.022,-0.099 0,0"
             style="fill:#100f0d;fill-opacity:1;fill-rule:nonzero;stroke:none"
             id="path52251" />
        </g>
        <g
           id="g52253"
           transform="translate(88.9862,334.822)">
          <path
             d="m 0,0 c 0.049,0.008 0.084,0.029 0.137,0.03 0.06,0 0.11,0.011 0.17,0.021 0.169,0.028 0.352,0.006 0.524,0.006 h 0.401 0.51 c 0.071,0 0.222,0.029 0.283,-0.003 0.044,-0.023 0.045,-0.096 0.066,-0.138 0.04,-0.078 0.111,-0.137 0.166,-0.205 0.09,-0.114 0.17,-0.215 0.277,-0.315 C 2.59,-0.657 2.649,-0.705 2.705,-0.76 2.782,-0.836 2.874,-0.972 2.889,-1.087 2.9,-1.175 2.922,-1.242 2.917,-1.34 2.913,-1.413 2.888,-1.481 2.886,-1.556 2.885,-1.607 2.9,-1.679 2.889,-1.729 2.876,-1.782 2.874,-1.771 2.816,-1.772 2.728,-1.775 2.639,-1.769 2.55,-1.771 2.376,-1.775 2.201,-1.799 2.029,-1.816 1.861,-1.832 1.697,-1.829 1.528,-1.828 1.37,-1.828 1.216,-1.853 1.06,-1.874 0.88,-1.897 0.698,-1.887 0.517,-1.887 c -0.291,0 -0.637,0.014 -0.889,-0.142 -0.078,-0.048 -0.127,-0.093 -0.222,-0.031 -0.09,0.057 -0.105,0.22 -0.121,0.317 -0.018,0.117 -0.028,0.223 -0.028,0.342 -0.001,0.166 0.089,0.334 0.157,0.484 0.088,0.194 0.151,0.378 0.302,0.533 0.073,0.076 0.111,0.151 0.17,0.236 C -0.093,-0.118 -0.035,-0.034 0,0"
             style="fill:#100f0d;fill-opacity:1;fill-rule:nonzero;stroke:none"
             id="path52255" />
        </g>
        <g
           id="g52257"
           transform="translate(87.9,332.964)">
          <path
             d="m 0,0 c 0,-0.077 0,-0.154 -0.001,-0.23 0,-0.077 0.024,-0.128 0.03,-0.199 C 0.033,-0.473 0.017,-0.531 0.027,-0.573 0.042,-0.635 0.072,-0.664 0.058,-0.745 0.047,-0.811 0.034,-0.818 -0.028,-0.83 -0.087,-0.84 -0.151,-0.843 -0.211,-0.854 -0.307,-0.871 -0.396,-0.898 -0.489,-0.926 -0.603,-0.96 -0.722,-0.961 -0.835,-0.992 -0.96,-1.026 -1.076,-1.083 -1.202,-1.109 -1.316,-1.133 -1.432,-1.154 -1.546,-1.172 -1.66,-1.19 -1.782,-1.218 -1.885,-1.264 -2.031,-1.33 -2.167,-1.411 -2.318,-1.466 -2.413,-1.501 -2.513,-1.572 -2.603,-1.48 c -0.021,0.021 -0.024,0.045 -0.045,0.065 -0.034,0.032 -0.079,0.044 -0.118,0.07 -0.12,0.081 -0.233,0.159 -0.366,0.225 -0.114,0.057 -0.238,0.084 -0.35,0.148 -0.081,0.047 -0.158,0.077 -0.245,0.113 -0.111,0.046 -0.214,0.107 -0.331,0.146 -0.076,0.025 -0.135,0.067 -0.203,0.105 -0.039,0.022 -0.072,0.036 -0.113,0.056 -0.071,0.036 -0.058,0.082 -0.057,0.152 0.001,0.095 -0.001,0.19 0,0.286 0,0.055 -0.01,0.091 -0.022,0.143 -0.007,0.029 -0.039,0.114 -0.031,0.137 0.023,0.056 0.154,0.059 0.199,0.07 0.097,0.025 0.189,0.062 0.288,0.085 0.146,0.033 0.281,0.077 0.431,0.1 0.14,0.021 0.285,0.06 0.424,0.094 0.132,0.031 0.264,0.109 0.397,0.114 0.176,0.006 0.35,-0.062 0.515,-0.116 0.053,-0.017 0.104,-0.041 0.157,-0.058 0.115,-0.036 0.234,-0.02 0.35,-0.053 0.061,-0.018 0.117,-0.044 0.181,-0.054 0.078,-0.012 0.157,-0.009 0.236,-0.026 0.154,-0.032 0.299,-0.078 0.45,-0.124 0.133,-0.039 0.27,-0.065 0.402,-0.106 C -0.405,0.077 -0.318,0.069 0,0"
             style="fill:#100f0d;fill-opacity:1;fill-rule:nonzero;stroke:none"
             id="path52259" />
        </g>
        <g
           id="g52261"
           transform="translate(84.8127,331.221)">
          <path
             d="M 0,0 C 0,-0.054 -0.011,-0.119 -0.001,-0.172 0.015,-0.264 0.057,-0.341 0.058,-0.44 0.06,-0.516 0.083,-0.626 0.023,-0.679 0,-0.699 -0.032,-0.704 -0.057,-0.72 -0.1,-0.748 -0.136,-0.791 -0.169,-0.829 c -0.104,-0.119 -0.189,-0.259 -0.304,-0.369 -0.101,-0.096 -0.233,-0.149 -0.332,-0.25 -0.138,-0.14 -0.276,-0.235 -0.455,-0.319 -0.065,-0.031 -0.138,-0.048 -0.201,-0.084 -0.05,-0.028 -0.083,-0.068 -0.126,-0.105 -0.027,-0.023 -0.077,-0.07 -0.115,-0.074 -0.048,-0.004 -0.072,0.037 -0.115,0.052 -0.085,0.029 -0.202,0.019 -0.29,0.032 -0.224,0.033 -0.448,0.061 -0.664,0.131 -0.436,0.141 -0.896,0.135 -1.337,0.251 -0.097,0.025 -0.195,0.072 -0.295,0.08 -0.065,0.005 -0.131,-0.008 -0.197,0.002 -0.088,0.013 -0.165,0.063 -0.249,0.08 -0.027,0.006 -0.054,-0.003 -0.082,0 -0.04,0.005 -0.08,0.021 -0.12,0.03 -0.132,0.03 -0.267,0.012 -0.396,0.043 -0.116,0.027 -0.303,10e-4 -0.329,0.155 -0.023,0.139 10e-4,0.306 10e-4,0.448 0,0.102 -0.041,0.323 0.042,0.395 0.07,0.061 0.17,0.105 0.246,0.162 0.12,0.09 0.245,0.141 0.369,0.219 0.122,0.076 0.253,0.117 0.373,0.201 0.105,0.074 0.23,0.124 0.34,0.192 0.054,0.033 0.101,0.076 0.151,0.114 0.048,0.037 0.109,0.062 0.154,0.1 0.033,0.028 0.051,0.062 0.091,0.088 0.033,0.021 0.071,0.035 0.104,0.056 0.049,0.03 0.08,0.08 0.121,0.112 0.015,0.012 0.039,0.015 0.057,0.029 0.025,0.02 0.037,0.05 0.066,0.061 0.069,0.023 0.189,-0.024 0.254,-0.037 C -3.3,0.945 -3.194,0.905 -3.085,0.891 -2.97,0.876 -2.86,0.87 -2.746,0.847 c 0.15,-0.03 0.303,-0.036 0.453,-0.061 0.081,-0.013 0.159,-0.041 0.241,-0.044 0.225,-0.009 0.445,-0.038 0.669,-0.056 0.224,-0.018 0.443,-0.048 0.665,-0.081 0.083,-0.012 0.165,0 0.248,-0.003 0.061,-0.003 0.119,-0.028 0.18,-0.032 0.07,-0.004 0.112,-0.003 0.176,-0.033 0.08,-0.038 0.086,-0.071 0.086,-0.153 0,-0.132 -0.046,-0.269 -0.03,-0.398 C -0.048,-0.101 0.018,-0.209 0,0"
             style="fill:#100f0d;fill-opacity:1;fill-rule:nonzero;stroke:none"
             id="path52263" />
        </g>
        <g
           id="g52265"
           transform="translate(83.6684,328.534)">
          <path
             d="M 0,0 C -0.315,-0.003 -0.629,-0.055 -0.945,-0.059 -1.49,-0.065 -2.042,-0.028 -2.586,-0.063 -2.953,-0.087 -3.321,-0.131 -3.688,-0.144 -3.826,-0.149 -3.964,-0.17 -4.1,-0.173 -4.147,-0.174 -4.2,-0.163 -4.245,-0.17 -4.31,-0.18 -4.298,-0.187 -4.32,-0.243 -4.34,-0.293 -4.37,-0.33 -4.395,-0.378 -4.436,-0.454 -4.478,-0.54 -4.504,-0.623 c -0.032,-0.103 -0.086,-0.18 -0.121,-0.28 -0.038,-0.106 -0.094,-0.216 -0.149,-0.313 -0.025,-0.045 -0.057,-0.08 -0.079,-0.128 -0.007,-0.015 -0.002,-0.037 -0.012,-0.05 -0.014,-0.019 -0.037,-0.026 -0.05,-0.049 -0.029,-0.052 -0.005,-0.058 0.005,-0.098 0.017,-0.063 0.019,-0.121 0.028,-0.185 0.011,-0.082 0.009,-0.169 0.021,-0.249 0.003,-0.024 0.021,-0.051 0.026,-0.076 0.009,-0.041 -0.014,-0.125 0.029,-0.15 0.023,-0.014 0.077,-10e-4 0.104,0 0.064,0.002 0.129,10e-4 0.194,10e-4 0.203,0.001 0.397,-0.039 0.599,-0.053 0.237,-0.016 0.474,0.009 0.711,-0.012 0.261,-0.023 0.519,-0.022 0.782,-0.022 0.474,0 0.948,0 1.423,0 0.28,0 0.56,0 0.84,-10e-4 0.159,-0.001 0.304,0.021 0.455,0.072 0.111,0.038 0.219,0.049 0.33,0.079 0.03,0.008 0.062,0.035 0.087,0.043 0.044,0.014 0.136,10e-4 0.165,0.042 0.027,0.037 0.002,0.148 0.002,0.192 0,0.086 -0.001,0.173 0,0.26 0.001,0.067 -0.001,0.07 -0.054,0.11 C 0.799,-1.465 0.771,-1.427 0.738,-1.401 0.685,-1.358 0.62,-1.332 0.569,-1.287 0.516,-1.24 0.484,-1.176 0.45,-1.116 0.359,-0.951 0.287,-0.775 0.213,-0.601 0.18,-0.522 0.149,-0.47 0.1,-0.401 0.071,-0.361 -0.03,-0.254 0,0"
             style="fill:#100f0d;fill-opacity:1;fill-rule:nonzero;stroke:none"
             id="path52267" />
        </g>
      </g>
    </g>
  </g>
</svg>
