<?xml version="1.0" encoding="UTF-8" standalone="no"?>
<!-- Created with Inkscape (http://www.inkscape.org/) -->

<svg
   width="30.928402"
   height="24"
   viewBox="0 0 8.1831395 6.35"
   version="1.1"
   id="svg54744"
   inkscape:version="1.2.1 (9c6d41e4, 2022-07-14)"
   sodipodi:docname="descent-into-the-pitch.svg"
   xmlns:inkscape="http://www.inkscape.org/namespaces/inkscape"
   xmlns:sodipodi="http://sodipodi.sourceforge.net/DTD/sodipodi-0.dtd"
   xmlns="http://www.w3.org/2000/svg"
   xmlns:svg="http://www.w3.org/2000/svg">
  <sodipodi:namedview
     id="namedview54746"
     pagecolor="#505050"
     bordercolor="#eeeeee"
     borderopacity="1"
     inkscape:showpageshadow="0"
     inkscape:pageopacity="0"
     inkscape:pagecheckerboard="0"
     inkscape:deskcolor="#505050"
     inkscape:document-units="mm"
     showgrid="false"
     inkscape:zoom="0.7046647"
     inkscape:cx="100.75714"
     inkscape:cy="-4.9669013"
     inkscape:window-width="1390"
     inkscape:window-height="941"
     inkscape:window-x="0"
     inkscape:window-y="25"
     inkscape:window-maximized="0"
     inkscape:current-layer="layer1" />
  <defs
     id="defs54741">
    <clipPath
       clipPathUnits="userSpaceOnUse"
       id="clipPath52887">
      <path
         d="m 76.75,167.149 h 24.7 v 24.699 h -24.7 z"
         id="path52885" />
    </clipPath>
  </defs>
  <g
     inkscape:label="Layer 1"
     inkscape:groupmode="layer"
     id="layer1"
     transform="translate(-78.387823,-150.21287)">
    <g
       id="g52881"
       transform="matrix(0.37579133,0,0,-0.37579133,49.137574,220.92308)">
      <g
         id="g52883"
         clip-path="url(#clipPath52887)">
        <g
           id="g52889"
           transform="translate(89.6333,178.316)">
          <path
             d="M 0,0 C 0.016,-0.001 0.033,-0.001 0.05,0.001 0.033,0.011 0.008,0.024 -0.03,0.041 -0.03,0.006 -0.032,0.001 0,0"
             style="fill:#231f20;fill-opacity:1;fill-rule:nonzero;stroke:none"
             id="path52891" />
        </g>
        <g
           id="g52893"
           transform="translate(98.2595,173.061)">
          <path
             d="M 0,0 C 0.005,0.014 0.009,0.029 0.008,0.043 0.003,0.031 -0.005,0.02 0,0"
             style="fill:#231f20;fill-opacity:1;fill-rule:nonzero;stroke:none"
             id="path52895" />
        </g>
        <g
           id="g52897"
           transform="translate(92.5813,183.064)">
          <path
             d="M 0,0 C -0.012,-0.096 -0.056,-0.191 -0.084,-0.288 -0.124,-0.426 -0.125,-0.563 -0.162,-0.701 -0.195,-0.823 -0.245,-0.943 -0.256,-1.063 -0.285,-1.359 -0.36,-1.653 -0.468,-1.954 -0.52,-2.097 -0.59,-2.239 -0.653,-2.382 -0.734,-2.568 -0.771,-2.752 -0.836,-2.937 -0.883,-3.07 -0.947,-3.203 -0.99,-3.336 -1.054,-3.534 -1.125,-3.732 -1.209,-3.931 -1.265,-4.065 -1.335,-4.198 -1.399,-4.332 -1.481,-4.506 -1.548,-4.68 -1.626,-4.854 -1.633,-4.87 -1.642,-4.886 -1.651,-4.903 c -0.034,0.015 -0.068,0.029 -0.103,0.043 -0.138,0.057 -0.288,0.101 -0.432,0.133 -0.103,0.023 -0.205,0.047 -0.31,0.048 -0.132,0.002 -0.258,-0.032 -0.384,-0.066 -0.006,-0.002 -0.012,-0.002 -0.018,-0.003 0.098,-0.058 -0.117,-0.007 -0.137,-0.036 0.017,0.011 0.029,0.039 0.04,0.056 0.025,0.038 0.049,0.075 0.064,0.12 0.014,0.04 0.029,0.099 -0.023,0.073 -0.02,-0.01 -0.033,-0.02 -0.047,-0.038 -0.013,-0.015 -0.02,-0.04 -0.036,-0.05 -0.015,-0.009 -0.034,0.002 -0.05,0.005 -0.046,0.008 -0.092,0.008 -0.137,0.008 -0.017,-10e-4 -0.033,-10e-4 -0.049,-10e-4 0.049,0.132 0.097,0.263 0.151,0.394 0.188,0.459 0.403,0.904 0.598,1.358 0.061,0.358 0.201,0.665 0.362,0.962 0.022,0.065 0.045,0.131 0.066,0.196 0.063,0.293 0.168,0.59 0.295,0.871 0.126,0.347 0.262,0.689 0.371,1.043 0.007,0.022 0.07,0.187 0.108,0.338 0.07,-0.293 0.103,-0.223 0.142,-0.179 0.131,0.147 0.21,0.326 0.337,0.475 0.068,0.08 0.132,0.162 0.193,0.247 -0.055,0.295 0.348,0.418 0.413,0.12 0.065,-0.302 0.145,-0.599 0.224,-0.896 0.015,0.023 0.031,0.045 0.045,0.068 0.001,-0.012 0.001,-0.023 0.001,-0.035 0,-0.045 0,-0.089 0.001,-0.133 C 0.02,0.145 0.009,0.073 0,0 m -1.756,-6.992 c -0.01,-0.04 -0.041,-0.053 -0.066,-0.076 -0.022,-0.021 -0.043,-0.048 -0.071,-0.06 -0.02,-0.008 -0.059,-0.003 -0.08,-0.002 -0.038,0.002 -0.079,0.056 -0.054,0.097 0.017,0.028 0.038,0.059 0.063,0.077 0.01,0.007 0.018,0.006 0.027,0.01 0.009,0.004 0.018,-0.007 0.02,0.01 0.001,0.017 -0.038,0.035 -0.046,0.041 -0.022,0.017 -0.037,0.031 -0.064,0.031 -0.021,0 -0.035,0 -0.052,-0.009 -0.005,0.019 -0.003,0.036 0.004,0.052 0.007,0.014 0.037,0.043 0.038,0.012 0.006,0.006 0.013,0.01 0.019,0.014 0.034,0.021 0.062,0.044 0.102,0.044 0.067,-10e-4 0.128,-0.075 0.149,-0.143 0.008,-0.026 0.017,-0.07 0.011,-0.098 m -0.367,0.352 c -0.013,-0.007 -0.025,-0.009 -0.04,-0.01 -0.02,-10e-4 -0.042,0.001 -0.063,0 -0.031,0 -0.044,0.007 -0.068,0.031 -0.01,0.011 -0.016,0.02 -0.02,0.03 -0.004,0.009 -0.006,0.019 -0.009,0.032 -0.012,0.052 0.012,0.076 0.05,0.094 0.034,0.017 0.073,0.024 0.109,0.009 0.012,0.026 -0.048,0.061 -0.064,0.068 -0.022,0.01 -0.038,0.007 -0.061,0.012 -0.006,10e-4 -0.013,0.004 -0.02,0.007 -0.009,0.004 -0.019,0.01 -0.028,0.015 -0.015,-0.009 -0.024,-0.002 -0.031,0.008 0.01,0.001 0.02,-0.003 0.031,-0.008 0.003,0.002 0.007,0.004 0.012,0.009 0,-0.002 0,-0.004 0,-0.007 -0.005,0.031 0.026,0.051 0.061,0.063 0.034,0.011 0.073,0.016 0.088,0.016 0.037,0 0.066,-0.014 0.095,-0.041 0.026,-0.025 0.053,-0.042 0.075,-0.072 0.018,-0.026 0.019,-0.041 0.024,-0.071 0,-0.001 0,-0.003 10e-4,-0.004 0.004,-0.023 0.018,-0.052 0.006,-0.076 -0.002,-0.006 -0.01,-0.009 -0.014,-0.014 -0.01,-0.016 -0.004,-0.026 -0.021,-0.04 -0.012,-0.009 -0.029,-0.013 -0.042,-0.02 -0.016,-0.008 -0.024,-0.004 -0.038,-0.009 -0.013,-0.004 -0.021,-0.015 -0.033,-0.022 m -0.31,-0.357 c -0.043,-0.045 -0.097,-0.069 -0.156,-0.062 -0.042,0.005 -0.085,0.056 -0.089,0.102 -10e-4,0.016 -0.004,0.047 0,0.063 0.004,0.018 0.026,0.031 0.041,0.041 0.029,0.019 0.063,-0.001 0.094,0.011 -0.016,0.055 -0.106,0.052 -0.143,0.072 -0.027,0.016 -0.035,0.031 -0.021,0.061 0.022,0.048 0.062,0.039 0.102,0.039 l -0.023,-0.052 c 0.015,0.003 0.031,0.008 0.045,0.012 0.007,0.003 0.01,0.008 0.018,0.01 0.009,0.002 0.022,0 0.032,0 0.041,0 0.075,-0.009 0.097,-0.051 0.018,-0.034 0.046,-0.073 0.048,-0.113 0.002,-0.054 -0.008,-0.095 -0.045,-0.133 m -2.584,2.518 c -0.037,0.02 -0.067,0.073 -0.089,0.111 -0.073,0.125 -0.127,0.266 -0.183,0.401 -0.011,0.028 -0.102,0.284 -0.125,0.278 -0.013,-0.106 10e-4,-0.214 0.004,-0.321 0.003,-0.118 0.004,-0.236 0,-0.354 -0.002,-0.068 -0.006,-0.135 -0.017,-0.201 -0.004,-0.024 -0.003,-0.05 -0.024,-0.06 -0.024,-0.012 -0.055,0.012 -0.073,0.023 -0.097,0.055 -0.193,0.105 -0.296,0.145 -0.044,0.017 -0.087,0.031 -0.132,0.042 -0.015,0.003 -0.034,0.015 -0.049,0.01 0.058,-0.085 0.14,-0.147 0.212,-0.216 0.018,-0.017 0.047,-0.043 0.051,-0.072 0.005,-0.032 -0.003,-0.022 -0.026,-0.028 -0.058,-0.017 -0.11,-0.039 -0.172,-0.046 -0.023,-0.003 -0.046,-0.005 -0.069,-0.008 -0.006,0.011 -0.012,0.022 -0.017,0.034 -0.074,0.174 -0.139,0.347 -0.217,0.521 -0.061,0.134 -0.128,0.268 -0.182,0.402 -0.08,0.198 -0.148,0.397 -0.21,0.594 -0.041,0.134 -0.102,0.266 -0.147,0.399 -0.062,0.186 -0.098,0.37 -0.176,0.556 -0.059,0.142 -0.127,0.285 -0.176,0.427 -0.104,0.302 -0.175,0.595 -0.203,0.891 -0.011,0.12 -0.059,0.241 -0.09,0.362 -0.036,0.139 -0.037,0.275 -0.075,0.414 -0.027,0.097 -0.069,0.191 -0.081,0.288 -0.017,0.142 -0.038,0.28 -0.081,0.426 0.006,0.028 0.013,0.056 0.019,0.084 0.062,0.299 0.449,0.176 0.395,-0.12 0.059,-0.084 0.12,-0.167 0.185,-0.247 0.122,-0.148 0.197,-0.327 0.323,-0.474 0.037,-0.044 0.069,-0.114 0.136,0.179 0.036,-0.152 0.097,-0.317 0.103,-0.339 0.104,-0.353 0.235,-0.696 0.356,-1.042 0.121,-0.281 0.222,-0.578 0.282,-0.871 0.02,-0.066 0.042,-0.131 0.063,-0.197 0.154,-0.296 0.288,-0.603 0.347,-0.961 0.142,-0.346 0.296,-0.687 0.44,-1.032 -0.002,10e-4 -0.004,0 -0.006,0.002 m -0.768,-2.566 c -0.002,-0.029 -0.014,-0.042 -0.029,-0.065 -0.011,-0.017 -0.017,-0.015 -0.034,-0.025 -0.013,-0.008 -0.023,-0.021 -0.037,-0.029 -0.01,-0.005 -0.021,-0.01 -0.032,-0.012 -0.012,-0.002 -0.022,-0.006 -0.034,-0.008 -0.032,-0.007 -0.085,0.023 -0.094,0.06 -0.012,0.045 0.055,0.056 0.084,0.069 0.023,0.011 0.053,0.016 0.022,0.041 -0.023,0.019 -0.055,0.022 -0.083,0.026 -0.023,0.004 -0.048,0.005 -0.069,-0.004 -0.025,-0.01 -0.053,-0.032 -0.079,-0.035 -0.01,0.014 -0.004,0.056 0,0.073 0.008,0.04 0.038,0.046 0.047,0.019 -0.004,0.027 0.024,0.032 0.04,0.039 0.044,0.02 0.079,0.039 0.127,0.036 0.039,-0.003 0.068,-0.007 0.1,-0.033 0.023,-0.018 0.045,-0.046 0.06,-0.073 0.016,-0.027 0.012,-0.048 0.011,-0.079 m -0.411,0.202 c -0.013,-0.013 -0.034,-0.019 -0.05,-0.026 -0.031,-0.014 -0.06,-0.035 -0.093,-0.02 -0.032,0.015 -0.062,0.039 -0.081,0.073 -0.012,0.021 -0.015,0.032 0.003,0.043 0.007,0.004 0.016,0.006 0.024,0.01 0.008,0.006 0.008,0.011 0.014,0.015 0.01,0.008 0.032,0.022 0.044,0.024 0.014,0.001 0.027,-0.017 0.039,-0.013 -0.002,0.024 -0.014,0.037 -0.033,0.043 -0.012,0.003 -0.024,0.004 -0.036,0.007 -0.016,0.003 -0.02,0.001 -0.039,-0.009 -0.019,-0.009 -0.054,-0.027 -0.046,0.014 0.005,0.029 0.053,0.05 0.081,0.049 0.024,0.016 0.046,0.034 0.078,0.032 0.05,-0.004 0.101,-0.039 0.131,-0.084 0.008,-0.013 0.022,-0.044 0.024,-0.061 0.002,-0.014 -0.011,-0.051 -0.02,-0.06 -0.006,-0.006 -0.016,-0.006 -0.023,-0.012 -0.008,-0.007 -0.01,-0.018 -0.017,-0.025 M -6.294,-7.261 C -6.309,-7.317 -6.366,-7.368 -6.413,-7.388 -6.434,-7.397 -6.456,-7.401 -6.478,-7.408 -6.5,-7.415 -6.52,-7.413 -6.54,-7.4 c -0.014,0.01 -0.031,0.032 -0.04,0.048 -0.01,0.017 -0.012,0.034 -0.009,0.05 0.011,0.057 0.118,0.092 0.159,0.065 -0.005,0.019 -0.04,0.035 -0.054,0.042 -0.028,0.014 -0.053,0.035 -0.084,0.036 -0.027,10e-4 -0.058,-0.025 -0.076,0.008 -0.046,0.085 0.058,0.129 0.113,0.14 l -0.027,-0.074 c 0.012,0.009 0.01,0.023 0.024,0.032 0.016,0.01 0.049,0.028 0.068,0.025 0.025,-0.004 0.049,-0.022 0.072,-0.033 0.022,-0.012 0.043,-0.022 0.059,-0.044 0.03,-0.041 0.055,-0.101 0.041,-0.156 M 6.975,-9.596 C 6.912,-9.555 6.847,-9.457 6.806,-9.393 6.62,-9.102 6.524,-8.751 6.351,-8.451 6.225,-8.234 6.135,-7.993 6.01,-7.773 5.894,-7.568 5.754,-7.385 5.644,-7.175 5.509,-6.917 5.383,-6.653 5.245,-6.397 5.138,-6.2 5.025,-6.007 4.924,-5.806 4.775,-5.509 4.635,-5.205 4.502,-4.898 4.412,-4.692 4.306,-4.497 4.213,-4.292 4.084,-4.008 3.978,-3.711 3.836,-3.434 3.726,-3.221 3.61,-3.013 3.509,-2.795 3.298,-2.333 3.117,-1.868 2.973,-1.375 2.914,-1.175 2.825,-0.993 2.748,-0.802 2.661,-0.583 2.605,-0.35 2.516,-0.133 2.453,0.02 2.379,0.159 2.329,0.318 2.256,0.556 2.182,0.783 2.085,1.01 1.934,1.361 1.821,1.73 1.677,2.085 1.639,2.18 1.599,2.273 1.57,2.372 1.544,2.458 1.533,2.563 1.494,2.643 1.475,2.628 1.465,2.531 1.46,2.508 1.425,2.339 1.416,2.16 1.416,1.987 1.416,1.868 1.428,1.752 1.414,1.635 1.396,1.492 1.369,1.351 1.345,1.21 1.329,1.114 1.322,1.019 1.312,0.923 1.303,0.828 1.274,0.741 1.271,0.645 1.27,0.595 1.278,0.544 1.275,0.494 1.272,0.428 1.255,0.363 1.244,0.297 c 0,0.001 0,0.001 0,0.001 C 1.21,0.557 1.185,0.818 1.145,1.074 1.137,1.12 1.129,1.166 1.122,1.212 1.115,1.275 1.108,1.337 1.102,1.399 1.07,1.702 1.015,1.999 0.986,2.303 0.959,2.576 0.906,2.842 0.857,3.11 0.812,3.357 0.779,3.604 0.721,3.847 0.694,3.958 0.685,4.073 0.654,4.182 0.643,4.223 0.64,4.264 0.629,4.302 0.612,4.365 0.576,4.412 0.569,4.48 0.545,4.478 0.536,4.435 0.529,4.411 0.526,4.399 0.523,4.386 0.52,4.374 0.496,4.51 0.473,4.646 0.457,4.785 0.445,4.884 0.44,5.003 0.414,5.099 0.356,5.11 0.329,4.939 0.319,4.911 0.263,4.753 0.198,4.583 0.124,4.434 0.059,4.303 -0.028,4.186 -0.099,4.058 -0.174,3.924 -0.228,3.781 -0.289,3.638 -0.354,3.483 -0.437,3.344 -0.509,3.195 -0.523,3.167 -0.565,3.098 -0.574,3.067 -0.599,2.982 -0.578,2.882 -0.557,2.792 -0.583,2.761 -0.61,2.73 -0.633,2.695 -0.724,2.56 -0.771,2.443 -0.889,2.329 -1.125,2.101 -1.339,1.848 -1.566,1.61 -1.854,1.307 -2.096,0.998 -2.329,0.647 -2.417,0.515 -2.451,0.361 -2.488,0.205 -2.562,-0.108 -2.627,-0.429 -2.717,-0.737 -2.835,-1.142 -2.993,-1.536 -3.128,-1.935 -3.294,-2.427 -3.419,-2.926 -3.565,-3.424 -3.654,-3.726 -3.699,-4.042 -3.766,-4.35 -3.778,-4.404 -3.791,-4.458 -3.803,-4.511 -3.806,-4.515 -3.809,-4.519 -3.812,-4.524 -3.836,-4.562 -3.833,-4.572 -3.876,-4.57 c -0.094,0.003 -0.187,0 -0.28,0.006 -0.048,0.003 -0.096,0.007 -0.144,0.011 -0.012,0.002 -0.024,0.003 -0.036,0.004 -0.033,0.18 -0.068,0.36 -0.118,0.535 -0.141,0.497 -0.26,0.996 -0.419,1.488 -0.129,0.4 -0.281,0.794 -0.394,1.199 -0.086,0.308 -0.148,0.629 -0.218,0.942 -0.036,0.156 -0.068,0.309 -0.153,0.442 -0.223,0.351 -0.455,0.66 -0.731,0.962 -0.217,0.239 -0.422,0.492 -0.648,0.72 -0.112,0.114 -0.158,0.231 -0.245,0.366 -0.022,0.034 -0.048,0.065 -0.073,0.097 0.021,0.09 0.041,0.19 0.017,0.275 -0.009,0.031 -0.05,0.099 -0.063,0.128 -0.068,0.149 -0.148,0.288 -0.211,0.443 -0.057,0.142 -0.11,0.286 -0.181,0.42 C -7.841,3.596 -7.925,3.713 -7.987,3.844 -8.058,3.993 -8.12,4.162 -8.174,4.321 -8.183,4.349 -8.209,4.519 -8.265,4.508 -8.289,4.412 -8.294,4.294 -8.305,4.195 -8.321,4.056 -8.342,3.92 -8.365,3.783 -8.369,3.796 -8.372,3.809 -8.375,3.821 -8.381,3.845 -8.39,3.888 -8.413,3.889 -8.419,3.821 -8.454,3.775 -8.47,3.712 -8.48,3.674 -8.483,3.632 -8.494,3.591 -8.524,3.482 -8.533,3.367 -8.558,3.256 -8.614,3.013 -8.646,2.767 -8.689,2.519 -8.736,2.252 -8.786,1.986 -8.812,1.713 -8.84,1.409 -8.892,1.112 -8.923,0.809 -8.929,0.746 -8.936,0.684 -8.942,0.622 -8.949,0.576 -8.957,0.53 -8.964,0.484 -9.002,0.227 -9.026,-0.033 -9.059,-0.292 -9.063,-0.314 -9.066,-0.337 -9.07,-0.359 -9.086,-0.455 -9.1,-0.551 -9.115,-0.647 -9.121,-0.681 -9.126,-0.716 -9.133,-0.75 c -0.02,-0.089 -0.043,-0.178 -0.065,-0.266 0,0.005 0,0.011 0,0.017 0,0.018 -0.011,0.052 -0.012,0.072 -0.003,0.081 0.016,0.156 0.015,0.234 -10e-4,0.097 -0.034,0.19 -0.039,0.286 -0.003,0.05 0.005,0.101 0.004,0.151 -0.003,0.096 -0.03,0.184 -0.039,0.278 -0.01,0.096 -0.016,0.191 -0.032,0.287 C -9.324,0.45 -9.35,0.591 -9.367,0.734 -9.38,0.851 -9.368,0.967 -9.368,1.086 -9.369,1.259 -9.378,1.438 -9.411,1.607 -9.416,1.63 -9.425,1.727 -9.444,1.742 -9.48,1.662 -9.491,1.558 -9.516,1.471 -9.544,1.373 -9.582,1.279 -9.619,1.184 -9.756,0.829 -9.865,0.46 -10.009,0.109 c -0.093,-0.227 -0.164,-0.454 -0.234,-0.691 -0.048,-0.16 -0.119,-0.299 -0.179,-0.451 -0.085,-0.218 -0.139,-0.451 -0.222,-0.67 -0.074,-0.191 -0.16,-0.372 -0.216,-0.573 -0.137,-0.493 -0.31,-0.958 -0.514,-1.42 -0.096,-0.218 -0.207,-0.426 -0.312,-0.639 -0.136,-0.277 -0.237,-0.574 -0.361,-0.858 -0.089,-0.205 -0.191,-0.399 -0.277,-0.606 -0.127,-0.307 -0.261,-0.611 -0.404,-0.908 -0.097,-0.201 -0.204,-0.394 -0.307,-0.591 -0.132,-0.256 -0.253,-0.519 -0.383,-0.778 -0.105,-0.21 -0.239,-0.393 -0.35,-0.598 -0.119,-0.22 -0.205,-0.461 -0.326,-0.678 -0.166,-0.3 -0.258,-0.651 -0.436,-0.941 -0.039,-0.065 -0.102,-0.163 -0.162,-0.203 -0.026,-0.018 -0.043,-10e-4 -0.052,-0.044 -0.007,-0.031 0.029,-0.116 0.052,-0.137 0.026,-0.024 0.082,-0.025 0.114,-0.03 0.053,-0.008 0.057,-10e-4 0.097,0.034 0.037,0.032 0.051,0.037 0.099,0.032 0.138,-0.015 0.273,-0.028 0.41,-0.059 0.117,-0.026 0.226,-0.053 0.345,-0.039 0.053,0.016 0.106,0.023 0.161,0.017 0.006,-0.001 0.012,-0.005 0.018,-0.007 0.019,0.121 0.036,0.243 0.054,0.365 0.023,0.154 0.03,0.319 0.092,0.459 0.118,0.263 0.235,0.527 0.356,0.789 0.177,0.386 0.328,0.797 0.445,1.214 0.102,0.364 0.203,0.74 0.34,1.089 0.182,0.468 0.376,0.929 0.534,1.409 0.162,0.488 0.367,0.947 0.558,1.419 0.09,0.225 0.172,0.461 0.245,0.694 0.058,0.185 0.104,0.376 0.178,0.553 0.051,0.12 0.121,0.219 0.177,0.334 0.096,0.197 0.151,0.427 0.221,0.637 0.091,0.274 0.227,0.498 0.353,0.748 0.043,0.086 0.113,0.257 0.212,0.282 0.074,0.019 0.103,-0.056 0.132,-0.122 0.036,-0.082 0.082,-0.155 0.119,-0.238 0.047,-0.104 0.092,-0.208 0.141,-0.311 -0.016,-0.068 -0.034,-0.135 -0.048,-0.203 -0.069,-0.335 -1.687,-3.754 -1.75,-4.092 -0.059,-0.31 -0.098,-0.625 -0.153,-0.936 -0.049,-0.271 -0.103,-0.533 -0.133,-0.808 -0.029,-0.275 -0.055,-0.548 -0.096,-0.819 -0.026,-0.137 -0.051,-0.273 -0.077,-0.409 -0.04,-0.18 -0.085,-0.358 -0.125,-0.538 -0.064,-0.292 -0.123,-0.583 -0.2,-0.871 -0.011,-0.041 -0.018,-0.089 -0.037,-0.127 -0.013,-0.026 -0.034,-0.04 -0.043,-0.07 0.017,-0.02 0.064,0.006 0.084,0.009 0.008,0.002 0.016,0.002 0.023,0.003 -0.021,-0.106 -0.043,-0.212 -0.062,-0.32 -0.024,-0.135 -0.037,-0.273 -0.061,-0.409 -0.029,-0.169 -0.059,-0.339 -0.092,-0.506 -0.01,-0.05 -0.023,-0.114 -0.05,-0.154 0.07,0.073 0.08,0.077 0.087,0.09 0.007,-0.038 0.026,-0.04 0.047,-0.058 0.038,-0.031 0.068,-0.092 0.11,-0.11 0.043,-0.017 0.1,0.005 0.145,-0.002 0.084,-0.013 0.16,-0.058 0.245,-0.06 0.087,-0.003 0.166,0.035 0.25,0.059 0.112,0.033 0.223,0.017 0.336,0.024 0.074,0.005 0.146,0.018 0.22,0.019 0.028,0 0.057,-0.004 0.085,0 10e-4,0.041 -0.012,0.086 -0.016,0.127 -0.01,0.1 -0.013,0.202 -0.02,0.302 -0.019,0.308 -0.053,0.618 -0.06,0.928 -0.004,0.148 -0.008,0.297 -0.013,0.445 0.02,0.146 0.067,0.284 0.087,0.43 0.038,0.261 0.119,0.507 0.168,0.766 0.06,0.323 0.151,0.636 0.207,0.962 0.053,0.31 0.053,0.629 0.135,0.932 0.035,0.13 0.05,0.263 0.08,0.394 0.026,0.117 0.067,0.232 0.1,0.347 0.052,0.184 0.093,0.375 0.125,0.566 0.03,0.173 0.036,0.347 0.069,0.519 0.036,0.194 1.634,3.464 1.667,3.658 0.038,0.228 0.11,0.447 0.142,0.675 0.004,0.032 0.007,0.064 0.01,0.095 -0.004,0.031 -0.005,0.063 0.004,0.096 v 0.004 c 10e-4,0.039 10e-4,0.078 10e-4,0.117 0.019,-0.052 0.036,-0.104 0.046,-0.158 0.023,-0.129 0.026,-0.264 0.08,-0.396 0.032,-0.077 0.082,-0.15 0.107,-0.228 0.036,-0.114 0.039,-0.226 0.056,-0.339 0.021,-0.143 0.051,-0.29 0.093,-0.434 0.088,-0.303 0.195,-0.604 0.249,-0.905 0.053,-0.296 0.147,-0.594 0.228,-0.892 0.06,-0.222 0.078,-0.446 0.098,-0.665 0.017,-0.181 0.054,-0.365 0.109,-0.55 -0.042,-0.014 -0.084,-0.031 -0.125,-0.052 -0.115,-0.059 -0.245,-0.096 -0.324,-0.215 -0.031,-0.046 -0.065,-0.147 -0.122,-0.156 0.081,0.006 0.163,-0.006 0.243,-0.016 0.085,-0.01 0.171,-0.016 0.256,-0.028 0.058,-0.009 0.07,-0.034 0.118,-0.065 -0.122,-0.044 -0.239,-0.137 -0.336,-0.226 -0.117,-0.108 -0.225,-0.218 -0.307,-0.362 -0.076,-0.134 -0.128,-0.285 -0.185,-0.43 -0.03,-0.078 -0.063,-0.156 -0.093,-0.235 -0.013,-0.036 -0.041,-0.079 -0.046,-0.118 0.035,0.008 0.068,0.028 0.101,0.041 0.096,0.036 0.165,0.114 0.25,0.172 0.138,0.094 0.271,0.053 0.42,0.065 -0.014,-0.009 -0.008,-0.026 -0.011,-0.041 -0.008,-0.033 -0.038,-0.072 -0.058,-0.096 -0.045,-0.053 -0.058,-0.114 -0.087,-0.179 -0.04,-0.095 -0.089,-0.183 -0.119,-0.283 -0.059,-0.195 -0.089,-0.393 -0.122,-0.595 -0.008,-0.036 -0.012,-0.073 -0.012,-0.11 0.003,-0.021 0.002,-0.042 -0.001,-0.063 -0.007,-0.025 -0.028,-0.039 -0.022,-0.067 0.035,0.016 0.061,0.053 0.084,0.085 0.041,0.056 0.085,0.107 0.132,0.155 0.067,0.069 0.127,0.141 0.187,0.217 0.013,0.016 0.03,0.029 0.031,0.05 0.012,-0.008 0.016,-0.022 0.014,-0.041 0.014,-0.038 0.029,-0.075 0.046,-0.111 0.011,-0.026 0.021,-0.054 0.029,-0.082 0.006,-0.02 0.009,-0.036 0.011,-0.057 0.01,-0.079 0.031,-0.139 0.059,-0.213 0.038,-0.103 0.052,-0.224 0.103,-0.32 0.024,-0.047 0.048,-0.096 0.074,-0.142 0.036,-0.061 0.077,-0.107 0.102,-0.176 0.021,-0.059 0.068,-0.114 0.106,-0.159 0.041,-0.048 0.092,-0.085 0.141,-0.121 0.163,-0.12 0.338,-0.224 0.534,-0.25 0.16,-0.02 0.317,0.038 0.476,0.041 0.045,0 0.091,0.002 0.135,0 0.044,-0.002 0.085,-0.018 0.127,-0.025 0.028,-0.006 0.057,-0.006 0.085,0 0.02,0.003 0.073,0.01 0.089,0.027 0.019,0.02 0.009,0.022 -0.005,0.04 -0.022,0.015 -0.04,0.033 -0.057,0.056 -0.016,0.026 -0.036,0.048 -0.059,0.066 -0.04,0.031 -0.082,0.052 -0.117,0.089 -0.026,0.027 -0.047,0.046 -0.08,0.061 -0.097,0.043 -0.198,0.116 -0.253,0.221 -0.018,0.036 -0.018,0.079 0.024,0.081 0.032,0.001 0.073,-0.033 0.106,-0.04 0.047,-0.009 0.095,-0.016 0.142,-0.029 0.022,-0.007 0.172,-0.079 0.176,-0.045 -0.04,0.005 -0.073,0.051 -0.101,0.077 -0.054,0.05 -0.104,0.103 -0.152,0.159 -0.055,0.062 -0.119,0.107 -0.164,0.179 -0.025,0.042 -0.049,0.084 -0.079,0.122 -0.01,0.012 -0.027,0.023 -0.023,0.04 0.118,-0.002 0.223,-0.082 0.335,-0.112 0.045,-0.012 0.093,-0.029 0.136,-0.046 0.035,-0.014 0.078,-0.031 0.109,-0.053 0.015,-0.011 0.027,-0.044 0.049,-0.036 0.018,0.007 0.012,0.029 0.011,0.049 0,0.039 0.007,0.073 0.047,0.079 -0.007,0.018 -0.008,0.032 -0.012,0.054 -0.008,0.04 -0.038,0.07 -0.046,0.112 -0.007,0.043 -0.013,0.08 -0.013,0.124 0,0.029 -0.007,0.073 0.003,0.099 0.015,-0.017 0.011,-0.039 0.028,-0.058 0.038,-0.04 0.084,-0.075 0.127,-0.109 0.037,-0.029 0.108,-0.077 0.129,-0.128 0.007,-0.017 0.003,-0.033 0.003,-0.052 0.019,0.021 0.023,0.031 0.049,0.045 0.028,0.016 0.054,0.029 0.086,0.04 0.066,0.021 0.126,0.019 0.194,0.02 0.014,0 0.057,0 0.068,0.016 0.011,0.015 0.001,0.061 0.002,0.078 0.002,0.055 0.02,0.107 0.025,0.162 0.002,0.033 0.003,0.114 0.026,0.136 0.071,-0.102 0.096,-0.235 0.149,-0.348 0.01,-0.021 0.014,-0.044 0.032,-0.059 0.015,-0.013 0.041,-0.015 0.058,-0.02 0.033,-0.01 0.051,-0.002 0.078,0.021 0.037,0.031 0.082,0.042 0.104,0.093 0.03,0.067 0.037,0.144 0.055,0.215 0.005,0.023 0.014,0.123 0.039,0.13 0.004,-0.027 0.003,-0.044 0.017,-0.068 0.011,-0.019 0.027,-0.033 0.033,-0.056 0.013,-0.052 10e-4,-0.118 10e-4,-0.173 0,-0.041 -0.007,-0.096 0.019,-0.127 0.031,-0.038 0.084,-0.02 0.12,-0.05 0.031,-0.025 0.049,-0.061 0.072,-0.095 0.008,-0.011 0.022,-0.025 0.019,-0.041 0.007,0.008 0.017,0.009 0.024,0.016 0.009,0.008 0.016,0.026 0.024,0.036 0.014,0.021 0.036,0.034 0.05,0.055 0.014,0.022 0.022,0.047 0.038,0.069 0.033,0.045 0.063,0.092 0.09,0.142 0.024,0.044 0.048,0.077 0.077,0.118 0.02,0.029 0.036,0.065 0.059,0.09 0.007,-0.031 10e-4,-0.072 10e-4,-0.105 0.001,-0.045 -0.013,-0.07 -0.022,-0.112 -0.007,-0.031 0,-0.063 -0.005,-0.094 -0.006,-0.042 -0.007,-0.083 -0.012,-0.125 -0.01,-0.092 -0.019,-0.181 -0.048,-0.269 -0.016,-0.049 -0.028,-0.104 -0.046,-0.152 -0.008,-0.022 -0.026,-0.041 -0.025,-0.066 0.037,0.037 0.074,0.074 0.112,0.112 0.034,0.035 0.063,0.077 0.1,0.109 0.057,0.048 0.106,0.108 0.157,0.164 0.025,0.027 0.075,0.089 0.114,0.087 0.007,-0.014 -0.018,-0.053 -0.022,-0.068 -0.014,-0.052 -0.035,-0.1 -0.054,-0.15 -0.02,-0.05 -0.049,-0.093 -0.074,-0.139 -0.025,-0.047 -0.047,-0.094 -0.072,-0.141 -0.027,-0.051 -0.062,-0.098 -0.092,-0.147 -0.016,-0.027 -0.025,-0.052 -0.038,-0.081 -0.015,-0.035 -0.036,-0.063 -0.056,-0.095 -0.021,-0.034 -0.039,-0.07 -0.05,-0.108 -0.006,-0.019 -0.018,-0.035 -0.023,-0.051 0.016,-0.008 0.034,-0.003 0.051,0 0.041,0.006 0.086,0.009 0.125,0.025 0.095,0.038 0.176,0.113 0.269,0.161 0.041,0.021 0.075,0.041 0.113,0.067 0.031,0.02 0.064,0.053 0.095,0.067 0.017,0.008 0.03,0.004 0.048,0.004 0.028,0 0.045,0.012 0.069,0.025 0.032,0.019 0.04,0.015 0.074,0.016 0.033,10e-4 0.062,0.013 0.092,0.029 0.044,0.024 0.084,0.056 0.126,0.084 0.039,0.025 0.051,0.021 0.092,0.027 0.037,0.007 0.062,0.036 0.093,0.05 0.01,0.004 0.022,-0.002 0.031,0.004 0.009,0.007 0.02,0.031 0.027,0.041 0.018,0.025 0.032,0.062 0.055,0.081 0.009,0.007 0.019,0.008 0.028,0.016 0.029,0.026 0.064,0.1 0.085,0.133 0.016,0.027 0.03,0.054 0.043,0.083 0.041,0.087 0.093,0.167 0.126,0.259 0.023,0.063 0.043,0.129 0.059,0.194 0.012,0.046 0.026,0.094 0.028,0.142 0.002,0.073 -0.015,0.156 -10e-4,0.226 0.007,0.042 0.017,0.055 0.005,0.103 -0.009,0.037 -0.021,0.062 -0.017,0.1 0.071,0.021 0.134,-0.029 0.197,-0.053 0.063,-0.025 0.13,-0.041 0.192,-0.07 0.046,-0.022 0.088,-0.053 0.132,-0.078 0.037,-0.021 0.076,-0.031 0.112,-0.049 0.054,-0.026 0.095,-0.07 0.138,-0.113 0.018,-0.018 0.037,-0.044 0.061,-0.044 0.008,0.016 0.002,0.038 0,0.055 -0.006,0.037 -0.007,0.074 -0.013,0.112 -0.01,0.074 -0.015,0.147 -0.032,0.22 -0.048,0.207 -0.104,0.411 -0.17,0.611 -0.008,0.026 -0.013,0.054 -0.025,0.08 -0.005,0.012 -0.019,0.028 -0.021,0.043 -0.01,0.05 0.036,0.022 0.06,0.005 0.04,-0.029 0.073,-0.069 0.113,-0.099 0.028,-0.021 0.058,-0.037 0.086,-0.057 0.031,-0.022 0.051,-0.051 0.077,-0.077 -0.089,0.152 -0.119,0.341 -0.192,0.501 -0.038,0.083 -0.091,0.162 -0.137,0.239 -0.046,0.076 -0.089,0.156 -0.143,0.225 -0.009,0.011 -0.018,0.022 -0.026,0.033 0.052,0.14 0.103,0.28 0.157,0.42 0.1,0.254 0.163,0.513 0.188,0.763 0.021,0.219 0.04,0.443 0.103,0.666 0.084,0.297 0.183,0.596 0.238,0.892 0.056,0.301 0.168,0.602 0.26,0.905 0.043,0.144 0.075,0.29 0.097,0.433 0.018,0.113 0.021,0.225 0.058,0.34 0.026,0.077 0.079,0.151 0.112,0.228 0.02,0.047 0.033,0.095 0.042,0.142 C 0.526,-1.5 1.904,-4.212 1.939,-4.388 1.973,-4.56 1.979,-4.734 2.01,-4.907 2.044,-5.097 2.086,-5.289 2.141,-5.473 2.176,-5.588 2.218,-5.703 2.246,-5.82 2.277,-5.951 2.292,-6.083 2.329,-6.214 2.414,-6.516 2.415,-6.835 2.47,-7.146 2.528,-7.471 2.624,-7.784 2.687,-8.108 2.737,-8.366 2.822,-8.613 2.861,-8.874 2.883,-9.02 2.932,-9.158 2.952,-9.303 2.947,-9.452 2.943,-9.601 2.939,-9.749 c -0.007,-0.309 -0.043,-0.619 -0.063,-0.928 -0.007,-0.1 -0.01,-0.202 -0.021,-0.302 -0.004,-0.041 -0.017,-0.086 -0.017,-0.127 0.03,-0.004 0.06,0 0.09,0 0.077,0 0.152,-0.014 0.229,-0.018 0.118,-0.008 0.234,0.008 0.351,-0.025 0.087,-0.024 0.17,-0.062 0.261,-0.059 0.088,0.003 0.169,0.047 0.256,0.06 0.046,0.007 0.106,-0.015 0.151,0.003 0.044,0.017 0.076,0.078 0.115,0.109 0.022,0.018 0.042,0.021 0.05,0.058 0.006,-0.013 0.017,-0.017 0.09,-0.09 -0.028,0.041 -0.042,0.104 -0.052,0.154 -0.035,0.168 -0.066,0.338 -0.096,0.506 -0.025,0.136 -0.039,0.274 -0.064,0.41 -0.02,0.107 -0.043,0.213 -0.065,0.32 0.008,-10e-4 0.016,-0.002 0.024,-0.003 0.021,-0.004 0.071,-0.029 0.088,-0.01 -0.009,0.03 -0.031,0.044 -0.045,0.07 -0.019,0.038 -0.027,0.086 -0.038,0.127 -0.081,0.288 -0.142,0.579 -0.209,0.871 -0.042,0.18 -0.089,0.358 -0.131,0.538 -0.027,0.136 -0.053,0.273 -0.08,0.409 -0.043,0.271 -0.07,0.544 -0.101,0.819 -0.031,0.275 -0.088,0.538 -0.138,0.808 -0.058,0.311 -0.099,0.626 -0.16,0.937 -0.066,0.337 -1.756,3.756 -1.828,4.092 -0.044,0.207 -0.1,0.411 -0.153,0.615 0.033,0.07 0.066,0.139 0.099,0.209 0.038,0.082 0.087,0.155 0.124,0.238 0.03,0.066 0.061,0.141 0.138,0.122 0.104,-0.025 0.176,-0.196 0.221,-0.282 0.132,-0.251 0.274,-0.474 0.369,-0.748 0.073,-0.21 0.13,-0.441 0.231,-0.637 0.058,-0.116 0.132,-0.214 0.184,-0.334 0.078,-0.177 0.126,-0.368 0.186,-0.553 0.077,-0.234 0.162,-0.469 0.257,-0.694 0.199,-0.473 0.414,-0.931 0.582,-1.419 0.165,-0.48 0.368,-0.942 0.558,-1.409 0.143,-0.349 0.249,-0.725 0.355,-1.09 0.122,-0.416 0.28,-0.828 0.465,-1.213 0.126,-0.262 0.248,-0.526 0.371,-0.789 0.066,-0.14 0.073,-0.305 0.097,-0.459 0.019,-0.122 0.037,-0.244 0.056,-0.365 0.007,0.002 0.013,0.006 0.019,0.007 0.057,0.005 0.113,-10e-4 0.168,-0.017 0.124,-0.014 0.238,0.013 0.36,0.039 0.143,0.03 0.284,0.044 0.429,0.059 0.049,0.005 0.064,0 0.104,-0.033 0.041,-0.034 0.045,-0.041 0.1,-0.033 0.034,0.005 0.092,0.006 0.12,0.03 C 7,-9.755 7.037,-9.67 7.03,-9.639 7.02,-9.596 7.002,-9.613 6.975,-9.596"
             style="fill:#231f20;fill-opacity:1;fill-rule:nonzero;stroke:none"
             id="path52899" />
        </g>
        <g
           id="g52901"
           transform="translate(79.1314,172.161)">
          <path
             d="M 0,0 C 0.005,0.02 -0.002,0.03 -0.008,0.043 -0.008,0.029 -0.005,0.014 0,0"
             style="fill:#231f20;fill-opacity:1;fill-rule:nonzero;stroke:none"
             id="path52903" />
        </g>
      </g>
    </g>
  </g>
</svg>
