<?xml version="1.0" encoding="UTF-8" standalone="no"?>
<!-- Created with Inkscape (http://www.inkscape.org/) -->

<svg
   width="24.340919"
   height="24"
   viewBox="0 0 6.4402017 6.35"
   version="1.1"
   id="svg55582"
   inkscape:version="1.2.1 (9c6d41e4, 2022-07-14)"
   sodipodi:docname="point-of-no-return.svg"
   xmlns:inkscape="http://www.inkscape.org/namespaces/inkscape"
   xmlns:sodipodi="http://sodipodi.sourceforge.net/DTD/sodipodi-0.dtd"
   xmlns="http://www.w3.org/2000/svg"
   xmlns:svg="http://www.w3.org/2000/svg">
  <sodipodi:namedview
     id="namedview55584"
     pagecolor="#505050"
     bordercolor="#eeeeee"
     borderopacity="1"
     inkscape:showpageshadow="0"
     inkscape:pageopacity="0"
     inkscape:pagecheckerboard="0"
     inkscape:deskcolor="#505050"
     inkscape:document-units="mm"
     showgrid="false"
     inkscape:zoom="0.7046647"
     inkscape:cx="42.573439"
     inkscape:cy="199.38561"
     inkscape:window-width="1390"
     inkscape:window-height="941"
     inkscape:window-x="0"
     inkscape:window-y="25"
     inkscape:window-maximized="0"
     inkscape:current-layer="layer1" />
  <defs
     id="defs55579">
    <clipPath
       clipPathUnits="userSpaceOnUse"
       id="clipPath52479">
      <path
         d="m 319.75,404.638 h 24.7 v 24.699 h -24.7 z"
         id="path52477" />
    </clipPath>
  </defs>
  <g
     inkscape:label="Layer 1"
     inkscape:groupmode="layer"
     id="layer1"
     transform="translate(-93.881739,-96.181729)">
    <g
       id="g52473"
       transform="matrix(0.33748181,0,0,-0.33748181,-14.95547,239.83947)">
      <g
         id="g52475"
         clip-path="url(#clipPath52479)">
        <g
           id="g52481"
           transform="translate(333.578,422.064)">
          <path
             d="M 0,0 C -0.006,0.001 -0.011,0.002 -0.017,0.003 -0.029,0.045 -0.02,0.101 -0.02,0.144 v 0.491 c 0,0.163 0,0.326 -0.001,0.488 C -0.022,1.274 0.001,1.421 0,1.572 -0.001,1.69 0,1.809 -0.001,1.928 c 0,0.103 0.023,0.203 0.022,0.308 C 0.019,2.361 0.035,2.48 -0.015,2.596 -0.034,2.64 -0.057,2.688 -0.081,2.73 -0.104,2.771 -0.127,2.827 -0.156,2.864 -0.182,2.896 -0.2,2.897 -0.202,2.943 c -0.002,0.042 0,0.086 0,0.128 0,0.072 0,0.143 0,0.215 0,0.05 0.007,0.094 -0.014,0.14 C -0.251,3.503 -0.313,3.593 -0.403,3.609 -0.536,3.632 -0.607,3.492 -0.646,3.388 -0.693,3.258 -0.747,3.114 -0.746,2.976 -0.745,2.887 -0.761,2.798 -0.811,2.721 -0.917,2.561 -0.979,2.344 -1.012,2.157 -1.036,2.023 -1.082,1.887 -1.119,1.756 -1.154,1.639 -1.178,1.518 -1.21,1.4 -1.24,1.286 -1.286,1.177 -1.31,1.062 -1.325,0.991 -1.334,0.92 -1.35,0.85 -1.375,0.736 -1.429,0.632 -1.453,0.518 -1.472,0.426 -1.468,0.332 -1.496,0.241 -1.519,0.168 -1.538,0.103 -1.552,0.028 c -0.008,-0.045 -0.03,-0.084 -0.04,-0.129 -0.012,-0.047 -0.032,-0.094 -0.042,-0.141 -0.007,-0.033 -0.007,-0.087 0.02,-0.102 0.022,-0.011 0.094,-0.026 0.122,-0.02 0.028,0.006 0.036,0.023 0.059,0.037 0.031,0.018 0.07,0.025 0.102,0.043 0.1,0.055 0.172,0.152 0.273,0.205 0.07,0.037 0.191,0.098 0.27,0.069 0.082,-0.03 0.127,-0.115 0.213,-0.141 0.043,-0.013 0.084,-0.011 0.129,-0.011 0.077,0.001 0.168,-0.015 0.243,0.004 C -0.1,-0.131 -0.022,-0.092 0,0"
             style="fill:#100f0d;fill-opacity:1;fill-rule:nonzero;stroke:none"
             id="path52483" />
        </g>
        <g
           id="g52485"
           transform="translate(330.414,422.084)">
          <path
             d="m 0,0 c 0.002,0.105 0.032,0.204 0.04,0.312 0.019,0.253 0.084,0.502 0.081,0.756 -0.001,0.108 0,0.216 0,0.323 0,0.11 0.018,0.215 0.021,0.324 C 0.148,1.894 0.156,2.087 0.101,2.259 0.082,2.317 0.044,2.383 0,2.419 c -0.031,0.025 -0.036,0.014 -0.041,0.06 -0.003,0.036 0.001,0.075 0.001,0.111 0,0.081 0.002,0.141 -0.026,0.216 C -0.092,2.875 -0.1,2.948 -0.169,2.986 -0.305,3.059 -0.406,2.87 -0.464,2.771 -0.511,2.691 -0.523,2.59 -0.545,2.499 -0.556,2.452 -0.552,2.45 -0.585,2.419 -0.607,2.397 -0.636,2.368 -0.665,2.348 -0.686,2.334 -0.715,2.323 -0.731,2.304 -0.758,2.272 -0.774,2.221 -0.791,2.183 -0.831,2.096 -0.836,2.021 -0.851,1.925 -0.87,1.799 -0.923,1.686 -0.956,1.564 -0.977,1.483 -0.986,1.401 -1.012,1.322 -1.047,1.216 -1.072,1.109 -1.093,0.999 -1.118,0.862 -1.179,0.734 -1.211,0.598 -1.224,0.54 -1.227,0.482 -1.241,0.424 -1.258,0.356 -1.288,0.292 -1.311,0.225 -1.322,0.195 -1.371,0.089 -1.348,0.063 -1.333,0.046 -1.214,0.061 -1.19,0.061 c 0.088,-0.001 0.149,0.026 0.234,0.049 0.045,0.012 0.126,0.025 0.176,0.013 0.07,-0.017 0.007,-0.089 0.056,-0.134 0.047,-0.044 0.151,-0.058 0.214,-0.052 0.099,0.009 0.18,0.065 0.282,0.064 C -0.159,0 -0.089,0 0,0"
             style="fill:#100f0d;fill-opacity:1;fill-rule:nonzero;stroke:none"
             id="path52487" />
        </g>
        <g
           id="g52489"
           transform="translate(335.614,416.723)">
          <path
             d="M 0,0 C 0.002,-0.006 0.003,-0.012 0.004,-0.018 0.03,-0.015 0.05,0.021 0.066,0.04 0.159,0.151 0.254,0.262 0.353,0.368 0.554,0.584 0.729,0.816 0.907,1.051 0.989,1.16 1.066,1.275 1.144,1.387 1.176,1.432 1.204,1.476 1.242,1.516 1.29,1.566 1.35,1.605 1.394,1.659 1.519,1.811 1.628,1.973 1.769,2.112 1.874,2.216 1.978,2.32 2.082,2.425 2.113,2.455 2.14,2.49 2.176,2.514 2.194,2.527 2.212,2.528 2.233,2.544 2.249,2.556 2.26,2.576 2.278,2.587 2.37,2.64 2.467,2.634 2.53,2.541 2.575,2.472 2.587,2.388 2.645,2.323 2.688,2.273 2.712,2.237 2.741,2.177 2.773,2.109 2.824,2.054 2.853,1.984 2.895,1.886 2.946,1.788 2.982,1.687 3.018,1.587 3.048,1.484 3.084,1.384 3.121,1.281 3.142,1.172 3.184,1.07 3.22,0.983 3.241,0.898 3.264,0.807 3.292,0.697 3.343,0.589 3.388,0.485 3.454,0.327 3.523,0.17 3.581,0.01 3.614,-0.084 3.669,-0.192 3.728,-0.272 3.748,-0.298 3.788,-0.329 3.791,-0.363 3.795,-0.405 3.779,-0.395 3.749,-0.408 3.698,-0.43 3.667,-0.464 3.628,-0.504 3.59,-0.542 3.551,-0.595 3.503,-0.62 3.484,-0.63 3.46,-0.631 3.441,-0.642 3.409,-0.662 3.399,-0.697 3.375,-0.723 3.343,-0.758 3.326,-0.741 3.282,-0.744 3.211,-0.749 3.163,-0.809 3.095,-0.824 3.059,-0.833 3.029,-0.832 2.995,-0.848 2.949,-0.871 2.918,-0.911 2.882,-0.947 2.791,-1.04 2.719,-1.124 2.651,-1.237 2.575,-1.364 2.48,-1.444 2.369,-1.536 2.308,-1.587 2.219,-1.699 2.138,-1.713 c -0.008,0.027 -0.002,0.06 -0.002,0.088 0.002,0.089 0,0.178 0,0.268 0,0.15 0.005,0.301 -0.001,0.452 -0.005,0.111 -0.02,0.221 -0.019,0.333 10e-4,0.197 0.009,0.387 0.02,0.582 C 2.144,0.143 2.175,0.277 2.178,0.409 2.18,0.501 2.17,0.592 2.181,0.684 2.188,0.745 2.205,0.805 2.213,0.866 2.221,0.928 2.212,0.988 2.216,1.05 c 0.003,0.046 0.018,0.094 0.027,0.139 0.04,0.216 0.034,0.428 0.034,0.647 0,0.076 0.005,0.155 10e-4,0.232 C 2.275,2.143 2.198,2.128 2.149,2.089 2.099,2.05 2.049,2.011 1.994,1.979 1.951,1.953 1.904,1.941 1.864,1.907 1.818,1.867 1.782,1.816 1.733,1.778 1.688,1.741 1.639,1.71 1.593,1.675 1.486,1.594 1.417,1.476 1.303,1.402 1.234,1.358 1.161,1.32 1.106,1.257 1.054,1.195 1.015,1.123 0.965,1.059 0.842,0.903 0.694,0.753 0.553,0.614 0.445,0.505 0.336,0.397 0.227,0.288 0.179,0.24 0.138,0.18 0.085,0.137 0.104,0.142 0.122,0.142 0,0"
             style="fill:#100f0d;fill-opacity:1;fill-rule:nonzero;stroke:none"
             id="path52491" />
        </g>
        <g
           id="g52493"
           transform="translate(341.56,415.796)">
          <path
             d="M 0,0 C -0.003,0.188 -0.131,0.349 -0.231,0.502 -0.454,0.844 -0.642,1.21 -0.847,1.564 -0.909,1.672 -0.972,1.775 -1.048,1.874 -1.105,1.949 -1.151,2.035 -1.215,2.104 -1.26,2.152 -1.289,2.15 -1.346,2.176 -1.386,2.194 -1.405,2.215 -1.451,2.217 -1.487,2.219 -1.532,2.223 -1.568,2.218 -1.617,2.211 -1.647,2.177 -1.684,2.147 -1.803,2.051 -1.917,1.944 -2.047,1.864 -2.139,1.807 -2.215,1.72 -2.289,1.644 -2.312,1.619 -2.334,1.595 -2.358,1.571 -2.367,1.562 -2.386,1.558 -2.395,1.547 -2.404,1.537 -2.401,1.521 -2.411,1.51 c 0.023,0.003 0.052,-0.005 0.074,10e-4 0.021,0.005 0.038,0.023 0.059,0.031 0.105,0.041 0.229,0.027 0.321,0.102 0.072,0.059 0.119,0.138 0.225,0.13 0.07,-0.005 0.107,-0.061 0.16,-0.096 C -1.524,1.647 -1.527,1.6 -1.516,1.547 -1.491,1.426 -1.524,1.294 -1.57,1.182 -1.684,0.904 -1.765,0.616 -1.894,0.344 -1.934,0.261 -1.98,0.185 -2.026,0.105 -2.048,0.066 -2.067,0.021 -2.097,-0.014 -2.121,-0.041 -2.148,-0.06 -2.169,-0.091 c -0.074,-0.113 -0.086,-0.275 -0.13,-0.402 -0.019,-0.057 -0.029,-0.111 -0.039,-0.171 -0.009,-0.05 -0.043,-0.113 0.02,-0.139 0.036,-0.015 0.062,0.002 0.092,0.019 0.078,0.043 0.171,0.096 0.24,0.151 0.085,0.068 0.162,0.154 0.233,0.236 0.04,0.045 0.074,0.093 0.12,0.132 0.05,0.043 0.109,0.076 0.162,0.114 0.089,0.063 0.171,0.16 0.285,0.154 0.072,-0.004 0.098,-0.041 0.127,-0.103 0.026,-0.055 0.071,-0.062 0.107,-0.109 0.042,-0.054 0.056,-0.12 0.105,-0.173 0.038,-0.041 0.087,-0.071 0.124,-0.113 0.043,-0.05 0.096,-0.119 0.175,-0.091 0.086,0.031 0.138,0.16 0.214,0.215 0.038,0.028 0.065,0.049 0.097,0.084 0.03,0.033 0.062,0.04 0.097,0.065 0.059,0.042 0.113,0.069 0.145,0.137 0.011,0.023 0.017,0.033 0.016,0.061 C 0.019,0.059 -0.001,0.137 0,0"
             style="fill:#100f0d;fill-opacity:1;fill-rule:nonzero;stroke:none"
             id="path52495" />
        </g>
        <g
           id="g52497"
           transform="translate(331.825,423.918)">
          <path
             d="m 0,0 c 0.005,0.001 0.011,0.002 0.017,0.003 0.012,0.041 0.003,0.096 0.003,0.139 0,0.125 0.001,0.244 0.017,0.367 0.012,0.091 -0.049,0.19 -0.098,0.263 -0.044,0.067 -0.064,0.075 -0.141,0.074 -0.067,0 -0.112,-0.01 -0.142,-0.079 C -0.36,0.731 -0.361,0.696 -0.382,0.664 -0.397,0.642 -0.416,0.631 -0.429,0.606 -0.487,0.49 -0.525,0.347 -0.524,0.217 -0.524,0.196 -0.518,0.161 -0.523,0.139 -0.528,0.122 -0.541,0.12 -0.545,0.102 -0.55,0.083 -0.541,0.06 -0.544,0.04 -0.549,0.003 -0.543,0.021 -0.564,-0.001 -0.57,-0.006 -0.583,-0.007 -0.591,-0.014 c -0.013,-0.013 -0.008,-0.028 -0.018,-0.042 -0.027,-0.037 -0.066,-0.067 -0.092,-0.105 -0.07,-0.1 -0.118,-0.211 -0.149,-0.328 -0.012,-0.043 -0.039,-0.072 -0.053,-0.114 -0.017,-0.053 -0.025,-0.111 -0.042,-0.165 -0.028,-0.087 -0.068,-0.166 -0.1,-0.251 -0.044,-0.119 -0.067,-0.246 -0.104,-0.368 -0.027,-0.089 -0.06,-0.179 -0.082,-0.27 -0.022,-0.089 -0.021,-0.181 -0.042,-0.271 -0.026,-0.112 -0.061,-0.215 -0.073,-0.33 -0.013,-0.115 -0.026,-0.228 -0.045,-0.342 -0.031,-0.195 -0.039,-0.39 -0.065,-0.585 -0.017,-0.132 -0.034,-0.261 -0.097,-0.379 -0.037,-0.069 -0.039,-0.171 0.061,-0.165 0.066,0.004 0.127,0.023 0.195,0.022 0.136,-0.002 0.236,-0.139 0.327,-0.226 0.046,-0.043 0.081,-0.067 0.146,-0.083 0.065,-0.015 0.122,-0.032 0.19,-0.035 0.071,-0.003 0.113,-0.016 0.172,-0.056 0.079,-0.052 0.168,-0.057 0.246,-0.105 0.087,-0.055 0.177,-0.041 0.277,-0.041 0.067,0 0.157,-0.017 0.221,-0.003 0.049,0.011 0.067,0.063 0.086,0.104 0.037,0.084 0.066,0.173 0.092,0.261 0.054,0.191 0.062,0.374 0.063,0.571 0.001,0.119 0.02,0.236 0.023,0.355 0.003,0.14 -0.026,0.271 -0.039,0.41 -0.034,0.377 0.059,0.749 0.057,1.125 -0.001,0.293 -0.051,0.575 -0.079,0.865 -0.01,0.1 -0.049,0.213 -0.082,0.307 -0.017,0.049 -0.022,0.054 -0.056,0.083 -0.027,0.023 -0.038,0.044 -0.06,0.07 C 0.225,-0.031 0.157,0.018 0,0"
             style="fill:#100f0d;fill-opacity:1;fill-rule:nonzero;stroke:none"
             id="path52499" />
        </g>
        <g
           id="g52501"
           transform="translate(324.581,421.737)">
          <path
             d="m 0,0 c -0.18,-0.072 -0.349,-0.163 -0.533,-0.229 -0.08,-0.028 -0.194,-0.08 -0.284,-0.069 0.086,-0.016 0.183,0.033 0.262,0.061 0.108,0.038 0.215,0.083 0.324,0.12 0.282,0.097 0.568,0.178 0.852,0.27 C 0.504,0.139 0.386,0.132 0.273,0.098 0.181,0.071 0.088,0.035 0,0"
             style="fill:#100f0d;fill-opacity:1;fill-rule:nonzero;stroke:none"
             id="path52503" />
        </g>
        <g
           id="g52505"
           transform="translate(338.913,407.409)">
          <path
             d="m 0,0 c 0.027,-0.1 -0.075,0.009 -0.084,0.021 -0.279,0.384 -0.553,0.765 -0.804,1.168 -0.178,0.286 -0.353,0.573 -0.531,0.859 -0.156,0.251 -0.294,0.507 -0.443,0.763 -0.072,0.125 -0.152,0.244 -0.219,0.373 -0.034,0.066 -0.075,0.14 -0.116,0.199 -0.029,0.04 -0.041,0.048 -0.04,0.104 0.008,0.408 -0.026,0.828 -0.094,1.229 -0.045,0.257 -0.096,0.51 -0.122,0.77 -0.017,0.174 -0.06,0.346 -0.066,0.521 -0.002,0.067 0.004,0.094 -0.044,0.134 -0.074,0.062 -0.138,0.136 -0.221,0.187 -0.089,0.053 -0.155,0.107 -0.233,0.178 -0.055,0.049 -0.107,0.101 -0.156,0.155 -0.034,0.034 -0.065,0.07 -0.093,0.109 -0.038,0.033 -0.071,0.029 -0.099,0.079 -0.03,0.053 -0.057,0.127 -0.083,0.182 -0.085,0.18 -0.131,0.375 -0.18,0.567 -0.055,0.218 -0.113,0.439 -0.163,0.662 0.056,0.217 0.114,0.434 0.172,0.65 0.112,0.417 0.224,0.832 0.321,1.252 0.102,0.444 0.196,0.89 0.297,1.334 0.032,0.141 0.07,0.28 0.102,0.42 0.038,0.165 0.057,0.332 0.088,0.498 0.033,0.177 0.071,0.352 0.098,0.53 0.022,0.153 0.062,0.295 0.1,0.445 0.048,0.19 0.069,0.384 0.105,0.576 0.041,0.216 0.039,0.434 0.075,0.65 0.031,0.176 0.041,0.346 0.041,0.524 0,0.131 -0.014,0.252 -0.037,0.381 -0.005,0.031 0.002,0.059 -0.028,0.078 -0.011,0.007 -0.027,-0.001 -0.036,0.004 -0.017,0.008 -0.02,0.017 -0.035,0.026 -0.048,0.029 -0.092,0.064 -0.141,0.096 -0.056,0.037 -0.142,0.019 -0.207,0.019 -0.056,10e-4 -0.103,0.016 -0.159,0.026 -0.102,0.019 -0.201,0.018 -0.304,0.005 -0.108,-0.014 -0.215,-0.038 -0.325,-0.033 -0.126,0.006 -0.253,0.052 -0.379,0.071 -0.135,0.02 -0.27,0.029 -0.406,0.052 -0.198,0.034 -0.397,0.047 -0.597,0.061 -0.265,0.019 -0.529,0.011 -0.794,0.024 -0.328,0.017 -0.657,0.027 -0.986,0.007 -0.392,-0.025 -0.781,-0.062 -1.17,-0.118 -0.389,-0.055 -0.781,-0.085 -1.17,-0.144 -0.208,-0.031 -0.413,-0.08 -0.62,-0.112 -0.267,-0.041 -0.537,-0.047 -0.801,-0.103 -0.349,-0.074 -0.696,-0.168 -1.036,-0.273 -0.7,-0.218 -1.381,-0.495 -2.078,-0.722 -0.004,-10e-4 -0.007,-0.002 -0.01,-0.004 0.013,0.002 0.026,0.003 0.039,0.005 0.291,0.041 0.571,0.127 0.859,0.185 0.237,0.048 0.466,0.118 0.702,0.166 0.194,0.04 0.37,0.12 0.559,0.177 0.327,0.099 0.639,0.267 0.977,0.327 0.204,0.037 0.41,0.06 0.613,0.105 0.196,0.044 0.384,0.071 0.586,0.079 0.198,0.007 0.394,0.034 0.593,0.039 0.106,0.002 0.219,0.006 0.326,-0.005 0.132,-0.013 0.261,-0.037 0.395,-0.038 0.325,-10e-4 0.653,-0.052 0.977,-0.084 0.188,-0.019 0.374,-0.009 0.562,-0.014 0.206,-0.006 0.415,-0.022 0.621,-0.037 0.187,-0.013 0.378,-0.027 0.565,-0.025 0.199,0.002 0.396,-0.016 0.595,-0.021 0.2,-0.005 0.405,-0.004 0.606,0 0.217,0.004 0.44,0.053 0.654,10e-4 0.067,-0.016 0.254,-0.042 0.283,-0.12 0.028,-0.077 -0.104,-0.271 -0.136,-0.335 -0.063,-0.123 -0.099,-0.257 -0.166,-0.377 -0.053,-0.096 -0.085,-0.186 -0.105,-0.294 -0.029,-0.153 -0.046,-0.307 -0.076,-0.46 -0.03,-0.155 -0.045,-0.313 -0.126,-0.452 C -4.03,12.917 -4.321,12.588 -4.603,12.246 -4.83,11.97 -5.088,11.712 -5.342,11.462 -5.47,11.336 -5.602,11.215 -5.731,11.091 -5.899,10.929 -6.046,10.747 -6.216,10.589 -6.907,9.948 -7.687,9.42 -8.459,8.885 -8.663,8.744 -8.867,8.602 -9.072,8.464 -9.381,8.255 -9.677,8.032 -9.979,7.813 c -0.152,-0.11 -0.311,-0.21 -0.466,-0.317 -0.234,-0.161 -0.452,-0.344 -0.675,-0.52 -0.183,-0.145 -0.368,-0.287 -0.545,-0.438 -0.242,-0.205 -0.468,-0.428 -0.707,-0.636 -0.339,-0.296 -0.696,-0.571 -1.036,-0.868 -0.225,-0.196 -0.456,-0.387 -0.68,-0.586 -0.184,-0.165 -0.36,-0.339 -0.546,-0.5 -0.281,-0.244 -0.571,-0.477 -0.836,-0.738 -0.37,-0.363 -0.741,-0.725 -0.945,-1.213 0.047,-0.01 0.087,0.011 0.128,0.033 0.111,0.061 0.228,0.112 0.344,0.163 0.196,0.087 0.39,0.188 0.59,0.265 0.209,0.08 0.428,0.122 0.642,0.183 0.296,0.086 0.585,0.192 0.873,0.297 0.214,0.078 0.432,0.133 0.652,0.188 0.095,0.024 0.191,0.048 0.287,0.068 0.472,0.534 0.945,1.069 1.426,1.596 0.283,0.208 0.581,0.394 0.863,0.605 0.408,0.306 0.82,0.61 1.221,0.926 0.277,0.223 0.551,0.45 0.822,0.682 0.111,0.083 0.216,0.172 0.316,0.268 0.025,0.034 0.035,0.071 0.066,0.102 0.051,0.035 0.1,0.073 0.146,0.114 0.109,0.094 0.214,0.192 0.316,0.294 0.236,0.231 0.457,0.472 0.713,0.681 0.254,0.207 0.535,0.403 0.739,0.664 0.04,0.05 0.074,0.123 0.122,0.167 0.04,0.037 0.094,0.063 0.142,0.089 0.196,0.101 0.389,0.203 0.581,0.311 0.175,0.099 0.347,0.2 0.523,0.29 C -4.872,9.83 -4.842,9.678 -4.839,9.521 -4.836,9.423 -4.811,9.338 -4.812,9.238 -4.813,9.108 -4.763,8.997 -4.742,8.865 -4.721,8.732 -4.685,8.609 -4.645,8.481 -4.613,8.38 -4.584,8.277 -4.553,8.175 -4.574,8.153 -4.595,8.13 -4.616,8.108 -4.622,8.101 -4.628,8.095 -4.634,8.088 c 0.1,-0.18 0.142,-0.397 0.093,-0.621 V 7.466 C -4.51,7.43 -4.481,7.39 -4.454,7.346 -3.946,6.52 -3.756,5.596 -3.569,4.657 -3.48,4.215 -3.386,3.772 -3.307,3.327 -3.243,3.307 -3.191,3.198 -3.164,3.158 -2.995,2.899 -2.814,2.649 -2.659,2.38 -2.584,2.25 -2.526,2.105 -2.446,1.979 -2.34,1.81 -2.202,1.66 -2.063,1.516 c 0.432,-0.448 0.782,-0.958 1.179,-1.435 0.14,-0.168 0.289,-0.328 0.396,-0.52 0.041,-0.074 0.043,-0.105 0.13,-0.106 0.027,0 0.091,-0.012 0.113,0.004 0.028,0.02 0.008,0.069 0.024,0.087 0.029,0.032 0.089,-0.051 0.133,-0.054 C 0,-0.513 0.042,-0.415 0.088,-0.358 0.124,-0.314 0.192,-0.314 0,0"
             style="fill:#100f0d;fill-opacity:1;fill-rule:nonzero;stroke:none"
             id="path52507" />
        </g>
      </g>
    </g>
  </g>
</svg>
