<?xml version="1.0" encoding="UTF-8" standalone="no"?>
<!-- Created with Inkscape (http://www.inkscape.org/) -->

<svg
   width="24.390238"
   height="24"
   viewBox="0 0 6.4532504 6.35"
   version="1.1"
   id="svg55740"
   inkscape:version="1.2.1 (9c6d41e4, 2022-07-14)"
   sodipodi:docname="spiders.svg"
   xmlns:inkscape="http://www.inkscape.org/namespaces/inkscape"
   xmlns:sodipodi="http://sodipodi.sourceforge.net/DTD/sodipodi-0.dtd"
   xmlns="http://www.w3.org/2000/svg"
   xmlns:svg="http://www.w3.org/2000/svg">
  <sodipodi:namedview
     id="namedview55742"
     pagecolor="#505050"
     bordercolor="#eeeeee"
     borderopacity="1"
     inkscape:showpageshadow="0"
     inkscape:pageopacity="0"
     inkscape:pagecheckerboard="0"
     inkscape:deskcolor="#505050"
     inkscape:document-units="mm"
     showgrid="false"
     inkscape:zoom="0.7046647"
     inkscape:cx="113.52917"
     inkscape:cy="104.30493"
     inkscape:window-width="1390"
     inkscape:window-height="941"
     inkscape:window-x="0"
     inkscape:window-y="25"
     inkscape:window-maximized="0"
     inkscape:current-layer="layer1" />
  <defs
     id="defs55737">
    <clipPath
       clipPathUnits="userSpaceOnUse"
       id="clipPath52515">
      <path
         d="m 319.75,365.056 h 24.7 v 24.7 h -24.7 z"
         id="path52513" />
    </clipPath>
  </defs>
  <g
     inkscape:label="Layer 1"
     inkscape:groupmode="layer"
     id="layer1"
     transform="translate(-75.164245,-121.40652)">
    <g
       id="g52509"
       transform="matrix(0.30886981,0,0,-0.30886981,-24.154353,241.14479)">
      <g
         id="g52511"
         clip-path="url(#clipPath52515)">
        <g
           id="g52517"
           transform="translate(333.57,383.273)">
          <path
             d="m 0,0 c 0.052,0.001 0.09,0.01 0.139,0.027 0.064,0.023 0.11,0.055 0.163,0.095 0.079,0.06 0.167,0.104 0.239,0.172 0.051,0.048 0.112,0.082 0.162,0.129 0.043,0.039 0.068,0.097 0.106,0.142 0.045,0.053 0.108,0.108 0.137,0.173 0.017,0.04 0.027,0.085 0.042,0.125 0.04,0.11 0.088,0.199 0.149,0.298 0.047,0.077 0.1,0.149 0.14,0.231 0.021,0.043 0.053,0.083 0.072,0.127 0.013,0.032 0.02,0.071 0.029,0.104 0.038,0.143 0.038,0.287 0.067,0.429 0.016,0.081 0.04,0.158 0.081,0.229 0.049,0.085 0.098,0.178 0.153,0.26 0.054,0.08 0.132,0.137 0.204,0.2 0.068,0.058 0.115,0.123 0.192,0.169 0.089,0.053 0.173,0.106 0.258,0.165 0.097,0.068 0.207,0.11 0.309,0.17 0.084,0.05 0.17,0.093 0.259,0.134 0.068,0.032 0.124,0.053 0.177,0.106 0.084,0.082 0.197,0.135 0.286,0.212 0.091,0.079 0.202,0.146 0.305,0.209 0.093,0.057 0.19,0.068 0.298,0.081 0.183,0.021 0.37,0.024 0.554,0.027 0.403,0.007 0.807,10e-4 1.211,10e-4 0.232,0 0.463,0.004 0.695,0.001 C 6.501,4.015 6.57,3.998 6.641,3.977 6.769,3.939 6.9,3.914 7.026,3.873 7.202,3.815 7.37,3.72 7.533,3.634 7.718,3.535 7.907,3.437 8.085,3.328 8.205,3.254 8.337,3.204 8.468,3.151 8.419,3.155 8.369,3.153 8.32,3.153 8.07,3.152 7.821,3.161 7.571,3.166 7.093,3.177 6.614,3.17 6.135,3.17 c -0.214,0 -0.428,0 -0.642,0 C 5.333,3.17 5.186,3.155 5.028,3.131 4.95,3.12 4.881,3.094 4.809,3.066 4.718,3.031 4.66,2.962 4.596,2.892 4.508,2.796 4.42,2.713 4.319,2.632 4.2,2.537 4.096,2.46 4.011,2.333 3.882,2.142 3.697,2.027 3.497,1.917 3.288,1.802 3.072,1.723 2.84,1.669 2.793,1.658 2.79,1.659 2.764,1.628 2.727,1.583 2.699,1.525 2.661,1.478 2.556,1.348 2.488,1.193 2.391,1.057 2.319,0.956 2.233,0.872 2.155,0.777 2.093,0.701 2.036,0.629 1.967,0.559 1.912,0.504 1.86,0.431 1.838,0.354 1.818,0.283 1.833,0.198 1.828,0.125 1.815,-0.092 1.794,-0.285 1.638,-0.449 1.591,-0.498 1.534,-0.536 1.483,-0.581 1.436,-0.621 1.407,-0.665 1.367,-0.708 1.312,-0.765 1.254,-0.83 1.195,-0.88 1.128,-0.936 1.068,-1.004 1,-1.058 0.962,-1.088 0.918,-1.099 0.88,-1.126 0.86,-1.141 0.843,-1.185 0.813,-1.179 0.803,-1.146 0.815,-1.112 0.812,-1.078 0.807,-1.014 0.788,-0.923 0.758,-0.865 0.743,-0.847 0.73,-0.828 0.717,-0.808 0.699,-0.776 0.688,-0.742 0.682,-0.706 0.668,-0.661 0.635,-0.642 0.616,-0.6 0.596,-0.557 0.598,-0.513 0.566,-0.475 0.53,-0.432 0.467,-0.417 0.423,-0.385 0.295,-0.293 0.222,-0.14 0,0"
             style="fill:#100f0d;fill-opacity:1;fill-rule:nonzero;stroke:none"
             id="path52519" />
        </g>
        <g
           id="g52521"
           transform="translate(334.873,381.723)">
          <path
             d="M 0,0 C 0.089,0 0.18,-0.007 0.268,0.002 0.519,0.028 0.77,0.126 0.993,0.238 1.351,0.418 1.678,0.646 2.055,0.79 2.218,0.852 2.363,0.949 2.519,1.028 2.77,1.156 3.039,1.224 3.315,1.269 3.554,1.308 3.81,1.286 4.051,1.286 h 0.405 c 0.035,0 0.103,0.012 0.135,-0.002 C 4.475,1.202 4.318,1.157 4.192,1.095 4.077,1.039 3.97,0.969 3.854,0.915 3.72,0.853 3.604,0.764 3.47,0.699 3.391,0.661 3.308,0.639 3.23,0.599 3.191,0.579 3.147,0.567 3.108,0.546 3.067,0.524 3.032,0.5 2.986,0.486 2.824,0.439 2.64,0.413 2.497,0.319 2.423,0.27 2.376,0.19 2.309,0.131 2.174,0.012 2.015,-0.063 1.859,-0.15 1.783,-0.193 1.715,-0.246 1.642,-0.292 1.587,-0.327 1.529,-0.359 1.477,-0.4 1.456,-0.417 1.454,-0.426 1.444,-0.449 1.427,-0.49 1.406,-0.537 1.383,-0.579 1.346,-0.648 1.291,-0.701 1.238,-0.758 1.172,-0.83 1.064,-0.868 0.974,-0.906 0.904,-0.935 0.833,-0.962 0.761,-0.984 0.741,-0.99 0.64,-1.003 0.628,-1.039 0.641,-1.077 0.696,-1.076 0.729,-1.083 0.866,-1.115 0.996,-1.171 1.133,-1.203 1.3,-1.242 1.471,-1.262 1.638,-1.302 c 0.108,-0.025 0.213,-0.061 0.321,-0.085 0.133,-0.031 0.267,-0.05 0.401,-0.074 0.365,-0.063 0.704,-0.205 1.061,-0.292 0.27,-0.066 0.534,-0.128 0.812,-0.145 0.117,-0.008 0.234,-0.001 0.35,-0.019 0.1,-0.015 0.178,-0.056 0.261,-0.109 0.129,-0.081 0.246,-0.179 0.363,-0.275 0.145,-0.12 0.295,-0.227 0.42,-0.367 0.159,-0.179 0.339,-0.334 0.516,-0.494 0.183,-0.166 0.398,-0.323 0.532,-0.534 0.064,-0.101 0.102,-0.19 0.107,-0.311 C 6.785,-4.104 6.797,-4.187 6.826,-4.28 6.859,-4.384 6.888,-4.489 6.905,-4.598 6.922,-4.7 6.923,-4.801 6.954,-4.901 6.996,-5.031 7.029,-5.164 7.059,-5.298 7.117,-5.557 7.186,-5.809 7.254,-6.065 7.304,-6.25 7.385,-6.428 7.427,-6.614 7.462,-6.769 7.468,-6.93 7.494,-7.086 7.515,-7.205 7.545,-7.323 7.565,-7.441 7.581,-7.536 7.573,-7.632 7.573,-7.727 7.574,-7.866 7.572,-8.002 7.554,-8.14 7.525,-8.37 7.465,-8.594 7.442,-8.825 7.411,-9.132 7.401,-9.44 7.344,-9.744 c -0.053,-0.28 -0.146,-0.544 -0.26,-0.805 -0.047,-0.109 -0.083,-0.219 -0.126,-0.329 -0.015,-0.04 -0.016,-0.069 -0.021,-0.11 -0.007,-0.077 -0.028,-0.154 -0.039,-0.23 -0.027,-0.17 -0.089,-0.307 -0.185,-0.451 -0.079,-0.12 -0.181,-0.225 -0.273,-0.335 -0.083,-0.101 -0.164,-0.205 -0.245,-0.307 -0.078,-0.098 -0.154,-0.201 -0.239,-0.291 -0.093,-0.098 -0.194,-0.185 -0.294,-0.276 -0.157,-0.144 -0.29,-0.302 -0.424,-0.467 -0.231,-0.281 -0.533,-0.521 -0.844,-0.709 -0.164,-0.099 -0.331,-0.193 -0.501,-0.282 -0.073,-0.037 -0.149,-0.078 -0.229,-0.1 -0.009,0.038 0.006,0.077 0.016,0.114 0.087,0.318 0.245,0.6 0.404,0.888 0.186,0.338 0.391,0.659 0.605,0.979 0.165,0.246 0.326,0.487 0.51,0.718 0.109,0.134 0.229,0.281 0.289,0.446 0.058,0.161 0.133,0.31 0.182,0.475 0.098,0.336 0.2,0.669 0.284,1.008 0.032,0.126 0.065,0.249 0.103,0.372 0.012,0.038 0.047,0.122 0.053,0.173 0.005,0.039 0.002,0.075 0.01,0.115 0.011,0.055 0.028,0.11 0.045,0.164 0.012,0.039 0.037,0.085 0.034,0.127 -0.003,0.025 -0.013,0.042 -0.024,0.064 -0.031,0.063 -0.054,0.127 -0.077,0.193 -0.106,0.303 -0.201,0.609 -0.26,0.924 -0.054,0.292 -0.06,0.585 -0.076,0.881 -0.012,0.202 -0.038,0.402 -0.07,0.603 -0.041,0.258 -0.056,0.522 -0.113,0.777 -0.025,0.114 -0.055,0.226 -0.072,0.341 -0.023,0.154 -0.038,0.31 -0.064,0.463 -0.024,0.154 -0.055,0.31 -0.117,0.454 -0.012,0.03 -0.019,0.041 -0.044,0.066 -0.106,0.107 -0.24,0.187 -0.366,0.268 C 4.663,-3.66 4.391,-3.522 4.119,-3.394 3.909,-3.295 3.691,-3.206 3.477,-3.117 3.33,-3.056 3.191,-2.987 3.039,-2.942 2.878,-2.895 2.755,-2.793 2.62,-2.698 2.498,-2.612 2.379,-2.535 2.248,-2.465 2.161,-2.418 2.078,-2.363 1.99,-2.318 1.969,-2.307 1.952,-2.292 1.931,-2.287 1.895,-2.279 1.845,-2.301 1.812,-2.311 1.702,-2.345 1.594,-2.371 1.48,-2.384 c -0.147,-0.018 -0.29,-0.017 -0.437,0 -0.182,0.02 -0.357,0.068 -0.536,0.103 -0.127,0.025 -0.246,0.043 -0.374,0.044 -0.036,10e-4 -0.034,-0.002 -0.055,0.026 -0.017,0.022 -0.024,0.047 -0.033,0.073 -0.029,0.079 -0.051,0.165 -0.07,0.248 -0.029,0.122 -0.031,0.239 -0.045,0.361 -0.002,0.019 -0.014,0.035 -0.016,0.052 -0.005,0.053 0.022,0.101 0.045,0.147 0.048,0.097 0.108,0.182 0.131,0.29 0.019,0.091 0.023,0.189 0.015,0.282 -0.008,0.101 -0.056,0.171 -0.089,0.263 -0.027,0.075 -0.041,0.17 -0.052,0.249 C -0.044,-0.188 -0.026,-0.14 0,0"
             style="fill:#100f0d;fill-opacity:1;fill-rule:nonzero;stroke:none"
             id="path52523" />
        </g>
        <g
           id="g52525"
           transform="translate(329.605,383.039)">
          <path
             d="M 0,0 C -0.035,0.031 -0.077,0.052 -0.112,0.084 -0.164,0.13 -0.195,0.187 -0.234,0.246 -0.341,0.403 -0.461,0.551 -0.567,0.708 -0.646,0.823 -0.725,0.929 -0.82,1.031 -0.927,1.145 -1.056,1.225 -1.18,1.319 -1.316,1.422 -1.462,1.516 -1.61,1.6 -1.712,1.658 -1.826,1.663 -1.929,1.715 -2.035,1.768 -2.15,1.816 -2.243,1.891 -2.34,1.968 -2.431,2.05 -2.53,2.125 -2.654,2.218 -2.788,2.298 -2.924,2.373 -3.138,2.491 -3.376,2.461 -3.611,2.474 -3.715,2.479 -3.818,2.492 -3.917,2.524 -3.99,2.548 -4.046,2.586 -4.113,2.623 -4.154,2.646 -4.2,2.658 -4.239,2.684 c -0.033,0.023 -0.058,0.05 -0.092,0.07 -0.09,0.054 -0.17,0.123 -0.263,0.172 -0.17,0.09 -0.345,0.16 -0.531,0.212 C -5.211,3.163 -5.298,3.196 -5.387,3.209 -5.407,3.212 -5.428,3.208 -5.444,3.222 -5.49,3.191 -5.528,3.139 -5.565,3.099 -5.698,2.956 -5.835,2.819 -5.985,2.695 -6.156,2.553 -6.321,2.423 -6.52,2.321 -6.685,2.236 -6.855,2.155 -7.026,2.082 -7.078,2.059 -7.07,2.048 -7.081,1.998 -7.099,1.909 -7.14,1.818 -7.171,1.733 -7.25,1.527 -7.333,1.321 -7.412,1.115 -7.491,0.907 -7.592,0.711 -7.676,0.506 c -0.13,-0.319 -0.244,-0.658 -0.293,-1 -0.03,-0.214 -0.035,-0.433 -0.04,-0.65 -0.004,-0.191 -0.032,-0.38 -0.036,-0.572 -0.009,-0.412 -10e-4,-0.826 -10e-4,-1.239 v -0.352 c 0,-0.039 -0.011,-0.098 0.003,-0.135 0.025,0.03 0.035,0.093 0.045,0.128 0.025,0.116 0.057,0.23 0.095,0.342 0.06,0.17 0.128,0.336 0.205,0.499 0.096,0.235 0.157,0.481 0.24,0.72 0.073,0.206 0.148,0.412 0.219,0.618 0.089,0.259 0.149,0.517 0.211,0.783 0.036,0.18 0.081,0.357 0.135,0.533 0.048,0.133 0.098,0.264 0.149,0.395 0.06,0.165 0.134,0.316 0.219,0.47 0.024,0.044 0.065,0.146 0.118,0.175 0.026,0.014 0.062,0.015 0.09,0.026 0.082,0.045 0.165,0.091 0.247,0.136 0.188,0.104 0.379,0.203 0.573,0.297 0.091,0.039 0.182,0.082 0.27,0.128 0.062,0.038 0.123,0.076 0.183,0.116 0.054,0.031 0.112,0.061 0.167,0.09 0.038,0.02 0.117,0.068 0.162,0.054 0.017,-0.006 0.033,-0.023 0.05,-0.031 0.103,-0.048 0.212,-0.085 0.315,-0.13 0.223,-0.096 0.436,-0.193 0.677,-0.231 0.215,-0.033 0.427,-0.041 0.644,-0.05 0.14,-0.005 0.273,-0.031 0.411,-0.049 0.034,-0.005 0.105,-0.005 0.137,-0.026 0.017,-0.025 0.028,-0.053 0.033,-0.083 0.01,-0.036 0.023,-0.069 0.04,-0.101 0.072,-0.149 0.124,-0.304 0.212,-0.444 0.086,-0.115 0.163,-0.236 0.231,-0.362 0.07,-0.144 0.138,-0.288 0.207,-0.433 0.114,-0.225 0.267,-0.432 0.371,-0.662 0.036,-0.082 0.054,-0.175 0.11,-0.247 0.028,-0.036 0.053,-0.056 0.1,-0.06 0.113,-0.009 0.236,0.052 0.34,0.085 0.075,0.022 0.15,0.046 0.224,0.074 0.02,0.007 0.04,0.013 0.061,0.018 0.037,0.023 0.038,0.067 0.061,0.104 0.028,0.042 0.06,0.076 0.083,0.122 0.047,0.091 0.068,0.192 0.107,0.286 0.011,0.024 0.058,0.077 0.057,0.105 L 0.108,-0.1 C 0.07,-0.088 0.031,-0.027 0,0"
             style="fill:#100f0d;fill-opacity:1;fill-rule:nonzero;stroke:none"
             id="path52527" />
        </g>
        <g
           id="g52529"
           transform="translate(328.506,381.111)">
          <path
             d="m 0,0 c -0.151,-0.018 -0.309,-0.004 -0.46,-0.005 -0.312,-0.002 -0.611,0.074 -0.923,0.072 -0.069,0 -0.138,0.001 -0.206,0.001 -0.138,-0.002 -0.275,-0.029 -0.41,-0.053 -0.088,-0.016 -0.176,-0.03 -0.262,-0.055 -0.114,-0.034 -0.216,-0.093 -0.325,-0.14 -0.16,-0.069 -0.325,-0.122 -0.473,-0.213 -0.073,-0.045 -0.146,-0.088 -0.221,-0.128 -0.023,-0.013 -0.058,-0.029 -0.078,-0.05 -0.011,-0.012 -0.024,-0.039 -0.035,-0.052 -0.041,-0.052 -0.089,-0.097 -0.133,-0.146 -0.12,-0.134 -0.245,-0.259 -0.369,-0.389 -0.111,-0.117 -0.198,-0.25 -0.295,-0.378 -0.069,-0.091 -0.13,-0.198 -0.206,-0.283 -0.027,-0.029 -0.06,-0.05 -0.086,-0.08 -0.2,-0.235 -0.373,-0.495 -0.58,-0.725 -0.177,-0.199 -0.36,-0.392 -0.52,-0.606 C -5.655,-3.327 -5.721,-3.429 -5.794,-3.525 -5.85,-3.597 -5.913,-3.663 -5.96,-3.74 -6.026,-3.847 -6.066,-3.95 -6.094,-4.071 -6.131,-4.229 -6.15,-4.391 -6.176,-4.551 -6.221,-4.819 -6.261,-5.09 -6.295,-5.36 -6.306,-5.447 -6.323,-5.533 -6.336,-5.619 -6.347,-5.69 -6.34,-5.762 -6.352,-5.831 c -0.019,-0.111 -0.015,-0.221 -0.014,-0.335 0,-0.233 0.007,-0.464 -0.02,-0.696 -0.048,-0.417 -0.123,-0.831 -0.176,-1.247 -0.053,-0.427 -0.102,-0.85 -0.118,-1.279 -0.009,-0.261 -0.01,-0.527 -0.056,-0.784 -0.025,-0.138 -0.057,-0.286 -0.056,-0.426 0.002,-0.127 0.04,-0.256 0.069,-0.379 0.061,-0.263 0.131,-0.524 0.181,-0.79 0.059,-0.311 0.106,-0.626 0.151,-0.939 0.018,-0.123 0.023,-0.255 0.047,-0.378 0.015,-0.076 0.047,-0.146 0.065,-0.22 0.014,-0.057 0.022,-0.118 0.036,-0.173 0.031,-0.123 0.131,-0.224 0.196,-0.331 -0.009,0.055 -0.021,0.117 -0.016,0.17 0.006,0.066 0.011,0.141 0.031,0.204 0.016,0.049 0.022,0.096 0.018,0.148 -10e-4,0.024 -0.01,0.032 -0.014,0.053 -0.009,0.058 -0.004,0.117 -0.004,0.175 0,0.171 0,0.342 0,0.513 0,0.219 0.001,0.437 0,0.655 0,0.203 -0.005,0.407 0.033,0.608 0.059,0.311 0.224,0.586 0.318,0.885 0.096,0.309 0.153,0.642 0.228,0.955 0.119,0.494 0.284,0.996 0.317,1.505 0.018,0.273 0.007,0.552 0.001,0.825 -0.003,0.171 0.019,0.29 0.066,0.46 0.1,0.357 0.194,0.721 0.326,1.067 0.05,0.115 0.095,0.232 0.134,0.351 0.019,0.096 0.038,0.192 0.056,0.288 0.03,0.12 0.066,0.237 0.089,0.359 0.03,0.164 0.07,0.33 0.146,0.479 0.067,0.12 0.145,0.233 0.232,0.34 0.128,0.161 0.255,0.323 0.383,0.485 0.175,0.228 0.326,0.475 0.594,0.604 0.297,0.142 0.634,0.176 0.934,0.311 0.237,0.106 0.428,0.267 0.641,0.41 0.148,0.101 0.303,0.195 0.422,0.332 0.227,0.261 0.449,0.551 0.739,0.746 0.055,0.037 0.095,0.077 0.121,0.137 0.037,0.084 0.076,0.163 0.121,0.243 0.018,0.031 0.063,0.16 0.105,0.161 L 0.15,0.014 C 0.098,0.015 0.052,0.007 0,0"
             style="fill:#100f0d;fill-opacity:1;fill-rule:nonzero;stroke:none"
             id="path52531" />
        </g>
        <g
           id="g52533"
           transform="translate(334.803,379.029)">
          <path
             d="m 0,0 c 0.025,0.007 0.037,-0.013 0.055,-0.024 0.061,-0.037 0.119,-0.075 0.179,-0.113 0.234,-0.147 0.47,-0.292 0.705,-0.44 0.206,-0.129 0.408,-0.26 0.597,-0.414 C 1.71,-1.133 1.866,-1.293 2.054,-1.418 2.21,-1.521 2.369,-1.622 2.522,-1.73 2.61,-1.792 2.706,-1.84 2.784,-1.912 2.8,-1.927 2.81,-1.934 2.817,-1.953 2.825,-1.973 2.824,-2.013 2.829,-2.033 2.852,-2.138 2.872,-2.242 2.893,-2.347 2.957,-2.656 3.051,-2.957 3.115,-3.266 3.172,-3.542 3.207,-3.817 3.311,-4.081 3.368,-4.225 3.421,-4.384 3.5,-4.518 3.563,-4.624 3.623,-4.728 3.682,-4.837 3.758,-4.978 3.841,-5.113 3.91,-5.258 3.952,-5.347 3.987,-5.437 4.021,-5.528 4.041,-5.579 4.065,-5.635 4.069,-5.69 4.079,-5.804 4.067,-5.925 4.054,-6.038 3.999,-6.488 3.802,-6.9 3.69,-7.336 3.627,-7.584 3.551,-7.832 3.465,-8.07 3.404,-8.241 3.265,-8.399 3.164,-8.546 3.049,-8.714 2.936,-8.882 2.825,-9.052 2.752,-9.165 2.673,-9.28 2.613,-9.402 2.574,-9.482 2.546,-9.566 2.513,-9.649 2.45,-9.807 2.385,-9.968 2.313,-10.122 c -0.082,-0.175 -0.17,-0.344 -0.273,-0.507 -0.031,-0.051 -0.064,-0.1 -0.091,-0.153 -0.016,-0.033 -0.026,-0.07 -0.047,-0.099 -0.02,-0.029 -0.05,-0.048 -0.07,-0.077 -0.045,-0.062 -0.088,-0.127 -0.134,-0.19 -0.098,-0.137 -0.189,-0.264 -0.309,-0.383 -0.073,-0.072 -0.156,-0.131 -0.226,-0.206 -0.071,-0.078 -0.162,-0.148 -0.262,-0.185 -0.012,0.024 0.003,0.058 0.01,0.082 0.032,0.097 0.092,0.188 0.145,0.275 0.075,0.123 0.158,0.241 0.237,0.361 0.116,0.175 0.215,0.358 0.319,0.54 0.103,0.18 0.195,0.367 0.262,0.563 0.087,0.253 0.219,0.484 0.288,0.744 0.029,0.112 0.071,0.214 0.111,0.322 0.054,0.143 0.079,0.297 0.126,0.442 0.047,0.146 0.087,0.29 0.12,0.44 0.034,0.157 0.083,0.31 0.122,0.466 0.06,0.236 0.079,0.479 0.115,0.718 0.007,0.045 0.021,0.089 0.025,0.134 0.004,0.038 -0.001,0.074 0.006,0.111 0.011,0.062 0.029,0.144 0.015,0.208 C 2.796,-6.492 2.78,-6.481 2.766,-6.462 2.731,-6.413 2.707,-6.35 2.683,-6.295 2.61,-6.122 2.552,-5.94 2.501,-5.759 2.441,-5.543 2.413,-5.324 2.383,-5.102 2.357,-4.915 2.317,-4.735 2.273,-4.551 2.24,-4.413 2.228,-4.272 2.192,-4.134 2.119,-3.859 2.037,-3.586 1.956,-3.313 1.925,-3.206 1.895,-3.099 1.862,-2.993 1.842,-2.927 1.831,-2.835 1.795,-2.776 1.764,-2.724 1.709,-2.723 1.657,-2.695 1.56,-2.645 1.476,-2.577 1.391,-2.51 1.299,-2.437 1.194,-2.377 1.117,-2.287 1.054,-2.213 0.998,-2.133 0.933,-2.06 0.848,-1.963 0.762,-1.869 0.689,-1.763 0.59,-1.62 0.467,-1.499 0.352,-1.37 c -0.087,0.098 -0.158,0.205 -0.234,0.311 -0.044,0.061 -0.088,0.127 -0.136,0.186 -0.071,0.088 -0.192,0.136 -0.293,0.182 -0.038,0.018 -0.103,0.03 -0.114,0.074 -0.01,0.044 0.03,0.102 0.05,0.137 C -0.292,-0.338 -0.186,-0.213 0,0"
             style="fill:#100f0d;fill-opacity:1;fill-rule:nonzero;stroke:none"
             id="path52535" />
        </g>
        <g
           id="g52537"
           transform="translate(331.42,368.294)">
          <path
             d="m 0,0 c -0.078,0.119 -0.168,0.229 -0.246,0.348 -0.099,0.151 -0.205,0.299 -0.308,0.447 -0.09,0.129 -0.191,0.252 -0.278,0.384 -0.031,0.047 -0.065,0.087 -0.099,0.132 -0.04,0.052 -0.065,0.108 -0.11,0.159 -0.103,0.116 -0.2,0.232 -0.288,0.361 -0.125,0.185 -0.25,0.362 -0.393,0.535 -0.118,0.143 -0.2,0.304 -0.304,0.456 -0.206,0.301 -0.421,0.597 -0.633,0.893 -0.074,0.103 -0.158,0.202 -0.21,0.318 -0.03,0.07 -0.044,0.146 -0.063,0.219 -0.059,0.225 -0.138,0.445 -0.185,0.673 -0.056,0.264 -0.084,0.539 -0.122,0.806 -0.029,0.205 -0.071,0.407 -0.104,0.612 -0.039,0.239 -0.02,0.488 -0.019,0.729 v 0.334 c 0,0.034 -0.007,0.073 -10e-4,0.106 0.006,0.039 0.035,0.077 0.051,0.113 0.121,0.277 0.259,0.544 0.384,0.819 0.087,0.189 0.191,0.369 0.262,0.566 0.052,0.142 0.106,0.285 0.166,0.424 0.045,0.102 0.108,0.182 0.175,0.27 0.025,0.033 0.077,0.078 0.074,0.125 -0.002,0.023 -0.024,0.051 -0.033,0.074 -0.015,0.036 -0.021,0.061 -0.022,0.102 -0.005,0.127 0.011,0.252 -0.025,0.377 -0.018,0.057 -0.036,0.115 -0.053,0.173 -0.03,0.102 -0.088,0.127 -0.181,0.163 -0.051,0.02 -0.1,0.023 -0.148,0.053 -0.023,0.014 -0.04,0.03 -0.068,0.034 l -0.317,0.036 C -3.26,10.753 -3.413,10.619 -3.538,10.487 -3.689,10.328 -3.839,10.161 -3.97,9.986 -4.032,9.903 -4.105,9.824 -4.163,9.738 -4.394,9.398 -4.497,8.995 -4.607,8.604 -4.677,8.356 -4.739,8.106 -4.805,7.857 -4.862,7.645 -4.93,7.435 -4.988,7.223 -5.051,6.997 -5.133,6.784 -5.231,6.57 -5.257,6.512 -5.244,6.451 -5.236,6.384 -5.2,6.082 -5.079,5.801 -5.026,5.503 -4.965,5.155 -4.86,4.815 -4.774,4.474 -4.689,4.132 -4.557,3.802 -4.416,3.48 -4.337,3.3 -4.212,3.107 -4.207,2.904 -4.206,2.888 -4.214,2.865 -4.205,2.849 -4.204,2.847 -4.184,2.836 -4.183,2.835 -4.164,2.813 -4.147,2.792 -4.13,2.769 -4.043,2.651 -3.949,2.543 -3.853,2.433 -3.787,2.356 -3.719,2.282 -3.647,2.211 -3.527,2.094 -3.391,1.997 -3.266,1.884 -3.064,1.702 -2.861,1.521 -2.661,1.335 -2.533,1.217 -2.383,1.13 -2.24,1.032 -2.106,0.939 -1.976,0.842 -1.835,0.76 -1.572,0.607 -1.309,0.454 -1.048,0.299 -0.944,0.237 -0.835,0.191 -0.726,0.139 -0.584,0.071 -0.458,-0.014 -0.332,-0.109 -0.093,-0.291 0.186,-0.455 0.372,-0.695 0.379,-0.704 0.384,-0.714 0.391,-0.724 0.339,-0.61 0.299,-0.484 0.229,-0.382 0.144,-0.259 0.082,-0.125 0,0"
             style="fill:#100f0d;fill-opacity:1;fill-rule:nonzero;stroke:none"
             id="path52539" />
        </g>
        <g
           id="g52541"
           transform="translate(331.811,367.57)">
          <path
             d="M 0,0 C 0.002,-0.005 0.004,-0.01 0.007,-0.015 0.03,-0.066 0.062,-0.11 0.088,-0.159 0.099,-0.181 0.124,-0.208 0.132,-0.23 0.091,-0.149 0.052,-0.074 0,0"
             style="fill:#100f0d;fill-opacity:1;fill-rule:nonzero;stroke:none"
             id="path52543" />
        </g>
        <g
           id="g52545"
           transform="translate(328.107,381.666)">
          <path
             d="M 0,0 C -0.006,0.057 -0.008,0.117 -0.035,0.169 -0.059,0.215 -0.094,0.255 -0.116,0.303 -0.164,0.407 -0.2,0.517 -0.251,0.622 -0.305,0.735 -0.372,0.846 -0.44,0.952 -0.493,1.033 -0.564,1.1 -0.613,1.184 -0.672,1.287 -0.735,1.392 -0.803,1.49 -0.838,1.54 -0.876,1.595 -0.896,1.653 -0.906,1.68 -0.908,1.71 -0.93,1.731 L -1.229,1.748 C -1.296,1.722 -1.369,1.721 -1.436,1.695 -1.523,1.662 -1.58,1.609 -1.639,1.536 -1.7,1.461 -1.786,1.363 -1.817,1.27 -1.839,1.203 -1.826,1.145 -1.831,1.077 -1.845,0.922 -1.864,0.769 -1.91,0.621 -1.976,0.404 -1.963,0.173 -1.918,-0.048 c 0.008,-0.035 0.016,-0.07 0.023,-0.105 0.014,-0.052 0.031,-0.103 0.05,-0.154 0.024,-0.031 0.026,-0.026 0.066,-0.023 0.062,0.004 0.125,0.028 0.19,0.036 0.205,0.025 0.409,0.036 0.616,0.035 0.151,-0.001 0.295,0.017 0.445,0.031 0.127,0.012 0.253,0.036 0.378,0.066 0.039,0.009 0.091,0.012 0.127,0.026 C 0.024,-0.117 0.004,-0.041 0,0"
             style="fill:#100f0d;fill-opacity:1;fill-rule:nonzero;stroke:none"
             id="path52547" />
        </g>
        <g
           id="g52549"
           transform="translate(329.748,383.132)">
          <path
             d="m 0,0 c 0.008,0.051 -0.031,0.114 -0.056,0.158 -0.055,0.097 -0.151,0.176 -0.223,0.261 -0.049,0.059 -0.095,0.12 -0.145,0.178 -0.1,0.117 -0.195,0.227 -0.28,0.355 -0.039,0.058 -0.06,0.063 -0.032,0.121 0.047,0.096 0.09,0.172 0.157,0.255 0.056,0.069 0.086,0.151 0.148,0.215 0.052,0.054 0.114,0.111 0.175,0.156 0.085,0.063 0.165,0.091 0.267,0.116 C 0.086,1.834 0.155,1.869 0.23,1.886 0.385,1.922 0.562,1.936 0.721,1.937 0.869,1.939 1.015,1.955 1.163,1.955 1.437,1.954 1.719,1.977 1.99,1.942 2.131,1.924 2.268,1.886 2.41,1.87 2.529,1.857 2.641,1.842 2.758,1.818 2.978,1.774 3.192,1.703 3.408,1.642 3.512,1.612 3.614,1.586 3.715,1.55 3.751,1.537 3.787,1.524 3.823,1.514 3.863,1.502 3.902,1.481 3.941,1.47 4.01,1.448 4.074,1.441 4.141,1.408 4.181,1.389 4.218,1.371 4.255,1.347 4.269,1.339 4.305,1.329 4.313,1.317 4.321,1.306 4.31,1.296 4.314,1.286 4.327,1.256 4.333,1.232 4.333,1.199 4.334,1.079 4.251,0.966 4.206,0.86 4.168,0.771 4.101,0.71 4.041,0.637 3.997,0.583 3.946,0.533 3.888,0.492 3.839,0.458 3.78,0.443 3.728,0.417 3.656,0.381 3.591,0.325 3.526,0.277 3.48,0.243 3.421,0.203 3.36,0.21 3.336,0.213 3.316,0.223 3.292,0.227 3.249,0.236 3.196,0.229 3.153,0.229 c -0.147,-0.001 -0.295,0 -0.442,0 H 1.757 C 1.481,0.229 1.2,0.247 0.927,0.198 0.832,0.181 0.752,0.163 0.664,0.123 0.576,0.083 0.492,0.055 0.399,0.025 0.332,0.004 0.262,-0.014 0.194,-0.031 0.154,-0.041 0.093,-0.079 0,0"
             style="fill:#100f0d;fill-opacity:1;fill-rule:nonzero;stroke:none"
             id="path52551" />
        </g>
        <g
           id="g52553"
           transform="translate(329.643,385.281)">
          <path
             d="M 0,0 C -0.053,-0.051 -0.128,-0.048 -0.193,-0.069 -0.32,-0.11 -0.44,-0.188 -0.56,-0.246 -0.629,-0.28 -0.699,-0.337 -0.757,-0.386 -0.782,-0.408 -0.808,-0.46 -0.845,-0.461 c -0.03,0 -0.068,0.039 -0.089,0.056 -0.034,0.028 -0.073,0.056 -0.104,0.089 -0.081,0.084 -0.109,0.215 -0.159,0.319 -0.057,0.118 -0.142,0.205 -0.21,0.315 -0.053,0.085 -0.1,0.173 -0.154,0.257 -0.021,0.032 -0.038,0.068 -0.057,0.1 C -1.651,0.728 -1.691,0.784 -1.729,0.833 -1.785,0.904 -1.845,0.963 -1.891,1.04 -1.948,1.134 -2.007,1.233 -2.072,1.322 -2.096,1.354 -2.115,1.37 -2.144,1.395 -2.194,1.438 -2.235,1.441 -2.3,1.46 -2.383,1.484 -2.457,1.526 -2.54,1.551 -2.646,1.582 -2.755,1.607 -2.86,1.642 -2.936,1.668 -3.002,1.709 -3.077,1.739 -3.198,1.787 -3.328,1.798 -3.451,1.836 -3.52,1.857 -3.587,1.886 -3.656,1.908 -3.777,1.945 -3.907,1.942 -4.032,1.951 -4.1,1.955 -4.163,1.967 -4.229,1.973 c -0.093,0.009 -0.195,0 -0.289,0 -0.201,0 -0.407,0.014 -0.607,-0.003 C -5.227,1.962 -5.325,1.936 -5.426,1.924 -5.528,1.911 -5.636,1.906 -5.734,1.877 -5.826,1.85 -5.905,1.794 -5.99,1.753 -6.103,1.699 -6.22,1.649 -6.336,1.605 -6.371,1.592 -6.441,1.546 -6.481,1.551 c -0.003,0.025 0.041,0.068 0.056,0.083 0.057,0.042 0.118,0.076 0.184,0.1 0.094,0.042 0.189,0.078 0.287,0.109 0.222,0.072 0.449,0.123 0.67,0.196 0.26,0.085 0.531,0.153 0.797,0.216 0.107,0.025 0.204,0.071 0.314,0.083 0.044,0.005 0.081,0.015 0.123,0.023 0.022,0.004 0.048,-0.007 0.07,-0.002 0.034,0.008 0.037,0.017 0.081,0.019 0.118,0.008 0.24,0 0.359,0 0.191,0 0.391,0.016 0.581,-0.001 0.063,-0.006 0.137,-0.019 0.197,-0.039 0.019,-0.008 0.036,-0.017 0.054,-0.027 0.024,-0.003 0.048,-0.01 0.071,-0.02 0.066,-0.039 0.13,-0.088 0.196,-0.128 0.068,-0.042 0.138,-0.082 0.208,-0.12 0.041,-0.02 0.083,-0.041 0.124,-0.061 l 0.121,-0.079 c 0.051,-0.025 0.101,-0.052 0.149,-0.081 0.068,-0.047 0.134,-0.095 0.2,-0.144 0.065,-0.04 0.134,-0.074 0.201,-0.111 0.08,-0.045 0.199,-0.087 0.258,-0.157 0.143,-0.171 0.239,-0.391 0.322,-0.596 0.083,-0.204 0.162,-0.43 0.312,-0.6 0.021,-0.023 0.047,-0.035 0.071,-0.054 0.029,-0.025 0.052,-0.071 0.088,-0.087 0.018,-0.009 0.05,-0.01 0.07,-0.016 C -0.286,0.048 -0.268,0.046 0,0"
             style="fill:#100f0d;fill-opacity:1;fill-rule:nonzero;stroke:none"
             id="path52555" />
        </g>
        <g
           id="g52557"
           transform="translate(333.426,381.955)">
          <path
             d="m 0,0 c -0.022,-0.128 -0.175,-0.203 -0.295,-0.196 -0.062,0.003 -0.127,0.045 -0.18,0.078 -0.067,0.042 -0.086,0.125 -0.076,0.2 0.006,0.041 0.026,0.066 0.044,0.102 0.017,0.034 0.026,0.071 0.052,0.101 0.047,0.054 0.099,0.055 0.18,0.042 0,0.004 0.001,0.008 0.002,0.011 C -0.236,0.331 -0.201,0.317 -0.168,0.295 -0.127,0.267 -0.085,0.253 -0.054,0.216 -0.008,0.164 0.012,0.071 0,0 m -0.602,-0.791 c -0.009,-0.07 -0.055,-0.116 -0.11,-0.152 -0.03,-0.02 -0.057,-0.032 -0.093,-0.041 -0.027,-0.007 -0.047,-0.009 -0.076,-0.009 -0.023,-0.001 -0.039,-0.011 -0.061,-0.015 -0.075,-0.013 -0.176,0.009 -0.235,0.05 -0.033,0.023 -0.054,0.051 -0.082,0.079 -0.028,0.028 -0.058,0.054 -0.073,0.094 -0.023,0.066 -0.048,0.146 -0.019,0.213 0.006,0.014 0.012,0.022 0.02,0.035 0.012,0.022 0.025,0.028 0.041,0.046 0.018,0.021 0.019,0.031 0.047,0.043 0.013,0.006 0.04,0.02 0.013,0.056 0.085,0.044 0.204,0.026 0.3,0.026 0.038,0 0.088,0.008 0.125,-0.001 0.037,-0.009 0.082,-0.031 0.111,-0.054 0.03,-0.024 0.045,-0.053 0.066,-0.084 0.004,-0.007 0.02,-0.026 0.023,-0.034 0.003,-0.009 0.001,-0.015 0.003,-0.023 0.001,-0.005 0.009,-0.026 0.01,-0.029 0.014,-0.066 -0.001,-0.137 -0.01,-0.2 m -0.818,0.588 c -0.024,-0.012 -0.05,-0.036 -0.074,-0.042 -0.028,-0.008 -0.061,-0.004 -0.089,-0.004 -0.052,0 -0.121,-0.012 -0.171,0 -0.01,0.002 -0.014,0.011 -0.025,0.014 -0.014,0.004 -0.025,10e-4 -0.04,0.009 -0.026,0.015 -0.031,0.043 -0.039,0.069 -0.018,0.06 -0.055,0.111 -0.082,0.17 -0.014,0.033 -0.012,0.061 0.007,0.092 0.018,0.028 0.045,0.081 0.109,0.065 0.014,0.018 0.044,0.02 0.064,0.028 0.035,0.012 0.062,0.011 0.099,0.011 0.065,0 0.117,0.002 0.176,-0.026 0.052,-0.024 0.109,-0.077 0.131,-0.131 0.009,-0.021 0.012,-0.047 0.021,-0.071 0.006,-0.014 0.012,-0.016 0.012,-0.033 0,-0.018 -0.008,-0.02 -0.012,-0.034 -0.018,-0.059 -0.029,-0.086 -0.087,-0.117 m -0.441,-0.635 c -0.015,-0.038 -0.022,-0.084 -0.048,-0.117 -0.022,-0.028 -0.051,-0.059 -0.079,-0.081 -0.048,-0.039 -0.101,-0.047 -0.158,-0.066 -0.052,-0.018 -0.112,-0.009 -0.166,-0.009 -0.052,0 -0.099,-0.008 -0.144,0.016 -0.03,0.016 -0.072,0.032 -0.092,0.062 -0.022,0.032 -0.023,0.059 -0.035,0.092 -0.005,0.012 -0.018,0.025 -0.021,0.038 -0.003,0.015 10e-4,0.037 10e-4,0.053 0,0.038 -0.004,0.076 0.006,0.111 0.013,0.042 0.03,0.083 0.05,0.122 0.017,0.032 0.028,0.067 0.049,0.099 0.009,0.015 0.026,0.024 0.036,0.037 0.005,0.007 0.007,0.017 0.012,0.024 0.011,0.014 0.025,0.015 0.04,0.025 0.008,0.005 0.02,0.021 0.03,0.025 0.011,0.005 0.027,0.002 0.039,0.004 0.024,0.006 0.038,0.01 -0.014,0.037 10e-4,0.003 0.002,0.007 0.003,0.011 0.092,0.013 0.182,0.027 0.272,-0.001 0.084,-0.027 0.153,-0.061 0.193,-0.141 0.036,-0.072 0.042,-0.143 0.042,-0.222 0,-0.045 -0.001,-0.076 -0.016,-0.119 m -0.874,1.112 c -0.032,0.008 -0.084,0.049 -0.097,0.079 -0.016,0.035 -0.006,0.089 -0.006,0.128 -10e-4,0.092 0.047,0.183 0.143,0.199 l -0.013,0.026 c 0.022,0 0.039,0.002 0.059,-0.007 C -2.63,0.69 -2.614,0.673 -2.596,0.662 -2.534,0.622 -2.523,0.568 -2.512,0.497 -2.504,0.44 -2.541,0.368 -2.577,0.326 -2.608,0.289 -2.685,0.262 -2.735,0.274 m 0.668,0.334 c -10e-4,0.059 0.021,0.107 0.062,0.151 0.032,0.035 0.076,0.026 0.121,0.026 l -0.052,0.052 c 0.024,0 0.054,0.005 0.077,0.002 0.037,-0.007 0.079,-0.038 0.107,-0.062 0.055,-0.048 0.09,-0.128 0.091,-0.2 0,-0.038 -0.019,-0.096 -0.055,-0.117 -0.031,-0.017 -0.107,-0.002 -0.142,-0.003 -0.043,0 -0.08,0.01 -0.122,0.014 -0.04,0.004 -0.04,0.007 -0.064,0.036 -0.028,0.033 -0.022,0.057 -0.023,0.101 m 0.968,0.111 c 0,0.048 0.009,0.104 0.052,0.134 0.042,0.031 0.094,0.023 0.144,0.023 L -0.942,0.915 C -0.921,0.912 -0.903,0.897 -0.885,0.888 -0.844,0.869 -0.805,0.856 -0.772,0.824 -0.72,0.773 -0.705,0.711 -0.707,0.638 -0.708,0.579 -0.719,0.525 -0.779,0.503 -0.833,0.483 -0.906,0.499 -0.961,0.509 -1.006,0.516 -1.059,0.529 -1.083,0.572 -1.109,0.616 -1.099,0.67 -1.099,0.719 m -1.896,-1.148 c -0.03,-0.07 -0.072,-0.144 -0.159,-0.147 -0.044,-0.002 -0.09,0.001 -0.134,0.001 -0.041,-0.001 -0.081,-0.004 -0.113,0.021 -0.017,0.013 -0.043,0.025 -0.055,0.043 -0.018,0.023 -0.035,0.088 -0.037,0.117 -0.005,0.067 0.002,0.118 0.04,0.175 0.034,0.052 0.081,0.092 0.144,0.101 l 0.039,0.039 c 0.012,0.053 0.12,0.023 0.152,0.014 0.027,-0.007 0.082,-0.026 0.102,-0.047 0.023,-0.022 0.03,-0.067 0.037,-0.097 0.017,-0.07 0.014,-0.152 -0.016,-0.22 M 1.217,-1.013 C 1.195,-0.829 1.121,-0.657 1.029,-0.499 0.968,-0.397 0.917,-0.294 0.846,-0.198 0.8,-0.135 0.744,-0.084 0.696,-0.023 0.658,0.025 0.652,0.078 0.642,0.138 0.633,0.196 0.606,0.252 0.601,0.311 0.597,0.356 0.607,0.403 0.603,0.448 0.592,0.569 0.554,0.728 0.463,0.813 0.404,0.867 0.345,0.904 0.269,0.931 0.156,0.971 0.046,1.022 -0.071,1.052 -0.173,1.078 -0.28,1.084 -0.383,1.108 c -0.029,0.006 -0.059,0.021 -0.089,0.017 -0.061,0.043 -0.105,0.054 -0.145,0.066 -0.07,0.021 -0.139,0.012 -0.209,0.026 -0.052,0.01 -0.095,0.012 -0.148,0.013 -0.052,0.002 -0.099,0.017 -0.15,0.018 -0.146,0.005 -0.293,0 -0.439,0 -0.111,0 -0.224,0.006 -0.335,-0.003 C -2.017,1.236 -2.124,1.183 -2.24,1.163 -2.402,1.137 -2.572,1.138 -2.736,1.121 -2.831,1.111 -2.925,1.106 -3.018,1.082 -3.105,1.059 -3.176,1.024 -3.254,0.981 -3.348,0.928 -3.419,0.862 -3.49,0.784 -3.528,0.743 -3.571,0.71 -3.597,0.659 -3.614,0.627 -3.617,0.597 -3.627,0.563 -3.661,0.457 -3.727,0.371 -3.744,0.257 -3.76,0.155 -3.783,0.044 -3.818,-0.053 -3.84,-0.116 -3.88,-0.175 -3.907,-0.237 c -0.014,-0.032 -0.031,-0.058 -0.048,-0.086 -0.05,-0.08 -0.118,-0.155 -0.181,-0.225 -0.067,-0.074 -0.107,-0.176 -0.131,-0.269 -0.04,-0.158 -0.081,-0.323 -0.08,-0.486 0,-0.051 -0.005,-0.096 0.016,-0.143 0.012,-0.025 0.024,-0.05 0.036,-0.075 0.032,-0.069 0.077,-0.144 0.119,-0.207 0.065,-0.098 0.157,-0.23 0.285,-0.23 0.114,0 0.198,0.062 0.298,0.107 0.027,0.012 0.06,0.027 0.092,0.018 0.043,-0.012 0.034,-0.047 0.034,-0.085 0.003,-0.14 0.025,-0.294 0.054,-0.431 0.023,-0.11 0.023,-0.223 0.052,-0.332 0.043,-0.155 0.042,-0.32 0.088,-0.474 0.028,-0.095 0.053,-0.216 0.109,-0.3 0.048,-0.072 0.107,-0.127 0.174,-0.18 0.068,-0.053 0.115,-0.128 0.194,-0.169 0.044,-0.024 0.092,-0.047 0.137,-0.069 0.023,0.038 -0.014,0.121 -0.023,0.162 -0.02,0.105 -0.034,0.211 -0.061,0.315 -0.026,0.104 -0.043,0.193 -0.037,0.301 0.002,0.03 0.01,0.052 0.016,0.081 0.011,0.049 0.005,0.106 0.011,0.157 0.006,0.048 0.005,0.096 0.01,0.144 0.005,0.05 0.024,0.1 0.034,0.15 0.021,0.099 0.027,0.21 0.056,0.307 0.029,0.093 0.087,0.178 0.12,0.269 0.032,0.088 0.083,0.137 0.159,0.189 0.032,0.022 0.08,0.033 0.106,0.063 0.019,-0.014 0.013,-0.025 0.017,-0.045 0.005,-0.026 0.01,-0.055 0.015,-0.083 0.016,-0.073 0.045,-0.116 0.091,-0.174 0.044,-0.054 0.098,-0.094 0.159,-0.132 0.021,-0.016 0.046,-0.028 0.072,-0.036 0.022,-0.006 0.041,-0.016 0.057,-0.032 0.027,10e-4 0.022,-0.004 0.029,0.024 0.01,0.033 0,0.088 0,0.124 -10e-4,0.063 0.021,0.117 0.037,0.178 0.012,0.045 0.028,0.081 0.077,0.093 0.02,0.005 0.039,-10e-4 0.059,0.001 0.043,0.003 0.083,0.015 0.126,0.018 0.054,0.004 0.107,0.013 0.161,0.017 0.05,0.004 0.064,0.027 0.107,0.037 0.02,0.005 0.048,-10e-4 0.068,-10e-4 0.063,0 0.126,0 0.189,0 0.074,10e-4 0.143,-0.018 0.218,-0.018 0.052,0.001 0.103,0 0.155,0 0.083,0.001 0.135,-0.093 0.177,-0.154 0.035,-0.052 0.079,-0.083 0.106,-0.145 0.022,-0.052 0.043,-0.116 0.056,-0.171 0.062,0.075 0.094,0.202 0.119,0.293 0.015,0.054 0.041,0.103 0.051,0.158 0.004,0.026 0.01,0.079 0.051,0.07 0.014,-0.038 0.087,-0.074 0.115,-0.102 C 0.08,-1.851 0.111,-1.898 0.14,-1.939 0.219,-2.051 0.227,-2.23 0.215,-2.362 0.211,-2.412 0.198,-2.454 0.197,-2.506 0.194,-2.575 0.195,-2.634 0.185,-2.702 0.175,-2.764 0.163,-2.816 0.143,-2.875 0.128,-2.921 0.132,-2.948 0.125,-2.995 0.115,-3.05 0.077,-3.098 0.06,-3.151 0.044,-3.199 0.031,-3.248 0.013,-3.296 c -0.022,-0.057 -0.081,-0.128 -0.062,-0.192 0.036,-0.008 0.075,0.033 0.103,0.051 0.036,0.022 0.072,0.039 0.109,0.058 0.062,0.032 0.109,0.065 0.155,0.117 0.086,0.098 0.158,0.206 0.222,0.32 0.065,0.114 0.105,0.234 0.16,0.353 0.04,0.085 0.062,0.162 0.082,0.253 0.015,0.071 0.048,0.131 0.05,0.205 0.002,0.085 -0.001,0.171 -0.001,0.257 0,0.033 0.006,0.071 0.001,0.104 -0.004,0.019 -0.015,0.03 -0.019,0.05 -0.007,0.027 -0.006,0.051 -0.017,0.08 -0.009,0.023 -0.019,0.045 -0.019,0.07 0,0.056 0.031,0.075 0.08,0.087 0.067,0.015 0.14,0.009 0.203,0.036 0.068,0.029 0.063,0.069 0.088,0.131 0.018,0.045 0.022,0.089 0.034,0.132 0.018,0.062 0.042,0.106 0.035,0.171"
             style="fill:#100f0d;fill-opacity:1;fill-rule:nonzero;stroke:none"
             id="path52559" />
        </g>
      </g>
    </g>
  </g>
</svg>
