<?xml version="1.0" encoding="UTF-8" standalone="no"?>
<!-- Created with Inkscape (http://www.inkscape.org/) -->

<svg
   width="26.958696"
   height="24"
   viewBox="0 0 7.1328216 6.35"
   version="1.1"
   id="svg56094"
   inkscape:version="1.2.1 (9c6d41e4, 2022-07-14)"
   sodipodi:docname="the-search-for-kadath.svg"
   xmlns:inkscape="http://www.inkscape.org/namespaces/inkscape"
   xmlns:sodipodi="http://sodipodi.sourceforge.net/DTD/sodipodi-0.dtd"
   xmlns="http://www.w3.org/2000/svg"
   xmlns:svg="http://www.w3.org/2000/svg">
  <sodipodi:namedview
     id="namedview56096"
     pagecolor="#505050"
     bordercolor="#eeeeee"
     borderopacity="1"
     inkscape:showpageshadow="0"
     inkscape:pageopacity="0"
     inkscape:pagecheckerboard="0"
     inkscape:deskcolor="#505050"
     inkscape:document-units="mm"
     showgrid="false"
     inkscape:zoom="0.7046647"
     inkscape:cx="59.602815"
     inkscape:cy="162.48863"
     inkscape:window-width="1390"
     inkscape:window-height="941"
     inkscape:window-x="0"
     inkscape:window-y="25"
     inkscape:window-maximized="0"
     inkscape:current-layer="layer1" />
  <defs
     id="defs56091">
    <clipPath
       clipPathUnits="userSpaceOnUse"
       id="clipPath52915">
      <path
         d="m 319.75,285.893 h 24.7 v 24.7 h -24.7 z"
         id="path52913" />
    </clipPath>
  </defs>
  <g
     inkscape:label="Layer 1"
     inkscape:groupmode="layer"
     id="layer1"
     transform="translate(-89.311453,-105.87456)">
    <g
       id="g52909"
       transform="matrix(0.33055992,0,0,-0.33055992,-16.878277,207.69952)">
      <g
         id="g52911"
         clip-path="url(#clipPath52915)">
        <g
           id="g52917"
           transform="translate(342.575,289.925)">
          <path
             d="M 0,0 C -0.049,0.037 -0.094,0.081 -0.142,0.118 -0.3,0.242 -0.459,0.365 -0.618,0.487 -0.784,0.614 -0.942,0.75 -1.105,0.879 -1.28,1.017 -1.478,1.133 -1.645,1.281 -1.813,1.429 -1.996,1.561 -2.161,1.712 -2.34,1.875 -2.526,2.026 -2.724,2.164 -2.921,2.304 -3.118,2.43 -3.298,2.593 -3.49,2.765 -3.693,2.924 -3.897,3.081 -4.084,3.225 -4.265,3.378 -4.458,3.515 -4.663,3.66 -4.842,3.837 -5.04,3.992 -5.073,4.017 -5.106,4.043 -5.139,4.069 -5.149,4.092 -5.159,4.117 -5.169,4.14 -5.276,4.372 -5.419,4.588 -5.5,4.831 -5.54,4.95 -5.581,5.059 -5.635,5.172 -5.641,5.186 -5.632,5.202 -5.65,5.209 -5.666,5.215 -5.677,5.206 -5.678,5.189 -5.78,5.344 -5.781,5.339 -5.782,5.333 -5.816,5.329 -5.865,5.318 -5.879,5.279 -5.886,5.258 -5.868,5.231 -5.864,5.211 -5.855,5.163 -5.855,5.116 -5.842,5.069 -5.789,4.877 -5.734,4.685 -5.676,4.494 -5.8,4.592 -5.923,4.691 -6.046,4.791 -6.386,5.07 -6.72,5.356 -7.072,5.621 -7.408,5.874 -7.732,6.14 -8.062,6.4 -8.28,6.572 -8.516,6.733 -8.753,6.879 -8.759,6.883 -8.766,6.887 -8.773,6.891 -8.807,6.983 -8.838,7.076 -8.865,7.17 -8.897,7.285 -8.927,7.401 -8.964,7.514 -8.974,7.545 -8.984,7.546 -8.983,7.587 L -9.044,8.03 C -9.076,8.029 -9.107,8.04 -9.128,8.065 -9.119,7.956 -9.075,7.851 -9.045,7.746 -9.018,7.653 -8.993,7.56 -8.963,7.468 -8.903,7.28 -8.844,7.09 -8.79,6.9 -8.954,6.998 -9.126,7.079 -9.289,7.177 -9.387,7.236 -9.48,7.301 -9.578,7.358 c -0.093,0.053 -0.193,0.095 -0.288,0.144 -0.185,0.096 -0.372,0.185 -0.556,0.281 -0.221,0.116 -0.435,0.247 -0.647,0.382 -0.02,0.058 -0.041,0.116 -0.059,0.175 -0.049,0.166 -0.084,0.334 -0.123,0.503 -0.018,0.074 -0.029,0.191 -0.086,0.249 -10e-4,-0.005 -0.003,-0.009 -0.004,-0.013 -0.005,-0.059 -0.126,0.07 -0.183,0.084 -0.005,-0.075 0.002,-0.154 10e-4,-0.229 0,-0.077 -0.005,-0.149 0.019,-0.223 0.024,-0.076 0.042,-0.154 0.069,-0.228 0.013,-0.037 0.028,-0.072 0.042,-0.107 -0.05,0.033 -0.1,0.066 -0.15,0.099 -0.127,0.083 -0.247,0.145 -0.385,0.207 -0.085,0.039 -0.166,0.047 -0.254,0.073 -0.271,0.082 -0.541,0.166 -0.812,0.248 -0.176,0.053 -0.33,0.105 -0.516,0.116 -0.171,0.011 -0.337,0.045 -0.506,0.07 -0.195,0.029 -0.386,0.079 -0.58,0.117 -0.2,0.039 -0.404,0.056 -0.605,0.085 -0.375,0.054 -0.742,0.093 -1.121,0.091 -0.466,-0.002 -0.94,0.021 -1.401,-0.05 0.033,0.023 0.026,0.048 -0.068,0.11 -0.021,0.03 -0.061,0.046 -0.09,0.06 -0.119,0.057 -0.23,0.113 -0.343,0.184 -0.132,0.083 -0.272,0.153 -0.402,0.237 -0.131,0.084 -0.255,0.177 -0.38,0.268 -0.279,0.204 -0.571,0.397 -0.837,0.616 -0.202,0.167 -0.399,0.341 -0.598,0.51 -0.194,0.164 -0.398,0.313 -0.589,0.481 -0.056,0.05 -0.102,0.106 -0.152,0.16 -0.045,0.048 -0.104,0.091 -0.151,0.14 0.026,-0.023 0.036,-0.049 0.051,-0.08 0.055,-0.114 0.143,-0.205 0.217,-0.307 0.084,-0.118 0.141,-0.251 0.225,-0.369 0.117,-0.165 0.234,-0.325 0.344,-0.495 0.112,-0.174 0.227,-0.345 0.337,-0.52 0.104,-0.166 0.232,-0.306 0.365,-0.449 0.218,-0.234 0.438,-0.465 0.665,-0.69 0.039,-0.035 0.075,-0.072 0.108,-0.112 0.013,-0.021 0.026,-0.041 0.042,-0.06 0.034,-0.024 0.018,-0.014 0.045,-0.003 0.023,0.01 0.023,0.02 0.053,0.026 0.064,0.013 0.116,0.02 0.181,0.045 0.153,0.059 0.313,0.081 0.476,0.097 -0.055,-0.03 -0.108,-0.063 -0.164,-0.093 -0.066,-0.035 -0.117,-0.051 -0.19,-0.049 -0.025,0.001 -0.052,0.003 -0.077,-0.002 -0.011,-0.044 0.001,-0.093 -0.007,-0.139 -0.012,-0.064 -0.018,-0.127 -0.026,-0.192 -0.024,-0.195 -0.01,-0.396 -0.01,-0.592 0,-0.08 -0.004,-0.161 -0.002,-0.242 0.003,-0.102 0.036,-0.201 0.041,-0.304 0.014,-0.259 0.003,-0.518 0.025,-0.777 0.011,-0.124 0.036,-0.246 0.047,-0.371 0.009,-0.089 0.011,-0.179 0.02,-0.268 0.018,-0.176 0.022,-0.353 0.04,-0.53 0.021,-0.209 0.099,-0.401 0.167,-0.598 0.06,-0.176 0.114,-0.354 0.176,-0.529 0.066,-0.189 0.167,-0.364 0.251,-0.546 0.087,-0.188 0.171,-0.378 0.241,-0.573 0.081,-0.224 0.274,-0.415 0.427,-0.594 0.166,-0.196 0.356,-0.385 0.501,-0.597 0.061,-0.09 0.137,-0.167 0.2,-0.256 0.048,-0.068 0.089,-0.141 0.137,-0.209 0.123,-0.174 0.237,-0.353 0.369,-0.522 0.129,-0.165 0.274,-0.32 0.416,-0.474 0.14,-0.152 0.308,-0.281 0.464,-0.415 0.203,-0.175 0.408,-0.333 0.629,-0.481 0.163,-0.109 0.329,-0.208 0.487,-0.322 0.015,-0.011 0.03,-0.023 0.045,-0.034 -0.005,0.008 -0.01,0.016 -0.015,0.024 -0.158,0.258 -0.394,0.461 -0.584,0.696 -0.092,0.114 -0.189,0.224 -0.275,0.343 -0.07,0.098 -0.132,0.2 -0.211,0.292 -0.209,0.242 -0.357,0.53 -0.558,0.778 -0.344,0.424 -0.737,0.802 -1.065,1.239 -0.154,0.204 -0.301,0.415 -0.44,0.63 -0.075,0.116 -0.174,0.22 -0.234,0.344 -0.068,0.139 -0.139,0.277 -0.207,0.416 -0.059,0.123 -0.106,0.251 -0.166,0.373 -0.051,0.105 -0.061,0.207 -0.089,0.318 -0.055,0.219 -0.091,0.438 -0.131,0.66 -0.025,0.139 -0.047,0.274 -0.083,0.411 -0.036,0.138 -0.086,0.272 -0.1,0.415 -0.009,0.097 -0.044,0.186 -0.056,0.281 -0.012,0.085 -0.004,0.175 -0.004,0.26 v 0.327 c 0,0.102 0.009,0.207 -0.011,0.308 -0.026,0.131 -0.06,0.27 -0.049,0.404 0.01,0.127 0.168,0.216 0.231,0.322 0.038,0.065 0.05,0.189 0.13,0.218 0.048,0.018 0.117,0.003 0.166,0.004 0.091,10e-4 0.179,0.022 0.271,0.021 0.159,-0.001 0.318,-0.002 0.477,-0.001 0.088,0.001 0.171,-0.011 0.258,-0.018 0.096,-0.007 0.195,-0.002 0.292,-0.002 0.185,10e-4 0.368,-0.013 0.552,-0.035 0.118,-0.014 0.237,-0.02 0.355,-0.035 0.123,-0.016 0.236,-0.048 0.357,-0.079 0.117,-0.031 0.237,-0.05 0.357,-0.072 0.149,-0.028 0.293,-0.067 0.441,-0.102 0.301,-0.07 0.607,-0.142 0.901,-0.238 0.2,-0.065 0.4,-0.151 0.593,-0.231 0.074,-0.031 0.144,-0.067 0.22,-0.095 0.086,-0.032 0.176,-0.052 0.261,-0.085 0.307,-0.117 0.61,-0.252 0.892,-0.42 0.201,-0.118 0.414,-0.211 0.623,-0.311 0.143,-0.454 0.264,-0.913 0.386,-1.373 0.064,-0.24 0.15,-0.472 0.198,-0.717 0.037,-0.191 0.096,-0.369 0.116,-0.563 0.016,-0.16 0.046,-0.31 0.045,-0.472 0,-0.084 0.011,-0.135 -0.038,-0.204 -0.032,-0.044 -0.064,-0.082 -0.084,-0.134 -0.018,-0.049 -0.023,-0.105 -0.038,-0.155 -0.022,-0.075 -0.062,-0.139 -0.065,-0.219 -0.004,-0.078 0.018,-0.157 0.032,-0.233 0.085,-0.446 0.223,-0.872 0.376,-1.298 0.059,-0.165 0.095,-0.339 0.163,-0.5 0.084,-0.201 0.183,-0.395 0.26,-0.599 0.111,-0.292 0.247,-0.579 0.386,-0.858 0.038,-0.075 0.088,-0.185 0.179,-0.202 0.075,-0.014 0.164,-0.001 0.24,-0.001 0.099,0 0.199,0.001 0.299,0 0.059,0 0.156,-0.013 0.203,0.029 0.029,0.026 0.041,0.063 0.044,0.097 0.008,0.115 -0.017,0.243 -0.039,0.356 -0.059,0.298 -0.141,0.591 -0.224,0.883 -0.08,0.284 -0.135,0.574 -0.191,0.863 -0.02,0.098 -0.049,0.194 -0.068,0.292 -0.021,0.107 -0.026,0.214 -0.038,0.321 -0.021,0.196 -0.074,0.387 -0.121,0.577 -0.054,0.215 -0.155,0.406 -0.228,0.613 -0.041,0.115 -0.127,0.201 -0.193,0.301 -0.018,0.027 -0.042,0.079 -0.073,0.1 -0.01,0.006 -0.031,0.001 -0.039,0.005 -0.091,0.046 -0.147,0.161 -0.199,0.249 -0.016,0.028 -0.033,0.053 -0.051,0.082 -0.043,0.067 -0.042,0.135 -0.048,0.209 -10e-4,0.021 -0.011,0.04 -0.018,0.06 -0.038,0.106 -0.082,0.209 -0.118,0.316 -0.08,0.233 -0.164,0.453 -0.268,0.676 -0.17,0.367 -0.257,0.762 -0.392,1.142 -0.022,0.063 -0.046,0.124 -0.069,0.186 0.185,-0.111 0.357,-0.241 0.541,-0.354 0.161,-0.099 0.31,-0.215 0.463,-0.327 0.33,-0.239 0.672,-0.455 1.021,-0.665 0.067,-0.04 0.13,-0.086 0.193,-0.131 0.033,-0.133 0.066,-0.266 0.107,-0.397 0.057,-0.186 0.115,-0.372 0.173,-0.558 0.057,-0.18 0.134,-0.356 0.17,-0.543 0.029,-0.153 0.092,-0.29 0.133,-0.439 C -7.766,3.251 -7.771,3.149 -7.773,3.051 -7.774,3 -7.773,2.959 -7.793,2.912 -7.81,2.871 -7.824,2.846 -7.831,2.798 -7.847,2.7 -7.831,2.602 -7.819,2.505 -7.805,2.381 -7.802,2.254 -7.792,2.129 -7.76,1.737 -7.621,1.365 -7.509,0.991 -7.435,0.749 -7.357,0.507 -7.284,0.264 -7.214,0.03 -7.16,-0.211 -7.07,-0.44 c 0.039,-0.097 0.07,-0.2 0.164,-0.256 0.061,-0.036 0.15,-0.025 0.22,-0.022 0.098,0.004 0.192,0.02 0.291,0.021 0.118,0 0.24,0.012 0.339,0.082 0.029,0.02 0.049,0.045 0.076,0.065 0.016,0.012 0.024,0.004 0.034,0.021 0.007,0.012 -0.038,0.148 -0.044,0.174 -0.009,0.037 -0.008,0.063 -0.009,0.104 -0.004,0.106 -0.032,0.213 -0.059,0.316 -0.056,0.213 -0.124,0.423 -0.182,0.636 -0.067,0.244 -0.153,0.485 -0.232,0.725 -0.099,0.3 -0.2,0.604 -0.316,0.898 -0.066,0.168 -0.14,0.33 -0.182,0.507 -0.016,0.067 -0.032,0.146 -0.053,0.206 -0.015,0.041 -0.034,0.076 -0.055,0.115 -0.033,0.062 -0.052,0.117 -0.074,0.182 -0.012,0.034 -0.034,0.051 -0.055,0.08 -0.043,0.057 -0.07,0.114 -0.099,0.181 -0.043,0.1 -0.078,0.18 -0.131,0.273 -0.032,0.057 -0.057,0.114 -0.082,0.175 -0.026,0.062 -0.039,0.141 -0.069,0.2 -0.035,0.067 -0.089,0.128 -0.126,0.195 -0.054,0.097 -0.098,0.197 -0.139,0.3 -0.036,0.092 -0.077,0.182 -0.119,0.271 0.074,-0.051 0.149,-0.102 0.227,-0.148 0.339,-0.202 0.682,-0.398 1.021,-0.6 0.266,-0.16 0.549,-0.302 0.795,-0.493 0.101,-0.078 0.194,-0.152 0.308,-0.211 0.116,-0.06 0.228,-0.125 0.341,-0.19 0.015,-0.038 0.03,-0.076 0.045,-0.114 0.043,-0.11 0.097,-0.215 0.138,-0.326 0.04,-0.111 0.072,-0.226 0.111,-0.338 0.036,-0.103 0.127,-0.267 0.091,-0.381 -0.02,-0.063 -0.071,-0.12 -0.109,-0.172 -0.059,-0.08 -0.023,-0.175 0.01,-0.261 0.031,-0.081 0.065,-0.161 0.091,-0.243 0.028,-0.09 0.039,-0.182 0.062,-0.272 0.059,-0.222 0.146,-0.438 0.192,-0.663 0.046,-0.222 0.109,-0.442 0.177,-0.658 0.025,-0.082 0.053,-0.232 0.148,-0.27 0.034,-0.014 0.103,-0.003 0.137,-0.003 0.058,0.001 0.117,0 0.175,0 0.073,0 0.154,-0.009 0.226,0.003 0.056,0.01 0.109,0.036 0.161,0.058 0.033,0.014 0.061,0.044 0.089,0.057 0.017,0.008 0.031,-0.002 0.048,0.007 -0.017,0.077 -0.011,0.152 -0.012,0.229 -0.002,0.106 -0.023,0.211 -0.049,0.312 -0.034,0.13 -0.054,0.287 -0.054,0.421 0.001,0.074 -0.009,0.117 -0.038,0.188 -0.05,0.127 -0.07,0.268 -0.125,0.393 C -3.8,1.412 -3.859,1.48 -3.9,1.555 -3.929,1.609 -3.955,1.664 -3.984,1.717 -4.06,1.858 -4.169,1.974 -4.255,2.108 -4.276,2.14 -4.295,2.187 -4.321,2.217 -4.332,2.229 -4.344,2.231 -4.354,2.245 -4.369,2.268 -4.373,2.307 -4.382,2.329 -4.471,2.557 -4.577,2.78 -4.68,3.004 -4.645,2.98 -4.608,2.959 -4.573,2.934 -4.432,2.833 -4.292,2.73 -4.15,2.629 -3.864,2.422 -3.559,2.247 -3.278,2.034 -3.025,1.84 -2.763,1.661 -2.504,1.475 -2.38,1.387 -2.259,1.295 -2.135,1.207 -2.031,1.134 -1.93,1.048 -1.824,0.98 -1.63,0.856 -1.418,0.761 -1.215,0.655 -1.028,0.558 -0.859,0.438 -0.679,0.33 -0.591,0.277 -0.491,0.239 -0.396,0.201 -0.309,0.168 -0.239,0.117 -0.159,0.072 -0.097,0.037 -0.032,0.022 0.025,-0.023 0.045,-0.039 0.06,-0.059 0.086,-0.064 0.081,-0.041 0.019,-0.015 0,0"
             style="fill:#100f0d;fill-opacity:1;fill-rule:nonzero;stroke:none"
             id="path52919" />
        </g>
        <g
           id="g52921"
           transform="translate(329.011,288.828)">
          <path
             d="M 0,0 C 0.014,0.024 0.016,0.05 -0.156,0.441 -0.162,0.469 -0.194,0.488 -0.215,0.506 -0.241,0.526 -0.266,0.544 -0.294,0.56 -0.351,0.592 -0.402,0.631 -0.453,0.669 -0.393,0.573 -0.329,0.476 -0.258,0.388 -0.16,0.266 -0.101,0.119 0,0"
             style="fill:#100f0d;fill-opacity:1;fill-rule:nonzero;stroke:none"
             id="path52923" />
        </g>
        <g
           id="g52925"
           transform="translate(339.567,300.734)">
          <path
             d="M 0,0 C 0.01,0.14 0.016,0.282 0.029,0.422 0.042,0.563 0.075,0.701 0.096,0.84 0.126,1.037 0.177,1.224 0.227,1.417 0.273,1.591 0.305,1.768 0.347,1.943 0.44,2.335 0.582,2.711 0.711,3.092 0.856,3.517 0.983,3.944 1.149,4.361 1.262,4.645 1.444,4.872 1.649,5.094 1.665,5.111 1.679,5.13 1.695,5.148 1.614,5.13 1.533,5.112 1.453,5.091 1.091,4.998 0.77,4.827 0.434,4.677 0.317,4.495 0.184,4.324 0.067,4.142 -0.077,3.917 -0.191,3.682 -0.317,3.446 -0.361,3.364 -0.417,3.289 -0.459,3.206 -0.509,3.107 -0.531,2.991 -0.56,2.884 -0.605,2.717 -0.67,2.558 -0.719,2.393 -0.776,2.198 -0.801,1.995 -0.836,1.795 -0.872,1.594 -0.911,1.401 -0.917,1.196 -0.931,0.797 -0.952,0.399 -0.943,0 c 0.004,-0.19 0.023,-0.378 0.022,-0.567 -0.001,-0.176 0.002,-0.35 0.014,-0.526 0.051,-0.786 0.2,-1.559 0.368,-2.326 0.047,-0.21 0.087,-0.423 0.163,-0.624 0.063,-0.168 0.11,-0.338 0.155,-0.512 0.072,-0.277 0.159,-0.57 0.269,-0.834 0.123,-0.294 0.242,-0.59 0.36,-0.886 0.062,-0.156 0.154,-0.298 0.204,-0.459 0.04,-0.127 0.084,-0.249 0.128,-0.373 0.085,-0.24 0.143,-0.487 0.235,-0.724 0.04,-0.102 0.073,-0.207 0.117,-0.307 0.059,-0.134 0.138,-0.259 0.199,-0.392 0.069,-0.152 0.133,-0.302 0.219,-0.444 0.082,-0.136 0.171,-0.267 0.258,-0.4 0.072,-0.111 0.137,-0.227 0.217,-0.334 0.02,-0.026 0.049,-0.072 0.08,-0.09 -0.007,0.073 -0.061,0.143 -0.08,0.214 -0.021,0.082 -0.06,0.149 -0.09,0.228 -0.07,0.187 -0.136,0.375 -0.217,0.558 -0.191,0.433 -0.352,0.887 -0.493,1.339 -0.06,0.191 -0.111,0.385 -0.176,0.574 -0.041,0.119 -0.099,0.229 -0.125,0.352 -0.025,0.117 -0.056,0.23 -0.09,0.344 -0.037,0.127 -0.069,0.251 -0.118,0.374 -0.038,0.095 -0.072,0.19 -0.101,0.289 -0.083,0.282 -0.164,0.562 -0.229,0.85 -0.068,0.299 -0.156,0.592 -0.206,0.896 -0.023,0.146 -0.034,0.292 -0.053,0.438 -0.023,0.177 -0.055,0.353 -0.07,0.532 -0.027,0.319 -0.053,0.642 -0.052,0.963 0.001,0.303 0.001,0.607 0,0.91 0,0.313 0.014,0.626 0.035,0.937"
             style="fill:#100f0d;fill-opacity:1;fill-rule:nonzero;stroke:none"
             id="path52927" />
        </g>
        <g
           id="g52929"
           transform="translate(342.805,306.77)">
          <path
             d="M 0,0 C -0.305,-0.043 -0.607,-0.076 -0.902,-0.161 -0.905,-0.164 -0.909,-0.167 -0.912,-0.17 -1.062,-0.22 -1.216,-0.263 -1.367,-0.308 -1.554,-0.363 -1.745,-0.407 -1.931,-0.463 -2.113,-0.518 -2.29,-0.585 -2.475,-0.632 -2.671,-0.683 -2.871,-0.722 -3.067,-0.776 -3.289,-0.838 -3.51,-0.907 -3.731,-0.975 -3.9,-1.027 -4.071,-1.07 -4.242,-1.116 -4.425,-1.164 -4.599,-1.24 -4.779,-1.296 -5.291,-1.453 -5.785,-1.637 -6.281,-1.837 -6.319,-1.852 -6.358,-1.866 -6.396,-1.88 l 0.528,0.423 c 0,0.113 -0.007,0.228 0.004,0.34 0.016,0.174 0.05,0.354 0.079,0.526 0.032,0.184 0.096,0.347 0.157,0.522 0.047,0.132 0.102,0.262 0.14,0.397 0.034,0.119 0.051,0.241 0.088,0.359 0.037,0.125 0.08,0.253 0.132,0.373 0.029,0.066 0.081,0.128 0.1,0.198 C -5.233,1.296 -5.276,1.214 -5.32,1.179 -5.445,1.081 -5.576,1.016 -5.725,0.96 -5.779,0.94 -5.781,0.95 -5.787,0.901 -5.79,0.882 -5.781,0.859 -5.786,0.841 -5.797,0.789 -5.833,0.73 -5.851,0.679 -5.893,0.56 -5.934,0.447 -5.961,0.323 -6.064,-0.144 -6.176,-0.61 -6.27,-1.079 c -0.044,-0.224 -0.135,-0.434 -0.184,-0.656 -0.005,-0.034 -0.013,-0.067 -0.024,-0.1 -0.008,-0.007 -0.013,-0.015 -0.016,-0.025 -0.002,-0.02 0.005,-0.036 0.012,-0.052 -0.154,-0.057 -0.309,-0.111 -0.46,-0.175 -0.257,-0.108 -0.509,-0.22 -0.774,-0.31 -0.502,-0.17 -0.981,-0.384 -1.462,-0.604 -0.421,-0.192 -0.837,-0.402 -1.247,-0.615 -0.327,-0.17 -0.657,-0.332 -0.983,-0.503 -0.207,-0.108 -0.419,-0.209 -0.623,-0.321 -0.181,-0.099 -0.345,-0.227 -0.528,-0.322 -0.136,-0.071 -0.255,-0.168 -0.387,-0.247 -0.135,-0.08 -0.238,-0.2 -0.369,-0.287 -0.109,-0.072 -0.221,-0.143 -0.333,-0.212 -0.103,-0.065 -0.198,-0.141 -0.303,-0.204 -0.143,-0.085 -0.29,-0.168 -0.424,-0.267 -0.033,-0.023 -0.052,-0.028 -0.058,-0.062 -0.002,-0.009 0.013,-0.025 0.015,-0.034 0.01,-0.037 0.005,-0.079 0.005,-0.117 -10e-4,-0.076 -0.022,-0.188 0.004,-0.262 0.025,0.004 0.044,0.039 0.06,0.057 0.044,0.053 0.08,0.101 0.119,0.158 0.027,0.035 0.06,0.065 0.098,0.089 0.04,0.035 0.075,0.073 0.105,0.116 0.058,0.07 0.125,0.131 0.195,0.188 0.113,0.093 0.254,0.156 0.384,0.221 0.169,0.085 0.341,0.162 0.515,0.237 0.202,0.086 0.393,0.195 0.594,0.285 0.13,0.059 0.264,0.105 0.389,0.176 0.088,0.061 0.178,0.119 0.268,0.177 0.083,0.045 0.167,0.089 0.252,0.131 0.227,0.116 0.452,0.231 0.667,0.367 0.226,0.143 0.468,0.25 0.704,0.376 0.179,0.095 0.36,0.189 0.54,0.283 0.405,0.213 0.823,0.396 1.239,0.587 0.401,0.183 0.798,0.362 1.21,0.519 0.169,0.065 0.339,0.13 0.513,0.183 0.228,0.068 0.451,0.145 0.677,0.218 0.435,0.143 0.874,0.281 1.312,0.417 0.432,0.134 0.859,0.283 1.287,0.432 0.233,0.082 0.47,0.153 0.7,0.244 0.172,0.068 0.347,0.114 0.522,0.171 0.256,0.082 0.51,0.165 0.764,0.25 0.165,0.072 0.332,0.139 0.514,0.186 0.204,0.053 0.41,0.095 0.616,0.135 0.011,0.014 0.022,0.029 0.033,0.043 0.053,0.071 0.103,0.142 0.147,0.21 C 0.01,0.001 0.005,0.001 0,0"
             style="fill:#100f0d;fill-opacity:1;fill-rule:nonzero;stroke:none"
             id="path52931" />
        </g>
        <g
           id="g52933"
           transform="translate(331.662,295.602)">
          <path
             d="M 0,0 C -0.073,0.042 -0.137,0.096 -0.207,0.144 -0.326,0.228 -0.452,0.301 -0.569,0.39 -0.648,0.449 -0.706,0.522 -0.792,0.572 -0.903,0.637 -1.009,0.712 -1.12,0.779 -1.274,0.872 -1.44,0.947 -1.608,1.012 -1.858,1.11 -2.096,1.233 -2.346,1.332 -2.552,1.414 -2.76,1.497 -2.972,1.565 -3.063,1.594 -3.158,1.616 -3.247,1.651 -3.323,1.682 -3.395,1.717 -3.473,1.744 -3.687,1.819 -3.907,1.879 -4.121,1.954 -4.392,2.049 -4.668,2.149 -4.959,2.154 -5.114,2.156 -5.27,2.152 -5.425,2.152 -5.477,2.152 -5.557,2.165 -5.608,2.148 -5.652,2.134 -5.649,2.112 -5.649,2.072 -5.634,2.253 -5.74,2.27 -5.869,2.233 -5.962,2.207 -6.058,2.2 -6.154,2.187 -6.243,2.175 -6.327,2.172 -6.416,2.172 -6.46,2.172 -6.51,2.181 -6.553,2.171 -6.575,2.089 -6.539,2.01 -6.535,1.93 -6.532,1.868 -6.54,1.836 -6.476,1.829 c 0.087,-0.008 0.175,0.008 0.262,-0.004 0.148,-0.019 0.297,-0.026 0.446,-0.036 0.116,-0.007 0.233,-0.018 0.347,-0.035 0.083,-0.013 0.165,0.003 0.248,-0.009 0.035,-0.005 0.068,-0.016 0.105,-0.017 0.279,-0.011 0.538,-0.076 0.804,-0.156 0.296,-0.089 0.605,-0.11 0.905,-0.177 0.254,-0.057 0.496,-0.162 0.731,-0.271 0.108,-0.05 0.211,-0.109 0.319,-0.159 0.065,-0.031 0.123,-0.063 0.184,-0.103 0.149,-0.096 0.307,-0.171 0.453,-0.272 0.274,-0.189 0.557,-0.355 0.847,-0.519 0.143,-0.081 0.278,-0.174 0.421,-0.256 0.102,-0.058 0.206,-0.112 0.301,-0.183 0.023,-0.017 0.082,-0.105 0.115,-0.077 0.01,0.008 0.009,0.073 0.013,0.088 0.008,0.033 0.02,0.072 0.055,0.087 0.03,0.012 0.071,-0.01 0.098,0.002 C 0.24,-0.24 0.164,-0.158 0.141,-0.125 0.106,-0.073 0.049,-0.028 0,0"
             style="fill:#100f0d;fill-opacity:1;fill-rule:nonzero;stroke:none"
             id="path52935" />
        </g>
        <g
           id="g52937"
           transform="translate(327.014,295.794)">
          <path
             d="M 0,0 C 0.116,-0.015 0.231,-0.025 0.345,-0.052 0.489,-0.086 0.628,-0.136 0.77,-0.177 0.93,-0.223 1.093,-0.261 1.251,-0.315 1.364,-0.354 1.468,-0.404 1.575,-0.454 1.711,-0.516 1.851,-0.568 1.986,-0.633 2.31,-0.787 2.607,-0.981 2.917,-1.162 3.096,-1.266 3.287,-1.344 3.466,-1.448 3.629,-1.542 3.793,-1.634 3.949,-1.74 4.09,-1.835 4.225,-1.937 4.368,-2.03 c 0.08,-0.053 0.146,-0.119 0.224,-0.175 0.025,-0.014 0.048,-0.03 0.069,-0.049 0.005,-0.009 0.01,-0.017 0.017,-0.025 0.029,-0.007 0.028,0.006 0.045,0.027 0.032,0.041 0.052,0.093 0.072,0.141 0.018,0.046 0.049,0.089 0.053,0.139 C 4.852,-1.97 4.856,-1.971 4.86,-1.97 4.825,-1.951 4.795,-1.919 4.765,-1.895 4.713,-1.853 4.657,-1.806 4.6,-1.77 4.533,-1.728 4.464,-1.684 4.395,-1.645 4.217,-1.542 4.043,-1.43 3.872,-1.316 3.677,-1.187 3.464,-1.086 3.262,-0.967 2.671,-0.617 2.054,-0.33 1.432,-0.04 1.119,0.106 0.802,0.25 0.481,0.377 0.362,0.424 0.272,0.446 0.148,0.449 -0.069,0.418 -0.09,0.391 -0.117,0.37 -0.121,0.368 -0.126,0.366 -0.131,0.363 -0.142,0.344 -0.132,0.313 -0.133,0.291 -0.135,0.212 -0.149,0.12 -0.189,0.05 -0.139,0.012 -0.059,0.008 0,0"
             style="fill:#100f0d;fill-opacity:1;fill-rule:nonzero;stroke:none"
             id="path52939" />
        </g>
        <g
           id="g52941"
           transform="translate(331.873,293.823)">
          <path
             d="M 0,0 C 0.008,-0.005 0.017,-0.01 0.026,-0.013 0.021,-0.002 0.011,0.001 0,0"
             style="fill:#100f0d;fill-opacity:1;fill-rule:nonzero;stroke:none"
             id="path52943" />
        </g>
        <g
           id="g52945"
           transform="translate(334.213,292.697)">
          <path
             d="M 0,0 C -0.025,0.018 -0.128,0.134 -0.178,0.12 -0.446,0.08 -0.446,0.074 -0.425,0.015 c 0.01,-0.031 0.016,-0.063 0.026,-0.094 0.025,-0.075 0.084,-0.122 0.144,-0.169 0.136,-0.106 0.255,-0.225 0.399,-0.321 0.029,-0.019 0.087,-0.09 0.13,-0.078 0.027,0.007 0.025,0.067 0.032,0.091 0.018,0.063 0.047,0.128 0.089,0.178 0.035,0.042 0.076,0.062 0.027,0.102 C 0.292,-0.172 0.134,-0.099 0,0"
             style="fill:#100f0d;fill-opacity:1;fill-rule:nonzero;stroke:none"
             id="path52947" />
        </g>
        <g
           id="g52949"
           transform="translate(337.492,290.771)">
          <path
             d="M 0,0 C -0.009,0.017 -0.017,0.023 -0.03,0.036 -0.091,0.095 -0.179,0.134 -0.249,0.182 -0.476,0.335 -0.675,0.528 -0.884,0.704 -0.886,0.706 -1.018,0.852 -1.019,0.775 -1.244,0.71 -1.244,0.691 -1.253,0.67 c 0.187,-0.177 0.345,-0.381 0.535,-0.556 0.168,-0.155 0.36,-0.289 0.54,-0.429 0.031,-0.025 0.07,-0.09 0.122,-0.056 0.057,0.038 0.044,0.137 0.045,0.192 0,0.056 0.037,0.126 0.011,0.179"
             style="fill:#100f0d;fill-opacity:1;fill-rule:nonzero;stroke:none"
             id="path52951" />
        </g>
        <g
           id="g52953"
           transform="translate(332.3,290.807)">
          <path
             d="M 0,0 C -0.013,0.053 -0.054,0.071 -0.099,0.094 -0.142,0.116 -0.176,0.14 -0.219,0.156 -0.359,0.21 -0.483,0.303 -0.6,0.395 -0.791,0.546 -0.98,0.699 -1.174,0.847 -1.399,1.018 -1.627,1.191 -1.862,1.349 -2.067,1.487 -2.275,1.619 -2.471,1.77 -2.695,1.944 -2.923,2.121 -3.163,2.274 -3.414,2.433 -3.677,2.561 -3.948,2.682 -4.231,2.808 -4.519,2.919 -4.804,3.041 -4.975,3.114 -5.143,3.188 -5.319,3.248 -5.429,3.286 -5.547,3.329 -5.664,3.338 -5.74,3.343 -5.819,3.342 -5.895,3.339 -5.925,3.338 -5.957,3.343 -5.944,3.299 -6.039,3.355 -6.181,3.326 -6.32,3.341 -6.285,3.332 -6.256,3.201 -6.25,3.168 -6.239,3.106 -6.257,3.04 -6.244,2.979 c 0.056,-0.017 0.119,0.013 0.175,0.023 0.115,0.02 0.236,0.024 0.352,0.004 0.36,-0.061 0.691,-0.19 1.033,-0.312 0.294,-0.104 0.577,-0.224 0.843,-0.386 0.14,-0.085 0.284,-0.162 0.423,-0.247 0.18,-0.109 0.371,-0.196 0.543,-0.317 0.064,-0.046 0.127,-0.082 0.197,-0.119 0.108,-0.057 0.201,-0.139 0.299,-0.213 0.146,-0.11 0.303,-0.204 0.445,-0.32 0.131,-0.105 0.268,-0.205 0.401,-0.309 0.176,-0.14 0.331,-0.305 0.515,-0.436 0.159,-0.113 0.317,-0.231 0.468,-0.355 0.073,-0.06 0.141,-0.129 0.22,-0.182 0.047,-0.032 0.104,-0.052 0.149,-0.085 0.052,-0.038 0.092,-0.089 0.139,-0.132 C 0,-0.447 0.044,-0.469 0.092,-0.501 0.11,-0.513 0.138,-0.54 0.157,-0.527 0.137,-0.398 0.022,-0.301 0.003,-0.168 -0.005,-0.114 0.014,-0.053 0,0"
             style="fill:#100f0d;fill-opacity:1;fill-rule:nonzero;stroke:none"
             id="path52955" />
        </g>
        <g
           id="g52957"
           transform="translate(329.197,300.756)">
          <path
             d="M 0,0 C -0.043,0.015 -0.113,-0.036 -0.155,-0.051 -0.198,-0.065 -0.236,-0.088 -0.278,-0.105 -0.31,-0.119 -0.337,-0.117 -0.367,-0.125 -0.396,-0.132 -0.423,-0.153 -0.445,-0.168 -0.476,-0.191 -0.48,-0.231 -0.498,-0.265 -0.511,-0.289 -0.53,-0.311 -0.542,-0.337 -0.563,-0.376 -0.567,-0.421 -0.587,-0.461 -0.607,-0.5 -0.629,-0.537 -0.639,-0.58 -0.648,-0.618 -0.651,-0.658 -0.659,-0.697 -0.672,-0.759 -0.683,-0.808 -0.684,-0.872 -0.685,-0.925 -0.698,-0.977 -0.7,-1.03 c -0.003,-0.095 -0.01,-0.206 0.009,-0.3 0.01,-0.05 0.03,-0.094 0.049,-0.139 0.024,-0.056 0.039,-0.059 0.054,0.01 0.01,0.046 0.018,0.077 0.018,0.126 0,0.015 -0.004,0.034 -0.001,0.049 0.004,0.024 0.018,0.037 0.026,0.059 0.038,0.107 0.083,0.211 0.121,0.319 0.04,0.113 0.079,0.227 0.131,0.336 0.036,0.074 0.084,0.142 0.12,0.216 0.023,0.045 0.037,0.095 0.057,0.141 0.003,0.005 0.007,0.018 0.013,0.032 l -0.096,-0.545 c 0.033,0.151 0.066,0.303 0.101,0.454 0.01,0.046 0.021,0.092 0.036,0.136 -0.008,-0.004 -0.017,-0.007 -0.025,-0.011 0.01,0.018 0.021,0.032 0.033,0.034 0,0.001 0,0.002 0.001,0.003 C -0.038,-0.072 -0.014,-0.034 0,0"
             style="fill:#100f0d;fill-opacity:1;fill-rule:nonzero;stroke:none"
             id="path52959" />
        </g>
        <g
           id="g52961"
           transform="translate(329.154,300.642)">
          <path
             d="M 0,0 C -0.004,0.002 -0.007,0.002 -0.011,0.002 -0.014,-0.006 -0.016,-0.014 -0.019,-0.022 -0.009,-0.018 -0.001,-0.013 0,0"
             style="fill:#100f0d;fill-opacity:1;fill-rule:nonzero;stroke:none"
             id="path52963" />
        </g>
      </g>
    </g>
  </g>
</svg>
