<?xml version="1.0" encoding="UTF-8" standalone="no"?>
<!-- Created with Inkscape (http://www.inkscape.org/) -->

<svg
   width="16.813759"
   height="24"
   viewBox="0 0 4.4486404 6.3500001"
   version="1.1"
   id="svg18235"
   inkscape:version="1.2.1 (9c6d41e4, 2022-07-14)"
   sodipodi:docname="skull.svg"
   xmlns:inkscape="http://www.inkscape.org/namespaces/inkscape"
   xmlns:sodipodi="http://sodipodi.sourceforge.net/DTD/sodipodi-0.dtd"
   xmlns="http://www.w3.org/2000/svg"
   xmlns:svg="http://www.w3.org/2000/svg">
  <sodipodi:namedview
     id="namedview18237"
     pagecolor="#505050"
     bordercolor="#eeeeee"
     borderopacity="1"
     inkscape:showpageshadow="0"
     inkscape:pageopacity="0"
     inkscape:pagecheckerboard="0"
     inkscape:deskcolor="#505050"
     inkscape:document-units="mm"
     showgrid="false"
     inkscape:zoom="0.70199214"
     inkscape:cx="-159.54595"
     inkscape:cy="163.8195"
     inkscape:window-width="1390"
     inkscape:window-height="938"
     inkscape:window-x="0"
     inkscape:window-y="25"
     inkscape:window-maximized="0"
     inkscape:current-layer="layer1" />
  <defs
     id="defs18232" />
  <g
     inkscape:label="Layer 1"
     inkscape:groupmode="layer"
     id="layer1"
     transform="translate(-147.85715,-105.20812)">
    <g
       fill="#231f20"
       fill-opacity="1"
       id="g14086"
       transform="matrix(0.76949451,0,0,0.76949451,-94.750039,-218.66242)">
      <g
         id="use14084"
         transform="translate(315,427.362)">
        <path
           d="m 6.0625,-0.546875 c 0,0.0625 -0.015625,0.136719 -0.046875,0.21875 -0.023437,0.011719 -0.042969,0.039063 -0.0625,0.078125 -0.023437,0.023438 -0.042969,0.042969 -0.0625,0.0625 -0.023437,0.023438 -0.042969,0.046875 -0.0625,0.078125 C 5.816406,-0.0976562 5.800781,-0.0820312 5.78125,-0.0625 5.75,-0.0195312 5.707031,-0.015625 5.65625,-0.046875 5.644531,-0.0546875 5.628906,-0.0625 5.609375,-0.0625 5.597656,-0.0703125 5.585938,-0.0820312 5.578125,-0.09375 5.546875,-0.101562 5.519531,-0.113281 5.5,-0.125 5.476562,-0.132812 5.457031,-0.140625 5.4375,-0.140625 5.332031,-0.203125 5.210938,-0.238281 5.078125,-0.25 c -0.105469,0 -0.214844,0 -0.328125,0 -0.105469,0 -0.226562,0 -0.359375,0 -0.09375,0 -0.179687,0.015625 -0.25,0.046875 -0.023437,0 -0.042969,0.007813 -0.0625,0.015625 -0.011719,0 -0.023437,0.007812 -0.03125,0.015625 -0.03125,0.011719 -0.054687,0.03125 -0.0625,0.0625 0,0.03125 -0.00781,0.0625 -0.015625,0.09375 -0.011719,0.03125 -0.015625,0.0625 -0.015625,0.09375 -0.023437,0.0625 -0.023437,0.117187 0,0.171875 0,0.019531 0.00391,0.035156 0.015625,0.046875 C 3.976562,0.316406 3.984375,0.34375 3.984375,0.375 3.992188,0.382812 4.003906,0.390625 4.015625,0.390625 4.046875,0.378906 4.078125,0.375 4.109375,0.375 c 0.03125,0 0.054687,0 0.078125,0 0.019531,-0.011719 0.035156,-0.007812 0.046875,0.015625 0.00781,0.03125 0.023437,0.050781 0.046875,0.0625 0,0.007813 0.00391,0.019531 0.015625,0.03125 0.00781,0.03125 0.019531,0.035156 0.03125,0.015625 0.00781,0 0.019531,-0.007812 0.03125,-0.015625 0,0 0.00391,-0.007813 0.015625,-0.015625 0.019531,-0.011719 0.035156,-0.007812 0.046875,0.015625 0,0.019531 0,0.035156 0,0.046875 0,0.019531 0,0.039062 0,0.0625 0,0.03125 0.015625,0.070312 0.046875,0.125 C 4.5,0.769531 4.519531,0.828125 4.53125,0.890625 4.53906,0.953125 4.550781,1.019531 4.5625,1.09375 4.582031,1.125 4.56641,1.148438 4.515625,1.171875 c -0.011719,0 -0.023437,0 -0.03125,0 -0.011719,0.00781 -0.015625,0.019531 -0.015625,0.03125 -0.011719,0 -0.027344,0.00781 -0.046875,0.03125 0,0.019531 -0.00781,0.035156 -0.015625,0.046875 C 4.375,1.300781 4.347656,1.320312 4.328125,1.34375 4.304688,1.363281 4.28125,1.382812 4.25,1.40625 4.238281,1.414062 4.226562,1.421875 4.21875,1.421875 4.207031,1.429688 4.195312,1.425781 4.1875,1.40625 4.175781,1.394531 4.171875,1.382812 4.171875,1.375 4.160156,1.34375 4.148438,1.3125 4.140625,1.28125 4.140625,1.25 4.132812,1.222656 4.125,1.203125 c 0,-0.03125 0,-0.058594 0,-0.078125 0,-0.011719 -0.00781,-0.03125 -0.015625,-0.0625 0,-0.011719 0,-0.015625 0,-0.015625 H 4.09375 C 4.070312,1.097656 4.0625,1.128906 4.0625,1.140625 4.050781,1.203125 4.054688,1.257812 4.078125,1.3125 4.085938,1.332031 4.09375,1.351562 4.09375,1.375 c 0,0.019531 0,0.039062 0,0.0625 0,0.050781 -0.023438,0.085938 -0.0625,0.109375 -0.011719,0 -0.015625,0 -0.015625,0 C 4.015625,1.554688 4.007812,1.5625 4,1.5625 3.976562,1.570312 3.957031,1.582031 3.9375,1.59375 3.914062,1.601562 3.894531,1.613281 3.875,1.625 c -0.011719,0 -0.015625,0 -0.015625,0 0,0.00781 -0.00781,0.015625 -0.015625,0.015625 C 3.800781,1.648438 3.78125,1.632812 3.78125,1.59375 3.769531,1.582031 3.765625,1.5625 3.765625,1.53125 c 0,-0.011719 0,-0.023438 0,-0.03125 0.00781,0 0.015625,-0.011719 0.015625,-0.03125 0,-0.011719 -0.00781,-0.023438 -0.015625,-0.03125 0,-0.03125 -0.011719,-0.039062 -0.03125,-0.015625 C 3.722656,1.429688 3.710938,1.445312 3.703125,1.46875 3.660156,1.476562 3.632812,1.488281 3.625,1.5 c 0,0.019531 0,0.035156 0,0.046875 0.039062,0.019531 0.0625,0.035156 0.0625,0.046875 0.00781,0.019531 0.015625,0.039062 0.015625,0.0625 0,0.00781 -0.023437,0.019531 -0.0625,0.03125 C 3.609375,1.69531 3.585938,1.707031 3.578125,1.71875 3.546875,1.738281 3.507812,1.75 3.46875,1.75 3.425781,1.757812 3.390625,1.757812 3.359375,1.75 3.335938,1.738281 3.316406,1.71875 3.296875,1.6875 3.285156,1.644531 3.28125,1.613281 3.28125,1.59375 c 0,-0.03125 0,-0.0625 0,-0.09375 0,-0.023438 0,-0.042969 0,-0.0625 0.00781,-0.03125 0.015625,-0.0625 0.015625,-0.09375 0,-0.03125 0,-0.0625 0,-0.09375 C 3.285156,1.21875 3.28125,1.179688 3.28125,1.140625 c 0,-0.03125 -0.00781,-0.070313 -0.015625,-0.109375 -0.023437,0 -0.03125,0 -0.03125,0 C 3.222656,1.070312 3.210938,1.113281 3.203125,1.15625 3.191406,1.195312 3.179688,1.234375 3.171875,1.265625 3.160156,1.296875 3.15625,1.320312 3.15625,1.34375 c 0,0.03125 0,0.0625 0,0.09375 0,0.019531 0,0.035156 0,0.046875 0,0.019531 0.00391,0.046875 0.015625,0.078125 0,0.00781 0,0.019531 0,0.03125 0,0.019531 0.00391,0.039062 0.015625,0.0625 0,0.019531 -0.00781,0.035156 -0.015625,0.046875 C 3.160156,1.722656 3.148438,1.738281 3.140625,1.75 3.078125,1.78125 3.023438,1.785156 2.984375,1.765625 2.941406,1.765625 2.910156,1.738281 2.890625,1.6875 2.878906,1.632812 2.875,1.597656 2.875,1.578125 V 1.5 c 0,0 0,-0.00781 0,-0.015625 0,0 0,-0.00781 0,-0.015625 C 2.863281,1.488281 2.859375,1.5 2.859375,1.5 c 0,0.00781 -0.00781,0.019531 -0.015625,0.03125 C 2.832031,1.5625 2.820312,1.59375 2.8125,1.625 2.8125,1.63281 2.80469,1.644531 2.796875,1.65625 2.785156,1.664062 2.769531,1.671875 2.75,1.671875 2.675781,1.660156 2.625,1.644531 2.59375,1.625 2.5625,1.613281 2.535156,1.59375 2.515625,1.5625 2.484375,1.53125 2.46875,1.488281 2.46875,1.4375 c 0,-0.0625 0,-0.125 0,-0.1875 C 2.476562,1.1875 2.488281,1.125 2.5,1.0625 c 0,0 -0.00781,-0.00781 -0.015625,-0.015625 V 1.0625 C 2.453125,1.113281 2.421875,1.164062 2.390625,1.21875 2.367188,1.269531 2.351562,1.328125 2.34375,1.390625 c 0,0.00781 0,0.019531 0,0.03125 0,0.019531 -0.00781,0.035156 -0.015625,0.046875 0,0.00781 0,0.019531 0,0.03125 C 2.304688,1.519531 2.289062,1.523438 2.28125,1.515625 2.25,1.503906 2.210938,1.472656 2.171875,1.421875 2.128906,1.359375 2.109375,1.289062 2.109375,1.21875 c -0.023437,-0.09375 -0.023437,-0.195312 0,-0.296875 0.019531,-0.03125 0.03125,-0.0625 0.03125,-0.09375 0.00781,-0.03125 0.015625,-0.0625 0.015625,-0.09375 0.019531,-0.125 0.082031,-0.242187 0.1875,-0.34375 C 2.351562,0.378906 2.363281,0.367188 2.375,0.359375 2.382812,0.347656 2.394531,0.335938 2.40625,0.328125 2.425781,0.316406 2.445312,0.300781 2.46875,0.28125 2.488281,0.257812 2.5,0.226562 2.5,0.1875 c 0,-0.011719 0,-0.023438 0,-0.03125 0.00781,0 0.015625,-0.007812 0.015625,-0.015625 -0.011719,-0.0742188 -0.00781,-0.1484375 0.015625,-0.234375 0.019531,-0.03125 0.019531,-0.050781 0,-0.0625 C 2.519531,-0.164062 2.5,-0.175781 2.46875,-0.1875 2.457031,-0.195312 2.441406,-0.203125 2.421875,-0.203125 c -0.011719,0 -0.027344,0 -0.046875,0 C 2.351562,-0.210938 2.332031,-0.21875 2.3125,-0.21875 2.300781,-0.21875 2.285156,-0.222656 2.265625,-0.234375 2.222656,-0.242188 2.175781,-0.25 2.125,-0.25 2.070312,-0.257812 2.023438,-0.269531 1.984375,-0.28125 c -0.054687,0 -0.117187,0 -0.1875,0 -0.0625,0 -0.125,0.007812 -0.1875,0.015625 -0.023437,0 -0.046875,0 -0.078125,0 -0.023438,0 -0.042969,0.007813 -0.0625,0.015625 -0.054688,0.011719 -0.101562,0.023438 -0.140625,0.03125 -0.042969,0.011719 -0.085937,0.023438 -0.125,0.03125 -0.042969,0.03125 -0.085937,0.046875 -0.125,0.046875 C 1.054688,-0.117188 1.019531,-0.101562 0.96875,-0.09375 0.894531,-0.0820312 0.820312,-0.101562 0.75,-0.15625 0.695312,-0.207031 0.648438,-0.253906 0.609375,-0.296875 0.578125,-0.347656 0.546875,-0.398438 0.515625,-0.453125 0.484375,-0.515625 0.457031,-0.570312 0.4375,-0.625 0.414062,-0.695312 0.421875,-0.769531 0.453125,-0.84375 c 0,-0.007812 0.003906,-0.023438 0.015625,-0.046875 C 0.476562,-0.910156 0.488281,-0.9375 0.5,-0.96875 0.507812,-1 0.519531,-1.023438 0.53125,-1.046875 0.539062,-1.078125 0.550781,-1.101562 0.5625,-1.125 0.613281,-1.1875 0.632812,-1.269531 0.625,-1.375 0.613281,-1.425781 0.601562,-1.46875 0.59375,-1.5 0.59375,-1.539062 0.585938,-1.582031 0.578125,-1.625 0.566406,-1.65625 0.5625,-1.679688 0.5625,-1.703125 c 0,-0.019531 -0.007812,-0.039063 -0.015625,-0.0625 -0.011719,-0.113281 -0.023437,-0.207031 -0.03125,-0.28125 0,-0.082031 0.007813,-0.160156 0.03125,-0.234375 0.007813,-0.101562 0.019531,-0.203125 0.03125,-0.296875 C 0.597656,-2.671875 0.613281,-2.78125 0.625,-2.90625 0.632812,-2.945312 0.640625,-2.984375 0.640625,-3.015625 0.648438,-3.054688 0.65625,-3.09375 0.65625,-3.125 c 0,-0.03125 0,-0.0625 0,-0.09375 C 0.664062,-3.25 0.671875,-3.273438 0.671875,-3.296875 0.671875,-3.378906 0.664062,-3.46875 0.65625,-3.5625 0.644531,-3.65625 0.632812,-3.757812 0.625,-3.875 0.613281,-3.9375 0.597656,-3.976562 0.578125,-4 c 0,-0.00781 0,-0.015625 0,-0.015625 L 0.5625,-4 v 0.34375 c 0,0.03125 0,0.0625 0,0.09375 0,0.023438 0,0.046875 0,0.078125 -0.011719,0.023437 -0.023438,0.046875 -0.03125,0.078125 0,0.023438 -0.007812,0.046875 -0.015625,0.078125 -0.011719,0.023437 -0.023437,0.042969 -0.03125,0.0625 0,0.023437 -0.011719,0.042969 -0.03125,0.0625 C 0.429688,-3.148438 0.414062,-3.097656 0.40625,-3.046875 0.394531,-2.992188 0.390625,-2.9375 0.390625,-2.875 c 0,0.054688 0,0.09375 0,0.125 0,0.03125 -0.007813,0.058594 -0.015625,0.078125 0,0.011719 0,0.015625 0,0.015625 C 0.363281,-2.664062 0.359375,-2.675781 0.359375,-2.6875 0.347656,-2.75 0.335938,-2.816406 0.328125,-2.890625 0.316406,-2.960938 0.3125,-3.03125 0.3125,-3.09375 0.289062,-3.1875 0.28125,-3.28125 0.28125,-3.375 c 0,-0.09375 0,-0.1875 0,-0.28125 C 0.289062,-3.738281 0.296875,-3.8125 0.296875,-3.875 0.304688,-3.9375 0.3125,-3.992188 0.3125,-4.046875 0.320312,-4.109375 0.332031,-4.164062 0.34375,-4.21875 0.351562,-4.28125 0.363281,-4.347656 0.375,-4.421875 0.382812,-4.460938 0.390625,-4.503906 0.390625,-4.546875 0.398438,-4.597656 0.414062,-4.65625 0.4375,-4.71875 c 0.019531,-0.125 0.054688,-0.234375 0.109375,-0.328125 0.039063,-0.0625 0.082031,-0.125 0.125,-0.1875 0.050781,-0.0625 0.117187,-0.125 0.203125,-0.1875 0.09375,-0.101563 0.1875,-0.203125 0.28125,-0.296875 0.09375,-0.101562 0.191406,-0.1875 0.296875,-0.25 0.050781,-0.039062 0.09375,-0.070312 0.125,-0.09375 0.039063,-0.03125 0.082031,-0.050781 0.125,-0.0625 0.039063,-0.019531 0.085937,-0.035156 0.140625,-0.046875 0.050781,-0.019531 0.113281,-0.039063 0.1875,-0.0625 0.113281,-0.039063 0.226562,-0.070313 0.34375,-0.09375 0.125,-0.03125 0.257812,-0.054687 0.40625,-0.078125 0.113281,-0.039062 0.226562,-0.0625 0.34375,-0.0625 0.039062,0 0.078125,0 0.109375,0 0.039063,-0.00781 0.078125,-0.00781 0.109375,0 0.050781,0 0.101562,0 0.15625,0 0.0625,0 0.140625,0.00781 0.234375,0.015625 0.09375,0.023437 0.1875,0.042969 0.28125,0.0625 0.09375,0.023437 0.1875,0.046875 0.28125,0.078125 0.144531,0.054688 0.285156,0.117188 0.421875,0.1875 0.132812,0.0625 0.253906,0.136719 0.359375,0.21875 0.09375,0.085938 0.171875,0.179688 0.234375,0.28125 0.050781,0.074219 0.109375,0.140625 0.171875,0.203125 0.0625,0.0625 0.125,0.125 0.1875,0.1875 0.03125,0.042969 0.0625,0.085937 0.09375,0.125 0.03125,0.042969 0.054687,0.085937 0.078125,0.125 0.039062,0.074219 0.070312,0.167969 0.09375,0.28125 0.03125,0.105469 0.054688,0.199219 0.078125,0.28125 0.00781,0.125 0.015625,0.25 0.015625,0.375 v 0.390625 c 0,0.042969 -0.00781,0.089844 -0.015625,0.140625 0,0.042969 0,0.089844 0,0.140625 l -0.03125,0.21875 C 5.972656,-3.125 5.96875,-3.085938 5.96875,-3.046875 c 0,0.03125 0,0.058594 0,0.078125 -0.011719,0.148438 -0.023438,0.257812 -0.03125,0.328125 0,0.042969 -0.011719,0.09375 -0.03125,0.15625 0,0.011719 -0.00781,0.027344 -0.015625,0.046875 H 5.875 C 5.863281,-2.457031 5.851562,-2.476562 5.84375,-2.5 c 0,-0.00781 0,-0.023438 0,-0.046875 0,-0.019531 -0.00781,-0.046875 -0.015625,-0.078125 0,-0.019531 0,-0.050781 0,-0.09375 0,-0.039062 -0.00781,-0.09375 -0.015625,-0.15625 0,-0.0625 -0.011719,-0.113281 -0.03125,-0.15625 C 5.769531,-3.082031 5.757812,-3.128906 5.75,-3.171875 5.75,-3.222656 5.74219,-3.273438 5.734375,-3.328125 V -3.65625 c 0,0.011719 -0.00781,0.015625 -0.015625,0.015625 0,0.011719 0,0.023437 0,0.03125 0,0 0,0.00781 0,0.015625 -0.011719,0.074219 -0.023438,0.148438 -0.03125,0.21875 -0.011719,0.0625 -0.023438,0.132812 -0.03125,0.203125 0,0.0625 -0.00781,0.132813 -0.015625,0.203125 -0.011719,0.0625 -0.015625,0.148438 -0.015625,0.25 0.00781,0.054688 0.019531,0.105469 0.03125,0.15625 0.00781,0.054688 0.03125,0.105469 0.0625,0.15625 0.03125,0.042969 0.054688,0.089844 0.078125,0.140625 0.019531,0.054687 0.046875,0.105469 0.078125,0.15625 0.019531,0.03125 0.03125,0.0625 0.03125,0.09375 0,0.023437 0.00391,0.046875 0.015625,0.078125 0.00781,0.023438 0.019531,0.070312 0.03125,0.140625 0.00781,0.03125 0.019531,0.070313 0.03125,0.109375 0.019531,0.042969 0.035156,0.078125 0.046875,0.109375 0.03125,0.125 0.035156,0.246094 0.015625,0.359375 l -0.03125,0.203125 C 6.003906,-0.921875 6,-0.847656 6,-0.796875 c 0.00781,0.042969 0.019531,0.085937 0.03125,0.125 0,0.011719 0,0.023437 0,0.03125 0.00781,0.011719 0.015625,0.023437 0.015625,0.03125 0.00781,0.011719 0.015625,0.03125 0.015625,0.0625 z M 2.546875,-1.03125 c 0.03125,-0.019531 0.054687,-0.039062 0.078125,-0.0625 0.03125,-0.019531 0.070312,-0.039062 0.125,-0.0625 0.00781,-0.03125 0.019531,-0.050781 0.03125,-0.0625 0.019531,-0.019531 0.035156,-0.039062 0.046875,-0.0625 0.019531,0 0.035156,0 0.046875,0 0.03125,0.011719 0.050781,0.027344 0.0625,0.046875 0.019531,0.023437 0.039062,0.039063 0.0625,0.046875 0,0.011719 0.00781,0.015625 0.03125,0.015625 0,0 0,-0.00781 0,-0.03125 0,-0.050781 0,-0.085937 0,-0.109375 C 3.019531,-1.34375 3.007812,-1.367188 3,-1.390625 c -0.011719,-0.03125 -0.023438,-0.0625 -0.03125,-0.09375 -0.011719,-0.039063 -0.011719,-0.085937 0,-0.140625 0.019531,-0.03125 0.023438,-0.054688 0.015625,-0.078125 0,-0.03125 0,-0.054687 0,-0.078125 0,-0.03125 0,-0.070312 0,-0.125 0,-0.00781 -0.00781,-0.015625 -0.015625,-0.015625 -0.011719,-0.00781 -0.023438,-0.00781 -0.03125,0 -0.011719,0.011719 -0.015625,0.015625 -0.015625,0.015625 0,0.042969 -0.00781,0.074219 -0.015625,0.09375 -0.011719,0.011719 -0.023438,0.011719 -0.03125,0 -0.011719,0 -0.03125,0 -0.0625,0 0,-0.050781 0,-0.078125 0,-0.078125 0,-0.00781 0,-0.019531 0,-0.03125 -0.023438,-0.039063 -0.046875,-0.070313 -0.078125,-0.09375 -0.03125,-0.03125 -0.085937,-0.0625 -0.15625,-0.09375 -0.074219,-0.039063 -0.152344,-0.070313 -0.234375,-0.09375 -0.074219,-0.019531 -0.152344,-0.039063 -0.234375,-0.0625 -0.054687,-0.00781 -0.089844,-0.00781 -0.109375,0 -0.011719,0 -0.039062,0.015625 -0.078125,0.046875 0,-0.00781 -0.00781,-0.015625 -0.015625,-0.015625 -0.042969,-0.03125 -0.117188,-0.03125 -0.21875,0 -0.011719,0 -0.015625,0.00781 -0.015625,0.015625 -0.0625,0.03125 -0.117187,0.042969 -0.15625,0.03125 -0.011719,0 -0.023437,0 -0.03125,0 -0.011719,-0.00781 -0.023437,-0.015625 -0.03125,-0.015625 -0.011719,0 -0.042969,0 -0.09375,0 -0.0625,0 -0.121094,0.011719 -0.171875,0.03125 -0.011719,0.011719 -0.023438,0.015625 -0.03125,0.015625 0,0 -0.00781,0 -0.015625,0 -0.03125,0.011719 -0.054687,0.015625 -0.0625,0.015625 0,0 -0.011719,-0.00391 -0.03125,-0.015625 -0.023437,0 -0.03125,0.011719 -0.03125,0.03125 0,0.054688 -0.011719,0.089844 -0.03125,0.109375 -0.011719,0.023437 -0.023437,0.046875 -0.03125,0.078125 0,0.023438 0.003906,0.058594 0.015625,0.109375 0,0.03125 -0.007812,0.074219 -0.015625,0.125 C 0.941406,-1.679688 0.9375,-1.65625 0.9375,-1.625 c 0,0.03125 -0.007812,0.0625 -0.015625,0.09375 v 0.0625 c 0.007813,0.125 0.039063,0.246094 0.09375,0.359375 0,0.042969 0.00781,0.074219 0.03125,0.09375 0.03125,0.074219 0.0625,0.132813 0.09375,0.171875 0.039063,0.03125 0.082031,0.0625 0.125,0.09375 0.03125,0.011719 0.0625,0.03125 0.09375,0.0625 0.00781,0.03125 0.019531,0.054688 0.03125,0.0625 0.00781,0.011719 0.019531,0.015625 0.03125,0.015625 0.00781,0.023437 0.019531,0.03125 0.03125,0.03125 C 1.460938,-0.585938 1.476562,-0.597656 1.5,-0.609375 l 0.015625,-0.0625 C 1.554688,-0.722656 1.613281,-0.75 1.6875,-0.75 H 1.90625 C 1.9375,-0.738281 1.96875,-0.734375 2,-0.734375 2.039062,-0.742188 2.078125,-0.75 2.109375,-0.75 2.191406,-0.757812 2.269531,-0.78125 2.34375,-0.8125 c 0.039062,-0.019531 0.078125,-0.050781 0.109375,-0.09375 0.03125,-0.039062 0.0625,-0.082031 0.09375,-0.125 z M 3.8125,-0.015625 c 0,-0.03125 0,-0.0546875 0,-0.078125 0.00781,-0.019531 0.015625,-0.039062 0.015625,-0.0625 C 3.816406,-0.175781 3.8125,-0.195312 3.8125,-0.21875 3.800781,-0.25 3.789062,-0.273438 3.78125,-0.296875 c 0,-0.03125 -0.00781,-0.0625 -0.015625,-0.09375 C 3.753906,-0.429688 3.738281,-0.46875 3.71875,-0.5 3.695312,-0.53125 3.65625,-0.5625 3.59375,-0.59375 3.570312,-0.625 3.550781,-0.648438 3.53125,-0.671875 3.519531,-0.703125 3.503906,-0.734375 3.484375,-0.765625 3.472656,-0.785156 3.460938,-0.800781 3.453125,-0.8125 c 0,-0.019531 -0.011719,-0.039062 -0.03125,-0.0625 C 3.410156,-0.9375 3.394531,-0.984375 3.375,-1.015625 3.332031,-1.035156 3.296875,-1.039062 3.265625,-1.03125 3.160156,-0.957031 3.09375,-0.863281 3.0625,-0.75 c 0,0.023438 -0.011719,0.0625 -0.03125,0.125 C 3,-0.550781 2.960938,-0.484375 2.921875,-0.421875 2.890625,-0.359375 2.851562,-0.289062 2.8125,-0.21875 2.789062,-0.1875 2.769531,-0.140625 2.75,-0.078125 2.644531,0.0546875 2.648438,0.164062 2.765625,0.25 c 0.019531,0.050781 0.039063,0.097656 0.0625,0.140625 0.019531,0.039063 0.050781,0.070313 0.09375,0.09375 0.00781,0.007813 0.023437,0.019531 0.046875,0.03125 0.019531,0.007813 0.039062,0.019531 0.0625,0.03125 C 3.050781,0.554688 3.070312,0.5625 3.09375,0.5625 3.125,0.570312 3.148438,0.566406 3.171875,0.546875 3.171875,0.535156 3.175781,0.519531 3.1875,0.5 3.195312,0.488281 3.203125,0.476562 3.203125,0.46875 c 0,-0.011719 0.00391,-0.023438 0.015625,-0.03125 0,-0.042969 0.019531,-0.074219 0.0625,-0.09375 C 3.3125,0.320312 3.335938,0.328125 3.359375,0.359375 3.378906,0.367188 3.390625,0.375 3.390625,0.375 c 0,0.007812 0.00391,0.019531 0.015625,0.03125 C 3.4375,0.4375 3.472656,0.445312 3.515625,0.4375 3.554688,0.414062 3.601562,0.390625 3.65625,0.359375 3.707031,0.335938 3.738281,0.304688 3.75,0.265625 c 0,-0.011719 0,-0.023437 0,-0.03125 0.00781,-0.011719 0.015625,-0.023437 0.015625,-0.03125 0,-0.023437 0,-0.046875 0,-0.078125 0.00781,-0.023438 0.019531,-0.046875 0.03125,-0.078125 0,-0.0234375 0.00391,-0.04296875 0.015625,-0.0625 z M 5.796875,-1.28125 c 0,-0.019531 0,-0.039062 0,-0.0625 0,-0.019531 0.00391,-0.039062 0.015625,-0.0625 -0.011719,-0.03125 -0.015625,-0.054688 -0.015625,-0.078125 0,-0.019531 0,-0.046875 0,-0.078125 0,-0.039062 -0.011719,-0.078125 -0.03125,-0.109375 C 5.742188,-1.722656 5.71875,-1.78125 5.6875,-1.84375 5.65625,-1.90625 5.617188,-1.957031 5.578125,-2 5.554688,-2.019531 5.535156,-2.03125 5.515625,-2.03125 5.503906,-2.039062 5.484375,-2.050781 5.453125,-2.0625 5.390625,-2.09375 5.332031,-2.117188 5.28125,-2.140625 5.226562,-2.160156 5.175781,-2.1875 5.125,-2.21875 5.101562,-2.238281 5.082031,-2.25 5.0625,-2.25 c -0.03125,-0.019531 -0.078125,-0.019531 -0.140625,0 -0.011719,0.011719 -0.023437,0.015625 -0.03125,0.015625 0,0 0,0.00781 0,0.015625 -0.011719,0 -0.027344,0.00781 -0.046875,0.015625 -0.042969,0.023437 -0.085938,0.03125 -0.125,0.03125 -0.023438,0 -0.0625,-0.00781 -0.125,-0.03125 C 4.5625,-2.210938 4.53125,-2.222656 4.5,-2.234375 4.46875,-2.253906 4.445312,-2.25 4.4375,-2.21875 c -0.011719,0.023438 -0.015625,0.039062 -0.015625,0.046875 -0.011719,0.023437 -0.03125,0.03125 -0.0625,0.03125 -0.042969,0 -0.085937,0.015625 -0.125,0.046875 -0.011719,0.023438 -0.027344,0.03125 -0.046875,0.03125 -0.011719,0 -0.027344,0.00781 -0.046875,0.015625 -0.054687,0.03125 -0.09375,0.042969 -0.125,0.03125 -0.03125,0 -0.074219,0.00781 -0.125,0.015625 0,0.011719 -0.00781,0.015625 -0.015625,0.015625 -0.03125,0 -0.039062,0.015625 -0.015625,0.046875 0.00781,0.011719 0.015625,0.015625 0.015625,0.015625 0.00781,0 0.019531,0.00781 0.03125,0.015625 0.00781,0.042969 0.015625,0.074219 0.015625,0.09375 0,0.011719 0,0.023438 0,0.03125 0.00781,0.0625 -0.00781,0.121094 -0.046875,0.171875 -0.011719,0.023437 -0.023438,0.042969 -0.03125,0.0625 -0.011719,0.011719 -0.023438,0.023437 -0.03125,0.03125 -0.023438,0.03125 -0.039062,0.0625 -0.046875,0.09375 -0.011719,0.03125 -0.027344,0.0625 -0.046875,0.09375 V -1.3125 H 3.75 c 0.019531,-0.00781 0.03125,-0.015625 0.03125,-0.015625 0.019531,0 0.03125,0 0.03125,0 0.00781,0.03125 0.03125,0.074219 0.0625,0.125 0.03125,0.042969 0.0625,0.085937 0.09375,0.125 0.039062,0.03125 0.082031,0.070313 0.125,0.109375 0.019531,0.054688 0.046875,0.09375 0.078125,0.125 l 0.109375,0.046875 c 0.132812,0.054687 0.296875,0.101563 0.484375,0.140625 0.0625,0.011719 0.125,0.011719 0.1875,0 C 5.035156,-0.664062 5.125,-0.691406 5.21875,-0.734375 5.300781,-0.765625 5.378906,-0.8125 5.453125,-0.875 c 0.082031,-0.0625 0.164063,-0.128906 0.25,-0.203125 0.039063,-0.019531 0.0625,-0.039063 0.0625,-0.0625 0.00781,-0.019531 0.019531,-0.050781 0.03125,-0.09375 z m 0,0"
           id="path18259" />
      </g>
    </g>
  </g>
</svg>
