<?xml version="1.0" encoding="UTF-8" standalone="no"?>
<!-- Created with Inkscape (http://www.inkscape.org/) -->

<svg
   width="27.513258"
   height="24"
   viewBox="0 0 7.2795495 6.35"
   version="1.1"
   id="svg63172"
   inkscape:version="1.2.1 (9c6d41e4, 2022-07-14)"
   sodipodi:docname="devil-reef.svg"
   xmlns:inkscape="http://www.inkscape.org/namespaces/inkscape"
   xmlns:sodipodi="http://sodipodi.sourceforge.net/DTD/sodipodi-0.dtd"
   xmlns="http://www.w3.org/2000/svg"
   xmlns:svg="http://www.w3.org/2000/svg">
  <sodipodi:namedview
     id="namedview63174"
     pagecolor="#505050"
     bordercolor="#eeeeee"
     borderopacity="1"
     inkscape:showpageshadow="0"
     inkscape:pageopacity="0"
     inkscape:pagecheckerboard="0"
     inkscape:deskcolor="#505050"
     inkscape:document-units="mm"
     showgrid="false"
     inkscape:zoom="0.7046647"
     inkscape:cx="-1.4191146"
     inkscape:cy="305.81921"
     inkscape:window-width="1390"
     inkscape:window-height="941"
     inkscape:window-x="0"
     inkscape:window-y="25"
     inkscape:window-maximized="0"
     inkscape:current-layer="layer1" />
  <defs
     id="defs63169">
    <clipPath
       clipPathUnits="userSpaceOnUse"
       id="clipPath58009">
      <path
         d="m 319.951,365.056 h 24.699 v 24.7 h -24.699 z"
         id="path58007" />
    </clipPath>
  </defs>
  <g
     inkscape:label="Layer 1"
     inkscape:groupmode="layer"
     id="layer1"
     transform="translate(-105.62319,-67.789593)">
    <g
       id="g58003"
       transform="matrix(0.32628905,0,0,-0.32628905,0.83705324,194.10792)">
      <g
         id="g58005"
         clip-path="url(#clipPath58009)">
        <g
           id="g58011"
           transform="translate(343.309,378.88)">
          <path
             d="m 0,0 c -0.082,0.196 -0.147,0.432 -0.284,0.599 -0.203,0.246 -0.507,0.354 -0.808,0.429 -0.201,0.05 -0.405,0.094 -0.607,0.137 -0.061,0.012 -0.114,0.025 -0.172,0 C -1.945,1.135 -2.005,1.087 -2.071,1.044 -2.178,0.975 -2.303,0.919 -2.415,0.856 -2.495,0.81 -2.587,0.771 -2.679,0.759 -2.748,0.75 -2.819,0.76 -2.889,0.754 -2.936,0.75 -2.951,0.753 -2.987,0.794 -3.085,0.904 -3.128,1.044 -3.183,1.178 -3.222,1.273 -3.275,1.359 -3.313,1.456 -3.354,1.562 -3.412,1.674 -3.499,1.75 -3.616,1.853 -3.773,1.887 -3.905,1.783 -4.03,1.683 -4.084,1.497 -4.12,1.351 -4.19,1.074 -4.227,0.805 -4.23,0.519 -4.231,0.381 -4.188,0.273 -4.16,0.143 -4.144,0.072 -4.134,0.001 -4.154,-0.07 -4.183,-0.179 -4.293,-0.268 -4.367,-0.349 -4.427,-0.414 -4.493,-0.457 -4.564,-0.505 -4.61,-0.536 -4.672,-0.587 -4.728,-0.607 -4.79,-0.63 -4.842,-0.664 -4.902,-0.688 -5.018,-0.735 -5.143,-0.729 -5.265,-0.749 -5.395,-0.77 -5.529,-0.805 -5.65,-0.857 -5.752,-0.9 -5.792,-0.993 -5.845,-1.083 c -0.084,-0.144 -0.177,-0.285 -0.236,-0.44 -0.063,-0.167 -0.09,-0.346 -0.145,-0.515 -0.039,-0.117 -0.113,-0.228 -0.142,-0.348 -0.014,-0.062 -0.018,-0.138 -0.045,-0.196 -0.041,-0.093 -0.165,-0.169 -0.26,-0.192 -0.138,-0.034 -0.271,-0.014 -0.407,0.019 -0.097,0.024 -0.179,0.065 -0.254,0.13 -0.114,0.1 -0.114,0.22 -0.113,0.358 0,0.08 -0.005,0.158 -0.007,0.237 -0.002,0.05 0.003,0.112 -0.006,0.164 -0.017,0.087 -0.068,0.039 -0.11,0.088 -0.008,0.01 -0.005,0.035 -0.008,0.049 -0.013,0.051 -0.062,0.1 -0.101,0.132 -0.054,0.044 -0.113,0.075 -0.171,0.113 -0.086,0.055 -0.154,0.116 -0.218,0.198 -0.2,0.253 -0.445,0.466 -0.654,0.712 -0.068,0.079 -0.126,0.157 -0.201,0.231 -0.087,0.086 -0.142,0.191 -0.242,0.267 -0.14,0.105 -0.276,0.2 -0.404,0.32 -0.131,0.123 -0.256,0.249 -0.418,0.328 -0.09,0.043 -0.165,0.12 -0.261,0.149 -0.042,0.012 -0.09,0.022 -0.132,0.03 -0.11,0.022 -0.236,-0.014 -0.344,-0.024 -0.171,-0.016 -0.335,0 -0.505,0.013 -0.063,0.004 -0.084,0.009 -0.123,-0.04 -0.02,-0.025 -0.052,-0.046 -0.068,-0.07 -0.062,-0.094 -0.008,-0.299 0.041,-0.38 0.051,-0.083 0.132,-0.127 0.2,-0.195 0.052,-0.052 0.103,-0.11 0.152,-0.166 0.069,-0.079 0.136,-0.159 0.208,-0.236 0.085,-0.09 0.157,-0.174 0.228,-0.276 0.058,-0.085 0.094,-0.171 0.145,-0.259 0.043,-0.075 0.106,-0.138 0.151,-0.213 0.052,-0.085 0.102,-0.172 0.144,-0.263 0.037,-0.082 0.054,-0.155 0.059,-0.245 0.001,-0.034 0.002,-0.064 0.011,-0.097 0.015,-0.061 0.028,-0.099 -0.016,-0.153 -0.101,-0.121 -0.256,-0.116 -0.397,-0.106 -0.399,0.026 -0.807,0.077 -1.203,0.003 -0.083,-0.016 -0.165,-0.034 -0.245,-0.057 -0.082,-0.025 -0.151,-0.063 -0.227,-0.1 -0.067,-0.034 -0.102,-0.057 -0.087,-0.141 0.027,-0.153 0.243,-0.245 0.362,-0.313 0.08,-0.047 0.16,-0.105 0.245,-0.139 0.061,-0.024 0.118,-0.033 0.181,-0.046 0.112,-0.022 0.221,-0.05 0.335,-0.063 0.153,-0.017 0.306,0.005 0.459,-0.012 0.168,-0.018 0.341,-0.075 0.506,-0.112 0.116,-0.026 0.224,-0.067 0.338,-0.095 0.088,-0.022 0.181,-0.032 0.267,-0.062 0.095,-0.034 0.164,-0.099 0.251,-0.147 0.07,-0.038 0.11,-0.099 0.135,-0.174 0.024,-0.07 0.064,-0.121 0.097,-0.186 0.052,-0.101 0.09,-0.192 0.159,-0.284 0.065,-0.087 0.134,-0.174 0.213,-0.25 0.091,-0.087 0.216,-0.099 0.332,-0.129 0.12,-0.03 0.229,-0.085 0.349,-0.115 0.083,-0.021 0.161,-0.039 0.239,-0.071 0.054,-0.022 0.104,-0.05 0.159,-0.07 0.135,-0.047 0.28,-0.053 0.394,-0.149 0.03,-0.025 0.048,-0.055 0.072,-0.085 0.022,-0.027 0.054,-0.046 0.07,-0.077 0.034,-0.062 0.029,-0.15 0.055,-0.218 0.04,-0.104 0.062,-0.205 0.086,-0.314 0.039,-0.182 0.095,-0.358 0.118,-0.544 0.018,-0.141 0.051,-0.28 0.066,-0.421 0.016,-0.144 -0.011,-0.298 -0.065,-0.431 -0.056,-0.138 -0.164,-0.245 -0.219,-0.381 -0.031,-0.076 -0.05,-0.153 -0.077,-0.229 -0.052,-0.142 -0.087,-0.288 -0.136,-0.431 -0.071,-0.207 -0.174,-0.402 -0.268,-0.598 -0.068,-0.141 -0.119,-0.286 -0.213,-0.412 -0.057,-0.077 -0.119,-0.15 -0.196,-0.206 -0.073,-0.054 -0.152,-0.098 -0.229,-0.146 -0.105,-0.065 -0.202,-0.158 -0.248,-0.275 -0.042,-0.109 -0.074,-0.223 -0.11,-0.334 -0.046,-0.145 -0.1,-0.286 -0.151,-0.429 -0.053,-0.146 -0.005,-0.264 0.076,-0.394 0.053,-0.084 0.121,-0.137 0.19,-0.205 0.069,-0.066 0.12,-0.108 0.209,-0.144 0.084,-0.034 0.172,-0.054 0.254,-0.092 0.104,-0.049 0.183,-0.066 0.299,-0.056 0.095,0.008 0.172,0.016 0.265,0.003 0.069,-0.009 0.141,-0.036 0.209,-0.051 0.075,-0.018 0.135,-0.029 0.202,-0.064 l 0.438,0.132 c 0.241,0.137 0.538,0.157 0.765,0.327 0.098,0.073 0.189,0.191 0.252,0.295 0.049,0.083 0.087,0.17 0.125,0.259 0.044,0.104 0.099,0.211 0.126,0.321 0.064,0.252 0.057,0.515 0.097,0.771 0.014,0.086 0.013,0.173 0.029,0.258 0.011,0.053 0.019,0.104 0.015,0.159 -0.007,0.126 0,0.257 -0.03,0.38 -0.052,0.215 -0.018,0.424 0.031,0.637 0.028,0.126 0.049,0.25 0.103,0.368 0.054,0.117 0.126,0.218 0.222,0.305 0.245,0.22 0.567,0.347 0.872,0.455 0.095,0.034 0.189,0.076 0.278,0.123 0.048,0.026 0.099,0.037 0.146,0.064 0.07,0.04 0.138,0.099 0.223,0.083 0.043,-0.008 0.079,-0.02 0.124,-0.023 0.055,-0.004 0.112,0.006 0.168,0.005 0.064,-0.001 0.129,-0.016 0.193,-0.025 0.079,-0.011 0.159,-0.01 0.239,-0.009 0.088,0.001 0.174,-0.017 0.261,-0.018 0.063,0 0.119,0.006 0.183,-0.003 0.105,-0.017 0.208,-0.044 0.312,-0.069 0.072,-0.017 0.143,-0.04 0.218,-0.032 0.087,0.009 0.172,0.023 0.256,0.049 0.095,0.028 0.184,0.072 0.273,0.115 0.136,0.066 0.234,0.141 0.317,0.269 0.078,0.122 0.131,0.25 0.105,0.398 -0.014,0.08 -0.028,0.198 -0.063,0.273 -0.029,0.063 -0.105,0.137 -0.168,0.173 -0.052,0.03 -0.116,0.053 -0.17,0.078 -0.072,0.034 -0.144,0.072 -0.221,0.095 -0.226,0.067 -0.434,0.161 -0.674,0.17 -0.083,0.004 -0.162,-0.006 -0.244,0.005 -0.06,0.009 -0.118,0.01 -0.178,0.005 -0.157,-0.013 -0.321,-0.017 -0.474,-0.055 -0.061,-0.016 -0.117,-0.036 -0.18,-0.045 -0.144,-0.02 -0.293,-0.024 -0.437,-0.024 -0.199,0 -0.394,0.017 -0.589,0.058 -0.1,0.022 -0.251,0.04 -0.33,0.115 -0.063,0.059 -0.031,0.138 -0.007,0.21 0.056,0.159 0.188,0.323 0.357,0.366 0.12,0.03 0.253,0.02 0.376,0.029 0.064,0.005 0.126,0.013 0.189,0.017 0.04,0.003 0.098,-0.008 0.137,0.006 0.102,0.036 0.183,0.142 0.278,0.195 0.049,0.027 0.102,0.057 0.152,0.081 0.063,0.029 0.139,0.058 0.195,0.098 0.073,0.052 0.133,0.156 0.171,0.234 0.044,0.092 0.033,0.145 -10e-4,0.241 -0.034,0.092 -0.06,0.211 -0.134,0.28 -0.054,0.051 -0.135,0.083 -0.206,0.102 -0.052,0.014 -0.107,0.023 -0.16,0.034 -0.056,0.013 -0.125,0.042 -0.184,0.041 -0.037,-10e-4 -0.08,-0.017 -0.116,-0.023 -0.068,-0.013 -0.135,-0.018 -0.203,-0.032 -0.123,-0.026 -0.24,-0.079 -0.365,-0.102 -0.04,-0.008 -0.058,-0.015 -0.096,-0.006 -0.093,0.024 -0.131,0.099 -0.177,0.179 -0.05,0.084 -0.113,0.181 -0.142,0.274 -0.029,0.095 -0.009,0.158 0.012,0.252 0.014,0.063 0.021,0.143 0.049,0.2 0.036,0.075 0.08,0.12 0.148,0.173 0.134,0.103 0.289,0.185 0.438,0.26 0.288,0.144 0.586,0.273 0.885,0.39 0.189,0.074 0.38,0.095 0.582,0.097 0.106,0.002 0.223,-0.005 0.33,-0.015 0.035,-0.004 0.069,-0.015 0.105,-0.018 0.06,-0.005 0.12,-0.002 0.181,-0.008 0.189,-0.019 0.372,-0.064 0.563,-0.071 0.186,-0.006 0.38,-0.019 0.565,0.01 0.134,0.02 0.279,0.041 0.391,0.125 0.124,0.093 0.186,0.287 0.194,0.434 C 0.159,-0.454 0.097,-0.232 0,0"
             style="fill:#100f0d;fill-opacity:1;fill-rule:nonzero;stroke:none"
             id="path58013" />
        </g>
        <g
           id="g58015"
           transform="translate(332.626,370.446)">
          <path
             d="m 0,0 c -0.06,0.125 -0.108,0.258 -0.144,0.392 -0.037,0.138 -0.059,0.279 -0.101,0.416 -0.072,0.228 -0.146,0.475 -0.283,0.675 -0.057,0.082 -0.115,0.153 -0.179,0.229 -0.045,0.053 -0.084,0.102 -0.135,0.15 -0.064,0.06 -0.138,0.112 -0.195,0.181 -0.089,0.11 -0.125,0.228 -0.178,0.357 -0.018,0.041 -0.045,0.091 -0.049,0.135 -0.006,0.06 0.009,0.122 0.023,0.175 0.02,0.073 0.047,0.143 0.063,0.218 0.012,0.057 0.018,0.116 0.029,0.173 0.028,0.141 0.076,0.294 0.135,0.418 0.094,0.197 0.226,0.381 0.361,0.543 0.06,0.072 0.124,0.142 0.189,0.208 0.052,0.052 0.124,0.103 0.164,0.167 0.043,0.069 0.078,0.176 0.069,0.269 -0.016,0.173 -0.123,0.357 -0.205,0.511 -0.031,0.057 -0.06,0.125 -0.121,0.149 -0.033,0.013 -0.089,0.013 -0.118,0.02 -0.074,0.016 -0.152,0.06 -0.226,0.049 C -1.161,5.395 -1.355,5.185 -1.619,5.159 -1.712,5.15 -1.796,5.2 -1.872,5.274 -1.948,5.347 -1.993,5.445 -2.038,5.542 -2.111,5.7 -2.165,5.866 -2.216,6.03 c -0.026,0.084 -0.073,0.154 -0.101,0.236 -0.014,0.041 -0.016,0.085 -0.026,0.126 -0.031,0.121 -0.075,0.255 -0.052,0.375 0.032,0.174 0.137,0.342 0.233,0.474 0.086,0.118 0.185,0.22 0.262,0.347 0.042,0.071 0.087,0.141 0.128,0.213 0.023,0.042 0.065,0.095 0.058,0.153 -0.008,0.065 -0.052,0.137 -0.082,0.191 -0.005,0.009 -0.01,0.019 -0.016,0.028 0.007,0.053 0.02,0.105 0.037,0.156 0.037,0.108 0.102,0.201 0.158,0.301 0.079,0.139 0.153,0.283 0.246,0.414 0.065,0.09 0.137,0.174 0.201,0.265 0.033,0.049 0.072,0.093 0.104,0.144 0.058,0.09 0.078,0.199 0.137,0.291 0.057,0.089 0.138,0.171 0.229,0.225 0.089,0.053 0.184,0.095 0.274,0.146 0.12,0.067 0.246,0.113 0.369,0.169 0.074,0.034 0.142,0.066 0.22,0.089 0.05,0.014 0.1,0.055 0.15,0.063 0.025,0.004 0.049,-0.005 0.074,-0.006 0.027,-10e-4 0.052,0.002 0.079,-0.004 0.102,-0.024 0.164,-0.104 0.246,-0.16 0.033,-0.023 0.07,-0.039 0.104,-0.06 C 0.867,10.175 0.908,10.138 0.954,10.1 1.02,10.045 1.096,10.006 1.161,9.951 1.226,9.897 1.283,9.832 1.371,9.818 1.447,9.806 1.526,9.805 1.604,9.805 1.685,9.806 1.754,9.824 1.834,9.838 1.887,9.847 1.932,9.847 1.983,9.864 2.038,9.882 2.09,9.886 2.14,9.863 2.203,9.834 2.269,9.823 2.328,9.783 2.38,9.748 2.422,9.699 2.47,9.659 2.533,9.605 2.601,9.562 2.662,9.507 2.75,9.428 2.853,9.355 2.931,9.266 3.002,9.186 3.05,9.09 3.121,9.01 3.174,8.95 3.234,8.9 3.293,8.846 3.325,8.816 3.353,8.787 3.392,8.763 3.446,8.729 3.513,8.709 3.572,8.684 3.66,8.646 3.801,8.562 3.902,8.613 3.957,8.642 3.957,8.672 3.95,8.725 3.942,8.784 3.937,8.841 3.918,8.898 3.9,8.954 3.878,9.008 3.854,9.062 3.74,9.321 3.546,9.531 3.371,9.748 3.309,9.824 3.244,9.91 3.275,10.02 c 0.014,0.049 0.042,0.059 0.084,0.076 0.023,0.01 0.041,0.022 0.062,0.036 0.055,0.037 0.104,0.059 0.168,0.073 0.07,0.016 0.141,0.026 0.213,0.033 0.062,0.007 0.124,-10e-4 0.186,0.007 0.072,0.009 0.138,0.026 0.211,0.03 0.089,0.004 0.167,-0.001 0.254,-0.01 0.074,-0.008 0.148,-0.011 0.223,-0.016 0.052,-0.003 0.107,-0.007 0.159,-0.014 0.067,-0.01 0.125,-0.037 0.195,-0.029 0.067,0.007 0.21,0.065 0.24,0.142 0.008,0.02 0.007,0.047 0.014,0.069 0.014,0.044 0.003,0.053 -0.026,0.088 -0.075,0.091 -0.15,0.178 -0.209,0.283 -0.037,0.066 -0.066,0.153 -0.123,0.206 -0.022,0.021 -0.047,0.044 -0.071,0.062 -0.055,0.043 -0.131,0.052 -0.193,0.084 -0.111,0.059 -0.235,0.075 -0.36,0.096 -0.122,0.02 -0.233,0.057 -0.351,0.091 -0.084,0.024 -0.168,0.009 -0.255,0.022 -0.072,0.01 -0.142,0.01 -0.216,0.014 -0.229,0.012 -0.453,0.059 -0.682,0.063 -0.074,10e-4 -0.137,0.013 -0.204,0.038 -0.046,0.017 -0.088,0.037 -0.135,0.048 -0.035,0.009 -0.083,0.015 -0.119,0 C 2.331,11.508 2.317,11.495 2.308,11.496 2.263,11.498 2.271,11.548 2.212,11.52 2.178,11.503 2.144,11.473 2.113,11.452 2.065,11.419 2.018,11.387 1.971,11.352 1.89,11.292 1.818,11.239 1.713,11.261 1.645,11.275 1.588,11.304 1.536,11.349 1.462,11.413 1.397,11.48 1.361,11.573 c -0.024,0.064 -0.029,0.168 0.009,0.233 0.024,0.04 0.068,0.075 0.098,0.111 0.06,0.068 0.095,0.159 0.149,0.232 0.078,0.106 0.173,0.199 0.246,0.308 0.068,0.101 0.114,0.215 0.165,0.326 0.033,0.07 0.071,0.133 0.056,0.21 -0.018,0.092 -0.051,0.184 -0.09,0.267 -0.037,0.078 -0.091,0.147 -0.11,0.233 -0.009,0.045 -0.01,0.09 -0.021,0.135 -0.011,0.04 -0.006,0.098 -0.006,0.138 0,0.062 0,0.118 0.014,0.18 0.018,0.078 0.026,0.18 0.079,0.244 0.034,0.042 0.08,0.067 0.128,0.089 0.088,0.041 0.17,0.064 0.251,0.124 0.167,0.126 0.311,0.265 0.447,0.425 0.071,0.085 0.16,0.197 0.168,0.312 C 2.953,15.26 2.87,15.335 2.763,15.357 2.683,15.373 2.594,15.358 2.515,15.335 2.443,15.314 2.371,15.307 2.298,15.288 2.198,15.261 2.098,15.225 1.994,15.232 1.955,15.235 1.947,15.242 1.931,15.271 1.906,15.313 1.872,15.35 1.849,15.393 1.82,15.451 1.806,15.52 1.801,15.586 1.794,15.677 1.777,15.773 1.775,15.864 1.774,15.921 1.778,15.976 1.767,16.031 1.758,16.075 1.729,16.1 1.697,16.129 1.591,16.226 1.483,16.323 1.374,16.416 1.209,16.555 1.024,16.681 0.797,16.69 0.644,16.695 0.479,16.63 0.33,16.591 0.154,16.545 -0.002,16.484 -0.147,16.364 c -0.084,-0.069 -0.173,-0.189 -0.179,-0.3 -0.004,-0.101 0.041,-0.192 0.083,-0.278 0.057,-0.118 0.142,-0.223 0.22,-0.327 0.081,-0.105 0.18,-0.19 0.267,-0.29 0.028,-0.032 0.05,-0.068 0.078,-0.1 C 0.338,15.05 0.358,15.035 0.374,15.017 0.422,14.961 0.473,14.897 0.515,14.835 0.594,14.719 0.658,14.601 0.69,14.461 0.741,14.239 0.784,14.013 0.814,13.786 0.83,13.668 0.843,13.543 0.836,13.422 0.832,13.361 0.823,13.316 0.793,13.262 0.771,13.222 0.726,13.183 0.694,13.147 0.647,13.094 0.618,13.055 0.55,13.031 0.484,13.007 0.401,13 0.332,12.992 0.266,12.984 0.207,12.973 0.155,13.016 c -0.02,0.017 -0.023,0.03 -0.035,0.056 -0.036,0.082 -0.052,0.171 -0.086,0.254 -0.018,0.044 -0.042,0.085 -0.062,0.129 -0.011,0.024 -0.018,0.055 -0.032,0.076 -0.023,0.035 -0.068,0.061 -0.098,0.088 -0.028,0.025 -0.056,0.052 -0.085,0.076 -0.039,0.032 -0.09,0.065 -0.142,0.073 -0.071,0.012 -0.151,-0.024 -0.219,-0.045 -0.07,-0.022 -0.106,-0.04 -0.142,-0.105 -0.032,-0.056 -0.069,-0.136 -0.07,-0.2 -0.001,-0.049 0.012,-0.105 0.019,-0.153 0.007,-0.04 0.01,-0.083 0.014,-0.122 0.007,-0.078 -0.024,-0.17 -0.004,-0.244 0.008,-0.029 0.037,-0.057 0.051,-0.081 0.023,-0.037 0.043,-0.077 0.066,-0.115 0.043,-0.074 0.103,-0.146 0.133,-0.228 0.042,-0.115 -0.002,-0.262 -0.074,-0.363 -0.032,-0.045 -0.066,-0.097 -0.126,-0.087 -0.076,0.013 -0.147,0.09 -0.2,0.138 -0.102,0.094 -0.19,0.197 -0.27,0.311 -0.058,0.082 -0.115,0.169 -0.161,0.26 -0.019,0.039 -0.03,0.08 -0.045,0.121 -0.039,0.105 -0.102,0.2 -0.157,0.296 -0.021,0.036 -0.045,0.069 -0.074,0.099 -0.04,0.042 -0.065,0.091 -0.1,0.137 -0.102,0.133 -0.24,0.21 -0.371,0.31 -0.044,0.034 -0.096,0.059 -0.145,0.085 -0.036,0.02 -0.075,0.047 -0.114,0.063 -0.046,0.021 -0.12,0.031 -0.169,0.021 -0.058,-0.013 -0.134,-0.056 -0.186,-0.083 -0.098,-0.05 -0.152,-0.136 -0.193,-0.234 -0.042,-0.103 -0.048,-0.192 -0.032,-0.298 0.01,-0.069 0.02,-0.139 0.041,-0.206 0.018,-0.059 0.044,-0.114 0.074,-0.167 0.025,-0.046 0.067,-0.077 0.106,-0.111 0.056,-0.048 0.113,-0.095 0.165,-0.148 0.032,-0.032 0.05,-0.067 0.075,-0.103 0.035,-0.049 0.081,-0.091 0.115,-0.141 0.032,-0.046 0.063,-0.092 0.102,-0.132 0.03,-0.033 0.065,-0.063 0.091,-0.1 0.023,-0.031 0.04,-0.068 0.064,-0.098 0.02,-0.024 0.041,-0.04 0.063,-0.061 0.044,-0.042 0.036,-0.106 0.041,-0.163 0.003,-0.039 0.016,-0.072 0.02,-0.111 0.008,-0.071 0.021,-0.144 0.039,-0.213 0.058,-0.22 0.112,-0.46 0.08,-0.695 -0.013,-0.093 -0.044,-0.178 -0.091,-0.26 -0.048,-0.083 -0.113,-0.149 -0.176,-0.22 -0.106,-0.12 -0.216,-0.231 -0.364,-0.295 C -2.594,9.991 -2.668,9.929 -2.746,9.879 -2.779,9.857 -2.806,9.83 -2.834,9.801 -2.877,9.754 -2.929,9.717 -2.974,9.672 -3.109,9.538 -3.267,9.427 -3.391,9.28 -3.444,9.217 -3.486,9.139 -3.53,9.068 -3.567,9.008 -3.603,8.948 -3.632,8.884 -3.659,8.825 -3.683,8.755 -3.696,8.687 -3.705,8.704 -3.714,8.72 -3.722,8.735 -3.77,8.829 -3.823,8.927 -3.852,9.028 -3.887,9.146 -3.91,9.267 -3.938,9.386 c -0.037,0.153 -0.044,0.307 -0.075,0.461 -0.028,0.135 -0.076,0.274 -0.11,0.409 -0.026,0.102 -0.048,0.203 -0.092,0.302 -0.054,0.122 -0.115,0.25 -0.196,0.355 -0.057,0.073 -0.125,0.184 -0.204,0.224 -0.077,0.039 -0.178,0.063 -0.257,0.068 -0.095,0.007 -0.102,-0.044 -0.136,-0.117 -0.027,-0.056 -0.047,-0.117 -0.051,-0.184 -0.009,-0.185 0.022,-0.384 0.05,-0.571 0.015,-0.1 0.022,-0.193 0.055,-0.29 0.018,-0.052 0.03,-0.099 0.045,-0.153 0.036,-0.128 0.093,-0.257 0.14,-0.383 C -4.736,9.42 -4.687,9.335 -4.656,9.247 -4.625,9.158 -4.632,9.083 -4.639,8.998 -4.65,8.867 -4.695,8.745 -4.692,8.61 -4.691,8.549 -4.67,8.486 -4.688,8.428 -4.706,8.37 -4.742,8.328 -4.783,8.288 -4.85,8.221 -4.927,8.144 -5.018,8.117 -5.175,8.071 -5.285,8.319 -5.434,8.389 c -0.055,0.026 -0.12,0.023 -0.174,0.052 -0.026,0.014 -0.049,0.038 -0.074,0.054 -0.037,0.025 -0.077,0.036 -0.117,0.053 -0.114,0.048 -0.209,0.143 -0.314,0.209 -0.104,0.066 -0.214,0.119 -0.292,0.226 -0.161,0.222 -0.083,0.522 -0.088,0.799 -0.002,0.126 0.003,0.245 0.013,0.372 0.008,0.105 -0.012,0.205 -0.039,0.301 -0.028,0.098 -0.076,0.17 -0.124,0.255 -0.028,0.049 -0.054,0.105 -0.084,0.154 -0.034,0.055 -0.107,0.046 -0.162,0.048 -0.07,0.002 -0.143,0.003 -0.21,-0.036 -0.063,-0.036 -0.108,-0.11 -0.148,-0.175 -0.043,-0.069 -0.087,-0.145 -0.115,-0.224 -0.022,-0.062 -0.034,-0.13 -0.06,-0.191 -0.026,-0.062 -0.089,-0.143 -0.139,-0.185 -0.1,-0.084 -0.259,0.043 -0.339,0.097 -0.067,0.045 -0.14,0.059 -0.216,0.08 -0.064,0.017 -0.124,0.042 -0.185,0.068 -0.111,0.048 -0.218,0.102 -0.323,0.162 -0.084,0.048 -0.159,0.107 -0.219,0.19 -0.056,0.078 -0.102,0.166 -0.16,0.244 -0.035,0.048 -0.076,0.094 -0.102,0.151 -0.019,0.041 -0.033,0.08 -0.055,0.119 -0.026,0.047 -0.059,0.099 -0.091,0.143 -0.05,0.069 -0.13,0.115 -0.194,0.164 -0.077,0.059 -0.15,0.115 -0.22,0.184 -0.08,0.078 -0.15,0.171 -0.228,0.252 -0.075,0.079 -0.157,0.148 -0.234,0.225 -0.079,0.079 -0.144,0.172 -0.212,0.263 -0.061,0.081 -0.129,0.156 -0.188,0.239 -0.037,0.051 -0.055,0.107 -0.088,0.159 -0.027,0.044 -0.05,0.046 -0.091,0.058 -0.071,0.019 -0.142,0.038 -0.212,0.057 -0.067,0.018 -0.151,0.045 -0.225,0.041 -0.041,-0.002 -0.08,-0.022 -0.12,-0.036 -0.073,-0.027 -0.155,-0.06 -0.198,-0.146 -0.032,-0.065 -0.022,-0.121 0.006,-0.179 0.037,-0.077 0.091,-0.147 0.135,-0.219 0.031,-0.051 0.069,-0.09 0.094,-0.147 0.07,-0.16 0.188,-0.309 0.288,-0.442 0.198,-0.263 0.438,-0.475 0.62,-0.755 0.118,-0.181 0.267,-0.327 0.384,-0.509 0.062,-0.097 0.163,-0.285 0.131,-0.42 -0.013,-0.053 -0.045,-0.092 -0.087,-0.122 -0.05,-0.035 -0.116,-0.01 -0.168,-0.003 -0.079,0.011 -0.158,0.03 -0.24,0.019 -0.203,-0.028 -0.445,-0.204 -0.511,-0.444 -0.028,-0.105 -0.013,-0.157 0.058,-0.212 0.106,-0.082 0.251,-0.097 0.379,-0.109 0.12,-0.011 0.244,0.007 0.365,0.027 0.088,0.015 0.182,0.01 0.269,0.046 0.047,0.019 0.094,0.07 0.143,0.08 0.03,0.005 0.063,-0.013 0.091,-0.021 0.076,-0.024 0.155,-0.036 0.229,-0.067 0.054,-0.022 0.103,-0.059 0.156,-0.084 0.055,-0.027 0.11,-0.054 0.164,-0.085 0.104,-0.059 0.194,-0.138 0.294,-0.204 0.236,-0.154 0.456,-0.34 0.675,-0.523 0.123,-0.103 0.26,-0.178 0.393,-0.266 0.135,-0.089 0.259,-0.196 0.394,-0.286 0.253,-0.167 0.512,-0.325 0.753,-0.515 0.177,-0.141 1.317,-0.771 1.547,-0.807 0.111,-0.018 0.22,-0.051 0.319,-0.007 0.03,0.013 0.042,0.024 0.078,0.02 0.077,-0.01 0.151,-0.053 0.224,-0.088 0.162,-0.08 0.31,-0.178 0.439,-0.32 0.086,-0.095 0.154,-0.228 0.211,-0.345 0.05,-0.101 0.117,-0.234 0.097,-0.346 C -3.544,5.409 -3.563,5.338 -3.575,5.263 -3.592,5.161 -3.605,5.016 -3.69,4.963 -3.724,4.943 -3.767,4.911 -3.811,4.918 -3.82,4.919 -3.827,4.929 -3.836,4.93 -3.876,4.934 -3.913,4.915 -3.95,4.902 -4.056,4.864 -4.154,4.809 -4.255,4.759 -4.35,4.713 -4.484,4.661 -4.546,4.562 -4.585,4.5 -4.602,4.395 -4.567,4.313 -4.542,4.253 -4.485,4.205 -4.437,4.167 -4.27,4.032 -4.072,3.976 -3.884,3.929 -3.668,3.874 -3.444,3.874 -3.231,3.796 -3.084,3.743 -2.924,3.659 -2.819,3.52 -2.749,3.427 -2.69,3.322 -2.645,3.214 -2.58,3.057 -2.581,2.893 -2.562,2.731 -2.554,2.663 -2.545,2.596 -2.549,2.528 -2.553,2.448 -2.581,2.38 -2.608,2.31 -2.672,2.142 -2.677,1.954 -2.752,1.794 -2.822,1.645 -2.941,1.595 -3.084,1.538 -3.248,1.473 -3.427,1.44 -3.606,1.422 -3.724,1.41 -3.843,1.419 -3.963,1.421 -4.054,1.423 -4.139,1.411 -4.228,1.401 -4.296,1.393 -4.345,1.362 -4.405,1.332 -4.47,1.3 -4.536,1.27 -4.577,1.203 -4.617,1.138 -4.641,1.061 -4.667,0.987 -4.685,0.937 -4.71,0.889 -4.717,0.834 -4.724,0.773 -4.711,0.735 -4.681,0.679 c 0.033,-0.061 0.065,-0.11 0.125,-0.139 0.068,-0.032 0.145,-0.059 0.215,-0.084 0.165,-0.058 0.334,-0.045 0.499,-0.1 0.189,-0.062 0.369,-0.277 0.449,-0.476 0.054,-0.136 0.105,-0.278 0.117,-0.421 0.011,-0.137 0.052,-0.246 0.096,-0.377 0.045,-0.13 0.093,-0.23 0.168,-0.345 0.056,-0.085 0.102,-0.182 0.178,-0.247 0.143,-0.124 0.294,-0.234 0.434,-0.364 0.052,-0.048 0.118,-0.101 0.15,-0.168 l 0.389,0.253 c 0.051,-0.1 0.14,-0.105 0.231,-0.132 0.063,-0.019 0.103,-0.024 0.164,-0.016 0.14,0.018 0.284,0.017 0.424,0.034 0.17,0.021 0.337,0.063 0.498,0.114 0.106,0.034 0.215,0.077 0.308,0.139 0.104,0.069 0.168,0.202 0.243,0.304 0.088,0.121 0.165,0.253 0.208,0.407 0.028,0.098 0.065,0.209 0.065,0.317 0,0.09 -0.051,0.17 -0.092,0.25 C 0.125,-0.248 0.06,-0.125 0,0"
             style="fill:#100f0d;fill-opacity:1;fill-rule:nonzero;stroke:none"
             id="path58017" />
        </g>
      </g>
    </g>
  </g>
</svg>
