<?xml version="1.0" encoding="UTF-8" standalone="no"?>
<!-- Created with Inkscape (http://www.inkscape.org/) -->

<svg
   width="24.586252"
   height="24"
   viewBox="0 0 6.5051124 6.35"
   version="1.1"
   id="svg61382"
   inkscape:version="1.2.1 (9c6d41e4, 2022-07-14)"
   sodipodi:docname="fog-over-innsmouth.svg"
   xmlns:inkscape="http://www.inkscape.org/namespaces/inkscape"
   xmlns:sodipodi="http://sodipodi.sourceforge.net/DTD/sodipodi-0.dtd"
   xmlns="http://www.w3.org/2000/svg"
   xmlns:svg="http://www.w3.org/2000/svg">
  <sodipodi:namedview
     id="namedview61384"
     pagecolor="#505050"
     bordercolor="#eeeeee"
     borderopacity="1"
     inkscape:showpageshadow="0"
     inkscape:pageopacity="0"
     inkscape:pagecheckerboard="0"
     inkscape:deskcolor="#505050"
     inkscape:document-units="mm"
     showgrid="false"
     inkscape:zoom="0.7046647"
     inkscape:cx="8.5146879"
     inkscape:cy="273.17957"
     inkscape:window-width="1390"
     inkscape:window-height="941"
     inkscape:window-x="0"
     inkscape:window-y="25"
     inkscape:window-maximized="0"
     inkscape:current-layer="layer1" />
  <defs
     id="defs61379">
    <clipPath
       clipPathUnits="userSpaceOnUse"
       id="clipPath57821">
      <path
         d="m 76.951,325.475 h 24.699 v 24.699 H 76.951 Z"
         id="path57819" />
    </clipPath>
  </defs>
  <g
     inkscape:label="Layer 1"
     inkscape:groupmode="layer"
     id="layer1"
     transform="translate(-103.00661,-76.425502)">
    <g
       id="g57815"
       transform="matrix(0.31731077,0,0,-0.31731077,77.907613,186.77664)">
      <g
         id="g57817"
         clip-path="url(#clipPath57821)">
        <g
           id="g57823"
           transform="translate(86.3272,342.297)">
          <path
             d="M 0,0 C -0.061,0.353 -0.424,0.408 -0.728,0.441 -1.298,0.503 -2.063,0.419 -2.593,0.087 -2.666,0.066 -2.739,0.035 -2.818,-0.015 c -0.199,-0.124 -0.387,-0.304 -0.496,-0.514 -0.06,-0.117 -0.068,-0.207 -0.031,-0.281 0.013,-0.071 0.05,-0.139 0.132,-0.199 0.265,-0.193 0.653,-0.159 0.961,-0.162 0.024,0 0.062,0.018 0.102,0.047 0.01,0 0.021,0.001 0.031,0.001 0.132,0.092 0.258,0.201 0.344,0.33 -0.064,-0.01 -0.129,-0.016 -0.192,-0.017 -0.143,-0.044 -0.313,-0.047 -0.431,-0.01 -0.098,0.03 -0.176,0.11 -0.166,0.218 0.006,0.058 0.035,0.105 0.075,0.144 0.148,0.203 0.486,0.288 0.706,0.343 0.305,0.077 0.68,0.152 0.992,0.069 0.185,-0.048 0.347,-0.229 0.219,-0.408 -0.001,-0.007 0.001,-0.014 -0.001,-0.02 -0.13,-0.406 -0.657,-0.751 -1.023,-0.93 -0.262,-0.129 -0.624,-0.288 -0.92,-0.193 -0.007,-0.003 -0.013,-0.006 -0.02,-0.008 -0.006,-0.001 -0.012,-0.001 -0.018,-0.002 -0.435,-0.024 -0.762,0.2 -1.183,0.239 -0.728,0.068 -1.374,-0.504 -2.107,-0.519 -0.062,-10e-4 -0.247,-0.286 -0.159,-0.311 0.771,-0.217 1.54,0.511 2.23,-0.006 0.128,-0.095 0.259,-0.162 0.392,-0.203 0.015,0.012 0.034,0.02 0.06,0.018 0.145,-0.014 0.287,-0.012 0.427,-0.002 0.43,0.099 0.841,0.249 1.235,0.456 0.359,0.248 0.726,0.539 1.015,0.854 0.097,0.081 0.185,0.164 0.257,0.244 C -0.205,-0.635 0.05,-0.287 0,0"
             style="fill:#231f20;fill-opacity:1;fill-rule:nonzero;stroke:none"
             id="path57825" />
        </g>
        <g
           id="g57827"
           transform="translate(97.6561,336.314)">
          <path
             d="M 0,0 C 0.57,0.338 1.085,0.892 1.651,1.62 1.712,1.699 1.969,2.126 1.827,2.216 1.945,2.496 1.983,2.811 1.897,3.038 1.866,3.203 1.756,3.341 1.537,3.426 1.125,3.377 0.725,3.282 0.332,3.114 0.244,3.076 0.157,3.034 0.07,2.993 -0.479,2.713 -0.967,2.343 -1.482,2.005 -1.93,1.711 -2.431,1.507 -2.975,1.527 c -0.223,0.009 -0.429,0.062 -0.63,0.132 -0.214,0.014 -0.42,0.076 -0.62,0.16 -0.103,0.021 -0.207,0.047 -0.308,0.079 -0.087,0.019 -0.173,0.043 -0.256,0.075 -0.092,0.024 -0.183,0.053 -0.272,0.089 -0.137,0.056 -0.465,0.184 -0.462,0.376 10e-4,0.031 0.017,0.067 0.047,0.081 0.185,0.088 0.434,0.05 0.669,0.023 0.771,0.036 1.507,0.198 2.225,0.495 0.024,0.011 0.045,0.009 0.062,10e-4 0.187,0.067 0.381,0.154 0.552,0.295 0.295,0.135 0.575,0.325 0.77,0.582 0.011,0.016 0.04,0.056 0.072,0.108 0.303,0.251 0.468,0.569 0.045,0.802 C -1.61,5.118 -2.551,5.002 -3.113,4.96 -3.542,4.929 -3.947,4.867 -4.336,4.744 -4.537,4.701 -4.738,4.654 -4.938,4.61 -4.952,4.606 -4.964,4.607 -4.976,4.609 -5.149,4.546 -5.315,4.469 -5.463,4.379 -5.62,4.283 -5.829,4.14 -5.883,3.952 -5.941,3.751 -5.805,3.693 -5.639,3.621 -5.4,3.517 -5.07,3.428 -4.785,3.471 -4.778,3.467 -4.77,3.464 -4.759,3.462 -4.75,3.46 -4.74,3.46 -4.731,3.459 c 0.181,0.02 0.421,0.053 0.622,0.133 0.092,0.071 0.173,0.159 0.248,0.253 -0.029,-0.003 -0.057,-0.006 -0.085,-0.007 -0.228,-0.084 -0.509,-0.095 -0.67,0.01 -0.026,0.016 -0.042,0.044 -0.045,0.074 -0.017,0.056 -0.005,0.126 0.045,0.202 0.11,0.165 0.351,0.264 0.594,0.323 0.234,0.028 0.47,0.047 0.714,0.048 0.12,0 0.24,0.001 0.36,0.002 C -2.748,4.461 -2.56,4.39 -2.459,4.258 -2.369,4.142 -2.377,4.03 -2.432,3.932 -2.456,3.607 -3.158,3.341 -3.384,3.281 -3.925,3.136 -4.468,3.057 -5.028,3.121 -5.082,3.127 -5.139,3.133 -5.197,3.14 -5.647,3.154 -6.1,3.319 -6.508,3.493 -7.369,3.859 -8.084,4.285 -9.054,4.261 -9.489,4.25 -9.909,4.153 -10.336,4.085 -10.475,4.094 -10.643,4.048 -10.757,4.029 -10.799,4.021 -10.839,4.01 -10.879,4 c -0.06,-0.005 -0.12,-0.009 -0.181,-0.011 -0.008,0 -0.015,0.001 -0.024,-10e-4 -0.033,0.009 -0.063,0.021 -0.09,0.039 -0.03,0.09 0.052,0.191 0.15,0.269 0.043,0.057 0.127,0.121 0.176,0.167 0.24,0.126 0.493,0.227 0.774,0.291 0.418,0.096 0.846,0.126 1.274,0.128 0.083,0.001 0.167,0.001 0.251,-0.002 0.12,-0.002 0.24,-0.006 0.36,-0.011 0.018,-10e-4 0.032,-0.007 0.045,-0.014 0.211,-0.02 0.427,-0.05 0.65,-0.088 0.574,-0.1 1.146,-0.181 1.72,-0.042 0.52,0.126 1.007,0.41 1.52,0.559 0.036,0.001 0.072,-0.002 0.108,-0.003 0.103,0.025 0.209,0.042 0.316,0.054 0.226,0.043 0.463,0.057 0.664,0.077 C -2.9,5.438 -2.63,5.458 -2.36,5.46 -2.399,5.475 -2.439,5.49 -2.478,5.505 -3.056,5.719 -3.717,5.803 -4.331,5.75 -4.625,5.724 -5.136,5.56 -5.6,5.531 -5.607,5.533 -5.612,5.535 -5.62,5.535 -6.521,5.62 -7.183,6.191 -8.056,6.329 c -0.802,0.128 -1.607,-0.133 -2.312,-0.5 -0.009,-0.005 -0.062,-0.063 -0.026,-0.058 0.12,0.018 0.239,0.034 0.359,0.049 0.326,0.08 0.671,0.115 1.004,0.12 0.029,0 0.058,0 0.087,-0.001 C -8.869,5.928 -8.794,5.917 -8.72,5.9 -8.706,5.895 -8.692,5.891 -8.679,5.885 -8.666,5.883 -8.652,5.879 -8.638,5.877 -8.617,5.87 -8.596,5.866 -8.575,5.858 -8.524,5.84 -8.435,5.799 -8.371,5.755 -8.177,5.69 -7.992,5.582 -8.076,5.42 -8.151,5.276 -8.415,5.341 -8.532,5.349 -9.023,5.381 -9.499,5.351 -9.98,5.244 c -0.523,-0.117 -1.03,-0.285 -1.503,-0.537 -0.272,-0.145 -0.551,-0.408 -0.848,-0.504 -0.132,-0.082 -0.267,-0.159 -0.404,-0.23 -0.286,-0.164 -0.581,-0.296 -0.886,-0.402 -0.047,-0.019 -0.094,-0.038 -0.141,-0.057 -0.655,-0.152 -1.302,-0.366 -1.879,-0.7 -0.361,-0.209 -1.343,-0.823 -1.132,-1.373 0.125,-0.323 0.46,-0.379 0.832,-0.33 0.361,-0.007 0.82,0.133 1.043,0.192 1.292,0.339 2.432,0.203 3.738,0.139 0.79,-0.213 1.551,0.179 2.329,0.347 0.011,0.015 0.026,0.028 0.049,0.033 0.337,0.076 1.633,0.009 1.188,0.611 -0.235,0.317 -0.657,0.521 -1.099,0.654 -0.012,10e-4 -0.024,0 -0.036,10e-4 -0.066,0.022 -0.131,0.039 -0.195,0.05 -0.053,0.02 -0.108,0.037 -0.166,0.051 -0.025,0.005 -0.051,0.01 -0.076,0.016 -0.316,0.061 -0.673,0.048 -0.921,0.044 -0.149,-0.003 -0.299,-0.011 -0.447,-0.025 -0.382,0.022 -0.842,-0.159 -1.084,-0.399 -0.156,-0.155 -0.262,-0.388 -0.029,-0.524 0.232,-0.136 0.553,-0.219 0.821,-0.223 0.02,0 0.05,0.011 0.082,0.027 0.011,-0.002 0.021,-0.005 0.034,-0.003 0.077,0.01 0.186,0.092 0.198,0.173 0.017,0.112 -0.133,0.086 -0.2,0.083 -0.063,-0.003 -0.127,0.004 -0.183,0.034 -0.006,0.004 -0.011,0.008 -0.017,0.014 -0.027,0.099 0.015,0.207 0.092,0.271 0.071,0.08 0.179,0.137 0.275,0.152 0.012,10e-4 0.021,0 0.031,-0.001 0.44,0.14 1.019,0.081 1.442,-0.079 0.063,-0.023 0.164,-0.059 0.254,-0.108 0.02,-0.007 0.04,-0.013 0.059,-0.021 0.059,-0.026 0.126,-0.081 0.176,-0.144 0,-0.007 10e-4,-0.014 10e-4,-0.021 C -8.558,2.43 -8.543,2.403 -8.539,2.376 -8.509,2.297 -8.518,2.209 -8.623,2.183 -8.632,2.181 -8.642,2.179 -8.652,2.178 -8.656,2.176 -8.659,2.173 -8.663,2.171 -8.674,2.168 -8.684,2.163 -8.694,2.159 -8.7,2.161 -8.707,2.163 -8.712,2.167 -8.786,2.151 -8.86,2.136 -8.925,2.119 -9.112,2.07 -9.294,2.005 -9.48,1.952 -9.502,1.946 -9.522,1.943 -9.544,1.937 -9.75,1.867 -9.958,1.807 -10.178,1.784 c -0.672,-0.213 -2.872,0.073 -3.033,0.615 -0.032,0.033 -0.061,0.071 -0.083,0.116 -0.031,0.06 -0.044,0.115 -0.045,0.166 0.129,0.231 0.343,0.359 0.56,0.486 0.479,0.181 0.98,0.31 1.486,0.377 0.521,0.069 1.1,0.111 1.65,0.045 0.921,-0.074 1.725,-0.414 2.369,-1.032 0.219,-0.148 0.437,-0.3 0.657,-0.46 0.038,-0.028 0.094,-0.064 0.155,-0.108 0.067,-0.027 0.134,-0.06 0.2,-0.096 C -6.154,1.833 -6.037,1.789 -5.924,1.74 -5.805,1.706 -5.67,1.692 -5.566,1.621 -5.395,1.504 -5.408,1.302 -5.578,1.19 -5.767,1.065 -6.057,1.053 -6.277,1.045 -6.404,1.04 -6.56,1.036 -6.698,1.07 -6.733,1.074 -6.769,1.077 -6.806,1.083 -6.809,1.086 -6.815,1.088 -6.819,1.092 -6.956,1.109 -7.092,1.139 -7.23,1.174 -7.563,1.258 -7.939,1.312 -8.265,1.426 -8.375,1.431 -8.483,1.43 -8.59,1.424 -8.626,1.415 -8.662,1.409 -8.698,1.396 -8.729,1.385 -8.755,1.392 -8.775,1.406 c -0.458,-0.052 -0.91,-0.19 -1.434,-0.351 -0.763,-0.234 -1.488,0.085 -2.229,0.259 -0.795,-0.008 -1.528,-0.334 -2.258,-0.647 -0.323,-0.138 -0.649,-0.28 -0.992,-0.36 -0.297,-0.07 -0.599,-0.071 -0.9,-0.106 0.983,-0.099 1.887,0.372 2.861,0.468 1.098,0.109 2.041,-0.652 3.142,-0.314 0.603,0.185 1.205,0.563 1.827,0.597 0.223,0.013 0.437,-0.028 0.649,-0.091 0.017,-0.002 0.033,-0.002 0.05,-0.004 0.026,-0.003 0.046,-0.015 0.061,-0.031 0.349,-0.117 0.692,-0.282 1.053,-0.364 0.729,-0.164 1.504,-0.022 2.23,0.292 0.12,0.091 0.243,0.143 0.368,0.171 0.018,0.009 0.036,0.018 0.053,0.027 0.017,-0.003 0.034,-0.006 0.051,-0.009 0.258,0.032 0.528,-0.018 0.81,-0.027 0.664,-0.021 1.301,0.299 1.89,0.563 0.122,0.055 0.329,0.156 0.535,0.21 0.083,0.049 0.172,0.088 0.263,0.123 0.109,0.044 0.221,0.08 0.333,0.116 C -0.376,1.924 -0.341,1.913 -0.31,1.89 -0.211,1.817 -0.224,1.708 -0.269,1.606 -0.298,1.539 -0.341,1.474 -0.381,1.408 -0.414,1.374 -0.449,1.341 -0.485,1.31 -0.541,1.213 -0.63,1.125 -0.695,1.064 -1.44,0.364 -2.676,0.071 -3.64,-0.139 c -0.735,-0.16 -1.639,-0.37 -2.426,-0.219 -0.157,0.03 -0.318,0.112 -0.468,0.166 -0.149,0.052 -0.299,0.099 -0.448,0.15 C -7.137,0.011 -7.288,0.079 -7.431,0.16 -7.571,0.239 -7.692,0.354 -7.835,0.427 -8.072,0.549 -8.337,0.59 -8.602,0.584 -8.79,0.557 -8.976,0.507 -9.151,0.45 c -0.596,-0.29 -1.136,-0.766 -1.805,-0.87 -0.335,-0.052 -0.576,0.02 -0.845,0.213 -0.574,0.411 -1.106,0.49 -1.749,0.18 -0.713,-0.579 -1.423,-1.184 -2.291,-1.512 -0.504,-0.191 -1.04,-0.282 -1.579,-0.292 -0.467,-0.009 -0.789,0.078 -1.133,0.3 -0.002,-0.002 -0.003,-0.004 -0.004,-0.007 0.953,-0.755 2.165,-0.835 3.361,-0.781 0.594,0.026 1.189,0.08 1.783,0.024 0.562,-0.053 1.112,-0.186 1.673,-0.246 0.086,0.006 0.171,0.015 0.256,0.029 0.677,0.111 1.273,0.507 1.759,0.978 0.146,0.142 0.347,0.228 0.53,0.314 0.091,0.043 0.183,0.086 0.275,0.125 0.087,0.037 0.176,0.071 0.27,0.084 0.11,0.014 0.286,0.01 0.363,-0.083 0.006,-0.004 0.013,-0.007 0.018,-0.011 0.056,-0.044 0.083,-0.109 0.077,-0.172 0.028,0.014 0.057,0.028 0.084,0.043 0.079,0.044 0.154,0.093 0.228,0.145 0.013,0.016 0.028,0.037 0.042,0.057 0.085,0.064 0.178,0.146 0.215,0.25 0.02,0.057 0.018,0.125 -0.017,0.175 -0.038,0.054 -0.107,0.076 -0.172,0.091 -0.349,0.082 -0.704,0.049 -1.042,-0.062 -0.341,-0.112 -0.69,-0.277 -0.99,-0.473 -0.147,-0.096 -0.273,-0.217 -0.419,-0.314 -0.147,-0.097 -0.305,-0.177 -0.473,-0.231 -0.086,-0.028 -0.174,-0.049 -0.264,-0.063 -0.572,-0.09 -1.148,0.09 -1.728,0.15 -0.598,0.023 -1.192,0.005 -1.777,-0.238 -0.006,0.035 0.003,0.073 0.039,0.099 0.512,0.371 1.003,0.721 1.674,0.651 0.274,-0.029 0.529,-0.136 0.798,-0.192 0.209,-0.044 0.421,-0.05 0.632,-0.032 0.021,0.008 0.041,0.015 0.062,0.024 0.026,0.002 0.052,0.001 0.078,0.004 0.496,0.187 0.987,0.432 1.515,0.591 0.008,0.002 0.016,0.005 0.024,0.007 0.398,0.222 0.86,0.49 1.333,0.444 0.237,-0.023 0.457,-0.119 0.687,-0.171 0.238,-0.054 0.476,-0.111 0.706,-0.196 0.072,-0.026 0.145,-0.051 0.217,-0.076 0.059,-0.021 0.137,-0.032 0.181,-0.078 0.023,-0.025 0.035,-0.057 0.043,-0.089 0.01,-0.043 0.014,-0.088 0.002,-0.13 -0.015,-0.057 -0.06,-0.104 -0.111,-0.134 -0.072,-0.043 -0.155,-0.054 -0.235,-0.074 -0.088,-0.022 -0.175,-0.047 -0.262,-0.07 -0.204,-0.055 -0.412,-0.105 -0.614,-0.168 -0.098,-0.031 -0.194,-0.066 -0.291,-0.099 -0.089,-0.03 -0.201,-0.082 -0.295,-0.082 -0.081,-0.014 -0.165,-0.009 -0.245,-0.027 -0.091,-0.02 -0.178,-0.058 -0.265,-0.094 -0.203,-0.082 -0.394,-0.189 -0.581,-0.302 -0.262,-0.159 -0.491,-0.365 -0.759,-0.517 -0.071,-0.041 -0.144,-0.078 -0.217,-0.113 -0.183,-0.125 -0.38,-0.23 -0.609,-0.306 -0.264,-0.088 -0.706,-0.208 -1.022,-0.121 -0.401,0.019 -0.807,0.169 -1.214,0.196 -0.614,0.041 -1.256,-0.126 -1.844,-0.432 0.079,0.019 0.158,0.035 0.233,0.051 0,-0.003 0.001,-0.006 0.007,-0.005 0.296,0.014 0.59,0.055 0.887,0.051 0.384,-0.005 0.691,-0.125 1.044,-0.256 0.197,-0.073 0.401,-0.128 0.606,-0.162 0.02,-0.006 0.041,-0.014 0.061,-0.02 0.293,-0.085 0.598,-0.128 0.898,-0.109 0.373,-0.067 0.872,0.21 1.168,0.347 0.353,0.162 0.705,0.282 1.061,0.385 0.04,0.004 0.08,0.009 0.12,0.012 0.513,0.042 1.031,0.066 1.545,0.053 0.556,-0.015 1.101,-0.146 1.645,-0.314 0.197,-0.061 0.414,-0.1 0.609,-0.202 0.214,-0.035 0.419,-0.106 0.559,-0.277 0.038,-0.047 0.035,-0.146 10e-4,-0.195 -0.206,-0.294 -0.473,-0.42 -0.739,-0.563 -0.446,-0.239 -0.895,-0.471 -1.361,-0.611 -0.423,-0.127 -0.838,-0.158 -1.269,-0.157 -0.233,0.001 -0.494,-0.025 -0.694,0.18 -0.041,0.043 -0.056,0.137 -0.033,0.198 0.009,0.114 0.108,0.205 0.196,0.278 0.282,0.235 0.782,0.498 1.166,0.441 0.31,-0.047 0.262,-0.366 -0.004,-0.443 -0.022,-0.006 -0.047,-0.01 -0.072,-0.013 -0.002,-10e-4 -0.002,-0.003 -0.004,-0.004 -0.056,-0.041 -0.108,-0.08 -0.159,-0.12 -0.038,-0.041 -0.066,-0.085 -0.078,-0.126 10e-4,-0.015 -0.002,-0.03 -0.005,-0.045 0.002,-0.035 0.023,-0.064 0.068,-0.083 0.007,10e-4 0.015,0.002 0.022,0.002 0.278,-0.026 0.635,0.189 0.893,0.303 0.025,0.011 0.077,0.056 0.133,0.118 0.21,0.101 0.388,0.239 0.458,0.42 0.226,0.588 -0.601,0.672 -0.993,0.686 -0.954,0.032 -1.838,-0.303 -2.708,-0.655 -0.557,-0.226 -1.134,-0.476 -1.738,-0.544 -0.226,-0.025 -0.446,-0.016 -0.666,0.006 -0.401,0.13 -0.799,0.272 -1.205,0.381 -0.333,0.09 -0.689,0.169 -1.037,0.157 -0.049,0.022 -0.103,0.036 -0.158,0.047 -0.083,-0.009 -0.169,-0.009 -0.254,-0.006 -0.164,0.004 -0.325,-0.004 -0.488,-0.02 -0.062,-0.009 -0.122,-0.02 -0.179,-0.029 -0.37,-0.061 -0.733,-0.163 -1.074,-0.321 -0.105,-0.049 -0.215,-0.108 -0.31,-0.184 -0.182,-0.104 -0.346,-0.245 -0.48,-0.46 -0.042,-0.114 -0.051,-0.242 -0.01,-0.384 0.017,-0.058 0.045,-0.108 0.078,-0.154 0.347,-0.276 1.059,-0.404 1.385,-0.481 0.53,-0.126 1.613,-0.338 2.099,0.035 0.779,0.597 -0.627,0.834 -1.133,0.652 0.138,0.021 0.305,-0.041 0.397,-0.145 0.054,-0.062 0.092,-0.153 0.076,-0.224 0.004,-10e-4 0.008,-10e-4 0.013,-0.002 -0.008,-0.015 -0.02,-0.028 -0.031,-0.041 -0.012,-0.016 -0.027,-0.03 -0.048,-0.041 -0.043,-0.03 -0.096,-0.053 -0.15,-0.062 -0.09,-0.016 -0.2,-0.01 -0.309,0.011 -0.138,-0.004 -0.277,0.029 -0.412,0.076 -0.095,0.033 -0.205,0.065 -0.278,0.133 -0.142,0.067 -0.307,0.165 -0.308,0.314 -0.001,0.221 0.307,0.278 0.468,0.315 0.456,0.103 1.178,0.218 1.636,-0.031 0.239,-0.055 0.472,-0.148 0.691,-0.281 0.259,-0.087 0.52,-0.174 0.783,-0.249 0.1,-0.011 0.2,-0.02 0.3,-0.023 0.352,-0.092 0.723,-0.124 1.091,-0.161 -0.022,-0.004 -0.044,-0.007 -0.066,-0.011 0.384,-0.016 0.767,-0.067 1.15,-0.159 0.463,-0.061 0.928,-0.124 1.394,-0.106 0.112,0.005 0.376,0.058 0.593,0.043 0.13,0.021 0.26,0.025 0.374,0.007 0.051,-0.008 0.105,-0.025 0.146,-0.051 0.052,-0.007 0.109,-0.059 0.084,-0.117 -0.07,-0.17 -0.234,-0.27 -0.409,-0.345 -0.095,-0.083 -0.231,-0.149 -0.378,-0.191 -0.149,-0.085 -0.364,-0.127 -0.453,-0.142 -0.175,-0.03 -0.352,-0.032 -0.528,-0.015 -0.131,10e-4 -0.246,0.009 -0.312,0.012 -0.806,0.04 -1.568,0.324 -2.36,0.438 -0.06,0.004 -0.115,0.006 -0.172,0.008 -0.286,-0.054 -0.572,-0.117 -0.858,-0.173 -0.005,-0.001 -0.01,-0.003 -0.015,-0.004 -0.021,-0.004 -0.041,-0.007 -0.062,-0.011 -0.363,-0.068 -0.729,-0.12 -1.102,-0.109 -0.474,0.013 -0.952,0.122 -1.425,0.044 -0.027,-0.01 -0.055,-0.019 -0.081,-0.03 -0.196,-0.056 -0.388,-0.13 -0.573,-0.226 -0.333,-0.173 -0.616,-0.428 -0.958,-0.587 -0.051,-0.024 -0.102,-0.043 -0.153,-0.061 -0.085,-0.041 -0.171,-0.078 -0.263,-0.103 -0.096,-0.027 -0.186,-0.038 -0.273,-0.04 -0.068,-0.019 -0.138,-0.027 -0.217,-0.023 -0.016,0.001 -0.072,0.009 -0.142,0.016 -0.018,0 -0.036,-0.003 -0.054,-0.003 -0.045,0.001 -0.086,0.007 -0.128,0.013 -0.068,-10e-4 -0.131,-0.009 -0.171,-0.031 l -0.033,-0.091 c 0.003,-0.004 0.006,-0.008 0.009,-0.012 0.008,-0.011 0.013,-0.021 0.015,-0.031 0.018,-0.007 0.036,-0.015 0.055,-0.022 0.297,-0.14 0.704,-0.176 1.016,-0.17 0.523,-0.042 1.065,0.114 1.597,0.075 0.298,-0.021 0.702,-0.188 1.032,-0.167 0.003,0 0.006,10e-4 0.009,10e-4 0.394,0.049 0.787,0.035 1.177,-0.058 0.057,-0.014 0.118,-0.029 0.176,-0.048 0.009,0.01 0.017,0.021 0.023,0.03 -0.143,0.098 -0.372,0.213 -0.398,0.224 -0.262,0.105 -0.526,0.11 -0.796,0.169 -0.154,0.034 -0.391,0.118 -0.426,0.274 -0.077,0.127 -0.018,0.273 0.12,0.331 0.008,0.012 0.015,0.023 0.026,0.035 0.314,0.051 0.635,0.037 0.951,-0.015 0.146,-0.025 0.292,-0.058 0.437,-0.097 0.847,-0.06 1.492,-0.506 2.244,-0.87 0.591,-0.287 1.123,-0.178 1.741,-0.13 0.297,0.023 0.564,-0.045 0.818,-0.168 0.325,-0.073 0.647,-0.128 0.978,0.016 0.034,0.015 0.129,0.144 0.166,0.238 -0.277,-0.043 -0.593,-0.004 -0.772,0.048 -0.29,0.084 -0.553,0.185 -0.86,0.2 -0.231,0.012 -0.462,-0.019 -0.692,-0.002 -0.335,0.025 -0.648,0.133 -0.942,0.285 -0.177,0.06 -0.35,0.131 -0.45,0.205 -10e-4,0.02 -0.002,0.039 -0.007,0.056 -0.003,0.014 -0.01,0.026 -0.018,0.037 0.119,0.084 0.375,0.035 0.476,0.024 0.27,-0.028 0.535,-0.076 0.793,-0.157 0.374,-0.066 0.877,-0.209 1.289,-0.124 0.491,-0.002 0.971,0.148 1.427,0.43 0.634,0.392 1.179,1.13 1.881,1.271 0.513,0.102 1.021,-0.206 1.538,-0.07 0.593,0.156 1.101,0.521 1.675,0.715 0.854,0.389 1.77,0.58 2.52,-0.049 -0.041,0.28 -0.16,0.499 -0.319,0.664 -0.293,0.198 -0.683,0.267 -0.875,0.279 -0.372,0.023 -0.747,-0.064 -1.115,-0.127 -0.003,-10e-4 -0.004,0.001 -0.007,0.001 -0.472,-0.178 -0.938,-0.389 -1.419,-0.514 -0.007,-0.002 -0.012,0.001 -0.019,0.002 -0.268,-0.115 -0.536,-0.152 -0.711,0.047 -0.334,0.381 0.231,0.877 0.419,1.032 0.648,0.537 1.333,0.944 2.083,1.036 0.37,0.094 0.749,0.134 1.137,0.108 0.426,-0.028 1.006,-0.13 1.553,-0.08 0.125,0.035 0.249,0.08 0.369,0.142 0.127,0.065 0.249,0.145 0.37,0.227 0.025,0.049 0.044,0.096 0.053,0.135 -1.044,-0.271 -2.042,0.594 -3.096,0.525 -0.777,-0.051 -1.536,-0.451 -2.302,-0.631 -0.546,-0.128 -1.071,-0.106 -1.613,-0.093 -0.363,0.01 -0.709,0.028 -1.06,0.132 -0.354,0.105 -0.705,0.266 -0.991,0.503 0.028,-0.003 0.055,-0.007 0.082,-0.011 -0.025,0.004 0.01,0.098 0.015,0.11 0.019,0.054 0.043,0.089 0.09,0.125 0.076,0.058 0.168,0.094 0.256,0.128 0.374,0.143 0.733,0.115 1.06,-0.116 0.076,-0.054 0.153,-0.099 0.231,-0.137 0.555,-0.134 1.094,-0.174 1.692,-0.05 0.023,0.004 0.042,0 0.059,-0.008 0.35,0.112 0.699,0.249 1.041,0.396 -0.026,0.019 -0.048,0.05 -0.064,0.085 -0.387,0.066 -0.823,-0.02 -1.125,0.274 -0.019,0.019 -0.036,0.041 -0.054,0.061 0.696,0.349 1.37,0.532 2.135,0.553 C -1.121,-0.543 -0.534,-0.435 0,0"
             style="fill:#231f20;fill-opacity:1;fill-rule:nonzero;stroke:none"
             id="path57829" />
        </g>
        <g
           id="g57831"
           transform="translate(98.6042,345.546)">
          <path
             d="M 0,0 C -0.215,0.15 -0.57,0.228 -0.856,0.257 -1.545,0.328 -2.242,0.223 -2.861,-0.077 -2.898,-0.09 -2.936,-0.1 -2.971,-0.116 -3.123,-0.158 -3.265,-0.234 -3.376,-0.353 -3.44,-0.421 -3.489,-0.499 -3.512,-0.579 c -0.017,-0.033 -0.029,-0.066 -0.033,-0.098 -0.032,-0.253 0.292,-0.354 0.487,-0.386 0.015,-0.003 0.037,0.003 0.06,0.011 0.023,-0.006 0.046,-0.008 0.067,-0.006 0.099,0.009 0.197,0.106 0.234,0.193 0.051,0.123 -0.064,0.147 -0.156,0.175 -0.05,0.015 -0.128,0.024 -0.164,0.064 -0.003,0.003 -0.003,0.007 -0.005,0.01 0.009,0.018 0.021,0.037 0.034,0.055 0.004,0.015 0.008,0.03 0.015,0.044 0.016,0.009 0.032,0.017 0.049,0.025 0.104,0.1 0.25,0.183 0.362,0.222 0.336,0.117 0.915,0.198 1.155,-0.145 0.297,-0.424 -0.106,-0.881 -0.502,-1.055 L -1.916,-1.479 C -1.934,-1.484 -1.951,-1.489 -1.968,-1.494 -2,-1.505 -2.031,-1.516 -2.062,-1.523 c -0.004,-0.002 -0.008,0 -0.012,-0.001 -0.055,-0.016 -0.11,-0.032 -0.166,-0.047 -0.058,-0.006 -0.116,-0.012 -0.166,-0.017 -0.246,-0.029 -0.499,-0.046 -0.75,-0.059 -0.064,0.012 -0.128,0.022 -0.19,0.036 -0.486,0.026 -0.976,0.179 -1.413,0.421 -0.246,0.117 -0.483,0.258 -0.71,0.43 -0.107,0.081 -0.573,0.348 -0.777,0.595 -0.252,0.209 -0.476,0.479 -0.74,0.668 -0.109,0.078 -0.22,0.139 -0.332,0.193 -0.379,0.112 -0.77,0.149 -1.163,0.127 C -8.489,0.822 -8.498,0.82 -8.506,0.818 -8.789,0.737 -9.064,0.632 -9.331,0.498 -9.498,0.415 -9.685,0.286 -9.874,0.211 -10.037,0.106 -10.21,0.017 -10.372,-0.05 c -0.32,-0.133 -0.656,-0.216 -0.973,-0.358 -0.111,-0.049 -0.212,-0.111 -0.312,-0.174 -0.102,-0.014 -0.227,-0.132 -0.272,-0.182 -0.061,-0.068 -0.148,-0.183 -0.122,-0.287 0.019,-0.075 0.095,-0.108 0.161,-0.134 0.086,-0.033 0.179,-0.044 0.27,-0.038 0.122,-0.039 0.258,-0.054 0.364,-0.07 0.04,-0.006 0.079,-0.01 0.119,-0.015 0.133,-0.029 0.279,-0.042 0.398,-0.049 0.008,0.003 0.016,0.005 0.025,0.006 0.071,0 0.141,0.005 0.211,0.007 0.005,0.002 0.009,0.003 0.014,0.006 0.008,-0.002 0.015,-0.003 0.023,-0.004 0.555,0.021 1.093,0.094 1.648,0.162 0.415,0.051 0.754,10e-4 1.119,-0.078 0,0.001 0,0.004 0,0.005 -0.023,0.039 -0.047,0.071 -0.073,0.1 -0.226,0.1 -0.431,0.197 -0.65,0.261 -0.169,0.009 -0.34,-0.005 -0.51,-0.025 -0.222,-0.041 -0.444,-0.093 -0.664,-0.135 -0.209,-0.04 -0.463,-0.078 -0.701,-0.063 -0.1,-0.006 -0.201,-0.001 -0.292,0.012 -0.049,0.006 -0.109,0.017 -0.162,0.038 -0.068,0 -0.132,0.013 -0.173,0.058 -0.031,0.033 -0.038,0.075 -0.029,0.113 0.065,0.036 0.127,0.081 0.198,0.107 0.156,0.056 0.308,0.089 0.445,0.182 0.02,0.006 0.041,0.01 0.06,0.016 0.011,0.003 0.021,0.007 0.031,0.01 0.642,0.215 1.227,0.577 1.949,0.494 0.573,-0.066 1.152,-0.365 1.505,-0.828 0.031,-0.024 0.063,-0.048 0.094,-0.072 0.041,-0.03 0.082,-0.057 0.122,-0.085 0.293,-0.145 0.59,-0.277 0.894,-0.391 0.022,-10e-4 0.039,-0.008 0.053,-0.02 0.16,-0.058 0.322,-0.112 0.487,-0.155 0.147,-0.034 0.295,-0.067 0.445,-0.096 0.03,-0.006 0.049,-0.022 0.059,-0.041 -0.347,0.008 -0.692,0.056 -1.034,0.128 -0.005,-10e-4 -0.009,-0.003 -0.013,-0.003 -0.118,0 -0.235,10e-4 -0.353,0.002 -0.631,-0.036 -1.183,-0.372 -1.815,-0.426 -0.681,-0.058 -1.318,0.202 -1.995,0.217 -0.61,0.012 -1.191,-0.107 -1.79,0.071 -0.181,0.053 -0.489,0.127 -0.722,0.25 -0.015,0.007 -0.03,0.013 -0.045,0.021 -1.08,0.527 -1.744,-0.556 -2.822,-0.552 -0.035,10e-4 -0.151,-0.15 -0.096,-0.183 0.384,-0.231 0.655,-0.208 1.055,-0.102 0.624,0.166 0.998,0.153 1.577,-0.155 0.105,-0.056 0.211,-0.096 0.316,-0.129 0.479,-0.304 0.928,-0.342 1.501,-0.112 0.465,0.186 0.852,0.444 1.343,0.366 0.032,0.005 0.066,0.007 0.098,0.01 0.686,-0.051 1.35,-0.202 2.02,-0.415 0.673,-0.215 1.509,-0.347 2.153,0.03 0.031,0.018 0.156,0.156 0.047,0.13 -0.692,-0.169 -1.285,0.009 -1.896,0.199 0.176,0.051 0.357,0.109 0.547,0.174 0.827,0.287 1.549,-0.127 2.307,-0.333 0.332,-0.042 0.662,-0.044 0.988,0.023 0.363,-0.061 1.015,0.261 1.245,0.342 0.639,0.224 1.281,0.472 1.837,0.865 0.279,0.197 0.665,0.486 0.637,0.871 C 0.458,-0.191 0.252,-0.058 0,0"
             style="fill:#231f20;fill-opacity:1;fill-rule:nonzero;stroke:none"
             id="path57833" />
        </g>
        <g
           id="g57835"
           transform="translate(94.4743,346.938)">
          <path
             d="M 0,0 C 0.461,0.08 0.947,-0.003 1.314,0.209 1.374,0.374 1.209,0.522 1.004,0.621 0.991,0.629 0.98,0.638 0.967,0.646 0.584,0.882 0.073,0.846 -0.353,0.792 -0.596,0.762 -0.838,0.711 -1.083,0.701 -1.441,0.686 -1.763,0.775 -2.113,0.824 -2.143,0.828 -2.226,0.767 -2.2,0.733 -2.066,0.56 -1.866,0.484 -1.647,0.458 -1.6,0.443 -1.552,0.426 -1.503,0.414 -1.478,0.408 -1.119,0.342 -1.077,0.254 -1.348,0.169 -1.629,0.105 -1.934,0.12 -2.442,0.145 -2.878,0.442 -3.373,0.541 -3.939,0.653 -4.484,0.422 -5.008,0.148 -5.041,0.131 -5.182,-0.081 -5.093,-0.071 c 0.015,0.002 0.03,10e-4 0.044,0.002 0.068,0.026 0.138,0.045 0.21,0.058 0.001,0 0.002,0 0.003,10e-4 0.001,0 0.002,0 0.003,0 0.009,0.001 0.018,0.002 0.027,0.003 0.399,0.12 0.922,0.033 1.285,-0.053 0.436,-0.104 0.827,-0.341 1.26,-0.455 0.051,-0.014 0.102,-0.023 0.154,-0.033 0.046,-0.005 0.092,-0.01 0.137,-0.013 0.281,-0.015 0.552,0.054 0.817,0.143 C -0.786,-0.234 -0.402,-0.07 0,0"
             style="fill:#231f20;fill-opacity:1;fill-rule:nonzero;stroke:none"
             id="path57837" />
        </g>
        <g
           id="g57839"
           transform="translate(88.1373,333.823)">
          <path
             d="M 0,0 C 0.001,0 -0.001,-0.003 -0.001,-0.003"
             style="fill:none;stroke:#231f20;stroke-width:0.75;stroke-linecap:round;stroke-linejoin:round;stroke-miterlimit:4;stroke-dasharray:none;stroke-opacity:1"
             id="path57841" />
        </g>
      </g>
    </g>
  </g>
</svg>
