<?xml version="1.0" encoding="UTF-8" standalone="no"?>
<!-- Created with Inkscape (http://www.inkscape.org/) -->

<svg
   width="16.912008"
   height="24"
   viewBox="0 0 4.4746355 6.35"
   version="1.1"
   id="svg7550"
   inkscape:version="1.2.1 (9c6d41e4, 2022-07-14)"
   sodipodi:docname="alien-interference.svg"
   xmlns:inkscape="http://www.inkscape.org/namespaces/inkscape"
   xmlns:sodipodi="http://sodipodi.sourceforge.net/DTD/sodipodi-0.dtd"
   xmlns="http://www.w3.org/2000/svg"
   xmlns:svg="http://www.w3.org/2000/svg">
  <sodipodi:namedview
     id="namedview7552"
     pagecolor="#505050"
     bordercolor="#eeeeee"
     borderopacity="1"
     inkscape:showpageshadow="0"
     inkscape:pageopacity="0"
     inkscape:pagecheckerboard="0"
     inkscape:deskcolor="#505050"
     inkscape:document-units="mm"
     showgrid="false"
     inkscape:zoom="0.7046647"
     inkscape:cx="-19.867605"
     inkscape:cy="128.42988"
     inkscape:window-width="1390"
     inkscape:window-height="941"
     inkscape:window-x="0"
     inkscape:window-y="25"
     inkscape:window-maximized="0"
     inkscape:current-layer="layer1" />
  <defs
     id="defs7547">
    <clipPath
       clipPathUnits="userSpaceOnUse"
       id="clipPath1083">
      <path
         d="m 56.886,165.063 h 28.8 v 28.8 h -28.8 z"
         id="path1081" />
    </clipPath>
  </defs>
  <g
     inkscape:label="Layer 1"
     inkscape:groupmode="layer"
     id="layer1"
     transform="translate(-110.40491,-114.72386)">
    <g
       id="g1077"
       transform="matrix(0.24449845,0,0,-0.24449845,95.212899,161.77721)">
      <g
         id="g1079"
         clip-path="url(#clipPath1083)">
        <g
           id="g1085"
           transform="translate(70.2566,184.0613)">
          <path
             d="M 0,0 C 0.005,-0.029 0.032,-0.049 0.069,-0.065 0.051,-0.03 0.029,0 0,0"
             style="fill:#231f20;fill-opacity:1;fill-rule:nonzero;stroke:none"
             id="path1087" />
        </g>
        <g
           id="g1089"
           transform="translate(79.1834,180.4543)">
          <path
             d="m 0,0 c -0.071,-0.243 -0.299,-0.193 -0.5,-0.193 -0.452,0 -0.865,0.182 -0.894,0.693 -0.014,0.247 -0.028,0.385 0.198,0.498 0.168,0.084 0.398,0.093 0.597,0.097 l -0.198,0.198 c 0.221,0 0.473,0.064 0.621,-0.095 C -0.009,1.019 -0.003,0.833 -0.005,0.599 -0.006,0.422 0.049,0.168 0,0 m -1.511,-1.263 c -0.173,-0.3 -0.667,-0.37 -0.97,-0.322 -0.396,0.063 -0.653,0.482 -0.426,0.824 0.233,0.353 0.863,0.409 1.117,0.074 0.002,0 0.003,0 0.004,0 0.171,-0.025 0.11,-0.002 0.198,-0.099 0.095,-0.104 0.155,-0.343 0.077,-0.477 m -0.776,-7.356 c -0.146,-0.354 -0.203,-0.713 -0.366,-1.07 -0.141,-0.308 -0.339,-0.53 -0.54,-0.797 -0.259,-0.344 -0.502,-0.685 -0.879,-0.909 -0.325,-0.194 -0.557,-0.49 -0.876,-0.694 -0.36,-0.228 -0.78,-0.31 -1.164,-0.484 -0.571,-0.259 -1.011,-0.311 -1.635,-0.301 -0.465,0.007 -0.907,-0.04 -1.368,-0.086 -0.618,-0.061 -0.924,0.154 -1.441,0.416 -0.355,0.18 -0.753,0.199 -1.116,0.356 -0.332,0.144 -0.658,0.357 -0.965,0.549 -0.503,0.314 -0.855,0.931 -1.142,1.44 -0.17,0.301 -0.245,0.555 -0.317,0.892 -0.08,0.373 -0.231,0.704 -0.265,1.088 -0.045,0.507 -0.057,1.086 0.064,1.581 0.066,0.271 0.1,0.547 0.221,0.8 0.133,0.279 0.347,0.501 0.536,0.741 0.312,0.396 0.684,0.721 1.155,0.919 0.372,0.156 0.752,0.402 1.146,0.506 0.755,0.199 1.493,0.408 2.277,0.408 0.368,0 0.747,-0.014 1.074,-0.21 0.085,-0.05 0.172,-0.139 0.25,-0.206 0.103,-0.089 0.281,-0.357 1.293,0.218 0.181,0.209 0.527,0.196 0.776,0.2 0.592,0.007 1.162,-0.152 1.701,-0.373 1.127,-0.461 1.59,-1.859 1.763,-2.975 0.102,-0.656 0.069,-1.403 -0.182,-2.009 m -2.773,6.992 c 0.398,0.302 1.12,0.146 1.588,0.146 l -0.426,-0.244 c 0.161,-0.21 0.175,-0.591 0.114,-0.829 -0.225,-0.015 -0.262,-0.157 -0.431,-0.26 -0.12,-0.072 -0.304,-0.075 -0.448,-0.056 -0.165,0.021 -0.263,0.103 -0.397,0.2 -0.132,0.096 -0.176,0.154 -0.199,0.347 -0.031,0.27 -0.027,0.524 0.199,0.696 m -4.531,6.453 c -0.185,0.203 -0.314,0.457 -0.425,0.706 -0.083,0.187 -0.106,0.39 -0.147,0.59 -0.022,0.107 -0.032,0.196 -0.035,0.304 -0.004,0.128 -0.036,0.245 -0.026,0.374 0.01,0.123 0.046,0.233 0.071,0.353 0.022,0.104 0.043,0.203 0.092,0.298 0.048,0.093 0.085,0.187 0.13,0.281 0.071,0.15 0.176,0.265 0.287,0.387 0.123,0.137 0.251,0.241 0.413,0.332 0.117,0.066 0.237,0.136 0.347,0.214 0.11,0.079 0.194,0.159 0.322,0.206 0.177,0.064 0.306,0.154 0.504,0.159 L -8.129,8.995 c 0.055,0.007 0.11,0.009 0.168,0.014 0.145,0.015 0.289,0.048 0.435,0.051 0.303,0.006 0.61,-0.187 0.87,-0.322 0.331,-0.17 0.662,-0.412 0.899,-0.701 C -5.58,7.822 -5.442,7.58 -5.339,7.322 -5.263,7.13 -5.254,6.893 -5.256,6.689 -5.257,6.415 -5.254,6.149 -5.308,5.879 -5.335,5.741 -5.358,5.595 -5.417,5.465 -5.473,5.341 -5.529,5.163 -5.631,5.067 -5.7,5.002 -5.773,4.968 -5.837,4.894 -5.908,4.811 -5.978,4.747 -6.081,4.701 -6.143,4.673 -6.203,4.652 -6.261,4.616 -6.32,4.579 -6.361,4.539 -6.43,4.514 -6.561,4.467 -6.688,4.433 -6.814,4.37 -6.943,4.305 -7.071,4.302 -7.211,4.282 -7.363,4.261 -7.512,4.228 -7.665,4.211 -8.052,4.169 -8.414,4.23 -8.785,4.342 -9.077,4.43 -9.384,4.6 -9.591,4.826 M 1.248,-1.137 C 1.25,-0.724 1.224,-0.315 1.181,0.096 1.119,0.696 1.054,1.291 0.951,1.886 0.822,2.633 0.617,3.361 0.427,4.094 0.367,4.326 0.3,4.555 0.231,4.783 0.209,4.754 0.187,4.724 0.165,4.697 0.079,4.587 0.016,4.489 -0.099,4.409 -0.242,4.31 -0.384,4.223 -0.502,4.093 -0.571,4.016 -0.62,3.927 -0.687,3.849 -0.783,3.736 -0.907,3.631 -1.018,3.532 -1.257,3.317 -1.54,3.171 -1.794,2.976 -2.07,2.764 -2.373,2.645 -2.693,2.513 -2.983,2.393 -3.286,2.32 -3.594,2.261 -3.891,2.204 -4.196,2.206 -4.495,2.166 -4.653,2.144 -4.806,2.097 -4.965,2.082 -5.088,2.071 -5.212,2.078 -5.335,2.078 c -0.184,0 -0.328,0.004 -0.507,0.047 -0.14,0.033 -0.264,0.028 -0.406,0.037 -0.291,0.019 -0.57,0.132 -0.841,0.233 -0.261,0.097 -0.482,0.23 -0.716,0.379 -0.13,0.082 -0.243,0.087 -0.387,0.114 -0.106,0.02 -0.169,0.085 -0.246,0.154 -0.074,0.067 -0.154,0.114 -0.23,0.175 -0.068,0.056 -0.103,0.15 -0.145,0.225 -0.012,0.021 -0.026,0.063 -0.045,0.1 -0.036,0.016 -0.064,0.036 -0.069,0.065 0.029,0 0.051,-0.03 0.069,-0.065 0.077,-0.035 0.198,-0.046 0.244,-0.056 0.164,-0.035 0.32,-0.094 0.482,-0.133 0.183,-0.045 0.375,-0.092 0.565,-0.087 0.198,0.006 0.391,0.028 0.591,0.028 0.105,0 0.21,-0.006 0.314,-0.002 0.096,0.003 0.176,0.03 0.269,0.048 0.224,0.041 0.446,0.117 0.651,0.215 0.127,0.061 0.255,0.077 0.375,0.159 0.106,0.072 0.203,0.157 0.311,0.226 0.137,0.088 0.288,0.154 0.414,0.259 0.102,0.086 0.196,0.195 0.29,0.289 0.104,0.105 0.21,0.208 0.315,0.313 0.122,0.122 0.202,0.265 0.291,0.411 0.237,0.387 0.507,0.767 0.688,1.184 0.07,0.162 0.156,0.327 0.204,0.497 0.046,0.164 0.07,0.346 0.104,0.512 0.072,0.351 0.076,0.709 0.044,1.065 -0.055,0.613 -0.177,1.252 -0.443,1.818 l -0.455,0.604 c -0.119,0.099 -0.238,0.198 -0.36,0.291 -0.255,0.196 -0.511,0.407 -0.78,0.583 -0.062,0.041 -0.127,0.077 -0.19,0.117 -0.024,0.016 -0.097,0.084 -0.136,0.1 -0.031,0.014 -0.067,0.015 -0.098,0.002 0.031,-0.014 0.056,-0.036 0.044,-0.074 l 1.153,-0.98 c -0.062,0.028 -0.126,0.054 -0.19,0.082 -0.182,0.079 -0.34,0.194 -0.505,0.304 -0.194,0.13 -0.394,0.216 -0.619,0.277 -0.211,0.058 -0.416,0.142 -0.63,0.188 -0.487,0.104 -1.024,0.035 -1.489,-0.139 -0.488,-0.183 -0.986,-0.375 -1.42,-0.669 -0.221,-0.149 -0.45,-0.279 -0.682,-0.41 -0.192,-0.109 -0.37,-0.238 -0.55,-0.366 -0.196,-0.139 -0.396,-0.272 -0.575,-0.434 -0.189,-0.172 -0.371,-0.347 -0.552,-0.528 -0.838,-0.836 -1.488,-1.831 -2.109,-2.833 -0.065,-0.208 -0.118,-0.419 -0.16,-0.634 -0.054,-0.276 -0.06,-0.555 -0.076,-0.835 -0.023,-0.421 0.007,-0.808 0.15,-1.204 0.076,-0.21 0.152,-0.41 0.256,-0.608 0.1,-0.19 0.23,-0.36 0.361,-0.53 0.182,-0.237 0.362,-0.456 0.59,-0.65 0.188,-0.161 0.348,-0.357 0.548,-0.503 0.228,-0.167 0.413,-0.367 0.662,-0.505 0.295,-0.164 0.587,-0.334 0.884,-0.494 0.182,-0.098 0.365,-0.193 0.559,-0.263 0.177,-0.064 0.371,-0.106 0.552,-0.16 0.346,-0.104 0.696,-0.223 1.058,-0.26 0.283,-0.029 0.563,-0.032 0.848,-0.032 0.099,0 0.198,0 0.297,0.001 0.086,0.001 0.182,0.008 0.253,-0.048 -0.012,-0.028 -0.063,-0.043 -0.092,-0.058 -0.052,-0.027 -0.092,-0.043 -0.148,-0.059 -0.143,-0.043 -0.291,-0.122 -0.43,-0.179 -0.155,-0.064 -0.299,-0.094 -0.462,-0.126 -0.106,-0.02 -0.203,-0.063 -0.31,-0.081 -0.088,-0.014 -0.177,-0.024 -0.267,-0.031 -0.177,-0.015 -0.345,-0.063 -0.524,-0.055 -0.13,0.006 -0.253,0.034 -0.384,0.03 -0.126,-0.004 -0.251,-0.023 -0.377,-0.036 -0.329,-0.033 -0.674,-0.036 -1.005,-0.015 -0.202,0.013 -0.403,0.061 -0.605,0.082 -0.192,0.019 -0.392,0.041 -0.576,0.1 -0.313,0.102 -0.641,0.227 -0.931,0.382 -0.149,0.079 -0.303,0.148 -0.447,0.236 -0.145,0.089 -0.276,0.196 -0.414,0.296 -0.485,0.349 -0.95,0.711 -1.319,1.186 -0.233,0.299 -0.467,0.611 -0.518,0.997 -0.093,-0.222 -0.185,-0.443 -0.284,-0.661 -0.112,-0.249 -0.211,-0.502 -0.312,-0.755 -0.12,-0.303 -0.218,-0.601 -0.319,-0.91 -0.091,-0.28 -0.163,-0.56 -0.23,-0.846 -0.065,-0.277 -0.145,-0.55 -0.192,-0.831 -0.097,-0.569 -0.173,-1.141 -0.258,-1.711 -0.053,-0.356 -0.076,-0.708 -0.099,-1.066 -0.014,-0.225 -0.035,-0.449 -0.035,-0.674 0,-0.478 0.049,-0.95 0.108,-1.422 0.044,-0.351 0.081,-0.689 0.156,-1.035 0.051,-0.232 0.085,-0.467 0.128,-0.701 0.046,-0.249 0.08,-0.498 0.145,-0.744 0.05,-0.191 0.126,-0.373 0.173,-0.565 0.02,-0.084 0.037,-0.169 0.068,-0.251 0.033,-0.085 0.095,-0.17 0.142,-0.25 0.099,-0.167 0.187,-0.353 0.302,-0.511 0.106,-0.147 0.242,-0.266 0.366,-0.397 0.137,-0.145 0.268,-0.293 0.409,-0.434 0.181,-0.183 0.384,-0.345 0.585,-0.505 0.152,-0.119 0.29,-0.26 0.451,-0.366 0.223,-0.146 0.486,-0.241 0.721,-0.369 0.183,-0.1 0.359,-0.209 0.549,-0.298 0.334,-0.157 0.677,-0.308 1.016,-0.455 0.304,-0.132 0.635,-0.226 0.954,-0.318 0.153,-0.043 0.311,-0.072 0.466,-0.108 0.175,-0.04 0.352,-0.094 0.531,-0.118 0.341,-0.046 0.692,-0.013 1.033,0.005 0.38,0.021 0.759,0.032 1.139,0.033 0.305,0 0.587,0.066 0.889,0.102 0.261,0.032 0.527,0.021 0.785,0.069 0.327,0.062 0.651,0.255 0.94,0.412 0.195,0.107 0.366,0.249 0.559,0.358 0.161,0.092 0.333,0.161 0.496,0.249 0.255,0.136 0.488,0.3 0.716,0.477 0.515,0.4 1.027,0.824 1.471,1.303 0.272,0.294 0.571,0.571 0.792,0.907 0.183,0.28 0.364,0.561 0.517,0.86 0.18,0.354 0.336,0.733 0.5,1.096 0.147,0.326 0.256,0.667 0.364,1.009 0.244,0.77 0.418,1.555 0.559,2.349 0.127,0.72 0.228,1.456 0.261,2.187 0.021,0.465 0.003,0.934 0.005,1.401"
             style="fill:#231f20;fill-opacity:1;fill-rule:nonzero;stroke:none"
             id="path1091" />
        </g>
        <g
           id="g1093"
           transform="translate(76.8461,189.4758)">
          <path
             d="M 0,0 2.404,-3.848 C 2.327,-3.581 2.246,-3.314 2.149,-3.053 2.002,-2.657 1.793,-2.297 1.572,-1.938 1.368,-1.604 1.186,-1.256 0.977,-0.927 0.763,-0.591 0.504,-0.294 0.232,-0.004 0.092,0.146 -0.052,0.295 -0.197,0.442 -0.196,0.439 -0.193,0.435 -0.191,0.432 -0.116,0.293 -0.054,0.148 0,0"
             style="fill:#231f20;fill-opacity:1;fill-rule:nonzero;stroke:none"
             id="path1095" />
        </g>
        <g
           id="g1097"
           transform="translate(73.6362,175.7287)">
          <path
             d="m 0,0 c -0.239,0.147 -0.444,0.185 -0.721,0.176 -0.167,-0.006 -0.688,-0.03 -0.68,-0.252 0.012,-0.015 0.018,-0.03 0.009,-0.048 -0.005,0.017 -0.008,0.033 -0.009,0.048 -0.054,0.066 -0.298,0.096 -0.498,0.054 -0.121,-0.026 -0.166,-0.071 -0.278,-0.105 -0.078,0.015 -0.156,0.01 -0.233,-0.014 -0.081,-0.035 -0.147,-0.088 -0.198,-0.159 -0.105,-0.071 -0.215,-0.122 -0.332,-0.17 -0.234,-0.094 -0.526,-0.334 -0.686,-0.545 -0.151,-0.199 -0.145,-0.403 -0.144,-0.644 0.003,-0.555 0.043,-1.229 0.444,-1.667 0.096,-0.105 0.181,-0.143 0.27,-0.26 0.131,-0.173 0.293,-0.37 0.48,-0.486 0.323,-0.199 0.617,-0.214 0.987,-0.212 0.352,10e-4 0.777,-0.063 1.096,0.121 0.311,0.179 0.75,0.37 0.964,0.669 0.162,0.227 0.416,0.54 0.494,0.812 0.1,0.342 0.014,0.823 -0.079,1.155 C 0.746,-1.026 0.466,-0.288 0,0"
             style="fill:#231f20;fill-opacity:1;fill-rule:nonzero;stroke:none"
             id="path1099" />
        </g>
        <g
           id="g1101"
           transform="translate(72.2442,175.605)">
          <path
             d="M 0,0 C 0.009,0.018 0.003,0.033 -0.009,0.047 -0.008,0.032 -0.005,0.017 0,0"
             style="fill:#231f20;fill-opacity:1;fill-rule:nonzero;stroke:none"
             id="path1103" />
        </g>
        <g
           id="g1105"
           transform="translate(66.6958,170.9982)">
          <path
             d="m 0,0 c -0.003,-0.292 -0.079,-0.705 0.008,-0.981 0.115,-0.364 0.346,-0.455 0.686,-0.455 0.158,0 0.309,-0.029 0.446,0.054 0.169,0.103 0.205,0.244 0.429,0.26 C 1.63,-0.728 1.77,-0.49 1.561,-0.093 1.505,0.011 1.445,0.083 1.38,0.134 L 0.694,0.248 c 0.287,0 0.507,0.025 0.686,-0.114 L 1.883,0.05 C 1.485,0.192 0.009,0.881 0,0"
             style="fill:#231f20;fill-opacity:1;fill-rule:nonzero;stroke:none"
             id="path1107" />
        </g>
        <g
           id="g1109"
           transform="translate(67.3901,171.2462)">
          <path
             d="M 0,0 0.686,-0.114 C 0.507,0.025 0.286,0 0,0"
             style="fill:#231f20;fill-opacity:1;fill-rule:nonzero;stroke:none"
             id="path1111" />
        </g>
        <g
           id="g1113"
           transform="translate(76.4668,184.8551)">
          <path
             d="M 0,0 0.245,0.061 C 0.132,0.121 0.017,0.141 0,0"
             style="fill:#231f20;fill-opacity:1;fill-rule:nonzero;stroke:none"
             id="path1115" />
        </g>
        <g
           id="g1117"
           transform="translate(76.3905,185.0331)">
          <path
             d="m 0,0 c -0.025,-0.005 -0.17,-0.085 -0.196,-0.101 -0.155,-0.092 -0.339,-0.188 -0.401,-0.372 -0.081,-0.243 0.047,-0.333 0.156,-0.522 0.126,-0.219 0.084,-0.261 0.368,-0.274 0.349,-0.016 0.848,0.034 0.847,0.497 0,0.177 -0.121,0.38 -0.239,0.499 -0.039,0.039 -0.126,0.11 -0.213,0.156 L 0.076,-0.178 c 0.018,0.141 0.132,0.121 0.246,0.061 l 0.151,0.038 C 0.288,-0.083 0.171,0.033 0,0"
             style="fill:#231f20;fill-opacity:1;fill-rule:nonzero;stroke:none"
             id="path1119" />
        </g>
      </g>
    </g>
  </g>
</svg>
