<svg width="17" height="24" viewBox="0 0 17 24" fill="#000000" xmlns="http://www.w3.org/2000/svg">
  <path d="M7.50471 7.75051C7.50934 7.77731 7.53429 7.79579 7.56848 7.81058C7.55184 7.77824 7.53151 7.75051 7.50471 7.75051Z"/>
  <path d="M15.7539 11.0837C15.6883 11.3082 15.4776 11.262 15.2918 11.262C14.8741 11.262 14.4925 11.0938 14.4657 10.6216C14.4527 10.3934 14.4398 10.2658 14.6487 10.1614C14.8039 10.0838 15.0164 10.0755 15.2003 10.0718L15.0174 9.88882C15.2216 9.88882 15.4545 9.82968 15.5912 9.97661C15.7455 10.142 15.7511 10.3139 15.7492 10.5301C15.7483 10.6937 15.7991 10.9284 15.7539 11.0837ZM14.3576 12.2508C14.1977 12.528 13.7412 12.5927 13.4612 12.5483C13.0953 12.4901 12.8578 12.1029 13.0675 11.7869C13.2828 11.4607 13.865 11.4089 14.0997 11.7185C14.1016 11.7185 14.1025 11.7185 14.1034 11.7185C14.2615 11.7416 14.2051 11.7204 14.2864 11.81C14.3742 11.9061 14.4296 12.127 14.3576 12.2508ZM13.6405 19.0484C13.5056 19.3755 13.4529 19.7073 13.3023 20.0372C13.172 20.3218 12.989 20.5269 12.8032 20.7737C12.5639 21.0915 12.3394 21.4067 11.991 21.6137C11.6906 21.7929 11.4763 22.0665 11.1815 22.255C10.8488 22.4657 10.4607 22.5414 10.1058 22.7022C9.57818 22.9416 9.17158 22.9896 8.59495 22.9804C8.16525 22.9739 7.7568 23.0173 7.3308 23.0599C6.75971 23.1162 6.47694 22.9175 5.99918 22.6754C5.67113 22.5091 5.30334 22.4915 4.9679 22.3465C4.6611 22.2134 4.35985 22.0166 4.07616 21.8391C3.61134 21.549 3.28606 20.9788 3.02085 20.5084C2.86375 20.2303 2.79444 19.9956 2.72791 19.6842C2.65398 19.3395 2.51445 19.0336 2.48303 18.6787C2.44144 18.2102 2.43035 17.6752 2.54217 17.2178C2.60316 16.9673 2.63458 16.7123 2.74639 16.4785C2.8693 16.2207 3.06705 16.0155 3.2417 15.7937C3.53002 15.4278 3.87378 15.1275 4.30903 14.9445C4.65279 14.8003 5.00394 14.573 5.36803 14.4769C6.06572 14.293 6.7477 14.0999 7.47218 14.0999C7.81225 14.0999 8.16247 14.1128 8.46465 14.2939C8.5432 14.3402 8.6236 14.4224 8.69567 14.4843C8.79086 14.5666 8.95534 14.8142 9.89052 14.2829C10.0578 14.0897 10.3775 14.1017 10.6076 14.098C11.1547 14.0916 11.6814 14.2385 12.1795 14.4427C13.2209 14.8687 13.6488 16.1606 13.8087 17.1919C13.9029 17.7981 13.8724 18.4884 13.6405 19.0484ZM11.078 12.5872C11.4458 12.3081 12.113 12.4522 12.5454 12.4522L12.1518 12.6777C12.3005 12.8718 12.3135 13.2239 12.2571 13.4438C12.0492 13.4576 12.015 13.5889 11.8588 13.6841C11.7479 13.7506 11.5779 13.7534 11.4448 13.7358C11.2924 13.7164 11.2018 13.6406 11.078 13.551C10.956 13.4623 10.9153 13.4087 10.8941 13.2303C10.8654 12.9808 10.8691 12.7461 11.078 12.5872ZM6.89093 6.62401C6.71997 6.43642 6.60077 6.20171 6.49819 5.97161C6.42149 5.7988 6.40024 5.61121 6.36235 5.42639C6.34202 5.32752 6.33278 5.24527 6.33001 5.14547C6.32631 5.02719 6.29674 4.91907 6.30598 4.79986C6.31522 4.6862 6.34849 4.58455 6.37159 4.47366C6.39192 4.37756 6.41133 4.28607 6.45661 4.19828C6.50096 4.11234 6.53516 4.02548 6.57674 3.93861C6.64235 3.8 6.73938 3.69373 6.84195 3.58099C6.95562 3.45439 7.0739 3.35829 7.2236 3.27419C7.33172 3.2132 7.44261 3.14852 7.54426 3.07644C7.64591 3.00344 7.72353 2.92951 7.84182 2.88608C8.00538 2.82694 8.12459 2.74377 8.30756 2.73915L8.24195 2.77149C8.29277 2.76502 8.3436 2.76317 8.39719 2.75855C8.53119 2.74469 8.66425 2.7142 8.79917 2.71142C9.07917 2.70588 9.36287 2.88423 9.60313 3.00898C9.909 3.16607 10.2149 3.3897 10.4339 3.65677C10.5974 3.85545 10.725 4.07907 10.8202 4.31749C10.8904 4.49491 10.8987 4.71392 10.8969 4.90244C10.8959 5.15564 10.8987 5.40144 10.8488 5.65095C10.8238 5.77847 10.8026 5.91339 10.7481 6.03352C10.6963 6.14811 10.6446 6.3126 10.5503 6.40131C10.4866 6.46137 10.4191 6.49279 10.36 6.56118C10.2943 6.63788 10.2297 6.69702 10.1345 6.73953C10.0772 6.7654 10.0217 6.78481 9.96814 6.81807C9.91362 6.85226 9.87573 6.88923 9.81197 6.91233C9.69092 6.95576 9.57356 6.98718 9.45712 7.0454C9.33792 7.10546 9.21963 7.10824 9.09026 7.12672C8.9498 7.14612 8.81211 7.17662 8.67072 7.19233C8.3131 7.23114 7.97858 7.17477 7.63574 7.07127C7.36591 6.98995 7.08222 6.83286 6.89093 6.62401ZM16.9071 12.1344C16.909 11.7527 16.8849 11.3748 16.8452 10.995C16.7879 10.4405 16.7279 9.89067 16.6327 9.34083C16.5135 8.65054 16.324 7.9778 16.1484 7.30045C16.093 7.08606 16.0311 6.87444 15.9673 6.66375C15.947 6.69055 15.9267 6.71827 15.9063 6.74322C15.8269 6.84487 15.7686 6.93543 15.6624 7.00936C15.5302 7.10084 15.399 7.18124 15.29 7.30137C15.2262 7.37253 15.1809 7.45477 15.119 7.52685C15.0303 7.63127 14.9157 7.7283 14.8131 7.81978C14.5923 8.01846 14.3308 8.15338 14.096 8.33358C13.841 8.52949 13.561 8.63945 13.2653 8.76143C12.9973 8.87232 12.7173 8.93978 12.4327 8.9943C12.1582 9.04698 11.8764 9.04513 11.6001 9.08209C11.4541 9.10242 11.3127 9.14585 11.1658 9.15971C11.0521 9.16988 10.9375 9.16341 10.8238 9.16341C10.6538 9.16341 10.5207 9.15971 10.3553 9.11998C10.226 9.08948 10.1114 9.0941 9.98016 9.08579C9.71125 9.06823 9.45343 8.96381 9.203 8.87047C8.96181 8.78084 8.75759 8.65793 8.54135 8.52024C8.42122 8.44447 8.3168 8.43985 8.18373 8.4149C8.08577 8.39642 8.02756 8.33635 7.9564 8.27259C7.88802 8.21067 7.81409 8.16724 7.74386 8.11087C7.68102 8.05912 7.64868 7.97226 7.60987 7.90295C7.59878 7.88355 7.58603 7.84477 7.56848 7.81058C7.53429 7.79579 7.50934 7.77731 7.50471 7.75051C7.53151 7.75051 7.55184 7.77824 7.56848 7.81058C7.63963 7.84292 7.75126 7.85305 7.79376 7.86229C7.94531 7.89464 8.08947 7.94916 8.23917 7.9852C8.40828 8.02678 8.58571 8.07021 8.76128 8.06559C8.94425 8.06005 9.1226 8.03972 9.30742 8.03972C9.40445 8.03972 9.50148 8.04526 9.59758 8.04157C9.6863 8.03879 9.76022 8.01384 9.84616 7.99721C10.0532 7.95932 10.2583 7.88909 10.4477 7.79853C10.5651 7.74216 10.6834 7.72738 10.7943 7.6516C10.8922 7.58507 10.9819 7.50652 11.0817 7.44276C11.2083 7.36144 11.3478 7.30045 11.4642 7.20342C11.5585 7.12395 11.6454 7.02322 11.7322 6.93636C11.8283 6.83933 11.9263 6.74415 12.0233 6.64712C12.1361 6.53438 12.21 6.40223 12.2922 6.26732C12.5112 5.90969 12.7607 5.55854 12.928 5.1732C12.9927 5.02349 13.0722 4.87102 13.1165 4.71392C13.159 4.56237 13.1812 4.39419 13.2126 4.24079C13.2792 3.91643 13.2828 3.58561 13.2533 3.25664C13.2025 2.69017 13.0897 2.09968 12.8439 1.57664L12.4234 1.01849C12.3135 0.927009 12.2035 0.835524 12.0908 0.749584C11.8551 0.568462 11.6186 0.373479 11.37 0.21084C11.3127 0.172952 11.2526 0.139685 11.1944 0.102721C11.1722 0.0879356 11.1048 0.025099 11.0687 0.0103136C11.0401 -0.00262368 11.0068 -0.00354851 10.9782 0.00846464C11.0068 0.0214019 11.0299 0.0417313 11.0188 0.0768466L12.0843 0.982455C12.027 0.95658 11.9679 0.932553 11.9087 0.906679C11.7405 0.833676 11.5945 0.727405 11.4421 0.625755C11.2628 0.505624 11.078 0.426153 10.8701 0.369784C10.6751 0.316187 10.4856 0.238564 10.2879 0.196056C9.83785 0.0999504 9.34161 0.163712 8.91191 0.324504C8.46096 0.493612 8.00076 0.671036 7.5997 0.942718C7.39548 1.08041 7.18387 1.20054 6.96948 1.32159C6.79205 1.42232 6.62756 1.54153 6.46123 1.65981C6.28011 1.78826 6.09529 1.91116 5.92988 2.06087C5.75522 2.21981 5.58704 2.38152 5.41978 2.54878C4.64539 3.32132 4.04474 4.24079 3.47088 5.16673C3.41081 5.35894 3.36184 5.55392 3.32302 5.7526C3.27312 6.00765 3.26758 6.26547 3.25279 6.52421C3.23154 6.91325 3.25926 7.27088 3.39141 7.63681C3.46164 7.83087 3.53187 8.01569 3.62797 8.19866C3.72038 8.37424 3.84051 8.53133 3.96157 8.68843C4.12975 8.90744 4.29609 9.10981 4.50678 9.28909C4.68051 9.43786 4.82836 9.61899 5.01318 9.7539C5.22387 9.90823 5.39483 10.093 5.62493 10.2206C5.89753 10.3721 6.16737 10.5292 6.44182 10.6771C6.61001 10.7676 6.77911 10.8554 6.95839 10.9201C7.12195 10.9792 7.30122 11.0181 7.46848 11.068C7.78822 11.1641 8.11165 11.274 8.44617 11.3082C8.70769 11.335 8.96643 11.3378 9.2298 11.3378C9.32128 11.3378 9.41277 11.3378 9.50425 11.3369C9.58372 11.3359 9.67244 11.3295 9.73805 11.3812C9.72696 11.4071 9.67983 11.421 9.65303 11.4348C9.60498 11.4598 9.56801 11.4746 9.51626 11.4893C9.38412 11.5291 9.24735 11.6021 9.11891 11.6548C8.97567 11.7139 8.8426 11.7416 8.69198 11.7712C8.59402 11.7897 8.50439 11.8294 8.40551 11.846C8.32419 11.859 8.24195 11.8682 8.15878 11.8747C7.99521 11.8885 7.83997 11.9329 7.67456 11.9255C7.55442 11.92 7.44076 11.8941 7.31971 11.8978C7.20327 11.9015 7.08776 11.919 6.97132 11.9311C6.6673 11.9615 6.34849 11.9643 6.04262 11.9449C5.85595 11.9329 5.67021 11.8885 5.48354 11.8691C5.30612 11.8516 5.1213 11.8313 4.95127 11.7767C4.66203 11.6825 4.35893 11.567 4.09094 11.4237C3.95325 11.3507 3.81094 11.287 3.67787 11.2056C3.54388 11.1234 3.42282 11.0245 3.2953 10.9321C2.84712 10.6096 2.41742 10.2751 2.07643 9.83615C1.86112 9.55984 1.64488 9.27153 1.59775 8.91483C1.51181 9.11998 1.42679 9.3242 1.33531 9.52565C1.23181 9.75575 1.14033 9.98954 1.04699 10.2233C0.936102 10.5033 0.845542 10.7787 0.752209 11.0643C0.668117 11.323 0.601581 11.5817 0.539667 11.846C0.479602 12.102 0.405675 12.3543 0.362243 12.614C0.272606 13.1398 0.202376 13.6683 0.123829 14.1951C0.0748519 14.524 0.053597 14.8493 0.032343 15.1802C0.0194057 15.3881 0 15.5951 0 15.803C0 16.2447 0.0452802 16.6809 0.0998014 17.117C0.140461 17.4414 0.174653 17.7537 0.243959 18.0735C0.291088 18.2879 0.322507 18.505 0.362243 18.7213C0.404751 18.9514 0.43617 19.1815 0.496236 19.4088C0.542441 19.5853 0.612672 19.7535 0.656104 19.9309C0.674586 20.0085 0.690294 20.0871 0.718941 20.1628C0.749436 20.2414 0.806729 20.3199 0.850162 20.3939C0.941646 20.5482 1.02297 20.7201 1.12924 20.8661C1.22719 21.0019 1.35287 21.1119 1.46745 21.2329C1.59405 21.3669 1.71511 21.5037 1.84541 21.634C2.01267 21.8031 2.20026 21.9528 2.386 22.1006C2.52646 22.2106 2.65398 22.3409 2.80276 22.4389C3.00883 22.5738 3.25187 22.6616 3.46903 22.7799C3.63814 22.8723 3.80078 22.973 3.97635 23.0552C4.285 23.2003 4.60196 23.3399 4.91523 23.4757C5.19615 23.5977 5.50202 23.6845 5.79681 23.7696C5.93819 23.8093 6.0842 23.8361 6.22743 23.8694C6.38915 23.9063 6.55271 23.9562 6.71812 23.9784C7.03324 24.0209 7.35759 23.9904 7.67271 23.9738C8.02386 23.9544 8.37409 23.9442 8.72524 23.9433C9.00709 23.9433 9.26768 23.8823 9.54676 23.849C9.78795 23.8195 10.0338 23.8296 10.2722 23.7853C10.5743 23.728 10.8738 23.5496 11.1408 23.4045C11.321 23.3057 11.479 23.1744 11.6574 23.0737C11.8062 22.9887 11.9651 22.9249 12.1157 22.8436C12.3514 22.7179 12.5667 22.5664 12.7774 22.4028C13.2533 22.0332 13.7264 21.6414 14.1367 21.1987C14.3881 20.9271 14.6644 20.6711 14.8686 20.3606C15.0377 20.1018 15.205 19.8422 15.3463 19.5659C15.5127 19.2387 15.6568 18.8885 15.8084 18.5531C15.9442 18.2518 16.045 17.9367 16.1448 17.6207C16.3702 16.9091 16.531 16.1837 16.6613 15.45C16.7787 14.7846 16.872 14.1045 16.9025 13.429C16.9219 12.9993 16.9053 12.5659 16.9071 12.1344Z"/>
  <path d="M13.594 2.74703L15.8155 6.30292C15.7444 6.05619 15.6695 5.80946 15.5799 5.56827C15.444 5.20233 15.2509 4.86966 15.0467 4.53791C14.8582 4.22926 14.69 3.90768 14.4968 3.60366C14.2991 3.29316 14.0598 3.01871 13.8084 2.75072C13.679 2.61211 13.546 2.47442 13.412 2.33858C13.4129 2.34135 13.4157 2.34505 13.4175 2.34782C13.4868 2.47627 13.5441 2.61026 13.594 2.74703Z"/>
  <path d="M10.6278 15.4506C10.4069 15.3147 10.2175 15.2796 9.9615 15.2879C9.80717 15.2935 9.32572 15.3156 9.33312 15.5208C9.34421 15.5347 9.34975 15.5485 9.34143 15.5652C9.33681 15.5494 9.33404 15.5347 9.33312 15.5208C9.28322 15.4598 9.05774 15.4321 8.87292 15.4709C8.76111 15.4949 8.71952 15.5365 8.61602 15.5679C8.54395 15.5541 8.47187 15.5587 8.40071 15.5809C8.32586 15.6132 8.26487 15.6622 8.21774 15.7278C8.12071 15.7934 8.01906 15.8405 7.91094 15.8849C7.69471 15.9718 7.42487 16.1935 7.27702 16.3885C7.13748 16.5724 7.14303 16.7609 7.14395 16.9836C7.14672 17.4965 7.18369 18.1193 7.55425 18.5241C7.64296 18.6211 7.72151 18.6562 7.80375 18.7643C7.92481 18.9242 8.07451 19.1063 8.24731 19.2135C8.54579 19.3973 8.81748 19.4112 9.15939 19.4094C9.48467 19.4084 9.87741 19.4676 10.1722 19.2975C10.4596 19.1321 10.8653 18.9556 11.063 18.6793C11.2127 18.4696 11.4474 18.1803 11.5195 17.929C11.6119 17.6129 11.5324 17.1684 11.4465 16.8616C11.3171 16.3987 11.0584 15.7167 10.6278 15.4506Z"/>
  <path d="M9.33312 15.5208C9.34421 15.5347 9.34975 15.5485 9.34143 15.5652C9.33681 15.5494 9.33404 15.5347 9.33312 15.5208Z"/>
  <path d="M4.21421 19.8219C4.21144 20.0918 4.14121 20.4734 4.2216 20.7285C4.32787 21.0648 4.54134 21.1489 4.85553 21.1489C5.00153 21.1489 5.14107 21.1757 5.26767 21.099C5.42384 21.0039 5.45711 20.8736 5.6641 20.8588C5.72047 20.4947 5.84985 20.2748 5.65671 19.9079C5.60496 19.8118 5.54952 19.7453 5.48945 19.6981L4.85553 19.5928C5.12074 19.5928 5.32404 19.5697 5.48945 19.6981L5.95427 19.7757C5.58648 19.6445 4.22253 19.0078 4.21421 19.8219Z"/>
  <path d="M5.48945 19.6981L4.85553 19.5928C5.12074 19.5928 5.32404 19.5697 5.48945 19.6981Z"/>
  <path d="M13.2435 7.01695L13.4699 6.96059C13.3655 6.90514 13.2592 6.88666 13.2435 7.01695Z"/>
  <path d="M13.173 6.85245C13.1499 6.85707 13.0159 6.931 12.9919 6.94578C12.8486 7.0308 12.6786 7.11951 12.6213 7.28954C12.5464 7.5141 12.6647 7.59727 12.7655 7.77192C12.8819 7.97429 12.8431 8.0131 13.1055 8.02512C13.428 8.0399 13.8891 7.9937 13.8882 7.56585C13.8882 7.40228 13.7764 7.21469 13.6674 7.10473C13.6313 7.06869 13.5503 7.00309 13.4699 6.96059L13.2435 7.01695C13.2592 6.88666 13.3655 6.90514 13.4699 6.96059L13.6101 6.92545C13.4391 6.92915 13.331 6.82195 13.173 6.85245Z"/>
</svg>
