<?xml version="1.0" encoding="UTF-8" standalone="no"?>
<!-- Created with Inkscape (http://www.inkscape.org/) -->

<svg
   width="22.564909"
   height="24"
   viewBox="0 0 5.9702989 6.35"
   version="1.1"
   id="svg7730"
   inkscape:version="1.2.1 (9c6d41e4, 2022-07-14)"
   sodipodi:docname="dark-rituals.svg"
   xmlns:inkscape="http://www.inkscape.org/namespaces/inkscape"
   xmlns:sodipodi="http://sodipodi.sourceforge.net/DTD/sodipodi-0.dtd"
   xmlns="http://www.w3.org/2000/svg"
   xmlns:svg="http://www.w3.org/2000/svg">
  <sodipodi:namedview
     id="namedview7732"
     pagecolor="#505050"
     bordercolor="#eeeeee"
     borderopacity="1"
     inkscape:showpageshadow="0"
     inkscape:pageopacity="0"
     inkscape:pagecheckerboard="0"
     inkscape:deskcolor="#505050"
     inkscape:document-units="mm"
     showgrid="false"
     inkscape:zoom="0.7046647"
     inkscape:cx="-78.051306"
     inkscape:cy="129.84899"
     inkscape:window-width="1390"
     inkscape:window-height="941"
     inkscape:window-x="0"
     inkscape:window-y="25"
     inkscape:window-maximized="0"
     inkscape:current-layer="layer1" />
  <defs
     id="defs7727">
    <clipPath
       clipPathUnits="userSpaceOnUse"
       id="clipPath999">
      <path
         d="m 56.886,133.61 h 28.8 v 28.8 h -28.8 z"
         id="path997" />
    </clipPath>
  </defs>
  <g
     inkscape:label="Layer 1"
     inkscape:groupmode="layer"
     id="layer1"
     transform="translate(-125.80245,-114.72386)">
    <g
       id="g993"
       transform="matrix(0.23572332,0,0,-0.23572332,111.93654,152.75279)">
      <g
         id="g995"
         clip-path="url(#clipPath999)">
        <g
           id="g1001"
           transform="translate(69.1465,143.2259)">
          <path
             d="M 0,0 C 0.026,-0.057 0.057,-0.113 0.089,-0.168 -0.038,0.153 -0.03,0.064 0,0"
             style="fill:#231f20;fill-opacity:1;fill-rule:nonzero;stroke:none"
             id="path1003" />
        </g>
        <g
           id="g1005"
           transform="translate(69.3327,142.806)">
          <path
             d="M 0,0 C 0.011,-0.001 0.022,-0.003 0.033,-0.004 0.021,0.001 0.007,0.009 -0.006,0.017 -0.004,0.011 -0.002,0.006 0,0"
             style="fill:#231f20;fill-opacity:1;fill-rule:nonzero;stroke:none"
             id="path1007" />
        </g>
        <g
           id="g1009"
           transform="translate(74.1223,154.0417)">
          <path
             d="m 0,0 c -0.274,-0.029 -0.562,0.01 -0.839,-0.009 -0.111,-0.008 -0.218,-0.025 -0.325,-0.043 -0.145,0.033 -0.287,0.07 -0.439,0.107 -0.119,0.028 -0.26,0.065 -0.392,0.077 -0.147,0.013 -0.169,-0.022 -0.207,0.054 -0.026,0.05 -0.03,0.102 -0.06,0.154 -0.073,0.126 -0.132,0.259 -0.191,0.386 -0.082,0.177 -0.113,0.354 -0.166,0.533 -0.055,0.185 -0.127,0.368 -0.183,0.553 -0.004,0.014 -0.006,0.029 -0.01,0.043 0.005,0.148 0.007,0.296 -0.001,0.442 -0.021,0.398 -0.155,0.79 -0.181,1.188 -0.019,0.283 -0.026,0.596 0.008,0.877 0.067,0.553 0.181,1.093 0.363,1.623 0.064,0.185 0.092,0.332 0.091,0.521 0,0.07 -0.009,0.143 0.003,0.213 0.01,0.053 0.093,0.169 0.073,0.22 -0.031,0.082 -0.332,0.036 -0.408,0.046 -0.191,0.026 -0.4,0.088 -0.6,0.087 -0.006,0.031 -0.02,0.06 -0.055,0.084 0.001,-0.005 0.001,-0.01 0.002,-0.016 L -3.52,7.157 c 0,0 0,0 10e-4,-0.001 -0.026,0.26 -0.104,0.061 -0.104,0.012 0,-0.039 0,-0.077 0,-0.115 C -3.671,7.036 -3.691,7.006 -3.747,6.975 -3.828,6.929 -3.931,6.928 -4.018,6.893 -4.113,6.855 -4.198,6.797 -4.292,6.759 -4.436,6.702 -4.602,6.703 -4.752,6.658 -4.893,6.617 -5.035,6.569 -5.181,6.55 -5.221,6.545 -5.304,6.564 -5.319,6.521 -5.337,6.472 -5.242,6.405 -5.218,6.365 -5.121,6.209 -5.077,6.031 -5.008,5.866 -4.935,5.695 -4.819,5.547 -4.748,5.376 -4.61,5.045 -4.5,4.703 -4.368,4.37 -4.256,4.086 -4.073,3.835 -3.975,3.543 -3.938,3.433 -3.902,3.321 -3.868,3.208 -3.883,3.033 -3.879,2.859 -3.896,2.683 -3.923,2.409 -3.967,2.133 -4.005,1.858 -4.031,1.663 -4.064,1.469 -4.116,1.275 -4.169,1.077 -4.255,0.87 -4.257,0.671 c -0.002,-0.137 0.002,-0.274 0.002,-0.41 0,-0.05 0.011,-0.102 0.002,-0.151 -0.014,-0.08 -0.166,-0.106 -0.3,-0.143 -0.355,-0.099 -0.707,-0.204 -1.047,-0.316 -0.139,-0.046 -0.273,-0.097 -0.405,-0.149 -0.083,0.002 -0.167,0.003 -0.243,-0.007 0.042,-0.013 0.086,-0.025 0.129,-0.038 -0.018,-0.007 -0.037,-0.014 -0.055,-0.021 -0.06,-0.024 -0.157,-0.077 -0.237,-0.082 0.222,0.019 0.454,0.003 0.681,0.004 0.036,-0.008 0.072,-0.018 0.109,-0.025 0.297,-0.056 0.536,-0.141 0.813,-0.227 0.119,-0.037 0.259,-0.083 0.392,-0.098 0.147,-0.017 0.169,0.027 0.207,-0.069 0.026,-0.065 0.03,-0.13 0.06,-0.197 0.073,-0.161 0.132,-0.331 0.191,-0.493 0.082,-0.225 0.113,-0.451 0.166,-0.679 0.055,-0.236 0.127,-0.47 0.183,-0.706 0.056,-0.235 0.054,-0.474 0.105,-0.711 0.072,-0.333 0.161,-0.655 0.2,-0.991 0.034,-0.291 0.1,-0.58 0.136,-0.871 0.045,-0.357 0.055,-0.714 0.076,-1.071 0.041,-0.667 0.082,-1.333 0.091,-2 0.005,-0.302 0.061,-0.603 0.055,-0.905 -0.002,-0.084 -0.031,-0.193 0.054,-0.268 0,0.007 -10e-4,0.013 -0.002,0.021 0.001,-0.007 0.002,-0.015 0.003,-0.022 0,0 0,0.001 -10e-4,0.001 0.026,-0.332 0.104,-0.077 0.104,-0.014 10e-4,0.204 0,0.409 0,0.614 0,0.514 0.013,1.019 0.059,1.532 0.049,0.553 0.038,1.107 0.087,1.661 0.028,0.315 0.007,0.627 0.064,0.941 0.06,0.324 0.039,0.647 0.064,0.972 0.026,0.35 0.07,0.703 0.108,1.052 0.026,0.25 0.059,0.497 0.111,0.745 0.053,0.252 0.139,0.516 0.141,0.77 0.002,0.175 -0.002,0.349 -0.002,0.523 0,0.063 -0.011,0.131 -0.002,0.193 0.014,0.101 0.166,0.134 0.3,0.182 0.355,0.127 0.707,0.261 1.047,0.403 0.092,0.039 0.181,0.081 0.269,0.123 0.127,0.002 0.262,-0.007 0.379,0.006 -0.081,0.02 -0.166,0.039 -0.251,0.057 0.059,0.03 0.118,0.059 0.177,0.089 C -0.177,-0.074 -0.08,-0.007 0,0"
             style="fill:#231f20;fill-opacity:1;fill-rule:nonzero;stroke:none"
             id="path1011" />
        </g>
        <g
           id="g1013"
           transform="translate(68.3119,141.6773)">
          <path
             d="M 0,0 C 0.274,0.029 0.562,-0.011 0.839,0.009 0.95,0.017 1.057,0.034 1.164,0.052 1.309,0.019 1.451,-0.018 1.603,-0.055 1.722,-0.084 1.862,-0.12 1.995,-0.132 2.142,-0.145 2.164,-0.11 2.202,-0.186 2.228,-0.236 2.232,-0.288 2.262,-0.34 2.335,-0.466 2.394,-0.599 2.453,-0.726 2.535,-0.903 2.566,-1.08 2.619,-1.259 2.674,-1.444 2.746,-1.628 2.802,-1.812 2.806,-1.827 2.808,-1.841 2.812,-1.855 2.807,-2.004 2.805,-2.151 2.813,-2.297 2.834,-2.695 2.968,-3.087 2.994,-3.485 3.013,-3.768 3.02,-4.081 2.986,-4.362 2.919,-4.915 2.805,-5.455 2.623,-5.985 2.559,-6.17 2.531,-6.317 2.532,-6.506 c 0,-0.07 0.009,-0.143 -0.003,-0.213 -0.01,-0.053 -0.093,-0.169 -0.073,-0.22 0.031,-0.082 0.332,-0.036 0.408,-0.046 0.191,-0.026 0.4,-0.088 0.6,-0.087 0.006,-0.031 0.019,-0.06 0.055,-0.084 -0.001,0.005 -0.001,0.01 -0.002,0.016 10e-4,-0.006 0.002,-0.012 0.003,-0.017 0,0 -10e-4,0 -10e-4,0.001 0.026,-0.26 0.104,-0.061 0.104,-0.012 0,0.039 0,0.077 0,0.115 0.047,0.017 0.068,0.047 0.124,0.078 0.081,0.046 0.184,0.047 0.271,0.082 0.095,0.038 0.18,0.096 0.274,0.134 0.144,0.057 0.31,0.056 0.46,0.1 0.14,0.042 0.283,0.09 0.429,0.109 0.04,0.005 0.123,-0.014 0.138,0.029 0.018,0.049 -0.077,0.116 -0.102,0.156 -0.096,0.155 -0.14,0.334 -0.209,0.499 -0.073,0.171 -0.189,0.319 -0.26,0.49 -0.138,0.331 -0.248,0.673 -0.38,1.006 -0.112,0.284 -0.295,0.535 -0.393,0.827 -0.037,0.11 -0.073,0.222 -0.107,0.335 0.015,0.175 0.012,0.349 0.028,0.525 0.027,0.274 0.071,0.55 0.109,0.824 0.026,0.196 0.059,0.39 0.111,0.584 0.053,0.198 0.139,0.405 0.141,0.604 0.002,0.137 -0.002,0.274 -0.002,0.41 0,0.049 -0.011,0.102 -0.002,0.151 0.014,0.08 0.166,0.106 0.3,0.143 C 4.908,0.132 5.26,0.237 5.6,0.349 5.739,0.395 5.873,0.446 6.005,0.498 6.088,0.496 6.172,0.495 6.248,0.505 6.206,0.518 6.162,0.53 6.119,0.543 6.137,0.55 6.156,0.557 6.174,0.564 6.234,0.588 6.331,0.641 6.411,0.646 6.189,0.627 5.957,0.643 5.73,0.642 5.694,0.65 5.658,0.66 5.621,0.667 5.324,0.723 5.085,0.808 4.808,0.894 4.689,0.93 4.549,0.977 4.416,0.992 4.269,1.009 4.247,0.964 4.209,1.061 4.183,1.126 4.179,1.191 4.149,1.258 4.076,1.419 4.017,1.588 3.958,1.751 3.876,1.976 3.845,2.202 3.792,2.43 3.737,2.666 3.665,2.9 3.609,3.136 3.553,3.371 3.555,3.61 3.504,3.846 3.432,4.18 3.343,4.502 3.304,4.838 3.27,5.129 3.204,5.418 3.168,5.709 3.123,6.066 3.113,6.423 3.092,6.78 3.051,7.447 3.01,8.113 3.001,8.78 2.996,9.082 2.94,9.383 2.946,9.685 2.948,9.769 2.977,9.878 2.892,9.953 2.892,9.946 2.893,9.94 2.894,9.932 2.893,9.939 2.892,9.947 2.891,9.954 c 0,0 0,-0.001 10e-4,-0.001 -0.026,0.332 -0.104,0.077 -0.104,0.014 -10e-4,-0.204 0,-0.409 0,-0.614 C 2.788,8.839 2.775,8.334 2.729,7.821 2.68,7.268 2.691,6.714 2.642,6.16 2.614,5.845 2.635,5.533 2.578,5.219 2.518,4.895 2.539,4.572 2.514,4.247 2.488,3.897 2.444,3.544 2.406,3.195 2.38,2.945 2.347,2.698 2.295,2.45 2.242,2.198 2.156,1.934 2.154,1.679 2.152,1.505 2.156,1.331 2.156,1.156 2.156,1.094 2.167,1.026 2.158,0.964 2.144,0.863 1.992,0.829 1.858,0.782 1.503,0.655 1.151,0.521 0.811,0.379 0.719,0.34 0.63,0.298 0.542,0.256 0.415,0.254 0.28,0.263 0.163,0.25 0.244,0.23 0.329,0.211 0.414,0.193 0.355,0.163 0.296,0.134 0.237,0.104 0.177,0.074 0.08,0.007 0,0"
             style="fill:#231f20;fill-opacity:1;fill-rule:nonzero;stroke:none"
             id="path1015" />
        </g>
        <g
           id="g1017"
           transform="translate(71.0733,142.3847)">
          <path
             d="M 0,0 C 0.001,-0.001 0.001,-0.002 0.001,-0.002 0,0.009 -0.001,0.02 -0.002,0.03 -0.001,0.019 0,0.011 0,0"
             style="fill:#231f20;fill-opacity:1;fill-rule:nonzero;stroke:none"
             id="path1019" />
        </g>
        <g
           id="g1021"
           transform="translate(74.9102,150.9639)">
          <path
             d="M 0,0 C 0.003,0.001 0.005,0.001 0.008,0.001 -0.003,0.002 -0.014,0.002 -0.025,0.003 -0.018,0.003 -0.009,0.001 0,0"
             style="fill:#231f20;fill-opacity:1;fill-rule:nonzero;stroke:none"
             id="path1023" />
        </g>
        <g
           id="g1025"
           transform="translate(69.7466,148.2985)">
          <path
             d="M 0,0 C -0.052,-0.012 -0.051,0.013 -0.091,0.022 -0.154,0.036 -0.214,0.043 -0.28,0.046 -0.583,0.057 -0.889,0.044 -1.192,0.044 h -2.113 c -1.193,0 -2.386,0 -3.579,0 -0.227,0 -0.473,-0.027 -0.698,0.01 -0.186,0.03 -0.347,0.034 -0.537,0.034 -0.314,-0.001 -0.629,0 -0.943,0 h -1.334 c -0.098,0 -0.281,0.035 -0.373,0.004 -0.095,-0.031 -0.123,-0.216 -0.144,-0.318 -0.018,-0.083 -0.008,-0.172 -0.008,-0.257 0,-0.078 10e-4,-0.156 0,-0.234 -0.001,-0.086 0.017,-0.109 0.034,-0.179 0.034,-0.135 -0.065,-0.524 0.049,-0.602 0.07,-0.048 0.365,0.055 0.389,0.061 0.247,0.066 0.477,0.126 0.732,0.166 0.253,0.039 0.507,0.089 0.761,0.117 0.324,0.036 0.66,0.009 0.984,0.009 h 1.107 c 0.49,0 0.988,-0.025 1.478,-0.003 0.256,0.011 0.519,0.081 0.773,0.114 0.278,0.035 0.558,0.057 0.823,0.148 0.184,0.064 0.361,0.089 0.55,0.136 0.07,0.017 0.133,0.044 0.2,0.068 0.13,0.047 0.241,0.053 0.376,0.07 0.216,0.027 0.422,0.106 0.641,0.124 0.166,0.013 0.32,0.024 0.485,0.053 0.239,0.043 0.449,0.093 0.684,0.172 0.105,0.036 0.216,0.113 0.323,0.129 C -0.429,-0.119 -0.324,-0.102 0,0"
             style="fill:#231f20;fill-opacity:1;fill-rule:nonzero;stroke:none"
             id="path1027" />
        </g>
        <g
           id="g1029"
           transform="translate(72.9614,148.3865)">
          <path
             d="m 0,0 h 7.475 2.3 0.525 c 0.133,0 0.266,-0.001 0.399,0 0.148,0 0.359,0.045 0.49,-0.037 -0.012,-0.196 -0.092,-0.379 -0.092,-0.579 0,-0.065 -0.002,-0.121 0.01,-0.186 0.004,-0.025 0.057,-0.176 0.038,-0.216 -0.026,-0.054 -0.04,-0.036 -0.097,-0.04 -0.252,-0.015 -0.509,0.001 -0.76,0.001 h -1.25 c -0.702,0 -1.417,-0.046 -2.112,0.055 -0.548,0.08 -1.097,0.141 -1.644,0.23 -0.57,0.094 -1.139,0.201 -1.718,0.2 C 3.102,-0.573 2.64,-0.569 2.179,-0.573 1.924,-0.576 1.693,-0.494 1.444,-0.45 1.264,-0.419 1.08,-0.404 0.899,-0.375 0.77,-0.354 0.66,-0.303 0.537,-0.273 0.387,-0.236 0.263,-0.197 0.124,-0.131 0.019,-0.082 -0.148,-0.042 0,0"
             style="fill:#231f20;fill-opacity:1;fill-rule:nonzero;stroke:none"
             id="path1031" />
        </g>
        <g
           id="g1033"
           transform="translate(72.0805,153.3186)">
          <path
             d="m 0,0 c 0,0.012 0,0.024 0,0.036 0.272,0.055 0.567,0.104 0.843,0.13 0.381,0.037 0.758,0.1 1.14,0.1 0.438,0 0.832,-0.111 1.199,-0.353 C 3.298,-0.164 3.465,-0.234 3.558,-0.336 3.605,-0.386 3.63,-0.464 3.666,-0.519 3.71,-0.588 3.771,-0.638 3.807,-0.71 3.935,-0.969 3.917,-1.315 3.919,-1.595 3.921,-1.825 3.844,-2.035 3.686,-2.206 3.522,-2.384 3.366,-2.482 3.126,-2.555 2.939,-2.611 2.704,-2.624 2.51,-2.589 c -0.122,0.021 -0.256,0.062 -0.364,0.122 -0.105,0.058 -0.188,0.165 -0.21,0.005 -0.027,-0.193 0.094,-0.395 0.21,-0.531 0.072,-0.085 0.12,-0.134 0.241,-0.168 0.168,-0.046 0.351,-0.056 0.523,-0.054 0.326,0.003 0.584,0.035 0.869,0.21 0.128,0.078 0.222,0.18 0.326,0.285 0.125,0.124 0.289,0.237 0.398,0.369 0.184,0.226 0.33,0.557 0.376,0.844 C 4.92,-1.258 4.853,-1 4.791,-0.761 4.712,-0.454 4.534,-0.188 4.371,0.081 4.301,0.195 4.193,0.35 4.096,0.444 3.982,0.555 3.828,0.608 3.687,0.671 3.354,0.821 2.928,0.838 2.563,0.837 2.38,0.836 2.174,0.815 1.992,0.847 1.777,0.884 1.56,0.932 1.343,0.96 1.152,0.985 0.955,0.969 0.763,0.969 0.451,0.969 0.136,0.98 -0.176,0.971 -0.415,0.964 -0.648,0.926 -0.887,0.926 -1.136,0.925 -1.38,0.854 -1.629,0.837"
             style="fill:#231f20;fill-opacity:1;fill-rule:nonzero;stroke:none"
             id="path1035" />
        </g>
        <g
           id="g1037"
           transform="translate(70.7594,142.5296)">
          <path
             d="m 0,0 h -0.9 c -0.48,0 -0.975,-0.038 -1.449,0.044 -0.353,0.06 -0.661,0.196 -0.964,0.383 -0.245,0.152 -0.492,0.508 -0.589,0.787 -0.043,0.126 -0.064,0.247 -0.062,0.38 10e-4,0.135 -0.027,0.299 10e-4,0.432 0.041,0.19 0.223,0.381 0.383,0.485 0.112,0.073 0.235,0.112 0.367,0.127 0.051,0.006 0.102,-0.002 0.151,0.008 0.04,0.009 0.07,0.038 0.111,0.043 C -2.89,2.697 -2.821,2.66 -2.764,2.642 -2.687,2.618 -2.597,2.611 -2.525,2.57 -2.68,2.846 -2.982,3.144 -3.29,3.25 -3.45,3.305 -3.69,3.328 -3.855,3.307 -4.033,3.284 -4.2,3.148 -4.33,3.036 -4.954,2.499 -5.108,1.707 -5.108,0.915 c 0,-0.228 -0.023,-0.423 0.069,-0.634 0.108,-0.249 0.236,-0.422 0.434,-0.61 0.329,-0.312 0.804,-0.356 1.24,-0.375 0.253,-0.012 0.495,-0.045 0.75,-0.045 0.173,0.001 0.347,0 0.52,0 h 1.214"
             style="fill:#231f20;fill-opacity:1;fill-rule:nonzero;stroke:none"
             id="path1039" />
        </g>
        <g
           id="g1041"
           transform="translate(72.9614,157.5021)">
          <path
             d="M 0,0 C 0.653,0.129 1.321,0.154 1.984,0.135 2.726,0.115 3.456,-0.05 4.19,-0.14 5.329,-0.279 6.476,-0.88 7.058,-1.891 7.3,-2.312 7.384,-2.783 7.464,-3.256 7.547,-3.741 7.638,-4.24 7.664,-4.732 7.675,-4.931 7.644,-5.131 7.672,-5.33 7.71,-5.596 7.706,-5.854 7.706,-6.124 c 10e-4,-0.643 10e-4,-1.285 0,-1.928 0,-0.371 -0.044,-0.732 -0.044,-1.103 0.001,-0.368 0,-0.736 0,-1.104 0,-0.352 0.009,-0.705 0.001,-1.057 -0.006,-0.284 -0.051,-0.578 -0.091,-0.857 -0.02,-0.135 -0.083,-0.298 -0.128,-0.431 -0.045,-0.133 -0.098,-0.239 -0.178,-0.352 -0.077,-0.109 -0.118,-0.239 -0.197,-0.346 -0.07,-0.096 -0.214,-0.209 -0.312,-0.279 -0.242,-0.175 -0.614,-0.234 -0.899,-0.278 -0.405,-0.063 -0.78,-0.238 -1.194,-0.233 -0.286,0.003 -0.572,0 -0.859,0 -0.181,0 -0.362,0.006 -0.543,0.002 -0.195,-0.004 -0.383,-0.048 -0.578,-0.046 -0.117,10e-4 -0.236,0.005 -0.353,0.002 -0.135,-0.004 -0.258,-0.048 -0.394,-0.046 -0.246,0.003 -0.492,-0.007 -0.738,10e-4 0.044,0.009 0.126,-0.038 0.171,-0.055 0.161,-0.059 0.339,-0.067 0.505,-0.111 0.165,-0.043 0.318,-0.036 0.483,-0.065 0.208,-0.036 0.414,-0.081 0.626,-0.079 0.914,0.01 1.848,-0.071 2.75,0.1 0.459,0.087 0.92,0.088 1.36,0.256 0.194,0.073 0.377,0.091 0.558,0.204 0.22,0.137 0.498,0.288 0.661,0.496 0.226,0.29 0.507,0.619 0.616,0.977 0.139,0.452 0.186,0.934 0.186,1.402 10e-4,1.054 0,2.108 0,3.162 0,1.105 0.062,2.223 -0.088,3.318 C 8.949,-4 8.892,-3.452 8.686,-2.907 8.468,-2.33 8.392,-1.727 8.038,-1.211 7.872,-0.971 7.694,-0.742 7.528,-0.503 7.403,-0.324 7.277,-0.165 7.083,-0.054 6.585,0.232 6.033,0.338 5.482,0.466 4.955,0.588 4.436,0.777 3.889,0.795 3.26,0.815 2.599,0.827 1.971,0.789 1.428,0.757 0.867,0.64 0.354,0.455 0.222,0.407 0.104,0.345 -0.025,0.289 -0.162,0.23 -0.315,0.203 -0.447,0.133 -0.557,0.075 -0.659,-0.121 0,0"
             style="fill:#231f20;fill-opacity:1;fill-rule:nonzero;stroke:none"
             id="path1043" />
        </g>
        <g
           id="g1045"
           transform="translate(68.7032,136.8582)">
          <path
             d="M 0,0 C -0.653,-0.129 -1.321,-0.154 -1.984,-0.135 -2.726,-0.114 -3.456,0.05 -4.19,0.14 -5.329,0.279 -6.476,0.88 -7.058,1.891 -7.3,2.312 -7.384,2.783 -7.464,3.256 -7.547,3.741 -7.638,4.24 -7.665,4.732 c -0.01,0.199 0.021,0.399 -0.007,0.598 -0.038,0.266 -0.034,0.524 -0.034,0.794 -10e-4,0.643 -10e-4,1.286 0,1.928 0,0.371 0.044,0.732 0.043,1.103 0,0.368 0.001,0.736 0.001,1.104 0,0.352 -0.009,0.705 -0.001,1.057 0.006,0.284 0.051,0.578 0.091,0.857 0.02,0.135 0.082,0.298 0.127,0.431 0.046,0.133 0.099,0.239 0.179,0.352 0.077,0.109 0.118,0.239 0.196,0.346 0.07,0.096 0.215,0.209 0.312,0.28 0.243,0.174 0.615,0.234 0.9,0.277 0.405,0.063 0.78,0.238 1.194,0.233 0.286,-0.003 0.572,0 0.859,0 0.18,0 0.362,-0.006 0.543,-0.002 0.195,0.004 0.383,0.048 0.578,0.046 0.117,-10e-4 0.236,-0.005 0.353,-0.002 0.135,0.004 0.258,0.048 0.394,0.046 0.246,-0.003 0.492,0.007 0.738,-10e-4 -0.044,-0.009 -0.126,0.038 -0.171,0.055 -0.162,0.059 -0.339,0.067 -0.505,0.111 -0.166,0.043 -0.318,0.036 -0.483,0.065 -0.208,0.036 -0.414,0.081 -0.626,0.079 -0.914,-0.01 -1.848,0.071 -2.75,-0.1 -0.459,-0.087 -0.92,-0.088 -1.36,-0.256 -0.194,-0.073 -0.377,-0.091 -0.558,-0.203 -0.22,-0.138 -0.498,-0.289 -0.661,-0.497 -0.226,-0.29 -0.507,-0.619 -0.616,-0.977 -0.139,-0.452 -0.186,-0.934 -0.187,-1.402 -0.001,-1.054 0,-2.108 0,-3.162 0,-1.105 -0.062,-2.223 0.088,-3.318 0.079,-0.574 0.136,-1.122 0.342,-1.667 0.218,-0.577 0.294,-1.18 0.648,-1.696 0.165,-0.24 0.343,-0.469 0.51,-0.708 0.125,-0.179 0.251,-0.338 0.445,-0.449 0.498,-0.286 1.05,-0.391 1.601,-0.52 0.527,-0.122 1.046,-0.311 1.593,-0.329 0.629,-0.02 1.29,-0.032 1.918,0.006 0.543,0.032 1.104,0.149 1.617,0.334 0.132,0.048 0.25,0.11 0.379,0.166 0.137,0.059 0.29,0.086 0.422,0.156 C 0.557,-0.075 0.659,0.121 0,0"
             style="fill:#231f20;fill-opacity:1;fill-rule:nonzero;stroke:none"
             id="path1047" />
        </g>
      </g>
    </g>
  </g>
</svg>
