<?xml version="1.0" encoding="UTF-8" standalone="no"?>
<!-- Created with Inkscape (http://www.inkscape.org/) -->

<svg
   width="7.6586881"
   height="24"
   viewBox="0 0 2.0263612 6.35"
   version="1.1"
   id="svg7918"
   inkscape:version="1.2.1 (9c6d41e4, 2022-07-14)"
   sodipodi:docname="excelsior-management.svg"
   xmlns:inkscape="http://www.inkscape.org/namespaces/inkscape"
   xmlns:sodipodi="http://sodipodi.sourceforge.net/DTD/sodipodi-0.dtd"
   xmlns="http://www.w3.org/2000/svg"
   xmlns:svg="http://www.w3.org/2000/svg">
  <sodipodi:namedview
     id="namedview7920"
     pagecolor="#505050"
     bordercolor="#eeeeee"
     borderopacity="1"
     inkscape:showpageshadow="0"
     inkscape:pageopacity="0"
     inkscape:pagecheckerboard="0"
     inkscape:deskcolor="#505050"
     inkscape:document-units="mm"
     showgrid="false"
     inkscape:zoom="0.7046647"
     inkscape:cx="-42.573439"
     inkscape:cy="192.29003"
     inkscape:window-width="1390"
     inkscape:window-height="941"
     inkscape:window-x="0"
     inkscape:window-y="25"
     inkscape:window-maximized="0"
     inkscape:current-layer="layer1" />
  <defs
     id="defs7915">
    <clipPath
       clipPathUnits="userSpaceOnUse"
       id="clipPath1131">
      <path
         d="m 56.886,102.158 h 28.8 v 28.8 h -28.8 z"
         id="path1129" />
    </clipPath>
  </defs>
  <g
     inkscape:label="Layer 1"
     inkscape:groupmode="layer"
     id="layer1"
     transform="translate(-116.51021,-97.827528)">
    <g
       id="g1125"
       transform="matrix(0.25784953,0,0,-0.25784953,99.285656,130.93437)">
      <g
         id="g1127"
         clip-path="url(#clipPath1131)">
        <g
           id="g1133"
           transform="translate(73.2868,125.2382)">
          <path
             d="M 0,0 C -0.047,-0.146 -0.151,-0.26 -0.207,-0.403 -0.263,-0.545 -0.328,-0.668 -0.444,-0.774 -0.54,-0.862 -0.661,-0.907 -0.782,-0.945 -0.87,-0.973 -0.949,-1.037 -1.034,-1.061 -1.095,-1.078 -1.18,-1.07 -1.237,-1.069 c -0.138,0.002 -0.276,10e-4 -0.414,10e-4 -0.179,0 -0.386,-0.031 -0.556,0.032 -0.073,0.027 -0.164,0.052 -0.23,0.088 -0.082,0.045 -0.113,0.1 -0.217,0.102 -0.154,0.004 -0.26,-0.121 -0.396,-0.179 -0.204,-0.087 -0.438,-0.175 -0.657,-0.211 -0.513,-0.086 -1.171,-0.158 -1.505,0.341 -0.062,0.091 -0.06,0.283 -0.076,0.392 -0.018,0.13 -0.051,0.262 -0.055,0.393 -0.007,0.275 -0.133,0.574 -0.078,0.849 0.027,0.131 0.112,0.241 0.179,0.353 0.053,0.088 0.087,0.148 0.185,0.192 0.222,0.103 0.453,0.158 0.694,0.158 0.088,0 0.215,0.023 0.301,0.003 0.04,-0.01 0.043,-0.04 0.083,-0.049 0.062,-0.014 0.123,-0.015 0.188,-0.031 0.16,-0.041 0.312,-0.092 0.466,-0.154 0.063,-0.025 0.107,-0.081 0.182,-0.081 0.06,0 0.156,0.065 0.203,0.092 0.084,0.049 0.155,0.082 0.243,0.121 0.109,0.048 0.24,0.078 0.343,0.132 0.107,0.056 0.186,0.119 0.306,0.154 0.073,0.021 0.155,0.042 0.273,0.254 h 0.617 c 0.205,0 0.383,0.013 0.573,-0.078 C -0.504,1.767 -0.388,1.721 -0.329,1.651 -0.3,1.617 -0.267,1.529 -0.244,1.487 -0.133,1.283 -0.046,1.052 0.009,0.828 0.039,0.707 0.017,0.588 0.042,0.467 0.075,0.305 0.051,0.159 0,0 M 1.354,0.034 C 1.342,0.198 1.311,0.419 1.266,0.573 1.218,0.743 1.186,0.909 1.146,1.08 1.117,1.208 1.045,1.318 0.998,1.44 0.955,1.554 0.93,1.674 0.891,1.79 0.831,1.97 0.752,2.171 0.637,2.327 0.429,2.612 0.053,2.732 -0.26,2.862 -0.722,3.055 -1.245,2.98 -1.737,2.984 -1.985,2.987 -2.207,2.965 -2.442,2.883 -2.542,2.849 -2.633,2.832 -2.729,2.802 -2.779,2.787 -2.824,2.785 -2.831,2.719 -3.291,2.875 -3.564,3.058 -3.884,3.14 -4.09,3.193 -4.325,3.11 -4.541,3.116 -4.804,3.122 -4.992,3.032 -5.241,2.965 -5.491,2.898 -5.735,2.888 -5.954,2.739 -6.118,2.629 -6.181,2.41 -6.268,2.236 -6.372,2.028 -6.354,1.799 -6.409,1.579 -6.466,1.355 -6.485,1.161 -6.486,0.928 c -0.001,-0.354 0.049,-0.69 0.099,-1.04 0.062,-0.443 0.118,-0.891 0.314,-1.3 0.178,-0.369 0.439,-0.801 0.867,-0.9 0.15,-0.034 0.291,-0.057 0.444,-0.075 0.112,-0.013 0.125,-0.026 0.207,-0.078 0.153,-0.098 0.305,-0.201 0.319,-0.402 0.014,-0.205 -0.005,-0.42 -0.005,-0.626 0,-0.233 0.007,-0.419 0.086,-0.641 0.067,-0.185 0.112,-0.35 0.223,-0.514 0.068,-0.1 0.192,-0.18 0.247,-0.282 0.057,-0.104 0.017,-0.282 0.017,-0.4 v -0.372 c 0,-0.223 -0.01,-0.447 -0.002,-0.669 0.005,-0.148 0.033,-0.321 0.055,-0.47 0.033,-0.231 0.089,-0.458 0.113,-0.691 0.034,-0.328 0.054,-0.643 0.054,-0.973 0,-0.312 0.002,-0.624 -10e-4,-0.936 -0.002,-0.276 0.039,-0.547 0.047,-0.821 0.012,-0.367 0.026,-0.754 -0.012,-1.12 -0.013,-0.126 -0.033,-0.246 -0.035,-0.373 -0.002,-0.106 0.011,-0.209 -0.009,-0.315 -0.075,-0.405 -0.047,-0.822 -0.111,-1.229 -0.024,-0.148 -0.028,-0.303 -0.054,-0.451 -0.014,-0.079 -0.064,-0.162 -0.047,-0.245 0.013,-0.064 0.053,-0.096 0.101,-0.141 0.039,-0.036 0.132,-0.072 0.159,-0.108 0.029,-0.039 0.006,-0.147 0.007,-0.193 0,-0.102 -0.029,-0.181 -0.045,-0.28 -0.051,-0.31 -0.084,-0.625 -0.137,-0.934 -0.023,-0.133 -0.048,-0.27 -0.092,-0.398 -0.04,-0.118 -0.09,-0.207 -0.113,-0.334 -0.016,-0.083 -0.027,-0.148 -0.055,-0.23 -0.064,-0.186 -0.036,-0.381 -0.087,-0.572 -0.036,-0.134 -0.045,-0.253 -0.044,-0.39 0,-0.078 -0.002,-0.156 -10e-4,-0.234 10e-4,-0.109 0.037,-0.197 0.046,-0.301 0.014,-0.183 -0.104,-0.338 -0.165,-0.492 -0.083,-0.206 -0.063,-0.336 0.076,-0.521 0.079,-0.105 0.181,-0.158 0.279,-0.233 0.041,-0.031 0.057,-0.024 0.088,-0.074 0.046,-0.074 0.045,-0.187 0.073,-0.268 0.059,-0.173 0.073,-0.372 0.097,-0.556 0.05,-0.386 0.065,-0.748 0.408,-0.961 0.054,-0.033 0.112,-0.066 0.165,-0.099 0.04,-0.024 0.088,-0.038 0.125,-0.064 0.017,-0.012 0.039,-0.066 0.051,-0.071 0.116,-0.052 0.294,0.011 0.409,0.036 0.129,0.028 0.254,0.056 0.377,0.1 0.148,0.053 0.177,0.117 0.251,0.251 0.029,0.054 0.076,0.135 0.089,0.188 0.01,0.042 -0.002,0.083 0.007,0.124 0.005,0.019 0.035,0.042 0.037,0.052 0.027,0.132 -0.013,0.276 0.013,0.408 0.018,0.088 0.04,0.149 0.04,0.242 10e-4,0.084 -0.028,0.102 -0.046,0.174 -0.028,0.118 0.009,0.254 0.057,0.354 0.073,0.154 0.146,0.312 0.215,0.462 0.05,0.107 0.089,0.291 0.168,0.378 0.043,0.048 0.168,0.128 0.223,0.154 0.06,0.028 0.112,0.012 0.177,0.019 0.098,0.009 0.067,0.039 0.14,0.08 0.05,0.028 0.15,0.014 0.202,0.008 0.063,-0.177 0.143,-0.321 0.23,-0.486 0.037,-0.071 0.096,-0.183 0.164,-0.231 0.086,-0.06 0.321,-0.049 0.43,-0.033 0.096,0.015 0.2,0.036 0.298,0.055 0.079,0.015 0.24,0.054 0.301,0.111 0.073,0.069 0.057,0.327 0.036,0.431 -0.018,0.092 -0.041,0.143 -0.04,0.242 0,0.072 0,0.144 0,0.217 v 0.86 0.645 c 0,0.211 -0.007,0.41 0.034,0.616 0.017,0.084 0.017,0.175 0,0.258 -0.102,0.488 -0.153,1.012 -0.209,1.5 -0.008,0.07 -0.038,0.105 -0.047,0.174 -0.01,0.088 -0.01,0.136 -0.043,0.222 -0.039,0.103 -0.071,0.246 -0.164,0.321 -0.081,0.065 -0.279,0.035 -0.385,0.031 -0.095,-0.003 -0.201,-0.016 -0.292,-0.046 -0.086,-0.027 -0.081,0.01 -0.084,-0.108 -0.002,-0.097 -0.02,-0.116 -0.044,-0.195 -0.017,-0.053 0.024,-0.137 -0.052,-0.162 -0.012,-0.004 -0.079,0.025 -0.098,0.028 -0.052,0.008 -0.125,-0.002 -0.177,-0.002 h -0.301 c -0.244,0 -0.743,-0.094 -0.736,0.265 0.006,0.315 0,0.631 0,0.947 0,0.124 0.007,0.251 0.001,0.375 -0.005,0.104 -0.042,0.198 -0.048,0.302 -0.022,0.414 0.003,0.836 0.003,1.25 0,0.688 -0.045,1.371 -0.044,2.058 0,0.416 0,0.832 0,1.249 v 1.302 0.735 c 0,0.172 -0.025,0.373 -0.001,0.547 0.03,0.225 0.22,0.381 0.33,0.595 0.189,0.37 0.113,0.817 0.044,1.21 -0.03,0.176 -0.042,0.388 -0.024,0.568 0.01,0.103 0.083,0.128 0.178,0.169 0.217,0.095 0.434,0.18 0.653,0.266 0.235,0.091 0.483,0.139 0.715,0.239 0.062,0.027 0.117,0.073 0.174,0.101 0.055,0.026 0.126,0.036 0.179,0.075 0.061,0.044 0.11,0.108 0.175,0.155 0.061,0.044 0.092,0.078 0.137,0.137 0.072,0.095 0.153,0.18 0.216,0.281 0.066,0.107 0.094,0.226 0.152,0.336 0.119,0.223 0.087,0.592 0.068,0.843"
             style="fill:#231f20;fill-opacity:1;fill-rule:nonzero;stroke:none"
             id="path1135" />
        </g>
      </g>
    </g>
  </g>
</svg>
