<?xml version="1.0" encoding="UTF-8" standalone="no"?>
<!-- Created with Inkscape (http://www.inkscape.org/) -->

<svg
   width="24.256989"
   height="24"
   viewBox="0 0 6.4179949 6.35"
   version="1.1"
   id="svg7364"
   inkscape:version="1.2.1 (9c6d41e4, 2022-07-14)"
   sodipodi:docname="murder-at-the-excelsior-hotel.svg"
   xmlns:inkscape="http://www.inkscape.org/namespaces/inkscape"
   xmlns:sodipodi="http://sodipodi.sourceforge.net/DTD/sodipodi-0.dtd"
   xmlns="http://www.w3.org/2000/svg"
   xmlns:svg="http://www.w3.org/2000/svg">
  <sodipodi:namedview
     id="namedview7366"
     pagecolor="#505050"
     bordercolor="#eeeeee"
     borderopacity="1"
     inkscape:showpageshadow="0"
     inkscape:pageopacity="0"
     inkscape:pagecheckerboard="0"
     inkscape:deskcolor="#505050"
     inkscape:document-units="mm"
     showgrid="false"
     inkscape:zoom="0.7046647"
     inkscape:cx="17.029376"
     inkscape:cy="267.50311"
     inkscape:window-width="1390"
     inkscape:window-height="941"
     inkscape:window-x="0"
     inkscape:window-y="25"
     inkscape:window-maximized="0"
     inkscape:current-layer="layer1" />
  <defs
     id="defs7361">
    <clipPath
       clipPathUnits="userSpaceOnUse"
       id="clipPath963">
      <path
         d="m 56.886,196.515 h 28.8 v 28.8 h -28.8 z"
         id="path961" />
    </clipPath>
  </defs>
  <g
     inkscape:label="Layer 1"
     inkscape:groupmode="layer"
     id="layer1"
     transform="translate(-100.79732,-77.927408)">
    <g
       id="g957"
       transform="matrix(0.25031238,0,0,-0.25031238,86.162486,133.89704)">
      <g
         id="g959"
         clip-path="url(#clipPath963)">
        <g
           id="g965"
           transform="translate(77.8094,203.5306)">
          <path
             d="m 0,0 c -0.055,0.033 -0.056,0.137 -0.074,0.186 -0.05,0.137 -0.119,0.265 -0.184,0.396 -0.032,0.067 -0.063,0.134 -0.103,0.197 -0.039,0.06 -0.091,0.113 -0.135,0.17 -0.058,0.073 -0.108,0.144 -0.176,0.207 -0.051,0.048 -0.102,0.094 -0.16,0.133 -0.053,0.037 -0.115,0.06 -0.172,0.093 -0.137,0.079 -0.25,0.175 -0.347,0.296 -0.042,0.053 -0.082,0.114 -0.132,0.161 -0.038,0.035 -0.073,0.07 -0.109,0.107 -0.054,0.057 -0.093,0.121 -0.148,0.177 -0.097,0.098 -0.107,0.259 -0.082,0.386 0.024,0.12 0.09,0.192 0.177,0.28 0.131,0.132 0.249,0.274 0.384,0.403 0.102,0.098 0.242,0.144 0.373,0.199 0.025,0.011 0.074,0.03 0.094,0.05 0.026,0.026 0.016,0.061 0.017,0.094 0.003,0.213 -0.1,0.378 -0.235,0.544 -0.033,0.04 -0.072,0.076 -0.106,0.117 -0.021,0.025 -0.038,0.06 -0.067,0.079 -0.032,0.021 -0.072,0.03 -0.111,0.032 C -1.356,4.311 -1.404,4.289 -1.461,4.276 -1.537,4.259 -1.564,4.219 -1.627,4.175 -1.675,4.141 -1.724,4.107 -1.757,4.06 -1.817,3.974 -1.865,3.877 -1.917,3.787 -1.959,3.714 -2.017,3.65 -2.11,3.644 -2.219,3.638 -2.321,3.685 -2.424,3.712 -2.547,3.745 -2.687,3.775 -2.775,3.865 -2.819,3.91 -2.867,3.947 -2.915,3.988 -2.964,4.031 -3.01,4.077 -3.063,4.115 c -0.128,0.092 -0.225,0.204 -0.321,0.324 -0.078,0.099 -0.147,0.203 -0.228,0.3 -0.15,0.18 -0.277,0.376 -0.437,0.548 -0.072,0.077 -0.147,0.149 -0.216,0.229 -0.066,0.078 -0.125,0.161 -0.192,0.238 -0.123,0.141 -0.257,0.274 -0.385,0.41 -0.118,0.127 -0.228,0.26 -0.346,0.387 -0.185,0.197 -0.337,0.414 -0.507,0.622 -0.347,0.428 -0.7,0.848 -1.078,1.252 -0.109,0.116 -0.201,0.237 -0.298,0.363 -0.06,0.078 -0.128,0.154 -0.183,0.236 -0.067,0.101 -0.132,0.202 -0.204,0.301 -0.045,0.061 -0.1,0.106 -0.142,0.172 -0.059,0.091 -0.126,0.175 -0.2,0.256 -0.177,0.193 -0.302,0.413 -0.436,0.633 -0.067,0.111 -0.143,0.216 -0.208,0.328 -0.013,0.022 -0.064,0.154 -0.105,0.156 -0.018,0.001 -0.057,-0.029 -0.072,-0.039 -0.073,-0.05 -0.125,-0.135 -0.181,-0.201 -0.021,-0.025 -0.043,-0.052 -0.076,-0.065 -0.082,-0.031 -0.162,0.029 -0.232,0.055 -0.136,0.048 -0.262,0.129 -0.339,0.246 -0.12,0.183 -0.164,0.37 -0.191,0.581 -0.015,0.113 -0.03,0.221 -0.03,0.334 -10e-4,0.055 0.009,0.07 0.031,0.12 0.024,0.055 0.047,0.11 0.077,0.163 0.04,0.07 0.033,0.069 0.002,0.142 -0.218,0.5 -0.465,0.988 -0.68,1.49 -0.117,0.272 -0.251,0.538 -0.371,0.81 -0.043,0.099 -0.093,0.194 -0.142,0.29 -0.053,0.103 -0.086,0.205 -0.132,0.31 -0.137,0.316 -0.356,0.593 -0.539,0.885 -0.09,0.142 -0.169,0.292 -0.25,0.439 -0.036,0.065 -0.069,0.132 -0.105,0.197 -0.029,0.052 -0.09,0.112 -0.099,0.17 0.012,-0.081 0.002,-0.17 0.002,-0.251 0,-0.213 -0.007,-0.426 -0.001,-0.639 0.004,-0.135 0.019,-0.267 0.019,-0.403 0,-0.113 0.001,-0.227 0,-0.341 0,-0.236 0.029,-0.473 0.068,-0.706 0.032,-0.19 0.015,-0.377 0.022,-0.569 0.004,-0.138 0.019,-0.278 0.032,-0.415 0.017,-0.187 0.052,-0.37 0.073,-0.556 0.016,-0.142 0.047,-0.281 0.063,-0.423 0.017,-0.148 0.03,-0.298 0.053,-0.446 0.014,-0.089 0.038,-0.177 0.052,-0.266 0.015,-0.094 0.018,-0.188 0.038,-0.282 0.034,-0.154 0.066,-0.31 0.105,-0.464 0.019,-0.073 0.032,-0.148 0.054,-0.22 0.02,-0.07 0.053,-0.134 0.074,-0.203 0.037,-0.125 0.06,-0.243 0.125,-0.359 0.058,-0.103 0.081,-0.215 0.142,-0.317 0.059,-0.099 0.131,-0.192 0.193,-0.29 0.036,-0.057 0.059,-0.116 0.102,-0.17 0.032,-0.039 0.063,-0.075 0.091,-0.115 0.058,-0.083 0.102,-0.173 0.159,-0.256 0.063,-0.09 0.141,-0.169 0.201,-0.261 0.057,-0.088 0.093,-0.183 0.16,-0.266 0.039,-0.049 0.082,-0.093 0.118,-0.143 0.045,-0.06 0.074,-0.129 0.125,-0.185 0.037,-0.039 0.08,-0.073 0.116,-0.113 0.049,-0.054 0.086,-0.115 0.133,-0.169 0.11,-0.127 0.232,-0.247 0.336,-0.378 0.048,-0.06 0.096,-0.112 0.148,-0.168 0.06,-0.065 0.11,-0.138 0.176,-0.198 0.114,-0.103 0.232,-0.198 0.34,-0.307 0.132,-0.133 0.262,-0.265 0.406,-0.387 0.134,-0.113 0.273,-0.218 0.416,-0.321 0.129,-0.093 0.251,-0.193 0.38,-0.285 0.172,-0.123 0.344,-0.245 0.504,-0.382 0.079,-0.068 0.15,-0.139 0.237,-0.199 0.058,-0.04 0.112,-0.075 0.164,-0.122 0.072,-0.064 0.137,-0.128 0.215,-0.187 0.117,-0.088 0.234,-0.175 0.346,-0.268 0.138,-0.113 0.271,-0.232 0.41,-0.344 0.17,-0.136 0.343,-0.267 0.503,-0.415 0.1,-0.093 0.198,-0.191 0.302,-0.28 0.086,-0.073 0.178,-0.139 0.258,-0.219 0.105,-0.107 0.231,-0.19 0.348,-0.285 0.053,-0.043 0.135,-0.1 0.148,-0.172 C -3.912,2.996 -3.964,2.94 -3.998,2.899 -4.068,2.815 -4.16,2.73 -4.245,2.66 -4.296,2.617 -4.346,2.591 -4.37,2.531 -4.398,2.457 -4.426,2.376 -4.464,2.306 -4.501,2.24 -4.525,2.171 -4.554,2.102 -4.596,2.006 -4.652,1.924 -4.682,1.823 -4.707,1.738 -4.751,1.653 -4.769,1.566 -4.78,1.512 -4.766,1.459 -4.754,1.406 -4.728,1.3 -4.648,1.281 -4.541,1.259 -4.426,1.235 -4.313,1.19 -4.2,1.157 -4.14,1.14 -4.087,1.136 -4.026,1.136 c 0.123,0.001 0.246,-0.004 0.369,-10e-4 0.102,0.002 0.208,0.003 0.255,0.095 0.028,0.056 0.054,0.113 0.077,0.17 0.026,0.063 0.032,0.124 0.051,0.188 0.013,0.044 0.036,0.082 0.053,0.124 0.013,0.03 0.018,0.06 0.039,0.086 0.042,0.053 0.137,0.058 0.2,0.065 0.037,0.005 0.09,0.019 0.125,0.016 0.035,-0.002 0.018,-0.006 0.04,-0.024 0.081,-0.065 0.117,-0.201 0.164,-0.291 0.055,-0.106 0.125,-0.208 0.146,-0.327 0.014,-0.08 0.042,-0.146 0.063,-0.224 0.084,-0.311 0.272,-0.594 0.491,-0.84 0.21,-0.234 0.408,-0.481 0.593,-0.732 0.017,-0.023 0.026,-0.044 0.039,-0.068 0.029,-0.05 0.075,-0.083 0.113,-0.126 0.072,-0.082 0.158,-0.147 0.232,-0.226 0.035,-0.037 0.074,-0.071 0.108,-0.11 0.054,-0.061 0.107,-0.101 0.175,-0.148 0.142,-0.099 0.304,-0.152 0.462,-0.225 0.154,-0.071 0.319,-0.139 0.491,-0.163 0.122,-0.017 0.203,0.036 0.265,0.133 0.061,0.095 0.112,0.204 0.146,0.31 0.018,0.058 0.017,0.119 0.033,0.178 0.016,0.057 0.04,0.113 0.056,0.17 0.036,0.125 0.051,0.256 0.019,0.383 C 0.765,-0.397 0.752,-0.341 0.732,-0.29 0.699,-0.206 0.637,-0.14 0.591,-0.063 0.522,0.053 0.435,0.151 0.36,0.262 0.303,0.348 0.234,0.406 0.152,0.472 0.09,0.521 0.048,0.583 -0.014,0.628 -0.055,0.658 -0.106,0.679 -0.145,0.712"
             style="fill:#000000;fill-opacity:1;fill-rule:nonzero;stroke:none"
             id="path967" />
        </g>
        <g
           id="g969"
           transform="translate(65.8216,217.2407)">
          <path
             d="m 0,0 c 0,-0.059 -0.003,-0.119 -0.001,-0.178 0.003,-0.078 0.031,-0.147 0.035,-0.225 0.007,-0.158 0.017,-0.325 -0.042,-0.473 -0.05,-0.125 -0.105,-0.239 -0.166,-0.358 -0.035,-0.068 -0.061,-0.143 -0.099,-0.217 -0.051,-0.1 -0.058,-0.173 -0.058,-0.287 0,-0.171 -0.008,-0.325 0.042,-0.49 0.049,-0.16 0.109,-0.32 0.19,-0.468 0.059,-0.109 0.07,-0.229 0.106,-0.344 C 0.045,-3.16 0.081,-3.278 0.116,-3.399 0.142,-3.49 0.165,-3.568 0.165,-3.663 0.166,-3.756 0.2,-3.835 0.199,-3.928 0.196,-4.21 0.222,-4.488 0.098,-4.748 0.033,-4.885 -0.047,-5.087 -0.199,-5.161 c -0.128,-0.063 -0.312,-0.016 -0.43,0.039 -0.105,0.049 -0.17,0.165 -0.243,0.252 -0.081,0.097 -0.097,0.193 -0.129,0.309 -0.033,0.113 -0.018,0.218 -0.023,0.333 -0.003,0.067 -0.037,0.135 -0.029,0.201 0.009,0.067 0.019,0.144 0.034,0.21 0.06,0.263 0.156,0.508 0.192,0.778 0.037,0.285 0.032,0.566 0.033,0.854 0,0.137 -0.011,0.258 -0.042,0.392 -0.033,0.145 -0.023,0.289 -0.024,0.435 -0.001,0.114 0.002,0.195 0.065,0.295 0.048,0.076 0.094,0.152 0.15,0.224 0.19,0.246 0.346,0.548 0.405,0.845 0.049,0.253 0.073,0.504 0.075,0.76 C -0.174,0.718 -0.154,0.689 -0.141,0.644 -0.114,0.545 -0.114,0.44 -0.094,0.34 -0.072,0.237 -0.02,0.162 0.019,0.066 0.044,0.007 0.045,-0.079 0,0"
             style="fill:#000000;fill-opacity:1;fill-rule:nonzero;stroke:none"
             id="path971" />
        </g>
        <g
           id="g973"
           transform="translate(70.8053,216.355)">
          <path
             d="m 0,0 c -0.013,-0.01 -0.072,-0.016 -0.09,-0.02 -0.081,-0.014 -0.16,-0.014 -0.241,-0.03 -0.071,-0.013 -0.134,-0.054 -0.204,-0.072 -0.065,-0.016 -0.133,-0.025 -0.199,-0.034 -0.111,-0.016 -0.218,-0.03 -0.326,-0.061 -0.061,-0.017 -0.121,-0.035 -0.182,-0.051 -0.014,-0.004 -0.054,-0.008 -0.065,-0.02 -0.022,-0.027 -0.012,-0.098 -0.009,-0.135 0.013,-0.137 0.082,-0.262 0.12,-0.393 0.026,-0.092 0.054,-0.184 0.077,-0.277 0.016,-0.061 0.023,-0.129 0.049,-0.187 0.056,-0.009 0.106,0.026 0.153,0.04 0.074,0.021 0.137,0.053 0.214,0.076 0.118,0.035 0.228,0.053 0.35,0.06 0.107,0.007 0.21,0.047 0.317,0.046 0.099,-0.002 0.198,-10e-4 0.298,-10e-4 0.086,0 0.162,-0.014 0.246,-0.022 0.147,-0.013 0.28,-0.059 0.424,-0.084 0.18,-0.03 0.374,-0.056 0.556,-0.068 0.282,-0.018 0.579,-0.072 0.843,-0.178 0.266,-0.107 0.508,-0.241 0.747,-0.395 0.217,-0.139 0.407,-0.296 0.597,-0.47 0.104,-0.095 0.204,-0.208 0.292,-0.318 0.04,-0.05 0.059,-0.103 0.092,-0.156 0.021,-0.025 0.04,-0.051 0.057,-0.078 0.003,-0.019 0.009,-0.036 0.02,-0.051 0.108,0.081 0.248,0.133 0.371,0.196 0.056,0.029 0.105,0.06 0.164,0.084 0.044,0.018 0.105,0.033 0.141,0.063 0.045,0.039 0.034,0.049 0.012,0.103 -0.045,0.112 -0.092,0.221 -0.148,0.328 -0.112,0.217 -0.273,0.409 -0.424,0.6 -0.141,0.179 -0.329,0.31 -0.496,0.462 C 3.677,-0.97 3.595,-0.927 3.511,-0.863 3.389,-0.77 3.267,-0.695 3.13,-0.624 2.972,-0.542 2.812,-0.495 2.644,-0.438 2.481,-0.382 2.327,-0.313 2.16,-0.268 1.937,-0.208 1.721,-0.125 1.495,-0.073 1.346,-0.039 1.203,-0.006 1.06,0.047 1.062,0.081 1.051,0.099 1.043,0.13 1.035,0.16 1.038,0.189 1.033,0.22 1.024,0.27 1.009,0.322 0.999,0.369 0.984,0.434 0.999,0.501 0.995,0.567 0.988,0.664 0.952,0.757 0.949,0.856 0.945,1 0.95,1.145 0.95,1.289 0.95,1.46 0.947,1.628 0.967,1.798 0.985,1.952 0.971,2.108 0.998,2.262 1.004,2.296 1.022,2.396 1.058,2.416 1.09,2.434 1.138,2.402 1.171,2.396 1.272,2.378 1.376,2.354 1.479,2.336 1.549,2.325 1.614,2.309 1.681,2.287 1.752,2.263 1.826,2.26 1.897,2.238 2.029,2.196 2.162,2.163 2.297,2.128 2.463,2.087 2.613,2.009 2.784,1.983 2.891,1.967 2.975,1.948 3.071,1.895 3.144,1.855 3.223,1.832 3.301,1.803 3.437,1.751 3.553,1.695 3.7,1.675 3.76,1.667 3.866,1.652 3.925,1.67 3.97,1.684 3.963,1.675 3.982,1.73 4.031,1.872 4.048,2.024 4.097,2.167 4.126,2.251 4.155,2.338 4.186,2.422 4.202,2.464 4.228,2.503 4.234,2.547 4.24,2.548 4.246,2.55 4.252,2.551 4.226,2.692 4.017,2.704 3.844,2.771 3.79,2.791 3.741,2.819 3.687,2.837 3.59,2.87 3.486,2.888 3.391,2.924 3.319,2.951 3.258,2.999 3.185,3.025 3.109,3.052 3.03,3.073 2.954,3.1 2.757,3.17 2.585,3.279 2.383,3.333 2.195,3.383 2.021,3.453 1.828,3.481 1.685,3.501 1.551,3.521 1.406,3.52 1.295,3.519 1.184,3.519 1.072,3.519 0.817,3.519 0.568,3.517 0.315,3.481 -0.04,3.43 -0.395,3.398 -0.747,3.326 -0.92,3.291 -1.095,3.281 -1.264,3.228 -1.424,3.177 -1.585,3.13 -1.748,3.092 -1.947,3.046 -2.137,2.991 -2.323,2.904 -2.496,2.823 -2.706,2.769 -2.858,2.648 -2.938,2.584 -2.897,2.529 -2.847,2.463 c 0.056,-0.075 0.114,-0.149 0.176,-0.22 0.069,-0.079 0.136,-0.164 0.211,-0.238 0.036,-0.036 0.056,-0.095 0.102,-0.12 0.06,-0.033 0.166,0.017 0.227,0.05 0.04,0.021 0.077,0.035 0.12,0.049 0.056,0.017 0.095,0.047 0.146,0.07 0.089,0.04 0.172,0.092 0.261,0.132 0.076,0.033 0.16,0.052 0.239,0.078 0.106,0.036 0.222,0.073 0.334,0.087 0.071,0.009 0.146,0.002 0.217,0.002 0.192,0 0.384,0.002 0.576,0 0.059,-0.001 0.113,-0.01 0.171,-0.017 C -0.035,2.333 0.025,2.343 0.045,2.312 0.071,2.27 0.047,2.147 0.047,2.099 V 1.608 c 0,-0.136 0,-0.272 0.001,-0.408 C 0.049,1.018 0.025,0.839 0.025,0.657 0.026,0.476 0.036,0.291 0.026,0.111 0.025,0.085 0.024,0.018 0,0"
             style="fill:#000000;fill-opacity:1;fill-rule:nonzero;stroke:none"
             id="path975" />
        </g>
        <g
           id="g977"
           transform="translate(82.6372,216.4393)">
          <path
             d="M 0,0 C 0.036,0.028 0.073,0.055 0.102,0.089 0.029,0.037 0.004,0.014 0,0"
             style="fill:#000000;fill-opacity:1;fill-rule:nonzero;stroke:none"
             id="path979" />
        </g>
        <g
           id="g981"
           transform="translate(84.0827,210.4123)">
          <path
             d="m 0,0 c -0.016,0.2 -0.059,0.399 -0.066,0.6 -0.008,0.217 -0.001,0.437 -0.001,0.655 0,0.139 -0.008,0.279 0.005,0.418 0.011,0.12 0.023,0.233 0.013,0.354 -0.011,0.147 -0.029,0.295 -0.06,0.439 -0.046,0.215 -0.13,0.413 -0.207,0.617 -0.077,0.203 -0.158,0.403 -0.241,0.603 -0.111,0.266 -0.188,0.537 -0.244,0.818 -0.041,0.203 -0.113,0.395 -0.168,0.594 -0.065,0.24 -0.159,0.462 -0.295,0.673 -0.029,0.045 -0.062,0.08 -0.091,0.126 C -1.38,5.935 -1.401,5.975 -1.434,6.005 -1.442,6.012 -1.448,6.018 -1.446,6.027 -1.459,6.017 -1.472,6.007 -1.485,5.995 -1.561,5.925 -1.628,5.848 -1.715,5.789 -1.799,5.733 -1.875,5.668 -1.96,5.615 -2.017,5.579 -2.042,5.551 -2.093,5.504 -2.104,5.494 -2.125,5.487 -2.132,5.474 -2.154,5.434 -2.104,5.338 -2.093,5.298 -2.038,5.108 -1.942,4.935 -1.894,4.742 -1.854,4.579 -1.8,4.418 -1.735,4.263 -1.666,4.099 -1.643,3.929 -1.585,3.761 -1.562,3.694 -1.545,3.628 -1.531,3.559 -1.52,3.505 -1.494,3.462 -1.48,3.41 -1.463,3.35 -1.467,3.296 -1.443,3.236 -1.416,3.167 -1.408,3.101 -1.389,3.03 -1.343,2.851 -1.255,2.682 -1.211,2.503 -1.175,2.355 -1.143,2.201 -1.117,2.05 -1.104,1.973 -1.092,1.898 -1.072,1.822 -1.045,1.72 -1.006,1.621 -0.981,1.518 -0.954,1.408 -0.91,1.304 -0.879,1.196 -0.856,1.113 -0.853,1.027 -0.843,0.942 -0.821,0.745 -0.752,0.56 -0.748,0.358 -0.745,0.118 -0.834,-0.11 -0.882,-0.342 -0.938,-0.615 -0.98,-0.888 -1.044,-1.158 -1.085,-1.33 -1.078,-1.504 -1.124,-1.676 -1.18,-1.892 -1.2,-2.117 -1.242,-2.336 -1.278,-2.526 -1.324,-2.718 -1.341,-2.912 -1.354,-3.062 -1.378,-3.21 -1.409,-3.357 -1.462,-3.61 -1.551,-3.853 -1.64,-4.094 -1.667,-4.167 -1.711,-4.229 -1.741,-4.301 -1.77,-4.367 -1.792,-4.439 -1.817,-4.507 -1.868,-4.648 -1.945,-4.777 -2.012,-4.912 -2.068,-5.025 -2.149,-5.114 -2.213,-5.221 -2.285,-5.342 -2.354,-5.46 -2.439,-5.572 -2.583,-5.762 -2.687,-5.979 -2.823,-6.176 -2.895,-6.28 -2.963,-6.388 -3.041,-6.488 -3.125,-6.595 -3.189,-6.706 -3.258,-6.821 -3.324,-6.932 -3.415,-7.022 -3.49,-7.125 -3.593,-7.269 -3.693,-7.406 -3.819,-7.531 -3.922,-7.633 -4.011,-7.742 -4.107,-7.85 c -0.089,-0.1 -0.223,-0.201 -0.33,-0.282 -0.082,-0.063 -0.169,-0.122 -0.254,-0.182 -0.052,-0.036 -0.108,-0.069 -0.157,-0.108 -0.07,-0.055 -0.146,-0.091 -0.217,-0.143 -0.102,-0.076 -0.19,-0.156 -0.286,-0.24 -0.153,-0.134 -0.328,-0.248 -0.489,-0.372 -0.242,-0.186 -0.487,-0.378 -0.747,-0.537 -0.072,-0.044 -0.136,-0.097 -0.207,-0.139 -0.072,-0.042 -0.134,-0.101 -0.207,-0.14 -0.05,-0.026 -0.105,-0.04 -0.154,-0.068 -0.062,-0.035 -0.109,-0.073 -0.175,-0.1 -0.132,-0.054 -0.241,-0.14 -0.376,-0.188 -0.14,-0.05 -0.279,-0.109 -0.421,-0.154 -0.082,-0.026 -0.166,-0.033 -0.247,-0.056 -0.076,-0.021 -0.146,-0.056 -0.224,-0.071 -0.062,-0.012 -0.124,-0.02 -0.185,-0.04 -0.065,-0.021 -0.136,-0.027 -0.199,-0.052 -0.134,-0.052 -0.281,-0.06 -0.415,-0.11 -0.052,-0.019 -0.093,-0.043 -0.148,-0.056 -0.058,-0.013 -0.116,-0.024 -0.172,-0.043 -0.092,-0.033 -0.18,-0.041 -0.275,-0.059 -0.083,-0.016 -0.157,-0.052 -0.242,-0.061 -0.068,-0.007 -0.132,-0.021 -0.2,-0.034 -0.261,-0.052 -0.516,-0.127 -0.771,-0.199 -0.072,-0.02 -0.145,-0.022 -0.216,-0.038 -0.078,-0.017 -0.152,-0.047 -0.233,-0.059 -0.105,-0.016 -0.07,0.052 -0.084,0.129 -0.025,0.137 -0.039,0.27 -0.039,0.409 -0.001,0.15 0.015,0.3 0.021,0.45 0.002,0.074 0.023,0.146 0.024,0.22 10e-4,0.102 0.012,0.201 0.019,0.303 0.005,0.083 0.005,0.165 0.018,0.248 0.01,0.067 0.025,0.136 0.029,0.204 0.005,0.095 -10e-4,0.193 -10e-4,0.289 10e-4,0.189 -0.028,0.368 -0.056,0.554 -0.014,0.097 -0.002,0.192 -0.03,0.286 -0.008,0.029 -0.015,0.048 -0.009,0.076 0.008,0.035 0.019,0.03 0.037,0.056 0.006,0.008 0.014,0.021 0.022,0.035 0.013,10e-4 0.026,-10e-4 0.04,0 0.1,0.012 0.201,0.034 0.301,0.048 0.082,0.011 0.164,0.011 0.246,0.019 0.088,0.01 0.175,0.039 0.262,0.051 0.082,0.012 0.163,0.023 0.244,0.032 0.092,0.011 0.171,0.044 0.259,0.067 0.11,0.028 0.221,0.054 0.331,0.083 0.22,0.056 0.46,0.096 0.642,0.242 0.058,0.046 0.108,0.103 0.158,0.157 0.037,0.041 0.042,0.024 0.026,0.067 -0.018,0.049 -0.06,0.09 -0.085,0.135 -0.032,0.057 -0.051,0.119 -0.081,0.177 -0.044,0.082 -0.076,0.151 -0.11,0.238 -0.029,0.076 -0.066,0.151 -0.103,0.222 -0.03,0.058 -0.057,0.047 -0.113,0.027 -0.079,-0.028 -0.153,-0.068 -0.23,-0.105 -0.04,-0.02 -0.069,-0.026 -0.113,-0.034 -0.064,-0.011 -0.124,-0.042 -0.185,-0.064 -0.129,-0.048 -0.26,-0.07 -0.392,-0.11 -0.146,-0.045 -0.298,-0.083 -0.449,-0.106 -0.101,-0.016 -0.206,-0.019 -0.308,-0.031 -0.143,-0.017 -0.284,-0.05 -0.427,-0.072 -0.065,-0.011 -0.13,-0.021 -0.195,-0.033 -0.518,0.022 -1.038,-0.018 -1.556,-0.002 -0.143,0.005 -0.293,0.034 -0.435,0.056 -0.067,0.011 -0.133,0.031 -0.2,0.035 -0.081,0.004 -0.162,-0.007 -0.243,0.003 -0.281,0.036 -0.562,0.081 -0.807,0.232 -0.127,0.078 -0.263,0.143 -0.393,0.215 -0.07,0.039 -0.134,0.086 -0.205,0.124 -0.11,0.06 -0.203,0.145 -0.313,0.203 -0.11,0.057 -0.211,0.124 -0.326,0.17 -0.166,0.066 -0.336,0.118 -0.505,0.175 -0.214,0.071 -0.456,0.093 -0.643,0.236 0.01,0.07 0.047,0.14 0.089,0.205 0.015,0.021 0.031,0.042 0.045,0.064 0.053,0.079 0.121,0.144 0.182,0.217 0.025,0.029 0.048,0.059 0.072,0.088 0.073,0.067 0.142,0.136 0.211,0.206 0.083,0.083 0.174,0.156 0.257,0.237 0.127,0.126 0.218,0.279 0.325,0.422 0.023,0.03 0.047,0.059 0.072,0.088 0.027,0.031 0.056,0.062 0.084,0.093 0.069,0.079 0.124,0.168 0.202,0.238 0.037,0.034 0.069,0.065 0.1,0.105 0.011,0.013 0.023,0.025 0.034,0.037 0.015,-0.019 0.029,-0.039 0.045,-0.057 0.088,-0.098 0.204,-0.181 0.304,-0.267 0.092,-0.079 0.19,-0.149 0.29,-0.218 0.109,-0.075 0.212,-0.162 0.324,-0.232 0.106,-0.067 0.223,-0.123 0.335,-0.181 0.156,-0.082 0.343,-0.121 0.517,-0.146 0.136,-0.019 0.268,-0.006 0.405,-0.013 0.036,-0.002 0.075,-0.002 0.109,-0.016 0.083,0.106 0.116,0.255 0.184,0.37 0.058,0.1 0.126,0.193 0.171,0.3 0.014,0.031 0.047,0.098 0.044,0.135 -0.129,0.012 -0.26,0.073 -0.385,0.103 -0.195,0.048 -0.369,0.124 -0.554,0.202 -0.122,0.052 -0.24,0.109 -0.354,0.176 -0.11,0.065 -0.202,0.151 -0.309,0.219 -0.131,0.085 -0.253,0.179 -0.378,0.273 -0.063,0.048 -0.13,0.088 -0.195,0.13 -0.016,0.023 -0.031,0.045 -0.045,0.062 -0.024,0.03 -0.051,0.058 -0.077,0.087 0.004,0.015 0.008,0.03 0.01,0.05 -0.044,0.042 -0.079,0.092 -0.123,0.135 -0.047,0.039 -0.095,0.077 -0.142,0.115 -0.044,0.049 -0.084,0.101 -0.12,0.157 -0.126,0.168 -0.277,0.315 -0.409,0.479 -0.061,0.076 -0.099,0.156 -0.151,0.237 -0.04,0.061 -0.093,0.111 -0.129,0.175 -0.067,0.119 -0.131,0.243 -0.192,0.365 -0.035,0.068 -0.046,0.146 -0.071,0.219 -0.035,0.1 -0.071,0.201 -0.095,0.305 -0.053,0.233 -0.036,0.476 -0.06,0.712 -0.018,0.172 -0.005,0.351 -0.005,0.524 0,0.123 0.018,0.261 0,0.382 -0.081,0.038 -0.18,0.048 -0.266,0.073 -0.084,0.03 -0.17,0.055 -0.258,0.075 -0.046,0.005 -0.091,0.016 -0.135,0.031 -0.025,0.014 -0.049,0.027 -0.074,0.041 -0.02,0.005 -0.041,0.005 -0.061,0.002 -0.027,0.008 -0.032,0.031 -0.065,0.025 -0.045,-0.009 -0.106,-0.101 -0.127,-0.131 -0.045,-0.069 -0.056,-0.152 -0.092,-0.224 -0.034,-0.068 -0.059,-0.127 -0.072,-0.202 -0.028,-0.155 -0.036,-0.291 -0.039,-0.449 -0.001,-0.083 0.027,-0.143 0.04,-0.223 0.003,-0.038 0.005,-0.075 0.007,-0.113 0.017,-0.051 0.036,-0.102 0.059,-0.151 0.055,-0.168 0.092,-0.341 0.153,-0.507 0.031,-0.083 0.039,-0.169 0.069,-0.251 0.04,-0.108 0.092,-0.212 0.134,-0.32 0.054,-0.139 0.131,-0.265 0.194,-0.4 0.065,-0.14 0.091,-0.299 0.186,-0.423 0.125,-0.164 0.222,-0.349 0.364,-0.499 0.079,-0.083 0.114,-0.19 0.191,-0.273 0.052,-0.055 0.113,-0.098 0.171,-0.146 -0.01,-0.013 -0.02,-0.024 -0.029,-0.036 -0.174,-0.239 -0.324,-0.496 -0.525,-0.713 -0.207,-0.224 -0.424,-0.432 -0.672,-0.61 -0.17,-0.122 -0.317,-0.25 -0.454,-0.407 -0.037,0.044 -0.075,0.086 -0.111,0.13 -0.082,0.099 -0.164,0.197 -0.234,0.306 -0.05,0.078 -0.094,0.16 -0.147,0.236 -0.092,0.133 -0.188,0.257 -0.269,0.399 -0.049,0.085 -0.093,0.175 -0.145,0.259 -0.05,0.081 -0.12,0.148 -0.169,0.232 -0.082,0.138 -0.153,0.283 -0.239,0.418 -0.06,0.093 -0.124,0.185 -0.17,0.286 -0.045,0.096 -0.083,0.198 -0.133,0.291 -0.076,0.141 -0.169,0.276 -0.251,0.415 -0.044,0.074 -0.091,0.146 -0.134,0.22 -0.045,0.077 -0.067,0.163 -0.108,0.241 -0.084,0.163 -0.134,0.347 -0.176,0.526 -0.06,0.252 -0.122,0.524 -0.13,0.787 0.051,0 0.101,0.003 0.149,0.009 0.021,0.096 0.002,0.22 0.002,0.318 0,0.1 0,0.2 0,0.3 0,0.285 0.03,0.566 0.08,0.847 0.017,0.098 0.027,0.193 0.03,0.292 0.004,0.11 0.026,0.205 0.038,0.314 0.029,0.259 0.107,0.5 0.183,0.75 0.06,0.196 0.118,0.39 0.16,0.591 0.012,0.059 0.054,0.132 0.036,0.194 -0.097,0.024 -0.202,0.015 -0.299,0.042 -0.071,0.021 -0.142,0.049 -0.214,0.068 -0.123,0.032 -0.258,-0.019 -0.382,-0.018 -0.07,0 -0.075,-0.005 -0.1,-0.07 -0.039,-0.106 -0.058,-0.224 -0.107,-0.326 -0.063,-0.129 -0.149,-0.242 -0.202,-0.377 -0.017,-0.043 -0.013,-0.082 -0.025,-0.127 -0.025,-0.093 -0.086,-0.169 -0.107,-0.26 -0.026,-0.114 -0.063,-0.229 -0.102,-0.339 -0.048,-0.134 -0.062,-0.266 -0.09,-0.404 -0.044,-0.219 -0.013,-0.454 0.028,-0.673 0.017,-0.094 0.039,-0.194 0.066,-0.285 0.025,-0.085 0.04,-0.17 0.063,-0.255 0,-0.003 0.002,-0.006 0.003,-0.009 -10e-4,0 -0.002,0 -0.004,0 -0.192,0 -0.381,0.024 -0.572,0.022 -0.122,-0.002 -0.24,0.014 -0.361,0.02 -0.178,0.009 -0.356,0.001 -0.533,0.002 -0.275,0 -0.549,0 -0.824,0 h -0.629 c -0.038,0 -0.176,-0.023 -0.205,0.006 -0.02,0.02 -0.003,0.114 -0.003,0.141 0,0.065 0,0.131 0,0.196 0,0.177 0.007,0.342 0.033,0.517 0.07,0.486 0.265,0.945 0.465,1.39 0.127,0.281 0.262,0.563 0.373,0.85 0.072,0.184 0.152,0.363 0.229,0.544 0.078,0.183 0.137,0.375 0.224,0.554 0.125,0.258 0.228,0.525 0.349,0.783 0.085,0.181 0.146,0.373 0.247,0.546 0.036,0.06 0.083,0.114 0.115,0.176 0.045,0.09 0.086,0.156 0.156,0.23 0.18,0.19 0.316,0.418 0.499,0.609 0.212,0.22 0.421,0.466 0.569,0.735 0.061,0.11 0.125,0.217 0.187,0.325 0.04,0.069 0.096,0.139 0.125,0.213 0.027,0.005 0.07,-0.044 0.087,-0.059 0.088,-0.073 0.168,-0.155 0.234,-0.249 0.055,-0.077 0.106,-0.157 0.162,-0.233 0.075,-0.1 0.16,-0.19 0.229,-0.294 0.123,-0.189 0.26,-0.354 0.397,-0.532 0.118,-0.047 0.217,-0.117 0.297,-0.203 0.03,0.011 0.06,0.021 0.091,0.03 0.06,0.062 0.13,0.116 0.21,0.158 0.067,0.103 0.152,0.193 0.261,0.26 0.052,0.092 0.115,0.177 0.197,0.245 -0.04,0.058 -0.078,0.118 -0.123,0.173 -0.044,0.054 -0.095,0.102 -0.14,0.155 -0.048,0.055 -0.092,0.111 -0.143,0.164 -0.055,0.057 -0.117,0.093 -0.179,0.141 -0.271,0.21 -0.54,0.437 -0.769,0.693 -0.069,0.077 -0.145,0.141 -0.22,0.21 -0.059,0.055 -0.111,0.116 -0.167,0.172 0.011,0.012 0.022,0.024 0.036,0.036 0.03,0.025 0.069,0.031 0.104,0.049 0.072,0.035 0.142,0.076 0.214,0.112 0.142,0.071 0.267,0.167 0.402,0.25 0.051,0.031 0.112,0.053 0.168,0.074 0.079,0.03 0.153,0.069 0.229,0.104 0.208,0.096 0.437,0.161 0.631,0.286 0.161,0.104 0.315,0.218 0.477,0.321 0.156,0.099 0.337,0.157 0.508,0.225 0.08,0.032 0.155,0.07 0.234,0.105 0.076,0.033 0.154,0.053 0.228,0.092 0.099,0.052 0.191,0.098 0.297,0.137 0.134,0.049 0.254,0.123 0.377,0.195 0.148,0.085 0.308,0.142 0.462,0.214 0.143,0.067 0.294,0.104 0.441,0.161 0.139,0.055 0.274,0.113 0.418,0.152 0.216,0.058 0.426,0.123 0.65,0.144 0.197,0.018 0.389,0.032 0.587,0.033 0.47,0 0.94,0 1.41,0 0.4,0 0.81,0.027 1.206,-0.033 0.184,-0.028 0.372,-0.054 0.556,-0.073 0.208,-0.021 0.415,-0.052 0.622,-0.084 0.144,-0.021 0.279,-0.05 0.425,-0.053 0.098,-10e-4 0.191,-0.008 0.287,-0.027 0.154,-0.031 0.294,-0.071 0.441,-0.125 0.196,-0.072 0.384,-0.156 0.57,-0.249 0.182,-0.092 0.364,-0.177 0.55,-0.26 0.095,-0.042 0.196,-0.069 0.29,-0.113 0.08,-0.038 0.161,-0.07 0.244,-0.1 0.103,-0.038 0.192,-0.086 0.288,-0.138 0.097,-0.052 0.199,-0.093 0.294,-0.15 0.11,-0.066 0.225,-0.129 0.33,-0.204 0.13,-0.091 0.254,-0.19 0.392,-0.268 0.334,-0.19 0.68,-0.364 1.007,-0.567 0.168,-0.104 0.349,-0.194 0.474,-0.352 0.103,-0.13 0.201,-0.232 0.267,-0.387 C -4.503,8.771 -4.452,8.704 -4.47,8.658 -4.48,8.63 -4.512,8.619 -4.536,8.604 -4.57,8.582 -4.593,8.554 -4.622,8.527 -4.775,8.392 -4.896,8.239 -5.029,8.085 -5.144,7.953 -5.275,7.838 -5.408,7.724 -5.492,7.652 -5.59,7.591 -5.668,7.513 -5.771,7.409 -5.858,7.294 -5.969,7.197 -6.148,7.04 -6.324,6.873 -6.492,6.704 -6.55,6.646 -6.622,6.577 -6.658,6.502 -6.674,6.468 -6.671,6.44 -6.671,6.403 -6.997,6.553 -7.126,6.401 -7.199,6.207 -7.221,6.146 -7.259,6.086 -7.231,6.025 -7.209,5.975 -7.15,5.938 -7.114,5.898 -6.981,5.748 -6.839,5.604 -6.715,5.445 -6.632,5.338 -6.53,5.25 -6.444,5.147 -6.337,5.02 -6.272,4.866 -6.198,4.718 -6.082,4.487 -5.995,4.242 -5.878,4.011 -5.782,3.822 -5.683,3.636 -5.591,3.445 -5.439,3.132 -5.315,2.79 -5.249,2.446 -5.194,2.162 -5.219,1.861 -5.217,1.573 -5.216,1.417 -5.229,1.257 -5.242,1.102 -5.269,1.086 -5.307,1.097 -5.337,1.098 c -0.049,10e-4 -0.098,0 -0.147,0 -0.265,0 -0.511,-0.021 -0.775,-0.066 C -6.511,0.989 -6.758,0.971 -7.013,0.96 -7.249,0.95 -7.483,0.928 -7.719,0.921 -8.068,0.911 -8.427,0.911 -8.77,0.833 -8.793,0.774 -8.795,0.7 -8.805,0.636 -8.823,0.529 -8.83,0.421 -8.839,0.313 -8.852,0.135 -8.879,-0.04 -8.897,-0.217 -8.919,-0.426 -8.968,-0.648 -9.025,-0.85 -9.052,-0.948 -9.083,-1.045 -9.111,-1.143 -9.123,-1.185 -9.144,-1.244 -9.135,-1.29 c 0.015,-0.081 0.13,-0.107 0.202,-0.136 0.205,-0.083 0.42,-0.134 0.63,-0.204 0.043,-0.015 0.141,-0.074 0.184,-0.037 0.031,0.027 0.055,0.108 0.071,0.146 0.052,0.118 0.092,0.249 0.166,0.356 0.069,0.101 0.111,0.216 0.175,0.319 0.016,0.027 0.044,0.046 0.063,0.071 0.039,0.052 0.063,0.121 0.096,0.175 0.074,0.121 0.14,0.239 0.201,0.366 0.037,0.08 0.077,0.155 0.109,0.236 0.022,0.055 0.065,0.106 0.06,0.169 0.085,0.014 0.178,0.002 0.264,0.002 0.09,0.001 0.171,-0.006 0.259,-0.021 0.102,-0.018 0.211,-0.042 0.315,-0.046 0.109,-0.004 0.216,0.005 0.325,-0.009 0.156,-0.019 0.312,-0.052 0.47,-0.057 0.154,-0.005 0.31,0.001 0.464,0.001 h 0.224 C -4.863,-0.013 -4.868,-0.067 -4.875,-0.122 -4.901,-0.315 -4.93,-0.509 -4.955,-0.702 -4.996,-1.021 -5.04,-1.34 -5.081,-1.659 -5.092,-1.746 -5.108,-1.828 -5.13,-1.914 -5.148,-1.985 -5.15,-2.06 -5.172,-2.129 -5.191,-2.188 -5.224,-2.237 -5.24,-2.296 -5.252,-2.343 -5.264,-2.39 -5.279,-2.437 -5.308,-2.529 -5.337,-2.616 -5.393,-2.697 -5.45,-2.781 -5.529,-2.849 -5.591,-2.93 c -0.075,-0.099 -0.142,-0.207 -0.22,-0.304 -0.034,-0.041 -0.09,-0.109 -0.136,-0.141 -0.02,-0.014 -0.056,-0.013 -0.064,-0.034 0.067,-0.05 0.211,-0.037 0.289,-0.052 0.163,-0.033 0.332,-0.092 0.491,-0.142 0.079,-0.025 0.159,-0.041 0.239,-0.064 0.076,-0.021 0.142,-0.061 0.216,-0.085 0.039,-0.012 0.037,-0.015 0.064,0.02 0.049,0.067 0.077,0.165 0.111,0.24 0.051,0.116 0.068,0.238 0.102,0.359 0.023,0.079 0.053,0.154 0.082,0.231 0.024,0.066 0.029,0.131 0.046,0.199 0.037,0.155 0.082,0.304 0.133,0.454 0.047,0.137 0.087,0.293 0.1,0.437 0.014,0.165 0.065,0.326 0.089,0.49 0.015,0.103 0.021,0.201 0.02,0.305 -0.001,0.158 0.005,0.317 0.001,0.476 -0.004,0.146 -0.02,0.28 -0.006,0.426 0.005,0.053 0.006,0.103 0.004,0.154 0.016,0 0.033,-0.001 0.045,0.004 0.015,0.202 0,0.412 0,0.615 0,0.087 0.005,0.176 0,0.264 -0.003,0.067 -0.029,0.134 -0.039,0.203 -0.019,0.123 -0.037,0.249 -0.055,0.373 -0.012,0.086 -0.019,0.172 -0.037,0.256 -0.021,0.1 -0.062,0.194 -0.09,0.291 -0.071,0.245 -0.102,0.499 -0.153,0.748 -0.015,0.068 -0.019,0.128 -0.021,0.197 -0.002,0.072 -0.026,0.139 -0.046,0.207 -0.025,0.087 -0.047,0.173 -0.07,0.26 -0.047,0.185 -0.128,0.355 -0.206,0.527 -0.035,0.076 -0.076,0.155 -0.103,0.233 -0.093,0.264 -0.179,0.524 -0.352,0.75 -0.088,0.116 -0.197,0.216 -0.285,0.333 -0.042,0.056 -0.087,0.109 -0.129,0.164 -0.032,0.04 -0.057,0.084 -0.104,0.107 0.049,0.052 0.136,0.089 0.194,0.133 0.045,0.034 0.077,0.077 0.13,0.104 0.105,0.054 0.171,0.134 0.264,0.207 0.116,0.09 0.237,0.171 0.346,0.271 0.141,0.129 0.229,0.28 0.345,0.427 0.059,0.076 0.127,0.145 0.185,0.223 0.068,0.092 0.124,0.191 0.189,0.285 0.188,0.272 0.447,0.508 0.689,0.733 0.073,0.069 0.143,0.14 0.213,0.212 0.05,0.052 0.134,0.095 0.177,0.153 -0.118,0.226 -0.197,0.473 -0.316,0.699 -0.156,0.299 -0.345,0.578 -0.644,0.753 -0.087,0.051 -0.165,0.103 -0.238,0.175 -0.053,0.054 -0.103,0.106 -0.162,0.153 -0.146,0.113 -0.303,0.209 -0.456,0.311 -0.415,0.28 -0.799,0.601 -1.211,0.884 -0.409,0.281 -0.84,0.519 -1.295,0.716 -0.211,0.092 -0.42,0.188 -0.635,0.271 -0.074,0.028 -0.147,0.06 -0.221,0.088 -0.129,0.048 -0.264,0.07 -0.396,0.109 -0.377,0.111 -0.755,0.251 -1.146,0.304 -0.199,0.027 -0.4,0.032 -0.597,0.07 -0.168,0.033 -0.337,0.057 -0.506,0.088 -0.213,0.039 -0.423,0.085 -0.638,0.115 -0.094,0.013 -0.185,0.034 -0.275,0.067 -0.059,0.021 -0.117,0.048 -0.18,0.058 -0.094,0.014 -0.196,0.002 -0.29,0.003 -0.113,0 -0.225,0 -0.339,-0.006 -0.237,-0.012 -0.487,0 -0.722,-0.037 -0.411,-0.065 -0.82,-0.132 -1.234,-0.183 -0.106,-0.014 -0.211,-0.029 -0.317,-0.043 -0.062,-0.008 -0.123,-0.026 -0.185,-0.035 -0.086,-0.013 -0.177,-0.01 -0.262,-0.032 -0.323,-0.084 -0.66,-0.119 -0.985,-0.206 -0.151,-0.04 -0.301,-0.087 -0.452,-0.131 -0.107,-0.031 -0.215,-0.06 -0.319,-0.1 -0.125,-0.049 -0.243,-0.115 -0.365,-0.171 -0.171,-0.077 -0.321,-0.186 -0.499,-0.25 -0.164,-0.059 -0.314,-0.141 -0.467,-0.225 -0.164,-0.089 -0.326,-0.179 -0.495,-0.258 -0.198,-0.092 -0.363,-0.209 -0.543,-0.328 -0.39,-0.258 -0.799,-0.483 -1.209,-0.706 -0.161,-0.087 -0.34,-0.164 -0.479,-0.284 -0.11,-0.094 -0.177,-0.195 -0.26,-0.309 -0.013,0.008 -0.025,0.017 -0.038,0.024 -0.054,0.031 -0.099,0.03 -0.15,-0.002 -0.142,-0.088 -0.27,-0.205 -0.39,-0.319 -0.102,-0.097 -0.223,-0.158 -0.32,-0.263 -0.075,-0.079 -0.145,-0.201 -0.197,-0.296 -0.055,-0.102 -0.129,-0.188 -0.187,-0.288 -0.062,-0.107 -0.143,-0.21 -0.222,-0.305 -0.176,-0.214 -0.422,-0.388 -0.547,-0.639 -0.067,-0.134 -0.174,-0.236 -0.233,-0.377 -0.053,-0.125 -0.128,-0.233 -0.197,-0.35 -0.149,-0.251 -0.26,-0.501 -0.347,-0.78 -0.052,-0.168 -0.119,-0.335 -0.158,-0.507 -0.034,-0.152 -0.081,-0.285 -0.135,-0.431 -0.023,-0.061 -0.024,-0.126 -0.047,-0.186 -0.021,-0.055 -0.061,-0.099 -0.085,-0.154 -0.061,-0.143 -0.114,-0.29 -0.175,-0.433 -0.114,-0.265 -0.208,-0.543 -0.284,-0.82 -0.06,-0.219 -0.13,-0.435 -0.178,-0.657 -0.022,-0.098 -0.03,-0.197 -0.06,-0.294 C -25.254,2.73 -25.28,2.661 -25.298,2.588 -25.311,2.536 -25.336,2.49 -25.338,2.435 -25.34,2.354 -25.35,2.282 -25.364,2.202 -25.401,1.977 -25.435,1.751 -25.468,1.527 -25.472,1.499 -25.487,1.477 -25.492,1.448 -25.504,1.373 -25.49,1.284 -25.49,1.207 V 0.809 c 0,-0.075 -0.008,-0.135 -0.021,-0.207 -0.01,-0.059 -0.001,-0.127 -0.001,-0.186 V 0.108 c 0,-0.041 -0.003,-0.086 -0.005,-0.131 -0.057,-0.003 -0.081,0.001 -0.084,-0.07 -0.009,-0.19 0.005,-0.381 0.002,-0.571 -0.005,-0.222 -0.034,-0.435 -0.004,-0.658 0.038,-0.295 0.108,-0.575 0.194,-0.86 0.087,-0.286 0.174,-0.577 0.284,-0.855 0.066,-0.17 0.106,-0.349 0.184,-0.514 0.047,-0.1 0.087,-0.197 0.118,-0.302 0.018,-0.06 0.032,-0.124 0.065,-0.178 0.055,-0.089 0.091,-0.179 0.136,-0.273 0.023,-0.047 0.05,-0.089 0.077,-0.133 0.02,-0.034 0.037,-0.094 0.063,-0.121 0.028,-0.029 0.031,-0.023 0.08,-0.023 0.018,0 0.035,0.001 0.052,0.002 0.022,-0.052 0.044,-0.104 0.065,-0.156 0.066,-0.167 0.151,-0.315 0.235,-0.472 0.096,-0.182 0.229,-0.35 0.354,-0.513 0.108,-0.141 0.187,-0.302 0.297,-0.442 0.061,-0.078 0.129,-0.151 0.185,-0.234 0.076,-0.111 0.133,-0.232 0.21,-0.342 0.102,-0.144 0.2,-0.295 0.308,-0.435 0.062,-0.08 0.134,-0.151 0.192,-0.235 0.069,-0.101 0.126,-0.203 0.203,-0.299 0.118,-0.147 0.22,-0.303 0.353,-0.439 0.167,-0.17 0.308,-0.368 0.485,-0.528 0.164,-0.147 0.349,-0.275 0.524,-0.41 0.074,-0.058 0.16,-0.098 0.227,-0.164 0.057,-0.056 0.113,-0.105 0.176,-0.155 0.081,-0.065 0.154,-0.138 0.233,-0.207 0.102,-0.09 0.21,-0.168 0.306,-0.265 0.114,-0.116 0.235,-0.227 0.343,-0.349 0.047,-0.053 0.088,-0.118 0.141,-0.167 0.047,-0.043 0.105,-0.074 0.152,-0.12 0.292,-0.282 0.628,-0.528 0.989,-0.716 0.175,-0.091 0.347,-0.142 0.534,-0.197 0.217,-0.064 0.428,-0.149 0.647,-0.201 0.103,-0.025 0.195,-0.057 0.294,-0.094 0.099,-0.037 0.202,-0.046 0.304,-0.071 0.036,-0.009 0.073,-0.024 0.109,-0.03 0.031,-0.005 0.073,0.004 0.104,-0.002 0.033,-0.007 0.079,-0.038 0.115,-0.025 0.066,0.023 0.057,0.186 0.062,0.241 0.018,0.179 0.065,0.365 0.129,0.533 0.024,0.064 0.037,0.129 0.055,0.198 0.006,0.025 0.033,0.084 0.034,0.108 0.003,0.043 -0.032,0.055 -0.064,0.076 -0.349,0.22 -0.735,0.366 -1.103,0.552 -0.113,0.057 -0.237,0.092 -0.354,0.14 -0.13,0.054 -0.262,0.104 -0.393,0.158 -0.098,0.04 -0.191,0.091 -0.288,0.132 -0.054,0.023 -0.112,0.035 -0.168,0.055 -0.083,0.031 -0.155,0.074 -0.235,0.115 -0.1,0.052 -0.209,0.086 -0.307,0.139 -0.081,0.044 -0.155,0.101 -0.232,0.152 -0.176,0.118 -0.36,0.219 -0.541,0.329 -0.239,0.145 -0.488,0.299 -0.702,0.479 -0.101,0.084 -0.197,0.172 -0.299,0.254 -0.107,0.087 -0.175,0.186 -0.262,0.292 -0.36,0.439 -0.712,0.886 -1.015,1.367 -0.347,0.551 -0.804,1.027 -1.144,1.582 -0.135,0.221 -0.253,0.463 -0.357,0.7 -0.051,0.114 -0.098,0.231 -0.149,0.344 -0.023,0.049 -0.064,0.098 -0.07,0.152 -0.006,0.002 -0.011,0.003 0.049,0.026 -0.023,-0.001 -0.049,-0.015 -0.074,-0.029 -0.004,0.025 -0.009,0.051 -0.013,0.076 -0.044,0.265 -0.152,0.5 -0.223,0.756 -0.125,0.449 -0.212,0.896 -0.285,1.356 -0.022,0.14 -0.03,0.281 -0.049,0.422 -0.012,0.088 -0.038,0.173 -0.04,0.263 -0.003,0.128 0.001,0.258 0.002,0.386 0,0.054 -0.006,0.106 -0.012,0.158 0.083,-0.001 0.166,-0.001 0.248,0.006 0.174,0.014 0.34,0.042 0.515,0.041 0.202,-0.002 0.405,-0.001 0.608,-0.001 h 0.903 c 0.061,0 0.123,0.003 0.183,0.001 0.148,-0.005 0.352,-0.113 0.48,0.012 0.004,-0.007 0.01,-0.01 0.018,-0.009 0.029,0.045 0.099,0.012 0.125,-0.015 0.039,-0.039 0.048,-0.112 0.058,-0.164 0.01,-0.056 0.02,-0.109 0.021,-0.166 0.001,-0.081 0.03,-0.163 0.041,-0.243 0.037,-0.255 0.075,-0.506 0.146,-0.754 0.079,-0.276 0.153,-0.552 0.242,-0.825 0.062,-0.193 0.154,-0.381 0.239,-0.564 0.048,-0.101 0.1,-0.204 0.168,-0.292 0.098,-0.128 0.159,-0.284 0.247,-0.419 0.077,-0.119 0.16,-0.236 0.242,-0.352 0.116,-0.167 0.256,-0.314 0.37,-0.482 0.065,-0.095 0.145,-0.191 0.22,-0.279 0.068,-0.081 0.131,-0.164 0.204,-0.242 0.063,-0.068 0.122,-0.139 0.181,-0.21 -0.021,-0.025 -0.043,-0.048 -0.078,-0.058 0.096,-0.151 0.259,-0.27 0.388,-0.391 0.118,-0.109 0.24,-0.213 0.367,-0.312 0.137,-0.105 0.287,-0.195 0.427,-0.297 0.174,-0.126 0.353,-0.244 0.534,-0.36 0.258,-0.166 0.516,-0.328 0.8,-0.444 0.265,-0.108 0.544,-0.184 0.82,-0.255 0.262,-0.068 0.527,-0.125 0.787,-0.199 0.151,-0.043 0.302,-0.113 0.458,-0.131 0.161,-0.019 0.324,-0.017 0.484,-0.044 0.125,-0.021 0.247,-0.055 0.372,-0.078 0.099,-0.019 0.203,-0.025 0.301,-0.046 0.04,-0.008 0.088,-0.024 0.099,-0.066 0.016,-0.057 -0.004,-0.139 -0.017,-0.195 -0.032,-0.142 -0.066,-0.276 -0.075,-0.423 -0.011,-0.181 -0.055,-0.355 -0.077,-0.535 -0.047,-0.37 -0.036,-0.748 -0.059,-1.12 -0.03,-0.486 -0.15,-0.969 -0.149,-1.456 0,-0.123 -0.001,-0.299 0.108,-0.38 0.035,-0.026 0.089,-0.026 0.128,-0.041 0.071,-0.026 0.111,-0.028 0.191,-0.03 0.145,-0.002 0.29,-0.022 0.436,-0.023 0.137,-0.002 0.289,-0.015 0.425,0.008 0.396,0.07 0.805,0.109 1.188,0.237 0.2,0.066 0.399,0.125 0.604,0.176 0.153,0.039 0.309,0.062 0.463,0.097 0.272,0.062 0.552,0.085 0.828,0.12 0.169,0.021 0.337,0.046 0.504,0.079 0.257,0.049 0.501,0.139 0.751,0.214 0.263,0.079 0.525,0.161 0.781,0.263 0.188,0.075 0.369,0.173 0.55,0.264 0.141,0.07 0.268,0.152 0.391,0.25 0.163,0.128 0.349,0.226 0.512,0.354 0.289,0.228 0.584,0.448 0.889,0.657 0.24,0.165 0.448,0.373 0.667,0.565 0.139,0.123 0.29,0.235 0.422,0.367 0.124,0.124 0.236,0.259 0.36,0.385 0.103,0.104 0.188,0.217 0.286,0.325 0.177,0.195 0.355,0.388 0.534,0.582 0.075,0.082 0.13,0.178 0.206,0.259 0.095,0.103 0.193,0.21 0.276,0.323 0.052,0.069 0.096,0.147 0.145,0.219 0.062,0.093 0.13,0.186 0.188,0.282 0.057,0.095 0.1,0.197 0.155,0.293 0.059,0.104 0.133,0.191 0.173,0.305 0.041,0.117 0.106,0.226 0.152,0.341 0.06,0.152 0.126,0.301 0.168,0.458 0.044,0.164 0.099,0.326 0.155,0.486 0.065,0.183 0.136,0.36 0.212,0.538 0.085,0.202 0.179,0.394 0.248,0.603 0.073,0.219 0.117,0.437 0.149,0.667 0.021,0.145 0.041,0.29 0.055,0.436 0.014,0.16 0.052,0.316 0.067,0.476 0.016,0.165 0.051,0.319 0.084,0.481 0.025,0.121 0.03,0.251 0.038,0.373 C 0.032,-0.463 0.019,-0.23 0,0"
             style="fill:#000000;fill-opacity:1;fill-rule:nonzero;stroke:none"
             id="path983" />
        </g>
      </g>
    </g>
  </g>
</svg>
