<svg width="25" height="24" viewBox="0 0 25 24" fill="#000000" xmlns="http://www.w3.org/2000/svg">
  <path d="M18.2998 18.9861C18.2478 18.9549 18.2468 18.8565 18.2298 18.8101C18.1825 18.6805 18.1172 18.5594 18.0557 18.4355C18.0255 18.3721 17.9961 18.3087 17.9583 18.2491C17.9214 18.1923 17.8722 18.1422 17.8306 18.0883C17.7757 18.0192 17.7284 17.952 17.6641 17.8924C17.6158 17.847 17.5676 17.8035 17.5127 17.7666C17.4625 17.7316 17.4039 17.7098 17.35 17.6786C17.2204 17.6039 17.1134 17.5131 17.0217 17.3986C16.9819 17.3485 16.9441 17.2907 16.8968 17.2463C16.8608 17.2132 16.8277 17.1801 16.7937 17.1451C16.7426 17.0911 16.7057 17.0306 16.6537 16.9776C16.5619 16.8849 16.5524 16.7326 16.5761 16.6124C16.5988 16.4989 16.6612 16.4308 16.7435 16.3475C16.8675 16.2226 16.9791 16.0883 17.1068 15.9663C17.2033 15.8735 17.3358 15.83 17.4597 15.778C17.4834 15.7676 17.5297 15.7496 17.5486 15.7307C17.5732 15.7061 17.5638 15.673 17.5647 15.6418C17.5676 15.4402 17.4701 15.2841 17.3424 15.1271C17.3112 15.0893 17.2743 15.0552 17.2421 15.0164C17.2222 14.9928 17.2062 14.9596 17.1787 14.9417C17.1485 14.9218 17.1106 14.9133 17.0737 14.9114C17.0169 14.9076 16.9715 14.9284 16.9176 14.9407C16.8457 14.9568 16.8202 14.9946 16.7606 15.0363C16.7152 15.0684 16.6688 15.1006 16.6376 15.1451C16.5808 15.2264 16.5354 15.3182 16.4862 15.4033C16.4465 15.4724 16.3916 15.533 16.3036 15.5386C16.2005 15.5443 16.104 15.4998 16.0066 15.4743C15.8902 15.4431 15.7577 15.4147 15.6745 15.3296C15.6329 15.287 15.5874 15.252 15.542 15.2132C15.4957 15.1725 15.4522 15.129 15.402 15.093C15.2809 15.006 15.1892 14.9 15.0983 14.7865C15.0245 14.6929 14.9593 14.5945 14.8826 14.5027C14.7407 14.3324 14.6206 14.147 14.4692 13.9843C14.4011 13.9114 14.3301 13.8433 14.2649 13.7676C14.2024 13.6938 14.1466 13.6153 14.0832 13.5424C13.9668 13.409 13.8401 13.2832 13.719 13.1546C13.6073 13.0344 13.5033 12.9086 13.3916 12.7884C13.2166 12.6021 13.0728 12.3968 12.912 12.2C12.5837 11.7951 12.2497 11.3977 11.8921 11.0155C11.789 10.9058 11.702 10.7913 11.6102 10.6721C11.5534 10.5983 11.4891 10.5264 11.4371 10.4488C11.3737 10.3533 11.3122 10.2577 11.2441 10.1641C11.2015 10.1063 11.1495 10.0638 11.1097 10.0013C11.0539 9.91524 10.9905 9.83577 10.9205 9.75914C10.7531 9.57655 10.6348 9.36842 10.508 9.16028C10.4447 9.05527 10.3728 8.95593 10.3113 8.84997C10.299 8.82916 10.2507 8.70428 10.2119 8.70239C10.1949 8.70144 10.158 8.72982 10.1438 8.73928C10.0747 8.78659 10.0255 8.867 9.97257 8.92944C9.9527 8.95309 9.93189 8.97864 9.90067 8.99094C9.82309 9.02027 9.74741 8.9635 9.68118 8.9389C9.55252 8.89349 9.43331 8.81686 9.36047 8.70617C9.24694 8.53304 9.20531 8.35613 9.17977 8.15651C9.16558 8.04961 9.15139 7.94743 9.15139 7.84053C9.15044 7.78849 9.1599 7.7743 9.18071 7.727C9.20342 7.67496 9.22518 7.62293 9.25356 7.57279C9.2914 7.50657 9.28478 7.50751 9.25545 7.43845C9.04921 6.96542 8.81553 6.50374 8.61213 6.02882C8.50144 5.77149 8.37467 5.51983 8.26114 5.26251C8.22046 5.16885 8.17316 5.07897 8.1268 4.98815C8.07666 4.8907 8.04544 4.7942 8.00192 4.69487C7.87231 4.39591 7.66512 4.13385 7.49199 3.8576C7.40685 3.72326 7.33211 3.58135 7.25548 3.44228C7.22142 3.38079 7.1902 3.3174 7.15614 3.25591C7.1287 3.20671 7.07099 3.14995 7.06248 3.09507C7.07383 3.17171 7.06437 3.25591 7.06437 3.33254C7.06437 3.53405 7.05775 3.73556 7.06343 3.93707C7.06721 4.06479 7.0814 4.18967 7.0814 4.31833C7.0814 4.42524 7.08235 4.53309 7.0814 4.64094C7.0814 4.86421 7.10884 5.08843 7.14573 5.30886C7.17601 5.48861 7.15992 5.66553 7.16655 5.84717C7.17033 5.97773 7.18452 6.11018 7.19682 6.23979C7.2129 6.4167 7.24602 6.58983 7.26588 6.7658C7.28102 6.90014 7.31035 7.03164 7.32548 7.16598C7.34157 7.306 7.35387 7.44791 7.37563 7.58793C7.38887 7.67213 7.41158 7.75538 7.42482 7.83958C7.43901 7.92851 7.44185 8.01744 7.46077 8.10637C7.49294 8.25206 7.52321 8.39965 7.56011 8.54534C7.57808 8.6144 7.59038 8.68536 7.6112 8.75348C7.63012 8.8197 7.66134 8.88025 7.6812 8.94553C7.71621 9.06378 7.73797 9.17542 7.79946 9.28516C7.85433 9.38261 7.87609 9.48857 7.9338 9.58506C7.98962 9.67873 8.05774 9.76671 8.11639 9.85942C8.15045 9.91335 8.17221 9.96917 8.21289 10.0203C8.24317 10.0571 8.27249 10.0912 8.29898 10.1291C8.35386 10.2076 8.39548 10.2927 8.44941 10.3712C8.50901 10.4564 8.5828 10.5311 8.63957 10.6182C8.69349 10.7014 8.72755 10.7913 8.79094 10.8698C8.82783 10.9162 8.86851 10.9578 8.90257 11.0051C8.94514 11.0619 8.97258 11.1271 9.02083 11.1801C9.05583 11.217 9.09651 11.2492 9.13057 11.287C9.17693 11.3381 9.21193 11.3958 9.2564 11.4469C9.36047 11.5671 9.47589 11.6806 9.57428 11.8045C9.61969 11.8613 9.6651 11.9105 9.71429 11.9635C9.77106 12.025 9.81836 12.094 9.8808 12.1508C9.98865 12.2482 10.1003 12.3381 10.2025 12.4412C10.3273 12.5671 10.4503 12.6919 10.5866 12.8074C10.7133 12.9143 10.8448 13.0136 10.9801 13.111C11.1022 13.199 11.2176 13.2936 11.3396 13.3807C11.5024 13.497 11.6651 13.6125 11.8164 13.7421C11.8912 13.8064 11.9584 13.8736 12.0407 13.9303C12.0955 13.9682 12.1466 14.0013 12.1958 14.0457C12.2639 14.1063 12.3254 14.1668 12.3992 14.2227C12.5099 14.3059 12.6206 14.3882 12.7266 14.4762C12.8571 14.5831 12.9829 14.6957 13.1144 14.8017C13.2753 14.9303 13.4389 15.0543 13.5903 15.1943C13.6849 15.2823 13.7776 15.375 13.876 15.4592C13.9574 15.5282 14.0444 15.5907 14.1201 15.6664C14.2194 15.7676 14.3386 15.8461 14.4493 15.936C14.4995 15.9767 14.5771 16.0306 14.5894 16.0987C14.5988 16.1517 14.5496 16.2047 14.5175 16.2435C14.4512 16.3229 14.3642 16.4033 14.2838 16.4696C14.2355 16.5102 14.1882 16.5348 14.1655 16.5916C14.139 16.6616 14.1125 16.7382 14.0766 16.8045C14.0416 16.8669 14.0189 16.9322 13.9914 16.9975C13.9517 17.0883 13.8987 17.1659 13.8703 17.2614C13.8467 17.3418 13.8051 17.4222 13.788 17.5046C13.7776 17.5556 13.7909 17.6058 13.8022 17.6559C13.8268 17.7562 13.9025 17.7742 14.0037 17.795C14.1125 17.8177 14.2194 17.8603 14.3263 17.8915C14.3831 17.9076 14.4333 17.9114 14.491 17.9114C14.6073 17.9104 14.7237 17.9151 14.8401 17.9123C14.9366 17.9104 15.0368 17.9095 15.0813 17.8224C15.1078 17.7695 15.1324 17.7155 15.1542 17.6616C15.1787 17.602 15.1844 17.5443 15.2024 17.4837C15.2147 17.4421 15.2365 17.4062 15.2525 17.3664C15.2648 17.338 15.2696 17.3097 15.2894 17.2851C15.3292 17.2349 15.419 17.2302 15.4787 17.2236C15.5137 17.2188 15.5638 17.2056 15.5969 17.2084C15.63 17.2103 15.6139 17.2141 15.6348 17.2311C15.7114 17.2926 15.7454 17.4213 15.7899 17.5064C15.8419 17.6067 15.9082 17.7032 15.928 17.8158C15.9413 17.8915 15.9678 17.9539 15.9876 18.0277C16.0671 18.322 16.245 18.5897 16.4522 18.8224C16.6508 19.0438 16.8381 19.2775 17.0132 19.5149C17.0292 19.5367 17.0378 19.5566 17.0501 19.5793C17.0775 19.6266 17.121 19.6578 17.157 19.6985C17.2251 19.776 17.3064 19.8375 17.3765 19.9123C17.4096 19.9473 17.4465 19.9795 17.4786 20.0163C17.5297 20.0741 17.5799 20.1119 17.6442 20.1564C17.7785 20.25 17.9318 20.3002 18.0813 20.3692C18.227 20.4364 18.3831 20.5007 18.5458 20.5234C18.6612 20.5395 18.7378 20.4894 18.7965 20.3976C18.8542 20.3077 18.9025 20.2046 18.9346 20.1043C18.9516 20.0495 18.9507 19.9918 18.9658 19.9359C18.981 19.882 19.0037 19.829 19.0188 19.7751C19.0529 19.6568 19.0671 19.5329 19.0368 19.4128C19.0235 19.3617 19.0112 19.3087 18.9923 19.2604C18.9611 19.181 18.9025 19.1185 18.8589 19.0457C18.7937 18.9359 18.7113 18.8432 18.6404 18.7382C18.5865 18.6569 18.5212 18.602 18.4436 18.5395C18.385 18.4932 18.3452 18.4345 18.2866 18.392C18.2478 18.3636 18.1995 18.3437 18.1626 18.3125"/>
  <path d="M6.9586 6.01548C6.9586 6.0713 6.95577 6.12806 6.95766 6.18388C6.9605 6.25767 6.98699 6.32295 6.99077 6.39674C6.99739 6.54622 7.00685 6.70421 6.95104 6.84423C6.90373 6.96249 6.8517 7.07034 6.79399 7.18292C6.76088 7.24725 6.73628 7.31821 6.70033 7.38822C6.65208 7.48282 6.64546 7.55189 6.64546 7.65974C6.64546 7.82151 6.63789 7.96721 6.68519 8.12331C6.73155 8.27468 6.78831 8.42605 6.86494 8.56606C6.92076 8.66919 6.93117 8.78271 6.96523 8.89151C7.00118 9.00504 7.03523 9.11667 7.06835 9.23115C7.09294 9.31724 7.1147 9.39103 7.1147 9.48091C7.11565 9.56889 7.14782 9.64363 7.14687 9.73161C7.14403 9.9984 7.16863 10.2614 7.05132 10.5074C6.98982 10.637 6.91414 10.8281 6.77034 10.8981C6.64924 10.9577 6.47517 10.9132 6.36353 10.8612C6.26419 10.8149 6.2027 10.7051 6.13364 10.6228C6.05701 10.531 6.04187 10.4402 6.0116 10.3305C5.98038 10.2236 5.99457 10.1242 5.98984 10.0154C5.987 9.95205 5.95483 9.88771 5.9624 9.82527C5.97091 9.76189 5.98038 9.68904 5.99457 9.6266C6.05133 9.37779 6.14215 9.146 6.17621 8.89056C6.21121 8.62094 6.20648 8.35509 6.20743 8.08263C6.20743 7.95302 6.19702 7.83854 6.1677 7.71177C6.13648 7.57459 6.14594 7.43836 6.14499 7.30023C6.14404 7.19238 6.14688 7.11575 6.20648 7.02114C6.2519 6.94924 6.29541 6.87734 6.34839 6.80923C6.52815 6.5765 6.67573 6.29078 6.73155 6.0098C6.77791 5.77045 6.80061 5.53299 6.8025 5.2908C6.79399 5.33621 6.81291 5.36364 6.82521 5.40622C6.85075 5.49988 6.85075 5.59921 6.86967 5.69382C6.89049 5.79126 6.93968 5.86222 6.97658 5.95304C7.00023 6.00886 7.00118 6.09022 6.9586 6.01548Z"/>
  <path d="M11.6735 6.8534C11.6612 6.86286 11.6054 6.86854 11.5884 6.87233C11.5117 6.88557 11.437 6.88557 11.3604 6.90071C11.2932 6.91301 11.2336 6.95179 11.1674 6.96882C11.1059 6.98396 11.0415 6.99248 10.9791 7.00099C10.8741 7.01613 10.7729 7.02937 10.6707 7.0587C10.613 7.07478 10.5562 7.09181 10.4985 7.10695C10.4853 7.11073 10.4474 7.11452 10.437 7.12587C10.4162 7.15141 10.4257 7.21858 10.4285 7.25359C10.4408 7.3832 10.5061 7.50146 10.542 7.62539C10.5666 7.71243 10.5931 7.79947 10.6149 7.88745C10.63 7.94516 10.6366 8.00949 10.6612 8.06436C10.7142 8.07288 10.7615 8.03977 10.806 8.02652C10.876 8.00665 10.9356 7.97638 11.0084 7.95462C11.1201 7.92151 11.2241 7.90448 11.3396 7.89786C11.4408 7.89123 11.5382 7.85339 11.6395 7.85434C11.7331 7.85623 11.8268 7.85528 11.9214 7.85528C12.0027 7.85528 12.0746 7.86853 12.1541 7.8761C12.2932 7.8884 12.419 7.93192 12.5552 7.95557C12.7255 7.98395 12.9091 8.00855 13.0813 8.0199C13.348 8.03693 13.629 8.08802 13.8788 8.1883C14.1304 8.28953 14.3594 8.4163 14.5855 8.56199C14.7908 8.6935 14.9705 8.84203 15.1503 9.00664C15.2487 9.09652 15.3433 9.20342 15.4265 9.30749C15.4644 9.35479 15.4824 9.40493 15.5136 9.45508C15.5335 9.47873 15.5514 9.50333 15.5675 9.52887C15.5703 9.54684 15.576 9.56293 15.5864 9.57712C15.6886 9.50049 15.8211 9.45129 15.9374 9.39169C15.9904 9.36425 16.0368 9.33493 16.0926 9.31222C16.1342 9.29519 16.1919 9.281 16.226 9.25262C16.2685 9.21572 16.2581 9.20626 16.2373 9.15517C16.1947 9.04922 16.1503 8.94609 16.0973 8.84487C15.9913 8.63957 15.839 8.45793 15.6962 8.27723C15.5628 8.10788 15.3849 7.98395 15.2269 7.84015C15.1522 7.77108 15.0746 7.7304 14.9951 7.66986C14.8797 7.58187 14.7643 7.51092 14.6347 7.44375C14.4852 7.36617 14.3338 7.32171 14.1749 7.26778C14.0207 7.2148 13.875 7.14952 13.717 7.10695C13.506 7.05019 13.3017 6.97166 13.0879 6.92247C12.9469 6.8903 12.8116 6.85908 12.6763 6.80894C12.6782 6.77677 12.6678 6.75974 12.6603 6.73042C12.6527 6.70203 12.6555 6.6746 12.6508 6.64527C12.6423 6.59797 12.6281 6.54877 12.6186 6.50431C12.6044 6.44281 12.6186 6.37943 12.6148 6.31699C12.6082 6.22522 12.5742 6.13724 12.5713 6.04357C12.5675 5.90734 12.5723 5.77016 12.5723 5.63393C12.5723 5.47215 12.5694 5.31321 12.5884 5.15238C12.6054 5.00669 12.5921 4.8591 12.6177 4.71341C12.6234 4.68124 12.6404 4.58664 12.6745 4.56772C12.7047 4.55069 12.7501 4.58096 12.7814 4.58664C12.8769 4.60367 12.9753 4.62637 13.0727 4.6434C13.139 4.65381 13.2005 4.66895 13.2638 4.68976C13.331 4.71246 13.401 4.7153 13.4682 4.73612C13.5931 4.77585 13.7189 4.80707 13.8466 4.84018C14.0037 4.87897 14.1456 4.95276 14.3074 4.97736C14.4086 4.9925 14.4881 5.01047 14.5789 5.06062C14.6479 5.09846 14.7227 5.12022 14.7965 5.14765C14.9251 5.19685 15.0349 5.24983 15.1739 5.26875C15.2307 5.27632 15.331 5.29051 15.3868 5.27348C15.4294 5.26024 15.4228 5.26875 15.4407 5.21672C15.4871 5.08237 15.5032 4.93857 15.5495 4.80329C15.577 4.72382 15.6044 4.64151 15.6337 4.56204C15.6489 4.52231 15.6735 4.48541 15.6791 4.44378C15.6848 4.44284 15.6905 4.44094 15.6962 4.44C15.6716 4.3066 15.4738 4.29525 15.3102 4.23187C15.2591 4.21294 15.2127 4.18645 15.1616 4.16943C15.0699 4.1382 14.9715 4.12118 14.8816 4.08712C14.8135 4.06157 14.7558 4.01616 14.6867 3.99156C14.6148 3.96602 14.5401 3.94615 14.4682 3.92061C14.2818 3.85439 14.1191 3.75127 13.928 3.70018C13.7501 3.65287 13.5855 3.58665 13.4029 3.56016C13.2676 3.54124 13.1409 3.52232 13.0037 3.52326C12.8987 3.52421 12.7937 3.52421 12.6877 3.52421C12.4464 3.52421 12.2109 3.5261 11.9715 3.56016C11.6357 3.60841 11.2998 3.63868 10.9668 3.7068C10.8031 3.73991 10.6376 3.74937 10.4777 3.79951C10.3263 3.84776 10.174 3.89223 10.0198 3.92818C9.83153 3.9717 9.65178 4.02373 9.47581 4.10604C9.31214 4.18267 9.11347 4.23376 8.96967 4.34823C8.89398 4.40878 8.93277 4.46081 8.98008 4.52325C9.03306 4.59421 9.08793 4.66422 9.14658 4.73139C9.21186 4.80613 9.27525 4.88654 9.3462 4.95655C9.38026 4.99061 9.39918 5.04642 9.4427 5.07008C9.49947 5.1013 9.59975 5.05399 9.65746 5.02277C9.6953 5.00291 9.7303 4.98966 9.77098 4.97642C9.82396 4.96033 9.86086 4.93195 9.90911 4.91019C9.99331 4.87235 10.0718 4.82315 10.156 4.78531C10.2279 4.75409 10.3074 4.73612 10.3821 4.71152C10.4824 4.67746 10.5922 4.64246 10.6981 4.62921C10.7653 4.6207 10.8363 4.62732 10.9034 4.62732C11.0851 4.62732 11.2667 4.62543 11.4484 4.62732C11.5042 4.62827 11.5553 4.63678 11.6101 4.6434C11.6404 4.64624 11.6972 4.63678 11.7161 4.66611C11.7407 4.70584 11.718 4.82221 11.718 4.86762V5.33214C11.718 5.4608 11.718 5.58946 11.7189 5.71813C11.7199 5.89031 11.6972 6.05966 11.6972 6.23184C11.6981 6.40308 11.7076 6.5781 11.6981 6.74839C11.6972 6.77299 11.6962 6.83637 11.6735 6.8534Z"/>
  <path d="M22.8672 6.77365C22.9013 6.74716 22.9363 6.72162 22.9637 6.68945C22.8947 6.73865 22.871 6.76041 22.8672 6.77365Z"/>
  <path d="M24.2348 12.4755C24.2196 12.2863 24.1789 12.0981 24.1723 11.9079C24.1647 11.7026 24.1714 11.4945 24.1714 11.2882C24.1714 11.1567 24.1638 11.0243 24.1761 10.8928C24.1865 10.7793 24.1979 10.6723 24.1884 10.5579C24.178 10.4188 24.161 10.2788 24.1316 10.1426C24.0881 9.93915 24.0086 9.75183 23.9358 9.55883C23.863 9.36678 23.7863 9.17757 23.7078 8.98836C23.6028 8.7367 23.5299 8.48032 23.477 8.21448C23.4382 8.02243 23.3701 7.84078 23.318 7.65252C23.2565 7.42546 23.1676 7.21544 23.0389 7.01582C23.0115 6.97324 22.9803 6.94013 22.9528 6.89661C22.9292 6.86066 22.9093 6.82282 22.8781 6.79444C22.8705 6.78781 22.8653 6.78217 22.8672 6.77365C22.8549 6.78311 22.8421 6.79255 22.8299 6.8039C22.758 6.87012 22.6946 6.94297 22.6123 6.99879C22.5328 7.05177 22.4609 7.11326 22.3805 7.1634C22.3265 7.19746 22.3029 7.22395 22.2546 7.26842C22.2442 7.27788 22.2244 7.2845 22.2178 7.2968C22.1969 7.33464 22.2442 7.42546 22.2546 7.4633C22.3067 7.64306 22.3975 7.80672 22.4429 7.98931C22.4808 8.14352 22.5318 8.29584 22.5933 8.44248C22.6586 8.59763 22.6804 8.75846 22.7352 8.9174C22.757 8.98079 22.7731 9.04323 22.7863 9.10851C22.7967 9.15959 22.8213 9.20027 22.8346 9.24947C22.8507 9.30623 22.8469 9.35732 22.8696 9.41409C22.8951 9.47936 22.9027 9.5418 22.9207 9.60897C22.9642 9.77832 23.0474 9.9382 23.0891 10.1075C23.1231 10.2476 23.1534 10.3933 23.178 10.5361C23.1903 10.609 23.2017 10.6799 23.2206 10.7518C23.2461 10.8483 23.283 10.942 23.3067 11.0394C23.3322 11.1435 23.3738 11.2419 23.4032 11.3441C23.4249 11.4226 23.4278 11.5039 23.4372 11.5844C23.458 11.7707 23.5233 11.9457 23.5271 12.1369C23.5299 12.3639 23.4457 12.5796 23.4003 12.7991C23.3473 13.0574 23.3076 13.3156 23.2471 13.5711C23.2083 13.7338 23.2149 13.8984 23.1714 14.0611C23.1184 14.2655 23.0995 14.4784 23.0597 14.6855C23.0257 14.8653 22.9822 15.0469 22.9661 15.2305C22.9538 15.3724 22.9311 15.5124 22.9018 15.6515C22.8516 15.8908 22.7674 16.1207 22.6832 16.3487C22.6577 16.4178 22.616 16.4764 22.5877 16.5446C22.5602 16.607 22.5394 16.6751 22.5158 16.7394C22.4675 16.8728 22.3947 16.9949 22.3313 17.1226C22.2783 17.2295 22.2017 17.3137 22.1411 17.4149C22.073 17.5294 22.0077 17.641 21.9273 17.747C21.7911 17.9268 21.6927 18.1321 21.564 18.3184C21.4959 18.4168 21.4316 18.519 21.3578 18.6136C21.2783 18.7148 21.2178 18.8198 21.1525 18.9286C21.09 19.0336 21.0039 19.1188 20.933 19.2162C20.8356 19.3525 20.7409 19.4821 20.6217 19.6003C20.5243 19.6968 20.4401 19.8 20.3493 19.9021C20.2651 19.9967 20.1383 20.0923 20.0371 20.1689C19.9595 20.2285 19.8772 20.2843 19.7968 20.3411C19.7476 20.3752 19.6946 20.4064 19.6482 20.4433C19.582 20.4953 19.5101 20.5294 19.4429 20.5786C19.3464 20.6505 19.2632 20.7262 19.1724 20.8056C19.0276 20.9324 18.8621 21.0402 18.7097 21.1576C18.4808 21.3335 18.249 21.5152 18.003 21.6656C17.9349 21.7072 17.8744 21.7574 17.8072 21.7971C17.7391 21.8368 17.6804 21.8926 17.6114 21.9295C17.5641 21.9541 17.512 21.9674 17.4657 21.9939C17.407 22.027 17.3626 22.0629 17.3001 22.0885C17.1752 22.1396 17.0721 22.2209 16.9444 22.2663C16.8119 22.3136 16.6804 22.3695 16.5461 22.412C16.4685 22.4366 16.3891 22.4433 16.3124 22.465C16.2405 22.4849 16.1743 22.518 16.1005 22.5322C16.0419 22.5435 15.9832 22.5511 15.9255 22.57C15.864 22.5899 15.7968 22.5956 15.7372 22.6192C15.6104 22.6684 15.4714 22.676 15.3446 22.7233C15.2954 22.7413 15.2566 22.764 15.2046 22.7763C15.1497 22.7886 15.0948 22.799 15.0419 22.817C14.9548 22.8482 14.8716 22.8557 14.7817 22.8728C14.7032 22.8879 14.6332 22.922 14.5527 22.9305C14.4884 22.9371 14.4279 22.9503 14.3635 22.9626C14.1166 23.0118 13.8754 23.0828 13.6341 23.1509C13.566 23.1698 13.4969 23.1717 13.4298 23.1869C13.356 23.2029 13.286 23.2313 13.2093 23.2427C13.11 23.2578 13.1431 23.1935 13.1299 23.1206C13.1062 22.991 13.093 22.8652 13.093 22.7337C13.092 22.5918 13.1072 22.4499 13.1128 22.308C13.1147 22.238 13.1346 22.1698 13.1355 22.0998C13.1365 22.0033 13.1469 21.9097 13.1535 21.8132C13.1583 21.7347 13.1583 21.6571 13.1706 21.5786C13.18 21.5152 13.1942 21.4499 13.198 21.3856C13.2027 21.2957 13.197 21.203 13.197 21.1121C13.198 20.9333 13.1706 20.764 13.1441 20.588C13.1308 20.4963 13.1422 20.4064 13.1157 20.3175C13.1081 20.29 13.1015 20.272 13.1072 20.2456C13.1147 20.2124 13.1251 20.2172 13.1422 20.1926C13.1478 20.185 13.1554 20.1727 13.163 20.1595C13.1753 20.1585 13.1876 20.1604 13.2008 20.1595C13.2954 20.1481 13.391 20.1273 13.4856 20.1141C13.5632 20.1036 13.6407 20.1036 13.7183 20.0961C13.8016 20.0866 13.8839 20.0592 13.9662 20.0478C14.0438 20.0365 14.1204 20.0261 14.197 20.0176C14.2841 20.0071 14.3588 19.9759 14.4421 19.9542C14.5461 19.9277 14.6511 19.9031 14.7552 19.8756C14.9633 19.8227 15.1904 19.7848 15.3626 19.6467C15.4175 19.6032 15.4648 19.5493 15.5121 19.4982C15.5471 19.4594 15.5518 19.4755 15.5367 19.4348C15.5196 19.3884 15.4799 19.3496 15.4562 19.3071C15.426 19.2531 15.408 19.1945 15.3796 19.1396C15.338 19.062 15.3077 18.9968 15.2755 18.9144C15.2481 18.8425 15.2131 18.7716 15.1781 18.7044C15.1497 18.6495 15.1242 18.66 15.0712 18.6789C14.9965 18.7054 14.9264 18.7432 14.8536 18.7782C14.8158 18.7971 14.7883 18.8028 14.7467 18.8104C14.6861 18.8208 14.6294 18.8501 14.5717 18.8709C14.4496 18.9163 14.3257 18.9372 14.2008 18.975C14.0627 19.0176 13.9189 19.0535 13.776 19.0753C13.6805 19.0904 13.5811 19.0933 13.4846 19.1046C13.3494 19.1207 13.216 19.1519 13.0807 19.1727C13.0192 19.1831 12.9577 19.1926 12.8962 19.2039C12.4061 19.1831 11.9142 19.221 11.4241 19.2058C11.2888 19.2011 11.1469 19.1737 11.0126 19.1529C10.9492 19.1424 10.8868 19.1235 10.8234 19.1197C10.7467 19.116 10.6701 19.1264 10.5935 19.1169C10.3276 19.0828 10.0618 19.0403 9.83001 18.8974C9.70986 18.8236 9.58119 18.7621 9.4582 18.694C9.39198 18.6571 9.33143 18.6127 9.26426 18.5767C9.16019 18.5199 9.07221 18.4395 8.96814 18.3846C8.86408 18.3307 8.76852 18.2673 8.65973 18.2238C8.50268 18.1614 8.34185 18.1122 8.18196 18.0583C7.97951 17.9911 7.75056 17.9703 7.57365 17.835C7.58311 17.7688 7.61811 17.7025 7.65785 17.641C7.67204 17.6212 7.68718 17.6013 7.70042 17.5805C7.75056 17.5058 7.81489 17.4443 7.8726 17.3752C7.89625 17.3478 7.91801 17.3194 7.94072 17.2919C8.00978 17.2286 8.07506 17.1633 8.14034 17.0971C8.21886 17.0185 8.30495 16.9495 8.38348 16.8728C8.50363 16.7536 8.58972 16.6089 8.69095 16.4736C8.71271 16.4452 8.73541 16.4178 8.75906 16.3904C8.78461 16.361 8.81204 16.3317 8.83853 16.3024C8.90381 16.2276 8.95584 16.1434 9.02964 16.0772C9.06464 16.045 9.09492 16.0157 9.12424 15.9779C9.13465 15.9656 9.146 15.9542 9.15641 15.9429C9.1706 15.9608 9.18385 15.9798 9.19898 15.9968C9.28224 16.0895 9.39198 16.168 9.48659 16.2494C9.57362 16.3241 9.66634 16.3903 9.76094 16.4556C9.86407 16.5266 9.96151 16.6089 10.0675 16.6751C10.1678 16.7385 10.2784 16.7915 10.3844 16.8464C10.532 16.9239 10.7089 16.9608 10.8735 16.9845C11.0022 17.0025 11.1271 16.9902 11.2567 16.9968C11.2907 16.9987 11.3276 16.9987 11.3598 17.0119C11.4383 16.9116 11.4695 16.7707 11.5339 16.6619C11.5887 16.5673 11.6531 16.4793 11.6956 16.3781C11.7089 16.3487 11.7401 16.2853 11.7373 16.2503C11.6152 16.239 11.4913 16.1813 11.373 16.1529C11.1886 16.1075 11.0239 16.0356 10.8489 15.9618C10.7335 15.9126 10.6219 15.8587 10.514 15.7953C10.4099 15.7338 10.3229 15.6524 10.2217 15.5881C10.0977 15.5077 9.98232 15.4187 9.86407 15.3298C9.80446 15.2844 9.74108 15.2466 9.67958 15.2068C9.66444 15.1851 9.65025 15.1643 9.63701 15.1482C9.6143 15.1198 9.58876 15.0933 9.56416 15.0659C9.56795 15.0517 9.57173 15.0375 9.57362 15.0186C9.532 14.9788 9.49888 14.9315 9.45726 14.8908C9.41279 14.8539 9.36738 14.818 9.32292 14.782C9.28129 14.7357 9.24345 14.6865 9.20939 14.6335C9.09019 14.4746 8.94733 14.3355 8.82245 14.1803C8.76474 14.1084 8.72879 14.0328 8.67959 13.9561C8.64175 13.8984 8.59161 13.8511 8.55755 13.7906C8.49417 13.678 8.43362 13.5607 8.37591 13.4453C8.3428 13.3809 8.33239 13.3071 8.30874 13.2381C8.27563 13.1435 8.24157 13.0479 8.21886 12.9495C8.16872 12.7291 8.1848 12.4992 8.1621 12.2759C8.14507 12.1132 8.15737 11.9439 8.15737 11.7802C8.15737 11.6638 8.1744 11.5333 8.15737 11.4188C8.08074 11.3828 7.98708 11.3734 7.90571 11.3497C7.82625 11.3213 7.74488 11.2977 7.66163 11.2788C7.61811 11.274 7.57554 11.2636 7.53391 11.2494C7.51026 11.2362 7.48756 11.2239 7.4639 11.2107C7.44498 11.2059 7.42512 11.2059 7.40619 11.2088C7.38065 11.2012 7.37592 11.1794 7.3447 11.1851C7.30213 11.1936 7.24442 11.2807 7.22455 11.309C7.18198 11.3743 7.17157 11.4529 7.13751 11.521C7.10535 11.5853 7.0817 11.6411 7.0694 11.7121C7.04291 11.8587 7.03534 11.9874 7.0325 12.1369C7.03155 12.2154 7.05804 12.2721 7.07034 12.3478C7.07318 12.3838 7.07507 12.4188 7.07696 12.4547C7.09305 12.503 7.11102 12.5512 7.13278 12.5976C7.18482 12.7565 7.21982 12.9202 7.27753 13.0772C7.30686 13.1558 7.31443 13.2371 7.34281 13.3147C7.38065 13.4169 7.42985 13.5153 7.46958 13.6174C7.52067 13.7489 7.59351 13.8681 7.65312 13.9959C7.71461 14.1283 7.73921 14.2787 7.82908 14.3961C7.94734 14.5512 8.03911 14.7262 8.17345 14.8681C8.24819 14.9467 8.2813 15.0479 8.35415 15.1264C8.40335 15.1784 8.46105 15.2191 8.51593 15.2645C8.50646 15.2768 8.497 15.2872 8.48849 15.2986C8.32388 15.5247 8.18196 15.7678 7.99181 15.9731C7.79597 16.1851 7.59068 16.3818 7.35605 16.5502C7.19522 16.6657 7.05615 16.7867 6.92654 16.9353C6.89154 16.8937 6.85559 16.8539 6.82153 16.8123C6.74395 16.7186 6.66637 16.6259 6.60015 16.5228C6.55285 16.449 6.51122 16.3714 6.46108 16.2995C6.37404 16.1737 6.28322 16.0564 6.20659 15.922C6.16023 15.8416 6.1186 15.7565 6.06941 15.677C6.0221 15.6004 5.95588 15.537 5.90952 15.4575C5.83195 15.327 5.76478 15.1898 5.68341 15.0621C5.62665 14.9741 5.5661 14.8871 5.52258 14.7915C5.48001 14.7007 5.44406 14.6042 5.39676 14.5162C5.32486 14.3828 5.23687 14.2551 5.1593 14.1236C5.11767 14.0536 5.0732 13.9855 5.03252 13.9155C4.98995 13.8426 4.96914 13.7612 4.93035 13.6874C4.85088 13.5332 4.80358 13.3592 4.76384 13.1898C4.70708 12.9514 4.64842 12.6941 4.64085 12.4453C4.6891 12.4453 4.73641 12.4424 4.78182 12.4368C4.80168 12.3459 4.78371 12.2286 4.78371 12.1359C4.78371 12.0413 4.78371 11.9467 4.78371 11.8521C4.78371 11.5825 4.81209 11.3166 4.85939 11.0508C4.87548 10.9581 4.88494 10.8682 4.88777 10.7745C4.89156 10.6705 4.91237 10.5806 4.92373 10.4775C4.95116 10.2324 5.02495 10.0044 5.09686 9.76791C5.15362 9.58248 5.20849 9.39895 5.24823 9.20879C5.25958 9.15297 5.29931 9.08391 5.28228 9.02525C5.19051 9.00255 5.09118 9.01106 4.99941 8.98552C4.93224 8.96565 4.86507 8.93916 4.79695 8.92119C4.68059 8.89091 4.55287 8.93916 4.43556 8.93822C4.36933 8.93822 4.3646 8.94295 4.34095 9.00444C4.30406 9.10472 4.28608 9.21636 4.23972 9.31286C4.18012 9.4349 4.09876 9.5418 4.04862 9.66952C4.03254 9.7102 4.03632 9.7471 4.02497 9.78967C4.00132 9.87765 3.94361 9.94956 3.92374 10.0356C3.89914 10.1435 3.86414 10.2523 3.82724 10.3564C3.78183 10.4831 3.76858 10.608 3.74209 10.7386C3.70047 10.9458 3.7298 11.1681 3.76858 11.3753C3.78467 11.4642 3.80548 11.5588 3.83102 11.6449C3.85468 11.7253 3.86887 11.8057 3.89063 11.8861C3.89063 11.889 3.89252 11.8918 3.89346 11.8947C3.89252 11.8947 3.89157 11.8947 3.88968 11.8947C3.70804 11.8947 3.52923 11.872 3.34853 11.8738C3.23311 11.8757 3.12148 11.8606 3.007 11.8549C2.8386 11.8464 2.6702 11.854 2.50275 11.853C2.24258 11.853 1.98336 11.853 1.7232 11.853H1.12812C1.09217 11.853 0.961617 11.8748 0.934181 11.8474C0.91526 11.8284 0.931342 11.7395 0.931342 11.714C0.931342 11.6525 0.931342 11.59 0.931342 11.5285C0.931342 11.3611 0.937964 11.205 0.962562 11.0394C1.02879 10.5796 1.21327 10.1454 1.40248 9.72439C1.52263 9.45855 1.65035 9.19176 1.75536 8.92024C1.82348 8.74616 1.89916 8.57682 1.97201 8.40558C2.0458 8.23245 2.10162 8.05081 2.18393 7.88146C2.30219 7.63738 2.39963 7.38478 2.51411 7.1407C2.59452 6.96946 2.65223 6.78782 2.74778 6.62415C2.78184 6.56738 2.82631 6.5163 2.85658 6.45764C2.89915 6.37249 2.93794 6.31005 3.00417 6.24005C3.17446 6.06029 3.30312 5.84459 3.47625 5.66389C3.67682 5.45576 3.87454 5.22303 4.01456 4.96854C4.07227 4.86447 4.13282 4.76324 4.19147 4.66107C4.22932 4.59579 4.2823 4.52956 4.30973 4.45956C4.33527 4.45483 4.37596 4.50118 4.39204 4.51537C4.47529 4.58444 4.55098 4.66201 4.61342 4.75094C4.66545 4.82379 4.7137 4.89947 4.76668 4.97137C4.83764 5.06598 4.91805 5.15113 4.98333 5.24952C5.09969 5.42832 5.2293 5.58442 5.35892 5.75282C5.47055 5.79729 5.56421 5.86351 5.63989 5.94487C5.66828 5.93447 5.69666 5.92501 5.72599 5.91649C5.78275 5.85784 5.84898 5.80675 5.92466 5.76701C5.98805 5.66957 6.06846 5.58442 6.17158 5.52104C6.22078 5.434 6.28038 5.35358 6.35796 5.28925C6.32011 5.23438 6.28416 5.17762 6.24159 5.12558C6.19997 5.0745 6.15171 5.02909 6.10914 4.97894C6.06373 4.92691 6.0221 4.87393 5.97386 4.82379C5.92182 4.76986 5.86317 4.73581 5.80451 4.69039C5.54813 4.49172 5.29364 4.27696 5.07699 4.03477C5.01171 3.96193 4.93981 3.90138 4.86885 3.8361C4.81304 3.78407 4.76384 3.72636 4.71086 3.67338C4.72127 3.66202 4.73168 3.65067 4.74492 3.63932C4.7733 3.61567 4.8102 3.60999 4.84331 3.59296C4.91143 3.55985 4.97765 3.52106 5.04577 3.487C5.18011 3.41983 5.29837 3.32901 5.42608 3.25049C5.47433 3.22116 5.53204 3.20035 5.58502 3.18048C5.65976 3.1521 5.72977 3.1152 5.80167 3.08209C5.99845 2.99127 6.2151 2.92977 6.39864 2.81151C6.55095 2.71312 6.69665 2.60527 6.84991 2.50783C6.9975 2.41417 7.16873 2.3593 7.33051 2.29496C7.40619 2.26469 7.47715 2.22874 7.55189 2.19563C7.62379 2.16441 7.69758 2.14549 7.76759 2.10859C7.86125 2.05939 7.94829 2.01587 8.04857 1.97898C8.17534 1.93262 8.28887 1.86261 8.40524 1.7945C8.54525 1.71408 8.69662 1.66016 8.84232 1.59204C8.9776 1.52865 9.12046 1.49365 9.25953 1.43972C9.39103 1.38769 9.51875 1.33282 9.65498 1.29592C9.85933 1.24105 10.058 1.17956 10.2699 1.15969C10.4563 1.14266 10.6379 1.12941 10.8253 1.12847C11.2699 1.12847 11.7146 1.12847 12.1592 1.12847C12.5376 1.12847 12.9255 1.10293 13.3002 1.15969C13.4742 1.18618 13.6521 1.21078 13.8262 1.22875C14.023 1.24862 14.2188 1.27795 14.4146 1.30822C14.5509 1.32809 14.6786 1.35552 14.8167 1.35836C14.9094 1.35931 14.9974 1.36593 15.0882 1.38391C15.2339 1.41323 15.3664 1.45108 15.5054 1.50216C15.6909 1.57028 15.8687 1.64975 16.0447 1.73773C16.2169 1.82477 16.3891 1.90519 16.565 1.98371C16.6549 2.02344 16.7505 2.04899 16.8394 2.09061C16.9151 2.12656 16.9917 2.15684 17.0702 2.18522C17.1677 2.22117 17.2519 2.26658 17.3427 2.31578C17.4345 2.36497 17.531 2.40376 17.6208 2.45769C17.7249 2.52013 17.8337 2.57973 17.933 2.65068C18.056 2.73678 18.1733 2.83044 18.3039 2.90423C18.6199 3.08398 18.9472 3.24859 19.2566 3.44064C19.4155 3.53904 19.5867 3.62418 19.705 3.77366C19.8025 3.89665 19.8952 3.99315 19.9576 4.13979C19.9746 4.17763 20.0229 4.24101 20.0059 4.28453C19.9964 4.31102 19.9661 4.32143 19.9434 4.33562C19.9112 4.35643 19.8895 4.38292 19.8621 4.40847C19.7173 4.53619 19.6028 4.68093 19.477 4.82663C19.3682 4.95151 19.2443 5.0603 19.1184 5.16816C19.039 5.23627 18.9463 5.29398 18.8725 5.36777C18.775 5.46617 18.6927 5.57496 18.5877 5.66673C18.4184 5.81526 18.2519 5.97326 18.0929 6.13314C18.038 6.18801 17.9699 6.25329 17.9359 6.32424C17.9207 6.35641 17.9236 6.3829 17.9236 6.4179C17.6152 6.276 17.4931 6.4198 17.424 6.60333C17.4032 6.66104 17.3673 6.71781 17.3938 6.77552C17.4146 6.82282 17.4704 6.85782 17.5045 6.89567C17.6303 7.03758 17.7646 7.17381 17.8819 7.32423C17.9605 7.42546 18.057 7.50872 18.1383 7.60616C18.2396 7.72631 18.3011 7.872 18.3711 8.01202C18.4808 8.23056 18.5631 8.46235 18.6738 8.68089C18.7646 8.85969 18.8583 9.03566 18.9453 9.21636C19.0891 9.51247 19.2064 9.83603 19.2689 10.1615C19.3209 10.4302 19.2973 10.7149 19.2991 10.9874C19.3001 11.135 19.2878 11.2863 19.2755 11.433C19.25 11.4481 19.214 11.4377 19.1856 11.4368C19.1393 11.4358 19.0929 11.4368 19.0465 11.4368C18.7958 11.4368 18.5631 11.4566 18.3133 11.4992C18.0749 11.5399 17.8413 11.5569 17.6 11.5673C17.3767 11.5768 17.1554 11.5976 16.9321 11.6042C16.6019 11.6137 16.2623 11.6137 15.9378 11.6875C15.916 11.7433 15.9141 11.8133 15.9047 11.8738C15.8876 11.9751 15.881 12.0773 15.8725 12.1794C15.8602 12.3478 15.8347 12.5134 15.8176 12.6808C15.7968 12.8786 15.7505 13.0886 15.6965 13.2797C15.671 13.3724 15.6417 13.4642 15.6152 13.5569C15.6038 13.5966 15.584 13.6524 15.5925 13.696C15.6067 13.7726 15.7155 13.7972 15.7836 13.8246C15.9775 13.9032 16.1809 13.9514 16.3796 14.0176C16.4203 14.0318 16.513 14.0876 16.5537 14.0526C16.583 14.0271 16.6057 13.9505 16.6208 13.9145C16.67 13.8029 16.7079 13.6789 16.7779 13.5777C16.8432 13.4822 16.8829 13.3734 16.9435 13.2759C16.9586 13.2504 16.9851 13.2324 17.0031 13.2087C17.0399 13.1595 17.0627 13.0943 17.0939 13.0432C17.1639 12.9287 17.2263 12.8171 17.284 12.6969C17.319 12.6212 17.3569 12.5503 17.3872 12.4737C17.408 12.4216 17.4486 12.3734 17.4439 12.3138C17.5243 12.3005 17.6123 12.3119 17.6937 12.3119C17.7788 12.3109 17.8555 12.3176 17.9387 12.3317C18.0352 12.3488 18.1383 12.3715 18.2367 12.3753C18.3398 12.379 18.4411 12.3705 18.5442 12.3838C18.6918 12.4018 18.8394 12.433 18.9888 12.4377C19.1345 12.4424 19.2821 12.4368 19.4278 12.4368H19.6397C19.6341 12.4878 19.6293 12.5389 19.6227 12.591C19.5981 12.7736 19.5707 12.9571 19.547 13.1397C19.5082 13.4415 19.4666 13.7433 19.4278 14.0451C19.4174 14.1274 19.4023 14.2049 19.3815 14.2863C19.3644 14.3535 19.3625 14.4244 19.3417 14.4897C19.3237 14.5455 19.2925 14.5919 19.2774 14.6477C19.266 14.6922 19.2547 14.7366 19.2405 14.7811C19.2131 14.8681 19.1856 14.9504 19.1326 15.0271C19.0787 15.1065 19.004 15.1709 18.9453 15.2475C18.8744 15.3412 18.811 15.4433 18.7372 15.5351C18.705 15.5739 18.652 15.6382 18.6085 15.6685C18.5896 15.6817 18.5555 15.6808 18.548 15.7007C18.6114 15.748 18.7476 15.7357 18.8214 15.7499C18.9756 15.7811 19.1355 15.8369 19.2859 15.8842C19.3606 15.9079 19.4363 15.923 19.512 15.9448C19.5839 15.9646 19.6464 16.0025 19.7164 16.0252C19.7533 16.0365 19.7514 16.0394 19.7769 16.0062C19.8233 15.9429 19.8498 15.8501 19.8819 15.7792C19.9302 15.6695 19.9463 15.554 19.9784 15.4396C20.0002 15.3648 20.0286 15.2939 20.056 15.221C20.0787 15.1586 20.0834 15.0971 20.0995 15.0328C20.1345 14.8861 20.1771 14.7451 20.2253 14.6032C20.2698 14.4736 20.3076 14.326 20.3199 14.1898C20.3332 14.0337 20.3814 13.8814 20.4041 13.7262C20.4183 13.6288 20.424 13.5361 20.4231 13.4377C20.4221 13.2882 20.4278 13.1378 20.424 12.9874C20.4202 12.8492 20.4051 12.7225 20.4183 12.5843C20.4231 12.5342 20.424 12.4869 20.4221 12.4386C20.4373 12.4386 20.4533 12.4396 20.4647 12.4349C20.4789 12.2438 20.4647 12.0451 20.4647 11.853C20.4647 11.7707 20.4694 11.6865 20.4647 11.6033C20.4619 11.5399 20.4373 11.4765 20.4278 11.4112C20.4098 11.2949 20.3928 11.1757 20.3758 11.0583C20.3644 10.977 20.3578 10.8956 20.3408 10.8161C20.3209 10.7215 20.2821 10.6326 20.2556 10.5408C20.1884 10.3091 20.1591 10.0688 20.1109 9.83319C20.0967 9.76886 20.0929 9.71209 20.091 9.64682C20.0891 9.5787 20.0664 9.51531 20.0475 9.45098C20.0238 9.36867 20.003 9.28731 19.9813 9.205C19.9368 9.02998 19.8602 8.86915 19.7864 8.70643C19.7533 8.63453 19.7145 8.55979 19.6889 8.486C19.6009 8.23624 19.5196 7.99026 19.3559 7.77645C19.2727 7.66671 19.1695 7.5721 19.0863 7.46141C19.0465 7.40843 19.004 7.35829 18.9642 7.30626C18.934 7.26841 18.9103 7.22679 18.8658 7.20503C18.9122 7.15583 18.9945 7.12083 19.0494 7.0792C19.092 7.04704 19.1222 7.00636 19.1724 6.98081C19.2717 6.92972 19.3342 6.85404 19.4221 6.78498C19.5319 6.69983 19.6464 6.6232 19.7495 6.52859C19.8829 6.40655 19.9661 6.2637 20.0759 6.12463C20.1317 6.05273 20.196 5.98745 20.2509 5.91365C20.3152 5.82662 20.3682 5.73296 20.4297 5.64403C20.6075 5.3867 20.8526 5.16343 21.0815 4.95056C21.1506 4.88528 21.2168 4.81811 21.283 4.75C21.3303 4.7008 21.4098 4.66012 21.4505 4.60525C21.3389 4.39144 21.2641 4.15776 21.1515 3.94395C21.004 3.66108 20.8251 3.39713 20.5423 3.23157C20.46 3.18332 20.3862 3.13412 20.3171 3.066C20.267 3.01492 20.2197 2.96572 20.1638 2.92126C20.0257 2.81435 19.8772 2.72353 19.7324 2.62703C19.3398 2.36213 18.9765 2.05845 18.5868 1.79071C18.1998 1.52487 17.7921 1.29971 17.3616 1.11333C17.162 1.02629 16.9643 0.935472 16.7609 0.856949C16.6909 0.830459 16.6218 0.800184 16.5518 0.773694C16.4297 0.728283 16.302 0.707471 16.1771 0.670574C15.8205 0.565561 15.4629 0.433114 15.093 0.382972C14.9047 0.357429 14.7145 0.352697 14.5282 0.316746C14.3692 0.285526 14.2093 0.262821 14.0494 0.233493C13.8479 0.196597 13.6493 0.153078 13.4459 0.124696C13.3569 0.112398 13.2708 0.0925309 13.1857 0.0613108C13.1299 0.0414435 13.075 0.0158993 13.0154 0.00643865C12.9265 -0.00680623 12.83 0.00454628 12.741 0.00360021C12.6341 0.00360021 12.5282 0.00360071 12.4203 0.00927708C12.1961 0.0206298 11.9596 0.0092759 11.7373 0.0442802C11.3484 0.105774 10.9615 0.169161 10.5698 0.21741C10.4695 0.230655 10.3702 0.244847 10.2699 0.258092C10.2113 0.26566 10.1536 0.282689 10.0949 0.291204C10.0135 0.303503 9.92745 0.300664 9.84704 0.321478C9.54146 0.400947 9.22263 0.434059 8.91516 0.516366C8.77231 0.554208 8.6304 0.598674 8.48754 0.640301C8.38631 0.669629 8.28414 0.697065 8.18575 0.734907C8.06749 0.781264 7.95586 0.843704 7.84044 0.896684C7.67866 0.96953 7.53675 1.07265 7.36835 1.1332C7.2132 1.18902 7.07129 1.26659 6.92654 1.34606C6.77139 1.43026 6.61812 1.51541 6.45824 1.59015C6.27092 1.67718 6.11482 1.78787 5.94453 1.90045C5.57556 2.14454 5.18862 2.3574 4.80074 2.56838C4.64842 2.65068 4.47908 2.72353 4.34757 2.83706C4.24351 2.92599 4.18012 3.02154 4.1016 3.12939C4.0893 3.12182 4.07795 3.11331 4.06565 3.10669C4.01456 3.07736 3.97199 3.0783 3.92374 3.10858C3.7894 3.19183 3.6683 3.30252 3.55477 3.41037C3.45828 3.50214 3.3438 3.55985 3.25203 3.65919C3.18108 3.73393 3.11486 3.84934 3.06566 3.93922C3.01363 4.03572 2.94362 4.11708 2.88875 4.21169C2.83009 4.31292 2.75346 4.41036 2.67872 4.50024C2.51221 4.70269 2.27948 4.86731 2.16122 5.10477C2.09784 5.23154 1.99661 5.32804 1.94079 5.46144C1.89065 5.57969 1.8197 5.68187 1.75442 5.79256C1.61345 6.03002 1.50844 6.26653 1.42613 6.53049C1.37694 6.68942 1.31355 6.84742 1.27666 7.01014C1.24449 7.15394 1.20002 7.27977 1.14894 7.41789C1.12718 7.4756 1.12623 7.5371 1.10447 7.59386C1.08461 7.64589 1.04676 7.68752 1.02406 7.73955C0.966346 7.87484 0.916206 8.01391 0.858496 8.1492C0.750645 8.39991 0.661715 8.66291 0.589814 8.92497C0.53305 9.13216 0.466826 9.33651 0.421415 9.54653C0.400602 9.63925 0.393032 9.73291 0.36465 9.82468C0.342891 9.89279 0.318294 9.95807 0.301264 10.0271C0.288966 10.0763 0.265315 10.1198 0.263423 10.1719C0.261531 10.2485 0.252069 10.3166 0.238824 10.3923C0.20382 10.6052 0.171654 10.819 0.140434 11.0309C0.13665 11.0574 0.122458 11.0782 0.117728 11.1056C0.106375 11.1766 0.119621 11.2608 0.119621 11.3336V11.7102C0.119621 11.7811 0.112053 11.8379 0.0997538 11.906C0.0902931 11.9618 0.0988082 12.0262 0.0988082 12.082V12.3734C0.0988082 12.4122 0.095969 12.4547 0.0940769 12.4973C0.0401513 12.5001 0.0174462 12.4964 0.014608 12.5635C0.00609344 12.7433 0.0193373 12.924 0.0164991 13.1037C0.0117688 13.3138 -0.0156668 13.5153 0.0127151 13.7262C0.0486655 14.0053 0.11489 14.2702 0.196251 14.5399C0.278559 14.8104 0.360867 15.0857 0.464934 15.3487C0.527374 15.5096 0.565216 15.6789 0.639009 15.835C0.683474 15.9296 0.721317 16.0214 0.750645 16.1207C0.767674 16.1775 0.780919 16.238 0.812139 16.2891C0.864173 16.3733 0.89823 16.4585 0.940803 16.5474C0.962563 16.5919 0.988106 16.6316 1.01365 16.6732C1.03257 16.7054 1.04865 16.7622 1.07325 16.7877C1.09974 16.8151 1.10258 16.8095 1.14894 16.8095C1.16597 16.8095 1.18205 16.8085 1.19813 16.8076C1.21895 16.8568 1.23976 16.906 1.25963 16.9551C1.32207 17.1131 1.40248 17.2532 1.48195 17.4017C1.57277 17.5739 1.6986 17.7328 1.81686 17.887C1.91903 18.0204 1.99377 18.1727 2.09784 18.3052C2.15555 18.379 2.21988 18.448 2.27286 18.5266C2.34476 18.6316 2.39869 18.746 2.47153 18.8501C2.56803 18.9863 2.66075 19.1292 2.76292 19.2617C2.82158 19.3373 2.88969 19.4045 2.94456 19.484C3.00984 19.5795 3.06377 19.676 3.13661 19.7668C3.24825 19.9059 3.34475 20.0535 3.47057 20.1822C3.62857 20.343 3.76196 20.5303 3.92941 20.6817C4.08457 20.8208 4.25959 20.9419 4.42515 21.0696C4.49516 21.1244 4.57652 21.1623 4.63991 21.2247C4.69383 21.2777 4.74681 21.3241 4.80642 21.3714C4.88305 21.4329 4.95211 21.5019 5.02685 21.5672C5.12335 21.6523 5.22552 21.7261 5.31634 21.8179C5.42419 21.9277 5.53867 22.0327 5.64084 22.1481C5.68531 22.1982 5.72409 22.2597 5.77424 22.3061C5.8187 22.3468 5.87357 22.3761 5.91804 22.4196C6.19429 22.6864 6.51217 22.9191 6.85369 23.097C7.01925 23.1831 7.18198 23.2313 7.35889 23.2834C7.56419 23.3439 7.76381 23.4243 7.97099 23.4735C8.06844 23.4972 8.15548 23.5274 8.24914 23.5625C8.3428 23.5975 8.44024 23.606 8.53674 23.6296C8.5708 23.6381 8.6058 23.6523 8.63986 23.658C8.66919 23.6627 8.70892 23.6542 8.73825 23.6599C8.76947 23.6665 8.81299 23.6958 8.84705 23.6835C8.90949 23.6618 8.90097 23.5076 8.9057 23.4555C8.92273 23.2862 8.9672 23.1102 9.02775 22.9513C9.05045 22.8907 9.06275 22.8293 9.07978 22.764C9.08546 22.7403 9.111 22.6845 9.11195 22.6618C9.11478 22.6211 9.08167 22.6098 9.0514 22.5899C8.72122 22.3818 8.35604 22.2436 8.00789 22.0677C7.90098 22.0137 7.78367 21.9806 7.67298 21.9352C7.55 21.8841 7.42512 21.8368 7.30118 21.7857C7.20847 21.7479 7.12048 21.6997 7.02872 21.6609C6.97763 21.6391 6.92276 21.6278 6.86978 21.6088C6.79125 21.5795 6.72314 21.5388 6.64745 21.5C6.55285 21.4508 6.44973 21.4187 6.35701 21.3685C6.28038 21.3269 6.21037 21.273 6.13752 21.2247C5.97102 21.1131 5.79694 21.0175 5.6257 20.9135C5.3996 20.7763 5.16403 20.6306 4.96157 20.4603C4.86602 20.3808 4.77519 20.2976 4.6787 20.22C4.57747 20.1377 4.51313 20.044 4.43083 19.9438C4.09024 19.5284 3.75723 19.1055 3.47057 18.6505C3.14229 18.1292 2.70994 17.6789 2.38828 17.1538C2.26056 16.9447 2.14893 16.7158 2.05053 16.4916C2.00229 16.3837 1.95782 16.273 1.90957 16.1661C1.88781 16.1198 1.84902 16.0734 1.84335 16.0223C1.83767 16.0204 1.83294 16.0195 1.8897 15.9977C1.86794 15.9987 1.84335 16.0119 1.81969 16.0252C1.81591 16.0015 1.81118 15.9769 1.8074 15.9533C1.76577 15.7026 1.66359 15.4802 1.59642 15.238C1.47817 14.8133 1.39586 14.3904 1.3268 13.9552C1.30598 13.8227 1.29841 13.6893 1.28044 13.5559C1.26909 13.4727 1.24449 13.3923 1.2426 13.3071C1.23976 13.186 1.24354 13.063 1.24449 12.942C1.24449 12.8909 1.23881 12.8417 1.23314 12.7925C1.31166 12.7934 1.39018 12.7934 1.46776 12.7868C1.63237 12.7736 1.78942 12.7471 1.95498 12.748C2.14609 12.7499 2.33814 12.749 2.53019 12.749H3.38448C3.44219 12.749 3.50085 12.7461 3.55761 12.748C3.69763 12.7527 3.89063 12.8549 4.01172 12.7367C4.01551 12.7433 4.02118 12.7461 4.02875 12.7452C4.05619 12.7026 4.12241 12.7338 4.14701 12.7594C4.18391 12.7963 4.19242 12.8653 4.20188 12.9145C4.21134 12.9675 4.2208 13.0176 4.22175 13.0716C4.22269 13.1482 4.25013 13.2258 4.26054 13.3015C4.29554 13.5427 4.33149 13.7802 4.39866 14.0148C4.4734 14.2759 4.54341 14.537 4.62761 14.7953C4.68626 14.9779 4.7733 15.1557 4.85372 15.3289C4.89913 15.4244 4.94832 15.5219 5.01266 15.6051C5.10537 15.7262 5.16308 15.8738 5.24633 16.0015C5.31918 16.1141 5.3977 16.2248 5.47528 16.3345C5.58502 16.4925 5.71747 16.6316 5.82532 16.7905C5.88682 16.8804 5.9625 16.9712 6.03346 17.0545C6.09779 17.1311 6.15739 17.2096 6.22645 17.2834C6.28606 17.3478 6.34187 17.4149 6.39769 17.4821C6.37782 17.5058 6.35701 17.5275 6.3239 17.537C6.41472 17.6798 6.56893 17.7924 6.69097 17.9069C6.80261 18.01 6.91803 18.1084 7.03818 18.2021C7.16779 18.3014 7.3097 18.3865 7.44214 18.483C7.60676 18.6022 7.77611 18.7139 7.94734 18.8236C8.19143 18.9807 8.43551 19.1339 8.70419 19.2437C8.9549 19.3458 9.21885 19.4178 9.47996 19.4849C9.72783 19.5493 9.97854 19.6032 10.2245 19.6732C10.3674 19.7139 10.5102 19.7801 10.6578 19.7971C10.8101 19.8151 10.9643 19.8132 11.1157 19.8387C11.234 19.8586 11.3494 19.8908 11.4676 19.9125C11.5613 19.9305 11.6597 19.9362 11.7524 19.9561C11.7902 19.9636 11.8357 19.9788 11.8461 20.0185C11.8612 20.0724 11.8423 20.15 11.83 20.203C11.7997 20.3373 11.7675 20.4641 11.759 20.6032C11.7486 20.7744 11.707 20.939 11.6862 21.1093C11.6417 21.4594 11.6521 21.817 11.6304 22.1689C11.602 22.6287 11.4885 23.0856 11.4894 23.5464C11.4894 23.6627 11.4885 23.8292 11.5916 23.9059C11.6247 23.9305 11.6758 23.9305 11.7127 23.9447C11.7798 23.9693 11.8177 23.9711 11.8934 23.973C12.0305 23.9749 12.1677 23.9939 12.3059 23.9948C12.4355 23.9967 12.5793 24.009 12.7079 23.9872C13.0826 23.921 13.4695 23.8841 13.8319 23.763C14.0211 23.7006 14.2093 23.6448 14.4033 23.5965C14.548 23.5596 14.6956 23.5379 14.8413 23.5047C15.0986 23.4461 15.3635 23.4243 15.6246 23.3912C15.7845 23.3713 15.9435 23.3477 16.1015 23.3165C16.3446 23.2701 16.5754 23.185 16.8119 23.114C17.0608 23.0393 17.3086 22.9617 17.5508 22.8652C17.7287 22.7942 17.8999 22.7015 18.0712 22.6154C18.2046 22.5492 18.3247 22.4716 18.4411 22.3789C18.5953 22.2578 18.7712 22.1651 18.9255 22.044C19.1989 21.8283 19.478 21.6202 19.7665 21.4225C19.9936 21.2664 20.1903 21.0696 20.3975 20.8879C20.529 20.7716 20.6719 20.6656 20.7968 20.5407C20.9141 20.4234 21.02 20.2957 21.1373 20.1765C21.2348 20.0781 21.3152 19.9712 21.4079 19.869C21.5754 19.6845 21.7438 19.5019 21.9131 19.3184C21.9841 19.2408 22.0361 19.15 22.108 19.0734C22.1979 18.9759 22.2906 18.8747 22.3691 18.7678C22.4183 18.7025 22.4599 18.6287 22.5063 18.5606C22.565 18.4726 22.6293 18.3846 22.6842 18.2938C22.7381 18.204 22.7788 18.1075 22.8308 18.0166C22.8866 17.9182 22.9566 17.8359 22.9945 17.7281C23.0333 17.6174 23.0947 17.5143 23.1383 17.4055C23.195 17.2617 23.2575 17.1207 23.2972 16.9722C23.3388 16.817 23.3909 16.6638 23.4438 16.5124C23.5053 16.3393 23.5725 16.1718 23.6444 16.0034C23.7248 15.8123 23.8138 15.6307 23.879 15.4329C23.9481 15.2257 23.9897 15.0195 24.02 14.8019C24.0399 14.6647 24.0588 14.5276 24.072 14.3894C24.0853 14.2381 24.1212 14.0905 24.1354 13.9391C24.1506 13.783 24.1837 13.6373 24.2149 13.484C24.2385 13.3696 24.2433 13.2466 24.2508 13.1312C24.265 12.9136 24.2527 12.6931 24.2348 12.4755Z"/>
</svg>
