<?xml version="1.0" encoding="UTF-8" standalone="no"?>
<!-- Created with Inkscape (http://www.inkscape.org/) -->

<svg
   width="19.79454"
   height="24"
   viewBox="0 0 5.2373054 6.35"
   version="1.1"
   id="svg8000"
   inkscape:version="1.2.1 (9c6d41e4, 2022-07-14)"
   sodipodi:docname="sins-of-the-past.svg"
   xmlns:inkscape="http://www.inkscape.org/namespaces/inkscape"
   xmlns:sodipodi="http://sodipodi.sourceforge.net/DTD/sodipodi-0.dtd"
   xmlns="http://www.w3.org/2000/svg"
   xmlns:svg="http://www.w3.org/2000/svg">
  <sodipodi:namedview
     id="namedview8002"
     pagecolor="#505050"
     bordercolor="#eeeeee"
     borderopacity="1"
     inkscape:showpageshadow="0"
     inkscape:pageopacity="0"
     inkscape:pagecheckerboard="0"
     inkscape:deskcolor="#505050"
     inkscape:document-units="mm"
     showgrid="false"
     inkscape:zoom="0.7046647"
     inkscape:cx="-12.772032"
     inkscape:cy="136.94456"
     inkscape:window-width="1390"
     inkscape:window-height="941"
     inkscape:window-x="0"
     inkscape:window-y="25"
     inkscape:window-maximized="0"
     inkscape:current-layer="layer1" />
  <defs
     id="defs7997">
    <clipPath
       clipPathUnits="userSpaceOnUse"
       id="clipPath1059">
      <path
         d="m 56.886,70.706 h 28.8 v 28.8 h -28.8 z"
         id="path1057" />
    </clipPath>
  </defs>
  <g
     inkscape:label="Layer 1"
     inkscape:groupmode="layer"
     id="layer1"
     transform="translate(-108.52168,-112.84649)">
    <g
       id="g1053"
       transform="matrix(0.24650911,0,0,-0.24650911,93.479367,136.87501)">
      <g
         id="g1055"
         clip-path="url(#clipPath1059)">
        <g
           id="g1061"
           transform="translate(80.1686,80.1069)">
          <path
             d="M 0,0 C -0.147,0.139 -0.328,0.242 -0.477,0.379 -0.548,0.445 -0.609,0.534 -0.686,0.592 -0.815,0.69 -1.033,0.624 -1.171,0.577 -1.36,0.512 -1.561,0.492 -1.744,0.402 -1.896,0.327 -2.016,0.28 -2.157,0.387 -2.325,0.513 -2.481,0.677 -2.634,0.821 -2.747,0.927 -2.885,1.002 -2.988,1.116 -3.252,1.409 -3.595,1.63 -3.886,1.896 -4.402,2.367 -4.932,2.821 -5.433,3.309 -5.65,3.52 -5.84,3.753 -6.047,3.973 c -0.119,0.126 -0.239,0.233 -0.381,0.33 -0.041,0.029 -0.133,0.05 -0.115,0.117 -0.31,-0.115 -0.238,-0.151 -0.199,-0.2 0.048,-0.058 0.08,-0.13 0.121,-0.193 0.065,-0.1 0.107,-0.216 0.175,-0.314 0.044,-0.062 0.11,-0.115 0.158,-0.173 0.127,-0.154 0.244,-0.322 0.361,-0.483 0.2,-0.275 0.419,-0.533 0.62,-0.806 0.456,-0.619 0.901,-1.247 1.352,-1.87 0.107,-0.147 0.204,-0.288 0.277,-0.457 0.039,-0.089 0.071,-0.142 0.13,-0.225 0.099,-0.141 0.206,-0.349 0.223,-0.523 0.01,-0.101 -0.04,-0.157 -0.08,-0.245 -0.069,-0.153 -0.092,-0.332 -0.144,-0.491 -0.03,-0.09 -0.058,-0.178 -0.044,-0.275 0.015,-0.104 0.035,-0.088 0.131,-0.139 0.086,-0.046 0.195,-0.1 0.263,-0.169 0.119,-0.121 0.205,-0.289 0.316,-0.42 0.062,-0.073 0.078,-0.147 0.13,-0.218 0.026,-0.036 0.017,-0.078 0.08,-0.069 0.109,0.016 0.199,0.281 0.272,0.362 0.056,0.063 0.148,0.198 0.218,0.24 0.066,0.039 0.146,0.061 0.217,0.104 0.358,0.215 0.759,0.463 1.062,0.749 0.282,0.266 0.533,0.577 0.742,0.901 0.066,0.103 0.183,0.227 0.217,0.347 C 0.078,-0.063 0.058,-0.055 0,0"
             style="fill:#231f20;fill-opacity:1;fill-rule:nonzero;stroke:none"
             id="path1063" />
        </g>
        <g
           id="g1065"
           transform="translate(68.9046,84.3599)">
          <path
             d="m 0,0 c -0.153,-0.124 -0.328,-0.216 -0.472,-0.352 -0.203,-0.191 -0.369,-0.42 -0.566,-0.618 -0.247,-0.249 -0.531,-0.45 -0.783,-0.694 -0.16,-0.155 -0.346,-0.278 -0.512,-0.426 -0.15,-0.132 -0.318,-0.243 -0.468,-0.376 -0.074,-0.065 -0.149,-0.122 -0.226,-0.184 -0.055,-0.044 -0.138,-0.079 -0.183,-0.133 -0.036,-0.045 -0.052,-0.094 -0.088,-0.14 -0.141,-0.18 -0.378,-0.337 -0.559,-0.48 -0.105,-0.082 -0.219,-0.148 -0.321,-0.233 -0.086,-0.071 -0.157,-0.143 -0.255,-0.197 -0.039,-0.022 -0.049,-0.019 -0.085,-0.051 -0.092,-0.081 -0.046,-0.094 -0.165,-0.045 -0.231,0.097 -0.493,0.128 -0.729,0.222 -0.12,0.048 -0.188,0.12 -0.309,0.05 -0.195,-0.113 -0.352,-0.312 -0.481,-0.493 -0.084,-0.12 -0.248,-0.237 -0.273,-0.385 -0.014,-0.075 -0.033,0.005 0.004,-0.092 0.028,-0.076 0.165,-0.186 0.216,-0.249 0.126,-0.154 0.257,-0.277 0.354,-0.453 0.061,-0.112 0.135,-0.217 0.225,-0.313 0.392,-0.417 0.717,-0.91 1.157,-1.279 0.203,-0.17 0.395,-0.32 0.629,-0.44 0.092,-0.047 0.183,-0.1 0.27,-0.156 0.051,-0.034 0.145,-0.142 0.199,-0.151 0.146,-0.022 0.183,0.182 0.293,0.265 0.149,0.113 0.321,0.166 0.509,0.173 0.083,0.003 0.258,-0.003 0.298,0.083 0.041,0.092 -0.003,0.3 -0.004,0.396 0,0.062 -0.004,0.126 -0.002,0.188 0.002,0.059 0.06,0.195 0.041,0.251 -0.004,0.011 -0.042,0.034 -0.051,0.043 -0.135,0.138 -0.325,0.22 -0.459,0.364 -0.129,0.139 -0.191,0.31 -0.279,0.474 -0.044,0.081 -0.081,0.132 -0.087,0.226 -0.012,0.177 0.007,0.286 0.108,0.44 0.159,0.244 0.338,0.469 0.514,0.7 0.168,0.219 0.325,0.449 0.498,0.664 0.085,0.104 0.183,0.194 0.269,0.297 0.133,0.156 0.237,0.332 0.367,0.49 0.059,0.072 0.093,0.148 0.146,0.225 0.065,0.095 0.156,0.176 0.215,0.275 0.066,0.112 0.09,0.233 0.174,0.338 0.106,0.133 0.174,0.256 0.263,0.403 0.116,0.193 0.262,0.38 0.397,0.561 0.069,0.092 0.133,0.171 0.18,0.278 0.034,0.078 0.086,0.143 0.12,0.217 0.084,0.184 0.14,0.393 0.097,0.44 C 0.088,0.098 0.073,0.059 0,0"
             style="fill:#231f20;fill-opacity:1;fill-rule:nonzero;stroke:none"
             id="path1067" />
        </g>
        <g
           id="g1069"
           transform="translate(82.2571,89.3415)">
          <path
             d="m 0,0 c 0,0.206 0.004,0.395 -0.034,0.596 -0.046,0.241 0.008,0.495 -0.014,0.738 -0.021,0.238 -0.04,0.457 -0.04,0.698 0.001,0.283 0,0.567 0,0.85 v 0.904 c 0,0.175 0.035,0.386 -0.004,0.557 C -0.296,4.371 -0.645,4.388 -0.815,4.256 -0.951,4.151 -0.993,3.962 -1.067,3.816 -1.115,3.719 -1.194,3.645 -1.255,3.556 -1.363,3.399 -1.445,3.216 -1.544,3.052 -1.659,2.858 -1.859,2.69 -1.901,2.458 -2.107,2.418 -2.347,2.452 -2.557,2.452 h -0.547 -1.938 c -0.379,0 -0.758,0 -1.137,0 -0.45,0 -0.892,-0.045 -1.341,-0.044 -0.549,10e-4 -1.099,0 -1.649,0 0.036,0.243 0.058,0.486 0.098,0.729 0.091,0.556 0.183,1.12 0.176,1.684 -0.005,0.322 0.029,0.611 0.089,0.927 0.042,0.22 0.052,0.444 0.087,0.665 0.035,0.218 0.136,0.195 0.315,0.263 0.131,0.05 0.254,0.13 0.388,0.17 0.116,0.034 0.259,0.043 0.348,0.136 -0.056,0.175 -0.214,0.341 -0.315,0.492 -0.084,0.127 -0.178,0.318 -0.297,0.421 -0.124,0.109 -0.34,0.065 -0.494,0.092 -0.229,0.041 -0.47,0.097 -0.702,0.105 -0.185,0.006 -0.372,-0.004 -0.557,-0.004 -0.413,0.001 -0.827,0 -1.24,0 -0.682,0.115 -0.984,-0.016 -1.306,-0.077 -0.139,-0.026 -0.28,-0.044 -0.42,-0.065 -0.134,-0.02 -0.144,-0.005 -0.173,-0.119 -0.014,-0.056 0.006,-0.14 0.006,-0.202 0,-0.174 -0.015,-0.347 -0.033,-0.521 -0.022,-0.211 -0.088,-0.433 -0.047,-0.646 0.076,-0.391 0.663,-0.174 0.957,-0.251 0.169,-0.045 0.357,-0.062 0.481,-0.203 0.097,-0.109 0.05,-0.287 0.05,-0.431 10e-4,-0.409 0.004,-0.814 -0.04,-1.219 -0.051,-0.465 -0.005,-0.966 -0.004,-1.433 10e-4,-0.162 -0.007,-0.321 -0.017,-0.481 -0.258,0.018 -0.515,0.012 -0.777,0.012 -0.996,0 -1.987,0.007 -2.982,0.048 -0.475,0.02 -0.942,0.04 -1.418,0.04 h -1.35 c -0.487,0 -0.996,-0.059 -1.464,0.096 -0.014,0.127 -0.09,0.225 -0.095,0.357 -0.007,0.149 0.007,0.3 0.003,0.449 -0.002,0.061 0.002,0.383 -0.054,0.445 -0.044,0.047 -0.103,0.022 -0.158,0.008 -0.089,-0.023 -0.157,-0.029 -0.25,-0.036 -0.163,-0.013 -0.316,-0.078 -0.477,-0.106 -0.101,-0.017 -0.256,0.004 -0.34,-0.061 0,-0.051 0.011,-0.1 0.033,-0.147 0.012,-0.068 0.015,-0.137 0.009,-0.205 0.014,-0.083 0.036,-0.153 0.046,-0.238 0.022,-0.208 0.043,-0.4 0.044,-0.612 0,-0.67 0.05,-1.348 -0.076,-2.009 -0.026,-0.134 -0.074,-0.265 -0.093,-0.4 -0.029,-0.208 -0.015,-0.438 -0.01,-0.647 0.006,-0.216 0.035,-0.428 0.058,-0.643 0.004,-0.038 -0.002,-0.358 0.074,-0.392 0.042,-0.019 0.092,0.01 0.135,0.004 0.046,-0.007 0.097,-0.033 0.142,-0.047 0.157,-0.049 0.2,-0.083 0.276,0.086 0.061,0.136 0.109,0.256 0.16,0.395 0.042,0.112 0.121,0.201 0.162,0.313 0.023,0.064 0.029,0.121 0.06,0.183 0.147,0.3 0.275,0.605 0.354,0.928 0.034,0.136 0.093,0.236 0.167,0.35 0.069,0.107 0.086,0.208 0.211,0.269 0.07,0.034 0.176,0.05 0.261,0.065 0.1,0.017 0.193,0.004 0.294,0.007 0.122,0.003 0.239,0.033 0.36,0.043 0.471,0.037 0.963,0.004 1.435,0.004 h 2.195 c 0.523,0 1.048,-0.012 1.571,-0.004 0.351,0.006 0.696,0.065 1.046,0.084 0.117,0.007 0.234,0.009 0.351,0.009 -0.011,-0.147 -0.01,-0.295 -0.027,-0.441 -0.025,-0.225 -0.072,-0.446 -0.092,-0.672 -0.031,-0.341 -0.067,-0.697 -0.077,-1.039 -0.005,-0.175 0.025,-0.331 -0.042,-0.496 -0.021,-0.05 -0.033,-0.079 -0.045,-0.133 -0.044,-0.195 -0.002,-0.491 -0.119,-0.661 -0.057,-0.083 -0.174,-0.122 -0.257,-0.172 -0.115,-0.068 -0.209,-0.125 -0.338,-0.176 -0.122,-0.048 -0.351,-0.031 -0.389,-0.174 -0.036,-0.136 0.003,-0.339 0.003,-0.478 0,-0.096 -0.047,-0.36 0.006,-0.432 0.051,-0.07 0.214,-0.07 0.296,-0.091 0.306,-0.078 0.609,-0.007 0.912,-0.06 0.152,-0.026 0.172,-0.066 0.141,-0.215 -0.045,-0.223 -0.078,-0.428 -0.078,-0.657 0,-0.754 -0.023,-1.512 -0.002,-2.265 0.017,-0.612 0.158,-1.211 0.224,-1.817 0.037,-0.345 0.085,-0.711 0.184,-1.045 0.067,-0.227 0.154,-0.456 0.202,-0.687 0.036,-0.175 0.03,-0.355 0.059,-0.53 0.025,-0.146 0.067,-0.277 0.113,-0.418 0.171,-0.538 0.202,-1.095 0.359,-1.635 0.169,-0.58 0.336,-1.164 0.481,-1.751 0.105,-0.427 0.191,-0.864 0.328,-1.282 0.071,-0.219 0.175,-0.425 0.245,-0.645 0.042,-0.133 0.08,-0.264 0.132,-0.393 0.02,-0.05 0.121,-0.335 0.174,-0.349 0.05,0.132 0.089,0.263 0.097,0.401 0.01,0.178 0.065,0.355 0.093,0.528 0.013,0.085 -0.014,0.164 0.007,0.251 0.017,0.069 0.025,0.113 0.033,0.183 0.007,0.063 0.034,0.075 0.048,0.129 0.013,0.053 -0.01,0.119 -0.005,0.174 0.01,0.107 0.046,0.202 0.047,0.311 10e-4,0.086 -0.001,0.172 -0.001,0.257 v 0.528 1.464 c 0,0.303 -0.006,0.592 0.057,0.891 0.025,0.12 0.025,0.221 0.03,0.341 0.007,0.151 0.049,0.293 0.047,0.447 -0.003,0.212 0.008,0.412 0.033,0.623 0.024,0.201 -0.003,0.401 0.019,0.602 0.021,0.186 0.031,0.361 0.033,0.548 0.003,0.217 0.042,0.429 0.048,0.645 0.022,0.825 -0.035,1.637 -0.1,2.457 -0.024,0.3 -0.077,0.594 -0.112,0.892 -0.044,0.382 -0.072,0.763 -0.144,1.142 -0.052,0.275 -0.14,0.589 -0.082,0.872 0.112,0.035 0.276,0.007 0.395,0.007 0.356,-0.003 0.688,0.062 1.037,0.122 0.025,0.004 0.289,0.021 0.319,0.062 0.031,0.042 0.006,0.234 0.006,0.264 0,0.141 0,0.281 0,0.421 -10e-4,0.077 0,0.155 0.003,0.232 -0.032,0.056 -0.048,0.057 -0.113,0.082 -0.143,0.055 -0.289,0.098 -0.427,0.168 -0.173,0.089 -0.323,0.158 -0.518,0.193 -0.24,0.044 -0.42,0.06 -0.642,0.162 -0.08,0.037 -0.314,0.07 -0.368,0.153 -0.037,0.057 0.018,0.152 0.028,0.207 0.022,0.114 0.029,0.23 0.054,0.344 0.027,0.119 0.077,0.225 0.109,0.343 0.04,0.148 0.024,0.305 0.024,0.458 0,0.335 -0.031,0.682 0.01,1.014 0.033,0.265 0.067,0.53 0.101,0.795 h 0.056 c 0.342,0 0.682,-0.013 1.022,0.032 0.322,0.042 0.642,0.078 0.967,0.1 0.218,0.014 0.443,0.039 0.66,0.076 0.343,0.058 0.675,0.055 1.023,0.056 0.853,0 1.707,0 2.56,0 0.37,0 0.884,0.077 1.221,-0.12 0.222,-0.131 0.227,-0.448 0.306,-0.669 0.058,-0.166 0.116,-0.331 0.178,-0.497 0.066,-0.173 0.074,-0.341 0.164,-0.51 0.043,-0.081 0.096,-0.187 0.175,-0.242 0.087,-0.059 0.126,-0.017 0.223,0.003 0.262,0.052 0.535,0.043 0.8,0.105 C 0.024,-0.394 0,-0.188 0,0"
             style="fill:#231f20;fill-opacity:1;fill-rule:nonzero;stroke:none"
             id="path1071" />
        </g>
      </g>
    </g>
  </g>
</svg>
