<?xml version="1.0" encoding="UTF-8" standalone="no"?>
<!-- Created with Inkscape (http://www.inkscape.org/) -->

<svg
   width="21.343317"
   height="24"
   viewBox="0 0 5.6470859 6.35"
   version="1.1"
   id="svg8098"
   inkscape:version="1.2.1 (9c6d41e4, 2022-07-14)"
   sodipodi:docname="vile-experiments.svg"
   xmlns:inkscape="http://www.inkscape.org/namespaces/inkscape"
   xmlns:sodipodi="http://sodipodi.sourceforge.net/DTD/sodipodi-0.dtd"
   xmlns="http://www.w3.org/2000/svg"
   xmlns:svg="http://www.w3.org/2000/svg">
  <sodipodi:namedview
     id="namedview8100"
     pagecolor="#505050"
     bordercolor="#eeeeee"
     borderopacity="1"
     inkscape:showpageshadow="0"
     inkscape:pageopacity="0"
     inkscape:pagecheckerboard="0"
     inkscape:deskcolor="#505050"
     inkscape:document-units="mm"
     showgrid="false"
     inkscape:zoom="0.7046647"
     inkscape:cx="-61.02193"
     inkscape:cy="71.66529"
     inkscape:window-width="1390"
     inkscape:window-height="941"
     inkscape:window-x="0"
     inkscape:window-y="25"
     inkscape:window-maximized="0"
     inkscape:current-layer="layer1" />
  <defs
     id="defs8095">
    <clipPath
       clipPathUnits="userSpaceOnUse"
       id="clipPath1147">
      <path
         d="m 56.886,39.253 h 28.8 v 28.8 h -28.8 z"
         id="path1145" />
    </clipPath>
  </defs>
  <g
     inkscape:label="Layer 1"
     inkscape:groupmode="layer"
     id="layer1"
     transform="translate(-121.45838,-130.1183)">
    <g
       id="g1141"
       transform="matrix(0.25750152,0,0,-0.25750152,105.95805,146.93749)">
      <g
         id="g1143"
         clip-path="url(#clipPath1147)">
        <g
           id="g1149"
           transform="translate(77.9016,63.0108)">
          <path
             d="m 0,0 c -0.025,0.046 -0.036,0.101 -0.064,0.146 -0.061,0.1 -0.22,0.208 -0.313,0.282 -0.233,0.184 -0.517,0.346 -0.787,0.474 -0.195,0.092 -0.392,0.175 -0.588,0.262 -0.211,0.094 -0.442,0.111 -0.664,0.15 -0.247,0.042 -0.509,0.104 -0.759,0.117 -0.16,0.008 -0.317,0.038 -0.476,0.047 C -3.833,1.488 -4.016,1.461 -4.197,1.48 -4.356,1.496 -4.541,1.511 -4.696,1.547 -4.842,1.582 -4.969,1.66 -5.11,1.709 -5.261,1.761 -5.369,1.8 -5.508,1.879 -5.708,1.993 -5.967,2.064 -6.185,2.142 -6.48,2.248 -6.838,2.308 -7.153,2.306 -7.633,2.303 -8.109,2.316 -8.587,2.271 -8.774,2.253 -8.96,2.244 -9.147,2.215 -9.356,2.183 -9.675,2.178 -9.866,2.091 -10.021,2.02 -10.16,1.887 -10.311,1.804 c -0.216,-0.118 -0.393,-0.191 -0.557,-0.372 -0.267,-0.295 -0.674,-0.55 -1.028,-0.734 -0.197,-0.101 -0.409,-0.15 -0.605,-0.258 -0.213,-0.118 -0.43,-0.227 -0.642,-0.344 -0.406,-0.224 -0.794,-0.427 -1.235,-0.579 -0.145,-0.05 -0.279,-0.116 -0.417,-0.18 -0.152,-0.071 -0.326,-0.117 -0.466,-0.213 -0.217,-0.149 -0.488,-0.275 -0.675,-0.459 -0.086,-0.085 -0.179,-0.235 -0.24,-0.34 -0.066,-0.115 -0.029,-0.245 -0.06,-0.372 -0.042,-0.174 -0.112,-0.363 -0.17,-0.533 -0.064,-0.187 -0.115,-0.375 -0.189,-0.559 -0.081,-0.202 -0.227,-0.33 -0.331,-0.517 -0.137,-0.246 -0.296,-0.492 -0.408,-0.748 -0.154,-0.351 -0.233,-0.698 -0.295,-1.074 -0.07,-0.422 -0.102,-0.895 -0.056,-1.323 0.037,-0.354 0.205,-0.695 0.399,-0.992 0.248,-0.379 0.465,-0.791 0.743,-1.152 0.06,-0.079 0.126,-0.193 0.206,-0.253 0.07,-0.052 0.182,-0.095 0.26,-0.142 0.134,-0.081 0.235,-0.057 0.387,-0.071 0.145,-0.014 0.279,-0.07 0.422,-0.088 0.468,-0.061 0.941,-0.134 1.411,-0.066 0.535,0.078 1.191,0.234 1.709,0.02 0.508,-0.209 0.86,-0.606 1.429,-0.683 0.396,-0.054 0.827,-0.009 1.226,-0.009 0.143,0 0.285,-0.004 0.428,0 0.139,0.004 0.205,0.053 0.334,0.123 0.16,0.088 0.359,0.153 0.542,0.187 0.127,0.024 0.242,0 0.365,0.023 0.13,0.023 0.244,0.036 0.377,0.035 0.279,-10e-4 0.659,-0.067 0.917,0.056 0.199,0.095 0.179,0.231 0.176,0.423 -0.001,0.109 -0.025,0.203 -0.049,0.309 -0.03,0.128 -0.073,0.167 -0.184,0.271 -0.138,0.129 -0.285,0.264 -0.436,0.377 -0.076,0.056 -0.078,0.07 -0.118,0.151 -0.115,0.24 -0.144,0.507 -0.208,0.765 -0.12,0.479 -0.147,0.915 0.118,1.358 0.175,0.294 0.453,0.532 0.678,0.791 0.066,0.077 0.17,0.219 0.29,0.199 0.028,-0.067 -0.009,-0.079 -0.044,-0.138 -0.126,-0.216 -0.264,-0.414 -0.354,-0.65 -0.091,-0.238 -0.144,-0.594 -0.019,-0.829 0.193,-0.364 0.45,-0.718 0.469,-1.133 0.007,-0.155 -0.014,-0.312 -0.007,-0.467 0.009,-0.174 0.084,-0.314 0.159,-0.467 0.081,-0.164 0.136,-0.34 0.225,-0.501 0.305,-0.549 0.824,-0.889 1.426,-1.071 0.335,-0.101 0.736,-0.043 1.086,-0.043 0.198,0 0.379,0.003 0.574,0.036 0.089,0.016 0.176,0.004 0.264,0.02 0.06,0.012 0.085,0.043 0.161,0.037 0.1,-0.008 0.193,-0.042 0.286,-0.081 0.136,-0.057 0.148,-0.121 0.234,-0.232 0.125,-0.162 0.287,-0.283 0.429,-0.424 0.08,-0.08 0.145,-0.166 0.244,-0.233 0.098,-0.067 0.231,-0.118 0.334,-0.173 0.047,-0.025 0.084,-0.021 0.132,-0.053 0.043,-0.029 0.081,-0.083 0.119,-0.119 0.128,-0.123 0.118,-0.184 0.118,-0.355 -0.001,-0.471 -0.111,-0.926 -0.208,-1.388 -0.069,-0.329 -0.06,-0.833 -0.456,-0.943 -0.149,-0.042 -0.217,-0.131 -0.329,-0.239 -0.14,-0.134 -0.296,-0.274 -0.421,-0.419 -0.16,-0.185 -0.254,-0.419 -0.292,-0.654 -0.019,-0.123 -0.061,-0.242 -0.084,-0.365 -0.042,-0.227 -0.034,-0.462 -0.103,-0.684 -0.087,-0.278 -0.188,-0.499 -0.388,-0.716 -0.291,-0.315 -0.681,-0.463 -1.03,-0.703 -0.176,-0.121 -0.322,-0.267 -0.51,-0.372 -0.306,-0.172 -0.653,-0.246 -0.969,-0.392 -0.14,-0.065 -0.292,-0.148 -0.422,-0.231 -0.097,-0.062 -0.154,-0.149 -0.242,-0.219 -0.202,-0.161 -0.282,-0.367 -0.377,-0.605 -0.084,-0.211 -0.153,-0.442 -0.286,-0.63 -0.028,-0.039 -0.071,-0.069 -0.097,-0.11 -0.062,-0.095 -0.077,-0.195 -0.148,-0.289 -0.21,-0.275 -0.46,-0.511 -0.694,-0.765 -0.199,-0.215 -0.441,-0.377 -0.644,-0.585 -0.097,0.18 0.373,0.486 0.458,0.563 0.39,0.35 0.833,0.603 1.254,0.911 0.373,0.272 0.722,0.765 1.243,0.774 0.189,0.004 0.396,-0.029 0.582,0.007 0.338,0.067 0.68,0.21 0.986,0.361 0.176,0.088 0.362,0.163 0.535,0.256 0.26,0.139 0.486,0.335 0.741,0.484 0.18,0.105 0.355,0.245 0.461,0.42 0.098,0.162 0.181,0.339 0.282,0.501 0.081,0.128 0.174,0.246 0.249,0.379 0.144,0.256 0.267,0.519 0.433,0.765 0.295,0.435 0.583,0.854 0.963,1.223 0.201,0.196 0.43,0.336 0.662,0.491 0.124,0.083 0.263,0.183 0.369,0.283 0.086,0.082 0.113,0.22 0.152,0.325 0.055,0.148 0.13,0.291 0.17,0.444 0.083,0.317 0.16,0.649 0.144,0.978 -0.012,0.278 -0.076,0.56 -0.107,0.837 -0.013,0.115 0.016,0.313 -0.067,0.399 -0.011,-0.179 0.17,-0.432 0.279,-0.562 0.156,-0.184 0.227,-0.395 0.353,-0.598 0.089,-0.143 0.213,-0.228 0.308,-0.359 0.131,-0.179 0.137,-0.322 0.142,-0.533 0.003,-0.148 0.047,-0.308 0.035,-0.453 -0.019,-0.237 -0.112,-0.452 -0.198,-0.671 -0.137,-0.354 -0.289,-0.711 -0.5,-1.03 -0.173,-0.259 -0.302,-0.53 -0.397,-0.826 -0.045,-0.14 0.011,-0.314 -0.057,-0.444 0.039,0.023 0.064,0.055 0.092,0.088 0.211,0.246 0.342,0.555 0.557,0.802 0.215,0.246 0.516,0.396 0.609,0.715 0.154,0.526 0.38,1.029 0.493,1.568 0.081,0.387 0.197,0.804 0.183,1.203 -0.021,0.592 -0.272,1.168 -0.439,1.73 -0.078,0.261 -0.027,0.429 0.033,0.685 0.048,0.203 0.11,0.383 0.234,0.555 0.058,0.08 0.132,0.134 0.186,0.217 0.229,0.356 0.313,0.793 0.39,1.198 0.156,0.824 0.25,1.657 0.431,2.476 0.054,0.245 0.095,0.512 0.106,0.762 0.015,0.346 -0.186,0.581 -0.341,0.884 -0.22,0.43 -0.272,0.91 -0.369,1.378 -0.077,0.37 -0.24,0.615 -0.459,0.924 -0.17,0.241 -0.305,0.505 -0.571,0.653 C 2.297,-1.488 2.139,-1.352 1.961,-1.238 1.863,-1.175 1.743,-1.137 1.654,-1.061 1.443,-0.879 1.328,-0.593 1.147,-0.385 0.916,-0.12 0.631,-0.069 0.299,0.002 0.181,0.027 0.066,0.077 -0.053,0.096 -0.153,0.112 -0.224,0.106 0,0"
             style="fill:#231f20;fill-opacity:1;fill-rule:nonzero;stroke:none"
             id="path1151" />
        </g>
      </g>
    </g>
  </g>
</svg>
