<svg width="22" height="24" viewBox="0 0 22 24" fill="#000000" xmlns="http://www.w3.org/2000/svg">
  <path d="M17.2326 2.24432C17.2082 2.19956 17.1975 2.14603 17.1703 2.10223C17.1109 2.00491 16.9562 1.8998 16.8657 1.82778C16.6389 1.64871 16.3625 1.49104 16.0997 1.36647C15.91 1.27693 15.7182 1.19615 15.5275 1.11148C15.3221 1.02 15.0973 1.00345 14.8812 0.965496C14.6409 0.92462 14.3859 0.864279 14.1426 0.851627C13.9868 0.843841 13.834 0.814643 13.6793 0.805884C13.5022 0.796152 13.3241 0.82243 13.1479 0.803939C12.9932 0.788367 12.8131 0.773767 12.6623 0.738731C12.5202 0.704668 12.3966 0.628757 12.2594 0.581068C12.1124 0.53046 12.0073 0.492504 11.872 0.415618C11.6774 0.304669 11.4253 0.235569 11.2131 0.159657C10.926 0.0564943 10.5776 -0.00189931 10.271 4.71579e-05C9.80388 0.00296686 9.34062 -0.00968533 8.87542 0.0341102C8.69342 0.0516284 8.5124 0.0603873 8.33041 0.0886111C8.127 0.119755 7.81654 0.124621 7.63065 0.209293C7.4798 0.278392 7.34452 0.407831 7.19756 0.48861C6.98734 0.603451 6.81508 0.674499 6.65547 0.850654C6.39562 1.13776 5.99951 1.38593 5.65499 1.56501C5.46326 1.6633 5.25693 1.71099 5.06618 1.8161C4.85888 1.93094 4.64769 2.03703 4.44136 2.15089C4.04623 2.3689 3.66861 2.56647 3.23942 2.7144C3.0983 2.76306 2.96789 2.82729 2.83358 2.88958C2.68565 2.95868 2.51631 3.00345 2.38005 3.09688C2.16886 3.24189 1.90511 3.36452 1.72312 3.54359C1.63942 3.62632 1.54891 3.7723 1.48954 3.87449C1.42531 3.98641 1.46132 4.11294 1.43115 4.23654C1.39027 4.40588 1.32215 4.58982 1.2657 4.75527C1.20341 4.93726 1.15378 5.12023 1.08176 5.29931C1.00293 5.4959 0.860834 5.62047 0.759617 5.80247C0.626284 6.04188 0.471541 6.2813 0.362539 6.53045C0.212661 6.87205 0.135775 7.20977 0.0754347 7.5757C0.0073083 7.98641 -0.023835 8.44675 0.0209338 8.86329C0.0569435 9.20782 0.220447 9.53969 0.409254 9.82874C0.650616 10.1976 0.861808 10.5986 1.13237 10.9499C1.19076 11.0268 1.25499 11.1377 1.33285 11.1961C1.40098 11.2467 1.50998 11.2886 1.58589 11.3343C1.71631 11.4132 1.8146 11.3898 1.96254 11.4034C2.10365 11.4171 2.23407 11.4716 2.37324 11.4891C2.82871 11.5484 3.28905 11.6195 3.74647 11.5533C4.26715 11.4774 4.9056 11.3256 5.40973 11.5338C5.90413 11.7373 6.24671 12.1236 6.80048 12.1986C7.18588 12.2511 7.60535 12.2073 7.99367 12.2073C8.13284 12.2073 8.27104 12.2112 8.41021 12.2073C8.54549 12.2034 8.60972 12.1557 8.73527 12.0876C8.89099 12.002 9.08466 11.9387 9.26276 11.9056C9.38637 11.8823 9.49829 11.9056 9.618 11.8832C9.74452 11.8609 9.85547 11.8482 9.98491 11.8492C10.2564 11.8501 10.6263 11.9144 10.8774 11.7947C11.071 11.7022 11.0516 11.5699 11.0486 11.383C11.0477 11.2769 11.0243 11.1854 11.001 11.0823C10.9718 10.9577 10.9299 10.9197 10.8219 10.8185C10.6876 10.693 10.5445 10.5616 10.3976 10.4516C10.3236 10.3971 10.3216 10.3835 10.2827 10.3046C10.1708 10.0711 10.1426 9.81122 10.0803 9.56013C9.96349 9.09395 9.93722 8.66962 10.1951 8.23847C10.3654 7.95234 10.636 7.72071 10.855 7.46865C10.9192 7.39371 11.0204 7.25551 11.1372 7.27497C11.1645 7.34018 11.1285 7.35186 11.0944 7.40928C10.9718 7.6195 10.8375 7.8122 10.7499 8.04188C10.6613 8.27351 10.6097 8.61998 10.7314 8.84869C10.9192 9.20295 11.1693 9.54747 11.1878 9.95137C11.1946 10.1022 11.1742 10.255 11.181 10.4059C11.1898 10.5752 11.2628 10.7115 11.3358 10.8604C11.4146 11.02 11.4681 11.1913 11.5547 11.348C11.8516 11.8823 12.3567 12.2132 12.9426 12.3903C13.2686 12.4886 13.6589 12.4321 13.9995 12.4321C14.1922 12.4321 14.3684 12.4292 14.5581 12.3971C14.6448 12.3815 14.7294 12.3932 14.8151 12.3776C14.8735 12.366 14.8978 12.3358 14.9718 12.3416C15.0691 12.3494 15.1596 12.3825 15.2501 12.4205C15.3825 12.4759 15.3941 12.5382 15.4778 12.6463C15.5995 12.8039 15.7572 12.9217 15.8954 13.0589C15.9732 13.1368 16.0365 13.2205 16.1328 13.2857C16.2282 13.3509 16.3576 13.4005 16.4579 13.454C16.5036 13.4784 16.5396 13.4745 16.5864 13.5056C16.6282 13.5338 16.6652 13.5864 16.7022 13.6214C16.8267 13.7411 16.817 13.8005 16.817 13.9669C16.816 14.4253 16.709 14.8681 16.6146 15.3178C16.5474 15.638 16.5562 16.1285 16.1708 16.2355C16.0258 16.2764 15.9596 16.363 15.8506 16.4681C15.7143 16.5986 15.5625 16.7348 15.4409 16.8759C15.2851 17.056 15.1937 17.2837 15.1567 17.5124C15.1382 17.6321 15.0973 17.7479 15.0749 17.8677C15.034 18.0886 15.0418 18.3173 14.9747 18.5333C14.89 18.8039 14.7917 19.019 14.5971 19.2302C14.3139 19.5367 13.9343 19.6808 13.5946 19.9144C13.4233 20.0321 13.2812 20.1742 13.0983 20.2764C12.8005 20.4438 12.4628 20.5158 12.1552 20.6579C12.019 20.7212 11.871 20.802 11.7445 20.8827C11.6501 20.9431 11.5946 21.0277 11.509 21.0959C11.3124 21.2526 11.2345 21.453 11.1421 21.6847C11.0603 21.89 10.9932 22.1148 10.8637 22.2978C10.8365 22.3358 10.7946 22.365 10.7693 22.4049C10.709 22.4973 10.6944 22.5947 10.6253 22.6861C10.4209 22.9538 10.1776 23.1835 9.94987 23.4307C9.75619 23.6399 9.52067 23.7976 9.32311 24C9.2287 23.8248 9.68612 23.527 9.76885 23.4521C10.1484 23.1114 10.5796 22.8652 10.9893 22.5655C11.3523 22.3007 11.692 21.8209 12.199 21.8122C12.383 21.8083 12.5844 21.8404 12.7654 21.8054C13.0944 21.7402 13.4272 21.601 13.725 21.454C13.8963 21.3684 14.0774 21.2954 14.2457 21.2049C14.4988 21.0696 14.7187 20.8788 14.9669 20.7338C15.1421 20.6316 15.3124 20.4954 15.4156 20.3251C15.5109 20.1674 15.5917 19.9951 15.69 19.8375C15.7688 19.7129 15.8593 19.5981 15.9323 19.4686C16.0725 19.2195 16.1922 18.9635 16.3537 18.7241C16.6409 18.3007 16.9211 17.893 17.291 17.5338C17.4866 17.3431 17.7095 17.2068 17.9353 17.056C18.0559 16.9752 18.1912 16.8779 18.2944 16.7806C18.3781 16.7007 18.4044 16.5664 18.4423 16.4642C18.4958 16.3202 18.5688 16.181 18.6078 16.0321C18.6885 15.7236 18.7635 15.4005 18.7479 15.0803C18.7362 14.8098 18.6739 14.5353 18.6438 14.2657C18.6311 14.1538 18.6593 13.9611 18.5786 13.8774C18.5679 14.0516 18.744 14.2978 18.8501 14.4243C19.0019 14.6034 19.071 14.8088 19.1936 15.0063C19.2803 15.1455 19.4009 15.2282 19.4934 15.3557C19.6209 15.5299 19.6267 15.6691 19.6316 15.8745C19.6345 16.0185 19.6773 16.1742 19.6657 16.3153C19.6472 16.546 19.5567 16.7552 19.473 16.9684C19.3396 17.3129 19.1917 17.6604 18.9863 17.9708C18.818 18.2229 18.6924 18.4866 18.6 18.7747C18.5562 18.911 18.6107 19.0803 18.5445 19.2068C18.5825 19.1844 18.6068 19.1533 18.634 19.1212C18.8394 18.8818 18.9669 18.581 19.1761 18.3406C19.3854 18.1012 19.6783 17.9552 19.7688 17.6448C19.9187 17.1329 20.1387 16.6433 20.2486 16.1187C20.3275 15.7421 20.4404 15.3363 20.4267 14.948C20.4063 14.3718 20.162 13.8112 19.9995 13.2643C19.9236 13.0102 19.9732 12.8467 20.0316 12.5976C20.0783 12.4 20.1387 12.2248 20.2593 12.0574C20.3158 11.9796 20.3878 11.927 20.4404 11.8463C20.6632 11.4998 20.745 11.0745 20.8199 10.6803C20.9717 9.87837 21.0632 9.06767 21.2394 8.27059C21.2919 8.03215 21.3318 7.77229 21.3425 7.52899C21.3571 7.19225 21.1615 6.96354 21.0107 6.66865C20.7966 6.25016 20.746 5.783 20.6516 5.32753C20.5766 4.96743 20.418 4.72899 20.2048 4.42826C20.0394 4.19371 19.908 3.93678 19.6491 3.79274C19.4681 3.6925 19.3143 3.56014 19.1411 3.44919C19.0457 3.38788 18.9289 3.35089 18.8423 3.27693C18.637 3.0998 18.525 2.82145 18.3489 2.61902C18.1241 2.36111 17.8467 2.31148 17.5236 2.24238C17.4087 2.21805 17.2968 2.16939 17.181 2.15089C17.0837 2.13532 17.0146 2.14116 17.2326 2.24432Z"/>
</svg>
