<?xml version="1.0" encoding="UTF-8" standalone="no"?>
<!-- Created with Inkscape (http://www.inkscape.org/) -->

<svg
   width="19.115665"
   height="24"
   viewBox="0 0 5.0576864 6.35"
   version="1.1"
   id="svg54889"
   inkscape:version="1.2.1 (9c6d41e4, 2022-07-14)"
   sodipodi:docname="at-deaths-doorstep.svg"
   xmlns:inkscape="http://www.inkscape.org/namespaces/inkscape"
   xmlns:sodipodi="http://sodipodi.sourceforge.net/DTD/sodipodi-0.dtd"
   xmlns="http://www.w3.org/2000/svg"
   xmlns:svg="http://www.w3.org/2000/svg">
  <sodipodi:namedview
     id="namedview54891"
     pagecolor="#505050"
     bordercolor="#eeeeee"
     borderopacity="1"
     inkscape:showpageshadow="0"
     inkscape:pageopacity="0"
     inkscape:pagecheckerboard="0"
     inkscape:deskcolor="#505050"
     inkscape:document-units="mm"
     showgrid="false"
     inkscape:zoom="0.7046647"
     inkscape:cx="22.705834"
     inkscape:cy="214.99587"
     inkscape:window-width="1390"
     inkscape:window-height="941"
     inkscape:window-x="0"
     inkscape:window-y="25"
     inkscape:window-maximized="0"
     inkscape:current-layer="layer1" />
  <defs
     id="defs54886">
    <clipPath
       clipPathUnits="userSpaceOnUse"
       id="clipPath4055">
      <path
         d="m 112.485,419.821 h 24.699 v 24.699 h -24.699 z"
         id="path4053" />
    </clipPath>
  </defs>
  <g
     inkscape:label="Layer 1"
     inkscape:groupmode="layer"
     id="layer1"
     transform="translate(-99.019285,-91.841658)">
    <g
       id="g4049"
       transform="matrix(0.28688604,0,0,-0.28688604,65.781073,218.88459)">
      <g
         id="g4051"
         clip-path="url(#clipPath4055)">
        <g
           id="g4057"
           transform="translate(129.296,426.615)">
          <path
             d="m 0,0 c 0,0.227 -0.026,0.452 -0.016,0.68 0.004,0.105 0.028,0.207 0.033,0.311 0.006,0.147 10e-4,0.292 -0.018,0.437 -0.04,0.318 -0.076,0.637 -0.112,0.955 -0.036,0.329 -0.073,0.658 -0.116,0.986 -0.026,0.199 -0.054,0.4 -0.063,0.601 -0.009,0.187 -0.002,0.375 -0.002,0.563 -0.001,0.786 0,1.573 0,2.359 0,0.808 -0.004,1.614 0.039,2.421 0.016,0.311 0.045,0.621 0.048,0.932 0.003,0.325 -0.001,0.65 -0.001,0.974 0,0.295 0.005,0.589 -0.024,0.883 -0.032,0.327 -0.023,0.656 -0.062,0.983 -0.037,0.301 -0.056,0.605 -0.075,0.908 -0.014,0.219 -0.031,0.44 -0.029,0.659 0.001,0.06 0.013,0.123 -0.06,0.124 -0.028,0 -0.054,-0.003 -0.082,0 -0.038,0.004 -0.073,0.02 -0.109,0.032 -0.143,0.046 -0.29,0.088 -0.438,0.119 -0.328,0.067 -0.671,0.103 -1.007,0.124 -0.304,0.019 -0.615,0.036 -0.92,0.012 -0.227,-0.018 -0.45,-0.06 -0.677,-0.079 -0.284,-0.023 -0.569,-0.018 -0.853,-0.036 -0.161,-0.01 -0.322,-0.006 -0.483,-0.01 -0.147,-0.004 -0.294,-0.012 -0.441,-0.017 -0.276,-0.008 -0.55,-0.014 -0.826,-0.015 -0.471,-0.001 -0.939,0.049 -1.407,0.091 -0.168,0.015 -0.332,0.024 -0.501,0.025 -0.031,0 -0.113,0.015 -0.138,-0.008 -0.033,-0.029 0.009,-0.083 0.021,-0.113 0.088,-0.232 0.062,-0.514 0.059,-0.754 -0.002,-0.211 -0.031,-0.413 -0.072,-0.62 -0.043,-0.216 -0.073,-0.434 -0.094,-0.653 -0.048,-0.495 -0.057,-0.993 -0.071,-1.49 -0.009,-0.312 -0.014,-0.623 10e-4,-0.935 0.02,-0.402 0.054,-0.802 0.066,-1.204 C -8.407,8.522 -8.428,7.798 -8.406,7.074 -8.387,6.427 -8.335,5.78 -8.269,5.135 -8.213,4.583 -8.162,4.031 -8.177,3.475 -8.188,3.049 -8.205,2.626 -8.238,2.201 -8.264,1.866 -8.315,1.532 -8.358,1.198 -8.377,1.044 -8.397,0.89 -8.418,0.737 -8.436,0.61 -8.445,0.478 -8.477,0.354 -8.494,0.291 -8.541,0.262 -8.54,0.194 c 0.003,-0.118 0.009,-0.238 -0.019,-0.353 0.028,0.044 0.047,0.096 0.096,0.125 0.08,0.048 0.192,0.035 0.28,0.034 0.221,-0.002 0.441,0.012 0.661,0.021 0.345,0.014 0.689,0.009 1.034,0.01 0.397,0.002 0.796,0.023 1.192,0.042 0.376,0.017 0.747,0.057 1.119,0.107 0.625,0.084 1.254,0.184 1.886,0.195 0.404,0.008 0.806,-0.004 1.21,-0.03 0.125,-0.009 0.25,-0.021 0.367,-0.068 0.061,-0.024 0.117,-0.059 0.177,-0.081 0.105,-0.04 0.223,0.01 0.327,-0.018 C -0.209,0.163 -0.207,0.149 -0.205,0.134 -0.2,0.133 -0.195,0.132 0,0"
             style="fill:#000000;fill-opacity:1;fill-rule:nonzero;stroke:none"
             id="path4059" />
        </g>
        <g
           id="g4061"
           transform="translate(127.306,426.225)">
          <path
             d="M 0,0 C -0.003,0.011 -0.002,0.021 0.003,0.031 0.023,0.032 0.039,0.043 0.054,0.046 0.093,0.054 0.138,0.053 0.178,0.047 0.271,0.036 0.364,-0.004 0.449,-0.04 0.553,-0.084 0.651,-0.128 0.74,-0.197 0.829,-0.265 0.917,-0.337 0.99,-0.421 1.023,-0.46 1.054,-0.501 1.083,-0.543 1.107,-0.569 1.127,-0.597 1.143,-0.628 1.161,-0.679 1.16,-0.732 1.181,-0.783 1.207,-0.845 1.23,-0.901 1.267,-0.957 1.352,-1.086 1.448,-1.204 1.551,-1.32 1.654,-1.437 1.77,-1.518 1.901,-1.601 1.968,-1.644 2.038,-1.693 2.108,-1.731 2.16,-1.759 2.22,-1.776 2.275,-1.8 2.339,-1.827 2.402,-1.831 2.469,-1.847 2.533,-1.863 2.588,-1.9 2.651,-1.917 2.599,-1.909 2.541,-1.915 2.488,-1.915 2.354,-1.916 2.239,-1.903 2.111,-1.862 1.995,-1.824 1.881,-1.779 1.761,-1.759 1.703,-1.75 1.645,-1.747 1.588,-1.734 1.532,-1.721 1.489,-1.701 1.43,-1.699 1.227,-1.695 1.052,-1.653 0.909,-1.503 0.85,-1.442 0.795,-1.375 0.748,-1.305 c -0.011,0.016 -0.031,0.033 -0.039,0.051 -0.009,0.02 -0.007,0.038 -0.018,0.06 -0.026,0.052 -0.056,0.108 -0.09,0.155 -0.044,0.061 -0.091,0.104 -0.148,0.152 -0.025,0.021 -0.042,0.049 -0.068,0.07 -0.036,0.03 -0.084,0.05 -0.125,0.075 -0.099,0.061 -0.205,0.122 -0.308,0.175 -0.185,0.095 -0.398,0.131 -0.565,0.259 -0.063,0.048 -0.157,0.112 -0.197,0.181 -0.011,0.02 -0.038,0.088 -0.028,0.109 0.038,-0.01 0.068,-0.043 0.103,-0.061 0.051,-0.027 0.1,-0.039 0.156,-0.054 0.102,-0.028 0.201,-0.067 0.31,-0.049 0.035,0.005 0.079,0.017 0.11,0.033 0.027,0.014 0.049,0.037 0.079,0.046 0.152,0.049 0.293,-0.009 0.45,-0.062"
             style="fill:#000000;fill-opacity:1;fill-rule:nonzero;stroke:none"
             id="path4063" />
        </g>
        <g
           id="g4065"
           transform="translate(121.341,426.322)">
          <path
             d="M 0,0 C 0.005,-0.001 0.009,-0.002 0.014,-0.003 0.023,-0.034 0.021,-0.082 0.015,-0.114 -0.01,-0.27 -0.099,-0.409 -0.217,-0.511 -0.49,-0.749 -0.921,-0.766 -1.266,-0.739 c -0.197,0.015 -0.389,0.061 -0.582,0.096 -0.182,0.032 -0.364,0.067 -0.548,0.082 -0.179,0.016 -0.366,0.036 -0.543,0.002 -0.067,-0.013 -0.131,-0.046 -0.195,-0.068 -0.064,-0.021 -0.099,-0.039 -0.148,-0.083 -0.056,-0.052 -0.119,-0.108 -0.185,-0.149 -0.071,-0.044 -0.15,-0.073 -0.221,-0.119 -0.084,-0.054 -0.164,-0.116 -0.251,-0.166 -0.108,-0.061 -0.21,-0.079 -0.334,-0.078 -0.111,10e-4 -0.229,-0.011 -0.339,0.003 -0.109,0.013 -0.233,0.059 -0.328,0.112 -0.116,0.064 -0.222,0.139 -0.333,0.211 -0.058,0.038 -0.12,0.074 -0.173,0.119 -0.015,0.012 -0.043,0.026 -0.035,0.049 0.031,-0.008 0.059,-0.073 0.08,-0.1 0.021,-0.029 0.051,-0.048 0.069,-0.079 0.031,-0.051 0.067,-0.109 0.081,-0.167 0.026,-0.114 0.084,-0.21 0.155,-0.306 0.029,-0.041 0.074,-0.108 0.116,-0.137 0.032,-0.022 0.081,-0.031 0.117,-0.047 0.146,-0.064 0.296,-0.07 0.453,-0.07 0.127,0 0.251,0 0.378,0.012 0.147,0.013 0.3,0.012 0.446,0.039 0.114,0.021 0.218,0.061 0.328,0.098 0.139,0.048 0.282,0.087 0.422,0.132 0.094,0.03 0.187,0.069 0.282,0.096 0.12,0.034 0.25,0.044 0.373,0.057 0.16,0.017 0.338,0.025 0.494,-0.02 0.042,-0.015 0.084,-0.031 0.125,-0.048 0.05,-0.014 0.1,-0.026 0.15,-0.036 0.068,-0.018 0.132,-0.048 0.2,-0.067 0.214,-0.059 0.433,-0.057 0.652,-0.067 0.248,-0.01 0.478,-0.041 0.713,0.057 0.162,0.068 0.278,0.218 0.35,0.372 0.06,0.13 0.038,0.252 -0.014,0.383 -0.061,0.154 -0.17,0.292 -0.286,0.411 -0.069,0.07 -0.137,0.143 -0.22,0.197 C -0.031,-0.009 -0.082,0.028 0,0"
             style="fill:#000000;fill-opacity:1;fill-rule:nonzero;stroke:none"
             id="path4067" />
        </g>
        <g
           id="g4069"
           transform="translate(128.39,426.39)">
          <path
             d="m 0,0 c 0.001,0.005 0.002,0.009 0.003,0.014 0.029,0.008 0.06,0.006 0.091,0.014 0.1,0.028 0.184,0.043 0.29,0.038 C 0.545,0.058 0.735,0.004 0.88,-0.063 0.961,-0.101 1.046,-0.13 1.127,-0.168 1.231,-0.215 1.325,-0.282 1.425,-0.335 1.491,-0.37 1.558,-0.404 1.627,-0.435 1.728,-0.48 1.831,-0.501 1.936,-0.533 2.013,-0.556 2.087,-0.586 2.168,-0.593 2.245,-0.599 2.323,-0.594 2.401,-0.594 2.702,-0.596 3.008,-0.519 3.259,-0.351 3.475,-0.206 3.604,0.04 3.683,0.28 3.731,0.423 3.736,0.55 3.638,0.669 3.606,0.707 3.569,0.745 3.529,0.776 3.484,0.811 3.45,0.814 3.397,0.829 3.339,0.846 3.28,0.842 3.218,0.842 c 0.027,0 0.057,-0.006 0.08,0.007 0.01,0.006 0.011,0.019 0.019,0.026 C 3.337,0.893 3.352,0.899 3.38,0.904 3.548,0.938 3.753,0.878 3.887,0.78 3.925,0.752 3.963,0.722 3.998,0.69 4.064,0.631 4.146,0.573 4.202,0.505 4.297,0.389 4.314,0.23 4.378,0.1 4.442,0.123 4.458,0.245 4.459,0.296 4.459,0.362 4.461,0.431 4.458,0.497 4.456,0.526 4.46,0.543 4.43,0.559 4.481,0.525 4.543,0.501 4.594,0.465 4.758,0.349 4.903,0.211 5.011,0.041 5.133,-0.15 5.122,-0.406 5.009,-0.597 4.851,-0.866 4.626,-1.125 4.308,-1.206 4.124,-1.252 3.944,-1.304 3.758,-1.337 3.551,-1.374 3.343,-1.387 3.134,-1.387 3.015,-1.387 2.9,-1.388 2.782,-1.371 2.67,-1.356 2.559,-1.334 2.45,-1.309 2.255,-1.264 2.11,-1.18 1.942,-1.08 1.892,-1.051 1.841,-1.026 1.795,-0.991 1.74,-0.949 1.693,-0.907 1.631,-0.875 1.595,-0.856 1.564,-0.827 1.529,-0.805 1.466,-0.766 1.4,-0.731 1.336,-0.693 1.186,-0.604 1.032,-0.519 0.874,-0.444 0.726,-0.374 0.568,-0.322 0.417,-0.26 0.293,-0.209 0.162,-0.152 0.03,-0.127 -0.037,-0.115 -0.116,-0.131 -0.179,-0.113 -0.174,-0.103 -0.171,-0.093 0,0"
             style="fill:#000000;fill-opacity:1;fill-rule:nonzero;stroke:none"
             id="path4071" />
        </g>
        <g
           id="g4073"
           transform="translate(122.282,425.068)">
          <path
             d="m 0,0 h 0.045 c -0.066,0 -0.118,0.028 -0.187,0.009 -0.066,-0.019 -0.157,-0.086 -0.207,-0.134 -0.042,-0.04 -0.039,-0.082 -0.038,-0.137 0.003,-0.152 -0.041,-0.304 -0.071,-0.453 -0.029,-0.145 -0.106,-0.302 -0.214,-0.408 -0.039,-0.039 -0.091,-0.074 -0.138,-0.103 -0.072,-0.045 -0.136,-0.045 -0.217,-0.045 -0.121,0 -0.188,0.044 -0.282,0.116 -0.039,0.031 -0.073,0.045 -0.089,0.09 -0.013,0.036 -0.028,0.069 -0.045,0.104 -0.009,0.019 -0.027,0.04 -0.034,0.057 -0.01,0.024 0.003,0.05 -0.006,0.073 -0.079,-0.054 -0.138,-0.108 -0.149,-0.208 -0.008,-0.077 -0.052,-0.147 -0.052,-0.225 10e-4,-0.065 0.045,-0.118 0.078,-0.172 0.046,-0.078 0.07,-0.109 0.153,-0.148 0.095,-0.046 0.176,-0.084 0.283,-0.084 0.126,-0.001 0.25,-0.014 0.375,-0.017 0.115,-0.003 0.219,0.014 0.327,0.053 0.111,0.041 0.227,0.094 0.317,0.173 0.109,0.095 0.19,0.217 0.286,0.325 0.089,0.099 0.165,0.189 0.202,0.317 0.031,0.107 0.087,0.204 0.119,0.311 0.023,0.075 0.019,0.156 0.035,0.233 0.022,0.103 0.076,0.175 0.156,0.24 0.074,0.06 0.137,0.12 0.228,0.156 0.077,0.031 0.146,0.043 0.228,0.042 -0.24,0.001 -0.479,0 -0.718,0 -0.072,0 -0.143,0 -0.215,0 C 0.108,0.166 0.045,0.173 -0.014,0.148 -0.173,0.081 -0.215,-0.12 -0.252,-0.264"
             style="fill:#000000;fill-opacity:1;fill-rule:nonzero;stroke:none"
             id="path4075" />
        </g>
        <g
           id="g4077"
           transform="translate(129.413,426.321)">
          <path
             d="M 0,0 C 0.001,0.001 0.001,0.002 0.002,0.003 0,0.006 -0.002,0.008 -0.004,0.011 -0.003,0.007 -0.001,0.004 0,0"
             style="fill:#000000;fill-opacity:1;fill-rule:nonzero;stroke:none"
             id="path4079" />
        </g>
        <g
           id="g4081"
           transform="translate(119.233,442.467)">
          <path
             d="m 0,0 c 0.002,-0.159 -0.032,-0.315 -0.054,-0.472 -0.014,-0.105 -0.047,-0.207 -0.063,-0.312 -0.017,-0.111 -0.016,-0.221 -0.015,-0.333 0.001,-0.246 -0.012,-0.494 0.008,-0.74 C -0.1,-2.16 -0.12,-2.462 -0.067,-2.764 -0.006,-3.11 0.046,-3.465 0.066,-3.816 0.075,-3.985 0.1,-4.154 0.114,-4.323 0.14,-4.646 0.196,-4.964 0.267,-5.282 0.354,-5.671 0.329,-6.069 0.329,-6.465 0.329,-6.833 0.343,-7.205 0.327,-7.574 0.305,-8.047 0.264,-8.52 0.243,-8.994 0.234,-9.171 0.22,-9.348 0.215,-9.524 0.21,-9.737 0.214,-9.951 0.214,-10.164 c 0.001,-0.229 -0.018,-0.457 -0.017,-0.685 0,-0.187 0.001,-0.374 0.001,-0.561 0,-0.246 -0.009,-0.493 -0.002,-0.739 0.006,-0.205 0.035,-0.407 0.044,-0.612 0.02,-0.445 0.007,-0.893 0.007,-1.339 0,-0.173 -0.003,-0.347 -0.001,-0.52 0.002,-0.166 0.023,-0.329 0.042,-0.493 0.024,-0.221 0.002,-0.449 -0.048,-0.665 -0.012,-0.052 -0.007,-0.094 -0.053,-0.128 0.031,0.006 0.058,-0.006 0.087,-0.011 0.042,-0.007 0.083,-10e-4 0.124,-0.006 0.128,-0.016 0.237,-0.086 0.368,-0.076 0.068,0.005 0.138,0.013 0.205,0.027 0.037,0.007 0.075,0.022 0.114,0.021 0.057,0 0.105,-0.037 0.162,-0.034 -0.017,0.012 -0.011,0.047 -0.013,0.065 -0.008,0.05 -0.018,0.1 -0.026,0.15 -0.015,0.095 -0.041,0.186 -0.053,0.282 -0.018,0.143 -0.067,0.276 -0.067,0.422 10e-4,0.165 0.018,0.329 0.017,0.494 -0.002,0.29 0.016,0.579 0.029,0.869 0.013,0.3 0.021,0.599 0.02,0.9 -10e-4,0.4 0.018,0.798 0.017,1.198 -0.001,0.334 0.017,0.666 0.016,1 0,0.212 -0.008,0.426 0.004,0.639 0.015,0.257 0.014,0.515 0.026,0.773 0.01,0.231 0.004,0.463 0.003,0.693 -10e-4,0.349 0.031,0.696 0.047,1.044 0.012,0.285 -0.006,0.568 -0.014,0.852 -0.007,0.251 -0.024,0.501 -0.037,0.752 -0.007,0.146 -0.019,0.293 -0.025,0.44 -0.007,0.133 -0.001,0.266 -0.007,0.4 -0.011,0.248 -0.028,0.496 -0.042,0.744 -0.013,0.242 -0.012,0.485 -0.024,0.727 -0.012,0.227 -0.018,0.454 -0.014,0.682 0.004,0.179 0.018,0.355 0.017,0.534 0,0.415 -10e-4,0.83 0,1.245 0,0.033 0.005,0.069 0.002,0.102 -0.004,0.043 -0.029,0.067 -0.044,0.106 -0.024,0.061 0.009,0.071 0.053,0.07 L 0.044,0.145 C -0.021,0.156 0,0.044 0,0"
             style="fill:#000000;fill-opacity:1;fill-rule:nonzero;stroke:none"
             id="path4083" />
        </g>
        <g
           id="g4085"
           transform="translate(129.454,426.277)">
          <path
             d="M 0,0 C 0.021,-0.024 0.015,-0.012 0,0"
             style="fill:#000000;fill-opacity:1;fill-rule:nonzero;stroke:none"
             id="path4087" />
        </g>
        <g
           id="g4089"
           transform="translate(130.295,427.281)">
          <path
             d="m 0,0 c -0.01,0.155 -0.018,0.307 -0.037,0.461 -0.032,0.252 -0.042,0.51 -0.056,0.764 -0.034,0.589 0.019,1.179 0.024,1.769 0.003,0.308 -0.003,0.617 -0.002,0.925 0.002,0.313 0.034,0.625 0.06,0.937 0.048,0.609 0.05,1.218 0.077,1.828 C 0.081,7.03 0.113,7.374 0.113,7.72 0.112,7.996 0.106,8.272 0.096,8.548 0.075,9.144 0.031,9.738 0.008,10.334 c -0.011,0.3 -0.032,0.6 -0.044,0.901 -0.01,0.243 -0.044,0.486 -0.049,0.729 -0.007,0.401 -0.039,0.807 -0.092,1.204 -0.054,0.4 -0.143,0.798 -0.223,1.194 -0.039,0.189 -0.068,0.369 -0.066,0.562 0.001,0.098 0,0.195 0.001,0.293 0,0.022 0.002,0.043 -0.007,0.06 l -0.73,-0.816 c 0.008,0 0.017,0 0.025,-0.003 0.012,-0.048 0.012,-0.104 0.017,-0.154 0.007,-0.073 0.018,-0.146 0.019,-0.219 0.001,-0.188 0.029,-0.373 0.061,-0.558 0.023,-0.126 0.028,-0.253 0.04,-0.38 0.016,-0.162 0.041,-0.323 0.064,-0.483 0.021,-0.137 0.015,-0.275 0.031,-0.411 0.016,-0.137 0.036,-0.274 0.059,-0.409 0.048,-0.296 0.088,-0.599 0.104,-0.898 0.013,-0.265 0.019,-0.529 0.043,-0.794 0.029,-0.317 0.026,-0.639 0.026,-0.957 V 8.496 c 0,-1.086 0.004,-2.173 0,-3.259 C -0.714,5.081 -0.709,4.927 -0.7,4.772 -0.691,4.619 -0.697,4.465 -0.688,4.311 -0.678,4.127 -0.684,3.943 -0.664,3.76 -0.648,3.612 -0.633,3.466 -0.626,3.318 -0.61,3.008 -0.615,2.699 -0.614,2.389 -0.613,2.151 -0.639,1.916 -0.647,1.679 -0.651,1.532 -0.68,1.387 -0.681,1.24 -0.682,1.116 -0.676,0.994 -0.688,0.87 -0.704,0.695 -0.715,0.518 -0.712,0.343 -0.71,0.141 -0.754,-0.052 -0.775,-0.252 c -0.004,-0.031 0.018,-0.173 -0.014,-0.205 0.017,-0.021 0.03,-0.036 0.038,-0.046 0.015,-0.011 0.021,-0.023 0,0 -0.003,0.003 -0.007,0.006 -0.011,0.008 -0.003,-0.03 0.031,-0.077 0.057,-0.083 0.024,-0.004 0.054,0.01 0.077,0.016 0.069,0.02 0.141,0.032 0.21,0.049 0.067,0.017 0.133,0.031 0.199,0.049 0.051,0.013 0.097,0.034 0.151,0.033 0.052,-0.001 0.091,-0.033 0.141,-0.036 C 0.05,-0.432 0.039,-0.346 0.033,-0.309 0.017,-0.208 0.007,-0.103 0,0"
             style="fill:#000000;fill-opacity:1;fill-rule:nonzero;stroke:none"
             id="path4091" />
        </g>
        <g
           id="g4093"
           transform="translate(129.748,442.786)">
          <path
             d="m 0,0 c -0.008,0.01 -0.033,0.019 -0.045,0.027 -0.036,0.026 -0.065,0.02 -0.112,0.02 -0.198,0 -0.397,0.004 -0.595,-0.003 -0.216,-0.008 -0.431,-0.03 -0.648,-0.029 -0.219,0 -0.439,0 -0.658,0 -0.255,0 -0.512,0.006 -0.767,0.001 C -3.019,0.013 -3.212,-0.002 -3.407,-0.001 -3.62,0 -3.833,-0.01 -4.046,-0.025 -4.23,-0.038 -4.415,-0.032 -4.6,-0.032 c -0.328,0 -0.656,0 -0.984,0 -0.377,0 -0.755,-0.001 -1.133,0 -0.357,0.001 -0.714,-0.026 -1.072,-0.032 -0.18,-0.003 -0.359,-0.02 -0.539,-0.029 -0.209,-0.009 -0.42,-0.003 -0.629,-0.003 -0.34,0 -0.685,-0.012 -1.023,0.032 -0.121,0.015 -0.246,0.026 -0.364,0.053 -0.018,0.004 -0.042,0.007 -0.059,0.013 -0.025,0.01 -0.028,0.029 -0.048,0.039 -0.008,0.003 -0.014,0.004 -0.021,0.005 l 1.088,-0.947 c 0.024,-0.001 0.051,-0.005 0.074,-0.007 0.319,-0.03 0.646,-0.013 0.967,-0.013 0.374,0 0.744,0.019 1.116,0.063 0.281,0.034 0.556,0.049 0.84,0.048 0.194,0 0.388,0.001 0.582,0.001 0.252,0 0.504,-0.001 0.757,0 0.23,0.001 0.459,-0.017 0.69,-0.016 0.403,0.001 0.807,0 1.21,0 0.197,0 0.401,-0.017 0.596,0.009 0.177,0.023 0.355,0.039 0.534,0.039 0.148,0 0.294,-0.012 0.441,-0.017 0.094,-0.003 0.187,-0.006 0.28,-0.019 0.113,-0.015 0.214,-0.029 0.327,-0.028 0.056,0 0.112,-0.004 0.167,-0.001 0.026,0.002 0.051,0.016 0.076,0.018 l 0.73,0.817 C 0.001,-0.005 0.002,-0.002 0,0"
             style="fill:#000000;fill-opacity:1;fill-rule:nonzero;stroke:none"
             id="path4095" />
        </g>
        <g
           id="g4097"
           transform="translate(125.835,425.939)">
          <path
             d="m 0,0 c 0.036,0.001 0.074,-0.007 0.108,0.006 0.021,0.007 0.038,0.037 0.063,0.045 0.087,0.03 0.205,0 0.279,-0.041 0.18,-0.1 0.298,-0.231 0.436,-0.382 0.12,-0.13 0.252,-0.26 0.35,-0.406 C 1.324,-0.909 1.41,-1.017 1.451,-1.171 1.466,-1.23 1.486,-1.288 1.502,-1.346 1.518,-1.407 1.507,-1.462 1.514,-1.523 1.538,-1.736 1.666,-1.931 1.73,-2.13 1.798,-2.343 1.924,-2.478 2.093,-2.623 2.227,-2.739 2.57,-2.988 2.76,-2.872 c 0.07,0.043 0.119,0.168 0.15,0.243 0.04,0.095 0.037,0.185 0.034,0.287 -10e-4,0.086 -0.009,0.079 -0.078,0.119 -0.057,0.032 -0.104,0.068 -0.17,0.086 0.067,0.073 0.206,-0.002 0.276,-0.029 0.094,-0.035 0.216,-0.078 0.273,-0.163 0.116,-0.173 0.044,-0.368 0.07,-0.559 0.01,-0.065 0.012,-0.046 0.072,-0.056 0.074,-0.012 0.101,-0.038 0.183,-0.016 0.161,0.044 0.359,0.076 0.489,0.185 0.086,0.071 0.153,0.159 0.201,0.259 0.044,0.09 0.11,0.198 0.138,0.294 0.025,0.088 0.02,0.234 -0.056,0.296 C 4.406,-1.992 4.46,-2.058 4.513,-2.132 4.637,-2.304 4.688,-2.479 4.739,-2.682 4.773,-2.819 4.776,-2.947 4.775,-3.088 4.773,-3.262 4.675,-3.396 4.588,-3.542 4.504,-3.683 4.401,-3.797 4.282,-3.909 4.146,-4.037 3.956,-4.117 3.789,-4.197 3.59,-4.291 3.359,-4.263 3.144,-4.261 2.894,-4.259 2.651,-4.156 2.43,-4.047 2.347,-4.007 2.262,-3.936 2.186,-3.884 2.118,-3.838 2.051,-3.79 2,-3.724 1.898,-3.593 1.823,-3.473 1.761,-3.319 1.715,-3.204 1.658,-3.091 1.602,-2.981 1.533,-2.842 1.436,-2.72 1.394,-2.568 1.367,-2.471 1.354,-2.398 1.293,-2.313 1.25,-2.254 1.214,-2.19 1.172,-2.13 1.058,-1.964 0.961,-1.801 0.823,-1.65 0.726,-1.545 0.62,-1.431 0.507,-1.343 c -0.05,0.039 -0.07,0.069 -0.111,0.114 -0.044,0.046 -0.135,0.069 -0.164,0.128 -0.026,0.055 -0.005,0.18 -0.003,0.243 0.003,0.123 0.048,0.213 0,0.336 -0.049,0.124 -0.142,0.246 -0.227,0.35 -0.051,0.064 -0.133,0.098 -0.199,0.141 -0.115,0.075 -0.279,0.155 -0.37,0.257 0.144,0.025 0.285,-0.044 0.41,-0.106 C -0.05,0.067 0.022,0.066 0.142,0.05 0.269,0.034 0.386,-0.005 0.515,0"
             style="fill:#000000;fill-opacity:1;fill-rule:nonzero;stroke:none"
             id="path4099" />
        </g>
        <g
           id="g4101"
           transform="translate(124.463,425.996)">
          <path
             d="m 0,0 c -0.017,-0.052 -0.066,-0.099 -0.091,-0.15 -0.081,-0.161 -0.145,-0.347 -0.204,-0.519 -0.058,-0.169 -0.047,-0.329 -0.048,-0.504 0,-0.047 -0.003,-0.095 -0.002,-0.141 0.003,-0.091 0.032,-0.143 0.061,-0.228 0.045,-0.136 0.041,-0.299 0.053,-0.442 0.014,-0.175 0.008,-0.356 -0.039,-0.525 -0.045,-0.159 -0.116,-0.303 -0.186,-0.451 -0.079,-0.167 -0.153,-0.332 -0.258,-0.484 -0.109,-0.157 -0.218,-0.331 -0.372,-0.447 -0.164,-0.123 -0.323,-0.193 -0.516,-0.262 -0.227,-0.083 -0.426,-0.123 -0.672,-0.101 -0.177,0.015 -0.405,0.005 -0.559,0.106 -0.101,0.067 -0.206,0.16 -0.296,0.243 -0.092,0.084 -0.186,0.169 -0.188,0.297 -10e-4,0.057 -0.01,0.124 0.002,0.179 0.012,0.053 0.067,0.103 0.103,0.144 -0.054,-0.006 -0.109,0.004 -0.162,-0.002 -0.075,-0.008 -0.139,-0.079 -0.212,-0.113 -0.228,-0.105 -0.188,-0.389 -0.187,-0.601 0,-0.142 -0.007,-0.257 0.056,-0.388 0.078,-0.161 0.163,-0.283 0.321,-0.379 0.167,-0.101 0.333,-0.17 0.514,-0.241 0.252,-0.1 0.492,-0.208 0.763,-0.245 0.204,-0.028 0.444,-0.085 0.636,0.013 0.157,0.079 0.277,0.22 0.425,0.312 0.082,0.051 0.19,0.075 0.265,0.135 0.086,0.068 0.135,0.167 0.201,0.252 0.134,0.17 0.273,0.326 0.365,0.527 0.116,0.255 0.172,0.536 0.229,0.809 0.041,0.198 0.057,0.417 0.055,0.619 -0.001,0.169 0.01,0.34 0.002,0.509 -0.007,0.155 -0.111,0.286 -0.085,0.449 0.025,0.161 0.03,0.324 0.062,0.485 0.03,0.153 0.081,0.304 0.1,0.458 0.029,0.227 0.044,0.455 0.071,0.682 0.009,0.086 0.032,0.278 0.111,0.337 -0.087,-0.182 -0.23,-0.344 -0.348,-0.507 -0.061,-0.085 -0.128,-0.154 -0.171,-0.249 -0.052,-0.112 -0.087,-0.194 -0.113,-0.32"
             style="fill:#000000;fill-opacity:1;fill-rule:nonzero;stroke:none"
             id="path4103" />
        </g>
      </g>
    </g>
  </g>
</svg>
