<?xml version="1.0" encoding="UTF-8" standalone="no"?>
<!-- Created with Inkscape (http://www.inkscape.org/) -->

<svg
   width="25.246485"
   height="24"
   viewBox="0 0 6.6797991 6.35"
   version="1.1"
   id="svg57495"
   inkscape:version="1.2.1 (9c6d41e4, 2022-07-14)"
   sodipodi:docname="before-the-black-throne.svg"
   xmlns:inkscape="http://www.inkscape.org/namespaces/inkscape"
   xmlns:sodipodi="http://sodipodi.sourceforge.net/DTD/sodipodi-0.dtd"
   xmlns="http://www.w3.org/2000/svg"
   xmlns:svg="http://www.w3.org/2000/svg">
  <sodipodi:namedview
     id="namedview57497"
     pagecolor="#505050"
     bordercolor="#eeeeee"
     borderopacity="1"
     inkscape:showpageshadow="0"
     inkscape:pageopacity="0"
     inkscape:pagecheckerboard="0"
     inkscape:deskcolor="#505050"
     inkscape:document-units="mm"
     showgrid="false"
     inkscape:zoom="0.7046647"
     inkscape:cx="97.918911"
     inkscape:cy="256.15019"
     inkscape:window-width="1390"
     inkscape:window-height="941"
     inkscape:window-x="0"
     inkscape:window-y="25"
     inkscape:window-maximized="0"
     inkscape:current-layer="layer1" />
  <defs
     id="defs57492">
    <clipPath
       clipPathUnits="userSpaceOnUse"
       id="clipPath44661">
      <path
         d="M 302.631,434.321 H 327.33 V 459.02 H 302.631 Z"
         id="path44659" />
    </clipPath>
  </defs>
  <g
     inkscape:label="Layer 1"
     inkscape:groupmode="layer"
     id="layer1"
     transform="translate(-79.220042,-81.283044)">
    <g
       id="g44655"
       transform="matrix(0.31338489,0,0,-0.31338489,-16.150229,224.43784)">
      <g
         id="g44657"
         clip-path="url(#clipPath44661)">
        <g
           id="g44663"
           transform="translate(319.399,456.761)">
          <path
             d="M 0,0 C -0.012,-0.011 -0.02,-0.022 -0.029,-0.033 0.008,-0.015 0.046,0.003 0.084,0.021 0.069,0.069 0.018,0.017 0,0"
             style="fill:#231f20;fill-opacity:1;fill-rule:nonzero;stroke:none"
             id="path44665" />
        </g>
        <g
           id="g44667"
           transform="translate(317.419,452.944)">
          <path
             d="M 0,0 C 0.043,0.077 0.086,0.155 0.129,0.233 0.186,0.209 0.245,0.185 0.303,0.161 L 0.22,-0.063 C 0.148,-0.04 0.074,-0.019 0,0 M -0.474,-3.028 C -0.35,-3.163 -0.258,-3.32 -0.137,-3.458 0.279,-3.931 0.633,-4.49 0.689,-5.131 0.716,-5.446 0.716,-5.787 0.659,-6.098 0.59,-6.472 0.529,-6.839 0.425,-7.205 0.331,-7.534 0.194,-7.846 0.027,-8.145 c -0.096,-0.173 -0.176,-0.352 -0.269,-0.526 -0.071,0.318 -0.109,0.644 -0.108,0.971 0.001,0.429 0.031,0.857 0.078,1.283 0.047,0.42 0.117,0.832 0.107,1.256 -0.011,0.476 -0.082,0.947 -0.313,1.37 -0.189,0.347 -0.407,0.68 -0.712,0.935 -0.039,0.032 -0.08,0.064 -0.122,0.095 0.059,0.122 0.119,0.243 0.179,0.365 0.11,-0.09 0.215,-0.184 0.316,-0.285 0.115,-0.115 0.234,-0.227 0.343,-0.347 m -4.958,-1.245 c -0.236,-0.238 -0.458,-0.496 -0.643,-0.778 0.014,0.181 0.04,0.362 0.079,0.54 0.075,0.333 0.196,0.656 0.364,0.954 0.168,-0.134 0.332,-0.271 0.494,-0.412 -0.097,-0.101 -0.195,-0.203 -0.294,-0.304 m 1.498,-5.442 c 0.042,-0.266 0.086,-0.533 0.028,-0.801 -0.026,-0.119 -0.054,-0.24 -0.103,-0.353 -0.015,-0.036 -0.036,-0.071 -0.06,-0.105 -0.026,0.032 -0.054,0.063 -0.079,0.096 -0.13,0.169 -0.232,0.358 -0.342,0.539 -0.201,0.327 -0.391,0.665 -0.507,1.033 -0.12,0.381 -0.2,0.795 -0.221,1.195 -0.002,0.084 -0.001,0.168 -0.001,0.252 0.066,-0.056 0.132,-0.113 0.196,-0.172 0.482,-0.45 0.983,-1.008 1.089,-1.684 M 0.477,0.931 C 0.544,1.072 0.609,1.213 0.676,1.353 0.701,1.359 0.725,1.364 0.75,1.369 L 0.484,0.65 C 0.44,0.656 0.397,0.662 0.353,0.67 0.395,0.757 0.437,0.843 0.477,0.931 M 2.276,1.237 C 2.254,1.212 2.234,1.185 2.21,1.161 2.092,1.041 1.952,0.949 1.81,0.86 1.642,0.756 1.475,0.667 1.276,0.645 1.093,0.625 0.904,0.63 0.719,0.634 0.673,0.634 0.628,0.639 0.584,0.642 0.707,0.89 0.824,1.141 0.93,1.396 1.084,1.411 1.242,1.409 1.395,1.407 1.691,1.404 1.992,1.335 2.276,1.237 M 3.355,1.508 C 3.444,1.466 3.53,1.385 3.597,1.316 3.697,1.213 3.714,1.114 3.76,0.982 3.77,0.954 3.779,0.927 3.789,0.9 3.72,0.965 3.65,1.03 3.582,1.096 3.427,1.242 3.273,1.392 3.113,1.534 3.197,1.548 3.281,1.544 3.355,1.508 M -8.856,-1.724 c -0.1,-0.081 -0.219,-0.141 -0.312,-0.231 -0.06,-0.057 -0.108,-0.129 -0.156,-0.196 -0.119,-0.163 -0.274,-0.326 -0.356,-0.512 -0.076,-0.174 -0.144,-0.334 -0.296,-0.454 -0.157,-0.124 -0.274,-0.267 -0.463,-0.347 -0.162,-0.067 -0.335,-0.135 -0.503,-0.184 -0.099,-0.029 -0.196,-0.04 -0.291,-0.036 0.011,0.054 0.021,0.11 0.036,0.162 0.101,0.352 0.264,0.691 0.485,0.984 0.258,0.343 0.609,0.633 0.994,0.826 0.129,0.065 0.258,0.118 0.397,0.16 0.115,0.035 0.234,0.062 0.346,0.108 0.123,0.05 0.25,0.11 0.351,0.198 0.043,-0.03 0.086,-0.059 0.128,-0.089 -0.12,-0.13 -0.223,-0.276 -0.36,-0.389 M 8.106,-4.896 C 7.995,-4.8 7.829,-4.758 7.693,-4.712 7.452,-4.631 7.176,-4.62 6.923,-4.637 6.648,-4.655 6.398,-4.755 6.134,-4.826 5.949,-4.875 5.746,-4.872 5.556,-4.874 5.432,-4.875 5.309,-4.875 5.185,-4.865 4.9,-4.842 4.595,-4.801 4.327,-4.699 4.05,-4.594 3.782,-4.45 3.548,-4.267 c -0.178,0.14 -0.313,0.325 -0.452,0.502 -0.11,0.139 -0.211,0.277 -0.3,0.43 -0.089,0.155 -0.183,0.31 -0.241,0.48 -0.034,0.102 -0.056,0.21 -0.079,0.315 -0.03,0.14 -0.054,0.28 -0.057,0.422 -0.002,0.117 0.002,0.234 -0.016,0.35 -0.033,0.22 -0.136,0.433 -0.276,0.603 -0.27,0.33 -0.69,0.559 -1.064,0.75 C 0.79,-0.276 0.512,-0.157 0.224,-0.064 0.261,0.007 0.297,0.078 0.334,0.149 0.338,0.148 0.342,0.146 0.346,0.144 0.535,0.069 0.72,-0.031 0.927,-0.041 1.042,-0.046 1.158,-0.039 1.269,-0.009 1.349,0.02 1.43,0.044 1.513,0.063 1.583,0.074 1.65,0.094 1.714,0.122 1.82,0.174 1.903,0.247 1.98,0.337 2.086,0.458 2.176,0.587 2.266,0.72 2.327,0.81 2.401,0.891 2.455,0.986 2.484,1.036 2.51,1.087 2.537,1.136 2.906,0.982 3.238,0.77 3.539,0.505 3.676,0.384 3.801,0.252 3.921,0.117 3.924,-0.037 3.926,-0.191 3.911,-0.342 3.898,-0.466 3.864,-0.588 3.858,-0.712 3.853,-0.817 3.857,-0.926 3.859,-1.031 3.862,-1.228 3.887,-1.454 3.961,-1.638 4.049,-1.857 4.17,-2.042 4.298,-2.237 4.401,-2.393 4.559,-2.54 4.745,-2.595 c 0.16,-0.047 0.389,0.005 0.514,0.11 0.053,0.044 0.086,0.105 0.121,0.163 0.049,0.083 0.1,0.17 0.115,0.268 0.015,0.096 0.001,0.199 0.003,0.296 C 5.502,-1.804 5.487,-1.864 5.475,-1.908 5.462,-1.953 5.438,-1.961 5.406,-1.993 5.366,-2.033 5.335,-2.087 5.282,-2.113 5.228,-2.14 5.165,-2.126 5.109,-2.115 4.971,-2.089 4.78,-2.051 4.665,-1.965 4.519,-1.855 4.462,-1.671 4.391,-1.51 4.229,-1.139 4.259,-0.735 4.319,-0.343 4.513,-0.566 4.703,-0.802 4.944,-0.976 5.127,-1.107 5.342,-1.238 5.572,-1.242 5.8,-1.247 6.038,-1.241 6.254,-1.159 6.83,-0.94 7.336,-0.401 7.372,0.236 7.381,0.402 7.384,0.572 7.363,0.736 7.339,0.921 7.283,1.109 7.223,1.285 7.1,1.64 6.841,1.948 6.558,2.19 6.267,2.439 5.838,2.576 5.458,2.575 5.304,2.574 5.155,2.566 5.012,2.5 4.908,2.453 4.748,2.362 4.671,2.273 4.507,2.081 4.554,1.806 4.669,1.606 4.683,1.582 4.8,1.376 4.864,1.385 4.882,1.43 4.846,1.512 4.844,1.558 4.841,1.665 4.858,1.785 4.906,1.881 4.965,2.002 5.07,2.005 5.194,1.997 5.367,1.986 5.516,1.934 5.667,1.85 6.013,1.656 6.248,1.314 6.249,0.91 6.251,0.545 6.061,0.139 5.709,-0.008 5.24,-0.205 4.754,0.072 4.382,0.371 4.38,0.393 4.381,0.415 4.379,0.437 4.366,0.585 4.347,0.73 4.325,0.877 4.306,1.002 4.289,1.123 4.235,1.239 4.129,1.467 3.983,1.718 3.789,1.883 3.641,2.01 3.429,2.205 3.227,2.217 3.138,2.223 3.059,2.214 2.982,2.167 2.896,2.112 2.833,2.021 2.773,1.94 2.751,1.911 2.731,1.88 2.711,1.85 2.703,1.856 2.695,1.862 2.688,1.867 2.48,2.004 2.263,2.126 2.031,2.214 1.796,2.303 1.539,2.375 1.282,2.388 1.332,2.54 1.383,2.69 1.44,2.839 1.509,3.018 1.587,3.181 1.685,3.344 1.75,3.452 1.819,3.557 1.875,3.67 1.898,3.717 1.921,3.751 1.951,3.784 1.754,3.691 1.557,3.602 1.347,3.54 1.022,3.445 0.689,3.373 0.362,3.287 -0.103,3.162 -0.567,3.038 -1.035,2.925 -1.587,2.792 -2.13,2.627 -2.681,2.487 -3.229,2.348 -3.779,2.218 -4.325,2.064 -4.933,1.892 -5.542,1.724 -6.142,1.526 -6.433,1.425 -6.726,1.329 -7.02,1.237 -7.329,1.146 -7.637,1.049 -7.942,0.946 -8.669,0.691 -9.366,0.365 -10.08,0.079 c -0.074,-0.03 -0.139,-0.06 -0.214,-0.081 -0.018,-0.005 -0.067,-0.015 -0.077,-0.032 -0.026,-0.047 0.171,-0.146 0.19,-0.158 0.273,-0.172 0.538,-0.348 0.802,-0.534 0.051,-0.036 0.103,-0.071 0.154,-0.106 -0.131,-0.122 -0.323,-0.195 -0.474,-0.272 -0.133,-0.066 -0.256,-0.151 -0.374,-0.242 -0.141,-0.109 -0.298,-0.201 -0.42,-0.331 -0.125,-0.134 -0.238,-0.274 -0.337,-0.428 -0.145,-0.225 -0.246,-0.477 -0.376,-0.711 -0.113,-0.205 -0.232,-0.41 -0.32,-0.629 -0.02,-0.051 -0.039,-0.104 -0.057,-0.156 -0.146,0.061 -0.283,0.152 -0.407,0.26 -0.126,0.111 -0.229,0.24 -0.303,0.39 -0.029,0.057 -0.065,0.116 -0.085,0.177 -0.022,0.065 -0.021,0.142 -0.025,0.209 -0.008,0.14 -0.016,0.28 0.056,0.403 0.061,0.105 0.125,0.197 0.23,0.261 0.122,0.074 0.234,0.117 0.378,0.107 -0.032,0.01 -0.042,0.037 -0.064,0.059 -0.054,0.056 -0.15,0.087 -0.226,0.098 -0.197,0.029 -0.409,-0.002 -0.59,-0.084 -0.21,-0.095 -0.331,-0.248 -0.41,-0.463 -0.04,-0.107 -0.044,-0.207 -0.049,-0.32 -0.004,-0.086 -0.022,-0.17 -0.017,-0.257 0.01,-0.169 0.094,-0.347 0.176,-0.495 0.091,-0.165 0.182,-0.335 0.307,-0.478 0.134,-0.152 0.28,-0.315 0.452,-0.426 0.087,-0.056 0.186,-0.105 0.29,-0.145 -0.061,-0.199 -0.098,-0.41 -0.136,-0.61 -0.04,-0.209 -0.063,-0.418 -0.064,-0.631 -10e-4,-0.197 -0.005,-0.396 0.019,-0.592 0.023,-0.184 0.07,-0.358 0.134,-0.533 0.146,-0.399 0.422,-0.728 0.711,-1.033 0.266,-0.281 0.557,-0.553 0.874,-0.776 0.153,-0.108 0.298,-0.201 0.477,-0.26 0.136,-0.045 0.257,-0.061 0.4,-0.062 0.249,-0.001 0.563,0.079 0.715,0.289 0.06,0.082 0.143,0.17 0.164,0.271 0.022,0.11 -0.005,0.235 -0.055,0.332 -0.062,0.121 -0.155,0.217 -0.24,0.323 -0.022,0.028 -0.046,0.05 -0.07,0.073 -0.002,-0.152 -0.157,-0.26 -0.308,-0.269 -0.169,-0.01 -0.306,0.021 -0.451,0.106 -0.153,0.089 -0.297,0.192 -0.441,0.293 -0.338,0.238 -0.66,0.557 -0.865,0.917 -0.328,0.577 -0.423,1.275 -0.367,1.931 0.004,0.04 0.01,0.079 0.015,0.119 0.039,-0.001 0.078,-0.002 0.118,-0.001 0.103,0 0.207,-0.008 0.309,0.002 0.084,0.009 0.164,0.045 0.235,0.088 0.103,0.062 0.158,0.169 0.226,0.263 0.067,0.093 0.149,0.172 0.218,0.262 0.061,0.08 0.104,0.173 0.174,0.247 0.071,0.073 0.155,0.112 0.239,0.167 0.099,0.066 0.181,0.155 0.272,0.231 0.199,0.168 0.448,0.261 0.66,0.412 0.119,0.085 0.246,0.154 0.367,0.236 0.102,0.07 0.19,0.157 0.3,0.213 0.098,0.049 0.204,0.072 0.305,0.112 0.112,0.044 0.213,0.107 0.317,0.166 0.079,-0.065 0.157,-0.128 0.236,-0.192 -0.037,-0.052 -0.078,-0.101 -0.123,-0.146 -0.141,-0.14 -0.321,-0.279 -0.508,-0.346 -0.183,-0.065 -0.382,-0.105 -0.558,-0.19 -0.177,-0.084 -0.343,-0.179 -0.485,-0.316 -0.118,-0.114 -0.257,-0.241 -0.331,-0.391 -0.074,-0.151 -0.117,-0.33 -0.155,-0.493 -0.028,-0.121 -0.03,-0.256 -0.024,-0.381 0.009,-0.188 0.127,-0.362 0.235,-0.508 0.102,-0.136 0.219,-0.26 0.348,-0.371 0.183,-0.157 0.375,-0.329 0.484,-0.549 0.042,-0.084 0.027,-0.209 0.019,-0.3 -0.012,-0.138 -0.042,-0.261 -0.123,-0.376 -0.037,-0.052 -0.074,-0.1 -0.134,-0.128 -0.042,-0.021 -0.09,-0.024 -0.135,-0.037 -0.02,-0.007 -0.084,-0.024 -0.093,-0.043 0.021,-0.039 0.139,-0.022 0.173,-0.025 0.145,-0.013 0.259,-0.01 0.402,0.027 0.16,0.041 0.314,0.086 0.435,0.205 0.113,0.11 0.159,0.24 0.212,0.384 0.058,0.154 0.114,0.27 0.119,0.439 0.006,0.184 -0.01,0.359 -0.084,0.53 -0.062,0.144 -0.146,0.282 -0.221,0.419 -0.053,0.097 -0.123,0.185 -0.131,0.297 -0.012,0.148 -0.015,0.313 -0.002,0.461 0.018,0.2 0.104,0.372 0.216,0.535 0.116,0.17 0.213,0.358 0.381,0.485 0.129,0.098 0.293,0.19 0.444,0.246 0.087,0.033 0.178,0.055 0.263,0.092 0.231,-0.171 0.46,-0.346 0.688,-0.523 -0.206,-0.324 -0.36,-0.663 -0.436,-1.045 -0.083,-0.421 -0.164,-0.852 -0.134,-1.284 0.011,-0.162 0.041,-0.321 0.084,-0.478 -0.074,-0.187 -0.14,-0.377 -0.193,-0.569 -0.087,-0.316 -0.073,-0.628 -0.07,-0.953 0.001,-0.213 0.005,-0.423 0.029,-0.635 0.1,-0.852 0.331,-1.705 0.749,-2.457 0.071,-0.128 0.12,-0.267 0.201,-0.388 0.06,-0.089 0.131,-0.166 0.202,-0.245 0.085,-0.095 0.169,-0.192 0.253,-0.288 -0.312,-0.02 -0.637,-0.034 -0.938,0.03 -0.243,0.051 -0.499,0.154 -0.722,0.259 -0.168,0.08 -0.333,0.167 -0.48,0.281 -0.092,0.071 -0.191,0.143 -0.252,0.244 -0.05,0.081 -0.077,0.172 -0.109,0.261 -0.05,0.142 -0.129,0.348 -0.095,0.502 0.014,0.069 0.061,0.133 0.095,0.188 -0.029,0.013 -0.052,0.005 -0.076,-0.012 -0.054,-0.039 -0.108,-0.137 -0.14,-0.193 -0.121,-0.208 -0.176,-0.472 -0.117,-0.709 0.033,-0.129 0.104,-0.233 0.188,-0.333 0.116,-0.137 0.238,-0.269 0.37,-0.39 0.155,-0.143 0.315,-0.304 0.505,-0.4 0.124,-0.062 0.256,-0.103 0.38,-0.166 0.185,-0.095 0.357,-0.215 0.546,-0.303 0.172,-0.081 0.326,-0.107 0.514,-0.12 0.196,-0.012 0.388,-0.06 0.583,-0.072 0.176,-0.011 0.354,0.013 0.524,0.059 0.042,-0.052 0.082,-0.105 0.119,-0.16 0.141,-0.212 0.233,-0.478 0.277,-0.727 0.05,-0.278 0.036,-0.58 -0.079,-0.84 -0.15,-0.337 -0.398,-0.675 -0.758,-0.809 -0.4,-0.149 -1.046,-0.033 -1.209,0.412 -0.079,0.218 0.055,0.519 0.285,0.583 0.178,0.049 0.354,-0.011 0.533,-10e-4 0.076,0.005 0.035,0.052 0.005,0.1 -0.1,0.16 -0.299,0.268 -0.465,0.346 -0.184,0.086 -0.352,0.085 -0.546,0.026 -0.094,-0.029 -0.188,-0.059 -0.283,-0.085 -0.095,-0.026 -0.191,-0.047 -0.272,-0.108 -0.099,-0.073 -0.176,-0.192 -0.244,-0.293 -0.043,-0.065 -0.077,-0.124 -0.084,-0.203 -0.019,-0.202 0,-0.413 0.058,-0.608 0.089,-0.303 0.288,-0.506 0.511,-0.719 0.16,-0.152 0.313,-0.301 0.499,-0.422 0.168,-0.108 0.347,-0.194 0.532,-0.266 0.225,-0.088 0.444,-0.156 0.686,-0.179 0.207,-0.02 0.428,-0.029 0.637,-0.015 0.12,0.008 0.232,0.033 0.348,0.061 0.161,0.039 0.329,0.082 0.478,0.155 0.238,0.119 0.467,0.285 0.666,0.461 0.12,0.107 0.231,0.209 0.317,0.345 0.085,0.136 0.172,0.278 0.244,0.421 0.122,0.242 0.218,0.519 0.217,0.791 -10e-4,0.145 -0.024,0.289 -0.041,0.432 -0.015,0.123 -0.029,0.242 -0.062,0.361 -0.045,0.162 -0.132,0.321 -0.207,0.47 -0.067,0.133 -0.138,0.265 -0.219,0.391 -0.13,0.2 -0.28,0.392 -0.448,0.561 -0.137,0.137 -0.279,0.266 -0.418,0.398 0.206,0.376 0.26,0.819 0.217,1.242 -0.021,0.213 -0.118,0.372 -0.215,0.559 -0.113,0.217 -0.229,0.426 -0.354,0.635 -0.279,0.466 -0.611,0.881 -0.956,1.297 -0.13,0.158 -0.272,0.312 -0.382,0.485 0,0.098 0.003,0.196 0.008,0.293 0.018,0.245 0.067,0.484 0.159,0.712 0.181,0.441 0.444,0.819 0.754,1.18 0.074,0.087 0.151,0.171 0.229,0.252 0.368,-0.331 0.717,-0.697 0.909,-1.149 0.034,-0.083 0.065,-0.167 0.093,-0.251 0.011,-0.044 0.024,-0.087 0.04,-0.129 0.061,-0.057 0.134,0.095 0.151,0.128 0.049,0.112 0.095,0.226 0.138,0.341 0.059,0.148 0.119,0.295 0.178,0.443 0.143,0.348 0.301,0.689 0.457,1.032 0.113,0.248 0.229,0.495 0.343,0.742 0.091,-0.085 0.178,-0.174 0.256,-0.271 0.181,-0.226 0.31,-0.481 0.403,-0.755 0.083,-0.244 0.14,-0.485 0.157,-0.743 0.019,-0.288 0.012,-0.577 0.01,-0.866 -0.002,-0.532 0.009,-1.065 0.063,-1.595 0.033,-0.323 0.072,-0.643 0.099,-0.966 0.018,-0.213 0.033,-0.427 0.065,-0.638 -0.088,-0.183 -0.17,-0.369 -0.243,-0.558 -0.14,-0.364 -0.218,-0.755 -0.305,-1.134 -0.031,-0.134 -0.068,-0.266 -0.087,-0.403 -0.022,-0.16 0.005,-0.319 0.019,-0.478 0.011,-0.117 0.01,-0.232 0.015,-0.349 0.005,-0.106 0.031,-0.208 0.057,-0.31 0.061,-0.24 0.21,-0.441 0.363,-0.631 0.081,-0.101 0.17,-0.206 0.266,-0.293 0.093,-0.084 0.203,-0.152 0.303,-0.228 0.171,-0.129 0.367,-0.209 0.571,-0.273 0.17,-0.053 0.34,-0.106 0.513,-0.147 0.171,-0.041 0.331,-0.085 0.507,-0.087 -0.075,0 -0.13,0.012 -0.199,0.046 -0.162,0.08 -0.316,0.18 -0.466,0.281 -0.167,0.114 -0.309,0.268 -0.443,0.419 -0.131,0.146 -0.251,0.33 -0.328,0.511 -0.118,0.278 -0.19,0.579 -0.234,0.876 -0.024,0.163 -0.026,0.306 -0.019,0.471 0.009,0.202 0.006,0.409 0.037,0.61 0.013,0.085 0.03,0.17 0.049,0.254 0.031,-0.094 0.065,-0.186 0.103,-0.277 0.244,-0.571 0.634,-1.087 1.059,-1.536 0.386,-0.407 0.86,-0.73 1.369,-0.964 0.505,-0.233 1.06,-0.326 1.611,-0.323 0.256,0.002 0.504,0.037 0.753,0.091 0.213,0.046 0.427,0.096 0.629,0.181 0.582,0.246 1.125,0.698 1.343,1.305 0.125,0.347 0.173,0.708 0.172,1.076 -0.002,0.33 -0.012,0.66 -0.077,0.985 -0.065,0.32 -0.159,0.636 -0.319,0.922 -0.106,0.192 -0.246,0.367 -0.38,0.54 -0.102,0.132 -0.209,0.255 -0.331,0.37 -0.522,0.495 -1.263,0.929 -2.011,0.77 C 3.352,-7.905 3.118,-8.036 2.943,-8.197 2.868,-8.267 2.798,-8.341 2.724,-8.413 2.646,-8.49 2.565,-8.561 2.518,-8.662 2.423,-8.866 2.39,-9.081 2.441,-9.301 c 0.021,-0.095 0.064,-0.27 0.176,-0.306 0.098,-0.031 0.151,0.128 0.177,0.195 0.04,0.105 0.103,0.194 0.175,0.281 0.13,0.157 0.269,0.321 0.48,0.352 0.1,0.016 0.228,0.004 0.33,-10e-4 0.158,-0.007 0.287,-0.044 0.425,-0.119 0.304,-0.164 0.513,-0.44 0.653,-0.751 0.08,-0.179 0.156,-0.366 0.188,-0.56 0.026,-0.158 0.025,-0.324 0.021,-0.484 -0.013,-0.43 -0.168,-0.828 -0.435,-1.163 -0.13,-0.161 -0.287,-0.279 -0.467,-0.378 -0.184,-0.102 -0.376,-0.192 -0.592,-0.195 -0.426,-0.007 -0.864,0.112 -1.246,0.293 -0.237,0.112 -0.473,0.252 -0.687,0.406 -0.241,0.172 -0.445,0.395 -0.64,0.615 -0.377,0.428 -0.67,0.914 -0.9,1.434 0.024,0.051 0.047,0.103 0.071,0.155 0.099,0.211 0.18,0.43 0.272,0.644 0.206,0.483 0.446,0.947 0.627,1.44 0.077,0.207 0.15,0.414 0.234,0.618 0.077,0.185 0.149,0.366 0.192,0.562 0.078,0.357 0.052,0.716 0.056,1.079 0.002,0.17 -0.007,0.326 -0.04,0.493 -0.045,0.222 -0.104,0.455 -0.178,0.669 -0.073,0.208 -0.167,0.425 -0.302,0.6 -0.134,0.174 -0.277,0.352 -0.434,0.505 -0.26,0.254 -0.554,0.46 -0.84,0.682 -0.203,0.157 -0.388,0.344 -0.549,0.547 0.142,0.313 0.281,0.628 0.424,0.941 0.128,0.005 0.257,-0.007 0.384,-0.042 0.167,-0.046 0.309,-0.162 0.443,-0.267 0.134,-0.107 0.252,-0.22 0.351,-0.36 0.204,-0.29 0.368,-0.612 0.531,-0.927 0.09,-0.174 0.164,-0.352 0.246,-0.53 0.08,-0.176 0.171,-0.347 0.253,-0.521 0.184,-0.387 0.354,-0.754 0.628,-1.089 0.237,-0.29 0.51,-0.536 0.817,-0.748 0.286,-0.197 0.569,-0.422 0.91,-0.511 0.206,-0.055 0.417,-0.131 0.631,-0.139 0.181,-0.007 0.339,0.018 0.513,0.062 0.224,0.057 0.539,0.097 0.724,-0.071 C 6.181,-5.996 6.222,-6.132 6.208,-6.287 6.195,-6.426 6.135,-6.593 5.984,-6.634 5.877,-6.662 5.731,-6.629 5.625,-6.609 5.541,-6.593 5.523,-6.573 5.475,-6.51 5.35,-6.345 5.07,-6.572 4.991,-6.687 c -0.092,-0.135 0.001,-0.247 0.101,-0.35 0.193,-0.2 0.424,-0.331 0.684,-0.428 0.194,-0.071 0.377,-0.078 0.582,-0.064 0.152,0.012 0.313,0.017 0.458,0.069 0.249,0.091 0.489,0.24 0.666,0.436 0.181,0.201 0.312,0.419 0.409,0.67 0.087,0.226 0.125,0.465 0.209,0.693 0.079,0.213 0.22,0.579 0.006,0.765"
             style="fill:#231f20;fill-opacity:1;fill-rule:nonzero;stroke:none"
             id="path44669" />
        </g>
        <g
           id="g44671"
           transform="translate(308.462,445.524)">
          <path
             d="M 0,0 C -0.009,0.023 -0.082,0.101 -0.11,0.058 -0.124,0.037 -0.093,0.007 -0.079,-0.006 -0.047,-0.037 -0.015,-0.065 0.016,-0.094 0.017,-0.064 0.013,-0.033 0,0"
             style="fill:#231f20;fill-opacity:1;fill-rule:nonzero;stroke:none"
             id="path44673" />
        </g>
      </g>
    </g>
  </g>
</svg>
