<?xml version="1.0" encoding="UTF-8" standalone="no"?>
<!-- Created with Inkscape (http://www.inkscape.org/) -->

<svg
   width="24.205223"
   height="24"
   viewBox="0 0 6.4042985 6.35"
   version="1.1"
   id="svg54703"
   inkscape:version="1.2.1 (9c6d41e4, 2022-07-14)"
   sodipodi:docname="disappearance-at-the-twilight-estate.svg"
   xmlns:inkscape="http://www.inkscape.org/namespaces/inkscape"
   xmlns:sodipodi="http://sodipodi.sourceforge.net/DTD/sodipodi-0.dtd"
   xmlns="http://www.w3.org/2000/svg"
   xmlns:svg="http://www.w3.org/2000/svg">
  <sodipodi:namedview
     id="namedview54705"
     pagecolor="#505050"
     bordercolor="#eeeeee"
     borderopacity="1"
     inkscape:showpageshadow="0"
     inkscape:pageopacity="0"
     inkscape:pagecheckerboard="0"
     inkscape:deskcolor="#505050"
     inkscape:document-units="mm"
     showgrid="false"
     inkscape:zoom="0.7046647"
     inkscape:cx="208.60985"
     inkscape:cy="118.49607"
     inkscape:window-width="1390"
     inkscape:window-height="941"
     inkscape:window-x="0"
     inkscape:window-y="25"
     inkscape:window-maximized="0"
     inkscape:current-layer="layer1" />
  <defs
     id="defs54700">
    <clipPath
       clipPathUnits="userSpaceOnUse"
       id="clipPath4023">
      <path
         d="M 65.154,419.821 H 89.853 V 444.52 H 65.154 Z"
         id="path4021" />
    </clipPath>
  </defs>
  <g
     inkscape:label="Layer 1"
     inkscape:groupmode="layer"
     id="layer1"
     transform="translate(-49.925,-117.54546)">
    <g
       id="g4017"
       transform="matrix(0.27264641,0,0,-0.27264641,31.99622,238.55014)">
      <g
         id="g4019"
         clip-path="url(#clipPath4023)">
        <g
           id="g4025"
           transform="translate(83.2949,427.69)">
          <path
             d="M 0,0 C -0.005,0.002 -0.01,0.003 -0.014,0.005 -0.072,0.025 -0.134,0 -0.177,-0.038 c -0.091,-0.08 -0.15,-0.191 -0.18,-0.308 -0.001,-0.004 0.003,-0.007 0.007,-0.006 0.071,0.017 0.145,0.024 0.217,0.03 0.075,0.007 0.146,-0.007 0.202,0.06 C 0.148,-0.17 0.117,-0.04 0,0"
             style="fill:#000000;fill-opacity:1;fill-rule:nonzero;stroke:none"
             id="path4027" />
        </g>
        <g
           id="g4029"
           transform="translate(87.5615,430.742)">
          <path
             d="m 0,0 c -0.004,-0.264 -0.075,-0.537 -0.141,-0.79 -0.035,-0.134 -0.125,-0.38 -0.247,-0.615 -0.161,-0.092 -0.262,-0.149 -0.369,-0.251 -0.199,0.046 -0.426,0.041 -0.674,-0.011 -0.094,-0.019 -0.311,-0.129 -0.409,-0.08 -0.151,0.073 -0.148,0.28 -0.247,0.405 -0.122,0.152 -0.285,0.224 -0.475,0.224 -0.327,0.001 -0.751,-0.294 -0.659,-0.649 0.026,-0.099 0.15,-0.081 0.183,0 0.097,0.238 0.329,0.368 0.472,0.128 0.076,-0.128 0.069,-0.276 0.15,-0.408 0.256,-0.421 0.547,-0.27 0.881,-0.399 0.386,-0.15 0.077,-0.489 0.022,-0.808 -0.024,-0.137 -0.014,-0.288 0.022,-0.436 -0.099,-0.092 -0.233,-0.124 -0.338,-0.21 -0.13,0.04 -0.266,0.062 -0.401,0.06 -0.346,-0.006 -0.627,-0.16 -0.881,-0.386 -0.113,-0.101 -0.212,-0.217 -0.327,-0.317 -0.156,-0.136 -0.075,-0.222 -0.277,-0.091 -0.204,0.134 -0.111,0.341 -0.221,0.533 -0.164,0.285 -0.591,0.225 -0.703,0.543 -0.009,0.027 -0.053,0.04 -0.067,0.009 -0.185,-0.41 -0.14,-0.503 0.156,-0.805 0.144,-0.01 0.209,-0.095 0.193,-0.255 0.003,-0.022 0.006,-0.044 0.009,-0.066 0.042,-0.084 0.07,-0.119 0.142,-0.189 0.14,-0.133 0.359,-0.215 0.531,-0.294 0.366,-0.166 0.708,-0.156 1.078,-0.109 -0.179,-0.179 -0.376,-0.324 -0.55,-0.378 -0.383,-0.119 -0.99,0.179 -1.279,-0.215 -0.126,-0.171 -0.149,-0.522 -0.202,-0.712 -0.005,-0.015 -0.009,-0.029 -0.013,-0.044 -0.216,0.093 -0.421,0.097 -0.654,0.071 -0.027,-0.003 -0.046,-0.014 -0.06,-0.029 -0.003,0.404 0.117,0.731 -0.073,1.141 -0.177,0.381 -0.329,0.329 -0.638,0.527 -0.28,0.18 -0.078,0.277 -0.231,0.582 -0.154,0.308 -0.576,0.381 -0.875,0.475 -0.111,0.035 -0.192,-0.114 -0.112,-0.194 0.136,-0.135 0.343,-0.252 0.436,-0.42 0.141,-0.256 -0.015,-0.276 0.016,-0.553 0.022,-0.204 0.146,-0.357 0.313,-0.463 0.352,-0.225 0.568,-0.035 0.465,-0.701 -0.048,-0.309 -0.251,-0.534 -0.204,-0.861 0.041,-0.289 0.228,-0.517 0.483,-0.654 -0.136,-0.063 -0.275,-0.165 -0.365,-0.235 -0.166,-0.13 -0.316,-0.46 -0.352,-0.771 -0.017,0.011 -0.035,0.022 -0.052,0.034 -0.061,0.117 -0.155,0.203 -0.265,0.259 -0.086,0.131 -0.124,0.28 -0.133,0.451 -0.015,0.321 -0.03,0.556 -0.378,0.665 -0.103,0.032 -0.197,-0.054 -0.201,-0.153 -0.008,-0.161 0.12,-0.327 0.025,-0.443 -0.046,-0.056 -0.235,-0.101 -0.302,-0.143 -0.089,-0.055 -0.174,-0.121 -0.257,-0.187 -0.057,0.283 -0.232,0.547 -0.506,0.759 -0.198,0.154 -0.481,0.224 -0.248,0.42 0.2,0.169 0.421,0.12 0.565,0.386 0.156,0.289 0.036,0.636 -0.307,0.657 -0.072,0.005 -0.129,-0.089 -0.086,-0.15 0.173,-0.246 -0.502,-0.273 -0.701,-0.365 -0.39,-0.181 -0.66,-0.617 -0.694,-1.044 -0.017,-0.22 0.049,-0.395 0.182,-0.567 0.145,-0.189 0.388,-0.229 0.534,-0.379 0.022,-0.023 0.042,-0.049 0.053,-0.049 -0.022,-0.065 -0.09,-0.137 -0.124,-0.177 -0.022,-0.024 -0.041,-0.046 -0.061,-0.066 -0.095,0.093 -0.193,0.174 -0.279,0.232 -0.363,0.244 -0.776,0.516 -1.109,0.805 0.201,-0.15 -0.152,0.394 -0.307,0.478 -0.301,0.163 -0.604,0.076 -0.875,-0.066 -0.18,-0.095 -0.203,-0.276 -0.451,-0.226 -0.094,0.019 -0.178,0.146 -0.251,0.24 -0.025,0.161 -0.058,0.341 -0.069,0.326 0.002,0.003 0.705,-0.035 0.829,-0.003 0.113,0.028 0.218,0.062 0.311,0.14 0.217,0.18 0.253,0.455 0.193,0.725 -0.113,0.517 -0.62,0.696 -1.075,0.492 -0.017,0.006 -0.035,0.011 -0.047,0.004 -0.006,0.001 -0.008,0.001 -0.01,0.001 0,0 0,0 0,0 -0.021,0.02 -0.051,0.034 -0.075,0.044 -10e-4,0.003 0,0.005 -10e-4,0.008 -0.01,0.047 -0.038,0.087 -0.06,0.129 -0.06,0.115 -0.263,0.066 -0.252,-0.068 0.006,-0.071 0.023,-0.147 0.08,-0.196 0.017,-0.015 0.036,-0.024 0.055,-0.029 0.019,-0.115 0.151,-0.182 0.277,-0.169 0.024,-0.022 0.053,-0.038 0.081,-0.048 0.139,-0.047 0.343,-0.009 0.452,-0.097 0.253,-0.205 -0.02,-0.406 -0.215,-0.452 -0.365,-0.088 -0.978,0.084 -1.131,-0.413 -0.058,-0.189 0.059,-0.679 -0.239,-0.74 -0.152,-0.031 -0.665,0.299 -0.753,0.411 -0.007,0.009 -0.013,0.019 -0.019,0.028 -0.031,0.272 -0.109,0.533 -0.217,0.712 -0.184,0.302 -0.343,0.596 -0.319,0.958 0.012,0.177 0.1,0.337 0.094,0.531 -0.009,0.288 -0.112,0.621 0.09,0.869 0.252,0.31 0.534,0.226 0.792,0.024 0.05,-0.039 0.505,-0.459 0.107,-0.381 -0.179,0.035 -0.277,-0.154 -0.169,-0.29 0.314,-0.395 0.761,0.028 0.781,0.406 0.039,0.767 -0.922,1.148 -1.533,0.953 -0.298,-0.095 -0.665,-0.321 -0.826,-0.6 -0.212,-0.369 -0.009,-0.795 -0.088,-1.184 -0.027,-0.132 -0.052,-0.254 -0.07,-0.374 -0.029,-0.034 -0.053,-0.073 -0.067,-0.122 -0.052,-0.188 -0.086,-0.326 -0.088,-0.483 -0.018,0.007 -0.037,0.014 -0.056,0.023 -0.586,0.262 -0.264,0.092 -0.399,0.703 -0.04,0.182 -0.145,0.388 -0.274,0.523 -0.264,0.279 -0.425,0.111 -0.354,0.697 0.026,0.219 0.109,0.381 0.282,0.512 0.25,0.188 0.422,0.137 0.626,0.421 0.046,0.064 0.001,0.278 0.062,0.328 0.126,0.103 0.528,-0.017 0.69,0.017 0.185,0.039 0.286,0.058 0.355,0.246 0.049,0.13 -0.102,0.283 -0.233,0.234 -0.378,-0.144 -0.837,0.212 -1.21,-0.093 -0.156,-0.127 -0.103,-0.278 -0.203,-0.407 -0.149,-0.191 -0.429,-0.228 -0.586,-0.42 -0.02,-0.025 -0.038,-0.055 -0.056,-0.084 -0.069,0.002 -0.124,-0.011 -0.203,-0.037 -0.216,-0.073 -0.154,-0.148 -0.3,-0.1 -0.002,0.012 -0.005,0.024 -0.008,0.038 -0.025,0.069 -0.057,0.134 -0.095,0.197 -0.082,0.115 -0.173,0.162 -0.297,0.219 -0.352,0.159 -0.572,10e-4 -0.92,-0.047 -0.01,0.007 -0.021,0.013 -0.031,0.021 -0.11,0.084 -0.241,0.223 -0.272,0.361 0.023,0.044 0.036,0.097 0.038,0.157 0.02,0.017 0.045,0.039 0.068,0.101 0.055,0.147 0.094,0.27 0.116,0.383 0.396,-0.275 0.842,-0.544 1.344,-0.381 0.53,0.172 0.277,0.513 0.475,0.878 0.131,0.244 0.644,0.272 0.83,0.554 0.14,0.212 0.202,0.677 0.116,0.913 -0.181,0.49 -1.158,0.731 -1.094,0.007 0.012,-0.131 0.151,-0.189 0.252,-0.104 0.314,0.265 0.388,-0.407 0.216,-0.571 -0.19,-0.182 -0.395,-0.051 -0.606,-0.099 -0.239,-0.053 -0.345,-0.151 -0.446,-0.382 -0.039,-0.09 -0.012,-0.297 -0.077,-0.364 -0.111,-0.116 -0.212,0.054 -0.415,0.208 -0.316,0.24 -0.504,0.57 -0.706,0.895 0.117,0.533 0.322,1.096 0.894,1.174 0.158,0.022 0.283,-0.033 0.414,0.083 0.084,0.073 0.091,0.175 0.099,0.279 0.073,0.09 0.106,0.205 0.064,0.345 -0.039,0.13 -0.23,0.166 -0.299,0.039 -0.016,-0.029 -0.029,-0.084 -0.042,-0.144 -0.09,0.034 -0.38,0.295 -0.392,0.282 -0.051,0.08 -0.086,0.173 -0.155,0.243 -0.127,0.131 -0.302,0.21 -0.461,0.29 -0.108,0.053 -0.245,0.099 -0.378,0.114 0.049,0.527 0.331,1.074 0.999,0.871 0.476,-0.145 0.993,-0.782 1.549,-0.389 0.442,0.312 0.332,0.925 -0.071,1.175 -0.266,0.166 -0.509,-0.253 -0.245,-0.418 -0.215,-0.418 -0.474,-0.43 -0.777,-0.037 -0.022,0.024 -0.049,0.041 -0.079,0.051 -0.101,0.043 -0.17,0.093 -0.275,0.117 -0.196,0.045 -0.448,0.026 -0.659,-0.027 -0.505,0.157 0.035,1.121 -0.065,1.726 0.122,0.202 0.281,0.379 0.505,0.515 0.259,0.157 0.776,0.416 1.073,0.294 0.252,-0.103 0.287,-0.387 0.479,-0.546 0.255,-0.214 0.815,-0.366 1.14,-0.286 0.16,0.039 0.869,0.607 0.971,0.439 0.082,-0.135 0.322,-0.124 0.357,0.046 0.103,0.516 -0.508,0.838 -0.96,0.577 -0.325,-0.187 -0.317,-0.547 -0.766,-0.472 -0.466,0.079 -0.482,0.576 -0.795,0.839 -0.143,0.12 -0.306,0.184 -0.479,0.209 -0.018,0.488 0.649,0.763 1.068,0.564 0.069,-0.032 0.139,-0.043 0.205,-0.04 0.06,-0.027 0.128,-0.028 0.195,-0.012 0.035,-0.047 0.073,-0.097 0.129,-0.119 0.065,-0.026 0.127,-10e-4 0.194,-0.013 0.03,-0.005 0.049,0.017 0.045,0.046 -0.016,0.115 -0.082,0.218 -0.133,0.32 -0.021,0.041 -0.038,0.081 -0.054,0.12 0.008,0.073 -0.006,0.152 -0.048,0.232 -0.185,0.353 -0.162,0.797 -0.092,1.244 0.284,-0.742 0.839,-1.019 1.609,-1.22 0.485,-0.127 0.602,0.036 0.662,-0.641 0.016,-0.172 -0.062,-0.405 -0.007,-0.572 0.061,-0.184 0.176,-0.27 0.364,-0.339 0.483,-0.179 0.969,0.385 0.569,0.774 -0.2,0.195 -0.491,-0.1 -0.305,-0.305 -0.126,-0.121 -0.207,-0.095 -0.244,0.076 -0.01,0.112 0,0.222 0.03,0.331 0.031,0.13 0.116,0.22 0.132,0.348 0.046,0.377 -0.204,0.775 -0.488,0.974 -0.34,0.238 -0.863,0.25 -1.184,0.514 -0.017,0.014 -0.031,0.029 -0.047,0.043 0.002,0.004 0.006,0.006 0.007,0.01 0.09,0.205 0.133,0.472 0.134,0.697 0.03,0.026 0.056,0.054 0.079,0.087 -0.073,-0.004 -0.045,0.013 0.085,0.05 0.062,0.043 0.142,0.095 0.213,0.149 0.175,-0.074 0.371,-0.09 0.545,0.002 0.04,-0.002 0.08,-0.003 0.119,-10e-4 -0.006,-0.022 -0.013,-0.045 -0.016,-0.065 -0.033,-0.215 0.02,-0.448 0.14,-0.629 0.131,-0.198 0.335,-0.315 0.561,-0.36 0.12,-0.023 0.236,0.025 0.357,-0.049 0.115,-0.07 0.216,-0.456 0.299,-0.625 0.041,-0.085 0.164,-0.073 0.209,0 0.185,0.303 0.099,0.631 -0.136,0.885 -0.215,0.23 -0.641,0.371 -0.771,0.655 -0.127,0.278 0.062,0.588 -0.021,0.869 0.017,0.01 0.034,0.02 0.051,0.031 0.184,-0.114 0.384,-0.186 0.623,-0.141 0.253,0.048 0.583,0.343 0.854,0.424 -0.036,-0.331 0.015,-0.683 0.121,-0.981 0.016,-0.043 0.046,-0.088 0.085,-0.12 0.005,-0.105 0.031,-0.206 0.101,-0.298 0.071,-0.093 0.124,-0.067 0.223,-0.126 0.138,-0.042 0.267,-0.103 0.388,-0.182 0.032,-0.486 -0.067,-0.629 -0.298,-0.429 -0.118,0.071 -0.243,-0.093 -0.146,-0.191 0.324,-0.329 0.862,-0.278 0.982,0.245 0.134,0.579 -0.661,0.584 -0.853,0.94 -0.042,0.078 -0.06,0.153 -0.063,0.225 0,0.008 0,0.016 0,0.025 0.005,0.169 0.108,0.32 0.25,0.465 0.119,0.074 0.259,0.132 0.365,0.229 0.108,0.099 0.177,0.199 0.221,0.3 0.051,0.052 0.096,0.105 0.135,0.159 0.048,-0.004 0.095,-0.006 0.145,-0.01 0.304,-0.018 0.273,-0.022 0.464,-0.184 0.188,-0.16 0.28,-0.269 0.538,-0.323 0.129,-0.027 0.277,0.016 0.343,0.139 0.07,0.131 0.285,0.267 0.519,0.385 -0.261,-0.387 -0.136,-0.779 -0.129,-1.231 0,-0.004 0,-0.007 0,-0.011 C -8.387,9.953 -8.504,9.855 -8.574,9.747 -8.605,9.699 -8.631,9.655 -8.659,9.614 -8.731,9.597 -8.81,9.574 -8.892,9.525 -9.078,9.412 -9.122,9.248 -9.135,9.044 -9.143,8.923 -9.037,8.874 -8.943,8.893 -8.92,8.829 -8.89,8.767 -8.855,8.711 c 0.096,-0.156 0.323,-0.051 0.288,0.122 -0.012,0.063 -0.097,0.244 -0.076,0.315 0.004,0.002 0.007,0.004 0.01,0.006 0.032,-0.004 0.169,0.029 0.192,0.038 0.249,0.106 0.523,0.403 0.682,0.616 0.172,0.23 0.063,0.583 0.278,0.766 0.144,0.122 0.386,0.099 0.614,0.102 0.035,-0.127 0.062,-0.26 0.097,-0.355 0.031,-0.085 0.113,-0.145 0.207,-0.118 0.241,0.069 0.453,0.102 0.694,0.028 0.145,-0.044 0.271,-0.131 0.406,-0.198 C -5.538,9.745 -5.785,9.513 -5.819,9.209 -5.859,8.851 -5.671,8.751 -5.486,8.483 -5.419,8.402 -5.349,8.323 -5.278,8.245 -5.35,8.27 -5.416,8.267 -5.478,8.236 -5.547,8.157 -5.651,8.104 -5.72,8.012 -5.823,7.875 -5.85,7.8 -5.861,7.632 -5.865,7.564 -5.744,7.496 -5.748,7.441 -5.762,7.206 -5.905,7.192 -6.011,7.012 -6.197,6.698 -6.234,6.665 -6.167,6.272 c 0.028,-0.17 0.319,-0.172 0.345,0 0.064,0.415 0.522,0.577 0.586,0.966 0.029,0.172 -0.089,0.473 -0.134,0.424 0.219,0.243 0.575,0.012 0.781,0.37 0.162,0.28 0.027,0.469 -0.115,0.703 -0.234,0.385 -0.169,0.21 -0.095,0.555 0.033,0.155 0.147,0.287 0.181,0.452 0.17,-0.239 0.291,-0.498 0.468,-0.734 0.138,-0.184 0.292,-0.282 0.528,-0.236 0.095,0.018 0.207,0.065 0.286,0.12 0.038,0.028 0.069,0.068 0.101,0.104 C -2.978,8.754 -2.897,8.379 -2.528,8.199 -2.503,8.187 -2.48,8.177 -2.456,8.167 -2.457,8.165 -2.459,8.163 -2.46,8.16 -2.738,8.072 -3.078,8.187 -3.356,7.968 -3.743,7.664 -3.708,7.146 -4.067,6.808 -4.144,6.735 -4.042,6.597 -3.952,6.659 c 0.189,0.131 0.263,0.245 0.372,0.427 -0.003,0.104 0.004,0.208 0.022,0.311 0.206,0.152 0.412,0.305 0.618,0.458 0.141,0.029 0.382,-0.137 0.53,-0.153 0.134,-0.016 0.252,-0.001 0.356,0.034 0.148,-0.089 0.16,-0.31 0.067,-0.453 -0.192,0.027 -0.412,-0.034 -0.569,-0.122 -0.15,-0.085 -0.171,-0.347 0,-0.426 0.164,-0.076 0.369,-0.081 0.559,-0.029 0.062,-0.094 0.099,-0.24 0.176,-0.338 C -1.73,6.253 -1.64,6.21 -1.526,6.127 -1.517,6.121 -1.51,6.114 -1.501,6.107 -1.538,6.065 -1.574,6.021 -1.606,5.971 -1.681,5.856 -1.729,5.72 -1.765,5.586 -1.933,5.746 -2.132,5.894 -2.188,5.929 -2.447,6.088 -2.794,6.184 -3.084,6.042 -3.574,5.803 -3.707,5.04 -3.305,4.683 -3.162,4.556 -2.95,4.715 -3.04,4.888 -3.221,5.234 -2.988,5.473 -2.652,5.312 -2.388,5.185 -2.357,4.973 -2.199,4.77 -2.01,4.527 -1.677,4.287 -1.365,4.25 -1.276,4.239 -0.948,4.358 -0.685,4.507 -0.355,4.26 -0.221,3.717 -0.451,3.375 -0.575,3.191 -0.813,3.111 -0.973,2.962 -1.191,2.758 -1.035,2.3 -0.712,2.334 -0.449,2.361 -0.325,1.846 -0.178,1.296 -0.34,1.332 -0.511,1.329 -0.658,1.274 -1,1.147 -1.418,0.326 -1.799,0.801 -2.026,1.085 -1.717,1.54 -1.993,1.837 -2.169,2.026 -2.463,2.06 -2.677,1.934 -2.794,1.864 -2.812,1.731 -2.761,1.616 c 0.007,-0.015 0.013,-0.03 0.02,-0.044 0.029,-0.067 0.124,-0.096 0.19,-0.078 0.226,0.063 0.075,-0.303 0.073,-0.461 -0.002,-0.199 0.005,-0.337 0.109,-0.503 0.231,-0.368 0.723,-0.608 1.125,-0.409 0.202,0.099 0.239,0.242 0.391,0.397 0.237,0.241 0.435,0.472 0.733,0.098 C 0.011,0.452 0.003,0.194 0,0 M 1.334,3.395 C 1.133,3.79 1.036,4.19 0.955,4.594 1.053,5.105 0.921,5.614 0.606,5.977 0.389,6.53 0.032,7.063 -0.261,7.57 c -0.315,0.546 -0.45,1.133 -0.867,1.624 -0.289,0.34 -0.603,0.634 -0.91,0.943 -0.327,0.327 -0.784,0.638 -1.201,0.84 -0.604,0.294 -1.086,0.81 -1.699,1.076 -0.196,0.086 -0.36,0.047 -0.567,0.068 -0.113,0.012 -0.216,0.04 -0.317,0.072 0.031,0.235 -0.115,0.509 -0.397,0.492 -0.537,-0.033 -0.91,0.143 -1.433,0.28 -0.667,0.174 -1.375,0.043 -2.059,0.09 -0.632,0.042 -1.337,0.017 -1.958,-0.126 -0.321,-0.075 -0.556,-0.216 -0.831,-0.394 -0.378,-0.246 -0.707,-0.306 -1.128,-0.443 -0.26,-0.085 -0.443,-0.223 -0.673,-0.365 -0.295,-0.183 -0.626,-0.243 -0.928,-0.413 -0.552,-0.31 -1.201,-0.62 -1.708,-1.002 -0.403,-0.305 -0.793,-0.785 -1.142,-1.154 -0.239,-0.252 -0.402,-0.528 -0.672,-0.755 -0.213,-0.18 -0.407,-0.31 -0.592,-0.527 -0.755,-0.883 -1.301,-1.93 -1.574,-3.054 -0.156,-0.64 -0.482,-1.251 -0.666,-1.892 -0.213,-0.742 -0.259,-1.503 -0.191,-2.273 0.11,-1.225 0.522,-2.496 0.951,-3.63 0.23,-0.609 0.395,-1.057 0.796,-1.588 0.445,-0.591 0.969,-1.06 1.488,-1.579 1.001,-1.002 2.151,-2.226 3.486,-2.766 0.7,-0.283 1.468,-0.52 2.191,-0.741 0.772,-0.237 1.585,-0.224 2.361,-0.441 1.035,-0.289 2.125,-0.022 3.174,0.124 0.695,0.097 1.204,0.409 1.839,0.689 0.393,0.089 0.773,0.248 1.056,0.498 0.176,0.101 0.347,0.215 0.507,0.351 0.467,0.395 0.911,0.814 1.356,1.232 0.407,0.381 0.88,0.684 1.215,1.132 0.347,0.465 0.632,0.937 0.887,1.46 0.107,0.219 0.183,0.543 0.323,0.74 0.154,0.217 0.349,0.315 0.477,0.561 0.257,0.49 0.397,1.102 0.536,1.637 0.164,0.637 0.487,1.217 0.607,1.868 0.205,1.111 0.402,2.126 -0.142,3.191"
             style="fill:#000000;fill-opacity:1;fill-rule:nonzero;stroke:none"
             id="path4031" />
        </g>
        <g
           id="g4033"
           transform="translate(80.0221,436.053)">
          <path
             d="m 0,0 c 0,-1.541 -0.569,-3.473 -2.107,-3.473 -1.537,0 -2.106,1.932 -2.106,3.473 0,1.541 0.228,3.018 2.106,3.018 C -0.228,3.018 0,1.541 0,0"
             style="fill:#000000;fill-opacity:1;fill-rule:nonzero;stroke:none"
             id="path4035" />
        </g>
        <g
           id="g4037"
           transform="translate(79.8536,428.638)">
          <path
             d="m 0,0 c 0,-1.541 -0.569,-3.473 -2.107,-3.473 -1.537,0 -2.106,1.932 -2.106,3.473 0,1.541 0.228,3.018 2.106,3.018 C -0.228,3.018 0,1.541 0,0"
             style="fill:#000000;fill-opacity:1;fill-rule:nonzero;stroke:none"
             id="path4039" />
        </g>
        <g
           id="g4041"
           transform="translate(75.6403,432.514)">
          <path
             d="m 0,0 c 0,-1.541 -0.569,-3.473 -2.107,-3.473 -1.537,0 -2.106,1.932 -2.106,3.473 0,1.541 0.228,3.018 2.106,3.018 C -0.228,3.018 0,1.541 0,0"
             style="fill:#000000;fill-opacity:1;fill-rule:nonzero;stroke:none"
             id="path4043" />
        </g>
        <g
           id="g4045"
           transform="translate(84.2354,432.514)">
          <path
             d="m 0,0 c 0,-1.541 -0.569,-3.473 -2.107,-3.473 -1.537,0 -2.106,1.932 -2.106,3.473 0,1.541 0.228,3.018 2.106,3.018 C -0.228,3.018 0,1.541 0,0"
             style="fill:#000000;fill-opacity:1;fill-rule:nonzero;stroke:none"
             id="path4047" />
        </g>
      </g>
    </g>
  </g>
</svg>
