<?xml version="1.0" encoding="UTF-8" standalone="no"?>
<!-- Created with Inkscape (http://www.inkscape.org/) -->

<svg
   width="15.794072"
   height="24"
   viewBox="0 0 4.1788482 6.35"
   version="1.1"
   id="svg55156"
   inkscape:version="1.2.1 (9c6d41e4, 2022-07-14)"
   sodipodi:docname="realm-of-death.svg"
   xmlns:inkscape="http://www.inkscape.org/namespaces/inkscape"
   xmlns:sodipodi="http://sodipodi.sourceforge.net/DTD/sodipodi-0.dtd"
   xmlns="http://www.w3.org/2000/svg"
   xmlns:svg="http://www.w3.org/2000/svg">
  <sodipodi:namedview
     id="namedview55158"
     pagecolor="#505050"
     bordercolor="#eeeeee"
     borderopacity="1"
     inkscape:showpageshadow="0"
     inkscape:pageopacity="0"
     inkscape:pagecheckerboard="0"
     inkscape:deskcolor="#505050"
     inkscape:document-units="mm"
     showgrid="false"
     inkscape:zoom="0.7046647"
     inkscape:cx="24.124949"
     inkscape:cy="243.37816"
     inkscape:window-width="1390"
     inkscape:window-height="941"
     inkscape:window-x="0"
     inkscape:window-y="25"
     inkscape:window-maximized="0"
     inkscape:current-layer="layer1" />
  <defs
     id="defs55153">
    <clipPath
       clipPathUnits="userSpaceOnUse"
       id="clipPath4111">
      <path
         d="m 207.148,421.366 h 24.699 v 21.609 h -24.699 z"
         id="path4109" />
    </clipPath>
  </defs>
  <g
     inkscape:label="Layer 1"
     inkscape:groupmode="layer"
     id="layer1"
     transform="translate(-98.764977,-84.460844)">
    <g
       id="g4105"
       transform="matrix(0.32942349,0,0,-0.32942349,28.688607,229.98631)">
      <g
         id="g4107"
         clip-path="url(#clipPath4111)">
        <g
           id="g4113"
           transform="matrix(0.171521,0,0,-0.150063,219.497,432.17)">
          <g
             id="g4115"
             transform="translate(12.9746,-62.8979)">
            <path
               d="M 0,0 C 0.25,-0.017 0.528,-0.087 0.726,0.113 0.687,0.049 0.633,0.017 0.564,0.016 c 0.138,0.482 0.455,0.879 0.737,1.269 0.688,0.954 1.298,1.94 2.017,2.874 0.894,1.16 1.442,2.613 2.181,3.888 0.562,0.969 1.245,1.755 1.879,2.658 1.195,1.704 2.214,3.578 3.606,5.111 0.334,0.368 0.323,0.728 0.597,1.114 0.346,0.483 0.876,0.73 1.162,1.274 0.653,1.241 1.446,2.411 2.248,3.576 0.444,0.643 0.607,1.3 0.874,2.029 0.314,0.858 0.78,1.645 1.217,2.432 0.371,0.667 0.735,1.339 1.085,2.019 0.313,0.609 0.765,0.956 1.19,1.467 0.264,0.315 0.474,0.664 0.764,0.955 0.253,0.253 0.733,0.41 0.897,0.742 0.186,0.376 0.101,0.751 0.479,1.05 -0.082,0.391 -0.418,1.039 -0.56,1.462 -0.202,0.596 -0.548,1.094 -0.77,1.679 -0.284,0.75 -0.532,1.682 -0.712,2.47 -0.422,1.845 -0.218,3.95 -0.314,5.836 -0.092,1.787 -0.487,3.462 -0.662,5.224 -0.168,1.7 -0.635,3.475 -0.959,5.152 -0.326,1.683 -0.774,3.301 -1.045,5.007 -0.455,2.864 -1.298,5.627 -1.537,8.517 -0.058,0.692 -0.164,1.354 -0.261,2.04 -0.156,1.089 -0.085,2.173 -0.268,3.263 -0.354,2.123 -0.967,4.182 -1.604,6.223 -0.508,1.621 -0.974,3.26 -1.505,4.872 -0.746,2.262 -1.214,4.51 -1.606,6.869 -0.263,1.58 -0.816,3.075 -1.072,4.656 -0.236,1.454 -0.446,2.962 -0.539,4.434 -0.231,3.715 -1.423,6.952 -2.805,10.331 -1.291,3.156 -2.749,6.22 -4.037,9.368 -0.475,1.164 -1.027,2.323 -1.57,3.45 -0.4,0.83 -0.519,1.841 -0.793,2.72 -0.134,0.429 -0.02,0.855 -0.569,0.869 -0.387,0.008 -0.75,-0.186 -1.168,-0.169 -1.031,0.04 -1.942,0.385 -2.954,0.518 -1.394,0.183 -7.42,0.141 -8.836,0.19 -0.615,0.021 -1.03,-0.067 -1.605,-0.266 -0.979,-0.34 -8.291,0.056 -9.326,-0.162 -1.075,-0.226 -2.345,-0.508 -3.44,-0.311 -0.147,0.028 -0.288,0.226 -0.468,0.145 -0.391,-0.175 -0.126,-0.964 -0.161,-1.283 -0.127,-1.164 -0.876,-2.569 -1.258,-3.646 -0.547,-1.544 -1.166,-3.022 -1.875,-4.488 -1.343,-2.776 -2.81,-5.464 -3.707,-8.459 -0.571,-1.909 -1.178,-3.798 -1.801,-5.691 -0.754,-2.295 -1.022,-4.914 -1.321,-7.323 -0.252,-2.032 -0.72,-4.005 -1.103,-6.011 -0.534,-2.793 -1.009,-5.612 -1.635,-8.381 -0.549,-2.43 -0.899,-4.871 -1.332,-7.324 -0.197,-1.122 -0.314,-2.257 -0.581,-3.364 -0.364,-1.514 -0.919,-2.941 -1.421,-4.404 -0.987,-2.877 -1.468,-5.902 -2.187,-8.857 -0.552,-2.269 -1.179,-4.506 -1.767,-6.748 -0.126,-0.482 -0.384,-0.94 -0.534,-1.409 -0.203,-0.629 -0.261,-1.291 -0.452,-1.923 -0.294,-0.975 -0.725,-1.865 -0.957,-2.871 -0.224,-0.978 -0.329,-1.975 -0.535,-2.955 -0.118,-0.564 -0.471,-1.622 -0.3,-2.247 0.081,-0.293 0.253,-0.279 0.467,-0.477 0.365,-0.337 0.492,-0.737 0.669,-1.209 0.612,-1.634 1.191,-3.279 1.801,-4.916 0.798,-2.143 1.238,-4.423 2.112,-6.537 0.389,-0.941 0.823,-1.822 1.115,-2.807 0.222,-0.747 0.433,-1.302 0.873,-1.939 0.802,-1.163 1.147,-2.557 1.83,-3.811 0.338,-0.621 0.698,-1.178 0.998,-1.827 0.323,-0.7 0.774,-1.182 1.144,-1.837 0.337,-0.598 0.426,-1.304 0.738,-1.917 0.372,-0.733 0.903,-1.362 1.299,-2.081 0.306,-0.555 0.655,-1.054 0.854,-1.669 0.151,-0.468 0.206,-0.861 0.451,-1.3 0.507,-0.91 1.188,-1.638 1.595,-2.62 0.433,-1.041 1,-1.868 1.574,-2.814 0.312,-0.515 0.325,-1.346 0.874,-1.526 0.751,-0.245 1.762,0.055 2.546,-0.086 2.102,-0.379 3.797,0.122 5.937,-0.228 1.044,-0.17 2.117,-0.109 3.154,-0.294 0.6,-0.108 1.173,-0.336 1.766,-0.459 0.623,-0.129 1.345,-0.256 1.813,0.219 0.398,0.406 0.313,0.755 0.325,1.343 0.024,1.273 -0.029,0.634 0.175,1.889 0.137,0.845 0.415,1.657 0.556,2.506 0.075,0.448 0.033,1.457 0.228,1.877 0.557,1.201 2.41,1.208 2.962,2.476 0.177,0.404 0.099,0.856 0.18,1.288 0.116,0.612 0.401,0.98 0.696,1.481 0.587,0.994 0.866,2.04 1.241,3.115 0.217,0.622 0.728,0.937 1.037,1.503 0.498,0.912 -0.061,1 -0.664,1.503 -0.453,0.378 -0.783,0.889 -1.224,1.286 -1.023,0.92 -2.013,1.722 -2.733,2.97 -0.983,1.702 -1.223,3.744 -2.199,5.456 -0.513,0.899 -1.186,1.711 -1.807,2.525 -0.294,0.385 -0.689,0.785 -0.813,1.289 -0.077,0.313 0.006,0.504 0,0.826 -0.022,1.136 -0.738,2.203 -1.265,3.129 -0.621,1.091 -1.24,2.009 -2.074,2.925 -0.301,0.333 -1.525,1.385 -1.421,2.03 0.038,0.233 0.412,0.374 0.557,0.494 0.791,0.658 1.212,1.536 1.631,2.492 0.953,2.167 2.004,4.266 3.162,6.318 0.325,0.576 0.59,1.218 0.974,1.753 0.716,0.999 1.729,1.168 2.613,1.89 0.627,0.512 0.98,1.146 1.199,1.944 0.341,1.243 1.014,1.648 1.883,2.508 0.905,0.894 1.107,1.493 1.091,2.715 -0.014,1.019 -0.4,1.966 -0.609,2.971 -0.401,1.916 -1.309,3.658 -1.709,5.557 -0.245,1.166 0.245,2.337 -0.172,3.509 -0.146,0.409 -0.383,0.767 -0.518,1.182 -0.13,0.4 -0.155,0.753 -0.346,1.116 -0.336,0.636 -0.634,0.679 -0.767,1.534 -0.245,1.582 0.052,3.147 -0.32,4.721 -0.287,1.214 -0.393,2.051 -0.338,3.318 0.044,1.014 -0.183,2.03 -0.131,3.012 0.454,0.119 1.381,-2.284 1.534,-2.558 0.802,-1.437 1.656,-2.819 2.198,-4.402 0.369,-1.079 0.599,-2.131 1.059,-3.177 0.779,-1.77 1.24,-3.799 1.689,-5.689 0.303,-1.272 0.443,-2.609 0.652,-3.904 0.189,-1.169 0.047,-2.438 0.472,-3.551 0.338,-0.887 0.908,-1.576 1.378,-2.366 0.308,-0.517 0.499,-1.201 0.666,-1.792 0.248,-0.874 0.158,-1.786 0.357,-2.649 0.112,-0.486 0.507,-0.711 0.332,-1.165 -0.061,-0.158 -1.024,-0.6 -1.237,-0.818 -0.6,-0.615 -0.919,-1.468 -1.358,-2.21 -0.257,-0.434 -0.506,-0.852 -0.751,-1.296 -0.466,-0.845 -1.337,-1.693 -1.601,-2.611 -0.181,-0.632 -0.002,-0.938 -0.534,-1.411 -0.573,-0.508 -1.258,-1.098 -1.464,-1.899 -0.055,-0.217 0.02,-0.396 -0.051,-0.619 -0.075,-0.234 -0.359,-0.502 -0.462,-0.691 -0.357,-0.657 -0.143,-1.371 -0.492,-2.06 -0.108,-0.214 -0.391,-0.53 -0.464,-0.792 -0.078,-0.28 -0.001,-0.485 -0.045,-0.749 -0.12,-0.728 -0.415,-0.879 -0.753,-1.467 -0.471,-0.821 -0.157,-1.605 -0.049,-2.45 0.057,-0.438 0.033,-0.465 0.351,-0.724 0.141,-0.116 0.377,-0.146 0.546,-0.27 0.222,-0.162 0.439,-0.506 0.647,-0.684 0.385,-0.327 0.443,-0.404 0.66,-0.88 0.288,-0.632 0.783,-1.03 1.072,-1.672 0.386,-0.856 0.684,-1.697 0.985,-2.593 0.2,-0.591 0.425,-1.132 0.896,-1.519 0.46,-0.379 0.885,-0.811 1.349,-1.211 0.812,-0.704 1.719,-1.144 2.42,-1.98 0.342,-0.409 0.518,-0.724 1.016,-0.947 0.37,-0.165 0.595,-0.202 0.944,-0.493 0.34,-0.285 0.964,-0.954 1.082,-1.432 0.141,-0.572 -0.318,-0.951 -0.478,-1.477 -0.25,-0.825 -0.307,-1.691 -0.794,-2.428 -1.241,-1.88 -2.467,-3.345 -2.893,-5.667 -0.176,-0.955 -0.59,-1.581 -0.99,-2.403 -0.297,-0.61 -0.726,-1.097 -0.979,-1.756 -0.402,-1.053 -0.159,-2.105 -0.342,-3.199 -0.113,-0.682 -0.401,-1.291 -0.576,-1.95 -0.137,-0.518 -0.169,-1.077 -0.349,-1.58 -0.167,-0.468 -0.372,-0.908 -0.53,-1.381 -0.165,-0.496 -0.513,-1.066 -0.524,-1.59 0.487,-0.299 1.68,0.315 2.18,0.382 0.748,0.099 1.124,-0.13 1.803,-0.277 1.389,-0.302 3.004,-0.061 4.378,0.139 0.676,0.099 1.376,0.114 2.047,0.254 0.296,0.062 0.425,0.182 0.785,0.166 C -0.424,0.243 0.437,0.341 0,0"
               style="fill:#000000;fill-opacity:1;fill-rule:nonzero;stroke:none"
               id="path4117" />
          </g>
        </g>
      </g>
    </g>
  </g>
</svg>
