<?xml version="1.0" encoding="UTF-8" standalone="no"?>
<!-- Created with Inkscape (http://www.inkscape.org/) -->

<svg
   width="7.7304397"
   height="24"
   viewBox="0 0 2.0453454 6.35"
   version="1.1"
   id="svg57363"
   inkscape:version="1.2.1 (9c6d41e4, 2022-07-14)"
   sodipodi:docname="secrets-of-the-universe.svg"
   xmlns:inkscape="http://www.inkscape.org/namespaces/inkscape"
   xmlns:sodipodi="http://sodipodi.sourceforge.net/DTD/sodipodi-0.dtd"
   xmlns="http://www.w3.org/2000/svg"
   xmlns:svg="http://www.w3.org/2000/svg">
  <sodipodi:namedview
     id="namedview57365"
     pagecolor="#505050"
     bordercolor="#eeeeee"
     borderopacity="1"
     inkscape:showpageshadow="0"
     inkscape:pageopacity="0"
     inkscape:pagecheckerboard="0"
     inkscape:deskcolor="#505050"
     inkscape:document-units="mm"
     showgrid="false"
     inkscape:zoom="0.7046647"
     inkscape:cx="96.499796"
     inkscape:cy="254.73108"
     inkscape:window-width="1390"
     inkscape:window-height="941"
     inkscape:window-x="0"
     inkscape:window-y="25"
     inkscape:window-maximized="0"
     inkscape:current-layer="layer1" />
  <defs
     id="defs57360">
    <clipPath
       clipPathUnits="userSpaceOnUse"
       id="clipPath39585">
      <path
         d="M 59.631,415.479 H 84.33 v 24.7 H 59.631 Z"
         id="path39583" />
    </clipPath>
  </defs>
  <g
     inkscape:label="Layer 1"
     inkscape:groupmode="layer"
     id="layer1"
     transform="translate(-79.785446,-81.519466)">
    <g
       id="g39579"
       transform="matrix(0.27394727,0,0,-0.27394727,61.089258,201.89673)">
      <g
         id="g39581"
         clip-path="url(#clipPath39585)">
        <g
           id="g39587"
           transform="translate(72.0031,421.558)">
          <path
             d="M 0,0 0.078,0.593 C 0.031,0.398 0.007,0.2 0,0"
             style="fill:#231f20;fill-opacity:1;fill-rule:nonzero;stroke:none"
             id="path39589" />
        </g>
        <g
           id="g39591"
           transform="translate(72.0031,421.558)">
          <path
             d="m 0,0 -0.001,-0.007 c 0,0 0,0 0,0 C 0,-0.005 0,-0.002 0,0"
             style="fill:#231f20;fill-opacity:1;fill-rule:nonzero;stroke:none"
             id="path39593" />
        </g>
        <g
           id="g39595"
           transform="translate(75.0557,438.355)">
          <path
             d="M 0,0 0.018,-0.023 C 0.012,-0.009 0.005,0.005 -0.001,0.019 -0.001,0.013 -0.001,0.006 0,0"
             style="fill:#231f20;fill-opacity:1;fill-rule:nonzero;stroke:none"
             id="path39597" />
        </g>
        <g
           id="g39599"
           transform="translate(73.6554,436.952)">
          <path
             d="M 0,0 C 0.002,0.037 0.002,0.075 0,0.112 -0.007,0.075 -0.008,0.038 0,0"
             style="fill:#231f20;fill-opacity:1;fill-rule:nonzero;stroke:none"
             id="path39601" />
        </g>
        <g
           id="g39603"
           transform="translate(71.8546,433.251)">
          <path
             d="m 0,0 c -0.03,-0.143 -0.068,-0.285 -0.102,-0.427 -0.035,-0.145 -0.033,-0.258 -0.04,-0.403 -0.007,-0.146 -0.087,-0.269 -0.11,-0.412 -0.026,-0.158 0.002,-0.312 -0.034,-0.47 -0.037,-0.164 -0.048,-0.341 -0.103,-0.5 -0.05,-0.144 -0.098,-0.288 -0.148,-0.433 -0.045,-0.127 -0.065,-0.272 -0.087,-0.405 -0.03,-0.185 -0.034,-0.379 -0.034,-0.567 0,-0.15 0.017,-0.31 -0.021,-0.457 -0.037,-0.145 -0.056,-0.287 -0.104,-0.428 -0.061,-0.178 -0.088,-0.372 -0.118,-0.557 -0.017,-0.106 -0.04,-0.2 -0.073,-0.302 -0.028,-0.088 -0.02,-0.171 -0.033,-0.261 -0.022,-0.163 -0.078,-0.319 -0.103,-0.482 -0.013,-0.093 0.001,-0.184 -0.004,-0.277 -0.006,-0.108 -0.026,-0.212 -0.029,-0.321 -0.005,-0.177 -0.034,-0.372 -0.065,-0.546 -0.03,-0.168 -0.015,-0.338 -0.05,-0.507 -0.045,-0.218 0.003,-0.438 -0.035,-0.655 -0.028,-0.158 -0.04,-0.305 -0.049,-0.466 -0.006,-0.091 -0.033,-0.173 -0.031,-0.265 10e-4,-0.042 0.005,-0.09 -0.006,-0.131 -0.004,-0.015 -0.03,-0.046 -0.026,-0.063 0.033,-0.118 0.263,0.203 0.286,0.224 0.043,-0.133 -0.09,-0.277 -0.141,-0.39 -0.035,-0.078 -0.045,-0.161 -0.084,-0.232 -0.025,-0.047 -0.068,-0.071 -0.095,-0.113 -0.047,-0.073 -0.076,-0.214 -0.077,-0.298 -0.003,-0.108 -0.019,-0.183 -0.035,-0.288 -0.046,-0.282 -0.081,-0.563 -0.136,-0.844 l 0.028,0.514 c 0,0.241 -0.029,0.474 -0.028,0.714 0.001,0.27 -0.008,0.54 0.001,0.81 0.011,0.319 0.065,0.642 0.12,0.958 0.045,0.261 0.072,0.526 0.123,0.785 0.056,0.281 0.115,0.561 0.157,0.843 0.028,0.179 0.021,0.36 0.047,0.539 0.019,0.132 0.071,0.251 0.097,0.382 0.064,0.319 0.04,0.641 0.071,0.963 0.029,0.297 0.087,0.59 0.127,0.886 0.035,0.261 0.075,0.517 0.131,0.773 0.052,0.244 0.113,0.48 0.184,0.718 0.057,0.188 0.139,0.383 0.17,0.576 0.034,0.22 0.066,0.438 0.114,0.655 0.05,0.229 0.111,0.449 0.13,0.683 0.017,0.205 0.025,0.408 0.1,0.602 0.048,0.127 0.102,0.252 0.152,0.379 C 0.123,0.483 0.013,0.061 0,0 M 3.254,5.151 C 3.19,5.256 3.156,5.262 3.051,5.295 2.961,5.324 2.889,5.382 2.834,5.461 2.796,5.515 2.769,5.643 2.689,5.648 2.665,5.575 2.701,5.484 2.687,5.409 2.665,5.297 2.575,5.177 2.52,5.075 2.358,4.777 2.182,4.485 2.003,4.196 1.935,4.087 1.825,3.952 1.801,3.813 1.802,3.775 1.803,3.738 1.801,3.701 1.792,3.738 1.794,3.776 1.801,3.813 1.791,4.023 1.735,4.238 1.796,4.438 1.909,4.805 1.893,5.198 2.005,5.565 2.052,5.711 2.113,5.851 2.188,5.985 2.227,6.039 2.241,6.097 2.229,6.159 2.195,6.175 2.151,6.162 2.117,6.155 2.056,6.143 2.008,6.135 1.943,6.134 1.879,6.132 1.833,6.116 1.774,6.097 1.703,6.074 1.63,6.063 1.556,6.049 1.239,5.988 0.887,5.882 0.609,5.714 0.504,5.65 0.458,5.542 0.363,5.472 0.317,5.438 0.283,5.43 0.229,5.413 0.018,5.345 -0.069,5.181 -0.143,4.988 -0.25,4.707 -0.432,4.468 -0.632,4.248 -0.862,3.993 -0.872,3.649 -1.064,3.379 -1.16,3.245 -1.238,3.126 -1.313,2.978 -1.385,2.834 -1.471,2.702 -1.559,2.568 -1.788,2.219 -1.965,1.832 -2.166,1.466 -2.268,1.281 -2.373,1.098 -2.434,0.894 -2.498,0.681 -2.521,0.488 -2.516,0.267 c 0.004,-0.179 0,-0.351 -0.043,-0.525 -0.056,-0.222 -0.216,-0.389 -0.308,-0.594 -0.077,-0.172 -0.161,-0.348 -0.227,-0.525 -0.088,-0.235 -0.043,-0.501 -0.077,-0.746 -0.044,-0.318 -0.147,-0.618 -0.146,-0.941 0.001,-0.228 0.029,-0.443 0.057,-0.668 0.009,-0.072 0.025,-0.112 0.061,-0.178 0.097,-0.183 0.195,-0.357 0.271,-0.551 0.072,-0.186 0.153,-0.375 0.125,-0.579 -0.014,-0.104 -0.045,-0.207 -0.063,-0.311 -0.021,0.028 -0.03,0.062 -0.025,0.1 -0.026,0.104 -0.058,0.207 -0.096,0.308 -0.059,0.199 -0.082,0.404 -0.186,0.587 -0.068,0.119 -0.129,0.245 -0.203,0.361 -0.031,0.05 -0.067,0.127 -0.136,0.127 -0.01,0.037 0,0.072 -0.01,0.109 -0.148,-0.005 -0.061,-0.346 -0.048,-0.396 0.045,-0.164 0.109,-0.316 0.112,-0.489 0.003,-0.117 0.004,-0.223 0.024,-0.34 0.044,-0.263 0.094,-0.527 0.144,-0.789 0.042,-0.225 0.142,-0.44 0.171,-0.667 0.014,-0.118 0,-0.24 0.008,-0.359 0.014,-0.179 0.034,-0.351 0.083,-0.523 0.051,-0.183 0.074,-0.363 0.11,-0.547 0.036,-0.185 0.113,-0.349 0.119,-0.54 0.004,-0.121 -0.002,-0.239 -0.023,-0.358 -0.02,-0.114 -0.067,-0.217 -0.09,-0.328 -0.025,-0.127 -0.03,-0.274 -0.034,-0.403 -0.005,-0.148 -0.012,-0.307 0.026,-0.451 0.035,-0.132 0.103,-0.229 0.175,-0.34 0.065,-0.1 0.121,-0.205 0.185,-0.306 0.075,-0.117 0.121,-0.252 0.199,-0.368 0.077,-0.112 0.196,-0.213 0.192,-0.363 -10e-4,-0.045 -0.017,-0.08 -0.032,-0.121 -0.023,-0.064 -0.016,-0.079 -0.086,-0.087 -0.02,0.006 -0.04,0.005 -0.059,-0.003 -0.018,-0.02 -0.029,-0.044 -0.033,-0.071 -0.039,-0.029 -0.117,-0.012 -0.165,-0.012 -0.106,-0.001 -0.186,0.026 -0.287,0.059 -0.112,0.037 -0.197,0.028 -0.311,0.005 -0.094,-0.018 -0.144,-0.038 -0.119,-0.149 0.011,-0.046 0.028,-0.065 0.025,-0.112 -0.016,-0.028 -0.026,-0.058 -0.031,-0.09 -0.01,-0.057 -0.019,-0.115 -0.027,-0.172 -0.025,-0.155 -0.051,-0.328 -0.107,-0.475 -0.03,-0.08 -0.099,-0.136 -0.118,-0.217 -0.027,-0.117 -0.06,-0.304 -0.024,-0.422 0.095,0.014 0.221,0.203 0.299,0.257 0.071,0.05 0.149,0.077 0.179,0.162 0.047,0.133 0.062,0.301 0.093,0.439 0.03,0.133 0.002,0.272 0.031,0.4 0.043,0.018 0.108,-0.025 0.153,-0.029 0.051,-0.004 0.101,0.006 0.151,0.001 0.052,-0.139 0.111,-0.274 0.165,-0.413 0.029,-0.075 0.085,-0.145 0.1,-0.221 0.019,-0.092 -0.017,-0.123 0.085,-0.137 0.074,-0.01 0.062,-0.045 0.115,-0.103 0.036,-0.04 0.051,-0.041 0.057,-0.097 0.004,-0.039 0.008,-0.104 0,-0.143 -0.022,-0.128 -0.074,-0.256 -0.101,-0.385 -0.027,-0.131 -0.061,-0.254 -0.075,-0.388 -0.015,-0.147 -0.047,-0.297 -0.082,-0.441 -0.031,-0.128 -0.067,-0.253 -0.097,-0.382 -0.032,-0.141 -0.049,-0.286 -0.081,-0.427 -0.079,-0.344 -0.134,-0.694 -0.223,-1.037 -0.075,-0.292 -0.152,-0.605 -0.288,-0.876 0.085,0.083 0.144,0.179 0.209,0.276 0.056,0.086 0.122,0.134 0.2,0.198 0.073,0.059 0.124,0.14 0.197,0.201 0.069,0.058 0.173,0.056 0.232,0.113 0.059,0.057 0.09,0.16 0.129,0.231 0.04,0.071 0.029,0.129 0.042,0.205 0.018,0.107 0.066,0.236 0.115,0.333 0.056,0.109 0.109,0.193 0.13,0.326 0.004,0.071 0.015,0.141 0.033,0.21 0.027,0.058 0.052,0.116 0.075,0.175 0.039,0.126 0.059,0.267 0.082,0.396 0.03,0.174 0.052,0.331 0.046,0.508 -0.004,0.1 -0.052,0.199 -0.024,0.3 0.013,0.044 0.044,0.082 0.06,0.126 0.02,0.056 0.014,0.11 0.027,0.167 0.013,0.057 0.044,0.095 0.086,0.135 0.038,0.037 0.05,0.078 0.086,0.114 0.051,0.051 0.098,0.04 0.108,0.121 0.003,0.031 -0.011,0.072 -0.002,0.102 0.014,0.05 0.007,0.031 0.058,0.042 0.057,0.011 0.063,-0.004 0.087,0.055 0.018,0.044 0.02,0.097 0.033,0.143 0.084,-0.003 0.121,-0.106 0.193,-0.136 0.043,-0.017 0.087,0.004 0.13,-0.006 0.076,-0.017 0.176,-0.12 0.231,-0.161 0.135,-0.102 0.261,-0.175 0.415,-0.245 0.235,-0.106 0.466,-0.218 0.704,-0.317 0.251,-0.105 0.516,-0.202 0.786,-0.24 -0.002,10e-4 0.227,-0.045 0.248,0.006 0.019,0.049 -0.073,0.16 -0.102,0.201 -0.083,0.117 -0.191,0.201 -0.297,0.295 -0.148,0.131 -0.294,0.263 -0.443,0.393 -0.115,0.099 -0.226,0.215 -0.355,0.297 -0.093,0.059 -0.125,0.088 -0.232,0.087 -0.156,-0.002 -0.327,-0.061 -0.481,-0.023 0.016,0.043 0.078,0.063 0.118,0.086 0.074,0.042 0.146,0.085 0.222,0.122 0.099,0.049 0.208,0.062 0.303,0.114 0.05,0.028 0.104,0.048 0.153,0.076 0.011,0.078 -0.084,0.165 -0.109,0.237 -0.03,0.084 -0.049,0.073 -0.139,0.073 -0.054,0 -0.096,-0.015 -0.144,-0.024 -0.001,-0.017 -0.003,-0.034 -0.004,-0.051 0,-0.036 -0.001,-0.072 -0.002,-0.108 -0.005,0.003 -0.01,0.006 -0.014,0.009 l 0.02,0.15 c -0.01,-0.002 -0.018,-0.005 -0.028,-0.006 -0.048,-0.005 -0.1,0.004 -0.149,0.002 -0.077,-0.002 -0.08,-0.038 -0.128,-0.087 -0.051,-0.05 -0.121,-0.048 -0.186,-0.072 -0.164,-0.062 -0.333,-0.133 -0.492,-0.208 -0.061,-0.028 -0.145,-0.084 -0.214,-0.058 0.166,0.249 0.388,0.454 0.477,0.745 0.106,0.351 0.29,0.666 0.415,1.009 0.061,0.168 0.191,0.265 0.271,0.418 0.07,0.136 0.054,0.282 0.083,0.43 0.052,0.261 0.143,0.508 0.217,0.763 0.068,0.237 0.195,0.462 0.293,0.687 0.062,0.142 0.168,0.255 0.233,0.395 0.044,0.094 0.054,0.203 0.073,0.304 0.026,0.137 0.064,0.271 0.095,0.407 0.046,0.204 0.101,0.386 0.199,0.573 0.061,0.113 0.136,0.22 0.17,0.346 0.026,0.095 0.01,0.199 0.009,0.296 0,0.085 -10e-4,0.149 -0.022,0.226 -0.01,0.035 -0.01,0.066 -0.006,0.096 C 1.394,-5.504 1.324,-5.566 1.255,-5.629 1.142,-5.732 1.039,-5.846 0.916,-5.937 0.794,-6.028 0.696,-6.122 0.6,-6.239 0.447,-6.424 0.26,-6.592 0.081,-6.75 c 0.043,0.076 0.091,0.147 0.116,0.231 0.033,0.112 0.084,0.157 0.161,0.245 0.034,0.039 0.051,0.089 0.084,0.128 0.026,0.031 0.063,0.048 0.092,0.076 0.092,0.088 0.156,0.206 0.236,0.304 0.251,0.305 0.615,0.522 0.815,0.863 0.028,0.047 0.058,0.092 0.089,0.136 0.032,0.066 0.067,0.131 0.103,0.182 0.031,0.042 0.073,0.071 0.103,0.116 0.035,0.053 0.06,0.124 0.086,0.183 0.07,0.156 0.109,0.27 0.228,0.401 0.115,0.128 0.222,0.255 0.288,0.418 0.076,0.187 0.088,0.397 0.111,0.595 0.017,0.147 0.021,0.329 0.1,0.459 0.059,0.097 0.106,0.078 0.109,0.195 0.005,0.161 -0.038,0.332 -0.065,0.491 -0.027,0.154 -0.059,0.306 -0.078,0.461 -0.018,0.146 -0.06,0.282 -0.059,0.429 0,0.141 0.006,0.291 0.046,0.427 0.041,0.139 0.1,0.214 0.098,0.363 C 2.742,0.107 2.739,0.261 2.742,0.415 2.747,0.61 2.766,0.829 2.833,1.013 2.895,1.182 2.98,1.339 3.052,1.503 3.134,1.691 3.224,1.869 3.33,2.045 3.409,2.176 3.455,2.311 3.521,2.446 3.583,2.571 3.661,2.674 3.703,2.81 3.748,2.956 3.75,3.107 3.746,3.258 3.727,3.905 3.498,4.504 3.22,5.081 L 3.201,5.104 C 3.201,5.11 3.2,5.116 3.2,5.123 3.206,5.109 3.213,5.095 3.22,5.081 L 3.859,4.275 C 3.648,4.562 3.437,4.846 3.254,5.151"
             style="fill:#231f20;fill-opacity:1;fill-rule:nonzero;stroke:none"
             id="path39605" />
        </g>
        <g
           id="g39607"
           transform="translate(71.9963,421.392)">
          <path
             d="m 0,0 c 0.001,0.036 0.002,0.072 0.003,0.108 0,0.017 0.002,0.034 0.003,0.051 0,0 0,0 0,0 l -0.02,-0.15 C -0.009,0.006 -0.005,0.003 0,0"
             style="fill:#231f20;fill-opacity:1;fill-rule:nonzero;stroke:none"
             id="path39609" />
        </g>
      </g>
    </g>
  </g>
</svg>
