<?xml version="1.0" encoding="UTF-8" standalone="no"?>
<!-- Created with Inkscape (http://www.inkscape.org/) -->

<svg
   width="20.811241"
   height="24"
   viewBox="0 0 5.5063076 6.35"
   version="1.1"
   id="svg56435"
   inkscape:version="1.2.1 (9c6d41e4, 2022-07-14)"
   sodipodi:docname="silver-twilight-lodge.svg"
   xmlns:inkscape="http://www.inkscape.org/namespaces/inkscape"
   xmlns:sodipodi="http://sodipodi.sourceforge.net/DTD/sodipodi-0.dtd"
   xmlns="http://www.w3.org/2000/svg"
   xmlns:svg="http://www.w3.org/2000/svg">
  <sodipodi:namedview
     id="namedview56437"
     pagecolor="#505050"
     bordercolor="#eeeeee"
     borderopacity="1"
     inkscape:showpageshadow="0"
     inkscape:pageopacity="0"
     inkscape:pagecheckerboard="0"
     inkscape:deskcolor="#505050"
     inkscape:document-units="mm"
     showgrid="false"
     inkscape:zoom="0.7046647"
     inkscape:cx="41.154325"
     inkscape:cy="185.19446"
     inkscape:window-width="1390"
     inkscape:window-height="941"
     inkscape:window-x="0"
     inkscape:window-y="25"
     inkscape:window-maximized="0"
     inkscape:current-layer="layer1" />
  <defs
     id="defs56432">
    <clipPath
       clipPathUnits="userSpaceOnUse"
       id="clipPath9837">
      <path
         d="m 361.331,145.621 h 24.7 v 24.699 h -24.7 z"
         id="path9835" />
    </clipPath>
  </defs>
  <g
     inkscape:label="Layer 1"
     inkscape:groupmode="layer"
     id="layer1"
     transform="translate(-94.063917,-99.95913)">
    <g
       id="g9831"
       transform="matrix(0.3050538,0,0,-0.3050538,-17.155567,151.27223)">
      <g
         id="g9833"
         clip-path="url(#clipPath9837)">
        <g
           id="g9839"
           transform="translate(382.035,166.023)">
          <path
             d="m 0,0 c -0.093,-0.128 -0.169,-0.278 -0.281,-0.392 -0.118,-0.118 -0.276,-0.189 -0.408,-0.29 -0.109,-0.086 -0.216,-0.165 -0.331,-0.242 -0.255,-0.17 -0.446,-0.342 -0.645,-0.571 -0.122,-0.14 -0.251,-0.266 -0.401,-0.375 -0.145,-0.105 -0.248,-0.223 -0.364,-0.358 -0.221,-0.257 -0.513,-0.447 -0.75,-0.69 -0.083,-0.085 -0.163,-0.157 -0.259,-0.226 -0.17,-0.122 -0.298,-0.27 -0.434,-0.427 -0.116,-0.134 -0.292,-0.343 -0.488,-0.34 0.11,0.004 0.213,0.004 0.32,-0.022 0.247,-0.063 0.476,-0.152 0.727,-0.2 0.16,-0.031 0.298,-0.133 0.458,-0.168 0.194,-0.043 0.438,-0.007 0.635,-0.007 h 0.129 C -2.134,-4.395 -2.181,-4.479 -2.239,-4.56 -2.335,-4.694 -2.428,-4.826 -2.517,-4.966 -2.73,-5.303 -2.998,-5.599 -3.218,-5.931 -3.452,-6.284 -3.675,-6.644 -3.904,-7 c -0.241,-0.374 -0.497,-0.736 -0.772,-1.085 -0.125,-0.159 -0.297,-0.287 -0.449,-0.42 -0.193,-0.169 -0.39,-0.327 -0.571,-0.509 -0.353,-0.355 -0.658,-0.748 -1.047,-1.069 -0.229,-0.189 -0.415,-0.419 -0.601,-0.65 -0.046,-0.057 -0.107,-0.172 -0.175,-0.202 -0.019,0.053 0.007,0.102 0.02,0.154 0.029,0.112 0.039,0.212 0.041,0.327 0.003,0.16 0.033,0.318 0.036,0.479 0.006,0.255 0.008,0.516 -0.009,0.771 -0.014,0.203 -0.021,0.403 -0.024,0.606 -0.004,0.29 -0.048,0.584 -0.075,0.872 -0.068,0.696 -0.155,1.385 -0.16,2.086 -0.002,0.3 -0.011,0.592 -0.025,0.891 -0.025,0.557 -0.006,1.116 -0.008,1.673 -0.001,0.259 10e-4,0.517 0.024,0.774 0.023,-0.017 0.047,-0.034 0.074,-0.048 0.212,-0.112 0.409,-0.24 0.609,-0.373 0.258,-0.171 0.441,-0.447 0.718,-0.595 0.117,-0.063 0.102,0.009 0.102,0.105 0,0.114 -0.027,0.21 -0.07,0.317 -0.066,0.162 -0.139,0.311 -0.193,0.478 -0.041,0.123 -0.105,0.237 -0.158,0.354 -0.173,0.376 -0.361,0.743 -0.544,1.114 -0.197,0.401 -0.473,0.742 -0.628,1.166 C -7.971,0.711 -8.216,1.18 -8.413,1.669 -8.484,1.847 -8.559,2.017 -8.638,2.187 -8.65,2.125 -8.664,2.062 -8.684,1.999 -8.753,1.788 -8.812,1.574 -8.907,1.372 -8.972,1.234 -9.055,1.105 -9.119,0.966 -9.195,0.801 -9.266,0.633 -9.346,0.471 -9.481,0.197 -9.602,-0.078 -9.72,-0.359 -9.774,-0.487 -9.838,-0.61 -9.888,-0.74 -9.95,-0.898 -9.983,-1.063 -10.03,-1.226 c -0.049,-0.171 -0.13,-0.332 -0.189,-0.5 -0.056,-0.161 -0.11,-0.322 -0.165,-0.483 -0.058,-0.166 -0.124,-0.329 -0.161,-0.502 -0.044,-0.209 -0.054,-0.424 -0.095,-0.634 -0.032,-0.169 -0.092,-0.348 -0.153,-0.509 -0.01,-0.026 -0.019,-0.061 -0.035,-0.087 0.053,0.036 0.143,0.07 0.177,0.089 0.109,0.061 0.225,0.097 0.331,0.163 0.207,0.127 0.376,0.312 0.601,0.41 0.08,0.036 0.125,0.069 0.189,0.132 0.078,0.078 0.169,0.113 0.255,0.178 0.16,0.12 0.276,0.288 0.411,0.435 -0.024,-0.162 -0.032,-0.328 -0.052,-0.489 -0.041,-0.325 -0.069,-0.631 -0.067,-0.959 0.001,-0.256 0.004,-0.512 0.002,-0.768 -0.003,-0.308 -0.048,-0.613 -0.061,-0.92 -0.012,-0.274 -0.002,-0.545 -0.038,-0.817 -0.035,-0.271 -0.091,-0.534 -0.112,-0.807 -0.025,-0.322 -0.021,-0.644 -0.04,-0.966 -0.047,-0.806 -0.073,-1.604 -0.216,-2.402 -0.048,-0.27 -0.129,-0.542 -0.136,-0.817 -0.002,-0.09 0.019,-0.198 -0.003,-0.284 -0.028,0.066 -0.124,0.076 -0.181,0.119 -0.111,0.082 -0.179,0.204 -0.29,0.283 -0.083,0.059 -0.093,0.064 -0.15,0.178 -0.045,0.089 -0.085,0.18 -0.13,0.269 -0.094,0.182 -0.22,0.337 -0.33,0.509 -0.094,0.149 -0.175,0.306 -0.27,0.455 -0.197,0.31 -0.388,0.625 -0.598,0.926 -0.194,0.279 -0.302,0.596 -0.447,0.902 -0.1,0.212 -0.211,0.419 -0.317,0.629 -0.126,0.251 -0.228,0.521 -0.374,0.76 -0.224,0.367 -0.495,0.705 -0.724,1.07 -0.151,0.241 -0.346,0.457 -0.487,0.703 -0.207,0.361 -0.359,0.744 -0.507,1.129 0.193,0.005 0.387,0.02 0.582,0.02 0.155,10e-4 0.31,10e-4 0.465,0 0.057,0 0.126,-0.011 0.181,0.005 0.009,0.054 -0.131,0.163 -0.166,0.193 -0.054,0.046 -0.114,0.081 -0.164,0.13 -0.069,0.068 -0.123,0.151 -0.189,0.223 -0.339,0.368 -0.717,0.711 -1.094,1.04 -0.246,0.214 -0.507,0.386 -0.774,0.573 -0.32,0.222 -0.616,0.478 -0.935,0.702 -0.216,0.152 -0.446,0.293 -0.63,0.482 -0.059,0.06 -0.131,0.113 -0.194,0.169 -0.066,0.239 -0.099,0.238 -0.13,0.227 -0.015,-0.05 0.006,-0.101 0.014,-0.151 0.021,-0.13 0.017,-0.258 0.017,-0.389 -0.001,-0.237 0.002,-0.468 0.025,-0.704 0.03,-0.317 0.018,-0.64 0.072,-0.955 0.052,-0.312 0.12,-0.618 0.168,-0.931 0.024,-0.157 0.045,-0.313 0.067,-0.47 0.024,-0.169 0.014,-0.344 0.044,-0.512 0.037,-0.207 0.112,-0.415 0.155,-0.623 0.041,-0.204 0.105,-0.396 0.17,-0.594 0.153,-0.463 0.332,-0.919 0.47,-1.385 0.063,-0.214 0.099,-0.435 0.161,-0.646 0.082,0.002 0.11,0.23 0.125,0.283 0.06,0.208 0.111,0.404 0.143,0.618 0.017,0.112 0.061,0.216 0.085,0.327 0.033,0.152 0.029,0.303 0.045,0.456 0.024,0.216 0.068,0.431 0.094,0.647 0.017,0.141 0.04,0.276 0.066,0.411 0.063,-0.097 0.128,-0.192 0.195,-0.29 0.244,-0.359 0.519,-0.696 0.76,-1.057 0.08,-0.12 0.114,-0.27 0.174,-0.401 0.051,-0.111 0.126,-0.2 0.188,-0.305 0.075,-0.126 0.134,-0.265 0.194,-0.398 0.183,-0.411 0.413,-0.759 0.69,-1.115 0.178,-0.228 0.328,-0.469 0.471,-0.72 0.182,-0.318 0.397,-0.611 0.575,-0.93 0.159,-0.285 0.309,-0.572 0.438,-0.871 0.237,-0.55 0.547,-1.058 0.853,-1.572 0.195,-0.325 0.349,-0.681 0.508,-1.024 0.147,-0.317 0.292,-0.64 0.426,-0.963 0.068,-0.164 0.161,-0.281 0.263,-0.423 0.045,-0.063 0.071,-0.089 0.074,-0.171 0.003,-0.066 0.009,-0.16 -0.005,-0.225 -0.008,-0.034 -0.094,-0.168 -0.092,-0.166 -0.05,-0.092 -0.101,-0.185 -0.163,-0.27 -0.069,-0.094 -0.165,-0.158 -0.232,-0.254 -0.054,-0.078 -0.099,-0.165 -0.15,-0.245 -0.351,-0.558 -0.829,-1.029 -1.266,-1.518 -0.208,-0.233 -0.434,-0.446 -0.648,-0.672 -0.085,-0.09 -0.227,-0.193 -0.304,-0.305 0.04,0.04 0.104,0.073 0.139,0.098 0.055,0.04 0.101,0.082 0.161,0.107 0.203,0.084 0.429,0.127 0.645,0.165 0.314,0.056 0.652,0.107 0.956,0.208 0.127,0.043 0.256,0.13 0.376,0.19 0.166,0.083 0.339,0.115 0.522,0.143 0.27,0.04 0.526,0.097 0.801,0.094 0.184,-0.002 0.366,-0.025 0.549,-0.046 0.276,-0.031 0.554,0.007 0.829,-0.023 0.351,-0.037 0.678,-0.233 0.998,-0.368 0.228,-0.097 0.458,-0.181 0.7,-0.234 0.183,-0.041 0.324,-0.11 0.494,-0.183 0.044,-0.019 0.109,-0.055 0.157,-0.042 -0.041,0.088 -0.19,0.155 -0.254,0.227 -0.134,0.149 -0.222,0.347 -0.329,0.514 -0.143,0.224 -0.283,0.452 -0.434,0.671 -0.127,0.185 -0.282,0.34 -0.429,0.507 -0.173,0.195 -0.284,0.428 -0.423,0.646 -0.118,0.184 -0.277,0.34 -0.416,0.509 -0.121,0.146 -0.158,0.272 -0.23,0.447 -0.031,0.075 -0.066,0.172 -0.131,0.229 -0.022,0.018 -0.081,0.039 -0.092,0.069 -0.015,0.04 0.013,0.037 0.02,0.066 0.023,0.107 0.079,0.185 0.137,0.287 0.137,0.243 0.288,0.479 0.438,0.714 0.079,0.125 0.178,0.234 0.264,0.354 0.103,0.146 0.194,0.301 0.293,0.451 0.253,0.386 0.529,0.759 0.8,1.133 0.191,0.263 0.374,0.531 0.552,0.803 0.203,0.309 0.446,0.587 0.682,0.871 0.319,0.384 0.594,0.797 0.889,1.2 0.203,0.276 0.445,0.518 0.647,0.794 0.169,0.232 0.315,0.478 0.479,0.712 0.338,0.48 0.724,0.927 1.066,1.404 0.193,0.269 0.406,0.524 0.625,0.773 0.029,-0.017 0.058,-0.034 0.082,-0.058 0.053,-0.061 0.106,-0.122 0.16,-0.181 0.087,-0.087 0.182,-0.164 0.27,-0.251 0.113,-0.111 0.209,-0.221 0.297,-0.355 0.102,-0.155 0.222,-0.277 0.336,-0.421 0.031,-0.038 0.054,-0.105 0.12,-0.078 0.053,0.02 0.032,0.081 0.031,0.133 -0.002,0.19 -0.009,0.383 -0.002,0.573 0.005,0.098 0.032,0.189 0.037,0.286 0.021,0.382 -0.001,0.773 -0.003,1.156 0,0.186 0.012,0.354 0.044,0.536 0.039,0.226 0.023,0.458 0.055,0.686 0.026,0.185 0.061,0.364 0.068,0.551 0.011,0.279 0.064,0.547 0.092,0.823 0.065,0.626 0.108,1.252 0.107,1.881 0,0.153 -0.014,0.318 -0.004,0.478 C 0.518,0.582 0.449,0.481 0.366,0.393 0.24,0.263 0.107,0.148 0,0"
             style="fill:#000000;fill-opacity:1;fill-rule:nonzero;stroke:none"
             id="path9841" />
        </g>
        <g
           id="g9843"
           transform="translate(371.207,162.083)">
          <path
             d="M 0,0 C -0.015,-0.01 -0.029,-0.021 -0.035,-0.031 -0.019,-0.027 -0.009,-0.014 0,0"
             style="fill:#000000;fill-opacity:1;fill-rule:nonzero;stroke:none"
             id="path9845" />
        </g>
        <g
           id="g9847"
           transform="translate(369.431,147.394)">
          <path
             d="M 0,0 C 0.008,0.017 0.022,0.033 0.034,0.05 0.018,0.034 0.005,0.018 0,0"
             style="fill:#000000;fill-opacity:1;fill-rule:nonzero;stroke:none"
             id="path9849" />
        </g>
      </g>
    </g>
  </g>
</svg>
