<?xml version="1.0" encoding="UTF-8" standalone="no"?>
<!-- Created with Inkscape (http://www.inkscape.org/) -->

<svg
   width="6.8826132"
   height="24"
   viewBox="0 0 1.8210248 6.35"
   version="1.1"
   id="svg56653"
   inkscape:version="1.2.1 (9c6d41e4, 2022-07-14)"
   sodipodi:docname="the-wages-of-sin.svg"
   xmlns:inkscape="http://www.inkscape.org/namespaces/inkscape"
   xmlns:sodipodi="http://sodipodi.sourceforge.net/DTD/sodipodi-0.dtd"
   xmlns="http://www.w3.org/2000/svg"
   xmlns:svg="http://www.w3.org/2000/svg">
  <sodipodi:namedview
     id="namedview56655"
     pagecolor="#505050"
     bordercolor="#eeeeee"
     borderopacity="1"
     inkscape:showpageshadow="0"
     inkscape:pageopacity="0"
     inkscape:pagecheckerboard="0"
     inkscape:deskcolor="#505050"
     inkscape:document-units="mm"
     showgrid="false"
     inkscape:zoom="0.7046647"
     inkscape:cx="51.088127"
     inkscape:cy="263.24577"
     inkscape:window-width="1390"
     inkscape:window-height="941"
     inkscape:window-x="0"
     inkscape:window-y="25"
     inkscape:window-maximized="0"
     inkscape:current-layer="layer1" />
  <defs
     id="defs56650">
    <clipPath
       clipPathUnits="userSpaceOnUse"
       id="clipPath23181">
      <path
         d="m 329.753,420.471 h 24.699 v 24.7 h -24.699 z"
         id="path23179" />
    </clipPath>
  </defs>
  <g
     inkscape:label="Layer 1"
     inkscape:groupmode="layer"
     id="layer1"
     transform="translate(-91.588789,-79.333593)">
    <g
       id="g23175"
       transform="matrix(0.27850997,0,0,-0.27850997,-2.7794626,203.05358)">
      <g
         id="g23177"
         clip-path="url(#clipPath23181)">
        <g
           id="g23183"
           transform="translate(342.845,440.277)">
          <path
             d="m 0,0 c 0,0.011 0,0.022 0,0.033 0.005,-0.021 -0.001,-0.039 -0.006,-0.06 -0.02,-0.088 -0.087,-0.211 -0.131,-0.285 -0.154,-0.264 -0.401,-0.464 -0.582,-0.708 -0.121,-0.164 -0.249,-0.288 -0.426,-0.391 -0.118,-0.07 -0.242,-0.146 -0.367,-0.204 -0.103,-0.048 -0.173,-0.123 -0.259,-0.196 -0.075,-0.063 -0.144,-0.115 -0.198,-0.197 -0.056,-0.083 -0.088,-0.147 -0.083,-0.25 0.005,-0.118 0.028,-0.285 0.129,-0.358 0.048,-0.033 0.102,-0.06 0.15,-0.094 0.069,-0.048 0.133,-0.077 0.216,-0.077 0.21,-10e-4 0.384,0.109 0.538,0.242 0.066,0.057 0.136,0.105 0.204,0.159 0.086,0.068 0.146,0.162 0.228,0.233 0.058,0.05 0.125,0.084 0.183,0.132 0.078,0.065 0.133,0.147 0.199,0.223 0.131,0.152 0.265,0.266 0.32,0.469 0.03,0.112 0.053,0.217 0.098,0.325 0.029,0.069 0.065,0.158 0.067,0.234 0.001,0.078 -0.023,0.156 -0.024,0.235 -0.001,0.055 0.012,0.115 -0.016,0.166 -0.021,0.041 -0.063,0.072 -0.093,0.105 -0.03,0.033 -0.1,0.165 -0.146,0.153 C -0.003,-0.133 -0.003,-0.155 0,0"
             style="fill:#231f20;fill-opacity:1;fill-rule:nonzero;stroke:none"
             id="path23185" />
        </g>
        <g
           id="g23187"
           transform="translate(342.963,438.619)">
          <path
             d="m 0,0 c 0.009,-0.052 -0.054,-0.118 -0.079,-0.159 -0.141,-0.229 -0.322,-0.423 -0.518,-0.608 -0.161,-0.152 -0.342,-0.282 -0.518,-0.417 -0.143,-0.111 -0.286,-0.212 -0.447,-0.296 -0.126,-0.066 -0.2,-0.189 -0.307,-0.28 -0.084,-0.072 -0.22,-0.181 -0.257,-0.293 -0.014,-0.042 -0.005,-0.089 -0.008,-0.132 -0.003,-0.043 -0.033,-0.106 -0.014,-0.148 0.05,-0.112 0.331,-0.078 0.417,-0.074 0.176,0.01 0.341,0.045 0.512,0.086 0.078,0.018 0.157,0.03 0.233,0.057 0.108,0.039 0.175,0.117 0.249,0.199 0.129,0.14 0.281,0.262 0.387,0.42 0.059,0.086 0.105,0.178 0.168,0.261 0.039,0.052 0.084,0.1 0.122,0.154 0.09,0.127 0.188,0.24 0.239,0.389 0.047,0.139 0.064,0.287 0.06,0.433 C 0.237,-0.346 0.226,-0.149 0.154,-0.119 0.094,-0.093 -0.042,-0.132 0,0"
             style="fill:#231f20;fill-opacity:1;fill-rule:nonzero;stroke:none"
             id="path23189" />
        </g>
        <g
           id="g23191"
           transform="translate(343.249,435.129)">
          <path
             d="M 0,0 C 0.123,0.005 0.093,-0.185 0.089,-0.287 0.079,-0.522 -0.004,-0.743 -0.132,-0.94 -0.17,-0.999 -0.211,-1.056 -0.246,-1.117 -0.283,-1.182 -0.312,-1.255 -0.358,-1.315 -0.445,-1.43 -0.585,-1.49 -0.697,-1.578 -0.85,-1.699 -0.986,-1.84 -1.167,-1.921 -1.341,-2 -1.535,-2.057 -1.725,-2.074 c -0.122,-0.012 -0.248,-0.001 -0.371,-0.003 -0.028,-10e-4 -0.093,-0.012 -0.112,0.013 -0.036,0.047 0.038,0.193 0.054,0.242 0.036,0.11 0.063,0.223 0.1,0.334 0.037,0.108 0.114,0.208 0.196,0.286 0.058,0.054 0.128,0.094 0.194,0.139 0.099,0.068 0.195,0.139 0.295,0.205 0.261,0.17 0.531,0.327 0.789,0.5 0.169,0.113 0.333,0.276 0.526,0.346 C -0.033,-0.004 -0.016,-0.001 0,0"
             style="fill:#231f20;fill-opacity:1;fill-rule:nonzero;stroke:none"
             id="path23193" />
        </g>
        <g
           id="g23195"
           transform="translate(343.101,436.961)">
          <path
             d="M 0,0 C 0.009,-0.039 -0.018,-0.039 -0.038,-0.057 -0.08,-0.094 -0.114,-0.142 -0.151,-0.185 -0.22,-0.266 -0.289,-0.346 -0.363,-0.423 -0.44,-0.502 -0.525,-0.603 -0.612,-0.671 -0.681,-0.726 -0.747,-0.736 -0.83,-0.754 c -0.078,-0.018 -0.134,-0.051 -0.196,-0.099 -0.129,-0.098 -0.272,-0.142 -0.413,-0.218 -0.122,-0.067 -0.249,-0.128 -0.358,-0.216 -0.06,-0.049 -0.134,-0.092 -0.186,-0.148 -0.04,-0.043 -0.05,-0.094 -0.06,-0.149 -0.039,-0.202 -0.079,-0.41 -0.071,-0.616 0.006,-0.157 0.07,-0.24 0.225,-0.277 0.047,-0.012 0.084,-0.016 0.131,-0.004 0.105,0.026 0.21,0.066 0.315,0.098 0.097,0.028 0.186,0.07 0.27,0.126 0.084,0.056 0.154,0.127 0.24,0.181 0.16,0.099 0.331,0.187 0.472,0.314 0.121,0.109 0.133,0.259 0.227,0.382 0.093,0.122 0.236,0.202 0.316,0.334 0.058,0.095 0.072,0.242 0.077,0.352 C 0.165,-0.57 0.132,-0.403 0.08,-0.291 0.021,-0.166 -0.04,-0.134 0,0"
             style="fill:#231f20;fill-opacity:1;fill-rule:nonzero;stroke:none"
             id="path23197" />
        </g>
        <g
           id="g23199"
           transform="translate(343.101,433.744)">
          <path
             d="m 0,0 c 0.013,-0.046 -0.07,-0.108 -0.093,-0.137 -0.03,-0.036 -0.053,-0.085 -0.088,-0.117 -0.041,-0.037 -0.1,-0.05 -0.145,-0.083 -0.048,-0.036 -0.099,-0.065 -0.147,-0.1 -0.052,-0.037 -0.09,-0.092 -0.14,-0.132 -0.032,-0.026 -0.065,-0.062 -0.099,-0.084 -0.038,-0.026 -0.076,-0.043 -0.114,-0.073 -0.096,-0.079 -0.201,-0.11 -0.181,-0.262 0.008,-0.064 0.06,-0.124 0.118,-0.159 0.102,-0.062 0.216,-0.079 0.315,-0.149 0.099,-0.071 0.186,-0.144 0.301,-0.185 0.106,-0.038 0.2,-0.127 0.316,-0.139 0.135,-0.014 0.203,0.026 0.23,0.169 0.026,0.141 0.053,0.282 0.083,0.423 0.013,0.062 0.032,0.128 0.038,0.191 0.005,0.062 -0.01,0.126 -0.023,0.186 -0.012,0.053 -0.032,0.088 -0.055,0.136 -0.025,0.052 -0.036,0.11 -0.059,0.162 -0.034,0.073 -0.086,0.227 -0.173,0.252 -0.052,0.016 -0.152,0.012 -0.196,-0.02 C -0.099,-0.108 -0.09,-0.093 0,0"
             style="fill:#231f20;fill-opacity:1;fill-rule:nonzero;stroke:none"
             id="path23201" />
        </g>
        <g
           id="g23203"
           transform="translate(342.075,439.724)">
          <path
             d="m 0,0 c -0.006,-0.068 -0.037,-0.117 -0.058,-0.182 -0.033,-0.097 -0.099,-0.163 -0.164,-0.242 -0.068,-0.084 -0.15,-0.174 -0.271,-0.172 -0.142,0.002 -0.206,0.168 -0.238,0.28 -0.042,0.142 -0.046,0.3 -0.04,0.447 0.004,0.096 0.027,0.191 0.036,0.287 0.007,0.064 0.01,0.124 0.024,0.187 0.038,0.179 0.061,0.359 0.084,0.54 0.01,0.076 0.015,0.149 0.045,0.22 0.028,0.064 0.071,0.12 0.114,0.175 0.049,0.063 0.097,0.199 0.17,0.234 0.038,0.018 0.185,0.011 0.22,-0.01 C -0.046,1.744 -0.033,1.709 -0.02,1.676 0.012,1.597 0.045,1.509 0.056,1.425 0.074,1.282 0.079,1.141 0.079,0.997 0.079,0.86 0.088,0.722 0.064,0.588 0.049,0.508 0.061,0.43 0.044,0.351 0.029,0.282 0.042,0.21 0.03,0.139 0.011,0.032 -0.01,-0.055 -0.052,-0.157 -0.048,-0.157 -0.044,-0.158 0,0"
             style="fill:#231f20;fill-opacity:1;fill-rule:nonzero;stroke:none"
             id="path23205" />
        </g>
        <g
           id="g23207"
           transform="translate(341.068,440.277)">
          <path
             d="M 0,0 C 0.029,-0.049 0.04,-0.072 0.04,-0.129 0.038,-0.258 0.039,-0.387 0.039,-0.515 0.04,-0.603 0.037,-0.684 0.024,-0.771 0.013,-0.849 0.031,-0.911 0.038,-0.988 0.041,-1.022 0.038,-1.056 0.044,-1.091 0.048,-1.116 0.062,-1.139 0.062,-1.165 0.06,-1.221 0.02,-1.244 -0.02,-1.275 -0.066,-1.309 -0.136,-1.372 -0.199,-1.34 c -0.048,0.024 -0.095,0.096 -0.118,0.139 -0.032,0.061 -0.049,0.127 -0.087,0.184 -0.044,0.067 -0.084,0.121 -0.11,0.198 -0.044,0.134 -0.126,0.292 -0.06,0.436 0.049,0.109 0.158,0.219 0.249,0.294 0.048,0.04 0.099,0.047 0.148,0.073 0.021,0.011 0.035,0.031 0.056,0.043 C -0.043,0.071 0.084,0.107 0,0"
             style="fill:#231f20;fill-opacity:1;fill-rule:nonzero;stroke:none"
             id="path23209" />
        </g>
        <g
           id="g23211"
           transform="translate(342.391,440.711)">
          <path
             d="m 0,0 c 0.018,0.019 0.032,0.02 0.043,0.003 -0.031,-0.1 -0.044,-0.188 -0.044,-0.295 0,-0.063 -0.005,-0.136 0.018,-0.196 0.023,-0.059 0.063,-0.067 0.121,-0.067 0.116,0.001 0.172,0.104 0.257,0.171 0.105,0.084 0.207,0.126 0.334,0.167 0.064,0.02 0.136,0.03 0.197,0.059 0.047,0.022 0.074,0.057 0.129,0.062 0.106,0.009 0.233,0.004 0.336,-0.021 0.058,-0.014 0.103,-0.045 0.156,-0.069 0.049,-0.022 0.101,-0.034 0.151,-0.053 0.106,-0.043 0.203,-0.05 0.317,-0.023 0.039,0.009 0.064,0.021 0.096,0.043 0.037,0.027 0.085,0.052 0.117,0.084 0.042,0.04 0.048,0.11 0.057,0.164 C 2.299,0.114 2.31,0.199 2.31,0.285 2.31,0.376 2.306,0.46 2.294,0.548 2.291,0.567 2.296,0.595 2.291,0.612 2.278,0.658 2.212,0.669 2.169,0.672 2.101,0.676 2.033,0.667 1.966,0.672 1.877,0.679 1.79,0.704 1.701,0.71 1.619,0.715 1.533,0.718 1.452,0.699 1.364,0.678 1.289,0.623 1.205,0.591 1.137,0.566 1.067,0.55 0.999,0.529 0.947,0.512 0.912,0.475 0.864,0.452 0.755,0.4 0.637,0.427 0.525,0.386 0.413,0.344 0.306,0.331 0.187,0.314 0.11,0.304 0.038,0.257 -0.03,0.218 -0.099,0.178 -0.098,0.132 -0.099,0.058 c 0,-0.054 0,-0.092 0.024,-0.142 0.015,-0.031 0.036,-0.122 0.076,-0.124 C 0.018,-0.188 0.024,-0.165 0,0"
             style="fill:#231f20;fill-opacity:1;fill-rule:nonzero;stroke:none"
             id="path23213" />
        </g>
        <g
           id="g23215"
           transform="translate(341.818,432.58)">
          <path
             d="m 0,0 c 0.086,-0.03 0.143,-0.169 0.17,-0.247 0.053,-0.159 0.018,-0.337 -0.065,-0.48 -0.048,-0.083 -0.116,-0.142 -0.176,-0.215 -0.063,-0.077 -0.085,-0.172 -0.126,-0.26 -0.064,-0.135 -0.176,-0.255 -0.226,-0.397 -0.021,-0.057 -0.028,-0.109 -0.056,-0.164 -0.025,-0.05 -0.047,-0.101 -0.073,-0.15 -0.055,-0.105 -0.109,-0.208 -0.169,-0.309 -0.049,-0.084 -0.097,-0.192 -0.128,-0.284 -0.047,-0.141 -0.119,-0.27 -0.157,-0.413 -0.021,-0.078 -0.042,-0.125 -0.087,-0.191 -0.035,-0.049 -0.064,-0.087 -0.08,-0.146 -0.015,-0.058 -0.019,-0.106 -0.055,-0.157 -0.064,-0.092 -0.078,-0.182 -0.098,-0.289 -0.015,-0.075 -0.057,-0.131 -0.093,-0.196 -0.047,-0.083 -0.068,-0.176 -0.11,-0.262 -0.046,-0.095 -0.105,-0.182 -0.138,-0.283 -0.012,-0.038 -0.019,-0.077 -0.029,-0.115 -0.022,-0.086 -0.071,-0.158 -0.102,-0.24 -0.036,-0.094 -0.057,-0.192 -0.076,-0.291 -0.024,-0.12 -0.06,-0.236 -0.081,-0.356 -0.023,-0.135 -0.047,-0.271 -0.058,-0.408 -0.011,-0.125 -0.039,-0.235 -0.039,-0.361 0,-0.111 -0.018,-0.213 -0.045,-0.319 -0.034,-0.133 -0.03,-0.257 -0.034,-0.392 -0.002,-0.095 -0.028,-0.179 -0.039,-0.272 -0.007,-0.056 -10e-4,-0.113 -10e-4,-0.17 10e-4,-0.107 -0.008,-0.213 -0.015,-0.32 -0.008,-0.121 -0.022,-0.243 -0.026,-0.365 -0.005,-0.139 0.024,-0.269 0.037,-0.406 0.009,-0.088 0.016,-0.154 0.046,-0.238 0.04,-0.114 0.095,-0.214 0.155,-0.319 0.109,-0.189 0.212,-0.388 0.35,-0.559 0.08,-0.099 0.172,-0.187 0.239,-0.296 0.073,-0.119 0.142,-0.193 0.261,-0.266 0.067,-0.041 0.121,-0.098 0.187,-0.14 0.068,-0.045 0.145,-0.049 0.224,-0.062 0.105,-0.016 0.208,-0.024 0.314,-0.025 0.05,0 0.105,-0.006 0.154,0.003 0.059,0.01 0.105,0.045 0.159,0.066 0.097,0.035 0.208,0.034 0.308,0.059 0.102,0.026 0.206,0.05 0.311,0.052 0.119,0.002 0.231,-0.003 0.349,0.017 0.144,0.023 0.285,0.055 0.424,0.1 0.24,0.077 0.486,0.133 0.698,0.275 0.208,0.139 0.37,0.3 0.468,0.532 0.083,0.196 0.139,0.396 0.152,0.609 0.009,0.154 -0.006,0.306 0.011,0.46 0.015,0.131 0.015,0.266 0.011,0.399 -0.003,0.128 -0.035,0.252 -0.041,0.379 -0.004,0.109 -0.031,0.208 -0.048,0.315 -0.02,0.125 -0.011,0.254 -0.011,0.38 0,0.16 0,0.321 0,0.481 0,0.083 0.01,0.17 -0.005,0.252 -0.039,0.206 -0.099,0.413 -0.149,0.617 -0.032,0.127 -0.06,0.252 -0.103,0.375 -0.063,0.186 -0.146,0.362 -0.214,0.545 -0.079,0.215 -0.173,0.423 -0.288,0.621 -0.059,0.103 -0.114,0.209 -0.181,0.306 -0.081,0.117 -0.162,0.23 -0.225,0.358 -0.106,0.214 -0.25,0.4 -0.34,0.621 -0.04,0.097 -0.08,0.193 -0.114,0.292 -0.029,0.087 -0.091,0.184 -0.098,0.275 -0.004,0.055 -0.002,0.097 -0.022,0.15 -0.036,0.092 -0.083,0.179 -0.119,0.271 -0.047,0.125 -0.016,0.296 -0.017,0.426 -0.001,0.152 0.036,0.313 0.128,0.437 0.038,0.052 0.111,0.088 0.178,0.079 0.082,-0.011 0.135,-0.151 0.168,-0.218 0.026,-0.052 0.049,-0.098 0.057,-0.156 0.011,-0.072 0.033,-0.135 0.05,-0.207 0.036,-0.158 0.069,-0.294 0.151,-0.438 0.076,-0.134 0.151,-0.263 0.234,-0.393 0.161,-0.252 0.279,-0.522 0.4,-0.794 0.051,-0.114 0.117,-0.226 0.154,-0.346 0.037,-0.118 0.077,-0.196 0.155,-0.293 0.055,-0.07 0.092,-0.145 0.132,-0.224 0.024,-0.048 0.04,-0.098 0.059,-0.148 C 2.572,-3.919 2.614,-4.006 2.654,-4.095 2.803,-4.423 2.99,-4.732 3.128,-5.064 3.266,-5.4 3.39,-5.723 3.454,-6.081 3.484,-6.244 3.522,-6.405 3.54,-6.57 3.557,-6.721 3.552,-6.871 3.553,-7.022 3.554,-7.13 3.533,-7.224 3.518,-7.33 3.497,-7.473 3.504,-7.621 3.475,-7.763 3.452,-7.871 3.419,-7.967 3.409,-8.08 3.399,-8.208 3.394,-8.34 3.372,-8.467 3.353,-8.576 3.303,-8.678 3.276,-8.786 3.24,-8.926 3.221,-9.071 3.187,-9.212 3.16,-9.325 3.112,-9.417 3.064,-9.52 3.008,-9.636 2.965,-9.755 2.921,-9.876 2.881,-9.985 2.829,-10.082 2.759,-10.174 2.67,-10.29 2.617,-10.426 2.536,-10.547 2.407,-10.74 2.229,-10.945 2.005,-11.02 1.882,-11.062 1.748,-11.111 1.62,-11.13 c -0.067,-0.01 -0.141,-0.003 -0.209,-0.002 -0.1,0.002 -0.188,-0.005 -0.286,-0.015 -0.215,-0.024 -0.44,-0.004 -0.656,-0.005 -0.112,-0.001 -0.222,0.017 -0.334,0.021 -0.129,0.004 -0.251,-0.014 -0.376,0.023 -0.108,0.031 -0.203,0.037 -0.314,0.034 -0.126,-0.002 -0.238,0.033 -0.362,0.04 -0.113,0.006 -0.231,-0.016 -0.341,0.014 -0.132,0.035 -0.244,0.06 -0.381,0.066 -0.097,0.004 -0.193,0.002 -0.275,0.06 -0.078,0.056 -0.142,0.131 -0.215,0.193 -0.077,0.066 -0.172,0.099 -0.241,0.173 -0.079,0.085 -0.142,0.197 -0.192,0.3 -0.073,0.149 -0.15,0.288 -0.206,0.445 -0.066,0.188 -0.129,0.369 -0.158,0.566 -0.015,0.105 -0.054,0.201 -0.056,0.309 -0.002,0.134 0.002,0.269 0.002,0.402 0,0.142 -0.014,0.291 0.003,0.433 0.018,0.16 0.05,0.315 0.056,0.478 0.005,0.131 0.019,0.263 0.038,0.394 0.021,0.137 0.059,0.274 0.077,0.412 0.021,0.162 -10e-4,0.329 -0.013,0.49 -0.01,0.149 0.008,0.278 0.047,0.422 0.031,0.12 0.078,0.235 0.108,0.354 0.039,0.153 0.073,0.306 0.115,0.458 0.035,0.133 0.056,0.263 0.101,0.394 0.056,0.168 0.082,0.351 0.15,0.514 0.048,0.118 0.118,0.223 0.186,0.33 0.059,0.094 0.11,0.179 0.182,0.262 0.165,0.193 0.294,0.43 0.391,0.663 0.068,0.164 0.133,0.329 0.204,0.491 0.031,0.071 0.066,0.14 0.098,0.21 0.057,0.125 0.059,0.274 0.093,0.407 0.024,0.097 0.03,0.196 0.052,0.294 0.026,0.116 0.063,0.216 0.076,0.335 0.012,0.108 0.037,0.204 0.058,0.309 0.019,0.1 0.014,0.202 0.034,0.303 0.029,0.142 0.077,0.309 0.153,0.434 0.078,0.127 0.227,0.198 0.371,0.214 0.115,0.012 0.229,0.01 0.337,-0.031 0.145,-0.056 0.175,-0.21 0.241,-0.34"
             style="fill:#231f20;fill-opacity:1;fill-rule:nonzero;stroke:none"
             id="path23217" />
        </g>
        <g
           id="g23219"
           transform="translate(341.217,440.614)">
          <path
             d="m 0,0 c -0.044,0.034 -0.019,0.123 -0.021,0.168 -0.004,0.096 -0.027,0.187 -0.022,0.284 0.002,0.051 0.009,0.105 0.026,0.154 0.023,0.069 0.077,0.093 0.12,0.143 0.008,0.01 0.019,0.041 0.024,0.049 0.023,0.038 0.051,0.054 0.082,0.085 0.049,0.05 0.089,0.109 0.134,0.163 0.099,0.119 0.257,0.167 0.318,0.326 0.015,0.037 0.016,0.081 0.024,0.12 0.011,0.047 0.029,0.092 0.04,0.139 0.019,0.079 0.004,0.175 0.004,0.257 0,0.077 -0.001,0.153 0,0.23 0,0.074 -0.02,0.14 -0.022,0.213 C 0.705,2.394 0.712,2.457 0.709,2.519 0.704,2.591 0.67,2.662 0.653,2.732 0.628,2.839 0.626,2.943 0.622,3.053 0.62,3.122 0.597,3.219 0.563,3.281 0.549,3.309 0.518,3.345 0.494,3.362 0.478,3.373 0.456,3.374 0.441,3.387 0.417,3.407 0.404,3.443 0.386,3.469 0.359,3.506 0.324,3.561 0.278,3.577 0.26,3.584 0.244,3.578 0.225,3.582 0.204,3.588 0.19,3.608 0.167,3.607 0.099,3.606 0.074,3.465 0.059,3.413 0.021,3.279 0.014,3.144 -0.005,3.008 -0.028,2.849 -0.041,2.69 -0.043,2.53 -0.045,2.446 -0.02,2.367 -0.021,2.282 c -10e-4,-0.074 0,-0.148 0,-0.221 0,-0.117 -0.018,-0.224 -0.021,-0.34 C -0.044,1.67 -0.054,1.615 -0.069,1.566 -0.09,1.494 -0.137,1.438 -0.172,1.374 -0.187,1.345 -0.198,1.314 -0.213,1.286 -0.243,1.231 -0.297,1.197 -0.317,1.138 -0.328,1.106 -0.332,1.071 -0.343,1.038 -0.366,0.971 -0.358,0.917 -0.369,0.846 -0.381,0.758 -0.41,0.672 -0.424,0.584 -0.435,0.513 -0.431,0.438 -0.429,0.366 -0.428,0.296 -0.419,0.211 -0.386,0.149 -0.379,0.135 -0.367,0.122 -0.359,0.108 -0.344,0.081 -0.341,0.034 -0.322,0.013 -0.298,-0.013 -0.24,0 -0.202,0 -0.114,-0.001 -0.029,0.003 0,0"
             style="fill:#231f20;fill-opacity:1;fill-rule:nonzero;stroke:none"
             id="path23221" />
        </g>
      </g>
    </g>
  </g>
</svg>
