<?xml version="1.0" encoding="UTF-8" standalone="no"?>
<!-- Created with Inkscape (http://www.inkscape.org/) -->

<svg
   width="5.4588556"
   height="24"
   viewBox="0 0 1.4443222 6.35"
   version="1.1"
   id="svg56537"
   inkscape:version="1.2.1 (9c6d41e4, 2022-07-14)"
   sodipodi:docname="the-secret-name.svg"
   xmlns:inkscape="http://www.inkscape.org/namespaces/inkscape"
   xmlns:sodipodi="http://sodipodi.sourceforge.net/DTD/sodipodi-0.dtd"
   xmlns="http://www.w3.org/2000/svg"
   xmlns:svg="http://www.w3.org/2000/svg">
  <sodipodi:namedview
     id="namedview56539"
     pagecolor="#505050"
     bordercolor="#eeeeee"
     borderopacity="1"
     inkscape:showpageshadow="0"
     inkscape:pageopacity="0"
     inkscape:pagecheckerboard="0"
     inkscape:deskcolor="#505050"
     inkscape:document-units="mm"
     showgrid="false"
     inkscape:zoom="0.7046647"
     inkscape:cx="134.81589"
     inkscape:cy="193.70915"
     inkscape:window-width="1390"
     inkscape:window-height="941"
     inkscape:window-x="0"
     inkscape:window-y="25"
     inkscape:window-maximized="0"
     inkscape:current-layer="layer1" />
  <defs
     id="defs56534">
    <clipPath
       clipPathUnits="userSpaceOnUse"
       id="clipPath16973">
      <path
         d="m 288.631,290.201 h 24.699 v 24.7 h -24.699 z"
         id="path16971" />
    </clipPath>
  </defs>
  <g
     inkscape:label="Layer 1"
     inkscape:groupmode="layer"
     id="layer1"
     transform="translate(-69.407317,-97.457444)">
    <g
       id="g16967"
       transform="matrix(0.31595007,0,0,-0.31595007,-24.96517,196.22312)">
      <g
         id="g16969"
         clip-path="url(#clipPath16973)">
        <g
           id="g16975"
           transform="translate(302.913,293.873)">
          <path
             d="M 0,0 C 0.016,0.003 0.032,0.005 0.047,0.008 0.076,0.067 0.056,0.139 0.056,0.202 0.053,0.363 0.069,0.521 0.086,0.681 0.153,1.317 0.057,1.918 -0.13,2.53 c -0.225,0.735 -0.559,1.604 -0.432,2.387 0.044,0.266 0.146,0.526 0.165,0.795 0.016,0.247 -0.008,0.467 0.037,0.712 0.051,0.277 0.134,0.548 0.177,0.826 0.039,0.258 0.023,0.549 0.015,0.811 -0.008,0.267 -0.156,0.48 -0.221,0.732 -0.056,0.221 -0.062,0.411 -0.066,0.636 -0.005,0.24 -0.038,0.474 -0.161,0.682 -0.087,0.146 -0.139,0.291 -0.173,0.466 -0.038,0.2 -0.022,0.405 -0.056,0.608 -0.012,0.069 -0.045,0.247 -0.017,0.311 0.039,0.087 0.124,0.067 0.191,0.014 0.11,-0.087 0.126,-0.35 0.156,-0.477 0.018,-0.075 0.158,-0.661 0.289,-0.403 0.063,0.125 0.056,0.326 0.027,0.459 -0.011,0.05 -0.016,0.132 -0.04,0.177 -0.037,0.072 -0.129,0.082 -0.159,0.145 -0.062,0.129 -0.005,0.445 -0.002,0.595 0.001,0.136 -0.018,0.121 -0.073,0.226 -0.044,0.085 -0.085,0.25 -0.102,0.346 -0.014,0.081 0.041,0.215 -0.005,0.29 -0.059,0.094 -0.187,0.046 -0.278,0.052 -0.113,0.006 -0.198,0.06 -0.315,0.059 -0.151,-10e-4 -0.131,-0.035 -0.206,-0.137 -0.072,-0.099 -0.189,-0.23 -0.29,-0.307 -0.171,-0.13 -0.41,-0.294 -0.618,-0.344 -0.265,-0.064 -0.534,0.046 -0.802,0.044 -0.094,0 -0.189,-0.002 -0.284,0 -0.183,0.004 -0.143,-0.029 -0.213,-0.175 -0.032,-0.067 -0.108,-0.129 -0.125,-0.202 -0.023,-0.093 -0.006,-0.211 -0.005,-0.309 0.001,-0.228 -0.097,-0.341 0.011,-0.572 0.019,-0.04 0.077,-0.071 0.093,-0.113 0.027,-0.067 0.01,-0.147 0.01,-0.217 -0.001,-0.137 0.01,-0.202 -0.057,-0.314 C -3.812,10.076 -3.674,9.724 -3.656,9.435 -3.632,9.038 -3.755,8.553 -3.628,8.176 -3.594,8.074 -3.522,7.993 -3.496,7.887 -3.474,7.8 -3.487,7.707 -3.488,7.618 -3.49,7.41 -3.467,7.195 -3.499,6.989 -3.53,6.793 -3.61,6.601 -3.648,6.406 -3.688,6.202 -3.668,5.962 -3.66,5.756 c 0.006,-0.177 0.076,-0.319 0.132,-0.488 0.057,-0.17 0.04,-0.329 0.04,-0.512 0,-0.125 -0.028,-0.287 0.009,-0.409 C -3.44,4.216 -3.334,4.148 -3.315,4.006 -3.294,3.846 -3.319,3.671 -3.316,3.509 -3.311,3.279 -3.42,3.178 -3.512,2.977 -3.588,2.81 -3.604,2.699 -3.602,2.512 -3.6,2.356 -3.629,2.25 -3.675,2.101 -3.721,1.951 -3.702,1.76 -3.831,1.651 -3.879,1.609 -3.919,1.617 -3.943,1.563 -3.97,1.498 -3.946,1.386 -3.945,1.315 -3.944,1.166 -3.926,1.003 -3.986,0.863 -4.026,0.772 -4.048,0.73 -4.072,0.629 -4.127,0.4 -4.265,0.212 -4.203,-0.029 c 0.031,-0.121 0.08,-0.215 0.082,-0.338 0,-0.044 -0.051,-0.029 -0.046,-0.087 0.004,-0.043 0.107,-0.139 0.137,-0.177 0.077,-0.099 0.088,-0.118 0.085,-0.255 -0.004,-0.155 -0.023,-0.199 0.142,-0.201 0.183,-0.003 0.277,0.072 0.402,0.201 0.066,0.068 0.216,0.281 0.339,0.197 0.068,-0.045 0.073,-0.185 0.115,-0.257 0.071,-0.118 0.158,-0.084 0.288,-0.083 0.11,0 0.235,0.017 0.343,0.002 0.12,-0.017 0.226,-0.089 0.344,-0.112 0.108,-0.02 0.231,-0.003 0.343,-0.005 0.13,-0.001 0.219,0.043 0.343,0.06 0.046,0.006 0.096,-0.006 0.142,-0.004 0.081,0.004 0.126,0.039 0.201,0.054 0.105,0.021 0.233,0.008 0.342,0.005 0.204,-0.005 0.259,-0.118 0.43,-0.198 0.062,-0.029 0.108,-0.017 0.169,-0.028 0.097,-0.017 0.188,-0.121 0.277,-0.117 0.174,0.335 0.016,0.855 -0.089,1.192 -0.042,0.133 -0.112,0.248 -0.143,0.387 -0.036,0.159 -0.058,0.32 -0.081,0.481 -0.078,0.556 -0.208,1.104 -0.305,1.656"
             style="fill:#231f20;fill-opacity:1;fill-rule:nonzero;stroke:none"
             id="path16977" />
        </g>
        <g
           id="g16979"
           transform="translate(301.711,308.738)">
          <path
             d="m 0,0 c -0.008,0.14 0.023,0.291 0.003,0.429 -0.034,0.235 -0.145,0.452 -0.259,0.657 -0.045,0.08 -0.126,0.196 -0.146,0.283 -0.037,0.159 0.062,0.304 0.06,0.461 -0.002,0.148 -0.01,0.261 -0.044,0.4 C -0.422,2.374 -0.463,2.518 -0.499,2.657 -0.578,2.962 -0.742,3.183 -0.942,3.43 -1.033,3.543 -1.14,3.635 -1.244,3.732 -1.3,3.784 -1.374,3.815 -1.433,3.861 -1.385,3.791 -1.344,3.686 -1.314,3.631 -1.252,3.52 -1.176,3.424 -1.112,3.315 -0.974,3.081 -0.972,2.875 -0.971,2.602 -0.97,2.423 -0.995,2.286 -1.034,2.116 -1.058,2.016 -1.105,1.939 -1.144,1.845 -1.185,1.746 -1.179,1.672 -1.205,1.575 -1.271,1.323 -1.451,1.059 -1.68,0.912 -1.903,0.77 -1.966,0.659 -2.071,0.414 c -0.105,-0.244 -0.098,-0.481 -0.1,-0.757 -0.001,-0.139 0.01,-0.272 0.068,-0.4 0.027,-0.06 0.076,-0.117 0.105,-0.175 0.024,-0.048 0.04,-0.107 0.068,-0.154 0.114,-0.194 0.247,-0.391 0.39,-0.566 l 0.041,-0.053 c -0.026,0.173 -0.041,0.349 -0.034,0.524 0.005,0.101 0.016,0.203 0.042,0.302 0.012,0.049 0.038,0.096 0.05,0.145 0.067,0.276 -0.023,0.721 0.411,0.72 0.082,-0.001 0.175,0.024 0.233,-0.031 0.023,-0.021 0.09,-0.176 0.099,-0.21 0.034,-0.125 0.045,-0.376 0.016,-0.505 -0.013,-0.058 -0.067,-0.112 -0.089,-0.168 -0.03,-0.076 -0.029,-0.144 -0.028,-0.23 0,-0.079 -0.021,-0.183 -0.002,-0.259 0.016,-0.066 0.078,-0.125 0.059,-0.198 0.027,0.172 0.208,0.156 0.332,0.242 0.03,0.021 0.106,0.079 0.127,0.1 0.04,0.04 0.047,0.061 0.083,0.115 0.143,0.219 0.26,0.456 0.258,0.715 C 0.058,-0.272 0.008,-0.148 0,0"
             style="fill:#231f20;fill-opacity:1;fill-rule:nonzero;stroke:none"
             id="path16981" />
        </g>
        <g
           id="g16983"
           transform="translate(300.812,306.351)">
          <path
             d="m 0,0 c -0.004,0 -0.008,0.001 -0.013,0.002 0.022,-0.02 0.039,-0.115 0.034,-0.146 10e-4,0.096 0,0.191 0,0.286 0,0.04 0.011,0.098 0.002,0.138 -0.005,0.019 -0.019,0.021 -0.024,0.041 -0.006,0.023 0.005,0.051 0.002,0.076 -0.005,0.038 -0.018,0.079 -0.027,0.118 -0.01,0.041 -0.02,0.09 -0.038,0.129 -0.033,0.073 -0.048,0.145 -0.067,0.223 -0.003,0.014 -0.016,0.015 -0.02,0.032 -0.005,0.019 0,0.041 -0.004,0.061 -0.003,0.014 -0.014,0.027 -0.017,0.047 -0.003,0.02 0,0.044 0,0.065 0,0.034 -0.004,0.07 0.005,0.102 0.01,0.032 0.046,0.064 0.055,0.096 0.022,0.072 -0.026,0.143 0.047,0.187 C 0.004,1.499 0.036,1.566 0.017,1.65 0.008,1.686 0.002,1.735 -0.015,1.764 -0.033,1.794 -0.073,1.831 -0.102,1.85 -0.16,1.889 -0.237,1.91 -0.295,1.86 -0.349,1.813 -0.365,1.743 -0.365,1.672 c 0.001,-0.035 0.001,-0.071 0,-0.107 0,-0.051 0.022,-0.077 0.022,-0.129 C -0.345,1.269 -0.416,1.128 -0.428,0.966 -0.437,0.856 -0.476,0.733 -0.445,0.62 c 0.024,-0.087 0.06,-0.186 0.076,-0.278 0.007,-0.044 0.02,-0.085 0.027,-0.128 0.008,-0.049 0.021,-0.099 0.02,-0.15 0,-0.038 0.011,-0.093 0.002,-0.129 -0.009,-0.038 -0.049,-0.073 -0.008,-0.113 0.013,-0.012 0.014,-0.009 0.027,-0.015 0.01,-0.005 0.052,-0.02 0.064,-0.022 0.05,-0.012 0.101,0.012 0.146,0.027 0.012,0.004 0.008,0.014 0.025,0.018 0.03,0.006 0.048,-0.011 0.072,0.014 C 0.038,-0.125 0.021,-0.042 0,0"
             style="fill:#231f20;fill-opacity:1;fill-rule:nonzero;stroke:none"
             id="path16985" />
        </g>
      </g>
    </g>
  </g>
</svg>
