<?xml version="1.0" encoding="UTF-8" standalone="no"?>
<!-- Created with Inkscape (http://www.inkscape.org/) -->

<svg
   width="19.63386"
   height="24"
   viewBox="0 0 5.1947919 6.35"
   version="1.1"
   id="svg24694"
   inkscape:version="1.2.1 (9c6d41e4, 2022-07-14)"
   sodipodi:docname="the_house_always_wins.svg"
   xmlns:inkscape="http://www.inkscape.org/namespaces/inkscape"
   xmlns:sodipodi="http://sodipodi.sourceforge.net/DTD/sodipodi-0.dtd"
   xmlns="http://www.w3.org/2000/svg"
   xmlns:svg="http://www.w3.org/2000/svg">
  <sodipodi:namedview
     id="namedview24696"
     pagecolor="#505050"
     bordercolor="#eeeeee"
     borderopacity="1"
     inkscape:showpageshadow="0"
     inkscape:pageopacity="0"
     inkscape:pagecheckerboard="0"
     inkscape:deskcolor="#505050"
     inkscape:document-units="mm"
     showgrid="false"
     inkscape:zoom="0.70199214"
     inkscape:cx="51.282625"
     inkscape:cy="252.13957"
     inkscape:window-width="1390"
     inkscape:window-height="938"
     inkscape:window-x="0"
     inkscape:window-y="25"
     inkscape:window-maximized="0"
     inkscape:current-layer="layer1" />
  <defs
     id="defs24691">
    <clipPath
       clipPathUnits="userSpaceOnUse"
       id="clipPath4315">
      <path
         d="m 298.717,430.603 h 24.7 v 24.7 h -24.7 z"
         id="path4313" />
    </clipPath>
  </defs>
  <g
     inkscape:label="Layer 1"
     inkscape:groupmode="layer"
     id="layer1"
     transform="translate(-91.692503,-81.915819)">
    <g
       id="g4309"
       transform="matrix(0.27874948,0,0,-0.27874948,7.6197085,208.74739)">
      <g
         id="g4311"
         clip-path="url(#clipPath4315)">
        <g
           id="g4317"
           transform="translate(307.391,440.488)">
          <path
             d="M 0,0 C 0.005,0.028 0.016,0.057 0.022,0.086 0.017,0.084 0.01,0.081 0.005,0.079 -0.01,0.052 0.007,0.027 0,0"
             style="fill:#231f20;fill-opacity:1;fill-rule:nonzero;stroke:none"
             id="path4319" />
        </g>
        <g
           id="g4321"
           transform="translate(317.885,440.112)">
          <path
             d="M 0,0 C -0.019,-0.034 -0.04,-0.066 -0.064,-0.097 -0.121,-0.17 -0.191,-0.233 -0.235,-0.315 -0.283,-0.403 -0.298,-0.509 -0.366,-0.582 -0.429,-0.648 -0.523,-0.674 -0.611,-0.694 -1.39,-0.875 -2.197,-0.94 -2.993,-0.868 c -0.555,0.049 -1.183,0.224 -1.417,0.73 -0.079,0.171 -0.127,0.412 -0.15,0.599 -0.058,0.482 0.457,0.851 0.886,0.851 0.511,0 0.822,-0.304 1.163,-1.255 -0.052,0.337 0.108,0.675 0.088,1.015 -0.021,0.366 -0.25,0.694 -0.539,0.919 -0.289,0.226 -0.354,0.25 -0.694,0.385 -0.269,0.107 -1.049,0.158 -1.247,-0.05 -0.318,-0.333 -0.447,-0.397 -0.675,-0.943 0.038,0.175 -0.003,0.588 0.001,0.697 0.01,0.278 0.047,0.557 0.031,0.835 -0.1,1.836 -0.5,2.327 0.435,1.042 0.083,-0.114 0.232,-0.157 0.334,-0.253 0.276,-0.26 0.612,-0.497 0.991,-0.496 0.11,0 0.22,0.02 0.328,-0.001 0.321,-0.065 0.492,-0.471 0.816,-0.52 0.129,-0.019 0.271,0.021 0.384,-0.042 C -2.18,2.602 -2.134,2.52 -2.086,2.446 -1.906,2.164 -1.646,1.935 -1.344,1.791 -1.131,1.689 -0.9,1.631 -0.686,1.531 -0.383,1.39 -0.113,1.158 0.022,0.853 0.142,0.583 0.143,0.255 0,0 m -7.692,9.091 c -0.087,-0.03 -0.183,-0.021 -0.27,0.015 -0.051,10e-4 -0.102,0.002 -0.152,0.002 -0.072,0 -0.133,0.015 -0.185,0.04 -0.26,-0.19 -0.532,-0.4 -0.513,-0.584 0.034,-0.033 0.067,-0.065 0.1,-0.098 0.005,-0.005 0.009,-0.011 0.013,-0.016 0.302,-0.117 0.481,-0.394 0.602,-0.681 0.107,-0.255 0.24,-0.632 0.101,-0.891 -0.074,0.138 -0.177,0.248 -0.316,0.326 -0.519,0.295 -0.816,0.734 -1.273,1.103 -0.154,0.125 -0.118,0.373 0,0.502 0.014,0.015 0.03,0.027 0.045,0.039 0.448,0.461 0.892,0.902 1.257,1.413 0.011,0.015 0.024,0.031 0.037,0.046 0.046,-0.028 0.095,-0.068 0.141,-0.11 0.091,0.01 0.185,-0.012 0.264,-0.055 0.044,0.016 0.094,0.027 0.151,0.027 0.367,0 0.724,-0.017 1.086,-0.077 0.056,-0.009 0.106,-0.033 0.148,-0.067 0.285,0.133 0.612,0.189 0.901,0.089 0.053,0.02 0.11,0.031 0.168,0.025 0.045,0.027 0.09,0.052 0.139,0.085 C -4.98,9.91 -4.76,9.517 -4.511,9.312 -4.413,9.231 -4.228,9.14 -4.123,9.063 -4.076,9.027 -4.073,8.935 -4.063,8.851 -4.028,8.571 -3.714,8.374 -3.796,8.073 -3.852,7.865 -4.082,7.763 -4.288,7.7 -4.637,7.593 -4.765,7.47 -4.94,7.167 -5.09,6.909 -5.273,6.627 -5.537,6.963 -5.626,7.077 -5.64,7.219 -5.612,7.372 c 0.07,0.367 0.389,0.793 0.517,1.022 0.021,0.037 0.048,0.067 0.08,0.093 C -5.185,8.688 -5.314,8.916 -5.46,9.132 -6.203,8.873 -6.936,9.036 -7.692,9.091 M -7.78,1.312 C -7.925,1.419 -8.148,1.916 -8.391,2.155 -8.619,2.38 -8.756,2.324 -9.201,2.38 -9.396,2.405 -9.543,2.258 -9.688,2.183 c -0.591,-0.303 -1.79,-0.847 -1.59,-2.144 0.075,0.313 0.533,1.003 0.806,1.058 0.221,0.045 0.712,-0.273 0.887,-0.434 0.425,-0.392 0.157,-1.11 -0.341,-1.257 -0.425,-0.125 -0.784,-0.389 -1.204,-0.504 -0.487,-0.134 -0.962,-0.079 -1.413,0.145 -0.017,0.008 -0.028,0.019 -0.042,0.029 -0.062,-0.024 -0.135,-0.03 -0.216,-0.008 -0.342,0.094 -0.731,0.047 -0.986,0.349 -0.042,0.049 -0.07,0.105 -0.086,0.164 -0.037,0.035 -0.069,0.08 -0.091,0.135 -0.286,0.722 0.15,1.67 0.971,1.707 0.036,0.002 0.069,-0.003 0.099,-0.009 0.02,0.009 0.04,0.018 0.064,0.025 0.407,0.116 0.508,0.266 0.923,0.351 0.071,0.015 0.487,0.355 0.543,0.336 0.504,0.555 1.05,0.522 1.115,0.543 0.846,0.271 0.74,0.368 1.04,0.655 0.033,0.033 0.058,0.071 0.075,0.115 0.101,0.258 1.069,1.494 1.172,1.289 0.119,-0.237 0.221,-1.203 0.171,-1.381 -0.026,-0.091 0.06,-0.435 0.013,-0.506 0.004,-0.3 -0.005,-1.228 -0.002,-1.529 M 2.257,1.252 C 2.188,1.412 2.18,1.595 2.181,1.781 1.927,2.01 1.681,2.249 1.411,2.447 1.335,2.437 1.256,2.449 1.193,2.492 1.132,2.532 1.071,2.573 1.007,2.608 1,2.612 0.976,2.625 0.957,2.636 0.924,2.652 0.884,2.661 0.849,2.67 0.754,2.696 0.684,2.759 0.641,2.837 0.625,2.842 0.608,2.846 0.591,2.85 0.57,2.829 0.548,2.809 0.522,2.792 0.368,2.693 0.12,2.753 0.036,2.919 0,2.992 -0.037,3.064 -0.075,3.136 -0.188,3.118 -0.31,3.147 -0.38,3.233 -0.41,3.271 -0.434,3.309 -0.454,3.348 -0.474,3.346 -0.493,3.343 -0.515,3.344 -0.932,3.36 -1.246,3.601 -1.638,3.7 -1.767,3.732 -1.849,3.839 -1.88,3.959 c -0.047,0.044 -0.077,0.096 -0.091,0.15 -0.131,0.047 -0.25,0.101 -0.334,0.169 -0.296,0.236 -0.277,0.644 -0.13,0.967 0.053,0.115 0.238,0.242 0.25,0.377 0.009,0.095 -0.011,0.163 -0.048,0.214 -0.383,0.492 -0.812,0.55 -1.012,-0.194 -0.033,-0.123 0.3,-0.581 0.264,-0.705 C -3.059,4.664 -3.318,4.776 -3.545,4.869 -3.841,4.99 -4.028,5.36 -4.171,5.623 c -0.157,0.289 -0.134,0.476 0.068,0.725 0.202,0.249 0.383,0.48 0.671,0.626 0.065,0.072 0.141,0.134 0.237,0.175 0.117,0.051 0.237,0.056 0.337,0.007 0.336,0.045 0.67,-0.022 0.912,-0.264 0.022,-0.017 0.045,-0.035 0.067,-0.056 0.035,-0.033 0.06,-0.072 0.077,-0.113 0.265,-0.097 0.477,-0.282 0.568,-0.55 C -1.045,5.617 -1.463,5.702 -1.841,5.424 -2.306,5.082 -1.821,4.943 -1.477,4.812 -0.944,4.61 0.023,4.463 0.337,3.957 0.524,3.936 0.608,3.785 0.788,3.806 0.839,3.457 1.16,3.612 1.408,3.493 1.655,3.375 1.822,3.354 2.017,3.202 1.882,3.588 1.474,3.814 1.249,4.149 0.998,4.521 0.887,4.908 0.579,5.257 0.149,5.744 -0.38,6.122 -0.781,6.641 -1.283,7.292 -1.826,7.812 -2.57,8.187 c -0.492,0.46 -0.929,0.972 -1.452,1.397 -0.838,0.68 -1.34,1.784 -1.856,2.704 -0.156,0.28 -0.388,0.58 -0.494,0.883 -0.184,0.521 -0.308,1.168 -0.414,1.719 0.044,-0.226 -0.204,-0.509 -0.269,-0.717 -0.091,-0.292 -0.105,-0.562 -0.223,-0.853 -0.258,-0.634 -0.488,-1.221 -0.867,-1.789 -0.19,-0.301 -0.375,-0.606 -0.57,-0.904 -0.434,-0.663 -1.05,-1.117 -1.554,-1.71 -0.162,-0.192 -0.245,-0.466 -0.438,-0.629 -0.284,-0.239 -0.674,-0.357 -0.964,-0.607 -0.658,-0.566 -1.443,-1.046 -1.941,-1.766 -0.203,-0.293 -0.493,-0.496 -0.702,-0.802 -0.074,-0.108 -0.148,-0.289 -0.228,-0.376 -0.115,-0.126 -0.205,-0.108 -0.31,-0.187 -0.187,-0.14 -0.318,-0.333 -0.433,-0.549 -0.116,-0.219 -0.402,-0.61 -0.389,-0.851 0.158,0.104 0.273,0.292 0.44,0.39 0.343,0.203 0.713,0.208 1.075,0.341 0.24,0.087 0.442,0.264 0.678,0.359 0.236,0.094 0.551,0.274 0.801,0.317 0.273,0.046 0.482,-0.047 0.754,0.062 0.332,0.133 0.463,0.286 0.212,0.58 -0.203,0.239 -0.522,0.186 -0.705,0.356 -0.435,0.404 0.28,1.075 0.676,1.256 0.007,0.004 0.013,0.005 0.02,0.008 0.032,0.142 0.142,0.264 0.331,0.264 0.012,0 0.022,-0.002 0.034,-0.003 0.005,0.004 0.01,0.008 0.016,0.012 0.155,0.098 0.34,0.132 0.521,0.134 0.031,0.001 0.059,-0.004 0.087,-0.011 0.028,0.007 0.056,0.012 0.085,0.011 0.502,-0.012 0.893,-0.524 1.183,-0.886 0.305,-0.381 0.202,-1.576 -0.492,-1.451 -0.079,0.015 -0.151,0.056 -0.23,0.064 -0.062,0.006 0.007,0.571 -0.004,0.632 -0.142,0.858 -0.514,0.686 -0.688,0.479 -0.003,0 -0.004,0 -0.008,0 -0.023,0.001 -0.047,0.002 -0.07,0.001 -0.021,0 -0.041,-0.003 -0.061,-0.004 -0.194,-0.292 -0.31,-0.44 -0.16,-0.822 0.085,-0.215 0.304,-0.606 0.217,-0.886 0.117,-0.134 0.095,-0.34 -0.017,-0.47 -0.008,-0.014 -0.019,-0.028 -0.028,-0.042 -0.033,-0.047 -0.067,-0.094 -0.106,-0.136 -0.05,-0.056 -0.115,-0.087 -0.184,-0.098 -0.057,-0.157 -0.209,-0.287 -0.418,-0.251 -0.499,0.088 -0.861,-0.141 -1.271,-0.392 -0.138,-0.086 -0.271,-0.062 -0.369,0.013 -0.056,-0.086 -0.149,-0.147 -0.281,-0.148 -0.143,-0.001 -0.272,-0.011 -0.393,-0.032 -0.151,-0.142 -0.356,-0.219 -0.574,-0.266 -0.052,-0.046 -0.104,-0.096 -0.155,-0.155 -0.152,-0.179 -0.357,-0.133 -0.481,10e-4 -0.007,-0.004 -0.012,-0.01 -0.019,-0.014 -0.198,-0.118 -0.403,-0.225 -0.601,-0.343 -0.04,-0.024 -0.083,-0.035 -0.127,-0.041 0.001,-0.013 0.003,-0.025 0.003,-0.039 -0.006,-0.303 -0.085,-0.615 -0.263,-0.865 -0.01,-0.013 -0.021,-0.025 -0.032,-0.038 0.004,-0.034 0.007,-0.069 0.01,-0.104 0.031,-0.388 0.201,-0.785 0.454,-1.095 0.275,-0.336 0.461,-0.767 0.844,-0.986 0.404,-0.232 0.88,-0.339 1.278,-0.549 1.194,-0.63 2.981,-0.665 4.208,-0.101 0.26,0.12 0.459,0.361 0.723,0.446 0.11,0.036 0.273,-0.009 0.383,0.022 0.201,0.057 0.221,0.119 0.361,0.318 0.047,0.065 0.093,0.126 0.139,0.186 -0.008,-1.078 -0.039,-1.85 -0.107,-1.965 -0.395,-0.674 -0.629,-0.914 -0.884,-1.612 -0.318,-0.871 -0.964,-1.391 -1.699,-1.878 -0.543,-0.361 -0.929,-1.057 -1.684,-1.039 0.039,-0.12 0.141,-0.502 0.24,-0.561 0.068,-0.04 0.528,0.062 0.644,0.059 0.14,-0.004 0.288,-0.047 0.435,-0.026 0.153,0.022 0.274,0.131 0.407,0.155 0.134,0.023 0.453,-0.027 0.554,-0.112 -0.11,0.303 -0.167,0.482 0.081,0.725 0.355,0.347 0.725,0.549 1.129,0.857 0.237,0.18 0.234,0.178 0.288,0.432 0.046,0.215 0.062,0.378 0.165,0.589 0.002,0.004 0.007,0.009 0.011,0.011 0.321,0.156 0.475,-0.355 0.507,-0.554 0.064,-0.406 -0.196,-0.591 -0.027,-1.017 0.066,-0.165 0.138,-0.332 0.139,-0.509 0,-0.151 -0.063,-0.296 -0.188,-0.389 0.839,0.141 1.684,0.105 2.519,-0.089 0.061,0.236 -0.255,0.492 -0.341,0.731 -0.114,0.317 -0.156,0.657 -0.128,0.992 0.011,0.133 0.319,0.832 0.169,0.932 0.026,-0.017 0.04,-0.039 0.052,-0.066 0.185,-0.402 0.434,-0.523 0.772,-0.791 0.37,-0.294 0.562,-0.551 0.818,-0.927 0.168,-0.248 0.226,-0.622 0.49,-0.8 0.364,0.337 1.447,-0.156 1.839,-0.107 0.246,0.03 0.342,0.291 0.248,0.531 -0.108,0.274 -0.563,0.372 -0.822,0.538 -0.255,0.165 -0.545,0.249 -0.795,0.402 -0.268,0.164 -0.567,0.426 -0.825,0.626 -0.484,0.375 -0.773,0.931 -0.99,1.472 -0.202,0.507 -0.341,1.009 -0.555,1.506 -0.048,0.112 -0.048,0.511 -0.031,1.806 0.083,-0.18 0.19,-0.284 0.43,-0.463 0.234,-0.174 0.203,-0.128 0.518,-0.204 0.217,-0.052 0.471,-0.224 0.687,-0.312 0.417,-0.169 0.864,-0.184 1.31,-0.105 0.443,0.078 0.858,0.058 1.299,0.101 0.405,0.04 0.63,0.252 1.002,0.37 0.474,0.151 0.857,0.18 1.183,0.571 0.314,0.376 0.596,0.756 0.917,1.112 0.393,0.437 0.594,0.537 0.358,1.086"
             style="fill:#231f20;fill-opacity:1;fill-rule:nonzero;stroke:none"
             id="path4323" />
        </g>
      </g>
    </g>
  </g>
</svg>
