<?xml version="1.0" encoding="UTF-8" standalone="no"?>
<!-- Created with Inkscape (http://www.inkscape.org/) -->

<svg
   width="24.670202"
   height="24"
   viewBox="0 0 6.5273242 6.35"
   version="1.1"
   id="svg26007"
   inkscape:version="1.2.1 (9c6d41e4, 2022-07-14)"
   sodipodi:docname="undimensioned_and_unseen.svg"
   xmlns:inkscape="http://www.inkscape.org/namespaces/inkscape"
   xmlns:sodipodi="http://sodipodi.sourceforge.net/DTD/sodipodi-0.dtd"
   xmlns="http://www.w3.org/2000/svg"
   xmlns:svg="http://www.w3.org/2000/svg">
  <sodipodi:namedview
     id="namedview26009"
     pagecolor="#505050"
     bordercolor="#eeeeee"
     borderopacity="1"
     inkscape:showpageshadow="0"
     inkscape:pageopacity="0"
     inkscape:pagecheckerboard="0"
     inkscape:deskcolor="#505050"
     inkscape:document-units="mm"
     showgrid="false"
     inkscape:zoom="0.70199214"
     inkscape:cx="85.471042"
     inkscape:cy="222.22471"
     inkscape:window-width="1390"
     inkscape:window-height="938"
     inkscape:window-x="0"
     inkscape:window-y="25"
     inkscape:window-maximized="0"
     inkscape:current-layer="layer1" />
  <defs
     id="defs26004">
    <clipPath
       clipPathUnits="userSpaceOnUse"
       id="clipPath16301">
      <path
         d="m 55.717,419.904 h 24.7 v 24.699 h -24.7 z"
         id="path16299" />
    </clipPath>
  </defs>
  <g
     inkscape:label="Layer 1"
     inkscape:groupmode="layer"
     id="layer1"
     transform="translate(-82.419538,-89.68642)">
    <g
       id="g16295"
       transform="matrix(0.29587157,0,0,-0.29587157,65.425131,220.60811)">
      <g
         id="g16297"
         clip-path="url(#clipPath16301)">
        <g
           id="g16303"
           transform="translate(74.5508,423.27)">
          <path
             d="M 0,0 C 0.344,0.509 0.915,0.894 1.375,1.235 1.395,1.25 1.414,1.268 1.434,1.283 1.763,1.704 2.069,2.146 2.443,2.527 2.744,2.834 3.103,3.076 3.405,3.38 3.813,3.789 3.86,4.216 4.016,4.737 4.11,5.053 4.312,5.23 4.477,5.496 4.731,5.904 4.855,6.331 4.949,6.776 4.701,6.542 4.302,6.361 4.075,6.23 3.36,5.821 3.008,6.071 2.701,6.823 2.494,7.331 2.174,8.051 2.073,8.615 1.976,9.156 2.568,9.755 2.432,10.159 2.35,10.403 2.104,10.448 1.951,10.586 1.666,10.843 1.374,11.145 1.188,11.475 0.711,12.32 0.569,13.119 -0.186,13.78 c -0.042,-0.01 -0.087,-0.01 -0.131,0.007 -0.633,0.25 -1.302,-0.094 -1.917,0.135 -0.059,0.022 -0.104,0.047 -0.141,0.074 -0.239,-0.056 -0.525,0.032 -0.787,0.147 -0.447,-0.092 -0.916,-0.049 -1.101,0.371 -0.156,0.048 -0.311,0.12 -0.462,0.229 -0.688,0.491 -1.031,1.597 -1.046,2.402 -0.015,0.772 0.092,1.514 -0.689,1.947 -0.113,0.063 -0.233,0.106 -0.358,0.133 -0.502,-0.028 -1.015,-0.213 -1.52,-0.233 -0.647,-0.025 -1.124,-0.352 -1.728,-0.468 -0.192,-0.037 -0.383,-0.017 -0.577,-0.006 -0.137,0.009 -0.252,0.004 -0.359,-0.009 -0.049,-0.008 -0.099,-0.017 -0.15,-0.025 -0.185,-0.042 -0.357,-0.113 -0.587,-0.211 -0.295,-0.125 -0.543,-0.148 -0.836,-0.109 -0.113,-0.039 -0.223,-0.081 -0.327,-0.13 -0.392,-0.186 -0.789,-0.321 -1.19,-0.454 -0.517,-0.171 -0.989,-0.68 -0.932,-1.284 0.077,-0.812 0.998,-0.905 1.647,-0.917 0.627,-0.012 1.148,0.172 1.669,-0.247 0.29,-0.233 0.981,-0.854 1.072,-1.217 0.158,-0.638 -0.687,-1.132 -1.191,-1.211 -0.39,-0.061 -1.231,0.067 -0.939,0.687 -0.157,-0.158 -0.176,-0.477 -0.128,-0.765 0.086,-0.511 0.41,-0.574 0.896,-0.567 1.087,0.016 2.73,1.237 1.766,2.384 -0.839,1 -1.811,1.835 -3.237,1.888 -0.112,0.492 0.26,0.911 0.752,0.909 0.198,0 0.368,-0.099 0.56,-0.094 0.254,0.006 0.511,0.174 0.734,0.248 1.163,0.387 2.264,0.523 3.457,0.693 0.646,0.091 0.771,0.053 1.091,-0.468 0.21,-0.343 0.369,-0.833 0.369,-1.245 0.002,-0.587 -0.108,-0.986 0.119,-1.581 0.234,-0.616 0.671,-0.441 1.05,-0.783 0.264,-0.238 0.194,-0.856 0.419,-1.135 0.205,-0.254 0.666,-0.395 0.982,-0.454 0.513,-0.097 1.541,-0.116 1.893,0.351 -0.085,-0.446 0.52,-0.458 0.767,-0.521 C -0.86,12.145 -0.41,11.93 -0.112,11.582 0.28,11.124 0.225,10.572 0.841,10.264 0.678,9.84 0.502,8.939 0.635,8.492 0.778,8.012 0.991,8.341 0.684,7.865 0.505,7.589 0.337,7.452 0.248,7.124 0.044,6.373 0.205,5.603 0.868,5.276 0.155,5.568 0.021,6.026 -0.241,6.859 c -0.087,0.277 -0.2,0.577 -0.22,0.858 -0.019,0.272 0.069,0.476 -0.068,0.754 -0.486,0.986 -2.304,0.913 -3.187,1.341 -0.368,0.179 -0.383,0.487 -0.613,0.856 -0.307,0.491 -0.691,0.857 -1.252,1.07 -0.561,0.213 -1.092,0.292 -1.568,-0.089 -0.214,-0.17 -0.213,-0.411 -0.568,-0.419 -0.976,-0.019 -0.86,1.4 -0.341,1.353 -0.17,0.069 -0.314,0.21 -0.548,0.104 -0.354,-0.162 -0.447,-0.745 -0.384,-1.068 0.186,-0.967 0.942,-0.549 1.455,-1.129 0.541,0.449 0.518,1.041 1.228,0.541 0.103,0.342 0.892,0.13 1.137,-0.016 0.765,-0.454 0.043,-0.922 0.287,-1.504 0.104,-0.246 0.49,-0.408 0.733,-0.458 0.301,-0.062 0.447,0.082 0.682,0.093 0.588,0.028 0.923,-0.948 1.465,-0.749 0.002,-0.512 0.247,-0.995 0.402,-1.471 0.153,-0.467 0.038,-0.7 0.003,-1.172 C -1.629,5.323 -1.596,4.867 -1.266,4.534 -1.1,4.367 -0.868,4.32 -0.692,4.176 -1.022,4.219 -1.408,4.032 -1.684,3.874 -2.426,3.448 -2.982,2.963 -3.919,3.128 c -0.606,0.107 -1.283,0.437 -1.082,1.087 0.117,0.379 0.443,0.745 0.847,0.677 -0.126,-1.649 0.777,-0.03 1.471,-0.198 0.427,0.513 0.414,1.048 -0.027,1.521 -0.293,0.314 -0.537,0.445 -0.422,0.918 0.044,0.18 0.094,0.316 0.204,0.404 C -3.169,7.515 -3.405,7.596 -3.539,7.145 -3.75,6.433 -3.119,6.416 -2.895,5.915 -2.71,5.5 -3.096,4.967 -3.552,5.007 -4.026,5.048 -3.818,5.679 -4.367,5.571 -5.394,5.37 -6.037,3.509 -5.276,2.831 -4.638,2.263 -3.938,2.041 -3.127,2.208 -2.688,2.299 -1.255,2.98 -1.122,2.061 -1.309,2.099 -1.503,2.215 -1.701,2.187 -2.021,2.142 -2.516,1.674 -2.769,1.501 -3.556,0.965 -4.983,0.082 -5.567,1.329 c -0.43,0.917 -1.267,2.021 -1.017,3.034 0.247,1.001 0.541,2.016 0.351,3.064 -0.061,0.338 -0.213,0.999 -0.66,1.052 -0.444,0.052 -0.958,-0.333 -1.485,-0.265 -1.378,0.179 -0.5,1.743 -1.905,1.786 -1.17,0.035 -2.223,-0.418 -3.068,0.611 -0.532,0.648 -0.917,1.652 -1.833,1.856 0,0 -0.197,0.802 -0.197,0.871 0,0.198 0.073,0.398 0.184,0.577 -0.113,0.363 -0.399,0.613 -0.798,0.28 -0.336,-0.281 -0.702,-0.686 -0.857,-1.101 -0.024,-0.065 -0.067,-0.101 -0.116,-0.114 -0.051,-0.263 -0.05,-0.529 0.016,-0.774 0.049,-0.183 0.26,-0.331 0.272,-0.509 0.02,-0.271 -0.238,-0.303 -0.343,-0.534 -0.407,-0.897 0.678,-1.115 1.215,-1.33 -0.005,-0.024 -0.008,-0.05 -0.013,-0.076 0.395,-0.227 0.311,-0.798 0.216,-1.229 -0.114,-0.516 -0.186,-0.889 0.153,-1.356 0.181,-0.25 0.443,-0.416 0.667,-0.623 0.198,-0.182 0.36,-0.545 0.379,-0.861 0.019,-0.322 -0.37,-0.48 -0.496,-0.493 -1.07,-0.102 -1.715,1.371 -0.681,1.186 -1.427,1.062 -1.355,-2.232 0.987,-1.728 0.493,0.109 0.7,0.495 0.766,0.546 0.067,0.11 -0.163,0.6 -0.152,0.737 0.048,0.568 -0.551,1.052 -0.745,1.523 -0.163,0.394 -0.072,0.636 0.036,1.052 0.135,0.524 0.131,0.904 -0.134,1.389 -0.107,0.196 -0.235,0.325 -0.378,0.466 -0.066,0.065 -0.288,0.069 -0.331,0.13 -0.136,0.191 0.004,0.505 0.068,0.761 0.262,-0.546 0.672,-1.13 0.981,-1.197 0.397,-0.086 0.233,0.289 0.608,-0.11 0.188,-0.201 0.269,-0.409 0.511,-0.565 0.359,-0.232 0.927,-0.403 1.329,-0.531 0.207,-0.065 0.466,-0.175 0.682,-0.149 0.212,0.025 0.346,0.236 0.594,0.246 0.322,-0.497 0.22,-1.121 0.81,-1.496 0.28,-0.179 0.632,-0.174 0.948,-0.199 C -8.52,7.218 -7.797,7.261 -7.507,6.804 -7.327,6.52 -7.434,6.097 -7.436,5.796 -7.44,5.265 -7.332,4.798 -7.281,4.286 -7.219,3.666 -7.216,3.073 -7.06,2.464 -6.945,2.015 -7.074,1.7 -7.036,1.271 -6.989,0.751 -6.286,0.34 -5.849,0.124 -6.49,0.034 -7.7,-0.606 -8.238,0.139 -8.39,0.35 -8.289,0.699 -8.264,0.932 c 0.063,0.597 0.088,1.147 -0.019,1.741 -0.159,0.89 -0.334,2.163 -1.179,2.687 -0.361,0.224 -0.985,0.568 -1.418,0.478 -0.8,-0.166 -1.326,-1.07 -1.673,-1.699 -0.257,-0.468 -0.065,-0.864 0.007,-1.351 0.075,-0.51 -0.034,-1.052 0.169,-1.537 0.273,-0.655 1.248,-1.194 1.932,-0.718 0.515,0.359 0.619,1.267 0.029,1.606 -0.339,0.194 -0.675,0.057 -0.556,-0.397 -0.005,0.044 0.015,0.153 0.019,0.211 0.62,0.112 0.52,-0.645 0.074,-0.816 -0.646,-0.248 -0.755,0.744 -0.724,1.166 0.004,0.053 0.012,0.11 0.022,0.167 -0.019,0.037 -0.026,0.083 -0.01,0.138 0.075,0.26 0.05,0.482 -0.151,0.675 -0.118,0.113 -0.07,0.381 0.125,0.369 0.356,-0.021 0.653,0.406 0.944,0.564 0.362,0.197 0.648,0.044 0.822,-0.296 0.107,-0.071 0.195,-0.171 0.249,-0.308 0.005,-0.012 0.007,-0.024 0.011,-0.035 0.247,-0.232 0.405,-0.58 0.438,-0.936 0.051,-0.563 0.202,-1.196 0.187,-1.753 -0.014,-0.508 -0.247,-0.983 -0.37,-1.464 -0.121,-0.475 -0.125,-1.118 0.481,-1.274 0.306,-0.079 0.627,0 0.959,-0.095 0.277,-0.079 0.57,-0.25 0.857,-0.281 0.25,-0.027 0.803,-0.021 0.977,0.215 0.165,0.083 0.383,0.089 0.563,0.166 0.218,0.092 0.33,0.217 0.568,0.229 0.289,0.016 0.617,-0.224 0.904,-0.123 0.223,0.08 0.544,0.402 0.784,0.517 0.233,0.112 0.471,0.263 0.748,0.299 0.203,0.026 0.477,-0.085 0.685,0.014 0.244,0.118 0.361,0.392 0.633,0.505 0.211,0.088 0.488,0.115 0.74,0.101 C -0.306,-0.188 -0.156,-0.093 0,0"
             style="fill:#231f20;fill-opacity:1;fill-rule:nonzero;stroke:none"
             id="path16305" />
        </g>
        <g
           id="g16307"
           transform="translate(76.5867,432.29)">
          <path
             d="M 0,0 C 0.097,0.217 0.231,0.414 0.332,0.632 0.575,1.16 0.691,1.747 0.798,2.319 0.994,3.37 0.557,4.172 -0.028,5.03 -0.673,5.975 -0.963,6.958 -1.223,8.052 -1.311,8.421 -1.363,8.667 -1.677,8.877 -1.818,8.973 -2.073,9.164 -2.237,9.202 -2.366,9.231 -2.526,9.147 -2.657,9.15 -2.826,9.154 -2.982,9.197 -3.15,9.181 -3.56,9.144 -3.478,8.928 -3.514,8.571 -3.649,7.245 -6.126,8.16 -5.346,9.101 -5.19,9.289 -4.654,9.411 -4.615,9.048 -4.587,8.794 -5.043,8.607 -5.017,8.917 -5.046,8.737 -4.908,8.638 -4.725,8.606 -4.396,8.548 -4.236,9.232 -4.3,9.407 -4.446,9.806 -5.065,9.81 -5.407,9.423 -5.499,9.319 -5.533,9.278 -5.642,9.187 -5.825,9.033 -5.906,9.03 -5.931,8.806 c -0.03,-0.258 0.26,-0.868 0.425,-1.05 0.244,-0.267 0.963,-0.568 1.356,-0.452 0.166,0.049 0.332,0.252 0.46,0.347 0.173,0.127 0.372,0.187 0.514,0.354 0.102,0.12 0.116,0.348 0.228,0.452 C -2.731,8.656 -2.03,8.401 -1.93,8.124 -1.851,7.904 -2.059,7.772 -1.915,7.526 -1.763,7.268 -1.65,7.178 -1.598,6.859 -1.51,6.321 -1.292,5.825 -1.074,5.308 -1.019,5.177 -0.939,5.067 -0.942,4.925 -0.946,4.763 -1.144,4.601 -1.125,4.435 -1.112,4.323 -0.962,4.197 -0.905,4.099 -0.795,3.91 -0.704,3.67 -0.662,3.46 -0.56,2.953 -0.909,2.455 -0.931,1.981"
             style="fill:#231f20;fill-opacity:1;fill-rule:nonzero;stroke:none"
             id="path16309" />
        </g>
      </g>
    </g>
  </g>
</svg>
