<svg width="19" height="24" viewBox="0 0 19 24" fill="#000000" xmlns="http://www.w3.org/2000/svg">
  <path d="M13.0907 8.9467C13.0982 8.94295 13.1057 8.93919 13.1144 8.93544C13.2046 8.89663 13.296 8.88286 13.3936 8.86533C13.4011 8.86283 13.4086 8.86157 13.4161 8.86032L13.0907 8.9467ZM16.3956 8.92167C16.3468 8.88161 16.2892 8.85156 16.2391 8.8115C16.1828 8.76643 16.1402 8.70634 16.0851 8.66002C16.0288 8.6112 15.9525 8.58491 15.8861 8.55111C15.7897 8.50229 15.6921 8.4472 15.5882 8.41716C15.5043 8.39337 15.4116 8.38711 15.3253 8.37334C15.2151 8.35456 15.1062 8.32702 14.9935 8.32702C14.7644 8.32577 14.5391 8.26693 14.31 8.27069C14.1109 8.27319 13.9094 8.29447 13.7091 8.30324C13.4725 8.3145 13.2509 8.28321 13.013 8.32577C12.8203 8.36082 12.675 8.40213 12.506 8.50729C12.4334 8.55236 12.3533 8.59117 12.2857 8.6425C12.1893 8.71636 12.1142 8.81901 12.0278 8.90414C11.9477 8.98176 11.8563 9.04059 11.7724 9.1132C11.676 9.19833 11.5947 9.30224 11.5083 9.39738C11.4457 9.46874 11.3631 9.53383 11.3055 9.61145C11.2967 9.59768 11.2905 9.63273 11.2579 9.66403C11.2304 9.69157 11.1978 9.68781 11.1728 9.70784C11.134 9.73789 11.1678 9.79422 11.2028 9.82552C11.2441 9.86183 11.3243 9.91315 11.3706 9.93944C11.4156 9.96448 11.4407 9.97199 11.4845 10.0146C11.5083 10.0371 11.5559 10.1034 11.5871 10.121C11.6247 10.1422 11.646 10.1272 11.6823 10.136C11.7274 10.1473 11.7724 10.1923 11.8162 10.2124C11.9352 10.2674 12.0604 10.3213 12.1931 10.3087C12.2782 10.3025 12.3771 10.31 12.4585 10.2812C12.5098 10.2624 12.5411 10.2199 12.5887 10.1973C12.7176 10.1347 12.8929 10.2487 13.0306 10.2474C13.2121 10.2449 13.3936 10.2537 13.5739 10.2474C13.6352 10.2462 13.6703 10.2236 13.7266 10.2149C13.7679 10.2073 13.8105 10.2199 13.8518 10.2136C13.9219 10.2011 13.9983 10.1648 14.0671 10.1397C14.1497 10.1097 14.1961 10.0809 14.2812 10.0596C14.3551 10.0421 14.4151 10.0321 14.494 10.0321C14.683 10.0333 14.8721 10.0321 15.0611 10.0321C15.2001 10.0321 15.4016 10.0671 15.463 9.92567C15.4943 9.85557 15.5256 9.78671 15.5681 9.72036C15.6007 9.66653 15.6507 9.59518 15.6933 9.55136C15.7534 9.48877 15.836 9.48751 15.8874 9.4124C15.9324 9.34605 15.9575 9.27094 16.0438 9.24715C16.1027 9.23213 16.1615 9.25967 16.2216 9.25216C16.2567 9.24715 16.2842 9.23338 16.3142 9.2146C16.3556 9.19082 16.5158 9.10319 16.5183 9.05186C16.5208 8.99553 16.4319 8.95171 16.3956 8.92167Z"/>
  <path d="M11.2579 15.2975C11.2529 15.1698 11.2391 15.0346 11.1665 14.9269C11.0889 14.8105 10.9524 14.7329 10.8297 14.6741C10.7822 14.6503 10.7358 14.6277 10.682 14.6528C10.6307 14.6791 10.6282 14.7292 10.5894 14.7667C10.5543 14.8018 10.503 14.8155 10.4642 14.8431C10.4266 14.8706 10.3991 14.9069 10.3578 14.9295C10.2777 14.972 10.17 14.967 10.0849 15.0058C9.97596 15.0546 9.90836 15.1135 9.78067 15.1172C9.7068 15.1197 9.63169 15.1172 9.55908 15.116C9.37631 15.111 9.14346 15.0872 8.99198 14.972C8.77165 14.8043 8.54631 14.4725 8.24211 14.5051C8.16073 14.5138 8.04806 14.5689 7.96669 14.5489C7.93289 14.5414 7.92037 14.5351 7.9066 14.5026C7.85152 14.3774 8.02553 14.1608 8.05933 14.0444C8.10315 13.8879 8.16199 13.7539 8.22708 13.6062C8.31847 13.3959 8.42363 13.2131 8.54882 13.0191C8.69403 12.7925 8.79168 12.5559 8.9056 12.3118C9.01451 12.0752 9.11341 11.8511 9.18477 11.5995C9.28868 11.2327 9.35002 10.8608 9.39634 10.4815C9.45142 10.0283 9.52403 9.57767 9.6029 9.12825C9.63795 8.9317 9.64671 8.7314 9.67926 8.5336C9.68427 8.50231 9.68427 8.41342 9.7068 8.39089C9.72433 8.37336 9.76189 8.38463 9.78317 8.36961C9.80195 8.35459 9.79444 8.34081 9.8057 8.32078C9.84952 8.24567 9.85077 8.10171 9.8708 8.01533C9.91962 7.80626 9.97721 7.5997 10.0511 7.39815C10.155 7.11523 10.2376 6.82103 10.2827 6.52309C10.3265 6.23516 10.4079 5.95223 10.4467 5.66555C10.4504 5.63926 10.4867 5.37136 10.4166 5.37511C10.3603 5.37762 10.3991 5.42143 10.3753 5.44397C10.3302 5.48653 10.2676 5.51532 10.2201 5.55914C10.0586 5.70311 9.93339 5.84832 9.83324 6.04237C9.7694 6.1663 9.72057 6.29399 9.66174 6.42043C9.59914 6.55564 9.51026 6.69459 9.46394 6.8348C9.43765 6.91117 9.4389 6.98002 9.41136 7.05889C9.34626 7.24792 9.23735 7.42945 9.18477 7.62098C9.15473 7.72739 9.16975 7.82754 9.15973 7.93771C9.14346 8.12048 9.09464 8.29199 9.03079 8.46225C8.9732 8.61498 8.90435 8.76395 8.85678 8.92043C8.81547 9.05939 8.80921 9.20086 8.77415 9.33981C8.73535 9.49505 8.66149 9.63776 8.62393 9.79299C8.58762 9.94072 8.5701 10.0909 8.53254 10.2387C8.38858 10.787 8.19579 11.3103 7.9692 11.8285C7.80645 12.2004 7.65998 12.5859 7.56859 12.9815C7.54105 13.1017 7.54105 13.2269 7.51476 13.3471C7.50099 13.4072 7.47721 13.4648 7.44967 13.5211C7.29694 13.8265 7.1054 14.1032 7.00901 14.4362C6.94891 14.639 6.92763 14.823 6.8087 15.0046C6.7411 15.1072 6.66223 15.1873 6.56459 15.2612C6.44691 15.3513 6.32298 15.4452 6.22408 15.5566C6.09764 15.6981 6.07385 15.8947 5.96243 16.0424C5.85102 16.1913 5.69578 16.284 5.66324 16.4855C5.65322 16.5481 5.66699 16.5394 5.72583 16.5469C5.84851 16.5619 5.96744 16.5569 6.06884 16.4968C6.18151 16.428 6.26914 16.3603 6.35803 16.2589C6.43189 16.1751 6.52703 16.1563 6.61466 16.0912C6.69604 16.0286 6.77365 15.9748 6.87505 15.946C6.9727 15.9172 7.03154 15.8734 7.12167 15.827C7.22308 15.777 7.33825 15.7958 7.44716 15.7945C7.62869 15.792 7.8052 15.8759 7.98547 15.9034C8.13069 15.9259 8.26214 16.0261 8.38106 16.11C8.49499 16.1901 8.68152 16.3291 8.81296 16.3378C8.88808 16.3416 8.91186 16.279 8.98197 16.2577C9.03705 16.2427 9.10715 16.2502 9.16599 16.2339C9.28367 16.2001 9.38382 16.1363 9.49524 16.0887C9.59789 16.0449 9.69053 15.9735 9.79694 15.946C9.93465 15.9109 10.0686 15.9009 10.2088 15.9022C10.339 15.9022 10.4942 15.9209 10.6219 15.8947C10.6808 15.8821 10.7308 15.8471 10.7897 15.8346C10.8448 15.822 10.9023 15.827 10.9587 15.817C11.1565 15.7795 11.2641 15.5053 11.2591 15.3238C11.2591 15.315 11.2579 15.3063 11.2579 15.2975Z"/>
  <path d="M15.5042 1.04735C15.4642 1.00354 15.4179 0.93969 15.3615 1.00604C15.3202 0.97349 15.2889 0.930928 15.2514 0.894623C15.1988 0.843296 15.1387 0.824517 15.0798 0.783205C14.9835 0.714352 14.9271 0.646752 14.8119 0.611699C14.698 0.575395 14.5841 0.529075 14.4727 0.485259C14.3024 0.417658 14.1059 0.410146 13.9256 0.421413C13.8693 0.425169 13.8129 0.442695 13.7566 0.437688C13.7228 0.436436 13.6928 0.425168 13.6615 0.413901C13.5062 0.356315 13.356 0.286209 13.2008 0.231127C12.9629 0.145999 12.7338 0.0809023 12.4822 0.0771467C12.317 0.0733911 12.1517 0.0345834 11.9877 0.0195609C11.8575 0.00704209 11.7273 0.0133001 11.5971 0.0133001C11.373 0.0120483 11.1289 -0.0142398 10.9073 0.0107978C10.7671 0.0270722 10.5969 0.0496056 10.4692 0.107192C10.349 0.161023 10.2138 0.224869 10.0886 0.25867C9.98595 0.286211 9.89958 0.2787 9.80193 0.241143C9.52276 0.135986 9.2849 0.206091 9.00323 0.276196C8.8142 0.323767 8.62641 0.346301 8.43237 0.367583C8.05305 0.411399 7.66998 0.504036 7.29567 0.587912C6.96642 0.660521 6.64719 0.766932 6.31545 0.829526C6.02501 0.882105 5.7859 1.07364 5.49421 1.11621C5.37779 1.13248 5.28139 1.13123 5.17373 1.1813C5.03227 1.24515 4.91334 1.3453 4.77564 1.41541C4.65295 1.47925 4.52276 1.51681 4.40883 1.59818C4.27614 1.69207 4.14844 1.80849 4.02701 1.91365C3.70403 2.19407 3.39231 2.48952 3.09061 2.79498C2.96667 2.92141 2.84649 3.05912 2.68249 3.12797C2.53477 3.18932 2.46467 3.33453 2.38705 3.46723C2.12916 3.9104 1.87503 4.36733 1.54704 4.76168C1.23157 5.14225 0.96116 5.55286 0.759608 6.00855C0.689503 6.16629 0.629412 6.32527 0.581841 6.49177C0.535521 6.65076 0.450394 6.78597 0.400319 6.9412C0.332717 7.14275 0.36151 7.38061 0.336472 7.58967C0.32145 7.71861 0.270123 7.8438 0.266367 7.974C0.265115 8.0103 0.271375 8.04661 0.268871 8.08291C0.257604 8.2106 0.223804 8.33704 0.213789 8.46474C0.191255 8.73514 0.200018 9.00555 0.19501 9.27595C0.188751 9.64776 0.169973 10.0183 0.163714 10.3901C0.158706 10.6743 0.149942 10.9535 0.117393 11.2364C0.0535474 11.7972 -0.00904585 12.3606 0.000969179 12.9252C0.00597669 13.2457 0.0623113 13.5649 0.0986158 13.8829C0.133668 14.1971 0.182491 14.5013 0.253848 14.8093C0.399066 15.439 0.618146 16.0611 0.822202 16.6733C1.00873 17.2341 1.16522 17.8063 1.35926 18.3621C1.4882 18.7314 1.63467 19.0819 1.79366 19.4375C1.8525 19.5689 1.93011 19.6841 1.99772 19.8118C2.06031 19.9282 2.1179 20.0684 2.20928 20.1686C2.29566 20.2649 2.38455 20.3413 2.46216 20.4477C2.53352 20.5441 2.60738 20.6355 2.68375 20.7269C2.83647 20.9084 3.02551 21.0799 3.15821 21.2777C3.22706 21.3816 3.2859 21.458 3.38229 21.5356C3.47869 21.6145 3.56131 21.6958 3.64644 21.7847C3.76537 21.9062 3.92436 21.9587 4.04579 22.0702C4.24233 22.2479 4.44639 22.4307 4.67173 22.5697C4.74434 22.6147 4.81194 22.6698 4.89331 22.6948C4.9847 22.7224 5.07734 22.7224 5.15996 22.7775C5.11364 22.6786 5.03853 22.5972 4.98094 22.5058C4.87829 22.3418 4.80067 22.159 4.72306 21.9825C4.62165 21.7534 4.55906 21.5093 4.50773 21.2639C4.44764 20.9748 4.47393 20.6618 4.47644 20.3676C4.47894 20.0997 4.54404 19.8343 4.60914 19.5752C4.688 19.2534 4.79942 18.9279 4.95841 18.6363C5.07984 18.4122 5.21004 18.1968 5.30643 17.9602C5.38405 17.7712 5.44664 17.5809 5.54804 17.4031C5.70077 17.1352 5.82221 16.8536 5.97869 16.5869C6.1189 16.3478 6.23658 16.0974 6.38305 15.8608C6.4519 15.7507 6.56207 15.6543 6.6522 15.5591C6.72857 15.479 6.79366 15.3901 6.86377 15.305C6.87003 15.3088 6.87253 15.3125 6.87754 15.3163C6.89131 15.3075 6.90133 15.2962 6.91259 15.2837C7.32321 14.8593 7.67123 14.3498 7.97419 13.8428C8.06307 13.6938 8.13693 13.5449 8.19702 13.3821C8.23958 13.2707 8.31595 13.1342 8.34975 13.0166C8.36602 12.9627 8.36352 12.9127 8.3848 12.8588C8.41109 12.7875 8.41735 12.7361 8.4161 12.6623C8.41485 12.6097 8.43488 12.5183 8.39357 12.4783C8.32847 12.4157 8.31094 12.4983 8.2834 12.5484C8.25836 12.5972 8.22581 12.626 8.19452 12.6673C8.1532 12.7224 8.13818 12.79 8.11189 12.8551C8.07308 12.949 8.02676 13.0378 7.96793 13.1192C7.91785 13.1893 7.8828 13.2532 7.81019 13.3007C7.73382 13.3508 7.69752 13.4172 7.64244 13.4948C7.53853 13.64 7.42211 13.7765 7.31695 13.9204C6.98896 14.3711 6.66848 14.8606 6.18901 15.1598C5.94739 15.3113 5.68199 15.4214 5.44664 15.5804C5.37779 15.6267 5.31895 15.6843 5.25135 15.7331C5.07734 15.8596 4.84699 15.9234 4.64168 15.971C4.50523 16.0023 4.41509 16.0311 4.28991 16.0937C4.14344 16.1675 4.00448 16.2452 3.8555 16.3153C3.69276 16.3916 3.54253 16.4893 3.39982 16.5957C3.33848 16.642 3.3172 16.6808 3.27088 16.7346C3.23708 16.7735 3.18199 16.7885 3.14319 16.821C3.07183 16.8786 2.99672 16.9425 2.92911 17.0051C2.87904 17.0526 2.8515 17.1165 2.80518 17.1665C2.77764 17.1966 2.74509 17.2241 2.70252 17.2254C2.50848 17.2341 2.40958 16.8648 2.33698 16.7346C2.26687 16.6095 2.17423 16.4993 2.10538 16.3741C1.99521 16.1776 1.90508 15.946 1.84624 15.7281C1.7849 15.4928 1.78364 15.2462 1.73357 15.0083C1.61589 14.4587 1.44689 13.9229 1.37303 13.3646C1.33672 13.0929 1.33297 12.825 1.32921 12.5509C1.32546 12.2742 1.29917 11.9975 1.29541 11.7209C1.2879 11.2176 1.33547 10.7231 1.38429 10.2224C1.43687 9.68532 1.43187 9.14951 1.5558 8.62122C1.61089 8.38461 1.66472 8.14801 1.72105 7.9114C1.79616 7.59468 1.89756 7.30299 2.0215 7.00254C2.16422 6.65953 2.20803 6.24515 2.42085 5.93469C2.48595 5.83954 2.57358 5.76693 2.64619 5.67805C2.69626 5.61796 2.73758 5.55161 2.77388 5.48401C2.94539 5.15727 3.12315 4.84681 3.34849 4.55387C3.55881 4.28221 3.76537 4.00429 3.9832 3.73889C4.28365 3.37334 4.66547 3.09167 5.04854 2.81876C5.91359 2.19783 6.81745 1.59442 7.82146 1.22387C8.1482 1.10244 8.44865 0.957216 8.79667 0.909645C9.1134 0.865829 9.41885 0.829525 9.73808 0.830777C10.1237 0.833281 10.5092 0.835784 10.8948 0.830777C11.1277 0.827021 11.358 0.857068 11.5859 0.893372C11.7874 0.925921 11.9927 0.97975 12.198 0.974743C12.3257 0.970987 12.4459 0.932179 12.5698 0.908394C12.6525 0.893371 12.7351 0.885861 12.8177 0.884609C12.9729 0.883357 13.1157 0.917158 13.2659 0.949707C13.4875 0.997278 13.7166 1.02231 13.9256 1.11746C14.0283 1.16378 14.1259 1.22387 14.2261 1.27519C14.3037 1.31525 14.6192 1.44921 14.4164 1.5431C14.4226 1.5431 14.4289 1.5431 14.4351 1.54435C14.3888 1.56187 14.3225 1.57314 14.2874 1.58065C14.3212 1.57314 14.3713 1.56187 14.4126 1.5431C14.35 1.54435 14.315 1.5456 14.2536 1.58691C14.1009 1.68957 13.9544 1.79723 13.7967 1.89362C13.2509 2.22913 12.7726 2.62973 12.3232 3.08416C12.1242 3.28696 11.8988 3.46098 11.6948 3.65877C11.502 3.8453 11.3568 4.08566 11.214 4.311C11.1001 4.49002 11.0175 4.70284 10.8861 4.86934C10.861 4.90189 10.8372 4.92317 10.8022 4.94445C10.7271 4.98952 10.6682 5.01831 10.6119 5.09092C10.4642 5.28121 10.339 5.49277 10.2038 5.69308C10.0097 5.97976 9.73683 6.27144 9.62667 6.60695C9.53403 6.89112 9.43638 7.16403 9.37003 7.45822C9.33873 7.59343 9.30493 7.72613 9.26988 7.86133C9.24359 7.96023 9.24985 8.0729 9.21355 8.16804C9.30118 8.20935 9.4151 7.99904 9.45516 7.94771C9.67674 7.66854 9.86577 7.36934 10.0899 7.09268C10.1875 6.9725 10.2726 6.8448 10.3828 6.73714C10.4717 6.65076 10.5343 6.5769 10.5693 6.45547C10.6545 6.46298 10.682 6.3766 10.7383 6.33279C11.0839 6.05988 11.3493 5.68556 11.6772 5.38511C12.7801 4.37234 13.9118 3.39588 14.9559 2.32427C15.1437 2.13023 15.3565 1.92742 15.5718 1.76343C15.6332 1.71711 15.7671 1.65702 15.8084 1.58942C15.8585 1.50429 15.7909 1.46798 15.7509 1.39537C15.7095 1.31901 15.697 1.2439 15.6432 1.17504C15.6044 1.12372 15.5468 1.09367 15.5042 1.04735Z"/>
  <path d="M17.9254 13.968C17.963 13.8904 18.0143 13.8178 18.0431 13.7364C18.0706 13.6563 18.0756 13.5674 18.0969 13.4848C18.172 13.1944 18.2659 12.9077 18.3273 12.6135C18.3198 12.8601 18.326 13.108 18.326 13.3546C18.326 13.4134 18.326 13.4723 18.326 13.5311C18.326 13.5975 18.3448 13.6425 18.3536 13.6976C18.3849 13.8892 18.3611 14.1045 18.3611 14.2985C18.3623 14.5414 18.3536 14.7993 18.3072 15.0371C18.2709 15.2237 18.2497 15.3952 18.1908 15.5779C18.1645 15.6581 18.1608 15.7419 18.1395 15.8221C18.1094 15.9397 18.0393 16.0411 18.003 16.1576C17.9592 16.299 17.9454 16.4442 17.9066 16.5857C17.8678 16.7234 17.804 16.8824 17.7414 17.0113C17.6938 17.1077 17.6325 17.1703 17.5536 17.2392C17.3308 17.4332 17.2093 17.7149 16.9853 17.9102C16.7349 18.128 16.631 18.4535 16.3831 18.6688C16.1615 18.8616 15.9237 19.0331 15.6908 19.2096C15.5731 19.2985 15.458 19.3887 15.3453 19.4826C15.2264 19.5827 15.1187 19.7054 14.9923 19.7943C14.6931 20.0058 14.3275 20.1936 14.1322 20.5204C14.0559 20.6506 13.9532 20.767 13.8631 20.8884C13.7404 21.0537 13.6265 21.2264 13.4988 21.3879C13.4111 21.4993 13.311 21.602 13.2234 21.7147C13.132 21.8323 13.0744 21.965 12.9955 22.0902C12.9454 22.1703 12.8766 22.2167 12.8077 22.278C12.7088 22.3669 12.63 22.4846 12.5636 22.5997C12.4146 22.8601 12.2557 23.0792 11.9903 23.2307C11.8638 23.3033 11.7349 23.3659 11.621 23.4585C11.5095 23.5499 11.3831 23.6713 11.2416 23.7114C11.1853 23.7277 11.129 23.7227 11.0726 23.7227C10.9374 23.7239 10.8085 23.7702 10.6758 23.794C10.5243 23.8228 10.3728 23.8378 10.2226 23.8779C9.85205 23.9743 9.51529 24.0657 9.14599 23.9355C8.99326 23.8817 8.84804 23.8754 8.68905 23.9029C8.4875 23.938 8.29346 23.9255 8.09065 23.9192C7.86782 23.913 7.59366 23.8842 7.38209 23.8128C7.2519 23.769 7.13297 23.6889 7.01404 23.6213C6.96772 23.595 6.85881 23.5474 6.83878 23.4961C7.12921 23.431 7.43342 23.3897 7.73137 23.3534C8.18455 23.2995 8.63397 23.2094 9.08965 23.2031C9.40763 23.1994 9.6843 23.0279 9.96972 22.9089C10.2214 22.8025 10.4242 22.6185 10.6658 22.4946C10.955 22.3456 11.2091 22.2304 11.4545 22.0139C11.5671 21.915 11.666 21.8035 11.7787 21.7046C11.8438 21.6558 11.9051 21.6045 11.964 21.5494C12.0065 21.5056 12.0153 21.4981 11.9903 21.5269C12.312 21.1851 12.62 20.8233 12.9567 20.4978C13.0531 20.4064 13.1745 20.3539 13.2709 20.2637C13.3811 20.1611 13.4412 20.0171 13.5338 19.9019C13.6878 19.7091 13.8455 19.5226 13.9933 19.3236C14.1235 19.1483 14.2587 18.9743 14.4227 18.8291C14.678 18.6025 14.8821 18.3371 15.0824 18.0617C15.3065 17.7512 15.5493 17.4658 15.8085 17.1829C15.9975 16.975 16.2279 16.7885 16.3944 16.5632C16.5033 16.4155 16.6197 16.2853 16.7486 16.1513C16.9377 15.9573 17.118 15.7557 17.2895 15.5454C17.4009 15.4089 17.5373 15.2675 17.5899 15.096C17.64 14.9345 17.6462 14.7667 17.7013 14.604C17.7702 14.3999 17.8315 14.1834 17.9167 13.9856C17.9204 13.9805 17.9229 13.9743 17.9254 13.968Z"/>
  <path d="M11.6848 19.2722C11.6535 19.2534 11.6222 19.2359 11.5884 19.2234C11.502 19.1921 11.4344 19.157 11.353 19.1157C11.2817 19.0794 11.1828 19.0706 11.1051 19.0494C11.0563 19.0356 11.005 19.0318 10.9574 19.0131C10.9149 18.9968 10.8773 18.9655 10.836 18.9455C10.7221 18.8916 10.6081 18.8841 10.5093 18.799C10.4742 18.7689 10.4442 18.7276 10.3991 18.7114C10.3453 18.6913 10.2751 18.7026 10.2201 18.7038C10.17 18.7038 10.1312 18.7139 10.0836 18.7251C10.021 18.7414 9.95091 18.7339 9.88331 18.7364C9.77064 18.7402 9.65797 18.7514 9.54781 18.7752C9.38381 18.8103 9.25862 18.9492 9.09338 18.9655C9.007 18.9743 8.93689 18.9129 8.85802 18.8879C8.73534 18.8491 8.60139 18.8441 8.4762 18.8065C8.30469 18.7539 8.09688 18.7151 7.91911 18.7614C7.75762 18.8027 7.59112 18.7689 7.43338 18.7364C7.2769 18.7038 7.12292 18.6938 6.96268 18.6926C6.84375 18.6913 6.74736 18.7376 6.63343 18.7639C6.54455 18.784 6.51075 18.8265 6.43564 18.8729C6.3768 18.9104 6.3117 18.9242 6.24535 18.9417C6.08887 18.983 5.88982 19.0706 5.78842 19.2059C5.72707 19.2885 5.63944 19.4112 5.61941 19.5163C5.57059 19.773 5.83849 19.7116 5.99748 19.7479C6.21656 19.8005 6.45692 19.8656 6.68601 19.8756C6.86503 19.8831 7.02778 19.8731 7.20554 19.9019C7.27815 19.9132 7.34701 19.9031 7.41836 19.9082C7.49598 19.9132 7.57485 19.9395 7.65121 19.9545C7.76889 19.9795 7.87154 19.9758 7.99047 19.9795C8.08812 19.982 8.18076 20.0133 8.2784 20.0183C8.4762 20.0283 8.679 20.0171 8.8768 20.0171C9.06583 20.0171 9.26739 20.0371 9.45267 20.0008C9.66674 19.9582 9.86078 19.9044 10.0673 19.8368C10.2651 19.7717 10.4604 19.7266 10.6695 19.7304C10.8185 19.7329 10.9599 19.7667 11.1139 19.7667C11.477 19.7654 11.8425 19.7291 12.1955 19.654C12.1492 19.5777 12.039 19.5238 11.9627 19.4788C11.8625 19.4187 11.7849 19.3323 11.6848 19.2722Z"/>
  <path d="M13.0907 8.9467C13.0982 8.94295 13.1057 8.93919 13.1144 8.93544C13.2046 8.89663 13.296 8.88286 13.3936 8.86533C13.4011 8.86283 13.4086 8.86157 13.4161 8.86032L13.0907 8.9467ZM16.3956 8.92167C16.3468 8.88161 16.2892 8.85156 16.2391 8.8115C16.1828 8.76643 16.1402 8.70634 16.0851 8.66002C16.0288 8.6112 15.9525 8.58491 15.8861 8.55111C15.7897 8.50229 15.6921 8.4472 15.5882 8.41716C15.5043 8.39337 15.4116 8.38711 15.3253 8.37334C15.2151 8.35456 15.1062 8.32702 14.9935 8.32702C14.7644 8.32577 14.5391 8.26693 14.31 8.27069C14.1109 8.27319 13.9094 8.29447 13.7091 8.30324C13.4725 8.3145 13.2509 8.28321 13.013 8.32577C12.8203 8.36082 12.675 8.40213 12.506 8.50729C12.4334 8.55236 12.3533 8.59117 12.2857 8.6425C12.1893 8.71636 12.1142 8.81901 12.0278 8.90414C11.9477 8.98176 11.8563 9.04059 11.7724 9.1132C11.676 9.19833 11.5947 9.30224 11.5083 9.39738C11.4457 9.46874 11.3631 9.53383 11.3055 9.61145C11.2967 9.59768 11.2905 9.63273 11.2579 9.66403C11.2304 9.69157 11.1978 9.68781 11.1728 9.70784C11.134 9.73789 11.1678 9.79422 11.2028 9.82552C11.2441 9.86183 11.3243 9.91315 11.3706 9.93944C11.4156 9.96448 11.4407 9.97199 11.4845 10.0146C11.5083 10.0371 11.5559 10.1034 11.5871 10.121C11.6247 10.1422 11.646 10.1272 11.6823 10.136C11.7274 10.1473 11.7724 10.1923 11.8162 10.2124C11.9352 10.2674 12.0604 10.3213 12.1931 10.3087C12.2782 10.3025 12.3771 10.31 12.4585 10.2812C12.5098 10.2624 12.5411 10.2199 12.5887 10.1973C12.7176 10.1347 12.8929 10.2487 13.0306 10.2474C13.2121 10.2449 13.3936 10.2537 13.5739 10.2474C13.6352 10.2462 13.6703 10.2236 13.7266 10.2149C13.7679 10.2073 13.8105 10.2199 13.8518 10.2136C13.9219 10.2011 13.9983 10.1648 14.0671 10.1397C14.1497 10.1097 14.1961 10.0809 14.2812 10.0596C14.3551 10.0421 14.4151 10.0321 14.494 10.0321C14.683 10.0333 14.8721 10.0321 15.0611 10.0321C15.2001 10.0321 15.4016 10.0671 15.463 9.92567C15.4943 9.85557 15.5256 9.78671 15.5681 9.72036C15.6007 9.66653 15.6507 9.59518 15.6933 9.55136C15.7534 9.48877 15.836 9.48751 15.8874 9.4124C15.9324 9.34605 15.9575 9.27094 16.0438 9.24715C16.1027 9.23213 16.1615 9.25967 16.2216 9.25216C16.2567 9.24715 16.2842 9.23338 16.3142 9.2146C16.3556 9.19082 16.5158 9.10319 16.5183 9.05186C16.5208 8.99553 16.4319 8.95171 16.3956 8.92167Z"/>
  <path d="M11.2579 15.2975C11.2529 15.1698 11.2391 15.0346 11.1665 14.9269C11.0889 14.8105 10.9524 14.7329 10.8297 14.6741C10.7822 14.6503 10.7358 14.6277 10.682 14.6528C10.6307 14.6791 10.6282 14.7292 10.5894 14.7667C10.5543 14.8018 10.503 14.8155 10.4642 14.8431C10.4266 14.8706 10.3991 14.9069 10.3578 14.9295C10.2777 14.972 10.17 14.967 10.0849 15.0058C9.97596 15.0546 9.90836 15.1135 9.78067 15.1172C9.7068 15.1197 9.63169 15.1172 9.55908 15.116C9.37631 15.111 9.14346 15.0872 8.99198 14.972C8.77165 14.8043 8.54631 14.4725 8.24211 14.5051C8.16073 14.5138 8.04806 14.5689 7.96669 14.5489C7.93289 14.5414 7.92037 14.5351 7.9066 14.5026C7.85152 14.3774 8.02553 14.1608 8.05933 14.0444C8.10315 13.8879 8.16199 13.7539 8.22708 13.6062C8.31847 13.3959 8.42363 13.2131 8.54882 13.0191C8.69403 12.7925 8.79168 12.5559 8.9056 12.3118C9.01451 12.0752 9.11341 11.8511 9.18477 11.5995C9.28868 11.2327 9.35002 10.8608 9.39634 10.4815C9.45142 10.0283 9.52403 9.57767 9.6029 9.12825C9.63795 8.9317 9.64671 8.7314 9.67926 8.5336C9.68427 8.50231 9.68427 8.41342 9.7068 8.39089C9.72433 8.37336 9.76189 8.38463 9.78317 8.36961C9.80195 8.35459 9.79444 8.34081 9.8057 8.32078C9.84952 8.24567 9.85077 8.10171 9.8708 8.01533C9.91962 7.80626 9.97721 7.5997 10.0511 7.39815C10.155 7.11523 10.2376 6.82103 10.2827 6.52309C10.3265 6.23516 10.4079 5.95223 10.4467 5.66555C10.4504 5.63926 10.4867 5.37136 10.4166 5.37511C10.3603 5.37762 10.3991 5.42143 10.3753 5.44397C10.3302 5.48653 10.2676 5.51532 10.2201 5.55914C10.0586 5.70311 9.93339 5.84832 9.83324 6.04237C9.7694 6.1663 9.72057 6.29399 9.66174 6.42043C9.59914 6.55564 9.51026 6.69459 9.46394 6.8348C9.43765 6.91117 9.4389 6.98002 9.41136 7.05889C9.34626 7.24792 9.23735 7.42945 9.18477 7.62098C9.15473 7.72739 9.16975 7.82754 9.15973 7.93771C9.14346 8.12048 9.09464 8.29199 9.03079 8.46225C8.9732 8.61498 8.90435 8.76395 8.85678 8.92043C8.81547 9.05939 8.80921 9.20086 8.77415 9.33981C8.73535 9.49505 8.66149 9.63776 8.62393 9.79299C8.58762 9.94072 8.5701 10.0909 8.53254 10.2387C8.38858 10.787 8.19579 11.3103 7.9692 11.8285C7.80645 12.2004 7.65998 12.5859 7.56859 12.9815C7.54105 13.1017 7.54105 13.2269 7.51476 13.3471C7.50099 13.4072 7.47721 13.4648 7.44967 13.5211C7.29694 13.8265 7.1054 14.1032 7.00901 14.4362C6.94891 14.639 6.92763 14.823 6.8087 15.0046C6.7411 15.1072 6.66223 15.1873 6.56459 15.2612C6.44691 15.3513 6.32298 15.4452 6.22408 15.5566C6.09764 15.6981 6.07385 15.8947 5.96243 16.0424C5.85102 16.1913 5.69578 16.284 5.66324 16.4855C5.65322 16.5481 5.66699 16.5394 5.72583 16.5469C5.84851 16.5619 5.96744 16.5569 6.06884 16.4968C6.18151 16.428 6.26914 16.3603 6.35803 16.2589C6.43189 16.1751 6.52703 16.1563 6.61466 16.0912C6.69604 16.0286 6.77365 15.9748 6.87505 15.946C6.9727 15.9172 7.03154 15.8734 7.12167 15.827C7.22308 15.777 7.33825 15.7958 7.44716 15.7945C7.62869 15.792 7.8052 15.8759 7.98547 15.9034C8.13069 15.9259 8.26214 16.0261 8.38106 16.11C8.49499 16.1901 8.68152 16.3291 8.81296 16.3378C8.88808 16.3416 8.91186 16.279 8.98197 16.2577C9.03705 16.2427 9.10715 16.2502 9.16599 16.2339C9.28367 16.2001 9.38382 16.1363 9.49524 16.0887C9.59789 16.0449 9.69053 15.9735 9.79694 15.946C9.93465 15.9109 10.0686 15.9009 10.2088 15.9022C10.339 15.9022 10.4942 15.9209 10.6219 15.8947C10.6808 15.8821 10.7308 15.8471 10.7897 15.8346C10.8448 15.822 10.9023 15.827 10.9587 15.817C11.1565 15.7795 11.2641 15.5053 11.2591 15.3238C11.2591 15.315 11.2579 15.3063 11.2579 15.2975Z"/>
  <path d="M15.5042 1.04735C15.4642 1.00354 15.4179 0.93969 15.3615 1.00604C15.3202 0.97349 15.2889 0.930928 15.2514 0.894623C15.1988 0.843296 15.1387 0.824517 15.0798 0.783205C14.9835 0.714352 14.9271 0.646752 14.8119 0.611699C14.698 0.575395 14.5841 0.529075 14.4727 0.485259C14.3024 0.417658 14.1059 0.410146 13.9256 0.421413C13.8693 0.425169 13.8129 0.442695 13.7566 0.437688C13.7228 0.436436 13.6928 0.425168 13.6615 0.413901C13.5062 0.356315 13.356 0.286209 13.2008 0.231127C12.9629 0.145999 12.7338 0.0809023 12.4822 0.0771467C12.317 0.0733911 12.1517 0.0345834 11.9877 0.0195609C11.8575 0.00704209 11.7273 0.0133001 11.5971 0.0133001C11.373 0.0120483 11.1289 -0.0142398 10.9073 0.0107978C10.7671 0.0270722 10.5969 0.0496056 10.4692 0.107192C10.349 0.161023 10.2138 0.224869 10.0886 0.25867C9.98595 0.286211 9.89958 0.2787 9.80193 0.241143C9.52276 0.135986 9.2849 0.206091 9.00323 0.276196C8.8142 0.323767 8.62641 0.346301 8.43237 0.367583C8.05305 0.411399 7.66998 0.504036 7.29567 0.587912C6.96642 0.660521 6.64719 0.766932 6.31545 0.829526C6.02501 0.882105 5.7859 1.07364 5.49421 1.11621C5.37779 1.13248 5.28139 1.13123 5.17373 1.1813C5.03227 1.24515 4.91334 1.3453 4.77564 1.41541C4.65295 1.47925 4.52276 1.51681 4.40883 1.59818C4.27614 1.69207 4.14844 1.80849 4.02701 1.91365C3.70403 2.19407 3.39231 2.48952 3.09061 2.79498C2.96667 2.92141 2.84649 3.05912 2.68249 3.12797C2.53477 3.18932 2.46467 3.33453 2.38705 3.46723C2.12916 3.9104 1.87503 4.36733 1.54704 4.76168C1.23157 5.14225 0.96116 5.55286 0.759608 6.00855C0.689503 6.16629 0.629412 6.32527 0.581841 6.49177C0.535521 6.65076 0.450394 6.78597 0.400319 6.9412C0.332717 7.14275 0.36151 7.38061 0.336472 7.58967C0.32145 7.71861 0.270123 7.8438 0.266367 7.974C0.265115 8.0103 0.271375 8.04661 0.268871 8.08291C0.257604 8.2106 0.223804 8.33704 0.213789 8.46474C0.191255 8.73514 0.200018 9.00555 0.19501 9.27595C0.188751 9.64776 0.169973 10.0183 0.163714 10.3901C0.158706 10.6743 0.149942 10.9535 0.117393 11.2364C0.0535474 11.7972 -0.00904585 12.3606 0.000969179 12.9252C0.00597669 13.2457 0.0623113 13.5649 0.0986158 13.8829C0.133668 14.1971 0.182491 14.5013 0.253848 14.8093C0.399066 15.439 0.618146 16.0611 0.822202 16.6733C1.00873 17.2341 1.16522 17.8063 1.35926 18.3621C1.4882 18.7314 1.63467 19.0819 1.79366 19.4375C1.8525 19.5689 1.93011 19.6841 1.99772 19.8118C2.06031 19.9282 2.1179 20.0684 2.20928 20.1686C2.29566 20.2649 2.38455 20.3413 2.46216 20.4477C2.53352 20.5441 2.60738 20.6355 2.68375 20.7269C2.83647 20.9084 3.02551 21.0799 3.15821 21.2777C3.22706 21.3816 3.2859 21.458 3.38229 21.5356C3.47869 21.6145 3.56131 21.6958 3.64644 21.7847C3.76537 21.9062 3.92436 21.9587 4.04579 22.0702C4.24233 22.2479 4.44639 22.4307 4.67173 22.5697C4.74434 22.6147 4.81194 22.6698 4.89331 22.6948C4.9847 22.7224 5.07734 22.7224 5.15996 22.7775C5.11364 22.6786 5.03853 22.5972 4.98094 22.5058C4.87829 22.3418 4.80067 22.159 4.72306 21.9825C4.62165 21.7534 4.55906 21.5093 4.50773 21.2639C4.44764 20.9748 4.47393 20.6618 4.47644 20.3676C4.47894 20.0997 4.54404 19.8343 4.60914 19.5752C4.688 19.2534 4.79942 18.9279 4.95841 18.6363C5.07984 18.4122 5.21004 18.1968 5.30643 17.9602C5.38405 17.7712 5.44664 17.5809 5.54804 17.4031C5.70077 17.1352 5.82221 16.8536 5.97869 16.5869C6.1189 16.3478 6.23658 16.0974 6.38305 15.8608C6.4519 15.7507 6.56207 15.6543 6.6522 15.5591C6.72857 15.479 6.79366 15.3901 6.86377 15.305C6.87003 15.3088 6.87253 15.3125 6.87754 15.3163C6.89131 15.3075 6.90133 15.2962 6.91259 15.2837C7.32321 14.8593 7.67123 14.3498 7.97419 13.8428C8.06307 13.6938 8.13693 13.5449 8.19702 13.3821C8.23958 13.2707 8.31595 13.1342 8.34975 13.0166C8.36602 12.9627 8.36352 12.9127 8.3848 12.8588C8.41109 12.7875 8.41735 12.7361 8.4161 12.6623C8.41485 12.6097 8.43488 12.5183 8.39357 12.4783C8.32847 12.4157 8.31094 12.4983 8.2834 12.5484C8.25836 12.5972 8.22581 12.626 8.19452 12.6673C8.1532 12.7224 8.13818 12.79 8.11189 12.8551C8.07308 12.949 8.02676 13.0378 7.96793 13.1192C7.91785 13.1893 7.8828 13.2532 7.81019 13.3007C7.73382 13.3508 7.69752 13.4172 7.64244 13.4948C7.53853 13.64 7.42211 13.7765 7.31695 13.9204C6.98896 14.3711 6.66848 14.8606 6.18901 15.1598C5.94739 15.3113 5.68199 15.4214 5.44664 15.5804C5.37779 15.6267 5.31895 15.6843 5.25135 15.7331C5.07734 15.8596 4.84699 15.9234 4.64168 15.971C4.50523 16.0023 4.41509 16.0311 4.28991 16.0937C4.14344 16.1675 4.00448 16.2452 3.8555 16.3153C3.69276 16.3916 3.54253 16.4893 3.39982 16.5957C3.33848 16.642 3.3172 16.6808 3.27088 16.7346C3.23708 16.7735 3.18199 16.7885 3.14319 16.821C3.07183 16.8786 2.99672 16.9425 2.92911 17.0051C2.87904 17.0526 2.8515 17.1165 2.80518 17.1665C2.77764 17.1966 2.74509 17.2241 2.70252 17.2254C2.50848 17.2341 2.40958 16.8648 2.33698 16.7346C2.26687 16.6095 2.17423 16.4993 2.10538 16.3741C1.99521 16.1776 1.90508 15.946 1.84624 15.7281C1.7849 15.4928 1.78364 15.2462 1.73357 15.0083C1.61589 14.4587 1.44689 13.9229 1.37303 13.3646C1.33672 13.0929 1.33297 12.825 1.32921 12.5509C1.32546 12.2742 1.29917 11.9975 1.29541 11.7209C1.2879 11.2176 1.33547 10.7231 1.38429 10.2224C1.43687 9.68532 1.43187 9.14951 1.5558 8.62122C1.61089 8.38461 1.66472 8.14801 1.72105 7.9114C1.79616 7.59468 1.89756 7.30299 2.0215 7.00254C2.16422 6.65953 2.20803 6.24515 2.42085 5.93469C2.48595 5.83954 2.57358 5.76693 2.64619 5.67805C2.69626 5.61796 2.73758 5.55161 2.77388 5.48401C2.94539 5.15727 3.12315 4.84681 3.34849 4.55387C3.55881 4.28221 3.76537 4.00429 3.9832 3.73889C4.28365 3.37334 4.66547 3.09167 5.04854 2.81876C5.91359 2.19783 6.81745 1.59442 7.82146 1.22387C8.1482 1.10244 8.44865 0.957216 8.79667 0.909645C9.1134 0.865829 9.41885 0.829525 9.73808 0.830777C10.1237 0.833281 10.5092 0.835784 10.8948 0.830777C11.1277 0.827021 11.358 0.857068 11.5859 0.893372C11.7874 0.925921 11.9927 0.97975 12.198 0.974743C12.3257 0.970987 12.4459 0.932179 12.5698 0.908394C12.6525 0.893371 12.7351 0.885861 12.8177 0.884609C12.9729 0.883357 13.1157 0.917158 13.2659 0.949707C13.4875 0.997278 13.7166 1.02231 13.9256 1.11746C14.0283 1.16378 14.1259 1.22387 14.2261 1.27519C14.3037 1.31525 14.6192 1.44921 14.4164 1.5431C14.4226 1.5431 14.4289 1.5431 14.4351 1.54435C14.3888 1.56187 14.3225 1.57314 14.2874 1.58065C14.3212 1.57314 14.3713 1.56187 14.4126 1.5431C14.35 1.54435 14.315 1.5456 14.2536 1.58691C14.1009 1.68957 13.9544 1.79723 13.7967 1.89362C13.2509 2.22913 12.7726 2.62973 12.3232 3.08416C12.1242 3.28696 11.8988 3.46098 11.6948 3.65877C11.502 3.8453 11.3568 4.08566 11.214 4.311C11.1001 4.49002 11.0175 4.70284 10.8861 4.86934C10.861 4.90189 10.8372 4.92317 10.8022 4.94445C10.7271 4.98952 10.6682 5.01831 10.6119 5.09092C10.4642 5.28121 10.339 5.49277 10.2038 5.69308C10.0097 5.97976 9.73683 6.27144 9.62667 6.60695C9.53403 6.89112 9.43638 7.16403 9.37003 7.45822C9.33873 7.59343 9.30493 7.72613 9.26988 7.86133C9.24359 7.96023 9.24985 8.0729 9.21355 8.16804C9.30118 8.20935 9.4151 7.99904 9.45516 7.94771C9.67674 7.66854 9.86577 7.36934 10.0899 7.09268C10.1875 6.9725 10.2726 6.8448 10.3828 6.73714C10.4717 6.65076 10.5343 6.5769 10.5693 6.45547C10.6545 6.46298 10.682 6.3766 10.7383 6.33279C11.0839 6.05988 11.3493 5.68556 11.6772 5.38511C12.7801 4.37234 13.9118 3.39588 14.9559 2.32427C15.1437 2.13023 15.3565 1.92742 15.5718 1.76343C15.6332 1.71711 15.7671 1.65702 15.8084 1.58942C15.8585 1.50429 15.7909 1.46798 15.7509 1.39537C15.7095 1.31901 15.697 1.2439 15.6432 1.17504C15.6044 1.12372 15.5468 1.09367 15.5042 1.04735Z"/>
  <path d="M17.9254 13.968C17.963 13.8904 18.0143 13.8178 18.0431 13.7364C18.0706 13.6563 18.0756 13.5674 18.0969 13.4848C18.172 13.1944 18.2659 12.9077 18.3273 12.6135C18.3198 12.8601 18.326 13.108 18.326 13.3546C18.326 13.4134 18.326 13.4723 18.326 13.5311C18.326 13.5975 18.3448 13.6425 18.3536 13.6976C18.3849 13.8892 18.3611 14.1045 18.3611 14.2985C18.3623 14.5414 18.3536 14.7993 18.3072 15.0371C18.2709 15.2237 18.2497 15.3952 18.1908 15.5779C18.1645 15.6581 18.1608 15.7419 18.1395 15.8221C18.1094 15.9397 18.0393 16.0411 18.003 16.1576C17.9592 16.299 17.9454 16.4442 17.9066 16.5857C17.8678 16.7234 17.804 16.8824 17.7414 17.0113C17.6938 17.1077 17.6325 17.1703 17.5536 17.2392C17.3308 17.4332 17.2093 17.7149 16.9853 17.9102C16.7349 18.128 16.631 18.4535 16.3831 18.6688C16.1615 18.8616 15.9237 19.0331 15.6908 19.2096C15.5731 19.2985 15.458 19.3887 15.3453 19.4826C15.2264 19.5827 15.1187 19.7054 14.9923 19.7943C14.6931 20.0058 14.3275 20.1936 14.1322 20.5204C14.0559 20.6506 13.9532 20.767 13.8631 20.8884C13.7404 21.0537 13.6265 21.2264 13.4988 21.3879C13.4111 21.4993 13.311 21.602 13.2234 21.7147C13.132 21.8323 13.0744 21.965 12.9955 22.0902C12.9454 22.1703 12.8766 22.2167 12.8077 22.278C12.7088 22.3669 12.63 22.4846 12.5636 22.5997C12.4146 22.8601 12.2557 23.0792 11.9903 23.2307C11.8638 23.3033 11.7349 23.3659 11.621 23.4585C11.5095 23.5499 11.3831 23.6713 11.2416 23.7114C11.1853 23.7277 11.129 23.7227 11.0726 23.7227C10.9374 23.7239 10.8085 23.7702 10.6758 23.794C10.5243 23.8228 10.3728 23.8378 10.2226 23.8779C9.85205 23.9743 9.51529 24.0657 9.14599 23.9355C8.99326 23.8817 8.84804 23.8754 8.68905 23.9029C8.4875 23.938 8.29346 23.9255 8.09065 23.9192C7.86782 23.913 7.59366 23.8842 7.38209 23.8128C7.2519 23.769 7.13297 23.6889 7.01404 23.6213C6.96772 23.595 6.85881 23.5474 6.83878 23.4961C7.12921 23.431 7.43342 23.3897 7.73137 23.3534C8.18455 23.2995 8.63397 23.2094 9.08965 23.2031C9.40763 23.1994 9.6843 23.0279 9.96972 22.9089C10.2214 22.8025 10.4242 22.6185 10.6658 22.4946C10.955 22.3456 11.2091 22.2304 11.4545 22.0139C11.5671 21.915 11.666 21.8035 11.7787 21.7046C11.8438 21.6558 11.9051 21.6045 11.964 21.5494C12.0065 21.5056 12.0153 21.4981 11.9903 21.5269C12.312 21.1851 12.62 20.8233 12.9567 20.4978C13.0531 20.4064 13.1745 20.3539 13.2709 20.2637C13.3811 20.1611 13.4412 20.0171 13.5338 19.9019C13.6878 19.7091 13.8455 19.5226 13.9933 19.3236C14.1235 19.1483 14.2587 18.9743 14.4227 18.8291C14.678 18.6025 14.8821 18.3371 15.0824 18.0617C15.3065 17.7512 15.5493 17.4658 15.8085 17.1829C15.9975 16.975 16.2279 16.7885 16.3944 16.5632C16.5033 16.4155 16.6197 16.2853 16.7486 16.1513C16.9377 15.9573 17.118 15.7557 17.2895 15.5454C17.4009 15.4089 17.5373 15.2675 17.5899 15.096C17.64 14.9345 17.6462 14.7667 17.7013 14.604C17.7702 14.3999 17.8315 14.1834 17.9167 13.9856C17.9204 13.9805 17.9229 13.9743 17.9254 13.968Z"/>
  <path d="M11.6848 19.2722C11.6535 19.2534 11.6222 19.2359 11.5884 19.2234C11.502 19.1921 11.4344 19.157 11.353 19.1157C11.2817 19.0794 11.1828 19.0706 11.1051 19.0494C11.0563 19.0356 11.005 19.0318 10.9574 19.0131C10.9149 18.9968 10.8773 18.9655 10.836 18.9455C10.7221 18.8916 10.6081 18.8841 10.5093 18.799C10.4742 18.7689 10.4442 18.7276 10.3991 18.7114C10.3453 18.6913 10.2751 18.7026 10.2201 18.7038C10.17 18.7038 10.1312 18.7139 10.0836 18.7251C10.021 18.7414 9.95091 18.7339 9.88331 18.7364C9.77064 18.7402 9.65797 18.7514 9.54781 18.7752C9.38381 18.8103 9.25862 18.9492 9.09338 18.9655C9.007 18.9743 8.93689 18.9129 8.85802 18.8879C8.73534 18.8491 8.60139 18.8441 8.4762 18.8065C8.30469 18.7539 8.09688 18.7151 7.91911 18.7614C7.75762 18.8027 7.59112 18.7689 7.43338 18.7364C7.2769 18.7038 7.12292 18.6938 6.96268 18.6926C6.84375 18.6913 6.74736 18.7376 6.63343 18.7639C6.54455 18.784 6.51075 18.8265 6.43564 18.8729C6.3768 18.9104 6.3117 18.9242 6.24535 18.9417C6.08887 18.983 5.88982 19.0706 5.78842 19.2059C5.72707 19.2885 5.63944 19.4112 5.61941 19.5163C5.57059 19.773 5.83849 19.7116 5.99748 19.7479C6.21656 19.8005 6.45692 19.8656 6.68601 19.8756C6.86503 19.8831 7.02778 19.8731 7.20554 19.9019C7.27815 19.9132 7.34701 19.9031 7.41836 19.9082C7.49598 19.9132 7.57485 19.9395 7.65121 19.9545C7.76889 19.9795 7.87154 19.9758 7.99047 19.9795C8.08812 19.982 8.18076 20.0133 8.2784 20.0183C8.4762 20.0283 8.679 20.0171 8.8768 20.0171C9.06583 20.0171 9.26739 20.0371 9.45267 20.0008C9.66674 19.9582 9.86078 19.9044 10.0673 19.8368C10.2651 19.7717 10.4604 19.7266 10.6695 19.7304C10.8185 19.7329 10.9599 19.7667 11.1139 19.7667C11.477 19.7654 11.8425 19.7291 12.1955 19.654C12.1492 19.5777 12.039 19.5238 11.9627 19.4788C11.8625 19.4187 11.7849 19.3323 11.6848 19.2722Z"/>
</svg>
