<svg width="17" height="24" viewBox="0 0 17 24" fill="#000000" xmlns="http://www.w3.org/2000/svg">
  <path d="M6.01242 14.2711C6.04215 14.4118 6.07874 14.5547 6.12219 14.7068C6.17936 14.9137 6.25026 15.1378 6.38975 15.3128C6.70305 15.7038 6.84026 16.1635 7.03578 16.6106C7.27476 17.1548 7.49773 17.7059 7.73441 18.2514C7.77901 18.3531 7.84647 18.5372 7.93451 18.6184C7.9711 18.6504 7.99626 18.655 8.01912 18.6996C8.04314 18.743 8.03742 18.7899 8.07401 18.8231C8.10602 18.8517 8.19407 18.8871 8.23409 18.8734C8.27868 18.8585 8.27411 18.8059 8.28211 18.7636C8.29812 18.6801 8.31984 18.5967 8.345 18.5155C8.40103 18.3337 8.46963 18.153 8.53138 17.9724C8.68345 17.5344 8.83667 17.0908 9.08022 16.6952C9.17855 16.5351 9.31119 16.3647 9.35121 16.1761C9.4564 15.6707 9.83716 15.2396 9.86232 14.7193C9.87261 14.517 9.8566 14.3157 9.87375 14.1145C9.88633 13.9635 9.88861 13.8046 9.92863 13.6571C9.96522 13.5199 10.0213 13.3895 10.0338 13.2466C10.0658 12.9024 10.0933 12.5629 10.0807 12.2153C10.0727 11.9774 10.0304 11.7453 10.0315 11.5063C10.0327 11.4503 10.083 11.0844 10.0224 11.0364C9.94007 11.1244 9.94235 11.2639 9.90805 11.3703C9.86346 11.5109 9.84974 11.6401 9.83259 11.7865C9.81086 11.9866 9.76169 12.1741 9.65078 12.349C9.53301 12.5354 9.39923 12.7081 9.30433 12.9059C9.17055 13.1826 9.10652 13.4845 9.01276 13.7726C8.96473 13.9235 8.91671 14.0767 8.87554 14.23C8.82866 14.4003 8.73262 14.5444 8.66516 14.7091C8.57597 14.9286 8.49822 15.1516 8.34385 15.3425C8.30269 15.3917 8.24552 15.5014 8.16891 15.4877C8.14719 15.4843 8.05457 15.3608 8.0317 15.3368C7.96881 15.2682 7.94252 15.179 7.8762 15.1173C7.8499 15.0932 7.78815 15.0795 7.75499 15.0544C7.69554 15.0075 7.65094 14.9377 7.60749 14.8794C7.51831 14.7616 7.40968 14.6965 7.30106 14.5959C7.02435 14.342 6.83226 13.9201 6.71448 13.5919C6.59786 13.2706 6.38861 12.9859 6.24683 12.6749C6.18965 12.548 6.14964 12.4234 6.13477 12.2873C6.10619 12.0129 6.01814 11.7476 5.9381 11.4823C5.91295 11.4011 5.88208 11.3291 5.89465 11.2433C5.89923 11.5772 5.83748 11.9042 5.84663 12.2381C5.85806 12.6818 5.94611 13.1243 5.94153 13.5679C5.9381 13.8218 5.96554 14.0447 6.01242 14.2711Z"/>
  <path d="M3.85252 17.5219C4.04575 17.9712 4.18182 18.4435 4.43566 18.8711C4.60489 19.1558 4.81413 19.3994 5.0794 19.6155C5.27264 19.7744 5.49332 19.9013 5.68199 20.0637C5.89123 20.2421 6.1142 20.409 6.32001 20.5908C6.46866 20.7234 6.54412 20.8572 6.6516 21.0104C6.75451 21.1579 6.91459 21.2506 7.01407 21.4049C7.11126 21.5558 7.17758 21.7205 7.27134 21.8714C7.43142 22.1276 7.68983 22.3871 7.97683 22.5289C8.16549 22.6215 8.38617 22.6764 8.56454 22.5415C8.72462 22.4203 8.86526 22.2625 9.01391 22.1287C9.12482 22.0292 9.23344 21.9343 9.32949 21.8211C9.63478 21.4632 9.92292 21.1008 10.1859 20.7166C10.314 20.5279 10.458 20.3438 10.5792 20.1517C10.7176 19.9345 10.8845 19.7424 11.0309 19.5286C11.2447 19.2153 11.3854 18.8711 11.5946 18.5555C11.7432 18.3314 11.8862 18.1039 12.0337 17.8775C12.2852 17.4933 12.4956 17.0862 12.7529 16.7043C12.921 16.4551 13.1176 16.1829 13.2377 15.9096C13.3177 15.7267 13.2811 15.5072 13.3189 15.3128C13.3452 15.1744 13.3543 15.0361 13.3886 14.8989C13.4081 14.8188 13.4561 14.7491 13.4904 14.6748C13.4995 14.6542 13.5098 14.6324 13.5087 14.6107C13.5075 14.5901 13.4995 14.573 13.5053 14.5513C13.5144 14.5192 13.5338 14.4884 13.5453 14.4564C13.5579 14.4232 13.5693 14.3889 13.5796 14.3557C13.6013 14.2814 13.6139 14.2094 13.655 14.1431C13.6813 14.1008 13.7328 14.0516 13.7362 14.0024C13.7397 13.9647 13.7351 13.9247 13.7351 13.8881C13.7351 13.8755 13.7374 13.8629 13.7362 13.8503C13.7339 13.8389 13.7271 13.8298 13.7236 13.8195C13.7191 13.7989 13.7282 13.7737 13.7328 13.752C13.7431 13.6983 13.7534 13.6445 13.7614 13.5897C13.7762 13.4925 13.7888 13.385 13.7545 13.2889C13.6802 13.3221 13.6139 13.4765 13.5761 13.5359C13.4366 13.7509 13.3292 13.983 13.1782 14.1922C12.9896 14.4541 12.8089 14.7056 12.6488 14.9835C12.4339 15.3562 12.1343 15.6798 11.8736 16.0263C11.5935 16.4002 11.2767 16.7569 11.0092 17.1377C10.8491 17.3675 10.7062 17.6225 10.6799 17.8969C10.6421 18.2662 10.5038 18.6413 10.3083 18.9683C10.2305 19.0964 10.1939 19.2427 10.1013 19.3639C9.9355 19.58 9.71825 19.7755 9.52387 19.9699C9.24488 20.2478 8.911 20.5096 8.69375 20.8332C8.63315 20.9235 8.61028 21.0196 8.4685 21.0173C8.31871 21.0162 8.14262 20.9178 8.01113 20.8595C7.91394 20.8172 7.83733 20.752 7.73785 20.712C7.60636 20.6594 7.43942 20.6251 7.32279 20.5451C7.18215 20.4479 7.14099 20.2684 7.02665 20.1472C6.87 19.9802 6.70878 19.8144 6.55098 19.6463C6.21711 19.2919 6.08333 18.8391 5.81005 18.4457C5.6614 18.2331 5.51848 18.0181 5.37326 17.8031C5.23948 17.6076 5.14344 17.3927 5.00737 17.2006C4.50083 16.4882 4.04804 15.7347 3.61469 14.9835C3.5335 14.844 3.48777 14.6919 3.41344 14.5501C3.35513 14.4404 3.2648 14.3306 3.22935 14.2128C3.19848 14.1145 3.10129 13.6045 2.98695 13.6434C2.9698 13.712 2.97894 13.7875 2.98009 13.8584C2.98009 13.8938 2.97323 13.9281 2.96065 13.9624C2.95493 13.9761 2.95036 13.9898 2.94579 14.0047C2.94236 14.0184 2.93321 14.031 2.93092 14.0447C2.9252 14.0836 2.91034 14.1202 2.90462 14.1591C2.88976 14.2448 2.87947 14.3317 2.87832 14.4186C2.87146 14.8017 2.93778 15.1859 3.04412 15.5575C3.08185 15.6878 3.11844 15.8205 3.18247 15.9428C3.23507 16.0434 3.31397 16.1475 3.32311 16.2607C3.32654 16.3018 3.32769 16.3396 3.3437 16.3796C3.36656 16.4402 3.39401 16.4997 3.42145 16.5603C3.52664 16.8004 3.6387 17.0393 3.74618 17.2795C3.78162 17.3606 3.81821 17.4407 3.85252 17.5219Z"/>
  <path d="M3.85252 17.5219C4.04575 17.9712 4.18182 18.4435 4.43566 18.8711C4.60489 19.1558 4.81413 19.3994 5.0794 19.6155C5.27264 19.7744 5.49332 19.9013 5.68199 20.0637C5.89123 20.2421 6.1142 20.409 6.32001 20.5908C6.46866 20.7234 6.54412 20.8572 6.6516 21.0104C6.75451 21.1579 6.91459 21.2506 7.01407 21.4049C7.11126 21.5558 7.17758 21.7205 7.27134 21.8714C7.43142 22.1276 7.68983 22.3871 7.97683 22.5289C8.16549 22.6215 8.38617 22.6764 8.56454 22.5415C8.72462 22.4203 8.86526 22.2625 9.01391 22.1287C9.12482 22.0292 9.23344 21.9343 9.32949 21.8211C9.63478 21.4632 9.92292 21.1008 10.1859 20.7166C10.314 20.5279 10.458 20.3438 10.5792 20.1517C10.7176 19.9345 10.8845 19.7424 11.0309 19.5286C11.2447 19.2153 11.3854 18.8711 11.5946 18.5555C11.7432 18.3314 11.8862 18.1039 12.0337 17.8775C12.2852 17.4933 12.4956 17.0862 12.7529 16.7043C12.921 16.4551 13.1176 16.1829 13.2377 15.9096C13.3177 15.7267 13.2811 15.5072 13.3189 15.3128C13.3452 15.1744 13.3543 15.0361 13.3886 14.8989C13.4081 14.8188 13.4561 14.7491 13.4904 14.6748C13.4995 14.6542 13.5098 14.6324 13.5087 14.6107C13.5075 14.5901 13.4995 14.573 13.5053 14.5513C13.5144 14.5192 13.5338 14.4884 13.5453 14.4564C13.5579 14.4232 13.5693 14.3889 13.5796 14.3557C13.6013 14.2814 13.6139 14.2094 13.655 14.1431C13.6813 14.1008 13.7328 14.0516 13.7362 14.0024C13.7397 13.9647 13.7351 13.9247 13.7351 13.8881C13.7351 13.8755 13.7374 13.8629 13.7362 13.8503C13.7339 13.8389 13.7271 13.8298 13.7236 13.8195C13.7191 13.7989 13.7282 13.7737 13.7328 13.752C13.7431 13.6983 13.7534 13.6445 13.7614 13.5897C13.7762 13.4925 13.7888 13.385 13.7545 13.2889C13.6802 13.3221 13.6139 13.4765 13.5761 13.5359C13.4366 13.7509 13.3292 13.983 13.1782 14.1922C12.9896 14.4541 12.8089 14.7056 12.6488 14.9835C12.4339 15.3562 12.1343 15.6798 11.8736 16.0263C11.5935 16.4002 11.2767 16.7569 11.0092 17.1377C10.8491 17.3675 10.7062 17.6225 10.6799 17.8969C10.6421 18.2662 10.5038 18.6413 10.3083 18.9683C10.2305 19.0964 10.1939 19.2427 10.1013 19.3639C9.9355 19.58 9.71825 19.7755 9.52387 19.9699C9.24488 20.2478 8.911 20.5096 8.69375 20.8332C8.63315 20.9235 8.61028 21.0196 8.4685 21.0173C8.31871 21.0162 8.14262 20.9178 8.01113 20.8595C7.91394 20.8172 7.83733 20.752 7.73785 20.712C7.60636 20.6594 7.43942 20.6251 7.32279 20.5451C7.18215 20.4479 7.14099 20.2684 7.02665 20.1472C6.87 19.9802 6.70878 19.8144 6.55098 19.6463C6.21711 19.2919 6.08333 18.8391 5.81005 18.4457C5.6614 18.2331 5.51848 18.0181 5.37326 17.8031C5.23948 17.6076 5.14344 17.3927 5.00737 17.2006C4.50083 16.4882 4.04804 15.7347 3.61469 14.9835C3.5335 14.844 3.48777 14.6919 3.41344 14.5501C3.35513 14.4404 3.2648 14.3306 3.22935 14.2128C3.19848 14.1145 3.10129 13.6045 2.98695 13.6434C2.9698 13.712 2.97894 13.7875 2.98009 13.8584C2.98009 13.8938 2.97323 13.9281 2.96065 13.9624C2.95493 13.9761 2.95036 13.9898 2.94579 14.0047C2.94236 14.0184 2.93321 14.031 2.93092 14.0447C2.9252 14.0836 2.91034 14.1202 2.90462 14.1591C2.88976 14.2448 2.87947 14.3317 2.87832 14.4186C2.87146 14.8017 2.93778 15.1859 3.04412 15.5575C3.08185 15.6878 3.11844 15.8205 3.18247 15.9428C3.23507 16.0434 3.31397 16.1475 3.32311 16.2607C3.32654 16.3018 3.32769 16.3396 3.3437 16.3796C3.36656 16.4402 3.39401 16.4997 3.42145 16.5603C3.52664 16.8004 3.6387 17.0393 3.74618 17.2795C3.78162 17.3606 3.81821 17.4407 3.85252 17.5219Z"/>
  <path d="M3.75761 17.7128C3.58953 18.1793 3.68901 18.7202 3.68443 19.2027C3.68215 19.4039 3.7073 19.5446 3.77705 19.7321C3.81135 19.8236 3.80564 19.923 3.84337 20.0099C4.00116 20.3793 4.16238 19.7744 4.18754 19.6898C4.29159 19.3479 4.3499 18.9969 4.48483 18.663C4.50312 18.6596 4.52256 18.6573 4.542 18.655C4.53285 18.6058 4.50655 18.5086 4.53056 18.4709C4.60717 18.352 4.6552 18.2285 4.6712 18.0867C4.68721 17.9358 4.65062 17.7929 4.5763 17.6602C4.53628 17.5893 4.49054 17.531 4.46425 17.4533C4.44366 17.3938 4.43795 17.3252 4.40707 17.2692C4.34076 17.1503 4.21269 17.0965 4.08463 17.0988C4.00459 17.0999 3.89139 17.0428 3.81478 17.0782C3.7416 17.1102 3.72102 17.2474 3.71874 17.316C3.71531 17.3984 3.71874 17.4818 3.71759 17.5642C3.71759 17.5916 3.70845 17.6385 3.71645 17.6637C3.72674 17.6968 3.77133 17.6739 3.75761 17.7128Z"/>
  <path d="M4.9925 19.8487V19.8659C4.9925 19.9619 4.95591 20.1026 5.00393 20.1918C5.01879 20.2192 5.04852 20.2352 5.06453 20.2615C5.07368 20.2775 5.07596 20.2935 5.07939 20.3118C5.09998 20.4387 5.07596 20.5851 5.07596 20.7143C5.07596 21.0207 5.01994 21.3317 5.19602 21.6267C5.40756 21.6267 5.41099 21.4541 5.44986 21.3672C5.56077 21.1225 5.62252 20.8755 5.7826 20.6388C5.9118 20.4479 5.91638 20.2341 6.08103 20.0648C6.03415 20.026 6.04901 19.9425 6.04558 19.8888C6.03872 19.7584 5.99413 19.6178 5.87064 19.5503C5.79746 19.5114 5.57564 19.4897 5.51961 19.5549C5.48188 19.5972 5.48874 19.6223 5.42242 19.6303C5.35267 19.6383 5.28292 19.6235 5.21432 19.6235C5.18002 19.6235 4.97534 19.6544 4.99135 19.5823C4.99478 19.6715 4.9925 19.7595 4.9925 19.8487Z"/>
  <path d="M6.48237 21.087C6.48237 21.4747 6.45035 21.8577 6.52239 22.2407C6.56355 22.4603 6.5647 22.6844 6.62301 22.9016C6.66875 23.0743 6.66074 23.2664 6.73049 23.4299C6.76594 23.5145 6.81511 23.5854 6.84026 23.6735C6.86199 23.7512 7.09867 24.1045 7.2153 23.9696C7.23131 23.9513 7.21873 23.8827 7.21759 23.8587C7.2153 23.7741 7.181 23.7169 7.15356 23.638C7.12268 23.5488 7.07924 23.4562 7.07466 23.3647C7.06894 23.2264 7.07123 23.0892 7.07466 22.9508C7.07924 22.7461 7.19243 22.5232 7.26561 22.3357C7.32393 22.1836 7.33422 21.972 7.44056 21.8371C7.43941 21.8531 7.43827 21.8703 7.43598 21.8874C7.43598 21.8257 7.44284 21.7777 7.44399 21.7159C7.44399 21.5478 7.468 21.3283 7.34451 21.1899C7.28391 21.1225 7.24274 21.1042 7.21302 21.0081C7.18786 20.927 7.19586 20.7886 7.12612 20.7246C7.08724 20.6868 7.02435 20.7017 6.97518 20.7017C6.87571 20.7017 6.70991 20.6651 6.6333 20.7303C6.60472 20.7532 6.60929 20.784 6.57156 20.7989C6.5464 20.808 6.50753 20.7932 6.49037 20.8218C6.47437 20.8469 6.48351 20.9418 6.49152 20.9681C6.51324 20.9693 6.53497 20.9727 6.55669 20.975C6.55784 20.9818 6.48237 21.0802 6.48237 21.087Z"/>
  <path d="M9.14885 21.9892C9.14885 22.2774 9.14657 22.506 9.32837 22.7542C9.36496 22.8033 9.40269 22.8502 9.41756 22.9097C9.43585 22.9851 9.40841 23.0526 9.39469 23.1258C9.37525 23.2378 9.41641 23.3316 9.42327 23.4414C9.43128 23.5603 9.45643 23.6803 9.45529 23.8004C9.45415 23.8553 9.437 23.9502 9.45986 23.9993C9.52504 23.973 9.52275 23.9056 9.5582 23.8576C9.59936 23.7992 9.65653 23.7672 9.69198 23.7032C9.76401 23.5728 9.78574 23.4242 9.82233 23.2859C9.85663 23.1555 9.89779 23.0229 9.94582 22.8982C9.99498 22.769 10.0144 22.6215 10.019 22.4855C10.0236 22.3151 10.035 22.1436 10.0327 21.9732C10.0316 21.94 10.027 21.9092 10.0201 21.8783C10.0064 21.8131 9.99384 21.756 9.99613 21.6874C10.0007 21.4895 10.0247 21.2917 10.0682 21.0985C10.0762 21.0585 10.1013 20.9098 10.1413 20.8835C10.1413 20.8892 10.1413 20.8938 10.1402 20.8984C10.1105 20.8995 9.97212 20.9075 9.94696 20.9247C9.85549 20.9841 9.77659 21.0893 9.70913 21.1717C9.66225 21.2288 9.60279 21.2574 9.55934 21.3192C9.49645 21.4106 9.41641 21.4701 9.33523 21.5433C9.29979 21.5764 9.25862 21.5947 9.22318 21.6245C9.18316 21.6576 9.19573 21.6839 9.18544 21.7274C9.17515 21.764 9.15 21.7948 9.14085 21.836C9.13285 21.8737 9.14657 21.9195 9.10998 21.9446C9.1054 21.9115 9.12027 22.0109 9.14885 21.9892Z"/>
  <path d="M11.6141 18.7053C11.5192 18.8151 11.5557 18.926 11.5443 19.046C11.5134 19.3685 11.4208 19.6886 11.3511 20.0111C11.2402 20.5268 11.2847 21.1213 10.8583 21.621C10.689 21.6302 10.5575 20.1174 10.5324 19.9619C10.4546 19.4771 10.7073 18.942 11.1132 18.6378C11.191 18.5795 11.3316 18.392 11.422 18.5189C11.4345 18.5349 11.4334 18.5589 11.4448 18.5772C11.47 18.6184 11.4757 18.5967 11.4986 18.6218C11.5214 18.6458 11.5409 18.6699 11.5386 18.7087C11.5363 18.671 11.6141 18.743 11.6141 18.7053Z"/>
  <path d="M13.1588 16.3659C13.0559 16.5145 13.0559 16.622 13.0616 16.8027C13.0708 17.1526 12.9107 17.4361 12.8227 17.7757C12.714 18.1999 12.8112 18.623 12.7746 19.0506C12.7621 19.1924 12.6957 19.3651 12.5002 19.4119C12.2235 18.8299 12.1869 18.2091 12.1869 17.6008C12.1869 17.4876 12.1435 17.4075 12.1538 17.2966C12.1709 17.116 12.2429 16.9422 12.3207 16.7798C12.3573 16.702 12.3939 16.6254 12.4476 16.5591C12.4888 16.5077 12.5357 16.4631 12.5757 16.4116C12.6454 16.319 12.7015 16.2081 12.7838 16.1246C12.8101 16.0995 12.865 16.0514 12.905 16.072C12.9164 16.0789 12.9198 16.1052 12.9336 16.1132C12.953 16.1246 12.9759 16.1166 12.9965 16.1178C13.0605 16.12 13.0639 16.1212 13.0822 16.1795C13.0891 16.2012 13.0799 16.2218 13.1051 16.2367C13.1279 16.2504 13.1577 16.3956 13.1588 16.3659Z"/>
  <path d="M13.0216 8.70495C13.0158 8.78156 12.9564 8.88333 12.9255 8.95422C12.8649 9.096 12.7723 9.22292 12.7083 9.36356C12.5253 9.76719 12.3778 10.2017 12.3652 10.6476C12.3595 10.8443 12.3801 11.0524 12.4659 11.2331C12.515 11.3371 12.6682 11.5692 12.8055 11.5601C12.9438 11.5509 13.1256 11.2891 13.1988 11.201C13.3394 11.0307 13.4435 10.8512 13.6024 10.6956C13.7202 10.579 13.8654 10.4715 13.9409 10.3252C14.0644 10.0862 14.0449 9.68143 14.0175 9.4173C13.9969 9.21606 13.9603 8.97823 13.8471 8.80558C13.8037 8.73926 13.7282 8.6798 13.671 8.62606C13.5773 8.53916 13.4035 8.53344 13.2811 8.57117C13.2319 8.58604 13.1599 8.59061 13.1187 8.61119C13.0547 8.64435 12.9873 8.73926 13.0216 8.70495Z"/>
  <path d="M4.44254 10.6888C4.42996 10.595 4.44369 10.5516 4.46084 10.459C4.49743 10.2543 4.42768 10.0656 4.31334 9.89641C4.07551 9.54195 3.77936 9.22179 3.37002 9.07314C3.20879 9.01483 2.99955 9.02169 2.83833 9.08229C2.76172 9.11088 2.57534 9.20006 2.53418 9.27439C2.51245 9.31555 2.52846 9.34871 2.53761 9.39216C2.55819 9.49621 2.58677 9.59454 2.60164 9.70088C2.63251 9.93071 2.748 10.0496 2.87492 10.2394C3.06472 10.523 3.0956 10.8992 3.16992 11.2239C3.25453 11.5921 3.63643 11.7247 3.96574 11.6253C4.16812 11.5647 4.3465 11.448 4.46998 11.2731C4.55803 11.1473 4.57289 10.9849 4.61063 10.8409C4.64264 10.7208 4.76842 10.5413 4.44254 10.6888Z"/>
  <path d="M12.4556 4.4949C12.4327 4.31424 12.499 4.18617 12.5962 4.03639C12.8729 3.6076 13.2308 3.21084 13.5544 2.8175C13.79 2.5305 14.0186 2.30068 14.2988 2.0617C14.6407 1.76899 14.9574 1.42139 15.3587 1.20871C15.4994 1.15383 15.632 1.08408 15.7566 0.998323C15.847 0.920571 15.9304 0.837101 16.0082 0.747915C16.0608 0.706752 16.126 0.630143 16.198 0.687314C16.262 0.738767 16.2026 1.06579 16.1786 1.1241C16.1523 1.18584 16.0917 1.24759 16.0631 1.31391C16.0025 1.45912 16.0116 1.61005 15.9659 1.76441C15.7646 2.44589 15.1701 2.87467 14.8065 3.45553C14.2976 4.26736 14.0221 5.16608 13.7808 6.07967C13.5784 6.15171 13.4961 5.82241 13.4126 5.71149C13.2594 5.51254 13.0936 5.29415 12.9781 5.06775C12.9301 4.9717 12.8912 4.90195 12.8352 4.81048C12.7895 4.7373 12.7677 4.6424 12.7163 4.57265C12.6534 4.48461 12.5116 4.46402 12.4625 4.37255C12.3938 4.24677 12.4727 4.03753 12.4556 4.4949Z"/>
  <path d="M3.90283 4.20678C3.50492 4.24794 3.05898 3.6808 2.83487 3.44412C2.60848 3.204 2.40152 2.94787 2.19799 2.68832C1.94987 2.37045 1.71318 1.97711 1.41475 1.70269C1.06829 1.38482 0.597205 1.27162 0.240458 0.968615C0.155845 0.895436 0.0746623 0.781095 0.000340104 0.694195C0.00834403 0.857704 -0.00194673 1.02236 0.000340104 1.18586C0.00377036 1.4237 0.0620847 1.62379 0.0266387 1.8582C-0.00423357 2.06172 0.030069 2.12919 0.154702 2.2824C0.253036 2.40132 0.382242 2.49051 0.486293 2.60599C0.790443 2.94444 0.959668 3.36408 1.13232 3.77799C1.36444 4.3337 1.69717 4.81736 1.95787 5.35706C2.02419 5.49655 2.1008 5.63262 2.1614 5.77326C2.21743 5.90247 2.16941 6.02481 2.19342 6.15516C2.22658 6.33811 2.21972 6.704 2.47241 6.71658C2.74912 6.72916 2.87489 6.40328 3.00181 6.22148C3.08414 6.10485 3.1962 6.02596 3.2911 5.92076C3.38486 5.81442 3.42945 5.68064 3.51864 5.57087C3.60897 5.45996 3.72217 5.3662 3.77019 5.22671C3.80792 5.11579 3.81364 4.98773 3.83994 4.87682C3.86738 4.76476 3.89597 4.6893 3.90168 4.57267C3.90511 4.47662 3.94628 4.26738 3.90283 4.20678Z"/>
  <path d="M4.01832 4.81392C3.94857 4.87909 3.87997 4.94541 3.81708 5.01973C3.75305 5.0952 3.69244 5.17524 3.62613 5.24956C3.57124 5.31016 3.52665 5.33189 3.45004 5.35361C3.42374 5.36047 3.38715 5.35361 3.36428 5.36733C3.31969 5.39706 3.32998 5.44394 3.29797 5.47481C3.19048 5.57887 3.075 5.50111 3.08643 5.37419C3.1013 5.21183 3.18477 5.05975 3.20421 4.89624C3.2305 4.687 3.18705 4.48804 3.32884 4.30853C3.42717 4.18618 3.55638 4.15074 3.6913 4.08556C3.88911 3.99066 4.01603 3.81343 4.14981 3.64649C4.31218 3.44525 4.46997 3.23943 4.6289 3.03476C4.85416 2.74433 5.07026 2.44933 5.36412 2.19092C5.54936 2.02626 5.78719 1.90163 5.98843 1.74727C6.19882 1.58719 6.39434 1.41682 6.59101 1.2476C6.93175 0.953737 7.24162 0.67017 7.6521 0.424335C7.89108 0.281407 8.24096 0.132762 8.54969 0.22881C8.75093 0.290554 8.88699 0.433482 9.05279 0.531816C9.20258 0.621002 9.33979 0.661022 9.51473 0.712476C9.67481 0.759356 9.9378 0.824531 10.0739 0.904571C10.2831 1.02692 10.3712 1.24988 10.5804 1.38138C10.9383 1.60549 11.1075 1.93022 11.4585 2.15547C11.7032 2.31326 11.8839 2.45962 12.0543 2.65972C12.1583 2.77978 12.2784 2.88497 12.3836 3.00274C12.4888 3.11937 12.5311 3.23943 12.5997 3.37664C12.7106 3.59618 12.8615 3.78827 12.9381 4.0261C13.0044 4.23192 13.0376 4.44802 13.1131 4.6527C13.1325 4.70529 13.4515 5.3296 13.3292 5.35018C13.2457 5.3639 13.1622 5.25299 13.1005 5.21068C12.9987 5.14322 12.8627 5.10663 12.7735 5.02431C12.6626 4.9214 12.6191 4.78876 12.4968 4.68814C12.3584 4.57494 12.2212 4.47089 12.092 4.3474C11.9273 4.18961 11.7535 4.06155 11.5763 3.91976C11.3213 3.71395 11.1201 3.44525 10.8903 3.21428C10.6559 2.97759 10.378 2.78778 10.1448 2.55109C10.0407 2.44476 9.95952 2.3407 9.9115 2.19778C9.82117 1.9245 9.44498 2.00911 9.20601 1.92907C8.9819 1.85475 8.74635 1.88562 8.51195 1.88334C7.87507 1.87648 7.31479 2.21264 6.71564 2.38415C6.30744 2.50078 5.985 2.8015 5.65226 3.05077C5.46817 3.19026 5.32296 3.35492 5.16402 3.52186C5.03482 3.65564 4.8896 3.78713 4.78784 3.94263C4.69522 4.08327 4.61976 4.17246 4.49741 4.2868C4.42652 4.35426 4.36706 4.42744 4.30875 4.50634C4.22299 4.62411 4.12008 4.71787 4.01832 4.81392Z"/>
  <path d="M4.01832 4.81392C3.94857 4.87909 3.87997 4.94541 3.81708 5.01973C3.75305 5.0952 3.69244 5.17524 3.62613 5.24956C3.57124 5.31016 3.52665 5.33189 3.45004 5.35361C3.42374 5.36047 3.38715 5.35361 3.36428 5.36733C3.31969 5.39706 3.32998 5.44394 3.29797 5.47481C3.19048 5.57887 3.075 5.50111 3.08643 5.37419C3.1013 5.21183 3.18477 5.05975 3.20421 4.89624C3.2305 4.687 3.18705 4.48804 3.32884 4.30853C3.42717 4.18618 3.55638 4.15074 3.6913 4.08556C3.88911 3.99066 4.01603 3.81343 4.14981 3.64649C4.31218 3.44525 4.46997 3.23943 4.6289 3.03476C4.85416 2.74433 5.07026 2.44933 5.36412 2.19092C5.54936 2.02626 5.78719 1.90163 5.98843 1.74727C6.19882 1.58719 6.39434 1.41682 6.59101 1.2476C6.93175 0.953737 7.24162 0.67017 7.6521 0.424335C7.89108 0.281407 8.24096 0.132762 8.54969 0.22881C8.75093 0.290554 8.88699 0.433482 9.05279 0.531816C9.20258 0.621002 9.33979 0.661022 9.51473 0.712476C9.67481 0.759356 9.9378 0.824531 10.0739 0.904571C10.2831 1.02692 10.3712 1.24988 10.5804 1.38138C10.9383 1.60549 11.1075 1.93022 11.4585 2.15547C11.7032 2.31326 11.8839 2.45962 12.0543 2.65972C12.1583 2.77978 12.2784 2.88497 12.3836 3.00274C12.4888 3.11937 12.5311 3.23943 12.5997 3.37664C12.7106 3.59618 12.8615 3.78827 12.9381 4.0261C13.0044 4.23192 13.0376 4.44802 13.1131 4.6527C13.1325 4.70529 13.4515 5.3296 13.3292 5.35018C13.2457 5.3639 13.1622 5.25299 13.1005 5.21068C12.9987 5.14322 12.8627 5.10663 12.7735 5.02431C12.6626 4.9214 12.6191 4.78876 12.4968 4.68814C12.3584 4.57494 12.2212 4.47089 12.092 4.3474C11.9273 4.18961 11.7535 4.06155 11.5763 3.91976C11.3213 3.71395 11.1201 3.44525 10.8903 3.21428C10.6559 2.97759 10.378 2.78778 10.1448 2.55109C10.0407 2.44476 9.95952 2.3407 9.9115 2.19778C9.82117 1.9245 9.44498 2.00911 9.20601 1.92907C8.9819 1.85475 8.74635 1.88562 8.51195 1.88334C7.87507 1.87648 7.31479 2.21264 6.71564 2.38415C6.30744 2.50078 5.985 2.8015 5.65226 3.05077C5.46817 3.19026 5.32296 3.35492 5.16402 3.52186C5.03482 3.65564 4.8896 3.78713 4.78784 3.94263C4.69522 4.08327 4.61976 4.17246 4.49741 4.2868C4.42652 4.35426 4.36706 4.42744 4.30875 4.50634C4.22299 4.62411 4.12008 4.71787 4.01832 4.81392Z"/>
</svg>
