<svg width="23" height="24" viewBox="0 0 23 24" fill="#000000" xmlns="http://www.w3.org/2000/svg">
  <path d="M17.5224 22.6995C17.534 22.7732 17.5444 22.8482 17.5547 22.9218C17.5896 23.1713 17.6155 23.4221 17.6452 23.6729C17.6569 23.7699 17.6569 23.9082 17.6905 24C17.7344 23.9909 17.7189 23.9224 17.7228 23.8823C17.7577 23.5126 17.9141 23.1494 18.0162 22.7939C18.1558 22.3052 18.214 21.7972 18.3459 21.3073C18.3846 21.1663 18.4364 21.0319 18.4751 20.8923C18.5243 20.7061 18.5488 20.5148 18.5979 20.3287C18.6316 20.2033 18.6962 20.0947 18.7285 19.9732C18.8022 19.694 18.7052 19.4367 18.8694 19.182C19.0349 18.9287 19.031 18.6068 19.0401 18.3146C19.0569 17.8596 19.0711 17.4071 19.0737 16.9521C19.0762 16.5475 19.0077 16.1442 18.9392 15.746C18.8836 15.4215 18.8461 15.0764 18.6871 14.7817C18.5721 14.5684 18.4751 14.3938 18.4713 14.1431C18.4622 13.6169 18.5462 13.0533 18.4557 12.5323C18.4376 12.4276 18.395 12.3281 18.3756 12.2234C18.3213 11.9429 18.4687 11.6068 18.5786 11.3534C18.6316 11.2345 18.7246 11.1517 18.788 11.0393C18.8539 10.9229 18.9056 10.8027 18.969 10.6851C19.0168 10.5972 19.053 10.5041 19.1124 10.4239C19.1693 10.3464 19.1978 10.3709 19.2042 10.2572C19.2107 10.1201 19.1318 10.0452 19.0931 9.9146C19.0659 9.82282 19.0232 9.72716 19.0051 9.6315C18.9896 9.54489 19.0129 9.45698 18.9974 9.37296C18.9832 9.29798 18.9263 9.26695 18.903 9.20878C18.8487 9.07693 18.8306 8.90629 18.7854 8.76797C18.6871 8.47194 18.501 8.2134 18.448 7.90185C18.404 7.64977 18.4415 7.4507 18.5178 7.21413C18.6096 6.93232 18.5798 6.62595 18.5798 6.33379C18.5798 5.97184 18.5798 5.61117 18.5786 5.24921C18.5786 4.96869 18.5579 4.69852 18.6406 4.42705C18.6716 4.32234 18.669 4.2939 18.6613 4.17109C18.6393 3.78974 18.6096 3.40968 18.5721 3.02963C18.5023 2.31864 18.4079 1.61023 18.3123 0.901828C18.2696 0.886315 18.2244 0.885022 18.1778 0.897949C18.055 0.909584 17.9361 0.888899 17.8223 0.837191C17.578 0.701456 17.3363 0.560552 17.0971 0.413183C16.7869 0.221862 16.3745 0.177909 16.0164 0.23091C15.9169 0.24513 15.8212 0.276156 15.7204 0.277449C15.5614 0.278742 15.4088 0.217984 15.2498 0.215398C15.0624 0.21152 14.8775 0.249008 14.6914 0.265814C14.2001 0.309766 13.7606 0.199886 13.2759 0.13525C12.8842 0.082249 12.4873 0.0693226 12.0917 0.0395903C11.4674 -0.00565454 10.8533 -0.0250449 10.2289 0.0525177C9.96393 0.0964698 9.69893 0.131373 9.43263 0.155934C9.19606 0.162398 8.9595 0.167567 8.72423 0.172738C8.37907 0.201177 8.12699 0.272277 7.86199 0.477817C7.81545 0.512721 7.73013 0.492037 7.75986 0.576064C7.78184 0.638114 7.87104 0.608383 7.92145 0.609675C8.09209 0.613553 8.25109 0.621308 8.42044 0.648455C8.71776 0.694993 9.00345 0.785483 9.30207 0.817801C9.69764 0.86046 10.0286 0.869508 10.3892 1.05695C10.7215 1.22888 11.024 1.32842 11.3859 1.42667C11.5527 1.46028 11.7104 1.51974 11.8578 1.60506C11.9689 1.68133 12.0814 1.75501 12.1964 1.82482C12.2973 1.88558 12.4795 1.89592 12.5933 1.89851C12.6618 1.8998 12.7213 1.89592 12.7833 1.8649C12.8053 1.85326 12.8027 1.80543 12.8157 1.80026C12.8751 1.77441 12.9863 1.81319 13.0522 1.81965C13.3819 1.85455 13.7205 1.8287 14.0528 1.83129C14.3811 1.83387 14.6849 1.75889 15.0068 1.8287C15.5924 1.95538 16.1457 1.77958 16.7261 1.77828C16.761 1.77828 17.0648 1.74338 17.1087 1.78604C17.1398 1.81577 17.1178 1.8455 17.1243 1.87911C17.1372 1.94634 17.123 2.08337 17.123 2.13895V2.78272C17.123 3.41227 17.1243 4.04182 17.1255 4.67137C17.1268 4.96482 17.1268 5.25955 17.1268 5.553C17.1281 5.82705 17.1889 6.18513 17.1191 6.45014C17.0958 6.4217 17.0622 6.40489 17.026 6.41136C16.9665 6.4217 17.0118 6.86251 16.9989 6.92327C16.9924 6.953 16.9575 6.99695 16.9523 7.04349C16.9394 7.16371 16.9665 7.28394 16.9665 7.40416C16.9678 7.65236 16.9536 7.88246 16.9148 8.12678C16.8631 8.44608 16.8735 8.73823 16.7571 9.04073C16.7041 9.18034 16.6873 9.30056 16.5891 9.41174C16.4133 9.61081 16.5955 9.80343 16.5904 10.0297C16.5891 10.0943 16.571 10.1512 16.5568 10.2119C16.5283 10.3244 16.5154 10.3942 16.5904 10.4937C16.7054 10.6437 16.8088 10.7368 16.8799 10.9203C16.942 11.0819 16.9859 11.2513 17.07 11.4038C17.2962 11.8136 17.3026 12.2841 17.2264 12.7314C17.1424 13.211 17.2871 13.7255 17.3117 14.2077C17.322 14.4003 17.3272 14.5929 17.3298 14.7868C17.3311 14.9329 17.366 15.0686 17.366 15.216C17.366 15.6646 17.3918 16.1183 17.3673 16.5656C17.3634 16.6419 17.3531 16.7155 17.3363 16.7892C17.3001 16.9508 17.2742 17.1047 17.2768 17.2714C17.2846 17.7536 17.3841 18.2306 17.3906 18.7128C17.3996 19.407 17.3143 20.0999 17.313 20.7953C17.313 21.1133 17.2923 21.4301 17.3556 21.7429C17.419 22.0622 17.4746 22.3789 17.5224 22.6995ZM4.90039 22.0079C4.91849 21.9084 4.934 21.8088 4.94563 21.7093C4.98312 21.4171 5.01027 21.1159 5.00769 20.8212C5.00381 20.5562 4.98183 20.2537 5.08008 20.0016C5.11627 19.9098 5.14342 19.8271 5.15376 19.7276C5.16152 19.6397 5.1473 19.5505 5.16281 19.4626C5.19642 19.2661 5.25201 19.0683 5.29596 18.8731C5.31535 18.7826 5.33215 18.6572 5.39033 18.5848C5.46918 18.4866 5.49245 18.4646 5.4653 18.3431C5.43428 18.2022 5.44462 18.038 5.44203 17.8932C5.43816 17.5972 5.4485 17.2999 5.4485 17.0025V16.1674C5.4485 15.6594 5.46789 15.1281 5.51701 14.6188C5.55838 14.187 5.68765 13.7113 5.61267 13.2808C5.54674 12.9124 5.57906 12.5078 5.66438 12.1419C5.73289 11.8433 5.81304 11.5408 5.963 11.2707C6.05349 11.1104 6.26032 11.0703 6.34564 10.9216C6.37796 10.8647 6.35469 10.7342 6.35469 10.667V10.2572C6.35469 10.1654 6.33918 10.0594 6.35857 9.97148C6.37925 9.87453 6.42579 9.81765 6.40769 9.70906C6.38184 9.55006 6.23576 9.45698 6.15949 9.31866C6.03927 9.10149 5.87768 8.89465 5.84019 8.6374C5.78073 8.23666 5.7846 7.84368 5.65921 7.45845C5.58682 7.23999 5.61267 7.01635 5.63077 6.79012C5.6786 6.20711 5.76651 5.62668 5.82209 5.04496C5.91 4.12068 6.05607 3.18605 5.8557 2.26434C5.77297 1.8817 5.79107 1.49389 5.74453 1.10995C5.72772 0.969048 5.65921 0.821678 5.6256 0.680772C5.5894 0.534696 5.56614 0.378278 5.51443 0.23608C5.49116 0.259349 5.46143 0.282618 5.42265 0.276154C5.38516 0.347254 5.37611 0.442914 5.3593 0.519184C5.35801 0.524354 5.35801 0.529527 5.35672 0.534697C5.3244 0.693701 5.29984 0.852703 5.26881 1.01171C5.18866 1.41762 5.0581 1.8106 4.93012 2.20359C4.83058 2.50867 4.76853 2.81245 4.7388 3.13175C4.72329 3.28559 4.71424 3.43942 4.68709 3.59196C4.65607 3.76001 4.60177 3.91901 4.56041 4.08319C4.5087 4.28356 4.48672 4.48393 4.48931 4.68947C4.4906 4.81615 4.49319 4.93767 4.4725 5.06306C4.44536 5.23758 4.36909 5.39787 4.34323 5.56722C4.30833 5.79344 4.38589 6.00415 4.39236 6.22779C4.39623 6.37516 4.34711 6.53934 4.32772 6.68541C4.30833 6.83149 4.29023 6.97756 4.27472 7.12364C4.18164 7.9988 4.06013 8.88173 4.01876 9.76077C3.98903 10.3942 4.0123 11.025 4.05237 11.6572C4.06401 11.8239 4.05108 11.8614 4.15967 11.9829C4.30187 12.1432 4.21396 12.4354 4.21525 12.6228C4.21655 12.9706 4.19586 13.3222 4.23077 13.6673C4.25921 13.9466 4.24757 14.2284 4.24757 14.5089C4.24757 14.814 4.24499 15.1191 4.24757 15.4241C4.24886 15.5702 4.25533 15.7085 4.21525 15.8507C4.18681 15.9541 4.18164 16.0291 4.18294 16.1364C4.19069 16.7194 4.17259 17.3024 4.18164 17.8842C4.18811 18.1879 4.27213 18.5189 4.18294 18.8188C4.1545 18.9144 4.12476 18.9998 4.12089 19.1019C4.10667 19.4367 4.12089 19.7754 4.12089 20.1102C4.12089 20.4308 4.11959 20.7527 4.12089 21.0733C4.12089 21.4184 4.09503 21.7688 4.1545 22.1087C4.20362 22.3828 4.25016 22.6581 4.29669 22.9322C4.32384 23.0912 4.38977 23.2218 4.4544 23.3704C4.52809 23.5398 4.58238 23.7078 4.63926 23.8823C4.61212 23.2437 4.7918 22.631 4.90039 22.0079Z"/>
  <path d="M1.63765 9.68322C1.49415 9.68968 1.34679 9.68192 1.20588 9.68063C1.096 9.67934 0.987413 9.65866 0.926655 9.74785C0.872361 9.828 0.890459 9.93142 0.891752 10.0206C0.891752 10.2468 0.815482 10.4627 0.812897 10.6851C0.811604 10.7639 0.78575 10.8389 0.871069 10.8609C0.916314 10.8725 0.969315 10.8596 1.01844 10.8673C1.0779 10.8764 1.12832 10.8945 1.19037 10.8945C1.28991 10.8945 1.3791 10.8712 1.47218 10.8428C1.56784 10.813 1.65962 10.8053 1.76175 10.813C1.88843 10.8234 1.9479 10.8893 2.06036 10.9229C2.11336 10.9384 2.17671 10.9371 2.23229 10.9397C2.33183 10.9436 2.4443 10.9514 2.54254 10.9333C2.6563 10.9113 2.73516 10.8971 2.85926 10.8971C2.97819 10.8984 3.09065 10.8958 3.20829 10.9152C3.37376 10.9423 3.5431 10.9333 3.71245 10.932C3.92057 10.9307 4.12223 10.9708 4.33036 10.9695C4.59407 10.9682 4.87718 10.9643 5.1383 11.0057C5.23009 11.0212 5.32058 11.0367 5.41365 11.0431C5.97081 11.0806 6.52667 11.0793 7.08383 11.1388C7.46389 11.1789 7.84007 11.2202 8.21883 11.2758C8.40886 11.3056 8.60277 11.3185 8.79538 11.3301C8.92465 11.3379 9.0397 11.3689 9.16639 11.3909C9.39391 11.4284 9.6072 11.3857 9.83472 11.3521C10.1165 11.312 10.3983 11.272 10.6776 11.2215C11.6988 11.038 12.7381 10.9035 13.7775 10.8363C14.3049 10.8014 14.8336 10.7588 15.3623 10.7303C15.6261 10.7161 15.8911 10.707 16.1561 10.7045C16.2724 10.7032 16.3862 10.7083 16.5025 10.7122C16.54 10.7122 16.5697 10.7122 16.6072 10.7045C16.7895 10.6708 16.9782 10.614 17.1592 10.5713C17.5354 10.4847 17.9103 10.5131 18.2942 10.5196C18.5515 10.5235 18.8087 10.5377 19.0647 10.5338C19.2288 10.5325 19.4227 10.5429 19.5818 10.5106C19.6167 10.5028 19.6451 10.495 19.6735 10.4756C19.7175 10.4459 19.7382 10.3968 19.7808 10.3658C19.9204 10.2688 20.2023 10.3322 20.3664 10.336C20.4983 10.3399 20.6301 10.3567 20.7594 10.3425C20.8008 10.3386 20.8344 10.3322 20.877 10.336C20.9714 10.3438 21.049 10.3813 21.124 10.4356C21.2054 10.4963 21.2481 10.548 21.2868 10.6359C21.3411 10.7588 21.4045 10.9552 21.5906 10.8712C21.8143 10.7678 21.8375 10.4692 21.9823 10.2973C22.0534 10.2132 22.131 10.2649 22.2266 10.2636C22.3417 10.2611 22.4813 10.1706 22.5201 10.0672C22.5783 9.91073 22.5576 9.722 22.5563 9.55912C22.5563 9.40399 22.5537 9.24757 22.5563 9.09245C22.5576 8.99679 22.5472 8.98774 22.4399 8.98903C22.321 8.99162 22.2008 8.98903 22.0819 8.98774C22.0082 8.98774 21.9293 8.96835 21.8569 8.98645C21.8272 8.9942 21.8052 9.01489 21.7781 9.02264C21.694 9.04333 21.5699 9.02135 21.4833 9.02135C21.367 9.02135 21.2493 9.02135 21.1317 9.02135C20.9999 9.02135 20.868 9.02135 20.7361 9.02135C20.5345 9.02006 20.3832 9.00454 20.1906 9.07176C20.1299 9.09245 20.073 9.11313 20.0083 9.1196C19.9372 9.12606 19.8636 9.1196 19.7925 9.1196C19.5546 9.1183 19.3193 9.15191 19.0828 9.16743C18.386 9.21655 17.6892 9.27214 16.9989 9.37555C16.7042 9.4195 16.4094 9.46475 16.1095 9.46346C15.8717 9.46346 15.6403 9.44407 15.4024 9.42467C15.2227 9.41046 15.0482 9.41821 14.8685 9.41046C14.7509 9.4027 14.6346 9.39106 14.5182 9.37426C14.292 9.3665 14.0658 9.37943 13.8408 9.41304C13.3819 9.45958 12.9204 9.45053 12.4615 9.49577C11.9612 9.5449 11.4816 9.68192 10.9865 9.75044C10.6026 9.80344 10.2083 9.78922 9.82179 9.828C9.5542 9.85515 9.29566 9.86549 9.02936 9.83188C8.4373 9.75561 7.84912 9.68451 7.25188 9.65607C6.4504 9.61729 5.64375 9.56041 4.84098 9.58756C4.41051 9.60178 3.98262 9.66124 3.55215 9.6858C3.47071 9.69097 3.39056 9.70131 3.31041 9.71941C3.19665 9.74397 3.08677 9.78663 2.96914 9.79568C2.79074 9.80732 2.61493 9.75173 2.44688 9.70519C2.20127 9.63797 1.98538 9.64831 1.74494 9.67546C1.70874 9.67934 1.67384 9.68192 1.63765 9.68322Z"/>
  <path d="M15.215 13.3377C15.2072 13.3364 15.1995 13.3351 15.1917 13.3339C15.1051 13.3196 15.0262 13.3274 14.9383 13.352C14.8996 13.3636 14.8685 13.3998 14.8336 13.4205C14.6229 13.5484 14.6462 13.8393 14.6294 14.0578C14.61 14.3098 14.685 14.5503 14.7186 14.7985C14.7341 14.9239 14.7612 15.0454 14.7923 15.1695C14.8272 15.3156 14.8543 15.4578 14.8517 15.609C14.8491 15.7111 14.8414 15.8146 14.8375 15.918C14.8362 15.9619 14.8375 16.0046 14.8272 16.0485C14.822 16.0731 14.7858 16.1235 14.8078 16.1507C14.8246 16.1726 14.875 16.1623 14.8983 16.1623C15.0237 16.1662 15.1478 16.1726 15.2731 16.1778C15.4477 16.1843 15.6222 16.1882 15.7967 16.1972C15.8755 16.2024 15.8962 16.1856 15.904 16.1041C15.9298 15.8288 15.8755 15.5547 15.8898 15.2794C15.8962 15.1385 15.8872 15.0118 15.8587 14.8735C15.8251 14.7106 15.8264 14.5464 15.8135 14.3822C15.7993 14.1922 15.7993 14.0086 15.8057 13.8186C15.8096 13.7475 15.8368 13.6312 15.8174 13.5614C15.8057 13.5187 15.7114 13.4528 15.67 13.4308C15.5369 13.361 15.3623 13.3584 15.215 13.3377Z"/>
  <path d="M8.01715 8.32718C8.01715 8.73696 8.05464 9.14417 8.08049 9.55266C8.10247 9.91462 8.12832 10.274 8.12574 10.636C8.12315 10.8686 8.13479 11.0781 8.17098 11.3056C8.19554 11.4633 8.22528 11.612 8.26147 11.7658C8.28733 11.8795 8.32482 11.9235 8.37135 12.0179C8.42565 12.1277 8.39333 12.288 8.49416 12.3682C8.55492 12.4186 8.66738 12.4121 8.73719 12.416C8.86129 12.4225 8.97763 12.4186 9.09656 12.3708C9.14439 12.3397 9.1961 12.3242 9.2504 12.3255C9.28401 12.3346 9.31762 12.332 9.34993 12.3191C9.43008 12.257 9.3913 11.9881 9.3913 11.9041C9.3913 11.1517 9.46499 10.3658 9.28271 9.63928C9.22066 9.39108 9.17283 9.14675 9.14569 8.8895C9.13147 8.76411 9.15861 8.6245 9.13276 8.50169C9.01124 8.50557 8.89619 8.45645 8.76951 8.45774C8.58336 8.45903 8.4166 8.47454 8.01715 8.32718Z"/>
  <path d="M14.1472 8.48356C14.102 8.52751 14.111 8.60507 14.1097 8.66712C14.1046 8.82096 14.111 8.97608 14.1188 9.12991C14.1459 9.60305 14.1472 10.0684 14.1472 10.5416C14.1472 10.8272 14.1472 11.1142 14.1472 11.3986C14.1472 11.6481 14.1149 11.8924 14.155 12.1355C14.1627 12.1859 14.186 12.2234 14.1912 12.2751C14.1976 12.3268 14.2093 12.3643 14.2274 12.4147C14.2584 12.5013 14.2468 12.5827 14.3657 12.5879C14.4665 12.5918 14.5687 12.5866 14.6695 12.5866C14.7936 12.5879 14.8556 12.5659 14.9565 12.491C15.0573 12.416 15.0728 12.3643 15.1013 12.2415C15.1413 12.0721 15.2266 11.926 15.2331 11.7489C15.2383 11.6236 15.2409 11.5098 15.259 11.3844C15.2719 11.3017 15.2719 11.2396 15.3068 11.1633C15.3236 11.1272 15.3326 11.1078 15.3378 11.0664C15.3727 10.8195 15.3753 10.5597 15.3856 10.3115C15.4089 9.82151 15.4736 9.31865 15.4516 8.82871C15.4425 8.62964 15.418 8.43702 15.4128 8.23665C15.4115 8.13711 15.4063 8.13453 15.3236 8.13453C15.2176 8.13453 15.1181 8.17719 15.0108 8.18106C14.8608 8.18624 14.7109 8.17848 14.5609 8.17977C14.3993 8.18107 14.2507 8.13582 14.0878 8.13582C14.0955 8.13582 14.1033 8.13582 14.1472 8.48356Z"/>
  <path d="M21.4833 9.7724C21.3295 9.72457 21.4588 10.4058 21.4652 10.442C21.4833 10.5467 21.5182 10.6644 21.5144 10.7704C21.5001 10.7523 21.4782 10.7419 21.4549 10.7458C21.4174 10.9449 21.4019 11.1323 21.4122 11.3379C21.4187 11.4762 21.4794 11.6132 21.4407 11.7502C21.4161 11.8394 21.3631 11.9713 21.4898 11.9946C21.6023 12.014 21.7367 11.9881 21.8492 11.9907C21.9603 11.992 22.0457 12.0346 22.153 12.0553C22.2305 12.0708 22.3094 12.0476 22.3869 12.067C22.4826 12.0915 22.5666 12.1717 22.6662 12.1148C22.7554 12.0644 22.7618 11.9467 22.7683 11.8588C22.7735 11.7955 22.7954 11.7399 22.8032 11.6779C22.8135 11.5809 22.7941 11.5007 22.7747 11.4077C22.7515 11.2991 22.7657 11.1776 22.7605 11.0664C22.7515 10.8272 22.7308 10.5894 22.6959 10.3528C22.67 10.1731 22.6649 9.98828 22.6002 9.81764C22.577 9.75171 22.564 9.70518 22.5537 9.63925C22.5214 9.63537 22.4916 9.63149 22.4593 9.62891C22.4554 9.59659 22.4529 9.56556 22.449 9.53325C22.3973 9.53842 22.3662 9.5759 22.3171 9.59142C22.2137 9.62632 22.0974 9.63795 21.9901 9.66898C21.8168 9.7181 21.6604 9.74137 21.4795 9.73879C21.3928 9.73749 21.3049 9.73491 21.2183 9.74008C21.2325 9.73362 21.2403 9.72069 21.4833 9.7724Z"/>
  <path d="M0.112238 10.2986C0.0928474 10.3076 0.0734567 10.3154 0.0553588 10.3244C0.00882123 10.265 0.0437244 10.093 0.0437244 10.0219C0.0463098 9.67161 0.0049431 9.32387 0.00752852 8.97354C0.00752852 8.78481 0.00752852 8.59607 0.00882123 8.40604C0.00882123 8.36985 -0.0118621 8.26643 0.0101139 8.2367C0.0307973 8.20567 0.129043 8.20309 0.169117 8.19404C0.391463 8.14491 0.622858 8.08545 0.850375 8.07511C0.987403 8.06994 1.11667 8.05442 1.25241 8.04279C1.32609 8.03633 1.34548 8.03374 1.36229 8.09838C1.3778 8.15913 1.361 8.25092 1.3597 8.31297C1.3597 8.4668 1.35065 8.58831 1.32609 8.7318C1.30929 8.83134 1.30929 8.95286 1.33385 9.04981C1.37004 9.19201 1.40883 9.2825 1.50061 9.39755C1.61695 9.54363 1.77466 9.64317 1.90006 9.7789C1.96211 9.84612 1.99313 9.90171 2.08104 9.94437C2.13662 9.97281 2.20384 9.98444 2.22323 10.0478C2.1754 10.0517 2.16377 10.0814 2.12499 10.0995C2.07457 10.1253 2.01381 10.1383 1.95823 10.1512C1.85998 10.1745 1.79276 10.2326 1.70744 10.2818C1.57041 10.3606 1.626 10.5261 1.47346 10.5933C1.26534 10.6877 1.07918 10.8157 0.852961 10.8699C0.739202 10.8971 0.607346 10.857 0.497466 10.8868C0.463855 10.8958 0.458684 10.9178 0.426367 10.9242C0.392756 10.932 0.352682 10.9178 0.319072 10.9217C0.26607 10.9281 0.219533 10.9772 0.162654 10.9566C0.0876765 10.9281 0.117409 10.8518 0.104482 10.7872C0.0825057 10.6773 0.0954328 10.561 0.0695786 10.4524C0.0618223 10.4214 0.0463098 10.4059 0.0424317 10.3684C0.0385535 10.3348 0.0437244 10.2973 0.112238 10.2986Z"/>
  <path d="M17.5224 22.6995C17.534 22.7732 17.5444 22.8482 17.5547 22.9218C17.5896 23.1713 17.6155 23.4221 17.6452 23.6729C17.6569 23.7699 17.6569 23.9082 17.6905 24C17.7344 23.9909 17.7189 23.9224 17.7228 23.8823C17.7577 23.5126 17.9141 23.1494 18.0162 22.7939C18.1558 22.3052 18.214 21.7972 18.3459 21.3073C18.3846 21.1663 18.4364 21.0319 18.4751 20.8923C18.5243 20.7061 18.5488 20.5148 18.5979 20.3287C18.6316 20.2033 18.6962 20.0947 18.7285 19.9732C18.8022 19.694 18.7052 19.4367 18.8694 19.182C19.0349 18.9287 19.031 18.6068 19.0401 18.3146C19.0569 17.8596 19.0711 17.4071 19.0737 16.9521C19.0762 16.5475 19.0077 16.1442 18.9392 15.746C18.8836 15.4215 18.8461 15.0764 18.6871 14.7817C18.5721 14.5684 18.4751 14.3938 18.4713 14.1431C18.4622 13.6169 18.5462 13.0533 18.4557 12.5323C18.4376 12.4276 18.395 12.3281 18.3756 12.2234C18.3213 11.9429 18.4687 11.6068 18.5786 11.3534C18.6316 11.2345 18.7246 11.1517 18.788 11.0393C18.8539 10.9229 18.9056 10.8027 18.969 10.6851C19.0168 10.5972 19.053 10.5041 19.1124 10.4239C19.1693 10.3464 19.1978 10.3709 19.2042 10.2572C19.2107 10.1201 19.1318 10.0452 19.0931 9.9146C19.0659 9.82282 19.0232 9.72716 19.0051 9.6315C18.9896 9.54489 19.0129 9.45698 18.9974 9.37296C18.9832 9.29798 18.9263 9.26695 18.903 9.20878C18.8487 9.07693 18.8306 8.90629 18.7854 8.76797C18.6871 8.47194 18.501 8.2134 18.448 7.90185C18.404 7.64977 18.4415 7.4507 18.5178 7.21413C18.6096 6.93232 18.5798 6.62595 18.5798 6.33379C18.5798 5.97184 18.5798 5.61117 18.5786 5.24921C18.5786 4.96869 18.5579 4.69852 18.6406 4.42705C18.6716 4.32234 18.669 4.2939 18.6613 4.17109C18.6393 3.78974 18.6096 3.40968 18.5721 3.02963C18.5023 2.31864 18.4079 1.61023 18.3123 0.901828C18.2696 0.886315 18.2244 0.885022 18.1778 0.897949C18.055 0.909584 17.9361 0.888899 17.8223 0.837191C17.578 0.701456 17.3363 0.560552 17.0971 0.413183C16.7869 0.221862 16.3745 0.177909 16.0164 0.23091C15.9169 0.24513 15.8212 0.276156 15.7204 0.277449C15.5614 0.278742 15.4088 0.217984 15.2498 0.215398C15.0624 0.21152 14.8775 0.249008 14.6914 0.265814C14.2001 0.309766 13.7606 0.199886 13.2759 0.13525C12.8842 0.082249 12.4873 0.0693226 12.0917 0.0395903C11.4674 -0.00565454 10.8533 -0.0250449 10.2289 0.0525177C9.96393 0.0964698 9.69893 0.131373 9.43263 0.155934C9.19606 0.162398 8.9595 0.167567 8.72423 0.172738C8.37907 0.201177 8.12699 0.272277 7.86199 0.477817C7.81545 0.512721 7.73013 0.492037 7.75986 0.576064C7.78184 0.638114 7.87104 0.608383 7.92145 0.609675C8.09209 0.613553 8.25109 0.621308 8.42044 0.648455C8.71776 0.694993 9.00345 0.785483 9.30207 0.817801C9.69764 0.86046 10.0286 0.869508 10.3892 1.05695C10.7215 1.22888 11.024 1.32842 11.3859 1.42667C11.5527 1.46028 11.7104 1.51974 11.8578 1.60506C11.9689 1.68133 12.0814 1.75501 12.1964 1.82482C12.2973 1.88558 12.4795 1.89592 12.5933 1.89851C12.6618 1.8998 12.7213 1.89592 12.7833 1.8649C12.8053 1.85326 12.8027 1.80543 12.8157 1.80026C12.8751 1.77441 12.9863 1.81319 13.0522 1.81965C13.3819 1.85455 13.7205 1.8287 14.0528 1.83129C14.3811 1.83387 14.6849 1.75889 15.0068 1.8287C15.5924 1.95538 16.1457 1.77958 16.7261 1.77828C16.761 1.77828 17.0648 1.74338 17.1087 1.78604C17.1398 1.81577 17.1178 1.8455 17.1243 1.87911C17.1372 1.94634 17.123 2.08337 17.123 2.13895V2.78272C17.123 3.41227 17.1243 4.04182 17.1255 4.67137C17.1268 4.96482 17.1268 5.25955 17.1268 5.553C17.1281 5.82705 17.1889 6.18513 17.1191 6.45014C17.0958 6.4217 17.0622 6.40489 17.026 6.41136C16.9665 6.4217 17.0118 6.86251 16.9989 6.92327C16.9924 6.953 16.9575 6.99695 16.9523 7.04349C16.9394 7.16371 16.9665 7.28394 16.9665 7.40416C16.9678 7.65236 16.9536 7.88246 16.9148 8.12678C16.8631 8.44608 16.8735 8.73823 16.7571 9.04073C16.7041 9.18034 16.6873 9.30056 16.5891 9.41174C16.4133 9.61081 16.5955 9.80343 16.5904 10.0297C16.5891 10.0943 16.571 10.1512 16.5568 10.2119C16.5283 10.3244 16.5154 10.3942 16.5904 10.4937C16.7054 10.6437 16.8088 10.7368 16.8799 10.9203C16.942 11.0819 16.9859 11.2513 17.07 11.4038C17.2962 11.8136 17.3026 12.2841 17.2264 12.7314C17.1424 13.211 17.2871 13.7255 17.3117 14.2077C17.322 14.4003 17.3272 14.5929 17.3298 14.7868C17.3311 14.9329 17.366 15.0686 17.366 15.216C17.366 15.6646 17.3918 16.1183 17.3673 16.5656C17.3634 16.6419 17.3531 16.7155 17.3363 16.7892C17.3001 16.9508 17.2742 17.1047 17.2768 17.2714C17.2846 17.7536 17.3841 18.2306 17.3906 18.7128C17.3996 19.407 17.3143 20.0999 17.313 20.7953C17.313 21.1133 17.2923 21.4301 17.3556 21.7429C17.419 22.0622 17.4746 22.3789 17.5224 22.6995ZM4.90039 22.0079C4.91849 21.9084 4.934 21.8088 4.94563 21.7093C4.98312 21.4171 5.01027 21.1159 5.00769 20.8212C5.00381 20.5562 4.98183 20.2537 5.08008 20.0016C5.11627 19.9098 5.14342 19.8271 5.15376 19.7276C5.16152 19.6397 5.1473 19.5505 5.16281 19.4626C5.19642 19.2661 5.25201 19.0683 5.29596 18.8731C5.31535 18.7826 5.33215 18.6572 5.39033 18.5848C5.46918 18.4866 5.49245 18.4646 5.4653 18.3431C5.43428 18.2022 5.44462 18.038 5.44203 17.8932C5.43816 17.5972 5.4485 17.2999 5.4485 17.0025V16.1674C5.4485 15.6594 5.46789 15.1281 5.51701 14.6188C5.55838 14.187 5.68765 13.7113 5.61267 13.2808C5.54674 12.9124 5.57906 12.5078 5.66438 12.1419C5.73289 11.8433 5.81304 11.5408 5.963 11.2707C6.05349 11.1104 6.26032 11.0703 6.34564 10.9216C6.37796 10.8647 6.35469 10.7342 6.35469 10.667V10.2572C6.35469 10.1654 6.33918 10.0594 6.35857 9.97148C6.37925 9.87453 6.42579 9.81765 6.40769 9.70906C6.38184 9.55006 6.23576 9.45698 6.15949 9.31866C6.03927 9.10149 5.87768 8.89465 5.84019 8.6374C5.78073 8.23666 5.7846 7.84368 5.65921 7.45845C5.58682 7.23999 5.61267 7.01635 5.63077 6.79012C5.6786 6.20711 5.76651 5.62668 5.82209 5.04496C5.91 4.12068 6.05607 3.18605 5.8557 2.26434C5.77297 1.8817 5.79107 1.49389 5.74453 1.10995C5.72772 0.969048 5.65921 0.821678 5.6256 0.680772C5.5894 0.534696 5.56614 0.378278 5.51443 0.23608C5.49116 0.259349 5.46143 0.282618 5.42265 0.276154C5.38516 0.347254 5.37611 0.442914 5.3593 0.519184C5.35801 0.524354 5.35801 0.529527 5.35672 0.534697C5.3244 0.693701 5.29984 0.852703 5.26881 1.01171C5.18866 1.41762 5.0581 1.8106 4.93012 2.20359C4.83058 2.50867 4.76853 2.81245 4.7388 3.13175C4.72329 3.28559 4.71424 3.43942 4.68709 3.59196C4.65607 3.76001 4.60177 3.91901 4.56041 4.08319C4.5087 4.28356 4.48672 4.48393 4.48931 4.68947C4.4906 4.81615 4.49319 4.93767 4.4725 5.06306C4.44536 5.23758 4.36909 5.39787 4.34323 5.56722C4.30833 5.79344 4.38589 6.00415 4.39236 6.22779C4.39623 6.37516 4.34711 6.53934 4.32772 6.68541C4.30833 6.83149 4.29023 6.97756 4.27472 7.12364C4.18164 7.9988 4.06013 8.88173 4.01876 9.76077C3.98903 10.3942 4.0123 11.025 4.05237 11.6572C4.06401 11.8239 4.05108 11.8614 4.15967 11.9829C4.30187 12.1432 4.21396 12.4354 4.21525 12.6228C4.21655 12.9706 4.19586 13.3222 4.23077 13.6673C4.25921 13.9466 4.24757 14.2284 4.24757 14.5089C4.24757 14.814 4.24499 15.1191 4.24757 15.4241C4.24886 15.5702 4.25533 15.7085 4.21525 15.8507C4.18681 15.9541 4.18164 16.0291 4.18294 16.1364C4.19069 16.7194 4.17259 17.3024 4.18164 17.8842C4.18811 18.1879 4.27213 18.5189 4.18294 18.8188C4.1545 18.9144 4.12476 18.9998 4.12089 19.1019C4.10667 19.4367 4.12089 19.7754 4.12089 20.1102C4.12089 20.4308 4.11959 20.7527 4.12089 21.0733C4.12089 21.4184 4.09503 21.7688 4.1545 22.1087C4.20362 22.3828 4.25016 22.6581 4.29669 22.9322C4.32384 23.0912 4.38977 23.2218 4.4544 23.3704C4.52809 23.5398 4.58238 23.7078 4.63926 23.8823C4.61212 23.2437 4.7918 22.631 4.90039 22.0079Z"/>
  <path d="M1.63765 9.68322C1.49415 9.68968 1.34679 9.68192 1.20588 9.68063C1.096 9.67934 0.987413 9.65866 0.926655 9.74785C0.872361 9.828 0.890459 9.93142 0.891752 10.0206C0.891752 10.2468 0.815482 10.4627 0.812897 10.6851C0.811604 10.7639 0.78575 10.8389 0.871069 10.8609C0.916314 10.8725 0.969315 10.8596 1.01844 10.8673C1.0779 10.8764 1.12832 10.8945 1.19037 10.8945C1.28991 10.8945 1.3791 10.8712 1.47218 10.8428C1.56784 10.813 1.65962 10.8053 1.76175 10.813C1.88843 10.8234 1.9479 10.8893 2.06036 10.9229C2.11336 10.9384 2.17671 10.9371 2.23229 10.9397C2.33183 10.9436 2.4443 10.9514 2.54254 10.9333C2.6563 10.9113 2.73516 10.8971 2.85926 10.8971C2.97819 10.8984 3.09065 10.8958 3.20829 10.9152C3.37376 10.9423 3.5431 10.9333 3.71245 10.932C3.92057 10.9307 4.12223 10.9708 4.33036 10.9695C4.59407 10.9682 4.87718 10.9643 5.1383 11.0057C5.23009 11.0212 5.32058 11.0367 5.41365 11.0431C5.97081 11.0806 6.52667 11.0793 7.08383 11.1388C7.46389 11.1789 7.84007 11.2202 8.21883 11.2758C8.40886 11.3056 8.60277 11.3185 8.79538 11.3301C8.92465 11.3379 9.0397 11.3689 9.16639 11.3909C9.39391 11.4284 9.6072 11.3857 9.83472 11.3521C10.1165 11.312 10.3983 11.272 10.6776 11.2215C11.6988 11.038 12.7381 10.9035 13.7775 10.8363C14.3049 10.8014 14.8336 10.7588 15.3623 10.7303C15.6261 10.7161 15.8911 10.707 16.1561 10.7045C16.2724 10.7032 16.3862 10.7083 16.5025 10.7122C16.54 10.7122 16.5697 10.7122 16.6072 10.7045C16.7895 10.6708 16.9782 10.614 17.1592 10.5713C17.5354 10.4847 17.9103 10.5131 18.2942 10.5196C18.5515 10.5235 18.8087 10.5377 19.0647 10.5338C19.2288 10.5325 19.4227 10.5429 19.5818 10.5106C19.6167 10.5028 19.6451 10.495 19.6735 10.4756C19.7175 10.4459 19.7382 10.3968 19.7808 10.3658C19.9204 10.2688 20.2023 10.3322 20.3664 10.336C20.4983 10.3399 20.6301 10.3567 20.7594 10.3425C20.8008 10.3386 20.8344 10.3322 20.877 10.336C20.9714 10.3438 21.049 10.3813 21.124 10.4356C21.2054 10.4963 21.2481 10.548 21.2868 10.6359C21.3411 10.7588 21.4045 10.9552 21.5906 10.8712C21.8143 10.7678 21.8375 10.4692 21.9823 10.2973C22.0534 10.2132 22.131 10.2649 22.2266 10.2636C22.3417 10.2611 22.4813 10.1706 22.5201 10.0672C22.5783 9.91073 22.5576 9.722 22.5563 9.55912C22.5563 9.40399 22.5537 9.24757 22.5563 9.09245C22.5576 8.99679 22.5472 8.98774 22.4399 8.98903C22.321 8.99162 22.2008 8.98903 22.0819 8.98774C22.0082 8.98774 21.9293 8.96835 21.8569 8.98645C21.8272 8.9942 21.8052 9.01489 21.7781 9.02264C21.694 9.04333 21.5699 9.02135 21.4833 9.02135C21.367 9.02135 21.2493 9.02135 21.1317 9.02135C20.9999 9.02135 20.868 9.02135 20.7361 9.02135C20.5345 9.02006 20.3832 9.00454 20.1906 9.07176C20.1299 9.09245 20.073 9.11313 20.0083 9.1196C19.9372 9.12606 19.8636 9.1196 19.7925 9.1196C19.5546 9.1183 19.3193 9.15191 19.0828 9.16743C18.386 9.21655 17.6892 9.27214 16.9989 9.37555C16.7042 9.4195 16.4094 9.46475 16.1095 9.46346C15.8717 9.46346 15.6403 9.44407 15.4024 9.42467C15.2227 9.41046 15.0482 9.41821 14.8685 9.41046C14.7509 9.4027 14.6346 9.39106 14.5182 9.37426C14.292 9.3665 14.0658 9.37943 13.8408 9.41304C13.3819 9.45958 12.9204 9.45053 12.4615 9.49577C11.9612 9.5449 11.4816 9.68192 10.9865 9.75044C10.6026 9.80344 10.2083 9.78922 9.82179 9.828C9.5542 9.85515 9.29566 9.86549 9.02936 9.83188C8.4373 9.75561 7.84912 9.68451 7.25188 9.65607C6.4504 9.61729 5.64375 9.56041 4.84098 9.58756C4.41051 9.60178 3.98262 9.66124 3.55215 9.6858C3.47071 9.69097 3.39056 9.70131 3.31041 9.71941C3.19665 9.74397 3.08677 9.78663 2.96914 9.79568C2.79074 9.80732 2.61493 9.75173 2.44688 9.70519C2.20127 9.63797 1.98538 9.64831 1.74494 9.67546C1.70874 9.67934 1.67384 9.68192 1.63765 9.68322Z"/>
  <path d="M15.215 13.3377C15.2072 13.3364 15.1995 13.3351 15.1917 13.3339C15.1051 13.3196 15.0262 13.3274 14.9383 13.352C14.8996 13.3636 14.8685 13.3998 14.8336 13.4205C14.6229 13.5484 14.6462 13.8393 14.6294 14.0578C14.61 14.3098 14.685 14.5503 14.7186 14.7985C14.7341 14.9239 14.7612 15.0454 14.7923 15.1695C14.8272 15.3156 14.8543 15.4578 14.8517 15.609C14.8491 15.7111 14.8414 15.8146 14.8375 15.918C14.8362 15.9619 14.8375 16.0046 14.8272 16.0485C14.822 16.0731 14.7858 16.1235 14.8078 16.1507C14.8246 16.1726 14.875 16.1623 14.8983 16.1623C15.0237 16.1662 15.1478 16.1726 15.2731 16.1778C15.4477 16.1843 15.6222 16.1882 15.7967 16.1972C15.8755 16.2024 15.8962 16.1856 15.904 16.1041C15.9298 15.8288 15.8755 15.5547 15.8898 15.2794C15.8962 15.1385 15.8872 15.0118 15.8587 14.8735C15.8251 14.7106 15.8264 14.5464 15.8135 14.3822C15.7993 14.1922 15.7993 14.0086 15.8057 13.8186C15.8096 13.7475 15.8368 13.6312 15.8174 13.5614C15.8057 13.5187 15.7114 13.4528 15.67 13.4308C15.5369 13.361 15.3623 13.3584 15.215 13.3377Z"/>
  <path d="M8.01715 8.32718C8.01715 8.73696 8.05464 9.14417 8.08049 9.55266C8.10247 9.91462 8.12832 10.274 8.12574 10.636C8.12315 10.8686 8.13479 11.0781 8.17098 11.3056C8.19554 11.4633 8.22528 11.612 8.26147 11.7658C8.28733 11.8795 8.32482 11.9235 8.37135 12.0179C8.42565 12.1277 8.39333 12.288 8.49416 12.3682C8.55492 12.4186 8.66738 12.4121 8.73719 12.416C8.86129 12.4225 8.97763 12.4186 9.09656 12.3708C9.14439 12.3397 9.1961 12.3242 9.2504 12.3255C9.28401 12.3346 9.31762 12.332 9.34993 12.3191C9.43008 12.257 9.3913 11.9881 9.3913 11.9041C9.3913 11.1517 9.46499 10.3658 9.28271 9.63928C9.22066 9.39108 9.17283 9.14675 9.14569 8.8895C9.13147 8.76411 9.15861 8.6245 9.13276 8.50169C9.01124 8.50557 8.89619 8.45645 8.76951 8.45774C8.58336 8.45903 8.4166 8.47454 8.01715 8.32718Z"/>
  <path d="M14.1472 8.48356C14.102 8.52751 14.111 8.60507 14.1097 8.66712C14.1046 8.82096 14.111 8.97608 14.1188 9.12991C14.1459 9.60305 14.1472 10.0684 14.1472 10.5416C14.1472 10.8272 14.1472 11.1142 14.1472 11.3986C14.1472 11.6481 14.1149 11.8924 14.155 12.1355C14.1627 12.1859 14.186 12.2234 14.1912 12.2751C14.1976 12.3268 14.2093 12.3643 14.2274 12.4147C14.2584 12.5013 14.2468 12.5827 14.3657 12.5879C14.4665 12.5918 14.5687 12.5866 14.6695 12.5866C14.7936 12.5879 14.8556 12.5659 14.9565 12.491C15.0573 12.416 15.0728 12.3643 15.1013 12.2415C15.1413 12.0721 15.2266 11.926 15.2331 11.7489C15.2383 11.6236 15.2409 11.5098 15.259 11.3844C15.2719 11.3017 15.2719 11.2396 15.3068 11.1633C15.3236 11.1272 15.3326 11.1078 15.3378 11.0664C15.3727 10.8195 15.3753 10.5597 15.3856 10.3115C15.4089 9.82151 15.4736 9.31865 15.4516 8.82871C15.4425 8.62964 15.418 8.43702 15.4128 8.23665C15.4115 8.13711 15.4063 8.13453 15.3236 8.13453C15.2176 8.13453 15.1181 8.17719 15.0108 8.18106C14.8608 8.18624 14.7109 8.17848 14.5609 8.17977C14.3993 8.18107 14.2507 8.13582 14.0878 8.13582C14.0955 8.13582 14.1033 8.13582 14.1472 8.48356Z"/>
  <path d="M21.4833 9.7724C21.3295 9.72457 21.4588 10.4058 21.4652 10.442C21.4833 10.5467 21.5182 10.6644 21.5144 10.7704C21.5001 10.7523 21.4782 10.7419 21.4549 10.7458C21.4174 10.9449 21.4019 11.1323 21.4122 11.3379C21.4187 11.4762 21.4794 11.6132 21.4407 11.7502C21.4161 11.8394 21.3631 11.9713 21.4898 11.9946C21.6023 12.014 21.7367 11.9881 21.8492 11.9907C21.9603 11.992 22.0457 12.0346 22.153 12.0553C22.2305 12.0708 22.3094 12.0476 22.3869 12.067C22.4826 12.0915 22.5666 12.1717 22.6662 12.1148C22.7554 12.0644 22.7618 11.9467 22.7683 11.8588C22.7735 11.7955 22.7954 11.7399 22.8032 11.6779C22.8135 11.5809 22.7941 11.5007 22.7747 11.4077C22.7515 11.2991 22.7657 11.1776 22.7605 11.0664C22.7515 10.8272 22.7308 10.5894 22.6959 10.3528C22.67 10.1731 22.6649 9.98828 22.6002 9.81764C22.577 9.75171 22.564 9.70518 22.5537 9.63925C22.5214 9.63537 22.4916 9.63149 22.4593 9.62891C22.4554 9.59659 22.4529 9.56556 22.449 9.53325C22.3973 9.53842 22.3662 9.5759 22.3171 9.59142C22.2137 9.62632 22.0974 9.63795 21.9901 9.66898C21.8168 9.7181 21.6604 9.74137 21.4795 9.73879C21.3928 9.73749 21.3049 9.73491 21.2183 9.74008C21.2325 9.73362 21.2403 9.72069 21.4833 9.7724Z"/>
  <path d="M0.112238 10.2986C0.0928474 10.3076 0.0734567 10.3154 0.0553588 10.3244C0.00882123 10.265 0.0437244 10.093 0.0437244 10.0219C0.0463098 9.67161 0.0049431 9.32387 0.00752852 8.97354C0.00752852 8.78481 0.00752852 8.59607 0.00882123 8.40604C0.00882123 8.36985 -0.0118621 8.26643 0.0101139 8.2367C0.0307973 8.20567 0.129043 8.20309 0.169117 8.19404C0.391463 8.14491 0.622858 8.08545 0.850375 8.07511C0.987403 8.06994 1.11667 8.05442 1.25241 8.04279C1.32609 8.03633 1.34548 8.03374 1.36229 8.09838C1.3778 8.15913 1.361 8.25092 1.3597 8.31297C1.3597 8.4668 1.35065 8.58831 1.32609 8.7318C1.30929 8.83134 1.30929 8.95286 1.33385 9.04981C1.37004 9.19201 1.40883 9.2825 1.50061 9.39755C1.61695 9.54363 1.77466 9.64317 1.90006 9.7789C1.96211 9.84612 1.99313 9.90171 2.08104 9.94437C2.13662 9.97281 2.20384 9.98444 2.22323 10.0478C2.1754 10.0517 2.16377 10.0814 2.12499 10.0995C2.07457 10.1253 2.01381 10.1383 1.95823 10.1512C1.85998 10.1745 1.79276 10.2326 1.70744 10.2818C1.57041 10.3606 1.626 10.5261 1.47346 10.5933C1.26534 10.6877 1.07918 10.8157 0.852961 10.8699C0.739202 10.8971 0.607346 10.857 0.497466 10.8868C0.463855 10.8958 0.458684 10.9178 0.426367 10.9242C0.392756 10.932 0.352682 10.9178 0.319072 10.9217C0.26607 10.9281 0.219533 10.9772 0.162654 10.9566C0.0876765 10.9281 0.117409 10.8518 0.104482 10.7872C0.0825057 10.6773 0.0954328 10.561 0.0695786 10.4524C0.0618223 10.4214 0.0463098 10.4059 0.0424317 10.3684C0.0385535 10.3348 0.0437244 10.2973 0.112238 10.2986Z"/>
</svg>
