<svg width="26" height="24" viewBox="0 0 26 24" fill="#000000" xmlns="http://www.w3.org/2000/svg">
  <path d="M4.75209 2.27623C4.72729 2.29608 4.70248 2.31468 4.67892 2.33452C4.18655 2.72891 3.7103 3.1816 3.32335 3.68017C3.146 3.90961 2.99717 4.16013 2.82478 4.39329C2.63751 4.64754 2.4738 4.91667 2.32125 5.19324C2.19475 5.42516 2.08561 5.66576 1.96283 5.90017C1.83632 6.13953 1.72718 6.41486 1.53371 6.61081C1.46054 6.68399 1.40349 6.75096 1.36752 6.84894C1.25342 7.15279 1.19265 7.47153 1.06242 7.77166C0.953285 8.02467 0.875151 8.30248 0.800738 8.56913C0.723844 8.84197 0.641989 9.11358 0.567576 9.38643C0.499363 9.63076 0.395185 9.86392 0.334414 10.1095C0.277363 10.3414 0.284805 10.5845 0.210391 10.8115C0.160782 10.9652 0.0888496 11.1054 0.0590842 11.2666C0.0107155 11.5308 0.00327394 11.8049 0.00079349 12.074C-0.00292718 12.3741 0.00823497 12.6743 0.00699475 12.9744C0.00699475 13.1642 0.0392404 13.3266 0.0665253 13.5102C0.0789275 13.5858 0.0739667 13.6565 0.0987711 13.7309C0.118615 13.788 0.140939 13.8264 0.143419 13.8872C0.14838 13.9715 0.143419 14.0596 0.142179 14.1439C0.142179 14.1886 0.139699 14.2283 0.14962 14.2704C0.162023 14.3188 0.184347 14.3473 0.175665 14.4056C0.174425 14.3473 0.20543 14.2878 0.216592 14.2295C0.250078 14.0559 0.295967 13.886 0.322011 13.7111C0.345576 13.5474 0.340615 13.38 0.377822 13.2187C0.410067 13.0773 0.447274 12.9422 0.472079 12.7983C0.519207 12.518 0.633308 12.2489 0.720123 11.9785C0.797017 11.7429 0.844146 11.5023 0.908637 11.2629C0.98057 10.9938 1.09839 10.649 1.3948 10.5721C1.44937 10.5584 1.4965 10.5361 1.54363 10.5746C1.5734 10.5969 1.62301 10.6775 1.64533 10.7085C1.72718 10.8139 1.73463 10.9714 1.73339 11.0979C1.73215 11.2666 1.73835 11.4353 1.73463 11.604C1.73215 11.7379 1.6937 11.8371 1.63169 11.9574C1.56099 12.0963 1.54115 12.2278 1.49774 12.3754C1.4593 12.5093 1.39356 12.6271 1.36752 12.7648C1.34644 12.8789 1.33031 12.9942 1.31047 13.1083C1.2435 13.5114 1.20505 13.917 1.13188 14.3176C1.11203 14.4242 1.12816 14.5358 1.12568 14.6437C1.11948 15.0059 1.05498 15.3581 1.12196 15.719C1.18025 16.0402 1.26954 16.3565 1.32039 16.6789C1.34892 16.8563 1.38488 17.0324 1.40969 17.2085C1.43821 17.4119 1.44689 17.6178 1.4779 17.8187C1.50146 17.9762 1.54859 18.1288 1.5982 18.2801C1.63913 18.4078 1.7061 18.507 1.77555 18.6187C1.81896 18.6906 1.85369 18.7836 1.91198 18.8456C1.94174 18.8779 1.97895 18.8977 2.00623 18.9337C2.0546 18.9969 2.06825 19.0775 2.12158 19.1383C2.19351 19.2189 2.2394 19.2661 2.2828 19.3665C2.31257 19.4335 2.34854 19.4967 2.37706 19.5625C2.39194 19.5984 2.41303 19.6604 2.44651 19.684C2.43163 19.4881 2.38822 19.3008 2.3597 19.1048C2.33613 18.9498 2.31381 18.7985 2.27536 18.6472C2.22823 18.4599 2.21459 18.2838 2.19103 18.094C2.1563 17.8138 2.14018 17.5496 2.14018 17.2668V16.5438C2.14018 16.3292 2.14762 16.0378 2.37706 15.9286C2.43535 15.9001 2.5693 15.879 2.63131 15.9063C2.67347 15.9237 2.69208 15.9683 2.71316 16.0092C2.78137 16.1394 2.84215 16.2808 2.8992 16.416C3.00461 16.6665 3.01206 16.927 3.04554 17.1924C3.08523 17.5099 3.08275 17.8286 3.11251 18.1461C3.14228 18.4624 3.13236 18.7873 3.18941 19.0986C3.22413 19.2983 3.27126 19.5005 3.37544 19.679C3.50318 19.8998 3.57264 20.1454 3.69666 20.3674C3.84549 20.6303 3.95339 20.9242 4.1295 21.171C4.27956 21.3819 4.40855 21.6076 4.51273 21.8445C4.57598 21.9896 4.62187 22.1446 4.68884 22.2885C4.86743 22.6754 5.26306 22.8553 5.58924 23.0946C5.60164 23.1045 5.61529 23.1132 5.62769 23.1231C5.7207 23.1914 5.79264 23.267 5.89806 23.3203C5.96751 23.3551 6.0382 23.3848 6.10269 23.4295C6.23664 23.5213 6.39539 23.5374 6.53429 23.6118C6.66823 23.6837 6.79846 23.7681 6.95101 23.7966C7.0155 23.809 7.1234 23.8636 7.18169 23.8214C7.13208 23.7817 7.08495 23.7383 7.03286 23.7023C6.97457 23.6602 6.90512 23.6428 6.84683 23.5994C6.81086 23.5733 6.80714 23.5622 6.79226 23.5213C6.77365 23.4716 6.71412 23.432 6.67196 23.4059C6.59878 23.3613 6.52809 23.3402 6.46608 23.2732C6.37802 23.179 6.29245 23.1219 6.22051 23.0128C6.13866 22.8887 6.06673 22.761 5.99107 22.6333C5.89682 22.4745 5.83108 22.3207 5.75419 22.1558C5.69962 22.038 5.59916 21.9474 5.54459 21.8259C5.49498 21.7167 5.45778 21.6039 5.45654 21.4836C5.45654 21.4216 5.42553 21.2851 5.47514 21.2368C5.51483 21.1996 5.60784 21.2182 5.65621 21.2268C5.83108 21.2554 5.92658 21.2926 6.05929 21.4141C6.17835 21.5257 6.36686 21.6101 6.41647 21.7787C6.43507 21.8395 6.42515 21.9077 6.44623 21.9685C6.50453 22.1334 6.73273 22.1731 6.86543 22.255C7.14572 22.4286 7.43717 22.6147 7.68274 22.8354C7.73483 22.8813 7.77699 22.9359 7.8142 22.9942C7.88365 23.1008 7.93946 23.1839 8.06225 23.2348C8.4554 23.3997 8.8932 23.4952 9.29999 23.618C9.42773 23.6564 9.52819 23.6428 9.65593 23.6602C9.73903 23.6713 9.86553 23.7172 9.94863 23.6936C10.0565 23.6639 9.94615 23.6056 9.89902 23.5709C9.75143 23.4642 9.62369 23.3104 9.53067 23.1529C9.30619 22.7771 8.99613 22.4733 8.71088 22.1421C8.62159 22.0367 8.49756 21.9784 8.38594 21.9003C8.24952 21.8036 8.13542 21.682 8.01884 21.5642C7.81668 21.3595 7.60584 21.1636 7.41237 20.9528C6.96217 20.4629 6.55413 19.9196 6.16222 19.3839C5.96627 19.116 5.70954 18.858 5.5756 18.5504C5.53219 18.45 5.53219 18.3495 5.51359 18.2441C5.49622 18.1523 5.4615 18.0692 5.42429 17.9837C5.26554 17.6141 5.09811 17.2482 4.91704 16.8898C4.63551 16.3342 4.41103 15.7587 4.23864 15.1609C4.12578 14.7678 4.01788 14.3684 3.98067 13.9604C3.96455 13.7843 3.91494 13.6131 3.86905 13.442C3.81324 13.2361 3.78099 13.0252 3.74751 12.8144C3.69418 12.4684 3.65201 12.1124 3.56148 11.7726C3.52427 11.6374 3.48334 11.5023 3.46474 11.3621C3.44365 11.2133 3.45854 11.0545 3.45978 10.9057C3.4635 9.84656 3.37792 8.7502 3.59992 7.70717C3.63341 7.54594 3.67061 7.38471 3.70906 7.22472C3.77479 6.95684 3.84549 6.69019 3.92114 6.42478C3.98563 6.19658 4.04144 5.95722 4.14562 5.74266C4.20887 5.61367 4.29817 5.50701 4.38498 5.39415C4.44451 5.31726 4.49908 5.23665 4.54993 5.15355C4.8265 4.70459 5.14524 4.29284 5.47638 3.88232C5.93526 3.31182 6.38174 2.73512 6.81334 2.14229C6.9262 1.9885 7.06759 1.85704 7.21145 1.73178C7.2747 1.67597 7.34416 1.62635 7.39004 1.55442C7.45454 1.45396 7.52895 1.43288 7.62321 1.35226C7.70878 1.27909 7.75715 1.17863 7.82784 1.0943C7.87621 1.03601 7.92582 1.00872 7.98287 0.965317C8.15526 0.835094 8.27308 0.639137 8.47152 0.549841C8.55213 0.513875 8.64019 0.487831 8.72825 0.487831C8.85103 0.489071 8.99861 0.59945 9.03582 0.722232C9.04698 0.760679 9.05318 0.805328 9.0507 0.845015C9.04574 0.902066 9.00978 0.940513 8.98745 0.991362C8.97381 1.02237 8.95893 1.05461 8.94653 1.08686C8.93536 1.12158 8.93164 1.12903 8.91056 1.15135C8.8994 1.16375 8.88947 1.16003 8.88575 1.17739C8.9118 1.16747 8.93536 1.14019 8.95645 1.12158C9.03706 1.05337 9.1586 0.983918 9.21565 0.887181C9.23798 0.848734 9.2479 0.801607 9.26154 0.75944C9.29751 0.646579 9.37316 0.496512 9.32851 0.37745C9.28387 0.257148 9.19581 0.193898 9.09783 0.121965C9.03334 0.0748364 8.99241 -0.0268625 8.89816 0.00662357C8.86591 0.0177856 8.83738 0.037629 8.8039 0.0500312C8.75677 0.0673943 8.71212 0.066153 8.66251 0.0649128C8.53229 0.0599519 8.41199 0.0946796 8.28425 0.118244C8.25448 0.123205 8.22471 0.128166 8.19371 0.130646C8.08581 0.139328 7.99031 0.183976 7.8973 0.238546C7.85141 0.265831 7.80428 0.306757 7.75219 0.322879C7.71498 0.335282 7.67654 0.330323 7.63933 0.345205C7.55003 0.381172 7.4843 0.461786 7.40989 0.518836C7.2561 0.635417 7.10355 0.758198 6.9324 0.848734C6.76001 0.93803 6.58018 1.01244 6.40655 1.10174C6.14734 1.2332 5.9055 1.38699 5.67358 1.57054C5.50118 1.70697 5.36352 1.8496 5.18121 1.96866C5.03362 2.06416 4.89099 2.16833 4.75209 2.27623Z"/>
  <path d="M20.8514 2.27624C20.8762 2.29609 20.901 2.31469 20.9246 2.33454C21.417 2.72893 21.8932 3.18161 22.2801 3.68018C22.4575 3.90962 22.6063 4.16014 22.7787 4.39331C22.966 4.64755 23.1297 4.91668 23.2823 5.19325C23.4088 5.42517 23.5179 5.66577 23.6407 5.90018C23.7845 6.17303 23.9433 6.43843 24.0735 6.71872C24.2831 7.17017 24.4877 7.62657 24.6515 8.09661C24.7197 8.29133 24.7656 8.49224 24.8437 8.68448C24.9379 8.91764 24.9417 9.18801 25.0719 9.40133C25.1215 9.48318 25.1339 9.5824 25.1525 9.67418C25.1984 9.88998 25.284 10.0959 25.3187 10.3154C25.3633 10.5919 25.4688 10.8561 25.5221 11.1327C25.6399 11.7342 25.5953 12.3642 25.5965 12.9744C25.5965 13.1642 25.5643 13.3266 25.537 13.5102C25.5246 13.5858 25.5295 13.6565 25.5047 13.7309C25.4849 13.788 25.4626 13.8264 25.4601 13.8872C25.4551 13.9716 25.4601 14.0596 25.4613 14.1439C25.4613 14.1886 25.4638 14.2283 25.4539 14.2704C25.4415 14.3188 25.4192 14.3473 25.4278 14.4056C25.4291 14.3473 25.3981 14.2878 25.3869 14.2295C25.3534 14.0559 25.3075 13.886 25.2815 13.7111C25.2579 13.5474 25.2629 13.38 25.2257 13.2187C25.1934 13.0774 25.1562 12.9422 25.1314 12.7983C25.0843 12.518 24.9702 12.2489 24.8834 11.9785C24.8065 11.7429 24.7594 11.5023 24.6949 11.2629C24.6229 10.9938 24.5051 10.649 24.2087 10.5721C24.1541 10.5585 24.107 10.5361 24.0599 10.5746C24.0301 10.5969 23.9805 10.6775 23.9582 10.7085C23.8763 10.8139 23.8689 10.9715 23.8701 11.098C23.8714 11.2666 23.8652 11.4353 23.8689 11.604C23.8714 11.7379 23.9098 11.8371 23.9718 11.9574C24.0425 12.0963 24.0624 12.2278 24.1058 12.3754C24.1442 12.5093 24.2099 12.6271 24.236 12.7648C24.2571 12.8789 24.2732 12.9943 24.293 13.1084C24.3538 13.4705 24.4034 13.8264 24.4369 14.1911C24.5064 14.9513 24.4853 15.7203 24.3662 16.4731C24.3154 16.7968 24.2124 17.1093 24.1591 17.4305C24.138 17.5595 24.1454 17.691 24.1256 17.8187C24.102 17.9762 24.0549 18.1288 24.0053 18.2801C23.9644 18.4078 23.8974 18.507 23.8279 18.6187C23.7845 18.6906 23.7498 18.7836 23.6915 18.8456C23.6618 18.8779 23.6246 18.8977 23.5973 18.9337C23.5489 18.9969 23.5353 19.0775 23.4819 19.1383C23.41 19.2189 23.3641 19.2661 23.3207 19.3665C23.2909 19.4335 23.255 19.4967 23.2264 19.5625C23.2116 19.5984 23.1905 19.6605 23.157 19.684C23.1719 19.4881 23.2153 19.3008 23.2438 19.1048C23.2674 18.9498 23.2897 18.7985 23.3281 18.6472C23.3753 18.4599 23.3889 18.2838 23.4125 18.0941C23.4472 17.8138 23.4633 17.5496 23.4633 17.2668V16.5438C23.4633 16.3292 23.4559 16.0378 23.2264 15.9286C23.1681 15.9001 23.0342 15.879 22.9722 15.9063C22.93 15.9237 22.9114 15.9683 22.8903 16.0092C22.8221 16.1395 22.7614 16.2808 22.7043 16.416C22.5989 16.6666 22.5914 16.927 22.558 17.1924C22.5183 17.5099 22.5208 17.8286 22.491 18.1461C22.4612 18.4624 22.4711 18.7873 22.4153 19.0986C22.3943 19.2152 22.3719 19.3306 22.3546 19.4471C22.331 19.6245 22.3322 19.8118 22.2926 19.9854C22.2417 20.2124 22.1785 20.4034 22.0755 20.6105C22.0135 20.7382 21.9378 20.866 21.8647 20.9838C21.8064 21.0805 21.7233 21.1611 21.6675 21.2628C21.634 21.3236 21.6005 21.3856 21.567 21.4464C21.5273 21.5195 21.5211 21.5964 21.4678 21.6622C21.4244 21.7143 21.3847 21.7589 21.345 21.8122C21.3103 21.8581 21.2446 21.8867 21.2136 21.9313C21.2061 21.9425 21.2024 21.9685 21.1925 21.9772C21.1739 21.997 21.1466 22.0045 21.1255 22.0231C21.097 22.0491 21.092 22.0777 21.0697 22.1087C21.0486 22.1384 21.0102 22.1545 20.9953 22.1868C20.9866 22.2079 20.999 22.229 20.9903 22.2488C20.9792 22.2711 20.9618 22.2736 20.9494 22.2934C20.9233 22.3356 20.9147 22.3902 20.8824 22.4274C20.8452 22.472 20.7919 22.4906 20.7497 22.5341C20.648 22.6407 20.5488 22.7536 20.4173 22.828C20.2673 22.9123 20.116 23.0202 19.9758 23.1232C19.8828 23.1914 19.8109 23.267 19.7054 23.3204C19.636 23.3551 19.5653 23.3848 19.5008 23.4295C19.3669 23.5213 19.2081 23.5374 19.0692 23.6118C18.9353 23.6837 18.805 23.7681 18.6525 23.7966C18.588 23.809 18.4801 23.8636 18.4218 23.8214C18.4714 23.7817 18.5186 23.7383 18.5706 23.7023C18.6289 23.6602 18.6984 23.6428 18.7567 23.5994C18.7926 23.5734 18.7964 23.5622 18.8112 23.5213C18.8298 23.4717 18.8894 23.432 18.9315 23.4059C19.0047 23.3613 19.0767 23.3402 19.1374 23.2732C19.2255 23.179 19.3111 23.1219 19.383 23.0128C19.4648 22.8888 19.5368 22.761 19.6124 22.6333C19.7067 22.4745 19.7724 22.3207 19.8493 22.1558C19.9039 22.038 20.0043 21.9474 20.0589 21.8259C20.1085 21.7167 20.1457 21.6039 20.147 21.4836C20.147 21.4216 20.178 21.2851 20.1284 21.2368C20.0887 21.1996 19.9957 21.2182 19.9473 21.2269C19.7712 21.2554 19.6769 21.2926 19.5442 21.4141C19.4041 21.5456 19.2267 21.651 19.0742 21.7676C19.0345 21.7974 18.9936 21.8222 18.9501 21.8457C18.8522 21.8953 18.7753 21.9487 18.6947 22.0231C18.4764 22.2252 18.2494 22.4175 18.015 22.601C17.9257 22.6717 17.8277 22.73 17.7385 22.8032C17.6281 22.8925 17.5351 23.0004 17.4259 23.0897C17.2895 23.2001 17.1419 23.308 16.9956 23.4047C16.848 23.5027 16.6818 23.561 16.533 23.654C16.3866 23.7458 16.2626 23.7594 16.0952 23.7842C15.8719 23.8177 15.6524 23.8785 15.4552 24C15.645 23.8288 15.7677 23.6081 15.9414 23.427C16.1038 23.2583 16.27 23.1194 16.3916 22.9198C16.4598 22.8069 16.5702 22.7064 16.6173 22.5812C16.6533 22.4832 16.6508 22.3803 16.719 22.2934C16.8455 22.1297 17.0514 22.0169 17.2176 21.9003C17.354 21.8036 17.4681 21.682 17.5847 21.5642C17.7868 21.3596 17.9977 21.1636 18.1911 20.9528C18.6413 20.4629 19.0494 19.9197 19.4413 19.3839C19.6372 19.116 19.894 18.858 20.0279 18.5505C20.0713 18.45 20.0713 18.3495 20.0899 18.2441C20.1073 18.1523 20.142 18.0692 20.1792 17.9837C20.338 17.6141 20.5054 17.2482 20.6865 16.8898C20.968 16.3342 21.1925 15.7587 21.3649 15.1609C21.6278 14.2494 21.7766 13.3068 21.8746 12.3667C21.9205 11.919 21.9763 11.4775 21.98 11.0273C21.9862 10.3972 21.9527 9.75975 21.9081 9.1322C21.8783 8.69564 21.8349 8.26404 21.7605 7.83244C21.6638 7.27062 21.5013 6.73981 21.3091 6.20527C21.1342 5.72035 21.0139 5.18085 20.7534 4.73189C20.5773 4.42803 20.3466 4.15518 20.1271 3.88233C19.6682 3.31183 19.2218 2.73513 18.7902 2.1423C18.6773 1.98851 18.5359 1.85705 18.392 1.73179C18.3288 1.67598 18.2593 1.62637 18.2135 1.55443C18.149 1.45398 18.0758 1.43289 17.9803 1.35228C17.8947 1.2791 17.8464 1.17865 17.7757 1.09431C17.7273 1.03602 17.6777 1.00874 17.6206 0.965329C17.4482 0.835106 17.3304 0.639149 17.132 0.549853C17.0514 0.513887 16.9633 0.487843 16.8753 0.487843C16.7525 0.489083 16.6049 0.599462 16.5677 0.722244C16.5565 0.760691 16.5503 0.80534 16.5528 0.845027C16.5578 0.902078 16.5937 0.940525 16.616 0.991374C16.6297 1.02238 16.6446 1.05462 16.657 1.08687C16.6681 1.1216 16.6719 1.12904 16.6929 1.15136C16.7041 1.16376 16.714 1.16004 16.7177 1.17741C16.6917 1.16749 16.6681 1.1402 16.6471 1.1216C16.5664 1.05338 16.4449 0.983931 16.3878 0.887193C16.3655 0.848746 16.3556 0.801619 16.342 0.759452C16.306 0.646591 16.2303 0.496524 16.275 0.377462C16.3196 0.257161 16.4077 0.19391 16.5057 0.121977C16.5702 0.0748485 16.6111 -0.0268504 16.7053 0.00663567C16.7376 0.0177977 16.7661 0.0376411 16.7996 0.0500433C16.8467 0.0674064 16.8914 0.0661675 16.941 0.0649273C17.0712 0.0599664 17.1915 0.0946917 17.3193 0.118256C17.349 0.123217 17.3788 0.128178 17.4098 0.130658C17.5177 0.13934 17.6132 0.183988 17.7062 0.238558C17.7521 0.265843 17.7992 0.306769 17.8513 0.322892C17.8885 0.335294 17.927 0.330335 17.9642 0.345218C18.0535 0.381184 18.1192 0.461798 18.1936 0.518848C18.3474 0.635429 18.4999 0.758212 18.6711 0.848748C18.8435 0.938045 19.0233 1.01246 19.197 1.10175C19.4562 1.23322 19.698 1.387 19.9299 1.57056C20.1023 1.70698 20.24 1.84961 20.4223 1.96867C20.5699 2.06417 20.7125 2.16834 20.8514 2.27624Z"/>
  <path d="M15.5631 4.73808C15.5743 4.74428 15.5842 4.75048 15.5941 4.75668C15.6884 4.81621 15.7764 4.88691 15.8583 4.96132C16.0406 5.12379 16.2117 5.32719 16.3109 5.54795C16.3506 5.63476 16.3854 5.74886 16.4523 5.82328C16.5019 5.87909 16.5739 5.90885 16.6297 5.95598C16.7884 6.08496 16.9038 6.28712 16.9918 6.46819C17.0861 6.66291 17.1543 6.87499 17.2312 7.07714C17.3316 7.34131 17.3627 7.61788 17.4209 7.89073C17.4582 8.06188 17.5251 8.22559 17.5623 8.3955C17.5921 8.53068 17.5983 8.67455 17.6181 8.81221C17.6541 9.05282 17.6119 9.2897 17.5921 9.53154C17.5772 9.71386 17.5747 9.89989 17.5388 10.081C17.5028 10.267 17.442 10.4679 17.3837 10.649C17.3254 10.8325 17.2275 10.9975 17.1667 11.181C17.0997 11.3807 17.0216 11.5779 16.9447 11.7739C16.8889 11.9165 16.8033 12.0442 16.7537 12.1893C16.6619 12.4597 16.6619 12.7549 16.4623 12.9794C16.3953 13.0538 16.3382 13.1145 16.2837 13.2001C16.2092 13.3142 16.1733 13.4482 16.0989 13.5585C16.0902 13.5722 16.0691 13.5313 16.0679 13.5275C16.017 13.5499 15.9674 13.6069 15.924 13.6466C15.733 13.8264 15.4713 13.8872 15.2716 14.0534C15.1885 14.1216 15.1054 14.2221 15.0087 14.2692C14.9455 14.3002 14.8909 14.3002 14.845 14.3585C14.8996 14.3535 14.9331 14.392 14.9777 14.4155C15.0248 14.4416 15.072 14.4552 15.1228 14.4738C15.2952 14.5371 15.4614 14.6971 15.5842 14.831C15.7169 14.9761 15.7801 15.2242 15.8384 15.409C15.8707 15.5119 15.8967 15.6198 15.9141 15.7265C15.9327 15.8381 15.95 15.8889 15.991 15.9869C16.0059 16.0241 16.0431 16.225 16.0765 16.2362C16.1138 16.2486 16.1522 16.1407 16.1658 16.1209C16.2725 15.9609 16.4275 15.8406 16.5342 15.6756C16.7934 15.275 17.0563 14.8757 17.3143 14.4751C17.6082 14.0162 17.9679 13.597 18.2172 13.1108C18.3387 12.8715 18.49 12.6011 18.5272 12.3332C18.5508 12.1695 18.5037 12.0045 18.5384 11.8433C18.588 11.6077 18.7889 11.439 18.8732 11.2158C18.9638 10.9764 18.996 10.7172 19.0258 10.463C19.0717 10.0686 19.1325 9.62952 19.0928 9.23513C19.0593 8.89903 19.0233 8.58029 18.9489 8.25039C18.8732 7.90809 18.743 7.56703 18.624 7.23837C18.5545 7.0449 18.4367 6.88119 18.3375 6.70135C18.2531 6.54757 18.1663 6.39502 18.0721 6.24743C17.8153 5.8394 17.416 5.53554 17.0985 5.17464C16.9819 5.04194 16.8579 4.91419 16.714 4.80877C16.6483 4.76164 16.5925 4.69591 16.5243 4.65375C16.4449 4.60662 16.3643 4.57189 16.2849 4.51732C16.2055 4.46275 16.12 4.37098 16.0269 4.33377C15.9401 4.29904 15.862 4.27796 15.7752 4.23207C15.6549 4.16634 15.5383 4.09316 15.418 4.02867C15.2654 3.94806 15.0968 3.89721 14.9455 3.81908C14.9033 3.79675 14.8847 3.75334 14.84 3.78931C14.747 3.86124 14.9169 4.10309 14.9541 4.16014C15.0162 4.25439 15.093 4.33377 15.1637 4.42058C15.2096 4.47887 15.2282 4.56073 15.2878 4.60414C15.3647 4.66119 15.4738 4.68971 15.5631 4.73808Z"/>
  <path d="M9.27271 14.7529C9.30248 14.6723 9.3248 14.5917 9.37441 14.5136C9.4389 14.4106 9.41285 14.2618 9.37441 14.1502C9.34588 14.0696 9.30248 13.9939 9.27271 13.9145C9.24294 13.8376 9.23302 13.7657 9.18589 13.6938C9.03583 13.4681 8.77538 13.3465 8.60795 13.1295C8.52982 13.029 8.47401 12.9137 8.40207 12.8095C8.29789 12.657 8.15775 12.5317 8.04613 12.3841C7.95063 12.2601 7.83033 12.1113 7.81793 11.9475C7.81297 11.8955 7.82909 11.8483 7.83529 11.7962C7.84645 11.6685 7.80056 11.5445 7.78692 11.418C7.73855 10.9479 7.77452 10.4543 7.7894 9.98055C7.81297 9.29223 8.04365 8.61631 8.24084 7.96271C8.28177 7.82133 8.32642 7.67994 8.37479 7.5398C8.39463 7.48771 8.41324 7.43438 8.4306 7.38105C8.4678 7.33268 8.49509 7.34508 8.53478 7.31531C8.61043 7.25826 8.66624 7.08711 8.71957 7.00526C8.7977 6.8862 8.88204 6.76962 8.96885 6.65676C9.05815 6.54018 9.10156 6.40251 9.16605 6.27105C9.24418 6.10982 9.34836 5.96099 9.4637 5.82333C9.64726 5.60381 9.8767 5.43638 10.0665 5.22306C10.1595 5.11764 10.25 5.01098 10.348 4.90928C10.4571 4.79518 10.5824 4.71085 10.694 4.60295C10.8428 4.4566 11.0065 4.36482 11.1628 4.23088C11.2137 4.18747 11.293 4.14902 11.3364 4.10066C11.3364 4.10066 11.3823 4.07833 11.3798 4.06841C11.3749 4.04485 11.3736 4.05477 11.3501 4.04112C11.2955 4.00888 11.1516 4.04981 11.0946 4.06221C10.8168 4.12546 10.5402 4.27925 10.286 4.40451C10.1632 4.46404 10.0603 4.5459 9.94863 4.62279C9.79484 4.72945 9.62989 4.81999 9.47239 4.92416C9.27767 5.05315 9.12884 5.23298 8.96017 5.39297C8.83367 5.51079 8.69477 5.61621 8.56082 5.72411C8.44424 5.81712 8.31402 5.90146 8.20736 6.00688C8.08458 6.12594 8.00892 6.30577 7.92211 6.45212C7.7956 6.6642 7.60709 6.82667 7.46818 7.02882C7.36277 7.18385 7.28215 7.31283 7.21394 7.4815C7.111 7.73699 7.03411 8.021 6.95969 8.28517C6.92745 8.40051 6.92373 8.52205 6.86792 8.62995C6.83195 8.70312 6.7749 8.76266 6.73273 8.83211C6.59507 9.05783 6.56158 9.36664 6.51569 9.62337C6.46236 9.9173 6.42516 10.215 6.39167 10.5114C6.38547 10.5647 6.38051 10.618 6.37431 10.6714C6.33338 11.0459 6.38795 11.4291 6.41151 11.8024C6.4326 12.1274 6.45492 12.4523 6.47229 12.776C6.48965 13.122 6.6608 13.4544 6.78606 13.7744C6.88156 14.0175 7.04031 14.2072 7.20154 14.4044C7.28339 14.5036 7.34912 14.5979 7.45702 14.6748C7.53516 14.7319 7.57608 14.7827 7.62693 14.8646C7.69143 14.97 7.7956 15.0518 7.85017 15.1585C7.92955 15.3135 8.00768 15.4251 8.12674 15.5467C8.22968 15.6521 8.29913 15.8158 8.33386 15.956C8.36983 16.1085 8.39339 16.2449 8.45912 16.39C8.50005 16.4818 8.55958 16.5748 8.57819 16.674C8.69229 16.653 8.69105 16.3987 8.70593 16.3107C8.73941 16.1172 8.82499 15.9225 8.8684 15.729C8.90436 15.5678 8.94901 15.4078 9.01102 15.2552C9.07055 15.1114 9.15861 14.9873 9.23054 14.8509C9.24667 14.8187 9.26031 14.7852 9.27271 14.7529Z"/>
  <path d="M14.7942 19.328C14.7483 19.3938 14.6726 19.4397 14.6205 19.4992C14.5424 19.5885 14.3861 19.71 14.344 19.8204C14.2956 19.9457 14.2683 20.0759 14.2125 20.1999C14.1604 20.3202 14.0773 20.438 14.0401 20.5633C13.9595 20.8386 13.9483 21.1437 13.8342 21.4079C13.7611 21.5741 13.7288 21.77 13.5986 21.9015C13.5353 21.966 13.4795 22.0404 13.415 22.1024C13.3431 22.1706 13.2501 22.2041 13.1794 22.2736C13.0938 22.3579 13.0492 22.4534 12.9326 22.5018C12.6833 22.6047 12.4241 22.5241 12.2083 22.415C11.9925 22.3058 11.9342 21.9722 11.8424 21.7638C11.7556 21.5666 11.67 21.3595 11.6105 21.1512C11.5448 20.923 11.4257 20.7035 11.3401 20.4815C11.262 20.2855 11.1814 20.0846 11.0499 19.9159C10.9321 19.7621 10.7572 19.6827 10.6121 19.5575C10.4708 19.4359 10.3567 19.2871 10.255 19.1321C10.2041 19.0564 10.1582 18.9783 10.1123 18.8989C10.0553 18.7997 10.0441 18.7005 10.0007 18.5938C9.94738 18.4611 9.90273 18.3346 9.9449 18.1945C10.0131 17.9576 10.0354 17.7269 10.0875 17.4838C10.1322 17.2804 10.1471 17.0671 10.2016 16.8674C10.2822 16.576 10.5365 16.3441 10.7324 16.1221C10.9048 15.9249 11.1194 15.7922 11.3315 15.6409C11.422 15.5764 11.5014 15.4958 11.6006 15.4424C11.6899 15.3941 11.7903 15.363 11.8834 15.3234C12.3609 15.1162 12.8557 15.1162 13.3679 15.213C13.6358 15.2626 13.838 15.4834 13.9942 15.6942C14.1058 15.8467 14.1803 16.0204 14.2609 16.1903C14.334 16.3441 14.4171 16.4879 14.4804 16.6479C14.5474 16.8116 14.6218 16.9778 14.6776 17.1465C14.747 17.3561 14.7694 17.5855 14.8215 17.8001C14.8413 17.8857 14.8983 17.934 14.9108 18.0221C14.9207 18.0953 14.907 18.1709 14.9058 18.2441C14.9058 18.3098 14.9095 18.3768 14.9058 18.4425C14.9033 18.4946 14.881 18.5169 14.8711 18.5591C14.814 18.7935 14.9108 19.0515 14.8202 19.2809C14.8128 19.2983 14.8041 19.3132 14.7942 19.328ZM15.9674 17.7629C15.9389 17.6314 15.9277 17.5062 15.9389 17.3735C15.9513 17.2283 15.888 17.0857 15.8446 16.9493C15.7454 16.6392 15.6164 16.3391 15.4478 16.0613C15.3064 15.8281 15.139 15.6235 14.9343 15.4424C14.7582 15.2862 14.6069 15.11 14.4345 14.9513C14.2882 14.8161 14.1257 14.7343 13.9632 14.6239C13.7995 14.511 13.6532 14.3622 13.4622 14.2927C13.3171 14.2394 13.1496 14.2444 12.9996 14.2084C12.8495 14.1737 12.6932 14.1265 12.5394 14.1265C12.506 14.1253 12.4725 14.134 12.439 14.1303C12.3385 14.1166 12.2579 14.0831 12.1513 14.0831C12.0372 14.0831 11.928 14.0769 11.8164 14.1017C11.639 14.1427 11.4716 14.222 11.2943 14.2605C11.1268 14.2977 10.9619 14.3076 10.7994 14.3696C10.658 14.4242 10.56 14.5123 10.4559 14.6202C10.3455 14.7355 10.2612 14.8694 10.1743 15.0021C10.0441 15.2006 9.98458 15.4461 9.82956 15.6247C9.73654 15.7326 9.66709 15.8443 9.59515 15.967C9.5195 16.0948 9.41532 16.2064 9.34835 16.3379C9.171 16.6814 9.11023 17.0622 8.96016 17.4144C8.92295 17.5024 8.91179 17.5818 8.90311 17.6773C8.88451 17.903 8.88203 18.1349 8.79893 18.347C8.70343 18.5901 8.56081 18.7848 8.43182 19.0068C8.36113 19.1308 8.27556 19.276 8.22595 19.4087C8.21355 19.4434 8.18874 19.4409 8.20486 19.4843C8.22223 19.5302 8.31028 19.5476 8.34377 19.5637C8.63646 19.7063 8.82746 19.9767 9.08294 20.1689C9.12015 20.1974 9.15984 20.2222 9.1958 20.2533C9.29006 20.3351 9.36447 20.4343 9.46245 20.5149C9.60632 20.6328 9.77375 20.7146 9.91141 20.8399C10.0516 20.9676 10.1322 21.1338 10.2612 21.269C10.3889 21.4042 10.5129 21.5369 10.6134 21.6944C10.689 21.8147 10.7275 21.9486 10.7833 22.0776C10.8379 22.2066 10.9023 22.3219 10.9371 22.4584C11.0016 22.7089 11.102 22.9185 11.2719 23.1182C11.3215 23.1765 11.3922 23.2558 11.4617 23.2906C11.5274 23.3228 11.5683 23.3278 11.6217 23.3836C11.6787 23.4431 11.7283 23.458 11.7916 23.5039C11.8462 23.546 11.8586 23.6229 11.9119 23.6651C11.9913 23.7259 12.088 23.716 12.1748 23.7618C12.2095 23.7804 12.2604 23.8177 12.2964 23.8288C12.3869 23.8573 12.4638 23.8288 12.5518 23.8139C12.6647 23.7966 12.7887 23.8127 12.9041 23.809C13.136 23.8028 13.3369 23.7581 13.5415 23.6477C13.7797 23.5188 14.0401 23.3513 14.2323 23.1603C14.3713 23.0227 14.5647 22.8689 14.6267 22.6804C14.6788 22.5216 14.6937 22.3467 14.7309 22.183C14.7818 21.9548 14.8525 21.744 14.9504 21.5307C15.0497 21.3124 15.2307 21.1561 15.3473 20.9515C15.4577 20.7593 15.6152 20.567 15.7752 20.412C15.9067 20.283 16.0778 20.1578 16.1807 20.0102C16.2552 19.9047 16.3643 19.813 16.4288 19.7038C16.4474 19.6716 16.4536 19.6356 16.4672 19.6009C16.5206 19.4669 16.6384 19.3541 16.6359 19.2015C16.6334 19.0936 16.5851 19.0688 16.523 18.9808C16.4375 18.8568 16.3916 18.7092 16.3147 18.5802C16.1609 18.3297 16.0319 18.0605 15.9687 17.7716C15.9687 17.7691 15.9674 17.7654 15.9674 17.7629Z"/>
</svg>
