<svg width="25" height="24" viewBox="0 0 25 24" fill="none" xmlns="http://www.w3.org/2000/svg">
  <path d="M20.9613 10.0149C21.3225 10.0864 21.1855 10.5155 21.074 10.7373C21.0074 11.004 20.8267 11.204 20.7188 11.4465C20.5419 11.6816 20.3794 11.9604 20.1261 12.1144C19.8449 12.2077 19.6788 12.495 19.3879 12.5617C19.0109 12.8744 18.4872 12.8417 18.0326 12.9447C17.6508 13.032 17.3247 13.6345 17.3271 14.0018C17.3295 14.3206 17.3756 14.5752 17.5368 14.8455C17.612 14.974 17.6653 15.1097 17.7441 15.2322C17.7914 15.3061 17.892 15.3219 17.875 15.4455C17.7114 15.4152 17.6011 15.3801 17.4241 15.3837C17.2314 15.3861 17.1441 15.3461 16.9829 15.2443C16.6871 15.0576 16.4907 14.8479 16.304 14.5509C16.1852 14.3606 16.1913 14.0745 16.2349 13.8612C16.3004 13.5472 16.3489 13.2126 16.3646 12.8926C16.3707 12.7787 16.3731 12.6708 16.4216 12.5653C16.5889 12.2041 16.9768 12.1641 17.3114 12.0368C17.2944 12.0538 17.3114 11.952 17.2944 11.9689C17.3732 11.9689 17.2629 11.9362 17.3392 11.912C17.4459 11.878 17.5368 11.7604 17.6447 11.718C17.732 11.6829 17.8253 11.6683 17.9126 11.6295C18.3999 11.4113 18.8363 11.1349 19.263 10.8186C19.5382 10.6137 19.817 10.2937 20.1528 10.2015C20.3394 10.1506 20.4897 9.99183 20.6704 9.9482C20.7685 9.92516 20.8801 9.96759 20.9758 9.93365C20.9783 9.9191 20.9589 10.0294 20.9613 10.0149Z" fill="black"/>
  <path d="M8.38694 9.47423C8.15662 9.49605 7.936 9.63424 7.84387 9.85486C7.79053 9.98457 7.7966 10.1373 7.77841 10.2731C7.71295 10.7773 7.62689 11.2986 7.76144 11.7992C7.83539 12.0708 7.86933 12.3968 8.1251 12.5629C8.21238 12.6199 8.32026 12.632 8.40633 12.6914C8.51543 12.7666 8.57604 12.946 8.71059 12.9714C8.64998 12.7714 8.54816 12.6029 8.52028 12.3908C8.49118 12.1689 8.49603 11.9411 8.51179 11.718C8.5324 11.4368 8.57846 11.1434 8.90212 11.0937C9.20032 11.0489 9.5264 11.1689 9.81854 11.2125C10.0634 11.2489 10.2271 11.1992 10.4586 11.1168C10.6756 11.0404 10.9022 11.0052 11.118 10.9349C11.3908 10.8464 11.6805 10.9725 11.9484 10.8877C12.2017 10.8355 12.5084 10.7701 12.7048 10.9592C12.9315 10.7543 13.3097 10.9337 13.563 11.0355C13.7921 11.1228 14.0176 11.2343 14.2334 11.3386C14.5764 11.4683 14.7789 10.9471 14.5097 10.7483C14.2564 10.5434 13.9449 10.4282 13.6818 10.2343C13.1994 9.94335 12.6284 9.84395 12.072 9.83425C11.7508 9.83183 11.4453 9.95062 11.1241 9.95911C10.7144 9.98942 10.3095 9.8888 9.90097 9.85486C9.4864 9.7991 9.06455 9.72758 8.69483 9.52029C8.59786 9.47908 8.49118 9.46453 8.38694 9.47423Z" fill="black"/>
  <path d="M24.8137 7.82686C24.7615 7.40138 24.7106 6.9662 24.5155 6.57708C24.4245 6.29949 24.3676 6.01099 24.2257 5.75158C24.0694 5.36367 23.8051 5.03759 23.5724 4.69454C23.4524 4.51756 23.4233 4.22663 23.3566 4.0242C23.2899 3.82176 23.2172 3.57811 23.0766 3.41446C22.9626 3.28112 22.8487 3.2193 22.782 3.04595C22.702 2.83867 22.6499 2.6229 22.5602 2.41925C22.4911 2.26409 22.4074 2.09438 22.3177 1.95134C22.2208 1.79618 22.2899 1.86163 22.0983 1.7889C21.9117 1.7186 21.8135 1.60101 21.691 1.44706C21.5601 1.28221 21.5274 1.28584 21.3346 1.23129C21.154 1.18038 20.9916 1.05916 20.8413 0.950063C20.5637 0.75005 20.3176 0.56822 20.0121 0.411847C19.7539 0.279717 19.4739 0.222743 19.2085 0.111221C18.9842 0.0178814 18.7793 -0.0330292 18.532 0.0239441C18.4254 0.0481881 18.3514 0.106373 18.2399 0.12092C18.1635 0.13183 18.0993 0.124555 18.0217 0.148799C17.8375 0.205772 17.715 0.216682 17.5223 0.220319C17.275 0.225167 17.0362 0.30881 16.7877 0.324568C16.6398 0.334266 16.5077 0.373056 16.3622 0.399725C16.1767 0.434878 15.9973 0.433666 15.8095 0.430029C15.3488 0.422756 14.967 0.523369 14.5379 0.690652C14.3318 0.771869 14.0942 0.851873 13.9172 0.987639C13.4929 1.31251 12.9523 1.42403 12.4492 1.58283C11.8892 1.7586 11.351 1.97922 10.7837 2.13559C10.5618 2.19741 10.3424 2.27378 10.117 2.31863C9.9606 2.35136 9.80544 2.3647 9.65028 2.40591C9.3545 2.48228 9.066 2.51622 8.77507 2.61683C8.61142 2.6726 8.41747 2.72957 8.24534 2.75987C7.88895 2.8217 7.54348 2.92837 7.29255 3.21566C7.22952 3.28718 7.20891 3.39022 7.158 3.47143C7.10709 3.55386 7.03072 3.61811 6.98465 3.70296C6.92404 3.81449 6.91556 3.94661 6.89616 4.07026C6.86707 4.24239 6.82101 4.41089 6.78464 4.58181C6.69251 5.02547 6.67312 5.56247 6.74827 6.00856C6.77615 6.17827 6.85495 6.34192 6.93253 6.50556C6.98829 6.62194 7.04284 6.73709 7.0792 6.85468C7.16648 7.13348 7.25012 7.42805 7.40771 7.67655C7.60409 7.98808 7.97502 8.18082 8.28898 8.35295C8.37626 8.40144 8.50717 8.44144 8.58112 8.50933C8.82477 8.72873 9.15691 8.7651 9.4636 8.82207C9.71452 8.88996 9.98727 8.79541 10.2285 8.91541C10.5206 8.93238 10.814 8.87662 11.1049 8.92996C11.3243 8.97724 11.4807 8.83298 11.6577 8.92269C11.9316 8.86571 12.2068 8.87905 12.482 8.87905C12.8553 8.94208 13.2202 9.05845 13.5705 9.20028C13.7814 9.37847 14.0748 9.43302 14.2578 9.64394C14.4809 9.77729 14.7039 9.9179 14.9367 10.0282C15.1112 10.0343 15.31 10.2391 15.4191 10.2137C15.5561 10.2125 15.7488 10.3397 15.9343 10.3058C16.0519 10.347 16.184 10.3579 16.2968 10.4101C16.3586 10.4379 16.4034 10.4876 16.4689 10.507C16.6701 10.5664 16.9853 10.5082 17.1877 10.4658C17.4023 10.4198 17.5999 10.3664 17.8241 10.3591C17.9793 10.3555 18.1357 10.3167 18.2775 10.2561C18.4266 10.1919 18.5696 10.17 18.7212 10.1215C18.903 10.0646 19.0594 9.94821 19.2375 9.8779C19.4788 9.78213 19.7067 9.68395 19.9394 9.56879C20.1661 9.45484 20.3855 9.32877 20.6122 9.21483C20.7892 9.12634 20.8534 8.98693 20.9843 8.84753C21.0013 8.82814 21.0219 8.80631 21.0413 8.7845C20.9407 8.69964 20.8558 8.70207 20.7407 8.65358C20.6461 8.61479 20.5346 8.50205 20.4243 8.51296C20.3491 8.52145 20.2849 8.57963 20.2073 8.59418C20.0752 8.62085 19.9394 8.56266 19.8061 8.60145C19.6885 8.63661 19.5964 8.75904 19.4703 8.78934C19.3721 8.81238 19.2763 8.77601 19.1806 8.79541C19.1054 8.81116 19.0497 8.85965 18.9733 8.87177C18.6339 8.92511 18.3151 8.93845 17.949 8.93723C17.4302 8.93723 16.9526 8.92147 16.4956 8.65964C16.3077 8.55297 16.1089 8.48751 15.9185 8.3869C15.7779 8.31295 15.6907 8.19658 15.5658 8.10566C15.2943 7.90929 14.9767 7.76989 14.6773 7.622C14.4251 7.49714 14.1887 7.29834 13.9184 7.21712C13.5402 7.10318 13.1353 7.13591 12.745 7.13591C12.1947 7.13591 11.6443 7.13106 11.094 7.13712C10.8128 7.13954 10.5388 7.14197 10.2649 7.07166C10.0661 7.01954 9.88059 6.92862 9.68664 6.86195C9.30116 6.72861 9.06963 6.4195 8.71688 6.23282C8.42959 6.0813 8.28413 6.03038 8.29746 5.68006C8.30474 5.4958 8.27928 5.30549 8.29504 5.12245C8.30716 4.98426 8.37141 4.92001 8.42353 4.79758C8.48535 4.64969 8.50354 4.48119 8.64294 4.37937C8.75689 4.29451 8.92174 4.223 9.04539 4.1539C9.21146 4.06056 9.41026 3.93207 9.59815 3.89207C9.74604 3.86055 9.83817 3.86055 9.97757 3.80842C10.0709 3.77448 10.123 3.76115 10.2236 3.73812C10.5121 3.67145 10.7728 3.63144 11.054 3.52962C11.2249 3.4678 11.4055 3.46659 11.5752 3.39991C11.768 3.32476 11.9183 3.18051 12.1159 3.10899C12.3595 3.0205 12.6299 2.92716 12.8784 2.85927C13.4857 2.69078 14.0251 2.37561 14.6373 2.2156C15.0106 2.11741 15.3779 1.98286 15.7585 1.9174C16.2446 1.83376 16.7428 1.87012 17.2338 1.86891C17.5102 1.8677 17.8084 1.83254 18.0823 1.87861C18.2884 1.91376 18.4848 2.00467 18.6787 2.07862C18.8666 2.14893 19.0787 2.15499 19.2606 2.2253C19.4145 2.28469 19.4727 2.43016 19.5794 2.54532C19.6897 2.66411 19.8012 2.75503 19.8776 2.90291C19.9637 3.06898 19.9927 3.25688 20.0946 3.41567C20.2679 3.69084 20.5576 3.92601 20.7782 4.16481C21.0643 4.47635 21.4183 4.79152 21.605 5.17215C21.828 5.62915 22.222 5.9625 22.3723 6.45465C22.4838 6.82195 22.5274 7.1456 22.5105 7.52866C22.4959 7.89111 22.4462 8.2487 22.3977 8.6063C22.4002 8.61236 22.4038 8.62085 22.405 8.62691C22.4135 8.66206 22.4038 8.69479 22.4038 8.73116C22.4038 8.84874 22.4765 8.94208 22.5008 9.0536C22.5541 9.29968 22.5432 9.55545 22.542 9.80517C22.542 10.0197 22.5565 10.2355 22.5238 10.4488C22.4802 10.7349 22.422 11.0368 22.3311 11.3119C22.2474 11.5677 22.1929 11.8356 22.0983 12.0877C22.0208 12.2926 21.8983 12.4841 21.811 12.6853C21.7674 12.7884 21.7226 12.8914 21.6777 12.9945C21.5201 13.3618 21.3625 13.7387 21.2231 14.1133C21.1698 14.2551 21.1213 14.3982 21.068 14.5388C21.0219 14.6588 20.9722 14.8709 20.8789 14.9631C20.8655 14.9752 20.8401 14.9691 20.8255 14.9849C20.8049 15.0067 20.7952 15.0346 20.7795 15.06C20.6837 15.214 20.6158 15.3861 20.5358 15.5486C20.2449 16.145 19.823 16.6965 19.3382 17.1462C18.8848 17.5657 18.4023 17.9572 17.9138 18.3354C17.4883 18.6639 17.018 18.9185 16.5634 19.2033C16.3355 19.3476 16.1052 19.5052 15.8592 19.6155C15.5803 19.7379 15.2737 19.8882 14.9718 19.9404C14.8882 19.9549 14.8082 19.95 14.7257 19.9585C14.6215 19.9694 14.5282 20.0252 14.4324 20.0616C14.2966 20.1161 14.156 20.1379 14.019 20.184C13.8239 20.2495 13.6408 20.3355 13.4384 20.384C13.3293 20.4107 13.2166 20.4446 13.1111 20.4834C12.9547 20.5416 12.8153 20.6204 12.6529 20.6568C12.5026 20.6919 12.3765 20.761 12.2432 20.8325C12.0383 20.9428 11.808 20.961 11.5995 21.0568C11.4286 21.1344 11.288 21.2435 11.1376 21.3526C11.0358 21.4265 10.9122 21.4483 10.8055 21.515C10.5073 21.7053 10.2673 21.9938 10.0588 22.275C9.83695 22.5757 9.73998 22.9514 9.82362 23.3175C9.8612 23.4812 9.89271 23.6315 9.97999 23.7733C10.02 23.8376 10.0782 23.9818 10.1655 24C10.2018 23.897 10.1715 23.726 10.1715 23.6133C10.1715 23.4691 10.1485 23.3151 10.2127 23.183C10.3049 22.9927 10.3727 22.7939 10.5158 22.6339C10.5934 22.5442 10.7013 22.4775 10.7849 22.3914C10.8904 22.2847 11.0091 22.2108 11.134 22.1308C11.4722 21.915 11.8916 21.8484 12.282 21.7914C12.625 21.7417 12.9608 21.5999 13.2966 21.5186C13.5329 21.4604 13.773 21.4217 14.013 21.3829C14.2057 21.3526 14.3827 21.2726 14.5754 21.2738C14.636 21.275 14.6967 21.2798 14.7548 21.2677C14.9597 21.2289 15.1658 21.178 15.3706 21.1356C15.5173 21.1053 15.6507 21.0604 15.8022 21.0653C15.9452 21.0713 16.0555 21.0253 16.1901 20.9683C16.7792 20.7149 17.3683 20.441 17.9344 20.1392C18.5878 19.7912 19.1672 19.3512 19.7745 18.933C20.0352 18.7524 20.2885 18.5621 20.5322 18.3596C20.6388 18.2699 20.7419 18.1511 20.8667 18.0869C20.9067 18.0663 20.9467 18.053 20.9843 18.0251C21.1734 17.882 21.2413 17.6044 21.4316 17.4699C21.6183 17.339 21.7226 17.0468 21.8813 16.8468C22.0038 16.945 21.9601 16.6638 22.062 16.6153C22.2183 16.3753 22.4293 16.1753 22.5275 15.8989C22.7129 15.6589 22.8402 15.3825 23.0184 15.1376C23.1626 14.9449 23.1602 14.6782 23.3396 14.5049C23.5421 14.3679 23.4596 14.0866 23.6306 13.8927C23.719 13.6466 23.8221 13.3981 23.9263 13.1496C24.0657 13.0175 24.0512 12.706 24.1227 12.6235C24.2488 12.5799 24.1094 12.3084 24.2597 12.2332C24.33 11.9726 24.4415 11.7241 24.4694 11.4525C24.5336 11.1786 24.6052 10.9034 24.6124 10.6198C24.7627 10.3458 24.69 10.0209 24.7785 9.73001C24.8234 9.42817 24.8052 9.12512 24.8173 8.82207C24.8464 8.49114 24.8331 8.15779 24.8137 7.82686Z" fill="black"/>
  <path d="M7.32855 8.9651C7.19763 8.8948 7.24248 8.59902 7.10066 8.46689C6.98792 8.28506 6.817 8.15051 6.70912 7.96625C6.71275 8.24991 6.70305 8.55417 6.50183 8.7457C6.28242 8.95419 5.87876 9.05966 5.59874 9.15906C5.45328 9.20997 5.35994 9.3227 5.24963 9.42331C5.13811 9.52514 5.01325 9.6003 4.90052 9.69848C4.70414 9.8694 4.53807 10.0791 4.34775 10.2573C4.21805 10.3797 4.07501 10.4791 3.93076 10.5858C3.80348 10.6804 3.71862 10.684 3.59619 10.7458C3.37072 10.8586 3.22526 11.0804 3.01555 11.2149C2.81796 11.3422 2.63492 11.3604 2.40824 11.3665C2.28096 11.3689 2.05185 11.4222 1.98276 11.301C1.93063 11.2101 2.05306 10.9822 2.08094 10.8961C2.13913 10.7143 2.17792 10.541 2.28096 10.3761C2.41309 10.1664 2.57188 9.99547 2.68462 9.77243C2.8519 9.4415 3.03494 9.15057 3.16829 8.80631C3.33557 8.37355 3.38648 7.91777 3.65559 7.53107C3.90167 7.17711 4.15744 6.85346 4.4714 6.56253C4.7999 6.25948 5.10295 5.96613 5.3757 5.6061C5.49571 5.44852 5.63753 5.28972 5.73572 5.11638C5.79754 5.00849 5.84724 4.89818 5.89816 4.78787C5.89331 4.72241 5.89209 4.65695 5.88361 4.59028C5.85209 4.34663 5.89452 4.0751 5.75996 3.85812C5.67875 3.7272 5.57571 3.69447 5.43025 3.63022C5.40964 3.58537 5.41085 3.53688 5.39509 3.49324C5.38297 3.46052 5.35509 3.43869 5.34418 3.40597C5.32842 3.36111 5.37085 3.22292 5.2763 3.25929C5.25569 3.26778 5.24478 3.30293 5.2266 3.31505C5.21326 3.32354 5.14296 3.34657 5.12962 3.35021C5.03749 3.37202 4.92597 3.36111 4.83142 3.35869C4.71505 3.35505 4.68232 3.31263 4.67868 3.2011C4.67505 3.06898 4.69566 2.92472 4.64474 2.79866C4.57686 2.63258 4.44958 2.62289 4.29199 2.64955C4.18168 2.66774 4.08834 2.71016 3.98894 2.75986C3.66529 2.92109 3.33072 3.0023 3.15859 3.36111C3.00221 3.68841 3.10889 4.07146 3.32708 4.34299C3.5271 4.64483 3.67741 5.04849 3.52831 5.40367C3.418 5.64005 3.16101 5.75157 2.99373 5.9431C2.76947 6.16856 2.51612 6.36252 2.24944 6.53465C1.86639 6.84618 1.74032 7.34318 1.57303 7.78806C1.54152 7.87291 1.47606 8.00989 1.52091 8.09717C1.56576 8.18081 1.68334 8.19293 1.76699 8.17718C1.91124 8.14808 1.97306 7.94928 2.09549 7.87291C2.16337 7.8317 2.25914 7.76988 2.30763 7.70199C2.31854 7.90928 2.20338 8.16263 2.1161 8.34688C2.02518 8.54326 1.76941 8.6269 1.61182 8.76145C1.38029 8.95783 1.20089 9.24633 1.15604 9.54938C1.14028 9.65363 1.15604 9.75788 1.14513 9.86092C1.12816 10.0355 1.05785 10.2076 1.00694 10.3749C0.932993 10.7337 0.671159 11.0598 0.312348 11.1628C-0.0901013 11.3616 -0.103435 12.0004 0.271134 12.238C0.415385 12.3302 0.564486 12.3714 0.724496 12.4259C0.839654 12.4659 0.93663 12.5265 1.04694 12.5726C1.10513 12.5981 1.15725 12.6138 1.2215 12.6114C1.33302 12.6078 1.42878 12.5581 1.54394 12.5811C1.87002 12.6465 2.0967 12.9641 2.42278 13.0466C2.6131 13.0951 2.80463 13.1035 2.98767 13.1642C3.15132 13.2187 3.27496 13.2102 3.45073 13.2187C3.21314 13.112 3.04464 12.8878 2.87251 12.7011C2.74159 12.5593 2.82281 12.4611 2.96949 12.3823C3.15738 12.2829 3.36345 12.2102 3.55619 12.1217C3.66286 12.072 3.7756 12.0356 3.87985 11.9811C3.92591 11.9568 3.97197 11.9314 4.01319 11.8974C4.03137 11.8817 4.1041 11.781 4.11744 11.7798C4.39745 11.7544 4.60716 11.5677 4.84839 11.4477C5.15871 11.398 5.36236 11.1143 5.66178 11.0283C5.94058 10.9446 6.10544 10.6973 6.32849 10.5482C6.47516 10.3555 6.69457 10.2973 6.81215 10.084C6.97095 9.89728 7.1055 9.68151 7.16611 9.4415C7.11884 9.24755 7.3928 9.10814 7.32855 8.9651Z" fill="black"/>
</svg>
