<svg width="13" height="24" viewBox="0 0 13 24" fill="#000000" xmlns="http://www.w3.org/2000/svg">
  <path d="M4.35829 12.0152C4.32972 12.3195 4.43034 12.5158 4.5943 12.7791C5.01416 13.4536 5.59674 13.9791 5.98554 14.6796C6.43769 15.4945 6.8178 16.3479 7.21902 17.1876C7.61527 18.0186 8.19785 18.7192 8.74068 19.4583C9.07234 19.9092 9.41643 20.3514 9.7456 20.8048C9.92696 21.0545 10.0909 21.3178 10.2686 21.57C10.2934 21.6048 10.4822 21.9041 10.5816 21.9849C10.9841 22.3103 11.2126 22.7476 11.5058 23.1662C11.6436 23.3624 11.8188 23.6221 12.0088 23.7761C12.0946 23.8444 12.2436 23.9487 12.348 23.9873C12.5256 24.0531 12.6796 23.8494 12.7678 23.7202C12.8585 23.586 12.9579 23.432 12.9243 23.2618C12.8982 23.1302 12.7778 22.9873 12.7156 22.873C12.579 22.6233 12.497 22.3737 12.4225 22.1016C12.3417 21.8097 12.1765 21.5737 12.0474 21.3029C11.9169 21.0321 11.784 20.8147 11.5828 20.5924C11.0872 20.0496 10.789 19.298 10.4884 18.6372C10.1406 17.8733 9.75181 17.1391 9.36301 16.3951C9.18662 16.0597 9.00899 15.7119 8.85869 15.3641C8.70714 15.0163 8.61522 14.6449 8.47734 14.2921C8.30965 13.8623 8.01153 13.4971 7.80781 13.0859C7.65254 12.7741 7.49975 12.481 7.301 12.1953C7.2302 12.0934 7.1507 11.9978 7.08362 11.8934C6.98176 11.7382 6.9122 11.5655 6.80662 11.414C6.75569 11.3407 6.69482 11.2761 6.6501 11.1991C6.60787 11.1258 6.58799 11.0575 6.52713 10.9941C6.429 10.8947 6.27124 10.8463 6.15199 10.7805C5.85635 10.6177 5.48494 10.46 5.14583 10.4277C4.76945 10.3917 4.21047 10.4761 4.06017 10.8823C3.98812 11.0761 3.95334 11.4227 4.0229 11.614C4.06389 11.7282 4.15209 11.7891 4.21171 11.8897C4.26761 11.9841 4.26264 12.3009 4.35829 12.0152Z"/>
  <path d="M10.0358 9.21035C9.98237 9.01657 9.99355 8.81534 9.94883 8.62031C9.85319 8.20543 9.61966 7.70856 9.27433 7.38559C9.19111 7.30733 9.08304 7.25392 8.99236 7.18312C8.71535 6.96574 8.68182 6.61669 8.53151 6.34092C8.40854 6.1136 8.2868 5.92479 8.04706 5.7658C7.86447 5.6453 7.69926 5.53475 7.56137 5.37451C6.94401 4.65405 6.8198 3.72863 6.48565 2.915C6.38628 2.67278 6.33783 2.41938 6.24343 2.17591C6.17883 2.0107 6.07946 1.85046 6.03847 1.68028C5.96145 1.3598 5.90555 0.998328 5.89437 0.672878C5.88816 0.490278 5.95027 0.298984 5.9304 0.12011C5.90804 -0.0786375 5.79997 0.00583094 5.71053 0.112658C5.58756 0.259235 5.43229 0.434381 5.35527 0.600832C5.20621 0.928767 5.14907 1.2803 5.0087 1.61072C4.91181 1.83928 4.79629 2.06411 4.70064 2.29392C4.63978 2.44174 4.61369 2.59328 4.53047 2.73613C4.46339 2.85165 3.48083 4.21183 3.11811 3.66404C2.8585 3.27275 3.08954 2.8765 2.94918 2.47527C2.90322 2.34485 2.81005 2.21814 2.78273 2.08399C2.76782 2.00822 2.81378 1.9076 2.68832 1.91754C2.64609 1.92002 2.56783 1.99083 2.53926 2.01567C2.35418 2.18461 2.34672 2.46658 2.30822 2.68023C2.23244 3.09885 2.05978 3.48516 1.96289 3.89881C1.91817 4.0901 1.83992 4.19941 1.71818 4.35096C1.64117 4.44909 1.60142 4.5907 1.55297 4.70249C1.4536 4.93105 1.48714 5.22297 1.47223 5.46519C1.45236 5.74841 1.46354 6.04777 1.41509 6.3285C1.39397 6.44527 1.35423 6.56824 1.31075 6.68997C1.25734 6.54588 1.19895 6.40427 1.12318 6.26888C0.956729 5.97324 0.993995 5.66518 0.920707 5.3447C0.867293 5.11365 0.735622 4.91615 0.714505 4.69131C0.586561 4.69504 0.549296 4.88385 0.524452 4.95962C0.453648 5.177 0.39154 5.4006 0.324462 5.61922C0.192792 6.05274 0.177886 6.48998 0.261111 6.92971C0.309556 7.18933 0.356759 7.56943 0.205213 7.82284C0.149316 7.91724 0.0772697 7.99177 0.0462153 8.09736C-0.0506743 8.41784 0.0238561 8.79795 0.0959023 9.11843C0.170433 9.45381 0.222604 9.80908 0.418867 10.1122C0.519484 10.2687 0.616374 10.4066 0.67724 10.5792C0.729411 10.7258 0.759224 10.8699 0.854871 11.0053C0.925675 11.1059 1.02878 11.1717 1.10703 11.2649C1.17784 11.3494 1.20144 11.4512 1.25734 11.5432C1.28466 11.5891 1.3182 11.6326 1.3505 11.6761C1.39894 11.9357 1.36789 12.2636 1.5095 12.4947C1.64489 12.7158 1.7716 12.9642 2.02748 13.1021C2.34175 13.271 2.58522 13.4921 2.82993 13.7232C3.08209 13.9617 3.59138 13.8946 3.43363 13.7393C3.28953 13.5977 3.10693 13.4834 3.00259 13.3182C2.91191 13.1754 2.90322 13.0077 2.87589 12.8512C2.84235 12.6648 2.78521 12.481 2.7554 12.2947C2.71813 12.0524 2.7703 11.8375 2.81005 11.6015C2.85726 11.327 2.79639 11.0525 2.63739 10.809C2.43989 10.5097 2.44982 10.2165 2.47591 9.88112C2.4846 9.77554 2.53553 9.69231 2.55044 9.58921C2.57156 9.43394 2.54671 9.26376 2.54671 9.106C2.54796 8.67745 2.56783 8.28617 2.66596 7.86259C2.7467 7.51478 2.78024 7.16076 2.86471 6.81419C2.9057 6.64153 2.99762 6.48626 3.05352 6.31856C3.10693 6.15211 3.09824 5.9633 3.16656 5.8043C3.26842 5.8602 3.35164 6.04032 3.41996 6.13969C3.533 6.30117 3.64355 6.44154 3.78392 6.58687C3.91311 6.72103 3.96528 6.81295 4.16154 6.88127C4.25967 6.91481 4.33917 6.93841 4.42737 6.98561C4.53544 7.04399 4.605 7.13591 4.74288 7.13964C4.78635 7.09617 4.76772 7.02163 4.77642 6.96698C4.79132 6.86015 4.83977 6.74836 4.86461 6.64153C4.92175 6.3844 4.98635 6.12975 5.05715 5.87511C5.14286 5.56581 5.26087 5.27389 5.37142 4.96956C5.40744 4.86895 5.41986 4.62672 5.55029 4.58325C5.75774 4.98198 5.80866 5.45525 5.92046 5.87759C6.0335 6.30366 6.12293 6.62787 6.4695 6.93841C6.74278 7.18312 6.95271 7.46758 7.1055 7.77439C7.29927 8.16319 7.3825 8.56938 7.60112 8.95073C7.73528 9.18799 7.90173 9.42152 8.01601 9.66623C8.14768 9.94944 8.2073 10.2662 8.30668 10.5593C8.41102 10.8699 8.53027 11.1693 8.6756 11.4686C8.79361 11.7108 8.90541 11.9406 8.97745 12.1953C9.02093 12.3493 9.11037 12.5356 9.1998 12.6735C9.22465 12.7096 9.52153 13.1207 9.53146 13.1108C9.63084 13.0126 9.73145 12.8474 9.79232 12.7269C9.96001 12.3916 10.0544 12.0239 10.0793 11.65C10.1339 10.8326 10.2581 10.0128 10.0358 9.21035Z"/>
</svg>
