<svg width="21" height="24" viewBox="0 0 21 24" fill="#000000" xmlns="http://www.w3.org/2000/svg">
  <path d="M3.51901 17.3697C3.50407 17.3747 3.48789 17.3797 3.4717 17.3847C3.24637 17.4544 3.01979 17.5739 2.80816 17.681C2.66624 17.7532 2.51809 17.8129 2.37866 17.8951C2.19566 18.0022 2.17325 18.1864 2.111 18.3669C2.0749 18.4703 2.02261 18.5574 1.94543 18.6333C1.86949 18.7105 1.76242 18.7578 1.69395 18.8412C1.63918 18.9072 1.61303 19.0093 1.61303 19.0915C1.61552 19.2085 1.60058 19.3355 1.61677 19.4513C1.62922 19.5396 1.65162 19.6318 1.66656 19.7202C1.6815 19.8048 1.67279 19.8895 1.68524 19.9716C1.70516 20.0824 1.78359 20.2169 1.82716 20.3215C1.86451 20.4123 1.90185 20.487 1.96783 20.5605C2.12345 20.7298 2.23549 20.9327 2.39235 21.1045C2.49817 21.2215 2.61644 21.3236 2.73097 21.4319C2.82683 21.5216 2.909 21.6236 3.00112 21.717C3.08702 21.8029 3.16421 21.8876 3.27002 21.9498C3.40448 22.0295 3.55636 22.0855 3.69579 22.1577C3.99332 22.3096 4.28464 22.4142 4.59462 22.5374C4.86477 22.6445 5.11873 22.7515 5.39884 22.83C5.64285 22.8984 5.8744 22.9756 6.096 23.1014C6.24663 23.1873 6.39478 23.2657 6.55662 23.3267C6.76203 23.4051 6.96744 23.4736 7.16663 23.5682C7.34839 23.6554 7.5289 23.6915 7.72436 23.7301C8.0082 23.7873 8.28955 23.8433 8.56841 23.9168C8.86471 23.994 9.1361 23.9965 9.44235 23.9952C9.75731 23.994 10.076 24.0102 10.391 23.989C10.6761 23.9691 10.9636 23.9205 11.245 23.8707C11.4927 23.8284 11.723 23.7363 11.9671 23.6803C12.2235 23.6205 12.4849 23.608 12.7389 23.5334C13.014 23.4512 13.2929 23.3541 13.578 23.3205C13.8195 23.2931 14.0461 23.2321 14.2764 23.1599C14.5926 23.0603 14.9237 23.0018 15.2362 22.8947C15.4977 22.8051 15.7491 22.6905 15.9994 22.576C16.206 22.4814 16.4102 22.4079 16.6031 22.2859C16.8509 22.1291 17.0775 21.9386 17.2941 21.7407C17.6377 21.4269 17.9863 21.1232 18.2763 20.7584C18.5465 20.4173 18.7818 20.0389 18.8316 19.5969C18.8515 19.4264 18.8639 19.2558 18.8701 19.0828C18.8764 18.9271 18.9548 18.7715 18.91 18.6134C18.8851 18.5263 18.8191 18.4391 18.7668 18.3619C18.7158 18.286 18.6461 18.2325 18.5863 18.164C18.5328 18.1018 18.5029 18.0233 18.4469 17.9636C18.3871 17.9001 18.305 17.8602 18.229 17.8129C18.107 17.7345 18.0323 17.6349 17.9228 17.5465C17.8294 17.4718 17.7111 17.4307 17.609 17.3673C17.5269 17.3175 17.4584 17.2477 17.3738 17.2004C17.3078 17.1643 17.2455 17.1457 17.1808 17.1021C17.0003 16.9826 16.8061 17.0112 16.5845 17.0112H16.1836C16.1052 17.0112 15.9956 16.9963 15.9209 17.0174C15.9222 17.0784 15.9894 17.0871 16.0454 17.1108C16.1388 17.1506 16.2147 17.2054 16.2994 17.2565C16.3666 17.2963 16.4475 17.3287 16.5098 17.3747C16.5695 17.4183 16.6019 17.4718 16.6567 17.5154C16.7027 17.5515 16.7637 17.5714 16.8148 17.6013C16.9131 17.6573 16.9978 17.7295 17.0949 17.7868C17.2356 17.869 17.3264 17.9287 17.436 18.0408C17.5431 18.1478 17.6974 18.2076 17.797 18.3209C17.9302 18.474 17.9302 18.7217 17.9302 18.906C17.9315 19.1201 17.858 19.2981 17.7833 19.5023C17.7149 19.689 17.6489 19.8994 17.5331 20.07C17.4447 20.2007 17.3563 20.2219 17.2032 20.2891C17.0077 20.3737 16.8459 20.4833 16.6355 20.5455C16.4102 20.6115 16.1699 20.6563 15.9396 20.7086C15.7143 20.7597 15.484 20.7696 15.2574 20.8144C14.9872 20.8692 14.7183 20.929 14.4507 20.9862C12.9406 21.3087 11.3558 21.7568 9.77474 21.6286C9.5656 21.6112 9.35645 21.5813 9.14855 21.5527C8.92695 21.5216 8.71656 21.534 8.49247 21.5278C8.28955 21.5228 8.07543 21.4954 7.87873 21.4543C7.70319 21.4182 7.51894 21.4207 7.34715 21.3734C7.24257 21.3448 7.15169 21.2863 7.04961 21.2514C6.70974 21.1344 6.34125 21.2066 5.99267 21.1307C5.75364 21.0771 5.52084 21.0024 5.28182 20.9514C5.12869 20.9178 4.99424 20.863 4.85108 20.7995C4.70293 20.7323 4.54856 20.7012 4.39668 20.6501C4.23484 20.5978 4.11408 20.5069 3.94602 20.4721C3.76799 20.436 3.62981 20.3364 3.4717 20.248C3.31858 20.1621 3.19035 20.0625 3.06959 19.9355C2.98369 19.8459 2.86169 19.7276 2.80193 19.6181C2.67495 19.3815 2.69985 19.0815 2.7621 18.8325C2.80069 18.6782 2.79446 18.4653 2.8704 18.3258C2.89655 18.2798 2.93763 18.2574 2.97747 18.225C3.08951 18.1304 3.14678 17.9847 3.22272 17.864C3.32729 17.6959 3.45552 17.6984 3.62607 17.6237C3.78667 17.5527 3.91738 17.4569 4.06553 17.3648C4.04063 17.2776 3.9373 17.3038 3.86385 17.3038C3.73065 17.3038 3.63852 17.3324 3.51901 17.3697Z"/>
  <path d="M4.48223 18.271C4.4897 18.2424 4.49717 18.2138 4.50464 18.1851C4.57933 17.8913 4.67395 17.6013 4.73246 17.3037C4.77852 17.0647 4.7835 16.8195 4.78225 16.5754C4.78225 16.4796 4.77976 16.4061 4.82458 16.3215C4.91048 16.1584 4.85197 16.0289 4.85073 15.8459C4.84948 15.5895 4.82458 15.3878 4.72748 15.15C4.65776 14.9757 4.55817 14.8562 4.44364 14.7068C4.27433 14.4852 4.09879 14.2761 3.91205 14.0669C3.77387 13.9126 3.63319 13.7582 3.47633 13.6237C3.2398 13.4208 2.9821 13.3175 2.69576 13.1942C2.33349 13.0386 2.00857 12.827 1.67742 12.6129C1.40478 12.4361 1.1558 12.2108 0.944159 11.9655C0.744971 11.7364 0.561967 11.4987 0.43623 11.221C0.36776 11.0716 0.344106 10.9123 0.288085 10.7604C0.247002 10.6484 0.19098 10.545 0.154878 10.4318C-0.0679634 9.74083 -0.021901 8.97769 0.11504 8.27182C0.218369 7.74273 0.423781 7.14143 0.820911 6.76297C0.891872 6.69574 0.944159 6.61109 1.01761 6.54511C1.08235 6.4866 1.15455 6.43805 1.22053 6.37953C1.36121 6.2538 1.53674 6.16416 1.63758 5.99734C1.60397 6.07951 1.5218 6.14673 1.47948 6.22516C1.33382 6.49407 1.25788 6.79534 1.10724 7.06051C1.05994 7.14267 1.00392 7.21986 0.966567 7.307C0.916771 7.42527 0.906811 7.54976 0.898097 7.67674C0.888137 7.85601 0.865729 8.03404 0.829626 8.21081C0.75742 8.56686 0.786054 8.95528 0.864484 9.31008C0.903076 9.48811 0.986486 9.6487 1.06243 9.81303C1.15082 10.001 1.20933 10.1927 1.32759 10.367C1.59152 10.7529 1.93387 11.1613 2.33972 11.4053C2.51152 11.5099 2.69576 11.6045 2.87379 11.6978C2.98085 11.7551 3.09414 11.7999 3.2012 11.8584C3.2871 11.9057 3.3618 11.9717 3.4477 12.0178C3.58339 12.0875 3.73403 12.1722 3.87471 12.2269C4.07638 12.3054 4.29922 12.3079 4.47974 12.4386C4.54572 12.4871 4.60174 12.5456 4.67021 12.5892C4.77105 12.6515 4.88558 12.6863 4.98518 12.751C5.08477 12.8133 5.17192 12.8917 5.25657 12.9714C5.42339 13.127 5.59519 13.2391 5.72964 13.4295C5.80807 13.5416 5.88028 13.6574 5.95373 13.7731C6.01971 13.8752 6.10561 13.9611 6.17159 14.062C6.27118 14.2176 6.31973 14.3894 6.38073 14.5612C6.4517 14.7641 6.55751 14.9458 6.56498 15.1674C6.56747 15.2384 6.55378 15.3094 6.56498 15.3816C6.58117 15.4812 6.62723 15.5733 6.64715 15.6716C6.71313 16.009 6.61976 16.3439 6.64964 16.6875C6.67454 16.9888 6.66707 17.2875 6.66582 17.5888C6.66458 17.859 6.72433 18.0893 6.76542 18.3507C6.79654 18.5574 6.84509 18.7603 6.87372 18.9669C6.89862 19.1462 6.8675 19.3267 6.8787 19.506C6.88493 19.6056 6.91356 19.7251 6.9422 19.8222C6.95838 19.8795 7.02934 19.999 6.96834 20.0426C6.94717 20.0575 6.9036 20.0363 6.87995 20.0413C6.84136 20.0488 6.82766 20.0774 6.79405 20.0948C6.70068 20.1409 6.59362 20.0961 6.49278 20.1173C6.44049 20.1272 6.40439 20.1658 6.35584 20.1807C6.30604 20.1944 6.255 20.187 6.20396 20.1857C6.11183 20.1857 6.04461 20.182 5.95622 20.1596C5.75205 20.1085 5.56531 20.0065 5.36488 19.9479C5.16943 19.8907 4.96899 19.8757 4.77105 19.8309C4.66523 19.8073 4.61295 19.7363 4.51584 19.694C4.46604 19.6716 4.4287 19.6666 4.38512 19.6317C4.34404 19.5981 4.28055 19.5533 4.24569 19.5135C4.19963 19.4624 4.21084 19.3952 4.21208 19.3317C4.21208 19.2707 4.21457 19.2284 4.22951 19.1724C4.24569 19.1089 4.2432 19.0416 4.2681 18.9794C4.36147 18.7478 4.42123 18.5125 4.48223 18.271Z"/>
  <path d="M13.9853 19.3429C13.826 19.1101 13.7177 18.835 13.6156 18.5735C13.511 18.3021 13.3355 18.0668 13.2222 17.7992C13.0778 17.4568 12.9122 17.1269 12.8288 16.7609C12.7528 16.431 12.7877 16.0824 12.7877 15.7451C12.7877 15.4587 12.8076 15.1786 12.8226 14.8935C12.83 14.7267 12.8724 14.586 12.9222 14.4292C12.972 14.2698 12.9968 14.1067 13.0442 13.9474C13.0927 13.7856 13.1537 13.62 13.2209 13.4656C13.2969 13.2951 13.4189 13.1556 13.4948 12.9851C13.7226 12.4709 14.1372 12.0663 14.6439 11.8211C14.8281 11.7314 15.0236 11.6792 15.2128 11.602C15.346 11.5484 15.4755 11.4862 15.6099 11.4351C15.7531 11.3829 15.8925 11.4078 16.032 11.3393C16.1565 11.2795 16.2648 11.1874 16.3955 11.1413C16.4739 11.1127 16.5573 11.1065 16.637 11.0779C16.7603 11.0343 16.8723 10.9671 16.9906 10.911C17.1673 10.8301 17.3889 10.8015 17.5807 10.8401C17.6441 10.8525 17.7064 10.8737 17.7724 10.8849C18.04 10.9272 18.3226 10.8998 18.5878 10.9683C18.7397 11.0069 18.8741 11.0044 19.0136 11.0816C19.2028 11.1849 19.3223 11.343 19.4866 11.475C19.636 11.597 19.7817 11.7227 19.9224 11.8547C20.0132 11.9393 20.1004 12.029 20.185 12.1211C20.2411 12.1846 20.2971 12.2481 20.3543 12.3116C20.434 12.4037 20.5149 12.4946 20.5946 12.5879C20.7515 12.7734 20.8212 12.9602 20.8859 13.1905C20.9357 13.3635 20.9382 13.5042 20.9382 13.6822C20.937 13.8179 20.9531 13.9586 20.9295 14.0918C20.9121 14.1939 20.8897 14.2947 20.8747 14.3956C20.8648 14.4628 20.8797 14.535 20.8598 14.5997C20.8349 14.6807 20.7714 14.7516 20.7428 14.8325C20.6954 14.9633 20.693 15.1687 20.5871 15.2683C20.5697 15.1961 20.5822 15.1139 20.5822 15.0392C20.5822 14.8724 20.5921 14.7043 20.5772 14.5375C20.5373 14.1005 20.312 13.6399 20.0817 13.2764C19.9933 13.1357 19.8912 13.005 19.8004 12.8668C19.6821 12.685 19.5812 12.4734 19.3945 12.3502C19.2202 12.2344 19.0173 12.1933 18.8405 12.0825C18.6339 11.9518 18.4222 11.8422 18.1757 11.8223C17.8919 11.7987 17.6541 11.8746 17.3827 11.9443C17.1536 12.0028 16.9196 12.0589 16.6968 12.1423C16.5138 12.2107 16.337 12.2929 16.154 12.3614C15.712 12.5282 15.3211 12.9278 15.0721 13.3175C14.8667 13.6374 14.685 13.9798 14.5418 14.3308C14.4833 14.474 14.3961 14.6072 14.3501 14.7566C14.304 14.9097 14.319 15.0703 14.3165 15.2284C14.314 15.4139 14.3613 15.5882 14.3999 15.7687C14.4285 15.9069 14.4609 16.0414 14.5157 16.1721C14.6476 16.4883 14.7846 16.7958 14.9526 17.0958C15.1057 17.3697 15.351 17.5116 15.5726 17.7208C15.7133 17.8527 15.8552 17.9536 15.9573 18.1204C16.0382 18.2523 16.0444 18.4204 16.0643 18.5673C16.0867 18.7254 16.1652 18.9059 16.1303 19.0665C16.0855 19.2732 15.8178 19.4064 15.6635 19.5271C15.5489 19.618 15.4344 19.7114 15.2987 19.7687C15.1207 19.8446 14.924 19.8321 14.746 19.8969C14.6377 19.9367 14.624 19.9467 14.5667 19.8471C14.5069 19.7438 14.426 19.7213 14.3289 19.6628C14.2405 19.6106 14.1546 19.5471 14.0862 19.4711C14.0488 19.43 14.0152 19.3865 13.9853 19.3429Z"/>
  <path d="M12.2421 19.1524C12.2184 19.1026 12.2022 19.0504 12.1798 19.0006C12.0864 18.7889 11.9234 18.5997 11.774 18.4279C11.5785 18.2038 11.4105 17.9822 11.2536 17.7283C10.9436 17.2278 10.5726 16.7136 10.3747 16.1547C10.1606 15.5484 10.046 14.8873 9.99374 14.2487C9.96759 13.92 9.93896 13.5914 9.93896 13.2615C9.93896 12.9191 9.96759 12.5793 9.97631 12.2369C9.99125 11.6294 10.1618 11.1003 10.422 10.5538C10.534 10.316 10.6349 10.1019 10.788 9.88773C10.8527 9.79436 10.9175 9.71469 10.9536 9.60763C11.0395 9.35989 11.2524 9.16443 11.3905 8.94408C11.7926 8.30917 12.2047 7.67924 12.5496 7.01072C12.8832 6.36211 13.1907 5.71724 13.2467 4.98149C13.2679 4.70138 13.2754 4.44742 13.1571 4.18848C13.0388 3.93078 12.9479 3.67432 12.8508 3.40667C12.6678 2.89749 12.491 2.3796 12.1425 1.95509C11.9607 1.73349 11.7702 1.50318 11.576 1.29154C11.4055 1.1048 11.2088 0.929269 11.0021 0.783613C10.732 0.59314 10.4232 0.488568 10.1083 0.396444C9.85555 0.322993 9.61154 0.278175 9.37999 0.147458C9.2057 0.0491093 9.0588 0.0416392 8.85339 0.0403942C8.54091 0.0379044 8.23715 0.040396 7.92592 0.0154976C7.7479 0.00180345 7.56987 0.00802742 7.39185 0.00802742C7.27856 0.00802742 7.15033 -0.0156268 7.03953 0.0179861C6.86774 0.0690279 6.83288 0.232114 6.70092 0.326728C6.64987 0.361586 6.58887 0.374034 6.5341 0.398932C6.62373 0.42632 6.69594 0.423832 6.78557 0.440016C6.9387 0.468649 7.08311 0.528404 7.23872 0.550812C7.43168 0.579446 7.6234 0.623019 7.81637 0.656632C7.89853 0.671571 7.97821 0.701449 8.06162 0.712654C8.21723 0.735062 8.35293 0.711408 8.5073 0.75747C8.61685 0.791083 8.66291 0.842126 8.75628 0.898147C8.82973 0.93923 8.90941 0.967863 8.98659 1.00148C9.20943 1.10107 9.4273 1.23677 9.63022 1.37122C9.80824 1.48824 10.0087 1.53306 10.1892 1.64261C10.2838 1.69988 10.3846 1.75216 10.4705 1.82312C10.5365 1.87666 10.5876 1.94637 10.6511 2.00239C10.7158 2.0609 10.7955 2.09327 10.8627 2.14556C10.9299 2.19785 10.9834 2.26134 11.0432 2.31985C11.154 2.43189 11.2947 2.54394 11.3681 2.6871C11.4739 2.89127 11.5462 3.12905 11.5785 3.35687C11.5935 3.45771 11.6146 3.53987 11.6134 3.64445C11.6096 3.78761 11.652 3.92206 11.6507 4.06647C11.6495 4.19221 11.6358 4.32542 11.657 4.44867C11.6744 4.55075 11.6881 4.63914 11.6868 4.74247C11.6843 4.8819 11.6482 4.97278 11.5984 5.09603C11.5536 5.20682 11.5823 5.31887 11.525 5.43091C11.4603 5.56038 11.4416 5.69857 11.3619 5.82306C11.3171 5.89402 11.2561 5.95129 11.2187 6.02723C11.1702 6.12931 11.1714 6.2314 11.1528 6.3397C11.1353 6.44179 11.0955 6.5501 11.0594 6.64844C10.9934 6.82273 10.8888 6.96714 10.7942 7.12525C10.6311 7.40162 10.4917 7.6892 10.3087 7.95437C10.0709 8.30046 9.78832 8.61791 9.54058 8.95778C9.33019 9.24535 9.1198 9.53293 8.91563 9.82424C8.60814 10.2649 8.30189 10.7094 8.05788 11.1887C7.79769 11.6991 7.78275 12.278 7.63461 12.8245C7.49518 13.3449 7.55618 13.9113 7.55618 14.4454C7.55742 15.0019 7.60099 15.5534 7.65328 16.1074C7.69561 16.5456 7.70183 17.005 7.80267 17.4332C7.92343 17.9461 8.15374 18.4291 8.41891 18.8811C8.51228 19.0404 8.65046 19.1649 8.70897 19.3442C8.75753 19.4936 8.80234 19.6479 8.84841 19.7998C8.91065 20.0077 8.91563 20.238 9.02519 20.4297C9.07747 20.5206 9.15466 20.6053 9.25176 20.6451C9.34887 20.6849 9.41734 20.7335 9.50448 20.792C9.55926 20.8294 9.60158 20.8431 9.66383 20.8617C9.71487 20.858 9.75969 20.8729 9.79953 20.9065C9.8319 20.9414 9.87049 20.9638 9.91655 20.9738C10.0149 20.9937 10.1518 20.9688 10.2514 20.9688H10.7681C10.9747 20.9688 11.1851 20.98 11.3918 20.9725C11.5076 20.9675 11.6159 20.9177 11.7279 20.8904C11.8225 20.8667 11.9346 20.8318 12.0254 20.7933C12.0852 20.7671 12.14 20.7347 12.1898 20.6937C12.2582 20.6613 12.328 20.6314 12.3989 20.6053C12.491 20.5617 12.5757 20.5019 12.6641 20.4509C12.7824 20.3837 12.8732 20.4198 12.9965 20.3974C13.0326 20.2878 12.984 20.1496 12.9143 20.065C12.8222 19.9529 12.7338 19.8521 12.6554 19.7264C12.5906 19.6218 12.5384 19.5072 12.4562 19.4139C12.389 19.3404 12.313 19.2807 12.262 19.1923C12.2545 19.1786 12.2483 19.1661 12.2421 19.1524Z"/>
</svg>
