<?xml version="1.0" encoding="UTF-8" standalone="no"?>
<!-- Created with Inkscape (http://www.inkscape.org/) -->

<svg
   width="30.202564"
   height="24"
   viewBox="0 0 7.9910952 6.35"
   version="1.1"
   id="svg42986"
   inkscape:version="1.2.1 (9c6d41e4, 2022-07-14)"
   sodipodi:docname="deadly-traps.svg"
   xmlns:inkscape="http://www.inkscape.org/namespaces/inkscape"
   xmlns:sodipodi="http://sodipodi.sourceforge.net/DTD/sodipodi-0.dtd"
   xmlns="http://www.w3.org/2000/svg"
   xmlns:svg="http://www.w3.org/2000/svg">
  <sodipodi:namedview
     id="namedview42988"
     pagecolor="#505050"
     bordercolor="#eeeeee"
     borderopacity="1"
     inkscape:showpageshadow="0"
     inkscape:pageopacity="0"
     inkscape:pagecheckerboard="0"
     inkscape:deskcolor="#505050"
     inkscape:document-units="mm"
     showgrid="false"
     inkscape:zoom="0.7046647"
     inkscape:cx="-72.374847"
     inkscape:cy="146.87837"
     inkscape:window-width="1390"
     inkscape:window-height="941"
     inkscape:window-x="0"
     inkscape:window-y="25"
     inkscape:window-maximized="0"
     inkscape:current-layer="layer1" />
  <defs
     id="defs42983">
    <clipPath
       clipPathUnits="userSpaceOnUse"
       id="clipPath5947">
      <path
         d="m 393.752,419.052 h 24.699 v 24.699 h -24.699 z"
         id="path5945" />
    </clipPath>
  </defs>
  <g
     inkscape:label="Layer 1"
     inkscape:groupmode="layer"
     id="layer1"
     transform="translate(-124.29885,-110.12461)">
    <g
       id="g5941"
       transform="matrix(0.34267983,0,0,-0.34267983,-10.890055,261.13196)">
      <g
         id="g5943"
         clip-path="url(#clipPath5947)">
        <g
           id="g5949"
           transform="translate(417.682,427.228)">
          <path
             d="M 0,0 H 0.056 C -1.004,0 -2.025,0.13 -3.078,0.24 -3.451,0.279 -3.832,0.255 -4.207,0.259 -4.843,0.266 -5.451,0.1 -6.085,0.082 -6.686,0.064 -7.292,0.086 -7.895,0.086 -8.522,0.085 -9.138,0.039 -9.764,0 c -0.69,-0.043 -1.379,-0.157 -2.069,-0.176 -0.392,-0.011 -0.777,0.026 -1.168,-0.015 -0.332,-0.034 -0.642,-0.089 -0.978,-0.073 -1.117,0.055 -2.222,0.154 -3.326,0.333 -0.445,0.072 -0.868,0.003 -1.313,0.126 -0.263,0.073 -0.519,0.046 -0.776,0.125 -0.353,0.107 -0.672,0.101 -1.034,0.107 -0.373,0.006 -0.73,0.091 -1.106,0.088 -0.253,-0.002 -0.507,0.01 -0.76,0.003 -0.287,-0.009 -0.593,-0.161 -0.883,-0.179 0.128,-0.008 0.22,-0.042 0.363,-0.099 0.276,-0.112 0.589,-0.146 0.871,-0.24 0.221,-0.074 0.425,-0.184 0.652,-0.24 0.598,-0.148 1.209,-0.103 1.819,-0.103 0.336,0 0.698,0.039 1.03,-0.019 0.471,-0.083 0.936,-0.16 1.406,-0.264 0.826,-0.183 1.688,0.004 2.516,0.029 0.551,0.016 1.107,-0.003 1.658,-0.003 0.653,0 1.328,0.055 1.977,-0.019 1.017,-0.117 2.044,-0.172 3.066,-0.23 0.637,-0.037 1.236,-0.055 1.867,-0.178 0.411,-0.079 0.808,-0.17 1.229,-0.18 0.278,-0.007 0.556,0.018 0.834,0.01 0.694,-0.019 1.376,-0.189 2.066,-0.244 0.28,-0.022 0.558,-0.018 0.839,-0.018 0.199,0.001 0.445,-0.047 0.636,0.014 0.068,0.423 -0.026,0.79 0.2,1.195 C -0.028,-0.037 0.344,0 0,0"
             style="fill:#231f20;fill-opacity:1;fill-rule:nonzero;stroke:none"
             id="path5951" />
        </g>
        <g
           id="g5953"
           transform="translate(396.745,423.288)">
          <path
             d="M 0,0 C -0.046,0 -0.091,0 -0.136,-0.005 -0.084,-0.013 -0.04,-0.009 0,0"
             style="fill:#231f20;fill-opacity:1;fill-rule:nonzero;stroke:none"
             id="path5955" />
        </g>
        <g
           id="g5957"
           transform="translate(415.624,423.369)">
          <path
             d="m 0,0 h -3.198 c -0.65,0 -1.284,0.012 -1.927,-0.067 -0.473,-0.058 -0.946,0.001 -1.419,-0.062 -1.016,-0.135 -2.072,-0.033 -3.089,0.043 -0.346,0.026 -0.669,0.088 -1.018,0.086 -0.453,-0.004 -0.907,0 -1.36,0 -0.781,0 -1.558,-0.028 -2.333,0.067 -0.793,0.096 -1.663,0.041 -2.46,0.021 -0.265,-0.007 -0.511,-0.091 -0.779,-0.088 -0.148,0.002 -0.297,0 -0.446,0 -0.184,0 -0.399,0.027 -0.583,0.002 -0.105,-0.014 -0.177,-0.063 -0.267,-0.083 0.365,-0.004 0.759,-0.15 1.112,-0.202 0.499,-0.072 1.003,-0.08 1.505,-0.135 0.374,-0.042 0.776,-0.081 1.14,-0.178 0.49,-0.13 0.932,-0.19 1.433,-0.241 0.616,-0.061 1.239,-0.157 1.856,-0.192 0.437,-0.025 0.852,-0.16 1.288,-0.175 0.614,-0.021 1.266,-0.039 1.878,0.023 0.48,0.048 0.974,0.146 1.452,0.154 0.821,0.014 1.685,-0.089 2.499,0.017 0.456,0.059 0.939,0.158 1.386,-0.019 0.291,-0.115 0.595,-0.1 0.91,-0.153 0.481,-0.079 1.053,-0.051 1.545,-0.021 0.245,0.016 0.257,0.122 0.356,0.339 0.124,0.27 0.272,0.488 0.365,0.765 C 0.028,-0.076 0.145,0.033 0,0"
             style="fill:#231f20;fill-opacity:1;fill-rule:nonzero;stroke:none"
             id="path5959" />
        </g>
        <g
           id="g5961"
           transform="translate(404.515,427.49)">
          <path
             d="M 0,0 C -0.016,-0.019 -0.032,-0.039 -0.049,-0.056 -0.032,-0.046 -0.016,-0.025 0,0"
             style="fill:#231f20;fill-opacity:1;fill-rule:nonzero;stroke:none"
             id="path5963" />
        </g>
        <g
           id="g5965"
           transform="translate(408.42,427.914)">
          <path
             d="m 0,0 c -0.004,0.002 -0.006,0.003 -0.009,0.005 0.003,-0.05 0.008,-0.1 0.009,-0.151 z"
             style="fill:#231f20;fill-opacity:1;fill-rule:nonzero;stroke:none"
             id="path5967" />
        </g>
        <g
           id="g5969"
           transform="translate(404.948,428.007)">
          <path
             d="m 0,0 c 0.193,0.106 0.449,0.064 0.659,0.097 0.261,0.042 0.479,0.068 0.751,0.067 0.403,-0.001 0.807,0 1.211,0 0.102,0 0.243,0.028 0.341,0.005 C 3.102,0.135 3.128,0.076 3.463,-0.088 3.439,0.291 3.354,0.656 3.31,1.04 3.223,1.801 3.031,2.542 2.915,3.298 2.796,4.069 2.541,4.808 2.422,5.582 2.311,6.302 2.26,7.026 2.169,7.745 2.09,8.361 1.992,8.995 1.884,9.604 1.814,10.003 1.806,10.403 1.738,10.796 1.705,10.986 1.691,11.162 1.675,11.356 1.66,11.523 1.637,11.774 1.588,11.924 1.508,12.169 1.415,12.376 1.414,12.659 1.409,12.327 1.337,12.011 1.324,11.68 1.3,11.071 1.325,10.455 1.33,9.845 1.334,9.394 1.229,8.928 1.136,8.486 1.069,8.169 1.037,7.853 0.983,7.535 0.955,7.372 0.904,7.193 0.895,7.025 0.887,6.879 0.92,6.739 0.882,6.594 0.815,6.338 0.749,6.118 0.711,5.852 0.668,5.549 0.559,5.243 0.49,4.95 0.457,4.813 0.475,4.698 0.473,4.56 0.471,4.403 0.411,4.295 0.392,4.149 0.363,3.933 0.332,3.722 0.299,3.504 0.283,3.397 0.259,3.346 0.232,3.237 0.191,3.067 0.239,2.901 0.206,2.733 0.181,2.603 0.132,2.512 0.125,2.377 0.118,2.242 0.14,2.118 0.108,1.982 0.064,1.789 -0.02,1.604 -0.047,1.408 -0.061,1.311 -0.017,1.198 -0.039,1.103 -0.057,1.032 -0.117,1.014 -0.134,0.941 -0.152,0.865 -0.133,0.777 -0.149,0.698 -0.159,0.645 -0.206,0.537 -0.224,0.465 -0.252,0.353 -0.297,0.285 -0.303,0.164 -0.307,0.081 -0.282,-0.011 -0.297,-0.093 -0.313,-0.186 -0.363,-0.407 -0.432,-0.517 -0.29,-0.344 -0.179,-0.099 0,0"
             style="fill:#231f20;fill-opacity:1;fill-rule:nonzero;stroke:none"
             id="path5971" />
        </g>
        <g
           id="g5973"
           transform="translate(410.256,428.151)">
          <path
             d="M 0,0 C 0.137,0.112 0.279,0.185 0.426,0.26 0.627,0.363 0.906,0.357 1.105,0.239 1.329,0.105 1.582,0.116 1.782,-0.106 1.882,-0.217 2.027,-0.358 2.105,-0.289 2.111,-0.22 2.083,-0.147 2.075,-0.08 2.033,0.257 2.043,0.616 2.044,0.956 2.048,1.838 2.01,2.753 1.924,3.626 1.834,4.531 1.519,5.328 1.38,6.214 1.319,6.605 1.279,7.011 1.23,7.406 1.181,7.807 1.148,8.211 1.103,8.612 1.071,8.901 1.034,9.199 1.02,9.493 1.009,9.736 0.959,9.96 0.96,10.203 0.96,10.135 0.961,10.072 0.953,10.006 0.932,9.827 0.929,9.659 0.931,9.474 0.932,9.258 0.897,9.05 0.9,8.833 0.903,8.549 0.882,8.261 0.862,7.978 0.845,7.733 0.813,7.479 0.808,7.233 0.805,7.122 0.813,7.015 0.804,6.904 0.791,6.725 0.758,6.557 0.748,6.376 0.722,5.864 0.587,5.37 0.507,4.871 0.441,4.461 0.385,4.043 0.336,3.629 0.258,2.974 0.196,2.311 0.074,1.671 0.047,1.527 0.026,1.381 -0.002,1.237 -0.029,1.103 -0.074,1 -0.105,0.872 -0.139,0.738 -0.13,0.581 -0.154,0.438 -0.175,0.316 -0.182,0.198 -0.199,0.078 -0.21,0.004 -0.232,-0.114 -0.209,-0.187 -0.142,-0.161 -0.062,-0.05 0,0"
             style="fill:#231f20;fill-opacity:1;fill-rule:nonzero;stroke:none"
             id="path5975" />
        </g>
        <g
           id="g5977"
           transform="translate(400.611,428.43)">
          <path
             d="M 0,0 C 0.083,-0.027 0.167,-0.043 0.251,-0.06 0.724,-0.156 1.176,-0.382 1.649,-0.469 1.831,-0.503 2.023,-0.522 2.201,-0.593 2.277,-0.623 2.354,-0.653 2.433,-0.675 2.05,-0.21 2.014,-0.184 2.005,-0.113 1.987,0.022 2.004,0.169 1.983,0.309 1.94,0.593 1.911,0.881 1.868,1.165 1.815,1.504 1.807,1.854 1.771,2.197 1.738,2.5 1.69,2.793 1.678,3.1 1.668,3.354 1.647,3.607 1.627,3.86 1.58,4.449 1.513,5.04 1.457,5.628 1.402,6.202 1.347,6.796 1.35,7.374 1.357,8.453 1.298,9.53 1.319,10.609 1.321,10.537 1.292,10.46 1.277,10.39 1.232,10.176 1.228,9.944 1.186,9.723 1.137,9.466 1.14,9.197 1.1,8.938 1.044,8.581 0.973,8.23 0.918,7.872 0.855,7.463 0.77,7.05 0.662,6.659 0.592,6.403 0.481,6.147 0.464,5.871 0.432,5.328 0.34,4.798 0.308,4.256 0.275,3.705 0.204,3.169 0.152,2.621 0.105,2.124 0.068,1.635 0.04,1.136 0.023,0.827 -0.011,0.529 -0.086,0.237 -0.104,0.166 -0.146,0.093 -0.109,0.038 -0.097,0.02 -0.021,0.007 0,0"
             style="fill:#231f20;fill-opacity:1;fill-rule:nonzero;stroke:none"
             id="path5979" />
        </g>
      </g>
    </g>
  </g>
</svg>
