<?xml version="1.0" encoding="UTF-8" standalone="no"?>
<!-- Created with Inkscape (http://www.inkscape.org/) -->

<svg
   width="23.784258"
   height="24"
   viewBox="0 0 6.2929182 6.35"
   version="1.1"
   id="svg41760"
   inkscape:version="1.2.1 (9c6d41e4, 2022-07-14)"
   sodipodi:docname="expedition.svg"
   xmlns:inkscape="http://www.inkscape.org/namespaces/inkscape"
   xmlns:sodipodi="http://sodipodi.sourceforge.net/DTD/sodipodi-0.dtd"
   xmlns="http://www.w3.org/2000/svg"
   xmlns:svg="http://www.w3.org/2000/svg">
  <sodipodi:namedview
     id="namedview41762"
     pagecolor="#505050"
     bordercolor="#eeeeee"
     borderopacity="1"
     inkscape:showpageshadow="0"
     inkscape:pageopacity="0"
     inkscape:pagecheckerboard="0"
     inkscape:deskcolor="#505050"
     inkscape:document-units="mm"
     showgrid="false"
     inkscape:zoom="0.7046647"
     inkscape:cx="217.12454"
     inkscape:cy="311.49566"
     inkscape:window-width="1390"
     inkscape:window-height="941"
     inkscape:window-x="0"
     inkscape:window-y="25"
     inkscape:window-maximized="0"
     inkscape:current-layer="layer1" />
  <defs
     id="defs41757">
    <clipPath
       clipPathUnits="userSpaceOnUse"
       id="clipPath3149">
      <path
         d="m 364.772,206.309 h 24.699 v 24.7 h -24.699 z"
         id="path3147" />
    </clipPath>
  </defs>
  <g
     inkscape:label="Layer 1"
     inkscape:groupmode="layer"
     id="layer1"
     transform="translate(-47.595672,-66.331098)">
    <g
       id="g3143"
       transform="matrix(0.26304888,0,0,-0.26304888,-48.459257,127.02384)">
      <g
         id="g3145"
         clip-path="url(#clipPath3149)">
        <g
           id="g3151"
           transform="translate(378.564,223.141)">
          <path
             d="M 0,0 C -0.028,0.216 -0.103,0.356 -0.106,0.578 -0.11,0.913 -0.186,1.222 -0.21,1.54 -0.229,1.799 -0.306,2.129 -0.394,2.355 -0.512,2.657 -0.591,2.977 -0.657,3.312 -0.728,3.681 -0.841,4.036 -0.9,4.408 -0.969,4.831 -1.071,5.268 -1.186,5.672 -1.29,6.041 -1.318,6.393 -1.374,6.78 -1.402,6.974 -1.434,7.174 -1.398,7.369 -1.513,7.606 -1.539,7.584 -1.559,7.547 -1.585,7.539 -1.601,7.553 -1.605,7.587 -1.748,7.337 -1.665,6.992 -1.705,6.707 -1.728,6.543 -1.805,6.413 -1.841,6.255 -1.883,6.07 -1.876,5.94 -1.937,5.755 -2.015,5.52 -2.117,5.297 -2.186,5.059 -2.224,4.927 -2.244,4.79 -2.289,4.661 -2.336,4.521 -2.424,4.394 -2.456,4.247 -2.53,3.913 -2.527,3.597 -2.637,3.267 -2.762,2.888 -2.76,2.527 -2.816,2.134 -2.863,1.806 -2.963,1.507 -2.981,1.168 -2.996,0.867 -2.997,0.563 -3.007,0.261 c -0.01,-0.33 -0.021,-0.66 -0.031,-0.99 -0.003,-0.11 -0.049,-0.362 -0.004,-0.457 0.061,-0.131 0.235,-0.109 0.329,-0.141 0.095,-0.033 0.187,-0.112 0.27,-0.171 0.184,-0.131 0.342,-0.314 0.493,-0.519 0.115,-0.154 0.161,-0.282 0.215,-0.49 0.036,-0.14 0.059,-0.338 0.122,-0.449 0.109,0.089 0.16,0.233 0.25,0.349 0.133,0.172 0.231,0.271 0.345,0.469 0.217,0.382 0.53,0.701 0.823,0.974 0.089,0.082 0.241,0.111 0.303,0.244 0.071,0.151 -0.003,0.277 -0.034,0.402 C 0.029,-0.334 0.024,-0.185 0,0"
             style="fill:#231f20;fill-opacity:1;fill-rule:nonzero;stroke:none"
             id="path3153" />
        </g>
        <g
           id="g3155"
           transform="translate(377.175,230.566)">
          <path
             d="M 0,0 C -0.005,-0.018 -0.005,-0.037 -0.009,-0.056 0.008,-0.09 0.027,-0.13 0.048,-0.177 0.071,-0.084 0.059,-0.015 0,0"
             style="fill:#231f20;fill-opacity:1;fill-rule:nonzero;stroke:none"
             id="path3157" />
        </g>
        <g
           id="g3159"
           transform="translate(381.89,219.933)">
          <path
             d="m 0,0 c -0.024,0.004 -0.047,0.007 -0.071,0.011 0.006,-0.168 -0.051,-0.178 -0.079,-0.235 0.063,-0.007 0.119,-0.023 0.175,-0.04 C 0.031,-0.172 0.032,-0.079 0,0"
             style="fill:#231f20;fill-opacity:1;fill-rule:nonzero;stroke:none"
             id="path3161" />
        </g>
        <g
           id="g3163"
           transform="translate(387.141,218.76)">
          <path
             d="m 0,0 c -0.698,-0.006 -1.371,0.216 -2.061,0.252 -0.627,0.032 -1.381,0.171 -1.955,0.372 -0.258,0.09 -0.485,0.198 -0.772,0.234 -0.084,0.011 -0.196,-0.002 -0.276,0.011 -0.057,0.009 -0.109,0.025 -0.161,0.04 -0.004,-0.067 -0.011,-0.133 -0.011,-0.192 0,-0.152 -0.011,-0.249 -0.075,-0.379 -0.074,-0.15 -0.145,-0.26 -0.247,-0.397 -0.091,-0.124 -0.282,-0.25 -0.349,-0.375 -0.071,-0.135 0.084,-0.261 0.176,-0.373 0.105,-0.129 0.274,-0.205 0.388,-0.325 0.134,-0.141 0.206,-0.263 0.279,-0.425 0.047,-0.105 0.132,-0.428 0.322,-0.362 0.045,0.016 0.179,0.146 0.226,0.179 0.102,0.071 0.15,0.089 0.282,0.138 0.323,0.12 0.62,0.268 0.971,0.345 0.291,0.065 0.59,0.112 0.876,0.184 0.302,0.075 0.609,0.123 0.903,0.202 0.296,0.079 0.595,0.155 0.88,0.252 0.248,0.084 0.509,0.077 0.769,0.17 0.162,0.057 0.339,0.076 0.498,0.136 0.134,0.051 0.233,0.141 0.378,0.179 0.271,0.07 0.614,0.07 0.901,0.073 C 1.288,-0.061 0.651,0.005 0,0"
             style="fill:#231f20;fill-opacity:1;fill-rule:nonzero;stroke:none"
             id="path3165" />
        </g>
        <g
           id="g3167"
           transform="translate(367.237,218.131)">
          <path
             d="m 0,0 c 0.245,-0.032 0.461,-0.115 0.707,-0.156 0.151,-0.025 0.264,-0.101 0.415,-0.13 0.103,-0.02 0.186,-0.01 0.285,-0.044 0.279,-0.097 0.579,-0.163 0.874,-0.238 0.29,-0.073 0.574,-0.149 0.867,-0.23 0.222,-0.062 0.421,-0.105 0.636,-0.187 0.187,-0.072 0.383,-0.154 0.581,-0.195 0.306,-0.063 0.475,-0.119 0.714,-0.3 0.282,-0.214 0.334,0.033 0.434,0.246 0.066,0.141 0.087,0.308 0.158,0.444 0.063,0.12 0.151,0.192 0.24,0.302 0.152,0.189 0.273,0.396 0.421,0.586 C 6.428,0.221 6.617,0.354 6.518,0.533 6.477,0.61 6.351,0.682 6.293,0.747 6.202,0.847 6.123,0.969 6.036,1.07 5.895,1.233 5.781,1.422 5.684,1.605 5.618,1.731 5.619,2.03 5.464,2.076 5.433,2.031 5.422,1.982 5.43,1.929 5.047,1.739 4.929,1.619 4.78,1.561 4.656,1.513 4.518,1.496 4.386,1.469 4.231,1.437 4.074,1.395 3.913,1.382 3.37,1.339 2.792,1.329 2.242,1.332 1.505,1.337 0.684,1.307 -0.029,1.148 -0.534,1.035 -1.02,0.851 -1.535,0.76 -1.645,0.74 -2.042,0.731 -2.077,0.636 -1.844,0.575 -1.562,0.514 -1.37,0.405 -1.164,0.289 -0.947,0.233 -0.72,0.134 -0.484,0.031 -0.257,0.034 0,0"
             style="fill:#231f20;fill-opacity:1;fill-rule:nonzero;stroke:none"
             id="path3169" />
        </g>
        <g
           id="g3171"
           transform="translate(378.482,215.081)">
          <path
             d="m 0,0 c -0.02,-0.01 -0.042,-0.015 -0.064,-0.018 0.002,0.002 0.004,0.004 0.006,0.006 -0.011,-0.003 -0.019,-0.003 -0.03,-0.007 V -0.02 C -0.148,-0.02 -0.207,0 -0.241,0.025 -0.292,0.061 -0.329,0.191 -0.373,0.25 -0.429,0.328 -0.476,0.338 -0.539,0.396 -0.66,0.506 -0.777,0.707 -0.87,0.847 -0.97,0.999 -1.061,0.967 -1.14,1.184 -1.281,1.097 -1.347,0.986 -1.471,0.803 -1.551,0.683 -1.636,0.604 -1.719,0.505 -1.791,0.42 -1.848,0.309 -1.916,0.223 c -0.079,-0.1 -0.24,-0.252 -0.325,-0.313 -0.043,-0.031 -0.097,-0.021 -0.147,-0.06 -0.068,-0.054 -0.087,-0.143 -0.176,-0.143 10e-4,-0.125 0.163,-0.279 0.201,-0.44 0.108,-0.454 0.136,-1.046 0.166,-1.552 0.017,-0.291 0.044,-0.499 0.116,-0.75 0.045,-0.157 0.093,-0.289 0.118,-0.466 0.03,-0.218 0.025,-0.462 0.059,-0.682 0.029,-0.182 0.088,-0.336 0.117,-0.517 0.083,-0.541 0.151,-1.104 0.252,-1.652 0.064,-0.345 0.157,-0.612 0.184,-0.991 0.026,-0.376 0.01,-0.782 0.055,-1.15 0.264,0.924 0.408,1.948 0.579,2.923 0.08,0.46 0.212,0.886 0.273,1.353 0.042,0.31 0.123,0.683 0.202,0.98 0.17,0.636 0.235,1.289 0.31,1.972 0.03,0.267 0.057,0.536 0.089,0.803 C 0.195,-0.147 0.155,0.012 0,0"
             style="fill:#231f20;fill-opacity:1;fill-rule:nonzero;stroke:none"
             id="path3173" />
        </g>
        <g
           id="g3175"
           transform="translate(378.482,215.081)">
          <path
             d="M 0,0 C 0.057,0.027 0.102,0.084 0.108,0.194 0.018,0.077 -0.031,0.018 -0.058,-0.012 -0.038,-0.006 -0.018,-0.001 0,0"
             style="fill:#231f20;fill-opacity:1;fill-rule:nonzero;stroke:none"
             id="path3177" />
        </g>
        <g
           id="g3179"
           transform="translate(381.662,226.036)">
          <path
             d="M 0,0 C 0.072,0.138 0.235,0.284 0.161,0.456 0.101,0.594 -0.087,0.699 -0.229,0.653 -0.315,0.331 -0.365,0 -0.491,-0.314 c -0.1,-0.248 -0.268,-0.454 -0.245,-0.72 0.032,-0.008 0.06,-0.026 0.081,-0.055 0.196,0.105 0.263,0.397 0.367,0.585 C -0.196,-0.337 -0.09,-0.173 0,0"
             style="fill:#231f20;fill-opacity:1;fill-rule:nonzero;stroke:none"
             id="path3181" />
        </g>
        <g
           id="g3183"
           transform="translate(381.006,224.911)">
          <path
             d="M 0,0 -0.073,0.04 C -0.072,0.033 -0.072,0.025 -0.07,0.017 -0.047,0.012 -0.023,0.006 0,0"
             style="fill:#231f20;fill-opacity:1;fill-rule:nonzero;stroke:none"
             id="path3185" />
        </g>
        <g
           id="g3187"
           transform="translate(380.838,225.003)">
          <path
             d="M 0,0 0.095,-0.052 C 0.092,-0.035 0.09,-0.018 0.089,-0.001 0.061,0.006 0.032,0.007 0,0"
             style="fill:#231f20;fill-opacity:1;fill-rule:nonzero;stroke:none"
             id="path3189" />
        </g>
        <g
           id="g3191"
           transform="translate(383.865,221.956)">
          <path
             d="M 0,0 C 0.07,-0.009 0.122,0.063 0.171,0.137 0.06,0.19 -0.044,0.132 0,0"
             style="fill:#231f20;fill-opacity:1;fill-rule:nonzero;stroke:none"
             id="path3193" />
        </g>
        <g
           id="g3195"
           transform="translate(384.977,222.394)">
          <path
             d="M 0,0 C 0.205,0.086 0.223,0.174 0.251,0.389 0.272,0.547 0.204,0.627 0.217,0.776 0.138,0.775 0.073,0.719 0.017,0.656 -0.133,0.49 -0.228,0.315 -0.403,0.159 -0.545,0.032 -0.718,-0.061 -0.855,-0.189 -0.884,-0.216 -0.911,-0.258 -0.94,-0.301 c 0.004,-0.002 0.008,-0.003 0.012,-0.006 l 0.08,-0.187 C -0.739,-0.324 -0.057,-0.024 0,0"
             style="fill:#231f20;fill-opacity:1;fill-rule:nonzero;stroke:none"
             id="path3197" />
        </g>
        <g
           id="g3199"
           transform="translate(384.17,221.803)">
          <path
             d="M 0,0 -0.041,0.097 C -0.068,0.055 -0.061,0.02 0,0"
             style="fill:#231f20;fill-opacity:1;fill-rule:nonzero;stroke:none"
             id="path3201" />
        </g>
        <g
           id="g3203"
           transform="translate(383.66,213.931)">
          <path
             d="M 0,0 -0.019,0.088 C -0.049,0.101 -0.078,0.113 -0.106,0.121 -0.067,0.088 -0.037,0.036 0,0"
             style="fill:#231f20;fill-opacity:1;fill-rule:nonzero;stroke:none"
             id="path3205" />
        </g>
        <g
           id="g3207"
           transform="translate(384.976,212.754)">
          <path
             d="M 0,0 C 0.008,0.198 0.152,0.335 0.147,0.535 0.143,0.732 0.056,0.95 -0.087,1.078 -0.229,1.206 -0.387,1.28 -0.572,1.318 -0.823,1.37 -1.103,1.461 -1.361,1.448 L -1.39,1.513 -1.336,1.265 C -1.108,1.157 -0.862,0.886 -0.702,0.743 -0.468,0.537 -0.167,0.267 0,0"
             style="fill:#231f20;fill-opacity:1;fill-rule:nonzero;stroke:none"
             id="path3209" />
        </g>
        <g
           id="g3211"
           transform="translate(380.911,211.555)">
          <path
             d="M 0,0 C -0.039,0.007 -0.069,0.026 -0.091,0.057 -0.1,-0.029 -0.039,-0.086 -0.014,-0.161 0.082,-0.445 0.217,-0.667 0.411,-0.918 0.522,-1.062 0.65,-1.173 0.778,-1.302 0.864,-1.39 0.978,-1.673 1.079,-1.694 1.173,-1.433 1.158,-1.151 0.967,-0.957 0.634,-0.62 0.319,-0.271 0.005,0.086 Z"
             style="fill:#231f20;fill-opacity:1;fill-rule:nonzero;stroke:none"
             id="path3213" />
        </g>
        <g
           id="g3215"
           transform="translate(373.962,212.404)">
          <path
             d="M 0,0 0.103,0.291 C -0.138,0.236 -0.182,0.112 -0.338,-0.07 -0.615,-0.395 -0.812,-0.681 -1,-1.062 -1.098,-1.261 -1.256,-1.378 -1.382,-1.552 -1.525,-1.751 -1.64,-2.015 -1.4,-2.171 c 0.122,-0.079 0.417,-0.116 0.344,0.118 0.159,0.052 0.207,0.207 0.249,0.346 0.019,0.061 0.01,0.203 0.036,0.252 0.079,0.145 0.283,0.19 0.369,0.335 0.068,0.115 0.05,0.235 0.103,0.361 0.044,0.107 0.167,0.183 0.202,0.29 0.035,0.107 -0.032,0.159 -0.033,0.264 0,0.089 0.063,0.173 0.098,0.253 C -0.021,0.032 -0.011,0.016 0,0"
             style="fill:#231f20;fill-opacity:1;fill-rule:nonzero;stroke:none"
             id="path3217" />
        </g>
        <g
           id="g3219"
           transform="translate(369.843,214.558)">
          <path
             d="m 0,0 c -0.176,-0.116 -0.246,-0.111 -0.31,-0.306 -0.04,-0.122 -0.155,-0.32 -0.033,-0.402 0.172,-0.117 0.556,0.2 0.687,0.276 0.154,0.09 0.246,0.128 0.373,0.268 0.027,0.03 0.071,0.064 0.118,0.098 L 0.909,0.182 C 0.953,0.504 0.069,0.046 0,0"
             style="fill:#231f20;fill-opacity:1;fill-rule:nonzero;stroke:none"
             id="path3221" />
        </g>
        <g
           id="g3223"
           transform="translate(370.902,214.681)">
          <path
             d="M 0,0 C -0.12,0.05 -0.179,-0.078 -0.217,-0.184 -0.125,-0.117 -0.022,-0.049 0,0"
             style="fill:#231f20;fill-opacity:1;fill-rule:nonzero;stroke:none"
             id="path3225" />
        </g>
        <g
           id="g3227"
           transform="translate(370.685,214.497)">
          <path
             d="M 0,0 C -0.002,-0.002 -0.004,-0.003 -0.007,-0.005 L -0.031,-0.086 C -0.022,-0.064 -0.012,-0.033 0,0"
             style="fill:#231f20;fill-opacity:1;fill-rule:nonzero;stroke:none"
             id="path3229" />
        </g>
        <g
           id="g3231"
           transform="translate(373.426,224.271)">
          <path
             d="M 0,0 0.062,0.424 C -0.02,0.436 -0.164,0.439 -0.286,0.463 -0.212,0.297 -0.13,0.042 0,0"
             style="fill:#231f20;fill-opacity:1;fill-rule:nonzero;stroke:none"
             id="path3233" />
        </g>
        <g
           id="g3235"
           transform="translate(372.948,224.826)">
          <path
             d="M 0,0 C 0.033,-0.049 0.108,-0.075 0.193,-0.092 0.176,-0.055 0.16,-0.021 0.144,0.003 0.095,0.079 0.041,0.153 -0.015,0.226 -0.033,0.149 -0.049,0.072 0,0"
             style="fill:#231f20;fill-opacity:1;fill-rule:nonzero;stroke:none"
             id="path3237" />
        </g>
        <g
           id="g3239"
           transform="translate(372.912,225.652)">
          <path
             d="M 0,0 C -0.027,0.256 -0.078,0.464 -0.134,0.71 -0.189,0.954 -0.18,0.975 -0.433,1.012 -0.687,1.05 -0.675,0.996 -0.829,0.811 -0.967,0.645 -1.151,0.497 -0.971,0.268 c 0.115,-0.147 0.399,-0.281 0.539,-0.393 0.17,-0.136 0.32,-0.3 0.453,-0.475 0.011,0.045 0.023,0.09 0.024,0.135 C 0.046,-0.308 0.016,-0.156 0,0"
             style="fill:#231f20;fill-opacity:1;fill-rule:nonzero;stroke:none"
             id="path3241" />
        </g>
        <g
           id="g3243"
           transform="translate(368.2,221.568)">
          <path
             d="m 0,0 c 0.336,-0.101 0.615,-0.338 0.946,-0.442 0.193,-0.061 0.35,-0.01 0.537,0.034 L 1.788,-0.606 C 1.892,-0.481 2.03,-0.414 1.935,-0.271 1.819,-0.095 1.486,-0.015 1.3,0.037 0.959,0.132 0.862,0.147 0.703,0.464 0.648,0.575 0.544,0.661 0.509,0.777 0.356,0.701 0.232,0.49 0.26,0.312 0.137,0.28 -0.016,0.125 0,0"
             style="fill:#231f20;fill-opacity:1;fill-rule:nonzero;stroke:none"
             id="path3245" />
        </g>
        <g
           id="g3247"
           transform="translate(376.46,217.172)">
          <path
             d="m 0,0 c 0.124,-0.066 0.176,-0.1 0.327,-0.098 0.134,0.001 0.274,-0.019 0.4,0.026 0.074,0.026 0.134,0.086 0.2,0.118 C 0.981,0.072 1.048,0.082 1.102,0.114 1.183,0.163 1.269,0.232 1.343,0.286 1.429,0.349 1.57,0.453 1.616,0.529 1.628,0.547 1.607,0.587 1.618,0.611 1.631,0.638 1.659,0.65 1.671,0.673 1.697,0.726 1.719,0.751 1.742,0.815 1.781,0.92 1.855,1.078 1.838,1.182 1.832,1.216 1.8,1.298 1.787,1.332 1.768,1.381 1.748,1.428 1.728,1.474 1.649,1.655 1.466,1.834 1.272,1.904 1.038,1.989 0.748,2.075 0.527,2.188 0.447,2.187 0,2.135 -0.218,1.904 -0.307,1.809 -0.35,1.653 -0.443,1.557 -0.535,1.462 -0.647,1.397 -0.705,1.275 -0.745,1.189 -0.694,1.2 -0.678,1.126 -0.664,1.061 -0.681,0.996 -0.662,0.93 -0.629,0.817 -0.54,0.69 -0.489,0.587 -0.389,0.384 -0.198,0.105 0,0"
             style="fill:#231f20;fill-opacity:1;fill-rule:nonzero;stroke:none"
             id="path3249" />
        </g>
        <g
           id="g3251"
           transform="translate(378.817,228.508)">
          <path
             d="m 0,0 c 0.424,0 0.885,0.05 1.305,0.004 0.52,-0.056 0.993,-0.317 1.441,-0.585 0.103,-0.062 0.195,-0.07 0.298,-0.104 0.125,-0.041 0.178,-0.086 0.296,-0.154 0.208,-0.119 0.466,-0.179 0.684,-0.293 0.177,-0.094 0.31,-0.221 0.459,-0.331 0.102,-0.075 0.202,-0.101 0.315,-0.177 0.304,-0.202 0.604,-0.564 0.827,-0.854 0.23,-0.301 0.487,-0.573 0.722,-0.872 0.205,-0.262 0.509,-0.5 0.668,-0.793 0.048,-0.088 0.083,-0.206 0.123,-0.299 0.086,-0.201 0.194,-0.321 0.325,-0.495 0.182,-0.238 0.24,-0.457 0.359,-0.72 0.242,-0.538 0.59,-1.009 0.583,-1.616 C 8.402,-7.511 8.467,-7.68 8.49,-7.89 8.505,-8.018 8.554,-8.104 8.58,-8.229 8.61,-8.368 8.533,-8.521 8.593,-8.657 8.891,-8.632 8.753,-7.368 8.747,-7.116 8.741,-6.875 8.622,-6.703 8.582,-6.473 8.534,-6.19 8.517,-5.932 8.407,-5.656 8.318,-5.433 8.176,-5.223 8.061,-5.009 7.918,-4.742 7.818,-4.473 7.697,-4.198 7.459,-3.656 7.163,-3.138 6.818,-2.656 6.622,-2.383 6.45,-2.094 6.228,-1.843 6.045,-1.636 5.84,-1.488 5.621,-1.325 5.367,-1.138 5.201,-0.84 4.925,-0.686 4.642,-0.529 4.367,-0.302 4.071,-0.178 3.847,-0.084 3.618,-0.024 3.411,0.088 3.272,0.163 3.145,0.164 2.995,0.218 2.779,0.297 2.592,0.473 2.362,0.511 2.128,0.55 1.871,0.581 1.634,0.601 1.312,0.627 1.053,0.767 0.729,0.771 0.604,0.772 0.543,0.809 0.428,0.839 0.289,0.874 0.158,0.832 0.019,0.853 -0.185,0.884 -0.539,1.147 -0.713,0.968 -0.888,0.789 -0.666,0.623 -0.567,0.472 -0.459,0.307 -0.4,-0.117 -0.195,-0.163 -0.122,-0.029 -0.023,0.067 0,0"
             style="fill:#231f20;fill-opacity:1;fill-rule:nonzero;stroke:none"
             id="path3253" />
        </g>
        <g
           id="g3255"
           transform="translate(386.971,216.422)">
          <path
             d="m 0,0 c -0.154,0.069 -0.5,-0.058 -0.092,-0.092 0.003,-0.178 -0.061,-0.261 -0.088,-0.423 -0.021,-0.122 0.015,-0.24 -0.013,-0.366 -0.023,-0.104 -0.106,-0.219 -0.136,-0.32 -0.191,-0.641 -0.467,-1.248 -0.642,-1.897 -0.117,-0.433 -0.376,-0.891 -0.598,-1.263 -0.258,-0.431 -0.69,-0.767 -1.01,-1.155 -0.292,-0.353 -0.72,-0.569 -1.029,-0.92 -0.14,-0.158 -0.275,-0.285 -0.429,-0.428 -0.181,-0.169 -0.414,-0.275 -0.579,-0.45 -0.152,-0.162 -0.145,-0.177 -0.344,-0.243 -0.115,-0.038 -0.24,-0.058 -0.357,-0.099 -0.27,-0.095 -0.539,-0.213 -0.802,-0.325 -0.223,-0.096 -0.444,-0.114 -0.662,-0.189 -0.061,-0.021 -0.111,-0.067 -0.17,-0.093 -0.15,-0.066 -0.279,-0.042 -0.435,-0.081 -0.121,-0.03 -0.772,-0.186 -0.78,-0.323 -0.009,-0.151 0.833,-0.086 0.956,-0.087 0.172,-0.001 0.233,0.029 0.381,0.067 0.208,0.053 0.415,0.03 0.629,0.084 0.176,0.045 0.341,0.07 0.514,0.104 0.215,0.044 0.344,0.186 0.532,0.284 0.209,0.109 0.399,0.227 0.602,0.342 0.167,0.094 0.363,0.124 0.52,0.232 0.1,0.069 0.162,0.13 0.269,0.191 0.171,0.098 0.272,0.16 0.395,0.326 0.046,0.062 0.12,0.209 0.191,0.268 0.123,0.103 0.292,0.134 0.412,0.246 0.318,0.3 0.563,0.67 0.893,0.967 0.348,0.313 0.595,0.628 0.837,1.025 0.256,0.422 0.585,0.917 0.669,1.424 0.045,0.275 0.131,0.519 0.212,0.789 0.091,0.307 0.157,0.621 0.259,0.93 0.071,0.217 0.051,0.425 0.103,0.647 0.047,0.203 0.058,0.318 -0.022,0.5 C 0.139,-0.22 0.101,-0.045 0,0"
             style="fill:#231f20;fill-opacity:1;fill-rule:nonzero;stroke:none"
             id="path3257" />
        </g>
        <g
           id="g3259"
           transform="translate(372.833,208.785)">
          <path
             d="M 0,0 C -0.262,0.145 -0.549,0.199 -0.813,0.338 -1.068,0.473 -1.33,0.537 -1.585,0.681 -1.79,0.797 -2.048,0.87 -2.206,1.037 -2.305,1.14 -2.407,1.188 -2.509,1.28 -2.591,1.354 -2.661,1.485 -2.741,1.565 -2.841,1.666 -2.959,1.708 -3.057,1.796 -3.14,1.871 -3.185,1.964 -3.278,2.038 -3.477,2.195 -3.599,2.432 -3.754,2.657 -3.83,2.768 -3.877,2.893 -3.96,2.999 -4.034,3.093 -4.138,3.154 -4.205,3.257 -4.363,3.499 -4.375,3.794 -4.477,4.052 -4.56,4.26 -4.706,4.422 -4.799,4.624 -4.907,4.86 -5.062,4.998 -5.182,5.225 -5.327,5.497 -5.513,5.767 -5.68,6.02 -5.823,6.238 -5.884,6.482 -6.019,6.704 -6.109,6.853 -6.25,6.993 -6.32,7.152 -6.37,7.268 -6.353,7.336 -6.364,7.459 -6.373,7.576 -6.405,7.606 -6.433,7.716 -6.462,7.831 -6.435,7.94 -6.469,8.052 -6.666,8.032 -6.583,7.746 -6.619,7.626 -6.676,7.436 -6.811,7.441 -6.796,7.201 -6.769,6.769 -6.478,6.357 -6.321,5.958 -6.241,5.757 -6.142,5.596 -6.044,5.4 c 0.11,-0.221 0.166,-0.455 0.318,-0.65 0.358,-0.46 0.573,-0.993 0.948,-1.443 0.331,-0.398 0.622,-0.809 1.004,-1.163 0.42,-0.389 0.769,-0.841 1.115,-1.291 0.119,-0.155 0.347,-0.312 0.51,-0.429 0.143,-0.102 0.321,-0.134 0.465,-0.227 0.172,-0.11 0.303,-0.278 0.487,-0.377 0.437,-0.235 0.966,-0.335 1.353,-0.634 0.155,-0.12 0.474,-0.358 0.682,-0.393 0.231,-0.039 0.317,0.011 0.408,0.197 0.057,0.117 0.033,0.095 0.138,0.162 0.059,0.037 0.203,0.064 0.225,0.124 0.029,0.082 -0.062,0.128 -0.086,0.2 -0.08,0.017 -0.162,0.033 -0.248,0.068 C 0.843,-0.285 0.409,-0.227 0,0"
             style="fill:#231f20;fill-opacity:1;fill-rule:nonzero;stroke:none"
             id="path3261" />
        </g>
        <g
           id="g3263"
           transform="translate(374.355,208.264)">
          <path
             d="M 0,0 C 0,-0.001 0.001,-0.002 0.001,-0.003 0.087,-0.02 0.172,-0.039 0.26,-0.081 -0.068,0.249 -0.029,0.093 0,0"
             style="fill:#231f20;fill-opacity:1;fill-rule:nonzero;stroke:none"
             id="path3265" />
        </g>
        <g
           id="g3267"
           transform="translate(373.562,228.939)">
          <path
             d="m 0,0 c -0.19,-0.079 -0.392,-0.154 -0.581,-0.238 -0.222,-0.099 -0.478,-0.177 -0.69,-0.279 -0.147,-0.07 -0.302,-0.148 -0.455,-0.223 -0.089,-0.044 -0.147,-0.106 -0.241,-0.145 -0.098,-0.041 -0.215,-0.03 -0.308,-0.077 -0.052,-0.027 -0.119,-0.139 -0.186,-0.179 -0.091,-0.053 -0.158,-0.083 -0.24,-0.147 C -2.84,-1.396 -2.993,-1.514 -3.151,-1.615 -3.255,-1.681 -3.257,-1.616 -3.344,-1.713 -3.391,-1.765 -3.422,-1.854 -3.471,-1.912 -3.549,-2.005 -3.648,-2.1 -3.748,-2.168 -3.871,-2.252 -3.971,-2.335 -4.091,-2.424 -4.284,-2.569 -4.496,-2.621 -4.693,-2.766 -5.025,-3.011 -5.31,-3.35 -5.486,-3.711 -5.585,-3.914 -5.708,-4.082 -5.831,-4.269 -5.946,-4.444 -5.977,-4.582 -6.149,-4.714 -6.339,-4.861 -6.4,-5.091 -6.58,-5.238 -6.681,-5.321 -6.71,-5.307 -6.774,-5.42 -6.815,-5.491 -6.82,-5.593 -6.858,-5.669 -6.889,-5.732 -6.97,-5.807 -6.992,-5.87 c -0.041,-0.122 -0.002,-0.248 -0.033,-0.374 -0.03,-0.119 -0.111,-0.22 -0.138,-0.342 -0.027,-0.125 0.002,-0.235 -0.013,-0.358 -0.022,-0.181 -0.113,-0.346 -0.156,-0.517 -0.029,-0.114 0.005,-0.213 -0.015,-0.326 -0.017,-0.1 -0.089,-0.18 -0.097,-0.278 -0.01,-0.132 0.105,-0.321 0.268,-0.264 0.108,0.038 0.145,0.336 0.17,0.458 0.038,0.183 -0.003,0.128 0.081,0.258 0.062,0.095 0.119,0.131 0.155,0.253 0.041,0.141 0.052,0.254 0.105,0.393 0.029,0.078 0.061,0.122 0.088,0.207 0.045,0.143 0.04,0.294 0.102,0.438 0.052,0.117 0.127,0.217 0.176,0.336 0.113,0.273 0.244,0.494 0.382,0.753 0.092,0.171 0.227,0.292 0.367,0.429 0.193,0.19 0.322,0.439 0.533,0.604 0.102,0.08 0.231,0.117 0.326,0.205 0.068,0.063 0.106,0.157 0.17,0.224 0.085,0.089 0.16,0.119 0.257,0.186 0.124,0.087 0.173,0.212 0.276,0.307 0.065,0.059 0.162,0.082 0.239,0.122 0.16,0.085 0.23,0.187 0.345,0.326 0.153,0.186 0.309,0.354 0.491,0.512 0.21,0.184 0.378,0.357 0.621,0.491 0.073,0.04 0.139,0.112 0.211,0.145 0.127,0.058 0.288,0.031 0.398,0.132 0.074,0.067 0.077,0.139 0.159,0.199 0.101,0.075 0.243,0.096 0.348,0.165 0.104,0.069 0.164,0.18 0.271,0.245 0.13,0.079 0.287,0.093 0.421,0.167 0.084,0.046 0.169,0.102 0.255,0.15 0.059,0.032 0.213,0.09 0.255,0.124 0.077,0.062 0.07,0.132 0.165,0.161 0.101,0.031 0.227,-0.022 0.335,0.007 0.013,0.153 0.067,0.259 0.095,0.395 C 0.413,0.072 0.204,0.084 0,0"
             style="fill:#231f20;fill-opacity:1;fill-rule:nonzero;stroke:none"
             id="path3269" />
        </g>
        <g
           id="g3271"
           transform="translate(374.199,229.096)">
          <path
             d="m 0,0 c -0.003,-0.034 -0.01,-0.064 -0.016,-0.094 0.169,-0.007 0.338,-0.013 0.503,0.036 0.005,0.023 0.01,0.047 0.015,0.071 C 0.218,0.011 0.109,0.028 0,0"
             style="fill:#231f20;fill-opacity:1;fill-rule:nonzero;stroke:none"
             id="path3273" />
        </g>
      </g>
    </g>
  </g>
</svg>
