<?xml version="1.0" encoding="UTF-8" standalone="no"?>
<!-- Created with Inkscape (http://www.inkscape.org/) -->

<svg
   width="23.77309"
   height="24"
   viewBox="0 0 6.2899634 6.35"
   version="1.1"
   id="svg42282"
   inkscape:version="1.2.1 (9c6d41e4, 2022-07-14)"
   sodipodi:docname="guardians-of-time.svg"
   xmlns:inkscape="http://www.inkscape.org/namespaces/inkscape"
   xmlns:sodipodi="http://sodipodi.sourceforge.net/DTD/sodipodi-0.dtd"
   xmlns="http://www.w3.org/2000/svg"
   xmlns:svg="http://www.w3.org/2000/svg">
  <sodipodi:namedview
     id="namedview42284"
     pagecolor="#505050"
     bordercolor="#eeeeee"
     borderopacity="1"
     inkscape:showpageshadow="0"
     inkscape:pageopacity="0"
     inkscape:pagecheckerboard="0"
     inkscape:deskcolor="#505050"
     inkscape:document-units="mm"
     showgrid="false"
     inkscape:zoom="0.7046647"
     inkscape:cx="68.117503"
     inkscape:cy="125.59165"
     inkscape:window-width="1390"
     inkscape:window-height="941"
     inkscape:window-x="0"
     inkscape:window-y="25"
     inkscape:window-maximized="0"
     inkscape:current-layer="layer1" />
  <defs
     id="defs42279">
    <clipPath
       clipPathUnits="userSpaceOnUse"
       id="clipPath2857">
      <path
         d="m 393.529,206.309 h 24.699 v 24.7 h -24.699 z"
         id="path2855" />
    </clipPath>
  </defs>
  <g
     inkscape:label="Layer 1"
     inkscape:groupmode="layer"
     id="layer1"
     transform="translate(-86.987621,-115.49381)">
    <g
       id="g2851"
       transform="matrix(0.35490181,0,0,-0.35490181,-53.653185,195.8482)">
      <g
         id="g2853"
         clip-path="url(#clipPath2857)">
        <g
           id="g2859"
           transform="translate(406.225,214.482)">
          <path
             d="m 0,0 c -0.171,0.083 -0.383,0.054 -0.574,0.116 -0.157,0.051 -0.409,0.181 -0.491,0.337 -0.1,0.192 0.029,0.398 0.097,0.576 0.069,0.179 0.158,0.373 0.27,0.515 0.162,0.204 0.386,0.366 0.479,0.622 0.053,0.145 0.049,0.302 0.111,0.453 0.066,0.163 0.164,0.294 0.261,0.441 0.239,0.365 0.602,0.662 0.912,0.972 0.244,0.244 0.532,0.474 0.729,0.756 0.242,0.347 0.534,0.694 0.729,1.066 0.341,0.649 1.052,1.173 1.568,1.689 L 5.064,8.516 C 5.198,8.65 5.783,9.084 5.761,9.289 5.787,9.25 5.818,9.216 5.854,9.185 L 4.763,7.851 C 4.843,7.746 4.748,7.65 4.703,7.551 4.615,7.361 4.536,7.168 4.437,6.98 4.02,6.191 3.532,5.425 3.06,4.669 2.91,4.429 2.859,4.143 2.733,3.891 2.617,3.66 2.508,3.417 2.383,3.19 2.127,2.727 1.844,2.283 1.555,1.84 1.463,1.699 1.375,1.544 1.323,1.382 1.241,1.13 1.107,0.932 1.001,0.691 0.923,0.512 0.824,0.41 0.697,0.271 0.61,0.176 0.6,0.054 0.521,-0.039 0.359,-0.226 0.168,-0.081 0,0 m -4.031,-3.248 -0.679,0.227 c 0.035,-0.028 0.07,-0.055 0.103,-0.075 0.102,-0.06 0.18,-0.116 0.272,-0.212 0.101,-0.104 0.181,-0.099 0.273,-0.162 0.1,-0.068 0.186,-0.176 0.273,-0.263 0.181,-0.18 0.368,-0.316 0.232,-0.593 -0.134,-0.273 -0.332,-0.237 -0.563,-0.151 -0.203,0.077 -0.394,0.078 -0.609,0.121 -0.083,0.017 -0.193,0.115 -0.273,0.114 -0.042,0 -0.08,-0.065 -0.121,-0.071 -0.05,-0.007 -0.101,0.015 -0.151,0.008 -0.035,-0.005 -0.092,-0.057 -0.121,-0.055 -0.066,0.006 -0.097,0.046 -0.166,0.069 -0.106,0.035 -0.248,0.017 -0.325,0.099 -0.135,0.143 0.114,0.384 -0.065,0.581 0.048,0.062 0.093,0.12 0.141,0.182 -0.141,0.126 -0.018,0.337 0.02,0.484 0.057,0.22 0.084,0.208 0.304,0.213 0.162,0.004 0.322,0.024 0.483,0.001 0.368,-0.052 0.657,-0.329 0.972,-0.517 m 4.045,-0.285 c 0.051,0.109 0.101,0.219 0.202,0.292 0.064,0.047 0.132,0.05 0.18,0.081 0.182,0.114 0.28,0.248 0.361,0.446 0.147,0.36 0.253,0.633 0.532,0.904 0.147,0.144 0.318,0.283 0.427,0.456 0.329,0.519 0.604,1.093 0.929,1.624 0.406,0.663 0.695,1.405 0.939,2.138 0.036,0.11 0.118,0.198 0.155,0.297 0.032,0.086 0.008,0.152 0.04,0.248 0.078,0.227 0.246,0.431 0.326,0.667 0.046,0.141 0.088,0.235 0.157,0.364 0.311,0.583 0.567,1.22 0.878,1.788 0.386,0.708 0.649,1.49 1.081,2.176 0.446,0.707 0.665,1.522 0.893,2.315 0.101,0.353 0.156,0.743 0.373,1.046 0.142,0.197 0.261,0.352 0.292,0.622 C 7.611,11.933 7.455,11.783 7.297,11.712 7.075,11.613 6.832,11.568 6.598,11.505 6.128,11.378 5.636,11.235 5.181,11.063 5.01,10.999 4.848,10.865 4.676,10.814 4.476,10.754 4.291,10.843 4.091,10.826 3.793,10.8 3.491,10.617 3.216,10.515 3.076,10.462 2.934,10.461 2.796,10.404 2.579,10.316 2.423,10.208 2.196,10.138 1.819,10.022 1.461,9.846 1.086,9.725 0.813,9.637 0.47,9.576 0.179,9.546 -0.153,9.512 -0.402,9.364 -0.675,9.178 -0.915,9.014 -1.07,8.749 -1.342,8.626 -1.486,8.561 -1.629,8.513 -1.772,8.441 -2.06,8.295 -2.276,8.217 -2.5,7.985 -2.652,7.829 -2.788,7.672 -3.002,7.6 -3.161,7.546 -3.323,7.537 -3.475,7.462 -3.854,7.274 -4.202,7.169 -4.598,7.029 -4.826,6.949 -4.997,6.895 -5.197,6.771 -5.393,6.65 -5.628,6.525 -5.819,6.424 -5.998,6.33 -6.207,6.306 -6.396,6.246 -6.604,6.18 -6.8,6.047 -6.977,5.946 -7.175,5.833 -7.339,5.733 -7.49,5.545 -7.663,5.331 -7.662,4.97 -7.783,4.71 -7.878,4.506 -8.065,4.361 -8.225,4.201 -8.37,4.056 -8.771,3.775 -8.844,3.577 -8.944,3.309 -8.689,3.162 -8.561,2.986 -8.474,2.867 -8.442,2.747 -8.34,2.635 -8.224,2.507 -8.085,2.4 -7.97,2.272 -7.819,2.105 -7.708,1.869 -7.595,1.678 -7.545,1.592 -7.453,1.468 -7.366,1.415 -7.255,1.348 -7.184,1.406 -7.089,1.271 -6.983,1.121 -7.013,0.949 -7.121,0.815 -7.274,0.624 -7.409,0.572 -7.639,0.617 -7.839,0.656 -7.93,0.803 -8.094,0.91 -8.171,0.96 -8.25,0.967 -8.336,1.058 -8.43,1.156 -8.473,1.21 -8.609,1.214 -8.837,1.22 -8.947,1.004 -9.108,0.886 -9.214,0.809 -9.337,0.8 -9.429,0.702 -9.539,0.585 -9.547,0.435 -9.593,0.301 -9.648,0.138 -9.677,0.099 -9.663,-0.091 c 0.009,-0.132 0.03,-0.231 -0.017,-0.367 -0.047,-0.136 -0.148,-0.207 -0.163,-0.352 -0.009,-0.083 0.026,-0.194 0.021,-0.285 -0.012,-0.216 -0.135,-0.318 -0.121,-0.546 0.016,-0.26 0.179,-0.361 0.363,-0.546 0.192,-0.191 0.384,-0.383 0.576,-0.575 0.121,-0.121 0.248,-0.239 0.366,-0.363 0.119,-0.126 0.167,-0.266 0.27,-0.399 0.199,-0.256 0.473,-0.43 0.726,-0.611 0.324,-0.231 0.381,-0.599 0.637,-0.873 0.148,-0.159 0.448,-0.551 0.667,-0.612 0.172,-0.049 0.305,0.125 0.477,0.062 0.003,-0.002 0.006,-0.005 0.01,-0.006 0.025,0.04 0.07,0.082 0.122,0.133 0.681,-0.357 0.278,-0.401 0.008,-0.242 -0.038,0.022 -0.084,0.086 -0.13,0.109 -0.039,-0.062 -0.027,-0.119 0.096,-0.197 0.122,-0.076 0.254,-0.065 0.39,-0.064 0.19,0.002 0.608,-0.114 0.726,0.008 0.107,-0.077 0.285,-0.175 0.426,-0.135 0.158,0.045 0.23,0.263 0.364,0.345 0.118,0.073 0.189,0.056 0.303,0.176 0.142,0.149 0.281,0.156 0.425,0.304 0.184,0.188 0.371,0.372 0.279,0.666 -0.042,0.137 -0.101,0.155 -0.126,0.302 -0.026,0.151 -0.067,0.359 -0.147,0.487 -0.142,0.229 -0.587,0.402 -0.649,0.667 -0.033,0.145 0.069,0.212 0.158,0.303 0.194,0.196 0.247,0.153 0.486,0.028 0.085,-0.044 0.202,-0.102 0.302,-0.122 0.057,-0.01 0.124,0.015 0.182,0.006 0.067,-0.01 0.119,-0.058 0.182,-0.067 0.185,-0.027 0.215,0.026 0.337,-0.149 0.013,-0.019 10e-4,-0.088 0.02,-0.121 0.046,-0.075 0.179,-0.191 0.249,-0.245 0.208,-0.16 0.479,-0.228 0.667,-0.422 0.132,-0.136 0.553,-0.684 0.728,-0.615 0.308,0.122 0.349,0.621 0.467,0.876"
             style="fill:#231f20;fill-opacity:1;fill-rule:nonzero;stroke:none"
             id="path2861" />
        </g>
        <g
           id="g2863"
           transform="translate(400.496,209.051)">
          <path
             d="M 0,0 C -0.052,-0.051 -0.098,-0.093 -0.122,-0.133 -0.076,-0.156 -0.031,-0.22 0.007,-0.243 0.278,-0.401 0.681,-0.357 0,0"
             style="fill:#231f20;fill-opacity:1;fill-rule:nonzero;stroke:none"
             id="path2865" />
        </g>
        <g
           id="g2867"
           transform="translate(401.284,211.538)">
          <path
             d="M 0,0 0.231,-0.077 C 0.175,-0.033 0.118,0.013 0.061,0.04 0.04,0.026 0.02,0.013 0,0"
             style="fill:#ffffff;fill-opacity:1;fill-rule:nonzero;stroke:none"
             id="path2869" />
        </g>
        <g
           id="g2871"
           transform="translate(401.284,211.538)">
          <path
             d="M 0,0 0.231,-0.077 C 0.175,-0.033 0.118,0.013 0.061,0.04 0.04,0.026 0.02,0.013 0,0 Z"
             style="fill:none;stroke:#231f20;stroke-width:0.172;stroke-linecap:butt;stroke-linejoin:miter;stroke-miterlimit:10;stroke-dasharray:none;stroke-opacity:1"
             id="path2873" />
        </g>
      </g>
    </g>
  </g>
</svg>
