<?xml version="1.0" encoding="UTF-8" standalone="no"?>
<!-- Created with Inkscape (http://www.inkscape.org/) -->

<svg
   width="19.538252"
   height="24"
   viewBox="0 0 5.1694958 6.35"
   version="1.1"
   id="svg44264"
   inkscape:version="1.2.1 (9c6d41e4, 2022-07-14)"
   sodipodi:docname="kn-yan.svg"
   xmlns:inkscape="http://www.inkscape.org/namespaces/inkscape"
   xmlns:sodipodi="http://sodipodi.sourceforge.net/DTD/sodipodi-0.dtd"
   xmlns="http://www.w3.org/2000/svg"
   xmlns:svg="http://www.w3.org/2000/svg">
  <sodipodi:namedview
     id="namedview44266"
     pagecolor="#505050"
     bordercolor="#eeeeee"
     borderopacity="1"
     inkscape:showpageshadow="0"
     inkscape:pageopacity="0"
     inkscape:pagecheckerboard="0"
     inkscape:deskcolor="#505050"
     inkscape:document-units="mm"
     showgrid="false"
     inkscape:zoom="0.7046647"
     inkscape:cx="129.13943"
     inkscape:cy="239.12082"
     inkscape:window-width="1390"
     inkscape:window-height="941"
     inkscape:window-x="0"
     inkscape:window-y="25"
     inkscape:window-maximized="0"
     inkscape:current-layer="layer1" />
  <defs
     id="defs44261">
    <clipPath
       clipPathUnits="userSpaceOnUse"
       id="clipPath23261">
      <path
         d="m 39.566,272.228 h 24.699 v 24.699 H 39.566 Z"
         id="path23259" />
    </clipPath>
  </defs>
  <g
     inkscape:label="Layer 1"
     inkscape:groupmode="layer"
     id="layer1"
     transform="translate(-70.962983,-85.58536)">
    <g
       id="g23255"
       transform="matrix(0.26970495,0,0,-0.26970495,59.719765,165.48846)">
      <g
         id="g23257"
         clip-path="url(#clipPath23261)">
        <g
           id="g23263"
           transform="translate(54.9434,291.904)">
          <path
             d="M 0,0 0.001,-0.629 C 0.002,-1.096 0.004,-1.564 -0.001,-2.031 -0.005,-2.449 0.077,-2.849 0.157,-3.236 0.203,-3.456 0.25,-3.683 0.279,-3.907 0.287,-3.966 0.29,-4.024 0.294,-4.083 0.299,-4.177 0.305,-4.275 0.326,-4.378 0.349,-4.492 0.385,-4.6 0.419,-4.704 0.438,-4.761 0.457,-4.819 0.473,-4.877 0.572,-5.226 0.631,-5.575 0.641,-5.886 0.65,-6.119 0.646,-6.36 0.643,-6.593 0.64,-6.723 0.639,-6.852 0.639,-6.982 c 0,-0.051 0.003,-0.11 0.007,-0.171 0.001,-0.014 0.001,-0.028 0.002,-0.042 -0.005,-0.054 -0.009,-0.11 -0.011,-0.166 0,-0.024 0,-0.048 0.001,-0.071 0,-0.03 0.001,-0.057 -0.002,-0.076 C 0.633,-7.52 0.629,-7.53 0.625,-7.539 0.581,-7.633 0.618,-7.745 0.711,-7.792 c 0.028,-0.014 0.057,-0.021 0.087,-0.021 0.067,0 0.133,0.036 0.167,0.1 0.023,0.041 0.037,0.082 0.045,0.121 0.031,0.123 0.029,0.259 0.022,0.387 0.006,0.052 0.013,0.105 0.021,0.159 0.006,0.046 0.012,0.092 0.018,0.138 0.025,0.207 0.068,0.407 0.114,0.62 l 0.005,0.022 c 0.029,0.136 0.071,0.269 0.115,0.41 0.036,0.117 0.073,0.235 0.103,0.354 0.025,0.1 0.063,0.197 0.104,0.3 0.05,0.129 0.103,0.263 0.133,0.412 0.086,0.435 0.08,0.875 0.075,1.299 -10e-4,0.103 -0.002,0.207 -0.002,0.31 0,0.48 0.067,0.939 0.138,1.424 0.017,0.115 0.034,0.231 0.05,0.347 0.006,0.039 0.009,0.09 0.013,0.145 0.006,0.08 0.014,0.19 0.029,0.242 0.008,0.022 0.036,0.058 0.062,0.09 0.025,0.031 0.05,0.062 0.07,0.094 0.157,0.247 0.206,0.523 0.254,0.79 C 2.349,0.033 2.363,0.115 2.381,0.194 2.422,0.376 2.452,0.556 2.482,0.73 2.505,0.867 2.528,1.005 2.556,1.145 2.614,1.429 2.609,1.756 2.54,2.115 2.529,2.174 2.525,2.239 2.52,2.307 2.513,2.419 2.505,2.545 2.462,2.67 2.38,2.911 2.319,2.968 2.296,2.989 2.281,3.004 2.263,3.016 2.244,3.024 2.242,3.027 2.24,3.031 2.238,3.034 2.224,3.058 2.208,3.083 2.19,3.107 2.123,3.193 2.053,3.249 1.985,3.303 L 1.951,3.329 C 1.818,3.437 1.702,3.482 1.58,3.53 1.28,3.647 0.806,3.681 0.482,3.518 0.104,3.328 0.082,2.811 0.065,2.434 0.061,2.334 0.057,2.239 0.047,2.169 -0.027,1.633 -0.017,1.081 -0.007,0.547 -0.003,0.364 0,0.181 0,0"
             style="fill:#000000;fill-opacity:1;fill-rule:nonzero;stroke:none"
             id="path23265" />
        </g>
        <g
           id="g23267"
           transform="translate(58.9852,286.797)">
          <path
             d="m 0,0 c 0.013,0.033 0.025,0.066 0.038,0.094 0.066,0.144 0.142,0.283 0.228,0.437 0.14,0.253 0.201,0.513 0.26,0.764 0.018,0.077 0.037,0.154 0.057,0.233 0.023,0.085 0.052,0.169 0.08,0.252 0.036,0.103 0.073,0.21 0.1,0.324 0.012,0.051 0.023,0.106 0.034,0.161 0.024,0.119 0.048,0.241 0.089,0.328 0.023,0.049 0.044,0.098 0.065,0.146 0.015,0.034 0.03,0.068 0.044,0.1 C 0.997,2.819 0.998,2.797 0.999,2.774 1.001,2.705 1.004,2.625 1.026,2.542 1.049,2.451 1.134,2.391 1.23,2.4 1.509,2.427 1.548,2.781 1.575,3.016 1.579,3.057 1.583,3.092 1.588,3.115 1.597,3.159 1.609,3.201 1.62,3.244 1.649,3.35 1.678,3.46 1.683,3.585 1.688,3.707 1.685,3.829 1.683,3.951 1.681,4.04 1.679,4.128 1.68,4.217 c 0.002,0.164 0.042,0.328 0.084,0.502 0.043,0.176 0.087,0.359 0.093,0.553 0.003,0.089 0.002,0.18 0,0.27 -10e-4,0.051 -0.002,0.102 -0.002,0.154 0,0.027 0.003,0.061 0.006,0.096 C 1.869,5.887 1.877,5.995 1.854,6.087 1.777,6.388 1.504,6.421 1.341,6.44 1.286,6.447 1.228,6.454 1.195,6.468 1.12,6.498 1.04,6.524 0.959,6.551 0.809,6.6 0.667,6.646 0.555,6.726 0.492,6.771 0.426,6.831 0.355,6.894 0.223,7.013 0.087,7.136 -0.07,7.206 -0.172,7.251 -0.262,7.246 -0.336,7.228 -0.352,7.248 -0.373,7.265 -0.397,7.277 -0.46,7.309 -0.537,7.304 -0.595,7.262 -0.685,7.198 -0.808,7.111 -0.778,6.955 -0.765,6.888 -0.717,6.833 -0.653,6.811 -0.65,6.81 -0.647,6.809 -0.644,6.808 -0.633,6.752 -0.621,6.697 -0.609,6.643 -0.594,6.58 -0.58,6.516 -0.568,6.448 -0.549,6.343 -0.554,6.23 -0.559,6.11 -0.562,6.026 -0.565,5.943 -0.562,5.859 -0.556,5.723 -0.532,5.594 -0.51,5.468 -0.501,5.419 -0.492,5.369 -0.484,5.32 -0.467,5.213 -0.452,5.105 -0.437,4.998 -0.416,4.847 -0.395,4.697 -0.369,4.547 -0.357,4.472 -0.339,4.399 -0.321,4.325 -0.294,4.215 -0.269,4.111 -0.264,4.01 -0.259,3.892 -0.262,3.772 -0.265,3.646 -0.267,3.553 -0.269,3.46 -0.268,3.368 -0.267,3.237 -0.286,3.101 -0.306,2.955 -0.314,2.893 -0.323,2.831 -0.33,2.769 -0.339,2.688 -0.358,2.605 -0.378,2.517 -0.397,2.431 -0.418,2.341 -0.43,2.248 -0.451,2.081 -0.448,1.916 -0.445,1.757 c 0.001,-0.052 0.002,-0.103 0.002,-0.154 0.001,-0.234 0,-0.468 0,-0.702 V 0.7 c 0,-0.048 0.001,-0.096 0.002,-0.144 0.002,-0.068 0.003,-0.137 0.001,-0.205 -0.001,-0.038 -0.014,-0.093 -0.027,-0.15 -0.03,-0.128 -0.067,-0.286 -0.011,-0.435 0.023,-0.062 0.077,-0.108 0.142,-0.121 0.012,-0.002 0.025,-0.003 0.037,-0.003 0.053,0 0.104,0.022 0.141,0.062 C -0.08,-0.211 -0.038,-0.099 0,0"
             style="fill:#000000;fill-opacity:1;fill-rule:nonzero;stroke:none"
             id="path23269" />
        </g>
        <g
           id="g23271"
           transform="translate(51.2696,288.018)">
          <path
             d="M 0,0 C -0.003,-0.475 0.078,-0.938 0.156,-1.386 0.211,-1.699 0.267,-2.022 0.292,-2.34 0.321,-2.701 0.374,-3.101 0.454,-3.565 0.462,-3.612 0.472,-3.658 0.481,-3.703 0.505,-3.824 0.527,-3.929 0.521,-4.042 0.516,-4.13 0.573,-4.21 0.657,-4.235 c 0.018,-0.006 0.037,-0.008 0.055,-0.008 0.067,0 0.13,0.035 0.165,0.094 0.051,0.086 0.061,0.164 0.069,0.221 0.002,0.019 0.004,0.039 0.01,0.06 0.002,0.006 0.005,0.012 0.013,0.027 0.016,0.03 0.041,0.075 0.053,0.142 0.013,0.073 0.006,0.141 0,0.2 -0.004,0.035 -0.008,0.071 -0.004,0.093 0.008,0.052 0.022,0.106 0.038,0.164 0.009,0.031 0.018,0.063 0.026,0.095 0.02,0.081 0.046,0.16 0.071,0.239 0.04,0.123 0.082,0.25 0.104,0.386 0.012,0.074 0.038,0.145 0.066,0.221 0.021,0.056 0.041,0.112 0.058,0.172 0.022,0.077 0.032,0.149 0.042,0.219 0.009,0.062 0.017,0.121 0.033,0.173 0.043,0.145 0.076,0.291 0.108,0.432 0.058,0.256 0.113,0.499 0.223,0.725 0.018,0.036 0.033,0.073 0.049,0.11 0.033,0.077 0.061,0.143 0.103,0.189 0.085,0.096 0.201,0.243 0.236,0.418 0.012,0.06 0.007,0.116 0.003,0.16 C 2.177,0.315 2.175,0.342 2.176,0.351 2.179,0.362 2.182,0.368 2.191,0.387 2.207,0.421 2.232,0.472 2.242,0.552 2.248,0.603 2.243,0.648 2.239,0.685 2.238,0.701 2.235,0.726 2.236,0.734 2.243,0.774 2.252,0.81 2.261,0.846 2.278,0.913 2.297,0.99 2.301,1.086 2.313,1.417 2.309,1.754 2.305,2.08 2.302,2.249 2.3,2.417 2.3,2.585 2.3,2.677 2.299,2.769 2.298,2.86 2.295,3.227 2.291,3.574 2.34,3.921 2.379,4.196 2.409,4.471 2.43,4.679 2.45,4.868 2.452,5.057 2.454,5.24 2.455,5.445 2.457,5.638 2.482,5.826 2.499,5.952 2.519,6.077 2.539,6.202 2.563,6.347 2.586,6.494 2.604,6.641 2.608,6.671 2.611,6.704 2.614,6.737 2.626,6.854 2.64,7 2.687,7.07 2.691,7.076 2.704,7.08 2.749,7.09 2.821,7.106 2.94,7.133 3.021,7.251 3.068,7.319 3.065,7.409 3.015,7.475 L 2.946,7.567 C 2.736,7.844 2.539,8.106 2.238,8.175 2.169,8.191 2.1,8.193 2.04,8.195 1.993,8.197 1.948,8.198 1.913,8.206 1.785,8.232 1.683,8.243 1.574,8.242 1.487,8.241 1.4,8.241 1.314,8.242 1.2,8.243 1.086,8.244 0.973,8.242 0.763,8.236 0.6,8.171 0.439,8.099 0.156,7.972 0.125,7.785 0.115,7.553 0.106,7.342 0.126,7.135 0.145,6.934 0.161,6.766 0.177,6.607 0.176,6.447 0.175,6.178 0.175,5.91 0.175,5.642 V 5.25 C 0.175,5.174 0.177,5.099 0.178,5.023 0.18,4.922 0.182,4.822 0.18,4.721 0.178,4.59 0.152,4.459 0.125,4.321 0.103,4.207 0.081,4.089 0.07,3.967 0.04,3.625 0.047,3.276 0.054,2.938 0.057,2.794 0.06,2.649 0.059,2.506 0.059,2.424 0.061,2.341 0.062,2.258 0.065,2.125 0.068,1.987 0.063,1.855 0.059,1.753 0.046,1.652 0.032,1.544 0.017,1.426 0.002,1.303 -0.002,1.175 -0.008,0.941 -0.005,0.704 -0.002,0.475 -0.001,0.317 0.001,0.158 0,0"
             style="fill:#000000;fill-opacity:1;fill-rule:nonzero;stroke:none"
             id="path23273" />
        </g>
        <g
           id="g23275"
           transform="translate(50.2155,274.145)">
          <path
             d="M 0,0 C 0.098,0.482 0.075,1.157 0.428,1.522 0.49,1.585 0.563,1.653 0.639,1.694 0.748,1.754 0.86,1.731 0.975,1.763 1.138,1.81 1.264,1.935 1.403,2.031 1.641,2.197 1.731,2.298 1.837,2.588 1.939,2.87 1.967,3.124 1.996,3.425 2.008,3.553 2.03,3.682 2.023,3.812 2.017,3.917 1.988,4.009 2.001,4.115 2.028,4.328 2.138,4.548 2.191,4.756 2.251,4.994 2.324,5.226 2.386,5.463 2.446,5.692 2.401,5.912 2.438,6.144 2.52,6.665 2.42,7.219 2.37,7.745 2.345,8.01 2.366,8.235 2.407,8.494 2.431,8.644 2.423,8.797 2.447,8.944 2.639,9.045 2.608,8.857 2.645,8.731 2.663,8.669 2.7,8.628 2.709,8.538 2.726,8.362 2.756,8.218 2.796,8.051 2.923,7.53 2.991,6.995 3.167,6.492 3.254,6.245 3.275,5.982 3.35,5.734 3.44,5.435 3.479,5.14 3.503,4.828 3.523,4.573 3.606,4.346 3.626,4.085 3.645,3.825 3.776,3.593 3.812,3.336 3.876,2.873 4.004,2.362 4.37,2.064 4.57,1.902 4.767,1.72 4.96,1.544 5.132,1.387 5.215,1.275 5.309,1.053 5.491,0.621 5.664,0.126 5.71,-0.343 5.716,-0.407 5.744,-0.504 5.732,-0.565 5.714,-0.663 5.723,-0.628 5.642,-0.68 5.389,-0.845 4.753,-0.981 4.631,-0.593 4.613,-0.539 4.635,-0.474 4.621,-0.419 4.603,-0.349 4.558,-0.279 4.528,-0.213 4.438,-0.01 4.393,0.256 4.312,0.473 4.184,0.817 3.833,0.803 3.574,0.993 3.478,1.065 3.379,1.123 3.284,1.199 3.207,1.259 3.12,1.373 3.025,1.394 2.873,1.427 2.757,1.315 2.65,1.23 2.514,1.122 2.369,0.998 2.203,0.929 2.034,0.86 1.881,0.754 1.706,0.698 1.617,0.67 1.59,0.671 1.512,0.604 1.467,0.565 1.429,0.52 1.383,0.485 1.081,0.254 0.993,-0.172 0.882,-0.521 0.808,-0.755 0.766,-1.051 0.56,-1.211 0.471,-1.28 0.338,-1.358 0.233,-1.4 0.179,-1.422 0.135,-1.429 0.077,-1.428 c -0.096,0.002 -0.155,0.033 -0.191,0.082 -0.064,0.086 -0.058,0.229 -0.068,0.371 C -0.207,-0.627 -0.067,-0.33 0,0"
             style="fill:#000000;fill-opacity:1;fill-rule:nonzero;stroke:none"
             id="path23277" />
        </g>
        <g
           id="g23279"
           transform="translate(56.7733,276.659)">
          <path
             d="M 0,0 C -0.157,0.997 -0.21,2.049 -0.502,3.012 -0.569,3.235 -0.548,3.475 -0.627,3.701 -0.72,3.966 -0.803,4.226 -0.872,4.5 -0.918,4.679 -1.004,4.844 -1.048,5.017 -1.094,5.202 -1.019,5.404 -1.07,5.585 -1.155,5.555 -1.227,5.365 -1.277,5.272 -1.364,5.113 -1.452,4.948 -1.527,4.784 -1.588,4.649 -1.592,4.525 -1.665,4.392 -1.784,4.176 -1.812,3.962 -1.856,3.719 -1.935,3.274 -1.983,2.772 -1.9,2.322 -1.834,1.97 -1.869,1.581 -1.87,1.221 -1.871,1.044 -1.879,0.883 -1.82,0.714 c 0.019,-0.053 0.044,-0.159 0.076,-0.198 0.076,-0.094 0.179,-0.15 0.246,-0.265 0.101,-0.176 0.2,-0.39 0.29,-0.573 0.094,-0.191 0.167,-0.385 0.268,-0.573 0.107,-0.202 0.143,-0.427 0.201,-0.651 0.096,-0.368 0.205,-0.781 0.261,-1.156 0.24,0 0.474,-0.044 0.639,0.044 0.215,0.115 0.32,0.327 0.351,0.588 0.033,0.272 -0.047,0.589 -0.116,0.847 C 0.285,-0.808 0.068,-0.43 0,0"
             style="fill:#000000;fill-opacity:1;fill-rule:nonzero;stroke:none"
             id="path23281" />
        </g>
        <g
           id="g23283"
           transform="translate(46.1925,291.539)">
          <path
             d="m 0,0 c 0.04,-0.098 0.079,-0.191 0.097,-0.281 0.014,-0.068 0.012,-0.147 0.01,-0.23 -0.003,-0.086 -0.005,-0.176 0.009,-0.271 0.012,-0.085 0.031,-0.169 0.05,-0.254 0.027,-0.117 0.052,-0.227 0.055,-0.334 0.001,-0.017 0,-0.033 -0.001,-0.048 -0.005,-0.078 -0.014,-0.208 0.099,-0.32 0.036,-0.036 0.085,-0.055 0.135,-0.055 0.015,0 0.031,0.002 0.047,0.006 0.066,0.017 0.117,0.066 0.136,0.131 0.05,0.172 0.086,0.342 0.12,0.506 l 0.024,0.111 c 0.01,0.046 0.035,0.097 0.063,0.152 0.035,0.07 0.074,0.148 0.093,0.239 0.015,0.074 0.013,0.138 0.01,0.195 -0.001,0.024 -0.002,0.048 -0.001,0.074 0.002,0.055 0.015,0.115 0.029,0.178 0.014,0.068 0.029,0.138 0.035,0.217 0.006,0.085 0.003,0.169 0,0.252 C 1.009,0.313 1.007,0.358 1.007,0.402 1.009,0.692 0.972,0.944 0.932,1.173 0.912,1.29 0.9,1.406 0.887,1.528 0.875,1.643 0.863,1.759 0.844,1.876 0.827,1.977 0.83,2.084 0.833,2.197 L 0.835,2.273 C 0.837,2.385 0.815,2.46 0.797,2.519 0.79,2.543 0.782,2.568 0.777,2.597 0.751,2.74 0.76,2.918 0.767,3.089 0.771,3.175 0.775,3.26 0.775,3.34 0.775,3.401 0.746,3.458 0.697,3.494 0.649,3.53 0.585,3.541 0.527,3.523 0.414,3.488 0.338,3.512 0.233,3.545 0.147,3.572 0.049,3.603 -0.068,3.595 -0.299,3.579 -0.564,3.438 -0.757,3.335 L -0.794,3.315 C -0.974,3.22 -1.215,3.048 -1.232,2.66 -1.247,2.323 -1.111,2.085 -0.979,1.854 -0.942,1.789 -0.904,1.723 -0.87,1.654 -0.844,1.602 -0.822,1.549 -0.8,1.496 -0.767,1.415 -0.733,1.332 -0.685,1.248 -0.652,1.19 -0.614,1.135 -0.576,1.08 -0.536,1.023 -0.498,0.969 -0.47,0.914 -0.419,0.813 -0.361,0.718 -0.304,0.622 -0.21,0.467 -0.121,0.32 -0.061,0.153 -0.042,0.102 -0.021,0.051 0,0"
             style="fill:#000000;fill-opacity:1;fill-rule:nonzero;stroke:none"
             id="path23285" />
        </g>
        <g
           id="g23287"
           transform="translate(49.4644,292.51)">
          <path
             d="M 0,0 C 0.013,0.092 0.028,0.184 0.044,0.276 L 0.07,0.433 C 0.083,0.511 0.108,0.59 0.134,0.673 0.152,0.732 0.171,0.79 0.186,0.85 0.237,1.053 0.236,1.247 0.235,1.434 V 1.471 C 0.233,1.888 0.233,2.304 0.234,2.721 V 3.289 C 0.234,3.311 0.231,3.332 0.223,3.353 0.13,3.621 -0.269,3.628 -0.583,3.552 -0.89,3.477 -1.138,3.429 -1.419,3.418 -1.565,3.412 -1.676,3.362 -1.749,3.27 -1.877,3.111 -1.837,2.893 -1.802,2.7 -1.788,2.623 -1.773,2.543 -1.772,2.482 -1.77,2.17 -1.767,1.876 -1.699,1.555 -1.698,1.551 -1.625,1.235 -1.495,1.133 -1.414,1.069 -1.32,1.045 -1.23,1.066 c 0.171,0.04 0.258,0.219 0.3,0.305 0.015,0.03 0.032,0.077 0.051,0.131 0.011,0.029 0.028,0.076 0.046,0.12 0.08,-0.156 0.117,-0.379 0.15,-0.579 0.01,-0.061 0.019,-0.119 0.03,-0.173 l 0.02,-0.105 C -0.595,0.57 -0.555,0.368 -0.554,0.178 -0.553,0.147 -0.556,0.113 -0.557,0.077 c -0.009,-0.162 -0.022,-0.384 0.126,-0.543 0.038,-0.04 0.089,-0.061 0.14,-0.061 0.044,0 0.088,0.015 0.124,0.046 0.132,0.112 0.148,0.29 0.161,0.421 C -0.004,-0.039 -0.003,-0.018 0,0"
             style="fill:#000000;fill-opacity:1;fill-rule:nonzero;stroke:none"
             id="path23289" />
        </g>
        <g
           id="g23291"
           transform="translate(57.7807,277.521)">
          <path
             d="M 0,0 C -0.003,0.128 0.02,0.226 0.055,0.347 0.091,0.471 0.088,0.569 0.11,0.692 0.138,0.855 0.172,1.023 0.197,1.187 0.212,1.288 0.28,1.483 0.348,1.558 0.45,1.47 0.492,1.393 0.546,1.267 0.591,1.161 0.609,1.086 0.724,1.086 0.852,1.086 0.929,1.233 0.995,1.347 1.031,1.408 1.042,1.473 1.061,1.539 1.073,1.58 1.103,1.667 1.108,1.707 1.12,1.789 1.092,1.873 1.109,1.955 1.129,2.054 1.188,2.134 1.209,2.233 1.266,2.495 1.241,2.784 1.277,3.049 1.309,3.277 1.323,3.528 1.38,3.748 1.4,3.823 1.482,4.242 1.565,4.252 1.657,4.182 1.616,4.047 1.642,3.944 1.683,3.779 1.753,3.654 1.762,3.475 1.773,3.247 1.778,3.092 1.835,2.873 1.882,2.69 1.916,2.5 1.954,2.314 2.043,1.872 1.975,1.379 2.004,0.928 2.011,0.818 2.047,0.725 2.073,0.624 2.096,0.529 2.117,0.458 2.18,0.374 2.248,0.284 2.31,0.288 2.405,0.256 2.521,0.218 2.503,0.218 2.552,0.103 2.612,-0.039 2.679,-0.199 2.681,-0.365 2.684,-0.575 2.708,-0.79 2.705,-1.002 2.705,-1.054 2.702,-1.107 2.698,-1.159 2.675,-1.426 2.513,-1.459 2.276,-1.405 2.142,-1.375 2.027,-1.307 1.9,-1.269 1.806,-1.24 1.704,-1.234 1.609,-1.207 1.45,-1.162 1.264,-1.155 1.094,-1.177 0.696,-1.229 1.149,-1.832 0.833,-1.978 0.7,-2.039 0.47,-1.95 0.359,-1.901 0.067,-1.773 -0.243,-1.726 -0.312,-1.362 -0.41,-0.846 0.01,-0.472 0,0"
             style="fill:#000000;fill-opacity:1;fill-rule:nonzero;stroke:none"
             id="path23293" />
        </g>
        <g
           id="g23295"
           transform="translate(42.3275,278.949)">
          <path
             d="M 0,0 C 0.167,-0.032 0.411,-0.108 0.556,0.023 0.655,0.111 0.625,0.221 0.647,0.335 0.668,0.442 0.725,0.548 0.749,0.657 0.792,0.847 0.817,1.046 0.857,1.236 0.903,1.451 0.858,1.679 0.868,1.897 0.883,2.239 0.946,2.78 1.199,3.041 1.299,2.907 1.315,2.685 1.369,2.528 1.424,2.369 1.479,2.209 1.542,2.054 1.67,1.738 1.748,1.39 1.898,1.083 1.983,0.909 2.019,0.747 2.114,0.585 2.186,0.462 2.241,0.325 2.271,0.197 2.322,-0.024 2.408,-0.25 2.402,-0.478 2.4,-0.55 2.386,-0.616 2.396,-0.688 2.413,-0.808 2.465,-0.926 2.493,-1.044 2.555,-1.299 2.584,-1.562 2.584,-1.825 2.585,-1.987 2.611,-2.09 2.655,-2.241 2.724,-2.478 2.794,-2.639 2.719,-2.888 2.671,-3.042 2.619,-3.235 2.504,-3.355 2.376,-3.489 2.239,-3.454 2.077,-3.42 1.842,-3.373 1.792,-3.33 1.656,-3.135 1.652,-3.128 1.647,-3.121 1.642,-3.114 1.557,-2.985 1.522,-2.867 1.487,-2.719 1.444,-2.54 1.333,-2.377 1.27,-2.205 1.208,-2.031 1.12,-1.85 0.962,-1.744 0.803,-1.638 0.679,-1.658 0.499,-1.635 0.41,-1.623 0.323,-1.584 0.233,-1.563 c -0.164,0.039 -0.276,0.057 -0.383,0.189 -0.093,0.114 -0.2,0.21 -0.302,0.315 -0.219,0.227 -0.263,0.666 -0.047,0.91 C -0.374,-0.007 -0.181,0.035 0,0"
             style="fill:#000000;fill-opacity:1;fill-rule:nonzero;stroke:none"
             id="path23297" />
        </g>
        <g
           id="g23299"
           transform="translate(45.3902,276.601)">
          <path
             d="M 0,0 C 0.005,0.107 0.039,0.169 0.055,0.266 0.073,0.38 0.054,0.493 0.072,0.608 0.09,0.716 0.111,0.804 0.116,0.922 0.121,1.049 0.159,1.133 0.192,1.251 0.219,1.353 0.212,1.472 0.245,1.569 0.303,1.737 0.401,1.874 0.54,1.967 0.661,1.783 0.692,1.582 0.756,1.377 0.827,1.151 0.89,0.909 0.946,0.672 0.962,0.604 0.974,0.534 0.986,0.465 1.089,0.593 1.19,0.721 1.258,0.883 1.367,1.146 1.339,1.401 1.398,1.671 1.496,2.127 1.565,2.6 1.718,3.035 1.772,3.19 1.829,3.342 1.877,3.501 1.966,3.795 2.096,4.127 2.13,4.431 2.156,4.664 2.127,4.89 2.169,5.124 2.206,5.331 2.233,5.53 2.24,5.738 2.246,5.889 2.349,5.949 2.478,5.832 2.553,5.764 2.568,5.602 2.604,5.493 2.709,5.179 2.71,4.818 2.751,4.49 2.782,4.24 2.734,3.985 2.777,3.736 2.817,3.502 2.794,3.265 2.835,3.032 2.867,2.849 2.907,2.67 2.945,2.487 3.017,2.145 3.15,1.847 3.173,1.493 3.184,1.329 3.184,1.205 3.214,1.041 3.232,0.943 3.258,0.838 3.273,0.741 3.291,0.626 3.274,0.511 3.298,0.396 3.327,0.257 3.385,0.13 3.416,-0.009 3.454,-0.185 3.543,-0.32 3.634,-0.468 3.762,-0.673 3.96,-0.784 4.102,-0.967 4.221,-1.12 4.255,-1.35 4.273,-1.542 4.306,-1.903 4.331,-2.241 4.331,-2.604 4.331,-2.836 4.344,-3.018 4.271,-3.231 4.237,-3.33 4.263,-3.352 4.151,-3.412 4.06,-3.46 3.957,-3.473 3.863,-3.514 3.786,-3.548 3.758,-3.582 3.665,-3.575 3.534,-3.566 3.38,-3.443 3.306,-3.333 3.299,-3.323 3.293,-3.312 3.288,-3.301 3.259,-3.238 3.246,-3.148 3.234,-3.089 3.212,-2.977 3.187,-2.844 3.175,-2.728 3.153,-2.507 3.118,-2.304 3.063,-2.081 3.022,-1.917 2.989,-1.76 2.807,-1.693 2.629,-1.626 2.422,-1.598 2.23,-1.633 2.005,-1.674 1.797,-1.77 1.575,-1.823 1.365,-1.873 1.151,-1.868 0.936,-1.863 0.807,-1.86 0.67,-1.869 0.556,-1.798 0.214,-1.586 0.007,-0.961 0.103,-0.597 0.035,-0.553 0.002,-0.498 0,-0.372 -0.001,-0.249 -0.005,-0.123 0,0"
             style="fill:#000000;fill-opacity:1;fill-rule:nonzero;stroke:none"
             id="path23301" />
        </g>
      </g>
    </g>
  </g>
</svg>
