<?xml version="1.0" encoding="UTF-8" standalone="no"?>
<!-- Created with Inkscape (http://www.inkscape.org/) -->

<svg
   width="24.024336"
   height="24"
   viewBox="0 0 6.3564388 6.35"
   version="1.1"
   id="svg41438"
   inkscape:version="1.2.1 (9c6d41e4, 2022-07-14)"
   sodipodi:docname="rainforest.svg"
   xmlns:inkscape="http://www.inkscape.org/namespaces/inkscape"
   xmlns:sodipodi="http://sodipodi.sourceforge.net/DTD/sodipodi-0.dtd"
   xmlns="http://www.w3.org/2000/svg"
   xmlns:svg="http://www.w3.org/2000/svg">
  <sodipodi:namedview
     id="namedview41440"
     pagecolor="#505050"
     bordercolor="#eeeeee"
     borderopacity="1"
     inkscape:showpageshadow="0"
     inkscape:pageopacity="0"
     inkscape:pagecheckerboard="0"
     inkscape:deskcolor="#505050"
     inkscape:document-units="mm"
     showgrid="false"
     inkscape:zoom="0.7046647"
     inkscape:cx="170.29376"
     inkscape:cy="285.9516"
     inkscape:window-width="1390"
     inkscape:window-height="941"
     inkscape:window-x="0"
     inkscape:window-y="25"
     inkscape:window-maximized="0"
     inkscape:current-layer="layer1" />
  <defs
     id="defs41435">
    <clipPath
       clipPathUnits="userSpaceOnUse"
       id="clipPath3029">
      <path
         d="m 307.257,206.309 h 24.699 v 24.7 h -24.699 z"
         id="path3027" />
    </clipPath>
  </defs>
  <g
     inkscape:label="Layer 1"
     inkscape:groupmode="layer"
     id="layer1"
     transform="translate(-59.908496,-73.054055)">
    <g
       id="g3023"
       transform="matrix(0.28586864,0,0,-0.28586864,-28.377586,138.78669)">
      <g
         id="g3025"
         clip-path="url(#clipPath3029)">
        <g
           id="g3031"
           transform="translate(317.92,223.782)">
          <path
             d="m 0,0 h 0.001 c 0.027,0 0.053,0.001 0.08,0.002 0.029,0 0.059,0.001 0.089,0.001 0.054,0 0.109,-0.002 0.165,-0.013 l 0.021,-0.004 c 0.091,-0.016 0.163,-0.03 0.242,-0.016 0.069,0.013 0.139,0.024 0.21,0.035 0.125,0.019 0.254,0.039 0.375,0.068 0.293,0.069 0.568,0.067 0.859,0.065 L 2.218,0.137 C 2.316,0.136 2.409,0.135 2.501,0.143 2.619,0.152 2.736,0.178 2.86,0.205 2.964,0.228 3.071,0.252 3.182,0.266 3.327,0.284 3.466,0.317 3.613,0.351 l 0.039,0.01 C 3.504,0.614 3.388,0.883 3.275,1.144 3.222,1.264 3.17,1.384 3.115,1.503 L 3.066,1.609 C 2.958,1.839 2.847,2.076 2.77,2.321 2.734,2.438 2.689,2.557 2.645,2.672 2.591,2.816 2.534,2.965 2.492,3.117 2.473,3.182 2.465,3.245 2.456,3.305 2.447,3.366 2.439,3.424 2.422,3.478 2.366,3.656 2.321,3.815 2.28,3.978 2.241,4.136 2.191,4.295 2.142,4.449 2.062,4.703 1.979,4.966 1.939,5.24 1.896,5.535 1.851,5.846 1.813,6.158 1.794,6.082 1.771,6.008 1.749,5.933 1.708,5.798 1.669,5.669 1.653,5.537 1.636,5.396 1.611,5.257 1.587,5.122 1.568,5.017 1.548,4.911 1.533,4.803 1.501,4.584 1.439,4.378 1.379,4.178 1.35,4.084 1.322,3.989 1.296,3.892 1.272,3.803 1.254,3.713 1.235,3.623 1.204,3.471 1.172,3.315 1.116,3.161 0.957,2.723 0.766,2.29 0.582,1.872 0.528,1.751 0.475,1.629 0.422,1.508 0.376,1.402 0.348,1.296 0.317,1.183 0.298,1.114 0.279,1.044 0.256,0.973 0.228,0.888 0.192,0.809 0.157,0.733 0.127,0.668 0.097,0.604 0.074,0.536 0.059,0.492 0.044,0.445 0.029,0.396 -0.012,0.264 -0.057,0.117 -0.127,-0.008 c 0.022,0.002 0.042,0.003 0.056,0.004 C -0.042,-0.002 -0.017,0 0,0"
             style="fill:#231f20;fill-opacity:1;fill-rule:nonzero;stroke:none"
             id="path3033" />
        </g>
        <g
           id="g3035"
           transform="translate(320.917,223.754)">
          <path
             d="m 0,0 c -0.051,0.002 -0.101,-0.001 -0.15,-0.015 -0.024,-0.006 -0.047,-0.018 -0.068,-0.031 -0.037,-0.021 -0.072,-0.045 -0.11,-0.053 -0.04,-0.008 -0.076,0.004 -0.116,-0.008 0.074,-0.166 0.127,-0.341 0.092,-0.538 -0.038,-0.218 -0.107,-0.482 -0.297,-0.618 -0.119,-0.085 -0.255,-0.113 -0.396,-0.112 -0.114,0.002 -0.259,-0.029 -0.361,0.033 -0.068,0.041 -0.192,0.146 -0.227,0.209 -0.038,0.066 -0.041,0.129 -0.061,0.197 -0.035,0.122 -0.029,0.255 -0.027,0.388 0.003,0.185 -0.14,0.131 -0.284,0.137 -0.103,0.004 -0.197,0.037 -0.302,0.036 -0.092,-0.001 -0.185,-0.001 -0.277,-0.001 -0.103,0 -0.205,0 -0.307,0 -0.067,0 -0.18,0.028 -0.228,-0.033 0.099,-0.043 0.089,-0.144 0.091,-0.238 0.006,-0.211 -0.016,-0.414 0.03,-0.622 0.051,-0.228 0.134,-0.399 0.283,-0.576 0.145,-0.172 0.311,-0.365 0.504,-0.487 0.143,-0.091 0.301,-0.195 0.457,-0.261 0.185,-0.079 0.399,-0.142 0.593,-0.195 0.278,-0.077 0.657,-0.061 0.921,0.051 0.122,0.052 0.25,0.159 0.335,0.259 0.063,0.077 0.117,0.145 0.2,0.202 0.084,0.057 0.11,0.082 0.162,0.175 0.077,0.141 0.17,0.277 0.234,0.425 0.062,0.144 0.09,0.299 0.146,0.446 0.065,0.171 -0.015,0.334 -0.039,0.505 C 0.78,-0.59 0.806,-0.458 0.776,-0.326 0.754,-0.232 0.754,-0.119 0.725,-0.03 0.718,-0.006 0.69,0.037 0.661,0.075 0.582,0.04 0.504,0.006 0.417,-0.013 0.276,-0.044 0.137,-0.004 0,0"
             style="fill:#231f20;fill-opacity:1;fill-rule:nonzero;stroke:none"
             id="path3037" />
        </g>
        <g
           id="g3039"
           transform="translate(313.163,220.172)">
          <path
             d="M 0,0 C 0.377,0.05 0.842,0.06 1.276,0.027 L 1.377,0.019 C 1.51,0.007 1.625,-0.004 1.754,0.017 1.814,0.027 1.873,0.039 1.933,0.05 2.057,0.075 2.185,0.1 2.32,0.107 2.495,0.116 2.67,0.114 2.84,0.112 3.074,0.11 3.316,0.107 3.549,0.133 L 3.731,0.154 C 3.757,0.157 3.783,0.161 3.806,0.166 3.802,0.175 3.797,0.182 3.794,0.189 3.781,0.214 3.769,0.237 3.761,0.255 3.739,0.308 3.714,0.357 3.688,0.407 3.645,0.492 3.601,0.579 3.571,0.679 3.509,0.886 3.414,1.083 3.313,1.292 3.19,1.547 3.063,1.811 3.001,2.096 2.964,2.268 2.898,2.43 2.828,2.602 2.794,2.687 2.759,2.772 2.728,2.858 2.649,3.077 2.575,3.296 2.501,3.515 2.449,3.669 2.397,3.823 2.344,3.976 2.16,4.502 1.952,5.062 1.68,5.597 L 1.653,5.649 C 1.65,5.655 1.646,5.662 1.643,5.668 1.616,5.58 1.591,5.497 1.575,5.412 1.539,5.209 1.492,5.006 1.445,4.81 1.425,4.722 1.404,4.635 1.384,4.547 1.361,4.442 1.344,4.337 1.327,4.232 1.302,4.076 1.276,3.914 1.229,3.753 1.187,3.611 1.125,3.488 1.065,3.369 1.046,3.331 1.026,3.291 1.007,3.251 0.928,3.087 0.869,2.904 0.812,2.727 L 0.78,2.629 C 0.718,2.441 0.637,2.256 0.523,2.048 0.431,1.876 0.362,1.703 0.289,1.519 L 0.273,1.48 C 0.206,1.311 0.128,1.144 0.053,0.983 -0.046,0.77 -0.149,0.551 -0.225,0.33 -0.246,0.268 -0.279,0.211 -0.31,0.155 -0.343,0.097 -0.376,0.037 -0.385,-0.01 c 0,-0.002 0,-0.005 0,-0.008 C -0.337,-0.025 -0.22,-0.029 0,0"
             style="fill:#231f20;fill-opacity:1;fill-rule:nonzero;stroke:none"
             id="path3041" />
        </g>
        <g
           id="g3043"
           transform="translate(313.721,219.92)">
          <path
             d="m 0,0 c -0.159,0 -0.37,-0.026 -0.542,-0.004 -0.057,0.007 -0.11,0.019 -0.155,0.039 -0.008,-0.017 -0.011,-0.037 -0.013,-0.057 -0.004,-0.051 0.004,-0.108 0.004,-0.153 -0.001,-0.164 0.001,-0.327 0,-0.49 -0.001,-0.142 0.005,-0.268 0.042,-0.406 0.037,-0.139 0.12,-0.249 0.18,-0.379 0.069,-0.149 0.143,-0.235 0.273,-0.345 0.138,-0.117 0.248,-0.281 0.398,-0.383 0.154,-0.105 0.372,-0.142 0.538,-0.239 0.173,-0.1 0.263,-0.118 0.469,-0.116 0.202,0.002 0.404,0 0.606,-10e-4 0.2,-0.001 0.306,0.068 0.448,0.196 0.135,0.122 0.259,0.255 0.391,0.379 0.134,0.127 0.2,0.297 0.255,0.461 0.055,0.164 0.105,0.353 0.112,0.524 0.006,0.169 0.066,0.32 0.085,0.487 0.015,0.125 0.015,0.259 0.011,0.389 C 3.1,-0.055 3.098,-0.012 3.096,0.029 3.094,0.076 3.085,0.121 3.076,0.167 3.069,0.165 3.06,0.165 3.053,0.164 3.034,0.16 3.015,0.157 2.995,0.156 c -0.116,-0.012 -0.243,0 -0.345,0 H 2.146 C 2.039,0.156 1.905,0.175 1.802,0.15 1.797,0.132 1.796,0.118 1.795,0.103 1.794,0.044 1.827,0.006 1.844,-0.055 1.88,-0.192 1.841,-0.386 1.842,-0.525 1.843,-0.698 1.864,-0.81 1.666,-0.896 1.574,-0.936 1.491,-1.003 1.399,-1.038 1.289,-1.079 1.148,-1.052 1.033,-1.052 0.966,-1.051 0.84,-1.071 0.776,-1.047 0.698,-1.018 0.683,-0.959 0.635,-0.904 0.597,-0.861 0.533,-0.823 0.507,-0.772 0.482,-0.72 0.5,-0.649 0.501,-0.594 0.503,-0.433 0.433,-0.118 0.573,0.003 0.385,-0.011 0.189,0 0,0"
             style="fill:#231f20;fill-opacity:1;fill-rule:nonzero;stroke:none"
             id="path3045" />
        </g>
        <g
           id="g3047"
           transform="translate(323.467,220.139)">
          <path
             d="M 0,0 C 0.058,-0.001 0.112,-0.011 0.16,-0.02 0.194,-0.027 0.228,-0.033 0.262,-0.035 0.299,-0.037 0.313,-0.032 0.351,-0.016 0.37,-0.008 0.392,0 0.417,0.008 0.59,0.064 0.796,0.054 0.978,0.045 1.045,0.041 1.111,0.039 1.172,0.038 H 1.184 C 1.333,0.038 1.479,0.027 1.62,0.017 1.73,0.009 1.841,0 1.954,-0.003 2.227,-0.01 2.554,-0.028 2.897,-0.104 2.92,-0.109 2.943,-0.113 2.965,-0.118 2.94,-0.065 2.92,-0.013 2.904,0.031 L 2.892,0.062 C 2.863,0.136 2.824,0.205 2.783,0.279 2.721,0.391 2.657,0.506 2.623,0.646 2.538,0.991 2.451,1.37 2.35,1.838 2.333,1.917 2.302,1.993 2.269,2.072 2.25,2.118 2.231,2.164 2.213,2.212 2.175,2.319 2.161,2.428 2.148,2.534 2.143,2.575 2.137,2.615 2.131,2.654 2.085,2.93 1.984,3.19 1.877,3.465 1.852,3.529 1.827,3.594 1.803,3.658 1.689,3.962 1.588,4.274 1.491,4.576 L 1.482,4.601 C 1.444,4.72 1.391,4.833 1.334,4.953 1.291,5.046 1.247,5.138 1.211,5.234 1.187,5.295 1.168,5.358 1.15,5.421 1.142,5.449 1.134,5.475 1.126,5.501 1.121,5.496 1.116,5.49 1.111,5.483 1.027,5.378 1.003,5.261 0.975,5.124 0.964,5.072 0.953,5.019 0.939,4.965 0.926,4.915 0.912,4.865 0.898,4.815 0.84,4.609 0.781,4.396 0.77,4.19 0.761,4.01 0.715,3.841 0.671,3.677 0.643,3.57 0.616,3.47 0.598,3.366 0.574,3.226 0.532,3.096 0.491,2.969 0.451,2.843 0.412,2.723 0.392,2.597 0.334,2.233 0.215,1.853 0.097,1.495 0.073,1.421 0.047,1.347 0.021,1.273 -0.035,1.117 -0.087,0.969 -0.122,0.816 -0.151,0.691 -0.19,0.571 -0.229,0.455 -0.255,0.374 -0.282,0.294 -0.305,0.212 -0.311,0.191 -0.315,0.169 -0.319,0.147 -0.328,0.101 -0.339,0.05 -0.361,-0.001 c 0.036,0 0.071,0 0.107,0.001 0.085,0.001 0.17,0.002 0.254,0"
             style="fill:#231f20;fill-opacity:1;fill-rule:nonzero;stroke:none"
             id="path3049" />
        </g>
        <g
           id="g3051"
           transform="translate(322.765,219.546)">
          <path
             d="m 0,0 c 0.01,-0.326 -0.066,-0.695 0.057,-1.004 0.036,-0.089 0.05,-0.22 0.108,-0.297 0.057,-0.075 0.096,-0.129 0.137,-0.214 0.099,-0.203 0.393,-0.371 0.604,-0.48 0.273,-0.14 0.5,-0.157 0.811,-0.157 0.136,0 0.303,-0.024 0.438,0.006 0.15,0.033 0.317,0.1 0.459,0.152 0.157,0.058 0.32,0.099 0.46,0.186 0.126,0.078 0.225,0.177 0.34,0.265 0.236,0.179 0.413,0.302 0.502,0.576 0.074,0.23 -0.018,0.446 -0.022,0.675 -0.002,0.086 -0.015,0.154 -0.035,0.239 -0.017,0.077 0,0.16 10e-4,0.238 0,0.03 -10e-4,0.06 -0.009,0.089 C 3.846,0.292 3.84,0.307 3.832,0.319 3.787,0.394 3.693,0.376 3.578,0.377 3.556,0.377 3.537,0.375 3.517,0.374 3.422,0.366 3.339,0.343 3.241,0.334 3.163,0.328 3.081,0.341 3.003,0.338 2.962,0.337 2.922,0.33 2.883,0.323 2.822,0.312 2.761,0.298 2.698,0.296 2.632,0.293 2.537,0.315 2.472,0.3 2.304,0.26 2.493,0.155 2.534,0.093 2.597,-0.001 2.586,-0.239 2.569,-0.337 2.544,-0.478 2.504,-0.562 2.383,-0.651 2.275,-0.729 2.263,-0.732 2.11,-0.73 c -0.096,0.001 -0.191,0 -0.287,-0.001 -0.123,0 -0.192,0 -0.29,0.077 -0.075,0.06 -0.142,0.131 -0.204,0.2 C 1.128,-0.231 1.077,0.039 1.234,0.287 1.198,0.31 1.163,0.322 1.127,0.329 1.049,0.342 0.97,0.325 0.886,0.309 0.881,0.309 0.876,0.308 0.871,0.307 0.715,0.278 0.553,0.269 0.394,0.253 0.342,0.248 0.073,0.165 -0.077,0.151 c 0.052,-0.103 0.07,-0.155 0.074,-0.174 0,0.005 0,0.013 0.003,0.023"
             style="fill:#231f20;fill-opacity:1;fill-rule:nonzero;stroke:none"
             id="path3053" />
        </g>
        <g
           id="g3055"
           transform="translate(331.059,216.452)">
          <path
             d="M 0,0 -0.027,0.108 C -0.092,0.369 -0.158,0.639 -0.319,0.807 -0.342,0.832 -0.366,0.858 -0.389,0.884 -0.473,0.976 -0.546,1.056 -0.63,1.088 L -0.673,1.104 C -0.822,1.159 -0.93,1.201 -1.062,1.198 -1.238,1.197 -1.436,1.196 -1.607,1.154 -1.628,1.149 -1.677,1.133 -1.775,1.08 -1.81,1.054 -1.849,1.026 -1.901,1.008 -1.928,0.998 -1.954,0.993 -1.982,0.991 -2.016,0.967 -2.058,0.938 -2.119,0.91 -2.126,0.907 -2.131,0.905 -2.135,0.903 -2.137,0.898 -2.139,0.893 -2.141,0.888 -2.146,0.877 -2.151,0.865 -2.157,0.853 c 0.016,0.015 0.035,0.031 0.058,0.044 0.058,0.034 0.113,0.043 0.154,0.043 0.05,0.022 0.103,0.04 0.19,0.044 0.266,0.014 0.694,-0.138 0.762,-0.511 0.029,-0.158 0.007,-0.363 -0.027,-0.496 0,-0.002 -10e-4,-0.011 -0.002,-0.021 -0.005,-0.054 -0.013,-0.127 -0.05,-0.198 -0.036,-0.069 -0.091,-0.11 -0.121,-0.132 -0.009,-0.013 -0.017,-0.025 -0.025,-0.038 -0.05,-0.079 -0.12,-0.188 -0.244,-0.26 -0.131,-0.075 -0.276,-0.068 -0.393,-0.062 -0.026,0.002 -0.052,0.005 -0.075,0.003 -0.122,0.001 -0.188,0.025 -0.261,0.07 -0.007,0.005 -0.015,0.01 -0.026,0.016 0,-0.001 -0.007,0.001 -0.014,0.002 -0.023,0.005 -0.047,0.011 -0.074,0.02 -0.107,0.035 -0.185,0.103 -0.248,0.157 -0.025,0.022 -0.054,0.048 -0.07,0.056 -0.018,0.01 -0.036,0.017 -0.053,0.025 -0.038,0.017 -0.085,0.037 -0.136,0.071 -0.025,0.016 -0.051,0.031 -0.077,0.045 -0.028,0.016 -0.055,0.032 -0.082,0.049 -0.029,0.018 -0.06,0.042 -0.091,0.068 -0.011,0.009 -0.022,0.019 -0.033,0.026 l -0.004,0.001 c -0.04,0.001 -0.106,0.003 -0.18,0.035 l -0.039,0.017 c -0.047,0.021 -0.065,0.029 -0.107,0.038 -0.064,0.014 -0.115,0.024 -0.179,0.034 -0.078,0.012 -0.143,0.034 -0.195,0.052 -0.06,0.02 -0.095,0.032 -0.133,0.032 -0.081,0.001 -0.145,0.02 -0.19,0.034 -0.016,0.005 -0.032,0.011 -0.051,0.013 -0.026,0.003 -0.054,0 -0.082,-0.001 C -4.283,0.128 -4.308,0.127 -4.336,0.127 H -4.733 C -4.813,0.126 -4.894,0.117 -4.98,0.107 -5.08,0.095 -5.182,0.084 -5.299,0.084 -5.456,0.085 -5.622,0.069 -5.811,0.035 -5.845,0.029 -5.883,0.024 -5.922,0.019 -5.967,0.013 -6.014,0.007 -6.052,-0.002 c 0.004,0 -0.002,-0.004 -0.009,-0.008 -0.033,-0.02 -0.078,-0.046 -0.138,-0.062 -0.105,-0.028 -0.207,-0.022 -0.288,-0.017 -0.03,0.002 -0.06,0.004 -0.089,0.003 -0.028,-0.001 -0.062,-0.008 -0.101,-0.017 -0.055,-0.012 -0.124,-0.027 -0.202,-0.029 l -0.058,-0.001 c -0.079,0 -0.131,-0.001 -0.186,-0.018 C -7.227,-0.182 -7.327,-0.204 -7.424,-0.225 -7.517,-0.245 -7.605,-0.263 -7.689,-0.29 -7.758,-0.311 -7.828,-0.337 -7.897,-0.364 -8.07,-0.429 -8.266,-0.503 -8.478,-0.517 -8.579,-0.524 -8.676,-0.53 -8.771,-0.552 -8.85,-0.57 -8.923,-0.608 -9.016,-0.658 -9.06,-0.682 -9.101,-0.698 -9.144,-0.714 -9.163,-0.721 -9.181,-0.728 -9.201,-0.737 -9.236,-0.753 -9.275,-0.789 -9.32,-0.829 c -0.061,-0.056 -0.138,-0.125 -0.24,-0.176 -0.123,-0.06 -0.232,-0.116 -0.321,-0.184 -0.021,-0.017 -0.037,-0.036 -0.054,-0.054 -0.044,-0.048 -0.104,-0.113 -0.196,-0.162 -0.105,-0.056 -0.222,-0.094 -0.282,-0.111 -0.09,-0.025 -0.182,-0.045 -0.274,-0.064 -0.058,-0.012 -0.116,-0.024 -0.172,-0.038 -0.028,-0.007 -0.046,-0.01 -0.062,-0.017 -0.012,-0.008 -0.024,-0.019 -0.043,-0.036 -0.073,-0.064 -0.134,-0.11 -0.187,-0.141 -0.116,-0.069 -0.216,-0.062 -0.279,-0.044 -0.144,0.039 -0.209,0.157 -0.247,0.227 -0.007,0.013 -0.014,0.027 -0.022,0.039 -0.072,0.109 -0.159,0.213 -0.225,0.271 -0.064,0.056 -0.123,0.111 -0.18,0.165 -0.137,0.129 -0.255,0.24 -0.416,0.326 -0.036,0.019 -0.074,0.045 -0.111,0.071 -0.021,0.015 -0.052,0.036 -0.064,0.042 -0.058,0.007 -0.148,0.019 -0.242,0.096 -0.017,0.014 -0.031,0.027 -0.044,0.04 -0.003,0.001 -0.007,0.002 -0.011,0.002 -0.05,0.01 -0.126,0.026 -0.209,0.079 -0.024,0.016 -0.048,0.034 -0.072,0.053 -0.005,0.004 -0.01,0.008 -0.015,0.012 -0.031,-0.002 -0.076,-0.006 -0.128,0.001 -0.087,0.012 -0.157,0.046 -0.209,0.071 -0.019,0.009 -0.037,0.019 -0.057,0.024 -0.09,0.023 -0.161,0.052 -0.23,0.08 -0.093,0.039 -0.186,0.069 -0.277,0.089 -0.064,0.015 -0.117,0.036 -0.164,0.054 -0.027,0.011 -0.054,0.023 -0.083,0.03 -0.177,0.044 -0.347,0.082 -0.5,0.082 -0.129,0 -0.253,0.011 -0.371,0.023 -0.098,0.01 -0.19,0.019 -0.281,0.021 -0.153,0.002 -0.306,0.002 -0.458,0 -0.036,-0.001 -0.073,-0.009 -0.119,-0.018 -0.05,-0.011 -0.099,-0.021 -0.152,-0.026 -0.058,-0.006 -0.115,-0.005 -0.173,-0.004 -0.051,0.001 -0.096,0.002 -0.132,-0.004 l -0.026,-0.006 c -0.037,-0.009 -0.088,-0.02 -0.151,-0.019 -0.096,0.003 -0.177,0.028 -0.242,0.048 -0.021,0.007 -0.04,0.013 -0.057,0.018 -0.042,-0.022 -0.091,-0.034 -0.143,-0.034 l -0.027,0.001 -0.025,-0.006 -0.097,-0.017 c -0.104,-0.018 -0.206,-0.036 -0.311,-0.058 l -0.053,-0.012 c -0.136,-0.028 -0.234,-0.049 -0.319,-0.113 -0.088,-0.066 -0.168,-0.096 -0.233,-0.12 -0.021,-0.008 -0.044,-0.016 -0.068,-0.026 -0.014,-0.007 -0.036,-0.024 -0.061,-0.044 -0.033,-0.026 -0.075,-0.059 -0.128,-0.089 -0.076,-0.042 -0.151,-0.062 -0.212,-0.079 -0.028,-0.008 -0.057,-0.015 -0.085,-0.027 -0.008,-0.003 -0.027,-0.018 -0.044,-0.031 -0.034,-0.027 -0.068,-0.053 -0.108,-0.076 -0.082,-0.046 -0.158,-0.062 -0.219,-0.076 -0.021,-0.004 -0.042,-0.008 -0.064,-0.015 -0.031,-0.01 -0.059,-0.025 -0.088,-0.039 -0.042,-0.021 -0.083,-0.041 -0.127,-0.058 -0.293,-0.108 -0.681,-0.076 -0.924,-0.016 -0.108,0.026 -0.22,0.054 -0.345,0.109 -0.014,0.006 -0.029,0.012 -0.043,0.018 -0.031,0.012 -0.062,0.024 -0.091,0.038 -0.099,0.048 -0.155,0.104 -0.192,0.193 -0.013,0.014 -0.033,0.038 -0.051,0.06 -0.111,0.133 -0.248,0.299 -0.246,0.572 0.001,0.035 -0.002,0.074 -0.004,0.115 -0.009,0.188 -0.023,0.459 0.136,0.657 -0.035,0.001 -0.071,0 -0.08,-0.006 -0.015,-0.009 -0.027,-0.02 -0.04,-0.031 C -21.407,0.807 -21.424,0.793 -21.444,0.778 -21.501,0.735 -21.56,0.71 -21.606,0.69 -21.628,0.68 -21.657,0.668 -21.665,0.661 -21.668,0.659 -21.67,0.656 -21.683,0.638 L -21.701,0.614 C -21.741,0.561 -21.775,0.532 -21.8,0.511 -21.807,0.506 -21.814,0.5 -21.822,0.492 l -0.13,-0.13 C -21.964,0.35 -21.98,0.32 -21.996,0.287 c -0.013,-0.025 -0.027,-0.051 -0.041,-0.076 -0.02,-0.033 -0.044,-0.066 -0.068,-0.098 -0.012,-0.015 -0.03,-0.039 -0.035,-0.048 -0.009,-0.033 -0.011,-0.099 -0.012,-0.163 -0.002,-0.073 -0.004,-0.155 -0.02,-0.239 -0.025,-0.127 -0.043,-0.224 -0.046,-0.325 l -0.003,-0.074 c -0.004,-0.097 -0.011,-0.229 0.021,-0.281 0.011,-0.018 0.024,-0.036 0.037,-0.054 0.03,-0.04 0.066,-0.09 0.094,-0.149 0.013,-0.026 0.02,-0.05 0.025,-0.071 0.003,-0.002 0.005,-0.004 0.008,-0.007 0.039,-0.038 0.058,-0.056 0.083,-0.071 0.013,-0.008 0.029,-0.012 0.044,-0.018 0.051,-0.018 0.12,-0.044 0.187,-0.096 l 0.061,-0.05 c 0.059,-0.049 0.12,-0.099 0.167,-0.119 0.024,-0.01 0.054,-0.025 0.084,-0.042 0.021,-0.01 0.042,-0.023 0.06,-0.029 0.014,-0.004 0.032,-0.005 0.051,-0.007 0.056,-0.006 0.133,-0.014 0.219,-0.053 0.15,-0.067 0.32,-0.144 0.484,-0.195 0.01,-0.003 0.044,-0.005 0.067,-0.006 0.042,-0.003 0.095,-0.006 0.15,-0.019 0.056,-0.013 0.103,-0.032 0.14,-0.047 0.017,-0.007 0.034,-0.015 0.052,-0.019 0.101,-0.024 0.336,0.002 0.413,0.01 l 0.664,0.074 -0.443,-0.5 c -0.021,-0.023 -0.046,-0.066 -0.07,-0.108 -0.021,-0.036 -0.042,-0.072 -0.064,-0.105 -0.051,-0.074 -0.081,-0.136 -0.094,-0.191 -0.009,-0.036 -0.003,-0.122 0.002,-0.185 0.004,-0.051 0.007,-0.101 0.007,-0.144 v -0.049 c -0.001,-0.088 -0.001,-0.171 0.014,-0.232 0.019,-0.078 0.044,-0.132 0.077,-0.171 0.031,-0.036 0.059,-0.078 0.086,-0.119 0.018,-0.026 0.035,-0.054 0.047,-0.066 0,0.003 0.013,-0.002 0.025,-0.007 0.04,-0.018 0.096,-0.043 0.149,-0.087 0.068,-0.056 0.123,-0.12 0.172,-0.177 0.029,-0.033 0.057,-0.067 0.088,-0.097 0.03,-0.028 0.071,-0.056 0.115,-0.086 0.051,-0.035 0.108,-0.075 0.164,-0.125 0.042,-0.038 0.102,-0.075 0.165,-0.115 0.041,-0.026 0.081,-0.051 0.119,-0.077 0.217,-0.151 0.457,-0.219 0.658,-0.187 0.17,0.028 0.335,0.014 0.493,10e-4 0.157,-0.013 0.305,-0.025 0.422,0.007 0.064,0.018 0.107,0.036 0.148,0.061 0.058,0.035 0.116,0.056 0.162,0.074 0.032,0.011 0.064,0.023 0.079,0.034 0.065,0.043 0.112,0.123 0.121,0.203 0.003,0.027 0.001,0.059 -0.001,0.088 v 0.012 c -0.011,0.026 -0.018,0.045 -0.025,0.067 -0.022,0.079 -0.021,0.15 -0.02,0.202 0,0.019 10e-4,0.046 -0.001,0.054 -0.004,0.014 -0.008,0.033 -0.012,0.054 -10e-4,0.007 -0.003,0.015 -0.005,0.024 -0.014,0.013 -0.028,0.03 -0.043,0.05 -0.002,-0.006 -0.005,-0.013 -0.008,-0.019 -0.055,-0.119 -0.158,-0.174 -0.214,-0.204 -0.008,-0.004 -0.016,-0.008 -0.023,-0.012 -0.242,-0.164 -0.512,-0.181 -0.74,-0.047 -0.046,0.027 -0.089,0.06 -0.132,0.094 -0.021,0.016 -0.042,0.033 -0.064,0.047 -0.032,0.012 -0.101,0.039 -0.161,0.11 -0.042,0.05 -0.061,0.1 -0.073,0.133 -0.009,0.01 -0.019,0.02 -0.028,0.029 -0.06,0.061 -0.149,0.152 -0.183,0.317 -0.027,0.135 -0.003,0.266 0.073,0.4 0.024,0.042 0.052,0.083 0.08,0.123 0.033,0.047 0.064,0.092 0.077,0.128 l 0.002,0.015 c 0.007,0.035 0.018,0.087 0.048,0.143 0.057,0.105 0.137,0.153 0.189,0.185 l 0.016,0.009 c 0.012,0.008 0.015,0.011 0.039,0.039 0.017,0.02 0.035,0.041 0.058,0.064 l 0.019,0.019 c 0.1,0.101 0.224,0.227 0.361,0.302 0.144,0.078 0.293,0.146 0.438,0.212 l 0.072,0.033 c 0.088,0.04 0.181,0.078 0.271,0.113 0.068,0.027 0.131,0.039 0.182,0.049 0.036,0.007 0.068,0.013 0.091,0.023 0.238,0.1 0.443,0.152 0.625,0.16 0.114,0.005 0.228,0.003 0.341,0.002 0.055,-10e-4 0.109,-0.002 0.164,-0.002 l 0.079,0.001 c 0.05,0 0.101,10e-4 0.152,0 0.118,-0.003 0.202,-0.039 0.263,-0.065 0.021,-0.009 0.042,-0.018 0.068,-0.025 0.121,-0.032 0.201,-0.083 0.264,-0.124 0.025,-0.016 0.051,-0.033 0.082,-0.049 0.027,-0.015 0.055,-0.028 0.082,-0.042 0.088,-0.044 0.187,-0.094 0.28,-0.165 0.115,-0.087 0.213,-0.183 0.308,-0.277 0.085,-0.083 0.165,-0.162 0.25,-0.227 0.107,-0.081 0.171,-0.182 0.222,-0.263 0.019,-0.031 0.039,-0.062 0.061,-0.091 l 0.059,-0.075 c 0.064,-0.082 0.131,-0.168 0.189,-0.255 0.1,-0.149 0.129,-0.314 0.155,-0.461 0.008,-0.047 0.016,-0.094 0.027,-0.138 0.007,-0.026 0.015,-0.05 0.022,-0.074 0.023,-0.071 0.048,-0.151 0.052,-0.254 0.003,-0.067 0.002,-0.136 10e-4,-0.204 l -10e-4,-0.094 c 0,-0.054 0.004,-0.113 0.007,-0.173 0.008,-0.139 0.016,-0.298 -0.009,-0.442 -0.017,-0.101 -0.044,-0.197 -0.07,-0.29 -0.021,-0.073 -0.04,-0.143 -0.054,-0.21 0.003,-0.04 0.006,-0.089 -0.009,-0.145 -0.016,-0.063 -0.047,-0.106 -0.071,-0.133 -0.01,-0.023 -0.022,-0.045 -0.033,-0.068 -0.011,-0.021 -0.022,-0.042 -0.03,-0.063 -0.061,-0.158 -0.144,-0.291 -0.224,-0.411 -0.045,-0.067 -0.095,-0.113 -0.135,-0.15 -0.015,-0.014 -0.031,-0.028 -0.046,-0.044 0.004,0.003 0.001,-0.006 -0.003,-0.015 -0.015,-0.036 -0.037,-0.086 -0.076,-0.134 -0.038,-0.047 -0.082,-0.08 -0.113,-0.105 -0.01,-0.007 -0.02,-0.014 -0.028,-0.022 -0.029,-0.027 -0.055,-0.062 -0.086,-0.103 -0.052,-0.069 -0.11,-0.146 -0.2,-0.216 -0.073,-0.056 -0.147,-0.098 -0.213,-0.134 -0.044,-0.024 -0.087,-0.047 -0.128,-0.076 -0.159,-0.112 -0.346,-0.21 -0.588,-0.309 -0.015,-0.006 -0.031,-0.012 -0.047,-0.017 0.016,-0.019 0.03,-0.033 0.042,-0.039 0.084,-0.042 0.142,-0.103 0.184,-0.147 0.005,-0.006 0.01,-0.011 0.015,-0.016 0.034,-0.003 0.075,-0.01 0.117,-0.031 0.064,-0.031 0.101,-0.076 0.122,-0.107 0.013,-0.009 0.031,-0.017 0.064,-0.031 0.137,-0.057 0.249,-0.137 0.347,-0.207 0.07,-0.05 0.135,-0.096 0.203,-0.131 0.056,-0.029 0.134,-0.046 0.216,-0.065 l 0.067,-0.016 c 0.077,-0.019 0.15,-0.044 0.224,-0.069 0.054,-0.019 0.109,-0.038 0.166,-0.052 0.038,-0.01 0.083,-0.014 0.135,-0.018 0.092,-0.007 0.207,-0.016 0.327,-0.07 0.035,-0.015 0.076,-0.022 0.129,-0.032 0.044,-0.007 0.089,-0.015 0.136,-0.028 0.045,-0.011 0.091,-0.025 0.138,-0.04 0.067,-0.02 0.131,-0.04 0.186,-0.049 0.166,-0.027 0.363,-0.018 0.553,-0.009 l 0.072,0.003 0.071,-0.003 c 0.191,-0.009 0.388,-0.018 0.553,0.009 0.056,0.009 0.119,0.029 0.186,0.049 0.047,0.015 0.093,0.029 0.139,0.04 0.049,0.013 0.098,0.025 0.147,0.037 0.21,0.051 0.408,0.1 0.576,0.203 0.226,0.139 0.468,0.224 0.702,0.306 0.068,0.023 0.136,0.047 0.204,0.073 0.16,0.059 0.226,0.084 0.309,0.159 0.1,0.092 0.208,0.172 0.311,0.245 0.053,0.038 0.108,0.086 0.163,0.141 0.01,0.01 0.017,0.021 0.026,0.033 0.036,0.046 0.089,0.115 0.175,0.163 0.011,0.006 0.02,0.011 0.03,0.016 -0.033,0.007 -0.061,0.015 -0.085,0.023 -0.025,0.007 -0.047,0.014 -0.06,0.015 -0.014,0 -0.029,-0.001 -0.043,-0.002 -0.058,-0.003 -0.138,-0.008 -0.227,0.022 -0.048,0.016 -0.087,0.038 -0.115,0.055 -0.008,0.004 -0.015,0.009 -0.024,0.013 -0.259,0.081 -0.532,0.167 -0.766,0.426 -0.031,0.034 -0.063,0.064 -0.094,0.094 -0.044,0.041 -0.088,0.083 -0.129,0.129 -0.023,0.025 -0.048,0.047 -0.073,0.069 -0.06,0.054 -0.135,0.12 -0.192,0.216 -0.279,0.465 -0.419,0.874 -0.454,1.326 -0.004,0.056 -0.011,0.11 -0.018,0.163 -0.013,0.099 -0.026,0.201 -0.026,0.319 v 0.114 c -10e-4,0.065 -0.002,0.13 -10e-4,0.195 0.002,0.107 0.019,0.206 0.035,0.294 0.008,0.04 0.015,0.082 0.021,0.123 0.025,0.19 0.065,0.367 0.12,0.526 0.147,0.427 0.476,0.733 0.766,1.003 0.042,0.038 0.083,0.077 0.124,0.116 0.336,0.319 0.772,0.57 1.298,0.744 0.161,0.053 0.306,0.085 0.445,0.098 0.036,0.003 0.069,0.01 0.103,0.017 0.062,0.012 0.133,0.026 0.215,0.027 0.047,10e-4 0.096,0.003 0.146,0.006 0.162,0.009 0.345,0.019 0.511,-0.024 0.084,-0.021 0.182,-0.032 0.286,-0.042 0.073,-0.008 0.146,-0.015 0.217,-0.027 0.232,-0.037 0.456,-0.183 0.669,-0.432 0.027,-0.033 0.056,-0.063 0.084,-0.093 0.051,-0.054 0.103,-0.111 0.153,-0.177 0.048,-0.065 0.091,-0.133 0.134,-0.199 l 0.025,-0.04 c 0.089,-0.136 0.117,-0.281 0.143,-0.408 0.01,-0.053 0.02,-0.105 0.036,-0.157 0.072,-0.227 0.047,-0.42 0.009,-0.595 -0.015,-0.071 -0.018,-0.158 -0.021,-0.251 -10e-4,-0.049 -0.003,-0.097 -0.006,-0.143 l -0.003,-0.043 c -0.005,-0.089 -0.012,-0.19 -0.043,-0.297 -0.02,-0.069 -0.048,-0.138 -0.092,-0.223 -0.149,-0.295 -0.473,-0.457 -0.912,-0.457 -0.137,0 -0.604,-0.002 -0.81,0.397 -0.037,0.072 -0.067,0.148 -0.092,0.235 -0.002,-0.01 -0.005,-0.02 -0.006,-0.03 -0.011,-0.072 -0.006,-0.179 -0.001,-0.274 l 0.004,-0.086 c 10e-4,-0.015 0.009,-0.028 0.068,-0.088 0.025,-0.026 0.051,-0.052 0.075,-0.081 0.021,-0.024 0.04,-0.054 0.059,-0.085 0.008,-0.001 0.015,-0.003 0.022,-0.004 0.041,-0.01 0.072,-0.027 0.097,-0.044 0.011,-0.002 0.022,-0.004 0.033,-0.005 0.092,-0.013 0.207,-0.029 0.323,-0.1 l 0.021,-0.013 c 0.094,-0.059 0.191,-0.119 0.277,-0.141 0.073,-0.019 0.138,-0.021 0.229,-0.025 l 0.068,-0.003 c 0.048,-0.002 0.094,-0.004 0.129,0 0.119,0.047 0.236,0.102 0.348,0.164 0.282,0.156 0.516,0.242 0.758,0.282 0.116,0.018 0.248,0.112 0.376,0.202 0.068,0.048 0.135,0.096 0.202,0.135 0.11,0.067 0.158,0.117 0.197,0.207 0.078,0.184 0.177,0.348 0.272,0.507 0.12,0.2 0.233,0.389 0.297,0.598 0.009,0.029 0.018,0.056 0.028,0.082 0.019,0.052 0.026,0.072 0.025,0.096 0,0.022 -10e-4,0.044 -0.002,0.067 -0.004,0.085 -0.01,0.192 0.017,0.295 l 0.041,0.158 0.222,0.042 c 0.204,0.039 0.419,0.085 0.624,0.183 0.039,0.019 0.076,0.033 0.115,0.048 0.019,0.008 0.039,0.015 0.06,0.024 0.019,0.008 0.045,0.031 0.075,0.056 0.034,0.03 0.077,0.067 0.13,0.1 0.073,0.045 0.149,0.087 0.226,0.129 0.12,0.065 0.233,0.127 0.327,0.201 0.03,0.024 0.06,0.06 0.094,0.102 0.021,0.027 0.043,0.054 0.067,0.08 0.032,0.035 0.066,0.065 0.102,0.093 0.018,0.015 0.039,0.032 0.043,0.039 0.026,0.043 0.056,0.086 0.086,0.13 0.052,0.075 0.104,0.151 0.128,0.214 0.042,0.109 0.047,0.197 0.047,0.358 0,0.056 0.003,0.118 0.007,0.182 C 0.01,-0.187 0.018,-0.068 0,0"
             style="fill:#231f20;fill-opacity:1;fill-rule:nonzero;stroke:none"
             id="path3057" />
        </g>
        <g
           id="g3059"
           transform="translate(316.694,217.312)">
          <path
             d="M 0,0 C 0.066,0 0.122,0.057 0.176,0.072 0.27,0.099 0.411,0.12 0.51,0.127 0.639,0.135 0.773,0.126 0.903,0.126 c 0.201,0 0.345,-0.063 0.529,-0.13 0.257,-0.093 0.513,-0.21 0.72,-0.378 C 2.237,-0.451 2.344,-0.488 2.43,-0.561 2.517,-0.635 2.548,-0.733 2.622,-0.813 2.634,-0.825 2.674,-0.811 2.687,-0.824 2.721,-0.861 2.725,-0.926 2.76,-0.967 2.789,-1 2.834,-1.013 2.861,-1.044 2.876,-1.061 2.876,-1.099 2.888,-1.118 2.934,-1.19 2.983,-1.227 2.999,-1.312 3.012,-1.379 3.02,-1.438 3.041,-1.506 c 0.022,-0.069 0.042,-0.1 0.075,-0.17 0.027,-0.056 0.048,-0.111 0.054,-0.171 0.006,-0.057 -0.029,-0.143 0.058,-0.128 0.02,0.003 0.041,0.024 0.055,0.038 0.045,0.044 0.254,0.668 0.1,0.218 0.074,-0.006 0.216,0.217 0.256,0.265 0.16,0.188 0.227,0.386 0.431,0.541 0.066,0.05 0.119,0.084 0.172,0.146 0.062,0.074 0.095,0.148 0.178,0.205 0.123,0.085 0.245,0.137 0.357,0.237 0.162,0.145 0.412,0.257 0.622,0.311 C 5.521,0.018 5.662,0.05 5.786,0.072 5.877,0.088 5.984,0.061 6.069,0.089 6.061,0.159 5.928,0.217 5.872,0.263 5.746,0.368 5.602,0.446 5.475,0.552 5.427,0.574 5.387,0.605 5.354,0.646 5.329,0.703 5.298,0.755 5.26,0.803 5.204,0.866 5.114,0.93 5.047,0.982 4.892,1.104 4.718,1.182 4.551,1.282 4.383,1.383 4.213,1.409 4.025,1.454 3.868,1.491 3.717,1.541 3.555,1.539 3.401,1.538 3.247,1.541 3.094,1.54 2.961,1.538 2.851,1.584 2.72,1.582 2.456,1.579 2.225,1.575 1.977,1.485 1.897,1.456 1.843,1.474 1.763,1.457 1.688,1.441 1.651,1.39 1.584,1.356 1.445,1.285 1.327,1.226 1.198,1.133 1.059,1.033 0.922,0.965 0.801,0.844 0.737,0.78 0.688,0.697 0.63,0.637 0.574,0.578 0.487,0.566 0.422,0.511 0.33,0.435 0.246,0.345 0.158,0.265 0.109,0.221 -0.011,0.077 0,0"
             style="fill:#231f20;fill-opacity:1;fill-rule:nonzero;stroke:none"
             id="path3061" />
        </g>
      </g>
    </g>
  </g>
</svg>
