<?xml version="1.0" encoding="UTF-8" standalone="no"?>
<!-- Created with Inkscape (http://www.inkscape.org/) -->

<svg
   width="24.651999"
   height="24"
   viewBox="0 0 6.5225079 6.35"
   version="1.1"
   id="svg42864"
   inkscape:version="1.2.1 (9c6d41e4, 2022-07-14)"
   sodipodi:docname="temporal-flux.svg"
   xmlns:inkscape="http://www.inkscape.org/namespaces/inkscape"
   xmlns:sodipodi="http://sodipodi.sourceforge.net/DTD/sodipodi-0.dtd"
   xmlns="http://www.w3.org/2000/svg"
   xmlns:svg="http://www.w3.org/2000/svg">
  <sodipodi:namedview
     id="namedview42866"
     pagecolor="#505050"
     bordercolor="#eeeeee"
     borderopacity="1"
     inkscape:showpageshadow="0"
     inkscape:pageopacity="0"
     inkscape:pagecheckerboard="0"
     inkscape:deskcolor="#505050"
     inkscape:document-units="mm"
     showgrid="false"
     inkscape:zoom="0.7046647"
     inkscape:cx="95.080681"
     inkscape:cy="263.24577"
     inkscape:window-width="1390"
     inkscape:window-height="941"
     inkscape:window-x="0"
     inkscape:window-y="25"
     inkscape:window-maximized="0"
     inkscape:current-layer="layer1" />
  <defs
     id="defs42861">
    <clipPath
       clipPathUnits="userSpaceOnUse"
       id="clipPath5923">
      <path
         d="m 365.068,419.052 h 24.7 v 24.699 h -24.7 z"
         id="path5921" />
    </clipPath>
  </defs>
  <g
     inkscape:label="Layer 1"
     inkscape:groupmode="layer"
     id="layer1"
     transform="translate(-79.789118,-79.142419)">
    <g
       id="g5917"
       transform="matrix(0.29188568,0,0,-0.29188568,-27.112394,208.23707)">
      <g
         id="g5919"
         clip-path="url(#clipPath5923)">
        <g
           id="g5925"
           transform="translate(381.831,421.686)">
          <path
             d="M 0,0 0.004,-0.003 C -0.002,-0.004 -0.005,-0.004 0,0 M 2.908,7.893 2.856,8.062 2.83,8.147 C 2.819,8.183 2.805,8.217 2.791,8.248 2.731,8.373 2.658,8.472 2.603,8.565 2.533,8.679 2.455,8.776 2.37,8.869 2.327,8.915 2.283,8.96 2.235,9.004 L 2.105,9.121 C 2.019,9.2 1.92,9.288 1.805,9.358 1.69,9.43 1.563,9.477 1.458,9.518 1.349,9.558 1.274,9.599 1.167,9.662 L 0.858,9.837 c -0.211,0.115 -0.437,0.224 -0.688,0.288 -0.134,0.034 -0.254,0.04 -0.348,0.063 -0.085,0.018 -0.199,0.074 -0.347,0.102 -0.074,0.013 -0.158,0.014 -0.237,0.001 -0.074,-0.014 -0.134,-0.032 -0.196,-0.052 -0.036,-0.012 -0.071,-0.025 -0.107,-0.039 0.033,0.027 0.064,0.055 0.093,0.084 0.094,0.089 0.174,0.201 0.274,0.261 l 0.004,-0.012 c -0.003,0.001 -0.019,-0.019 -0.009,-0.043 0.01,-0.02 0.026,-0.024 0.038,-0.03 0.026,-0.008 0.05,-0.009 0.075,-0.01 0.048,0 0.095,0.008 0.142,0.022 0.046,0.015 0.092,0.037 0.131,0.074 0.039,0.037 0.065,0.095 0.062,0.152 -0.009,0.114 -0.067,0.192 -0.112,0.271 -0.05,0.08 -0.093,0.147 -0.122,0.229 -0.062,0.161 -0.093,0.337 -0.142,0.516 l -0.147,0.523 c -0.097,0.348 -0.189,0.701 -0.309,1.047 -0.06,0.173 -0.124,0.346 -0.195,0.516 -0.034,0.087 -0.076,0.167 -0.106,0.25 l -0.089,0.245 -0.009,0.024 -0.009,0.011 -0.162,0.201 0.014,-0.016 -0.291,0.449 c -0.089,0.141 -0.169,0.305 -0.28,0.471 -0.028,0.041 -0.057,0.083 -0.09,0.123 l -0.088,0.106 -0.172,0.209 c -0.113,0.14 -0.223,0.282 -0.333,0.425 -0.22,0.284 -0.429,0.576 -0.625,0.876 -0.052,0.077 -0.088,0.142 -0.158,0.237 -0.066,0.084 -0.133,0.152 -0.192,0.215 -0.029,0.032 -0.056,0.063 -0.08,0.093 -0.03,0.038 -0.065,0.08 -0.098,0.115 -0.068,0.073 -0.139,0.138 -0.206,0.199 l -0.802,0.738 c -0.067,0.066 -0.16,0.135 -0.236,0.184 -0.08,0.052 -0.148,0.094 -0.213,0.146 -0.072,0.057 -0.152,0.118 -0.242,0.169 -0.044,0.025 -0.091,0.048 -0.137,0.068 -0.037,0.016 -0.074,0.033 -0.111,0.053 -0.074,0.04 -0.149,0.087 -0.228,0.135 -0.081,0.05 -0.165,0.095 -0.241,0.136 -0.16,0.089 -0.306,0.165 -0.481,0.266 -0.086,0.045 -0.176,0.082 -0.265,0.114 -0.083,0.027 -0.156,0.063 -0.247,0.101 -0.085,0.041 -0.206,0.068 -0.3,0.067 -0.101,0.002 -0.194,0 -0.306,-0.035 l -0.097,-0.03 0.039,-0.084 c 0.042,-0.091 0.091,-0.096 0.127,-0.117 0.037,-0.016 0.072,-0.027 0.106,-0.037 0.033,-0.01 0.068,-0.019 0.089,-0.027 l 0.095,-0.039 c 0.128,-0.051 0.248,-0.099 0.348,-0.173 0.052,-0.037 0.092,-0.08 0.147,-0.131 0.053,-0.048 0.109,-0.091 0.163,-0.134 0.11,-0.083 0.219,-0.16 0.312,-0.251 0.178,-0.195 0.369,-0.403 0.569,-0.587 0.101,-0.092 0.2,-0.189 0.308,-0.275 0.106,-0.086 0.21,-0.168 0.291,-0.269 0.082,-0.101 0.158,-0.223 0.259,-0.322 0.094,-0.101 0.193,-0.195 0.283,-0.294 0.045,-0.05 0.089,-0.1 0.129,-0.152 l 0.062,-0.08 c 0.024,-0.031 0.051,-0.059 0.078,-0.084 0.055,-0.051 0.106,-0.09 0.146,-0.134 0.041,-0.044 0.078,-0.098 0.126,-0.155 0.052,-0.062 0.097,-0.1 0.134,-0.15 0.039,-0.05 0.075,-0.103 0.109,-0.158 0.034,-0.055 0.065,-0.112 0.094,-0.169 0.03,-0.063 0.064,-0.126 0.099,-0.186 0.069,-0.122 0.14,-0.237 0.201,-0.352 0.034,-0.061 0.049,-0.106 0.096,-0.187 0.042,-0.071 0.088,-0.125 0.121,-0.174 0.035,-0.049 0.052,-0.087 0.075,-0.15 0.022,-0.059 0.045,-0.133 0.087,-0.208 l 0.181,-0.36 0.091,-0.178 c 0.03,-0.058 0.049,-0.108 0.069,-0.169 0.037,-0.118 0.065,-0.25 0.106,-0.39 0.021,-0.069 0.046,-0.141 0.078,-0.211 l 0.083,-0.185 0.163,-0.372 0.323,-0.748 c 0.214,-0.502 0.437,-0.999 0.67,-1.495 l 0.181,-0.364 c 0.027,-0.059 0.061,-0.125 0.073,-0.176 0.016,-0.062 0.025,-0.133 0.062,-0.209 0.016,-0.039 0.064,-0.086 0.118,-0.092 0.013,-0.003 0.026,-0.003 0.038,-0.002 C -1.27,10.09 -1.302,10.064 -1.325,10.044 -1.369,10.007 -1.404,9.983 -1.422,9.976 -1.442,9.968 -1.455,9.965 -1.499,9.951 -1.523,9.943 -1.565,9.922 -1.588,9.902 -1.613,9.883 -1.628,9.867 -1.641,9.853 -1.689,9.801 -1.714,9.772 -1.746,9.747 -1.773,9.726 -1.848,9.673 -1.893,9.63 -1.992,9.538 -2.071,9.442 -2.146,9.348 L -2.363,9.071 -2.58,8.79 C -2.619,8.74 -2.646,8.705 -2.682,8.664 L -2.8,8.535 C -2.842,8.488 -2.886,8.437 -2.925,8.378 -2.966,8.319 -2.998,8.25 -3.021,8.196 -3.072,8.08 -3.112,7.962 -3.145,7.842 -3.21,7.604 -3.248,7.363 -3.271,7.123 -3.283,7.003 -3.29,6.884 -3.295,6.764 L -3.301,6.586 C -3.302,6.541 -3.309,6.495 -3.322,6.447 -3.346,6.35 -3.395,6.242 -3.428,6.11 -3.445,6.049 -3.453,5.961 -3.455,5.912 L -3.47,5.74 C -3.494,5.508 -3.506,5.256 -3.484,5.014 -3.462,4.771 -3.408,4.511 -3.259,4.29 -3.185,4.18 -3.089,4.084 -2.982,4.01 l 0.15,-0.095 c 0.046,-0.03 0.091,-0.063 0.137,-0.098 l 0.14,-0.108 0.074,-0.054 C -2.457,3.639 -2.44,3.626 -2.419,3.608 -2.34,3.541 -2.267,3.449 -2.175,3.362 -2.13,3.319 -2.073,3.276 -2.018,3.245 -1.964,3.213 -1.91,3.187 -1.86,3.16 c 0.051,-0.027 0.094,-0.051 0.137,-0.086 0.027,-0.019 0.062,-0.049 0.126,-0.053 0.065,10e-4 0.112,0.028 0.146,0.083 0.03,0.06 0.016,0.112 0.006,0.146 -0.012,0.036 -0.025,0.064 -0.038,0.089 L -1.565,3.497 C -1.619,3.603 -1.673,3.708 -1.732,3.81 -1.965,4.218 -2.222,4.611 -2.343,5.063 L -2.36,5.059 -2.376,5.055 C -2.34,4.858 -2.274,4.671 -2.197,4.488 l 0.146,-0.511 c -0.071,0.025 -0.079,0.121 -0.133,0.194 -0.05,0.075 -0.106,0.144 -0.142,0.219 -0.078,0.159 -0.15,0.32 -0.204,0.486 -0.096,0.332 -0.163,0.688 -0.199,1.031 -0.034,0.345 -0.009,0.692 0.108,1.009 0.123,0.332 0.25,0.661 0.418,0.96 0.594,1.095 2.367,2.129 3.348,1.078 C 1.3,8.854 1.44,8.771 1.534,8.66 1.644,8.527 1.762,8.389 1.861,8.255 1.911,8.186 1.957,8.117 1.997,8.046 2.035,7.979 2.063,7.906 2.088,7.829 2.137,7.673 2.163,7.498 2.208,7.317 2.25,7.131 2.34,6.958 2.388,6.807 2.439,6.66 2.432,6.497 2.428,6.317 2.425,5.959 2.439,5.618 2.444,5.268 2.431,5.23 2.418,5.192 2.401,5.152 2.354,5.033 2.326,4.919 2.287,4.82 L 2.153,4.496 C 2.065,4.28 1.978,4.07 1.849,3.89 1.803,3.826 1.763,3.76 1.725,3.695 1.715,3.688 1.706,3.68 1.695,3.673 1.657,3.65 1.618,3.629 1.577,3.599 1.535,3.568 1.502,3.525 1.476,3.497 1.446,3.464 1.427,3.448 1.39,3.434 1.354,3.42 1.311,3.411 1.264,3.394 1.163,3.356 1.1,3.286 1.031,3.249 0.884,3.167 0.711,3.107 0.549,3.083 0.467,3.075 0.376,3.081 0.281,3.068 0.24,3.065 0.192,3.045 0.16,3.032 0.069,3.044 -0.015,3.07 -0.101,3.116 -0.152,3.139 -0.201,3.162 -0.247,3.188 -0.292,3.222 -0.336,3.259 -0.384,3.296 L -0.8,3.624 -0.467,3.214 C -0.463,3.21 -0.46,3.207 -0.456,3.203 v 0 0 C -0.404,3.143 -0.342,3.102 -0.279,3.069 -0.265,3.059 -0.253,3.049 -0.238,3.04 -0.199,3.015 -0.15,2.992 -0.11,2.978 -0.075,2.965 -0.037,2.94 0.013,2.921 0.046,2.909 0.083,2.907 0.12,2.911 0.147,2.906 0.174,2.901 0.201,2.899 0.325,2.889 0.441,2.892 0.558,2.888 c 0.046,0 0.092,-10e-4 0.139,0 C 0.694,2.887 0.691,2.885 0.687,2.884 0.573,2.857 0.455,2.788 0.375,2.761 0.326,2.744 0.327,2.746 0.282,2.75 0.241,2.752 0.162,2.77 0.061,2.74 L -0.122,2.686 -0.045,2.514 -0.558,2.433 0.026,2.405 C 0.039,2.392 0.049,2.381 0.056,2.372 0.078,2.347 0.073,2.351 0.078,2.338 0.081,2.328 0.082,2.324 0.084,2.291 0.086,2.26 0.091,2.216 0.096,2.18 0.11,2.085 0.126,2 0.136,1.922 v 0 L 0.138,1.91 C 0.143,1.871 0.147,1.833 0.147,1.798 0.143,1.676 0.139,1.539 0.143,1.403 0.142,1.397 0.141,1.391 0.14,1.386 0.131,1.297 0.118,1.212 0.106,1.135 0.1,1.096 0.092,1.059 0.082,1.024 0.072,0.984 0.062,0.97 0.045,0.893 0.025,0.769 0.037,0.682 0.026,0.643 0.015,0.592 -0.018,0.502 -0.04,0.405 L -0.052,0.349 C -0.056,0.333 -0.062,0.315 -0.068,0.296 L -0.109,0.168 c -0.027,-0.091 -0.06,-0.218 -0.01,-0.353 l 0.046,-0.127 0.107,0.028 c 0.136,0.036 0.176,0.108 0.217,0.163 0.039,0.058 0.067,0.115 0.093,0.172 0.052,0.118 0.09,0.223 0.149,0.327 0.112,0.211 0.261,0.399 0.401,0.606 0.068,0.105 0.125,0.221 0.158,0.346 0.032,0.125 0.044,0.256 0.04,0.383 -0.005,0.082 -0.013,0.161 -0.023,0.239 0.027,0.042 0.055,0.085 0.085,0.136 0.053,0.088 0.074,0.21 0.078,0.3 L 1.241,2.519 C 1.245,2.558 1.252,2.611 1.252,2.655 1.254,2.701 1.256,2.74 1.26,2.781 L 1.262,2.818 C 1.268,2.826 1.274,2.832 1.279,2.842 L 1.384,3.031 C 1.462,3.073 1.534,3.126 1.597,3.193 1.775,3.38 1.865,3.606 2.003,3.776 2.03,3.811 2.054,3.848 2.079,3.885 2.1,3.91 2.121,3.934 2.144,3.958 2.212,4.033 2.255,4.119 2.292,4.204 2.359,4.376 2.424,4.53 2.494,4.7 2.515,4.753 2.535,4.809 2.552,4.866 2.577,4.934 2.6,5 2.626,5.059 2.677,5.162 2.72,5.293 2.753,5.4 2.788,5.514 2.819,5.603 2.876,5.704 2.938,5.816 2.978,5.967 2.982,6.094 2.987,6.222 2.986,6.333 2.988,6.452 L 2.998,7.153 3,7.328 C 3.001,7.381 3.002,7.463 2.993,7.525 2.977,7.657 2.943,7.778 2.908,7.893"
             style="fill:#231f20;fill-opacity:1;fill-rule:nonzero;stroke:none"
             id="path5927" />
        </g>
        <g
           id="g5929"
           transform="translate(381.361,430.379)">
          <path
             d="M 0,0 C 0.063,0.009 0.128,-0.002 0.2,-0.002 0.268,-0.004 0.333,-0.007 0.383,-0.026 0.44,-0.049 0.5,-0.078 0.555,-0.11 0.777,-0.238 0.971,-0.427 1.128,-0.627 1.437,-1.032 1.487,-1.571 1.566,-2.112 1.575,-2.175 1.591,-2.26 1.595,-2.303 1.599,-2.356 1.597,-2.413 1.589,-2.47 1.581,-2.529 1.568,-2.586 1.548,-2.647 1.524,-2.719 1.51,-2.792 1.498,-2.862 1.474,-3.001 1.462,-3.136 1.425,-3.246 1.386,-3.362 1.322,-3.478 1.256,-3.599 1.224,-3.659 1.19,-3.721 1.16,-3.786 1.128,-3.855 1.11,-3.914 1.078,-3.967 1.019,-4.082 0.924,-4.156 0.817,-4.246 L 0.66,-4.376 0.49,-4.484 C 0.431,-4.518 0.381,-4.561 0.319,-4.578 0.288,-4.59 0.254,-4.601 0.22,-4.616 0.203,-4.624 0.186,-4.633 0.167,-4.645 0.15,-4.658 0.126,-4.671 0.112,-4.715 L 0.098,-4.76 0.145,-4.777 c 0.188,-0.066 0.377,-0.113 0.587,-0.096 0.027,0.003 0.054,0.007 0.081,0.014 0.034,0.01 0.061,0.026 0.084,0.042 0.046,0.032 0.082,0.066 0.116,0.094 l 0.225,0.165 c 0.156,0.109 0.317,0.24 0.446,0.394 0.074,0.089 0.118,0.187 0.159,0.271 0.02,0.043 0.039,0.083 0.06,0.118 0.018,0.033 0.045,0.071 0.072,0.114 0.053,0.083 0.104,0.17 0.149,0.262 0.022,0.046 0.042,0.093 0.061,0.14 0.019,0.049 0.031,0.075 0.053,0.116 0.039,0.078 0.09,0.161 0.134,0.262 0.022,0.053 0.041,0.101 0.054,0.176 0.009,0.072 0.003,0.127 0.004,0.166 0,0.039 0.004,0.053 0.015,0.097 0.01,0.039 0.028,0.089 0.039,0.154 0.016,0.12 0.015,0.215 0.014,0.315 -0.002,0.1 -0.003,0.184 -0.002,0.282 10e-4,0.101 -0.004,0.202 -0.016,0.303 -0.023,0.203 -0.072,0.405 -0.145,0.596 -0.038,0.094 -0.074,0.185 -0.136,0.286 -0.058,0.094 -0.122,0.171 -0.173,0.242 L 1.943,-0.146 C 1.91,-0.102 1.873,-0.058 1.833,-0.018 1.751,0.061 1.668,0.119 1.593,0.174 1.559,0.196 1.526,0.231 1.454,0.27 1.42,0.288 1.382,0.301 1.347,0.308 L 1.274,0.318 1.132,0.337 1.05,0.348 C 1.02,0.351 0.992,0.352 0.965,0.352 0.856,0.351 0.768,0.339 0.699,0.348 0.641,0.355 0.544,0.397 0.456,0.427 0.366,0.459 0.271,0.492 0.169,0.514 0.068,0.537 -0.043,0.55 -0.16,0.522 -0.219,0.508 -0.273,0.48 -0.324,0.442 -0.351,0.42 -0.375,0.388 -0.39,0.36 -0.404,0.332 -0.411,0.31 -0.419,0.294 -0.445,0.231 -0.51,0.185 -0.604,0.111 -0.633,0.072 -0.625,0.057 -0.628,0.045 L -0.631,0.009 c -0.002,-0.026 -0.003,-0.056 0.005,-0.089 0.005,-0.033 0.036,-0.076 0.075,-0.086 0.037,-0.01 0.069,-0.006 0.094,0.002 0.102,0.03 0.183,0.09 0.255,0.143 0.064,0 0.139,0.016 0.202,0.021"
             style="fill:#231f20;fill-opacity:1;fill-rule:nonzero;stroke:none"
             id="path5931" />
        </g>
        <g
           id="g5933"
           transform="translate(378.533,421.134)">
          <path
             d="M 0,0 C -0.196,0.046 -0.378,-0.003 -0.432,0.032 -0.478,0.046 -0.538,0.085 -0.621,0.127 -0.662,0.147 -0.71,0.167 -0.76,0.181 -0.813,0.197 -0.87,0.203 -0.917,0.204 -1.012,0.206 -1.083,0.2 -1.126,0.209 -1.156,0.213 -1.228,0.246 -1.29,0.28 -1.357,0.315 -1.434,0.358 -1.527,0.391 -1.573,0.407 -1.623,0.42 -1.674,0.426 -1.721,0.433 -1.758,0.435 -1.799,0.439 -1.88,0.446 -1.954,0.451 -2.024,0.46 -2.094,0.469 -2.156,0.484 -2.237,0.503 -2.314,0.521 -2.397,0.54 -2.489,0.55 -2.583,0.559 -2.67,0.555 -2.746,0.553 -2.822,0.551 -2.889,0.551 -2.946,0.561 L -3.174,0.606 C -3.26,0.62 -3.357,0.632 -3.465,0.615 L -3.704,0.566 -3.935,0.517 -4.047,0.493 C -4.055,0.491 -4.065,0.491 -4.074,0.49 l -0.022,0.007 c -0.195,0.059 -0.392,0.122 -0.592,0.171 -0.033,0.036 -0.066,0.075 -0.105,0.123 -0.052,0.061 -0.103,0.129 -0.188,0.197 -0.081,0.064 -0.172,0.108 -0.26,0.138 -0.087,0.03 -0.177,0.048 -0.255,0.06 -0.075,0.014 -0.15,0.027 -0.223,0.043 -0.146,0.031 -0.287,0.069 -0.415,0.124 -0.064,0.026 -0.125,0.06 -0.204,0.098 -0.077,0.038 -0.176,0.076 -0.28,0.086 -0.104,0.008 -0.167,0.004 -0.194,0.017 -0.011,0.003 -0.046,0.021 -0.073,0.037 -0.028,0.016 -0.057,0.034 -0.084,0.055 -0.112,0.08 -0.22,0.185 -0.336,0.293 -0.242,0.226 -0.498,0.417 -0.805,0.569 -0.248,0.111 -0.444,0.331 -0.644,0.567 -0.1,0.119 -0.202,0.242 -0.317,0.36 -0.028,0.03 -0.06,0.059 -0.09,0.088 L -9.243,3.6 c -0.054,0.052 -0.106,0.106 -0.156,0.161 -0.1,0.111 -0.193,0.228 -0.277,0.35 -0.034,0.053 -0.097,0.149 -0.165,0.209 -0.067,0.064 -0.138,0.113 -0.19,0.155 -0.095,0.082 -0.194,0.204 -0.273,0.321 -0.012,0.015 -0.02,0.035 -0.029,0.053 0.021,-0.023 0.043,-0.047 0.067,-0.069 0.053,-0.051 0.114,-0.091 0.172,-0.126 0.121,-0.07 0.234,-0.124 0.333,-0.211 0.118,-0.093 0.256,-0.126 0.366,-0.184 0.052,-0.028 0.111,-0.07 0.172,-0.103 0.06,-0.033 0.122,-0.062 0.185,-0.089 l 0.37,-0.158 c 0.129,-0.052 0.26,-0.086 0.381,-0.132 0.116,-0.043 0.243,-0.112 0.373,-0.154 0.129,-0.046 0.261,-0.083 0.397,-0.111 0.079,-0.018 0.159,-0.009 0.215,-0.011 0.057,0 0.098,-0.015 0.163,-0.04 0.058,-0.023 0.149,-0.052 0.228,-0.05 0.078,0 0.134,0.005 0.184,-0.006 0.112,-0.02 0.228,-0.075 0.369,-0.118 0.131,-0.039 0.264,-0.074 0.397,-0.103 0.268,-0.06 0.539,-0.097 0.81,-0.121 0.27,-0.023 0.55,-0.022 0.808,-0.029 0.136,-0.002 0.28,-0.005 0.431,0.023 l 0.395,0.084 c 0.262,0.057 0.525,0.108 0.787,0.16 l 0.787,0.158 c 0.24,0.058 0.521,0.053 0.793,0.143 0.486,0.051 1.072,0.232 1.548,0.373 L 0.394,3.992 0.389,4.008 c -0.002,0 -0.004,0 -0.006,0 l -0.448,0.699 -0.01,0.015 C -0.18,4.66 -0.301,4.676 -0.426,4.684 -0.559,4.7 -0.694,4.638 -0.801,4.599 -0.862,4.576 -0.897,4.573 -0.958,4.58 -1.015,4.586 -1.079,4.603 -1.157,4.596 -1.197,4.591 -1.239,4.58 -1.28,4.551 -1.322,4.52 -1.343,4.474 -1.355,4.456 -1.361,4.447 -1.364,4.444 -1.368,4.441 -1.377,4.434 -1.387,4.427 -1.396,4.422 -1.414,4.412 -1.428,4.408 -1.447,4.407 -1.486,4.406 -1.563,4.42 -1.637,4.411 -1.712,4.403 -1.782,4.377 -1.841,4.353 -1.902,4.327 -1.951,4.307 -2.004,4.293 L -2.187,4.236 -2.279,4.207 -2.365,4.175 C -2.401,4.163 -2.467,4.154 -2.524,4.147 -2.641,4.132 -2.76,4.126 -2.88,4.124 -3.12,4.121 -3.371,4.132 -3.619,4.136 -3.868,4.139 -4.11,4.152 -4.371,4.142 -4.493,4.138 -4.608,4.137 -4.705,4.156 -4.756,4.165 -4.813,4.182 -4.877,4.197 -4.909,4.205 -4.944,4.212 -4.98,4.218 L -5.079,4.231 C -5.312,4.26 -5.546,4.318 -5.783,4.38 -6.02,4.445 -6.262,4.512 -6.514,4.562 -6.64,4.588 -6.769,4.607 -6.9,4.621 -7.042,4.633 -7.129,4.639 -7.25,4.665 -7.366,4.687 -7.489,4.717 -7.623,4.737 -7.69,4.747 -7.759,4.755 -7.831,4.756 L -7.92,4.757 c -0.024,0.001 -0.05,0.003 -0.074,0.007 -0.1,0.013 -0.2,0.051 -0.313,0.099 -0.111,0.05 -0.245,0.095 -0.344,0.137 -0.216,0.09 -0.432,0.231 -0.716,0.292 -0.134,0.027 -0.223,0.043 -0.325,0.09 -0.098,0.045 -0.218,0.11 -0.316,0.165 -0.204,0.117 -0.401,0.27 -0.623,0.403 -0.048,0.029 -0.1,0.056 -0.152,0.082 -0.008,0.016 -0.016,0.034 -0.024,0.048 -0.04,0.073 -0.079,0.136 -0.104,0.195 -0.024,0.059 -0.05,0.138 -0.072,0.207 -0.044,0.144 -0.079,0.292 -0.112,0.443 -0.066,0.301 -0.117,0.612 -0.208,0.922 -0.049,0.14 -0.055,0.277 -0.083,0.446 -0.013,0.083 -0.04,0.171 -0.063,0.241 -0.024,0.077 -0.038,0.129 -0.046,0.209 -0.085,0.608 -0.047,1.229 -0.075,1.862 -0.007,0.156 -0.015,0.308 -0.003,0.456 0.003,0.036 0.008,0.073 0.014,0.108 l 0.018,0.119 c 0.011,0.08 0.019,0.158 0.026,0.236 0.015,0.156 0.028,0.31 0.055,0.458 0.028,0.148 0.072,0.296 0.116,0.446 l 0.268,0.898 0.137,0.449 c 0.044,0.147 0.098,0.301 0.126,0.454 0.016,0.074 0.038,0.136 0.077,0.202 0.037,0.067 0.077,0.136 0.112,0.21 0.068,0.15 0.11,0.297 0.178,0.432 0.031,0.069 0.074,0.127 0.114,0.204 0.037,0.074 0.063,0.151 0.086,0.227 0.046,0.151 0.08,0.304 0.154,0.428 0.037,0.063 0.086,0.125 0.127,0.198 0.042,0.074 0.067,0.152 0.09,0.228 0.043,0.152 0.099,0.286 0.173,0.424 0.148,0.279 0.264,0.57 0.406,0.844 0.032,0.062 0.064,0.121 0.099,0.179 0.112,0.095 0.239,0.194 0.345,0.325 0.069,0.083 0.129,0.163 0.194,0.233 0.07,0.076 0.145,0.158 0.208,0.255 0.019,0.029 0.034,0.06 0.05,0.091 0.071,0.085 0.125,0.176 0.174,0.268 0.04,0.045 0.082,0.095 0.119,0.155 0.05,0.083 0.09,0.165 0.129,0.244 0.025,0.029 0.052,0.06 0.077,0.092 0.1,0.125 0.189,0.253 0.284,0.374 0.095,0.121 0.193,0.233 0.309,0.326 0.117,0.095 0.249,0.184 0.369,0.302 l 0.158,0.156 H -6.999 C -7.157,20.627 -7.248,20.553 -7.341,20.493 -7.386,20.461 -7.428,20.427 -7.468,20.392 -7.508,20.36 -7.556,20.313 -7.59,20.269 -7.661,20.179 -7.711,20.085 -7.766,20.007 -7.82,19.922 -7.875,19.886 -7.966,19.794 -8.128,19.62 -8.199,19.411 -8.302,19.255 -8.346,19.184 -8.42,19.119 -8.494,19.026 -8.529,18.982 -8.566,18.919 -8.586,18.872 -8.606,18.831 -8.628,18.792 -8.654,18.755 -8.706,18.68 -8.771,18.61 -8.842,18.537 -8.919,18.458 -8.985,18.374 -9.05,18.3 c -0.117,-0.141 -0.29,-0.248 -0.452,-0.399 -0.169,-0.152 -0.291,-0.339 -0.4,-0.518 l -0.155,-0.27 c -0.048,-0.084 -0.102,-0.163 -0.162,-0.24 -0.059,-0.078 -0.125,-0.154 -0.192,-0.232 -0.072,-0.079 -0.142,-0.185 -0.192,-0.277 -0.053,-0.094 -0.098,-0.182 -0.148,-0.261 -0.052,-0.081 -0.113,-0.163 -0.172,-0.253 -0.06,-0.09 -0.119,-0.188 -0.163,-0.301 -0.04,-0.105 -0.068,-0.211 -0.094,-0.311 -0.027,-0.099 -0.051,-0.194 -0.084,-0.281 -0.029,-0.078 -0.085,-0.185 -0.117,-0.289 -0.071,-0.209 -0.108,-0.416 -0.16,-0.608 -0.025,-0.1 -0.052,-0.177 -0.091,-0.281 -0.037,-0.101 -0.071,-0.234 -0.063,-0.357 0.002,-0.057 0.005,-0.1 10e-4,-0.128 -0.003,-0.026 -0.013,-0.045 -0.04,-0.095 -0.027,-0.045 -0.058,-0.129 -0.067,-0.182 -0.013,-0.059 -0.02,-0.115 -0.026,-0.168 -0.011,-0.109 -0.018,-0.191 -0.043,-0.287 -0.023,-0.097 -0.051,-0.199 -0.072,-0.306 -0.022,-0.116 -0.028,-0.202 -0.055,-0.296 -0.024,-0.094 -0.055,-0.19 -0.085,-0.293 -0.054,-0.207 -0.104,-0.401 -0.146,-0.612 -0.021,-0.104 -0.037,-0.21 -0.047,-0.319 -0.012,-0.109 -0.007,-0.223 -0.009,-0.318 -0.002,-0.101 -0.006,-0.206 -0.004,-0.314 10e-4,-0.054 0.004,-0.109 0.009,-0.165 0.006,-0.058 0.017,-0.112 0.023,-0.158 0.029,-0.195 0.037,-0.392 0.034,-0.595 -0.003,-0.203 -0.014,-0.412 0.002,-0.628 0.021,-0.221 0.06,-0.413 0.089,-0.621 l 0.047,-0.307 c 0.014,-0.105 0.048,-0.217 0.083,-0.315 0.035,-0.1 0.074,-0.194 0.105,-0.288 0.015,-0.047 0.028,-0.092 0.039,-0.14 l 0.039,-0.153 c 0.054,-0.203 0.119,-0.402 0.198,-0.596 0.153,-0.394 0.378,-0.747 0.593,-1.098 0.11,-0.175 0.224,-0.348 0.345,-0.517 0.061,-0.084 0.123,-0.167 0.188,-0.248 0.064,-0.08 0.132,-0.166 0.218,-0.233 0.084,-0.069 0.18,-0.118 0.272,-0.163 0.007,-0.002 0.012,-0.007 0.019,-0.009 0.166,-0.196 0.246,-0.444 0.425,-0.66 0.049,-0.05 0.1,-0.09 0.135,-0.136 0.038,-0.048 0.069,-0.102 0.098,-0.159 0.06,-0.113 0.115,-0.243 0.22,-0.346 0.103,-0.102 0.219,-0.165 0.305,-0.251 0.084,-0.087 0.186,-0.193 0.281,-0.277 0.193,-0.177 0.38,-0.369 0.635,-0.501 0.127,-0.062 0.245,-0.101 0.337,-0.171 0.05,-0.036 0.1,-0.079 0.16,-0.119 0.03,-0.021 0.062,-0.04 0.097,-0.058 0.037,-0.018 0.074,-0.029 0.103,-0.039 0.506,-0.174 1.026,-0.268 1.505,-0.449 0.061,-0.022 0.117,-0.046 0.18,-0.071 0.064,-0.026 0.129,-0.05 0.194,-0.071 0.102,-0.032 0.205,-0.059 0.306,-0.084 0.03,-0.036 0.063,-0.073 0.101,-0.109 0.069,-0.066 0.155,-0.125 0.243,-0.164 0.192,-0.081 0.364,-0.091 0.547,-0.083 0.045,0.003 0.092,0.01 0.14,0.02 l 0.059,0.012 0.482,-0.156 c 0.12,-0.045 0.244,-0.097 0.381,-0.137 0.138,-0.042 0.283,-0.057 0.405,-0.075 0.127,-0.019 0.221,-0.046 0.334,-0.102 0.111,-0.052 0.225,-0.119 0.355,-0.178 0.128,-0.061 0.283,-0.103 0.43,-0.113 0.148,-0.011 0.294,0.002 0.43,0.025 l 0.388,0.071 c 0.062,0.011 0.123,0.018 0.182,0.024 0.055,0.005 0.123,0.003 0.209,0.017 0.086,0.012 0.172,0.05 0.229,0.077 0.031,0.015 0.059,0.027 0.085,0.038 0.056,-0.015 0.118,-0.031 0.192,-0.039 0.051,-0.004 0.111,-0.006 0.18,0.013 0.069,0.018 0.146,0.071 0.188,0.135 L 0.749,0.052 0.403,0.022 C 0.302,0.014 0.166,0.035 0,0"
             style="fill:#231f20;fill-opacity:1;fill-rule:nonzero;stroke:none"
             id="path5935" />
        </g>
        <g
           id="g5937"
           transform="translate(385.349,428.956)">
          <path
             d="M 0,0 C -0.004,-0.015 -0.006,-0.019 -0.007,-0.021 -0.002,-0.01 0.001,0.003 0.001,0.016 0.001,0.002 0.001,0.007 0,0 m -0.178,-0.056 c 0,0 0,0 0,0 0.007,-0.004 0.011,-0.005 0,0 M 3.217,3.541 3.234,3.75 C 3.24,3.819 3.247,3.889 3.235,3.96 3.219,4.1 3.177,4.235 3.18,4.368 3.183,4.435 3.2,4.503 3.201,4.577 3.202,4.65 3.187,4.721 3.166,4.789 3.122,4.925 3.066,5.047 3.048,5.183 3.026,5.316 3.015,5.459 2.99,5.595 2.97,5.731 2.955,5.869 2.937,6.007 2.919,6.146 2.897,6.286 2.862,6.425 2.823,6.567 2.778,6.695 2.737,6.829 L 2.489,7.62 C 2.45,7.75 2.414,7.889 2.358,8.028 2.304,8.17 2.207,8.298 2.167,8.397 2.151,8.437 2.129,8.523 2.101,8.589 2.075,8.659 2.044,8.728 2.009,8.794 1.94,8.927 1.855,9.048 1.765,9.162 1.588,9.38 1.428,9.595 1.257,9.817 c -0.17,0.221 -0.343,0.445 -0.54,0.651 -0.096,0.103 -0.207,0.21 -0.319,0.297 -0.111,0.091 -0.223,0.17 -0.323,0.255 -0.196,0.18 -0.397,0.382 -0.594,0.572 l -0.292,0.301 c -0.061,0.055 -0.128,0.095 -0.188,0.13 -0.061,0.034 -0.116,0.069 -0.177,0.106 -0.24,0.143 -0.471,0.297 -0.717,0.43 l -0.732,0.401 c -0.061,0.033 -0.135,0.068 -0.214,0.077 -0.076,0.009 -0.147,0.004 -0.21,0.01 -0.123,0.003 -0.228,0.09 -0.357,0.159 -0.135,0.076 -0.294,0.074 -0.427,0.083 -0.131,10e-4 -0.265,0.055 -0.43,0.023 l -0.063,-0.013 0.024,-0.061 c 0.032,-0.083 0.099,-0.125 0.158,-0.157 0.061,-0.031 0.124,-0.051 0.189,-0.066 0.127,-0.017 0.221,-0.054 0.331,-0.115 0.054,-0.028 0.109,-0.06 0.172,-0.084 0.061,-0.024 0.12,-0.041 0.172,-0.065 0.054,-0.023 0.091,-0.049 0.134,-0.09 0.046,-0.039 0.085,-0.091 0.168,-0.127 0.081,-0.025 0.112,-0.029 0.156,-0.06 0.042,-0.028 0.091,-0.075 0.147,-0.11 l 0.314,-0.202 0.309,-0.199 c 0.098,-0.066 0.19,-0.142 0.282,-0.222 l 1.103,-0.98 c 0.09,-0.083 0.178,-0.166 0.265,-0.252 0.044,-0.044 0.086,-0.083 0.12,-0.124 0.035,-0.042 0.069,-0.087 0.102,-0.135 L 0.022,9.94 C 0.09,9.833 0.194,9.719 0.282,9.638 0.326,9.595 0.367,9.555 0.402,9.515 0.436,9.476 0.464,9.435 0.496,9.385 0.556,9.289 0.611,9.179 0.678,9.067 L 1.046,8.425 1.415,7.788 1.599,7.471 C 1.653,7.372 1.699,7.265 1.743,7.154 1.831,6.935 1.913,6.691 2.017,6.462 2.116,6.236 2.205,6.02 2.26,5.797 2.318,5.574 2.341,5.343 2.347,5.104 2.352,4.985 2.345,4.867 2.353,4.729 2.36,4.596 2.379,4.469 2.397,4.346 L 2.398,4.338 2.367,4.277 C 2.259,4.059 2.155,3.84 2.058,3.618 1.962,3.406 1.873,3.191 1.786,2.977 1.663,2.839 1.538,2.702 1.419,2.56 1.288,2.42 1.163,2.274 1.04,2.125 L 1.023,2.105 1.019,2.097 C 0.888,1.801 0.765,1.503 0.628,1.211 0.48,1.084 0.329,0.962 0.175,0.844 0.018,0.722 -0.143,0.604 -0.308,0.49 L -0.334,0.473 -0.336,0.426 -0.354,0.057 l -0.003,-0.069 0.088,-0.02 c 0.023,-0.005 0.046,-0.009 0.065,-0.015 0.005,-0.001 0.011,-0.003 0.017,-0.005 0.002,-0.002 0.001,-0.003 0.004,-0.005 0.07,-0.088 0.217,0.042 0.174,0.027 10e-4,10e-4 10e-4,0.003 10e-4,0.004 0.002,10e-4 0.008,0.005 0.013,0.009 0.015,0.011 0.033,0.023 0.052,0.035 l 0.256,0.156 c 0.172,0.106 0.345,0.219 0.509,0.355 0.318,0.276 0.6,0.579 0.84,0.916 0.123,0.166 0.231,0.342 0.334,0.519 0.05,0.09 0.102,0.178 0.147,0.27 l 0.133,0.264 c 0.042,0.076 0.1,0.156 0.157,0.249 0.028,0.046 0.056,0.096 0.08,0.15 0.012,0.026 0.023,0.056 0.032,0.082 L 2.567,3.051 C 2.575,3.078 2.582,3.107 2.591,3.135 2.592,3.123 2.596,3.112 2.598,3.1 2.611,3.009 2.618,2.93 2.617,2.831 L 2.619,2.547 2.62,2.533 V 2.528 L 2.694,2.163 C 2.704,2.079 2.701,1.988 2.694,1.894 2.686,1.801 2.681,1.691 2.671,1.604 2.66,1.507 2.648,1.408 2.643,1.307 2.64,1.257 2.638,1.205 2.641,1.152 2.642,1.125 2.646,1.097 2.652,1.067 2.664,1.038 2.662,0.995 2.731,0.957 L 2.795,0.922 2.819,0.997 2.921,1.308 c 0.015,0.053 0.037,0.099 0.046,0.164 0.008,0.059 0.007,0.112 0.019,0.155 0.009,0.04 0.045,0.073 0.08,0.127 0.036,0.061 0.037,0.122 0.039,0.178 0,0.056 -10e-4,0.106 0.013,0.153 C 3.13,2.132 3.157,2.18 3.176,2.235 3.211,2.348 3.206,2.459 3.208,2.567 3.205,2.676 3.218,2.781 3.229,2.89 3.241,2.998 3.244,3.111 3.232,3.219 3.221,3.328 3.207,3.435 3.217,3.541"
             style="fill:#231f20;fill-opacity:1;fill-rule:nonzero;stroke:none"
             id="path5939" />
        </g>
      </g>
    </g>
  </g>
</svg>
