<?xml version="1.0" encoding="UTF-8" standalone="no"?>
<!-- Created with Inkscape (http://www.inkscape.org/) -->

<svg
   width="26.84366"
   height="24"
   viewBox="0 0 7.1023851 6.35"
   version="1.1"
   id="svg41236"
   inkscape:version="1.2.1 (9c6d41e4, 2022-07-14)"
   sodipodi:docname="the-untamed-wilds.svg"
   xmlns:inkscape="http://www.inkscape.org/namespaces/inkscape"
   xmlns:sodipodi="http://sodipodi.sourceforge.net/DTD/sodipodi-0.dtd"
   xmlns="http://www.w3.org/2000/svg"
   xmlns:svg="http://www.w3.org/2000/svg">
  <sodipodi:namedview
     id="namedview41238"
     pagecolor="#505050"
     bordercolor="#eeeeee"
     borderopacity="1"
     inkscape:showpageshadow="0"
     inkscape:pageopacity="0"
     inkscape:pagecheckerboard="0"
     inkscape:deskcolor="#505050"
     inkscape:document-units="mm"
     showgrid="false"
     inkscape:zoom="0.7046647"
     inkscape:cx="8.5146879"
     inkscape:cy="172.42243"
     inkscape:window-width="1390"
     inkscape:window-height="941"
     inkscape:window-x="0"
     inkscape:window-y="25"
     inkscape:window-maximized="0"
     inkscape:current-layer="layer1" />
  <defs
     id="defs41233">
    <clipPath
       clipPathUnits="userSpaceOnUse"
       id="clipPath3093">
      <path
         d="m 278.5,206.309 h 24.7 v 24.7 h -24.7 z"
         id="path3091" />
    </clipPath>
  </defs>
  <g
     inkscape:label="Layer 1"
     inkscape:groupmode="layer"
     id="layer1"
     transform="translate(-103.05415,-103.43345)">
    <g
       id="g3087"
       transform="matrix(0.3498913,0,0,-0.3498913,4.8524481,182.66289)">
      <g
         id="g3089"
         clip-path="url(#clipPath3093)">
        <g
           id="g3095"
           transform="translate(290.971,222.188)">
          <path
             d="m 0,0 c 0.01,-0.416 -0.11,-1.045 0.44,-1.12 0.874,-0.119 1.748,-0.238 2.622,-0.357 0.198,-0.028 0.336,-0.032 0.427,0.2 0.049,0.125 0.037,0.312 0.053,0.444 0.03,0.25 0.06,0.5 0.09,0.75 C 3.645,0.03 3.635,0.191 3.678,0.297 3.723,0.406 3.851,0.52 3.922,0.612 4.189,0.957 4.438,1.335 4.732,1.657 4.96,1.908 5.271,1.94 5.588,2.012 5.732,2.045 5.809,2.073 5.947,2.035 6.175,1.971 6.401,1.904 6.629,1.838 6.854,1.773 7.011,1.663 7.179,1.487 7.45,1.204 7.759,0.981 7.902,0.599 8.024,0.275 8.194,-0.267 8.081,-0.612 7.971,-0.945 7.681,-1.309 7.418,-1.533 7.278,-1.651 7.13,-1.758 6.967,-1.841 6.876,-1.886 6.79,-1.914 6.693,-1.937 6.601,-1.959 6.483,-1.941 6.4,-1.971 6.415,-2.07 6.674,-2.048 6.738,-2.058 c 0.181,-0.031 0.35,-0.077 0.535,-0.076 0.35,0 0.6,0.16 0.878,0.347 0.134,0.091 0.236,0.209 0.333,0.343 0.121,0.168 0.254,0.321 0.375,0.485 0.148,0.2 0.292,0.41 0.305,0.659 0.014,0.277 0.069,0.534 -0.035,0.792 L 8.655,1.676 C 8.53,1.988 8.405,2.3 8.28,2.611 8.15,2.735 8.026,2.884 7.882,2.991 7.785,3.063 7.707,3.066 7.58,3.087 7.268,3.141 6.897,3.274 6.582,3.218 6.351,3.176 6.122,3.117 5.893,3.066 5.729,3.03 5.516,3.018 5.362,2.949 5.132,2.846 4.91,2.597 4.713,2.439 4.322,2.128 3.931,1.816 3.541,1.504 3.449,1.431 3.329,1.361 3.25,1.273 3.163,1.175 3.112,1.023 3.051,0.906 3.018,0.841 2.959,0.764 2.941,0.693 2.924,0.625 2.94,0.565 2.909,0.499 2.839,0.349 2.659,0.234 2.541,0.123 2.416,0.006 2.302,-0.147 2.136,-0.199 1.98,-0.248 1.837,-0.195 1.675,-0.165 1.45,-0.123 1.239,-0.111 1.062,0.044 0.737,0.33 0.722,0.828 0.727,1.237 0.733,1.625 1.03,2.042 1.437,2.041 1.902,2.04 2.035,1.692 2.084,1.287 2.109,1.088 2.181,0.77 2.098,0.582 2.012,0.388 1.765,0.42 1.605,0.459 1.494,0.225 2.234,0.195 2.341,0.257 2.469,0.331 2.483,0.464 2.534,0.593 2.611,0.79 2.691,0.998 2.748,1.201 2.819,1.454 2.933,1.755 2.861,2.013 2.798,2.241 2.734,2.467 2.671,2.694 2.633,2.83 2.622,2.856 2.52,2.952 2.405,3.06 2.277,3.233 2.138,3.307 1.882,3.442 1.547,3.476 1.266,3.439 1.029,3.407 0.792,3.376 0.555,3.344 0.433,3.328 0.324,3.312 0.227,3.222 0.088,3.093 -0.052,2.823 -0.064,2.631 -0.085,2.27 -0.046,1.894 -0.037,1.533 -0.025,1.022 -0.012,0.511 0,0"
             style="fill:#231f20;fill-opacity:1;fill-rule:nonzero;stroke:none"
             id="path3097" />
        </g>
        <g
           id="g3099"
           transform="translate(300.276,219.328)">
          <path
             d="m 0,0 c -0.196,0.175 -0.506,0.238 -0.751,0.324 -0.157,0.055 -0.491,0.123 -0.609,-0.068 -0.083,-0.135 0.077,-0.573 0.234,-0.625 0.004,0.027 0.02,0.057 0.02,0.084 -0.007,-0.041 -0.002,-0.065 0.01,-0.081 0.026,-0.033 0.082,-0.031 0.13,-0.062 0.141,-0.091 0.181,-0.266 0.15,-0.418 -0.086,-0.422 -0.511,-0.553 -0.875,-0.631 -0.166,-0.036 -0.362,-0.089 -0.532,-0.069 -0.184,0.021 -0.364,0.088 -0.536,0.154 -0.034,0.013 -0.074,0.044 -0.108,0.052 -0.031,0.007 -0.06,-10e-4 -0.093,0.01 -0.031,0.01 -0.058,0.031 -0.089,0.043 -0.127,0.049 -0.255,0.096 -0.369,0.174 -0.189,0.13 -0.411,0.224 -0.574,0.391 -0.095,0.097 -0.203,0.178 -0.301,0.272 -0.094,0.091 -0.229,0.135 -0.347,0.188 -0.245,0.109 -0.485,0.198 -0.748,0.242 -0.12,0.021 -0.246,-0.013 -0.364,0.014 -0.117,0.026 -0.232,0.023 -0.354,0.023 -0.085,0 -0.17,0.005 -0.254,10e-4 -0.05,-0.002 -0.074,-0.02 -0.119,-0.039 -0.058,-0.025 -0.11,-0.007 -0.165,-0.024 -0.042,-0.013 -0.068,-0.048 -0.121,-0.056 -0.045,-0.007 -0.079,0.001 -0.123,-0.016 -0.038,-0.015 -0.066,-0.038 -0.106,-0.047 -0.054,-0.012 -0.079,-0.029 -0.127,-0.053 -0.074,-0.037 -0.163,-0.039 -0.232,-0.086 -0.051,-0.035 -0.042,-0.041 -0.108,-0.042 -0.046,-0.001 -0.091,0 -0.136,0 -0.091,0 -0.181,0.001 -0.272,0 -0.048,0 -0.098,-0.005 -0.144,0.007 -0.016,0.004 -0.074,0.019 -0.091,0.03 -0.031,0.019 -0.063,0.067 -0.09,0.092 -0.029,0.029 -0.054,0.056 -0.065,0.097 -0.056,0.232 0.021,0.485 0.176,0.659 0.171,0.193 0.276,0.4 0.546,0.466 0.052,0.013 0.165,-0.02 0.184,0.036 0.008,0.023 -0.024,0.1 -0.038,0.115 C -7.423,1.19 -7.515,1.233 -7.554,1.256 -7.6,1.283 -7.646,1.299 -7.7,1.318 -7.759,1.34 -7.799,1.345 -7.869,1.345 c -0.052,0 -0.105,-10e-4 -0.157,0 -0.07,0 -0.086,-0.013 -0.141,-0.031 C -8.232,1.292 -8.315,1.301 -8.382,1.286 -8.46,1.269 -8.498,1.212 -8.561,1.17 -8.628,1.126 -8.689,1.107 -8.744,1.043 -8.833,0.939 -8.929,0.846 -9.009,0.733 -9.086,0.624 -9.149,0.476 -9.189,0.35 -9.219,0.257 -9.235,0.149 -9.25,0.054 -9.262,-0.025 -9.283,-0.11 -9.288,-0.189 c -0.011,-0.16 10e-4,-0.325 10e-4,-0.486 0,-0.133 0.001,-0.267 0.029,-0.394 0.03,-0.136 0.133,-0.275 0.205,-0.391 0.062,-0.099 0.116,-0.171 0.219,-0.235 0.102,-0.063 0.246,-0.037 0.362,-0.037 0.112,0 0.222,0.005 0.331,-0.017 0.042,-0.009 0.081,-0.014 0.123,-0.014 0.111,-0.001 0.395,0.008 0.461,-0.104 0.044,-0.072 -0.064,-0.297 -0.054,-0.396 0.012,-0.115 0.068,-0.405 0.14,-0.495 0.128,-0.161 0.52,-0.134 0.705,-0.159 0.331,-0.045 0.673,-0.009 1.013,0.006 0.101,0.005 0.227,-0.014 0.273,0.051 0.086,0.122 -0.036,0.385 0.036,0.518 0.036,0.068 0.215,0.194 0.289,0.204 0.114,0.015 0.29,-0.056 0.402,-0.078 0.458,-0.088 0.916,-0.177 1.375,-0.265 0.144,-0.028 0.29,-0.067 0.436,-0.084 0.284,-0.034 0.592,0.012 0.879,0.023 0.219,0.008 0.438,0.015 0.658,0.023 0.212,0.007 0.479,-0.021 0.682,0.035 0.331,0.091 0.514,0.586 0.678,0.852 0.096,0.154 0.195,0.302 0.247,0.478 0.058,0.193 0.061,0.334 0.05,0.533 C 0.24,-0.394 0.174,-0.156 0,0"
             style="fill:#231f20;fill-opacity:1;fill-rule:nonzero;stroke:none"
             id="path3101" />
        </g>
        <g
           id="g3103"
           transform="translate(300.854,224.922)">
          <path
             d="M 0,0 C -0.045,0.124 -0.134,0.218 -0.207,0.325 -0.282,0.434 -0.339,0.597 -0.44,0.683 -0.541,0.769 -0.694,0.825 -0.809,0.89 l -0.583,0.326 c -0.123,0.069 -0.2,0.122 -0.337,0.137 -0.467,0.053 -0.939,0.08 -1.407,0.117 -0.168,0.013 -0.38,0.066 -0.548,0.042 C -3.872,1.486 -4.077,1.368 -4.256,1.301 -4.446,1.23 -4.647,1.169 -4.831,1.083 -4.991,1.008 -5.126,0.897 -5.287,0.825 -5.537,0.713 -6.031,0.535 -6.183,0.887 -6.235,1.008 -6.21,1.131 -6.15,1.24 -6.081,1.364 -6.081,1.421 -6.266,1.358 -6.59,1.246 -6.703,0.88 -6.644,0.572 c 0.035,-0.178 0.156,-0.295 0.328,-0.365 0.134,-0.055 0.245,-0.068 0.392,-0.056 0.178,0.015 0.294,0.088 0.455,0.141 0.391,0.126 0.769,0.26 1.152,0.41 0.164,0.064 0.374,0.197 0.547,0.215 0.151,0.016 0.36,-0.061 0.51,-0.088 0.165,-0.029 0.27,-0.097 0.444,-0.104 0.192,-0.008 0.372,-0.023 0.557,-0.076 0.41,-0.116 0.74,-0.37 1.102,-0.58 0.167,-0.097 0.342,-0.186 0.481,-0.323 0.158,-0.155 0.244,-0.393 0.352,-0.585 0.16,-0.282 0.267,-0.528 0.281,-0.851 0.007,-0.152 0.033,-0.189 0.087,-0.02 0.062,0.197 0.061,0.395 0.062,0.599 C 0.108,-0.739 0.128,-0.357 0,0"
             style="fill:#231f20;fill-opacity:1;fill-rule:nonzero;stroke:none"
             id="path3105" />
        </g>
        <g
           id="g3107"
           transform="translate(294.644,215.909)">
          <path
             d="m 0,0 c -0.008,0.051 -0.002,0.153 -0.031,0.195 -0.058,0.082 -0.376,0.068 -0.487,0.081 -0.421,0.05 -0.842,0.098 -1.263,0.14 -0.029,-0.386 -0.1,-0.802 -0.075,-1.188 0.024,-0.38 0.326,-0.835 0.493,-1.182 0.144,-0.298 0.269,-0.733 0.503,-0.963 0.12,-0.118 0.492,-0.45 0.651,-0.418 0.048,0.01 0.235,0.1 0.259,0.137 0.047,0.071 10e-4,0.22 -0.009,0.317 -0.049,0.45 -0.081,0.9 -0.114,1.351 -0.014,0.192 -0.027,0.384 -0.042,0.576 -0.012,0.156 -0.06,0.349 -0.031,0.501 C -0.118,-0.301 -0.048,-0.148 0,0"
             style="fill:#231f20;fill-opacity:1;fill-rule:nonzero;stroke:none"
             id="path3109" />
        </g>
        <g
           id="g3111"
           transform="translate(299.172,215.635)">
          <path
             d="M 0,0 C -0.019,0.076 -0.022,0.177 -0.073,0.243 -0.125,0.31 -0.189,0.371 -0.253,0.427 -0.256,0.43 -0.26,0.433 -0.263,0.436 -0.329,0.494 -0.371,0.563 -0.443,0.615 -0.525,0.675 -0.634,0.704 -0.732,0.725 -0.81,0.742 -0.889,0.763 -0.973,0.755 -1.061,0.746 -1.163,0.728 -1.243,0.686 -1.287,0.663 -1.43,0.633 -1.421,0.579 -1.364,0.577 -1.294,0.535 -1.252,0.505 -1.198,0.468 -1.144,0.436 -1.1,0.385 -1.07,0.349 -1.014,0.287 -1.001,0.243 -0.98,0.177 -1.003,0.069 -1.002,0 c 0,-0.045 -0.016,-0.063 -0.024,-0.096 -0.012,-0.055 -0.006,-0.112 -0.006,-0.17 0,-0.108 -0.021,-0.174 -0.054,-0.276 C -1.125,-0.664 -1.14,-0.793 -1.21,-0.904 -1.242,-0.932 -1.272,-0.962 -1.299,-0.995 -1.321,-1.024 -1.335,-1.057 -1.34,-1.093 -1.376,-1.167 -1.418,-1.231 -1.464,-1.299 -1.537,-1.408 -1.584,-1.525 -1.666,-1.627 -1.749,-1.731 -1.804,-1.86 -1.891,-1.962 -2.015,-2.105 -2.169,-2.245 -2.261,-2.413 -2.307,-2.498 -2.369,-2.562 -2.397,-2.654 -2.419,-2.732 -2.472,-2.826 -2.511,-2.898 -2.563,-2.995 -2.645,-3.07 -2.688,-3.175 -2.765,-3.367 -2.938,-3.323 -3.132,-3.325 -3.322,-3.328 -3.546,-3.296 -3.73,-3.348 -3.77,-3.359 -3.805,-3.38 -3.843,-3.393 -3.894,-3.41 -3.946,-3.409 -4,-3.409 c -0.057,10e-4 -0.093,-0.012 -0.146,-0.023 -0.031,-0.007 -0.053,-0.002 -0.085,-0.006 -0.033,-0.004 -0.042,-0.019 -0.066,-0.024 -0.06,-0.013 -0.115,-0.015 -0.174,-0.031 -0.145,-0.038 -0.336,-0.006 -0.487,-0.006 -0.089,0 -0.179,0 -0.268,0 -0.091,-10e-4 -0.154,0.011 -0.241,0.027 -0.15,0.029 -0.278,-0.038 -0.423,-0.028 -0.126,0.008 -0.238,0.062 -0.368,0.061 -0.082,-10e-4 -0.128,0.018 -0.204,0.032 -0.105,0.018 -0.224,-0.004 -0.331,-0.002 -0.108,0.002 -0.202,0.008 -0.309,-0.017 -0.129,-0.029 -0.264,-0.058 -0.38,-0.123 -0.101,-0.057 -0.173,-0.145 -0.233,-0.243 -0.041,-0.069 -0.076,-0.142 -0.111,-0.216 -0.048,-0.1 -0.117,-0.18 -0.14,-0.292 -0.017,-0.08 -0.039,-0.14 -0.077,-0.212 -0.019,-0.037 -0.015,-0.073 -0.025,-0.112 -0.022,-0.086 -0.079,-0.155 -0.109,-0.234 -0.018,-0.05 -0.027,-0.127 -0.037,-0.181 -0.005,-0.03 0.002,-0.052 -0.005,-0.081 -0.006,-0.026 -0.021,-0.049 -0.024,-0.08 -0.014,-0.144 0,-0.289 0.021,-0.431 0.02,-0.133 0.064,-0.276 0.051,-0.412 -0.009,-0.087 -0.044,-0.168 -0.048,-0.257 -0.008,-0.152 0.003,-0.307 0.008,-0.459 0.003,-0.087 -0.017,-0.246 0.024,-0.325 0.063,-0.123 0.2,-0.057 0.335,-0.07 0.489,-0.049 0.981,-0.077 1.472,-0.096 0.119,-0.004 0.242,0 0.36,-0.015 0.067,-0.008 0.125,-0.035 0.189,-0.051 0.206,-0.051 0.454,-0.015 0.666,-0.015 0.039,0 0.083,-0.005 0.121,0 0.029,0.003 0.044,0.017 0.066,0.024 0.064,0.018 0.134,0 0.198,0.013 0.025,0.006 0.032,0.02 0.067,0.024 0.036,0.005 0.059,0.005 0.091,0.014 0.142,0.045 0.232,0.167 0.362,0.235 0.043,0.023 0.067,0.027 0.091,0.069 0.027,0.045 0.024,0.093 0.058,0.135 0.054,0.067 0.11,0.12 0.152,0.198 0.042,0.078 0.104,0.146 0.145,0.224 0.044,0.081 0.036,0.182 0.036,0.272 10e-4,0.109 -0.031,0.223 -0.068,0.326 -0.016,0.047 -0.022,0.059 -0.057,0.093 -0.061,0.058 -0.091,0.126 -0.146,0.186 -0.027,0.03 -0.059,0.042 -0.09,0.064 -0.035,0.025 -0.057,0.062 -0.09,0.086 -0.085,0.062 -0.208,0.06 -0.306,0.082 -0.139,0.031 -0.293,0.006 -0.428,-0.017 -0.056,-0.009 -0.154,0.015 -0.192,-0.038 0.157,0.009 0.344,-0.002 0.472,-0.089 0.057,-0.039 0.083,-0.092 0.129,-0.145 0.055,-0.061 0.063,-0.095 0.046,-0.18 -0.016,-0.078 -0.095,-0.257 -0.181,-0.303 -0.081,-0.043 -0.26,-0.012 -0.345,0.01 -0.044,0.011 -0.085,0.032 -0.128,0.044 -0.108,0.032 -0.23,0.017 -0.34,0.017 -0.177,0 -0.359,-0.016 -0.538,-0.016 -0.041,0 -0.108,-0.014 -0.145,0.006 -0.055,0.029 -0.039,0.047 -0.111,0.054 -0.053,0.005 -0.088,0.016 -0.136,0.03 -0.03,0.009 -0.089,0.011 -0.114,0.035 -0.031,0.031 -0.053,0.09 -0.071,0.128 -0.044,0.094 -0.024,0.165 0.011,0.259 0.043,0.115 0.099,0.193 0.196,0.272 0.11,0.091 0.233,0.133 0.369,0.181 0.077,0.028 0.159,0.056 0.241,0.061 0.073,0.004 0.147,-0.009 0.22,0.006 0.045,0.01 0.069,0.022 0.114,0.024 0.058,0.003 0.113,0.022 0.169,0.024 0.037,0.002 0.072,-0.017 0.108,-0.022 0.17,-0.022 0.358,0.001 0.53,0.001 0.171,0 0.341,0.001 0.512,0.001 0.342,10e-4 0.684,0.003 1.026,0.006 0.151,0.001 0.303,0.002 0.455,0.004 0.095,0 0.331,-0.044 0.416,0.004 0.035,0.02 0.062,0.066 0.089,0.101 0.141,0.186 0.274,0.386 0.429,0.56 0.129,0.145 0.187,0.393 0.248,0.577 0.027,0.082 0.044,0.178 0.082,0.256 0.03,0.061 0.08,0.1 0.121,0.152 0.033,0.042 0.044,0.102 0.075,0.146 0.039,0.056 0.097,0.094 0.137,0.149 0.095,0.131 0.185,0.277 0.259,0.421 0.031,0.061 0.078,0.105 0.111,0.165 0.024,0.044 0.038,0.1 0.066,0.141 0.025,0.038 0.061,0.064 0.085,0.104 0.021,0.036 0.036,0.076 0.058,0.112 0.126,0.207 0.218,0.428 0.311,0.651 0.089,0.214 0.165,0.425 0.2,0.654 0.024,0.158 0.003,0.339 0.003,0.499 C 0.024,-0.153 0.02,-0.082 0,0"
             style="fill:#231f20;fill-opacity:1;fill-rule:nonzero;stroke:none"
             id="path3113" />
        </g>
        <g
           id="g3115"
           transform="translate(297.486,221.805)">
          <path
             d="m 0,0 c -0.035,-0.063 -0.086,-0.099 -0.147,-0.135 -0.197,-0.114 -0.364,-0.257 -0.607,-0.217 -0.087,0.015 -0.194,0.019 -0.278,0.045 -0.111,0.033 -0.132,0.064 -0.204,0.151 -0.107,0.131 -0.269,0.298 -0.329,0.457 -0.029,0.079 -0.012,0.164 -0.015,0.247 -0.003,0.056 -0.008,0.115 0,0.172 0.004,0.028 0.011,0.056 0.023,0.083 0.011,0.022 0.03,0.044 0.042,0.067 0.025,0.046 0.048,0.095 0.08,0.14 0.056,0.08 0.141,0.148 0.211,0.218 0.081,0.082 0.16,0.155 0.279,0.175 0.049,0.009 0.162,0.012 0.212,0 0.037,-0.009 0.047,-0.027 0.089,-0.032 0.029,-0.004 0.061,0.007 0.091,0.002 0.039,-0.007 0.058,-0.035 0.09,-0.048 0.03,-0.012 0.06,-0.008 0.091,-0.025 0.035,-0.019 0.074,-0.094 0.105,-0.125 0.034,-0.033 0.073,-0.064 0.099,-0.104 0.024,-0.036 0.037,-0.084 0.06,-0.123 C -0.082,0.903 -0.044,0.872 -0.016,0.829 0.014,0.782 0.072,0.702 0.082,0.648 0.116,0.451 0.099,0.179 0,0 M 0.957,1.129 C 0.945,1.221 0.881,1.305 0.834,1.379 0.781,1.461 0.736,1.521 0.67,1.594 0.603,1.668 0.511,1.701 0.427,1.752 0.339,1.806 0.239,1.854 0.141,1.893 0.05,1.929 -0.051,1.936 -0.138,1.981 -0.22,2.023 -0.283,2.08 -0.379,2.09 -0.458,2.099 -0.524,2.101 -0.597,2.134 -0.648,2.156 -0.691,2.184 -0.748,2.188 -0.802,2.192 -0.854,2.176 -0.905,2.164 -1.12,2.117 -1.347,2.095 -1.548,2.002 -1.69,1.936 -1.818,1.784 -1.936,1.68 -2.035,1.592 -2.124,1.533 -2.17,1.418 -2.264,1.184 -2.275,0.887 -2.324,0.638 -2.363,0.444 -2.473,0.172 -2.446,-0.023 c 0.016,-0.116 0.084,-0.241 0.123,-0.352 0.035,-0.119 0.047,-0.168 0.125,-0.258 0.139,-0.16 0.347,-0.417 0.544,-0.482 0.232,-0.077 0.519,-0.111 0.764,-0.106 0.126,0.003 0.247,0.037 0.372,0.051 0.074,0.008 0.145,0.009 0.218,0.025 0.074,0.015 0.101,0.041 0.161,0.081 0.025,0.017 0.051,0.028 0.077,0.044 0.116,0.076 0.175,0.227 0.311,0.277 0.026,0.01 0.067,0.025 0.09,0.031 0.033,0.007 0.073,-0.009 0.105,0.001 0.04,0.012 0.088,0.06 0.126,0.083 0.068,0.039 0.126,0.127 0.175,0.19 0.042,0.054 0.094,0.143 0.114,0.21 C 0.887,-0.13 0.88,-0.056 0.94,0.029 0.997,0.11 1.016,0.17 1.015,0.27 1.014,0.448 1.026,0.624 0.992,0.797 0.979,0.861 0.977,0.918 0.962,0.978 0.949,1.03 0.964,1.078 0.957,1.129"
             style="fill:#231f20;fill-opacity:1;fill-rule:nonzero;stroke:none"
             id="path3117" />
        </g>
        <g
           id="g3119"
           transform="translate(284.938,225.166)">
          <path
             d="M 0,0 C -0.2,0.138 -0.282,0.239 -0.518,0.218 L -1.973,0.085 c -0.13,-0.012 -0.149,-0.016 -0.246,-0.108 -0.113,-0.109 -0.276,-0.22 -0.362,-0.352 -0.063,-0.097 -0.095,-0.237 -0.138,-0.344 -0.097,-0.24 -0.194,-0.48 -0.291,-0.72 -0.101,-0.251 -0.202,-0.501 -0.302,-0.751 -0.055,-0.137 -0.143,-0.287 -0.174,-0.432 -0.024,-0.111 0.003,-0.238 0.011,-0.352 0.01,-0.152 -0.007,-0.346 0.045,-0.489 0.071,-0.194 0.233,-0.387 0.339,-0.563 0.053,-0.089 0.106,-0.177 0.16,-0.266 0.026,-0.043 0.049,-0.102 0.083,-0.14 0.003,-0.003 0.006,-0.006 0.01,-0.01 0.031,-0.028 0.074,-0.048 0.11,-0.069 0.13,-0.078 0.256,-0.157 0.374,-0.252 0.098,-0.08 0.197,-0.148 0.311,-0.204 0.134,-0.066 0.326,-0.162 0.478,-0.161 0.075,0.001 0.17,-0.016 0.243,-10e-4 0.04,0.009 0.06,0.027 0.103,0.032 0.039,0.005 0.082,-10e-4 0.122,-10e-4 0.081,0 0.177,-0.014 0.256,0.003 0.082,0.017 0.163,0.064 0.241,0.087 0.044,0.013 0.038,-0.012 0.077,0.036 0.019,0.022 0.019,0.059 0.037,0.081 0.019,0.023 0.042,0.04 0.073,0.035 -0.173,-0.005 -0.317,0 -0.473,0.06 -0.084,0.033 -0.171,0.036 -0.257,0.058 -0.07,0.017 -0.13,0.029 -0.196,0.063 -0.103,0.053 -0.212,0.085 -0.301,0.151 -0.098,0.07 -0.201,0.132 -0.303,0.203 -0.052,0.037 -0.095,0.067 -0.15,0.098 -0.048,0.027 -0.11,0.056 -0.15,0.097 -0.101,0.102 -0.169,0.27 -0.234,0.393 -0.042,0.08 -0.058,0.153 -0.075,0.241 -0.016,0.083 -0.052,0.148 -0.053,0.233 -0.002,0.091 0,0.182 0,0.272 -10e-4,0.084 0.021,0.161 0.029,0.243 0.007,0.073 0.04,0.158 0.061,0.234 0.021,0.076 0.064,0.133 0.099,0.203 0.058,0.118 0.135,0.256 0.25,0.328 0.05,0.031 0.094,0.056 0.135,0.099 0.106,0.111 0.202,0.219 0.327,0.31 0.133,0.096 0.277,0.175 0.421,0.253 0.37,0.198 0.672,0.397 1.104,0.409 0.175,0.005 0.36,-0.063 0.532,-0.101 0.128,-0.029 0.239,-0.035 0.334,-0.114 0.149,-0.122 0.271,-0.309 0.398,-0.454 0.179,-0.205 0.359,-0.41 0.538,-0.615 0.122,-0.141 0.291,-0.284 0.388,-0.444 0.048,-0.081 0.049,-0.151 0.061,-0.252 0.031,-0.249 0.062,-0.499 0.093,-0.749 0.022,-0.182 0.01,-0.421 0.072,-0.594 0.103,-0.282 0.286,-0.217 0.522,-0.184 0.507,0.071 1.014,0.141 1.521,0.211 0.247,0.034 0.493,0.069 0.74,0.103 0.11,0.015 0.281,0.006 0.383,0.053 0.2,0.091 0.255,0.268 0.254,0.46 L 5.641,-0.684 C 5.64,-0.499 5.639,-0.315 5.639,-0.131 5.638,-0.074 5.654,0.013 5.634,0.066 5.518,0.372 5.148,0.364 4.889,0.386 4.628,0.408 4.367,0.431 4.105,0.453 3.969,0.464 3.913,0.476 3.794,0.42 3.49,0.278 3.184,0.164 3.043,-0.163 2.953,-0.373 2.911,-0.62 2.848,-0.84 2.815,-0.954 2.776,-1.049 2.786,-1.162 2.806,-1.373 2.847,-1.572 2.915,-1.77 2.936,-1.833 2.957,-1.893 2.983,-1.954 3.01,-2.019 3.009,-2.09 3.039,-2.153 c 0.019,-0.038 0.042,-0.071 0.064,-0.108 0.022,-0.035 0.037,-0.084 0.06,-0.115 0.022,-0.031 0.061,-0.05 0.084,-0.082 0.035,-0.047 0.044,-0.087 0.091,-0.13 0.034,-0.03 0.065,-0.07 0.101,-0.097 0.068,-0.052 0.182,-0.099 0.26,-0.12 0.045,-0.012 0.076,-0.028 0.121,-0.046 0.047,-0.018 0.094,-0.007 0.144,-0.021 0.015,-0.004 0.03,-0.02 0.051,-0.024 0.023,-0.005 0.052,10e-4 0.076,10e-4 0.06,0 0.111,-0.011 0.159,0.022 0.061,0.041 0.104,0.113 0.163,0.159 -0.061,0.034 -0.114,0.01 -0.172,0.028 -0.027,0.009 -0.078,0.048 -0.101,0.066 -0.066,0.048 -0.11,0.129 -0.147,0.199 -0.018,0.033 -0.01,0.032 -0.022,0.069 -0.006,0.018 -0.02,0.052 -0.024,0.067 -0.006,0.023 10e-4,0.048 -0.006,0.069 -0.006,0.023 -0.023,0.042 -0.028,0.062 -0.024,0.103 -0.003,0.237 -0.003,0.343 0,0.107 -0.026,0.261 -0.001,0.365 0.009,0.038 0.028,0.064 0.035,0.106 0.007,0.04 0.015,0.07 0.034,0.107 0.047,0.087 0.101,0.102 0.192,0.116 0.134,0.02 0.268,0.083 0.359,-0.063 0.077,-0.123 0.074,-0.297 0.086,-0.436 0.019,-0.212 0.033,-0.429 0.069,-0.639 0.028,-0.16 0.095,-0.35 0.05,-0.512 C 4.709,-2.859 4.505,-3.014 4.41,-3.058 4.242,-3.136 3.994,-3.139 3.812,-3.174 3.673,-3.2 3.577,-3.195 3.453,-3.114 3.265,-2.992 3.099,-2.784 2.936,-2.631 2.805,-2.509 2.811,-2.447 2.769,-2.283 2.728,-2.125 2.595,-1.884 2.498,-1.753 2.455,-1.695 2.41,-1.666 2.347,-1.623 1.565,-1.082 0.782,-0.541 0,0"
             style="fill:#231f20;fill-opacity:1;fill-rule:nonzero;stroke:none"
             id="path3121" />
        </g>
        <g
           id="g3123"
           transform="translate(290.718,218.87)">
          <path
             d="m 0,0 c 0,0.158 -0.001,0.316 0,0.474 0.001,0.082 -0.018,0.135 -0.029,0.211 -0.011,0.082 -0.044,0.179 -0.069,0.259 -0.027,0.085 -0.078,0.168 -0.107,0.255 -0.026,0.081 -0.071,0.139 -0.12,0.211 -0.107,0.16 -0.286,0.257 -0.466,0.323 -0.062,0.022 -0.105,0.075 -0.166,0.095 -0.049,0.016 -0.116,0.004 -0.167,0.004 -0.088,0 -0.176,10e-4 -0.264,0 C -1.486,1.83 -1.566,1.792 -1.659,1.771 -1.726,1.755 -1.808,1.74 -1.861,1.687 -1.758,1.659 -1.687,1.624 -1.599,1.561 -1.531,1.512 -1.477,1.453 -1.418,1.394 -1.362,1.34 -1.289,1.285 -1.244,1.222 -1.212,1.178 -1.156,1.07 -1.145,1.019 -1.126,0.933 -1.141,0.794 -1.161,0.716 -1.175,0.666 -1.17,0.619 -1.176,0.564 -1.189,0.433 -1.372,0.395 -1.469,0.346 -1.557,0.302 -1.636,0.259 -1.718,0.204 -1.802,0.147 -1.884,0.143 -1.978,0.11 -2.039,0.089 -2.092,0.05 -2.159,0.049 c -0.059,0 -0.104,0.03 -0.162,0.035 -0.098,0.009 -0.191,0.014 -0.287,0.028 -0.12,0.016 -0.22,0.056 -0.342,0.06 -0.094,0.003 -0.178,0.031 -0.275,0.031 -0.102,0 -0.204,0 -0.306,0 -0.086,0 -0.185,-0.012 -0.27,0.002 -0.095,0.017 -0.174,0.028 -0.272,0.028 -0.071,0 -0.148,0.009 -0.211,-0.015 C -4.335,0.199 -4.387,0.179 -4.434,0.159 -4.559,0.106 -4.686,0.051 -4.812,-0.008 -4.878,-0.038 -4.916,-0.09 -4.978,-0.129 -5.041,-0.169 -5.106,-0.191 -5.17,-0.223 -5.227,-0.252 -5.272,-0.268 -5.333,-0.286 -5.355,-0.293 -5.386,-0.318 -5.408,-0.332 -5.417,-0.337 -5.42,-0.352 -5.429,-0.356 -5.459,-0.372 -5.491,-0.37 -5.522,-0.387 -5.556,-0.406 -5.58,-0.438 -5.615,-0.456 -5.693,-0.495 -5.784,-0.504 -5.864,-0.543 -5.97,-0.596 -6.075,-0.65 -6.179,-0.706 c -0.236,-0.127 -0.508,-0.331 -0.785,-0.32 -0.113,0.005 -0.239,0.038 -0.352,0.022 -0.212,-0.028 -0.362,-0.164 -0.585,-0.107 -0.195,0.05 -0.531,0.198 -0.625,0.392 -0.202,0.414 0.135,0.931 0.506,1.116 0.109,0.055 0.463,0.057 0.36,0.269 C -7.717,0.784 -8.058,0.849 -8.177,0.852 -8.375,0.859 -8.65,0.635 -8.822,0.545 -9.063,0.419 -9.214,0.294 -9.304,0.029 c -0.18,-0.525 -0.076,-1.096 0.143,-1.593 0.262,-0.598 0.917,-0.425 1.439,-0.399 0.637,0.031 1.275,0.093 1.911,0.144 0.301,0.024 0.601,0.049 0.902,0.073 0.223,0.019 0.562,0.113 0.758,0.016 0.094,-0.046 0.179,-0.116 0.213,-0.202 0.051,-0.126 -0.007,-0.296 0.036,-0.426 0.023,-0.069 -0.007,-0.052 0.051,-0.083 0.07,-0.039 0.256,-0.008 0.334,-0.011 0.247,-0.007 0.527,-0.054 0.772,-0.024 0.168,0.021 0.344,0.051 0.512,0.08 0.264,0.044 0.295,0.114 0.356,0.347 0.028,0.11 0.067,0.216 0.063,0.327 -0.004,0.108 -0.102,0.285 -0.039,0.363 0.141,0.174 0.456,0.097 0.643,0.068 0.139,-0.022 0.272,-0.048 0.413,-0.039 0.121,0.009 0.295,-0.034 0.406,0.024 0.128,0.067 0.227,0.201 0.278,0.332 0.019,0.05 0.017,0.092 0.029,0.144 0.006,0.027 0.021,0.047 0.025,0.075 0.004,0.027 -0.009,0.059 -0.003,0.086 0.007,0.028 0.026,0.041 0.033,0.071 0.007,0.033 -0.004,0.073 -0.002,0.107 0.003,0.046 0.025,0.077 0.033,0.121 C 0.008,-0.334 0,-0.286 0,-0.25 V 0"
             style="fill:#231f20;fill-opacity:1;fill-rule:nonzero;stroke:none"
             id="path3125" />
        </g>
        <g
           id="g3127"
           transform="translate(281.483,224.503)">
          <path
             d="m 0,0 c 0.042,0.057 0.06,0.127 0.102,0.184 0.043,0.06 0.108,0.094 0.157,0.149 0.044,0.049 0.078,0.079 0.13,0.119 0.083,0.064 0.174,0.11 0.25,0.182 0.081,0.077 0.18,0.11 0.267,0.181 0.071,0.057 0.145,0.117 0.223,0.171 0.122,0.083 0.253,0.154 0.394,0.184 0.169,0.036 0.33,0.1 0.503,0.098 0.116,-0.002 0.187,0.092 0.302,0.09 0.028,0 0.066,-0.008 0.092,-0.001 0.027,0.006 0.03,0.026 0.057,0.033 0.047,0.012 0.102,-0.002 0.15,-0.003 0.066,0 0.132,0.007 0.198,0.01 C 2.912,1.402 2.995,1.398 3.079,1.376 3.269,1.325 3.468,1.291 3.648,1.209 4.048,1.026 4.464,0.763 4.884,0.635 5.061,0.581 5.429,0.506 5.619,0.596 5.749,0.656 5.92,0.98 5.918,1.147 5.917,1.225 5.921,1.284 5.881,1.351 5.828,1.439 5.74,1.545 5.655,1.608 5.564,1.674 5.416,1.746 5.308,1.774 5.269,1.783 5.233,1.778 5.194,1.787 5.154,1.797 5.113,1.824 5.073,1.834 5,1.852 4.917,1.839 4.842,1.841 4.915,1.855 4.928,1.765 4.958,1.728 4.994,1.683 5.049,1.65 5.066,1.593 5.08,1.547 5.094,1.406 5.067,1.364 5.038,1.319 4.94,1.299 4.892,1.297 4.815,1.294 4.767,1.257 4.688,1.274 4.662,1.28 4.656,1.294 4.621,1.299 4.601,1.297 4.58,1.297 4.559,1.296 4.542,1.298 4.531,1.306 4.523,1.321 4.49,1.328 4.446,1.318 4.415,1.334 4.396,1.344 4.379,1.372 4.361,1.385 4.312,1.418 4.25,1.439 4.197,1.471 4.15,1.5 4.116,1.532 4.072,1.563 4.008,1.606 3.907,1.62 3.836,1.651 3.759,1.686 3.703,1.677 3.625,1.697 3.547,1.717 3.493,1.741 3.413,1.75 3.351,1.756 3.296,1.789 3.233,1.804 3.15,1.824 3.075,1.83 2.991,1.84 2.925,1.848 2.885,1.871 2.81,1.871 2.658,1.87 2.5,1.896 2.354,1.844 2.258,1.81 2.165,1.78 2.063,1.772 1.805,1.754 1.552,1.723 1.296,1.688 1.003,1.648 0.707,1.614 0.415,1.563 0.284,1.54 0.305,1.544 0.221,1.465 0.012,1.267 -0.182,1.049 -0.383,0.842 -0.456,0.767 -0.577,0.679 -0.631,0.587 c -0.089,-0.155 -0.08,-0.43 -0.105,-0.61 -0.03,-0.223 -0.127,-0.52 -0.061,-0.734 0.026,-0.084 0.073,-0.226 0.138,-0.287 0.003,0.057 0.054,0.095 0.084,0.14 0.031,0.05 0.063,0.099 0.096,0.148 0.064,0.098 0.093,0.202 0.167,0.291 0.078,0.092 0.097,0.218 0.162,0.314 C -0.111,-0.094 -0.041,-0.057 0,0"
             style="fill:#231f20;fill-opacity:1;fill-rule:nonzero;stroke:none"
             id="path3129" />
        </g>
        <g
           id="g3131"
           transform="translate(286.864,212.611)">
          <path
             d="m 0,0 c -0.01,-0.046 -0.026,-0.096 0.021,-0.116 0.027,-0.011 0.113,0 0.138,0.005 0.072,0.013 0.131,0.06 0.195,0.088 0.088,0.038 0.161,0.066 0.237,0.128 0.036,0.03 0.049,0.075 0.08,0.11 0.04,0.046 0.076,0.075 0.113,0.124 0.051,0.068 0.123,0.105 0.169,0.181 0.032,0.055 0.063,0.112 0.096,0.166 0.064,0.104 0.14,0.211 0.211,0.31 0.193,0.266 0.353,0.567 0.476,0.873 0.033,0.082 0.049,0.172 0.067,0.258 0.019,0.087 0.05,0.171 0.058,0.26 0.013,0.155 0.033,0.298 0.033,0.455 0,0.092 0.004,0.184 0.001,0.275 C 1.891,3.214 1.868,3.312 1.86,3.409 1.854,3.473 1.842,3.54 1.805,3.594 1.771,3.641 1.723,3.668 1.667,3.68 1.632,3.688 1.595,3.687 1.56,3.685 1.362,3.675 1.162,3.64 0.965,3.616 0.739,3.589 0.513,3.56 0.287,3.531 0.208,3.52 0.155,3.534 0.135,3.482 0.102,3.4 0.145,3.294 0.158,3.212 0.173,3.111 0.121,3.018 0.146,2.916 0.155,2.876 0.189,2.848 0.199,2.811 0.207,2.783 0.203,2.757 0.211,2.728 0.215,2.714 0.231,2.715 0.236,2.693 0.243,2.666 0.235,2.636 0.241,2.608 0.244,2.597 0.262,2.588 0.266,2.572 0.278,2.526 0.265,2.461 0.265,2.413 V 1.954 c 0,-0.074 -0.001,-0.148 0,-0.222 C 0.266,1.663 0.24,1.613 0.233,1.545 0.227,1.487 0.243,1.429 0.228,1.372 0.211,1.308 0.204,1.257 0.204,1.183 0.205,1.052 0.209,0.919 0.205,0.788 0.203,0.711 0.178,0.635 0.16,0.56 0.139,0.47 0.124,0.37 0.091,0.283 0.07,0.226 0.035,0.176 0.026,0.115 0.025,0.11 0.025,0.105 0.025,0.1 0.024,0.078 0.03,0.055 0.025,0.036 0.022,0.022 0.002,0.008 0,0"
             style="fill:#231f20;fill-opacity:1;fill-rule:nonzero;stroke:none"
             id="path3133" />
        </g>
        <g
           id="g3135"
           transform="translate(285.69,222.103)">
          <path
             d="m 0,0 c -0.01,-0.026 -0.042,-0.046 -0.05,-0.066 -0.07,-0.184 -0.254,-0.458 -0.43,-0.537 -0.187,-0.083 -0.384,-0.08 -0.58,-0.047 -0.053,0.01 -0.06,-0.004 -0.071,0.059 -0.039,0.012 -0.076,-0.002 -0.115,0.004 -0.046,0.007 -0.063,0.034 -0.098,0.055 -0.06,0.036 -0.106,0.034 -0.144,0.097 -0.03,0.051 -0.045,0.097 -0.06,0.151 -0.017,0.06 -0.054,0.117 -0.061,0.18 -0.009,0.078 -0.03,0.13 -0.03,0.212 0.001,0.071 0,0.141 0,0.211 0,0.137 0.016,0.251 0.121,0.347 0.096,0.088 0.185,0.206 0.294,0.264 0.041,0.022 0.084,0.071 0.127,0.085 0.064,0.02 0.174,-0.002 0.243,-0.002 0.071,0 0.175,0.02 0.243,0.002 C -0.56,1.001 -0.514,0.943 -0.47,0.914 -0.421,0.881 -0.384,0.846 -0.335,0.809 -0.319,0.805 -0.304,0.801 -0.289,0.797 -0.278,0.779 -0.267,0.763 -0.255,0.746 -0.154,0.64 -0.018,0.5 -0.004,0.347 0.002,0.271 0.014,0.192 0.014,0.116 0.014,0.078 0.014,0.036 0,0 M 0.614,1.019 0.416,1.353 C 0.293,1.46 0.152,1.594 0.01,1.673 -0.171,1.773 -0.452,1.799 -0.653,1.852 -0.893,1.914 -0.902,1.883 -1.127,1.756 -1.363,1.622 -1.597,1.485 -1.829,1.346 -1.953,1.273 -2.076,1.198 -2.198,1.124 -2.335,1.042 -2.341,1.045 -2.398,0.918 -2.499,0.686 -2.532,0.389 -2.598,0.144 -2.637,0.001 -2.725,-0.174 -2.691,-0.315 c 0.026,-0.105 0.118,-0.225 0.168,-0.32 0.042,-0.081 0.079,-0.197 0.14,-0.266 0.109,-0.124 0.383,-0.202 0.534,-0.278 0.13,-0.065 0.26,-0.131 0.39,-0.195 0.111,-0.055 0.274,-0.176 0.398,-0.196 0.181,-0.031 0.434,0.044 0.616,0.067 0.189,0.023 0.448,0.01 0.619,0.086 0.093,0.042 0.205,0.19 0.281,0.262 0.085,0.08 0.215,0.164 0.274,0.263 0.042,0.071 0.058,0.169 0.081,0.249 0.031,0.104 0.086,0.22 0.098,0.328 C 0.932,-0.082 0.811,0.25 0.768,0.482 0.732,0.675 0.714,0.851 0.614,1.019"
             style="fill:#231f20;fill-opacity:1;fill-rule:nonzero;stroke:none"
             id="path3137" />
        </g>
        <g
           id="g3139"
           transform="translate(290.606,209.925)">
          <path
             d="m 0,0 c 0.021,0.152 0.047,0.358 -0.003,0.508 -0.011,0.034 -0.034,0.063 -0.047,0.096 -0.022,0.058 -0.017,0.118 -0.027,0.178 -0.013,0.07 -0.042,0.136 -0.056,0.206 -0.013,0.07 -0.022,0.141 -0.055,0.204 -0.09,0.173 -0.127,0.348 -0.243,0.506 -0.088,0.121 -0.162,0.255 -0.27,0.363 -0.111,0.11 -0.256,0.239 -0.423,0.24 -0.079,0 -0.129,0.029 -0.212,0.03 -0.102,0.002 -0.196,0.031 -0.301,0.031 -0.08,-10e-4 -0.16,0 -0.24,0 -0.051,0 -0.102,-10e-4 -0.153,0 -0.065,10e-4 -0.117,0.02 -0.181,0.031 -0.094,0.015 -0.18,0.029 -0.278,0.029 -0.047,0 -0.096,-0.004 -0.143,-0.001 C -2.69,2.425 -2.742,2.448 -2.8,2.453 -2.969,2.469 -3.193,2.475 -3.358,2.437 -3.578,2.386 -3.842,2.422 -4.068,2.422 -4.179,2.422 -4.252,2.41 -4.352,2.385 -4.515,2.345 -4.674,2.399 -4.836,2.384 -4.982,2.37 -5.157,2.341 -5.297,2.396 c -0.06,0.023 -0.087,0.087 -0.127,0.147 -0.254,0.38 -0.509,0.761 -0.763,1.142 -0.085,0.127 -0.165,0.244 -0.254,0.366 -0.062,0.086 -0.149,0.146 -0.207,0.237 -0.067,0.103 -0.143,0.204 -0.214,0.303 -0.045,0.062 -0.07,0.129 -0.106,0.191 -0.035,0.061 -0.086,0.114 -0.123,0.174 -0.077,0.126 -0.134,0.265 -0.161,0.408 -0.024,0.128 -0.027,0.245 -0.027,0.376 0,0.109 -0.02,0.241 -0.001,0.348 0.015,0.08 0.071,0.16 0.13,0.218 0.04,0.041 0.058,0.056 0.112,0.075 0.035,0.013 0.107,0.06 0.142,0.054 C -7.053,6.428 -7.212,6.433 -7.369,6.434 -7.552,6.435 -7.636,6.339 -7.754,6.215 -7.802,6.165 -7.819,6.104 -7.859,6.048 -7.916,5.97 -7.935,5.923 -7.941,5.826 -7.944,5.77 -7.97,5.719 -7.973,5.664 -7.976,5.622 -7.972,5.579 -7.972,5.537 -7.972,5.484 -7.966,5.429 -7.979,5.378 -7.991,5.333 -8.003,5.308 -8.002,5.257 -8,5.054 -8.019,4.847 -7.979,4.649 -7.965,4.579 -7.978,4.51 -7.958,4.442 -7.943,4.388 -7.924,4.339 -7.912,4.284 -7.889,4.181 -7.848,4.089 -7.814,3.991 -7.759,3.832 -7.659,3.698 -7.588,3.546 -7.54,3.445 -7.47,3.341 -7.435,3.235 -7.398,3.121 -7.341,3.004 -7.279,2.902 -7.167,2.72 -7.013,2.577 -6.908,2.39 -6.869,2.32 -6.855,2.258 -6.818,2.187 -6.797,2.148 -6.781,2.111 -6.75,2.074 -6.649,1.948 -6.562,1.766 -6.515,1.611 -6.463,1.443 -6.387,1.288 -6.309,1.128 -6.27,1.047 -6.256,1.025 -6.185,0.965 -5.956,0.771 -5.909,0.766 -5.602,0.77 c 0.276,0.003 0.552,0.007 0.828,0.01 0.502,0.006 1.003,0.013 1.505,0.021 0.414,0.006 0.826,-0.008 1.24,-0.008 0.06,0 0.12,0 0.181,0 0.027,0 0.063,0.004 0.091,0.001 0.037,-0.005 0.038,-0.018 0.066,-0.025 0.046,-0.012 0.106,-0.015 0.145,-0.036 0.021,-0.011 0.032,-0.028 0.051,-0.039 0.072,-0.043 0.099,-0.058 0.108,-0.15 0.006,-0.066 0.006,-0.129 0.02,-0.195 C -1.316,0.118 -1.44,-0.11 -1.643,-0.235 -1.719,-0.281 -1.83,-0.302 -1.916,-0.332 -2.013,-0.366 -2.11,-0.343 -2.21,-0.36 c -0.173,-0.03 -0.336,-0.053 -0.513,-0.054 -0.131,-0.001 -0.276,0.042 -0.392,0.097 -0.03,0.015 -0.063,0.028 -0.092,0.046 -0.028,0.017 -0.042,0.045 -0.067,0.062 -0.047,0.034 -0.102,0.046 -0.145,0.096 -0.037,0.044 -0.059,0.098 -0.096,0.143 -0.045,0.055 -0.051,0.089 -0.053,0.159 -10e-4,0.049 -0.015,0.124 0.021,0.16 0.039,0.038 0.118,0.003 0.127,0.076 C -3.507,0.438 -3.578,0.487 -3.665,0.492 -3.745,0.496 -3.852,0.506 -3.93,0.493 -4.005,0.48 -4.084,0.42 -4.141,0.372 -4.202,0.32 -4.226,0.223 -4.254,0.153 c -0.072,-0.18 -0.129,-0.363 -0.129,-0.558 0.001,-0.1 -0.015,-0.214 0,-0.312 0.01,-0.071 0.063,-0.143 0.099,-0.21 0.029,-0.057 0.071,-0.108 0.104,-0.159 0.034,-0.052 0.077,-0.105 0.122,-0.15 0.034,-0.033 0.066,-0.077 0.104,-0.105 0.02,-0.016 0.069,-0.055 0.091,-0.062 0.036,-0.013 0.071,-0.003 0.107,-0.013 0.054,-0.016 0.111,-0.064 0.165,-0.077 0.067,-0.017 0.11,-0.042 0.173,-0.068 0.075,-0.032 0.172,-0.03 0.252,-0.045 0.091,-0.017 0.187,-0.023 0.279,-0.018 0.119,0.006 0.229,0.054 0.347,0.067 0.407,0.046 0.826,0.039 1.235,0.061 0.28,0.015 0.56,0.031 0.839,0.046 0.081,0.004 0.341,-0.029 0.409,0.022 0.073,0.055 0.114,0.457 0.116,0.56 C 0.061,-0.776 0.026,-0.683 0.01,-0.591 -0.023,-0.395 -0.005,-0.199 0,0"
             style="fill:#231f20;fill-opacity:1;fill-rule:nonzero;stroke:none"
             id="path3141" />
        </g>
      </g>
    </g>
  </g>
</svg>
