<?xml version="1.0" encoding="UTF-8" standalone="no"?>
<!-- Created with Inkscape (http://www.inkscape.org/) -->

<svg
   width="33.610626"
   height="24"
   viewBox="0 0 8.8928115 6.35"
   version="1.1"
   id="svg43742"
   inkscape:version="1.2.1 (9c6d41e4, 2022-07-14)"
   sodipodi:docname="the-boundary-beyond.svg"
   xmlns:inkscape="http://www.inkscape.org/namespaces/inkscape"
   xmlns:sodipodi="http://sodipodi.sourceforge.net/DTD/sodipodi-0.dtd"
   xmlns="http://www.w3.org/2000/svg"
   xmlns:svg="http://www.w3.org/2000/svg">
  <sodipodi:namedview
     id="namedview43744"
     pagecolor="#505050"
     bordercolor="#eeeeee"
     borderopacity="1"
     inkscape:showpageshadow="0"
     inkscape:pageopacity="0"
     inkscape:pagecheckerboard="0"
     inkscape:deskcolor="#505050"
     inkscape:document-units="mm"
     showgrid="false"
     inkscape:zoom="0.7046647"
     inkscape:cx="102.17625"
     inkscape:cy="156.81217"
     inkscape:window-width="1390"
     inkscape:window-height="941"
     inkscape:window-x="0"
     inkscape:window-y="25"
     inkscape:window-maximized="0"
     inkscape:current-layer="layer1" />
  <defs
     id="defs43739">
    <clipPath
       clipPathUnits="userSpaceOnUse"
       id="clipPath16649">
      <path
         d="m 343.971,431.896 h 24.7 v 24.7 h -24.7 z"
         id="path16647" />
    </clipPath>
  </defs>
  <g
     inkscape:label="Layer 1"
     inkscape:groupmode="layer"
     id="layer1"
     transform="translate(-77.968287,-107.50785)">
    <g
       id="g16643"
       transform="matrix(0.44694492,0,0,-0.44694492,-76.840977,309.76095)">
      <g
         id="g16645"
         clip-path="url(#clipPath16649)">
        <g
           id="g16651"
           transform="translate(359.235,438.438)">
          <path
             d="m 0,0 c 0.011,0.085 0.04,0.145 0.039,0.236 -0.001,0.151 0,0.302 0,0.453 0,0.181 0,0.363 0.001,0.545 0.003,0.27 -0.072,0.531 -0.08,0.8 -0.009,0.27 -0.041,0.533 -0.038,0.805 0.002,0.159 -0.022,0.34 -0.049,0.497 -0.067,0.391 -0.138,0.783 -0.207,1.173 -0.063,0.361 -0.139,0.719 -0.139,1.085 0.001,0.191 0.008,0.377 -0.028,0.566 -0.046,0.241 -0.08,0.491 -0.092,0.736 -0.011,0.235 0.011,0.46 -0.028,0.693 -0.025,0.143 0.007,0.289 -0.018,0.43 -0.054,0.31 -0.052,0.64 -0.118,0.953 -0.035,0.167 -0.079,0.337 -0.111,0.505 -0.01,0.047 0.012,0.099 0.004,0.146 -0.01,0.05 -0.034,0.083 -0.044,0.132 -0.009,0.046 0.006,0.1 0.003,0.146 -0.003,0.059 -0.028,0.097 -0.041,0.153 -0.037,0.15 -0.058,0.308 -0.077,0.461 -0.009,0.074 -0.036,0.112 -0.039,0.191 -0.005,0.097 -0.067,0.175 -0.082,0.269 -0.013,0.078 0.031,0.133 -0.076,0.156 -0.069,0.015 -0.166,-0.003 -0.237,-0.003 -0.22,0 -0.495,-0.043 -0.704,0.009 -0.15,0.037 -0.282,0.068 -0.438,0.068 -0.091,0 -0.151,0.008 -0.235,0.03 -0.097,0.025 -0.215,0.009 -0.317,0.009 -0.065,0 -0.131,-10e-4 -0.197,0 -0.027,0 -0.097,0.012 -0.121,0.002 C -3.525,11.222 -3.493,11.221 -3.505,11.168 -3.577,10.867 -3.604,10.543 -3.654,10.234 -3.687,10.026 -3.708,9.808 -3.733,9.598 -3.757,9.394 -3.801,9.193 -3.82,8.988 -3.86,8.562 -3.922,8.145 -4.007,7.725 -4.109,7.227 -4.117,6.718 -4.214,6.218 -4.276,5.903 -4.309,5.58 -4.362,5.263 -4.437,4.814 -4.489,4.36 -4.56,3.911 -4.609,3.596 -4.643,3.279 -4.676,2.962 -4.711,2.629 -4.774,2.298 -4.815,1.964 -4.858,1.599 -4.916,1.236 -5.013,0.883 -5.051,0.742 -5.042,0.608 -5.091,0.468 -5.111,0.413 -5.139,0.346 -5.151,0.298 -5.165,0.24 -5.222,0.12 -5.163,0.082 c 0.026,-0.016 0.101,-0.009 0.131,-0.014 0.068,-0.011 0.117,-0.027 0.188,-0.029 0.183,-0.007 0.368,-0.001 0.551,-0.001 0.046,0 0.198,-0.025 0.231,0.006 0.02,0.02 0.006,0.093 0.005,0.116 -0.002,0.1 0,0.2 0.001,0.301 0,0.643 0.118,1.273 0.118,1.919 0,0.13 -0.01,0.262 0.008,0.391 0.021,0.138 0.07,0.273 0.07,0.413 0,0.16 0.058,0.31 0.079,0.469 0.028,0.21 0.046,0.427 0.086,0.635 0.019,0.102 0.085,0.187 0.105,0.289 0.027,0.137 0.003,0.262 0.043,0.4 0.068,0.231 0.132,0.465 0.171,0.703 0.091,0.552 0.231,1.119 0.226,1.68 -0.002,0.233 -10e-4,0.467 -10e-4,0.7 0,0.164 -0.021,0.346 0.009,0.507 0.037,0.196 0.034,0.4 0.078,0.596 0.018,0.081 0.064,0.146 0.074,0.23 0.009,0.077 -0.003,0.163 -0.003,0.241 v 0.265 c 0,0.048 -0.003,0.097 -0.001,0.144 0.003,0.078 0.029,0.131 0.042,0.204 0.018,0.1 0.014,0.206 0.036,0.306 0.037,0.163 0.108,0.096 0.238,0.075 0.119,-0.018 0.206,-0.045 0.322,-0.086 0.063,-0.022 0.131,-0.014 0.193,-0.036 0.06,-0.021 0.098,-0.059 0.163,-0.07 0.097,-0.016 0.202,0.021 0.297,-0.007 0.045,-0.013 0.156,-0.067 0.191,-0.096 -0.012,-0.01 -0.018,-0.023 -0.016,-0.039 0.085,-0.054 0.031,-0.381 0.031,-0.471 0,-0.183 0.029,-0.394 -0.008,-0.575 C -1.53,9.131 -1.551,9.014 -1.566,8.895 -1.588,8.73 -1.564,8.565 -1.584,8.4 -1.612,8.173 -1.615,7.96 -1.615,7.73 c 0,-0.242 0.003,-0.471 0.049,-0.708 0.034,-0.175 0.05,-0.351 0.078,-0.527 0.037,-0.228 0.148,-0.437 0.185,-0.661 0.032,-0.193 0.038,-0.385 0.073,-0.579 0.019,-0.102 0,-0.201 0.007,-0.303 0.006,-0.096 0.033,-0.189 0.041,-0.285 0.029,-0.345 0.04,-0.68 0.04,-1.026 V 2.345 C -1.142,1.865 -1.174,1.39 -1.259,0.918 -1.27,0.861 -1.293,0.813 -1.311,0.758 -1.341,0.663 -1.346,0.567 -1.367,0.47 -1.387,0.372 -1.431,0.284 -1.459,0.189 -1.472,0.146 -1.499,0.06 -1.493,0.015 c 0.12,-0.05 0.226,-0.044 0.352,-0.072 0.083,-0.019 0.149,-0.013 0.234,-0.018 0.079,-0.004 0.151,-0.037 0.23,-0.042 C -0.441,-0.133 -0.198,-0.115 0,0"
             style="fill:#000000;fill-opacity:1;fill-rule:nonzero;stroke:none"
             id="path16653" />
        </g>
        <g
           id="g16655"
           transform="translate(359.432,449.873)">
          <path
             d="m 0,0 c 0.014,0.063 -0.037,0.127 -0.04,0.192 -0.004,0.063 0.001,0.128 0.001,0.192 v 0.403 c 0,0.109 -0.029,0.26 -0.002,0.366 C -0.025,1.219 0.003,1.223 0,1.305 -0.003,1.402 0.002,1.392 0.08,1.438 0.173,1.493 0.184,1.601 0.196,1.689 0.204,1.751 0.229,1.78 0.237,1.841 0.247,1.915 0.217,2.003 0.234,2.074 0.247,2.127 0.273,2.143 0.276,2.206 0.279,2.257 0.29,2.331 0.279,2.38 0.248,2.511 0.038,2.494 -0.074,2.494 c -0.527,0 -1.054,0 -1.581,0 -0.226,0 -0.455,-0.011 -0.68,-0.001 -0.084,0.004 -0.156,0.036 -0.239,0.041 -0.111,0.007 -0.203,0.007 -0.309,0.029 -0.43,0.089 -0.886,0.085 -1.329,0.085 -0.381,0 -0.763,-0.002 -1.144,0 -0.038,0 -0.082,0.005 -0.119,10e-4 C -5.524,2.643 -5.526,2.627 -5.562,2.618 -5.628,2.601 -5.689,2.616 -5.713,2.535 -5.72,2.51 -5.703,2.478 -5.708,2.454 -5.716,2.421 -5.744,2.413 -5.752,2.381 -5.77,2.309 -5.75,2.193 -5.75,2.119 -5.75,2.006 -5.793,1.824 -5.682,1.755 -5.628,1.721 -5.563,1.724 -5.504,1.698 -5.443,1.671 -5.415,1.645 -5.362,1.602 -5.387,1.541 -5.397,1.494 -5.396,1.42 c 0.002,-0.08 -0.03,-0.136 -0.04,-0.211 -0.02,-0.14 0.001,-0.3 0.001,-0.441 0,-0.141 0,-0.282 0,-0.423 0,-0.035 0.006,-0.081 10e-4,-0.116 C -5.439,0.189 -5.46,0.174 -5.466,0.145 -5.48,0.078 -5.502,-0.004 -5.51,-0.071 c 0.101,-0.024 0.226,-0.006 0.331,-0.006 0.088,0 0.29,-0.036 0.366,0.008 0.077,0.044 0.057,0.192 0.039,0.261 -0.031,0.117 -0.018,0.231 -0.039,0.352 -0.025,0.135 -0.03,0.258 -0.031,0.396 0,0.057 -0.003,0.11 0.009,0.164 0.003,0.014 0.027,0.024 0.032,0.045 0.01,0.038 -0.012,0.081 -0.004,0.119 0.017,0.075 0.101,0.181 0.16,0.231 0.112,0.095 0.198,0.113 0.345,0.113 0.329,-0.001 0.687,0.036 1.012,-0.009 0.277,-0.039 0.553,-0.04 0.831,-0.077 0.127,-0.017 0.242,-0.065 0.372,-0.069 0.107,-0.004 0.216,10e-4 0.324,10e-4 H -1.1 c 0.106,0 0.336,0.046 0.422,-0.008 C -0.572,1.385 -0.656,1.273 -0.672,1.19 -0.688,1.104 -0.673,1.01 -0.689,0.921 -0.706,0.831 -0.73,0.714 -0.711,0.622 c 0.02,-0.098 0.042,-0.164 0.041,-0.27 0,-0.066 0.001,-0.132 0.001,-0.198 0,-0.05 -0.022,-0.152 -0.003,-0.195 0.018,-0.043 0.108,-0.067 0.16,-0.076 0.066,-0.011 0.131,0.01 0.197,-0.007 0.059,-0.015 0.124,-0.059 0.189,-0.022 0.078,0.045 0.067,0.26 0.041,0.331 C -0.096,0.187 -0.107,0.19 0,0"
             style="fill:#000000;fill-opacity:1;fill-rule:nonzero;stroke:none"
             id="path16657" />
        </g>
        <g
           id="g16659"
           transform="translate(358.644,448.837)">
          <path
             d="m 0,0 c 0.278,0 0.594,0.044 0.866,-0.009 0.105,-0.02 0.211,-0.039 0.317,-0.059 0.08,-0.015 0.156,0.003 0.235,-0.007 0.069,-0.008 0.126,-0.039 0.198,-0.041 0.06,-0.002 0.077,0.003 0.126,-0.026 0.077,-0.045 0.135,-0.164 0.178,-0.241 0.04,-0.073 0.062,-0.149 0.098,-0.221 0.037,-0.073 0.093,-0.131 0.138,-0.203 0.065,-0.103 0.079,-0.155 -0.069,-0.152 -0.499,0.009 -0.998,-0.002 -1.497,0 -0.053,0 -0.112,0.007 -0.165,0.002 -0.082,-0.008 -0.146,-0.058 -0.23,-0.034 -0.099,0.028 -0.202,0.1 -0.226,0.194 -0.012,0.049 0.002,0.095 -0.006,0.145 -0.01,0.056 -0.039,0.094 -0.043,0.153 C -0.085,-0.397 -0.079,-0.293 0,0"
             style="fill:#000000;fill-opacity:1;fill-rule:nonzero;stroke:none"
             id="path16661" />
        </g>
        <g
           id="g16663"
           transform="translate(355.178,449.106)">
          <path
             d="m 0,0 h -1.694 c -0.086,0 -0.17,0 -0.255,0 -0.1,0 -0.151,0.02 -0.235,0.04 -0.066,0.015 -0.19,0.008 -0.259,-0.001 -0.104,-0.012 -0.128,-0.057 -0.166,-0.146 -0.025,-0.06 -0.082,-0.125 -0.105,-0.184 -0.016,-0.042 -0.011,-0.087 -0.032,-0.131 -0.023,-0.049 -0.038,-0.084 -0.05,-0.134 -0.02,-0.082 -0.032,-0.16 -0.048,-0.241 -0.009,-0.044 -0.051,-0.039 -0.01,-0.087 0.031,-0.036 0.093,-0.034 0.135,-0.038 0.128,-0.012 0.266,0.001 0.395,0.001 0.199,0 0.38,-0.007 0.575,-0.035 0.266,-0.038 0.568,-0.003 0.837,-0.003 0.055,0 0.117,0.007 0.172,0.002 0.076,-0.008 0.151,-0.058 0.23,-0.044 0.129,0.021 0.114,0.158 0.16,0.249 C -0.252,-0.56 -0.157,-0.331 0,0"
             style="fill:#000000;fill-opacity:1;fill-rule:nonzero;stroke:none"
             id="path16665" />
        </g>
        <g
           id="g16667"
           transform="translate(358.723,447.417)">
          <path
             d="m 0,0 h 1.376 0.67 C 2.228,0 2.461,0.037 2.639,-0.009 2.712,-0.027 2.757,-0.04 2.836,-0.038 2.918,-0.037 2.958,-0.033 3.005,-0.106 3.032,-0.147 3.048,-0.189 3.08,-0.229 3.137,-0.301 3.174,-0.297 3.19,-0.383 3.212,-0.504 3.262,-0.634 3.313,-0.744 3.335,-0.79 3.346,-0.836 3.366,-0.883 3.392,-0.945 3.46,-0.994 3.462,-1.069 3.309,-1.107 3.112,-1.074 2.954,-1.074 H 2.361 c -0.532,0 -1.043,0.058 -1.565,0.144 C 0.726,-0.918 0.66,-0.922 0.59,-0.921 0.518,-0.92 0.479,-0.9 0.414,-0.886 0.307,-0.863 0.176,-0.9 0.077,-0.838 c -0.087,0.055 -0.098,0.251 -0.126,0.339 -0.013,0.041 -0.05,0.089 -0.06,0.124 C -0.128,-0.306 -0.118,-0.226 0,0"
             style="fill:#000000;fill-opacity:1;fill-rule:nonzero;stroke:none"
             id="path16669" />
        </g>
        <g
           id="g16671"
           transform="translate(354.903,447.456)">
          <path
             d="M 0,0 H -0.74 C -1.087,0 -1.446,-0.025 -1.791,0.019 -1.986,0.044 -2.212,0.001 -2.402,0.047 -2.603,0.095 -2.831,0.034 -3.033,0.085 -3.103,0.103 -3.166,0.109 -3.238,0.124 -3.31,0.138 -3.399,0.186 -3.467,0.136 -3.518,0.099 -3.513,0.016 -3.535,-0.039 c -0.021,-0.055 -0.033,-0.1 -0.049,-0.153 -0.018,-0.06 -0.026,-0.11 -0.043,-0.172 -0.02,-0.073 -0.026,-0.139 -0.045,-0.212 -0.034,-0.136 -0.14,-0.252 -0.183,-0.375 0.314,-0.086 0.652,-0.047 0.977,-0.047 h 0.683 1.29 c 0.141,0 0.283,0 0.425,0 0.103,0 0.176,-0.021 0.239,0.062 0.056,0.073 0.088,0.198 0.124,0.284 C -0.065,-0.527 -0.04,-0.403 0,0"
             style="fill:#000000;fill-opacity:1;fill-rule:nonzero;stroke:none"
             id="path16673" />
        </g>
        <g
           id="g16675"
           transform="translate(359.077,445.767)">
          <path
             d="m 0,0 c 0.649,0 1.299,0 1.948,0 0.301,0 0.592,-0.038 0.893,-0.038 0.176,-0.001 0.334,-0.04 0.507,-0.039 0.091,0.001 0.293,0.038 0.371,-0.001 0.07,-0.035 0.049,-0.113 0.061,-0.173 0.009,-0.043 0.03,-0.08 0.05,-0.122 0.058,-0.12 0.085,-0.264 0.117,-0.395 0.029,-0.116 0.09,-0.219 0.106,-0.339 C 3.503,-1.211 2.89,-1.151 2.325,-1.151 H 0.663 c -0.185,0 -0.369,-0.012 -0.545,0.03 -0.071,0.017 -0.101,-0.009 -0.12,0.064 -0.013,0.052 0.001,0.139 0.002,0.194 0.001,0.125 -0.059,0.204 -0.081,0.326 -0.012,0.07 -0.01,0.123 -0.028,0.192 C -0.126,-0.283 -0.118,-0.218 0,0"
             style="fill:#000000;fill-opacity:1;fill-rule:nonzero;stroke:none"
             id="path16677" />
        </g>
        <g
           id="g16679"
           transform="translate(354.233,445.767)">
          <path
             d="m 0,0 c -0.707,0 -1.414,-0.001 -2.121,0 -0.233,0 -0.448,0.038 -0.683,0.038 -0.27,0.001 -0.541,-0.007 -0.811,0 -0.106,0.002 -0.335,0.113 -0.365,-0.017 -0.007,-0.031 0.01,-0.066 0.004,-0.098 -0.005,-0.029 -0.025,-0.05 -0.032,-0.077 -0.016,-0.057 -0.006,-0.113 -0.009,-0.173 -0.004,-0.101 -0.047,-0.205 -0.075,-0.307 -0.029,-0.105 -0.074,-0.217 -0.118,-0.318 0.06,-0.017 0.127,-0.008 0.189,-0.007 0.187,0.001 0.374,0 0.561,0 h 1.089 1.545 c 0.155,0 0.31,0.001 0.465,0 0.147,-0.001 0.197,0.004 0.234,0.153 0.022,0.088 -0.014,0.185 0.007,0.271 0.011,0.047 0.035,0.059 0.042,0.112 C -0.071,-0.374 -0.079,-0.318 0,0"
             style="fill:#000000;fill-opacity:1;fill-rule:nonzero;stroke:none"
             id="path16681" />
        </g>
        <g
           id="g16683"
           transform="translate(359.274,444.002)">
          <path
             d="m 0,0 c 1.021,0 2.042,0.002 3.063,0 0.23,-0.001 0.453,0.04 0.681,0.038 0.131,-0.001 0.262,0 0.392,0 0.078,0 0.249,0.033 0.317,0.003 0.067,-0.03 0.036,-0.216 0.056,-0.289 0.015,-0.057 0.039,-0.117 0.051,-0.174 0.013,-0.064 -0.003,-0.13 0.016,-0.193 0.04,-0.132 0.161,-0.174 0.231,-0.283 0.026,-0.042 0.04,-0.048 0.039,-0.1 -0.001,-0.077 -0.009,-0.069 -0.08,-0.077 -0.127,-0.014 -0.268,0 -0.396,0 H 2.489 C 2.2,-1.075 1.916,-1.087 1.631,-1.045 1.397,-1.009 1.16,-0.995 0.922,-0.998 0.83,-0.999 0.768,-0.969 0.68,-0.957 0.595,-0.946 0.496,-0.959 0.411,-0.959 0.354,-0.959 0.292,-0.966 0.236,-0.96 0.14,-0.949 0.175,-0.947 0.154,-0.864 0.092,-0.627 -0.074,-0.402 0,0"
             style="fill:#000000;fill-opacity:1;fill-rule:nonzero;stroke:none"
             id="path16685" />
        </g>
        <g
           id="g16687"
           transform="translate(354.312,443.964)">
          <path
             d="m 0,0 v 0.025 c 0,-0.213 0,-0.426 0,-0.639 0,-0.036 0.018,-0.124 0.003,-0.156 -0.025,-0.053 -0.069,-0.037 -0.127,-0.036 -0.208,0.004 -0.416,0 -0.624,0 -0.227,0 -0.457,0.008 -0.684,0.002 -0.147,-0.005 -0.287,-0.038 -0.434,-0.042 -0.15,-0.003 -0.301,0.002 -0.452,0.002 -0.169,0 -0.338,0 -0.508,0 -0.242,0 -0.469,0.07 -0.71,0.078 -0.166,0.005 -0.322,0.067 -0.481,0.076 -0.168,0.01 -0.322,0.04 -0.493,0.037 -0.143,-0.002 -0.271,0.04 -0.413,0.039 -0.098,-0.001 -0.287,-0.044 -0.228,0.107 0.013,0.034 0.062,0.078 0.081,0.115 0.021,0.039 0.038,0.08 0.057,0.124 0.024,0.052 0.053,0.104 0.08,0.154 0.039,0.071 0.031,0.095 0.048,0.174 0.01,0.043 0.033,0.068 0.042,0.111 0.008,0.037 -0.023,0.122 0,0.154 0.038,0.051 0.139,0.013 0.196,0.003 0.169,-0.031 0.339,-0.095 0.512,-0.101 0.226,-0.007 0.437,0.014 0.661,-0.035 0.229,-0.051 0.475,-0.06 0.709,-0.074 0.215,-0.012 0.418,0 0.63,-0.033 0.205,-0.031 0.426,-0.008 0.633,-0.008 0.501,0 1.001,0 1.502,-0.077"
             style="fill:#000000;fill-opacity:1;fill-rule:nonzero;stroke:none"
             id="path16689" />
        </g>
        <g
           id="g16691"
           transform="translate(359.471,442.237)">
          <path
             d="m 0,0 h 4.146 0.52 C 4.742,0 4.819,0.003 4.894,0.001 4.971,-0.002 5.027,-0.031 5.099,-0.04 5.208,-0.053 5.348,-0.002 5.435,-0.076 5.51,-0.139 5.463,-0.289 5.483,-0.392 5.507,-0.516 5.538,-0.649 5.602,-0.761 5.633,-0.816 5.646,-0.854 5.671,-0.915 5.692,-0.963 5.724,-0.988 5.75,-1.034 5.772,-1.074 5.862,-1.259 5.823,-1.299 5.8,-1.322 5.689,-1.308 5.657,-1.313 5.488,-1.341 5.322,-1.36 5.15,-1.334 c -0.275,0.04 -0.553,0.06 -0.827,0.106 -0.5,0.083 -0.986,0.066 -1.491,0.075 -0.2,0.003 -0.395,0.047 -0.592,0.071 -0.152,0.018 -0.308,0.007 -0.461,0.007 -0.251,10e-4 -0.503,0 -0.754,0 -0.197,0 -0.403,-0.02 -0.588,0.03 -0.14,0.039 -0.307,-0.052 -0.407,0.074 -0.057,0.071 -0.044,0.128 -0.068,0.206 -0.019,0.061 -0.042,0.078 -0.041,0.151 0.002,0.128 0,0.256 0.079,0.614"
             style="fill:#000000;fill-opacity:1;fill-rule:nonzero;stroke:none"
             id="path16693" />
        </g>
        <g
           id="g16695"
           transform="translate(353.839,442.083)">
          <path
             d="m 0,0 h -0.414 c -0.28,0 -0.576,-0.029 -0.854,0.009 -0.301,0.04 -0.601,0.053 -0.904,0.096 -0.344,0.05 -0.694,0.079 -1.041,0.106 -0.219,0.017 -0.428,0.047 -0.644,0.087 -0.092,0.017 -0.188,0.045 -0.281,0.049 -0.209,0.01 -0.415,0.033 -0.624,0.056 -0.275,0.031 -0.554,0.019 -0.831,0.019 -0.118,0 -0.367,-0.046 -0.464,0.035 -0.015,-0.106 -0.072,-0.2 -0.089,-0.303 -0.016,-0.1 -0.017,-0.211 -0.055,-0.309 -0.032,-0.081 -0.077,-0.147 -0.102,-0.227 -0.013,-0.043 -0.032,-0.109 -0.04,-0.155 -0.008,-0.048 0.016,-0.084 -0.022,-0.127 0.04,-0.044 0.115,-0.027 0.171,-0.027 0.147,0.002 0.295,0 0.443,0 0.226,0 0.453,-0.001 0.679,0.001 0.14,0 0.289,0.014 0.427,-0.006 0.106,-0.016 0.205,-0.049 0.308,-0.073 0.265,-0.062 0.536,-0.023 0.806,-0.045 0.3,-0.025 0.594,-0.03 0.896,-0.03 0.264,0 0.529,0 0.793,0 0.162,0 0.339,0.019 0.5,-0.009 0.227,-0.039 0.456,-0.03 0.687,-0.03 0.144,0 0.371,-0.036 0.519,-0.001 0.106,0.025 0.056,0.186 0.028,0.27 C -0.165,-0.445 -0.181,-0.286 0,0"
             style="fill:#000000;fill-opacity:1;fill-rule:nonzero;stroke:none"
             id="path16697" />
        </g>
        <g
           id="g16699"
           transform="translate(359.865,440.203)">
          <path
             d="m 0,0 c 0.069,0.007 0.117,-0.008 0.182,-0.028 0.143,-0.043 0.29,-0.049 0.438,-0.072 0.583,-0.091 1.166,-0.172 1.757,-0.169 0.975,0.004 1.951,0 2.927,0 h 0.525 c 0.08,0 0.245,0.033 0.318,0.003 0.068,-0.029 0.036,-0.168 0.036,-0.239 0,-0.1 -0.011,-0.204 0.009,-0.303 0.016,-0.081 0.015,-0.171 0.034,-0.249 0.021,-0.089 0.085,-0.169 0.125,-0.246 0.051,-0.096 0.028,-0.224 0.038,-0.33 C 6.396,-1.694 6.437,-1.7 6.344,-1.725 6.287,-1.74 6.218,-1.728 6.16,-1.73 6.038,-1.736 5.917,-1.756 5.794,-1.762 5.506,-1.776 5.192,-1.789 4.904,-1.762 4.75,-1.748 4.611,-1.725 4.456,-1.726 4.208,-1.727 3.956,-1.742 3.71,-1.718 3.471,-1.696 3.241,-1.688 3.001,-1.69 2.769,-1.691 2.544,-1.656 2.313,-1.648 1.977,-1.636 1.638,-1.66 1.302,-1.652 1.169,-1.648 1.046,-1.616 0.915,-1.61 0.796,-1.604 0.674,-1.612 0.554,-1.612 c -0.109,0 -0.29,-0.034 -0.393,-0.002 -0.016,0.005 -0.046,0.031 -0.052,0.032 -0.025,0.006 -0.07,-0.002 -0.087,0.011 -0.053,0.038 -0.013,0.096 0.007,0.147 0.038,0.098 0.062,0.203 0.081,0.306 0.033,0.174 0.009,0.338 -0.062,0.497 C -0.01,-0.491 -0.04,-0.411 0,0"
             style="fill:#000000;fill-opacity:1;fill-rule:nonzero;stroke:none"
             id="path16701" />
        </g>
        <g
           id="g16703"
           transform="translate(353.524,440.088)">
          <path
             d="M 0,0 H -4.402 -4.966 C -5.246,0 -5.549,-0.032 -5.827,-0.002 -5.888,0.005 -5.934,0.03 -5.993,0.04 -6.069,0.054 -6.166,0.038 -6.244,0.038 -6.349,0.039 -6.453,0.037 -6.557,0.038 -6.584,0.039 -6.653,0.053 -6.674,0.037 -6.709,0.011 -6.691,-0.034 -6.703,-0.077 -6.728,-0.164 -6.795,-0.28 -6.837,-0.36 -6.941,-0.554 -6.937,-0.808 -7.058,-0.99 -7.1,-1.052 -7.21,-1.092 -7.113,-1.168 c 0.065,-0.052 0.244,-0.032 0.322,-0.041 0.229,-0.025 0.456,-0.019 0.686,-0.019 0.755,10e-4 1.51,0 2.265,0 0.766,0 1.533,-0.003 2.3,0 0.335,0.002 0.665,-0.039 1,-0.038 0.057,0 0.13,-0.013 0.185,-0.002 0.053,0.01 0.097,0.038 0.151,0.047 0.012,0.08 0.044,0.14 0.046,0.222 0.003,0.102 0.001,0.203 0.001,0.304 0,0.187 -0.04,0.357 0.157,0.695"
             style="fill:#000000;fill-opacity:1;fill-rule:nonzero;stroke:none"
             id="path16705" />
        </g>
      </g>
    </g>
  </g>
</svg>
