<?xml version="1.0" encoding="UTF-8" standalone="no"?>
<!-- Created with Inkscape (http://www.inkscape.org/) -->

<svg
   width="25.895187"
   height="24"
   viewBox="0 0 6.851435 6.35"
   version="1.1"
   id="svg44694"
   inkscape:version="1.2.1 (9c6d41e4, 2022-07-14)"
   sodipodi:docname="the-depths-of-yoth.svg"
   xmlns:inkscape="http://www.inkscape.org/namespaces/inkscape"
   xmlns:sodipodi="http://sodipodi.sourceforge.net/DTD/sodipodi-0.dtd"
   xmlns="http://www.w3.org/2000/svg"
   xmlns:svg="http://www.w3.org/2000/svg">
  <sodipodi:namedview
     id="namedview44696"
     pagecolor="#505050"
     bordercolor="#eeeeee"
     borderopacity="1"
     inkscape:showpageshadow="0"
     inkscape:pageopacity="0"
     inkscape:pagecheckerboard="0"
     inkscape:deskcolor="#505050"
     inkscape:document-units="mm"
     showgrid="false"
     inkscape:zoom="0.7046647"
     inkscape:cx="126.3012"
     inkscape:cy="249.05462"
     inkscape:window-width="1390"
     inkscape:window-height="941"
     inkscape:window-x="0"
     inkscape:window-y="25"
     inkscape:window-maximized="0"
     inkscape:current-layer="layer1" />
  <defs
     id="defs44691">
    <clipPath
       clipPathUnits="userSpaceOnUse"
       id="clipPath30223">
      <path
         d="m 282.631,429.951 h 24.7 v 24.699 h -24.7 z"
         id="path30221" />
    </clipPath>
  </defs>
  <g
     inkscape:label="Layer 1"
     inkscape:groupmode="layer"
     id="layer1"
     transform="translate(-71.568514,-83.090814)">
    <g
       id="g30217"
       transform="matrix(0.34271503,0,0,-0.34271503,-26.100015,237.84876)">
      <g
         id="g30219"
         clip-path="url(#clipPath30223)">
        <g
           id="g30225"
           transform="translate(295.372,447.16)">
          <path
             d="M 0,0 C -0.001,0.039 -0.003,0.077 -0.008,0.114 -0.016,0.17 -0.033,0.217 -0.052,0.262 L -0.044,0.144 C -0.031,0.095 -0.017,0.047 0,0"
             style="fill:#231f20;fill-opacity:1;fill-rule:nonzero;stroke:none"
             id="path30227" />
        </g>
        <g
           id="g30229"
           transform="translate(295.981,440.925)">
          <path
             d="m 0,0 c 0.111,0.41 0.042,0.839 0.065,1.27 0.007,0.136 0.019,0.223 0.062,0.359 0.043,0.139 0.139,0.222 0.182,0.345 0.052,0.147 0.015,0.357 0.015,0.513 0,0.59 -0.14,1.121 -0.241,1.699 -0.088,0.51 -0.172,0.97 -0.412,1.441 -0.103,0.201 -0.207,0.4 -0.28,0.607 0.003,-0.133 -0.01,-0.273 -0.01,-0.403 L -0.654,6.378 C -0.672,6.448 -0.688,6.52 -0.696,6.594 -0.687,6.56 -0.674,6.528 -0.661,6.496 L -0.705,7.204 C -0.962,7.153 -1.161,6.689 -1.284,6.498 -1.415,6.296 -1.371,6.144 -1.41,5.921 -1.431,5.805 -1.45,5.669 -1.473,5.553 -1.509,5.368 -1.606,5.221 -1.651,5.038 -1.72,4.759 -1.794,4.476 -1.882,4.202 -1.95,3.989 -1.997,3.745 -2.12,3.555 -2.233,3.382 -2.25,3.299 -2.249,3.089 -2.247,2.857 -2.295,2.564 -2.253,2.334 -2.233,2.219 -2.177,2.13 -2.16,2.015 -2.146,1.919 -2.17,1.812 -2.165,1.715 -2.152,1.45 -1.971,1.223 -1.923,0.96 c 0.017,-0.092 0.005,-0.185 0.034,-0.274 0.034,-0.107 0.123,-0.189 0.148,-0.3 0.055,-0.238 -0.041,-0.497 0.026,-0.736 0.064,-0.228 0.068,-0.435 0.067,-0.681 -0.002,-0.227 0.043,-0.384 0.107,-0.597 0.139,-0.469 0.329,-0.938 0.319,-1.434 -0.018,0.165 0.109,0.27 0.173,0.399 0.078,0.154 0.12,0.347 0.173,0.512 0.141,0.441 0.292,0.806 0.533,1.207 0.086,0.143 0.252,0.266 0.307,0.427 C 0.02,-0.351 -0.046,-0.169 0,0"
             style="fill:#231f20;fill-opacity:1;fill-rule:nonzero;stroke:none"
             id="path30231" />
        </g>
        <g
           id="g30233"
           transform="translate(304.973,450.571)">
          <path
             d="M 0,0 C -0.297,0.124 -0.538,0.33 -0.87,0.367 -1.287,0.413 -1.702,0.423 -2.115,0.501 -2.377,0.55 -2.644,0.546 -2.905,0.595 -3.101,0.632 -3.289,0.7 -3.485,0.737 -3.66,0.77 -3.842,0.817 -4.019,0.831 -4.223,0.847 -4.429,0.824 -4.634,0.842 -5.096,0.881 -5.56,0.846 -6.021,0.892 -6.245,0.914 -6.468,0.902 -6.692,0.92 -6.931,0.939 -7.164,0.953 -7.404,0.95 -7.833,0.945 -8.258,0.99 -8.686,0.989 -9.122,0.988 -9.548,0.979 -9.981,0.95 c -0.377,-0.025 -0.745,-0.038 -1.122,-0.039 -0.195,0 -0.394,-0.013 -0.588,0.007 -0.227,0.023 -0.431,0.074 -0.661,0.072 -0.407,-0.003 -0.816,0.012 -1.223,-0.004 -0.176,-0.007 -0.345,-0.036 -0.519,-0.057 -0.28,-0.032 -0.561,-0.037 -0.842,-0.072 -0.213,-0.026 -0.429,-0.049 -0.643,-0.06 -0.22,-0.012 -0.443,0.015 -0.663,-0.009 -0.414,-0.046 -0.732,-0.252 -1.095,-0.419 -0.109,-0.049 -0.229,-0.075 -0.329,-0.14 -0.115,-0.074 -0.179,-0.162 -0.324,-0.177 -0.237,-0.025 -0.544,-0.03 -0.772,0.015 -0.21,0.042 -0.394,0.177 -0.609,0.18 -0.051,0.001 -0.104,0.003 -0.155,0 -0.063,-0.003 -0.105,-0.031 -0.164,-0.042 -0.087,-0.016 -0.209,0.045 -0.271,-0.035 -0.083,-0.107 0.044,-0.23 0.103,-0.314 0.173,-0.25 0.331,-0.514 0.49,-0.773 0.089,-0.146 0.128,-0.298 0.196,-0.452 0.041,-0.093 0.092,-0.167 0.112,-0.268 0.024,-0.123 0.074,-0.231 0.109,-0.351 0.04,-0.134 0.054,-0.275 0.09,-0.41 0.09,-0.336 0.268,-0.645 0.404,-0.964 0.147,-0.346 0.349,-0.669 0.505,-1.012 0.168,-0.369 0.243,-0.812 0.329,-1.206 0.157,-0.718 0.449,-1.384 0.847,-2.01 0.074,-0.117 0.151,-0.232 0.226,-0.349 0.098,-0.152 0.161,-0.319 0.252,-0.474 0.079,-0.137 0.193,-0.258 0.283,-0.39 0.1,-0.147 0.167,-0.309 0.26,-0.46 0.115,-0.185 0.23,-0.361 0.324,-0.558 0.086,-0.181 0.217,-0.324 0.332,-0.488 0.11,-0.157 0.185,-0.333 0.287,-0.495 0.131,-0.206 0.295,-0.386 0.415,-0.599 0.112,-0.201 0.214,-0.404 0.363,-0.584 0.19,-0.229 0.349,-0.457 0.491,-0.716 0.187,-0.342 0.384,-0.682 0.594,-1.012 0.081,-0.127 0.146,-0.275 0.244,-0.39 0.11,-0.128 0.218,-0.251 0.315,-0.39 0.213,-0.307 0.43,-0.641 0.589,-0.977 0.079,-0.168 0.143,-0.318 0.25,-0.472 0.086,-0.125 0.101,-0.276 0.183,-0.403 0.107,-0.168 0.228,-0.312 0.341,-0.475 0.08,-0.117 0.182,-0.218 0.261,-0.333 0.073,-0.107 0.089,-0.317 0.207,-0.38 0.013,0.089 0.021,0.172 -0.034,0.302 0.003,0.115 -0.037,0.251 -0.08,0.359 -0.114,0.293 -0.239,0.592 -0.384,0.872 -0.148,0.286 -0.261,0.59 -0.396,0.883 -0.113,0.245 -0.218,0.491 -0.318,0.74 -0.131,0.325 -0.249,0.643 -0.437,0.944 -0.196,0.313 -0.341,0.651 -0.532,0.969 -0.19,0.316 -0.418,0.621 -0.562,0.96 -0.127,0.298 -0.263,0.591 -0.404,0.883 -0.166,0.343 -0.314,0.691 -0.517,1.017 -0.098,0.158 -0.204,0.327 -0.273,0.498 -0.054,0.136 -0.076,0.275 -0.158,0.401 -0.213,0.329 -0.508,0.614 -0.654,0.98 -0.069,0.175 -0.148,0.339 -0.244,0.502 -0.115,0.196 -0.272,0.378 -0.34,0.595 -0.04,0.125 -0.063,0.239 -0.115,0.361 -0.049,0.117 -0.126,0.23 -0.162,0.351 -0.036,0.117 -0.039,0.222 -0.097,0.334 -0.086,0.168 -0.154,0.337 -0.231,0.51 -0.042,0.093 -0.106,0.175 -0.135,0.273 -0.037,0.13 -0.059,0.261 -0.112,0.388 -0.106,0.248 -0.125,0.516 -0.261,0.753 -0.048,0.084 -0.114,0.16 -0.159,0.245 -0.043,0.081 -0.035,0.118 -0.053,0.209 -0.025,0.126 -0.096,0.245 -0.127,0.372 -0.064,0.268 -0.163,0.528 -0.23,0.795 -0.031,0.125 -0.031,0.223 -0.1,0.34 -0.075,0.13 -0.091,0.204 -0.121,0.339 -0.028,0.126 -0.101,0.231 -0.122,0.359 -0.015,0.086 -0.078,0.183 -0.073,0.266 0.056,0.025 0.071,-0.026 0.119,-0.036 0.104,-0.024 0.235,-0.014 0.344,-0.03 0.107,-0.015 0.214,-0.009 0.323,-0.008 0.189,0.001 0.385,-0.018 0.573,0.008 0.158,0.022 0.3,0.027 0.462,0.029 0.227,0.002 0.433,0.056 0.656,0.081 0.422,0.048 0.842,0.094 1.265,0.126 0.256,0.019 0.503,0.031 0.759,0.028 0.234,-0.002 0.463,0.037 0.697,0.043 0.594,0.016 1.212,-0.031 1.8,-0.105 0.424,-0.054 0.85,-0.068 1.275,-0.122 0.231,-0.029 0.461,-0.068 0.694,-0.087 0.228,-0.017 0.408,-0.108 0.624,-0.163 0.157,-0.039 0.298,-0.026 0.456,-0.029 0.31,-0.006 0.589,-0.154 0.891,-0.207 0.319,-0.056 0.639,0.006 0.952,0.074 0.115,0.025 0.216,0.078 0.332,0.1 0.124,0.025 0.245,0.03 0.372,0.029 0.248,-0.002 0.495,-10e-4 0.743,0 0.202,0 0.413,-0.017 0.61,0.036 0.138,0.036 0.262,0.09 0.407,0.107 0.191,0.021 0.381,0.039 0.57,0.051 0.057,0.003 0.069,0.018 0.123,0.031 0.198,0.049 0.466,0.009 0.671,0.009 0.214,0 0.468,0.03 0.68,-0.003 -0.043,-0.123 -0.062,-0.249 -0.11,-0.369 -0.045,-0.114 -0.068,-0.212 -0.087,-0.332 -0.027,-0.168 -0.102,-0.284 -0.163,-0.44 -0.05,-0.128 -0.078,-0.264 -0.131,-0.391 -0.11,-0.261 -0.238,-0.527 -0.362,-0.78 -0.08,-0.164 -0.092,-0.336 -0.154,-0.507 -0.048,-0.133 -0.166,-0.272 -0.25,-0.388 -0.08,-0.11 -0.161,-0.183 -0.207,-0.311 -0.037,-0.103 -0.106,-0.171 -0.155,-0.271 -0.078,-0.158 -0.123,-0.346 -0.177,-0.513 -0.038,-0.119 -0.089,-0.231 -0.133,-0.348 -0.067,-0.173 -0.124,-0.356 -0.216,-0.518 -0.09,-0.156 -0.136,-0.333 -0.241,-0.48 -0.063,-0.088 -0.146,-0.156 -0.198,-0.252 -0.041,-0.075 -0.062,-0.163 -0.1,-0.24 -0.065,-0.131 -0.151,-0.254 -0.228,-0.379 -0.082,-0.132 -0.161,-0.276 -0.228,-0.415 -0.076,-0.159 -0.09,-0.333 -0.173,-0.49 -0.039,-0.073 -0.094,-0.134 -0.137,-0.205 -0.043,-0.07 -0.06,-0.15 -0.093,-0.223 -0.046,-0.102 -0.12,-0.192 -0.171,-0.292 -0.093,-0.179 -0.2,-0.345 -0.306,-0.516 -0.112,-0.182 -0.169,-0.381 -0.267,-0.569 -0.146,-0.276 -0.235,-0.585 -0.351,-0.874 -0.114,-0.285 -0.277,-0.542 -0.436,-0.804 -0.151,-0.25 -0.232,-0.54 -0.35,-0.803 -0.068,-0.153 -0.113,-0.298 -0.167,-0.453 -0.046,-0.13 -0.126,-0.257 -0.182,-0.386 -0.102,-0.232 -0.274,-0.438 -0.395,-0.662 -0.089,-0.165 -0.148,-0.343 -0.228,-0.511 -0.054,-0.115 -0.119,-0.233 -0.156,-0.354 -0.07,-0.229 -0.232,-0.426 -0.34,-0.644 -0.119,-0.241 -0.237,-0.492 -0.333,-0.742 -0.071,-0.186 -0.098,-0.386 -0.201,-0.561 -0.035,-0.059 -0.094,-0.117 -0.089,-0.191 0.021,0.052 0.056,0.078 0.084,0.12 0.072,0.111 0.118,0.233 0.198,0.342 0.065,0.088 0.163,0.155 0.219,0.247 0.058,0.095 0.084,0.203 0.147,0.297 0.13,0.195 0.27,0.366 0.421,0.548 0.067,0.081 0.106,0.193 0.214,0.234 0.043,0.017 0.082,0.013 0.123,0.038 0.104,0.065 0.19,0.225 0.266,0.318 0.101,0.123 0.203,0.245 0.309,0.364 0.154,0.172 0.305,0.333 0.449,0.517 0.178,0.225 0.317,0.463 0.482,0.694 0.154,0.213 0.322,0.403 0.446,0.635 0.123,0.23 0.281,0.438 0.449,0.64 0.185,0.222 0.322,0.445 0.475,0.685 0.144,0.224 0.285,0.422 0.367,0.676 0.131,0.405 0.275,0.806 0.4,1.213 0.123,0.401 0.163,0.858 0.378,1.228 0.249,0.429 0.555,0.826 0.764,1.277 0.07,0.153 0.136,0.31 0.182,0.471 0.068,0.234 0.085,0.481 0.172,0.711 0.073,0.194 0.169,0.382 0.247,0.574 0.096,0.237 0.182,0.473 0.324,0.688 0.111,0.168 0.147,0.363 0.225,0.545 0.094,0.22 0.242,0.408 0.322,0.636 0.258,0.742 0.704,1.404 1.024,2.12 0.054,0.12 0.116,0.233 0.163,0.356 0.05,0.129 0.13,0.241 0.181,0.367 0.033,0.081 0.018,0.139 0.026,0.222 C -0.043,-0.153 0.018,-0.07 0,0"
             style="fill:#231f20;fill-opacity:1;fill-rule:nonzero;stroke:none"
             id="path30235" />
        </g>
      </g>
    </g>
  </g>
</svg>
