<?xml version="1.0" encoding="UTF-8" standalone="no"?>
<!-- Created with Inkscape (http://www.inkscape.org/) -->

<svg
   width="20.246349"
   height="24"
   viewBox="0 0 5.3568466 6.35"
   version="1.1"
   id="svg44462"
   inkscape:version="1.2.1 (9c6d41e4, 2022-07-14)"
   sodipodi:docname="the-city-of-archives.svg"
   xmlns:inkscape="http://www.inkscape.org/namespaces/inkscape"
   xmlns:sodipodi="http://sodipodi.sourceforge.net/DTD/sodipodi-0.dtd"
   xmlns="http://www.w3.org/2000/svg"
   xmlns:svg="http://www.w3.org/2000/svg">
  <sodipodi:namedview
     id="namedview44464"
     pagecolor="#505050"
     bordercolor="#eeeeee"
     borderopacity="1"
     inkscape:showpageshadow="0"
     inkscape:pageopacity="0"
     inkscape:pagecheckerboard="0"
     inkscape:deskcolor="#505050"
     inkscape:document-units="mm"
     showgrid="false"
     inkscape:zoom="0.7046647"
     inkscape:cx="29.801408"
     inkscape:cy="257.56931"
     inkscape:window-width="1390"
     inkscape:window-height="941"
     inkscape:window-x="0"
     inkscape:window-y="25"
     inkscape:window-maximized="0"
     inkscape:current-layer="layer1" />
  <defs
     id="defs44459">
    <clipPath
       clipPathUnits="userSpaceOnUse"
       id="clipPath24981">
      <path
         d="m 49.631,430.769 h 24.7 v 24.699 h -24.7 z"
         id="path24979" />
    </clipPath>
  </defs>
  <g
     inkscape:label="Layer 1"
     inkscape:groupmode="layer"
     id="layer1"
     transform="translate(-97.115785,-80.694894)">
    <g
       id="g24975"
       transform="matrix(0.2691016,0,0,-0.2691016,83.084813,203.03172)">
      <g
         id="g24977"
         clip-path="url(#clipPath24981)">
        <g
           id="g24983"
           transform="translate(60.8941,446.891)">
          <path
             d="M 0,0 C 0.088,0.092 0.096,0.178 0.216,0.246 0.271,0.277 0.336,0.314 0.4,0.33 0.494,0.353 0.588,0.338 0.683,0.356 0.802,0.378 0.904,0.401 1.029,0.4 1.2,0.399 1.372,0.399 1.544,0.4 1.773,0.402 1.937,0.304 2.146,0.222 2.342,0.144 2.533,0.048 2.711,-0.059 c 0.113,-0.068 0.262,-0.14 0.308,-0.283 0.052,-0.162 0.083,-0.336 0.14,-0.503 0.01,-0.03 0.035,-0.059 0.044,-0.096 0.012,-0.046 -10e-4,-0.096 0.011,-0.145 0.02,-0.078 0.076,-0.175 0.089,-0.242 0.036,-0.18 0.013,-0.385 0.013,-0.571 0,-0.228 0.041,-0.472 -0.071,-0.675 C 3.17,-2.708 3.062,-2.824 2.98,-2.951 2.902,-3.07 2.782,-3.158 2.698,-3.272 2.671,-3.308 2.684,-3.358 2.656,-3.396 2.625,-3.438 2.556,-3.453 2.515,-3.485 2.393,-3.58 2.292,-3.679 2.155,-3.761 1.97,-3.872 1.793,-4.083 1.589,-4.162 1.191,-4.318 0.634,-4.231 0.214,-4.231 c -0.25,0 -0.493,-0.015 -0.731,0.07 -0.28,0.1 -0.493,0.283 -0.714,0.469 -0.164,0.138 -0.263,0.221 -0.327,0.432 -0.042,0.142 -0.043,0.265 -0.043,0.419 10e-4,0.119 -0.037,0.325 0.009,0.432 0.134,0.022 0.255,0.066 0.391,0.065 0.252,-0.002 0.409,-0.104 0.632,-0.229 0.164,-0.092 0.279,-0.225 0.455,-0.301 0.161,-0.07 0.347,-0.101 0.513,-0.143 0.153,-0.04 0.342,-0.013 0.502,-0.013 0.184,0 0.393,-0.027 0.573,0.013 0.219,0.048 0.549,0.217 0.684,0.397 0.215,0.285 0.303,0.662 0.3,1.016 -0.001,0.168 -0.001,0.337 0,0.505 0.002,0.186 -0.07,0.324 -0.184,0.471 -0.074,0.096 -0.219,0.182 -0.328,0.229 -0.128,0.055 -0.256,0.045 -0.402,0.055 -0.14,0.008 -0.253,0.059 -0.4,0.058 -0.189,-0.001 -0.335,0.029 -0.516,0.06 -0.15,0.026 -0.332,-0.003 -0.485,-0.003 -0.163,0 -0.285,0.007 -0.426,-0.057 -0.148,-0.067 -0.314,-0.107 -0.463,-0.171 -0.112,-0.048 -0.221,-0.118 -0.328,-0.166 -0.069,0.143 0.111,0.363 0.201,0.466 0.055,0.062 0.134,0.154 0.201,0.203 0.059,0.043 0.152,0.043 0.213,0.08 0.35,0.207 0.777,0.366 1.172,0.448 C 0.796,0.591 0.893,0.549 0.975,0.569 1.065,0.591 1.087,0.638 1.201,0.63 1.394,0.617 1.58,0.516 1.757,0.441 1.924,0.371 2.088,0.327 2.243,0.244 2.35,0.187 2.602,0.068 2.63,-0.057"
             style="fill:#000000;fill-opacity:1;fill-rule:nonzero;stroke:none"
             id="path24985" />
        </g>
        <g
           id="g24987"
           transform="translate(66.2209,446.949)">
          <path
             d="M 0,0 C -0.177,0.024 0.043,0.261 0.102,0.323 0.243,0.468 0.375,0.519 0.555,0.586 0.627,0.613 0.689,0.676 0.762,0.698 0.844,0.723 0.924,0.701 1.005,0.719 1.169,0.755 1.323,0.833 1.49,0.858 1.792,0.903 2.182,0.675 2.455,0.561 2.671,0.471 2.948,0.32 3.121,0.144 3.218,0.046 3.293,-0.114 3.321,-0.25 3.338,-0.332 3.305,-0.422 3.324,-0.503 3.344,-0.591 3.387,-0.609 3.398,-0.711 3.406,-0.781 3.391,-0.856 3.395,-0.926 3.401,-1.025 3.44,-1.081 3.46,-1.176 3.492,-1.327 3.473,-1.52 3.467,-1.676 3.456,-1.946 3.297,-2.215 3.137,-2.443 2.963,-2.689 2.833,-2.82 2.561,-2.975 2.279,-3.137 1.994,-3.255 1.679,-3.367 1.545,-3.415 1.399,-3.421 1.248,-3.456 c -0.173,-0.041 -0.322,-0.045 -0.486,0 -0.278,0.075 -0.61,0.047 -0.885,0.194 -0.267,0.141 -0.515,0.383 -0.574,0.696 -0.026,0.139 -0.006,0.29 0.072,0.393 0.107,0.138 0.225,0.105 0.382,0.106 0.166,0.001 0.324,-0.032 0.48,-0.078 0.052,-0.015 0.082,-0.052 0.142,-0.067 0.088,-0.022 0.189,0.018 0.279,-0.003 0.146,-0.034 0.295,-0.108 0.455,-0.069 0.058,0.014 0.11,0.055 0.167,0.075 0.078,0.026 0.17,0.034 0.249,0.071 0.261,0.123 0.621,0.176 0.779,0.483 0.047,0.092 0.042,0.115 0.047,0.23 0.004,0.099 0.046,0.157 0.065,0.249 0.039,0.181 0.002,0.352 -0.055,0.505 -0.122,0.333 -0.358,0.52 -0.63,0.709 -0.27,0.187 -0.573,0.176 -0.903,0.176 -0.185,0 -0.37,0 -0.555,0 -0.078,0 -0.165,0.012 -0.242,0.002 C -0.073,0.204 -0.165,0.123 0,0"
             style="fill:#000000;fill-opacity:1;fill-rule:nonzero;stroke:none"
             id="path24989" />
        </g>
        <g
           id="g24991"
           transform="translate(55.0923,447.675)">
          <path
             d="M 0,0 C 0.101,0.024 0.168,0.163 0.262,0.216 0.467,0.332 0.701,0.361 0.925,0.36 1.11,0.359 1.287,0.367 1.464,0.325 1.647,0.281 1.869,0.251 2.044,0.183 2.178,0.131 2.346,0.053 2.472,-0.013 2.563,-0.06 2.622,-0.179 2.7,-0.246 2.787,-0.322 2.895,-0.355 2.957,-0.468 3.006,-0.558 3.079,-0.712 3.108,-0.808 3.132,-0.889 3.118,-0.967 3.153,-1.047 3.182,-1.115 3.233,-1.151 3.254,-1.221 3.276,-1.29 3.293,-1.4 3.312,-1.477 3.326,-1.537 3.36,-1.627 3.368,-1.672 3.38,-1.739 3.366,-1.812 3.379,-1.876 3.397,-1.961 3.438,-1.993 3.449,-2.087 3.49,-2.427 3.374,-2.723 3.235,-3.008 3.115,-3.254 2.94,-3.477 2.699,-3.593 2.553,-3.663 2.434,-3.765 2.295,-3.838 2.098,-3.942 1.84,-3.926 1.632,-3.968 1.296,-4.035 0.911,-4.107 0.586,-3.941 c -0.158,0.08 -0.339,0.105 -0.506,0.178 -0.152,0.066 -0.271,0.157 -0.403,0.252 -0.278,0.2 -0.395,0.48 -0.393,0.846 0.002,0.252 -0.055,0.727 0.226,0.795 0.116,0.028 0.326,0.013 0.414,-0.091 0.024,-0.028 0.055,-0.128 0.075,-0.17 0.045,-0.091 0.081,-0.192 0.129,-0.281 0.09,-0.17 0.226,-0.269 0.389,-0.344 0.175,-0.08 0.348,-0.018 0.524,-0.069 0.16,-0.046 0.285,-0.053 0.455,-0.055 0.172,-0.003 0.294,0.071 0.456,0.126 0.14,0.047 0.322,0.098 0.419,0.233 0.095,0.132 0.082,0.234 0.098,0.397 0.02,0.2 0.107,0.359 0.062,0.576 -0.035,0.171 -0.048,0.375 -0.141,0.524 -0.093,0.149 -0.224,0.356 -0.373,0.432 -0.118,0.058 -0.234,0.105 -0.35,0.169 -0.132,0.073 -0.28,0.137 -0.4,0.233 C 1.102,-0.058 0.977,0.029 0.779,0.072 0.62,0.107 0.506,0.144 0.325,0.144 0.255,0.144 0.163,0.163 0.095,0.147 0.018,0.128 -0.042,0.045 0,0"
             style="fill:#000000;fill-opacity:1;fill-rule:nonzero;stroke:none"
             id="path24993" />
        </g>
        <g
           id="g24995"
           transform="translate(63.0666,440.145)">
          <path
             d="m 0,0 c -0.003,-0.149 0.098,-0.247 0.046,-0.402 -0.056,-0.165 -0.189,-0.192 -0.332,-0.225 -0.146,-0.034 -0.289,-0.102 -0.445,-0.048 -0.096,0.034 -0.258,0.173 -0.315,0.261 -0.142,0.217 -0.132,0.615 -0.099,0.873 0.032,0.249 0.258,0.426 0.404,0.627 0.155,0.217 0.366,0.433 0.568,0.615 C 0.036,1.888 0.214,2.147 0.472,2.273 0.711,2.389 0.914,2.537 1.101,2.73 1.191,2.823 1.316,2.875 1.426,2.931 1.551,2.995 1.695,2.973 1.814,3.02 1.852,2.954 1.913,2.986 1.972,2.968 2.036,2.949 2.118,2.91 2.176,2.873 2.311,2.785 2.4,2.719 2.473,2.572 2.532,2.453 2.578,2.341 2.644,2.231 2.72,2.106 2.791,1.991 2.852,1.856 2.968,1.599 3.086,1.344 3.216,1.086 3.291,0.937 3.337,0.787 3.387,0.629 3.442,0.457 3.439,0.291 3.503,0.114 3.559,-0.039 3.535,-0.191 3.588,-0.343 3.659,-0.548 3.698,-0.757 3.745,-0.968 3.812,-1.259 3.773,-1.59 3.773,-1.89 3.774,-1.955 3.791,-2.056 3.777,-2.118 3.765,-2.165 3.724,-2.18 3.713,-2.227 3.696,-2.303 3.724,-2.38 3.704,-2.459 3.683,-2.537 3.679,-2.612 3.662,-2.69 3.639,-2.798 3.572,-2.913 3.546,-3.027 3.509,-3.19 3.436,-3.317 3.367,-3.458 3.256,-3.685 3.119,-3.916 2.973,-4.116 2.823,-4.323 2.646,-4.58 2.413,-4.683 c -0.074,0.252 -0.031,0.666 0.033,0.91 0.02,0.076 0.01,0.146 0.011,0.225 0.002,0.12 0.042,0.217 0.06,0.334 0.016,0.099 0.045,0.2 0.059,0.301 0.01,0.073 -0.018,0.152 -0.006,0.224 0.032,0.193 0.064,0.387 0.105,0.577 0.034,0.161 0.071,0.342 0.069,0.509 -0.002,0.192 0,0.385 0,0.577 0,0.075 10e-4,0.15 0,0.226 -0.001,0.11 -0.033,0.179 -0.051,0.285 -0.015,0.083 -0.03,0.15 -0.05,0.229 -0.021,0.079 0.003,0.151 -0.01,0.229 C 2.601,0.128 2.514,0.306 2.463,0.487 2.391,0.747 2.343,1.047 2.173,1.282 2.024,1.486 1.759,1.659 1.515,1.658 1.215,1.656 1.018,1.557 0.802,1.337 0.71,1.243 0.605,1.157 0.515,1.058 0.413,0.948 0.337,0.82 0.229,0.715 0.135,0.623 0.02,0.5 -0.002,0.374 -0.009,0.335 0.009,0.293 0.002,0.255 -0.005,0.216 -0.038,0.185 -0.044,0.159 -0.063,0.074 -0.037,-0.023 -0.067,-0.105 -0.083,-0.108 -0.098,-0.111 0,0"
             style="fill:#000000;fill-opacity:1;fill-rule:nonzero;stroke:none"
             id="path24997" />
        </g>
        <g
           id="g24999"
           transform="translate(59.9221,440.316)">
          <path
             d="m 0,0 c -0.015,-0.004 -0.031,-0.007 -0.046,-0.011 -0.01,-0.121 -0.095,-0.191 -0.071,-0.332 0.018,-0.11 0.123,-0.239 0.216,-0.301 0.158,-0.107 0.605,-0.063 0.788,-0.014 0.281,0.075 0.439,0.316 0.488,0.601 C 1.421,0.211 1.383,0.534 1.186,0.729 1.034,0.88 0.827,1.017 0.653,1.143 0.44,1.298 0.22,1.437 0,1.572 -0.391,1.813 -0.716,2.161 -1.147,2.344 -1.342,2.427 -1.569,2.624 -1.803,2.575 -2.059,2.521 -2.185,2.216 -2.273,1.988 -2.38,1.711 -2.44,1.427 -2.53,1.143 -2.577,0.995 -2.638,0.837 -2.674,0.686 -2.708,0.545 -2.768,0.399 -2.797,0.257 -2.81,0.192 -2.796,0.133 -2.814,0.07 -2.834,0.001 -2.886,-0.076 -2.903,-0.159 -2.916,-0.223 -2.905,-0.282 -2.914,-0.344 -2.927,-0.427 -2.957,-0.463 -2.975,-0.541 -2.99,-0.604 -2.964,-0.68 -2.972,-0.745 -2.98,-0.812 -3.012,-0.84 -3.025,-0.896 c -0.019,-0.082 0.006,-0.167 -0.004,-0.25 -0.009,-0.074 -0.046,-0.101 -0.061,-0.166 -0.028,-0.116 0.003,-0.283 0.003,-0.403 v -0.458 c 0,-0.133 0,-0.267 0,-0.4 -10e-4,-0.151 0.022,-0.24 0.058,-0.37 0.023,-0.082 0.023,-0.105 0.056,-0.178 0.031,-0.066 0.075,-0.144 0.1,-0.208 0.054,-0.136 0.108,-0.303 0.132,-0.444 0.047,-0.284 0.118,-0.577 0.305,-0.832 0.035,-0.048 0.09,-0.091 0.122,-0.139 0.038,-0.058 0.045,-0.118 0.096,-0.173 0.095,-0.103 0.311,-0.152 0.446,-0.175 0.151,-0.025 0.295,-0.02 0.444,-0.066 0.119,-0.037 0.211,-0.157 0.288,-0.255 0.119,0.351 -0.362,0.769 -0.548,1.012 -0.061,0.079 -0.117,0.097 -0.188,0.167 -0.057,0.057 -0.119,0.167 -0.17,0.232 -0.057,0.074 -0.119,0.152 -0.172,0.227 -0.065,0.091 -0.051,0.189 -0.096,0.292 -0.03,0.068 -0.097,0.12 -0.119,0.194 -0.024,0.081 -0.037,0.188 -0.056,0.271 -0.038,0.172 -0.071,0.334 -0.114,0.502 -0.021,0.084 0.005,0.162 -0.01,0.245 -0.015,0.081 -0.052,0.13 -0.061,0.211 -0.021,0.197 0.003,0.406 10e-4,0.604 -10e-4,0.153 0.048,0.276 0.056,0.427 0.005,0.099 0.036,0.167 0.074,0.26 0.037,0.09 0.029,0.127 0.039,0.226 0.009,0.074 0.048,0.128 0.063,0.2 0.015,0.073 -0.024,0.159 -0.006,0.232 0.018,0.074 0.053,0.081 0.062,0.167 0.01,0.101 0.03,0.166 0.05,0.263 0.018,0.085 -0.006,0.168 0.017,0.253 0.025,0.093 0.072,0.195 0.103,0.289 0.041,0.129 0.101,0.361 0.198,0.456 0.105,0.104 0.241,0.088 0.373,0.109 0.084,0.014 0.142,0.057 0.229,0.062 0.083,0.004 0.174,0.002 0.258,-10e-4 C -0.845,1.479 -0.773,1.311 -0.629,1.176 -0.494,1.049 -0.37,0.998 -0.264,0.829 -0.174,0.686 -0.136,0.5 -0.085,0.343 -0.036,0.189 -0.057,-0.002 0,0"
             style="fill:#000000;fill-opacity:1;fill-rule:nonzero;stroke:none"
             id="path25001" />
        </g>
        <g
           id="g25003"
           transform="translate(67.3547,439.001)">
          <path
             d="M 0,0 C 0.104,0.013 0.175,0.06 0.286,0.057 0.405,0.054 0.488,0.095 0.6,0.116 0.825,0.158 1.028,0.251 1.234,0.343 1.727,0.563 2.286,0.881 2.596,1.344 2.758,1.584 2.879,1.9 2.973,2.174 3.007,2.273 3.059,2.36 3.102,2.456 3.168,2.605 3.19,2.764 3.243,2.914 c 0.086,0.243 0.174,0.507 0.232,0.758 0.029,0.127 0.032,0.262 0.057,0.389 0.026,0.13 -0.008,0.265 0.01,0.395 0.017,0.123 0.058,0.22 0.06,0.346 0.001,0.1 0,0.2 0,0.299 v 0.731 c 0,0.424 0.012,0.85 -0.054,1.257 C 3.53,7.202 3.485,7.255 3.488,7.375 3.49,7.495 3.47,7.551 3.443,7.661 3.395,7.858 3.344,8.041 3.259,8.236 3.192,8.39 3.119,8.539 3.043,8.69 3.004,8.767 2.975,8.835 2.931,8.913 2.845,9.068 2.758,9.222 2.672,9.376 2.569,9.561 2.469,9.719 2.344,9.891 2.248,10.024 2.122,10.121 2.017,10.245 1.891,10.395 1.778,10.585 1.603,10.677 1.399,10.784 1.264,10.831 1.042,10.876 1.026,10.879 0.937,10.914 0.915,10.92 0.889,10.928 0.826,10.942 0.8,10.949 0.717,10.97 0.639,10.974 0.543,10.977 0.44,10.98 0.349,10.983 0.433,11.087 0.489,11.156 0.634,11.15 0.715,11.149 0.974,11.146 1.224,11.165 1.477,11.106 1.715,11.05 1.936,10.959 2.145,10.827 2.627,10.525 3.181,10.212 3.477,9.707 3.565,9.555 3.622,9.373 3.716,9.218 3.822,9.043 3.931,8.878 3.986,8.679 4.049,8.457 4.177,8.292 4.246,8.076 4.314,7.863 4.393,7.644 4.448,7.43 4.527,7.128 4.561,6.819 4.618,6.519 4.65,6.354 4.648,6.179 4.676,6.012 4.702,5.852 4.688,5.683 4.688,5.52 4.688,5.134 4.716,4.768 4.572,4.403 4.504,4.228 4.478,4.038 4.415,3.858 4.357,3.692 4.33,3.522 4.277,3.359 4.252,3.28 4.199,3.221 4.179,3.14 4.147,3.017 4.133,2.875 4.117,2.749 4.078,2.459 4.059,2.164 3.986,1.88 3.92,1.621 3.858,1.425 3.732,1.191 3.569,0.891 3.349,0.626 3.158,0.342 3.042,0.172 2.925,0.113 2.755,0 2.597,-0.105 2.457,-0.239 2.287,-0.33 1.963,-0.504 1.615,-0.614 1.273,-0.745 1.023,-0.84 0.778,-0.916 0.515,-0.915 0.3,-0.914 0.056,-0.962 -0.073,-0.746 -0.193,-0.544 -0.088,-0.347 0,0"
             style="fill:#000000;fill-opacity:1;fill-rule:nonzero;stroke:none"
             id="path25005" />
        </g>
        <g
           id="g25007"
           transform="translate(56.4917,440.031)">
          <path
             d="m 0,0 c -0.177,0 -0.362,-0.031 -0.513,0.056 -0.192,0.11 -0.386,0.236 -0.575,0.36 -0.339,0.223 -0.718,0.395 -1.013,0.685 -0.127,0.125 -0.198,0.3 -0.311,0.44 -0.161,0.197 -0.269,0.415 -0.402,0.632 -0.224,0.364 -0.274,0.796 -0.399,1.199 -0.066,0.212 -0.151,0.403 -0.16,0.626 -0.005,0.135 0.008,0.27 0.002,0.405 -0.007,0.155 -0.061,0.286 -0.059,0.444 0.005,0.555 -0.036,1.12 -0.002,1.673 0.016,0.249 0.084,0.498 0.144,0.742 0.025,0.098 0.065,0.188 0.088,0.285 0.03,0.129 0.077,0.204 0.128,0.327 0.078,0.188 0.168,0.343 0.297,0.508 0.152,0.196 0.289,0.398 0.442,0.591 0.303,0.383 0.737,0.631 1.121,0.932 0.143,0.112 0.283,0.184 0.456,0.227 0.075,0.019 0.179,0.068 0.254,0.089 0.101,0.029 0.212,-0.01 0.31,0.023 -0.022,0.183 -0.444,0.104 -0.58,0.104 -0.266,0 -0.472,-0.017 -0.719,-0.107 C -1.726,10.156 -1.962,10.15 -2.181,10.048 -2.308,9.989 -2.455,9.979 -2.577,9.905 -2.679,9.844 -2.794,9.759 -2.887,9.685 -3.069,9.541 -3.239,9.353 -3.359,9.151 -3.423,9.043 -3.502,8.92 -3.546,8.808 -3.606,8.655 -3.648,8.512 -3.715,8.361 -3.813,8.137 -3.89,7.896 -3.943,7.661 -3.966,7.564 -4.015,7.471 -4.045,7.375 -4.088,7.239 -4.092,7.109 -4.128,6.976 -4.139,6.936 -4.174,6.892 -4.189,6.851 -4.232,6.736 -4.224,6.653 -4.229,6.532 -4.234,6.421 -4.277,6.338 -4.291,6.232 -4.303,6.141 -4.288,6.035 -4.288,5.943 -4.288,5.615 -4.29,5.288 -4.287,4.96 -4.285,4.777 -4.34,4.623 -4.347,4.445 -4.353,4.276 -4.345,4.104 -4.345,3.934 -4.345,3.477 -4.393,3.009 -4.231,2.575 -4.166,2.401 -4.156,2.223 -4.073,2.057 -4,1.908 -3.95,1.747 -3.875,1.6 -3.82,1.492 -3.736,1.396 -3.649,1.318 -3.577,1.253 -3.507,1.21 -3.426,1.156 c 0.085,-0.057 0.106,-0.11 0.177,-0.184 0.065,-0.068 0.162,-0.094 0.223,-0.171 0.028,-0.036 0.041,-0.084 0.067,-0.118 0.087,-0.111 0.181,-0.224 0.272,-0.34 0.183,-0.232 0.238,-0.533 0.454,-0.745 0.082,-0.08 0.235,-0.138 0.342,-0.184 0.181,-0.078 0.37,-0.156 0.562,-0.2 0.129,-0.03 0.279,-0.044 0.401,-0.084 0.084,-0.028 0.171,-0.118 0.255,-0.146 0.114,-0.039 0.232,-0.072 0.331,-0.016 0.118,0.067 0.19,0.167 0.243,0.289 0.05,0.115 0.061,0.225 0.115,0.343 C 0.075,-0.271 0.057,-0.14 0,0"
             style="fill:#000000;fill-opacity:1;fill-rule:nonzero;stroke:none"
             id="path25009" />
        </g>
        <g
           id="g25011"
           transform="translate(64.7818,449.693)">
          <path
             d="M 0,0 C -0.016,0.003 -0.032,0.007 -0.047,0.01 -0.142,0.35 0.198,0.689 0.445,0.873 0.584,0.977 0.705,1.024 0.858,1.101 0.996,1.17 1.109,1.263 1.255,1.314 1.469,1.387 1.677,1.46 1.898,1.529 2.106,1.594 2.314,1.618 2.514,1.7 2.648,1.754 2.813,1.797 2.93,1.87 3.007,1.917 3.061,2 3.146,2.047 3.224,2.09 3.267,2.118 3.33,2.173 3.467,2.291 3.483,2.408 3.545,2.573 3.591,2.698 3.651,2.842 3.661,2.973 3.672,3.13 3.63,3.235 3.602,3.372 3.574,3.512 3.552,3.649 3.488,3.773 3.386,3.97 3.289,4.165 3.13,4.331 3.096,4.367 3.06,4.434 3.032,4.461 2.958,4.531 2.966,4.489 2.855,4.514 2.808,4.524 2.735,4.556 2.689,4.572 2.61,4.599 2.542,4.62 2.477,4.675 2.547,4.688 2.589,4.734 2.657,4.748 2.733,4.763 2.838,4.744 2.916,4.745 3.068,4.747 3.215,4.676 3.36,4.617 3.503,4.558 3.595,4.391 3.69,4.602 3.749,4.733 3.764,4.922 3.945,4.919 4.147,4.916 4.13,4.723 4.06,4.597 3.974,4.442 3.907,4.341 3.95,4.15 3.964,4.088 3.998,4.018 4.015,3.945 4.033,3.87 4.072,3.789 4.101,3.718 4.171,3.546 4.281,3.352 4.289,3.174 4.302,2.855 4.314,2.522 4.132,2.258 4.106,2.221 4.056,2.176 4.036,2.138 4.018,2.105 4.016,2.059 3.997,2.028 3.948,1.946 3.867,1.921 3.815,1.831 3.726,1.675 3.618,1.5 3.489,1.371 3.243,1.126 2.837,0.978 2.514,0.87 2.436,0.844 2.366,0.827 2.291,0.788 2.177,0.727 2.043,0.715 1.939,0.659 1.906,0.641 1.828,0.564 1.801,0.538 1.704,0.446 1.66,0.394 1.544,0.317 1.326,0.171 1.183,-0.052 1.007,-0.231 0.878,-0.362 0.727,-0.402 0.543,-0.4 0.315,-0.398 0.158,-0.413 -0.031,-0.264 -0.171,-0.153 -0.234,0.063 0,0"
             style="fill:#000000;fill-opacity:1;fill-rule:nonzero;stroke:none"
             id="path25013" />
        </g>
        <g
           id="g25015"
           transform="translate(59.2804,449.693)">
          <path
             d="M 0,0 C 0.013,0.003 0.026,0.007 0.039,0.01 0.116,0.35 -0.162,0.689 -0.363,0.873 -0.477,0.977 -0.576,1.024 -0.7,1.101 -0.814,1.17 -0.905,1.263 -1.025,1.314 -1.2,1.387 -1.369,1.46 -1.55,1.529 -1.72,1.594 -1.89,1.618 -2.054,1.7 -2.163,1.754 -2.298,1.797 -2.393,1.87 -2.456,1.917 -2.5,2 -2.57,2.047 -2.634,2.09 -2.669,2.118 -2.72,2.173 c -0.111,0.118 -0.125,0.235 -0.175,0.4 -0.039,0.125 -0.087,0.269 -0.095,0.4 -0.009,0.157 0.025,0.262 0.048,0.399 0.023,0.14 0.041,0.277 0.093,0.401 0.083,0.197 0.162,0.392 0.292,0.558 0.028,0.036 0.058,0.103 0.081,0.13 0.06,0.07 0.053,0.028 0.144,0.053 0.038,0.01 0.098,0.042 0.136,0.058 0.064,0.027 0.12,0.048 0.173,0.103 C -2.08,4.688 -2.115,4.734 -2.17,4.748 -2.232,4.763 -2.318,4.744 -2.382,4.745 -2.506,4.747 -2.626,4.676 -2.745,4.617 -2.861,4.558 -2.936,4.391 -3.014,4.602 -3.062,4.733 -3.075,4.922 -3.222,4.919 -3.387,4.916 -3.373,4.723 -3.316,4.597 -3.246,4.442 -3.191,4.341 -3.226,4.15 -3.238,4.088 -3.265,4.018 -3.279,3.945 -3.294,3.87 -3.326,3.789 -3.349,3.718 -3.406,3.546 -3.497,3.352 -3.503,3.174 -3.514,2.855 -3.524,2.522 -3.375,2.258 -3.354,2.221 -3.313,2.176 -3.296,2.138 -3.282,2.105 -3.28,2.059 -3.265,2.028 -3.225,1.946 -3.159,1.921 -3.116,1.831 -3.043,1.675 -2.955,1.5 -2.85,1.371 -2.649,1.126 -2.317,0.978 -2.054,0.87 -1.99,0.844 -1.932,0.827 -1.871,0.788 c 0.093,-0.061 0.203,-0.073 0.287,-0.129 0.027,-0.018 0.091,-0.095 0.113,-0.121 0.079,-0.092 0.115,-0.144 0.21,-0.221 0.178,-0.146 0.295,-0.369 0.439,-0.548 0.105,-0.131 0.228,-0.171 0.378,-0.169 0.186,0.002 0.315,-0.013 0.469,0.136 C 0.139,-0.153 0.191,0.063 0,0"
             style="fill:#000000;fill-opacity:1;fill-rule:nonzero;stroke:none"
             id="path25017" />
        </g>
        <g
           id="g25019"
           transform="translate(63.6385,438.715)">
          <path
             d="M 0,0 C 0.101,-0.036 0.187,-0.12 0.27,-0.186 0.355,-0.253 0.46,-0.296 0.529,-0.383 0.701,-0.602 0.795,-1.032 0.802,-1.304 0.808,-1.578 0.809,-1.816 0.686,-2.058 0.574,-2.28 0.419,-2.476 0.343,-2.718 0.313,-2.812 0.265,-2.906 0.222,-2.999 0.197,-3.055 0.162,-3.116 0.141,-3.173 0.111,-3.253 0.127,-3.319 0.11,-3.397 0.097,-3.452 0.064,-3.478 0.056,-3.543 0.047,-3.607 0.057,-3.681 0.057,-3.745 c 0,-0.133 -0.005,-0.267 0,-0.4 0.004,-0.139 0.071,-0.241 0.102,-0.372 0.015,-0.064 0.016,-0.114 0.039,-0.171 0.027,-0.066 0.091,-0.129 0.118,-0.2 C 0.42,-5.162 0.603,-5.404 0.68,-5.683 0.721,-5.834 0.812,-5.955 0.802,-6.117 0.793,-6.244 0.735,-6.448 0.673,-6.562 0.537,-6.814 0.201,-7.032 -0.046,-7.141 c -0.085,0.25 0.105,0.461 0.103,0.709 -0.002,0.255 -0.001,0.483 -0.085,0.715 -0.092,0.255 -0.286,0.453 -0.429,0.686 -0.079,0.127 -0.172,0.245 -0.251,0.371 -0.085,0.136 -0.139,0.291 -0.207,0.434 -0.105,0.219 -0.098,0.671 -0.053,0.912 0.03,0.16 0.143,0.307 0.226,0.443 0.082,0.134 0.138,0.281 0.243,0.401 0.177,0.204 0.379,0.417 0.437,0.673 0.066,0.291 -0.034,0.553 -0.174,0.792 -0.117,0.2 -0.458,0.214 -0.511,0.46 -0.029,0.136 0.088,0.278 0.172,0.373 C -0.448,-0.027 -0.352,-0.003 0,0"
             style="fill:#000000;fill-opacity:1;fill-rule:nonzero;stroke:none"
             id="path25021" />
        </g>
        <g
           id="g25023"
           transform="translate(61.8089,438.43)">
          <path
             d="m 0,0 c -0.208,0.004 -0.113,-0.705 -0.086,-0.827 0.035,-0.163 0.1,-0.353 0.199,-0.491 0.07,-0.099 0.182,-0.203 0.225,-0.317 0.038,-0.101 0.056,-0.198 0.061,-0.309 0.003,-0.072 0.056,-0.14 0.056,-0.202 0,-0.069 -0.042,-0.074 -0.058,-0.138 C 0.384,-2.34 0.417,-2.406 0.403,-2.461 0.391,-2.512 0.356,-2.548 0.342,-2.6 0.328,-2.647 0.329,-2.699 0.315,-2.744 0.296,-2.808 0.256,-2.879 0.229,-2.944 0.186,-3.048 0.146,-3.145 0.1,-3.245 0.077,-3.296 0.072,-3.315 0.057,-3.373 0.044,-3.426 0.016,-3.475 0.005,-3.521 -0.048,-3.75 0,-4.052 0,-4.288 0,-4.545 0.011,-4.765 0.062,-4.998 0.08,-5.082 0.131,-5.201 0.172,-5.289 0.212,-5.376 0.211,-5.412 0.226,-5.5 0.246,-5.618 0.321,-5.708 0.34,-5.825 0.359,-5.938 0.318,-6.045 0.376,-6.143 0.423,-6.221 0.446,-6.183 0.458,-6.288 0.478,-6.446 0.445,-6.574 0.406,-6.718 0.343,-6.95 0.236,-7.272 0.008,-7.415 c -0.032,0.112 0.008,0.238 -0.006,0.354 -0.009,0.077 -0.05,0.136 -0.062,0.213 -0.014,0.087 0.012,0.171 -0.01,0.257 -0.064,0.253 -0.089,0.508 -0.249,0.733 -0.179,0.251 -0.314,0.519 -0.424,0.803 -0.133,0.348 -0.159,0.762 -0.117,1.138 0.018,0.162 0.078,0.297 0.161,0.429 0.037,0.058 0.052,0.125 0.082,0.185 0.057,0.115 0.148,0.198 0.204,0.314 0.031,0.062 0.021,0.118 0.068,0.179 0.021,0.026 0.067,0.043 0.084,0.068 0.024,0.035 0.056,0.085 0.075,0.126 0.039,0.081 0.112,0.186 0.132,0.269 0.028,0.116 -0.044,0.269 -0.087,0.375 -0.058,0.141 -0.181,0.249 -0.313,0.314 -0.114,0.055 -0.214,0.068 -0.318,0.143 -0.121,0.088 -0.214,0.154 -0.293,0.286 -0.172,0.287 -0.086,0.711 0.091,0.986 0.118,0.182 0.173,0.343 0.402,0.358 C -0.385,0.128 -0.278,0.028 0,0"
             style="fill:#000000;fill-opacity:1;fill-rule:nonzero;stroke:none"
             id="path25025" />
        </g>
        <g
           id="g25027"
           transform="translate(59.7506,438.487)">
          <path
             d="m 0,0 c -0.113,-0.11 -0.229,-0.244 -0.274,-0.4 -0.02,-0.068 -0.002,-0.133 -0.017,-0.2 -0.019,-0.089 -0.051,-0.136 -0.053,-0.229 -0.003,-0.144 -0.011,-0.269 0.056,-0.398 0.091,-0.174 0.179,-0.315 0.289,-0.472 C 0.077,-1.807 0.135,-1.91 0.215,-2.012 0.289,-2.108 0.357,-2.235 0.402,-2.342 0.45,-2.457 0.425,-2.568 0.454,-2.69 0.467,-2.745 0.504,-2.77 0.517,-2.828 0.531,-2.895 0.515,-2.99 0.515,-3.059 0.515,-3.124 0.525,-3.196 0.516,-3.26 0.507,-3.33 0.48,-3.347 0.463,-3.407 0.423,-3.547 0.4,-3.637 0.327,-3.758 0.225,-3.927 0.13,-4.093 -0.028,-4.231 -0.207,-4.387 -0.415,-4.501 -0.586,-4.674 -0.667,-4.756 -0.758,-4.818 -0.816,-4.916 -0.882,-5.026 -1,-5.197 -1.032,-5.314 c -0.019,-0.068 0.009,-0.161 0.004,-0.232 -0.005,-0.086 -0.047,-0.145 -0.061,-0.229 -0.021,-0.117 -0.016,-0.332 0.015,-0.444 0.006,-0.02 0.041,-0.038 0.048,-0.067 0.009,-0.038 -0.014,-0.083 -0.006,-0.121 0.01,-0.048 0.065,-0.124 0.089,-0.168 0.053,-0.101 0.173,-0.279 0.132,-0.394 -0.092,0.012 -0.155,0.152 -0.201,0.221 -0.088,0.131 -0.211,0.242 -0.303,0.373 -0.213,0.305 -0.38,0.628 -0.402,1.002 -0.016,0.278 -0.003,0.545 0.171,0.767 0.092,0.119 0.211,0.265 0.344,0.335 0.12,0.063 0.262,0.087 0.38,0.147 0.266,0.136 0.424,0.268 0.422,0.579 -0.001,0.129 0.019,0.276 -0.013,0.4 -0.02,0.077 -0.039,0.116 -0.044,0.201 -0.005,0.078 -0.038,0.113 -0.053,0.176 -0.015,0.064 0.008,0.131 -0.002,0.195 -0.012,0.076 -0.059,0.139 -0.095,0.206 -0.098,0.183 -0.243,0.308 -0.354,0.48 -0.17,0.265 -0.298,0.516 -0.427,0.801 -0.14,0.308 0.099,0.541 0.273,0.772 0.09,0.119 0.228,0.183 0.372,0.229 0.1,0.031 0.35,0.076 0.438,-0.015 C -0.318,-0.105 -0.331,-0.11 0,0"
             style="fill:#000000;fill-opacity:1;fill-rule:nonzero;stroke:none"
             id="path25029" />
        </g>
        <g
           id="g25031"
           transform="translate(56.0944,446.722)">
          <path
             d="m 0,0 c -0.225,0.121 -0.477,0.116 -0.664,-0.069 -0.111,-0.109 -0.181,-0.176 -0.245,-0.314 -0.066,-0.141 -0.055,-0.206 0.008,-0.368 0.039,-0.101 0.097,-0.261 0.189,-0.339 0.044,-0.038 0.1,-0.034 0.142,-0.066 0.039,-0.03 0.058,-0.089 0.099,-0.113 0.081,-0.049 0.305,-0.08 0.402,-0.087 0.132,-0.009 0.255,-0.016 0.363,0.052 0.268,0.168 0.243,0.454 -0.086,0.448 -0.136,-0.002 -0.251,-0.016 -0.363,0.051 -0.119,0.071 -0.187,0.203 -0.039,0.292 0.13,0.079 0.687,0.109 0.724,0.297 C 0.549,-0.121 0.307,0.122 0.243,0.14 0.072,0.191 -0.002,0.045 -0.139,0"
             style="fill:#000000;fill-opacity:1;fill-rule:nonzero;stroke:none"
             id="path25033" />
        </g>
        <g
           id="g25035"
           transform="translate(67.4049,446.595)">
          <path
             d="m 0,0 c -0.03,0.157 -0.269,0.196 -0.39,0.22 -0.159,0.031 -0.32,-0.01 -0.457,-0.094 -0.262,-0.16 -0.502,-0.315 -0.456,-0.704 0.017,-0.135 0.106,-0.266 0.179,-0.378 0.071,-0.108 0.161,-0.16 0.262,-0.214 0.156,-0.084 0.22,-0.128 0.407,-0.126 0.147,0.001 0.329,-0.034 0.458,0.033 0.03,0.016 0.099,0.088 0.127,0.111 0.05,0.04 0.108,0.06 0.148,0.124 0.112,0.183 0.01,0.294 -0.183,0.238 -0.184,-0.053 -0.694,-0.233 -0.748,0.104 -0.065,0.405 0.568,0.176 0.754,0.287 0.082,0.049 0.109,0.072 0.099,0.185 -0.002,0.021 -0.071,0.187 -0.083,0.2 C 0.014,0.1 -0.19,0.07 -0.325,0.072"
             style="fill:#000000;fill-opacity:1;fill-rule:nonzero;stroke:none"
             id="path25037" />
        </g>
        <g
           id="g25039"
           transform="translate(62.2593,445.908)">
          <path
             d="m 0,0 c -0.03,0.157 -0.269,0.196 -0.39,0.22 -0.159,0.031 -0.32,-0.01 -0.457,-0.094 -0.262,-0.16 -0.502,-0.315 -0.456,-0.704 0.017,-0.135 0.106,-0.266 0.179,-0.378 0.071,-0.108 0.161,-0.16 0.262,-0.214 0.156,-0.084 0.22,-0.128 0.407,-0.126 0.147,0.001 0.328,-0.034 0.458,0.033 0.03,0.016 0.099,0.088 0.127,0.111 0.05,0.04 0.108,0.06 0.148,0.124 0.112,0.183 0.01,0.294 -0.183,0.238 -0.184,-0.053 -0.694,-0.233 -0.748,0.104 -0.065,0.405 0.568,0.176 0.754,0.287 0.082,0.049 0.109,0.072 0.099,0.185 -0.002,0.021 -0.071,0.187 -0.083,0.2 C 0.014,0.1 -0.19,0.07 -0.325,0.072"
             style="fill:#000000;fill-opacity:1;fill-rule:nonzero;stroke:none"
             id="path25041" />
        </g>
        <g
           id="g25043"
           transform="translate(64.7247,446.934)">
          <path
             d="M 0,0 C 0,0.091 0.013,0.193 -0.003,0.282 -0.015,0.349 -0.047,0.411 -0.064,0.477 -0.097,0.603 -0.099,0.737 -0.137,0.861 -0.171,0.972 -0.23,1.063 -0.257,1.178 -0.284,1.29 -0.317,1.39 -0.364,1.496 -0.441,1.67 -0.526,1.834 -0.627,1.994 -0.685,2.086 -0.754,2.155 -0.822,2.23 -0.873,2.286 -0.934,2.284 -0.99,2.325 -1.037,2.36 -1.07,2.425 -1.11,2.467 -1.241,2.606 -1.429,2.71 -1.596,2.798 -1.713,2.86 -1.754,2.892 -1.822,3.002 -1.889,3.108 -1.916,3.219 -1.962,3.336 -2.051,3.563 -2.097,3.795 -2.148,4.032 -2.213,4.337 -2.351,4.637 -2.462,4.928 -2.499,5.024 -2.488,5.127 -2.487,5.23 -2.485,5.407 -2.565,5.564 -2.575,5.739 -2.583,5.879 -2.598,6.014 -2.614,6.153 -2.621,6.217 -2.654,6.272 -2.661,6.337 -2.666,6.39 -2.651,6.443 -2.662,6.496 -2.677,6.563 -2.699,6.598 -2.701,6.668 -2.704,6.727 -2.702,6.767 -2.733,6.82 -2.781,6.903 -2.995,7.001 -3.082,6.986 -3.127,6.906 -3.124,6.862 -3.129,6.775 -3.134,6.686 -3.166,6.608 -3.173,6.518 -3.189,6.312 -3.264,6.135 -3.354,5.951 -3.432,5.791 -3.497,5.633 -3.518,5.456 -3.532,5.342 -3.504,5.227 -3.526,5.111 -3.543,5.02 -3.57,4.931 -3.602,4.845 -3.666,4.674 -3.772,4.519 -3.817,4.342 -3.848,4.224 -3.889,4.097 -3.903,3.976 -3.916,3.863 -3.914,3.726 -3.944,3.62 -4.005,3.403 -4.078,3.173 -4.257,3.012 -4.334,2.943 -4.408,2.863 -4.469,2.781 -4.517,2.717 -4.533,2.66 -4.571,2.593 -4.607,2.528 -4.658,2.491 -4.706,2.435 -4.747,2.387 -4.771,2.326 -4.813,2.28 -4.861,2.227 -4.922,2.201 -4.966,2.144 -5.069,2.007 -5.176,1.858 -5.294,1.732 -5.444,1.571 -5.64,1.436 -5.757,1.246 -5.846,1.1 -5.872,0.941 -5.928,0.783 -5.961,0.691 -5.987,0.606 -6.014,0.514 -6.03,0.456 -6.07,0.383 -6.079,0.333 c -0.029,-0.14 0.054,-0.724 0.308,-0.63 0.053,0.019 0.073,0.08 0.099,0.125 0.054,0.092 0.132,0.168 0.175,0.268 0.042,0.097 0.038,0.209 0.072,0.308 0.032,0.096 0.085,0.188 0.12,0.284 0.019,0.054 0.048,0.102 0.068,0.152 0.022,0.052 0.065,0.109 0.083,0.156 0.046,0.118 0.049,0.183 0.148,0.28 0.067,0.066 0.129,0.145 0.202,0.203 0.109,0.089 0.211,0.121 0.335,0.16 0.196,0.061 0.434,0.181 0.578,0.331 0.082,0.086 0.177,0.206 0.235,0.304 0.08,0.134 0.109,0.274 0.145,0.427 0.021,0.095 0.091,0.158 0.116,0.248 0.022,0.077 0.019,0.11 0.05,0.179 0.042,0.091 0.06,0.338 0.216,0.306 0.102,-0.022 0.167,-0.172 0.171,-0.261 0.008,-0.162 0.016,-0.313 0.041,-0.473 0.044,-0.275 0.209,-0.474 0.494,-0.47 0.035,0 0.075,0.005 0.108,10e-4 0.047,-0.006 0.061,-0.028 0.095,-0.034 0.096,-0.021 0.194,0 0.292,-0.03 0.219,-0.067 0.313,-0.256 0.46,-0.411 0.073,-0.076 0.129,-0.147 0.214,-0.213 0.082,-0.064 0.178,-0.101 0.26,-0.16 0.151,-0.107 0.209,-0.261 0.255,-0.439 0.046,-0.178 0.018,-0.373 0.084,-0.548 0.067,-0.179 0.158,-0.329 0.27,-0.482 0.092,-0.124 0.167,-0.246 0.342,-0.216 C 0.124,-0.274 0.214,-0.044 0,0"
             style="fill:#000000;fill-opacity:1;fill-rule:nonzero;stroke:none"
             id="path25045" />
        </g>
      </g>
    </g>
  </g>
</svg>
