<?xml version="1.0" encoding="UTF-8" standalone="no"?>
<!-- Created with Inkscape (http://www.inkscape.org/) -->

<svg
   width="19.740871"
   height="24"
   viewBox="0 0 5.2231055 6.35"
   version="1.1"
   id="svg42656"
   inkscape:version="1.2.1 (9c6d41e4, 2022-07-14)"
   sodipodi:docname="yigs-venom.svg"
   xmlns:inkscape="http://www.inkscape.org/namespaces/inkscape"
   xmlns:sodipodi="http://sodipodi.sourceforge.net/DTD/sodipodi-0.dtd"
   xmlns="http://www.w3.org/2000/svg"
   xmlns:svg="http://www.w3.org/2000/svg">
  <sodipodi:namedview
     id="namedview42658"
     pagecolor="#505050"
     bordercolor="#eeeeee"
     borderopacity="1"
     inkscape:showpageshadow="0"
     inkscape:pageopacity="0"
     inkscape:pagecheckerboard="0"
     inkscape:deskcolor="#505050"
     inkscape:document-units="mm"
     showgrid="false"
     inkscape:zoom="0.7046647"
     inkscape:cx="17.029376"
     inkscape:cy="202.22384"
     inkscape:window-width="1390"
     inkscape:window-height="941"
     inkscape:window-x="0"
     inkscape:window-y="25"
     inkscape:window-maximized="0"
     inkscape:current-layer="layer1" />
  <defs
     id="defs42653">
    <clipPath
       clipPathUnits="userSpaceOnUse"
       id="clipPath5883">
      <path
         d="m 336.385,419.052 h 24.699 v 24.699 h -24.699 z"
         id="path5881" />
    </clipPath>
  </defs>
  <g
     inkscape:label="Layer 1"
     inkscape:groupmode="layer"
     id="layer1"
     transform="translate(-100.72481,-95.216668)">
    <g
       id="g5877"
       transform="matrix(0.31702912,0,0,-0.31702912,-7.2226507,235.15828)">
      <g
         id="g5879"
         clip-path="url(#clipPath5883)">
        <g
           id="g5885"
           transform="translate(350.37,425.017)">
          <path
             d="m 0,0 c 0.275,0.406 0.491,0.809 0.678,1.261 0.174,0.42 0.404,0.851 0.611,1.25 0.12,0.233 0.156,0.488 0.298,0.713 0.151,0.238 0.273,0.44 0.388,0.7 0.203,0.461 0.358,0.995 0.386,1.497 0.019,0.346 0.059,0.692 0.083,1.038 0.012,0.179 0.062,0.349 0.08,0.527 0.026,0.254 0.008,0.502 0.051,0.753 0.161,0.935 0.081,1.88 0.128,2.835 0.02,0.401 0.167,0.809 0.067,1.226 -0.035,0.148 -0.045,0.295 -0.081,0.444 -0.062,0.26 -0.238,0.511 -0.309,0.776 -0.092,0.343 -0.244,0.691 -0.377,1.02 -0.175,0.431 -0.54,0.737 -0.862,1.055 -0.13,0.129 -0.227,0.285 -0.343,0.414 -0.127,0.141 -0.333,0.156 -0.5,0.232 -0.12,0.053 -0.278,0.088 -0.381,0.155 -0.159,0.102 -0.292,0.284 -0.468,0.364 -0.299,0.136 -0.668,0.102 -0.99,0.102 -0.258,0 -0.663,0.079 -0.905,0.005 -0.264,-0.081 -0.323,-0.395 -0.444,-0.588 -0.055,-0.088 -0.175,-0.132 -0.24,-0.206 -0.152,-0.172 -0.089,-0.443 0.067,-0.266 -0.036,-0.118 -0.063,-0.24 -0.09,-0.362 -0.038,-0.172 -0.136,-0.473 -0.049,-0.647 0.078,-0.157 0.324,-0.285 0.441,-0.421 0.359,-0.419 0.534,-0.93 0.855,-1.378 0.312,-0.435 0.659,-0.855 0.943,-1.301 0.234,-0.367 0.553,-0.761 0.642,-1.195 C -0.26,9.702 -0.14,9.464 -0.034,9.178 0.051,8.95 0.07,8.694 0.112,8.455 0.208,7.908 0.082,7.334 0.15,6.781 0.214,6.265 0.215,5.777 0.217,5.257 0.218,4.731 0.126,4.307 0.131,3.782 0.135,3.348 0.034,2.912 -0.021,2.482 -0.04,2.335 -0.023,2.184 -0.058,2.041 -0.091,1.899 -0.188,1.786 -0.216,1.642 -0.259,1.425 -0.18,1.291 -0.296,1.092 -0.398,0.918 -0.445,0.819 -0.491,0.606 c -0.08,-0.38 -0.296,-0.686 -0.39,-1.057 -0.059,-0.233 -0.047,-0.238 -0.191,-0.424 -0.097,-0.126 -0.159,-0.271 -0.234,-0.41 -0.138,-0.257 -0.36,-0.452 -0.516,-0.706 -0.125,-0.202 -0.143,-0.477 -0.296,-0.659 0.022,0.019 0.048,0.031 0.071,0.047 0.082,0.058 0.058,0.024 0.137,0.109 0.071,0.076 0.092,0.184 0.173,0.27 0.094,0.1 0.169,0.165 0.242,0.277 0.251,0.384 0.576,0.692 0.835,1.073 0.113,0.166 0.227,0.276 0.364,0.425 C -0.169,-0.311 -0.105,-0.155 0,0"
             style="fill:#231f20;fill-opacity:1;fill-rule:nonzero;stroke:none"
             id="path5887" />
        </g>
        <g
           id="g5889"
           transform="translate(348.22,422.33)">
          <path
             d="M 0,0 C 0.012,0.011 0.021,0.025 0.032,0.037 0.02,0.027 0.009,0.016 0,0"
             style="fill:#231f20;fill-opacity:1;fill-rule:nonzero;stroke:none"
             id="path5891" />
        </g>
        <g
           id="g5893"
           transform="translate(350.522,422.979)">
          <path
             d="M 0,0 C 0.009,0.026 0.017,0.05 0.026,0.076 -0.032,0.019 -0.091,-0.035 -0.156,-0.084 -0.309,-0.197 -0.473,-0.342 -0.53,-0.535 -0.454,-0.58 -0.383,-0.597 0,0"
             style="fill:#231f20;fill-opacity:1;fill-rule:nonzero;stroke:none"
             id="path5895" />
        </g>
        <g
           id="g5897"
           transform="translate(351.099,423.63)">
          <path
             d="M 0,0 C 0.234,0.195 0.474,0.61 0.805,0.518 0.968,0.473 1.128,0.384 1.294,0.352 1.539,0.306 1.469,0.432 1.563,0.628 1.691,0.897 2.198,0.867 2.481,0.931 2.597,0.957 2.762,0.964 2.866,1.005 3.019,1.065 3.024,1.211 3.082,1.387 3.193,1.725 3.292,2.072 3.419,2.405 3.485,2.577 3.598,2.692 3.664,2.864 3.745,3.075 3.807,3.296 3.878,3.51 3.988,3.84 4.082,4.181 4.212,4.503 4.084,4.474 4.071,4.345 4.012,4.247 3.901,4.062 3.767,3.887 3.649,3.706 3.518,3.505 3.359,3.325 3.23,3.125 3.077,2.888 2.872,2.685 2.726,2.447 2.469,2.025 2.098,1.377 1.525,1.46 1.425,1.475 1.333,1.544 1.235,1.553 1.159,1.561 1.043,1.533 0.962,1.527 0.738,1.512 0.612,1.573 0.411,1.44 0.244,1.329 0.227,1.241 0.162,1.032 0.063,0.711 -0.088,0.425 -0.252,0.132 -0.383,-0.103 -0.468,-0.327 -0.551,-0.575 -0.36,-0.386 -0.201,-0.167 0,0"
             style="fill:#231f20;fill-opacity:1;fill-rule:nonzero;stroke:none"
             id="path5899" />
        </g>
        <g
           id="g5901"
           transform="translate(346.558,423.227)">
          <path
             d="m 0,0 c -0.079,0.287 -0.183,0.596 -0.245,0.889 -0.016,0.078 -0.004,0.172 -0.034,0.246 -0.06,0.152 -0.172,0.176 -0.305,0.228 -0.263,0.102 -0.597,0.066 -0.9,0.065 C -1.659,1.427 -1.765,1.423 -1.908,1.49 -2.091,1.577 -2.116,1.655 -2.23,1.806 -2.327,1.934 -2.486,2.04 -2.6,2.158 -2.698,2.259 -2.763,2.391 -2.843,2.49 -3.018,2.707 -3.293,2.617 -3.562,2.628 -3.717,2.634 -3.78,2.658 -3.9,2.764 -4.096,2.935 -4.305,3.071 -4.51,3.232 -4.847,3.496 -5.117,3.745 -5.487,3.962 -5.641,4.051 -5.894,4.31 -6.061,4.335 -6.021,4.177 -5.87,4.105 -5.771,3.988 -5.6,3.786 -5.457,3.537 -5.302,3.319 -5.129,3.076 -4.918,2.931 -4.719,2.721 -4.545,2.536 -4.442,2.312 -4.25,2.149 -4.101,2.022 -3.983,1.94 -3.825,1.846 c 0.096,-0.057 0.135,-0.17 0.264,-0.167 0.09,0.002 0.246,0.072 0.334,0.1 0.089,0.029 0.206,0.111 0.287,0.151 0.164,-0.19 0.367,-0.321 0.539,-0.502 0.146,-0.155 0.275,-0.319 0.426,-0.472 0.109,-0.109 0.304,-0.325 0.462,-0.297 0.063,0.012 0.169,0.134 0.225,0.168 0.075,0.046 0.175,0.103 0.256,0.131 0.132,0.044 0.139,0.067 0.176,-0.084 0.024,-0.1 0.005,-0.272 -0.023,-0.37 C -0.906,0.409 -1,0.318 -0.939,0.191 -0.883,0.074 -0.8,0.081 -0.69,0.036 c 0.169,-0.069 0.212,-0.178 0.346,-0.275 0.088,-0.065 0.137,-0.087 0.221,-0.173 0.135,-0.14 0.491,-0.539 0.55,-0.476 C 0.408,-0.799 0.303,-0.701 0.255,-0.63 0.131,-0.446 0.061,-0.22 0,0"
             style="fill:#231f20;fill-opacity:1;fill-rule:nonzero;stroke:none"
             id="path5903" />
        </g>
        <g
           id="g5905"
           transform="translate(345.41,430.113)">
          <path
             d="m 0,0 c -0.14,-0.464 -0.078,-0.439 -0.042,-0.381 0.002,-0.178 0.02,-0.357 0.041,-0.536 0.002,0.012 0.004,0.024 0.005,0.036 C 0.048,-0.566 0.031,-0.312 0,0"
             style="fill:#231f20;fill-opacity:1;fill-rule:nonzero;stroke:none"
             id="path5907" />
        </g>
        <g
           id="g5909"
           transform="translate(347.407,424.481)">
          <path
             d="M 0,0 C -0.105,0.296 -0.151,0.602 -0.246,0.897 -0.337,1.18 -0.531,1.421 -0.573,1.722 -0.589,1.837 -0.577,1.959 -0.62,2.07 c -0.045,0.117 -0.132,0.178 -0.19,0.28 -0.096,0.171 -0.144,0.352 -0.201,0.541 -0.062,0.204 -0.116,0.314 -0.225,0.492 -0.05,0.083 -0.137,0.218 -0.151,0.313 -0.118,0.015 -0.307,-0.005 -0.407,0.077 -0.11,0.09 -0.136,0.314 -0.148,0.443 -0.015,0.165 -0.037,0.332 -0.057,0.499 -0.048,-0.344 -0.1,-0.642 -0.066,-0.986 0.026,-0.265 0.086,-0.342 0.228,-0.572 0.101,-0.165 0.172,-0.32 0.244,-0.501 0.079,-0.2 0.224,-0.342 0.328,-0.525 0.151,-0.265 0.236,-0.583 0.329,-0.872 0.103,-0.321 0.251,-0.624 0.42,-0.911 0.21,-0.357 0.477,-0.765 0.615,-1.15 0.073,-0.205 0.131,-0.591 0.328,-0.711 0.05,0.157 -0.035,0.287 -0.089,0.427 C 0.202,-0.735 0.126,-0.356 0,0"
             style="fill:#231f20;fill-opacity:1;fill-rule:nonzero;stroke:none"
             id="path5911" />
        </g>
        <g
           id="g5913"
           transform="translate(356.97,424.009)">
          <path
             d="m 0,0 c -0.118,0.005 -0.251,-0.198 -0.339,-0.271 -0.198,-0.165 -0.438,-0.288 -0.657,-0.424 -0.452,-0.283 -0.933,-0.564 -1.417,-0.791 -0.353,-0.165 -0.604,0.184 -0.917,0.313 0.02,0.06 0.031,0.172 -0.05,0.191 -0.1,0.023 -0.079,-0.058 -0.121,-0.108 -0.082,-0.098 -0.206,-0.258 -0.276,-0.373 -0.088,-0.145 -0.052,-0.187 -0.241,-0.218 -0.237,-0.039 -0.433,-0.116 -0.661,-0.194 -0.456,-0.155 -0.927,-0.249 -1.386,-0.386 -0.133,-0.04 -0.25,-0.063 -0.383,-0.092 -0.097,-0.022 -0.188,-0.104 -0.29,-0.096 0.04,0.013 -0.162,0.074 -0.201,-0.106 0.215,-0.186 0.622,0.066 0.86,0.086 0.372,0.032 0.748,0.063 1.118,0.07 0.069,10e-4 0.116,0.028 0.2,0.015 0.09,-0.014 0.142,-0.061 0.236,-0.051 0.105,0.011 0.241,0.104 0.346,0.131 0.125,0.033 0.241,0.051 0.362,0.096 0.091,0.034 0.197,0.09 0.297,0.118 0.266,0.075 0.669,-0.119 0.928,-0.198 0.222,-0.067 0.239,-0.031 0.43,0.1 0.134,0.093 0.294,0.178 0.416,0.279 0.316,0.263 0.584,0.586 0.919,0.829 0.271,0.198 0.443,0.381 0.626,0.658 C -0.116,-0.293 0.021,-0.167 0,0"
             style="fill:#231f20;fill-opacity:1;fill-rule:nonzero;stroke:none"
             id="path5915" />
        </g>
      </g>
    </g>
    <g
       id="g42781"
       transform="matrix(0.31702912,0,0,-0.31702912,-7.2226507,235.15828)">
      <g
         id="g42779"
         clip-path="url(#clipPath5883)">
        <g
           id="g42749"
           transform="translate(350.37,425.017)">
          <path
             d="m 0,0 c 0.275,0.406 0.491,0.809 0.678,1.261 0.174,0.42 0.404,0.851 0.611,1.25 0.12,0.233 0.156,0.488 0.298,0.713 0.151,0.238 0.273,0.44 0.388,0.7 0.203,0.461 0.358,0.995 0.386,1.497 0.019,0.346 0.059,0.692 0.083,1.038 0.012,0.179 0.062,0.349 0.08,0.527 0.026,0.254 0.008,0.502 0.051,0.753 0.161,0.935 0.081,1.88 0.128,2.835 0.02,0.401 0.167,0.809 0.067,1.226 -0.035,0.148 -0.045,0.295 -0.081,0.444 -0.062,0.26 -0.238,0.511 -0.309,0.776 -0.092,0.343 -0.244,0.691 -0.377,1.02 -0.175,0.431 -0.54,0.737 -0.862,1.055 -0.13,0.129 -0.227,0.285 -0.343,0.414 -0.127,0.141 -0.333,0.156 -0.5,0.232 -0.12,0.053 -0.278,0.088 -0.381,0.155 -0.159,0.102 -0.292,0.284 -0.468,0.364 -0.299,0.136 -0.668,0.102 -0.99,0.102 -0.258,0 -0.663,0.079 -0.905,0.005 -0.264,-0.081 -0.323,-0.395 -0.444,-0.588 -0.055,-0.088 -0.175,-0.132 -0.24,-0.206 -0.152,-0.172 -0.089,-0.443 0.067,-0.266 -0.036,-0.118 -0.063,-0.24 -0.09,-0.362 -0.038,-0.172 -0.136,-0.473 -0.049,-0.647 0.078,-0.157 0.324,-0.285 0.441,-0.421 0.359,-0.419 0.534,-0.93 0.855,-1.378 0.312,-0.435 0.659,-0.855 0.943,-1.301 0.234,-0.367 0.553,-0.761 0.642,-1.195 C -0.26,9.702 -0.14,9.464 -0.034,9.178 0.051,8.95 0.07,8.694 0.112,8.455 0.208,7.908 0.082,7.334 0.15,6.781 0.214,6.265 0.215,5.777 0.217,5.257 0.218,4.731 0.126,4.307 0.131,3.782 0.135,3.348 0.034,2.912 -0.021,2.482 -0.04,2.335 -0.023,2.184 -0.058,2.041 -0.091,1.899 -0.188,1.786 -0.216,1.642 -0.259,1.425 -0.18,1.291 -0.296,1.092 -0.398,0.918 -0.445,0.819 -0.491,0.606 c -0.08,-0.38 -0.296,-0.686 -0.39,-1.057 -0.059,-0.233 -0.047,-0.238 -0.191,-0.424 -0.097,-0.126 -0.159,-0.271 -0.234,-0.41 -0.138,-0.257 -0.36,-0.452 -0.516,-0.706 -0.125,-0.202 -0.143,-0.477 -0.296,-0.659 0.022,0.019 0.048,0.031 0.071,0.047 0.082,0.058 0.058,0.024 0.137,0.109 0.071,0.076 0.092,0.184 0.173,0.27 0.094,0.1 0.169,0.165 0.242,0.277 0.251,0.384 0.576,0.692 0.835,1.073 0.113,0.166 0.227,0.276 0.364,0.425 C -0.169,-0.311 -0.105,-0.155 0,0"
             style="fill:#231f20;fill-opacity:1;fill-rule:nonzero;stroke:none"
             id="path42747" />
        </g>
        <g
           id="g42753"
           transform="translate(348.22,422.33)">
          <path
             d="M 0,0 C 0.012,0.011 0.021,0.025 0.032,0.037 0.02,0.027 0.009,0.016 0,0"
             style="fill:#231f20;fill-opacity:1;fill-rule:nonzero;stroke:none"
             id="path42751" />
        </g>
        <g
           id="g42757"
           transform="translate(350.522,422.979)">
          <path
             d="M 0,0 C 0.009,0.026 0.017,0.05 0.026,0.076 -0.032,0.019 -0.091,-0.035 -0.156,-0.084 -0.309,-0.197 -0.473,-0.342 -0.53,-0.535 -0.454,-0.58 -0.383,-0.597 0,0"
             style="fill:#231f20;fill-opacity:1;fill-rule:nonzero;stroke:none"
             id="path42755" />
        </g>
        <g
           id="g42761"
           transform="translate(351.099,423.63)">
          <path
             d="M 0,0 C 0.234,0.195 0.474,0.61 0.805,0.518 0.968,0.473 1.128,0.384 1.294,0.352 1.539,0.306 1.469,0.432 1.563,0.628 1.691,0.897 2.198,0.867 2.481,0.931 2.597,0.957 2.762,0.964 2.866,1.005 3.019,1.065 3.024,1.211 3.082,1.387 3.193,1.725 3.292,2.072 3.419,2.405 3.485,2.577 3.598,2.692 3.664,2.864 3.745,3.075 3.807,3.296 3.878,3.51 3.988,3.84 4.082,4.181 4.212,4.503 4.084,4.474 4.071,4.345 4.012,4.247 3.901,4.062 3.767,3.887 3.649,3.706 3.518,3.505 3.359,3.325 3.23,3.125 3.077,2.888 2.872,2.685 2.726,2.447 2.469,2.025 2.098,1.377 1.525,1.46 1.425,1.475 1.333,1.544 1.235,1.553 1.159,1.561 1.043,1.533 0.962,1.527 0.738,1.512 0.612,1.573 0.411,1.44 0.244,1.329 0.227,1.241 0.162,1.032 0.063,0.711 -0.088,0.425 -0.252,0.132 -0.383,-0.103 -0.468,-0.327 -0.551,-0.575 -0.36,-0.386 -0.201,-0.167 0,0"
             style="fill:#231f20;fill-opacity:1;fill-rule:nonzero;stroke:none"
             id="path42759" />
        </g>
        <g
           id="g42765"
           transform="translate(346.558,423.227)">
          <path
             d="m 0,0 c -0.079,0.287 -0.183,0.596 -0.245,0.889 -0.016,0.078 -0.004,0.172 -0.034,0.246 -0.06,0.152 -0.172,0.176 -0.305,0.228 -0.263,0.102 -0.597,0.066 -0.9,0.065 C -1.659,1.427 -1.765,1.423 -1.908,1.49 -2.091,1.577 -2.116,1.655 -2.23,1.806 -2.327,1.934 -2.486,2.04 -2.6,2.158 -2.698,2.259 -2.763,2.391 -2.843,2.49 -3.018,2.707 -3.293,2.617 -3.562,2.628 -3.717,2.634 -3.78,2.658 -3.9,2.764 -4.096,2.935 -4.305,3.071 -4.51,3.232 -4.847,3.496 -5.117,3.745 -5.487,3.962 -5.641,4.051 -5.894,4.31 -6.061,4.335 -6.021,4.177 -5.87,4.105 -5.771,3.988 -5.6,3.786 -5.457,3.537 -5.302,3.319 -5.129,3.076 -4.918,2.931 -4.719,2.721 -4.545,2.536 -4.442,2.312 -4.25,2.149 -4.101,2.022 -3.983,1.94 -3.825,1.846 c 0.096,-0.057 0.135,-0.17 0.264,-0.167 0.09,0.002 0.246,0.072 0.334,0.1 0.089,0.029 0.206,0.111 0.287,0.151 0.164,-0.19 0.367,-0.321 0.539,-0.502 0.146,-0.155 0.275,-0.319 0.426,-0.472 0.109,-0.109 0.304,-0.325 0.462,-0.297 0.063,0.012 0.169,0.134 0.225,0.168 0.075,0.046 0.175,0.103 0.256,0.131 0.132,0.044 0.139,0.067 0.176,-0.084 0.024,-0.1 0.005,-0.272 -0.023,-0.37 C -0.906,0.409 -1,0.318 -0.939,0.191 -0.883,0.074 -0.8,0.081 -0.69,0.036 c 0.169,-0.069 0.212,-0.178 0.346,-0.275 0.088,-0.065 0.137,-0.087 0.221,-0.173 0.135,-0.14 0.491,-0.539 0.55,-0.476 C 0.408,-0.799 0.303,-0.701 0.255,-0.63 0.131,-0.446 0.061,-0.22 0,0"
             style="fill:#231f20;fill-opacity:1;fill-rule:nonzero;stroke:none"
             id="path42763" />
        </g>
        <g
           id="g42769"
           transform="translate(345.41,430.113)">
          <path
             d="m 0,0 c -0.14,-0.464 -0.078,-0.439 -0.042,-0.381 0.002,-0.178 0.02,-0.357 0.041,-0.536 0.002,0.012 0.004,0.024 0.005,0.036 C 0.048,-0.566 0.031,-0.312 0,0"
             style="fill:#231f20;fill-opacity:1;fill-rule:nonzero;stroke:none"
             id="path42767" />
        </g>
        <g
           id="g42773"
           transform="translate(347.407,424.481)">
          <path
             d="M 0,0 C -0.105,0.296 -0.151,0.602 -0.246,0.897 -0.337,1.18 -0.531,1.421 -0.573,1.722 -0.589,1.837 -0.577,1.959 -0.62,2.07 c -0.045,0.117 -0.132,0.178 -0.19,0.28 -0.096,0.171 -0.144,0.352 -0.201,0.541 -0.062,0.204 -0.116,0.314 -0.225,0.492 -0.05,0.083 -0.137,0.218 -0.151,0.313 -0.118,0.015 -0.307,-0.005 -0.407,0.077 -0.11,0.09 -0.136,0.314 -0.148,0.443 -0.015,0.165 -0.037,0.332 -0.057,0.499 -0.048,-0.344 -0.1,-0.642 -0.066,-0.986 0.026,-0.265 0.086,-0.342 0.228,-0.572 0.101,-0.165 0.172,-0.32 0.244,-0.501 0.079,-0.2 0.224,-0.342 0.328,-0.525 0.151,-0.265 0.236,-0.583 0.329,-0.872 0.103,-0.321 0.251,-0.624 0.42,-0.911 0.21,-0.357 0.477,-0.765 0.615,-1.15 0.073,-0.205 0.131,-0.591 0.328,-0.711 0.05,0.157 -0.035,0.287 -0.089,0.427 C 0.202,-0.735 0.126,-0.356 0,0"
             style="fill:#231f20;fill-opacity:1;fill-rule:nonzero;stroke:none"
             id="path42771" />
        </g>
        <g
           id="g42777"
           transform="translate(356.97,424.009)">
          <path
             d="m 0,0 c -0.118,0.005 -0.251,-0.198 -0.339,-0.271 -0.198,-0.165 -0.438,-0.288 -0.657,-0.424 -0.452,-0.283 -0.933,-0.564 -1.417,-0.791 -0.353,-0.165 -0.604,0.184 -0.917,0.313 0.02,0.06 0.031,0.172 -0.05,0.191 -0.1,0.023 -0.079,-0.058 -0.121,-0.108 -0.082,-0.098 -0.206,-0.258 -0.276,-0.373 -0.088,-0.145 -0.052,-0.187 -0.241,-0.218 -0.237,-0.039 -0.433,-0.116 -0.661,-0.194 -0.456,-0.155 -0.927,-0.249 -1.386,-0.386 -0.133,-0.04 -0.25,-0.063 -0.383,-0.092 -0.097,-0.022 -0.188,-0.104 -0.29,-0.096 0.04,0.013 -0.162,0.074 -0.201,-0.106 0.215,-0.186 0.622,0.066 0.86,0.086 0.372,0.032 0.748,0.063 1.118,0.07 0.069,10e-4 0.116,0.028 0.2,0.015 0.09,-0.014 0.142,-0.061 0.236,-0.051 0.105,0.011 0.241,0.104 0.346,0.131 0.125,0.033 0.241,0.051 0.362,0.096 0.091,0.034 0.197,0.09 0.297,0.118 0.266,0.075 0.669,-0.119 0.928,-0.198 0.222,-0.067 0.239,-0.031 0.43,0.1 0.134,0.093 0.294,0.178 0.416,0.279 0.316,0.263 0.584,0.586 0.919,0.829 0.271,0.198 0.443,0.381 0.626,0.658 C -0.116,-0.293 0.021,-0.167 0,0"
             style="fill:#231f20;fill-opacity:1;fill-rule:nonzero;stroke:none"
             id="path42775" />
        </g>
      </g>
    </g>
  </g>
</svg>
