<?xml version="1.0" encoding="UTF-8" standalone="no"?>
<!-- Created with Inkscape (http://www.inkscape.org/) -->

<svg
   width="28.515007"
   height="24"
   viewBox="0 0 7.5445956 6.35"
   version="1.1"
   id="svg9427"
   inkscape:version="1.2.1 (9c6d41e4, 2022-07-14)"
   sodipodi:docname="chilling-mists.svg"
   xmlns:inkscape="http://www.inkscape.org/namespaces/inkscape"
   xmlns:sodipodi="http://sodipodi.sourceforge.net/DTD/sodipodi-0.dtd"
   xmlns="http://www.w3.org/2000/svg"
   xmlns:svg="http://www.w3.org/2000/svg">
  <sodipodi:namedview
     id="namedview9429"
     pagecolor="#505050"
     bordercolor="#eeeeee"
     borderopacity="1"
     inkscape:showpageshadow="0"
     inkscape:pageopacity="0"
     inkscape:pagecheckerboard="0"
     inkscape:deskcolor="#505050"
     inkscape:document-units="mm"
     showgrid="false"
     inkscape:zoom="0.7046647"
     inkscape:cx="-43.992554"
     inkscape:cy="117.07696"
     inkscape:window-width="1390"
     inkscape:window-height="941"
     inkscape:window-x="0"
     inkscape:window-y="25"
     inkscape:window-maximized="0"
     inkscape:current-layer="layer1" />
  <defs
     id="defs9424">
    <clipPath
       clipPathUnits="userSpaceOnUse"
       id="clipPath3285">
      <path
         d="m 159.654,556.512 h 22.76 v 22.76 h -22.76 z"
         id="path3283" />
    </clipPath>
  </defs>
  <g
     inkscape:label="Layer 1"
     inkscape:groupmode="layer"
     id="layer1"
     transform="translate(-116.75488,-117.72765)">
    <g
       id="g3279"
       transform="matrix(0.36669845,0,0,-0.36669845,57.912758,329.13222)">
      <g
         id="g3281"
         clip-path="url(#clipPath3285)">
        <g
           id="g3287"
           transform="translate(162.8639,571.6807)">
          <path
             d="M 0,0 C 0.031,0.26 0.127,0.498 0.298,0.705 0.436,0.873 0.574,1.035 0.739,1.181 0.91,1.333 1.062,1.486 1.223,1.648 1.35,1.777 1.45,1.924 1.577,2.052 1.673,2.149 1.718,2.267 1.811,2.364 2.068,2.63 2.362,2.846 2.69,3.031 2.913,3.156 3.146,3.267 3.382,3.371 3.643,3.486 3.9,3.623 4.173,3.713 4.429,3.797 4.664,3.916 4.916,4.009 5.163,4.101 5.417,4.171 5.663,4.267 6.171,4.463 6.681,4.603 7.227,4.67 7.519,4.706 7.814,4.715 8.107,4.751 8.23,4.765 8.351,4.786 8.474,4.789 8.586,4.792 8.795,4.749 8.901,4.784 8.944,4.798 8.952,4.814 8.997,4.824 9.06,4.838 9.281,4.802 9.306,4.803 c 0.076,0.002 0.15,0.018 0.226,0.013 0.497,-0.03 0.996,-0.101 1.49,-0.157 0.117,-0.013 0.234,-0.019 0.346,-0.054 0.09,-0.029 0.192,-0.027 0.279,-0.061 0.101,-0.039 0.186,-0.104 0.291,-0.14 0.14,-0.047 0.252,-0.126 0.388,-0.182 0.089,-0.036 0.177,-0.069 0.27,-0.097 0.13,-0.04 0.206,-0.103 0.32,-0.174 0.147,-0.092 0.317,-0.133 0.46,-0.233 0.157,-0.109 0.312,-0.226 0.465,-0.338 0.213,-0.156 0.288,-0.352 0.412,-0.576 0.063,-0.114 0.135,-0.228 0.203,-0.339 0.104,-0.168 0.263,-0.274 0.348,-0.457 0.081,-0.177 0.147,-0.343 0.202,-0.525 0.029,-0.095 0.023,-0.178 0.028,-0.28 0.004,-0.087 0.034,-0.164 0.064,-0.247 0.045,-0.129 0.11,-0.229 0.182,-0.347 0.157,-0.258 0.278,-0.546 0.338,-0.837 0.066,-0.317 0.196,-0.623 0.273,-0.938 0.026,-0.103 0.033,-0.207 0.047,-0.311 0.019,-0.147 0.066,-0.293 0.071,-0.441 0.004,-0.117 0.026,-0.286 -0.01,-0.4 -0.021,-0.003 -0.043,-0.006 -0.064,-0.008 -0.02,-0.059 0.011,-0.091 -0.028,-0.148 -0.068,-0.101 -0.307,-0.172 -0.425,-0.169 -0.121,0.003 -0.223,0.091 -0.292,0.183 -0.106,0.142 -0.123,0.309 -0.174,0.471 -0.078,0.249 -0.149,0.52 -0.29,0.746 C 14.45,-0.8 14.31,-0.28 14.128,0.203 13.945,0.688 13.75,1.2 13.429,1.62 13.238,1.869 13.052,2.136 12.839,2.367 12.61,2.618 12.402,2.702 12.081,2.808 11.647,2.951 11.235,3.116 10.838,3.333 10.567,3.482 10.32,3.638 10.02,3.731 9.934,3.758 9.869,3.782 9.777,3.79 9.333,3.83 8.876,3.812 8.43,3.81 7.846,3.807 7.256,3.793 6.676,3.724 6.426,3.69 6.178,3.652 5.93,3.609 5.676,3.573 5.426,3.524 5.178,3.461 4.844,3.325 4.686,3.022 4.398,2.829 4.062,2.604 3.645,2.41 3.26,2.272 3.157,2.24 3.057,2.199 2.961,2.15 2.876,2.075 2.788,2.002 2.698,1.931 2.45,1.753 2.162,1.626 1.902,1.464 1.81,1.406 1.651,1.323 1.587,1.227 1.56,1.168 1.534,1.108 1.511,1.047 1.462,0.956 1.402,0.871 1.331,0.793 1.224,0.643 1.142,0.475 1.044,0.321 0.993,0.24 0.961,0.168 0.946,0.072 0.944,-0.021 0.918,-0.111 0.87,-0.195 0.78,-0.339 0.659,-0.454 0.507,-0.54 0.398,-0.641 0.519,-0.607 0.465,-0.686 0.332,-0.879 0.11,-0.246 0.115,-0.266 0.081,-0.137 0.059,0.012 0,0"
             style="fill:#100f0d;fill-opacity:1;fill-rule:nonzero;stroke:none"
             id="path3289" />
        </g>
        <g
           id="g3291"
           transform="translate(160.6698,570.728)">
          <path
             d="m 0,0 c 0.212,-0.013 0.419,-0.083 0.632,-0.103 0.297,-0.029 0.597,0.014 0.895,-0.014 0.489,-0.045 0.99,-0.067 1.482,-0.065 0.188,0.001 0.378,0.009 0.565,0.003 0.183,-0.006 0.363,-0.036 0.545,-0.04 0.427,-0.011 0.856,0.002 1.284,0.002 0.34,-0.001 0.683,0.041 0.989,-0.136 C 6.486,-0.408 6.6,-0.443 6.627,-0.552 6.651,-0.649 6.639,-0.763 6.574,-0.843 6.517,-0.913 6.427,-0.948 6.349,-0.988 6.254,-1.035 6.112,-1.055 6.028,-1.112 6.057,-1.171 6.079,-1.223 6.126,-1.271 6.19,-1.336 6.229,-1.334 6.315,-1.34 6.603,-1.361 6.9,-1.436 7.188,-1.477 7.7,-1.549 8.2,-1.654 8.72,-1.668 c 0.625,-0.017 1.251,-0.112 1.875,-0.149 0.162,-0.01 0.313,-0.034 0.477,-0.032 0.183,0.002 0.352,-0.011 0.532,-0.033 0.359,-0.043 0.732,-0.04 1.095,-0.04 h 0.517 c 0.087,0 0.173,0 0.259,10e-4 0.14,0.001 0.429,0.046 0.533,-0.066 C 13.932,-2.007 13.84,-2.004 13.763,-2.014 13.56,-2.038 13.362,-2.074 13.162,-2.111 12.67,-2.202 12.161,-2.249 11.663,-2.294 11.404,-2.318 11.144,-2.318 10.886,-2.342 10.593,-2.369 10.301,-2.399 10.008,-2.422 9.596,-2.454 9.191,-2.456 8.778,-2.464 8.316,-2.472 7.856,-2.521 7.393,-2.499 6.765,-2.469 6.136,-2.469 5.508,-2.428 5.24,-2.41 4.873,-2.446 4.628,-2.319 4.587,-2.298 4.539,-2.263 4.511,-2.229 4.433,-2.135 4.424,-1.96 4.422,-1.844 4.418,-1.64 4.472,-1.355 4.309,-1.2 4.085,-0.985 3.731,-0.97 3.444,-0.942 3.024,-0.901 2.601,-0.858 2.18,-0.836 1.957,-0.824 1.743,-0.784 1.523,-0.748 1.305,-0.713 1.081,-0.699 0.865,-0.653 0.669,-0.611 0.465,-0.562 0.275,-0.499 0.157,-0.461 -0.529,-0.338 0,0"
             style="fill:#100f0d;fill-opacity:1;fill-rule:nonzero;stroke:none"
             id="path3293" />
        </g>
        <g
           id="g3295"
           transform="translate(169.909,566.3509)">
          <path
             d="m 0,0 c 0.076,-0.071 0.214,-0.13 0.303,-0.174 0.106,-0.052 0.201,-0.121 0.304,-0.175 0.104,-0.053 0.22,-0.063 0.331,-0.096 0.373,-0.111 0.735,-0.287 1.13,-0.311 0.367,-0.022 0.734,-0.044 1.101,-0.043 0.405,0.002 0.812,-0.015 1.216,0.009 0.375,0.022 0.739,0.09 1.11,0.141 0.382,0.054 0.758,0.13 1.143,0.161 0.386,0.031 0.772,0.066 1.158,0.099 0.371,0.032 0.741,0.024 1.113,0.026 0.167,0.001 0.334,-0.015 0.5,-0.04 0.117,-0.017 0.222,-0.068 0.339,-0.087 0.204,-0.034 0.396,-0.093 0.594,-0.156 0.115,-0.037 0.22,-0.06 0.328,-0.116 0.078,-0.041 0.157,-0.074 0.233,-0.116 0.059,-0.033 0.208,-0.099 0.227,-0.164 -0.183,-0.12 -0.529,-0.032 -0.728,-0.013 -0.183,0.019 -0.376,0.023 -0.561,0.037 -0.132,0.009 -0.266,0.003 -0.399,0.003 -1.311,0 -2.603,-0.213 -3.9,-0.379 C 5.398,-1.412 5.252,-1.401 5.108,-1.421 4.986,-1.438 4.869,-1.475 4.745,-1.485 4.241,-1.526 3.744,-1.639 3.238,-1.683 2.424,-1.755 1.511,-1.827 0.779,-1.386 0.657,-1.313 0.526,-1.251 0.402,-1.18 0.248,-1.093 0.129,-0.99 0.009,-0.862 -0.144,-0.698 -0.479,-0.449 -0.341,-0.188 -0.349,-0.186 -0.355,-0.183 0,0"
             style="fill:#100f0d;fill-opacity:1;fill-rule:nonzero;stroke:none"
             id="path3297" />
        </g>
        <g
           id="g3299"
           transform="translate(178.1706,567.8737)">
          <path
             d="M 0,0 C 0.073,-0.147 0.027,-0.294 0.003,-0.453 -0.021,-0.613 0,-0.789 0,-0.951 0,-1.005 -0.021,-1.11 -0.005,-1.161 0.028,-1.265 0.211,-1.232 0.296,-1.241 0.452,-1.258 0.6,-1.269 0.758,-1.269 c 0.069,-0.001 0.249,-0.014 0.31,0.039 0.044,0.038 0.039,0.173 0.05,0.237 0.014,0.076 0.008,0.153 0.01,0.23 C 1.13,-0.581 1.079,-0.406 1.01,-0.239 0.954,-0.104 0.898,0.016 0.743,0.065 0.608,0.108 0.391,0.072 0.25,0.073 0.132,0.074 -0.065,0.083 0,0"
             style="fill:#100f0d;fill-opacity:1;fill-rule:nonzero;stroke:none"
             id="path3301" />
        </g>
        <g
           id="g3303"
           transform="translate(178.3649,564.5743)">
          <path
             d="M 0,0 C 0,-0.08 -0.068,-0.135 -0.121,-0.191 -0.208,-0.284 -0.296,-0.377 -0.402,-0.452 -0.52,-0.535 -0.66,-0.583 -0.781,-0.663 -0.903,-0.743 -1.024,-0.824 -1.141,-0.912 -1.288,-1.023 -1.442,-1.118 -1.605,-1.207 -1.794,-1.309 -1.964,-1.433 -2.15,-1.538 -2.428,-1.695 -2.666,-1.906 -2.928,-2.084 -3.21,-2.276 -3.54,-2.423 -3.857,-2.556 -4.019,-2.624 -4.173,-2.708 -4.335,-2.775 -4.45,-2.823 -4.554,-2.897 -4.671,-2.94 -5.335,-3.181 -6.076,-3.147 -6.77,-3.219 -6.896,-3.232 -7.023,-3.217 -7.148,-3.234 -7.332,-3.259 -7.51,-3.289 -7.697,-3.297 -8.209,-3.319 -8.725,-3.3 -9.238,-3.3 c -0.262,0 -0.54,-0.033 -0.791,0.053 -0.151,0.052 -0.307,0.085 -0.455,0.138 -0.211,0.076 -0.409,0.188 -0.622,0.257 -0.08,0.027 -0.175,0.025 -0.251,0.057 -0.077,0.032 -0.116,0.105 -0.191,0.142 -0.206,0.101 -0.433,0.211 -0.621,0.344 -0.166,0.118 -0.337,0.277 -0.466,0.428 -0.121,0.144 -0.178,0.29 -0.232,0.457 -0.018,0.056 -0.064,0.104 -0.09,0.156 -0.043,0.091 -0.055,0.187 -0.116,0.272 -0.101,0.142 -0.216,0.28 -0.33,0.412 -0.058,0.067 -0.101,0.141 -0.164,0.203 -0.169,0.165 -0.255,0.373 -0.408,0.545 -0.113,0.126 -0.25,0.253 -0.289,0.412 -0.033,0.006 -0.121,0.02 -0.152,0.007 -0.054,-0.023 -0.037,-0.057 -0.036,-0.11 0.003,-0.138 0.011,-0.281 0.002,-0.418 -0.007,-0.104 -0.043,-0.194 -0.042,-0.3 0.001,-0.081 0.001,-0.161 0,-0.242 -0.002,-0.236 0.064,-0.463 0.126,-0.691 0.077,-0.284 0.302,-0.503 0.5,-0.719 0.217,-0.237 0.462,-0.449 0.679,-0.687 0.242,-0.266 0.475,-0.556 0.676,-0.85 0.193,-0.281 0.312,-0.557 0.559,-0.808 0.165,-0.153 0.338,-0.298 0.518,-0.435 0.066,-0.063 0.14,-0.116 0.222,-0.159 0.187,-0.092 0.411,-0.14 0.609,-0.213 0.256,-0.093 0.505,-0.132 0.78,-0.166 0.432,-0.052 0.862,-0.053 1.294,-0.087 0.256,-0.019 0.511,-0.068 0.768,-0.078 0.381,-0.014 0.77,0.023 1.148,0.056 0.395,0.034 0.739,0.137 1.114,0.247 0.471,0.139 0.931,0.296 1.389,0.467 0.377,0.141 0.738,0.312 1.113,0.458 0.419,0.163 0.822,0.243 1.11,0.585 0.213,0.252 0.413,0.515 0.613,0.776 0.197,0.256 0.407,0.503 0.604,0.759 0.11,0.144 0.178,0.261 0.23,0.426 0.069,0.218 0.186,0.418 0.318,0.608 0.067,0.075 0.121,0.157 0.162,0.245 0.009,0.092 0.006,0.184 -0.009,0.276 C 0.015,-0.331 0.028,-0.245 0,0"
             style="fill:#100f0d;fill-opacity:1;fill-rule:nonzero;stroke:none"
             id="path3305" />
        </g>
        <g
           id="g3307"
           transform="translate(168.6233,565.3126)">
          <path
             d="M 0,0 C -0.079,0.079 -0.149,0.13 -0.251,0.181 -0.422,0.264 -0.58,0.367 -0.747,0.453 -0.978,0.572 -1.233,0.659 -1.471,0.764 -1.555,0.801 -1.642,0.82 -1.729,0.85 -1.839,0.887 -1.935,0.947 -2.041,0.991 -2.123,1.025 -2.212,1.038 -2.296,1.068 -2.4,1.104 -2.496,1.156 -2.602,1.19 -2.782,1.248 -2.985,1.282 -3.172,1.316 -3.368,1.352 -3.577,1.353 -3.776,1.37 -4.058,1.394 -4.345,1.384 -4.626,1.351 -5.155,1.29 -5.66,1.17 -6.179,1.05 -6.389,1.002 -6.594,0.933 -6.803,0.879 -6.878,0.86 -6.984,0.831 -7.049,0.795 -7.08,0.777 -7.104,0.743 -7.139,0.724 -7.194,0.695 -7.253,0.694 -7.306,0.664 -7.408,0.608 -7.48,0.531 -7.594,0.493 -7.678,0.464 -7.766,0.459 -7.85,0.431 -7.949,0.398 -8.055,0.387 -8.153,0.356 -8.176,0.259 -8.122,0.205 -8.119,0.114 c 0.099,-0.041 0.322,0.063 0.424,0.078 0.158,0.024 0.319,0.041 0.478,0.057 0.476,0.047 0.945,0.185 1.422,0.222 0.153,0.012 0.298,0.038 0.452,0.036 0.154,-0.003 0.3,0.035 0.452,0.038 0.174,0.003 0.349,0.001 0.523,0.001 0.231,0 0.434,-0.079 0.659,-0.117 0.157,-0.026 0.308,-0.067 0.463,-0.103 0.315,-0.073 0.643,-0.078 0.959,-0.152 0.222,-0.052 0.424,-0.174 0.641,-0.244 0.285,-0.091 0.623,-0.157 0.923,-0.181 0.237,-0.019 0.455,-0.066 0.682,-0.118 0.139,-0.032 0.252,-0.119 0.388,-0.157 0.177,-0.048 0.369,-0.117 0.552,-0.126 0.028,0.036 0.033,0.313 0.003,0.354 C 0.831,-0.2 0.57,-0.175 0.464,-0.145 0.352,-0.113 0.237,-0.093 0.124,-0.065 0.047,-0.046 -0.023,0.014 -0.094,0.031 -0.192,0.055 -0.205,0.046 0,0"
             style="fill:#100f0d;fill-opacity:1;fill-rule:nonzero;stroke:none"
             id="path3309" />
        </g>
      </g>
    </g>
  </g>
</svg>
