<?xml version="1.0" encoding="UTF-8" standalone="no"?>
<!-- Created with Inkscape (http://www.inkscape.org/) -->

<svg
   width="24.149185"
   height="24.000002"
   viewBox="0 0 6.3894719 6.3500005"
   version="1.1"
   id="svg9323"
   inkscape:version="1.2.1 (9c6d41e4, 2022-07-14)"
   sodipodi:docname="city-of-the-damned.svg"
   xmlns:inkscape="http://www.inkscape.org/namespaces/inkscape"
   xmlns:sodipodi="http://sodipodi.sourceforge.net/DTD/sodipodi-0.dtd"
   xmlns="http://www.w3.org/2000/svg"
   xmlns:svg="http://www.w3.org/2000/svg">
  <sodipodi:namedview
     id="namedview9325"
     pagecolor="#505050"
     bordercolor="#eeeeee"
     borderopacity="1"
     inkscape:showpageshadow="0"
     inkscape:pageopacity="0"
     inkscape:pagecheckerboard="0"
     inkscape:deskcolor="#505050"
     inkscape:document-units="mm"
     showgrid="false"
     inkscape:zoom="0.7046647"
     inkscape:cx="-19.867605"
     inkscape:cy="44.702111"
     inkscape:window-width="1390"
     inkscape:window-height="941"
     inkscape:window-x="0"
     inkscape:window-y="25"
     inkscape:window-maximized="0"
     inkscape:current-layer="layer1" />
  <defs
     id="defs9320">
    <clipPath
       clipPathUnits="userSpaceOnUse"
       id="clipPath2829">
      <path
         d="m 159.654,584.962 h 22.76 v 22.76 h -22.76 z"
         id="path2827" />
    </clipPath>
  </defs>
  <g
     inkscape:label="Layer 1"
     inkscape:groupmode="layer"
     id="layer1"
     transform="translate(-110.57391,-136.87684)">
    <g
       id="g2823"
       transform="matrix(0.36382345,0,0,-0.36382345,51.542542,357.01509)">
      <g
         id="g2825"
         clip-path="url(#clipPath2829)">
        <g
           id="g2831"
           transform="translate(178.3498,601.3593)">
          <path
             d="m 0,0 c 0,-0.17 0,-0.339 0,-0.509 0,-0.087 0.007,-0.176 0.002,-0.263 -0.004,-0.074 -0.035,-0.138 -0.041,-0.21 -0.006,-0.08 0.001,-0.164 0.002,-0.245 0.001,-0.125 0.003,-0.121 -0.14,-0.138 -0.312,-0.038 -0.636,-0.008 -0.95,0.217 0,0.291 -0.002,0.581 0,0.871 0.002,0.367 -0.085,0.738 -0.111,1.102 -0.014,0.192 -0.098,0.406 0.008,0.58 0.127,0.207 0.365,0.226 0.59,0.226 0.123,10e-4 0.279,0.029 0.386,-0.026 C -0.096,1.522 -0.051,1.333 -0.019,1.173 0.018,0.985 0.041,0.823 0.038,0.63 0.037,0.515 0.008,0.411 -0.002,0.298 -0.01,0.201 0,0.098 0,0 m -0.109,-5.508 c -0.029,-0.072 -0.197,-0.036 -0.257,-0.026 -0.125,0.022 -0.238,0.03 -0.366,0.03 -0.104,-0.001 -0.186,0.005 -0.283,0.029 -0.043,0.01 -0.134,-0.014 -0.167,0.009 -0.052,0.038 -0.017,0.201 -0.023,0.269 -0.014,0.162 -0.035,0.309 -0.034,0.473 0,0.203 0,0.406 0.187,0.609 0.159,0 0.33,0.02 0.488,0.002 0.079,-0.009 0.143,-0.038 0.224,-0.039 0.065,-10e-4 0.151,0.022 0.201,-0.027 0.051,-0.051 0.026,-0.159 0.026,-0.226 0.001,-0.128 -0.03,-0.239 -0.039,-0.364 -0.011,-0.143 0.002,-0.291 0.001,-0.434 -0.001,-0.069 0.002,-0.126 0.019,-0.192 0.009,-0.031 0.036,-0.081 0.023,-0.113 m -2.105,4.389 c -0.022,-0.078 0.002,-0.047 -0.078,-0.067 -0.013,-0.004 -1.006,-0.033 -1.126,0.226 0,0.235 0.02,0.477 0.002,0.711 -0.006,0.084 -0.038,0.161 -0.041,0.246 -0.003,0.095 0.012,0.189 -0.007,0.283 -0.026,0.133 -0.028,0.257 -0.03,0.393 -10e-4,0.153 0.053,0.311 0.099,0.457 0.046,0.143 0.107,0.294 0.204,0.411 0.081,0.099 0.163,0.091 0.283,0.09 0.109,0 0.248,0.024 0.354,-0.007 0.262,-0.076 0.24,-0.463 0.261,-0.668 0.014,-0.138 0.039,-0.262 0.04,-0.402 0,-0.17 0,-0.34 0,-0.51 0,-0.25 -0.009,-0.501 0.008,-0.751 0.006,-0.088 0.06,-0.309 0.031,-0.412 m -0.63,-4.235 c -0.112,0 -0.225,-0.005 -0.336,-0.001 -0.089,0.003 -0.086,0.001 -0.088,0.092 -0.002,0.081 -0.006,0.166 -0.001,0.248 0.005,0.089 0.038,0.17 0.04,0.26 0.005,0.188 -10e-4,0.377 -10e-4,0.565 l 0.15,0.113 h 0.358 c 0.096,0 0.224,0.022 0.315,-0.006 0.039,-0.19 0.003,-0.42 0.003,-0.613 0,-0.123 -0.014,-0.254 -10e-4,-0.375 0.008,-0.076 0.027,-0.214 0.063,-0.279 -0.153,-0.034 -0.345,-0.004 -0.502,-0.004 M -6.28,-6.162 c -0.014,-0.07 -0.019,-0.131 -0.028,-0.2 -0.018,-0.157 -0.037,-0.299 -0.039,-0.457 -0.002,-0.099 0.031,-0.187 0.04,-0.287 -0.04,0.053 -0.195,0.024 -0.257,0.024 -0.109,0 -0.188,0.009 -0.29,0.034 -0.051,0.012 -0.117,-0.005 -0.164,0.03 -0.057,0.044 -0.032,0.036 -0.046,0.104 -0.013,0.061 -0.036,0.094 -0.036,0.162 10e-4,0.019 0.005,0.046 0.004,0.069 l -0.078,0.052 c 0.065,0.018 0.078,-0.013 0.078,-0.052 l 0.035,-0.023 c 0,0.144 0.003,0.276 0.029,0.415 0.019,0.098 -0.005,0.2 0.008,0.299 0.017,0.127 0.091,0.109 0.189,0.083 0.051,-0.014 0.097,-0.005 0.15,-0.008 0.058,-0.003 0.094,-0.03 0.15,-0.04 0.075,-0.013 0.231,0.044 0.265,-0.031 0.015,-0.033 -0.005,-0.144 -0.01,-0.174 m -0.783,1.936 c 0.03,0.093 0.185,0.076 0.265,0.074 l 0.038,0.112 h 0.208 c 0.043,0 0.134,0.02 0.17,0.003 0.071,-0.032 0.035,-0.265 0.035,-0.342 0,-0.162 -0.013,-0.327 0.019,-0.487 0.017,-0.088 0.005,-0.179 0.027,-0.264 0.017,-0.067 0.044,-0.11 0.023,-0.183 -0.092,0.019 -0.154,0.034 -0.256,0.034 -0.1,-0.001 -0.201,0.001 -0.301,0 -0.168,-0.002 -0.176,0.133 -0.19,0.283 -0.017,0.185 0.006,0.361 -0.027,0.544 -0.011,0.055 -0.029,0.171 -0.011,0.226 M -7.59,-6.235 c -0.006,-0.024 -0.03,-0.03 -0.036,-0.056 -0.013,-0.053 0.001,-0.134 0.002,-0.19 10e-4,-0.071 -0.019,-0.105 -0.038,-0.166 -0.027,-0.087 -0.029,-0.181 -0.036,-0.271 -0.007,-0.083 -0.05,-0.154 -0.039,-0.239 -0.211,0.149 -0.212,0.113 -0.23,0.078 -0.132,-0.011 -0.265,-0.007 -0.396,0.006 -0.032,0.003 -0.192,0.011 -0.242,0.027 -0.085,0.027 -0.06,0.077 -0.079,0.152 -0.009,0.036 -0.026,0.061 -0.03,0.1 -0.007,0.057 0.003,0.115 -0.008,0.173 -0.014,0.081 -0.036,0.107 -0.021,0.189 0.007,0.042 0.027,0.077 0.031,0.121 0.006,0.072 0.018,0.119 0.033,0.187 0.015,0.071 -0.007,0.185 0.038,0.249 0.062,0.086 0.439,0.033 0.545,0.033 0.069,-0.001 0.183,0.018 0.252,10e-4 0.032,-0.007 0.056,-0.029 0.088,-0.036 0.059,-0.013 0.11,0.017 0.152,-0.039 0.037,-0.048 0.017,-0.139 0.017,-0.198 10e-4,-0.04 0.006,-0.083 -0.003,-0.121 m -0.86,1.774 c 0,0.065 -0.029,0.203 0.017,0.251 0.054,0.055 0.224,0.02 0.299,0.02 h 0.172 l 0.225,0.038 c 0,-0.061 -0.008,-0.129 -0.001,-0.189 0.008,-0.068 0.036,-0.117 0.04,-0.188 0.003,-0.074 -10e-4,-0.15 -0.002,-0.223 -10e-4,-0.089 0.032,-0.156 0.04,-0.241 0.005,-0.062 -0.002,-0.13 -0.002,-0.192 0.001,-0.075 0.021,-0.115 -0.054,-0.134 -0.095,-0.023 -0.216,0.039 -0.315,0.041 -0.064,10e-4 -0.129,-0.001 -0.193,-0.001 -0.042,0 -0.189,-0.026 -0.222,0.005 -0.027,0.027 -10e-4,0.146 -0.004,0.183 -0.004,0.067 -0.035,0.12 -0.039,0.187 -0.004,0.074 0.012,0.12 0.03,0.187 0.021,0.081 0.009,0.172 0.009,0.256 m -3.569,0.167 c -0.018,-0.002 -0.192,-0.033 -0.23,-0.011 -0.043,0.025 -0.031,0.032 -0.033,0.082 -0.008,0.148 10e-4,0.3 10e-4,0.448 0,0.246 -0.016,0.498 -10e-4,0.743 0.009,0.148 0.067,0.338 0.188,0.434 0.039,0.031 0.121,0.085 0.17,0.096 0.061,0.015 0.137,-0.025 0.201,-0.032 0.071,-0.008 0.143,0.007 0.212,-0.005 0.219,-0.038 0.375,-0.245 0.433,-0.438 0.132,-0.446 0.149,-0.899 0.149,-1.363 -0.465,0.075 -0.776,0.076 -1.09,0.046 M 1.428,-7.667 c -0.007,0.107 -0.027,0.212 -0.035,0.319 -0.014,0.19 0.004,0.381 -0.001,0.571 -0.009,0.281 -0.042,0.558 -0.041,0.839 0.003,0.823 0.001,1.645 0.001,2.467 0,0.366 0.021,0.739 0,1.105 -0.009,0.166 -0.15,0.242 -0.254,0.365 -0.07,0.081 -0.083,0.174 -0.085,0.284 -0.008,0.34 0.001,0.682 0.001,1.023 v 1.505 c 0,0.428 0.004,0.857 0,1.285 C 1.013,2.214 1.025,2.201 1.09,2.277 1.143,2.338 1.173,2.55 1.157,2.636 1.13,2.779 1.127,2.911 1.127,3.06 c 0,0.043 0.002,0.087 0,0.13 C 1.125,3.248 1.103,3.286 1.092,3.34 1.073,3.442 1.116,3.509 1.001,3.556 0.918,3.59 0.812,3.605 0.724,3.622 0.598,3.646 0.397,3.705 0.265,3.693 0.252,3.634 0.267,3.57 0.265,3.509 0.26,3.386 0.199,3.393 0.088,3.376 -0.126,3.345 -0.278,3.47 -0.305,3.691 -0.438,3.704 -0.584,3.708 -0.716,3.699 -0.813,3.692 -0.802,3.669 -0.878,3.656 -0.962,3.641 -1.086,3.74 -1.167,3.7 -1.242,3.662 -1.204,3.471 -1.202,3.391 -1.199,3.285 -1.187,3.249 -1.313,3.225 -1.485,3.191 -1.618,3.262 -1.686,3.417 -1.693,3.435 -1.715,3.466 -1.719,3.48 -1.723,3.495 -1.722,3.571 -1.731,3.579 -1.758,3.604 -2.07,3.584 -2.011,3.584 -2.161,3.584 -2.326,3.607 -2.473,3.579 -2.488,3.518 -2.513,3.46 -2.518,3.397 -2.52,3.365 -2.499,3.311 -2.513,3.28 -2.538,3.231 -2.66,3.221 -2.703,3.215 -2.74,3.21 -2.866,3.183 -2.902,3.205 -2.927,3.22 -2.919,3.229 -2.937,3.25 -2.997,3.319 -3.048,3.463 -3.08,3.545 -3.124,3.661 -3.222,3.65 -3.343,3.657 -3.42,3.661 -3.547,3.687 -3.603,3.638 -3.632,3.611 -3.64,3.539 -3.643,3.503 -3.652,3.393 -3.67,3.288 -3.682,3.179 -3.79,3.128 -3.917,3.133 -4.033,3.132 -4.153,3.132 -4.176,3.134 -4.258,3.22 -4.323,3.284 -4.381,3.354 -4.43,3.431 -4.449,3.466 -4.463,3.503 -4.471,3.543 -4.505,3.577 -4.709,3.608 -4.762,3.58 -4.834,3.542 -4.814,3.453 -4.834,3.378 -4.859,3.29 -4.883,3.228 -4.883,3.136 -4.882,2.926 -4.919,2.716 -4.92,2.503 -4.921,2.301 -4.928,2.112 -4.732,2.005 -4.669,1.971 -4.585,1.963 -4.542,1.9 -4.465,1.786 -4.488,1.553 -4.477,1.415 -4.448,1.048 -4.469,0.674 -4.469,0.306 v -0.998 c 0,-0.287 -0.004,-0.575 0,-0.862 0.001,-0.063 0.001,-0.1 -0.027,-0.157 -0.039,-0.082 -0.102,-0.084 -0.155,-0.146 -0.055,-0.064 -0.079,-0.188 -0.11,-0.268 -0.038,-0.096 -0.048,-0.194 -0.065,-0.296 -0.016,-0.095 -0.023,-0.209 -0.064,-0.297 -0.053,-0.116 -0.147,-0.145 -0.267,-0.18 -0.172,-0.05 -0.338,-0.009 -0.482,0.074 -0.192,0.11 -0.324,0.203 -0.489,0.363 -0.294,0.285 -0.532,0.552 -0.705,0.928 -0.192,0.417 -0.273,0.849 -0.397,1.285 -0.065,0.23 -0.139,0.459 -0.209,0.688 -0.018,0.059 -0.047,0.111 -0.063,0.172 -0.03,0.109 -0.02,0.242 -0.075,0.342 -0.047,-0.091 -0.053,-0.213 -0.08,-0.312 -0.108,-0.41 -0.228,-0.816 -0.398,-1.207 -0.168,-0.386 -0.362,-0.787 -0.588,-1.143 -0.253,-0.397 -0.526,-0.82 -0.853,-1.159 -0.009,0.013 -0.003,0.023 0.016,0.029 -0.026,0.002 -0.052,0.002 -0.078,-10e-4 0.028,-0.002 0.056,0 0.084,0.009 -0.009,0.04 -0.138,0.056 -0.179,0.076 -0.08,0.037 -0.154,0.092 -0.222,0.147 -0.237,0.193 -0.419,0.389 -0.561,0.658 -0.12,0.228 -0.267,0.433 -0.374,0.67 -0.124,0.274 -0.239,0.551 -0.354,0.829 -0.104,0.249 -0.233,0.457 -0.369,0.688 -0.114,0.195 -0.142,0.386 -0.213,0.593 -0.163,-0.535 -0.4,-1.046 -0.578,-1.576 -0.114,-0.337 -0.253,-0.664 -0.373,-0.998 -0.106,-0.295 -0.182,-0.593 -0.348,-0.862 -0.095,-0.154 -0.192,-0.228 -0.367,-0.26 -0.131,-0.024 -0.268,-0.029 -0.401,-0.041 -0.065,-0.005 -0.155,-0.03 -0.22,-0.021 -0.119,0.017 -0.166,0.198 -0.197,0.29 -0.144,0.434 -0.107,0.936 -0.116,1.386 -0.009,0.486 -0.067,0.966 -0.081,1.451 -0.013,0.427 -0.094,0.904 -0.003,1.319 0.047,0.216 0.045,0.435 0.045,0.658 0,0.195 0.009,0.388 -0.019,0.581 -0.015,0.107 0.005,0.191 -0.075,0.266 -0.082,0.075 -0.154,0.07 -0.259,0.074 -0.166,0.006 -0.328,0.011 -0.493,0.027 -0.168,0.017 -0.372,0.037 -0.54,0.008 -0.013,-0.154 -0.039,-0.305 -0.043,-0.46 -0.006,-0.212 0.018,-0.426 -0.006,-0.638 -0.019,-0.169 -0.055,-0.34 -0.023,-0.512 0.015,-0.078 0.052,-0.149 0.078,-0.222 0.076,-0.217 0.075,-0.428 0.059,-0.656 -0.021,-0.302 -0.044,-0.603 -0.058,-0.906 -0.02,-0.44 -0.064,-0.879 -0.084,-1.318 -0.008,-0.184 0.004,-0.368 0,-0.552 -0.003,-0.167 -0.035,-0.329 -0.041,-0.496 -0.004,-0.102 0.02,-0.218 -0.006,-0.317 -0.045,-0.169 -0.106,-0.368 -0.142,-0.553 -0.063,-0.325 -0.059,-0.675 -0.06,-1.003 -10e-4,-0.656 0.059,-1.308 0.089,-1.963 0.016,-0.349 0.043,-0.7 0.048,-1.049 -0.002,-0.161 -0.003,-0.322 -0.003,-0.483 -0.016,-0.057 -0.008,-0.106 0.022,-0.148 -0.066,-0.014 -0.015,-0.496 -0.03,-0.594 -0.036,-0.226 0.008,-0.396 0.054,-0.623 0.046,-0.228 0.076,-0.432 0.196,-0.631 0.094,-0.146 0.203,-0.279 0.327,-0.4 0.275,-0.187 0.565,-0.349 0.87,-0.484 0.33,-0.192 0.571,-0.427 0.85,-0.675 0.417,-0.371 0.841,-0.738 1.301,-1.055 0.452,-0.322 0.932,-0.592 1.441,-0.811 0.305,-0.109 0.618,-0.177 0.939,-0.206 0.726,-0.098 1.49,-0.157 2.223,-0.099 0.921,0.074 1.83,0.36 2.731,0.55 0.37,0.079 0.741,0.153 1.113,0.222 0.328,0.042 0.646,0.12 0.956,0.234 0.672,0.254 1.336,0.652 1.92,1.064 0.169,0.093 0.307,0.219 0.415,0.379 0.108,0.204 0.219,0.406 0.333,0.606 0.23,0.411 0.423,0.84 0.647,1.254 0.11,0.215 0.234,0.421 0.373,0.619 0.138,0.181 0.275,0.362 0.412,0.544 0.144,0.23 0.188,0.515 0.335,0.454 -0.046,0.04 -0.033,0.074 -0.037,0.128"
             style="fill:#100f0d;fill-opacity:1;fill-rule:nonzero;stroke:none"
             id="path2833" />
        </g>
      </g>
    </g>
  </g>
</svg>
