<?xml version="1.0" encoding="UTF-8" standalone="no"?>
<!-- Created with Inkscape (http://www.inkscape.org/) -->

<svg
   width="41.047577"
   height="24"
   viewBox="0 0 10.860504 6.35"
   version="1.1"
   id="svg8867"
   inkscape:version="1.2.1 (9c6d41e4, 2022-07-14)"
   sodipodi:docname="hexcraft.svg"
   xmlns:inkscape="http://www.inkscape.org/namespaces/inkscape"
   xmlns:sodipodi="http://sodipodi.sourceforge.net/DTD/sodipodi-0.dtd"
   xmlns="http://www.w3.org/2000/svg"
   xmlns:svg="http://www.w3.org/2000/svg">
  <sodipodi:namedview
     id="namedview8869"
     pagecolor="#505050"
     bordercolor="#eeeeee"
     borderopacity="1"
     inkscape:showpageshadow="0"
     inkscape:pageopacity="0"
     inkscape:pagecheckerboard="0"
     inkscape:deskcolor="#505050"
     inkscape:document-units="mm"
     showgrid="false"
     inkscape:zoom="0.7046647"
     inkscape:cx="52.507242"
     inkscape:cy="287.37072"
     inkscape:window-width="1390"
     inkscape:window-height="941"
     inkscape:window-x="0"
     inkscape:window-y="25"
     inkscape:window-maximized="0"
     inkscape:current-layer="layer1" />
  <defs
     id="defs8864">
    <clipPath
       clipPathUnits="userSpaceOnUse"
       id="clipPath2265">
      <path
         d="m 159.654,699.011 h 22.76 v 22.76 h -22.76 z"
         id="path2263" />
    </clipPath>
  </defs>
  <g
     inkscape:label="Layer 1"
     inkscape:groupmode="layer"
     id="layer1"
     transform="translate(-91.066588,-72.670763)">
    <g
       id="g2259"
       transform="matrix(0.59296472,0,0,-0.59296472,-4.8834056,497.08449)">
      <g
         id="g2261"
         clip-path="url(#clipPath2265)">
        <g
           id="g2267"
           transform="translate(179.9776,715.6107)">
          <path
             d="M 0,0 C -0.052,-0.013 -0.103,-0.017 -0.154,-0.034 -0.296,-0.08 -0.432,-0.145 -0.572,-0.195 -0.904,-0.312 -1.242,-0.445 -1.539,-0.63 -1.678,-0.716 -1.82,-0.797 -1.961,-0.881 -2.03,-0.922 -2.1,-0.963 -2.156,-1.02 -2.262,-1.13 -2.376,-1.229 -2.457,-1.359 -2.509,-1.442 -2.551,-1.522 -2.616,-1.598 -2.688,-1.682 -2.756,-1.768 -2.83,-1.851 -2.911,-1.94 -2.987,-2.034 -3.068,-2.123 -3.109,-2.168 -3.153,-2.209 -3.197,-2.251 -3.248,-2.3 -3.29,-2.354 -3.337,-2.406 c -0.065,-0.074 -0.134,-0.147 -0.2,-0.221 -0.054,-0.06 -0.096,-0.125 -0.144,-0.189 -0.056,-0.075 -0.094,-0.159 -0.138,-0.242 -0.058,-0.108 -0.112,-0.218 -0.166,-0.328 -0.078,-0.159 -0.142,-0.317 -0.182,-0.489 -0.054,-0.234 -0.094,-0.469 -0.134,-0.705 -0.016,-0.098 -0.032,-0.19 -0.038,-0.29 -0.008,-0.137 -0.018,-0.273 -0.024,-0.41 -0.006,-0.165 -0.008,-0.331 -0.031,-0.494 -0.004,-0.031 0.004,-0.057 0.004,-0.087 0,-0.086 -0.027,-0.176 -0.035,-0.262 -0.012,-0.132 0.008,-0.261 0.025,-0.392 0.023,-0.174 0.075,-0.347 0.128,-0.515 0.046,-0.15 0.141,-0.279 0.206,-0.421 0.067,-0.144 0.13,-0.285 0.207,-0.424 0.151,-0.27 0.255,-0.558 0.437,-0.813 0.123,-0.172 0.277,-0.328 0.442,-0.464 0.154,-0.127 0.326,-0.224 0.498,-0.326 0.108,-0.065 0.222,-0.123 0.333,-0.185 0.104,-0.059 0.204,-0.125 0.308,-0.185 0.126,-0.073 0.264,-0.118 0.398,-0.175 0.182,-0.077 0.368,-0.142 0.551,-0.215 0.137,-0.054 0.263,-0.129 0.4,-0.181 0.046,-0.017 0.094,-0.029 0.139,-0.048 0.018,-0.008 0.035,-0.018 0.055,-0.019 -0.07,0.088 -0.093,0.203 -0.152,0.298 -0.072,0.116 -0.172,0.214 -0.253,0.325 -0.072,0.098 -0.134,0.203 -0.208,0.301 -0.12,0.157 -0.238,0.307 -0.338,0.478 -0.102,0.174 -0.196,0.355 -0.284,0.537 -0.061,0.127 -0.116,0.256 -0.172,0.384 -0.044,0.1 -0.096,0.195 -0.144,0.293 -0.071,0.144 -0.143,0.29 -0.211,0.436 -0.018,0.037 -0.033,0.075 -0.047,0.114 -0.019,0.036 -0.039,0.071 -0.061,0.106 -0.061,0.118 -0.082,0.256 -0.13,0.38 -0.131,0.337 -0.198,0.694 -0.206,1.054 -0.003,0.139 0.02,0.278 0.029,0.417 0.008,0.122 0.027,0.243 0.042,0.364 0.013,0.103 0.034,0.208 0.031,0.312 -0.005,0.163 0.022,0.325 0.038,0.487 0.011,0.168 0.03,0.335 0.056,0.501 0.026,0.146 0.062,0.29 0.107,0.432 0.027,0.097 0.059,0.192 0.097,0.285 0.032,0.065 0.063,0.13 0.094,0.196 0.032,0.077 0.052,0.158 0.091,0.233 0.078,0.152 0.193,0.277 0.294,0.414 0.056,0.077 0.106,0.157 0.149,0.242 0.052,0.089 0.109,0.175 0.17,0.258 0.055,0.082 0.104,0.161 0.152,0.246 0.194,0.348 0.502,0.624 0.776,0.912 0.091,0.096 0.154,0.21 0.24,0.309 0.059,0.068 0.117,0.136 0.168,0.21 0.015,0.021 0.038,0.07 0.066,0.079 0.024,0.008 0.035,0 0.056,0.021"
             style="fill:#231f20;fill-opacity:1;fill-rule:nonzero;stroke:none"
             id="path2269" />
        </g>
        <g
           id="g2271"
           transform="translate(161.969,705.1778)">
          <path
             d="M 0,0 C 0.052,0.012 0.104,0.016 0.156,0.033 0.3,0.079 0.437,0.142 0.579,0.192 0.914,0.307 1.256,0.438 1.558,0.622 1.699,0.708 1.843,0.788 1.985,0.871 2.054,0.912 2.126,0.953 2.182,1.01 2.29,1.119 2.406,1.217 2.488,1.347 2.541,1.431 2.585,1.51 2.651,1.585 2.724,1.669 2.793,1.755 2.868,1.838 2.95,1.927 3.028,2.02 3.11,2.109 3.152,2.154 3.197,2.195 3.241,2.237 3.292,2.285 3.336,2.339 3.383,2.391 3.45,2.465 3.52,2.538 3.587,2.611 3.642,2.671 3.685,2.736 3.733,2.8 3.79,2.875 3.829,2.959 3.874,3.041 3.933,3.15 3.988,3.26 4.044,3.37 4.124,3.529 4.19,3.686 4.231,3.859 4.287,4.092 4.329,4.327 4.37,4.564 4.387,4.662 4.404,4.754 4.41,4.854 4.419,4.991 4.43,5.128 4.437,5.266 4.445,5.43 4.448,5.596 4.472,5.76 4.476,5.791 4.468,5.816 4.469,5.847 4.469,5.933 4.497,6.023 4.506,6.109 4.518,6.242 4.499,6.371 4.482,6.503 4.46,6.677 4.409,6.851 4.357,7.019 4.311,7.17 4.216,7.3 4.151,7.442 4.085,7.587 4.022,7.729 3.945,7.868 3.795,8.14 3.691,8.429 3.509,8.685 3.387,8.859 3.232,9.016 3.067,9.154 2.912,9.282 2.738,9.379 2.566,9.483 2.457,9.549 2.342,9.607 2.231,9.67 2.126,9.73 2.026,9.797 1.922,9.857 1.794,9.931 1.655,9.977 1.52,10.035 1.337,10.113 1.15,10.18 0.965,10.253 c -0.137,0.055 -0.264,0.131 -0.402,0.184 -0.046,0.018 -0.095,0.03 -0.14,0.049 -0.018,0.008 -0.034,0.018 -0.055,0.02 0.07,-0.089 0.093,-0.204 0.151,-0.3 C 0.591,10.089 0.691,9.99 0.773,9.879 0.845,9.78 0.907,9.675 0.981,9.576 1.1,9.418 1.219,9.267 1.319,9.096 1.421,8.92 1.515,8.738 1.602,8.556 1.662,8.428 1.717,8.298 1.774,8.169 1.817,8.069 1.868,7.974 1.916,7.875 1.987,7.73 2.059,7.584 2.127,7.437 2.144,7.4 2.16,7.362 2.174,7.323 2.193,7.287 2.213,7.251 2.235,7.216 2.295,7.097 2.316,6.959 2.363,6.835 2.494,6.496 2.559,6.138 2.565,5.777 2.567,5.637 2.543,5.498 2.533,5.359 2.524,5.237 2.504,5.116 2.488,4.995 2.474,4.892 2.452,4.787 2.454,4.683 2.458,4.519 2.43,4.357 2.413,4.194 2.4,4.027 2.38,3.86 2.354,3.693 2.326,3.547 2.288,3.402 2.243,3.26 2.215,3.164 2.182,3.068 2.143,2.975 2.11,2.91 2.078,2.845 2.046,2.78 2.014,2.702 1.993,2.622 1.953,2.547 1.874,2.395 1.756,2.271 1.654,2.134 1.597,2.057 1.546,1.977 1.502,1.893 1.449,1.804 1.391,1.718 1.329,1.634 1.272,1.553 1.222,1.474 1.174,1.388 0.975,1.041 0.663,0.766 0.385,0.48 0.293,0.385 0.228,0.271 0.14,0.171 0.08,0.103 0.022,0.036 -0.031,-0.038 c -0.015,-0.021 -0.038,-0.07 -0.066,-0.079 -0.025,-0.008 -0.036,0 -0.058,-0.021"
             style="fill:#231f20;fill-opacity:1;fill-rule:nonzero;stroke:none"
             id="path2273" />
        </g>
        <g
           id="g2275"
           transform="translate(174.5612,710.5723)">
          <path
             d="m 0,0 c -0.014,-0.056 -0.029,-0.111 -0.045,-0.164 -0.046,-0.154 -0.09,-0.305 -0.13,-0.461 -0.022,-0.087 -0.039,-0.18 -0.064,-0.265 -0.024,-0.084 -0.065,-0.169 -0.098,-0.249 -0.015,-0.036 -0.029,-0.072 -0.042,-0.108 -0.358,-0.597 -0.937,-1.059 -1.623,-1.318 -0.603,-0.228 -1.324,-0.464 -1.975,-0.376 -0.065,0.009 -0.128,0.022 -0.19,0.037 -0.085,-0.013 -0.17,-0.023 -0.256,-0.029 -0.655,-0.044 -1.317,0.134 -1.858,0.508 -0.682,0.471 -1.007,1.146 -1.145,1.883 -0.003,0.065 -10e-4,0.13 0,0.194 0,0.067 -0.013,0.131 -0.016,0.197 -0.004,0.123 -0.008,0.255 0,0.378 0.003,0.039 0.015,0.074 0.016,0.114 0,0.05 0,0.095 0.006,0.145 0.017,0.123 0.013,0.25 0.022,0.374 0.01,0.122 0.058,0.24 0.108,0.35 0.063,0.138 0.147,0.263 0.187,0.411 0.036,0.132 0.056,0.271 0.072,0.407 0.017,0.147 0.015,0.297 0.023,0.445 0.004,0.068 0.001,0.136 0.017,0.202 0.013,0.053 0.04,0.119 0.079,0.158 0.082,0.082 0.169,0.16 0.27,0.22 0.076,0.045 0.141,0.096 0.21,0.151 0.047,0.038 0.099,0.067 0.143,0.109 0.042,0.04 0.081,0.083 0.122,0.124 0.036,0.036 0.078,0.067 0.112,0.105 0.003,0.004 0.006,0.007 0.009,0.011 0.188,0.095 0.382,0.178 0.57,0.25 0.206,0.078 0.415,0.15 0.626,0.214 0.133,0.033 0.267,0.062 0.401,0.09 0.085,0.018 0.169,0.042 0.253,0.064 0.026,0.006 0.052,0.013 0.078,0.019 0.184,0.031 0.368,0.05 0.555,0.065 0.036,0.003 0.071,0.01 0.106,0.022 0.035,0.014 0.072,0.026 0.11,0.024 C -3.312,4.3 -3.276,4.296 -3.241,4.292 -3.223,4.288 -3.205,4.284 -3.187,4.279 -3.013,4.238 -2.834,4.222 -2.659,4.183 -2.651,4.18 -2.643,4.178 -2.634,4.175 -2.472,4.123 -2.329,3.995 -2.185,3.905 -2.034,3.811 -1.89,3.705 -1.738,3.613 -1.608,3.534 -1.476,3.457 -1.35,3.371 -1.237,3.293 -1.115,3.22 -1.009,3.129 -0.913,3.014 -0.824,2.894 -0.741,2.77 -0.678,2.646 -0.626,2.516 -0.57,2.387 -0.484,2.188 -0.389,1.994 -0.298,1.796 -0.237,1.663 -0.179,1.527 -0.135,1.386 -0.021,0.933 0.025,0.463 0,0 M 0.967,0.424 C 0.962,0.494 0.985,0.568 0.987,0.638 0.991,0.746 0.963,0.851 0.936,0.958 0.902,1.1 0.837,1.24 0.772,1.377 0.758,1.407 0.741,1.436 0.722,1.464 0.406,2.797 -0.485,4.08 -1.875,4.416 c -0.026,0.006 -0.053,0.011 -0.079,0.016 -0.063,0.036 -0.126,0.072 -0.19,0.107 -0.13,0.071 -0.259,0.128 -0.4,0.159 -0.191,0.041 -0.383,0.068 -0.576,0.094 -0.088,0.012 -0.233,0.021 -0.322,0.022 -0.084,0 -0.167,0 -0.25,-0.002 C -3.826,4.809 -3.961,4.801 -4.095,4.814 -4.12,4.817 -4.141,4.807 -4.166,4.805 -4.236,4.799 -4.31,4.822 -4.38,4.825 -4.488,4.829 -4.593,4.8 -4.7,4.774 -4.842,4.739 -4.982,4.674 -5.119,4.61 -5.123,4.607 -5.128,4.604 -5.132,4.602 -5.366,4.598 -5.598,4.578 -5.819,4.512 -6.208,4.396 -6.531,4.147 -6.838,3.891 -7.175,3.611 -7.5,3.312 -7.741,2.943 -7.971,2.592 -8.098,2.181 -8.116,1.763 -8.124,1.748 -8.133,1.733 -8.141,1.718 -8.213,1.587 -8.27,1.459 -8.3,1.318 -8.342,1.127 -8.368,0.935 -8.394,0.742 -8.406,0.653 -8.416,0.508 -8.416,0.419 -8.417,0.336 -8.417,0.253 -8.415,0.169 -8.412,0.035 -8.404,-0.1 -8.417,-0.233 c -0.002,-0.026 0.008,-0.046 0.01,-0.071 0.005,-0.07 -0.018,-0.144 -0.02,-0.214 -0.004,-0.109 0.024,-0.213 0.051,-0.32 0.034,-0.142 0.099,-0.283 0.164,-0.419 0.046,-0.097 0.122,-0.184 0.191,-0.274 0.122,-0.599 0.339,-1.177 0.708,-1.669 0.479,-0.638 1.185,-1.111 1.981,-1.199 0.012,-0.007 0.024,-0.014 0.036,-0.02 0.13,-0.072 0.259,-0.128 0.4,-0.159 0.191,-0.042 0.383,-0.068 0.576,-0.094 0.088,-0.013 0.234,-0.022 0.323,-0.022 0.083,0 0.166,-0.001 0.249,0.001 0.134,0.003 0.269,0.011 0.403,-0.002 0.025,-0.002 0.046,0.008 0.071,0.01 0.07,0.005 0.144,-0.018 0.214,-0.02 0.108,-0.004 0.213,0.024 0.32,0.051 0.142,0.034 0.282,0.099 0.419,0.164 0.006,0.002 0.011,0.007 0.017,0.01 0.281,0.065 0.555,0.17 0.82,0.289 0.486,0.219 0.996,0.465 1.374,0.85 0.415,0.421 0.664,0.989 0.717,1.574 0.031,0.056 0.063,0.112 0.094,0.168 0.072,0.131 0.128,0.26 0.159,0.401 0.042,0.191 0.068,0.383 0.094,0.576 0.012,0.088 0.022,0.233 0.022,0.322 0,0.084 0.001,0.167 -0.001,0.25 C 0.972,0.084 0.964,0.219 0.977,0.353 0.979,0.378 0.969,0.399 0.967,0.424"
             style="fill:#231f20;fill-opacity:1;fill-rule:nonzero;stroke:none"
             id="path2277" />
        </g>
      </g>
    </g>
  </g>
</svg>
