<?xml version="1.0" encoding="UTF-8" standalone="no"?>
<!-- Created with Inkscape (http://www.inkscape.org/) -->

<svg
   width="24.179941"
   height="24"
   viewBox="0 0 6.3976093 6.35"
   version="1.1"
   id="svg8063"
   inkscape:version="1.2.1 (9c6d41e4, 2022-07-14)"
   sodipodi:docname="return-to-the-secret-name.svg"
   xmlns:inkscape="http://www.inkscape.org/namespaces/inkscape"
   xmlns:sodipodi="http://sodipodi.sourceforge.net/DTD/sodipodi-0.dtd"
   xmlns="http://www.w3.org/2000/svg"
   xmlns:svg="http://www.w3.org/2000/svg">
  <sodipodi:namedview
     id="namedview8065"
     pagecolor="#505050"
     bordercolor="#eeeeee"
     borderopacity="1"
     inkscape:showpageshadow="0"
     inkscape:pageopacity="0"
     inkscape:pagecheckerboard="0"
     inkscape:deskcolor="#505050"
     inkscape:document-units="mm"
     showgrid="false"
     inkscape:zoom="0.7046647"
     inkscape:cx="43.992554"
     inkscape:cy="171.00331"
     inkscape:window-width="1390"
     inkscape:window-height="941"
     inkscape:window-x="0"
     inkscape:window-y="25"
     inkscape:window-maximized="0"
     inkscape:current-layer="layer1" />
  <defs
     id="defs8060">
    <clipPath
       clipPathUnits="userSpaceOnUse"
       id="clipPath1479">
      <path
         d="m 150.565,438.441 h 22.058 v 21.883 h -22.058 z"
         id="path1477" />
    </clipPath>
  </defs>
  <g
     inkscape:label="Layer 1"
     inkscape:groupmode="layer"
     id="layer1"
     transform="translate(-93.673509,-103.45964)">
    <g
       id="g1473"
       transform="matrix(0.29701017,0,0,-0.29701017,48.845674,240.04404)">
      <g
         id="g1475"
         clip-path="url(#clipPath1479)">
        <g
           id="g1481"
           transform="matrix(0.1531793,0,0,-0.1519643,161.59476,449.29501)">
          <g
             id="g1483"
             transform="translate(11.6592,49.6285)">
            <path
               d="m 0,0 c -0.446,0.019 -0.897,-0.495 -1.377,-0.583 -0.305,-0.056 -0.532,0.009 -0.84,-0.137 -0.849,-0.398 -1.122,-0.961 -2.137,-0.985 -0.541,-0.015 -1.174,-0.079 -1.701,0.026 -0.371,0.074 -0.595,0.247 -0.994,0.267 -0.23,0.01 -0.48,-0.05 -0.71,-0.018 -0.612,0.085 -1.054,0.301 -1.703,0.294 -0.555,-0.006 -1.165,0.079 -1.705,-0.024 -0.582,-0.111 -1.112,-0.471 -1.704,-0.554 -0.537,-0.076 -1.159,0.009 -1.704,0.01 -0.645,0.003 -1.082,0.174 -1.43,-0.414 -0.211,-0.359 -0.238,-1.052 -0.572,-1.277 -0.61,-0.413 -1.356,0.641 -1.688,0.982 -0.619,0.639 -1.085,1.01 -1.995,0.998 -0.822,-0.01 -0.722,-0.229 -0.705,-0.998 0.016,-0.68 -0.039,-0.776 -0.423,-1.268 -0.149,-0.189 -0.66,-0.665 -0.678,-0.879 -0.024,-0.291 0.229,-0.214 0.225,-0.433 -0.01,-0.611 -0.249,-1.078 -0.404,-1.681 -0.309,-1.193 0.374,-2.128 0.65,-3.264 0.121,-0.502 0.227,-0.711 0.424,-1.165 0.302,-0.697 0.213,-1.504 0.206,-2.244 -0.003,-0.354 -0.125,-0.909 0.011,-1.231 0.116,-0.273 0.318,-0.233 0.558,-0.437 0.637,-0.546 0.546,-1.494 0.772,-2.236 0.227,-0.742 0.374,-1.27 0.363,-2.045 -0.012,-0.928 0.069,-1.478 0.448,-2.308 0.455,-1 0.997,-1.501 0.974,-2.643 -0.015,-0.807 0.109,-1.674 0.004,-2.47 -0.093,-0.705 -0.62,-1.042 -0.815,-1.691 -0.184,-0.61 -0.042,-1.41 -0.042,-2.034 0,-0.907 0.082,-1.699 -0.201,-2.544 -0.279,-0.84 -0.624,-1.543 -0.657,-2.423 -0.04,-1.024 -0.136,-2.215 0.062,-3.231 0.188,-0.967 0.585,-1.922 0.738,-2.895 0.162,-1.023 0.043,-2.088 0.056,-3.123 0.005,-0.443 0.067,-0.902 -0.041,-1.336 -0.13,-0.525 -0.484,-0.932 -0.654,-1.436 -0.634,-1.873 -0.021,-4.28 -0.141,-6.254 -0.088,-1.433 -0.773,-3.183 -0.014,-4.46 0.331,-0.559 0.278,-0.879 0.282,-1.56 0.002,-0.346 0.085,-0.746 -0.047,-1.08 -0.082,-0.206 -0.371,-0.36 -0.465,-0.562 -0.535,-1.146 -0.047,-1.707 -0.055,-2.839 -0.004,-0.485 -0.087,-1.073 0.025,-1.537 0.087,-0.361 0.462,-0.67 0.622,-1.003 0.347,-0.726 0.148,-0.885 1.058,-0.868 0.47,0.01 0.942,0.002 1.413,0 1.33,-0.008 2.667,0.537 3.981,0.219 1.036,-0.25 2.219,-1.061 3.069,-1.709 0.502,-0.384 1.084,-1.033 1.445,-1.524 0.371,-0.506 0.271,-0.679 1.023,-0.684 0.577,-0.003 1.001,0.263 1.565,0.296 0.448,0.027 1.085,-0.208 1.377,0.258 0.232,0.371 -0.044,1.038 0.027,1.44 0.086,0.479 0.288,1.298 0.505,1.718 0.272,0.525 0.37,0.448 0.362,1.122 -0.011,0.746 -0.294,2.317 0.011,2.957 0.15,0.314 0.607,0.365 0.792,0.722 0.117,0.223 0.141,0.628 0.197,0.879 0.145,0.662 0.177,1.66 -0.133,2.276 -0.651,1.286 -1.348,-1.628 -1.435,-2 -0.148,-0.629 -0.231,-1.938 -0.774,-2.367 -0.337,-0.267 -0.756,-0.365 -0.949,0.069 -0.142,0.317 0.024,1.199 0.083,1.546 0.17,1.006 0.086,2.026 0.277,3.018 0.168,0.868 0.427,1.588 0.858,2.316 0.614,1.031 0.779,2.196 0.8,3.386 0.021,1.118 0.051,2.064 0.331,3.158 0.32,1.255 1.059,2.312 1.099,3.636 0.04,1.301 0.118,2.752 -0.078,4.033 -0.21,1.381 -0.626,2.727 -0.879,4.1 -0.224,1.218 -0.104,2.309 -0.186,3.537 -0.091,1.339 -0.6,2.63 -0.814,3.949 -0.635,3.888 1.026,8.21 2.141,11.86 0.929,3.036 1.407,6.027 1.076,9.181 -0.084,0.795 -0.164,1.584 -0.152,2.384 0.001,0.076 0.008,0.155 0.015,0.234 0.174,0.575 0.452,1.086 0.632,1.661 C 0.075,-4.249 0.861,-1.663 0,0 m -11.01,-69.196 v 0.095 c 0.005,-0.022 0,-0.061 -10e-4,-0.094 -0.02,0.064 -0.057,0.12 -0.118,0.16 -0.195,0.126 -0.331,0.037 -0.566,0.072 -0.137,0.02 -0.104,0.068 -0.198,0.088 -0.355,0.08 -0.762,0.205 -1.152,0.144 -0.098,-0.016 -0.429,-0.089 -0.503,-0.113 -0.107,-0.036 -0.115,-0.018 -0.215,-0.081 -0.322,-0.205 -0.012,-0.385 0.059,-0.578 0.071,-0.189 -0.013,-0.469 -0.009,-0.667 0.004,-0.26 -0.096,-0.52 -0.16,-0.772 -0.055,-0.221 -0.159,-0.432 -0.216,-0.657 -0.12,-0.472 -0.411,-0.98 -0.6,-1.431 -0.243,-0.577 0.069,-1.21 0.135,-1.777 0.1,-0.833 0.656,-1.558 0.672,-2.421 0.004,-0.265 -0.173,-0.398 -0.169,-0.662 0.004,-0.183 0.004,-0.368 0,-0.551 -0.007,-0.366 0.123,-0.724 0.55,-0.965 0.451,-0.255 1.063,-0.152 1.519,0.049 0.226,0.1 0.544,0.292 0.685,0.445 0.134,0.147 0.184,0.402 0.249,0.584 0.155,0.435 -0.103,0.78 -0.642,0.992 -0.573,0.227 -0.199,0.592 -0.372,0.965 -0.074,0.162 -0.356,0.329 -0.431,0.491 -0.075,0.167 -0.038,0.351 -0.038,0.526 0,0.106 -0.024,0.23 -0.004,0.334 0.022,0.103 0.114,0.17 0.136,0.243 0.032,0.102 -0.006,0.213 0.028,0.312 0.031,0.088 0.135,0.092 0.162,0.169 0.145,0.397 0.266,0.77 0.523,1.143 0.141,0.204 0.223,0.454 0.301,0.667 0.073,0.197 0.171,0.407 0.213,0.606 0.026,0.125 -0.061,0.27 -0.016,0.392 0.037,0.1 0.149,0.109 0.187,0.21 0.075,0.202 -0.009,0.5 -0.009,0.708 v 1.108 c 0.019,0.094 0.025,0.186 0,0.266 m -7.659,-15.295 c 0.628,-1.298 1.007,-1.885 2.341,-2.641 1.376,-0.777 2.452,-2.18 2.852,-3.518 0.154,-0.516 0.121,-0.903 0.367,-1.433 0.233,-0.498 0.515,-0.907 0.654,-1.436 0.238,-0.904 0.387,-1.631 0.383,-2.578 -0.008,-1.447 -0.022,-2.543 -0.849,-3.786 -0.381,-0.574 -0.84,-1.084 -1.208,-1.672 -0.183,-0.293 -0.426,-0.851 -0.715,-1.224 0.352,0.246 0.796,0.408 1.135,0.687 0.621,0.512 1.265,1.003 1.81,1.6 1.195,1.313 2.179,2.484 2.654,4.104 0.215,0.736 0.462,1.501 0.675,2.265 0.205,0.738 0.256,1.335 0.267,2.123 0.013,0.833 -0.581,1.603 -0.359,2.443 0.121,0.464 0.607,1.077 0.875,1.502 0.685,1.091 1.35,2.238 1.555,3.488 0.119,0.732 -0.067,1.534 -0.021,2.275 0.048,0.786 0.346,1.444 0.35,2.274 0.008,1.378 -0.69,2.634 -1.551,3.795 -0.211,0.285 -0.254,0.397 -0.496,0.612 -0.124,0.109 -0.581,0.42 -0.764,0.531 -0.738,0.454 -1.823,0.372 -1.988,1.281 0.113,-0.384 -0.259,-0.7 -0.355,-1.05 -0.111,-0.405 0.016,-0.953 0.013,-1.376 -0.004,-0.456 -0.008,-0.817 0.168,-1.217 0.13,-0.296 0.457,-0.585 0.535,-0.891 0.174,-0.683 0.104,-2.017 -0.096,-2.679 -0.055,-0.185 -0.455,-1.006 -0.592,-1.117 -0.351,-0.29 -0.909,-0.16 -1.399,-0.163 -2.603,-0.006 -2.062,2.356 -2.464,3.819 -0.072,0.259 -0.225,0.509 -0.302,0.771 -0.155,0.523 -0.221,1.064 -0.247,1.603 -0.044,0.929 0.047,1.86 0.203,2.78 l -0.246,-0.283 c -0.857,-0.929 -1.654,-1.972 -2.339,-3.002 -0.167,-0.25 -0.266,-0.561 -0.411,-0.819 -0.174,-0.307 -0.466,-0.611 -0.627,-0.926 -0.35,-0.678 -0.416,-1.388 -0.41,-2.123 0.013,-1.466 -0.025,-2.723 0.602,-4.019 m 77.928,42.79 c -0.167,-0.502 -0.368,-1.02 -0.391,-1.537 -0.019,-0.443 0.345,-0.921 0.274,-1.339 -0.213,-1.249 -0.556,-2.475 -0.848,-3.71 -0.084,0.016 -0.167,0.034 -0.251,0.051 -0.022,0.245 -0.044,0.49 -0.066,0.734 -0.259,-0.405 -0.459,-0.835 -0.439,-1.253 0.058,-1.162 0.217,-2.319 0.318,-3.479 0.164,-1.854 0.426,-3.677 -0.225,-5.541 -0.727,-2.081 -1.317,-4.223 -1.424,-6.459 -0.04,-0.831 -0.171,-1.66 -0.289,-2.485 -0.092,-0.646 -0.208,-1.291 -0.352,-1.927 -0.087,-0.388 -0.259,-0.756 -0.374,-1.14 -0.174,-0.586 -0.353,-1.173 -0.485,-1.77 -0.046,-0.205 0.147,-0.502 0.057,-0.65 -0.82,-1.335 -0.984,-2.877 -1.419,-4.332 -0.064,-0.213 -0.127,-0.452 -0.266,-0.615 -0.614,-0.721 -1.266,-1.41 -1.88,-2.132 -0.118,-0.138 -0.13,-0.368 -0.248,-0.732 -0.992,-1.139 -2.203,-2.358 -3.212,-3.727 -1.395,-1.892 -2.633,-3.9 -3.953,-5.847 -0.223,-0.329 -0.52,-0.607 -0.783,-0.909 -0.595,-0.688 -1.189,-1.376 -1.808,-2.092 0.165,-0.07 0.266,-0.112 0.347,-0.146 -1.313,-1.796 -2.622,-3.589 -3.948,-5.406 -0.075,0.228 -0.134,0.406 -0.193,0.583 -0.061,0.013 -0.122,0.025 -0.183,0.037 -0.301,-0.722 -0.666,-1.424 -0.884,-2.17 -0.184,-0.632 -0.488,-1.031 -1.105,-1.279 -0.407,-0.165 -0.764,-0.472 -1.112,-0.756 -0.318,-0.259 -0.56,-0.616 -0.892,-0.852 -0.932,-0.662 -1.849,-1.367 -2.853,-1.901 -1.426,-0.758 -2.52,-1.867 -3.604,-3.008 -0.593,-0.625 -1.169,-1.267 -1.781,-1.873 -0.205,-0.203 -0.479,-0.398 -0.753,-0.46 -1.896,-0.428 -3.802,-0.812 -5.701,-1.23 -0.313,-0.068 -0.643,-0.179 -0.899,-0.362 -0.947,-0.675 -1.839,-1.431 -2.805,-2.078 -1.132,-0.758 -2.313,-1.445 -3.486,-2.142 -0.588,-0.35 -1.172,-0.801 -1.817,-0.947 -1.847,-0.418 -3.725,-0.709 -5.593,-1.038 -0.194,-0.033 -0.403,0.008 -0.603,0.032 -0.659,0.078 -1.351,0.335 -1.971,0.216 -1.88,-0.36 -3.602,0.247 -5.334,0.735 -0.899,0.253 -1.625,0.025 -2.363,-0.363 -0.095,-0.049 -0.064,-0.337 -0.122,-0.716 -1.445,-0.306 -3.053,-0.74 -4.689,-0.956 -0.973,-0.128 -1.991,0.098 -2.989,0.145 -0.425,0.02 -0.869,0.057 -1.277,-0.036 -0.747,-0.171 -1.473,-0.612 -2.21,-0.617 -1.292,-0.009 -2.585,0.281 -3.882,0.334 -0.58,0.024 -0.681,0.596 -1.086,0.698 -0.76,0.192 -1.546,0.28 -2.321,0.411 -0.003,-0.027 -0.004,-0.054 -0.007,-0.08 0.195,-0.099 0.391,-0.198 0.722,-0.365 -1.49,-0.291 -1.799,-0.193 -2.645,0.727 -0.136,0.149 -0.272,0.349 -0.447,0.403 -0.94,0.29 -1.567,1.072 -2.414,1.504 -0.291,0.149 -0.559,0.344 -0.827,0.532 -0.577,0.405 -1.093,0.965 -1.732,1.202 -2.005,0.743 -4.056,1.363 -6.087,2.037 -0.411,0.135 -0.815,0.293 -1.222,0.441 0.019,0.072 0.038,0.144 0.057,0.216 l 1.128,-0.218 c 0.031,0.068 0.061,0.137 0.092,0.205 -0.374,0.196 -0.728,0.477 -1.126,0.571 -0.583,0.137 -1.203,0.982 -1.804,0.005 -0.025,-0.041 -0.197,-0.016 -0.289,0.015 -1.752,0.57 -3.548,1.043 -5.033,2.215 -0.767,0.605 -1.431,1.462 -2.298,1.792 -1.103,0.42 -1.881,1.124 -2.661,1.907 -0.139,0.138 -0.315,0.238 -0.472,0.358 -0.894,0.687 -1.83,1.328 -2.667,2.079 -0.517,0.464 -0.884,1.095 -1.342,1.682 -0.337,-0.402 -0.436,-0.52 -0.668,-0.798 -0.519,0.591 -0.969,1.139 -1.455,1.653 -1.358,1.435 -2.586,3.001 -4.25,4.128 -0.302,0.205 -0.52,0.546 -0.749,0.846 -0.736,0.968 -1.438,1.961 -2.19,2.915 -1.668,2.117 -3.362,4.21 -4.461,6.707 -0.17,0.385 -0.476,0.712 -0.727,1.06 -0.036,0.051 -0.115,0.071 -0.237,0.142 0.047,-0.227 0.081,-0.394 0.117,-0.562 -0.417,0.277 -0.793,0.599 -0.918,0.999 -0.486,1.559 -0.897,3.141 -1.328,4.717 -0.278,1.015 -0.417,2.09 -0.836,3.042 -0.896,2.041 -1.914,4.031 -2.929,6.018 -0.206,0.405 -0.737,0.654 -0.913,1.064 -0.381,0.891 -0.716,1.821 -0.912,2.768 -0.368,1.765 -0.606,3.556 -0.935,5.329 -0.091,0.49 -0.407,0.945 -0.464,1.435 -0.326,2.786 -0.131,5.631 -1.065,8.35 -0.63,1.832 -0.342,3.787 0.003,5.559 0.57,2.922 0.606,5.827 0.663,8.761 0.014,0.712 0.289,1.433 0.526,2.121 0.443,1.283 0.948,2.545 1.421,3.818 0.041,0.109 0.073,0.248 0.042,0.352 -0.163,0.541 -0.286,1.125 0.243,1.484 0.996,0.679 1.306,1.621 1.275,2.751 -0.004,0.174 0.061,0.349 0.09,0.524 0.503,2.997 1.728,5.732 3.132,8.386 0.887,1.675 1.932,3.267 2.893,4.904 0.447,0.764 0.869,1.542 1.289,2.321 0.433,0.802 0.714,1.732 1.301,2.395 1.122,1.268 2.351,2.463 3.652,3.549 1.475,1.235 3.144,2.191 4.261,3.881 0.78,1.181 2.05,2.027 2.964,3.134 1.451,1.756 2.771,3.62 4.189,5.405 0.254,0.32 0.697,0.634 1.082,0.676 1.205,0.131 2.425,0.179 3.638,0.174 C -22.473,9.398 3.299,9.286 29.069,9.174 29.627,9.171 30.187,9.175 30.74,9.121 30.966,9.1 31.257,8.991 31.384,8.822 32.574,7.219 33.731,5.591 34.91,3.979 35.084,3.741 35.296,3.516 35.533,3.344 36.405,2.712 37.296,2.105 38.18,1.489 c 0.161,-0.112 0.308,-0.284 0.487,-0.328 2.104,-0.519 3.828,-1.475 4.578,-3.692 0.258,-0.764 0.619,-1.498 0.994,-2.214 0.539,-1.029 1.055,-2.085 1.723,-3.027 1.229,-1.735 2.569,-3.39 3.847,-5.09 0.209,-0.278 0.375,-0.602 0.498,-0.929 1.455,-3.858 2.904,-7.713 4.83,-11.38 0.517,-0.985 0.802,-2.262 0.708,-3.363 -0.202,-2.362 0.024,-4.582 1.066,-6.712 0.145,-0.295 0.245,-0.61 0.371,-0.914 0.528,-1.277 0.98,-2.593 1.62,-3.81 0.311,-0.589 0.577,-1.068 0.357,-1.731"
               style="fill:#110f0d;fill-opacity:1;fill-rule:nonzero;stroke:none"
               id="path1485" />
          </g>
        </g>
        <g
           id="g1487"
           transform="matrix(0.1531793,0,0,-0.1519643,161.59476,449.29501)">
          <g
             id="g1489"
             transform="translate(-39.4546,60.2633)">
            <path
               d="M 0,0 C 0.63,0.581 1.242,1.179 1.892,1.742 2.109,1.931 2.4,2.112 2.69,2.17 4.705,2.568 6.729,2.926 8.747,3.313 9.079,3.378 9.429,3.48 9.702,3.65 c 1.006,0.629 1.953,1.332 2.978,1.934 1.203,0.705 2.457,1.345 3.703,1.992 0.625,0.325 1.245,0.745 1.929,0.881 1.963,0.39 3.958,0.66 5.941,0.966 0.206,0.031 0.429,-0.007 0.641,-0.029 0.7,-0.074 1.434,-0.313 2.093,-0.203 1.997,0.336 3.826,-0.229 5.665,-0.682 0.955,-0.237 1.726,-0.024 2.511,0.337 0.1,0.046 0.067,0.314 0.129,0.667 1.535,0.284 3.242,0.688 4.98,0.888 1.033,0.12 2.114,-0.09 3.175,-0.134 0.452,-0.018 0.924,-0.053 1.356,0.034 0.794,0.158 1.565,0.568 2.347,0.573 1.373,0.009 2.746,-0.261 4.123,-0.311 0.617,-0.022 0.725,-0.553 1.154,-0.649 0.807,-0.179 1.642,-0.26 2.465,-0.382 0.003,0.025 0.005,0.05 0.008,0.074 -0.208,0.092 -0.415,0.184 -0.768,0.339 1.584,0.272 1.911,0.18 2.81,-0.676 0.144,-0.138 0.29,-0.325 0.475,-0.374 1,-0.27 1.665,-0.998 2.564,-1.4 0.309,-0.138 0.593,-0.319 0.878,-0.494 0.613,-0.377 1.162,-0.898 1.84,-1.118 2.13,-0.692 4.307,-1.269 6.466,-1.895 C 69.601,3.861 70.03,3.715 70.462,3.577 70.442,3.511 70.421,3.443 70.401,3.376 70.001,3.443 69.603,3.512 69.204,3.579 69.17,3.516 69.138,3.452 69.106,3.389 69.502,3.206 69.879,2.945 70.302,2.857 70.92,2.729 71.58,1.943 72.218,2.853 c 0.027,0.038 0.208,0.014 0.306,-0.013 1.861,-0.531 3.769,-0.972 5.347,-2.062 0.815,-0.563 1.518,-1.36 2.439,-1.667 0.676,-0.225 1.231,-0.544 1.742,-0.907 H -2.155 C -1.388,-1.247 -0.687,-0.634 0,0"
               style="fill:#110f0d;fill-opacity:1;fill-rule:nonzero;stroke:none"
               id="path1491" />
          </g>
        </g>
      </g>
    </g>
  </g>
</svg>
