<?xml version="1.0" encoding="UTF-8" standalone="no"?>
<!-- Created with Inkscape (http://www.inkscape.org/) -->

<svg
   width="24.179916"
   height="24"
   viewBox="0 0 6.3976028 6.35"
   version="1.1"
   id="svg7433"
   inkscape:version="1.2.1 (9c6d41e4, 2022-07-14)"
   sodipodi:docname="return-to-disappearance-at-the-twilight-estate.svg"
   xmlns:inkscape="http://www.inkscape.org/namespaces/inkscape"
   xmlns:sodipodi="http://sodipodi.sourceforge.net/DTD/sodipodi-0.dtd"
   xmlns="http://www.w3.org/2000/svg"
   xmlns:svg="http://www.w3.org/2000/svg">
  <sodipodi:namedview
     id="namedview7435"
     pagecolor="#505050"
     bordercolor="#eeeeee"
     borderopacity="1"
     inkscape:showpageshadow="0"
     inkscape:pageopacity="0"
     inkscape:pagecheckerboard="0"
     inkscape:deskcolor="#505050"
     inkscape:document-units="mm"
     showgrid="false"
     inkscape:zoom="0.7046647"
     inkscape:cx="-236.99215"
     inkscape:cy="166.74597"
     inkscape:window-width="1390"
     inkscape:window-height="941"
     inkscape:window-x="0"
     inkscape:window-y="25"
     inkscape:window-maximized="0"
     inkscape:current-layer="layer1" />
  <defs
     id="defs7430">
    <clipPath
       clipPathUnits="userSpaceOnUse"
       id="clipPath1359">
      <path
         d="m 39.282,466.013 h 22.057 v 21.883 H 39.282 Z"
         id="path1357" />
    </clipPath>
  </defs>
  <g
     inkscape:label="Layer 1"
     inkscape:groupmode="layer"
     id="layer1"
     transform="translate(-124.46238,-104.58606)">
    <g
       id="g1353"
       transform="matrix(0.2970092,0,0,-0.2970092,112.68703,249.35914)">
      <g
         id="g1355"
         clip-path="url(#clipPath1359)">
        <g
           id="g1361"
           transform="matrix(0.1531793,0,0,-0.1519643,50.31089,476.86691)">
          <g
             id="g1363"
             transform="translate(20.4199,12.0562)">
            <path
               d="m 0,0 c -6.198,0 -8.494,-7.792 -8.494,-14.005 0,-6.213 0.919,-12.168 8.494,-12.168 7.576,0 8.495,5.955 8.495,12.168 C 8.495,-7.792 6.199,0 0,0 M 5.295,7.619 C 5.056,7.904 4.753,7.845 4.434,7.874 4.123,7.9 3.808,7.929 3.504,8.004 L 3.478,7.976 C 3.604,7.478 3.857,7.004 4.245,6.661 4.429,6.498 4.691,6.392 4.938,6.478 L 5,6.499 c 0.499,0.173 0.63,0.725 0.295,1.12 M -17.99,-15.272 c -6.199,0 -8.494,-7.792 -8.494,-14.005 0,-6.213 0.918,-12.168 8.494,-12.168 7.577,0 8.495,5.955 8.495,12.168 0,6.213 -2.296,14.005 -8.495,14.005 m -0.679,31.902 c -6.199,0 -8.495,-7.791 -8.495,-14.004 0,-6.213 0.919,-12.168 8.495,-12.168 7.576,0 8.494,5.955 8.494,12.168 0,6.213 -2.296,14.004 -8.494,14.004 M -36.66,0 c -6.198,0 -8.494,-7.792 -8.494,-14.005 0,-6.213 0.919,-12.168 8.494,-12.168 7.577,0 8.495,5.955 8.495,12.168 C -28.165,-7.792 -30.46,0 -36.66,0 m 56.233,-8.744 c -0.648,0.66 -0.804,1.27 -1.668,1.696 -1.718,0.848 -3.816,-0.178 -4.801,-1.75 -0.444,-0.708 -0.475,-1.295 -0.466,-2.144 0.007,-0.676 0.65,-2.24 -0.313,-1.971 -0.28,0.079 -0.687,-0.045 -0.812,-0.331 l -0.083,-0.187 c -0.218,-0.495 -0.144,-1.063 0.356,-1.358 0.914,-0.541 2.17,-0.397 2.92,0.411 1.181,1.268 -0.14,3.213 0.832,4.426 1.625,2.029 3.41,-1.479 4.868,-2.021 0.63,-0.235 1.361,-0.245 2.052,-0.093 -0.627,-2.351 -1.157,-4.548 -2.281,-4.431 -1.378,0.143 -2.043,-1.811 -1.112,-2.683 0.679,-0.635 1.699,-0.977 2.226,-1.763 0.981,-1.463 0.412,-3.781 -0.998,-4.835 -1.124,0.638 -2.524,1.145 -2.903,1.1 -1.333,-0.158 -2.754,-1.183 -3.561,-2.221 -0.675,-0.869 -0.808,-1.775 -1.933,-2.315 -1.435,-0.688 -2.431,0.331 -1.66,1.811 0.386,0.739 -0.52,1.414 -1.13,0.873 -1.715,-1.525 -1.15,-4.779 0.944,-5.801 1.239,-0.605 2.721,-0.198 3.823,0.48 0.242,0.149 1.092,0.784 1.81,1.468 0.151,-0.573 0.359,-1.156 0.675,-1.645 0.139,-0.215 0.29,-0.403 0.449,-0.582 l -0.104,-0.084 c -0.487,-0.356 -0.874,-0.54 -1.261,-1.032 -0.328,-0.417 -0.488,-1.04 -0.751,-1.44 -0.811,0.223 -1.685,0.198 -2.387,-0.125 -0.73,-0.338 -0.641,-1.454 0,-1.817 0.67,-0.379 1.611,-0.637 2.431,-0.524 0.397,-0.608 0.342,-1.551 -0.289,-1.932 -0.445,0.147 -0.945,0.211 -1.517,0.146 -0.632,-0.072 -1.66,-0.78 -2.264,-0.653 -0.88,0.652 -1.761,1.303 -2.64,1.954 -0.076,0.441 -0.107,0.884 -0.092,1.329 -0.466,0.777 -0.782,1.263 -1.591,1.823 -0.384,0.265 -0.82,-0.327 -0.491,-0.636 1.533,-1.443 1.383,-3.655 3.036,-4.956 1.186,-0.934 2.64,-0.443 3.828,-0.819 l 0.014,-0.031 c -0.099,-0.041 -0.2,-0.085 -0.307,-0.136 -1.572,-0.77 -1.921,-2.367 -3.019,-3.404 -0.135,0.156 -0.266,0.327 -0.43,0.444 -0.337,0.237 -0.818,0.437 -1.219,0.514 -1.009,0.196 -1.667,-0.219 -2.256,-1.008 -0.756,-1.008 -1.27,-2.113 -2,-3.135 -0.143,0.705 -0.631,1.269 -0.772,1.931 -0.315,1.473 -0.593,0.728 0.406,2.371 0.606,0.997 1.183,1.804 0.493,3.003 -0.88,1.527 -2.4,0.54 -3.336,1.579 0.191,-0.211 0.693,1.075 0.572,1.81 -0.275,1.662 -2.229,2.354 -2.502,4.125 -0.113,0.735 -1.352,0.725 -1.474,0 -0.284,-1.681 -0.126,-1.818 0.666,-3.159 0.455,-0.771 1.064,-0.829 1.125,-1.835 0.013,-0.235 -0.5,-0.525 -0.483,-0.815 0.047,-0.714 0.161,-1.036 0.601,-1.621 0.296,-0.392 0.738,-0.62 1.035,-0.956 0.262,-0.132 0.546,-0.145 0.853,-0.039 -0.306,-0.332 -0.602,-0.67 -0.89,-1.017 -0.79,-1.144 -1.593,-1.572 -1.421,-3.101 0.146,-1.295 1.199,-2.286 1.52,-3.516 -0.575,-0.288 -1.115,-0.657 -1.735,-0.847 -1.029,-0.315 -1.933,-0.176 -2.96,0.119 -0.401,0.116 -0.754,-0.141 -0.887,-0.504 -0.15,-0.405 -0.263,-0.974 -0.414,-1.514 -0.971,0.012 -2.007,-0.086 -2.62,0.435 -0.917,0.781 -0.451,2.287 -1.189,3.273 -0.679,0.907 -1.848,2.177 -2.911,2.628 -0.099,0.041 -0.681,0.179 -0.819,0.163 l -0.042,0.025 c -0.092,0.302 0.271,1.075 0.325,1.344 0.148,0.742 -0.821,1.189 -1.233,0.521 -0.146,-0.236 -0.275,-0.501 -0.376,-0.776 -0.399,0.082 -0.852,-0.126 -0.819,-0.645 0.058,-0.871 0.243,-1.573 1.04,-2.055 0.349,-0.209 0.685,-0.307 0.993,-0.377 0.121,-0.178 0.233,-0.365 0.365,-0.57 0.297,-0.462 0.798,-0.879 1.154,-1.329 l 10e-4,-0.046 c -0.031,-1.93 -0.562,-3.604 0.55,-5.257 -0.998,0.505 -1.917,1.086 -2.214,1.643 -0.282,0.525 -0.915,0.709 -1.463,0.595 -1.104,-0.228 -1.497,-0.697 -2.3,-1.378 -0.815,-0.692 -0.682,-0.71 -1.98,-0.788 -0.212,-0.014 -0.417,-0.025 -0.619,-0.039 -0.166,0.23 -0.358,0.456 -0.577,0.677 -0.186,0.429 -0.482,0.859 -0.944,1.281 -0.454,0.413 -1.049,0.662 -1.56,0.98 -0.604,0.618 -1.045,1.263 -1.066,1.984 l 0.002,0.108 c 0.009,0.305 0.088,0.624 0.269,0.96 0.819,1.518 4.214,1.542 3.642,4.012 -0.516,2.232 -2.811,2.45 -4.196,1.045 -0.412,-0.418 0.121,-1.117 0.627,-0.813 0.985,0.854 1.408,0.243 1.27,-1.833 -0.515,-0.338 -1.066,-0.596 -1.656,-0.777 -0.424,-0.25 -0.652,-0.141 -0.952,-0.538 -0.298,-0.392 -0.409,-0.824 -0.43,-1.272 -0.169,-0.138 -0.298,-0.331 -0.363,-0.513 -0.454,-1.271 -0.674,-2.775 -0.517,-4.19 -1.16,0.347 -2.567,1.609 -3.65,1.813 -1.019,0.193 -1.871,-0.117 -2.658,-0.602 -0.072,0.046 -0.146,0.087 -0.219,0.131 0.355,1.202 -0.451,2.523 0.093,3.71 0.555,1.213 2.371,1.814 3.289,2.8 1.005,1.08 1.374,2.483 0.581,3.778 -0.19,0.31 -0.717,0.362 -0.892,0 -0.352,-0.721 -0.786,-2.371 -1.277,-2.672 -0.514,-0.316 -1.012,-0.109 -1.522,-0.209 -0.969,-0.192 -1.839,-0.69 -2.397,-1.535 -0.511,-0.773 -0.738,-1.767 -0.598,-2.687 0.013,-0.085 0.044,-0.184 0.069,-0.279 -0.169,0.009 -0.339,0.008 -0.508,-10e-4 -0.743,0.39 -1.579,0.324 -2.327,0.006 -0.305,0.231 -0.645,0.453 -0.91,0.638 -0.555,0.159 -0.677,0.229 -0.365,0.211 -0.096,0.141 -0.209,0.263 -0.335,0.374 -0.007,0.961 -0.189,2.101 -0.572,2.976 l -0.029,0.041 c 0.066,0.062 0.126,0.125 0.2,0.186 1.37,1.127 3.603,1.177 5.052,2.192 1.215,0.851 2.281,2.55 2.085,4.16 -0.066,0.545 -0.429,0.931 -0.562,1.484 -0.128,0.466 -0.171,0.939 -0.13,1.418 0.16,0.728 0.507,0.837 1.041,0.324 -0.793,-0.876 0.448,-2.136 1.304,-1.304 1.707,1.662 -0.368,4.07 -2.428,3.306 -0.804,-0.298 -1.297,-0.662 -1.556,-1.449 -0.234,-0.711 0.098,-1.706 0.033,-2.441 -0.258,-2.894 -0.758,-2.195 -2.83,-2.737 -3.288,-0.861 -5.658,-2.042 -6.871,-5.208 -0.299,1.907 -0.397,3.803 0.395,5.311 0.18,0.342 0.237,0.679 0.206,0.988 0.069,0.169 0.14,0.339 0.227,0.512 0.219,0.435 0.502,0.878 0.57,1.369 0.017,0.124 -0.066,0.216 -0.193,0.194 -0.286,-0.05 -0.549,0.056 -0.829,-0.054 -0.235,-0.092 -0.399,-0.308 -0.548,-0.507 -0.288,0.067 -0.576,0.064 -0.834,-0.053 -0.283,0.015 -0.58,-0.032 -0.876,-0.172 -1.788,-0.849 -4.635,0.327 -4.558,2.41 0.737,0.106 1.434,0.38 2.042,0.891 1.338,1.122 1.406,3.248 3.396,3.582 1.917,0.323 1.885,-1.216 3.271,-2.015 1.93,-1.113 4.538,0.263 4.098,2.464 -0.146,0.729 -1.172,0.772 -1.521,0.199 -0.438,-0.719 -3.466,1.705 -4.147,1.873 -1.387,0.341 -3.781,-0.309 -4.871,-1.219 -0.816,-0.683 -0.967,-1.894 -2.044,-2.335 -1.269,-0.519 -3.475,0.588 -4.581,1.257 -0.956,0.578 -1.633,1.338 -2.157,2.199 0.426,2.582 -1.879,6.699 0.276,7.369 0.904,-0.226 1.979,-0.306 2.816,-0.115 0.451,0.102 0.743,0.315 1.174,0.499 0.131,0.043 0.244,0.115 0.339,0.217 1.292,1.679 2.398,1.627 3.317,-0.157 -1.128,-0.705 -0.091,-2.491 1.044,-1.786 1.722,1.069 2.194,3.689 0.307,5.02 -2.375,1.676 -4.582,-1.045 -6.614,-1.662 -2.853,-0.865 -4.058,1.468 -4.268,3.719 0.568,0.065 1.152,0.26 1.612,0.488 0.683,0.338 1.428,0.678 1.971,1.235 0.294,0.303 0.445,0.7 0.661,1.041 0.051,-0.056 1.289,1.057 1.674,1.205 0.054,-0.258 0.111,-0.493 0.179,-0.617 0.293,-0.544 1.11,-0.389 1.276,0.166 0.179,0.597 0.04,1.089 -0.271,1.473 -0.034,0.444 -0.065,0.878 -0.425,1.194 -0.56,0.491 -1.091,0.259 -1.765,0.351 -2.446,0.334 -3.319,2.737 -3.819,5.015 0.864,1.385 1.668,2.797 3.016,3.821 0.866,0.658 1.298,1.384 1.772,0.889 0.275,-0.288 0.16,-1.171 0.327,-1.554 0.431,-0.99 0.884,-1.405 1.905,-1.635 0.9,-0.201 1.777,0.359 2.588,-0.419 0.733,-0.704 0.418,-3.569 -0.923,-2.441 -0.431,0.363 -1.025,0.115 -1.075,-0.444 -0.276,-3.091 3.899,-2.063 4.669,0.033 0.368,1.004 0.103,2.991 -0.493,3.896 -0.793,1.207 -2.984,1.324 -3.547,2.366 -0.842,1.56 0.236,3.016 -2.028,3.75 -2.141,0.693 -4.048,-0.455 -5.737,-1.628 -0.095,0.483 -0.261,1.011 -0.495,1.636 -0.099,0.265 -0.204,0.36 -0.29,0.43 -0.011,0.256 -0.066,0.482 -0.164,0.673 0.132,0.589 0.694,1.184 1.162,1.541 l 0.135,0.088 c 1.483,-0.206 2.424,-0.881 3.927,-0.199 0.531,0.242 0.918,0.443 1.268,0.933 0.162,0.269 0.297,0.548 0.405,0.841 l 0.036,0.162 c 0.62,0.207 0.357,-0.114 1.277,-0.424 0.341,-0.115 0.574,-0.17 0.87,-0.159 0.078,-0.124 0.151,-0.255 0.238,-0.361 0.673,-0.82 1.868,-0.975 2.503,-1.792 0.428,-0.549 0.2,-1.195 0.866,-1.738 1.592,-1.299 3.553,0.219 5.168,-0.395 0.558,-0.213 1.201,0.442 0.995,0.996 -0.296,0.803 -0.727,0.888 -1.516,1.052 -0.693,0.144 -2.408,-0.368 -2.948,0.07 -0.262,0.214 -0.069,1.131 -0.264,1.402 -0.873,1.215 -1.608,0.995 -2.673,1.8 -0.74,0.559 -1.093,1.248 -1.206,2.186 -0.302,2.503 0.388,1.783 1.513,2.974 0.549,0.58 1.001,1.459 1.171,2.233 0.576,2.611 -0.798,1.886 1.703,3.004 0.083,0.037 0.162,0.069 0.239,0.099 0.007,-0.671 0.153,-1.26 0.377,-2.066 0.057,-0.209 0.162,-0.374 0.284,-0.519 0.076,-0.513 0.185,-1.032 0.299,-1.597 0.338,-1.66 -0.528,-3.482 0.377,-5.055 0.685,-1.193 2.256,-2.155 3.525,-2.56 2.61,-0.834 6.715,0.791 6.547,4.068 -0.084,1.614 -1.993,3.42 -3.336,1.733 -0.461,-0.58 -0.04,-1.389 0.722,-1.24 1.698,0.332 -0.242,-1.46 -0.456,-1.628 -1.101,-0.859 -2.306,-1.218 -3.383,0.105 -0.863,1.059 -0.422,2.478 -0.384,3.711 0.025,0.828 -0.349,1.51 -0.4,2.265 -0.104,1.548 0.577,2.804 1.36,4.093 0.464,0.764 0.797,1.876 0.928,3.039 l 0.083,0.118 c 0.374,0.48 2.564,1.891 3.212,1.756 1.275,-0.262 0.775,-2.353 1.024,-3.159 0.653,-2.124 3.271,-1.389 4.83,-1.762 0.831,-0.198 1.994,-1.055 0.916,-1.931 -0.465,-0.375 -1.335,-0.213 -1.93,-0.415 -0.118,-0.041 -0.246,-0.111 -0.347,-0.204 -0.538,0.054 -1.103,-0.23 -1.18,-0.72 -0.082,-0.025 -0.163,-0.061 -0.238,-0.125 -0.243,-0.209 -0.313,-0.533 -0.339,-0.839 -0.046,-0.571 0.818,-0.782 1.073,-0.291 0.094,0.181 0.214,0.353 0.259,0.552 l 0.003,0.036 c 0.104,0.04 0.232,0.101 0.319,0.187 l 0.002,10e-4 0.042,0.002 c 0.051,-0.028 0.128,-0.01 0.201,0.016 1.943,-0.867 4.108,-0.106 4.591,2.104 0.254,1.154 0.102,2.327 -0.826,3.096 -0.398,0.329 -0.845,0.475 -1.327,0.598 -0.532,0.135 -3.531,-0.028 -3.54,-0.016 0.047,-0.061 0.186,0.705 0.296,1.393 0.309,0.401 0.668,0.942 1.07,1.024 1.061,0.215 1.156,-0.557 1.927,-0.963 1.155,-0.608 2.449,-0.978 3.734,-0.282 0.661,0.358 2.168,2.681 1.311,2.039 1.423,1.236 3.185,2.396 4.736,3.44 0.366,0.248 0.786,0.592 1.191,0.99 0.084,-0.088 0.169,-0.18 0.259,-0.283 0.146,-0.17 0.436,-0.479 0.529,-0.756 -0.046,-0.001 -0.132,-0.111 -0.225,-0.209 -0.622,-0.64 -1.659,-0.813 -2.278,-1.617 -0.567,-0.737 -0.852,-1.485 -0.779,-2.42 0.144,-1.825 1.299,-3.685 2.966,-4.459 0.848,-0.394 3.731,-0.509 2.992,-1.558 -0.183,-0.26 0.059,-0.662 0.368,-0.644 1.463,0.092 1.977,1.576 1.311,2.806 -0.618,1.14 -1.562,0.929 -2.416,1.649 -0.995,0.838 0.216,1.138 1.06,1.792 1.169,0.906 1.919,2.035 2.161,3.241 0.353,-0.279 0.717,-0.564 1.097,-0.797 0.288,-0.178 1.092,-0.372 1.29,-0.612 0.404,-0.492 -0.139,-1.201 -0.107,-1.89 0.02,-0.424 0.42,-0.79 0.858,-0.653 1.486,0.463 1.55,1.47 1.617,2.84 0.035,0.728 0.198,1.364 0.565,1.926 0.471,0.238 0.872,0.607 1.133,1.106 0.074,0.05 0.148,0.098 0.223,0.144 0.151,-1.326 0.791,-2.736 1.502,-3.291 0.385,-0.3 0.978,-0.735 1.556,-1.006 -1.088,-0.583 -1.883,-1.556 -2.061,-2.789 -0.201,-1.396 0.668,-2.359 0.871,-3.68 0.439,-2.842 -0.48,-2.029 -1.985,-2.99 -0.715,-0.455 -1.242,-1.107 -1.338,-1.979 -0.131,-1.181 0.537,-1.267 -0.067,-2.362 -0.396,-0.717 -1.283,-1.214 -1.863,-1.793 -0.342,-0.34 0.004,-0.975 0.482,-0.826 1.275,0.399 3.078,0.712 3.735,2.026 0.653,1.301 -0.212,1.719 0.986,2.486 1.32,0.844 1.966,0.624 2.722,2.25 0.815,1.75 0.302,3.147 0.314,4.872 0.058,-0.063 0.14,-0.111 0.255,-0.124 C 1.604,21.304 2.48,21.32 3.4,21.716 L 3.454,21.529 C 3.683,20.72 3.78,19.219 4.317,18.488 5.555,16.808 8.144,18.081 9.78,17.571 10.524,17.34 11.362,16.722 12.13,15.957 10.548,16.155 9.09,16.2 7.525,15.489 6.79,15.155 5.855,14.805 5.261,14.235 4.949,13.937 4.832,13.789 4.652,13.427 4.641,13.333 4.627,13.239 4.614,13.146 4.682,12.463 4.406,12.1 3.788,12.059 2.523,10.767 2.334,10.372 3.123,8.621 3.184,8.488 3.37,8.546 3.41,8.659 c 0.477,1.359 2.3,1.102 2.999,2.319 0.472,0.819 0.073,1.704 0.946,2.275 0.861,0.56 0.517,0.194 1.184,-0.387 0.492,-0.428 0.911,-0.924 1.395,-1.354 1.087,-0.967 2.285,-1.622 3.762,-1.647 0.577,-0.01 1.158,0.083 1.712,0.254 C 15.857,9.751 16.427,9.615 16.852,9.224 16.696,8.591 16.655,7.944 16.756,7.362 16.991,5.997 18.312,4.552 16.665,3.913 15.237,3.359 13.996,4.005 12.9,2.209 12.557,1.646 12.586,1.012 12.262,0.466 11.65,-0.56 10.661,-0.005 10.246,1.014 c -0.141,0.342 -0.672,0.422 -0.781,0 -0.393,-1.519 1.417,-2.778 2.811,-2.774 0.812,0.001 1.511,0.307 2.029,0.956 0.425,0.535 0.411,1.418 1.055,1.733 0.42,0.205 1.346,-0.264 1.745,-0.346 1.059,-0.219 2.033,-0.242 2.88,-0.046 0.456,-0.434 0.89,-0.677 1.577,-1.069 0.52,-1.003 0.902,-2.057 1.052,-2.628 0.284,-1.081 0.587,-2.245 0.604,-3.373 0.012,-0.828 0.045,-1.932 -0.512,-2.631 -1.272,-1.597 -2.118,-0.612 -3.133,0.42"
               style="fill:#110f0d;fill-opacity:1;fill-rule:nonzero;stroke:none"
               id="path1365" />
          </g>
        </g>
        <g
           id="g1367"
           transform="matrix(0.1531793,0,0,-0.1519643,50.31089,476.86691)">
          <g
             id="g1369"
             transform="translate(49.9414,4.65)">
            <path
               d="m 0,0 c -0.513,2.781 -1.892,5.259 -2.595,7.977 -0.591,2.287 -1.192,4.897 -2.288,6.993 -0.547,1.048 -1.377,1.467 -2.036,2.392 -0.6,0.841 -0.92,2.224 -1.378,3.16 -1.089,2.233 -2.307,4.251 -3.79,6.237 -1.428,1.91 -3.447,3.206 -5.184,4.832 -1.905,1.785 -3.799,3.573 -5.791,5.261 -0.686,0.582 -1.414,1.065 -2.165,1.498 -1.211,1.067 -2.83,1.745 -4.509,2.126 -2.714,1.198 -4.887,2.529 -7.854,2.942 -4.476,0.624 -9.134,1.763 -13.551,0.529 -3.315,-0.925 -6.785,-0.872 -10.083,-1.881 -3.086,-0.945 -6.367,-1.957 -9.354,-3.165 -5.703,-2.306 -10.61,-7.531 -14.885,-11.809 -2.218,-2.22 -4.453,-4.221 -6.355,-6.742 -1.712,-2.271 -2.417,-4.184 -3.4,-6.784 -1.831,-4.84 -3.589,-10.267 -4.057,-15.498 -0.294,-3.286 -0.094,-6.535 0.816,-9.705 0.785,-2.736 2.176,-5.346 2.84,-8.081 1.166,-4.797 3.497,-9.269 6.722,-13.039 0.791,-0.925 1.618,-1.483 2.528,-2.249 1.152,-0.97 1.849,-2.149 2.869,-3.226 1.49,-1.575 3.154,-3.625 4.876,-4.925 2.165,-1.634 4.936,-2.957 7.292,-4.279 1.292,-0.726 2.703,-0.984 3.966,-1.764 0.979,-0.605 1.762,-1.196 2.872,-1.558 1.796,-0.584 3.201,-0.841 4.818,-1.89 1.174,-0.762 2.176,-1.366 3.547,-1.682 2.653,-0.612 5.662,-0.72 8.359,-0.539 2.919,0.198 5.943,-0.361 8.791,0.384 2.235,0.584 3.828,1.336 6.12,1.194 1.203,-0.073 1.83,1.099 1.695,2.103 0.433,0.134 0.871,0.254 1.353,0.305 0.884,0.092 1.583,-0.075 2.42,0.289 2.62,1.14 4.68,3.343 7.257,4.595 1.782,0.866 3.732,2.191 5.126,3.59 1.314,1.317 2.655,2.573 3.888,4.025 1.779,2.097 2.355,4.603 3.702,6.933 1.253,2.165 2.774,4.443 3.703,6.804 1.343,1.548 1.905,3.721 1.487,5.904 0.348,1.726 0.761,3.433 1.622,5.12 C 1.714,-9.075 0.876,-4.743 0,0 M 20.977,3.277 C 20.81,2.775 20.608,2.258 20.586,1.74 c -0.02,-0.442 0.345,-0.921 0.273,-1.339 -0.213,-1.249 -0.555,-2.474 -0.847,-3.71 -0.084,0.017 -0.167,0.035 -0.251,0.051 -0.022,0.245 -0.044,0.49 -0.067,0.735 -0.258,-0.406 -0.459,-0.835 -0.438,-1.253 0.057,-1.162 0.217,-2.319 0.318,-3.479 0.163,-1.854 0.426,-3.678 -0.225,-5.542 -0.727,-2.08 -1.317,-4.222 -1.424,-6.459 -0.04,-0.831 -0.171,-1.659 -0.289,-2.484 -0.092,-0.647 -0.208,-1.291 -0.352,-1.928 -0.088,-0.388 -0.26,-0.756 -0.374,-1.139 -0.175,-0.587 -0.353,-1.174 -0.485,-1.771 -0.046,-0.204 0.147,-0.502 0.056,-0.65 -0.819,-1.334 -0.983,-2.876 -1.418,-4.332 -0.064,-0.213 -0.127,-0.451 -0.266,-0.614 -0.614,-0.722 -1.266,-1.411 -1.88,-2.133 -0.118,-0.138 -0.13,-0.367 -0.248,-0.732 -0.992,-1.138 -2.203,-2.358 -3.212,-3.726 -1.395,-1.892 -2.633,-3.9 -3.953,-5.848 -0.223,-0.329 -0.521,-0.607 -0.783,-0.909 -0.595,-0.687 -1.189,-1.375 -1.808,-2.091 0.165,-0.071 0.266,-0.113 0.347,-0.147 -1.313,-1.796 -2.622,-3.589 -3.948,-5.406 -0.076,0.228 -0.134,0.406 -0.193,0.584 -0.061,0.012 -0.122,0.024 -0.183,0.037 -0.301,-0.722 -0.666,-1.425 -0.884,-2.171 -0.184,-0.632 -0.489,-1.03 -1.105,-1.279 -0.407,-0.164 -0.764,-0.472 -1.112,-0.755 -0.318,-0.259 -0.561,-0.616 -0.893,-0.852 -0.931,-0.662 -1.848,-1.368 -2.852,-1.902 -1.426,-0.757 -2.521,-1.866 -3.605,-3.008 -0.592,-0.624 -1.169,-1.266 -1.78,-1.872 -0.205,-0.203 -0.479,-0.399 -0.753,-0.461 -1.896,-0.427 -3.803,-0.811 -5.701,-1.229 -0.313,-0.069 -0.644,-0.179 -0.899,-0.362 -0.948,-0.676 -1.839,-1.431 -2.805,-2.078 -1.132,-0.759 -2.314,-1.446 -3.486,-2.142 -0.588,-0.35 -1.172,-0.801 -1.817,-0.947 -1.848,-0.419 -3.725,-0.71 -5.594,-1.038 -0.193,-0.034 -0.402,0.007 -0.602,0.031 -0.659,0.079 -1.351,0.336 -1.971,0.217 -1.881,-0.36 -3.602,0.247 -5.334,0.734 -0.899,0.254 -1.625,0.025 -2.363,-0.362 -0.095,-0.049 -0.065,-0.338 -0.122,-0.717 -1.446,-0.305 -3.053,-0.74 -4.689,-0.955 -0.973,-0.129 -1.991,0.098 -2.989,0.144 -0.426,0.02 -0.87,0.057 -1.277,-0.036 -0.747,-0.171 -1.473,-0.611 -2.21,-0.617 -1.293,-0.008 -2.585,0.281 -3.882,0.334 -0.581,0.024 -0.682,0.596 -1.086,0.698 -0.76,0.193 -1.546,0.28 -2.321,0.411 -0.003,-0.027 -0.005,-0.054 -0.007,-0.08 0.195,-0.099 0.39,-0.197 0.722,-0.364 -1.491,-0.292 -1.799,-0.193 -2.645,0.727 -0.136,0.148 -0.272,0.349 -0.447,0.402 -0.941,0.291 -1.567,1.072 -2.414,1.505 -0.291,0.148 -0.559,0.343 -0.827,0.531 -0.577,0.405 -1.094,0.966 -1.732,1.202 -2.005,0.743 -4.056,1.364 -6.087,2.037 -0.411,0.136 -0.815,0.294 -1.222,0.442 0.019,0.072 0.038,0.144 0.057,0.216 l 1.128,-0.218 c 0.03,0.068 0.061,0.136 0.092,0.204 -0.374,0.197 -0.728,0.477 -1.127,0.572 -0.582,0.137 -1.203,0.982 -1.803,0.004 -0.025,-0.04 -0.197,-0.015 -0.289,0.015 -1.752,0.57 -3.549,1.044 -5.034,2.215 -0.767,0.606 -1.43,1.463 -2.297,1.793 -1.103,0.42 -1.881,1.123 -2.662,1.907 -0.138,0.138 -0.314,0.237 -0.471,0.357 -0.894,0.688 -1.83,1.328 -2.667,2.079 -0.517,0.464 -0.885,1.096 -1.343,1.683 -0.336,-0.403 -0.435,-0.521 -0.667,-0.798 -0.519,0.591 -0.969,1.139 -1.456,1.652 -1.357,1.435 -2.585,3.002 -4.249,4.128 -0.302,0.205 -0.521,0.547 -0.749,0.847 -0.736,0.967 -1.438,1.96 -2.19,2.914 -1.668,2.117 -3.362,4.21 -4.461,6.707 -0.17,0.386 -0.477,0.712 -0.727,1.06 -0.037,0.051 -0.115,0.071 -0.237,0.142 0.047,-0.226 0.081,-0.394 0.116,-0.561 -0.416,0.277 -0.792,0.599 -0.917,0.999 -0.486,1.558 -0.898,3.14 -1.328,4.716 -0.278,1.016 -0.418,2.09 -0.836,3.043 -0.896,2.041 -1.914,4.031 -2.929,6.017 -0.206,0.405 -0.738,0.655 -0.913,1.064 -0.381,0.892 -0.716,1.822 -0.913,2.768 -0.367,1.765 -0.605,3.556 -0.935,5.329 -0.09,0.491 -0.406,0.946 -0.463,1.435 -0.326,2.787 -0.131,5.632 -1.065,8.35 -0.63,1.832 -0.343,3.787 0.003,5.56 0.57,2.922 0.605,5.827 0.663,8.761 0.014,0.711 0.289,1.432 0.526,2.121 0.443,1.283 0.948,2.545 1.421,3.818 0.04,0.108 0.073,0.247 0.041,0.352 -0.162,0.541 -0.285,1.125 0.244,1.484 0.996,0.679 1.306,1.62 1.275,2.751 -0.004,0.174 0.061,0.349 0.09,0.523 0.503,2.997 1.727,5.733 3.132,8.386 0.886,1.676 1.932,3.268 2.893,4.904 0.447,0.764 0.869,1.542 1.289,2.322 0.432,0.801 0.714,1.731 1.3,2.394 1.123,1.269 2.352,2.463 3.652,3.55 1.476,1.234 3.144,2.19 4.262,3.881 0.78,1.181 2.049,2.026 2.964,3.134 1.451,1.756 2.771,3.62 4.189,5.405 0.254,0.319 0.697,0.634 1.082,0.676 1.205,0.131 2.425,0.178 3.638,0.174 25.771,-0.101 51.543,-0.213 77.313,-0.326 0.558,-0.003 1.117,10e-4 1.671,-0.052 0.226,-0.022 0.517,-0.13 0.644,-0.299 1.19,-1.604 2.347,-3.232 3.526,-4.844 0.174,-0.237 0.386,-0.463 0.623,-0.635 0.872,-0.632 1.763,-1.238 2.646,-1.854 0.162,-0.113 0.309,-0.284 0.488,-0.328 2.104,-0.52 3.828,-1.476 4.578,-3.693 0.258,-0.763 0.619,-1.498 0.994,-2.214 0.539,-1.029 1.055,-2.085 1.723,-3.027 1.229,-1.734 2.569,-3.39 3.846,-5.09 0.209,-0.277 0.375,-0.601 0.498,-0.929 1.455,-3.858 2.905,-7.712 4.83,-11.379 0.518,-0.986 0.803,-2.262 0.708,-3.364 C 17.36,14.083 17.587,11.862 18.629,9.732 18.773,9.438 18.874,9.122 19,8.818 19.527,7.542 19.979,6.226 20.62,5.009 20.931,4.42 21.197,3.94 20.977,3.277"
               style="fill:#110f0d;fill-opacity:1;fill-rule:nonzero;stroke:none"
               id="path1371" />
          </g>
        </g>
        <g
           id="g1373"
           transform="matrix(0.1531793,0,0,-0.1519643,50.31089,476.86691)">
          <g
             id="g1375"
             transform="translate(-39.4546,60.2633)">
            <path
               d="M 0,0 C 0.63,0.581 1.242,1.179 1.892,1.742 2.109,1.931 2.4,2.112 2.69,2.17 4.705,2.568 6.729,2.926 8.747,3.313 9.079,3.378 9.429,3.48 9.702,3.65 c 1.006,0.629 1.953,1.332 2.978,1.934 1.203,0.705 2.457,1.345 3.703,1.992 0.625,0.325 1.245,0.745 1.929,0.881 1.963,0.39 3.958,0.66 5.941,0.966 0.206,0.031 0.429,-0.007 0.641,-0.029 0.7,-0.074 1.434,-0.313 2.093,-0.203 1.997,0.336 3.826,-0.229 5.665,-0.682 0.955,-0.237 1.726,-0.024 2.511,0.337 0.1,0.046 0.067,0.314 0.129,0.667 1.535,0.284 3.242,0.688 4.98,0.888 1.033,0.12 2.114,-0.09 3.175,-0.134 0.452,-0.018 0.924,-0.053 1.356,0.034 0.794,0.158 1.565,0.568 2.347,0.573 1.373,0.009 2.746,-0.261 4.123,-0.311 0.617,-0.022 0.725,-0.553 1.154,-0.649 0.807,-0.179 1.642,-0.26 2.465,-0.382 0.003,0.025 0.005,0.05 0.008,0.074 -0.208,0.092 -0.415,0.184 -0.768,0.339 1.584,0.272 1.911,0.18 2.81,-0.676 0.144,-0.138 0.29,-0.325 0.475,-0.374 1,-0.27 1.665,-0.998 2.564,-1.4 0.309,-0.138 0.593,-0.319 0.878,-0.494 0.613,-0.377 1.162,-0.898 1.84,-1.118 2.13,-0.692 4.307,-1.269 6.466,-1.895 C 69.601,3.861 70.03,3.715 70.462,3.577 70.442,3.511 70.421,3.443 70.401,3.376 70.001,3.443 69.603,3.512 69.204,3.579 69.17,3.516 69.138,3.452 69.106,3.389 69.502,3.206 69.879,2.945 70.302,2.857 70.92,2.729 71.58,1.943 72.218,2.853 c 0.027,0.038 0.208,0.014 0.306,-0.013 1.861,-0.531 3.769,-0.972 5.347,-2.062 0.815,-0.563 1.518,-1.36 2.439,-1.667 0.676,-0.225 1.231,-0.544 1.742,-0.907 H -2.155 C -1.388,-1.247 -0.687,-0.634 0,0"
               style="fill:#110f0d;fill-opacity:1;fill-rule:nonzero;stroke:none"
               id="path1377" />
          </g>
        </g>
      </g>
    </g>
  </g>
</svg>
