<?xml version="1.0" encoding="UTF-8" standalone="no"?>
<!-- Created with Inkscape (http://www.inkscape.org/) -->

<svg
   width="24.179918"
   height="24"
   viewBox="0 0 6.3976032 6.35"
   version="1.1"
   id="svg8504"
   inkscape:version="1.2.1 (9c6d41e4, 2022-07-14)"
   sodipodi:docname="return-to-in-the-clutches-of-chaos.svg"
   xmlns:inkscape="http://www.inkscape.org/namespaces/inkscape"
   xmlns:sodipodi="http://sodipodi.sourceforge.net/DTD/sodipodi-0.dtd"
   xmlns="http://www.w3.org/2000/svg"
   xmlns:svg="http://www.w3.org/2000/svg">
  <sodipodi:namedview
     id="namedview8506"
     pagecolor="#505050"
     bordercolor="#eeeeee"
     borderopacity="1"
     inkscape:showpageshadow="0"
     inkscape:pageopacity="0"
     inkscape:pagecheckerboard="0"
     inkscape:deskcolor="#505050"
     inkscape:document-units="mm"
     showgrid="false"
     inkscape:zoom="0.7046647"
     inkscape:cx="-136.23501"
     inkscape:cy="107.14316"
     inkscape:window-width="1390"
     inkscape:window-height="941"
     inkscape:window-x="0"
     inkscape:window-y="25"
     inkscape:window-maximized="0"
     inkscape:current-layer="layer1" />
  <defs
     id="defs8501">
    <clipPath
       clipPathUnits="userSpaceOnUse"
       id="clipPath1693">
      <path
         d="m 150.565,382.933 h 22.058 v 21.883 h -22.058 z"
         id="path1691" />
    </clipPath>
  </defs>
  <g
     inkscape:label="Layer 1"
     inkscape:groupmode="layer"
     id="layer1"
     transform="translate(-141.35872,-120.35597)">
    <g
       id="g1687"
       transform="matrix(0.29700899,0,0,-0.29700899,96.531068,240.45342)">
      <g
         id="g1689"
         clip-path="url(#clipPath1693)">
        <g
           id="g1695"
           transform="matrix(0.1531793,0,0,-0.1519643,161.59476,393.78683)">
          <g
             id="g1697"
             transform="translate(39.9941,6.5689)">
            <path
               d="m 0,0 c -0.04,0.232 -0.116,0.459 -0.154,0.692 -0.06,0.366 -0.058,0.743 -0.117,1.11 -0.129,0.806 -0.495,1.466 -0.868,2.195 -0.355,0.696 -0.377,1.431 -0.609,2.156 -0.202,0.634 -0.818,1.135 -1.149,1.711 -0.256,0.443 -0.402,0.876 -0.744,1.279 -0.392,0.464 -0.755,0.931 -1.134,1.407 -0.275,0.347 -0.617,0.632 -0.889,0.98 -0.204,0.26 -0.37,0.527 -0.669,0.714 -0.169,0.107 -0.398,0.152 -0.555,0.271 -0.26,0.197 -0.414,0.552 -0.657,0.781 -0.367,0.346 -0.757,0.657 -1.119,1.01 -0.751,0.731 -1.473,1.401 -1.961,2.309 -0.354,0.659 -0.621,1.505 -1.252,1.982 -0.196,0.149 -0.337,0.152 -0.57,0.215 -0.289,0.083 -0.478,0.202 -0.715,0.367 -0.483,0.335 -0.988,0.406 -1.511,0.65 -0.399,0.187 -0.747,0.463 -1.135,0.671 -0.187,0.1 -0.359,0.213 -0.587,0.221 -0.135,0.005 -0.25,-0.051 -0.389,0.008 -0.169,0.074 -0.257,0.342 -0.31,0.457 -0.162,0.35 -0.397,0.668 -0.556,1.016 -0.204,0.44 -0.132,1.029 -0.085,1.491 0.044,0.417 0.243,1.05 -0.014,1.444 -0.147,0.224 -0.291,0.238 -0.31,0.538 -0.041,0.666 0.098,1.329 0.105,1.993 0.009,0.984 0.206,1.893 0.529,2.82 0.266,0.758 0.871,1.398 1.337,2.063 0.114,0.164 0.245,0.327 0.32,0.512 0.084,0.201 0.112,0.415 0.205,0.617 0.147,0.318 0.352,0.595 0.421,0.941 0.06,0.292 0.065,0.597 0.122,0.891 0.039,0.192 0.125,0.397 0.106,0.598 -0.014,0.128 -0.047,0.206 -0.107,0.316 -0.132,0.24 -0.142,0.133 -0.064,0.494 0.205,0.959 0.468,1.866 0.747,2.805 0.197,0.662 0.394,1.326 0.582,1.991 0.111,0.394 0.2,0.936 -0.023,1.315 -0.203,-0.011 -0.393,-0.076 -0.595,-0.091 -0.093,-0.007 -0.238,0.025 -0.322,-0.007 -0.164,-0.062 -0.334,-0.385 -0.45,-0.517 -0.336,-0.382 -0.64,-0.786 -0.97,-1.173 -0.434,-0.508 -0.951,-1.369 -1.729,-1.435 -0.525,-0.045 -0.546,0.345 -0.949,0.498 -0.325,0.123 -0.678,-0.024 -1.009,-0.046 -0.325,-0.023 -0.46,0.016 -0.577,0.31 -0.03,0.363 -0.037,0.725 -0.018,1.087 0.011,0.264 0.012,0.527 0.001,0.791 -0.013,0.501 -0.06,0.995 -0.192,1.485 -0.086,0.324 -0.176,0.628 -0.191,0.965 -0.011,0.233 0.021,0.473 0.003,0.704 -0.036,0.418 -0.101,0.818 -0.092,1.242 -0.551,-0.951 -1.579,-1.291 -2.521,-1.857 -0.626,-0.376 -1.018,-0.975 -1.594,-1.404 -0.346,-0.257 -0.732,-0.473 -1.071,-0.735 -0.462,-0.36 -0.751,-0.895 -1.086,-1.343 -0.314,-0.421 -0.636,-0.84 -0.967,-1.251 -0.517,-0.643 -1.103,-1.224 -1.616,-1.872 -0.595,-0.751 -1.151,-1.517 -1.835,-2.208 -0.479,-0.485 -2.642,-2.655 -3.234,-1.237 -0.119,0.284 -0.073,0.563 -0.15,0.847 -0.044,0.156 -0.051,0.109 -0.144,0.196 -0.064,-0.014 -0.117,0.008 -0.157,0.07 -0.026,0.1 -0.05,0.203 -0.073,0.304 -0.037,0.285 0.097,0.687 -0.119,0.916 -0.569,-0.145 -0.977,-0.861 -1.291,-1.296 -0.349,-0.487 -0.589,-1.075 -0.854,-1.599 -0.242,-0.477 -0.494,-0.95 -0.736,-1.427 -0.536,-1.052 -1.101,-2.089 -1.568,-3.167 -0.222,-0.512 -0.505,-0.999 -0.647,-1.535 -0.084,-0.32 -0.272,-0.522 -0.467,-0.787 -0.206,-0.279 -0.209,-0.624 -0.427,-0.897 -0.151,-0.19 -0.366,-0.273 -0.535,-0.442 -0.151,-0.15 -0.21,-0.37 -0.254,-0.564 -0.059,-0.257 -0.056,-0.511 -0.067,-0.774 -0.03,-0.713 -0.192,-1.339 -0.411,-1.998 -0.261,-0.312 -0.519,-0.625 -0.83,-0.903 -0.792,-0.709 -1.734,-1.287 -2.705,-1.771 -1.001,-0.498 -1.996,-1.053 -3.035,-1.479 -0.805,-0.329 -1.669,-0.444 -2.495,-0.71 -0.713,-0.231 -1.367,-0.601 -2.046,-0.9 -1.316,-0.583 -2.753,-0.893 -4.172,-1.2 -0.571,-0.124 -1.138,-0.258 -1.71,-0.38 -0.575,-0.122 -1.034,-0.368 -1.513,-0.679 -0.459,-0.298 -0.839,-0.66 -1.232,-1.026 -0.479,-0.444 -1.025,-0.812 -1.54,-1.22 -0.682,-0.542 -1.44,-0.892 -2.206,-1.312 -0.808,-0.444 -1.608,-0.913 -2.399,-1.381 -0.846,-0.502 -1.632,-1.063 -2.381,-1.679 -0.74,-0.61 -1.512,-1.213 -2.088,-1.962 -0.684,-0.89 -1.156,-1.873 -1.737,-2.817 -0.337,-0.548 -0.729,-1.057 -1.116,-1.577 -0.413,-0.555 -0.942,-1.02 -1.347,-1.574 -0.389,-0.534 -0.536,-1.145 -0.671,-1.766 -0.088,-0.405 -0.083,-0.82 -0.209,-1.219 -0.083,-0.263 -0.224,-0.508 -0.287,-0.777 -0.059,-0.259 -0.07,-0.52 -0.108,-0.78 -0.148,-1.014 -0.559,-2.019 -0.95,-2.97 -0.274,-0.664 -0.591,-1.297 -0.74,-1.998 -0.173,-0.814 -0.256,-1.662 -0.324,-2.488 -0.05,-0.617 0.015,-1.234 -0.037,-1.851 -0.053,-0.615 -0.079,-1.222 -0.082,-1.839 -0.005,-1.185 0.385,-2.325 0.597,-3.491 0.22,-1.214 0.535,-2.406 1.069,-3.542 0.582,-1.238 0.912,-2.543 1.388,-3.816 0.241,-0.64 0.512,-1.227 0.813,-1.842 0.186,-0.38 0.282,-0.8 0.486,-1.171 0.085,-0.152 0.18,-0.311 0.301,-0.442 0.095,-0.102 0.268,-0.162 0.236,-0.32 -0.025,0.712 0.043,1.42 -0.062,2.129 -0.115,0.782 -0.296,1.554 -0.424,2.335 -0.154,0.936 -0.202,1.894 -0.204,2.84 0,0.899 0.215,1.825 0.085,2.719 -0.054,0.379 -0.194,0.756 -0.19,1.14 0.005,0.375 0.116,0.736 0.279,1.077 0.287,0.595 0.494,1.246 0.712,1.867 0.124,0.351 0.236,0.708 0.344,1.064 0.119,0.395 0.119,0.747 0.137,1.152 0.018,0.436 0.326,0.865 0.545,1.244 0.065,0.11 0.114,0.265 0.205,0.348 0.073,0.068 0.236,0.128 0.325,0.199 0.123,0.096 0.223,0.219 0.351,0.308 0.181,0.126 0.41,0.112 0.605,0.209 0.373,0.186 0.761,0.556 1.006,0.869 0.334,0.424 0.331,1.011 0.477,1.496 0.259,0.857 0.816,1.699 1.25,2.491 0.259,0.472 0.587,0.912 0.806,1.401 0.239,0.53 0.406,1.088 0.734,1.581 0.499,0.749 1.116,1.419 1.61,2.167 0.45,0.68 0.904,1.353 1.393,2.009 0.685,0.922 1.689,1.659 2.684,2.277 0.562,0.349 1.064,0.737 1.555,1.156 0.202,0.173 0.451,0.38 0.688,0.509 0.266,0.145 0.544,0.211 0.802,0.381 0.291,0.19 0.638,0.258 0.939,0.425 0.169,0.093 0.291,0.233 0.447,0.344 0.668,0.475 1.328,1.013 2.06,1.404 0.387,0.207 0.714,0.297 1.152,0.364 0.322,0.049 0.613,0.126 0.937,0.026 1.003,-0.31 2.08,-1.227 1.874,-2.267 -0.149,-0.756 -0.699,-1.601 -1.189,-2.218 -0.612,-0.772 -1.205,-1.499 -1.949,-2.172 -0.555,-0.501 -1.068,-1.042 -1.629,-1.54 -0.713,-0.634 -0.815,-1.403 -1.221,-2.184 -0.242,-0.464 -0.462,-0.938 -0.721,-1.394 -0.257,-0.452 -0.583,-0.884 -0.775,-1.365 -0.188,-0.469 -0.347,-0.928 -0.577,-1.385 -0.251,-0.502 -0.526,-0.99 -0.804,-1.478 -0.42,-0.733 -0.823,-1.464 -1.274,-2.18 -0.168,-0.267 -0.317,-0.543 -0.493,-0.806 -0.224,-0.332 -0.489,-0.653 -0.634,-1.023 -0.094,-0.241 -0.133,-0.488 -0.183,-0.738 -0.084,-0.417 -0.267,-0.765 -0.425,-1.162 -0.292,-0.741 -0.327,-1.545 -0.559,-2.304 -0.225,-0.734 -0.248,-1.59 -0.243,-2.348 0.005,-0.909 0.037,-1.811 -0.096,-2.714 -0.06,-0.408 -0.083,-0.802 -0.106,-1.214 -0.025,-0.459 -0.126,-0.912 -0.168,-1.371 -0.051,-0.575 -0.08,-1.198 -0.004,-1.77 0.06,-0.454 0.246,-0.885 0.318,-1.339 0.028,-0.177 0.035,-0.368 0.074,-0.544 0.064,-0.286 0.234,-0.539 0.312,-0.82 0.103,-0.376 0.087,-0.78 0.132,-1.166 0.125,-1.12 0.433,-2.249 1.004,-3.256 0.243,-0.428 0.391,-0.873 0.603,-1.31 0.174,-0.356 0.46,-0.636 0.674,-0.971 0.222,-0.348 0.367,-0.736 0.557,-1.098 0.116,-0.22 0.199,-0.555 0.415,-0.715 0.222,0.031 0.198,0.42 0.201,0.566 0.007,0.455 -0.025,0.907 0.014,1.363 0.033,0.397 0.062,0.783 0.071,1.182 0.012,0.592 0.151,1.18 0.222,1.768 0.151,1.263 0.328,2.52 0.445,3.787 0.113,1.227 0.219,2.454 0.563,3.651 0.132,0.456 0.381,0.876 0.523,1.331 0.155,0.491 0.294,0.981 0.487,1.462 0.222,0.556 0.506,1.088 0.77,1.629 0.285,0.582 0.731,1.046 1.134,1.561 0.557,0.712 1.219,1.414 1.958,1.972 0.223,0.168 0.461,0.384 0.732,0.483 0.237,0.086 0.459,0.016 0.705,0.056 0.346,0.057 0.608,0.292 0.833,0.519 0.328,0.331 0.688,0.599 1.068,0.881 0.779,0.58 1.339,1.339 1.855,2.117 0.327,0.493 0.43,1.078 0.7,1.596 0.306,0.588 0.416,1.266 0.806,1.815 0.351,0.495 0.584,1.137 0.666,1.723 0.027,0.192 -0.015,0.391 0.029,0.58 0.066,0.289 0.241,0.559 0.32,0.848 0.185,0.676 0.087,1.368 0.393,2.018 0.323,0.692 0.58,1.406 0.906,2.095 0.263,0.559 0.554,1.117 0.858,1.658 0.173,0.309 0.426,0.577 0.616,0.879 0.189,0.301 0.363,0.617 0.51,0.936 0.485,1.047 0.861,2.146 1.61,3.074 0.287,0.356 0.575,0.713 0.86,1.07 0.131,0.163 0.344,0.29 0.443,0.473 0.059,0.106 0.035,0.294 0.12,0.386 0.156,0.169 0.517,0.068 0.717,0.04 0.581,-0.083 1.227,-0.152 1.728,-0.44 0.408,-0.234 0.498,-0.606 0.458,-1.049 -0.034,-0.369 -0.085,-0.722 -0.082,-1.095 0.003,-0.296 0.024,-0.598 -0.003,-0.892 -0.086,-0.936 -0.443,-1.845 -0.709,-2.745 -0.137,-0.466 -0.216,-0.919 -0.282,-1.394 -0.077,-0.541 -0.255,-1.067 -0.375,-1.6 -0.207,-0.916 -0.46,-1.822 -0.674,-2.738 -0.187,-0.8 -0.608,-1.534 -0.792,-2.336 -0.184,-0.798 -0.33,-1.596 -0.537,-2.393 -0.118,-0.451 -0.133,-0.899 -0.154,-1.36 -0.02,-0.425 -0.096,-0.847 -0.138,-1.27 -0.078,-0.768 -0.063,-1.558 -0.049,-2.33 0.005,-0.306 0.093,-0.592 0.106,-0.895 0.011,-0.26 -0.006,-0.495 0.044,-0.754 0.106,-0.56 -0.041,-1.141 0.101,-1.694 0.082,-0.319 0.245,-0.616 0.338,-0.931 0.154,-0.527 0.196,-1.079 0.407,-1.591 0.206,-0.499 0.424,-0.971 0.53,-1.5 0.134,-0.673 0.156,-1.356 0.147,-2.039 -0.014,-0.846 -0.129,-1.675 -0.248,-2.513 -0.103,-0.722 -0.051,-1.454 -0.145,-2.178 -0.089,-0.696 -0.243,-1.382 -0.304,-2.081 -0.059,-0.678 -0.104,-1.357 -0.165,-2.034 -0.122,-1.344 -0.352,-2.693 -0.554,-4.029 -0.079,-0.521 -0.123,-1.046 -0.254,-1.56 -0.055,-0.216 -0.274,-0.585 -0.182,-0.808 0.15,0.111 0.195,0.289 0.269,0.442 0.154,0.323 0.422,0.56 0.643,0.845 0.597,0.771 1.113,1.601 1.624,2.421 0.494,0.793 0.939,1.557 1.228,2.432 0.303,0.917 0.791,1.794 1.154,2.695 0.335,0.828 0.44,1.682 0.871,2.479 0.267,0.489 0.536,0.942 0.719,1.464 0.152,0.433 0.304,0.857 0.498,1.276 0.364,0.792 0.644,1.583 0.884,2.412 0.236,0.817 0.693,1.597 1.056,2.375 0.338,0.725 0.527,1.475 0.919,2.183 0.201,0.359 0.468,0.678 0.684,1.027 0.244,0.397 0.333,0.839 0.446,1.278 0.24,0.933 0.562,1.87 0.905,2.776 0.179,0.472 0.424,0.924 0.572,1.405 0.165,0.541 0.253,1.119 0.308,1.678 0.042,0.415 0.137,0.825 0.178,1.24 0.045,0.45 -0.01,0.889 0.005,1.337 0.03,0.909 0.355,1.848 0.575,2.736 0.109,0.43 0.226,0.863 0.296,1.302 0.056,0.343 0.045,0.707 0.118,1.046 0.078,0.367 0.284,0.705 0.397,1.066 0.148,0.466 0.022,0.871 -0.007,1.345 -0.022,0.359 -0.029,0.735 -0.116,1.086 -0.065,0.257 -0.192,0.49 -0.254,0.748 -0.122,0.494 -0.125,0.89 -0.02,1.397 0.126,0.602 0.124,1.213 0.212,1.817 0.084,0.578 0.317,1.191 0.64,1.688 0.244,0.375 0.508,0.75 0.736,1.13 0.211,0.347 0.285,0.664 0.694,0.847 0.633,0.284 1.235,0.627 1.824,0.986 1.154,0.703 2.562,0.816 3.892,1.009 0.525,0.077 1.026,0.254 1.553,0.309 0.473,0.05 0.96,-0.004 1.43,-0.049 0.385,-0.036 0.742,-0.084 1.112,-0.176 0.72,-0.179 1.368,-0.544 2.085,-0.733 0.456,-0.12 0.879,-0.147 1.289,-0.39 0.281,-0.166 0.491,-0.373 0.667,-0.625 0.178,-0.252 0.347,-0.515 0.526,-0.768 0.21,-0.297 0.193,-0.585 0.275,-0.919 0.132,-0.534 0.523,-0.85 0.84,-1.299 0.228,-0.325 0.393,-0.68 0.622,-1.006 0.284,-0.407 0.626,-0.757 1.005,-1.089 0.389,-0.345 0.794,-0.674 1.185,-1.015 0.577,-0.502 0.747,-1.07 1.092,-1.695 0.313,-0.569 0.871,-1.137 1.462,-1.471 0.603,-0.343 0.998,-0.598 1.324,-1.186 0.408,-0.733 0.575,-1.559 0.901,-2.322 0.631,-1.481 0.916,-3.168 0.61,-4.743 -0.078,-0.405 -0.062,-0.796 -0.113,-1.2 -0.062,-0.479 -0.19,-0.95 -0.257,-1.429 -0.048,-0.334 -0.112,-0.672 -0.12,-1.01 -0.008,-0.293 -0.075,-0.575 -0.088,-0.86 0.361,0.442 0.422,1.108 0.599,1.618 0.327,0.935 0.79,1.818 1.097,2.762 0.29,0.893 0.605,1.801 0.82,2.71 0.204,0.864 0.25,1.741 0.309,2.619 0.06,0.892 0.099,1.776 0.097,2.669 0,0.484 0.066,1 -0.017,1.479 m -48.399,24.803 c -0.14,0.078 -0.222,0.14 -0.385,0.159 -0.482,0.05 -0.911,-0.085 -1.374,-0.164 -0.717,-0.124 -1.429,-0.083 -2.155,-0.102 -0.463,-0.012 -0.91,-0.088 -1.376,-0.091 -0.485,-0.004 -0.964,-0.061 -1.442,-0.137 -0.761,-0.121 -1.324,-0.477 -2.014,-0.78 -0.762,-0.334 -1.507,-0.611 -2.225,-1.037 -0.709,-0.421 -1.428,-0.838 -2.154,-1.227 -0.693,-0.374 -1.367,-0.682 -2.023,-1.128 -0.651,-0.443 -1.326,-0.852 -1.981,-1.29 -0.583,-0.391 -1.143,-0.736 -1.559,-1.315 -0.455,-0.637 -0.945,-1.342 -1.184,-2.097 -0.042,-0.132 -0.095,-0.403 -0.181,-0.61 -0.07,-0.083 -0.138,-0.166 -0.191,-0.252 0.081,0.03 0.141,0.133 0.191,0.252 0.275,0.329 0.652,0.637 0.949,0.896 0.553,0.482 1.129,0.953 1.713,1.398 0.442,0.337 0.875,0.684 1.362,0.957 0.777,0.433 1.608,0.628 2.433,0.939 0.628,0.237 1.226,0.545 1.849,0.794 0.689,0.275 1.417,0.436 2.1,0.723 0.844,0.355 1.629,0.742 2.521,0.977 0.951,0.249 1.886,0.526 2.873,0.529 0.485,0.003 0.94,0.183 1.421,0.192 0.267,0.004 0.492,-0.038 0.758,0.023 0.461,0.109 0.872,0.347 1.272,0.589 0.325,0.196 0.68,0.344 0.984,0.573 0.147,0.112 0.308,0.226 0.447,0.343 0.153,0.128 0.179,0.233 0.261,0.419 -0.481,0.35 -0.691,0.352 -0.89,0.467 M -73.951,-36.1 c 0.254,-0.371 0.514,-0.73 0.783,-1.091 0.588,-0.79 1.191,-1.56 1.849,-2.294 0.194,-0.219 0.401,-0.42 0.574,-0.659 0.129,-0.175 0.223,-0.375 0.371,-0.537 0.24,-0.265 0.479,-0.525 0.716,-0.796 0.327,-0.375 0.628,-0.805 0.906,-1.219 0.37,-0.552 0.871,-0.983 1.228,-1.544 0.294,-0.461 0.745,-0.829 1.128,-1.214 0.385,-0.383 0.771,-0.767 1.154,-1.152 0.471,-0.473 0.96,-0.927 1.499,-1.325 0.388,-0.288 0.838,-0.473 1.202,-0.793 0.241,-0.211 0.43,-0.464 0.697,-0.64 0.25,-0.165 0.519,-0.298 0.781,-0.442 0.43,-0.235 0.792,-0.519 1.25,-0.715 0.255,-0.109 0.474,-0.264 0.725,-0.38 0.264,-0.123 0.538,-0.201 0.787,-0.356 0.948,-0.589 2.114,-0.734 3.151,-1.109 0.322,-0.115 0.657,-0.182 0.976,-0.303 0.279,-0.106 0.531,-0.266 0.807,-0.379 0.501,-0.208 1.03,-0.392 1.552,-0.542 1.138,-0.325 2.302,-0.783 3.484,-0.913 0.346,-0.038 0.659,-0.022 1,-0.101 0.315,-0.075 0.62,-0.155 0.939,-0.209 0.552,-0.093 1.106,-0.062 1.664,-0.062 2.218,0 4.421,0.201 6.589,0.686 0.788,0.176 1.588,0.291 2.375,0.473 0.481,0.112 0.978,0.091 1.462,0.194 1.182,0.248 2.345,0.577 3.522,0.846 0.486,0.111 0.974,0.201 1.445,0.373 0.271,0.099 0.516,0.229 0.779,0.343 0.247,0.106 0.497,0.146 0.749,0.231 0.491,0.167 0.968,0.371 1.459,0.538 0.52,0.176 1.045,0.381 1.547,0.601 2.743,1.199 5.349,2.774 7.803,4.492 0.523,0.367 1.003,0.778 1.505,1.174 0.578,0.456 1.073,0.994 1.65,1.448 0.478,0.374 0.913,0.82 1.304,1.282 0.547,0.648 1.199,1.173 1.762,1.805 1.005,1.132 2.053,2.202 2.93,3.441 0.371,0.523 0.743,1.102 1.018,1.682 0.323,0.685 0.72,1.333 1.072,2.005 0.4,0.762 0.683,1.575 0.965,2.386 0.29,0.832 0.66,1.626 0.916,2.471 0.188,0.618 0.424,1.188 0.515,1.828 0.097,0.692 0.317,1.394 0.34,2.092 0.042,1.201 0.035,2.44 -10e-4,3.643 -0.009,0.295 -0.065,0.586 -0.119,0.875 -0.038,0.204 -0.01,0.462 -0.061,0.654 -0.051,0.194 -0.088,0.311 -0.091,0.518 l 0.177,-2.577 c -0.222,0.876 -0.324,1.764 -0.31,2.664 0.009,0.233 0.018,0.464 0.026,0.697 0.004,0.489 -0.002,1.021 -0.322,1.419 -0.203,0.255 -0.573,0.43 -0.804,0.668 -0.088,0.091 -0.281,0.408 -0.443,0.438 -0.237,-0.859 -0.345,-1.789 -0.673,-2.619 -0.158,-0.401 -0.404,-0.653 -0.723,-0.931 -0.167,-0.146 -0.332,-0.334 -0.538,-0.419 -0.406,-0.168 -1.011,-0.067 -1.354,0.179 -0.306,0.222 -0.321,0.436 -0.19,0.754 0.228,0.56 0.396,1.105 0.36,1.716 -0.044,0.726 -0.276,1.418 -0.391,2.134 -0.057,0.365 0.009,0.828 -0.149,1.171 -0.09,0.193 -0.338,0.235 -0.456,0.386 -0.321,0.407 -0.255,1.098 -0.252,1.57 0.005,0.834 0.134,1.67 0.088,2.504 -0.026,0.479 -0.079,0.954 -0.282,1.393 -0.13,0.278 -0.281,0.534 -0.386,0.825 -0.331,0.9 -0.436,1.901 -1.001,2.702 -0.287,0.407 -0.699,0.73 -0.955,1.164 -0.28,0.476 -0.384,1.04 -0.531,1.562 -0.151,0.53 -0.291,1.103 -0.579,1.579 -0.252,0.417 -0.625,0.765 -0.932,1.139 -0.634,0.774 -1.039,1.853 -1.923,2.38 -0.377,0.226 -0.831,0.355 -1.226,0.542 -0.213,0.101 -0.393,0.209 -0.625,0.249 -0.062,-0.333 0,-0.707 -0.017,-1.05 -0.026,-0.528 -0.104,-1.076 -0.26,-1.584 -0.18,-0.584 0.003,-1.15 0.228,-1.705 0.147,-0.365 0.367,-0.666 0.567,-0.999 0.204,-0.339 0.259,-0.703 0.364,-1.076 0.235,-0.839 0.322,-1.716 0.978,-2.344 0.269,-0.148 0.497,-0.343 0.682,-0.584 -0.009,-0.124 -0.019,-0.247 -0.03,-0.371 -0.079,-0.472 -0.594,-1.211 -0.944,-1.506 -0.972,-0.818 -2.217,-1.031 -3.436,-1.191 -0.663,-0.087 -1.469,-0.18 -2.138,-0.143 -0.662,0.037 -1.302,0.302 -1.959,0.306 -0.313,10e-4 -0.66,0 -0.92,-0.188 -0.346,-0.249 -0.443,-0.803 -0.576,-1.19 -0.28,-0.808 -0.561,-1.619 -0.827,-2.43 -0.135,-0.414 -0.247,-0.814 -0.246,-1.254 0.002,-0.621 0.349,-1.289 0.534,-1.881 0.078,-0.254 0.229,-0.489 0.257,-0.757 0.046,-0.43 -0.035,-0.877 -0.122,-1.296 -0.076,-0.367 -0.168,-0.733 -0.213,-1.107 -0.02,-0.168 -0.073,-0.597 -0.005,-0.791 0.07,-0.196 0.277,-0.322 0.356,-0.519 0.078,-0.189 0.034,-0.411 0.131,-0.59 0.101,-0.188 0.319,-0.306 0.478,-0.451 0.29,-0.268 0.55,-0.571 0.792,-0.884 0.293,-0.378 0.537,-0.784 0.966,-1.021 0.48,-0.265 1.03,-0.225 1.503,-0.519 0.468,-0.291 0.765,-0.771 1.218,-1.073 0.348,-0.233 0.72,-0.163 1.103,-0.159 -0.163,-0.252 -0.68,-0.448 -0.918,-0.537 -0.264,-0.1 -0.537,-0.182 -0.808,-0.255 -0.658,-0.178 -1.367,-0.21 -1.883,0.313 -0.21,0.213 -0.37,0.463 -0.599,0.654 -0.199,0.165 -0.433,0.259 -0.666,0.366 -0.347,0.16 -0.793,0.236 -1.115,0.435 -0.191,0.118 -0.246,0.255 -0.475,0.302 -0.201,0.041 -0.376,-0.024 -0.565,-0.109 -0.409,-0.185 -0.755,-0.502 -1.159,-0.7 0.017,0.009 -0.341,-0.124 -0.355,-0.14 -0.115,-0.148 -0.057,-0.421 -0.054,-0.605 0.006,-0.393 0.022,-0.858 -0.188,-1.209 -0.363,-0.606 -1.026,0.213 -1.437,-0.371 -0.375,-0.53 -0.65,-1.329 -0.601,-1.979 0.024,-0.3 0.166,-0.666 0.35,-0.912 0.105,-0.141 0.145,-0.131 0.32,-0.138 0.171,-0.008 0.181,0.004 0.272,-0.142 0.117,-0.184 0.212,-0.423 0.305,-0.621 0.167,-0.361 0.438,-0.788 0.447,-1.186 0.003,-0.135 -0.002,-0.256 -0.025,-0.387 -0.063,-0.362 -0.046,-0.637 0.062,-0.99 0.103,-0.344 0.199,-0.686 0.407,-0.977 0.152,-0.214 0.165,-0.377 0.227,-0.632 0.06,-0.239 0.263,-0.475 0.281,-0.722 0.029,-0.389 -0.342,-0.733 -0.686,-0.813 -0.78,-0.182 -1.129,0.221 -1.603,0.752 -0.427,0.48 -0.803,0.958 -1.139,1.507 -0.314,0.511 -0.639,0.925 -1.113,1.293 -0.19,0.146 -0.34,0.337 -0.606,0.206 -0.175,-0.086 -0.35,-0.296 -0.477,-0.437 -0.223,-0.247 -0.417,-0.438 -0.409,-0.777 0.016,-0.588 0.399,-1.012 0.579,-1.537 0.071,-0.21 0.068,-0.416 0.047,-0.637 -0.02,-0.214 -0.148,-0.52 -0.089,-0.735 0.036,-0.128 0.125,-0.11 0.168,-0.195 0.073,-0.141 0.078,-0.445 0.099,-0.606 0.064,-0.487 -0.068,-0.973 0.088,-1.452 0.086,-0.263 0.241,-0.502 0.322,-0.765 0.112,-0.358 0.045,-0.855 0.398,-1.067 0.257,-0.153 0.567,-0.096 0.84,-0.264 0.133,-0.083 0.239,-0.202 0.328,-0.329 0.117,-0.167 0.225,-0.313 0.09,-0.473 -0.073,-0.087 -0.346,-0.2 -0.431,-0.249 -0.201,-0.118 -0.399,-0.244 -0.601,-0.357 -0.224,-0.123 -0.39,-0.185 -0.633,-0.209 -0.19,-0.018 -0.293,-0.038 -0.474,-0.126 -0.257,-0.126 -0.532,-0.194 -0.792,-0.309 -0.165,-0.073 -0.519,-0.289 -0.534,-0.483 -0.013,-0.154 0.067,-0.367 0.075,-0.538 0.012,-0.328 0.037,-0.638 0.139,-0.952 0.086,-0.266 0.226,-0.513 0.312,-0.779 0.097,-0.3 0.156,-0.733 -0.057,-0.992 -0.235,-0.289 -0.672,-0.315 -1.022,-0.362 -0.73,-0.098 -1.455,-0.273 -2.183,-0.39 -0.502,-0.08 -1.026,-0.129 -1.496,-0.332 -0.412,-0.176 -0.765,-0.445 -1.198,-0.557 -0.41,-0.106 -0.97,-0.263 -1.349,0.02 -0.149,0.111 -0.195,0.263 -0.381,0.335 -0.149,0.058 -0.313,0.041 -0.469,0.046 -0.365,0.012 -0.703,0.026 -1.068,0.089 -0.507,0.089 -0.982,0.094 -1.498,0.081 -0.308,-0.008 -0.614,-0.037 -0.892,0.116 -0.157,0.087 -0.236,0.179 -0.364,0.301 -0.147,0.139 -0.313,0.2 -0.386,0.391 -0.113,0.3 -0.112,0.504 -0.422,0.697 -0.457,0.285 -1.044,0.377 -1.566,0.378 -0.204,0 -0.407,-0.005 -0.611,-0.008 0.006,0 -0.245,-0.021 -0.267,-0.007 -0.086,0.057 -0.084,0.174 -0.106,0.28 -0.058,0.291 -0.1,0.54 -0.244,0.802 -0.335,0.613 -0.569,1.518 -0.35,2.206 0.131,0.412 0.381,0.77 0.547,1.165 0.187,0.45 0,0.773 -0.361,1.07 -0.469,0.385 -1.044,0.658 -1.538,1.01 -0.504,0.359 -0.97,0.72 -1.591,0.845 -0.66,0.134 -1.316,-0.223 -1.858,-0.556 -0.096,-0.059 -0.581,-0.305 -0.513,-0.487 0.012,-0.03 0.145,-0.072 0.173,-0.095 0.089,-0.075 0.135,-0.165 0.163,-0.281 0.068,-0.274 0.014,-0.6 0.014,-0.881 -10e-4,-0.425 -0.02,-0.822 -0.103,-1.241 -0.484,-0.037 -0.934,-0.292 -1.39,-0.425 -0.34,-0.101 -0.404,-0.387 -0.364,-0.729 0.05,-0.428 0.23,-0.795 0.153,-1.238 -0.047,-0.264 -0.113,-1.359 -0.518,-1.362 -0.063,0.016 -0.121,0.044 -0.174,0.083 -0.08,0.024 -0.161,0.029 -0.244,0.017 -0.26,0.038 -0.548,0.096 -0.799,0.17 -0.43,0.13 -0.893,0.355 -1.291,0.559 -0.456,0.236 -0.967,0.437 -1.403,0.703 -0.335,0.205 -0.627,0.49 -0.874,0.793 -0.121,0.179 -0.247,0.354 -0.38,0.523 -0.158,0.144 -0.341,0.239 -0.549,0.288 -0.542,0.229 -1.003,0.599 -1.516,0.88 -0.43,0.236 -0.615,0.389 -0.852,0.813 -0.218,0.393 -0.527,0.628 -0.804,0.968 -0.279,0.341 -0.404,0.842 -0.777,1.093 -0.276,0.186 -0.499,0.271 -0.654,0.588 -0.103,0.21 -0.154,0.433 -0.259,0.644 -0.047,0.105 -0.085,0.214 -0.115,0.325 -0.117,0.172 -0.258,0.323 -0.422,0.453 -0.259,0.258 -0.401,0.435 -0.358,0.805 0.055,0.486 0.597,0.499 0.978,0.612 0.295,0.088 1.432,0.349 1.421,0.731 -0.005,0.177 -0.271,0.374 -0.328,0.549 -0.101,0.306 -0.175,0.672 -0.2,0.992 -0.039,0.519 -0.042,1.148 -0.351,1.573 -0.209,0.288 -0.33,0.627 -0.469,0.952 -0.093,0.217 -0.078,0.395 -0.3,0.528 -0.175,0.106 -0.456,0.078 -0.652,0.115 -0.123,0.32 0.351,0.562 0.361,0.873 0.007,0.216 0.033,0.505 -0.022,0.715 -0.047,0.179 -0.197,0.301 -0.241,0.484 -0.041,0.177 0.001,0.36 -0.028,0.539 -0.037,0.221 -0.104,0.258 -0.229,0.42 -0.232,0.304 -0.354,0.566 -0.395,0.945 -0.04,0.363 -0.206,0.574 -0.341,0.895 -0.101,0.241 -0.13,0.593 -0.175,0.828 -0.089,0.459 -0.208,0.831 -0.425,1.241 -0.145,0.276 -0.183,0.559 -0.279,0.851 -0.134,0.405 -0.429,0.681 -0.728,0.972 -0.337,0.326 -0.568,0.566 -1.052,0.574 -0.363,0.005 -0.728,-0.022 -1.092,-0.019 -0.112,0 -0.315,0.037 -0.428,-0.014 -0.309,-0.137 -0.002,-0.432 0.009,-0.673 0.014,-0.303 -0.034,-0.614 -0.009,-0.916 0.017,-0.192 0.082,-0.358 0.095,-0.553 0.01,-0.173 0.006,-0.251 0.081,-0.418 0.135,-0.298 0.267,-0.474 0.279,-0.817 0.007,-0.195 0.007,-0.412 0,-0.609 -0.026,-0.744 -0.474,-1.4 -0.454,-2.134 0.008,-0.285 -0.04,-0.594 0.022,-0.874 0.031,-0.139 0.108,-0.259 0.16,-0.388 0.102,-0.256 0.169,-0.532 0.286,-0.782 0.111,-0.235 0.166,-0.316 0.157,-0.593 -0.007,-0.251 0.04,-0.47 0.07,-0.719 0.056,-0.448 -0.005,-0.9 0.015,-1.351 0.019,-0.406 0.093,-0.794 0.094,-1.203 0,-0.326 0.018,-0.608 -0.087,-0.914 -0.069,-0.198 -0.224,-0.361 -0.275,-0.551 -0.134,-0.499 0.243,-1.042 -0.252,-1.403 -0.303,-0.219 -0.655,-0.305 -0.994,-0.443 -0.11,-0.045 -0.317,-0.078 -0.356,-0.192 -0.068,-0.197 0.176,-0.642 0.271,-0.782 M 30.924,1.358 c -0.167,-0.502 -0.368,-1.019 -0.391,-1.537 -0.019,-0.442 0.345,-0.921 0.274,-1.339 -0.213,-1.249 -0.556,-2.474 -0.848,-3.71 -0.084,0.017 -0.167,0.035 -0.251,0.051 -0.021,0.245 -0.044,0.49 -0.066,0.735 -0.259,-0.406 -0.459,-0.835 -0.439,-1.253 0.058,-1.162 0.217,-2.319 0.318,-3.479 0.164,-1.854 0.426,-3.678 -0.225,-5.542 -0.727,-2.08 -1.317,-4.222 -1.424,-6.459 -0.04,-0.831 -0.171,-1.659 -0.289,-2.484 -0.092,-0.647 -0.208,-1.291 -0.352,-1.928 -0.087,-0.388 -0.259,-0.756 -0.374,-1.139 -0.174,-0.586 -0.353,-1.174 -0.485,-1.771 -0.046,-0.204 0.148,-0.502 0.057,-0.649 -0.82,-1.335 -0.984,-2.877 -1.419,-4.333 -0.064,-0.213 -0.127,-0.451 -0.266,-0.614 -0.614,-0.721 -1.265,-1.411 -1.88,-2.133 -0.118,-0.138 -0.13,-0.367 -0.248,-0.732 -0.992,-1.138 -2.203,-2.358 -3.212,-3.726 -1.395,-1.892 -2.633,-3.9 -3.953,-5.848 -0.222,-0.329 -0.52,-0.607 -0.783,-0.909 -0.595,-0.687 -1.189,-1.375 -1.808,-2.091 0.165,-0.071 0.266,-0.113 0.347,-0.147 -1.312,-1.796 -2.622,-3.589 -3.948,-5.405 -0.075,0.228 -0.134,0.405 -0.193,0.583 -0.061,0.012 -0.122,0.024 -0.183,0.037 -0.301,-0.722 -0.666,-1.425 -0.884,-2.171 -0.184,-0.632 -0.488,-1.03 -1.104,-1.279 -0.408,-0.164 -0.765,-0.472 -1.113,-0.755 -0.318,-0.259 -0.56,-0.616 -0.892,-0.852 -0.932,-0.662 -1.849,-1.368 -2.853,-1.902 -1.426,-0.757 -2.52,-1.866 -3.604,-3.008 -0.593,-0.624 -1.169,-1.266 -1.781,-1.872 -0.205,-0.203 -0.479,-0.399 -0.753,-0.461 -1.896,-0.427 -3.802,-0.811 -5.701,-1.229 -0.313,-0.069 -0.643,-0.179 -0.899,-0.362 -0.947,-0.676 -1.839,-1.431 -2.805,-2.078 -1.132,-0.759 -2.313,-1.446 -3.486,-2.142 -0.588,-0.35 -1.172,-0.801 -1.817,-0.947 -1.847,-0.419 -3.725,-0.709 -5.593,-1.038 -0.194,-0.034 -0.403,0.007 -0.603,0.031 -0.659,0.079 -1.35,0.336 -1.971,0.217 -1.88,-0.36 -3.602,0.247 -5.334,0.734 -0.899,0.254 -1.625,0.025 -2.363,-0.362 -0.095,-0.049 -0.064,-0.338 -0.122,-0.717 -1.445,-0.305 -3.053,-0.739 -4.689,-0.955 -0.973,-0.129 -1.991,0.098 -2.989,0.144 -0.425,0.02 -0.869,0.057 -1.277,-0.036 -0.747,-0.171 -1.473,-0.611 -2.209,-0.617 -1.293,-0.008 -2.586,0.281 -3.883,0.334 -0.58,0.024 -0.681,0.596 -1.086,0.698 -0.76,0.193 -1.546,0.28 -2.321,0.411 -0.002,-0.027 -0.004,-0.053 -0.007,-0.08 0.195,-0.098 0.391,-0.197 0.722,-0.364 -1.49,-0.292 -1.799,-0.193 -2.645,0.727 -0.136,0.148 -0.272,0.349 -0.446,0.402 -0.941,0.291 -1.568,1.072 -2.415,1.505 -0.291,0.148 -0.559,0.343 -0.827,0.531 -0.577,0.405 -1.093,0.966 -1.732,1.202 -2.005,0.743 -4.056,1.364 -6.087,2.037 -0.411,0.136 -0.815,0.294 -1.222,0.442 0.019,0.072 0.038,0.144 0.057,0.216 l 1.128,-0.218 c 0.031,0.068 0.061,0.136 0.092,0.204 -0.374,0.197 -0.728,0.477 -1.126,0.572 -0.583,0.137 -1.203,0.982 -1.804,0.004 -0.025,-0.04 -0.197,-0.015 -0.289,0.015 -1.752,0.57 -3.548,1.044 -5.033,2.215 -0.767,0.606 -1.43,1.463 -2.298,1.793 -1.103,0.42 -1.881,1.123 -2.661,1.907 -0.138,0.138 -0.315,0.237 -0.471,0.358 -0.895,0.687 -1.831,1.327 -2.667,2.078 -0.518,0.465 -0.885,1.096 -1.343,1.683 -0.337,-0.403 -0.436,-0.521 -0.668,-0.798 -0.519,0.591 -0.969,1.139 -1.455,1.652 -1.358,1.435 -2.586,3.002 -4.25,4.128 -0.302,0.205 -0.52,0.547 -0.749,0.847 -0.736,0.967 -1.438,1.96 -2.19,2.914 -1.668,2.117 -3.362,4.21 -4.461,6.707 -0.17,0.386 -0.476,0.712 -0.727,1.061 -0.036,0.05 -0.115,0.07 -0.237,0.141 0.047,-0.226 0.081,-0.394 0.117,-0.561 -0.417,0.277 -0.793,0.599 -0.918,0.999 -0.486,1.558 -0.897,3.14 -1.328,4.716 -0.278,1.016 -0.417,2.09 -0.836,3.043 -0.896,2.041 -1.913,4.031 -2.929,6.017 -0.206,0.405 -0.737,0.655 -0.913,1.064 -0.381,0.892 -0.716,1.822 -0.912,2.769 -0.367,1.764 -0.606,3.555 -0.935,5.328 -0.091,0.491 -0.407,0.946 -0.464,1.435 -0.326,2.787 -0.131,5.632 -1.065,8.35 -0.63,1.832 -0.342,3.787 0.003,5.56 0.57,2.922 0.606,5.827 0.663,8.761 0.014,0.712 0.289,1.432 0.526,2.121 0.443,1.283 0.948,2.545 1.421,3.818 0.041,0.108 0.073,0.247 0.042,0.352 -0.162,0.541 -0.286,1.125 0.243,1.484 0.996,0.679 1.306,1.62 1.275,2.751 -0.004,0.174 0.061,0.349 0.091,0.523 0.502,2.997 1.727,5.733 3.131,8.386 0.887,1.676 1.932,3.268 2.893,4.904 0.447,0.764 0.869,1.542 1.289,2.322 0.433,0.801 0.714,1.731 1.301,2.394 1.122,1.269 2.351,2.463 3.652,3.55 1.475,1.234 3.144,2.19 4.261,3.881 0.78,1.181 2.05,2.026 2.964,3.134 1.451,1.756 2.771,3.62 4.189,5.405 0.254,0.319 0.697,0.634 1.082,0.676 1.205,0.131 2.425,0.178 3.638,0.174 25.771,-0.101 51.543,-0.213 77.313,-0.326 0.558,-0.003 1.118,0.001 1.671,-0.052 0.226,-0.022 0.517,-0.13 0.644,-0.299 1.19,-1.604 2.347,-3.232 3.526,-4.844 0.174,-0.237 0.386,-0.463 0.623,-0.635 0.872,-0.632 1.763,-1.238 2.647,-1.854 0.161,-0.112 0.308,-0.284 0.487,-0.328 2.105,-0.52 3.828,-1.476 4.578,-3.693 0.258,-0.763 0.619,-1.498 0.994,-2.214 0.539,-1.029 1.055,-2.085 1.723,-3.027 1.229,-1.734 2.569,-3.39 3.847,-5.09 0.209,-0.277 0.375,-0.601 0.498,-0.928 1.455,-3.859 2.904,-7.713 4.83,-11.38 0.517,-0.986 0.802,-2.262 0.708,-3.364 -0.202,-2.361 0.024,-4.582 1.066,-6.712 0.145,-0.294 0.245,-0.61 0.371,-0.914 0.528,-1.276 0.98,-2.592 1.62,-3.809 0.311,-0.589 0.578,-1.069 0.357,-1.732"
               style="fill:#110f0d;fill-opacity:1;fill-rule:nonzero;stroke:none"
               id="path1699" />
          </g>
        </g>
        <g
           id="g1701"
           transform="matrix(0.1531793,0,0,-0.1519643,161.59476,393.78683)">
          <g
             id="g1703"
             transform="translate(-2.6172,29.4498)">
            <path
               d="M 0,0 0.441,1.032 C 0.426,0.705 0.413,0.482 0.191,0.227 0.125,0.151 0.063,0.076 0,0"
               style="fill:#110f0d;fill-opacity:1;fill-rule:nonzero;stroke:none"
               id="path1705" />
          </g>
        </g>
        <g
           id="g1707"
           transform="matrix(0.1531793,0,0,-0.1519643,161.59476,393.78683)">
          <g
             id="g1709"
             transform="translate(-39.4546,60.2633)">
            <path
               d="M 0,0 C 0.63,0.581 1.242,1.179 1.892,1.742 2.109,1.931 2.4,2.112 2.69,2.17 4.705,2.568 6.729,2.926 8.747,3.313 9.079,3.378 9.429,3.48 9.702,3.65 c 1.006,0.629 1.953,1.332 2.978,1.934 1.203,0.705 2.457,1.345 3.703,1.992 0.625,0.325 1.245,0.745 1.929,0.881 1.963,0.39 3.958,0.66 5.941,0.966 0.206,0.031 0.429,-0.007 0.641,-0.029 0.7,-0.074 1.434,-0.313 2.093,-0.203 1.997,0.336 3.826,-0.229 5.665,-0.682 0.955,-0.237 1.726,-0.024 2.511,0.337 0.1,0.046 0.067,0.314 0.129,0.667 1.535,0.284 3.242,0.688 4.98,0.888 1.033,0.12 2.114,-0.09 3.175,-0.134 0.452,-0.018 0.924,-0.053 1.356,0.034 0.794,0.158 1.565,0.568 2.347,0.573 1.373,0.009 2.746,-0.261 4.123,-0.311 0.617,-0.022 0.725,-0.553 1.154,-0.649 0.807,-0.179 1.642,-0.26 2.465,-0.382 0.003,0.025 0.005,0.05 0.008,0.074 -0.208,0.092 -0.415,0.184 -0.768,0.339 1.584,0.272 1.911,0.18 2.81,-0.676 0.144,-0.138 0.29,-0.325 0.475,-0.374 1,-0.27 1.665,-0.998 2.564,-1.4 0.309,-0.138 0.593,-0.319 0.878,-0.494 0.613,-0.377 1.162,-0.898 1.84,-1.118 2.13,-0.692 4.307,-1.269 6.466,-1.895 C 69.601,3.861 70.03,3.715 70.462,3.577 70.442,3.511 70.421,3.443 70.401,3.376 70.001,3.443 69.603,3.512 69.204,3.579 69.17,3.516 69.138,3.452 69.106,3.389 69.502,3.206 69.879,2.945 70.302,2.857 70.92,2.729 71.58,1.943 72.218,2.853 c 0.027,0.038 0.208,0.014 0.306,-0.013 1.861,-0.531 3.769,-0.972 5.347,-2.062 0.815,-0.563 1.518,-1.36 2.439,-1.667 0.676,-0.225 1.231,-0.544 1.742,-0.907 H -2.155 C -1.388,-1.247 -0.687,-0.634 0,0"
               style="fill:#110f0d;fill-opacity:1;fill-rule:nonzero;stroke:none"
               id="path1711" />
          </g>
        </g>
      </g>
    </g>
  </g>
</svg>
