<?xml version="1.0" encoding="UTF-8" standalone="no"?>
<!-- Created with Inkscape (http://www.inkscape.org/) -->

<svg
   width="24.179916"
   height="24"
   viewBox="0 0 6.3976028 6.35"
   version="1.1"
   id="svg7826"
   inkscape:version="1.2.1 (9c6d41e4, 2022-07-14)"
   sodipodi:docname="return-to-union-and-disillusion.svg"
   xmlns:inkscape="http://www.inkscape.org/namespaces/inkscape"
   xmlns:sodipodi="http://sodipodi.sourceforge.net/DTD/sodipodi-0.dtd"
   xmlns="http://www.w3.org/2000/svg"
   xmlns:svg="http://www.w3.org/2000/svg">
  <sodipodi:namedview
     id="namedview7828"
     pagecolor="#505050"
     bordercolor="#eeeeee"
     borderopacity="1"
     inkscape:showpageshadow="0"
     inkscape:pageopacity="0"
     inkscape:pagecheckerboard="0"
     inkscape:deskcolor="#505050"
     inkscape:document-units="mm"
     showgrid="false"
     inkscape:zoom="0.7046647"
     inkscape:cx="14.191146"
     inkscape:cy="105.72404"
     inkscape:window-width="1390"
     inkscape:window-height="941"
     inkscape:window-x="0"
     inkscape:window-y="25"
     inkscape:window-maximized="0"
     inkscape:current-layer="layer1" />
  <defs
     id="defs7823">
    <clipPath
       clipPathUnits="userSpaceOnUse"
       id="clipPath1651">
      <path
         d="m 39.282,382.933 h 22.057 v 21.883 H 39.282 Z"
         id="path1649" />
    </clipPath>
  </defs>
  <g
     inkscape:label="Layer 1"
     inkscape:groupmode="layer"
     id="layer1"
     transform="translate(-101.55847,-120.73145)">
    <g
       id="g1645"
       transform="matrix(0.29700899,0,0,-0.29700899,89.783125,240.8289)">
      <g
         id="g1647"
         clip-path="url(#clipPath1651)">
        <g
           id="g1653"
           transform="matrix(0.1531793,0,0,-0.1519643,50.31089,393.78683)">
          <g
             id="g1655"
             transform="translate(-12.4551,10.0836)">
            <path
               d="m 0,0 c 0.405,-0.225 0.827,-0.407 1.031,-0.496 l 0.23,-0.098 c 0.061,-0.029 -0.012,0.03 0.214,-0.108 l 0.96,-0.557 C 2.752,-1.435 3.07,-1.621 3.462,-1.822 4.203,-2.202 4.729,-2.389 5.161,-2.591 L 7.085,-3.46 8.951,-4.225 c 0.633,-0.252 1.276,-0.494 1.934,-0.713 l 0.993,-0.322 0.937,-0.27 c 1.132,-0.347 2.439,-0.85 3.766,-1.257 l 1.733,-0.573 c 0.109,-0.041 0.207,-0.092 0.225,-0.095 0.006,0.018 0.085,-0.061 0.303,-0.258 0.86,-0.637 0.33,-0.105 0.648,-0.449 0.239,-0.282 0.451,-0.502 0.573,-0.668 l 0.088,-0.127 0.036,-0.065 0.059,-0.112 0.207,-0.404 c 0.178,-0.337 0.384,-1.108 0.578,-1.705 l 0.238,-0.904 0.227,-0.966 c 0.172,-0.663 0.351,-1.314 0.377,-1.757 0.035,-0.487 -0.081,-1.093 -0.119,-1.834 -0.05,-0.519 -0.188,-1.051 -0.382,-1.639 -0.397,-1.213 -0.877,-2.466 -1.229,-3.909 l -0.118,-0.552 -0.052,-0.282 c -0.016,-0.097 -0.028,-0.115 -0.044,-0.183 l -0.242,-0.826 c -0.091,-0.33 -0.19,-0.734 -0.25,-1.201 l -0.135,-1.104 -0.066,-0.533 c -0.04,-0.029 -0.008,-0.749 0.102,-1.098 0.21,-0.798 0.502,-1.267 0.704,-1.641 l 0.076,-0.129 c 0.029,-0.047 0.029,-0.056 0.094,-0.151 0.102,-0.152 0.197,-0.278 0.277,-0.38 0.159,-0.204 0.25,-0.32 0.251,-0.351 l -0.047,0.022 0.063,-0.158 0.165,-0.36 c 0.09,-0.204 0.267,-0.55 0.429,-0.871 l 0.508,-0.953 c 0.254,-0.488 0.391,-0.77 0.616,-1.352 0.19,-0.464 0.394,-0.843 0.573,-1.156 l 0.462,-0.821 c 0.155,-0.286 0.342,-0.606 0.56,-0.952 0.11,-0.173 0.228,-0.353 0.359,-0.536 0.123,-0.173 0.286,-0.399 0.4,-0.518 l 0.741,-0.841 0.374,-0.417 c 0.123,-0.134 0.245,-0.27 0.427,-0.447 0.67,-0.645 1.276,-1.071 1.727,-1.421 l 0.314,-0.244 0.425,-0.31 0.874,-0.631 0.872,-0.626 0.847,-0.576 0.798,-0.529 0.384,-0.254 -1.692,-0.002 2.087,-0.921 -0.711,-0.425 -8.407,-1.997 -5.552,-1.45 -5.277,-1.306 -5.469,1.355 -5.475,0.725 -5.239,1.893 -5.288,1.477 -4.351,3.292 -6.17,5.344 -3.988,7.202 -4.246,7.084 -1.563,7.923 0.01,8.194 1.24,8.026 3.19,7.511 4.392,7.086 4.742,6.85 4.572,2.638 -0.192,-1.375 1.367,1.421 c 0.131,-0.392 0.258,-0.803 0.379,-1.274 l 0.109,-0.431 0.056,-0.223 0.026,-0.138 c 0.031,-0.186 0.057,-0.397 0.086,-0.636 0.056,-0.48 0.091,-1.086 0.161,-1.817 l 0.235,-2.043 0.236,-1.904 c 0.164,-1.258 0.363,-2.55 0.542,-3.775 0.188,-1.242 0.367,-2.649 0.758,-4.152 L -6.372,7.911 C -6.34,7.858 -6.329,7.59 -6.234,6.954 -6.208,6.799 -6.175,6.619 -6.122,6.412 L -6.042,6.124 -6,5.999 -5.807,5.446 C -5.52,4.671 -5.089,3.597 -4.154,2.586 -3.927,2.339 -3.664,2.104 -3.397,1.894 -3.181,1.729 -2.977,1.591 -2.752,1.448 -2.524,1.309 -2.291,1.17 -1.96,1.014 L -1.828,0.953 -1.789,0.938 -1.731,0.917 -1.602,0.863 C -1.237,0.709 -0.712,0.387 0,0"
               style="fill:#110f0d;fill-opacity:1;fill-rule:nonzero;stroke:none"
               id="path1657" />
          </g>
        </g>
        <g
           id="g1659"
           transform="matrix(0.1531793,0,0,-0.1519643,50.31089,393.78683)">
          <g
             id="g1661"
             transform="translate(46.7051,18.3189)">
            <path
               d="m 0,0 -2.506,6.3 -3.478,5.836 -4.504,5.084 -5.047,4.556 -6.011,3.158 -6.2,2.658 -6.481,2.121 -6.819,0.432 -6.849,-0.829 -6.657,-1.681 -6.449,-2.509 0.725,-1.48 1.056,-1.073 1.644,-2.798 0.479,-3.889 0.647,-6.504 0.264,-4.604 1.195,-1.85 -0.187,-1.208 1.024,-2.976 0.939,-0.638 2.075,-1.284 1.557,-0.612 1.514,-0.907 2.005,-1.033 1.509,-1.38 5.35,-1.405 3.811,-1.558 1.412,-0.968 0.773,-0.775 0.326,-0.93 1.142,0.095 0.693,-1.158 -0.352,-1.373 0.372,-1.327 0.451,-1.478 1.448,-1.751 -0.6,-2.411 -0.943,-2.997 0.695,-3.543 -0.439,-2.233 -0.908,-1.518 1.41,-1.079 0.105,-1.18 1.366,-0.441 0.397,-1.662 0.671,-1.694 0.453,-1.755 1.449,-1.58 1.53,-1.169 1.713,-2.036 2.534,-1.558 1.216,-1.76 1.393,-0.537 0.331,-1.031 4.697,5.505 5.808,4.289 3.653,6.179 1.719,6.939 2.358,6.633 -0.111,7.04 0.704,6.83 z m -61.552,17.426 -0.114,0.328 -0.092,0.243 -0.193,0.495 c -0.268,0.671 -0.577,1.406 -0.974,2.123 l -1.114,1.91 c -0.494,0.751 -1.033,1.348 -1.524,1.87 l -0.712,0.727 c -0.256,0.257 -0.517,0.507 -0.78,0.751 -0.529,0.487 -1.063,0.959 -1.626,1.389 -0.559,0.431 -1.11,0.839 -1.742,1.261 -1.227,0.825 -2.503,1.428 -3.739,1.953 -1.242,0.536 -2.419,0.999 -3.732,1.487 -1.324,0.451 -2.673,0.681 -3.913,0.927 l -0.322,-0.596 c 1.117,-0.853 2.222,-1.51 3.186,-2.303 0.955,-0.78 1.992,-1.686 2.987,-2.476 0.988,-0.821 1.905,-1.629 2.689,-2.457 0.371,-0.406 0.776,-0.881 1.152,-1.35 0.371,-0.475 0.744,-0.937 1.086,-1.416 0.172,-0.238 0.338,-0.479 0.498,-0.721 l 0.371,-0.541 -6.13,-3.726 -7.131,-5.797 -4.631,-8.032 -4.855,-8.088 -0.353,-7.699 -0.844,-7.223 0.145,-7.693 2.667,-7.113 3.021,-6.994 8.279,-9.536 4.73,-3.776 5.074,-3.76 6.159,-2.35 5.989,-0.829 9.001,-1.736 8.938,1.684 6.4,0.351 7.474,5.588 2.436,0.842 c 0.181,-0.125 0.359,-0.248 0.516,-0.368 0.482,-0.397 1.058,-0.886 1.626,-1.289 0.288,-0.208 0.584,-0.409 0.883,-0.604 l 0.806,-0.522 c 0.519,-0.339 1.058,-0.68 1.598,-1.012 0.426,-0.25 0.922,-0.759 1.576,-1.21 0.318,-0.215 0.595,-0.327 0.818,-0.472 0.329,-0.268 0.635,-0.373 0.834,-0.517 l 0.556,0.388 c -0.174,0.395 -0.43,0.652 -0.516,0.888 -0.201,0.349 -0.44,0.638 -0.594,0.871 -0.291,0.446 -0.499,1.049 -0.989,1.724 -0.417,0.549 -0.838,1.086 -1.275,1.626 -0.21,0.26 -0.452,0.564 -0.645,0.783 -0.194,0.228 -0.382,0.461 -0.567,0.699 -0.381,0.486 -0.706,0.934 -1.107,1.493 -0.503,0.646 -1.035,1.171 -1.5,1.648 l -0.338,0.345 -0.161,0.163 -0.073,0.077 -0.009,0.023 c -0.036,0.063 -0.202,0.322 -0.58,0.74 -0.166,0.192 -0.516,0.477 -0.577,0.543 l -0.367,0.336 -0.74,0.671 -2.729,2.525 c -0.542,0.49 -0.966,0.863 -1.203,1.152 l -0.481,0.605 -0.525,0.642 c -0.106,0.122 -0.123,0.167 -0.185,0.261 l -0.171,0.284 -0.406,0.74 -0.813,1.457 -0.236,0.502 c -0.092,0.188 -0.188,0.374 -0.289,0.559 -0.194,0.36 -0.452,0.742 -0.659,1.042 l -1.065,1.523 -0.332,0.48 -0.187,0.261 c -0.122,0.164 -0.24,0.3 -0.343,0.409 -0.207,0.218 -0.345,0.333 -0.401,0.374 l -0.03,-0.004 -0.049,0.048 -0.064,0.071 c -0.166,0.159 -0.227,0.247 -0.206,0.075 0.011,-0.038 0.014,-0.431 -0.012,-0.135 l -0.062,0.442 -0.065,0.447 c -0.021,0.128 -0.045,0.344 -0.063,0.4 -0.039,0.182 -0.056,0.425 -0.055,0.737 0,0.311 0.015,0.682 0.005,1.109 -0.003,0.095 -0.006,0.238 -0.014,0.304 l -0.021,0.204 -0.029,0.42 c -0.052,1.142 0.078,2.423 0.23,3.751 0.074,0.683 0.152,1.441 0.088,2.225 -0.045,0.558 -0.023,1.255 -0.129,2.062 -0.137,0.851 -0.404,1.434 -0.552,2.03 l -0.49,1.91 -0.271,0.921 -0.133,0.498 c -0.062,0.221 -0.134,0.414 -0.208,0.589 l -0.208,0.477 -0.122,0.26 c -0.051,0.102 -0.104,0.2 -0.16,0.294 -0.231,0.382 -0.453,0.648 -0.61,0.881 -0.073,0.107 -0.261,0.38 -0.543,0.594 l -0.19,0.135 -0.088,0.055 -0.03,0.022 h 0.03 c -0.019,0.024 -0.144,0.203 -0.394,0.423 -0.236,0.199 -0.423,0.31 -0.603,0.418 l -1.834,1.002 c -1.098,0.539 -2.086,1.273 -3.331,1.98 l -0.858,0.493 -0.782,0.485 c -0.519,0.332 -1.036,0.678 -1.555,1.034 l -3.044,2.125 c -0.668,0.492 -1.315,0.875 -1.698,1.149 l -0.624,0.473 -0.684,0.493 c -0.052,0.03 -0.379,0.296 -0.596,0.434 -0.232,0.155 -0.441,0.278 -0.619,0.379 -0.374,0.211 -0.54,0.307 -0.693,0.418 -0.41,0.272 -0.952,0.698 -1.734,1.158 l -0.303,0.17 -0.162,0.083 -0.071,0.039 0.022,-0.008 -0.048,0.059 -0.139,0.133 0.054,-0.016 c 0.062,-0.037 -0.02,0.12 -0.133,0.574 l -0.093,0.38 -0.026,0.108 0.018,-0.052 0.024,-0.062 c 0.005,0.008 0.002,0.106 -0.003,0.27 l -0.015,0.313 -0.038,0.4 c -0.12,1.02 -0.339,1.738 -0.412,2.196 -0.186,1.036 -0.314,2.215 -0.472,3.548 -0.177,1.351 -0.388,2.629 -0.604,3.943 l -0.345,1.953 c -0.108,0.648 -0.249,1.342 -0.35,1.813 -0.108,0.557 -0.205,1.244 -0.375,2.046 -0.083,0.401 -0.196,0.827 -0.34,1.267 m 85.765,-27.818 c -0.167,-0.502 -0.368,-1.019 -0.391,-1.537 -0.019,-0.442 0.345,-0.921 0.274,-1.339 -0.213,-1.249 -0.556,-2.474 -0.848,-3.71 -0.084,0.017 -0.167,0.035 -0.251,0.051 -0.021,0.245 -0.044,0.49 -0.066,0.735 -0.259,-0.406 -0.459,-0.835 -0.439,-1.253 0.058,-1.162 0.217,-2.319 0.319,-3.479 0.163,-1.854 0.425,-3.678 -0.226,-5.542 -0.727,-2.08 -1.316,-4.222 -1.424,-6.459 -0.04,-0.831 -0.171,-1.659 -0.289,-2.484 -0.092,-0.647 -0.208,-1.291 -0.351,-1.928 -0.088,-0.388 -0.26,-0.756 -0.375,-1.139 -0.174,-0.587 -0.353,-1.174 -0.485,-1.771 -0.046,-0.204 0.148,-0.502 0.057,-0.649 -0.82,-1.335 -0.984,-2.877 -1.419,-4.333 -0.064,-0.213 -0.127,-0.451 -0.266,-0.614 -0.614,-0.721 -1.265,-1.411 -1.88,-2.133 -0.118,-0.138 -0.13,-0.367 -0.248,-0.732 -0.992,-1.138 -2.203,-2.358 -3.212,-3.726 -1.395,-1.892 -2.632,-3.9 -3.953,-5.848 -0.222,-0.329 -0.52,-0.607 -0.783,-0.909 -0.595,-0.687 -1.188,-1.375 -1.808,-2.091 0.165,-0.071 0.266,-0.113 0.347,-0.147 -1.312,-1.796 -2.622,-3.589 -3.948,-5.405 -0.075,0.228 -0.134,0.405 -0.193,0.583 -0.061,0.012 -0.122,0.024 -0.183,0.037 -0.301,-0.722 -0.666,-1.425 -0.884,-2.171 -0.184,-0.632 -0.488,-1.03 -1.104,-1.279 -0.408,-0.164 -0.765,-0.472 -1.113,-0.755 -0.318,-0.259 -0.56,-0.616 -0.892,-0.852 -0.932,-0.662 -1.849,-1.368 -2.853,-1.902 -1.426,-0.757 -2.52,-1.866 -3.604,-3.008 -0.593,-0.624 -1.169,-1.266 -1.781,-1.872 -0.205,-0.203 -0.479,-0.399 -0.753,-0.461 -1.896,-0.427 -3.802,-0.811 -5.701,-1.229 -0.313,-0.069 -0.643,-0.179 -0.899,-0.362 -0.947,-0.676 -1.839,-1.431 -2.805,-2.078 -1.132,-0.759 -2.313,-1.446 -3.486,-2.142 -0.588,-0.35 -1.172,-0.801 -1.817,-0.947 -1.847,-0.419 -3.725,-0.709 -5.593,-1.038 -0.194,-0.034 -0.403,0.007 -0.603,0.031 -0.659,0.079 -1.35,0.336 -1.971,0.217 -1.88,-0.36 -3.602,0.247 -5.334,0.734 -0.899,0.254 -1.625,0.025 -2.363,-0.362 -0.095,-0.049 -0.064,-0.338 -0.122,-0.717 -1.445,-0.305 -3.053,-0.739 -4.689,-0.955 -0.972,-0.129 -1.991,0.098 -2.989,0.144 -0.425,0.02 -0.869,0.057 -1.277,-0.036 -0.747,-0.171 -1.473,-0.611 -2.209,-0.617 -1.293,-0.008 -2.586,0.281 -3.883,0.334 -0.58,0.024 -0.681,0.596 -1.086,0.698 -0.759,0.193 -1.546,0.28 -2.321,0.411 -0.002,-0.027 -0.004,-0.053 -0.007,-0.08 0.196,-0.098 0.391,-0.197 0.722,-0.364 -1.49,-0.292 -1.798,-0.193 -2.645,0.727 -0.136,0.148 -0.272,0.349 -0.446,0.402 -0.941,0.291 -1.568,1.072 -2.415,1.505 -0.291,0.148 -0.559,0.343 -0.827,0.531 -0.577,0.405 -1.093,0.966 -1.732,1.202 -2.005,0.743 -4.056,1.364 -6.087,2.037 -0.411,0.136 -0.815,0.294 -1.222,0.442 0.019,0.072 0.038,0.144 0.057,0.216 l 1.128,-0.218 c 0.031,0.068 0.061,0.136 0.092,0.204 -0.374,0.197 -0.728,0.477 -1.126,0.572 -0.583,0.137 -1.203,0.982 -1.804,0.004 -0.025,-0.04 -0.197,-0.015 -0.289,0.015 -1.752,0.57 -3.548,1.044 -5.033,2.215 -0.767,0.606 -1.43,1.463 -2.298,1.793 -1.103,0.42 -1.88,1.123 -2.661,1.907 -0.138,0.138 -0.315,0.237 -0.471,0.358 -0.895,0.687 -1.83,1.327 -2.667,2.078 -0.518,0.465 -0.885,1.096 -1.343,1.683 -0.337,-0.403 -0.436,-0.521 -0.668,-0.798 -0.519,0.591 -0.969,1.139 -1.455,1.652 -1.358,1.435 -2.586,3.002 -4.25,4.128 -0.302,0.205 -0.52,0.547 -0.749,0.847 -0.736,0.967 -1.438,1.96 -2.19,2.914 -1.668,2.117 -3.362,4.21 -4.461,6.707 -0.17,0.386 -0.476,0.712 -0.727,1.061 -0.036,0.05 -0.115,0.07 -0.237,0.141 0.047,-0.226 0.082,-0.394 0.117,-0.561 -0.417,0.277 -0.793,0.599 -0.918,0.999 -0.486,1.558 -0.897,3.14 -1.328,4.716 -0.278,1.016 -0.417,2.09 -0.836,3.043 -0.896,2.041 -1.913,4.031 -2.929,6.017 -0.206,0.405 -0.737,0.655 -0.913,1.064 -0.381,0.892 -0.715,1.822 -0.912,2.769 -0.367,1.764 -0.606,3.555 -0.935,5.328 -0.091,0.491 -0.407,0.946 -0.464,1.435 -0.326,2.787 -0.131,5.632 -1.065,8.35 -0.63,1.832 -0.342,3.787 0.003,5.56 0.57,2.922 0.606,5.827 0.663,8.761 0.014,0.712 0.289,1.432 0.526,2.121 0.443,1.283 0.949,2.545 1.421,3.818 0.041,0.108 0.073,0.247 0.042,0.352 -0.162,0.541 -0.285,1.125 0.243,1.484 0.996,0.679 1.306,1.62 1.275,2.751 -0.004,0.174 0.061,0.349 0.091,0.523 0.502,2.997 1.727,5.733 3.131,8.386 0.887,1.676 1.933,3.268 2.893,4.904 0.447,0.764 0.869,1.542 1.289,2.322 0.433,0.801 0.714,1.731 1.301,2.394 1.122,1.269 2.351,2.463 3.652,3.55 1.475,1.234 3.144,2.19 4.261,3.881 0.78,1.181 2.05,2.026 2.964,3.134 1.451,1.756 2.771,3.62 4.189,5.405 0.254,0.319 0.697,0.634 1.082,0.676 1.205,0.131 2.425,0.178 3.638,0.174 25.771,-0.101 51.543,-0.213 77.313,-0.326 0.558,-0.003 1.118,0.001 1.671,-0.052 0.226,-0.022 0.517,-0.13 0.644,-0.299 1.19,-1.604 2.348,-3.232 3.526,-4.844 0.174,-0.237 0.386,-0.463 0.623,-0.635 0.872,-0.632 1.763,-1.238 2.647,-1.854 0.161,-0.112 0.308,-0.284 0.487,-0.328 2.105,-0.52 3.828,-1.476 4.578,-3.693 0.258,-0.763 0.619,-1.498 0.994,-2.214 0.539,-1.029 1.055,-2.085 1.723,-3.027 1.23,-1.734 2.569,-3.39 3.847,-5.09 0.209,-0.277 0.375,-0.601 0.498,-0.928 1.455,-3.859 2.904,-7.713 4.83,-11.38 0.517,-0.986 0.803,-2.262 0.708,-3.364 -0.202,-2.361 0.024,-4.582 1.066,-6.712 0.145,-0.294 0.245,-0.61 0.371,-0.914 0.528,-1.276 0.98,-2.592 1.62,-3.809 0.311,-0.589 0.578,-1.069 0.357,-1.732"
               style="fill:#110f0d;fill-opacity:1;fill-rule:nonzero;stroke:none"
               id="path1663" />
          </g>
        </g>
        <g
           id="g1665"
           transform="matrix(0.1531793,0,0,-0.1519643,50.31089,393.78683)">
          <g
             id="g1667"
             transform="translate(-39.4546,60.2633)">
            <path
               d="M 0,0 C 0.63,0.581 1.242,1.179 1.892,1.742 2.109,1.931 2.4,2.112 2.69,2.17 4.705,2.568 6.729,2.926 8.747,3.313 9.079,3.378 9.429,3.48 9.702,3.65 c 1.006,0.629 1.953,1.332 2.978,1.934 1.203,0.705 2.457,1.345 3.703,1.992 0.625,0.325 1.245,0.745 1.929,0.881 1.963,0.39 3.958,0.66 5.941,0.966 0.206,0.031 0.429,-0.007 0.641,-0.029 0.7,-0.074 1.434,-0.313 2.093,-0.203 1.997,0.336 3.826,-0.229 5.665,-0.682 0.955,-0.237 1.726,-0.024 2.511,0.337 0.1,0.046 0.067,0.314 0.129,0.667 1.535,0.284 3.242,0.688 4.98,0.888 1.033,0.12 2.114,-0.09 3.175,-0.134 0.452,-0.018 0.924,-0.053 1.356,0.034 0.794,0.158 1.565,0.568 2.347,0.573 1.373,0.009 2.746,-0.261 4.123,-0.311 0.617,-0.022 0.725,-0.553 1.154,-0.649 0.807,-0.179 1.642,-0.26 2.465,-0.382 0.003,0.025 0.005,0.05 0.008,0.074 -0.208,0.092 -0.415,0.184 -0.768,0.339 1.584,0.272 1.911,0.18 2.81,-0.676 0.144,-0.138 0.29,-0.325 0.475,-0.374 1,-0.27 1.665,-0.998 2.564,-1.4 0.309,-0.138 0.593,-0.319 0.878,-0.494 0.613,-0.377 1.162,-0.898 1.84,-1.118 2.13,-0.692 4.307,-1.269 6.466,-1.895 C 69.601,3.861 70.03,3.715 70.462,3.577 70.442,3.511 70.421,3.443 70.401,3.376 70.001,3.443 69.603,3.512 69.204,3.579 69.17,3.516 69.138,3.452 69.106,3.389 69.502,3.206 69.879,2.945 70.302,2.857 70.92,2.729 71.58,1.943 72.218,2.853 c 0.027,0.038 0.208,0.014 0.306,-0.013 1.861,-0.531 3.769,-0.972 5.347,-2.062 0.815,-0.563 1.518,-1.36 2.439,-1.667 0.676,-0.225 1.231,-0.544 1.742,-0.907 H -2.155 C -1.388,-1.247 -0.687,-0.634 0,0"
               style="fill:#110f0d;fill-opacity:1;fill-rule:nonzero;stroke:none"
               id="path1669" />
          </g>
        </g>
      </g>
    </g>
  </g>
</svg>
