<?xml version="1.0" encoding="UTF-8" standalone="no"?>
<!-- Created with Inkscape (http://www.inkscape.org/) -->

<svg
   width="24.179926"
   height="24"
   viewBox="0 0 6.3976054 6.35"
   version="1.1"
   id="svg7691"
   inkscape:version="1.2.1 (9c6d41e4, 2022-07-14)"
   sodipodi:docname="return-to-the-wages-of-sin.svg"
   xmlns:inkscape="http://www.inkscape.org/namespaces/inkscape"
   xmlns:sodipodi="http://sodipodi.sourceforge.net/DTD/sodipodi-0.dtd"
   xmlns="http://www.w3.org/2000/svg"
   xmlns:svg="http://www.w3.org/2000/svg">
  <sodipodi:namedview
     id="namedview7693"
     pagecolor="#505050"
     bordercolor="#eeeeee"
     borderopacity="1"
     inkscape:showpageshadow="0"
     inkscape:pageopacity="0"
     inkscape:pagecheckerboard="0"
     inkscape:deskcolor="#505050"
     inkscape:document-units="mm"
     showgrid="false"
     inkscape:zoom="0.7046647"
     inkscape:cx="-93.661567"
     inkscape:cy="131.2681"
     inkscape:window-width="1390"
     inkscape:window-height="941"
     inkscape:window-x="0"
     inkscape:window-y="25"
     inkscape:window-maximized="0"
     inkscape:current-layer="layer1" />
  <defs
     id="defs7688">
    <clipPath
       clipPathUnits="userSpaceOnUse"
       id="clipPath1507">
      <path
         d="m 39.282,410.504 h 22.057 v 21.884 H 39.282 Z"
         id="path1505" />
    </clipPath>
  </defs>
  <g
     inkscape:label="Layer 1"
     inkscape:groupmode="layer"
     id="layer1"
     transform="translate(-130.0945,-113.97292)">
    <g
       id="g1501"
       transform="matrix(0.29700932,0,0,-0.29700932,118.31914,242.25961)">
      <g
         id="g1503"
         clip-path="url(#clipPath1507)">
        <g
           id="g1509"
           transform="matrix(0.1531793,0,0,-0.1519643,50.31089,421.35873)">
          <g
             id="g1511"
             transform="translate(4.9238,-0.8095)">
            <path
               d="M 0,0 0.001,-0.001 -0.001,0.001 C -0.001,0 0,0 0,0"
               style="fill:#110f0d;fill-opacity:1;fill-rule:nonzero;stroke:none"
               id="path1513" />
          </g>
        </g>
        <g
           id="g1515"
           transform="matrix(0.1531793,0,0,-0.1519643,50.31089,421.35873)">
          <g
             id="g1517"
             transform="translate(1.9258,-41.224)">
            <path
               d="M 0,0 H -0.001 L 0.002,0.006 C 0.001,0.004 0.001,0.002 0,0"
               style="fill:#110f0d;fill-opacity:1;fill-rule:nonzero;stroke:none"
               id="path1519" />
          </g>
        </g>
        <g
           id="g1521"
           transform="matrix(0.1531793,0,0,-0.1519643,50.31089,421.35873)">
          <g
             id="g1523"
             transform="translate(14.4004,35.6881)">
            <path
               d="m 0,0 c -0.076,0.477 -0.04,1.11 -0.187,1.858 -0.115,0.533 -0.235,0.89 -0.259,1.215 -0.042,0.503 -0.06,1.079 -0.163,1.692 L -0.61,4.768 c -0.119,0.628 -0.342,1.073 -0.417,1.398 -0.132,0.517 -0.212,1.117 -0.369,1.77 -0.145,0.595 -0.383,1.05 -0.577,1.46 -0.205,0.431 -0.377,0.902 -0.562,1.408 l 0.001,-0.002 c -0.195,0.533 -0.461,1.03 -0.811,1.487 -0.27,0.34 -0.487,0.888 -0.892,1.509 V 13.8 c -0.595,0.869 -1.415,1.886 -2.69,2.333 0,0 10e-4,0 10e-4,-10e-4 l -10e-4,10e-4 c -0.501,0.167 -1.098,0.393 -1.762,0.497 l -0.005,0.001 c -0.174,0.024 -0.332,0.03 -0.475,0.03 -0.219,0 -0.404,-0.013 -0.543,-0.015 h -0.099 c -0.328,0 -0.627,0.023 -0.984,0.061 -0.386,0.041 -0.764,0.053 -1.13,0.053 -0.572,0 -1.12,-0.028 -1.623,-0.028 l -0.076,0.001 h -0.032 c -0.557,-0.003 -1.017,-0.08 -1.396,-0.09 l -0.17,-0.003 c -0.155,0 -0.328,0.006 -0.521,0.006 -0.315,0 -0.693,-0.016 -1.105,-0.135 -0.292,-0.083 -0.532,-0.108 -0.872,-0.109 l -0.155,10e-4 h -0.003 l -0.068,0.001 c -0.679,-0.008 -1.155,-0.155 -1.513,-0.166 L -19.6,16.235 c -0.166,-10e-4 -0.375,0.013 -0.622,0.013 -0.246,0 -0.533,-0.014 -0.848,-0.098 h -0.001 c -0.53,-0.142 -0.907,-0.221 -1.388,-0.244 -0.182,-0.01 -0.416,-0.009 -0.699,-0.052 -0.28,-0.042 -0.625,-0.143 -0.942,-0.369 l -0.003,-0.002 c -0.447,-0.326 -0.726,-0.662 -0.959,-0.853 -0.075,-0.067 -0.208,-0.148 -0.399,-0.264 -0.189,-0.117 -0.441,-0.274 -0.684,-0.534 -0.434,-0.472 -0.723,-1.01 -0.953,-1.474 v -0.001 c -0.287,-0.592 -0.631,-1.202 -0.898,-1.952 -0.277,-0.784 -0.568,-1.599 -0.702,-2.538 -0.03,-0.291 -0.219,-0.732 -0.244,-1.401 -0.003,-0.144 -0.004,-0.285 -0.004,-0.426 0,-0.437 0.009,-0.86 0.01,-1.269 0,-0.332 -0.022,-0.712 -0.022,-1.125 0,-0.251 0.008,-0.514 0.041,-0.788 v 10e-4 c 0.086,-0.721 0.211,-1.341 0.23,-1.917 0.021,-0.591 0.083,-1.173 0.168,-1.746 v -0.001 c 0.101,-0.65 0.257,-1.214 0.318,-1.702 0.02,-0.154 0.029,-0.319 0.029,-0.495 0.001,-0.406 -0.05,-0.866 -0.087,-1.361 -0.01,-0.141 -0.015,-0.279 -0.015,-0.414 0,-0.58 0.094,-1.118 0.236,-1.65 v -0.001 0.001 c 0.155,-0.575 0.348,-1.052 0.452,-1.469 0.156,-0.619 0.3,-1.263 0.479,-1.924 v 10e-4 c 0.135,-0.49 0.223,-1.057 0.438,-1.697 v 0.002 c 0.206,-0.59 0.312,-1.372 0.647,-2.202 v -0.001 0.001 c 0.25,-0.603 0.578,-1.083 0.848,-1.516 v 10e-4 c 0.239,-0.38 0.48,-0.784 0.839,-1.203 0.604,-0.703 1.105,-1.609 1.481,-2.518 0.279,-0.671 0.549,-1.365 0.859,-2.068 0.142,-0.32 0.287,-0.611 0.413,-0.885 0.064,-0.136 0.116,-0.341 0.16,-0.605 0.045,-0.262 0.082,-0.579 0.171,-0.932 0.078,-0.29 0.102,-0.697 0.213,-1.204 h -0.001 l 0.001,-10e-4 v 10e-4 c 0.129,-0.558 0.261,-0.931 0.298,-1.295 v 10e-4 c 0.059,-0.535 0.174,-0.964 0.253,-1.368 0.061,-0.266 0.04,-0.696 0.145,-1.263 0.134,-0.657 0.343,-1.428 0.757,-2.113 0.261,-0.425 0.627,-0.736 1.014,-0.948 0.39,-0.212 0.805,-0.332 1.218,-0.379 h -10e-4 0.002 -0.001 c 0.189,-0.02 0.385,-0.035 0.588,-0.035 0.394,0 0.822,0.054 1.248,0.218 h 10e-4 -10e-4 c 0.276,0.104 0.517,0.269 0.699,0.453 0.128,0.129 0.223,0.262 0.306,0.393 0.065,0.086 0.124,0.172 0.174,0.256 0.169,0.291 0.271,0.566 0.338,0.764 0.107,0.318 0.154,0.644 0.154,0.959 -10e-4,0.655 -0.196,1.269 -0.5,1.797 l 10e-4,-0.001 -0.002,0.002 c 0,0 10e-4,0 10e-4,-0.001 -0.303,0.512 -0.638,0.791 -0.819,1.022 -0.046,0.056 -0.097,0.145 -0.159,0.295 -0.063,0.149 -0.133,0.354 -0.246,0.598 v 0.001 c -0.178,0.373 -0.387,0.669 -0.554,0.928 -0.17,0.257 -0.295,0.473 -0.355,0.642 -0.051,0.118 -0.082,0.396 -0.279,0.795 v 0.001 c -0.085,0.162 -0.175,0.38 -0.312,0.64 l 0.001,-0.001 c -0.227,0.428 -0.456,0.872 -0.724,1.325 -0.165,0.275 -0.347,0.685 -0.454,1.007 -0.24,0.692 -0.525,1.212 -0.64,1.667 l -0.001,0.001 c -0.093,0.372 -0.255,0.751 -0.497,1.086 -0.081,0.115 -0.135,0.19 -0.159,0.231 l -0.035,0.078 c -0.022,0.082 -0.042,0.197 -0.089,0.365 -0.047,0.166 -0.133,0.384 -0.276,0.587 l -0.001,0.001 c -0.069,0.102 -0.106,0.185 -0.146,0.314 -0.038,0.128 -0.072,0.303 -0.115,0.535 l -0.001,0.002 c -0.054,0.28 -0.158,0.511 -0.253,0.687 -0.095,0.175 -0.18,0.304 -0.235,0.405 -0.116,0.191 -0.205,0.56 -0.431,1.046 v -10e-4 10e-4 c -0.237,0.475 -0.451,0.805 -0.527,1.061 l -0.002,0.004 c -0.026,0.074 -0.052,0.216 -0.106,0.428 v -10e-4 0.002 -10e-4 c -0.155,0.553 -0.387,0.881 -0.457,1.095 -0.116,0.304 -0.195,0.66 -0.273,1.059 V -9.3 c -0.113,0.565 -0.261,1.045 -0.333,1.468 -0.099,0.561 -0.19,1.102 -0.235,1.622 -0.057,0.611 -0.16,1.041 -0.155,1.423 v 0.001 c 0,0.564 -0.094,1.076 -0.219,1.562 v -10e-4 c -0.104,0.397 -0.099,0.83 -0.111,1.428 v -0.001 c -0.019,0.557 -0.143,0.943 -0.172,1.226 v 0.002 l -0.007,0.137 c -0.001,0.108 0.01,0.256 0.013,0.445 v 10e-4 0.076 c 0,0.479 -0.042,0.92 -0.066,1.325 l -0.001,0.002 c -0.035,0.536 -0.091,1.037 -0.107,1.493 l -0.002,0.101 c -0.003,0.409 0.091,0.878 0.153,1.472 v 10e-4 c 0.037,0.365 0.056,0.524 0.143,0.777 0.136,0.386 0.33,0.748 0.575,1.173 0.468,0.817 0.879,1.599 1.378,2.21 l 0.001,10e-4 c 0.283,0.357 0.699,0.751 1.062,1.331 l 0.001,0.001 c 0.27,0.422 0.396,0.554 0.789,0.807 v 0.001 c 0.406,0.259 0.638,0.502 0.797,0.597 l 0.003,0.002 c 0.017,0.011 0.045,0.026 0.138,0.047 0.092,0.021 0.24,0.038 0.436,0.068 l -0.006,-10e-4 c 0.395,0.062 0.777,0.093 1.174,0.095 h 0.002 c 0.152,0.002 0.273,0.01 0.359,0.01 l 0.115,-0.007 0.008,-0.003 0.082,-0.037 c 0.081,-0.038 0.214,-0.116 0.412,-0.191 h 10e-4 c 0.627,-0.218 1.125,-0.202 1.385,-0.28 l -0.003,0.001 c 0.437,-0.108 0.936,-0.23 1.503,-0.242 0.534,-0.009 0.951,0.005 1.32,-0.06 h 0.004 c 0.565,-0.092 1.105,-0.215 1.633,-0.385 1.055,-0.332 1.987,-0.562 2.682,-1.035 0.777,-0.526 1.285,-1.049 1.613,-1.81 0.317,-0.748 0.516,-1.471 0.561,-2.235 0.008,-0.15 0.011,-0.308 0.011,-0.475 0,-0.181 -0.004,-0.37 -0.004,-0.572 10e-4,-0.285 0.007,-0.591 0.043,-0.918 0.037,-0.321 0.05,-0.659 0.05,-1.007 0,-0.174 -0.003,-0.351 -0.008,-0.529 V 1.812 C -5.476,1.42 -5.607,0.912 -5.644,0.25 V 0.247 c -0.009,-0.32 -0.105,-0.696 -0.189,-1.204 v -0.001 c -0.056,-0.351 -0.065,-0.681 -0.065,-0.984 0,-0.27 0.007,-0.521 0.007,-0.748 v 10e-4 c 0.001,-0.223 0.001,-0.445 0.001,-0.667 0,-0.446 -0.001,-0.891 -0.001,-1.337 0.001,-0.236 0.014,-0.435 0.014,-0.594 0,-0.123 -0.008,-0.22 -0.02,-0.287 -0.148,-0.801 -0.392,-1.648 -0.611,-2.523 -0.133,-0.54 -0.246,-1.031 -0.402,-1.482 v -0.002 c -0.243,-0.711 -0.585,-1.439 -0.887,-2.254 -0.314,-0.853 -0.686,-1.673 -1.134,-2.446 l -0.001,-10e-4 c -0.259,-0.452 -0.479,-0.872 -0.715,-1.214 v 0.001 c -0.33,-0.479 -0.698,-0.985 -1.005,-1.606 -0.383,-0.788 -1,-1.581 -1.447,-2.651 v 10e-4 c -0.163,-0.399 -0.34,-0.818 -0.495,-1.276 -0.029,-0.094 -0.113,-0.273 -0.211,-0.494 -0.093,-0.225 -0.21,-0.5 -0.243,-0.87 l -10e-4,-0.008 c -0.01,-0.146 -0.013,-0.242 -0.017,-0.287 l -0.015,-0.069 -0.001,-0.002 c -0.118,-0.311 -0.316,-0.679 -0.494,-1.136 -0.15,-0.397 -0.17,-0.763 -0.172,-1.086 10e-4,-0.412 0.041,-0.774 0.04,-1 v -0.012 -0.036 c 0.002,-0.773 0.179,-1.619 0.713,-2.346 0.338,-0.433 0.803,-0.692 1.397,-0.707 l 0.212,0.015 h -0.001 0.003 -0.002 c 0.334,0.045 0.579,0.211 0.74,0.359 0.163,0.152 0.266,0.302 0.351,0.439 0.165,0.271 0.267,0.524 0.314,0.615 l -0.003,-0.007 c 0.109,0.217 0.269,0.524 0.329,0.935 l -0.001,-0.004 c 0.026,0.195 0.106,0.431 0.192,0.791 v -10e-4 c 0.154,0.665 0.267,1.112 0.533,1.58 0.315,0.552 0.619,1.075 0.953,1.598 0.721,1.13 1.232,2.301 1.735,3.434 0.177,0.409 0.479,0.904 0.681,1.544 v -0.001 c 0.139,0.429 0.214,0.578 0.48,0.918 l 10e-4,0.002 c 0.312,0.392 0.492,0.773 0.656,1.097 0.141,0.284 0.215,0.523 0.284,0.698 l 0.002,0.004 c 0.126,0.332 0.291,0.679 0.465,1.063 l -0.002,-0.003 c 0.59,1.301 1.379,2.6 1.989,4.072 0.583,1.413 1.128,2.825 1.418,4.427 0.118,0.65 0.28,1.343 0.366,2.102 0.059,0.537 0.059,1.042 0.059,1.514 v 0.094 c 0,0.126 0,0.248 0.002,0.369 v 10e-4 0.037 C 0.156,-0.826 0.054,-0.387 0,0 m -23.812,-70.908 c 0.327,-0.693 0.854,-1.183 1.291,-1.555 l 0.001,-0.002 -0.001,0.002 c 0.204,-0.171 0.416,-0.266 0.552,-0.32 0.09,-0.035 0.141,-0.055 0.176,-0.07 l 0.157,-0.118 0.097,-0.065 c 0.132,-0.075 0.268,-0.139 0.416,-0.193 0.154,-0.051 0.295,-0.104 0.559,-0.111 0.1,0.002 0.225,0.008 0.396,0.073 0.166,0.059 0.395,0.219 0.519,0.463 0.083,0.158 0.112,0.327 0.112,0.46 -0.002,0.084 -0.018,0.143 -0.03,0.206 0.056,0.176 0.082,0.371 0.08,0.534 v 0.028 0.004 c -0.002,0.211 -0.003,0.424 -0.003,0.638 0,0.317 0.002,0.637 0.002,0.96 v -0.003 0.061 c 0,0.368 -0.014,0.74 -0.072,1.141 l -0.006,0.085 c -0.004,0.096 0.034,0.279 0.067,0.603 v 0.003 c 0.011,0.122 0.01,0.213 0.012,0.272 l 0.004,0.064 0.01,0.031 c 0.023,0.073 0.077,0.225 0.078,0.446 v 0.032 l -0.001,0.006 c 0,0.34 -0.181,0.69 -0.353,0.861 -0.168,0.18 -0.294,0.254 -0.352,0.301 -0.055,0.041 -0.173,0.142 -0.345,0.249 -0.173,0.102 -0.418,0.242 -0.805,0.249 -0.184,10e-4 -0.394,-0.044 -0.578,-0.139 h 0.001 l -0.001,-10e-4 v 10e-4 c -0.31,-0.168 -0.456,-0.352 -0.591,-0.517 -0.13,-0.167 -0.223,-0.321 -0.294,-0.454 l -0.002,-0.004 c -0.188,-0.382 -0.258,-0.619 -0.314,-0.685 -0.166,-0.251 -0.406,-0.567 -0.565,-1.044 v 10e-4 -10e-4 c -0.054,-0.165 -0.146,-0.388 -0.232,-0.655 -0.085,-0.267 -0.17,-0.585 -0.171,-0.962 -10e-4,-0.274 0.051,-0.581 0.186,-0.875 m 1.176,-7.995 v -0.004 c 0.079,-0.464 0.196,-0.816 0.229,-1.074 0.012,-0.082 0.015,-0.18 0.026,-0.341 0.01,-0.16 0.035,-0.386 0.12,-0.63 l -0.001,0.002 c 0.011,-0.017 0.029,-0.156 0.107,-0.409 l 0.001,-0.004 c 0.074,-0.221 0.187,-0.388 0.277,-0.503 0.091,-0.115 0.16,-0.188 0.194,-0.229 l 0.029,-0.037 0.001,-10e-4 c 0.017,-0.025 0.062,-0.149 0.166,-0.352 0.219,-0.384 0.354,-0.566 0.36,-0.63 0.04,-0.13 0.069,-0.302 0.072,-0.417 v 0.002 c 0.02,-0.559 0.089,-0.992 0.086,-1.386 0,-0.173 -10e-4,-0.349 -10e-4,-0.527 0,-0.133 10e-4,-0.268 0.002,-0.404 v 0.003 -0.011 c 0.01,-0.168 -0.082,-0.485 -0.093,-0.994 l 0.001,-0.039 v 0.001 c 0.01,-0.71 0.069,-1.413 0.168,-2.108 0.076,-0.516 0.104,-1.122 0.293,-1.808 v -0.002 c 0.009,-0.029 0.039,-0.161 0.083,-0.31 0.047,-0.155 0.103,-0.336 0.231,-0.553 0.089,-0.143 0.213,-0.321 0.47,-0.473 0.145,-0.084 0.339,-0.146 0.536,-0.149 h 0.022 c 0.176,-10e-4 0.338,0.047 0.442,0.093 0.027,0.012 0.043,0.021 0.064,0.032 l 0.046,0.005 0.212,0.046 c 0.341,0.124 0.519,0.315 0.649,0.458 0.127,0.146 0.209,0.273 0.257,0.341 l 0.001,0.001 c 0.04,0.06 0.061,0.096 0.083,0.135 l 0.13,0.075 c 0.153,0.107 0.247,0.206 0.339,0.311 0.09,0.106 0.167,0.211 0.243,0.351 0,0 0,-0.001 -0.001,-0.001 l 0.002,0.003 -0.001,-0.002 c 0.231,0.453 0.329,0.9 0.354,1.355 0.014,0.47 0.028,0.836 0.105,1.158 v 0.001 c 0.018,0.076 0.062,0.204 0.117,0.375 0.053,0.171 0.118,0.389 0.137,0.666 l 10e-4,0.002 0.006,0.228 c 0,0.219 -0.013,0.394 -0.012,0.525 v 0.062 l 10e-4,0.002 c -0.007,0.139 0.082,0.423 0.091,0.904 v 0.01 0.004 c 0,0.104 -0.001,0.209 -0.001,0.314 0,0.211 0.001,0.425 0.001,0.641 -0.001,0.142 0.023,0.379 0.024,0.668 0,0.181 -0.01,0.387 -0.065,0.619 -0.073,0.29 -0.145,0.468 -0.16,0.555 -0.02,0.053 -0.014,0.28 -0.142,0.641 0,0 0.001,0 0.001,-10e-4 l -0.001,0.002 v -0.001 c -0.214,0.563 -0.61,0.915 -0.896,1.138 -0.162,0.123 -0.289,0.219 -0.391,0.302 -0.008,0.021 -0.016,0.038 -0.022,0.055 l -0.057,0.11 -0.108,0.145 -1.033,1.136 v -0.001 c -0.104,0.116 -0.197,0.198 -0.255,0.25 l -0.063,0.058 c -0.025,0.087 -0.047,0.212 -0.053,0.356 v 10e-4 l -0.002,0.066 c -0.006,0.222 0.071,0.554 0.097,1.033 v 0.009 l 0.001,0.049 c -0.003,0.136 -0.01,0.219 -0.016,0.279 0.007,0.016 0.009,0.032 0.015,0.048 0.023,0.054 0.043,0.107 0.055,0.165 0.014,0.063 0.017,0.123 0.017,0.188 0,0.036 0.013,0.069 0.009,0.106 -0.003,0.022 -0.016,0.04 -0.02,0.061 -0.011,0.061 -0.033,0.117 -0.056,0.176 -0.024,0.058 -0.047,0.114 -0.081,0.165 -0.013,0.019 -0.015,0.04 -0.029,0.058 -0.023,0.03 -0.055,0.044 -0.08,0.07 -0.045,0.046 -0.09,0.088 -0.143,0.124 -0.049,0.033 -0.1,0.057 -0.154,0.08 -0.054,0.023 -0.107,0.043 -0.165,0.055 -0.063,0.013 -0.124,0.016 -0.188,0.016 -0.031,0.001 -0.059,0.011 -0.09,0.008 v 0.003 h -0.013 l -0.073,-10e-4 c -0.132,0 -0.358,0.006 -0.602,0.006 h -0.07 -0.011 l -0.053,0.004 -0.204,0.009 c -0.092,-10e-4 -0.207,-0.004 -0.363,-0.044 -0.152,-0.038 -0.364,-0.127 -0.544,-0.319 l -0.004,-0.004 c -0.169,-0.191 -0.217,-0.34 -0.255,-0.44 -0.027,-0.08 -0.036,-0.121 -0.045,-0.157 l -0.054,-0.08 -0.049,-0.082 c -0.259,-0.508 -0.274,-0.963 -0.287,-1.324 -0.002,-0.132 -0.009,-0.287 -0.009,-0.462 0,-0.182 0.007,-0.384 0.042,-0.606 m 7.218,-1.146 c 0.24,0.003 0.46,0.017 0.718,0.081 0.091,0.026 0.185,0.049 0.344,0.142 -10e-4,0 -10e-4,-0.001 -0.002,-0.001 l 0.004,0.003 c 0,-0.001 -0.001,-0.001 -0.002,-0.002 0.232,0.141 0.384,0.34 0.468,0.488 0.087,0.152 0.125,0.264 0.15,0.324 l 10e-4,0.002 c 0.133,0.34 0.305,0.762 0.373,1.268 v -0.002 0.003 -0.001 c 0.085,0.655 0.104,1.286 0.104,1.905 v -0.001 c 0,0.226 0.006,0.468 0.007,0.726 -10e-4,0.352 -0.013,0.735 -0.085,1.142 v 10e-4 c -0.014,0.07 -0.019,0.185 -0.023,0.355 -0.005,0.169 -0.008,0.395 -0.067,0.666 -0.006,0.02 -0.013,0.1 -0.011,0.243 -0.002,0.143 0.005,0.347 -0.04,0.605 -0.037,0.209 -0.083,0.413 -0.135,0.619 -0.031,0.206 -0.083,0.387 -0.134,0.518 -0.023,0.061 -0.043,0.107 -0.062,0.152 -0.008,0.023 -0.016,0.047 -0.024,0.069 -0.008,0.017 -0.017,0.038 -0.025,0.057 -0.007,0.019 -0.017,0.042 -0.022,0.059 v -0.001 c -0.109,0.322 -0.272,0.583 -0.426,0.789 -0.154,0.208 -0.299,0.367 -0.415,0.509 -0.155,0.187 -0.35,0.425 -0.641,0.645 -0.286,0.219 -0.709,0.417 -1.195,0.415 h -0.021 -0.003 c -0.328,-0.002 -0.648,-0.114 -0.886,-0.275 -0.24,-0.161 -0.408,-0.356 -0.536,-0.544 -0.251,-0.377 -0.365,-0.744 -0.446,-1.015 -0.167,-0.576 -0.211,-1.152 -0.212,-1.689 0,-0.163 0.005,-0.322 0.012,-0.476 v -0.002 0.002 c 0.025,-0.519 0.127,-0.931 0.152,-1.242 l 0.001,-0.003 c 0.024,-0.237 0.036,-0.531 0.114,-0.889 l -0.001,0.003 c 0.151,-0.692 0.242,-1.417 0.341,-2.176 v 0.003 c 0.039,-0.275 0.051,-0.681 0.252,-1.163 l 0.001,-0.002 c 0.181,-0.415 0.42,-0.704 0.593,-0.932 0.003,0.001 0.076,-0.12 0.159,-0.272 0.088,-0.155 0.191,-0.346 0.363,-0.555 0.117,-0.137 0.27,-0.294 0.52,-0.417 h -10e-4 10e-4 c 0.208,-0.094 0.314,-0.099 0.427,-0.117 0.109,-0.013 0.208,-0.017 0.31,-0.017 m 3.066,8.736 c 0.465,-0.059 0.901,0.24 1.013,0.695 0.019,0.073 0.022,0.144 0.026,0.215 h 0.001 v 0.007 c 10e-4,0.024 0.009,0.05 0.009,0.073 -10e-4,0.019 -0.004,0.027 -0.005,0.045 0.005,0.006 0.012,0.013 0.018,0.019 0.131,0.15 0.221,0.285 0.291,0.387 l 0.072,0.104 c 0.028,0.029 0.085,0.084 0.171,0.169 0.094,0.098 0.221,0.23 0.336,0.443 0,-10e-4 -10e-4,-10e-4 -10e-4,-0.002 l 0.002,0.003 c -10e-4,0 -10e-4,-0.001 -10e-4,-0.001 0.168,0.316 0.184,0.613 0.184,0.801 -10e-4,0.155 -0.01,0.259 -0.009,0.305 v 0.009 c -0.008,0.144 0.09,0.466 0.1,0.962 l -0.001,0.051 v 0.003 c -0.008,0.296 -0.072,0.541 -0.139,0.758 -0.069,0.217 -0.148,0.405 -0.209,0.553 -0.149,0.353 -0.238,0.744 -0.37,1.24 v 0.001 c -0.152,0.566 -0.427,1.022 -0.71,1.384 -0.285,0.363 -0.572,0.648 -0.818,0.934 -0.228,0.257 -0.484,0.652 -0.938,1.034 l -10e-4,0.001 10e-4,-0.001 c -0.351,0.283 -0.624,0.423 -0.749,0.539 -0.103,0.089 -0.225,0.227 -0.379,0.403 -0.155,0.175 -0.343,0.39 -0.604,0.597 l -0.001,10e-4 c -0.317,0.249 -0.597,0.442 -0.816,0.634 -0.355,0.308 -0.754,0.61 -1.224,0.843 -0.468,0.233 -1.016,0.394 -1.614,0.393 h -0.015 c -0.281,0 -0.558,-0.055 -0.799,-0.147 -0.242,-0.093 -0.446,-0.216 -0.626,-0.342 l 0.004,0.003 c -0.129,-0.093 -0.357,-0.205 -0.637,-0.4 l -0.001,-10e-4 c -0.464,-0.34 -0.657,-0.791 -0.77,-1.169 -0.111,-0.386 -0.142,-0.746 -0.155,-1.033 v 10e-4 -0.002 0.001 l -0.003,-0.123 c -0.002,-0.295 0.056,-0.59 0.156,-0.84 0.098,-0.25 0.224,-0.451 0.346,-0.634 v 10e-4 l 10e-4,-0.003 c 0,10e-4 0,10e-4 -10e-4,0.002 0.334,-0.496 0.718,-0.775 0.997,-1.015 l -0.002,0.002 c 0.309,-0.254 0.665,-0.655 1.292,-0.952 h -0.001 c 0.453,-0.21 0.951,-0.512 1.455,-0.807 0.623,-0.369 1.041,-0.771 1.501,-1.386 h -0.001 c 0.426,-0.572 0.895,-1.055 1.315,-1.517 0.422,-0.461 0.794,-0.898 1.057,-1.349 v -10e-4 c 0.082,-0.14 0.187,-0.328 0.275,-0.51 0.087,-0.176 0.155,-0.357 0.169,-0.422 l -10e-4,-0.036 c -0.003,-0.468 0.345,-0.865 0.809,-0.923 m -8.258,19.945 v -10e-4 c -0.089,-0.197 -0.108,-0.379 -0.109,-0.518 0.006,-0.295 0.069,-0.458 0.084,-0.541 l 0.005,-0.021 10e-4,-0.009 c 0,-0.034 -0.003,-0.101 -0.004,-0.197 10e-4,-0.129 0.005,-0.321 0.082,-0.555 0.161,-0.464 0.429,-0.765 0.677,-1.026 0.25,-0.256 0.503,-0.462 0.67,-0.606 l 0.002,-0.001 c 0.148,-0.124 0.316,-0.318 0.537,-0.554 0.221,-0.233 0.506,-0.516 0.915,-0.731 h 0.001 c 0.599,-0.312 1.146,-0.698 1.728,-1.146 0.75,-0.577 1.478,-1.101 2.089,-1.68 0.788,-0.745 1.48,-1.493 2.005,-2.347 v 0.001 c 0.072,-0.116 0.125,-0.182 0.167,-0.241 l 0.044,-0.064 c 10e-4,-0.007 0.002,-0.015 0.003,-0.021 0.005,-0.03 0.007,-0.058 0.015,-0.086 0.004,-0.014 0.003,-0.032 0.007,-0.045 0.013,-0.042 0.043,-0.073 0.062,-0.112 0.028,-0.06 0.054,-0.118 0.094,-0.17 0.036,-0.048 0.081,-0.083 0.126,-0.122 0.044,-0.039 0.085,-0.079 0.137,-0.11 0.056,-0.033 0.118,-0.05 0.18,-0.071 0.041,-0.013 0.076,-0.039 0.12,-0.047 0.013,-0.002 0.025,0.002 0.036,0.001 0.062,-0.008 0.123,0 0.185,0.004 0.063,0.004 0.123,0.003 0.183,0.019 0.011,0.004 0.024,0 0.036,0.004 0.043,0.014 0.074,0.044 0.113,0.063 0.06,0.028 0.117,0.053 0.169,0.093 0.048,0.037 0.084,0.082 0.123,0.126 0.039,0.045 0.079,0.086 0.109,0.138 0.011,0.018 0.024,0.034 0.034,0.053 0.054,0.014 0.104,0.024 0.175,0.053 0.2,0.085 0.344,0.211 0.444,0.328 0.1,0.117 0.164,0.23 0.214,0.334 0.096,0.208 0.141,0.391 0.176,0.564 0.068,0.343 0.079,0.648 0.085,0.805 l 0.003,0.211 c 0,0.634 -0.087,1.286 -0.301,1.918 v 10e-4 c -0.292,0.836 -0.786,1.378 -1.117,1.858 l 10e-4,-0.002 c -0.208,0.293 -0.403,0.5 -0.527,0.668 l -0.001,10e-4 c -0.199,0.257 -0.386,0.622 -0.67,1.047 v 10e-4 -10e-4 c -0.555,0.808 -1.229,1.341 -1.698,1.86 -0.149,0.161 -0.316,0.353 -0.539,0.551 -0.222,0.196 -0.512,0.396 -0.869,0.524 h -0.002 c -0.432,0.152 -0.799,0.201 -1.07,0.268 l 0.002,-10e-4 c -0.728,0.173 -1.474,0.334 -2.3,0.379 h -10e-4 10e-4 c -0.105,0.006 -0.415,0.037 -0.755,0.037 -0.196,0 -0.41,-0.009 -0.637,-0.047 -0.228,-0.04 -0.476,-0.099 -0.751,-0.274 -0.179,-0.116 -0.373,-0.305 -0.489,-0.564 v 10e-4 m 0.632,7.623 c 0.002,-0.905 0.169,-1.754 0.315,-2.523 l 0.001,-0.003 c 0.023,-0.115 0.05,-0.269 0.116,-0.46 0.065,-0.189 0.182,-0.417 0.365,-0.613 l 0.001,-10e-4 c 0.358,-0.371 0.705,-0.558 0.87,-0.702 0.567,-0.46 1.155,-0.733 1.638,-0.998 l -10e-4,0.001 c 0.697,-0.369 1.235,-0.543 1.599,-0.832 l -0.002,10e-4 c 0.3,-0.234 0.695,-0.477 1.18,-0.582 h 0.003 c 0.186,-0.04 0.312,-0.067 0.384,-0.092 l 0.153,-0.079 c 0.257,-0.198 0.598,-0.59 0.946,-0.952 0.281,-0.29 0.555,-0.61 0.847,-0.951 0.11,-0.125 0.265,-0.343 0.515,-0.577 0.023,-0.046 0.044,-0.089 0.074,-0.13 0.036,-0.049 0.078,-0.087 0.12,-0.127 0.043,-0.04 0.084,-0.079 0.135,-0.111 0.055,-0.034 0.114,-0.055 0.174,-0.078 0.038,-0.013 0.068,-0.039 0.109,-0.048 0.017,-0.004 0.034,10e-4 0.05,-0.002 0.061,-0.01 0.121,-0.005 0.184,-0.003 0.062,0.002 0.124,0.002 0.183,0.017 0.017,0.004 0.034,-10e-4 0.05,0.004 0.039,0.012 0.069,0.04 0.105,0.056 0.059,0.027 0.116,0.051 0.169,0.09 0.048,0.035 0.087,0.077 0.127,0.12 0.04,0.043 0.079,0.084 0.11,0.134 0.034,0.056 0.056,0.114 0.078,0.175 0.014,0.038 0.039,0.068 0.049,0.109 0.004,0.021 0.004,0.049 0.008,0.072 0.003,0.019 0.005,0.037 0.007,0.056 0.004,0.044 0.014,0.081 0.014,0.131 0,0.072 -0.029,0.159 -0.048,0.242 0.043,0.08 0.162,0.26 0.286,0.522 0.273,0.6 0.415,1.291 0.421,1.953 l -0.003,0.166 c -0.012,0.249 -0.034,0.554 -0.092,0.878 -0.062,0.324 -0.153,0.671 -0.361,1.022 l -10e-4,0.002 c -0.254,0.415 -0.562,0.693 -0.811,0.92 -0.253,0.225 -0.451,0.403 -0.563,0.552 -0.096,0.123 -0.185,0.326 -0.321,0.637 -0.136,0.302 -0.338,0.722 -0.742,1.085 -0.71,0.632 -1.477,1.017 -2.101,1.409 -0.237,0.139 -0.523,0.427 -0.973,0.735 -0.425,0.285 -0.887,0.501 -1.378,0.646 l 0.002,-10e-4 c -0.39,0.115 -0.841,0.29 -1.357,0.418 h -10e-4 10e-4 c -0.148,0.037 -0.305,0.057 -0.456,0.057 -0.203,0 -0.382,-0.034 -0.532,-0.071 -0.437,-0.104 -0.887,-0.317 -1.202,-0.713 -0.317,-0.394 -0.424,-0.869 -0.439,-1.306 z m 5.876,9.403 c -0.81,0.366 -1.706,0.632 -2.625,0.718 -0.225,0.02 -0.441,0.025 -0.647,0.025 -0.307,0 -0.591,-0.011 -0.847,-0.01 h -0.115 l -0.008,0.001 -0.053,0.004 -0.197,0.007 c -0.092,-10e-4 -0.202,-0.003 -0.36,-0.041 -0.15,-0.039 -0.394,-0.119 -0.609,-0.392 l 10e-4,10e-4 -0.002,-0.002 0.001,10e-4 c -0.205,-0.28 -0.226,-0.537 -0.228,-0.71 0.008,-0.349 0.093,-0.554 0.158,-0.751 0.069,-0.185 0.141,-0.349 0.155,-0.392 l 0.001,-10e-4 c 0.136,-0.411 0.248,-0.886 0.419,-1.398 v -0.001 c 0.227,-0.661 0.64,-1.171 1.061,-1.571 h 0.001 -0.001 c 0.351,-0.326 0.689,-0.509 0.917,-0.67 l 0.002,-10e-4 c 0.393,-0.268 0.8,-0.571 1.246,-0.864 l 0.001,-10e-4 c 1.115,-0.728 2.237,-1.381 3.284,-2.08 0.296,-0.197 0.635,-0.476 1.021,-0.763 0.387,-0.285 0.827,-0.583 1.368,-0.781 l 0.114,-0.033 0.226,-0.05 c 0.027,-0.006 0.053,0.002 0.081,-0.002 0.028,-0.004 0.051,-0.018 0.08,-0.019 l 0.06,-0.002 c 0.035,0 0.075,0.014 0.111,0.016 0.019,0.003 0.039,0.004 0.058,0.009 0.193,0.025 0.393,0.082 0.559,0.202 0.216,0.154 0.348,0.356 0.423,0.526 0.145,0.347 0.144,0.608 0.15,0.836 -0.001,0.248 -0.022,0.462 -0.025,0.57 v 0.003 c -0.051,1.176 -0.467,2.256 -1.07,3.185 l 10e-4,-10e-4 c -0.174,0.268 -0.335,0.496 -0.453,0.701 -0.114,0.188 -0.24,0.531 -0.53,0.922 -0.281,0.368 -0.608,0.607 -0.888,0.797 -0.281,0.188 -0.524,0.334 -0.688,0.465 -0.578,0.444 -1.194,1.106 -2.153,1.548 z m 8.296,1.424 v 0.005 -0.003 c -0.037,0.394 -0.132,0.698 -0.174,0.909 v 10e-4 c -0.123,0.574 -0.234,1.154 -0.341,1.739 v 0.001 c -0.052,0.275 -0.136,0.551 -0.321,0.818 -0.18,0.267 -0.487,0.486 -0.785,0.572 -0.198,0.061 -0.385,0.079 -0.561,0.079 -0.101,0 -0.199,-0.006 -0.295,-0.016 0,10e-4 0,10e-4 10e-4,10e-4 l -0.003,-10e-4 h 0.002 c -0.454,-0.049 -0.786,-0.227 -1.03,-0.359 -0.243,-0.139 -0.416,-0.238 -0.503,-0.266 l -0.003,-0.001 c -0.673,-0.246 -1.106,-0.627 -1.481,-0.889 l -0.003,-0.002 c -0.094,-0.068 -0.231,-0.133 -0.444,-0.214 -0.21,-0.083 -0.492,-0.18 -0.806,-0.368 l -0.004,-0.002 c -0.212,-0.13 -0.404,-0.294 -0.571,-0.508 -0.165,-0.214 -0.31,-0.484 -0.356,-0.827 l -0.018,-0.266 c -10e-4,-0.247 0.054,-0.505 0.16,-0.722 0.107,-0.219 0.252,-0.386 0.381,-0.505 0.264,-0.236 0.457,-0.338 0.565,-0.432 l -0.002,0.002 c 0.279,-0.222 0.48,-0.305 0.546,-0.356 l 0.003,-0.003 c 0.005,0.006 0.134,-0.126 0.348,-0.304 0.029,-0.022 0.095,-0.087 0.191,-0.191 0.098,-0.103 0.23,-0.246 0.429,-0.391 -10e-4,0 -10e-4,0 -10e-4,0.001 l 10e-4,-0.001 c 0.255,-0.182 0.462,-0.3 0.608,-0.408 l -0.004,0.003 c 0.291,-0.204 0.486,-0.268 0.533,-0.297 l 0.013,-0.017 c 0.03,-0.175 0.095,-0.344 0.224,-0.481 l 0.017,-0.019 0.08,-0.09 c 0.072,-0.081 0.183,-0.201 0.376,-0.401 0.014,-0.016 0.034,-0.02 0.049,-0.034 0.046,-0.042 0.097,-0.073 0.152,-0.106 0.054,-0.031 0.105,-0.063 0.164,-0.083 0.019,-0.006 0.033,-0.021 0.054,-0.027 0.036,-0.01 0.072,-0.002 0.109,-0.008 0.065,-0.01 0.125,-0.017 0.19,-0.013 0.059,0.003 0.114,0.015 0.17,0.029 0.058,0.015 0.112,0.03 0.166,0.056 0.058,0.027 0.108,0.063 0.16,0.101 0.029,0.023 0.065,0.033 0.092,0.06 0.016,0.014 0.021,0.034 0.035,0.049 0.042,0.045 0.073,0.098 0.105,0.152 0.024,0.039 0.056,0.073 0.072,0.114 0.175,0.093 0.323,0.202 0.424,0.311 0.148,0.161 0.246,0.318 0.327,0.465 0.159,0.288 0.259,0.561 0.308,0.662 l 10e-4,0.004 c 0.153,0.359 0.197,0.591 0.238,0.657 l 0.001,10e-4 c 0.038,0.081 0.086,0.172 0.143,0.299 0.056,0.125 0.116,0.287 0.156,0.468 l -10e-4,-10e-4 10e-4,10e-4 c 0.043,0.208 0.118,0.491 0.121,0.859 l -0.009,0.195 z m -6.862,-44.996 v -0.001 c 0.003,-0.109 -0.003,-0.245 0.029,-0.447 0.03,-0.197 0.132,-0.476 0.32,-0.684 0.121,-0.14 0.261,-0.245 0.4,-0.325 l 0.004,-0.003 c 0.257,-0.136 0.63,-0.419 1.237,-0.516 h 0.002 c 0.508,-0.068 0.868,-0.118 1.212,-0.247 0.399,-0.146 0.734,-0.155 0.954,-0.177 0.228,-0.019 0.334,-0.043 0.384,-0.069 0.004,-0.001 0.054,-0.032 0.16,-0.105 0.107,-0.07 0.276,-0.182 0.519,-0.261 l 0.003,-0.001 c 0.334,-0.103 0.607,-0.167 0.814,-0.245 0.094,-0.034 0.232,-0.106 0.416,-0.2 0.185,-0.092 0.42,-0.209 0.726,-0.282 h -10e-4 l 0.002,-10e-4 -0.001,10e-4 c 0.295,-0.07 0.569,-0.086 0.816,-0.086 0.177,0 0.34,0.008 0.488,0.017 h 0.002 c 0.511,0.037 0.876,0.146 1.119,0.159 h 0.001 l 0.124,0.004 c 0.118,10e-4 0.28,-0.011 0.485,-0.011 l 0.223,0.007 -10e-4,-0.001 0.002,0.001 H -2.23 c 0.106,0.007 0.238,0.019 0.399,0.06 0.16,0.044 0.36,0.106 0.585,0.297 0.147,0.126 0.297,0.33 0.36,0.572 l 0.031,0.198 0.012,0.26 c 0.052,0.396 0.071,0.771 0.071,1.146 -0.001,0.439 -0.055,0.844 -0.118,1.222 v -0.002 c -0.015,0.088 -0.033,0.25 -0.088,0.457 -0.057,0.204 -0.157,0.484 -0.419,0.742 l -10e-4,0.001 c -0.283,0.262 -0.516,0.37 -0.588,0.431 l -0.006,0.004 c -0.187,0.141 -0.476,0.278 -0.724,0.33 -0.244,0.058 -0.492,0.09 -0.741,0.09 -0.393,10e-4 -0.778,-0.083 -1.136,-0.226 l -0.004,-0.002 c -0.112,-0.049 -0.342,-0.099 -0.661,-0.237 l -0.002,-0.001 c -0.318,-0.153 -0.453,-0.233 -0.489,-0.233 -0.197,-0.05 -0.48,-0.079 -0.75,-0.078 -0.095,0 -0.185,0.005 -0.272,0.011 -0.051,0.035 -0.141,0.098 -0.301,0.177 h -0.001 c -0.441,0.2 -0.783,0.232 -0.936,0.291 -0.497,0.161 -0.77,0.28 -1.101,0.538 -0.057,0.043 -0.152,0.142 -0.291,0.282 -0.142,0.137 -0.333,0.324 -0.639,0.471 -0.202,0.096 -0.454,0.161 -0.713,0.16 h -0.003 -0.011 c -0.122,-0.001 -0.276,-0.002 -0.482,-0.057 -0.203,-0.052 -0.461,-0.193 -0.631,-0.398 -0.114,-0.134 -0.191,-0.28 -0.244,-0.417 0.001,0.001 0.001,0.001 0.001,0.002 l -0.001,-0.003 v 0.001 c -0.137,-0.366 -0.136,-0.671 -0.139,-0.895 0,-0.094 0.002,-0.171 0.002,-0.235 -0.037,-0.061 -0.066,-0.117 -0.091,-0.167 -0.084,-0.183 -0.129,-0.336 -0.133,-0.337 l 0.003,-0.002 c -0.074,-0.154 -0.131,-0.323 -0.157,-0.477 -0.027,-0.164 -0.029,-0.301 -0.029,-0.41 z m 69.186,50.153 c -0.167,-0.502 -0.369,-1.019 -0.391,-1.537 -0.02,-0.442 0.345,-0.921 0.273,-1.339 -0.212,-1.249 -0.555,-2.474 -0.847,-3.71 -0.084,0.017 -0.167,0.034 -0.251,0.051 -0.022,0.245 -0.044,0.49 -0.067,0.734 -0.258,-0.405 -0.459,-0.834 -0.438,-1.252 0.057,-1.163 0.217,-2.319 0.318,-3.479 0.163,-1.854 0.426,-3.678 -0.225,-5.542 -0.727,-2.081 -1.317,-4.222 -1.424,-6.459 -0.04,-0.831 -0.171,-1.659 -0.289,-2.484 -0.092,-0.647 -0.208,-1.291 -0.352,-1.928 -0.088,-0.388 -0.26,-0.756 -0.374,-1.139 -0.175,-0.587 -0.353,-1.174 -0.485,-1.771 -0.046,-0.204 0.147,-0.502 0.056,-0.65 -0.819,-1.335 -0.983,-2.877 -1.418,-4.332 -0.064,-0.213 -0.127,-0.451 -0.266,-0.614 -0.614,-0.722 -1.266,-1.411 -1.88,-2.133 -0.118,-0.138 -0.13,-0.367 -0.248,-0.732 -0.992,-1.138 -2.203,-2.358 -3.212,-3.726 -1.395,-1.892 -2.633,-3.9 -3.953,-5.848 -0.223,-0.329 -0.521,-0.607 -0.783,-0.909 -0.595,-0.688 -1.189,-1.376 -1.808,-2.091 0.165,-0.071 0.266,-0.113 0.347,-0.147 -1.313,-1.796 -2.622,-3.589 -3.948,-5.406 -0.076,0.228 -0.134,0.406 -0.193,0.584 -0.061,0.012 -0.122,0.024 -0.183,0.037 -0.301,-0.722 -0.666,-1.425 -0.884,-2.171 -0.184,-0.632 -0.489,-1.03 -1.105,-1.279 -0.407,-0.164 -0.764,-0.472 -1.112,-0.755 -0.318,-0.259 -0.561,-0.616 -0.893,-0.852 -0.931,-0.662 -1.848,-1.368 -2.852,-1.902 -1.426,-0.757 -2.521,-1.866 -3.605,-3.008 -0.592,-0.624 -1.169,-1.266 -1.78,-1.872 -0.205,-0.203 -0.479,-0.399 -0.753,-0.461 -1.896,-0.428 -3.803,-0.811 -5.701,-1.229 -0.313,-0.069 -0.644,-0.18 -0.899,-0.362 -0.948,-0.676 -1.839,-1.431 -2.805,-2.078 -1.132,-0.759 -2.314,-1.446 -3.486,-2.142 -0.588,-0.35 -1.172,-0.801 -1.817,-0.947 -1.848,-0.419 -3.725,-0.71 -5.594,-1.038 -0.193,-0.034 -0.402,0.007 -0.602,0.031 -0.659,0.079 -1.351,0.335 -1.971,0.217 -1.881,-0.361 -3.602,0.246 -5.334,0.734 -0.899,0.254 -1.625,0.025 -2.363,-0.362 -0.095,-0.049 -0.065,-0.338 -0.122,-0.717 -1.445,-0.306 -3.053,-0.74 -4.689,-0.955 -0.973,-0.129 -1.991,0.098 -2.989,0.144 -0.426,0.02 -0.87,0.057 -1.277,-0.036 -0.747,-0.171 -1.473,-0.611 -2.21,-0.617 -1.293,-0.009 -2.585,0.281 -3.882,0.334 -0.581,0.024 -0.682,0.596 -1.086,0.698 -0.76,0.193 -1.546,0.28 -2.321,0.411 -0.003,-0.027 -0.005,-0.054 -0.007,-0.08 0.195,-0.099 0.391,-0.197 0.722,-0.364 -1.491,-0.292 -1.799,-0.194 -2.645,0.727 -0.136,0.148 -0.272,0.348 -0.447,0.402 -0.941,0.291 -1.567,1.072 -2.414,1.505 -0.291,0.148 -0.559,0.343 -0.827,0.531 -0.577,0.405 -1.094,0.966 -1.732,1.202 -2.005,0.743 -4.056,1.364 -6.087,2.037 -0.411,0.136 -0.815,0.294 -1.222,0.441 0.019,0.073 0.038,0.145 0.057,0.217 l 1.128,-0.218 c 0.03,0.068 0.061,0.136 0.092,0.204 -0.374,0.197 -0.728,0.477 -1.127,0.571 -0.582,0.138 -1.203,0.983 -1.803,0.005 -0.025,-0.04 -0.197,-0.015 -0.289,0.015 -1.752,0.57 -3.549,1.044 -5.034,2.215 -0.767,0.606 -1.43,1.463 -2.297,1.793 -1.103,0.42 -1.881,1.123 -2.662,1.906 -0.138,0.139 -0.314,0.238 -0.471,0.358 -0.894,0.687 -1.83,1.328 -2.667,2.079 -0.517,0.464 -0.884,1.096 -1.342,1.683 -0.337,-0.403 -0.436,-0.521 -0.668,-0.798 -0.519,0.591 -0.969,1.138 -1.456,1.652 -1.357,1.435 -2.585,3.002 -4.249,4.128 -0.302,0.205 -0.521,0.546 -0.749,0.847 -0.736,0.967 -1.438,1.96 -2.19,2.914 -1.668,2.117 -3.362,4.21 -4.461,6.707 -0.17,0.386 -0.477,0.712 -0.727,1.06 -0.037,0.051 -0.115,0.071 -0.237,0.142 0.047,-0.227 0.081,-0.394 0.116,-0.562 -0.416,0.278 -0.792,0.6 -0.917,0.999 -0.486,1.559 -0.898,3.141 -1.328,4.717 -0.278,1.016 -0.418,2.09 -0.836,3.043 -0.896,2.041 -1.914,4.031 -2.929,6.017 -0.206,0.405 -0.738,0.655 -0.913,1.064 -0.381,0.891 -0.716,1.822 -0.913,2.768 -0.367,1.765 -0.605,3.556 -0.935,5.329 -0.09,0.491 -0.406,0.946 -0.463,1.435 -0.326,2.787 -0.131,5.632 -1.065,8.35 -0.63,1.832 -0.343,3.787 0.003,5.56 0.57,2.922 0.605,5.827 0.663,8.76 0.014,0.712 0.289,1.433 0.526,2.122 0.443,1.283 0.948,2.544 1.421,3.818 0.04,0.108 0.073,0.247 0.041,0.351 -0.162,0.541 -0.285,1.125 0.244,1.485 0.996,0.679 1.306,1.62 1.275,2.751 -0.004,0.174 0.061,0.348 0.09,0.523 0.503,2.997 1.727,5.733 3.132,8.386 0.886,1.676 1.932,3.268 2.893,4.904 0.447,0.764 0.869,1.542 1.289,2.322 0.432,0.801 0.714,1.731 1.301,2.394 1.122,1.269 2.351,2.463 3.651,3.55 1.476,1.234 3.144,2.19 4.262,3.881 0.78,1.18 2.049,2.026 2.964,3.134 1.451,1.755 2.771,3.62 4.189,5.405 0.254,0.319 0.697,0.634 1.082,0.676 1.205,0.13 2.425,0.178 3.638,0.173 25.771,-0.1 51.543,-0.212 77.313,-0.325 0.558,-0.003 1.117,10e-4 1.671,-0.052 0.226,-0.022 0.517,-0.13 0.644,-0.299 1.19,-1.604 2.347,-3.232 3.526,-4.844 0.174,-0.237 0.386,-0.463 0.623,-0.635 0.872,-0.632 1.763,-1.238 2.646,-1.854 0.162,-0.113 0.309,-0.284 0.488,-0.328 2.104,-0.52 3.828,-1.476 4.578,-3.693 0.258,-0.763 0.619,-1.498 0.994,-2.214 0.539,-1.029 1.055,-2.085 1.723,-3.027 1.229,-1.734 2.569,-3.39 3.846,-5.09 0.209,-0.277 0.375,-0.601 0.498,-0.929 1.456,-3.858 2.905,-7.712 4.831,-11.379 0.517,-0.986 0.802,-2.262 0.708,-3.364 -0.203,-2.361 0.024,-4.582 1.066,-6.712 0.144,-0.295 0.245,-0.61 0.371,-0.914 0.527,-1.276 0.98,-2.592 1.62,-3.809 0.311,-0.589 0.577,-1.069 0.357,-1.732"
               style="fill:#110f0d;fill-opacity:1;fill-rule:nonzero;stroke:none"
               id="path1525" />
          </g>
        </g>
        <g
           id="g1527"
           transform="matrix(0.1531793,0,0,-0.1519643,50.31089,421.35873)">
          <g
             id="g1529"
             transform="translate(-39.4546,60.2633)">
            <path
               d="M 0,0 C 0.63,0.581 1.242,1.179 1.892,1.742 2.109,1.931 2.4,2.112 2.69,2.17 4.705,2.568 6.729,2.926 8.747,3.313 9.079,3.378 9.429,3.48 9.702,3.65 c 1.006,0.629 1.953,1.332 2.978,1.934 1.203,0.705 2.457,1.345 3.703,1.992 0.625,0.325 1.245,0.745 1.929,0.881 1.963,0.39 3.958,0.66 5.941,0.966 0.206,0.031 0.429,-0.007 0.641,-0.029 0.7,-0.074 1.434,-0.313 2.093,-0.203 1.997,0.336 3.826,-0.229 5.665,-0.682 0.955,-0.237 1.726,-0.024 2.511,0.337 0.1,0.046 0.067,0.314 0.129,0.667 1.535,0.284 3.242,0.688 4.98,0.888 1.033,0.12 2.114,-0.09 3.175,-0.134 0.452,-0.018 0.924,-0.053 1.356,0.034 0.794,0.158 1.565,0.568 2.347,0.573 1.373,0.009 2.746,-0.261 4.123,-0.311 0.617,-0.022 0.725,-0.553 1.154,-0.649 0.807,-0.179 1.642,-0.26 2.465,-0.382 0.003,0.025 0.005,0.05 0.008,0.074 -0.208,0.092 -0.415,0.184 -0.768,0.339 1.584,0.272 1.911,0.18 2.81,-0.676 0.144,-0.138 0.29,-0.325 0.475,-0.374 1,-0.27 1.665,-0.998 2.564,-1.4 0.309,-0.138 0.593,-0.319 0.878,-0.494 0.613,-0.377 1.162,-0.898 1.84,-1.118 2.13,-0.692 4.307,-1.269 6.466,-1.895 C 69.601,3.861 70.03,3.715 70.462,3.577 70.442,3.511 70.421,3.443 70.401,3.376 70.001,3.443 69.603,3.512 69.204,3.579 69.17,3.516 69.138,3.452 69.106,3.389 69.502,3.206 69.879,2.945 70.302,2.857 70.92,2.729 71.58,1.943 72.218,2.853 c 0.027,0.038 0.208,0.014 0.306,-0.013 1.861,-0.531 3.769,-0.972 5.347,-2.062 0.815,-0.563 1.518,-1.36 2.439,-1.667 0.676,-0.225 1.231,-0.544 1.742,-0.907 H -2.155 C -1.388,-1.247 -0.687,-0.634 0,0"
               style="fill:#110f0d;fill-opacity:1;fill-rule:nonzero;stroke:none"
               id="path1531" />
          </g>
        </g>
      </g>
    </g>
  </g>
</svg>
