<?xml version="1.0" encoding="UTF-8" standalone="no"?>
<!-- Created with Inkscape (http://www.inkscape.org/) -->

<svg
   width="24.18005"
   height="24"
   viewBox="0 0 6.3976382 6.35"
   version="1.1"
   id="svg7946"
   inkscape:version="1.2.1 (9c6d41e4, 2022-07-14)"
   sodipodi:docname="return-to-the-witching-hour.svg"
   xmlns:inkscape="http://www.inkscape.org/namespaces/inkscape"
   xmlns:sodipodi="http://sodipodi.sourceforge.net/DTD/sodipodi-0.dtd"
   xmlns="http://www.w3.org/2000/svg"
   xmlns:svg="http://www.w3.org/2000/svg">
  <sodipodi:namedview
     id="namedview7948"
     pagecolor="#505050"
     bordercolor="#eeeeee"
     borderopacity="1"
     inkscape:showpageshadow="0"
     inkscape:pageopacity="0"
     inkscape:pagecheckerboard="0"
     inkscape:deskcolor="#505050"
     inkscape:document-units="mm"
     showgrid="false"
     inkscape:zoom="0.7046647"
     inkscape:cx="-70.955732"
     inkscape:cy="84.437321"
     inkscape:window-width="1390"
     inkscape:window-height="941"
     inkscape:window-x="0"
     inkscape:window-y="25"
     inkscape:window-maximized="0"
     inkscape:current-layer="layer1" />
  <defs
     id="defs7943">
    <clipPath
       clipPathUnits="userSpaceOnUse"
       id="clipPath1385">
      <path
         d="m 150.565,466.013 h 22.058 v 21.883 h -22.058 z"
         id="path1383" />
    </clipPath>
  </defs>
  <g
     inkscape:label="Layer 1"
     inkscape:groupmode="layer"
     id="layer1"
     transform="translate(-124.0869,-126.36355)">
    <g
       id="g1379"
       transform="matrix(0.29701059,0,0,-0.29701059,79.259011,271.13728)">
      <g
         id="g1381"
         clip-path="url(#clipPath1385)">
        <g
           id="g1387"
           transform="matrix(0.1531793,0,0,-0.1519643,161.59476,476.86691)">
          <g
             id="g1389"
             transform="translate(12.9658,-42.1352)">
            <path
               d="m 0,0 c -3.895,-1.148 -8.011,-1.775 -12.277,-1.775 -23.929,0 -43.327,19.399 -43.327,43.328 0,23.929 19.398,43.328 43.327,43.328 4.266,0 8.382,-0.627 12.277,-1.776 C -17.948,77.811 -31.052,61.217 -31.052,41.553 -31.052,21.89 -17.948,5.296 0,0"
               style="fill:#110f0d;fill-opacity:1;fill-rule:nonzero;stroke:none"
               id="path1391" />
          </g>
        </g>
        <g
           id="g1393"
           transform="matrix(0.1531793,0,0,-0.1519643,161.59476,476.86691)">
          <g
             id="g1395"
             transform="translate(21.0029,42.5357)">
            <path
               d="m 0,0 c -6.163,2.909 -13.047,4.543 -20.314,4.543 -26.322,0 -47.66,-21.339 -47.66,-47.661 0,-26.322 21.338,-47.66 47.66,-47.66 7.267,0 14.151,1.633 20.314,4.542 16.16,7.627 27.347,24.063 27.347,43.118 C 27.347,-24.062 16.16,-7.627 0,0 m 49.915,-34.608 c -0.167,-0.502 -0.368,-1.02 -0.391,-1.538 -0.019,-0.442 0.345,-0.92 0.274,-1.338 -0.213,-1.249 -0.556,-2.475 -0.848,-3.71 -0.084,0.016 -0.167,0.034 -0.251,0.05 -0.021,0.246 -0.044,0.491 -0.066,0.735 -0.259,-0.405 -0.459,-0.835 -0.439,-1.253 0.058,-1.162 0.217,-2.319 0.319,-3.479 0.163,-1.854 0.425,-3.677 -0.226,-5.542 -0.726,-2.08 -1.316,-4.222 -1.424,-6.459 -0.04,-0.831 -0.171,-1.659 -0.289,-2.484 -0.092,-0.646 -0.208,-1.291 -0.351,-1.928 -0.088,-0.387 -0.26,-0.756 -0.374,-1.139 -0.175,-0.586 -0.354,-1.174 -0.486,-1.77 -0.046,-0.205 0.148,-0.502 0.057,-0.65 -0.819,-1.335 -0.983,-2.877 -1.419,-4.332 -0.063,-0.214 -0.127,-0.452 -0.266,-0.615 -0.614,-0.721 -1.265,-1.411 -1.88,-2.132 -0.118,-0.139 -0.129,-0.368 -0.248,-0.732 -0.992,-1.139 -2.203,-2.359 -3.211,-3.727 -1.396,-1.892 -2.633,-3.9 -3.954,-5.848 -0.222,-0.329 -0.52,-0.606 -0.783,-0.909 -0.595,-0.687 -1.188,-1.375 -1.807,-2.091 0.165,-0.07 0.265,-0.112 0.346,-0.147 -1.312,-1.795 -2.622,-3.588 -3.948,-5.405 -0.075,0.228 -0.134,0.405 -0.192,0.583 -0.062,0.012 -0.122,0.025 -0.184,0.037 -0.301,-0.722 -0.666,-1.424 -0.884,-2.171 -0.183,-0.631 -0.488,-1.03 -1.104,-1.278 -0.407,-0.165 -0.765,-0.473 -1.113,-0.756 -0.318,-0.259 -0.56,-0.616 -0.892,-0.852 -0.932,-0.662 -1.849,-1.367 -2.853,-1.902 -1.425,-0.757 -2.52,-1.866 -3.604,-3.007 -0.593,-0.625 -1.169,-1.267 -1.78,-1.873 -0.206,-0.203 -0.48,-0.398 -0.753,-0.46 -1.897,-0.428 -3.803,-0.812 -5.702,-1.23 -0.313,-0.068 -0.643,-0.179 -0.899,-0.362 -0.947,-0.676 -1.839,-1.431 -2.805,-2.078 -1.131,-0.759 -2.313,-1.446 -3.486,-2.142 -0.588,-0.35 -1.172,-0.801 -1.816,-0.947 -1.848,-0.419 -3.726,-0.709 -5.594,-1.038 -0.193,-0.034 -0.402,0.007 -0.603,0.031 -0.659,0.079 -1.35,0.336 -1.97,0.217 -1.881,-0.36 -3.603,0.247 -5.334,0.735 -0.9,0.253 -1.625,0.024 -2.364,-0.363 -0.094,-0.049 -0.064,-0.338 -0.122,-0.717 -1.445,-0.305 -3.052,-0.739 -4.689,-0.955 -0.972,-0.129 -1.99,0.098 -2.988,0.144 -0.426,0.02 -0.87,0.058 -1.278,-0.036 -0.747,-0.171 -1.472,-0.611 -2.209,-0.616 -1.293,-0.009 -2.586,0.28 -3.883,0.334 -0.58,0.024 -0.681,0.595 -1.086,0.697 -0.759,0.193 -1.545,0.281 -2.321,0.411 -0.002,-0.026 -0.004,-0.053 -0.007,-0.08 0.196,-0.098 0.391,-0.197 0.723,-0.364 -1.491,-0.291 -1.799,-0.193 -2.646,0.727 -0.136,0.149 -0.272,0.349 -0.446,0.403 -0.941,0.29 -1.568,1.071 -2.415,1.504 -0.29,0.148 -0.558,0.344 -0.826,0.532 -0.578,0.404 -1.094,0.965 -1.732,1.201 -2.006,0.743 -4.057,1.364 -6.088,2.037 -0.411,0.136 -0.815,0.294 -1.222,0.442 0.019,0.072 0.038,0.144 0.058,0.216 l 1.128,-0.218 c 0.03,0.068 0.061,0.137 0.091,0.204 -0.374,0.197 -0.728,0.478 -1.126,0.572 -0.583,0.137 -1.203,0.982 -1.804,0.005 -0.025,-0.041 -0.197,-0.016 -0.288,0.014 -1.752,0.571 -3.549,1.044 -5.034,2.216 -0.767,0.605 -1.43,1.462 -2.297,1.792 -1.104,0.42 -1.881,1.124 -2.662,1.907 -0.138,0.138 -0.315,0.238 -0.471,0.358 -0.895,0.687 -1.83,1.327 -2.667,2.078 -0.518,0.465 -0.885,1.096 -1.343,1.683 -0.337,-0.402 -0.436,-0.521 -0.668,-0.798 -0.519,0.591 -0.969,1.139 -1.455,1.652 -1.358,1.436 -2.586,3.002 -4.25,4.128 -0.302,0.205 -0.52,0.547 -0.749,0.847 -0.735,0.967 -1.438,1.961 -2.19,2.915 -1.668,2.116 -3.362,4.21 -4.461,6.707 -0.17,0.385 -0.476,0.712 -0.727,1.06 -0.036,0.051 -0.115,0.071 -0.236,0.141 0.047,-0.226 0.081,-0.394 0.116,-0.561 -0.417,0.277 -0.793,0.599 -0.918,0.999 -0.486,1.558 -0.897,3.14 -1.328,4.717 -0.278,1.015 -0.417,2.089 -0.836,3.042 -0.896,2.041 -1.913,4.031 -2.928,6.018 -0.207,0.404 -0.738,0.654 -0.913,1.064 -0.382,0.891 -0.716,1.821 -0.913,2.768 -0.367,1.764 -0.606,3.555 -0.935,5.328 -0.091,0.491 -0.407,0.946 -0.464,1.435 -0.326,2.787 -0.13,5.632 -1.065,8.35 -0.63,1.833 -0.342,3.788 0.003,5.56 0.57,2.922 0.606,5.827 0.663,8.761 0.014,0.712 0.289,1.432 0.526,2.121 0.443,1.283 0.949,2.545 1.421,3.818 0.041,0.109 0.073,0.247 0.042,0.352 -0.162,0.541 -0.285,1.125 0.243,1.484 0.997,0.679 1.307,1.62 1.275,2.751 -0.004,0.174 0.061,0.349 0.091,0.524 0.502,2.997 1.727,5.732 3.131,8.385 0.887,1.676 1.933,3.268 2.893,4.905 0.447,0.763 0.869,1.542 1.289,2.321 0.433,0.802 0.715,1.731 1.301,2.394 1.122,1.269 2.352,2.463 3.652,3.55 1.475,1.235 3.144,2.191 4.261,3.881 0.78,1.181 2.05,2.026 2.964,3.134 1.451,1.756 2.771,3.62 4.189,5.405 0.254,0.32 0.697,0.634 1.082,0.676 1.205,0.131 2.425,0.179 3.639,0.174 25.771,-0.101 51.542,-0.213 77.313,-0.325 0.557,-0.003 1.117,0.001 1.67,-0.053 0.226,-0.022 0.517,-0.13 0.644,-0.299 1.19,-1.603 2.348,-3.231 3.526,-4.844 0.174,-0.237 0.386,-0.463 0.623,-0.634 0.873,-0.632 1.763,-1.239 2.647,-1.855 0.161,-0.112 0.309,-0.284 0.487,-0.328 2.105,-0.52 3.828,-1.476 4.578,-3.692 0.258,-0.764 0.62,-1.499 0.995,-2.214 0.539,-1.03 1.054,-2.085 1.722,-3.028 1.23,-1.734 2.57,-3.389 3.847,-5.09 0.209,-0.277 0.375,-0.601 0.498,-0.928 1.455,-3.859 2.904,-7.713 4.83,-11.38 0.518,-0.985 0.803,-2.262 0.708,-3.363 -0.202,-2.362 0.024,-4.582 1.066,-6.712 0.145,-0.295 0.246,-0.611 0.371,-0.914 0.528,-1.277 0.98,-2.593 1.621,-3.81 0.31,-0.589 0.577,-1.068 0.356,-1.731"
               style="fill:#110f0d;fill-opacity:1;fill-rule:nonzero;stroke:none"
               id="path1397" />
          </g>
        </g>
        <g
           id="g1399"
           transform="matrix(0.1531793,0,0,-0.1519643,161.59476,476.86691)">
          <g
             id="g1401"
             transform="translate(-39.4546,60.2633)">
            <path
               d="M 0,0 C 0.63,0.581 1.242,1.179 1.892,1.742 2.109,1.931 2.4,2.112 2.69,2.17 4.705,2.568 6.729,2.926 8.747,3.313 9.079,3.378 9.429,3.48 9.702,3.65 c 1.006,0.629 1.953,1.332 2.978,1.934 1.203,0.705 2.457,1.345 3.703,1.992 0.625,0.325 1.245,0.745 1.929,0.881 1.963,0.39 3.958,0.66 5.941,0.966 0.206,0.031 0.429,-0.007 0.641,-0.029 0.7,-0.074 1.434,-0.313 2.093,-0.203 1.997,0.336 3.826,-0.229 5.665,-0.682 0.955,-0.237 1.726,-0.024 2.511,0.337 0.1,0.046 0.067,0.314 0.129,0.667 1.535,0.284 3.242,0.688 4.98,0.888 1.033,0.12 2.114,-0.09 3.175,-0.134 0.452,-0.018 0.924,-0.053 1.356,0.034 0.794,0.158 1.565,0.568 2.347,0.573 1.373,0.009 2.746,-0.261 4.123,-0.311 0.617,-0.022 0.725,-0.553 1.154,-0.649 0.807,-0.179 1.642,-0.26 2.465,-0.382 0.003,0.025 0.005,0.05 0.008,0.074 -0.208,0.092 -0.415,0.184 -0.768,0.339 1.584,0.272 1.911,0.18 2.81,-0.676 0.144,-0.138 0.29,-0.325 0.475,-0.374 1,-0.27 1.665,-0.998 2.564,-1.4 0.309,-0.138 0.593,-0.319 0.878,-0.494 0.613,-0.377 1.162,-0.898 1.84,-1.118 2.13,-0.692 4.307,-1.269 6.466,-1.895 C 69.601,3.861 70.03,3.715 70.462,3.577 70.442,3.511 70.421,3.443 70.401,3.376 70.001,3.443 69.603,3.512 69.204,3.579 69.17,3.516 69.138,3.452 69.106,3.389 69.502,3.206 69.879,2.945 70.302,2.857 70.92,2.729 71.58,1.943 72.218,2.853 c 0.027,0.038 0.208,0.014 0.306,-0.013 1.861,-0.531 3.769,-0.972 5.347,-2.062 0.815,-0.563 1.518,-1.36 2.439,-1.667 0.676,-0.225 1.231,-0.544 1.742,-0.907 H -2.155 C -1.388,-1.247 -0.687,-0.634 0,0"
               style="fill:#110f0d;fill-opacity:1;fill-rule:nonzero;stroke:none"
               id="path1403" />
          </g>
        </g>
      </g>
    </g>
  </g>
</svg>
