<?xml version="1.0" encoding="UTF-8" standalone="no"?>
<!-- Created with Inkscape (http://www.inkscape.org/) -->

<svg
   width="17.746794"
   height="24"
   viewBox="0 0 4.6955057 6.35"
   version="1.1"
   id="svg9205"
   inkscape:version="1.2.1 (9c6d41e4, 2022-07-14)"
   sodipodi:docname="unstable-realm.svg"
   xmlns:inkscape="http://www.inkscape.org/namespaces/inkscape"
   xmlns:sodipodi="http://sodipodi.sourceforge.net/DTD/sodipodi-0.dtd"
   xmlns="http://www.w3.org/2000/svg"
   xmlns:svg="http://www.w3.org/2000/svg">
  <sodipodi:namedview
     id="namedview9207"
     pagecolor="#505050"
     bordercolor="#eeeeee"
     borderopacity="1"
     inkscape:showpageshadow="0"
     inkscape:pageopacity="0"
     inkscape:pagecheckerboard="0"
     inkscape:deskcolor="#505050"
     inkscape:document-units="mm"
     showgrid="false"
     inkscape:zoom="0.7046647"
     inkscape:cx="-82.308649"
     inkscape:cy="168.16509"
     inkscape:window-width="1390"
     inkscape:window-height="941"
     inkscape:window-x="0"
     inkscape:window-y="25"
     inkscape:window-maximized="0"
     inkscape:current-layer="layer1" />
  <defs
     id="defs9202">
    <clipPath
       clipPathUnits="userSpaceOnUse"
       id="clipPath2549">
      <path
         d="m 159.654,613.412 h 22.76 v 22.76 h -22.76 z"
         id="path2547" />
    </clipPath>
  </defs>
  <g
     inkscape:label="Layer 1"
     inkscape:groupmode="layer"
     id="layer1"
     transform="translate(-126.81533,-104.2106)">
    <g
       id="g2543"
       transform="matrix(0.30130691,0,0,-0.30130691,77.629479,295.63963)">
      <g
         id="g2545"
         clip-path="url(#clipPath2549)">
        <g
           id="g2551"
           transform="translate(166.5864,621.0196)">
          <path
             d="M 0,0 C -0.032,0.19 -0.075,0.427 -0.171,0.597 -0.245,0.728 -0.379,0.86 -0.493,0.957 -0.547,1.003 -0.588,1.037 -0.63,1.092 -0.661,1.133 -0.689,1.177 -0.728,1.215 -0.839,1.323 -1.026,1.351 -1.172,1.388 -1.347,1.432 -1.493,1.436 -1.668,1.434 -1.766,1.433 -1.844,1.463 -1.884,1.358 -1.952,1.181 -1.902,0.919 -1.864,0.736 -1.836,0.6 -1.709,0.463 -1.622,0.366 -1.477,0.205 -1.29,0.07 -1.163,-0.107 c 0.147,-0.206 0.186,-0.431 0.199,-0.675 0.015,-0.278 -0.006,-0.563 -0.008,-0.843 -0.002,-0.36 0.073,-0.727 0.101,-1.088 0.02,-0.259 0.032,-0.519 0.051,-0.778 0.008,-0.096 -0.007,-0.208 0.045,-0.289 0.031,-0.049 0.078,-0.093 0.12,-0.14 0.26,0.521 0.293,1.119 0.382,1.829 0,0.14 0.562,0.422 0.562,0.562 0.022,0.061 0.042,0.123 0.061,0.186 C 0.236,-1.162 0.16,-0.977 0.117,-0.748 0.07,-0.5 0.042,-0.249 0,0"
             style="fill:#100f0d;fill-opacity:1;fill-rule:nonzero;stroke:none"
             id="path2553" />
        </g>
        <g
           id="g2555"
           transform="translate(176.9163,622.4202)">
          <path
             d="m 0,0 c -0.053,-0.011 -0.073,-0.069 -0.105,-0.107 -0.063,-0.074 -0.151,-0.12 -0.214,-0.194 -0.048,-0.057 -0.089,-0.093 -0.149,-0.138 -0.035,-0.026 -0.15,-0.135 -0.196,-0.127 -0.014,0.078 -0.039,0.152 -0.038,0.232 0.001,0.038 0.002,0.078 0,0.117 -0.002,0.044 -0.016,0.057 -0.026,0.091 C -0.753,-0.044 -0.74,0.027 -0.84,0.06 -0.912,0.083 -1.024,0.076 -1.095,0.054 -1.188,0.025 -1.22,-0.069 -1.268,-0.151 -1.336,-0.268 -1.379,-0.42 -1.401,-0.553 -1.428,-0.72 -1.458,-0.886 -1.488,-1.052 c -0.028,-0.153 -0.045,-0.316 -0.049,-0.47 -0.005,-0.152 -0.052,-0.305 -0.068,-0.457 -0.027,-0.271 -0.084,-0.537 -0.166,-0.798 -0.094,-0.297 -0.311,-0.509 -0.461,-0.769 -0.063,-0.11 -0.119,-0.214 -0.204,-0.32 -0.057,-0.072 -0.129,-0.182 -0.241,-0.119 -0.101,0.057 -0.051,0.204 -0.063,0.29 -0.01,0.064 -0.025,0.172 -0.081,0.202 -0.085,0.046 -0.243,0.054 -0.339,0.049 -0.085,-0.004 -0.193,-0.057 -0.214,-0.15 -0.013,-0.054 10e-4,-0.115 -0.006,-0.17 -0.01,-0.077 -0.032,-0.139 -0.03,-0.217 0.002,-0.085 -0.018,-0.139 -0.031,-0.217 -0.007,-0.043 0.004,-0.088 -0.001,-0.132 -0.006,-0.037 -0.015,-0.099 -0.035,-0.129 -0.036,-0.057 -0.193,-0.131 -0.268,-0.121 -0.04,0.226 0.027,0.474 0.002,0.703 -0.01,0.085 -0.109,0.14 -0.191,0.167 -0.159,0.053 -0.334,0.031 -0.498,0.032 -0.142,10e-4 -0.324,0.033 -0.386,-0.122 -0.059,-0.149 -0.064,-0.3 -0.063,-0.458 0,-0.099 0.041,-0.29 -0.015,-0.375 -0.044,-0.065 -0.149,-0.046 -0.217,-0.053 -0.054,-0.005 -0.138,-0.042 -0.18,-0.006 -0.046,0.039 -0.066,0.206 -0.059,0.263 0.012,0.093 0.039,0.169 0.036,0.266 -0.001,0.058 -0.022,0.169 -0.07,0.211 -0.05,0.043 -0.161,0.039 -0.222,0.049 -0.097,0.016 -0.195,0.037 -0.293,0.022 -0.25,-0.038 -0.157,-0.403 -0.192,-0.583 -0.014,-0.078 -0.012,-0.181 -0.049,-0.251 -0.062,-0.12 -0.271,-0.066 -0.392,-0.066 -0.105,0 -0.21,-0.007 -0.314,-0.002 -0.06,0.003 -0.213,0.006 -0.255,0.054 -0.035,0.039 -0.015,0.091 -0.017,0.143 -0.003,0.103 -0.035,0.203 -0.036,0.306 -0.001,0.104 -0.015,0.236 -0.049,0.335 -0.032,0.095 -0.106,0.255 -0.2,0.301 -0.086,0.043 -0.33,0.075 -0.419,0.029 -0.005,-0.085 0,-0.173 0,-0.258 0,-0.067 0,-0.133 0,-0.199 0,-0.052 0.02,-0.147 -0.001,-0.193 -0.03,-0.065 -0.101,-0.052 -0.168,-0.05 -0.088,0.002 -0.185,0.006 -0.262,0.054 -0.088,0.053 -0.111,0.108 -0.142,0.209 -0.064,0.209 -0.044,0.408 -0.254,0.537 -0.101,0.061 -0.161,0.102 -0.243,0.008 -0.096,-0.11 -0.05,-0.236 -0.065,-0.369 -0.105,-0.01 -0.174,0.074 -0.255,0.125 -10e-4,0 -0.002,10e-4 -0.003,10e-4 -0.106,-0.069 -0.277,-0.108 -0.466,-0.132 0.209,-0.104 0.418,-0.209 0.627,-0.314 -0.233,-0.233 -0.563,-0.273 -0.829,-0.361 0.098,-0.063 0.192,-0.127 0.266,-0.201 0.282,-0.422 -0.281,-0.704 -0.281,-1.126 -0.128,0.016 -0.248,0.016 -0.364,0.005 0.058,-0.05 0.108,-0.108 0.138,-0.183 0.036,-0.087 0.038,-0.179 0.07,-0.27 0.214,-0.288 0.471,-0.53 0.774,-0.726 0.092,-0.059 0.184,-0.119 0.276,-0.179 0.143,-0.071 0.252,-0.134 0.378,-0.241 0.181,-0.145 0.347,-0.306 0.497,-0.484 0.114,-0.05 0.163,-0.117 0.148,-0.204 0.059,0.009 0.118,0.009 0.178,0.001 0.228,0.017 0.454,0.047 0.678,0.091 0.38,0.053 0.756,0.087 1.139,0.085 0.923,-0.004 1.898,-0.12 2.79,0.175 0.199,0.066 0.4,0.084 0.597,0.148 0.386,0.224 0.749,0.482 1.089,0.774 0.279,0.203 0.539,0.429 0.779,0.677 0.127,0.187 0.123,0.372 0.201,0.567 0.047,0.116 0.132,0.224 0.166,0.342 0.01,0.07 0.008,0.14 -0.008,0.211 -0.011,0.202 -0.022,0.405 -0.035,0.607 -0.045,0.69 -0.065,1.379 -0.018,2.07 0.033,0.493 -0.03,1.012 0.165,1.479 0.05,0.105 0.106,0.207 0.167,0.307 0.029,0.045 0.06,0.091 0.092,0.135 C 0.024,-0.43 0.027,-0.337 0,0"
             style="fill:#100f0d;fill-opacity:1;fill-rule:nonzero;stroke:none"
             id="path2557" />
        </g>
        <g
           id="g2559"
           transform="translate(169.9712,627.7925)">
          <path
             d="M 0,0 C 0,-0.006 -0.001,-0.012 -0.001,-0.018 0,-0.059 0,-0.099 0,-0.141 Z"
             style="fill:#100f0d;fill-opacity:1;fill-rule:nonzero;stroke:none"
             id="path2561" />
        </g>
        <g
           id="g2563"
           transform="translate(169.687,627.2004)">
          <path
             d="m 0,0 c -0.048,-0.174 -0.11,-0.353 -0.217,-0.501 -0.05,-0.068 -0.09,-0.138 -0.133,-0.208 -0.018,-0.03 -0.06,-0.068 -0.074,-0.094 -0.01,-0.017 -0.014,-0.042 -0.024,-0.062 -0.051,-0.101 -0.106,-0.2 -0.163,-0.297 -0.04,-0.067 -0.072,-0.154 -0.125,-0.211 -0.086,-0.092 -0.265,-0.078 -0.385,-0.105 -0.123,-0.028 -0.238,-0.099 -0.333,-0.183 -0.09,-0.08 -0.166,-0.159 -0.293,-0.177 -0.299,0.021 -0.205,-0.012 -0.119,-0.064 -0.167,-0.007 -0.332,-0.033 -0.499,-0.037 -0.091,-0.002 -0.185,0.007 -0.275,-0.007 -0.156,-0.023 -0.322,-0.049 -0.479,-0.018 -0.369,0.073 -0.725,0.223 -0.963,0.529 -0.135,0.173 -0.197,0.437 -0.205,0.651 -0.003,0.075 -0.031,0.14 -0.034,0.217 -0.003,0.091 0.007,0.183 10e-4,0.274 -0.006,0.097 -0.033,0.188 -0.036,0.285 -0.004,0.106 10e-4,0.212 10e-4,0.317 0,0.096 -0.009,0.199 -10e-4,0.295 0.015,0.174 0.144,0.37 0.272,0.481 0.179,0.156 0.335,0.302 0.555,0.395 0.153,0.065 0.291,0.144 0.437,0.22 0.082,0.043 0.217,0.095 0.307,0.109 0.098,0.015 0.215,-0.003 0.315,-0.003 0.285,0 0.579,-0.022 0.859,0.026 0.106,0.019 0.254,0.033 0.356,10e-4 C -1.187,1.812 -1.127,1.756 -1.063,1.726 -0.968,1.681 -0.867,1.658 -0.777,1.598 -0.699,1.546 -0.629,1.487 -0.547,1.44 -0.394,1.353 -0.154,1.247 -0.1,1.071 -0.052,0.911 -0.046,0.748 -0.017,0.578 0.016,0.381 0.053,0.196 0,0 m 0.425,3.969 c 0.234,0.117 0.468,0.137 0.703,0.14 L 1.129,4.11 C 1.41,4.532 0.847,4.673 0.425,4.813 1.605,5.403 1.4,6.785 1.386,8.128 1.327,8.129 1.268,8.129 1.209,8.127 1.11,8.124 1.02,8.096 0.922,8.09 0.728,8.08 0.55,8.061 0.359,8.017 0.199,7.98 0.043,7.921 -0.12,7.899 -0.197,7.889 -0.26,7.883 -0.333,7.858 -0.431,7.825 -0.512,7.832 -0.611,7.822 -0.777,7.805 -0.942,7.736 -1.102,7.692 -1.393,7.613 -1.659,7.484 -1.922,7.34 -2.08,7.255 -2.24,7.173 -2.399,7.089 -2.574,6.996 -2.725,6.865 -2.901,6.779 -3.061,6.701 -3.209,6.601 -3.358,6.503 -3.499,6.41 -3.668,6.355 -3.801,6.253 -3.889,6.186 -3.93,6.096 -3.988,6.006 -4.148,5.754 -4.449,5.622 -4.642,5.398 -4.721,5.307 -4.823,5.239 -4.909,5.152 -4.989,5.071 -5.048,4.977 -5.119,4.889 -5.215,4.771 -5.22,4.682 -5.273,4.54 -5.33,4.387 -5.43,4.248 -5.479,4.094 -5.522,3.956 -5.555,3.827 -5.623,3.696 -5.714,3.523 -5.814,3.381 -5.871,3.188 -5.913,3.043 -5.966,2.9 -6.015,2.756 -6.076,2.575 -6.092,2.387 -6.136,2.202 -6.181,2.012 -6.235,1.827 -6.232,1.636 -6.229,1.425 -6.243,1.194 -6.309,0.996 -6.358,0.848 -6.371,0.681 -6.405,0.528 -6.427,0.429 -6.442,0.336 -6.443,0.235 -6.444,0.159 -6.447,0.08 -6.444,0.005 c 0.005,-0.135 0.059,-0.256 0.107,-0.379 0.031,-0.079 0.045,-0.158 0.068,-0.239 0.09,-0.31 0.341,-0.561 0.605,-0.742 0.077,-0.052 0.151,-0.135 0.192,-0.217 0.077,-0.152 0.08,-0.437 0.046,-0.593 -0.041,-0.186 -0.145,-0.336 -0.214,-0.509 -0.104,-0.264 -0.195,-0.562 -0.209,-0.843 -0.008,-0.16 -0.016,-0.352 0.076,-0.493 0.166,-0.258 0.62,-0.263 0.893,-0.294 0.133,-0.015 0.257,-0.057 0.386,-0.077 0.074,-0.011 0.174,0.036 0.209,-0.052 0.067,0.11 0.279,0.038 0.374,0.028 0.086,-0.01 0.171,-0.009 0.258,-0.009 0.036,0 0.217,-0.023 0.255,0.029 0.01,-0.01 0.025,-0.009 0.034,-0.029 0.119,0.01 0.24,0.003 0.36,0.002 -0.272,0.526 -0.675,0.96 -1.214,1.205 1.824,0.702 4.488,1.404 4.502,3.781 C 0.277,1.767 0.196,2.663 0.85,3.71 0.687,3.784 0.508,3.804 0.425,3.969"
             style="fill:#100f0d;fill-opacity:1;fill-rule:nonzero;stroke:none"
             id="path2565" />
        </g>
        <g
           id="g2567"
           transform="translate(176.7352,627.8348)">
          <path
             d="m 0,0 c -0.024,-0.096 -0.09,-0.198 -0.103,-0.298 -0.008,-0.065 0.017,-0.141 0.003,-0.204 -0.011,-0.045 -0.031,-0.081 -0.043,-0.131 -0.03,-0.13 -0.131,-0.237 -0.16,-0.368 -0.034,-0.146 -0.061,-0.293 -0.1,-0.442 -0.06,-0.235 -0.081,-0.478 -0.125,-0.715 -0.017,-0.088 -0.039,-0.165 -0.068,-0.249 -0.021,-0.061 -0.068,-0.137 -0.074,-0.199 -0.043,0.237 -0.146,0.203 -0.256,0.191 -0.344,-0.035 -0.702,0.009 -1.049,0.009 -0.448,0.001 -0.948,-0.054 -1.349,0.194 -0.139,0.085 -0.282,0.176 -0.427,0.248 -0.128,0.064 -0.251,0.135 -0.381,0.194 -0.044,0.021 -0.109,0.036 -0.146,0.066 -0.096,0.077 -0.168,0.236 -0.205,0.351 -0.05,0.152 -0.068,0.314 -0.095,0.47 -0.03,0.178 -0.046,0.334 -0.004,0.509 0.031,0.133 0.093,0.239 0.159,0.36 0.066,0.121 0.13,0.231 0.182,0.357 0.04,0.097 0.08,0.201 0.133,0.29 0.109,0.188 0.213,0.474 0.391,0.613 0.223,0.175 0.468,0.193 0.738,0.193 0.077,0 0.197,0.026 0.269,-0.003 C -2.677,1.423 -2.642,1.37 -2.612,1.347 -2.486,1.252 -2.355,1.214 -2.204,1.197 -2.13,1.189 -2.056,1.179 -1.982,1.171 -1.92,1.165 -1.942,1.16 -1.9,1.147 -1.835,1.126 -1.771,1.106 -1.708,1.081 -1.544,1.017 -1.398,0.929 -1.239,0.864 -0.977,0.757 -0.69,0.725 -0.442,0.586 -0.3,0.506 -0.22,0.412 -0.122,0.285 -0.068,0.214 0.024,0.098 0,0 m -4.495,-4.778 c 0.006,-0.033 0.013,-0.064 0.012,-0.099 -0.001,-0.081 -0.017,-0.181 0,-0.261 0.002,-0.014 0.02,-0.035 0.018,-0.048 -0.006,-0.043 -0.072,-0.029 -0.103,-0.034 -0.068,-0.011 -0.134,-0.017 -0.204,-0.013 -0.033,10e-4 -0.054,0.014 -0.086,0.017 -0.072,0.009 -0.144,0.024 -0.215,0.046 -0.117,0.036 -0.244,0.053 -0.355,0.088 -0.07,0.022 -0.15,0.021 -0.185,0.099 -0.027,0.06 -0.015,0.135 -0.011,0.199 0.006,0.097 -0.003,0.186 -0.021,0.282 -0.011,0.058 -0.007,0.117 -0.021,0.174 -0.012,0.051 -0.033,0.102 -0.021,0.155 -0.005,-0.022 -0.01,-0.045 -0.015,-0.067 -0.004,0.022 -0.009,0.045 -0.014,0.067 0.016,-0.071 -0.026,-0.141 -0.032,-0.211 -0.002,-0.032 -0.003,-0.064 -0.005,-0.095 -0.007,-0.102 -0.046,-0.212 -0.068,-0.313 -0.016,-0.07 -0.026,-0.151 -0.06,-0.216 -0.025,-0.048 -0.066,-0.074 -0.116,-0.093 -0.038,-0.014 -0.083,-0.029 -0.124,-0.032 -0.023,-0.002 -0.045,0.004 -0.067,0.001 -0.023,-0.002 -0.044,-0.015 -0.067,-0.017 -0.026,-0.003 -0.045,-0.013 -0.07,-0.018 -0.031,-0.006 -0.07,10e-4 -0.102,10e-4 -0.06,0 -0.109,-0.012 -0.168,-0.017 -0.087,-0.007 -0.174,-0.029 -0.262,-0.038 -0.053,-0.005 -0.13,-0.006 -0.158,0.05 -0.022,0.043 -0.003,0.102 0.003,0.146 0.004,0.032 0.007,0.065 0.006,0.097 -0.009,0.161 0.013,0.304 0.042,0.462 0.018,0.099 0.058,0.201 0.091,0.296 0.026,0.076 0.044,0.156 0.067,0.234 0.036,0.128 0.081,0.252 0.1,0.384 0.024,0.175 0.067,0.349 0.117,0.517 0.052,0.175 0.077,0.358 0.121,0.535 0.032,0.13 0.083,0.258 0.109,0.389 0.018,0.09 0.043,0.189 0.083,0.272 0.026,0.056 0.054,0.117 0.094,0.165 0.027,0.034 0.063,0.048 0.1,0.07 0.053,0.033 0.098,0.08 0.147,0.119 0.054,0.042 0.109,0.084 0.155,0.135 0.037,0.042 0.061,0.098 0.078,0.156 0.018,-0.058 0.041,-0.114 0.079,-0.156 0.055,-0.062 0.124,-0.11 0.189,-0.162 0.062,-0.051 0.105,-0.106 0.144,-0.177 0.022,-0.04 0.047,-0.071 0.063,-0.116 0.02,-0.06 0.044,-0.13 0.075,-0.186 0.013,-0.024 0.033,-0.043 0.046,-0.067 0.022,-0.042 0.029,-0.09 0.048,-0.133 0.02,-0.046 0.052,-0.085 0.067,-0.135 0.009,-0.031 0.008,-0.051 0.022,-0.081 0.033,-0.066 0.055,-0.135 0.078,-0.206 0.036,-0.11 0.062,-0.222 0.091,-0.334 0.03,-0.118 0.066,-0.238 0.09,-0.358 0.037,-0.184 0.071,-0.371 0.094,-0.557 0.018,-0.154 0.033,-0.31 0.061,-0.463 0.017,-0.086 0.029,-0.172 0.042,-0.258 0.008,-0.05 0.011,-0.096 0.013,-0.145 0,-0.017 0.003,-0.034 0.005,-0.05 M 2.088,-0.4 C 2.087,-0.298 2.072,-0.206 2.05,-0.106 2.016,0.047 2.003,0.213 1.953,0.362 1.888,0.559 1.874,0.79 1.877,1.001 1.88,1.193 1.826,1.378 1.781,1.567 1.737,1.752 1.722,1.94 1.66,2.122 1.612,2.265 1.558,2.408 1.516,2.553 1.459,2.746 1.359,2.889 1.268,3.062 1.2,3.192 1.168,3.322 1.124,3.459 1.075,3.614 0.975,3.753 0.918,3.905 0.866,4.048 0.86,4.136 0.764,4.254 0.693,4.342 0.634,4.436 0.554,4.518 0.468,4.604 0.366,4.672 0.287,4.764 0.172,4.897 0.022,5.002 -0.109,5.121 -0.166,5.172 -0.234,5.205 -0.29,5.256 -0.337,5.299 -0.368,5.357 -0.411,5.404 -0.449,5.445 -0.489,5.465 -0.532,5.498 -0.607,5.556 -0.656,5.632 -0.715,5.703 -0.828,5.836 -0.967,5.94 -1.092,6.063 -1.172,6.142 -1.245,6.205 -1.343,6.262 -1.421,6.308 -1.478,6.367 -1.552,6.415 -1.661,6.486 -1.793,6.522 -1.905,6.589 -2.26,6.804 -2.589,7.072 -2.975,7.235 -3.299,7.372 -3.68,7.415 -4.027,7.447 -4.174,7.461 -4.321,7.472 -4.468,7.48 -4.702,6.69 -4.846,5.871 -4.935,5.164 -5.076,4.038 -5.638,3.475 -5.638,2.068 c 0,-0.281 -0.423,-0.563 -0.845,-0.563 0.141,-0.422 0.282,-0.984 0.704,-1.266 h -0.563 c -0.141,-0.141 0.141,-0.563 0,-0.703 -0.563,-0.423 -0.563,-1.126 -0.985,-1.689 -0.281,-0.563 -1.126,-0.703 -1.829,-0.985 0.422,-0.141 0.844,-0.281 1.126,-0.563 -0.224,-0.037 -0.438,-0.064 -0.648,-0.084 0.169,-0.113 0.338,-0.225 0.507,-0.338 -0.282,0 -0.704,0.141 -0.985,0 -0.141,-0.141 0.141,-0.281 0.141,-0.422 -0.179,-0.089 -0.357,-0.178 -0.535,-0.231 -0.009,-0.017 -0.018,-0.033 -0.028,-0.05 0,-0.066 -0.032,-0.194 -0.108,-0.311 0.017,-0.016 0.032,-0.034 0.045,-0.056 0.05,-0.084 0.057,-0.197 0.092,-0.286 0.036,-0.095 0.103,-0.175 0.137,-0.272 0.057,-0.166 0.095,-0.344 0.127,-0.516 0.027,-0.14 0.027,-0.28 0.041,-0.421 0.007,-0.068 0.035,-0.119 0.038,-0.188 10e-4,-0.04 -0.018,-0.102 0.006,-0.138 0.056,-0.085 0.207,-0.029 0.276,-0.071 0.06,-0.036 0.03,-0.194 0.03,-0.263 0.003,-0.189 -0.033,-0.386 -0.069,-0.572 -0.021,-0.109 -0.062,-0.242 -0.033,-0.354 0.033,-0.124 0.205,-0.163 0.32,-0.18 0.105,-0.016 0.182,-0.041 0.283,-0.075 0.129,-0.044 0.128,0.013 0.145,0.12 0.034,0.211 0.045,0.429 0.101,0.636 0.026,0.095 0.063,0.144 0.159,0.189 0.055,0.026 0.134,0.059 0.187,0.012 0.056,-0.051 0.022,-0.213 0.022,-0.28 0.001,-0.135 -0.021,-0.262 -0.032,-0.395 -0.009,-0.105 -0.003,-0.212 -0.003,-0.317 -0.001,-0.053 -0.016,-0.117 -0.009,-0.169 0.125,-0.053 0.248,-0.062 0.384,-0.078 0.114,-0.011 0.228,-0.023 0.341,-0.034 0.063,-0.007 0.126,-0.014 0.189,-0.021 0.169,0.02 0.138,0.25 0.14,0.374 0.005,0.288 0.053,0.592 0.163,0.861 0.024,-0.05 0.032,-0.104 0.052,-0.156 0.022,-0.056 0.079,-0.115 0.094,-0.171 0.039,-0.137 0.004,-0.315 0.004,-0.456 0,-0.143 -0.024,-0.305 0.013,-0.445 0.037,-0.141 0.248,-0.126 0.375,-0.132 0.143,-0.007 0.26,-0.028 0.343,0.104 0.01,0.015 0.015,0.032 0.023,0.048 0.008,-0.016 0.014,-0.033 0.024,-0.048 0.083,-0.132 0.2,-0.111 0.343,-0.104 0.127,0.006 0.338,-0.009 0.375,0.132 0.037,0.14 0.013,0.302 0.013,0.445 0,0.141 -0.035,0.319 0.004,0.456 0.015,0.056 0.072,0.115 0.094,0.171 0.02,0.052 0.027,0.106 0.052,0.156 0.11,-0.269 0.158,-0.573 0.163,-0.861 0.002,-0.124 -0.029,-0.354 0.14,-0.374 0.063,0.007 0.125,0.014 0.188,0.021 l 0.342,0.034 c 0.136,0.016 0.259,0.025 0.383,0.078 0.008,0.052 -0.008,0.116 -0.008,0.169 0,0.105 0.006,0.212 -0.003,0.317 -0.011,0.133 -0.033,0.26 -0.032,0.395 0,0.067 -0.035,0.229 0.022,0.28 0.052,0.047 0.132,0.014 0.187,-0.012 0.096,-0.045 0.133,-0.094 0.159,-0.189 0.056,-0.207 0.066,-0.425 0.101,-0.636 0.017,-0.107 0.016,-0.164 0.145,-0.12 0.101,0.034 0.178,0.059 0.283,0.075 0.114,0.017 0.287,0.056 0.32,0.18 0.029,0.112 -0.012,0.245 -0.033,0.354 -0.036,0.186 -0.072,0.383 -0.07,0.572 10e-4,0.069 -0.029,0.227 0.031,0.263 0.069,0.042 0.22,-0.014 0.276,0.071 0.024,0.036 0.004,0.098 0.006,0.138 0.003,0.069 0.031,0.12 0.038,0.188 0.013,0.141 0.014,0.281 0.04,0.421 0.033,0.172 0.071,0.35 0.128,0.516 0.033,0.097 0.1,0.177 0.137,0.272 0.034,0.089 0.042,0.202 0.092,0.286 0.071,0.12 0.209,0.148 0.339,0.146 0.143,-0.002 0.289,0.011 0.432,-0.002 0.009,0.021 0.024,0.02 0.034,0.03 0.038,-0.052 0.219,-0.029 0.256,-0.029 0.086,0 0.171,-0.001 0.257,0.008 0.095,0.011 0.307,0.083 0.374,-0.028 0.035,0.089 0.135,0.042 0.209,0.053 0.129,0.019 0.253,0.062 0.386,0.077 0.273,0.03 0.727,0.036 0.893,0.293 0.092,0.142 0.084,0.334 0.076,0.494 -0.014,0.28 -0.105,0.579 -0.209,0.842 -0.069,0.173 -0.174,0.324 -0.214,0.51 -0.034,0.156 -0.031,0.441 0.046,0.593 0.041,0.081 0.115,0.164 0.192,0.217 0.264,0.18 0.515,0.432 0.605,0.742 0.023,0.081 0.037,0.16 0.068,0.239 0.049,0.122 0.102,0.244 0.107,0.379 0.003,0.075 0,0.154 -10e-4,0.229"
             style="fill:#100f0d;fill-opacity:1;fill-rule:nonzero;stroke:none"
             id="path2569" />
        </g>
      </g>
    </g>
  </g>
</svg>
