<?xml version="1.0" encoding="UTF-8" standalone="no"?>
<!-- Created with Inkscape (http://www.inkscape.org/) -->

<svg
   width="25.655346"
   height="24.000002"
   viewBox="0 0 6.7879769 6.3500005"
   version="1.1"
   id="svg5609"
   inkscape:version="1.2.1 (9c6d41e4, 2022-07-14)"
   sodipodi:docname="hasturs-envoys.svg"
   xmlns:inkscape="http://www.inkscape.org/namespaces/inkscape"
   xmlns:sodipodi="http://sodipodi.sourceforge.net/DTD/sodipodi-0.dtd"
   xmlns="http://www.w3.org/2000/svg"
   xmlns:svg="http://www.w3.org/2000/svg">
  <sodipodi:namedview
     id="namedview5611"
     pagecolor="#505050"
     bordercolor="#eeeeee"
     borderopacity="1"
     inkscape:showpageshadow="0"
     inkscape:pageopacity="0"
     inkscape:pagecheckerboard="0"
     inkscape:deskcolor="#505050"
     inkscape:document-units="mm"
     showgrid="false"
     inkscape:zoom="0.7046647"
     inkscape:cx="-41.154325"
     inkscape:cy="162.48863"
     inkscape:window-width="1390"
     inkscape:window-height="941"
     inkscape:window-x="0"
     inkscape:window-y="25"
     inkscape:window-maximized="0"
     inkscape:current-layer="layer1" />
  <defs
     id="defs5606">
    <clipPath
       clipPathUnits="userSpaceOnUse"
       id="clipPath2461">
      <path
         d="m 159.654,641.77 h 22.76 v 22.76 h -22.76 z"
         id="path2459" />
    </clipPath>
  </defs>
  <g
     inkscape:label="Layer 1"
     inkscape:groupmode="layer"
     id="layer1"
     transform="translate(-116.00677,-105.71249)">
    <g
       id="g2455"
       transform="matrix(0.39205513,0,0,-0.39205513,52.538009,365.04189)">
      <g
         id="g2457"
         clip-path="url(#clipPath2461)">
        <g
           id="g2463"
           transform="translate(174.4319,655.9957)">
          <path
             d="M 0,0 C -0.081,0.016 -0.076,0.094 -0.104,0.155 -0.167,0.292 -0.31,0.395 -0.394,0.521 -0.53,0.727 -0.671,0.936 -0.781,1.155 -0.816,1.223 -0.846,1.311 -0.87,1.384 -0.898,1.467 -0.907,1.487 -0.979,1.552 -1.138,1.696 -1.349,1.812 -1.573,1.821 -1.665,1.824 -1.768,1.766 -1.857,1.74 -2.015,1.692 -2.173,1.633 -2.334,1.59 -2.877,1.444 -3.454,1.466 -3.98,1.255 -4.253,1.146 -4.536,1.063 -4.801,0.938 -4.954,0.866 -5.117,0.837 -5.261,0.753 -5.444,0.646 -5.628,0.54 -5.812,0.435 c -0.215,-0.124 -0.407,-0.33 -0.58,-0.506 -0.123,-0.125 -0.259,-0.226 -0.399,-0.33 -0.106,-0.08 -0.203,-0.166 -0.324,-0.226 -0.091,-0.045 -0.189,-0.066 -0.272,-0.128 -0.104,-0.079 -0.196,-0.164 -0.305,-0.238 -0.052,-0.035 -0.094,-0.065 -0.133,-0.114 -0.051,-0.063 -0.094,-0.112 -0.154,-0.164 -0.15,-0.132 -0.31,-0.26 -0.473,-0.376 -0.08,-0.056 -0.161,-0.112 -0.24,-0.17 -0.061,-0.044 -0.229,-0.129 -0.267,-0.201 -0.046,-0.089 -0.035,-0.217 -0.049,-0.315 -0.011,-0.076 -0.042,-0.113 -0.041,-0.196 0.002,-0.079 0.002,-0.158 0,-0.237 -0.002,-0.103 0.004,-0.141 0.118,-0.11 0.053,0.014 0.114,0.05 0.157,0.081 0.089,0.086 0.188,0.161 0.296,0.223 0.167,0.088 0.334,0.179 0.498,0.272 0.659,0.372 1.356,0.691 2.058,0.971 0.188,0.076 0.384,0.113 0.573,0.184 0.099,0.037 0.188,0.08 0.287,0.11 0.229,0.069 0.459,0.185 0.674,0.292 0.579,0.29 1.187,0.515 1.827,0.624 0.078,0.014 0.128,0.05 0.206,0.071 0.109,0.029 0.23,0.041 0.342,0.049 0.143,0.01 0.293,0.031 0.433,0.067 0.249,0.064 0.492,0.049 0.749,0.051 0.128,0 0.235,-0.031 0.359,-0.041 C -0.376,0.07 -0.295,0.037 0,0"
             style="fill:#100f0d;fill-opacity:1;fill-rule:nonzero;stroke:none"
             id="path2465" />
        </g>
        <g
           id="g2467"
           transform="translate(172.3376,658.0109)">
          <path
             d="M 0,0 C -0.341,0 -0.692,-0.043 -1.029,-0.099 -1.459,-0.171 -1.902,-0.18 -2.33,-0.277 -2.659,-0.352 -2.973,-0.432 -3.276,-0.592 -3.432,-0.674 -3.599,-0.692 -3.757,-0.76 -3.835,-0.794 -3.916,-0.834 -3.992,-0.868 -4.134,-0.933 -4.245,-1.099 -4.377,-1.196 -4.444,-1.245 -4.498,-1.31 -4.564,-1.36 -4.65,-1.427 -4.758,-1.479 -4.85,-1.541 c -0.115,-0.077 -0.226,-0.135 -0.323,-0.234 -0.131,-0.134 -0.268,-0.256 -0.425,-0.354 -0.058,-0.036 -0.109,-0.082 -0.161,-0.133 -0.035,-0.034 -0.082,-0.144 -0.122,-0.145 -0.02,0.069 0.031,0.155 0.035,0.229 0.006,0.116 -0.002,0.234 -0.002,0.349 0,0.248 0,0.496 0,0.744 0,0.35 0.002,0.7 0,1.049 0,0.092 -0.004,0.167 0.028,0.252 0.031,0.082 0.071,0.152 0.129,0.218 0.075,0.084 0.093,0.073 0.201,0.078 0.131,0.007 0.258,0.039 0.391,0.043 0.15,0.005 0.3,-0.002 0.45,-0.002 h 0.813 0.987 c 0.23,0 0.464,0.02 0.687,-0.03 0.132,-0.029 0.268,-0.046 0.397,-0.087 0.069,-0.022 0.138,-0.059 0.208,-0.075 0.075,-0.018 0.132,-0.056 0.204,-0.077 0.069,-0.02 0.102,-0.015 0.167,-0.046 0.052,-0.024 0.103,-0.06 0.161,-0.072 0.06,-0.012 0.117,-0.004 0.178,-0.017 0.034,-0.007 0.054,-0.027 0.095,-0.031 0.037,-0.004 0.086,0.011 0.122,0.003 C -0.581,0.109 -0.575,0.062 0,0"
             style="fill:#100f0d;fill-opacity:1;fill-rule:nonzero;stroke:none"
             id="path2469" />
        </g>
        <g
           id="g2471"
           transform="translate(172.5352,658.248)">
          <path
             d="M 0,0 C -0.099,-0.019 -0.263,0.09 -0.348,0.124 -0.603,0.228 -0.845,0.347 -1.107,0.433 -1.375,0.52 -1.653,0.616 -1.932,0.663 -2.204,0.709 -2.487,0.719 -2.761,0.755 -3.28,0.824 -3.764,0.913 -4.291,0.908 -4.445,0.906 -4.59,0.93 -4.742,0.945 c -0.04,0.004 -0.097,0.017 -0.135,0 -0.052,-0.022 -0.078,-0.106 -0.135,-0.111 0.002,0.104 0.093,0.261 0.15,0.344 0.09,0.13 0.226,0.222 0.364,0.291 0.151,0.075 0.292,0.182 0.438,0.27 0.108,0.065 0.201,0.145 0.307,0.208 0.079,0.046 0.1,0.066 0.194,0.068 0.122,0.002 0.261,0.019 0.38,-0.003 C -2.901,1.959 -2.621,1.876 -2.373,1.736 -2.09,1.575 -1.782,1.451 -1.51,1.267 -1.387,1.183 -1.267,1.086 -1.146,0.998 -1.045,0.925 -0.937,0.868 -0.839,0.79 -0.694,0.676 -0.519,0.575 -0.394,0.438 -0.325,0.361 -0.321,0.263 -0.272,0.181 -0.237,0.122 -0.173,0.082 0,0"
             style="fill:#100f0d;fill-opacity:1;fill-rule:nonzero;stroke:none"
             id="path2473" />
        </g>
        <g
           id="g2475"
           transform="translate(168.9394,653.9805)">
          <path
             d="m 0,0 c 0.049,-0.008 0.089,-0.034 0.138,-0.041 0.047,-0.006 0.096,0.008 0.143,0.005 0.126,-0.01 0.258,-0.061 0.384,-0.082 0.231,-0.04 0.454,-0.095 0.687,-0.129 0.407,-0.058 0.825,-0.102 1.226,-0.19 0.328,-0.072 0.681,-0.037 1.017,-0.037 0.386,0 0.757,-0.04 1.145,-0.04 0.241,0 0.514,0.034 0.753,0.001 0.066,-0.009 0.06,0.01 0.08,-0.058 C 5.588,-0.618 5.571,-0.692 5.571,-0.742 5.572,-0.857 5.58,-0.937 5.616,-1.045 5.66,-1.179 5.648,-1.304 5.651,-1.444 5.651,-1.479 5.665,-1.55 5.644,-1.583 5.609,-1.639 5.519,-1.62 5.462,-1.629 5.17,-1.673 4.875,-1.66 4.58,-1.66 H 3.274 1.936 c -0.192,0 -0.383,10e-4 -0.574,-0.001 -0.271,-0.003 -0.531,0.054 -0.799,0.08 -0.491,0.047 -0.948,0.162 -1.398,0.358 -0.206,0.09 -0.406,0.129 -0.63,0.156 -0.176,0.021 -0.31,0.049 -0.462,0.129 -0.126,0.067 -0.263,0.082 -0.404,0.117 0.021,0.063 0.156,0.13 0.211,0.162 0.26,0.151 0.537,0.271 0.791,0.433 0.221,0.142 0.407,0.246 0.668,0.296 0.035,0.007 0.08,-0.001 0.112,0.008 0.034,0.009 0.038,0.031 0.073,0.042 0.053,0.016 0.123,0.031 0.18,0.039 0.072,0.011 0.148,-0.003 0.217,-0.02 C 0.057,0.106 0.115,0.027 0,0"
             style="fill:#100f0d;fill-opacity:1;fill-rule:nonzero;stroke:none"
             id="path2477" />
        </g>
        <g
           id="g2479"
           transform="translate(173.4434,655.1296)">
          <path
             d="m 0,0 c 0.045,-0.135 -0.013,-0.237 -0.103,-0.334 -0.051,-0.055 -0.126,-0.092 -0.183,-0.148 -0.047,-0.045 -0.086,-0.112 -0.138,-0.149 -0.111,-0.077 -0.225,-0.17 -0.359,-0.214 -0.159,-0.053 -0.322,-0.099 -0.482,-0.149 -0.258,-0.08 -0.528,-0.055 -0.785,0.079 -0.099,0.051 -0.197,0.115 -0.295,0.173 -0.101,0.06 -0.182,0.151 -0.285,0.205 0.055,-0.052 0.092,-0.014 0.151,-0.003 0.061,0.012 0.1,-0.009 0.162,0.002 0.054,0.01 0.142,0.032 0.19,0.058 0.027,0.015 0.041,0.043 0.065,0.058 0.037,0.025 0.077,0.022 0.113,0.043 0.08,0.048 0.172,0.154 0.241,0.217 0.094,0.085 0.186,0.15 0.313,0.189 0.119,0.037 0.243,0.101 0.368,0.081 0.121,-0.019 0.242,-0.059 0.361,-0.095 0.136,-0.041 0.243,-0.047 0.384,-0.066 C -0.184,-0.067 -0.031,-0.128 0,0"
             style="fill:#100f0d;fill-opacity:1;fill-rule:nonzero;stroke:none"
             id="path2481" />
        </g>
        <g
           id="g2483"
           transform="translate(170.8361,651.7677)">
          <path
             d="M 0,0 C -0.001,0 -0.199,-0.015 -0.249,-0.002 -0.27,0.003 -0.298,0.028 -0.316,0.031 -0.377,0.042 -0.404,0.031 -0.464,0.02 -0.566,0.002 -0.67,0 -0.768,-0.034 c -0.077,-0.027 -0.135,-0.072 -0.215,-0.095 -0.434,-0.125 -0.882,-0.203 -1.305,-0.365 -0.364,-0.139 -0.742,-0.28 -1.116,-0.367 -0.149,-0.034 -0.307,-0.021 -0.45,-0.071 -0.138,-0.048 -0.23,-0.096 -0.374,-0.095 -0.031,0 -0.114,-0.016 -0.137,10e-4 -0.035,0.026 -0.022,0.074 -0.021,0.117 0.002,0.125 0,0.251 0,0.376 0,0.119 -0.015,0.247 -0.002,0.364 0.015,0.133 0.073,0.243 0.111,0.367 0.03,0.101 0.076,0.207 0.133,0.293 0.035,0.052 0.088,0.162 0.15,0.183 0.169,0.054 0.406,-0.07 0.559,-0.122 C -3.158,0.459 -2.879,0.397 -2.591,0.35 -2.486,0.333 -2.383,0.309 -2.282,0.286 -2.193,0.265 -2.104,0.287 -2.014,0.279 -1.917,0.27 -1.835,0.24 -1.736,0.238 -1.622,0.236 -1.481,0.216 -1.37,0.189 -1.141,0.132 -0.918,0.094 -0.688,0.048 -0.546,0.02 -0.382,0.039 0,0"
             style="fill:#100f0d;fill-opacity:1;fill-rule:nonzero;stroke:none"
             id="path2485" />
        </g>
        <g
           id="g2487"
           transform="translate(171.3498,651.5701)">
          <path
             d="M 0,0 C 0.088,0.013 0.179,-0.053 0.257,-0.084 0.346,-0.119 0.433,-0.163 0.522,-0.198 0.782,-0.3 1.02,-0.395 1.254,-0.553 1.346,-0.615 1.422,-0.652 1.521,-0.69 c 0.126,-0.05 0.253,-0.07 0.383,-0.111 0.12,-0.039 0.168,-0.128 0.268,-0.197 0.12,-0.082 0.232,-0.203 0.396,-0.189 0.222,0.019 0.094,0.442 0.117,0.594 0.022,0.146 0.074,0.317 0.125,0.455 0.026,0.07 0.068,0.124 0.105,0.187 C 2.939,0.09 3.004,0.187 3,0.231 2.949,0.25 2.886,0.243 2.832,0.256 2.747,0.277 2.659,0.291 2.573,0.307 2.468,0.326 2.358,0.316 2.25,0.316 H 1.501 0.863 C 0.695,0.316 0.498,0.349 0.336,0.318 0.229,0.297 0.163,0.186 0.075,0.124 0.01,0.079 -0.053,0.048 0,0"
             style="fill:#100f0d;fill-opacity:1;fill-rule:nonzero;stroke:none"
             id="path2489" />
        </g>
        <g
           id="g2491"
           transform="translate(173.1674,650.4242)">
          <path
             d="m 0,0 c -0.107,0.012 -0.18,0.076 -0.277,0.11 -0.096,0.034 -0.176,0.071 -0.276,0.096 -0.1,0.026 -0.182,0.085 -0.277,0.119 -0.081,0.029 -0.154,0.074 -0.237,0.1 -0.168,0.053 -0.331,0.099 -0.492,0.167 -0.185,0.079 -0.37,0.111 -0.555,0.162 -0.205,0.057 -0.43,0.036 -0.647,0.036 -0.16,0 -0.319,-0.002 -0.479,0 C -3.322,0.791 -3.361,0.759 -3.437,0.75 -3.475,0.745 -3.516,0.758 -3.554,0.753 -3.613,0.745 -3.665,0.715 -3.725,0.709 -3.774,0.704 -3.816,0.715 -3.865,0.702 -3.889,0.696 -3.924,0.67 -3.957,0.662 -4.062,0.636 -4.152,0.623 -4.248,0.573 -4.296,0.548 -4.421,0.521 -4.445,0.472 -4.313,0.475 -4.18,0.477 -4.048,0.476 -3.876,0.474 -3.733,0.431 -3.566,0.404 -3.365,0.372 -3.177,0.321 -2.98,0.272 -2.84,0.237 -2.701,0.256 -2.563,0.228 -2.497,0.215 -2.42,0.18 -2.353,0.159 -2.158,0.096 -1.951,0.067 -1.759,0 c 0.178,-0.061 0.373,-0.079 0.559,-0.109 0.071,-0.012 0.14,-0.001 0.21,-0.013 0.104,-0.017 0.208,-0.05 0.312,-0.067 0.263,-0.04 0.473,0.07 0.711,0.117 C 0.035,-0.061 0.037,-0.05 0,0"
             style="fill:#100f0d;fill-opacity:1;fill-rule:nonzero;stroke:none"
             id="path2493" />
        </g>
        <g
           id="g2495"
           transform="translate(169.8777,649.3413)">
          <path
             d="m 0,0 c 0.016,-0.009 0.032,-0.017 0.048,-0.024 0.073,-0.035 0.161,-0.044 0.229,-0.087 0.077,-0.05 0.141,-0.114 0.222,-0.154 0.149,-0.075 0.287,-0.15 0.451,-0.203 0.16,-0.052 0.315,-0.15 0.502,-0.148 0.207,0.002 0.415,0.007 0.622,0.001 C 2.182,-0.618 2.287,-0.661 2.39,-0.694 2.506,-0.733 2.607,-0.806 2.725,-0.854 2.636,-0.844 2.54,-0.935 2.454,-0.961 2.187,-1.042 1.896,-1.032 1.621,-1.081 1.323,-1.135 0.98,-1.089 0.677,-1.09 0.34,-1.092 0.015,-1.025 -0.32,-0.982 c -0.457,0.059 -0.876,0.167 -1.288,0.367 -0.108,0.052 -0.217,0.063 -0.324,0.125 -0.142,0.082 -0.299,0.119 -0.44,0.198 -0.169,0.095 -0.341,0.184 -0.524,0.25 -0.086,0.032 -0.171,0.062 -0.253,0.098 -0.116,0.05 -0.161,0.061 -0.16,0.197 0.001,0.126 0.032,0.236 0.04,0.356 0.007,0.106 0.012,0.183 0.068,0.278 0.052,0.09 0.109,0.113 0.205,0.117 0.198,0.007 0.405,-0.026 0.6,-0.001 0.101,0.013 0.155,0.073 0.242,0.11 0.106,0.044 0.193,0.049 0.386,0.168 0.1,0 0.254,0.029 0.347,-0.007 C -1.376,1.256 -1.339,1.213 -1.296,1.191 -1.232,1.157 -1.159,1.15 -1.095,1.113 -0.996,1.056 -0.903,0.955 -0.82,0.878 -0.626,0.699 -0.519,0.46 -0.341,0.271 -0.292,0.219 -0.236,0.174 -0.172,0.143 -0.064,0.092 0.056,0.089 0.172,0.071 c 0.16,-0.025 0.306,-0.081 0.44,-0.173 0.083,-0.056 0.15,-0.11 0.25,-0.133 0.099,-0.023 0.202,-0.021 0.302,-0.035 0.287,-0.042 0.571,-0.015 0.86,-0.029 0.113,-0.005 0.224,-0.048 0.334,-0.076 0.101,-0.025 0.198,-0.032 0.3,-0.047 0.147,-0.022 0.309,-0.133 0.465,-0.068 0.09,0.039 0.196,0.149 0.245,0.23 C 3.43,-0.162 3.462,0.005 3.487,0.115 3.526,0.288 3.592,0.517 3.69,0.674 3.642,0.616 3.494,0.654 3.43,0.65 3.327,0.644 3.215,0.623 3.112,0.61 3.074,0.606 3.048,0.587 3.014,0.578 2.959,0.564 2.91,0.577 2.855,0.571 2.756,0.561 2.652,0.531 2.556,0.51 2.408,0.478 2.264,0.499 2.116,0.452 1.881,0.376 1.626,0.357 1.383,0.322 1.001,0.268 0.632,0.253 0.247,0.253"
             style="fill:#100f0d;fill-opacity:1;fill-rule:nonzero;stroke:none"
             id="path2497" />
        </g>
        <g
           id="g2499"
           transform="translate(171.6578,660.0543)">
          <path
             d="m 0,0 c 0.07,-0.085 0.131,-0.112 0.225,-0.167 0.23,-0.132 0.416,-0.327 0.587,-0.525 0.178,-0.206 0.395,-0.362 0.566,-0.574 0.247,-0.305 0.56,-0.58 0.779,-0.904 0.122,-0.179 0.202,-0.387 0.336,-0.557 0.07,-0.089 0.125,-0.18 0.182,-0.279 0.071,-0.124 0.147,-0.244 0.211,-0.371 0.084,-0.169 0.123,-0.35 0.198,-0.522 0.062,-0.143 0.075,-0.316 0.153,-0.45 0.054,-0.092 0.109,-0.165 0.15,-0.264 0.034,-0.086 0.061,-0.177 0.093,-0.264 0.145,-0.397 0.297,-0.796 0.425,-1.199 0.058,-0.18 0.089,-0.371 0.125,-0.557 0.042,-0.214 0.106,-0.42 0.129,-0.637 0.026,-0.251 0.113,-0.485 0.156,-0.733 0.014,-0.08 0.011,-0.168 0.029,-0.248 0.026,-0.117 0.084,-0.22 0.094,-0.341 0.028,-0.344 0.108,-0.69 0.195,-1.023 0.042,-0.163 0.043,-0.326 0.053,-0.494 0.011,-0.208 0.034,-0.369 0.108,-0.569 0.205,-0.552 0.479,-1.077 0.689,-1.625 0.028,-0.072 0.044,-0.147 0.07,-0.219 0.019,-0.054 0.057,-0.124 0.071,-0.172 0.039,-0.134 0.074,-0.275 0.116,-0.411 0.068,-0.222 0.205,-0.433 0.33,-0.63 0.119,-0.187 0.267,-0.371 0.474,-0.471 0.067,-0.031 0.15,-0.044 0.222,-0.062 0.111,-0.029 0.204,-0.088 0.314,-0.112 0.106,-0.023 0.22,-0.053 0.319,-0.06 0.257,-0.018 0.107,0.199 0.035,0.323 -0.145,0.247 -0.417,0.379 -0.596,0.593 -0.079,0.094 -0.125,0.213 -0.193,0.314 -0.101,0.15 -0.178,0.307 -0.255,0.47 -0.153,0.32 -0.34,0.626 -0.487,0.95 -0.2,0.441 -0.257,0.936 -0.407,1.394 -0.062,0.187 -0.14,0.362 -0.193,0.552 C 5.244,-9.631 5.17,-9.42 5.106,-9.208 5.057,-9.044 4.984,-8.895 4.948,-8.728 4.911,-8.558 4.869,-8.39 4.819,-8.223 4.729,-7.917 4.705,-7.599 4.626,-7.292 4.54,-6.958 4.478,-6.626 4.409,-6.289 4.371,-6.102 4.276,-5.92 4.207,-5.743 4.129,-5.546 4.056,-5.343 3.971,-5.15 3.9,-4.986 3.797,-4.839 3.724,-4.675 3.653,-4.517 3.61,-4.348 3.54,-4.191 3.435,-3.956 3.343,-3.715 3.218,-3.491 3.145,-3.359 3.081,-3.225 3.005,-3.095 2.908,-2.931 2.876,-2.728 2.807,-2.552 2.68,-2.233 2.517,-1.929 2.369,-1.62 2.221,-1.313 2.102,-0.987 1.927,-0.694 1.786,-0.459 1.592,-0.262 1.418,-0.051 1.329,0.057 1.218,0.132 1.114,0.224 0.981,0.341 0.873,0.477 0.72,0.569 0.59,0.647 0.467,0.704 0.353,0.806 0.251,0.898 0.176,0.907 0.047,0.951 -0.069,0.991 -0.169,1.07 -0.282,1.11 -0.335,1.129 -0.37,1.122 -0.429,1.129 -0.517,1.139 -0.598,1.182 -0.683,1.202 -0.981,1.271 -1.297,1.301 -1.601,1.329 -1.741,1.341 -1.882,1.336 -2.021,1.351 -2.1,1.359 -2.173,1.392 -2.251,1.402 -2.353,1.415 -2.473,1.4 -2.576,1.399 -2.982,1.397 -3.374,1.215 -3.746,1.059 -3.869,1.008 -3.979,0.924 -4.101,0.87 -4.2,0.826 -4.28,0.801 -4.361,0.726 -4.498,0.6 -4.665,0.495 -4.77,0.337 -4.911,0.125 -5.124,-0.022 -5.271,-0.226 c -0.091,-0.126 -0.188,-0.24 -0.254,-0.381 -0.08,-0.174 -0.222,-0.339 -0.281,-0.517 -0.09,-0.271 -0.149,-0.554 -0.252,-0.823 -0.122,-0.317 -0.17,-0.656 -0.298,-0.971 -0.221,-0.543 -0.29,-1.153 -0.474,-1.814 -0.127,-0.459 -0.278,-0.924 -0.364,-1.392 -0.082,-0.446 -0.134,-0.9 -0.234,-1.343 -0.039,-0.173 -0.095,-0.344 -0.13,-0.517 -0.037,-0.186 -0.048,-0.384 -0.072,-0.573 -0.045,-0.354 -0.103,-0.706 -0.151,-1.059 -0.032,-0.237 -0.127,-0.463 -0.169,-0.7 -0.037,-0.206 -0.074,-0.418 -0.124,-0.622 -0.049,-0.2 -0.139,-0.388 -0.169,-0.593 -0.036,-0.249 -0.031,-0.189 -0.146,-0.526 -0.164,-0.482 -0.483,-0.87 -0.731,-1.307 -0.088,-0.153 -0.211,-0.275 -0.305,-0.425 -0.074,-0.118 -0.15,-0.244 -0.211,-0.37 -0.067,-0.142 -0.127,-0.306 -0.134,-0.463 -0.006,-0.144 0.046,-0.175 0.176,-0.166 0.093,0.006 0.158,-10e-4 0.237,0.05 0.105,0.067 0.222,0.175 0.304,0.267 0.174,0.195 0.281,0.448 0.422,0.666 0.202,0.309 0.722,0.609 0.848,0.957 0.062,0.172 0.16,0.335 0.216,0.508 0.021,0.066 0.02,0.134 0.03,0.202 0.016,0.11 0.058,0.219 0.083,0.327 0.107,0.475 0.131,0.961 0.272,1.428 0.054,0.18 0.05,0.358 0.092,0.539 0.037,0.156 -0.043,0.295 -0.028,0.457 0.029,0.309 0.086,0.616 0.145,0.921 0.062,0.318 0.124,0.619 0.15,0.943 0.01,0.126 0.017,0.253 0.048,0.375 0.017,0.067 -0.108,0.141 -0.098,0.212 0.01,0.075 0.154,0.154 0.159,0.23 0.008,0.108 0.031,0.216 0.041,0.324 0.027,0.315 0.066,0.655 0.149,0.961 0.094,0.342 0.129,0.709 0.276,1.036 0.056,0.123 0.091,0.235 0.135,0.362 0.041,0.117 0.111,0.213 0.13,0.337 0.017,0.112 -0.119,0.207 -0.071,0.31 0.066,0.139 0.262,0.285 0.333,0.418 0.054,0.102 0.079,0.213 0.131,0.317 0.044,0.089 0.073,0.194 0.109,0.287 0.092,0.241 0.01,0.522 0.043,0.777 0.027,0.213 0.112,0.385 0.166,0.588 0.034,0.123 0.06,0.182 0.126,0.291 0.083,0.138 0.185,0.191 0.306,0.293 0.094,0.078 0.176,0.17 0.272,0.245 0.084,0.065 0.175,0.11 0.255,0.178 0.36,0.311 0.847,0.5 1.309,0.616 0.134,0.033 0.262,0.021 0.391,0.06 0.214,0.064 0.464,0.046 0.685,0.061 0.132,0.008 0.248,0.02 0.377,-0.005 0.118,-0.024 0.242,-0.064 0.357,-0.1 C -1.039,0.603 -0.883,0.523 -0.732,0.464 -0.542,0.388 -0.462,0.185 0,0"
             style="fill:#100f0d;fill-opacity:1;fill-rule:nonzero;stroke:none"
             id="path2501" />
        </g>
      </g>
    </g>
  </g>
</svg>
