<?xml version="1.0" encoding="UTF-8" standalone="no"?>
<!-- Created with Inkscape (http://www.inkscape.org/) -->

<svg
   width="26.97147"
   height="24.000002"
   viewBox="0 0 7.1362014 6.3500005"
   version="1.1"
   id="svg5437"
   inkscape:version="1.2.1 (9c6d41e4, 2022-07-14)"
   sodipodi:docname="neurotic-fear.svg"
   xmlns:inkscape="http://www.inkscape.org/namespaces/inkscape"
   xmlns:sodipodi="http://sodipodi.sourceforge.net/DTD/sodipodi-0.dtd"
   xmlns="http://www.w3.org/2000/svg"
   xmlns:svg="http://www.w3.org/2000/svg">
  <sodipodi:namedview
     id="namedview5439"
     pagecolor="#505050"
     bordercolor="#eeeeee"
     borderopacity="1"
     inkscape:showpageshadow="0"
     inkscape:pageopacity="0"
     inkscape:pagecheckerboard="0"
     inkscape:deskcolor="#505050"
     inkscape:document-units="mm"
     showgrid="false"
     inkscape:zoom="0.7046647"
     inkscape:cx="51.088127"
     inkscape:cy="203.64295"
     inkscape:window-width="1390"
     inkscape:window-height="941"
     inkscape:window-x="0"
     inkscape:window-y="25"
     inkscape:window-maximized="0"
     inkscape:current-layer="layer1" />
  <defs
     id="defs5434">
    <clipPath
       clipPathUnits="userSpaceOnUse"
       id="clipPath1909">
      <path
         d="m 159.654,670.47 h 22.76 v 22.76 h -22.76 z"
         id="path1907" />
    </clipPath>
  </defs>
  <g
     inkscape:label="Layer 1"
     inkscape:groupmode="layer"
     id="layer1"
     transform="translate(-91.802317,-94.823736)">
    <g
       id="g1903"
       transform="matrix(0.35538554,0,0,-0.35538554,34.587464,340.31842)">
      <g
         id="g1905"
         clip-path="url(#clipPath1909)">
        <g
           id="g1911"
           transform="translate(180.1177,681.8231)">
          <path
             d="m 0,0 c 0.003,0.015 0.006,0.029 0.009,0.044 0.08,0.022 0.223,0.029 0.307,0.012 0.103,-0.02 0.182,-0.13 0.27,-0.188 0.153,-0.099 0.346,-0.344 0.365,-0.529 0.035,-0.352 -0.104,-0.854 -0.474,-0.972 -0.134,-0.043 -0.26,-0.063 -0.4,-0.053 -0.098,0.006 -0.141,0.042 -0.234,0.054 -0.179,0.022 -0.281,0.022 -0.409,0.17 -0.211,0.243 0.086,0.854 0.45,0.639 0.276,0.278 -0.3,0.495 -0.445,0.624 0.087,0.291 0.433,0.252 0.666,0.252"
             style="fill:#100f0d;fill-opacity:1;fill-rule:nonzero;stroke:none"
             id="path1913" />
        </g>
        <g
           id="g1915"
           transform="translate(172.6755,676.7539)">
          <path
             d="m 0,0 c 0.023,0.003 0.047,0.005 0.07,0.008 0.074,-0.11 0.155,-0.322 0.171,-0.457 0.02,-0.165 -0.107,-0.338 -0.15,-0.499 -0.074,-0.279 -0.347,-0.692 -0.616,-0.811 -0.513,-0.227 -1.34,-0.266 -1.7,0.234 -0.13,0.18 -0.223,0.359 -0.278,0.576 -0.038,0.15 -0.005,0.233 -0.034,0.379 -0.055,0.281 -0.106,0.434 0.054,0.701 0.262,0.437 1.331,0.291 1.185,-0.363 0.556,-0.278 0.598,0.697 0.721,0.979 0.482,0.013 0.593,-0.528 0.709,-0.88"
             style="fill:#100f0d;fill-opacity:1;fill-rule:nonzero;stroke:none"
             id="path1917" />
        </g>
        <g
           id="g1919"
           transform="translate(172.1274,673.9175)">
          <path
             d="M 0,0 0.036,0.004 C 0.075,-0.053 0.117,-0.164 0.126,-0.234 0.136,-0.321 0.07,-0.41 0.048,-0.495 0.009,-0.64 -0.133,-0.855 -0.273,-0.918 c -0.267,-0.118 -0.698,-0.138 -0.886,0.123 -0.068,0.094 -0.116,0.187 -0.145,0.301 -0.02,0.078 -0.003,0.121 -0.017,0.197 -0.029,0.147 -0.056,0.227 0.027,0.366 0.137,0.228 0.694,0.152 0.618,-0.19 0.29,-0.145 0.311,0.364 0.375,0.511 0.252,0.007 0.309,-0.276 0.37,-0.459"
             style="fill:#100f0d;fill-opacity:1;fill-rule:nonzero;stroke:none"
             id="path1921" />
        </g>
        <g
           id="g1923"
           transform="translate(170.201,686.9465)">
          <path
             d="m 0,0 c -0.023,-0.003 -0.047,-0.005 -0.07,-0.008 -0.074,0.11 -0.155,0.322 -0.171,0.456 -0.02,0.166 0.107,0.339 0.15,0.5 C -0.017,1.227 0.256,1.64 0.526,1.759 1.038,1.986 1.865,2.025 2.225,1.525 2.355,1.345 2.448,1.166 2.503,0.949 2.541,0.799 2.509,0.716 2.537,0.57 2.592,0.289 2.643,0.136 2.483,-0.131 2.221,-0.568 1.153,-0.422 1.298,0.232 0.742,0.511 0.7,-0.465 0.577,-0.747 0.095,-0.76 -0.016,-0.219 -0.132,0.133"
             style="fill:#100f0d;fill-opacity:1;fill-rule:nonzero;stroke:none"
             id="path1925" />
        </g>
        <g
           id="g1927"
           transform="translate(170.7491,689.7828)">
          <path
             d="m 0,0 -0.037,-0.004 c -0.038,0.057 -0.08,0.168 -0.089,0.238 -0.01,0.087 0.056,0.176 0.078,0.261 0.039,0.145 0.181,0.36 0.321,0.423 C 0.54,1.036 0.971,1.056 1.159,0.795 1.227,0.701 1.275,0.608 1.304,0.494 1.324,0.416 1.306,0.373 1.321,0.297 1.35,0.15 1.377,0.07 1.294,-0.069 1.157,-0.297 0.6,-0.221 0.676,0.121 0.386,0.266 0.365,-0.243 0.301,-0.39 0.05,-0.397 -0.008,-0.114 -0.069,0.069"
             style="fill:#100f0d;fill-opacity:1;fill-rule:nonzero;stroke:none"
             id="path1929" />
        </g>
        <g
           id="g1931"
           transform="translate(179.6962,682.7715)">
          <path
             d="M 0,0 C -0.526,-0.001 -1.066,0.272 -1.479,0.593 -1.606,0.691 -1.71,0.808 -1.847,0.896 -1.996,0.991 -2.148,1.069 -2.292,1.172 -2.56,1.366 -2.861,1.522 -3.112,1.737 -3.332,1.924 -3.588,2.048 -3.84,2.186 -4.099,2.33 -4.388,2.462 -4.681,2.52 -4.738,2.531 -4.804,2.523 -4.862,2.539 -4.924,2.556 -4.978,2.606 -5.041,2.624 -5.162,2.659 -5.304,2.65 -5.428,2.671 -5.71,2.719 -5.975,2.846 -6.259,2.886 -6.605,2.934 -6.96,2.965 -7.305,3.001 -7.684,3.042 -8.046,3.056 -8.429,3.056 h -2.081 c -0.58,0 -1.17,0.056 -1.729,-0.104 -0.203,-0.059 -0.377,-0.221 -0.578,-0.307 -0.237,-0.101 -0.486,-0.17 -0.714,-0.286 C -13.704,2.271 -13.825,2.055 -13.964,1.92 -14.088,1.8 -14.184,1.652 -14.304,1.526 -14.396,1.43 -14.499,1.34 -14.592,1.245 -14.726,1.106 -14.866,0.959 -15.015,0.83 -15.114,0.743 -15.22,0.686 -15.321,0.607 -15.409,0.538 -15.474,0.435 -15.555,0.354 -15.705,0.205 -15.863,0.13 -16.019,0 c -0.232,-0.193 -0.502,-0.319 -0.757,-0.476 -0.098,-0.06 -0.226,-0.085 -0.322,-0.155 -0.129,-0.093 -0.165,-0.16 -0.341,-0.159 -0.257,0 -0.502,-0.181 -0.685,-0.369 -0.145,-0.15 -0.347,-0.222 -0.438,-0.413 -0.049,-0.102 -0.118,-0.236 -0.137,-0.352 -0.015,-0.086 0.023,-0.084 0.037,-0.141 0.02,-0.083 0.033,-0.171 0.052,-0.256 0.032,-0.135 0.067,-0.262 0.122,-0.392 0.167,-0.392 0.554,-0.425 0.936,-0.489 0.382,-0.064 0.775,-0.024 1.105,0.187 0.107,0.069 0.196,0.146 0.223,0.277 0.026,0.132 0.114,0.304 0.106,0.442 -0.006,0.114 -0.084,0.239 -0.162,0.321 -0.092,0.096 -0.193,0.1 -0.316,0.129 -0.141,0.035 -0.248,0.089 -0.396,0.031 -0.17,-0.067 -0.154,-0.197 -0.065,-0.333 0.059,-0.09 0.141,-0.165 0.147,-0.274 0.009,-0.142 -0.071,-0.215 -0.18,-0.271 -0.207,-0.108 -0.46,-0.014 -0.534,0.221 -0.077,0.244 -0.035,0.609 0.066,0.839 0.126,0.29 0.355,0.448 0.604,0.617 0.277,0.189 0.594,0.343 0.885,0.509 0.283,0.162 0.6,0.301 0.909,0.415 0.17,0.063 0.312,0.165 0.463,0.251 0.147,0.083 0.295,0.188 0.416,0.312 0.078,0.079 0.161,0.146 0.242,0.22 0.067,0.061 0.109,0.139 0.183,0.194 0.064,0.049 0.119,0.086 0.178,0.144 0.067,0.067 0.146,0.093 0.218,0.155 0.285,0.247 0.493,0.515 0.845,0.682 0.316,0.151 0.632,0.312 0.966,0.411 0.179,0.053 0.36,0.121 0.54,0.145 0.317,0.043 0.618,0.054 0.941,0.054 h 2.685 c 0.248,0 0.495,0.003 0.742,10e-4 0.342,-0.002 0.657,-0.149 0.978,-0.253 0.203,-0.065 0.27,-0.211 0.44,-0.317 0.151,-0.093 0.358,-0.159 0.529,-0.195 0.481,-0.099 0.986,-0.158 1.423,-0.408 0.331,-0.19 0.674,-0.397 0.947,-0.672 0.084,-0.084 0.157,-0.213 0.259,-0.276 0.164,-0.102 0.38,-0.126 0.557,-0.191 0.078,-0.028 0.155,-0.08 0.236,-0.102 0.121,-0.033 0.226,-0.033 0.346,-0.078 0.14,-0.052 0.27,-0.092 0.42,-0.09 0.272,0.002 0.545,0 0.606,0.105"
             style="fill:#100f0d;fill-opacity:1;fill-rule:nonzero;stroke:none"
             id="path1933" />
        </g>
        <g
           id="g1935"
           transform="translate(177.536,679.9265)">
          <path
             d="m 0,0 c -0.498,0 -0.995,0.014 -1.478,-0.119 -0.449,-0.123 -0.861,-0.323 -1.315,-0.414 -0.378,-0.077 -0.729,-0.229 -1.108,-0.316 -0.161,-0.038 -0.29,-0.114 -0.443,-0.174 -0.123,-0.048 -0.268,-0.033 -0.4,-0.057 -0.14,-0.026 -0.279,-0.041 -0.419,-0.068 -0.143,-0.027 -0.288,-0.019 -0.433,-0.049 -0.223,-0.048 -0.447,-0.08 -0.673,-0.107 -0.323,-0.039 -0.624,-0.118 -0.948,-0.118 -0.23,-0.001 -0.459,-0.018 -0.683,0.038 -0.298,0.074 -0.606,0.058 -0.9,0.123 -0.06,0.013 -0.103,0.049 -0.16,0.071 -0.071,0.026 -0.139,0.024 -0.214,0.036 -0.117,0.019 -0.225,0.068 -0.337,0.107 -0.182,0.066 -0.375,0.109 -0.552,0.191 -0.242,0.112 -0.532,0.181 -0.792,0.239 -0.239,0.052 -0.457,0.169 -0.684,0.263 -0.382,0.157 -0.765,0.294 -1.158,0.42 -0.116,0.036 -0.917,0.301 -0.893,-0.004 0.1,-0.041 0.245,-0.04 0.355,-0.077 0.094,-0.031 0.186,-0.059 0.281,-0.086 0.151,-0.043 0.296,-0.11 0.404,-0.228 0.086,-0.093 0.128,-0.136 0.25,-0.192 0.42,-0.192 0.887,-0.402 1.341,-0.513 0.322,-0.079 0.666,-0.162 0.974,-0.283 0.33,-0.13 0.705,-0.167 1.028,-0.315 0.626,-0.284 1.334,-0.28 2.004,-0.382 0.149,-0.023 0.297,-0.066 0.446,-0.089 0.135,-0.021 0.283,-0.004 0.42,-0.004 0.339,0 0.655,0.01 0.99,0.065 0.158,0.026 0.319,0.048 0.473,0.092 0.158,0.044 0.309,0.113 0.467,0.163 0.288,0.09 0.549,0.165 0.823,0.299 0.261,0.127 0.555,0.181 0.831,0.278 0.257,0.09 0.496,0.154 0.738,0.287 0.083,0.046 0.153,0.098 0.237,0.134 0.091,0.039 0.191,0.054 0.286,0.078 0.086,0.022 0.16,0.057 0.241,0.093 0.1,0.046 0.195,0.037 0.301,0.063 0.125,0.03 0.21,0.065 0.333,0.079 0.082,0.01 0.125,0.044 0.206,0.056 0.124,0.018 0.25,0.043 0.373,0.053 0.101,0.008 0.176,0.038 0.274,0.054 C 0.602,-0.295 0.727,-0.37 0.788,-0.24 0.839,-0.131 0.769,-0.013 0.685,0.043 0.44,0.208 0.11,0.021 0,0"
             style="fill:#100f0d;fill-opacity:1;fill-rule:nonzero;stroke:none"
             id="path1937" />
        </g>
      </g>
    </g>
  </g>
</svg>
