<?xml version="1.0" encoding="UTF-8" standalone="no"?>
<!-- Created with Inkscape (http://www.inkscape.org/) -->

<svg
   width="23.868145"
   height="24"
   viewBox="0 0 6.3151133 6.35"
   version="1.1"
   id="svg5179"
   inkscape:version="1.2.1 (9c6d41e4, 2022-07-14)"
   sodipodi:docname="return-to-the-pallid-mask.svg"
   xmlns:inkscape="http://www.inkscape.org/namespaces/inkscape"
   xmlns:sodipodi="http://sodipodi.sourceforge.net/DTD/sodipodi-0.dtd"
   xmlns="http://www.w3.org/2000/svg"
   xmlns:svg="http://www.w3.org/2000/svg">
  <sodipodi:namedview
     id="namedview5181"
     pagecolor="#505050"
     bordercolor="#eeeeee"
     borderopacity="1"
     inkscape:showpageshadow="0"
     inkscape:pageopacity="0"
     inkscape:pagecheckerboard="0"
     inkscape:deskcolor="#505050"
     inkscape:document-units="mm"
     showgrid="false"
     inkscape:zoom="0.7046647"
     inkscape:cx="158.94084"
     inkscape:cy="81.599092"
     inkscape:window-width="1390"
     inkscape:window-height="941"
     inkscape:window-x="0"
     inkscape:window-y="25"
     inkscape:window-maximized="0"
     inkscape:current-layer="layer1" />
  <defs
     id="defs5176">
    <clipPath
       clipPathUnits="userSpaceOnUse"
       id="clipPath471">
      <path
         d="m 150.565,412.872 h 22.058 v 22.057 h -22.058 z"
         id="path469" />
    </clipPath>
  </defs>
  <g
     inkscape:label="Layer 1"
     inkscape:groupmode="layer"
     id="layer1"
     transform="translate(-62.925882,-127.11451)">
    <g
       id="g465"
       transform="matrix(0.29481097,0,0,-0.29481097,18.443556,255.26012)">
      <g
         id="g467"
         clip-path="url(#clipPath471)">
        <g
           id="g473"
           transform="translate(170.0988,424.688)">
          <path
             d="m 0,0 c 0.013,-0.101 0.02,-0.203 0.025,-0.305 -0.016,-0.029 -0.032,-0.057 -0.049,-0.086 -0.117,-0.203 -0.237,-0.175 -0.416,-0.165 -0.063,0.004 -0.109,0.001 -0.141,0.068 -0.027,0.057 -0.017,0.128 -0.015,0.189 0.006,0.147 -0.008,0.278 -0.037,0.422 -0.06,0.293 -0.081,0.607 -0.101,0.905 -0.007,0.102 -0.019,0.203 -0.035,0.304 -0.015,0.091 -0.053,0.161 -0.077,0.249 -0.016,0.06 -0.003,0.122 -0.015,0.182 -0.008,0.042 -0.035,0.083 -0.053,0.12 -0.043,0.087 -0.085,0.175 -0.125,0.264 -0.031,0.069 -0.06,0.137 -0.09,0.206 -0.059,0.136 -0.181,0.219 -0.251,0.348 -0.058,0.107 -0.109,0.209 -0.186,0.301 -0.076,0.091 -0.143,0.189 -0.217,0.283 -0.081,0.102 -0.165,0.206 -0.25,0.304 -0.047,0.054 -0.102,0.1 -0.143,0.159 -0.034,0.049 -0.058,0.107 -0.089,0.157 -0.111,0.183 -0.255,0.36 -0.394,0.52 -0.161,0.186 -0.346,0.339 -0.539,0.487 -0.147,0.111 -0.346,0.17 -0.514,0.233 -0.117,0.044 -0.185,0.108 -0.275,0.188 -0.126,0.115 -0.3,0.201 -0.445,0.291 C -4.619,5.74 -4.801,5.883 -4.978,6.016 -5.086,6.098 -5.187,6.116 -5.31,6.161 -5.418,6.2 -5.525,6.239 -5.631,6.282 -5.796,6.347 -5.963,6.396 -6.13,6.455 -6.229,6.49 -6.324,6.53 -6.425,6.561 c -0.068,0.02 -0.124,0.055 -0.189,0.084 -0.102,0.045 -0.21,0.071 -0.319,0.092 -0.134,0.026 -0.275,0.04 -0.402,0.092 -0.044,0.018 -0.08,0.024 -0.128,0.025 -0.13,0.003 -0.26,-0.017 -0.391,-0.017 -0.292,0.002 -0.583,0.025 -0.871,0.069 -0.123,0.019 -0.248,0.047 -0.372,0.06 -0.192,0.021 -0.389,0.013 -0.582,0.014 -0.158,0.002 -0.317,0.007 -0.472,-0.028 -0.222,-0.051 -0.419,-0.174 -0.644,-0.217 -0.148,-0.028 -0.298,-0.053 -0.447,-0.076 -0.074,-0.012 -0.151,-0.014 -0.224,-0.033 -0.063,-0.017 -0.122,-0.048 -0.184,-0.071 -0.116,-0.043 -0.232,-0.087 -0.344,-0.14 -0.133,-0.064 -0.266,-0.13 -0.4,-0.189 -0.024,-0.011 -0.047,-0.02 -0.072,-0.025 C -12.508,6.193 -12.549,6.197 -12.59,6.184 -12.707,6.145 -12.833,6.063 -12.941,6.001 -13.083,5.921 -13.23,5.84 -13.375,5.765 -13.479,5.711 -13.592,5.669 -13.69,5.603 -13.816,5.518 -13.911,5.398 -14.029,5.302 -14.109,5.237 -14.166,5.144 -14.241,5.071 -14.294,5.019 -14.349,4.971 -14.402,4.918 -14.468,4.85 -14.508,4.78 -14.565,4.707 -14.61,4.648 -14.666,4.6 -14.711,4.54 -14.768,4.464 -14.828,4.392 -14.891,4.321 -14.961,4.241 -14.993,4.148 -15.046,4.056 -15.1,3.96 -15.156,3.876 -15.169,3.762 -15.176,3.706 -15.182,3.656 -15.195,3.601 -15.213,3.525 -15.216,3.446 -15.235,3.37 -15.258,3.28 -15.304,3.194 -15.323,3.104 -15.337,3.036 -15.325,2.969 -15.342,2.901 -15.356,2.844 -15.38,2.789 -15.405,2.736 -15.454,2.628 -15.52,2.53 -15.56,2.418 -15.601,2.304 -15.638,2.189 -15.674,2.073 -15.701,1.987 -15.734,1.906 -15.765,1.822 -15.794,1.741 -15.798,1.654 -15.818,1.571 -15.846,1.45 -15.858,1.32 -15.898,1.204 -15.95,1.054 -15.976,0.893 -16.02,0.74 -16.038,0.678 -16.059,0.622 -16.092,0.568 -16.137,0.494 -16.147,0.427 -16.163,0.344 -16.178,0.269 -16.202,0.2 -16.21,0.123 c -0.006,-0.067 0.003,-0.135 -0.011,-0.201 -0.008,-0.037 -0.02,-0.069 -0.023,-0.107 -0.001,-0.016 0.006,-0.072 0,-0.095 -0.01,-0.042 -0.024,-0.065 -0.027,-0.108 -0.006,-0.06 -0.036,-0.104 -0.058,-0.16 -0.013,-0.033 -0.024,-0.069 -0.032,-0.099 -0.008,-0.029 -0.011,-0.063 -0.02,-0.094 -0.006,-0.021 -0.029,-0.05 -0.044,-0.067 -0.028,-0.033 -0.04,-0.021 -0.073,-0.034 -0.028,-0.012 -0.041,-0.02 -0.071,-0.024 -0.017,-0.003 -0.038,0 -0.054,-0.006 -0.026,-0.01 -0.029,-0.03 -0.048,-0.042 -0.041,-0.026 -0.103,-0.012 -0.149,0.003 -0.093,0.031 -0.206,0.023 -0.295,0.061 -0.022,0.009 -0.047,0.031 -0.071,0.055 -0.002,0.029 -0.003,0.058 -0.003,0.087 0.002,0.086 0.019,0.164 0.028,0.249 0.023,0.214 0.055,0.432 0.066,0.647 0.006,0.137 0.05,0.193 0.103,0.313 0.068,0.15 0.102,0.32 0.15,0.478 0.068,0.229 0.083,0.471 0.15,0.701 0.022,0.074 0.046,0.147 0.071,0.22 0.098,0.275 0.166,0.56 0.258,0.837 0.073,0.221 0.119,0.458 0.173,0.685 0.03,0.125 0.048,0.259 0.098,0.378 0.046,0.11 0.109,0.218 0.163,0.323 0.096,0.189 0.193,0.35 0.32,0.519 0.096,0.127 0.195,0.252 0.295,0.376 0.095,0.116 0.182,0.231 0.246,0.369 0.044,0.094 0.079,0.191 0.139,0.276 0.096,0.135 0.23,0.239 0.353,0.345 0.125,0.106 0.26,0.192 0.412,0.248 0.113,0.041 0.219,0.099 0.329,0.148 0.102,0.046 0.214,0.071 0.311,0.129 0.008,0.005 0.016,0.01 0.024,0.015 0.182,0.108 0.362,0.22 0.543,0.327 0.099,0.059 0.203,0.06 0.306,0.101 0.037,0.015 0.072,0.036 0.109,0.051 0.237,0.1 0.486,0.168 0.721,0.273 0.167,0.075 0.336,0.146 0.505,0.216 0.053,0.022 0.109,0.023 0.16,0.047 0.025,0.013 0.046,0.038 0.071,0.051 0.247,0.134 0.568,0.165 0.838,0.203 0.283,0.041 0.562,0.052 0.847,0.068 0.275,0.015 0.538,-0.03 0.812,-0.033 0.538,-0.006 1.05,-0.207 1.582,-0.268 0.349,-0.04 0.694,-0.118 1.032,-0.215 0.064,-0.019 0.119,-0.051 0.183,-0.064 0.08,-0.016 0.158,-0.032 0.235,-0.057 0.152,-0.049 0.296,-0.116 0.444,-0.176 0.208,-0.084 0.404,-0.201 0.589,-0.332 0.17,-0.121 0.354,-0.22 0.518,-0.349 0.129,-0.102 0.267,-0.187 0.409,-0.27 0.217,-0.129 0.448,-0.227 0.661,-0.365 0.288,-0.186 0.519,-0.445 0.763,-0.687 0.265,-0.264 0.479,-0.55 0.692,-0.859 0.081,-0.118 0.165,-0.215 0.259,-0.32 0.11,-0.122 0.177,-0.268 0.266,-0.404 0.03,-0.047 0.073,-0.07 0.111,-0.109 0.218,-0.221 0.408,-0.536 0.5,-0.837 0.032,-0.105 0.026,-0.22 0.08,-0.317 C -0.231,2.162 -0.199,2.105 -0.172,2.04 -0.1,1.871 -0.027,1.7 0.008,1.518 0.028,1.412 0.031,1.3 0.035,1.193 0.042,0.966 0.015,0.747 0.001,0.522 -0.01,0.35 -0.022,0.171 0,0 M -1.206,1.087 C -1.216,1.064 -1.219,1.073 -1.24,1.062 -1.305,1.028 -1.377,1.058 -1.441,1.029 -1.516,0.996 -1.547,0.934 -1.636,0.923 -1.706,0.914 -1.78,0.901 -1.85,0.899 -1.895,0.899 -1.967,0.915 -2.008,0.898 -2.048,0.881 -2.136,0.79 -2.148,0.747 -2.162,0.701 -2.129,0.676 -2.184,0.663 -2.248,0.649 -2.245,0.687 -2.243,0.735 c 10e-4,0.059 -0.007,0.107 -0.018,0.166 -0.012,0.058 -0.078,0.212 0.017,0.258 0.045,-0.001 0.087,-0.005 0.132,0.003 0.076,0.014 0.143,0.054 0.222,0.064 0.075,0.008 0.146,0.006 0.22,0.025 0.055,0.015 0.104,0.043 0.157,0.06 0.025,0.008 0.052,0.009 0.076,0.018 0.023,0.007 0.063,0.048 0.09,0.045 0.046,-0.005 0.054,-0.071 0.075,-0.099 0.011,-0.015 0.03,-0.02 0.039,-0.035 0.009,-0.014 0.017,-0.057 0.021,-0.076 0.002,-0.015 0.014,-0.061 0.006,-0.077 m -0.16,-0.96 C -1.375,0.064 -1.394,0 -1.397,-0.064 c -10e-4,-0.029 0.007,-0.059 -0.002,-0.087 -0.029,0.017 -0.093,0.03 -0.126,0.036 -0.067,0.012 -0.113,-0.051 -0.175,-0.045 -0.013,0.052 -0.001,0.106 0.01,0.155 0.013,0.059 0.006,0.115 0.014,0.175 0.01,0.086 0.022,0.16 0.021,0.249 0,0.046 -0.017,0.118 0.024,0.151 V 0.617 C -1.63,0.61 -1.628,0.603 -1.627,0.596 -1.56,0.61 -1.523,0.62 -1.454,0.606 -1.434,0.601 -1.387,0.602 -1.37,0.596 -1.338,0.582 -1.349,0.567 -1.348,0.535 -1.344,0.399 -1.344,0.262 -1.366,0.127 M -2.009,0.149 C -2.029,0.107 -2.061,0.083 -2.073,0.035 -2.089,-0.027 -2.084,-0.054 -2.137,-0.102 -2.179,-0.14 -2.227,-0.164 -2.28,-0.184 c -0.055,-0.02 -0.111,-0.015 -0.165,-0.033 -0.086,-0.029 -0.095,-0.08 -0.193,-0.04 -0.062,0.025 -0.129,0.05 -0.188,0.077 -0.098,0.045 -0.148,0.135 -0.214,0.215 -0.069,0.083 -0.046,0.171 -0.063,0.277 -0.026,0.169 -0.083,0.328 -0.055,0.504 0.031,0.202 0.116,0.361 0.262,0.506 0.04,0.039 0.084,0.074 0.129,0.109 C -2.779,1.424 -2.791,1.421 -2.81,1.418 -2.829,1.408 -2.829,1.411 -2.829,1.414 c 0.008,0.002 0.013,0.003 0.019,0.004 0.014,0.007 0.037,0.02 0.077,0.045 0.023,0.027 0.041,0.058 0.065,0.085 0.037,0.041 0.086,0.075 0.118,0.12 0.032,0.044 0.037,0.045 0.08,0.079 0.026,0.021 0.042,0.058 0.075,0.07 0.094,0.034 0.129,-0.025 0.128,-0.104 C -2.268,1.675 -2.261,1.632 -2.266,1.595 -2.273,1.543 -2.304,1.51 -2.336,1.467 -2.362,1.43 -2.394,1.4 -2.43,1.372 -2.469,1.34 -2.529,1.299 -2.574,1.281 -2.63,1.259 -2.628,1.267 -2.649,1.206 -2.662,1.168 -2.691,1.137 -2.704,1.099 -2.743,0.986 -2.694,0.868 -2.691,0.755 -2.689,0.672 -2.71,0.574 -2.675,0.497 -2.658,0.461 -2.626,0.435 -2.601,0.404 -2.565,0.36 -2.525,0.26 -2.455,0.262 c 0.084,0.001 0.132,0.07 0.189,0.115 0.046,0.037 0.144,0.047 0.199,0.024 0.019,-0.008 0.121,-0.058 0.13,-0.08 0.01,-0.025 -0.061,-0.15 -0.072,-0.172 M -3.244,2.348 C -3.262,2.332 -3.284,2.324 -3.303,2.311 -3.345,2.278 -3.36,2.223 -3.404,2.192 -3.454,2.158 -3.517,2.135 -3.569,2.101 -3.71,2.008 -3.858,2.069 -4.011,2.096 c -0.053,0.01 -0.14,0.002 -0.163,0.063 -0.011,0.03 -10e-4,0.087 -10e-4,0.119 0,0.079 0.002,0.151 -0.02,0.22 0.053,-0.018 0.061,-0.036 0.099,-0.08 0.028,-0.03 0.069,-0.061 0.109,-0.077 0.064,-0.026 0.138,0.016 0.201,0.02 0.083,0.006 0.149,0.036 0.225,0.07 0.07,0.031 0.081,0.099 0.11,0.166 0.03,0.069 0.06,0.134 0.083,0.206 0.027,0.086 0.041,0.165 0.04,0.255 -0.176,0.014 -0.38,-0.03 -0.54,0.039 C -3.922,3.12 -3.98,3.124 -4.034,3.143 -4.079,3.159 -4.103,3.183 -4.152,3.186 -4.277,3.193 -4.405,3.18 -4.53,3.184 -4.613,3.187 -4.681,3.223 -4.762,3.186 -4.793,3.171 -4.84,3.141 -4.878,3.166 -4.886,3.171 -4.879,3.197 -4.886,3.203 -4.9,3.217 -4.923,3.224 -4.941,3.232 c -0.028,0.014 -0.076,0.02 -0.095,0.046 -0.032,0.042 -0.02,0.153 0.021,0.184 0.043,0.032 0.169,0.051 0.224,0.054 0.006,0 0.011,10e-4 0.017,10e-4 0.062,0.012 0.039,0.004 0,0 -0.005,-10e-4 -0.008,-10e-4 -0.014,-0.002 0.106,-0.018 0.208,-0.02 0.312,-0.021 -0.016,0.036 -0.006,0.103 -0.006,0.132 0.001,0.08 0.048,0.178 0.099,0.243 0.034,0.043 0.093,0.071 0.132,0.112 0.025,0.025 0.048,0.052 0.074,0.075 0.069,0.061 0.147,0.09 0.238,0.096 0.067,0.005 0.152,0.007 0.212,-0.025 0.04,-0.021 0.052,-0.052 0.07,-0.093 C -3.634,3.983 -3.631,3.935 -3.633,3.88 -3.637,3.778 -3.686,3.863 -3.727,3.808 -3.742,3.788 -3.711,3.749 -3.731,3.73 -3.745,3.718 -3.78,3.726 -3.798,3.727 -3.848,3.729 -3.924,3.733 -3.959,3.773 -3.977,3.793 -3.962,3.82 -3.992,3.84 -4.007,3.85 -4.042,3.849 -4.059,3.846 -4.118,3.832 -4.142,3.775 -4.17,3.726 -4.201,3.672 -4.223,3.625 -4.222,3.562 c 0,-0.024 0.005,-0.064 0.005,-0.1 0.028,-0.01 0.057,-0.021 0.088,-0.028 0.13,-0.034 0.266,-0.013 0.39,0.034 0.104,0.04 0.212,0.008 0.318,0.047 0.044,0.016 0.095,0.039 0.143,0.02 0.014,-0.016 0.031,-0.03 0.051,-0.039 0.021,-0.002 0.041,-0.005 0.062,-0.009 -10e-4,-0.085 0.122,-0.066 0.179,-0.066 0.031,0 0.067,0.012 0.095,0.01 0.037,-0.002 0.06,-0.036 0.102,-0.038 0.013,-0.048 0.004,-0.11 0.004,-0.161 C -2.786,3.177 -2.765,3.147 -2.747,3.094 -2.766,3.087 -2.781,3.092 -2.801,3.092 -2.861,3.091 -2.91,3.085 -2.969,3.067 -3.002,3.057 -3.035,3.052 -3.068,3.048 -3.067,2.806 -3.045,2.521 -3.244,2.348 m -2.721,3.004 c -0.004,-0.008 -0.007,-0.016 -0.01,-0.024 0.018,0.007 0.05,0.029 0.063,0.051 0.033,0.056 0.026,0.158 0.099,0.184 0.034,0.012 0.11,-0.021 0.136,-0.04 0.043,-0.028 0.07,-0.087 0.103,-0.124 0.029,-0.033 0.063,-0.062 0.093,-0.095 0.026,-0.028 0.046,-0.072 0.08,-0.09 0.024,-0.012 0.059,0.003 0.08,-0.019 C -5.27,5.141 -5.406,4.965 -5.431,4.902 -5.455,4.846 -5.464,4.801 -5.528,4.786 -5.564,4.778 -5.605,4.777 -5.643,4.769 -5.689,4.759 -5.692,4.762 -5.72,4.728 -5.765,4.674 -5.818,4.577 -5.802,4.504 -5.784,4.419 -5.694,4.456 -5.681,4.377 -5.669,4.298 -5.683,4.192 -5.716,4.12 -5.75,4.047 -5.773,4.064 -5.825,4.035 -5.86,4.015 -5.871,3.966 -5.891,3.926 -5.944,3.822 -6.013,3.736 -6.08,3.642 -6.101,3.614 -6.125,3.55 -6.167,3.561 -6.206,3.57 -6.266,3.677 -6.297,3.703 -6.351,3.751 -6.383,3.763 -6.45,3.774 -6.491,3.78 -6.509,3.788 -6.532,3.825 -6.574,3.89 -6.556,4.006 -6.555,4.081 c 10e-4,0.112 0.046,0.223 0.093,0.324 0.084,0.184 0.238,0.319 0.32,0.502 0.062,0.137 0.112,0.281 0.167,0.421 -0.016,-0.007 -0.021,-0.002 0.01,0.024 M -6.859,5.13 c 0.019,0.072 0.083,0.081 0.123,0.126 0.014,0.016 0.016,0.042 0.031,0.059 0.012,0.013 0.028,0.018 0.039,0.03 0.038,0.041 0.04,0.103 0.069,0.149 0.036,0.06 0.156,0.188 0.226,0.209 C -6.353,5.579 -6.304,5.448 -6.318,5.319 -6.328,5.219 -6.431,5.198 -6.47,5.116 -6.508,5.038 -6.505,4.953 -6.507,4.869 -6.508,4.831 -6.506,4.831 -6.528,4.805 -6.554,4.774 -6.629,4.752 -6.667,4.744 -6.722,4.734 -6.842,4.724 -6.887,4.768 -6.909,4.788 -6.915,4.83 -6.912,4.871 L -6.931,4.857 c -0.001,0.02 0.011,0.037 0.024,0.053 0.005,0.017 0.011,0.031 0.019,0.042 0.006,0.007 0.014,0.014 0.022,0.02 0.002,0.005 0.006,0.009 0.006,0.015 0.007,0.046 -0.011,0.097 0.001,0.143 m -1.274,1.047 -0.023,0.047 c 0.05,0.067 0.041,0.036 0.105,0.022 0.039,-0.008 0.091,10e-4 0.13,10e-4 0.08,0 0.223,0.026 0.255,-0.069 C -7.643,6.11 -7.664,6.014 -7.679,5.946 -7.691,5.889 -7.694,5.797 -7.773,5.827 -7.807,5.841 -7.812,5.861 -7.855,5.871 -7.9,5.881 -7.929,5.887 -7.973,5.906 -8.022,5.927 -8.056,5.94 -8.11,5.942 -8.141,5.943 -8.172,5.934 -8.202,5.941 -8.208,6.027 -8.121,6.095 -8.133,6.177 M -9.285,4.983 c 0.01,0.15 0.061,0.29 0.086,0.438 0.02,0.114 0.056,0.227 0.053,0.343 -10e-4,0.052 0,0.104 0,0.156 -0.005,-0.002 -0.009,-0.004 -0.013,-0.006 -0.017,-0.031 -0.019,-0.012 0,0 0.004,0.007 0.008,0.015 0.013,0.027 0,-0.007 0,-0.014 0,-0.021 0.006,0.001 0.013,0.002 0.02,0.001 0.009,0.045 0.012,0.049 0.034,0.084 0.011,0.018 0.027,0.04 0.035,0.059 0.014,0.037 0.018,0.069 0.045,0.1 0.019,0.023 0.046,0.037 0.065,0.06 0.012,0.013 0.024,0.049 0.037,0.059 0.063,0.044 0.088,-0.03 0.095,-0.082 0.014,-0.114 -0.001,-0.241 -0.001,-0.355 0,-0.124 0,-0.208 0.062,-0.319 0.01,-0.017 0.016,-0.031 0.021,-0.043 0.013,-0.001 0.025,-0.002 0.034,-0.003 0.157,-0.019 0.34,-0.028 0.498,-0.006 0.062,0.008 0.164,0.027 0.219,0.056 0.021,0.011 0.036,0.037 0.062,0.036 0.016,0 0.03,-0.022 0.045,-0.027 0.102,-0.032 0.188,-0.031 0.19,-0.159 C -7.683,5.299 -7.651,5.167 -7.755,5.163 -7.825,5.16 -7.895,5.171 -7.964,5.159 -8.002,5.152 -8.027,5.13 -8.061,5.121 -8.102,5.11 -8.14,5.129 -8.181,5.109 -8.238,5.081 -8.244,4.993 -8.296,4.974 -8.349,4.954 -8.417,5.007 -8.464,5.018 -8.554,5.039 -8.649,5.058 -8.735,5.093 -8.754,5.1 -8.771,5.104 -8.788,5.107 -8.804,5.048 -8.813,4.989 -8.816,4.926 -8.819,4.844 -8.849,4.772 -8.875,4.694 -8.903,4.615 -8.921,4.534 -8.946,4.454 -8.962,4.399 -8.994,4.335 -8.978,4.277 -9.023,4.319 -9.095,4.351 -9.147,4.388 -9.186,4.415 -9.22,4.422 -9.264,4.439 c -0.06,0.022 -0.053,0.071 -0.048,0.129 0.007,0.072 0.025,0.133 0.025,0.208 0,0.068 -0.003,0.138 0.002,0.207 m -1.012,-0.26 c 0.013,-0.064 -0.029,-0.201 -0.095,-0.221 -0.027,-0.007 -0.114,-0.007 -0.139,0.004 -0.039,0.018 -0.067,0.08 -0.099,0.11 -0.045,0.044 -0.05,0.067 -0.076,0.124 -0.006,0.029 -0.019,0.053 -0.04,0.073 -0.021,0.014 -0.043,0.022 -0.068,0.026 -0.053,0.039 -0.064,0.118 -0.047,0.179 l 0.019,0.004 -0.047,0.047 c -0.004,0.015 -0.003,0.03 0.004,0.044 0.078,10e-4 0.049,0.058 0.095,0.094 0.012,0.01 0.046,0.005 0.061,0.009 0.018,0.005 0.023,0.021 0.048,0.022 0.006,0.102 0.105,0.115 0.186,0.114 0.032,0 0.098,0.014 0.126,-0.003 0.036,-0.022 0.045,-0.1 0.069,-0.134 0.025,-0.036 0.055,-0.05 0.049,-0.098 -0.005,-0.036 -0.029,-0.064 -0.048,-0.093 -0.037,-0.055 -0.055,-0.092 -0.05,-0.162 0.005,-0.059 0.041,-0.085 0.052,-0.139 m -1.327,0.861 c 0.045,0.007 0.071,-0.005 0.109,0.024 0.065,0.049 0.098,0.09 0.174,0.122 0.016,0.007 0.05,0.02 0.062,0.032 0.027,0.025 0.025,0.058 0.045,0.089 0.029,0.047 0.082,0.073 0.115,0.116 0.028,0.036 0.022,0.133 0.074,0.142 0.016,0.002 0.054,-0.023 0.072,-0.026 0.02,-0.004 0.04,10e-4 0.059,-0.004 0.026,-0.007 0.072,-0.026 0.092,-0.044 0.037,-0.032 0.032,-0.096 0.059,-0.138 0.03,-0.045 0.078,-0.098 0.114,-0.137 0.044,-0.046 0.083,-0.052 0.014,-0.103 C -10.702,5.606 -10.8,5.584 -10.88,5.564 -10.955,5.546 -10.957,5.514 -10.93,5.451 -10.961,5.416 -11.004,5.355 -11.045,5.336 -11.079,5.32 -11.114,5.319 -11.15,5.303 -11.252,5.259 -11.364,5.23 -11.468,5.186 -11.505,5.17 -11.535,5.14 -11.574,5.125 c -0.036,-0.013 -0.065,-0.002 -0.09,-0.032 -0.079,-0.096 0.047,-0.158 0.091,-0.219 0.019,-0.025 0.027,-0.061 0.044,-0.089 0.022,-0.034 0.054,-0.062 0.079,-0.094 0.047,-0.059 0.076,-0.125 0.112,-0.191 0.053,-0.094 0.106,-0.136 0.201,-0.184 0.095,-0.048 0.093,-0.168 0.094,-0.262 0,-0.034 0.012,-0.107 0,-0.142 -0.02,-0.057 -0.095,-0.055 -0.146,-0.069 -0.05,-0.013 -0.183,-0.025 -0.22,-0.07 -0.009,-0.011 -0.011,-0.022 -0.01,-0.032 0.012,-0.006 0.023,-0.013 0.038,-0.017 -0.025,-0.006 -0.036,0.004 -0.038,0.017 -0.065,0.032 -0.101,0.084 -0.147,0.146 -0.072,0.096 -0.141,0.188 -0.157,0.311 -0.014,0.104 -0.024,0.17 -0.091,0.258 -0.031,0.041 -0.072,0.069 -0.11,0.103 -0.051,0.047 -0.089,0.097 -0.128,0.155 -0.067,0.101 -0.135,0.172 -0.122,0.298 0.011,0.102 0.054,0.26 0.15,0.317 0.059,0.035 0.126,0.055 0.185,0.091 0.054,0.032 0.099,0.075 0.152,0.107 0.045,0.028 0.082,0.033 0.125,0.035 -0.129,-0.001 -0.112,0.015 -0.062,0.022 m 7.913,-6.204 c -0.013,-0.022 -0.016,-0.042 -0.039,-0.056 -0.038,-0.025 -0.087,-0.049 -0.131,-0.05 -0.047,-0.001 -0.091,-0.011 -0.137,-0.014 -0.041,-0.002 -0.08,-0.008 -0.096,0.035 -0.009,0.024 -0.008,0.048 -0.022,0.071 -0.008,0.013 -0.017,0.025 -0.025,0.038 -0.003,0.061 -0.009,0.122 -0.024,0.182 -0.013,0.052 -0.033,0.099 -0.051,0.149 -0.019,0.056 -0.032,0.114 -0.052,0.17 C -4.304,-0.049 -4.33,-0.006 -4.345,0.04 -4.372,0.122 -4.371,0.21 -4.39,0.294 -4.402,0.352 -4.427,0.406 -4.446,0.462 -4.473,0.542 -4.492,0.624 -4.532,0.699 -4.563,0.757 -4.601,0.81 -4.64,0.862 -4.688,0.926 -4.732,0.997 -4.783,1.057 -4.854,1.141 -4.937,1.218 -5.016,1.294 -5.057,1.333 -5.084,1.377 -5.121,1.42 -5.177,1.488 -5.247,1.541 -5.299,1.613 -5.371,1.713 -5.447,1.802 -5.535,1.889 -5.615,1.969 -5.69,2.056 -5.782,2.124 -5.867,2.186 -5.95,2.257 -6.045,2.305 -6.155,2.361 -6.256,2.428 -6.361,2.493 -6.412,2.525 -6.47,2.542 -6.523,2.572 -6.567,2.598 -6.609,2.628 -6.654,2.652 -6.738,2.696 -6.85,2.735 -6.942,2.754 -7.056,2.778 -7.167,2.794 -7.283,2.796 -7.392,2.799 -7.504,2.824 -7.612,2.839 -7.746,2.857 -7.87,2.909 -8,2.942 -8.14,2.979 -8.278,3.017 -8.422,3.031 -8.68,3.057 -8.937,3.059 -9.196,3.061 -9.258,3.061 -9.317,3.055 -9.378,3.05 -9.451,3.044 -9.522,3.047 -9.594,3.038 -9.717,3.022 -9.838,3.009 -9.958,2.981 -10.004,2.97 -10.05,2.968 -10.095,2.959 -10.137,2.95 -10.173,2.93 -10.213,2.915 -10.276,2.891 -10.34,2.865 -10.401,2.836 -10.503,2.786 -10.612,2.743 -10.704,2.677 -10.755,2.641 -10.812,2.614 -10.857,2.57 -10.902,2.527 -10.951,2.497 -11,2.459 -11.055,2.416 -11.105,2.367 -11.157,2.32 -11.307,2.183 -11.471,2.038 -11.585,1.867 -11.631,1.798 -11.667,1.716 -11.708,1.643 -11.723,1.617 -11.73,1.591 -11.732,1.561 -11.735,1.494 -11.768,1.436 -11.808,1.38 -11.842,1.332 -11.879,1.288 -11.908,1.237 -11.965,1.139 -11.99,1.031 -12.037,0.929 -12.084,0.827 -12.143,0.731 -12.181,0.625 -12.205,0.558 -12.22,0.49 -12.247,0.424 c -0.03,-0.074 -0.06,-0.146 -0.083,-0.223 -0.041,-0.137 -0.087,-0.274 -0.116,-0.414 -0.028,-0.133 -0.04,-0.271 -0.056,-0.406 -0.011,-0.102 -0.009,-0.203 -0.009,-0.306 0,-0.037 0,-0.075 -0.001,-0.114 -0.032,-0.022 -0.068,-0.04 -0.106,-0.05 -0.063,-0.016 -0.132,-0.002 -0.196,-0.012 -0.058,-0.009 -0.095,-0.025 -0.151,-0.008 -0.051,0.015 -0.114,0.009 -0.163,0.028 -0.012,0.005 -0.026,0.017 -0.04,0.029 -0.001,0.015 -0.003,0.031 -0.003,0.046 0,0.046 0.009,0.087 0.012,0.132 0.01,0.114 0.025,0.23 0.028,0.344 0.002,0.073 0.025,0.103 0.053,0.167 0.035,0.081 0.052,0.172 0.076,0.256 0.035,0.122 0.04,0.251 0.074,0.373 0.011,0.04 0.023,0.079 0.036,0.118 0.05,0.147 0.084,0.299 0.131,0.447 0.037,0.118 0.06,0.244 0.087,0.365 0.014,0.067 0.022,0.138 0.048,0.202 0.024,0.059 0.058,0.117 0.086,0.173 0.051,0.101 0.102,0.188 0.17,0.279 0.051,0.069 0.104,0.136 0.157,0.203 0.051,0.063 0.098,0.125 0.131,0.199 0.023,0.051 0.042,0.102 0.073,0.148 0.051,0.073 0.124,0.13 0.19,0.187 0.068,0.058 0.141,0.106 0.224,0.137 0.062,0.024 0.119,0.055 0.179,0.083 0.056,0.025 0.117,0.04 0.17,0.072 0.005,0.003 0.009,0.006 0.014,0.008 0.098,0.06 0.196,0.122 0.295,0.181 0.053,0.032 0.11,0.034 0.167,0.057 0.02,0.009 0.039,0.02 0.059,0.029 0.13,0.056 0.266,0.095 0.394,0.153 0.091,0.042 0.183,0.082 0.276,0.121 0.028,0.012 0.06,0.014 0.087,0.028 0.014,0.006 0.025,0.02 0.039,0.027 0.134,0.074 0.311,0.095 0.459,0.119 0.155,0.025 0.309,0.034 0.466,0.046 0.151,0.012 0.297,-0.009 0.448,-0.007 0.297,0.004 0.582,-0.096 0.876,-0.122 0.193,-0.017 0.384,-0.054 0.572,-0.101 0.035,-0.009 0.066,-0.026 0.102,-0.031 0.044,-0.008 0.087,-0.016 0.13,-0.028 0.084,-0.024 0.165,-0.057 0.247,-0.087 0.116,-0.042 0.225,-0.102 0.329,-0.169 0.095,-0.062 0.198,-0.112 0.29,-0.178 0.073,-0.053 0.15,-0.096 0.229,-0.138 0.122,-0.066 0.25,-0.115 0.37,-0.186 0.161,-0.094 0.292,-0.229 0.429,-0.354 0.15,-0.136 0.272,-0.286 0.393,-0.446 0.046,-0.062 0.094,-0.112 0.148,-0.167 0.061,-0.063 0.1,-0.14 0.151,-0.211 C -4.259,1.399 -4.235,1.387 -4.213,1.367 -4.09,1.253 -3.981,1.088 -3.927,0.93 -3.907,0.874 -3.909,0.814 -3.878,0.763 -3.859,0.731 -3.841,0.701 -3.825,0.667 -3.783,0.578 -3.74,0.488 -3.719,0.392 -3.707,0.336 -3.703,0.277 -3.7,0.22 -3.693,0.1 -3.705,-0.016 -3.71,-0.136 c -0.004,-0.091 -0.008,-0.186 0.007,-0.277 0.008,-0.053 0.014,-0.107 0.017,-0.161 -0.008,-0.015 -0.016,-0.031 -0.025,-0.046 m -0.943,-7.871 c -0.002,-0.097 0.001,-0.209 -0.025,-0.303 -0.023,-0.085 -0.074,-0.157 -0.114,-0.234 -0.044,-0.086 -0.057,-0.178 -0.094,-0.264 -0.01,-0.022 -0.009,-0.049 -0.028,-0.068 -0.024,-0.024 -0.024,-0.018 -0.061,-0.018 -0.081,10e-4 -0.148,-0.01 -0.234,-0.003 -0.056,0.006 -0.143,-0.011 -0.154,0.059 -0.011,0.073 0.018,0.173 0.024,0.247 0.009,0.102 0.025,0.204 0.028,0.306 0.006,0.152 -0.011,0.321 -0.023,0.473 -0.018,0.225 -0.029,0.44 -0.113,0.653 -0.067,0.168 -0.139,0.333 -0.21,0.499 -0.05,0.116 -0.092,0.229 -0.166,0.333 -0.061,0.085 -0.139,0.158 -0.209,0.235 -0.09,0.1 -0.168,0.224 -0.268,0.315 -0.094,0.087 -0.206,0.171 -0.313,0.24 -0.134,0.086 -0.266,0.183 -0.408,0.254 -0.17,0.084 -0.341,0.162 -0.508,0.254 -0.136,0.074 -0.275,0.141 -0.413,0.213 -0.132,0.07 -0.239,0.162 -0.351,0.261 -0.185,0.163 -0.351,0.317 -0.478,0.531 -0.069,0.116 -0.137,0.232 -0.203,0.35 -0.07,0.123 -0.118,0.256 -0.181,0.383 -0.06,0.123 -0.115,0.252 -0.181,0.372 -0.048,0.087 -0.069,0.153 -0.065,0.254 0.007,0.14 0.014,0.286 0.034,0.424 0.019,0.124 0.077,0.243 0.12,0.359 0.053,0.143 0.126,0.283 0.202,0.415 0.093,0.161 0.222,0.277 0.339,0.418 0.096,0.116 0.172,0.241 0.253,0.367 0.101,0.155 0.221,0.298 0.341,0.438 0.414,0.481 0.833,0.958 1.23,1.452 0.097,0.009 0.097,0.002 0.099,-0.004 C -6.752,0.714 -6.737,0.689 -6.711,0.672 -6.685,0.656 -6.649,0.644 -6.62,0.632 -6.548,0.603 -6.469,0.599 -6.476,0.511 -6.48,0.466 -6.487,0.45 -6.52,0.42 -6.553,0.389 -6.572,0.373 -6.55,0.33 -6.533,0.296 -6.504,0.289 -6.501,0.242 -6.498,0.182 -6.538,0.139 -6.572,0.093 -6.616,0.035 -6.649,-0.03 -6.696,-0.085 -6.757,-0.157 -6.832,-0.22 -6.9,-0.287 -7.022,-0.408 -7.149,-0.516 -7.253,-0.654 -7.548,-1.047 -7.797,-1.473 -8.003,-1.919 -8.188,-2.32 -8.168,-2.801 -8.139,-3.23 c 0.009,-0.123 0.045,-0.234 0.081,-0.353 0.029,-0.095 0.056,-0.194 0.104,-0.282 0.11,-0.207 0.329,-0.374 0.517,-0.507 0.123,-0.088 0.269,-0.138 0.392,-0.228 0.099,-0.072 0.187,-0.157 0.29,-0.223 0.243,-0.158 0.503,-0.303 0.719,-0.498 0.125,-0.112 0.238,-0.236 0.365,-0.344 0.121,-0.103 0.24,-0.191 0.329,-0.326 0.073,-0.112 0.137,-0.229 0.203,-0.345 0.079,-0.137 0.164,-0.259 0.218,-0.407 0.1,-0.277 0.136,-0.559 0.191,-0.847 0.027,-0.145 0.076,-0.286 0.076,-0.434 0.001,-0.156 0.001,-0.312 0,-0.467 m -2.545,-1.56 c -0.01,-0.115 -0.013,-0.26 -0.153,-0.252 -0.075,0.005 -0.149,0.014 -0.223,0.021 -0.025,0.002 -0.075,-0.006 -0.096,0.006 -0.033,0.019 -0.018,0.051 -0.014,0.086 0.013,0.129 -0.004,0.255 0.009,0.383 0.016,0.155 0.005,0.305 -0.008,0.459 -0.016,0.183 -0.067,0.359 -0.097,0.539 -0.031,0.185 -0.137,0.369 -0.23,0.528 -0.173,0.295 -0.344,0.582 -0.559,0.849 -0.218,0.271 -0.495,0.508 -0.782,0.702 -0.312,0.21 -0.653,0.384 -0.982,0.565 -0.097,0.053 -0.218,0.106 -0.301,0.18 -0.028,0.026 -0.032,0.05 -0.049,0.083 -0.02,0.037 -0.052,0.066 -0.077,0.1 -0.036,0.048 -0.043,0.116 -0.077,0.168 -0.041,0.061 -0.098,0.098 -0.152,0.147 -0.081,0.072 -0.142,0.159 -0.213,0.239 -0.099,0.112 -0.179,0.211 -0.247,0.347 -0.087,0.173 -0.143,0.385 -0.187,0.572 -0.049,0.204 -0.04,0.418 -0.062,0.625 -0.022,0.224 0.029,0.431 0.058,0.65 0.037,0.27 0.055,0.552 0.136,0.811 0.04,0.131 0.076,0.263 0.128,0.39 0.03,0.073 0.075,0.136 0.129,0.193 0.119,0.124 0.209,0.267 0.315,0.403 0.125,0.159 0.294,0.294 0.448,0.422 0.174,0.145 0.346,0.29 0.529,0.425 0.293,0.219 0.545,0.472 0.769,0.763 0.147,0.191 0.285,0.388 0.432,0.578 0.028,0.037 0.066,0.071 0.081,0.115 0.005,0.017 0,0.036 0.01,0.054 0.02,0.032 0.055,0.037 0.092,0.035 0.033,-0.002 0.067,-0.009 0.094,-0.008 0.076,0.003 0.119,0.024 0.187,-0.018 0.044,-0.027 0.083,-0.045 0.133,-0.063 0.004,-0.03 -0.008,-0.057 0,-0.086 0.004,-0.018 0.028,-0.033 0.033,-0.055 0.004,-0.019 0.011,-0.066 0.01,-0.083 0.008,-0.01 0.01,-0.021 0.007,-0.034 C -8.133,0.76 -8.158,0.732 -8.181,0.704 -8.23,0.646 -8.249,0.552 -8.289,0.485 -8.336,0.408 -8.391,0.337 -8.442,0.264 -8.525,0.146 -8.583,0.012 -8.647,-0.116 -8.732,-0.288 -8.824,-0.438 -8.973,-0.562 -9.237,-0.782 -9.609,-0.92 -9.8,-1.218 c -0.084,-0.131 -0.263,-0.248 -0.383,-0.343 -0.172,-0.135 -0.396,-0.312 -0.469,-0.531 -0.023,-0.068 -0.028,-0.14 -0.054,-0.207 -0.085,-0.218 -0.19,-0.419 -0.235,-0.652 -0.035,-0.186 -0.083,-0.373 -0.065,-0.563 0.008,-0.093 0.031,-0.181 0.046,-0.273 0.012,-0.071 0.014,-0.145 0.026,-0.217 0.027,-0.15 0.118,-0.277 0.184,-0.411 0.056,-0.111 0.104,-0.237 0.177,-0.339 0.049,-0.07 0.113,-0.13 0.165,-0.197 0.037,-0.046 0.051,-0.094 0.08,-0.144 0.036,-0.061 0.09,-0.11 0.134,-0.164 0.051,-0.062 0.097,-0.128 0.147,-0.191 0.066,-0.082 0.139,-0.146 0.24,-0.178 0.092,-0.029 0.183,-0.045 0.269,-0.089 0.142,-0.071 0.269,-0.173 0.398,-0.264 0.132,-0.091 0.248,-0.229 0.36,-0.344 0.122,-0.126 0.241,-0.255 0.361,-0.382 0.146,-0.155 0.324,-0.281 0.447,-0.456 0.061,-0.087 0.107,-0.182 0.164,-0.272 0.063,-0.101 0.131,-0.191 0.177,-0.303 0.076,-0.188 0.156,-0.376 0.238,-0.562 0.128,-0.291 0.208,-0.611 0.219,-0.931 0.01,-0.273 -0.004,-0.548 -0.025,-0.82 m -7.227,14.026 c 0.007,0.034 0.019,0.075 0.037,0.105 0.003,0.006 0.024,0.031 0.031,0.034 0.031,0.012 0.024,-0.008 0.047,-0.018 0.045,-0.019 0.098,-0.05 0.15,-0.062 0.031,-0.007 0.062,0 0.092,-0.007 0.054,-0.012 0.112,-0.057 0.159,-0.086 0.07,-0.042 0.141,-0.073 0.187,-0.147 0.026,-0.044 0.065,-0.116 0.123,-0.119 0.007,-0.039 -0.004,-0.044 0.027,-0.067 0.067,-0.051 0.15,-0.026 0.192,-0.102 0.021,-0.038 0.045,-0.053 0.072,-0.087 0.028,-0.036 0.067,-0.135 0.042,-0.18 -0.012,-0.02 -0.04,-0.028 -0.055,-0.043 -0.01,-0.009 -0.015,-0.023 -0.024,-0.033 -0.038,-0.036 -0.082,-0.064 -0.114,-0.109 -0.047,-0.069 -0.073,-0.182 -0.169,-0.153 -0.062,0.02 -0.095,0.06 -0.105,0.127 -0.01,0.072 -0.003,0.143 -0.024,0.214 -0.028,0.092 -0.094,0.17 -0.172,0.221 -0.152,0.101 -0.316,0.171 -0.475,0.25 -0.004,-0.003 -0.009,-0.003 -0.02,0.01 0.006,-0.003 0.013,-0.006 0.02,-0.01 0.016,0.018 -0.036,0.185 -0.021,0.262 m 1.14,-2.1 c -0.029,-0.029 -0.069,-0.098 -0.101,-0.117 -0.056,-0.033 -0.073,-0.003 -0.105,0.034 -0.031,0.037 -0.077,0.043 -0.109,0.087 -0.049,0.07 -0.12,0.1 -0.177,0.159 -0.037,0.038 -0.066,0.083 -0.103,0.121 -0.039,0.04 -0.084,0.08 -0.116,0.126 -0.071,0.102 -0.055,0.251 -0.214,0.229 -0.049,-0.007 -0.19,-0.087 -0.23,-0.022 -0.016,0.027 0.007,0.067 0.015,0.095 0.011,0.036 0.017,0.063 0.042,0.095 0.015,0.017 0.035,0.031 0.043,0.052 0.01,0.026 0,0.068 0.024,0.091 0.036,0.034 0.021,0.004 0.057,-0.003 0.027,-0.006 0.056,0.005 0.084,-10e-4 0.03,-0.005 0.055,-0.022 0.082,-0.036 0.085,-0.047 0.171,-0.065 0.245,-0.132 0.042,-0.039 0.085,-0.077 0.129,-0.113 0.038,-0.033 0.091,-0.052 0.125,-0.088 0.04,-0.042 0.051,-0.099 0.097,-0.136 0.046,-0.037 0.094,-0.04 0.147,-0.063 0.035,-0.016 0.059,-0.04 0.097,-0.045 0.015,-0.003 0.031,-0.001 0.047,0 0.009,0.015 0.022,0.023 0.031,0.039 0.017,0.028 0.009,0.013 0.016,0.052 0.012,0.068 -0.015,0.146 0.003,0.213 0.102,0.008 0.139,0.181 0.194,0.255 0.076,0.103 0.121,0.236 0.235,0.303 -0.014,0.027 -0.014,0.046 -0.022,0.079 -0.061,0.002 -0.062,0.062 -0.082,0.107 -0.022,0.046 -0.057,0.062 -0.061,0.115 -0.003,0.039 0.012,0.077 0.018,0.115 0.017,0.106 -10e-4,0.131 -0.074,0.195 -0.028,0.024 -0.058,0.044 -0.088,0.072 -0.037,0.036 -0.05,0.036 -0.102,0.036 -0.061,-0.001 -0.152,-0.017 -0.21,-0.002 -0.19,0.05 -0.061,0.236 -0.037,0.364 -0.04,-0.024 -0.041,-0.021 -0.04,-0.015 0.013,10e-4 0.026,0.008 0.04,0.017 0,0.001 10e-4,0.003 10e-4,0.005 0.004,10e-4 0.007,0.002 0.011,0.003 0.02,0.015 0.039,0.032 0.052,0.044 0.033,0.027 0.076,0.095 0.114,0.108 0.016,-0.029 0.039,-0.054 0.053,-0.084 0.017,-0.036 0.018,-0.07 0.045,-0.101 0.045,-0.052 0.115,-0.084 0.167,-0.129 0.087,-0.074 0.188,-0.093 0.296,-0.116 0.052,-0.012 0.099,-0.037 0.151,-0.046 0.047,-0.008 0.082,-0.002 0.122,-0.03 -0.004,-0.042 -0.046,-0.073 -0.08,-0.089 0.007,-0.027 0.015,-0.06 0.029,-0.084 0.022,-0.036 0.029,-0.017 0.032,-0.068 0.006,-0.106 -10e-4,-0.215 0,-0.321 0.001,-0.144 -0.057,-0.272 -0.136,-0.386 -0.068,-0.098 -0.127,-0.181 -0.22,-0.258 -0.067,-0.056 -0.086,-0.14 -0.134,-0.214 -0.064,-0.095 -0.131,-0.187 -0.177,-0.292 -0.027,-0.06 -0.069,-0.094 -0.119,-0.131 -0.036,-0.027 -0.074,-0.057 -0.107,-0.089 m -0.479,-1.256 c -0.029,-0.011 -0.064,0.019 -0.091,0.023 -0.083,0.014 -0.179,-0.008 -0.263,-0.001 -0.054,0.004 -0.054,0.007 -0.056,0.062 -0.002,0.085 -0.017,0.137 -0.095,0.204 -0.025,0.022 -0.074,0.031 -0.108,0.045 -0.045,0.018 -0.085,0.014 -0.134,0.014 -0.182,0.001 -0.362,-0.103 -0.446,-0.247 -0.046,-0.079 -0.118,-0.143 -0.163,-0.223 -0.049,-0.089 -0.048,-0.184 -0.048,-0.281 -10e-4,-0.018 -0.012,-0.07 -0.002,-0.085 0.012,-0.019 0.03,-0.02 0.052,-0.032 0.051,-0.027 0.093,-0.057 0.154,-0.068 0.056,-0.01 0.121,-0.018 0.18,-0.019 0.056,-10e-4 0.088,0.007 0.13,-0.026 0.089,-0.069 0.046,-0.144 -0.011,-0.219 -0.025,-0.033 -0.065,-0.057 -0.102,-0.076 -0.052,-0.027 -0.059,-0.024 -0.066,-0.083 -0.069,-0.017 -0.142,0.002 -0.21,0.012 -0.061,0.01 -0.104,0.011 -0.161,0.033 -0.038,0.015 -0.078,0.027 -0.118,0.039 -0.065,0.019 -0.131,0.029 -0.159,0.095 -0.012,0.027 -0.002,0.058 -0.02,0.084 -0.014,0.02 -0.038,0.028 -0.053,0.047 -0.044,0.057 -0.022,0.15 -0.022,0.216 0,0.081 -0.003,0.149 0.029,0.225 0.038,0.089 -0.009,0.19 0.02,0.28 0.007,0.001 0.013,0.002 0.042,-0.099 0.001,0.079 0.03,0.144 0.045,0.222 0.013,0.066 0.008,0.137 0.065,0.191 0.026,0.024 0.084,0.04 0.116,0.06 0.053,0.033 0.107,0.064 0.162,0.095 0.084,0.047 0.157,0.107 0.244,0.149 0.083,0.04 0.145,0.05 0.237,0.054 0.091,0.004 0.148,0.061 0.238,0.064 0.046,10e-4 0.094,-0.007 0.139,-0.002 0.068,0.008 0.07,0.034 0.127,-0.013 0.093,-0.075 0.231,-0.105 0.324,-0.184 0.062,-0.053 0.056,-0.132 0.042,-0.201 -0.007,-0.031 -0.03,-0.074 -0.022,-0.106 0.008,-0.027 0.034,-0.032 0.047,-0.055 0.02,-0.037 -0.02,-0.089 -0.024,-0.127 -0.002,-0.029 0.016,-0.055 -0.019,-0.067 m -0.231,-0.921 c -0.103,-0.009 -0.307,-0.04 -0.309,0.1 -0.002,0.07 0.024,0.118 0.072,0.17 0.022,0.024 0.052,0.065 0.089,0.065 10e-4,0.006 0.003,0.013 0.004,0.019 l -0.023,0.071 c 0.017,-0.017 0.046,-0.036 0.071,-0.043 0.017,-0.005 0.05,0.002 0.065,-0.008 0.017,-0.012 0.018,-0.032 0.041,-0.041 0.029,-0.012 0.063,-0.002 0.09,-0.022 0.114,-0.08 0.022,-0.3 -0.1,-0.311 M 2.203,-1.854 c -0.035,0.169 -0.112,0.317 -0.079,0.511 0.032,0.19 -0.09,0.374 -0.205,0.541 V -0.915 C 1.906,-0.916 1.893,-0.916 1.88,-0.917 1.874,-0.827 1.852,-0.733 1.866,-0.646 1.915,-0.359 1.982,-0.075 2.033,0.211 2.047,0.292 2.043,0.381 2.024,0.46 1.961,0.724 1.889,0.986 1.816,1.247 1.755,1.464 1.693,1.681 1.619,1.893 1.574,2.02 1.508,2.139 1.444,2.258 1.419,2.307 1.374,2.345 1.34,2.39 1.326,2.41 1.316,2.433 1.308,2.457 1.26,2.591 1.369,2.73 1.293,2.866 1.267,2.911 1.253,2.967 1.247,3.019 1.227,3.169 1.214,3.32 1.197,3.47 1.194,3.496 1.187,3.524 1.172,3.544 1.09,3.659 1.003,3.771 0.922,3.887 0.908,3.908 0.916,3.943 0.912,3.982 0.725,4.151 0.64,4.415 0.443,4.606 0.265,4.777 0.153,5.016 0.011,5.224 -0.083,5.361 -0.18,5.496 -0.271,5.635 -0.35,5.756 -0.479,5.837 -0.492,6.013 -0.499,6.108 -0.601,6.208 -0.682,6.283 -0.843,6.434 -1.019,6.569 -1.189,6.711 -1.192,6.685 -1.196,6.656 -1.199,6.627 -1.21,6.622 -1.22,6.618 -1.231,6.613 -1.298,6.713 -1.364,6.813 -1.433,6.912 -1.477,6.976 -1.525,7.038 -1.571,7.101 -1.605,7.148 -1.64,7.194 -1.672,7.242 -1.727,7.323 -1.779,7.405 -1.834,7.485 -1.852,7.513 -1.879,7.535 -1.899,7.561 -1.98,7.669 -2.057,7.78 -2.144,7.882 -2.166,7.908 -2.222,7.91 -2.263,7.915 -2.322,7.923 -2.386,7.914 -2.442,7.93 -2.681,7.999 -2.92,8.069 -3.153,8.153 -3.247,8.187 -3.34,8.247 -3.412,8.317 c -0.223,0.214 -0.5,0.359 -0.708,0.595 -0.11,0.125 -0.288,0.193 -0.442,0.274 -0.172,0.09 -0.35,0.167 -0.528,0.246 -0.096,0.043 -0.192,0.1 -0.294,0.114 -0.199,0.029 -0.402,0.029 -0.603,0.048 -0.232,0.022 -0.472,0.004 -0.686,0.122 -0.23,0.127 -0.481,0.103 -0.729,0.107 -0.017,0 -0.04,-0.003 -0.051,-0.014 C -7.564,9.705 -7.691,9.749 -7.813,9.772 -7.831,9.775 -7.842,9.821 -7.862,9.858 -7.918,9.866 -7.991,9.883 -8.064,9.885 -8.218,9.887 -8.372,9.881 -8.526,9.879 -8.687,9.876 -8.849,9.863 -9.008,9.876 c -0.15,0.012 -0.298,0.051 -0.446,0.079 -0.003,0 -0.005,0.008 -0.007,0.009 -0.06,0.005 -0.128,0.03 -0.18,0.012 C -9.78,9.929 -9.919,9.874 -10.046,9.8 c -0.065,-0.038 -0.172,-0.059 -0.169,-0.175 0,-0.016 -0.028,-0.038 -0.047,-0.049 -0.077,-0.043 -0.156,-0.083 -0.234,-0.124 0.001,0.013 0.002,0.025 0.003,0.037 -0.023,0.005 -0.047,0.018 -0.068,0.013 -0.113,-0.023 -0.225,-0.055 -0.338,-0.075 -0.046,-0.008 -0.097,0.019 -0.142,0.012 -0.177,-0.03 -0.353,-0.067 -0.529,-0.102 -0.217,-0.042 -0.433,-0.083 -0.649,-0.125 -0.031,-0.006 -0.061,-0.028 -0.089,-0.024 -0.199,0.029 -0.368,-0.079 -0.552,-0.117 -0.033,-0.007 -0.058,-0.049 -0.087,-0.075 0.006,-0.005 0.012,-0.01 0.018,-0.015 l 0.168,0.054 c 0.004,-0.011 0.008,-0.022 0.012,-0.032 -0.117,-0.08 -0.234,-0.159 -0.351,-0.238 -0.006,0.016 -0.011,0.033 -0.017,0.049 -0.041,-0.003 -0.09,0.007 -0.122,-0.011 -0.101,-0.058 -0.197,-0.125 -0.294,-0.189 -0.157,-0.105 -0.308,-0.222 -0.474,-0.31 -0.12,-0.064 -0.269,-0.071 -0.39,-0.132 -0.287,-0.144 -0.573,-0.294 -0.761,-0.573 -0.068,-0.102 -0.147,-0.197 -0.238,-0.316 -0.02,0.042 -0.031,0.064 -0.039,0.08 -0.217,-0.183 -0.295,-0.438 -0.431,-0.656 -0.123,-0.199 -0.25,-0.402 -0.412,-0.567 -0.197,-0.2 -0.437,-0.357 -0.651,-0.542 -0.212,-0.183 -0.251,-0.45 -0.316,-0.702 -0.026,-0.102 -0.05,-0.205 -0.074,-0.308 -0.012,0.003 -0.025,0.005 -0.037,0.008 0.004,0.031 0.007,0.061 0.011,0.092 -0.051,-0.05 -0.07,-0.112 -0.104,-0.165 -0.07,-0.113 -0.147,-0.222 -0.223,-0.332 -0.02,-0.028 -0.049,-0.05 -0.068,-0.078 -0.119,-0.177 -0.238,-0.354 -0.353,-0.533 -0.021,-0.031 -0.028,-0.072 -0.037,-0.109 -0.047,-0.2 -0.087,-0.402 -0.142,-0.6 -0.05,-0.183 -0.115,-0.361 -0.173,-0.541 l -0.029,0.008 c -0.006,0.018 -0.012,0.036 -0.015,0.046 -0.022,-0.113 -0.052,-0.229 -0.064,-0.347 -0.015,-0.15 -0.008,-0.303 -0.022,-0.453 -0.013,-0.155 0.018,-0.316 -0.066,-0.463 -0.047,-0.083 -0.088,-0.176 -0.104,-0.269 -0.067,-0.405 -0.119,-0.81 -0.33,-1.178 -0.152,-0.264 -0.164,-0.564 -0.111,-0.857 0.086,-0.476 0.17,-0.955 0.358,-1.406 0.011,-0.026 0.041,-0.044 0.057,-0.069 0.063,-0.096 0.125,-0.193 0.186,-0.29 -0.007,-0.005 -0.014,-0.01 -0.02,-0.015 -0.023,0.01 -0.046,0.02 -0.069,0.031 0.104,-0.138 0.123,-0.31 0.075,-0.439 -0.055,-0.145 -0.049,-0.256 0.013,-0.381 0.007,0.011 0.013,0.022 0.035,0.06 0.01,-0.11 0.017,-0.194 0.025,-0.277 0.008,-0.089 0.01,-0.179 0.025,-0.267 0.086,-0.495 0.284,-0.954 0.456,-1.422 0.173,-0.47 0.488,-0.857 0.738,-1.281 0.132,-0.223 0.312,-0.427 0.532,-0.588 0.248,-0.181 0.498,-0.356 0.67,-0.629 0.122,-0.193 0.311,-0.345 0.481,-0.504 0.269,-0.253 0.541,-0.502 0.822,-0.741 0.437,-0.372 0.863,-0.764 1.459,-0.872 0.04,-0.007 0.082,-10e-4 0.122,-0.008 0.14,-0.024 0.288,-0.03 0.416,-0.084 0.131,-0.054 0.241,-0.158 0.362,-0.238 0.02,-0.013 0.05,-0.011 0.076,-0.015 0.039,-0.007 0.087,-10e-4 0.116,-0.022 0.236,-0.168 0.481,-0.31 0.765,-0.386 0.201,-0.054 0.397,-0.131 0.594,-0.201 0.065,-0.024 0.125,-0.082 0.189,-0.084 0.243,-0.005 0.46,-0.115 0.692,-0.162 0.341,-0.07 0.68,-0.163 1.012,0.037 0.036,0.021 0.096,0.009 0.144,0.004 0.048,-0.004 0.096,-0.033 0.142,-0.028 0.448,0.055 0.896,0.116 1.344,0.173 0.225,0.029 0.451,0.054 0.677,0.082 0.179,0.023 0.358,0.042 0.535,0.073 0.222,0.04 0.442,0.092 0.664,0.138 0.011,0.002 0.023,-10e-4 0.035,10e-4 0.104,0.016 0.22,0.009 0.309,0.056 0.266,0.139 0.521,0.298 0.78,0.451 0.079,0.046 0.147,0.136 0.256,0.055 0.01,-0.008 0.043,0.01 0.063,0.02 0.269,0.138 0.559,0.206 0.853,0.252 0.208,0.032 0.299,0.195 0.418,0.329 0.012,0.014 0.005,0.043 0.008,0.082 -0.042,-0.037 -0.072,-0.063 -0.102,-0.089 -0.009,0.005 -0.018,0.011 -0.027,0.016 0.032,0.053 0.052,0.119 0.097,0.156 0.183,0.154 0.363,0.311 0.545,0.466 0.268,0.229 0.474,0.528 0.797,0.697 0.123,0.065 0.217,0.185 0.326,0.278 0.022,0.019 0.053,0.028 0.08,0.039 0.248,0.094 0.484,0.2 0.601,0.465 0.1,0.227 0.202,0.454 0.319,0.673 0.057,0.106 0.141,0.203 0.229,0.286 0.355,0.337 0.732,0.651 0.958,1.101 0.078,0.155 0.184,0.296 0.275,0.446 0.028,0.046 0.052,0.095 0.07,0.145 0.08,0.215 0.166,0.428 0.232,0.646 0.061,0.203 0.102,0.413 0.147,0.621 0.033,0.154 0.047,0.313 0.087,0.466 0.054,0.205 0.159,0.404 0.178,0.611 0.02,0.213 0.065,0.415 0.113,0.62 0.019,0.084 0.065,0.174 0.049,0.251"
             style="fill:#110f0d;fill-opacity:1;fill-rule:nonzero;stroke:none"
             id="path475" />
        </g>
      </g>
    </g>
  </g>
</svg>
