<?xml version="1.0" encoding="UTF-8" standalone="no"?>
<!-- Created with Inkscape (http://www.inkscape.org/) -->

<svg
   width="23.868671"
   height="24"
   viewBox="0 0 6.3152525 6.35"
   version="1.1"
   id="svg5101"
   inkscape:version="1.2.1 (9c6d41e4, 2022-07-14)"
   sodipodi:docname="return-to-the-unspeakable-oath.svg"
   xmlns:inkscape="http://www.inkscape.org/namespaces/inkscape"
   xmlns:sodipodi="http://sodipodi.sourceforge.net/DTD/sodipodi-0.dtd"
   xmlns="http://www.w3.org/2000/svg"
   xmlns:svg="http://www.w3.org/2000/svg">
  <sodipodi:namedview
     id="namedview5103"
     pagecolor="#505050"
     bordercolor="#eeeeee"
     borderopacity="1"
     inkscape:showpageshadow="0"
     inkscape:pageopacity="0"
     inkscape:pagecheckerboard="0"
     inkscape:deskcolor="#505050"
     inkscape:document-units="mm"
     showgrid="false"
     inkscape:zoom="0.7046647"
     inkscape:cx="117.78652"
     inkscape:cy="182.35623"
     inkscape:window-width="1390"
     inkscape:window-height="941"
     inkscape:window-x="0"
     inkscape:window-y="25"
     inkscape:window-maximized="0"
     inkscape:current-layer="layer1" />
  <defs
     id="defs5098">
    <clipPath
       clipPathUnits="userSpaceOnUse"
       id="clipPath459">
      <path
         d="m 150.565,440.808 h 22.058 v 22.058 h -22.058 z"
         id="path457" />
    </clipPath>
  </defs>
  <g
     inkscape:label="Layer 1"
     inkscape:groupmode="layer"
     id="layer1"
     transform="translate(-73.814561,-100.45585)">
    <g
       id="g453"
       transform="matrix(0.2948087,0,0,-0.2948087,29.332607,236.83634)">
      <g
         id="g455"
         clip-path="url(#clipPath459)">
        <g
           id="g461"
           transform="translate(167.9487,457.0903)">
          <path
             d="M 0,0 C -0.053,-0.055 -0.098,-0.095 -0.165,-0.135 -0.26,-0.192 -0.237,-0.207 -0.292,-0.273 -0.354,-0.349 -0.533,-0.44 -0.622,-0.5 -0.844,-0.651 -1.069,-0.798 -1.293,-0.945 -1.737,-1.234 -2.234,-1.456 -2.681,-1.74 c -0.42,-0.267 -0.831,-0.537 -1.26,-0.794 -0.515,-0.309 -1.004,-0.632 -1.503,-0.959 -0.185,-0.121 -0.377,-0.225 -0.571,-0.328 0.209,-0.174 0.426,-0.349 0.614,-0.541 0.013,0.004 0.025,0.008 0.038,0.012 0.07,0.017 0.118,0.055 0.191,0.07 0.082,0.017 0.102,0.018 0.173,-0.042 0.091,-0.075 0.18,-0.16 0.272,-0.235 0.061,-0.049 0.131,-0.079 0.192,-0.129 0.08,-0.066 0.155,-0.149 0.222,-0.228 0.074,-0.089 0.145,-0.158 0.241,-0.219 0.076,-0.049 0.133,-0.114 0.2,-0.175 0.067,-0.058 0.144,-0.096 0.212,-0.152 0.069,-0.058 0.126,-0.131 0.194,-0.189 0.047,-0.041 0.087,-0.061 0.126,-0.113 0.084,-0.114 0.158,-0.211 0.257,-0.313 0.075,-0.077 0.142,-0.16 0.204,-0.247 0.162,-0.227 0.356,-0.432 0.512,-0.66 0.162,-0.237 0.303,-0.477 0.494,-0.695 0.118,-0.135 0.227,-0.282 0.349,-0.413 0.072,-0.076 0.149,-0.143 0.216,-0.225 0.128,-0.158 0.256,-0.316 0.382,-0.475 0.064,-0.081 0.144,-0.142 0.213,-0.218 0.1,-0.111 0.199,-0.229 0.293,-0.345 0.064,-0.078 0.105,-0.165 0.159,-0.25 0.103,-0.16 0.15,-0.342 0.212,-0.516 0.049,-0.138 0.127,-0.289 0.15,-0.427 0.026,-0.149 0.007,-0.302 0.019,-0.451 0.013,-0.152 -0.039,-0.349 -0.188,-0.385 -0.103,-0.024 -0.239,-0.071 -0.351,-0.062 -0.064,0.005 -0.128,0.012 -0.192,0.014 -0.065,0.002 -0.104,-0.026 -0.171,0.003 -0.042,0.017 -0.084,0.047 -0.124,0.073 -0.057,0.036 -0.102,0.038 -0.153,0.085 -0.087,0.079 -0.173,0.159 -0.259,0.238 -0.122,0.112 -0.256,0.208 -0.376,0.322 -0.054,0.052 -0.113,0.097 -0.169,0.146 -0.057,0.05 -0.102,0.112 -0.16,0.16 -0.11,0.093 -0.239,0.171 -0.354,0.259 -0.059,0.046 -0.12,0.09 -0.179,0.138 -0.088,0.07 -0.15,0.147 -0.228,0.225 -0.143,0.142 -0.286,0.286 -0.438,0.417 -0.174,0.151 -0.326,0.324 -0.497,0.478 -0.196,0.177 -0.393,0.321 -0.566,0.527 -0.188,0.222 -0.344,0.474 -0.52,0.707 -0.388,0.513 -0.829,0.985 -1.204,1.509 -0.089,0.124 -0.163,0.256 -0.243,0.384 -0.023,0.036 -0.054,0.077 -0.061,0.119 -0.011,0.077 0.055,0.173 0.096,0.224 0.041,0.05 0.067,0.102 0.091,0.158 -0.06,0.092 -0.12,0.184 -0.186,0.27 -0.179,0.234 -0.356,0.469 -0.536,0.702 -0.068,-0.04 -0.136,-0.08 -0.205,-0.119 -0.47,-0.267 -0.936,-0.551 -1.397,-0.832 -0.25,-0.152 -0.499,-0.305 -0.742,-0.466 -0.028,-0.018 -0.055,-0.037 -0.082,-0.055 0.003,-0.008 0.008,-0.014 0.01,-0.022 0.011,-0.038 -0.005,-0.089 10e-4,-0.129 0.009,-0.058 0.043,-0.07 0.006,-0.118 -0.041,-0.053 -0.159,-0.097 -0.215,-0.123 -0.111,-0.053 -0.222,-0.1 -0.33,-0.158 -0.274,-0.146 -0.585,-0.206 -0.862,-0.352 -0.155,-0.082 -0.296,-0.181 -0.442,-0.278 -0.14,-0.092 -0.291,-0.164 -0.43,-0.26 -0.2,-0.138 -0.395,-0.283 -0.605,-0.404 -0.157,-0.092 -0.274,-0.178 -0.397,-0.312 -0.056,-0.062 -0.08,-0.137 -0.125,-0.201 -0.051,-0.072 -0.109,-0.163 -0.134,-0.254 0.008,-0.013 0.017,-0.024 0.024,-0.037 0.058,-0.108 0.141,-0.197 0.2,-0.305 0.047,-0.089 0.089,-0.169 0.153,-0.249 0.107,-0.134 0.239,-0.225 0.365,-0.339 0.041,-0.037 0.092,-0.054 0.13,-0.09 0.037,-0.034 0.052,-0.061 0.095,-0.092 0.085,-0.062 0.103,-0.098 0.213,-0.089 -0.101,-0.107 -0.248,-0.173 -0.343,-0.284 -0.035,-0.042 -0.042,-0.101 -0.078,-0.143 -0.027,-0.032 -0.069,-0.045 -0.094,-0.076 -0.037,-0.044 -0.041,-0.087 -0.09,-0.122 -0.1,-0.072 -0.165,-0.112 -0.291,-0.071 -0.149,0.048 -0.316,0.1 -0.448,0.185 -0.118,0.077 -0.235,0.174 -0.339,0.269 -0.15,0.139 -0.304,0.252 -0.425,0.42 -0.232,0.322 -0.494,0.643 -0.643,1.015 -0.189,0.471 -0.292,0.948 -0.403,1.441 -0.066,0.291 -0.107,0.59 -0.116,0.888 0.065,-0.073 0.062,0.011 0.06,0.095 -10e-4,0.11 -0.037,0.204 -0.039,0.316 -0.001,0.073 -0.012,0.151 -0.007,0.224 10e-4,0.016 0.018,0.141 0.035,0.152 0.051,0.033 0.204,-0.056 0.256,-0.076 0.107,-0.041 0.198,-0.036 0.312,-0.032 0.049,0.002 0.062,10e-4 0.101,-0.021 0.073,-0.039 0.049,-0.043 0.058,-0.134 0.007,-0.066 0.035,-0.114 0.038,-0.181 0.002,-0.049 -10e-4,-0.091 0.01,-0.139 0.032,-0.153 0.037,-0.308 0.083,-0.461 0.043,-0.141 0.059,-0.29 0.129,-0.422 0.029,-0.055 0.062,-0.101 0.087,-0.153 0.108,-0.003 0.221,0.005 0.323,0.013 0.115,0.009 0.226,0.039 0.339,0.059 0.094,0.017 0.196,0.007 0.284,0.041 0.321,0.127 0.62,0.3 0.929,0.452 0.257,0.126 0.519,0.249 0.764,0.397 0.354,0.213 0.776,0.385 1.082,0.665 0.093,0.085 0.233,0.145 0.353,0.081 0.309,0.183 0.619,0.365 0.93,0.546 0.369,0.215 0.728,0.451 1.099,0.662 0.137,0.072 0.276,0.141 0.416,0.208 -0.358,0.487 -0.708,0.979 -1.11,1.434 -0.332,0.376 -0.678,0.745 -1.068,1.062 -0.13,0.107 -0.258,0.223 -0.399,0.316 -0.084,0.056 -0.175,0.116 -0.269,0.154 -0.007,-0.005 -0.015,-0.011 -0.022,-0.016 -0.224,-0.155 -0.453,-0.298 -0.642,-0.496 -0.165,-0.173 -0.299,-0.373 -0.432,-0.572 -0.042,-0.063 -0.091,-0.113 -0.127,-0.18 -0.027,-0.051 -0.051,-0.117 -0.091,-0.159 -0.056,-0.06 -0.106,-0.037 -0.166,-0.003 -0.078,0.046 -0.161,0.104 -0.225,0.17 -0.084,0.087 -0.148,0.193 -0.229,0.282 -0.118,0.132 -0.245,0.257 -0.356,0.393 -0.174,0.215 -0.303,0.46 -0.486,0.667 -0.073,0.082 -0.142,0.167 -0.213,0.251 -0.028,0.033 -0.054,0.07 -0.079,0.107 -0.02,0.03 -0.087,0.1 -0.089,0.136 -0.005,0.068 0.216,0.143 0.292,0.168 0.101,0.033 0.207,0.052 0.309,0.082 0.093,0.027 0.185,0.057 0.275,0.093 0.104,0.041 0.204,0.088 0.299,0.146 0.162,0.099 0.342,0.152 0.504,0.248 0.143,0.083 0.303,0.13 0.451,0.2 0.071,0.033 0.126,0.088 0.195,0.123 0.105,0.054 0.216,0.055 0.312,0.132 0.054,0.045 0.093,0.093 0.155,0.129 0.056,0.032 0.113,0.064 0.169,0.098 0.052,0.031 0.09,0.061 0.136,0.098 0.046,0.037 0.074,0.037 0.121,0.061 0.058,0.03 0.09,0.077 0.154,0.101 0.062,0.023 0.101,0.057 0.149,0.103 0.067,0.063 0.096,0.144 0.139,0.223 0.138,0.254 0.328,0.538 0.541,0.738 0.121,0.114 0.306,0.199 0.391,0.347 0.032,0.058 0.043,0.126 0.078,0.181 C -8.472,3.046 -8.429,2.975 -8.333,2.932 -8.18,2.864 -8.064,2.773 -7.957,2.641 -7.82,2.472 -7.695,2.302 -7.559,2.132 -7.52,2.084 -7.469,2.052 -7.43,2.004 -7.382,1.944 -7.348,1.879 -7.296,1.819 -7.23,1.743 -7.152,1.692 -7.087,1.616 -7.004,1.517 -6.912,1.429 -6.826,1.336 -6.787,1.293 -6.767,1.242 -6.729,1.2 -6.701,1.168 -6.617,1.095 -6.652,1.037 -6.669,1.009 -6.792,0.994 -6.824,0.987 -6.891,0.974 -6.947,0.988 -7.016,0.97 -7.118,0.944 -7.208,0.904 -7.304,0.858 -7.444,0.79 -7.584,0.758 -7.714,0.665 -8.013,0.451 -8.388,0.363 -8.696,0.162 -8.727,0.142 -8.761,0.123 -8.794,0.104 c 0,-0.006 0.001,-0.012 0.001,-0.018 0.002,-0.13 -0.022,-0.259 -0.003,-0.389 0.014,-0.094 0.058,-0.159 0.119,-0.231 0.125,-0.145 0.263,-0.279 0.389,-0.424 0.246,-0.286 0.461,-0.597 0.664,-0.914 0.189,-0.294 0.389,-0.567 0.617,-0.832 0.18,-0.209 0.314,-0.452 0.498,-0.659 0.009,-0.009 0.018,-0.018 0.027,-0.028 0.135,0.068 0.272,0.133 0.407,0.203 l 2.346,1.263 c 0.306,0.148 0.587,0.306 0.881,0.474 0.342,0.195 0.707,0.355 1.055,0.538 0.279,0.148 0.562,0.29 0.838,0.443 0.166,0.092 0.381,0.191 0.517,0.317 0.053,0.049 0.076,0.112 0.137,0.155 0.078,0.056 0.181,0.077 0.265,0.134 C 0.04,0.186 0.138,0.27 0.23,0.275 0.258,0.198 0.069,0.071 0,0 m 4.354,-6.32 c -0.036,0.169 -0.113,0.317 -0.08,0.511 0.032,0.19 -0.09,0.374 -0.205,0.541 V -5.381 C 4.056,-5.382 4.043,-5.382 4.03,-5.383 c -0.006,0.09 -0.028,0.184 -0.013,0.271 0.048,0.287 0.115,0.571 0.166,0.857 0.014,0.081 0.01,0.17 -0.009,0.249 -0.063,0.264 -0.135,0.526 -0.208,0.787 -0.061,0.217 -0.123,0.433 -0.197,0.646 -0.045,0.126 -0.111,0.246 -0.175,0.365 -0.025,0.049 -0.07,0.087 -0.104,0.132 -0.014,0.02 -0.024,0.043 -0.032,0.066 -0.048,0.135 0.061,0.274 -0.015,0.41 -0.026,0.045 -0.04,0.101 -0.046,0.153 -0.02,0.15 -0.033,0.301 -0.05,0.451 -0.003,0.026 -0.01,0.054 -0.025,0.074 -0.082,0.115 -0.169,0.227 -0.25,0.343 -0.014,0.02 -0.006,0.056 -0.01,0.095 C 2.875,-0.315 2.79,-0.051 2.593,0.14 2.415,0.311 2.303,0.55 2.161,0.758 2.067,0.895 1.97,1.03 1.879,1.169 1.8,1.289 1.671,1.371 1.658,1.546 1.651,1.642 1.549,1.742 1.468,1.817 1.307,1.968 1.131,2.103 0.961,2.245 0.958,2.219 0.954,2.19 0.951,2.16 0.94,2.156 0.93,2.152 0.919,2.147 0.852,2.247 0.786,2.347 0.717,2.446 0.673,2.51 0.625,2.572 0.579,2.635 0.545,2.682 0.51,2.728 0.478,2.776 0.423,2.856 0.371,2.939 0.316,3.019 0.298,3.047 0.271,3.069 0.251,3.095 0.17,3.203 0.093,3.314 0.006,3.416 -0.016,3.442 -0.072,3.444 -0.113,3.449 -0.172,3.457 -0.236,3.448 -0.292,3.464 -0.531,3.533 -0.769,3.602 -1.003,3.687 -1.097,3.721 -1.19,3.781 -1.262,3.851 -1.485,4.065 -1.762,4.21 -1.97,4.446 -2.08,4.571 -2.258,4.639 -2.412,4.72 -2.584,4.81 -2.762,4.886 -2.939,4.966 -3.036,5.009 -3.132,5.066 -3.234,5.08 -3.433,5.109 -3.636,5.109 -3.837,5.128 -4.069,5.15 -4.309,5.132 -4.523,5.25 -4.753,5.376 -5.004,5.353 -5.252,5.357 -5.269,5.357 -5.292,5.354 -5.303,5.343 -5.414,5.239 -5.541,5.283 -5.663,5.306 -5.681,5.309 -5.692,5.355 -5.712,5.393 -5.768,5.4 -5.841,5.417 -5.913,5.418 -6.068,5.421 -6.222,5.415 -6.376,5.412 -6.537,5.41 -6.699,5.397 -6.858,5.41 c -0.15,0.011 -0.298,0.051 -0.446,0.079 -0.003,0 -0.004,0.008 -0.007,0.009 -0.06,0.005 -0.128,0.03 -0.18,0.012 C -7.63,5.463 -7.769,5.408 -7.895,5.334 -7.961,5.296 -8.068,5.275 -8.065,5.159 -8.065,5.143 -8.093,5.121 -8.112,5.11 -8.189,5.067 -8.268,5.027 -8.345,4.986 c 0,0.013 0.001,0.025 0.002,0.037 C -8.366,5.028 -8.39,5.041 -8.411,5.036 -8.524,5.013 -8.635,4.981 -8.749,4.961 -8.795,4.953 -8.846,4.98 -8.891,4.973 -9.068,4.943 -9.244,4.905 -9.42,4.871 -9.637,4.829 -9.853,4.788 -10.069,4.746 -10.1,4.74 -10.13,4.718 -10.158,4.722 -10.357,4.751 -10.526,4.643 -10.71,4.605 -10.743,4.598 -10.768,4.556 -10.797,4.53 c 0.006,-0.005 0.012,-0.01 0.018,-0.016 l 0.168,0.055 c 0.004,-0.011 0.008,-0.022 0.012,-0.033 -0.117,-0.079 -0.234,-0.158 -0.351,-0.237 -0.006,0.016 -0.011,0.033 -0.017,0.049 -0.041,-0.003 -0.09,0.007 -0.122,-0.011 -0.101,-0.058 -0.196,-0.125 -0.294,-0.19 -0.157,-0.104 -0.308,-0.221 -0.474,-0.309 -0.12,-0.064 -0.269,-0.071 -0.39,-0.132 -0.287,-0.144 -0.573,-0.294 -0.761,-0.573 -0.068,-0.102 -0.147,-0.197 -0.238,-0.316 -0.02,0.042 -0.031,0.064 -0.039,0.08 -0.217,-0.183 -0.295,-0.438 -0.431,-0.656 -0.123,-0.199 -0.249,-0.402 -0.412,-0.567 -0.197,-0.2 -0.437,-0.358 -0.651,-0.542 -0.212,-0.183 -0.251,-0.45 -0.316,-0.702 -0.026,-0.102 -0.05,-0.205 -0.074,-0.308 -0.012,0.003 -0.025,0.005 -0.037,0.008 0.004,0.031 0.007,0.061 0.011,0.092 -0.051,-0.05 -0.07,-0.112 -0.104,-0.165 -0.07,-0.113 -0.147,-0.222 -0.223,-0.332 -0.02,-0.028 -0.049,-0.05 -0.068,-0.078 -0.119,-0.177 -0.238,-0.354 -0.353,-0.533 -0.021,-0.031 -0.028,-0.072 -0.037,-0.109 -0.047,-0.2 -0.087,-0.402 -0.142,-0.6 -0.05,-0.183 -0.115,-0.361 -0.173,-0.541 l -0.029,0.008 c -0.006,0.018 -0.012,0.036 -0.015,0.046 -0.022,-0.114 -0.052,-0.229 -0.064,-0.347 -0.015,-0.15 -0.008,-0.303 -0.021,-0.454 -0.014,-0.154 0.017,-0.315 -0.067,-0.463 -0.047,-0.082 -0.088,-0.175 -0.104,-0.268 -0.067,-0.405 -0.119,-0.81 -0.33,-1.178 -0.152,-0.264 -0.164,-0.565 -0.111,-0.856 0.086,-0.477 0.17,-0.956 0.358,-1.407 0.011,-0.026 0.041,-0.045 0.057,-0.07 0.063,-0.095 0.125,-0.193 0.186,-0.289 -0.006,-0.005 -0.013,-0.01 -0.02,-0.015 -0.023,0.01 -0.046,0.02 -0.069,0.031 0.105,-0.139 0.124,-0.31 0.075,-0.439 -0.055,-0.145 -0.049,-0.256 0.013,-0.382 0.007,0.012 0.013,0.023 0.035,0.061 0.01,-0.11 0.017,-0.194 0.025,-0.277 0.008,-0.089 0.01,-0.179 0.025,-0.267 0.086,-0.495 0.284,-0.954 0.456,-1.423 0.173,-0.469 0.488,-0.856 0.738,-1.28 0.132,-0.223 0.312,-0.427 0.533,-0.588 0.247,-0.182 0.497,-0.356 0.67,-0.629 0.121,-0.193 0.31,-0.345 0.48,-0.504 0.269,-0.253 0.541,-0.503 0.822,-0.741 0.437,-0.372 0.864,-0.765 1.459,-0.872 0.04,-0.007 0.082,-10e-4 0.122,-0.008 0.14,-0.024 0.288,-0.03 0.416,-0.084 0.131,-0.054 0.241,-0.159 0.362,-0.238 0.02,-0.013 0.05,-0.011 0.076,-0.015 0.039,-0.007 0.088,-0.001 0.117,-0.022 0.235,-0.168 0.48,-0.31 0.764,-0.386 0.201,-0.054 0.397,-0.131 0.594,-0.202 0.065,-0.023 0.126,-0.081 0.189,-0.083 0.243,-0.006 0.46,-0.115 0.692,-0.162 0.341,-0.07 0.68,-0.163 1.013,0.036 0.036,0.022 0.095,0.01 0.143,0.005 0.048,-0.004 0.096,-0.033 0.142,-0.028 0.448,0.055 0.896,0.116 1.344,0.173 0.225,0.029 0.451,0.054 0.677,0.082 0.179,0.023 0.358,0.042 0.535,0.073 0.222,0.04 0.443,0.092 0.664,0.138 0.011,0.002 0.023,-10e-4 0.035,0.001 0.104,0.016 0.22,0.009 0.309,0.056 0.266,0.139 0.521,0.298 0.78,0.451 0.079,0.046 0.147,0.136 0.256,0.055 0.01,-0.008 0.043,0.01 0.063,0.02 0.269,0.138 0.559,0.206 0.853,0.252 0.208,0.032 0.299,0.195 0.418,0.329 0.012,0.013 0.005,0.043 0.008,0.082 -0.042,-0.037 -0.072,-0.063 -0.102,-0.089 -0.009,0.005 -0.018,0.011 -0.027,0.016 0.032,0.053 0.052,0.119 0.097,0.156 0.183,0.154 0.363,0.311 0.545,0.466 0.268,0.229 0.474,0.527 0.797,0.697 0.123,0.065 0.217,0.185 0.326,0.278 0.022,0.019 0.053,0.028 0.08,0.039 0.248,0.094 0.484,0.2 0.601,0.465 0.1,0.227 0.202,0.454 0.319,0.673 0.057,0.106 0.141,0.203 0.229,0.286 0.355,0.337 0.732,0.651 0.958,1.101 0.078,0.155 0.184,0.296 0.275,0.446 0.028,0.045 0.052,0.095 0.07,0.145 0.08,0.215 0.166,0.427 0.232,0.646 0.061,0.203 0.102,0.413 0.147,0.621 0.033,0.154 0.047,0.313 0.087,0.466 0.054,0.205 0.159,0.404 0.178,0.611 0.02,0.213 0.065,0.415 0.113,0.62 0.019,0.084 0.065,0.174 0.05,0.251"
             style="fill:#110f0d;fill-opacity:1;fill-rule:nonzero;stroke:none"
             id="path463" />
        </g>
      </g>
    </g>
  </g>
</svg>
