<?xml version="1.0" encoding="UTF-8" standalone="no"?>
<!-- Created with Inkscape (http://www.inkscape.org/) -->

<svg
   width="23.868719"
   height="24"
   viewBox="0 0 6.3152653 6.35"
   version="1.1"
   id="svg5257"
   inkscape:version="1.2.1 (9c6d41e4, 2022-07-14)"
   sodipodi:docname="return-to-dim-carcosa.svg"
   xmlns:inkscape="http://www.inkscape.org/namespaces/inkscape"
   xmlns:sodipodi="http://sodipodi.sourceforge.net/DTD/sodipodi-0.dtd"
   xmlns="http://www.w3.org/2000/svg"
   xmlns:svg="http://www.w3.org/2000/svg">
  <sodipodi:namedview
     id="namedview5259"
     pagecolor="#505050"
     bordercolor="#eeeeee"
     borderopacity="1"
     inkscape:showpageshadow="0"
     inkscape:pageopacity="0"
     inkscape:pagecheckerboard="0"
     inkscape:deskcolor="#505050"
     inkscape:document-units="mm"
     showgrid="false"
     inkscape:zoom="0.7046647"
     inkscape:cx="32.639637"
     inkscape:cy="60.312372"
     inkscape:window-width="1390"
     inkscape:window-height="941"
     inkscape:window-x="0"
     inkscape:window-y="25"
     inkscape:window-maximized="0"
     inkscape:current-layer="layer1" />
  <defs
     id="defs5254">
    <clipPath
       clipPathUnits="userSpaceOnUse"
       id="clipPath495">
      <path
         d="m 150.565,385.3 h 22.058 v 22.058 h -22.058 z"
         id="path493" />
    </clipPath>
  </defs>
  <g
     inkscape:label="Layer 1"
     inkscape:groupmode="layer"
     id="layer1"
     transform="translate(-96.342999,-132.74662)">
    <g
       id="g489"
       transform="matrix(0.29481097,0,0,-0.29481097,51.860678,252.7637)">
      <g
         id="g491"
         clip-path="url(#clipPath495)">
        <g
           id="g497"
           transform="translate(170.9263,397.62)">
          <path
             d="m 0,0 c -0.029,-0.052 -0.088,-0.083 -0.133,-0.119 -0.056,-0.044 -0.111,-0.115 -0.182,-0.134 -0.065,-0.017 -0.122,0.018 -0.181,0.025 -0.085,0.008 -0.183,-0.033 -0.272,-0.035 -0.119,-0.003 -0.193,-0.039 -0.303,-0.07 -0.067,-0.018 -0.127,-0.017 -0.198,-0.019 -0.237,-0.005 -0.454,0.005 -0.685,0.046 -0.192,0.034 -0.355,0.017 -0.551,0.028 -0.176,0.01 -0.348,0.035 -0.525,0.033 -0.244,-0.001 -0.489,-0.022 -0.732,-0.021 -0.171,0.001 -0.334,0.019 -0.506,0.014 -0.47,-0.015 -0.93,-0.036 -1.396,0.014 -0.577,0.062 -1.17,0.02 -1.752,0.004 -0.344,-0.009 -0.687,-0.012 -1.03,-0.038 -0.424,-0.032 -0.853,-0.121 -1.278,-0.128 -0.354,-0.005 -0.703,0.014 -1.058,0.002 -0.259,-0.008 -0.511,0.01 -0.768,0.007 -0.226,-0.003 -0.454,-0.013 -0.68,-0.02 -0.209,-0.006 -0.413,0.011 -0.622,0.011 -0.226,0.001 -0.439,-0.022 -0.663,0.006 -0.182,0.023 -0.366,0.026 -0.549,0.043 -0.21,0.019 -0.414,0.029 -0.625,0.04 -0.177,0.01 -0.349,0.04 -0.526,0.049 -0.217,0.01 -0.439,0.007 -0.656,0.022 -0.15,0.01 -0.286,0.027 -0.438,0.027 -0.235,-0.001 -0.465,0.038 -0.7,0.034 -0.175,-0.003 -0.35,-0.011 -0.525,-0.015 -0.239,-0.007 -0.478,-0.013 -0.717,-0.019 -0.059,-0.002 -0.131,-0.011 -0.189,-0.005 -0.076,0.006 -0.069,0.001 -0.072,0.061 -0.007,0.107 -0.033,0.199 -0.06,0.301 -0.006,0.023 -0.025,0.062 -0.014,0.087 -0.023,0.001 -0.046,0.002 -0.067,0.003 h 0.068 c 0.031,0.056 0.166,0.025 0.222,0.031 0.084,0.007 0.161,0.051 0.243,0.066 0.146,0.027 0.273,-0.013 0.401,0.086 0.125,0.096 0.207,0.212 0.343,0.281 0.098,0.05 0.212,0.046 0.317,0.076 0.046,0.013 0.072,0.051 0.131,0.036 0.073,-0.02 0.114,-0.123 0.208,-0.143 0.096,-0.02 0.078,-0.01 0.146,-0.049 0.093,-0.051 0.192,-0.074 0.295,-0.092 0.053,-0.009 0.105,-0.01 0.16,-0.008 0.089,0.003 0.114,0.044 0.198,0.067 0.131,0.036 0.235,-0.096 0.364,-0.104 0.151,-0.008 0.301,-0.001 0.446,-0.018 0.009,-0.001 0.014,-0.001 0.021,-0.001 0.019,0.002 0.038,0.004 0.057,0.005 0.018,0.01 0.033,0.027 0.062,0.058 0.042,0.046 0.071,0.067 0.129,0.101 0.094,0.055 0.159,0.128 0.242,0.198 0.072,0.06 0.194,0.195 0.288,0.193 0.002,0 0.102,-0.034 0.086,-0.032 0.061,-0.008 0.125,0.004 0.187,-0.006 0.175,-0.029 0.327,-0.034 0.508,-0.012 0.07,0.009 0.139,0.027 0.209,0.039 0.079,0.012 0.163,0.005 0.241,0.019 0.121,0.022 0.231,0.099 0.338,0.155 0.034,0.018 0.081,0.054 0.12,0.055 0.03,0 0.07,-0.03 0.103,-0.035 0.041,-0.005 0.091,0.015 0.131,0.005 0.084,-0.019 0.154,-0.082 0.241,-0.103 0.129,-0.032 0.172,-0.057 0.28,-0.125 0.132,-0.084 0.231,-0.036 0.367,-0.058 0.125,-0.02 0.2,-0.126 0.304,-0.182 0.048,-0.025 0.075,-0.033 0.112,-0.073 0.028,-0.03 0.02,-0.07 0.061,-0.096 0.049,-0.032 0.129,-0.011 0.186,-0.021 0.167,-0.03 0.365,-0.117 0.536,-0.058 0.052,0.018 0.071,0.056 0.124,0.067 0.051,0.01 0.129,0.001 0.181,-0.001 0.127,-0.006 0.245,-0.037 0.377,-0.037 0.113,0.001 0.331,-0.036 0.428,0.032 0.064,0.045 0.084,0.143 0.129,0.206 0.031,0.044 0.097,0.137 0.151,0.157 0.045,0.018 0.105,-0.006 0.154,0.007 0.159,0.043 0.318,0.18 0.468,0.251 0.096,0.045 0.189,0.065 0.29,0.092 0.096,0.025 0.164,0.101 0.255,0.123 0.029,0.008 0.059,-0.008 0.091,0.001 0.046,0.013 0.083,0.051 0.118,0.083 0.087,0.082 0.073,0.03 0.166,-0.012 0.093,-0.042 0.181,-0.056 0.272,-0.119 0.094,-0.065 0.176,-0.155 0.282,-0.202 0.148,-0.067 0.227,-0.201 0.399,-0.249 0.133,-0.038 0.275,-0.067 0.414,-0.043 0.064,0.011 0.142,0.017 0.203,0.031 0.048,0.011 0.048,0.044 0.106,0.041 0.08,-0.004 0.17,-0.079 0.248,-0.102 0.13,-0.037 0.268,-0.051 0.397,-0.09 0.063,-0.018 0.123,-0.064 0.184,-0.081 0.07,-0.02 0.053,-0.01 0.124,0.032 0.105,0.061 0.23,0.1 0.343,0.147 0.111,0.047 0.215,0.132 0.333,0.122 C -3.995,0.939 -3.92,0.899 -3.856,0.869 -3.729,0.81 -3.679,0.69 -3.533,0.661 -3.35,0.623 -3.155,0.65 -2.982,0.564 -2.9,0.523 -2.911,0.458 -2.841,0.407 c 0.008,-0.006 0.016,-0.008 0.024,-0.012 0.039,0.001 0.078,0 0.116,0.001 0.011,0.004 0.022,0.008 0.032,0.013 0.064,0.028 0.106,0.062 0.175,0.073 0.143,0.023 0.29,0.038 0.435,0.062 0.1,0.017 0.215,0.068 0.317,0.061 0.019,-0.002 0.041,-0.018 0.059,-0.017 0.059,0.004 0.077,0.052 0.131,0.069 0.058,0.019 0.093,-0.02 0.149,-0.032 0.091,-0.02 0.19,0.02 0.282,-0.004 0.096,-0.025 0.196,-0.08 0.286,-0.121 0.072,-0.033 0.152,-0.057 0.219,-0.099 0.025,-0.015 0.046,-0.032 0.073,-0.043 0.074,-0.033 0.146,-0.044 0.198,-0.114 0.031,-0.042 0.052,-0.072 0.1,-0.087 0.008,0.003 0.017,0.002 0.025,-0.002 0.012,-0.01 0.024,-0.02 0.036,-0.03 0.045,-0.017 0.057,0.003 0.093,-0.033 0.023,-0.022 0.043,-0.03 0.07,-0.039 C 0.015,0.04 0.022,0.038 0,0 m -0.922,-3.271 c -0.082,-0.009 -0.164,0 -0.246,-0.002 -0.085,-0.002 -0.159,-0.035 -0.242,-0.051 -0.201,-0.041 -0.409,-0.019 -0.613,-0.047 -0.256,-0.036 -0.502,0 -0.758,-0.019 -0.312,-0.022 -0.621,0.044 -0.932,0.062 -0.173,0.01 -0.349,0.012 -0.523,0.003 -0.317,-0.018 -0.625,-0.094 -0.943,-0.093 -0.224,0.001 -0.456,0.009 -0.675,0.059 -0.101,0.023 -0.144,0.064 -0.2,0.147 -0.068,0.101 -0.101,0.133 -0.231,0.132 -0.045,0 -0.092,-10e-4 -0.137,-0.003 0.031,-0.002 0.057,0.007 0.087,0.012 0.064,0.011 0.129,0.012 0.193,0.018 0.183,0.017 0.361,0.013 0.545,0.019 0.172,0.005 0.379,0.013 0.536,0.095 0.103,0.054 0.208,0.076 0.324,0.102 0.325,0.071 0.643,0.092 0.975,0.093 0.291,0.002 0.579,-0.031 0.853,-0.136 0.103,-0.039 0.192,-0.08 0.305,-0.084 0.123,-0.003 0.246,10e-4 0.369,10e-4 0.299,10e-4 0.599,0 0.899,0 -0.005,0.073 0.081,0.083 0.167,0.049 0.069,-0.027 0.136,-0.042 0.208,-0.061 0.046,-0.012 0.089,-0.032 0.135,-0.047 0.082,-0.027 0.224,-0.019 0.286,-0.084 -0.006,-0.1 -0.319,-0.159 -0.382,-0.165 m -2.101,-1.563 c -0.038,-0.074 -0.17,-0.1 -0.241,-0.1 -0.109,0 -0.201,-0.002 -0.309,-0.027 -0.094,-0.022 -0.176,-0.045 -0.271,-0.044 -0.039,0 -0.075,0.004 -0.113,0 -0.15,-0.011 -0.293,-0.063 -0.445,-0.07 -0.069,-0.003 -0.139,0.006 -0.207,-0.002 -0.108,-0.013 -0.213,-0.046 -0.319,-0.071 -0.219,-0.051 -0.436,-0.077 -0.66,-0.091 -0.118,-0.008 -0.239,-0.011 -0.357,-0.002 -0.109,0.009 -0.216,0.04 -0.324,0.057 -0.373,0.058 -0.753,0.059 -1.127,0.107 -0.119,0.015 -0.244,0.028 -0.35,0.087 -0.052,0.028 -0.095,0.069 -0.156,0.08 -0.039,0.007 -0.163,-0.021 -0.182,0.02 0.058,0.035 0.134,0.028 0.194,0.059 0.093,0.047 0.171,0.108 0.269,0.151 0.176,0.078 0.402,0.036 0.593,0.037 0.515,0 1.028,-0.025 1.543,-0.025 0.362,0 0.723,-10e-4 1.085,0.001 0.013,0 0.024,-0.002 0.036,-0.002 0.006,0.013 0.04,0.029 0.074,0.036 0.104,0.024 0.213,0.013 0.32,0.014 0.195,0 0.392,0.016 0.58,-0.033 0.086,-0.023 0.455,-0.01 0.367,-0.182 m -1.463,-2.473 c -0.19,0.011 -0.372,-0.044 -0.561,-0.049 -0.109,-0.003 -0.213,-0.01 -0.32,-0.025 -0.15,-0.02 -0.285,-0.02 -0.434,-0.005 -0.203,0.02 -0.38,-0.024 -0.579,-0.052 -0.271,-0.039 -0.548,-0.087 -0.821,-0.089 -0.161,-0.002 -0.334,0.013 -0.493,0.037 -0.265,0.038 -0.523,0.07 -0.792,0.081 -0.792,0.034 -1.588,0.046 -2.38,0.028 0.116,0.014 0.224,0.036 0.337,0.069 0.252,0.072 0.497,0.177 0.75,0.242 0.086,0.015 0.171,0.035 0.256,0.057 0.054,0.023 0.11,0.038 0.169,0.044 0.057,0.003 0.11,-0.009 0.169,-0.002 0.207,0.026 0.385,0.133 0.601,0.119 0.098,-0.012 0.194,-0.03 0.289,-0.055 0.148,-0.03 0.297,-0.045 0.449,-0.044 0.824,-0.017 1.652,0.003 2.476,0.003 -0.197,0.096 -0.083,0.096 0.032,0.096 0.098,0.001 0.201,0.011 0.297,-0.013 0.079,-0.021 0.132,-0.076 0.206,-0.102 0.061,-0.022 0.139,-0.021 0.203,-0.027 0.098,-0.01 0.192,-0.036 0.283,-0.071 0.128,-0.048 0.232,-0.128 0.346,-0.201 -0.133,-0.111 -0.33,-0.049 -0.483,-0.041 M -7.651,-8.583 C -7.73,-8.622 -7.82,-8.647 -7.903,-8.678 -8.038,-8.728 -8.162,-8.715 -8.301,-8.73 -8.46,-8.748 -8.609,-8.754 -8.768,-8.737 c -0.145,0.016 -0.292,0.008 -0.437,0.031 -0.168,0.025 -0.321,-0.052 -0.482,-0.092 -0.233,-0.058 -0.451,-0.07 -0.689,-0.072 -0.206,-0.003 -0.379,0.034 -0.573,0.101 -0.052,0.018 -0.099,0.02 -0.154,0.016 -0.139,-0.008 -0.273,-0.021 -0.413,-0.021 -0.277,0 -0.559,-0.009 -0.834,0.03 -0.209,0.029 -0.422,0.074 -0.629,0.114 -0.1,0.019 -0.198,0.043 -0.297,0.066 -0.087,0.021 -0.147,0.024 -0.191,0.108 -0.044,0.083 -0.042,0.188 -0.047,0.28 0.361,0.085 0.737,0.08 1.078,-0.069 0.302,-0.132 0.614,-0.152 0.939,-0.143 0.258,0.006 0.505,0.052 0.76,0.085 0.378,0.049 0.768,0.035 1.148,0.035 0.304,-10e-4 0.609,0.005 0.913,0.001 0.28,-0.003 0.554,-0.045 0.834,-0.05 -0.07,0.031 0.014,0.038 0.091,0.008 0.049,-0.019 0.087,-0.059 0.137,-0.077 0.034,-0.013 0.073,-0.011 0.086,-0.05 0.021,-0.065 -0.08,-0.126 -0.123,-0.147 m -1.371,7.277 c 0.218,0 0.437,0.004 0.655,0.001 0.217,-0.002 0.423,-0.038 0.638,-0.06 0.193,-0.02 0.398,0.013 0.586,-0.039 0.135,-0.037 0.257,-0.108 0.396,-0.135 0.107,-0.009 0.215,-0.012 0.322,-0.011 0.102,-0.007 0.201,-0.029 0.297,-0.065 0.183,-0.04 0.356,-0.031 0.54,0 0.137,0.032 0.275,0.054 0.415,0.065 0.08,-0.004 0.159,0 0.238,0.011 0.18,0.02 0.351,0.08 0.534,0.086 0.141,0.005 0.279,-0.022 0.42,-0.025 0.269,-0.004 0.54,0.07 0.807,0.03 0.195,-0.029 0.375,-0.042 0.574,-0.033 0.175,0.008 0.343,0.012 0.516,-0.017 0.094,-0.023 0.188,-0.037 0.284,-0.042 0.101,0.012 0.201,0.031 0.299,0.056 0.13,0.02 0.207,0 0.331,-0.011 0.14,-0.013 0.275,0.04 0.414,0.045 0.046,-0.103 -0.292,-0.17 -0.352,-0.183 -0.266,-0.057 -0.512,-0.172 -0.772,-0.248 -0.292,-0.084 -0.599,-0.08 -0.899,-0.075 -0.225,0.005 -0.448,0.011 -0.664,0.082 -0.555,0.182 -1.159,0.11 -1.72,-0.006 -0.571,-0.119 -1.158,-0.143 -1.738,-0.094 -0.246,0.021 -0.491,0.082 -0.737,0.089 -0.232,0.008 -0.463,0.028 -0.692,0.073 -0.099,0.02 -0.196,0.049 -0.296,0.069 -0.144,0.03 -0.293,0.031 -0.439,0.043 -0.293,0.024 -0.579,0.076 -0.868,0.126 -0.351,0.061 -0.74,0.043 -1.093,0.004 -0.19,-0.022 -0.372,-0.024 -0.563,-0.024 -0.115,0 -0.219,-10e-4 -0.331,0.024 -0.069,0.015 -0.133,0.023 -0.203,0.025 -0.033,10e-4 -0.186,-0.025 -0.217,0.022 0.015,0.022 0.035,0.057 0.057,0.073 0.043,0.033 0.118,0.028 0.169,0.037 0.087,0.014 0.173,0.036 0.259,0.059 0.177,0.046 0.363,0.078 0.547,0.074 0.142,-0.004 0.273,-0.042 0.418,-0.023 0.126,0.016 0.246,0.067 0.373,0.07 0.064,0.002 0.129,-0.007 0.193,-0.003 0.037,0.002 0.074,0.014 0.109,0.025 0.017,0.004 0.123,0.053 0.154,0.049 0.029,-0.004 0.045,-0.027 0.077,-0.029 0.002,-0.006 0.003,-0.013 -0.331,-0.067 0.435,-0.035 0.858,-0.049 1.293,-0.048 m -4.483,-3.87 c 0.101,0.112 0.259,0.08 0.392,0.08 0.042,0 0.082,0.001 0.121,0.003 -0.007,0.016 -0.014,0.034 -0.021,0.051 0.035,0 0.071,-0.001 0.105,-0.001 0.13,0.003 0.255,0.024 0.379,0.038 0.115,0.013 0.912,0.039 0.633,0.11 -0.079,0.02 -0.185,0.019 -0.259,0.037 -0.128,0.031 -0.233,0.081 -0.358,0.114 -0.071,0.018 -0.074,0.016 -0.178,0.016 -0.15,0 -0.244,0.023 -0.384,0.035 -0.018,10e-4 -0.042,0.003 -0.068,0.004 -0.013,0.062 -0.022,0.125 -0.027,0.188 -0.051,0.011 -0.102,0.025 -0.152,0.032 -0.058,0.009 -0.087,0.06 -0.139,0.076 -0.026,0.008 -0.05,-0.002 -0.072,0.016 -0.059,0.046 -0.013,0.101 0.037,0.117 0.054,0.016 0.106,0.021 0.156,0.054 0.038,0.026 0.075,0.057 0.115,0.085 0.018,0.013 0.033,0.029 0.048,0.045 0,0.004 0,0.009 0,0.013 0.007,0.003 0.013,0.005 0.019,0.008 0.058,0.029 0.106,0.05 0.167,0.069 0.088,0.026 0.162,0.053 0.253,0.064 0.068,0.009 0.089,0.039 0.116,0.1 -0.03,0.002 -0.042,0.025 -0.068,0.033 -0.03,0.009 -0.044,0.009 -0.073,0.025 -0.053,0.03 -0.109,0.037 -0.168,0.052 -0.05,0.013 -0.126,0.049 -0.169,0.078 -0.041,0.028 -0.059,0.042 -0.091,0.049 -0.015,0.01 -0.031,0.02 -0.049,0.028 -0.028,0.014 -0.057,0.02 -0.077,0.047 -0.124,0.164 0.122,0.253 0.211,0.304 0.047,0.028 0.083,0.071 0.132,0.094 0.079,0.084 0.179,0.15 0.285,0.216 0.041,0.026 0.084,0.046 0.127,0.068 0.022,0.004 0.045,0.009 0.068,0.012 0.039,0.006 0.083,0.007 0.123,0.012 0.063,0.009 0.124,0.029 0.188,0.033 0.09,0.006 0.187,-0.005 0.23,0.057 0.027,0.039 0.002,0.044 -0.058,0.06 -0.013,0.003 -0.028,0.004 -0.041,0.007 0.052,0.013 0.104,0.025 0.158,0.036 0.174,0.037 0.343,0.046 0.52,0.047 0.144,10e-4 0.285,0.003 0.418,-0.063 0.006,-0.004 0.012,-0.008 0.018,-0.011 -0.058,-0.013 -0.116,-0.025 -0.174,-0.033 -0.032,-0.005 -0.18,-0.017 -0.187,-0.071 0.103,-0.037 0.245,0.045 0.331,-0.034 0.002,-0.013 0.005,-0.025 0.008,-0.037 0.018,-0.011 0.039,-0.019 0.06,-0.024 0.069,-0.023 0.156,-0.008 0.218,-0.035 0.044,-0.019 0.031,-0.069 0.053,-0.093 0.034,-0.039 0.099,-0.022 0.151,-0.022 0.014,0 0.029,0 0.043,0 0.012,-0.009 0.024,-0.018 0.036,-0.027 0.037,0.002 0.073,0.003 0.108,0.003 0.055,0 0.161,0.022 0.213,-0.004 0.02,-0.01 0.019,-0.039 0.05,-0.046 0.029,-0.007 0.067,0.023 0.076,-0.02 0.007,-0.032 -0.042,-0.069 -0.063,-0.084 -0.02,-0.015 -0.061,-0.022 -0.095,-0.032 0.135,-0.084 0.265,-0.178 0.37,-0.295 0.037,-0.015 0.074,-0.03 0.11,-0.045 0.106,-0.044 0.208,-0.036 0.319,-0.054 0.032,-0.051 -0.153,-0.087 -0.288,-0.106 0.031,-0.057 0.058,-0.117 0.085,-0.176 -0.033,-0.012 -0.066,-0.024 -0.1,-0.028 -0.09,-0.011 -0.187,0.008 -0.229,-0.1 -0.027,-0.068 -0.003,-0.076 0.057,-0.103 0.096,-0.043 0.195,-0.055 0.298,-0.066 0.035,-0.004 0.069,-0.005 0.103,-0.007 0.009,-0.042 0.012,-0.082 0.012,-0.125 0.067,-0.026 0.128,-0.029 0.21,-0.029 0.047,0 0.119,-10e-4 0.12,-0.067 -0.061,-0.021 -0.115,-0.06 -0.172,-0.095 -0.035,-0.003 -0.068,-0.007 -0.091,-0.006 -0.115,0 -0.213,-0.012 -0.324,-0.037 -0.032,-0.008 -0.065,-0.007 -0.096,-0.014 -0.015,-0.003 -0.018,-0.018 -0.035,-0.023 -0.029,-0.007 -0.069,0.005 -0.099,0.002 -0.033,-0.002 -0.039,-0.011 -0.069,-0.019 -0.039,-0.01 -0.077,10e-4 -0.116,-0.009 -0.039,-0.01 -0.073,-0.042 -0.112,-0.055 -0.079,-0.026 -0.157,-0.009 -0.237,-0.038 -0.092,-0.033 -0.149,-0.019 -0.239,-0.004 -0.055,0.009 -0.063,-0.003 -0.109,-0.038 -0.015,-0.011 -0.026,-0.023 -0.041,-0.028 0.181,0.008 0.36,0.038 0.539,0.004 0.173,-0.032 0.342,-0.03 0.518,-0.03 0.049,0 0.097,0.001 0.146,0.001 0.028,-0.001 0.056,-0.003 0.083,-0.002 0.027,0.002 0.056,0.009 0.086,0.016 -0.007,-0.025 -0.012,-0.049 -0.022,-0.075 0.083,-0.014 0.166,-0.007 0.242,-0.047 0.042,-0.021 0.109,-0.048 0.143,-0.079 -0.035,-0.023 -0.089,-0.029 -0.127,-0.04 -0.096,-0.028 -0.192,-0.056 -0.287,-0.088 0.005,-0.084 0.382,0.044 0.442,0.025 -0.038,-0.062 -0.073,-0.094 -0.14,-0.118 -0.148,-0.051 -0.307,-0.098 -0.45,-0.16 -0.021,-0.009 -0.041,-0.022 -0.061,-0.037 -0.022,-0.04 -0.048,-0.079 -0.075,-0.118 0.038,0.003 0.074,0.006 0.099,0.007 0.131,0.009 0.281,0.038 0.413,0.016 0.052,-0.008 0.112,-0.025 0.154,-0.057 0.026,-0.02 0.043,-0.044 0.073,-0.058 0.03,-0.014 0.085,-0.037 0.113,-0.044 0.102,-0.028 0.195,0.047 0.295,0.039 -0.041,-0.028 -0.125,-0.033 -0.168,-0.048 -0.093,-0.031 -0.187,-0.066 -0.277,-0.104 -0.084,-0.035 -0.1,-0.058 -0.185,-0.059 -0.097,-0.001 -0.187,-0.033 -0.28,-0.055 -0.029,-0.005 -0.057,-0.01 -0.086,-0.014 -0.017,-0.002 -0.033,-0.006 -0.05,-0.006 -0.038,-0.001 -0.09,-0.009 -0.127,0 -0.022,0.005 -0.041,0.023 -0.061,0.027 -0.053,0.009 -0.104,-0.015 -0.152,-0.045 -0.006,0 -0.013,0 -0.019,0 -0.119,10e-4 -0.237,0.012 -0.356,0.017 -0.031,0.001 -0.063,-0.003 -0.093,0.009 0,0.007 -0.001,0.015 -0.001,0.022 -0.065,0.013 -0.107,-0.002 -0.16,-0.015 -0.083,-0.02 -0.207,-0.048 -0.279,-0.1 -0.068,-0.05 0.007,-0.087 0.052,-0.1 0.054,-0.017 0.102,-0.024 0.151,-0.06 0.034,-0.024 0.063,-0.056 0.093,-0.086 -0.053,-0.032 -0.098,-0.06 -0.168,-0.063 -0.172,-0.008 -0.345,0.009 -0.517,0.003 -0.009,0 -0.018,-0.002 -0.027,-0.002 -0.04,-0.022 -0.1,-0.023 -0.152,-0.018 -0.027,-0.005 -0.054,-0.009 -0.081,-0.014 -0.033,-0.007 -0.052,-0.012 -0.085,-0.004 -0.061,0.014 -0.125,0.042 -0.186,0.068 -0.046,0.005 -0.091,0.009 -0.136,0.009 -0.098,0.002 -0.18,0.007 -0.273,0.044 -0.121,0.047 -0.25,0.047 -0.342,0.15 -0.006,0.007 -0.01,0.014 -0.016,0.021 0.045,-0.019 0.087,0 0.138,0.003 0.107,0.007 0.204,-0.013 0.311,0.018 0.108,0.032 0.197,0.041 0.309,0.031 0.021,-0.001 0.056,-0.011 0.076,-0.005 0.051,0.015 0.087,0.1 0.133,0.133 0.045,0.032 0.101,0.064 0.151,0.084 0.031,0.012 0.19,0.03 0.108,0.08 -0.037,0.022 -0.149,0.006 -0.194,0.008 -0.165,0.007 -0.308,0.09 -0.47,0.105 -0.2,0.019 -0.379,-0.034 -0.576,-0.064 -0.09,-0.015 -0.182,-0.014 -0.273,-0.017 -0.015,0.018 -0.03,0.034 -0.044,0.053 -0.021,0.027 -0.039,0.042 -0.072,0.052 -0.044,0.014 -0.098,0.011 -0.143,0.01 -0.022,-0.001 -0.294,-0.005 -0.29,0.004 0.013,0.027 0.117,0.044 0.148,0.053 -0.025,0.043 -0.144,0.07 -0.191,0.084 -0.044,0.013 -0.113,0 -0.148,0.039 -0.057,0.065 0.06,0.137 0.102,0.183 m -0.222,3.08 c -0.081,-0.009 -0.162,-0.055 -0.237,-0.083 -0.103,-0.037 -0.167,-0.037 -0.274,-0.039 -0.097,-10e-4 -0.189,-0.021 -0.284,-0.036 -0.127,-0.021 -0.241,-0.031 -0.347,0.051 -0.08,0.062 -0.149,0.1 -0.249,0.11 -0.144,0.015 -0.303,-0.014 -0.448,-0.008 -0.214,0.008 -0.426,0.051 -0.64,0.052 -0.28,0.003 -0.556,0.03 -0.836,0.042 -0.255,0.01 -0.511,-0.013 -0.765,0 -0.038,0.002 -0.213,0.007 -0.198,0.103 0.006,0.041 0.051,0.054 0.082,0.071 0.09,0.05 0.177,0.106 0.27,0.15 0.095,0.046 0.15,0.04 0.249,0.041 0.213,0.002 0.427,-0.02 0.633,-0.073 0.311,-0.08 0.632,-0.049 0.949,-0.024 0.445,0.037 0.891,0.022 1.337,0.047 -0.054,0.017 -0.061,0.017 0.04,0.002 -0.013,-0.001 -0.027,-0.001 -0.04,-0.002 0.027,-0.009 0.065,-0.022 0.109,-0.041 0.029,-0.012 0.058,-0.038 0.086,-0.049 0.04,-0.016 0.095,-0.005 0.136,-0.004 0.136,0 0.274,0.012 0.406,-0.024 0.101,-0.027 0.342,-0.013 0.285,-0.177 -0.022,-0.064 -0.097,-0.078 -0.155,-0.097 -0.038,-0.013 -0.072,-0.008 -0.109,-0.012 m -0.757,-2.391 c -0.1,-0.008 -0.194,-0.014 -0.285,-0.058 -0.028,-0.013 -0.054,-0.031 -0.082,-0.044 -0.157,-0.075 -0.33,-0.059 -0.497,-0.037 -0.135,0.018 -0.268,0.036 -0.405,0.026 -0.119,-0.008 -0.231,-0.025 -0.349,-0.006 -0.234,0.037 -0.459,0.034 -0.696,0.035 -0.113,0 -0.229,-0.01 -0.341,-0.002 -0.048,0.004 -0.092,0.024 -0.14,0.027 -0.03,0.001 -0.064,-0.011 -0.092,0 0.075,0.093 0.219,0.126 0.325,0.162 0.079,0.028 0.165,0.075 0.248,0.092 0.053,0.01 0.091,-0.012 0.145,-0.017 0.141,-0.011 0.29,0.002 0.432,0.002 l -0.384,-0.048 c 0.282,0 0.573,-0.021 0.855,0.008 0.255,0.027 0.505,0.087 0.76,0.111 0.236,0.022 0.45,0.026 0.684,-0.004 0.006,-0.051 0.045,-0.065 0.054,-0.114 0.029,-0.146 -0.139,-0.125 -0.232,-0.133 m 1.391,9.596 c 0.093,0.228 0.18,0.466 0.343,0.656 0.146,0.169 0.297,0.321 0.469,0.46 0.122,0.099 0.261,0.201 0.406,0.26 0.078,0.032 0.166,0.076 0.248,0.094 0.033,0.008 0.052,0.003 0.085,-0.003 0.086,-0.017 0.171,-0.032 0.26,-0.035 0.172,-0.005 0.345,0.011 0.517,0.004 0.088,-0.004 0.135,-0.046 0.208,-0.088 0.075,-0.044 0.158,-0.075 0.231,-0.121 0.091,-0.056 0.169,-0.135 0.249,-0.205 0.177,-0.155 0.362,-0.366 0.458,-0.581 0.059,-0.134 0.116,-0.273 0.173,-0.408 0.068,-0.159 0.075,-0.289 0.074,-0.463 0,-0.144 0.009,-0.244 -0.059,-0.375 -0.064,-0.126 -0.115,-0.26 -0.185,-0.383 -0.143,-0.254 -0.401,-0.417 -0.645,-0.558 -0.243,-0.141 -0.44,-0.351 -0.695,-0.478 -0.133,-0.066 -0.274,-0.064 -0.418,-0.063 -0.177,0 -0.346,0.01 -0.52,0.046 -0.281,0.059 -0.55,0.133 -0.795,0.286 -0.196,0.122 -0.378,0.244 -0.425,0.483 -0.057,0.289 -0.065,0.581 -0.065,0.876 0,0.21 0.005,0.398 0.086,0.596 M 1.376,-2.358 c -0.035,0.169 -0.112,0.317 -0.08,0.511 0.032,0.19 -0.09,0.374 -0.204,0.541 V -1.419 C 1.079,-1.42 1.066,-1.42 1.053,-1.421 c -0.006,0.09 -0.029,0.184 -0.014,0.271 0.049,0.287 0.115,0.571 0.166,0.857 0.014,0.081 0.011,0.17 -0.008,0.25 C 1.133,0.22 1.062,0.482 0.988,0.743 0.927,0.96 0.866,1.177 0.791,1.389 0.747,1.516 0.68,1.635 0.617,1.755 0.591,1.803 0.546,1.841 0.513,1.886 0.498,1.906 0.489,1.929 0.481,1.953 0.432,2.087 0.541,2.226 0.465,2.362 0.44,2.408 0.426,2.463 0.419,2.515 0.399,2.665 0.387,2.816 0.369,2.966 0.366,2.992 0.359,3.02 0.345,3.04 0.262,3.155 0.176,3.267 0.095,3.383 0.08,3.404 0.088,3.439 0.085,3.478 c -0.188,0.169 -0.273,0.433 -0.47,0.624 -0.177,0.171 -0.29,0.41 -0.432,0.618 -0.093,0.137 -0.191,0.272 -0.281,0.411 -0.08,0.121 -0.209,0.202 -0.221,0.378 -0.007,0.095 -0.11,0.195 -0.19,0.27 C -1.671,5.93 -1.847,6.065 -2.017,6.207 -2.02,6.181 -2.023,6.152 -2.027,6.123 -2.037,6.118 -2.048,6.114 -2.058,6.109 -2.126,6.209 -2.192,6.309 -2.26,6.408 -2.305,6.472 -2.352,6.534 -2.398,6.597 -2.432,6.644 -2.467,6.69 -2.5,6.738 -2.554,6.819 -2.606,6.901 -2.661,6.981 -2.68,7.009 -2.707,7.031 -2.727,7.057 -2.808,7.165 -2.884,7.276 -2.972,7.378 -2.994,7.404 -3.049,7.406 -3.09,7.411 -3.15,7.419 -3.214,7.41 -3.27,7.426 c -0.238,0.07 -0.477,0.139 -0.71,0.223 -0.095,0.034 -0.188,0.094 -0.26,0.164 -0.222,0.214 -0.499,0.359 -0.708,0.595 -0.11,0.125 -0.288,0.193 -0.442,0.274 -0.172,0.09 -0.35,0.167 -0.527,0.246 -0.096,0.043 -0.193,0.1 -0.294,0.114 -0.2,0.029 -0.403,0.029 -0.603,0.048 -0.232,0.022 -0.472,0.004 -0.687,0.122 -0.23,0.127 -0.481,0.103 -0.728,0.107 -0.018,0 -0.04,-0.003 -0.052,-0.014 C -8.392,9.201 -8.518,9.245 -8.64,9.268 -8.659,9.271 -8.669,9.317 -8.69,9.354 -8.746,9.362 -8.818,9.379 -8.891,9.381 -9.045,9.383 -9.2,9.377 -9.354,9.375 -9.515,9.372 -9.676,9.359 -9.835,9.372 c -0.15,0.012 -0.298,0.051 -0.447,0.079 -0.002,0 -0.004,0.008 -0.006,0.009 -0.061,0.005 -0.128,0.03 -0.181,0.012 -0.139,-0.047 -0.278,-0.102 -0.404,-0.176 -0.066,-0.038 -0.172,-0.059 -0.17,-0.175 0,-0.016 -0.027,-0.038 -0.047,-0.049 -0.076,-0.043 -0.155,-0.083 -0.233,-0.124 0.001,0.013 0.001,0.025 0.002,0.037 -0.023,0.005 -0.047,0.018 -0.067,0.014 -0.113,-0.024 -0.225,-0.056 -0.339,-0.076 -0.045,-0.008 -0.096,0.019 -0.142,0.012 -0.177,-0.03 -0.353,-0.067 -0.529,-0.102 -0.216,-0.042 -0.433,-0.083 -0.649,-0.125 -0.03,-0.006 -0.061,-0.028 -0.089,-0.024 -0.199,0.029 -0.368,-0.079 -0.552,-0.117 -0.032,-0.007 -0.058,-0.049 -0.086,-0.075 0.005,-0.005 0.011,-0.01 0.017,-0.015 l 0.168,0.054 c 0.004,-0.011 0.008,-0.022 0.012,-0.033 -0.117,-0.079 -0.234,-0.158 -0.351,-0.237 -0.005,0.016 -0.011,0.033 -0.016,0.049 -0.042,-0.003 -0.09,0.007 -0.123,-0.011 -0.101,-0.057 -0.196,-0.125 -0.293,-0.189 -0.158,-0.105 -0.308,-0.222 -0.475,-0.31 -0.119,-0.064 -0.268,-0.071 -0.39,-0.132 -0.287,-0.144 -0.573,-0.293 -0.76,-0.573 -0.069,-0.102 -0.148,-0.197 -0.238,-0.316 -0.021,0.042 -0.032,0.064 -0.039,0.08 -0.217,-0.183 -0.296,-0.438 -0.431,-0.656 -0.123,-0.199 -0.25,-0.402 -0.412,-0.567 -0.198,-0.2 -0.438,-0.357 -0.652,-0.542 -0.212,-0.183 -0.251,-0.45 -0.316,-0.702 -0.026,-0.102 -0.049,-0.205 -0.074,-0.308 -0.012,0.003 -0.024,0.005 -0.036,0.008 0.003,0.031 0.007,0.061 0.01,0.092 -0.051,-0.05 -0.07,-0.112 -0.103,-0.165 -0.071,-0.113 -0.148,-0.222 -0.224,-0.331 -0.019,-0.029 -0.048,-0.051 -0.067,-0.079 -0.12,-0.177 -0.238,-0.354 -0.354,-0.533 -0.02,-0.031 -0.028,-0.072 -0.037,-0.109 -0.047,-0.2 -0.087,-0.402 -0.141,-0.6 -0.05,-0.183 -0.115,-0.361 -0.174,-0.541 l -0.029,0.008 c -0.005,0.018 -0.011,0.036 -0.015,0.046 -0.021,-0.113 -0.052,-0.229 -0.063,-0.347 -0.015,-0.15 -0.009,-0.303 -0.022,-0.453 -0.014,-0.155 0.017,-0.316 -0.067,-0.463 -0.047,-0.083 -0.088,-0.176 -0.103,-0.269 -0.068,-0.405 -0.119,-0.81 -0.33,-1.178 -0.153,-0.264 -0.164,-0.565 -0.112,-0.856 0.086,-0.477 0.17,-0.956 0.358,-1.407 0.012,-0.026 0.041,-0.044 0.058,-0.07 0.063,-0.095 0.124,-0.192 0.186,-0.289 -0.007,-0.005 -0.014,-0.01 -0.021,-0.015 -0.023,0.01 -0.046,0.02 -0.068,0.031 0.104,-0.138 0.123,-0.31 0.075,-0.439 -0.055,-0.145 -0.05,-0.256 0.013,-0.381 0.006,0.011 0.013,0.022 0.034,0.06 0.01,-0.11 0.018,-0.194 0.025,-0.277 0.009,-0.089 0.01,-0.179 0.025,-0.267 0.086,-0.495 0.284,-0.954 0.457,-1.422 0.173,-0.47 0.487,-0.857 0.737,-1.281 0.132,-0.223 0.313,-0.427 0.533,-0.588 0.247,-0.181 0.497,-0.356 0.67,-0.629 0.121,-0.193 0.311,-0.345 0.48,-0.504 0.27,-0.253 0.542,-0.502 0.823,-0.741 0.437,-0.371 0.863,-0.764 1.458,-0.872 0.04,-0.007 0.082,-0.001 0.122,-0.008 0.14,-0.024 0.288,-0.03 0.417,-0.084 0.13,-0.055 0.241,-0.158 0.362,-0.238 0.02,-0.013 0.05,-0.011 0.075,-0.015 0.04,-0.007 0.088,-10e-4 0.117,-0.022 0.235,-0.168 0.481,-0.31 0.764,-0.386 0.202,-0.054 0.397,-0.131 0.594,-0.201 0.066,-0.024 0.126,-0.082 0.19,-0.084 0.243,-0.005 0.459,-0.115 0.691,-0.162 0.342,-0.07 0.68,-0.163 1.013,0.037 0.036,0.021 0.095,0.009 0.143,0.004 0.048,-0.004 0.097,-0.033 0.142,-0.028 0.449,0.055 0.896,0.116 1.344,0.173 0.226,0.029 0.452,0.054 0.677,0.082 0.179,0.023 0.358,0.042 0.535,0.074 0.223,0.039 0.443,0.091 0.664,0.137 0.012,0.002 0.024,-0.001 0.035,10e-4 0.104,0.017 0.221,0.009 0.309,0.056 0.266,0.139 0.522,0.298 0.781,0.451 0.079,0.046 0.146,0.136 0.255,0.055 0.01,-0.008 0.044,0.01 0.064,0.02 0.268,0.138 0.559,0.206 0.853,0.252 0.208,0.032 0.298,0.195 0.417,0.329 0.012,0.014 0.005,0.043 0.008,0.082 -0.042,-0.037 -0.072,-0.063 -0.102,-0.089 -0.008,0.005 -0.017,0.011 -0.026,0.016 0.031,0.053 0.052,0.119 0.096,0.156 0.184,0.154 0.364,0.311 0.545,0.466 0.268,0.229 0.475,0.528 0.798,0.697 0.123,0.065 0.217,0.185 0.326,0.278 0.022,0.019 0.052,0.029 0.08,0.039 0.247,0.094 0.483,0.2 0.601,0.465 0.1,0.227 0.201,0.454 0.318,0.673 0.057,0.106 0.142,0.203 0.23,0.286 0.354,0.337 0.731,0.651 0.957,1.101 0.078,0.155 0.184,0.296 0.275,0.446 0.028,0.046 0.052,0.095 0.071,0.145 0.079,0.215 0.166,0.428 0.231,0.646 0.062,0.203 0.103,0.413 0.147,0.621 0.033,0.154 0.047,0.313 0.087,0.466 0.054,0.205 0.159,0.404 0.179,0.611 0.019,0.213 0.064,0.415 0.112,0.62 0.02,0.084 0.066,0.174 0.05,0.251"
             style="fill:#110f0d;fill-opacity:1;fill-rule:nonzero;stroke:none"
             id="path499" />
        </g>
      </g>
    </g>
  </g>
</svg>
