<?xml version="1.0" encoding="UTF-8" standalone="no"?>
<!-- Created with Inkscape (http://www.inkscape.org/) -->

<svg
   width="23.869089"
   height="24"
   viewBox="0 0 6.3153632 6.35"
   version="1.1"
   id="svg4641"
   inkscape:version="1.2.1 (9c6d41e4, 2022-07-14)"
   sodipodi:docname="return-to-a-phantom-of-truth.svg"
   xmlns:inkscape="http://www.inkscape.org/namespaces/inkscape"
   xmlns:sodipodi="http://sodipodi.sourceforge.net/DTD/sodipodi-0.dtd"
   xmlns="http://www.w3.org/2000/svg"
   xmlns:svg="http://www.w3.org/2000/svg">
  <sodipodi:namedview
     id="namedview4643"
     pagecolor="#505050"
     bordercolor="#eeeeee"
     borderopacity="1"
     inkscape:showpageshadow="0"
     inkscape:pageopacity="0"
     inkscape:pagecheckerboard="0"
     inkscape:deskcolor="#505050"
     inkscape:document-units="mm"
     showgrid="false"
     inkscape:zoom="0.7046647"
     inkscape:cx="19.867605"
     inkscape:cy="91.532895"
     inkscape:window-width="1390"
     inkscape:window-height="941"
     inkscape:window-x="0"
     inkscape:window-y="25"
     inkscape:window-maximized="0"
     inkscape:current-layer="layer1" />
  <defs
     id="defs4638">
    <clipPath
       clipPathUnits="userSpaceOnUse"
       id="clipPath323">
      <path
         d="m 39.282,412.872 h 22.057 v 22.057 H 39.282 Z"
         id="path321" />
    </clipPath>
  </defs>
  <g
     inkscape:label="Layer 1"
     inkscape:groupmode="layer"
     id="layer1"
     transform="translate(-99.722218,-124.48619)">
    <g
       id="g317"
       transform="matrix(0.29480891,0,0,-0.29480891,88.047776,252.63092)">
      <g
         id="g319"
         clip-path="url(#clipPath323)">
        <g
           id="g325"
           transform="translate(43.5829,423.4453)">
          <path
             d="M 0,0 C 0.002,0.003 0.004,0.006 0.007,0.009 0.003,0.032 0,0.054 0,0.08 Z"
             style="fill:#110f0d;fill-opacity:1;fill-rule:nonzero;stroke:none"
             id="path327" />
        </g>
        <g
           id="g329"
           transform="translate(44.2959,423.4467)">
          <path
             d="m 0,0 c -0.007,0.035 0.01,0.067 -0.004,0.101 -0.09,0.006 -0.14,0.032 -0.232,0.031 -0.046,0 -0.094,-0.002 -0.14,0 -0.05,0.002 -0.071,0.015 -0.107,0.021 C -0.547,0.164 -0.649,0.201 -0.676,0.161 -0.69,0.141 -0.668,0.1 -0.672,0.078 -0.678,0.046 -0.688,0.033 -0.706,0.008 c 0.004,-0.034 0.012,-0.067 0.024,-0.103 0.022,-0.064 -0.014,-0.135 0.015,-0.197 0.105,-0.014 0.173,0.011 0.27,0.025 0.102,0.015 0.234,-0.004 0.34,-0.001 0.055,0.001 0.079,-0.012 0.102,0.025 0.014,0.022 0,0.082 -0.002,0.107 C 0.041,-0.087 0.009,-0.047 0,0"
             style="fill:#110f0d;fill-opacity:1;fill-rule:nonzero;stroke:none"
             id="path331" />
        </g>
        <g
           id="g333"
           transform="translate(56.3055,423.1786)">
          <path
             d="M 0,0 C 0.146,0.001 0.277,0.024 0.423,0.026 0.578,0.028 0.58,0.06 0.578,0.145 0.577,0.19 0.596,0.245 0.581,0.289 0.568,0.324 0.543,0.352 0.533,0.387 0.521,0.424 0.56,0.438 0.493,0.456 0.456,0.465 0.38,0.451 0.338,0.456 0.268,0.463 0.168,0.52 0.09,0.507 L -0.044,0.56 C -0.092,0.5 -0.088,0.452 -0.087,0.382 -0.085,0.287 -0.132,0.208 -0.132,0.112 -0.132,0.025 -0.155,-0.001 0,0"
             style="fill:#110f0d;fill-opacity:1;fill-rule:nonzero;stroke:none"
             id="path335" />
        </g>
        <g
           id="g337"
           transform="translate(53.1609,423.858)">
          <path
             d="m 0,0 c 0.052,-0.007 0.079,-0.022 0.123,-0.031 0.052,-0.011 0.128,0.001 0.182,0.001 0.089,0 0.225,-0.021 0.31,-0.001 0.092,0.022 0.056,0.107 0.064,0.163 0.002,0.018 0.005,0.011 0.01,0.024 0.003,0.01 0,0.021 0.002,0.031 0.004,0.02 0.009,0.038 0.009,0.059 -0.001,0.035 0.008,0.067 0.01,0.102 0.002,0.026 0,0.053 0,0.08 0,0.017 0.01,0.052 -0.011,0.063 C 0.683,0.476 0.604,0.486 0.578,0.486 0.501,0.486 0.416,0.477 0.34,0.492 0.287,0.503 0.23,0.504 0.175,0.504 0.137,0.503 0.089,0.501 0.059,0.479 0.005,0.439 0.029,0.343 0.029,0.292 0.029,0.238 0.033,0.183 0.03,0.129 0.028,0.085 -0.002,0.041 0,0"
             style="fill:#110f0d;fill-opacity:1;fill-rule:nonzero;stroke:none"
             id="path339" />
        </g>
        <g
           id="g341"
           transform="translate(49.7536,424.485)">
          <path
             d="m 0,0 c 0,-0.038 -0.021,-0.127 -0.002,-0.163 0.024,-0.049 0.198,-0.025 0.261,-0.025 0.114,0 0.227,0.001 0.341,0 0.061,-0.001 0.116,-0.014 0.144,0.038 0.017,0.032 0.002,0.088 0.002,0.122 C 0.744,0.071 0.713,0.164 0.713,0.265 L 0.681,0.319 C 0.576,0.319 0.44,0.299 0.339,0.318 0.296,0.326 0.273,0.341 0.228,0.346 0.176,0.352 0.117,0.345 0.065,0.345 -0.001,0.346 -0.019,0.357 -0.034,0.307 -0.05,0.252 -0.013,0.197 -0.003,0.145 0.007,0.098 0,0.048 0,0"
             style="fill:#110f0d;fill-opacity:1;fill-rule:nonzero;stroke:none"
             id="path343" />
        </g>
        <g
           id="g345"
           transform="translate(47.1601,423.908)">
          <path
             d="m 0,0 c -0.001,0.052 0.022,0.063 0.034,0.105 0.012,0.041 0.003,0.084 0,0.125 -0.001,0.017 0.003,0.029 0.007,0.045 0.005,0.022 0.002,0.045 0.002,0.067 0,0.023 0.006,0.053 -10e-4,0.075 -0.018,0.001 -0.026,0.007 -0.041,0.011 -0.02,0.004 -0.053,-0.001 -0.074,-0.001 -0.026,0 -0.047,0.005 -0.072,0.008 -0.027,0.004 -0.053,0.002 -0.081,0.008 -0.083,0.017 -0.17,0.02 -0.256,0.02 -0.016,0 -0.051,0.005 -0.067,-0.002 C -0.611,0.433 -0.577,0.347 -0.583,0.307 -0.589,0.264 -0.628,0.219 -0.619,0.175 c 0.007,-0.032 0.025,-0.052 0.035,-0.083 0.015,-0.044 0.028,-0.095 0.038,-0.141 0.118,-0.011 0.201,-0.058 0.319,-0.058 0.054,0.001 0.128,-0.011 0.18,-0.001 C 0.022,-0.094 0.001,-0.055 0,0"
             style="fill:#110f0d;fill-opacity:1;fill-rule:nonzero;stroke:none"
             id="path347" />
        </g>
        <g
           id="g349"
           transform="translate(58.5066,421.3295)">
          <path
             d="M 0,0 C -0.011,-0.134 -0.026,-0.269 -0.037,-0.403 -0.049,-0.548 -0.082,-0.7 -0.112,-0.84 c -0.042,-0.194 -0.082,-0.389 -0.134,-0.581 -0.095,-0.356 -0.25,-0.671 -0.492,-0.92 -0.232,-0.238 -0.456,-0.481 -0.723,-0.666 -0.259,-0.179 -0.504,-0.402 -0.756,-0.596 -0.201,-0.155 -0.409,-0.3 -0.63,-0.412 -0.295,-0.15 -0.591,-0.303 -0.906,-0.378 -0.211,-0.05 -0.424,-0.105 -0.636,-0.143 -0.385,-0.069 -0.775,-0.133 -1.162,-0.177 -0.243,-0.028 -0.473,-0.061 -0.713,-0.006 -0.263,0.06 -0.481,0.131 -0.708,0.292 -0.187,0.131 -0.386,0.238 -0.57,0.375 -0.035,0.025 -0.071,0.048 -0.108,0.069 -0.061,0.035 -0.116,0.064 -0.161,0.12 -0.075,0.092 -0.111,0.211 -0.182,0.306 -0.071,0.095 -0.165,0.169 -0.244,0.257 -0.167,0.184 -0.324,0.379 -0.499,0.555 -0.133,0.133 -0.261,0.253 -0.438,0.321 -0.183,0.07 -0.379,0.115 -0.571,0.147 -0.127,0.021 -0.235,0.062 -0.366,0.06 -0.103,-0.002 -0.158,0.036 -0.257,0.035 -0.181,-0.003 -0.37,0.01 -0.525,-0.1 -0.169,-0.119 -0.375,-0.217 -0.566,-0.305 -0.11,-0.051 -0.237,-0.113 -0.336,-0.182 -0.19,-0.133 -0.349,-0.295 -0.453,-0.505 -0.081,-0.162 -0.112,-0.388 -0.141,-0.568 -0.023,-0.143 -0.012,-0.276 0.068,-0.399 0.052,-0.08 0.122,-0.147 0.194,-0.21 0.094,-0.083 0.179,-0.179 0.276,-0.258 0.069,-0.058 0.146,-0.103 0.231,-0.132 0.045,-0.015 0.086,-0.058 0.135,-0.056 0.02,0.001 0.031,0.029 0.044,0.031 0.037,0.006 0.059,0.003 0.097,0 0.068,-0.007 0.109,-0.024 0.17,-0.048 0.043,-0.017 0.083,-0.044 0.12,-0.058 0.055,-0.02 0.106,-0.005 0.155,0.003 0.08,0.014 0.059,0.006 0.061,-0.085 0.002,-0.095 0.015,-0.174 0.01,-0.269 -0.004,-0.068 0.011,-0.157 0.037,-0.22 -0.075,-0.077 -0.32,0.002 -0.406,0.01 -0.147,0.013 -0.277,0.067 -0.424,0.08 -0.173,0.015 -0.356,0.058 -0.53,0.023 -0.146,-0.029 -0.225,0.013 -0.348,0.11 -0.249,0.198 -0.484,0.439 -0.589,0.78 -0.081,0.263 -0.095,0.59 -0.024,0.863 0.061,0.234 0.194,0.432 0.29,0.649 0.072,0.162 0.1,0.326 0.13,0.5 0.043,0.26 0.222,0.459 0.441,0.593 0.084,0.052 0.173,0.093 0.254,0.15 0.117,0.083 0.225,0.158 0.374,0.155 0.094,-0.002 0.17,0.028 0.261,0.036 0.158,0.016 0.306,0.029 0.461,0.068 0.184,0.046 0.348,0.093 0.536,0.101 0.311,0.015 0.617,0.072 0.93,0.071 0.271,-10e-4 0.514,0.001 0.778,-0.067 0.356,-0.093 0.622,-0.36 0.87,-0.621 0.138,-0.144 0.273,-0.309 0.364,-0.489 0.022,-0.042 0.024,-0.091 0.057,-0.127 0.057,-0.06 0.163,-0.1 0.226,-0.149 0.092,-0.07 0.189,-0.147 0.272,-0.227 0.168,-0.161 0.285,-0.359 0.481,-0.489 0.098,-0.065 0.209,-0.085 0.312,-0.138 0.122,-0.063 0.254,-0.087 0.385,-0.124 0.347,-0.1 0.727,-0.161 1.085,-0.098 0.17,0.03 0.325,0.127 0.478,0.215 0.163,0.093 0.322,0.202 0.483,0.301 0.228,0.141 0.47,0.253 0.696,0.396 0.236,0.149 0.445,0.334 0.669,0.503 0.134,0.102 0.272,0.201 0.398,0.317 0.111,0.103 0.201,0.24 0.329,0.319 0.087,0.054 0.187,0.075 0.266,0.144 0.069,0.06 0.114,0.143 0.158,0.224 0.181,0.34 0.31,0.711 0.388,1.094 0.039,0.195 0.058,0.417 0.056,0.617 -0.002,0.133 0.029,0.362 -0.054,0.473 -0.091,-0.071 -0.02,0.044 0.004,0.122 0.024,0.08 0.044,0.157 0.072,0.237 0.038,0.107 0.09,0.227 0.159,0.313 0.042,0.051 0.084,0.084 0.122,0.143 0.018,0.029 0.04,0.104 0.077,0.11 0.041,0.007 0.116,-0.113 0.145,-0.142 0.06,-0.059 0.088,-0.095 0.104,-0.19 C -0.004,1.022 -0.038,0.731 -0.023,0.438 -0.015,0.292 0.012,0.146 0,0 m -6.122,-6.062 c -0.03,-0.021 -0.107,-0.022 -0.141,-0.035 -0.042,-0.015 -0.074,-0.042 -0.114,-0.058 -0.137,-0.053 -0.272,-0.081 -0.404,-0.154 -0.17,-0.094 -0.394,-0.12 -0.587,-0.079 -0.048,0.01 -0.084,0.035 -0.134,0.043 -0.033,0.006 -0.068,-0.003 -0.102,0.008 -0.068,0.022 -0.12,0.093 -0.175,0.134 -0.063,0.049 -0.136,0.078 -0.2,0.126 -0.272,0.205 -0.495,0.475 -0.696,0.749 -0.066,0.09 -0.143,0.173 -0.207,0.264 -0.038,0.054 -0.066,0.113 -0.112,0.161 -0.126,0.132 -0.207,0.302 -0.361,0.404 -0.177,0.119 -0.295,0.282 -0.499,0.369 -0.161,0.068 -0.325,0.155 -0.498,0.187 -0.233,0.043 -0.462,-0.009 -0.694,0.002 -0.081,-0.164 -0.106,-0.14 -0.148,-0.028 -0.033,0.087 -0.031,0.187 -0.048,0.281 -0.024,0.13 -0.039,0.276 -0.016,0.414 0.015,0.098 0.038,0.071 0.109,0.097 0.056,0.02 0.11,0.042 0.172,0.054 0.101,0.022 0.221,-0.002 0.325,-0.006 0.11,-0.005 0.227,0.003 0.335,-0.013 0.216,-0.033 0.428,-0.129 0.636,-0.195 0.186,-0.059 0.304,-0.159 0.468,-0.26 0.105,-0.064 0.178,-0.174 0.257,-0.264 0.073,-0.084 0.145,-0.166 0.204,-0.26 0.052,-0.082 0.107,-0.16 0.161,-0.24 0.032,-0.046 0.045,-0.099 0.077,-0.143 0.034,-0.048 0.082,-0.082 0.116,-0.133 0.084,-0.125 0.178,-0.234 0.288,-0.335 0.072,-0.067 0.131,-0.156 0.213,-0.21 0.083,-0.053 0.173,-0.104 0.259,-0.156 0.11,-0.065 0.219,-0.102 0.335,-0.152 0.219,-0.096 0.515,-0.136 0.747,-0.068 0.091,0.027 0.157,0.026 0.248,0.023 0.121,-0.003 0.101,-0.034 0.132,-0.146 0.027,-0.1 0.156,-0.312 0.054,-0.381 m -7.377,2.174 c -0.066,-0.056 -0.265,0.05 -0.307,0.113 -0.061,0.091 -0.133,0.223 -0.175,0.331 -0.044,0.116 -0.051,0.201 -0.056,0.33 -0.006,0.132 -0.04,0.23 -0.031,0.342 -0.065,0.26 -0.066,0.609 0.033,0.839 0.108,0.249 0.305,0.409 0.473,0.583 0.151,0.157 0.302,0.308 0.46,0.453 0.346,0.321 0.722,0.648 1.118,0.841 0.193,0.094 0.379,0.164 0.571,0.215 -0.007,0.007 -0.015,0.015 -0.027,0.024 -0.139,0.112 -0.191,0.264 -0.273,0.406 -0.066,0.113 -0.146,0.217 -0.205,0.335 -0.072,0.143 -0.146,0.293 -0.228,0.432 -0.053,0.09 -0.073,0.19 -0.124,0.279 -0.118,0.201 -0.061,0.439 -0.061,0.658 0,0.2 0.032,0.423 -0.008,0.62 -0.025,0.119 -0.023,0.226 -0.029,0.348 -0.005,0.105 -0.043,0.202 -0.042,0.307 0.004,0.284 10e-4,0.567 10e-4,0.851 0,0.162 -0.009,0.326 0.003,0.487 0.012,0.149 0.038,0.293 0.037,0.442 -0.003,0.309 -10e-4,0.618 -10e-4,0.927 0,0.354 0.022,0.702 0.038,1.054 0.004,0.081 0.036,0.158 0.042,0.238 0.004,0.065 0.028,0.118 0.026,0.181 -0.004,0.153 -0.004,0.306 0.006,0.459 0.007,0.107 -0.026,0.24 0.068,0.313 0.039,0.031 0.074,0.057 0.113,0.089 0.054,0.045 0.104,0.087 0.154,0.139 0.048,0.049 0.107,0.079 0.153,0.126 0.044,0.045 0.066,0.1 0.116,0.141 0.03,0.026 0.064,0.041 0.092,0.069 0.048,0.046 0.079,0.106 0.13,0.153 0.06,0.053 0.126,0.099 0.188,0.15 0.115,0.094 0.215,0.227 0.302,0.347 0.053,0.072 0.091,0.159 0.151,0.226 0.078,0.087 0.187,0.052 0.299,0.052 -0.04,-0.154 -0.04,-0.342 -0.04,-0.53 0,-0.325 -0.031,-0.643 -0.086,-0.965 -0.068,-0.39 -0.189,-0.767 -0.187,-1.164 0.002,-0.478 0.01,-0.972 -0.04,-1.448 -0.008,-0.079 -0.033,-0.15 -0.062,-0.224 -0.078,-0.197 -0.061,-0.399 -0.048,-0.604 0.022,-0.12 0.044,-0.24 0.065,-0.361 0.022,-0.197 0.007,-0.402 0.006,-0.6 0,-0.312 0.048,-0.667 -0.008,-0.977 -0.034,-0.189 -0.031,-0.38 -0.031,-0.57 10e-4,-0.163 -0.032,-0.335 0.01,-0.495 0.029,-0.111 0.078,-0.209 0.08,-0.325 0.003,-0.184 -0.074,-0.348 -0.119,-0.526 -0.063,-0.252 -0.138,-0.499 -0.215,-0.75 -0.024,-0.079 -0.05,-0.21 -0.119,-0.284 0.054,0.011 0.107,0.023 0.163,0.031 0.204,0.029 0.406,0.083 0.608,0.122 0.218,0.043 0.435,0.065 0.651,0.127 0.362,0.103 0.731,0.178 1.099,0.24 -0.044,0.08 -0.065,0.168 -0.115,0.247 -0.071,0.114 -0.162,0.218 -0.218,0.339 -0.066,0.141 -0.081,0.293 -0.129,0.439 -0.052,0.157 -0.1,0.32 -0.109,0.484 -0.011,0.179 -0.005,0.358 -10e-4,0.538 10e-4,0.073 0.004,0.138 0.022,0.209 0.044,0.168 0.004,0.345 0.026,0.517 0.022,0.168 0.061,0.334 0.07,0.503 0.013,0.253 0.022,0.507 0.029,0.76 0.005,0.209 -0.016,0.43 0.05,0.635 0.046,0.146 0.112,0.279 0.133,0.431 0.016,0.121 0.022,0.242 0.049,0.363 0.026,0.116 0.061,0.232 0.06,0.351 -0.002,0.124 -0.081,0.231 -0.087,0.354 -0.007,0.143 0.008,0.286 0.031,0.428 0.039,0.235 0.074,0.477 0.086,0.715 0.015,0.284 -0.006,0.569 0.006,0.854 0.012,0.303 0.053,0.604 0.083,0.907 0.014,0.148 0.02,0.296 0.03,0.445 0.003,0.053 0.024,0.084 0.039,0.133 0.033,0.109 0.009,0.245 0.008,0.356 -0.002,0.188 -0.008,0.375 -0.007,0.563 0.002,0.183 -0.072,0.335 0,0.517 -0.021,-0.052 0.081,0.012 0.074,0.007 10e-4,10e-4 0.003,0.002 0.005,0.004 0.025,0.017 0.022,0.027 0.057,0.039 0.027,0.009 0.052,0.011 0.079,0.008 0.085,-0.01 0.181,-0.061 0.262,-0.088 0.146,-0.05 0.216,-0.189 0.315,-0.296 0.105,-0.114 0.206,-0.233 0.308,-0.349 0.094,-0.107 0.134,-0.238 0.218,-0.352 0.096,-0.129 0.178,-0.266 0.267,-0.398 0.141,-0.209 0.063,-0.424 0.056,-0.657 C -7.075,9.491 -7.076,9.275 -7.096,9.053 -7.137,8.615 -7.065,8.173 -7.133,7.737 -7.187,7.385 -7.335,7.047 -7.343,6.692 -7.349,6.399 -7.346,6.107 -7.343,5.814 -7.342,5.704 -7.319,5.58 -7.355,5.471 -7.376,5.407 -7.427,5.354 -7.446,5.289 -7.476,5.184 -7.456,5.063 -7.456,4.956 -7.457,4.829 -7.457,4.701 -7.457,4.574 V 3.17 c 0,-0.138 0.008,-0.279 0.002,-0.417 C -7.462,2.615 -7.498,2.486 -7.497,2.347 -7.495,2.102 -7.455,1.85 -7.605,1.624 -7.668,1.529 -7.643,1.434 -7.691,1.333 -7.746,1.216 -7.79,1.098 -7.848,0.981 -7.881,0.916 -7.92,0.852 -7.961,0.789 -7.802,0.787 -7.644,0.776 -7.482,0.763 -7.079,0.731 -6.685,0.674 -6.349,0.387 -6.29,0.337 -6.22,0.325 -6.157,0.281 c 0.059,-0.041 0.112,-0.09 0.174,-0.123 0.134,-0.075 0.27,-0.135 0.403,-0.216 0.172,-0.105 0.365,-0.178 0.51,-0.341 0.102,-0.115 0.194,-0.223 0.283,-0.356 0.068,-0.1 0.174,-0.149 0.227,-0.267 0.036,-0.081 0.047,-0.18 0.054,-0.272 0.004,-0.055 0.005,-0.112 0,-0.168 -0.008,-0.084 -0.034,-0.164 -0.05,-0.246 -0.024,-0.117 -0.023,-0.235 -0.037,-0.353 -0.016,-0.139 -0.072,-0.17 -0.15,-0.264 -0.099,-0.12 -0.209,-0.196 -0.33,-0.277 -0.059,-0.04 -0.114,-0.113 -0.184,-0.131 -0.048,-0.013 -0.091,-0.015 -0.14,-0.033 -0.103,-0.036 -0.203,-0.08 -0.302,-0.129 -0.034,-0.017 -0.067,-0.035 -0.104,-0.037 -0.099,-0.003 -0.2,0.08 -0.286,0.127 -0.054,0.029 -0.12,0.026 -0.179,0.041 -0.109,0.028 -0.186,0.131 -0.29,0.178 -0.067,0.03 -0.074,0.07 -0.123,0.13 -0.037,0.045 -0.075,0.067 -0.108,0.117 -0.083,0.119 -0.169,0.267 -0.222,0.407 -0.02,0.054 -0.052,0.141 -0.032,0.204 0.018,0.058 0.13,0.109 0.177,0.147 0.04,0.034 0.119,0.136 0.171,0.129 0.026,-0.135 -0.006,-0.286 0.062,-0.41 0.073,-0.131 0.176,-0.231 0.301,-0.272 0.091,-0.029 0.165,-0.093 0.258,-0.125 0.108,-0.037 0.208,-0.039 0.32,-0.038 0.087,0 0.211,0.017 0.256,0.125 0.018,0.044 0.011,0.071 0.004,0.116 -0.017,0.115 -0.02,0.23 -0.038,0.346 -0.013,0.088 0.013,0.175 -0.028,0.253 -0.029,0.057 -0.087,0.075 -0.12,0.123 -0.046,0.067 -0.044,0.14 -0.059,0.221 -0.02,0.104 -0.092,0.127 -0.15,0.191 -0.244,0.271 -0.616,0.415 -0.919,0.577 -0.194,0.104 -0.392,0.172 -0.6,0.219 -0.12,0.026 -0.24,0.05 -0.362,0.062 -0.196,0.02 -0.376,-0.021 -0.571,-0.042 -0.305,-0.033 -0.608,-0.004 -0.913,-0.048 -0.218,-0.032 -0.435,-0.08 -0.653,-0.114 -0.248,-0.04 -0.508,-0.115 -0.747,-0.224 -0.236,-0.108 -0.485,-0.205 -0.731,-0.257 -0.271,-0.057 -0.514,-0.142 -0.761,-0.308 -0.205,-0.138 -0.406,-0.258 -0.596,-0.431 -0.071,-0.066 -0.116,-0.114 -0.169,-0.21 -0.067,-0.123 -0.154,-0.2 -0.236,-0.305 -0.114,-0.147 -0.295,-0.329 -0.348,-0.534 -0.048,-0.188 -0.05,-0.438 -0.031,-0.628 0.014,-0.143 0.03,-0.289 0.036,-0.432 0.004,-0.07 0.051,-0.24 -0.009,-0.291 m -0.875,3.949 c -0.058,-0.013 -0.113,-0.012 -0.172,-0.033 -0.066,-0.023 -0.129,-0.018 -0.192,-0.034 -0.042,-0.011 -0.059,-0.033 -0.099,-0.054 -0.06,-0.031 -0.105,-0.041 -0.162,-0.084 -0.063,-0.047 -0.124,-0.086 -0.182,-0.138 -0.157,-0.14 -0.271,-0.336 -0.358,-0.528 -0.188,-0.415 -0.059,-1.001 0.151,-1.367 0.039,-0.069 0.065,-0.133 0.119,-0.19 0.041,-0.044 0.097,-0.105 10e-4,-0.13 -0.165,-0.044 -0.38,0.09 -0.496,0.177 -0.138,0.102 -0.225,0.233 -0.293,0.38 -0.06,0.129 -0.16,0.249 -0.186,0.389 -0.03,0.161 -0.076,0.325 -0.093,0.487 -0.016,0.155 -0.097,0.35 -0.036,0.498 0.062,0.15 0.136,0.272 0.246,0.396 0.124,0.139 0.255,0.266 0.369,0.411 0.048,0.062 0.09,0.094 0.159,0.131 0.098,0.053 0.175,0.135 0.272,0.188 0.046,0.025 0.096,0.034 0.142,0.059 0.079,0.044 0.144,0.097 0.218,0.141 -0.038,0.088 -0.083,0.172 -0.129,0.265 -0.057,0.117 -0.087,0.231 -0.195,0.328 -0.056,0.05 -0.092,0.064 -0.078,0.142 0.028,0.151 0.078,0.286 0.081,0.442 0.006,0.365 0.138,0.726 0.116,1.09 -0.021,0.344 -0.036,0.683 -0.033,1.029 0.001,0.128 -0.031,0.246 -0.034,0.373 -0.005,0.175 10e-4,0.351 10e-4,0.527 0,0.128 -0.014,0.256 -0.013,0.385 10e-4,0.072 -10e-4,0.148 0.03,0.214 0.014,0.032 0.034,0.05 0.043,0.085 0.023,0.097 -0.002,0.227 -0.003,0.327 0,0.125 0.002,0.25 0.007,0.375 0.006,0.114 0.109,0.204 0.165,0.305 0.034,0.06 0.051,0.115 0.105,0.16 0.167,0.138 0.316,0.335 0.474,0.495 0.02,0.019 0.04,0.039 0.06,0.058 0.152,0.14 0.327,0.266 0.446,0.433 0.04,0.057 0.071,0.14 0.126,0.183 0.094,0.074 0.241,0.031 0.235,-0.103 -0.003,-0.089 -0.042,-0.174 -0.05,-0.263 -0.01,-0.102 0.006,-0.206 0.006,-0.308 0,-0.153 0.01,-0.308 0.002,-0.461 -0.019,-0.327 -0.145,-0.64 -0.191,-0.963 -0.03,-0.21 -0.032,-0.429 -0.046,-0.64 -0.009,-0.148 -0.034,-0.295 -0.041,-0.443 -0.016,-0.342 0.002,-0.687 0.002,-1.029 0,-0.453 -0.015,-0.906 0.036,-1.356 0.031,-0.277 0.027,-0.598 -0.035,-0.865 -0.029,-0.123 -0.08,-0.252 -0.117,-0.377 -0.03,-0.099 -0.059,-0.19 -0.099,-0.279 0.016,-0.003 0.033,-0.005 0.05,-0.008 0.138,-0.027 0.272,-0.037 0.352,-0.156 0.068,-0.101 0.139,-0.193 0.199,-0.298 0.022,-0.04 0.051,-0.06 0.083,-0.093 0.035,-0.037 0.048,-0.077 0.066,-0.123 0.04,-0.101 0.037,-0.192 0.037,-0.299 0,-0.076 0.016,-0.168 10e-4,-0.242 -0.011,-0.058 -0.063,-0.111 -0.098,-0.156 -0.072,-0.091 -0.152,-0.202 -0.274,-0.237 -0.039,-0.011 -0.058,-0.026 -0.09,-0.041 -0.041,-0.019 -0.053,-0.022 -0.104,-0.033 -0.075,-0.016 -0.134,-0.095 -0.149,0.006 -0.011,0.074 0.032,0.095 0.083,0.142 0.035,0.033 0.104,0.058 0.091,0.027 0.015,0.011 0.034,0.021 0.047,0.034 0.126,0.122 0.107,0.331 0.009,0.47 -0.043,0.061 -0.082,0.119 -0.153,0.163 -0.047,0.029 -0.091,0.036 -0.139,0.052 -0.039,0.012 -0.074,0.038 -0.117,0.038 -0.065,-0.001 -0.111,-0.061 -0.173,-0.074 m 8.555,3.542 c -0.001,0.284 0.057,0.548 0.12,0.828 0.072,0.321 0.054,0.625 0.079,0.949 0.026,0.338 0.089,0.675 0.111,1.013 0.025,0.379 0.003,0.764 0.003,1.143 v 1.497 c 0,0.191 -0.021,0.398 -0.011,0.598 L -5.545,9.458 c -0.025,0.108 -0.152,0.666 0.107,0.683 0.216,0.014 0.341,-0.221 0.478,-0.348 0.167,-0.154 0.322,-0.307 0.485,-0.465 0.077,-0.074 0.168,-0.141 0.257,-0.2 C -4.193,9.111 -4.159,9.1 -4.14,9.075 -4.094,9.017 -4.133,8.939 -4.106,8.876 -4.099,8.861 -4.071,8.861 -4.062,8.844 -4.043,8.806 -4.06,8.707 -4.06,8.668 c 0,-0.105 10e-4,-0.211 10e-4,-0.317 0.001,-0.262 0.04,-0.517 0.039,-0.779 0,-0.133 10e-4,-0.266 0,-0.399 C -4.022,7.017 -3.984,6.867 -3.979,6.712 -3.969,6.429 -3.98,6.145 -3.981,5.863 -3.981,5.488 -3.999,5.114 -4.048,4.742 -4.1,4.343 -4.085,3.953 -4.096,3.553 -4.102,3.375 -4.12,3.187 -4.139,3.009 -4.155,2.858 -4.214,2.709 -4.237,2.556 -4.278,2.272 -4.238,1.986 -4.252,1.701 -4.262,1.502 -4.368,1.334 -4.451,1.153 -4.527,0.988 -4.584,0.818 -4.644,0.648 -4.681,0.542 -4.771,0.486 -4.834,0.392 -4.867,0.343 -4.907,0.319 -4.939,0.271 -4.996,0.184 -5.041,0.119 -5.115,0.04 c -0.073,0.066 -0.076,0.175 -0.136,0.25 -0.073,0.092 -0.115,0.127 -0.136,0.235 -0.018,0.088 -0.071,0.172 -0.082,0.263 -0.005,0.044 0.005,0.083 -0.005,0.128 -0.013,0.051 -0.047,0.099 -0.062,0.149 -0.07,0.228 -0.184,0.446 -0.207,0.685 -0.023,0.247 0.019,0.49 -0.028,0.734 -0.032,0.168 -0.008,0.34 -0.039,0.51 -0.036,0.197 -0.008,0.41 -0.009,0.609 m 2.221,-2.961 c 0.069,0.07 0.13,0.143 0.169,0.237 0.053,-0.069 0.116,-0.112 0.156,-0.194 0.03,-0.063 0.047,-0.096 0.083,-0.144 0.004,0.012 0.005,0.024 0.002,0.039 0.061,-0.117 0.031,-0.083 0,-0.042 C -3.189,0.539 -3.189,0.54 -3.19,0.541 -3.202,0.5 -3.247,0.472 -3.277,0.441 -3.363,0.348 -3.42,0.251 -3.446,0.129 c -0.072,-0.33 0.007,-0.689 0.069,-1.014 0.035,-0.186 0.135,-0.342 0.225,-0.505 0.033,-0.06 0.046,-0.129 0.108,-0.166 0.048,-0.029 0.144,-0.054 0.198,-0.067 0.103,-0.024 0.222,-0.006 0.328,-0.007 0.062,-0.001 0.19,0.055 0.22,0.016 0.028,-0.036 10e-4,-0.174 0.002,-0.223 0.002,-0.106 -0.032,-0.13 -0.136,-0.138 -0.074,-0.007 -0.133,-0.017 -0.201,-0.052 -0.05,-0.025 -0.074,-0.051 -0.128,-0.05 -0.061,10e-4 -0.15,0.024 -0.215,0.032 -0.072,0.009 -0.123,0.037 -0.187,0.07 -0.263,0.135 -0.445,0.319 -0.589,0.584 -0.075,0.138 -0.141,0.281 -0.224,0.416 -0.043,0.07 -0.102,0.133 -0.134,0.21 -0.032,0.081 -0.033,0.164 -0.048,0.248 -0.029,0.174 -0.03,0.321 0.005,0.493 0.021,0.107 0.027,0.24 0.103,0.327 0.121,0.14 0.321,0.206 0.452,0.339 m 0.81,2.996 c 0.051,0.21 0.074,0.425 0.09,0.638 0.013,0.173 0.029,0.345 0.043,0.518 0.016,0.205 0.065,0.406 0.078,0.612 0,0.003 0,0.007 10e-4,0.01 0.017,0.265 0.039,0.524 0.038,0.791 -0.001,0.27 0,0.541 0,0.811 0,0.216 0.002,0.431 -0.001,0.647 -0.002,0.172 0.06,0.309 0.147,0.463 0.059,0.104 0.037,0.137 0.156,0.117 0.05,-0.009 0.094,-0.028 0.136,-0.057 0.045,-0.031 0.126,-0.084 0.16,-0.128 0.022,-0.028 0.018,-0.033 0.035,-0.07 0.031,-0.07 0.056,-0.146 0.092,-0.212 0.059,-0.109 0.151,-0.2 0.206,-0.312 0.07,-0.142 0.157,-0.315 0.28,-0.416 0.037,-0.031 0.079,-0.061 0.104,-0.103 0.04,-0.068 0.058,-0.177 0.062,-0.253 0.006,-0.093 0.007,-0.184 0,-0.278 C -1.184,6.127 -1.206,5.835 -1.258,5.549 -1.388,4.833 -1.193,4.092 -1.306,3.374 -1.37,2.964 -1.325,2.534 -1.325,2.122 -1.325,1.91 -1.34,1.696 -1.316,1.486 -1.297,1.316 -1.422,1.102 -1.519,0.952 -1.608,0.814 -1.707,0.68 -1.795,0.543 -1.851,0.455 -1.921,0.383 -1.986,0.298 -2.033,0.238 -2.108,0.206 -2.158,0.152 -2.191,0.117 -2.202,0.068 -2.235,0.031 c -0.089,0.013 -0.122,0.162 -0.142,0.217 -0.054,0.151 -0.086,0.309 -0.17,0.455 -0.228,0.399 -0.186,0.85 -0.186,1.279 0,0.302 -0.031,0.616 0.003,0.917 0.009,0.078 0.034,0.165 -0.006,0.239 -0.034,0.061 -0.074,0.099 -0.084,0.168 -0.015,0.109 0.005,0.225 0.032,0.332 m 5.3,-2.133 C 2.477,1.674 2.399,1.821 2.432,2.016 2.464,2.205 2.342,2.39 2.228,2.556 V 2.444 C 2.215,2.443 2.202,2.442 2.188,2.441 2.183,2.532 2.16,2.626 2.175,2.713 2.224,3 2.29,3.283 2.341,3.57 2.355,3.65 2.352,3.739 2.333,3.819 2.269,4.083 2.198,4.345 2.124,4.606 2.063,4.822 2.001,5.039 1.927,5.251 1.883,5.378 1.816,5.498 1.753,5.617 1.727,5.665 1.682,5.704 1.649,5.749 1.634,5.768 1.624,5.792 1.616,5.815 1.568,5.949 1.677,6.089 1.601,6.224 1.575,6.27 1.562,6.325 1.555,6.377 1.535,6.528 1.522,6.678 1.505,6.829 1.502,6.854 1.495,6.882 1.481,6.903 1.398,7.018 1.311,7.13 1.23,7.246 1.216,7.266 1.224,7.301 1.22,7.341 1.033,7.509 0.948,7.774 0.751,7.964 0.573,8.136 0.461,8.374 0.319,8.583 0.226,8.72 0.128,8.854 0.037,8.993 c -0.079,0.121 -0.208,0.202 -0.221,0.378 -0.007,0.095 -0.109,0.196 -0.189,0.271 -0.162,0.15 -0.338,0.285 -0.508,0.427 -0.003,-0.026 -0.006,-0.055 -0.01,-0.084 -0.01,-0.004 -0.021,-0.009 -0.031,-0.013 -0.068,0.099 -0.134,0.199 -0.202,0.298 -0.045,0.064 -0.092,0.127 -0.138,0.19 -0.035,0.046 -0.069,0.093 -0.102,0.14 -0.054,0.081 -0.106,0.164 -0.161,0.244 -0.019,0.027 -0.046,0.049 -0.066,0.076 -0.081,0.107 -0.157,0.219 -0.245,0.321 -0.022,0.026 -0.077,0.027 -0.119,0.033 -0.059,0.008 -0.123,-0.002 -0.179,0.015 -0.238,0.069 -0.477,0.138 -0.71,0.222 -0.095,0.034 -0.188,0.094 -0.26,0.164 -0.222,0.214 -0.5,0.359 -0.708,0.595 -0.11,0.125 -0.288,0.194 -0.442,0.274 -0.172,0.09 -0.35,0.167 -0.527,0.246 -0.097,0.043 -0.193,0.1 -0.295,0.115 -0.199,0.029 -0.402,0.029 -0.603,0.048 -0.231,0.022 -0.471,0.004 -0.686,0.121 -0.23,0.127 -0.481,0.103 -0.728,0.107 -0.018,0 -0.041,-0.003 -0.052,-0.014 -0.111,-0.103 -0.237,-0.059 -0.359,-0.036 -0.019,0.003 -0.03,0.049 -0.05,0.086 -0.056,0.008 -0.128,0.025 -0.201,0.026 -0.154,0.002 -0.309,-0.004 -0.463,-0.006 -0.161,-0.002 -0.322,-0.016 -0.482,-0.003 -0.15,0.012 -0.297,0.051 -0.446,0.079 -0.003,10e-4 -0.004,0.009 -0.007,0.009 -0.06,0.006 -0.127,0.03 -0.18,0.013 -0.139,-0.048 -0.278,-0.102 -0.404,-0.176 -0.066,-0.039 -0.172,-0.059 -0.17,-0.176 0,-0.016 -0.027,-0.038 -0.047,-0.049 -0.076,-0.043 -0.155,-0.082 -0.233,-0.123 10e-4,0.012 10e-4,0.024 0.002,0.036 -0.023,0.005 -0.047,0.018 -0.068,0.014 -0.113,-0.024 -0.224,-0.056 -0.338,-0.075 -0.045,-0.008 -0.097,0.019 -0.142,0.011 -0.177,-0.03 -0.353,-0.067 -0.529,-0.101 -0.216,-0.042 -0.433,-0.083 -0.649,-0.126 -0.03,-0.005 -0.061,-0.027 -0.089,-0.023 -0.199,0.028 -0.368,-0.08 -0.552,-0.118 -0.033,-0.007 -0.058,-0.049 -0.087,-0.075 0.006,-0.005 0.012,-0.01 0.018,-0.015 l 0.168,0.054 c 0.004,-0.01 0.008,-0.021 0.012,-0.032 -0.117,-0.079 -0.234,-0.158 -0.351,-0.238 -0.006,0.017 -0.011,0.033 -0.016,0.05 -0.042,-0.004 -0.09,0.007 -0.123,-0.012 -0.101,-0.057 -0.196,-0.125 -0.293,-0.189 -0.158,-0.104 -0.308,-0.222 -0.475,-0.31 -0.12,-0.063 -0.268,-0.071 -0.39,-0.132 -0.287,-0.144 -0.573,-0.293 -0.761,-0.572 -0.068,-0.102 -0.147,-0.197 -0.237,-0.317 -0.021,0.042 -0.032,0.065 -0.04,0.08 -0.217,-0.183 -0.295,-0.437 -0.43,-0.656 -0.123,-0.198 -0.25,-0.402 -0.413,-0.567 -0.197,-0.2 -0.437,-0.357 -0.651,-0.542 -0.212,-0.183 -0.251,-0.449 -0.316,-0.701 -0.026,-0.103 -0.049,-0.206 -0.074,-0.309 -0.012,0.003 -0.024,0.006 -0.036,0.009 0.003,0.03 0.007,0.061 0.01,0.091 -0.051,-0.049 -0.07,-0.112 -0.103,-0.165 -0.071,-0.113 -0.148,-0.222 -0.224,-0.331 -0.02,-0.028 -0.048,-0.05 -0.068,-0.079 -0.119,-0.177 -0.238,-0.354 -0.353,-0.532 -0.02,-0.032 -0.028,-0.072 -0.037,-0.11 -0.047,-0.2 -0.087,-0.402 -0.141,-0.6 -0.051,-0.182 -0.115,-0.361 -0.174,-0.541 l -0.029,0.008 c -0.006,0.019 -0.012,0.037 -0.015,0.047 -0.021,-0.114 -0.052,-0.23 -0.064,-0.347 -0.014,-0.151 -0.008,-0.303 -0.021,-0.454 -0.014,-0.155 0.017,-0.315 -0.067,-0.463 -0.047,-0.083 -0.088,-0.176 -0.104,-0.269 -0.067,-0.404 -0.118,-0.81 -0.33,-1.177 -0.152,-0.265 -0.164,-0.565 -0.111,-0.857 0.086,-0.477 0.17,-0.955 0.358,-1.407 0.011,-0.026 0.041,-0.044 0.058,-0.069 0.063,-0.096 0.124,-0.193 0.186,-0.289 -0.007,-0.006 -0.014,-0.011 -0.021,-0.016 -0.023,0.01 -0.046,0.021 -0.069,0.031 0.105,-0.138 0.124,-0.309 0.075,-0.438 -0.054,-0.145 -0.049,-0.257 0.014,-0.382 0.006,0.011 0.013,0.023 0.034,0.061 0.01,-0.111 0.018,-0.194 0.025,-0.278 0.008,-0.089 0.01,-0.178 0.025,-0.266 0.086,-0.495 0.284,-0.955 0.457,-1.423 0.173,-0.47 0.487,-0.857 0.737,-1.28 0.132,-0.224 0.313,-0.427 0.533,-0.589 0.247,-0.181 0.497,-0.355 0.67,-0.629 0.121,-0.192 0.311,-0.345 0.48,-0.504 0.269,-0.252 0.542,-0.502 0.823,-0.741 0.437,-0.371 0.863,-0.764 1.458,-0.872 0.04,-0.007 0.082,-0.001 0.122,-0.007 0.14,-0.025 0.288,-0.031 0.416,-0.084 0.131,-0.055 0.241,-0.159 0.363,-0.238 0.02,-0.014 0.049,-0.012 0.075,-0.016 0.039,-0.007 0.088,0 0.117,-0.021 0.235,-0.168 0.48,-0.31 0.764,-0.386 0.201,-0.054 0.397,-0.131 0.594,-0.202 0.065,-0.023 0.126,-0.082 0.189,-0.083 0.244,-0.006 0.46,-0.115 0.692,-0.163 0.341,-0.07 0.68,-0.162 1.013,0.037 0.036,0.021 0.095,0.009 0.143,0.005 0.048,-0.005 0.097,-0.034 0.142,-0.028 0.448,0.055 0.896,0.115 1.344,0.172 0.225,0.029 0.452,0.054 0.677,0.083 0.179,0.022 0.358,0.041 0.535,0.073 0.223,0.04 0.443,0.091 0.664,0.137 0.011,0.003 0.024,-10e-4 0.035,0.001 0.104,0.017 0.221,0.01 0.309,0.056 0.266,0.139 0.522,0.299 0.781,0.451 0.079,0.047 0.146,0.137 0.255,0.055 0.01,-0.007 0.043,0.01 0.063,0.02 0.269,0.138 0.559,0.207 0.854,0.252 0.208,0.033 0.298,0.195 0.417,0.33 0.012,0.013 0.005,0.043 0.008,0.082 -0.042,-0.037 -0.072,-0.064 -0.102,-0.09 -0.009,0.006 -0.017,0.011 -0.026,0.017 0.031,0.053 0.052,0.118 0.096,0.155 0.184,0.154 0.364,0.312 0.545,0.467 0.268,0.229 0.475,0.527 0.797,0.697 0.123,0.065 0.218,0.185 0.327,0.277 0.022,0.019 0.052,0.029 0.08,0.039 0.247,0.095 0.483,0.2 0.6,0.466 0.101,0.227 0.202,0.454 0.319,0.672 0.057,0.107 0.141,0.203 0.23,0.287 0.354,0.336 0.731,0.65 0.957,1.1 0.078,0.156 0.184,0.297 0.275,0.446 0.028,0.046 0.052,0.095 0.071,0.146 0.079,0.214 0.166,0.427 0.231,0.646 0.061,0.203 0.103,0.412 0.147,0.62 0.033,0.155 0.047,0.314 0.087,0.466 0.054,0.206 0.159,0.404 0.178,0.612 0.02,0.212 0.065,0.415 0.113,0.619 0.02,0.084 0.066,0.175 0.05,0.252"
             style="fill:#110f0d;fill-opacity:1;fill-rule:nonzero;stroke:none"
             id="path351" />
        </g>
        <g
           id="g353"
           transform="translate(55.3183,421.9099)">
          <path
             d="M 0,0 C 0.004,-0.015 0.002,-0.028 -0.002,-0.04 -0.001,-0.041 -0.001,-0.041 0,-0.042 0.031,-0.083 0.062,-0.118 0,0"
             style="fill:#110f0d;fill-opacity:1;fill-rule:nonzero;stroke:none"
             id="path355" />
        </g>
      </g>
    </g>
  </g>
</svg>
