<?xml version="1.0" encoding="UTF-8" standalone="no"?>
<!-- Created with Inkscape (http://www.inkscape.org/) -->

<svg
   width="23.869034"
   height="24.000002"
   viewBox="0 0 6.3153485 6.3500005"
   version="1.1"
   id="svg4805"
   inkscape:version="1.2.1 (9c6d41e4, 2022-07-14)"
   sodipodi:docname="return-to-black-stars-rise.svg"
   xmlns:inkscape="http://www.inkscape.org/namespaces/inkscape"
   xmlns:sodipodi="http://sodipodi.sourceforge.net/DTD/sodipodi-0.dtd"
   xmlns="http://www.w3.org/2000/svg"
   xmlns:svg="http://www.w3.org/2000/svg">
  <sodipodi:namedview
     id="namedview4807"
     pagecolor="#505050"
     bordercolor="#eeeeee"
     borderopacity="1"
     inkscape:showpageshadow="0"
     inkscape:pageopacity="0"
     inkscape:pagecheckerboard="0"
     inkscape:deskcolor="#505050"
     inkscape:document-units="mm"
     showgrid="false"
     inkscape:zoom="0.7046647"
     inkscape:cx="42.573439"
     inkscape:cy="31.93008"
     inkscape:window-width="1390"
     inkscape:window-height="941"
     inkscape:window-x="0"
     inkscape:window-y="25"
     inkscape:window-maximized="0"
     inkscape:current-layer="layer1" />
  <defs
     id="defs4802">
    <clipPath
       clipPathUnits="userSpaceOnUse"
       id="clipPath363">
      <path
         d="m 39.282,385.3 h 22.057 v 22.058 H 39.282 Z"
         id="path361" />
    </clipPath>
  </defs>
  <g
     inkscape:label="Layer 1"
     inkscape:groupmode="layer"
     id="layer1"
     transform="translate(-93.714639,-140.2561)">
    <g
       id="g357"
       transform="matrix(0.29480894,0,0,-0.29480894,82.040137,260.27241)">
      <g
         id="g359"
         clip-path="url(#clipPath363)">
        <g
           id="g365"
           transform="translate(45.2495,397.0155)">
          <path
             d="m 0,0 c -0.008,-0.04 -0.013,-0.077 -0.011,-0.118 0.004,-0.113 0.013,-0.227 0.014,-0.34 0.001,-0.04 -0.028,-0.08 -0.015,-0.12 0.005,-0.014 0.023,-0.03 0.028,-0.046 0.011,-0.031 0.004,-0.067 0.007,-0.1 0.002,-0.035 0.007,-0.069 0.009,-0.105 0.001,-0.03 0.01,-0.057 0.021,-0.082 0.026,-0.059 0.146,-0.006 0.199,0.004 0.037,0.007 0.09,-0.016 0.106,0.016 0.002,0.003 0.003,0.007 0.004,0.011 0.002,0.019 -0.007,0.041 -0.007,0.057 v 0.144 c 0,0.127 -0.012,0.254 -0.011,0.381 0,0.079 -0.004,0.157 0.003,0.236 0.005,0.047 0.007,0.095 0.008,0.143 0.001,0.024 0.006,0.032 -0.024,0.038 -0.037,0.008 -0.088,0.013 -0.127,0.013 -0.044,0.001 -0.089,0 -0.134,0 -0.029,0 -0.077,0.014 -0.088,-0.015 C -0.024,0.102 0.001,0.072 0.003,0.054 0.006,0.036 0.004,0.018 0,0"
             style="fill:#110f0d;fill-opacity:1;fill-rule:nonzero;stroke:none"
             id="path367" />
        </g>
        <g
           id="g369"
           transform="translate(48.6354,394.7114)">
          <path
             d="m 0,0 c -0.005,0.029 -0.011,0.05 -0.012,0.08 -10e-4,0.077 0,0.154 0.001,0.231 0,0.054 -0.015,0.102 -0.017,0.155 -0.002,0.063 0.001,0.127 0.001,0.19 0,0.201 0.017,0.402 -0.044,0.593 -0.03,0.095 -0.07,0.184 -0.148,0.242 -0.032,0.024 -0.083,0.027 -0.12,0.011 C -0.363,1.492 -0.384,1.471 -0.408,1.459 -0.434,1.446 -0.45,1.429 -0.472,1.405 -0.534,1.336 -0.606,1.243 -0.629,1.148 -0.647,1.076 -0.636,0.986 -0.636,0.912 -0.636,0.782 -0.652,0.641 -0.632,0.514 -0.62,0.43 -0.621,0.35 -0.621,0.265 -0.657,0.369 -0.636,0.223 -0.636,0.188 v -0.239 c 0,-0.051 -0.018,-0.125 0.038,-0.138 0.06,-0.015 0.132,0.005 0.191,0.016 0.034,0.006 0.066,0.001 0.1,0.01 0.031,0.007 0.055,0.008 0.087,0.008 0.059,-0.001 0.119,0 0.178,0 0.023,0 0.051,-0.01 0.062,0.015 0.01,0.026 -0.011,0.043 -0.015,0.062 C -0.001,-0.053 0.005,-0.026 0,0"
             style="fill:#110f0d;fill-opacity:1;fill-rule:nonzero;stroke:none"
             id="path371" />
        </g>
        <g
           id="g373"
           transform="translate(52.8675,395.3524)">
          <path
             d="m 0,0 c 0.004,-0.032 0.009,-0.064 0.01,-0.097 0,-0.049 -0.008,-0.102 -0.002,-0.15 0.005,-0.035 0.016,-0.058 0.015,-0.095 0,-0.035 0.004,-0.07 0.015,-0.103 0.004,-0.012 0.016,-0.042 0.023,-0.048 0.01,-0.008 0.049,-0.001 0.063,-0.001 0.081,0.002 0.17,0.016 0.247,0.045 0.04,0.014 0.067,0.03 0.108,0.019 0.018,-0.005 0.029,-0.016 0.048,-0.012 0.01,0.002 0.018,0.012 0.028,0.014 0.014,0.004 0.053,-0.008 0.064,0.004 0.009,0.011 0.002,0.058 0.002,0.074 0,0.082 -0.004,0.163 0.014,0.243 C 0.654,-0.025 0.654,0.061 0.65,0.145 0.648,0.195 0.629,0.24 0.622,0.291 0.616,0.335 0.625,0.379 0.618,0.424 0.611,0.463 0.61,0.496 0.607,0.536 0.604,0.573 0.595,0.608 0.592,0.645 0.59,0.672 0.597,0.704 0.589,0.73 0.582,0.755 0.56,0.766 0.551,0.788 0.541,0.812 0.551,0.84 0.545,0.865 0.537,0.899 0.519,0.936 0.504,0.97 0.487,1.01 0.469,1.056 0.432,1.08 0.403,1.098 0.341,1.09 0.306,1.088 0.237,1.084 0.226,1.049 0.18,1.003 0.137,0.959 0.097,0.92 0.067,0.861 0.015,0.76 0.036,0.659 0.015,0.552 0.008,0.518 -0.005,0.485 -0.012,0.45 -0.032,0.333 -0.005,0.202 -0.006,0.083 -0.006,0.054 -0.003,0.027 0,0"
             style="fill:#110f0d;fill-opacity:1;fill-rule:nonzero;stroke:none"
             id="path375" />
        </g>
        <g
           id="g377"
           transform="translate(51.1799,400.0467)">
          <path
             d="m 0,0 c -0.008,-0.053 -0.013,-0.101 -0.011,-0.155 0.004,-0.149 0.012,-0.297 0.014,-0.446 0.001,-0.053 -0.028,-0.106 -0.015,-0.158 0.005,-0.019 0.023,-0.039 0.028,-0.06 0.011,-0.042 0.004,-0.089 0.007,-0.132 0.002,-0.045 0.007,-0.091 0.009,-0.137 0.001,-0.04 0.01,-0.075 0.021,-0.108 0.026,-0.078 0.146,-0.009 0.199,0.004 0.037,0.01 0.09,-0.02 0.106,0.021 0.002,0.005 0.003,0.01 0.004,0.016 0.002,0.024 -0.007,0.053 -0.007,0.074 v 0.19 c 0,0.166 -0.012,0.332 -0.011,0.499 0,0.105 -0.004,0.207 0.003,0.311 0.005,0.062 0.007,0.124 0.008,0.187 C 0.356,0.138 0.361,0.149 0.331,0.157 0.294,0.167 0.243,0.173 0.204,0.174 0.16,0.174 0.115,0.173 0.07,0.173 0.041,0.173 -0.007,0.191 -0.018,0.154 -0.024,0.134 0.001,0.095 0.003,0.071 0.006,0.048 0.003,0.024 0,0"
             style="fill:#110f0d;fill-opacity:1;fill-rule:nonzero;stroke:none"
             id="path379" />
        </g>
        <g
           id="g381"
           transform="translate(50.455,399.8546)">
          <path
             d="m 0,0 c 0.012,-0.16 0.021,-0.325 0.02,-0.486 0,-0.136 0,-0.273 0,-0.409 0,-0.028 0.002,-0.058 0.001,-0.085 -0.002,-0.022 -0.013,-0.045 -0.011,-0.066 0.019,0 0.041,0.021 0.058,0.032 0.036,0.024 0.074,0.017 0.113,0.017 0.039,0 0.073,0.009 0.111,0.017 0.013,0.003 0.035,0.001 0.045,0.018 0.013,0.021 0.007,0.071 0.007,0.101 v 0.365 c 0,0.167 -0.002,0.333 0,0.5 0,0.069 -0.009,0.138 -0.012,0.207 -0.001,0.04 -0.009,0.075 -0.02,0.108 -0.011,0.033 -0.01,0.03 -0.038,0.029 -0.019,0 -0.038,0 -0.057,0 -0.045,0 -0.1,-0.012 -0.143,0.002 C 0.055,0.355 -0.03,0.394 -0.026,0.281 -0.029,0.253 -0.019,0.226 -0.014,0.199 -0.004,0.134 -0.005,0.066 0,0"
             style="fill:#110f0d;fill-opacity:1;fill-rule:nonzero;stroke:none"
             id="path383" />
        </g>
        <g
           id="g385"
           transform="translate(45.2495,395.3716)">
          <path
             d="m 0,0 c -0.008,-0.039 -0.013,-0.075 -0.011,-0.115 0.004,-0.109 0.013,-0.219 0.014,-0.328 0.001,-0.039 -0.028,-0.078 -0.015,-0.117 0.005,-0.013 0.023,-0.029 0.028,-0.044 0.011,-0.031 0.004,-0.066 0.007,-0.097 0.002,-0.034 0.007,-0.068 0.009,-0.101 0.001,-0.03 0.01,-0.056 0.021,-0.08 0.026,-0.058 0.146,-0.006 0.199,0.003 0.037,0.007 0.09,-0.015 0.106,0.016 0.002,0.003 0.003,0.007 0.004,0.011 0.002,0.018 -0.007,0.039 -0.007,0.055 v 0.14 c 0,0.122 -0.012,0.245 -0.011,0.368 0,0.077 -0.004,0.152 0.003,0.229 0.005,0.046 0.007,0.092 0.008,0.138 C 0.356,0.102 0.361,0.11 0.331,0.116 0.294,0.123 0.243,0.128 0.204,0.128 c -0.044,0.001 -0.089,0 -0.134,0 -0.029,0 -0.077,0.013 -0.088,-0.015 C -0.024,0.099 0.001,0.07 0.003,0.053 0.006,0.035 0.004,0.017 0,0"
             style="fill:#110f0d;fill-opacity:1;fill-rule:nonzero;stroke:none"
             id="path387" />
        </g>
        <g
           id="g389"
           transform="translate(56.0093,394.6649)">
          <path
             d="m 0,0 c 0.008,0.04 0.013,0.077 0.011,0.118 -0.004,0.114 -0.012,0.227 -0.014,0.34 -0.001,0.04 0.028,0.08 0.015,0.12 -0.005,0.014 -0.023,0.03 -0.028,0.046 -0.01,0.031 -0.004,0.067 -0.007,0.1 -0.002,0.035 -0.007,0.07 -0.009,0.105 -0.001,0.03 -0.01,0.057 -0.021,0.082 C -0.079,0.97 -0.199,0.917 -0.252,0.907 -0.289,0.9 -0.342,0.923 -0.358,0.891 -0.36,0.888 -0.361,0.884 -0.362,0.88 -0.364,0.861 -0.355,0.839 -0.355,0.823 V 0.679 c 0,-0.127 0.012,-0.254 0.011,-0.381 0,-0.079 0.004,-0.157 -0.003,-0.236 -0.005,-0.047 -0.007,-0.095 -0.008,-0.142 -0.001,-0.025 -0.006,-0.033 0.024,-0.039 0.038,-0.008 0.088,-0.013 0.127,-0.013 0.044,-0.001 0.089,0 0.134,0 0.029,0 0.077,-0.014 0.088,0.015 0.006,0.015 -0.019,0.045 -0.021,0.063 -0.003,0.018 0,0.036 0.003,0.054"
             style="fill:#110f0d;fill-opacity:1;fill-rule:nonzero;stroke:none"
             id="path391" />
        </g>
        <g
           id="g393"
           transform="translate(58.6988,392.5872)">
          <path
             d="m 0,0 c -0.02,-0.043 -0.027,-0.074 -0.042,-0.116 -0.016,-0.049 -0.005,-0.055 -0.035,-0.062 0,-0.013 0.001,-0.026 0,-0.039 -0.003,-0.041 -0.019,-0.063 -0.03,-0.101 -0.012,-0.045 -0.001,-0.086 -0.013,-0.13 -0.045,-0.008 -0.089,-0.029 -0.125,-0.036 -0.071,-0.012 -0.154,-0.003 -0.228,-0.003 -0.124,0 -0.262,-0.014 -0.385,-0.001 -0.072,0.007 -0.125,0.034 -0.197,0.036 -0.066,0.001 -0.133,-0.001 -0.199,-0.001 -0.067,0 -0.301,-0.035 -0.349,0.002 -0.044,0.034 0.05,0.157 0.055,0.216 0.002,0.031 0.008,0.058 0.017,0.085 h -0.567 c -0.145,0 -0.29,-0.001 -0.435,0 -0.176,0.001 -0.342,-0.029 -0.517,-0.036 -0.414,-0.015 -0.825,-0.032 -1.238,-0.074 -0.243,-0.025 -0.484,-0.009 -0.725,-0.032 -0.218,-0.021 -0.431,-0.035 -0.65,-0.028 -0.224,0.007 -0.444,0.037 -0.67,0.036 -0.262,-0.001 -0.525,0 -0.787,0 -0.212,-0.001 -0.417,0.006 -0.627,0.026 -0.312,0.029 -0.626,0.003 -0.939,0.033 -0.293,0.028 -0.589,-0.012 -0.883,0.015 -0.233,0.021 -0.466,0.032 -0.698,0.053 -0.079,0.007 -0.159,0.011 -0.237,0.015 0.004,-0.07 0.004,-0.14 -0.013,-0.195 -0.022,-0.071 -0.07,-0.049 -0.149,-0.049 -0.079,0 -0.136,0.012 -0.212,0.027 -0.167,0.031 -0.36,0.007 -0.53,0.007 -0.124,0 -0.409,-0.036 -0.475,0.095 -0.026,0.05 0.031,0.16 0.061,0.243 -0.07,0 -0.141,-0.002 -0.213,-0.002 h -0.985 c -0.514,0 -1.032,-0.014 -1.546,0.001 -0.124,0.003 -0.24,0.034 -0.366,0.033 -0.098,-10e-4 -0.195,0 -0.293,0 -0.076,0 -0.185,0.018 -0.259,0.002 -0.05,-0.011 -0.099,-0.032 -0.15,-0.049 0.002,-0.035 0.005,-0.071 0.005,-0.105 0,-0.11 0.009,-0.163 -0.065,-0.252 -0.101,-0.124 -0.229,-0.134 -0.394,-0.134 -0.099,0 -0.198,0.001 -0.297,0 -0.06,-0.001 -0.107,0.003 -0.164,0.017 -0.049,0.011 -0.103,0.004 -0.148,0.015 -0.091,0.022 -0.061,0.099 -0.08,0.162 -0.008,0.027 -0.024,0.043 -0.029,0.079 -0.01,0.068 0.001,0.144 0.001,0.213 -0.002,0.126 0.038,0.244 0.037,0.369 -10e-4,0.032 -0.004,0.067 -0.005,0.102 -0.032,-0.06 -0.032,0.071 -0.032,0.203 -0.001,0.096 -0.015,0.136 0.073,0.185 0.072,0.04 0.164,0.048 0.249,0.027 0.036,-0.01 0.052,-0.025 0.1,-0.027 0.043,-0.002 0.086,0 0.129,0 0.086,0.001 0.127,-0.02 0.201,-0.035 0.04,-0.007 0.089,0.005 0.13,0.003 0.051,-0.003 0.08,-0.023 0.129,-0.032 0.076,-0.015 0.124,0.009 0.175,-0.061 0.01,-0.013 0.016,-0.028 0.02,-0.043 0.049,0 0.099,0 0.148,0 0.33,0.001 0.647,-0.041 0.974,-0.064 0.256,-0.018 0.514,-0.006 0.769,-0.044 0.324,-0.048 0.659,-0.026 0.988,-0.026 0.248,0 0.485,0.018 0.73,0.032 0.116,0.006 0.22,0.031 0.339,0.034 0.173,0.004 0.35,0.027 0.523,0.038 0.46,0.028 0.916,0.03 1.378,0.03 0.136,0 0.272,0 0.408,0.001 0.129,0 0.238,-0.027 0.363,-0.036 0.309,-0.023 0.633,0.001 0.943,0.001 0.324,0.002 0.632,-0.053 0.955,-0.084 0.289,-0.027 0.562,-0.051 0.853,-0.05 0.129,0 0.253,0 0.381,-0.017 0.211,-0.028 0.428,-0.017 0.643,-0.017 0.478,0.001 0.953,0.034 1.431,0.034 0.177,0 0.359,-0.014 0.534,0.008 0.176,0.021 0.354,0.046 0.531,0.056 0.157,0.009 0.311,0.027 0.468,0.037 0.17,0.011 0.349,0.016 0.517,0.041 0.083,0.012 0.166,0.018 0.248,0.022 0.002,0.011 0.003,0.023 0.005,0.033 0.066,0.005 0.11,0.022 0.17,0.047 0.06,0.024 0.103,0.025 0.174,0.025 0.068,0 0.135,-0.001 0.202,0 0.082,0.001 0.142,-0.031 0.221,-0.034 0.08,-0.004 0.127,-0.015 0.202,-0.03 0.075,-0.015 0.163,-0.002 0.24,-0.003 0.07,-0.001 0.122,0.047 0.184,0.037 C -0.034,0.721 0.011,0.66 -0.016,0.621 -0.015,0.62 -0.011,0.62 -0.01,0.619 0.001,0.609 0.026,0.485 0.029,0.472 0.039,0.424 0.032,0.37 0.032,0.321 0.032,0.211 0.047,0.102 0,0 M -2.395,-2.442 C -2.45,-2.5 -2.563,-2.474 -2.646,-2.474 c -0.114,0 -0.23,0.003 -0.345,0.001 -0.1,-0.003 -0.166,-0.051 -0.258,-0.069 -0.107,-0.022 -0.185,0.033 -0.283,0.06 -0.127,0.035 -0.254,0.035 -0.366,0.111 -0.066,0.045 -0.159,0.116 -0.241,0.1 -0.092,-0.018 -0.2,-0.094 -0.295,-0.126 -0.072,-0.024 -0.116,-0.06 -0.185,-0.093 -0.062,-0.028 -0.13,-0.03 -0.194,-0.062 -0.112,-0.055 -0.228,-0.095 -0.345,-0.138 -0.197,-0.073 -0.394,-0.124 -0.606,-0.113 -0.184,0.01 -0.382,0.072 -0.561,0.113 -0.12,0.027 -0.243,0.074 -0.366,0.082 -0.102,0.006 -0.189,-0.009 -0.288,0.013 -0.036,0.008 -0.073,0.027 -0.104,0.035 -0.066,0.018 -0.063,0.01 -0.123,-0.035 -0.05,-0.036 -0.083,-0.036 -0.136,-0.051 -0.052,-0.015 -0.098,-0.048 -0.152,-0.063 -0.054,-0.016 -0.116,-0.007 -0.172,-0.006 -0.179,0.002 -0.357,0.01 -0.533,-0.025 -0.212,-0.042 -0.412,-0.027 -0.624,-0.047 -0.112,-0.01 -0.22,-0.041 -0.333,-0.034 -0.094,0.006 -0.191,0.027 -0.285,0.041 -0.154,0.023 -0.272,0.1 -0.409,0.169 -0.101,0.051 -0.218,0.093 -0.313,0.154 -0.08,0.051 -0.086,0.04 -0.179,0.009 -0.225,-0.075 -0.54,-0.018 -0.786,-0.025 -0.178,-0.005 -0.352,-0.063 -0.531,-0.07 -0.158,-0.006 -0.327,-0.041 -0.48,-0.078 -0.174,-0.043 -0.292,-0.003 -0.454,0.052 -0.055,0.019 -0.122,0.019 -0.168,0.057 -0.044,0.036 -0.069,0.102 -0.11,0.143 -0.156,0.156 -0.389,0.101 -0.593,0.101 -0.226,0 -0.454,-0.057 -0.673,-0.096 -0.093,-0.016 -0.182,-0.013 -0.274,-0.034 -0.067,-0.015 -0.136,-0.006 -0.205,-0.007 -0.157,-0.003 -0.081,0.06 -0.067,0.181 0.009,0.082 -0.042,0.177 0.048,0.198 0.071,0.018 0.169,-0.001 0.243,-0.001 0.086,0 0.172,0 0.258,0 0.086,0 0.159,-0.006 0.239,0.025 0.08,0.031 0.162,0.056 0.242,0.086 0.099,0.036 0.183,0.095 0.275,0.14 0.075,0.037 0.135,0.055 0.204,0.11 0.113,0.09 0.208,0.158 0.287,0.289 0.084,-0.029 0.107,-0.135 0.164,-0.196 0.053,-0.057 0.112,-0.093 0.179,-0.135 0.067,-0.042 0.096,-0.108 0.163,-0.148 0.102,-0.062 0.212,-0.085 0.313,-0.164 0.055,-0.044 0.11,-0.068 0.171,-0.102 0.056,-0.031 0.108,-0.083 0.17,-0.105 0.095,-0.033 0.213,0.016 0.306,0.036 0.206,0.042 0.436,0.066 0.624,0.164 0.074,0.038 0.164,0.057 0.233,0.101 0.042,0.027 0.07,0.068 0.11,0.097 0.052,0.039 0.104,0.06 0.138,0.111 0.061,0.091 0.105,0.219 0.197,0.068 0.054,-0.087 0.133,-0.118 0.214,-0.178 0.091,-0.067 0.176,-0.135 0.275,-0.189 0.033,-0.018 0.067,-0.04 0.098,-0.062 0.016,-0.011 0.068,-0.072 0.082,-0.079 0.121,-0.06 0.283,-0.057 0.411,-0.101 0.076,-0.026 0.119,-0.049 0.202,-0.046 0.203,0.008 0.415,0.071 0.615,0.098 0.173,0.024 0.352,0.161 0.485,0.275 0.133,0.113 0.175,0.302 0.311,0.414 0.049,0.04 0.077,0.062 0.129,0.009 0.028,-0.028 0.041,-0.074 0.074,-0.105 0.04,-0.039 0.096,-0.074 0.142,-0.105 0.091,-0.061 0.184,-0.111 0.272,-0.18 0.114,-0.088 0.242,-0.115 0.372,-0.171 0.112,-0.048 0.183,-0.094 0.309,-0.096 0.105,-10e-4 0.214,-0.006 0.319,0 0.167,0.009 0.325,0.103 0.482,0.15 0.111,0.033 0.229,0.027 0.342,0.049 0.141,0.027 0.259,0.03 0.38,0.111 0.107,0.073 0.204,0.177 0.31,0.245 0.101,0.066 0.186,0.119 0.242,0.239 0.033,0.072 0.02,0.125 0.092,0.058 0.075,-0.069 0.131,-0.175 0.189,-0.258 0.043,-0.063 0.105,-0.096 0.163,-0.144 0.074,-0.062 0.133,-0.119 0.215,-0.174 0.112,-0.073 0.205,-0.148 0.337,-0.181 0.06,-0.015 0.104,-0.037 0.16,-0.059 0.085,-0.035 0.158,-0.05 0.251,-0.069 -0.005,-0.045 0.047,-0.003 0.124,0 0.064,0.003 0.181,0.019 0.243,-0.005 -0.026,-0.073 -0.064,-0.182 -0.116,-0.238 m -13.592,6.481 c 0.017,-10e-4 0.027,-0.013 0.042,-0.017 0.018,-0.004 0.037,-0.001 0.055,-0.001 0.06,0 0.111,0.019 0.17,0.029 0.081,0.014 0.153,0.022 0.234,0.021 0.104,0 0.209,-0.004 0.312,0.009 0.059,0.007 0.117,0.008 0.176,0.008 -0.015,0.026 -0.005,0.038 0.017,0.035 0.015,-0.002 0.014,-0.013 0.027,-0.016 0.025,-0.007 0.058,-0.009 0.078,-0.031 0.031,-0.033 0.012,-0.147 0.012,-0.192 0,-0.316 -0.017,-0.629 -0.017,-0.944 0,-0.087 0.01,-0.18 -0.003,-0.265 -0.011,-0.068 -0.013,-0.127 -0.013,-0.197 -10e-4,-0.143 -0.017,-0.283 -0.017,-0.426 0,-0.079 0.002,-0.157 0,-0.236 -10e-4,-0.073 -0.017,-0.143 -0.017,-0.217 0,-0.066 0,-0.133 0,-0.2 0,-0.022 0.007,-0.062 -0.003,-0.082 -0.018,-0.036 -0.081,-0.084 -0.117,-0.085 -0.024,-10e-4 -0.056,0.014 -0.082,0.014 -0.017,0.001 -0.034,0 -0.05,0 -0.054,0 -0.096,-0.013 -0.148,-0.018 -0.042,-0.005 -0.083,0.007 -0.124,0.014 -0.043,0.007 -0.085,0.004 -0.129,0.003 -0.07,-0.001 -0.135,0.019 -0.205,0.018 -0.051,0 -0.101,-0.008 -0.148,0.012 -0.035,0.016 -0.033,0.013 -0.033,0.054 0.001,0.048 -0.004,0.085 -0.013,0.13 -0.013,0.066 -0.003,0.14 -0.003,0.207 v 0.232 c 0,0.062 -0.008,0.127 0.003,0.188 0.019,0.096 0.01,0.193 0.026,0.29 0.014,0.079 0.004,0.168 0.004,0.249 0,0.195 0.003,0.387 -0.019,0.581 -0.015,0.142 -0.021,0.286 -0.029,0.429 -0.007,0.115 -0.018,0.228 -0.019,0.344 0,0.034 -0.011,0.063 0.033,0.06 m 1.64,-2.675 c 0.018,0.076 0.046,0.151 0.046,0.23 0,0.069 0.011,0.149 0.021,0.218 0.012,0.08 0.014,0.159 0.026,0.24 0.011,0.069 -0.001,0.139 0.005,0.208 0.004,0.043 0.015,0.085 0.017,0.129 0.004,0.108 -0.001,0.218 -0.001,0.327 v 0.295 c 0,0.094 0.009,0.195 -0.004,0.288 -0.016,0.115 -0.018,0.228 -0.005,0.343 0.015,0.121 0.008,0.242 0.009,0.363 0.002,0.187 -0.049,0.366 -0.092,0.545 -0.01,0.043 -0.009,0.082 -0.009,0.126 0,0.031 -0.008,0.074 -0.001,0.104 0.005,0.02 0.012,0.064 0.021,0.078 0.013,0.02 0.045,0.039 0.063,0.054 0.041,0.032 0.081,0.064 0.118,0.1 0.034,0.032 0.049,0.069 0.088,0.097 0.022,0.017 0.044,0.036 0.067,0.051 0.053,0.037 0.134,0.021 0.197,0.021 0.345,0 0.678,-0.118 1.023,-0.117 0.128,0 0.256,0.005 0.381,-0.014 0.069,-0.01 0.136,-0.007 0.203,-0.022 0,-0.023 -0.023,-0.04 -0.029,-0.063 -0.008,-0.027 -0.004,-0.06 -0.004,-0.088 0.001,-0.042 0.001,-0.085 0.001,-0.128 0,-0.091 -0.001,-0.182 0,-0.273 10e-4,-0.172 -0.052,-0.332 -0.051,-0.502 10e-4,-0.057 10e-4,-0.113 0,-0.17 -10e-4,-0.07 0.015,-0.135 0.018,-0.204 0.004,-0.088 0.009,-0.164 0.025,-0.252 0.014,-0.078 0.008,-0.159 0.008,-0.239 0,-0.23 0.01,-0.463 -0.002,-0.693 -0.005,-0.115 -0.01,-0.234 -0.03,-0.347 -0.024,-0.127 -0.057,-0.257 -0.068,-0.386 -0.01,-0.122 -0.001,-0.247 -0.001,-0.37 -0.006,0.017 -0.096,0.022 -0.184,0.004 -0.094,-0.019 -0.208,-0.004 -0.303,-0.004 -0.151,0 -0.296,0.017 -0.447,0.017 -0.086,0 -0.172,-0.001 -0.259,0 -0.089,10e-4 -0.175,-0.017 -0.265,-0.016 -0.052,0 -0.099,-0.015 -0.151,-0.019 -0.034,-0.002 -0.068,0.003 -0.102,0.002 -0.033,-10e-4 -0.063,-0.009 -0.095,-0.014 -0.034,-0.005 -0.066,0.001 -0.1,-0.003 -0.034,-0.004 -0.084,-0.034 -0.118,-0.014 -0.032,0.019 -0.023,0.068 -0.016,0.098 m 5.018,0.103 C -9.327,1.423 -9.327,1.379 -9.326,1.335 -9.324,1.289 -9.319,1.281 -9.366,1.279 -9.415,1.277 -9.464,1.282 -9.513,1.28 -9.641,1.276 -9.768,1.249 -9.896,1.245 -9.924,1.244 -9.952,1.243 -9.979,1.243 c -0.26,-0.003 -0.525,-0.007 -0.784,0.006 -0.087,0.004 -0.174,0.015 -0.261,0.015 -0.129,0 -0.256,-0.048 -0.386,-0.053 -0.045,-0.001 -0.116,-0.01 -0.16,0.005 -0.054,0.018 -0.017,0.069 -0.01,0.11 0.01,0.057 0.011,0.115 -10e-4,0.173 -0.008,0.044 -0.013,0.079 -0.001,0.123 0.017,0.063 0.012,0.116 0.012,0.181 0,0.228 0.017,0.451 0.017,0.679 v 0.829 0.545 c 0,0.099 -0.019,0.214 0.02,0.309 0.051,0.122 0.206,0.073 0.306,0.093 0.075,0.015 0.14,0.032 0.217,0.032 0.036,0 0.073,-0.002 0.111,-0.003 -0.002,0.006 -0.004,0.011 -0.001,0.02 0.143,-0.001 0.112,-0.013 0.071,-0.018 -0.022,-0.003 -0.047,-0.002 -0.07,-0.002 0.006,-0.021 0.044,-0.014 0.065,-0.01 0.09,0.015 0.181,0.031 0.274,0.03 0.104,-0.001 0.204,0.002 0.307,0.013 0.055,0.005 0.106,0.007 0.16,-0.001 0.089,-0.011 0.163,0.003 0.251,0.006 0.07,0.003 0.137,-0.019 0.207,-0.019 0.041,0 0.082,0.004 0.123,0.002 0.033,-0.002 0.06,-0.015 0.091,-0.019 0.026,-0.003 0.074,0.013 0.097,-0.002 0.038,-0.024 0.03,-0.115 0.036,-0.151 0.014,-0.087 0.013,-0.17 0.013,-0.258 0,-0.073 0.005,-0.145 0.002,-0.218 C -9.275,3.622 -9.267,3.547 -9.287,3.513 -9.296,3.499 -9.315,3.496 -9.322,3.481 -9.333,3.459 -9.324,3.411 -9.324,3.386 c 0,-0.038 10e-4,-0.076 0.008,-0.113 0.025,-0.126 0.057,-0.237 0.059,-0.368 0.002,-0.204 0.012,-0.414 0,-0.617 C -9.262,2.199 -9.283,2.11 -9.291,2.022 -9.301,1.931 -9.307,1.838 -9.321,1.748 -9.336,1.656 -9.332,1.561 -9.329,1.467 m -3.233,4.366 c 0.01,0.018 0.003,0.024 0.02,0.039 0.013,0.011 0.035,0.016 0.05,0.027 0.056,0.041 0.099,0.096 0.151,0.14 0.066,0.056 0.126,0.117 0.184,0.181 0.137,0.15 0.308,0.276 0.43,0.439 0.046,0.06 0.092,0.12 0.133,0.183 0.018,0.027 0.06,0.062 0.06,0.098 0.039,0.013 0.09,0.003 0.131,0.003 0.084,0 0.168,0 0.251,0 0.118,0.001 0.233,-0.014 0.35,-0.017 0.129,-0.004 0.26,0 0.389,0.009 0.216,0.014 0.43,-0.01 0.646,-0.007 0.031,0.001 0.059,0.005 0.088,0.014 0.077,0.024 0.157,0.036 0.238,0.027 0.04,-0.004 0.081,-0.01 0.121,-0.021 0.033,-0.009 0.063,-0.034 0.096,-0.04 0.041,-0.007 0.06,0.01 0.065,-0.021 C -9.158,6.88 -9.157,6.871 -9.157,6.859 -9.158,6.796 -9.171,6.737 -9.175,6.675 -9.18,6.594 -9.173,6.523 -9.187,6.443 -9.194,6.406 -9.188,6.372 -9.19,6.335 -9.192,6.302 -9.202,6.269 -9.208,6.236 -9.219,6.161 -9.224,6.092 -9.224,6.015 -9.224,5.968 -9.216,5.914 -9.223,5.869 -9.227,5.846 -9.239,5.827 -9.243,5.804 -9.247,5.776 -9.247,5.746 -9.25,5.718 -9.255,5.65 -9.264,5.583 -9.279,5.518 -9.303,5.415 -9.287,5.311 -9.304,5.207 -9.313,5.152 -9.297,5.094 -9.312,5.04 -9.318,5.018 -9.325,5.002 -9.327,4.977 -9.366,4.986 -9.403,5.002 -9.442,5.01 -9.489,5.02 -9.54,5.005 -9.585,4.996 -9.612,4.991 -9.637,4.994 -9.664,4.989 -9.695,4.983 -9.724,4.967 -9.756,4.962 -9.801,4.954 -9.847,4.96 -9.893,4.959 c -0.051,0 -0.099,-0.011 -0.149,-0.016 -0.119,-0.009 -0.234,-0.004 -0.353,-0.022 -0.114,-0.018 -0.228,-0.013 -0.343,-0.013 h -0.464 c -0.07,0 -0.14,0 -0.21,0 -0.032,0 -0.075,-0.009 -0.106,0.002 -0.017,0.069 -10e-4,0.161 -10e-4,0.233 v 0.333 c 0,0.037 0.023,0.192 -0.016,0.207 -0.011,-10e-4 -0.022,-10e-4 -0.034,-0.002 -0.017,0.002 -0.034,0.008 -0.049,0.018 -0.047,0.017 -0.087,0.017 -0.137,0.017 -0.185,-0.001 -0.387,-0.049 -0.569,-0.004 -0.022,0.005 -0.043,0.004 -0.066,0.004 -0.032,-0.001 -0.055,0.007 -0.085,0.013 -0.022,0.004 -0.044,-0.001 -0.066,0.003 -0.023,0.003 -0.042,0.017 -0.066,0.021 0.014,0.027 0.031,0.052 0.045,0.08 m 3.79,-4.253 c 0.006,0.181 0.051,0.36 0.05,0.542 -0.001,0.117 0.018,0.233 0.017,0.35 -10e-4,0.139 -0.003,0.276 0.013,0.414 0.015,0.133 -0.015,0.26 -0.013,0.392 10e-4,0.148 0.005,0.296 -0.034,0.44 -0.034,0.126 -0.022,0.276 -0.017,0.406 0.002,0.056 0.017,0.111 0.018,0.168 10e-4,0.04 -0.001,0.08 -0.001,0.121 0.001,0.058 0,0.116 0,0.174 0.05,0 0.099,0 0.148,0 0.093,0 0.183,0.009 0.276,0.015 0.1,0.005 0.202,0.005 0.299,0.033 0.046,0.013 0.09,0.035 0.136,0.049 0.057,0.017 0.111,0.018 0.17,0.019 0.072,0.002 0.14,0.017 0.212,0.017 0.062,-10e-4 0.124,0.002 0.186,0 0.055,-10e-4 0.109,-0.022 0.165,-0.018 0.046,0.003 0.087,0.018 0.134,0.018 0.047,-10e-4 0.088,-10e-4 0.133,0.008 0.017,0.003 0.033,0.003 0.049,0.003 0.002,0.009 0.002,0.018 0.005,0.026 0.054,0.002 0.096,0.019 0.15,0.019 0.135,0.002 0.273,-0.009 0.407,0.004 0.082,0.007 0.157,0.019 0.24,0.011 0.09,-0.009 0.178,-0.028 0.268,-0.037 0.135,-0.015 0.264,-0.031 0.401,-0.03 0.209,10e-4 0.421,-0.037 0.631,-0.016 0.079,0.008 0.15,0.033 0.231,0.034 0.046,0 0.099,0.01 0.142,-0.004 C -4.386,4.686 -4.376,4.61 -4.381,4.553 -4.386,4.504 -4.369,4.463 -4.35,4.417 -4.325,4.355 -4.325,4.295 -4.323,4.23 -4.319,4.151 -4.307,4.073 -4.3,3.994 -4.288,3.852 -4.301,3.706 -4.301,3.564 V 2.555 C -4.301,2.397 -4.307,2.238 -4.302,2.08 -4.298,1.915 -4.236,1.757 -4.232,1.594 -4.229,1.477 -4.199,1.319 -4.374,1.279 -4.409,1.27 -4.45,1.27 -4.481,1.254 -4.51,1.24 -4.526,1.218 -4.555,1.204 -4.582,1.191 -4.616,1.183 -4.645,1.171 -4.697,1.149 -4.718,1.136 -4.78,1.135 c -0.047,0 -0.085,0.007 -0.131,0.014 -0.044,0.007 -0.09,-0.003 -0.134,0.006 -0.063,0.013 -0.118,0.051 -0.18,0.069 C -5.307,1.247 -5.41,1.267 -5.497,1.275 -5.603,1.286 -5.689,1.242 -5.791,1.239 -5.934,1.234 -6.079,1.251 -6.222,1.236 -6.282,1.23 -6.339,1.218 -6.4,1.221 -6.464,1.224 -6.519,1.246 -6.581,1.254 -6.627,1.26 -6.676,1.258 -6.726,1.255 -6.735,1.231 -6.744,1.206 -6.748,1.18 -6.802,1.168 -6.858,1.201 -6.912,1.209 -7.024,1.226 -7.138,1.219 -7.248,1.24 -7.302,1.249 -7.351,1.261 -7.405,1.261 -7.464,1.26 -7.525,1.255 -7.584,1.26 c -0.06,0.004 -0.111,0.018 -0.174,0.017 -0.059,0 -0.119,-0.004 -0.178,0.002 -0.071,0.006 -0.136,0.02 -0.209,0.014 C -8.216,1.286 -8.268,1.276 -8.338,1.285 -8.4,1.294 -8.459,1.294 -8.521,1.293 c -0.053,0 -0.097,0.01 -0.149,0.016 -0.029,0.003 -0.058,-0.002 -0.086,0.001 -0.035,0.004 -0.029,10e-4 -0.033,0.033 -0.012,0.08 0.015,0.159 0.017,0.237 m 0.016,4.33 c 10e-4,0.059 0.017,0.115 0.018,0.175 10e-4,0.044 0,0.089 -0.001,0.134 -10e-4,0.109 0.039,0.211 0.049,0.32 0.008,0.077 0.002,0.158 0.002,0.236 0,0.097 0.005,0.188 0.015,0.284 0.019,0.18 0.002,0.371 0.002,0.553 v 0.222 c 0,0.029 -0.013,0.092 0.002,0.119 0.022,0.039 0.069,0.033 0.106,0.033 0.062,-10e-4 0.119,0.015 0.18,0.017 0.087,0.002 0.17,0.017 0.256,0.017 0.046,-10e-4 0.094,-0.003 0.14,-0.002 0.064,0.002 0.126,0.023 0.19,0.032 0.112,0.016 0.228,-0.007 0.34,0.004 0.121,0.012 0.238,0.016 0.36,0.016 0.11,0 0.223,0.007 0.333,0 0.029,-0.002 0.098,-0.009 0.086,-0.051 0.038,0.07 0.024,-0.062 0.013,-0.114 C -6.674,7.863 -6.7,7.812 -6.708,7.764 -6.721,7.685 -6.712,7.598 -6.712,7.519 -6.711,7.402 -6.741,7.291 -6.746,7.175 -6.75,7.081 -6.743,6.987 -6.745,6.893 -6.748,6.748 -6.7,6.599 -6.681,6.456 -6.669,6.366 -6.678,6.272 -6.679,6.181 -6.679,6.09 -6.666,6 -6.661,5.909 -6.653,5.738 -6.627,5.572 -6.628,5.4 c 0,-0.058 0,-0.115 0,-0.173 h -0.08 c -0.123,0 -0.247,0 -0.37,10e-4 C -7.191,5.229 -7.298,5.208 -7.41,5.198 -7.529,5.187 -7.651,5.16 -7.77,5.159 -7.854,5.159 -7.934,5.156 -8.018,5.147 -8.144,5.134 -8.276,5.143 -8.403,5.143 c -0.115,0 -0.236,0.002 -0.35,-0.017 -10e-4,0.006 -0.002,0.01 -0.002,0.017 0.001,0.255 -0.005,0.511 -10e-4,0.767 m 0.136,2.799 c 0.09,0.165 0.175,0.332 0.257,0.501 0.072,0.145 0.138,0.293 0.185,0.448 0.016,0.051 0.038,0.099 0.05,0.152 0.014,0.064 0.018,0.13 0.025,0.195 0.03,0.27 0.138,0.521 0.151,0.795 0.006,0.124 0.045,0.251 0.068,0.373 0.026,0.132 0.036,0.269 0.046,0.403 0.01,0.127 0.004,0.256 0.004,0.383 0,0.098 -0.018,0.221 0.009,0.317 0.018,0.062 0.055,0.111 0.059,0.177 0.004,0.07 -0.007,0.142 -0.002,0.211 0.005,0.053 0.015,0.101 0.017,0.154 0.002,0.072 0.047,0.134 0.052,0.205 0.004,0.051 0.009,0.091 0.02,0.143 0.006,0.029 0.017,0.069 0.009,0.098 -0.004,0.018 -0.021,0.029 -0.026,0.045 -0.016,0.059 0.063,0.086 0.081,0.026 0.007,-0.026 -10e-4,-0.066 -10e-4,-0.093 v -0.123 c 0,-0.047 0,-0.093 0,-0.139 -0.001,-0.057 0.013,-0.11 0.021,-0.167 0.009,-0.068 0.013,-0.13 0.035,-0.195 0.021,-0.061 0.042,-0.137 0.045,-0.201 0.005,-0.074 -0.001,-0.151 0,-0.226 10e-4,-0.104 -0.028,-0.205 -0.016,-0.31 0.005,-0.044 0.015,-0.086 0.016,-0.13 0.002,-0.049 -0.004,-0.098 -0.001,-0.147 0.002,-0.044 0.016,-0.087 0.018,-0.131 0.002,-0.053 -0.007,-0.106 0.003,-0.159 0.04,-0.218 0.068,-0.436 0.078,-0.66 0.007,-0.17 0.034,-0.34 0.07,-0.506 0.005,-0.027 0.008,-0.054 0.018,-0.08 0.014,-0.033 0.031,-0.035 0.056,-0.056 0.02,-0.017 0.024,-0.032 0.034,-0.06 0.035,-0.095 0.063,-0.193 0.09,-0.291 0.048,-0.169 0.093,-0.34 0.165,-0.501 0.03,-0.065 0.035,-0.134 0.058,-0.2 C -6.911,8.916 -6.88,8.881 -6.866,8.834 -6.844,8.763 -6.842,8.676 -6.795,8.616 -6.778,8.594 -6.708,8.551 -6.71,8.523 -6.711,8.494 -6.889,8.503 -6.912,8.506 -6.967,8.512 -7.017,8.538 -7.07,8.55 -7.117,8.56 -7.162,8.557 -7.209,8.558 -7.287,8.559 -7.357,8.537 -7.433,8.527 -7.487,8.52 -7.537,8.521 -7.59,8.511 -7.651,8.499 -7.721,8.507 -7.784,8.507 c -0.058,0 -0.107,-0.011 -0.163,-0.018 -0.05,-0.006 -0.098,0.003 -0.148,-0.007 -0.063,-0.014 -0.096,0.006 -0.157,0.009 -0.092,0.005 -0.179,0.016 -0.272,0.016 -0.061,0 -0.138,-0.012 -0.197,0.003 -10e-4,0.019 0.018,0.036 -0.018,0.031 0.065,0.025 0.089,0.112 0.119,0.168 m 2.234,-3.496 c 0.056,0.101 0.096,0.202 0.164,0.296 0.014,0.02 0.028,0.04 0.04,0.061 0.02,0.035 0.037,0.071 0.05,0.109 0.021,0.059 0.033,0.121 0.064,0.176 0.047,0.085 0.125,0.146 0.197,0.208 0.091,0.079 0.175,0.164 0.266,0.244 0.049,0.044 0.087,0.095 0.121,0.152 0.012,0.019 0.016,0.041 0.033,0.056 0.012,0.011 0.028,0.011 0.038,0.022 C -5.414,6.536 -5.407,6.519 -5.397,6.501 -5.386,6.479 -5.373,6.454 -5.369,6.45 -5.351,6.427 -5.328,6.415 -5.31,6.39 -5.266,6.328 -5.222,6.267 -5.172,6.209 -5.072,6.093 -4.963,5.986 -4.863,5.871 -4.809,5.807 -4.761,5.739 -4.716,5.669 -4.686,5.623 -4.652,5.568 -4.609,5.534 -4.558,5.493 -4.502,5.465 -4.462,5.413 -4.418,5.356 -4.391,5.27 -4.363,5.204 -4.399,5.232 -4.499,5.233 -4.54,5.232 -4.64,5.231 -4.741,5.228 -4.841,5.231 -5.015,5.237 -5.184,5.282 -5.359,5.282 H -5.594 C -5.681,5.282 -5.766,5.264 -5.853,5.265 -5.928,5.266 -5.999,5.269 -6.071,5.244 -6.11,5.232 -6.144,5.218 -6.184,5.215 -6.211,5.213 -6.226,5.213 -6.251,5.202 -6.283,5.19 -6.309,5.18 -6.343,5.173 -6.393,5.162 -6.413,5.162 -6.386,5.213 m 0.345,2.034 c 0.017,0.079 0.031,0.17 0.03,0.253 0,0.041 -0.009,0.348 0.033,0.288 0.117,0 0.233,0.003 0.349,10e-4 0.122,-10e-4 0.237,-0.03 0.356,-0.048 0.118,-0.018 0.239,-0.016 0.355,-0.045 0.041,-0.01 0.079,-0.026 0.12,-0.034 0.069,-0.014 0.142,-0.006 0.212,-0.001 0.136,0.01 0.271,0.008 0.407,0.009 0.095,0.001 0.195,0.027 0.289,0.017 0.036,-0.005 0.088,-0.008 0.121,-0.019 0.01,-0.142 0.105,-0.259 0.153,-0.392 0.022,-0.059 0.04,-0.119 0.067,-0.178 0.028,-0.062 0.071,-0.104 0.118,-0.151 0.044,-0.044 0.088,-0.082 0.135,-0.121 0.041,-0.034 0.066,-0.087 0.098,-0.13 0.08,-0.107 0.155,-0.217 0.239,-0.32 0.046,-0.058 0.093,-0.104 0.131,-0.169 0.033,-0.056 0.058,-0.11 0.084,-0.17 0.022,-0.051 0.057,-0.094 0.08,-0.144 0.011,-0.036 0.024,-0.071 0.037,-0.106 0.01,-0.013 0.021,-0.025 0.034,-0.034 0.022,-0.027 0.056,-0.067 0.065,-0.097 -0.09,-0.026 -0.2,0.015 -0.289,0.026 C -2.947,5.7 -3.082,5.687 -3.212,5.704 -3.249,5.709 -3.281,5.719 -3.318,5.72 -3.363,5.721 -3.404,5.719 -3.449,5.732 -3.534,5.756 -3.612,5.77 -3.701,5.77 c -0.089,0 -0.177,0.001 -0.266,0 C -4.011,5.769 -4.064,5.781 -4.1,5.806 -4.178,5.863 -4.225,5.955 -4.289,6.026 -4.355,6.1 -4.416,6.184 -4.501,6.238 -4.54,6.263 -4.567,6.287 -4.599,6.32 -4.632,6.354 -4.675,6.378 -4.706,6.413 -4.76,6.474 -4.795,6.555 -4.846,6.619 -4.897,6.681 -4.944,6.765 -5.007,6.815 -5.029,6.832 -5.04,6.837 -5.052,6.863 c -0.017,0.035 -0.001,0.033 -0.046,0.034 -0.199,0.005 -0.41,-0.023 -0.608,0.004 -0.072,0.009 -0.14,0.013 -0.213,0.013 -0.043,0 -0.106,-0.018 -0.122,0.032 -0.014,0.043 -0.004,0.101 -0.004,0.146 0,0.05 -0.006,0.106 0.004,0.155 M -2.359,4.963 C -2.312,4.94 -2.282,4.908 -2.241,4.877 -2.197,4.844 -2.103,4.825 -2.09,4.761 -2.076,4.693 -2.123,4.617 -2.125,4.549 -2.129,4.47 -2.133,4.381 -2.121,4.303 -2.085,4.077 -2.105,3.831 -2.123,3.603 -2.13,3.521 -2.119,3.439 -2.128,3.357 -2.136,3.289 -2.142,3.224 -2.142,3.155 -2.141,3.067 -2.131,2.983 -2.127,2.895 -2.123,2.816 -2.104,2.744 -2.094,2.666 -2.078,2.543 -2.091,2.412 -2.091,2.288 V 2.028 1.774 c 0,-0.03 -0.003,-0.062 0,-0.092 0.001,-0.023 0.01,-0.038 0.015,-0.06 0.008,-0.036 0.005,-0.072 0.014,-0.108 0.009,-0.033 0.019,-0.068 0.022,-0.102 10e-4,-0.014 0.006,-0.053 0,-0.066 C -2.05,1.322 -2.066,1.33 -2.091,1.33 -2.135,1.331 -2.16,1.345 -2.2,1.347 -2.308,1.352 -2.408,1.328 -2.51,1.293 -2.581,1.268 -2.633,1.245 -2.71,1.246 -2.76,1.246 -2.798,1.247 -2.845,1.259 -2.993,1.296 -3.15,1.253 -3.299,1.283 -3.398,1.303 -3.472,1.288 -3.566,1.266 -3.6,1.258 -3.647,1.258 -3.683,1.262 c -0.036,0.005 -0.032,0.004 -0.033,0.043 -10e-4,0.019 0,0.039 0,0.058 v 0.126 0.415 c 0,0.268 -0.007,0.538 -10e-4,0.806 0.002,0.076 0.019,0.148 0.018,0.225 -0.001,0.069 -0.001,0.136 0.007,0.205 0.022,0.164 0.05,0.328 0.06,0.493 0.005,0.099 0.014,0.199 0.025,0.297 0.009,0.084 0.004,0.168 0.012,0.253 0.013,0.145 0.013,0.287 0.013,0.433 v 0.599 c 0.06,0.08 0.027,0.057 0.018,0.081 0.104,-0.03 0.219,-0.034 0.333,-0.031 0.035,0.001 0.063,0.014 0.097,0.018 0.037,0.004 0.077,-0.007 0.114,-0.001 0.053,0.008 0.086,0.033 0.137,-0.003 C -2.849,5.255 -2.826,5.24 -2.786,5.222 -2.741,5.201 -2.712,5.163 -2.677,5.13 -2.65,5.104 -2.621,5.099 -2.589,5.081 -2.558,5.064 -2.536,5.037 -2.503,5.022 -2.456,5 -2.406,4.986 -2.359,4.963 M -1.47,1.749 c 0.01,0.111 0.016,0.216 0.016,0.327 0,0.093 -0.005,0.188 -0.001,0.281 0.003,0.087 0.017,0.17 0.017,0.258 0,0.101 0,0.202 0,0.302 0,0.137 10e-4,0.273 0,0.409 -0.001,0.12 0.018,0.237 0.017,0.357 0,0.159 -0.017,0.314 -0.017,0.472 0.039,0.016 0.023,0.028 0.005,0.035 0.02,-0.002 0.045,0.004 0.063,0 0.013,-0.003 0.015,-0.014 0.026,-0.016 0.039,-0.007 0.083,-0.017 0.124,-0.019 0.041,-0.002 0.097,0.013 0.136,10e-4 0.013,-0.004 0.016,-0.015 0.031,-0.018 0.015,-0.004 0.034,0.009 0.048,-0.002 0.019,-0.014 0.035,-0.061 0.049,-0.082 0.019,-0.029 0.035,-0.058 0.054,-0.087 0.033,-0.055 0.082,-0.098 0.118,-0.153 0.044,-0.067 0.091,-0.132 0.143,-0.194 0.056,-0.067 0.116,-0.129 0.167,-0.201 0.031,-0.044 0.065,-0.077 0.097,-0.118 0.044,-0.056 0.028,-0.126 0.028,-0.195 0,-0.139 0.02,-0.29 -0.004,-0.426 -0.029,-0.175 -0.012,-0.363 -0.013,-0.541 0,-0.165 -0.033,-0.326 -0.033,-0.49 0,-0.076 0.007,-0.154 -0.01,-0.228 C -0.417,1.384 -0.429,1.348 -0.437,1.311 -0.439,1.302 -0.445,1.256 -0.452,1.248 -0.465,1.235 -0.531,1.246 -0.549,1.246 -0.583,1.246 -0.617,1.249 -0.65,1.242 -0.729,1.227 -0.806,1.229 -0.889,1.229 c -0.116,0 -0.232,10e-4 -0.348,0 -0.028,0 -0.056,-0.004 -0.084,0.003 -0.029,0.007 -0.053,0.029 -0.084,0.032 -0.039,0.003 -0.036,-0.008 -0.053,0.028 -0.026,0.052 -0.013,0.13 -0.013,0.19 0,0.089 -0.007,0.18 0.001,0.267 M 2.32,2.675 C 2.284,2.844 2.207,2.992 2.24,3.186 2.272,3.376 2.15,3.56 2.035,3.727 V 3.614 C 2.022,3.613 2.009,3.612 1.996,3.612 1.991,3.702 1.968,3.796 1.982,3.883 2.031,4.17 2.098,4.454 2.149,4.74 2.163,4.821 2.16,4.91 2.14,4.989 2.077,5.253 2.005,5.515 1.932,5.776 1.871,5.993 1.809,6.209 1.735,6.421 1.69,6.548 1.624,6.668 1.561,6.787 1.535,6.836 1.49,6.874 1.456,6.919 1.442,6.938 1.432,6.962 1.424,6.985 1.376,7.12 1.485,7.259 1.409,7.395 1.383,7.44 1.369,7.496 1.363,7.548 1.343,7.698 1.33,7.849 1.313,7.999 1.31,8.025 1.303,8.053 1.288,8.073 1.206,8.188 1.119,8.3 1.038,8.416 1.024,8.436 1.032,8.472 1.028,8.511 0.841,8.679 0.756,8.944 0.558,9.135 0.381,9.306 0.269,9.545 0.127,9.753 c -0.094,0.137 -0.191,0.272 -0.282,0.411 -0.079,0.12 -0.208,0.201 -0.221,0.377 -0.007,0.095 -0.109,0.196 -0.19,0.271 -0.161,0.151 -0.337,0.286 -0.507,0.427 -0.003,-0.025 -0.007,-0.054 -0.01,-0.084 -0.011,-0.004 -0.021,-0.008 -0.032,-0.013 -0.067,0.1 -0.133,0.2 -0.202,0.298 -0.044,0.065 -0.092,0.127 -0.138,0.19 -0.034,0.047 -0.069,0.093 -0.101,0.141 -0.055,0.08 -0.107,0.163 -0.161,0.243 -0.019,0.028 -0.046,0.049 -0.066,0.076 -0.081,0.107 -0.158,0.219 -0.245,0.321 -0.022,0.026 -0.078,0.028 -0.119,0.033 -0.059,0.008 -0.123,-0.001 -0.179,0.015 -0.239,0.069 -0.477,0.138 -0.711,0.223 -0.094,0.034 -0.187,0.093 -0.259,0.163 -0.223,0.215 -0.5,0.36 -0.708,0.596 -0.11,0.125 -0.288,0.193 -0.442,0.274 -0.172,0.09 -0.35,0.166 -0.527,0.246 -0.097,0.043 -0.193,0.099 -0.295,0.114 -0.199,0.029 -0.402,0.029 -0.603,0.048 -0.232,0.022 -0.472,0.004 -0.686,0.122 -0.23,0.126 -0.481,0.103 -0.729,0.106 -0.017,10e-4 -0.04,-0.003 -0.051,-0.013 -0.111,-0.104 -0.238,-0.06 -0.36,-0.037 -0.018,0.003 -0.029,0.049 -0.049,0.086 -0.056,0.008 -0.129,0.025 -0.201,0.026 -0.155,0.003 -0.309,-0.003 -0.463,-0.006 -0.161,-0.002 -0.322,-0.015 -0.482,-0.002 -0.15,0.011 -0.298,0.051 -0.446,0.079 -0.003,0 -0.004,0.008 -0.007,0.008 -0.06,0.006 -0.127,0.031 -0.18,0.013 -0.139,-0.047 -0.278,-0.102 -0.404,-0.176 -0.066,-0.038 -0.173,-0.059 -0.17,-0.175 0,-0.017 -0.028,-0.038 -0.047,-0.049 -0.077,-0.043 -0.155,-0.083 -0.233,-0.124 0,0.012 10e-4,0.025 0.002,0.037 -0.023,0.005 -0.047,0.017 -0.068,0.013 -0.113,-0.023 -0.224,-0.055 -0.338,-0.075 -0.046,-0.008 -0.097,0.019 -0.142,0.011 -0.177,-0.029 -0.353,-0.067 -0.529,-0.101 -0.217,-0.042 -0.433,-0.083 -0.649,-0.125 -0.03,-0.006 -0.061,-0.028 -0.089,-0.024 -0.199,0.029 -0.368,-0.079 -0.552,-0.118 -0.033,-0.006 -0.058,-0.048 -0.087,-0.074 0.006,-0.005 0.012,-0.01 0.018,-0.016 l 0.168,0.055 c 0.004,-0.011 0.008,-0.022 0.012,-0.033 -0.117,-0.079 -0.234,-0.158 -0.351,-0.237 -0.006,0.016 -0.011,0.033 -0.017,0.049 -0.041,-0.003 -0.09,0.007 -0.122,-0.012 -0.101,-0.057 -0.197,-0.124 -0.294,-0.189 -0.157,-0.104 -0.308,-0.221 -0.474,-0.309 -0.12,-0.064 -0.268,-0.072 -0.39,-0.132 -0.287,-0.144 -0.573,-0.294 -0.761,-0.573 -0.068,-0.102 -0.147,-0.197 -0.237,-0.317 -0.021,0.043 -0.032,0.065 -0.04,0.081 -0.217,-0.183 -0.295,-0.438 -0.43,-0.656 -0.123,-0.199 -0.25,-0.403 -0.413,-0.567 -0.197,-0.201 -0.437,-0.358 -0.651,-0.542 -0.212,-0.183 -0.251,-0.45 -0.316,-0.702 -0.026,-0.102 -0.049,-0.205 -0.074,-0.308 -0.012,0.003 -0.024,0.005 -0.037,0.008 0.004,0.031 0.007,0.061 0.011,0.091 C -17.28,9.167 -17.299,9.105 -17.333,9.052 -17.403,8.939 -17.48,8.83 -17.556,8.72 -17.576,8.692 -17.605,8.67 -17.624,8.641 -17.743,8.465 -17.862,8.288 -17.977,8.109 -17.997,8.078 -18.005,8.037 -18.014,8 -18.062,7.8 -18.101,7.598 -18.156,7.4 -18.206,7.217 -18.271,7.039 -18.329,6.859 l -0.029,0.008 c -0.006,0.018 -0.012,0.036 -0.015,0.046 -0.022,-0.114 -0.052,-0.229 -0.064,-0.347 -0.015,-0.15 -0.008,-0.303 -0.021,-0.454 -0.014,-0.155 0.017,-0.315 -0.067,-0.463 -0.047,-0.082 -0.088,-0.175 -0.104,-0.268 -0.067,-0.405 -0.119,-0.811 -0.33,-1.178 -0.152,-0.264 -0.164,-0.565 -0.111,-0.857 0.086,-0.476 0.17,-0.955 0.358,-1.406 0.011,-0.027 0.041,-0.045 0.057,-0.07 0.063,-0.095 0.125,-0.193 0.186,-0.289 -0.006,-0.005 -0.013,-0.01 -0.02,-0.016 -0.023,0.011 -0.046,0.021 -0.069,0.032 0.104,-0.139 0.123,-0.31 0.075,-0.439 -0.054,-0.145 -0.049,-0.256 0.013,-0.382 0.007,0.012 0.013,0.023 0.035,0.061 0.01,-0.11 0.017,-0.194 0.025,-0.277 0.008,-0.089 0.01,-0.179 0.025,-0.267 0.086,-0.495 0.284,-0.954 0.456,-1.423 0.173,-0.469 0.488,-0.856 0.738,-1.28 0.132,-0.223 0.312,-0.427 0.533,-0.588 0.247,-0.182 0.497,-0.356 0.67,-0.63 0.121,-0.192 0.31,-0.344 0.48,-0.503 0.269,-0.253 0.541,-0.503 0.823,-0.742 0.436,-0.371 0.863,-0.764 1.458,-0.871 0.04,-0.008 0.082,-0.001 0.122,-0.008 0.14,-0.024 0.288,-0.03 0.416,-0.084 0.131,-0.055 0.241,-0.159 0.362,-0.238 0.02,-0.013 0.05,-0.011 0.076,-0.016 0.039,-0.006 0.087,0 0.117,-0.021 0.235,-0.168 0.48,-0.31 0.764,-0.386 0.201,-0.054 0.397,-0.131 0.594,-0.202 0.065,-0.023 0.126,-0.081 0.189,-0.083 0.244,-0.006 0.46,-0.115 0.692,-0.162 0.341,-0.07 0.68,-0.163 1.013,0.036 0.036,0.022 0.095,0.01 0.143,0.005 0.048,-0.005 0.096,-0.033 0.142,-0.028 0.448,0.055 0.896,0.115 1.344,0.173 0.225,0.029 0.451,0.054 0.677,0.082 0.178,0.023 0.358,0.042 0.535,0.073 0.222,0.04 0.443,0.092 0.664,0.138 0.011,0.002 0.023,-0.001 0.035,10e-4 0.104,0.016 0.22,0.009 0.309,0.056 0.266,0.139 0.521,0.298 0.78,0.45 0.079,0.047 0.147,0.137 0.256,0.056 0.01,-0.008 0.043,0.009 0.063,0.02 0.269,0.137 0.559,0.206 0.853,0.252 0.209,0.032 0.299,0.195 0.418,0.329 0.011,0.013 0.005,0.043 0.008,0.082 -0.042,-0.037 -0.072,-0.063 -0.102,-0.089 -0.009,0.005 -0.018,0.011 -0.026,0.016 0.031,0.053 0.051,0.119 0.096,0.156 0.183,0.154 0.364,0.311 0.545,0.466 0.268,0.229 0.474,0.527 0.797,0.697 0.123,0.065 0.217,0.185 0.327,0.278 0.021,0.019 0.052,0.028 0.079,0.039 0.248,0.094 0.484,0.2 0.601,0.465 0.1,0.227 0.202,0.454 0.319,0.673 0.057,0.106 0.141,0.203 0.229,0.286 0.355,0.337 0.732,0.65 0.958,1.1 0.078,0.156 0.184,0.297 0.275,0.446 0.028,0.046 0.052,0.096 0.07,0.146 0.08,0.215 0.166,0.427 0.232,0.646 0.061,0.203 0.102,0.413 0.147,0.621 0.033,0.154 0.047,0.313 0.087,0.465 0.054,0.206 0.159,0.405 0.178,0.612 0.02,0.212 0.065,0.415 0.113,0.62 0.019,0.084 0.066,0.174 0.05,0.251"
             style="fill:#110f0d;fill-opacity:1;fill-rule:nonzero;stroke:none"
             id="path395" />
        </g>
        <g
           id="g397"
           transform="translate(56.0093,396.3089)">
          <path
             d="M 0,0 C 0.008,0.039 0.013,0.075 0.011,0.115 0.007,0.224 -0.001,0.334 -0.003,0.443 -0.004,0.482 0.025,0.521 0.012,0.56 0.007,0.574 -0.011,0.589 -0.016,0.604 -0.026,0.635 -0.02,0.67 -0.023,0.701 -0.025,0.735 -0.03,0.769 -0.032,0.803 -0.033,0.832 -0.042,0.858 -0.053,0.882 -0.079,0.94 -0.199,0.888 -0.252,0.879 -0.289,0.872 -0.342,0.894 -0.358,0.863 -0.36,0.86 -0.361,0.856 -0.362,0.852 -0.364,0.835 -0.355,0.813 -0.355,0.797 v -0.14 c 0,-0.122 0.012,-0.245 0.011,-0.368 0,-0.077 0.004,-0.152 -0.003,-0.229 -0.005,-0.046 -0.007,-0.092 -0.008,-0.138 -0.001,-0.023 -0.006,-0.032 0.024,-0.038 0.038,-0.007 0.088,-0.012 0.127,-0.012 0.044,-0.001 0.089,0 0.134,0 0.029,0 0.077,-0.013 0.088,0.015 0.006,0.014 -0.019,0.043 -0.021,0.06 -0.003,0.018 0,0.036 0.003,0.053"
             style="fill:#110f0d;fill-opacity:1;fill-rule:nonzero;stroke:none"
             id="path399" />
        </g>
      </g>
    </g>
  </g>
</svg>
