<?xml version="1.0" encoding="UTF-8" standalone="no"?>
<!-- Created with Inkscape (http://www.inkscape.org/) -->

<svg
   width="24.05946"
   height="24"
   viewBox="0 0 6.3657319 6.35"
   version="1.1"
   id="svg5896"
   inkscape:version="1.2.1 (9c6d41e4, 2022-07-14)"
   sodipodi:docname="return-to-turn-back-time.svg"
   xmlns:inkscape="http://www.inkscape.org/namespaces/inkscape"
   xmlns:sodipodi="http://sodipodi.sourceforge.net/DTD/sodipodi-0.dtd"
   xmlns="http://www.w3.org/2000/svg"
   xmlns:svg="http://www.w3.org/2000/svg">
  <sodipodi:namedview
     id="namedview5898"
     pagecolor="#505050"
     bordercolor="#eeeeee"
     borderopacity="1"
     inkscape:showpageshadow="0"
     inkscape:pageopacity="0"
     inkscape:pagecheckerboard="0"
     inkscape:deskcolor="#505050"
     inkscape:document-units="mm"
     showgrid="false"
     inkscape:zoom="0.7046647"
     inkscape:cx="-112.11006"
     inkscape:cy="193.70915"
     inkscape:window-width="1390"
     inkscape:window-height="941"
     inkscape:window-x="0"
     inkscape:window-y="25"
     inkscape:window-maximized="0"
     inkscape:current-layer="layer1" />
  <defs
     id="defs5893">
    <clipPath
       clipPathUnits="userSpaceOnUse"
       id="clipPath1743">
      <path
         d="m 105.111,331.223 h 22.058 v 21.883 h -22.058 z"
         id="path1741" />
    </clipPath>
  </defs>
  <g
     inkscape:label="Layer 1"
     inkscape:groupmode="layer"
     id="layer1"
     transform="translate(-134.61612,-97.45205)">
    <g
       id="g1737"
       transform="matrix(0.29716561,0,0,-0.29716561,103.28615,202.30656)">
      <g
         id="g1739"
         clip-path="url(#clipPath1743)">
        <g
           id="g1745"
           transform="matrix(0.1531793,0,0,-0.1519643,116.14006,342.07697)">
          <g
             id="g1747"
             transform="translate(43.6465,-21.9916)">
            <path
               d="m 0,0 c -1.049,0.012 -2.104,-0.21 -3.141,-0.356 -0.873,-0.122 -1.719,-0.376 -2.605,-0.357 -2.006,0.042 -3.964,-0.712 -5.98,-0.712 -1.081,0 -2.135,0.151 -3.2,0.325 -0.591,0.098 -1.181,0.173 -1.776,0.245 -0.553,0.067 -1.086,0.232 -1.64,0.281 -0.887,0.078 -1.748,0.001 -2.634,0.118 -0.531,0.07 -1.067,-0.006 -1.599,0.059 -0.367,0.044 -0.719,0.166 -1.081,0.228 -0.334,0.057 -0.666,-0.008 -0.998,0.059 -0.342,0.068 -0.583,0.116 -0.938,0.114 -0.062,-0.001 -0.417,0.049 -0.487,0.006 -0.192,-0.114 -0.087,-0.111 -0.136,-0.306 -0.103,-0.409 0.001,-0.969 0.004,-1.389 0.004,-0.678 0.002,-1.343 -0.078,-2.019 -0.113,-0.964 -0.502,-1.859 -0.491,-2.824 1.172,-0.142 2.33,0.024 3.339,-0.174 1.137,-0.223 2.156,-0.547 3.337,-0.539 1.029,0.008 2.058,0.004 3.087,0.004 0.831,0 1.717,0.095 2.539,-0.032 1.054,-0.163 2.114,-0.11 3.18,-0.11 0.697,0 1.365,-0.033 2.046,0.107 1.704,0.352 3.324,0.951 4.94,1.599 0.855,0.342 1.696,0.618 2.589,0.848 0.823,0.212 1.621,0.469 2.34,0.917 0.704,0.439 1.448,0.719 2.117,1.21 0.712,0.524 1.506,0.809 2.282,1.215 C 6.41,-0.752 7.767,-0.016 9.37,0 6.247,0 3.122,-0.037 0,0 m 3.021,14.622 c -0.386,0.013 -0.604,0.193 -0.984,0.284 -0.468,0.112 -0.957,0.138 -1.443,0.138 -0.361,0 -0.729,0.023 -1.088,0.003 -0.438,-0.023 -0.855,-0.138 -1.299,-0.152 -0.678,-0.021 -1.353,0.054 -2.028,-0.025 -0.73,-0.085 -1.459,-0.138 -2.19,-0.22 -0.546,-0.062 -1.079,-0.048 -1.626,-0.134 -0.89,-0.141 -1.763,-0.19 -2.666,-0.184 -1.186,0.006 -2.373,0.002 -3.559,0.002 -0.63,0.001 -1.271,-0.045 -1.897,0.032 -0.424,0.052 -0.805,0.116 -1.232,0.112 -1.267,-0.011 -2.534,0.02 -3.801,0.002 -0.378,-0.005 -0.705,-0.126 -1.078,-0.149 -0.549,-0.035 -1.067,-0.043 -1.609,-0.17 -0.48,-0.113 -0.954,-0.266 -1.437,-0.362 -0.244,-0.049 -0.374,-0.04 -0.554,-0.21 -0.355,-0.336 -0.282,-0.707 -0.206,-1.135 0.055,-0.311 0.011,-0.614 0.064,-0.926 0.049,-0.291 0.162,-0.587 0.216,-0.88 0.139,-0.747 0.276,-1.53 0.327,-2.284 0.037,-0.552 -0.08,-1.021 -0.15,-1.551 2.338,-0.568 4.8,-0.786 7.108,-0.39 0.626,0.107 1.223,0.301 1.85,0.401 0.837,0.132 1.591,0.526 2.419,0.666 0.794,0.135 1.581,0.37 2.38,0.459 0.957,0.105 1.77,0.394 2.673,0.684 0.455,0.147 0.912,0.152 1.372,0.251 0.401,0.087 0.803,0.223 1.194,0.345 0.536,0.168 1.018,0.324 1.498,0.614 0.565,0.34 0.917,0.819 1.409,1.25 0.358,0.315 0.772,0.576 1.144,0.879 0.526,0.428 1.187,0.703 1.836,0.88 0.761,0.206 1.472,0.484 2.252,0.634 0.67,0.13 1.373,0.198 2.02,0.423 0.217,0.076 0.748,0.161 0.796,0.398 -0.507,0.157 -1.182,0.297 -1.711,0.315 m -3.627,11.063 c -0.345,0.079 -0.686,0.174 -1.03,0.255 -0.424,0.101 -0.858,0.149 -1.266,0.309 -0.504,0.197 -0.924,0.461 -1.458,0.581 -0.482,0.108 -0.917,0.138 -1.411,0.135 -0.423,-0.002 -0.867,0.046 -1.287,0.008 -0.55,-0.05 -1.042,-0.154 -1.607,-0.151 -1.488,0.009 -2.977,0.007 -4.464,0.002 -0.612,-0.002 -1.133,0.052 -1.726,0.129 -0.2,0.026 -0.518,0.069 -0.716,0.024 -0.533,-0.125 -0.762,-1.079 -0.92,-1.494 -0.394,-1.031 -1.186,-1.608 -2.059,-2.21 -0.302,-0.209 -0.622,-0.328 -0.929,-0.511 -0.173,-0.103 -0.296,-0.278 -0.489,-0.338 0.687,0.186 0.47,-0.073 0.145,-0.174 -0.614,-0.188 -1.335,-0.819 -1.618,-1.4 -0.305,-0.624 0.263,-0.322 0.617,-0.235 0.576,0.142 1.206,0.13 1.79,0.24 0.596,0.114 1.156,0.344 1.754,0.421 1.421,0.184 2.865,0.276 4.27,0.581 1.572,0.34 3.201,0.407 4.684,1.092 1.562,0.723 3.187,1.137 4.855,1.569 0.828,0.213 1.645,0.482 2.472,0.692 0.284,0.071 0.637,0.086 0.862,0.302 -0.119,0.131 -0.302,0.134 -0.469,0.173 M -9.07,42.62 c -0.527,1.042 -1.089,2.181 -1.711,3.17 -0.448,0.712 -0.699,1.261 -0.919,2.064 -0.23,0.837 -0.783,1.611 -1.138,2.399 -0.303,0.673 -0.602,1.521 -1.05,2.081 -0.282,0.353 -0.481,0.338 -0.668,0.773 -0.104,0.244 -0.099,0.478 -0.235,0.745 -0.322,0.634 -0.843,1.198 -1.287,1.787 -0.279,0.37 -0.383,0.777 -0.641,1.159 -0.274,0.406 -0.709,0.762 -1.013,1.134 -0.671,0.82 -1.068,1.699 -1.62,2.611 -0.694,1.147 -1.616,2.042 -2.403,3.102 -1.691,2.276 -3.495,4.482 -5.205,6.776 -1.038,1.392 -2.179,2.74 -3.286,4.078 -0.295,0.356 -0.72,1.008 -1.196,1.261 0.615,-0.076 0.763,-0.151 -0.413,0.339 0.018,-0.077 0.036,-0.154 0.054,-0.23 0.122,-0.003 0.241,-0.048 0.359,-0.109 -0.263,0.032 -0.61,0.065 -0.977,0.054 -0.844,-0.023 -0.774,0.151 -1.346,0.79 -0.806,0.9 -1.901,0.854 -1.29,-0.505 0.42,-0.934 0.779,-1.689 0.921,-2.686 0.136,-0.954 0.196,-2.094 0.655,-2.927 0.663,-1.205 1.962,-1.979 2.755,-3.093 0.328,-0.459 0.513,-1.025 0.919,-1.444 0.389,-0.4 0.492,-0.361 0.852,-0.962 0.262,-0.435 0.486,-0.964 0.803,-1.358 0.444,-0.554 0.887,-0.784 1.272,-1.429 0.566,-0.948 1.204,-2.19 1.918,-3.027 1.027,-1.204 1.621,-2.869 2.456,-4.125 0.741,-1.115 1.308,-2.363 2.08,-3.5 0.705,-1.037 1.216,-2.055 1.615,-3.232 0.372,-1.096 1.231,-2.013 1.821,-3.001 0.542,-0.909 1.241,-2.166 1.042,-3.277 -0.143,-0.792 -0.723,-0.843 -1.22,-1.35 -0.477,-0.486 -0.931,-0.964 -1.427,-1.417 -0.464,-0.425 -0.704,-0.967 -1.128,-1.419 -0.466,-0.498 -1.012,-0.912 -1.464,-1.374 -0.733,-0.752 -1.227,-1.783 -2.016,-2.53 -0.506,-0.479 -0.631,-0.946 -0.989,-1.512 -0.199,-0.313 -0.433,-0.58 -0.625,-0.966 -0.277,-0.556 -0.637,-0.99 -0.873,-1.568 -0.238,-0.578 -0.401,-1.211 -0.768,-1.725 -1.571,-2.203 -3.406,-4.192 -5.336,-6.073 -0.891,-0.867 -1.738,-2.057 -2.477,-3.055 -0.687,-0.93 -1.396,-2.286 -2.294,-3.004 -0.512,-0.41 -1.086,-0.457 -1.543,-0.966 -0.317,-0.352 -0.525,-0.792 -0.916,-1.084 -0.248,-0.184 -0.871,-0.215 -1.022,-0.391 -0.183,-0.212 -0.036,-0.811 -0.106,-1.086 -0.385,-1.513 -0.221,-3.216 -0.221,-4.811 v -3.14 c 0,-0.421 0.024,-0.855 0.003,-1.276 -0.024,-0.455 -0.189,-0.538 -0.263,-0.898 -0.323,-1.593 -0.023,-3.562 -0.023,-5.203 0,-0.852 0.001,-1.703 0,-2.555 -0.002,-1.084 0.266,-2.08 0.29,-3.143 0.009,-0.418 -0.027,-0.84 -0.01,-1.259 0.019,-0.441 0.197,-0.532 0.263,-0.873 0.137,-0.719 -0.139,-1.541 0.013,-2.256 0.08,-0.377 0.258,-0.575 0.301,-0.977 0.041,-0.375 -0.027,-0.71 0.057,-1.079 0.07,-0.305 0.225,-0.498 0.219,-0.916 -0.006,-0.468 10e-4,-0.936 10e-4,-1.404 0.002,-1.526 0.181,-3.009 0.27,-4.529 0.113,-1.947 0.719,-3.943 0.566,-5.905 0.369,0.303 0.727,1.168 0.939,1.592 0.414,0.828 0.633,1.747 0.986,2.584 0.162,0.383 0.482,0.661 0.649,1.004 0.253,0.516 0.309,1.106 0.494,1.635 0.121,0.347 0.237,0.688 0.348,1.036 0.266,0.825 0.627,1.045 1.142,1.738 0.694,0.934 0.646,2.2 1.476,3.051 0.568,0.584 1.203,0.956 1.666,1.676 0.691,1.079 0.831,2.369 0.832,3.611 0.002,2.147 0.284,4.093 0.284,6.236 v 7.841 c 0,0.862 -0.001,1.724 0,2.586 0,0.73 -0.081,1.517 -0.015,2.242 0.053,0.586 0.28,1.091 0.31,1.689 0.055,1.145 -0.218,2.296 0.265,3.375 0.163,0.363 0.37,0.715 0.542,1.069 0.268,0.551 0.477,1.06 0.814,1.58 0.54,0.832 0.887,1.721 1.497,2.49 0.254,0.32 0.342,0.786 0.617,1.074 0.419,0.44 0.8,0.482 1.03,1.142 0.062,0.179 0.016,0.392 0.104,0.567 0.039,0.08 0.37,0.219 0.45,0.326 0.297,0.399 0.351,0.942 0.552,1.377 0.301,0.648 0.976,1.014 1.39,1.618 0.991,1.445 2.339,2.66 3.229,4.117 0.547,0.894 1.328,1.559 1.994,2.339 0.543,0.636 1.275,1.337 1.707,2.062 0.847,1.422 2.373,2.474 3.381,3.815 1.049,1.395 3.965,2.806 2.931,4.854 m -27.114,5.655 c -0.446,1.122 -0.684,2.284 -1.143,3.398 -0.519,1.259 -0.799,2.721 -1.397,3.982 -0.205,0.434 -0.449,0.621 -0.59,1.122 -0.169,0.598 -0.271,1.16 -0.496,1.744 -0.169,0.441 -0.164,1.301 -0.576,1.582 0.008,-0.12 0.01,-0.24 0.012,-0.359 -0.252,0.492 -0.661,1.293 -1.069,2.169 -0.435,0.933 -0.747,2.022 -1.836,0.915 -0.402,-0.407 -0.522,-0.752 -0.838,-1.213 -0.287,-0.417 -0.693,-0.476 -1.016,-0.823 -0.257,-0.275 -0.378,-0.794 -0.624,-1.1 -0.553,-0.683 -1.209,-0.875 -1.646,-1.692 -0.534,-0.994 -1.053,-1.749 -1.774,-2.601 -0.54,-0.638 -0.518,-1.319 -0.808,-2.073 -0.316,-0.817 -0.95,-1.277 -1.408,-1.991 -0.555,-0.87 -0.865,-1.896 -1.404,-2.788 -0.356,-0.591 -0.826,-0.745 -0.92,-1.394 -0.077,-0.528 0.034,-0.958 0.22,-1.433 0.447,-1.149 0.957,-2.269 1.411,-3.393 0.488,-1.211 1.139,-2.257 1.709,-3.412 0.517,-1.046 1.034,-2.063 1.569,-3.058 0.352,-0.651 0.875,-1.196 1.257,-1.833 1.048,-1.748 2.588,-3.221 3.504,-5.056 0.164,-0.33 0.329,-1.153 0.838,-1.156 0.281,-0.002 0.794,0.888 0.865,1.154 0.088,0.334 -0.023,0.74 0.049,1.087 0.022,0.098 0.2,0.182 0.235,0.333 0.067,0.278 -0.093,0.601 -0.029,0.881 0.052,0.221 0.21,0.325 0.3,0.531 0.6,1.383 0.829,2.844 1.488,4.2 0.242,0.499 0.336,1.027 0.553,1.506 0.147,0.324 0.436,0.55 0.591,0.893 0.322,0.721 0.303,1.558 0.76,2.229 0.277,0.408 0.615,0.632 0.858,1.101 0.345,0.665 0.667,1.321 1.071,1.955 0.442,0.694 1.102,1.255 1.212,2.038 0.124,0.88 -0.615,1.769 -0.928,2.555 m -14.198,29.477 c -1.131,-0.441 -2.004,-1.128 -2.763,-2.151 -0.51,-0.689 -1.177,-1.109 -1.695,-1.751 -0.448,-0.558 -0.741,-1.191 -1.349,-1.606 -0.393,-0.267 -0.883,-0.412 -1.29,-0.679 -0.473,-0.31 -0.851,-0.629 -1.34,-0.859 -0.378,-0.178 -0.529,-0.235 -0.853,-0.557 -0.72,-0.711 -1.147,-1.646 -1.702,-2.488 -0.714,-1.083 -0.999,-2.295 -1.556,-3.463 -0.629,-1.317 -1.156,-2.723 -1.836,-4.009 -0.419,-0.792 -1.008,-1.473 -1.434,-2.271 -0.3,-0.563 -0.737,-0.874 -1.087,-1.39 -0.465,-0.683 -0.484,-1.575 -0.9,-2.306 -0.253,-0.449 -0.408,-0.718 -0.568,-1.178 -0.354,-1.016 -0.806,-2.187 -1.482,-3.067 -1.014,-1.319 -1.666,-2.782 -2.145,-4.4 -0.698,-2.36 -1.736,-4.631 -2.402,-6.959 -0.139,-0.483 -0.487,-1.413 -0.158,-1.916 0.202,-0.308 0.531,-0.193 0.738,-0.397 0.092,-0.091 0.042,-0.359 0.118,-0.45 1.653,-1.964 3.483,-3.935 4.983,-6.023 0.591,-0.82 1.364,-1.462 1.988,-2.271 0.492,-0.638 0.829,-1.288 1.268,-1.938 0.148,-0.218 0.414,-0.345 0.576,-0.609 0.138,-0.228 0.359,-0.605 0.433,-0.859 0.089,-0.302 -0.021,-0.55 0.035,-0.838 0.1,-0.505 0.315,-0.795 0.589,-1.226 0.396,-0.621 0.502,-1.109 0.77,-1.691 0.332,-0.723 1.01,-1.49 1.43,-2.211 0.802,-1.378 1.843,-2.772 2.903,-3.961 0.496,-0.557 0.896,-1.219 1.432,-1.738 0.274,-0.265 0.662,-0.457 0.92,-0.737 0.459,-0.497 0.749,-1.119 0.783,-1.79 0.024,-0.464 0,-0.946 -0.005,-1.411 -0.008,-0.659 0.218,-1.098 0.29,-1.703 0.11,-0.949 0.178,-2.492 -0.071,-3.415 -0.518,-1.929 -0.071,-3.934 0.283,-5.894 0.329,-1.82 0.072,-3.896 0.065,-5.742 -0.002,-0.423 -0.1,-0.962 -0.015,-1.371 0.059,-0.286 0.224,-0.489 0.274,-0.76 0.092,-0.496 -0.015,-1.005 0.088,-1.497 0.137,-0.066 0.216,-0.177 0.236,-0.331 -0.011,-0.199 -0.021,-0.399 -0.03,-0.599 0.067,-0.256 0.24,-0.312 0.369,-0.537 0.268,-0.464 0.426,-0.892 0.78,-1.295 0.711,-0.805 1.113,-1.752 1.782,-2.631 0.66,-0.866 1.357,-1.585 2.129,-2.333 0.699,-0.678 1.032,-1.61 1.476,-2.477 1.059,-2.077 2.473,-3.924 3.49,-6.054 0.335,-0.701 0.623,-1.918 1.137,-2.503 0.475,-0.54 0.787,-0.389 0.714,0.291 -0.094,0.881 -0.52,1.63 -0.508,2.511 0.006,0.473 -0.001,0.947 -0.001,1.419 0,0.549 0.05,1.114 -0.064,1.64 -0.041,0.191 -0.191,0.354 -0.226,0.625 -0.037,0.28 0.05,0.583 0.012,0.864 -0.074,0.562 -0.296,0.794 -0.289,1.414 0.008,0.645 0.046,1.302 -0.064,1.937 -0.218,1.252 -0.143,2.427 -0.199,3.682 -0.042,0.941 -0.421,1.821 -0.541,2.753 -0.087,0.677 -0.069,1.38 -0.055,2.058 0.031,1.542 -0.54,2.969 -0.575,4.515 -0.03,1.384 -0.06,2.685 -0.206,4.07 -0.111,1.033 0.028,2.051 -0.042,3.073 -0.056,0.8 -0.418,1.541 -0.541,2.329 -0.115,0.74 -0.052,1.484 -0.047,2.227 0.011,1.922 -0.014,3.845 -0.002,5.767 0.008,1.374 -0.272,2.52 -1.363,3.429 -0.303,0.253 -0.606,0.563 -0.894,0.824 -0.474,0.429 -0.832,1.129 -1.419,1.37 -0.492,0.203 -0.401,0.031 -0.914,0.468 -0.466,0.399 -0.908,0.815 -1.398,1.184 -0.369,0.279 -0.596,0.482 -0.88,0.874 -0.69,0.954 -0.975,1.911 -1.98,2.554 -0.937,0.599 -1.553,1.477 -2.497,2.07 -1.976,1.243 -3.561,3.321 -4.861,5.225 -0.279,0.41 -0.569,0.844 -0.817,1.292 -0.324,0.584 -0.433,1.427 -0.865,1.932 -0.44,0.514 -0.772,0.749 -1.123,1.417 -0.436,0.834 -0.939,1.416 -1.401,2.186 -0.398,0.662 -0.763,1.395 -1.111,2.009 0.353,0.192 0.309,1.147 0.45,1.518 0.108,0.286 0.281,0.542 0.361,0.815 0.229,0.777 0.469,1.637 0.773,2.355 0.273,0.643 0.779,1.138 1.075,1.765 0.442,0.936 0.464,2.21 0.762,3.216 0.087,0.29 0.224,0.512 0.397,0.747 0.064,0.088 0.305,0.144 0.343,0.226 0.153,0.33 0.06,0.55 0.256,0.867 0.279,0.453 0.708,0.863 0.998,1.326 0.263,0.422 0.336,0.875 0.498,1.304 0.104,0.276 0.238,0.456 0.361,0.74 0.351,0.811 0.158,1.63 0.648,2.365 0.195,0.293 0.51,0.441 0.645,0.785 0.06,0.155 0.006,0.561 0.11,0.74 0.106,0.18 0.352,0.324 0.474,0.5 0.331,0.475 0.487,1.088 0.813,1.59 0.631,0.973 1.291,1.849 1.908,2.785 0.581,0.881 1.169,1.83 1.577,2.823 0.12,0.292 0.1,0.552 0.276,0.859 0.17,0.295 0.387,0.544 0.574,0.845 0.444,0.709 0.544,1.587 0.9,2.355 0.255,0.55 0.603,0.926 0.823,1.472 0.15,0.373 0.344,1.034 0.604,1.318 0.357,0.385 0.763,0.404 1.085,0.885 0.219,0.325 0.297,0.641 0.554,0.937 0.462,0.53 0.778,0.953 0.863,1.697 0.065,0.571 0.12,1.543 -0.059,2.08 -0.078,0.017 -0.157,0.032 -0.235,0.049 1.655,0.663 -0.078,0.922 -0.361,1.369 M -80.461,24.436 c -1.592,-0.229 -3.216,-0.336 -4.823,-0.438 -0.645,-0.041 -1.296,-0.013 -1.943,-0.013 -0.451,-10e-4 -0.902,0.001 -1.353,0.007 -0.307,0.003 -0.77,0.068 -1.025,-0.146 0.174,-0.489 1.643,-0.542 1.972,-0.57 1.229,-0.098 2.369,-0.585 3.563,-0.863 0.454,-0.105 0.918,-0.134 1.377,-0.209 0.585,-0.096 1.133,-0.294 1.699,-0.462 1.129,-0.334 2.415,-0.48 3.585,-0.6 0.983,-0.101 1.967,-0.145 2.946,-0.279 0.841,-0.114 1.686,-0.103 2.52,-0.245 0.597,-0.101 1.132,-0.182 1.739,-0.18 0.634,0.001 1.215,0.091 1.841,-10e-4 0.002,0.789 -0.279,1.333 -0.651,2.042 -0.293,0.558 -0.533,1.154 -0.791,1.723 -0.181,0.401 -0.429,0.776 -0.612,1.187 -0.134,0.3 -0.375,0.887 -0.647,1.086 -0.139,0.101 -0.305,0.067 -0.487,0.065 -0.65,-0.009 -1.306,0.032 -1.956,0.007 -0.964,-0.037 -2.129,-0.098 -3.031,-0.486 -1.295,-0.559 -2.488,-1.419 -3.923,-1.625 M -90.509,11.958 c -0.743,-0.345 -1.559,-0.562 -2.337,-0.817 -0.583,-0.191 -1.492,-0.418 -1.763,-1.035 0.76,-0.186 1.753,-0.029 2.522,-0.029 h 2.976 c 2.238,0 4.476,-0.003 6.715,0 1.52,10e-4 3.065,-0.062 4.512,-0.564 0.848,-0.294 1.725,-0.431 2.571,-0.713 0.73,-0.244 1.491,-0.437 2.232,-0.644 0.762,-0.213 1.6,-0.263 2.383,-0.389 0.891,-0.143 1.794,-0.105 2.693,-0.103 0.504,0.002 0.901,0.052 1.345,-0.178 0.433,-0.224 0.815,-0.557 1.269,-0.738 0.535,-0.213 1.034,-0.496 1.577,-0.686 0.489,-0.173 0.973,-0.281 1.46,-0.443 0.12,-0.041 0.272,-0.039 0.377,-0.076 0.21,-0.071 0.275,-0.207 0.527,-0.264 0.308,-0.071 0.453,-0.061 0.751,-0.168 V 4.4 c 0.347,0.523 0.196,0.64 0.002,0.71 -10e-4,10e-4 -10e-4,10e-4 -0.002,10e-4 v 2.688 c 0,0.597 -0.003,1.193 0,1.789 0.002,0.354 0.006,0.705 -0.175,1.025 -0.188,0.333 -0.61,0.567 -0.9,0.812 -0.478,0.405 -1.115,0.597 -1.625,0.954 -0.34,0.238 -0.729,0.483 -1.049,0.748 -0.417,0.345 -0.743,0.794 -1.153,1.147 -0.322,0.279 -0.806,0.667 -1.194,0.835 -0.295,0.129 -0.622,0.081 -0.94,0.079 -0.703,-0.007 -1.408,-0.002 -2.111,-0.002 -1.77,0 -3.542,-0.013 -5.313,0.002 -0.737,0.006 -1.259,-0.168 -1.936,-0.396 -0.566,-0.19 -1.193,-0.356 -1.702,-0.667 -0.632,-0.385 -1.192,-0.414 -1.914,-0.532 -0.45,-0.073 -0.875,-0.208 -1.335,-0.239 -0.746,-0.052 -1.465,-0.045 -2.212,-0.153 -1.119,-0.162 -2.241,-0.351 -3.357,-0.531 -0.498,-0.08 -0.958,-0.283 -1.456,-0.362 -0.522,-0.082 -0.96,-0.129 -1.438,-0.35 m -6.47,-16.932 c 0.478,0.031 0.955,-0.014 1.434,0.029 0.008,0.001 0.017,0.002 0.024,0.003 0.06,-0.012 0.112,-0.021 0.152,-0.025 0.909,-0.088 1.819,-0.138 2.721,-0.266 0.759,-0.108 1.504,-0.312 2.274,-0.305 1.021,0.01 2.05,-0.034 3.07,-0.002 0.848,0.027 1.737,0.191 2.578,0.318 0.546,0.083 1.038,0.27 1.567,0.409 0.547,0.143 1.116,0.14 1.675,0.202 0.953,0.107 1.96,0.124 2.921,0.077 0.842,-0.04 1.924,-0.112 2.686,-0.444 0.37,-0.161 0.729,-0.367 1.081,-0.559 0.382,-0.208 0.737,-0.243 1.162,-0.323 0.693,-0.132 1.403,-0.266 2.103,-0.348 1.057,-0.125 2.177,0.002 3.212,-0.278 0.445,-0.12 0.689,-0.479 1.085,-0.613 0.436,-0.147 0.927,-0.14 1.394,-0.138 0.844,0.004 1.688,0.004 2.53,-0.004 0.768,-0.007 1.556,0.171 2.308,0.323 0.218,0.043 1.148,0.19 1.296,0.39 -0.039,0.291 -0.078,0.298 -0.117,0.305 -0.135,0.275 -0.025,0.881 -0.025,1.191 v 1.955 c 0,0.667 0.163,1.549 -0.029,2.203 -0.154,0.525 -0.557,0.232 -0.951,0.129 -0.353,-0.092 -0.715,-0.122 -1.064,-0.234 -0.499,-0.16 -0.961,-0.42 -1.442,-0.623 -1.457,-0.614 -3.12,-0.38 -4.666,-0.388 -1.504,-0.007 -3.018,0.02 -4.465,0.458 -0.658,0.199 -1.326,0.349 -1.986,0.542 -0.451,0.132 -0.903,0.331 -1.37,0.402 -0.776,0.117 -1.818,0.117 -2.586,-0.004 -0.804,-0.127 -1.514,-0.491 -2.292,-0.654 -0.807,-0.169 -1.552,-0.455 -2.354,-0.633 -1.121,-0.25 -2.087,-0.399 -3.252,-0.393 -0.515,0.003 -1.052,0.056 -1.565,-0.004 -0.441,-0.052 -0.863,-0.2 -1.284,-0.343 -0.918,-0.313 -1.696,-0.839 -2.55,-1.288 -1.139,-0.598 -2.539,-0.918 -3.817,-1.035 -0.419,0.082 -1.252,0.308 -1.458,-0.032 M 26.255,28.378 c -0.23,-1.103 -0.734,-2.066 -0.52,-3.335 0.208,-1.238 -0.588,-2.442 -1.335,-3.529 v 0.734 c -0.085,0.006 -0.17,0.012 -0.255,0.018 -0.038,-0.593 -0.187,-1.204 -0.09,-1.774 0.319,-1.872 0.754,-3.724 1.085,-5.595 0.092,-0.524 0.07,-1.107 -0.055,-1.626 C 24.671,11.549 24.203,9.839 23.723,8.134 23.324,6.721 22.924,5.306 22.437,3.922 22.147,3.094 21.714,2.313 21.3,1.533 21.132,1.216 20.838,0.967 20.62,0.673 20.525,0.547 20.463,0.391 20.409,0.24 c -0.314,-0.876 0.397,-1.786 -0.099,-2.672 -0.167,-0.297 -0.257,-0.658 -0.302,-1 -0.129,-0.98 -0.211,-1.964 -0.324,-2.946 -0.02,-0.166 -0.066,-0.35 -0.161,-0.482 -0.538,-0.751 -1.105,-1.482 -1.633,-2.241 -0.092,-0.132 -0.043,-0.362 -0.066,-0.619 -1.222,-1.099 -1.777,-2.828 -3.065,-4.071 -1.158,-1.118 -1.893,-2.676 -2.819,-4.037 -0.61,-0.896 -1.246,-1.774 -1.838,-2.68 -0.518,-0.789 -1.362,-1.319 -1.444,-2.467 -0.045,-0.62 -0.714,-1.275 -1.239,-1.766 -1.053,-0.984 -2.201,-1.865 -3.313,-2.79 -0.019,0.167 -0.042,0.358 -0.065,0.549 -0.068,0.028 -0.137,0.056 -0.205,0.085 -0.44,-0.65 -0.873,-1.303 -1.319,-1.947 -0.29,-0.42 -0.601,-0.825 -0.901,-1.238 C 1.394,-30.387 1.165,-30.688 0.953,-31 0.598,-31.527 0.259,-32.065 -0.1,-32.59 c -0.123,-0.179 -0.296,-0.322 -0.427,-0.495 -0.532,-0.701 -1.03,-1.429 -1.6,-2.096 -0.145,-0.17 -0.507,-0.18 -0.775,-0.215 -0.389,-0.051 -0.804,0.01 -1.173,-0.097 -1.556,-0.452 -3.114,-0.903 -4.637,-1.453 -0.616,-0.223 -1.223,-0.614 -1.695,-1.071 -1.451,-1.399 -3.261,-2.344 -4.621,-3.886 -0.719,-0.814 -1.881,-1.262 -2.887,-1.789 -1.12,-0.587 -2.285,-1.087 -3.44,-1.604 -0.629,-0.281 -1.259,-0.652 -1.922,-0.748 -1.3,-0.189 -2.626,-0.189 -3.937,-0.314 -1.513,-0.144 -3.081,-0.024 -4.48,-0.794 -1.502,-0.826 -3.141,-0.672 -4.756,-0.696 -0.114,-10e-4 -0.263,0.02 -0.338,0.091 -0.723,0.676 -1.549,0.387 -2.345,0.239 -0.121,-0.022 -0.19,-0.322 -0.322,-0.564 -0.368,-0.05 -0.841,-0.162 -1.316,-0.169 -1.006,-0.016 -2.014,0.023 -3.022,0.038 -1.049,0.015 -2.103,0.102 -3.144,0.019 -0.978,-0.077 -1.943,-0.335 -2.914,-0.516 -0.017,-0.003 -0.027,-0.057 -0.043,-0.058 -0.394,-0.038 -0.833,-0.199 -1.176,-0.082 -0.908,0.308 -1.816,0.666 -2.64,1.148 -0.429,0.251 -1.125,0.384 -1.108,1.146 0.002,0.106 -0.179,0.248 -0.305,0.319 -0.502,0.28 -1.016,0.539 -1.524,0.806 0.004,-0.079 0.008,-0.159 0.013,-0.239 -0.147,-0.032 -0.305,-0.116 -0.44,-0.088 -0.739,0.154 -1.467,0.362 -2.21,0.491 -0.296,0.051 -0.63,-0.124 -0.927,-0.074 -1.156,0.195 -2.303,0.439 -3.454,0.662 -1.412,0.273 -2.825,0.541 -4.237,0.818 -0.197,0.038 -0.398,0.18 -0.579,0.154 -1.298,-0.187 -2.403,0.519 -3.604,0.769 -0.213,0.043 -0.378,0.319 -0.565,0.487 0.037,0.034 0.075,0.067 0.113,0.1 0.365,-0.118 0.731,-0.236 1.098,-0.354 0.025,0.07 0.051,0.141 0.078,0.212 -0.764,0.516 -1.529,1.033 -2.292,1.55 l -0.106,-0.321 c -0.27,0.02 -0.589,-0.046 -0.802,0.075 -0.659,0.373 -1.281,0.815 -1.914,1.234 -1.029,0.682 -2.012,1.449 -3.097,2.023 -0.782,0.413 -1.753,0.465 -2.547,0.862 -1.873,0.938 -3.74,1.914 -4.966,3.738 -0.446,0.665 -0.961,1.284 -1.552,2.066 -0.134,-0.275 -0.206,-0.421 -0.257,-0.524 -1.417,1.196 -1.927,2.856 -2.811,4.282 -0.803,1.297 -1.632,2.627 -2.691,3.703 -1.288,1.307 -2.857,2.332 -4.253,3.538 -1.382,1.193 -1.639,2.935 -2.062,4.581 -0.171,0.668 -0.322,1.341 -0.483,2.012 -0.08,-0.018 -0.16,-0.036 -0.24,-0.054 0.023,-0.199 0.046,-0.398 0.07,-0.598 -0.334,0.324 -0.458,0.73 -0.676,1.078 -0.46,0.737 -0.963,1.448 -1.459,2.162 -0.129,0.185 -0.317,0.329 -0.443,0.515 -0.777,1.153 -1.552,2.308 -2.307,3.476 -0.132,0.205 -0.182,0.47 -0.239,0.714 -0.31,1.305 -0.571,2.624 -0.925,3.917 -0.327,1.191 -0.751,2.356 -1.133,3.532 -0.062,-0.018 -0.126,-0.035 -0.188,-0.053 -0.039,-0.119 -0.078,-0.238 -0.099,-0.304 -0.141,0.743 -0.341,1.499 -0.416,2.267 -0.096,0.982 -0.054,1.978 -0.141,2.961 -0.089,1.012 0.115,2.058 -0.434,3.023 -0.308,0.541 -0.576,1.147 -0.678,1.754 -0.441,2.642 -0.775,5.29 -2.155,7.687 -0.994,1.728 -1.071,3.688 -0.727,5.594 0.562,3.111 1.111,6.237 2.339,9.182 0.072,0.173 0.268,0.291 0.375,0.454 0.411,0.625 0.811,1.26 1.214,1.889 -0.045,0.035 -0.09,0.068 -0.136,0.101 -0.148,-0.067 -0.298,-0.136 -0.446,-0.203 0.681,0.902 0.805,2.021 0.488,2.863 -0.356,0.946 -0.322,1.672 0.087,2.491 0.043,-0.074 0.085,-0.149 0.225,-0.397 0.065,0.722 0.115,1.268 0.165,1.812 0.052,0.581 0.062,1.167 0.162,1.74 0.562,3.233 1.854,6.232 2.979,9.289 1.13,3.066 3.183,5.592 4.815,8.356 0.861,1.46 2.042,2.789 3.478,3.843 1.613,1.184 3.245,2.32 4.374,4.107 0.793,1.257 2.03,2.25 3.136,3.289 1.758,1.648 3.534,3.28 5.37,4.839 2.852,2.423 5.635,4.989 9.519,5.691 0.261,0.048 0.537,0.007 0.799,0.052 0.913,0.158 1.88,0.196 2.716,0.545 0.856,0.359 1.575,1.038 2.366,1.556 0.13,0.086 0.325,0.073 0.491,0.102 0.257,0.044 0.573,0.002 0.764,0.138 1.534,1.098 3.137,2.024 4.987,2.52 1.316,0.353 2.594,0.857 3.881,1.317 0.424,0.153 0.82,0.534 1.235,0.544 1.588,0.037 3,0.75 4.514,1.06 2.229,0.456 4.441,1.063 6.613,-0.239 0.234,-0.14 0.622,-0.062 0.934,-0.031 0.313,0.031 0.63,0.219 0.927,0.183 2.927,-0.359 5.849,-0.753 8.773,-1.128 1.472,-0.189 2.949,-0.352 4.422,-0.537 1.166,-0.148 2.337,-0.271 3.492,-0.478 1.452,-0.26 2.89,-0.596 4.336,-0.896 0.072,-0.016 0.152,0.007 0.226,-0.006 0.679,-0.109 1.441,-0.064 2.019,-0.366 1.737,-0.908 3.404,-1.949 5.095,-2.944 0.516,-0.303 0.957,-0.891 1.667,-0.361 0.068,0.051 0.284,-0.063 0.415,-0.131 1.753,-0.898 3.648,-1.346 5.569,-1.643 1.359,-0.212 1.949,-1.274 2.726,-2.152 0.076,-0.086 0.031,-0.279 0.051,-0.534 -0.275,0.241 -0.469,0.412 -0.664,0.583 -0.057,-0.036 -0.115,-0.071 -0.173,-0.107 0.205,-0.345 0.338,-0.775 0.627,-1.017 1.2,-1.003 2.376,-2.033 3.56,-3.044 1.749,-1.495 3.098,-3.441 5.205,-4.551 0.804,-0.424 1.417,-1.208 2.13,-1.812 0.142,-0.122 0.341,-0.186 0.522,-0.255 1.616,-0.614 3.156,-1.303 3.921,-3.036 0.655,-1.482 1.318,-2.966 2.082,-4.393 0.372,-0.693 0.922,-1.323 1.498,-1.87 2.313,-2.196 4.776,-4.244 6.249,-7.183 0.509,-1.015 1.203,-1.936 1.797,-2.911 0.183,-0.299 0.338,-0.622 0.46,-0.951 0.52,-1.4 1.083,-2.789 1.513,-4.217 0.398,-1.326 0.668,-2.693 0.957,-4.05 0.215,-1.009 0.307,-2.047 0.567,-3.041 0.353,-1.344 1.039,-2.639 1.166,-3.994 0.129,-1.386 0.423,-2.71 0.736,-4.045 0.128,-0.549 0.428,-1.139 0.324,-1.642"
               style="fill:#211d1d;fill-opacity:1;fill-rule:nonzero;stroke:none"
               id="path1749" />
          </g>
        </g>
      </g>
    </g>
  </g>
</svg>
