<?xml version="1.0" encoding="UTF-8" standalone="no"?>
<!-- Created with Inkscape (http://www.inkscape.org/) -->

<svg
   width="24.059439"
   height="24"
   viewBox="0 0 6.3657265 6.35"
   version="1.1"
   id="svg5188"
   inkscape:version="1.2.1 (9c6d41e4, 2022-07-14)"
   sodipodi:docname="return-to-the-doom-of-eztli.svg"
   xmlns:inkscape="http://www.inkscape.org/namespaces/inkscape"
   xmlns:sodipodi="http://sodipodi.sourceforge.net/DTD/sodipodi-0.dtd"
   xmlns="http://www.w3.org/2000/svg"
   xmlns:svg="http://www.w3.org/2000/svg">
  <sodipodi:namedview
     id="namedview5190"
     pagecolor="#505050"
     bordercolor="#eeeeee"
     borderopacity="1"
     inkscape:showpageshadow="0"
     inkscape:pageopacity="0"
     inkscape:pagecheckerboard="0"
     inkscape:deskcolor="#505050"
     inkscape:document-units="mm"
     showgrid="false"
     inkscape:zoom="0.7046647"
     inkscape:cx="24.124949"
     inkscape:cy="14.900704"
     inkscape:window-width="1390"
     inkscape:window-height="941"
     inkscape:window-x="0"
     inkscape:window-y="25"
     inkscape:window-maximized="0"
     inkscape:current-layer="layer1" />
  <defs
     id="defs5185">
    <clipPath
       clipPathUnits="userSpaceOnUse"
       id="clipPath341">
      <path
         d="m 150.565,469.798 h 22.058 v 21.883 h -22.058 z"
         id="path339" />
    </clipPath>
  </defs>
  <g
     inkscape:label="Layer 1"
     inkscape:groupmode="layer"
     id="layer1"
     transform="translate(-98.570613,-144.76178)">
    <g
       id="g335"
       transform="matrix(0.29716561,0,0,-0.29716561,53.73306,290.79604)">
      <g
         id="g337"
         clip-path="url(#clipPath341)">
        <g
           id="g343"
           transform="matrix(0.1531793,0,0,-0.1519643,161.59476,480.65204)">
          <g
             id="g345"
             transform="translate(31.8613,-12.0146)">
            <path
               d="m 0,0 c -1.057,1.404 -2.654,2.507 -3.542,3.997 -0.453,0.759 -1.22,1.492 -1.789,2.159 -0.696,0.817 -1.515,1.513 -2.088,2.451 -0.933,1.526 -2.346,2.798 -3.384,4.312 -0.433,0.633 -1.14,1.016 -1.456,1.695 -0.211,0.456 -0.266,1.026 -0.578,1.442 -0.085,0.113 -0.43,0.259 -0.472,0.342 -0.091,0.185 -0.043,0.408 -0.108,0.595 -0.241,0.691 -0.64,0.736 -1.079,1.195 -0.289,0.302 -0.381,0.79 -0.647,1.125 -0.639,0.807 -1.003,1.737 -1.568,2.609 -0.352,0.544 -0.572,1.078 -0.852,1.656 -0.181,0.371 -0.397,0.739 -0.568,1.119 -0.507,1.131 -0.221,2.337 -0.278,3.536 -0.03,0.627 -0.269,1.155 -0.324,1.769 -0.071,0.76 0.014,1.584 0.014,2.349 v 2.71 8.214 c 0,2.244 -0.296,4.284 -0.297,6.533 -0.001,1.301 -0.147,2.65 -0.872,3.782 -0.484,0.755 -1.149,1.145 -1.745,1.756 -0.869,0.893 -0.817,2.218 -1.546,3.196 -0.539,0.727 -0.918,0.957 -1.196,1.822 -0.116,0.363 -0.238,0.721 -0.365,1.084 -0.194,0.555 -0.253,1.173 -0.517,1.714 -0.175,0.358 -0.511,0.65 -0.68,1.051 -0.371,0.877 -0.599,1.84 -1.033,2.707 -0.221,0.445 -0.597,1.352 -0.983,1.667 0.159,-2.055 -0.476,-4.145 -0.593,-6.184 -0.094,-1.593 -0.281,-3.147 -0.283,-4.746 -10e-4,-0.489 -0.008,-0.981 -10e-4,-1.47 0.007,-0.438 -0.157,-0.641 -0.231,-0.96 -0.086,-0.387 -0.015,-0.738 -0.059,-1.131 -0.045,-0.421 -0.231,-0.629 -0.316,-1.022 -0.158,-0.75 0.131,-1.611 -0.013,-2.366 -0.068,-0.355 -0.255,-0.451 -0.276,-0.914 -0.017,-0.438 0.021,-0.879 0.011,-1.318 -0.024,-1.113 -0.306,-2.156 -0.305,-3.293 0.002,-0.891 0,-1.784 0,-2.677 0,-1.718 -0.313,-3.781 0.026,-5.45 0.077,-0.378 0.251,-0.465 0.275,-0.94 0.023,-0.442 -0.003,-0.897 -0.003,-1.338 v -3.289 c 0,-1.671 -0.172,-3.455 0.231,-5.04 0.073,-0.287 -0.08,-0.915 0.112,-1.137 0.158,-0.185 0.811,-0.217 1.069,-0.41 0.411,-0.306 0.628,-0.767 0.96,-1.136 0.478,-0.532 1.08,-0.582 1.618,-1.012 0.94,-0.752 1.683,-2.172 2.403,-3.147 0.773,-1.045 1.662,-2.292 2.594,-3.201 2.022,-1.97 3.945,-4.053 5.59,-6.361 0.385,-0.539 0.556,-1.202 0.804,-1.808 0.248,-0.605 0.626,-1.059 0.915,-1.642 0.201,-0.404 0.447,-0.683 0.654,-1.012 0.375,-0.593 0.507,-1.082 1.037,-1.583 0.826,-0.784 1.344,-1.862 2.112,-2.651 0.474,-0.484 1.046,-0.917 1.534,-1.439 0.443,-0.473 0.695,-1.042 1.182,-1.486 0.519,-0.476 0.995,-0.978 1.495,-1.487 0.52,-0.53 1.127,-0.583 1.277,-1.413 0.209,-1.164 -0.523,-2.481 -1.092,-3.434 -0.617,-1.034 -1.516,-1.993 -1.907,-3.143 -0.418,-1.233 -0.953,-2.299 -1.691,-3.386 -0.811,-1.19 -1.404,-2.498 -2.18,-3.666 -0.875,-1.316 -1.496,-3.061 -2.572,-4.321 -0.748,-0.877 -1.417,-2.178 -2.009,-3.173 -0.403,-0.674 -0.869,-0.916 -1.334,-1.496 -0.332,-0.412 -0.567,-0.966 -0.841,-1.422 -0.377,-0.63 -0.485,-0.588 -0.892,-1.008 -0.425,-0.44 -0.62,-1.032 -0.962,-1.513 -0.83,-1.166 -2.194,-1.978 -2.887,-3.24 -0.481,-0.873 -0.543,-2.067 -0.686,-3.066 -0.15,-1.045 -0.524,-1.836 -0.964,-2.814 -0.641,-1.424 0.505,-1.473 1.351,-0.529 0.598,0.668 0.526,0.851 1.409,0.826 0.385,-0.011 0.747,0.024 1.024,0.058 0.498,0.264 0.944,0.948 1.253,1.321 1.16,1.401 2.355,2.813 3.442,4.273 1.791,2.402 3.681,4.713 5.453,7.099 0.824,1.109 1.79,2.046 2.518,3.248 0.578,0.956 0.994,1.877 1.696,2.736 0.319,0.39 0.775,0.762 1.063,1.188 0.269,0.399 0.378,0.826 0.671,1.214 0.465,0.617 1.01,1.207 1.348,1.872 0.142,0.279 0.137,0.525 0.247,0.78 0.195,0.456 0.403,0.441 0.698,0.81 0.469,0.586 0.784,1.475 1.1,2.18 0.372,0.826 0.952,1.636 1.192,2.513 0.231,0.841 0.495,1.417 0.963,2.162 0.653,1.036 1.242,2.23 1.792,3.322 C 4.152,-2.94 1.098,-1.462 0,0 m -31.49,7.731 c -0.036,0.157 -0.224,0.246 -0.247,0.348 -0.075,0.364 0.041,0.79 -0.051,1.139 -0.074,0.279 -0.611,1.213 -0.907,1.21 -0.533,-0.005 -0.704,-0.866 -0.877,-1.212 -0.96,-1.922 -2.573,-3.465 -3.672,-5.298 -0.399,-0.666 -0.947,-1.237 -1.315,-1.919 -0.562,-1.042 -1.103,-2.107 -1.644,-3.204 -0.597,-1.21 -1.279,-2.306 -1.791,-3.574 -0.475,-1.178 -1.009,-2.35 -1.478,-3.554 -0.195,-0.498 -0.311,-0.948 -0.231,-1.501 0.1,-0.68 0.591,-0.842 0.964,-1.46 0.565,-0.935 0.889,-2.011 1.472,-2.921 0.479,-0.749 1.144,-1.229 1.474,-2.087 0.304,-0.789 0.281,-1.503 0.847,-2.171 0.755,-0.892 1.299,-1.683 1.857,-2.725 0.459,-0.856 1.146,-1.056 1.725,-1.773 0.259,-0.32 0.385,-0.864 0.654,-1.153 0.339,-0.362 0.764,-0.425 1.064,-0.861 0.333,-0.483 0.458,-0.844 0.878,-1.27 1.141,-1.159 1.468,-0.019 1.923,0.958 0.428,0.918 0.856,1.756 1.12,2.273 -0.002,-0.126 -0.003,-0.252 -0.012,-0.377 0.432,0.294 0.425,1.195 0.604,1.658 0.236,0.612 0.342,1.201 0.519,1.826 0.148,0.525 0.403,0.721 0.619,1.175 0.627,1.323 0.919,2.854 1.463,4.173 0.48,1.167 0.73,2.384 1.197,3.558 0.328,0.824 1.102,1.756 0.972,2.678 -0.116,0.82 -0.807,1.408 -1.27,2.135 -0.424,0.664 -0.761,1.352 -1.122,2.048 -0.254,0.491 -0.608,0.726 -0.899,1.152 -0.478,0.704 -0.458,1.581 -0.795,2.336 -0.162,0.359 -0.465,0.596 -0.619,0.936 -0.227,0.502 -0.327,1.054 -0.579,1.578 -0.69,1.42 -0.932,2.951 -1.56,4.399 -0.093,0.217 -0.259,0.324 -0.314,0.558 -0.068,0.293 0.101,0.63 0.031,0.922 m -1.716,63.878 c -0.539,-0.612 -0.841,-1.887 -1.191,-2.621 -1.066,-2.233 -2.548,-4.167 -3.657,-6.344 -0.464,-0.907 -0.813,-1.884 -1.546,-2.594 -0.809,-0.785 -1.538,-1.537 -2.23,-2.445 -0.701,-0.92 -1.123,-1.911 -1.867,-2.755 -0.372,-0.423 -0.537,-0.871 -0.817,-1.357 -0.135,-0.235 -0.317,-0.294 -0.388,-0.562 0.011,-0.21 0.022,-0.419 0.033,-0.629 -0.021,-0.16 -0.104,-0.276 -0.249,-0.346 -0.106,-0.515 0.005,-1.048 -0.091,-1.568 -0.052,-0.283 -0.225,-0.497 -0.287,-0.796 -0.088,-0.428 0.014,-0.994 0.015,-1.437 0.008,-1.934 0.277,-4.109 -0.067,-6.014 -0.371,-2.055 -0.84,-4.155 -0.296,-6.176 0.261,-0.966 0.189,-2.583 0.073,-3.577 -0.074,-0.634 -0.312,-1.094 -0.303,-1.784 0.005,-0.487 0.03,-0.992 0.005,-1.479 -0.035,-0.702 -0.34,-1.354 -0.82,-1.875 -0.27,-0.293 -0.677,-0.494 -0.964,-0.772 -0.562,-0.544 -0.981,-1.237 -1.501,-1.82 -1.109,-1.245 -2.201,-2.706 -3.041,-4.15 -0.439,-0.756 -1.15,-1.558 -1.498,-2.316 -0.28,-0.609 -0.392,-1.121 -0.806,-1.771 -0.287,-0.452 -0.512,-0.757 -0.616,-1.286 -0.06,-0.302 0.055,-0.559 -0.038,-0.877 -0.077,-0.265 -0.309,-0.662 -0.454,-0.899 -0.169,-0.277 -0.448,-0.41 -0.603,-0.639 -0.461,-0.681 -0.813,-1.361 -1.328,-2.029 -0.655,-0.849 -1.464,-1.52 -2.082,-2.38 -1.573,-2.187 -3.489,-4.252 -5.221,-6.31 -0.081,-0.095 -0.028,-0.376 -0.123,-0.471 -0.218,-0.213 -0.562,-0.093 -0.774,-0.416 -0.344,-0.527 0.02,-1.501 0.166,-2.007 0.698,-2.439 1.784,-4.818 2.516,-7.291 0.502,-1.694 1.184,-3.227 2.247,-4.609 0.709,-0.922 1.182,-2.148 1.552,-3.213 0.169,-0.482 0.33,-0.764 0.596,-1.234 0.435,-0.766 0.455,-1.7 0.942,-2.416 0.368,-0.54 0.824,-0.866 1.138,-1.456 0.447,-0.836 1.065,-1.55 1.504,-2.379 0.712,-1.346 1.265,-2.82 1.923,-4.2 0.583,-1.223 0.882,-2.494 1.629,-3.628 0.582,-0.882 1.03,-1.86 1.784,-2.607 0.34,-0.336 0.498,-0.397 0.893,-0.582 0.513,-0.241 0.91,-0.576 1.405,-0.901 0.426,-0.279 0.939,-0.43 1.351,-0.711 0.636,-0.435 0.944,-1.098 1.413,-1.681 0.542,-0.674 1.241,-1.113 1.776,-1.836 0.795,-1.071 1.709,-1.791 2.895,-2.253 0.296,0.468 2.111,0.74 0.376,1.435 0.083,0.017 0.165,0.033 0.248,0.05 0.187,0.563 0.13,1.581 0.062,2.18 -0.089,0.779 -0.421,1.223 -0.904,1.778 -0.27,0.31 -0.352,0.64 -0.579,0.981 -0.339,0.505 -0.765,0.523 -1.138,0.926 -0.274,0.297 -0.476,0.991 -0.633,1.381 -0.231,0.573 -0.596,0.967 -0.863,1.543 -0.373,0.805 -0.478,1.724 -0.942,2.467 -0.197,0.315 -0.424,0.576 -0.601,0.885 -0.185,0.322 -0.164,0.594 -0.29,0.901 -0.428,1.039 -1.044,2.033 -1.653,2.956 -0.645,0.981 -1.336,1.899 -1.997,2.917 -0.343,0.527 -0.505,1.169 -0.852,1.667 -0.129,0.184 -0.386,0.334 -0.497,0.524 -0.109,0.188 -0.052,0.613 -0.116,0.775 -0.14,0.361 -0.47,0.515 -0.674,0.822 -0.515,0.771 -0.313,1.627 -0.68,2.477 -0.129,0.298 -0.269,0.487 -0.379,0.777 -0.169,0.448 -0.245,0.924 -0.521,1.365 -0.304,0.485 -0.754,0.915 -1.047,1.389 -0.203,0.332 -0.107,0.563 -0.267,0.909 -0.04,0.086 -0.291,0.144 -0.359,0.236 -0.181,0.246 -0.324,0.48 -0.415,0.782 -0.313,1.055 -0.336,2.39 -0.799,3.371 -0.311,0.656 -0.84,1.174 -1.125,1.848 -0.319,0.753 -0.572,1.652 -0.811,2.467 -0.085,0.287 -0.265,0.554 -0.379,0.854 -0.147,0.388 -0.101,1.389 -0.47,1.589 0.364,0.644 0.747,1.412 1.162,2.106 0.485,0.806 1.011,1.416 1.47,2.29 0.367,0.7 0.715,0.945 1.175,1.485 0.453,0.529 0.569,1.411 0.907,2.023 0.259,0.469 0.564,0.924 0.856,1.353 1.361,1.995 3.022,4.173 5.092,5.474 0.988,0.622 1.634,1.541 2.616,2.168 1.053,0.674 1.351,1.676 2.074,2.675 0.298,0.412 0.535,0.624 0.922,0.917 0.514,0.387 0.977,0.822 1.465,1.239 0.537,0.458 0.442,0.28 0.958,0.491 0.614,0.252 0.99,0.987 1.487,1.436 0.301,0.273 0.618,0.598 0.934,0.862 1.144,0.953 1.437,2.154 1.429,3.594 -0.013,2.013 0.014,4.026 0.002,6.041 -0.005,0.778 -0.071,1.558 0.049,2.332 0.129,0.826 0.509,1.602 0.566,2.441 0.074,1.07 -0.07,2.137 0.044,3.218 0.154,1.451 0.184,2.815 0.217,4.265 0.036,1.62 0.635,3.113 0.603,4.728 -0.015,0.711 -0.034,1.449 0.058,2.157 0.125,0.976 0.522,1.899 0.565,2.884 0.059,1.315 -0.018,2.546 0.21,3.858 0.115,0.666 0.075,1.353 0.067,2.028 -0.009,0.651 0.225,0.894 0.303,1.482 0.038,0.294 -0.053,0.612 -0.014,0.906 0.037,0.282 0.195,0.454 0.238,0.654 0.119,0.551 0.066,1.143 0.066,1.718 10e-4,0.496 0.008,0.991 10e-4,1.487 -0.011,0.923 0.433,1.707 0.533,2.63 0.076,0.713 -0.251,0.871 -0.748,0.305 m 12.839,-111.412 c -0.122,-0.064 -0.247,-0.112 -0.376,-0.114 -0.019,-0.081 -0.038,-0.161 -0.057,-0.241 1.233,0.513 1.076,0.435 0.433,0.355 M 38.04,18.401 c -0.229,-1.103 -0.733,-2.067 -0.519,-3.335 0.208,-1.238 -0.588,-2.442 -1.335,-3.529 v 0.734 c -0.085,0.006 -0.17,0.012 -0.256,0.018 -0.037,-0.593 -0.187,-1.205 -0.09,-1.774 0.319,-1.872 0.754,-3.724 1.085,-5.595 0.093,-0.524 0.07,-1.107 -0.055,-1.626 -0.414,-1.722 -0.882,-3.432 -1.362,-5.137 -0.399,-1.413 -0.799,-2.828 -1.285,-4.212 -0.29,-0.828 -0.724,-1.61 -1.138,-2.389 -0.168,-0.317 -0.462,-0.566 -0.68,-0.86 -0.094,-0.126 -0.157,-0.282 -0.211,-0.433 -0.314,-0.876 0.397,-1.786 -0.099,-2.672 -0.167,-0.298 -0.257,-0.658 -0.302,-1 -0.129,-0.98 -0.211,-1.965 -0.324,-2.946 -0.02,-0.166 -0.066,-0.35 -0.16,-0.482 -0.538,-0.751 -1.106,-1.482 -1.634,-2.241 -0.092,-0.132 -0.043,-0.362 -0.066,-0.619 -1.222,-1.099 -1.777,-2.828 -3.065,-4.071 -1.158,-1.118 -1.893,-2.676 -2.818,-4.037 -0.611,-0.896 -1.247,-1.774 -1.839,-2.68 -0.518,-0.789 -1.362,-1.319 -1.444,-2.467 -0.045,-0.62 -0.714,-1.276 -1.239,-1.766 -1.053,-0.984 -2.201,-1.865 -3.312,-2.79 -0.02,0.167 -0.042,0.358 -0.066,0.549 -0.068,0.028 -0.137,0.056 -0.205,0.085 -0.439,-0.65 -0.873,-1.303 -1.319,-1.947 -0.29,-0.42 -0.601,-0.825 -0.901,-1.238 -0.222,-0.305 -0.451,-0.606 -0.663,-0.919 -0.355,-0.526 -0.694,-1.064 -1.052,-1.589 -0.123,-0.179 -0.297,-0.322 -0.428,-0.495 -0.531,-0.701 -1.029,-1.429 -1.6,-2.096 -0.145,-0.17 -0.507,-0.18 -0.775,-0.215 -0.389,-0.051 -0.804,0.01 -1.173,-0.097 -1.556,-0.452 -3.114,-0.904 -4.637,-1.453 -0.616,-0.223 -1.222,-0.614 -1.695,-1.071 -1.451,-1.399 -3.261,-2.344 -4.621,-3.886 -0.719,-0.814 -1.881,-1.262 -2.887,-1.789 -1.12,-0.587 -2.285,-1.087 -3.44,-1.604 -0.629,-0.281 -1.259,-0.652 -1.922,-0.748 -1.3,-0.189 -2.626,-0.189 -3.937,-0.314 -1.512,-0.144 -3.081,-0.024 -4.48,-0.794 -1.502,-0.826 -3.141,-0.672 -4.756,-0.696 -0.114,-10e-4 -0.263,0.02 -0.338,0.091 -0.723,0.676 -1.549,0.387 -2.345,0.239 -0.121,-0.022 -0.19,-0.322 -0.322,-0.564 -0.368,-0.05 -0.841,-0.162 -1.315,-0.17 -1.007,-0.015 -2.015,0.024 -3.023,0.039 -1.049,0.015 -2.103,0.102 -3.143,0.019 -0.979,-0.078 -1.944,-0.335 -2.914,-0.516 -0.018,-0.003 -0.027,-0.057 -0.043,-0.058 -0.395,-0.038 -0.833,-0.199 -1.177,-0.082 -0.907,0.308 -1.816,0.666 -2.64,1.148 -0.429,0.251 -1.125,0.384 -1.109,1.146 0.003,0.106 -0.178,0.248 -0.304,0.319 -0.501,0.28 -1.016,0.539 -1.524,0.806 0.004,-0.079 0.009,-0.159 0.013,-0.239 -0.147,-0.032 -0.305,-0.116 -0.44,-0.088 -0.739,0.153 -1.467,0.362 -2.21,0.491 -0.295,0.051 -0.63,-0.124 -0.927,-0.074 -1.156,0.194 -2.303,0.439 -3.453,0.662 -1.413,0.273 -2.826,0.541 -4.238,0.818 -0.197,0.038 -0.398,0.18 -0.579,0.154 -1.298,-0.187 -2.403,0.519 -3.604,0.768 -0.213,0.044 -0.378,0.32 -0.565,0.488 0.037,0.033 0.075,0.067 0.113,0.1 l 1.097,-0.354 c 0.027,0.07 0.052,0.141 0.079,0.212 -0.764,0.516 -1.528,1.033 -2.292,1.55 -0.035,-0.107 -0.07,-0.214 -0.106,-0.321 -0.27,0.02 -0.588,-0.046 -0.801,0.074 -0.66,0.374 -1.281,0.816 -1.915,1.235 -1.029,0.682 -2.012,1.449 -3.098,2.023 -0.782,0.413 -1.752,0.465 -2.545,0.862 -1.874,0.938 -3.741,1.914 -4.967,3.738 -0.446,0.665 -0.961,1.284 -1.552,2.066 -0.134,-0.275 -0.206,-0.421 -0.256,-0.524 -1.417,1.196 -1.928,2.856 -2.811,4.282 -0.804,1.297 -1.632,2.627 -2.692,3.703 -1.288,1.307 -2.857,2.332 -4.253,3.538 -1.382,1.193 -1.639,2.935 -2.062,4.581 -0.171,0.668 -0.323,1.341 -0.483,2.012 -0.08,-0.018 -0.16,-0.036 -0.239,-0.054 0.023,-0.199 0.045,-0.399 0.068,-0.598 -0.333,0.324 -0.458,0.73 -0.674,1.078 -0.46,0.737 -0.964,1.448 -1.46,2.162 -0.128,0.185 -0.317,0.329 -0.443,0.515 -0.777,1.153 -1.552,2.308 -2.307,3.476 -0.132,0.205 -0.182,0.469 -0.24,0.714 -0.309,1.305 -0.569,2.624 -0.924,3.917 -0.327,1.191 -0.751,2.356 -1.132,3.532 l -0.189,-0.053 c -0.039,-0.119 -0.077,-0.238 -0.098,-0.304 -0.141,0.743 -0.342,1.499 -0.417,2.267 -0.096,0.982 -0.053,1.978 -0.14,2.961 -0.09,1.012 0.113,2.058 -0.436,3.023 -0.307,0.541 -0.575,1.147 -0.676,1.754 -0.442,2.642 -0.777,5.29 -2.156,7.687 -0.994,1.728 -1.07,3.688 -0.727,5.594 0.562,3.111 1.11,6.237 2.339,9.182 0.072,0.173 0.267,0.291 0.375,0.454 0.411,0.625 0.811,1.26 1.215,1.889 -0.046,0.035 -0.091,0.068 -0.137,0.101 -0.148,-0.067 -0.297,-0.136 -0.446,-0.203 0.681,0.902 0.805,2.021 0.488,2.863 -0.356,0.945 -0.322,1.672 0.088,2.491 0.042,-0.074 0.084,-0.149 0.223,-0.397 0.066,0.722 0.117,1.267 0.166,1.812 0.052,0.58 0.062,1.167 0.162,1.74 0.563,3.233 1.854,6.232 2.98,9.289 1.13,3.066 3.182,5.592 4.814,8.356 0.861,1.46 2.041,2.789 3.478,3.843 1.613,1.184 3.246,2.32 4.374,4.107 0.794,1.257 2.03,2.25 3.137,3.288 1.757,1.649 3.533,3.281 5.369,4.84 2.851,2.423 5.635,4.989 9.519,5.691 0.261,0.048 0.538,0.007 0.799,0.051 0.913,0.159 1.881,0.197 2.717,0.546 0.855,0.359 1.574,1.037 2.365,1.556 0.13,0.086 0.325,0.073 0.491,0.102 0.257,0.044 0.574,0.002 0.764,0.138 1.534,1.098 3.137,2.024 4.987,2.52 1.317,0.353 2.594,0.857 3.881,1.317 0.425,0.153 0.82,0.534 1.235,0.544 1.588,0.037 3,0.75 4.514,1.06 2.229,0.456 4.441,1.063 6.613,-0.239 0.235,-0.14 0.622,-0.062 0.934,-0.031 0.313,0.03 0.631,0.219 0.927,0.183 2.927,-0.359 5.849,-0.753 8.773,-1.128 1.473,-0.189 2.949,-0.352 4.422,-0.537 1.166,-0.148 2.337,-0.271 3.492,-0.478 1.452,-0.261 2.891,-0.596 4.336,-0.896 0.072,-0.016 0.152,0.007 0.226,-0.006 0.679,-0.11 1.441,-0.064 2.019,-0.366 1.737,-0.908 3.404,-1.949 5.095,-2.944 0.516,-0.303 0.957,-0.891 1.667,-0.361 0.068,0.051 0.284,-0.064 0.415,-0.131 1.753,-0.898 3.648,-1.346 5.569,-1.643 1.36,-0.212 1.949,-1.274 2.726,-2.152 0.076,-0.086 0.031,-0.279 0.051,-0.534 -0.275,0.241 -0.469,0.412 -0.664,0.583 -0.057,-0.036 -0.115,-0.071 -0.172,-0.107 0.205,-0.345 0.337,-0.775 0.627,-1.017 1.199,-1.003 2.375,-2.033 3.559,-3.044 1.749,-1.495 3.098,-3.441 5.205,-4.551 0.804,-0.424 1.417,-1.208 2.13,-1.812 0.143,-0.122 0.341,-0.186 0.523,-0.255 1.615,-0.614 3.155,-1.303 3.92,-3.036 0.655,-1.482 1.318,-2.966 2.082,-4.393 0.373,-0.693 0.922,-1.323 1.498,-1.87 2.313,-2.196 4.776,-4.244 6.25,-7.183 0.508,-1.015 1.203,-1.936 1.796,-2.911 0.183,-0.299 0.338,-0.622 0.46,-0.951 0.52,-1.4 1.083,-2.789 1.513,-4.217 0.398,-1.326 0.668,-2.693 0.957,-4.05 0.215,-1.009 0.307,-2.047 0.567,-3.041 0.353,-1.344 1.04,-2.639 1.166,-3.994 0.129,-1.386 0.423,-2.71 0.736,-4.046 0.128,-0.548 0.429,-1.138 0.324,-1.641"
               style="fill:#231f20;fill-opacity:1;fill-rule:nonzero;stroke:none"
               id="path347" />
          </g>
        </g>
      </g>
    </g>
  </g>
</svg>
