<?xml version="1.0" encoding="UTF-8" standalone="no"?>
<!-- Created with Inkscape (http://www.inkscape.org/) -->

<svg
   width="24.059319"
   height="24"
   viewBox="0 0 6.3656947 6.35"
   version="1.1"
   id="svg4780"
   inkscape:version="1.2.1 (9c6d41e4, 2022-07-14)"
   sodipodi:docname="return-to-threads-of-fate.svg"
   xmlns:inkscape="http://www.inkscape.org/namespaces/inkscape"
   xmlns:sodipodi="http://sodipodi.sourceforge.net/DTD/sodipodi-0.dtd"
   xmlns="http://www.w3.org/2000/svg"
   xmlns:svg="http://www.w3.org/2000/svg">
  <sodipodi:namedview
     id="namedview4782"
     pagecolor="#505050"
     bordercolor="#eeeeee"
     borderopacity="1"
     inkscape:showpageshadow="0"
     inkscape:pageopacity="0"
     inkscape:pagecheckerboard="0"
     inkscape:deskcolor="#505050"
     inkscape:document-units="mm"
     showgrid="false"
     inkscape:zoom="0.7046647"
     inkscape:cx="31.220522"
     inkscape:cy="162.48863"
     inkscape:window-width="1390"
     inkscape:window-height="941"
     inkscape:window-x="0"
     inkscape:window-y="25"
     inkscape:window-maximized="0"
     inkscape:current-layer="layer1" />
  <defs
     id="defs4777">
    <clipPath
       clipPathUnits="userSpaceOnUse"
       id="clipPath363">
      <path
         d="m 39.282,442.226 h 22.057 v 21.883 H 39.282 Z"
         id="path361" />
    </clipPath>
  </defs>
  <g
     inkscape:label="Layer 1"
     inkscape:groupmode="layer"
     id="layer1"
     transform="translate(-96.693258,-105.71249)">
    <g
       id="g357"
       transform="matrix(0.2971653,0,0,-0.2971653,84.92544,243.55318)">
      <g
         id="g359"
         clip-path="url(#clipPath363)">
        <g
           id="g365"
           transform="matrix(0.1531793,0,0,-0.1519643,50.31089,453.08014)">
          <g
             id="g367"
             transform="translate(45.2461,33.9869)">
            <path
               d="M 0,0 C -0.037,0.213 -0.069,0.428 -0.101,0.643 -0.187,1.219 -0.276,1.815 -0.448,2.368 -0.628,2.945 -0.883,3.419 -1.107,3.837 -1.239,4.085 -1.483,4.561 -2.047,4.5 -2.28,4.473 -2.582,4.339 -2.744,3.869 -2.847,3.683 -2.859,3.517 -2.866,3.428 -2.967,2.955 -3.033,2.658 -3.164,2.32 -3.552,1.329 -4.069,0.462 -4.567,-0.342 -4.758,-0.648 -4.975,-0.916 -5.204,-1.199 l -0.255,-0.32 c -0.117,-0.15 -0.232,-0.305 -0.349,-0.462 -0.379,-0.511 -0.771,-1.04 -1.193,-1.317 l -0.111,-0.091 c -0.223,-0.219 -0.443,-0.453 -0.665,-0.689 -0.306,-0.324 -0.616,-0.654 -0.945,-0.958 -0.415,-0.386 -0.842,-0.732 -1.43,-1.157 -0.184,-0.134 -0.374,-0.301 -0.567,-0.472 -0.213,-0.188 -0.432,-0.383 -0.606,-0.485 -0.032,-0.019 -0.071,-0.035 -0.11,-0.051 -0.096,-0.042 -0.193,-0.087 -0.299,-0.151 -0.114,-0.069 -0.228,-0.144 -0.343,-0.22 -0.092,-0.061 -0.185,-0.122 -0.277,-0.179 -0.053,-0.032 -0.116,-0.075 -0.181,-0.119 -0.059,-0.04 -0.118,-0.085 -0.171,-0.11 l -0.319,-0.105 -0.097,-0.3 c -10e-4,-0.002 -0.003,-0.005 -0.004,-0.007 0.053,-0.095 0.074,-0.212 0.043,-0.347 -0.119,-0.516 -0.128,-1.058 -0.091,-1.597 0.168,-0.945 0.386,-1.882 0.601,-2.818 0.073,0.041 0.145,0.084 0.217,0.118 0.119,0.06 0.222,0.104 0.32,0.136 0.165,0.058 0.296,0.098 0.427,0.138 0.191,0.058 0.38,0.116 0.581,0.196 0.412,0.161 0.757,0.369 1.123,0.589 0.68,0.41 1.286,0.796 1.879,1.178 0.642,0.411 1.226,0.937 1.791,1.445 0.209,0.187 0.415,0.374 0.619,0.548 l 0.174,0.147 c 0.343,0.291 0.699,0.591 1.046,0.974 0.316,0.353 0.616,0.742 0.907,1.121 1.145,1.483 1.917,2.627 2.544,3.764 l 0.155,0.28 c 0.32,0.569 0.651,1.157 0.795,2.309 l 0.013,0.106 z m -8.691,9.529 c -0.356,1.054 -0.969,2.024 -1.416,2.732 -0.351,0.551 -0.821,1.155 -1.475,1.155 -0.022,0 -0.044,-0.001 -0.066,-0.002 -0.239,-0.015 -0.682,-0.132 -0.974,-0.749 l -0.097,-0.204 0.037,-0.223 c 0.1,-0.595 0.09,-1.031 0.065,-1.58 -0.087,-1.878 -0.306,-3.266 -0.691,-4.37 -0.117,-0.339 -0.255,-0.643 -0.394,-0.955 l -0.173,-0.39 c -0.057,-0.129 -0.111,-0.264 -0.166,-0.4 -0.089,-0.223 -0.178,-0.448 -0.284,-0.647 l -0.06,-0.113 c -0.141,-0.265 -0.288,-0.54 -0.436,-0.73 -0.046,-0.06 -0.094,-0.114 -0.142,-0.168 -0.117,-0.133 -0.233,-0.269 -0.342,-0.439 -0.389,-0.612 -0.825,-1.165 -1.287,-1.75 L -17.073,0.08 c -0.031,-0.04 -0.064,-0.071 -0.091,-0.101 -0.056,-0.056 -0.107,-0.119 -0.155,-0.184 0,-0.001 10e-4,-0.001 0.002,-0.002 0.471,-0.694 0.789,-1.461 1.087,-2.236 0.079,-0.121 0.158,-0.244 0.237,-0.364 0.484,-0.732 0.954,-1.476 1.261,-2.301 0.013,0.01 0.027,0.016 0.041,0.028 0.47,0.394 0.917,0.841 1.329,1.329 0.133,0.16 0.266,0.267 0.398,0.375 0.103,0.084 0.206,0.17 0.31,0.268 0.165,0.156 0.316,0.35 0.463,0.545 0.074,0.099 0.146,0.197 0.222,0.284 0.257,0.285 0.469,0.574 0.684,0.933 0.087,0.146 0.181,0.279 0.273,0.411 0.171,0.246 0.366,0.524 0.526,0.872 0.352,0.77 0.599,1.629 0.838,2.46 0.087,0.305 0.173,0.606 0.263,0.894 l 0.066,0.207 c 0.083,0.259 0.164,0.514 0.231,0.792 0.033,0.14 0.062,0.293 0.089,0.445 0.027,0.156 0.053,0.309 0.091,0.434 0.042,0.078 0.095,0.181 0.135,0.322 0.034,0.127 0.052,0.281 0.068,0.436 0.006,0.058 0.011,0.117 0.019,0.17 0.074,0.428 0.131,0.794 0.159,1.276 0.038,0.639 0.084,1.423 -0.164,2.156 m -9.954,-9.428 c -0.127,0.313 -0.257,0.628 -0.373,0.947 -0.112,0.307 -0.127,0.411 -0.164,0.756 l -0.011,0.103 c -0.022,0.183 -0.041,0.342 -0.047,0.541 -0.003,0.08 0.004,0.156 0.009,0.23 0.008,0.122 0.015,0.241 0.011,0.357 -0.021,0.487 -0.003,0.984 0.015,1.486 0.018,0.467 0.034,0.94 0.023,1.411 -0.031,1.44 -0.169,2.788 -0.422,4.122 -0.235,1.275 -0.686,3.098 -1.489,4.523 -0.086,0.155 -0.165,0.31 -0.242,0.461 -0.203,0.398 -0.413,0.808 -0.743,1.216 -0.439,0.543 -0.879,1.058 -1.324,1.581 l -0.106,0.124 c -0.173,0.201 -0.239,0.294 -0.398,0.522 L -24,18.626 c -0.27,0.424 -0.399,0.608 -0.596,0.724 -0.134,0.08 -0.284,0.121 -0.433,0.121 -0.098,0 -0.196,-0.018 -0.288,-0.053 -0.412,-0.156 -0.538,-0.55 -0.615,-0.785 -0.036,-0.084 -0.086,-0.152 -0.136,-0.219 l -0.107,-0.145 c -0.208,-0.073 -0.463,-0.173 -0.662,-0.431 -0.052,-0.068 -0.104,-0.143 -0.157,-0.218 -0.044,-0.061 -0.106,-0.147 -0.161,-0.218 -0.188,-0.03 -0.449,-0.138 -0.638,-0.482 l -0.624,-1.14 1.109,0.065 c 0.045,-0.094 0.091,-0.184 0.136,-0.259 0.089,-0.149 0.18,-0.26 0.274,-0.371 0.04,-0.048 0.082,-0.096 0.124,-0.157 0.1,-0.147 0.187,-0.298 0.274,-0.45 0.124,-0.214 0.249,-0.429 0.396,-0.629 0.225,-0.31 0.426,-0.647 0.627,-0.982 0.213,-0.353 0.425,-0.705 0.658,-1.027 0.085,-0.117 0.173,-0.235 0.264,-0.354 0.208,-0.271 0.422,-0.553 0.567,-0.826 0.429,-0.804 0.532,-1.774 0.631,-2.714 l 0.046,-0.442 C -23.276,7.345 -23.301,7.079 -23.33,6.772 -23.348,6.575 -23.365,6.379 -23.37,6.176 -23.373,6.074 -23.404,5.971 -23.447,5.829 -23.49,5.69 -23.53,5.551 -23.558,5.398 -23.59,5.214 -23.595,5.058 -23.598,4.896 -23.599,4.826 -23.6,4.754 -23.606,4.674 -23.634,4.359 -23.676,4.062 -23.717,3.77 -23.801,3.161 -23.889,2.531 -23.846,1.826 L -23.813,1.2 c 0.041,-0.849 0.079,-1.652 0.301,-2.541 0.246,-0.996 0.887,-1.654 1.451,-2.234 l 0.397,-0.415 c 0.43,-0.457 1.018,-1.081 1.104,-1.595 0.126,-0.756 0.482,-1.444 0.794,-2.052 0.142,-0.274 0.282,-0.544 0.396,-0.813 0.094,-0.224 0.156,-0.473 0.223,-0.737 0.005,-0.025 0.011,-0.049 0.018,-0.075 l -0.078,-0.146 c 0.024,-0.036 0.052,-0.067 0.068,-0.112 0.538,-1.435 0.9,-3.057 0.493,-4.573 -0.225,-0.836 -0.671,-1.56 -1.147,-2.268 -0.479,-1.161 -0.929,-2.361 -0.879,-3.684 -0.582,-0.346 -0.833,-0.819 -1.027,-1.185 -0.099,-0.186 -0.183,-0.345 -0.296,-0.468 -0.08,-0.088 -0.18,-0.165 -0.277,-0.244 -0.136,-0.111 -0.288,-0.234 -0.43,-0.385 -0.362,-0.211 -0.724,-0.447 -1.084,-0.683 l -0.838,-0.545 c -0.294,-0.196 -0.571,-0.381 -0.885,-0.507 -1.126,-0.452 -2.346,-0.904 -3.639,-1.145 l -0.098,-0.025 -1.137,-0.383 c -1.017,-0.342 -2.024,-0.68 -3.041,-1.034 -0.255,-0.088 -0.507,-0.194 -0.76,-0.301 -0.276,-0.117 -0.553,-0.236 -0.838,-0.321 -0.046,-0.014 -0.097,-0.024 -0.149,-0.036 -0.062,-0.013 -0.135,-0.029 -0.21,-0.048 0.138,-1.156 0.109,-2.331 -0.073,-3.476 0.186,-0.074 0.391,-0.136 0.649,-0.158 0.867,-0.073 1.775,0.169 2.576,0.384 0.23,0.06 0.456,0.121 0.673,0.171 0.36,0.083 0.709,0.186 1.058,0.288 0.361,0.106 0.722,0.212 1.098,0.293 0.164,0.037 0.32,0.078 0.476,0.119 0.188,0.048 0.375,0.098 0.571,0.133 l 1.696,0.312 c 0.785,0.14 1.596,0.284 2.41,0.518 0.707,0.204 1.41,0.441 2.214,0.749 l 0.312,0.115 c 0.253,0.092 0.502,0.183 0.747,0.297 0.144,0.065 0.282,0.14 0.419,0.215 0.121,0.068 0.243,0.135 0.372,0.191 0.639,0.277 1.176,0.648 1.696,1.008 0.147,0.101 0.294,0.203 0.442,0.301 0.62,0.415 1.14,0.881 1.643,1.333 l 0.375,0.335 c 0.73,0.64 1.659,1.612 1.931,2.6 l 0.026,0.181 c 0.007,0.414 0.106,0.878 0.211,1.369 0.066,0.307 0.131,0.616 0.178,0.921 0.185,1.207 0.285,2.193 0.314,3.105 0.051,0.378 0.069,0.775 0.051,1.145 -0.013,0.285 -0.066,0.557 -0.122,0.833 -0.007,0.03 -0.011,0.061 -0.018,0.093 -0.244,0.783 -0.445,1.582 -0.571,2.391 -0.037,0.242 -0.059,0.488 -0.084,0.734 -0.134,0.544 -0.273,1.052 -0.425,1.519 -0.087,0.271 -0.196,0.528 -0.308,0.788 -0.105,0.246 -0.213,0.492 -0.291,0.756 -0.193,0.644 -0.5,1.168 -0.796,1.674 -0.09,0.155 -0.181,0.311 -0.27,0.472 -0.079,0.143 -0.148,0.29 -0.217,0.437 -0.09,0.19 -0.18,0.381 -0.284,0.563 l -0.189,0.334 c -0.503,0.887 -0.836,1.473 -1.067,2.456 -0.165,0.681 -0.431,1.33 -0.687,1.957 m -11.161,-6.633 -0.185,-0.138 c -0.296,-0.302 -0.66,-0.557 -1.046,-0.825 -0.181,-0.126 -0.362,-0.253 -0.539,-0.386 l -0.546,-0.406 c -1.151,-0.856 -2.341,-1.739 -3.505,-2.715 -0.429,-0.45 -0.867,-0.825 -1.331,-1.222 -0.358,-0.305 -0.716,-0.611 -1.044,-0.927 -0.225,-0.216 -0.42,-0.439 -0.615,-0.662 -0.106,-0.122 -0.21,-0.243 -0.321,-0.362 -0.123,-0.132 -0.253,-0.256 -0.384,-0.381 -0.11,-0.105 -0.219,-0.21 -0.324,-0.317 l -0.384,-0.391 c -0.421,-0.424 -0.856,-0.864 -1.237,-1.323 -0.321,-0.387 -0.615,-0.818 -0.906,-1.289 1.778,0.311 3.53,0.788 5.344,0.85 0.192,0.284 0.411,0.566 0.629,0.839 0.546,0.689 1.104,1.282 1.757,1.869 l 0.225,0.206 c 0.374,0.343 0.728,0.668 1.146,0.887 0.114,0.061 0.231,0.107 0.348,0.155 0.116,0.046 0.23,0.092 0.343,0.146 0.122,0.057 0.24,0.118 0.358,0.179 0.214,0.112 0.401,0.209 0.59,0.265 0.094,0.027 0.187,0.049 0.28,0.073 0.238,0.057 0.473,0.119 0.707,0.219 0.285,0.123 0.55,0.229 0.834,0.342 1.031,0.408 1.98,0.962 2.744,1.407 0.49,0.285 0.968,0.592 1.441,0.899 0.766,0.495 1.489,0.962 2.241,1.311 0.067,0.032 0.143,0.06 0.223,0.09 0.395,0.15 1.02,0.41 1.254,1.05 -0.45,0.624 -0.685,1.385 -1.031,2.067 -0.091,0.178 -0.189,0.356 -0.297,0.525 -0.047,0.073 -0.097,0.143 -0.148,0.214 -0.01,0.012 -0.059,0.075 -0.069,0.087 -0.025,0.03 -0.053,0.06 -0.08,0.09 -0.031,0.033 -0.065,0.063 -0.099,0.093 l -0.053,-0.014 c -0.272,-0.077 -0.495,-0.138 -0.714,-0.14 -0.603,-0.003 -1.183,-0.182 -1.568,-0.324 l -0.187,-0.069 c -0.526,-0.192 -1.07,-0.39 -1.602,-0.674 -0.355,-0.191 -0.714,-0.407 -1.073,-0.623 -0.393,-0.238 -0.787,-0.476 -1.176,-0.675 m -13.877,-12.506 c -1.201,-0.241 -2.439,-0.493 -3.648,-0.8 -0.158,-0.04 -0.298,-0.089 -0.445,-0.142 l -0.096,-0.035 c -0.133,-0.047 -0.248,-0.066 -0.374,-0.089 l -0.191,-0.037 c -0.517,-0.102 -1.096,-0.275 -1.584,-0.474 -0.571,-0.235 -1.162,-0.445 -1.753,-0.655 -0.981,-0.348 -1.997,-0.709 -2.927,-1.182 -0.756,-0.383 -1.374,-0.753 -1.888,-1.131 l -0.179,-0.125 c -0.155,-0.105 -0.311,-0.214 -0.438,-0.326 -0.305,-0.272 -0.47,-0.585 -0.602,-0.838 l -0.078,-0.146 c -0.131,-0.235 -0.257,-0.469 -0.383,-0.703 -0.327,-0.609 -0.637,-1.185 -1.014,-1.76 -0.135,-0.207 -0.251,-0.422 -0.364,-0.637 -0.101,-0.19 -0.201,-0.379 -0.324,-0.561 l -0.204,-0.292 c -0.161,-0.227 -0.322,-0.455 -0.461,-0.691 -0.302,-0.513 -0.403,-1.031 -0.491,-1.488 l -0.019,-0.096 c 3.068,0.771 6.278,0.845 9.356,1.599 0.041,0.009 0.075,0.003 0.113,0.004 0.029,0.09 0.063,0.18 0.097,0.271 0.068,0.176 0.133,0.352 0.179,0.53 0.073,0.282 0.12,0.468 0.202,0.641 0.099,0.212 0.545,0.452 0.903,0.644 0.168,0.091 0.336,0.182 0.493,0.277 0.211,0.128 0.513,0.215 0.833,0.305 0.165,0.048 0.33,0.096 0.489,0.15 0.273,0.092 0.543,0.188 0.813,0.285 0.549,0.196 1.099,0.394 1.668,0.553 0.175,0.049 0.351,0.093 0.527,0.139 0.002,10e-4 0.002,0.002 0.004,0.003 0.598,0.301 1.216,0.539 1.841,0.751 l -0.039,0.188 0.007,10e-4 0.056,-0.181 c 2.28,0.766 4.7,1.069 7.006,1.769 0.108,0.032 0.199,0.021 0.282,-0.005 0.114,0.03 0.223,0.055 0.314,0.06 0.439,0.025 0.763,0.123 1.106,0.228 l 0.308,0.092 c 0.245,0.069 0.493,0.118 0.741,0.169 0.199,0.04 0.398,0.081 0.594,0.128 0.337,0.083 0.656,0.195 0.974,0.307 0.212,0.074 0.424,0.15 0.64,0.213 0.088,0.025 0.179,0.046 0.268,0.067 0.1,0.024 0.199,0.048 0.298,0.076 0.255,0.071 0.486,0.17 0.717,0.27 0.158,0.068 0.315,0.139 0.486,0.191 1.363,0.414 2.457,0.815 3.44,1.262 0.759,0.348 1.481,0.739 2.18,1.117 l 0.739,0.399 c 0.468,0.248 0.936,0.465 1.406,0.682 l 0.543,0.254 c -0.114,0.14 -0.154,0.333 -0.032,0.536 0.662,1.087 1.579,2.083 1.949,3.324 0.331,1.105 0.149,2.274 -0.188,3.368 l -0.388,-0.725 c -0.217,-0.088 -0.428,-0.18 -0.64,-0.272 -0.185,-0.08 -0.369,-0.161 -0.555,-0.237 -0.602,-0.249 -1.206,-0.504 -1.816,-0.762 -0.871,-0.367 -1.751,-0.739 -2.644,-1.1 -1.183,-0.478 -2.266,-0.945 -3.218,-1.388 -0.294,-0.137 -0.581,-0.285 -0.868,-0.432 l -0.267,-0.137 c -0.231,-0.117 -0.468,-0.209 -0.707,-0.303 -0.196,-0.076 -0.393,-0.153 -0.588,-0.241 l -0.345,-0.159 c -0.231,-0.108 -0.462,-0.218 -0.704,-0.309 -0.184,-0.069 -0.341,-0.146 -0.5,-0.225 -0.089,-0.044 -0.178,-0.089 -0.277,-0.132 -0.134,-0.058 -0.279,-0.095 -0.422,-0.134 -0.187,-0.052 -0.373,-0.103 -0.548,-0.175 -0.148,-0.057 -0.295,-0.127 -0.442,-0.197 -0.094,-0.045 -0.189,-0.09 -0.285,-0.131 -0.256,-0.108 -0.568,-0.183 -0.899,-0.262 -0.319,-0.077 -0.647,-0.156 -0.96,-0.274 -0.146,-0.013 -0.287,-0.02 -0.429,-0.027 -2.02,-0.509 -4.09,-0.861 -6.176,-0.869 -0.065,0 -0.12,0.015 -0.172,0.032 m -21.141,-14.283 c -0.246,-0.104 -0.498,-0.199 -0.739,-0.314 -0.882,-0.421 -1.666,-0.974 -2.331,-1.46 -0.114,-0.082 -0.233,-0.164 -0.353,-0.246 -0.285,-0.196 -0.571,-0.394 -0.821,-0.613 -0.47,-0.41 -0.871,-0.762 -1.252,-1.129 -1.285,-1.224 -2.215,-2.617 -2.684,-4.025 l -0.032,-0.138 c -0.089,-0.704 -0.149,-1.421 -0.205,-2.147 -0.109,-1.431 -0.036,-2.809 0.224,-4.212 0.17,-0.901 0.403,-1.761 0.649,-2.672 0.097,-0.356 0.194,-0.716 0.289,-1.085 l 0.045,-0.124 c 0.146,-0.314 0.269,-0.641 0.394,-0.97 0.085,-0.224 0.179,-0.446 0.27,-0.668 0.688,-1.091 1.285,-2.219 1.642,-3.455 0.068,-0.128 0.13,-0.258 0.198,-0.386 l 0.088,-0.167 c 0.106,-0.2 0.119,-0.294 0.155,-0.574 0.052,-0.385 0.166,-0.618 0.259,-0.805 0.05,-0.103 0.098,-0.2 0.108,-0.26 0.064,-0.401 0.106,-0.667 0.255,-1.041 0.088,-0.218 0.185,-0.428 0.282,-0.636 0.153,-0.328 0.297,-0.637 0.373,-0.947 0.027,-0.109 0.093,-0.3 0.146,-0.445 0.048,-0.132 0.062,-0.185 0.077,-0.239 0.048,-0.167 0.101,-0.335 0.177,-0.481 0.039,-0.079 0.079,-0.176 0.121,-0.276 0.094,-0.227 0.196,-0.459 0.311,-0.634 0.405,-0.615 1.164,-1.212 2.485,-0.558 l 0.145,0.071 c 0.675,0.329 1.696,0.825 1.68,2.103 l -10e-4,0.123 c -0.002,0.456 -0.033,0.767 -0.446,1.234 -0.119,0.136 -0.205,0.276 -0.294,0.418 -0.089,0.142 -0.18,0.285 -0.288,0.429 -0.378,0.504 -0.689,0.985 -0.951,1.473 -0.15,0.281 -0.328,0.545 -0.507,0.808 -0.15,0.219 -0.301,0.437 -0.425,0.671 -0.097,0.181 -0.135,0.387 -0.183,0.649 l -0.029,0.153 c -0.143,0.757 -0.48,1.417 -0.805,2.056 -0.132,0.257 -0.263,0.515 -0.377,0.775 -0.663,1.511 -1.013,2.98 -1.039,4.365 -0.004,0.204 -0.013,0.409 -0.023,0.613 -0.022,0.485 -0.043,0.942 0.022,1.365 0.092,0.605 0.198,1.242 0.387,1.803 0.091,0.268 0.17,0.534 0.249,0.799 0.179,0.6 0.347,1.167 0.629,1.683 0.161,0.295 0.527,0.593 0.881,0.88 0.238,0.195 0.467,0.384 0.651,0.573 0.745,0.552 1.575,0.935 2.453,1.34 l 0.01,0.005 0.26,-0.208 0.052,0.022 c 0.038,0.061 0.089,0.118 0.164,0.164 1.54,0.956 3.276,1.519 4.98,2.102 1.894,0.646 3.739,1.355 5.708,1.746 0.06,0.012 0.113,0.006 0.166,0 0.551,0.177 1.117,0.348 1.697,0.513 l 0.6,0.17 -0.011,0.085 c 0.288,0.097 0.577,0.192 0.868,0.288 l 0.528,0.174 c 1.133,0.377 2.169,0.68 3.167,0.925 l 0.234,0.053 c 0.471,0.103 1.056,0.232 1.477,0.648 0.204,0.193 0.327,0.315 0.41,0.469 l 0.151,0.278 -0.066,0.226 c 0.007,0.276 -0.073,0.49 -0.129,0.64 l -0.038,0.109 c -0.111,0.371 -0.296,0.637 -0.46,0.872 l -0.158,0.236 c -0.149,0.236 -0.354,0.561 -0.642,0.752 l -0.301,0.2 -0.34,-0.122 c -0.044,-0.015 -0.093,-0.026 -0.143,-0.039 -0.072,-0.018 -0.145,-0.036 -0.217,-0.058 -0.386,-0.12 -0.841,-0.253 -1.292,-0.34 -0.399,-0.078 -0.789,-0.135 -1.178,-0.191 -0.663,-0.096 -1.349,-0.196 -2.06,-0.395 -0.266,-0.076 -0.518,-0.102 -0.809,-0.134 -0.143,-0.015 -0.287,-0.03 -0.436,-0.052 -0.21,-0.031 -0.42,-0.068 -0.628,-0.108 l -0.021,0.052 c -0.034,-0.017 -0.061,-0.04 -0.103,-0.049 -1.48,-0.364 -2.992,-0.569 -4.503,-0.77 -0.091,-0.022 -0.185,-0.043 -0.276,-0.065 -0.183,-0.046 -0.366,-0.093 -0.552,-0.136 -0.233,-0.054 -0.464,-0.104 -0.694,-0.153 -0.472,-0.103 -0.937,-0.203 -1.395,-0.331 -0.085,-0.025 -0.174,-0.043 -0.26,-0.067 -1.061,-0.4 -2.168,-0.695 -3.278,-0.908 -0.758,-0.145 -1.552,-0.261 -2.342,-0.28 m -8.509,-20.273 c -0.148,-0.069 -0.303,-0.135 -0.459,-0.2 -0.164,-0.07 -0.327,-0.14 -0.488,-0.214 l -0.002,-10e-4 c -1.004,-0.467 -1.797,-1.186 -2.563,-1.882 -0.166,-0.151 -0.332,-0.301 -0.499,-0.448 l -0.275,-0.241 c -0.481,-0.42 -0.978,-0.855 -1.441,-1.331 -0.763,-0.782 -1.494,-1.557 -2.038,-2.426 -0.217,-0.347 -0.336,-0.712 -0.441,-1.034 -0.079,-0.244 -0.154,-0.475 -0.259,-0.663 -0.254,-0.452 -0.37,-0.87 -0.482,-1.275 -0.056,-0.201 -0.113,-0.407 -0.192,-0.62 -0.041,-0.11 -0.098,-0.216 -0.154,-0.322 -0.106,-0.204 -0.207,-0.408 -0.268,-0.614 l -0.113,-0.359 c -0.152,-0.472 -0.325,-1.007 -0.363,-1.58 -0.007,-0.099 -0.01,-0.191 -0.012,-0.278 -0.007,-0.215 -0.012,-0.306 -0.058,-0.413 -0.183,-0.41 -0.229,-0.626 -0.276,-1.067 -0.015,-0.15 -0.06,-0.285 -0.102,-0.424 l -0.077,-0.262 c -0.068,-0.256 -0.165,-0.524 -0.261,-0.748 -0.092,-0.212 -0.147,-0.4 -0.202,-0.596 -0.025,-0.086 -0.049,-0.173 -0.081,-0.268 0.006,0.026 -0.016,-0.003 -0.037,-0.032 -0.142,-0.194 -0.472,-0.648 -0.228,-1.179 l 0.315,-0.682 0.668,0.343 c 0.056,0.029 0.183,0.033 0.317,0.036 0.167,0.005 0.334,0.013 0.499,0.045 0.403,0.081 0.789,0.328 0.937,0.431 0.323,0.226 0.602,0.539 0.847,0.815 l 0.202,0.222 c 0.404,0.429 0.738,0.962 1.033,1.431 0.192,0.307 0.273,0.563 0.344,0.788 0.047,0.15 0.088,0.279 0.142,0.372 0.044,0.078 0.1,0.148 0.155,0.22 0.115,0.149 0.227,0.301 0.316,0.475 0.385,0.753 0.832,1.503 1.264,2.227 l 0.351,0.591 c 0.268,0.454 0.597,0.867 0.946,1.303 0.249,0.313 0.499,0.627 0.73,0.958 0.17,0.243 0.325,0.497 0.481,0.752 0.156,0.257 0.312,0.515 0.49,0.759 0.181,0.249 0.394,0.499 0.669,0.787 0.376,0.395 0.801,0.692 1.168,0.929 0.196,0.128 0.408,0.297 0.628,0.475 0.374,0.302 0.84,0.678 1.148,0.7 l 0.525,0.036 0.064,0.26 c -0.242,1.685 -1.072,3.155 -2,4.557 -0.062,-0.005 -0.116,-0.011 -0.148,-0.017 -0.194,-0.033 -0.361,-0.125 -0.594,-0.263 -0.048,-0.029 -0.092,-0.056 -0.126,-0.073 m 11.005,4.639 h -10e-4 c -0.746,0.024 -1.341,-0.086 -2.041,-0.363 -0.099,-0.039 -0.202,-0.083 -0.309,-0.13 -0.47,-0.206 -0.983,-0.352 -1.714,-0.486 -0.243,-0.045 -0.423,-0.123 -0.559,-0.218 0.44,-1.687 1.34,-3.265 1.993,-4.869 0.354,0.144 0.505,0.447 0.595,0.634 0.021,0.044 0.041,0.094 0.072,0.139 0.2,0.287 0.735,0.501 1.126,0.657 0.341,0.138 0.668,0.224 1.014,0.316 0.241,0.064 0.487,0.129 0.742,0.21 0.18,0.057 0.364,0.097 0.546,0.137 0.394,0.087 0.842,0.186 1.273,0.428 0.069,0.04 0.134,0.081 0.199,0.122 0.08,0.051 0.15,0.096 0.202,0.115 0.042,0.016 0.084,0.021 0.125,0.03 0.096,0.02 0.223,0.047 0.358,0.101 0.157,1.281 -0.142,2.542 -0.517,3.768 l -0.174,-0.019 c -0.22,-0.022 -0.438,-0.046 -0.654,-0.094 -0.277,-0.061 -0.54,-0.136 -0.802,-0.211 -0.524,-0.15 -0.975,-0.277 -1.474,-0.267 m -23.106,-25.643 -0.34,-0.247 c -0.6,-0.429 -1.279,-0.916 -1.702,-1.576 l -0.925,-1.444 1.678,0.351 c 0.305,0.063 0.598,0.148 0.889,0.233 0.438,0.128 0.853,0.249 1.254,0.263 0.381,0.015 0.607,0.118 0.826,0.217 0.211,0.096 0.256,0.101 0.447,0.122 l 0.161,0.018 c 0.453,0.057 0.857,0.224 1.248,0.386 0.259,0.107 0.504,0.208 0.729,0.26 1.563,0.365 3.121,0.827 4.628,1.272 1.389,0.411 2.825,0.836 4.246,1.179 1.928,0.465 3.872,1.068 5.939,1.839 0.033,0.029 0.061,0.06 0.107,0.082 1.919,0.932 3.621,2.301 5.645,2.999 0.175,0.126 0.353,0.248 0.521,0.385 0.281,0.226 0.546,0.441 0.834,0.59 0.589,0.306 1.241,0.791 1.941,1.441 0.865,0.803 1.718,1.744 2.097,3.183 l 0.124,0.454 c 0.177,0.638 0.361,1.299 0.408,2.04 0.03,0.475 0.242,1.088 0.429,1.629 l 0.073,0.21 c 0.065,0.192 0.112,0.385 0.156,0.578 0.033,0.138 0.064,0.275 0.108,0.41 0.049,0.151 0.112,0.294 0.173,0.437 0.109,0.253 0.232,0.539 0.303,0.869 0.112,0.511 0.139,0.99 0.165,1.454 0.036,0.642 0.067,1.197 0.312,1.745 0.33,0.74 0.394,1.565 0.371,2.358 -0.265,1.746 -0.553,3.492 -0.559,5.264 0,0.076 0.016,0.141 0.04,0.199 -0.026,0.168 -0.054,0.335 -0.067,0.506 -0.045,0.583 -0.051,1.225 -0.019,2.08 0.02,0.555 0.028,1.097 0.037,1.636 l 0.011,0.673 c 0.014,0.712 0.026,1.397 0.286,1.982 0.215,0.484 0.347,0.947 0.464,1.379 l 0.042,0.168 c -1.604,-0.393 -3.143,-0.955 -4.709,-1.492 -1.279,-0.439 -2.574,-0.858 -3.791,-1.449 0.03,-0.139 0.059,-0.258 0.101,-0.364 0.049,-0.127 0.111,-0.249 0.175,-0.371 0.035,-0.067 0.07,-0.134 0.1,-0.204 0.073,-0.172 0.114,-0.377 0.161,-0.616 l 0.039,-0.189 c 0.069,-0.332 0.192,-0.618 0.301,-0.87 0.057,-0.132 0.114,-0.264 0.161,-0.403 0.088,-0.263 0.171,-0.529 0.255,-0.797 0.113,-0.363 0.227,-0.728 0.354,-1.088 0.143,-0.405 0.301,-0.782 0.481,-1.181 0.122,-0.674 0.359,-1.289 0.589,-1.884 0.006,-0.015 0.012,-0.031 0.018,-0.046 l -0.189,-0.017 c 0.108,-0.348 0.21,-0.7 0.302,-1.054 0.195,-0.505 0.376,-1.077 0.351,-1.635 -0.003,-0.067 -0.019,-0.132 -0.027,-0.199 0.033,-0.437 0.029,-0.875 -0.026,-1.315 -0.015,-0.125 -0.064,-0.24 -0.139,-0.33 0.001,-0.159 -0.013,-0.327 0.005,-0.478 0.021,-0.183 0.057,-0.362 0.093,-0.541 0.044,-0.213 0.085,-0.415 0.086,-0.594 0.006,-0.905 -0.435,-2.008 -0.823,-2.98 -0.105,-0.262 -0.207,-0.517 -0.298,-0.76 -0.221,-0.592 -0.461,-1.158 -0.701,-1.728 l -0.275,-0.652 c -0.249,-0.599 -0.483,-1.13 -0.823,-1.565 -0.582,-0.746 -1.341,-1.469 -2.391,-2.276 -0.773,-0.594 -1.628,-1.133 -2.617,-1.649 -0.144,-0.075 -0.289,-0.159 -0.435,-0.244 -0.253,-0.146 -0.492,-0.284 -0.71,-0.368 -0.22,-0.084 -0.434,-0.182 -0.647,-0.278 -0.325,-0.148 -0.632,-0.287 -0.939,-0.364 -0.443,-0.112 -0.891,-0.255 -1.332,-0.397 -0.249,-0.08 -0.495,-0.158 -0.737,-0.23 -0.121,-0.035 -0.225,-0.075 -0.329,-0.115 -0.088,-0.033 -0.175,-0.069 -0.29,-0.095 -0.155,-0.039 -0.255,-0.107 -0.336,-0.163 -0.037,-0.016 -0.132,-0.023 -0.227,-0.032 -0.199,-0.021 -0.449,-0.047 -0.721,-0.152 -0.443,-0.172 -0.887,-0.299 -1.356,-0.434 -0.684,-0.196 -1.391,-0.399 -2.102,-0.75 -0.276,-0.137 -0.524,-0.264 -0.769,-0.39 l -0.562,-0.286 c -0.271,-0.135 -0.557,-0.239 -0.843,-0.344 -0.297,-0.11 -0.595,-0.22 -0.883,-0.356 -0.279,-0.132 -0.559,-0.273 -0.838,-0.416 -0.467,-0.237 -0.907,-0.461 -1.354,-0.64 -0.566,-0.227 -1.046,-0.527 -1.51,-0.817 -0.321,-0.2 -0.64,-0.402 -0.986,-0.57 -0.526,-0.256 -0.954,-0.627 -1.368,-0.985 -0.189,-0.164 -0.376,-0.328 -0.569,-0.471 m 20.858,-2.689 0.151,-0.33 0.354,-0.075 c 0.592,-0.127 1.738,0.76 1.748,0.769 0.279,0.23 0.439,0.503 0.568,0.721 0.052,0.088 0.102,0.177 0.165,0.259 0.425,0.555 0.866,1.13 1.097,1.829 0.188,0.563 0.283,0.992 0.301,1.348 0.005,0.106 -0.004,0.219 -0.016,0.333 -0.001,0.01 -0.002,0.019 -0.003,0.029 0.068,0.091 0.144,0.217 0.185,0.388 0.039,0.173 0.036,0.323 0.034,0.433 0.045,0.157 0.126,0.318 0.153,0.547 0.03,0.264 0.021,0.544 0.009,0.821 -0.004,0.113 -0.009,0.226 -0.009,0.335 l -0.406,0.002 c -1.383,-0.808 -2.865,-1.434 -4.33,-2.09 0.051,-0.104 0.096,-0.201 0.109,-0.268 -0.032,-0.099 -0.06,-0.28 -0.009,-0.493 0.034,-0.149 0.106,-0.266 0.171,-0.348 0.026,-0.217 0.017,-0.472 0.007,-0.738 -0.005,-0.146 -0.01,-0.289 -0.01,-0.429 0,-0.164 0.009,-0.34 0.019,-0.522 0.015,-0.267 0.03,-0.542 0.007,-0.758 -0.073,-0.09 -0.148,-0.219 -0.179,-0.392 -0.023,-0.131 -0.017,-0.245 -0.012,-0.328 -0.102,-0.169 -0.317,-0.574 -0.104,-1.043 m 12.937,26.784 c 0.328,0.032 0.657,0.106 0.944,0.171 0.093,0.021 0.172,0.04 0.227,0.049 0.291,0.05 0.572,0.137 0.853,0.227 0.153,0.049 0.304,0.098 0.459,0.137 0.574,0.143 1.087,0.391 1.583,0.631 l 0.195,0.095 c 0.188,0.09 0.384,0.151 0.58,0.215 0.269,0.087 0.547,0.177 0.831,0.322 0.31,0.158 0.618,0.358 0.92,0.556 l 0.095,0.063 c 0.686,0.448 1.405,0.823 2.167,1.22 0.798,0.415 1.622,0.845 2.4,1.365 0.678,0.454 1.306,1.16 1.864,2.096 0.096,0.16 0.189,0.325 0.282,0.489 0.122,0.216 0.243,0.432 0.377,0.641 0.079,0.124 0.181,0.238 0.283,0.353 0.169,0.193 0.36,0.412 0.504,0.679 0.147,0.27 0.504,0.979 0.575,1.622 0.013,0.114 0.02,0.225 0.025,0.335 0.007,0.123 0.009,0.242 0.038,0.356 0.083,0.32 0.115,0.563 0.112,0.892 -0.002,0.302 0.01,0.613 0.021,0.926 0.015,0.384 0.03,0.776 0.022,1.168 h 0.033 v 0.261 c 0,0.089 0.028,0.169 0.07,0.241 l -0.133,0.05 c -0.004,0.06 -0.01,0.121 -0.018,0.181 -0.039,0.337 -0.098,0.671 -0.157,1.006 -0.077,0.436 -0.15,0.848 -0.177,1.262 -0.012,0.183 -0.004,0.368 0.009,0.552 -0.146,0.057 -0.271,0.163 -0.291,0.319 -0.14,1.033 -0.229,2.078 -0.217,3.122 0.01,0.883 0.041,1.948 0.519,2.737 -0.027,0.096 -0.054,0.191 -0.072,0.291 -0.02,0.113 -0.027,0.229 -0.036,0.346 -0.014,0.198 -0.03,0.395 -0.071,0.589 -0.028,0.126 -0.062,0.251 -0.097,0.376 -0.01,0.037 -0.018,0.074 -0.027,0.111 -1.962,-0.531 -4.004,-0.824 -5.941,-1.432 0.046,-0.297 0.055,-0.585 0.066,-0.886 l 0.005,-0.125 c 0.013,-0.302 0.09,-0.55 0.158,-0.769 0.031,-0.102 0.064,-0.202 0.084,-0.31 0.017,-0.095 0.027,-0.193 0.038,-0.29 0.02,-0.191 0.043,-0.382 0.09,-0.567 0.02,-0.082 0.037,-0.166 0.053,-0.25 0.035,-0.171 0.071,-0.342 0.123,-0.507 0.068,-0.208 0.161,-0.407 0.255,-0.604 0.075,-0.155 0.153,-0.307 0.198,-0.474 0.095,-0.356 0.216,-0.707 0.339,-1.058 0.087,-0.252 0.175,-0.504 0.251,-0.758 0.062,-0.208 0.085,-0.427 0.112,-0.645 0.072,-0.59 0.163,-1.329 0.782,-1.952 -0.29,-0.454 -0.181,-0.982 -0.092,-1.413 0.067,-0.324 0.135,-0.659 0.047,-0.905 -0.13,-0.365 -0.231,-0.657 -0.368,-0.944 -0.649,-1.375 -1.379,-2.403 -2.302,-3.235 l -0.326,-0.303 c -0.292,-0.273 -0.593,-0.555 -0.891,-0.761 -0.091,-0.062 -0.185,-0.119 -0.279,-0.176 -0.126,-0.077 -0.252,-0.154 -0.373,-0.239 -0.058,-0.041 -0.13,-0.069 -0.2,-0.1 -0.073,-0.034 -0.145,-0.067 -0.213,-0.102 -0.127,-0.068 -0.226,-0.142 -0.324,-0.219 -0.03,-0.024 -0.059,-0.048 -0.094,-0.07 -0.068,-0.043 -0.144,-0.082 -0.219,-0.121 -0.079,-0.042 -0.158,-0.083 -0.232,-0.126 -0.133,-0.078 -0.288,-0.131 -0.436,-0.187 l -0.181,-0.068 c -0.222,-0.087 -0.433,-0.188 -0.642,-0.29 -0.147,-0.072 -0.293,-0.143 -0.444,-0.207 -0.601,-0.25 -1.297,-0.537 -1.952,-0.759 -0.222,-0.074 -0.438,-0.164 -0.653,-0.254 -0.288,-0.12 -0.56,-0.233 -0.822,-0.294 -0.071,-0.016 -0.156,-0.028 -0.245,-0.042 -0.16,-0.024 -0.357,-0.062 -0.556,-0.118 0.042,-1.51 0.267,-3.001 0.492,-4.492 m 76.294,22.902 c -0.229,-1.102 -0.733,-2.066 -0.519,-3.335 0.208,-1.238 -0.588,-2.442 -1.335,-3.529 v 0.735 c -0.085,0.005 -0.17,0.011 -0.256,0.018 -0.037,-0.593 -0.187,-1.205 -0.09,-1.774 0.319,-1.872 0.754,-3.725 1.085,-5.595 0.093,-0.525 0.07,-1.107 -0.055,-1.626 -0.414,-1.722 -0.881,-3.432 -1.362,-5.137 -0.398,-1.413 -0.799,-2.828 -1.285,-4.213 -0.29,-0.828 -0.724,-1.609 -1.138,-2.388 -0.168,-0.318 -0.462,-0.567 -0.679,-0.86 -0.095,-0.127 -0.158,-0.282 -0.211,-0.433 -0.315,-0.877 0.396,-1.787 -0.1,-2.673 -0.167,-0.297 -0.257,-0.657 -0.302,-1 -0.129,-0.979 -0.211,-1.964 -0.324,-2.945 -0.02,-0.166 -0.065,-0.35 -0.16,-0.482 -0.538,-0.752 -1.106,-1.483 -1.634,-2.241 -0.092,-0.132 -0.043,-0.363 -0.065,-0.62 -1.223,-1.099 -1.778,-2.827 -3.066,-4.071 -1.158,-1.118 -1.892,-2.676 -2.818,-4.037 -0.611,-0.895 -1.246,-1.773 -1.839,-2.679 -0.518,-0.789 -1.361,-1.319 -1.443,-2.467 -0.045,-0.621 -0.714,-1.276 -1.24,-1.767 -1.052,-0.983 -2.201,-1.864 -3.312,-2.79 -0.02,0.167 -0.042,0.358 -0.066,0.549 -0.068,0.028 -0.136,0.057 -0.205,0.086 -0.439,-0.65 -0.873,-1.304 -1.319,-1.948 -0.29,-0.419 -0.601,-0.825 -0.9,-1.238 -0.223,-0.305 -0.452,-0.606 -0.663,-0.918 -0.356,-0.526 -0.695,-1.065 -1.053,-1.589 -0.123,-0.179 -0.297,-0.322 -0.428,-0.495 -0.531,-0.701 -1.029,-1.429 -1.6,-2.096 -0.145,-0.17 -0.506,-0.18 -0.775,-0.216 -0.389,-0.051 -0.804,0.011 -1.173,-0.097 -1.555,-0.452 -3.114,-0.903 -4.637,-1.453 -0.616,-0.222 -1.222,-0.613 -1.695,-1.07 -1.451,-1.4 -3.261,-2.344 -4.621,-3.886 -0.719,-0.814 -1.881,-1.262 -2.887,-1.789 -1.12,-0.587 -2.285,-1.087 -3.44,-1.604 -0.629,-0.282 -1.259,-0.653 -1.922,-0.749 -1.3,-0.189 -2.626,-0.189 -3.936,-0.313 -1.513,-0.144 -3.082,-0.025 -4.481,-0.794 -1.502,-0.826 -3.141,-0.673 -4.756,-0.696 -0.114,-0.002 -0.263,0.019 -0.338,0.091 -0.722,0.676 -1.549,0.387 -2.344,0.239 -0.122,-0.023 -0.191,-0.322 -0.323,-0.565 -0.368,-0.05 -0.841,-0.162 -1.315,-0.169 -1.007,-0.016 -2.015,0.024 -3.023,0.039 -1.048,0.015 -2.103,0.101 -3.143,0.019 -0.979,-0.078 -1.943,-0.335 -2.914,-0.516 -0.017,-0.003 -0.027,-0.057 -0.043,-0.059 -0.395,-0.038 -0.833,-0.198 -1.176,-0.082 -0.908,0.309 -1.816,0.667 -2.641,1.149 -0.428,0.25 -1.125,0.384 -1.108,1.145 0.002,0.106 -0.179,0.248 -0.305,0.319 -0.501,0.28 -1.015,0.54 -1.524,0.807 0.004,-0.08 0.009,-0.16 0.014,-0.239 -0.148,-0.033 -0.306,-0.116 -0.441,-0.088 -0.739,0.153 -1.467,0.361 -2.209,0.49 -0.296,0.052 -0.631,-0.123 -0.928,-0.073 -1.155,0.194 -2.302,0.438 -3.453,0.661 -1.413,0.274 -2.826,0.542 -4.238,0.818 -0.197,0.039 -0.397,0.181 -0.579,0.154 -1.298,-0.186 -2.402,0.52 -3.604,0.769 -0.213,0.044 -0.378,0.319 -0.565,0.488 0.038,0.033 0.075,0.067 0.113,0.1 l 1.097,-0.355 c 0.027,0.071 0.053,0.142 0.079,0.212 -0.764,0.517 -1.528,1.034 -2.292,1.551 -0.035,-0.107 -0.07,-0.214 -0.106,-0.321 -0.27,0.019 -0.588,-0.047 -0.801,0.074 -0.66,0.374 -1.281,0.815 -1.915,1.235 -1.029,0.682 -2.011,1.449 -3.097,2.022 -0.783,0.413 -1.752,0.465 -2.546,0.863 -1.874,0.938 -3.741,1.914 -4.967,3.738 -0.446,0.664 -0.961,1.284 -1.551,2.065 -0.135,-0.275 -0.206,-0.42 -0.257,-0.523 -1.417,1.196 -1.928,2.855 -2.811,4.282 -0.803,1.296 -1.632,2.626 -2.692,3.702 -1.288,1.307 -2.857,2.333 -4.253,3.539 -1.382,1.193 -1.639,2.934 -2.062,4.58 -0.171,0.668 -0.322,1.341 -0.483,2.012 -0.08,-0.018 -0.16,-0.035 -0.239,-0.053 0.023,-0.199 0.046,-0.399 0.069,-0.598 -0.333,0.324 -0.458,0.729 -0.675,1.077 -0.46,0.738 -0.964,1.449 -1.46,2.163 -0.128,0.185 -0.317,0.328 -0.443,0.514 -0.777,1.154 -1.552,2.309 -2.307,3.477 -0.131,0.204 -0.181,0.469 -0.239,0.713 -0.31,1.306 -0.57,2.625 -0.925,3.918 -0.327,1.191 -0.751,2.355 -1.132,3.531 l -0.189,-0.052 c -0.039,-0.119 -0.077,-0.238 -0.098,-0.304 -0.141,0.743 -0.341,1.498 -0.417,2.267 -0.095,0.981 -0.053,1.977 -0.14,2.961 -0.09,1.011 0.114,2.058 -0.435,3.023 -0.307,0.54 -0.576,1.146 -0.677,1.754 -0.442,2.642 -0.776,5.289 -2.155,7.686 -0.994,1.728 -1.071,3.688 -0.727,5.595 0.561,3.111 1.109,6.237 2.338,9.181 0.073,0.173 0.268,0.291 0.375,0.454 0.412,0.625 0.811,1.26 1.215,1.89 -0.046,0.034 -0.091,0.067 -0.136,0.101 -0.149,-0.068 -0.298,-0.136 -0.447,-0.204 0.681,0.903 0.805,2.022 0.489,2.864 -0.356,0.945 -0.323,1.672 0.087,2.491 0.042,-0.074 0.084,-0.15 0.224,-0.398 0.066,0.722 0.116,1.268 0.165,1.813 0.052,0.58 0.063,1.167 0.162,1.739 0.563,3.234 1.854,6.233 2.98,9.289 1.13,3.067 3.182,5.592 4.814,8.357 0.862,1.46 2.042,2.789 3.479,3.842 1.612,1.184 3.245,2.321 4.373,4.108 0.794,1.257 2.03,2.25 3.137,3.288 1.757,1.648 3.534,3.28 5.37,4.84 2.851,2.423 5.634,4.988 9.519,5.69 0.26,0.048 0.537,0.007 0.798,0.052 0.913,0.158 1.881,0.196 2.717,0.546 0.855,0.358 1.574,1.037 2.365,1.556 0.13,0.086 0.325,0.073 0.491,0.101 0.258,0.044 0.574,0.002 0.764,0.139 1.534,1.097 3.137,2.023 4.987,2.519 1.317,0.354 2.594,0.858 3.881,1.318 0.425,0.152 0.82,0.534 1.235,0.544 1.588,0.037 3,0.75 4.514,1.059 2.23,0.456 4.441,1.064 6.613,-0.238 0.235,-0.141 0.622,-0.063 0.934,-0.031 0.313,0.03 0.631,0.218 0.928,0.182 2.926,-0.358 5.848,-0.753 8.772,-1.128 1.473,-0.188 2.949,-0.351 4.422,-0.537 1.166,-0.147 2.337,-0.27 3.492,-0.477 1.452,-0.261 2.891,-0.597 4.336,-0.897 0.072,-0.015 0.153,0.007 0.227,-0.006 0.678,-0.109 1.44,-0.063 2.018,-0.366 1.738,-0.907 3.405,-1.948 5.095,-2.943 0.517,-0.304 0.957,-0.892 1.667,-0.361 0.068,0.05 0.284,-0.064 0.415,-0.131 1.753,-0.899 3.648,-1.346 5.569,-1.644 1.36,-0.212 1.95,-1.273 2.726,-2.151 0.076,-0.086 0.031,-0.28 0.052,-0.534 -0.276,0.241 -0.47,0.412 -0.664,0.583 -0.058,-0.037 -0.116,-0.072 -0.173,-0.108 0.205,-0.345 0.338,-0.774 0.627,-1.016 1.199,-1.003 2.376,-2.034 3.559,-3.044 C -2.723,18.855 -1.374,16.909 0.733,15.8 1.537,15.376 2.15,14.592 2.863,13.987 3.006,13.865 3.204,13.802 3.386,13.732 5.001,13.118 6.541,12.43 7.307,10.696 7.961,9.215 8.624,7.73 9.389,6.304 9.761,5.61 10.311,4.98 10.887,4.434 c 2.312,-2.197 4.775,-4.245 6.249,-7.183 0.509,-1.016 1.203,-1.937 1.797,-2.911 0.182,-0.3 0.338,-0.622 0.46,-0.951 0.519,-1.401 1.083,-2.789 1.512,-4.217 0.399,-1.326 0.668,-2.693 0.957,-4.051 0.215,-1.009 0.307,-2.047 0.568,-3.041 0.352,-1.344 1.039,-2.639 1.166,-3.993 0.129,-1.387 0.423,-2.71 0.735,-4.046 0.128,-0.549 0.429,-1.139 0.324,-1.642"
               style="fill:#231f20;fill-opacity:1;fill-rule:nonzero;stroke:none"
               id="path369" />
          </g>
        </g>
      </g>
    </g>
  </g>
</svg>
