<?xml version="1.0" encoding="UTF-8" standalone="no"?>
<!-- Created with Inkscape (http://www.inkscape.org/) -->

<svg
   width="24.059317"
   height="24"
   viewBox="0 0 6.365694 6.35"
   version="1.1"
   id="svg5728"
   inkscape:version="1.2.1 (9c6d41e4, 2022-07-14)"
   sodipodi:docname="return-to-the-city-of-archives.svg"
   xmlns:inkscape="http://www.inkscape.org/namespaces/inkscape"
   xmlns:sodipodi="http://sodipodi.sourceforge.net/DTD/sodipodi-0.dtd"
   xmlns="http://www.w3.org/2000/svg"
   xmlns:svg="http://www.w3.org/2000/svg">
  <sodipodi:namedview
     id="namedview5730"
     pagecolor="#505050"
     bordercolor="#eeeeee"
     borderopacity="1"
     inkscape:showpageshadow="0"
     inkscape:pageopacity="0"
     inkscape:pagecheckerboard="0"
     inkscape:deskcolor="#505050"
     inkscape:document-units="mm"
     showgrid="false"
     inkscape:zoom="0.7046647"
     inkscape:cx="130.55855"
     inkscape:cy="47.540341"
     inkscape:window-width="1390"
     inkscape:window-height="941"
     inkscape:window-x="0"
     inkscape:window-y="25"
     inkscape:window-maximized="0"
     inkscape:current-layer="layer1" />
  <defs
     id="defs5725">
    <clipPath
       clipPathUnits="userSpaceOnUse"
       id="clipPath573">
      <path
         d="m 150.565,386.718 h 22.058 v 21.883 h -22.058 z"
         id="path571" />
    </clipPath>
  </defs>
  <g
     inkscape:label="Layer 1"
     inkscape:groupmode="layer"
     id="layer1"
     transform="translate(-70.410074,-136.12589)">
    <g
       id="g567"
       transform="matrix(0.2971653,0,0,-0.2971653,25.57256,257.47148)">
      <g
         id="g569"
         clip-path="url(#clipPath573)">
        <g
           id="g575"
           transform="matrix(0.1531793,0,0,-0.1519643,161.59476,397.57196)">
          <g
             id="g577"
             transform="translate(47.2939,-4.8871)">
            <path
               d="M 0,0 C 0.016,1.521 0.032,3.095 -0.588,4.67 -0.742,5.062 -0.847,5.484 -0.959,5.933 -1.06,6.34 -1.163,6.749 -1.302,7.148 -1.438,7.541 -1.535,7.938 -1.633,8.333 -1.724,8.702 -1.815,9.069 -1.931,9.429 -2,9.641 -2.099,9.83 -2.2,10.017 c -0.076,0.14 -0.143,0.263 -0.172,0.375 -0.104,0.404 -0.163,0.878 -0.22,1.337 l -0.049,0.381 c -0.047,0.351 -0.087,0.703 -0.127,1.057 -0.113,0.992 -0.23,2.018 -0.488,3.023 -0.324,1.266 -0.631,2.216 -1.236,3.333 -0.518,0.956 -1.154,1.835 -1.771,2.685 -0.306,0.424 -0.614,0.848 -0.907,1.281 -0.532,0.788 -1.082,1.144 -1.719,1.555 l -0.329,0.215 c -0.271,0.18 -0.531,0.382 -0.792,0.583 -0.439,0.339 -0.894,0.689 -1.42,0.972 -1.173,0.626 -2.407,1.08 -3.6,1.516 -0.384,0.141 -0.768,0.281 -1.151,0.428 -1.136,0.434 -2.38,0.794 -3.747,0.829 -0.148,-0.004 -0.295,0.005 -0.444,0.009 -0.145,0.005 -0.297,0.009 -0.455,0.009 -0.838,0 -1.816,-0.133 -2.418,-1.145 -0.595,-1.002 -0.317,-1.962 0.006,-3.074 0.079,-0.276 0.166,-0.574 0.249,-0.904 l 0.12,-0.475 0.487,-0.062 c 0.156,-0.02 0.291,-0.063 0.425,-0.103 0.261,-0.078 0.603,-0.182 0.999,-0.165 0.292,0.006 0.477,-0.052 0.75,-0.127 0.173,-0.047 0.351,-0.095 0.545,-0.131 0.906,-0.171 1.742,-0.544 2.628,-0.939 l 0.128,-0.056 c 2.923,-1.302 4.873,-2.723 5.963,-4.347 0.716,-1.066 1.257,-2.513 1.65,-3.653 0.108,-0.317 0.252,-0.611 0.399,-0.908 0.074,-0.146 0.147,-0.293 0.214,-0.446 0.155,-0.346 0.252,-0.723 0.357,-1.122 0.083,-0.315 0.165,-0.629 0.273,-0.934 0.367,-1.04 0.779,-2.258 1.044,-3.408 0.067,-0.291 0.1,-0.591 0.134,-0.891 C -6.841,6.42 -6.806,6.125 -6.749,5.838 -6.704,5.604 -6.717,5.331 -6.73,5.042 -6.745,4.729 -6.76,4.407 -6.712,4.061 -6.678,3.814 -6.626,3.59 -6.573,3.368 -6.506,3.08 -6.447,2.83 -6.442,2.555 -6.437,2.248 -6.438,1.94 -6.44,1.633 l -10e-4,-3.801 0.002,-0.789 c 0.005,-1.706 0.012,-3.316 -0.242,-4.882 -0.026,-0.163 -0.07,-0.292 -0.11,-0.417 -0.082,-0.256 -0.185,-0.574 -0.176,-1.028 0.007,-0.37 -0.039,-0.549 -0.13,-0.907 l -0.055,-0.222 c -0.237,-0.96 -0.454,-1.718 -0.807,-2.528 -0.303,-0.695 -0.634,-1.37 -0.979,-2.055 l -0.174,-0.361 c -0.101,-0.209 -0.198,-0.414 -0.323,-0.636 l -1.196,-2.132 c -0.46,-0.829 -0.911,-1.537 -1.46,-2.294 -0.22,-0.304 -0.491,-0.572 -0.777,-0.855 -0.239,-0.236 -0.478,-0.473 -0.698,-0.735 -0.148,-0.176 -0.291,-0.362 -0.437,-0.551 -0.401,-0.522 -0.78,-1.014 -1.252,-1.263 -0.865,-0.453 -1.423,-0.65 -2.386,-0.844 -0.054,-0.011 -0.252,-0.076 -0.435,-0.144 -0.088,-0.032 -0.172,-0.064 -0.213,-0.076 -0.06,-0.017 -0.188,-0.048 -0.301,-0.075 l -0.2,-0.049 c -0.305,-0.079 -0.592,-0.093 -1.029,-0.107 -0.442,-0.015 -1.031,-0.035 -1.276,-0.569 -0.158,-0.346 -0.08,-0.719 0.232,-1.107 0.463,-0.573 1.301,-0.563 1.794,-0.556 0.328,0.003 0.58,0.002 0.829,0 0.938,-0.008 1.91,-0.014 2.905,0.218 1.187,0.277 2.263,0.726 3.292,1.373 l 0.603,0.375 c 2.078,1.291 4.434,2.755 5.762,5.027 0.218,0.371 0.392,0.765 0.561,1.147 0.173,0.391 0.337,0.762 0.537,1.092 l 0.154,0.254 c 0.447,0.733 0.909,1.49 1.166,2.401 0.132,0.469 0.345,0.889 0.57,1.334 0.22,0.438 0.45,0.891 0.618,1.42 0.093,0.292 0.189,0.586 0.288,0.881 0.229,0.695 0.468,1.414 0.653,2.127 0.239,0.925 0.392,1.86 0.538,2.764 0.081,0.493 0.16,0.984 0.254,1.47 0.085,0.442 0.12,0.885 0.155,1.314 0.028,0.348 0.055,0.697 0.112,1.039 0.101,0.615 0.089,1.227 0.076,1.818 -0.005,0.188 -0.009,0.376 -0.009,0.562 z m -23.922,28.376 c 0.024,0.297 0.05,0.634 -0.023,0.937 l -0.001,0.003 c -0.067,0.271 -0.209,0.44 -0.294,0.54 -0.01,0.016 -0.003,0.13 0.005,0.251 0.013,0.217 0.03,0.487 -0.049,0.787 -0.046,0.174 -0.07,0.344 -0.094,0.514 -0.025,0.173 -0.051,0.345 -0.09,0.522 -0.066,0.305 -0.183,0.596 -0.297,0.878 -0.09,0.224 -0.185,0.451 -0.237,0.677 -0.162,0.705 -0.444,1.267 -0.718,1.81 l -0.163,0.326 c -0.548,1.122 -1.197,2.208 -1.876,3.139 l -0.124,0.171 c -0.694,0.957 -1.558,2.146 -2.745,2.669 l -0.75,0.33 -0.23,-0.786 c -0.408,-1.386 -0.136,-3.491 0.145,-4.568 0.041,-0.156 0.036,-0.325 0.031,-0.539 -0.003,-0.108 -0.005,-0.218 -0.003,-0.332 0.008,-0.42 0.096,-0.783 0.174,-1.103 0.041,-0.17 0.083,-0.342 0.113,-0.527 0.034,-0.225 0.084,-0.455 0.134,-0.685 0.05,-0.228 0.101,-0.457 0.131,-0.685 0.011,-0.076 -0.003,-0.198 -0.017,-0.326 -0.023,-0.205 -0.051,-0.459 -0.006,-0.73 l 0.046,-0.272 c 0.134,-0.806 0.27,-1.616 0.441,-2.411 0.165,-0.768 0.314,-1.513 0.305,-2.186 -0.007,-0.584 -0.004,-1.168 -0.002,-1.752 l 0.003,-1.23 c 0.001,-0.236 0.002,-0.472 -0.001,-0.707 -0.003,-0.243 -0.05,-0.434 -0.111,-0.674 -0.04,-0.164 -0.082,-0.334 -0.116,-0.529 -0.061,-0.355 -0.127,-0.648 -0.216,-0.992 -0.081,-0.303 -0.067,-0.576 -0.055,-0.793 0.006,-0.127 0.011,-0.236 -0.003,-0.321 -0.077,-0.453 -0.244,-0.913 -0.421,-1.4 -0.124,-0.343 -0.247,-0.685 -0.344,-1.029 -0.069,-0.248 -0.133,-0.501 -0.198,-0.76 -0.238,-0.943 -0.485,-1.918 -1.028,-2.667 -0.606,-0.832 -1.625,-1.435 -2.429,-1.435 h -0.01 c -1.136,0.008 -1.861,0.338 -2.771,1.262 -0.191,0.193 -0.392,0.382 -0.595,0.57 -0.242,0.226 -0.486,0.451 -0.711,0.696 -0.192,0.208 -0.361,0.431 -0.531,0.654 -0.243,0.318 -0.494,0.646 -0.81,0.954 -0.185,0.181 -0.634,0.618 -0.8,0.997 l -0.036,1.79 c -0.003,0.166 0.048,0.329 0.112,0.535 0.118,0.375 0.279,0.89 0.062,1.529 -0.385,1.122 -1.32,1.339 -2.004,1.498 -0.173,0.041 -0.306,0.079 -0.438,0.116 -0.566,0.162 -1.272,0.362 -2.05,0.091 -0.621,-0.219 -1.487,-0.977 -1.817,-1.484 -0.829,-1.27 -0.71,-3.365 -0.565,-4.501 0.133,-1.039 0.804,-1.813 1.396,-2.498 0.206,-0.238 0.413,-0.474 0.589,-0.721 0.854,-1.18 1.951,-2.25 2.72,-2.941 0.295,-0.265 0.576,-0.563 0.86,-0.864 0.663,-0.702 1.349,-1.428 2.27,-1.877 1.031,-0.505 1.887,-1.127 2.692,-1.957 0.426,-0.442 0.955,-0.704 1.423,-0.936 l 0.262,-0.131 c 0.429,-0.22 0.856,-0.272 1.233,-0.318 0.233,-0.028 0.453,-0.055 0.614,-0.119 l 0.578,-0.23 0.225,0.39 c 0.134,0.005 0.256,0.017 0.391,0.057 0.356,0.105 0.786,0.305 1.125,0.524 0.666,0.432 1.206,0.827 1.623,1.668 0.088,0.177 0.17,0.352 0.251,0.524 0.16,0.339 0.314,0.669 0.51,0.992 l 0.061,0.101 c 0.335,0.555 0.653,1.077 0.935,1.702 0.505,1.117 1.05,2.307 1.659,3.513 0.352,0.697 0.576,1.402 0.793,2.084 l 0.04,0.125 c 0.133,0.42 0.198,0.816 0.262,1.199 0.065,0.397 0.128,0.772 0.261,1.143 0.162,0.444 0.205,0.871 0.242,1.248 0.031,0.31 0.06,0.603 0.152,0.866 0.274,0.793 0.449,1.596 0.619,2.372 l 0.127,0.577 c 0.242,1.07 0.206,2.195 0.171,3.283 -0.013,0.379 -0.025,0.753 -0.024,1.117 0.001,0.083 0.008,0.181 0.017,0.285 m -14.483,14.826 -0.006,0.623 c -0.005,0.399 -0.011,0.798 0.003,1.194 0.009,0.279 0.105,0.538 0.217,0.837 0.087,0.234 0.173,0.471 0.234,0.73 0.03,0.126 0.051,0.243 0.069,0.354 0.023,0.139 0.039,0.239 0.076,0.328 0.03,0.072 0.107,0.183 0.182,0.292 0.127,0.183 0.272,0.392 0.368,0.648 0.192,0.502 0.448,0.984 0.719,1.495 0.37,0.698 0.753,1.421 0.977,2.225 0.056,0.209 0.139,0.402 0.218,0.593 0.193,0.462 0.41,0.986 0.367,1.644 -0.048,0.69 -0.352,1.739 -0.677,2.341 -0.721,1.33 -2.416,2.435 -3.65,2.978 l -0.717,0.317 -0.254,-0.743 c -0.307,-0.902 -0.049,-1.677 0.179,-2.361 0.132,-0.396 0.257,-0.771 0.254,-1.126 l -0.001,-0.112 c -0.008,-1.085 -0.016,-2.022 -0.347,-2.94 -0.242,-0.672 -0.68,-1.273 -1.143,-1.909 -0.265,-0.362 -0.53,-0.727 -0.767,-1.111 -0.182,-0.294 -0.38,-0.576 -0.578,-0.858 -0.196,-0.28 -0.391,-0.559 -0.573,-0.847 -0.292,-0.464 -0.504,-0.954 -0.708,-1.428 -0.093,-0.216 -0.185,-0.43 -0.285,-0.64 -0.578,-1.212 -0.523,-3.442 -0.3,-4.638 0.137,-0.729 0.543,-1.359 0.902,-1.916 0.08,-0.123 0.158,-0.244 0.231,-0.364 0.122,-0.2 0.23,-0.406 0.34,-0.612 0.235,-0.445 0.478,-0.905 0.847,-1.331 l 0.213,-0.244 c 0.706,-0.806 1.435,-1.638 1.639,-2.539 0.214,-0.947 -0.007,-1.909 -0.718,-3.121 -0.136,-0.233 -0.477,-0.419 -0.838,-0.615 -0.619,-0.337 -1.39,-0.758 -1.594,-1.711 -0.216,-1.012 0.573,-1.912 0.952,-2.346 0.811,-0.926 1.554,-1.022 3.181,-1.034 l 0.127,-10e-4 0.12,0.043 c 0.487,0.173 0.876,0.496 1.22,0.781 l 0.228,0.187 c 0.116,0.091 0.245,0.172 0.373,0.254 0.306,0.195 0.653,0.416 0.934,0.774 0.984,1.248 1.383,3.472 1.411,4.662 0.029,1.168 0.061,2.492 -0.61,3.815 -0.188,0.372 -0.402,0.73 -0.616,1.087 -0.368,0.615 -0.715,1.195 -0.916,1.837 -0.119,0.376 -0.286,0.731 -0.447,1.074 l -0.142,0.303 c -0.047,0.104 -0.101,0.212 -0.155,0.321 -0.072,0.144 -0.148,0.291 -0.201,0.434 -0.037,0.098 -0.043,0.2 -0.05,0.371 -0.009,0.183 -0.02,0.366 -0.065,0.564 -0.045,0.199 -0.119,0.344 -0.172,0.45 -0.046,0.092 -0.057,0.115 -0.063,0.159 -0.021,0.151 -0.008,0.319 0,0.482 0.007,0.12 0.012,0.239 0.012,0.35 m -6.839,15.184 c -0.347,1.279 -0.904,2.846 -2.138,3.625 l -0.811,0.512 -0.265,-0.922 c -0.121,-0.42 -0.09,-0.825 -0.063,-1.182 0.016,-0.207 0.031,-0.402 0.012,-0.563 -0.012,-0.094 -0.054,-0.207 -0.104,-0.336 -0.063,-0.166 -0.141,-0.371 -0.179,-0.614 -0.041,-0.256 -0.029,-0.484 -0.02,-0.686 0.009,-0.172 0.016,-0.322 -0.013,-0.435 -0.066,-0.26 -0.123,-0.521 -0.18,-0.781 -0.186,-0.853 -0.363,-1.658 -0.855,-2.35 -0.808,-1.133 -1.473,-2.394 -2.033,-3.852 -0.602,-1.567 -0.808,-3.546 -0.583,-5.574 0.087,-0.773 0.356,-1.497 0.848,-2.278 0.072,-0.113 0.114,-0.24 0.162,-0.364 0.054,-0.144 0.109,-0.285 0.177,-0.422 0.158,-0.319 0.358,-0.589 0.535,-0.826 0.155,-0.209 0.301,-0.406 0.402,-0.612 0.022,-0.045 0.037,-0.109 0.056,-0.19 0.044,-0.188 0.11,-0.473 0.338,-0.764 0.119,-0.153 0.264,-0.248 0.37,-0.316 0.017,-0.012 0.026,-0.018 0.031,-0.02 0.086,-0.127 0.184,-0.291 0.25,-0.426 0.065,-0.136 0.149,-0.286 0.236,-0.442 0.124,-0.219 0.279,-0.494 0.317,-0.65 0.061,-0.255 -0.167,-0.804 -0.303,-1.131 l -0.063,-0.152 c -0.173,-0.425 -0.571,-0.816 -1.091,-1.071 -0.173,-0.084 -0.34,-0.142 -0.502,-0.201 -0.323,-0.116 -0.688,-0.247 -1.066,-0.522 -0.616,-0.447 -1.113,-0.809 -1.543,-1.528 -0.991,-1.648 -0.47,-3.902 0.434,-5.297 0.084,-0.129 0.161,-0.256 0.234,-0.378 0.428,-0.709 0.913,-1.513 2.171,-1.598 0.582,-0.033 1.041,0.105 1.479,0.244 0.362,0.115 0.736,0.234 1.273,0.289 l -0.086,1.436 c 0.128,0.001 0.235,-0.074 0.263,-0.117 -0.244,0.377 -0.112,2.277 0.056,3.051 0.173,0.798 0.464,1.524 0.798,1.993 0.094,0.13 0.207,0.265 0.323,0.403 0.292,0.35 0.625,0.747 0.802,1.218 0.195,0.519 0.299,1.043 0.324,1.646 0.002,0.043 0.051,0.164 0.083,0.243 0.078,0.195 0.175,0.436 0.174,0.72 0,0.405 -0.169,0.644 -0.259,0.772 -0.021,0.048 -0.009,0.1 0,0.153 0.029,0.178 0.068,0.421 0.004,0.689 -0.053,0.216 -0.146,0.383 -0.213,0.504 -0.035,0.065 -0.068,0.124 -0.078,0.159 -0.021,0.074 -0.028,0.15 -0.038,0.226 -0.022,0.157 -0.045,0.313 -0.09,0.458 -0.065,0.213 -0.172,0.446 -0.28,0.676 -0.049,0.104 -0.099,0.209 -0.141,0.309 l -0.095,0.231 c -0.166,0.4 -0.324,0.785 -0.506,1.177 -0.085,0.183 -0.102,0.253 -0.153,0.462 -0.038,0.155 -0.098,0.308 -0.159,0.456 -0.031,0.075 -0.063,0.145 -0.08,0.214 -0.143,0.619 -0.094,1.437 -0.048,2.229 0.023,0.395 0.046,0.78 0.046,1.135 0,1.124 0.045,2.084 0.268,3.113 0.031,0.144 0.132,0.491 0.454,1.188 0.192,0.418 0.23,0.666 0.274,0.954 l 0.031,0.201 c 0.031,0.178 0.114,0.36 0.209,0.57 0.121,0.265 0.258,0.564 0.319,0.928 0.045,0.265 0.037,0.507 0.03,0.718 -0.008,0.246 -0.011,0.401 0.045,0.495 0.314,0.3 0.422,0.528 0.474,0.944 0.109,0.891 -0.089,1.617 -0.264,2.259 m -8.932,-17.003 c 0.011,0.224 0.024,0.478 -0.01,0.737 -0.041,0.308 -0.135,0.494 -0.204,0.631 -0.021,0.042 -0.045,0.085 -0.063,0.145 l -0.032,0.117 c -0.17,0.598 -0.304,1.071 -0.667,1.672 l -0.08,0.133 c -0.456,0.759 -0.927,1.543 -1.698,2.215 -0.365,0.319 -0.754,0.601 -1.144,0.884 -0.499,0.36 -0.97,0.702 -1.383,1.119 -0.124,0.125 -0.253,0.242 -0.381,0.358 -0.237,0.213 -0.442,0.398 -0.571,0.614 -0.069,0.118 -0.152,0.25 -0.239,0.39 -0.249,0.401 -0.591,0.949 -0.678,1.265 -0.015,0.063 0.006,0.258 0.017,0.374 0.021,0.192 0.037,0.38 0.026,0.547 -0.02,0.328 -0.114,0.588 -0.19,0.796 -0.039,0.106 -0.081,0.214 -0.103,0.337 -0.073,0.418 -0.057,1.168 0.028,1.598 0.095,0.105 0.207,0.255 0.256,0.464 0.054,0.235 0.018,0.437 -0.006,0.572 -0.002,0.047 0.109,0.229 0.169,0.326 0.059,0.096 0.113,0.186 0.152,0.26 l 0.121,0.217 c 0.338,0.598 0.801,1.418 0.532,2.175 l -0.195,0.547 -0.575,-0.074 c -0.69,-0.088 -1.068,-0.724 -1.318,-1.144 -0.041,-0.069 -0.079,-0.135 -0.115,-0.187 -0.182,-0.272 -0.412,-0.533 -0.656,-0.81 -0.255,-0.29 -0.51,-0.581 -0.73,-0.896 -0.858,-1.227 -1.857,-2.901 -1.976,-4.98 -0.078,-1.361 -0.02,-2.79 0.934,-4.013 0.499,-0.64 1.092,-1.356 1.818,-1.737 0.333,-0.174 0.673,-0.285 1.001,-0.392 0.276,-0.091 0.536,-0.176 0.753,-0.288 1.222,-0.626 1.555,-1.059 1.549,-2.016 -10e-4,-0.179 0.005,-0.364 0.013,-0.553 0.015,-0.396 0.031,-0.807 -0.049,-1.112 l -0.068,-0.239 c -0.065,-0.225 -0.134,-0.456 -0.158,-0.817 -0.006,-0.096 -0.028,-0.15 -0.08,-0.274 -0.054,-0.13 -0.106,-0.261 -0.143,-0.419 -0.062,-0.268 -0.043,-0.506 -0.027,-0.698 0.008,-0.097 0.016,-0.197 0.007,-0.251 -0.021,-0.13 -0.113,-0.288 -0.22,-0.471 -0.048,-0.083 -0.097,-0.166 -0.142,-0.251 -0.22,-0.412 -0.513,-0.766 -0.824,-1.141 -0.26,-0.313 -0.528,-0.637 -0.772,-1.016 -0.716,-1.111 -1.319,-2.24 -2.016,-3.776 -0.745,-1.638 0.281,-2.94 1.03,-3.891 0.103,-0.131 0.205,-0.261 0.303,-0.391 0.584,-0.771 1.462,-1.115 2.071,-1.307 0.167,-0.053 1.457,-0.44 2.335,-0.033 0.211,-0.069 0.546,-0.18 1.074,-0.356 l 2.953,-0.981 -2.223,2.179 c -0.409,0.401 -0.902,0.938 -1.075,1.528 -0.019,0.067 -0.018,0.169 -0.017,0.288 0.002,0.162 0.004,0.363 -0.044,0.584 -0.04,0.177 -0.086,0.322 -0.131,0.458 -0.058,0.181 -0.094,0.289 -0.097,0.455 l -0.004,0.15 c -0.013,0.551 -0.023,0.948 0.179,1.336 0.378,0.724 0.761,1.35 1.281,2.092 0.142,0.202 0.272,0.401 0.4,0.598 0.177,0.274 0.351,0.543 0.56,0.812 0.348,0.447 0.697,1.06 0.958,1.682 0.175,0.419 0.196,0.806 0.215,1.148 0.01,0.182 0.017,0.37 0.063,0.564 0.003,0.012 0.033,0.061 0.053,0.094 0.072,0.118 0.181,0.298 0.237,0.554 0.065,0.308 0.042,0.632 0.021,0.917 -0.007,0.105 -0.015,0.207 -0.015,0.297 0,0.092 0.005,0.188 0.01,0.285 m -13.041,0.335 c -0.222,-0.239 -0.329,-0.488 -0.407,-0.669 -0.031,-0.072 -0.059,-0.147 -0.106,-0.219 -0.055,-0.082 -0.134,-0.157 -0.21,-0.235 -0.12,-0.122 -0.237,-0.246 -0.332,-0.376 -0.962,-1.314 -1.315,-2.825 -1.533,-4.132 -0.086,-0.515 -0.292,-1.207 -0.565,-1.899 -0.063,-0.159 -0.155,-0.336 -0.244,-0.513 -0.072,-0.139 -0.141,-0.278 -0.201,-0.407 -0.135,-0.294 -0.173,-0.443 -0.23,-0.673 l -0.066,-0.253 c -0.16,-0.584 -0.299,-1.087 -0.296,-1.9 V 29.219 26.5 c 0,-0.167 -0.015,-0.354 -0.03,-0.55 -0.036,-0.471 -0.077,-1.006 0.037,-1.473 0.051,-0.215 0.132,-0.373 0.191,-0.488 0.053,-0.103 0.069,-0.135 0.077,-0.195 0.015,-0.125 0.002,-0.251 -0.007,-0.377 -0.017,-0.25 -0.036,-0.534 0.036,-0.847 0.044,-0.192 0.115,-0.338 0.166,-0.444 0.049,-0.099 0.061,-0.127 0.067,-0.175 0.006,-0.053 -0.006,-0.163 -0.017,-0.261 -0.023,-0.213 -0.052,-0.479 0.015,-0.759 0.047,-0.194 0.104,-0.342 0.161,-0.486 0.053,-0.133 0.087,-0.222 0.107,-0.357 0.015,-0.097 0.013,-0.191 0.013,-0.284 0,-0.199 0.005,-0.397 0.046,-0.604 0.061,-0.304 0.187,-0.575 0.288,-0.792 0.052,-0.112 0.104,-0.218 0.133,-0.319 0.021,-0.068 0.022,-0.161 0.024,-0.278 0.002,-0.172 0.008,-0.345 0.044,-0.526 0.079,-0.389 0.202,-0.782 0.327,-1.174 0.087,-0.278 0.176,-0.554 0.242,-0.828 0.119,-0.494 0.289,-0.991 0.453,-1.472 0.077,-0.229 0.155,-0.456 0.225,-0.677 0.152,-0.481 0.285,-0.962 0.418,-1.442 0.225,-0.815 0.459,-1.658 0.781,-2.489 0.405,-1.049 1.084,-2.805 2.681,-3.142 1.046,-0.225 1.988,0.31 2.744,0.735 0.245,0.138 0.481,0.272 0.708,0.369 1.29,0.549 2.37,1.384 3.414,2.191 0.661,0.512 1.285,0.995 1.956,1.408 1.145,0.705 2.102,1.315 3.048,2.003 l 0.492,0.352 c 0.677,0.482 1.445,1.027 2.048,1.627 0.963,0.958 1.363,2.546 1.07,4.249 -0.297,1.729 -1.306,2.945 -2.769,3.338 -0.761,0.203 -3.174,0.543 -4.215,-0.163 -0.536,-0.362 -1.172,-1.1 -1.3,-1.863 -0.098,-0.584 0.073,-1.004 0.198,-1.312 0.062,-0.153 0.111,-0.274 0.121,-0.393 l 0.024,-0.294 c -0.015,-0.1 -0.026,-0.195 -0.035,-0.277 -0.03,-0.256 -0.062,-0.546 -0.137,-0.779 -0.058,-0.181 -0.113,-0.369 -0.168,-0.561 -0.157,-0.541 -0.319,-1.099 -0.578,-1.511 -0.256,-0.409 -0.54,-0.627 -0.9,-0.906 -0.213,-0.165 -0.435,-0.336 -0.663,-0.551 -0.192,-0.181 -0.36,-0.372 -0.521,-0.558 -0.399,-0.458 -0.591,-0.662 -0.984,-0.677 -0.361,-0.012 -0.757,-0.022 -1.119,-0.004 -0.115,0.007 -0.226,0.048 -0.38,0.105 -0.187,0.069 -0.376,0.136 -0.593,0.171 -0.162,0.026 -0.322,0.042 -0.482,0.057 -0.435,0.041 -0.671,0.071 -0.851,0.248 -0.248,0.244 -0.499,1.061 -0.634,1.5 l -0.096,0.307 c -0.063,0.194 -0.141,0.397 -0.219,0.6 -0.091,0.235 -0.184,0.472 -0.245,0.696 -0.028,0.103 -0.025,0.243 -0.02,0.406 0.005,0.21 0.011,0.448 -0.044,0.714 l -0.083,0.371 c -0.057,0.248 -0.109,0.471 -0.139,0.766 -0.038,0.375 -0.158,0.587 -0.238,0.727 -0.038,0.068 -0.051,0.09 -0.064,0.141 -0.007,0.043 0.013,0.182 0.025,0.273 0.031,0.214 0.068,0.481 0.009,0.768 -0.04,0.193 -0.105,0.362 -0.173,0.53 -0.052,0.128 -0.093,0.23 -0.103,0.321 -0.012,0.111 -0.018,0.202 -0.024,0.284 -0.02,0.277 -0.038,0.54 -0.207,0.951 l -0.043,0.104 c -0.144,0.35 -0.231,0.561 -0.246,0.858 -0.019,0.363 -0.08,0.68 -0.139,0.987 -0.061,0.318 -0.12,0.618 -0.116,0.932 0.004,0.346 -0.009,0.702 -0.023,1.059 -0.022,0.582 -0.043,1.131 0.013,1.649 0.012,0.109 0.049,0.207 0.101,0.343 0.068,0.176 0.134,0.356 0.174,0.576 0.047,0.26 0.034,0.498 0.024,0.688 -0.008,0.155 -0.016,0.288 0.01,0.385 0.15,0.586 0.274,1.154 0.4,1.738 l 0.13,0.598 c 0.035,0.155 0.066,0.328 0.098,0.503 0.043,0.241 0.086,0.49 0.147,0.699 0.018,0.062 0.1,0.168 0.179,0.272 0.113,0.148 0.242,0.317 0.336,0.534 0.118,0.269 0.169,0.524 0.21,0.728 0.047,0.235 0.077,0.372 0.157,0.485 0.176,0.245 0.373,0.5 0.567,0.75 l 0.214,0.275 c 0.092,0.12 0.197,0.274 0.304,0.435 0.141,0.209 0.3,0.446 0.415,0.56 0.106,0.107 0.206,0.178 0.3,0.248 0.179,0.135 0.402,0.301 0.626,0.594 0.166,0.218 0.388,0.467 0.631,0.741 1.085,1.226 2.571,2.905 1.998,4.583 l -0.432,1.267 -0.82,-1.06 c -0.283,-0.366 -0.635,-0.821 -0.966,-0.924 -0.358,-0.11 -0.734,-0.146 -1.132,-0.184 -0.27,-0.027 -0.542,-0.053 -0.819,-0.1 -1.209,-0.208 -2.013,-0.543 -2.459,-1.025 m -4.561,-18.937 c -0.078,0.282 -0.158,0.563 -0.283,0.85 -0.332,0.765 -0.796,1.31 -1.419,1.666 -0.303,0.173 -0.617,0.233 -0.916,0.233 -0.462,0 -0.891,-0.143 -1.195,-0.246 -0.29,-0.097 -0.542,-0.272 -0.763,-0.426 -0.146,-0.1 -0.31,-0.213 -0.407,-0.246 -0.296,-0.098 -0.654,-0.16 -1.032,-0.225 -0.255,-0.044 -0.509,-0.088 -0.748,-0.143 -0.96,-0.222 -1.902,-0.612 -2.71,-0.962 L -81.443,23.2 c -0.521,-0.221 -1.17,-0.495 -1.596,-0.912 -0.649,-0.634 -1.006,-1.376 -1.353,-2.094 -0.245,-0.509 -0.478,-0.991 -0.799,-1.398 -0.205,-0.259 -0.41,-0.514 -0.613,-0.767 -0.217,-0.269 -0.432,-0.537 -0.64,-0.801 -0.109,-0.139 -0.177,-0.282 -0.232,-0.396 -0.023,-0.048 -0.057,-0.12 -0.074,-0.142 -0.075,-0.095 -0.212,-0.179 -0.37,-0.276 -0.193,-0.118 -0.411,-0.252 -0.611,-0.459 -0.135,-0.142 -0.236,-0.267 -0.329,-0.384 -0.133,-0.168 -0.207,-0.259 -0.366,-0.366 L -88.6,15.09 c -0.317,-0.21 -0.615,-0.408 -0.935,-0.695 -0.523,-0.466 -0.926,-0.973 -1.197,-1.502 -0.191,-0.372 -0.35,-0.765 -0.508,-1.16 -0.129,-0.321 -0.258,-0.643 -0.41,-0.953 -0.253,-0.512 -0.373,-1.018 -0.49,-1.509 -0.074,-0.312 -0.148,-0.627 -0.264,-0.939 -0.654,-1.758 -0.619,-3.583 -0.585,-5.349 0.007,-0.386 0.014,-0.771 0.014,-1.155 0,-0.273 -0.004,-0.547 -0.008,-0.821 -0.009,-0.52 -0.017,-1.042 0.003,-1.559 0.016,-0.424 0.082,-0.806 0.146,-1.176 0.068,-0.395 0.133,-0.768 0.129,-1.156 -0.014,-1.16 -0.011,-2.32 -0.008,-3.479 l 10e-4,-1.052 c 0,-0.135 -0.008,-0.278 -0.016,-0.424 -0.016,-0.31 -0.035,-0.661 0.009,-0.998 0.032,-0.247 0.093,-0.473 0.155,-0.697 0.062,-0.223 0.115,-0.416 0.124,-0.619 l 0.007,-0.293 c 0.01,-0.441 0.018,-0.858 0.221,-1.397 0.045,-0.119 0.111,-0.241 0.179,-0.361 0.032,-0.055 0.067,-0.108 0.085,-0.16 0.068,-0.249 0.108,-0.501 0.149,-0.755 0.058,-0.349 0.117,-0.711 0.238,-1.099 0.062,-0.202 0.143,-0.403 0.224,-0.604 0.087,-0.217 0.178,-0.433 0.229,-0.657 0.268,-1.175 0.647,-2.333 1.094,-3.351 0.18,-0.407 0.319,-0.801 0.461,-1.2 0.097,-0.271 0.194,-0.545 0.304,-0.826 0.186,-0.48 0.485,-0.975 0.749,-1.412 l 0.162,-0.27 c 0.576,-0.97 1.408,-1.914 2.343,-2.656 0.312,-0.248 0.922,-0.716 1.503,-1.065 0.4,-0.241 0.825,-0.359 1.2,-0.464 0.251,-0.07 0.488,-0.136 0.69,-0.23 0.635,-0.295 1.276,-0.431 1.895,-0.563 0.466,-0.099 0.905,-0.192 1.338,-0.349 1.236,-0.446 2.276,-0.536 3.553,-0.536 0.108,0 0.26,-0.013 0.436,-0.027 0.971,-0.076 2.785,-0.222 2.947,1.143 l 0.07,0.584 -0.558,0.184 c -0.356,0.118 -0.703,0.103 -0.98,0.094 -0.185,-0.006 -0.359,-0.013 -0.477,0.02 -0.145,0.04 -0.315,0.108 -0.486,0.174 -0.247,0.095 -0.497,0.189 -0.702,0.241 -0.68,0.171 -1.244,0.452 -1.829,0.912 -0.505,0.397 -1.029,0.774 -1.553,1.151 -1.31,0.942 -2.547,1.832 -3.484,3.017 -0.363,0.459 -0.706,0.929 -1.049,1.399 -0.322,0.441 -0.644,0.882 -0.982,1.315 -0.554,0.709 -0.933,1.358 -1.268,2.171 -0.076,0.185 -0.151,0.347 -0.222,0.502 -0.142,0.308 -0.254,0.551 -0.332,0.89 -0.059,0.253 -0.141,0.497 -0.225,0.742 -0.065,0.191 -0.131,0.382 -0.18,0.581 l -0.1,0.399 c -0.238,0.954 -0.485,1.94 -0.544,2.887 -0.097,1.555 -0.061,3.171 -0.026,4.734 0.021,0.977 0.043,1.953 0.035,2.922 -0.003,0.32 0.058,0.633 0.123,0.964 0.064,0.324 0.13,0.659 0.148,1.039 0.015,0.335 0.006,0.672 -0.004,1.008 -0.007,0.287 -0.016,0.574 -0.005,0.86 0.026,0.683 0.246,1.327 0.478,2.008 0.077,0.226 0.154,0.453 0.227,0.686 0.178,0.574 0.325,1.16 0.471,1.748 0.324,1.302 0.631,2.532 1.29,3.608 0.175,0.285 0.341,0.571 0.505,0.854 0.407,0.703 0.792,1.366 1.287,1.974 0.254,0.311 0.456,0.641 0.653,0.961 0.233,0.379 0.453,0.737 0.725,1.005 0.874,0.856 1.924,1.475 3.036,2.131 0.513,0.302 1.024,0.605 1.517,0.929 0.838,0.552 1.734,1.133 2.607,1.636 0.37,0.213 0.875,0.193 1.462,0.173 0.18,-0.007 0.361,-0.013 0.54,-0.013 h 0.484 l 0.183,0.448 c 0.369,0.907 0.388,1.696 0.059,2.412 -0.105,0.23 -0.17,0.466 -0.239,0.716 m -4.493,-61.931 c 0.026,-0.736 0.299,-1.48 0.541,-2.138 0.071,-0.192 0.141,-0.382 0.202,-0.566 l 0.091,-0.269 c 0.079,-0.226 0.165,-0.462 0.208,-0.686 0.037,-0.192 0.091,-0.382 0.145,-0.565 0.038,-0.13 0.076,-0.254 0.097,-0.372 0.11,-0.595 -0.024,-0.89 -0.292,-1.478 l -0.069,-0.153 c -0.248,-0.549 -0.383,-1.341 -0.021,-1.914 0.233,-0.368 0.622,-0.576 1.096,-0.584 1.085,-0.042 1.378,1.011 1.535,1.564 0.01,0.036 0.02,0.071 0.03,0.106 0.095,-0.071 0.202,-0.142 0.321,-0.202 l 0.197,-0.101 c 0.528,-0.271 1.099,-0.598 1.809,-0.567 0.079,-0.004 0.177,-0.008 0.273,-0.016 0.265,-0.022 0.565,-0.047 0.865,0.028 0.24,0.059 0.414,0.173 0.542,0.257 0.041,0.027 0.097,0.063 0.117,0.071 l 1.264,0.27 -0.905,0.93 c -0.33,0.344 -0.673,0.488 -0.977,0.615 l -0.226,0.102 c -0.188,0.089 -0.398,0.183 -0.551,0.224 -0.13,0.036 -0.239,0.052 -0.326,0.06 -0.029,0.044 -0.049,0.083 -0.071,0.122 -0.083,0.148 -0.173,0.301 -0.257,0.408 -0.516,0.66 -0.851,1.461 -1.206,2.307 -0.22,0.524 -0.302,1.031 -0.388,1.569 l -0.034,0.208 c -0.027,0.167 -0.058,0.325 -0.089,0.479 -0.083,0.418 -0.149,0.748 -0.122,1.197 0.027,0.457 0.199,1.01 0.35,1.498 l 0.054,0.173 c 0.048,0.156 0.089,0.302 0.127,0.442 0.14,0.505 0.225,0.81 0.515,1.117 0.188,0.199 0.305,0.296 0.57,0.473 0.255,0.173 0.435,0.385 0.593,0.573 0.093,0.111 0.181,0.215 0.252,0.269 0.229,0.174 0.57,0.321 0.9,0.463 0.189,0.082 0.374,0.162 0.547,0.247 0.386,0.193 0.8,0.31 1.237,0.434 0.338,0.096 0.677,0.193 1.016,0.322 0.727,0.277 1.417,0.569 2.116,0.865 l 0.323,0.138 c 0.419,0.176 0.751,0.425 1.073,0.665 0.167,0.124 0.335,0.251 0.516,0.361 l 0.361,0.216 c 0.432,0.254 0.839,0.493 1.3,0.915 0.697,0.635 2.181,2.206 2.144,4.02 0.1,0.087 0.163,0.177 0.195,0.23 0.374,0.618 0.003,1.508 -0.537,2.031 -0.848,0.82 -1.642,0.823 -2.411,0.826 l -0.237,0.002 h -0.053 c -0.967,0 -1.686,-0.334 -2.26,-1.049 -0.232,-0.287 -0.448,-0.598 -0.666,-0.911 -0.4,-0.575 -0.778,-1.118 -1.247,-1.499 -0.401,-0.327 -0.615,-0.583 -0.862,-0.879 l -0.194,-0.231 c -0.125,-0.147 -0.297,-0.358 -0.398,-0.444 -0.091,-0.058 -0.258,-0.117 -0.451,-0.185 -0.258,-0.091 -0.551,-0.194 -0.841,-0.384 -0.148,-0.097 -0.301,-0.156 -0.496,-0.229 l -0.22,-0.087 c -1.474,-0.6 -2.972,-1.32 -3.948,-2.513 -0.522,-0.637 -0.942,-1.466 -1.319,-2.266 -0.048,-0.102 -0.111,-0.169 -0.225,-0.288 -0.141,-0.145 -0.315,-0.326 -0.455,-0.61 -0.075,-0.149 -0.107,-0.303 -0.134,-0.427 -0.009,-0.039 -0.015,-0.079 -0.027,-0.114 -0.026,-0.051 -0.078,-0.115 -0.126,-0.181 -0.075,-0.103 -0.147,-0.205 -0.199,-0.297 -0.794,-1.405 -0.735,-3.099 -0.682,-4.592 m 5.299,36.273 c 0.135,-0.047 0.266,-0.091 0.418,-0.151 0.192,-0.075 0.388,-0.153 0.599,-0.223 l 0.16,-0.054 c 0.534,-0.177 1.14,-0.377 1.417,-0.761 0.233,-0.326 0.251,-0.571 0.285,-1.059 0.01,-0.129 0.019,-0.267 0.034,-0.414 0.035,-0.352 0.108,-0.678 0.183,-1 0.121,-0.523 0.216,-0.936 0.114,-1.434 -0.041,-0.196 -0.075,-0.402 -0.11,-0.61 -0.096,-0.572 -0.195,-1.164 -0.445,-1.565 -0.342,-0.548 -0.914,-1.465 -1.432,-1.724 -0.21,-0.106 -0.419,-0.201 -0.627,-0.297 -0.337,-0.155 -0.672,-0.31 -1.007,-0.496 -0.159,-0.087 -0.322,-0.172 -0.488,-0.258 -0.489,-0.253 -0.994,-0.515 -1.455,-0.883 -0.757,-0.607 -1.218,-0.904 -1.946,-1.063 l -0.434,-0.099 c -0.515,-0.12 -0.922,-0.216 -1.501,-0.216 -0.109,0 -0.228,-0.007 -0.351,-0.016 -0.244,0.263 -0.547,0.557 -0.979,0.66 l -0.403,0.095 -0.285,-0.3 c -0.24,-0.253 -0.322,-0.61 -0.218,-0.956 0.13,-0.436 0.537,-0.804 1.013,-0.916 0.091,-0.021 0.182,-0.033 0.27,-0.04 l 0.014,-0.015 0.021,0.001 c 0.083,-0.069 0.174,-0.135 0.275,-0.192 0.913,-0.515 2.055,-0.728 3.407,-0.754 h 0.376 c 0.731,-0.004 1.489,-0.003 2.264,0.181 0.254,0.061 0.524,0.115 0.799,0.171 0.664,0.135 1.35,0.275 1.963,0.513 0.601,0.232 1.403,0.598 2.042,0.93 0.384,0.199 0.644,0.524 0.872,0.811 0.103,0.129 0.202,0.261 0.315,0.358 0.109,0.095 0.229,0.17 0.347,0.247 0.32,0.208 0.72,0.468 0.996,0.974 0.189,0.347 0.59,1.15 0.755,1.705 0.062,0.21 0.085,0.416 0.104,0.622 0.015,0.164 0.027,0.292 0.07,0.395 0.031,0.069 0.081,0.139 0.145,0.227 0.116,0.159 0.261,0.356 0.35,0.643 0.067,0.214 0.127,0.503 0.183,0.784 0.03,0.156 0.061,0.308 0.093,0.439 0.028,0.117 0.074,0.258 0.117,0.395 0.066,0.207 0.127,0.409 0.152,0.541 0.037,0.198 0.039,0.403 0.036,0.607 -0.002,0.12 -0.004,0.245 0.011,0.317 0.019,0.094 0.052,0.164 0.101,0.27 0.08,0.173 0.189,0.409 0.232,0.759 0.21,1.747 -0.383,3.263 -1.056,4.642 -0.698,1.432 -1.666,2.477 -2.801,3.022 -0.317,0.152 -0.613,0.349 -0.926,0.558 -0.296,0.197 -0.591,0.393 -0.907,0.559 -0.73,0.384 -1.565,0.468 -2.303,0.542 -0.325,0.033 -0.645,0.064 -0.942,0.123 -0.811,0.161 -1.784,0.355 -2.785,0.355 -0.84,0 -1.698,-0.136 -2.495,-0.542 C -76.67,3.36 -77.056,3.247 -77.464,3.126 -77.841,3.015 -78.231,2.9 -78.625,2.729 -79.323,2.423 -79.863,2.033 -80.434,1.621 l -0.177,-0.128 c -1.428,-1.025 -2.116,-2.49 -2.104,-4.48 0.001,-0.155 -0.004,-0.329 -0.008,-0.514 -0.031,-1.284 -0.082,-3.432 1.596,-3.838 0.262,-0.063 0.626,-0.091 1.008,-0.059 1.207,3.504 5.752,6.195 9.147,4.521 m -4.174,-4.557 h 3.039 c 0.425,0.193 0.738,0.506 0.866,0.939 0.235,0.792 -0.203,1.674 -1.116,2.245 -0.708,0.444 -1.483,0.392 -2.105,0.347 -0.019,-10e-4 -0.169,-0.014 -0.377,-0.038 -2.022,-0.736 -3.837,-2.687 -4.206,-4.583 -0.019,-0.099 -0.056,-0.178 -0.102,-0.245 0.042,-0.195 0.11,-0.4 0.217,-0.63 0.342,-0.736 0.733,-1.122 1.228,-1.611 0.889,-0.877 2.019,-1.147 3.183,-0.798 0.375,-0.263 0.933,-0.629 1.749,-0.387 0.505,0.149 2.015,1.508 1.823,2.469 -0.087,0.434 -0.384,0.734 -0.779,0.961 h -3.42 c -0.347,0 -0.681,0.306 -0.665,0.665 0.017,0.361 0.292,0.666 0.665,0.666 m 22.893,8.359 c 0.477,0.206 1.041,0.336 1.587,0.462 0.228,0.052 0.452,0.104 0.669,0.16 0.4,0.105 0.933,0.08 1.448,0.057 0.499,-0.022 0.959,-0.02 1.449,0 0.593,0.022 1.208,0.048 1.709,-0.063 0.883,-0.197 2.239,-0.905 2.733,-1.559 0.81,-1.073 1.249,-2.577 1.235,-4.234 -0.007,-0.778 -0.009,-1.559 0,-2.337 0.005,-0.587 -0.184,-1.054 -0.699,-1.721 -0.208,-0.271 -0.701,-0.605 -1.226,-0.831 -0.333,-0.144 -0.697,-0.157 -1.158,-0.173 -0.146,-0.005 -0.296,-0.011 -0.45,-0.02 -0.341,-0.021 -0.636,-0.084 -0.921,-0.146 -0.305,-0.065 -0.568,-0.122 -0.858,-0.122 h -0.061 c -0.799,0 -1.452,-0.113 -2.142,-0.233 l -0.309,-0.054 c -0.372,-0.063 -0.851,-0.034 -1.315,-0.007 -0.273,0.016 -0.542,0.031 -0.794,0.031 h -0.202 c -0.612,-0.002 -1.013,-0.004 -1.458,0.198 -0.382,0.174 -0.788,0.312 -1.194,0.448 -0.323,0.108 -0.645,0.216 -0.952,0.347 -0.257,0.11 -0.511,0.248 -0.762,0.384 -0.246,0.133 -0.491,0.264 -0.733,0.375 l -0.645,0.293 -0.304,-0.639 c -0.54,-1.135 0.645,-2.485 1.035,-2.929 0.316,-0.36 0.687,-0.783 1.042,-1.042 0.258,-0.188 0.543,-0.261 0.771,-0.32 0.095,-0.025 0.226,-0.059 0.269,-0.084 1.616,-0.962 3.663,-1.746 5.611,-2.148 0.306,-0.064 0.595,-0.025 0.829,0.005 0.122,0.017 0.29,0.039 0.351,0.024 0.079,-0.019 0.138,-0.047 0.226,-0.09 0.217,-0.104 0.51,-0.245 1.033,-0.21 0.837,0.058 1.619,0.405 2.307,0.712 0.161,0.072 0.32,0.143 0.479,0.209 0.277,0.117 0.551,0.216 0.822,0.315 0.483,0.176 0.982,0.358 1.474,0.621 l 0.161,0.084 c 0.478,0.251 1.179,0.619 1.606,1.099 l 0.067,0.035 c 0.121,0.064 0.241,0.129 0.356,0.199 l 0.175,0.102 c 0.542,0.315 1.283,0.747 1.553,1.593 0.115,0.361 0.21,0.732 0.304,1.107 0.1,0.398 0.2,0.801 0.335,1.195 0.093,0.167 0.173,0.308 0.221,0.495 0.05,0.196 0.049,0.37 0.048,0.51 -10e-4,0.059 -0.002,0.139 0.005,0.165 0.035,0.141 0.106,0.299 0.172,0.453 0.097,0.226 0.198,0.46 0.244,0.689 0.135,0.68 0.111,1.382 0.089,2.061 -0.008,0.24 -0.017,0.479 -0.017,0.71 0,0.21 0.009,0.423 0.017,0.638 0.032,0.891 0.07,1.901 -0.436,2.814 -0.224,0.405 -0.496,0.762 -0.759,1.108 -0.169,0.222 -0.337,0.442 -0.485,0.671 -0.234,0.359 -0.516,0.645 -0.788,0.921 -0.171,0.173 -0.343,0.344 -0.49,0.533 -0.034,0.196 -0.079,0.416 -0.237,0.63 -0.192,0.257 -0.452,0.381 -0.641,0.473 -0.051,0.024 -0.104,0.045 -0.145,0.074 -0.163,0.128 -0.32,0.259 -0.476,0.389 -0.376,0.314 -0.765,0.638 -1.25,0.928 -0.302,0.182 -0.617,0.446 -0.951,0.725 -0.541,0.452 -1.1,0.92 -1.761,1.178 -0.969,0.377 -2.09,0.474 -3.207,0.474 -0.624,0 -1.245,-0.03 -1.838,-0.059 -0.54,-0.026 -1.061,-0.052 -1.542,-0.052 l -0.451,0.003 c -1.026,0.008 -2.085,0.017 -3.157,-0.366 -1.366,-0.487 -2.404,-1.358 -3.406,-2.202 L -58.14,5.899 C -58.938,5.229 -59.514,4.745 -59.869,3.567 -60.102,2.79 -60.1,2.1 -60.098,1.432 -60.097,1.288 -60.111,1.113 -60.125,0.926 -60.168,0.338 -60.218,-0.329 -60,-0.839 l 0.156,-0.367 0.393,-0.062 c 0.197,-0.031 0.388,-0.075 0.577,-0.117 0.417,-0.094 0.878,-0.186 1.343,-0.187 1.252,0.01 2.067,0.472 3.01,1.007 l 0.242,0.136 c 0.372,0.208 0.68,0.446 0.98,0.676 0.344,0.265 0.669,0.515 1.046,0.678 m 3.855,-4.569 c 0.917,0.441 1.938,0.395 2.916,0.215 0.547,-0.1 1.081,-0.257 1.605,-0.442 0.034,0.036 0.079,0.06 0.109,0.1 0.167,0.22 0.496,0.831 -0.072,1.759 -0.211,0.345 -0.482,0.52 -0.681,0.647 -0.054,0.035 -0.109,0.069 -0.161,0.111 -0.035,0.028 -0.089,0.08 -0.148,0.136 -0.228,0.216 -0.39,0.364 -0.559,0.451 -0.424,0.221 -0.886,0.272 -1.336,0.272 -0.203,0 -0.403,-0.01 -0.596,-0.02 -0.172,-0.01 -0.341,-0.033 -0.501,-0.017 -0.973,0.01 -1.438,-0.242 -2.07,-0.587 l -0.149,-0.08 c -0.456,-0.247 -1.024,-0.554 -1.463,-1.224 -0.398,-0.604 -0.844,-1.281 -0.935,-2.049 -0.273,-2.278 1.228,-3.198 2.433,-3.936 0.826,-0.506 1.756,-0.693 2.616,-0.525 0.578,0.111 1.419,0.273 1.941,0.801 0.32,0.106 0.586,0.273 0.79,0.498 0.171,0.191 0.542,1.108 0.562,1.338 0.045,0.515 -0.064,0.837 -0.276,1.094 -0.02,0.006 -0.038,0.014 -0.059,0.021 -0.412,0.137 -0.831,0.254 -1.256,0.34 -0.396,0.08 -0.683,0.12 -1.125,0.116 -0.103,-0.001 -0.206,-0.006 -0.307,-0.015 -0.007,0 -0.048,-0.005 -0.074,-0.007 -0.03,-0.006 -0.098,-0.017 -0.107,-0.019 -0.082,-0.016 -0.164,-0.036 -0.245,-0.061 -0.049,-0.015 -0.098,-0.031 -0.146,-0.049 l -0.002,-0.001 c -0.011,-0.005 -0.011,-0.006 -0.033,-0.016 -0.324,-0.156 -0.719,-0.089 -0.91,0.238 -0.171,0.291 -0.087,0.754 0.239,0.911 m -9.409,-18.49 c 0.168,-0.222 0.361,-0.367 0.516,-0.484 0.077,-0.057 0.156,-0.111 0.224,-0.187 0.07,-0.078 0.121,-0.17 0.175,-0.259 0.093,-0.154 0.189,-0.305 0.304,-0.439 0.087,-0.103 0.179,-0.197 0.27,-0.289 0.123,-0.124 0.212,-0.214 0.274,-0.323 0.056,-0.101 0.099,-0.194 0.142,-0.286 0.091,-0.194 0.194,-0.414 0.373,-0.655 0.308,-0.412 0.679,-0.817 1.074,-1.172 0.662,-0.594 0.959,-1.5 1.228,-2.454 0.073,-0.255 0.096,-0.609 0.118,-0.951 0.013,-0.199 0.026,-0.393 0.047,-0.575 0.055,-0.472 0.181,-0.927 0.302,-1.368 l 0.111,-0.409 c 0.141,-0.55 0.379,-1.035 0.61,-1.503 0.144,-0.291 0.289,-0.583 0.402,-0.887 0.151,-0.407 0.255,-0.768 0.318,-1.105 0.04,-0.211 0.028,-0.45 0.017,-0.704 -0.012,-0.252 -0.025,-0.538 0.01,-0.836 0.114,-0.948 0.463,-1.764 0.823,-2.504 0.427,-0.874 0.702,-1.573 0.763,-2.35 0.018,-0.238 0.066,-0.461 0.117,-0.682 0.036,-0.159 0.075,-0.316 0.085,-0.485 l 0.005,-0.122 c 0.018,-0.354 0.034,-0.689 0.304,-1.165 l 0.169,-0.298 0.338,-0.057 c 0.706,-0.115 1.981,0.482 2.348,1.111 0.218,0.375 0.23,0.696 0.238,0.953 0.007,0.192 0.03,0.265 0.072,0.397 0.032,0.104 0.065,0.214 0.095,0.346 0.053,0.241 0.038,0.45 0.026,0.619 -0.005,0.066 -0.013,0.131 -0.006,0.197 0.008,0.073 0.039,0.168 0.075,0.278 0.051,0.152 0.114,0.341 0.14,0.561 0.074,0.652 0.144,1.287 0.182,1.946 0.018,0.302 0.096,0.613 0.18,0.942 0.109,0.429 0.232,0.916 0.225,1.446 l -0.005,0.245 c -0.009,0.347 -0.017,0.645 0.074,0.883 0.12,0.315 0.248,0.633 0.377,0.954 0.423,1.054 0.86,2.144 1.101,3.27 l 0.043,0.202 c 0.213,1.01 0.415,1.963 0.777,2.888 0.065,0.166 0.123,0.33 0.18,0.491 0.122,0.35 0.227,0.651 0.401,0.927 0.234,0.374 0.313,0.444 0.769,0.686 0.861,0.454 1.756,0.957 2.422,1.663 0.093,0.097 0.182,0.216 0.269,0.337 0.058,0.079 0.144,0.198 0.184,0.228 0.034,0.024 0.097,0.05 0.171,0.079 0.185,0.074 0.464,0.184 0.713,0.461 l 0.17,0.186 c 0.271,0.293 0.55,0.596 0.802,0.995 0.474,0.756 0.885,1.536 1.259,2.384 0.227,0.518 0.396,1.023 0.532,1.588 0.055,0.23 0.153,0.453 0.258,0.69 0.102,0.234 0.205,0.469 0.283,0.724 0.111,0.362 0.162,0.718 0.212,1.063 0.035,0.247 0.069,0.494 0.132,0.733 0.027,0.107 0.066,0.212 0.105,0.317 0.076,0.209 0.149,0.418 0.188,0.634 0.057,0.328 0.05,0.659 0.04,0.959 0.36,0.24 0.57,0.618 0.562,1.058 -0.012,0.718 -0.617,1.381 -1.376,1.508 -1.197,0.201 -1.773,-0.596 -2.195,-1.177 l -0.075,-0.104 c -0.624,-0.847 -1.036,-1.584 -1.337,-2.387 -0.207,-0.549 -0.247,-1.113 -0.283,-1.61 -0.026,-0.352 -0.049,-0.686 -0.126,-0.983 -0.196,-0.758 -0.405,-1.266 -0.894,-1.615 -0.151,-0.108 -0.313,-0.195 -0.476,-0.285 -0.233,-0.128 -0.497,-0.273 -0.748,-0.469 -0.339,-0.266 -0.588,-0.538 -0.829,-0.802 l -0.232,-0.251 c -0.191,-0.202 -0.365,-0.416 -0.537,-0.626 -0.412,-0.509 -0.737,-0.91 -1.267,-1.07 -0.153,-0.047 -0.338,-0.051 -0.551,-0.055 -0.219,-0.005 -0.468,-0.011 -0.732,-0.066 -0.16,-0.033 -0.282,-0.096 -0.354,-0.133 -0.088,-0.024 -0.165,-0.016 -0.239,-0.012 l -0.18,0.007 c -1.534,0.054 -2.718,-1.039 -2.996,-2.771 -0.126,-0.795 -0.162,-1.537 -0.195,-2.255 -0.006,-0.117 -0.064,-0.273 -0.128,-0.389 -0.044,0.123 -0.086,0.27 -0.114,0.368 -0.054,0.192 -0.107,0.367 -0.164,0.492 -0.058,0.13 -0.073,0.202 -0.104,0.347 -0.022,0.107 -0.046,0.225 -0.088,0.374 -0.083,0.289 -0.216,0.512 -0.333,0.708 -0.09,0.15 -0.167,0.28 -0.195,0.397 l -0.028,0.122 c -0.155,0.676 -0.317,1.375 -0.719,2.052 -0.282,0.473 -0.735,1.057 -1.183,1.527 -0.793,0.827 -2.05,1.427 -2.962,1.713 -0.547,0.172 -0.909,0.286 -1.303,0.606 -0.19,0.153 -0.359,0.339 -0.527,0.522 -0.117,0.126 -0.233,0.251 -0.352,0.369 -0.232,0.227 -0.276,0.357 -0.383,0.67 -0.038,0.112 -0.079,0.232 -0.131,0.366 -0.054,0.14 -0.143,0.299 -0.237,0.459 -0.054,0.091 -0.112,0.183 -0.149,0.273 -0.045,0.111 -0.1,0.223 -0.156,0.337 -0.052,0.106 -0.107,0.213 -0.148,0.329 -0.083,0.232 -0.187,0.46 -0.292,0.688 -0.092,0.201 -0.186,0.401 -0.255,0.607 -0.059,0.169 -0.083,0.347 -0.112,0.525 -0.047,0.29 -0.099,0.618 -0.24,0.946 -0.149,0.348 -0.36,0.633 -0.547,0.885 -0.103,0.139 -0.207,0.276 -0.294,0.426 l -0.056,0.103 c -0.118,0.23 -0.317,0.616 -0.774,0.784 -0.163,0.061 -0.329,0.09 -0.492,0.09 -0.321,0 -0.633,-0.115 -0.896,-0.34 -0.893,-0.765 -1.123,-2.784 -0.986,-3.468 0.032,-0.159 0.11,-0.365 0.196,-0.573 0.045,-0.107 0.092,-0.215 0.119,-0.312 0.128,-0.441 0.253,-0.847 0.408,-1.281 0.078,-0.218 0.142,-0.435 0.205,-0.65 0.157,-0.528 0.318,-1.074 0.649,-1.615 0.402,-0.656 0.95,-1.158 1.481,-1.644 0.254,-0.232 0.506,-0.462 0.733,-0.707 0.423,-0.456 0.828,-0.994 1.219,-1.514 z m 36.431,13.791 c -0.078,0.032 -0.157,0.062 -0.236,0.09 -0.302,0.106 -0.613,0.183 -0.928,0.234 -0.027,0.005 -0.055,0.009 -0.082,0.013 -0.009,10e-4 -0.011,10e-4 -0.034,0.004 -0.079,0.007 -0.158,0.017 -0.238,0.023 -0.163,0.014 -0.326,0.022 -0.489,0.028 -0.354,0.013 -0.71,0.012 -1.065,0.012 -0.348,0 -0.682,0.306 -0.665,0.665 0.015,0.361 0.292,0.666 0.665,0.666 0.758,0 1.511,-0.006 2.261,-0.127 0.572,-0.093 1.122,-0.282 1.64,-0.535 0.175,0.083 0.333,0.189 0.45,0.343 0.168,0.219 0.496,0.83 -0.071,1.759 -0.21,0.344 -0.482,0.519 -0.681,0.647 -0.053,0.035 -0.108,0.068 -0.16,0.109 -0.036,0.031 -0.09,0.082 -0.15,0.139 -0.228,0.214 -0.39,0.362 -0.556,0.449 -0.616,0.323 -1.316,0.284 -1.933,0.253 -0.173,-0.009 -0.319,-0.021 -0.502,-0.017 -0.961,0.012 -1.44,-0.243 -2.071,-0.587 l -0.147,-0.08 c -0.456,-0.247 -1.025,-0.555 -1.464,-1.224 -0.399,-0.606 -0.845,-1.283 -0.936,-2.049 -0.212,-1.778 0.657,-2.725 1.62,-3.408 1.481,-0.833 3.18,-1.062 4.771,-0.654 0.219,0.105 0.429,0.229 0.6,0.402 0.321,0.106 0.586,0.273 0.79,0.5 0.184,0.202 0.543,1.12 0.562,1.335 0.021,0.237 0.005,0.428 -0.031,0.597 -0.096,0.006 -0.191,0.029 -0.282,0.082 -0.162,0.094 -0.327,0.184 -0.497,0.265 -0.021,0.01 -0.252,0.112 -0.141,0.066 m 9.86,-1.408 c 0.02,0.086 0.047,0.138 0.097,0.233 0.091,0.172 0.215,0.407 0.26,0.806 0.024,0.217 0.013,0.441 -10e-4,0.664 -0.008,0.122 -0.018,0.244 -0.011,0.363 0.01,0.17 0.057,0.304 0.121,0.488 0.06,0.17 0.119,0.345 0.163,0.555 0.141,0.663 0.101,1.42 0.065,2.088 l -0.019,0.388 c -0.06,1.478 -0.913,2.868 -1.648,3.914 -0.792,1.126 -1.454,1.846 -2.879,2.662 -1.194,0.683 -2.442,1.238 -4.175,1.855 -0.436,0.156 -0.879,0.227 -1.306,0.295 -0.247,0.04 -0.5,0.08 -0.756,0.139 -0.473,0.11 -0.908,0.165 -1.327,0.165 -0.427,0 -0.838,-0.057 -1.258,-0.171 -0.434,-0.118 -0.917,-0.177 -1.429,-0.24 -0.928,-0.114 -1.887,-0.231 -2.793,-0.711 -1.635,-0.87 -2.732,-2.222 -3.009,-3.711 -0.166,-0.885 0.009,-1.774 0.468,-2.375 0.63,-0.821 1.382,-0.8 1.992,-0.777 0.106,0.003 0.204,0.007 0.332,0.006 0.755,0.004 1.478,0.115 2.412,0.388 0.203,0.059 0.355,0.151 0.465,0.219 0.078,0.047 0.12,0.072 0.157,0.081 0.086,0.023 0.247,0.007 0.404,-0.009 0.246,-0.023 0.556,-0.053 0.877,0.023 0.179,0.042 0.36,0.096 0.543,0.151 0.457,0.137 0.854,0.257 1.211,0.168 0.06,-0.015 0.16,-0.068 0.256,-0.12 0.149,-0.079 0.298,-0.155 0.454,-0.207 0.167,-0.058 0.349,-0.1 0.533,-0.142 0.201,-0.045 0.39,-0.088 0.536,-0.156 0.309,-0.146 0.648,-0.273 0.995,-0.401 0.942,-0.35 1.833,-0.68 2.254,-1.5 0.119,-0.231 0.119,-0.231 0.132,-0.586 l 0.005,-0.171 c 0.018,-0.384 0.122,-0.673 0.205,-0.905 0.04,-0.112 0.083,-0.226 0.111,-0.361 0.121,-0.568 0.05,-1.179 -0.224,-1.924 -0.416,-1.129 -1.178,-1.847 -2.08,-2.514 0.062,-0.254 -0.001,-0.542 -0.27,-0.731 -2.526,-1.768 -5.944,-1.735 -8.516,-0.083 -0.1,0.064 -0.167,0.143 -0.217,0.227 -0.049,-0.079 -0.088,-0.165 -0.112,-0.258 l -0.041,-0.058 0.002,-0.045 c -0.152,-0.346 -0.093,-0.639 -0.033,-0.8 0.104,-0.283 0.332,-0.511 0.642,-0.649 l 0.036,-0.037 c 0.134,-0.159 0.26,-0.294 0.336,-0.372 0.782,-0.804 1.542,-1.087 2.348,-1.387 0.084,-0.031 0.193,-0.103 0.31,-0.179 0.193,-0.125 0.411,-0.267 0.686,-0.352 0.312,-0.094 0.593,-0.091 0.822,-0.09 0.139,0.004 0.258,0.003 0.35,-0.018 0.304,-0.067 0.6,-0.17 0.896,-0.271 0.438,-0.149 0.889,-0.303 1.385,-0.377 1.324,-0.196 2.822,0.497 4.026,1.054 0.282,0.13 0.549,0.254 0.796,0.357 0.643,0.269 2.25,1.01 3.3,2.078 0.519,0.527 0.946,1.359 1.113,2.172 0.06,0.291 0.036,0.567 0.016,0.789 -0.013,0.14 -0.025,0.284 -0.008,0.36 m -23.937,-14.985 c 0.05,-0.098 0.144,-0.245 0.312,-0.364 -0.013,-1.832 1.781,-3.387 2.628,-4.019 0.553,-0.412 1.043,-0.648 1.564,-0.898 l 0.444,-0.216 c 0.228,-0.114 0.438,-0.243 0.647,-0.371 0.383,-0.233 0.781,-0.476 1.267,-0.644 l 0.424,-0.146 c 0.844,-0.292 1.677,-0.58 2.556,-0.854 0.407,-0.127 0.814,-0.222 1.219,-0.315 0.548,-0.127 1.066,-0.247 1.559,-0.448 0.208,-0.084 0.431,-0.162 0.656,-0.242 0.417,-0.146 0.849,-0.298 1.15,-0.485 0.098,-0.061 0.21,-0.169 0.328,-0.283 0.189,-0.184 0.403,-0.391 0.696,-0.552 0.336,-0.184 0.484,-0.285 0.725,-0.492 0.355,-0.308 0.451,-0.59 0.626,-1.103 0.048,-0.141 0.098,-0.289 0.158,-0.446 l 0.077,-0.205 c 0.178,-0.471 0.38,-1.005 0.411,-1.434 0.03,-0.428 -0.048,-0.75 -0.147,-1.158 -0.037,-0.155 -0.076,-0.315 -0.111,-0.484 l -0.043,-0.217 c -0.104,-0.527 -0.203,-1.025 -0.417,-1.445 l -0.054,-0.104 c -0.432,-0.839 -0.84,-1.632 -1.469,-2.29 -0.101,-0.105 -0.21,-0.257 -0.311,-0.404 -0.045,-0.065 -0.085,-0.129 -0.124,-0.173 -0.119,-0.002 -0.267,-0.014 -0.467,-0.058 -0.172,-0.038 -0.41,-0.126 -0.625,-0.21 l -0.221,-0.083 c -0.442,-0.152 -0.823,-0.282 -1.204,-0.606 l -1.168,-0.994 1.511,-0.264 c 0.049,-0.008 0.114,-0.042 0.213,-0.095 0.143,-0.077 0.339,-0.182 0.592,-0.233 0.32,-0.066 0.662,-0.043 0.964,-0.021 0.127,0.009 0.25,0.021 0.361,0.017 0.775,-0.046 1.467,0.284 2.086,0.543 l 0.244,0.102 c 0.249,0.102 0.455,0.242 0.621,0.357 0.035,-0.089 0.067,-0.182 0.099,-0.276 0.186,-0.539 0.547,-1.581 1.707,-1.526 0.77,0.011 1.124,0.425 1.267,0.67 0.347,0.598 0.166,1.363 -0.118,1.88 l -0.086,0.155 c -0.324,0.582 -0.473,0.848 -0.35,1.396 0.026,0.109 0.07,0.228 0.115,0.352 0.068,0.189 0.137,0.386 0.184,0.587 0.048,0.198 0.152,0.444 0.255,0.683 l 0.106,0.253 c 0.075,0.185 0.16,0.375 0.247,0.568 0.299,0.664 0.637,1.418 0.67,2.175 0.065,1.513 0.137,3.227 -0.847,4.651 -0.067,0.095 -0.155,0.197 -0.246,0.3 -0.059,0.066 -0.123,0.13 -0.16,0.191 -10e-4,0.008 -0.007,0.044 -0.016,0.079 -0.032,0.122 -0.075,0.289 -0.173,0.451 -0.172,0.284 -0.383,0.462 -0.552,0.605 -0.14,0.118 -0.223,0.19 -0.281,0.292 -0.46,0.798 -0.974,1.627 -1.614,2.266 -1.177,1.175 -2.987,1.884 -4.766,2.475 l -0.266,0.085 c -0.24,0.075 -0.448,0.14 -0.649,0.248 -0.332,0.178 -0.676,0.276 -0.98,0.364 -0.241,0.069 -0.468,0.134 -0.633,0.225 -0.02,0.014 -0.129,0.101 -0.45,0.411 l -0.27,0.263 c -0.313,0.306 -0.56,0.547 -1.043,0.868 -0.587,0.39 -1.053,0.937 -1.546,1.516 -0.266,0.312 -0.529,0.621 -0.81,0.907 -0.865,0.878 -1.875,0.995 -2.585,0.995 h -0.071 l -0.293,-0.002 c -0.929,-0.003 -1.807,-0.005 -2.786,-0.778 -0.619,-0.49 -1.07,-1.332 -0.737,-1.992 m 58.06,36.009 C 22.378,10.171 21.874,9.207 22.088,7.938 22.296,6.7 21.5,5.496 20.753,4.409 v 0.735 c -0.085,0.005 -0.17,0.011 -0.256,0.018 -0.037,-0.593 -0.186,-1.205 -0.09,-1.774 0.32,-1.872 0.754,-3.725 1.085,-5.595 0.093,-0.525 0.07,-1.107 -0.055,-1.626 -0.414,-1.722 -0.881,-3.432 -1.362,-5.137 -0.398,-1.413 -0.799,-2.828 -1.285,-4.213 -0.29,-0.828 -0.724,-1.609 -1.138,-2.388 -0.168,-0.318 -0.462,-0.567 -0.679,-0.86 -0.095,-0.127 -0.158,-0.282 -0.211,-0.433 -0.315,-0.877 0.396,-1.787 -0.1,-2.673 -0.167,-0.297 -0.257,-0.657 -0.302,-1 -0.129,-0.979 -0.211,-1.964 -0.324,-2.945 -0.019,-0.166 -0.065,-0.35 -0.16,-0.482 -0.538,-0.752 -1.105,-1.483 -1.634,-2.241 -0.092,-0.132 -0.043,-0.363 -0.065,-0.62 -1.223,-1.099 -1.778,-2.827 -3.066,-4.071 -1.158,-1.118 -1.892,-2.676 -2.818,-4.037 -0.61,-0.895 -1.246,-1.773 -1.839,-2.679 -0.517,-0.789 -1.361,-1.319 -1.443,-2.467 -0.045,-0.621 -0.714,-1.276 -1.24,-1.767 -1.052,-0.983 -2.201,-1.864 -3.312,-2.79 -0.02,0.167 -0.042,0.358 -0.065,0.549 -0.069,0.028 -0.137,0.057 -0.206,0.086 -0.439,-0.65 -0.873,-1.304 -1.319,-1.948 -0.29,-0.419 -0.6,-0.825 -0.9,-1.238 -0.223,-0.305 -0.451,-0.605 -0.663,-0.918 -0.356,-0.526 -0.695,-1.065 -1.053,-1.589 -0.123,-0.179 -0.297,-0.322 -0.428,-0.495 -0.531,-0.701 -1.029,-1.429 -1.599,-2.096 -0.146,-0.17 -0.507,-0.18 -0.776,-0.215 -0.388,-0.052 -0.804,0.01 -1.173,-0.098 -1.555,-0.452 -3.114,-0.903 -4.636,-1.453 -0.617,-0.222 -1.223,-0.613 -1.696,-1.07 -1.451,-1.4 -3.26,-2.344 -4.621,-3.886 -0.719,-0.814 -1.881,-1.262 -2.886,-1.789 -1.121,-0.587 -2.286,-1.087 -3.441,-1.604 -0.629,-0.282 -1.259,-0.653 -1.922,-0.749 -1.3,-0.189 -2.626,-0.189 -3.936,-0.313 -1.513,-0.144 -3.081,-0.025 -4.481,-0.794 -1.502,-0.826 -3.14,-0.673 -4.756,-0.696 -0.114,-0.002 -0.262,0.019 -0.338,0.091 -0.722,0.676 -1.548,0.387 -2.344,0.239 -0.121,-0.023 -0.191,-0.322 -0.323,-0.565 -0.368,-0.05 -0.84,-0.162 -1.315,-0.169 -1.007,-0.016 -2.015,0.024 -3.022,0.039 -1.049,0.015 -2.103,0.101 -3.144,0.019 -0.979,-0.078 -1.943,-0.335 -2.914,-0.516 -0.017,-0.003 -0.027,-0.057 -0.043,-0.059 -0.395,-0.038 -0.833,-0.198 -1.176,-0.082 -0.908,0.309 -1.816,0.667 -2.64,1.149 -0.429,0.25 -1.125,0.384 -1.109,1.145 0.002,0.106 -0.179,0.248 -0.305,0.319 -0.501,0.28 -1.015,0.54 -1.524,0.807 0.004,-0.08 0.009,-0.16 0.014,-0.239 -0.148,-0.033 -0.305,-0.116 -0.441,-0.088 -0.738,0.153 -1.466,0.362 -2.209,0.49 -0.296,0.052 -0.631,-0.123 -0.927,-0.073 -1.156,0.194 -2.303,0.438 -3.454,0.661 -1.413,0.274 -2.826,0.542 -4.238,0.818 -0.197,0.039 -0.397,0.181 -0.579,0.154 -1.298,-0.186 -2.402,0.52 -3.603,0.769 -0.214,0.044 -0.379,0.319 -0.566,0.488 0.038,0.033 0.075,0.067 0.113,0.1 l 1.098,-0.355 c 0.026,0.071 0.052,0.142 0.078,0.212 -0.764,0.517 -1.528,1.034 -2.292,1.551 -0.035,-0.107 -0.07,-0.214 -0.106,-0.321 -0.27,0.019 -0.588,-0.047 -0.801,0.074 -0.66,0.374 -1.281,0.815 -1.915,1.235 -1.028,0.682 -2.011,1.449 -3.097,2.022 -0.782,0.413 -1.752,0.465 -2.546,0.863 -1.874,0.938 -3.741,1.914 -4.966,3.738 -0.447,0.665 -0.961,1.284 -1.552,2.065 -0.135,-0.275 -0.206,-0.42 -0.257,-0.523 -1.417,1.196 -1.928,2.855 -2.811,4.282 -0.803,1.296 -1.632,2.626 -2.692,3.702 -1.288,1.307 -2.856,2.333 -4.253,3.539 -1.382,1.193 -1.639,2.934 -2.061,4.58 -0.172,0.668 -0.323,1.341 -0.484,2.012 -0.079,-0.018 -0.159,-0.035 -0.239,-0.053 0.023,-0.199 0.046,-0.399 0.069,-0.598 -0.333,0.324 -0.458,0.729 -0.675,1.077 -0.46,0.738 -0.963,1.449 -1.459,2.163 -0.129,0.185 -0.318,0.328 -0.443,0.514 -0.778,1.154 -1.553,2.309 -2.307,3.477 -0.132,0.204 -0.182,0.469 -0.24,0.713 -0.31,1.306 -0.57,2.625 -0.925,3.918 -0.327,1.191 -0.751,2.355 -1.132,3.531 l -0.189,-0.052 c -0.038,-0.119 -0.077,-0.238 -0.098,-0.304 -0.141,0.743 -0.341,1.498 -0.416,2.267 -0.096,0.981 -0.054,1.977 -0.141,2.961 -0.089,1.011 0.114,2.058 -0.435,3.023 -0.307,0.54 -0.575,1.146 -0.677,1.754 -0.442,2.642 -0.776,5.289 -2.155,7.686 -0.994,1.728 -1.071,3.688 -0.727,5.595 0.561,3.111 1.11,6.237 2.339,9.181 0.072,0.173 0.267,0.291 0.374,0.454 0.412,0.625 0.811,1.26 1.215,1.89 -0.045,0.034 -0.091,0.067 -0.136,0.101 -0.149,-0.068 -0.298,-0.136 -0.447,-0.204 0.681,0.903 0.805,2.022 0.489,2.864 -0.356,0.945 -0.323,1.672 0.087,2.491 0.042,-0.074 0.084,-0.149 0.224,-0.398 0.066,0.722 0.116,1.268 0.165,1.813 0.053,0.58 0.063,1.167 0.162,1.739 0.563,3.234 1.854,6.233 2.98,9.289 1.13,3.067 3.183,5.592 4.814,8.357 0.862,1.46 2.042,2.789 3.479,3.843 1.612,1.183 3.245,2.32 4.373,4.107 0.794,1.257 2.03,2.25 3.137,3.288 1.757,1.648 3.534,3.28 5.37,4.84 2.851,2.423 5.634,4.988 9.519,5.69 0.261,0.048 0.537,0.007 0.798,0.052 0.913,0.158 1.881,0.196 2.717,0.546 0.855,0.358 1.574,1.037 2.365,1.556 0.131,0.086 0.325,0.073 0.491,0.101 0.258,0.044 0.574,0.002 0.764,0.139 1.534,1.097 3.137,2.023 4.987,2.519 1.317,0.354 2.595,0.858 3.881,1.318 0.425,0.152 0.82,0.534 1.235,0.544 1.588,0.037 3.001,0.75 4.514,1.059 2.23,0.456 4.442,1.064 6.613,-0.238 0.235,-0.141 0.623,-0.063 0.934,-0.031 0.313,0.03 0.631,0.218 0.928,0.182 2.927,-0.358 5.848,-0.753 8.772,-1.128 1.473,-0.188 2.95,-0.351 4.422,-0.537 1.166,-0.147 2.337,-0.27 3.492,-0.477 1.453,-0.261 2.891,-0.597 4.336,-0.897 0.073,-0.015 0.153,0.007 0.227,-0.006 0.679,-0.109 1.44,-0.063 2.018,-0.366 1.738,-0.907 3.405,-1.948 5.095,-2.943 0.517,-0.304 0.957,-0.892 1.667,-0.361 0.069,0.05 0.284,-0.064 0.415,-0.131 1.753,-0.899 3.649,-1.346 5.57,-1.644 1.359,-0.212 1.949,-1.273 2.725,-2.151 0.076,-0.086 0.031,-0.28 0.052,-0.534 -0.276,0.241 -0.47,0.412 -0.664,0.583 -0.058,-0.037 -0.115,-0.072 -0.173,-0.108 0.205,-0.345 0.338,-0.774 0.627,-1.016 1.199,-1.003 2.376,-2.034 3.559,-3.044 1.749,-1.496 3.098,-3.442 5.206,-4.551 0.803,-0.424 1.417,-1.208 2.129,-1.813 0.143,-0.122 0.341,-0.185 0.523,-0.255 1.615,-0.614 3.155,-1.302 3.921,-3.036 0.654,-1.481 1.317,-2.966 2.082,-4.392 0.372,-0.694 0.922,-1.324 1.498,-1.87 2.312,-2.197 4.775,-4.245 6.249,-7.183 0.509,-1.016 1.203,-1.937 1.797,-2.911 0.182,-0.3 0.338,-0.622 0.46,-0.951 0.519,-1.401 1.083,-2.789 1.512,-4.217 0.399,-1.326 0.668,-2.693 0.957,-4.051 0.215,-1.009 0.307,-2.047 0.568,-3.041 0.352,-1.344 1.039,-2.639 1.166,-3.993 0.129,-1.387 0.423,-2.71 0.735,-4.046 0.128,-0.549 0.429,-1.139 0.324,-1.642"
               style="fill:#231f20;fill-opacity:1;fill-rule:nonzero;stroke:none"
               id="path579" />
          </g>
        </g>
      </g>
    </g>
  </g>
</svg>
