<?xml version="1.0" encoding="UTF-8" standalone="no"?>
<!-- Created with Inkscape (http://www.inkscape.org/) -->

<svg
   width="24.059431"
   height="24"
   viewBox="0 0 6.3657243 6.35"
   version="1.1"
   id="svg5272"
   inkscape:version="1.2.1 (9c6d41e4, 2022-07-14)"
   sodipodi:docname="return-to-the-boundary-beyond.svg"
   xmlns:inkscape="http://www.inkscape.org/namespaces/inkscape"
   xmlns:sodipodi="http://sodipodi.sourceforge.net/DTD/sodipodi-0.dtd"
   xmlns="http://www.w3.org/2000/svg"
   xmlns:svg="http://www.w3.org/2000/svg">
  <sodipodi:namedview
     id="namedview5274"
     pagecolor="#505050"
     bordercolor="#eeeeee"
     borderopacity="1"
     inkscape:showpageshadow="0"
     inkscape:pageopacity="0"
     inkscape:pagecheckerboard="0"
     inkscape:deskcolor="#505050"
     inkscape:document-units="mm"
     showgrid="false"
     inkscape:zoom="0.7046647"
     inkscape:cx="17.029376"
     inkscape:cy="80.179978"
     inkscape:window-width="1390"
     inkscape:window-height="941"
     inkscape:window-x="0"
     inkscape:window-y="25"
     inkscape:window-maximized="0"
     inkscape:current-layer="layer1" />
  <defs
     id="defs5269">
    <clipPath
       clipPathUnits="userSpaceOnUse"
       id="clipPath393">
      <path
         d="m 150.565,442.226 h 22.058 v 21.883 h -22.058 z"
         id="path391" />
    </clipPath>
  </defs>
  <g
     inkscape:label="Layer 1"
     inkscape:groupmode="layer"
     id="layer1"
     transform="translate(-100.44798,-127.48998)">
    <g
       id="g387"
       transform="matrix(0.29716561,0,0,-0.29716561,55.610434,265.33081)">
      <g
         id="g389"
         clip-path="url(#clipPath393)">
        <g
           id="g395"
           transform="matrix(0.1531793,0,0,-0.1519643,161.59476,453.08014)">
          <g
             id="g397"
             transform="translate(47.3242,24.4664)">
            <path
               d="m 0,0 c -0.271,0.071 -0.603,0.016 -0.884,0.028 -0.588,0.025 -1.169,0.121 -1.757,0.151 -1.386,0.07 -2.899,0.131 -4.282,0 C -7.661,0.11 -8.33,0.003 -9.077,0.007 c -1.191,0.007 -2.403,0.075 -3.589,-0.036 -1.149,-0.11 -2.252,-0.148 -3.408,-0.139 -1.114,0.007 -2.197,-0.16 -3.306,-0.2 -1.619,-0.058 -3.246,0.057 -4.865,0.016 -0.637,-0.016 -1.232,-0.169 -1.859,-0.2 -0.574,-0.028 -1.161,0.008 -1.737,0.008 -0.525,0 -1.395,0.164 -1.89,0.011 -0.075,-0.023 -0.218,-0.147 -0.249,-0.154 -0.122,-0.028 -0.337,0.012 -0.42,-0.049 -0.25,-0.188 -0.062,-0.466 0.034,-0.711 0.183,-0.471 0.299,-0.973 0.392,-1.468 0.159,-0.838 0.044,-1.628 -0.299,-2.394 -0.281,-0.626 -0.421,-1.006 -0.231,-2.984 0.331,-0.032 0.561,0.04 0.875,0.135 0.686,0.207 1.396,0.237 2.105,0.347 2.802,0.438 5.608,0.824 8.448,0.811 4.692,-0.021 9.385,-0.001 14.076,-0.001 h 2.523 c 0.389,0 1.182,-0.159 1.53,-0.013 0.329,0.14 0.176,0.81 0.175,1.148 0,0.481 -0.053,0.982 0.043,1.458 0.079,0.39 0.072,0.82 0.161,1.196 0.101,0.428 0.412,0.814 0.605,1.184 0.245,0.464 0.13,1.079 0.184,1.588 C 0.251,-0.149 0.449,-0.119 0,0 m -32.256,-13.405 c -0.269,-0.34 -0.208,-0.614 -0.326,-0.991 -0.092,-0.292 -0.199,-0.375 -0.194,-0.725 0.009,-0.614 -10e-4,-1.23 0.379,-2.951 h 19.933 2.505 c 0.364,0 0.732,-0.016 1.096,-0.005 0.367,0.012 0.639,0.153 0.987,0.196 0.52,0.064 1.194,-0.182 1.615,0.174 0.357,0.302 0.131,1.025 0.229,1.52 0.116,0.594 0.265,1.235 0.572,1.774 0.15,0.262 0.21,0.447 0.332,0.738 0.1,0.234 0.255,0.356 0.378,0.575 0.106,0.191 0.538,1.082 0.351,1.274 -0.108,0.11 -0.641,0.043 -0.796,0.068 -0.813,0.135 -1.61,0.224 -2.437,0.102 -1.323,-0.194 -2.658,-0.293 -3.979,-0.512 -2.403,-0.399 -4.739,-0.317 -7.169,-0.359 -0.96,-0.017 -1.899,-0.227 -2.847,-0.341 -0.731,-0.09 -1.48,-0.037 -2.216,-0.037 -1.209,-0.001 -2.418,0 -3.626,0 -0.946,0 -1.938,0.098 -2.827,-0.144 -0.675,-0.184 -1.478,0.25 -1.96,-0.356 m -1.089,10.288 c 0,0.726 -0.005,1.452 0,2.178 0.003,0.436 -0.136,0.726 -0.189,1.134 -0.95,0.554 -2.123,0.642 -3.257,0.564 -0.378,-0.027 -0.725,-0.185 -1.104,-0.204 -0.408,-0.022 -0.728,0.007 -1.126,-0.083 -0.605,-0.139 -1.117,-0.11 -1.691,-0.35 -0.028,-0.213 0.099,-0.631 0.161,-0.836 0.138,-0.455 0.346,-0.878 0.446,-1.35 0.097,-0.468 0.124,-0.929 0.268,-1.383 0.086,-0.265 0.198,-0.498 0.248,-0.774 0.408,-2.266 0.563,-4.55 0.563,-6.858 v -6.232 c 0,-1.666 -0.053,-3.278 -0.19,-4.936 -0.038,-0.462 -0.168,-0.908 -0.198,-1.369 -0.033,-0.492 0.058,-0.968 -0.032,-1.459 -0.172,-0.93 -0.198,-1.853 -0.352,-2.784 -0.179,-1.075 -0.714,-2.079 -0.89,-3.176 -0.137,-0.85 -0.211,-1.692 -0.375,-2.533 -0.222,-1.143 -0.235,-2.245 -0.235,-3.408 0,-1.106 0.011,-2.13 0.147,-3.221 0.098,-0.795 -0.021,-1.586 0.085,-2.378 0.076,-0.572 0.176,-1.136 0.294,-1.698 0.178,-0.872 0.042,-1.886 0.042,-2.768 0,-0.431 0.259,-2.001 -0.154,-2.265 -0.006,-0.073 0.02,-0.135 0.08,-0.186 -0.168,-0.136 -0.7,-0.399 -0.917,-0.461 -0.457,-0.132 -0.962,0.045 -1.428,-0.033 -0.314,-0.052 -0.498,-0.235 -0.787,-0.336 -0.295,-0.105 -0.625,-0.068 -0.928,-0.175 -0.555,-0.195 -0.973,-0.324 -1.548,-0.415 -0.623,-0.097 -0.964,-0.421 -1.141,0.361 -0.108,0.483 -0.088,0.994 -0.174,1.475 -0.065,0.351 -0.191,0.605 -0.204,0.977 -0.007,0.23 0.004,0.462 0.004,0.692 v 1.278 c 0,0.375 0.059,0.789 0.014,1.159 -0.048,0.405 -0.268,0.713 -0.356,1.107 -0.209,0.94 -0.195,1.919 -0.373,2.863 -0.146,0.777 -0.042,1.65 -0.042,2.438 0,1.122 -0.006,2.244 0.004,3.367 0.025,2.696 -0.652,5.424 -1.089,8.077 -0.188,1.144 -0.495,2.269 -0.818,3.38 -0.194,0.666 -0.078,1.267 -0.207,1.924 -0.098,0.492 -0.414,0.9 -0.509,1.393 -0.191,0.998 -0.277,2.04 -0.412,3.05 -0.102,0.766 -0.378,1.485 -0.378,2.257 0,0.674 -0.24,1.322 -0.336,1.987 -0.089,0.616 -0.042,1.255 -0.042,1.879 0,3.103 -0.568,6.134 -0.569,9.228 -10e-4,0.483 -0.01,0.966 -10e-4,1.449 0.003,0.108 0.072,0.459 -0.027,0.552 -0.159,0.151 -0.89,0.03 -1.108,0.03 -0.883,0 -1.77,0.029 -2.652,-10e-4 -0.338,-0.011 -0.574,-0.087 -0.904,-0.143 -0.144,-0.024 -0.503,0.01 -0.628,-0.067 -0.286,-0.181 -0.012,-0.761 0.059,-1.039 0.058,-0.229 0.193,-0.552 0.285,-0.818 0.236,-0.672 0.193,-1.317 0.379,-1.996 0.466,-1.696 0.741,-3.441 0.952,-5.195 0.193,-1.605 0.499,-3.196 0.667,-4.8 0.16,-1.523 0.321,-3.046 0.559,-4.561 0.338,-2.162 0.588,-4.342 0.951,-6.503 0.255,-1.525 0.415,-3.076 0.711,-4.595 0.467,-2.401 0.504,-4.849 0.993,-7.245 0.412,-2.017 0.71,-4.022 0.901,-6.072 0.091,-0.985 0.303,-1.951 0.42,-2.933 0.12,-1.011 0.218,-2.059 0.379,-3.059 0.239,-1.487 0.372,-3.044 0.716,-4.492 0.059,-0.252 -0.095,-0.26 0.175,-0.375 0.114,-0.048 0.451,0.013 0.581,0.013 0.316,0.002 0.632,0 0.948,0 0.488,0 1.055,-0.081 1.524,0.042 0.404,0.104 0.691,0.143 1.128,0.142 0.751,-10e-4 1.385,0.15 2.106,0.329 1.008,0.249 2.326,0.041 3.385,0.041 0.344,0 0.809,-0.084 1.141,-0.013 0.514,0.109 0.304,0.374 0.363,0.751 0.072,0.451 0.374,0.828 0.395,1.291 0.017,0.381 0.146,0.566 0.189,0.919 0.09,0.739 0.19,1.496 0.368,2.218 0.066,0.271 0.184,0.451 0.199,0.734 0.013,0.226 -0.056,0.482 -0.013,0.702 0.045,0.237 0.164,0.398 0.209,0.635 0.043,0.226 -0.064,0.476 -0.02,0.702 0.158,0.808 0.365,1.626 0.536,2.432 0.319,1.505 0.31,3.091 0.567,4.579 0.12,0.682 -0.032,1.381 0.085,2.069 0.19,1.12 0.084,2.202 0.138,3.333 0.055,1.176 0.22,2.382 0.441,3.538 0.172,0.908 0.137,1.803 0.136,2.722 -0.004,1.762 0.365,3.482 0.669,5.218 0.328,1.877 0.671,3.759 0.993,5.638 0.13,0.756 0.248,1.625 0.238,2.392 -0.019,1.309 0.136,2.572 0.178,3.871 0.041,1.295 0.4,2.546 0.388,3.849 -0.007,0.873 -0.004,1.747 -0.004,2.619 m -27.457,-19.384 c -1.095,0 -2.198,-0.04 -3.292,-0.008 -0.703,0.022 -1.378,0.184 -2.084,0.2 -0.723,0.016 -1.449,-0.007 -2.173,-0.007 -0.815,0 -1.628,10e-4 -2.443,0 -1.164,-0.001 -2.257,-0.336 -3.413,-0.374 -0.803,-0.027 -1.55,-0.324 -2.316,-0.37 -0.81,-0.045 -1.549,-0.188 -2.372,-0.176 -0.686,0.008 -1.302,-0.193 -1.984,-0.187 -0.47,0.003 -1.38,0.211 -1.098,-0.514 0.066,-0.167 0.3,-0.376 0.393,-0.553 0.099,-0.188 0.183,-0.386 0.275,-0.595 0.111,-0.25 0.251,-0.501 0.383,-0.742 0.188,-0.344 0.15,-0.46 0.231,-0.838 0.046,-0.208 0.157,-0.324 0.202,-0.535 0.039,-0.178 -0.112,-0.585 -0.001,-0.737 0.181,-0.248 0.67,-0.065 0.941,-0.016 0.816,0.15 1.631,0.458 2.463,0.484 1.089,0.034 2.101,-0.066 3.179,0.171 1.1,0.243 2.285,0.286 3.411,0.353 1.03,0.061 2.007,0.002 3.029,0.159 0.985,0.152 2.047,0.041 3.04,0.041 2.409,0 4.817,0 7.224,0.369 0,0.984 -10e-4,1.968 0,2.953 0,0.175 0.086,0.597 0.015,0.75 -0.12,0.256 -0.333,0.177 -0.612,0.171 -0.998,-0.018 -2,10e-4 -2.998,10e-4 m 0.802,8.118 c 0.134,0.404 0.379,1.18 -0.133,1.301 -0.711,0.168 -1.805,-0.008 -2.496,-0.008 -1.112,0 -2.21,0.046 -3.305,-0.143 -0.773,-0.135 -1.621,-0.041 -2.402,-0.041 -1.271,0 -2.542,0 -3.813,-0.001 -1.451,-10e-4 -2.869,-0.023 -4.311,-0.144 -1.294,-0.108 -2.6,0.082 -3.874,-0.216 -0.496,-0.115 -0.973,-0.275 -1.48,-0.35 -0.665,-0.1 -1.382,-0.033 -2.053,-0.03 -1.089,0.006 -2.177,0.001 -3.267,0.001 -0.71,0 -1.421,-0.006 -2.131,0 -0.268,0.002 -0.626,0.085 -0.822,-0.129 0.184,-0.203 0.067,-0.378 0.108,-0.609 0.039,-0.224 0.13,-0.537 0.194,-0.746 0.118,-0.383 0.334,-0.702 0.487,-1.091 0.183,-0.469 0.188,-1.003 0.265,-1.484 0.082,-0.499 0.356,-0.949 0.429,-1.457 0.467,0.389 1.666,0.166 2.232,0.166 1.333,0 2.671,-0.058 3.994,0.091 1.004,0.112 1.998,0.221 3.002,0.269 0.448,0.021 0.909,0.153 1.351,0.235 1.037,0.192 2.044,0.34 3.098,0.421 1.665,0.129 3.352,0.268 5.006,0.507 1.453,0.21 2.898,0.27 4.345,0.466 1.337,0.181 2.759,0.041 4.109,0.041 h 1.988 c -0.869,1.374 -0.792,2.141 -0.521,2.951 m -1.751,9.986 c 0,0.487 0.011,0.973 -0.001,1.459 -0.011,0.398 -0.163,0.686 -0.222,1.072 -0.259,0.042 -0.471,0.179 -0.725,0.226 -0.266,0.05 -0.619,-0.01 -0.891,-0.009 -1.609,0.003 -3.197,-0.196 -4.811,-0.187 -3.686,0.018 -7.373,0.001 -11.059,0.001 -3.63,0 -7.261,-0.004 -10.891,0 -1.104,10e-4 -2.197,0.031 -3.297,-0.09 -0.376,-0.042 -1.235,0.054 -1.548,-0.196 -0.465,-0.368 0.064,-0.561 0.261,-0.858 0.583,-0.873 0.564,-2.097 1.063,-3.03 0.205,-0.384 0.526,-0.94 0.647,-1.36 0.059,-0.208 -0.028,-0.423 0.139,-0.547 0.102,-0.076 0.434,-0.01 0.561,-0.008 0.502,0.007 1.004,-10e-4 1.506,0 0.377,0 0.842,-0.075 1.208,-0.009 0.282,0.05 0.506,0.172 0.799,0.204 1.338,0.145 2.791,-0.01 4.137,-0.01 h 2.713 21.168 c -0.948,1.626 -0.757,2.443 -0.757,3.342 m -15.511,-27.604 c 0.134,-0.491 0.343,-0.991 0.363,-1.477 0.011,-0.285 -0.035,-0.555 0.039,-0.832 0.035,-0.129 0.133,-0.23 0.158,-0.37 0.026,-0.151 -0.053,-0.32 -0.019,-0.469 0.144,-0.626 1.244,-0.092 1.752,-0.08 1.297,0.031 2.601,-0.005 3.899,-0.004 1.131,10e-4 2.164,0.184 3.288,0.185 3.399,0.002 6.798,0 10.197,0 -0.378,1.529 -0.343,1.799 -0.374,2.033 -0.035,0.256 -0.148,0.316 -0.204,0.541 -0.102,0.411 0.072,0.88 -0.033,1.301 -0.179,0.718 -0.417,0.742 -1.126,0.737 -0.745,-0.003 -1.49,0 -2.233,0 h -7.431 -5.235 c -0.9,0 -1.8,-0.003 -2.7,0 -0.297,0.002 -0.621,0.045 -0.908,-0.037 0.21,-0.485 0.428,-1.022 0.567,-1.528 m 5.241,-8.398 c 0.088,-0.35 0.117,-0.668 0.215,-1.017 0.083,-0.299 0.122,-0.542 0.207,-0.829 0.075,-0.254 0.133,-0.47 0.236,-0.734 0.105,-0.267 0.081,-0.665 0.324,-0.842 0.329,-0.242 0.756,-0.01 1.102,0.059 0.35,0.07 0.65,0.098 0.99,0.185 0.967,0.247 2.064,-0.048 3.032,0.184 0.914,0.22 1.998,0.013 2.939,0.133 1.655,0.213 3.381,0.093 5.054,0.093 h 3.556 c -0.194,1.937 -0.31,2.535 -0.563,3.136 -0.174,0.414 -0.326,1.012 -0.594,1.364 -0.307,0.399 -0.656,0.296 -1.153,0.297 -0.681,10e-4 -1.363,0 -2.044,0 h -6.203 -3.284 c -1.56,0 -3.188,0.188 -4.696,-0.226 0.21,-0.59 0.718,-1.15 0.882,-1.803 m 5.304,-6.869 c 0.079,-0.393 0.135,-0.767 0.232,-1.158 0.06,-0.243 0.132,-0.411 0.241,-0.646 0.098,-0.215 0.076,-0.428 0.153,-0.63 0.111,-0.286 0.383,-0.598 0.506,-0.887 0.18,-0.427 0.298,-0.641 0.799,-0.702 0.333,-0.039 0.926,-0.077 1.243,-0.002 0.406,0.096 0.65,0.193 1.129,0.191 0.409,-0.002 0.817,0 1.226,0 h 8.148 c -0.753,1.59 -1.211,2.694 -1.683,3.616 -0.223,0.436 -0.147,1.095 -0.771,1.199 -0.378,0.064 -0.738,-0.175 -1.107,-0.211 -0.262,-0.026 -0.558,0.01 -0.822,0.009 -1.298,-0.001 -2.747,0.167 -4.026,-0.015 -0.937,-0.133 -1.807,-0.169 -2.767,-0.169 -0.619,0 -1.284,0.061 -1.901,0.005 -0.201,-0.02 -0.497,-0.008 -0.647,-0.183 -0.199,-0.232 0.005,-0.207 0.047,-0.417 m 6.471,-18.974 c 0.038,-0.154 0.172,-0.191 0.209,-0.349 0.029,-0.117 -0.053,-0.272 -0.02,-0.389 0.114,-0.392 0.406,-0.321 0.726,-0.4 0.174,-0.043 0.181,-0.12 0.416,-0.148 0.179,-0.023 0.391,0.003 0.573,0.004 1.833,0.006 3.667,0 5.501,0 2.129,0 4.324,-0.02 6.392,0.41 0.509,0.105 0.949,0.102 1.482,0.136 0.404,0.026 0.745,0.177 1.15,0.196 1.083,0.051 2.187,-0.004 3.272,-0.004 2.534,0 5.068,-0.001 7.603,0 0.535,0 1.547,-0.082 1.694,0.55 0.055,0.236 0.001,0.593 -0.012,0.836 -0.015,0.301 -0.138,0.38 -0.201,0.634 -0.084,0.345 0.061,0.767 0.015,1.121 -0.038,0.295 -0.161,0.435 -0.199,0.729 -0.056,0.425 -0.112,0.946 -0.558,1.21 -0.374,0.22 -0.4,0.174 -0.385,0.641 0.014,0.393 -0.12,0.412 -0.198,0.728 -0.127,0.509 0.01,1.234 0.01,1.762 v 1.938 c 0,0.304 -0.022,0.619 -0.004,0.922 0.016,0.314 0.259,0.617 0.192,0.923 -0.181,-0.32 -0.289,-0.522 -0.354,-0.655 0.075,0.443 0.057,1.176 -0.251,1.356 -0.311,0.179 -0.626,-0.035 -0.91,-0.107 -0.316,-0.08 -0.631,0.022 -0.946,-0.031 -0.25,-0.042 -0.681,-0.158 -0.771,-0.364 -0.09,-0.209 0.013,-0.701 0.013,-0.937 0,-0.318 -0.002,-0.637 -10e-4,-0.955 0.004,-0.51 -0.102,-0.825 -0.198,-1.296 -0.09,-0.445 0.026,-1.009 0.105,-1.439 0.08,-0.431 0.006,-0.879 0.085,-1.296 0.074,-0.399 0.476,-0.938 -0.03,-1.251 -0.418,-0.257 -1.521,-0.037 -2.03,-0.037 h -3.191 c -0.517,0 -1.04,0.023 -1.558,0.006 -0.624,-0.019 -1.175,-0.252 -1.788,-0.334 -1.334,-0.178 -2.664,-0.182 -3.997,-0.369 -1.559,-0.218 -3.28,-0.037 -4.862,-0.041 -0.707,-0.002 -1.123,0.086 -1.662,0.544 -0.28,0.238 -0.686,0.748 -0.767,1.106 -0.041,0.183 0.064,0.393 0.02,0.574 -0.025,0.1 -0.143,0.15 -0.157,0.216 -0.058,0.261 -0.044,0.515 -0.042,0.789 0.003,0.665 0.031,1.254 0.147,1.906 0.103,0.58 0.039,1.13 0.189,1.692 0.088,0.331 0.184,1.043 -0.185,1.254 -0.368,0.21 -1.337,0.038 -1.761,0.038 -0.505,0 -1.106,0.089 -1.592,-0.028 0.038,-0.32 0.146,-0.716 0.213,-1.038 0.029,-0.139 0.126,-0.211 0.152,-0.406 0.023,-0.169 -0.004,-0.387 -0.005,-0.558 -0.002,-0.676 0,-1.353 0,-2.03 0,-0.682 -0.1,-1.448 -0.007,-2.121 0.051,-0.364 0.204,-0.63 0.196,-1.016 -0.007,-0.356 0.041,-0.582 0.162,-0.876 -0.257,-0.204 -0.387,-0.331 -0.682,-0.461 -0.282,-0.123 -0.596,-0.111 -0.856,-0.273 -0.537,-0.334 -0.327,-1.208 -0.327,-1.751 0,-0.357 -0.096,-0.915 -0.01,-1.261 m 30.688,16.791 c 0.334,0.041 0.61,0.189 0.952,0.199 0.289,0.009 0.375,-0.013 0.61,0.127 0.368,0.216 0.648,0.785 0.852,1.156 0.197,0.353 0.297,0.717 0.475,1.065 0.178,0.352 0.446,0.63 0.662,0.974 0.312,0.496 0.378,0.746 -0.331,0.733 -2.398,-0.047 -4.801,0.007 -7.201,0 -0.256,-10e-4 -0.536,-0.034 -0.791,-0.01 -0.397,0.039 -0.701,0.277 -1.107,0.162 -0.475,-0.134 -0.972,-0.48 -1.084,-0.931 -0.059,-0.237 0.007,-0.46 -0.034,-0.697 -0.048,-0.274 -0.187,-0.452 -0.203,-0.738 -0.026,-0.488 0.005,-0.988 0.383,-2.399 1.338,0 2.855,-0.21 4.162,0.042 0.51,0.097 1.019,0.189 1.528,0.285 0.384,0.072 0.749,-0.014 1.127,0.032 m 6.25,6.51 c 0.351,0.088 0.57,0.152 0.947,0.143 0.397,-0.009 0.587,-0.028 0.815,0.323 0.128,0.199 0.205,0.401 0.359,0.594 0.277,0.344 0.456,0.326 0.53,0.739 0.104,0.581 0.348,1.208 0.592,1.735 0.103,0.223 0.16,0.445 0.254,0.669 0.127,0.301 0.455,0.535 0.461,0.894 -0.736,0.186 -1.681,0.028 -2.443,0.028 h -2.85 c -2.56,0 -5.017,-0.279 -7.527,-0.696 -0.333,-0.056 -0.652,-0.039 -0.99,-0.043 -0.345,-0.004 -0.531,-0.1 -0.848,-0.168 -0.513,-0.11 -1.142,0.066 -1.619,-0.232 -0.415,-0.261 -0.473,-1.205 -0.605,-1.628 -0.062,-0.197 -0.242,-0.426 -0.289,-0.596 -0.092,-0.331 -0.043,-0.718 0.525,-1.803 h 6.619 3.221 c 0.875,0 1.995,-0.177 2.848,0.041 m 5.118,8.261 c 0.433,-0.002 1.404,-0.179 1.78,0.009 0.337,0.167 0.235,0.54 0.294,0.829 0.042,0.209 0.143,0.386 0.241,0.589 0.277,0.578 0.407,1.266 0.562,1.896 0.139,0.56 0.433,1.054 0.508,1.632 -2.64,0.502 -5.591,0.212 -8.309,0.212 h -7.989 c -0.893,0 -1.776,0.056 -2.621,-0.144 -0.341,-0.081 -0.488,0.045 -0.576,-0.308 -0.063,-0.253 0.005,-0.668 0.008,-0.931 0.007,-0.603 -0.285,-0.982 -0.389,-1.569 -0.058,-0.337 -0.048,-0.592 -0.137,-0.922 -0.079,-0.3 -0.042,-0.614 0.526,-1.661 3.123,0 6.246,-10e-4 9.368,0 1.445,0 2.847,0.183 4.294,0.184 0.846,10e-4 1.606,0.189 2.44,0.184 m 4.734,7.935 c 0.375,0 1.195,-0.158 1.524,-0.013 0.323,0.142 0.175,1.037 0.269,1.389 0.073,0.273 0.186,0.562 0.243,0.838 0.065,0.31 -0.012,0.627 0.081,0.927 0.193,0.634 0.771,0.839 1.107,1.364 0.127,0.199 0.193,0.226 0.189,0.476 -0.006,0.371 -0.041,0.336 -0.383,0.374 -0.613,0.068 -1.288,-0.004 -1.904,-0.004 h -9.047 c -1.387,0 -2.757,0.061 -4.123,-0.143 -1.127,-0.17 -2.265,-0.237 -3.411,-0.224 -0.442,0.005 -0.739,-0.141 -1.162,-0.196 -0.408,-0.053 -0.886,0.01 -1.297,0.01 -0.274,0 -0.572,0.034 -0.842,0.004 -0.459,-0.052 -0.289,-0.064 -0.393,-0.464 -0.296,-1.139 -1.097,-2.218 -0.74,-4.154 4.909,0 9.82,-0.01 14.728,0 1.105,0.003 2.178,-0.194 3.276,-0.183 0.629,0.006 1.257,-0.001 1.885,-0.001 m 36.033,8.665 c -0.229,-1.103 -0.733,-2.066 -0.519,-3.335 0.208,-1.238 -0.588,-2.442 -1.335,-3.529 v 0.734 c -0.085,0.006 -0.17,0.012 -0.256,0.018 -0.037,-0.593 -0.187,-1.204 -0.09,-1.774 0.319,-1.872 0.754,-3.724 1.085,-5.595 0.093,-0.524 0.07,-1.107 -0.055,-1.626 -0.414,-1.722 -0.882,-3.432 -1.362,-5.137 -0.399,-1.413 -0.799,-2.828 -1.285,-4.212 -0.29,-0.828 -0.724,-1.61 -1.138,-2.389 -0.168,-0.317 -0.462,-0.566 -0.68,-0.86 -0.094,-0.126 -0.157,-0.282 -0.211,-0.433 -0.314,-0.876 0.397,-1.786 -0.099,-2.672 -0.167,-0.298 -0.257,-0.658 -0.302,-1 -0.129,-0.98 -0.211,-1.964 -0.324,-2.946 -0.02,-0.166 -0.066,-0.35 -0.16,-0.482 -0.538,-0.751 -1.106,-1.482 -1.634,-2.241 -0.092,-0.132 -0.043,-0.362 -0.066,-0.619 -1.222,-1.099 -1.777,-2.828 -3.065,-4.071 -1.158,-1.118 -1.893,-2.676 -2.818,-4.037 -0.611,-0.896 -1.246,-1.774 -1.839,-2.68 -0.518,-0.789 -1.362,-1.319 -1.444,-2.467 -0.044,-0.62 -0.713,-1.275 -1.239,-1.766 -1.053,-0.984 -2.201,-1.865 -3.312,-2.79 -0.02,0.167 -0.042,0.358 -0.066,0.549 -0.068,0.028 -0.136,0.056 -0.205,0.085 -0.439,-0.65 -0.873,-1.303 -1.319,-1.947 -0.29,-0.42 -0.601,-0.825 -0.901,-1.238 -0.222,-0.305 -0.451,-0.606 -0.663,-0.918 -0.355,-0.527 -0.694,-1.065 -1.052,-1.59 -0.123,-0.179 -0.297,-0.322 -0.428,-0.495 -0.531,-0.701 -1.029,-1.429 -1.6,-2.096 -0.145,-0.17 -0.507,-0.18 -0.775,-0.215 -0.389,-0.051 -0.804,0.01 -1.173,-0.097 -1.556,-0.452 -3.114,-0.903 -4.637,-1.453 -0.616,-0.223 -1.222,-0.614 -1.695,-1.071 -1.451,-1.399 -3.261,-2.344 -4.621,-3.886 -0.719,-0.814 -1.881,-1.262 -2.887,-1.789 -1.12,-0.587 -2.285,-1.087 -3.44,-1.604 -0.629,-0.281 -1.259,-0.652 -1.922,-0.748 -1.3,-0.189 -2.626,-0.189 -3.937,-0.314 -1.512,-0.144 -3.081,-0.024 -4.48,-0.794 -1.502,-0.826 -3.141,-0.672 -4.756,-0.696 -0.114,-0.001 -0.263,0.02 -0.338,0.091 -0.722,0.676 -1.549,0.387 -2.345,0.239 -0.121,-0.022 -0.19,-0.322 -0.322,-0.564 -0.368,-0.05 -0.841,-0.162 -1.315,-0.169 -1.007,-0.016 -2.015,0.023 -3.023,0.038 -1.049,0.015 -2.103,0.102 -3.143,0.019 -0.979,-0.077 -1.944,-0.335 -2.914,-0.516 -0.017,-0.003 -0.027,-0.057 -0.043,-0.058 -0.395,-0.038 -0.833,-0.199 -1.177,-0.082 -0.907,0.308 -1.815,0.666 -2.64,1.148 -0.428,0.251 -1.125,0.384 -1.109,1.146 0.003,0.106 -0.178,0.248 -0.304,0.319 -0.501,0.28 -1.015,0.539 -1.524,0.806 0.004,-0.079 0.009,-0.159 0.013,-0.239 -0.147,-0.032 -0.305,-0.116 -0.44,-0.088 -0.739,0.153 -1.467,0.362 -2.209,0.491 -0.296,0.051 -0.631,-0.124 -0.928,-0.074 -1.155,0.195 -2.302,0.439 -3.453,0.662 -1.413,0.273 -2.826,0.541 -4.238,0.818 -0.197,0.038 -0.398,0.18 -0.579,0.154 -1.298,-0.187 -2.403,0.519 -3.604,0.769 -0.213,0.043 -0.378,0.319 -0.565,0.487 0.037,0.034 0.075,0.067 0.113,0.1 l 1.097,-0.354 c 0.027,0.07 0.053,0.141 0.079,0.212 -0.764,0.516 -1.528,1.033 -2.292,1.55 -0.035,-0.107 -0.07,-0.214 -0.106,-0.321 -0.27,0.02 -0.588,-0.046 -0.801,0.075 -0.66,0.373 -1.281,0.815 -1.915,1.234 -1.029,0.682 -2.012,1.449 -3.097,2.023 -0.783,0.413 -1.752,0.465 -2.546,0.862 -1.874,0.938 -3.741,1.914 -4.967,3.738 -0.446,0.665 -0.961,1.284 -1.551,2.066 -0.135,-0.275 -0.207,-0.421 -0.257,-0.524 -1.417,1.196 -1.928,2.856 -2.811,4.282 -0.804,1.297 -1.632,2.627 -2.692,3.703 -1.288,1.307 -2.857,2.332 -4.253,3.538 -1.382,1.193 -1.639,2.935 -2.062,4.581 -0.171,0.668 -0.322,1.341 -0.483,2.012 -0.08,-0.018 -0.16,-0.036 -0.239,-0.054 0.023,-0.199 0.046,-0.398 0.069,-0.598 -0.333,0.324 -0.458,0.73 -0.675,1.078 -0.46,0.737 -0.964,1.448 -1.46,2.162 -0.128,0.185 -0.317,0.329 -0.443,0.515 -0.777,1.153 -1.552,2.308 -2.307,3.476 -0.132,0.205 -0.181,0.47 -0.24,0.714 -0.309,1.305 -0.569,2.624 -0.924,3.917 -0.327,1.191 -0.751,2.356 -1.132,3.532 l -0.189,-0.053 c -0.039,-0.119 -0.077,-0.238 -0.098,-0.304 -0.141,0.743 -0.342,1.499 -0.417,2.267 -0.095,0.982 -0.053,1.978 -0.14,2.961 -0.09,1.012 0.113,2.058 -0.435,3.023 -0.308,0.541 -0.576,1.147 -0.677,1.754 -0.442,2.642 -0.777,5.29 -2.155,7.687 -0.995,1.728 -1.071,3.688 -0.728,5.594 0.562,3.111 1.11,6.237 2.339,9.182 0.073,0.173 0.267,0.291 0.375,0.454 0.411,0.625 0.811,1.26 1.215,1.889 -0.046,0.035 -0.091,0.068 -0.137,0.101 -0.148,-0.067 -0.297,-0.136 -0.446,-0.203 0.681,0.902 0.805,2.021 0.488,2.863 -0.355,0.946 -0.322,1.672 0.088,2.491 0.042,-0.074 0.084,-0.149 0.223,-0.397 0.066,0.722 0.117,1.268 0.166,1.812 0.052,0.581 0.063,1.167 0.162,1.74 0.563,3.233 1.854,6.232 2.98,9.289 1.13,3.066 3.182,5.592 4.814,8.356 0.861,1.46 2.042,2.789 3.479,3.843 1.612,1.184 3.245,2.32 4.373,4.107 0.794,1.257 2.03,2.25 3.137,3.288 1.757,1.649 3.534,3.281 5.369,4.84 2.852,2.423 5.635,4.989 9.52,5.691 0.26,0.048 0.537,0.007 0.798,0.052 0.913,0.158 1.881,0.196 2.717,0.545 0.855,0.359 1.574,1.038 2.365,1.556 0.13,0.086 0.325,0.073 0.491,0.102 0.257,0.044 0.574,0.002 0.764,0.138 1.534,1.098 3.137,2.024 4.987,2.52 1.317,0.353 2.594,0.857 3.881,1.317 0.425,0.153 0.82,0.534 1.235,0.544 1.588,0.037 3,0.75 4.514,1.06 2.229,0.456 4.441,1.063 6.613,-0.239 0.235,-0.14 0.622,-0.062 0.934,-0.031 0.313,0.03 0.631,0.219 0.928,0.183 2.926,-0.359 5.848,-0.753 8.772,-1.128 1.473,-0.189 2.949,-0.352 4.422,-0.537 1.166,-0.148 2.337,-0.271 3.492,-0.478 1.452,-0.26 2.891,-0.596 4.336,-0.896 0.072,-0.016 0.152,0.007 0.227,-0.006 0.678,-0.109 1.44,-0.064 2.018,-0.366 1.737,-0.908 3.404,-1.949 5.095,-2.944 0.516,-0.303 0.957,-0.891 1.667,-0.361 0.068,0.051 0.284,-0.063 0.415,-0.131 1.753,-0.898 3.648,-1.346 5.569,-1.643 1.36,-0.212 1.949,-1.274 2.726,-2.152 0.076,-0.086 0.031,-0.279 0.052,-0.534 -0.276,0.241 -0.47,0.412 -0.664,0.583 -0.058,-0.036 -0.116,-0.071 -0.173,-0.107 0.205,-0.345 0.338,-0.775 0.627,-1.017 1.199,-1.003 2.376,-2.033 3.559,-3.044 1.749,-1.495 3.098,-3.441 5.205,-4.551 0.804,-0.424 1.417,-1.208 2.13,-1.812 0.143,-0.122 0.341,-0.186 0.523,-0.255 1.615,-0.614 3.155,-1.303 3.921,-3.036 0.654,-1.482 1.317,-2.966 2.082,-4.393 0.372,-0.693 0.921,-1.323 1.498,-1.87 2.312,-2.196 4.775,-4.244 6.249,-7.183 0.508,-1.015 1.203,-1.936 1.796,-2.911 0.183,-0.299 0.338,-0.622 0.46,-0.951 0.52,-1.4 1.083,-2.789 1.513,-4.217 0.399,-1.326 0.668,-2.693 0.957,-4.05 0.215,-1.009 0.307,-2.047 0.568,-3.041 0.352,-1.344 1.039,-2.639 1.166,-3.994 0.128,-1.386 0.422,-2.71 0.735,-4.045 0.128,-0.549 0.429,-1.139 0.324,-1.642"
               style="fill:#231f20;fill-opacity:1;fill-rule:nonzero;stroke:none"
               id="path399" />
          </g>
        </g>
      </g>
    </g>
  </g>
</svg>
