<?xml version="1.0" encoding="UTF-8" standalone="no"?>
<!-- Created with Inkscape (http://www.inkscape.org/) -->

<svg
   width="24.059315"
   height="24"
   viewBox="0 0 6.3656935 6.35"
   version="1.1"
   id="svg5404"
   inkscape:version="1.2.1 (9c6d41e4, 2022-07-14)"
   sodipodi:docname="return-to-pillars-of-judgement.svg"
   xmlns:inkscape="http://www.inkscape.org/namespaces/inkscape"
   xmlns:sodipodi="http://sodipodi.sourceforge.net/DTD/sodipodi-0.dtd"
   xmlns="http://www.w3.org/2000/svg"
   xmlns:svg="http://www.w3.org/2000/svg">
  <sodipodi:namedview
     id="namedview5406"
     pagecolor="#505050"
     bordercolor="#eeeeee"
     borderopacity="1"
     inkscape:showpageshadow="0"
     inkscape:pageopacity="0"
     inkscape:pagecheckerboard="0"
     inkscape:deskcolor="#505050"
     inkscape:document-units="mm"
     showgrid="false"
     inkscape:zoom="0.7046647"
     inkscape:cx="25.544064"
     inkscape:cy="97.209353"
     inkscape:window-width="1390"
     inkscape:window-height="941"
     inkscape:window-x="0"
     inkscape:window-y="25"
     inkscape:window-maximized="0"
     inkscape:current-layer="layer1" />
  <defs
     id="defs5401">
    <clipPath
       clipPathUnits="userSpaceOnUse"
       id="clipPath429">
      <path
         d="m 150.565,414.29 h 22.058 v 21.883 h -22.058 z"
         id="path427" />
    </clipPath>
  </defs>
  <g
     inkscape:label="Layer 1"
     inkscape:groupmode="layer"
     id="layer1"
     transform="translate(-98.195155,-122.9843)">
    <g
       id="g423"
       transform="matrix(0.29716526,0,0,-0.29716526,53.357643,252.52328)">
      <g
         id="g425"
         clip-path="url(#clipPath429)">
        <g
           id="g431"
           transform="matrix(0.1531793,0,0,-0.1519643,161.59476,425.14386)">
          <g
             id="g433"
             transform="translate(18.5215,0.5777)">
            <path
               d="m 0,0 c -0.103,-0.141 -0.228,-0.312 -0.329,-0.53 -3.017,1.359 -6.315,2.055 -8.567,2.465 -1.672,0.304 -3.417,0.476 -5.439,0.536 -0.037,0.877 -0.163,1.658 -0.39,2.414 -0.531,1.777 -1.325,3.299 -2.41,4.613 l 0.046,0.051 c 0.36,0.393 0.325,0.818 0.309,1.021 0,0.003 0,0.005 -10e-4,0.007 0.114,0.096 0.18,0.151 0.251,0.222 0.095,0.096 0.324,0.237 0.525,0.362 0.248,0.154 0.506,0.315 0.719,0.5 0.246,0.214 0.507,0.473 0.776,0.742 0.54,0.541 1.153,1.154 1.678,1.358 0.561,0.217 1.771,0.19 2.48,0.023 0.153,-0.037 0.33,-0.124 0.516,-0.216 0.274,-0.135 0.585,-0.289 0.961,-0.36 0.517,-0.101 0.961,-0.208 1.445,-0.403 2.022,-0.82 3.479,-2.147 5.173,-4.021 0.688,-0.761 1.204,-1.766 1.704,-2.74 l 0.39,-0.742 C 0.197,4.635 0.646,3.804 0.669,3.239 0.712,2.235 0.531,1.134 0.187,0.293 0.15,0.207 0.081,0.111 0,0"
               style="fill:#231f20;fill-opacity:1;fill-rule:nonzero;stroke:none"
               id="path435" />
          </g>
        </g>
        <g
           id="g437"
           transform="matrix(0.1531793,0,0,-0.1519643,161.59476,425.14386)">
          <g
             id="g439"
             transform="translate(4.8018,-1.0697)">
            <path
               d="m 0,0 c 4.001,-0.135 8.481,-1.416 11.453,-4.224 -2.024,-2.094 -5.046,-2.94 -7.872,-3.053 -1.365,-0.055 -2.919,0.173 -4.25,0.526 -0.929,0.247 -1.758,0.721 -2.547,1.27 0.611,1.026 1.307,2.333 1.382,3.49 0.044,0.684 0.124,1.359 0.209,2.03 C -1.084,0.04 -0.54,0.018 0,0"
               style="fill:#231f20;fill-opacity:1;fill-rule:nonzero;stroke:none"
               id="path441" />
          </g>
        </g>
        <g
           id="g443"
           transform="matrix(0.1531793,0,0,-0.1519643,161.59476,425.14386)">
          <g
             id="g445"
             transform="translate(5.0234,-30.4931)">
            <path
               d="M 0,0 C -0.479,-0.003 -0.948,-0.005 -1.399,0.012 -1.664,0.022 -1.93,0.04 -2.196,0.057 -2.812,0.098 -3.439,0.139 -4.069,0.095 l 0.435,0.199 c 0.71,0.324 1.279,0.626 1.658,0.951 0.189,-0.537 0.814,-0.721 1.134,-0.815 L -0.744,0.401 C -0.145,0.215 0.377,0.054 0.997,-0.001 0.661,0.002 0.328,0.001 0,0"
               style="fill:#231f20;fill-opacity:1;fill-rule:nonzero;stroke:none"
               id="path447" />
          </g>
        </g>
        <g
           id="g449"
           transform="matrix(0.1531793,0,0,-0.1519643,161.59476,425.14386)">
          <g
             id="g451"
             transform="translate(-0.8169,-30.328)">
            <path
               d="M 0,0 C 0.32,0.024 0.651,0.05 0.978,0.131 1.1,0.161 1.228,0.208 1.356,0.258 L 1.518,-0.093 C 1.128,-0.136 0.738,-0.216 0.349,-0.354 0.006,-0.475 -0.34,-0.563 -0.684,-0.652 c -0.503,-0.13 -1.024,-0.264 -1.547,-0.491 -1.44,-0.624 -2.739,-1.599 -3.564,-2.675 -0.137,-0.178 -0.33,-0.34 -0.536,-0.513 -0.222,-0.186 -0.474,-0.398 -0.691,-0.664 -0.292,-0.358 -0.42,-0.69 -0.533,-0.984 -0.041,-0.106 -0.084,-0.218 -0.139,-0.34 -0.347,-0.759 -0.534,-1.342 -0.528,-2.244 0.005,-0.757 0.124,-1.477 0.24,-2.082 0.166,-0.861 0.441,-1.447 0.843,-1.792 l 0.974,-0.834 0.206,1.267 c 0.084,0.526 -0.177,0.861 -0.303,1.023 -0.002,0.002 -0.003,0.003 -0.004,0.005 0.043,0.143 0.068,0.226 0.089,0.325 0.026,0.129 0.138,0.372 0.238,0.587 0.124,0.266 0.252,0.542 0.329,0.814 0.088,0.314 0.163,0.673 0.24,1.045 0.156,0.749 0.332,1.598 0.661,2.056 0.349,0.489 1.376,1.131 2.062,1.379 0.148,0.055 0.343,0.079 0.55,0.103 0.303,0.038 0.646,0.08 0.998,0.225 0.487,0.2 0.916,0.355 1.43,0.456 2.143,0.423 4.089,0.114 6.532,-0.525 0.99,-0.258 1.97,-0.814 2.918,-1.351 l 0.746,-0.414 c 0.666,-0.361 1.495,-0.809 1.824,-1.267 0.578,-0.804 1.041,-1.849 1.21,-2.726 0.018,-0.094 0.012,-0.212 0.006,-0.35 -0.011,-0.204 -0.023,-0.458 0.037,-0.747 0.061,-0.293 0.175,-0.553 0.275,-0.783 0.08,-0.184 0.157,-0.357 0.186,-0.505 0.192,-0.937 0.287,-2.073 0.247,-2.965 -0.161,-3.631 -3.043,-6.217 -4.747,-7.436 -0.965,-0.689 -2.296,-1.343 -3.65,-1.793 -0.701,-0.233 -1.434,-0.305 -2.197,-0.305 -0.607,0 -1.233,0.046 -1.875,0.092 l -0.264,0.02 c -4.885,0.35 -9.194,2.29 -11.526,5.189 -0.231,0.288 -0.473,0.553 -0.713,0.814 -0.484,0.528 -0.94,1.026 -1.234,1.677 -0.216,0.48 -0.366,1.021 -0.525,1.594 -0.089,0.324 -0.179,0.645 -0.279,0.954 -0.472,1.451 -0.363,3.48 0.323,6.03 0.494,1.835 1.598,2.921 3.103,4.254 l 0.397,0.354 c 0.917,0.822 1.866,1.673 2.912,2.124 L -5.5,-1.85 c 1.528,0.663 3.26,1.415 4.787,1.764 C -0.489,-0.035 -0.245,-0.019 0,0"
               style="fill:#231f20;fill-opacity:1;fill-rule:nonzero;stroke:none"
               id="path453" />
          </g>
        </g>
        <g
           id="g455"
           transform="matrix(0.1531793,0,0,-0.1519643,161.59476,425.14386)">
          <g
             id="g457"
             transform="translate(-24.5474,7.8385)">
            <path
               d="M 0,0 C 0.297,-0.129 0.571,-0.09 0.809,0.018 0.722,-0.122 0.633,-0.262 0.543,-0.402 0.21,-0.924 -0.129,-1.456 -0.394,-2.033 l 0.036,0.477 c 0.054,0.746 0.064,1.369 -0.026,1.85 C -0.281,0.166 -0.154,0.067 0,0"
               style="fill:#231f20;fill-opacity:1;fill-rule:nonzero;stroke:none"
               id="path459" />
          </g>
        </g>
        <g
           id="g461"
           transform="matrix(0.1531793,0,0,-0.1519643,161.59476,425.14386)">
          <g
             id="g463"
             transform="translate(-24.2227,13.3805)">
            <path
               d="m 0,0 c -0.054,-0.222 -0.148,-0.448 -0.241,-0.676 -0.12,-0.298 -0.245,-0.606 -0.319,-0.935 -0.027,-0.122 -0.043,-0.258 -0.056,-0.397 l -0.386,0.011 c 0.136,0.369 0.238,0.755 0.289,1.165 0.044,0.362 0.119,0.711 0.193,1.06 0.109,0.507 0.221,1.032 0.251,1.601 0.084,1.567 -0.21,3.166 -0.805,4.384 -0.099,0.202 -0.158,0.448 -0.22,0.708 -0.068,0.282 -0.145,0.6 -0.286,0.913 -0.19,0.421 -0.429,0.683 -0.641,0.914 -0.077,0.085 -0.159,0.173 -0.243,0.277 -0.526,0.65 -0.965,1.078 -1.773,1.474 -0.681,0.334 -1.379,0.549 -1.971,0.715 -0.858,0.237 -1.486,0.254 -1.98,0.046 l -1.186,-0.499 1.045,-0.75 c 0.434,-0.312 0.851,-0.227 1.052,-0.187 0.003,10e-4 0.005,10e-4 0.006,0.002 C -7.163,9.724 -7.099,9.664 -7.019,9.601 -6.916,9.52 -6.747,9.31 -6.598,9.123 -6.416,8.896 -6.228,8.659 -6.02,8.47 -5.777,8.249 -5.489,8.021 -5.19,7.787 -4.589,7.313 -3.908,6.777 -3.644,6.279 -3.363,5.749 -3.246,4.542 -3.329,3.818 -3.347,3.664 -3.412,3.479 -3.482,3.282 -3.584,2.994 -3.7,2.667 -3.727,2.285 -3.765,1.761 -3.818,1.308 -3.956,0.803 -4.531,-1.303 -5.677,-2.905 -7.338,-4.809 -8.014,-5.583 -8.955,-6.216 -9.864,-6.827 l -0.684,-0.471 c -0.62,-0.436 -1.393,-0.98 -1.951,-1.07 -0.377,-0.062 -0.778,-0.092 -1.179,-0.092 -0.638,0 -1.273,0.076 -1.803,0.224 -0.092,0.025 -0.19,0.081 -0.314,0.15 -0.179,0.101 -0.401,0.225 -0.687,0.3 -0.289,0.076 -0.574,0.091 -0.826,0.102 -0.199,0.01 -0.387,0.02 -0.532,0.059 -0.924,0.247 -1.983,0.67 -2.763,1.103 -3.178,1.761 -4.208,5.495 -4.539,7.563 -0.187,1.166 -0.179,2.648 0.022,4.069 0.186,1.311 0.885,2.489 1.625,3.736 l 0.135,0.229 c 2.493,4.218 6.152,7.21 9.786,8.003 0.36,0.078 0.703,0.177 1.043,0.275 0.689,0.197 1.341,0.384 2.055,0.357 0.527,-0.02 1.081,-0.128 1.667,-0.242 0.327,-0.064 0.651,-0.127 0.971,-0.175 1.511,-0.225 3.278,-1.227 5.254,-2.978 1.423,-1.26 1.902,-2.732 2.424,-4.673 L -0.019,9.124 C 0.308,7.937 0.645,6.711 0.583,5.575 L 0.555,5.062 C 0.467,3.401 0.367,1.52 0,0"
               style="fill:#231f20;fill-opacity:1;fill-rule:nonzero;stroke:none"
               id="path465" />
          </g>
        </g>
        <g
           id="g467"
           transform="matrix(0.1531793,0,0,-0.1519643,161.59476,425.14386)">
          <g
             id="g469"
             transform="translate(-12.1621,-9.7743)">
            <path
               d="m 0,0 c 0.009,-0.231 0.018,-0.46 0.018,-0.685 0,-0.229 -0.006,-0.46 -0.012,-0.692 -0.017,-0.702 -0.035,-1.427 0.093,-2.15 L 0.165,-3.9 c -0.42,-0.131 -0.825,-0.23 -1.226,-0.301 -0.363,-0.065 -0.71,-0.15 -1.054,-0.234 -0.696,-0.171 -1.353,-0.332 -2.066,-0.277 -0.525,0.041 -1.073,0.17 -1.652,0.306 -0.326,0.077 -0.649,0.153 -0.968,0.213 -1.502,0.284 -3.229,1.355 -5.134,3.181 -1.373,1.317 -1.794,2.805 -2.24,4.765 l -0.12,0.521 c -0.281,1.199 -0.57,2.438 -0.463,3.572 l 0.048,0.511 c 0.152,1.656 0.325,3.533 0.752,5.036 0.062,0.219 0.165,0.44 0.266,0.663 0.133,0.295 0.271,0.6 0.357,0.926 0.031,0.122 0.051,0.255 0.069,0.391 l 0.385,-0.029 c -0.149,-0.361 -0.266,-0.741 -0.332,-1.147 -0.058,-0.359 -0.147,-0.703 -0.234,-1.047 -0.128,-0.505 -0.261,-1.026 -0.314,-1.596 -0.145,-1.563 0.086,-3.17 0.634,-4.411 0.091,-0.207 0.141,-0.456 0.193,-0.719 0.057,-0.283 0.121,-0.604 0.248,-0.921 0.174,-0.428 0.404,-0.7 0.607,-0.94 0.074,-0.087 0.152,-0.179 0.232,-0.286 0.5,-0.67 0.922,-1.114 1.715,-1.541 0.667,-0.36 1.355,-0.601 1.941,-0.79 0.848,-0.272 1.475,-0.311 1.977,-0.122 l 1.2,0.453 -1.012,0.789 c -0.421,0.328 -0.841,0.26 -1.043,0.227 -0.003,-0.001 -0.004,-0.001 -0.006,-0.001 -0.106,0.106 -0.166,0.167 -0.243,0.233 -0.1,0.085 -0.26,0.301 -0.401,0.492 -0.174,0.236 -0.354,0.481 -0.555,0.679 -0.234,0.229 -0.514,0.469 -0.805,0.716 -0.581,0.496 -1.239,1.057 -1.484,1.565 -0.26,0.541 -0.33,1.751 -0.218,2.471 0.024,0.154 0.097,0.336 0.174,0.53 0.113,0.283 0.242,0.605 0.284,0.985 0.058,0.526 0.13,0.977 0.287,1.472 0.656,2.082 1.863,3.639 3.598,5.477 0.705,0.746 1.667,1.34 2.597,1.916 l 0.704,0.444 c 0.605,0.392 1.433,0.927 1.994,0.995 0.548,0.067 1.156,0.064 1.741,-0.003 C 0.592,21.25 0.586,21.236 0.582,21.222 0.463,20.912 0.397,20.586 0.333,20.273 0.29,20.063 0.249,19.853 0.188,19.664 L 0.054,19.257 c -0.105,-0.315 -0.211,-0.632 -0.3,-0.965 L -0.392,17.783 C -0.649,16.901 -0.916,15.988 -0.721,14.859 -0.537,13.795 -0.119,12.694 0.556,11.49 1.241,10.269 2.083,9.037 3.123,7.737 1.57,6.004 0.58,4.121 0.098,1.984 -0.052,1.32 -0.025,0.649 0,0"
               style="fill:#231f20;fill-opacity:1;fill-rule:nonzero;stroke:none"
               id="path471" />
          </g>
        </g>
        <g
           id="g473"
           transform="matrix(0.1531793,0,0,-0.1519643,161.59476,425.14386)">
          <g
             id="g475"
             transform="translate(-25.5791,9.1431)">
            <path
               d="m 0,0 c -0.287,0.137 -0.558,0.112 -0.796,0.02 0.061,0.105 0.123,0.211 0.185,0.317 0.316,0.541 0.638,1.092 0.881,1.685 L 0.247,1.527 C 0.223,0.812 0.235,0.212 0.331,-0.257 0.24,-0.149 0.131,-0.063 0,0"
               style="fill:#231f20;fill-opacity:1;fill-rule:nonzero;stroke:none"
               id="path477" />
          </g>
        </g>
        <g
           id="g479"
           transform="matrix(0.1531793,0,0,-0.1519643,161.59476,425.14386)">
          <g
             id="g481"
             transform="translate(2.4277,-27.1396)">
            <path
               d="m 0,0 -0.096,0.032 c -0.309,0.11 -0.599,0.212 -0.895,0.296 0.009,0.001 0.018,0.001 0.027,0.001 0.754,0.034 1.469,0.047 2.189,0.026 0.279,-0.007 0.56,-0.016 0.843,-0.016 0.345,0 0.692,0.012 1.038,0.051 L 2.678,0.173 C 2,-0.167 1.455,-0.482 1.089,-0.811 0.9,-0.301 0.309,-0.103 0,0"
               style="fill:#231f20;fill-opacity:1;fill-rule:nonzero;stroke:none"
               id="path483" />
          </g>
        </g>
        <g
           id="g485"
           transform="matrix(0.1531793,0,0,-0.1519643,161.59476,425.14386)">
          <g
             id="g487"
             transform="translate(-2.9219,-7.3383)">
            <path
               d="m 0,0 c -1.398,-2.021 -3.229,-3.942 -5.342,-5.336 -0.028,0.342 -0.047,0.679 -0.045,0.99 0.016,2.543 1.272,4.79 2.97,6.579 C -1.636,1.432 -0.833,0.698 0,0"
               style="fill:#231f20;fill-opacity:1;fill-rule:nonzero;stroke:none"
               id="path489" />
          </g>
        </g>
        <g
           id="g491"
           transform="matrix(0.1531793,0,0,-0.1519643,161.59476,425.14386)">
          <g
             id="g493"
             transform="translate(48.124,27.9273)">
            <path
               d="m 0,0 c -0.143,1.068 -0.519,2.186 -1.147,3.416 -1.573,3.068 -3.874,5.768 -5.468,7.531 -1.406,1.559 -2.965,2.98 -5.051,4.605 -1.156,0.9 -2.518,1.854 -3.85,2.098 -0.751,0.138 -1.505,0.326 -2.235,0.506 -1.482,0.368 -3.002,0.746 -4.616,0.746 -0.537,0 -1.085,-0.042 -1.646,-0.14 -2.361,-0.413 -4.347,-1.31 -6.072,-2.741 -0.525,-0.435 -0.914,-0.985 -1.291,-1.515 -0.133,-0.189 -0.265,-0.374 -0.4,-0.551 -0.14,-0.182 -0.287,-0.361 -0.433,-0.542 -0.441,-0.545 -0.898,-1.108 -1.238,-1.758 l -0.122,-0.233 c -0.944,-1.797 -1.918,-3.656 -2.242,-5.824 -0.016,-0.108 -0.039,-0.163 -0.081,-0.264 -0.076,-0.183 -0.179,-0.432 -0.187,-0.879 -0.01,-0.534 -0.038,-0.956 -0.158,-1.534 -0.16,-0.765 -0.226,-1.4 -0.213,-2.056 0.027,-1.372 0.216,-2.409 0.573,-3.174 0.249,-0.53 0.666,-0.978 1.069,-1.413 0.24,-0.257 0.466,-0.501 0.626,-0.73 0.817,-1.168 2.033,-2.024 3.208,-2.85 0.39,-0.274 0.775,-0.545 1.132,-0.82 0.209,-0.161 0.414,-0.329 0.62,-0.497 0.479,-0.391 0.966,-0.789 1.507,-1.119 l -0.47,0.091 c -1.322,0.252 -2.264,0.317 -2.753,-0.137 -0.389,0.5 -0.769,0.945 -1.374,1.366 l -0.597,0.42 c -1.233,0.87 -2.507,1.769 -3.975,2.34 -0.375,0.145 -0.739,0.306 -1.105,0.469 -0.657,0.29 -1.336,0.589 -2.094,0.815 -1.201,0.36 -2.193,0.292 -3.338,0.215 -0.265,-0.02 -0.538,0.003 -0.814,0.023 -0.467,0.035 -0.998,0.073 -1.521,-0.045 -0.423,-0.094 -0.799,-0.246 -1.161,-0.392 -0.333,-0.135 -0.646,-0.261 -0.969,-0.332 -1.168,-0.258 -2.15,-0.792 -3.1,-1.308 -0.338,-0.183 -0.679,-0.369 -1.03,-0.543 -2.297,-1.137 -3.698,-3.248 -5.052,-5.29 l -0.259,-0.388 c -0.506,0.083 -0.985,0.131 -1.453,0.146 -0.109,0.003 -0.167,0.019 -0.272,0.05 -0.19,0.054 -0.448,0.127 -0.893,0.085 -0.534,-0.056 -0.957,-0.076 -1.544,-0.025 -0.788,0.072 -1.426,0.062 -2.068,-0.028 -1.359,-0.189 -2.368,-0.497 -3.084,-0.942 -0.496,-0.308 -0.894,-0.776 -1.279,-1.228 -0.038,-0.045 -0.077,-0.09 -0.115,-0.134 0.228,0.537 0.426,1.091 0.575,1.667 0.101,0.389 0.217,0.77 0.335,1.153 0.21,0.686 0.427,1.396 0.563,2.176 0.214,1.231 0.032,2.202 -0.179,3.327 l -0.003,0.012 c -0.048,0.26 -0.059,0.534 -0.071,0.81 -0.022,0.47 -0.047,1.004 -0.226,1.51 -0.143,0.407 -0.338,0.76 -0.526,1.103 -0.173,0.314 -0.336,0.611 -0.444,0.923 -0.394,1.13 -1.04,2.042 -1.664,2.924 -0.223,0.314 -0.447,0.631 -0.661,0.96 -1.401,2.148 -3.667,3.291 -5.859,4.396 l -0.792,0.403 c -0.641,0.33 -1.231,0.538 -1.855,0.758 l -0.216,0.076 c -0.216,0.078 -0.439,0.203 -0.675,0.335 -0.337,0.191 -0.72,0.407 -1.165,0.518 -0.325,0.082 -0.658,0.109 -0.979,0.137 -0.213,0.017 -0.424,0.034 -0.619,0.07 l -0.425,0.087 c -0.323,0.066 -0.645,0.133 -0.982,0.183 l -0.534,0.086 c -0.946,0.157 -1.84,0.303 -2.934,-0.02 -1.033,-0.308 -2.079,-0.853 -3.196,-1.666 -2.784,-2.028 -5.094,-4.722 -6.59,-6.57 -1.325,-1.64 -2.485,-3.401 -3.761,-5.708 -0.711,-1.283 -1.441,-2.776 -1.475,-4.13 -0.019,-0.764 -0.087,-1.539 -0.152,-2.29 -0.178,-2.027 -0.361,-4.123 0.375,-6.277 0.775,-2.265 1.97,-4.088 3.652,-5.571 0.514,-0.451 1.118,-0.751 1.702,-1.04 0.205,-0.103 0.409,-0.203 0.604,-0.31 0.201,-0.11 0.402,-0.226 0.604,-0.343 0.606,-0.351 1.233,-0.714 1.927,-0.95 l 0.262,-0.088 c 1.918,-0.65 3.884,-1.328 6.089,-1.303 0.125,-0.008 0.169,-0.014 0.275,-0.039 0.192,-0.046 0.455,-0.11 0.896,-0.048 0.53,0.073 0.952,0.109 1.54,0.083 0.781,-0.04 1.418,-0.006 2.064,0.108 1.347,0.24 2.342,0.586 3.045,1.061 0.121,0.082 0.236,0.174 0.346,0.272 -0.01,-0.031 -0.02,-0.063 -0.029,-0.095 -0.116,-0.382 -0.246,-0.755 -0.377,-1.13 -0.238,-0.681 -0.484,-1.384 -0.651,-2.162 -0.263,-1.228 -0.117,-2.208 0.051,-3.344 0.039,-0.26 0.039,-0.536 0.041,-0.813 0.003,-0.47 0.007,-1.003 0.165,-1.514 0.129,-0.413 0.309,-0.774 0.483,-1.124 0.161,-0.321 0.312,-0.624 0.409,-0.94 0.348,-1.144 0.958,-2.08 1.547,-2.985 0.21,-0.323 0.422,-0.648 0.624,-0.986 1.316,-2.203 3.535,-3.433 5.682,-4.622 l 0.776,-0.434 c 0.627,-0.354 1.207,-0.585 1.82,-0.83 l 0.216,-0.086 c 0.215,-0.085 0.433,-0.219 0.664,-0.361 0.329,-0.203 0.702,-0.433 1.142,-0.562 0.32,-0.093 0.649,-0.134 0.966,-0.173 0.214,-0.026 0.426,-0.051 0.62,-0.096 l 0.44,-0.106 c 0.315,-0.079 0.63,-0.156 0.959,-0.218 l 0.527,-0.106 c 0.938,-0.194 1.825,-0.378 2.936,-0.096 0.62,0.159 1.247,0.402 1.898,0.737 0.051,-0.187 0.13,-0.436 0.377,-0.768 0.319,-0.43 0.554,-0.783 0.81,-1.311 0.339,-0.701 0.673,-1.243 1.086,-1.758 0.857,-1.069 1.639,-1.777 2.392,-2.165 0.52,-0.268 1.124,-0.369 1.708,-0.467 0.347,-0.058 0.674,-0.113 0.941,-0.197 0.036,-0.011 0.071,-0.022 0.108,-0.032 -0.84,-0.014 -1.685,-0.08 -2.525,-0.259 -0.393,-0.083 -0.786,-0.148 -1.181,-0.214 -0.708,-0.118 -1.441,-0.24 -2.2,-0.467 -1.201,-0.359 -1.992,-0.957 -2.907,-1.651 -0.211,-0.16 -0.454,-0.292 -0.695,-0.426 -0.411,-0.23 -0.876,-0.489 -1.248,-0.873 -0.301,-0.311 -0.532,-0.644 -0.755,-0.966 -0.204,-0.294 -0.397,-0.572 -0.626,-0.807 -0.837,-0.858 -1.366,-1.843 -1.878,-2.797 -0.181,-0.338 -0.364,-0.679 -0.562,-1.017 -1.299,-2.212 -1.312,-4.749 -1.323,-7.203 l -0.007,-0.889 c -0.01,-0.728 0.068,-1.355 0.15,-2.019 l 0.025,-0.208 c 0.028,-0.228 0.015,-0.483 0.001,-0.753 -0.02,-0.387 -0.042,-0.825 0.057,-1.274 0.071,-0.325 0.194,-0.632 0.312,-0.93 0.08,-0.199 0.16,-0.398 0.214,-0.591 l 0.12,-0.443 c 0.082,-0.311 0.165,-0.622 0.267,-0.937 l 0.161,-0.515 c 0.281,-0.918 0.546,-1.784 1.329,-2.62 0.735,-0.788 1.688,-1.48 2.914,-2.117 3.053,-1.587 6.496,-2.454 8.82,-2.968 2.063,-0.456 4.156,-0.71 6.784,-0.822 1.47,-0.065 3.132,-0.051 4.356,0.523 0.69,0.322 1.414,0.607 2.114,0.882 1.894,0.746 3.853,1.517 5.454,3.136 1.683,1.705 2.781,3.587 3.357,5.754 0.176,0.66 0.175,1.334 0.174,1.985 0,0.23 -0.001,0.458 0.008,0.68 0.009,0.228 0.022,0.458 0.037,0.689 0.044,0.701 0.089,1.425 -0.01,2.153 l -0.035,0.257 c -0.273,2.012 -0.556,4.093 -1.551,6.048 -0.049,0.098 -0.063,0.157 -0.088,0.263 -0.043,0.193 -0.103,0.456 -0.356,0.824 -0.304,0.443 -0.525,0.805 -0.761,1.342 -0.315,0.719 -0.629,1.274 -1.018,1.799 -0.815,1.099 -1.569,1.836 -2.306,2.253 -0.511,0.287 -1.111,0.411 -1.692,0.532 -0.344,0.071 -0.669,0.138 -0.933,0.232 -0.825,0.293 -1.705,0.404 -2.594,0.443 l 0.561,0.003 c 1.51,0.006 3.071,0.012 4.598,0.398 0.39,0.099 0.781,0.179 1.172,0.259 0.703,0.145 1.431,0.295 2.18,0.55 1.182,0.402 1.946,1.027 2.831,1.75 0.217,0.177 0.453,0.318 0.689,0.461 0.402,0.246 0.858,0.523 1.215,0.922 0.288,0.322 0.506,0.662 0.717,0.992 0.194,0.302 0.376,0.587 0.598,0.832 0.802,0.888 1.293,1.892 1.767,2.864 0.169,0.345 0.339,0.693 0.525,1.039 1.213,2.258 1.13,4.791 1.049,7.242 l -0.028,0.895 c -0.017,0.729 -0.119,1.355 -0.227,2.016 l -0.032,0.202 c -0.037,0.226 -0.034,0.482 -0.03,0.752 0.005,0.388 0.011,0.826 -0.105,1.271 -0.084,0.322 -0.218,0.625 -0.347,0.918 -0.087,0.197 -0.174,0.392 -0.235,0.582 l -0.14,0.448 c -0.093,0.304 -0.187,0.61 -0.301,0.919 l -0.176,0.498 c -0.23,0.657 -0.449,1.283 -0.86,1.888 0.407,0.988 0.842,2.241 1,3.66 0.012,0.111 0.033,0.168 0.072,0.27 0.068,0.185 0.161,0.437 0.153,0.88 -0.012,0.537 10e-4,0.96 0.099,1.541 0.131,0.774 0.172,1.41 0.134,2.065 -0.077,1.364 -0.303,2.394 -0.693,3.148 -0.269,0.52 -0.702,0.952 -1.121,1.37 -0.249,0.249 -0.485,0.485 -0.654,0.707 -0.861,1.138 -2.107,1.946 -3.313,2.727 -0.4,0.259 -0.795,0.515 -1.163,0.776 -0.211,0.151 -0.421,0.31 -0.631,0.468 -0.496,0.375 -1.002,0.757 -1.558,1.067 l 0.476,-0.073 c 1.281,-0.195 2.203,-0.229 2.691,0.19 0.365,-0.507 0.725,-0.953 1.295,-1.384 l 0.588,-0.447 c 1.197,-0.914 2.434,-1.859 3.875,-2.484 0.372,-0.161 0.732,-0.337 1.093,-0.513 0.644,-0.313 1.31,-0.637 2.058,-0.891 1.189,-0.405 2.181,-0.376 3.326,-0.341 0.264,0.014 0.535,-0.025 0.808,-0.055 0.469,-0.051 1,-0.109 1.529,-0.012 0.424,0.079 0.804,0.216 1.173,0.348 0.336,0.121 0.655,0.237 0.979,0.294 1.18,0.215 2.183,0.712 3.153,1.193 0.343,0.17 0.689,0.34 1.046,0.501 2.34,1.048 3.821,3.108 5.252,5.099 l 0.523,0.724 c 0.426,0.582 0.725,1.135 1.042,1.719 l 0.106,0.196 c 0.11,0.204 0.269,0.404 0.438,0.617 0.239,0.303 0.511,0.647 0.69,1.068 0.131,0.307 0.21,0.631 0.286,0.944 0.051,0.208 0.1,0.414 0.167,0.6 l 0.15,0.403 c 0.116,0.31 0.233,0.621 0.336,0.949 l 0.166,0.509 C -0.135,-1.995 0.152,-1.135 0,0 m 21.777,-21.541 c -0.229,-1.103 -0.733,-2.066 -0.519,-3.335 0.208,-1.238 -0.588,-2.442 -1.335,-3.529 v 0.734 c -0.085,0.006 -0.17,0.012 -0.256,0.018 -0.037,-0.593 -0.187,-1.204 -0.09,-1.774 0.319,-1.872 0.754,-3.724 1.085,-5.594 0.093,-0.525 0.07,-1.108 -0.055,-1.626 -0.414,-1.723 -0.881,-3.433 -1.362,-5.138 -0.398,-1.413 -0.799,-2.828 -1.285,-4.212 -0.29,-0.828 -0.724,-1.609 -1.138,-2.389 -0.168,-0.317 -0.462,-0.566 -0.679,-0.86 -0.095,-0.126 -0.158,-0.282 -0.211,-0.433 -0.315,-0.876 0.396,-1.786 -0.1,-2.672 -0.167,-0.297 -0.257,-0.658 -0.302,-1 -0.129,-0.98 -0.211,-1.964 -0.324,-2.946 -0.019,-0.166 -0.065,-0.349 -0.16,-0.482 -0.538,-0.751 -1.106,-1.482 -1.634,-2.241 -0.092,-0.132 -0.043,-0.362 -0.065,-0.619 -1.223,-1.099 -1.778,-2.828 -3.066,-4.071 -1.158,-1.118 -1.892,-2.676 -2.818,-4.037 -0.61,-0.896 -1.246,-1.774 -1.839,-2.68 -0.518,-0.789 -1.361,-1.319 -1.443,-2.467 -0.045,-0.62 -0.714,-1.275 -1.24,-1.766 -1.052,-0.984 -2.201,-1.865 -3.312,-2.79 -0.02,0.167 -0.042,0.358 -0.066,0.549 -0.068,0.028 -0.136,0.056 -0.205,0.085 -0.439,-0.65 -0.873,-1.303 -1.319,-1.947 -0.29,-0.42 -0.601,-0.825 -0.9,-1.238 -0.223,-0.305 -0.452,-0.606 -0.663,-0.918 -0.356,-0.527 -0.695,-1.065 -1.053,-1.59 -0.123,-0.179 -0.297,-0.322 -0.428,-0.495 -0.531,-0.701 -1.029,-1.429 -1.599,-2.096 -0.146,-0.17 -0.507,-0.18 -0.776,-0.215 -0.389,-0.051 -0.804,0.01 -1.173,-0.097 -1.555,-0.452 -3.114,-0.903 -4.636,-1.453 -0.617,-0.223 -1.223,-0.614 -1.696,-1.071 -1.451,-1.399 -3.261,-2.344 -4.621,-3.886 -0.719,-0.814 -1.881,-1.261 -2.887,-1.789 -1.12,-0.587 -2.285,-1.087 -3.44,-1.604 -0.629,-0.281 -1.259,-0.652 -1.922,-0.748 -1.3,-0.189 -2.626,-0.189 -3.936,-0.314 -1.513,-0.144 -3.081,-0.024 -4.481,-0.794 -1.502,-0.825 -3.141,-0.672 -4.756,-0.696 -0.114,-0.001 -0.262,0.02 -0.338,0.091 -0.722,0.676 -1.548,0.387 -2.344,0.239 -0.121,-0.022 -0.191,-0.322 -0.323,-0.564 -0.368,-0.05 -0.84,-0.162 -1.315,-0.169 -1.007,-0.016 -2.015,0.024 -3.023,0.038 -1.048,0.015 -2.103,0.102 -3.143,0.019 -0.979,-0.077 -1.943,-0.335 -2.914,-0.516 -0.017,-0.003 -0.027,-0.057 -0.043,-0.058 -0.395,-0.038 -0.833,-0.199 -1.176,-0.082 -0.908,0.309 -1.816,0.666 -2.641,1.148 -0.428,0.251 -1.125,0.384 -1.108,1.146 0.002,0.106 -0.179,0.248 -0.305,0.319 -0.501,0.28 -1.015,0.539 -1.524,0.806 0.004,-0.079 0.009,-0.159 0.014,-0.239 -0.148,-0.032 -0.306,-0.116 -0.441,-0.088 -0.739,0.154 -1.467,0.362 -2.209,0.491 -0.296,0.051 -0.631,-0.124 -0.927,-0.074 -1.156,0.195 -2.303,0.439 -3.454,0.662 -1.413,0.273 -2.826,0.541 -4.238,0.818 -0.197,0.038 -0.397,0.18 -0.579,0.154 -1.298,-0.187 -2.402,0.52 -3.604,0.769 -0.213,0.044 -0.378,0.319 -0.565,0.487 0.038,0.034 0.075,0.067 0.113,0.1 l 1.098,-0.354 c 0.026,0.07 0.052,0.141 0.078,0.212 -0.764,0.516 -1.528,1.033 -2.292,1.55 -0.035,-0.107 -0.07,-0.214 -0.106,-0.321 -0.27,0.02 -0.588,-0.046 -0.801,0.075 -0.66,0.373 -1.281,0.815 -1.915,1.234 -1.028,0.682 -2.011,1.449 -3.097,2.023 -0.783,0.413 -1.752,0.465 -2.546,0.862 -1.874,0.938 -3.741,1.914 -4.967,3.739 -0.446,0.664 -0.96,1.283 -1.551,2.065 -0.135,-0.275 -0.206,-0.42 -0.257,-0.523 -1.417,1.195 -1.928,2.855 -2.811,4.281 -0.803,1.297 -1.632,2.627 -2.692,3.703 -1.288,1.307 -2.856,2.332 -4.253,3.538 -1.382,1.193 -1.639,2.935 -2.061,4.581 -0.172,0.668 -0.323,1.341 -0.484,2.012 -0.079,-0.018 -0.16,-0.036 -0.239,-0.053 0.023,-0.2 0.046,-0.399 0.069,-0.599 -0.333,0.324 -0.458,0.73 -0.675,1.078 -0.46,0.737 -0.963,1.448 -1.46,2.162 -0.128,0.185 -0.317,0.329 -0.442,0.515 -0.778,1.153 -1.553,2.308 -2.308,3.476 -0.131,0.205 -0.181,0.47 -0.239,0.714 -0.31,1.305 -0.57,2.624 -0.925,3.917 -0.327,1.191 -0.751,2.356 -1.132,3.532 l -0.189,-0.053 c -0.038,-0.118 -0.077,-0.238 -0.098,-0.304 -0.141,0.743 -0.341,1.499 -0.417,2.267 -0.095,0.982 -0.053,1.978 -0.14,2.962 -0.09,1.011 0.114,2.057 -0.435,3.022 -0.307,0.541 -0.575,1.147 -0.677,1.754 -0.442,2.642 -0.776,5.29 -2.155,7.687 -0.994,1.728 -1.071,3.688 -0.727,5.594 0.561,3.111 1.11,6.237 2.339,9.182 0.072,0.173 0.267,0.291 0.374,0.454 0.412,0.625 0.811,1.26 1.215,1.89 -0.046,0.034 -0.091,0.067 -0.136,0.1 -0.149,-0.067 -0.298,-0.136 -0.447,-0.203 0.681,0.902 0.805,2.021 0.489,2.863 -0.356,0.946 -0.323,1.672 0.087,2.491 0.042,-0.074 0.084,-0.149 0.224,-0.397 0.066,0.722 0.116,1.268 0.165,1.813 0.052,0.58 0.063,1.167 0.162,1.739 0.563,3.233 1.854,6.232 2.98,9.289 1.13,3.066 3.182,5.592 4.814,8.356 0.862,1.46 2.042,2.789 3.479,3.843 1.612,1.184 3.245,2.32 4.373,4.107 0.794,1.257 2.03,2.25 3.137,3.289 1.757,1.648 3.534,3.28 5.37,4.839 2.851,2.423 5.634,4.989 9.519,5.691 0.26,0.048 0.537,0.007 0.798,0.052 0.913,0.158 1.881,0.196 2.717,0.545 0.855,0.359 1.574,1.038 2.365,1.556 0.13,0.086 0.325,0.073 0.491,0.102 0.258,0.044 0.574,0.002 0.764,0.138 1.534,1.098 3.137,2.024 4.987,2.52 1.317,0.353 2.595,0.857 3.881,1.317 0.425,0.153 0.82,0.534 1.235,0.544 1.588,0.037 3,0.75 4.514,1.06 2.23,0.456 4.442,1.063 6.613,-0.238 0.235,-0.141 0.623,-0.063 0.934,-0.032 0.313,0.031 0.631,0.219 0.928,0.183 2.927,-0.358 5.848,-0.753 8.772,-1.128 1.473,-0.189 2.949,-0.352 4.422,-0.537 1.166,-0.148 2.337,-0.271 3.492,-0.478 1.452,-0.26 2.891,-0.596 4.336,-0.896 0.072,-0.016 0.153,0.007 0.227,-0.006 0.679,-0.109 1.44,-0.063 2.018,-0.366 1.738,-0.907 3.405,-1.948 5.095,-2.944 0.517,-0.303 0.957,-0.891 1.667,-0.361 0.068,0.051 0.284,-0.063 0.415,-0.131 1.753,-0.898 3.649,-1.345 5.569,-1.643 1.36,-0.212 1.95,-1.274 2.726,-2.152 0.076,-0.086 0.031,-0.279 0.052,-0.534 -0.276,0.241 -0.47,0.412 -0.664,0.583 -0.058,-0.036 -0.116,-0.071 -0.173,-0.107 0.205,-0.345 0.338,-0.775 0.627,-1.017 1.199,-1.003 2.376,-2.033 3.559,-3.044 1.749,-1.495 3.098,-3.441 5.205,-4.551 0.804,-0.423 1.417,-1.208 2.13,-1.812 0.143,-0.122 0.341,-0.186 0.523,-0.255 1.615,-0.614 3.155,-1.303 3.921,-3.036 0.654,-1.482 1.317,-2.966 2.082,-4.393 0.372,-0.693 0.922,-1.323 1.498,-1.87 2.312,-2.196 4.775,-4.244 6.249,-7.182 0.509,-1.016 1.203,-1.937 1.797,-2.912 0.182,-0.299 0.338,-0.622 0.46,-0.951 0.519,-1.4 1.083,-2.789 1.512,-4.217 0.399,-1.326 0.668,-2.693 0.957,-4.05 0.215,-1.009 0.307,-2.047 0.568,-3.041 0.352,-1.344 1.039,-2.639 1.166,-3.994 0.129,-1.386 0.423,-2.709 0.735,-4.045 0.128,-0.549 0.429,-1.139 0.324,-1.642"
               style="fill:#231f20;fill-opacity:1;fill-rule:nonzero;stroke:none"
               id="path495" />
          </g>
        </g>
        <g
           id="g497"
           transform="matrix(0.1531793,0,0,-0.1519643,161.59476,425.14386)">
          <g
             id="g499"
             transform="translate(41.0703,22.7486)">
            <path
               d="m 0,0 c -0.114,-0.313 -0.228,-0.626 -0.324,-0.935 -0.458,-1.46 -1.723,-3.049 -3.759,-4.726 -1.473,-1.212 -2.999,-1.455 -4.994,-1.667 l -0.516,-0.058 c -1.229,-0.139 -2.501,-0.284 -3.617,-0.043 l -0.486,0.104 c -1.632,0.345 -3.483,0.737 -4.93,1.338 -0.212,0.088 -0.42,0.216 -0.63,0.342 -0.276,0.166 -0.561,0.338 -0.875,0.462 -0.117,0.046 -0.249,0.082 -0.385,0.117 l 0.07,0.381 c 0.343,-0.192 0.71,-0.354 1.109,-0.467 0.349,-0.1 0.682,-0.229 1.013,-0.356 0.485,-0.186 0.987,-0.379 1.545,-0.498 1.539,-0.328 3.163,-0.284 4.457,0.113 0.216,0.067 0.468,0.087 0.735,0.109 0.289,0.023 0.615,0.049 0.945,0.139 0.445,0.121 0.743,0.318 1.005,0.493 0.095,0.063 0.196,0.13 0.311,0.196 0.722,0.418 1.214,0.785 1.73,1.522 0.432,0.614 0.742,1.246 1.011,1.835 0.37,0.813 0.482,1.432 0.353,1.951 l -0.31,1.246 -0.901,-0.914 c -0.375,-0.38 -0.356,-0.806 -0.346,-1.011 v -0.006 c -0.117,-0.091 -0.187,-0.144 -0.263,-0.215 -0.095,-0.089 -0.329,-0.223 -0.536,-0.34 -0.254,-0.144 -0.516,-0.295 -0.735,-0.469 -0.256,-0.206 -0.526,-0.455 -0.805,-0.714 -0.56,-0.52 -1.195,-1.11 -1.729,-1.293 -0.234,-0.08 -0.576,-0.115 -0.946,-0.115 -0.53,0 -1.12,0.072 -1.534,0.186 -0.151,0.042 -0.324,0.137 -0.507,0.235 -0.268,0.146 -0.573,0.311 -0.945,0.397 -0.511,0.119 -0.949,0.242 -1.43,0.457 -1.99,0.896 -3.395,2.277 -5.016,4.215 -0.661,0.79 -1.141,1.82 -1.605,2.816 l -0.352,0.737 c -0.319,0.647 -0.755,1.533 -0.758,2.098 -0.004,0.99 0.224,2.111 0.596,2.925 0.039,0.085 0.112,0.179 0.198,0.286 0.126,0.161 0.284,0.36 0.403,0.631 0.12,0.275 0.179,0.555 0.23,0.8 0.041,0.196 0.079,0.382 0.14,0.519 0.388,0.875 0.97,1.856 1.518,2.557 2.237,2.868 6.084,3.303 8.177,3.307 1.163,-0.008 2.647,-0.236 4.017,-0.656 1.268,-0.388 2.323,-1.261 3.441,-2.186 l 0.204,-0.169 C -2.25,12.558 0.137,8.479 0.355,4.766 0.377,4.396 0.421,4.039 0.465,3.686 0.553,2.977 0.636,2.307 0.498,1.606 0.396,1.09 0.203,0.561 0,0"
               style="fill:#231f20;fill-opacity:1;fill-rule:nonzero;stroke:none"
               id="path501" />
          </g>
        </g>
        <g
           id="g503"
           transform="matrix(0.1531793,0,0,-0.1519643,161.59476,425.14386)">
          <g
             id="g505"
             transform="translate(-1.9297,-12.7309)">
            <path
               d="M 0,0 C 0.63,0.72 1.239,1.486 1.85,2.328 2.924,1.595 4.093,0.93 5.222,0.767 5.976,0.658 6.736,0.5 7.472,0.346 c 1.37,-0.285 2.773,-0.578 4.239,-0.578 0.667,0 1.347,0.061 2.043,0.21 2.342,0.501 4.293,1.472 5.964,2.968 0.282,0.254 0.521,0.54 0.74,0.838 0.001,-0.003 0.003,-0.006 0.004,-0.009 0.233,-0.468 0.403,-1.003 0.584,-1.568 0.101,-0.321 0.204,-0.64 0.316,-0.946 0.528,-1.434 0.495,-3.466 -0.095,-6.037 -0.424,-1.854 -1.486,-2.981 -2.939,-4.37 l -0.387,-0.373 c -0.884,-0.855 -1.798,-1.738 -2.825,-2.228 l -0.455,-0.218 c -1.502,-0.721 -3.204,-1.537 -4.716,-1.945 -0.219,-0.059 -0.464,-0.084 -0.708,-0.112 -0.32,-0.037 -0.65,-0.075 -0.973,-0.168 -0.123,-0.035 -0.249,-0.087 -0.376,-0.143 l -0.178,0.345 c 0.39,0.058 0.777,0.153 1.162,0.306 0.337,0.134 0.679,0.235 1.019,0.336 0.499,0.149 1.015,0.303 1.53,0.55 1.418,0.68 2.68,1.704 3.461,2.809 0.131,0.184 0.318,0.355 0.517,0.535 0.214,0.194 0.456,0.413 0.663,0.685 0.278,0.368 0.392,0.703 0.494,0.999 0.037,0.109 0.076,0.224 0.127,0.349 0.318,0.776 0.483,1.366 0.444,2.263 -0.037,0.778 -0.183,1.485 -0.32,2.074 -0.196,0.852 -0.494,1.427 -0.911,1.758 L 14.892,-0.526 14.734,-1.8 c -0.065,-0.53 0.209,-0.856 0.341,-1.012 0.001,-0.002 0.003,-0.003 0.004,-0.005 -0.037,-0.146 -0.058,-0.23 -0.075,-0.331 -0.021,-0.126 -0.125,-0.374 -0.216,-0.593 -0.113,-0.271 -0.23,-0.55 -0.297,-0.824 -0.077,-0.319 -0.138,-0.68 -0.202,-1.055 -0.127,-0.754 -0.27,-1.609 -0.581,-2.08 -0.331,-0.501 -1.333,-1.182 -2.009,-1.457 -0.144,-0.059 -0.339,-0.09 -0.545,-0.123 -0.301,-0.049 -0.643,-0.104 -0.992,-0.263 -0.476,-0.218 -0.898,-0.388 -1.41,-0.51 -2.126,-0.503 -4.081,-0.268 -6.546,0.278 -0.999,0.22 -2.001,0.738 -2.969,1.24 l -0.755,0.382 c -0.681,0.336 -1.528,0.753 -1.876,1.199 -0.528,0.681 -0.977,1.545 -1.218,2.33 C -3.151,-3.395 -1.676,-1.915 0,0"
               style="fill:#231f20;fill-opacity:1;fill-rule:nonzero;stroke:none"
               id="path507" />
          </g>
        </g>
        <g
           id="g509"
           transform="matrix(0.1531793,0,0,-0.1519643,161.59476,425.14386)">
          <g
             id="g511"
             transform="translate(16.8711,17.4604)">
            <path
               d="M 0,0 V -0.011 L -0.043,-0.035 Z"
               style="fill:#231f20;fill-opacity:1;fill-rule:nonzero;stroke:none"
               id="path513" />
          </g>
        </g>
        <g
           id="g515"
           transform="matrix(0.1531793,0,0,-0.1519643,161.59476,425.14386)">
          <g
             id="g517"
             transform="translate(-2.6821,-2.8925)">
            <path
               d="M 0,0 C 0.725,0.458 1.521,0.853 2.303,1.181 2.265,0.88 2.223,0.582 2.171,0.296 2.055,-0.344 1.827,-0.945 1.544,-1.525 1.01,-1.049 0.494,-0.538 0,0"
               style="fill:#231f20;fill-opacity:1;fill-rule:nonzero;stroke:none"
               id="path519" />
          </g>
        </g>
        <g
           id="g521"
           transform="matrix(0.1531793,0,0,-0.1519643,161.59476,425.14386)">
          <g
             id="g523"
             transform="translate(13.0986,16.4098)">
            <path
               d="M 0,0 C -0.354,0.087 -0.692,0.202 -1.029,0.317 -1.521,0.484 -2.03,0.657 -2.591,0.754 -4.136,1.023 -5.758,0.92 -7.038,0.473 -7.251,0.398 -7.502,0.369 -7.768,0.337 -8.056,0.304 -8.383,0.265 -8.71,0.161 -9.149,0.023 -9.438,-0.185 -9.694,-0.368 c -0.093,-0.067 -0.191,-0.138 -0.303,-0.208 -0.707,-0.445 -1.184,-0.83 -1.673,-1.587 -0.414,-0.642 -0.709,-1.308 -0.942,-1.874 -0.156,-0.381 -0.259,-0.724 -0.309,-1.033 -0.454,0.383 -0.971,0.666 -1.474,0.94 -0.2,0.109 -0.399,0.218 -0.589,0.331 -0.194,0.116 -0.388,0.239 -0.583,0.362 -0.594,0.376 -1.209,0.765 -1.896,1.029 l -0.014,0.005 c 0.583,0.76 1.325,1.542 2.213,2.333 1.422,1.264 2.94,1.566 4.928,1.855 l 0.526,0.079 c 1.219,0.185 2.478,0.375 3.6,0.179 L -5.686,1.951 C -4.053,1.669 -2.202,1.349 -0.743,0.807 -0.528,0.727 -0.315,0.606 -0.101,0.488 0.182,0.332 0.474,0.172 0.792,0.06 0.91,0.019 1.042,-0.013 1.178,-0.041 L 1.121,-0.424 C 0.771,-0.246 0.401,-0.099 0,0"
               style="fill:#231f20;fill-opacity:1;fill-rule:nonzero;stroke:none"
               id="path525" />
          </g>
        </g>
        <g
           id="g527"
           transform="matrix(0.1531793,0,0,-0.1519643,161.59476,425.14386)">
          <g
             id="g529"
             transform="translate(-0.3799,2.0465)">
            <path
               d="M 0,0 C -0.286,-0.08 -0.563,-0.17 -0.808,-0.296 -2.04,-0.93 -3.317,-1.419 -4.534,-2.007 -5.605,-0.262 -6.349,1.65 -6.542,3.636 -6.652,4.777 -6.985,5.783 -6.798,6.969 -6.703,7.571 -6.503,8.18 -6.31,8.781 -5.68,8.523 -5.048,8.22 -4.525,7.901 -1.753,6.22 -0.437,3.058 0,0"
               style="fill:#231f20;fill-opacity:1;fill-rule:nonzero;stroke:none"
               id="path531" />
          </g>
        </g>
      </g>
    </g>
  </g>
</svg>
