<?xml version="1.0" encoding="UTF-8" standalone="no"?>
<!-- Created with Inkscape (http://www.inkscape.org/) -->

<svg
   width="24.059425"
   height="24"
   viewBox="0 0 6.3657229 6.35"
   version="1.1"
   id="svg4921"
   inkscape:version="1.2.1 (9c6d41e4, 2022-07-14)"
   sodipodi:docname="return-to-heart-of-the-elders.svg"
   xmlns:inkscape="http://www.inkscape.org/namespaces/inkscape"
   xmlns:sodipodi="http://sodipodi.sourceforge.net/DTD/sodipodi-0.dtd"
   xmlns="http://www.w3.org/2000/svg"
   xmlns:svg="http://www.w3.org/2000/svg">
  <sodipodi:namedview
     id="namedview4923"
     pagecolor="#505050"
     bordercolor="#eeeeee"
     borderopacity="1"
     inkscape:showpageshadow="0"
     inkscape:pageopacity="0"
     inkscape:pagecheckerboard="0"
     inkscape:deskcolor="#505050"
     inkscape:document-units="mm"
     showgrid="false"
     inkscape:zoom="0.7046647"
     inkscape:cx="-228.47746"
     inkscape:cy="321.42947"
     inkscape:window-width="1390"
     inkscape:window-height="941"
     inkscape:window-x="0"
     inkscape:window-y="25"
     inkscape:window-maximized="0"
     inkscape:current-layer="layer1" />
  <defs
     id="defs4918">
    <clipPath
       clipPathUnits="userSpaceOnUse"
       id="clipPath415">
      <path
         d="m 39.282,414.29 h 22.057 v 21.883 H 39.282 Z"
         id="path413" />
    </clipPath>
  </defs>
  <g
     inkscape:label="Layer 1"
     inkscape:groupmode="layer"
     id="layer1"
     transform="translate(-165.405,-63.659379)">
    <g
       id="g409"
       transform="matrix(0.2971653,0,0,-0.2971653,153.6372,193.19838)">
      <g
         id="g411"
         clip-path="url(#clipPath415)">
        <g
           id="g417"
           transform="matrix(0.1531793,0,0,-0.1519643,50.31089,425.14386)">
          <g
             id="g419"
             transform="translate(46.0176,0.0929)">
            <path
               d="m 0,0 c -0.187,0.936 -0.031,1.832 -0.301,2.761 -0.345,1.191 -0.792,2.317 -1.066,3.536 -1.177,5.226 -3.165,10.785 -7.721,13.99 -1.131,0.794 -2.544,0.981 -3.708,1.654 -1.127,0.651 -2.428,1.286 -3.756,1.533 -3.134,0.583 -6.366,2.036 -9.573,1.997 -2.938,-0.036 -5.961,0.284 -8.684,-0.739 -0.73,-0.275 -2.145,-1.018 -2.909,-0.86 -0.99,0.204 -1.531,1.317 -1.747,2.182 -0.242,0.967 -0.596,1.925 -0.583,2.939 0.013,0.974 -10e-4,1.95 -10e-4,2.924 0,2.179 0.314,4.025 0.795,6.087 0.391,1.675 0.952,3.484 2.416,4.605 0.668,0.512 1.481,0.825 1.987,1.557 0.77,1.113 -0.427,0.895 -1.282,0.891 -2.529,-0.011 -4.93,-0.667 -7.471,-0.795 -1.081,-0.054 -1.973,-0.388 -3.077,-0.381 -0.523,0.004 -1.171,-0.072 -1.81,-0.098 -0.612,0.396 -1.583,0.893 -1.714,0.185 0.48,-0.19 1.093,-0.211 1.714,-0.185 0.177,-0.115 0.328,-0.223 0.415,-0.288 0.617,-0.472 0.89,-1.071 1.258,-1.682 0.513,-0.852 0.731,-1.529 0.977,-2.546 0.085,-0.345 0.286,-0.833 0.392,-1.265 0.136,-0.548 0.192,-0.999 0.285,-1.565 0.092,-0.566 0.391,-0.972 0.423,-1.567 0.027,-0.516 -0.01,-1.05 -0.01,-1.567 0,-0.51 -0.065,-1.072 -0.009,-1.577 0.053,-0.465 0.279,-0.624 0.367,-1.004 0.233,-0.985 -0.131,-2.102 0.068,-3.1 0.112,-0.565 0.342,-0.962 0.362,-1.568 0.017,-0.519 -0.003,-1.047 -0.004,-1.566 -0.006,-1.797 0.749,-3.264 0.779,-5.094 0.015,-0.875 0.317,-1.771 0.587,-2.551 0.321,-0.925 0.629,-1.218 1.573,-0.983 0.881,0.22 1.499,0.804 2.241,1.282 0.821,0.529 1.531,0.679 2.427,0.918 0.737,0.197 1.383,0.665 2.178,0.756 0.824,0.094 1.728,-0.01 2.557,-0.01 2.308,0 4.401,-0.068 6.642,-0.734 1.897,-0.565 3.737,-1.27 5.488,-2.057 2.193,-0.985 3.995,-2.154 5.954,-3.669 0.786,-0.608 0.928,-1.163 1.479,-1.916 0.512,-0.7 1.311,-1.119 1.723,-1.91 0.697,-1.339 1.327,-2.79 1.833,-4.228 0.516,-1.468 0.623,-2.79 0.891,-4.312 0.227,-1.297 0.362,-2.619 0.514,-3.932 0.126,-1.087 0.37,-1.998 0.359,-3.104 -0.008,-0.811 -0.011,-1.623 -0.006,-2.434 0.012,-1.683 -0.241,-3.345 -0.37,-5.017 -0.062,-0.805 -0.432,-1.519 -0.619,-2.296 -0.169,-0.704 -0.123,-1.416 -0.548,-2.022 -0.795,-1.135 -2.37,-1.892 -3.456,-2.722 -2.174,-1.663 -4.931,-2.672 -7.543,-3.419 -2.102,-0.601 -4.105,-1.591 -6.258,-1.667 -0.714,-0.026 -1.187,-0.311 -1.871,-0.422 -0.411,-0.066 -0.858,0.066 -1.274,0.03 -0.957,-0.082 -2.201,-0.254 -3.132,-0.488 -0.929,-0.234 -1.824,-0.411 -2.754,-0.708 -0.736,-0.235 -1.615,-0.267 -2.351,-0.656 -1.026,-0.54 -1.006,-1.077 -1.145,-2.067 -0.155,-1.103 -0.405,-1.988 -0.412,-3.142 -3.646,4.496 -1.002,0.559 -0.011,-0.783 0.544,-0.735 1.434,-1.735 2.342,-1.979 0.845,-0.228 2.151,0.016 3.037,0.02 -0.908,-0.144 -1.925,0.616 -2.527,1.272 -0.684,0.748 -0.839,1.639 -0.88,2.643 -0.048,1.185 0.679,1.651 1.779,1.928 0.764,0.191 1.719,0.164 2.528,0.328 0.763,0.156 1.589,0.424 2.349,0.509 0.693,0.077 1.36,-0.064 2.057,0.066 0.647,0.123 1.263,0.29 1.919,0.391 1.589,0.245 3.158,0.243 4.605,0.742 1.491,0.514 3.073,0.57 4.619,0.837 0.985,0.169 1.885,0.527 2.846,0.784 1.14,0.307 2.144,0.674 3.241,1.088 1.203,0.456 2.469,0.533 3.618,1.164 2.149,1.178 3.598,2.514 4.911,4.712 1.209,2.022 1.792,4.418 1.942,6.719 0.063,0.992 0.428,1.812 0.417,2.826 -0.009,0.638 -0.005,1.277 -0.005,1.915 v 3.602 C 0.306,-3.489 0.355,-1.776 0,0 m -52.206,42.215 c -1.536,0.92 -3.24,1.679 -5.084,1.666 -3.916,-0.025 -7.835,0 -11.752,0 -0.834,0.878 -1.733,0.126 -2.156,0.034 -0.492,-0.11 -1.052,-0.036 -1.558,-0.034 -1.724,0.007 -3.45,0.006 -5.174,-10e-4 0.744,-0.082 1.379,-0.635 2.032,-1.027 0.934,-0.559 1.914,-0.835 2.947,-1.225 0.311,-0.117 0.723,-0.386 1.003,-0.456 0.441,-0.108 0.884,-0.004 1.339,-0.12 0.537,-0.138 0.818,-0.301 1.404,-0.309 0.6,-0.01 1.158,0.061 1.74,-0.084 1.669,-0.418 3.426,-1.032 4.936,-1.823 0.704,-0.37 1.617,-0.718 2.269,-1.213 0.629,-0.48 1.111,-1.206 1.786,-1.675 1.156,-0.801 2.315,-1.777 3.155,-2.875 1.196,-1.566 1.165,-3.204 1.165,-5.06 0,-0.83 0.102,-1.732 0.009,-2.555 -0.076,-0.681 -0.441,-1.491 -0.744,-2.161 -0.699,-1.544 -2.295,-1.724 -3.936,-1.747 -2.216,-0.03 -4.436,-0.005 -6.652,-0.002 -2.036,0.004 -3.947,-0.24 -5.968,-0.439 -1.53,-0.151 -3.225,-0.212 -4.659,-0.639 -1.892,-0.564 -2.942,-1.718 -4.138,-3.262 -1.222,-1.575 -2.268,-3.062 -3.149,-4.87 -0.562,-1.155 -1.141,-1.932 -1.356,-3.16 -0.125,-0.709 -0.524,-1.346 -0.672,-2.048 -0.09,-0.421 0.023,-0.849 -0.059,-1.252 -0.088,-0.445 -0.335,-0.772 -0.519,-1.178 -0.252,-0.553 -0.167,-0.957 -0.322,-1.532 -0.22,-0.82 -0.448,-1.658 -0.659,-2.471 -0.132,-0.512 0.026,-1.001 -0.066,-1.502 -0.075,-0.416 -0.358,-0.729 -0.434,-1.145 -0.21,-1.154 -0.376,-2.445 -0.369,-3.635 0.009,-1.558 0.349,-3.028 0.411,-4.564 0.044,-1.068 0.29,-1.95 0.572,-2.98 0.226,-0.829 0.3,-1.593 0.78,-2.362 0.851,-1.365 1.621,-2.952 2.933,-3.907 1.375,-1 2.906,-1.78 4.314,-2.735 0.82,-0.557 1.519,-1.158 2.371,-1.669 0.722,-0.432 1.322,-1.052 1.861,-1.685 0.673,-0.793 0.869,-1.262 0.86,-2.341 -0.006,-0.668 0.182,-1.508 -0.224,-2.084 0.924,-0.028 2.274,0.78 2.967,1.503 0.427,0.447 0.611,0.784 0.794,1.385 0.114,0.376 0.315,0.775 0.403,1.145 0.121,0.511 -0.027,1.248 -0.022,1.782 0.008,0.706 -0.155,0.929 -0.303,1.46 -0.153,0.547 -0.004,1.096 -0.12,1.643 -0.094,0.43 -0.353,0.818 -0.426,1.337 -0.52,0.018 -0.807,0.394 -1.289,0.474 -0.437,0.073 -0.862,-0.021 -1.3,0.072 -0.33,0.07 -0.839,0.294 -1.262,0.392 -0.376,0.087 -0.842,0.326 -1.176,0.49 -1.684,0.828 -3.746,1.702 -4.798,3.33 -0.512,0.791 -0.96,1.66 -1.29,2.557 -0.365,0.995 -0.177,2.266 -0.181,3.331 -0.004,1.473 0.411,2.767 0.391,4.222 -0.018,1.297 0.174,2.553 0.382,3.809 0.692,4.156 1.83,8.5 3.978,12.116 0.687,1.158 2.321,2.141 3.477,2.664 0.779,0.353 1.151,0.897 1.949,1.186 0.86,0.311 1.513,0.769 2.362,1.076 1.759,0.637 3.429,1.353 5.287,1.584 0.88,0.108 1.855,-0.018 2.744,-0.015 0.362,0 0.839,0.089 1.19,0.015 0.398,-0.086 0.572,-0.34 0.944,-0.427 0.894,-0.211 1.891,-0.086 2.784,-0.36 0.376,-0.116 0.538,-0.331 0.944,-0.418 0.35,-0.075 0.828,0.014 1.19,0.015 0.953,0.002 1.844,0.068 2.743,-0.193 0.743,-0.215 1.627,-0.897 2.271,-0.313 0.29,0.26 0.85,1.389 0.972,1.768 0.244,0.761 0.49,1.449 0.477,2.267 -0.008,0.503 -0.082,1.086 -0.013,1.58 0.076,0.536 0.314,0.733 0.426,1.226 0.193,0.832 -0.028,2.005 -0.02,2.868 0.011,1.094 -0.234,2.068 -0.38,3.119 -0.175,1.252 -0.425,2.526 -0.708,3.74 -0.152,0.658 0,1.309 -0.165,1.958 -0.117,0.463 -0.497,0.857 -0.627,1.285 -0.25,0.821 -0.108,1.598 -0.421,2.44 -0.302,0.805 -0.217,2.074 -0.666,2.712 -0.374,0.532 -1.198,0.975 -1.745,1.302 m -13.789,-57.956 c -1.156,1.283 -1.808,4.37 0.714,4.095 1.889,-0.206 3.673,-0.217 4.969,-1.817 0.613,-0.758 0.495,-1.714 0.522,-2.618 0.017,-0.564 0.236,-0.677 0.316,-1.178 0.105,-0.643 -0.266,-1.206 -0.52,-1.744 -0.764,-1.618 -1.79,-2.897 -2.704,-4.379 -0.449,-0.726 -0.755,-1.439 -1.079,-2.166 -0.384,-0.859 -0.388,-1.759 -0.723,-2.688 -0.342,-0.95 -0.413,-1.934 -0.761,-2.883 -0.366,-0.996 -0.218,-2.055 -0.507,-3.068 -0.126,-0.445 -0.373,-0.588 -0.464,-1.167 -0.09,-0.574 -0.242,-0.831 -0.426,-1.343 -0.188,-0.521 -0.143,-1.01 -0.219,-1.554 -0.088,-0.64 -0.441,-1.097 -0.571,-1.718 -0.181,-0.869 -0.28,-2.053 -0.259,-2.936 0.02,-0.831 0.331,-1.713 0.487,-2.485 0.15,-0.737 0.193,-1.338 0.452,-2.086 0.189,-0.547 0.36,-0.976 0.572,-1.504 0.606,-1.512 1.285,-2.681 2.334,-3.912 0.636,-0.747 1.715,-1.587 2.801,-1.192 0.757,0.275 1.183,1.547 2.314,1.335 -0.088,1.056 -0.419,2.192 -0.574,3.259 -0.166,1.139 -0.546,2.175 -0.837,3.279 -0.264,1.004 -0.184,2.031 -0.283,3.056 -0.347,3.538 0.034,6.958 0.352,10.489 0.213,2.379 0.423,4.327 1.403,6.494 0.764,1.691 1.538,3.396 1.998,5.093 0.224,0.826 0.538,1.517 0.607,2.402 0.075,0.946 0.163,1.894 0.256,2.839 0.164,1.656 -0.596,3.158 -1.564,4.472 -0.868,1.178 -1.604,1.598 -2.872,2.111 -0.631,0.255 -1.195,0.514 -2.017,0.497 -0.724,-0.015 -1.487,-0.317 -2.219,-0.548 -1.074,-0.337 -3.208,-1.112 -3.546,-2.273 -0.637,-2.177 0.653,-2.938 2.048,-4.162 m 10.317,-29.023 c 0.663,-0.546 1.112,-0.731 1.898,-0.957 0.357,-0.103 0.831,-0.505 1.123,-0.535 0.264,-0.028 1.117,0.432 1.342,0.59 0.229,0.161 0.44,0.398 0.653,0.409 0.027,-0.057 0.054,-0.115 0.081,-0.161 0.191,-0.327 0.614,-0.668 0.66,-1.043 -0.268,0.953 -0.506,1.216 -0.741,1.204 -0.117,0.25 -0.23,0.579 -0.346,0.821 -0.727,1.506 -1.236,3.227 -1.75,4.819 -0.458,1.423 -0.499,3.4 -0.457,4.889 0.039,1.327 0.105,3.016 0.584,4.245 1.651,4.225 3.395,8.141 5.517,12.091 0.212,0.394 0.622,0.744 0.812,1.108 0.188,0.363 0.228,0.732 0.372,1.149 0.302,0.874 0.439,1.858 0.745,2.685 0.55,1.491 -0.036,3.383 -0.656,4.76 -0.414,0.919 -0.773,1.964 -1.318,2.813 -0.47,0.734 -0.882,1.218 -0.902,2.118 -0.041,1.817 0.405,3.611 0.903,5.205 0.124,0.394 0.409,0.896 0.569,1.36 0.204,0.59 0.392,0.863 0.443,1.533 0.081,1.036 0.25,2.081 0.292,3.12 0.051,1.298 -0.608,1.915 -1.439,2.785 -0.283,0.296 -0.492,0.677 -0.786,0.961 -0.304,0.29 -0.669,0.423 -0.963,0.711 -0.099,-0.707 0.549,-1.567 0.644,-2.242 0.124,-0.877 -0.123,-2.464 -0.305,-3.336 -0.184,-0.879 -0.627,-1.929 -1.04,-2.66 -0.426,-0.75 -0.641,-1.566 -1.096,-2.362 -0.933,-1.63 -1.359,-3.269 -1.556,-5.267 -0.224,-2.266 1.184,-4.628 2.471,-6.418 1.127,-1.569 0.935,-3.756 0.769,-5.675 -0.032,-0.369 0.038,-1.036 -0.106,-1.386 -0.17,-0.411 -0.485,-0.47 -0.778,-0.776 -0.395,-0.413 -0.577,-0.981 -0.915,-1.434 -0.383,-0.51 -0.9,-0.937 -1.309,-1.436 -0.726,-0.886 -1.611,-1.601 -2.195,-2.557 -0.669,-1.096 -1.125,-2.298 -1.679,-3.467 -1.602,-3.375 -2.583,-6.955 -2.84,-10.708 -0.168,-2.459 1.403,-5.399 3.299,-6.956 m 6.628,3.721 c 0.254,-0.866 0.842,-1.378 1.404,-2.082 0.654,-0.821 0.809,-1.402 1.68,-2.03 1.137,-0.823 2.278,-1.826 2.965,-3.099 0.325,-0.605 1.501,-1.816 1.394,-2.515 -0.081,-0.526 -1.086,-1.066 -1.456,-1.324 -1.305,-0.91 -2.314,-2.233 -3.078,-3.646 -0.327,-0.606 -0.638,-1.545 -0.506,-2.242 0.083,-0.442 0.585,-1.484 1.017,-1.79 0.523,-0.369 1.871,-0.292 2.31,0.1 0.473,0.425 0.72,1.38 0.612,1.547 1.099,-0.284 2.574,1.377 3.15,2.078 0.859,1.042 1.21,2.167 1.656,3.371 0.316,0.859 0.672,1.49 0.553,2.451 -0.092,0.761 -0.448,1.531 -0.667,2.255 -0.497,1.661 -0.822,3.257 -1.587,4.828 -1.131,2.328 -2.566,4.489 -3.535,6.878 -0.2,0.492 -0.573,0.904 -0.652,1.447 -0.072,0.491 0.186,1.042 0.135,1.556 -0.148,1.474 -0.184,2.327 0.363,3.708 0.331,0.836 0.956,1.513 1.386,2.303 0.639,1.172 1.187,2.291 2.104,3.284 1.742,1.889 3.863,3.602 5.176,5.834 0.211,0.359 0.521,0.899 0.655,1.312 0.14,0.426 0.389,0.883 0.505,1.223 0.313,0.927 0.678,1.795 0.734,2.798 0.058,1.045 -0.12,2.277 -0.902,3.049 -0.697,0.689 -1.664,1.102 -2.29,1.741 -1.352,1.382 -3.948,3.058 -4.539,4.986 -0.297,0.975 -0.496,2.334 -0.162,3.344 0.253,0.765 1.312,1.689 0.982,2.606 -0.697,0.156 -2.378,-1.174 -2.942,-1.566 -0.835,-0.58 -1.841,-1.926 -2.129,-2.841 -0.864,-2.748 0.692,-4.449 2.4,-6.328 1.352,-1.488 3.505,-2.518 4.427,-4.421 1.196,-2.468 -0.465,-5.058 -2.195,-6.716 -0.713,-0.682 -1.271,-1.479 -2.038,-2.103 -1.101,-0.894 -1.938,-2.131 -3.027,-3.037 -1.096,-0.911 -2.196,-1.633 -3.03,-2.864 -0.766,-1.131 -1.5,-2.394 -1.921,-3.743 -0.536,-1.717 0.341,-3.475 0.333,-5.154 -0.008,-1.734 0.223,-3.524 0.715,-5.198 M 23.884,6.293 C 23.654,5.191 23.15,4.227 23.364,2.958 23.572,1.72 22.776,0.516 22.029,-0.571 v 0.735 c -0.085,0.005 -0.17,0.011 -0.256,0.018 -0.037,-0.593 -0.186,-1.205 -0.089,-1.774 0.319,-1.872 0.753,-3.725 1.085,-5.595 0.092,-0.525 0.07,-1.107 -0.055,-1.626 -0.414,-1.722 -0.882,-3.432 -1.362,-5.137 -0.399,-1.413 -0.799,-2.828 -1.286,-4.213 -0.29,-0.828 -0.723,-1.609 -1.137,-2.388 -0.168,-0.318 -0.462,-0.567 -0.68,-0.86 -0.095,-0.127 -0.157,-0.282 -0.211,-0.433 -0.314,-0.877 0.397,-1.787 -0.1,-2.673 -0.167,-0.297 -0.256,-0.657 -0.301,-1 -0.129,-0.979 -0.211,-1.964 -0.325,-2.945 -0.019,-0.166 -0.065,-0.35 -0.16,-0.482 -0.538,-0.752 -1.105,-1.483 -1.633,-2.241 -0.092,-0.132 -0.043,-0.363 -0.066,-0.62 -1.223,-1.099 -1.777,-2.827 -3.065,-4.07 -1.159,-1.119 -1.893,-2.677 -2.819,-4.038 -0.61,-0.895 -1.246,-1.773 -1.839,-2.679 -0.517,-0.789 -1.361,-1.319 -1.443,-2.467 -0.045,-0.621 -0.714,-1.276 -1.239,-1.767 -1.053,-0.983 -2.201,-1.864 -3.313,-2.79 -0.019,0.167 -0.042,0.358 -0.065,0.549 -0.068,0.028 -0.137,0.057 -0.205,0.086 -0.44,-0.65 -0.873,-1.304 -1.319,-1.948 -0.291,-0.419 -0.601,-0.825 -0.901,-1.238 -0.223,-0.305 -0.451,-0.605 -0.663,-0.918 -0.355,-0.526 -0.694,-1.065 -1.053,-1.589 -0.123,-0.179 -0.297,-0.322 -0.427,-0.495 -0.532,-0.701 -1.03,-1.429 -1.6,-2.096 -0.146,-0.17 -0.507,-0.18 -0.775,-0.215 -0.389,-0.052 -0.804,0.01 -1.173,-0.098 -1.556,-0.452 -3.115,-0.903 -4.637,-1.453 -0.616,-0.222 -1.223,-0.613 -1.695,-1.07 -1.451,-1.399 -3.261,-2.344 -4.621,-3.886 -0.719,-0.814 -1.881,-1.262 -2.887,-1.789 -1.12,-0.587 -2.285,-1.087 -3.441,-1.604 -0.628,-0.282 -1.258,-0.653 -1.921,-0.749 -1.3,-0.189 -2.626,-0.189 -3.937,-0.313 -1.513,-0.144 -3.081,-0.025 -4.48,-0.794 -1.502,-0.826 -3.141,-0.673 -4.756,-0.696 -0.115,-0.002 -0.263,0.019 -0.338,0.091 -0.723,0.676 -1.549,0.387 -2.345,0.239 -0.121,-0.023 -0.19,-0.322 -0.322,-0.565 -0.368,-0.05 -0.841,-0.162 -1.316,-0.169 -1.006,-0.016 -2.015,0.024 -3.022,0.039 -1.049,0.015 -2.103,0.101 -3.144,0.019 -0.979,-0.078 -1.943,-0.335 -2.913,-0.516 -0.018,-0.003 -0.028,-0.057 -0.044,-0.059 -0.394,-0.038 -0.833,-0.198 -1.176,-0.082 -0.908,0.309 -1.816,0.667 -2.64,1.149 -0.429,0.25 -1.125,0.384 -1.109,1.145 0.002,0.106 -0.178,0.248 -0.304,0.319 -0.502,0.28 -1.016,0.54 -1.525,0.807 0.005,-0.08 0.01,-0.16 0.014,-0.239 -0.147,-0.033 -0.305,-0.116 -0.44,-0.088 -0.739,0.153 -1.467,0.362 -2.21,0.49 -0.296,0.052 -0.631,-0.123 -0.927,-0.073 -1.156,0.194 -2.303,0.438 -3.454,0.661 -1.412,0.274 -2.825,0.542 -4.237,0.818 -0.197,0.039 -0.398,0.181 -0.58,0.154 -1.297,-0.186 -2.402,0.52 -3.603,0.769 -0.213,0.044 -0.378,0.319 -0.565,0.488 0.037,0.033 0.075,0.067 0.113,0.1 l 1.097,-0.355 c 0.026,0.071 0.052,0.142 0.079,0.212 -0.765,0.517 -1.528,1.034 -2.292,1.551 -0.036,-0.107 -0.071,-0.214 -0.106,-0.321 -0.27,0.019 -0.588,-0.047 -0.802,0.074 -0.659,0.374 -1.28,0.816 -1.914,1.235 -1.029,0.682 -2.012,1.449 -3.098,2.022 -0.782,0.413 -1.752,0.465 -2.546,0.863 -1.873,0.938 -3.74,1.914 -4.966,3.738 -0.446,0.665 -0.961,1.284 -1.552,2.065 -0.135,-0.274 -0.206,-0.42 -0.257,-0.523 -1.417,1.196 -1.927,2.855 -2.811,4.282 -0.803,1.296 -1.632,2.626 -2.692,3.702 -1.287,1.307 -2.856,2.333 -4.253,3.539 -1.381,1.193 -1.639,2.934 -2.061,4.58 -0.171,0.668 -0.323,1.341 -0.483,2.012 -0.08,-0.018 -0.16,-0.035 -0.24,-0.053 0.023,-0.199 0.046,-0.399 0.069,-0.598 -0.333,0.324 -0.458,0.729 -0.675,1.077 -0.46,0.738 -0.963,1.449 -1.459,2.163 -0.129,0.185 -0.318,0.328 -0.443,0.514 -0.777,1.154 -1.552,2.309 -2.307,3.477 -0.132,0.204 -0.182,0.469 -0.24,0.713 -0.309,1.306 -0.57,2.625 -0.924,3.918 -0.327,1.191 -0.751,2.355 -1.133,3.531 l -0.188,-0.052 c -0.039,-0.119 -0.078,-0.238 -0.099,-0.304 -0.141,0.743 -0.341,1.498 -0.416,2.267 -0.096,0.981 -0.053,1.977 -0.141,2.961 -0.089,1.011 0.114,2.058 -0.435,3.023 -0.307,0.54 -0.575,1.146 -0.677,1.754 -0.441,2.642 -0.776,5.289 -2.155,7.686 -0.994,1.728 -1.071,3.688 -0.727,5.595 0.562,3.111 1.11,6.237 2.339,9.181 0.072,0.173 0.267,0.291 0.374,0.454 0.412,0.625 0.812,1.26 1.215,1.89 -0.045,0.034 -0.09,0.067 -0.136,0.101 -0.148,-0.068 -0.297,-0.136 -0.446,-0.204 0.68,0.903 0.805,2.022 0.488,2.864 -0.356,0.945 -0.322,1.672 0.088,2.491 0.041,-0.074 0.083,-0.149 0.223,-0.398 0.066,0.722 0.116,1.268 0.166,1.813 0.052,0.58 0.062,1.167 0.162,1.739 0.562,3.234 1.854,6.233 2.98,9.289 1.13,3.067 3.182,5.592 4.814,8.357 0.861,1.46 2.041,2.789 3.478,3.843 1.613,1.183 3.245,2.32 4.374,4.107 0.794,1.257 2.03,2.25 3.136,3.288 1.757,1.648 3.534,3.28 5.37,4.84 2.851,2.423 5.634,4.988 9.519,5.69 0.261,0.048 0.537,0.007 0.798,0.052 0.914,0.158 1.882,0.196 2.718,0.546 0.855,0.358 1.574,1.037 2.365,1.556 0.13,0.086 0.325,0.073 0.491,0.101 0.257,0.044 0.573,0.002 0.763,0.139 1.535,1.098 3.138,2.023 4.988,2.519 1.317,0.354 2.594,0.858 3.881,1.318 0.424,0.152 0.819,0.534 1.234,0.544 1.589,0.037 3.001,0.75 4.515,1.059 2.229,0.456 4.441,1.064 6.612,-0.238 0.235,-0.141 0.623,-0.062 0.934,-0.031 0.313,0.03 0.631,0.219 0.928,0.182 2.927,-0.358 5.849,-0.753 8.773,-1.128 1.472,-0.188 2.949,-0.351 4.422,-0.537 1.166,-0.147 2.336,-0.27 3.492,-0.477 1.452,-0.261 2.89,-0.597 4.336,-0.897 0.072,-0.015 0.152,0.007 0.226,-0.006 0.679,-0.109 1.441,-0.063 2.019,-0.366 1.737,-0.907 3.404,-1.948 5.095,-2.943 0.516,-0.304 0.957,-0.892 1.667,-0.361 0.068,0.05 0.284,-0.064 0.415,-0.131 1.752,-0.899 3.648,-1.346 5.569,-1.644 1.359,-0.212 1.949,-1.273 2.725,-2.151 0.077,-0.086 0.032,-0.28 0.052,-0.534 -0.275,0.241 -0.47,0.412 -0.664,0.583 -0.057,-0.037 -0.115,-0.072 -0.173,-0.108 0.205,-0.345 0.338,-0.774 0.627,-1.016 1.199,-1.003 2.376,-2.034 3.56,-3.044 1.749,-1.495 3.097,-3.442 5.205,-4.551 0.804,-0.424 1.417,-1.208 2.13,-1.813 0.142,-0.122 0.341,-0.185 0.522,-0.255 1.615,-0.614 3.156,-1.302 3.921,-3.036 0.654,-1.481 1.318,-2.965 2.082,-4.392 0.372,-0.694 0.922,-1.323 1.498,-1.87 2.313,-2.197 4.776,-4.245 6.249,-7.183 0.509,-1.016 1.203,-1.937 1.797,-2.911 0.183,-0.3 0.338,-0.622 0.46,-0.951 0.52,-1.401 1.083,-2.789 1.513,-4.217 0.398,-1.326 0.668,-2.693 0.957,-4.051 0.215,-1.009 0.306,-2.047 0.567,-3.041 0.353,-1.344 1.039,-2.639 1.166,-3.993 0.129,-1.387 0.423,-2.71 0.736,-4.046 0.127,-0.549 0.428,-1.139 0.324,-1.642"
               style="fill:#231f20;fill-opacity:1;fill-rule:nonzero;stroke:none"
               id="path421" />
          </g>
        </g>
      </g>
    </g>
  </g>
</svg>
