<?xml version="1.0" encoding="UTF-8" standalone="no"?>
<!-- Created with Inkscape (http://www.inkscape.org/) -->

<svg
   width="23.999855"
   height="24"
   viewBox="0 0 6.3499615 6.35"
   version="1.1"
   id="svg6505"
   inkscape:version="1.2.1 (9c6d41e4, 2022-07-14)"
   sodipodi:docname="temporal-hunters.svg"
   xmlns:inkscape="http://www.inkscape.org/namespaces/inkscape"
   xmlns:sodipodi="http://sodipodi.sourceforge.net/DTD/sodipodi-0.dtd"
   xmlns="http://www.w3.org/2000/svg"
   xmlns:svg="http://www.w3.org/2000/svg">
  <sodipodi:namedview
     id="namedview6507"
     pagecolor="#505050"
     bordercolor="#eeeeee"
     borderopacity="1"
     inkscape:showpageshadow="0"
     inkscape:pageopacity="0"
     inkscape:pagecheckerboard="0"
     inkscape:deskcolor="#505050"
     inkscape:document-units="mm"
     showgrid="false"
     inkscape:zoom="0.7046647"
     inkscape:cx="-79.47042"
     inkscape:cy="119.91519"
     inkscape:window-width="1390"
     inkscape:window-height="941"
     inkscape:window-x="0"
     inkscape:window-y="25"
     inkscape:window-maximized="0"
     inkscape:current-layer="layer1" />
  <defs
     id="defs6502">
    <clipPath
       clipPathUnits="userSpaceOnUse"
       id="clipPath2405">
      <path
         d="m 159.654,640.424 h 22.76 v 22.76 h -22.76 z"
         id="path2403" />
    </clipPath>
  </defs>
  <g
     inkscape:label="Layer 1"
     inkscape:groupmode="layer"
     id="layer1"
     transform="translate(-125.9881,-116.97671)">
    <g
       id="g2399"
       transform="matrix(0.28639679,0,0,-0.28639679,80.179583,306.83026)">
      <g
         id="g2401"
         clip-path="url(#clipPath2405)">
        <g
           id="g2407"
           transform="matrix(0.1580564,0,0,-0.1580576,171.03365,651.80414)">
          <g
             id="g2409"
             transform="translate(-15.0532,-38.3369)">
            <path
               d="m 0,0 c -0.682,-0.001 -0.953,-0.017 -1.425,0.563 -0.437,0.536 -0.888,1.625 -0.467,2.306 0.189,0.305 0.889,0.623 1.241,0.739 0.436,0.144 0.892,0.199 1.348,0.194 C 1.109,3.797 1.564,3.867 1.971,3.819 2.541,3.751 2.769,3.127 2.985,2.632 3.174,2.2 3.254,1.743 3.467,1.316 3.665,0.921 3.816,0.623 3.813,0.164 3.807,-0.783 3.003,-1.54 2.328,-2.119 1.712,-2.645 1.005,-3.156 0.178,-3.141 c -0.923,0.017 -1.908,-0.108 -2.824,-0.017 -0.422,0.042 -0.672,0.387 -1.007,0.602 -0.45,0.289 -0.716,0.432 -1.04,0.885 -0.527,0.732 -0.855,1.39 -1.086,2.263 -0.434,1.637 -0.696,3.231 -0.33,4.907 0.17,0.781 0.629,1.667 1.114,2.308 0.246,0.324 0.58,0.58 0.935,0.786 0.174,0.102 0.323,0.168 0.508,0.258 0.092,0.044 0.156,0.168 0.249,0.203 0.187,0.071 0.309,-0.008 0.496,0.02 0.462,0.068 0.802,0.465 1.284,0.512 0.244,0.023 0.453,-0.039 0.694,0.025 0.33,0.089 0.629,0.334 0.962,0.43 0.588,0.168 1.179,0.138 1.758,0.28 0.391,0.096 0.952,0.191 1.336,0.006 C 3.601,10.146 3.924,9.823 4.286,9.615 4.596,9.438 4.944,9.509 5.251,9.384 5.534,9.269 5.735,8.96 5.945,8.751 6.196,8.501 6.368,8.223 6.598,7.962 6.839,7.69 7.171,7.518 7.437,7.268 7.988,6.751 8.457,6.056 8.754,5.367 9.041,4.702 9.252,4.207 9.247,3.473 9.245,3.112 9.415,2.146 9.259,1.805 9.113,1.481 8.047,1.651 7.735,1.651 H 6.296 C 6.03,1.651 5.603,1.568 5.354,1.644 5.114,1.716 5.144,1.697 5.115,1.966 5.062,2.458 5.181,2.667 4.837,3.104 4.433,3.62 4.076,4.054 3.798,4.632 3.614,5.015 3.317,5.443 2.968,5.71 2.76,5.869 2.522,5.95 2.312,6.106 2.095,6.267 1.928,6.494 1.651,6.572 1.407,6.641 1.154,6.628 0.908,6.688 0.643,6.753 0.448,6.772 0.165,6.771 -0.372,6.767 -0.773,6.811 -1.24,6.504 -1.608,6.263 -1.858,5.922 -2.184,5.654 -2.452,5.434 -2.552,5.244 -2.746,4.968 -2.973,4.646 -2.931,4.676 -2.968,4.29 -3.007,3.879 -3.256,3.493 -3.309,3.055 -3.334,2.846 -3.336,2.509 -3.269,2.308 -3.185,2.054 -2.981,2.017 -2.844,1.825 -2.661,1.568 -2.681,1.334 -2.4,1.148 -2.201,1.015 -1.963,0.998 -1.771,0.871 -1.609,0.764 -1.527,0.596 -1.325,0.528 -1.075,0.445 -0.754,0.495 0,0"
               style="fill:#231f20;fill-opacity:1;fill-rule:nonzero;stroke:none"
               id="path2411" />
          </g>
        </g>
        <g
           id="g2413"
           transform="matrix(0.1580564,0,0,-0.1580576,171.03365,651.80414)">
          <g
             id="g2415"
             transform="translate(-6.3008,-38.5019)">
            <path
               d="m 0,0 c 0.178,0.046 0.335,-0.028 0.437,-0.174 -0.583,0.033 -1.175,0.013 -1.758,0.008 -0.367,-0.002 -0.572,0.079 -0.908,0.152 -0.285,0.061 -0.615,0.007 -0.908,0.013 -0.398,0.008 -0.445,0.055 -0.499,-0.326 -0.052,-0.36 -0.087,-0.7 -0.148,-1.063 -0.116,-0.68 -0.051,-1.404 0.31,-1.995 0.232,-0.379 0.427,-0.569 0.869,-0.582 0.4,-0.013 0.694,-0.127 1.082,-0.17 0.676,-0.075 1.465,0.042 1.902,0.624 0.784,1.042 0.612,2.38 0.612,3.621 L 0.991,0"
               style="fill:#231f20;fill-opacity:1;fill-rule:nonzero;stroke:none"
               id="path2417" />
          </g>
        </g>
        <g
           id="g2419"
           transform="matrix(0.1580564,0,0,-0.1580576,171.03365,651.80414)">
          <g
             id="g2421"
             transform="translate(11.3232,-38.3369)">
            <path
               d="M 0,0 C 0.682,-0.001 0.953,-0.017 1.425,0.563 1.861,1.099 2.313,2.188 1.892,2.869 1.703,3.174 1.003,3.492 0.651,3.608 0.215,3.752 -0.241,3.807 -0.697,3.802 -1.109,3.797 -1.564,3.867 -1.971,3.819 -2.541,3.751 -2.77,3.127 -2.985,2.632 -3.174,2.2 -3.255,1.743 -3.468,1.316 -3.665,0.921 -3.816,0.623 -3.813,0.164 c 0.006,-0.947 0.809,-1.704 1.486,-2.283 0.615,-0.526 1.322,-1.037 2.149,-1.022 0.922,0.017 1.908,-0.108 2.824,-0.017 0.422,0.042 0.672,0.387 1.006,0.602 0.451,0.289 0.716,0.432 1.041,0.885 0.527,0.732 0.855,1.39 1.086,2.263 0.434,1.637 0.696,3.231 0.33,4.907 C 5.938,6.28 5.48,7.166 4.995,7.807 4.749,8.131 4.415,8.387 4.06,8.593 3.886,8.695 3.736,8.761 3.552,8.851 3.46,8.895 3.396,9.019 3.303,9.054 3.115,9.125 2.993,9.046 2.807,9.074 2.345,9.142 2.005,9.539 1.522,9.586 1.278,9.609 1.069,9.547 0.829,9.611 0.498,9.7 0.199,9.945 -0.134,10.041 c -0.587,0.168 -1.178,0.138 -1.758,0.28 -0.39,0.096 -0.951,0.191 -1.335,0.006 C -3.601,10.146 -3.924,9.823 -4.286,9.615 -4.596,9.438 -4.944,9.509 -5.252,9.384 -5.534,9.269 -5.735,8.96 -5.945,8.751 -6.196,8.501 -6.368,8.223 -6.598,7.962 -6.839,7.69 -7.171,7.518 -7.437,7.268 -7.988,6.751 -8.457,6.056 -8.754,5.367 -9.041,4.702 -9.252,4.207 -9.247,3.473 -9.245,3.112 -9.415,2.146 -9.26,1.805 -9.113,1.481 -8.048,1.651 -7.735,1.651 h 1.438 c 0.267,0 0.693,-0.083 0.943,-0.007 0.24,0.072 0.21,0.053 0.239,0.322 0.053,0.492 -0.066,0.701 0.277,1.138 0.405,0.516 0.762,0.95 1.039,1.528 0.185,0.383 0.482,0.811 0.831,1.078 0.208,0.159 0.446,0.24 0.655,0.396 0.217,0.161 0.384,0.388 0.662,0.466 0.244,0.069 0.497,0.056 0.743,0.116 0.265,0.065 0.46,0.084 0.743,0.083 C 0.372,6.767 0.772,6.811 1.24,6.504 1.608,6.263 1.858,5.922 2.184,5.654 2.451,5.434 2.552,5.244 2.746,4.968 2.973,4.646 2.931,4.676 2.968,4.29 3.008,3.879 3.256,3.493 3.309,3.055 3.334,2.846 3.336,2.509 3.269,2.308 3.185,2.054 2.98,2.017 2.844,1.825 2.661,1.568 2.681,1.334 2.4,1.148 2.201,1.015 1.963,0.998 1.771,0.871 1.609,0.764 1.527,0.596 1.325,0.528 1.075,0.445 0.754,0.495 0,0"
               style="fill:#231f20;fill-opacity:1;fill-rule:nonzero;stroke:none"
               id="path2423" />
          </g>
        </g>
        <g
           id="g2425"
           transform="matrix(0.1580564,0,0,-0.1580576,171.03365,651.80414)">
          <g
             id="g2427"
             transform="translate(2.5703,-38.5019)">
            <path
               d="m 0,0 c -0.178,0.046 -0.335,-0.028 -0.437,-0.174 0.583,0.033 1.175,0.013 1.758,0.008 0.367,-0.002 0.572,0.079 0.908,0.152 0.286,0.061 0.616,0.007 0.909,0.013 0.397,0.008 0.444,0.055 0.499,-0.326 0.051,-0.36 0.086,-0.7 0.147,-1.063 C 3.9,-2.07 3.836,-2.794 3.475,-3.385 3.242,-3.764 3.048,-3.954 2.605,-3.967 2.205,-3.98 1.911,-4.094 1.523,-4.137 0.848,-4.212 0.059,-4.095 -0.379,-3.513 -1.162,-2.471 -0.99,-1.133 -0.99,0.108 V 0"
               style="fill:#231f20;fill-opacity:1;fill-rule:nonzero;stroke:none"
               id="path2429" />
          </g>
        </g>
        <g
           id="g2431"
           transform="matrix(0.1580564,0,0,-0.1580576,171.03365,651.80414)">
          <g
             id="g2433"
             transform="translate(6.2949,-48.6704)">
            <path
               d="m 0,0 c -0.951,-3.319 -1.58,-6.716 -2.676,-10.002 -1.114,-3.341 -2.567,-6.552 -3.716,-9.881 -0.312,-0.476 -0.636,-0.972 -0.996,-1.41 -0.147,-0.179 -0.136,-0.281 -0.414,-0.26 -0.513,0.039 -0.836,1.116 -1.033,1.486 -0.572,1.071 -0.939,2.227 -1.276,3.393 -0.412,1.43 -1.214,2.698 -1.708,4.102 -0.218,0.62 -0.434,1.269 -0.571,1.915 -0.132,0.63 -0.193,1.246 -0.448,1.847 -0.425,1.005 -0.891,1.928 -1.178,2.988 -0.323,1.199 -0.878,2.335 -1.102,3.559 -0.178,0.977 -0.258,1.961 -0.512,2.917 -0.252,0.947 -0.36,1.939 -0.429,2.908 -0.026,0.364 -0.162,0.702 -0.176,1.067 -0.006,0.141 0.006,0.28 -0.006,0.417 0.02,0.022 0.041,0.045 0.059,0.065 0.075,-0.2 0.194,-0.398 0.243,-0.595 0.129,-0.531 0.225,-0.988 0.532,-1.453 0.302,-0.456 0.718,-0.984 1.16,-1.325 0.308,-0.238 0.688,-0.385 0.999,-0.607 0.165,-0.117 0.23,-0.274 0.407,-0.38 0.269,-0.162 0.65,-0.157 0.943,-0.272 0.608,-0.241 1.087,-0.708 1.746,-0.846 0.93,-0.195 1.933,0.045 2.84,0.132 0.535,0.051 1.016,0.318 1.56,0.336 0.253,0.008 0.497,-0.051 0.749,0.018 0.299,0.082 0.537,0.31 0.824,0.426 0.714,0.291 1.042,0.881 1.677,1.291 0.523,0.338 0.955,0.374 1.31,0.906 0.203,0.306 0.438,0.524 0.651,0.821 0.268,0.374 0.318,0.558 0.455,0.991 0.096,0.304 0.2,0.591 0.33,0.866 C 0.332,5.607 0.656,5.947 0.619,6.151 0.572,4.767 0.401,3.417 0.14,2.068 0.005,1.37 0.028,0.687 0,0"
               style="fill:#231f20;fill-opacity:1;fill-rule:nonzero;stroke:none"
               id="path2435" />
          </g>
        </g>
        <g
           id="g2437"
           transform="matrix(0.1580564,0,0,-0.1580576,171.03365,651.80414)">
          <g
             id="g2439"
             transform="translate(11.3232,38.1626)">
            <path
               d="M 0,0 C 0.682,0.001 0.953,0.017 1.425,-0.563 1.861,-1.099 2.313,-2.188 1.892,-2.869 1.703,-3.174 1.003,-3.491 0.651,-3.608 0.215,-3.753 -0.241,-3.807 -0.697,-3.802 c -0.412,0.004 -0.867,-0.065 -1.274,-0.017 -0.57,0.067 -0.799,0.692 -1.014,1.186 -0.189,0.434 -0.27,0.89 -0.483,1.317 -0.197,0.395 -0.348,0.693 -0.345,1.152 0.006,0.947 0.809,1.704 1.486,2.282 0.615,0.527 1.322,1.038 2.149,1.023 C 0.744,3.124 1.73,3.248 2.646,3.158 3.068,3.116 3.318,2.771 3.652,2.556 4.103,2.267 4.368,2.123 4.693,1.671 5.22,0.939 5.548,0.281 5.779,-0.592 6.213,-2.229 6.475,-3.823 6.109,-5.499 5.938,-6.28 5.48,-7.166 4.995,-7.807 4.749,-8.132 4.415,-8.387 4.06,-8.594 3.886,-8.694 3.736,-8.762 3.552,-8.851 3.46,-8.895 3.396,-9.02 3.303,-9.055 3.115,-9.125 2.993,-9.047 2.807,-9.074 2.345,-9.142 2.005,-9.539 1.522,-9.586 1.278,-9.609 1.069,-9.547 0.829,-9.611 0.498,-9.7 0.199,-9.945 -0.134,-10.041 c -0.587,-0.168 -1.178,-0.139 -1.758,-0.28 -0.39,-0.096 -0.951,-0.191 -1.335,-0.006 -0.374,0.181 -0.697,0.504 -1.059,0.712 -0.31,0.177 -0.658,0.105 -0.966,0.231 -0.282,0.115 -0.483,0.423 -0.693,0.632 -0.251,0.251 -0.423,0.529 -0.653,0.789 -0.241,0.273 -0.573,0.445 -0.839,0.695 -0.551,0.516 -1.02,1.212 -1.317,1.901 -0.287,0.665 -0.498,1.16 -0.493,1.894 0.002,0.361 -0.168,1.327 -0.013,1.668 0.147,0.324 1.212,0.154 1.525,0.154 h 1.438 c 0.267,0 0.693,0.083 0.943,0.007 0.24,-0.072 0.21,-0.053 0.239,-0.323 0.053,-0.492 -0.066,-0.701 0.277,-1.137 0.405,-0.516 0.762,-0.95 1.039,-1.529 0.185,-0.383 0.482,-0.81 0.831,-1.077 0.208,-0.159 0.446,-0.239 0.655,-0.396 0.217,-0.162 0.384,-0.387 0.662,-0.466 0.244,-0.07 0.497,-0.056 0.743,-0.116 0.265,-0.065 0.46,-0.084 0.743,-0.083 0.537,0.004 0.937,-0.04 1.405,0.267 0.368,0.241 0.618,0.582 0.944,0.85 0.267,0.219 0.368,0.41 0.562,0.686 0.227,0.322 0.185,0.291 0.222,0.678 0.04,0.411 0.288,0.797 0.341,1.235 0.025,0.208 0.027,0.545 -0.04,0.746 C 3.185,-2.055 2.98,-2.018 2.844,-1.825 2.661,-1.568 2.681,-1.335 2.4,-1.148 2.201,-1.016 1.963,-0.998 1.771,-0.871 1.609,-0.765 1.527,-0.596 1.325,-0.528 1.075,-0.445 0.754,-0.495 0,0"
               style="fill:#231f20;fill-opacity:1;fill-rule:nonzero;stroke:none"
               id="path2441" />
          </g>
        </g>
        <g
           id="g2443"
           transform="matrix(0.1580564,0,0,-0.1580576,171.03365,651.80414)">
          <g
             id="g2445"
             transform="translate(2.5703,38.3276)">
            <path
               d="M 0,0 C -0.178,-0.046 -0.335,0.028 -0.437,0.174 0.146,0.141 0.738,0.161 1.321,0.165 1.688,0.168 1.893,0.087 2.229,0.014 2.515,-0.048 2.845,0.007 3.138,0.001 3.535,-0.007 3.582,-0.054 3.637,0.327 3.688,0.687 3.723,1.027 3.784,1.39 3.9,2.07 3.836,2.794 3.475,3.385 3.242,3.764 3.048,3.953 2.605,3.967 2.205,3.979 1.911,4.094 1.523,4.137 0.848,4.212 0.059,4.095 -0.379,3.514 -1.162,2.471 -0.99,1.133 -0.99,-0.108 V 0"
               style="fill:#231f20;fill-opacity:1;fill-rule:nonzero;stroke:none"
               id="path2447" />
          </g>
        </g>
        <g
           id="g2449"
           transform="matrix(0.1580564,0,0,-0.1580576,171.03365,651.80414)">
          <g
             id="g2451"
             transform="translate(-15.0532,38.1626)">
            <path
               d="m 0,0 c -0.682,0.001 -0.953,0.017 -1.425,-0.563 -0.437,-0.536 -0.888,-1.625 -0.467,-2.306 0.189,-0.305 0.889,-0.622 1.241,-0.739 0.436,-0.145 0.892,-0.199 1.348,-0.194 0.412,0.004 0.867,-0.065 1.274,-0.017 0.57,0.067 0.798,0.692 1.014,1.186 0.189,0.434 0.269,0.89 0.482,1.317 0.198,0.395 0.349,0.693 0.346,1.152 C 3.807,0.783 3.003,1.54 2.328,2.118 1.712,2.645 1.005,3.156 0.178,3.141 -0.745,3.124 -1.73,3.248 -2.646,3.158 -3.068,3.116 -3.318,2.771 -3.653,2.556 -4.103,2.267 -4.369,2.123 -4.693,1.671 -5.22,0.939 -5.548,0.281 -5.779,-0.592 c -0.434,-1.637 -0.696,-3.231 -0.33,-4.907 0.17,-0.781 0.629,-1.667 1.114,-2.308 0.246,-0.325 0.58,-0.58 0.935,-0.787 0.174,-0.1 0.323,-0.168 0.508,-0.257 0.092,-0.044 0.156,-0.169 0.249,-0.204 0.187,-0.07 0.309,0.008 0.496,-0.019 0.462,-0.068 0.802,-0.465 1.284,-0.512 0.244,-0.023 0.453,0.039 0.694,-0.025 0.33,-0.089 0.629,-0.334 0.962,-0.43 0.588,-0.168 1.179,-0.139 1.758,-0.28 0.391,-0.096 0.952,-0.191 1.336,-0.006 0.374,0.181 0.697,0.504 1.059,0.712 0.31,0.177 0.658,0.105 0.965,0.231 0.283,0.115 0.484,0.423 0.694,0.632 0.251,0.251 0.423,0.529 0.653,0.789 0.241,0.273 0.573,0.445 0.839,0.695 0.551,0.516 1.02,1.212 1.317,1.901 0.287,0.665 0.498,1.16 0.493,1.894 -0.002,0.361 0.168,1.327 0.012,1.668 -0.146,0.324 -1.212,0.154 -1.524,0.154 H 6.296 c -0.266,0 -0.693,0.083 -0.942,0.007 C 5.114,-1.716 5.144,-1.697 5.115,-1.967 5.062,-2.459 5.181,-2.668 4.837,-3.104 4.433,-3.62 4.076,-4.054 3.798,-4.633 3.614,-5.016 3.317,-5.443 2.968,-5.71 2.76,-5.869 2.522,-5.949 2.312,-6.106 2.095,-6.268 1.928,-6.493 1.651,-6.572 1.407,-6.642 1.154,-6.628 0.908,-6.688 0.643,-6.753 0.448,-6.772 0.165,-6.771 c -0.537,0.004 -0.938,-0.04 -1.405,0.267 -0.368,0.241 -0.618,0.582 -0.944,0.85 -0.268,0.219 -0.368,0.41 -0.562,0.686 -0.227,0.322 -0.185,0.291 -0.222,0.678 -0.039,0.411 -0.288,0.797 -0.341,1.235 -0.025,0.208 -0.027,0.545 0.04,0.746 0.084,0.254 0.288,0.291 0.425,0.484 0.183,0.257 0.163,0.49 0.444,0.677 0.199,0.132 0.437,0.15 0.629,0.277 0.162,0.106 0.244,0.275 0.446,0.343 C -1.075,-0.445 -0.754,-0.495 0,0"
               style="fill:#231f20;fill-opacity:1;fill-rule:nonzero;stroke:none"
               id="path2453" />
          </g>
        </g>
        <g
           id="g2455"
           transform="matrix(0.1580564,0,0,-0.1580576,171.03365,651.80414)">
          <g
             id="g2457"
             transform="translate(-6.3008,38.3276)">
            <path
               d="M 0,0 C 0.178,-0.046 0.335,0.028 0.437,0.174 -0.146,0.141 -0.738,0.161 -1.321,0.165 -1.688,0.168 -1.893,0.087 -2.229,0.014 -2.514,-0.048 -2.844,0.007 -3.137,0.001 c -0.398,-0.008 -0.445,-0.055 -0.499,0.326 -0.052,0.36 -0.087,0.7 -0.148,1.063 -0.116,0.68 -0.051,1.404 0.31,1.995 0.232,0.379 0.427,0.568 0.869,0.582 0.4,0.012 0.694,0.127 1.082,0.17 C -0.847,4.212 -0.058,4.095 0.379,3.514 1.163,2.471 0.991,1.133 0.991,-0.108 V 0"
               style="fill:#231f20;fill-opacity:1;fill-rule:nonzero;stroke:none"
               id="path2459" />
          </g>
        </g>
        <g
           id="g2461"
           transform="matrix(0.1580564,0,0,-0.1580576,171.03365,651.80414)">
          <g
             id="g2463"
             transform="translate(-10.0244,48.4956)">
            <path
               d="m 0,0 c 0.951,3.319 1.579,6.716 2.675,10.003 1.115,3.34 2.568,6.552 3.716,9.88 0.312,0.476 0.636,0.972 0.996,1.41 0.147,0.179 0.136,0.281 0.415,0.261 0.512,-0.039 0.835,-1.116 1.032,-1.487 0.572,-1.071 0.94,-2.226 1.276,-3.392 0.413,-1.431 1.214,-2.699 1.708,-4.103 0.218,-0.62 0.435,-1.268 0.571,-1.915 0.132,-0.63 0.194,-1.246 0.448,-1.846 0.426,-1.005 0.892,-1.929 1.178,-2.989 0.324,-1.199 0.878,-2.335 1.102,-3.559 0.179,-0.977 0.258,-1.96 0.513,-2.917 0.252,-0.946 0.359,-1.939 0.429,-2.908 0.025,-0.364 0.161,-0.702 0.175,-1.067 0.006,-0.14 -0.006,-0.279 0.006,-0.416 -0.02,-0.022 -0.041,-0.046 -0.058,-0.066 -0.076,0.2 -0.195,0.399 -0.243,0.595 -0.13,0.532 -0.226,0.989 -0.533,1.453 -0.302,0.457 -0.718,0.985 -1.16,1.326 -0.308,0.238 -0.687,0.384 -0.999,0.606 -0.165,0.117 -0.23,0.275 -0.406,0.38 -0.27,0.162 -0.651,0.157 -0.944,0.272 C 11.289,-0.237 10.81,0.229 10.152,0.367 9.221,0.562 8.219,0.322 7.311,0.235 6.776,0.185 6.295,-0.083 5.751,-0.101 5.499,-0.109 5.254,-0.05 5.002,-0.119 4.704,-0.201 4.465,-0.429 4.178,-0.545 3.465,-0.836 3.136,-1.426 2.501,-1.836 1.979,-2.174 1.546,-2.21 1.192,-2.741 0.989,-3.048 0.753,-3.266 0.541,-3.563 0.273,-3.936 0.222,-4.12 0.085,-4.554 c -0.096,-0.303 -0.2,-0.59 -0.33,-0.866 -0.088,-0.186 -0.412,-0.526 -0.375,-0.73 0.047,1.383 0.218,2.734 0.479,4.082 C -0.005,-1.369 -0.029,-0.687 0,0"
               style="fill:#231f20;fill-opacity:1;fill-rule:nonzero;stroke:none"
               id="path2465" />
          </g>
        </g>
        <g
           id="g2467"
           transform="matrix(0.1580564,0,0,-0.1580576,171.03365,651.80414)">
          <g
             id="g2469"
             transform="translate(-38.25,13.1011)">
            <path
               d="M 0,0 C 0,0.682 -0.017,0.953 0.563,1.425 1.099,1.861 2.189,2.313 2.869,1.892 3.174,1.703 3.492,1.003 3.608,0.651 3.753,0.215 3.807,-0.241 3.802,-0.697 3.798,-1.109 3.868,-1.564 3.819,-1.971 3.752,-2.541 3.127,-2.77 2.633,-2.985 2.2,-3.174 1.743,-3.255 1.316,-3.468 0.921,-3.665 0.623,-3.816 0.164,-3.813 c -0.947,0.006 -1.704,0.809 -2.282,1.486 -0.527,0.615 -1.038,1.322 -1.023,2.149 0.017,0.922 -0.108,1.908 -0.017,2.824 0.042,0.422 0.387,0.672 0.602,1.006 0.29,0.451 0.433,0.716 0.885,1.041 0.732,0.527 1.39,0.855 2.263,1.086 1.637,0.434 3.232,0.696 4.907,0.33 C 6.28,5.938 7.167,5.48 7.807,4.995 8.132,4.748 8.387,4.415 8.594,4.06 8.695,3.886 8.762,3.736 8.851,3.552 8.895,3.46 9.019,3.396 9.055,3.303 9.125,3.115 9.047,2.993 9.074,2.807 9.142,2.345 9.539,2.005 9.586,1.522 9.61,1.278 9.547,1.069 9.612,0.829 9.7,0.498 9.945,0.199 10.041,-0.134 c 0.168,-0.587 0.139,-1.178 0.28,-1.758 0.096,-0.39 0.191,-0.951 0.006,-1.335 C 10.147,-3.601 9.823,-3.924 9.616,-4.286 9.438,-4.596 9.51,-4.944 9.384,-5.252 9.269,-5.534 8.961,-5.735 8.752,-5.945 8.501,-6.196 8.223,-6.368 7.963,-6.598 7.69,-6.839 7.518,-7.171 7.268,-7.437 6.751,-7.988 6.056,-8.457 5.367,-8.754 4.702,-9.041 4.208,-9.252 3.473,-9.247 3.112,-9.245 2.147,-9.415 1.805,-9.26 1.481,-9.113 1.651,-8.048 1.651,-7.735 v 1.438 c 0,0.267 -0.082,0.693 -0.007,0.943 0.072,0.24 0.053,0.209 0.323,0.239 0.492,0.053 0.701,-0.066 1.138,0.277 0.515,0.405 0.949,0.762 1.528,1.039 0.382,0.185 0.81,0.482 1.077,0.831 0.159,0.208 0.24,0.446 0.396,0.655 0.162,0.217 0.388,0.384 0.466,0.662 0.07,0.244 0.056,0.497 0.116,0.743 0.065,0.265 0.085,0.46 0.083,0.743 C 6.767,0.372 6.811,0.772 6.504,1.24 6.263,1.608 5.922,1.858 5.655,2.184 5.435,2.451 5.244,2.552 4.968,2.746 4.647,2.973 4.677,2.931 4.29,2.968 3.879,3.008 3.493,3.256 3.055,3.309 2.846,3.334 2.51,3.336 2.308,3.269 2.055,3.185 2.018,2.98 1.825,2.844 1.568,2.661 1.335,2.681 1.148,2.4 1.016,2.201 0.998,1.963 0.871,1.771 0.765,1.609 0.596,1.527 0.528,1.324 0.445,1.075 0.495,0.754 0,0"
               style="fill:#231f20;fill-opacity:1;fill-rule:nonzero;stroke:none"
               id="path2471" />
          </g>
        </g>
        <g
           id="g2473"
           transform="matrix(0.1580564,0,0,-0.1580576,171.03365,651.80414)">
          <g
             id="g2475"
             transform="translate(-38.415,4.3482)">
            <path
               d="m 0,0 c 0.046,-0.178 -0.028,-0.335 -0.173,-0.437 0.032,0.583 0.012,1.175 0.008,1.758 -0.002,0.367 0.078,0.572 0.151,0.908 C 0.048,2.515 -0.006,2.845 0,3.138 0.007,3.535 0.054,3.582 -0.327,3.637 -0.687,3.688 -1.027,3.723 -1.39,3.784 -2.07,3.9 -2.794,3.836 -3.385,3.475 -3.763,3.242 -3.953,3.048 -3.967,2.605 -3.979,2.205 -4.094,1.911 -4.137,1.523 -4.212,0.848 -4.095,0.059 -3.513,-0.379 -2.47,-1.162 -1.133,-0.99 0.109,-0.99 H 0"
               style="fill:#231f20;fill-opacity:1;fill-rule:nonzero;stroke:none"
               id="path2477" />
          </g>
        </g>
        <g
           id="g2479"
           transform="matrix(0.1580564,0,0,-0.1580576,171.03365,651.80414)">
          <g
             id="g2481"
             transform="translate(-38.25,-13.2754)">
            <path
               d="m 0,0 c 0,-0.682 -0.017,-0.953 0.563,-1.425 0.536,-0.437 1.626,-0.888 2.306,-0.467 0.305,0.189 0.623,0.889 0.739,1.241 0.145,0.436 0.199,0.892 0.194,1.348 C 3.798,1.109 3.868,1.564 3.819,1.971 3.752,2.541 3.127,2.769 2.633,2.985 2.2,3.174 1.743,3.254 1.316,3.467 0.921,3.665 0.623,3.816 0.164,3.813 -0.783,3.807 -1.54,3.003 -2.118,2.327 -2.645,1.712 -3.156,1.005 -3.141,0.178 c 0.017,-0.923 -0.108,-1.908 -0.017,-2.824 0.042,-0.422 0.387,-0.672 0.602,-1.007 0.29,-0.45 0.433,-0.716 0.885,-1.041 0.732,-0.526 1.39,-0.854 2.263,-1.085 1.637,-0.434 3.232,-0.696 4.907,-0.33 0.781,0.17 1.668,0.629 2.308,1.114 0.325,0.246 0.58,0.58 0.787,0.935 0.101,0.174 0.168,0.323 0.257,0.508 0.044,0.092 0.168,0.156 0.204,0.249 0.07,0.187 -0.008,0.309 0.019,0.496 0.068,0.462 0.465,0.802 0.512,1.284 0.024,0.244 -0.039,0.453 0.026,0.694 0.088,0.33 0.333,0.629 0.429,0.962 0.168,0.588 0.139,1.179 0.28,1.758 0.096,0.391 0.191,0.952 0.006,1.336 C 10.147,3.601 9.823,3.923 9.616,4.286 9.438,4.596 9.51,4.944 9.384,5.251 9.269,5.534 8.961,5.735 8.752,5.945 8.501,6.196 8.223,6.368 7.963,6.598 7.69,6.839 7.518,7.171 7.268,7.437 6.751,7.988 6.056,8.457 5.367,8.754 4.702,9.041 4.208,9.252 3.473,9.247 3.112,9.245 2.147,9.415 1.805,9.259 1.481,9.113 1.651,8.047 1.651,7.735 V 6.296 C 1.651,6.03 1.569,5.603 1.644,5.354 1.716,5.114 1.697,5.144 1.967,5.115 2.459,5.062 2.668,5.181 3.105,4.837 3.62,4.433 4.054,4.076 4.633,3.798 5.015,3.614 5.443,3.317 5.71,2.968 5.869,2.76 5.95,2.522 6.106,2.312 6.268,2.095 6.494,1.928 6.572,1.651 6.642,1.407 6.628,1.154 6.688,0.908 6.753,0.643 6.773,0.448 6.771,0.165 6.767,-0.372 6.811,-0.773 6.504,-1.24 6.263,-1.608 5.922,-1.858 5.655,-2.184 5.435,-2.452 5.244,-2.552 4.968,-2.747 4.647,-2.973 4.677,-2.931 4.29,-2.968 3.879,-3.007 3.493,-3.256 3.055,-3.309 2.846,-3.334 2.51,-3.336 2.308,-3.269 2.055,-3.185 2.018,-2.981 1.825,-2.844 1.568,-2.661 1.335,-2.681 1.148,-2.4 1.016,-2.201 0.998,-1.963 0.871,-1.771 0.765,-1.609 0.596,-1.527 0.528,-1.325 0.445,-1.075 0.495,-0.754 0,0"
               style="fill:#231f20;fill-opacity:1;fill-rule:nonzero;stroke:none"
               id="path2483" />
          </g>
        </g>
        <g
           id="g2485"
           transform="matrix(0.1580564,0,0,-0.1580576,171.03365,651.80414)">
          <g
             id="g2487"
             transform="translate(-38.415,-4.5229)">
            <path
               d="m 0,0 c 0.046,0.178 -0.028,0.335 -0.173,0.437 0.032,-0.583 0.012,-1.175 0.008,-1.758 -0.002,-0.367 0.078,-0.572 0.151,-0.908 0.062,-0.285 0.008,-0.615 0.014,-0.908 0.007,-0.398 0.054,-0.445 -0.327,-0.499 -0.36,-0.052 -0.7,-0.087 -1.063,-0.148 -0.68,-0.116 -1.404,-0.052 -1.995,0.31 -0.378,0.232 -0.568,0.427 -0.582,0.869 -0.012,0.4 -0.127,0.694 -0.17,1.082 -0.075,0.676 0.042,1.465 0.624,1.902 1.043,0.784 2.38,0.612 3.622,0.612 L 0,0.991"
               style="fill:#231f20;fill-opacity:1;fill-rule:nonzero;stroke:none"
               id="path2489" />
          </g>
        </g>
        <g
           id="g2491"
           transform="matrix(0.1580564,0,0,-0.1580576,171.03365,651.80414)">
          <g
             id="g2493"
             transform="translate(-48.583,-8.2466)">
            <path
               d="m 0,0 c -3.32,0.951 -6.716,1.579 -10.003,2.675 -3.34,1.115 -6.551,2.568 -9.88,3.716 -0.476,0.312 -0.972,0.636 -1.41,0.996 -0.179,0.147 -0.282,0.136 -0.26,0.415 0.039,0.512 1.115,0.835 1.485,1.032 1.072,0.572 2.228,0.94 3.393,1.276 1.431,0.412 2.699,1.214 4.103,1.708 0.62,0.218 1.269,0.435 1.914,0.571 0.631,0.132 1.247,0.194 1.847,0.448 1.005,0.426 1.929,0.892 2.989,1.178 1.199,0.324 2.335,0.878 3.559,1.102 0.977,0.179 1.961,0.258 2.917,0.513 0.946,0.252 1.939,0.359 2.908,0.429 0.364,0.025 0.702,0.161 1.067,0.175 0.14,0.006 0.279,-0.006 0.416,0.006 C 5.068,16.22 5.091,16.199 5.111,16.182 4.911,16.106 4.712,15.987 4.516,15.939 3.985,15.809 3.528,15.713 3.063,15.406 2.607,15.104 2.079,14.688 1.737,14.246 1.5,13.938 1.353,13.559 1.131,13.247 1.014,13.082 0.856,13.017 0.751,12.841 0.589,12.571 0.594,12.19 0.478,11.897 0.238,11.289 -0.229,10.811 -0.367,10.151 -0.562,9.221 -0.322,8.219 -0.236,7.311 -0.185,6.776 0.083,6.295 0.101,5.751 0.109,5.499 0.05,5.254 0.119,5.002 0.201,4.704 0.429,4.465 0.545,4.178 0.835,3.465 1.426,3.136 1.836,2.501 2.174,1.979 2.21,1.546 2.742,1.192 3.048,0.989 3.266,0.753 3.563,0.541 3.936,0.273 4.121,0.222 4.553,0.085 4.858,-0.011 5.144,-0.115 5.419,-0.245 5.606,-0.333 5.947,-0.657 6.151,-0.62 4.767,-0.573 3.416,-0.402 2.068,-0.141 1.37,-0.005 0.687,-0.029 0,0"
               style="fill:#231f20;fill-opacity:1;fill-rule:nonzero;stroke:none"
               id="path2495" />
          </g>
        </g>
        <g
           id="g2497"
           transform="matrix(0.1580564,0,0,-0.1580576,171.03365,651.80414)">
          <g
             id="g2499"
             transform="translate(38.25,-13.2754)">
            <path
               d="m 0,0 c 0.001,-0.682 0.017,-0.953 -0.563,-1.425 -0.537,-0.437 -1.625,-0.888 -2.306,-0.467 -0.306,0.189 -0.623,0.889 -0.739,1.241 -0.145,0.436 -0.199,0.892 -0.194,1.348 0.004,0.412 -0.066,0.867 -0.017,1.274 0.067,0.57 0.692,0.798 1.186,1.014 0.433,0.189 0.89,0.269 1.317,0.482 0.394,0.198 0.693,0.349 1.152,0.346 C 0.783,3.807 1.54,3.003 2.118,2.327 2.645,1.712 3.156,1.005 3.141,0.178 3.124,-0.745 3.248,-1.73 3.157,-2.646 3.116,-3.068 2.771,-3.318 2.556,-3.653 2.267,-4.103 2.123,-4.369 1.671,-4.694 0.939,-5.22 0.281,-5.548 -0.592,-5.779 c -1.637,-0.434 -3.231,-0.696 -4.907,-0.33 -0.781,0.17 -1.667,0.629 -2.308,1.114 -0.325,0.246 -0.58,0.58 -0.787,0.935 -0.101,0.174 -0.168,0.323 -0.257,0.508 -0.045,0.092 -0.169,0.156 -0.204,0.249 -0.07,0.187 0.008,0.309 -0.019,0.496 -0.069,0.462 -0.465,0.802 -0.512,1.284 -0.024,0.244 0.039,0.453 -0.025,0.694 -0.089,0.33 -0.334,0.629 -0.43,0.962 -0.169,0.588 -0.139,1.179 -0.28,1.758 -0.096,0.391 -0.191,0.952 -0.006,1.336 0.181,0.374 0.504,0.696 0.712,1.059 0.177,0.31 0.105,0.658 0.231,0.965 0.114,0.283 0.423,0.484 0.632,0.694 0.251,0.251 0.529,0.423 0.789,0.653 0.273,0.241 0.445,0.573 0.694,0.839 0.517,0.551 1.213,1.02 1.902,1.317 0.665,0.287 1.16,0.498 1.894,0.493 0.361,-0.002 1.327,0.168 1.668,0.012 0.324,-0.146 0.154,-1.212 0.154,-1.524 V 6.296 c 0,-0.266 0.082,-0.693 0.006,-0.942 C -1.716,5.114 -1.697,5.144 -1.967,5.115 -2.459,5.062 -2.668,5.181 -3.104,4.837 -3.62,4.433 -4.054,4.076 -4.633,3.798 -5.016,3.614 -5.443,3.317 -5.71,2.968 -5.869,2.76 -5.95,2.522 -6.106,2.312 -6.268,2.095 -6.494,1.928 -6.572,1.651 -6.642,1.407 -6.628,1.154 -6.688,0.908 -6.753,0.643 -6.772,0.448 -6.771,0.165 c 0.003,-0.537 -0.04,-0.938 0.266,-1.405 0.242,-0.368 0.583,-0.618 0.85,-0.944 0.22,-0.268 0.411,-0.368 0.687,-0.563 0.322,-0.226 0.291,-0.184 0.678,-0.221 0.411,-0.039 0.797,-0.288 1.234,-0.341 0.209,-0.025 0.546,-0.027 0.747,0.04 0.254,0.084 0.291,0.288 0.484,0.425 0.257,0.183 0.49,0.163 0.677,0.444 0.132,0.199 0.15,0.437 0.277,0.629 0.106,0.162 0.275,0.244 0.343,0.446 C -0.445,-1.075 -0.495,-0.754 0,0"
               style="fill:#231f20;fill-opacity:1;fill-rule:nonzero;stroke:none"
               id="path2501" />
          </g>
        </g>
        <g
           id="g2503"
           transform="matrix(0.1580564,0,0,-0.1580576,171.03365,651.80414)">
          <g
             id="g2505"
             transform="translate(38.415,-4.5229)">
            <path
               d="M 0,0 C -0.046,0.178 0.028,0.335 0.174,0.437 0.141,-0.146 0.161,-0.738 0.165,-1.321 0.168,-1.688 0.087,-1.893 0.014,-2.229 -0.048,-2.514 0.006,-2.844 0,-3.137 c -0.008,-0.398 -0.054,-0.445 0.327,-0.499 0.36,-0.052 0.7,-0.087 1.063,-0.148 0.68,-0.116 1.404,-0.052 1.995,0.31 0.379,0.232 0.568,0.427 0.582,0.869 0.012,0.4 0.127,0.694 0.17,1.082 0.075,0.676 -0.042,1.465 -0.624,1.902 -1.042,0.784 -2.38,0.612 -3.621,0.612 H 0"
               style="fill:#231f20;fill-opacity:1;fill-rule:nonzero;stroke:none"
               id="path2507" />
          </g>
        </g>
        <g
           id="g2509"
           transform="matrix(0.1580564,0,0,-0.1580576,171.03365,651.80414)">
          <g
             id="g2511"
             transform="translate(38.25,13.1011)">
            <path
               d="M 0,0 C 0.001,0.682 0.017,0.953 -0.563,1.425 -1.1,1.861 -2.188,2.313 -2.869,1.892 -3.175,1.703 -3.492,1.003 -3.608,0.651 -3.753,0.215 -3.807,-0.241 -3.802,-0.697 c 0.004,-0.412 -0.066,-0.867 -0.017,-1.274 0.067,-0.57 0.692,-0.799 1.186,-1.014 0.433,-0.189 0.89,-0.27 1.317,-0.483 0.394,-0.197 0.693,-0.348 1.152,-0.345 0.947,0.006 1.704,0.809 2.282,1.486 0.527,0.615 1.038,1.322 1.023,2.149 C 3.124,0.744 3.248,1.73 3.157,2.646 3.116,3.068 2.771,3.318 2.556,3.652 2.267,4.103 2.123,4.368 1.671,4.693 0.939,5.22 0.281,5.548 -0.592,5.779 -2.229,6.213 -3.823,6.475 -5.499,6.109 -6.28,5.938 -7.166,5.48 -7.807,4.995 -8.132,4.748 -8.387,4.415 -8.594,4.06 -8.695,3.886 -8.762,3.736 -8.851,3.552 -8.896,3.46 -9.02,3.396 -9.055,3.303 -9.125,3.115 -9.047,2.993 -9.074,2.807 -9.143,2.345 -9.539,2.005 -9.586,1.522 -9.61,1.278 -9.547,1.069 -9.611,0.829 -9.7,0.498 -9.945,0.199 -10.041,-0.134 c -0.169,-0.587 -0.139,-1.178 -0.28,-1.758 -0.096,-0.39 -0.191,-0.951 -0.006,-1.335 0.181,-0.374 0.504,-0.697 0.712,-1.059 0.177,-0.31 0.105,-0.658 0.231,-0.966 0.114,-0.282 0.423,-0.483 0.632,-0.693 0.251,-0.251 0.529,-0.423 0.789,-0.653 0.273,-0.241 0.445,-0.573 0.694,-0.839 0.517,-0.551 1.213,-1.02 1.902,-1.317 0.665,-0.287 1.16,-0.498 1.894,-0.493 0.361,0.002 1.327,-0.168 1.668,-0.013 0.324,0.147 0.154,1.212 0.154,1.525 v 1.438 c 0,0.267 0.082,0.693 0.006,0.943 -0.071,0.24 -0.052,0.209 -0.322,0.239 -0.492,0.053 -0.701,-0.066 -1.137,0.277 -0.516,0.405 -0.95,0.762 -1.529,1.039 -0.383,0.185 -0.81,0.482 -1.077,0.831 -0.159,0.208 -0.24,0.446 -0.396,0.655 -0.162,0.217 -0.388,0.384 -0.466,0.662 -0.07,0.244 -0.056,0.497 -0.116,0.743 -0.065,0.265 -0.084,0.46 -0.083,0.743 0.003,0.537 -0.04,0.937 0.266,1.405 0.242,0.368 0.583,0.618 0.85,0.944 0.22,0.267 0.411,0.368 0.687,0.562 0.322,0.227 0.291,0.185 0.678,0.222 0.411,0.04 0.797,0.288 1.234,0.341 0.209,0.025 0.546,0.027 0.747,-0.04 C -2.055,3.185 -2.018,2.98 -1.825,2.844 -1.568,2.661 -1.335,2.681 -1.148,2.4 -1.016,2.201 -0.998,1.963 -0.871,1.771 -0.765,1.609 -0.596,1.527 -0.528,1.324 -0.445,1.075 -0.495,0.754 0,0"
               style="fill:#231f20;fill-opacity:1;fill-rule:nonzero;stroke:none"
               id="path2513" />
          </g>
        </g>
        <g
           id="g2515"
           transform="matrix(0.1580564,0,0,-0.1580576,171.03365,651.80414)">
          <g
             id="g2517"
             transform="translate(38.415,4.3482)">
            <path
               d="M 0,0 C -0.046,-0.178 0.028,-0.335 0.174,-0.437 0.141,0.146 0.161,0.738 0.165,1.321 0.168,1.688 0.087,1.893 0.014,2.229 -0.048,2.515 0.006,2.845 0,3.138 -0.008,3.535 -0.054,3.582 0.327,3.637 0.687,3.688 1.027,3.723 1.39,3.784 2.07,3.9 2.794,3.836 3.385,3.475 3.764,3.242 3.953,3.048 3.967,2.605 3.979,2.205 4.094,1.911 4.137,1.523 4.212,0.848 4.095,0.059 3.513,-0.379 2.471,-1.162 1.133,-0.99 -0.108,-0.99 H 0"
               style="fill:#231f20;fill-opacity:1;fill-rule:nonzero;stroke:none"
               id="path2519" />
          </g>
        </g>
        <g
           id="g2521"
           transform="matrix(0.1580564,0,0,-0.1580576,171.03365,651.80414)">
          <g
             id="g2523"
             transform="translate(48.583,8.0728)">
            <path
               d="m 0,0 c 3.319,-0.951 6.716,-1.58 10.003,-2.676 3.34,-1.114 6.552,-2.567 9.88,-3.716 0.476,-0.312 0.972,-0.635 1.41,-0.996 0.179,-0.147 0.281,-0.136 0.261,-0.414 -0.039,-0.513 -1.117,-0.836 -1.487,-1.033 -1.071,-0.572 -2.227,-0.94 -3.392,-1.276 -1.431,-0.412 -2.699,-1.214 -4.103,-1.708 -0.62,-0.218 -1.268,-0.434 -1.915,-0.571 -0.63,-0.132 -1.246,-0.193 -1.846,-0.448 -1.005,-0.425 -1.929,-0.891 -2.989,-1.178 -1.199,-0.323 -2.335,-0.878 -3.559,-1.102 -0.977,-0.178 -1.961,-0.258 -2.917,-0.512 -0.947,-0.252 -1.939,-0.36 -2.908,-0.429 -0.364,-0.026 -0.702,-0.162 -1.067,-0.176 -0.141,-0.006 -0.279,0.006 -0.417,-0.006 -0.022,0.02 -0.045,0.041 -0.065,0.059 0.2,0.075 0.398,0.194 0.595,0.242 0.532,0.13 0.989,0.226 1.453,0.533 0.457,0.302 0.984,0.718 1.326,1.16 0.238,0.308 0.383,0.688 0.606,0.999 0.117,0.165 0.275,0.23 0.38,0.407 0.161,0.269 0.157,0.65 0.272,0.943 0.242,0.608 0.708,1.087 0.846,1.746 0.195,0.93 -0.045,1.933 -0.132,2.84 -0.05,0.535 -0.318,1.016 -0.336,1.56 -0.008,0.253 0.051,0.497 -0.018,0.749 -0.082,0.299 -0.31,0.537 -0.426,0.824 -0.291,0.713 -0.881,1.042 -1.291,1.677 -0.338,0.523 -0.374,0.955 -0.905,1.31 -0.307,0.203 -0.525,0.438 -0.822,0.651 -0.374,0.268 -0.557,0.318 -0.991,0.455 -0.303,0.096 -0.591,0.2 -0.866,0.33 C -5.606,0.332 -5.946,0.656 -6.151,0.619 -4.768,0.572 -3.416,0.401 -2.068,0.14 -1.37,0.005 -0.687,0.028 0,0"
               style="fill:#231f20;fill-opacity:1;fill-rule:nonzero;stroke:none"
               id="path2525" />
          </g>
        </g>
        <g
           id="g2527"
           transform="matrix(0.1580564,0,0,-0.1580576,171.03365,651.80414)">
          <g
             id="g2529"
             transform="translate(20.9463,-30.7505)">
            <path
               d="m 0,0 c 0.453,-0.22 0.973,-0.21 1.472,-0.432 0.708,-0.315 1.526,-0.513 2.203,-0.881 1.527,-0.831 2.612,-2.258 4.171,-3.064 0.173,-0.09 0.447,-0.305 0.645,-0.248 0.266,0.078 0.504,0.807 0.662,1.025 0.78,1.071 1.728,1.927 2.729,2.78 0.719,0.612 1.486,1.34 2.035,2.1 0.583,0.806 1.4,1.284 2.063,2.001 C 15.814,3.333 15.533,3.214 15.395,3.316 15.299,3.387 15.254,3.673 15.209,3.775 15.093,4.042 14.944,4.288 14.788,4.533 14.471,5.028 14.184,5.709 13.712,6.077 13.167,6.501 12.996,6.773 12.717,7.425 12.45,8.044 11.731,8.461 11.141,8.752 10.709,8.964 10.269,9.586 9.776,9.605 9.773,9.79 9.697,10.129 9.441,10.06 9.168,9.084 9.462,7.685 9.776,6.763 10.002,6.103 10.71,5.833 11.081,5.28 11.197,5.107 11.192,4.977 11.266,4.785 11.333,4.61 11.491,4.496 11.539,4.342 11.227,4.21 11.248,3.871 11.069,3.623 10.841,3.306 10.645,2.994 10.425,2.657 10.017,2.035 9.696,1.366 9.315,0.728 9.087,0.345 8.729,-0.409 8.257,-0.507 7.998,-0.561 7.823,-0.426 7.597,-0.367 7.354,-0.304 7.105,-0.327 6.855,-0.33 6.219,-0.339 5.713,-0.123 5.113,0.081 4.479,0.296 3.955,0.821 3.34,1.119 3.144,1.213 2.851,1.243 2.676,1.357 2.53,1.453 2.503,1.611 2.321,1.663 1.976,1.759 1.855,1.481 1.724,1.241 1.4,0.654 1.048,0.114 0.694,-0.455 0.842,-0.487 1.054,-0.542 0,0"
               style="fill:#231f20;fill-opacity:1;fill-rule:nonzero;stroke:none"
               id="path2531" />
          </g>
        </g>
        <g
           id="g2533"
           transform="matrix(0.1580564,0,0,-0.1580576,171.03365,651.80414)">
          <g
             id="g2535"
             transform="translate(37.9561,-29.2646)">
            <path
               d="m 0,0 c -0.007,-0.459 -0.055,-0.68 -0.33,-1.059 -0.172,-0.235 -0.429,-0.402 -0.616,-0.625 -0.315,-0.373 -0.603,-0.81 -0.949,-1.123 -0.378,-0.344 -0.623,-0.762 -0.953,-1.165 -0.22,-0.267 -0.529,-0.516 -0.795,-0.747 -0.482,-0.419 -0.784,-0.923 -1.311,-1.308 -0.398,-0.291 -0.721,-0.667 -1.088,-0.971 -0.258,-0.213 -0.917,-0.435 -0.907,-0.846 0.006,-0.243 0.175,-0.291 0.356,-0.433 0.437,-0.341 0.879,-0.666 1.329,-0.991 0.426,-0.308 0.85,-0.627 1.284,-0.924 0.631,-0.434 1.404,-0.678 2.008,-1.148 0.443,-0.345 0.684,-0.898 1.175,-1.194 0.561,-0.339 1.218,-0.32 1.786,-0.668 0.889,-0.546 1.835,-1.159 2.84,-1.428 0.495,-0.133 0.891,-0.279 1.294,-0.562 0.477,-0.335 0.929,-0.47 1.491,-0.661 0.391,-0.132 1.621,-0.991 2.05,-0.653 0.199,0.157 0.039,0.326 -0.054,0.53 -0.351,0.776 -0.756,1.501 -1.051,2.302 -0.297,0.807 -0.71,1.447 -1.113,2.2 -0.397,0.741 -0.476,1.547 -0.965,2.243 -0.334,0.477 -0.405,1.036 -0.647,1.562 -0.243,0.527 -0.543,1.02 -0.83,1.523 C 3.438,-5.157 2.662,-4.381 2.243,-3.31 1.896,-2.421 1.341,-1.736 0.823,-0.946 0.605,-0.614 0.261,0.591 -0.131,0.649 -0.301,0.317 -0.089,-0.182 0,0"
               style="fill:#231f20;fill-opacity:1;fill-rule:nonzero;stroke:none"
               id="path2537" />
          </g>
        </g>
        <g
           id="g2539"
           transform="matrix(0.1580564,0,0,-0.1580576,171.03365,651.80414)">
          <g
             id="g2541"
             transform="translate(-20.6758,-30.7505)">
            <path
               d="m 0,0 c -0.453,-0.22 -0.972,-0.21 -1.471,-0.432 -0.709,-0.315 -1.527,-0.513 -2.204,-0.881 -1.527,-0.831 -2.612,-2.258 -4.171,-3.064 -0.172,-0.09 -0.447,-0.305 -0.645,-0.248 -0.266,0.078 -0.504,0.807 -0.662,1.025 -0.78,1.071 -1.727,1.927 -2.729,2.78 -0.718,0.612 -1.486,1.34 -2.035,2.1 -0.583,0.806 -1.4,1.284 -2.063,2.001 0.166,0.052 0.447,-0.067 0.585,0.035 0.097,0.071 0.141,0.357 0.186,0.459 0.117,0.267 0.265,0.513 0.421,0.758 0.317,0.495 0.604,1.176 1.077,1.544 0.544,0.424 0.715,0.696 0.995,1.348 0.266,0.619 0.985,1.036 1.575,1.327 0.432,0.212 0.872,0.834 1.365,0.853 0.003,0.185 0.079,0.524 0.335,0.455 0.274,-0.976 -0.021,-2.375 -0.335,-3.297 -0.225,-0.66 -0.934,-0.93 -1.305,-1.483 -0.116,-0.173 -0.111,-0.303 -0.185,-0.495 -0.067,-0.175 -0.225,-0.289 -0.273,-0.443 0.312,-0.132 0.291,-0.471 0.47,-0.719 0.228,-0.317 0.424,-0.629 0.645,-0.966 0.408,-0.622 0.728,-1.291 1.109,-1.929 0.229,-0.383 0.586,-1.137 1.059,-1.235 0.258,-0.054 0.433,0.081 0.659,0.14 0.243,0.063 0.492,0.04 0.742,0.037 0.637,-0.009 1.142,0.207 1.742,0.411 0.634,0.215 1.158,0.74 1.773,1.038 0.196,0.094 0.49,0.124 0.665,0.238 0.145,0.096 0.172,0.254 0.354,0.306 0.346,0.096 0.466,-0.182 0.598,-0.422 C -1.4,0.654 -1.047,0.114 -0.694,-0.455 -0.841,-0.487 -1.054,-0.542 0,0"
               style="fill:#231f20;fill-opacity:1;fill-rule:nonzero;stroke:none"
               id="path2543" />
          </g>
        </g>
        <g
           id="g2545"
           transform="matrix(0.1580564,0,0,-0.1580576,171.03365,651.80414)">
          <g
             id="g2547"
             transform="translate(-37.6851,-29.2646)">
            <path
               d="M 0,0 C 0.006,-0.459 0.054,-0.68 0.33,-1.059 0.501,-1.294 0.758,-1.461 0.946,-1.684 1.26,-2.057 1.549,-2.494 1.895,-2.807 2.273,-3.151 2.517,-3.569 2.848,-3.972 3.068,-4.239 3.377,-4.488 3.643,-4.719 4.125,-5.138 4.427,-5.642 4.954,-6.027 5.351,-6.318 5.675,-6.694 6.042,-6.998 6.299,-7.211 6.959,-7.433 6.949,-7.844 6.943,-8.087 6.774,-8.135 6.592,-8.277 6.156,-8.618 5.713,-8.943 5.264,-9.268 4.837,-9.576 4.414,-9.895 3.98,-10.192 3.348,-10.626 2.576,-10.87 1.972,-11.34 c -0.443,-0.345 -0.684,-0.898 -1.175,-1.194 -0.561,-0.339 -1.218,-0.32 -1.787,-0.668 -0.888,-0.546 -1.834,-1.159 -2.84,-1.428 -0.494,-0.133 -0.89,-0.279 -1.294,-0.562 -0.476,-0.335 -0.928,-0.47 -1.491,-0.661 -0.39,-0.132 -1.621,-0.991 -2.049,-0.653 -0.2,0.157 -0.039,0.326 0.053,0.53 0.352,0.776 0.757,1.501 1.052,2.302 0.297,0.807 0.71,1.447 1.113,2.2 0.397,0.741 0.476,1.547 0.964,2.243 0.334,0.477 0.406,1.036 0.649,1.562 0.242,0.527 0.541,1.02 0.829,1.523 0.566,0.989 1.341,1.765 1.76,2.836 0.348,0.889 0.903,1.574 1.421,2.364 0.218,0.332 0.562,1.537 0.954,1.595 C 0.301,0.317 0.089,-0.182 0,0"
               style="fill:#231f20;fill-opacity:1;fill-rule:nonzero;stroke:none"
               id="path2549" />
          </g>
        </g>
        <g
           id="g2551"
           transform="matrix(0.1580564,0,0,-0.1580576,171.03365,651.80414)">
          <g
             id="g2553"
             transform="translate(-20.6758,31.8335)">
            <path
               d="M 0,0 C -0.453,0.22 -0.972,0.21 -1.471,0.432 -2.18,0.747 -2.998,0.945 -3.675,1.313 -5.202,2.144 -6.287,3.571 -7.846,4.378 -8.018,4.467 -8.293,4.682 -8.491,4.625 -8.757,4.548 -8.995,3.818 -9.153,3.601 -9.933,2.529 -10.88,1.674 -11.882,0.82 c -0.718,-0.612 -1.486,-1.34 -2.035,-2.099 -0.583,-0.807 -1.4,-1.285 -2.063,-2.001 0.166,-0.052 0.447,0.066 0.585,-0.035 0.097,-0.072 0.141,-0.358 0.186,-0.46 0.117,-0.266 0.265,-0.513 0.421,-0.757 0.317,-0.495 0.604,-1.177 1.077,-1.544 0.544,-0.425 0.715,-0.696 0.995,-1.349 0.266,-0.619 0.985,-1.036 1.575,-1.327 0.432,-0.212 0.872,-0.834 1.365,-0.853 0.003,-0.185 0.079,-0.525 0.335,-0.455 0.274,0.976 -0.021,2.375 -0.335,3.297 -0.225,0.659 -0.934,0.93 -1.305,1.483 -0.116,0.174 -0.111,0.303 -0.185,0.495 -0.067,0.176 -0.225,0.289 -0.273,0.442 0.312,0.133 0.291,0.472 0.47,0.72 0.228,0.317 0.424,0.629 0.645,0.966 0.408,0.623 0.728,1.292 1.109,1.929 0.229,0.383 0.586,1.137 1.059,1.235 0.258,0.054 0.433,-0.08 0.659,-0.14 0.243,-0.062 0.492,-0.04 0.742,-0.037 0.637,0.009 1.142,-0.207 1.742,-0.411 0.634,-0.215 1.158,-0.739 1.773,-1.037 0.196,-0.095 0.49,-0.125 0.665,-0.239 0.145,-0.095 0.172,-0.254 0.354,-0.305 0.346,-0.097 0.466,0.182 0.598,0.421 0.323,0.588 0.676,1.128 1.029,1.696 C -0.841,0.487 -1.054,0.542 0,0"
               style="fill:#231f20;fill-opacity:1;fill-rule:nonzero;stroke:none"
               id="path2555" />
          </g>
        </g>
        <g
           id="g2557"
           transform="matrix(0.1580564,0,0,-0.1580576,171.03365,651.80414)">
          <g
             id="g2559"
             transform="translate(-37.6851,30.3472)">
            <path
               d="M 0,0 C 0.006,0.459 0.054,0.681 0.33,1.06 0.501,1.295 0.758,1.462 0.946,1.685 1.26,2.058 1.549,2.494 1.895,2.808 2.273,3.151 2.517,3.569 2.848,3.973 3.068,4.24 3.377,4.488 3.643,4.72 4.125,5.139 4.427,5.643 4.954,6.028 5.351,6.318 5.675,6.694 6.042,6.998 6.299,7.212 6.959,7.434 6.949,7.845 6.943,8.088 6.774,8.136 6.592,8.277 6.156,8.618 5.713,8.943 5.264,9.269 4.837,9.576 4.414,9.896 3.98,10.193 3.348,10.627 2.576,10.87 1.972,11.341 c -0.443,0.345 -0.684,0.898 -1.175,1.194 -0.561,0.338 -1.218,0.319 -1.787,0.668 -0.888,0.545 -1.834,1.159 -2.84,1.428 -0.494,0.132 -0.89,0.278 -1.294,0.562 -0.476,0.334 -0.928,0.47 -1.491,0.661 -0.39,0.132 -1.621,0.991 -2.049,0.653 -0.2,-0.157 -0.039,-0.327 0.053,-0.53 0.352,-0.776 0.757,-1.501 1.052,-2.302 0.297,-0.808 0.71,-1.447 1.113,-2.2 0.397,-0.742 0.476,-1.547 0.964,-2.244 0.334,-0.476 0.406,-1.036 0.649,-1.561 0.242,-0.527 0.541,-1.021 0.829,-1.523 0.566,-0.99 1.341,-1.765 1.76,-2.836 0.348,-0.889 0.903,-1.575 1.421,-2.365 0.218,-0.331 0.562,-1.537 0.954,-1.595 C 0.301,-0.316 0.089,0.183 0,0"
               style="fill:#231f20;fill-opacity:1;fill-rule:nonzero;stroke:none"
               id="path2561" />
          </g>
        </g>
        <g
           id="g2563"
           transform="matrix(0.1580564,0,0,-0.1580576,171.03365,651.80414)">
          <g
             id="g2565"
             transform="translate(20.9463,31.8335)">
            <path
               d="M 0,0 C 0.453,0.22 0.973,0.21 1.472,0.432 2.18,0.747 2.998,0.945 3.675,1.313 5.202,2.144 6.287,3.571 7.846,4.378 8.019,4.467 8.293,4.682 8.491,4.625 8.757,4.548 8.995,3.818 9.153,3.601 9.933,2.529 10.881,1.674 11.882,0.82 c 0.719,-0.612 1.486,-1.34 2.035,-2.099 0.583,-0.807 1.4,-1.285 2.063,-2.001 -0.166,-0.052 -0.447,0.066 -0.585,-0.035 -0.096,-0.072 -0.141,-0.358 -0.186,-0.46 C 15.093,-4.041 14.944,-4.288 14.788,-4.532 14.471,-5.027 14.184,-5.709 13.712,-6.076 13.167,-6.501 12.996,-6.772 12.717,-7.425 12.45,-8.044 11.731,-8.461 11.141,-8.752 10.709,-8.964 10.269,-9.586 9.776,-9.605 9.773,-9.79 9.697,-10.13 9.441,-10.06 c -0.273,0.976 0.021,2.375 0.335,3.297 0.226,0.659 0.934,0.93 1.305,1.483 0.116,0.174 0.111,0.303 0.185,0.495 0.067,0.176 0.225,0.289 0.273,0.442 -0.312,0.133 -0.291,0.472 -0.47,0.72 -0.228,0.317 -0.424,0.629 -0.644,0.966 -0.408,0.623 -0.729,1.292 -1.11,1.929 C 9.087,-0.345 8.729,0.409 8.257,0.507 7.998,0.561 7.823,0.427 7.597,0.367 7.354,0.305 7.105,0.327 6.855,0.33 6.219,0.339 5.713,0.123 5.113,-0.081 4.479,-0.296 3.955,-0.82 3.34,-1.118 3.144,-1.213 2.851,-1.243 2.676,-1.357 2.53,-1.452 2.503,-1.611 2.321,-1.662 1.976,-1.759 1.855,-1.48 1.724,-1.241 1.4,-0.653 1.048,-0.113 0.694,0.455 0.842,0.487 1.054,0.542 0,0"
               style="fill:#231f20;fill-opacity:1;fill-rule:nonzero;stroke:none"
               id="path2567" />
          </g>
        </g>
        <g
           id="g2569"
           transform="matrix(0.1580564,0,0,-0.1580576,171.03365,651.80414)">
          <g
             id="g2571"
             transform="translate(37.9561,30.3472)">
            <path
               d="m 0,0 c -0.007,0.459 -0.055,0.681 -0.33,1.06 -0.172,0.235 -0.429,0.402 -0.616,0.625 -0.315,0.373 -0.603,0.809 -0.949,1.123 -0.378,0.343 -0.623,0.761 -0.953,1.165 -0.22,0.267 -0.529,0.515 -0.795,0.747 -0.482,0.419 -0.784,0.923 -1.311,1.308 -0.398,0.29 -0.721,0.666 -1.088,0.97 -0.258,0.214 -0.917,0.436 -0.907,0.847 0.006,0.243 0.175,0.291 0.356,0.432 0.437,0.341 0.879,0.666 1.329,0.992 0.426,0.307 0.85,0.627 1.284,0.924 0.631,0.434 1.404,0.677 2.008,1.148 0.443,0.345 0.684,0.898 1.175,1.194 0.561,0.338 1.218,0.319 1.786,0.668 0.889,0.545 1.835,1.159 2.84,1.428 0.495,0.132 0.891,0.278 1.294,0.562 0.477,0.334 0.929,0.47 1.491,0.661 0.391,0.132 1.621,0.991 2.05,0.653 C 8.863,16.35 8.703,16.18 8.61,15.977 8.259,15.201 7.854,14.476 7.559,13.675 7.262,12.867 6.849,12.228 6.446,11.475 6.049,10.733 5.97,9.928 5.481,9.231 5.147,8.755 5.076,8.195 4.834,7.67 4.591,7.143 4.291,6.649 4.004,6.147 3.438,5.157 2.662,4.382 2.243,3.311 1.896,2.422 1.341,1.736 0.823,0.946 0.605,0.615 0.261,-0.591 -0.131,-0.649 -0.301,-0.316 -0.089,0.183 0,0"
               style="fill:#231f20;fill-opacity:1;fill-rule:nonzero;stroke:none"
               id="path2573" />
          </g>
        </g>
        <g
           id="g2575"
           transform="matrix(0.1580564,0,0,-0.1580576,171.03365,651.80414)">
          <g
             id="g2577"
             transform="translate(12.5244,-15.5478)">
            <path
               d="M 0,0 C 0.01,-0.046 0.02,-0.091 0.028,-0.137 0.581,-0.319 1.3,-0.07 1.825,0.095 2.327,0.253 2.845,0.433 3.319,0.664 3.75,0.874 4.224,1.002 4.598,1.301 5.557,2.064 6.236,3.034 6.87,4.063 7.385,4.899 7.458,6.001 7.637,6.946 7.763,7.614 7.785,8.248 7.77,8.939 7.759,9.376 7.605,9.535 7.426,9.903 7.229,10.308 7.081,10.791 6.932,11.217 6.72,11.822 6.402,12.471 5.908,12.884 5.393,13.315 4.826,13.652 4.298,14.041 3.968,14.284 3.369,14.497 2.98,14.538 2.711,14.567 2.463,14.515 2.192,14.569 1.823,14.644 1.458,14.78 1.086,14.848 0.67,14.923 -0.021,14.725 0.484,14.238 0.738,13.995 0.954,13.975 1.16,13.632 1.34,13.333 1.464,13.01 1.651,12.716 1.999,12.171 2.373,11.688 2.58,11.074 2.83,10.333 2.998,9.545 3.282,8.827 3.416,8.49 3.576,8.134 3.642,7.761 3.714,7.354 3.628,6.857 3.633,6.441 3.638,6.012 3.465,5.903 3.283,5.552 3.104,5.208 3.173,4.923 2.89,4.624 2.429,4.137 1.945,3.885 1.441,3.513 1.32,3.424 1.248,3.256 1.123,3.174 0.983,3.082 0.746,3.051 0.593,2.972 0.455,2.901 0.354,2.831 0.206,2.767 -0.021,2.668 -0.151,2.681 -0.413,2.648 -0.626,2.622 -0.783,2.505 -0.99,2.468 -1.192,2.433 -1.445,2.477 -1.651,2.477 -2.082,2.477 -2.549,2.426 -2.977,2.473 -3.4,2.519 -3.75,2.65 -4.21,2.642 -4.859,2.631 -5.034,2.854 -5.387,3.385 c -0.588,0.887 -1.061,1.913 -1.557,2.853 -0.268,0.507 -0.325,0.96 -0.322,1.536 0.005,0.83 -0.079,1.665 0.16,2.47 0.195,0.662 0.53,1.246 0.84,1.857 0.389,0.765 0.715,1.553 1.143,2.307 0.269,0.475 0.633,0.88 0.904,1.348 0.198,0.34 0.29,0.738 0.463,1.092 0.316,0.648 0.715,1.201 0.931,1.895 0.417,1.346 0.179,2.58 -0.602,3.715 -0.133,0.195 -0.227,0.462 -0.403,0.624 -0.176,0.161 -0.51,0.335 -0.719,0.47 -0.356,0.231 -0.712,0.292 -1.11,0.388 -0.311,0.075 -0.512,0.286 -0.814,0.348 -0.304,0.061 -0.732,-0.014 -1.047,-0.013 -0.184,0.001 -0.578,0.072 -0.745,-0.025 -0.156,-0.09 -0.316,-0.384 -0.45,-0.515 -0.121,-0.118 -0.323,-0.261 -0.35,-0.418 0.472,-0.136 0.82,-0.033 1.106,-0.553 0.295,-0.537 0.303,-1.635 0.205,-2.217 -0.17,-1.011 -2.003,-1.752 -2.82,-1.151 -0.875,0.643 -0.878,1.747 -0.824,2.732 0.027,0.485 0.398,1.13 0.136,1.626 -0.148,0.281 -0.698,0.607 -0.958,0.735 -0.919,0.453 -2.141,-0.093 -2.884,-0.646 -0.427,-0.318 -0.741,-0.494 -0.958,-1.01 -0.189,-0.446 -0.13,-0.961 -0.123,-1.442 0.009,-0.51 0.397,-1.058 -0.067,-1.411 -0.5,-0.381 -1.134,-0.529 -1.747,-0.497 -0.559,0.029 -0.678,0.598 -1.022,0.992 -0.369,0.426 -1.333,0.858 -1.307,1.556 0.014,0.368 0.307,0.483 0.476,0.795 0.191,0.351 0.331,0.568 0.602,0.877 0.176,0.202 0.235,0.314 0.263,0.568 0.03,0.266 0.067,0.554 -0.157,0.673 -0.095,0.05 -0.575,0.173 -0.71,0.177 -0.396,0.013 -0.759,-0.422 -1.126,-0.565 -0.222,-0.086 -0.392,-0.149 -0.584,-0.273 -0.287,-0.185 -0.494,-0.455 -0.76,-0.665 -0.547,-0.432 -1.158,-0.766 -1.795,-1.044 0.019,-0.425 -0.152,-0.802 -0.16,-1.232 -0.012,-0.707 0.007,-1.416 0.005,-2.123 -0.005,-1.83 0.415,-3.501 1.446,-5.018 0.245,-0.36 0.423,-0.712 0.727,-1.031 0.309,-0.323 0.737,-0.603 0.976,-0.986 0.216,-0.347 0.333,-0.692 0.608,-1.009 0.261,-0.301 0.529,-0.597 0.769,-0.915 0.455,-0.604 0.623,-1.247 0.797,-1.962 0.145,-0.59 0.313,-1.314 0.303,-1.932 -0.007,-0.429 -0.2,-0.899 -0.322,-1.315 -0.11,-0.378 -0.198,-0.819 -0.363,-1.172 -0.136,-0.289 -0.537,-0.588 -0.82,-0.746 -0.243,-0.135 -0.568,-0.17 -0.829,-0.258 -0.414,-0.138 -0.804,-0.33 -1.225,-0.446 -0.975,-0.271 -1.698,0.223 -2.647,0.218 -0.434,-0.003 -0.74,-0.036 -1.136,0.166 -0.391,0.202 -0.861,0.405 -1.228,0.642 -0.535,0.344 -0.926,1.112 -1.276,1.632 -0.468,0.696 -0.386,1.412 -0.532,2.211 -0.127,0.692 -0.047,1.614 0.201,2.28 0.122,0.327 0.277,0.676 0.421,0.996 0.222,0.49 0.337,0.932 0.496,1.449 0.108,0.353 0.239,0.695 0.297,1.062 0.032,0.201 0.148,0.787 0.045,0.979 -0.131,0.243 -0.665,0.31 -0.948,0.31 -0.894,10e-4 -1.104,-0.596 -1.748,-1.078 -0.911,-0.681 -2.406,-0.79 -2.771,-1.978 -0.193,-0.631 -0.186,-1.288 -0.323,-1.934 -0.105,-0.498 -0.214,-1.005 -0.299,-1.506 -0.064,-0.378 0.007,-0.756 -0.047,-1.13 -0.1,-0.706 -0.321,-1.432 -0.062,-2.144 0.183,-0.504 0.608,-0.916 0.84,-1.412 0.225,-0.483 0.25,-0.868 0.562,-1.293 0.195,-0.266 0.327,-0.613 0.487,-0.9 0.585,-1.049 1.871,-1.75 2.957,-2.205 0.507,-0.211 0.945,-0.336 1.469,-0.482 0.274,-0.077 0.497,-0.237 0.786,-0.281 0.405,-0.062 0.841,-0.012 1.25,-0.013 1.311,-0.001 2.643,-0.07 3.954,-0.008 0.538,0.025 1.047,0.16 1.59,0.174 1.049,0.026 2.083,0.133 3.128,0.241 0.711,0.073 1.377,0.377 2.083,0.435 0.603,0.05 1.215,-0.078 1.816,-0.002 1.061,0.133 2.072,0.15 3.152,0.157 0.648,0.005 1.269,-0.195 1.912,-0.183 0.48,0.008 0.939,0.164 1.418,0.186 1.163,0.053 2.347,-0.009 3.512,-0.009 1.221,0 2.463,-0.068 3.683,-0.008 0.285,0.014 0.422,0.127 0.672,0.249 2.113,1.025 4.169,2.129 6.255,3.227"
               style="fill:#231f20;fill-opacity:1;fill-rule:nonzero;stroke:none"
               id="path2579" />
          </g>
        </g>
        <g
           id="g2581"
           transform="matrix(0.1580564,0,0,-0.1580576,171.03365,651.80414)">
          <g
             id="g2583"
             transform="translate(15.8271,8.397)">
            <path
               d="m 0,0 c -0.05,-0.262 -0.459,-0.326 -0.66,-0.487 -0.326,-0.261 -0.569,-0.572 -0.709,-0.959 -0.118,-0.324 -0.118,-0.602 -0.116,-0.945 0.004,-0.596 -0.088,-1.281 -0.021,-1.871 0.059,-0.509 0.594,-0.923 0.929,-1.274 0.376,-0.396 0.751,-0.815 1.234,-1.077 0.528,-0.288 1.072,-0.555 1.656,-0.701 0.617,-0.156 1.22,-0.117 1.853,-0.117 0.646,-0.001 1.393,-0.138 1.993,0.149 0.418,0.2 1.068,0.689 1.408,1.002 0.675,0.621 0.533,1.345 0.526,2.184 -0.006,0.719 0.25,1.386 0.173,2.11 -0.039,0.357 -0.24,0.82 -0.372,1.16 C 7.681,-0.282 7.21,-0.032 6.861,0.419 6.43,0.978 6.02,1.536 5.937,2.268 5.845,3.075 5.853,4.103 5.937,4.913 5.983,5.359 6.114,5.688 6.109,6.152 6.106,6.596 6.11,7.039 6.11,7.482 6.11,8.439 6.255,9.511 5.854,10.404 5.723,10.7 5.455,10.835 5.248,11.052 4.976,11.337 4.84,11.717 4.504,11.938 4.028,12.252 3.206,12.347 2.646,12.231 1.918,12.081 1.344,11.054 1.088,10.409 0.735,9.52 0.662,8.504 0.661,7.56 0.66,6.113 0.661,4.666 0.661,3.22 0.661,2.518 0.716,1.876 0.33,1.251 0.027,0.76 -0.521,-0.101 0,0"
               style="fill:#231f20;fill-opacity:1;fill-rule:nonzero;stroke:none"
               id="path2585" />
          </g>
        </g>
        <g
           id="g2587"
           transform="matrix(0.1580564,0,0,-0.1580576,171.03365,651.80414)">
          <g
             id="g2589"
             transform="translate(-21.6587,1.2964)">
            <path
               d="m 0,0 c -0.451,-0.013 -0.003,-0.469 0.143,-0.544 0.453,-0.235 1.036,-0.118 1.53,-0.117 0.443,0.002 0.906,-0.068 1.324,0.089 C 3.455,-0.4 3.967,-0.01 4.334,0.317 4.971,0.885 5.448,1.722 5.451,2.579 5.454,3.318 5.594,4.144 5.164,4.792 4.886,5.211 4.427,5.621 3.963,5.779 3.327,5.997 3.136,6.608 2.928,7.226 2.666,8.001 2.836,8.928 2.815,9.742 2.801,10.281 2.528,10.68 2.465,11.187 2.41,11.624 2.514,12.068 2.44,12.509 c -0.108,0.64 -0.364,1.262 -0.467,1.89 -0.059,0.364 0.055,0.685 -0.068,1.046 -0.09,0.267 -0.277,0.516 -0.452,0.73 -0.449,0.549 -0.766,1.352 -1.601,1.16 -0.807,-0.187 -1.536,-1.252 -1.791,-2.007 -0.169,-0.498 -0.154,-0.949 -0.222,-1.462 -0.066,-0.496 -0.296,-0.948 -0.324,-1.458 -0.043,-0.769 0.18,-1.479 0.172,-2.254 -0.004,-0.365 0.116,-0.576 0.175,-0.906 0.044,-0.25 0.02,-0.493 0.074,-0.744 C -1.909,7.78 -2.263,7.437 -2.481,6.762 -2.584,6.443 -2.736,6.216 -2.932,5.94 -3.164,5.616 -3.446,5.562 -3.717,5.271 -4.394,4.549 -4.63,3.65 -4.425,2.675 -4.234,1.762 -3.642,1.132 -2.847,0.697 -2.413,0.459 -1.952,0.252 -1.522,-0.004 -0.818,-0.425 -0.17,-0.508 0,0"
               style="fill:#231f20;fill-opacity:1;fill-rule:nonzero;stroke:none"
               id="path2591" />
          </g>
        </g>
        <g
           id="g2593"
           transform="matrix(0.1580564,0,0,-0.1580576,171.03365,651.80414)">
          <g
             id="g2595"
             transform="translate(8.2314,11.8648)">
            <path
               d="M 0,0 C 0.328,-0.396 0.685,0.059 0.99,0.248 1.345,0.466 1.739,0.712 2.052,0.995 2.726,1.604 2.95,2.347 3.303,3.129 3.567,3.717 3.874,4.828 3.558,5.451 3.395,5.773 3.006,5.91 2.771,6.102 2.364,6.431 2.111,6.814 1.651,7.101 0.896,7.568 -0.009,7.935 -0.908,7.926 -1.214,7.924 -1.845,8.046 -2.113,7.893 -2.534,7.653 -2.16,7.196 -1.981,6.937 -1.568,6.332 -0.848,5.706 -1.232,4.865 -1.418,4.462 -1.784,4.436 -2.147,4.252 -2.36,4.145 -2.602,4.058 -2.804,3.931 -3.082,3.756 -3.32,3.419 -3.643,3.328 -4.116,3.195 -4.686,3.479 -5.194,3.469 -5.888,3.456 -6.56,3.337 -7.255,3.309 -7.668,3.292 -7.974,3.165 -8.36,3.049 -8.67,2.955 -8.98,2.996 -9.298,2.937 -9.842,2.833 -10.335,2.808 -10.899,2.808 c -0.413,0 -0.827,-0.011 -1.239,-0.002 -0.421,0.008 -0.858,0.16 -1.253,0.25 -0.511,0.115 -1.018,0.214 -1.438,0.614 -0.322,0.307 -0.563,0.874 -0.739,1.28 -0.529,1.218 0.597,1.847 0.96,2.868 0.282,0.794 -0.356,0.592 -0.92,0.603 -0.672,0.014 -0.994,-0.288 -1.517,-0.659 -0.401,-0.284 -0.918,-0.456 -1.205,-0.819 -0.416,-0.526 -0.742,-1.133 -1.01,-1.741 -0.23,-0.518 -0.226,-0.844 -0.226,-1.404 0,-0.464 -0.096,-1.039 0.033,-1.486 0.411,-1.424 2.179,-1.287 3.289,-1.472 0.411,-0.069 0.769,-0.001 1.177,-0.134 0.361,-0.118 0.642,-0.212 1.029,-0.211 0.91,0.002 1.817,-0.352 2.716,-0.495 1.113,-0.176 2.192,-0.152 3.318,-0.167 0.22,-0.002 0.44,-0.027 0.658,0.01 0.299,0.051 0.532,0.218 0.826,0.294 0.403,0.104 0.876,0.029 1.288,0.028 0.415,0 0.837,-0.022 1.251,-0.006 0.43,0.018 0.838,0.206 1.271,0.179 C -2.387,0.322 -2.226,0.196 -1.994,0.153 -1.498,0.062 -1.125,0.465 0,0"
               style="fill:#231f20;fill-opacity:1;fill-rule:nonzero;stroke:none"
               id="path2597" />
          </g>
        </g>
        <g
           id="g2599"
           transform="matrix(0.1580564,0,0,-0.1580576,171.03365,651.80414)">
          <g
             id="g2601"
             transform="translate(1.791,17.1489)">
            <path
               d="M 0,0 C 0.598,0 1.567,-0.223 1.948,0.327 2.161,0.636 2.15,0.919 2.146,1.273 2.143,1.574 2.122,1.889 2.138,2.188 c 0.02,0.38 0.199,0.72 0.186,1.1 C 2.316,3.511 2.23,3.657 2.184,3.872 2.114,4.185 2.173,4.464 2.155,4.776 2.125,5.337 1.998,5.941 1.861,6.479 1.737,6.972 1.539,7.317 1.316,7.757 1.064,8.258 1.016,8.848 0.745,9.338 0.669,9.476 0.569,9.574 0.491,9.698 0.359,9.904 0.359,9.995 0.289,10.243 c -0.086,0.309 -0.212,0.651 -0.331,0.949 -0.13,0.326 -0.312,0.651 -0.47,0.946 -0.207,0.388 -0.493,0.591 -0.777,0.912 -0.375,0.424 -0.933,0.613 -1.518,0.503 -0.694,-0.13 -1.042,-1.612 -1.276,-2.15 -0.162,-0.371 -0.403,-0.777 -0.508,-1.16 C -4.694,9.868 -4.682,9.468 -4.79,9.082 -4.939,8.549 -5.114,8.013 -5.248,7.478 -5.37,6.988 -5.367,6.469 -5.482,5.986 -5.668,5.207 -6.005,4.476 -6.119,3.679 -6.174,3.293 -6.066,2.895 -6.147,2.514 -6.155,2.477 -6.267,2.392 -6.284,2.32 -6.32,2.171 -6.314,1.803 -6.283,1.651 c 0.144,-0.706 0.554,-0.997 1.246,-0.99 0.303,0.003 0.605,-0.005 0.908,-0.001 0.331,0.005 0.524,-0.198 0.822,-0.181 0.764,0.047 0.662,1.443 0.664,1.914 0.003,0.585 -0.129,1.086 -0.172,1.656 -0.038,0.492 0.169,0.782 0.177,1.24 0.006,0.327 0.026,0.613 0.354,0.792 0.491,0.267 0.675,-0.104 0.76,-0.492 0.147,-0.666 0.038,-1.443 0.038,-2.125 V 1.846 c 0,-0.34 0.002,-0.68 0,-1.02 C -1.489,0.391 -1.612,0.21 -1.159,0.162 -1,0.146 -0.816,0.206 -0.661,0.174 -0.483,0.137 -0.348,0.014 -0.169,-0.012 0.045,-0.044 0.25,0.059 0.447,0.12 0.934,0.272 1.295,0.34 0,0"
               style="fill:#231f20;fill-opacity:1;fill-rule:nonzero;stroke:none"
               id="path2603" />
          </g>
        </g>
        <g
           id="g2605"
           transform="matrix(0.1580564,0,0,-0.1580576,171.03365,651.80414)">
          <g
             id="g2607"
             transform="translate(8.7266,-10.0986)">
            <path
               d="M 0,0 C 0.24,0.002 0.306,-0.212 0.492,-0.298 0.641,-0.366 1.008,-0.431 1.147,-0.458 1.546,-0.536 2.238,-0.583 2.643,-0.511 3.076,-0.434 3.409,0.042 3.722,0.332 4.019,0.608 4.061,0.771 4.129,1.16 4.19,1.516 4.295,1.752 4.293,2.156 4.292,2.548 4.252,2.778 4.087,3.133 3.925,3.484 3.785,3.813 3.557,4.132 3.332,4.447 2.892,4.674 2.545,4.853 1.669,5.307 0.504,5.481 -0.375,4.962 -1.112,4.526 -1.672,3.721 -1.905,2.904 -2.07,2.325 -2.381,1.374 -2.081,0.79 -1.594,-0.16 -0.292,-0.354 0.66,-0.33"
               style="fill:#231f20;fill-opacity:1;fill-rule:nonzero;stroke:none"
               id="path2609" />
          </g>
        </g>
        <g
           id="g2611"
           transform="matrix(0.1580564,0,0,-0.1580576,171.03365,651.80414)">
          <g
             id="g2613"
             transform="translate(-12.7412,-9.7681)">
            <path
               d="M 0,0 C 0.599,-0.314 1.469,-0.161 2.155,-0.166 2.912,-0.17 3.53,-0.03 3.926,0.697 4.699,2.117 3.706,3.633 2.561,4.446 2.109,4.767 0.978,4.742 0.496,4.507 -0.211,4.162 -0.902,3.261 -1.178,2.562 -1.375,2.06 -1.516,0.811 -1.205,0.318 c 0.21,-0.332 0.675,-0.481 1.004,-0.649 0.62,-0.315 1.254,-0.637 1.852,-0.99"
               style="fill:#231f20;fill-opacity:1;fill-rule:nonzero;stroke:none"
               id="path2615" />
          </g>
        </g>
        <g
           id="g2617"
           transform="matrix(0.1580564,0,0,-0.1580576,171.03365,651.80414)">
          <g
             id="g2619"
             transform="translate(21.6074,-0.8511)">
            <path
               d="M 0,0 C 0.046,0.036 0.091,0.072 0.137,0.108 0.301,-0.408 0.165,-1.071 0.29,-1.628 0.461,-2.4 0.482,-3.189 0.623,-3.963 0.789,-4.876 0.655,-5.899 0.66,-6.825 0.665,-7.801 0.623,-8.78 0.328,-9.72 c -0.132,-0.423 -0.213,-0.833 -0.392,-1.244 -0.244,-0.556 -0.603,-1.033 -0.729,-1.635 -0.196,-0.943 -0.656,-1.905 -1.152,-2.738 -0.304,-0.51 -0.649,-0.974 -1.073,-1.391 -0.199,-0.195 -0.397,-0.453 -0.619,-0.623 -0.195,-0.149 -0.425,-0.211 -0.62,-0.355 -0.204,-0.152 -0.484,-0.521 -0.503,-0.789 -0.027,-0.402 0.181,-0.429 0.488,-0.498 0.858,-0.194 1.303,0.196 1.834,0.784 0.621,0.685 1.251,1.312 1.621,2.159 0.516,1.183 1.103,2.306 1.642,3.483 0.681,1.484 1.109,3.296 1.161,4.931 0.026,0.791 0.164,1.553 0.16,2.35 -0.002,0.551 -10e-4,1.102 0,1.654 0.002,0.458 -0.084,0.81 -0.15,1.244 -0.047,0.304 -0.149,0.841 0.321,0.752 0.4,-0.076 0.547,-0.877 0.659,-1.177 C 3.174,-3.347 3.228,-3.966 3.289,-4.542 3.321,-4.846 3.268,-5.147 3.294,-5.449 3.325,-5.83 3.458,-6.178 3.477,-6.562 3.528,-7.674 3.359,-8.767 3.308,-9.87 3.239,-11.334 2.895,-12.9 2.601,-14.343 2.349,-15.58 1.835,-16.723 1.358,-17.876 1.142,-18.401 0.825,-20.171 1.941,-19.6 c 0.304,0.156 0.531,0.747 0.663,1.017 0.212,0.428 0.38,0.873 0.533,1.325 0.147,0.434 0.327,0.814 0.504,1.231 0.177,0.417 0.182,0.887 0.277,1.325 0.521,2.426 0.976,4.865 1.333,7.322 0.152,1.043 0.034,2.158 0.033,3.209 0,0.555 0.04,1.124 0.012,1.678 C 5.27,-1.979 4.987,-1.543 4.825,-1.061 4.641,-0.509 4.435,0.123 3.971,0.449 3.543,0.749 3.191,1.105 2.642,1.165 2.417,1.189 2.213,1.15 1.985,1.192 1.512,1.281 1.41,1.419 0.979,1.118 0.787,0.984 0.745,0.891 0.532,0.782 0.38,0.704 0.113,0.637 0,0"
               style="fill:#231f20;fill-opacity:1;fill-rule:nonzero;stroke:none"
               id="path2621" />
          </g>
        </g>
        <g
           id="g2623"
           transform="matrix(0.1580564,0,0,-0.1580576,171.03365,651.80414)">
          <g
             id="g2625"
             transform="translate(-22.4844,-2.3369)">
            <path
               d="m 0,0 c -0.252,-0.251 -0.13,-0.582 -0.193,-0.891 -0.094,-0.463 -0.304,-0.799 -0.302,-1.284 0.003,-0.508 -0.137,-0.958 -0.177,-1.457 -0.033,-0.41 0.081,-0.67 0.177,-1.034 0.266,-1.001 0.415,-2.079 0.818,-3.065 0.405,-0.99 1.148,-1.769 1.377,-2.829 0.117,-0.544 0.042,-1.131 0.277,-1.641 0.175,-0.379 0.262,-0.725 0.376,-1.139 0.174,-0.633 0.48,-1.285 0.136,-1.897 -0.176,-0.312 -0.312,-0.481 -0.673,-0.461 -0.395,0.022 -0.435,0.233 -0.656,0.543 -0.486,0.682 -1.182,1.237 -1.476,2.031 -0.359,0.97 -0.64,1.981 -1.001,2.956 -0.386,1.04 -0.847,2.201 -0.987,3.305 -0.091,0.721 0.076,1.47 -0.045,2.19 -0.069,0.413 -0.132,0.748 -0.128,1.18 0.002,0.122 0.066,0.493 -0.006,0.596 -0.329,0.464 -0.883,-0.476 -0.998,-0.717 -0.242,-0.51 -0.211,-1.244 -0.28,-1.796 -0.072,-0.582 -0.035,-1.165 -0.038,-1.75 -0.004,-0.69 -0.013,-1.337 0.158,-2.014 0.163,-0.647 0.262,-1.401 0.495,-2.023 0.308,-0.822 0.885,-1.718 0.845,-2.622 -0.545,0.957 -0.998,1.756 -1.3,2.839 -0.25,0.898 -0.473,1.74 -0.821,2.606 -0.209,0.52 -0.301,1.086 -0.531,1.595 -0.209,0.464 -0.447,0.622 -0.545,1.153 -0.075,0.408 -0.126,0.794 -0.117,1.211 0.02,0.885 -0.419,1.73 -0.011,2.606 0.319,0.686 0.671,1.584 1.168,2.15 0.333,0.38 0.765,0.611 1.192,0.851 0.175,0.1 0.444,0.366 0.624,0.437 0.383,0.152 0.687,-0.238 0.999,-0.4 0.199,-0.104 0.477,-0.124 0.656,-0.25 C -0.83,0.81 -0.725,0.611 -0.673,0.382 -0.567,0.1 -0.397,-0.138 0,0"
               style="fill:#231f20;fill-opacity:1;fill-rule:nonzero;stroke:none"
               id="path2627" />
          </g>
        </g>
        <g
           id="g2629"
           transform="matrix(0.1580564,0,0,-0.1580576,171.03365,651.80414)">
          <g
             id="g2631"
             transform="translate(6.25,-25.291)">
            <path
               d="m 0,0 c 0.367,-0.383 0.383,-0.394 0.812,-0.49 0.402,-0.089 0.754,-0.175 1.169,-0.171 0.464,0.005 0.873,-0.176 1.325,-0.185 0.52,-0.01 0.861,0.353 1.188,0.705 0.592,0.635 1.158,1.679 1.288,2.534 0.17,1.111 0.202,1.79 -0.305,2.865 C 5.062,6.135 4.14,6.925 3.167,7.088 2.143,7.259 1.514,7.44 0.647,6.729 0.22,6.376 -0.422,5.823 -0.632,5.292 -0.74,5.019 -0.662,4.631 -0.661,4.343 -0.659,3.896 -0.719,3.411 -0.628,2.97 -0.535,2.525 0.034,1.917 0.486,1.805 0.897,1.702 1.902,1.743 2.202,2.057 2.501,2.369 2.646,2.887 2.642,3.303 2.64,3.472 2.718,3.829 2.653,3.975 2.52,4.28 2.249,4.052 1.978,4.116 1.609,4.202 1.121,4.897 1.31,5.295 1.404,5.497 1.591,5.483 1.82,5.452 2.162,5.405 2.15,5.369 2.312,5.038 2.582,4.483 3.06,4.096 3.31,3.53 3.516,3.063 3.567,2.317 3.471,1.813 3.388,1.377 2.883,0.769 2.406,0.656 1.861,0.528 1.192,0.422 0.623,0.532 0.31,0.593 0.078,0.676 -0.249,0.662 -0.609,0.646 -0.615,0.658 -0.784,0.333 -0.916,0.081 -1.069,-0.199 -1.002,-0.499 -0.892,-0.99 -0.477,-0.685 0,0"
               style="fill:#231f20;fill-opacity:1;fill-rule:nonzero;stroke:none"
               id="path2633" />
          </g>
        </g>
        <g
           id="g2635"
           transform="matrix(0.1580564,0,0,-0.1580576,171.03365,651.80414)">
          <g
             id="g2637"
             transform="translate(-10.0991,-24.4653)">
            <path
               d="m 0,0 c 0.004,0.036 0.008,0.072 0.012,0.108 -0.193,-0.431 -0.62,-0.72 -1.023,-0.923 -0.678,-0.341 -1.201,-0.676 -1.974,-0.675 -0.412,10e-4 -0.745,0.051 -1.147,0.132 -0.391,0.079 -0.771,-0.03 -1.156,0.025 -0.328,0.047 -0.396,0.138 -0.651,0.339 -0.266,0.208 -0.619,0.364 -0.803,0.655 -0.442,0.699 -0.596,2.222 -0.243,2.977 0.433,0.924 1.024,1.791 1.903,2.328 0.336,0.205 1.186,0.26 1.577,0.169 0.514,-0.121 0.797,-0.846 1.023,-1.292 0.275,-0.54 0.527,-0.97 0.628,-1.576 C -1.795,1.916 -1.679,1.262 -1.969,0.979 -2.087,0.863 -2.364,0.764 -2.505,0.706 -2.728,0.615 -2.9,0.519 -3.147,0.487 -3.438,0.451 -4.209,0.363 -4.466,0.483 -4.779,0.63 -4.942,1.146 -4.958,1.486 c -0.024,0.571 0.099,0.79 0.64,0.85 0.112,0.463 0.079,0.945 -0.467,0.974 C -5.42,3.344 -5.655,2.764 -5.766,2.225 -5.815,1.983 -5.975,1.552 -5.961,1.312 -5.945,1.02 -5.666,0.815 -5.546,0.576 c 0.261,-0.52 0.461,-1.057 1.156,-1.079 0.409,-0.013 0.996,-0.089 1.376,0.04 0.491,0.168 0.802,0.593 1.069,0.995 0.395,0.594 0.66,0.834 1.189,0.206 C -0.271,0.163 -0.695,-0.178 0,0"
               style="fill:#231f20;fill-opacity:1;fill-rule:nonzero;stroke:none"
               id="path2639" />
          </g>
        </g>
        <g
           id="g2641"
           transform="matrix(0.1580564,0,0,-0.1580576,171.03365,651.80414)">
          <g
             id="g2643"
             transform="translate(-0.8516,-28.4287)">
            <path
               d="M 0,0 C -0.19,-0.036 -0.3,-0.136 -0.33,-0.302 0.325,-0.449 0.697,-0.62 1.321,-0.215 1.943,0.19 2.272,0.891 2.32,1.623 2.342,1.955 2.238,2.331 2.309,2.654 2.373,2.951 2.316,2.937 2.639,2.976 3.045,3.026 3.135,2.921 3.349,3.299 3.521,3.606 3.692,3.894 3.82,4.211 4.012,4.687 4.074,5.435 3.967,5.948 3.898,6.275 3.879,6.371 3.468,6.448 3.302,6.479 2.808,6.517 2.676,6.416 2.457,6.249 2.577,5.809 2.185,5.975 1.937,6.08 1.979,6.4 1.982,6.606 1.989,7.156 1.985,7.707 1.981,8.257 1.98,8.464 1.908,8.79 2.07,8.911 2.288,9.073 2.515,8.757 2.654,9.071 2.901,9.625 2.333,10.002 1.905,10.08 1.286,10.191 0.607,9.946 -0.009,10.111 -0.768,10.313 -1.538,10.479 -2.32,10.577 -2.908,10.651 -3.557,10.45 -3.801,9.912 -3.891,9.713 -3.988,9.468 -3.97,9.244 -3.935,8.804 -3.697,8.908 -3.303,8.917 -2.986,8.924 -2.888,8.985 -2.8,8.677 -2.747,8.494 -2.777,8.119 -2.803,7.923 -2.829,7.735 -2.9,7.445 -3.005,7.27 -3.139,7.046 -3.43,6.482 -3.633,6.363 -3.963,6.168 -3.911,6.429 -4.161,6.573 -4.265,6.634 -4.377,6.556 -4.462,6.601 -4.539,6.641 -4.726,6.854 -4.784,6.867 -5.372,6.997 -5.618,5.467 -5.616,5.055 -5.615,4.888 -5.661,4.654 -5.627,4.496 -5.565,4.211 -5.409,4.212 -5.312,3.964 -5.205,3.687 -5.391,3.435 -5.126,3.214 -4.669,2.833 -3.8,2.911 -3.336,3.121 c 0.25,-0.837 -0.42,-2.37 0.36,-2.968 0.26,-0.198 1.082,-0.29 1.393,-0.145 0.19,0.088 0.283,0.476 0.604,0.337 C -0.647,0.202 -1.032,-0.237 0,0"
               style="fill:#231f20;fill-opacity:1;fill-rule:nonzero;stroke:none"
               id="path2645" />
          </g>
        </g>
        <g
           id="g2647"
           transform="matrix(0.1580564,0,0,-0.1580576,171.03365,651.80414)">
          <g
             id="g2649"
             transform="translate(12.5244,12.856)">
            <path
               d="m 0,0 c 0.22,-0.018 0.561,0.448 0.665,0.606 0.203,0.308 0.227,0.673 0.325,1.012 0.239,0.819 0.331,1.541 0.331,2.4 0,0.809 0.177,1.823 -0.162,2.562 -0.166,0.363 -0.445,0.56 -0.665,0.88 -0.321,0.468 -0.542,0.922 -0.989,1.3 -0.61,0.515 -1.21,1.055 -1.949,1.357 -0.308,0.126 -0.607,0.256 -0.921,0.368 -0.425,0.153 -0.843,0.407 -1.258,0.546 -0.496,0.167 -1.03,0.202 -1.486,0.363 -0.491,0.171 -0.951,0.085 -1.491,0.162 -0.362,0.051 -0.21,0.046 -0.321,0.33 -0.107,0.273 -0.122,0.524 -0.207,0.792 -0.114,0.359 -0.623,0.835 -0.061,1.035 0.335,0.12 0.799,-0.016 1.092,-0.163 0.209,-0.107 0.309,-0.267 0.554,-0.331 0.184,-0.049 0.365,0.007 0.558,-0.041 0.358,-0.087 0.65,-0.285 1.037,-0.306 0.485,-0.026 0.939,-0.131 1.414,-0.161 0.727,-0.048 1.513,-0.21 2.203,-0.484 0.245,-0.099 0.501,-0.247 0.758,-0.309 0.182,-0.045 0.367,0.007 0.545,-0.023 C 0.216,11.852 0.611,11.709 0.789,11.53 1.038,11.28 1.151,10.857 1.349,10.572 1.623,10.179 1.902,9.991 2.067,9.514 2.21,9.102 2.278,8.854 2.304,8.426 2.334,7.925 2.668,7.574 2.774,7.097 2.955,6.282 2.805,5.296 2.808,4.459 2.811,3.633 2.542,3.077 2.184,2.349 2.036,2.048 1.927,1.796 1.771,1.531 1.649,1.324 1.618,1.054 1.45,0.862 1.382,0.784 1.258,0.757 1.188,0.665 1.076,0.518 1.149,0.419 1.004,0.285 0.743,0.048 0.426,-0.017 0,0"
               style="fill:#231f20;fill-opacity:1;fill-rule:nonzero;stroke:none"
               id="path2651" />
          </g>
        </g>
        <g
           id="g2653"
           transform="matrix(0.1580564,0,0,-0.1580576,171.03365,651.80414)">
          <g
             id="g2655"
             transform="translate(-13.7319,14.1763)">
            <path
               d="m 0,0 c 0,1.668 -0.656,3.364 -0.133,5 0.202,0.632 0.508,1.177 0.954,1.638 0.5,0.517 0.962,0.98 1.656,1.257 0.366,0.146 0.58,0.18 0.914,0.452 0.24,0.193 0.366,0.216 0.65,0.317 0.285,0.101 0.48,0.312 0.734,0.423 0.256,0.111 0.725,0.289 1.003,0.335 0.238,0.038 0.333,0.025 0.537,0.116 0.147,0.064 0.299,0.184 0.447,0.215 0.45,0.095 0.94,0.018 1.287,0.363 0.306,0.303 0.278,0.948 0.194,1.367 C 8.231,11.541 8.109,12.16 8.067,12.195 7.933,12.309 7.431,12.217 7.267,12.22 6.943,12.226 6.946,12.184 6.696,12.056 6.349,11.877 6.205,11.942 5.829,11.902 5.354,11.853 5.011,11.483 4.549,11.401 4.236,11.346 3.903,11.445 3.587,11.402 3.259,11.358 2.957,11.189 2.648,11.07 2.244,10.914 2.016,10.624 1.647,10.433 1.369,10.287 1.143,10.293 0.862,10.077 0.575,9.856 0.274,9.647 -0.004,9.422 -0.4,9.1 -0.698,8.521 -0.982,8.1 -1.23,7.734 -1.463,7.432 -1.639,7.025 -1.716,6.847 -1.764,6.668 -1.854,6.49 -2.155,5.894 -2.584,5.272 -2.65,4.583 c -0.067,-0.7 -0.092,-1.629 0.173,-2.279 0.132,-0.323 0.223,-0.619 0.326,-0.95 0.111,-0.357 0.353,-0.657 0.5,-1.023 0.158,-0.395 0.221,-0.615 0.59,-0.827 0.379,-0.218 0.642,-0.27 1.033,-0.357 0.021,-0.089 0.038,-0.18 0.049,-0.271 C 0.289,-1.204 0.551,-1.238 0,0"
               style="fill:#231f20;fill-opacity:1;fill-rule:nonzero;stroke:none"
               id="path2657" />
          </g>
        </g>
        <g
           id="g2659"
           transform="matrix(0.1580564,0,0,-0.1580576,171.03365,651.80414)">
          <g
             id="g2661"
             transform="translate(14.8369,26.2319)">
            <path
               d="m 0,0 c 0.658,-0.346 1.265,-0.798 1.886,-1.231 0.335,-0.234 0.747,-0.349 1.051,-0.626 0.455,-0.416 0.701,-0.457 1.325,-0.579 0.313,-0.061 0.643,-0.12 0.93,-0.268 0.445,-0.23 0.755,-0.673 1.235,-0.847 0.688,-0.25 1.589,-0.356 2.318,-0.411 0.456,-0.034 0.887,-0.358 1.333,-0.538 0.471,-0.19 0.995,-0.42 1.444,-0.652 0.241,-0.124 0.371,-0.361 0.617,-0.455 0.1,-0.039 0.364,-0.117 0.447,-0.137 0.268,-0.064 0.667,-0.294 0.799,-0.064 0.089,0.158 0.087,0.741 0.12,0.943 0.062,0.38 0.03,0.755 0.112,1.135 0.092,0.427 0.429,1.038 0.243,1.486 -0.214,0.515 -1.08,0.768 -1.546,0.922 -1.036,0.343 -2.072,0.462 -3.052,0.915 C 8.627,-0.113 7.981,-0.163 7.315,0.041 6.636,0.25 5.945,0.343 5.289,0.619 4.777,0.835 4.231,0.954 3.714,1.151 3.172,1.357 2.692,1.854 2.143,1.989 1.967,2.032 1.748,2.1 1.567,2.134 1.252,2.194 1.249,2.109 1.073,1.901 0.743,1.51 0.728,1.024 0.173,0.99 -0.329,0.96 -0.987,0.757 -0.998,0.173 -1.003,-0.069 -0.985,-0.386 -0.838,-0.592 -0.576,-0.959 -0.1,-0.829 0,0"
               style="fill:#231f20;fill-opacity:1;fill-rule:nonzero;stroke:none"
               id="path2663" />
          </g>
        </g>
        <g
           id="g2665"
           transform="matrix(0.1580564,0,0,-0.1580576,171.03365,651.80414)">
          <g
             id="g2667"
             transform="translate(-16.209,25.4058)">
            <path
               d="m 0,0 c 0.037,0.001 0.074,0.002 0.111,0.004 -0.787,0.078 -1.538,-0.736 -2.099,-1.164 -0.806,-0.615 -1.616,-1.213 -2.433,-1.812 -0.345,-0.253 -0.66,-0.546 -1,-0.801 -0.227,-0.17 -0.426,-0.219 -0.686,-0.347 -0.666,-0.325 -1.338,-0.796 -1.84,-1.342 -0.358,-0.389 -0.629,-0.709 -1.103,-0.986 -0.406,-0.239 -0.735,-0.673 -1.106,-0.235 -0.367,0.434 -0.816,0.917 -1.114,1.39 -0.135,0.216 -0.721,1.009 -0.433,1.301 0.066,0.067 0.51,0.123 0.591,0.17 0.316,0.179 0.59,0.586 0.87,0.813 0.654,0.531 1.393,1.063 2.113,1.49 0.706,0.419 1.217,0.798 1.841,1.333 0.59,0.506 1.284,0.777 1.829,1.341 0.36,0.374 0.488,0.487 0.99,0.495 0.472,0.009 0.878,-0.199 1.335,-0.337 C -1.522,1.129 -1.026,1.195 -0.417,1.28 -0.174,1.314 0.096,1.391 0.336,1.292 0.516,1.219 0.65,0.983 0.812,0.899 1.205,0.693 2.11,0.941 0,0"
               style="fill:#231f20;fill-opacity:1;fill-rule:nonzero;stroke:none"
               id="path2669" />
          </g>
        </g>
      </g>
    </g>
  </g>
</svg>
