<?xml version="1.0" encoding="UTF-8" standalone="no"?>
<!-- Created with Inkscape (http://www.inkscape.org/) -->

<svg
   width="25.245598"
   height="24"
   viewBox="0 0 6.6795643 6.35"
   version="1.1"
   id="svg3972"
   inkscape:version="1.2.1 (9c6d41e4, 2022-07-14)"
   sodipodi:docname="ghouls_of_umordhoth.svg"
   xmlns:inkscape="http://www.inkscape.org/namespaces/inkscape"
   xmlns:sodipodi="http://sodipodi.sourceforge.net/DTD/sodipodi-0.dtd"
   xmlns="http://www.w3.org/2000/svg"
   xmlns:svg="http://www.w3.org/2000/svg">
  <sodipodi:namedview
     id="namedview3974"
     pagecolor="#505050"
     bordercolor="#eeeeee"
     borderopacity="1"
     inkscape:showpageshadow="0"
     inkscape:pageopacity="0"
     inkscape:pagecheckerboard="0"
     inkscape:deskcolor="#505050"
     inkscape:document-units="mm"
     showgrid="false"
     inkscape:zoom="0.70199214"
     inkscape:cx="4.2735521"
     inkscape:cy="235.04537"
     inkscape:window-width="1390"
     inkscape:window-height="938"
     inkscape:window-x="0"
     inkscape:window-y="25"
     inkscape:window-maximized="0"
     inkscape:current-layer="layer1" />
  <defs
     id="defs3969">
    <clipPath
       clipPathUnits="userSpaceOnUse"
       id="clipPath947">
      <path
         d="m 162.518,327.393 h 23.958 v 23.958 h -23.958 z"
         id="path945" />
    </clipPath>
  </defs>
  <g
     inkscape:label="Layer 1"
     inkscape:groupmode="layer"
     id="layer1"
     transform="translate(-104.1013,-86.173537)">
    <g
       id="g941"
       transform="matrix(0.35528451,0,0,-0.35528451,45.534086,209.68642)">
      <g
         id="g943"
         clip-path="url(#clipPath947)">
        <g
           id="g949"
           transform="translate(170.987,342.493)">
          <path
             d="m 0,0 z m 3.815,-10.311 c 10e-4,0.066 -0.01,0.122 -0.021,0.177 -0.008,0.04 -0.016,0.081 -0.018,0.125 -0.002,0.044 0.002,0.091 0.005,0.138 0.006,0.08 -0.398,1.135 -0.465,1.105 L 3.245,-8.796 C 3.172,-8.825 3.338,-9.249 3.343,-9.277 3.349,-9.303 3.063,-9.81 3.085,-9.835 c 0.092,-0.107 0.091,-0.352 0.092,-0.44 10e-4,-0.114 -0.05,-0.312 -0.053,-0.426 -10e-4,-0.038 -0.009,-0.075 -0.018,-0.115 -0.009,-0.042 -0.018,-0.084 -0.021,-0.128 -0.002,-0.038 -0.007,-0.053 -0.018,-0.081 -0.005,-0.014 -0.01,-0.029 -0.016,-0.048 -0.006,-0.021 -0.01,-0.04 -0.015,-0.058 -0.01,-0.043 -0.017,-0.072 -0.042,-0.104 -0.018,-0.023 -0.036,-0.043 -0.053,-0.063 -0.039,-0.045 -0.08,-0.091 -0.12,-0.161 -0.011,-0.02 -0.028,-0.051 -0.041,-0.066 0,0.001 0,0.001 -10e-4,0.002 -0.013,0.01 -0.053,0.06 -0.074,0.092 -0.033,0.05 -0.052,0.111 -0.071,0.176 -0.026,0.082 -0.051,0.167 -0.11,0.244 -0.058,0.076 -0.106,0.16 -0.157,0.249 -0.03,0.052 -0.061,0.105 -0.093,0.157 -0.028,0.044 -0.039,0.099 -0.051,0.158 -0.012,0.062 -0.025,0.125 -0.057,0.185 -0.011,0.02 -0.025,0.034 -0.035,0.046 -0.005,0.005 -0.011,0.012 -0.013,0.014 -0.005,0.011 -0.01,0.037 -0.013,0.057 -0.004,0.021 -0.008,0.042 -0.013,0.06 -0.01,0.032 -0.024,0.064 -0.038,0.095 -0.016,0.037 -0.031,0.072 -0.037,0.104 -0.014,0.088 -0.041,0.172 -0.067,0.254 -0.018,0.054 -0.036,0.11 -0.05,0.167 -0.009,0.034 -0.015,0.07 -0.021,0.107 -0.011,0.063 -0.023,0.128 -0.046,0.192 -0.013,0.036 -0.029,0.071 -0.046,0.105 -0.014,0.03 -0.028,0.059 -0.039,0.09 -0.049,0.136 -0.117,0.261 -0.183,0.385 -0.085,0.158 -0.12,0.316 -0.158,0.484 -0.02,0.09 -0.041,0.184 -0.07,0.281 -0.03,0.097 -0.075,0.18 -0.118,0.259 C 1.185,-7.5 1.153,-7.441 1.128,-7.376 1.112,-7.335 1.095,-7.294 1.078,-7.252 1.043,-7.166 1.007,-7.076 0.98,-6.988 0.944,-6.871 0.898,-6.755 0.855,-6.644 L 0.802,-6.51 c -0.048,0.124 -0.086,0.223 -0.064,0.346 0.008,0.048 0.031,0.106 0.053,0.162 0.011,0.027 0.021,0.053 0.03,0.078 0.019,0.054 0.021,0.098 0.022,0.137 0,0.025 0.001,0.047 0.006,0.07 0.004,0.017 0.01,0.028 0.014,0.039 0.016,0.033 0.028,0.066 0.028,0.129 C 0.89,-5.508 0.89,-5.467 0.89,-5.426 l 0.001,0.063 c 0,0.044 -0.004,0.092 -0.007,0.141 -0.006,0.091 -0.013,0.185 0.003,0.256 0.007,0.035 0.024,0.046 0.085,0.077 0.036,0.018 0.076,0.038 0.115,0.072 0.221,0.194 0.386,0.47 0.535,0.737 0.167,0.296 0.09,0.661 0.007,0.979 -0.014,0.054 -0.031,0.105 -0.048,0.157 -0.025,0.078 -0.048,0.151 -0.062,0.227 -0.026,0.152 -0.115,0.312 -0.189,0.435 -0.043,0.071 -0.098,0.134 -0.15,0.195 -0.036,0.042 -0.072,0.083 -0.104,0.127 -0.048,0.067 -0.041,0.073 0.035,0.144 0.038,0.035 0.084,0.078 0.119,0.138 0.025,0.042 0.04,0.085 0.054,0.127 0.015,0.043 0.029,0.083 0.051,0.116 0.055,0.081 0.077,0.118 0.08,0.229 l 0.002,0.048 c 0.005,0.118 0.01,0.251 -0.059,0.366 -0.078,0.127 -0.092,0.224 -0.092,0.391 -0.001,0.05 -0.001,0.133 0.025,0.16 0.003,0.002 0.013,0.012 0.038,0.01 0.004,-0.001 0.016,-0.007 0.025,-0.012 0.02,-0.011 0.045,-0.025 0.077,-0.03 0.022,-0.004 0.042,-0.004 0.064,-0.004 0.008,0 0.015,0 0.021,0 0.012,-0.011 0.031,-0.026 0.057,-0.032 0.034,-0.008 0.068,-0.005 0.097,-0.002 0.012,0.001 0.023,0.003 0.033,0.003 0.024,-0.002 0.047,-0.009 0.074,-0.017 0.032,-0.01 0.069,-0.02 0.116,-0.023 0.093,-0.005 0.166,-0.009 0.25,-0.027 0.117,-0.024 0.237,-0.06 0.353,-0.094 l 0.051,-0.015 c 0.025,-0.008 0.051,-0.016 0.077,-0.025 0.1,-0.032 0.215,-0.071 0.325,-0.064 0.061,0.003 0.11,0.025 0.145,0.064 0.066,0.075 0.057,0.184 0.05,0.28 -0.002,0.027 -0.004,0.052 -0.004,0.076 0,0.02 0.002,0.048 0.005,0.081 C 3.158,0.091 3.172,0.277 3.062,0.336 3.016,0.361 2.954,0.369 2.894,0.376 2.874,0.379 2.855,0.381 2.839,0.384 2.827,0.396 2.807,0.412 2.78,0.419 2.741,0.428 2.696,0.425 2.656,0.422 2.642,0.42 2.628,0.419 2.617,0.419 H 2.521 C 2.474,0.42 2.428,0.42 2.381,0.419 2.356,0.419 2.343,0.424 2.32,0.434 2.3,0.442 2.279,0.45 2.253,0.456 2.219,0.465 2.188,0.46 2.163,0.456 2.153,0.455 2.139,0.453 2.134,0.454 2.126,0.455 2.117,0.46 2.105,0.465 2.089,0.473 2.07,0.482 2.046,0.488 2.023,0.494 2.001,0.498 1.979,0.502 1.93,0.512 1.887,0.52 1.846,0.544 L 1.811,0.565 C 1.769,0.589 1.728,0.613 1.686,0.634 1.648,0.654 1.647,0.655 1.627,0.688 L 1.61,0.717 C 1.597,0.738 1.586,0.766 1.574,0.794 1.556,0.836 1.538,0.88 1.512,0.914 1.455,0.989 1.381,0.985 1.329,0.983 L 1.295,0.981 C 1.286,0.981 1.275,0.983 1.263,0.983 1.231,0.986 1.195,0.989 1.161,0.981 1.137,0.975 1.119,0.962 1.103,0.948 1.094,0.947 1.085,0.947 1.077,0.946 1.037,0.943 0.987,0.94 0.935,0.901 0.896,0.872 0.872,0.831 0.851,0.796 0.838,0.774 0.826,0.754 0.814,0.742 0.793,0.72 0.772,0.709 0.744,0.693 0.726,0.684 0.707,0.674 0.687,0.661 0.649,0.636 0.615,0.606 0.581,0.575 0.555,0.552 0.528,0.528 0.499,0.508 0.462,0.483 0.426,0.455 0.39,0.428 L 0.347,0.395 C 0.252,0.322 0.177,0.255 0.102,0.177 0.074,0.148 0.02,0.112 -0.02,0.087 L -0.046,0.07 C -0.137,0.01 -0.24,-0.058 -0.282,-0.186 -0.336,-0.355 -0.135,-0.518 0.043,-0.626 L 0.06,-0.636 C 0.169,-0.701 0.318,-0.791 0.396,-0.886 0.466,-0.971 0.479,-1.05 0.44,-1.14 0.405,-1.222 0.301,-1.285 0.2,-1.346 0.123,-1.392 0.054,-1.443 -0.016,-1.494 L -0.102,-1.555 C -0.14,-1.582 -0.185,-1.607 -0.23,-1.632 -0.302,-1.673 -0.376,-1.716 -0.436,-1.769 l -0.106,-0.095 0.134,-0.046 c 0.035,-0.012 0.068,-0.013 0.097,-0.014 0.015,-0.001 0.029,-0.001 0.043,-0.004 0.011,-0.003 0.021,-0.006 0.031,-0.009 0.026,-0.009 0.059,-0.019 0.104,-0.021 0.081,-0.004 0.189,-0.035 0.264,-0.075 C 0.214,-2.079 0.365,-2.172 0.451,-2.29 0.545,-2.42 0.626,-2.561 0.705,-2.735 0.724,-2.779 0.736,-2.84 0.748,-2.899 0.753,-2.928 0.759,-2.957 0.765,-2.983 0.774,-3.02 0.785,-3.059 0.796,-3.098 0.813,-3.158 0.83,-3.219 0.84,-3.278 0.866,-3.428 0.798,-3.602 0.731,-3.753 0.719,-3.781 0.708,-3.808 0.699,-3.834 0.672,-3.901 0.652,-3.954 0.604,-4.007 0.553,-4.064 0.536,-4.072 0.458,-4.091 0.443,-4.094 0.43,-4.098 0.416,-4.102 0.387,-4.111 0.363,-4.117 0.329,-4.117 H 0.208 0.155 c -0.033,0 -0.065,0 -0.099,0 -0.014,0.001 -0.031,0.004 -0.05,0.011 -0.017,0.006 -0.033,0.012 -0.052,0.016 l -0.038,0.008 c -0.077,0.015 -0.138,0.027 -0.207,0.06 -0.015,0.007 -0.037,0.025 -0.058,0.044 -0.025,0.022 -0.053,0.046 -0.085,0.064 -0.029,0.118 -0.031,0.127 -0.033,0.136 l -0.01,0.049 -0.048,0.014 c -0.092,0.028 -0.377,0.058 -0.476,-0.085 -0.083,-0.119 0,-0.326 0.057,-0.438 0.062,-0.124 0.195,-0.358 0.385,-0.532 0.13,-0.119 0.237,-0.271 0.336,-0.477 0.13,-0.273 0.192,-0.537 0.196,-0.83 0.001,-0.075 0.011,-0.145 0.02,-0.213 0.008,-0.055 0.015,-0.109 0.018,-0.165 0.002,-0.042 0.012,-0.074 0.02,-0.1 0.004,-0.014 0.009,-0.028 0.011,-0.045 0.006,-0.043 0.006,-0.085 0.007,-0.128 0.001,-0.048 0.002,-0.097 0.008,-0.147 0.012,-0.09 0.035,-0.177 0.056,-0.262 0.02,-0.077 0.039,-0.15 0.05,-0.224 0.004,-0.03 0.008,-0.061 0.011,-0.093 0.011,-0.088 0.021,-0.179 0.051,-0.263 0.04,-0.112 0.099,-0.235 0.152,-0.341 0.018,-0.037 0.035,-0.075 0.051,-0.112 0.03,-0.066 0.06,-0.135 0.102,-0.203 0.118,-0.193 0.229,-0.375 0.312,-0.581 0.035,-0.089 0.075,-0.175 0.114,-0.261 0.059,-0.127 0.114,-0.247 0.156,-0.374 0.048,-0.149 0.139,-0.276 0.227,-0.399 0.07,-0.098 0.136,-0.19 0.181,-0.291 0.011,-0.026 0.025,-0.054 0.04,-0.084 0.027,-0.053 0.058,-0.115 0.068,-0.161 0.009,-0.044 0.004,-0.111 0,-0.171 -0.003,-0.038 -0.005,-0.074 -0.005,-0.106 0.003,-0.238 0.071,-0.466 0.136,-0.686 0.016,-0.054 0.033,-0.108 0.048,-0.162 0.038,-0.137 0.146,-0.485 0.318,-0.745 0.1,-0.15 0.224,-0.312 0.439,-0.326 0.012,-10e-4 0.023,-10e-4 0.034,-10e-4 0.09,0 0.148,0.028 0.219,0.101 0.022,0.022 0.039,0.048 0.056,0.073 0.022,0.033 0.037,0.054 0.052,0.057 0.04,0.009 0.087,-0.003 0.137,-0.016 0.083,-0.022 0.187,-0.05 0.282,0.027 0.078,0.064 0.087,0.134 0.094,0.19 0.002,0.014 0.005,0.03 0.008,0.046 0.01,0.041 0.031,0.086 0.052,0.13 l 0.02,0.042 c 0.039,0.087 0.048,0.169 0.056,0.248 0.005,0.048 0.01,0.095 0.022,0.141 0.039,0.151 0.08,0.314 0.114,0.481 0.009,0.044 0.019,0.089 0.029,0.135 0.033,0.148 0.067,0.302 0.077,0.448 0.005,0.064 0.003,0.13 0.001,0.195 -0.001,0.037 -0.002,0.075 -0.002,0.112"
             style="fill:#050606;fill-opacity:1;fill-rule:nonzero;stroke:none"
             id="path951" />
        </g>
        <g
           id="g953"
           transform="translate(177.831,338.199)">
          <path
             d="M 0,0 C -0.071,0.076 -0.12,0.102 -0.231,0.101 -0.275,0.101 -0.324,0.098 -0.375,0.094 -0.494,0.087 -0.628,0.079 -0.722,0.107 -0.746,0.114 -0.775,0.13 -0.803,0.144 -0.827,0.157 -0.85,0.169 -0.87,0.178 -0.946,0.211 -1.017,0.258 -1.084,0.303 -1.181,0.369 -1.22,0.496 -1.244,0.599 -1.25,0.626 -1.262,0.656 -1.274,0.685 l -0.012,0.029 c -0.003,0.01 -0.007,0.022 -0.011,0.035 -0.005,0.018 -0.011,0.036 -0.016,0.05 -0.027,0.069 -0.044,0.135 -0.065,0.215 -0.03,0.113 -0.029,0.336 -0.009,0.452 0.024,0.136 0.114,0.288 0.197,0.42 0.103,0.164 0.21,0.246 0.384,0.349 0.089,0.052 0.154,0.084 0.193,0.094 0.014,0.003 0.032,0.004 0.049,0.004 0.038,0.002 0.096,0.004 0.129,0.054 0.035,0.052 0.011,0.115 0.003,0.135 -0.027,0.072 -0.079,0.12 -0.125,0.163 l -0.027,0.026 c -0.028,0.027 -0.047,0.06 -0.069,0.097 -0.009,0.017 -0.019,0.034 -0.03,0.051 -0.022,0.035 -0.051,0.066 -0.079,0.095 -0.025,0.025 -0.05,0.052 -0.062,0.073 -0.018,0.033 -0.032,0.111 -0.035,0.163 -0.007,0.134 0.057,0.229 0.138,0.35 l 0.036,0.054 c 0.02,0.03 0.045,0.062 0.072,0.094 0.075,0.093 0.159,0.197 0.168,0.318 C -0.431,4.2 -0.599,4.327 -0.722,4.42 L -0.76,4.448 C -0.793,4.474 -0.829,4.495 -0.866,4.517 -0.908,4.542 -0.949,4.565 -0.978,4.594 -0.992,4.607 -1.003,4.623 -1.014,4.638 -1.033,4.663 -1.051,4.688 -1.075,4.71 -1.127,4.757 -1.193,4.801 -1.251,4.839 L -1.344,4.9 C -1.39,4.929 -1.43,4.954 -1.47,4.991 -1.566,5.079 -1.638,5.099 -1.743,5.129 -1.759,5.134 -1.772,5.142 -1.788,5.151 -1.821,5.17 -1.869,5.199 -1.937,5.183 -1.972,5.174 -2.001,5.149 -2.042,5.111 -2.05,5.104 -2.057,5.098 -2.062,5.094 -2.107,5.059 -2.154,5.032 -2.212,5.006 -2.347,4.946 -2.494,4.897 -2.649,4.86 -2.699,4.847 -2.752,4.838 -2.804,4.828 -2.92,4.807 -3.039,4.785 -3.151,4.735 -3.298,4.669 -3.307,4.517 -3.312,4.426 -3.315,4.38 -3.323,4.341 -3.332,4.3 -3.336,4.277 -3.341,4.254 -3.345,4.229 -3.351,4.195 -3.349,4.164 -3.347,4.136 -3.345,4.115 -3.344,4.096 -3.346,4.083 -3.35,4.063 -3.357,4.044 -3.364,4.024 -3.384,3.968 -3.409,3.899 -3.386,3.818 -3.34,3.657 -3.158,3.672 -3.06,3.681 c 0.022,10e-4 0.042,0.003 0.059,0.003 0.057,0.002 0.12,-0.003 0.183,-0.006 0.147,-0.008 0.3,-0.016 0.441,0.016 0.1,0.023 0.208,0.074 0.282,0.111 0.025,0.012 0.053,0.03 0.082,0.049 0.037,0.025 0.083,0.055 0.109,0.059 0.03,0.006 0.04,-0.002 0.043,-0.004 0.036,-0.029 0.043,-0.15 0.047,-0.222 0.002,-0.048 0.005,-0.092 0.012,-0.123 0.016,-0.076 0.046,-0.14 0.075,-0.203 C -1.712,3.328 -1.697,3.295 -1.684,3.26 -1.681,3.252 -1.678,3.233 -1.677,3.217 -1.673,3.19 -1.67,3.161 -1.658,3.134 -1.641,3.095 -1.616,3.067 -1.594,3.042 -1.579,3.025 -1.566,3.011 -1.558,2.996 -1.54,2.959 -1.526,2.923 -1.512,2.886 -1.495,2.842 -1.477,2.798 -1.455,2.756 -1.43,2.708 -1.464,2.645 -1.496,2.6 -1.52,2.567 -1.541,2.558 -1.581,2.541 -1.607,2.53 -1.634,2.518 -1.663,2.5 -1.716,2.467 -1.777,2.408 -1.825,2.361 L -1.843,2.344 C -1.887,2.302 -1.922,2.254 -1.956,2.207 -1.983,2.17 -2.011,2.132 -2.043,2.099 -2.101,2.04 -2.131,1.981 -2.16,1.924 -2.17,1.903 -2.182,1.881 -2.195,1.858 -2.287,1.699 -2.36,1.502 -2.407,1.291 -2.411,1.269 -2.417,1.25 -2.423,1.231 -2.435,1.189 -2.448,1.147 -2.45,1.091 -2.454,1 -2.44,0.919 -2.426,0.841 -2.421,0.812 -2.416,0.784 -2.411,0.755 -2.396,0.648 -2.371,0.509 -2.312,0.386 L -2.291,0.34 C -2.256,0.264 -2.22,0.185 -2.155,0.117 l 0.034,-0.034 c 0.031,-0.032 0.06,-0.062 0.089,-0.096 0.105,-0.124 0.291,-0.273 0.453,-0.31 0.022,-0.004 0.04,-0.008 0.056,-0.011 0.043,-0.008 0.06,-0.011 0.104,-0.038 0.053,-0.031 0.107,-0.046 0.155,-0.058 0.048,-0.013 0.09,-0.024 0.123,-0.049 0.02,-0.015 0.044,-0.031 0.07,-0.048 0.072,-0.047 0.161,-0.105 0.161,-0.165 0,-0.071 -0.05,-0.17 -0.09,-0.249 l -0.017,-0.035 c -0.037,-0.076 -0.05,-0.155 -0.063,-0.231 -0.007,-0.044 -0.014,-0.088 -0.026,-0.13 -0.023,-0.079 -0.051,-0.155 -0.079,-0.232 -0.014,-0.037 -0.028,-0.074 -0.041,-0.111 -0.012,-0.035 -0.032,-0.066 -0.053,-0.1 -0.031,-0.049 -0.066,-0.105 -0.083,-0.179 l -0.022,-0.106 c -0.018,-0.081 -0.035,-0.163 -0.055,-0.241 -0.003,-0.013 -0.008,-0.024 -0.012,-0.035 -0.009,-0.023 -0.021,-0.051 -0.025,-0.087 -0.002,-0.022 -0.001,-0.043 0,-0.064 0.002,-0.015 0.003,-0.029 10e-4,-0.033 -0.003,-0.005 -0.015,-0.018 -0.022,-0.026 -0.016,-0.015 -0.03,-0.031 -0.039,-0.045 -0.045,-0.067 -0.064,-0.128 -0.082,-0.191 -0.004,-0.016 -0.009,-0.034 -0.013,-0.052 -0.014,-0.057 -0.03,-0.122 -0.059,-0.155 -0.006,-0.008 -0.072,-0.066 -0.397,0.197 -0.027,0.022 -0.052,0.046 -0.077,0.069 -0.047,0.044 -0.096,0.09 -0.158,0.127 -0.125,0.075 -0.269,0.1 -0.441,0.079 C -2.825,-2.529 -2.881,-2.547 -2.937,-2.565 -2.968,-2.574 -3,-2.584 -3.031,-2.592 -3.096,-2.607 -3.172,-2.604 -3.247,-2.601 -3.32,-2.598 -3.389,-2.598 -3.459,-2.6 -3.53,-2.601 -3.6,-2.602 -3.67,-2.599 c -0.061,0.003 -0.13,0.022 -0.196,0.04 -0.032,0.009 -0.064,0.018 -0.095,0.025 -0.205,0.048 -0.576,0.013 -0.718,-0.216 l -0.024,-0.039 c -0.026,-0.044 -0.04,-0.068 -0.077,-0.098 l -0.035,-0.028 c -0.067,-0.054 -0.13,-0.105 -0.173,-0.202 -0.076,-0.17 -0.133,-0.457 -0.081,-0.686 0.017,-0.075 0.056,-0.145 0.095,-0.212 0.017,-0.03 0.034,-0.06 0.048,-0.09 0.011,-0.022 0.021,-0.05 0.031,-0.078 0.019,-0.052 0.039,-0.105 0.066,-0.147 0.019,-0.029 0.046,-0.05 0.07,-0.069 0.016,-0.013 0.033,-0.026 0.039,-0.036 0.014,-0.02 0.022,-0.038 0.03,-0.056 0.007,-0.015 0.013,-0.03 0.024,-0.05 0.089,-0.174 0.163,-0.288 0.272,-0.286 l 0.059,0.002 0.018,0.057 c 0.022,0.072 0.016,0.151 0.012,0.22 -0.002,0.03 -0.005,0.06 -0.004,0.088 0.001,0.032 0.007,0.049 0.015,0.074 0.006,0.019 0.013,0.039 0.018,0.064 0.02,0.093 0.017,0.251 -0.193,0.341 0.005,0.009 0.01,0.019 0.014,0.029 0.015,0.035 0.02,0.065 0.023,0.09 0.002,0.011 0.003,0.022 0.007,0.035 0.013,0.045 0.036,0.094 0.057,0.141 l 0.015,0.031 c 0.022,0.049 0.038,0.099 0.053,0.146 0.029,0.096 0.052,0.167 0.125,0.222 0,-0.003 10e-4,-0.006 10e-4,-0.008 0.008,-0.05 0.015,-0.066 0.036,-0.107 0.013,-0.027 0.019,-0.049 0.026,-0.076 0.005,-0.018 0.009,-0.036 0.016,-0.056 0.038,-0.119 0.114,-0.168 0.17,-0.188 0.099,-0.035 0.222,-0.013 0.338,0.062 0.079,0.05 0.109,0.074 0.158,0.16 l 0.013,0.022 c 0.031,0.054 0.058,0.102 0.085,0.163 l 0.013,0.032 c 0.006,0.014 0.016,0.04 0.025,0.057 0.008,-0.014 0.013,-0.04 0.017,-0.058 0.003,-0.013 0.005,-0.026 0.008,-0.038 0.058,-0.208 0.199,-0.425 0.438,-0.417 0.061,0.002 0.082,0.009 0.117,0.034 0.006,0.004 0.013,0.009 0.023,0.015 0.013,0.008 0.027,0.013 0.04,0.019 0.018,0.008 0.037,0.016 0.055,0.026 0.06,0.034 0.098,0.083 0.132,0.126 0.018,0.021 0.034,0.043 0.055,0.061 0.002,-0.05 -0.009,-0.088 -0.024,-0.14 l -0.011,-0.04 c -0.04,-0.151 -0.081,-0.331 -0.081,-0.524 0,-0.022 -0.002,-0.045 -0.003,-0.069 -0.004,-0.056 -0.008,-0.119 0.004,-0.175 0.007,-0.033 0.021,-0.056 0.031,-0.073 0.006,-0.01 0.009,-0.015 0.01,-0.019 0.003,-0.013 0,-0.042 -10e-4,-0.063 -0.002,-0.018 -0.003,-0.035 -0.003,-0.051 0,-0.039 -0.002,-0.08 -0.003,-0.12 -0.003,-0.135 -0.008,-0.275 0.024,-0.408 0.015,-0.069 0.026,-0.14 0.036,-0.211 0.005,-0.034 0.01,-0.069 0.015,-0.102 0.01,-0.059 0.017,-0.118 0.024,-0.178 0.01,-0.084 0.02,-0.168 0.036,-0.252 0.026,-0.129 0.023,-0.271 0.02,-0.408 -10e-4,-0.047 -0.002,-0.093 -0.002,-0.139 l -10e-4,-0.081 c 0,-0.055 0,-0.109 10e-4,-0.164 0,-0.052 -0.01,-0.098 -0.021,-0.151 -0.006,-0.026 -0.011,-0.052 -0.016,-0.079 -0.02,-0.119 -0.425,-0.519 -0.49,-0.649 -0.074,-0.148 -0.112,-0.722 -0.07,-0.744 0.024,-0.013 0.897,0.772 0.951,0.885 0.06,0.123 0.13,0.315 0.149,0.486 0.005,0.042 0.012,0.082 0.019,0.123 0.006,0.032 0.011,0.064 0.016,0.098 0.003,0.02 0.01,0.04 0.017,0.059 0.01,0.028 0.02,0.06 0.025,0.096 0.003,0.028 0.003,0.054 0.002,0.081 -0.001,0.025 -0.002,0.047 0.003,0.068 0.04,0.186 0.036,0.377 0.033,0.563 -10e-4,0.051 -0.002,0.103 -0.002,0.154 v 0.718 c 0,0.051 -0.003,0.106 -0.006,0.161 -0.007,0.115 -0.013,0.233 0.007,0.326 0.003,0.013 0.008,0.025 0.013,0.037 0.009,0.022 0.02,0.049 0.024,0.083 0.004,0.029 0,0.057 -0.003,0.081 -0.002,0.012 -0.004,0.032 -0.003,0.038 0.005,0.015 0.036,0.043 0.057,0.061 0.013,0.012 0.026,0.023 0.036,0.034 0.028,0.027 0.055,0.057 0.082,0.086 0.05,0.054 0.101,0.11 0.154,0.152 0.094,0.073 0.209,0.153 0.325,0.223 0.166,0.1 0.231,0.189 0.313,0.353 0.032,0.064 0.038,0.11 0.045,0.16 0.001,0.014 0.003,0.03 0.006,0.048 0.011,0.065 0.05,0.151 0.084,0.226 0.014,0.032 0.028,0.063 0.04,0.092 l 0.019,0.047 c 0.032,0.078 0.063,0.156 0.097,0.231 l 0.011,0.023 c 0.026,0.056 0.05,0.109 0.067,0.175 0.008,0.034 0.012,0.067 0.016,0.101 0.004,0.037 0.008,0.07 0.019,0.099 0.087,0.223 0.169,0.464 0.172,0.714 0.001,0.051 0.01,0.099 0.019,0.15 0.008,0.046 0.016,0.091 0.02,0.14 0.008,0.13 0.021,0.233 0.043,0.341 0.014,0.068 0.037,0.13 0.062,0.195 0.04,0.105 0.081,0.213 0.081,0.346 v 0.019 c 0,0.081 0,0.14 -0.079,0.225"
             style="fill:#050606;fill-opacity:1;fill-rule:nonzero;stroke:none"
             id="path955" />
        </g>
        <g
           id="g957"
           transform="translate(176.546,343.654)">
          <path
             d="m 0,0 c 0.005,-0.051 0.143,-0.112 0.18,-0.159 0.016,-0.021 0.018,-0.053 0.035,-0.076 0.02,-0.028 0.053,-0.046 0.075,-0.072 0.059,-0.071 0.123,-0.125 0.188,-0.19 0.051,-0.051 0.1,-0.126 0.157,-0.169 0.133,-0.101 0.296,-0.176 0.452,-0.244 0.088,-0.038 0.167,-0.061 0.262,-0.064 0.127,-0.005 0.115,0.03 0.113,0.149 -10e-4,0.091 0.033,0.159 0.057,0.244 0.024,0.087 0.031,0.187 0.063,0.272 0.03,0.077 0.08,0.137 0.105,0.217 0.02,0.064 0.053,0.131 0.084,0.195 C 1.833,0.228 1.923,0.313 2.014,0.42 2.064,0.478 2.103,0.544 2.156,0.6 2.227,0.676 2.255,0.676 2.362,0.675 2.533,0.674 2.667,0.674 2.812,0.6 2.97,0.519 3.091,0.42 3.197,0.271 3.239,0.212 3.26,0.149 3.298,0.091 3.352,0.006 3.443,-0.089 3.514,-0.16 c 0.055,-0.055 0.11,-0.099 0.159,-0.162 0.034,-0.044 0.072,-0.084 0.106,-0.129 0.036,-0.048 0.069,-0.067 0.112,-0.11 0.135,-0.137 0.25,-0.265 0.458,-0.264 0.174,0.001 0.349,0.002 0.523,0 0.213,-0.002 0.425,0.032 0.6,0.149 0.21,0.141 0.418,0.265 0.6,0.449 0.122,0.125 0.242,0.249 0.358,0.38 0.131,0.149 0.206,0.329 0.3,0.502 0.103,0.189 0.139,0.409 0.173,0.62 0.028,0.169 0.017,0.327 0.031,0.496 0.007,0.075 0.036,0.142 0.04,0.216 0.004,0.062 0,0.125 0,0.187 C 6.973,2.382 7.001,2.582 7.04,2.787 7.059,2.884 7.042,2.983 7.057,3.082 7.074,3.194 7.088,3.298 7.086,3.412 7.085,3.579 7.123,3.803 7.08,3.965 6.953,3.852 6.87,3.65 6.786,3.507 6.678,3.323 6.574,3.133 6.524,2.924 6.454,2.632 6.335,2.371 6.233,2.091 6.123,1.791 6.031,1.478 5.864,1.203 5.815,1.122 5.744,1.06 5.699,0.976 5.655,0.895 5.608,0.836 5.549,0.767 5.424,0.62 5.367,0.413 5.232,0.276 5.093,0.136 4.902,0.089 4.705,0.111 4.535,0.131 4.315,0.223 4.254,0.394 4.223,0.482 4.238,0.581 4.237,0.675 4.235,0.789 4.285,0.84 4.331,0.937 4.431,1.146 4.581,1.344 4.716,1.538 4.885,1.782 4.994,2.043 5.08,2.329 5.126,2.482 5.142,2.628 5.176,2.78 5.195,2.867 5.174,2.978 5.174,3.069 5.174,3.127 5.186,3.204 5.166,3.259 5.108,3.257 5.077,3.12 5.054,3.075 5.005,2.983 4.919,2.897 4.857,2.814 4.717,2.623 4.572,2.441 4.432,2.25 4.314,2.086 4.196,1.925 4.078,1.762 4.017,1.678 3.934,1.636 3.862,1.566 3.81,1.517 3.773,1.457 3.713,1.415 3.571,1.317 3.439,1.238 3.262,1.238 3.088,1.238 2.905,1.332 2.745,1.397 2.689,1.42 2.635,1.468 2.578,1.49 2.543,1.505 2.507,1.51 2.472,1.527 2.458,1.534 2.443,1.561 2.429,1.567 2.407,1.576 2.379,1.566 2.361,1.574 2.312,1.597 2.247,1.644 2.202,1.677 2.151,1.714 2.085,1.776 2.051,1.828 1.941,1.993 1.992,2.23 1.988,2.428 1.986,2.511 1.957,2.578 1.948,2.659 1.937,2.756 1.949,2.863 1.95,2.96 1.951,3.054 1.931,3.12 1.916,3.209 1.902,3.29 1.923,3.366 1.873,3.438 1.898,3.248 1.799,3.04 1.724,2.87 1.652,2.704 1.569,2.533 1.508,2.362 1.464,2.239 1.388,2.136 1.321,2.025 1.238,1.889 1.165,1.756 1.069,1.628 0.88,1.374 0.755,1.075 0.527,0.854 0.389,0.721 0.255,0.579 0.157,0.412 0.112,0.335 0.062,0.218 0.04,0.134 0.03,0.096 -0.01,-0.004 0,0"
             style="fill:#050606;fill-opacity:1;fill-rule:nonzero;stroke:none"
             id="path959" />
        </g>
        <g
           id="g961"
           transform="translate(171.258,343.412)">
          <path
             d="m 0,0 c -0.01,0.058 -0.101,0.085 -0.142,0.123 -0.039,0.035 -0.067,0.079 -0.1,0.119 -0.117,0.141 -0.193,0.279 -0.274,0.44 -0.162,0.326 -0.241,0.702 -0.337,1.045 -0.042,0.149 -0.146,0.276 -0.191,0.421 -0.014,0.047 -0.007,0.079 -0.028,0.121 -0.017,0.036 -0.046,0.063 -0.063,0.101 -0.026,0.059 -0.061,0.123 -0.085,0.18 -0.027,0.065 -0.037,0.132 -0.07,0.203 -0.025,0.054 -0.05,0.109 -0.062,0.167 -0.012,0.062 0.008,0.132 0.001,0.196 -0.01,0.08 -0.036,0.143 -0.067,0.218 -0.018,0.047 -0.01,0.101 -0.073,0.111 C -1.53,3.254 -1.669,3.084 -1.687,2.888 -1.697,2.781 -1.737,2.678 -1.761,2.577 -1.783,2.484 -1.799,2.427 -1.8,2.325 -1.8,2.237 -1.777,2.195 -1.761,2.12 -1.745,2.047 -1.763,1.95 -1.762,1.875 -1.761,1.737 -1.803,1.579 -1.911,1.481 -2.021,1.38 -2.218,1.307 -2.362,1.274 -2.444,1.255 -2.522,1.21 -2.605,1.199 -2.723,1.183 -2.843,1.161 -2.96,1.13 -3.106,1.09 -3.326,1.047 -3.488,1.084 -3.537,1.096 -3.556,1.135 -3.599,1.155 -3.643,1.175 -3.684,1.169 -3.728,1.199 -3.785,1.239 -3.843,1.28 -3.9,1.32 -3.968,1.367 -4.023,1.45 -4.071,1.517 -4.157,1.636 -4.22,1.735 -4.257,1.879 c -0.037,0.144 -0.036,0.299 -0.064,0.447 -0.036,0.192 -0.069,0.404 -0.066,0.6 10e-4,0.088 0,0.175 0,0.263 10e-4,0.033 0.02,0.139 -0.001,0.167 C -4.445,3.431 -4.517,3.334 -4.533,3.277 -4.6,3.034 -4.649,2.802 -4.649,2.54 -4.649,2.285 -4.665,2.024 -4.65,1.769 -4.645,1.678 -4.601,1.602 -4.579,1.515 -4.555,1.422 -4.536,1.335 -4.504,1.253 -4.439,1.089 -4.446,0.925 -4.583,0.797 -4.684,0.704 -4.889,0.749 -5.002,0.79 c -0.063,0.024 -0.153,0.094 -0.2,0.146 -0.089,0.1 -0.173,0.201 -0.253,0.32 -0.114,0.169 -0.197,0.353 -0.283,0.537 -0.083,0.178 -0.1,0.364 -0.162,0.547 -0.066,0.192 -0.106,0.39 -0.144,0.586 -0.029,0.145 -0.09,0.289 -0.106,0.433 -0.016,0.145 -0.036,0.277 -0.036,0.429 0,0.153 -0.016,0.297 -0.045,0.445 C -6.309,4.229 -6.357,3.882 -6.365,3.825 -6.418,3.486 -6.409,3.152 -6.412,2.809 -6.415,2.517 -6.304,2.245 -6.224,1.968 -6.145,1.696 -6.08,1.431 -5.979,1.165 c 0.145,-0.381 0.356,-0.738 0.676,-0.998 0.221,-0.18 0.438,-0.393 0.692,-0.519 0.267,-0.133 0.569,-0.098 0.861,-0.098 0.06,0 0.13,-0.011 0.189,-0.002 0.072,0.011 0.135,0.06 0.207,0.074 0.125,0.024 0.247,0.051 0.353,0.124 0.101,0.07 0.206,0.117 0.282,0.215 0.053,0.067 0.126,0.126 0.171,0.197 0.052,0.08 0.061,0.132 0.14,0.19 0.084,0.061 0.164,0.134 0.248,0.182 0.103,0.059 0.319,0.057 0.438,0.034 0.051,-0.009 0.151,-0.037 0.188,-0.074 0.051,-0.051 0.053,-0.152 0.072,-0.218 0.023,-0.082 0.032,-0.151 0.036,-0.235 0.004,-0.067 0.031,-0.121 0.039,-0.187 0.007,-0.066 0.036,-0.121 0.038,-0.187 0.004,-0.079 0.012,-0.132 0.041,-0.207 0.062,-0.16 0.162,-0.158 0.285,-0.238 0.043,0.053 0.102,0.051 0.163,0.07 0.058,0.018 0.101,0.047 0.156,0.075 0.124,0.063 0.229,0.141 0.349,0.21 C -0.165,-0.318 0.021,-0.209 0,0"
             style="fill:#050606;fill-opacity:1;fill-rule:nonzero;stroke:none"
             id="path963" />
        </g>
      </g>
    </g>
    <g
       id="g4049"
       transform="matrix(0.35528451,0,0,-0.35528451,45.534086,209.68642)">
      <g
         id="g4047"
         clip-path="url(#clipPath947)">
        <g
           id="g4033"
           transform="translate(170.987,342.493)">
          <path
             d="m 0,0 z m 3.815,-10.311 c 10e-4,0.066 -0.01,0.122 -0.021,0.177 -0.008,0.04 -0.016,0.081 -0.018,0.125 -0.002,0.044 0.002,0.091 0.005,0.138 0.006,0.08 -0.398,1.135 -0.465,1.105 L 3.245,-8.796 C 3.172,-8.825 3.338,-9.249 3.343,-9.277 3.349,-9.303 3.063,-9.81 3.085,-9.835 c 0.092,-0.107 0.091,-0.352 0.092,-0.44 10e-4,-0.114 -0.05,-0.312 -0.053,-0.426 -10e-4,-0.038 -0.009,-0.075 -0.018,-0.115 -0.009,-0.042 -0.018,-0.084 -0.021,-0.128 -0.002,-0.038 -0.007,-0.053 -0.018,-0.081 -0.005,-0.014 -0.01,-0.029 -0.016,-0.048 -0.006,-0.021 -0.01,-0.04 -0.015,-0.058 -0.01,-0.043 -0.017,-0.072 -0.042,-0.104 -0.018,-0.023 -0.036,-0.043 -0.053,-0.063 -0.039,-0.045 -0.08,-0.091 -0.12,-0.161 -0.011,-0.02 -0.028,-0.051 -0.041,-0.066 0,0.001 0,0.001 -10e-4,0.002 -0.013,0.01 -0.053,0.06 -0.074,0.092 -0.033,0.05 -0.052,0.111 -0.071,0.176 -0.026,0.082 -0.051,0.167 -0.11,0.244 -0.058,0.076 -0.106,0.16 -0.157,0.249 -0.03,0.052 -0.061,0.105 -0.093,0.157 -0.028,0.044 -0.039,0.099 -0.051,0.158 -0.012,0.062 -0.025,0.125 -0.057,0.185 -0.011,0.02 -0.025,0.034 -0.035,0.046 -0.005,0.005 -0.011,0.012 -0.013,0.014 -0.005,0.011 -0.01,0.037 -0.013,0.057 -0.004,0.021 -0.008,0.042 -0.013,0.06 -0.01,0.032 -0.024,0.064 -0.038,0.095 -0.016,0.037 -0.031,0.072 -0.037,0.104 -0.014,0.088 -0.041,0.172 -0.067,0.254 -0.018,0.054 -0.036,0.11 -0.05,0.167 -0.009,0.034 -0.015,0.07 -0.021,0.107 -0.011,0.063 -0.023,0.128 -0.046,0.192 -0.013,0.036 -0.029,0.071 -0.046,0.105 -0.014,0.03 -0.028,0.059 -0.039,0.09 -0.049,0.136 -0.117,0.261 -0.183,0.385 -0.085,0.158 -0.12,0.316 -0.158,0.484 -0.02,0.09 -0.041,0.184 -0.07,0.281 -0.03,0.097 -0.075,0.18 -0.118,0.259 C 1.185,-7.5 1.153,-7.441 1.128,-7.376 1.112,-7.335 1.095,-7.294 1.078,-7.252 1.043,-7.166 1.007,-7.076 0.98,-6.988 0.944,-6.871 0.898,-6.755 0.855,-6.644 L 0.802,-6.51 c -0.048,0.124 -0.086,0.223 -0.064,0.346 0.008,0.048 0.031,0.106 0.053,0.162 0.011,0.027 0.021,0.053 0.03,0.078 0.019,0.054 0.021,0.098 0.022,0.137 0,0.025 0.001,0.047 0.006,0.07 0.004,0.017 0.01,0.028 0.014,0.039 0.016,0.033 0.028,0.066 0.028,0.129 C 0.89,-5.508 0.89,-5.467 0.89,-5.426 l 0.001,0.063 c 0,0.044 -0.004,0.092 -0.007,0.141 -0.006,0.091 -0.013,0.185 0.003,0.256 0.007,0.035 0.024,0.046 0.085,0.077 0.036,0.018 0.076,0.038 0.115,0.072 0.221,0.194 0.386,0.47 0.535,0.737 0.167,0.296 0.09,0.661 0.007,0.979 -0.014,0.054 -0.031,0.105 -0.048,0.157 -0.025,0.078 -0.048,0.151 -0.062,0.227 -0.026,0.152 -0.115,0.312 -0.189,0.435 -0.043,0.071 -0.098,0.134 -0.15,0.195 -0.036,0.042 -0.072,0.083 -0.104,0.127 -0.048,0.067 -0.041,0.073 0.035,0.144 0.038,0.035 0.084,0.078 0.119,0.138 0.025,0.042 0.04,0.085 0.054,0.127 0.015,0.043 0.029,0.083 0.051,0.116 0.055,0.081 0.077,0.118 0.08,0.229 l 0.002,0.048 c 0.005,0.118 0.01,0.251 -0.059,0.366 -0.078,0.127 -0.092,0.224 -0.092,0.391 -0.001,0.05 -0.001,0.133 0.025,0.16 0.003,0.002 0.013,0.012 0.038,0.01 0.004,-0.001 0.016,-0.007 0.025,-0.012 0.02,-0.011 0.045,-0.025 0.077,-0.03 0.022,-0.004 0.042,-0.004 0.064,-0.004 0.008,0 0.015,0 0.021,0 0.012,-0.011 0.031,-0.026 0.057,-0.032 0.034,-0.008 0.068,-0.005 0.097,-0.002 0.012,0.001 0.023,0.003 0.033,0.003 0.024,-0.002 0.047,-0.009 0.074,-0.017 0.032,-0.01 0.069,-0.02 0.116,-0.023 0.093,-0.005 0.166,-0.009 0.25,-0.027 0.117,-0.024 0.237,-0.06 0.353,-0.094 l 0.051,-0.015 c 0.025,-0.008 0.051,-0.016 0.077,-0.025 0.1,-0.032 0.215,-0.071 0.325,-0.064 0.061,0.003 0.11,0.025 0.145,0.064 0.066,0.075 0.057,0.184 0.05,0.28 -0.002,0.027 -0.004,0.052 -0.004,0.076 0,0.02 0.002,0.048 0.005,0.081 C 3.158,0.091 3.172,0.277 3.062,0.336 3.016,0.361 2.954,0.369 2.894,0.376 2.874,0.379 2.855,0.381 2.839,0.384 2.827,0.396 2.807,0.412 2.78,0.419 2.741,0.428 2.696,0.425 2.656,0.422 2.642,0.42 2.628,0.419 2.617,0.419 H 2.521 C 2.474,0.42 2.428,0.42 2.381,0.419 2.356,0.419 2.343,0.424 2.32,0.434 2.3,0.442 2.279,0.45 2.253,0.456 2.219,0.465 2.188,0.46 2.163,0.456 2.153,0.455 2.139,0.453 2.134,0.454 2.126,0.455 2.117,0.46 2.105,0.465 2.089,0.473 2.07,0.482 2.046,0.488 2.023,0.494 2.001,0.498 1.979,0.502 1.93,0.512 1.887,0.52 1.846,0.544 L 1.811,0.565 C 1.769,0.589 1.728,0.613 1.686,0.634 1.648,0.654 1.647,0.655 1.627,0.688 L 1.61,0.717 C 1.597,0.738 1.586,0.766 1.574,0.794 1.556,0.836 1.538,0.88 1.512,0.914 1.455,0.989 1.381,0.985 1.329,0.983 L 1.295,0.981 C 1.286,0.981 1.275,0.983 1.263,0.983 1.231,0.986 1.195,0.989 1.161,0.981 1.137,0.975 1.119,0.962 1.103,0.948 1.094,0.947 1.085,0.947 1.077,0.946 1.037,0.943 0.987,0.94 0.935,0.901 0.896,0.872 0.872,0.831 0.851,0.796 0.838,0.774 0.826,0.754 0.814,0.742 0.793,0.72 0.772,0.709 0.744,0.693 0.726,0.684 0.707,0.674 0.687,0.661 0.649,0.636 0.615,0.606 0.581,0.575 0.555,0.552 0.528,0.528 0.499,0.508 0.462,0.483 0.426,0.455 0.39,0.428 L 0.347,0.395 C 0.252,0.322 0.177,0.255 0.102,0.177 0.074,0.148 0.02,0.112 -0.02,0.087 L -0.046,0.07 C -0.137,0.01 -0.24,-0.058 -0.282,-0.186 -0.336,-0.355 -0.135,-0.518 0.043,-0.626 L 0.06,-0.636 C 0.169,-0.701 0.318,-0.791 0.396,-0.886 0.466,-0.971 0.479,-1.05 0.44,-1.14 0.405,-1.222 0.301,-1.285 0.2,-1.346 0.123,-1.392 0.054,-1.443 -0.016,-1.494 L -0.102,-1.555 C -0.14,-1.582 -0.185,-1.607 -0.23,-1.632 -0.302,-1.673 -0.376,-1.716 -0.436,-1.769 l -0.106,-0.095 0.134,-0.046 c 0.035,-0.012 0.068,-0.013 0.097,-0.014 0.015,-0.001 0.029,-0.001 0.043,-0.004 0.011,-0.003 0.021,-0.006 0.031,-0.009 0.026,-0.009 0.059,-0.019 0.104,-0.021 0.081,-0.004 0.189,-0.035 0.264,-0.075 C 0.214,-2.079 0.365,-2.172 0.451,-2.29 0.545,-2.42 0.626,-2.561 0.705,-2.735 0.724,-2.779 0.736,-2.84 0.748,-2.899 0.753,-2.928 0.759,-2.957 0.765,-2.983 0.774,-3.02 0.785,-3.059 0.796,-3.098 0.813,-3.158 0.83,-3.219 0.84,-3.278 0.866,-3.428 0.798,-3.602 0.731,-3.753 0.719,-3.781 0.708,-3.808 0.699,-3.834 0.672,-3.901 0.652,-3.954 0.604,-4.007 0.553,-4.064 0.536,-4.072 0.458,-4.091 0.443,-4.094 0.43,-4.098 0.416,-4.102 0.387,-4.111 0.363,-4.117 0.329,-4.117 H 0.208 0.155 c -0.033,0 -0.065,0 -0.099,0 -0.014,0.001 -0.031,0.004 -0.05,0.011 -0.017,0.006 -0.033,0.012 -0.052,0.016 l -0.038,0.008 c -0.077,0.015 -0.138,0.027 -0.207,0.06 -0.015,0.007 -0.037,0.025 -0.058,0.044 -0.025,0.022 -0.053,0.046 -0.085,0.064 -0.029,0.118 -0.031,0.127 -0.033,0.136 l -0.01,0.049 -0.048,0.014 c -0.092,0.028 -0.377,0.058 -0.476,-0.085 -0.083,-0.119 0,-0.326 0.057,-0.438 0.062,-0.124 0.195,-0.358 0.385,-0.532 0.13,-0.119 0.237,-0.271 0.336,-0.477 0.13,-0.273 0.192,-0.537 0.196,-0.83 0.001,-0.075 0.011,-0.145 0.02,-0.213 0.008,-0.055 0.015,-0.109 0.018,-0.165 0.002,-0.042 0.012,-0.074 0.02,-0.1 0.004,-0.014 0.009,-0.028 0.011,-0.045 0.006,-0.043 0.006,-0.085 0.007,-0.128 0.001,-0.048 0.002,-0.097 0.008,-0.147 0.012,-0.09 0.035,-0.177 0.056,-0.262 0.02,-0.077 0.039,-0.15 0.05,-0.224 0.004,-0.03 0.008,-0.061 0.011,-0.093 0.011,-0.088 0.021,-0.179 0.051,-0.263 0.04,-0.112 0.099,-0.235 0.152,-0.341 0.018,-0.037 0.035,-0.075 0.051,-0.112 0.03,-0.066 0.06,-0.135 0.102,-0.203 0.118,-0.193 0.229,-0.375 0.312,-0.581 0.035,-0.089 0.075,-0.175 0.114,-0.261 0.059,-0.127 0.114,-0.247 0.156,-0.374 0.048,-0.149 0.139,-0.276 0.227,-0.399 0.07,-0.098 0.136,-0.19 0.181,-0.291 0.011,-0.026 0.025,-0.054 0.04,-0.084 0.027,-0.053 0.058,-0.115 0.068,-0.161 0.009,-0.044 0.004,-0.111 0,-0.171 -0.003,-0.038 -0.005,-0.074 -0.005,-0.106 0.003,-0.238 0.071,-0.466 0.136,-0.686 0.016,-0.054 0.033,-0.108 0.048,-0.162 0.038,-0.137 0.146,-0.485 0.318,-0.745 0.1,-0.15 0.224,-0.312 0.439,-0.326 0.012,-10e-4 0.023,-10e-4 0.034,-10e-4 0.09,0 0.148,0.028 0.219,0.101 0.022,0.022 0.039,0.048 0.056,0.073 0.022,0.033 0.037,0.054 0.052,0.057 0.04,0.009 0.087,-0.003 0.137,-0.016 0.083,-0.022 0.187,-0.05 0.282,0.027 0.078,0.064 0.087,0.134 0.094,0.19 0.002,0.014 0.005,0.03 0.008,0.046 0.01,0.041 0.031,0.086 0.052,0.13 l 0.02,0.042 c 0.039,0.087 0.048,0.169 0.056,0.248 0.005,0.048 0.01,0.095 0.022,0.141 0.039,0.151 0.08,0.314 0.114,0.481 0.009,0.044 0.019,0.089 0.029,0.135 0.033,0.148 0.067,0.302 0.077,0.448 0.005,0.064 0.003,0.13 0.001,0.195 -0.001,0.037 -0.002,0.075 -0.002,0.112"
             style="fill:#050606;fill-opacity:1;fill-rule:nonzero;stroke:none"
             id="path4031" />
        </g>
        <g
           id="g4037"
           transform="translate(177.831,338.199)">
          <path
             d="M 0,0 C -0.071,0.076 -0.12,0.102 -0.231,0.101 -0.275,0.101 -0.324,0.098 -0.375,0.094 -0.494,0.087 -0.628,0.079 -0.722,0.107 -0.746,0.114 -0.775,0.13 -0.803,0.144 -0.827,0.157 -0.85,0.169 -0.87,0.178 -0.946,0.211 -1.017,0.258 -1.084,0.303 -1.181,0.369 -1.22,0.496 -1.244,0.599 -1.25,0.626 -1.262,0.656 -1.274,0.685 l -0.012,0.029 c -0.003,0.01 -0.007,0.022 -0.011,0.035 -0.005,0.018 -0.011,0.036 -0.016,0.05 -0.027,0.069 -0.044,0.135 -0.065,0.215 -0.03,0.113 -0.029,0.336 -0.009,0.452 0.024,0.136 0.114,0.288 0.197,0.42 0.103,0.164 0.21,0.246 0.384,0.349 0.089,0.052 0.154,0.084 0.193,0.094 0.014,0.003 0.032,0.004 0.049,0.004 0.038,0.002 0.096,0.004 0.129,0.054 0.035,0.052 0.011,0.115 0.003,0.135 -0.027,0.072 -0.079,0.12 -0.125,0.163 l -0.027,0.026 c -0.028,0.027 -0.047,0.06 -0.069,0.097 -0.009,0.017 -0.019,0.034 -0.03,0.051 -0.022,0.035 -0.051,0.066 -0.079,0.095 -0.025,0.025 -0.05,0.052 -0.062,0.073 -0.018,0.033 -0.032,0.111 -0.035,0.163 -0.007,0.134 0.057,0.229 0.138,0.35 l 0.036,0.054 c 0.02,0.03 0.045,0.062 0.072,0.094 0.075,0.093 0.159,0.197 0.168,0.318 C -0.431,4.2 -0.599,4.327 -0.722,4.42 L -0.76,4.448 C -0.793,4.474 -0.829,4.495 -0.866,4.517 -0.908,4.542 -0.949,4.565 -0.978,4.594 -0.992,4.607 -1.003,4.623 -1.014,4.638 -1.033,4.663 -1.051,4.688 -1.075,4.71 -1.127,4.757 -1.193,4.801 -1.251,4.839 L -1.344,4.9 C -1.39,4.929 -1.43,4.954 -1.47,4.991 -1.566,5.079 -1.638,5.099 -1.743,5.129 -1.759,5.134 -1.772,5.142 -1.788,5.151 -1.821,5.17 -1.869,5.199 -1.937,5.183 -1.972,5.174 -2.001,5.149 -2.042,5.111 -2.05,5.104 -2.057,5.098 -2.062,5.094 -2.107,5.059 -2.154,5.032 -2.212,5.006 -2.347,4.946 -2.494,4.897 -2.649,4.86 -2.699,4.847 -2.752,4.838 -2.804,4.828 -2.92,4.807 -3.039,4.785 -3.151,4.735 -3.298,4.669 -3.307,4.517 -3.312,4.426 -3.315,4.38 -3.323,4.341 -3.332,4.3 -3.336,4.277 -3.341,4.254 -3.345,4.229 -3.351,4.195 -3.349,4.164 -3.347,4.136 -3.345,4.115 -3.344,4.096 -3.346,4.083 -3.35,4.063 -3.357,4.044 -3.364,4.024 -3.384,3.968 -3.409,3.899 -3.386,3.818 -3.34,3.657 -3.158,3.672 -3.06,3.681 c 0.022,10e-4 0.042,0.003 0.059,0.003 0.057,0.002 0.12,-0.003 0.183,-0.006 0.147,-0.008 0.3,-0.016 0.441,0.016 0.1,0.023 0.208,0.074 0.282,0.111 0.025,0.012 0.053,0.03 0.082,0.049 0.037,0.025 0.083,0.055 0.109,0.059 0.03,0.006 0.04,-0.002 0.043,-0.004 0.036,-0.029 0.043,-0.15 0.047,-0.222 0.002,-0.048 0.005,-0.092 0.012,-0.123 0.016,-0.076 0.046,-0.14 0.075,-0.203 C -1.712,3.328 -1.697,3.295 -1.684,3.26 -1.681,3.252 -1.678,3.233 -1.677,3.217 -1.673,3.19 -1.67,3.161 -1.658,3.134 -1.641,3.095 -1.616,3.067 -1.594,3.042 -1.579,3.025 -1.566,3.011 -1.558,2.996 -1.54,2.959 -1.526,2.923 -1.512,2.886 -1.495,2.842 -1.477,2.798 -1.455,2.756 -1.43,2.708 -1.464,2.645 -1.496,2.6 -1.52,2.567 -1.541,2.558 -1.581,2.541 -1.607,2.53 -1.634,2.518 -1.663,2.5 -1.716,2.467 -1.777,2.408 -1.825,2.361 L -1.843,2.344 C -1.887,2.302 -1.922,2.254 -1.956,2.207 -1.983,2.17 -2.011,2.132 -2.043,2.099 -2.101,2.04 -2.131,1.981 -2.16,1.924 -2.17,1.903 -2.182,1.881 -2.195,1.858 -2.287,1.699 -2.36,1.502 -2.407,1.291 -2.411,1.269 -2.417,1.25 -2.423,1.231 -2.435,1.189 -2.448,1.147 -2.45,1.091 -2.454,1 -2.44,0.919 -2.426,0.841 -2.421,0.812 -2.416,0.784 -2.411,0.755 -2.396,0.648 -2.371,0.509 -2.312,0.386 L -2.291,0.34 C -2.256,0.264 -2.22,0.185 -2.155,0.117 l 0.034,-0.034 c 0.031,-0.032 0.06,-0.062 0.089,-0.096 0.105,-0.124 0.291,-0.273 0.453,-0.31 0.022,-0.004 0.04,-0.008 0.056,-0.011 0.043,-0.008 0.06,-0.011 0.104,-0.038 0.053,-0.031 0.107,-0.046 0.155,-0.058 0.048,-0.013 0.09,-0.024 0.123,-0.049 0.02,-0.015 0.044,-0.031 0.07,-0.048 0.072,-0.047 0.161,-0.105 0.161,-0.165 0,-0.071 -0.05,-0.17 -0.09,-0.249 l -0.017,-0.035 c -0.037,-0.076 -0.05,-0.155 -0.063,-0.231 -0.007,-0.044 -0.014,-0.088 -0.026,-0.13 -0.023,-0.079 -0.051,-0.155 -0.079,-0.232 -0.014,-0.037 -0.028,-0.074 -0.041,-0.111 -0.012,-0.035 -0.032,-0.066 -0.053,-0.1 -0.031,-0.049 -0.066,-0.105 -0.083,-0.179 l -0.022,-0.106 c -0.018,-0.081 -0.035,-0.163 -0.055,-0.241 -0.003,-0.013 -0.008,-0.024 -0.012,-0.035 -0.009,-0.023 -0.021,-0.051 -0.025,-0.087 -0.002,-0.022 -0.001,-0.043 0,-0.064 0.002,-0.015 0.003,-0.029 10e-4,-0.033 -0.003,-0.005 -0.015,-0.018 -0.022,-0.026 -0.016,-0.015 -0.03,-0.031 -0.039,-0.045 -0.045,-0.067 -0.064,-0.128 -0.082,-0.191 -0.004,-0.016 -0.009,-0.034 -0.013,-0.052 -0.014,-0.057 -0.03,-0.122 -0.059,-0.155 -0.006,-0.008 -0.072,-0.066 -0.397,0.197 -0.027,0.022 -0.052,0.046 -0.077,0.069 -0.047,0.044 -0.096,0.09 -0.158,0.127 -0.125,0.075 -0.269,0.1 -0.441,0.079 C -2.825,-2.529 -2.881,-2.547 -2.937,-2.565 -2.968,-2.574 -3,-2.584 -3.031,-2.592 -3.096,-2.607 -3.172,-2.604 -3.247,-2.601 -3.32,-2.598 -3.389,-2.598 -3.459,-2.6 -3.53,-2.601 -3.6,-2.602 -3.67,-2.599 c -0.061,0.003 -0.13,0.022 -0.196,0.04 -0.032,0.009 -0.064,0.018 -0.095,0.025 -0.205,0.048 -0.576,0.013 -0.718,-0.216 l -0.024,-0.039 c -0.026,-0.044 -0.04,-0.068 -0.077,-0.098 l -0.035,-0.028 c -0.067,-0.054 -0.13,-0.105 -0.173,-0.202 -0.076,-0.17 -0.133,-0.457 -0.081,-0.686 0.017,-0.075 0.056,-0.145 0.095,-0.212 0.017,-0.03 0.034,-0.06 0.048,-0.09 0.011,-0.022 0.021,-0.05 0.031,-0.078 0.019,-0.052 0.039,-0.105 0.066,-0.147 0.019,-0.029 0.046,-0.05 0.07,-0.069 0.016,-0.013 0.033,-0.026 0.039,-0.036 0.014,-0.02 0.022,-0.038 0.03,-0.056 0.007,-0.015 0.013,-0.03 0.024,-0.05 0.089,-0.174 0.163,-0.288 0.272,-0.286 l 0.059,0.002 0.018,0.057 c 0.022,0.072 0.016,0.151 0.012,0.22 -0.002,0.03 -0.005,0.06 -0.004,0.088 0.001,0.032 0.007,0.049 0.015,0.074 0.006,0.019 0.013,0.039 0.018,0.064 0.02,0.093 0.017,0.251 -0.193,0.341 0.005,0.009 0.01,0.019 0.014,0.029 0.015,0.035 0.02,0.065 0.023,0.09 0.002,0.011 0.003,0.022 0.007,0.035 0.013,0.045 0.036,0.094 0.057,0.141 l 0.015,0.031 c 0.022,0.049 0.038,0.099 0.053,0.146 0.029,0.096 0.052,0.167 0.125,0.222 0,-0.003 10e-4,-0.006 10e-4,-0.008 0.008,-0.05 0.015,-0.066 0.036,-0.107 0.013,-0.027 0.019,-0.049 0.026,-0.076 0.005,-0.018 0.009,-0.036 0.016,-0.056 0.038,-0.119 0.114,-0.168 0.17,-0.188 0.099,-0.035 0.222,-0.013 0.338,0.062 0.079,0.05 0.109,0.074 0.158,0.16 l 0.013,0.022 c 0.031,0.054 0.058,0.102 0.085,0.163 l 0.013,0.032 c 0.006,0.014 0.016,0.04 0.025,0.057 0.008,-0.014 0.013,-0.04 0.017,-0.058 0.003,-0.013 0.005,-0.026 0.008,-0.038 0.058,-0.208 0.199,-0.425 0.438,-0.417 0.061,0.002 0.082,0.009 0.117,0.034 0.006,0.004 0.013,0.009 0.023,0.015 0.013,0.008 0.027,0.013 0.04,0.019 0.018,0.008 0.037,0.016 0.055,0.026 0.06,0.034 0.098,0.083 0.132,0.126 0.018,0.021 0.034,0.043 0.055,0.061 0.002,-0.05 -0.009,-0.088 -0.024,-0.14 l -0.011,-0.04 c -0.04,-0.151 -0.081,-0.331 -0.081,-0.524 0,-0.022 -0.002,-0.045 -0.003,-0.069 -0.004,-0.056 -0.008,-0.119 0.004,-0.175 0.007,-0.033 0.021,-0.056 0.031,-0.073 0.006,-0.01 0.009,-0.015 0.01,-0.019 0.003,-0.013 0,-0.042 -10e-4,-0.063 -0.002,-0.018 -0.003,-0.035 -0.003,-0.051 0,-0.039 -0.002,-0.08 -0.003,-0.12 -0.003,-0.135 -0.008,-0.275 0.024,-0.408 0.015,-0.069 0.026,-0.14 0.036,-0.211 0.005,-0.034 0.01,-0.069 0.015,-0.102 0.01,-0.059 0.017,-0.118 0.024,-0.178 0.01,-0.084 0.02,-0.168 0.036,-0.252 0.026,-0.129 0.023,-0.271 0.02,-0.408 -10e-4,-0.047 -0.002,-0.093 -0.002,-0.139 l -10e-4,-0.081 c 0,-0.055 0,-0.109 10e-4,-0.164 0,-0.052 -0.01,-0.098 -0.021,-0.151 -0.006,-0.026 -0.011,-0.052 -0.016,-0.079 -0.02,-0.119 -0.425,-0.519 -0.49,-0.649 -0.074,-0.148 -0.112,-0.722 -0.07,-0.744 0.024,-0.013 0.897,0.772 0.951,0.885 0.06,0.123 0.13,0.315 0.149,0.486 0.005,0.042 0.012,0.082 0.019,0.123 0.006,0.032 0.011,0.064 0.016,0.098 0.003,0.02 0.01,0.04 0.017,0.059 0.01,0.028 0.02,0.06 0.025,0.096 0.003,0.028 0.003,0.054 0.002,0.081 -0.001,0.025 -0.002,0.047 0.003,0.068 0.04,0.186 0.036,0.377 0.033,0.563 -10e-4,0.051 -0.002,0.103 -0.002,0.154 v 0.718 c 0,0.051 -0.003,0.106 -0.006,0.161 -0.007,0.115 -0.013,0.233 0.007,0.326 0.003,0.013 0.008,0.025 0.013,0.037 0.009,0.022 0.02,0.049 0.024,0.083 0.004,0.029 0,0.057 -0.003,0.081 -0.002,0.012 -0.004,0.032 -0.003,0.038 0.005,0.015 0.036,0.043 0.057,0.061 0.013,0.012 0.026,0.023 0.036,0.034 0.028,0.027 0.055,0.057 0.082,0.086 0.05,0.054 0.101,0.11 0.154,0.152 0.094,0.073 0.209,0.153 0.325,0.223 0.166,0.1 0.231,0.189 0.313,0.353 0.032,0.064 0.038,0.11 0.045,0.16 0.001,0.014 0.003,0.03 0.006,0.048 0.011,0.065 0.05,0.151 0.084,0.226 0.014,0.032 0.028,0.063 0.04,0.092 l 0.019,0.047 c 0.032,0.078 0.063,0.156 0.097,0.231 l 0.011,0.023 c 0.026,0.056 0.05,0.109 0.067,0.175 0.008,0.034 0.012,0.067 0.016,0.101 0.004,0.037 0.008,0.07 0.019,0.099 0.087,0.223 0.169,0.464 0.172,0.714 0.001,0.051 0.01,0.099 0.019,0.15 0.008,0.046 0.016,0.091 0.02,0.14 0.008,0.13 0.021,0.233 0.043,0.341 0.014,0.068 0.037,0.13 0.062,0.195 0.04,0.105 0.081,0.213 0.081,0.346 v 0.019 c 0,0.081 0,0.14 -0.079,0.225"
             style="fill:#050606;fill-opacity:1;fill-rule:nonzero;stroke:none"
             id="path4035" />
        </g>
        <g
           id="g4041"
           transform="translate(176.546,343.654)">
          <path
             d="m 0,0 c 0.005,-0.051 0.143,-0.112 0.18,-0.159 0.016,-0.021 0.018,-0.053 0.035,-0.076 0.02,-0.028 0.053,-0.046 0.075,-0.072 0.059,-0.071 0.123,-0.125 0.188,-0.19 0.051,-0.051 0.1,-0.126 0.157,-0.169 0.133,-0.101 0.296,-0.176 0.452,-0.244 0.088,-0.038 0.167,-0.061 0.262,-0.064 0.127,-0.005 0.115,0.03 0.113,0.149 -10e-4,0.091 0.033,0.159 0.057,0.244 0.024,0.087 0.031,0.187 0.063,0.272 0.03,0.077 0.08,0.137 0.105,0.217 0.02,0.064 0.053,0.131 0.084,0.195 C 1.833,0.228 1.923,0.313 2.014,0.42 2.064,0.478 2.103,0.544 2.156,0.6 2.227,0.676 2.255,0.676 2.362,0.675 2.533,0.674 2.667,0.674 2.812,0.6 2.97,0.519 3.091,0.42 3.197,0.271 3.239,0.212 3.26,0.149 3.298,0.091 3.352,0.006 3.443,-0.089 3.514,-0.16 c 0.055,-0.055 0.11,-0.099 0.159,-0.162 0.034,-0.044 0.072,-0.084 0.106,-0.129 0.036,-0.048 0.069,-0.067 0.112,-0.11 0.135,-0.137 0.25,-0.265 0.458,-0.264 0.174,0.001 0.349,0.002 0.523,0 0.213,-0.002 0.425,0.032 0.6,0.149 0.21,0.141 0.418,0.265 0.6,0.449 0.122,0.125 0.242,0.249 0.358,0.38 0.131,0.149 0.206,0.329 0.3,0.502 0.103,0.189 0.139,0.409 0.173,0.62 0.028,0.169 0.017,0.327 0.031,0.496 0.007,0.075 0.036,0.142 0.04,0.216 0.004,0.062 0,0.125 0,0.187 C 6.973,2.382 7.001,2.582 7.04,2.787 7.059,2.884 7.042,2.983 7.057,3.082 7.074,3.194 7.088,3.298 7.086,3.412 7.085,3.579 7.123,3.803 7.08,3.965 6.953,3.852 6.87,3.65 6.786,3.507 6.678,3.323 6.574,3.133 6.524,2.924 6.454,2.632 6.335,2.371 6.233,2.091 6.123,1.791 6.031,1.478 5.864,1.203 5.815,1.122 5.744,1.06 5.699,0.976 5.655,0.895 5.608,0.836 5.549,0.767 5.424,0.62 5.367,0.413 5.232,0.276 5.093,0.136 4.902,0.089 4.705,0.111 4.535,0.131 4.315,0.223 4.254,0.394 4.223,0.482 4.238,0.581 4.237,0.675 4.235,0.789 4.285,0.84 4.331,0.937 4.431,1.146 4.581,1.344 4.716,1.538 4.885,1.782 4.994,2.043 5.08,2.329 5.126,2.482 5.142,2.628 5.176,2.78 5.195,2.867 5.174,2.978 5.174,3.069 5.174,3.127 5.186,3.204 5.166,3.259 5.108,3.257 5.077,3.12 5.054,3.075 5.005,2.983 4.919,2.897 4.857,2.814 4.717,2.623 4.572,2.441 4.432,2.25 4.314,2.086 4.196,1.925 4.078,1.762 4.017,1.678 3.934,1.636 3.862,1.566 3.81,1.517 3.773,1.457 3.713,1.415 3.571,1.317 3.439,1.238 3.262,1.238 3.088,1.238 2.905,1.332 2.745,1.397 2.689,1.42 2.635,1.468 2.578,1.49 2.543,1.505 2.507,1.51 2.472,1.527 2.458,1.534 2.443,1.561 2.429,1.567 2.407,1.576 2.379,1.566 2.361,1.574 2.312,1.597 2.247,1.644 2.202,1.677 2.151,1.714 2.085,1.776 2.051,1.828 1.941,1.993 1.992,2.23 1.988,2.428 1.986,2.511 1.957,2.578 1.948,2.659 1.937,2.756 1.949,2.863 1.95,2.96 1.951,3.054 1.931,3.12 1.916,3.209 1.902,3.29 1.923,3.366 1.873,3.438 1.898,3.248 1.799,3.04 1.724,2.87 1.652,2.704 1.569,2.533 1.508,2.362 1.464,2.239 1.388,2.136 1.321,2.025 1.238,1.889 1.165,1.756 1.069,1.628 0.88,1.374 0.755,1.075 0.527,0.854 0.389,0.721 0.255,0.579 0.157,0.412 0.112,0.335 0.062,0.218 0.04,0.134 0.03,0.096 -0.01,-0.004 0,0"
             style="fill:#050606;fill-opacity:1;fill-rule:nonzero;stroke:none"
             id="path4039" />
        </g>
        <g
           id="g4045"
           transform="translate(171.258,343.412)">
          <path
             d="m 0,0 c -0.01,0.058 -0.101,0.085 -0.142,0.123 -0.039,0.035 -0.067,0.079 -0.1,0.119 -0.117,0.141 -0.193,0.279 -0.274,0.44 -0.162,0.326 -0.241,0.702 -0.337,1.045 -0.042,0.149 -0.146,0.276 -0.191,0.421 -0.014,0.047 -0.007,0.079 -0.028,0.121 -0.017,0.036 -0.046,0.063 -0.063,0.101 -0.026,0.059 -0.061,0.123 -0.085,0.18 -0.027,0.065 -0.037,0.132 -0.07,0.203 -0.025,0.054 -0.05,0.109 -0.062,0.167 -0.012,0.062 0.008,0.132 0.001,0.196 -0.01,0.08 -0.036,0.143 -0.067,0.218 -0.018,0.047 -0.01,0.101 -0.073,0.111 C -1.53,3.254 -1.669,3.084 -1.687,2.888 -1.697,2.781 -1.737,2.678 -1.761,2.577 -1.783,2.484 -1.799,2.427 -1.8,2.325 -1.8,2.237 -1.777,2.195 -1.761,2.12 -1.745,2.047 -1.763,1.95 -1.762,1.875 -1.761,1.737 -1.803,1.579 -1.911,1.481 -2.021,1.38 -2.218,1.307 -2.362,1.274 -2.444,1.255 -2.522,1.21 -2.605,1.199 -2.723,1.183 -2.843,1.161 -2.96,1.13 -3.106,1.09 -3.326,1.047 -3.488,1.084 -3.537,1.096 -3.556,1.135 -3.599,1.155 -3.643,1.175 -3.684,1.169 -3.728,1.199 -3.785,1.239 -3.843,1.28 -3.9,1.32 -3.968,1.367 -4.023,1.45 -4.071,1.517 -4.157,1.636 -4.22,1.735 -4.257,1.879 c -0.037,0.144 -0.036,0.299 -0.064,0.447 -0.036,0.192 -0.069,0.404 -0.066,0.6 10e-4,0.088 0,0.175 0,0.263 10e-4,0.033 0.02,0.139 -0.001,0.167 C -4.445,3.431 -4.517,3.334 -4.533,3.277 -4.6,3.034 -4.649,2.802 -4.649,2.54 -4.649,2.285 -4.665,2.024 -4.65,1.769 -4.645,1.678 -4.601,1.602 -4.579,1.515 -4.555,1.422 -4.536,1.335 -4.504,1.253 -4.439,1.089 -4.446,0.925 -4.583,0.797 -4.684,0.704 -4.889,0.749 -5.002,0.79 c -0.063,0.024 -0.153,0.094 -0.2,0.146 -0.089,0.1 -0.173,0.201 -0.253,0.32 -0.114,0.169 -0.197,0.353 -0.283,0.537 -0.083,0.178 -0.1,0.364 -0.162,0.547 -0.066,0.192 -0.106,0.39 -0.144,0.586 -0.029,0.145 -0.09,0.289 -0.106,0.433 -0.016,0.145 -0.036,0.277 -0.036,0.429 0,0.153 -0.016,0.297 -0.045,0.445 C -6.309,4.229 -6.357,3.882 -6.365,3.825 -6.418,3.486 -6.409,3.152 -6.412,2.809 -6.415,2.517 -6.304,2.245 -6.224,1.968 -6.145,1.696 -6.08,1.431 -5.979,1.165 c 0.145,-0.381 0.356,-0.738 0.676,-0.998 0.221,-0.18 0.438,-0.393 0.692,-0.519 0.267,-0.133 0.569,-0.098 0.861,-0.098 0.06,0 0.13,-0.011 0.189,-0.002 0.072,0.011 0.135,0.06 0.207,0.074 0.125,0.024 0.247,0.051 0.353,0.124 0.101,0.07 0.206,0.117 0.282,0.215 0.053,0.067 0.126,0.126 0.171,0.197 0.052,0.08 0.061,0.132 0.14,0.19 0.084,0.061 0.164,0.134 0.248,0.182 0.103,0.059 0.319,0.057 0.438,0.034 0.051,-0.009 0.151,-0.037 0.188,-0.074 0.051,-0.051 0.053,-0.152 0.072,-0.218 0.023,-0.082 0.032,-0.151 0.036,-0.235 0.004,-0.067 0.031,-0.121 0.039,-0.187 0.007,-0.066 0.036,-0.121 0.038,-0.187 0.004,-0.079 0.012,-0.132 0.041,-0.207 0.062,-0.16 0.162,-0.158 0.285,-0.238 0.043,0.053 0.102,0.051 0.163,0.07 0.058,0.018 0.101,0.047 0.156,0.075 0.124,0.063 0.229,0.141 0.349,0.21 C -0.165,-0.318 0.021,-0.209 0,0"
             style="fill:#050606;fill-opacity:1;fill-rule:nonzero;stroke:none"
             id="path4043" />
        </g>
      </g>
    </g>
  </g>
</svg>
