<svg width="24" height="24" viewBox="0 0 24 24" fill="#000000" xmlns="http://www.w3.org/2000/svg">
  <path d="M12.5717 0.429262C12.6217 0.431346 12.6425 0.427179 12.6446 0.421969C12.5988 0.423011 12.5613 0.424053 12.5717 0.429262Z"/>
  <path d="M11.5649 0.26883C11.5419 0.258412 11.518 0.250077 11.5023 0.251119C11.5253 0.25737 11.544 0.262579 11.5649 0.26883Z"/>
  <path d="M18.5068 2.59107L18.3682 2.4848C18.3495 2.49417 18.437 2.54314 18.5068 2.59107Z"/>
  <path d="M20.8001 4.3143L20.8334 4.35493C20.848 4.36327 20.8636 4.36952 20.8793 4.37473L20.8001 4.3143Z"/>
  <path d="M21.9472 6.09996C21.9784 6.11455 22.0034 6.14267 22.0284 6.17914C22.0357 6.17497 22.043 6.16351 22.0472 6.14267C22.0243 6.09788 21.9753 6.10621 21.9472 6.09996Z"/>
  <path d="M23.2924 9.35572L23.3299 9.40573C23.3195 9.39219 23.3039 9.37135 23.2924 9.35572Z"/>
  <path d="M19.6675 3.13285C19.6644 3.13701 19.6707 3.14639 19.6832 3.15889C19.6832 3.15889 19.6832 3.15993 19.6842 3.16202C19.6842 3.16098 19.6842 3.15993 19.6832 3.15889C19.6832 3.15056 19.6759 3.14118 19.6675 3.13285Z"/>
  <path d="M23.3293 11.9999L23.3324 12.0353C23.3407 12.0384 23.3501 12.0426 23.3584 12.0426L23.3293 11.9999Z"/>
  <path d="M9.43326 0.178193C9.43743 0.178193 9.43847 0.178193 9.44264 0.177151C9.49369 0.161523 9.46452 0.168816 9.43326 0.178193Z"/>
  <path d="M0.152365 14.418C0.165909 14.2023 0.255507 14.7503 0.257591 14.4295C0.241963 14.4618 0.146114 14.1523 0.152365 14.418Z"/>
  <path d="M5.24206 2.27021C5.23789 2.26708 5.22539 2.27021 5.19205 2.28479C5.20455 2.28479 5.2233 2.2775 5.24206 2.27021Z"/>
  <path d="M8.32662 0.743892L8.2464 0.775147C8.2787 0.763687 8.30474 0.753269 8.32662 0.743892Z"/>
  <path d="M3.61721 3.41101C3.62242 3.40789 3.62763 3.40372 3.63284 3.39851C3.64118 3.37559 3.65576 3.3485 3.69223 3.30891C3.66306 3.34538 3.64847 3.35475 3.61721 3.41101Z"/>
  <path d="M2.51474 4.72372C2.52412 4.71956 2.53558 4.71331 2.54704 4.70706C2.55954 4.69351 2.57517 4.67893 2.58871 4.66434L2.51474 4.72372Z"/>
  <path d="M23.2139 9.30464C23.2181 9.3161 23.2181 9.32235 23.2191 9.3286L23.165 9.23692C23.1806 9.2588 23.1962 9.27963 23.2139 9.30464ZM17.7558 22.4536C17.7776 22.438 17.8016 22.4213 17.8297 22.4016C17.8485 22.388 17.8683 22.3734 17.8912 22.3568C17.8922 22.3536 17.8954 22.3484 17.8964 22.3463C17.8943 22.3578 17.8912 22.3703 17.8808 22.3849C17.8558 22.4047 17.8401 22.4161 17.8193 22.4286C17.7922 22.4453 17.7735 22.4557 17.7599 22.462C17.7422 22.4641 17.7318 22.4641 17.7245 22.462C17.7328 22.4599 17.7422 22.4578 17.7558 22.4536ZM15.9044 20.4408C15.8346 20.544 15.7117 20.7075 15.57 20.6544C15.4856 20.6231 15.3668 20.5398 15.2991 20.4856C15.146 20.3627 15.0064 20.1543 14.897 19.998C14.6625 19.6636 14.4792 19.3146 14.1583 19.0541C14.0781 18.9895 13.927 18.7499 13.9083 18.7228C13.7666 18.5207 13.6353 18.3103 13.4894 18.1113C13.2269 17.7498 12.9519 17.3966 12.6872 17.0361C12.2538 16.4454 11.7881 15.8849 11.4714 15.2212C11.1505 14.5503 10.8473 13.8679 10.4858 13.2178C10.1754 12.6583 9.70966 12.2374 9.37419 11.6988C9.24292 11.4883 9.1627 11.332 9.18562 11.0883C9.10957 11.3164 9.11373 11.0643 9.06789 10.9882C9.02101 10.908 8.95016 10.8591 8.91787 10.7684C8.86161 10.6153 8.88974 10.3381 8.94704 10.1839C9.06789 9.85889 9.5138 9.79117 9.81489 9.82034C10.0858 9.84639 10.3827 9.97245 10.6192 10.1016C10.714 10.1548 10.8411 10.1933 10.9182 10.2725C10.9672 10.3225 10.9828 10.3777 11.0172 10.4361C11.0526 10.4986 11.1005 10.5496 11.1422 10.608C11.2266 10.7299 11.2818 10.8674 11.3631 10.9914C11.4172 11.0747 11.4808 11.1508 11.537 11.232C11.6954 11.4612 11.8183 11.6956 11.9413 11.9436C12.1048 12.2728 12.3434 12.5645 12.4768 12.9073C12.5872 13.1896 12.6601 13.4866 12.781 13.7647C12.9018 14.0419 13.0435 14.32 13.1842 14.5888C13.4947 15.1827 13.8051 15.7692 14.0833 16.3797C14.324 16.908 14.5625 17.508 14.9574 17.9425C15.1189 18.1196 15.2251 18.2936 15.3293 18.5093C15.4325 18.726 15.5648 18.9145 15.6283 19.1469C15.6888 19.3646 15.7544 19.5646 15.8627 19.7636C15.9128 19.8553 16.0096 19.9689 16.0305 20.0741C16.0576 20.2106 15.9773 20.3346 15.9044 20.4408ZM8.72617 6.7511C8.61469 6.63545 8.52614 6.52293 8.43654 6.39375C8.38132 6.31457 8.31465 6.17079 8.23338 6.12599C8.17921 6.2531 8.1865 6.40416 8.14274 6.53648C8.09899 6.67087 8.02501 6.79485 7.99168 6.93237C7.925 7.2095 7.89791 7.49184 7.83436 7.77001C7.75518 8.10861 7.73851 8.42116 7.73851 8.76392C7.73851 8.88998 7.7583 9.02542 7.74059 9.15044C7.72913 9.23275 7.6885 9.29838 7.68225 9.38277C7.66037 9.65052 7.65308 9.88494 7.8104 10.1246C7.9375 10.3183 7.98647 10.5392 7.94896 10.758C7.91666 10.9466 7.87499 11.1185 7.9052 11.3112C7.92917 11.4602 7.97501 11.6071 8.00105 11.7561C8.02293 11.8811 8.02918 12.0155 8.10211 12.1301C8.1865 12.2614 8.33236 12.353 8.44592 12.4656C8.57302 12.5895 8.16566 12.6437 7.96459 12.4531C7.76872 12.2687 7.5739 12.0915 7.32282 11.9561C7.11862 11.8467 7.01756 11.6477 6.91025 11.4717C6.79669 11.2862 6.82169 11.0247 6.7821 10.8174C6.7571 10.782 6.73001 10.7476 6.70813 10.7111C6.66334 10.6382 6.64458 10.5569 6.58728 10.4882C6.52581 10.4142 6.44351 10.3621 6.38621 10.2819C6.31015 10.1735 6.28619 10.0579 6.24452 9.94016C6.19659 9.80263 6.11846 9.69324 6.03823 9.56822C5.88092 9.32547 5.83924 9.04209 5.77986 8.77434C5.72256 8.51805 5.66317 8.21487 5.74027 7.95754C5.76527 7.87315 5.82257 7.81377 5.86737 7.73876C5.98823 7.5356 5.95072 7.23242 5.91217 7.0251C5.84654 6.674 5.85695 6.32394 5.96322 5.97805C6.01636 5.80302 6.06532 5.62487 6.12262 5.45089C6.14242 5.39046 6.17159 5.24043 6.27369 5.23627C6.2914 5.41546 6.39663 5.57382 6.43934 5.75823C6.49768 6.01556 6.46851 6.26143 6.60083 6.49689C6.66125 6.60524 6.70813 6.7188 6.75085 6.8334C6.78523 6.73651 6.81753 6.63754 6.83316 6.54481C6.87274 6.31978 6.86441 6.0812 6.879 5.85407C6.8915 5.66134 6.86441 5.42796 6.94463 5.24564C6.98318 5.15605 7.01443 5.04248 7.07694 4.96435C7.17383 4.84349 7.23635 4.75702 7.27177 4.60387C7.34886 4.27257 7.48743 3.96314 7.54785 3.62976C7.57807 3.45889 7.58432 3.23386 7.73226 3.09946C7.75518 3.07863 7.81769 3.02237 7.85103 3.02028C7.95104 3.01299 7.91458 3.09321 7.92708 3.15364C7.94896 3.26095 8.02293 3.362 8.0594 3.46619C8.17191 3.78707 7.98751 4.10275 8.19483 4.41634C8.48551 4.85391 9.26897 3.76624 9.32314 3.67456C9.38982 3.561 9.41066 3.4391 9.45962 3.32033C9.53568 3.13697 9.6284 2.95777 9.7055 2.77441C9.81697 2.51082 9.86281 2.23057 9.98262 1.96803C10.0431 1.83467 10.167 1.69507 10.266 1.57838C10.3379 1.49295 10.4244 1.42627 10.4421 1.58359C10.4577 1.72736 10.4077 1.87947 10.4129 2.02533C10.4223 2.28579 10.466 2.57542 10.5285 2.83171C10.5608 2.96715 10.64 3.09529 10.6911 3.22657C10.7671 3.42139 10.8057 3.6235 10.8849 3.81729C11.1526 4.46739 11.2516 5.20605 11.7444 5.78219C11.8548 5.91033 11.9871 5.99889 12.133 6.09474C12.3247 6.22184 12.4216 6.37291 12.5205 6.55419C12.6403 6.77506 12.6674 7.05323 12.8883 7.22722C12.9612 7.28452 13.0467 7.32723 13.1133 7.38974C13.3894 7.64707 13.577 8.04506 13.652 8.37636C13.6874 8.53159 13.6791 8.69204 13.7218 8.84727C13.8999 9.488 13.801 10.1444 13.7572 10.7965C13.7364 11.0945 13.6613 11.3893 13.5269 11.6571C13.479 11.7529 13.3988 11.8853 13.3186 11.9634C13.3113 11.9717 13.0737 11.6436 13.055 11.6144C12.9821 11.504 12.9112 11.355 12.8758 11.232C12.8195 11.0289 12.7289 10.8455 12.6351 10.6517C12.5195 10.4121 12.4236 10.1725 12.3403 9.92557C12.2611 9.69116 12.2132 9.43799 12.108 9.21087C12.0173 9.01605 11.884 8.82956 11.7767 8.63994C11.6027 8.33469 11.536 8.01068 11.3808 7.70021C11.2589 7.45433 11.0911 7.22722 10.8724 7.03135C10.5952 6.78444 10.5233 6.52502 10.4337 6.18434C10.3452 5.84678 10.3046 5.4686 10.1389 5.1498C10.0337 5.18522 10.0243 5.37796 9.99513 5.45922C9.90657 5.70197 9.8128 5.93534 9.74404 6.18225C9.68778 6.38541 9.63569 6.58857 9.58985 6.79381C9.57006 6.88028 9.53151 6.96988 9.51901 7.05531C9.51275 7.09907 9.52734 7.15741 9.49296 7.19283C9.38253 7.18971 9.32731 7.11678 9.24084 7.0699C9.16999 7.03135 9.10644 7.01364 9.0283 6.98551C8.87203 6.93133 8.82931 6.8584 8.72617 6.7511ZM23.39 12.0072C23.3879 12.0853 23.3733 12.2061 23.3462 12.2124L23.3324 12.0353C23.3272 12.0332 23.3223 12.0311 23.3171 12.028V11.9999L23.1941 10.7955L23.2973 9.91515L23.3077 9.93703L23.3015 9.87348L23.3337 9.60468C23.3421 9.61302 23.3483 9.63906 23.3462 9.69324C23.3692 9.61927 23.3744 9.56301 23.3744 9.52759C23.3379 9.47862 23.3087 9.45258 23.2785 9.35569C23.2744 9.33589 23.282 9.34218 23.2924 9.35572L23.1754 9.20045C23.2077 9.22545 23.2025 9.14732 23.2546 9.25463C23.1129 8.93687 22.9243 8.80247 22.9035 8.66391L22.9222 8.68683C22.7222 8.38678 22.7847 8.52951 22.7253 8.49825L22.692 8.44199L22.6659 8.28989L22.7243 8.11173L22.6659 8.07423C22.6586 8.02526 22.6461 7.92837 22.6701 7.94191C22.6034 7.76689 22.6524 7.97734 22.6013 7.87732C22.6065 7.66374 22.5044 7.3439 22.5222 7.20429C22.518 7.18241 22.518 7.16575 22.5232 7.1522C22.4867 7.12303 22.5024 7.16887 22.5159 7.20534C22.5169 7.24597 22.518 7.27201 22.4992 7.21159C22.4899 7.20013 22.4763 7.18137 22.4586 7.15533C22.5024 7.04906 22.3044 6.90529 22.2357 6.69484C22.3086 6.7313 22.3857 6.92404 22.3169 6.71255C22.1867 6.63545 22.1294 6.33228 22.0283 6.17809C21.9742 6.19892 21.8043 5.84678 21.6293 5.59153C21.6491 5.59466 21.4866 5.29774 21.3418 5.02686C21.2886 4.95185 21.2376 4.88204 21.198 4.82682H21.2105C21.1271 4.82266 20.95 4.58616 20.8042 4.4278C20.8386 4.41113 20.875 4.43197 20.9615 4.51115L20.8334 4.35493C20.7876 4.32993 20.7396 4.2882 20.6521 4.19131L20.7198 4.20068C20.6739 4.14651 20.6354 4.10379 20.5781 4.04128C20.4093 3.89855 20.2447 3.77145 20.0728 3.57246C20.0426 3.58496 20.1051 3.70789 20.0603 3.71415L19.9259 3.58392C19.9405 3.57766 19.9645 3.58183 20.003 3.61309C19.979 3.59329 19.9092 3.54849 19.8707 3.49744L20.004 3.57037C19.9019 3.44848 19.9207 3.53703 19.8332 3.44743C19.8582 3.42451 19.7832 3.36513 19.8144 3.35888C19.8394 3.37867 19.8842 3.44535 19.9269 3.46931C19.879 3.41722 19.8269 3.35784 19.7842 3.3047C19.7405 3.24949 19.7144 3.2089 19.6842 3.16202C19.6852 3.17244 19.6811 3.17968 19.6686 3.17864C19.6519 3.18385 19.6071 3.17239 19.5519 3.14634C19.3143 3.02237 19.4904 3.06716 19.3612 2.97861C19.2925 2.96819 19.1529 2.86713 19.1247 2.90881C19.056 2.8713 19.0549 2.84421 19.0341 2.81817C18.9018 2.77233 18.46 2.51812 18.5715 2.63793L18.6007 2.65772C18.5944 2.6546 18.5871 2.65147 18.5799 2.64835C18.2121 2.47957 17.8704 2.19515 17.5297 1.98678C17.489 1.95761 17.4495 1.9274 17.4099 1.89823L17.4213 1.88572C17.1963 1.73466 16.94 1.52421 16.766 1.43357C16.7025 1.3846 16.6358 1.29292 16.6754 1.29813C16.6264 1.26583 16.5879 1.23979 16.5545 1.21791C16.4441 1.17207 16.3889 1.14914 16.2013 1.03142C16.4003 1.09914 16.1492 0.976199 16.4014 1.10851C16.168 0.975157 16.1253 0.923067 15.8482 0.834511C15.9544 0.840762 15.6919 0.694906 15.5721 0.649065L15.7263 0.761583C15.6763 0.739704 15.6294 0.716783 15.5856 0.693863C15.5314 0.666775 15.4793 0.639687 15.4283 0.612599C15.3866 0.613641 15.346 0.614683 15.3043 0.615725C15.321 0.59593 15.3627 0.576136 15.4012 0.555299C15.3606 0.553216 15.321 0.552172 15.2814 0.55113C15.2512 0.55113 15.222 0.550089 15.1928 0.550089C15.1355 0.550089 15.0793 0.553215 15.023 0.557382C14.9126 0.565717 14.8063 0.580303 14.7032 0.595931C14.6011 0.611558 14.5011 0.626143 14.4042 0.636562C14.3562 0.641771 14.3083 0.644897 14.2604 0.64698H14.1896L14.1541 0.645939C14.1448 0.645939 14.1416 0.644896 14.1354 0.643855C14.1281 0.638645 14.1031 0.630311 14.077 0.620935C14.0531 0.611558 14.0291 0.60114 14.0052 0.588638C13.9541 0.593847 13.9718 0.604265 14.0114 0.617809C14.0312 0.62406 14.0562 0.631353 14.0812 0.638646C14.0927 0.642814 14.1052 0.646981 14.1166 0.650106C14.1239 0.65219 14.1291 0.655315 14.1343 0.65844C14.1541 0.663649 14.1718 0.671984 14.1416 0.687611H14.1323L14.0531 0.665733C14.0239 0.656356 13.9937 0.64698 13.9656 0.637603C13.9072 0.61885 13.853 0.596973 13.8041 0.577178C13.7051 0.537588 13.627 0.503207 13.5884 0.495914C13.2738 0.407358 13.2644 0.505291 12.9591 0.443823C12.9404 0.441739 12.9154 0.438614 12.8893 0.43653C12.9341 0.45945 12.9737 0.516751 12.7018 0.516751C12.4507 0.490705 12.3986 0.409442 12.5591 0.404233C12.6195 0.407358 12.6488 0.415718 12.6446 0.421969C12.7269 0.420928 12.8341 0.41986 12.7362 0.390688L12.7018 0.4084C12.5789 0.379228 12.2309 0.35735 12.3153 0.32922C12.1236 0.335471 12.2309 0.357349 12.3716 0.377144C12.2497 0.357349 12.1476 0.347973 12.0496 0.34068C11.9559 0.334429 11.8663 0.328179 11.7642 0.320886C11.736 0.313593 11.7069 0.3063 11.6756 0.299008C11.6402 0.289631 11.6037 0.279212 11.5652 0.267752C11.6141 0.290672 11.6569 0.325054 11.6048 0.312552C11.1328 0.180239 11.386 0.303174 11.0609 0.23858C10.8838 0.166694 11.1432 0.18128 10.8119 0.133355C10.6171 0.0677196 10.7817 0.0708445 10.864 0.0729282C10.8057 0.067719 10.7505 0.0583423 10.6973 0.047924C10.6702 0.0416729 10.6442 0.0354217 10.6192 0.0302125C10.5796 0.0197942 10.541 0.00937652 10.5035 0C10.4692 0.00520918 10.4348 0.011461 10.4014 0.0166702C10.3816 0.0187538 10.3619 0.020836 10.3431 0.0229197C10.3046 0.0260452 10.267 0.0291721 10.2327 0.0312558C10.1618 0.0375068 10.0993 0.0416732 10.0462 0.0510497L10.2004 0.00312578C10.1076 0.0312553 10.0305 0.0468821 9.95241 0.0625096L10.0503 0.084388C9.95658 0.0958482 9.87844 0.111476 9.8774 0.0948066C9.78676 0.139606 9.96283 0.145858 9.78155 0.218787C9.65445 0.223996 9.4117 0.316719 9.35856 0.272962C9.74821 0.212536 9.30543 0.228163 9.63048 0.154192C9.56901 0.172945 9.49192 0.18753 9.39815 0.200032C9.38253 0.196906 9.40826 0.186527 9.43326 0.178193C9.38221 0.18236 9.34398 0.186489 9.31168 0.190657C9.29605 0.193782 9.28147 0.196907 9.26897 0.198991C9.24605 0.2042 9.22625 0.209409 9.20854 0.213576C9.18562 0.226078 9.1627 0.23858 9.15228 0.246915C9.14395 0.254207 9.13665 0.260459 9.1304 0.267752C9.1179 0.281296 9.10644 0.294839 9.09185 0.311509C9.06164 0.343806 9.00955 0.383396 8.87932 0.443823C8.91162 0.395898 8.77305 0.430278 8.71784 0.463617C8.86057 0.396939 8.80743 0.477161 8.68658 0.559466C8.44904 0.643855 8.44643 0.690758 8.32662 0.743892L8.46779 0.690737C8.43341 0.739704 8.31881 0.78867 8.16462 0.872016C8.14066 0.856389 8.3011 0.789712 8.24067 0.806381C8.20734 0.835552 8.15524 0.863682 8.12191 0.878268C7.97605 0.916816 7.7656 0.920983 7.57911 1.00537C7.45305 1.02204 7.55098 0.954322 7.44159 0.973075C7.31969 1.02725 7.2426 1.04496 7.16967 1.05642C7.1332 1.06267 7.09778 1.06892 7.05819 1.07622C7.0384 1.08038 7.0186 1.08455 6.99568 1.08976C6.98526 1.09289 6.9738 1.09601 6.9613 1.09914C6.94151 1.10539 6.92067 1.11164 6.89879 1.11789C6.83628 1.1554 6.82169 1.16686 6.78315 1.19394C6.88212 1.18353 6.8915 1.16686 6.71647 1.31271L6.92484 1.17832L7.22072 1.07309L7.08736 1.14081L7.01964 1.17415L6.9863 1.19082L6.93942 1.21166C6.92484 1.22312 6.904 1.2377 6.89462 1.24603C6.91025 1.23666 6.92588 1.22728 6.94255 1.21791C6.99881 1.2002 7.02173 1.19082 7.05923 1.17727C7.09361 1.16477 7.12695 1.15227 7.15821 1.13977C7.22176 1.11581 7.27802 1.09497 7.32073 1.08559C7.17696 1.16269 7.18946 1.14915 7.27177 1.15956C7.15821 1.16269 7.07382 1.19603 6.95297 1.24291C6.84253 1.32001 6.76023 1.3846 6.63521 1.43357L6.59145 1.34188C6.45497 1.40127 6.33933 1.47211 6.22472 1.55025C6.16742 1.58984 6.10908 1.63047 6.04761 1.67215C6.0174 1.69298 5.98614 1.71486 5.95385 1.73674L5.90488 1.76904C5.88404 1.78154 5.86321 1.79508 5.84237 1.80759C5.80486 1.83988 5.76736 1.87218 5.72673 1.90656C5.69026 1.93677 5.65067 1.96803 5.609 2.00032L5.74027 1.91281C5.71631 1.98574 5.51211 2.10972 5.40167 2.22432C5.39125 2.1889 5.30769 2.24312 5.24206 2.27021C5.26393 2.28375 4.96619 2.49728 4.97452 2.5775L4.94222 2.59417C4.93285 2.59938 4.92868 2.59938 4.92243 2.6025C4.91409 2.60355 4.91097 2.60251 4.89951 2.60563L4.86408 2.61501L4.7922 2.6348C4.43068 2.79524 4.43277 2.92131 4.08792 3.08175C4.17439 2.9984 4.00978 3.05362 4.2244 2.9161C4.11084 2.9734 4.00665 3.0182 4.01499 3.04008C3.99624 3.04424 3.96811 3.05883 3.93373 3.07862C3.89205 3.10363 3.84205 3.13488 3.78995 3.16614C3.76078 3.2151 3.72953 3.26616 3.70244 3.31304C3.67952 3.34846 3.65576 3.37871 3.63284 3.39851C3.61513 3.4506 3.63368 3.48494 3.55137 3.60058C3.53679 3.60996 3.53783 3.59121 3.53783 3.59121C3.55137 3.60058 3.43052 3.78707 3.53158 3.70581C3.39093 3.82458 3.23882 4.04232 3.11172 4.23194C2.92106 4.41426 2.70853 4.62267 2.54704 4.70706C2.43348 4.81957 2.30846 4.94351 2.19594 5.05499C2.11885 5.18105 2.04905 5.29253 1.98862 5.39046C1.98862 5.37171 1.97508 5.38108 2.00425 5.34253C1.79067 5.61654 1.96987 5.57382 1.72816 5.88637C1.57397 6.02494 1.81567 5.69467 1.73128 5.78844C1.61043 5.77385 1.48854 6.1958 1.28017 6.37499L1.31142 6.31873C1.16557 6.46459 1.06555 6.74797 0.87073 7.01572C0.87073 7.01572 0.871771 6.99697 0.858227 7.00426C0.850934 7.02093 0.848851 7.03135 0.835307 7.05635C0.823847 7.08032 0.80926 7.10532 0.793633 7.13449C0.794675 7.20221 0.795717 7.27931 0.796759 7.36057C0.795717 7.43141 0.794675 7.50643 0.793633 7.58248C0.787382 7.73459 0.78009 7.89191 0.773839 8.02943C0.7405 7.92629 0.765504 7.88253 0.715496 7.93879C0.707162 8.08152 0.789466 7.90441 0.773839 8.18883C0.762379 8.21904 0.750919 8.26176 0.737375 8.30656C0.724873 8.34927 0.710287 8.40032 0.697785 8.41699C0.67799 8.4347 0.655069 8.45554 0.637358 8.45866L0.659236 8.40657L0.674863 8.23571C0.660278 8.2628 0.649859 8.29197 0.642566 8.32323C0.638399 8.33989 0.636316 8.35552 0.634232 8.37219C0.632148 8.38886 0.63215 8.3899 0.63215 8.39928L0.626939 8.41595L0.615479 8.45033C0.607145 8.47533 0.59881 8.50034 0.590475 8.5243C0.574848 8.57327 0.558179 8.61911 0.538384 8.65661L0.520673 8.62953C0.363356 9.0098 0.421698 9.04209 0.239377 9.44528L0.276882 9.41194C0.267506 9.47341 0.257087 9.51196 0.240418 9.55155C0.22479 9.66824 0.17374 9.67345 0.183117 9.86098L0.106021 9.92349C0.0976867 10.086 0.0893526 10.4788 0.0580975 10.7757C0.0580975 10.7767 0.0580975 10.7778 0.0580975 10.7778C0.0580975 10.7778 0.0580981 10.7767 0.0570562 10.7757C0.0341358 10.5955 0.0560138 10.2704 0.0580975 10.0589C0.0341353 10.2152 -0.0158735 10.5923 0.00496325 10.6778C0.00808875 10.6142 0.00287978 10.5319 0.0226747 10.4715C0.0320512 10.5621 0.038303 10.6465 0.032052 10.7747C0.0633071 10.9289 0.0841438 11.0737 0.100813 11.255C0.00183874 11.2206 0.071641 11.6831 0.084143 12.0051C0.0747665 12.1145 0.0591389 12.2353 0.0299675 12.2926C0.039344 12.4447 0.0403858 12.5948 0.0372603 12.7469C0.0341348 12.8229 0.0310105 12.899 0.027885 12.9761C0.0237176 13.0573 0.0195492 13.1396 0.0153818 13.223C0.0278839 13.3605 0.0414278 13.5001 0.0549717 13.6439C0.0685156 13.7824 0.0851847 13.9262 0.106021 14.0731C0.176866 13.8314 0.13311 14.2617 0.231043 14.2075C0.256047 14.3544 0.262297 14.4117 0.257088 14.4273L0.258129 14.3961C0.257088 14.4107 0.257591 14.418 0.257591 14.4295L0.264381 14.892C0.249795 15.0035 0.219582 14.7524 0.198746 14.7691C0.240419 15.0993 0.175825 14.9139 0.181034 15.1347C0.211247 15.0847 0.250837 15.241 0.264381 15.4306L0.272715 15.1598C0.312305 15.3025 0.323766 15.3952 0.324808 15.4702C0.32585 15.5077 0.324807 15.5411 0.322723 15.5744L0.319598 15.6223C0.317514 15.6338 0.32064 15.6765 0.321682 15.7046C0.352937 15.788 0.357103 15.8099 0.382107 15.8672C0.405028 15.9193 0.436284 15.9797 0.481083 16.0536L0.390443 15.9328C0.496711 16.1235 0.699867 16.6027 0.873854 16.8507C0.908234 16.8955 0.922822 16.9059 0.946784 16.9277C0.957202 16.9705 0.961368 17.033 0.901984 16.9455C1.04055 17.1965 1.22079 17.4622 1.38956 17.7154C1.47083 17.8435 1.55522 17.9654 1.6344 18.0779C1.71149 18.1925 1.77817 18.3009 1.82818 18.4009L1.78338 18.378C1.84797 18.4645 1.92611 18.5093 1.9782 18.6353C1.96466 18.6353 1.93236 18.6124 1.95841 18.6551C1.97507 18.6739 2.01154 18.7155 2.0553 18.7655C2.07509 18.7916 2.09801 18.8197 2.11989 18.8479C2.14385 18.8781 2.1574 18.8979 2.19386 18.9531C2.20845 18.9677 2.22303 18.9812 2.23658 18.9937C2.24491 19.002 2.2522 19.0104 2.2595 19.0187L2.22824 19.001L2.17823 18.9656C2.16052 18.9468 2.13656 18.9177 2.12718 18.9104C2.14073 18.9333 2.15427 18.9562 2.16677 18.976C2.21886 19.026 2.26887 19.0729 2.3168 19.1187C2.35847 19.1573 2.40014 19.1927 2.44078 19.226C2.521 19.2938 2.59914 19.3521 2.67623 19.4073C2.82834 19.5178 2.98461 19.624 3.14089 19.7522C3.15131 19.7626 3.16381 19.774 3.17527 19.7855C3.11901 19.8355 3.39822 20.1762 3.53783 20.346L3.52428 20.3471C3.58575 20.4137 3.6441 20.4762 3.70036 20.5377C3.76287 20.6013 3.82225 20.6638 3.88059 20.7232C4.24836 20.9899 4.52445 21.1534 4.89847 21.4222L4.90263 21.4254C5.19018 21.6983 5.9601 22.1317 6.46851 22.4714C6.39558 22.413 6.51123 22.4286 6.60708 22.4755C6.72272 22.561 6.97068 22.6276 6.91859 22.6766L6.87483 22.6506C6.93317 22.7693 7.20613 22.8756 7.40825 22.9808L7.48326 22.9183C7.55931 22.9798 7.64891 23.0392 7.7458 23.0965C7.79373 23.1246 7.84374 23.1517 7.89583 23.1788C7.95104 23.2079 8.00835 23.2361 8.06565 23.2652L8.25526 23.3225C8.3136 23.3392 8.37299 23.3559 8.43029 23.3725C8.54489 23.4059 8.65741 23.4371 8.76055 23.4674C8.96683 23.5288 9.13665 23.5892 9.22938 23.6611C9.23563 23.6622 9.24084 23.6643 9.24813 23.6653C9.40753 23.6809 9.56172 23.7164 9.7055 23.7268L9.68778 23.7726C9.83052 23.8091 9.9472 23.8393 10.0649 23.8705C10.1243 23.8851 10.1837 23.8997 10.2483 23.9153C10.3191 23.931 10.3952 23.9487 10.4796 23.9685C10.5473 23.9674 10.6609 23.9674 10.7953 23.9664L10.6952 23.9997C10.9703 24.007 11.0443 23.8653 11.2995 23.8664L11.3745 23.9383L11.5568 23.9435L11.7673 23.9518L12.059 23.881L12.3215 23.8122C12.4945 23.7643 12.6654 23.7091 12.83 23.6361C12.8258 23.6486 12.8175 23.6726 12.7435 23.6966C12.8018 23.682 12.8914 23.659 12.9883 23.6351C12.9862 23.6361 13.0071 23.633 13.0237 23.6309L13.0748 23.6257C13.1092 23.6205 13.1425 23.6163 13.1748 23.6122C13.2415 23.6038 13.303 23.5934 13.355 23.582C13.4582 23.5611 13.5197 23.5351 13.4853 23.5038C13.4926 23.533 13.5936 23.5215 13.727 23.4955C13.7926 23.4819 13.8666 23.4653 13.9406 23.4476C13.977 23.4382 14.0145 23.4288 14.05 23.4194C14.0677 23.4153 14.0854 23.4111 14.1031 23.4069C14.1208 23.4017 14.1385 23.3975 14.1416 23.3955L14.151 23.3934L14.1718 23.3913C14.1843 23.3892 14.1968 23.3882 14.2094 23.3871L14.1687 23.434C14.3885 23.3746 14.3958 23.358 14.7021 23.3434C14.774 23.3496 14.7657 23.3819 14.6688 23.3694C14.9105 23.3955 14.8574 23.3257 15.1512 23.3527L15.0418 23.3819C15.1605 23.384 15.2178 23.3819 15.2616 23.3746C15.2835 23.3715 15.3002 23.3663 15.322 23.3611C15.3491 23.3559 15.3793 23.3486 15.421 23.3402C15.4231 23.3382 15.4283 23.333 15.4335 23.3277C15.4554 23.3121 15.4804 23.2965 15.5054 23.2798C15.5262 23.2684 15.5471 23.2548 15.57 23.2423C15.6148 23.2163 15.6648 23.1913 15.7117 23.1694C15.8065 23.1267 15.8919 23.0985 15.918 23.1069C15.9336 23.0673 16.0336 22.9683 16.1659 22.9048C16.192 22.9089 16.1503 22.9443 16.1305 22.9621C16.2159 22.9204 16.2899 22.8787 16.3545 22.8381C16.3868 22.8172 16.417 22.7975 16.4462 22.7777C16.4743 22.7589 16.5066 22.737 16.5149 22.7287C16.5285 22.7214 16.5743 22.7047 16.6056 22.6933C16.64 22.6818 16.6733 22.6703 16.7066 22.6589C16.7754 22.637 16.8442 22.6203 16.9223 22.611C16.9327 22.6255 16.9525 22.6276 16.9765 22.6255C16.7858 22.6776 16.6181 22.7235 16.5243 22.7495C16.5045 22.7599 16.4889 22.7683 16.4795 22.7735C16.467 22.7808 16.4618 22.7829 16.4649 22.7797C16.4701 22.7985 16.5337 22.7756 16.5399 22.786C16.5451 22.7881 16.5504 22.7902 16.5535 22.7933C16.5597 22.7964 16.5691 22.7975 16.5722 22.8016C16.5827 22.8089 16.5566 22.8266 16.5629 22.8391C16.5629 22.8423 16.5639 22.8464 16.5649 22.8516V22.8454C16.5681 22.8422 16.5618 22.8422 16.5733 22.836C16.5868 22.8297 16.6004 22.8235 16.6139 22.8172C16.642 22.8037 16.6723 22.7902 16.7025 22.7756C16.7639 22.7485 16.8306 22.7193 16.8973 22.6891C17.0306 22.6328 17.1713 22.5818 17.2942 22.5578C17.3067 22.5578 17.3203 22.5589 17.3307 22.563L17.3067 22.5745C17.3651 22.563 17.4161 22.5443 17.463 22.5234C17.5443 22.5078 17.5964 22.4984 17.6735 22.4776C17.6776 22.4849 17.713 22.4807 17.7631 22.4703C17.7912 22.4536 17.8266 22.4318 17.8652 22.4088C17.8912 22.3911 17.9214 22.3713 17.9506 22.3515C18.01 22.312 18.0704 22.2703 18.1131 22.2411C18.0766 22.2078 18.2267 22.1171 18.0683 22.1755C18.0881 22.1661 18.0506 22.1932 17.9787 22.2442C17.962 22.2567 17.9433 22.2703 17.9339 22.2797C17.935 22.2776 17.937 22.2744 17.9391 22.2713L17.736 22.4099L17.6099 22.4464C17.6401 22.4297 17.6703 22.413 17.7276 22.3911C17.7756 22.3526 17.8016 22.3307 17.837 22.3067C17.8714 22.2838 17.911 22.2619 17.9568 22.2422C17.9964 22.1786 18.0412 22.1098 18.0683 22.0744C18.2569 22.0286 18.5694 21.8629 18.633 21.8702C18.6913 21.8265 18.7528 21.7806 18.8174 21.7327C18.8872 21.6671 18.9591 21.6004 19.031 21.5327C19.0987 21.4681 19.1654 21.4035 19.2289 21.341C19.3529 21.2159 19.4581 21.0982 19.5144 21.0003C19.5936 20.9159 19.6311 20.9326 19.6727 20.9149C19.629 20.9659 19.5675 21.017 19.5488 21.0503C19.5988 20.9972 19.6571 20.943 19.7342 20.8711C19.8863 20.6992 20.0363 20.5315 20.0322 20.47C20.253 20.2783 19.9624 20.6294 20.2291 20.3314L20.2062 20.3835C20.2853 20.3189 20.3572 20.2522 20.4229 20.1866C20.4552 20.1533 20.4864 20.1199 20.5177 20.0866C20.5541 20.047 20.5896 20.0064 20.625 19.9668C20.6614 19.8782 20.6698 19.8511 20.6885 19.798L20.7365 19.6542C20.7677 19.5584 20.799 19.4625 20.8302 19.3656C20.8625 19.2688 20.8959 19.1708 20.9354 19.0698C20.9552 19.0198 20.9761 18.9687 21 18.9177C21.0209 18.8687 21.0511 18.8051 21.0678 18.7739C21.1042 18.7447 21.1428 18.7135 21.1813 18.6812C21.2251 18.6468 21.2709 18.6124 21.3199 18.578C21.2709 18.6145 21.2459 18.6322 21.2303 18.6332C21.3574 18.5249 21.4814 18.4124 21.6053 18.2957L21.7897 18.1196L21.9877 17.9269L22.2377 17.3434C22.319 17.1507 22.3961 16.9757 22.4878 16.7746C22.5534 16.4975 22.619 16.2547 22.7003 16.0036C22.7701 15.7682 22.7555 15.6984 22.7524 15.5807C22.7534 15.5713 22.7534 15.564 22.7597 15.5442L22.8326 15.5129L22.9097 15.2264C22.9618 15.0858 23.0327 14.9712 23.1087 14.8576C23.1473 14.8014 23.1868 14.7451 23.2264 14.6868C23.2462 14.6565 23.265 14.6263 23.2858 14.5961L23.315 14.5482C23.3275 14.5253 23.341 14.5003 23.3546 14.4763C23.365 14.3763 23.3692 14.3357 23.3713 14.2648C23.3733 14.1992 23.3713 14.1304 23.366 14.0564L23.3265 14.121C23.3463 13.9346 23.3494 13.5262 23.3869 13.5605C23.3817 13.5407 23.3556 13.4959 23.3785 13.4241L23.4056 13.4209L23.4015 13.2199L23.3744 12.9521C23.3942 12.5948 23.4817 13.0084 23.4859 12.4864C23.4754 12.2916 23.4077 11.9332 23.39 12.0072Z"/>
  <path d="M17.9787 22.2442C17.9891 22.2359 17.9929 22.2307 18.0064 22.2214C17.9897 22.2276 17.9731 22.2349 17.9564 22.2411C17.9512 22.2516 17.9454 22.2619 17.9391 22.2713C17.9527 22.2619 17.9662 22.2526 17.9787 22.2442Z"/>
  <path d="M18.5613 2.6317C18.5686 2.63795 18.5759 2.64421 18.579 2.64941C18.5738 2.64316 18.5757 2.6421 18.5715 2.63793L18.5613 2.6317Z"/>
  <path d="M22.7009 7.80545C22.6822 7.36788 22.6749 7.9013 22.6061 7.45435L22.6509 7.79607C22.6593 7.73356 22.6697 7.65126 22.7009 7.80545Z"/>
  <path d="M22.2228 6.43752C22.152 6.34272 22.1343 6.3198 22.1864 6.44898C22.2833 6.60734 22.2093 6.4344 22.2228 6.43752Z"/>
  <path d="M16.6247 1.23773L16.6663 1.21481C16.5382 1.12313 16.659 1.23044 16.6247 1.23773Z"/>
  <path d="M14.4065 0.573045L14.1689 0.599091L14.345 0.582422L14.4065 0.573045Z"/>
  <path d="M2.73188 4.46535L2.7996 4.47577C2.86419 4.40284 2.83814 4.3445 2.73188 4.46535Z"/>
  <path d="M0.164054 9.52969C0.180724 9.49843 0.195309 9.46926 0.207811 9.44321C0.219272 9.42238 0.227606 9.40362 0.232815 9.388C0.220313 9.39841 0.206769 9.41508 0.192184 9.43488C0.185933 9.4453 0.17864 9.45676 0.171347 9.46822C0.161971 9.48593 0.151552 9.50468 0.142176 9.52343C0.138008 9.54427 0.133841 9.56615 0.129674 9.58803L0.123423 9.63387C0.120297 9.66408 0.120297 9.69325 0.123423 9.7193C0.129674 9.68909 0.135925 9.65887 0.142176 9.6297C0.149469 9.59532 0.156761 9.56094 0.164054 9.52969Z"/>
  <path d="M7.59505 23.0704L7.793 23.1527L7.70444 23.1048L7.59505 23.0704Z"/>
</svg>
