<?xml version="1.0" encoding="UTF-8" standalone="no"?>
<!-- Created with Inkscape (http://www.inkscape.org/) -->

<svg
   width="23.902298"
   height="24"
   viewBox="0 0 6.3241495 6.35"
   version="1.1"
   id="svg2700"
   inkscape:version="1.2.1 (9c6d41e4, 2022-07-14)"
   sodipodi:docname="return_to_the_devourer_below.svg"
   xmlns:inkscape="http://www.inkscape.org/namespaces/inkscape"
   xmlns:sodipodi="http://sodipodi.sourceforge.net/DTD/sodipodi-0.dtd"
   xmlns="http://www.w3.org/2000/svg"
   xmlns:svg="http://www.w3.org/2000/svg">
  <sodipodi:namedview
     id="namedview2702"
     pagecolor="#505050"
     bordercolor="#eeeeee"
     borderopacity="1"
     inkscape:showpageshadow="0"
     inkscape:pageopacity="0"
     inkscape:pagecheckerboard="0"
     inkscape:deskcolor="#505050"
     inkscape:document-units="mm"
     showgrid="false"
     inkscape:zoom="0.70199214"
     inkscape:cx="-17.094208"
     inkscape:cy="74.074903"
     inkscape:window-width="1390"
     inkscape:window-height="938"
     inkscape:window-x="0"
     inkscape:window-y="25"
     inkscape:window-maximized="0"
     inkscape:current-layer="layer1" />
  <defs
     id="defs2697">
    <clipPath
       clipPathUnits="userSpaceOnUse"
       id="clipPath579">
      <path
         d="m 155.221,467.039 h 23.53 v 23.529 h -23.53 z"
         id="path577" />
    </clipPath>
  </defs>
  <g
     inkscape:label="Layer 1"
     inkscape:groupmode="layer"
     id="layer1"
     transform="translate(-109.81167,-129.01736)">
    <g
       id="g573"
       transform="matrix(0.27796017,0,0,-0.27796017,66.565241,265.28983)">
      <g
         id="g575"
         clip-path="url(#clipPath579)">
        <g
           id="g581"
           transform="translate(167.751,489.928)">
          <path
             d="M 0,0 C 0.046,-0.01 0.067,-0.01 0.07,-0.006 0.027,0.001 -0.009,0.007 0,0"
             style="fill:#050606;fill-opacity:1;fill-rule:nonzero;stroke:none"
             id="path583" />
        </g>
        <g
           id="g585"
           transform="translate(166.692,490.192)">
          <path
             d="M 0,0 C 0.023,-0.002 0.042,-0.004 0.063,-0.007 0.039,0 0.015,0.003 0,0"
             style="fill:#050606;fill-opacity:1;fill-rule:nonzero;stroke:none"
             id="path587" />
        </g>
        <g
           id="g589"
           transform="translate(173.339,488.132)">
          <path
             d="M 0,0 C -0.021,-0.004 0.052,-0.069 0.107,-0.129 Z"
             style="fill:#050606;fill-opacity:1;fill-rule:nonzero;stroke:none"
             id="path591" />
        </g>
        <g
           id="g593"
           transform="translate(175.379,486.073)">
          <path
             d="m 0,0 0.03,-0.041 c 0.014,-0.008 0.028,-0.015 0.043,-0.02 z"
             style="fill:#050606;fill-opacity:1;fill-rule:nonzero;stroke:none"
             id="path595" />
        </g>
        <g
           id="g597"
           transform="translate(176.617,484.385)">
          <path
             d="M 0,0 C -0.019,0.019 -0.067,0.016 -0.09,0.016 -0.069,0.01 -0.044,-0.01 -0.029,-0.023 -0.024,-0.025 -0.017,-0.032 -0.008,-0.04 0,-0.035 0.002,-0.022 0.004,-0.004 0.003,-0.002 0.001,-0.001 0,0"
             style="fill:#050606;fill-opacity:1;fill-rule:nonzero;stroke:none"
             id="path599" />
        </g>
        <g
           id="g601"
           transform="translate(177.83,481.313)">
          <path
             d="M 0,0 0.017,-0.057 C 0.012,-0.042 0.005,-0.017 0,0"
             style="fill:#050606;fill-opacity:1;fill-rule:nonzero;stroke:none"
             id="path603" />
        </g>
        <g
           id="g605"
           transform="translate(174.458,487.312)">
          <path
             d="M 0,0 C 0.001,0.008 -0.002,0.017 -0.006,0.025 -0.009,0.02 -0.006,0.011 0,0"
             style="fill:#050606;fill-opacity:1;fill-rule:nonzero;stroke:none"
             id="path607" />
        </g>
        <g
           id="g609"
           transform="translate(178.035,478.805)">
          <path
             d="M 0,0 0.009,-0.033 C 0.018,-0.035 0.027,-0.037 0.035,-0.035 Z"
             style="fill:#050606;fill-opacity:1;fill-rule:nonzero;stroke:none"
             id="path611" />
        </g>
        <g
           id="g613"
           transform="translate(164.715,490.118)">
          <path
             d="M 0,0 C 0.004,0 0.005,0 0.009,0 0.058,0.014 0.03,0.008 0,0"
             style="fill:#050606;fill-opacity:1;fill-rule:nonzero;stroke:none"
             id="path615" />
        </g>
        <g
           id="g617"
           transform="translate(155.855,476.332)">
          <path
             d="m 0,0 c -0.016,0.01 -0.039,0.036 -0.041,0.019 0,-0.021 0.003,-0.046 0.025,-0.106 -0.052,0.2 0.192,-0.274 0.099,0.021 C 0.082,-0.083 0.035,-0.029 0,0"
             style="fill:#050606;fill-opacity:1;fill-rule:nonzero;stroke:none"
             id="path619" />
        </g>
        <g
           id="g621"
           transform="translate(160.613,488.133)">
          <path
             d="M 0,0 C 0.012,-0.001 0.03,0.004 0.049,0.01 0.045,0.014 0.033,0.012 0,0"
             style="fill:#050606;fill-opacity:1;fill-rule:nonzero;stroke:none"
             id="path623" />
        </g>
        <g
           id="g625"
           transform="translate(163.671,489.5)">
          <path
             d="M 0,0 -0.076,-0.034 C -0.045,-0.022 -0.021,-0.011 0,0"
             style="fill:#050606;fill-opacity:1;fill-rule:nonzero;stroke:none"
             id="path627" />
        </g>
        <g
           id="g629"
           transform="translate(159.254,487.029)">
          <path
             d="m 0,0 c -0.036,-0.027 -0.052,-0.033 -0.093,-0.078 0.005,0.002 0.011,0.004 0.017,0.008 C -0.063,-0.051 -0.043,-0.029 0,0"
             style="fill:#050606;fill-opacity:1;fill-rule:nonzero;stroke:none"
             id="path631" />
        </g>
        <g
           id="g633"
           transform="translate(158.024,485.679)">
          <path
             d="m 0,0 c 0.008,0.006 0.018,0.014 0.027,0.022 0.01,0.015 0.022,0.032 0.032,0.047 z"
             style="fill:#050606;fill-opacity:1;fill-rule:nonzero;stroke:none"
             id="path635" />
        </g>
        <g
           id="g637"
           transform="translate(177.777,481.385)">
          <path
             d="M 0,0 C 0,-0.012 -0.002,-0.017 -0.003,-0.024 L -0.021,0.077 C -0.014,0.052 -0.007,0.028 0,0 m -3.671,-2.957 c -0.133,0.088 -0.289,0.119 -0.424,0.205 -0.158,0.1 -0.319,0.183 -0.509,0.199 -0.217,0.018 -0.399,-0.041 -0.606,-0.094 -0.176,-0.045 -0.355,-0.087 -0.525,-0.151 -0.14,-0.053 -0.276,-0.115 -0.416,-0.168 -0.337,-0.127 -0.637,-0.434 -0.828,-0.731 -0.156,-0.245 -0.296,-0.507 -0.405,-0.775 -0.045,-0.11 -0.112,-0.213 -0.146,-0.326 -0.036,-0.118 -0.024,-0.241 -0.026,-0.362 -0.002,-0.142 0.034,-0.276 0.063,-0.413 0.023,-0.106 0.048,-0.209 0.089,-0.309 0.101,-0.242 0.206,-0.477 0.334,-0.706 0.117,-0.211 0.305,-0.319 0.475,-0.479 0.107,-0.101 0.216,-0.178 0.294,-0.306 0.062,-0.101 0.067,-0.229 0.082,-0.342 0.017,-0.121 0.077,-0.259 0.051,-0.381 -0.035,-0.159 -0.239,-0.261 -0.357,-0.353 -0.089,-0.069 -0.176,-0.141 -0.28,-0.185 -0.136,-0.058 -0.287,-0.049 -0.423,-0.098 -0.083,-0.031 -0.093,-0.039 -0.137,0.038 -0.046,0.079 -0.107,0.096 -0.182,0.141 -0.068,0.04 -0.133,0.088 -0.186,0.147 -0.028,0.031 -0.054,0.064 -0.077,0.098 -0.122,0.178 -0.205,0.388 -0.282,0.589 -0.081,0.207 -0.216,0.387 -0.302,0.592 -0.11,0.262 -0.237,0.514 -0.301,0.794 -0.058,0.253 -0.031,0.52 -0.031,0.778 0,0.219 0.015,0.434 0.026,0.651 0.006,0.128 0.039,0.236 0.076,0.356 0.039,0.121 0.057,0.247 0.094,0.368 0.037,0.124 0.084,0.251 0.136,0.369 0.057,0.131 0.151,0.238 0.209,0.368 0.174,0.393 0.492,0.703 0.879,0.89 0.141,0.069 0.29,0.11 0.436,0.168 0.101,0.041 0.2,0.089 0.303,0.128 0.109,0.04 0.216,0.021 0.323,0.073 0.095,0.046 0.178,0.116 0.278,0.152 0.061,0.021 0.124,0.026 0.185,0.048 0.094,0.034 0.18,0.085 0.271,0.127 0.135,0.063 0.305,0.085 0.451,0.055 0.049,-0.01 0.097,-0.026 0.147,-0.034 0.205,-0.032 0.422,-0.012 0.624,-0.064 0.116,-0.03 0.219,-0.028 0.326,-0.086 0.145,-0.08 0.236,-0.2 0.362,-0.302 0.114,-0.093 0.225,-0.189 0.333,-0.29 0.07,-0.065 0.137,-0.133 0.201,-0.204 0.044,-0.048 0.086,-0.097 0.129,-0.146 0.062,-0.07 0.124,-0.14 0.184,-0.211 0.12,-0.142 0.174,-0.285 0.224,-0.461 0.037,-0.133 0.04,-0.24 0.039,-0.377 0,-0.103 0.012,-0.212 -0.006,-0.314 -0.013,-0.077 -0.03,-0.155 -0.042,-0.232 -0.008,-0.051 0.004,-0.106 -0.012,-0.156 -0.019,-0.062 -0.067,-0.116 -0.089,-0.178 -0.037,-0.1 -0.038,-0.257 -0.119,-0.333 -0.013,0.055 -0.004,0.118 -0.004,0.175 0,0.128 0.007,0.257 -0.004,0.384 -0.03,0.334 -0.202,0.686 -0.379,0.965 -0.068,0.108 -0.146,0.207 -0.215,0.313 -0.091,0.139 -0.168,0.301 -0.311,0.396 m -9.453,9.437 c 0.084,0.025 0.182,0.008 0.269,0.008 0.136,-0.001 0.272,0.004 0.408,-0.006 0.239,-0.018 0.471,-0.017 0.71,-0.019 0.158,-0.001 0.27,-0.006 0.403,-0.082 0.177,-0.1 0.364,-0.135 0.557,-0.191 0.241,-0.07 0.477,-0.15 0.684,-0.296 0.158,-0.111 0.309,-0.245 0.44,-0.388 C -9.505,5.344 -9.36,5.168 -9.22,4.998 -8.954,4.674 -8.818,4.277 -8.678,3.887 -8.604,3.682 -8.534,3.486 -8.444,3.289 -8.353,3.09 -8.359,2.896 -8.375,2.682 -8.418,2.119 -8.654,1.625 -8.909,1.13 -9.172,0.617 -9.487,0.136 -9.795,-0.35 c -0.107,-0.168 -0.269,-0.318 -0.334,-0.507 -0.029,-0.083 -0.078,-0.144 -0.128,-0.215 -0.117,-0.164 -0.194,-0.328 -0.28,-0.51 -0.199,-0.418 -0.329,-0.824 -0.341,-1.288 -0.007,-0.262 -0.028,-0.522 -0.028,-0.784 0,-0.252 0.022,-0.504 0.042,-0.755 0.04,-0.489 0.127,-0.995 0.291,-1.459 0.151,-0.428 0.435,-0.821 0.673,-1.204 0.12,-0.195 0.248,-0.363 0.398,-0.536 0.115,-0.131 0.239,-0.275 0.311,-0.437 0.017,-0.039 0.03,-0.079 0.047,-0.117 0.005,-0.01 0.01,-0.02 0.016,-0.03 0.038,-0.067 0.097,-0.113 0.148,-0.17 0.063,-0.071 0.103,-0.159 0.153,-0.239 0.059,-0.096 0.126,-0.173 0.198,-0.259 0.053,-0.065 0.091,-0.17 0.062,-0.254 -0.093,-0.017 -0.164,0.01 -0.254,-0.042 -0.068,-0.038 -0.132,-0.084 -0.203,-0.117 -0.054,-0.02 -0.108,-0.043 -0.16,-0.068 -0.038,-0.031 -0.08,-0.057 -0.126,-0.076 -0.069,-0.029 -0.155,-0.056 -0.228,-0.075 -0.085,-0.021 -0.168,-0.059 -0.257,-0.062 -0.158,-0.006 -0.319,0.002 -0.477,0.002 h -0.395 c -0.076,0 -0.182,-0.018 -0.257,-0.003 -0.035,0.007 -0.065,0.024 -0.089,0.051 -0.03,0.026 -0.065,0.037 -0.104,0.034 -0.047,0.015 -0.08,0.025 -0.122,0.053 -0.066,0.046 -0.119,0.083 -0.193,0.113 -0.074,0.03 -0.133,0.095 -0.173,0.165 -0.084,0.147 -0.088,0.323 -0.136,0.482 -0.035,0.116 -0.069,0.234 -0.107,0.349 -0.044,0.137 -0.15,0.232 -0.222,0.354 -0.202,0.346 -0.379,0.715 -0.471,1.107 -0.078,0.328 -0.082,0.68 -0.114,1.016 -0.041,0.423 -0.074,0.846 -0.074,1.271 0,0.409 -0.047,0.843 0.06,1.24 0.112,0.419 0.124,0.862 0.323,1.252 0.187,0.367 0.421,0.707 0.657,1.044 0.156,0.223 0.317,0.443 0.478,0.663 0.189,0.26 0.406,0.504 0.588,0.769 0.14,0.202 0.246,0.422 0.372,0.633 0.072,0.122 0.152,0.232 0.202,0.366 0.028,0.075 0.058,0.157 0.072,0.236 0.014,0.083 0.013,0.16 0.05,0.239 0.028,0.058 0.075,0.102 0.11,0.156 0.061,0.095 0.075,0.202 0.125,0.3 0.043,0.086 0.021,0.172 0.056,0.256 0.038,0.095 0.065,0.165 0.067,0.271 0.001,0.079 -0.009,0.147 -0.022,0.224 -0.017,0.095 -0.007,0.197 -0.006,0.293 10e-4,0.11 -0.03,0.213 -0.028,0.323 10e-4,0.08 -0.015,0.143 -0.026,0.22 -0.025,0.175 -0.081,0.356 -0.162,0.513 -0.056,0.11 -0.163,0.195 -0.248,0.28 -0.046,0.046 -0.087,0.094 -0.138,0.134 -0.052,0.04 -0.113,0.065 -0.163,0.109 -0.048,0.044 -0.087,0.097 -0.137,0.138 -0.066,0.054 -0.143,0.094 -0.216,0.138 -0.138,0.084 -0.291,0.118 -0.427,0.208 -0.156,0.103 -0.323,0.206 -0.493,0.282 -0.059,0.027 -0.12,0.048 -0.176,0.08 -0.072,0.042 -0.107,0.081 -0.191,0.107 -0.118,0.036 -0.222,0.018 -0.341,0.035 -0.063,0.008 -0.125,0.031 -0.188,0.042 -0.147,0.026 -0.293,0.059 -0.441,0.081 -0.12,0.018 -0.23,0.063 -0.347,0.085 -0.069,0.013 -0.124,0.011 -0.193,0.032 0.042,0.019 0.089,0.028 0.127,0.055 0.102,0.072 0.128,0.197 0.261,0.236 m -5.054,-8.572 c -0.052,0.114 -0.07,0.235 -0.113,0.352 -0.032,0.086 -0.074,0.164 -0.102,0.252 -0.171,0.528 -0.136,1.112 -0.031,1.652 0.079,0.405 0.236,0.865 0.541,1.154 0.054,0.052 0.094,0.117 0.15,0.167 0.049,0.046 0.105,0.082 0.155,0.127 0.108,0.096 0.242,0.165 0.319,0.293 -0.026,-0.063 -0.088,-0.114 -0.12,-0.174 -0.112,-0.207 -0.17,-0.437 -0.286,-0.64 -0.035,-0.063 -0.078,-0.122 -0.107,-0.189 -0.038,-0.089 -0.046,-0.186 -0.052,-0.282 -0.009,-0.138 -0.025,-0.274 -0.053,-0.41 -0.055,-0.272 -0.033,-0.569 0.026,-0.84 0.031,-0.137 0.094,-0.259 0.153,-0.385 0.067,-0.144 0.112,-0.291 0.203,-0.424 0.201,-0.296 0.463,-0.608 0.773,-0.795 0.132,-0.08 0.273,-0.152 0.41,-0.224 0.082,-0.043 0.168,-0.078 0.25,-0.122 0.066,-0.037 0.122,-0.087 0.189,-0.122 0.103,-0.054 0.219,-0.119 0.326,-0.16 0.155,-0.06 0.325,-0.062 0.463,-0.162 0.05,-0.037 0.093,-0.082 0.146,-0.115 0.077,-0.048 0.164,-0.075 0.241,-0.124 0.076,-0.048 0.143,-0.108 0.208,-0.169 0.127,-0.119 0.259,-0.204 0.362,-0.35 0.06,-0.086 0.115,-0.175 0.171,-0.264 0.05,-0.077 0.116,-0.143 0.166,-0.22 0.078,-0.119 0.114,-0.251 0.161,-0.382 0.055,-0.155 0.135,-0.295 0.141,-0.464 0.002,-0.055 -0.009,-0.109 0,-0.164 0.013,-0.076 0.048,-0.146 0.063,-0.222 0.05,-0.258 -0.021,-0.515 0.001,-0.778 0.02,-0.23 0.014,-0.459 0.013,-0.689 -0.001,-0.207 0.045,-0.383 0.076,-0.583 0.024,-0.158 0.061,-0.314 0.083,-0.472 0.019,-0.137 -0.004,-0.275 0.004,-0.412 0.005,-0.077 0.026,-0.168 0.048,-0.243 0.013,-0.043 0.067,-0.134 0.02,-0.168 -0.016,-0.011 -0.049,0.005 -0.067,10e-4 -0.03,-0.006 -0.04,-0.028 -0.066,-0.041 -0.071,-0.035 -0.153,-0.001 -0.23,-0.017 -0.04,-0.008 -0.068,-0.038 -0.105,-0.048 -0.038,-0.011 -0.077,-0.005 -0.116,-0.005 -0.071,10e-4 -0.123,0.004 -0.19,0.021 -0.156,0.039 -0.299,0.117 -0.453,0.162 -0.148,0.043 -0.302,0.055 -0.454,0.089 -0.081,0.018 -0.121,0.072 -0.195,0.105 -0.038,0.017 -0.067,0.021 -0.1,0.048 -0.032,0.025 -0.08,0.06 -0.107,0.09 -0.035,0.039 -0.026,0.091 -0.026,0.139 10e-4,0.047 0.003,0.079 0.014,0.122 0.012,0.048 0.01,0.1 0.029,0.148 0.072,0.177 0.117,0.357 0.164,0.542 0.006,0.022 0.011,0.043 0.017,0.066 0.058,0.225 0.13,0.446 0.174,0.674 0.036,0.183 0.04,0.371 0.039,0.557 0,0.074 -0.002,0.129 0.032,0.194 0.066,0.125 0.021,0.224 0.02,0.365 -10e-4,0.195 -0.02,0.35 -0.094,0.532 -0.054,0.133 -0.13,0.225 -0.217,0.339 -0.13,0.17 -0.264,0.33 -0.407,0.49 -0.106,0.118 -0.213,0.236 -0.334,0.339 -0.181,0.155 -0.378,0.234 -0.597,0.329 -0.277,0.119 -0.526,0.281 -0.779,0.445 -0.209,0.134 -0.399,0.307 -0.562,0.495 -0.151,0.175 -0.292,0.357 -0.388,0.57 m 13.651,-7.299 c -0.221,-0.279 -0.488,-0.511 -0.751,-0.752 -0.165,-0.151 -0.339,-0.297 -0.529,-0.416 -0.147,-0.094 -0.304,-0.15 -0.462,-0.222 -0.191,-0.088 -0.384,-0.176 -0.583,-0.244 -0.239,-0.083 -0.493,-0.127 -0.735,-0.203 -0.176,-0.056 -0.35,-0.102 -0.534,-0.124 -0.219,-0.025 -0.432,-0.1 -0.642,-0.162 -0.195,-0.058 -0.395,-0.067 -0.592,-0.112 -0.186,-0.043 -0.363,-0.114 -0.552,-0.147 -0.215,-0.037 -0.435,-0.075 -0.653,-0.09 -0.241,-0.017 -0.485,-0.003 -0.726,-0.004 -0.234,-10e-4 -0.442,0 -0.669,0.06 -0.214,0.056 -0.429,0.099 -0.646,0.142 -0.15,0.03 -0.288,0.057 -0.427,0.124 -0.152,0.073 -0.309,0.125 -0.467,0.185 -0.123,0.047 -0.237,0.107 -0.352,0.172 -0.17,0.097 -0.346,0.155 -0.533,0.208 -0.215,0.06 -0.409,0.142 -0.616,0.224 -0.237,0.094 -0.46,0.174 -0.687,0.291 -0.107,0.054 -0.223,0.098 -0.327,0.159 -0.08,0.047 -0.139,0.111 -0.205,0.177 -0.071,0.072 -0.134,0.15 -0.206,0.219 -0.088,0.083 -0.179,0.161 -0.26,0.251 -0.12,0.131 -0.205,0.286 -0.325,0.416 -0.051,0.056 -0.079,0.113 -0.108,0.183 -0.033,0.08 -0.093,0.182 -0.107,0.267 -0.011,0.064 -0.004,0.128 -0.015,0.192 -0.012,0.069 -0.029,0.139 -0.039,0.206 -0.012,0.089 -0.001,0.186 -0.002,0.276 -10e-4,0.063 0.019,0.141 0.061,0.191 0.053,0.064 0.135,0.101 0.193,0.159 0.059,0.058 0.099,0.125 0.127,0.204 0.047,0.138 0.064,0.28 0.204,0.361 0.107,0.063 0.221,0.108 0.329,0.164 0.162,0.082 0.336,0.173 0.508,0.227 0.012,0.004 0.025,0.008 0.036,0.011 0.092,0.029 0.162,0.051 0.264,0.051 0.056,0 0.135,0.02 0.155,-0.047 -0.114,-0.07 -0.214,-0.144 -0.337,-0.198 -0.13,-0.057 -0.228,-0.055 -0.308,-0.184 -0.059,-0.093 -0.103,-0.204 -0.189,-0.276 -0.03,-0.025 -0.061,-0.042 -0.081,-0.077 -0.058,-0.107 -0.053,-0.27 -0.083,-0.388 -0.048,-0.19 -0.067,-0.42 0.03,-0.601 0.046,-0.084 0.14,-0.175 0.205,-0.243 0.093,-0.098 0.19,-0.174 0.308,-0.239 0.12,-0.068 0.227,-0.144 0.363,-0.172 0.129,-0.026 0.22,-0.096 0.345,-0.136 0.116,-0.039 0.234,-0.063 0.347,-0.114 0.11,-0.049 0.213,-0.091 0.33,-0.116 0.183,-0.039 0.361,-0.097 0.544,-0.137 0.267,-0.059 0.548,-0.003 0.809,-0.093 0.078,-0.027 0.148,-0.072 0.228,-0.094 0.131,-0.036 0.272,-0.034 0.406,-0.061 0.151,-0.032 0.315,-0.053 0.47,-0.057 0.171,-0.004 0.332,0.005 0.502,-0.019 0.159,-0.022 0.319,-0.044 0.479,-0.057 1.21,-0.098 2.423,0.244 3.578,0.491 0.205,0.044 0.411,0.089 0.617,0.131 0.174,0.035 0.35,0.042 0.522,0.082 0.177,0.04 0.361,0.074 0.533,0.125 0.161,0.047 0.285,0.13 0.434,0.195 0.117,0.051 0.185,0.068 0.253,0.168 0.088,0.13 0.139,0.292 0.191,0.434 0.057,0.157 0.113,0.293 0.113,0.457 0,0.141 0,0.33 -0.102,0.447 -0.077,0.087 -0.195,0.133 -0.277,0.215 -0.084,0.085 -0.152,0.131 -0.26,0.194 -0.074,0.044 -0.139,0.099 -0.215,0.142 -0.039,0.023 -0.085,0.038 -0.121,0.066 -0.042,0.033 -0.066,0.074 -0.112,0.107 -0.048,0.035 -0.109,0.061 -0.161,0.091 -0.064,0.039 -0.123,0.081 -0.194,0.111 -0.044,0.018 -0.095,0.025 -0.095,0.071 0.057,0.017 0.14,0.005 0.2,0.005 h 0.307 c 0.17,0 0.318,0.022 0.457,-0.07 0.049,-0.032 0.097,-0.047 0.147,-0.075 0.065,-0.035 0.117,-0.088 0.18,-0.127 0.078,-0.049 0.168,-0.08 0.24,-0.137 0.084,-0.067 0.141,-0.144 0.235,-0.203 0.058,-0.037 0.12,-0.067 0.166,-0.116 0.043,-0.046 0.066,-0.106 0.107,-0.153 0.045,-0.053 0.099,-0.094 0.138,-0.152 0.04,-0.059 0.09,-0.126 0.109,-0.193 0.035,-0.12 -0.025,-0.239 -0.03,-0.359 -0.005,-0.132 -0.015,-0.262 -0.03,-0.393 C -4.14,-8.84 -4.32,-9.13 -4.527,-9.391 m -0.371,-3.017 c 0.002,0.002 0.004,0.007 0.006,0.01 -0.003,-0.012 -0.006,-0.024 -0.017,-0.037 -0.07,-0.048 -0.099,-0.055 -0.114,-0.053 0.034,0.022 0.073,0.047 0.125,0.08 M 0.514,-3.61 0.472,-3.47 C 0.426,-3.13 0.583,-3.504 0.494,-3.011 0.449,-2.83 0.32,-2.504 0.316,-2.576 0.329,-2.65 0.337,-2.767 0.312,-2.778 l -0.045,0.165 c -0.005,10e-4 -0.01,0.002 -0.015,0.004 l -0.005,0.027 0.11,1.171 -0.224,0.806 0.018,-0.016 -0.028,0.055 -0.07,0.251 C 0.065,-0.32 0.079,-0.342 0.097,-0.39 0.092,-0.334 0.083,-0.296 0.075,-0.272 0.06,-0.205 0.035,-0.184 0.041,-0.067 0.043,-0.049 0.048,-0.056 0.053,-0.072 L 0.001,0.106 C 0.021,0.073 0.043,0.145 0.053,0.032 0.033,0.365 -0.092,0.549 -0.064,0.681 L -0.055,0.654 C -0.093,0.819 -0.11,0.865 -0.124,0.879 -0.139,0.892 -0.146,0.866 -0.168,0.885 L -0.222,1.093 -0.18,1.268 -0.24,1.3 c -0.01,0.046 -0.03,0.138 -0.006,0.126 -0.078,0.163 -0.014,-0.034 -0.071,0.057 -0.01,0.165 -0.091,0.388 -0.121,0.546 -0.046,0.058 -0.068,0.099 -0.06,0.126 -0.083,0.037 0.123,-0.183 -0.058,-0.017 0.018,0.108 -0.198,0.201 -0.307,0.384 0.076,-0.019 0.189,-0.183 0.08,0 C -0.922,2.567 -1.039,2.837 -1.167,2.959 -1.173,2.953 -1.189,2.96 -1.201,2.966 -1.273,3.018 -1.436,3.284 -1.593,3.476 -1.567,3.472 -1.888,3.95 -2.038,4.18 l 0.013,-10e-4 c -0.08,0.008 -0.24,0.241 -0.374,0.399 0.034,0.015 0.068,-0.006 0.148,-0.087 L -2.367,4.647 C -2.41,4.672 -2.455,4.715 -2.536,4.811 L -2.47,4.799 C -2.623,5.006 -2.811,5.193 -2.977,5.482 -3.007,5.476 -2.971,5.349 -3.014,5.351 L -3.117,5.498 C -3.102,5.502 -3.08,5.493 -3.049,5.457 -3.069,5.48 -3.126,5.534 -3.153,5.589 L -3.041,5.496 C -3.114,5.63 -3.113,5.543 -3.179,5.644 -3.151,5.661 -3.211,5.731 -3.18,5.731 -3.16,5.708 -3.131,5.637 -3.094,5.606 -3.114,5.639 -3.134,5.673 -3.155,5.707 -3.177,5.746 -3.198,5.785 -3.217,5.819 -3.284,5.877 -3.301,5.901 -3.319,5.927 -3.32,5.905 -3.344,5.892 -3.428,5.946 -3.639,6.094 -3.477,6.029 -3.59,6.13 -3.654,6.148 -3.775,6.263 -3.806,6.226 -3.868,6.27 -3.866,6.296 -3.882,6.324 -3.942,6.353 -4.087,6.455 -4.175,6.51 -4.249,6.575 -4.319,6.63 -4.281,6.56 l 0.022,-0.027 c -0.005,0.004 -0.011,0.009 -0.018,0.014 -0.14,0.11 -0.271,0.239 -0.398,0.372 l -0.189,0.202 -0.094,0.1 -0.109,0.112 c -0.115,0.029 -0.177,0.044 -0.262,0.061 l 0.004,0.015 c -0.256,0.044 -0.563,0.126 -0.752,0.136 -0.074,0.019 -0.169,0.072 -0.132,0.083 -0.014,0.002 -0.027,0.003 -0.035,0.004 -0.03,0.016 -0.054,0.029 -0.077,0.041 -0.027,0.014 -0.052,0.028 -0.078,0.044 -0.054,0.033 -0.116,0.076 -0.218,0.156 0.183,-0.084 -0.044,0.058 0.183,-0.093 -0.209,0.151 -0.244,0.204 -0.5,0.317 0.1,-0.015 -0.131,0.147 -0.248,0.208 L -7.043,8.18 c -0.033,0.02 -0.064,0.039 -0.095,0.058 -0.036,0.023 -0.07,0.045 -0.104,0.067 -0.06,0.016 -0.117,0.031 -0.176,0.047 l 0.078,0.037 c -0.195,0.074 -0.384,0.108 -0.562,0.134 -0.09,0.013 -0.177,0.026 -0.261,0.038 -0.042,0.007 -0.084,0.014 -0.124,0.021 L -8.348,8.595 -8.43,8.616 C -8.506,8.608 -8.542,8.607 -8.587,8.607 -8.631,8.608 -8.675,8.611 -8.719,8.617 -8.853,8.563 -8.432,8.626 -8.55,8.566 -8.792,8.544 -9.052,8.591 -9.128,8.582 -9.273,8.577 -9.348,8.554 -9.416,8.528 -9.449,8.515 -9.481,8.501 -9.519,8.489 -9.552,8.476 -9.613,8.463 -9.635,8.458 c -0.01,0.002 -0.02,0.005 -0.031,0.008 -0.019,0.005 -0.039,0.011 -0.06,0.017 0.038,-0.029 0.066,-0.09 -0.19,-0.044 -0.234,0.066 -0.27,0.152 -0.117,0.129 0.056,-0.012 0.082,-0.025 0.078,-0.031 0.078,-0.012 0.18,-0.029 0.092,0.014 l -0.036,-0.01 c -0.112,0.048 -0.436,0.128 -0.352,0.139 -0.182,0.027 -0.084,-0.011 0.045,-0.054 -0.106,0.037 -0.197,0.063 -0.284,0.086 -0.093,0.023 -0.181,0.044 -0.278,0.069 -0.041,0.002 -0.083,0.005 -0.128,0.008 -0.04,0.003 -0.081,0.007 -0.126,0.011 0.051,-0.013 0.096,-0.038 0.046,-0.035 -0.469,0.046 -0.209,-0.027 -0.527,-0.02 -0.18,0.038 0.068,0.067 -0.253,0.058 -0.195,0.029 -0.039,0.053 0.039,0.065 -0.044,-0.003 -0.086,-0.005 -0.128,-0.004 -0.021,0 -0.041,10e-4 -0.061,10e-4 -0.027,0.002 -0.054,0.003 -0.08,0.005 L -12.039,8.862 -12.073,8.859 C -12.096,8.857 -12.118,8.855 -12.139,8.853 -12.182,8.851 -12.224,8.848 -12.263,8.846 -12.341,8.843 -12.411,8.84 -12.469,8.833 l 0.149,0.041 c -0.089,-0.025 -0.164,-0.036 -0.24,-0.049 l 0.093,-0.024 c -0.09,-0.008 -0.165,-0.02 -0.166,-0.004 -0.088,-0.04 0.081,-0.052 -0.096,-0.116 -0.125,-10e-4 -0.351,-0.08 -0.415,-0.038 0.391,0.047 -0.046,0.045 0.272,0.106 -0.06,-0.016 -0.134,-0.028 -0.225,-0.036 -0.014,0.003 0.011,0.012 0.035,0.019 -0.025,-10e-4 -0.048,-0.002 -0.068,-0.003 -0.035,-0.005 -0.066,-0.009 -0.092,-0.012 -0.095,-0.05 -0.101,-0.057 -0.123,-0.076 -0.018,-0.016 -0.028,-0.032 -0.041,-0.05 -0.027,-0.035 -0.067,-0.078 -0.208,-0.155 0.028,0.048 -0.103,0.006 -0.154,-0.029 0.133,0.073 0.087,-0.007 -0.024,-0.093 -0.223,-0.096 -0.222,-0.141 -0.334,-0.199 l 0.132,0.06 C -14.001,8.128 -14.108,8.073 -14.24,7.991 -14.242,7.99 -14.245,7.988 -14.248,7.987 -14.253,7.99 -14.249,7.996 -14.244,8 c 0.019,0.022 0.106,0.066 0.059,0.05 -0.017,-0.018 -0.044,-0.037 -0.06,-0.048 -0.145,-0.079 -0.367,-0.099 -0.558,-0.217 -0.118,-0.032 -0.033,0.045 -0.135,0.014 -0.093,-0.058 -0.159,-0.085 -0.219,-0.106 -0.03,-0.009 -0.059,-0.017 -0.088,-0.027 -0.026,-0.008 -0.053,-0.017 -0.084,-0.027 0.001,10e-4 -0.013,-0.004 -0.027,-0.008 -0.013,-0.004 -0.027,-0.009 -0.042,-0.014 -0.029,-0.01 -0.061,-0.023 -0.096,-0.038 0.096,-0.01 0.107,0.004 -0.086,-0.099 l 0.272,0.105 0.173,0.09 c -0.054,-0.037 -0.121,-0.08 -0.165,-0.113 -0.021,-0.014 -0.067,-0.036 -0.1,-0.054 0.035,0.011 0.081,0.027 0.107,0.038 0.09,0.048 0.194,0.108 0.255,0.13 C -15.166,7.584 -15.155,7.6 -15.076,7.6 -15.151,7.589 -15.227,7.557 -15.285,7.525 -15.4,7.478 -15.53,7.406 -15.681,7.384 l -0.023,0.094 C -15.832,7.453 -15.945,7.414 -16.059,7.369 -16.115,7.346 -16.172,7.323 -16.231,7.298 -16.26,7.286 -16.29,7.274 -16.321,7.261 L -16.367,7.242 C -16.391,7.234 -16.414,7.225 -16.438,7.216 -16.486,7.179 -16.537,7.14 -16.591,7.099 -16.639,7.064 -16.69,7.028 -16.745,6.992 l 0.132,0.075 c -0.029,-0.068 -0.232,-0.174 -0.346,-0.276 -0.007,0.035 -0.091,-0.011 -0.156,-0.033 0.021,-0.015 -0.28,-0.199 -0.276,-0.277 l -0.194,-0.089 c -0.316,-0.211 -0.294,-0.331 -0.594,-0.537 0.067,0.093 -0.08,0.013 0.102,0.178 -0.098,-0.072 -0.19,-0.132 -0.178,-0.151 -0.022,-0.009 -0.044,-0.026 -0.089,-0.064 -0.085,-0.089 -0.178,-0.206 -0.254,-0.245 -0.029,-0.044 -0.019,-0.081 -0.123,-0.169 -0.015,-0.005 -0.01,0.012 -0.01,0.012 0.01,-0.012 -0.145,-0.158 -0.033,-0.106 -0.136,-0.069 -0.272,-0.18 -0.433,-0.323 -0.195,-0.268 -0.365,-0.537 -0.529,-0.671 -0.148,-0.221 -0.326,-0.487 -0.46,-0.687 0.001,0.018 -0.013,0.01 0.016,0.045 -0.216,-0.254 -0.042,-0.22 -0.287,-0.511 -0.154,-0.128 0.093,0.181 0.007,0.094 C -20.474,3.261 -20.5,3.246 -20.527,3.218 -20.54,3.204 -20.554,3.187 -20.568,3.168 -20.586,3.141 -20.606,3.113 -20.627,3.082 -20.632,3.056 -20.639,3.029 -20.645,3 -20.649,2.981 -20.653,2.961 -20.657,2.94 -20.665,2.9 -20.674,2.857 -20.683,2.815 -20.703,2.732 -20.728,2.65 -20.764,2.583 l 0.01,0.062 c -0.041,-0.086 -0.062,-0.198 -0.083,-0.325 -0.01,-0.063 -0.021,-0.13 -0.033,-0.2 -0.007,-0.034 -0.014,-0.07 -0.021,-0.106 -0.007,-0.03 -0.015,-0.061 -0.023,-0.093 l -0.01,-0.018 c 0.001,0.002 -0.004,0.012 -0.013,0.01 -0.061,-0.215 -0.251,-0.581 -0.39,-0.853 0.011,0.103 0.05,0.131 -0.016,0.102 C -21.406,1.04 -21.264,1.163 -21.39,0.92 -21.399,0.91 -21.41,0.898 -21.425,0.878 -21.476,0.786 -21.54,0.66 -21.584,0.649 l 0.083,0.255 C -21.513,0.886 -21.525,0.868 -21.537,0.849 -21.547,0.833 -21.555,0.816 -21.563,0.797 -21.578,0.761 -21.589,0.72 -21.599,0.68 -21.62,0.598 -21.634,0.514 -21.66,0.451 l -0.019,0.024 c -0.106,-0.343 -0.066,-0.387 -0.164,-0.705 -0.005,-0.034 -0.011,-0.074 -0.018,-0.118 l 0.026,0.04 c 0.025,-0.239 -0.067,-0.187 -0.057,-0.423 l -0.075,-0.06 c -0.004,-0.077 -0.012,-0.212 -0.02,-0.362 -0.005,-0.075 -0.01,-0.154 -0.016,-0.23 -0.003,-0.078 -0.006,-0.154 -0.009,-0.223 -0.038,0.163 -0.006,0.483 -0.003,0.685 -0.023,-0.151 -0.083,-0.512 -0.052,-0.596 0,0.062 -0.008,0.141 0.013,0.2 0.022,-0.192 0.028,-0.44 -0.006,-0.741 -0.035,0.02 -0.059,-0.039 -0.078,-0.137 -0.01,-0.049 -0.019,-0.108 -0.027,-0.172 -0.009,-0.07 -0.018,-0.145 -0.027,-0.22 0.008,-0.054 0.016,-0.109 0.023,-0.162 0.007,-0.048 0.012,-0.093 0.015,-0.136 0.008,-0.086 0.008,-0.16 -0.004,-0.208 0.029,-0.112 0.053,-0.224 0.073,-0.337 l 0.029,-0.171 c 0.008,-0.054 0.016,-0.108 0.024,-0.162 -0.001,-0.152 -0.002,-0.308 -0.003,-0.468 -0.001,-0.165 0,-0.335 0.007,-0.513 0.091,0.222 0.009,-0.179 0.107,-0.144 0.002,-0.025 0.003,-0.047 0.004,-0.062 0.037,-0.072 0.052,-0.101 0.063,-0.125 0.011,-0.024 0.015,-0.037 0.015,-0.043 l -0.009,0.029 c 0.004,-0.013 0.006,-0.02 0.009,-0.031 h 10e-4 l 0.139,-0.421 c 0.02,-0.106 -0.08,0.115 -0.095,0.093 0.133,-0.289 0.021,-0.139 0.089,-0.339 0.014,0.054 0.095,-0.078 0.162,-0.247 l -0.07,0.25 c 0.043,-0.067 0.074,-0.122 0.096,-0.17 0.012,-0.024 0.021,-0.046 0.029,-0.066 0.004,-0.01 0.007,-0.02 0.011,-0.03 0.003,-0.01 0.001,-0.009 0.002,-0.013 l -0.002,-0.01 0.002,-0.024 0.003,-0.048 c 0.001,-0.033 0.003,-0.065 0.009,-0.101 0.01,-0.073 0.032,-0.162 0.086,-0.296 l -0.068,0.128 c 0.029,-0.078 0.066,-0.205 0.108,-0.345 0.022,-0.07 0.045,-0.143 0.067,-0.216 0.027,-0.078 0.053,-0.156 0.078,-0.227 0.029,-0.052 0.038,-0.063 0.053,-0.087 0.015,-0.02 0.029,-0.04 0.043,-0.059 0.027,-0.037 0.054,-0.068 0.078,-0.091 0.009,-0.042 0.009,-0.102 -0.044,-0.015 0.121,-0.249 0.28,-0.512 0.428,-0.763 0.157,-0.247 0.307,-0.479 0.392,-0.677 l -0.042,0.024 c 0.057,-0.086 0.129,-0.133 0.172,-0.256 -0.012,0 -0.042,0.023 -0.02,-0.019 0.008,-0.01 0.022,-0.027 0.039,-0.049 0.009,-0.011 0.018,-0.024 0.028,-0.037 0.008,-0.009 0.031,-0.044 0.046,-0.067 0.038,-0.031 0.08,-0.065 0.121,-0.098 0.033,-0.027 0.063,-0.056 0.088,-0.083 l -0.105,0.058 c 0.375,-0.385 0.65,-0.509 0.998,-0.796 -0.049,-0.052 0.251,-0.35 0.4,-0.499 l -0.012,-0.003 c 0.041,-0.036 0.08,-0.072 0.119,-0.106 0.019,-0.017 0.038,-0.034 0.057,-0.05 l 0.028,-0.024 c 0.003,-0.002 0.003,-0.002 0.004,-0.003 0.059,-0.08 0.115,-0.156 0.17,-0.23 0.062,-0.081 0.122,-0.16 0.183,-0.238 0.061,-0.078 0.122,-0.156 0.185,-0.236 0.031,-0.04 0.062,-0.08 0.094,-0.121 l 0.054,-0.073 c 0.025,-0.034 0.049,-0.068 0.074,-0.102 0.048,-0.011 0.103,-0.024 0.159,-0.037 0.106,-0.055 0.268,-0.111 0.455,-0.169 0.094,-0.028 0.195,-0.057 0.298,-0.087 0.092,-0.026 0.186,-0.053 0.28,-0.079 0.083,-0.065 0.165,-0.129 0.244,-0.19 0.089,-0.07 0.173,-0.139 0.249,-0.205 -0.063,0.064 0.045,0.037 0.131,-0.019 0.05,-0.046 0.133,-0.092 0.196,-0.131 0.031,-0.02 0.058,-0.038 0.073,-0.053 0.022,-0.021 0.034,-0.04 0.018,-0.049 l -0.051,0.04 c 0.002,-0.018 0.041,-0.06 0.089,-0.104 0.027,-0.008 0.057,-0.017 0.089,-0.026 0.02,-0.005 0.041,-0.011 0.064,-0.017 0.039,-0.01 0.082,-0.02 0.126,-0.028 0.089,-0.016 0.183,-0.033 0.268,-0.049 l 0.051,0.079 c 0.086,-0.037 0.184,-0.067 0.287,-0.094 0.052,-0.013 0.105,-0.025 0.16,-0.036 0.045,-0.009 0.092,-0.018 0.138,-0.026 0.205,-0.095 0.414,-0.192 0.595,-0.275 0.094,-0.044 0.179,-0.087 0.25,-0.129 0.036,-0.021 0.068,-0.042 0.096,-0.063 0.014,-0.01 0.027,-0.02 0.039,-0.03 l 0.018,-0.016 c 0.01,-0.008 0.02,-0.015 0.029,-0.022 0.009,-0.004 0.017,-0.007 0.027,-0.011 0.076,-0.008 0.159,-0.015 0.243,-0.024 0.073,-0.008 0.146,-0.015 0.212,-0.017 l -0.015,-0.044 c 0.138,-0.029 0.251,-0.052 0.365,-0.076 0.057,-0.011 0.114,-0.022 0.176,-0.034 0.07,-0.012 0.145,-0.025 0.229,-0.04 0.067,0.007 0.178,0.019 0.31,0.033 l -0.092,-0.041 c 0.262,0.021 0.321,0.163 0.563,0.188 l 0.078,-0.063 c 0.115,0.011 0.229,0.019 0.345,0.023 l 0.347,-0.004 c 0.232,0 0.462,0.007 0.688,0.044 -0.007,-0.01 -0.019,-0.03 -0.094,-0.035 0.216,-0.003 0.845,0.003 0.76,0.089 0.003,-0.026 0.093,-0.025 0.214,-0.012 0.061,0.006 0.129,0.016 0.197,0.027 0.035,0.005 0.07,0.011 0.104,0.016 l 0.05,0.009 c 0.026,0.003 0.051,0.007 0.076,0.01 0.026,0.014 0.051,0.027 0.075,0.04 0.016,0.009 0.032,0.018 0.047,0.026 l -0.018,-0.057 c 0.17,0.137 0.17,0.154 0.433,0.286 0.067,0.022 0.071,-0.009 -0.019,-0.035 0.223,0.07 0.149,0.111 0.417,0.201 l -0.084,-0.069 c 0.077,0.033 0.125,0.055 0.158,0.073 0.016,0.009 0.032,0.018 0.041,0.025 l 0.018,0.019 c 0.01,0.008 0.024,0.017 0.066,0.03 0.148,0.029 0.453,0.02 0.491,-0.018 0.03,0.027 0.158,0.07 0.299,0.068 0.021,-0.014 -0.03,-0.027 -0.055,-0.034 0.081,-10e-4 0.154,0.003 0.22,0.009 0.033,0.003 0.065,0.007 0.095,0.01 0.041,0.005 0.079,0.01 0.117,0.014 0.076,0.055 0.145,0.104 0.214,0.153 0.062,0.042 0.126,0.08 0.202,0.111 0.013,-0.01 0.032,-0.007 0.054,0.002 -0.211,-0.128 -0.392,-0.238 -0.465,-0.283 -0.032,-10e-4 -0.051,-0.002 -0.057,-0.002 0.003,-0.01 0.029,-0.017 0.065,-0.021 0.045,0.015 0.114,0.046 0.125,0.039 0.009,-10e-4 0.014,-0.007 0.009,-0.019 -0.005,-0.007 -0.004,-0.012 -0.019,-0.026 -0.016,-0.015 -0.037,-0.035 -0.066,-0.059 0.1,0.072 0.117,0.094 0.175,0.142 0.051,0.043 0.106,0.089 0.161,0.136 0.114,0.092 0.235,0.182 0.346,0.239 0.013,0.003 0.025,0.006 0.036,0.005 l -0.02,-0.018 c 0.052,0.027 0.093,0.057 0.131,0.089 0.071,0.036 0.117,0.058 0.182,0.098 0.044,-0.015 0.263,0.131 0.374,0.194 -0.032,0.034 0.116,0.112 -0.039,0.066 0.019,0.007 -0.018,-0.017 -0.09,-0.061 -0.016,-0.011 -0.035,-0.023 -0.045,-0.032 0.002,0.002 0.004,0.005 0.006,0.008 -0.072,-0.043 -0.166,-0.099 -0.272,-0.163 0.074,0.072 0.156,0.141 0.29,0.191 0.042,0.058 0.088,0.12 0.116,0.153 0.184,0.033 0.492,0.173 0.553,0.162 0.019,0.013 0.039,0.027 0.059,0.04 0.029,0.018 0.058,0.037 0.088,0.056 0.064,0.078 0.13,0.161 0.197,0.244 0.059,0.075 0.118,0.151 0.174,0.222 0.11,0.146 0.202,0.282 0.244,0.388 0.062,0.088 0.11,0.088 0.13,0.091 -0.004,-0.011 -0.03,-0.044 -0.048,-0.068 -0.019,-0.026 -0.035,-0.048 -0.042,-0.066 0.016,0.021 0.032,0.044 0.051,0.068 0.015,0.02 0.03,0.04 0.047,0.062 l 0.018,0.013 0.036,0.024 0.07,0.049 c 0.047,0.033 0.092,0.066 0.132,0.095 0.081,0.059 0.139,0.111 0.144,0.142 0.25,0.127 -0.103,-0.131 0.216,0.083 l -0.034,-0.043 c 0.082,0.038 0.159,0.079 0.23,0.121 0.036,0.022 0.071,0.044 0.105,0.065 0.044,0.029 0.088,0.058 0.131,0.087 l 0.053,0.098 0.032,0.066 c 0.021,0.044 0.042,0.088 0.062,0.132 0.039,0.088 0.078,0.175 0.118,0.264 0.079,0.176 0.168,0.362 0.283,0.545 0.067,0.085 0.15,0.182 0.242,0.275 -0.04,-0.042 -0.06,-0.063 -0.075,-0.067 0.094,0.116 0.186,0.235 0.277,0.356 l 0.135,0.184 0.141,0.196 c 0.12,0.319 0.241,0.639 0.361,0.957 0.122,0.312 0.27,0.611 0.424,0.896 0.045,0.086 0.07,0.146 0.086,0.196 0.016,0.049 0.022,0.085 0.037,0.147 -0.005,0.038 -0.01,0.08 -0.017,0.132 l 0.052,0.055 -0.039,0.283 c -0.006,0.13 0.009,0.248 0.031,0.365 0.022,0.11 0.044,0.22 0.068,0.339 l 0.015,0.024 0.026,0.046 c 0.016,0.031 0.033,0.064 0.049,0.098 0.031,0.069 0.06,0.144 0.086,0.228 L 0.177,-4.543 c 0.084,0.16 0.231,0.523 0.252,0.479 0.003,0.019 -0.005,0.068 0.041,0.124 l 0.026,-0.006 0.064,0.168 z"
             style="fill:#050606;fill-opacity:1;fill-rule:nonzero;stroke:none"
             id="path639" />
        </g>
        <g
           id="g641"
           transform="translate(172.968,469.079)">
          <path
             d="M 0,0 C 0.01,0.007 0.015,0.012 0.029,0.021 0.012,0.015 -0.004,0.009 -0.021,0.004 -0.027,-0.005 -0.033,-0.015 -0.039,-0.024 -0.026,-0.016 -0.012,-0.007 0,0"
             style="fill:#050606;fill-opacity:1;fill-rule:nonzero;stroke:none"
             id="path643" />
        </g>
        <g
           id="g645"
           transform="translate(173.488,487.953)">
          <path
             d="M 0,0 C 0.005,-0.008 0.01,-0.015 0.012,-0.021 0.008,-0.014 0.01,-0.013 0.007,-0.009 Z"
             style="fill:#050606;fill-opacity:1;fill-rule:nonzero;stroke:none"
             id="path647" />
        </g>
        <g
           id="g649"
           transform="translate(177.549,482.945)">
          <path
             d="m 0,0 c -0.053,0.417 -0.017,-0.093 -0.119,0.329 l 0.07,-0.324 C -0.046,0.065 -0.042,0.145 0,0"
             style="fill:#050606;fill-opacity:1;fill-rule:nonzero;stroke:none"
             id="path651" />
        </g>
        <g
           id="g653"
           transform="translate(176.848,484.144)">
          <path
             d="M 0,0 C -0.087,0.074 -0.108,0.092 -0.032,-0.018 0.092,-0.146 -0.014,0 0,0"
             style="fill:#050606;fill-opacity:1;fill-rule:nonzero;stroke:none"
             id="path655" />
        </g>
        <g
           id="g657"
           transform="translate(171.528,489.045)">
          <path
             d="M 0,0 C 0.01,0.01 0.019,0.021 0.027,0.032 0.019,0.036 0.014,0.039 0.009,0.041 0.001,0.045 -0.004,0.047 -0.008,0.048 -0.015,0.05 -0.013,0.046 -0.009,0.039 0.004,0.023 0.009,0.009 0,0"
             style="fill:#050606;fill-opacity:1;fill-rule:nonzero;stroke:none"
             id="path659" />
        </g>
        <g
           id="g661"
           transform="translate(169.483,490.028)">
          <path
             d="M 0,0 0.06,-0.008 -0.021,0.006 -0.134,0.028 -0.231,0.011 -0.134,0.027 Z"
             style="fill:#050606;fill-opacity:1;fill-rule:nonzero;stroke:none"
             id="path663" />
        </g>
        <g
           id="g665"
           transform="translate(158.18,485.963)">
          <path
             d="M 0,0 0.066,0.003 C 0.113,0.084 0.078,0.133 0,0"
             style="fill:#050606;fill-opacity:1;fill-rule:nonzero;stroke:none"
             id="path667" />
        </g>
        <g
           id="g669"
           transform="translate(155.829,480.792)">
          <path
             d="M 0,0 C 0.023,0.119 0.062,0.236 0.066,0.298 0.031,0.244 -0.01,0.096 0,0"
             style="fill:#050606;fill-opacity:1;fill-rule:nonzero;stroke:none"
             id="path671" />
        </g>
        <g
           id="g673"
           transform="translate(163.098,468.249)">
          <path
             d="M 0,0 0.203,-0.023 0.11,-0.003 Z"
             style="fill:#050606;fill-opacity:1;fill-rule:nonzero;stroke:none"
             id="path675" />
        </g>
      </g>
    </g>
  </g>
</svg>
