<?xml version="1.0" encoding="UTF-8" standalone="no"?>
<!-- Created with Inkscape (http://www.inkscape.org/) -->

<svg
   width="23.845894"
   height="24"
   viewBox="0 0 6.3092259 6.35"
   version="1.1"
   id="svg3582"
   inkscape:version="1.2.1 (9c6d41e4, 2022-07-14)"
   sodipodi:docname="return_to_cult_of_umordhoth.svg"
   xmlns:inkscape="http://www.inkscape.org/namespaces/inkscape"
   xmlns:sodipodi="http://sodipodi.sourceforge.net/DTD/sodipodi-0.dtd"
   xmlns="http://www.w3.org/2000/svg"
   xmlns:svg="http://www.w3.org/2000/svg">
  <sodipodi:namedview
     id="namedview3584"
     pagecolor="#505050"
     bordercolor="#eeeeee"
     borderopacity="1"
     inkscape:showpageshadow="0"
     inkscape:pageopacity="0"
     inkscape:pagecheckerboard="0"
     inkscape:deskcolor="#505050"
     inkscape:document-units="mm"
     showgrid="false"
     inkscape:zoom="0.70199214"
     inkscape:cx="28.490347"
     inkscape:cy="168.09305"
     inkscape:window-width="1390"
     inkscape:window-height="938"
     inkscape:window-x="0"
     inkscape:window-y="25"
     inkscape:window-maximized="0"
     inkscape:current-layer="layer1" />
  <defs
     id="defs3579">
    <clipPath
       clipPathUnits="userSpaceOnUse"
       id="clipPath831">
      <path
         d="m 155.221,437.628 h 23.53 v 23.529 h -23.53 z"
         id="path829" />
    </clipPath>
  </defs>
  <g
     inkscape:label="Layer 1"
     inkscape:groupmode="layer"
     id="layer1"
     transform="translate(-97.724478,-104.10574)">
    <g
       id="g825"
       transform="matrix(0.27550002,0,0,-0.27550002,54.891112,231.08397)">
      <g
         id="g827"
         clip-path="url(#clipPath831)">
        <g
           id="g833"
           transform="translate(167.703,460.699)">
          <path
             d="M 0,0 C 0.048,0 0.068,0.006 0.07,0.01 0.026,0.008 -0.01,0.005 0,0"
             style="fill:#050606;fill-opacity:1;fill-rule:nonzero;stroke:none"
             id="path835" />
        </g>
        <g
           id="g837"
           transform="translate(166.712,460.791)">
          <path
             d="M 0,0 C -0.024,0.007 -0.047,0.012 -0.062,0.009 -0.04,0.006 -0.02,0.003 0,0"
             style="fill:#050606;fill-opacity:1;fill-rule:nonzero;stroke:none"
             id="path839" />
        </g>
        <g
           id="g841"
           transform="translate(173.339,458.743)">
          <path
             d="M 0,0 C -0.016,-0.014 0.079,-0.036 0.156,-0.063 Z"
             style="fill:#050606;fill-opacity:1;fill-rule:nonzero;stroke:none"
             id="path843" />
        </g>
        <g
           id="g845"
           transform="translate(175.445,456.701)">
          <path
             d="M 0,0 0.029,-0.042 C 0.042,-0.051 0.056,-0.058 0.07,-0.064 Z"
             style="fill:#050606;fill-opacity:1;fill-rule:nonzero;stroke:none"
             id="path847" />
        </g>
        <g
           id="g849"
           transform="translate(176.564,455.005)">
          <path
             d="M 0,0 C 0.031,-0.011 0.059,-0.034 0.087,-0.066 0.094,-0.061 0.099,-0.05 0.1,-0.029 0.074,0.01 0.027,-0.003 0,0"
             style="fill:#050606;fill-opacity:1;fill-rule:nonzero;stroke:none"
             id="path851" />
        </g>
        <g
           id="g853"
           transform="translate(177.868,451.894)">
          <path
             d="M 0,0 0.031,-0.051 C 0.023,-0.038 0.009,-0.016 0,0"
             style="fill:#050606;fill-opacity:1;fill-rule:nonzero;stroke:none"
             id="path855" />
        </g>
        <g
           id="g857"
           transform="translate(177.979,449.395)">
          <path
             d="M 0,0 0.011,-0.032 C 0.021,-0.034 0.03,-0.035 0.038,-0.033 Z"
             style="fill:#050606;fill-opacity:1;fill-rule:nonzero;stroke:none"
             id="path859" />
        </g>
        <g
           id="g861"
           transform="translate(164.711,460.376)">
          <path
             d="M 0,0 C 0.003,0.001 0.005,0.002 0.008,0.003 0.051,0.033 0.025,0.018 0,0"
             style="fill:#050606;fill-opacity:1;fill-rule:nonzero;stroke:none"
             id="path863" />
        </g>
        <g
           id="g865"
           transform="translate(156.128,447.038)">
          <path
             d="M 0,0 C -0.008,0.013 -0.017,0.031 -0.025,0.035 -0.037,0.04 -0.059,0.068 -0.07,0.069 -0.076,0.07 -0.08,0.067 -0.081,0.057 -0.083,0.048 -0.08,0.024 -0.083,0.021 -0.084,0.016 -0.087,0.02 -0.085,-0.003 c 0,0.014 0.001,0.019 0.003,0.02 0.002,0.002 0.004,0.004 0.006,0.005 0.003,0.004 0.006,0.005 0.011,0.003 0.01,0.013 0.034,-0.077 0.051,-0.112 0.018,-0.039 0.031,-0.045 0.03,0.075 C 0.014,-0.018 0.008,-0.012 0,0"
             style="fill:#050606;fill-opacity:1;fill-rule:nonzero;stroke:none"
             id="path867" />
        </g>
        <g
           id="g869"
           transform="translate(160.555,458.945)">
          <path
             d="M 0,0 C 0.012,-0.003 0.031,-0.002 0.05,0.001 0.047,0.004 0.035,0.005 0,0"
             style="fill:#050606;fill-opacity:1;fill-rule:nonzero;stroke:none"
             id="path871" />
        </g>
        <g
           id="g873"
           transform="translate(163.682,460.227)">
          <path
             d="M 0,0 -0.083,0.004 C -0.05,0.001 -0.023,0 0,0"
             style="fill:#050606;fill-opacity:1;fill-rule:nonzero;stroke:none"
             id="path875" />
        </g>
        <g
           id="g877"
           transform="translate(159.157,457.613)">
          <path
             d="M 0,0 C 0.005,0.003 0.01,0.007 0.015,0.013 0.022,0.035 0.036,0.061 0.07,0.1 0.042,0.064 0.029,0.055 0,0"
             style="fill:#050606;fill-opacity:1;fill-rule:nonzero;stroke:none"
             id="path879" />
        </g>
        <g
           id="g881"
           transform="translate(158.094,456.367)">
          <path
             d="M 0,0 C 0.01,0.004 0.021,0.01 0.031,0.015 0.044,0.027 0.06,0.042 0.073,0.054 Z"
             style="fill:#050606;fill-opacity:1;fill-rule:nonzero;stroke:none"
             id="path883" />
        </g>
        <g
           id="g885"
           transform="translate(177.758,452.02)">
          <path
             d="m 0,0 c 0.013,-0.023 0.026,-0.044 0.04,-0.07 0.003,-0.011 0.003,-0.017 0.003,-0.024 z m -4.477,-4.292 c 0,-0.184 -0.006,-0.38 -0.041,-0.561 -0.028,-0.142 -0.044,-0.273 -0.089,-0.412 -0.02,-0.061 -0.023,-0.124 -0.039,-0.186 -0.023,-0.089 -0.077,-0.166 -0.104,-0.255 -0.034,-0.107 -0.044,-0.218 -0.074,-0.326 -0.029,-0.105 -0.078,-0.226 -0.126,-0.324 -0.035,-0.073 -0.082,-0.12 -0.142,-0.173 -0.169,-0.148 -0.262,-0.361 -0.433,-0.51 -0.19,-0.166 -0.269,-0.414 -0.458,-0.578 -0.168,-0.147 -0.349,-0.277 -0.527,-0.412 -0.089,-0.067 -0.177,-0.135 -0.262,-0.207 -0.092,-0.076 -0.173,-0.17 -0.269,-0.237 -0.228,-0.161 -0.506,-0.304 -0.654,-0.552 -0.059,-0.1 -0.137,-0.188 -0.206,-0.281 -0.093,-0.125 -0.18,-0.257 -0.276,-0.38 -0.067,-0.085 -0.144,-0.163 -0.21,-0.248 -0.07,-0.09 -0.114,-0.191 -0.173,-0.286 -0.039,-0.062 -0.091,-0.096 -0.144,-0.143 -0.075,-0.068 -0.135,-0.158 -0.185,-0.245 -0.113,-0.198 -0.234,-0.365 -0.436,-0.48 -0.097,-0.055 -0.196,-0.103 -0.282,-0.174 -0.085,-0.069 -0.181,-0.161 -0.289,-0.192 -0.042,-0.012 -0.085,-0.008 -0.128,-0.009 -0.103,0 -0.201,-0.036 -0.302,-0.054 -0.115,-0.022 -0.231,-0.034 -0.345,-0.064 -0.281,-0.073 -0.538,-0.143 -0.819,-0.043 -0.116,0.041 -0.226,0.045 -0.347,0.024 -0.154,-0.027 -0.301,-0.017 -0.456,-0.012 -0.17,0.005 -0.378,0.027 -0.539,0.081 -0.1,0.033 -0.19,0.094 -0.281,0.146 -0.034,0.02 -0.118,0.056 -0.132,0.094 0.22,0.051 0.451,0.082 0.679,0.11 0.344,0.041 0.687,0.109 1.034,0.113 0.241,0.003 0.451,0.134 0.668,0.225 0.192,0.08 0.347,0.22 0.531,0.315 0.22,0.113 0.413,0.201 0.6,0.366 0.085,0.075 0.161,0.16 0.247,0.235 0.049,0.037 0.096,0.077 0.141,0.119 0.031,0.033 0.038,0.039 0.02,0.017 0.244,0.259 0.478,0.535 0.735,0.782 0.073,0.07 0.166,0.11 0.239,0.179 0.084,0.077 0.13,0.187 0.2,0.275 0.117,0.147 0.237,0.289 0.349,0.44 0.099,0.133 0.202,0.266 0.328,0.377 0.194,0.172 0.349,0.374 0.501,0.583 0.171,0.236 0.355,0.454 0.553,0.669 0.144,0.158 0.319,0.3 0.445,0.471 0.083,0.113 0.172,0.212 0.271,0.314 0.143,0.148 0.281,0.301 0.411,0.461 0.085,0.104 0.189,0.211 0.229,0.342 0.037,0.122 0.043,0.251 0.084,0.374 0.053,0.155 0.099,0.32 0.164,0.47 0.003,0.005 0.005,0.01 0.007,0.014 0.028,0.06 0.068,0.114 0.089,0.176 0.022,0.062 0.026,0.129 0.042,0.192 0.057,0.221 0.128,0.439 0.175,0.663 -0.007,-0.188 -0.002,-0.376 -0.002,-0.564 0,-0.045 0.001,-0.09 0,-0.134 0,-0.051 0.015,-0.085 0.022,-0.126 0.023,-0.147 0.005,-0.31 0.006,-0.459 m -8.885,-4.243 c -0.174,0.007 -0.357,0.057 -0.524,0.096 -0.121,0.029 -0.325,-0.018 -0.287,0.177 0.015,0.08 0.081,0.173 0.128,0.236 0.077,0.103 0.229,0.17 0.348,0.201 0.05,0.013 0.1,0.024 0.144,0.052 0.058,0.036 0.083,0.069 0.151,0.084 0.087,0.02 0.16,0.055 0.251,0.054 0.122,-0.001 0.239,-0.009 0.358,-0.033 0.12,-0.026 0.246,-0.051 0.37,-0.019 0.134,0.035 0.292,0.005 0.423,-0.034 0.096,-0.03 0.198,-0.033 0.291,-0.063 0.06,-0.018 0.113,-0.065 0.179,-0.059 0.126,0.013 0.221,0.118 0.345,0.145 0.084,0.018 0.17,0.026 0.256,0.03 0.051,0.001 0.105,-0.004 0.153,0.008 0.036,0.009 0.065,0.016 0.104,0.017 0.041,0 0.094,0.009 0.135,-0.006 0.035,-0.013 0.057,-0.044 0.084,-0.067 0.076,-0.065 0.162,-0.07 0.249,-0.111 0.031,-0.016 0.06,-0.039 0.093,-0.052 0.036,-0.014 0.075,-0.018 0.112,-0.028 0.059,-0.016 0.134,-0.022 0.189,-0.05 0.061,-0.032 0.112,-0.058 0.179,-0.082 0.026,-0.01 0.049,-0.023 0.073,-0.037 0.076,-0.045 0.135,-0.112 0.211,-0.157 0.058,-0.034 0.142,-0.076 0.178,-0.134 -0.269,-0.057 -0.548,-0.084 -0.824,-0.085 -0.116,0 -0.224,0.026 -0.338,0.028 -0.159,0.002 -0.308,-0.032 -0.458,-0.082 -0.157,-0.051 -0.305,-0.092 -0.467,-0.124 -0.142,-0.028 -0.295,-0.013 -0.439,-0.013 -0.151,0 -0.304,-0.009 -0.455,-10e-4 -0.074,0.004 -0.145,0.027 -0.219,0.03 -0.09,0.003 -0.169,-10e-4 -0.258,0.018 -0.058,0.012 -0.118,0.032 -0.178,0.036 -0.054,0.004 -0.107,-0.004 -0.161,0.005 -0.136,0.021 -0.26,0.014 -0.396,0.02 m -1.05,1.457 c -0.074,-0.18 -0.173,-0.344 -0.265,-0.514 -0.121,-0.222 -0.205,-0.47 -0.266,-0.714 -0.049,-0.198 -0.099,-0.4 -0.101,-0.604 -0.002,-0.223 -0.022,-0.462 0.024,-0.682 0.039,-0.187 0.087,-0.372 0.164,-0.546 0.059,-0.135 0.119,-0.274 0.197,-0.399 0.043,-0.07 0.101,-0.132 0.136,-0.206 -0.063,0.042 -0.134,0.041 -0.203,0.062 -0.062,0.019 -0.114,0.061 -0.169,0.095 -0.172,0.106 -0.327,0.245 -0.476,0.381 -0.093,0.084 -0.214,0.124 -0.304,0.217 -0.065,0.068 -0.128,0.13 -0.201,0.189 -0.074,0.059 -0.118,0.118 -0.171,0.197 -0.101,0.15 -0.244,0.28 -0.361,0.419 -0.058,0.07 -0.114,0.139 -0.168,0.212 -0.06,0.081 -0.127,0.14 -0.193,0.212 -0.069,0.077 -0.113,0.184 -0.161,0.273 -0.052,0.096 -0.11,0.185 -0.155,0.284 -0.121,0.27 -0.233,0.538 -0.33,0.818 -0.149,0.424 -0.267,0.859 -0.409,1.285 -0.155,0.466 -0.322,0.94 -0.433,1.419 -0.054,0.234 -0.091,0.466 -0.118,0.705 -0.027,0.242 -0.07,0.485 -0.075,0.729 -0.007,0.43 0.04,0.858 0.089,1.285 0.025,0.215 0.032,0.428 0.035,0.644 0.005,0.283 0.02,0.565 0.025,0.847 0.003,0.206 -0.004,0.412 0.013,0.618 0.009,0.097 0.034,0.193 0.042,0.291 0.003,0.027 -0.002,0.055 -0.001,0.082 0.003,0.099 0.041,0.195 0.053,0.293 0.019,0.159 -0.003,0.34 0.048,0.494 0.039,0.117 0.104,0.221 0.138,0.341 0.037,0.127 0.083,0.248 0.136,0.368 0.154,0.347 0.359,0.659 0.599,0.948 0.25,0.301 0.444,0.648 0.64,0.986 0.059,0.101 0.112,0.211 0.224,0.258 0.125,0.053 0.216,0.158 0.311,0.254 0.229,0.232 0.467,0.456 0.712,0.67 0.093,0.08 0.19,0.169 0.291,0.24 0.087,0.062 0.186,0.09 0.279,0.139 0.105,0.054 0.196,0.129 0.303,0.178 0.082,0.038 0.156,0.038 0.243,0.05 0.223,0.032 0.405,0.178 0.625,0.218 0.253,0.047 0.496,0.128 0.747,0.184 0.285,0.063 0.576,0.134 0.865,0.167 0.147,0.017 0.291,0.034 0.434,0.07 0.215,0.053 0.396,0.107 0.608,0.026 0.074,-0.027 0.14,-0.033 0.218,-0.012 0.095,0.026 0.198,0.073 0.289,0.115 0.098,0.044 0.227,0.06 0.334,0.073 0.169,0.019 0.355,-0.001 0.525,-0.002 0.099,0 0.198,0.005 0.297,-0.004 0.125,-0.012 0.25,-0.042 0.377,-0.044 0.191,-0.004 0.365,-0.053 0.546,-0.118 0.119,-0.042 0.233,-0.095 0.351,-0.138 0.024,-0.009 0.047,-0.017 0.072,-0.019 0.043,-0.003 0.086,0.01 0.129,0.013 0.137,0.008 0.286,0.003 0.416,-0.049 0.085,-0.034 0.171,-0.069 0.259,-0.096 0.087,-0.027 0.13,-0.079 0.203,-0.131 0.045,-0.032 0.091,-0.045 0.131,-0.084 0.028,-0.028 0.052,-0.06 0.083,-0.085 0.043,0.05 0.079,0.001 0.109,-0.032 0.033,-0.035 0.076,-0.058 0.106,-0.097 0.041,-0.052 0.05,-0.11 0.082,-0.167 C -6.434,5.472 -6.383,5.445 -6.421,5.38 -6.452,5.328 -6.554,5.282 -6.6,5.247 -6.765,5.123 -6.926,4.968 -7.069,4.821 -7.864,4.005 -8.725,3.262 -9.564,2.491 -9.813,2.263 -10.016,1.978 -10.278,1.771 -10.322,1.736 -10.342,1.671 -10.407,1.677 -10.434,1.584 -10.482,1.529 -10.549,1.462 -10.603,1.409 -10.65,1.35 -10.696,1.29 -10.726,1.178 -10.762,1.068 -10.801,0.96 -10.858,0.807 -10.901,0.649 -10.938,0.49 -10.954,0.424 -10.955,0.315 -10.988,0.258 -10.997,0.243 -10.99,0.232 -11.005,0.221 -11.021,0.209 -11.05,0.218 -11.063,0.205 -11.08,0.188 -11.08,0.12 -11.084,0.096 c -0.024,-0.15 -0.031,-0.303 -0.058,-0.453 -0.06,-0.342 -0.115,-0.685 -0.157,-1.03 -0.035,-0.288 -0.082,-0.57 -0.161,-0.85 -0.054,-0.192 -0.13,-0.362 -0.213,-0.542 -0.086,-0.185 -0.161,-0.366 -0.271,-0.538 -0.095,-0.148 -0.175,-0.287 -0.245,-0.447 -0.05,-0.112 -0.094,-0.215 -0.128,-0.333 -0.025,-0.089 -0.158,-0.254 -0.116,-0.349 0.011,-0.025 0.02,-0.03 0.046,-0.036 0.061,-0.014 0.147,0.028 0.209,0.034 0.232,0.025 0.404,-0.228 0.571,-0.356 0.115,-0.087 0.292,-0.105 0.431,-0.109 0.056,-10e-4 0.113,-0.002 0.169,-10e-4 0.097,0.003 0.149,0.047 0.232,0.085 0.065,0.029 0.146,0.025 0.207,0.058 0.032,0.017 0.053,0.045 0.081,0.066 0.03,0.021 0.069,0.032 0.095,0.058 0.03,0.029 0.032,0.067 0.071,0.086 0.041,0.02 0.076,0.002 0.112,-0.015 0.094,-0.046 0.198,-0.105 0.257,-0.193 0.055,-0.082 0.066,-0.185 0.069,-0.282 10e-4,-0.007 10e-4,-0.013 10e-4,-0.02 0.004,-0.138 -0.078,-0.347 -0.229,-0.375 -0.042,-0.008 -0.086,-0.005 -0.129,-0.014 -0.044,-0.009 -0.082,-0.036 -0.126,-0.046 -0.098,-0.02 -0.216,-0.006 -0.315,-0.005 -0.107,0 -0.209,-0.007 -0.313,-0.033 -0.082,-0.021 -0.152,-0.076 -0.229,-0.109 -0.085,-0.036 -0.162,-0.085 -0.252,-0.11 -0.045,-0.013 -0.098,-0.007 -0.139,-0.019 -0.054,-0.016 -0.072,-0.064 -0.129,-0.06 -0.1,0.006 -0.242,0.111 -0.329,0.172 -0.091,0.064 -0.19,0.141 -0.301,0.158 -0.137,0.021 -0.272,0.085 -0.409,0.083 -0.084,-10e-4 -0.171,0.013 -0.248,-0.025 -0.068,-0.035 -0.113,-0.069 -0.188,-0.09 -0.077,-0.022 -0.136,-0.063 -0.198,-0.111 -0.066,-0.05 -0.139,-0.064 -0.196,-0.128 -0.067,-0.077 -0.133,-0.128 -0.22,-0.181 -0.013,-0.008 -0.027,-0.013 -0.041,-0.018 -0.009,-0.017 -0.018,-0.034 -0.027,-0.05 -0.119,-0.203 -0.212,-0.418 -0.328,-0.621 -0.077,-0.136 -0.125,-0.281 -0.184,-0.425 M -6.209,0 c 0.042,-0.036 0.074,-0.082 0.117,-0.116 0.039,-0.03 0.082,-0.053 0.119,-0.084 0.027,-0.023 0.095,-0.056 0.094,-0.099 -0.002,-0.039 -0.124,-0.105 -0.156,-0.124 -0.023,-0.014 -0.043,-0.024 -0.07,-0.028 -0.046,-0.006 -0.091,0.015 -0.136,0.003 -0.065,-0.017 -0.084,-0.075 -0.119,-0.125 -0.039,-0.057 -0.102,-0.058 -0.147,-0.106 -0.033,-0.033 -0.071,-0.088 -0.096,-0.128 -0.032,-0.051 -0.056,-0.103 -0.08,-0.157 -0.046,-0.108 -0.2,-0.081 -0.306,-0.081 -0.143,0 -0.287,0 -0.431,0 -0.06,0 -0.106,-0.007 -0.162,-0.021 -0.064,-0.016 -0.1,-0.037 -0.163,-0.061 -0.052,-0.018 -0.11,-0.047 -0.164,-0.055 -0.031,-0.006 -0.063,0.004 -0.095,-0.001 -0.043,-0.008 -0.069,-0.024 -0.116,-0.026 -0.138,-0.004 -0.276,0.002 -0.414,0.001 -0.104,-0.001 -0.238,0.085 -0.336,0.038 -0.036,-0.018 -0.06,-0.05 -0.099,-0.064 -0.062,-0.022 -0.137,-0.016 -0.202,-0.022 -0.101,-0.009 -0.196,0.032 -0.287,0.074 -0.033,0.016 -0.067,0.049 -0.102,0.058 -0.027,0.007 -0.044,-0.005 -0.072,0.011 -0.024,0.014 -0.06,0.064 -0.078,0.081 -0.034,0.033 -0.052,0.039 -0.087,0.058 -0.036,0.02 -0.096,0.059 -0.127,0.086 -0.027,0.024 -0.053,0.068 -0.023,0.09 0.019,0.015 0.043,0.012 0.065,0.033 0.024,0.024 0.029,0.051 0.036,0.04 0.043,0.059 0.106,0.109 0.155,0.163 0.064,0.073 0.126,0.152 0.2,0.216 0.064,0.055 0.133,0.101 0.194,0.16 0.067,0.064 0.123,0.143 0.197,0.199 0.051,0.039 0.112,0.069 0.167,0.103 0.129,0.08 0.24,0.111 0.386,0.137 0.181,0.033 0.349,0.009 0.53,0.018 0.152,0.007 0.305,0.022 0.457,0.025 0.174,0.002 0.346,-0.043 0.52,-0.043 0.086,0 0.169,-0.021 0.253,-0.035 0.065,-0.011 0.136,-0.016 0.2,-0.034 C -6.508,0.161 -6.434,0.119 -6.361,0.083 -6.31,0.057 -6.253,0.037 -6.209,0 M -5,-12.61 c 0.034,0.042 0.095,0.118 0.12,0.151 0,0.003 0.001,0.008 0.002,0.011 0.001,-0.012 0.001,-0.024 -0.004,-0.04 -0.013,-0.019 -0.049,-0.062 -0.067,-0.082 -0.021,-0.024 -0.036,-0.038 -0.047,-0.046 -0.014,-0.002 -0.023,-0.001 -0.029,0 0.006,10e-4 0.013,0.003 0.025,0.006 m 5.585,8.89 -0.028,0.074 -0.056,0.147 c -0.072,0.337 0.113,-0.026 -0.013,0.461 -0.059,0.178 -0.212,0.494 -0.21,0.422 0.018,-0.073 0.035,-0.19 0.011,-0.203 l -0.057,0.162 c -0.005,10e-4 -0.011,0.002 -0.016,0.003 l -0.007,0.026 0.238,1.179 -0.211,0.79 0.018,-0.016 -0.028,0.055 -0.068,0.252 c 0.011,-0.005 0.026,-0.026 0.043,-0.075 -0.007,0.074 -0.017,0.11 -0.03,0.146 -0.03,0.051 -0.053,0.069 -0.074,0.172 -0.003,0.019 0.004,0.013 0.013,-0.001 L 0.014,0.034 C 0.042,0.007 0.045,0.082 0.083,-0.026 -0.02,0.293 -0.188,0.44 -0.194,0.575 l 0.016,-0.023 c -0.16,0.306 -0.115,0.161 -0.169,0.199 L -0.35,0.759 -0.376,0.961 -0.313,1.13 -0.368,1.169 C -0.373,1.216 -0.381,1.31 -0.359,1.296 -0.415,1.467 -0.376,1.263 -0.422,1.361 -0.41,1.54 -0.472,1.795 -0.475,1.955 -0.501,2 -0.517,2.038 -0.507,2.059 -0.589,2.105 -0.394,1.857 -0.567,2.046 -0.54,2.153 -0.747,2.264 -0.841,2.456 -0.767,2.43 -0.667,2.257 -0.761,2.449 -0.896,2.506 -0.99,2.786 -1.107,2.919 -1.161,2.89 -1.351,3.216 -1.54,3.444 -1.512,3.441 -1.842,3.913 -1.975,4.156 l 0.013,-10e-4 c -0.079,0.01 -0.229,0.252 -0.356,0.416 0.034,0.014 0.067,-0.009 0.143,-0.093 L -2.284,4.639 C -2.326,4.666 -2.368,4.711 -2.445,4.811 L -2.38,4.796 -2.436,4.874 -2.515,4.94 -2.585,4.996 C -2.632,5.033 -2.681,5.072 -2.73,5.111 -2.829,5.192 -2.93,5.281 -3.031,5.392 -3.06,5.379 -2.996,5.263 -3.039,5.256 l -0.133,0.122 c 0.015,0.006 0.037,0.002 0.075,-0.026 -0.024,0.018 -0.092,0.059 -0.13,0.107 l 0.129,-0.067 c -0.1,0.115 -0.08,0.03 -0.167,0.115 0.024,0.022 -0.05,0.077 -0.02,0.085 0.025,-0.019 0.069,-0.082 0.112,-0.104 -0.048,0.047 -0.111,0.114 -0.14,0.153 -0.02,0.041 -0.051,0.1 -0.055,0.125 C -3.376,5.745 -3.403,5.739 -3.467,5.817 -3.624,6.022 -3.489,5.911 -3.567,6.042 -3.622,6.078 -3.703,6.224 -3.744,6.199 -3.79,6.26 -3.78,6.284 -3.788,6.316 -3.814,6.341 -3.855,6.39 -3.898,6.443 -3.949,6.506 -4.004,6.575 -4.049,6.631 -4.206,6.67 -4.245,6.672 -4.192,6.632 l 0.037,-0.014 c -0.008,10e-4 -0.016,0.003 -0.026,0.005 -0.182,0.032 -0.364,0.086 -0.545,0.145 l -0.27,0.091 c -0.086,0.028 -0.17,0.056 -0.254,0.083 l -0.071,0.061 -0.085,0.068 0.011,0.012 c -0.21,0.155 -0.447,0.368 -0.611,0.463 -0.059,0.05 -0.119,0.14 -0.082,0.133 -0.024,0.018 -0.045,0.035 -0.06,0.045 -0.037,0.016 -0.068,0.028 -0.098,0.04 -0.027,0.011 -0.052,0.022 -0.08,0.035 -0.056,0.027 -0.122,0.063 -0.228,0.129 0.192,-0.064 -0.051,0.053 0.193,-0.073 -0.226,0.128 -0.267,0.177 -0.535,0.261 0.102,-0.004 -0.148,0.132 -0.27,0.179 l 0.153,-0.109 c -0.036,0.016 -0.07,0.032 -0.103,0.047 -0.038,0.019 -0.075,0.038 -0.111,0.056 -0.061,0.009 -0.119,0.018 -0.178,0.028 l 0.072,0.045 C -7.589,8.429 -7.828,8.432 -8.052,8.439 -8.164,8.442 -8.271,8.446 -8.375,8.46 -8.478,8.474 -8.576,8.507 -8.67,8.552 -8.813,8.542 -8.393,8.471 -8.523,8.451 -8.76,8.505 -8.994,8.631 -9.069,8.645 -9.2,8.684 -9.276,8.687 -9.345,8.685 -9.38,8.683 -9.412,8.681 -9.448,8.679 c -0.018,-10e-4 -0.037,-10e-4 -0.057,0 -0.022,10e-4 -0.038,10e-4 -0.078,0.007 -0.024,0 -0.05,-10e-4 -0.08,-10e-4 -0.026,0 -0.055,0.002 -0.087,0.004 0.045,-0.02 0.086,-0.072 -0.175,-0.087 -0.243,0.011 -0.298,0.086 -0.144,0.099 0.058,10e-4 0.086,-0.005 0.084,-0.012 0.079,0.006 0.182,0.012 0.086,0.035 L -9.931,8.705 c -0.121,0.022 -0.456,0.025 -0.376,0.056 -0.185,-0.016 -0.08,-0.031 0.057,-0.043 -0.202,0.022 -0.357,0.019 -0.514,0.021 -0.074,0.006 -0.175,0.016 -0.283,0.032 0.05,-0.015 0.095,-0.042 0.045,-0.037 -0.468,0.067 -0.211,-0.018 -0.53,0.002 -0.178,0.046 0.071,0.065 -0.251,0.069 -0.194,0.038 -0.037,0.055 0.042,0.064 -0.035,-10e-4 -0.07,-10e-4 -0.104,0 l -0.072,0.004 c -0.029,0.003 -0.056,0.005 -0.084,0.008 C -12.04,8.86 -12.078,8.84 -12.115,8.821 -12.139,8.81 -12.162,8.799 -12.184,8.788 -12.228,8.77 -12.27,8.752 -12.31,8.735 -12.39,8.703 -12.462,8.676 -12.519,8.648 l 0.128,0.087 C -12.468,8.683 -12.534,8.647 -12.602,8.61 l 0.096,0.008 c -0.083,-0.037 -0.15,-0.074 -0.157,-0.059 -0.069,-0.067 0.094,-0.022 -0.052,-0.141 -0.058,-0.021 -0.136,-0.069 -0.207,-0.11 -0.036,-0.02 -0.07,-0.038 -0.099,-0.05 -0.015,-0.005 -0.028,-0.01 -0.039,-0.011 -0.007,0 -0.012,0.003 -0.017,0.008 0.005,10e-4 0.028,0.013 0.043,0.021 0.016,0.008 0.029,0.016 0.041,0.021 0.022,0.013 0.035,0.022 0.043,0.028 0.014,0.013 0.005,0.016 -0.007,0.018 -0.023,0.006 -0.055,0.011 0.085,0.092 -0.052,-0.035 -0.118,-0.071 -0.202,-0.109 -0.015,-0.001 0.006,0.016 0.027,0.03 -0.023,-0.008 -0.056,-0.023 -0.061,-0.024 -0.003,10e-4 -0.005,10e-4 -0.007,0 -0.003,10e-4 -0.005,0 -0.006,-0.001 -0.007,-0.002 -0.027,-0.005 -0.036,-0.008 -0.023,-0.007 -0.039,-0.016 -0.059,-0.026 -0.04,-0.018 -0.096,-0.038 -0.256,-0.041 0.047,0.03 -0.089,0.053 -0.15,0.046 0.152,0.002 0.074,-0.047 -0.065,-0.072 -0.242,0.017 -0.262,-0.023 -0.389,-0.023 L -13.931,8.2 c -0.023,-0.015 -0.064,-0.022 -0.118,-0.027 -0.057,-0.004 -0.13,-0.008 -0.215,-0.014 -0.006,-0.002 -0.014,-0.005 -0.022,-0.008 -0.006,0.004 0.003,0.011 0.02,0.02 0.063,0.009 0.13,0.008 0.09,0.015 -0.013,-0.004 -0.024,-0.007 -0.037,-0.009 l -0.053,-0.006 c -0.063,-0.024 -0.095,-0.032 -0.144,-0.044 -0.047,-0.009 -0.096,-0.018 -0.147,-0.028 -0.101,-0.019 -0.208,-0.042 -0.311,-0.092 -0.121,-0.018 -0.028,0.049 -0.133,0.028 -0.103,-0.049 -0.174,-0.069 -0.238,-0.082 -0.032,-0.007 -0.062,-0.012 -0.095,-0.019 -0.016,-0.003 -0.032,-0.007 -0.05,-0.01 -0.009,-0.003 -0.019,-0.005 -0.028,-0.008 -0.017,-0.005 -0.034,-0.01 -0.051,-0.015 -0.017,-0.01 -0.034,-0.021 -0.053,-0.032 -0.01,-0.006 -0.021,-0.014 -0.033,-0.021 -0.023,-0.016 -0.048,-0.034 -0.075,-0.055 0.096,0.014 0.104,0.03 -0.061,-0.116 l 0.247,0.17 0.227,0.087 -0.101,-0.054 c -0.038,-0.019 -0.056,-0.032 -0.115,-0.058 -0.045,-0.034 -0.061,-0.051 -0.088,-0.075 0.031,0.02 0.063,0.041 0.094,0.062 0.033,0.012 0.066,0.025 0.097,0.037 0.028,0.011 0.054,0.022 0.079,0.032 0.051,0.021 0.096,0.038 0.131,0.047 -0.137,-0.079 -0.125,-0.065 -0.046,-0.073 -0.043,-0.001 -0.084,-0.009 -0.123,-0.02 -0.02,-0.005 -0.04,-0.012 -0.059,-0.019 l -0.069,-0.026 c -0.054,-0.04 -0.11,-0.081 -0.167,-0.124 -0.055,-0.039 -0.114,-0.075 -0.182,-0.103 l -0.045,0.085 c -0.242,-0.111 -0.422,-0.272 -0.646,-0.427 -0.072,-0.039 -0.183,-0.091 -0.293,-0.134 l 0.145,0.047 c -0.042,-0.061 -0.262,-0.125 -0.394,-0.203 -0.001,0.035 -0.092,0.006 -0.16,-0.002 0.016,-0.019 -0.312,-0.141 -0.328,-0.219 L -17.537,6.69 -17.588,6.653 -17.626,6.629 -17.699,6.583 c -0.287,-0.25 -0.25,-0.367 -0.521,-0.611 0.055,0.101 -0.081,0.003 0.078,0.19 -0.088,-0.084 -0.171,-0.156 -0.157,-0.173 -0.014,-0.008 -0.033,-0.025 -0.054,-0.047 -0.023,-0.026 -0.051,-0.057 -0.08,-0.091 -0.026,-0.048 -0.054,-0.099 -0.079,-0.146 -0.025,-0.042 -0.05,-0.078 -0.074,-0.1 -0.017,-0.051 0.003,-0.083 -0.074,-0.196 -0.014,-0.009 -0.014,0.009 -0.014,0.009 0.014,-0.009 -0.099,-0.192 -0.003,-0.111 -0.065,-0.058 -0.128,-0.133 -0.191,-0.219 -0.032,-0.042 -0.063,-0.087 -0.094,-0.134 -0.029,-0.043 -0.057,-0.087 -0.086,-0.132 -0.05,-0.044 -0.101,-0.089 -0.15,-0.133 -0.053,-0.045 -0.105,-0.09 -0.155,-0.133 -0.1,-0.083 -0.196,-0.153 -0.28,-0.194 -0.108,-0.1 -0.228,-0.21 -0.336,-0.311 -0.052,-0.149 -0.099,-0.285 -0.14,-0.403 -0.004,0.018 -0.015,0.007 0.004,0.048 -0.143,-0.302 0.016,-0.224 -0.146,-0.569 -0.116,-0.163 0.043,0.199 -0.017,0.093 -0.034,-0.004 -0.06,-0.04 -0.083,-0.096 -0.012,-0.027 -0.023,-0.06 -0.035,-0.095 -0.009,-0.032 -0.026,-0.085 -0.027,-0.096 -0.003,-0.008 -0.022,-0.037 -0.041,-0.064 L -20.51,2.789 C -20.548,2.738 -20.589,2.69 -20.633,2.654 l 0.032,0.053 c -0.145,-0.135 -0.251,-0.406 -0.447,-0.658 0,0 0.002,0.018 -0.012,0.011 -0.005,-0.016 -0.019,-0.043 -0.042,-0.081 -0.011,-0.061 -0.024,-0.132 -0.038,-0.208 -0.014,-0.069 -0.031,-0.143 -0.049,-0.218 -0.037,-0.15 -0.08,-0.306 -0.116,-0.441 -0.01,0.103 0.022,0.139 -0.036,0.097 -0.037,-0.133 0.076,0.017 0.003,-0.248 -0.021,-0.035 -0.044,-0.078 -0.075,-0.137 -0.027,-0.083 -0.054,-0.146 -0.083,-0.16 l 0.025,0.174 0.031,0.099 c -0.01,-0.012 -0.02,-0.024 -0.028,-0.038 -0.008,-0.013 -0.016,-0.028 -0.027,-0.056 -0.003,-0.019 -0.007,-0.038 -0.011,-0.058 l -0.007,-0.048 c -0.003,-0.032 -0.005,-0.066 -0.007,-0.099 -0.003,-0.066 -0.006,-0.13 -0.018,-0.182 l -0.023,0.021 c -0.049,-0.383 0.009,-0.412 -0.051,-0.801 -0.001,-0.005 -0.003,-0.013 -0.005,-0.02 0.005,0.008 0.01,0.013 0.015,0.018 0.004,0.004 0.007,0.007 0.011,0.014 0.001,-0.009 0.002,-0.013 0.003,-0.017 0,-0.212 -0.083,-0.166 -0.092,-0.394 l -0.08,-0.052 c -0.024,-0.152 -0.064,-0.539 -0.131,-0.807 0.003,0.161 0.05,0.482 0.073,0.682 -0.038,-0.147 -0.118,-0.503 -0.111,-0.587 0.013,0.06 0.013,0.14 0.038,0.196 0.009,-0.196 -0.046,-0.436 -0.131,-0.727 -0.034,0.028 -0.073,-0.042 -0.116,-0.156 -0.021,-0.057 -0.043,-0.125 -0.066,-0.196 -0.026,-0.082 -0.053,-0.168 -0.079,-0.251 0.004,-0.03 0.009,-0.06 0.014,-0.089 0.002,-0.02 0.005,-0.04 0.008,-0.059 0.004,-0.038 0.008,-0.075 0.011,-0.109 0.004,-0.068 0.004,-0.126 -0.006,-0.167 0.035,-0.128 0.063,-0.257 0.088,-0.388 0.011,-0.066 0.022,-0.131 0.034,-0.198 0.011,-0.071 0.022,-0.142 0.033,-0.215 0.045,-0.138 0.09,-0.279 0.136,-0.424 0.046,-0.141 0.095,-0.285 0.15,-0.434 0.017,0.242 0.065,-0.171 0.146,-0.101 0.024,-0.061 0.04,-0.104 0.052,-0.132 0.003,-0.022 0.006,-0.052 0.003,-0.056 l -10e-4,0.031 c 10e-4,-0.014 10e-4,-0.021 10e-4,-0.032 v 0 l 0.011,-0.445 c -0.012,-0.108 -0.044,0.133 -0.064,0.116 0.044,-0.316 -0.02,-0.139 -0.013,-0.352 0.029,0.049 0.068,-0.101 0.084,-0.283 l 0.005,0.26 c 0.059,-0.208 0.055,-0.295 0.053,-0.405 0.008,-0.122 0.004,-0.208 0.09,-0.435 l -0.065,0.13 c 0.029,-0.086 0.068,-0.233 0.112,-0.391 0.023,-0.079 0.047,-0.16 0.07,-0.239 0.013,-0.039 0.025,-0.078 0.037,-0.115 0.015,-0.041 0.029,-0.08 0.042,-0.117 0.017,-0.038 0.022,-0.043 0.032,-0.062 0.01,-0.015 0.019,-0.029 0.027,-0.043 0.018,-0.028 0.035,-0.051 0.052,-0.07 0.004,-0.042 -0.001,-0.102 -0.046,-0.011 0.056,-0.149 0.124,-0.304 0.195,-0.46 0.074,-0.16 0.149,-0.323 0.22,-0.477 0.04,-0.055 0.079,-0.108 0.117,-0.159 0.033,-0.048 0.066,-0.094 0.097,-0.139 0.062,-0.091 0.115,-0.177 0.157,-0.259 l -0.043,0.022 c 0.063,-0.082 0.138,-0.123 0.19,-0.244 -0.013,0 -0.044,0.021 -0.018,-0.019 0.012,-0.014 0.038,-0.043 0.071,-0.079 0.015,-0.019 0.032,-0.039 0.05,-0.06 0.019,-0.023 0.031,-0.036 0.063,-0.081 0.023,-0.021 0.046,-0.043 0.068,-0.063 0.017,-0.017 0.033,-0.034 0.047,-0.05 l -0.104,0.062 c 0.368,-0.398 0.641,-0.527 0.98,-0.825 -0.05,-0.052 0.242,-0.357 0.388,-0.509 l -0.013,-0.002 c 0.111,-0.106 0.216,-0.201 0.319,-0.29 0.098,-0.094 0.194,-0.181 0.289,-0.266 0.096,-0.085 0.19,-0.168 0.288,-0.254 0.048,-0.044 0.097,-0.087 0.147,-0.132 0.025,-0.023 0.05,-0.046 0.076,-0.069 0.028,-0.027 0.058,-0.055 0.087,-0.082 0.011,-0.007 0.023,-0.015 0.036,-0.023 0.085,-0.089 0.224,-0.198 0.388,-0.317 0.083,-0.059 0.171,-0.121 0.262,-0.185 0.1,-0.07 0.204,-0.142 0.307,-0.213 0.12,-0.033 0.239,-0.067 0.354,-0.099 0.103,-0.03 0.202,-0.061 0.293,-0.092 -0.082,0.035 0.029,0.05 0.13,0.032 0.128,-0.049 0.376,-0.047 0.338,-0.105 l -0.046,0.013 c 0.012,-0.013 0.03,-0.026 0.051,-0.038 0.01,-0.006 0.021,-0.012 0.033,-0.018 0.016,-0.006 0.008,-0.006 0.013,-0.01 -0.007,-10e-4 0.036,-0.027 0.065,-0.045 0.033,-0.019 0.067,-0.039 0.102,-0.059 0.07,-0.038 0.143,-0.078 0.209,-0.114 l 0.073,0.058 c 0.076,-0.067 0.166,-0.131 0.264,-0.192 0.049,-0.031 0.099,-0.062 0.151,-0.091 0.057,-0.032 0.115,-0.063 0.173,-0.095 l 0.178,-0.057 c 0.054,-0.017 0.108,-0.033 0.161,-0.049 0.106,-0.033 0.209,-0.065 0.303,-0.094 0.189,-0.061 0.345,-0.122 0.429,-0.19 0.022,-0.004 0.027,-0.004 0.072,-0.016 0.065,-0.008 0.136,-0.017 0.206,-0.025 0.066,-0.008 0.131,-0.016 0.191,-0.018 l -0.017,-0.044 c 0.148,-0.033 0.266,-0.06 0.387,-0.087 0.061,-0.013 0.122,-0.026 0.189,-0.04 0.075,-0.014 0.156,-0.03 0.247,-0.048 0.053,0.005 0.15,0.014 0.26,0.024 l -0.093,-0.04 c 0.265,0.017 0.325,0.158 0.569,0.178 l 0.078,-0.063 0.201,0.012 0.21,0.008 0.257,0.036 0.245,0.039 c 0.162,0.028 0.323,0.064 0.48,0.115 -0.006,-0.012 -0.016,-0.034 -0.089,-0.05 0.063,0.01 0.162,0.024 0.268,0.04 0.06,0.003 0.121,0.006 0.179,0.009 0.061,0.004 0.119,0.01 0.167,0.017 0.095,0.013 0.151,0.034 0.121,0.065 0.011,-0.061 0.48,0.026 0.727,0.076 l -0.034,-0.051 c 0.205,0.085 0.21,0.101 0.501,0.154 0.07,0.003 0.065,-0.028 -0.028,-0.028 0.234,0.005 0.175,0.065 0.459,0.076 l -0.101,-0.042 c 0.116,0.013 0.171,0.023 0.211,0.035 0.04,0.012 0.064,0.027 0.146,0.054 0.001,10e-4 0.005,0.005 0.008,0.008 0.02,0.014 0.041,0.03 0.065,0.048 0.019,0.012 0.039,0.025 0.06,0.039 0.043,0.027 0.089,0.053 0.134,0.076 0.089,0.045 0.17,0.076 0.196,0.068 0.013,0.039 0.105,0.138 0.23,0.205 0.025,-0.003 -0.013,-0.039 -0.032,-0.056 0.082,0.044 0.151,0.088 0.212,0.13 0.031,0.022 0.059,0.042 0.087,0.062 l 0.039,0.03 0.023,0.019 c 0.013,0.007 0.05,0.02 0.083,0.031 0.033,0.011 0.065,0.022 0.098,0.032 0.065,0.019 0.131,0.034 0.206,0.041 0.009,-0.013 0.028,-0.016 0.052,-0.015 -0.181,-0.045 -0.339,-0.086 -0.43,-0.109 -0.018,-0.011 -0.032,-0.02 -0.041,-0.025 -0.013,-0.008 -0.018,-0.01 -0.014,-0.007 0.008,-0.016 0.065,0.006 0.071,-0.004 0.011,-0.004 0.015,-0.01 0.021,-0.017 0.004,-0.008 -0.001,-0.02 10e-4,-0.032 0,-0.003 0.001,-0.007 0.002,-0.013 l 10e-4,0.006 c 0,0.002 0.001,0.005 0.002,0.008 0.013,0.005 0.025,0.011 0.038,0.017 0.028,0.012 0.056,0.025 0.086,0.038 0.06,0.025 0.123,0.052 0.188,0.079 0.129,0.052 0.264,0.099 0.382,0.12 0.012,-0.001 0.025,-0.002 0.035,-0.005 l -0.024,-0.012 c 0.057,0.011 0.107,0.028 0.152,0.047 0.039,0.007 0.072,0.013 0.104,0.019 0.036,0.007 0.049,0.009 0.123,0.028 0.013,-0.004 0.045,-10e-4 0.091,0.008 0.027,0.027 0.06,0.063 0.097,0.105 0.02,0.025 0.043,0.051 0.066,0.078 0.044,0.054 0.09,0.109 0.122,0.148 -0.042,0.021 0.071,0.145 -0.059,0.049 0.016,0.014 -0.011,-0.022 -0.065,-0.088 -0.011,-0.016 -0.025,-0.034 -0.031,-0.045 0,0.003 10e-4,0.006 0.002,0.009 l -0.167,-0.202 -0.14,-0.038 c 0.029,0.016 0.087,0.039 0.13,0.055 0.015,0.022 0.031,0.044 0.047,0.067 0.014,0.018 0.029,0.037 0.044,0.056 0.026,0.032 0.057,0.063 0.095,0.094 0.02,0.07 0.043,0.145 0.058,0.185 0.162,0.093 0.407,0.33 0.467,0.341 0.041,0.054 0.084,0.112 0.129,0.171 0.062,0.053 0.125,0.107 0.187,0.16 0.067,0.058 0.132,0.116 0.195,0.17 0.122,0.112 0.226,0.218 0.284,0.307 0.081,0.077 0.115,0.059 0.156,0.074 -0.046,-0.047 -0.106,-0.093 -0.126,-0.124 0.156,0.161 0.527,0.392 0.533,0.474 0.245,0.14 -0.096,-0.135 0.213,0.094 l -0.032,-0.044 c 0.082,0.043 0.157,0.088 0.228,0.134 0.035,0.025 0.069,0.048 0.103,0.071 0.042,0.031 0.083,0.062 0.124,0.092 l 0.051,0.095 0.032,0.065 0.06,0.129 c 0.038,0.087 0.077,0.173 0.115,0.261 0.077,0.171 0.168,0.361 0.274,0.531 0.074,0.069 0.182,0.162 0.291,0.241 -0.046,-0.036 -0.07,-0.053 -0.085,-0.055 0.112,0.099 0.222,0.202 0.331,0.306 l 0.162,0.16 0.17,0.17 c 0.225,0.359 0.413,0.676 0.643,1.03 l 0.068,0.209 0.068,0.195 c 0.046,0.13 0.095,0.257 0.147,0.382 0.075,0.196 0.074,0.258 0.082,0.364 0,0.028 0.001,0.061 0.001,0.1 l 0.061,0.046 0.006,0.286 c 0.048,0.397 0.265,0.645 0.31,1.152 L 0.408,-4.62 c 0.049,0.175 0.116,0.562 0.146,0.523 -0.001,0.02 -0.019,0.066 0.014,0.131 l 0.027,-10e-4 0.009,0.066 0.014,0.087 z"
             style="fill:#050606;fill-opacity:1;fill-rule:nonzero;stroke:none"
             id="path887" />
        </g>
        <g
           id="g889"
           transform="translate(165.027,448.453)">
          <path
             d="m 0,0 c 0.02,0.091 0.02,0.186 0.041,0.278 0.07,0.301 0.182,0.594 0.305,0.877 0.172,0.395 0.319,0.793 0.428,1.21 0.03,0.112 0.043,0.227 0.07,0.34 C 0.873,2.822 0.929,2.931 0.958,3.048 0.985,3.155 0.99,3.263 1.022,3.368 1.058,3.487 1.11,3.6 1.154,3.716 1.202,3.846 1.239,3.977 1.252,4.115 1.259,4.2 1.248,4.276 1.271,4.357 c 0.04,0.145 0.123,0.284 0.173,0.427 0.021,0.06 0.02,0.113 0.039,0.171 0.036,0.107 0.103,0.213 0.151,0.316 0.044,0.095 0.082,0.193 0.13,0.287 0.077,0.147 0.172,0.259 0.295,0.368 0.032,0.029 0.071,0.051 0.104,0.078 0.007,0.01 0.013,0.02 0.02,0.03 0,0.014 -10e-4,0.027 0.02,0.03 0.049,0.075 0.099,0.148 0.153,0.218 0.043,0.055 0.088,0.077 0.145,0.111 0.026,0.016 0.045,0.033 0.064,0.058 0.1,0.126 0.163,0.288 0.249,0.424 0.109,0.172 0.22,0.354 0.367,0.497 0.155,0.15 0.326,0.282 0.478,0.437 C 4.001,8.155 4.365,8.46 4.78,8.715 4.9,8.788 5.011,8.87 5.127,8.948 5.175,8.98 5.201,8.981 5.249,8.981 5.217,8.967 5.179,8.958 5.153,8.953 5.18,8.958 5.231,8.967 5.265,8.981 5.261,8.981 5.256,8.982 5.252,8.982 5.406,9.053 5.166,9.155 5.107,9.185 5.03,9.224 4.956,9.27 4.878,9.306 4.719,9.378 4.545,9.397 4.376,9.433 4.261,9.458 4.153,9.484 4.035,9.482 3.972,9.482 3.909,9.476 3.847,9.464 3.751,9.446 3.661,9.416 3.563,9.414 3.407,9.41 3.251,9.451 3.098,9.475 2.924,9.504 2.748,9.526 2.572,9.524 2.278,9.52 1.985,9.521 1.691,9.523 1.449,9.525 1.215,9.497 0.975,9.464 0.711,9.428 0.482,9.317 0.233,9.224 -0.531,8.942 -1.219,8.483 -1.877,8.011 -2.168,7.803 -2.459,7.589 -2.688,7.311 -2.853,7.109 -3.011,6.897 -3.171,6.691 -3.343,6.468 -3.478,6.231 -3.608,5.983 -3.636,5.931 -3.667,5.881 -3.705,5.835 -3.76,5.768 -3.828,5.712 -3.877,5.64 -4.039,5.404 -4.072,5.089 -4.181,4.827 -4.275,4.598 -4.352,4.377 -4.409,4.135 -4.452,3.955 -4.493,3.775 -4.535,3.595 -4.63,3.193 -4.625,2.786 -4.665,2.377 -4.703,1.996 -4.738,1.62 -4.733,1.237 -4.73,1.026 -4.711,0.816 -4.707,0.605 c 0.003,-0.208 0.005,-0.412 0.033,-0.619 0.056,-0.425 0.185,-0.833 0.274,-1.251 0.038,-0.181 0.039,-0.368 0.087,-0.548 0.043,-0.165 0.113,-0.342 0.196,-0.492 0.053,-0.095 0.124,-0.179 0.177,-0.274 0.055,-0.099 0.13,-0.38 0.277,-0.373 0.033,10e-4 0.058,0.022 0.079,0.045 0.036,0.038 0.056,0.086 0.095,0.123 0.05,0.047 0.108,0.096 0.162,0.14 0.03,0.024 0.072,0.036 0.097,0.066 0.035,0.041 0.051,0.07 0.098,0.105 0.109,0.082 0.224,0.156 0.347,0.213 0.113,0.053 0.219,0.112 0.33,0.169 0.096,0.048 0.164,0.07 0.269,0.094 0.155,0.035 0.331,0.084 0.463,0.181 0.051,0.037 0.097,0.08 0.149,0.116 0.179,0.121 0.381,0.205 0.565,0.319 0.276,0.173 0.483,0.429 0.675,0.691 0.079,0.194 0.19,0.369 0.285,0.557 C -0.028,-0.09 -0.01,-0.046 0,0"
             style="fill:#050606;fill-opacity:1;fill-rule:nonzero;stroke:none"
             id="path891" />
        </g>
        <g
           id="g893"
           transform="translate(169.288,451.81)">
          <path
             d="M 0,0 C -0.006,-0.003 -0.012,-0.006 -0.018,-0.008 L 0.23,0.057 C 0.225,0.056 0.219,0.055 0.213,0.054 0.139,0.04 0.069,0.03 0,0"
             style="fill:#050606;fill-opacity:1;fill-rule:nonzero;stroke:none"
             id="path895" />
        </g>
        <g
           id="g897"
           transform="translate(172.929,439.688)">
          <path
             d="M 0,0 C 0.007,0.01 0.01,0.017 0.02,0.029 0.006,0.018 -0.007,0.008 -0.021,-0.003 -0.024,-0.014 -0.026,-0.025 -0.029,-0.036 -0.019,-0.024 -0.009,-0.011 0,0"
             style="fill:#050606;fill-opacity:1;fill-rule:nonzero;stroke:none"
             id="path899" />
        </g>
        <g
           id="g901"
           transform="translate(173.556,458.656)">
          <path
             d="m 0,0 c 0.009,-0.004 0.017,-0.009 0.021,-0.013 -0.006,0.004 -0.006,0.006 -0.01,0.009 z"
             style="fill:#050606;fill-opacity:1;fill-rule:nonzero;stroke:none"
             id="path903" />
        </g>
        <g
           id="g905"
           transform="translate(177.435,453.446)">
          <path
             d="M 0,0 C -0.001,0.422 -0.028,-0.091 -0.077,0.342 L -0.048,0.011 C -0.037,0.071 -0.024,0.149 0,0"
             style="fill:#050606;fill-opacity:1;fill-rule:nonzero;stroke:none"
             id="path907" />
        </g>
        <g
           id="g909"
           transform="translate(176.871,454.718)">
          <path
             d="M 0,0 C -0.08,0.081 -0.1,0.101 -0.033,-0.015 0.08,-0.154 -0.014,0.002 0,0"
             style="fill:#050606;fill-opacity:1;fill-rule:nonzero;stroke:none"
             id="path911" />
        </g>
        <g
           id="g913"
           transform="translate(171.609,459.768)">
          <path
             d="M 0,0 0.026,0.014 0.045,0.021 C 0.041,0.024 0.037,0.027 0.036,0.028 -0.114,0.096 0.029,0.013 0,0"
             style="fill:#050606;fill-opacity:1;fill-rule:nonzero;stroke:none"
             id="path915" />
        </g>
        <g
           id="g917"
           transform="translate(169.513,460.528)">
          <path
             d="M 0,0 C -0.037,0.003 -0.074,0.005 -0.11,0.007 -0.094,0.006 -0.077,0.003 -0.06,0.002 Z"
             style="fill:#050606;fill-opacity:1;fill-rule:nonzero;stroke:none"
             id="path919" />
        </g>
        <g
           id="g921"
           transform="translate(158.312,456.608)">
          <path
             d="M 0,0 0.065,-0.012 C 0.13,0.056 0.107,0.112 0,0"
             style="fill:#050606;fill-opacity:1;fill-rule:nonzero;stroke:none"
             id="path923" />
        </g>
        <g
           id="g925"
           transform="translate(156.12,451.719)">
          <path
             d="m 0,0 c -0.003,-0.006 -0.007,-0.013 -0.01,-0.017 -0.033,-0.046 -0.078,-0.178 -0.076,-0.263 0.029,0.102 0.073,0.211 0.085,0.262 C -0.001,-0.01 0,-0.005 0,0"
             style="fill:#050606;fill-opacity:1;fill-rule:nonzero;stroke:none"
             id="path927" />
        </g>
        <g
           id="g929"
           transform="translate(162.953,438.764)">
          <path
             d="M 0,0 0.186,-0.086 0.103,-0.037 Z"
             style="fill:#050606;fill-opacity:1;fill-rule:nonzero;stroke:none"
             id="path931" />
        </g>
      </g>
    </g>
  </g>
</svg>
