<?xml version="1.0" encoding="UTF-8" standalone="no"?>
<!-- Created with Inkscape (http://www.inkscape.org/) -->

<svg
   width="23.788876"
   height="24"
   viewBox="0 0 6.2941399 6.35"
   version="1.1"
   id="svg40668"
   inkscape:version="1.2.1 (9c6d41e4, 2022-07-14)"
   sodipodi:docname="cult-of-the-yellow-sign.svg"
   xmlns:inkscape="http://www.inkscape.org/namespaces/inkscape"
   xmlns:sodipodi="http://sodipodi.sourceforge.net/DTD/sodipodi-0.dtd"
   xmlns="http://www.w3.org/2000/svg"
   xmlns:svg="http://www.w3.org/2000/svg">
  <sodipodi:namedview
     id="namedview40670"
     pagecolor="#505050"
     bordercolor="#eeeeee"
     borderopacity="1"
     inkscape:showpageshadow="0"
     inkscape:pageopacity="0"
     inkscape:pagecheckerboard="0"
     inkscape:deskcolor="#505050"
     inkscape:document-units="mm"
     showgrid="false"
     inkscape:zoom="0.2102413"
     inkscape:cx="11.891098"
     inkscape:cy="14.269318"
     inkscape:window-width="1309"
     inkscape:window-height="456"
     inkscape:window-x="0"
     inkscape:window-y="25"
     inkscape:window-maximized="0"
     inkscape:current-layer="layer1" />
  <defs
     id="defs40665">
    <clipPath
       clipPathUnits="userSpaceOnUse"
       id="clipPath1679">
      <path
         d="m 409.295,287.799 h 24.699 v 24.699 h -24.699 z"
         id="path1677" />
    </clipPath>
  </defs>
  <g
     inkscape:label="Layer 1"
     inkscape:groupmode="layer"
     id="layer1"
     transform="translate(-101.38628,-144.77084)">
    <g
       id="g1673"
       transform="matrix(0.30035472,0,0,-0.30035472,-22.068148,238.39942)"
       style="fill:#000000">
      <g
         id="g1675"
         clip-path="url(#clipPath1679)"
         style="fill:#000000">
        <g
           id="g1681"
           transform="translate(419.92,305.424)"
           style="fill:#000000">
          <path
             d="m 0,0 c 0.045,-0.006 0.091,-0.013 0.136,-0.02 0.209,-0.037 0.417,-0.035 0.629,-0.033 0.169,0.001 0.402,-0.075 0.549,0.019 0.048,0.031 0.094,0.092 0.138,0.131 0.075,0.067 0.162,0.108 0.223,0.192 0.033,0.046 0.042,0.098 0.081,0.143 0.035,0.042 0.07,0.041 0.112,0.063 C 1.901,0.388 1.835,0.252 1.886,0.149 1.908,0.106 1.95,0.086 1.991,0.067 2.035,0.046 2.069,0.021 2.108,-0.006 2.143,-0.031 2.168,-0.036 2.21,-0.03 2.225,-0.028 2.38,0.01 2.375,0.027 2.4,-0.053 2.382,-0.171 2.382,-0.253 v -0.452 c 0,-0.053 0.027,-0.183 -0.005,-0.228 C 2.329,-1 2.151,-1 2.088,-0.97 1.983,-0.973 1.872,-0.985 1.781,-1.041 1.729,-1.072 1.667,-1.144 1.631,-1.193 1.591,-1.249 1.6,-1.314 1.566,-1.371 c -0.011,0.013 -0.024,0.027 -0.031,0.043 -0.008,0.019 -0.002,0.044 -0.01,0.06 -0.018,0.033 -0.105,0.074 -0.142,0.084 -0.061,0.017 -0.129,0.017 -0.192,0.029 -0.076,0.016 -0.155,0.021 -0.23,0.041 -0.097,0.025 -0.197,0.065 -0.297,0.03 -0.183,-0.063 -0.318,-0.051 -0.493,0.02 -0.03,0.011 -0.062,0.022 -0.094,0.017 -0.06,-0.01 -0.094,-0.063 -0.123,-0.111 -0.035,-0.057 -0.065,-0.159 -0.132,-0.182 -0.077,-0.027 -0.2,-0.002 -0.281,-0.002 -0.062,0 -0.158,-0.015 -0.211,0.026 -0.042,0.032 -0.004,0.003 -0.025,0.055 -0.005,0.013 -0.022,0.057 -0.025,0.071 -0.025,0.143 -0.031,0.265 -0.082,0.403 -0.038,0.099 -0.043,0.179 -0.008,0.279 0.032,0.087 0.043,0.167 0.038,0.261 -0.004,0.063 -0.034,0.181 0.008,0.237 0.043,0.057 0.184,0.061 0.249,0.06 0.022,0 0.041,-0.004 0.062,-0.008 C -0.397,0.03 -0.344,0.027 -0.287,0.025 -0.191,0.02 -0.095,0.012 0,0"
             style="fill:#000000;fill-opacity:1;fill-rule:nonzero;stroke:none"
             id="path1683" />
        </g>
        <g
           id="g1685"
           transform="translate(419.225,301.856)"
           style="fill:#000000">
          <path
             d="m 0,0 c -0.054,-0.051 -0.041,-0.104 -0.04,-0.162 0.002,-0.08 -0.004,-0.16 -0.001,-0.24 0.002,-0.057 -0.003,-0.067 0.086,-0.093 0.1,-0.029 0.225,-0.042 0.329,-0.034 0.025,0.002 0.048,0.008 0.071,0.017 0.052,0.02 0.092,0.039 0.149,0.041 0.176,0.005 0.353,-0.001 0.529,-0.001 0.098,0.001 0.191,0 0.289,-0.014 0.072,-0.011 0.143,-0.027 0.216,-0.026 0.078,0 0.152,-0.016 0.23,-0.021 0.049,-0.004 0.081,-0.006 0.128,-0.029 0.047,-0.024 0.101,-0.044 0.147,-0.07 0.044,-0.025 0.08,-0.064 0.12,-0.093 0.023,-0.017 0.047,-0.03 0.07,-0.047 0.015,-0.011 0.042,-0.047 0.056,-0.053 0.032,-0.013 0.01,-0.003 0.04,0.012 0.024,0.012 0.048,0.037 0.067,0.055 0.055,0.054 0.08,0.119 0.143,0.165 0.025,0.018 0.044,0.037 0.066,0.056 0.034,0.028 0.044,0.015 0.08,0.026 0.039,0.011 0.076,0.058 0.103,0.087 0.06,0.063 0.042,0.112 0.056,0.188 0.019,0.104 0.048,0.208 0.064,0.312 C 3.01,0.153 3.04,0.269 3,0.345 2.923,0.353 2.845,0.359 2.767,0.363 2.742,0.365 2.686,0.356 2.664,0.366 2.637,0.379 2.642,0.402 2.63,0.426 2.616,0.453 2.594,0.458 2.573,0.484 2.536,0.527 2.517,0.587 2.496,0.639 2.48,0.679 2.464,0.769 2.429,0.796 2.355,0.856 2.249,0.726 2.2,0.671 2.14,0.602 2.101,0.517 2.023,0.465 1.973,0.432 1.91,0.41 1.855,0.389 1.714,0.337 1.534,0.364 1.39,0.364 1.201,0.363 1.013,0.364 0.825,0.38 0.759,0.386 0.701,0.388 0.639,0.364 0.614,0.354 0.599,0.348 0.571,0.347 0.408,0.337 0.243,0.36 0.079,0.346 -0.028,0.337 -0.001,0.309 0,0.243 0.001,0.162 0,0.081 0,0"
             style="fill:#000000;fill-opacity:1;fill-rule:nonzero;stroke:none"
             id="path1687" />
        </g>
        <g
           id="g1689"
           transform="translate(422.301,305.395)"
           style="fill:#000000">
          <path
             d="M 0,0 C 0.007,0.006 0.015,0.011 0.022,0.016 0.017,-0.139 0.021,-0.293 0.021,-0.448 v -1.394 c 0,-0.866 0.002,-1.732 -0.002,-2.597 C 0.018,-4.712 0.048,-4.985 0.064,-5.257 0.07,-5.368 0.074,-5.48 0.077,-5.592 0.08,-5.726 0.085,-5.857 0.054,-5.987 0.027,-6.107 0.056,-6.196 0.101,-6.306 0.125,-6.364 0.135,-6.417 0.128,-6.482 0.118,-6.572 0.09,-6.636 0.131,-6.723 c 0.034,-0.071 0.078,-0.146 0.127,-0.205 0.023,-0.028 0.05,-0.039 0.074,-0.065 0.037,-0.04 0.056,-0.085 0.1,-0.122 0.086,-0.07 0.216,-0.147 0.268,-0.248 0.04,-0.079 0.079,-0.145 0.176,-0.131 -0.186,-0.002 -0.373,0.01 -0.559,10e-4 -0.1,-0.005 -0.198,-0.041 -0.296,-0.047 -0.124,-0.007 -0.24,-0.015 -0.363,-0.043 -0.135,-0.03 -0.272,-0.032 -0.407,-0.06 -0.117,-0.023 -0.223,-0.065 -0.337,-0.094 -0.053,-0.013 -0.095,-0.031 -0.145,-0.055 -0.071,-0.033 -0.148,-0.045 -0.221,-0.069 -0.072,-0.023 -0.156,-0.076 -0.234,-0.047 0.006,0.031 0.107,0.074 0.131,0.096 0.064,0.056 0.094,0.116 0.125,0.196 0.033,0.085 0.043,0.169 0.09,0.246 0.033,0.052 0.07,0.097 0.08,0.16 0.008,0.052 0.02,0.086 0.042,0.134 0.069,0.142 0.123,0.285 0.178,0.434 0.058,0.154 0.073,0.278 0.052,0.44 -0.014,0.105 -0.053,0.204 -0.075,0.307 -0.021,0.101 -0.009,0.193 -0.002,0.295 0.004,0.065 -0.003,0.128 -0.007,0.192 -0.028,0.426 -0.016,0.857 -0.016,1.283 0,0.572 0.016,1.13 -0.033,1.7 -0.008,0.092 -0.012,0.183 0.007,0.274 0.037,0.171 0.096,0.316 0.099,0.497 0.011,0.524 -0.004,1.051 -0.004,1.575 0,0.123 -0.008,0.25 0.003,0.372 0.011,0.124 0.033,0.234 0.032,0.358 -0.001,0.155 0.003,0.311 0,0.467 -0.001,0.07 -0.019,0.13 0.05,0.151 0.04,0.012 0.111,-0.003 0.153,-0.003 h 0.286 c 0.092,0 0.184,10e-4 0.276,0 0.07,-0.001 0.076,0.014 0.101,-0.051 0.084,-0.219 0.036,-0.54 0.034,-0.776 0,-0.078 0.017,-0.152 0.035,-0.227 C -0.036,0.154 -0.033,0.038 0,0"
             style="fill:#000000;fill-opacity:1;fill-rule:nonzero;stroke:none"
             id="path1691" />
        </g>
        <g
           id="g1693"
           transform="translate(421.341,294.219)"
           style="fill:#000000">
          <path
             d="m 0,0 c -0.099,0.014 -0.197,0.052 -0.289,0.096 -0.089,0.042 -0.162,0.103 -0.222,0.182 -0.076,0.101 -0.134,0.216 -0.195,0.326 -0.097,0.175 -0.151,0.369 -0.245,0.543 -0.039,0.072 -0.09,0.134 -0.136,0.201 -0.076,0.108 -0.103,0.239 -0.149,0.361 -0.028,0.075 -0.072,0.149 -0.075,0.229 -0.001,0.036 0.005,0.073 0.003,0.11 -0.004,0.085 -0.011,0.172 0.005,0.256 0.032,0.17 0.142,0.294 0.243,0.427 0.084,0.11 0.189,0.23 0.324,0.277 0.059,0.02 0.105,0.057 0.157,0.089 0.044,0.026 0.064,0.027 0.113,0.038 0.034,0.008 0.07,0.028 0.098,0.045 0.034,0.02 0.054,0.044 0.092,0.059 0.067,0.027 0.152,0.043 0.229,0.066 0.138,0.041 0.246,0.109 0.373,0.177 0.083,0.045 0.14,0.1 0.214,0.151 C 0.724,3.505 0.866,3.333 1.07,3.237 1.187,3.181 1.291,3.2 1.415,3.184 1.519,3.171 1.644,3.083 1.725,3.019 1.827,2.938 1.906,2.847 1.997,2.756 2.039,2.714 2.049,2.663 2.082,2.614 2.099,2.589 2.126,2.574 2.142,2.549 2.16,2.521 2.152,2.496 2.164,2.465 2.179,2.425 2.218,2.395 2.239,2.36 2.279,2.295 2.266,2.223 2.266,2.148 2.266,2.062 2.296,1.905 2.204,1.85 2.176,1.833 2.147,1.841 2.117,1.835 2.028,1.819 1.971,1.73 1.914,1.664 1.816,1.551 1.75,1.411 1.672,1.284 1.593,1.156 1.484,1.039 1.388,0.924 1.293,0.811 1.22,0.715 1.103,0.622 1.018,0.554 0.916,0.479 0.874,0.374 0.848,0.308 0.829,0.283 0.769,0.238 0.717,0.199 0.662,0.163 0.601,0.141 0.483,0.096 0.359,0.068 0.241,0.023 0.161,-0.007 0.08,-0.011 0,0 m 0.711,-0.657 c 0.044,0.016 0.089,0.034 0.134,0.049 0.209,0.075 0.481,0.067 0.663,0.204 0.121,0.09 0.185,0.22 0.245,0.353 C 1.838,0.139 1.985,0.293 2.1,0.463 2.191,0.597 2.302,0.728 2.403,0.854 2.496,0.97 2.612,1.069 2.702,1.187 2.801,1.318 2.801,1.49 2.826,1.645 2.857,1.841 3,2.017 3.018,2.212 3.028,2.321 3.045,2.441 3.041,2.55 3.035,2.72 2.936,2.822 2.873,2.97 2.826,3.079 2.804,3.166 2.724,3.26 2.567,3.445 2.368,3.569 2.16,3.685 2.011,3.768 1.857,3.814 1.7,3.878 1.601,3.919 1.504,3.918 1.398,3.926 1.369,3.928 1.045,3.962 1.176,3.834 1.099,3.84 1.023,3.847 0.947,3.851 0.81,3.859 0.681,3.808 0.562,3.744 0.521,3.721 0.477,3.7 0.432,3.68 0.371,3.732 0.312,3.781 0.233,3.808 0.158,3.835 0.08,3.852 0.004,3.877 -0.153,3.93 -0.304,3.944 -0.467,3.957 -0.599,3.967 -0.732,3.976 -0.864,3.987 -1.041,4.002 -1.2,3.962 -1.354,3.872 -1.536,3.766 -1.668,3.595 -1.793,3.429 -1.926,3.25 -2.061,3.02 -2.117,2.803 -2.141,2.709 -2.176,2.618 -2.192,2.522 -2.206,2.432 -2.207,2.341 -2.213,2.25 -2.223,2.115 -2.258,1.975 -2.214,1.843 c 0.02,-0.06 0.037,-0.11 0.042,-0.175 0.012,-0.174 0.097,-0.289 0.189,-0.432 0.081,-0.126 0.126,-0.266 0.198,-0.394 0.061,-0.11 0.162,-0.185 0.211,-0.302 0.036,-0.085 0.092,-0.148 0.133,-0.229 0.043,-0.084 0.109,-0.169 0.168,-0.242 0.097,-0.122 0.207,-0.238 0.332,-0.332 0.102,-0.077 0.215,-0.134 0.316,-0.213 0.215,-0.169 0.519,-0.23 0.786,-0.248 0.119,-0.009 0.231,-0.026 0.349,0.003 0.068,0.016 0.134,0.04 0.201,0.064"
             style="fill:#000000;fill-opacity:1;fill-rule:nonzero;stroke:none"
             id="path1695" />
        </g>
        <g
           id="g1697"
           transform="translate(429.081,299.039)"
           style="fill:#000000">
          <path
             d="M 0,0 C -0.016,-0.116 -0.038,-0.231 -0.065,-0.344 -0.102,-0.495 -0.169,-0.643 -0.216,-0.792 -0.241,-0.875 -0.274,-0.958 -0.286,-1.045 -0.296,-1.12 -0.287,-1.193 -0.314,-1.265 -0.352,-1.369 -0.405,-1.469 -0.443,-1.573 -0.5,-1.724 -0.516,-1.886 -0.574,-2.039 -0.652,-2.249 -0.702,-2.47 -0.774,-2.683 -0.823,-2.826 -0.838,-2.966 -0.912,-3.1 -0.963,-3.192 -0.978,-3.3 -1.028,-3.388 -1.119,-3.547 -1.193,-3.717 -1.313,-3.857 -1.397,-3.955 -1.36,-3.889 -1.427,-3.91 -1.501,-3.933 -1.502,-3.981 -1.537,-4.052 -1.609,-4.197 -1.724,-4.313 -1.826,-4.437 -2.108,-4.778 -2.394,-5.141 -2.733,-5.43 -2.93,-5.597 -3.126,-5.769 -3.314,-5.948 -3.547,-6.171 -3.792,-6.327 -4.056,-6.511 -4.178,-6.597 -4.288,-6.652 -4.43,-6.686 c -0.214,-0.052 -0.42,-0.159 -0.634,-0.219 -0.244,-0.068 -0.475,-0.208 -0.723,-0.26 -0.148,-0.031 -0.327,-0.028 -0.478,-0.042 -0.213,-0.021 -0.385,-0.074 -0.587,0.019 -0.082,0.037 -0.146,0.051 -0.211,0.111 -0.086,0.079 -0.156,0.152 -0.267,0.197 -0.117,0.047 -0.244,0.078 -0.366,0.109 -0.177,0.044 -0.336,0.031 -0.512,-0.003 -0.171,-0.033 -0.324,-0.027 -0.488,0.038 -0.103,0.041 -0.198,0.11 -0.31,0.127 -0.112,0.016 -0.223,-0.008 -0.332,0.036 -0.117,0.046 -0.233,0.104 -0.353,0.154 -0.104,0.042 -0.178,0.131 -0.273,0.191 -0.098,0.062 -0.207,0.096 -0.3,0.165 -0.238,0.177 -0.511,0.353 -0.782,0.474 -0.188,0.085 -0.338,0.199 -0.515,0.301 -0.15,0.086 -0.31,0.155 -0.466,0.23 -0.352,0.17 -0.727,0.343 -1.053,0.559 -0.17,0.112 -0.337,0.233 -0.481,0.376 -0.147,0.146 -0.255,0.332 -0.374,0.5 -0.277,0.391 -0.464,0.835 -0.7,1.251 -0.174,0.306 -0.287,0.651 -0.394,0.985 -0.132,0.417 -0.295,0.824 -0.397,1.25 -0.083,0.345 -0.212,0.669 -0.258,1.023 -0.039,0.298 -0.063,0.607 -0.063,0.908 0,0.297 0.044,0.587 0.069,0.881 0.019,0.223 0.027,0.431 0.083,0.65 0.104,0.407 0.205,0.812 0.366,1.2 0.119,0.287 0.333,0.487 0.492,0.75 0.121,0.201 0.254,0.38 0.392,0.569 0.128,0.178 0.221,0.406 0.391,0.549 0.08,0.068 0.151,0.045 0.239,0.08 0.125,0.049 0.22,0.201 0.316,0.289 0.203,0.186 0.423,0.355 0.65,0.511 0.294,0.201 0.665,0.253 0.972,0.441 0.203,0.125 0.431,0.379 0.694,0.351 -0.059,0.026 -0.097,0.048 -0.159,0.042 0.031,0.037 0.077,0.042 0.115,0.065 0.058,0.035 0.104,0.086 0.152,0.132 0.13,0.124 0.311,0.243 0.47,0.329 0.102,0.056 0.219,0.082 0.326,0.128 0.126,0.053 0.235,0.109 0.369,0.141 0.188,0.045 0.354,0.15 0.54,0.201 0.235,0.063 0.487,0.078 0.729,0.091 0.468,0.025 0.989,0.033 1.421,-0.17 0.143,-0.067 0.286,-0.13 0.43,-0.195 C -6.509,8.748 -6.36,8.651 -6.156,8.631 -5.909,8.607 -5.674,8.54 -5.445,8.445 -5.218,8.35 -4.981,8.287 -4.756,8.19 -4.493,8.077 -4.28,7.906 -4.039,7.759 -3.824,7.628 -3.595,7.523 -3.38,7.392 -3.191,7.276 -2.974,7.13 -2.818,6.973 -2.673,6.827 -2.554,6.648 -2.422,6.491 -2.296,6.341 -2.147,6.221 -2.02,6.075 -1.889,5.926 -1.78,5.752 -1.673,5.586 -1.447,5.238 -1.269,4.865 -1.097,4.487 -0.912,4.079 -0.694,3.685 -0.519,3.271 -0.375,2.929 -0.223,2.555 -0.184,2.184 -0.166,2.007 -0.165,1.819 -0.124,1.646 -0.095,1.527 -0.073,1.403 -0.03,1.287 0.067,1.029 0.057,0.751 0.044,0.479 0.036,0.319 0.023,0.159 0,0 M 1.03,0.79 C 0.954,1.194 0.945,1.605 0.866,2.011 0.746,2.627 0.641,3.248 0.495,3.858 0.374,4.363 0.228,4.871 0.026,5.35 -0.179,5.835 -0.568,6.244 -0.919,6.63 -1.299,7.047 -1.718,7.434 -2.111,7.841 -2.299,8.036 -2.505,8.208 -2.706,8.39 -2.913,8.577 -3.108,8.782 -3.338,8.941 -3.549,9.088 -3.78,9.215 -4.01,9.329 c -0.255,0.126 -0.524,0.27 -0.799,0.344 -0.263,0.071 -0.542,0.089 -0.808,0.144 -0.3,0.062 -0.595,0.143 -0.894,0.21 -0.721,0.162 -1.448,0.257 -2.18,0.089 -0.487,-0.111 -0.93,-0.324 -1.403,-0.474 -0.29,-0.092 -0.592,-0.178 -0.855,-0.334 -0.061,-0.036 -0.105,-0.05 -0.175,-0.066 -0.173,-0.04 -0.334,-0.122 -0.485,-0.214 -0.19,-0.115 -0.368,-0.243 -0.564,-0.349 -0.126,-0.067 -0.253,-0.121 -0.368,-0.208 -0.222,-0.169 -0.475,-0.231 -0.72,-0.355 -0.163,-0.083 -0.326,-0.165 -0.484,-0.257 -0.165,-0.095 -0.298,-0.126 -0.394,-0.299 -0.104,-0.186 -0.314,-0.307 -0.463,-0.457 -0.237,-0.239 -0.461,-0.511 -0.683,-0.764 -0.19,-0.218 -0.329,-0.442 -0.473,-0.692 -0.275,-0.475 -0.437,-1.01 -0.653,-1.514 -0.196,-0.459 -0.278,-0.949 -0.326,-1.444 -0.05,-0.505 -0.083,-1 -0.012,-1.506 0.07,-0.498 0.246,-0.956 0.374,-1.44 0.158,-0.59 0.345,-1.163 0.543,-1.741 0.168,-0.488 0.406,-0.952 0.658,-1.402 0.117,-0.209 0.205,-0.439 0.347,-0.634 0.163,-0.226 0.371,-0.453 0.566,-0.651 0.324,-0.327 0.672,-0.654 1.077,-0.879 0.483,-0.269 1.004,-0.505 1.45,-0.834 0.89,-0.655 1.86,-1.229 2.914,-1.571 0.309,-0.101 0.622,-0.189 0.937,-0.265 0.241,-0.059 0.477,-0.082 0.72,-0.125 0.244,-0.044 0.472,-0.095 0.722,-0.095 0.319,0 0.595,0.104 0.896,0.191 0.182,0.052 0.366,0.099 0.544,0.161 0.244,0.084 0.446,0.219 0.666,0.35 0.527,0.314 1.053,0.591 1.517,1.001 0.382,0.337 0.761,0.681 1.154,1.006 0.419,0.345 0.832,0.682 1.19,1.095 0.322,0.371 0.566,0.797 0.808,1.224 0.212,0.375 0.441,0.798 0.523,1.223 0.053,0.269 0.076,0.542 0.129,0.811 0.042,0.211 0.085,0.402 0.089,0.618 0.011,0.508 0.048,1.063 -0.045,1.564"
             style="fill:#000000;fill-opacity:1;fill-rule:nonzero;stroke:none"
             id="path1699" />
        </g>
        <g
           id="g1701"
           transform="translate(420.606,311.378)"
           style="fill:#000000">
          <path
             d="m 0,0 c -0.085,-0.144 -0.161,-0.289 -0.154,-0.464 0.009,-0.221 -0.051,-0.432 0.103,-0.625 0.035,-0.044 0.089,-0.064 0.126,-0.104 0.044,-0.047 0.059,-0.108 0.113,-0.145 0.093,-0.063 0.185,-0.031 0.28,-0.005 0.245,0.068 0.4,-0.213 0.656,-0.147 0.335,0.085 0.57,0.455 0.612,0.774 C 1.772,-0.44 1.867,-0.071 1.63,0.136 1.317,0.409 0.796,0.355 0.419,0.318 0.256,0.302 0.157,0.272 0.071,0.121 0.048,0.08 0.024,0.04 0,0"
             style="fill:#000000;fill-opacity:1;fill-rule:nonzero;stroke:none"
             id="path1703" />
        </g>
        <g
           id="g1705"
           transform="translate(430.701,305.122)"
           style="fill:#000000">
          <path
             d="m 0,0 c -0.085,-0.091 -0.133,-0.246 -0.167,-0.359 -0.072,-0.244 -0.126,-0.519 -0.135,-0.774 -0.003,-0.093 -0.013,-0.209 0.008,-0.301 0.02,-0.087 0.075,-0.129 0.112,-0.204 0.036,-0.071 0.039,-0.139 0.098,-0.204 0.099,-0.11 0.226,-0.123 0.352,-0.183 0.12,-0.057 0.195,-0.129 0.323,-0.028 0.116,0.092 0.249,0.235 0.332,0.358 0.078,0.114 0.124,0.25 0.201,0.366 0.066,0.098 0.128,0.17 0.153,0.291 0.02,0.092 -0.011,0.159 -0.033,0.245 -0.03,0.115 -0.117,0.208 -0.173,0.321 C 1.04,-0.408 1.019,-0.335 0.982,-0.275 0.951,-0.224 0.904,-0.202 0.866,-0.16 0.808,-0.096 0.778,-0.027 0.709,0.027 0.617,0.099 0.553,0.086 0.439,0.086 0.213,0.085 0.052,0.117 0,0"
             style="fill:#000000;fill-opacity:1;fill-rule:nonzero;stroke:none"
             id="path1707" />
        </g>
        <g
           id="g1709"
           transform="translate(411.356,304.838)"
           style="fill:#000000">
          <path
             d="M 0,0 C 0.039,0.044 0.088,0.074 0.134,0.111 0.2,0.162 0.251,0.235 0.329,0.268 0.462,0.325 0.643,0.289 0.763,0.216 0.814,0.186 0.856,0.141 0.905,0.108 0.98,0.056 1.058,0.022 1.106,-0.062 c 0.084,-0.149 0.049,-0.347 0.049,-0.51 0,-0.201 0.062,-0.595 -0.191,-0.684 -0.192,-0.068 -0.376,0.107 -0.556,0.128 -0.194,0.022 -0.622,-0.015 -0.708,0.208 -0.07,0.185 0.007,0.387 0.094,0.551 0.061,0.112 0.113,0.25 0.191,0.351 C -0.01,-0.012 -0.005,-0.006 0,0"
             style="fill:#000000;fill-opacity:1;fill-rule:nonzero;stroke:none"
             id="path1711" />
        </g>
        <g
           id="g1713"
           transform="translate(414.569,292.516)"
           style="fill:#000000">
          <path
             d="m 0,0 c -0.087,-0.105 -0.263,-0.156 -0.302,-0.298 -0.037,-0.134 0.056,-0.197 0.146,-0.258 0.135,-0.09 0.231,-0.23 0.361,-0.325 0.292,-0.214 0.548,-0.38 0.936,-0.191 0.255,0.125 0.274,0.288 0.274,0.558 C 1.414,-0.17 1.265,0.132 0.953,0.291 0.835,0.352 0.688,0.4 0.559,0.376 0.332,0.333 -0.121,0.178 -0.086,-0.129"
             style="fill:#000000;fill-opacity:1;fill-rule:nonzero;stroke:none"
             id="path1715" />
        </g>
        <g
           id="g1717"
           transform="translate(427.648,292.13)"
           style="fill:#000000">
          <path
             d="m 0,0 c -0.038,-0.12 -0.044,-0.221 -0.043,-0.345 10e-4,-0.105 -0.032,-0.274 0.007,-0.376 0.051,-0.135 0.306,-0.336 0.439,-0.385 0.095,-0.036 0.246,-0.012 0.347,-0.01 0.109,0.002 0.231,0.023 0.332,0.071 0.079,0.038 0.127,0.099 0.188,0.159 0.062,0.06 0.15,0.118 0.195,0.192 C 1.523,-0.6 1.53,-0.45 1.54,-0.343 1.564,-0.074 1.523,0.196 1.353,0.41 1.277,0.506 1.211,0.662 1.116,0.734 1.045,0.788 0.92,0.814 0.836,0.838 0.751,0.862 0.644,0.876 0.558,0.851 0.444,0.818 0.391,0.711 0.283,0.668 0.155,0.619 0.016,0.617 -0.09,0.517 -0.213,0.4 -0.244,0.205 -0.257,0.043"
             style="fill:#000000;fill-opacity:1;fill-rule:nonzero;stroke:none"
             id="path1719" />
        </g>
      </g>
    </g>
  </g>
</svg>
