<?xml version="1.0" encoding="UTF-8" standalone="no"?>
<!-- Created with Inkscape (http://www.inkscape.org/) -->

<svg
   width="21.778805"
   height="24"
   viewBox="0 0 5.7623086 6.35"
   version="1.1"
   id="svg41200"
   inkscape:version="1.2.1 (9c6d41e4, 2022-07-14)"
   sodipodi:docname="decay-and-filth.svg"
   xmlns:inkscape="http://www.inkscape.org/namespaces/inkscape"
   xmlns:sodipodi="http://sodipodi.sourceforge.net/DTD/sodipodi-0.dtd"
   xmlns="http://www.w3.org/2000/svg"
   xmlns:svg="http://www.w3.org/2000/svg">
  <sodipodi:namedview
     id="namedview41202"
     pagecolor="#505050"
     bordercolor="#eeeeee"
     borderopacity="1"
     inkscape:showpageshadow="0"
     inkscape:pageopacity="0"
     inkscape:pagecheckerboard="0"
     inkscape:deskcolor="#505050"
     inkscape:document-units="mm"
     showgrid="false"
     inkscape:zoom="0.2102413"
     inkscape:cx="-35.673295"
     inkscape:cy="38.051515"
     inkscape:window-width="1309"
     inkscape:window-height="456"
     inkscape:window-x="0"
     inkscape:window-y="25"
     inkscape:window-maximized="0"
     inkscape:current-layer="layer1" />
  <defs
     id="defs41197">
    <clipPath
       clipPathUnits="userSpaceOnUse"
       id="clipPath4939">
      <path
         d="m 136.15,341.78 h 24.7 v 24.699 h -24.7 z"
         id="path4937" />
    </clipPath>
  </defs>
  <g
     inkscape:label="Layer 1"
     inkscape:groupmode="layer"
     id="layer1"
     transform="translate(-115.05066,-138.63062)">
    <g
       id="g4933"
       transform="matrix(0.3131305,0,0,-0.3131305,71.389073,252.9267)"
       style="fill:#000000">
      <g
         id="g4935"
         clip-path="url(#clipPath4939)"
         style="fill:#000000">
        <g
           id="g4941"
           transform="translate(146.546,358.131)"
           style="fill:#000000">
          <path
             d="m 0,0 c -0.053,0.432 0.049,0.864 0.048,1.297 0,0.091 -0.013,0.191 0.009,0.28 C 0.073,1.642 0.101,1.707 0.126,1.77 0.209,1.982 0.335,2.168 0.47,2.348 0.531,2.43 0.625,2.478 0.71,2.533 0.808,2.596 0.922,2.731 1.04,2.765 1.101,2.783 1.184,2.788 1.249,2.797 1.342,2.811 1.431,2.801 1.521,2.778 1.735,2.725 1.944,2.585 2.128,2.467 2.23,2.402 2.329,2.315 2.452,2.29 2.559,2.269 2.685,2.281 2.79,2.3 2.958,2.33 3.087,2.411 3.22,2.514 3.287,2.566 3.397,2.691 3.474,2.71 3.557,2.731 3.622,2.659 3.688,2.622 3.732,2.597 3.75,2.568 3.793,2.534 3.851,2.488 3.851,2.447 3.88,2.387 3.905,2.336 3.96,2.301 3.999,2.26 4.101,2.156 4.13,2.035 4.191,1.905 4.241,1.799 4.326,1.72 4.39,1.623 4.472,1.499 4.53,1.375 4.628,1.261 4.778,1.085 4.923,0.826 4.83,0.592 4.805,0.531 4.762,0.479 4.739,0.415 4.722,0.367 4.71,0.32 4.698,0.271 4.67,0.163 4.628,0.038 4.635,-0.075 4.639,-0.16 4.7,-0.238 4.738,-0.311 4.771,-0.377 4.768,-0.375 4.699,-0.415 4.568,-0.492 4.447,-0.522 4.298,-0.556 4.114,-0.598 3.924,-0.643 3.736,-0.651 3.573,-0.658 3.409,-0.652 3.246,-0.652 3.131,-0.652 3.015,-0.655 2.9,-0.654 2.762,-0.652 2.635,-0.624 2.499,-0.603 2.334,-0.577 2.171,-0.594 2.007,-0.577 1.856,-0.561 1.714,-0.517 1.57,-0.472 1.432,-0.428 1.304,-0.44 1.161,-0.433 1.032,-0.426 0.908,-0.41 0.778,-0.411 c -0.211,0 -0.423,0.002 -0.635,0 -0.066,-0.001 -0.121,0.021 -0.186,0.025 -0.042,0.002 -0.059,0.003 -0.073,0.047 -0.025,0.082 -0.005,0.194 -0.005,0.279 0,0.085 -0.021,0.189 0.121,0.06"
             style="fill:#000000;fill-opacity:1;fill-rule:nonzero;stroke:none"
             id="path4943" />
        </g>
        <g
           id="g4945"
           transform="translate(145.179,351.089)"
           style="fill:#000000">
          <path
             d="m 0,0 c -0.025,0 -0.058,-0.008 -0.083,0 -0.087,0.028 -0.173,0.14 -0.26,0.183 -0.082,0.041 -0.153,0.096 -0.23,0.156 -0.132,0.103 -0.271,0.18 -0.407,0.267 -0.152,0.097 -0.304,0.127 -0.462,0.189 -0.041,0.016 -0.085,0.033 -0.126,0.055 -0.059,0.033 -0.109,0.097 -0.17,0.132 -0.037,0.021 -0.086,0.057 -0.127,0.057 -0.034,0 -0.038,-0.01 -0.052,-0.068 -0.029,-0.126 -0.04,-0.258 -0.06,-0.388 -0.045,-0.3 -0.132,-0.58 -0.177,-0.88 -0.03,-0.199 -0.042,-0.4 -0.058,-0.603 -0.022,-0.264 -0.1,-0.514 -0.159,-0.76 -0.145,-0.604 -0.285,-1.211 -0.426,-1.818 -0.054,-0.23 -0.08,-0.481 -0.155,-0.698 -0.038,-0.111 -0.097,-0.202 -0.141,-0.307 -0.035,-0.085 -0.067,-0.174 -0.096,-0.265 -0.06,-0.189 -0.095,-0.394 -0.153,-0.583 -0.051,-0.168 -0.143,-0.338 -0.172,-0.52 -0.01,-0.061 0.009,-0.056 0.016,-0.102 0.005,-0.04 0.002,-0.089 0.001,-0.131 0,-0.04 -0.014,-0.145 0.018,-0.16 0.055,-0.027 0.181,0.227 0.203,0.268 0.103,0.188 0.193,0.39 0.298,0.577 0.091,0.161 0.15,0.337 0.212,0.528 0.069,0.212 0.153,0.407 0.217,0.626 0.056,0.189 0.106,0.363 0.146,0.562 0.104,0.516 0.321,0.908 0.5,1.36 0.07,0.174 0.121,0.363 0.191,0.537 0.011,0.029 0.027,0.057 0.037,0.088 0.019,0.064 0.018,0.139 0.041,0.201 0.048,0.133 0.117,0.279 0.194,0.374 0.029,0.036 0.066,0.058 0.094,0.094 0.031,0.041 0.036,0.1 0.063,0.146 0.045,0.078 0.106,0.066 0.166,0.094 0.108,0.05 0.197,0.062 0.309,0.063 0.167,0.001 0.336,-0.065 0.499,-0.122 0.06,-0.021 0.117,-0.078 0.17,-0.118 0.024,0.196 0.06,0.389 0.08,0.586 C -0.044,-0.227 -0.075,-0.087 0,0"
             style="fill:#000000;fill-opacity:1;fill-rule:nonzero;stroke:none"
             id="path4947" />
        </g>
        <g
           id="g4949"
           transform="translate(152.743,351.301)"
           style="fill:#000000">
          <path
             d="M 0,0 C 0.001,0.008 0.003,0.016 0.004,0.025 0.06,0.028 0.132,0.162 0.171,0.209 0.264,0.321 0.345,0.373 0.457,0.424 0.573,0.477 0.669,0.559 0.776,0.646 0.847,0.704 0.904,0.757 0.961,0.847 1.019,0.94 1.07,1.074 1.135,1.151 1.207,1.235 1.217,1.106 1.24,1.021 1.333,0.674 1.424,0.325 1.5,-0.032 1.531,-0.178 1.557,-0.327 1.583,-0.475 1.601,-0.574 1.638,-0.656 1.66,-0.751 1.693,-0.888 1.697,-1.044 1.713,-1.187 1.735,-1.377 1.767,-1.552 1.817,-1.728 1.912,-2.063 2.023,-2.39 2.129,-2.717 2.213,-2.977 2.341,-3.191 2.451,-3.424 2.545,-3.622 2.631,-3.813 2.705,-4.031 2.75,-4.162 2.8,-4.284 2.839,-4.42 2.902,-4.636 2.936,-4.866 2.978,-5.092 3.013,-5.275 3.082,-5.443 3.111,-5.621 3.046,-5.591 2.995,-5.502 2.937,-5.451 2.853,-5.376 2.779,-5.328 2.704,-5.226 2.65,-5.151 2.6,-5.066 2.539,-5.004 2.475,-4.94 2.402,-4.921 2.341,-4.846 2.268,-4.756 2.208,-4.643 2.145,-4.537 2.019,-4.324 1.934,-4.091 1.835,-3.846 1.748,-3.63 1.651,-3.47 1.592,-3.23 1.541,-3.022 1.51,-2.801 1.469,-2.588 1.423,-2.343 1.451,-2.066 1.395,-1.827 1.38,-1.763 1.351,-1.704 1.33,-1.644 c -0.033,0.102 -0.059,0.202 -0.081,0.31 -0.035,0.173 -0.082,0.365 -0.154,0.511 -0.04,0.082 -0.076,0.17 -0.111,0.256 -0.048,0.118 -0.065,0.174 -0.158,0.173 -0.071,0 -0.13,0.003 -0.199,-0.035 C 0.519,-0.489 0.399,-0.51 0.298,-0.593 0.229,-0.649 0.173,-0.708 0.096,-0.73 0.072,-0.737 0.045,-0.746 0.023,-0.764 0.004,-0.779 -0.013,-0.82 -0.035,-0.816 c -0.01,0.034 -0.006,0.073 0,0.107 0.014,0.084 0.03,0.164 0.041,0.25 0.014,0.114 0.028,0.21 0.049,0.32 0.013,0.067 0.023,0.113 0.022,0.184 C 0.076,0.128 0.069,0.185 0,0"
             style="fill:#000000;fill-opacity:1;fill-rule:nonzero;stroke:none"
             id="path4951" />
        </g>
        <g
           id="g4953"
           transform="translate(152.802,355.147)"
           style="fill:#000000">
          <path
             d="m 0,0 c -0.004,-0.015 -0.009,-0.03 -0.013,-0.046 0.109,0.109 0.196,0.261 0.296,0.387 0.072,0.09 0.158,0.18 0.211,0.283 0.013,0.026 0.019,0.056 0.034,0.08 0.046,0.073 0.138,0.098 0.21,0.138 0.186,0.104 0.351,0.24 0.522,0.366 0.108,0.08 0.205,0.147 0.33,0.198 0.093,0.039 0.15,0.061 0.22,0.132 0.048,0.049 0.048,0.065 0.118,0.067 0.041,0.002 0.079,0 0.119,-0.007 C 2.093,1.59 2.147,1.584 2.193,1.576 2.276,1.561 2.336,1.515 2.413,1.482 2.498,1.445 2.583,1.43 2.668,1.387 2.753,1.342 2.835,1.302 2.927,1.271 3.059,1.226 3.187,1.169 3.319,1.125 3.487,1.07 3.648,1.077 3.814,1.001 3.929,0.949 4.039,0.878 4.162,0.844 4.304,0.805 4.472,0.78 4.618,0.762 4.753,0.746 4.93,0.803 5.036,0.695 4.808,0.704 4.613,0.61 4.397,0.559 4.361,0.551 4.324,0.545 4.286,0.549 4.229,0.556 4.178,0.587 4.122,0.599 4.034,0.619 3.937,0.605 3.847,0.605 3.734,0.605 3.621,0.606 3.508,0.606 3.385,0.605 3.259,0.612 3.136,0.607 3.041,0.604 2.945,0.57 2.849,0.58 2.728,0.594 2.609,0.6 2.487,0.612 2.399,0.62 2.312,0.635 2.229,0.666 2.174,0.687 2.106,0.695 2.053,0.719 1.996,0.744 2.007,0.759 1.974,0.804 1.909,0.887 1.84,0.821 1.787,0.759 1.716,0.679 1.67,0.633 1.568,0.591 1.409,0.526 1.265,0.453 1.175,0.301 1.101,0.175 1.051,0.048 0.947,-0.058 0.786,-0.221 0.577,-0.335 0.396,-0.473 0.393,-0.476 0.389,-0.479 0.385,-0.482 0.308,-0.541 0.232,-0.606 0.158,-0.662 0.116,-0.585 0.064,-0.555 0.029,-0.469 0.008,-0.418 -0.07,-0.338 0,0"
             style="fill:#000000;fill-opacity:1;fill-rule:nonzero;stroke:none"
             id="path4955" />
        </g>
        <g
           id="g4957"
           transform="translate(145.047,355.45)"
           style="fill:#000000">
          <path
             d="M 0,0 C -0.047,-0.002 -0.071,0.02 -0.113,0.052 -0.409,0.275 -0.683,0.333 -1.027,0.361 -1.295,0.382 -1.564,0.459 -1.789,0.607 -1.908,0.685 -2.035,0.751 -2.153,0.83 -2.208,0.868 -2.285,0.939 -2.35,0.937 -2.355,0.937 -2.404,0.911 -2.413,0.908 -2.496,0.869 -2.565,0.82 -2.641,0.764 -2.833,0.62 -3.088,0.521 -3.309,0.434 -3.571,0.331 -3.837,0.235 -4.103,0.142 -4.352,0.056 -4.612,0.018 -4.861,-0.061 -4.986,-0.101 -5.131,-0.11 -5.262,-0.125 -5.343,-0.134 -5.421,-0.149 -5.5,-0.168 c -0.016,-0.004 -0.096,-0.008 -0.104,-0.019 -0.038,-0.046 0.084,-0.088 0.116,-0.1 0.185,-0.072 0.383,-0.076 0.578,-0.076 0.204,0 0.405,0.034 0.608,0.03 0.126,-0.002 0.245,0.002 0.368,0.029 0.126,0.027 0.239,0.063 0.369,0.063 0.122,0 0.267,0.005 0.386,0.033 0.112,0.027 0.185,0.134 0.294,0.147 0.112,0.014 0.225,0.048 0.336,0.076 0.109,0.028 0.233,0.019 0.346,0.017 0.118,-0.003 0.255,-0.075 0.362,-0.122 0.111,-0.05 0.196,-0.145 0.266,-0.242 0.066,-0.092 0.137,-0.153 0.222,-0.228 0.048,-0.041 0.068,-0.091 0.105,-0.139 0.051,-0.065 0.088,-0.044 0.158,-0.063 0.054,-0.014 0.075,-0.054 0.111,-0.088 0.042,-0.04 0.091,-0.056 0.144,-0.077 0.123,-0.05 0.251,-0.104 0.385,-0.104 0.073,0 0.14,-0.005 0.213,-0.022 0.026,-0.006 0.082,-0.029 0.105,-0.003 0.016,0.018 0.029,0.103 0.035,0.127 0.022,0.091 0.039,0.175 0.04,0.273 0.001,0.13 0.02,0.255 0.019,0.385 -0.001,0.072 -0.007,0.137 0.02,0.2 C -0.019,-0.078 -0.019,-0.084 0,0"
             style="fill:#000000;fill-opacity:1;fill-rule:nonzero;stroke:none"
             id="path4959" />
        </g>
        <g
           id="g4961"
           transform="translate(152.032,357.357)"
           style="fill:#000000">
          <path
             d="M 0,0 -0.001,-0.02 C 0.013,0.012 0.014,0.046 0.022,0.081 0.045,0.18 0.065,0.292 0.097,0.385 0.112,0.43 0.125,0.462 0.137,0.511 0.159,0.596 0.194,0.654 0.223,0.732 0.258,0.823 0.285,0.922 0.321,1.008 0.401,1.193 0.445,1.416 0.524,1.607 0.562,1.698 0.578,1.761 0.638,1.808 0.77,1.911 0.883,2.085 1.025,2.151 1.168,2.217 1.317,2.23 1.452,2.331 1.513,2.376 1.571,2.428 1.634,2.468 1.709,2.516 1.787,2.548 1.862,2.597 2.074,2.736 2.304,2.821 2.5,3.015 2.529,3.043 2.534,3.047 2.554,3.093 2.576,3.144 2.614,3.19 2.635,3.241 2.653,3.287 2.647,3.324 2.655,3.376 2.666,3.447 2.691,3.534 2.708,3.602 2.74,3.722 2.761,3.846 2.791,3.967 2.809,4.038 2.852,4.123 2.843,4.2 2.844,4.016 2.84,3.837 2.825,3.656 2.817,3.563 2.814,3.457 2.801,3.367 2.783,3.237 2.742,3.108 2.716,2.981 2.689,2.852 2.667,2.72 2.636,2.594 2.625,2.547 2.62,2.463 2.597,2.429 2.579,2.403 2.498,2.37 2.481,2.357 2.429,2.317 2.378,2.273 2.325,2.239 2.221,2.172 2.113,2.172 2.007,2.12 1.826,2.032 1.647,1.941 1.47,1.832 1.357,1.762 1.226,1.664 1.128,1.547 1.042,1.444 0.998,1.273 0.944,1.131 0.791,0.73 0.513,0.456 0.383,0.031 0.346,-0.092 0.307,-0.212 0.269,-0.334 0.239,-0.428 0.206,-0.502 0.189,-0.602 0.09,-0.665 0.05,-0.395 0.024,-0.301 0.009,-0.245 -0.072,-0.055 0,0"
             style="fill:#000000;fill-opacity:1;fill-rule:nonzero;stroke:none"
             id="path4963" />
        </g>
        <g
           id="g4965"
           transform="translate(145.942,357.431)"
           style="fill:#000000">
          <path
             d="m 0,0 c -0.005,0.045 -0.047,0.104 -0.062,0.15 -0.038,0.116 -0.091,0.204 -0.144,0.3 -0.081,0.147 -0.176,0.275 -0.272,0.398 -0.125,0.16 -0.276,0.271 -0.384,0.46 -0.107,0.187 -0.198,0.385 -0.296,0.584 -0.075,0.153 -0.143,0.326 -0.233,0.456 -0.063,0.091 -0.144,0.134 -0.227,0.169 -0.208,0.087 -0.414,0.128 -0.625,0.185 -0.1,0.026 -0.199,0.029 -0.299,0.042 -0.093,0.012 -0.185,0.044 -0.277,0.068 -0.153,0.04 -0.305,0.09 -0.458,0.127 -0.06,0.015 -0.101,0.022 -0.155,0.058 -0.07,0.046 -0.128,0.149 -0.19,0.227 -0.05,0.062 -0.116,0.149 -0.15,0.233 -0.017,0.042 -0.022,0.136 -0.057,0.148 -0.013,-0.069 -0.013,-0.21 0,-0.278 0.009,-0.051 0.033,-0.102 0.044,-0.153 0.025,-0.111 0.047,-0.256 0.091,-0.353 0.037,-0.082 0.089,-0.15 0.13,-0.228 0.017,-0.032 0.053,-0.154 0.079,-0.167 0.022,-0.01 0.055,0.004 0.079,-0.003 0.057,-0.018 0.107,-0.019 0.167,-0.021 0.176,-0.005 0.36,-0.128 0.526,-0.212 0.162,-0.08 0.333,-0.146 0.483,-0.274 0.061,-0.052 0.119,-0.077 0.185,-0.112 0.07,-0.037 0.129,-0.108 0.199,-0.15 0.136,-0.081 0.249,-0.213 0.365,-0.349 0.078,-0.091 0.13,-0.221 0.192,-0.337 0.054,-0.103 0.086,-0.224 0.142,-0.323 0.055,-0.098 0.104,-0.181 0.149,-0.292 0.071,-0.177 0.154,-0.332 0.238,-0.493 0.03,-0.059 0.044,-0.127 0.065,-0.193 0.019,-0.06 0.029,-0.065 0.062,-0.102 0.052,-0.057 0.066,-0.115 0.135,-0.113 0.079,0.001 0.145,0.028 0.217,0.091 0.046,0.041 0.083,0.1 0.125,0.149 0.026,0.03 0.033,0.019 0.055,0.041 C -0.048,-0.217 -0.017,-0.19 0,0"
             style="fill:#000000;fill-opacity:1;fill-rule:nonzero;stroke:none"
             id="path4967" />
        </g>
        <g
           id="g4969"
           transform="translate(146.948,346.85)"
           style="fill:#000000">
          <path
             d="m 0,0 c -0.046,-0.009 -0.053,-0.054 -0.061,-0.095 -0.019,-0.092 -0.023,-0.199 -0.038,-0.294 -0.025,-0.166 -0.047,-0.33 -0.075,-0.495 -0.017,-0.098 -0.057,-0.18 -0.082,-0.275 -0.017,-0.07 -0.019,-0.14 -0.037,-0.21 -0.026,-0.1 -0.078,-0.181 -0.127,-0.271 -0.034,-0.065 -0.067,-0.15 -0.114,-0.204 0.052,0.063 0.184,0.114 0.256,0.143 0.042,0.017 0.093,0.019 0.133,0.038 0.078,0.036 0.104,0.114 0.146,0.182 0.034,0.055 0.083,0.088 0.119,0.142 0.058,0.089 0.092,0.194 0.156,0.279 0.053,0.071 0.115,0.16 0.143,0.245 0.05,0.147 -0.083,0.366 -0.155,0.483 C 0.223,-0.264 -0.042,0.02 0,0"
             style="fill:#000000;fill-opacity:1;fill-rule:nonzero;stroke:none"
             id="path4971" />
        </g>
        <g
           id="g4973"
           transform="translate(150.006,346.547)"
           style="fill:#000000">
          <path
             d="m 0,0 c 0.125,-0.191 0.243,-0.373 0.357,-0.569 0.083,-0.144 0.141,-0.245 0.275,-0.351 0.083,-0.067 0.163,-0.118 0.262,-0.156 0.048,-0.018 0.111,-0.063 0.163,-0.04 -0.005,0.045 -0.025,0.077 -0.028,0.125 -0.007,0.103 -0.02,0.237 0.003,0.339 0.011,0.049 0.041,0.063 0.013,0.107 -0.011,0.016 -0.058,0.032 -0.074,0.043 -0.044,0.029 -0.08,0.067 -0.122,0.1 C 0.684,-0.271 0.568,-0.09 0.393,0.03 0.32,0.08 0.268,0.147 0.229,0.227 0.212,0.264 0.203,0.358 0.157,0.361 0.131,0.247 0.131,0.156 0,0"
             style="fill:#000000;fill-opacity:1;fill-rule:nonzero;stroke:none"
             id="path4975" />
        </g>
        <g
           id="g4977"
           transform="translate(148.28,361.899)"
           style="fill:#000000">
          <path
             d="m 0,0 c -0.108,-0.046 -0.096,-0.244 -0.091,-0.34 0.009,-0.191 0.08,-0.287 0.243,-0.38 0.193,-0.109 0.348,-0.271 0.568,-0.334 0.084,-0.023 0.16,-0.056 0.246,-0.021 0.106,0.044 0.19,0.143 0.285,0.206 0.121,0.078 0.205,0.179 0.245,0.322 0.03,0.108 0.017,0.219 0.019,0.33 C 1.517,0.021 1.472,0.241 1.256,0.378 1.091,0.481 0.812,0.508 0.624,0.471 0.532,0.453 0.45,0.413 0.362,0.385 0.278,0.358 0.23,0.337 0.169,0.272 0.116,0.215 0.044,0.181 -0.002,0.116 -0.051,0.046 -0.107,-0.068 0,0"
             style="fill:#000000;fill-opacity:1;fill-rule:nonzero;stroke:none"
             id="path4979" />
        </g>
        <g
           id="g4981"
           transform="translate(150.21,361.567)"
           style="fill:#000000">
          <path
             d="M 0,0 C 0.02,0.039 0.043,0.075 0.067,0.114 0.103,0.172 0.137,0.228 0.176,0.283 0.26,0.397 0.344,0.513 0.428,0.627 0.57,0.821 0.747,0.991 0.876,1.194 1.073,1.506 1.308,1.771 1.562,2.036 1.866,2.354 2.246,2.563 2.523,2.909 2.6,3.005 2.66,3.113 2.729,3.216 2.757,3.257 2.782,3.296 2.816,3.333 2.852,3.373 2.902,3.399 2.933,3.444 2.93,3.393 2.945,3.33 2.927,3.282 2.893,3.193 2.786,3.111 2.737,3.03 2.672,2.922 2.644,2.798 2.571,2.693 2.49,2.577 2.392,2.474 2.307,2.362 2.221,2.25 2.125,2.143 2.046,2.026 1.993,1.947 1.933,1.872 1.878,1.794 1.833,1.731 1.771,1.695 1.721,1.636 1.617,1.515 1.562,1.362 1.449,1.246 1.324,1.117 1.23,0.965 1.123,0.821 1.036,0.705 0.934,0.601 0.844,0.487 0.769,0.392 0.717,0.285 0.637,0.192 0.581,0.128 0.55,0.051 0.495,-0.012 0.451,-0.062 0.394,-0.1 0.351,-0.147 0.272,-0.231 0.239,-0.333 0.115,-0.33 c -0.05,0.001 -0.104,-0.007 -0.144,-0.037 -0.032,-0.024 -0.053,-0.074 -0.092,-0.081 -0.042,0.119 0.055,0.236 0.082,0.345 C -0.03,-0.065 -0.016,-0.032 0,0"
             style="fill:#000000;fill-opacity:1;fill-rule:nonzero;stroke:none"
             id="path4983" />
        </g>
        <g
           id="g4985"
           transform="translate(147.794,361.597)"
           style="fill:#000000">
          <path
             d="M 0,0 C 0.006,-0.009 0.012,-0.018 0.018,-0.027 -0.009,-0.013 -0.017,0.025 -0.036,0.052 -0.087,0.126 -0.158,0.202 -0.216,0.27 -0.452,0.547 -0.754,0.788 -1.06,0.982 -1.266,1.113 -1.513,1.199 -1.702,1.355 -1.821,1.453 -1.903,1.588 -2.012,1.697 -2.145,1.83 -2.292,1.943 -2.439,2.059 -2.582,2.172 -2.7,2.307 -2.817,2.445 -2.947,2.6 -3.111,2.869 -3.331,2.909 -3.463,2.933 -3.471,2.865 -3.424,2.758 -3.385,2.67 -3.336,2.586 -3.294,2.5 c 0.052,-0.105 0.083,-0.193 0.175,-0.267 0.106,-0.087 0.208,-0.181 0.324,-0.254 0.056,-0.035 0.126,-0.057 0.177,-0.098 0.032,-0.026 0.045,-0.058 0.069,-0.089 0.06,-0.077 0.162,-0.064 0.238,-0.125 0.068,-0.055 0.115,-0.129 0.166,-0.198 0.057,-0.076 0.119,-0.124 0.194,-0.18 0.08,-0.06 0.145,-0.118 0.234,-0.167 0.065,-0.036 0.129,-0.076 0.187,-0.124 0.087,-0.074 0.15,-0.166 0.215,-0.258 0.096,-0.134 0.204,-0.26 0.323,-0.374 0.077,-0.074 0.175,-0.144 0.261,-0.209 0.107,-0.079 0.224,-0.148 0.337,-0.218 0.049,-0.029 0.062,-0.055 0.098,-0.091 0.033,-0.034 0.078,-0.053 0.116,-0.084 0.048,-0.039 0.089,-0.069 0.144,-0.094 C -0.017,-0.263 -0.001,-0.015 0,0"
             style="fill:#000000;fill-opacity:1;fill-rule:nonzero;stroke:none"
             id="path4987" />
        </g>
        <g
           id="g4989"
           transform="translate(149.676,346.738)"
           style="fill:#000000">
          <path
             d="M 0,0 C -0.086,0.284 -0.236,0.56 -0.335,0.845 -0.396,1.021 -0.388,1.209 -0.466,1.381 -0.521,1.502 -0.582,1.607 -0.62,1.733 -0.657,1.858 -0.725,1.964 -0.805,2.076 -0.899,2.208 -1.01,2.341 -1.073,2.483 -1.161,2.681 -1.207,2.903 -1.263,3.108 -1.364,3.471 -1.416,3.841 -1.492,4.207 -1.59,4.68 -1.707,5.157 -1.659,5.633 -1.584,6.371 -1.466,7.102 -1.391,7.84 -1.459,7.485 -1.446,7.53 -1.454,7.57 -1.461,7.605 -1.481,7.618 -1.48,7.661 c 0.004,0.104 0.02,0.209 0.028,0.313 0.018,0.227 0.15,0.405 0.21,0.621 0.046,0.167 0.107,0.347 0.187,0.505 0.087,-0.014 0.049,-0.169 0.046,-0.208 -0.01,-0.128 0.002,-0.269 0.006,-0.399 0.004,-0.126 0.033,-0.252 0.032,-0.378 0,-0.14 -0.045,-0.282 -0.018,-0.422 C -0.963,7.554 -0.883,7.421 -0.893,7.28 -0.907,7.07 -0.905,6.858 -0.907,6.646 -0.91,6.193 -0.856,5.734 -0.826,5.281 -0.814,5.112 -0.829,4.946 -0.808,4.777 -0.792,4.652 -0.768,4.528 -0.749,4.403 -0.701,4.103 -0.706,3.81 -0.71,3.511 -0.712,3.293 -0.698,3.08 -0.63,2.865 -0.57,2.679 -0.505,2.497 -0.461,2.309 -0.432,2.184 -0.391,2.062 -0.368,1.938 -0.343,1.799 -0.336,1.659 -0.312,1.52 -0.271,1.282 -0.178,1.048 -0.115,0.813 -0.059,0.6 -0.062,0.387 0,0.174 0.01,0.139 0.078,0.008 0,0 M 2.814,7.759 C 2.728,8.024 2.588,8.268 2.513,8.537 2.484,8.638 2.452,8.725 2.398,8.816 2.311,8.964 2.27,9.124 2.197,9.278 2.151,9.377 2.107,9.473 2.07,9.576 2.04,9.661 1.992,9.739 1.967,9.824 1.922,9.978 1.889,10.144 1.811,10.284 1.772,10.353 1.737,10.46 1.655,10.496 1.627,10.508 1.583,10.505 1.556,10.511 1.508,10.522 1.475,10.521 1.42,10.506 1.2,10.449 0.979,10.401 0.76,10.341 0.585,10.293 0.423,10.21 0.246,10.165 0.111,10.131 -0.024,10.113 -0.161,10.095 -0.505,10.048 -0.857,10.033 -1.202,10.004 -1.53,9.977 -1.835,9.886 -2.163,9.948 c -0.117,0.023 -0.221,0.068 -0.332,0.105 -0.05,0.017 -0.099,0.031 -0.151,0.034 -0.042,0.003 -0.103,-0.01 -0.143,0.005 -0.015,0.007 -0.027,0.023 -0.041,0.03 -0.036,0.018 -0.074,0.014 -0.113,0.02 -0.064,0.01 -0.127,0.034 -0.188,0.055 -0.063,0.022 -0.135,0.073 -0.188,0.115 -0.044,0.034 -0.079,0.077 -0.142,0.066 0.013,0 0.027,0 -0.007,0 C -3.614,10.084 -3.736,9.784 -3.872,9.486 -3.99,9.228 -4.1,8.977 -4.182,8.704 -4.258,8.446 -4.294,8.18 -4.345,7.917 -4.4,7.636 -4.453,7.35 -4.492,7.067 -4.526,6.822 -4.453,6.546 -4.546,6.312 -4.577,6.235 -4.615,6.168 -4.624,6.084 -4.656,5.802 -4.517,5.516 -4.462,5.245 c 0.037,-0.183 0.057,-0.374 0.107,-0.554 0.059,-0.21 0.164,-0.412 0.245,-0.614 0.067,-0.168 0.162,-0.32 0.235,-0.484 0.066,-0.15 0.109,-0.309 0.141,-0.469 0.03,-0.145 0.06,-0.289 0.095,-0.434 0.043,-0.177 0.061,-0.358 0.115,-0.533 0.101,-0.33 0.249,-0.647 0.323,-0.987 0.086,-0.401 0.175,-0.8 0.357,-1.172 0.129,-0.264 0.202,-0.552 0.34,-0.812 0.126,-0.239 0.313,-0.452 0.486,-0.658 0.119,-0.14 0.225,-0.31 0.411,-0.355 0.144,-0.036 0.286,-0.081 0.431,-0.111 0.095,-0.02 0.191,-0.028 0.286,-0.049 0.071,-0.016 0.122,-0.031 0.194,-0.005 0.158,0.059 0.281,0.173 0.401,0.286 0.083,0.078 0.164,0.148 0.226,0.245 0.052,0.083 0.095,0.141 0.165,0.207 0.075,0.069 0.108,0.176 0.167,0.257 0.031,0.041 0.069,0.077 0.098,0.118 0.039,0.055 0.052,0.111 0.08,0.17 0.053,0.106 0.131,0.2 0.187,0.305 0.058,0.11 0.114,0.222 0.183,0.325 0.095,0.141 0.214,0.26 0.269,0.425 0.048,0.146 0.113,0.29 0.123,0.444 0.006,0.087 0.015,0.169 0.039,0.254 0.031,0.112 0.092,0.19 0.144,0.291 0.081,0.156 0.158,0.303 0.262,0.445 0.079,0.107 0.129,0.233 0.19,0.35 0.059,0.113 0.118,0.215 0.147,0.341 0.012,0.052 0.027,0.102 0.046,0.152 0.018,0.047 0.014,0.094 0.03,0.137 0.013,0.034 0.048,0.052 0.068,0.081 0.026,0.036 0.037,0.078 0.051,0.12 0.035,0.101 0.071,0.201 0.104,0.303 0.074,0.228 0.105,0.472 0.17,0.703 0.066,0.234 0.142,0.465 0.216,0.697 0.092,0.287 0.223,0.564 0.285,0.86 0.08,0.378 0.105,0.75 0.101,1.135 -0.003,0.375 -0.128,0.746 -0.242,1.1"
             style="fill:#000000;fill-opacity:1;fill-rule:nonzero;stroke:none"
             id="path4991" />
        </g>
      </g>
    </g>
  </g>
</svg>
