<?xml version="1.0" encoding="UTF-8" standalone="no"?>
<!-- Created with Inkscape (http://www.inkscape.org/) -->

<svg
   width="21.285231"
   height="24"
   viewBox="0 0 5.6317171 6.35"
   version="1.1"
   id="svg41022"
   inkscape:version="1.2.1 (9c6d41e4, 2022-07-14)"
   sodipodi:docname="hasturs-gift.svg"
   xmlns:inkscape="http://www.inkscape.org/namespaces/inkscape"
   xmlns:sodipodi="http://sodipodi.sourceforge.net/DTD/sodipodi-0.dtd"
   xmlns="http://www.w3.org/2000/svg"
   xmlns:svg="http://www.w3.org/2000/svg">
  <sodipodi:namedview
     id="namedview41024"
     pagecolor="#505050"
     bordercolor="#eeeeee"
     borderopacity="1"
     inkscape:showpageshadow="0"
     inkscape:pageopacity="0"
     inkscape:pagecheckerboard="0"
     inkscape:deskcolor="#505050"
     inkscape:document-units="mm"
     showgrid="false"
     inkscape:zoom="0.2102413"
     inkscape:cx="-21.403977"
     inkscape:cy="61.833711"
     inkscape:window-width="1309"
     inkscape:window-height="456"
     inkscape:window-x="0"
     inkscape:window-y="25"
     inkscape:window-maximized="0"
     inkscape:current-layer="layer1" />
  <defs
     id="defs41019">
    <clipPath
       clipPathUnits="userSpaceOnUse"
       id="clipPath4779">
      <path
         d="m 95.934,341.78 h 24.7 v 24.699 h -24.7 z"
         id="path4777" />
    </clipPath>
  </defs>
  <g
     inkscape:label="Layer 1"
     inkscape:groupmode="layer"
     id="layer1"
     transform="translate(-111.24849,-132.22515)">
    <g
       id="g4773"
       transform="matrix(0.30353307,0,0,-0.30353307,80.854732,242.64605)"
       style="fill:#000000">
      <g
         id="g4775"
         clip-path="url(#clipPath4779)"
         style="fill:#000000">
        <g
           id="g4781"
           transform="translate(101.88,361.708)"
           style="fill:#000000">
          <path
             d="M 0,0 C 0.095,-0.026 0.18,-0.096 0.252,-0.159 0.385,-0.274 0.568,-0.317 0.724,-0.393 1.064,-0.558 1.42,-0.718 1.774,-0.85 2.269,-1.034 2.79,-1.155 3.278,-1.362 3.45,-1.436 3.619,-1.521 3.794,-1.589 4.016,-1.676 4.248,-1.737 4.47,-1.824 4.828,-1.965 5.157,-2.171 5.509,-2.325 5.852,-2.476 6.13,-2.722 6.444,-2.92 6.619,-3.03 6.809,-3.107 6.993,-3.2 c 0.17,-0.085 0.331,-0.186 0.496,-0.28 0.427,-0.241 0.893,-0.406 1.356,-0.564 0.376,-0.129 0.744,-0.284 1.125,-0.397 0.284,-0.083 0.593,-0.139 0.856,-0.28 0.191,-0.101 0.35,-0.258 0.53,-0.378 0.222,-0.147 0.467,-0.278 0.708,-0.394 0.334,-0.162 0.695,-0.241 1.045,-0.357 0.272,-0.089 0.539,-0.226 0.818,-0.287 0.062,-0.013 0.216,0.004 0.262,-0.028 0.027,-0.019 0.052,-0.097 0.089,-0.127 0.036,-0.029 0.077,-0.052 0.118,-0.076 0.104,-0.061 0.188,-0.127 0.306,-0.153 0.058,-0.013 0.102,-0.031 0.157,-0.056 0.077,-0.035 0.154,-0.042 0.233,-0.07 0.089,-0.031 0.156,-0.102 0.245,-0.14 0.101,-0.044 0.211,-0.061 0.314,-0.1 0.18,-0.067 0.367,-0.129 0.544,-0.202 0.095,-0.039 0.189,-0.129 0.229,0.003 0.041,0.135 0.105,0.258 0.144,0.394 0.048,0.169 0.059,0.339 0.083,0.513 0.009,0.063 0.009,0.171 0.056,0.224 0.026,0.029 0.063,0.03 0.086,0.062 0.04,0.056 -0.013,0.099 -0.058,0.137 -0.097,0.082 -0.232,0.096 -0.334,0.167 -0.112,0.078 -0.238,0.128 -0.362,0.182 -0.161,0.071 -0.322,0.117 -0.488,0.174 -0.16,0.054 -0.328,0.015 -0.482,0.089 -0.093,0.045 -0.168,0.117 -0.263,0.16 -0.188,0.087 -0.387,0.138 -0.562,0.252 -0.519,0.342 -1.109,0.58 -1.673,0.836 -0.25,0.112 -0.489,0.271 -0.75,0.353 -0.246,0.079 -0.494,0.153 -0.741,0.232 -0.444,0.142 -0.908,0.205 -1.355,0.333 -0.271,0.078 -0.529,0.2 -0.788,0.31 -0.268,0.114 -0.534,0.242 -0.789,0.38 -0.246,0.133 -0.483,0.287 -0.717,0.44 -0.193,0.126 -0.39,0.232 -0.59,0.346 -0.472,0.269 -0.93,0.545 -1.434,0.752 -0.44,0.181 -0.898,0.32 -1.342,0.491 C 3.658,-0.103 3.256,0.032 2.833,0.136 2.52,0.213 2.19,0.267 1.9,0.419 1.741,0.502 1.593,0.592 1.423,0.655 1.222,0.73 1.015,0.817 0.81,0.881 0.751,0.899 0.699,0.908 0.644,0.939 0.566,0.982 0.494,1.001 0.408,1.019 0.243,1.055 0.064,1.091 -0.104,1.11 -0.313,1.133 -0.509,1.208 -0.707,1.274 -0.741,1.286 -0.814,1.329 -0.855,1.326 -0.89,1.324 -0.926,1.289 -0.96,1.277 -0.999,1.263 -1.045,1.256 -1.086,1.254 -1.13,1.252 -1.188,1.267 -1.23,1.256 -1.278,1.245 -1.286,1.225 -1.343,1.226 -1.433,1.228 -1.51,1.216 -1.584,1.166 -1.654,1.118 -1.635,0.99 -1.677,0.921 -1.725,0.84 -1.734,0.716 -1.745,0.616 -1.767,0.434 -1.576,0.269 -1.439,0.189 -1.204,0.051 -0.933,0.063 -0.671,0.016 -0.485,-0.017 -0.271,0.007 -0.081,0.01 -0.053,0.011 -0.026,0.007 0,0"
             style="fill:#000000;fill-opacity:1;fill-rule:nonzero;stroke:none"
             id="path4783" />
        </g>
        <g
           id="g4785"
           transform="translate(112.548,362.475)"
           style="fill:#000000">
          <path
             d="M 0,0 C -0.089,-0.082 -0.181,-0.16 -0.274,-0.241 -0.719,-0.627 -1.176,-1 -1.644,-1.359 -1.872,-1.535 -2.117,-1.678 -2.362,-1.828 -2.694,-2.032 -2.99,-2.286 -3.315,-2.5 -3.508,-2.627 -3.699,-2.763 -3.898,-2.88 -4.111,-3.005 -4.333,-3.113 -4.552,-3.227 -4.632,-3.269 -4.72,-3.298 -4.798,-3.34 -4.857,-3.372 -4.907,-3.432 -4.955,-3.476 -5.074,-3.583 -5.193,-3.691 -5.312,-3.798 -5.44,-3.914 -5.567,-4.031 -5.696,-4.146 -5.734,-4.18 -5.759,-4.204 -5.803,-4.224 c -0.056,-0.027 -0.105,-0.058 -0.159,-0.089 -0.189,-0.106 -0.35,-0.265 -0.517,-0.402 -0.261,-0.216 -0.57,-0.384 -0.858,-0.559 -0.27,-0.165 -0.524,-0.348 -0.761,-0.56 -0.155,-0.139 -0.331,-0.226 -0.498,-0.346 -0.15,-0.106 -0.276,-0.243 -0.425,-0.35 -0.108,-0.078 -0.237,-0.153 -0.356,-0.213 -0.132,-0.067 -0.27,-0.085 -0.373,-0.19 -0.074,-0.074 -0.151,-0.144 -0.23,-0.213 -0.067,-0.058 -0.132,-0.11 -0.206,-0.159 -0.067,-0.044 -0.129,-0.084 -0.136,-0.165 -0.011,-0.142 0.086,-0.189 0.181,-0.268 0.121,-0.102 0.18,-0.264 0.302,-0.362 0.098,-0.078 0.186,-0.088 0.26,-0.192 0.034,-0.048 0.093,-0.08 0.088,-0.144 0.048,-0.024 0.065,-0.002 0.103,0.017 0.038,0.019 0.072,0.02 0.114,0.036 0.103,0.038 0.144,0.163 0.198,0.249 0.062,0.101 0.173,0.163 0.265,0.233 0.252,0.189 0.506,0.375 0.763,0.558 0.311,0.222 0.594,0.49 0.924,0.684 0.293,0.172 0.587,0.324 0.845,0.549 0.126,0.109 0.264,0.192 0.402,0.283 0.193,0.126 0.369,0.311 0.583,0.401 0.063,0.027 0.131,0.04 0.196,0.062 0.19,0.062 0.356,0.184 0.533,0.274 0.337,0.169 0.642,0.385 0.964,0.582 0.786,0.479 1.571,0.97 2.308,1.525 0.141,0.106 0.278,0.217 0.422,0.318 0.228,0.16 0.427,0.343 0.64,0.519 0.264,0.217 0.499,0.455 0.742,0.696 0.159,0.157 0.308,0.339 0.479,0.483 0.131,0.111 0.292,0.203 0.434,0.3 0.174,0.12 0.359,0.222 0.542,0.326 0.069,0.039 0.137,0.085 0.207,0.121 0.047,0.023 0.114,0.023 0.093,0.095 0.036,0.012 0.05,0.043 0.078,0.064 0.031,0.023 0.059,0.028 0.089,0.059 C 2.515,0.084 2.466,0.12 2.388,0.191 2.316,0.257 2.244,0.343 2.177,0.416 2.104,0.495 2.012,0.553 1.942,0.634 1.789,0.812 1.664,1.015 1.528,1.207 1.5,1.247 1.467,1.305 1.411,1.31 1.351,1.316 1.308,1.255 1.279,1.211 1.297,1.216 1.285,1.238 1.287,1.239 1.172,1.172 1.116,1.033 1.001,0.957 0.939,0.916 0.869,0.887 0.807,0.844 0.732,0.792 0.673,0.724 0.601,0.668 0.579,0.651 0.518,0.625 0.505,0.605 0.501,0.574 0.497,0.543 0.494,0.512 0.485,0.475 0.468,0.443 0.443,0.416 0.374,0.321 0.26,0.255 0.178,0.171 0.12,0.112 0.06,0.055 0,0"
             style="fill:#000000;fill-opacity:1;fill-rule:nonzero;stroke:none"
             id="path4787" />
        </g>
        <g
           id="g4789"
           transform="translate(100.879,362.134)"
           style="fill:#000000">
          <path
             d="M 0,0 V 0.019 -0.225 C 0,-0.339 -0.005,-0.454 -0.002,-0.568 0.003,-0.715 0.03,-0.859 0.029,-1.007 0.024,-1.715 -0.039,-2.426 0.021,-3.133 c 0.017,-0.198 0.032,-0.396 0.052,-0.594 0.023,-0.235 0.008,-0.471 0.011,-0.707 0.002,-0.237 0.048,-0.466 0.072,-0.7 0.029,-0.297 0.02,-0.596 0.051,-0.893 0.047,-0.457 0.05,-0.907 0.05,-1.365 0,-0.165 0.007,-0.332 -0.001,-0.497 C 0.247,-8.079 0.188,-8.263 0.172,-8.454 0.155,-8.637 0.114,-8.814 0.084,-8.995 0.045,-9.228 0.065,-9.456 0.059,-9.69 0.053,-9.9 0.027,-10.107 0.027,-10.318 c 0.001,-0.217 0.01,-0.435 -0.001,-0.652 -0.018,-0.383 -0.031,-0.763 -0.07,-1.144 -0.019,-0.19 -0.014,-0.381 -0.013,-0.572 0.001,-0.226 -0.011,-0.456 0.002,-0.682 0.014,-0.253 0.064,-0.504 0.087,-0.756 0.007,-0.075 0.012,-0.155 0.031,-0.228 0.014,-0.048 0.045,-0.092 0.053,-0.142 0.005,-0.037 -0.01,-0.077 -0.003,-0.114 0.006,-0.036 0.026,-0.063 0.031,-0.1 0.013,-0.1 0.012,-0.233 -0.007,-0.329 -0.03,-0.15 -0.022,-0.3 -0.023,-0.453 0,-0.124 -0.015,-0.172 0.093,-0.226 0.053,-0.026 0.105,-0.045 0.157,-0.071 0.048,-0.024 0.122,-0.05 0.152,-0.097 -0.013,0.184 -0.031,0.37 -0.03,0.555 0.001,0.25 0.02,0.5 -0.043,0.744 -0.067,0.264 -0.111,0.535 -0.131,0.806 -0.012,0.158 -0.052,0.301 0.003,0.455 0.051,0.143 0.027,0.305 0.029,0.456 0.001,0.137 -0.027,0.268 -0.031,0.405 -0.003,0.154 0.001,0.309 0.001,0.463 0.001,0.347 0.02,0.691 0.058,1.036 0.042,0.39 0.043,0.777 0.115,1.166 0.034,0.177 0.017,0.352 0.044,0.53 0.036,0.234 0.041,0.45 0.041,0.685 0,0.424 0.015,0.852 0.001,1.276 -0.011,0.306 -0.061,0.61 -0.058,0.919 0.005,0.434 -0.049,0.869 -0.058,1.303 -0.005,0.194 -0.016,0.385 -0.046,0.578 -0.029,0.188 -0.028,0.373 -0.054,0.561 -0.023,0.169 -0.021,0.348 -0.015,0.519 0.004,0.133 0.044,0.254 0.07,0.383 0.023,0.113 0.017,0.226 0.038,0.34 0.03,0.167 0.029,0.322 0.035,0.489 0.009,0.297 0.105,0.585 0.138,0.878 0.012,0.108 0.009,0.218 0.006,0.326 -0.001,0.093 -0.057,0.133 -0.082,0.218 -0.024,0.086 -0.004,0.216 -0.004,0.303 0,0.027 0.008,0.066 0.002,0.092 -0.005,0.019 -0.025,0.025 -0.028,0.043 -0.01,0.054 0.008,0.088 -0.023,0.134 -0.024,0.035 -0.061,0.05 -0.095,0.071 -0.041,0.025 -0.061,0.027 -0.107,0.042 -0.03,0.01 -0.058,0.042 -0.09,0.052 C 0.16,-0.044 0.102,-0.03 0.057,-0.028 0.011,-0.026 -0.09,0.014 0,0"
             style="fill:#000000;fill-opacity:1;fill-rule:nonzero;stroke:none"
             id="path4791" />
        </g>
        <g
           id="g4793"
           transform="translate(103.514,354.8)"
           style="fill:#000000">
          <path
             d="m 0,0 c 0.023,-0.125 -0.026,-0.274 -0.026,-0.396 0,-0.12 0.012,-0.237 0.023,-0.356 0.021,-0.217 -0.002,-0.436 0.005,-0.654 0.01,-0.28 0.064,-0.558 0.082,-0.838 C 0.108,-2.614 0.076,-2.983 0.111,-3.353 0.145,-3.7 0.087,-4.052 0.089,-4.401 0.09,-4.606 0.074,-4.815 0.094,-5.019 0.109,-5.178 0.153,-5.331 0.169,-5.49 0.214,-5.915 0.192,-6.341 0.239,-6.766 0.258,-6.943 0.289,-7.115 0.292,-7.294 0.294,-7.448 0.29,-7.604 0.29,-7.758 c 0,-0.32 -0.002,-0.636 0.019,-0.955 0.013,-0.212 0.031,-0.423 0.037,-0.634 0.005,-0.187 0.061,-0.367 0.058,-0.556 -0.002,-0.126 0.036,-0.244 0.03,-0.372 -0.006,-0.139 -0.047,-0.273 -0.031,-0.415 0.007,-0.072 0.044,-0.144 0.061,-0.213 0.006,-0.028 0.022,-0.038 0.026,-0.073 0.004,-0.028 -0.005,-0.059 -0.001,-0.087 0.01,-0.076 0.071,-0.088 0.143,-0.114 0.06,-0.021 0.229,-0.109 0.283,-0.089 0.081,0.031 -0.032,0.19 -0.054,0.258 -0.065,0.2 -0.099,0.405 -0.12,0.612 -0.009,0.08 -0.026,0.152 -0.052,0.227 -0.034,0.099 -0.027,0.201 -0.049,0.302 -0.038,0.186 -0.065,0.352 -0.068,0.542 -0.002,0.166 0.03,0.323 0.063,0.485 0.023,0.116 0.03,0.227 0.018,0.345 -0.018,0.191 -0.031,0.38 -0.043,0.571 -0.02,0.319 -0.006,0.643 -0.006,0.963 0,0.205 0.017,0.418 -0.006,0.623 -0.014,0.121 -0.062,0.224 -0.106,0.336 -0.05,0.126 -0.056,0.256 -0.028,0.389 0.038,0.174 0.024,0.351 0.069,0.526 0.019,0.078 0.005,0.148 0.012,0.227 0.005,0.048 0.026,0.089 0.032,0.137 0.007,0.053 -0.002,0.112 -0.002,0.166 0.001,0.247 -0.002,0.494 0.001,0.74 0.001,0.123 -0.015,0.259 -0.036,0.38 -0.025,0.146 -0.042,0.28 -0.049,0.428 -0.006,0.139 -0.046,0.277 -0.059,0.416 -0.016,0.184 -0.061,0.368 -0.093,0.55 -0.026,0.144 -0.052,0.296 -0.05,0.443 0.001,0.071 0,0.142 0.001,0.214 0.002,0.117 -0.027,0.228 -0.03,0.345 -0.011,0.306 -0.004,0.604 0.057,0.904 0.015,0.074 0.054,0.196 0.015,0.269 C 0.264,0.261 0.038,0.116 -0.023,0.071 -0.012,0.049 -0.005,0.025 0,0"
             style="fill:#000000;fill-opacity:1;fill-rule:nonzero;stroke:none"
             id="path4795" />
        </g>
        <g
           id="g4797"
           transform="translate(114.43,362.648)"
           style="fill:#000000">
          <path
             d="m 0,0 c -0.059,-0.161 -0.051,-0.302 -0.06,-0.473 -0.011,-0.241 -0.061,-0.479 -0.077,-0.719 -0.016,-0.242 -0.016,-0.483 -0.041,-0.725 -0.03,-0.29 -0.076,-0.576 -0.081,-0.868 -0.007,-0.508 0.002,-1.018 0.002,-1.526 0,-0.27 -0.01,-0.542 -0.002,-0.811 0.009,-0.286 0.04,-0.572 0.052,-0.858 0.021,-0.494 0.036,-0.973 0.123,-1.461 0.044,-0.247 0.043,-0.501 0.071,-0.749 0.027,-0.245 0.014,-0.48 -0.03,-0.722 -0.085,-0.477 -0.1,-0.969 -0.158,-1.451 -0.021,-0.174 -0.023,-0.349 -0.05,-0.522 -0.004,-0.024 -0.01,-0.042 -0.008,-0.065 0.003,-0.03 0.02,-0.042 0.024,-0.062 0.053,-0.235 -0.044,-0.526 -0.108,-0.745 -0.13,-0.442 -0.17,-0.88 -0.207,-1.336 -0.018,-0.221 -0.018,-0.439 -0.02,-0.66 -0.003,-0.222 -0.04,-0.437 -0.028,-0.661 0.016,-0.32 0.084,-0.63 0.083,-0.952 0,-0.201 0.012,-0.403 -0.022,-0.601 -0.017,-0.098 -0.019,-0.201 -0.031,-0.3 -0.013,-0.104 -0.034,-0.206 -0.033,-0.311 0.003,-0.284 0.006,-0.561 0.035,-0.844 0.024,-0.225 0.051,-0.45 0.051,-0.676 0,-0.067 -0.037,-0.331 0.016,-0.368 0.032,-0.023 0.105,0.018 0.132,0.032 0.068,0.035 0.112,0.086 0.191,0.085 0.026,0.098 -0.008,0.2 -0.022,0.296 -0.011,0.079 0.009,0.16 -0.001,0.238 -0.008,0.068 -0.031,0.12 -0.03,0.192 0.001,0.047 0,0.095 0,0.142 0.001,0.087 -0.037,0.168 -0.032,0.258 0.004,0.062 0.026,0.12 0.032,0.182 0.007,0.088 -0.022,0.177 -0.027,0.265 -0.007,0.105 -0.001,0.211 -0.001,0.316 0,0.198 0,0.396 0,0.593 0,0.154 -0.006,0.31 -0.002,0.464 0.003,0.144 0.058,0.28 0.061,0.425 0.007,0.308 -0.038,0.611 -0.033,0.919 0.003,0.142 0.056,0.252 0.087,0.386 0.043,0.186 0.104,0.358 0.167,0.539 0.126,0.355 0.091,0.75 0.091,1.12 0,0.388 -0.034,0.767 -0.054,1.154 -0.014,0.257 -0.002,0.516 -0.004,0.773 -0.003,0.462 0.249,0.88 0.312,1.333 0.035,0.247 0.054,0.511 0.026,0.759 -0.015,0.129 -0.022,0.259 -0.043,0.387 -0.019,0.119 -0.023,0.238 -0.042,0.356 -0.015,0.095 -0.058,0.186 -0.08,0.279 -0.028,0.117 -0.065,0.231 -0.093,0.349 -0.022,0.09 -0.05,0.183 -0.079,0.271 -0.035,0.104 -0.02,0.198 -0.035,0.305 C -0.015,-5.788 0,-5.523 0,-5.26 c 0,0.224 -0.018,0.456 0.022,0.676 0.025,0.135 -0.002,0.275 0.005,0.411 0.003,0.053 0.016,0.102 0.024,0.154 0.014,0.095 -0.002,0.19 0.012,0.285 0.022,0.134 0.041,0.268 0.059,0.403 0.023,0.17 0.011,0.336 0.027,0.506 0.03,0.322 0.084,0.645 0.13,0.965 0.022,0.147 0.007,0.305 0.007,0.453 v 0.431 c 0,0.092 0.007,0.188 -0.002,0.279 C 0.272,-0.59 0.231,-0.496 0.228,-0.387 0.224,-0.23 0.195,-0.081 0.201,0.076 0.223,-0.004 0.076,0.036 0.033,0.024 0.032,0.016 0.03,0.008 0,0"
             style="fill:#000000;fill-opacity:1;fill-rule:nonzero;stroke:none"
             id="path4799" />
        </g>
        <g
           id="g4801"
           transform="translate(117.145,355.502)"
           style="fill:#000000">
          <path
             d="m 0,0 c 0,-0.233 0.008,-0.465 -0.027,-0.696 -0.03,-0.205 -0.089,-0.403 -0.11,-0.609 -0.024,-0.23 -0.037,-0.46 -0.035,-0.691 0.002,-0.376 -0.048,-0.744 -0.056,-1.119 -0.004,-0.201 -0.031,-0.398 -0.03,-0.6 0.001,-0.165 0.001,-0.331 0.001,-0.497 V -4.86 c 0,-0.192 0.014,-0.388 -0.007,-0.579 -0.025,-0.233 -0.022,-0.464 -0.022,-0.699 0,-0.189 -0.028,-0.363 -0.03,-0.55 -0.002,-0.16 -0.005,-0.321 -0.009,-0.481 -0.009,-0.326 -0.018,-0.651 -0.018,-0.977 0,-0.184 0.029,-0.36 0.029,-0.542 -0.001,-0.083 -0.001,-0.165 0,-0.247 0,-0.043 -0.011,-0.107 0.004,-0.147 0.093,0.059 0.125,0.167 0.168,0.262 0.019,0.043 0.047,0.083 0.057,0.13 0.012,0.052 0.023,0.063 0.05,0.111 0.034,0.059 0.025,0.127 0.034,0.189 0.008,0.05 0.028,0.089 0.031,0.142 0.007,0.181 -10e-4,0.363 -10e-4,0.543 v 1.148 c 0,0.135 -0.007,0.271 0,0.406 0.004,0.083 0.04,0.142 0.062,0.22 0.029,0.1 -0.016,0.199 -0.027,0.3 -0.014,0.132 0.008,0.264 0.027,0.395 0.018,0.123 0.061,0.244 0.083,0.367 0.026,0.145 0.023,0.29 0.033,0.437 0.02,0.303 0.021,0.605 0.067,0.906 0.037,0.242 0.093,0.479 0.099,0.725 0.005,0.234 -0.001,0.469 -0.001,0.703 0,0.207 0.019,0.424 -0.014,0.629 -0.024,0.154 -0.044,0.288 -0.043,0.445 0,0.116 0.014,0.241 -0.014,0.352 -0.022,0.085 -0.045,0.136 -0.044,0.229 0.001,0.076 -0.001,0.152 0,0.229 0,0.028 0.004,0.056 -0.002,0.083 -0.006,0.025 -0.03,0.037 -0.031,0.069 C 0.117,-0.037 0.021,-0.006 0,0"
             style="fill:#000000;fill-opacity:1;fill-rule:nonzero;stroke:none"
             id="path4803" />
        </g>
        <g
           id="g4805"
           transform="translate(109.284,358.275)"
           style="fill:#000000">
          <path
             d="m 0,0 c -0.008,-0.001 -0.016,-0.002 -0.024,-0.004 -0.02,-0.052 -0.005,-0.148 -0.005,-0.2 0,-0.187 0,-0.375 0.001,-0.562 0.001,-0.266 -0.017,-0.527 -0.027,-0.793 -0.011,-0.295 0.012,-0.592 -0.008,-0.887 -0.025,-0.362 -0.027,-0.724 -0.024,-1.087 0.002,-0.234 0.039,-0.464 0.053,-0.697 0.019,-0.319 0.01,-0.638 0.034,-0.958 0.036,-0.487 0.057,-0.968 0.057,-1.457 0,-0.235 0.009,-0.471 -0.001,-0.706 C 0.044,-7.63 -0.009,-7.907 -0.023,-8.187 -0.033,-8.393 -0.028,-8.598 -0.028,-8.804 -0.029,-8.971 -0.035,-9.139 -0.014,-9.305 0.037,-9.715 0,-10.151 0,-10.564 c 0,-0.166 0.008,-0.334 -0.002,-0.5 -0.009,-0.143 -0.028,-0.28 -0.027,-0.424 0.001,-0.141 0,-0.281 0.001,-0.422 0.001,-0.138 -0.027,-0.271 -0.043,-0.408 -0.037,-0.311 -0.129,-0.642 -0.096,-0.957 0.021,-0.194 0.084,-0.393 0.082,-0.587 -0.004,-0.392 -10e-4,-0.784 -10e-4,-1.176 0,-0.083 -0.011,-0.174 0,-0.257 0.01,-0.085 0.066,-0.087 0.143,-0.107 0.039,-0.01 0.075,-0.011 0.115,0 0.04,0.011 0.075,0.012 0.114,0.02 0.122,0.024 0.01,0.186 -0.007,0.26 -0.071,0.298 -0.022,0.597 -0.052,0.897 -0.011,0.105 -0.039,0.208 -0.05,0.314 -0.017,0.177 0.004,0.355 -0.007,0.532 -0.012,0.205 -0.06,0.398 -0.057,0.607 0.001,0.092 0.001,0.185 0.001,0.277 0,0.227 0.012,0.437 0.056,0.661 0.029,0.146 0.081,0.288 0.116,0.433 0.037,0.152 0.045,0.299 0.063,0.453 0.025,0.213 0.071,0.426 0.081,0.64 0.006,0.11 -0.009,0.219 0.001,0.329 0.012,0.136 0.035,0.256 0.024,0.396 -0.023,0.313 -0.062,0.624 -0.085,0.937 -0.01,0.14 -0.053,0.273 -0.058,0.415 -0.004,0.128 0.002,0.258 0.002,0.386 0,0.171 -0.008,0.345 -0.001,0.516 0.006,0.138 0.032,0.271 0.031,0.41 -0.002,0.276 0.028,0.542 0.072,0.814 0.024,0.151 0.1,0.293 0.101,0.448 0,0.035 -0.006,0.07 -0.005,0.104 0.003,0.08 0.037,0.149 0.053,0.227 0.045,0.215 0.035,0.43 0.035,0.648 0,0.299 -0.002,0.595 -0.056,0.892 -0.046,0.252 -0.119,0.501 -0.187,0.748 -0.037,0.131 -0.032,0.263 -0.059,0.395 -0.025,0.117 -0.066,0.227 -0.07,0.348 -0.004,0.117 -0.027,0.232 -0.029,0.349 -0.001,0.113 0.001,0.227 0.001,0.34 0,0.162 -0.018,0.334 0.013,0.493 0.017,0.086 0.044,0.165 0.045,0.253 0.001,0.077 -0.001,0.155 -0.001,0.232 0,0.066 -0.003,0.132 -0.001,0.198 0.003,0.079 0.028,0.152 0.031,0.231 0.002,0.08 0.022,0.19 -0.037,0.249 C 0.193,0.107 0.106,0.086 0,0"
             style="fill:#000000;fill-opacity:1;fill-rule:nonzero;stroke:none"
             id="path4807" />
        </g>
      </g>
    </g>
  </g>
</svg>
