<?xml version="1.0" encoding="UTF-8" standalone="no"?>
<!-- Created with Inkscape (http://www.inkscape.org/) -->

<svg
   width="22.111414"
   height="24"
   viewBox="0 0 5.8503115 6.35"
   version="1.1"
   id="svg40512"
   inkscape:version="1.2.1 (9c6d41e4, 2022-07-14)"
   sodipodi:docname="hauntings.svg"
   xmlns:inkscape="http://www.inkscape.org/namespaces/inkscape"
   xmlns:sodipodi="http://sodipodi.sourceforge.net/DTD/sodipodi-0.dtd"
   xmlns="http://www.w3.org/2000/svg"
   xmlns:svg="http://www.w3.org/2000/svg">
  <sodipodi:namedview
     id="namedview40514"
     pagecolor="#505050"
     bordercolor="#eeeeee"
     borderopacity="1"
     inkscape:showpageshadow="0"
     inkscape:pageopacity="0"
     inkscape:pagecheckerboard="0"
     inkscape:deskcolor="#505050"
     inkscape:document-units="mm"
     showgrid="false"
     inkscape:zoom="0.2102413"
     inkscape:cx="-7.134659"
     inkscape:cy="4.7564393"
     inkscape:window-width="1309"
     inkscape:window-height="456"
     inkscape:window-x="0"
     inkscape:window-y="25"
     inkscape:window-maximized="0"
     inkscape:current-layer="layer1" />
  <defs
     id="defs40509">
    <clipPath
       clipPathUnits="userSpaceOnUse"
       id="clipPath1799">
      <path
         d="m 379.15,287.799 h 24.7 v 24.699 h -24.7 z"
         id="path1797" />
    </clipPath>
  </defs>
  <g
     inkscape:label="Layer 1"
     inkscape:groupmode="layer"
     id="layer1"
     transform="translate(-107.2825,-147.25789)">
    <g
       id="g1793"
       transform="matrix(0.29796504,0,0,-0.29796504,-6.5025633,239.93458)">
      <g
         id="g1795"
         clip-path="url(#clipPath1799)">
        <g
           id="g1801"
           transform="translate(393.539,291.577)">
          <path
             d="M 0,0 C 0.001,0 0.002,0 0.002,0 0.043,0.008 0.081,0.013 0.114,0.012 0.075,0.021 0.037,0.025 0,0"
             style="fill:#231f20;fill-opacity:1;fill-rule:nonzero;stroke:none"
             id="path1803" />
        </g>
        <g
           id="g1805"
           transform="translate(393.716,291.576)">
          <path
             d="M 0,0 C -0.016,0.009 -0.039,0.013 -0.063,0.014 -0.043,0.009 -0.021,0.004 0,0"
             style="fill:#231f20;fill-opacity:1;fill-rule:nonzero;stroke:none"
             id="path1807" />
        </g>
        <g
           id="g1809"
           transform="translate(401.468,296.48)">
          <path
             d="M 0,0 C -0.016,0.096 -0.015,0.193 -0.029,0.29 -0.08,0.63 -0.168,0.937 -0.373,1.241 -0.566,1.527 -0.79,1.786 -1.07,2.022 -1.25,2.173 -1.421,2.329 -1.609,2.473 -1.814,2.63 -1.979,2.799 -2.208,2.935 -2.382,3.038 -2.56,3.115 -2.747,3.201 -2.976,3.307 -3.22,3.39 -3.449,3.494 -3.521,3.527 -3.578,3.564 -3.658,3.588 -3.664,3.59 -3.67,3.591 -3.675,3.592 -3.708,3.583 -3.74,3.575 -3.775,3.573 -3.885,3.567 -3.983,3.61 -4.087,3.629 -4.2,3.649 -4.315,3.658 -4.424,3.69 -4.54,3.725 -4.656,3.762 -4.771,3.8 -4.886,3.836 -4.996,3.883 -5.108,3.926 -5.106,3.918 -5.103,3.91 -5.102,3.902 c -0.444,0.057 -0.894,0.073 -1.341,0.122 -0.096,0.011 -0.192,0.02 -0.29,0.015 -0.166,-0.008 -0.3,0.019 -0.465,0.037 -0.205,0.021 -0.402,0.062 -0.604,0.095 -0.117,0.019 -0.237,0.036 -0.353,0.055 -0.031,0.005 -0.047,0.002 -0.072,0.02 -0.054,0.037 -0.078,0.096 -0.141,0.133 -0.105,0.064 -0.235,0.103 -0.335,0.173 0.053,0.112 0.099,0.229 0.131,0.348 0.056,0.208 0.048,0.428 0.113,0.633 0.066,0.205 0.145,0.407 0.204,0.614 0.026,0.093 0.048,0.188 0.059,0.284 0.006,0.044 10e-4,0.093 0.016,0.135 0.028,0.08 0.07,0.153 0.09,0.238 0.018,0.08 0.033,0.162 0.051,0.242 0.006,0.023 0.01,0.046 0.015,0.068 0.084,-0.049 0.168,-0.1 0.254,-0.15 0.287,-0.171 0.609,-0.272 0.889,-0.452 0.135,-0.086 0.258,-0.232 0.365,-0.355 0.103,-0.119 0.167,-0.262 0.254,-0.394 0.082,-0.125 0.182,-0.212 0.286,-0.314 0.164,-0.16 0.301,-0.358 0.442,-0.542 0.027,-0.037 0.05,-0.075 0.07,-0.115 0.037,0.016 0.075,0.031 0.114,0.043 0.059,0.018 0.118,0.026 0.178,0.034 0.159,0.023 0.309,0.062 0.458,0.124 0.134,0.056 0.302,0.129 0.45,0.216 -0.005,0.032 -0.009,0.064 -0.015,0.096 -0.017,0.087 -0.027,0.176 -0.042,0.264 -0.013,0.07 -0.03,0.208 -0.078,0.271 C -4.428,5.878 -4.48,5.902 -4.514,5.935 -4.573,5.993 -4.617,6.068 -4.661,6.137 -4.704,6.204 -4.739,6.273 -4.803,6.322 -4.858,6.366 -4.926,6.384 -4.984,6.423 -5.089,6.492 -5.115,6.535 -5.254,6.546 -5.378,6.555 -5.5,6.537 -5.623,6.534 -5.71,6.532 -5.772,6.545 -5.803,6.634 -5.822,6.688 -5.832,6.747 -5.85,6.802 -5.892,6.925 -5.942,7.039 -6.035,7.131 -6.134,7.227 -6.227,7.315 -6.306,7.429 -6.38,7.534 -6.436,7.649 -6.509,7.754 -6.603,7.888 -6.661,8.033 -6.765,8.158 -6.806,8.207 -6.829,8.257 -6.871,8.299 -6.926,8.353 -6.939,8.448 -6.998,8.496 -7.07,8.555 -7.15,8.449 -7.234,8.452 c -0.079,0.003 -0.172,0.071 -0.242,0.104 -0.095,0.045 -0.19,0.089 -0.291,0.118 -0.097,0.028 -0.194,0.051 -0.292,0.074 -0.008,0.066 -0.015,0.132 -0.025,0.198 -0.023,0.141 -0.05,0.279 -0.071,0.42 -0.011,0.076 10e-4,0.15 -0.009,0.226 -0.013,0.103 -0.043,0.198 -0.041,0.302 0.002,0.121 -0.042,0.238 -0.083,0.351 -0.037,0.105 -0.092,0.203 -0.132,0.307 -0.041,0.106 -0.08,0.209 -0.133,0.308 -0.084,0.158 -0.182,0.317 -0.283,0.463 -0.08,0.116 -0.162,0.231 -0.259,0.331 -0.014,0.016 -0.045,0.063 -0.071,0.095 0.046,-0.01 -0.003,0.023 -0.027,0.054 -0.045,0.057 -0.068,0.096 -0.136,0.051 -0.044,-0.03 -0.069,-0.074 -0.112,-0.107 -0.04,-0.031 -0.076,-0.065 -0.122,-0.086 -0.079,-0.036 -0.229,-0.036 -0.285,-0.11 -0.037,-0.05 0.007,-0.061 0.047,-0.094 0.014,-0.012 0.056,-0.039 0.067,-0.055 0.015,-0.023 0.009,-0.069 0.02,-0.096 0.027,-0.067 0.053,-0.131 0.077,-0.199 0.037,-0.111 0.128,-0.19 0.165,-0.301 0.046,-0.134 0.104,-0.272 0.169,-0.398 0.037,-0.073 0.069,-0.134 0.082,-0.217 0.013,-0.077 0.018,-0.155 0.032,-0.231 0.024,-0.129 0.09,-0.238 0.117,-0.363 0.034,-0.155 0.04,-0.295 0.04,-0.452 0,-0.069 10e-4,-0.137 -0.004,-0.205 -0.012,0.001 -0.024,0.003 -0.036,0.003 -0.048,0.001 -0.086,0 -0.131,0.018 -0.145,0.059 -0.266,0.144 -0.424,0.174 -0.187,0.036 -0.384,-0.049 -0.577,-0.023 -0.12,0.016 -0.203,0.071 -0.313,0.102 -0.105,0.03 -0.258,-0.011 -0.366,-0.025 -0.186,-0.023 -0.326,-0.135 -0.498,-0.197 -0.1,-0.036 -0.202,-0.05 -0.293,-0.108 C -11.761,8.827 -11.835,8.76 -11.929,8.715 -12.068,8.648 -12.212,8.606 -12.361,8.566 -12.717,8.471 -13.032,8.23 -13.308,7.993 -13.428,7.89 -13.54,7.775 -13.625,7.641 -13.742,7.458 -13.911,7.31 -14.067,7.16 c -0.108,-0.106 -0.22,-0.183 -0.31,-0.307 -0.109,-0.151 -0.232,-0.295 -0.298,-0.472 -0.044,-0.119 -0.106,-0.236 -0.162,-0.352 0.104,-0.023 0.207,-0.028 0.336,-0.004 0.174,0.031 0.332,-0.03 0.475,-0.091 0.164,-0.071 0.303,-0.147 0.476,-0.201 0.006,0.012 0.01,0.024 0.015,0.036 0.194,0.44 0.493,0.803 0.797,1.155 h -0.001 c 0.008,0.062 0.058,0.102 0.116,0.133 0.022,0.024 0.043,0.048 0.064,0.072 -0.02,-0.025 -0.037,-0.047 -0.053,-0.067 0.06,0.03 0.127,0.052 0.169,0.079 0.051,0.033 0.082,0.107 0.137,0.138 0.044,0.025 0.114,0.049 0.164,0.057 0.082,0.013 0.147,0.037 0.227,0.064 0.124,0.042 0.248,0.056 0.372,0.105 0.1,0.039 0.192,0.043 0.301,0.055 0.168,0.018 0.336,0.041 0.504,0.056 0.137,0.012 0.257,-0.011 0.393,-0.025 0.153,-0.016 0.306,0.003 0.459,-0.011 C -9.71,7.564 -9.54,7.511 -9.368,7.475 -9.41,7.223 -9.41,6.964 -9.415,6.71 -9.421,6.436 -9.606,6.268 -9.743,6.057 -9.788,5.987 -9.841,5.936 -9.892,5.871 -9.925,5.828 -9.95,5.791 -9.964,5.742 -9.972,5.709 -9.975,5.676 -9.987,5.644 -10.011,5.578 -10.047,5.517 -10.077,5.454 -10.142,5.321 -10.2,5.185 -10.26,5.05 -10.279,5.032 -10.296,5.008 -10.316,4.992 -10.362,4.954 -10.43,4.917 -10.49,4.895 -10.605,4.854 -10.758,4.826 -10.88,4.81 c -0.184,-0.025 -0.367,-0.057 -0.552,-0.076 -0.108,-0.01 -0.216,-0.017 -0.325,-0.013 -0.254,0.008 -0.502,0.114 -0.731,0.188 -0.128,0.042 -0.284,0.048 -0.426,0.061 -0.227,0.021 -0.459,0.025 -0.688,0.02 -0.085,-0.002 -0.17,0.002 -0.255,0.006 0.003,0.007 0.006,0.014 0.009,0.022 -0.003,-10e-4 -0.006,0 -0.009,-10e-4 C -13.925,5.01 -14,5.001 -14.068,5.006 c -0.093,0.007 -0.161,0.061 -0.249,0.077 -0.076,0.013 -0.159,0.005 -0.236,0.018 -0.236,0.038 -0.512,0.109 -0.692,0.236 -0.102,0.072 -0.24,0.096 -0.346,0.158 -0.082,0.037 -0.164,0.076 -0.248,0.115 -0.186,0.086 -0.382,0.162 -0.559,0.26 -0.252,0.139 -0.41,0.356 -0.568,0.56 -0.201,0.26 -0.448,0.484 -0.603,0.768 -0.119,0.22 -0.204,0.495 -0.226,0.735 -0.022,0.24 -0.042,0.501 -0.018,0.74 0.022,0.211 0.018,0.472 0.154,0.661 0.042,0.057 0.101,0.104 0.152,0.156 0.036,0.037 0.068,0.076 0.098,0.117 0.126,0.172 0.252,0.339 0.398,0.503 0.041,0.047 0.08,0.095 0.115,0.146 0.06,0.061 0.124,0.119 0.193,0.174 0.06,0.06 0.109,0.119 0.152,0.187 0.104,0.161 0.183,0.328 0.299,0.484 0.096,0.129 0.197,0.26 0.275,0.399 0.025,0.044 0.048,0.072 0.086,0.107 0.103,0.093 0.203,0.191 0.313,0.276 0.108,0.085 0.2,0.167 0.283,0.276 0.081,0.106 0.178,0.143 0.281,0.223 0.109,0.084 0.248,0.141 0.381,0.181 0.113,0.034 0.191,0.057 0.249,0.173 0.035,0.071 0.035,0.153 0.05,0.23 0.011,0.056 0.05,0.114 0.058,0.163 0.005,0.032 -0.007,0.062 -0.002,0.096 0.005,0.032 0.027,0.045 0.008,0.079 -0.029,0.052 -0.118,0.048 -0.164,0.049 -0.004,0.015 -0.009,0.03 -0.014,0.045 -0.029,0.005 -0.052,-0.009 -0.08,-0.005 -0.026,0.003 -0.03,0.022 -0.056,0.025 -0.023,0.003 -0.047,-0.009 -0.071,-0.007 -0.031,0.002 -0.053,0.023 -0.086,0.019 -0.066,-0.008 -0.124,-0.044 -0.182,-0.075 -0.026,-0.014 -0.069,-0.026 -0.091,-0.044 -0.019,-0.017 -0.019,-0.032 -0.04,-0.049 -0.056,-0.042 -0.156,-0.062 -0.221,-0.089 -0.073,-0.031 -0.146,-0.062 -0.218,-0.094 -0.274,-0.124 -0.542,-0.262 -0.797,-0.421 -0.178,-0.11 -0.365,-0.206 -0.54,-0.319 -0.175,-0.114 -0.343,-0.235 -0.523,-0.342 -0.167,-0.099 -0.319,-0.222 -0.464,-0.34 -0.121,-0.1 -0.207,-0.208 -0.298,-0.327 -0.094,-0.124 -0.206,-0.236 -0.305,-0.358 -0.097,-0.12 -0.153,-0.238 -0.223,-0.368 -0.07,-0.128 -0.144,-0.236 -0.232,-0.355 -0.04,-0.055 -0.068,-0.113 -0.107,-0.168 -0.076,-0.108 -0.171,-0.201 -0.235,-0.314 -0.168,-0.299 -0.322,-0.637 -0.351,-0.962 -0.013,-0.157 -0.022,-0.313 -0.026,-0.469 -0.002,-0.088 0.023,-0.164 0.038,-0.251 0.014,-0.088 0.014,-0.176 0.027,-0.264 0.047,-0.31 0.128,-0.59 0.317,-0.868 0.177,-0.26 0.383,-0.496 0.64,-0.712 0.164,-0.138 0.321,-0.28 0.494,-0.412 0.187,-0.143 0.339,-0.297 0.549,-0.421 0.159,-0.095 0.322,-0.165 0.494,-0.244 0.058,-0.027 0.119,-0.051 0.179,-0.075 0.022,-0.008 0.043,-0.017 0.065,-0.024 0.174,-0.054 0.35,-0.09 0.522,-0.149 0.215,-0.072 0.44,-0.097 0.652,-0.182 0.087,-0.035 0.167,-0.079 0.261,-0.099 0.082,-0.018 0.154,-0.03 0.231,-0.065 0.098,-0.044 0.156,-0.078 0.268,-0.088 0.09,-0.007 0.171,-0.017 0.26,-0.038 0.174,-0.041 0.332,-0.037 0.511,-0.039 0.022,0 0.043,0 0.065,-0.001 0.002,0.013 0.005,0.025 0.006,0.037 0.121,-0.01 0.241,-0.02 0.361,-0.034 0.089,-0.01 0.176,-0.018 0.266,-0.014 0.152,0.008 0.274,-0.017 0.425,-0.034 0.219,-0.023 0.464,-0.119 0.689,-0.083 0.069,0.011 0.13,0.036 0.203,0.032 0.207,-0.012 0.389,-0.182 0.512,-0.299 0.084,-0.081 0.125,-0.184 0.201,-0.269 0.034,-0.038 0.084,-0.069 0.114,-0.11 0.034,-0.048 0.047,-0.107 0.072,-0.157 0.021,-0.044 0.044,-0.089 0.067,-0.134 -10e-4,-0.002 -0.002,-0.003 -0.003,-0.005 -0.031,-0.079 -0.049,-0.165 -0.059,-0.25 -0.012,-0.099 -0.002,-0.198 -0.004,-0.297 -0.003,-0.121 -0.047,-0.221 -0.075,-0.336 -0.04,-0.167 -0.046,-0.318 -0.048,-0.489 -0.002,-0.191 0.039,-0.376 0.045,-0.567 0.004,-0.115 0.04,-0.228 0.033,-0.345 -0.001,-0.027 -0.004,-0.056 -0.013,-0.082 -0.008,-0.024 -0.034,-0.045 -0.04,-0.066 -0.021,-0.068 0.032,-0.205 0.042,-0.279 0.03,-0.216 0.036,-0.436 0.071,-0.651 -0.162,0.013 -0.321,0.047 -0.473,0.12 -0.204,0.098 -0.366,0.252 -0.544,0.398 -0.166,0.136 -0.338,0.211 -0.453,0.412 -0.04,0.071 -0.072,0.15 -0.115,0.219 -0.062,0.097 -0.149,0.166 -0.221,0.252 -0.136,0.161 -0.206,0.374 -0.32,0.554 -0.057,0.09 -0.119,0.17 -0.188,0.249 -0.118,0.134 -0.209,0.221 -0.286,0.393 -0.072,0.161 -0.137,0.309 -0.227,0.461 -0.13,0.22 -0.14,0.489 -0.116,0.758 -0.183,-0.049 -0.362,-0.104 -0.553,-0.079 -0.145,0.02 -0.281,0.052 -0.429,0.059 -0.153,0.008 -0.305,-0.018 -0.457,-0.002 0.007,-0.057 0.015,-0.115 0.02,-0.172 0.017,-0.166 0.067,-0.321 0.082,-0.486 0.01,-0.112 0.053,-0.204 0.064,-0.316 0.012,-0.128 0.029,-0.256 0.04,-0.384 0.009,-0.117 0.03,-0.348 0.192,-0.357 0.049,-0.002 0.115,0.05 0.164,0.02 0.06,-0.037 0.047,-0.149 0.054,-0.207 0.041,-0.33 0.139,-0.68 0.297,-0.975 0.079,-0.149 0.147,-0.307 0.229,-0.454 0.048,-0.086 0.129,-0.155 0.181,-0.242 0.045,-0.073 0.092,-0.184 0.179,-0.217 0.03,-0.011 0.064,-0.002 0.092,-0.015 0.044,-0.02 0.055,-0.044 0.107,-0.054 0.158,-0.034 0.221,-0.1 0.316,-0.223 0.121,-0.157 0.305,-0.229 0.478,-0.313 0.212,-0.102 0.426,-0.199 0.641,-0.293 0.021,-0.009 0.042,-0.019 0.064,-0.028 0.363,-0.159 0.716,-0.303 1.101,-0.386 0.205,-0.044 0.411,-0.082 0.616,-0.122 0.043,-0.082 0.084,-0.166 0.116,-0.255 0.07,-0.2 0.148,-0.375 0.256,-0.556 0.19,-0.317 0.316,-0.671 0.507,-0.986 0.097,-0.16 0.202,-0.305 0.288,-0.473 0.045,-0.09 0.08,-0.166 0.141,-0.244 0.062,-0.08 0.093,-0.15 0.118,-0.251 0.011,-0.043 0.034,-0.118 0.041,-0.168 0.002,-0.012 -0.002,-0.06 0.007,-0.07 0.03,-0.029 0.128,0.015 0.161,0.026 0.06,0.019 0.111,0.051 0.171,0.069 0.049,0.014 0.07,0.025 0.114,0.051 0.046,0.026 0.096,0.031 0.146,0.053 0.089,0.039 0.174,0.082 0.265,0.105 0.018,0.005 0.145,0.034 0.15,0.042 0.017,0.029 -0.024,0.073 -0.038,0.096 -0.056,0.091 -0.093,0.192 -0.146,0.287 -0.1,0.182 -0.237,0.339 -0.376,0.488 -0.076,0.08 -0.172,0.158 -0.223,0.259 -0.082,0.162 -0.119,0.353 -0.183,0.523 -0.113,0.295 -0.238,0.583 -0.365,0.871 0.047,0.004 0.094,0.007 0.14,0.009 0.506,0.031 1.037,-0.059 1.534,0.061 0.272,0.065 0.524,0.202 0.789,0.29 0.095,0.032 0.209,0.048 0.295,0.1 0.09,0.055 0.148,0.128 0.249,0.167 0.096,0.037 0.165,0.087 0.25,0.142 0.036,0.023 0.08,0.051 0.125,0.051 0.042,0 0.074,-0.03 0.115,-0.034 0.063,-0.007 0.106,0.049 0.156,0.087 0.07,0.053 0.137,0.102 0.201,0.163 0.18,0.173 0.357,0.317 0.583,0.423 0.15,0.071 0.242,0.253 0.344,0.376 0.09,0.108 0.193,0.202 0.279,0.313 0.057,0.073 0.1,0.153 0.13,0.241 0.015,0.045 0.022,0.093 0.039,0.137 0.038,0.102 0.111,0.191 0.154,0.294 0.02,0.05 0.039,0.1 0.058,0.151 -0.025,0.042 -0.051,0.082 -0.082,0.122 -0.044,0.056 -0.09,0.104 -0.128,0.162 -0.013,0.02 -0.021,0.035 -0.04,0.052 -0.053,0.05 -0.137,0.087 -0.199,0.13 -0.076,0.052 -0.15,0.107 -0.224,0.162 C -4.8,2.08 -4.9,2.147 -5.014,2.2 -5.107,2.244 -5.182,2.277 -5.252,2.342 -5.291,2.379 -5.329,2.414 -5.368,2.449 -5.435,2.34 -5.502,2.233 -5.554,2.11 -5.645,1.893 -5.711,1.688 -5.842,1.494 -5.934,1.356 -6.03,1.222 -6.117,1.08 -6.208,0.935 -6.259,0.761 -6.351,0.619 -6.477,0.424 -6.749,0.24 -6.95,0.154 -7.012,0.128 -7.079,0.117 -7.143,0.1 -7.272,0.066 -7.378,0.004 -7.497,-0.055 -7.69,-0.15 -7.933,-0.187 -8.142,-0.224 c -0.276,-0.048 -0.537,-0.04 -0.815,-0.016 -0.08,0.007 -0.162,0.003 -0.239,0.032 -0.075,0.028 -0.141,0.087 -0.212,0.123 -0.098,0.048 -0.218,0.068 -0.32,0.101 -0.102,0.033 -0.19,0.05 -0.296,0.042 -0.033,-0.003 -0.066,-0.008 -0.1,-0.011 -0.01,0.207 0.001,0.415 -0.043,0.622 -0.022,0.101 -0.055,0.202 -0.067,0.306 -0.014,0.118 -0.003,0.243 -0.003,0.362 0,0.2 0,0.414 0.052,0.609 0.049,0.182 0.136,0.35 0.199,0.527 0.064,0.177 0.08,0.367 0.142,0.543 0.009,0.003 0.017,0.007 0.026,0.01 0.178,0.056 0.358,0.06 0.52,0.15 0.14,0.077 0.286,0.222 0.457,0.26 0.081,0.018 0.135,0.017 0.212,0.049 0.043,0.018 0.089,0.042 0.137,0.05 0.088,0.015 0.16,-0.02 0.244,-0.023 0.116,-0.005 0.238,0.007 0.354,0.01 0.108,0.003 0.206,0.007 0.312,-0.012 0.071,-0.013 0.141,-0.031 0.213,-0.032 0.056,0 0.116,0.006 0.17,-0.004 0.062,-0.012 0.093,-0.049 0.146,-0.071 0.137,-0.056 0.398,-0.021 0.552,-0.018 0.189,0.005 0.375,-0.016 0.563,-0.015 0.11,10e-4 0.221,0.021 0.33,0.002 0.19,-0.032 0.36,-0.113 0.527,-0.199 0.079,-0.002 0.157,-0.007 0.234,-0.022 0.064,-0.013 0.163,-0.025 0.228,-0.046 0.153,-0.052 0.244,-0.169 0.347,-0.267 0.051,-0.049 0.105,-0.097 0.174,-0.131 0.034,-0.016 0.074,-0.024 0.108,-0.04 0.055,-0.025 0.1,-0.065 0.149,-0.099 0.002,0.014 0.003,0.028 0.006,0.042 0.132,-0.058 0.264,-0.116 0.388,-0.185 0.128,-0.071 0.232,-0.161 0.326,-0.259 0.048,-0.029 0.095,-0.059 0.137,-0.091 0.119,-0.092 0.197,-0.242 0.247,-0.373 0.199,-0.24 0.42,-0.462 0.566,-0.733 0.13,-0.24 0.222,-0.543 0.245,-0.806 C -1.903,-0.1 -1.882,-0.386 -1.909,-0.65 -1.933,-0.88 -1.93,-1.168 -2.08,-1.375 -2.125,-1.438 -2.19,-1.49 -2.246,-1.547 -2.286,-1.588 -2.321,-1.63 -2.353,-1.675 -2.492,-1.865 -2.63,-2.048 -2.79,-2.228 -2.836,-2.28 -2.878,-2.333 -2.916,-2.388 -2.982,-2.456 -3.053,-2.52 -3.129,-2.58 c -0.066,-0.066 -0.118,-0.131 -0.167,-0.206 -0.114,-0.177 -0.2,-0.36 -0.328,-0.532 -0.124,-0.167 -0.237,-0.34 -0.361,-0.506 -0.14,-0.188 -0.325,-0.337 -0.507,-0.481 -0.071,-0.056 -0.133,-0.103 -0.187,-0.172 -0.047,-0.061 -0.127,-0.118 -0.19,-0.165 -0.1,-0.077 -0.167,-0.222 -0.185,-0.345 -0.009,-0.057 -0.023,-0.176 0.013,-0.23 0.025,-0.037 0.087,-0.048 0.118,-0.078 0.012,-0.011 0.021,-0.036 0.034,-0.045 0.03,-0.021 0.086,-0.018 0.12,-0.035 0.087,-0.043 0.115,-0.07 0.214,-0.028 0.052,0.021 0.092,0.036 0.145,0.049 0.083,0.022 0.147,0.081 0.221,0.121 0.031,0.017 0.064,0.027 0.094,0.047 0.038,0.025 0.064,0.081 0.103,0.101 0.032,0.016 0.08,0.011 0.115,0.015 0.108,0.012 0.192,-0.03 0.298,0.024 0.101,0.051 0.197,0.128 0.292,0.189 0.097,0.062 0.195,0.119 0.291,0.182 0.192,0.125 0.376,0.258 0.574,0.377 0.182,0.108 0.349,0.243 0.508,0.373 0.133,0.11 0.227,0.229 0.326,0.359 0.104,0.137 0.227,0.26 0.335,0.394 0.107,0.132 0.169,0.262 0.246,0.405 0.077,0.14 0.157,0.259 0.254,0.39 0.044,0.06 0.076,0.124 0.118,0.185 0.083,0.118 0.188,0.22 0.258,0.345 0.185,0.328 0.355,0.7 0.387,1.057 0.015,0.172 0.025,0.342 0.03,0.514 C 0.042,-0.179 0.016,-0.095 0,0"
             style="fill:#231f20;fill-opacity:1;fill-rule:nonzero;stroke:none"
             id="path1811" />
        </g>
        <g
           id="g1813"
           transform="translate(388.868,310.473)">
          <path
             d="M 0,0 C 0.04,0.066 0.211,0.062 0.28,0.078 0.464,0.119 0.642,0.175 0.825,0.223 1.001,0.27 1.182,0.293 1.363,0.313 1.584,0.338 1.786,0.441 2.006,0.469 2.178,0.491 2.35,0.517 2.523,0.533 2.618,0.542 2.781,0.579 2.873,0.545 2.917,0.528 2.919,0.504 2.948,0.467 3.012,0.387 3.122,0.361 3.196,0.292 3.262,0.231 3.327,0.067 3.419,0.054 3.485,0.045 3.543,0.079 3.611,0.059 3.688,0.037 3.789,-0.025 3.836,-0.091 3.887,-0.163 3.835,-0.229 3.779,-0.28 3.651,-0.395 3.466,-0.467 3.308,-0.529 3.041,-0.634 2.804,-0.612 2.527,-0.571 2.092,-0.506 1.659,-0.524 1.222,-0.57 0.978,-0.596 0.732,-0.633 0.487,-0.651 c -0.223,-0.016 -0.43,0.111 -0.654,0.039 -0.155,-0.05 -0.282,-0.139 -0.421,-0.218 -0.041,-0.023 -0.081,-0.048 -0.11,-0.004 -0.023,0.035 -0.015,0.159 -0.019,0.194 -0.008,0.075 -0.047,0.206 -0.033,0.282 0.014,0.073 0.096,0.095 0.157,0.126 0.126,0.066 0.291,0.134 0.432,0.159 C -0.03,-0.05 0.086,0.013 0,0"
             style="fill:#231f20;fill-opacity:1;fill-rule:nonzero;stroke:none"
             id="path1815" />
        </g>
        <g
           id="g1817"
           transform="translate(393.342,310.335)">
          <path
             d="m 0,0 c -0.024,-0.114 -0.006,-0.221 0.007,-0.336 0.013,-0.105 0.065,-0.123 0.147,-0.18 0.063,-0.045 0.161,-0.15 0.235,-0.169 0.116,-0.028 0.301,0.1 0.382,-0.022 0.043,-0.064 0.011,-0.102 0.107,-0.12 0.069,-0.014 0.129,-0.012 0.198,-0.039 0.103,-0.042 0.194,-0.071 0.29,0.014 0.088,0.079 0.106,0.247 0.09,0.358 C 1.44,-0.378 1.362,-0.281 1.279,-0.2 1.214,-0.137 1.132,-0.091 1.07,-0.024 1.04,0.009 1.03,0.059 1.001,0.09 0.976,0.117 0.933,0.113 0.902,0.137 0.879,0.155 0.863,0.185 0.847,0.21 0.803,0.28 0.782,0.304 0.697,0.3 0.633,0.297 0.567,0.285 0.503,0.278 0.39,0.266 0.26,0.277 0.175,0.189 0.118,0.128 0.086,0.028 0.067,-0.05 0.061,-0.077 0.034,-0.142 0.047,-0.166 0.067,-0.205 0.16,-0.18 0,0"
             style="fill:#231f20;fill-opacity:1;fill-rule:nonzero;stroke:none"
             id="path1819" />
        </g>
        <g
           id="g1821"
           transform="translate(395.191,291.185)">
          <path
             d="m 0,0 c -0.018,-0.003 -0.034,-0.006 -0.049,-0.009 -0.071,-0.015 -0.097,-0.066 -0.158,-0.105 -0.058,-0.037 -0.11,-0.025 -0.169,-0.047 -0.046,-0.018 -0.073,-0.067 -0.117,-0.088 -0.074,-0.035 -0.189,-0.053 -0.269,-0.063 -0.1,-0.012 -0.166,-0.024 -0.253,-0.076 -0.051,-0.029 -0.083,-0.044 -0.142,-0.048 -0.117,-0.007 -0.236,-0.027 -0.353,-0.039 -0.079,-0.008 -0.125,0.005 -0.158,-0.07 -0.038,-0.087 -0.033,-0.211 -0.052,-0.305 -0.05,-0.236 0.025,-0.385 0.231,-0.505 0.109,-0.064 0.217,-0.002 0.335,0.021 0.115,0.022 0.225,0.071 0.344,0.06 0.059,-0.006 0.112,-0.037 0.172,-0.037 0.057,0 0.115,0.025 0.168,0.042 0.116,0.039 0.218,0.069 0.315,0.143 0.173,0.131 0.392,0.19 0.523,0.371 0.026,0.036 0.044,0.061 0.082,0.086 0.023,0.014 0.058,0.023 0.075,0.045 C 0.57,-0.566 0.507,-0.452 0.476,-0.397 0.456,-0.36 0.432,-0.325 0.414,-0.285 0.385,-0.221 0.352,-0.196 0.302,-0.148 0.254,-0.102 0.215,-0.025 0.146,-0.002 0.107,0.011 0.05,0.007 0,0"
             style="fill:#231f20;fill-opacity:1;fill-rule:nonzero;stroke:none"
             id="path1823" />
        </g>
        <g
           id="g1825"
           transform="translate(392.47,290.401)">
          <path
             d="m 0,0 c -0.012,0.028 -0.022,0.041 -0.05,0.053 -0.024,0.01 -0.063,-0.003 -0.087,0 -0.06,0.008 -0.106,0.049 -0.154,0.082 C -0.35,0.176 -0.369,0.249 -0.449,0.253 -0.478,0.255 -0.51,0.245 -0.539,0.244 -0.764,0.239 -1.003,0.271 -1.225,0.301 -1.355,0.318 -1.501,0.357 -1.632,0.344 -1.739,0.333 -1.793,0.33 -1.889,0.384 -1.988,0.44 -2.079,0.508 -2.18,0.558 -2.272,0.604 -2.358,0.642 -2.441,0.705 -2.521,0.765 -2.613,0.812 -2.698,0.867 -2.749,0.901 -2.778,0.964 -2.834,0.986 -2.91,1.015 -2.978,1.029 -3.022,0.957 -3.088,0.848 -3.179,0.764 -3.258,0.666 -3.324,0.583 -3.398,0.486 -3.431,0.384 -3.454,0.313 -3.456,0.193 -3.435,0.119 c 0.03,-0.106 0.166,-0.143 0.25,-0.192 0.126,-0.074 0.229,-0.186 0.365,-0.241 0.098,-0.04 0.19,-0.056 0.275,-0.124 0.057,-0.045 0.093,-0.079 0.167,-0.089 0.065,-0.009 0.131,-0.003 0.196,-0.006 0.122,-0.006 0.235,-0.047 0.355,-0.058 0.089,-0.008 0.18,0.015 0.267,-0.011 0.051,-0.015 0.091,-0.053 0.143,-0.066 0.095,-0.023 0.167,-0.011 0.255,0.017 0.175,0.053 0.365,0.034 0.544,0.067 0.155,0.029 0.346,0.045 0.49,0.109 0.02,0.009 0.04,0.02 0.061,0.028 0.005,-0.004 0.005,-0.007 0.008,-0.012 C 0,-0.4 0.04,-0.337 0.032,-0.251 0.026,-0.176 0.03,-0.074 0,0"
             style="fill:#231f20;fill-opacity:1;fill-rule:nonzero;stroke:none"
             id="path1827" />
        </g>
      </g>
    </g>
  </g>
</svg>
