<?xml version="1.0" encoding="UTF-8" standalone="no"?>
<!-- Created with Inkscape (http://www.inkscape.org/) -->

<svg
   width="26.028988"
   height="24"
   viewBox="0 0 6.8868362 6.35"
   version="1.1"
   id="svg42621"
   inkscape:version="1.2.1 (9c6d41e4, 2022-07-14)"
   sodipodi:docname="inhabitants-of-carcosa.svg"
   xmlns:inkscape="http://www.inkscape.org/namespaces/inkscape"
   xmlns:sodipodi="http://sodipodi.sourceforge.net/DTD/sodipodi-0.dtd"
   xmlns="http://www.w3.org/2000/svg"
   xmlns:svg="http://www.w3.org/2000/svg">
  <sodipodi:namedview
     id="namedview42623"
     pagecolor="#505050"
     bordercolor="#eeeeee"
     borderopacity="1"
     inkscape:showpageshadow="0"
     inkscape:pageopacity="0"
     inkscape:pagecheckerboard="0"
     inkscape:deskcolor="#505050"
     inkscape:document-units="mm"
     showgrid="false"
     inkscape:zoom="0.2102413"
     inkscape:cx="216.41799"
     inkscape:cy="42.807954"
     inkscape:window-width="1309"
     inkscape:window-height="456"
     inkscape:window-x="0"
     inkscape:window-y="25"
     inkscape:window-maximized="0"
     inkscape:current-layer="layer1" />
  <defs
     id="defs42618">
    <clipPath
       clipPathUnits="userSpaceOnUse"
       id="clipPath15451">
      <path
         d="m 363.064,419.254 h 24.7 v 24.699 h -24.7 z"
         id="path15449" />
    </clipPath>
  </defs>
  <g
     inkscape:label="Layer 1"
     inkscape:groupmode="layer"
     id="layer1"
     transform="translate(-47.617698,-137.27962)">
    <g
       id="g15445"
       transform="matrix(0.30523493,0,0,-0.30523493,-63.515835,272.17626)"
       style="fill:#000000">
      <g
         id="g15447"
         clip-path="url(#clipPath15451)"
         style="fill:#000000">
        <g
           id="g15453"
           transform="translate(377.063,441.453)"
           style="fill:#000000">
          <path
             d="M 0,0 C 0.013,-0.007 0.025,-0.015 0.039,-0.022 0.093,-0.048 0.144,-0.046 0,0"
             style="fill:#000000;fill-opacity:1;fill-rule:nonzero;stroke:none"
             id="path15455" />
        </g>
        <g
           id="g15457"
           transform="translate(380.483,435.074)"
           style="fill:#000000">
          <path
             d="M 0,0 C 0.002,-0.194 -0.066,-0.4 -0.171,-0.568 -0.27,-0.727 -0.344,-0.89 -0.481,-1.027 -0.716,-1.261 -1.017,-1.44 -1.261,-1.667 -1.44,-1.834 -1.684,-1.965 -1.834,-2.156 -1.868,-2.2 -1.886,-2.249 -1.913,-2.296 -1.989,-2.426 -2.141,-2.5 -2.233,-2.622 -2.411,-2.855 -2.549,-3.125 -2.685,-3.382 -2.732,-3.471 -2.778,-3.561 -2.827,-3.649 -2.862,-3.712 -2.917,-3.762 -2.952,-3.825 -2.991,-3.893 -3.016,-3.96 -3.067,-4.022 -3.17,-4.149 -3.292,-4.259 -3.386,-4.392 -3.568,-4.649 -3.777,-4.91 -3.881,-5.206 -3.917,-5.31 -3.932,-5.413 -3.978,-5.515 -4.01,-5.585 -4.03,-5.659 -4.062,-5.728 -4.134,-5.887 -4.203,-6.044 -4.275,-6.203 -4.325,-6.313 -4.339,-6.414 -4.35,-6.532 -4.365,-6.7 -4.434,-6.823 -4.517,-6.968 -4.542,-7.011 -4.579,-7.045 -4.596,-7.092 -4.632,-7.186 -4.62,-7.291 -4.638,-7.388 -4.661,-7.516 -4.658,-7.648 -4.687,-7.776 -4.721,-7.923 -4.722,-8.08 -4.773,-8.224 -4.8,-8.301 -4.85,-8.317 -4.938,-8.302 c -0.029,0.098 -0.074,0.184 -0.112,0.28 -0.045,0.114 -0.054,0.221 -0.121,0.329 -0.072,0.118 -0.165,0.212 -0.224,0.337 -0.055,0.116 -0.13,0.22 -0.175,0.34 -0.029,0.076 -0.053,0.153 -0.084,0.228 -0.075,0.182 -0.073,0.377 -0.117,0.566 -0.02,0.087 -0.072,0.148 -0.116,0.224 -0.078,0.133 -0.114,0.281 -0.17,0.422 -0.134,0.343 -0.256,0.691 -0.368,1.04 -0.04,0.127 -0.069,0.246 -0.081,0.377 -0.021,0.207 -0.149,0.372 -0.209,0.57 -0.034,0.11 -0.069,0.219 -0.105,0.33 -0.025,0.074 -0.059,0.145 -0.083,0.22 -0.03,0.091 -0.042,0.176 -0.084,0.262 -0.185,0.371 -0.474,0.701 -0.712,1.043 -0.178,0.258 -0.464,0.45 -0.622,0.719 -0.052,0.088 -0.06,0.186 -0.099,0.277 -0.021,0.052 -0.054,0.097 -0.094,0.138 -0.069,0.072 -0.152,0.135 -0.236,0.191 -0.159,0.106 -0.307,0.215 -0.444,0.345 -0.131,0.124 -0.315,0.162 -0.431,0.3 -0.118,0.14 -0.224,0.245 -0.234,0.43 -0.005,0.105 0.002,0.213 0.002,0.319 -0.001,0.118 0.019,0.226 0.031,0.343 0.017,0.161 0.05,0.309 0.053,0.47 10e-4,0.094 0.035,0.174 0.098,0.247 0.107,0.125 0.067,0.272 0.107,0.427 0.042,0.168 0.111,0.34 0.193,0.494 0.055,0.104 0.101,0.196 0.18,0.287 0.081,0.092 0.161,0.181 0.232,0.279 0.167,0.233 0.414,0.365 0.654,0.524 0.124,0.083 0.231,0.184 0.352,0.271 0.158,0.114 0.333,0.208 0.494,0.317 0.204,0.137 0.447,0.161 0.637,0.318 0.135,0.112 0.212,0.28 0.353,0.383 0.015,0.011 0.032,0.023 0.049,0.034 0.003,0.004 0.006,0.006 0.009,0.011 0.051,0.071 0.119,0.109 0.192,0.156 0.079,0.052 0.136,0.144 0.231,0.177 0.043,0.015 0.098,0.016 0.144,0.029 0.216,0.06 0.436,-0.045 0.645,0.019 0.139,0.042 0.253,0.07 0.398,0.042 0.128,-0.025 0.274,-0.057 0.376,-0.137 0.116,-0.091 0.175,-0.227 0.296,-0.314 0.05,-0.036 0.104,-0.068 0.152,-0.108 0.053,-0.044 0.097,-0.1 0.155,-0.14 0.116,-0.079 0.259,-0.106 0.363,-0.202 0.048,-0.045 0.09,-0.094 0.144,-0.133 0.061,-0.046 0.134,-0.067 0.199,-0.105 0.059,-0.035 0.08,-0.07 0.155,-0.091 0.097,-0.027 0.199,-0.04 0.297,-0.063 0.186,-0.045 0.293,-0.132 0.433,-0.249 0.112,-0.095 0.259,-0.122 0.361,-0.232 0.073,-0.079 0.139,-0.144 0.227,-0.208 0.079,-0.058 0.109,-0.149 0.153,-0.23 0.088,-0.162 0.193,-0.316 0.282,-0.478 0.019,-0.035 0.042,-0.067 0.067,-0.1 C -1.087,2.946 -1.049,2.868 -1.013,2.78 -0.921,2.552 -0.821,2.326 -0.698,2.111 -0.662,2.048 -0.612,2.001 -0.58,1.937 -0.558,1.892 -0.547,1.841 -0.522,1.797 -0.429,1.628 -0.339,1.475 -0.285,1.291 -0.259,1.2 -0.255,1.104 -0.229,1.014 -0.21,0.949 -0.18,0.89 -0.155,0.827 -0.117,0.736 -0.076,0.651 -0.033,0.561 0.044,0.401 -0.002,0.173 0,0 M 1.392,1.321 C 1.393,1.475 1.377,1.64 1.321,1.786 1.297,1.847 1.273,2.053 1.171,2.047 1.125,1.937 1.012,1.847 0.896,1.811 0.835,1.792 0.769,1.787 0.709,1.765 0.679,1.754 0.615,1.715 0.584,1.733 0.561,1.746 0.574,1.762 0.563,1.782 0.539,1.826 0.505,1.866 0.481,1.91 0.439,1.986 0.422,2.074 0.382,2.152 0.337,2.237 0.256,2.292 0.199,2.367 0.141,2.444 0.092,2.531 0.041,2.612 -0.036,2.735 -0.108,2.871 -0.205,2.981 -0.258,3.04 -0.322,3.09 -0.376,3.149 -0.442,3.221 -0.5,3.298 -0.575,3.362 -0.81,3.561 -0.955,3.857 -1.08,4.126 c -0.058,0.125 -0.147,0.251 -0.226,0.366 -0.135,0.197 -0.313,0.344 -0.492,0.505 -0.228,0.205 -0.423,0.437 -0.647,0.644 -0.126,0.117 -0.283,0.215 -0.428,0.313 -0.223,0.152 -0.432,0.289 -0.65,0.455 0.044,-0.012 0.076,-0.022 0.104,-0.031 -0.029,0.017 -0.057,0.035 -0.087,0.051 -0.02,0 -0.038,0.004 -0.055,0.011 -0.02,0.005 -0.035,0.017 -0.045,0.035 -0.069,0.04 -0.139,0.023 -0.194,0.088 -0.051,0.06 -0.078,0.114 -0.148,0.162 -0.061,0.041 -0.106,0.109 -0.181,0.129 -0.119,0.034 -0.301,0.002 -0.426,0.002 -0.149,0 -0.299,-10e-4 -0.449,0 C -5.292,6.857 -5.576,6.829 -5.865,6.83 -5.978,6.83 -6.102,6.846 -6.209,6.807 -6.472,6.711 -6.707,6.607 -6.919,6.431 -6.971,6.387 -6.977,6.357 -7.006,6.303 -7.041,6.238 -7.106,6.166 -7.162,6.115 -7.246,6.036 -7.343,5.97 -7.428,5.891 -7.536,5.789 -7.646,5.704 -7.772,5.622 -7.946,5.509 -8.111,5.387 -8.279,5.267 -8.52,5.094 -8.777,4.944 -9.002,4.752 -9.138,4.637 -9.255,4.503 -9.377,4.377 -9.497,4.252 -9.621,4.133 -9.716,3.99 -9.896,3.72 -10.139,3.496 -10.28,3.206 c -0.082,-0.168 -0.22,-0.404 -0.2,-0.597 -0.05,0.043 -0.142,0.043 -0.201,0.073 -0.053,0.027 -0.096,0.078 -0.148,0.108 -0.086,0.052 -0.18,0.086 -0.274,0.125 -0.125,0.051 -0.238,0.079 -0.373,0.104 -0.082,0.016 -0.14,0.047 -0.215,0.078 -0.06,0.025 -0.258,0.074 -0.273,-0.015 -0.009,-0.052 0.052,-0.148 0.074,-0.192 0.029,-0.06 0.064,-0.128 0.102,-0.183 0.06,-0.086 0.087,-0.156 0.126,-0.254 0.067,-0.171 0.117,-0.353 0.144,-0.534 0.03,-0.204 0.009,-0.411 0.098,-0.605 0.056,-0.122 0.046,-0.25 0.082,-0.376 0.031,-0.105 0.072,-0.213 0.116,-0.313 0.084,-0.192 0.262,-0.323 0.369,-0.5 0.072,-0.119 0.15,-0.214 0.254,-0.31 0.089,-0.081 0.185,-0.155 0.257,-0.25 0.095,-0.129 0.157,-0.271 0.28,-0.382 0.088,-0.08 0.192,-0.143 0.279,-0.224 0.091,-0.084 0.168,-0.179 0.265,-0.256 0.083,-0.066 0.18,-0.118 0.242,-0.203 0.097,-0.132 0.162,-0.318 0.324,-0.392 0.033,-0.015 0.072,-0.022 0.104,-0.04 0.055,-0.032 0.052,-0.058 0.062,-0.121 0.024,-0.152 0.074,-0.297 0.111,-0.446 0.022,-0.092 0.03,-0.196 0.067,-0.284 0.029,-0.071 0.057,-0.111 0.058,-0.188 0.002,-0.108 0.029,-0.212 0.027,-0.319 -10e-4,-0.092 -0.008,-0.188 -10e-4,-0.278 0.004,-0.046 0.019,-0.051 0.037,-0.085 0.065,-0.118 0.051,-0.261 0.12,-0.378 0.05,-0.083 0.188,-0.143 0.283,-0.173 0.049,-0.015 0.085,-0.027 0.127,-0.059 0.044,-0.031 0.138,-0.085 0.164,-0.129 0.07,-0.115 -0.161,-0.077 -0.224,-0.077 -0.09,0 -0.181,0.005 -0.271,0.001 -0.052,-0.002 -0.097,-0.018 -0.148,-0.025 -0.078,-0.01 -0.282,0.023 -0.337,-0.06 -0.037,-0.055 0.036,-0.109 0.06,-0.152 0.049,-0.087 0.109,-0.148 0.176,-0.225 0.038,-0.044 0.062,-0.098 0.099,-0.144 0.042,-0.054 0.098,-0.088 0.144,-0.137 0.163,-0.172 0.158,-0.429 0.328,-0.599 0.164,-0.163 0.308,-0.356 0.5,-0.498 0.114,-0.083 0.25,-0.137 0.366,-0.217 0.06,-0.04 0.135,-0.095 0.17,-0.155 0.089,-0.157 0.166,-0.326 0.244,-0.49 0.085,-0.18 0.204,-0.334 0.276,-0.518 0.056,-0.142 0.157,-0.266 0.211,-0.407 0.034,-0.088 0.08,-0.166 0.127,-0.249 0.047,-0.085 0.104,-0.171 0.135,-0.262 0.033,-0.096 0.046,-0.199 0.071,-0.297 0.049,-0.196 0.126,-0.363 0.243,-0.532 0.088,-0.126 0.157,-0.275 0.255,-0.393 0.04,-0.048 0.149,-0.142 0.205,-0.113 0.054,0.026 0.077,0.095 0.106,0.139 0.096,0.147 0.146,0.305 0.227,0.46 0.038,0.07 0.105,0.121 0.158,0.184 0.078,0.092 0.142,0.183 0.239,0.267 0.169,0.148 0.341,0.307 0.486,0.476 0.118,0.137 0.247,0.266 0.326,0.426 0.028,0.054 0.033,0.122 0.068,0.172 0.035,0.049 0.071,0.088 0.101,0.143 0.024,0.045 0.054,0.079 0.083,0.119 0.019,0.026 0.028,0.063 0.051,0.086 0.025,0.025 0.082,0.038 0.113,0.056 0.05,0.028 0.09,0.063 0.13,0.101 0.062,0.057 0.135,0.08 0.206,0.124 0.075,0.046 0.139,0.127 0.186,0.199 0.048,0.076 0.03,0.128 0.04,0.207 0.011,0.092 0.071,0.179 0.116,0.258 0.03,0.053 0.038,0.106 0.097,0.135 0.033,0.016 0.08,0.016 0.114,0.03 0.042,0.018 0.066,0.047 0.099,0.077 0.062,0.059 0.095,0.055 0.168,0.079 0.021,0.008 0.037,0.024 0.058,0.028 0.048,0.009 0.095,0.007 0.144,0.018 0.05,0.012 0.097,0.017 0.146,0.034 0.075,0.027 0.145,0.067 0.222,0.089 0.071,0.021 0.124,0.023 0.18,0.073 0.028,0.025 0.088,0.06 0.105,0.089 0.015,0.026 10e-4,0.08 10e-4,0.11 0,0.069 0.003,0.124 -0.05,0.179 -0.161,0.165 -0.388,0.275 -0.585,0.399 -0.135,0.086 -0.181,0.212 -0.09,0.348 0.143,0.214 0.187,0.467 0.27,0.702 0.058,0.164 0.071,0.337 0.085,0.508 0.014,0.155 0.019,0.307 0.1,0.446 0.074,0.127 0.14,0.233 0.244,0.34 0.052,0.053 0.116,0.098 0.161,0.156 0.044,0.055 0.071,0.121 0.11,0.179 0.095,0.138 0.238,0.284 0.38,0.383 0.091,0.063 0.195,0.077 0.285,0.136 0.2,0.131 0.348,0.316 0.503,0.487 0.156,0.173 0.301,0.356 0.464,0.524 0.134,0.137 0.214,0.32 0.296,0.489 0.052,0.109 0.081,0.224 0.117,0.338 0.035,0.111 0.089,0.216 0.125,0.328 0.065,0.206 0.138,0.426 0.164,0.64 0.02,0.165 0.005,0.336 0.006,0.501"
             style="fill:#000000;fill-opacity:1;fill-rule:nonzero;stroke:none"
             id="path15459" />
        </g>
        <g
           id="g15461"
           transform="translate(374.997,439.023)"
           style="fill:#000000">
          <path
             d="m 0,0 c -0.011,-0.101 -0.012,-0.204 -0.013,-0.294 0,-0.251 0.056,-0.495 0.076,-0.743 0.006,-0.085 -0.003,-0.154 -0.021,-0.236 -0.043,-0.205 -0.04,-0.426 -0.038,-0.634 0.004,-0.311 0.011,-0.627 -0.006,-0.937 -0.02,-0.361 0.044,-0.673 0.121,-1.013 0.056,-0.247 0.075,-0.495 0.111,-0.748 0.035,-0.246 0.026,-0.497 0.064,-0.741 0.031,-0.196 0.031,-0.392 0.037,-0.592 0.003,-0.079 0.003,-0.159 0.007,-0.237 0.002,-0.045 0.019,-0.106 0.01,-0.15 0.013,0.052 0.048,0.099 0.067,0.148 0.051,0.128 0.091,0.267 0.127,0.404 0.087,0.334 0.071,0.708 0.086,1.055 0.012,0.288 0.025,0.577 0.037,0.865 0.007,0.176 0.008,0.349 0.035,0.523 0.034,0.226 0.06,0.454 0.093,0.681 0.058,0.403 0.161,0.794 0.129,1.205 -0.008,0.116 -0.028,0.227 -0.048,0.339 -0.022,0.127 -0.018,0.232 -0.004,0.357 0.015,0.119 -0.025,0.241 -0.025,0.361 0,0.098 0.008,0.199 0.002,0.297 C 0.841,-0.001 0.808,0.081 0.8,0.169 0.789,0.282 0.819,0.397 0.799,0.509 0.79,0.556 0.716,0.74 0.677,0.769 0.567,0.761 0.562,0.594 0.458,0.594 0.387,0.593 0.398,0.684 0.317,0.612 0.278,0.577 0.261,0.514 0.223,0.471 0.189,0.432 0.144,0.402 0.115,0.36 0.046,0.258 0.015,0.129 0,0"
             style="fill:#000000;fill-opacity:1;fill-rule:nonzero;stroke:none"
             id="path15463" />
        </g>
        <g
           id="g15465"
           transform="translate(364.431,431.726)"
           style="fill:#000000">
          <path
             d="m 0,0 c -0.078,0.113 -0.166,0.222 -0.268,0.31 -0.085,0.075 -0.07,0.093 -0.07,0.206 0.001,0.129 -0.002,0.257 -0.001,0.386 0.002,0.157 0.031,0.241 0.113,0.369 C -0.11,1.451 0.025,1.61 0.166,1.768 0.47,2.107 0.835,2.402 1.272,2.524 1.599,2.616 1.919,2.735 2.246,2.823 2.358,2.853 2.453,2.877 2.561,2.832 2.674,2.786 2.775,2.716 2.887,2.665 3.016,2.608 3.15,2.584 3.285,2.548 3.478,2.497 3.622,2.388 3.768,2.25 3.881,2.143 3.984,2.034 4.106,1.936 4.269,1.805 4.449,1.696 4.602,1.553 4.775,1.393 4.863,1.15 4.92,0.923 4.947,0.815 4.987,0.69 4.972,0.576 4.959,0.472 4.963,0.381 4.979,0.276 5.019,0.031 5.094,-0.205 5.148,-0.446 5.285,-1.068 5.269,-1.703 5.365,-2.329 5.416,-2.66 5.445,-2.995 5.498,-3.326 5.541,-3.595 5.61,-3.848 5.684,-4.108 5.751,-4.35 5.822,-4.594 5.866,-4.841 5.904,-5.054 5.977,-5.25 6.044,-5.455 6.166,-5.824 6.422,-6.148 6.685,-6.423 6.798,-6.541 6.91,-6.659 7.036,-6.762 7.154,-6.858 7.29,-6.95 7.391,-7.064 7.433,-7.11 7.46,-7.162 7.498,-7.21 c 0.041,-0.051 0.093,-0.089 0.137,-0.137 0.11,-0.124 0.209,-0.257 0.317,-0.383 0.144,-0.167 0.34,-0.275 0.535,-0.365 0.263,-0.121 0.509,-0.269 0.767,-0.397 0.13,-0.065 0.247,-0.087 0.388,-0.117 0.145,-0.031 0.287,-0.076 0.431,-0.111 0.214,-0.052 0.43,-0.095 0.65,-0.104 0.252,-0.009 0.528,-0.037 0.758,0.089 0.253,0.14 0.545,0.222 0.784,0.385 0.198,0.134 0.365,0.279 0.543,0.439 0.129,0.116 0.248,0.261 0.37,0.387 0.128,0.131 0.243,0.276 0.372,0.408 0.25,0.257 0.513,0.489 0.717,0.788 0.071,0.103 0.116,0.214 0.178,0.322 0.06,0.102 0.146,0.184 0.208,0.286 0.13,0.212 0.3,0.364 0.493,0.518 0.087,0.07 0.185,0.127 0.288,0.171 0.143,0.061 0.285,0.136 0.432,0.186 0.13,0.044 0.26,0.072 0.389,0.123 0.185,0.073 0.387,0.112 0.586,0.119 0.294,0.009 0.567,-0.017 0.854,-0.075 0.129,-0.026 0.256,-0.005 0.384,-0.021 0.174,-0.024 0.319,-0.138 0.485,-0.191 0.271,-0.087 0.407,-0.361 0.65,-0.499 0.093,-0.053 0.15,-0.124 0.233,-0.19 0.094,-0.074 0.175,-0.111 0.227,-0.23 0.061,-0.137 0.074,-0.35 0.074,-0.502 -0.001,-0.161 0.026,-0.353 -0.03,-0.506 C 19.686,-6.904 19.696,-6.971 19.687,-7.063 19.677,-7.162 19.644,-7.262 19.623,-7.36 19.602,-7.456 19.587,-7.565 19.552,-7.656 19.515,-7.749 19.44,-7.84 19.381,-7.921 19.305,-8.024 19.246,-8.103 19.139,-8.173 19.022,-8.25 18.9,-8.311 18.791,-8.4 c -0.112,-0.091 -0.215,-0.153 -0.354,-0.199 -0.053,-0.017 -0.215,-0.09 -0.268,-0.07 0.028,0.071 0.061,0.154 0.107,0.209 0.026,0.03 0.054,0.05 0.088,0.077 0.072,0.058 0.134,0.146 0.209,0.201 0.062,0.044 0.104,0.043 0.152,0.113 0.06,0.089 0.133,0.168 0.172,0.271 0.055,0.147 0.058,0.308 0.057,0.464 -0.001,0.17 0.002,0.343 -0.036,0.51 -0.05,0.216 -0.173,0.398 -0.287,0.581 -0.055,0.089 -0.155,0.184 -0.243,0.238 -0.051,0.032 -0.107,0.042 -0.161,0.064 -0.094,0.037 -0.179,0.093 -0.276,0.125 -0.561,0.185 -1.154,0.055 -1.689,-0.153 -0.257,-0.1 -0.467,-0.29 -0.698,-0.434 -0.129,-0.081 -0.253,-0.169 -0.37,-0.266 -0.133,-0.111 -0.237,-0.242 -0.358,-0.364 -0.084,-0.086 -0.155,-0.181 -0.234,-0.271 -0.088,-0.102 -0.149,-0.226 -0.238,-0.325 -0.07,-0.078 -0.109,-0.164 -0.173,-0.247 -0.098,-0.127 -0.212,-0.241 -0.312,-0.366 -0.158,-0.197 -0.347,-0.347 -0.52,-0.529 -0.146,-0.152 -0.313,-0.283 -0.453,-0.442 -0.122,-0.138 -0.219,-0.309 -0.353,-0.434 -0.339,-0.314 -0.645,-0.709 -1.096,-0.848 -0.139,-0.042 -0.263,-0.091 -0.408,-0.091 -0.11,10e-4 -0.22,0 -0.33,0 -0.107,0 -0.216,0.007 -0.321,0.027 -0.078,0.015 -0.147,0.068 -0.219,0.105 -0.37,0.19 -0.694,0.488 -1.096,0.603 -0.127,0.037 -0.256,0.056 -0.382,0.096 -0.13,0.042 -0.243,0.113 -0.365,0.172 C 8.099,-9.468 7.827,-9.389 7.608,-9.238 7.479,-9.149 7.324,-9.05 7.24,-8.91 7.211,-8.861 7.185,-8.821 7.144,-8.78 7.039,-8.677 6.925,-8.582 6.809,-8.493 6.703,-8.411 6.584,-8.345 6.482,-8.258 6.219,-8.031 5.985,-7.775 5.739,-7.526 5.445,-7.229 5.22,-6.846 5.048,-6.46 4.862,-6.045 4.858,-5.611 4.83,-5.164 4.802,-4.727 4.75,-4.284 4.689,-3.851 4.659,-3.632 4.646,-3.413 4.625,-3.193 4.601,-2.937 4.536,-2.7 4.443,-2.462 4.315,-2.136 4.193,-1.837 4.134,-1.488 4.066,-1.077 4.061,-0.659 3.995,-0.249 3.973,-0.115 3.947,0.016 3.903,0.144 3.814,0.399 3.735,0.693 3.547,0.886 3.509,0.924 3.467,0.946 3.423,0.973 3.31,1.041 3.281,1.155 3.198,1.253 3.012,1.474 2.706,1.635 2.429,1.681 2.326,1.697 2.227,1.699 2.127,1.73 2.013,1.765 1.9,1.811 1.789,1.853 1.669,1.9 1.561,1.943 1.431,1.945 1.307,1.946 1.28,1.92 1.181,1.835 1.07,1.739 0.951,1.662 0.832,1.577 0.681,1.469 0.599,1.378 0.513,1.217 0.409,1.02 0.363,0.808 0.426,0.592 0.452,0.501 0.465,0.422 0.507,0.337 0.535,0.279 0.554,0.221 0.58,0.163 0.638,0.03 0.658,-0.116 0.693,-0.27 0.714,-0.36 0.758,-0.409 0.809,-0.474 0.852,-0.53 0.966,-0.684 0.938,-0.757 0.922,-0.8 0.874,-0.821 0.832,-0.823 0.758,-0.826 0.668,-0.771 0.604,-0.74 0.475,-0.677 0.329,-0.611 0.227,-0.505 0.173,-0.449 0.154,-0.399 0.126,-0.33"
             style="fill:#000000;fill-opacity:1;fill-rule:nonzero;stroke:none"
             id="path15467" />
        </g>
        <g
           id="g15469"
           transform="translate(380.061,426.636)"
           style="fill:#000000">
          <path
             d="m 0,0 c 0.109,0.173 0.222,0.338 0.371,0.481 0.128,0.122 0.267,0.196 0.419,0.282 0.157,0.09 0.303,0.198 0.456,0.295 0.335,0.213 0.681,0.387 1.043,0.543 0.364,0.158 0.762,0.208 1.094,0.437 0.297,0.205 0.542,0.431 0.73,0.746 0.1,0.168 0.203,0.334 0.308,0.499 0.122,0.194 0.218,0.4 0.327,0.602 C 4.912,4.19 5.066,4.473 5.155,4.813 5.192,4.955 5.246,5.093 5.261,5.24 5.272,5.351 5.264,5.465 5.264,5.577 5.265,5.782 5.282,5.98 5.187,6.167 5.083,6.372 4.928,6.553 4.761,6.705 4.599,6.854 4.483,7.009 4.282,7.106 4.116,7.187 3.939,7.228 3.756,7.227 3.641,7.225 3.524,7.235 3.412,7.211 3.31,7.189 3.219,7.156 3.119,7.128 3.016,7.099 2.904,7.054 2.824,6.984 2.782,6.947 2.702,6.841 2.652,6.834 2.616,6.939 2.763,7.107 2.822,7.168 2.881,7.228 2.954,7.268 3.024,7.314 3.171,7.411 3.319,7.51 3.479,7.585 3.74,7.709 4.014,7.687 4.295,7.683 4.493,7.681 4.707,7.664 4.892,7.585 5.015,7.533 5.133,7.463 5.248,7.395 5.427,7.29 5.614,7.194 5.737,7.019 5.792,6.925 5.847,6.832 5.902,6.739 5.969,6.646 6.042,6.557 6.12,6.473 6.347,6.199 6.502,5.885 6.553,5.526 6.603,5.179 6.619,4.815 6.526,4.474 6.486,4.354 6.448,4.234 6.411,4.114 6.381,3.988 6.35,3.864 6.315,3.74 6.271,3.607 6.217,3.488 6.13,3.379 5.998,3.214 5.901,3.025 5.768,2.861 5.591,2.644 5.398,2.437 5.201,2.239 5.087,2.124 4.993,2.055 4.856,1.976 4.666,1.867 4.506,1.716 4.322,1.598 4.002,1.395 3.688,1.172 3.344,1.014 3.067,0.887 2.764,0.869 2.484,0.761 2.252,0.671 2.024,0.556 1.799,0.447 1.613,0.357 1.414,0.271 1.239,0.159 1.14,0.095 1.08,0.027 1.007,-0.062 0.96,-0.12 0.915,-0.149 0.853,-0.182"
             style="fill:#000000;fill-opacity:1;fill-rule:nonzero;stroke:none"
             id="path15471" />
        </g>
        <g
           id="g15473"
           transform="translate(371.463,423.499)"
           style="fill:#000000">
          <path
             d="m 0,0 c -0.006,-0.065 0.012,-0.279 -0.084,-0.27 -0.018,0.001 -0.069,0.044 -0.083,0.056 -0.028,0.026 -0.047,0.065 -0.067,0.097 -0.086,0.139 -0.221,0.233 -0.338,0.348 -0.141,0.139 -0.309,0.217 -0.471,0.321 -0.103,0.065 -0.174,0.175 -0.276,0.243 -0.124,0.083 -0.208,0.199 -0.322,0.296 -0.06,0.052 -0.128,0.08 -0.194,0.123 -0.066,0.042 -0.124,0.099 -0.186,0.149 -0.124,0.1 -0.257,0.186 -0.398,0.259 -0.186,0.094 -0.369,0.186 -0.568,0.244 -0.19,0.054 -0.38,0.1 -0.569,0.156 -0.223,0.066 -0.458,0.006 -0.682,0.05 -0.091,0.018 -0.19,0.013 -0.282,0.021 -0.191,0.016 -0.385,0.045 -0.559,0.135 -0.288,0.149 -0.477,0.433 -0.673,0.684 -0.059,0.076 -0.133,0.144 -0.177,0.231 -0.084,0.167 -0.081,0.43 -0.061,0.601 0.009,0.084 0.023,0.168 0.043,0.249 0.02,0.077 0.013,0.154 0.026,0.231 0.032,0.192 0.183,0.324 0.24,0.505 0.017,0.056 0.026,0.116 0.05,0.171 0.08,0.176 0.26,0.261 0.427,0.323 0.146,0.055 0.271,0.113 0.426,0.138 0.035,0.005 0.277,0.063 0.286,-10e-4 C -4.858,5.294 -5.177,5.042 -5.314,4.679 -5.352,4.579 -5.353,4.475 -5.378,4.373 -5.402,4.274 -5.424,4.189 -5.438,4.087 -5.449,4.004 -5.461,3.919 -5.457,3.835 -5.456,3.793 -5.453,3.742 -5.432,3.704 -5.407,3.659 -5.372,3.65 -5.349,3.6 -5.291,3.472 -5.178,3.408 -5.085,3.309 -5.023,3.242 -4.968,3.142 -4.897,3.087 -4.826,3.032 -4.74,3.046 -4.662,3.013 -4.505,2.948 -4.353,2.904 -4.18,2.89 -3.992,2.874 -3.806,2.86 -3.621,2.823 -3.319,2.763 -3.007,2.75 -2.701,2.721 -2.4,2.693 -2.098,2.683 -1.815,2.566 -1.71,2.523 -1.6,2.492 -1.496,2.45 -1.401,2.411 -1.307,2.346 -1.218,2.294 -1.109,2.229 -1.009,2.123 -0.885,2.089 -0.884,2.081 -0.883,2.072 -0.882,2.064"
             style="fill:#000000;fill-opacity:1;fill-rule:nonzero;stroke:none"
             id="path15475" />
        </g>
        <g
           id="g15477"
           transform="translate(378.029,437.307)"
           style="fill:#000000">
          <path
             d="m 0,0 c -0.186,-0.264 -0.236,-0.548 -0.359,-0.84 -0.15,-0.356 -0.362,-0.682 -0.492,-1.048 -0.086,-0.241 -0.077,-0.507 -0.122,-0.757 -0.051,-0.289 -0.2,-0.544 -0.27,-0.829 -0.051,-0.207 -0.135,-0.403 -0.192,-0.608 -0.067,-0.241 -0.216,-0.438 -0.282,-0.679 -0.03,-0.111 -0.075,-0.217 -0.103,-0.328 -0.034,-0.132 -0.025,-0.265 -0.024,-0.4 0.001,-0.124 0,-0.248 0,-0.373 0.002,0.139 0.006,0.206 0.082,0.331 0.11,0.182 0.237,0.372 0.286,0.582 0.036,0.153 0.053,0.309 0.113,0.458 0.029,0.076 0.078,0.134 0.119,0.203 0.063,0.106 0.091,0.211 0.129,0.326 0.03,0.09 0.075,0.154 0.127,0.231 0.106,0.155 0.195,0.32 0.284,0.485 0.128,0.238 0.241,0.487 0.341,0.738 0.062,0.153 0.06,0.306 0.129,0.455 0.096,0.211 0.17,0.433 0.277,0.638 0.144,0.278 0.207,0.589 0.343,0.868 0.069,0.142 0.16,0.231 0.256,0.357 0.049,0.065 0.112,0.125 0.063,0.186 C 0.677,0.03 0.544,0.066 0.503,0.076 0.445,0.091 0.398,0.118 0.345,0.131 0.276,0.147 0.188,0.129 0.126,0.098 0.059,0.063 -0.039,0.019 0,0"
             style="fill:#000000;fill-opacity:1;fill-rule:nonzero;stroke:none"
             id="path15479" />
        </g>
        <g
           id="g15481"
           transform="translate(371.94,436.835)"
           style="fill:#000000">
          <path
             d="m 0,0 c 0.072,-0.174 0.179,-0.324 0.321,-0.448 0.063,-0.056 0.125,-0.111 0.187,-0.167 0.144,-0.136 0.277,-0.294 0.399,-0.45 0.161,-0.209 0.314,-0.436 0.467,-0.652 0.13,-0.184 0.275,-0.351 0.343,-0.567 0.07,-0.22 0.163,-0.43 0.229,-0.65 0.051,-0.171 0.168,-0.278 0.218,-0.447 0.051,-0.169 0.157,-0.313 0.255,-0.457 0.071,-0.104 0.105,-0.236 0.179,-0.341 0.063,-0.09 0.115,-0.18 0.18,-0.267 C 2.832,-4.305 2.733,-4.06 2.701,-3.921 2.655,-3.715 2.605,-3.513 2.564,-3.305 2.523,-3.097 2.416,-2.918 2.368,-2.716 2.318,-2.504 2.28,-2.311 2.165,-2.123 2.068,-1.964 2.036,-1.771 1.932,-1.616 1.887,-1.55 1.825,-1.497 1.78,-1.43 1.72,-1.341 1.676,-1.241 1.629,-1.145 1.473,-0.821 1.206,-0.555 1.025,-0.244 0.967,-0.145 0.966,-0.02 0.903,0.077 0.841,0.171 0.749,0.253 0.681,0.343 0.586,0.469 0.545,0.649 0.375,0.568 0.251,0.509 0.109,0.497 0.085,0.344 0.064,0.21 0.028,-0.368 0,0"
             style="fill:#000000;fill-opacity:1;fill-rule:nonzero;stroke:none"
             id="path15483" />
        </g>
      </g>
    </g>
  </g>
</svg>
