<?xml version="1.0" encoding="UTF-8" standalone="no"?>
<!-- Created with Inkscape (http://www.inkscape.org/) -->

<svg
   width="23.755386"
   height="24"
   viewBox="0 0 6.2852792 6.35"
   version="1.1"
   id="svg40852"
   inkscape:version="1.2.1 (9c6d41e4, 2022-07-14)"
   sodipodi:docname="the-last-king.svg"
   xmlns:inkscape="http://www.inkscape.org/namespaces/inkscape"
   xmlns:sodipodi="http://sodipodi.sourceforge.net/DTD/sodipodi-0.dtd"
   xmlns="http://www.w3.org/2000/svg"
   xmlns:svg="http://www.w3.org/2000/svg">
  <sodipodi:namedview
     id="namedview40854"
     pagecolor="#505050"
     bordercolor="#eeeeee"
     borderopacity="1"
     inkscape:showpageshadow="0"
     inkscape:pageopacity="0"
     inkscape:pagecheckerboard="0"
     inkscape:deskcolor="#505050"
     inkscape:document-units="mm"
     showgrid="false"
     inkscape:zoom="0.2102413"
     inkscape:cx="11.891098"
     inkscape:cy="71.34659"
     inkscape:window-width="1309"
     inkscape:window-height="456"
     inkscape:window-x="0"
     inkscape:window-y="25"
     inkscape:window-maximized="0"
     inkscape:current-layer="layer1" />
  <defs
     id="defs40849">
    <clipPath
       clipPathUnits="userSpaceOnUse"
       id="clipPath4735">
      <path
         d="m 55.717,341.78 h 24.7 v 24.699 h -24.7 z"
         id="path4733" />
    </clipPath>
  </defs>
  <g
     inkscape:label="Layer 1"
     inkscape:groupmode="layer"
     id="layer1"
     transform="translate(-102.45626,-130.10918)">
    <g
       id="g4729"
       transform="matrix(0.34053731,0,0,-0.34053731,82.188771,253.64523)"
       style="fill:#000000">
      <g
         id="g4731"
         clip-path="url(#clipPath4735)"
         style="fill:#000000">
        <g
           id="g4737"
           transform="translate(66.375,353.867)"
           style="fill:#000000">
          <path
             d="m 0,0 c -0.084,-0.139 -0.061,-0.272 -0.053,-0.436 0.006,-0.124 0.015,-0.248 0.025,-0.372 0.008,-0.111 0.001,-0.233 0.025,-0.341 0.011,-0.053 0.02,-0.094 0.02,-0.15 10e-4,-0.144 0,-0.289 0,-0.433 v -0.854 c 0,-0.379 0.007,-0.756 -0.025,-1.132 -0.027,-0.32 -0.002,-0.652 -0.002,-0.973 v -0.412 c 0,-0.17 -0.013,-0.335 0.027,-0.5 C 0.038,-5.69 0.072,-5.774 0.073,-5.863 0.074,-5.989 0.101,-6.108 0.1,-6.234 0.098,-6.359 0.023,-6.466 0.003,-6.592 -0.024,-6.755 -0.06,-6.918 -0.09,-7.078 c -0.014,-0.08 0.02,-0.17 0.033,-0.248 0.025,-0.152 0.01,-0.301 0.025,-0.453 0.011,-0.111 0.038,-0.227 0.07,-0.334 C 0.058,-8.178 0.097,-8.24 0.1,-8.309 0.105,-8.412 0.102,-8.519 0.099,-8.622 0.098,-8.691 0.048,-8.79 0.066,-8.855 c 0.016,-0.054 0.045,-0.037 0.093,-0.023 0.148,0.043 0.306,0.02 0.459,0.045 0.084,0.013 0.157,0.055 0.242,0.061 0.052,0.004 0.083,-0.011 0.108,0.038 0.022,0.042 -0.005,0.103 -0.003,0.148 0.006,0.113 0.047,0.197 0.001,0.307 -0.041,0.099 -0.036,0.198 -0.068,0.298 -0.048,0.15 -0.035,0.303 -0.033,0.461 0.001,0.116 -0.025,0.227 -0.028,0.343 -0.002,0.137 -0.029,0.27 -0.028,0.408 0.001,0.174 -0.029,0.343 -0.028,0.515 0.001,0.129 -0.016,0.263 0.018,0.39 0.011,0.044 0.036,0.083 0.047,0.127 0.026,0.097 -0.008,0.209 -0.01,0.307 -0.004,0.169 0.001,0.34 0.001,0.509 0,0.084 0,0.167 0,0.251 -0.001,0.127 0.028,0.248 0.027,0.375 -0.002,0.255 -0.032,0.542 0.021,0.792 0.061,0.283 -0.091,0.576 0.012,0.855 0.034,0.092 0.055,0.145 0.05,0.244 -0.002,0.058 -0.025,0.106 -0.03,0.163 -0.006,0.071 0.002,0.146 0.001,0.218 -0.001,0.129 0.009,0.258 0.017,0.386 0.008,0.11 -0.004,0.23 0.024,0.336 0.016,0.064 0.056,0.115 0.08,0.175 0.013,0.035 0.02,0.07 0.023,0.108 0.009,0.157 -0.018,0.317 -0.015,0.475 0.002,0.109 0.073,0.255 -0.008,0.357 -0.04,0.051 -0.15,0.025 -0.219,0.023 C 0.693,-0.166 0.582,-0.165 0.458,-0.14 0.388,-0.126 0.315,-0.112 0.245,-0.093 0.203,-0.082 0.1,-0.025 0,0"
             style="fill:#000000;fill-opacity:1;fill-rule:nonzero;stroke:none"
             id="path4739" />
        </g>
        <g
           id="g4741"
           transform="translate(70.252,344.55)"
           style="fill:#000000">
          <path
             d="M 0,0 C -0.037,0.021 -0.088,0.029 -0.129,0.046 -0.394,0.151 -0.671,0.218 -0.929,0.339 -1.212,0.472 -1.484,0.542 -1.796,0.551 -1.971,0.557 -2.142,0.531 -2.316,0.538 -2.475,0.544 -2.635,0.547 -2.795,0.552 -3.096,0.56 -3.487,0.632 -3.766,0.496 -3.88,0.441 -4.001,0.441 -4.123,0.425 -4.206,0.414 -4.284,0.39 -4.369,0.402 -4.432,0.411 -4.482,0.435 -4.547,0.436 -4.61,0.437 -4.674,0.439 -4.737,0.441 -4.809,0.443 -4.892,0.457 -4.963,0.449 -5.053,0.438 -5.127,0.426 -5.22,0.427 -5.478,0.432 -5.743,0.391 -5.977,0.28 -6.051,0.245 -6.121,0.202 -6.195,0.169 -6.245,0.147 -6.297,0.129 -6.349,0.113 c -0.202,-0.061 -0.396,-0.149 -0.601,-0.2 -0.042,-0.011 -0.118,-0.005 -0.144,-0.04 -0.043,-0.057 0.022,-0.192 0.07,-0.229 0.157,-0.121 0.437,-0.055 0.606,-0.055 0.42,-0.002 0.828,-0.011 1.244,0.039 0.216,0.026 0.428,0.041 0.647,0.043 0.228,0.002 0.45,-0.023 0.678,-0.027 0.367,-0.006 0.731,-0.023 1.099,-0.025 0.305,-0.001 0.621,-0.019 0.924,0.008 0.283,0.025 0.568,-0.001 0.852,0.019 0.267,0.018 0.535,0 0.803,0.011 0.049,0.002 0.101,0.003 0.146,0.02 0.089,0.035 0.212,0.177 0.131,0.264 C 0.065,-0.016 -0.021,0.026 -0.08,0.035 -0.055,0.02 -0.025,0.014 0,0"
             style="fill:#000000;fill-opacity:1;fill-rule:nonzero;stroke:none"
             id="path4743" />
        </g>
        <g
           id="g4745"
           transform="translate(75.0507,360.291)"
           style="fill:#000000">
          <path
             d="M 0,0 C -0.028,-0.043 -0.078,-0.086 -0.115,-0.121 -0.18,-0.183 -0.264,-0.26 -0.336,-0.314 -0.419,-0.377 -0.492,-0.447 -0.575,-0.51 c -0.031,-0.024 -0.049,-0.052 -0.076,-0.078 -0.03,-0.029 -0.057,-0.045 -0.096,-0.07 -0.161,-0.104 -0.333,-0.193 -0.509,-0.269 -0.21,-0.091 -0.416,-0.194 -0.615,-0.307 -0.146,-0.082 -0.282,-0.183 -0.438,-0.247 -0.184,-0.075 -0.346,-0.177 -0.519,-0.272 -0.131,-0.073 -0.232,-0.172 -0.355,-0.254 -0.268,-0.18 -0.515,-0.396 -0.74,-0.628 -0.093,-0.096 -0.153,-0.214 -0.26,-0.3 -0.067,-0.053 -0.145,-0.085 -0.21,-0.142 -0.072,-0.064 -0.133,-0.134 -0.209,-0.193 -0.251,-0.194 -0.517,-0.349 -0.783,-0.517 -0.1,-0.064 -0.213,-0.11 -0.301,-0.19 C -5.729,-4.015 -5.802,-4.063 -5.835,-4.109 -5.863,-4.148 -5.88,-4.203 -5.9,-4.246 -5.923,-4.297 -5.937,-4.353 -5.973,-4.398 -6.009,-4.442 -6.052,-4.455 -6.096,-4.487 -6.202,-4.565 -6.277,-4.68 -6.383,-4.763 -6.52,-4.87 -6.653,-4.971 -6.801,-5.063 -6.874,-5.109 -6.925,-5.172 -6.992,-5.224 -7.034,-5.256 -7.084,-5.279 -7.127,-5.308 -7.228,-5.374 -7.3,-5.471 -7.404,-5.532 c -0.045,-0.026 -0.091,-0.044 -0.128,-0.083 -0.062,-0.066 -0.115,-0.15 -0.169,-0.222 -0.072,-0.097 -0.24,-0.185 -0.357,-0.184 -0.055,0.001 -0.116,-0.012 -0.165,0.02 -0.025,0.015 -0.028,0.039 -0.052,0.056 -0.024,0.018 -0.057,0.023 -0.083,0.039 -0.061,0.038 -0.097,0.106 -0.156,0.146 -0.077,0.052 -0.159,0.079 -0.227,0.148 -0.15,0.154 -0.265,0.328 -0.401,0.494 -0.026,0.03 -0.059,0.055 -0.084,0.085 -0.045,0.055 -0.069,0.131 -0.106,0.192 -0.114,0.187 -0.248,0.344 -0.403,0.499 -0.154,0.155 -0.339,0.281 -0.508,0.419 -0.104,0.085 -0.202,0.149 -0.286,0.256 -0.124,0.16 -0.253,0.306 -0.417,0.426 -0.132,0.097 -0.262,0.208 -0.378,0.322 -0.085,0.084 -0.183,0.153 -0.264,0.241 -0.065,0.071 -0.118,0.151 -0.185,0.221 -0.11,0.116 -0.236,0.215 -0.361,0.314 -0.26,0.206 -0.497,0.446 -0.807,0.574 -0.1,0.041 -0.176,0.105 -0.267,0.161 -0.069,0.042 -0.144,0.068 -0.21,0.115 -0.088,0.063 -0.15,0.152 -0.237,0.217 -0.082,0.062 -0.177,0.108 -0.257,0.174 -0.137,0.115 -0.21,0.295 -0.326,0.429 -0.134,0.155 -0.243,0.331 -0.401,0.461 0.081,0.002 -0.121,0.03 -0.105,0.13 0.008,0.05 0.075,0.086 0.112,0.108 0.05,0.03 0.063,0.035 0.129,0.035 0.082,0 0.151,0.004 0.23,-0.024 0.102,-0.036 0.183,-0.097 0.289,-0.121 0.063,-0.015 0.119,-0.01 0.181,-0.018 0.038,-0.005 0.059,-0.021 0.096,-0.03 0.046,-0.01 0.112,0.002 0.16,0.002 h 0.401 c 0.208,0 0.435,0.024 0.641,-0.006 0.139,-0.021 0.271,-0.023 0.412,-0.021 0.14,0.002 0.276,-0.028 0.416,-0.028 0.186,0.001 0.368,-0.013 0.553,-0.033 0.175,-0.019 0.349,-0.071 0.525,-0.078 0.272,-0.01 0.544,0.012 0.816,-0.012 0.468,-0.041 0.931,0.015 1.398,0.014 0.428,-0.001 0.856,0 1.283,0 0.36,0 0.728,0.051 1.077,0.142 0.37,0.095 0.737,0.172 1.117,0.207 0.252,0.023 0.51,-0.02 0.761,0.012 0.126,0.016 0.242,0.021 0.369,0.021 0.196,0.001 0.386,-0.024 0.58,-0.028 0.191,-0.005 0.378,-0.014 0.568,-0.026 0.14,-0.008 0.268,-0.059 0.408,-0.056 0.174,0.004 0.34,-0.027 0.513,-0.026 0.131,0 0.262,0 0.393,-0.001 0.189,-0.002 0.387,0.013 0.576,0.033 0.138,0.015 0.273,0.052 0.413,0.05 C -0.23,0.233 -0.146,0.237 -0.054,0.206 -0.023,0.195 0.048,0.194 0.057,0.154 0.063,0.128 0.015,0.024 0,0 M 0.786,0.426 C 0.765,0.521 0.71,0.485 0.635,0.493 0.548,0.503 0.469,0.551 0.383,0.569 0.315,0.584 0.244,0.58 0.174,0.581 -0.179,0.584 -0.532,0.596 -0.885,0.61 -1.563,0.636 -2.241,0.668 -2.919,0.65 -3.251,0.642 -3.583,0.644 -3.915,0.622 -4.186,0.592 -4.457,0.56 -4.729,0.528 -4.985,0.509 -5.242,0.496 -5.499,0.488 -6.329,0.444 -7.159,0.428 -7.99,0.406 c -0.719,-0.019 -1.432,-0.024 -2.149,0.04 -0.359,0.032 -0.725,0.08 -1.086,0.091 -0.26,0.009 -0.52,-0.012 -0.78,-0.015 -0.344,-0.005 -0.687,0.017 -1.031,0.008 -0.363,-0.01 -0.726,-0.019 -1.089,-0.027 -0.336,-0.008 -0.671,-0.017 -1.007,-0.024 -0.074,-0.002 -0.119,0.008 -0.187,0.022 -0.09,0.017 -0.154,0.011 -0.176,-0.064 -0.003,-0.009 -0.005,-0.018 -0.006,-0.029 -0.008,-0.058 -0.043,-0.099 -0.031,-0.162 0.009,-0.049 0.041,-0.077 0.064,-0.119 0.062,-0.118 0.037,-0.253 0.123,-0.364 0.075,-0.096 0.176,-0.142 0.261,-0.224 0.06,-0.057 0.1,-0.127 0.164,-0.182 0.107,-0.091 0.17,-0.22 0.26,-0.33 0.115,-0.14 0.259,-0.241 0.387,-0.367 0.072,-0.072 0.137,-0.142 0.219,-0.203 0.057,-0.042 0.121,-0.09 0.171,-0.139 0.099,-0.099 0.204,-0.188 0.322,-0.265 0.2,-0.131 0.383,-0.287 0.587,-0.411 0.248,-0.152 0.393,-0.434 0.6,-0.631 0.166,-0.157 0.277,-0.362 0.432,-0.531 0.158,-0.172 0.322,-0.316 0.519,-0.449 0.24,-0.163 0.449,-0.344 0.656,-0.548 0.097,-0.095 0.165,-0.212 0.251,-0.318 0.08,-0.099 0.167,-0.193 0.251,-0.289 0.185,-0.21 0.337,-0.437 0.543,-0.63 0.155,-0.145 0.311,-0.29 0.465,-0.436 0.103,-0.097 0.254,-0.2 0.328,-0.32 0.039,-0.062 0.067,-0.09 0.121,-0.143 0.077,-0.075 0.109,-0.135 0.223,-0.136 0.088,0 0.174,0.015 0.261,10e-4 0.075,-0.011 0.135,-0.021 0.211,-0.018 0.14,0.005 0.397,-0.043 0.507,0.061 0.044,0.042 0.068,0.1 0.113,0.141 0.071,0.066 0.154,0.121 0.229,0.183 0.306,0.25 0.593,0.521 0.898,0.771 0.262,0.214 0.546,0.439 0.773,0.69 0.118,0.131 0.234,0.268 0.368,0.383 0.238,0.205 0.436,0.439 0.692,0.626 0.166,0.122 0.349,0.217 0.521,0.33 0.09,0.059 0.173,0.143 0.271,0.188 0.053,0.025 0.091,0.041 0.137,0.08 0.09,0.077 0.196,0.119 0.289,0.191 0.103,0.08 0.206,0.154 0.318,0.22 0.049,0.03 0.088,0.043 0.139,0.063 0.087,0.035 0.166,0.1 0.241,0.161 0.155,0.126 0.323,0.271 0.442,0.434 0.13,0.176 0.313,0.284 0.484,0.415 0.21,0.162 0.415,0.323 0.639,0.466 0.215,0.136 0.413,0.28 0.605,0.445 0.268,0.231 0.506,0.486 0.749,0.742 0.147,0.154 0.288,0.315 0.426,0.477 0.044,0.052 0.074,0.093 0.058,0.165"
             style="fill:#000000;fill-opacity:1;fill-rule:nonzero;stroke:none"
             id="path4747" />
        </g>
        <g
           id="g4749"
           transform="translate(68.6093,358.777)"
           style="fill:#000000">
          <path
             d="M 0,0 C 0.008,-0.001 0.014,-0.003 0.023,-0.001 -0.065,0.068 -0.032,0.037 0,0"
             style="fill:#000000;fill-opacity:1;fill-rule:nonzero;stroke:none"
             id="path4751" />
        </g>
        <g
           id="g4753"
           transform="translate(68.9833,356.954)"
           style="fill:#000000">
          <path
             d="m 0,0 c -0.021,-0.089 -0.081,-0.167 -0.13,-0.241 -0.105,-0.159 -0.206,-0.316 -0.302,-0.481 -0.109,-0.19 -0.214,-0.38 -0.342,-0.558 -0.089,-0.125 -0.218,-0.185 -0.347,-0.261 -0.123,-0.072 -0.217,-0.118 -0.363,-0.108 -0.112,0.007 -0.232,0.015 -0.343,0.032 -0.077,0.013 -0.14,0.054 -0.214,0.08 -0.116,0.042 -0.243,0.047 -0.357,0.088 -0.068,0.025 -0.12,0.059 -0.193,0.076 -0.094,0.021 -0.151,0.046 -0.224,0.107 -0.073,0.06 -0.18,0.121 -0.241,0.195 -0.082,0.098 -0.096,0.236 -0.188,0.33 -0.062,0.064 -0.156,0.092 -0.206,0.164 -0.051,0.073 -0.082,0.166 -0.126,0.244 -0.043,0.077 -0.053,0.139 -0.054,0.226 -0.002,0.18 -0.019,0.41 0.053,0.58 0.071,0.165 0.178,0.345 0.302,0.475 0.073,0.076 0.133,0.165 0.21,0.236 0.082,0.075 0.172,0.14 0.257,0.211 0.072,0.06 0.133,0.086 0.217,0.117 0.112,0.043 0.206,0.112 0.323,0.148 0.123,0.039 0.251,0.085 0.379,0.105 0.16,0.024 0.33,-0.028 0.477,-0.086 0.102,-0.04 0.21,-0.072 0.309,-0.117 C -0.943,1.491 -0.8,1.369 -0.652,1.276 -0.663,1.361 -0.516,1.269 -0.405,1.201 -0.254,1.109 -0.152,0.908 -0.106,0.743 -0.078,0.645 -0.062,0.557 -0.022,0.463 0.01,0.385 0.004,0.316 0.004,0.231 0.003,0.158 0.017,0.072 0,0 M 0.438,0.334 C 0.427,0.441 0.385,0.542 0.364,0.648 0.344,0.754 0.375,0.869 0.326,0.971 0.289,1.047 0.226,1.137 0.169,1.201 0.134,1.241 0.092,1.27 0.057,1.31 0.027,1.344 0.012,1.385 -0.024,1.415 -0.075,1.457 -0.107,1.502 -0.154,1.551 -0.195,1.593 -0.213,1.64 -0.248,1.687 -0.279,1.727 -0.322,1.75 -0.352,1.794 -0.357,1.803 -0.366,1.814 -0.374,1.823 -0.423,1.826 -0.455,1.87 -0.488,1.905 -0.575,1.994 -0.673,2.081 -0.778,2.149 -0.925,2.243 -1.074,2.297 -1.248,2.315 -1.477,2.338 -1.684,2.389 -1.916,2.357 -2.074,2.335 -2.216,2.297 -2.356,2.226 -2.504,2.151 -2.666,2.127 -2.813,2.051 -2.906,2.003 -2.99,1.939 -3.087,1.901 -3.15,1.876 -3.204,1.857 -3.261,1.822 -3.382,1.75 -3.494,1.663 -3.605,1.579 -3.705,1.503 -3.812,1.44 -3.877,1.33 -3.939,1.223 -4.016,1.138 -4.053,1.016 -4.132,0.759 -4.143,0.481 -4.182,0.217 c -0.034,-0.232 -0.072,-0.432 -0.01,-0.661 0.032,-0.12 0.071,-0.218 0.125,-0.33 0.074,-0.153 0.13,-0.242 0.278,-0.325 0.128,-0.072 0.247,-0.133 0.338,-0.251 0.037,-0.049 0.056,-0.114 0.101,-0.158 0.041,-0.04 0.082,-0.039 0.132,-0.054 0.225,-0.067 0.388,-0.286 0.627,-0.339 0.065,-0.014 0.132,-0.012 0.197,-0.029 0.069,-0.018 0.136,-0.057 0.201,-0.086 0.11,-0.048 0.228,-0.084 0.336,-0.137 0.088,-0.043 0.163,-0.048 0.263,-0.037 0.102,0.012 0.215,0.019 0.313,0.05 0.222,0.071 0.43,0.203 0.631,0.316 0.05,0.029 0.107,0.042 0.156,0.073 0.056,0.034 0.094,0.086 0.14,0.131 0.126,0.12 0.265,0.208 0.36,0.361 0.098,0.156 0.139,0.325 0.218,0.489 0.068,0.141 0.125,0.265 0.135,0.422 0.014,0.229 0.105,0.45 0.079,0.682"
             style="fill:#000000;fill-opacity:1;fill-rule:nonzero;stroke:none"
             id="path4755" />
        </g>
        <g
           id="g4757"
           transform="translate(66.5394,357.428)"
           style="fill:#000000">
          <path
             d="m 0,0 h -0.067 c -0.03,0 -0.06,0.003 -0.089,0 -0.03,-0.002 -0.058,-0.015 -0.086,-0.023 -0.035,-0.01 -0.078,-0.012 -0.092,-0.052 -0.015,-0.044 -0.052,-0.069 -0.083,-0.103 -0.062,-0.065 -0.136,-0.12 -0.17,-0.205 -0.026,-0.064 -0.048,-0.226 -0.018,-0.297 0.041,-0.095 0.165,-0.161 0.217,-0.252 0.06,-0.106 0.15,-0.158 0.254,-0.218 0.071,-0.041 0.124,-0.109 0.197,-0.143 0.09,-0.042 0.223,0.033 0.31,0.075 0.071,0.033 0.107,0.091 0.158,0.15 0.042,0.05 0.092,0.085 0.136,0.129 0.055,0.055 0.154,0.147 0.171,0.226 0.016,0.081 0.008,0.206 -0.04,0.269 -0.035,0.046 -0.108,0.075 -0.15,0.123 -0.042,0.05 -0.077,0.108 -0.115,0.162 -0.049,0.067 -0.066,0.102 -0.145,0.116 -0.041,0.007 -0.083,0.008 -0.124,0.012 -0.038,0.003 -0.072,0.014 -0.11,0.024 -0.012,0.003 -0.02,0.003 -0.032,0.002 C 0.09,-0.007 0.058,0 0.026,0 Z"
             style="fill:#000000;fill-opacity:1;fill-rule:nonzero;stroke:none"
             id="path4759" />
        </g>
        <g
           id="g4761"
           transform="translate(66.8839,359.159)"
           style="fill:#000000">
          <path
             d="M 0,0 C 0.04,0.006 0.07,0.024 0.111,0.027 0.228,0.036 0.32,0.052 0.434,0.082 0.551,0.112 0.701,0.167 0.823,0.133 0.913,0.108 0.983,0.047 1.079,0.031 1.169,0.017 1.265,0.028 1.357,0.027 c 0.1,0 0.222,-0.024 0.312,0.031 C 1.83,0.159 1.914,0.324 2.011,0.48 2.152,0.709 2.297,0.965 2.294,1.241 2.293,1.343 2.292,1.444 2.293,1.546 2.295,1.75 2.408,1.885 2.542,2.024 2.601,2.085 2.631,2.096 2.715,2.118 2.864,2.157 3.003,2.22 3.153,2.256 3.274,2.284 3.395,2.286 3.515,2.31 3.653,2.338 3.785,2.367 3.927,2.375 4.138,2.388 4.263,2.489 4.425,2.61 4.531,2.689 4.591,2.786 4.673,2.883 4.753,2.977 4.873,3.044 4.97,3.119 5.047,3.179 5.091,3.161 5.182,3.204 5.313,3.265 5.434,3.351 5.577,3.381 5.698,3.407 5.812,3.425 5.929,3.469 6.092,3.53 6.268,3.534 6.439,3.558 6.547,3.573 6.649,3.579 6.758,3.577 6.861,3.575 6.971,3.616 7.072,3.608 7.153,3.602 7.212,3.53 7.288,3.507 7.411,3.469 7.546,3.53 7.632,3.413 7.697,3.324 7.749,3.263 7.835,3.194 7.901,3.14 7.899,3.056 7.958,2.993 8.116,2.824 8.341,2.76 8.503,2.598 8.581,2.521 8.673,2.485 8.763,2.427 8.869,2.36 8.839,2.245 8.901,2.15 8.938,2.092 8.996,2.058 9.034,2 9.036,1.973 9.049,1.952 9.072,1.938 9.099,1.928 9.126,1.916 9.151,1.902 9.199,1.859 9.215,1.773 9.258,1.722 9.298,1.675 9.344,1.631 9.392,1.593 9.464,1.536 9.536,1.444 9.621,1.409 9.759,1.351 9.926,1.415 10.07,1.373 c 0.09,-0.026 0.159,-0.044 0.255,-0.03 0.099,0.015 0.19,0.052 0.292,0.053 0.169,0.002 0.307,-0.11 0.468,-0.145 C 11.108,1.193 11.032,1.089 11,1.044 10.943,0.963 10.89,0.9 10.788,0.901 10.701,0.902 10.628,0.913 10.569,0.987 10.525,1.044 10.533,1.101 10.455,1.124 10.415,1.136 10.337,1.122 10.293,1.121 10.238,1.119 10.203,1.103 10.153,1.085 10.101,1.066 10.055,1.075 10.004,1.061 9.918,1.038 9.826,0.954 9.75,0.907 9.675,0.861 9.591,0.823 9.503,0.819 9.482,0.818 9.415,0.807 9.399,0.823 9.381,0.842 9.398,0.899 9.391,0.924 9.317,0.925 9.301,0.993 9.261,1.043 9.202,1.116 9.138,1.172 9.095,1.256 9.069,1.304 9.048,1.359 9.013,1.402 8.987,1.434 8.958,1.448 8.931,1.478 8.845,1.574 8.827,1.737 8.755,1.845 8.668,1.978 8.534,2.049 8.44,2.172 8.325,2.319 8.244,2.448 8.075,2.541 7.966,2.601 7.845,2.63 7.732,2.683 7.66,2.717 7.591,2.762 7.522,2.801 7.467,2.831 7.419,2.873 7.362,2.899 7.245,2.953 7.073,2.939 6.953,2.907 6.871,2.885 6.798,2.848 6.713,2.833 6.628,2.818 6.552,2.8 6.47,2.774 6.375,2.745 6.261,2.728 6.161,2.711 5.952,2.673 5.752,2.615 5.546,2.573 5.158,2.494 4.88,2.18 4.59,1.937 4.513,1.872 4.439,1.808 4.355,1.752 4.292,1.71 4.221,1.696 4.154,1.663 3.986,1.58 3.832,1.441 3.679,1.332 3.547,1.238 3.415,1.109 3.295,0.998 3.146,0.858 2.97,0.763 2.817,0.63 2.715,0.543 2.673,0.469 2.655,0.335 2.633,0.162 2.615,-0.025 2.562,-0.192 2.454,-0.532 2.16,-0.848 2.252,-1.225 c 0.03,-0.125 0.071,-0.231 0.069,-0.361 0,-0.088 10e-4,-0.175 0,-0.263 0.015,0.121 -0.101,0.252 -0.15,0.358 -0.033,0.073 -0.079,0.121 -0.123,0.185 -0.046,0.069 -0.072,0.142 -0.136,0.197 -0.064,0.057 -0.08,0.084 -0.116,0.161 -0.03,0.066 -0.085,0.116 -0.124,0.178 -0.04,0.065 -0.063,0.082 -0.13,0.112 -0.082,0.039 -0.149,0.1 -0.231,0.141 -0.079,0.038 -0.163,0.059 -0.24,0.1 -0.077,0.041 -0.147,0.092 -0.225,0.131 -0.055,0.028 -0.1,0.03 -0.155,0.046 C 0.635,-0.225 0.577,-0.198 0.517,-0.184 0.446,-0.166 0.38,-0.161 0.315,-0.126 0.263,-0.098 0.229,-0.077 0.166,-0.079 0.097,-0.082 0.015,-0.117 -0.049,-0.143 -0.079,-0.156 -0.188,-0.238 0,0"
             style="fill:#000000;fill-opacity:1;fill-rule:nonzero;stroke:none"
             id="path4763" />
        </g>
        <g
           id="g4765"
           transform="translate(68.468,358.503)"
           style="fill:#000000">
          <path
             d="m 0,0 c -0.018,-0.08 -0.029,-0.14 -0.028,-0.22 0,-0.038 0.01,-0.084 -0.001,-0.12 -0.018,-0.06 -0.064,-0.078 -0.054,-0.151 0.023,-0.166 0.19,-0.208 0.288,-0.316 0.099,-0.109 0.13,-0.255 0.218,-0.369 0.025,-0.032 0.043,-0.044 0.062,-0.08 0.016,-0.029 0.013,-0.061 0.047,-0.079 0.056,-0.03 0.094,0.005 0.117,0.05 0.044,0.09 0.051,0.221 0.021,0.317 -0.023,0.077 -0.033,0.131 -0.04,0.209 -0.006,0.058 -0.024,0.141 -0.048,0.193 -0.025,0.054 -0.063,0.078 -0.103,0.117 -0.042,0.04 -0.073,0.095 -0.097,0.147 C 0.359,-0.249 0.281,0.007 0,0"
             style="fill:#000000;fill-opacity:1;fill-rule:nonzero;stroke:none"
             id="path4767" />
        </g>
        <g
           id="g4769"
           transform="translate(68.0037,358.558)"
           style="fill:#000000">
          <path
             d="M 0,0 H -0.195 C -0.278,0 -0.426,0.028 -0.507,0.001 -0.56,-0.016 -0.554,-0.068 -0.59,-0.107 -0.598,-0.116 -0.64,-0.133 -0.654,-0.143 -0.69,-0.167 -0.713,-0.194 -0.76,-0.196 c -0.007,-0.028 -0.007,-0.046 -0.026,-0.069 -0.025,0.05 0.01,0.118 -0.005,0.171 -0.02,0.069 -0.07,0.025 -0.133,0.044 -0.003,0.015 -0.006,0.03 -0.009,0.045 -0.091,0.033 -0.139,-0.024 -0.214,-0.057 -0.052,-0.023 -0.083,-0.009 -0.136,-0.019 -0.04,-0.006 -0.068,-0.049 -0.099,-0.054 -0.057,-0.01 -0.088,0.086 -0.136,0.106 -0.018,0.007 -0.036,-0.004 -0.053,0.001 -0.017,0.005 -0.033,0.018 -0.046,0.022 -0.043,0.013 -0.082,0.011 -0.123,0.034 0.089,-0.007 0.228,0.064 0.307,0.097 0.103,0.044 0.188,0.113 0.291,0.154 0.087,0.035 0.173,0.106 0.264,0.126 0.077,0.018 0.17,0.005 0.247,0.005 0.174,0 0.344,0.024 0.501,-0.055 C -0.101,0.34 -0.066,0.331 -0.04,0.311 -0.015,0.292 0,0.262 0.031,0.25 0.069,0.235 0.245,0.278 0,0"
             style="fill:#000000;fill-opacity:1;fill-rule:nonzero;stroke:none"
             id="path4771" />
        </g>
      </g>
    </g>
  </g>
</svg>
