<?xml version="1.0" encoding="UTF-8" standalone="no"?>
<!-- Created with Inkscape (http://www.inkscape.org/) -->

<svg
   width="24.006239"
   height="24"
   viewBox="0 0 6.3516507 6.35"
   version="1.1"
   id="svg40152"
   inkscape:version="1.2.1 (9c6d41e4, 2022-07-14)"
   sodipodi:docname="the-vortex-above.svg"
   xmlns:inkscape="http://www.inkscape.org/namespaces/inkscape"
   xmlns:sodipodi="http://sodipodi.sourceforge.net/DTD/sodipodi-0.dtd"
   xmlns="http://www.w3.org/2000/svg"
   xmlns:svg="http://www.w3.org/2000/svg">
  <sodipodi:namedview
     id="namedview40154"
     pagecolor="#505050"
     bordercolor="#eeeeee"
     borderopacity="1"
     inkscape:showpageshadow="0"
     inkscape:pageopacity="0"
     inkscape:pagecheckerboard="0"
     inkscape:deskcolor="#505050"
     inkscape:document-units="mm"
     showgrid="false"
     inkscape:zoom="0.7046647"
     inkscape:cx="62.441044"
     inkscape:cy="139.78279"
     inkscape:window-width="1390"
     inkscape:window-height="941"
     inkscape:window-x="0"
     inkscape:window-y="25"
     inkscape:window-maximized="0"
     inkscape:current-layer="layer1" />
  <defs
     id="defs40149">
    <clipPath
       clipPathUnits="userSpaceOnUse"
       id="clipPath29097">
      <path
         d="m 398.248,333 h 24.699 v 24.699 h -24.699 z"
         id="path29095" />
    </clipPath>
  </defs>
  <g
     inkscape:label="Layer 1"
     inkscape:groupmode="layer"
     id="layer1"
     transform="translate(-88.782652,-112.06288)">
    <g
       id="g29091"
       transform="matrix(0.3491853,0,0,-0.3491853,-51.06685,236.46966)">
      <g
         id="g29093"
         clip-path="url(#clipPath29097)">
        <g
           id="g29099"
           transform="translate(410.582,347.018)">
          <path
             d="M 0,0 C 0.069,-0.12 0.071,-0.181 0.059,-0.316 0.035,-0.569 -0.106,-0.728 -0.324,-0.851 l 0.163,0.093 c -0.014,-0.133 -0.078,-0.239 -0.22,-0.281 -0.057,-0.017 -0.082,0 -0.143,-0.026 -0.045,-0.019 -0.073,-0.042 -0.119,-0.057 -0.02,0.013 -0.042,0.015 -0.065,0.005 -0.021,-0.013 -0.042,-0.027 -0.063,-0.04 -0.045,-0.012 -0.076,-0.015 -0.123,-0.017 -0.088,-0.004 -0.16,-0.04 -0.247,-0.038 -0.095,10e-4 -0.151,0.005 -0.211,0.083 -0.056,0.075 -0.095,0.171 -0.142,0.253 -0.085,0.147 -0.147,0.351 -0.086,0.527 0.127,0.368 0.408,0.757 0.818,0.845 0.213,0.046 0.493,-0.042 0.611,-0.227 C -0.096,0.183 -0.051,0.089 0,0 M 0.313,0.934 C 0.252,0.997 0.185,1.009 0.109,1.055 0.032,1.102 -0.04,1.135 -0.127,1.17 -0.251,1.221 -0.403,1.252 -0.536,1.216 -0.61,1.196 -0.674,1.19 -0.748,1.164 -0.818,1.14 -0.891,1.121 -0.962,1.098 -1.106,1.052 -1.225,0.987 -1.357,0.912 -1.458,0.855 -1.562,0.799 -1.662,0.74 -1.779,0.671 -1.831,0.575 -1.904,0.473 -1.999,0.341 -2.126,0.182 -2.13,0.011 c 0.003,0.006 0.007,0.013 0.09,0.102 -0.054,-0.115 -0.117,-0.245 -0.154,-0.363 -0.121,-0.383 -0.029,-0.808 0.17,-1.134 0.05,-0.083 0.124,-0.158 0.202,-0.217 0.081,-0.061 0.173,-0.069 0.267,-0.103 0.191,-0.069 0.385,-0.149 0.581,-0.201 0.082,-0.022 0.159,-0.018 0.245,0.005 0.113,0.031 0.241,0.038 0.35,0.077 0.237,0.086 0.446,0.252 0.611,0.434 0.281,0.31 0.476,0.755 0.521,1.154 C 0.777,-0.024 0.754,0.207 0.656,0.393 0.605,0.491 0.573,0.594 0.524,0.692 0.477,0.786 0.386,0.859 0.313,0.934"
             style="fill:#231f20;fill-opacity:1;fill-rule:nonzero;stroke:none"
             id="path29101" />
        </g>
        <g
           id="g29103"
           transform="translate(410.383,356.128)">
          <path
             d="M 0,0 C -0.282,0.103 -0.546,0.128 -0.843,0.13 -1.18,0.132 -1.522,0.163 -1.857,0.142 -2.474,0.102 -3.09,0.038 -3.694,-0.099 -3.951,-0.157 -4.209,-0.2 -4.462,-0.275 -4.626,-0.325 -4.768,-0.412 -4.92,-0.494 -5.166,-0.626 -5.427,-0.728 -5.68,-0.842 -5.869,-0.928 -6.06,-0.979 -6.23,-1.109 -6.388,-1.228 -6.543,-1.353 -6.685,-1.495 -6.774,-1.583 -6.85,-1.689 -6.943,-1.773 -7.067,-1.885 -7.2,-1.968 -7.314,-2.096 -7.424,-2.22 -7.521,-2.359 -7.635,-2.478 -7.725,-2.572 -7.822,-2.655 -7.89,-2.77 -7.964,-2.897 -8.001,-3.046 -8.057,-3.183 -8.137,-3.377 -8.12,-3.491 -8.11,-3.692 c 0.008,-0.167 -0.054,-0.384 0.013,-0.543 0.082,0.039 0.189,0.266 0.249,0.353 0.153,0.218 0.334,0.385 0.503,0.586 0.105,0.124 0.227,0.218 0.341,0.331 0.108,0.107 0.197,0.238 0.306,0.343 0.097,0.092 0.222,0.169 0.324,0.254 0.183,0.152 0.398,0.279 0.555,0.463 0.269,0.318 0.61,0.444 0.998,0.551 0.158,0.044 0.318,0.049 0.473,0.107 0.237,0.088 0.47,0.192 0.709,0.276 0.247,0.086 0.502,0.124 0.755,0.185 0.244,0.059 0.488,0.121 0.737,0.148 0.323,0.035 0.671,0.084 0.996,0.071 0.347,-0.013 0.692,0.001 1.034,-0.071 0.15,-0.031 0.334,-0.147 0.486,-0.121 0.048,0.009 0.091,0.039 0.138,0.052 0.105,0.028 0.248,-0.063 0.333,-0.005 0.005,0.129 -0.218,0.21 -0.301,0.255 -0.106,0.058 -0.197,0.135 -0.307,0.183 -0.076,0.033 -0.148,0.071 -0.218,0.107 -0.027,0.014 -0.051,0.023 -0.077,0.035 -0.037,0.016 -0.118,0.08 -0.154,0.068 C -0.218,-0.077 -0.219,-0.089 0,0"
             style="fill:#231f20;fill-opacity:1;fill-rule:nonzero;stroke:none"
             id="path29105" />
        </g>
        <g
           id="g29107"
           transform="translate(405.892,341.063)">
          <path
             d="m 0,0 c 0.038,-0.008 0.078,-0.014 0.121,-0.016 0.2,-0.007 0.393,-0.081 0.59,-0.032 C 0.868,-0.01 1.024,0.01 1.18,0.025 1.155,0.156 1.015,0.198 0.915,0.26 0.8,0.332 0.744,0.442 0.621,0.508 0.567,0.537 0.516,0.545 0.464,0.576 0.406,0.61 0.35,0.649 0.293,0.687 0.25,0.714 0.203,0.766 0.162,0.826 c -0.223,0.194 -0.41,0.427 -0.557,0.675 -0.109,0.182 -0.278,0.325 -0.387,0.508 -0.062,0.104 -0.123,0.206 -0.18,0.312 -0.056,0.104 -0.142,0.186 -0.2,0.289 -0.083,0.147 -0.133,0.309 -0.223,0.454 -0.055,0.089 -0.142,0.169 -0.18,0.267 -0.034,0.09 -0.045,0.196 -0.04,0.292 0.008,0.143 -0.039,0.272 -0.069,0.417 -0.06,0.284 -0.09,0.577 -0.055,0.871 0.019,0.161 0.067,0.318 0.112,0.475 0.032,0.108 0.062,0.216 0.09,0.324 0.069,0.273 0.214,0.546 0.258,0.817 0.041,0.253 0.258,0.46 0.402,0.67 0.183,0.266 0.324,0.558 0.524,0.814 0.088,0.112 0.181,0.236 0.288,0.335 C 0.047,8.44 0.15,8.557 0.268,8.632 0.526,8.793 0.763,8.982 1.022,9.14 1.153,9.22 1.29,9.294 1.435,9.348 1.503,9.374 1.572,9.393 1.642,9.41 1.841,9.457 2.012,9.589 2.204,9.668 2.331,9.721 2.468,9.73 2.604,9.75 2.793,9.78 2.987,9.831 3.177,9.811 3.315,9.797 3.446,9.752 3.584,9.734 3.729,9.716 3.875,9.703 4.019,9.68 4.152,9.658 4.223,9.602 4.34,9.557 4.416,9.528 4.498,9.543 4.577,9.529 4.863,9.479 4.97,9.245 5.235,9.153 5.368,9.106 5.506,9.106 5.642,9.077 5.831,9.035 5.941,8.915 6.066,8.79 6.141,8.715 6.215,8.637 6.301,8.574 6.368,8.525 6.454,8.493 6.515,8.437 6.579,8.377 6.619,8.28 6.669,8.21 6.711,8.153 6.757,8.1 6.789,8.037 6.945,7.728 6.97,7.355 7.012,7.015 7.064,6.598 7.05,6.167 6.958,5.748 6.912,5.54 6.846,5.334 6.753,5.138 6.711,5.05 6.653,4.974 6.617,4.885 6.573,4.773 6.529,4.661 6.471,4.553 6.411,4.441 6.351,4.288 6.237,4.212 6.155,4.158 6.052,4.15 5.968,4.096 5.834,4.009 5.717,3.893 5.585,3.802 5.262,3.578 4.871,3.286 4.459,3.268 4.369,3.264 4.284,3.286 4.196,3.291 4.061,3.299 3.933,3.263 3.8,3.247 3.734,3.239 3.673,3.24 3.612,3.209 3.555,3.179 3.515,3.128 3.452,3.108 3.459,3.028 3.619,3.043 3.685,3.037 3.838,3.025 3.948,3.009 4.082,2.938 4.195,2.879 4.272,2.766 4.395,2.723 4.518,2.681 4.655,2.765 4.789,2.76 5.037,2.75 5.243,2.89 5.469,2.968 5.659,3.033 5.861,3.095 6.023,3.215 6.199,3.344 6.392,3.51 6.512,3.681 6.599,3.806 6.775,3.903 6.881,4.041 6.955,4.136 6.974,4.255 7.049,4.355 7.18,4.531 7.27,4.711 7.351,4.911 c 0.03,0.074 0.04,0.15 0.09,0.218 0.049,0.068 0.096,0.12 0.113,0.202 0.015,0.072 0.009,0.136 0.033,0.208 0.036,0.113 0.107,0.213 0.15,0.324 0.05,0.129 0.059,0.264 0.098,0.395 0.029,0.094 0.054,0.17 0.056,0.267 C 7.897,6.799 7.986,7.072 7.957,7.344 7.934,7.564 7.907,7.784 7.881,8.003 7.839,8.354 7.513,8.579 7.443,8.916 7.414,9.055 7.403,9.185 7.327,9.31 7.115,9.655 6.629,9.812 6.261,9.974 5.947,10.113 5.664,10.302 5.344,10.43 5.019,10.56 4.66,10.642 4.314,10.718 4.112,10.762 3.914,10.829 3.706,10.852 3.363,10.89 3.026,10.841 2.684,10.79 2.364,10.741 2.086,10.652 1.785,10.537 1.614,10.471 1.457,10.394 1.295,10.309 1.093,10.202 0.896,10.137 0.686,10.056 0.537,9.999 0.421,9.895 0.271,9.837 0.132,9.783 0.016,9.679 -0.115,9.608 -0.328,9.493 -0.511,9.376 -0.697,9.223 -0.879,9.074 -1.105,8.951 -1.254,8.775 -1.484,8.503 -1.755,8.261 -1.978,7.984 -2.086,7.85 -2.168,7.704 -2.237,7.551 -2.312,7.384 -2.412,7.22 -2.466,7.049 -2.495,6.958 -2.508,6.864 -2.541,6.774 -2.572,6.688 -2.622,6.609 -2.651,6.522 -2.7,6.383 -2.697,6.245 -2.749,6.105 -2.834,5.874 -2.937,5.647 -3,5.41 -3.024,5.323 -3.054,5.227 -3.037,5.138 -3.021,5.051 -2.992,4.993 -2.999,4.9 -3.018,4.646 -2.978,4.377 -2.921,4.133 -2.818,3.689 -2.725,3.273 -2.48,2.881 -2.269,2.542 -2.165,2.14 -1.92,1.822 -1.792,1.656 -1.727,1.458 -1.599,1.291 -1.469,1.118 -1.311,0.948 -1.146,0.804 -1.04,0.713 -0.921,0.635 -0.808,0.554 -0.712,0.485 -0.649,0.404 -0.533,0.351 -0.336,0.262 -0.179,0.111 0,0"
             style="fill:#231f20;fill-opacity:1;fill-rule:nonzero;stroke:none"
             id="path29109" />
        </g>
        <g
           id="g29111"
           transform="translate(418.662,348.9)">
          <path
             d="M 0,0 C -0.113,0.341 -0.05,0.699 -0.086,1.056 -0.111,1.302 -0.132,1.552 -0.169,1.795 -0.215,2.107 -0.31,2.41 -0.413,2.706 -0.466,2.861 -0.542,3.002 -0.605,3.153 -0.689,3.354 -0.739,3.554 -0.803,3.763 -0.872,3.986 -0.972,4.197 -1.085,4.4 -1.24,4.68 -1.401,4.989 -1.654,5.193 -1.805,5.314 -1.932,5.451 -2.084,5.569 -2.207,5.663 -2.278,5.792 -2.378,5.906 -2.472,6.014 -2.591,6.087 -2.73,6.131 -2.871,6.176 -3.002,6.241 -3.14,6.291 -3.27,6.338 -3.433,6.339 -3.552,6.404 -3.606,6.434 -3.639,6.493 -3.69,6.523 -3.73,6.547 -3.766,6.541 -3.807,6.553 -3.938,6.592 -4.045,6.678 -4.176,6.719 -4.288,6.754 -4.394,6.799 -4.513,6.815 -4.72,6.842 -4.928,6.855 -5.135,6.889 -5.346,6.925 -5.537,6.909 -5.75,6.91 -5.882,6.912 -6.021,6.875 -6.153,6.854 -6.231,6.841 -6.389,6.829 -6.416,6.745 -6.327,6.736 -6.247,6.74 -6.159,6.719 -6.016,6.686 -5.875,6.646 -5.732,6.615 -5.531,6.571 -5.345,6.508 -5.153,6.443 -5.015,6.396 -4.87,6.374 -4.734,6.321 -4.639,6.284 -4.52,6.255 -4.428,6.21 -4.346,6.17 -4.262,6.107 -4.183,6.062 -3.947,5.926 -3.716,5.785 -3.467,5.67 c 0.204,-0.093 0.43,-0.221 0.586,-0.381 0.111,-0.114 0.204,-0.244 0.289,-0.378 0.04,-0.064 0.072,-0.145 0.126,-0.2 0.039,-0.04 0.09,-0.063 0.128,-0.105 0.101,-0.113 0.148,-0.267 0.21,-0.402 0.064,-0.139 0.149,-0.26 0.205,-0.403 0.059,-0.151 0.107,-0.307 0.167,-0.459 0.125,-0.319 0.204,-0.655 0.352,-0.964 0.212,-0.441 0.15,-0.948 0.354,-1.39 0.207,-0.447 0.134,-1.019 0.133,-1.509 0,-0.351 -0.017,-0.711 -0.138,-1.052 -0.055,-0.154 -0.131,-0.302 -0.184,-0.456 -0.08,-0.232 -0.101,-0.465 -0.13,-0.703 -0.056,-0.457 -0.194,-0.931 -0.414,-1.348 -0.073,-0.138 -0.15,-0.273 -0.233,-0.406 -0.064,-0.131 -0.138,-0.258 -0.221,-0.379 0,0 0,-10e-4 0,-10e-4 -0.041,-0.201 -0.124,-0.385 -0.207,-0.574 -0.051,-0.116 -0.087,-0.245 -0.168,-0.346 -0.091,-0.113 -0.191,-0.21 -0.272,-0.334 -0.058,-0.087 -0.12,-0.168 -0.187,-0.25 -0.047,-0.059 -0.203,-0.182 -0.162,-0.278 0.122,0.054 0.238,0.055 0.346,0.161 0.067,0.065 0.127,0.107 0.21,0.159 0.091,0.058 0.156,0.141 0.247,0.198 0.058,0.037 0.118,0.071 0.178,0.106 0.071,0.085 0.137,0.174 0.199,0.261 0.141,0.196 0.312,0.359 0.463,0.547 0.121,0.151 0.217,0.318 0.337,0.468 0.04,0.049 0.06,0.087 0.081,0.147 0.055,0.163 0.101,0.329 0.149,0.494 0.096,0.326 0.191,0.652 0.318,0.968 0.075,0.188 0.208,0.354 0.29,0.541 0.044,0.098 0.085,0.186 0.138,0.281 0.056,0.101 0.074,0.217 0.076,0.328 0.002,0.085 -0.026,0.162 -0.006,0.247 0.059,0.242 0.126,0.46 0.133,0.71 0.006,0.205 0.038,0.408 0.077,0.611 C 0.032,-0.271 0.047,-0.143 0,0"
             style="fill:#231f20;fill-opacity:1;fill-rule:nonzero;stroke:none"
             id="path29113" />
        </g>
        <g
           id="g29115"
           transform="translate(405.919,338.183)">
          <path
             d="M 0,0 C -0.161,0.051 -0.331,0.051 -0.485,0.124 -0.638,0.195 -0.775,0.283 -0.92,0.367 -1.006,0.417 -1.094,0.47 -1.182,0.515 -1.259,0.554 -1.343,0.551 -1.426,0.573 -1.628,0.623 -1.8,0.742 -1.973,0.847 -2.209,0.99 -2.398,1.171 -2.589,1.365 -2.73,1.509 -2.861,1.654 -2.95,1.834 -3.055,2.045 -3.185,2.237 -3.318,2.432 -3.61,2.858 -3.851,3.36 -4.012,3.855 c -0.066,0.204 -0.159,0.422 -0.161,0.641 -0.001,0.068 0.012,0.136 0.01,0.203 -0.006,0.248 -0.1,0.485 -0.125,0.731 -0.019,0.198 -0.084,0.378 -0.105,0.575 -0.026,0.242 -0.046,0.475 -0.03,0.721 0.007,0.111 0.024,0.222 0.037,0.333 0.016,0.156 -0.003,0.311 0.024,0.466 0.039,0.222 0.098,0.466 0.172,0.682 0.079,0.232 0.163,0.476 0.19,0.72 0.02,0.172 0.08,0.321 0.132,0.488 0.045,0.147 0.056,0.284 0.079,0.433 0.025,0.158 0.071,0.336 0.13,0.488 0.086,0.221 0.301,0.402 0.438,0.603 0.147,0.213 0.275,0.437 0.401,0.661 0.101,0.181 0.176,0.321 0.327,0.472 0.203,0.201 0.426,0.389 0.641,0.577 0.169,0.149 0.362,0.277 0.556,0.39 0.214,0.124 0.411,0.267 0.626,0.388 0.546,0.309 1.108,0.622 1.696,0.838 0.521,0.192 1.047,0.427 1.604,0.445 0.241,0.008 0.47,0.013 0.711,0.045 0.219,0.029 0.479,0.043 0.693,0.008 C 4.2,14.736 4.362,14.739 4.53,14.721 4.72,14.7 4.897,14.619 5.087,14.597 5.171,14.588 5.244,14.57 5.32,14.534 5.469,14.463 5.594,14.351 5.747,14.286 5.848,14.243 5.959,14.228 6.052,14.168 6.137,14.113 6.207,14.028 6.283,13.962 6.471,13.798 6.699,13.699 6.901,13.555 7.054,13.445 7.2,13.333 7.333,13.201 7.526,13.009 7.695,12.795 7.922,12.638 8.13,12.494 8.346,12.382 8.496,12.172 8.56,12.083 8.621,12.057 8.657,11.954 8.721,11.77 8.789,11.587 8.855,11.404 8.91,11.249 8.94,11.086 8.974,10.924 9.004,10.777 9.048,10.634 9.092,10.492 9.112,10.428 9.167,10.335 9.148,10.261 9.133,10.203 9.091,10.154 9.078,10.091 9.051,9.96 9.075,9.827 9.063,9.695 9.044,9.488 9.014,9.271 8.973,9.058 9.003,8.975 9.036,8.893 9.054,8.807 9.071,8.726 9.042,8.691 9.033,8.618 9.012,8.448 8.982,8.275 8.954,8.101 8.936,7.994 8.935,7.889 8.92,7.781 8.913,7.72 8.885,7.624 8.895,7.574 8.962,7.621 8.983,7.761 9.024,7.834 9.123,8.011 9.26,8.165 9.377,8.33 c 0.08,0.112 0.16,0.222 0.242,0.333 0.091,0.124 0.145,0.263 0.249,0.378 0.087,0.095 0.158,0.193 0.227,0.297 0.03,0.162 0.048,0.318 0.064,0.481 0.015,0.149 0.043,0.276 0.025,0.425 -0.03,0.23 -0.08,0.472 -0.07,0.705 0.012,0.283 -0.043,0.539 -0.127,0.805 -0.088,0.281 -0.15,0.576 -0.262,0.847 -0.051,0.125 -0.12,0.232 -0.169,0.358 -0.05,0.129 -0.146,0.255 -0.233,0.36 -0.182,0.22 -0.417,0.423 -0.632,0.61 -0.136,0.118 -0.272,0.242 -0.418,0.35 C 8.134,14.382 7.974,14.457 7.834,14.562 7.548,14.776 7.236,14.937 6.941,15.136 6.6,15.366 6.253,15.581 5.892,15.782 5.728,15.874 5.559,15.984 5.37,16.026 5.277,16.046 5.184,16.044 5.092,16.071 4.826,16.148 4.567,16.182 4.285,16.189 4.13,16.193 3.978,16.177 3.825,16.2 3.678,16.223 3.533,16.252 3.382,16.246 3.088,16.233 2.803,16.158 2.512,16.151 2.361,16.148 2.213,16.092 2.067,16.055 1.904,16.013 1.732,15.98 1.573,15.92 1.423,15.863 1.271,15.814 1.117,15.774 0.982,15.748 0.848,15.723 0.714,15.697 0.257,15.578 -0.144,15.255 -0.559,15.038 -0.832,14.896 -1.067,14.741 -1.317,14.56 -1.54,14.399 -1.782,14.27 -2.011,14.118 -2.193,13.997 -2.392,13.872 -2.552,13.723 -2.717,13.569 -2.908,13.425 -3.06,13.26 -3.105,13.211 -3.135,13.153 -3.176,13.101 -3.383,12.841 -3.623,12.59 -3.85,12.347 -4.083,12.095 -4.247,11.828 -4.441,11.549 -4.528,11.425 -4.592,11.34 -4.614,11.194 -4.638,11.037 -4.692,10.899 -4.745,10.749 -4.835,10.491 -4.908,10.224 -5.008,9.969 -5.126,9.672 -5.229,9.372 -5.292,9.061 -5.325,8.897 -5.306,8.732 -5.335,8.568 -5.362,8.41 -5.395,8.271 -5.391,8.112 -5.383,7.793 -5.393,7.48 -5.413,7.161 -5.43,6.874 -5.383,6.591 -5.392,6.303 -5.403,5.981 -5.409,5.647 -5.392,5.327 -5.388,5.256 -5.38,5.185 -5.36,5.117 -5.326,5.003 -5.259,4.905 -5.209,4.799 -5.127,4.627 -5.087,4.436 -5.023,4.256 -4.95,4.05 -4.863,3.851 -4.774,3.652 -4.634,3.342 -4.522,3.008 -4.348,2.716 -4.206,2.477 -4.024,2.25 -3.864,2.021 -3.611,1.659 -3.373,1.292 -3.019,1.017 -2.816,0.859 -2.595,0.721 -2.395,0.559 -2.36,0.53 -2.329,0.504 -2.302,0.468 -2.257,0.41 -2.228,0.362 -2.162,0.322 -2.004,0.225 -1.811,0.174 -1.63,0.128 c 0.274,-0.071 0.526,-0.179 0.81,-0.202 0.19,-0.016 0.397,-0.026 0.587,-0.005 0.084,0.009 0.171,0.043 0.255,0.039 C 0.085,-0.044 0.125,-0.067 0.193,-0.049 0.122,-0.07 0.063,-0.02 0,0"
             style="fill:#231f20;fill-opacity:1;fill-rule:nonzero;stroke:none"
             id="path29117" />
        </g>
        <g
           id="g29119"
           transform="translate(405.815,347.384)">
          <path
             d="m 0,0 c -0.135,-0.257 -0.227,-0.524 -0.293,-0.798 0,-0.002 -0.001,-0.004 -0.001,-0.005 -0.015,-0.205 -0.017,-0.417 0.045,-0.613 0.053,-0.166 0.157,-0.309 0.224,-0.468 0.056,-0.13 0.143,-0.254 0.227,-0.368 0.041,-0.056 0.087,-0.105 0.132,-0.159 0.052,-0.06 0.107,-0.108 0.167,-0.154 0.059,-0.045 0.067,-0.109 0.103,-0.17 0.013,-0.022 0.035,-0.09 0.061,-0.095 0.044,-0.009 0.04,0.033 0.038,0.066 -0.002,0.048 -0.02,0.105 -0.035,0.151 -0.013,0.044 -0.017,0.08 -0.026,0.127 -0.07,0.364 -0.122,0.735 -0.102,1.108 0.006,0.126 0.074,0.272 0.134,0.381 0.044,0.079 0.084,0.162 0.122,0.244 0.024,0.049 0.04,0.108 0.073,0.151 0.026,0.035 0.066,0.058 0.098,0.087 0.029,0.026 0.049,0.055 0.067,0.086 0.078,0.168 0.169,0.327 0.279,0.484 0.295,0.421 0.694,0.707 1.068,1.05 0.246,0.227 0.526,0.45 0.84,0.558 0.103,0.035 0.204,0.082 0.309,0.099 0.098,0.015 0.178,0.07 0.271,0.085 0.092,0.015 0.186,-0.014 0.283,0.004 0.084,0.015 0.161,0.02 0.244,0 C 4.458,1.818 4.558,1.753 4.686,1.712 4.801,1.675 4.971,1.703 5.074,1.633 5.074,1.722 5.005,1.762 4.969,1.832 4.922,1.923 4.883,2.018 4.83,2.105 4.782,2.186 4.706,2.265 4.68,2.347 4.679,2.352 4.677,2.358 4.675,2.364 4.658,2.424 4.643,2.495 4.586,2.529 4.555,2.547 4.517,2.547 4.485,2.561 4.445,2.579 4.409,2.612 4.37,2.633 4.174,2.736 3.912,2.664 3.705,2.649 3.625,2.644 3.55,2.663 3.469,2.654 3.309,2.636 3.166,2.602 3.007,2.609 2.764,2.619 2.562,2.475 2.34,2.396 2.038,2.288 1.7,2.15 1.514,1.869 1.465,1.796 1.438,1.712 1.383,1.643 1.304,1.542 1.189,1.49 1.087,1.417 0.963,1.326 0.862,1.202 0.756,1.092 0.595,0.923 0.497,0.71 0.36,0.524 0.303,0.448 0.225,0.389 0.17,0.313 0.104,0.221 0.052,0.1 0,0"
             style="fill:#231f20;fill-opacity:1;fill-rule:nonzero;stroke:none"
             id="path29121" />
        </g>
        <g
           id="g29123"
           transform="translate(414.43,344.519)">
          <path
             d="m 0,0 c -0.139,-0.177 -0.293,-0.286 -0.485,-0.403 -0.09,-0.055 -0.182,-0.059 -0.277,-0.09 -0.093,-0.032 -0.171,-0.08 -0.269,-0.103 -0.017,-0.004 -0.033,-0.007 -0.05,-0.01 -0.168,-0.13 -0.332,-0.266 -0.507,-0.386 -0.126,-0.087 -0.257,-0.167 -0.397,-0.227 -0.066,-0.028 -0.133,-0.05 -0.201,-0.07 -0.194,-0.054 -0.357,-0.195 -0.542,-0.283 -0.123,-0.058 -0.257,-0.071 -0.389,-0.097 -0.184,-0.036 -0.373,-0.094 -0.559,-0.08 -0.136,0.011 -0.266,0.053 -0.402,0.067 -0.142,0.014 -0.286,0.023 -0.427,0.043 -0.121,0.017 -0.193,0.065 -0.295,0.106 -0.047,0.007 -0.095,0.016 -0.144,0.027 -0.038,0 -0.076,-10e-4 -0.114,0.005 -0.108,0.017 -0.191,0.062 -0.268,0.117 -0.046,0.017 -0.085,0.027 -0.143,0.03 -0.12,0.004 -0.228,0.051 -0.346,0.065 -0.066,0.007 -0.123,0.002 -0.185,0.024 -0.077,0.026 -0.14,0.043 -0.219,0.055 -0.115,0.017 -0.217,0.073 -0.327,0.109 -0.081,0.027 -0.147,0.08 -0.229,0.105 -0.038,0.012 -0.077,0.022 -0.115,0.034 -0.036,0.012 -0.102,0.023 -0.135,0.049 -0.025,0.019 -0.037,0.047 -0.061,0.066 -0.035,0.028 -0.068,0.028 -0.087,0.077 -0.004,-0.068 0.101,-0.19 0.129,-0.245 0.052,-0.101 0.082,-0.193 0.16,-0.278 0.06,-0.065 0.115,-0.134 0.174,-0.2 0.054,-0.061 0.096,-0.132 0.163,-0.183 0.062,-0.048 0.129,-0.087 0.189,-0.138 0.112,-0.095 0.214,-0.197 0.313,-0.303 0.033,-0.004 0.064,-0.01 0.095,-0.019 0.074,-0.024 0.134,-0.073 0.203,-0.105 0.186,-0.087 0.444,-0.095 0.647,-0.139 0.456,-0.099 0.937,-0.092 1.409,-0.062 0.557,0.035 1.134,0.139 1.672,0.31 0.466,0.148 0.917,0.493 1.279,0.818 0.03,0.027 0.059,0.055 0.087,0.084 0.22,0.227 0.411,0.479 0.632,0.704 0.075,0.075 0.144,0.157 0.216,0.235 0.002,0.009 0.005,0.018 0.007,0.027 0.036,0.198 0.112,0.408 0.115,0.611 C 0.168,0.314 0.088,0.112 0,0"
             style="fill:#231f20;fill-opacity:1;fill-rule:nonzero;stroke:none"
             id="path29125" />
        </g>
      </g>
    </g>
  </g>
</svg>
