<?xml version="1.0" encoding="UTF-8" standalone="no"?>
<!-- Created with Inkscape (http://www.inkscape.org/) -->

<svg
   width="26.871199"
   height="24"
   viewBox="0 0 7.1096713 6.35"
   version="1.1"
   id="svg40012"
   inkscape:version="1.2.1 (9c6d41e4, 2022-07-14)"
   sodipodi:docname="the-flood-below.svg"
   xmlns:inkscape="http://www.inkscape.org/namespaces/inkscape"
   xmlns:sodipodi="http://sodipodi.sourceforge.net/DTD/sodipodi-0.dtd"
   xmlns="http://www.w3.org/2000/svg"
   xmlns:svg="http://www.w3.org/2000/svg">
  <sodipodi:namedview
     id="namedview40014"
     pagecolor="#505050"
     bordercolor="#eeeeee"
     borderopacity="1"
     inkscape:showpageshadow="0"
     inkscape:pageopacity="0"
     inkscape:pagecheckerboard="0"
     inkscape:deskcolor="#505050"
     inkscape:document-units="mm"
     showgrid="false"
     inkscape:zoom="0.7046647"
     inkscape:cx="174.5511"
     inkscape:cy="293.04717"
     inkscape:window-width="1390"
     inkscape:window-height="941"
     inkscape:window-x="0"
     inkscape:window-y="25"
     inkscape:window-maximized="0"
     inkscape:current-layer="layer1" />
  <defs
     id="defs40009">
    <clipPath
       clipPathUnits="userSpaceOnUse"
       id="clipPath29065">
      <path
         d="m 360.053,333 h 24.699 v 24.699 h -24.699 z"
         id="path29063" />
    </clipPath>
  </defs>
  <g
     inkscape:label="Layer 1"
     inkscape:groupmode="layer"
     id="layer1"
     transform="translate(-59.045196,-71.451329)">
    <g
       id="g29059"
       transform="matrix(0.3427371,0,0,-0.3427371,-65.379928,192.3327)">
      <g
         id="g29061"
         clip-path="url(#clipPath29065)">
        <g
           id="g29067"
           transform="translate(374.735,343.684)">
          <path
             d="m 0,0 c -0.001,-0.137 -0.03,-0.189 -0.108,-0.298 -0.147,-0.204 -0.346,-0.268 -0.594,-0.264 l 0.185,-0.003 c -0.077,-0.107 -0.185,-0.164 -0.327,-0.129 -0.057,0.014 -0.07,0.041 -0.135,0.049 -0.047,0.007 -0.083,0.001 -0.129,0.011 -0.011,0.021 -0.029,0.034 -0.054,0.037 -0.024,-0.001 -0.048,-0.002 -0.073,-0.002 -0.044,0.012 -0.072,0.025 -0.113,0.046 -0.077,0.04 -0.156,0.047 -0.23,0.091 -0.08,0.049 -0.126,0.08 -0.137,0.177 -0.011,0.092 0.004,0.193 0.005,0.286 0.002,0.168 0.05,0.372 0.19,0.492 0.292,0.25 0.726,0.44 1.119,0.311 C -0.196,0.736 -0.002,0.521 0.006,0.305 0.009,0.204 0.001,0.101 0,0 M 0.734,0.639 C 0.713,0.723 0.662,0.767 0.621,0.843 0.578,0.922 0.533,0.986 0.477,1.06 0.396,1.165 0.283,1.267 0.152,1.303 0.079,1.323 0.021,1.35 -0.055,1.365 -0.127,1.38 -0.198,1.4 -0.269,1.416 -0.416,1.449 -0.55,1.453 -0.7,1.455 -0.814,1.457 -0.93,1.461 -1.045,1.461 -1.179,1.46 -1.271,1.405 -1.384,1.355 -1.531,1.29 -1.719,1.218 -1.808,1.075 -1.802,1.078 -1.795,1.082 -1.68,1.116 -1.784,1.045 -1.902,0.966 -1.993,0.884 -2.287,0.618 -2.422,0.21 -2.416,-0.167 c 0.002,-0.096 0.027,-0.195 0.065,-0.285 0.038,-0.093 0.112,-0.145 0.175,-0.222 0.128,-0.153 0.253,-0.319 0.394,-0.461 0.059,-0.06 0.127,-0.095 0.211,-0.118 0.112,-0.031 0.224,-0.088 0.337,-0.109 0.244,-0.046 0.506,-0.009 0.737,0.064 0.394,0.123 0.782,0.404 1.021,0.721 0.126,0.168 0.222,0.376 0.231,0.584 0.005,0.108 0.03,0.212 0.037,0.32 0.007,0.104 -0.034,0.212 -0.058,0.312"
             style="fill:#231f20;fill-opacity:1;fill-rule:nonzero;stroke:none"
             id="path29069" />
        </g>
        <g
           id="g29071"
           transform="translate(372.853,351.511)">
          <path
             d="m 0,0 c -0.215,-0.094 -0.352,-0.359 -0.372,-0.566 -0.018,-0.174 -0.069,-0.377 0.112,-0.486 0.07,-0.043 0.117,-0.091 0.195,-0.107 0.112,-0.024 0.188,0.007 0.292,0.014 0.072,0.005 0.134,-0.011 0.201,0.026 0.065,0.036 0.094,0.072 0.108,0.136 0.016,0.074 0.067,0.418 -0.069,0.397 C 0.665,-0.61 0.789,-0.613 0.888,-0.782 0.935,-0.864 0.952,-0.925 0.945,-1.021 0.94,-1.074 0.939,-1.124 0.919,-1.174 0.899,-1.226 0.891,-1.276 0.873,-1.327 0.845,-1.405 0.789,-1.483 0.723,-1.536 0.657,-1.587 0.577,-1.686 0.489,-1.709 0.362,-1.742 0.17,-1.686 0.038,-1.674 c -0.143,0.014 -0.232,0.016 -0.355,0.083 -0.104,0.057 -0.222,0.055 -0.317,0.135 -0.092,0.077 -0.191,0.136 -0.232,0.248 -0.06,0.162 -0.141,0.343 -0.141,0.532 -0.001,0.141 0.067,0.277 0.087,0.416 0.009,0.063 0.016,0.09 0.055,0.149 0.043,0.064 0.106,0.166 0.159,0.221 0.052,0.054 0.113,0.08 0.162,0.139 0.038,0.046 0.049,0.053 0.109,0.083 0.116,0.06 0.193,0.144 0.3,0.213 0.206,0.135 0.496,0.138 0.721,0.242 0.069,0.032 0.119,0.092 0.186,0.125 0.079,0.039 0.151,0.024 0.237,0.024 0.134,0 0.276,0.009 0.41,0.019 0.133,0.009 0.25,0.051 0.376,0.088 0.174,0.05 0.36,0.041 0.535,0.092 C 2.51,1.187 2.648,1.192 2.835,1.173 3.167,1.141 3.521,1.142 3.836,1.04 3.923,1.011 4.009,0.962 4.099,0.94 4.186,0.919 4.255,0.919 4.336,0.885 4.403,0.857 4.47,0.84 4.536,0.819 4.628,0.789 4.693,0.73 4.793,0.714 5.031,0.675 5.264,0.621 5.481,0.512 5.602,0.451 5.71,0.369 5.832,0.311 5.924,0.267 6.025,0.242 6.112,0.19 6.709,-0.166 7.211,-0.674 7.63,-1.203 7.787,-1.4 7.965,-1.589 8.08,-1.816 8.116,-1.907 8.16,-1.994 8.211,-2.076 8.278,-2.156 8.337,-2.241 8.39,-2.331 8.542,-2.633 8.628,-2.937 8.697,-3.269 8.778,-3.662 8.775,-4.049 8.779,-4.447 8.783,-4.808 8.755,-5.168 8.755,-5.529 8.754,-6.028 8.648,-6.533 8.55,-7.021 8.501,-7.269 8.431,-7.511 8.382,-7.76 8.33,-8.026 8.277,-8.277 8.135,-8.511 7.893,-8.91 7.673,-9.319 7.36,-9.667 7.118,-9.939 6.885,-10.219 6.651,-10.498 6.465,-10.72 6.287,-10.969 6.035,-11.117 5.822,-11.241 5.633,-11.35 5.447,-11.518 5.189,-11.752 4.924,-11.98 4.643,-12.184 4.614,-12.204 4.586,-12.225 4.557,-12.245 4.332,-12.402 4.132,-12.506 3.886,-12.619 3.697,-12.707 3.51,-12.806 3.303,-12.84 3.124,-12.869 2.948,-12.874 2.773,-12.934 2.648,-12.978 2.529,-13.035 2.4,-13.068 2.252,-13.106 2.099,-13.122 1.948,-13.139 1.41,-13.201 0.873,-13.311 0.334,-13.355 c -0.401,-0.034 -0.789,0.036 -1.189,0.053 -0.482,0.022 -0.957,0.056 -1.437,0.101 -0.391,0.037 -0.771,0.071 -1.156,0.151 -0.385,0.08 -0.764,0.198 -1.155,0.247 -0.405,0.05 -0.806,0.076 -1.208,0.159 -0.232,0.047 -0.455,0.075 -0.639,0.233 -0.191,0.164 -0.421,0.268 -0.644,0.381 -0.179,0.091 -0.34,0.208 -0.525,0.287 -0.173,0.074 -0.35,0.133 -0.516,0.23 -0.269,0.157 -0.533,0.338 -0.783,0.521 -0.15,0.11 -0.292,0.225 -0.383,0.385 -0.105,0.188 -0.192,0.388 -0.287,0.581 -0.094,0.192 -0.302,0.418 -0.207,0.643 0.054,-0.014 0.072,-0.082 0.114,-0.115 0.05,-0.041 0.121,-0.074 0.177,-0.114 0.152,-0.11 0.326,-0.216 0.492,-0.31 0.12,-0.068 0.245,-0.117 0.364,-0.19 0.119,-0.074 0.264,-0.129 0.392,-0.191 0.161,-0.078 0.3,-0.181 0.461,-0.259 0.09,-0.044 0.153,-0.095 0.253,-0.117 0.148,-0.031 0.284,-0.103 0.426,-0.159 0.26,-0.103 0.524,-0.196 0.783,-0.3 0.51,-0.204 0.989,-0.41 1.547,-0.468 0.125,-0.013 0.253,-0.015 0.378,-0.031 0.145,-0.018 0.28,-0.072 0.424,-0.089 0.161,-0.02 0.315,-0.074 0.477,-0.091 0.277,-0.03 0.555,0.012 0.83,-0.042 0.172,-0.033 0.336,-0.098 0.511,-0.117 0.253,-0.027 0.502,0.036 0.741,0.108 0.282,0.084 0.586,0.126 0.883,0.096 0.198,-0.02 0.36,0.032 0.55,0.057 0.085,0.011 0.11,0.018 0.189,0.048 0.19,0.072 0.445,0.075 0.644,0.096 0.289,0.029 0.562,0.011 0.834,0.094 0.228,0.07 0.446,0.165 0.66,0.267 0.227,0.109 0.45,0.244 0.697,0.308 0.621,0.16 1.129,0.462 1.643,0.819 0.234,0.163 0.369,0.388 0.563,0.583 0.191,0.192 0.401,0.368 0.576,0.573 0.236,0.278 0.446,0.583 0.673,0.869 0.105,0.133 0.175,0.285 0.281,0.416 0.096,0.12 0.246,0.227 0.26,0.388 0.005,0.049 -0.013,0.094 -0.016,0.143 -0.009,0.148 0.087,0.283 0.152,0.412 0.129,0.256 0.217,0.517 0.286,0.793 0.096,0.38 0.095,0.802 0.136,1.19 0.032,0.307 0.045,0.573 0.002,0.88 -0.057,0.404 -0.267,0.744 -0.453,1.104 -0.17,0.327 -0.382,0.61 -0.616,0.9 C 6.396,-1.68 6.302,-1.508 6.188,-1.35 6.097,-1.223 5.983,-1.125 5.868,-1.018 5.69,-0.851 5.547,-0.64 5.361,-0.483 5.184,-0.335 4.957,-0.264 4.751,-0.166 4.541,-0.066 4.365,0.042 4.137,0.108 3.755,0.219 3.368,0.373 2.973,0.422 2.766,0.448 2.554,0.463 2.345,0.481 2.233,0.492 2.131,0.468 2.019,0.472 1.865,0.477 1.721,0.503 1.568,0.459 1.351,0.396 1.136,0.349 0.912,0.306 0.75,0.274 0.634,0.212 0.5,0.124 0.371,0.038 0.26,0.051 0.111,0.031 0.072,0.026 0.035,0.015 0,0"
             style="fill:#231f20;fill-opacity:1;fill-rule:nonzero;stroke:none"
             id="path29073" />
        </g>
        <g
           id="g29075"
           transform="translate(370.91,339.643)">
          <path
             d="M 0,0 C 0.019,0.003 0.039,0.005 0.059,0.006 0.166,0.014 0.264,0.003 0.374,0.02 0.713,0.075 1.028,0.209 1.371,0.248 1.83,0.301 2.212,0.534 2.642,0.666 c 0.263,0.081 0.524,0.176 0.789,0.251 0.087,0.024 0.165,0.049 0.242,0.097 0.484,0.3 0.951,0.718 1.292,1.158 0.13,0.169 0.252,0.339 0.395,0.5 0.073,0.082 0.145,0.164 0.223,0.242 0.101,0.102 0.162,0.214 0.252,0.322 0.068,0.082 0.136,0.127 0.197,0.215 0.074,0.108 0.147,0.214 0.214,0.327 0.129,0.218 0.259,0.496 0.24,0.751 C 6.467,4.778 6.568,4.988 6.614,5.232 6.658,5.466 6.709,5.686 6.778,5.914 6.861,6.19 6.875,6.54 6.854,6.824 6.844,6.978 6.78,7.096 6.738,7.24 6.654,7.529 6.637,7.84 6.454,8.09 6.298,8.303 6.082,8.461 5.887,8.635 5.702,8.8 5.475,8.962 5.223,9.018 5.165,9.031 5.098,9.029 5.039,9.034 4.902,9.047 4.766,9.06 4.629,9.073 4.565,9.079 4.495,9.094 4.432,9.083 4.389,9.075 4.341,9.03 4.295,9.025 4.222,9.017 4.193,9.031 4.125,9.004 4.07,8.983 4.029,8.992 3.976,8.981 3.923,8.97 3.941,8.975 3.902,8.942 3.858,8.904 3.844,8.859 3.794,8.824 3.717,8.77 3.689,8.737 3.67,8.638 3.638,8.465 3.648,8.329 3.748,8.182 3.837,8.051 3.949,7.993 4.093,7.918 4.178,7.874 4.262,7.787 4.361,7.767 4.328,7.615 3.595,7.785 3.503,7.821 3.346,7.883 3.17,7.988 3.081,8.131 3.014,8.237 3.051,8.456 3.089,8.574 3.135,8.719 3.224,8.87 3.296,9.007 3.331,9.074 3.37,9.064 3.432,9.106 3.496,9.147 3.545,9.204 3.612,9.246 3.83,9.384 4.108,9.5 4.354,9.589 4.438,9.619 4.521,9.631 4.61,9.635 5.175,9.667 5.749,9.533 6.233,9.258 6.458,9.13 6.698,8.987 6.901,8.828 6.995,8.754 7.059,8.659 7.124,8.559 7.181,8.471 7.254,8.435 7.315,8.359 7.378,8.281 7.388,8.171 7.438,8.086 7.487,8.003 7.565,7.944 7.608,7.856 7.658,7.752 7.669,7.627 7.691,7.515 7.722,7.359 7.745,7.202 7.773,7.046 7.855,6.598 7.932,6.186 7.918,5.724 7.911,5.498 7.85,5.297 7.802,5.077 7.759,4.884 7.726,4.687 7.669,4.497 7.616,4.316 7.507,4.173 7.424,4.006 7.338,3.832 7.266,3.654 7.215,3.467 7.16,3.263 7.067,3.066 7.001,2.864 6.961,2.742 6.891,2.652 6.838,2.537 6.733,2.308 6.572,2.119 6.433,1.909 6.293,1.699 6.124,1.51 5.967,1.309 5.724,0.997 5.477,0.637 5.154,0.406 5.081,0.354 5.003,0.317 4.924,0.274 4.811,0.211 4.684,0.093 4.561,0.061 4.498,0.045 4.419,0.068 4.354,0.068 3.941,0.069 3.526,-0.081 3.12,-0.156 2.895,-0.199 2.672,-0.253 2.445,-0.291 2.33,-0.311 2.214,-0.327 2.098,-0.333 2.015,-0.337 1.912,-0.317 1.835,-0.351 1.718,-0.403 1.704,-0.525 1.558,-0.545 1.457,-0.559 1.351,-0.533 1.25,-0.529 1.143,-0.524 1.035,-0.529 0.928,-0.532 0.777,-0.535 0.651,-0.548 0.5,-0.574 0.338,-0.603 0.19,-0.583 0.028,-0.567 c -0.448,0.044 -0.89,0.012 -1.334,0.116 -0.218,0.051 -0.437,0.113 -0.659,0.151 -0.117,0.02 -0.231,0.073 -0.351,0.072 0.105,-0.01 0.221,-0.036 0.318,-0.011 0.036,0.009 0.077,0.039 0.112,0.045 0.05,0.007 0.107,-0.008 0.159,-0.013 0.183,-0.015 0.367,0.029 0.55,0.047 0.262,0.027 0.528,0.05 0.791,0.083 C -0.257,-0.06 -0.129,-0.018 0,0"
             style="fill:#231f20;fill-opacity:1;fill-rule:nonzero;stroke:none"
             id="path29077" />
        </g>
        <g
           id="g29079"
           transform="translate(382.026,341.829)">
          <path
             d="M 0,0 C -0.123,-0.214 -0.249,-0.43 -0.406,-0.618 -0.646,-0.907 -0.931,-1.164 -1.205,-1.423 -1.455,-1.659 -1.721,-1.852 -2,-2.054 -2.185,-2.19 -2.362,-2.352 -2.529,-2.507 -2.587,-2.562 -2.646,-2.61 -2.716,-2.65 -3.16,-2.905 -3.66,-3.112 -4.147,-3.281 -4.587,-3.433 -5.001,-3.62 -5.452,-3.745 -5.721,-3.819 -5.978,-3.918 -6.244,-4 -6.459,-4.067 -6.682,-4.114 -6.899,-4.178 -7.402,-4.327 -7.929,-4.41 -8.456,-4.44 -8.867,-4.463 -9.28,-4.467 -9.692,-4.483 c -0.413,-0.016 -0.824,0.009 -1.237,-0.007 -0.213,-0.008 -0.416,0.021 -0.627,0.017 -0.32,-0.005 -0.64,-0.053 -0.958,10e-4 -0.223,0.037 -0.432,0.101 -0.658,0.132 -0.102,0.014 -0.206,0.029 -0.305,0.056 -0.081,0.022 -0.159,0.067 -0.241,0.077 -0.133,0.016 -0.252,0.037 -0.386,0.065 -0.088,0.019 -0.149,0.066 -0.237,0.089 -0.092,0.023 -0.186,0.053 -0.274,0.086 -0.018,0.007 -0.064,0.045 -0.083,0.041 -0.069,-0.016 -0.019,-0.072 -0.043,-0.115 -0.03,-0.052 -0.118,-0.079 -0.062,-0.157 0.025,-0.035 0.125,-0.047 0.163,-0.062 0.11,-0.042 0.2,-0.115 0.302,-0.171 0.303,-0.167 0.626,-0.241 0.958,-0.342 0.315,-0.096 0.63,-0.233 0.898,-0.418 0.254,-0.176 0.539,-0.17 0.842,-0.2 0.129,-0.013 0.249,-0.05 0.38,-0.059 0.162,-0.012 0.319,-0.035 0.48,-0.051 0.271,-0.026 0.537,0.002 0.808,-0.014 0.324,-0.019 0.631,0 0.955,0.024 0.246,0.02 0.494,0.035 0.74,0.063 0.223,0.026 0.441,0.084 0.665,0.105 0.133,0.013 0.264,-10e-4 0.397,0.002 0.346,0.008 0.683,0.148 0.991,0.279 0.228,0.096 0.472,0.15 0.704,0.238 0.216,0.083 0.423,0.183 0.646,0.25 0.135,0.04 0.273,0.064 0.408,0.098 0.396,0.099 0.773,0.281 1.143,0.437 0.278,0.118 0.547,0.232 0.802,0.393 0.151,0.096 0.301,0.185 0.469,0.253 0.164,0.066 0.33,0.119 0.487,0.197 0.114,0.057 0.222,0.089 0.335,0.137 0.102,0.044 0.191,0.135 0.274,0.205 0.181,0.155 0.352,0.321 0.543,0.466 0.187,0.142 0.35,0.322 0.504,0.495 0.108,0.12 0.234,0.232 0.324,0.365 0.266,0.392 0.512,0.816 0.693,1.25 0.07,0.167 0.156,0.323 0.204,0.498 0.068,0.249 0.109,0.502 0.155,0.754 0.046,0.253 0.12,0.499 0.159,0.754 0.036,0.24 0.023,0.476 0.102,0.709 C 1.788,2.632 1.717,2.822 1.694,2.998 1.643,3.388 1.611,3.782 1.509,4.165 1.447,4.399 1.342,4.616 1.257,4.843 1.208,4.973 1.15,5.101 1.069,5.217 1.013,5.298 0.913,5.571 0.776,5.554 0.73,5.4 0.753,5.128 0.799,4.975 0.826,4.888 0.845,4.815 0.852,4.724 0.859,4.632 0.91,4.622 0.941,4.554 0.982,4.466 0.962,4.297 0.961,4.202 0.959,3.983 0.926,3.766 0.928,3.547 0.931,3.301 0.97,3.057 0.969,2.811 0.967,2.422 0.817,2.042 0.711,1.671 0.643,1.43 0.594,1.207 0.48,0.981 0.363,0.746 0.285,0.485 0.15,0.26 0.099,0.175 0.05,0.087 0,0"
             style="fill:#231f20;fill-opacity:1;fill-rule:nonzero;stroke:none"
             id="path29081" />
        </g>
        <g
           id="g29083"
           transform="translate(363.34,342.294)">
          <path
             d="m 0,0 c 0.14,-0.203 0.269,-0.405 0.45,-0.57 0.081,-0.074 0.158,-0.143 0.234,-0.221 0.164,-0.172 0.349,-0.349 0.562,-0.455 0.138,-0.068 0.291,-0.099 0.433,-0.159 0.145,-0.062 0.283,-0.153 0.436,-0.194 0.444,-0.12 0.931,-0.248 1.399,-0.148 0.221,0.047 0.457,0.18 0.668,0.268 0.266,0.111 0.52,0.258 0.776,0.39 0.153,0.079 0.281,0.192 0.423,0.292 0.089,0.063 0.172,0.1 0.217,0.193 0.033,0.067 0.066,0.139 0.098,0.208 0.061,0.133 0.098,0.251 0.135,0.39 0.04,0.157 0.126,0.303 0.162,0.461 0.022,0.097 0.023,0.2 0.034,0.299 C 6.048,0.953 6.109,1.18 6.092,1.378 6.084,1.47 6.016,1.543 5.974,1.625 5.928,1.714 5.916,1.804 5.861,1.889 5.811,1.965 5.743,2.03 5.694,2.108 5.65,2.177 5.632,2.257 5.589,2.326 5.548,2.394 5.499,2.45 5.469,2.523 5.429,2.62 5.422,2.728 5.315,2.782 5.184,2.847 4.973,2.837 4.828,2.839 4.668,2.841 4.518,2.801 4.391,2.708 4.29,2.635 4.281,2.629 4.269,2.506 4.26,2.416 4.25,2.326 4.24,2.236 4.23,2.135 4.221,2.061 4.242,1.964 4.252,1.92 4.25,1.885 4.27,1.843 4.289,1.8 4.328,1.777 4.337,1.729 4.262,1.693 4.208,1.776 4.153,1.808 4.084,1.849 4.041,1.872 3.98,1.93 3.936,1.973 3.871,2.016 3.838,2.07 3.807,2.121 3.802,2.182 3.785,2.241 3.768,2.302 3.73,2.38 3.722,2.439 3.714,2.497 3.739,2.575 3.745,2.634 3.753,2.713 3.756,2.768 3.796,2.832 3.828,2.881 3.871,2.924 3.913,2.966 4.058,3.108 4.281,3.121 4.408,3.275 4.472,3.353 4.498,3.347 4.597,3.365 4.674,3.38 4.722,3.433 4.806,3.428 4.921,3.422 4.985,3.382 5.089,3.361 5.207,3.338 5.307,3.307 5.424,3.272 5.555,3.233 5.619,3.173 5.732,3.105 5.833,3.043 5.896,3.031 5.96,2.921 5.99,2.87 6.004,2.817 6.033,2.767 6.066,2.712 6.119,2.671 6.146,2.61 6.179,2.536 6.191,2.453 6.235,2.385 6.347,2.208 6.487,2.052 6.558,1.852 6.614,1.696 6.644,1.517 6.663,1.354 6.679,1.211 6.702,1.073 6.728,0.93 6.755,0.777 6.785,0.643 6.765,0.486 6.749,0.365 6.72,0.247 6.709,0.126 6.674,-0.244 6.549,-0.521 6.318,-0.822 6.201,-0.975 6.061,-1.114 5.953,-1.272 5.851,-1.422 5.744,-1.566 5.636,-1.713 5.483,-1.921 5.235,-2.04 4.994,-2.136 4.889,-2.178 4.752,-2.201 4.656,-2.258 4.556,-2.316 4.517,-2.425 4.391,-2.454 4.345,-2.465 4.297,-2.461 4.25,-2.473 4.126,-2.504 4.01,-2.567 3.887,-2.601 3.767,-2.634 3.713,-2.718 3.586,-2.722 3.489,-2.724 3.382,-2.737 3.286,-2.732 2.737,-2.7 2.206,-2.59 1.706,-2.378 1.407,-2.25 1.133,-2.091 0.855,-1.926 c -0.149,0.089 -0.298,0.179 -0.443,0.269 -0.126,0.078 -0.238,0.144 -0.288,0.281 -0.05,0.138 -0.169,0.23 -0.233,0.364 -0.043,0.089 -0.083,0.166 -0.126,0.248 -0.031,0.059 -0.063,0.159 -0.055,0.232 0.018,0.19 0.066,0.4 0.041,0.594 -0.008,0.065 -0.003,0.086 0.004,0.153 C -0.237,0.294 -0.304,0.38 -0.257,0.452 -0.109,0.411 -0.053,0.162 0.01,0.035 0.045,-0.034 0.087,-0.094 0.138,-0.151 0.207,-0.227 0.302,-0.277 0,0"
             style="fill:#231f20;fill-opacity:1;fill-rule:nonzero;stroke:none"
             id="path29085" />
        </g>
        <g
           id="g29087"
           transform="translate(363.592,338.214)">
          <path
             d="m 0,0 c -0.01,0.008 -0.02,0.016 -0.029,0.025 0.316,-0.267 0.625,-0.537 0.925,-0.82 0.236,-0.223 0.474,-0.427 0.755,-0.6 0.226,-0.14 0.449,-0.279 0.661,-0.436 0.329,-0.243 0.652,-0.476 1.011,-0.68 0.353,-0.201 0.678,-0.437 1.052,-0.605 0.4,-0.179 0.864,-0.325 1.299,-0.4 0.25,-0.043 0.507,-0.077 0.76,-0.103 0.186,-0.02 0.359,-0.063 0.542,-0.101 0.24,-0.05 0.492,-0.083 0.735,-0.115 0.233,-0.031 0.426,-0.09 0.653,-0.146 0.434,-0.108 0.886,-0.058 1.328,-0.029 0.755,0.05 1.546,0.186 2.266,0.404 0.18,0.055 0.323,0.111 0.49,0.194 0.162,0.08 0.341,0.115 0.503,0.196 0.249,0.125 0.469,0.287 0.714,0.415 0.308,0.162 0.567,0.367 0.861,0.548 0.238,0.147 0.47,0.323 0.625,0.552 0.045,0.086 0.099,0.165 0.164,0.239 0.053,0.046 0.1,0.097 0.142,0.151 0.017,0.038 0.008,0.072 0.032,0.112 0.091,0.153 0.504,0.297 0.338,0.479 C 15.763,-0.737 15.692,-0.859 15.641,-0.9 15.544,-0.978 15.462,-1.07 15.363,-1.145 15.196,-1.273 14.996,-1.374 14.804,-1.464 14.388,-1.66 13.942,-1.785 13.523,-1.97 13.365,-2.04 13.231,-2.141 13.094,-2.241 12.994,-2.313 12.888,-2.35 12.772,-2.393 12.666,-2.432 12.567,-2.492 12.455,-2.513 12.356,-2.531 12.282,-2.581 12.188,-2.601 12.096,-2.62 12.002,-2.6 11.91,-2.624 11.853,-2.64 11.805,-2.673 11.751,-2.695 11.631,-2.744 11.505,-2.756 11.377,-2.781 11.21,-2.813 11.049,-2.807 10.881,-2.828 10.73,-2.847 10.59,-2.909 10.441,-2.925 10.082,-2.965 9.731,-2.999 9.368,-3.017 8.958,-3.037 8.541,-3.049 8.132,-3 7.798,-2.961 7.465,-2.886 7.137,-2.819 6.72,-2.735 6.255,-2.759 5.872,-2.564 5.76,-2.507 5.669,-2.425 5.566,-2.355 5.499,-2.31 5.429,-2.271 5.355,-2.237 5.04,-2.095 4.702,-1.974 4.371,-1.871 c -0.168,0.052 -0.337,0.1 -0.505,0.152 -0.207,0.063 -0.42,0.1 -0.625,0.164 -0.184,0.057 -0.332,0.178 -0.513,0.239 -0.209,0.07 -0.354,0.131 -0.531,0.261 C 1.683,-0.676 1.179,-0.274 0.632,0.058 0.449,0.168 0.244,0.266 0.084,0.405 -0.042,0.514 -0.142,0.717 -0.324,0.751 -0.252,0.617 -0.49,0.787 -0.491,0.785 -0.528,0.701 -0.405,0.619 -0.362,0.556 -0.284,0.444 -0.24,0.322 -0.137,0.225 -0.05,0.142 0.049,0.067 0.143,-0.01 0.205,-0.061 0.317,-0.246 0,0"
             style="fill:#231f20;fill-opacity:1;fill-rule:nonzero;stroke:none"
             id="path29089" />
        </g>
      </g>
    </g>
  </g>
</svg>
