<?xml version="1.0" encoding="UTF-8" standalone="no"?>
<!-- Created with Inkscape (http://www.inkscape.org/) -->

<svg
   width="22.725172"
   height="24"
   viewBox="0 0 6.0127018 6.35"
   version="1.1"
   id="svg43205"
   inkscape:version="1.2.1 (9c6d41e4, 2022-07-14)"
   sodipodi:docname="the-pallid-mask.svg"
   xmlns:inkscape="http://www.inkscape.org/namespaces/inkscape"
   xmlns:sodipodi="http://sodipodi.sourceforge.net/DTD/sodipodi-0.dtd"
   xmlns="http://www.w3.org/2000/svg"
   xmlns:svg="http://www.w3.org/2000/svg">
  <sodipodi:namedview
     id="namedview43207"
     pagecolor="#505050"
     bordercolor="#eeeeee"
     borderopacity="1"
     inkscape:showpageshadow="0"
     inkscape:pageopacity="0"
     inkscape:pagecheckerboard="0"
     inkscape:deskcolor="#505050"
     inkscape:document-units="mm"
     showgrid="false"
     inkscape:zoom="0.2102413"
     inkscape:cx="11.891098"
     inkscape:cy="14.269318"
     inkscape:window-width="1309"
     inkscape:window-height="456"
     inkscape:window-x="0"
     inkscape:window-y="25"
     inkscape:window-maximized="0"
     inkscape:current-layer="layer1" />
  <defs
     id="defs43202">
    <clipPath
       clipPathUnits="userSpaceOnUse"
       id="clipPath26777">
      <path
         d="m 298.717,306.418 h 24.7 v 24.699 h -24.7 z"
         id="path26775" />
    </clipPath>
  </defs>
  <g
     inkscape:label="Layer 1"
     inkscape:groupmode="layer"
     id="layer1"
     transform="translate(-101.39561,-144.60615)">
    <g
       id="g26771"
       transform="matrix(0.28765064,0,0,-0.28765064,14.897409,239.43823)">
      <g
         id="g26773"
         clip-path="url(#clipPath26777)">
        <g
           id="g26779"
           transform="translate(300.796,319.074)">
          <path
             d="m 0,0 c 0.107,-0.046 0.245,-0.037 0.358,-0.074 0.055,-0.018 0.13,-0.035 0.18,-0.003 0.023,0.015 0.027,0.038 0.059,0.05 0.019,0.007 0.044,0.004 0.064,0.007 0.038,0.006 0.053,0.016 0.087,0.029 0.04,0.017 0.055,0.002 0.089,0.042 C 0.854,0.072 0.883,0.108 0.89,0.133 0.901,0.17 0.905,0.212 0.914,0.246 0.924,0.284 0.938,0.327 0.953,0.367 0.98,0.434 1.017,0.488 1.023,0.56 1.028,0.614 1.044,0.642 1.057,0.692 1.064,0.72 1.055,0.787 1.056,0.808 1.06,0.854 1.074,0.893 1.084,0.938 1.101,1.017 1.091,1.1 1.098,1.181 1.107,1.274 1.136,1.358 1.154,1.449 1.174,1.55 1.186,1.631 1.24,1.721 1.281,1.787 1.307,1.854 1.328,1.93 c 0.054,0.185 0.086,0.38 0.149,0.562 0.048,0.142 0.062,0.3 0.097,0.446 0.024,0.101 0.028,0.207 0.064,0.304 0.037,0.103 0.078,0.201 0.11,0.306 0.043,0.14 0.089,0.28 0.139,0.418 0.049,0.136 0.128,0.255 0.188,0.386 0.03,0.065 0.059,0.131 0.076,0.201 0.02,0.081 0.006,0.164 0.023,0.245 0.024,0.11 0.079,0.214 0.106,0.324 0.024,0.091 0.028,0.187 0.05,0.28 0.015,0.067 0.023,0.127 0.03,0.195 0.016,0.138 0.085,0.241 0.151,0.357 0.063,0.111 0.102,0.224 0.187,0.321 0.077,0.087 0.149,0.174 0.219,0.267 0.054,0.073 0.123,0.13 0.177,0.202 0.069,0.089 0.118,0.174 0.198,0.255 0.064,0.065 0.13,0.124 0.195,0.187 0.092,0.088 0.16,0.201 0.257,0.28 0.143,0.116 0.259,0.263 0.412,0.366 0.119,0.079 0.256,0.13 0.382,0.196 0.176,0.091 0.354,0.189 0.527,0.287 0.131,0.075 0.283,0.174 0.426,0.221 0.049,0.016 0.1,0.011 0.15,0.021 C 5.672,8.563 5.7,8.574 5.728,8.587 5.891,8.66 6.053,8.74 6.214,8.816 6.35,8.881 6.491,8.935 6.631,8.986 6.706,9.014 6.778,9.052 6.855,9.073 6.944,9.096 7.037,9.098 7.127,9.112 7.307,9.141 7.489,9.171 7.669,9.205 7.943,9.257 8.181,9.407 8.45,9.468 8.639,9.511 8.831,9.504 9.023,9.503 9.258,9.501 9.497,9.511 9.73,9.486 c 0.15,-0.017 0.302,-0.05 0.451,-0.073 0.35,-0.054 0.703,-0.082 1.058,-0.084 0.158,0 0.316,0.025 0.474,0.021 0.057,-0.002 0.102,-0.009 0.155,-0.031 0.154,-0.063 0.325,-0.08 0.488,-0.111 0.132,-0.026 0.264,-0.057 0.387,-0.112 0.079,-0.035 0.146,-0.077 0.229,-0.103 0.123,-0.037 0.238,-0.085 0.358,-0.127 0.203,-0.072 0.406,-0.131 0.605,-0.211 0.13,-0.052 0.259,-0.099 0.39,-0.146 0.15,-0.055 0.272,-0.077 0.403,-0.176 0.215,-0.161 0.436,-0.336 0.663,-0.476 0.176,-0.11 0.387,-0.214 0.54,-0.353 C 16.04,7.406 16.122,7.329 16.264,7.276 16.468,7.199 16.711,7.128 16.888,6.993 17.123,6.814 17.347,6.627 17.543,6.402 17.711,6.207 17.885,5.993 18.021,5.771 18.058,5.71 18.087,5.64 18.128,5.581 18.178,5.509 18.245,5.453 18.302,5.387 18.405,5.268 18.507,5.142 18.605,5.018 18.695,4.904 18.776,4.786 18.869,4.675 18.963,4.563 19.025,4.439 19.094,4.31 19.179,4.153 19.328,4.053 19.4,3.887 19.436,3.803 19.471,3.721 19.508,3.637 19.556,3.529 19.608,3.423 19.66,3.317 19.682,3.272 19.714,3.223 19.725,3.172 19.739,3.098 19.723,3.024 19.743,2.95 19.772,2.843 19.818,2.759 19.836,2.648 19.856,2.526 19.87,2.404 19.878,2.28 19.903,1.918 19.929,1.537 20.001,1.182 20.036,1.007 20.052,0.848 20.047,0.67 20.044,0.594 20.032,0.509 20.065,0.439 c 0.038,-0.081 0.094,-0.077 0.17,-0.082 0.217,-0.012 0.363,-0.046 0.505,0.2 0.021,0.035 0.041,0.07 0.059,0.105 -0.005,0.124 -0.014,0.247 -0.03,0.37 -0.027,0.207 -0.012,0.425 0.001,0.633 0.017,0.274 0.05,0.539 0.041,0.814 -0.004,0.13 -0.008,0.267 -0.032,0.395 C 20.737,3.095 20.647,3.302 20.561,3.508 20.528,3.586 20.489,3.656 20.449,3.73 20.384,3.848 20.391,3.987 20.352,4.115 20.24,4.479 20.009,4.862 19.745,5.13 19.699,5.177 19.647,5.206 19.61,5.262 19.502,5.427 19.42,5.604 19.288,5.753 19.174,5.881 19.071,5.998 18.973,6.141 18.715,6.516 18.455,6.863 18.133,7.183 17.838,7.477 17.557,7.791 17.208,8.017 16.949,8.184 16.669,8.303 16.405,8.46 16.233,8.561 16.065,8.664 15.909,8.788 15.71,8.944 15.486,9.065 15.28,9.211 15.056,9.37 14.819,9.512 14.565,9.614 14.386,9.687 14.211,9.768 14.027,9.827 13.933,9.858 13.838,9.877 13.742,9.896 13.664,9.912 13.597,9.952 13.52,9.974 13.109,10.092 12.691,10.187 12.266,10.236 11.622,10.31 11,10.554 10.347,10.561 10.015,10.564 9.695,10.619 9.362,10.6 9.016,10.581 8.677,10.568 8.334,10.519 8.007,10.472 7.617,10.434 7.317,10.272 7.287,10.256 7.262,10.225 7.231,10.21 7.169,10.18 7.101,10.179 7.037,10.152 6.832,10.068 6.627,9.982 6.423,9.891 6.139,9.764 5.837,9.681 5.549,9.56 5.504,9.541 5.462,9.516 5.417,9.498 5.292,9.448 5.166,9.447 5.046,9.375 4.826,9.245 4.607,9.11 4.387,8.978 4.377,8.972 4.367,8.966 4.357,8.96 4.239,8.89 4.104,8.859 3.979,8.803 3.846,8.744 3.717,8.674 3.581,8.624 3.396,8.556 3.232,8.451 3.081,8.322 2.931,8.194 2.769,8.068 2.653,7.904 2.58,7.801 2.536,7.684 2.484,7.569 2.407,7.402 2.3,7.262 2.185,7.121 2.063,6.971 1.943,6.819 1.827,6.665 1.673,6.46 1.556,6.264 1.438,6.036 1.373,5.908 1.297,5.777 1.241,5.644 1.18,5.499 1.159,5.337 1.122,5.185 1.056,4.909 1.001,4.621 0.912,4.353 0.801,4.017 0.718,3.672 0.599,3.338 0.568,3.249 0.539,3.161 0.513,3.071 0.432,2.792 0.414,2.498 0.33,2.22 0.273,2.029 0.231,1.822 0.149,1.64 0.084,1.494 0.031,1.426 0.023,1.26 0.01,0.999 -0.028,0.735 -0.056,0.475 -0.067,0.372 -0.088,0.277 -0.09,0.173 -0.091,0.138 -0.089,0.103 -0.087,0.068 -0.058,0.038 -0.027,0.012 0,0"
             style="fill:#231f20;fill-opacity:1;fill-rule:nonzero;stroke:none"
             id="path26781" />
        </g>
        <g
           id="g26783"
           transform="translate(305.634,318.794)">
          <path
             d="m 0,0 c 0.06,-0.023 0.135,-0.016 0.198,-0.035 0.068,-0.02 0.113,-10e-4 0.183,0.01 0.078,0.012 0.162,-0.005 0.238,0.015 0.046,0.012 0.089,0.034 0.129,0.061 0,0.046 0.001,0.092 0.001,0.138 0,0.125 -0.003,0.247 0.011,0.371 0.018,0.164 0.034,0.331 0.067,0.493 0.035,0.17 0.092,0.336 0.142,0.503 0.027,0.093 0.063,0.179 0.1,0.269 C 1.102,1.905 1.12,1.989 1.149,2.07 1.196,2.199 1.267,2.314 1.324,2.439 1.381,2.562 1.411,2.693 1.48,2.812 1.516,2.874 1.56,2.928 1.602,2.986 1.65,3.054 1.69,3.124 1.694,3.206 1.696,3.242 1.705,3.273 1.723,3.305 1.772,3.394 1.816,3.494 1.872,3.578 2.011,3.784 2.21,3.96 2.392,4.127 2.454,4.184 2.515,4.244 2.582,4.296 2.641,4.342 2.701,4.377 2.756,4.431 2.81,4.483 2.88,4.517 2.941,4.561 3.053,4.641 3.186,4.693 3.309,4.753 3.384,4.789 3.461,4.819 3.537,4.848 3.586,4.867 3.629,4.892 3.68,4.902 3.736,4.913 3.792,4.916 3.847,4.929 3.993,4.963 4.139,4.979 4.288,4.998 4.376,5.009 4.462,5.006 4.55,5.013 4.625,5.019 4.696,5.026 4.771,5.026 5.086,5.024 5.398,5.021 5.711,4.99 5.886,4.972 6.054,4.926 6.223,4.882 6.38,4.841 6.532,4.779 6.693,4.756 6.825,4.738 6.96,4.708 7.093,4.705 7.234,4.702 7.368,4.683 7.506,4.654 7.619,4.63 7.755,4.583 7.856,4.529 7.911,4.5 7.962,4.464 8.016,4.433 8.079,4.396 8.149,4.375 8.212,4.337 8.339,4.258 8.462,4.177 8.595,4.109 8.71,4.05 8.812,3.965 8.915,3.888 9.026,3.807 9.117,3.701 9.214,3.604 9.321,3.498 9.413,3.391 9.501,3.268 9.564,3.181 9.649,3.117 9.717,3.035 9.761,2.982 9.795,2.929 9.845,2.881 9.941,2.79 10.041,2.695 10.127,2.595 10.19,2.521 10.243,2.436 10.301,2.358 10.348,2.295 10.394,2.229 10.431,2.16 10.48,2.068 10.503,1.969 10.536,1.871 10.559,1.804 10.589,1.739 10.604,1.668 10.627,1.566 10.626,1.459 10.658,1.36 c 0.019,-0.057 0.05,-0.108 0.07,-0.163 0.024,-0.069 0.04,-0.139 0.063,-0.207 0.021,-0.061 0.046,-0.118 0.061,-0.181 0.018,-0.073 0.026,-0.147 0.029,-0.221 0.01,-0.015 0.021,-0.03 0.031,-0.046 0.017,-0.028 0.015,-0.057 0.027,-0.086 0.02,-0.053 0.066,-0.045 0.116,-0.042 0.056,0.003 0.109,0.015 0.166,0.016 0.054,0.002 0.113,0.03 0.159,0.06 0.028,0.018 0.032,0.042 0.047,0.068 0.011,0.02 0.022,0.038 0.032,0.057 C 11.454,0.68 11.448,0.746 11.437,0.811 11.419,0.92 11.425,1.036 11.429,1.146 11.435,1.291 11.45,1.433 11.441,1.578 11.437,1.647 11.433,1.719 11.418,1.787 11.392,1.904 11.34,2.013 11.29,2.121 11.27,2.162 11.248,2.198 11.225,2.237 11.187,2.299 11.19,2.372 11.166,2.44 11.1,2.632 10.968,2.832 10.818,2.97 10.792,2.995 10.763,3.009 10.742,3.038 10.681,3.125 10.633,3.218 10.558,3.294 10.494,3.361 10.435,3.422 10.379,3.496 10.232,3.692 10.084,3.873 9.903,4.038 9.736,4.19 9.577,4.353 9.382,4.468 9.236,4.554 9.08,4.613 8.933,4.693 8.837,4.745 8.743,4.797 8.655,4.861 8.543,4.941 8.418,5.002 8.303,5.077 8.177,5.158 8.044,5.231 7.904,5.282 7.804,5.318 7.706,5.359 7.604,5.388 7.552,5.403 7.499,5.412 7.446,5.421 7.403,5.428 7.365,5.449 7.322,5.459 7.094,5.517 6.862,5.562 6.628,5.582 6.271,5.613 5.925,5.735 5.565,5.73 5.382,5.728 5.205,5.752 5.022,5.739 4.831,5.724 4.644,5.712 4.456,5.682 4.276,5.653 4.061,5.628 3.898,5.539 3.882,5.529 3.869,5.513 3.852,5.505 3.818,5.488 3.78,5.486 3.746,5.472 3.634,5.424 3.522,5.376 3.411,5.325 3.256,5.254 3.09,5.207 2.933,5.138 2.909,5.128 2.886,5.114 2.861,5.104 2.793,5.076 2.724,5.074 2.658,5.034 2.539,4.962 2.42,4.888 2.3,4.815 2.295,4.812 2.289,4.809 2.284,4.805 2.22,4.767 2.146,4.749 2.078,4.717 2.005,4.684 1.935,4.646 1.86,4.617 1.759,4.579 1.67,4.521 1.589,4.451 1.508,4.381 1.42,4.312 1.358,4.224 1.319,4.168 1.297,4.106 1.269,4.044 1.229,3.955 1.172,3.879 1.111,3.803 1.046,3.722 0.981,3.64 0.919,3.556 0.837,3.446 0.775,3.341 0.713,3.218 0.679,3.15 0.639,3.079 0.609,3.008 0.578,2.93 0.568,2.844 0.55,2.763 0.518,2.616 0.491,2.463 0.445,2.319 0.388,2.14 0.347,1.956 0.286,1.777 0.27,1.73 0.255,1.682 0.242,1.634 0.201,1.485 0.195,1.329 0.153,1.181 0.123,1.079 0.103,0.969 0.06,0.871 0.026,0.793 -0.002,0.756 -0.004,0.668 -0.007,0.53 -0.025,0.389 -0.037,0.251 -0.042,0.196 -0.052,0.146 -0.052,0.09 -0.052,0.072 -0.05,0.053 -0.049,0.035 -0.032,0.02 -0.015,0.006 0,0"
             style="fill:#231f20;fill-opacity:1;fill-rule:nonzero;stroke:none"
             id="path26785" />
        </g>
        <g
           id="g26787"
           transform="translate(311.163,321.483)">
          <path
             d="m 0,0 c -0.045,0.002 -0.087,-0.004 -0.111,-0.043 -0.013,-0.021 -0.006,-0.044 -0.013,-0.065 -0.018,-0.053 -0.063,-0.095 -0.098,-0.139 -0.179,-0.231 -0.346,-0.471 -0.524,-0.703 -0.271,-0.352 -0.577,-0.66 -0.934,-0.925 -0.221,-0.164 -0.43,-0.34 -0.642,-0.516 -0.186,-0.156 -0.391,-0.319 -0.542,-0.512 -0.13,-0.166 -0.239,-0.339 -0.383,-0.489 -0.066,-0.07 -0.12,-0.146 -0.157,-0.235 -0.062,-0.153 -0.106,-0.314 -0.155,-0.472 -0.098,-0.315 -0.12,-0.657 -0.165,-0.984 -0.036,-0.267 -0.098,-0.518 -0.07,-0.789 0.026,-0.252 0.016,-0.512 0.074,-0.758 0.054,-0.228 0.122,-0.485 0.227,-0.695 0.083,-0.165 0.18,-0.285 0.301,-0.421 0.086,-0.098 0.16,-0.203 0.257,-0.29 0.066,-0.06 0.135,-0.104 0.185,-0.179 0.042,-0.063 0.05,-0.145 0.093,-0.204 0.031,-0.041 0.07,-0.076 0.094,-0.121 0.021,-0.039 0.025,-0.07 0.06,-0.1 0.1,-0.09 0.247,-0.155 0.365,-0.219 0.399,-0.22 0.813,-0.431 1.191,-0.686 0.349,-0.235 0.685,-0.522 0.95,-0.851 0.26,-0.325 0.468,-0.673 0.678,-1.03 0.113,-0.193 0.242,-0.416 0.279,-0.641 0.037,-0.219 0.099,-0.432 0.117,-0.655 0.016,-0.186 0.03,-0.369 0.011,-0.556 -0.016,-0.156 0.004,-0.309 -0.012,-0.465 -0.004,-0.043 -0.022,-0.082 0.018,-0.105 0.025,-0.014 0.085,-0.005 0.116,-0.008 0.09,-0.007 0.18,-0.019 0.27,-0.024 0.171,-0.01 0.174,0.166 0.186,0.305 0.026,0.331 0.043,0.664 0.031,0.996 -0.014,0.387 -0.111,0.776 -0.266,1.13 -0.099,0.225 -0.197,0.453 -0.289,0.681 -0.055,0.136 -0.138,0.245 -0.215,0.368 -0.069,0.109 -0.125,0.225 -0.199,0.329 -0.149,0.213 -0.365,0.367 -0.542,0.554 -0.146,0.155 -0.29,0.311 -0.439,0.464 -0.135,0.139 -0.276,0.306 -0.436,0.418 -0.157,0.109 -0.311,0.233 -0.483,0.32 -0.105,0.053 -0.215,0.073 -0.326,0.108 -0.123,0.039 -0.212,0.116 -0.292,0.216 -0.061,0.076 -0.116,0.156 -0.178,0.232 -0.054,0.065 -0.12,0.124 -0.163,0.198 -0.035,0.061 -0.052,0.119 -0.096,0.175 -0.064,0.082 -0.142,0.155 -0.202,0.239 -0.087,0.124 -0.146,0.277 -0.213,0.412 -0.081,0.162 -0.192,0.317 -0.224,0.499 -0.015,0.086 -0.017,0.176 -0.032,0.263 -0.019,0.111 -0.046,0.219 -0.056,0.331 -0.021,0.231 0.036,0.458 0.079,0.683 0.055,0.282 0.182,0.527 0.285,0.792 0.032,0.081 0.038,0.168 0.066,0.25 0.089,0.266 0.36,0.481 0.569,0.645 0.146,0.115 0.363,0.257 0.465,0.416 0.231,0.363 0.683,0.529 1.004,0.797 0.181,0.15 0.292,0.332 0.395,0.54 0.077,0.156 0.149,0.318 0.249,0.461 0.062,0.09 0.128,0.176 0.185,0.269 0.049,0.081 0.072,0.195 0.131,0.266 0.029,0.034 0.059,0.068 0.089,0.102 0.004,0.015 0.001,0.029 -0.008,0.04 0.001,0.022 -0.007,0.079 -0.013,0.102 -0.006,0.027 -0.034,0.045 -0.04,0.067 -0.009,0.035 0.005,0.068 0,0.103 -0.06,0.023 -0.107,0.045 -0.16,0.077 C 0.258,0.02 0.207,-0.006 0.115,-0.01 0.082,-0.011 0.04,-0.002 0,0"
             style="fill:#231f20;fill-opacity:1;fill-rule:nonzero;stroke:none"
             id="path26789" />
        </g>
        <g
           id="g26791"
           transform="translate(313.212,320.984)">
          <path
             d="m 0,0 c -0.482,-0.6 -0.99,-1.178 -1.492,-1.761 -0.146,-0.17 -0.292,-0.344 -0.414,-0.532 -0.099,-0.153 -0.19,-0.305 -0.307,-0.445 -0.142,-0.172 -0.299,-0.313 -0.411,-0.508 -0.092,-0.16 -0.182,-0.33 -0.246,-0.503 -0.052,-0.142 -0.122,-0.285 -0.145,-0.436 -0.025,-0.168 -0.033,-0.345 -0.041,-0.514 -0.006,-0.123 0.02,-0.204 0.078,-0.309 0.081,-0.146 0.147,-0.302 0.221,-0.452 0.076,-0.153 0.134,-0.315 0.218,-0.464 0.081,-0.143 0.163,-0.284 0.247,-0.425 0.153,-0.259 0.355,-0.447 0.58,-0.644 0.136,-0.12 0.265,-0.232 0.426,-0.317 0.167,-0.087 0.336,-0.168 0.501,-0.259 0.202,-0.111 0.41,-0.206 0.616,-0.309 0.173,-0.085 0.333,-0.203 0.495,-0.307 0.131,-0.084 0.266,-0.186 0.38,-0.291 0.122,-0.111 0.216,-0.261 0.326,-0.383 0.085,-0.094 0.179,-0.182 0.253,-0.285 0.09,-0.126 0.141,-0.263 0.202,-0.404 0.086,-0.202 0.173,-0.402 0.254,-0.606 0.103,-0.258 0.116,-0.519 0.137,-0.792 0.015,-0.185 0.036,-0.389 0.029,-0.574 -0.004,-0.123 -0.023,-0.248 -0.034,-0.371 -0.008,-0.091 -0.043,-0.211 -0.029,-0.3 0.014,-0.084 0.118,-0.065 0.186,-0.071 0.105,-0.01 0.186,0.004 0.284,0.003 0.045,0 0.045,-0.007 0.074,0.022 0.024,0.023 0.023,0.055 0.035,0.083 0.044,0.104 0.061,0.216 0.114,0.319 0.048,0.094 0.11,0.182 0.138,0.285 0.031,0.114 0.028,0.25 0.03,0.367 0.002,0.189 10e-4,0.378 10e-4,0.567 0,0.18 -0.06,0.351 -0.093,0.527 -0.066,0.35 -0.11,0.692 -0.231,1.027 -0.066,0.181 -0.169,0.329 -0.265,0.494 -0.081,0.141 -0.157,0.284 -0.247,0.419 -0.107,0.164 -0.253,0.271 -0.399,0.396 -0.155,0.131 -0.292,0.282 -0.443,0.417 -0.262,0.237 -0.577,0.413 -0.873,0.604 -0.124,0.081 -0.231,0.184 -0.351,0.271 -0.15,0.109 -0.327,0.17 -0.476,0.276 -0.228,0.163 -0.493,0.365 -0.628,0.616 -0.057,0.107 -0.09,0.227 -0.125,0.343 -0.044,0.144 -0.088,0.278 -0.099,0.428 -0.036,0.52 -0.059,1.104 0.165,1.591 0.25,0.541 0.552,1.058 0.91,1.534 0.127,0.169 0.281,0.3 0.429,0.446 0.082,0.082 0.173,0.158 0.248,0.246 0.056,0.067 0.097,0.146 0.149,0.216 0.042,0.055 0.091,0.107 0.087,0.18 -0.003,0.058 -0.039,0.066 -0.06,0.107 -0.026,0.052 -0.004,0.071 0.037,0.109 0.039,0.036 0.049,0.057 0.053,0.11 0.009,0.108 -0.087,0.112 -0.175,0.148 C 0.284,-0.097 0.24,-0.083 0.209,-0.062 0.177,-0.042 0.16,-0.012 0.12,-0.005 0.119,0.003 0.118,0.011 0,0"
             style="fill:#231f20;fill-opacity:1;fill-rule:nonzero;stroke:none"
             id="path26793" />
        </g>
        <g
           id="g26795"
           transform="translate(310.467,327.315)">
          <path
             d="m 0,0 c 0,-0.072 -0.002,-0.143 0,-0.215 0.003,-0.141 -0.04,-0.277 -0.064,-0.416 -0.031,-0.179 -0.093,-0.349 -0.105,-0.532 -0.006,-0.083 -0.003,-0.168 -0.003,-0.252 10e-4,-0.089 -0.021,-0.164 -0.03,-0.252 -0.006,-0.069 -0.014,-0.129 0.058,-0.156 0.054,-0.02 0.094,-0.029 0.143,-0.062 0.063,-0.045 0.149,-0.084 0.204,-0.134 -0.019,0.071 0.02,0.148 0.04,0.214 0.029,0.097 0.052,0.196 0.085,0.292 0.033,0.094 0.069,0.181 0.072,0.281 0.004,0.101 0.017,0.189 0.051,0.286 0.03,0.087 0.036,0.171 0.05,0.261 0.014,0.094 0.016,0.109 -0.026,0.183 C 0.4,-0.368 0.4,-0.266 0.4,-0.116 0.4,0.023 0.418,0.178 0.401,0.316 0.393,0.379 0.362,0.468 0.286,0.414 0.27,0.403 0.255,0.359 0.241,0.343 0.218,0.315 0.185,0.298 0.162,0.27 0.13,0.233 0.125,0.194 0.107,0.149 0.098,0.127 0.078,0.099 0.065,0.078 0.038,0.034 0.035,0.031 0.024,-0.024 -0.048,-0.019 -0.046,-0.107 0,0"
             style="fill:#231f20;fill-opacity:1;fill-rule:nonzero;stroke:none"
             id="path26797" />
        </g>
        <g
           id="g26799"
           transform="translate(310.695,326.829)">
          <path
             d="m 0,0 c 0.054,-0.058 0.25,-0.065 0.313,-0.073 0.19,-0.022 0.413,-0.033 0.605,-0.007 0.075,0.01 0.198,0.033 0.266,0.068 0.025,0.014 0.044,0.045 0.075,0.044 0.019,0 0.036,-0.027 0.055,-0.033 C 1.437,-0.04 1.542,-0.038 1.544,-0.194 1.546,-0.293 1.585,-0.453 1.458,-0.458 1.374,-0.461 1.289,-0.448 1.205,-0.463 1.159,-0.472 1.129,-0.498 1.088,-0.509 1.038,-0.523 0.992,-0.499 0.942,-0.524 0.873,-0.557 0.866,-0.664 0.802,-0.688 0.738,-0.711 0.655,-0.648 0.599,-0.634 0.49,-0.609 0.373,-0.585 0.269,-0.543 0.204,-0.517 0.15,-0.525 0.086,-0.508 0.03,-0.494 -0.02,-0.469 -0.081,-0.491 -0.083,-0.499 -0.084,-0.507 -0.086,-0.515"
             style="fill:#231f20;fill-opacity:1;fill-rule:nonzero;stroke:none"
             id="path26801" />
        </g>
        <g
           id="g26803"
           transform="translate(311.696,327.601)">
          <path
             d="m 0,0 c 0.014,-0.098 -0.091,-0.181 -0.084,-0.286 0.036,-0.008 0.074,0.003 0.111,0.002 0.067,-0.003 0.107,-0.019 0.167,-0.045 0.053,-0.023 0.088,-0.029 0.142,-0.042 0.053,-0.012 0.059,-0.037 0.101,-0.053 0.095,-0.037 0.099,0.075 0.114,0.145 0.017,0.081 0.043,0.198 0.015,0.281 C 0.527,0.117 0.353,0.086 0.257,0.086 0.209,0.086 0.146,0.075 0.099,0.085 0.022,0.101 0.032,0.139 -0.029,0.057"
             style="fill:#231f20;fill-opacity:1;fill-rule:nonzero;stroke:none"
             id="path26805" />
        </g>
        <g
           id="g26807"
           transform="translate(314.326,326.601)">
          <path
             d="m 0,0 c -0.072,-0.179 -0.135,-0.364 -0.214,-0.54 -0.1,-0.222 -0.286,-0.387 -0.389,-0.609 -0.057,-0.123 -0.111,-0.257 -0.112,-0.394 -0.001,-0.091 -0.023,-0.231 0.027,-0.311 0.028,-0.045 0.051,-0.054 0.1,-0.061 0.081,-0.013 0.121,-0.028 0.186,-0.086 0.037,-0.032 0.11,-0.161 0.158,-0.173 0.05,-0.012 0.08,0.064 0.105,0.099 0.081,0.113 0.165,0.218 0.229,0.344 0.025,0.049 0.038,0.109 0.081,0.133 0.063,0.035 0.09,0.014 0.131,0.102 0.041,0.088 0.058,0.217 0.043,0.312 -0.015,0.097 -0.124,0.052 -0.147,0.154 -0.019,0.089 0.045,0.207 0.099,0.272 0.034,0.041 0.038,0.038 0.095,0.05 0.045,0.01 0.095,0.011 0.139,0.021 0.077,0.018 0.089,0.072 0.117,0.141 0.031,0.076 0.196,0.29 0.134,0.355 C 0.757,-0.164 0.714,-0.182 0.685,-0.167 0.644,-0.146 0.619,-0.092 0.588,-0.058 0.552,-0.019 0.51,0.017 0.475,0.057 0.436,0.102 0.402,0.173 0.351,0.208 0.318,0.23 0.226,0.271 0.185,0.256 0.097,0.225 0.105,0.1 0.065,0.033 0.035,-0.019 -0.078,-0.068 0,0"
             style="fill:#231f20;fill-opacity:1;fill-rule:nonzero;stroke:none"
             id="path26809" />
        </g>
        <g
           id="g26811"
           transform="translate(313.44,326.2)">
          <path
             d="M 0,0 C 0.005,0.019 0.003,0.037 -0.004,0.054 -0.049,0.06 -0.066,0.022 -0.097,0.001 c -0.041,-0.027 -0.105,-0.047 -0.136,-0.087 -0.04,-0.05 -0.046,-0.178 0.001,-0.223 0.054,-0.053 0.2,-0.041 0.267,-0.028 0.046,0.009 0.137,0.036 0.169,0.073 0.027,0.032 0.024,0.032 0.025,0.078 0.002,0.101 -0.001,0.204 0.045,0.299 0.047,0.1 0.172,0.126 0.185,0.247 C 0.475,0.517 0.416,0.676 0.395,0.826 0.309,0.8 0.164,0.645 0.119,0.572 0.085,0.516 0.082,0.441 0.037,0.392 0.023,0.377 0.003,0.37 -0.011,0.355 -0.03,0.334 -0.032,0.304 -0.049,0.284 -0.097,0.229 -0.175,0.218 -0.198,0.13 -0.213,0.075 -0.19,0.013 -0.199,-0.043 -0.208,-0.105 -0.288,-0.142 -0.286,-0.2"
             style="fill:#231f20;fill-opacity:1;fill-rule:nonzero;stroke:none"
             id="path26813" />
        </g>
        <g
           id="g26815"
           transform="translate(315.755,324.371)">
          <path
             d="M 0,0 C 0.181,-0.031 0.354,-0.022 0.537,-0.03 0.634,-0.034 0.708,-0.075 0.8,-0.099 0.957,-0.139 1.123,-0.113 1.272,-0.056 1.399,-0.008 1.53,-0.047 1.659,0 1.713,0.02 1.774,0.047 1.832,0.024 1.85,0.004 1.87,-0.011 1.893,-0.023 c 0.026,-0.002 0.051,-0.006 0.076,-0.011 -0.001,-0.103 0.148,-0.08 0.218,-0.08 0.037,0 0.08,0.014 0.114,0.013 C 2.346,-0.104 2.375,-0.145 2.425,-0.148 2.441,-0.206 2.431,-0.282 2.43,-0.343 2.429,-0.41 2.454,-0.446 2.476,-0.51 2.454,-0.518 2.435,-0.513 2.411,-0.513 2.338,-0.515 2.279,-0.521 2.207,-0.543 2.075,-0.583 1.95,-0.575 1.813,-0.557 1.591,-0.529 1.322,-0.596 1.116,-0.507 1.051,-0.479 0.98,-0.475 0.914,-0.451 0.86,-0.432 0.831,-0.403 0.772,-0.399 0.619,-0.391 0.465,-0.406 0.312,-0.401 c -0.099,0.003 -0.183,0.047 -0.281,0.002 -0.038,-0.018 -0.095,-0.054 -0.14,-0.025 -0.01,0.006 -0.002,0.038 -0.01,0.046 -0.018,0.016 -0.045,0.025 -0.067,0.035 -0.034,0.016 -0.092,0.024 -0.116,0.056 -0.038,0.051 -0.024,0.185 0.026,0.223 0.053,0.038 0.205,0.062 0.272,0.066 C 0.058,0.005 0.11,0.022 0,0"
             style="fill:#231f20;fill-opacity:1;fill-rule:nonzero;stroke:none"
             id="path26817" />
        </g>
        <g
           id="g26819"
           transform="translate(317.556,323.971)">
          <path
             d="M 0,0 C -0.028,-0.052 -0.029,-0.085 -0.029,-0.148 -0.027,-0.259 -0.044,-0.358 -0.078,-0.464 -0.105,-0.55 -0.143,-0.63 -0.179,-0.713 -0.214,-0.795 -0.228,-0.877 -0.312,-0.915 -0.404,-0.957 -0.485,-0.992 -0.585,-1 c -0.077,-0.005 -0.167,-0.055 -0.244,-0.024 -0.049,0.019 -0.099,0.056 -0.132,0.094 -0.047,0.052 -0.057,0.074 -0.121,0.097 0.027,-0.085 0.024,-0.171 0.024,-0.268 0,-0.038 -0.012,-0.108 0.001,-0.144 0.029,-0.074 0.134,-0.065 0.199,-0.076 0.185,-0.033 0.365,-0.107 0.536,0.005 0.064,0.042 0.14,0.069 0.2,0.111 0.053,0.037 0.072,0.105 0.124,0.144 0.022,0.017 0.048,0.025 0.071,0.045 0.247,0.216 0.212,0.575 0.213,0.873 0,0.028 0.016,0.118 -0.005,0.139 C 0.249,0.029 0.189,-0.015 0.165,-0.022 0.117,-0.036 0.065,-0.027 0.014,-0.028 -0.061,-0.03 -0.057,-0.037 0,0"
             style="fill:#231f20;fill-opacity:1;fill-rule:nonzero;stroke:none"
             id="path26821" />
        </g>
        <g
           id="g26823"
           transform="translate(316.184,324.314)">
          <path
             d="M 0,0 C -0.085,-0.009 -0.058,0.141 -0.058,0.192 -0.057,0.29 0,0.408 0.062,0.487 0.104,0.539 0.175,0.573 0.223,0.623 0.253,0.653 0.281,0.686 0.313,0.714 0.396,0.788 0.491,0.823 0.601,0.831 0.683,0.836 0.786,0.839 0.859,0.8 0.907,0.775 0.922,0.737 0.943,0.688 0.971,0.626 0.975,0.568 0.972,0.5 0.968,0.377 0.908,0.479 0.859,0.413 0.84,0.389 0.878,0.341 0.853,0.319 0.836,0.303 0.794,0.314 0.772,0.315 0.711,0.317 0.62,0.322 0.577,0.37 0.555,0.395 0.573,0.428 0.537,0.452 0.518,0.464 0.476,0.463 0.456,0.459 0.384,0.442 0.355,0.373 0.321,0.314 0.283,0.247 0.256,0.191 0.257,0.114 0.258,0.066 0.276,-0.04 0.251,-0.08 0.205,-0.154 -0.036,-0.114 0,0"
             style="fill:#231f20;fill-opacity:1;fill-rule:nonzero;stroke:none"
             id="path26825" />
        </g>
        <g
           id="g26827"
           transform="translate(318.299,321.912)">
          <path
             d="m 0,0 c -0.084,-0.064 -0.172,-0.129 -0.248,-0.203 -0.178,-0.175 -0.281,-0.368 -0.319,-0.613 -0.033,-0.214 0.036,-0.407 0.068,-0.613 0.019,-0.127 -0.008,-0.234 0.076,-0.335 0.08,-0.098 0.14,-0.207 0.259,-0.261 0.073,-0.033 0.154,-0.064 0.228,-0.094 0.12,-0.048 0.13,0.013 0.235,0.048 0.066,0.022 0.134,0.016 0.2,0.041 0.065,0.024 0.123,0.053 0.174,0.1 0.064,0.058 0.057,0.09 0.077,0.166 0.014,0.057 0.053,0.087 0.078,0.138 0.013,0.026 0.099,0.178 0.087,0.209 C 0.905,-1.39 0.781,-1.329 0.758,-1.32 0.691,-1.292 0.571,-1.305 0.515,-1.349 0.446,-1.404 0.389,-1.488 0.286,-1.489 0.202,-1.491 0.153,-1.371 0.109,-1.316 0.079,-1.28 0.04,-1.248 0.02,-1.204 c -0.043,0.094 -0.017,0.213 -0.019,0.313 -0.004,0.138 -0.063,0.28 -0.016,0.418 0.015,0.046 0.05,0.084 0.066,0.13 0.025,0.074 0.023,0.064 0.091,0.09 0.055,0.022 0.127,0.073 0.175,0.111 0.043,0.034 0.082,0.07 0.115,0.115 C 0.47,0.026 0.507,0.065 0.516,0.129 0.522,0.174 0.514,0.226 0.515,0.272 0.515,0.368 0.474,0.439 0.36,0.398 0.319,0.383 0.3,0.338 0.269,0.314 0.216,0.273 0.21,0.271 0.172,0.217 0.133,0.163 0.073,0.121 0.028,0.072 -0.003,0.037 -0.027,-0.005 -0.058,-0.041 -0.099,-0.088 -0.108,-0.077 -0.167,-0.091 -0.168,-0.098 -0.17,-0.106 0,0"
             style="fill:#231f20;fill-opacity:1;fill-rule:nonzero;stroke:none"
             id="path26829" />
        </g>
        <g
           id="g26831"
           transform="translate(318.843,321.512)">
          <path
             d="M 0,0 C 0.054,-0.001 0.105,-0.006 0.159,0.003 0.252,0.02 0.334,0.07 0.429,0.081 0.52,0.091 0.607,0.088 0.696,0.112 0.763,0.13 0.822,0.163 0.887,0.185 0.917,0.194 0.949,0.196 0.979,0.205 1.007,0.215 1.055,0.265 1.088,0.261 1.144,0.254 1.153,0.174 1.179,0.141 1.193,0.122 1.216,0.117 1.227,0.099 1.238,0.081 1.247,0.029 1.251,0.006 1.255,-0.012 1.269,-0.068 1.26,-0.088 1.247,-0.115 1.244,-0.104 1.217,-0.118 1.139,-0.159 1.052,-0.123 0.974,-0.157 0.883,-0.198 0.846,-0.273 0.738,-0.286 0.653,-0.297 0.563,-0.314 0.478,-0.315 0.423,-0.316 0.336,-0.296 0.286,-0.317 0.237,-0.338 0.13,-0.448 0.115,-0.5 0.099,-0.557 0.14,-0.587 0.073,-0.602 -0.005,-0.619 -0.001,-0.573 0,-0.515 0.002,-0.443 -0.008,-0.384 -0.022,-0.314 -0.035,-0.243 -0.116,-0.055 0,0"
             style="fill:#231f20;fill-opacity:1;fill-rule:nonzero;stroke:none"
             id="path26833" />
        </g>
        <g
           id="g26835"
           transform="translate(319.586,320.797)">
          <path
             d="m 0,0 c -0.05,-0.041 -0.029,-0.128 -0.029,-0.184 0.001,-0.107 -0.013,-0.197 -0.026,-0.302 -0.009,-0.072 -0.001,-0.141 -0.017,-0.212 -0.013,-0.06 -0.027,-0.125 -0.012,-0.188 0.076,-0.007 0.132,0.069 0.213,0.055 0.04,-0.007 0.117,-0.024 0.152,-0.044 0.012,0.034 0.002,0.07 0.004,0.106 0.002,0.077 0.025,0.155 0.037,0.231 0.026,0.164 0.027,0.33 0.021,0.495 C 0.342,-0.004 0.355,0.015 0.316,0.031 0.297,0.039 0.239,0.038 0.214,0.043 0.131,0.06 0.086,0.049 0.005,0.032 0.003,0.04 0.002,0.049 0,0.057"
             style="fill:#231f20;fill-opacity:1;fill-rule:nonzero;stroke:none"
             id="path26837" />
        </g>
        <g
           id="g26839"
           transform="translate(307.591,326.856)">
          <path
             d="m 0,0 c -0.08,-0.001 -0.135,0.002 -0.208,-0.043 -0.064,-0.038 -0.119,-0.091 -0.184,-0.13 -0.072,-0.043 -0.154,-0.068 -0.225,-0.11 -0.116,-0.069 -0.169,-0.261 -0.182,-0.385 -0.017,-0.152 0.066,-0.238 0.148,-0.362 0.047,-0.07 0.093,-0.131 0.155,-0.188 0.046,-0.041 0.096,-0.075 0.133,-0.124 0.082,-0.108 0.094,-0.188 0.111,-0.314 0.02,-0.149 0.103,-0.261 0.19,-0.377 0.067,-0.089 0.113,-0.163 0.225,-0.198 -0.053,-0.012 -0.059,0.029 -0.034,0.059 0.045,0.055 0.206,0.07 0.267,0.086 0.061,0.016 0.153,0.014 0.177,0.084 0.015,0.041 0,0.13 0,0.171 -0.001,0.115 0.001,0.26 -0.114,0.319 -0.115,0.058 -0.179,0.108 -0.243,0.223 -0.045,0.08 -0.079,0.159 -0.137,0.231 -0.03,0.039 -0.068,0.073 -0.095,0.115 -0.021,0.033 -0.031,0.077 -0.054,0.108 -0.054,0.074 -0.206,0.149 -0.11,0.265 0.03,0.037 0.065,0.024 0.109,0.04 0.047,0.017 0.083,0.054 0.128,0.073 0.127,0.053 0.263,0.088 0.386,0.142 0.044,0.019 0.087,0.021 0.127,0.04 0.051,0.024 0.103,0.097 0.14,0.14 C 0.677,-0.058 0.68,-0.02 0.771,0.002 0.868,0.026 0.987,0.053 1.069,0.115 1.151,0.177 1.105,0.184 1.052,0.24 1.008,0.287 0.949,0.351 0.914,0.406 0.88,0.456 0.886,0.534 0.841,0.574 0.817,0.595 0.761,0.618 0.73,0.626 0.706,0.633 0.682,0.627 0.657,0.632 0.636,0.635 0.59,0.666 0.57,0.663 0.508,0.652 0.515,0.534 0.481,0.491 0.441,0.439 0.377,0.407 0.341,0.35 0.317,0.313 0.319,0.272 0.287,0.242 0.272,0.228 0.231,0.211 0.212,0.204 0.12,0.165 0.079,0.114 0,0.055 -0.046,0.02 -0.077,0.034 -0.131,0.026 -0.199,0.017 -0.22,-0.007 0,0"
             style="fill:#231f20;fill-opacity:1;fill-rule:nonzero;stroke:none"
             id="path26841" />
        </g>
        <g
           id="g26843"
           transform="translate(308.408,326.2)">
          <path
             d="m 0,0 -0.024,-0.005 c -0.021,-0.074 -0.007,-0.17 0.058,-0.217 0.029,-0.005 0.057,-0.016 0.083,-0.032 0.025,-0.024 0.041,-0.054 0.048,-0.088 0.031,-0.07 0.037,-0.098 0.092,-0.151 0.038,-0.036 0.073,-0.111 0.12,-0.133 0.031,-0.014 0.136,-0.014 0.168,-0.005 0.081,0.023 0.132,0.19 0.116,0.267 -0.013,0.066 -0.057,0.098 -0.063,0.169 -0.006,0.086 0.016,0.13 0.06,0.197 C 0.681,0.037 0.711,0.071 0.717,0.114 0.724,0.173 0.687,0.19 0.657,0.234 0.628,0.276 0.618,0.37 0.574,0.396 0.539,0.417 0.459,0.4 0.421,0.4 0.323,0.401 0.202,0.386 0.195,0.262 0.165,0.261 0.158,0.241 0.137,0.235 0.119,0.23 0.077,0.236 0.063,0.225 0.007,0.18 0.042,0.111 -0.053,0.109 -0.061,0.093 -0.062,0.075 -0.057,0.057"
             style="fill:#231f20;fill-opacity:1;fill-rule:nonzero;stroke:none"
             id="path26845" />
        </g>
        <g
           id="g26847"
           transform="translate(304.06,324.623)">
          <path
             d="m 0,0 c 0.202,-0.102 0.409,-0.188 0.601,-0.315 0.094,-0.062 0.174,-0.157 0.208,-0.269 0.026,-0.086 0.018,-0.172 0.03,-0.259 0.012,-0.082 0.051,-0.131 0.128,-0.154 0.115,-0.036 0.147,0.101 0.205,0.185 0.038,0.055 0.091,0.089 0.137,0.133 0.012,0.011 0.018,0.029 0.029,0.04 0.019,0.018 0.054,0.028 0.067,0.052 0.03,0.054 -0.017,0.174 -0.051,0.218 -0.032,0.041 -0.061,0.06 -0.087,0.106 C 1.216,-0.171 1.116,-0.201 1.034,-0.14 0.997,-0.111 1.01,-0.106 1.002,-0.058 0.931,-0.055 0.884,0.033 0.852,0.086 0.796,0.176 0.711,0.213 0.625,0.265 0.568,0.299 0.497,0.354 0.433,0.369 0.395,0.378 0.358,0.369 0.321,0.378 0.257,0.393 0.193,0.429 0.138,0.453 0.111,0.465 0.119,0.489 0.081,0.475 0.072,0.471 0.048,0.44 0.044,0.433 0.022,0.397 0.007,0.347 -0.001,0.305 -0.023,0.193 0.076,-0.087 0,0"
             style="fill:#231f20;fill-opacity:1;fill-rule:nonzero;stroke:none"
             id="path26849" />
        </g>
        <g
           id="g26851"
           transform="translate(305.343,325.156)">
          <path
             d="m 0,0 c -0.007,-0.002 -0.014,-0.003 -0.02,-0.005 -0.024,-0.154 -0.192,-0.388 0.043,-0.45 0.07,-0.018 0.181,0.002 0.254,0.002 0.064,0.001 0.08,0 0.125,-0.043 C 0.438,-0.53 0.475,-0.554 0.509,-0.584 0.597,-0.661 0.619,-0.692 0.598,-0.82 0.59,-0.866 0.573,-0.912 0.577,-0.96 0.582,-1.024 0.624,-1.043 0.65,-1.099 0.675,-1.154 0.676,-1.226 0.75,-1.23 0.759,-1.269 0.76,-1.292 0.777,-1.324 0.638,-1.406 0.584,-1.568 0.491,-1.693 0.425,-1.783 0.38,-1.993 0.255,-2.002 0.234,-2.084 0.267,-2.178 0.252,-2.26 0.244,-2.309 0.253,-2.289 0.233,-2.324 0.218,-2.351 0.193,-2.359 0.186,-2.394 0.198,-2.388 0.208,-2.381 0.218,-2.369 0.193,-2.37 0.163,-2.375 0.138,-2.372 0.092,-2.365 0.063,-2.335 0.02,-2.316 c -0.063,0.028 -0.121,0.031 -0.178,0.076 -0.056,0.046 -0.069,0.114 -0.117,0.165 -0.042,0.044 -0.106,0.067 -0.153,0.106 -0.052,0.045 -0.105,0.091 -0.156,0.138 -0.09,0.081 -0.193,0.103 -0.297,0.16 -0.033,0.018 -0.063,0.037 -0.1,0.044 -0.034,0.007 -0.069,-0.006 -0.102,0.001 -0.043,0.009 -0.025,0.045 -0.069,0.004 -0.029,-0.028 -0.017,-0.08 -0.029,-0.111 -0.01,-0.025 -0.034,-0.042 -0.052,-0.064 -0.03,-0.038 -0.037,-0.07 -0.05,-0.115 -0.01,-0.033 -0.039,-0.082 -0.019,-0.115 0.048,-0.078 0.219,0.019 0.279,0.027 0.192,0.027 0.174,-0.154 0.26,-0.278 0.039,-0.056 0.094,-0.104 0.14,-0.152 0.045,-0.047 0.081,-0.102 0.125,-0.147 0.07,-0.072 0.155,-0.108 0.216,-0.193 0.038,-0.054 0.094,-0.061 0.132,-0.106 0.038,-0.045 0.059,-0.081 0.127,-0.041 0.039,0.023 0.087,0.107 0.123,0.142 0.039,0.039 0.086,0.075 0.129,0.108 0.06,0.044 0.112,0.086 0.145,0.159 0.056,0.128 0.137,0.239 0.214,0.355 0.059,0.088 0.081,0.191 0.163,0.259 0.113,0.093 0.185,0.194 0.267,0.313 0.096,0.138 0.167,0.294 0.165,0.468 -0.001,0.129 0.008,0.261 0,0.39 -0.004,0.061 -0.013,0.038 -0.039,0.083 -0.017,0.029 -0.026,0.068 -0.035,0.101 0.041,0.02 0.093,0.057 0.098,0.109 -0.049,0.033 -0.092,0.026 -0.149,0.036 -0.063,0.011 -0.12,0.042 -0.183,0.055 C 0.744,-0.31 0.622,-0.288 0.516,-0.197 0.453,-0.143 0.367,-0.104 0.313,-0.041 0.281,-0.004 0.279,0.038 0.258,0.081 0.241,0.118 0.214,0.148 0.194,0.184 0.148,0.168 0.096,0.085 0.056,0.052 0.026,0.027 -0.026,-0.028 -0.071,-0.032 -0.072,-0.039 -0.074,-0.046 0,0"
             style="fill:#231f20;fill-opacity:1;fill-rule:nonzero;stroke:none"
             id="path26853" />
        </g>
        <g
           id="g26855"
           transform="translate(302.772,320.76)">
          <path
             d="M 0,0 C 0.002,0.095 0.037,0.174 0.055,0.268 0.07,0.349 0.065,0.435 0.134,0.5 0.165,0.53 0.236,0.55 0.274,0.573 0.339,0.614 0.404,0.652 0.471,0.689 0.573,0.746 0.662,0.819 0.767,0.87 0.868,0.918 0.943,0.931 1.055,0.935 1.165,0.94 1.235,1.01 1.344,1.012 1.399,1.014 1.458,1.004 1.513,1.01 1.595,1.02 1.597,1.052 1.667,0.994 1.779,0.903 1.947,0.868 2.06,0.771 2.135,0.707 2.128,0.611 2.11,0.527 2.102,0.489 2.074,0.437 2.084,0.399 2.093,0.366 2.125,0.36 2.14,0.332 2.165,0.287 2.117,0.224 2.112,0.178 2.109,0.142 2.131,0.111 2.088,0.096 2.053,0.084 2.011,0.119 1.978,0.125 1.877,0.142 1.762,0.115 1.659,0.123 1.594,0.128 1.594,0.132 1.592,0.198 1.589,0.302 1.57,0.365 1.476,0.446 1.445,0.473 1.387,0.484 1.345,0.5 1.29,0.523 1.242,0.518 1.182,0.518 0.961,0.519 0.742,0.392 0.641,0.218 0.585,0.122 0.497,0.045 0.444,-0.053 0.384,-0.16 0.385,-0.276 0.384,-0.394 0.384,-0.416 0.371,-0.479 0.382,-0.497 0.397,-0.52 0.419,-0.522 0.446,-0.535 0.508,-0.568 0.558,-0.605 0.632,-0.618 0.701,-0.63 0.78,-0.64 0.851,-0.642 0.919,-0.643 0.958,-0.633 1.009,-0.673 1.117,-0.757 1.064,-0.847 0.995,-0.938 0.965,-0.978 0.917,-1.008 0.872,-1.031 0.809,-1.063 0.8,-1.06 0.792,-1.132 c -0.084,-0.02 -0.173,0.003 -0.255,0.015 -0.074,0.012 -0.126,0.013 -0.195,0.04 -0.047,0.019 -0.096,0.033 -0.144,0.047 -0.079,0.023 -0.159,0.036 -0.193,0.116 -0.014,0.033 -0.003,0.07 -0.024,0.102 -0.017,0.024 -0.046,0.034 -0.064,0.057 -0.054,0.069 -0.027,0.182 -0.027,0.262 0,0.098 -0.004,0.18 0.035,0.273 0.046,0.108 -0.011,0.23 0.025,0.339 C -0.043,0.121 -0.035,0.122 0,0"
             style="fill:#231f20;fill-opacity:1;fill-rule:nonzero;stroke:none"
             id="path26857" />
        </g>
        <g
           id="g26859"
           transform="translate(304.406,320.168)">
          <path
             d="m 0,0 c -0.002,-0.008 -0.004,-0.015 -0.005,-0.023 -0.045,0 -0.082,-0.049 -0.109,-0.079 -0.057,-0.063 -0.089,-0.121 -0.087,-0.207 0.003,-0.169 0.25,-0.131 0.375,-0.12 0.148,0.013 0.26,0.28 0.122,0.377 -0.034,0.024 -0.075,0.011 -0.109,0.026 -0.028,0.012 -0.03,0.036 -0.05,0.05 -0.019,0.012 -0.058,0.004 -0.08,0.01 -0.029,0.008 -0.064,0.032 -0.086,0.052"
             style="fill:#231f20;fill-opacity:1;fill-rule:nonzero;stroke:none"
             id="path26861" />
        </g>
      </g>
    </g>
  </g>
</svg>
