<?xml version="1.0" encoding="UTF-8" standalone="no"?>
<!-- Created with Inkscape (http://www.inkscape.org/) -->

<svg
   width="24.017391"
   height="24"
   viewBox="0 0 6.3546014 6.35"
   version="1.1"
   id="svg11812"
   inkscape:version="1.2.1 (9c6d41e4, 2022-07-14)"
   sodipodi:docname="epic-multiplayer.svg"
   xmlns:inkscape="http://www.inkscape.org/namespaces/inkscape"
   xmlns:sodipodi="http://sodipodi.sourceforge.net/DTD/sodipodi-0.dtd"
   xmlns="http://www.w3.org/2000/svg"
   xmlns:svg="http://www.w3.org/2000/svg">
  <sodipodi:namedview
     id="namedview11814"
     pagecolor="#505050"
     bordercolor="#eeeeee"
     borderopacity="1"
     inkscape:showpageshadow="0"
     inkscape:pageopacity="0"
     inkscape:pagecheckerboard="0"
     inkscape:deskcolor="#505050"
     inkscape:document-units="mm"
     showgrid="false"
     inkscape:zoom="0.7046647"
     inkscape:cx="25.544064"
     inkscape:cy="135.52545"
     inkscape:window-width="1390"
     inkscape:window-height="941"
     inkscape:window-x="0"
     inkscape:window-y="25"
     inkscape:window-maximized="0"
     inkscape:current-layer="layer1" />
  <defs
     id="defs11809">
    <clipPath
       clipPathUnits="userSpaceOnUse"
       id="clipPath2637">
      <path
         d="m 124.776,147.671 h 24.699 v 24.699 h -24.699 z"
         id="path2635" />
    </clipPath>
  </defs>
  <g
     inkscape:label="Layer 1"
     inkscape:groupmode="layer"
     id="layer1"
     transform="translate(-98.200702,-112.84649)">
    <g
       id="g2631"
       transform="matrix(0.29446001,0,0,-0.29446001,61.019859,163.1119)">
      <g
         id="g2633"
         clip-path="url(#clipPath2637)">
        <g
           id="g2639"
           transform="translate(136.1381,170.0746)">
          <path
             d="m 0,0 c -0.049,-0.075 -0.094,-0.153 -0.135,-0.235 -0.022,-0.045 -0.03,-0.095 -0.058,-0.137 -0.022,-0.031 -0.038,-0.041 -0.05,-0.082 -0.027,-0.087 -0.048,-0.18 -0.073,-0.269 -0.019,-0.07 -0.039,-0.119 -0.03,-0.193 0.008,-0.072 -0.014,-0.148 -0.023,-0.222 -0.034,-0.309 -0.002,-0.716 0.164,-0.994 0.061,-0.104 0.146,-0.187 0.237,-0.262 0.084,-0.07 0.178,-0.126 0.229,-0.23 0.045,-0.092 0.081,-0.169 0.169,-0.227 0.105,-0.068 0.229,-0.059 0.344,-0.044 0.175,0.023 0.347,0.077 0.519,0.115 0.21,0.048 0.379,0.12 0.538,0.273 0.072,0.069 0.149,0.138 0.216,0.214 0.065,0.075 0.107,0.168 0.168,0.246 0.118,0.154 0.138,0.394 0.145,0.585 0.004,0.088 0.038,0.165 0.063,0.246 0.04,0.128 0.067,0.271 0.046,0.407 C 2.453,-0.707 2.44,-0.627 2.461,-0.526 2.506,-0.316 2.436,-0.112 2.278,0.031 2.182,0.117 2.091,0.208 1.998,0.298 1.906,0.387 1.797,0.444 1.68,0.48 1.552,0.52 1.431,0.576 1.304,0.617 1.224,0.643 1.136,0.619 1.056,0.619 0.974,0.619 0.903,0.629 0.822,0.611 0.736,0.593 0.667,0.528 0.582,0.509 0.562,0.504 0.54,0.508 0.519,0.503 0.45,0.489 0.38,0.438 0.323,0.396 0.244,0.339 0.185,0.254 0.125,0.176 0.081,0.118 0.039,0.06 0,0"
             style="fill:#231f20;fill-opacity:1;fill-rule:nonzero;stroke:none"
             id="path2641" />
        </g>
        <g
           id="g2643"
           transform="translate(136.0267,165.2588)">
          <path
             d="m 0,0 c -0.158,-0.057 -0.051,-0.421 -0.048,-0.558 0.003,-0.119 -0.021,-0.243 -0.036,-0.361 -0.031,-0.245 -0.065,-0.491 -0.042,-0.739 0.025,-0.273 0.132,-0.535 0.14,-0.809 0.004,-0.158 -0.045,-0.311 -0.024,-0.468 0.011,-0.082 0.029,-0.158 0.029,-0.242 0.002,-0.261 -0.017,-0.524 -0.023,-0.786 -0.014,-0.525 -0.021,-1.05 -0.014,-1.575 0.005,-0.433 0.025,-0.871 0.194,-1.276 0.111,-0.267 0.221,-0.515 0.235,-0.81 0.016,-0.326 -0.034,-0.635 0.07,-0.949 0.044,-0.133 0.099,-0.245 0.107,-0.388 0.007,-0.117 -0.004,-0.234 0.005,-0.351 0.023,-0.322 0.054,-0.661 0.164,-0.967 0.033,-0.093 0.071,-0.172 0.083,-0.271 0.015,-0.129 -0.005,-0.261 -0.001,-0.389 0.003,-0.094 0.022,-0.181 0.037,-0.273 0.036,-0.229 -0.05,-0.412 -0.073,-0.63 -0.026,-0.249 0.098,-0.552 0.149,-0.795 0.043,-0.203 0.099,-0.405 0.094,-0.612 -0.001,-0.084 0.01,-0.162 0.045,-0.24 0.052,-0.114 0.108,-0.22 0.15,-0.34 0.077,-0.218 0.101,-0.436 0.157,-0.658 0.036,-0.144 0.07,-0.31 0.127,-0.447 0.054,-0.129 0.137,-0.246 0.193,-0.371 0.036,-0.079 0.042,-0.187 0.062,-0.275 0.016,-0.073 0.045,-0.121 0.071,-0.189 0.039,-0.105 0.007,-0.271 0.108,-0.351 -0.005,0.077 -0.009,0.159 0.007,0.233 0.005,0.024 0.028,0.058 0.034,0.092 0.011,0.056 -0.015,0.121 -0.003,0.176 0.025,0.116 0.079,0.223 0.09,0.346 0.013,0.145 -0.044,0.279 -0.047,0.423 -10e-4,0.124 -0.035,0.245 -0.041,0.369 -0.008,0.126 0.009,0.253 0.003,0.38 -0.01,0.197 -0.063,0.379 -0.01,0.575 0.041,0.15 0.111,0.289 0.141,0.443 0.047,0.251 0.052,0.517 0.049,0.771 -0.005,0.397 -0.023,0.792 -0.013,1.191 0.007,0.294 0.1,0.576 0.091,0.873 -0.01,0.313 -0.05,0.64 -0.089,0.951 -0.082,0.65 -0.077,1.323 -0.022,1.97 0.021,0.25 0.086,0.45 0.151,0.687 0.082,0.293 0.096,0.567 0.088,0.871 -0.01,0.399 -0.064,0.795 -0.099,1.192 -0.016,0.175 -0.05,0.369 -0.02,0.543 0.01,0.062 0.022,0.109 0.018,0.173 C 2.264,-3.44 2.245,-3.022 2.23,-2.6 2.226,-2.489 2.219,-2.378 2.207,-2.267 2.187,-2.089 2.168,-1.91 2.155,-1.73 c -0.034,0.47 0.015,0.958 0.068,1.425 0.008,0.066 0.034,0.18 -0.01,0.241 C 2.147,0.026 2.039,0.037 1.914,0.002 1.781,-0.035 1.696,-0.067 1.555,-0.066 c -0.127,0.001 -0.254,0 -0.381,0 -0.128,0 -0.269,-0.012 -0.395,0.005 -0.085,0.012 -0.159,0.017 -0.246,0.017 -0.136,0 -0.273,0 -0.409,0 -0.06,0 -0.127,0.006 -0.186,0.001 C -0.101,-0.046 -0.209,-0.074 0,0"
             style="fill:#231f20;fill-opacity:1;fill-rule:nonzero;stroke:none"
             id="path2645" />
        </g>
        <g
           id="g2647"
           transform="translate(133.4283,165.5113)">
          <path
             d="M 0,0 C 0.006,0.002 0.013,0.003 0.019,0.004 0.125,0.022 0.233,0.03 0.339,0.048 0.424,0.062 0.51,0.093 0.588,0.13 0.712,0.189 0.849,0.214 0.979,0.259 1.146,0.317 1.34,0.335 1.483,0.44 1.599,0.526 1.763,0.557 1.9,0.597 2.102,0.654 2.305,0.695 2.503,0.765 2.682,0.828 2.858,0.883 3.045,0.922 3.165,0.947 3.27,0.991 3.383,1.035 3.472,1.069 3.553,1.068 3.647,1.08 3.789,1.099 3.93,1.148 4.067,1.189 4.233,1.239 4.385,1.231 4.552,1.249 4.736,1.269 4.903,1.328 5.091,1.33 5.161,1.331 5.237,1.322 5.308,1.334 5.391,1.347 5.469,1.392 5.555,1.388 5.619,1.384 5.675,1.346 5.739,1.34 5.793,1.335 5.845,1.351 5.896,1.364 6.176,1.436 6.506,1.5 6.74,1.665 6.822,1.722 6.922,1.729 7.017,1.749 7.11,1.768 7.19,1.797 7.278,1.831 7.32,1.847 7.43,1.886 7.484,1.865 7.528,1.848 7.524,1.819 7.541,1.781 7.576,1.703 7.657,1.631 7.674,1.548 7.695,1.441 7.671,1.315 7.681,1.205 7.692,1.09 7.715,0.976 7.726,0.861 7.749,0.626 7.745,0.368 7.696,0.138 7.683,0.076 7.674,0.017 7.675,-0.047 7.675,-0.069 7.688,-0.113 7.671,-0.13 7.652,-0.152 7.505,-0.135 7.481,-0.135 7.345,-0.134 7.217,-0.167 7.083,-0.182 6.988,-0.193 6.894,-0.189 6.799,-0.209 6.536,-0.265 6.286,-0.354 6.018,-0.393 5.804,-0.423 5.589,-0.456 5.375,-0.489 5.132,-0.527 4.888,-0.527 4.645,-0.56 4.225,-0.618 3.819,-0.783 3.406,-0.882 3.342,-0.898 3.279,-0.917 3.217,-0.938 3.024,-1 2.828,-1.087 2.623,-1.097 2.498,-1.104 2.377,-1.061 2.253,-1.069 2.07,-1.081 1.926,-1.2 1.752,-1.245 1.593,-1.285 1.428,-1.298 1.267,-1.327 1.144,-1.349 1.026,-1.381 0.901,-1.384 0.735,-1.388 0.576,-1.441 0.412,-1.432 0.329,-1.428 0.25,-1.451 0.177,-1.488 0.126,-1.514 0.062,-1.558 0.005,-1.568 c -0.06,-0.011 -0.102,0.021 -0.154,0.047 -0.096,0.048 -0.205,0.103 -0.261,0.196 -0.035,0.058 -0.011,0.087 0.007,0.152 0.022,0.075 0.017,0.186 0.055,0.252 0.015,0.026 0.031,0.023 0.046,0.049 0.02,0.034 0.023,0.096 0.033,0.135 0.047,0.174 0.098,0.346 0.151,0.518 C -0.089,-0.126 -0.094,-0.027 0,0"
             style="fill:#231f20;fill-opacity:1;fill-rule:nonzero;stroke:none"
             id="path2649" />
        </g>
        <g
           id="g2651"
           transform="translate(129.4057,164.7551)">
          <path
             d="m 0,0 c -0.049,-0.075 -0.094,-0.153 -0.135,-0.235 -0.022,-0.045 -0.03,-0.095 -0.058,-0.137 -0.022,-0.031 -0.038,-0.041 -0.05,-0.082 -0.027,-0.087 -0.048,-0.18 -0.073,-0.269 -0.019,-0.07 -0.039,-0.119 -0.03,-0.193 0.008,-0.072 -0.014,-0.148 -0.023,-0.222 -0.034,-0.309 -0.002,-0.716 0.164,-0.994 0.061,-0.104 0.146,-0.187 0.237,-0.262 0.084,-0.07 0.178,-0.126 0.229,-0.23 0.045,-0.092 0.081,-0.169 0.169,-0.227 0.105,-0.068 0.229,-0.059 0.344,-0.044 0.175,0.023 0.347,0.077 0.519,0.115 0.21,0.048 0.379,0.12 0.538,0.273 0.072,0.069 0.149,0.138 0.216,0.214 0.065,0.075 0.107,0.168 0.168,0.246 0.118,0.154 0.138,0.394 0.145,0.585 0.004,0.088 0.038,0.165 0.063,0.246 0.04,0.128 0.067,0.271 0.046,0.407 C 2.453,-0.707 2.44,-0.627 2.461,-0.526 2.506,-0.316 2.436,-0.112 2.278,0.031 2.182,0.117 2.091,0.208 1.998,0.298 1.906,0.387 1.797,0.444 1.68,0.48 1.552,0.52 1.431,0.576 1.304,0.617 1.224,0.643 1.136,0.619 1.056,0.619 0.974,0.619 0.903,0.629 0.822,0.611 0.736,0.593 0.667,0.528 0.582,0.509 0.562,0.504 0.54,0.508 0.519,0.503 0.45,0.489 0.38,0.438 0.323,0.396 0.244,0.339 0.185,0.254 0.125,0.176 0.081,0.118 0.039,0.06 0,0"
             style="fill:#231f20;fill-opacity:1;fill-rule:nonzero;stroke:none"
             id="path2653" />
        </g>
        <g
           id="g2655"
           transform="translate(129.2976,159.9031)">
          <path
             d="M 0,0 C -0.029,-0.003 -0.058,-0.006 -0.086,-0.01 -0.54,-0.07 -0.15,-0.5 -0.027,-0.704 0.102,-0.917 0.153,-1.114 0.189,-1.357 0.238,-1.691 0.334,-2.017 0.359,-2.355 0.383,-2.672 0.39,-2.99 0.408,-3.307 0.435,-3.796 0.543,-4.267 0.581,-4.753 0.594,-4.925 0.59,-5.126 0.672,-5.284 0.724,-5.384 0.85,-5.458 0.916,-5.55 1.114,-5.827 1.056,-6.227 1.051,-6.546 1.047,-6.738 1.037,-6.925 1.099,-7.111 1.159,-7.289 1.243,-7.457 1.304,-7.635 1.352,-7.776 1.41,-7.953 1.431,-8.102 1.446,-8.207 1.439,-8.311 1.46,-8.414 1.484,-8.53 1.55,-8.63 1.57,-8.746 1.564,-8.664 1.568,-8.582 1.567,-8.5 c -10e-4,0.103 -0.011,0.214 0.007,0.317 0.02,0.115 0.084,0.212 0.122,0.321 0.073,0.208 0.11,0.43 0.161,0.643 0.042,0.177 0.054,0.365 0.055,0.546 0.002,0.144 -0.026,0.308 0.002,0.448 0.042,0.209 0.048,0.42 0.077,0.633 0.03,0.229 0.095,0.446 0.16,0.667 0.041,0.141 0.088,0.325 0.095,0.472 0.024,0.472 -0.015,0.957 -0.015,1.431 0,0.265 0.002,0.526 -0.027,0.791 -0.02,0.179 -0.04,0.357 -0.053,0.537 -0.033,0.47 0.015,0.958 0.069,1.425 0.008,0.067 0.033,0.181 -0.01,0.241 C 2.144,0.063 2.036,0.073 1.91,0.038 1.777,0.001 1.693,-0.03 1.551,-0.029 1.425,-0.028 1.298,-0.03 1.171,-0.03 1.042,-0.03 0.902,-0.042 0.776,-0.025 0.537,0.009 0.249,0.023 0,0"
             style="fill:#231f20;fill-opacity:1;fill-rule:nonzero;stroke:none"
             id="path2657" />
        </g>
        <g
           id="g2659"
           transform="translate(126.6958,160.1919)">
          <path
             d="M 0,0 C 0.006,0.002 0.013,0.003 0.019,0.004 0.125,0.022 0.233,0.03 0.339,0.048 0.424,0.062 0.51,0.093 0.588,0.13 0.713,0.189 0.849,0.214 0.979,0.259 1.146,0.317 1.34,0.335 1.483,0.44 1.599,0.526 1.763,0.557 1.9,0.597 2.102,0.654 2.305,0.695 2.503,0.765 2.682,0.828 2.858,0.883 3.045,0.922 3.165,0.947 3.27,0.991 3.383,1.035 3.472,1.069 3.553,1.068 3.647,1.08 3.789,1.099 3.93,1.148 4.067,1.189 4.233,1.239 4.385,1.231 4.552,1.249 4.736,1.269 4.903,1.328 5.091,1.33 5.161,1.331 5.237,1.322 5.308,1.334 5.391,1.347 5.469,1.392 5.555,1.388 5.619,1.384 5.675,1.346 5.739,1.34 5.793,1.335 5.845,1.351 5.896,1.364 6.176,1.436 6.506,1.5 6.74,1.665 6.822,1.722 6.922,1.729 7.017,1.749 7.11,1.768 7.19,1.797 7.278,1.831 7.32,1.847 7.43,1.886 7.484,1.865 7.528,1.848 7.524,1.819 7.541,1.781 7.576,1.703 7.657,1.631 7.673,1.548 7.695,1.441 7.671,1.315 7.681,1.205 7.692,1.09 7.715,0.976 7.726,0.861 7.749,0.626 7.745,0.368 7.696,0.138 7.683,0.076 7.674,0.017 7.675,-0.047 7.675,-0.069 7.688,-0.113 7.671,-0.13 7.652,-0.152 7.505,-0.135 7.481,-0.135 7.345,-0.134 7.217,-0.167 7.083,-0.182 6.988,-0.193 6.894,-0.189 6.799,-0.209 6.536,-0.265 6.286,-0.354 6.018,-0.393 5.804,-0.423 5.589,-0.456 5.375,-0.489 5.132,-0.527 4.888,-0.527 4.645,-0.56 4.225,-0.618 3.819,-0.783 3.406,-0.882 3.342,-0.898 3.279,-0.917 3.217,-0.938 3.024,-1 2.828,-1.087 2.623,-1.097 2.498,-1.104 2.377,-1.061 2.253,-1.069 2.07,-1.081 1.926,-1.2 1.752,-1.245 1.593,-1.285 1.428,-1.298 1.267,-1.327 1.144,-1.349 1.026,-1.381 0.901,-1.384 0.735,-1.388 0.576,-1.441 0.412,-1.432 0.329,-1.428 0.25,-1.451 0.177,-1.488 0.126,-1.514 0.062,-1.558 0.005,-1.568 c -0.06,-0.011 -0.102,0.021 -0.154,0.047 -0.096,0.048 -0.205,0.103 -0.261,0.196 -0.035,0.058 -0.011,0.087 0.007,0.152 0.022,0.075 0.017,0.186 0.055,0.252 0.015,0.026 0.031,0.023 0.046,0.049 0.02,0.034 0.023,0.096 0.033,0.135 0.047,0.174 0.098,0.346 0.151,0.518 C -0.089,-0.126 -0.094,-0.027 0,0"
             style="fill:#231f20;fill-opacity:1;fill-rule:nonzero;stroke:none"
             id="path2661" />
        </g>
        <g
           id="g2663"
           transform="translate(144.7107,166.257)">
          <path
             d="M 0,0 C 0.049,-0.075 0.095,-0.153 0.135,-0.235 0.157,-0.28 0.165,-0.33 0.193,-0.372 0.215,-0.403 0.231,-0.413 0.243,-0.454 0.27,-0.542 0.291,-0.634 0.316,-0.723 0.335,-0.793 0.355,-0.842 0.346,-0.916 0.338,-0.988 0.36,-1.064 0.369,-1.138 0.403,-1.447 0.371,-1.854 0.205,-2.132 0.144,-2.236 0.059,-2.319 -0.032,-2.394 -0.116,-2.464 -0.21,-2.52 -0.261,-2.624 -0.306,-2.716 -0.342,-2.793 -0.43,-2.851 -0.535,-2.919 -0.659,-2.91 -0.774,-2.895 c -0.175,0.023 -0.347,0.077 -0.519,0.115 -0.21,0.047 -0.379,0.12 -0.538,0.273 -0.072,0.069 -0.149,0.138 -0.216,0.214 -0.065,0.075 -0.107,0.168 -0.168,0.246 -0.118,0.154 -0.138,0.394 -0.145,0.585 -0.004,0.088 -0.038,0.165 -0.063,0.246 -0.04,0.128 -0.067,0.271 -0.046,0.407 0.016,0.102 0.029,0.182 0.008,0.283 -0.045,0.21 0.025,0.414 0.183,0.557 0.096,0.086 0.187,0.177 0.28,0.267 0.092,0.089 0.201,0.146 0.318,0.182 0.128,0.04 0.249,0.096 0.376,0.137 0.08,0.026 0.168,0.002 0.248,0.002 0.082,0 0.153,0.01 0.234,-0.008 0.086,-0.018 0.155,-0.083 0.24,-0.102 C -0.562,0.504 -0.54,0.508 -0.519,0.503 -0.45,0.489 -0.38,0.438 -0.323,0.396 -0.244,0.339 -0.185,0.254 -0.125,0.176 -0.081,0.118 -0.039,0.06 0,0"
             style="fill:#231f20;fill-opacity:1;fill-rule:nonzero;stroke:none"
             id="path2665" />
        </g>
        <g
           id="g2667"
           transform="translate(144.8222,161.4412)">
          <path
             d="m 0,0 c 0.175,-0.064 0.057,-0.477 0.042,-0.609 -0.033,-0.277 -0.098,-0.542 -0.104,-0.825 -0.003,-0.136 -0.05,-0.229 -0.079,-0.354 -0.023,-0.099 -0.003,-0.201 -0.005,-0.3 -0.005,-0.171 -0.065,-0.323 -0.103,-0.488 -0.034,-0.154 -0.023,-0.312 -0.07,-0.463 -0.031,-0.102 -0.079,-0.184 -0.1,-0.288 -0.049,-0.244 -0.085,-0.504 -0.109,-0.751 -0.046,-0.474 -0.018,-0.95 -0.009,-1.425 0.01,-0.556 -0.12,-1.06 -0.32,-1.573 -0.083,-0.211 -0.108,-0.425 -0.104,-0.651 0.004,-0.168 0.009,-0.33 -0.027,-0.495 -0.017,-0.08 -0.007,-0.15 -0.017,-0.229 -0.008,-0.066 -0.044,-0.122 -0.046,-0.19 -0.002,-0.087 0.035,-0.293 -0.076,-0.318 -0.01,0.09 -0.07,0.167 -0.096,0.253 -0.033,0.104 -0.029,0.195 -0.044,0.299 -0.017,0.114 -0.082,0.205 -0.085,0.323 -0.003,0.121 -0.015,0.225 -0.041,0.344 -0.086,0.386 -0.215,0.761 -0.305,1.145 -0.054,0.228 -0.073,0.436 -0.166,0.656 -0.086,0.203 -0.196,0.435 -0.137,0.658 0.031,0.122 0.048,0.221 0.049,0.349 0.005,0.669 -0.045,1.339 0.008,2.007 0.028,0.344 0.101,0.673 0.077,1.022 -0.018,0.247 -0.053,0.492 -0.127,0.729 -0.072,0.231 -0.071,0.512 -0.202,0.717 -0.041,0.064 -0.087,0.116 -0.094,0.195 -0.007,0.064 0.01,0.136 0.048,0.187 0.163,0.215 0.482,0.008 0.687,0.009 0.127,0.001 0.254,0 0.381,0 0.128,0 0.269,-0.012 0.395,0.005 0.085,0.012 0.159,0.017 0.246,0.017 0.136,0 0.273,0 0.409,0 0.06,0 0.127,0.006 0.186,0.001 C 0.101,-0.046 0.209,-0.074 0,0"
             style="fill:#231f20;fill-opacity:1;fill-rule:nonzero;stroke:none"
             id="path2669" />
        </g>
        <g
           id="g2671"
           transform="translate(147.4205,161.6937)">
          <path
             d="M 0,0 C -0.006,0.002 -0.013,0.003 -0.019,0.004 -0.125,0.022 -0.233,0.03 -0.339,0.048 -0.424,0.062 -0.51,0.093 -0.588,0.13 -0.712,0.189 -0.849,0.214 -0.979,0.259 -1.146,0.317 -1.34,0.335 -1.483,0.44 -1.599,0.526 -1.763,0.557 -1.9,0.597 -2.102,0.654 -2.305,0.695 -2.503,0.765 -2.682,0.828 -2.858,0.883 -3.045,0.922 -3.165,0.947 -3.27,0.991 -3.383,1.035 -3.472,1.069 -3.553,1.068 -3.647,1.08 -3.789,1.099 -3.93,1.148 -4.067,1.189 -4.233,1.239 -4.385,1.231 -4.552,1.249 -4.736,1.269 -4.903,1.328 -5.091,1.33 -5.161,1.331 -5.237,1.322 -5.308,1.334 -5.391,1.347 -5.469,1.392 -5.555,1.388 -5.619,1.384 -5.675,1.346 -5.739,1.34 -5.793,1.335 -5.845,1.351 -5.896,1.364 -6.176,1.436 -6.506,1.5 -6.74,1.665 -6.822,1.722 -6.922,1.729 -7.017,1.749 -7.11,1.768 -7.19,1.797 -7.278,1.831 -7.32,1.847 -7.43,1.886 -7.484,1.865 -7.528,1.848 -7.524,1.819 -7.541,1.781 -7.576,1.703 -7.657,1.631 -7.673,1.548 -7.695,1.441 -7.671,1.315 -7.681,1.205 -7.692,1.09 -7.715,0.976 -7.726,0.861 -7.749,0.626 -7.745,0.368 -7.696,0.138 c 0.013,-0.062 0.022,-0.121 0.021,-0.185 0,-0.022 -0.013,-0.066 0.004,-0.083 0.019,-0.022 0.166,-0.005 0.19,-0.005 0.136,0.001 0.264,-0.032 0.398,-0.047 0.095,-0.011 0.189,-0.007 0.284,-0.027 0.263,-0.056 0.513,-0.145 0.781,-0.184 0.214,-0.03 0.429,-0.063 0.643,-0.096 0.243,-0.038 0.487,-0.038 0.73,-0.071 0.42,-0.058 0.826,-0.223 1.239,-0.322 0.064,-0.016 0.127,-0.035 0.189,-0.056 0.193,-0.062 0.389,-0.149 0.594,-0.159 0.125,-0.007 0.246,0.036 0.37,0.028 0.183,-0.012 0.327,-0.131 0.501,-0.176 0.159,-0.04 0.324,-0.053 0.485,-0.082 0.123,-0.022 0.241,-0.054 0.366,-0.057 0.166,-0.004 0.325,-0.057 0.489,-0.048 0.083,0.004 0.162,-0.019 0.235,-0.056 0.051,-0.026 0.115,-0.07 0.172,-0.08 0.06,-0.011 0.102,0.021 0.154,0.047 0.096,0.048 0.205,0.103 0.261,0.196 0.035,0.058 0.011,0.087 -0.007,0.152 -0.022,0.075 -0.017,0.186 -0.055,0.252 -0.015,0.026 -0.031,0.023 -0.046,0.049 -0.02,0.034 -0.023,0.096 -0.033,0.135 C 0.222,-0.563 0.171,-0.391 0.118,-0.219 0.089,-0.126 0.094,-0.027 0,0"
             style="fill:#231f20;fill-opacity:1;fill-rule:nonzero;stroke:none"
             id="path2673" />
        </g>
      </g>
    </g>
  </g>
</svg>
