<?xml version="1.0" encoding="UTF-8" standalone="no"?>
<!-- Created with Inkscape (http://www.inkscape.org/) -->

<svg
   width="22.177267"
   height="24"
   viewBox="0 0 5.8677353 6.35"
   version="1.1"
   id="svg11335"
   inkscape:version="1.2.1 (9c6d41e4, 2022-07-14)"
   sodipodi:docname="machinations-through-time.svg"
   xmlns:inkscape="http://www.inkscape.org/namespaces/inkscape"
   xmlns:sodipodi="http://sodipodi.sourceforge.net/DTD/sodipodi-0.dtd"
   xmlns="http://www.w3.org/2000/svg"
   xmlns:svg="http://www.w3.org/2000/svg">
  <sodipodi:namedview
     id="namedview11337"
     pagecolor="#505050"
     bordercolor="#eeeeee"
     borderopacity="1"
     inkscape:showpageshadow="0"
     inkscape:pageopacity="0"
     inkscape:pagecheckerboard="0"
     inkscape:deskcolor="#505050"
     inkscape:document-units="mm"
     showgrid="false"
     inkscape:zoom="0.7046647"
     inkscape:cx="-11.352917"
     inkscape:cy="251.89285"
     inkscape:window-width="1390"
     inkscape:window-height="941"
     inkscape:window-x="0"
     inkscape:window-y="25"
     inkscape:window-maximized="0"
     inkscape:current-layer="layer1" />
  <defs
     id="defs11332">
    <clipPath
       clipPathUnits="userSpaceOnUse"
       id="clipPath2405">
      <path
         d="m 96.44,258.801 h 24.699 V 283.5 H 96.44 Z"
         id="path2403" />
    </clipPath>
  </defs>
  <g
     inkscape:label="Layer 1"
     inkscape:groupmode="layer"
     id="layer1"
     transform="translate(-108.20646,-82.057617)">
    <g
       id="g2399"
       transform="matrix(0.3219894,0,0,-0.3219894,76.086862,172.90654)">
      <g
         id="g2401"
         clip-path="url(#clipPath2405)">
        <g
           id="g2407"
           transform="translate(110.7659,271.8768)">
          <path
             d="M 0,0 C -0.002,0.16 0.039,0.336 0.12,0.478 0.19,0.599 0.318,0.721 0.526,0.946 0.615,0.961 0.706,0.993 0.792,1.024 0.926,1.07 1.052,1.065 1.191,1.063 1.309,1.062 1.41,1.013 1.518,0.981 1.561,0.968 1.624,0.931 1.662,0.909 1.715,0.878 1.815,0.831 1.856,0.789 1.894,0.75 1.963,0.63 1.988,0.575 2.037,0.468 2.095,0.361 2.125,0.24 2.162,0.095 2.142,-0.065 2.142,-0.215 2.142,-0.347 2.152,-0.466 2.109,-0.593 2.08,-0.681 2.035,-0.732 1.984,-0.804 1.906,-0.913 1.886,-1.054 1.806,-1.16 1.665,-1.349 1.374,-1.385 1.163,-1.425 0.969,-1.462 0.671,-1.387 0.524,-1.249 0.475,-1.203 0.447,-1.121 0.399,-1.062 0.324,-0.969 0.271,-0.88 0.207,-0.774 0.131,-0.649 0.032,-0.512 0.002,-0.364 -0.021,-0.252 0.001,-0.114 0,0 m -0.48,-2.957 c 0,-0.402 -0.008,-0.794 -0.038,-1.195 -0.012,-0.164 -0.055,-0.322 -0.071,-0.486 -0.009,-0.098 -0.009,-0.221 -0.05,-0.312 -0.033,0.085 -0.05,0.176 -0.079,0.263 -0.076,0.23 -0.197,0.442 -0.291,0.664 -0.105,0.247 -0.234,0.477 -0.308,0.74 -0.05,0.18 -0.078,0.363 -0.14,0.539 -0.026,0.076 -0.255,0.561 -0.294,0.546 -0.028,-0.075 -0.008,-0.188 -0.007,-0.269 0.001,-0.124 -0.029,-0.227 -0.04,-0.347 -0.01,-0.11 0.001,-0.229 0.003,-0.339 10e-4,-0.181 -0.032,-0.362 -0.057,-0.541 -0.049,-0.359 -0.184,-0.708 -0.207,-1.072 -0.012,-0.195 -0.104,-0.391 -0.174,-0.573 -0.032,-0.083 -0.093,-0.503 -0.194,-0.532 -0.127,0.212 -0.111,0.461 -0.072,0.344 -0.063,0.189 -0.139,0.354 -0.246,0.523 -0.101,0.16 -0.199,0.299 -0.241,0.488 -0.042,0.191 -0.049,0.42 -0.052,0.615 -0.003,0.208 0.036,0.406 0.041,0.613 0.005,0.199 -0.001,0.4 -0.002,0.6 0,0.091 0.025,0.242 -0.007,0.333 -0.049,-0.019 -0.133,-0.196 -0.168,-0.254 -0.021,-0.034 -0.033,-0.062 -0.05,-0.096 -0.016,-0.031 -0.036,-0.05 -0.053,-0.078 -0.108,-0.178 -0.195,-0.411 -0.248,-0.624 -0.057,-0.231 -0.068,-0.46 -0.142,-0.689 -0.038,-0.121 -0.073,-0.215 -0.092,-0.343 -0.011,-0.069 -0.015,-0.147 -0.032,-0.213 -0.015,-0.061 -0.05,-0.108 -0.073,-0.166 -0.026,-0.064 -0.032,-0.288 -0.113,-0.303 -0.044,0.033 -0.021,0.053 -0.04,0.094 -0.021,0.046 -0.047,0.09 -0.072,0.136 -0.054,0.102 -0.08,0.209 -0.147,0.303 -0.191,0.266 -0.328,0.568 -0.399,0.894 -0.045,0.206 -0.086,0.435 -0.044,0.647 0.065,0.332 0.261,0.616 0.345,0.942 0.05,0.195 0.112,0.386 0.173,0.577 0.024,0.077 0.032,0.161 0.072,0.227 0.257,0.103 0.278,0.175 0.344,0.198 0.062,0.021 0.146,-0.02 0.203,-0.043 0.373,-0.147 0.756,-0.194 1.151,-0.194 0.142,0 0.291,-0.015 0.428,0.018 0.118,0.029 0.234,0.086 0.354,0.102 0.214,0.029 0.436,-0.014 0.653,0.017 0.065,0.01 0.23,0.059 0.282,-0.028 0.017,-0.028 0.002,-0.06 0.005,-0.091 0.004,-0.059 0.016,-0.107 0.029,-0.166 0.026,-0.114 0.037,-0.223 0.05,-0.34 0.024,-0.214 0.075,-0.426 0.102,-0.641 0.021,-0.16 0.008,-0.326 0.008,-0.488 m -0.602,-5.169 c -0.118,-0.09 -0.28,-0.11 -0.41,-0.178 -0.116,-0.061 -0.224,-0.139 -0.34,-0.198 -0.115,-0.059 -0.249,-0.048 -0.372,-0.074 -0.097,-0.021 -0.19,-0.019 -0.29,-0.019 -0.175,0 -0.35,0.001 -0.526,0 -0.112,-10e-4 -0.149,-0.009 -0.239,0.053 -0.058,0.04 -0.114,0.084 -0.177,0.113 -0.062,0.028 -0.191,0.036 -0.518,0.185 0.003,0.055 0.052,0.112 0.072,0.164 0.065,0.166 0.115,0.335 0.199,0.493 0.072,0.134 0.162,0.25 0.221,0.39 0.049,0.115 0.084,0.233 0.128,0.35 0.03,0.078 0.081,0.155 0.093,0.238 0.007,0.054 -0.005,0.106 0.004,0.159 0.019,0.108 0.035,0.177 0.034,0.292 -0.01,-0.09 0.05,-0.169 0.082,-0.248 0.034,-0.084 0.089,-0.154 0.12,-0.238 0.02,-0.054 0.021,-0.1 0.033,-0.157 0.051,-0.243 0.14,-0.469 0.142,-0.725 10e-4,-0.126 -0.029,-0.285 -0.003,-0.407 0.023,-0.11 0.078,-0.068 0.153,-0.047 0.065,0.019 0.131,0 0.197,0.016 0.193,0.048 0.22,0.276 0.291,0.44 0.049,0.112 0.074,0.225 0.096,0.346 0.007,0.04 0.004,0.11 0.016,0.146 0.005,0.016 0.028,0.033 0.03,0.043 0.025,0.111 0.013,0.232 0.037,0.348 0.019,0.092 0.047,0.173 0.048,0.267 0.001,0.085 -0.003,0.16 0.018,0.238 0.016,0.062 -0.005,0.21 0.044,0.258 0.171,-0.102 0.316,-0.29 0.229,-0.207 0.155,-0.147 0.274,-0.23 0.339,-0.436 0.038,-0.121 0.113,-0.22 0.151,-0.34 0.025,-0.079 0.027,-0.164 0.05,-0.239 0.035,-0.117 0.124,-0.197 0.154,-0.321 0.029,-0.115 0.064,-0.219 0.067,-0.337 0.004,-0.151 -0.053,-0.277 -0.173,-0.368 m -5.368,7.143 c -0.119,0.047 -0.283,0.084 -0.363,0.192 -0.051,0.067 -0.082,0.166 -0.123,0.239 -0.034,0.061 -0.047,0.105 -0.065,0.174 -0.041,0.156 -0.009,0.305 -0.036,0.462 -0.024,0.136 -0.043,0.271 -0.032,0.414 0.014,0.191 0.128,0.43 0.273,0.549 0.089,0.073 0.209,0.086 0.068,0.311 0.05,0.129 0.127,0.194 0.257,0.196 0.157,0.003 0.315,-0.001 0.473,-0.001 0.063,0 0.151,0.018 0.211,0.003 0.056,-0.014 0.102,-0.055 0.155,-0.079 0.123,-0.057 0.244,-0.119 0.357,-0.198 0.081,-0.058 0.059,-0.062 0.104,-0.151 0.07,-0.137 0.133,-0.238 0.164,-0.395 0.068,-0.345 0.05,-0.653 -0.039,-0.985 -0.033,-0.123 -0.079,-0.226 -0.132,-0.34 -0.074,-0.159 -0.142,-0.199 -0.298,-0.272 -0.286,-0.133 -0.666,-0.24 -0.974,-0.119 m 13.656,-7.12 c -0.071,0.024 -0.171,0.004 -0.247,0.004 -0.156,0 -0.312,10e-4 -0.468,0 -0.197,-10e-4 -0.388,0.025 -0.584,0.03 -0.234,0.006 -0.461,0.008 -0.691,0.059 -0.223,0.049 -0.437,0.082 -0.65,0.175 -0.106,0.047 -0.22,0.064 -0.329,0.099 -0.107,0.034 -0.221,0.055 -0.33,0.09 -0.157,0.049 -0.333,0.075 -0.486,0.136 -0.152,0.061 -0.309,0.138 -0.456,0.214 -0.153,0.081 -0.274,0.205 -0.419,0.299 -0.107,0.069 -0.204,0.146 -0.301,0.231 -0.094,0.082 -0.224,0.184 -0.301,0.289 -0.042,0.056 -0.067,0.116 -0.112,0.171 -0.087,0.104 -0.184,0.202 -0.263,0.313 -0.012,0.016 -0.022,0.034 -0.034,0.051 0.035,0.231 0.063,0.466 0.09,0.697 0.093,0.789 0.196,1.634 0.609,2.326 0.055,0.092 0.093,0.219 0.162,0.297 0.045,0.05 0.089,0.056 0.141,0.088 0.061,0.038 0.113,0.09 0.175,0.128 0.108,0.067 0.133,0.132 0.194,0.245 0.07,0.132 0.163,0.255 0.207,0.4 0.078,0.26 0.11,0.549 0.118,0.818 C 3.243,-0.476 3.35,0.028 3.148,0.47 3.057,0.667 2.934,0.819 2.791,0.979 2.637,1.149 2.585,1.181 2.386,1.268 2.35,1.285 2.322,1.303 2.288,1.324 2.234,1.357 2.158,1.371 2.11,1.405 2.029,1.462 1.987,1.569 1.946,1.658 1.892,1.777 1.816,1.882 1.765,2.001 1.721,2.103 1.703,2.212 1.654,2.313 1.543,2.542 1.477,2.916 1.562,3.164 1.703,3.576 2.017,3.872 2.251,4.227 2.34,4.36 2.372,4.531 2.441,4.676 c 0.107,0.223 0.102,0.51 0.112,0.756 0.01,0.256 -0.01,0.511 0.02,0.765 0.028,0.234 0.059,0.464 0.06,0.7 10e-4,0.12 0.006,0.24 -0.007,0.36 C 2.613,7.378 2.571,7.489 2.542,7.607 2.478,7.873 2.45,8.147 2.405,8.417 2.378,8.581 2.311,8.723 2.253,8.878 2.177,9.083 2.116,9.33 2.105,9.743 2.104,9.243 2.187,8.75 2.227,8.251 2.245,8.023 2.296,7.728 2.258,7.496 2.239,7.379 2.162,7.278 2.143,7.156 2.124,7.035 2.112,6.953 2.06,6.839 2.01,6.731 1.948,6.62 1.923,6.502 1.898,6.388 1.89,6.277 1.852,6.165 1.756,5.881 1.662,5.602 1.541,5.33 1.51,5.261 1.497,5.163 1.457,5.098 1.429,5.053 1.384,5.022 1.353,4.978 1.281,4.88 1.227,4.77 1.154,4.671 1.1,4.6 1.055,4.522 1.004,4.448 0.948,4.365 0.899,4.315 0.827,4.245 0.749,4.17 0.624,3.998 0.518,3.979 0.427,3.964 0.422,4.026 0.368,4.088 0.316,4.147 0.25,4.195 0.196,4.255 0.123,4.337 0.118,4.417 0.068,4.509 0.002,4.63 -0.113,4.596 -0.229,4.634 -0.321,4.665 -0.411,4.7 -0.505,4.728 -0.547,4.74 -0.588,4.749 -0.629,4.761 -0.695,4.78 -0.762,4.781 -0.833,4.797 -1.087,4.855 -1.335,4.936 -1.597,4.947 -1.988,4.962 -2.383,4.946 -2.775,4.946 -2.897,4.946 -3.104,4.976 -3.22,4.919 -3.287,4.885 -3.326,4.813 -3.375,4.75 -3.429,4.681 -3.467,4.61 -3.523,4.548 -3.615,4.445 -3.71,4.372 -3.835,4.321 -3.921,4.286 -4,4.27 -4.081,4.215 -4.135,4.178 -4.218,4.095 -4.284,4.085 -4.393,4.07 -4.51,4.184 -4.594,4.234 c -0.099,0.059 -0.18,0.087 -0.265,0.172 -0.09,0.09 -0.169,0.191 -0.254,0.286 -0.088,0.099 -0.152,0.188 -0.216,0.304 -0.054,0.1 -0.137,0.172 -0.189,0.268 -0.04,0.073 -0.058,0.196 -0.091,0.274 -0.042,0.084 -0.075,0.172 -0.1,0.264 -0.002,0.05 -0.006,0.1 -0.012,0.149 -0.041,0.163 -0.136,0.313 -0.173,0.476 -0.065,0.288 -0.126,0.577 -0.194,0.864 -0.036,0.148 -0.093,0.28 -0.141,0.424 -0.094,0.279 -0.164,0.585 -0.191,0.88 -0.029,0.318 -0.085,0.628 -0.083,0.948 0.001,0.057 -0.003,0.116 -10e-4,0.173 0.004,0.076 0.024,0.078 0.041,0.137 0.021,0.073 -0.002,0.191 -0.002,0.267 0,0.048 0.008,0.108 -0.006,0.152 C -6.642,10.034 -6.57,9.664 -6.623,9.386 -6.692,9.02 -6.748,8.648 -6.785,8.277 -6.807,8.06 -6.87,7.841 -6.88,7.623 -6.891,7.418 -6.879,7.209 -6.879,7.004 -6.878,6.689 -6.916,6.387 -6.916,6.071 -6.916,5.79 -6.914,5.508 -6.917,5.227 -6.919,5.003 -6.879,4.809 -6.83,4.593 -6.802,4.472 -6.803,4.342 -6.763,4.225 -6.729,4.126 -6.663,4.033 -6.625,3.933 -6.577,3.808 -6.517,3.686 -6.473,3.56 -6.393,3.33 -6.311,3.104 -6.229,2.876 -6.198,2.788 -6.185,2.698 -6.154,2.606 -6.13,2.535 -6.072,2.376 -6.092,2.305 -6.195,2.36 -6.315,2.467 -6.43,2.493 -6.538,2.517 -6.683,2.492 -6.795,2.49 -6.95,2.487 -7.07,2.36 -7.18,2.254 -7.269,2.169 -7.359,2.144 -7.425,2.039 -7.501,1.92 -7.615,1.833 -7.678,1.709 -7.705,1.658 -7.73,1.616 -7.761,1.568 -7.821,1.474 -7.832,1.366 -7.876,1.268 -7.959,1.089 -8.036,0.916 -8.102,0.732 -8.132,0.648 -8.187,0.582 -8.197,0.492 -8.208,0.396 -8.202,0.314 -8.223,0.218 -8.254,0.07 -8.253,-0.087 -8.302,-0.226 c -0.07,-0.2 -0.058,-0.431 -0.014,-0.637 0.065,-0.307 0.294,-0.533 0.538,-0.708 0.106,-0.076 0.255,-0.083 0.298,-0.209 0.062,-0.185 0.03,-0.391 0.056,-0.587 0.037,-0.273 0.118,-0.533 0.171,-0.802 0.039,-0.204 0.08,-0.404 0.142,-0.602 0.1,-0.322 0.246,-0.579 0.435,-0.858 0.123,-0.181 0.247,-0.369 0.336,-0.572 0.087,-0.199 0.148,-0.408 0.231,-0.609 -0.004,-0.005 -0.008,-0.012 -0.012,-0.017 -0.136,-0.182 -0.282,-0.302 -0.445,-0.453 -0.182,-0.168 -0.324,-0.377 -0.509,-0.543 -0.261,-0.236 -0.613,-0.389 -0.944,-0.48 -0.184,-0.051 -0.365,-0.095 -0.548,-0.154 -0.155,-0.05 -0.315,-0.097 -0.475,-0.129 -0.162,-0.031 -0.328,-0.037 -0.488,-0.08 -0.243,-0.064 -0.48,-0.083 -0.731,-0.082 -0.094,0.001 -0.19,-0.006 -0.284,-0.002 -0.073,0.003 -0.133,0.034 -0.2,0.062 -0.019,0.008 -0.072,0.044 -0.092,0.051 -0.055,0.018 -0.101,0.01 -0.147,0.055 -0.085,-0.101 0.043,-0.299 0.101,-0.382 0.08,-0.116 0.118,-0.246 0.224,-0.344 0.074,-0.068 0.165,-0.11 0.243,-0.172 0.108,-0.087 0.225,-0.12 0.351,-0.175 0.191,-0.085 0.378,-0.105 0.583,-0.139 0.198,-0.032 0.399,-0.065 0.599,-0.089 0.154,-0.018 0.312,-0.005 0.466,-0.006 0.234,0 0.469,0.007 0.703,0.002 0.223,-0.005 0.443,-0.033 0.667,-0.032 0.382,0.003 0.784,-0.043 1.16,0.034 0.313,0.063 0.594,0.155 0.853,0.346 0.008,0.006 0.016,0.013 0.024,0.018 0.116,-0.255 0.249,-0.51 0.422,-0.711 0.231,-0.268 0.612,-0.209 0.933,-0.213 0.457,-0.005 0.915,0 1.372,-0.004 0.224,-10e-4 0.443,0.002 0.663,0.046 0.148,0.03 0.299,0.058 0.449,0.071 0.171,0.014 0.365,0.023 0.534,-0.002 0.116,-0.017 0.23,-0.051 0.346,-0.066 0.118,-0.014 0.241,-0.007 0.358,-0.008 0.043,0 0.115,-0.017 0.156,-0.001 0.093,0.038 0.082,0.211 0.106,0.31 0.062,0.243 0.18,0.47 0.29,0.696 0.056,-0.026 0.113,-0.052 0.17,-0.08 0.098,-0.051 0.197,-0.099 0.3,-0.138 0.069,-0.026 0.143,-0.034 0.209,-0.068 0.107,-0.056 0.193,-0.117 0.308,-0.154 0.16,-0.052 0.316,-0.095 0.467,-0.165 0.092,-0.042 0.205,-0.048 0.304,-0.074 0.355,-0.095 0.724,-0.134 1.084,-0.205 0.189,-0.038 0.364,-0.04 0.556,-0.041 0.152,-0.001 0.283,0.038 0.431,0.053 0.207,0.022 0.41,0.002 0.616,0.043 0.216,0.042 0.434,0.078 0.648,0.13 0.19,0.046 0.358,0.127 0.538,0.197 0.221,0.087 0.477,0.22 0.653,0.384 0.054,0.05 0.102,0.107 0.152,0.16 0.035,0.036 0.11,0.094 0.137,0.141 0.021,0.037 0.023,0.072 0.014,0.117"
             style="fill:#100f0d;fill-opacity:1;fill-rule:nonzero;stroke:none"
             id="path2409" />
        </g>
      </g>
    </g>
  </g>
</svg>
