<?xml version="1.0" encoding="UTF-8" standalone="no"?>
<!-- Created with Inkscape (http://www.inkscape.org/) -->

<svg
   width="13.343983"
   height="24"
   viewBox="0 0 3.5305953 6.35"
   version="1.1"
   id="svg11522"
   inkscape:version="1.2.1 (9c6d41e4, 2022-07-14)"
   sodipodi:docname="single-group.svg"
   xmlns:inkscape="http://www.inkscape.org/namespaces/inkscape"
   xmlns:sodipodi="http://sodipodi.sourceforge.net/DTD/sodipodi-0.dtd"
   xmlns="http://www.w3.org/2000/svg"
   xmlns:svg="http://www.w3.org/2000/svg">
  <sodipodi:namedview
     id="namedview11524"
     pagecolor="#505050"
     bordercolor="#eeeeee"
     borderopacity="1"
     inkscape:showpageshadow="0"
     inkscape:pageopacity="0"
     inkscape:pagecheckerboard="0"
     inkscape:deskcolor="#505050"
     inkscape:document-units="mm"
     showgrid="false"
     inkscape:zoom="0.7046647"
     inkscape:cx="-42.573439"
     inkscape:cy="131.2681"
     inkscape:window-width="1390"
     inkscape:window-height="941"
     inkscape:window-x="0"
     inkscape:window-y="25"
     inkscape:window-maximized="0"
     inkscape:current-layer="layer1" />
  <defs
     id="defs11519">
    <clipPath
       clipPathUnits="userSpaceOnUse"
       id="clipPath2417">
      <path
         d="m 131.8,260.021 h 24.7 v 24.7 h -24.7 z"
         id="path2415" />
    </clipPath>
  </defs>
  <g
     inkscape:label="Layer 1"
     inkscape:groupmode="layer"
     id="layer1"
     transform="translate(-116.50904,-113.97292)">
    <g
       id="g2411"
       transform="matrix(0.2837394,0,0,-0.2837394,77.456422,194.36091)">
      <g
         id="g2413"
         clip-path="url(#clipPath2417)">
        <g
           id="g2419"
           transform="translate(142.416,282.3577)">
          <path
             d="m 0,0 c -0.075,-0.114 -0.144,-0.233 -0.206,-0.358 -0.034,-0.068 -0.045,-0.145 -0.089,-0.209 -0.032,-0.047 -0.057,-0.062 -0.076,-0.124 -0.041,-0.134 -0.072,-0.274 -0.11,-0.41 -0.029,-0.107 -0.059,-0.181 -0.046,-0.295 0.012,-0.11 -0.022,-0.225 -0.035,-0.338 -0.052,-0.47 -0.003,-1.091 0.249,-1.514 0.094,-0.158 0.223,-0.286 0.361,-0.4 0.128,-0.106 0.272,-0.191 0.349,-0.349 0.069,-0.14 0.124,-0.258 0.258,-0.346 0.16,-0.105 0.348,-0.09 0.524,-0.067 0.266,0.034 0.53,0.117 0.791,0.176 0.32,0.071 0.578,0.181 0.819,0.414 0.11,0.106 0.228,0.211 0.329,0.327 0.1,0.113 0.164,0.255 0.256,0.375 0.18,0.234 0.21,0.6 0.221,0.891 0.006,0.134 0.057,0.251 0.096,0.375 0.061,0.194 0.103,0.413 0.07,0.62 -0.025,0.155 -0.044,0.277 -0.012,0.43 C 3.817,-0.482 3.712,-0.171 3.47,0.047 3.325,0.179 3.186,0.317 3.044,0.454 2.904,0.59 2.738,0.676 2.559,0.732 2.365,0.791 2.18,0.877 1.987,0.94 1.865,0.98 1.731,0.943 1.608,0.943 1.484,0.943 1.376,0.958 1.253,0.931 1.121,0.903 1.016,0.804 0.887,0.775 0.856,0.768 0.822,0.774 0.791,0.767 0.686,0.744 0.578,0.667 0.492,0.604 0.372,0.516 0.281,0.387 0.19,0.268 0.124,0.18 0.06,0.091 0,0"
             style="fill:#231f20;fill-opacity:1;fill-rule:nonzero;stroke:none"
             id="path2421" />
        </g>
        <g
           id="g2423"
           transform="translate(142.5085,275.0166)">
          <path
             d="m 0,0 c -0.196,-0.098 -0.101,-0.546 -0.084,-0.709 0.01,-0.095 0.026,-0.166 0.051,-0.253 0.044,-0.154 0.052,-0.324 0.076,-0.482 0.051,-0.344 0.106,-0.687 0.164,-1.03 0.037,-0.23 0.041,-0.46 0.014,-0.69 C 0.194,-3.389 0.169,-3.614 0.148,-3.84 0.135,-4.112 0.133,-4.384 0.141,-4.656 0.153,-4.888 0.147,-5.119 0.123,-5.35 0.094,-5.518 0.058,-5.685 0.016,-5.851 c -0.06,-0.4 0.032,-0.812 0.114,-1.201 0.07,-0.333 0.15,-0.659 0.227,-0.99 0.081,-0.351 0.077,-0.709 0.177,-1.055 0.087,-0.297 0.159,-0.594 0.209,-0.899 0.018,-0.113 0.033,-0.225 0.045,-0.338 0.047,-0.163 0.096,-0.325 0.148,-0.486 0.165,-0.613 0.085,-1.178 0.006,-1.795 -0.019,-0.154 -0.05,-0.274 0.001,-0.422 0.032,-0.092 0.069,-0.182 0.099,-0.275 0.02,-0.063 0.062,-0.178 0.075,-0.233 0.021,-0.091 0.011,-0.193 0.01,-0.288 -0.001,-0.079 0.015,-0.196 0.088,-0.247 -0.024,0.119 0.039,0.25 0.042,0.371 0.006,0.189 0.015,0.344 0.05,0.529 0.055,0.296 0.194,0.52 0.293,0.798 0.091,0.26 0.127,0.529 0.17,0.797 0.057,0.354 0.029,0.719 0.085,1.079 0.042,0.269 0.065,0.527 0.124,0.793 0.039,0.177 0.081,0.349 0.142,0.52 0.076,0.213 0.188,0.392 0.223,0.616 0.027,0.175 0.025,0.353 0.031,0.529 0.006,0.173 0.033,0.344 0.04,0.517 0.009,0.231 -0.002,0.466 -0.002,0.698 0,0.287 -0.009,0.574 0.01,0.861 0.019,0.303 0.019,0.614 0.118,0.903 0.08,0.234 0.168,0.483 0.175,0.732 0.007,0.234 -0.002,0.471 -0.003,0.705 -10e-4,0.255 0.052,0.513 0.042,0.767 -0.01,0.24 -0.029,0.48 -0.023,0.724 0.012,0.537 0.053,1.073 0.098,1.609 0.01,0.116 0.042,0.315 -0.013,0.42 C 2.733,0.046 2.595,0.064 2.436,0.003 2.266,-0.061 2.159,-0.116 1.979,-0.115 c -0.161,0.002 -0.323,0 -0.484,0 -0.163,0 -0.343,-0.022 -0.503,0.009 -0.109,0.021 -0.202,0.03 -0.314,0.03 -0.173,-0.001 -0.346,0 -0.52,0 -0.076,0 -0.161,0.009 -0.237,0.001 C -0.128,-0.081 -0.266,-0.13 0,0"
             style="fill:#231f20;fill-opacity:1;fill-rule:nonzero;stroke:none"
             id="path2425" />
        </g>
        <g
           id="g2427"
           transform="translate(138.2877,275.4059)">
          <path
             d="m 0,0 c 0.009,0.003 0.019,0.005 0.029,0.007 0.162,0.026 0.326,0.038 0.487,0.066 0.13,0.022 0.261,0.069 0.38,0.125 0.189,0.09 0.397,0.129 0.596,0.197 0.254,0.087 0.549,0.116 0.767,0.276 0.177,0.13 0.427,0.178 0.636,0.238 0.307,0.087 0.617,0.15 0.918,0.257 0.274,0.096 0.541,0.179 0.826,0.239 0.182,0.038 0.342,0.104 0.515,0.171 0.136,0.053 0.259,0.052 0.402,0.07 0.217,0.028 0.431,0.104 0.64,0.166 0.252,0.076 0.485,0.063 0.739,0.091 0.28,0.031 0.534,0.12 0.82,0.124 0.107,10e-4 0.223,-0.013 0.331,0.005 0.126,0.02 0.245,0.089 0.377,0.082 0.098,-0.005 0.182,-0.064 0.28,-0.073 0.082,-0.008 0.161,0.017 0.24,0.038 0.426,0.109 0.928,0.207 1.286,0.457 0.124,0.088 0.276,0.099 0.42,0.128 0.142,0.029 0.265,0.074 0.399,0.125 0.063,0.024 0.232,0.084 0.313,0.053 0.068,-0.026 0.061,-0.071 0.087,-0.128 0.053,-0.12 0.177,-0.229 0.202,-0.356 0.033,-0.163 -0.003,-0.354 0.012,-0.522 0.016,-0.176 0.052,-0.349 0.069,-0.525 0.034,-0.357 0.028,-0.751 -0.046,-1.1 -0.021,-0.095 -0.034,-0.185 -0.033,-0.282 10e-4,-0.034 0.02,-0.1 -0.005,-0.128 -0.029,-0.032 -0.253,-0.007 -0.291,-0.006 -0.207,0.001 -0.401,-0.049 -0.605,-0.072 -0.146,-0.017 -0.289,-0.01 -0.433,-0.041 C 9.958,-0.404 9.577,-0.539 9.169,-0.598 8.842,-0.645 8.515,-0.695 8.188,-0.745 7.818,-0.802 7.446,-0.803 7.077,-0.854 6.436,-0.942 5.817,-1.193 5.19,-1.344 5.092,-1.368 4.996,-1.397 4.901,-1.428 4.607,-1.524 4.309,-1.656 3.997,-1.672 3.806,-1.681 3.622,-1.617 3.432,-1.629 3.153,-1.647 2.934,-1.828 2.669,-1.896 2.426,-1.958 2.176,-1.978 1.929,-2.022 1.743,-2.055 1.563,-2.104 1.373,-2.108 1.119,-2.115 0.877,-2.195 0.627,-2.182 0.501,-2.175 0.381,-2.211 0.269,-2.267 0.193,-2.306 0.095,-2.374 0.008,-2.389 c -0.091,-0.016 -0.156,0.032 -0.235,0.072 -0.146,0.073 -0.312,0.156 -0.398,0.299 -0.053,0.088 -0.017,0.132 0.011,0.232 0.033,0.113 0.026,0.282 0.084,0.383 0.022,0.039 0.047,0.035 0.07,0.074 0.03,0.053 0.035,0.146 0.051,0.206 0.07,0.265 0.148,0.528 0.229,0.79 C -0.136,-0.192 -0.143,-0.041 0,0"
             style="fill:#231f20;fill-opacity:1;fill-rule:nonzero;stroke:none"
             id="path2429" />
        </g>
      </g>
    </g>
  </g>
</svg>
